<?xml version="1.0" encoding="UTF-8" standalone="no"?>
<!DOCTYPE svg PUBLIC "-//W3C//DTD SVG 1.1//EN"
 "http://www.w3.org/Graphics/SVG/1.1/DTD/svg11.dtd">
<!-- Generated by graphviz version 2.43.0 (0)
 -->
<!-- Title: alltypes Pages: 1 -->
<svg width="674pt" height="404pt"
 viewBox="0.00 0.00 674.24 404.00" xmlns="http://www.w3.org/2000/svg" xmlns:xlink="http://www.w3.org/1999/xlink">
<g id="graph0" class="graph" transform="scale(1 1) rotate(0) translate(4 400)">
<title>alltypes</title>
<polygon fill="white" stroke="transparent" points="-4,4 -4,-400 670.24,-400 670.24,4 -4,4"/>
<!-- Rule -->
<g id="node1" class="node">
<title>Rule</title>
<ellipse fill="none" stroke="darkviolet" cx="350.95" cy="-306" rx="31.7" ry="18"/>
<text text-anchor="middle" x="350.95" y="-302.3" font-family="Times,serif" font-size="14.00">Rule</text>
</g>
<!-- Annotation -->
<g id="node2" class="node">
<title>Annotation</title>
<ellipse fill="none" stroke="#ee0000" cx="215.95" cy="-162" rx="61.99" ry="18"/>
<text text-anchor="middle" x="215.95" y="-158.3" font-family="Times,serif" font-size="14.00">Annotation</text>
</g>
<!-- Rule&#45;&gt;Annotation -->
<g id="edge1" class="edge">
<title>Rule&#45;&gt;Annotation</title>
<path fill="none" stroke="black" d="M324.82,-295.26C304.41,-286.55 276.5,-272.05 257.95,-252 241.51,-234.25 230.41,-208.92 223.77,-189.82"/>
<polygon fill="black" stroke="black" points="227.06,-188.61 220.62,-180.2 220.41,-190.79 227.06,-188.61"/>
</g>
<!-- Target -->
<g id="node3" class="node">
<title>Target</title>
<ellipse fill="none" stroke="#ee0000" cx="345.95" cy="-162" rx="40.89" ry="18"/>
<text text-anchor="middle" x="345.95" y="-158.3" font-family="Times,serif" font-size="14.00">Target</text>
</g>
<!-- Rule&#45;&gt;Target -->
<g id="edge2" class="edge">
<title>Rule&#45;&gt;Target</title>
<path fill="none" stroke="black" d="M324.07,-296.1C304.36,-287.99 279.02,-273.89 266.95,-252 259.22,-237.99 259.42,-230.12 266.95,-216 275.59,-199.8 291.62,-187.67 307,-179.14"/>
<polygon fill="black" stroke="black" points="308.64,-182.23 315.92,-174.52 305.43,-176.01 308.64,-182.23"/>
</g>
<!-- Dependencies -->
<g id="node4" class="node">
<title>Dependencies</title>
<ellipse fill="none" stroke="#ee0000" cx="350.95" cy="-234" rx="75.29" ry="18"/>
<text text-anchor="middle" x="350.95" y="-230.3" font-family="Times,serif" font-size="14.00">Dependencies</text>
</g>
<!-- Rule&#45;&gt;Dependencies -->
<g id="edge3" class="edge">
<title>Rule&#45;&gt;Dependencies</title>
<path fill="none" stroke="black" d="M350.95,-287.7C350.95,-279.98 350.95,-270.71 350.95,-262.11"/>
<polygon fill="black" stroke="black" points="354.45,-262.1 350.95,-252.1 347.45,-262.1 354.45,-262.1"/>
</g>
<!-- Type -->
<g id="node5" class="node">
<title>Type</title>
<ellipse fill="none" stroke="darkviolet" cx="477.95" cy="-234" rx="33.29" ry="18"/>
<text text-anchor="middle" x="477.95" y="-230.3" font-family="Times,serif" font-size="14.00">Type</text>
</g>
<!-- Rule&#45;&gt;Type -->
<g id="edge4" class="edge">
<title>Rule&#45;&gt;Type</title>
<path fill="none" stroke="black" d="M373.07,-292.81C393.3,-281.65 423.47,-265.02 446.27,-252.46"/>
<polygon fill="black" stroke="black" points="448.15,-255.42 455.22,-247.52 444.77,-249.29 448.15,-255.42"/>
</g>
<!-- Command -->
<g id="node6" class="node">
<title>Command</title>
<ellipse fill="none" stroke="darkviolet" cx="586.95" cy="-234" rx="57.69" ry="18"/>
<text text-anchor="middle" x="586.95" y="-230.3" font-family="Times,serif" font-size="14.00">Command</text>
</g>
<!-- Rule&#45;&gt;Command -->
<g id="edge5" class="edge">
<title>Rule&#45;&gt;Command</title>
<path fill="none" stroke="black" d="M378.48,-296.83C417.27,-285.33 488.65,-264.15 536.96,-249.83"/>
<polygon fill="black" stroke="black" points="538,-253.17 546.59,-246.97 536.01,-246.46 538,-253.17"/>
</g>
<!-- String -->
<g id="node10" class="node">
<title>String</title>
<ellipse fill="none" stroke="black" cx="199.95" cy="-18" rx="40.09" ry="18"/>
<text text-anchor="middle" x="199.95" y="-14.3" font-family="Times,serif" font-size="14.00">String</text>
</g>
<!-- Annotation&#45;&gt;String -->
<g id="edge9" class="edge">
<title>Annotation&#45;&gt;String</title>
<path fill="none" stroke="black" d="M217.09,-143.83C217.98,-125.83 218.53,-96.78 214.95,-72 213.68,-63.25 211.37,-53.91 208.94,-45.55"/>
<polygon fill="black" stroke="black" points="212.27,-44.46 205.98,-35.94 205.58,-46.52 212.27,-44.46"/>
</g>
<!-- MakeString -->
<g id="node7" class="node">
<title>MakeString</title>
<ellipse fill="none" stroke="darkviolet" cx="345.95" cy="-90" rx="65.79" ry="18"/>
<text text-anchor="middle" x="345.95" y="-86.3" font-family="Times,serif" font-size="14.00">MakeString</text>
</g>
<!-- Target&#45;&gt;MakeString -->
<g id="edge10" class="edge">
<title>Target&#45;&gt;MakeString</title>
<path fill="none" stroke="black" d="M345.95,-143.7C345.95,-135.98 345.95,-126.71 345.95,-118.11"/>
<polygon fill="black" stroke="black" points="349.45,-118.1 345.95,-108.1 342.45,-118.1 349.45,-118.1"/>
</g>
<!-- Dependencies&#45;&gt;Target -->
<g id="edge11" class="edge">
<title>Dependencies&#45;&gt;Target</title>
<path fill="none" stroke="black" d="M349.71,-215.7C349.16,-207.98 348.5,-198.71 347.88,-190.11"/>
<polygon fill="black" stroke="black" points="351.37,-189.83 347.17,-180.1 344.39,-190.33 351.37,-189.83"/>
</g>
<!-- Command&#45;&gt;MakeString -->
<g id="edge6" class="edge">
<title>Command&#45;&gt;MakeString</title>
<path fill="none" stroke="black" d="M561.15,-217.8C517.71,-192.21 429.92,-140.48 380.95,-111.63"/>
<polygon fill="black" stroke="black" points="382.67,-108.58 372.28,-106.52 379.12,-114.61 382.67,-108.58"/>
</g>
<!-- CommandOpts -->
<g id="node8" class="node">
<title>CommandOpts</title>
<ellipse fill="none" stroke="darkviolet" cx="586.95" cy="-162" rx="79.09" ry="18"/>
<text text-anchor="middle" x="586.95" y="-158.3" font-family="Times,serif" font-size="14.00">CommandOpts</text>
</g>
<!-- Command&#45;&gt;CommandOpts -->
<g id="edge7" class="edge">
<title>Command&#45;&gt;CommandOpts</title>
<path fill="none" stroke="black" d="M586.95,-215.7C586.95,-207.98 586.95,-198.71 586.95,-190.11"/>
<polygon fill="black" stroke="black" points="590.45,-190.1 586.95,-180.1 583.45,-190.1 590.45,-190.1"/>
</g>
<!-- MakeString&#45;&gt;String -->
<g id="edge12" class="edge">
<title>MakeString&#45;&gt;String</title>
<path fill="none" stroke="black" d="M314.62,-73.98C291.4,-62.85 259.71,-47.65 235.52,-36.06"/>
<polygon fill="black" stroke="black" points="236.86,-32.82 226.33,-31.65 233.83,-39.13 236.86,-32.82"/>
</g>
<!-- Makefile -->
<g id="node9" class="node">
<title>Makefile</title>
<ellipse fill="none" stroke="darkgreen" cx="350.95" cy="-378" rx="50.09" ry="18"/>
<text text-anchor="middle" x="350.95" y="-374.3" font-family="Times,serif" font-size="14.00">Makefile</text>
</g>
<!-- Makefile&#45;&gt;Rule -->
<g id="edge8" class="edge">
<title>Makefile&#45;&gt;Rule</title>
<path fill="none" stroke="black" d="M350.95,-359.7C350.95,-351.98 350.95,-342.71 350.95,-334.11"/>
<polygon fill="black" stroke="black" points="354.45,-334.1 350.95,-324.1 347.45,-334.1 354.45,-334.1"/>
</g>
<!-- MVar -->
<g id="node11" class="node">
<title>MVar</title>
<ellipse fill="none" stroke="darkviolet" cx="81.95" cy="-162" rx="36" ry="18"/>
<text text-anchor="middle" x="81.95" y="-158.3" font-family="Times,serif" font-size="14.00">MVar</text>
</g>
<!-- VarName -->
<g id="node12" class="node">
<title>VarName</title>
<ellipse fill="none" stroke="#ee0000" cx="53.95" cy="-90" rx="53.89" ry="18"/>
<text text-anchor="middle" x="53.95" y="-86.3" font-family="Times,serif" font-size="14.00">VarName</text>
</g>
<!-- MVar&#45;&gt;VarName -->
<g id="edge13" class="edge">
<title>MVar&#45;&gt;VarName</title>
<path fill="none" stroke="black" d="M75.17,-144.05C72.02,-136.18 68.19,-126.62 64.66,-117.79"/>
<polygon fill="black" stroke="black" points="67.82,-116.26 60.86,-108.28 61.32,-118.86 67.82,-116.26"/>
</g>
<!-- VarVal -->
<g id="node13" class="node">
<title>VarVal</title>
<ellipse fill="none" stroke="#ee0000" cx="165.95" cy="-90" rx="40.09" ry="18"/>
<text text-anchor="middle" x="165.95" y="-86.3" font-family="Times,serif" font-size="14.00">VarVal</text>
</g>
<!-- MVar&#45;&gt;VarVal -->
<g id="edge14" class="edge">
<title>MVar&#45;&gt;VarVal</title>
<path fill="none" stroke="black" d="M99.76,-146.15C111.4,-136.45 126.81,-123.61 139.83,-112.76"/>
<polygon fill="black" stroke="black" points="142.13,-115.4 147.58,-106.31 137.65,-110.02 142.13,-115.4"/>
</g>
<!-- VarName&#45;&gt;String -->
<g id="edge15" class="edge">
<title>VarName&#45;&gt;String</title>
<path fill="none" stroke="black" d="M83.49,-74.83C106.84,-63.64 139.51,-47.98 164.31,-36.09"/>
<polygon fill="black" stroke="black" points="165.89,-39.21 173.39,-31.73 162.86,-32.9 165.89,-39.21"/>
</g>
<!-- VarVal&#45;&gt;String -->
<g id="edge16" class="edge">
<title>VarVal&#45;&gt;String</title>
<path fill="none" stroke="black" d="M174.18,-72.05C178.14,-63.89 182.99,-53.91 187.4,-44.82"/>
<polygon fill="black" stroke="black" points="190.57,-46.31 191.79,-35.79 184.27,-43.25 190.57,-46.31"/>
</g>
</g>
</svg>
