<?xml version="1.0" encoding="UTF-8" standalone="no"?>
<!DOCTYPE svg PUBLIC "-//W3C//DTD SVG 1.1//EN"
 "http://www.w3.org/Graphics/SVG/1.1/DTD/svg11.dtd">
<!-- Generated by graphviz version 2.43.0 (0)
 -->
<!-- Title: alltypes Pages: 1 -->
<svg width="1199pt" height="415pt"
 viewBox="0.00 0.00 1198.84 414.82" xmlns="http://www.w3.org/2000/svg" xmlns:xlink="http://www.w3.org/1999/xlink">
<g id="graph0" class="graph" transform="scale(1 1) rotate(0) translate(4 410.82)">
<title>alltypes</title>
<polygon fill="white" stroke="transparent" points="-4,4 -4,-410.82 1194.84,-410.82 1194.84,4 -4,4"/>
<!-- DocType -->
<g id="node1" class="node">
<title>DocType</title>
<ellipse fill="none" stroke="#00cdcd" cx="722.47" cy="-297.67" rx="50.89" ry="18"/>
<text text-anchor="middle" x="722.47" y="-293.97" font-family="Times,serif" font-size="14.00">DocType</text>
</g>
<!-- DocType&#45;&gt;DocType -->
<g id="edge1" class="edge">
<title>DocType&#45;&gt;DocType</title>
<path fill="none" stroke="black" d="M769.67,-304.35C781.92,-303.94 791.16,-301.71 791.16,-297.67 791.16,-294.89 786.8,-292.97 780.08,-291.91"/>
<polygon fill="black" stroke="black" points="779.94,-288.38 769.67,-290.99 779.32,-295.35 779.94,-288.38"/>
</g>
<!-- Format -->
<g id="node2" class="node">
<title>Format</title>
<ellipse fill="none" stroke="black" cx="889.36" cy="-297.67" rx="44.39" ry="18"/>
<text text-anchor="middle" x="889.36" y="-293.97" font-family="Times,serif" font-size="14.00">Format</text>
</g>
<!-- DocType&#45;&gt;Format -->
<g id="edge2" class="edge">
<title>DocType&#45;&gt;Format</title>
<path fill="none" stroke="black" d="M773.45,-297.67C792.88,-297.67 815.09,-297.67 834.83,-297.67"/>
<polygon fill="black" stroke="black" points="834.9,-301.17 844.9,-297.67 834.9,-294.17 834.9,-301.17"/>
</g>
<!-- DocSpec -->
<g id="node3" class="node">
<title>DocSpec</title>
<ellipse fill="none" stroke="darkviolet" cx="692.67" cy="-167.67" rx="50.89" ry="18"/>
<text text-anchor="middle" x="692.67" y="-163.97" font-family="Times,serif" font-size="14.00">DocSpec</text>
</g>
<!-- DocChoices -->
<g id="node4" class="node">
<title>DocChoices</title>
<ellipse fill="none" stroke="black" cx="1126.49" cy="-167.67" rx="64.19" ry="18"/>
<text text-anchor="middle" x="1126.49" y="-163.97" font-family="Times,serif" font-size="14.00">DocChoices</text>
</g>
<!-- DocSpec&#45;&gt;DocChoices -->
<g id="edge3" class="edge">
<title>DocSpec&#45;&gt;DocChoices</title>
<path fill="none" stroke="black" d="M743.71,-167.67C819.87,-167.67 963.7,-167.67 1051.73,-167.67"/>
<polygon fill="black" stroke="black" points="1051.92,-171.17 1061.92,-167.67 1051.92,-164.17 1051.92,-171.17"/>
</g>
<!-- Filename -->
<g id="node5" class="node">
<title>Filename</title>
<ellipse fill="none" stroke="#ee0000" cx="516.02" cy="-167.67" rx="53.89" ry="18"/>
<text text-anchor="middle" x="516.02" y="-163.97" font-family="Times,serif" font-size="14.00">Filename</text>
</g>
<!-- DocSpec&#45;&gt;Filename -->
<g id="edge4" class="edge">
<title>DocSpec&#45;&gt;Filename</title>
<path fill="none" stroke="black" d="M641.57,-167.67C622.4,-167.67 600.35,-167.67 580.14,-167.67"/>
<polygon fill="black" stroke="black" points="580.08,-164.17 570.08,-167.67 580.08,-171.17 580.08,-164.17"/>
</g>
<!-- String -->
<g id="node8" class="node">
<title>String</title>
<ellipse fill="none" stroke="black" cx="169" cy="-161.47" rx="40.09" ry="18"/>
<text text-anchor="middle" x="169" y="-157.77" font-family="Times,serif" font-size="14.00">String</text>
</g>
<!-- Filename&#45;&gt;String -->
<g id="edge10" class="edge">
<title>Filename&#45;&gt;String</title>
<path fill="none" stroke="black" d="M461.8,-166.7C395.53,-165.52 284.26,-163.53 219.66,-162.38"/>
<polygon fill="black" stroke="black" points="219.38,-158.87 209.32,-162.19 219.25,-165.87 219.38,-158.87"/>
</g>
<!-- DocClass -->
<g id="node6" class="node">
<title>DocClass</title>
<ellipse fill="none" stroke="darkviolet" cx="53.3" cy="-273.12" rx="53.09" ry="18"/>
<text text-anchor="middle" x="53.3" y="-269.42" font-family="Times,serif" font-size="14.00">DocClass</text>
</g>
<!-- Maybe -->
<g id="node7" class="node">
<title>Maybe</title>
<ellipse fill="none" stroke="black" cx="164.94" cy="-388.82" rx="42.49" ry="18"/>
<text text-anchor="middle" x="164.94" y="-385.12" font-family="Times,serif" font-size="14.00">Maybe</text>
</g>
<!-- DocClass&#45;&gt;Maybe -->
<g id="edge5" class="edge">
<title>DocClass&#45;&gt;Maybe</title>
<path fill="none" stroke="black" d="M70.01,-290.44C89.05,-310.18 120.31,-342.56 141.71,-364.75"/>
<polygon fill="black" stroke="black" points="139.38,-367.37 148.84,-372.13 144.41,-362.51 139.38,-367.37"/>
</g>
<!-- DocClass&#45;&gt;String -->
<g id="edge6" class="edge">
<title>DocClass&#45;&gt;String</title>
<path fill="none" stroke="black" d="M71.12,-255.92C90.74,-236.98 122.41,-206.43 144.39,-185.22"/>
<polygon fill="black" stroke="black" points="146.96,-187.61 151.72,-178.14 142.1,-182.57 146.96,-187.61"/>
</g>
<!-- ExDoc -->
<g id="node9" class="node">
<title>ExDoc</title>
<ellipse fill="none" stroke="darkviolet" cx="280.65" cy="-277.18" rx="40.09" ry="18"/>
<text text-anchor="middle" x="280.65" y="-273.48" font-family="Times,serif" font-size="14.00">ExDoc</text>
</g>
<!-- ExDoc&#45;&gt;Maybe -->
<g id="edge7" class="edge">
<title>ExDoc&#45;&gt;Maybe</title>
<path fill="none" stroke="black" d="M263.57,-293.65C244.01,-312.53 211.77,-343.64 189.51,-365.12"/>
<polygon fill="black" stroke="black" points="186.85,-362.82 182.08,-372.28 191.71,-367.86 186.85,-362.82"/>
</g>
<!-- ExDoc&#45;&gt;String -->
<g id="edge8" class="edge">
<title>ExDoc&#45;&gt;String</title>
<path fill="none" stroke="black" d="M264.65,-260.6C245.67,-240.92 213.86,-207.96 192.18,-185.49"/>
<polygon fill="black" stroke="black" points="194.43,-182.78 184.97,-178.02 189.39,-187.64 194.43,-182.78"/>
</g>
<!-- UsePackages -->
<g id="node10" class="node">
<title>UsePackages</title>
<ellipse fill="none" stroke="darkgreen" cx="171.57" cy="-18" rx="71.49" ry="18"/>
<text text-anchor="middle" x="171.57" y="-14.3" font-family="Times,serif" font-size="14.00">UsePackages</text>
</g>
<!-- UsePackages&#45;&gt;String -->
<g id="edge9" class="edge">
<title>UsePackages&#45;&gt;String</title>
<path fill="none" stroke="black" d="M171.24,-36.17C170.8,-60.64 170.02,-104.43 169.51,-133.22"/>
<polygon fill="black" stroke="black" points="166,-133.39 169.32,-143.45 173,-133.51 166,-133.39"/>
</g>
</g>
</svg>
