<?xml version="1.0" encoding="UTF-8" standalone="no"?>
<!DOCTYPE svg PUBLIC "-//W3C//DTD SVG 1.1//EN"
 "http://www.w3.org/Graphics/SVG/1.1/DTD/svg11.dtd">
<!-- Generated by graphviz version 2.43.0 (0)
 -->
<!-- Title: alltypes Pages: 1 -->
<svg width="10780pt" height="3813pt"
 viewBox="0.00 0.00 10780.46 3813.16" xmlns="http://www.w3.org/2000/svg" xmlns:xlink="http://www.w3.org/1999/xlink">
<g id="graph0" class="graph" transform="scale(1 1) rotate(0) translate(4 3809.16)">
<title>alltypes</title>
<polygon fill="white" stroke="transparent" points="-4,4 -4,-3809.16 10776.46,-3809.16 10776.46,4 -4,4"/>
<!-- ConstraintSete -->
<g id="node1" class="node">
<title>ConstraintSete</title>
<ellipse fill="none" stroke="#00cdcd" cx="4043.03" cy="-1316.29" rx="81.49" ry="18"/>
<text text-anchor="middle" x="4043.03" y="-1312.59" font-family="Times,serif" font-size="14.00">ConstraintSete</text>
</g>
<!-- ConceptChunk -->
<g id="node2" class="node">
<title>ConceptChunk</title>
<ellipse fill="none" stroke="black" cx="4274.92" cy="-1316.29" rx="78.79" ry="18"/>
<text text-anchor="middle" x="4274.92" y="-1312.59" font-family="Times,serif" font-size="14.00">ConceptChunk</text>
</g>
<!-- ConstraintSete&#45;&gt;ConceptChunk -->
<g id="edge1" class="edge">
<title>ConstraintSete&#45;&gt;ConceptChunk</title>
<path fill="none" stroke="black" d="M4124.46,-1316.29C4144.33,-1316.29 4165.69,-1316.29 4185.89,-1316.29"/>
<polygon fill="black" stroke="black" points="4186.02,-1319.79 4196.02,-1316.29 4186.02,-1312.79 4186.02,-1319.79"/>
</g>
<!-- NonEmptye -->
<g id="node3" class="node">
<title>NonEmptye</title>
<ellipse fill="none" stroke="black" cx="65.64" cy="-1316.29" rx="65.79" ry="18"/>
<text text-anchor="middle" x="65.64" y="-1312.59" font-family="Times,serif" font-size="14.00">NonEmptye</text>
</g>
<!-- ConstraintSete&#45;&gt;NonEmptye -->
<g id="edge2" class="edge">
<title>ConstraintSete&#45;&gt;NonEmptye</title>
<path fill="none" stroke="black" d="M3961.78,-1316.29C3446.68,-1316.29 641.11,-1316.29 141.7,-1316.29"/>
<polygon fill="black" stroke="black" points="141.37,-1312.79 131.37,-1316.29 141.37,-1319.79 141.37,-1312.79"/>
</g>
<!-- DDPkt -->
<g id="node4" class="node">
<title>DDPkt</title>
<ellipse fill="none" stroke="#00cdcd" cx="8925.14" cy="-890" rx="40.89" ry="18"/>
<text text-anchor="middle" x="8925.14" y="-886.3" font-family="Times,serif" font-size="14.00">DDPkt</text>
</g>
<!-- ScopeType -->
<g id="node5" class="node">
<title>ScopeType</title>
<ellipse fill="none" stroke="darkviolet" cx="8208.07" cy="-2211.06" rx="61.19" ry="18"/>
<text text-anchor="middle" x="8208.07" y="-2207.36" font-family="Times,serif" font-size="14.00">ScopeType</text>
</g>
<!-- DDPkt&#45;&gt;ScopeType -->
<g id="edge3" class="edge">
<title>DDPkt&#45;&gt;ScopeType</title>
<path fill="none" stroke="black" d="M8915.55,-907.68C8838.23,-1050.11 8317.35,-2009.74 8222.78,-2183.96"/>
<polygon fill="black" stroke="black" points="8219.57,-2182.53 8217.88,-2192.99 8225.72,-2185.87 8219.57,-2182.53"/>
</g>
<!-- DecRef -->
<g id="node6" class="node">
<title>DecRef</title>
<ellipse fill="none" stroke="black" cx="8210.32" cy="-421.7" rx="44.39" ry="18"/>
<text text-anchor="middle" x="8210.32" y="-418" font-family="Times,serif" font-size="14.00">DecRef</text>
</g>
<!-- DDPkt&#45;&gt;DecRef -->
<g id="edge4" class="edge">
<title>DDPkt&#45;&gt;DecRef</title>
<path fill="none" stroke="black" d="M8902.17,-874.95C8797.37,-806.3 8364.56,-522.75 8242.5,-442.78"/>
<polygon fill="black" stroke="black" points="8244.21,-439.72 8233.93,-437.16 8240.38,-445.57 8244.21,-439.72"/>
</g>
<!-- MaybeDerivation -->
<g id="node7" class="node">
<title>MaybeDerivation</title>
<ellipse fill="none" stroke="black" cx="8743.92" cy="-656.56" rx="90.98" ry="18"/>
<text text-anchor="middle" x="8743.92" y="-652.86" font-family="Times,serif" font-size="14.00">MaybeDerivation</text>
</g>
<!-- DDPkt&#45;&gt;MaybeDerivation -->
<g id="edge5" class="edge">
<title>DDPkt&#45;&gt;MaybeDerivation</title>
<path fill="none" stroke="black" d="M8911.82,-872.83C8880.36,-832.31 8801.31,-730.49 8764.01,-682.44"/>
<polygon fill="black" stroke="black" points="8766.66,-680.14 8757.76,-674.39 8761.13,-684.43 8766.66,-680.14"/>
</g>
<!-- ShortName -->
<g id="node8" class="node">
<title>ShortName</title>
<ellipse fill="none" stroke="black" cx="7915.77" cy="-445.73" rx="63.89" ry="18"/>
<text text-anchor="middle" x="7915.77" y="-442.03" font-family="Times,serif" font-size="14.00">ShortName</text>
</g>
<!-- DDPkt&#45;&gt;ShortName -->
<g id="edge6" class="edge">
<title>DDPkt&#45;&gt;ShortName</title>
<path fill="none" stroke="black" d="M8896.02,-877.18C8753.66,-814.52 8130.88,-540.41 7959.54,-465"/>
<polygon fill="black" stroke="black" points="7960.88,-461.76 7950.31,-460.93 7958.06,-468.17 7960.88,-461.76"/>
</g>
<!-- String -->
<g id="node9" class="node">
<title>String</title>
<ellipse fill="none" stroke="black" cx="7427.3" cy="-763.98" rx="40.09" ry="18"/>
<text text-anchor="middle" x="7427.3" y="-760.28" font-family="Times,serif" font-size="14.00">String</text>
</g>
<!-- DDPkt&#45;&gt;String -->
<g id="edge7" class="edge">
<title>DDPkt&#45;&gt;String</title>
<path fill="none" stroke="black" d="M8884.69,-886.6C8674.59,-868.92 7708.7,-787.66 7477.25,-768.19"/>
<polygon fill="black" stroke="black" points="7477.36,-764.68 7467.1,-767.33 7476.77,-771.66 7477.36,-764.68"/>
</g>
<!-- Sentence -->
<g id="node10" class="node">
<title>Sentence</title>
<ellipse fill="none" stroke="black" cx="9020.75" cy="-1169.64" rx="53.89" ry="18"/>
<text text-anchor="middle" x="9020.75" y="-1165.94" font-family="Times,serif" font-size="14.00">Sentence</text>
</g>
<!-- DDPkt&#45;&gt;Sentence -->
<g id="edge8" class="edge">
<title>DDPkt&#45;&gt;Sentence</title>
<path fill="none" stroke="black" d="M8931.27,-907.92C8947.49,-955.35 8991.63,-1084.47 9011.2,-1141.69"/>
<polygon fill="black" stroke="black" points="9008,-1143.18 9014.55,-1151.51 9014.63,-1140.91 9008,-1143.18"/>
</g>
<!-- Scope -->
<g id="node11" class="node">
<title>Scope</title>
<ellipse fill="none" stroke="darkgreen" cx="8494.64" cy="-2138.87" rx="38.19" ry="18"/>
<text text-anchor="middle" x="8494.64" y="-2135.17" font-family="Times,serif" font-size="14.00">Scope</text>
</g>
<!-- ScopeType&#45;&gt;Scope -->
<g id="edge9" class="edge">
<title>ScopeType&#45;&gt;Scope</title>
<path fill="none" stroke="black" d="M8254.75,-2199.3C8308.98,-2185.64 8397.79,-2163.27 8450.79,-2149.92"/>
<polygon fill="black" stroke="black" points="8451.73,-2153.29 8460.57,-2147.46 8450.02,-2146.51 8451.73,-2153.29"/>
</g>
<!-- UID -->
<g id="node17" class="node">
<title>UID</title>
<ellipse fill="none" stroke="black" cx="8742.25" cy="-1977.55" rx="29.5" ry="18"/>
<text text-anchor="middle" x="8742.25" y="-1973.85" font-family="Times,serif" font-size="14.00">UID</text>
</g>
<!-- Scope&#45;&gt;UID -->
<g id="edge16" class="edge">
<title>Scope&#45;&gt;UID</title>
<path fill="none" stroke="black" d="M8517.49,-2123.99C8562.69,-2094.54 8663.43,-2028.91 8713.23,-1996.46"/>
<polygon fill="black" stroke="black" points="8715.44,-1999.19 8721.91,-1990.8 8711.62,-1993.33 8715.44,-1999.19"/>
</g>
<!-- DataDefinition -->
<g id="node12" class="node">
<title>DataDefinition</title>
<ellipse fill="none" stroke="darkviolet" cx="7913.58" cy="-2186.29" rx="77.99" ry="18"/>
<text text-anchor="middle" x="7913.58" y="-2182.59" font-family="Times,serif" font-size="14.00">DataDefinition</text>
</g>
<!-- DataDefinition&#45;&gt;DDPkt -->
<g id="edge11" class="edge">
<title>DataDefinition&#45;&gt;DDPkt</title>
<path fill="none" stroke="black" d="M7927.49,-2168.45C8038.11,-2026.7 8774.3,-1083.3 8905.24,-915.5"/>
<polygon fill="black" stroke="black" points="8908.29,-917.28 8911.68,-907.25 8902.77,-912.98 8908.29,-917.28"/>
</g>
<!-- DataDefinition&#45;&gt;DataDefinition -->
<g id="edge12" class="edge">
<title>DataDefinition&#45;&gt;DataDefinition</title>
<path fill="none" stroke="black" d="M7986.82,-2192.66C8000.19,-2191.86 8009.57,-2189.73 8009.57,-2186.29 8009.57,-2183.78 8004.62,-2181.97 7996.78,-2180.86"/>
<polygon fill="black" stroke="black" points="7997.11,-2177.38 7986.82,-2179.91 7996.44,-2184.35 7997.11,-2177.38"/>
</g>
<!-- SimpleQDef -->
<g id="node13" class="node">
<title>SimpleQDef</title>
<ellipse fill="none" stroke="black" cx="8013.12" cy="-2345.13" rx="66.09" ry="18"/>
<text text-anchor="middle" x="8013.12" y="-2341.43" font-family="Times,serif" font-size="14.00">SimpleQDef</text>
</g>
<!-- DataDefinition&#45;&gt;SimpleQDef -->
<g id="edge10" class="edge">
<title>DataDefinition&#45;&gt;SimpleQDef</title>
<path fill="none" stroke="black" d="M7924.8,-2204.2C7942.28,-2232.08 7976.09,-2286.03 7996.43,-2318.49"/>
<polygon fill="black" stroke="black" points="7993.51,-2320.42 8001.79,-2327.04 7999.44,-2316.71 7993.51,-2320.42"/>
</g>
<!-- ModelQDef -->
<g id="node14" class="node">
<title>ModelQDef</title>
<ellipse fill="none" stroke="black" cx="7643.09" cy="-2067.23" rx="63.09" ry="18"/>
<text text-anchor="middle" x="7643.09" y="-2063.53" font-family="Times,serif" font-size="14.00">ModelQDef</text>
</g>
<!-- DataDefinition&#45;&gt;ModelQDef -->
<g id="edge13" class="edge">
<title>DataDefinition&#45;&gt;ModelQDef</title>
<path fill="none" stroke="black" d="M7877.1,-2170.23C7827.82,-2148.54 7740.08,-2109.92 7687.17,-2086.63"/>
<polygon fill="black" stroke="black" points="7688.27,-2083.29 7677.71,-2082.47 7685.45,-2089.7 7688.27,-2083.29"/>
</g>
<!-- Lens_ -->
<g id="node15" class="node">
<title>Lens_</title>
<ellipse fill="none" stroke="black" cx="7841.57" cy="-2309.89" rx="37.09" ry="18"/>
<text text-anchor="middle" x="7841.57" y="-2306.19" font-family="Times,serif" font-size="14.00">Lens_</text>
</g>
<!-- DataDefinition&#45;&gt;Lens_ -->
<g id="edge14" class="edge">
<title>DataDefinition&#45;&gt;Lens_</title>
<path fill="none" stroke="black" d="M7903.11,-2204.26C7890.99,-2225.07 7870.91,-2259.53 7857,-2283.4"/>
<polygon fill="black" stroke="black" points="7853.83,-2281.89 7851.82,-2292.3 7859.88,-2285.42 7853.83,-2281.89"/>
</g>
<!-- a -->
<g id="node16" class="node">
<title>a</title>
<ellipse fill="none" stroke="black" cx="7714" cy="-2262.91" rx="27" ry="18"/>
<text text-anchor="middle" x="7714" y="-2259.21" font-family="Times,serif" font-size="14.00">a</text>
</g>
<!-- DataDefinition&#45;&gt;a -->
<g id="edge15" class="edge">
<title>DataDefinition&#45;&gt;a</title>
<path fill="none" stroke="black" d="M7873.19,-2201.79C7836.08,-2216.04 7781.73,-2236.91 7747.11,-2250.2"/>
<polygon fill="black" stroke="black" points="7745.56,-2247.04 7737.48,-2253.9 7748.07,-2253.58 7745.56,-2247.04"/>
</g>
<!-- GenDefn -->
<g id="node18" class="node">
<title>GenDefn</title>
<ellipse fill="none" stroke="#00cdcd" cx="8496.72" cy="-494.61" rx="51.19" ry="18"/>
<text text-anchor="middle" x="8496.72" y="-490.91" font-family="Times,serif" font-size="14.00">GenDefn</text>
</g>
<!-- GenDefn&#45;&gt;DecRef -->
<g id="edge20" class="edge">
<title>GenDefn&#45;&gt;DecRef</title>
<path fill="none" stroke="black" d="M8455.07,-484.01C8402.64,-470.66 8312.79,-447.78 8257.76,-433.77"/>
<polygon fill="black" stroke="black" points="8258.46,-430.34 8247.91,-431.27 8256.73,-437.12 8258.46,-430.34"/>
</g>
<!-- GenDefn&#45;&gt;MaybeDerivation -->
<g id="edge19" class="edge">
<title>GenDefn&#45;&gt;MaybeDerivation</title>
<path fill="none" stroke="black" d="M8521.32,-510.73C8565.45,-539.63 8658.14,-600.36 8708.89,-633.61"/>
<polygon fill="black" stroke="black" points="8707.27,-636.73 8717.56,-639.29 8711.11,-630.88 8707.27,-636.73"/>
</g>
<!-- GenDefn&#45;&gt;ShortName -->
<g id="edge21" class="edge">
<title>GenDefn&#45;&gt;ShortName</title>
<path fill="none" stroke="black" d="M8446.68,-490.4C8343.45,-481.71 8106.56,-461.78 7987.23,-451.74"/>
<polygon fill="black" stroke="black" points="7987.36,-448.24 7977.1,-450.89 7986.77,-455.22 7987.36,-448.24"/>
</g>
<!-- GenDefn&#45;&gt;String -->
<g id="edge22" class="edge">
<title>GenDefn&#45;&gt;String</title>
<path fill="none" stroke="black" d="M8454.79,-505.17C8284.88,-547.97 7648.22,-708.34 7472.48,-752.6"/>
<polygon fill="black" stroke="black" points="7471.38,-749.27 7462.54,-755.11 7473.09,-756.06 7471.38,-749.27"/>
</g>
<!-- GenDefn&#45;&gt;Sentence -->
<g id="edge23" class="edge">
<title>GenDefn&#45;&gt;Sentence</title>
<path fill="none" stroke="black" d="M8510.46,-512.32C8582.4,-604.97 8915.4,-1033.93 9000.76,-1143.89"/>
<polygon fill="black" stroke="black" points="8998.25,-1146.36 9007.15,-1152.11 9003.78,-1142.07 8998.25,-1146.36"/>
</g>
<!-- ModelKindModelExpr -->
<g id="node19" class="node">
<title>ModelKindModelExpr</title>
<ellipse fill="none" stroke="black" cx="7285.59" cy="-1606.71" rx="112.38" ry="18"/>
<text text-anchor="middle" x="7285.59" y="-1603.01" font-family="Times,serif" font-size="14.00">ModelKindModelExpr</text>
</g>
<!-- GenDefn&#45;&gt;ModelKindModelExpr -->
<g id="edge17" class="edge">
<title>GenDefn&#45;&gt;ModelKindModelExpr</title>
<path fill="none" stroke="black" d="M8478.18,-511.63C8340.48,-638.07 7477.72,-1430.29 7312.81,-1581.72"/>
<polygon fill="black" stroke="black" points="7310.06,-1579.49 7305.06,-1588.83 7314.79,-1584.65 7310.06,-1579.49"/>
</g>
<!-- MaybeUnitDefn -->
<g id="node20" class="node">
<title>MaybeUnitDefn</title>
<ellipse fill="none" stroke="black" cx="8559.76" cy="-351.37" rx="84.49" ry="18"/>
<text text-anchor="middle" x="8559.76" y="-347.67" font-family="Times,serif" font-size="14.00">MaybeUnitDefn</text>
</g>
<!-- GenDefn&#45;&gt;MaybeUnitDefn -->
<g id="edge18" class="edge">
<title>GenDefn&#45;&gt;MaybeUnitDefn</title>
<path fill="none" stroke="black" d="M8504.57,-476.76C8515.38,-452.2 8534.93,-407.78 8547.62,-378.94"/>
<polygon fill="black" stroke="black" points="8550.98,-380.01 8551.8,-369.45 8544.57,-377.19 8550.98,-380.01"/>
</g>
<!-- InstanceModel -->
<g id="node21" class="node">
<title>InstanceModel</title>
<ellipse fill="none" stroke="#00cdcd" cx="7644.98" cy="-564.1" rx="79.09" ry="18"/>
<text text-anchor="middle" x="7644.98" y="-560.4" font-family="Times,serif" font-size="14.00">InstanceModel</text>
</g>
<!-- InstanceModel&#45;&gt;DecRef -->
<g id="edge27" class="edge">
<title>InstanceModel&#45;&gt;DecRef</title>
<path fill="none" stroke="black" d="M7698.17,-550.71C7807.9,-523.07 8057.87,-460.1 8162.68,-433.7"/>
<polygon fill="black" stroke="black" points="8163.82,-437.02 8172.66,-431.18 8162.11,-430.23 8163.82,-437.02"/>
</g>
<!-- InstanceModel&#45;&gt;MaybeDerivation -->
<g id="edge28" class="edge">
<title>InstanceModel&#45;&gt;MaybeDerivation</title>
<path fill="none" stroke="black" d="M7719.65,-570.38C7914.03,-586.74 8435.47,-630.61 8649.87,-648.65"/>
<polygon fill="black" stroke="black" points="8649.59,-652.13 8659.85,-649.48 8650.18,-645.16 8649.59,-652.13"/>
</g>
<!-- InstanceModel&#45;&gt;ShortName -->
<g id="edge29" class="edge">
<title>InstanceModel&#45;&gt;ShortName</title>
<path fill="none" stroke="black" d="M7681.79,-548.02C7731.07,-526.47 7818.41,-488.29 7871.31,-465.17"/>
<polygon fill="black" stroke="black" points="7873.01,-468.24 7880.77,-461.03 7870.2,-461.83 7873.01,-468.24"/>
</g>
<!-- InstanceModel&#45;&gt;String -->
<g id="edge30" class="edge">
<title>InstanceModel&#45;&gt;String</title>
<path fill="none" stroke="black" d="M7625.67,-581.84C7586.21,-618.07 7496.38,-700.56 7452.44,-740.9"/>
<polygon fill="black" stroke="black" points="7450.04,-738.35 7445.05,-747.69 7454.78,-743.51 7450.04,-738.35"/>
</g>
<!-- InstanceModel&#45;&gt;Sentence -->
<g id="edge31" class="edge">
<title>InstanceModel&#45;&gt;Sentence</title>
<path fill="none" stroke="black" d="M7681.43,-580.14C7874.06,-664.93 8772.58,-1060.41 8978.58,-1151.08"/>
<polygon fill="black" stroke="black" points="8977.3,-1154.34 8987.86,-1155.16 8980.12,-1147.93 8977.3,-1154.34"/>
</g>
<!-- ModelKindExpr -->
<g id="node22" class="node">
<title>ModelKindExpr</title>
<ellipse fill="none" stroke="black" cx="7124.59" cy="-465.06" rx="83.39" ry="18"/>
<text text-anchor="middle" x="7124.59" y="-461.36" font-family="Times,serif" font-size="14.00">ModelKindExpr</text>
</g>
<!-- InstanceModel&#45;&gt;ModelKindExpr -->
<g id="edge24" class="edge">
<title>InstanceModel&#45;&gt;ModelKindExpr</title>
<path fill="none" stroke="black" d="M7584.01,-552.5C7487.65,-534.16 7300.51,-498.54 7197.3,-478.9"/>
<polygon fill="black" stroke="black" points="7197.75,-475.42 7187.27,-476.99 7196.44,-482.3 7197.75,-475.42"/>
</g>
<!-- Inputs -->
<g id="node23" class="node">
<title>Inputs</title>
<ellipse fill="none" stroke="#ee0000" cx="7662.17" cy="-423.78" rx="40.09" ry="18"/>
<text text-anchor="middle" x="7662.17" y="-420.08" font-family="Times,serif" font-size="14.00">Inputs</text>
</g>
<!-- InstanceModel&#45;&gt;Inputs -->
<g id="edge25" class="edge">
<title>InstanceModel&#45;&gt;Inputs</title>
<path fill="none" stroke="black" d="M7647.2,-546.05C7650.12,-522.15 7655.31,-479.8 7658.74,-451.75"/>
<polygon fill="black" stroke="black" points="7662.22,-452.12 7659.96,-441.77 7655.27,-451.27 7662.22,-452.12"/>
</g>
<!-- Output -->
<g id="node24" class="node">
<title>Output</title>
<ellipse fill="none" stroke="#ee0000" cx="7286.32" cy="-1023.72" rx="43.59" ry="18"/>
<text text-anchor="middle" x="7286.32" y="-1020.02" font-family="Times,serif" font-size="14.00">Output</text>
</g>
<!-- InstanceModel&#45;&gt;Output -->
<g id="edge26" class="edge">
<title>InstanceModel&#45;&gt;Output</title>
<path fill="none" stroke="black" d="M7631.14,-581.84C7575.88,-652.65 7370.9,-915.33 7306.1,-998.37"/>
<polygon fill="black" stroke="black" points="7303.32,-996.24 7299.93,-1006.28 7308.84,-1000.55 7303.32,-996.24"/>
</g>
<!-- Input -->
<g id="node25" class="node">
<title>Input</title>
<ellipse fill="none" stroke="#ee0000" cx="7592.85" cy="-292.97" rx="36" ry="18"/>
<text text-anchor="middle" x="7592.85" y="-289.27" font-family="Times,serif" font-size="14.00">Input</text>
</g>
<!-- Inputs&#45;&gt;Input -->
<g id="edge33" class="edge">
<title>Inputs&#45;&gt;Input</title>
<path fill="none" stroke="black" d="M7652.82,-406.14C7641.04,-383.9 7620.67,-345.47 7606.99,-319.64"/>
<polygon fill="black" stroke="black" points="7610.05,-317.94 7602.28,-310.75 7603.86,-321.22 7610.05,-317.94"/>
</g>
<!-- QuantityDict -->
<g id="node27" class="node">
<title>QuantityDict</title>
<ellipse fill="none" stroke="black" cx="7237.31" cy="-1315.15" rx="70.39" ry="18"/>
<text text-anchor="middle" x="7237.31" y="-1311.45" font-family="Times,serif" font-size="14.00">QuantityDict</text>
</g>
<!-- Output&#45;&gt;QuantityDict -->
<g id="edge34" class="edge">
<title>Output&#45;&gt;QuantityDict</title>
<path fill="none" stroke="black" d="M7283.25,-1041.95C7274.97,-1091.22 7252.08,-1227.32 7242.09,-1286.76"/>
<polygon fill="black" stroke="black" points="7238.58,-1286.49 7240.38,-1296.93 7245.49,-1287.65 7238.58,-1286.49"/>
</g>
<!-- QuantityDictMaybeRealIntervalExprExpr -->
<g id="node26" class="node">
<title>QuantityDictMaybeRealIntervalExprExpr</title>
<ellipse fill="none" stroke="black" cx="7447.16" cy="-18" rx="203.36" ry="18"/>
<text text-anchor="middle" x="7447.16" y="-14.3" font-family="Times,serif" font-size="14.00">QuantityDictMaybeRealIntervalExprExpr</text>
</g>
<!-- Input&#45;&gt;QuantityDictMaybeRealIntervalExprExpr -->
<g id="edge32" class="edge">
<title>Input&#45;&gt;QuantityDictMaybeRealIntervalExprExpr</title>
<path fill="none" stroke="black" d="M7583.52,-275.35C7558.76,-228.62 7491.3,-101.3 7461.57,-45.18"/>
<polygon fill="black" stroke="black" points="7464.57,-43.38 7456.8,-36.19 7458.39,-46.66 7464.57,-43.38"/>
</g>
<!-- OutputConstraints -->
<g id="node28" class="node">
<title>OutputConstraints</title>
<ellipse fill="none" stroke="#ee0000" cx="6025.59" cy="-2488.29" rx="97.48" ry="18"/>
<text text-anchor="middle" x="6025.59" y="-2484.59" font-family="Times,serif" font-size="14.00">OutputConstraints</text>
</g>
<!-- RealIntervalExprExpr -->
<g id="node29" class="node">
<title>RealIntervalExprExpr</title>
<ellipse fill="none" stroke="black" cx="6307.52" cy="-2488.29" rx="112.38" ry="18"/>
<text text-anchor="middle" x="6307.52" y="-2484.59" font-family="Times,serif" font-size="14.00">RealIntervalExprExpr</text>
</g>
<!-- OutputConstraints&#45;&gt;RealIntervalExprExpr -->
<g id="edge35" class="edge">
<title>OutputConstraints&#45;&gt;RealIntervalExprExpr</title>
<path fill="none" stroke="black" d="M6123.4,-2488.29C6143.22,-2488.29 6164.3,-2488.29 6184.85,-2488.29"/>
<polygon fill="black" stroke="black" points="6184.89,-2491.79 6194.89,-2488.29 6184.89,-2484.79 6184.89,-2491.79"/>
</g>
<!-- ModelKinde -->
<g id="node30" class="node">
<title>ModelKinde</title>
<ellipse fill="none" stroke="#00cdcd" cx="10120.73" cy="-3478.76" rx="66.09" ry="18"/>
<text text-anchor="middle" x="10120.73" y="-3475.06" font-family="Times,serif" font-size="14.00">ModelKinde</text>
</g>
<!-- ModelKinde&#45;&gt;UID -->
<g id="edge37" class="edge">
<title>ModelKinde&#45;&gt;UID</title>
<path fill="none" stroke="black" d="M10104.53,-3461.12C9962.17,-3306.08 8925.64,-2177.26 8763.55,-2000.74"/>
<polygon fill="black" stroke="black" points="8766.04,-1998.28 8756.7,-1993.28 8760.89,-2003.01 8766.04,-1998.28"/>
</g>
<!-- ModelKindse -->
<g id="node31" class="node">
<title>ModelKindse</title>
<ellipse fill="none" stroke="darkviolet" cx="10456.59" cy="-3170.37" rx="71.49" ry="18"/>
<text text-anchor="middle" x="10456.59" y="-3166.67" font-family="Times,serif" font-size="14.00">ModelKindse</text>
</g>
<!-- ModelKinde&#45;&gt;ModelKindse -->
<g id="edge36" class="edge">
<title>ModelKinde&#45;&gt;ModelKindse</title>
<path fill="none" stroke="black" d="M10139.75,-3461.3C10196.42,-3409.26 10364.28,-3255.13 10429.88,-3194.89"/>
<polygon fill="black" stroke="black" points="10432.36,-3197.36 10437.36,-3188.02 10427.63,-3192.21 10432.36,-3197.36"/>
</g>
<!-- NP -->
<g id="node32" class="node">
<title>NP</title>
<ellipse fill="none" stroke="black" cx="9784.87" cy="-3787.16" rx="27" ry="18"/>
<text text-anchor="middle" x="9784.87" y="-3783.46" font-family="Times,serif" font-size="14.00">NP</text>
</g>
<!-- ModelKinde&#45;&gt;NP -->
<g id="edge38" class="edge">
<title>ModelKinde&#45;&gt;NP</title>
<path fill="none" stroke="black" d="M10101.71,-3496.23C10044.09,-3549.14 9871.53,-3707.59 9808.37,-3765.59"/>
<polygon fill="black" stroke="black" points="9805.88,-3763.12 9800.88,-3772.46 9810.62,-3768.28 9805.88,-3763.12"/>
</g>
<!-- Express -->
<g id="node33" class="node">
<title>Express</title>
<ellipse fill="none" stroke="black" cx="10226.21" cy="-3160.63" rx="48.19" ry="18"/>
<text text-anchor="middle" x="10226.21" y="-3156.93" font-family="Times,serif" font-size="14.00">Express</text>
</g>
<!-- ModelKindse&#45;&gt;Express -->
<g id="edge39" class="edge">
<title>ModelKindse&#45;&gt;Express</title>
<path fill="none" stroke="black" d="M10385.9,-3167.38C10353.34,-3166 10315.18,-3164.39 10284.32,-3163.09"/>
<polygon fill="black" stroke="black" points="10284.29,-3159.59 10274.16,-3162.66 10284,-3166.58 10284.29,-3159.59"/>
</g>
<!-- e -->
<g id="node34" class="node">
<title>e</title>
<ellipse fill="none" stroke="black" cx="10427.58" cy="-2941.61" rx="27" ry="18"/>
<text text-anchor="middle" x="10427.58" y="-2937.91" font-family="Times,serif" font-size="14.00">e</text>
</g>
<!-- ModelKindse&#45;&gt;e -->
<g id="edge40" class="edge">
<title>ModelKindse&#45;&gt;e</title>
<path fill="none" stroke="black" d="M10454.27,-3152.03C10449.21,-3112.2 10437.21,-3017.51 10431.17,-2969.93"/>
<polygon fill="black" stroke="black" points="10434.61,-2969.2 10429.88,-2959.71 10427.66,-2970.08 10434.61,-2969.2"/>
</g>
<!-- RelationConcept -->
<g id="node35" class="node">
<title>RelationConcept</title>
<ellipse fill="none" stroke="black" cx="10685.37" cy="-3141.53" rx="87.18" ry="18"/>
<text text-anchor="middle" x="10685.37" y="-3137.83" font-family="Times,serif" font-size="14.00">RelationConcept</text>
</g>
<!-- ModelKindse&#45;&gt;RelationConcept -->
<g id="edge41" class="edge">
<title>ModelKindse&#45;&gt;RelationConcept</title>
<path fill="none" stroke="black" d="M10520.62,-3162.3C10545.47,-3159.16 10574.28,-3155.53 10600.79,-3152.19"/>
<polygon fill="black" stroke="black" points="10601.35,-3155.65 10610.83,-3150.93 10600.47,-3148.7 10601.35,-3155.65"/>
</g>
<!-- ModelKinds -->
<g id="node36" class="node">
<title>ModelKinds</title>
<ellipse fill="none" stroke="black" cx="10446.68" cy="-3400.74" rx="65.79" ry="18"/>
<text text-anchor="middle" x="10446.68" y="-3397.04" font-family="Times,serif" font-size="14.00">ModelKinds</text>
</g>
<!-- ModelKindse&#45;&gt;ModelKinds -->
<g id="edge42" class="edge">
<title>ModelKindse&#45;&gt;ModelKinds</title>
<path fill="none" stroke="black" d="M10455.81,-3188.44C10454.1,-3228.38 10449.97,-3324.39 10447.9,-3372.4"/>
<polygon fill="black" stroke="black" points="10444.4,-3372.29 10447.47,-3382.43 10451.4,-3372.59 10444.4,-3372.29"/>
</g>
<!-- DefiningExpre -->
<g id="node37" class="node">
<title>DefiningExpre</title>
<ellipse fill="none" stroke="#00cdcd" cx="8924.07" cy="-1744.56" rx="77.19" ry="18"/>
<text text-anchor="middle" x="8924.07" y="-1740.86" font-family="Times,serif" font-size="14.00">DefiningExpre</text>
</g>
<!-- DefiningExpre&#45;&gt;Sentence -->
<g id="edge44" class="edge">
<title>DefiningExpre&#45;&gt;Sentence</title>
<path fill="none" stroke="black" d="M8927.12,-1726.41C8941.09,-1643.35 8998.94,-1299.31 9016,-1197.89"/>
<polygon fill="black" stroke="black" points="9019.49,-1198.24 9017.69,-1187.8 9012.58,-1197.08 9019.49,-1198.24"/>
</g>
<!-- DefiningExpre&#45;&gt;UID -->
<g id="edge43" class="edge">
<title>DefiningExpre&#45;&gt;UID</title>
<path fill="none" stroke="black" d="M8910.1,-1762.46C8877.85,-1803.79 8798.14,-1905.93 8761.38,-1953.03"/>
<polygon fill="black" stroke="black" points="8758.43,-1951.12 8755.04,-1961.16 8763.95,-1955.43 8758.43,-1951.12"/>
</g>
<!-- Expressee -->
<g id="node38" class="node">
<title>Expressee</title>
<ellipse fill="none" stroke="black" cx="9657.83" cy="-2142.85" rx="59.29" ry="18"/>
<text text-anchor="middle" x="9657.83" y="-2139.15" font-family="Times,serif" font-size="14.00">Expressee</text>
</g>
<!-- DefiningExpre&#45;&gt;Expressee -->
<g id="edge45" class="edge">
<title>DefiningExpre&#45;&gt;Expressee</title>
<path fill="none" stroke="black" d="M8954.66,-1761.17C9071.62,-1824.65 9490.33,-2051.93 9619.56,-2122.08"/>
<polygon fill="black" stroke="black" points="9618.25,-2125.35 9628.71,-2127.05 9621.59,-2119.2 9618.25,-2125.35"/>
</g>
<!-- MultiDefne -->
<g id="node39" class="node">
<title>MultiDefne</title>
<ellipse fill="none" stroke="#00cdcd" cx="9020.38" cy="-1465.17" rx="63.09" ry="18"/>
<text text-anchor="middle" x="9020.38" y="-1461.47" font-family="Times,serif" font-size="14.00">MultiDefne</text>
</g>
<!-- MultiDefne&#45;&gt;Sentence -->
<g id="edge48" class="edge">
<title>MultiDefne&#45;&gt;Sentence</title>
<path fill="none" stroke="black" d="M9020.4,-1447.12C9020.46,-1397.46 9020.64,-1258.41 9020.71,-1198.12"/>
<polygon fill="black" stroke="black" points="9024.21,-1197.82 9020.73,-1187.82 9017.21,-1197.81 9024.21,-1197.82"/>
</g>
<!-- MultiDefne&#45;&gt;UID -->
<g id="edge46" class="edge">
<title>MultiDefne&#45;&gt;UID</title>
<path fill="none" stroke="black" d="M9010.64,-1483.1C8968.99,-1559.83 8805.71,-1860.64 8756.42,-1951.45"/>
<polygon fill="black" stroke="black" points="8753.32,-1949.82 8751.63,-1960.28 8759.47,-1953.16 8753.32,-1949.82"/>
</g>
<!-- MultiDefne&#45;&gt;QuantityDict -->
<g id="edge47" class="edge">
<title>MultiDefne&#45;&gt;QuantityDict</title>
<path fill="none" stroke="black" d="M8959.77,-1460.07C8691.79,-1437.52 7613.34,-1346.79 7314.45,-1321.64"/>
<polygon fill="black" stroke="black" points="7314.41,-1318.13 7304.15,-1320.78 7313.82,-1325.1 7314.41,-1318.13"/>
</g>
<!-- NonEmptyDefiningExpre -->
<g id="node40" class="node">
<title>NonEmptyDefiningExpre</title>
<ellipse fill="none" stroke="black" cx="9217" cy="-1498.23" rx="127.28" ry="18"/>
<text text-anchor="middle" x="9217" y="-1494.53" font-family="Times,serif" font-size="14.00">NonEmptyDefiningExpre</text>
</g>
<!-- MultiDefne&#45;&gt;NonEmptyDefiningExpre -->
<g id="edge49" class="edge">
<title>MultiDefne&#45;&gt;NonEmptyDefiningExpre</title>
<path fill="none" stroke="black" d="M9074.89,-1474.33C9090.37,-1476.94 9107.68,-1479.85 9124.75,-1482.72"/>
<polygon fill="black" stroke="black" points="9124.31,-1486.19 9134.75,-1484.4 9125.47,-1479.29 9124.31,-1486.19"/>
</g>
<!-- TheoryModel -->
<g id="node41" class="node">
<title>TheoryModel</title>
<ellipse fill="none" stroke="#00cdcd" cx="7425.91" cy="-1866.8" rx="71.49" ry="18"/>
<text text-anchor="middle" x="7425.91" y="-1863.1" font-family="Times,serif" font-size="14.00">TheoryModel</text>
</g>
<!-- TheoryModel&#45;&gt;ConceptChunk -->
<g id="edge54" class="edge">
<title>TheoryModel&#45;&gt;ConceptChunk</title>
<path fill="none" stroke="black" d="M7367.17,-1856.54C6978.35,-1788.61 4778.11,-1404.2 4347.88,-1329.03"/>
<polygon fill="black" stroke="black" points="4348.2,-1325.54 4337.75,-1327.26 4346.99,-1332.43 4348.2,-1325.54"/>
</g>
<!-- TheoryModel&#45;&gt;DecRef -->
<g id="edge57" class="edge">
<title>TheoryModel&#45;&gt;DecRef</title>
<path fill="none" stroke="black" d="M7435.69,-1848.79C7518.1,-1696.97 8096.17,-632 8195.74,-448.57"/>
<polygon fill="black" stroke="black" points="8198.92,-450.04 8200.62,-439.58 8192.77,-446.7 8198.92,-450.04"/>
</g>
<!-- TheoryModel&#45;&gt;ShortName -->
<g id="edge58" class="edge">
<title>TheoryModel&#45;&gt;ShortName</title>
<path fill="none" stroke="black" d="M7432.11,-1848.83C7483.79,-1698.89 7843.08,-656.6 7906.29,-473.24"/>
<polygon fill="black" stroke="black" points="7909.6,-474.37 7909.55,-463.78 7902.98,-472.09 7909.6,-474.37"/>
</g>
<!-- TheoryModel&#45;&gt;String -->
<g id="edge59" class="edge">
<title>TheoryModel&#45;&gt;String</title>
<path fill="none" stroke="black" d="M7425.94,-1848.58C7426.1,-1720.04 7427.07,-950.35 7427.27,-792.33"/>
<polygon fill="black" stroke="black" points="7430.77,-792.03 7427.28,-782.03 7423.77,-792.02 7430.77,-792.03"/>
</g>
<!-- TheoryModel&#45;&gt;Sentence -->
<g id="edge60" class="edge">
<title>TheoryModel&#45;&gt;Sentence</title>
<path fill="none" stroke="black" d="M7461.84,-1851.1C7673,-1758.79 8751.17,-1287.48 8978.59,-1188.07"/>
<polygon fill="black" stroke="black" points="8980.1,-1191.23 8987.86,-1184.01 8977.3,-1184.81 8980.1,-1191.23"/>
</g>
<!-- TheoryModel&#45;&gt;ModelQDef -->
<g id="edge55" class="edge">
<title>TheoryModel&#45;&gt;ModelQDef</title>
<path fill="none" stroke="black" d="M7444.81,-1884.24C7483.65,-1920.09 7572.55,-2002.13 7616.91,-2043.07"/>
<polygon fill="black" stroke="black" points="7614.67,-2045.77 7624.4,-2049.98 7619.42,-2040.62 7614.67,-2045.77"/>
</g>
<!-- TheoryModel&#45;&gt;ModelKindModelExpr -->
<g id="edge50" class="edge">
<title>TheoryModel&#45;&gt;ModelKindModelExpr</title>
<path fill="none" stroke="black" d="M7416.27,-1848.92C7392.09,-1804.1 7328.76,-1686.73 7300.07,-1633.57"/>
<polygon fill="black" stroke="black" points="7303.13,-1631.85 7295.3,-1624.72 7296.97,-1635.18 7303.13,-1631.85"/>
</g>
<!-- TheoryModel&#45;&gt;QuantityDict -->
<g id="edge53" class="edge">
<title>TheoryModel&#45;&gt;QuantityDict</title>
<path fill="none" stroke="black" d="M7419.75,-1848.76C7392.19,-1768.15 7280.2,-1440.59 7246.77,-1342.83"/>
<polygon fill="black" stroke="black" points="7250.07,-1341.67 7243.53,-1333.34 7243.45,-1343.93 7250.07,-1341.67"/>
</g>
<!-- TheoryModel&#45;&gt;TheoryModel -->
<g id="edge51" class="edge">
<title>TheoryModel&#45;&gt;TheoryModel</title>
<path fill="none" stroke="black" d="M7492.65,-1873.27C7505.94,-1872.54 7515.41,-1870.39 7515.41,-1866.8 7515.41,-1864.22 7510.52,-1862.38 7502.83,-1861.28"/>
<polygon fill="black" stroke="black" points="7502.94,-1857.78 7492.65,-1860.33 7502.28,-1864.75 7502.94,-1857.78"/>
</g>
<!-- SpaceDefn -->
<g id="node42" class="node">
<title>SpaceDefn</title>
<ellipse fill="none" stroke="black" cx="7383.77" cy="-2023.07" rx="60.39" ry="18"/>
<text text-anchor="middle" x="7383.77" y="-2019.37" font-family="Times,serif" font-size="14.00">SpaceDefn</text>
</g>
<!-- TheoryModel&#45;&gt;SpaceDefn -->
<g id="edge52" class="edge">
<title>TheoryModel&#45;&gt;SpaceDefn</title>
<path fill="none" stroke="black" d="M7421,-1885.03C7413.7,-1912.09 7399.95,-1963.08 7391.36,-1994.95"/>
<polygon fill="black" stroke="black" points="7387.88,-1994.39 7388.66,-2004.96 7394.64,-1996.21 7387.88,-1994.39"/>
</g>
<!-- ModelExpr -->
<g id="node43" class="node">
<title>ModelExpr</title>
<ellipse fill="none" stroke="black" cx="7264.77" cy="-1869.98" rx="61.99" ry="18"/>
<text text-anchor="middle" x="7264.77" y="-1866.28" font-family="Times,serif" font-size="14.00">ModelExpr</text>
</g>
<!-- TheoryModel&#45;&gt;ModelExpr -->
<g id="edge56" class="edge">
<title>TheoryModel&#45;&gt;ModelExpr</title>
<path fill="none" stroke="black" d="M7354.3,-1868.21C7348.52,-1868.33 7342.68,-1868.44 7336.89,-1868.56"/>
<polygon fill="black" stroke="black" points="7336.5,-1865.06 7326.58,-1868.76 7336.64,-1872.06 7336.5,-1865.06"/>
</g>
</g>
</svg>
