<?xml version="1.0" encoding="UTF-8" standalone="no"?>
<!DOCTYPE svg PUBLIC "-//W3C//DTD SVG 1.1//EN"
 "http://www.w3.org/Graphics/SVG/1.1/DTD/svg11.dtd">
<!-- Generated by graphviz version 2.43.0 (0)
 -->
<!-- Title: alltypes Pages: 1 -->
<svg width="2095pt" height="1520pt"
 viewBox="0.00 0.00 2095.22 1520.49" xmlns="http://www.w3.org/2000/svg" xmlns:xlink="http://www.w3.org/1999/xlink">
<g id="graph0" class="graph" transform="scale(1 1) rotate(0) translate(4 1516.49)">
<title>alltypes</title>
<polygon fill="white" stroke="transparent" points="-4,4 -4,-1516.49 2091.22,-1516.49 2091.22,4 -4,4"/>
<!-- ChunkDB -->
<g id="node1" class="node">
<title>ChunkDB</title>
<ellipse fill="none" stroke="#00cdcd" cx="1106.5" cy="-722.95" rx="54.69" ry="18"/>
<text text-anchor="middle" x="1106.5" y="-719.25" font-family="Times,serif" font-size="14.00">ChunkDB</text>
</g>
<!-- SymbolMap -->
<g id="node2" class="node">
<title>SymbolMap</title>
<ellipse fill="none" stroke="#ee0000" cx="1019.53" cy="-1180.42" rx="65.79" ry="18"/>
<text text-anchor="middle" x="1019.53" y="-1176.72" font-family="Times,serif" font-size="14.00">SymbolMap</text>
</g>
<!-- ChunkDB&#45;&gt;SymbolMap -->
<g id="edge1" class="edge">
<title>ChunkDB&#45;&gt;SymbolMap</title>
<path fill="none" stroke="black" d="M1103.03,-741.16C1089.64,-811.6 1041.19,-1066.47 1024.91,-1152.12"/>
<polygon fill="black" stroke="black" points="1021.43,-1151.68 1023,-1162.15 1028.31,-1152.98 1021.43,-1151.68"/>
</g>
<!-- TermMap -->
<g id="node3" class="node">
<title>TermMap</title>
<ellipse fill="none" stroke="#ee0000" cx="685.56" cy="-1107.48" rx="55.49" ry="18"/>
<text text-anchor="middle" x="685.56" y="-1103.78" font-family="Times,serif" font-size="14.00">TermMap</text>
</g>
<!-- ChunkDB&#45;&gt;TermMap -->
<g id="edge2" class="edge">
<title>ChunkDB&#45;&gt;TermMap</title>
<path fill="none" stroke="black" d="M1087.87,-739.97C1020.65,-801.38 790.43,-1011.69 711.99,-1083.34"/>
<polygon fill="black" stroke="black" points="709.48,-1080.9 704.45,-1090.23 714.2,-1086.07 709.48,-1080.9"/>
</g>
<!-- ConceptMap -->
<g id="node4" class="node">
<title>ConceptMap</title>
<ellipse fill="none" stroke="#ee0000" cx="384.53" cy="-643.64" rx="69.59" ry="18"/>
<text text-anchor="middle" x="384.53" y="-639.94" font-family="Times,serif" font-size="14.00">ConceptMap</text>
</g>
<!-- ChunkDB&#45;&gt;ConceptMap -->
<g id="edge3" class="edge">
<title>ChunkDB&#45;&gt;ConceptMap</title>
<path fill="none" stroke="black" d="M1054.58,-717.24C928.44,-703.39 605.49,-667.91 458.9,-651.81"/>
<polygon fill="black" stroke="black" points="458.98,-648.3 448.66,-650.68 458.22,-655.25 458.98,-648.3"/>
</g>
<!-- UnitMap -->
<g id="node5" class="node">
<title>UnitMap</title>
<ellipse fill="none" stroke="#ee0000" cx="798.68" cy="-278.91" rx="51.99" ry="18"/>
<text text-anchor="middle" x="798.68" y="-275.21" font-family="Times,serif" font-size="14.00">UnitMap</text>
</g>
<!-- ChunkDB&#45;&gt;UnitMap -->
<g id="edge4" class="edge">
<title>ChunkDB&#45;&gt;UnitMap</title>
<path fill="none" stroke="black" d="M1094.24,-705.27C1046.56,-636.48 873.26,-386.49 816.68,-304.88"/>
<polygon fill="black" stroke="black" points="819.55,-302.87 810.97,-296.64 813.79,-306.86 819.55,-302.87"/>
</g>
<!-- TraceMap -->
<g id="node6" class="node">
<title>TraceMap</title>
<ellipse fill="none" stroke="#ee0000" cx="973.77" cy="-590.22" rx="57.39" ry="18"/>
<text text-anchor="middle" x="973.77" y="-586.52" font-family="Times,serif" font-size="14.00">TraceMap</text>
</g>
<!-- ChunkDB&#45;&gt;TraceMap -->
<g id="edge5" class="edge">
<title>ChunkDB&#45;&gt;TraceMap</title>
<path fill="none" stroke="black" d="M1089.15,-705.6C1065.99,-682.44 1024.86,-641.31 998.48,-614.93"/>
<polygon fill="black" stroke="black" points="1000.67,-612.17 991.13,-607.58 995.72,-617.12 1000.67,-612.17"/>
</g>
<!-- RefbyMap -->
<g id="node7" class="node">
<title>RefbyMap</title>
<ellipse fill="none" stroke="#ee0000" cx="973.77" cy="-855.67" rx="57.69" ry="18"/>
<text text-anchor="middle" x="973.77" y="-851.97" font-family="Times,serif" font-size="14.00">RefbyMap</text>
</g>
<!-- ChunkDB&#45;&gt;RefbyMap -->
<g id="edge6" class="edge">
<title>ChunkDB&#45;&gt;RefbyMap</title>
<path fill="none" stroke="black" d="M1089.15,-740.3C1065.99,-763.45 1024.86,-804.58 998.48,-830.97"/>
<polygon fill="black" stroke="black" points="995.72,-828.77 991.13,-838.32 1000.67,-833.72 995.72,-828.77"/>
</g>
<!-- DatadefnMap -->
<g id="node8" class="node">
<title>DatadefnMap</title>
<ellipse fill="none" stroke="#ee0000" cx="1147.07" cy="-305.53" rx="73.39" ry="18"/>
<text text-anchor="middle" x="1147.07" y="-301.83" font-family="Times,serif" font-size="14.00">DatadefnMap</text>
</g>
<!-- ChunkDB&#45;&gt;DatadefnMap -->
<g id="edge7" class="edge">
<title>ChunkDB&#45;&gt;DatadefnMap</title>
<path fill="none" stroke="black" d="M1108.27,-704.74C1114.65,-639.1 1136.5,-414.23 1144.29,-334.14"/>
<polygon fill="black" stroke="black" points="1147.8,-334.12 1145.29,-323.83 1140.84,-333.45 1147.8,-334.12"/>
</g>
<!-- InsModelMap -->
<g id="node9" class="node">
<title>InsModelMap</title>
<ellipse fill="none" stroke="#ee0000" cx="1401.12" cy="-577.86" rx="74.19" ry="18"/>
<text text-anchor="middle" x="1401.12" y="-574.16" font-family="Times,serif" font-size="14.00">InsModelMap</text>
</g>
<!-- ChunkDB&#45;&gt;InsModelMap -->
<g id="edge8" class="edge">
<title>ChunkDB&#45;&gt;InsModelMap</title>
<path fill="none" stroke="black" d="M1136.92,-707.97C1189.81,-681.92 1298.81,-628.24 1358.96,-598.62"/>
<polygon fill="black" stroke="black" points="1360.76,-601.64 1368.18,-594.09 1357.66,-595.36 1360.76,-601.64"/>
</g>
<!-- GendefMap -->
<g id="node10" class="node">
<title>GendefMap</title>
<ellipse fill="none" stroke="#ee0000" cx="1402.89" cy="-936.36" rx="64.19" ry="18"/>
<text text-anchor="middle" x="1402.89" y="-932.66" font-family="Times,serif" font-size="14.00">GendefMap</text>
</g>
<!-- ChunkDB&#45;&gt;GendefMap -->
<g id="edge9" class="edge">
<title>ChunkDB&#45;&gt;GendefMap</title>
<path fill="none" stroke="black" d="M1129.26,-739.34C1181.59,-777.01 1310.55,-869.87 1370.85,-913.28"/>
<polygon fill="black" stroke="black" points="1369.07,-916.32 1379.23,-919.32 1373.16,-910.63 1369.07,-916.32"/>
</g>
<!-- TheoryModelMap -->
<g id="node11" class="node">
<title>TheoryModelMap</title>
<ellipse fill="none" stroke="#ee0000" cx="1110.1" cy="-1160.67" rx="92.08" ry="18"/>
<text text-anchor="middle" x="1110.1" y="-1156.97" font-family="Times,serif" font-size="14.00">TheoryModelMap</text>
</g>
<!-- ChunkDB&#45;&gt;TheoryModelMap -->
<g id="edge10" class="edge">
<title>ChunkDB&#45;&gt;TheoryModelMap</title>
<path fill="none" stroke="black" d="M1106.65,-741.2C1107.21,-809.33 1109.18,-1049.13 1109.86,-1132.14"/>
<polygon fill="black" stroke="black" points="1106.36,-1132.37 1109.95,-1142.34 1113.36,-1132.31 1106.36,-1132.37"/>
</g>
<!-- ConceptInstanceMap -->
<g id="node12" class="node">
<title>ConceptInstanceMap</title>
<ellipse fill="none" stroke="#ee0000" cx="708.94" cy="-1077.09" rx="108.58" ry="18"/>
<text text-anchor="middle" x="708.94" y="-1073.39" font-family="Times,serif" font-size="14.00">ConceptInstanceMap</text>
</g>
<!-- ChunkDB&#45;&gt;ConceptInstanceMap -->
<g id="edge11" class="edge">
<title>ChunkDB&#45;&gt;ConceptInstanceMap</title>
<path fill="none" stroke="black" d="M1087.32,-740.03C1022.67,-797.62 812.52,-984.82 736.61,-1052.44"/>
<polygon fill="black" stroke="black" points="734,-1050.08 728.86,-1059.35 738.66,-1055.31 734,-1050.08"/>
</g>
<!-- SectionMap -->
<g id="node13" class="node">
<title>SectionMap</title>
<ellipse fill="none" stroke="#ee0000" cx="490" cy="-758.97" rx="65.79" ry="18"/>
<text text-anchor="middle" x="490" y="-755.27" font-family="Times,serif" font-size="14.00">SectionMap</text>
</g>
<!-- ChunkDB&#45;&gt;SectionMap -->
<g id="edge12" class="edge">
<title>ChunkDB&#45;&gt;SectionMap</title>
<path fill="none" stroke="black" d="M1052.6,-726.1C942.31,-732.54 690.68,-747.25 564.72,-754.61"/>
<polygon fill="black" stroke="black" points="564.18,-751.13 554.4,-755.21 564.59,-758.12 564.18,-751.13"/>
</g>
<!-- LabelledContentMap -->
<g id="node14" class="node">
<title>LabelledContentMap</title>
<ellipse fill="none" stroke="#ee0000" cx="658.27" cy="-412.17" rx="107.78" ry="18"/>
<text text-anchor="middle" x="658.27" y="-408.47" font-family="Times,serif" font-size="14.00">LabelledContentMap</text>
</g>
<!-- ChunkDB&#45;&gt;LabelledContentMap -->
<g id="edge13" class="edge">
<title>ChunkDB&#45;&gt;LabelledContentMap</title>
<path fill="none" stroke="black" d="M1083.03,-706.68C1008.84,-655.24 779.16,-495.99 692.15,-435.66"/>
<polygon fill="black" stroke="black" points="693.91,-432.62 683.7,-429.8 689.92,-438.38 693.91,-432.62"/>
</g>
<!-- ReferenceMap -->
<g id="node15" class="node">
<title>ReferenceMap</title>
<ellipse fill="none" stroke="#ee0000" cx="1021.34" cy="-252.59" rx="77.99" ry="18"/>
<text text-anchor="middle" x="1021.34" y="-248.89" font-family="Times,serif" font-size="14.00">ReferenceMap</text>
</g>
<!-- ChunkDB&#45;&gt;ReferenceMap -->
<g id="edge14" class="edge">
<title>ChunkDB&#45;&gt;ReferenceMap</title>
<path fill="none" stroke="black" d="M1103.21,-704.8C1090.2,-632.92 1042.21,-367.9 1026.42,-280.65"/>
<polygon fill="black" stroke="black" points="1029.84,-279.9 1024.61,-270.69 1022.95,-281.15 1029.84,-279.9"/>
</g>
<!-- UMapQuantityDict -->
<g id="node18" class="node">
<title>UMapQuantityDict</title>
<ellipse fill="none" stroke="black" cx="1043.06" cy="-1415.68" rx="98.58" ry="18"/>
<text text-anchor="middle" x="1043.06" y="-1411.98" font-family="Times,serif" font-size="14.00">UMapQuantityDict</text>
</g>
<!-- SymbolMap&#45;&gt;UMapQuantityDict -->
<g id="edge16" class="edge">
<title>SymbolMap&#45;&gt;UMapQuantityDict</title>
<path fill="none" stroke="black" d="M1021.34,-1198.49C1025.41,-1239.2 1035.33,-1338.36 1040.23,-1387.35"/>
<polygon fill="black" stroke="black" points="1036.77,-1387.95 1041.25,-1397.55 1043.73,-1387.25 1036.77,-1387.95"/>
</g>
<!-- UMapIdeaDict -->
<g id="node21" class="node">
<title>UMapIdeaDict</title>
<ellipse fill="none" stroke="black" cx="562.47" cy="-1271.71" rx="77.99" ry="18"/>
<text text-anchor="middle" x="562.47" y="-1268.01" font-family="Times,serif" font-size="14.00">UMapIdeaDict</text>
</g>
<!-- TermMap&#45;&gt;UMapIdeaDict -->
<g id="edge19" class="edge">
<title>TermMap&#45;&gt;UMapIdeaDict</title>
<path fill="none" stroke="black" d="M672.39,-1125.06C650.66,-1154.05 607.21,-1212.02 581.93,-1245.75"/>
<polygon fill="black" stroke="black" points="579.12,-1243.67 575.92,-1253.77 584.72,-1247.87 579.12,-1243.67"/>
</g>
<!-- UMapConceptChunk -->
<g id="node19" class="node">
<title>UMapConceptChunk</title>
<ellipse fill="none" stroke="black" cx="496.22" cy="-884.71" rx="106.68" ry="18"/>
<text text-anchor="middle" x="496.22" y="-881.01" font-family="Times,serif" font-size="14.00">UMapConceptChunk</text>
</g>
<!-- ConceptMap&#45;&gt;UMapConceptChunk -->
<g id="edge17" class="edge">
<title>ConceptMap&#45;&gt;UMapConceptChunk</title>
<path fill="none" stroke="black" d="M392.93,-661.76C412.38,-703.74 460.63,-807.89 483.63,-857.54"/>
<polygon fill="black" stroke="black" points="480.5,-859.1 487.88,-866.71 486.85,-856.16 480.5,-859.1"/>
</g>
<!-- RefMapConceptInstance -->
<g id="node44" class="node">
<title>RefMapConceptInstance</title>
<ellipse fill="none" stroke="black" cx="124.14" cy="-590.9" rx="124.28" ry="18"/>
<text text-anchor="middle" x="124.14" y="-587.2" font-family="Times,serif" font-size="14.00">RefMapConceptInstance</text>
</g>
<!-- ConceptMap&#45;&gt;RefMapConceptInstance -->
<g id="edge42" class="edge">
<title>ConceptMap&#45;&gt;RefMapConceptInstance</title>
<path fill="none" stroke="black" d="M329.63,-632.52C294,-625.3 246.92,-615.76 206.8,-607.64"/>
<polygon fill="black" stroke="black" points="207.26,-604.16 196.77,-605.61 205.88,-611.02 207.26,-604.16"/>
</g>
<!-- UMapUnitDefn -->
<g id="node20" class="node">
<title>UMapUnitDefn</title>
<ellipse fill="none" stroke="black" cx="723.39" cy="-87.98" rx="81.49" ry="18"/>
<text text-anchor="middle" x="723.39" y="-84.28" font-family="Times,serif" font-size="14.00">UMapUnitDefn</text>
</g>
<!-- UnitMap&#45;&gt;UMapUnitDefn -->
<g id="edge18" class="edge">
<title>UnitMap&#45;&gt;UMapUnitDefn</title>
<path fill="none" stroke="black" d="M791.6,-260.95C778.37,-227.4 749.84,-155.05 734.2,-115.37"/>
<polygon fill="black" stroke="black" points="737.44,-114.06 730.51,-106.04 730.93,-116.62 737.44,-114.06"/>
</g>
<!-- MapUIDUID -->
<g id="node22" class="node">
<title>MapUIDUID</title>
<ellipse fill="none" stroke="black" cx="841.04" cy="-722.95" rx="68.49" ry="18"/>
<text text-anchor="middle" x="841.04" y="-719.25" font-family="Times,serif" font-size="14.00">MapUIDUID</text>
</g>
<!-- TraceMap&#45;&gt;MapUIDUID -->
<g id="edge20" class="edge">
<title>TraceMap&#45;&gt;MapUIDUID</title>
<path fill="none" stroke="black" d="M956.42,-607.57C933.39,-630.59 892.59,-671.4 866.19,-697.8"/>
<polygon fill="black" stroke="black" points="863.42,-695.62 858.82,-705.17 868.37,-700.57 863.42,-695.62"/>
</g>
<!-- RefbyMap&#45;&gt;MapUIDUID -->
<g id="edge21" class="edge">
<title>RefbyMap&#45;&gt;MapUIDUID</title>
<path fill="none" stroke="black" d="M956.42,-838.32C933.39,-815.3 892.59,-774.49 866.19,-748.09"/>
<polygon fill="black" stroke="black" points="868.37,-745.32 858.82,-740.73 863.42,-750.27 868.37,-745.32"/>
</g>
<!-- UMapDataDefinition -->
<g id="node23" class="node">
<title>UMapDataDefinition</title>
<ellipse fill="none" stroke="black" cx="1243.7" cy="-72.76" rx="106.68" ry="18"/>
<text text-anchor="middle" x="1243.7" y="-69.06" font-family="Times,serif" font-size="14.00">UMapDataDefinition</text>
</g>
<!-- DatadefnMap&#45;&gt;UMapDataDefinition -->
<g id="edge22" class="edge">
<title>DatadefnMap&#45;&gt;UMapDataDefinition</title>
<path fill="none" stroke="black" d="M1154.65,-287.27C1171.51,-246.64 1212.22,-148.61 1232.22,-100.43"/>
<polygon fill="black" stroke="black" points="1235.56,-101.52 1236.16,-90.94 1229.09,-98.84 1235.56,-101.52"/>
</g>
<!-- UMapInstanceModel -->
<g id="node24" class="node">
<title>UMapInstanceModel</title>
<ellipse fill="none" stroke="black" cx="1641.01" cy="-496.42" rx="107.48" ry="18"/>
<text text-anchor="middle" x="1641.01" y="-492.72" font-family="Times,serif" font-size="14.00">UMapInstanceModel</text>
</g>
<!-- InsModelMap&#45;&gt;UMapInstanceModel -->
<g id="edge23" class="edge">
<title>InsModelMap&#45;&gt;UMapInstanceModel</title>
<path fill="none" stroke="black" d="M1444.29,-563.21C1483.21,-550 1540.73,-530.47 1583.54,-515.94"/>
<polygon fill="black" stroke="black" points="1584.91,-519.17 1593.26,-512.64 1582.66,-512.54 1584.91,-519.17"/>
</g>
<!-- UMapGenDefn -->
<g id="node25" class="node">
<title>UMapGenDefn</title>
<ellipse fill="none" stroke="black" cx="1595.97" cy="-1032.38" rx="79.09" ry="18"/>
<text text-anchor="middle" x="1595.97" y="-1028.68" font-family="Times,serif" font-size="14.00">UMapGenDefn</text>
</g>
<!-- GendefMap&#45;&gt;UMapGenDefn -->
<g id="edge24" class="edge">
<title>GendefMap&#45;&gt;UMapGenDefn</title>
<path fill="none" stroke="black" d="M1434.77,-952.21C1467.22,-968.35 1517.7,-993.45 1553.51,-1011.27"/>
<polygon fill="black" stroke="black" points="1552.23,-1014.54 1562.74,-1015.85 1555.35,-1008.27 1552.23,-1014.54"/>
</g>
<!-- UMapTheoryModel -->
<g id="node26" class="node">
<title>UMapTheoryModel</title>
<ellipse fill="none" stroke="black" cx="1188.71" cy="-1413.09" rx="100.18" ry="18"/>
<text text-anchor="middle" x="1188.71" y="-1409.39" font-family="Times,serif" font-size="14.00">UMapTheoryModel</text>
</g>
<!-- TheoryModelMap&#45;&gt;UMapTheoryModel -->
<g id="edge25" class="edge">
<title>TheoryModelMap&#45;&gt;UMapTheoryModel</title>
<path fill="none" stroke="black" d="M1115.75,-1178.82C1129.35,-1222.48 1163.96,-1333.59 1180.13,-1385.54"/>
<polygon fill="black" stroke="black" points="1176.8,-1386.59 1183.11,-1395.1 1183.48,-1384.51 1176.8,-1386.59"/>
</g>
<!-- UMapConceptInstance -->
<g id="node27" class="node">
<title>UMapConceptInstance</title>
<ellipse fill="none" stroke="black" cx="531.15" cy="-1314.84" rx="116.18" ry="18"/>
<text text-anchor="middle" x="531.15" y="-1311.14" font-family="Times,serif" font-size="14.00">UMapConceptInstance</text>
</g>
<!-- ConceptInstanceMap&#45;&gt;UMapConceptInstance -->
<g id="edge26" class="edge">
<title>ConceptInstanceMap&#45;&gt;UMapConceptInstance</title>
<path fill="none" stroke="black" d="M695.58,-1094.96C664.5,-1136.53 587.23,-1239.86 550.78,-1288.6"/>
<polygon fill="black" stroke="black" points="547.86,-1286.66 544.67,-1296.77 553.46,-1290.85 547.86,-1286.66"/>
</g>
<!-- UMapSection -->
<g id="node28" class="node">
<title>UMapSection</title>
<ellipse fill="none" stroke="black" cx="279.5" cy="-774.65" rx="73.39" ry="18"/>
<text text-anchor="middle" x="279.5" y="-770.95" font-family="Times,serif" font-size="14.00">UMapSection</text>
</g>
<!-- SectionMap&#45;&gt;UMapSection -->
<g id="edge27" class="edge">
<title>SectionMap&#45;&gt;UMapSection</title>
<path fill="none" stroke="black" d="M426.56,-763.7C405.56,-765.26 381.92,-767.02 359.83,-768.67"/>
<polygon fill="black" stroke="black" points="359.51,-765.18 349.8,-769.42 360.03,-772.16 359.51,-765.18"/>
</g>
<!-- UMapLabelledContent -->
<g id="node29" class="node">
<title>UMapLabelledContent</title>
<ellipse fill="none" stroke="black" cx="447.69" cy="-204.75" rx="115.88" ry="18"/>
<text text-anchor="middle" x="447.69" y="-201.05" font-family="Times,serif" font-size="14.00">UMapLabelledContent</text>
</g>
<!-- LabelledContentMap&#45;&gt;UMapLabelledContent -->
<g id="edge28" class="edge">
<title>LabelledContentMap&#45;&gt;UMapLabelledContent</title>
<path fill="none" stroke="black" d="M639.95,-394.12C602.28,-357.03 516.09,-272.12 473.08,-229.75"/>
<polygon fill="black" stroke="black" points="475.4,-227.12 465.82,-222.6 470.48,-232.11 475.4,-227.12"/>
</g>
<!-- UMapReference -->
<g id="node30" class="node">
<title>UMapReference</title>
<ellipse fill="none" stroke="black" cx="1045.06" cy="-18" rx="85.59" ry="18"/>
<text text-anchor="middle" x="1045.06" y="-14.3" font-family="Times,serif" font-size="14.00">UMapReference</text>
</g>
<!-- ReferenceMap&#45;&gt;UMapReference -->
<g id="edge29" class="edge">
<title>ReferenceMap&#45;&gt;UMapReference</title>
<path fill="none" stroke="black" d="M1023.16,-234.57C1027.26,-193.97 1037.26,-95.1 1042.2,-46.26"/>
<polygon fill="black" stroke="black" points="1045.71,-46.38 1043.23,-36.08 1038.74,-45.68 1045.71,-46.38"/>
</g>
<!-- UMapa -->
<g id="node16" class="node">
<title>UMapa</title>
<ellipse fill="none" stroke="#ee0000" cx="1408.53" cy="-290.95" rx="44.39" ry="18"/>
<text text-anchor="middle" x="1408.53" y="-287.25" font-family="Times,serif" font-size="14.00">UMapa</text>
</g>
<!-- MapUIDaInt -->
<g id="node17" class="node">
<title>MapUIDaInt</title>
<ellipse fill="none" stroke="black" cx="1592.97" cy="-290.95" rx="68.49" ry="18"/>
<text text-anchor="middle" x="1592.97" y="-287.25" font-family="Times,serif" font-size="14.00">MapUIDaInt</text>
</g>
<!-- UMapa&#45;&gt;MapUIDaInt -->
<g id="edge15" class="edge">
<title>UMapa&#45;&gt;MapUIDaInt</title>
<path fill="none" stroke="black" d="M1453.18,-290.95C1471.59,-290.95 1493.5,-290.95 1514.43,-290.95"/>
<polygon fill="black" stroke="black" points="1514.62,-294.45 1524.62,-290.95 1514.62,-287.45 1514.62,-294.45"/>
</g>
<!-- ReferenceDB -->
<g id="node31" class="node">
<title>ReferenceDB</title>
<ellipse fill="none" stroke="#00cdcd" cx="555.98" cy="-440.68" rx="71.49" ry="18"/>
<text text-anchor="middle" x="555.98" y="-436.98" font-family="Times,serif" font-size="14.00">ReferenceDB</text>
</g>
<!-- ReferenceDB&#45;&gt;ConceptMap -->
<g id="edge30" class="edge">
<title>ReferenceDB&#45;&gt;ConceptMap</title>
<path fill="none" stroke="black" d="M541.07,-458.33C510.67,-494.32 441.44,-576.27 406.13,-618.08"/>
<polygon fill="black" stroke="black" points="403.32,-615.98 399.54,-625.88 408.66,-620.5 403.32,-615.98"/>
</g>
<!-- SystemInformation -->
<g id="node32" class="node">
<title>SystemInformation</title>
<ellipse fill="none" stroke="darkviolet" cx="1735.79" cy="-1269.4" rx="100.18" ry="18"/>
<text text-anchor="middle" x="1735.79" y="-1265.7" font-family="Times,serif" font-size="14.00">SystemInformation</text>
</g>
<!-- CommonIdea -->
<g id="node33" class="node">
<title>CommonIdea</title>
<ellipse fill="none" stroke="black" cx="1527.33" cy="-1380.03" rx="71.49" ry="18"/>
<text text-anchor="middle" x="1527.33" y="-1376.33" font-family="Times,serif" font-size="14.00">CommonIdea</text>
</g>
<!-- SystemInformation&#45;&gt;CommonIdea -->
<g id="edge31" class="edge">
<title>SystemInformation&#45;&gt;CommonIdea</title>
<path fill="none" stroke="black" d="M1703.22,-1286.69C1666.43,-1306.21 1606.56,-1337.98 1567.06,-1358.95"/>
<polygon fill="black" stroke="black" points="1565.17,-1355.99 1557.97,-1363.77 1568.45,-1362.17 1565.17,-1355.99"/>
</g>
<!-- a -->
<g id="node34" class="node">
<title>a</title>
<ellipse fill="none" stroke="black" cx="1735.79" cy="-1494.49" rx="27" ry="18"/>
<text text-anchor="middle" x="1735.79" y="-1490.79" font-family="Times,serif" font-size="14.00">a</text>
</g>
<!-- SystemInformation&#45;&gt;a -->
<g id="edge32" class="edge">
<title>SystemInformation&#45;&gt;a</title>
<path fill="none" stroke="black" d="M1735.79,-1287.44C1735.79,-1326.54 1735.79,-1419.35 1735.79,-1466.28"/>
<polygon fill="black" stroke="black" points="1732.29,-1466.37 1735.79,-1476.37 1739.29,-1466.37 1732.29,-1466.37"/>
</g>
<!-- Idea -->
<g id="node35" class="node">
<title>Idea</title>
<ellipse fill="none" stroke="black" cx="1582" cy="-1217.88" rx="30.59" ry="18"/>
<text text-anchor="middle" x="1582" y="-1214.18" font-family="Times,serif" font-size="14.00">Idea</text>
</g>
<!-- SystemInformation&#45;&gt;Idea -->
<g id="edge33" class="edge">
<title>SystemInformation&#45;&gt;Idea</title>
<path fill="none" stroke="black" d="M1688.4,-1253.52C1665.84,-1245.97 1639.3,-1237.08 1618.37,-1230.07"/>
<polygon fill="black" stroke="black" points="1619.48,-1226.75 1608.88,-1226.89 1617.25,-1233.38 1619.48,-1226.75"/>
</g>
<!-- b -->
<g id="node36" class="node">
<title>b</title>
<ellipse fill="none" stroke="black" cx="1680.95" cy="-1136.15" rx="27" ry="18"/>
<text text-anchor="middle" x="1680.95" y="-1132.45" font-family="Times,serif" font-size="14.00">b</text>
</g>
<!-- SystemInformation&#45;&gt;b -->
<g id="edge34" class="edge">
<title>SystemInformation&#45;&gt;b</title>
<path fill="none" stroke="black" d="M1728.39,-1251.43C1719.06,-1228.75 1702.92,-1189.54 1692.09,-1163.23"/>
<polygon fill="black" stroke="black" points="1695.27,-1161.75 1688.23,-1153.83 1688.8,-1164.41 1695.27,-1161.75"/>
</g>
<!-- HasName -->
<g id="node37" class="node">
<title>HasName</title>
<ellipse fill="none" stroke="black" cx="1831.57" cy="-1110.24" rx="55.79" ry="18"/>
<text text-anchor="middle" x="1831.57" y="-1106.54" font-family="Times,serif" font-size="14.00">HasName</text>
</g>
<!-- SystemInformation&#45;&gt;HasName -->
<g id="edge35" class="edge">
<title>SystemInformation&#45;&gt;HasName</title>
<path fill="none" stroke="black" d="M1746.59,-1251.45C1763.33,-1223.63 1795.66,-1169.91 1815.25,-1137.34"/>
<polygon fill="black" stroke="black" points="1818.5,-1138.74 1820.66,-1128.36 1812.5,-1135.13 1818.5,-1138.74"/>
</g>
<!-- c -->
<g id="node38" class="node">
<title>c</title>
<ellipse fill="none" stroke="black" cx="1972.57" cy="-1169.2" rx="27" ry="18"/>
<text text-anchor="middle" x="1972.57" y="-1165.5" font-family="Times,serif" font-size="14.00">c</text>
</g>
<!-- SystemInformation&#45;&gt;c -->
<g id="edge36" class="edge">
<title>SystemInformation&#45;&gt;c</title>
<path fill="none" stroke="black" d="M1775.16,-1252.74C1821.39,-1233.17 1897.23,-1201.08 1940.2,-1182.9"/>
<polygon fill="black" stroke="black" points="1941.77,-1186.03 1949.61,-1178.91 1939.04,-1179.59 1941.77,-1186.03"/>
</g>
<!-- Blocka -->
<g id="node39" class="node">
<title>Blocka</title>
<ellipse fill="none" stroke="darkviolet" cx="1930.73" cy="-1381.95" rx="41.69" ry="18"/>
<text text-anchor="middle" x="1930.73" y="-1378.25" font-family="Times,serif" font-size="14.00">Blocka</text>
</g>
<!-- Blocka&#45;&gt;SystemInformation -->
<g id="edge38" class="edge">
<title>Blocka&#45;&gt;SystemInformation</title>
<path fill="none" stroke="black" d="M1905.64,-1367.46C1872.42,-1348.28 1813.49,-1314.26 1774.53,-1291.76"/>
<polygon fill="black" stroke="black" points="1775.97,-1288.56 1765.56,-1286.59 1772.47,-1294.62 1775.97,-1288.56"/>
</g>
<!-- Blocka&#45;&gt;a -->
<g id="edge37" class="edge">
<title>Blocka&#45;&gt;a</title>
<path fill="none" stroke="black" d="M1905.64,-1396.43C1869.71,-1417.17 1803.73,-1455.27 1765.43,-1477.38"/>
<polygon fill="black" stroke="black" points="1763.24,-1474.6 1756.33,-1482.63 1766.74,-1480.67 1763.24,-1474.6"/>
</g>
<!-- BibRef -->
<g id="node40" class="node">
<title>BibRef</title>
<ellipse fill="none" stroke="black" cx="2044.97" cy="-1381.95" rx="42.49" ry="18"/>
<text text-anchor="middle" x="2044.97" y="-1378.25" font-family="Times,serif" font-size="14.00">BibRef</text>
</g>
<!-- Blocka&#45;&gt;BibRef -->
<g id="edge39" class="edge">
<title>Blocka&#45;&gt;BibRef</title>
<path fill="none" stroke="black" d="M1972.62,-1381.95C1979.06,-1381.95 1985.77,-1381.95 1992.4,-1381.95"/>
<polygon fill="black" stroke="black" points="1992.7,-1385.45 2002.7,-1381.95 1992.7,-1378.45 1992.7,-1385.45"/>
</g>
<!-- RefMapa -->
<g id="node41" class="node">
<title>RefMapa</title>
<ellipse fill="none" stroke="#ee0000" cx="1785.21" cy="-290.95" rx="51.99" ry="18"/>
<text text-anchor="middle" x="1785.21" y="-287.25" font-family="Times,serif" font-size="14.00">RefMapa</text>
</g>
<!-- RefMapa&#45;&gt;MapUIDaInt -->
<g id="edge40" class="edge">
<title>RefMapa&#45;&gt;MapUIDaInt</title>
<path fill="none" stroke="black" d="M1733.19,-290.95C1714.17,-290.95 1692.21,-290.95 1671.4,-290.95"/>
<polygon fill="black" stroke="black" points="1671.3,-287.45 1661.3,-290.95 1671.3,-294.45 1671.3,-287.45"/>
</g>
<!-- BibMap -->
<g id="node42" class="node">
<title>BibMap</title>
<ellipse fill="none" stroke="#ee0000" cx="1411.93" cy="-745.95" rx="46.59" ry="18"/>
<text text-anchor="middle" x="1411.93" y="-742.25" font-family="Times,serif" font-size="14.00">BibMap</text>
</g>
<!-- RefMapCitation -->
<g id="node43" class="node">
<title>RefMapCitation</title>
<ellipse fill="none" stroke="black" cx="1614.57" cy="-745.95" rx="83.69" ry="18"/>
<text text-anchor="middle" x="1614.57" y="-742.25" font-family="Times,serif" font-size="14.00">RefMapCitation</text>
</g>
<!-- BibMap&#45;&gt;RefMapCitation -->
<g id="edge41" class="edge">
<title>BibMap&#45;&gt;RefMapCitation</title>
<path fill="none" stroke="black" d="M1458.93,-745.95C1477.3,-745.95 1499.05,-745.95 1520.38,-745.95"/>
<polygon fill="black" stroke="black" points="1520.46,-749.45 1530.46,-745.95 1520.46,-742.45 1520.46,-749.45"/>
</g>
</g>
</svg>
