<?xml version="1.0" encoding="UTF-8" standalone="no"?>
<!DOCTYPE svg PUBLIC "-//W3C//DTD SVG 1.1//EN"
 "http://www.w3.org/Graphics/SVG/1.1/DTD/svg11.dtd">
<!-- Generated by graphviz version 2.43.0 (0)
 -->
<!-- Title: alltypes Pages: 1 -->
<svg width="2170pt" height="1183pt"
 viewBox="0.00 0.00 2169.50 1183.35" xmlns="http://www.w3.org/2000/svg" xmlns:xlink="http://www.w3.org/1999/xlink">
<g id="graph0" class="graph" transform="scale(1 1) rotate(0) translate(4 1179.35)">
<title>alltypes</title>
<polygon fill="white" stroke="transparent" points="-4,4 -4,-1179.35 2165.5,-1179.35 2165.5,4 -4,4"/>
<!-- VarOrFunc -->
<g id="node1" class="node">
<title>VarOrFunc</title>
<ellipse fill="none" stroke="#00cdcd" cx="1436.44" cy="-1136" rx="61.19" ry="18"/>
<text text-anchor="middle" x="1436.44" y="-1132.3" font-family="Times,serif" font-size="14.00">VarOrFunc</text>
</g>
<!-- VarOrFunc&#45;&gt;VarOrFunc -->
<g id="edge2" class="edge">
<title>VarOrFunc&#45;&gt;VarOrFunc</title>
<path fill="none" stroke="black" d="M1493.32,-1142.59C1506.15,-1141.99 1515.54,-1139.8 1515.54,-1136 1515.54,-1133.33 1510.9,-1131.45 1503.68,-1130.37"/>
<polygon fill="black" stroke="black" points="1503.6,-1126.84 1493.32,-1129.41 1502.96,-1133.82 1503.6,-1126.84"/>
</g>
<!-- QuantityDict -->
<g id="node2" class="node">
<title>QuantityDict</title>
<ellipse fill="none" stroke="black" cx="1639.73" cy="-1136" rx="70.39" ry="18"/>
<text text-anchor="middle" x="1639.73" y="-1132.3" font-family="Times,serif" font-size="14.00">QuantityDict</text>
</g>
<!-- VarOrFunc&#45;&gt;QuantityDict -->
<g id="edge1" class="edge">
<title>VarOrFunc&#45;&gt;QuantityDict</title>
<path fill="none" stroke="black" d="M1497.71,-1136C1517.01,-1136 1538.63,-1136 1559.07,-1136"/>
<polygon fill="black" stroke="black" points="1559.31,-1139.5 1569.31,-1136 1559.31,-1132.5 1559.31,-1139.5"/>
</g>
<!-- CodeVarChunk -->
<g id="node3" class="node">
<title>CodeVarChunk</title>
<ellipse fill="none" stroke="#00cdcd" cx="1636.64" cy="-18" rx="79.09" ry="18"/>
<text text-anchor="middle" x="1636.64" y="-14.3" font-family="Times,serif" font-size="14.00">CodeVarChunk</text>
</g>
<!-- CodeChunk -->
<g id="node4" class="node">
<title>CodeChunk</title>
<ellipse fill="none" stroke="black" cx="1851.62" cy="-18" rx="63.89" ry="18"/>
<text text-anchor="middle" x="1851.62" y="-14.3" font-family="Times,serif" font-size="14.00">CodeChunk</text>
</g>
<!-- CodeVarChunk&#45;&gt;CodeChunk -->
<g id="edge3" class="edge">
<title>CodeVarChunk&#45;&gt;CodeChunk</title>
<path fill="none" stroke="black" d="M1716.08,-18C1736.14,-18 1757.61,-18 1777.41,-18"/>
<polygon fill="black" stroke="black" points="1777.59,-21.5 1787.59,-18 1777.59,-14.5 1777.59,-21.5"/>
</g>
<!-- MaybeCodeChunk -->
<g id="node5" class="node">
<title>MaybeCodeChunk</title>
<ellipse fill="none" stroke="black" cx="1298.56" cy="-18" rx="94.78" ry="18"/>
<text text-anchor="middle" x="1298.56" y="-14.3" font-family="Times,serif" font-size="14.00">MaybeCodeChunk</text>
</g>
<!-- CodeVarChunk&#45;&gt;MaybeCodeChunk -->
<g id="edge4" class="edge">
<title>CodeVarChunk&#45;&gt;MaybeCodeChunk</title>
<path fill="none" stroke="black" d="M1556.94,-18C1511.19,-18 1453.19,-18 1403.74,-18"/>
<polygon fill="black" stroke="black" points="1403.64,-14.5 1393.64,-18 1403.64,-21.5 1403.64,-14.5"/>
</g>
<!-- CodeFuncChunk -->
<g id="node6" class="node">
<title>CodeFuncChunk</title>
<ellipse fill="none" stroke="darkgreen" cx="2074.41" cy="-18" rx="87.18" ry="18"/>
<text text-anchor="middle" x="2074.41" y="-14.3" font-family="Times,serif" font-size="14.00">CodeFuncChunk</text>
</g>
<!-- CodeFuncChunk&#45;&gt;CodeChunk -->
<g id="edge5" class="edge">
<title>CodeFuncChunk&#45;&gt;CodeChunk</title>
<path fill="none" stroke="black" d="M1987.32,-18C1966.95,-18 1945.44,-18 1925.7,-18"/>
<polygon fill="black" stroke="black" points="1925.55,-14.5 1915.55,-18 1925.55,-21.5 1925.55,-14.5"/>
</g>
<!-- ArithBinOp -->
<g id="node7" class="node">
<title>ArithBinOp</title>
<ellipse fill="none" stroke="darkviolet" cx="63.04" cy="-586" rx="63.09" ry="18"/>
<text text-anchor="middle" x="63.04" y="-582.3" font-family="Times,serif" font-size="14.00">ArithBinOp</text>
</g>
<!-- EqBinOp -->
<g id="node8" class="node">
<title>EqBinOp</title>
<ellipse fill="none" stroke="darkviolet" cx="313.99" cy="-490.65" rx="51.99" ry="18"/>
<text text-anchor="middle" x="313.99" y="-486.95" font-family="Times,serif" font-size="14.00">EqBinOp</text>
</g>
<!-- BoolBinOp -->
<g id="node9" class="node">
<title>BoolBinOp</title>
<ellipse fill="none" stroke="darkviolet" cx="372.99" cy="-317.43" rx="59.59" ry="18"/>
<text text-anchor="middle" x="372.99" y="-313.73" font-family="Times,serif" font-size="14.00">BoolBinOp</text>
</g>
<!-- LABinOp -->
<g id="node10" class="node">
<title>LABinOp</title>
<ellipse fill="none" stroke="darkviolet" cx="483.71" cy="-171.72" rx="51.99" ry="18"/>
<text text-anchor="middle" x="483.71" y="-168.02" font-family="Times,serif" font-size="14.00">LABinOp</text>
</g>
<!-- OrdBinOp -->
<g id="node11" class="node">
<title>OrdBinOp</title>
<ellipse fill="none" stroke="darkviolet" cx="632.44" cy="-69.57" rx="57.39" ry="18"/>
<text text-anchor="middle" x="632.44" y="-65.87" font-family="Times,serif" font-size="14.00">OrdBinOp</text>
</g>
<!-- VVVBinOp -->
<g id="node12" class="node">
<title>VVVBinOp</title>
<ellipse fill="none" stroke="darkviolet" cx="812.05" cy="-18.08" rx="58.49" ry="18"/>
<text text-anchor="middle" x="812.05" y="-14.38" font-family="Times,serif" font-size="14.00">VVVBinOp</text>
</g>
<!-- VVNBinOp -->
<g id="node13" class="node">
<title>VVNBinOp</title>
<ellipse fill="none" stroke="darkviolet" cx="1001.22" cy="-27.81" rx="59.59" ry="18"/>
<text text-anchor="middle" x="1001.22" y="-24.11" font-family="Times,serif" font-size="14.00">VVNBinOp</text>
</g>
<!-- AssocArithOper -->
<g id="node14" class="node">
<title>AssocArithOper</title>
<ellipse fill="none" stroke="darkviolet" cx="1197.58" cy="-112.18" rx="83.39" ry="18"/>
<text text-anchor="middle" x="1197.58" y="-108.48" font-family="Times,serif" font-size="14.00">AssocArithOper</text>
</g>
<!-- AssocBoolOper -->
<g id="node15" class="node">
<title>AssocBoolOper</title>
<ellipse fill="none" stroke="darkviolet" cx="1360.68" cy="-280.14" rx="80.69" ry="18"/>
<text text-anchor="middle" x="1360.68" y="-276.44" font-family="Times,serif" font-size="14.00">AssocBoolOper</text>
</g>
<!-- UFunc -->
<g id="node16" class="node">
<title>UFunc</title>
<ellipse fill="none" stroke="darkviolet" cx="1434.99" cy="-458.54" rx="41.69" ry="18"/>
<text text-anchor="middle" x="1434.99" y="-454.84" font-family="Times,serif" font-size="14.00">UFunc</text>
</g>
<!-- UFuncB -->
<g id="node17" class="node">
<title>UFuncB</title>
<ellipse fill="none" stroke="darkviolet" cx="1448.42" cy="-619.13" rx="48.19" ry="18"/>
<text text-anchor="middle" x="1448.42" y="-615.43" font-family="Times,serif" font-size="14.00">UFuncB</text>
</g>
<!-- UFuncVV -->
<g id="node18" class="node">
<title>UFuncVV</title>
<ellipse fill="none" stroke="darkviolet" cx="1412.25" cy="-788.68" rx="53.89" ry="18"/>
<text text-anchor="middle" x="1412.25" y="-784.98" font-family="Times,serif" font-size="14.00">UFuncVV</text>
</g>
<!-- UFuncVN -->
<g id="node19" class="node">
<title>UFuncVN</title>
<ellipse fill="none" stroke="darkviolet" cx="1322.05" cy="-945.69" rx="55.79" ry="18"/>
<text text-anchor="middle" x="1322.05" y="-941.99" font-family="Times,serif" font-size="14.00">UFuncVN</text>
</g>
<!-- CodeExpr -->
<g id="node20" class="node">
<title>CodeExpr</title>
<ellipse fill="none" stroke="darkviolet" cx="877.68" cy="-586" rx="56.59" ry="18"/>
<text text-anchor="middle" x="877.68" y="-582.3" font-family="Times,serif" font-size="14.00">CodeExpr</text>
</g>
<!-- CodeExpr&#45;&gt;ArithBinOp -->
<g id="edge18" class="edge">
<title>CodeExpr&#45;&gt;ArithBinOp</title>
<path fill="none" stroke="black" d="M821.04,-586C677.08,-586 297.18,-586 136.49,-586"/>
<polygon fill="black" stroke="black" points="136.22,-582.5 126.22,-586 136.22,-589.5 136.22,-582.5"/>
</g>
<!-- CodeExpr&#45;&gt;EqBinOp -->
<g id="edge20" class="edge">
<title>CodeExpr&#45;&gt;EqBinOp</title>
<path fill="none" stroke="black" d="M827.66,-577.54C722.88,-559.82 480.96,-518.9 370.65,-500.24"/>
<polygon fill="black" stroke="black" points="371.16,-496.77 360.71,-498.56 369.99,-503.68 371.16,-496.77"/>
</g>
<!-- CodeExpr&#45;&gt;BoolBinOp -->
<g id="edge19" class="edge">
<title>CodeExpr&#45;&gt;BoolBinOp</title>
<path fill="none" stroke="black" d="M848.36,-570.4C762.05,-524.47 508.84,-389.72 411.62,-337.98"/>
<polygon fill="black" stroke="black" points="413.18,-334.85 402.7,-333.24 409.89,-341.03 413.18,-334.85"/>
</g>
<!-- CodeExpr&#45;&gt;LABinOp -->
<g id="edge21" class="edge">
<title>CodeExpr&#45;&gt;LABinOp</title>
<path fill="none" stroke="black" d="M861.25,-568.73C799.3,-503.58 579.68,-272.63 507.15,-196.36"/>
<polygon fill="black" stroke="black" points="509.63,-193.9 500.21,-189.07 504.56,-198.73 509.63,-193.9"/>
</g>
<!-- CodeExpr&#45;&gt;OrdBinOp -->
<g id="edge22" class="edge">
<title>CodeExpr&#45;&gt;OrdBinOp</title>
<path fill="none" stroke="black" d="M869.1,-567.92C832.49,-490.84 689.33,-189.36 645.36,-96.77"/>
<polygon fill="black" stroke="black" points="648.41,-95.03 640.96,-87.5 642.08,-98.04 648.41,-95.03"/>
</g>
<!-- CodeExpr&#45;&gt;VVVBinOp -->
<g id="edge23" class="edge">
<title>CodeExpr&#45;&gt;VVVBinOp</title>
<path fill="none" stroke="black" d="M875.57,-567.75C866.03,-485.22 826.91,-146.66 815.31,-46.26"/>
<polygon fill="black" stroke="black" points="818.78,-45.79 814.16,-36.26 811.83,-46.6 818.78,-45.79"/>
</g>
<!-- CodeExpr&#45;&gt;VVNBinOp -->
<g id="edge24" class="edge">
<title>CodeExpr&#45;&gt;VVNBinOp</title>
<path fill="none" stroke="black" d="M881.72,-567.75C899.77,-486.17 973.14,-154.67 995.03,-55.78"/>
<polygon fill="black" stroke="black" points="998.46,-56.44 997.21,-45.92 991.63,-54.93 998.46,-56.44"/>
</g>
<!-- CodeExpr&#45;&gt;AssocArithOper -->
<g id="edge10" class="edge">
<title>CodeExpr&#45;&gt;AssocArithOper</title>
<path fill="none" stroke="black" d="M889.64,-568.29C938.28,-496.25 1121.46,-224.93 1179.69,-138.68"/>
<polygon fill="black" stroke="black" points="1182.7,-140.48 1185.39,-130.23 1176.9,-136.56 1182.7,-140.48"/>
</g>
<!-- CodeExpr&#45;&gt;AssocBoolOper -->
<g id="edge11" class="edge">
<title>CodeExpr&#45;&gt;AssocBoolOper</title>
<path fill="none" stroke="black" d="M903.31,-569.77C983.89,-518.74 1232.26,-361.46 1325.14,-302.64"/>
<polygon fill="black" stroke="black" points="1327.06,-305.57 1333.64,-297.26 1323.31,-299.66 1327.06,-305.57"/>
</g>
<!-- CodeExpr&#45;&gt;UFunc -->
<g id="edge14" class="edge">
<title>CodeExpr&#45;&gt;UFunc</title>
<path fill="none" stroke="black" d="M923.76,-575.46C1028.38,-551.53 1282.88,-493.33 1388.18,-469.24"/>
<polygon fill="black" stroke="black" points="1389.23,-472.59 1398.19,-466.95 1387.67,-465.77 1389.23,-472.59"/>
</g>
<!-- CodeExpr&#45;&gt;UFuncB -->
<g id="edge15" class="edge">
<title>CodeExpr&#45;&gt;UFuncB</title>
<path fill="none" stroke="black" d="M933.44,-589.24C1041.86,-595.53 1280.09,-609.36 1390.33,-615.76"/>
<polygon fill="black" stroke="black" points="1390.41,-619.27 1400.59,-616.35 1390.81,-612.28 1390.41,-619.27"/>
</g>
<!-- CodeExpr&#45;&gt;UFuncVV -->
<g id="edge16" class="edge">
<title>CodeExpr&#45;&gt;UFuncVV</title>
<path fill="none" stroke="black" d="M914.42,-599.93C1009.37,-635.93 1262.71,-731.99 1366.72,-771.42"/>
<polygon fill="black" stroke="black" points="1365.71,-774.78 1376.31,-775.05 1368.2,-768.24 1365.71,-774.78"/>
</g>
<!-- CodeExpr&#45;&gt;UFuncVN -->
<g id="edge17" class="edge">
<title>CodeExpr&#45;&gt;UFuncVN</title>
<path fill="none" stroke="black" d="M898.52,-602.87C970.68,-661.28 1210.05,-855.04 1293.25,-922.38"/>
<polygon fill="black" stroke="black" points="1291.28,-925.29 1301.26,-928.86 1295.69,-919.85 1291.28,-925.29"/>
</g>
<!-- CodeExpr&#45;&gt;CodeExpr -->
<g id="edge7" class="edge">
<title>CodeExpr&#45;&gt;CodeExpr</title>
<path fill="none" stroke="black" d="M930.27,-592.63C942.88,-592.11 952.23,-589.9 952.23,-586 952.23,-583.26 947.61,-581.35 940.48,-580.28"/>
<polygon fill="black" stroke="black" points="940.54,-576.77 930.27,-579.37 939.92,-583.74 940.54,-576.77"/>
</g>
<!-- Double -->
<g id="node21" class="node">
<title>Double</title>
<ellipse fill="none" stroke="black" cx="1195.96" cy="-1060.91" rx="43.59" ry="18"/>
<text text-anchor="middle" x="1195.96" y="-1057.21" font-family="Times,serif" font-size="14.00">Double</text>
</g>
<!-- CodeExpr&#45;&gt;Double -->
<g id="edge6" class="edge">
<title>CodeExpr&#45;&gt;Double</title>
<path fill="none" stroke="black" d="M889.58,-603.75C938.08,-676.12 1121.05,-949.13 1178.55,-1034.93"/>
<polygon fill="black" stroke="black" points="1175.7,-1036.96 1184.18,-1043.32 1181.52,-1033.07 1175.7,-1036.96"/>
</g>
<!-- Integer -->
<g id="node22" class="node">
<title>Integer</title>
<ellipse fill="none" stroke="black" cx="1052.02" cy="-1130.47" rx="44.69" ry="18"/>
<text text-anchor="middle" x="1052.02" y="-1126.77" font-family="Times,serif" font-size="14.00">Integer</text>
</g>
<!-- CodeExpr&#45;&gt;Integer -->
<g id="edge8" class="edge">
<title>CodeExpr&#45;&gt;Integer</title>
<path fill="none" stroke="black" d="M883.48,-604.12C909.11,-684.14 1012.25,-1006.26 1043.2,-1102.92"/>
<polygon fill="black" stroke="black" points="1039.91,-1104.11 1046.29,-1112.56 1046.57,-1101.97 1039.91,-1104.11"/>
</g>
<!-- String -->
<g id="node23" class="node">
<title>String</title>
<ellipse fill="none" stroke="black" cx="897.7" cy="-1157.35" rx="40.09" ry="18"/>
<text text-anchor="middle" x="897.7" y="-1153.65" font-family="Times,serif" font-size="14.00">String</text>
</g>
<!-- CodeExpr&#45;&gt;String -->
<g id="edge9" class="edge">
<title>CodeExpr&#45;&gt;String</title>
<path fill="none" stroke="black" d="M878.31,-604.04C881.2,-686.58 893.18,-1028.49 896.71,-1129.27"/>
<polygon fill="black" stroke="black" points="893.22,-1129.43 897.07,-1139.3 900.21,-1129.19 893.22,-1129.43"/>
</g>
<!-- UID -->
<g id="node24" class="node">
<title>UID</title>
<ellipse fill="none" stroke="black" cx="757.07" cy="-1144.83" rx="29.5" ry="18"/>
<text text-anchor="middle" x="757.07" y="-1141.13" font-family="Times,serif" font-size="14.00">UID</text>
</g>
<!-- CodeExpr&#45;&gt;UID -->
<g id="edge12" class="edge">
<title>CodeExpr&#45;&gt;UID</title>
<path fill="none" stroke="black" d="M873.8,-603.96C856.28,-685.16 784.38,-1018.31 763.06,-1117.1"/>
<polygon fill="black" stroke="black" points="759.62,-1116.43 760.93,-1126.94 766.46,-1117.9 759.62,-1116.43"/>
</g>
<!-- Completeness -->
<g id="node25" class="node">
<title>Completeness</title>
<ellipse fill="none" stroke="black" cx="592.29" cy="-1081.37" rx="76.09" ry="18"/>
<text text-anchor="middle" x="592.29" y="-1077.67" font-family="Times,serif" font-size="14.00">Completeness</text>
</g>
<!-- CodeExpr&#45;&gt;Completeness -->
<g id="edge13" class="edge">
<title>CodeExpr&#45;&gt;Completeness</title>
<path fill="none" stroke="black" d="M867.35,-603.92C824.31,-678.64 659,-965.58 607.62,-1054.77"/>
<polygon fill="black" stroke="black" points="604.56,-1053.06 602.6,-1063.47 610.62,-1056.56 604.56,-1053.06"/>
</g>
<!-- DiscreteDomainDesc -->
<g id="node26" class="node">
<title>DiscreteDomainDesc</title>
<ellipse fill="none" stroke="black" cx="405.98" cy="-909.02" rx="107.78" ry="18"/>
<text text-anchor="middle" x="405.98" y="-905.32" font-family="Times,serif" font-size="14.00">DiscreteDomainDesc</text>
</g>
<!-- CodeExpr&#45;&gt;DiscreteDomainDesc -->
<g id="edge25" class="edge">
<title>CodeExpr&#45;&gt;DiscreteDomainDesc</title>
<path fill="none" stroke="black" d="M853.64,-602.46C775.8,-655.77 530.46,-823.78 439.95,-885.76"/>
<polygon fill="black" stroke="black" points="437.96,-882.88 431.69,-891.42 441.92,-888.65 437.96,-882.88"/>
</g>
<!-- RealInterval -->
<g id="node27" class="node">
<title>RealInterval</title>
<ellipse fill="none" stroke="black" cx="313.99" cy="-681.35" rx="67.69" ry="18"/>
<text text-anchor="middle" x="313.99" y="-677.65" font-family="Times,serif" font-size="14.00">RealInterval</text>
</g>
<!-- CodeExpr&#45;&gt;RealInterval -->
<g id="edge26" class="edge">
<title>CodeExpr&#45;&gt;RealInterval</title>
<path fill="none" stroke="black" d="M827.66,-594.46C726.17,-611.63 496.04,-650.55 381.44,-669.94"/>
<polygon fill="black" stroke="black" points="380.66,-666.52 371.38,-671.64 381.83,-673.42 380.66,-666.52"/>
</g>
</g>
</svg>
