<?xml version="1.0" encoding="UTF-8" standalone="no"?>
<!DOCTYPE svg PUBLIC "-//W3C//DTD SVG 1.1//EN"
 "http://www.w3.org/Graphics/SVG/1.1/DTD/svg11.dtd">
<!-- Generated by graphviz version 2.43.0 (0)
 -->
<!-- Title: alltypes Pages: 1 -->
<svg width="8156pt" height="3316pt"
 viewBox="0.00 0.00 8156.28 3315.75" xmlns="http://www.w3.org/2000/svg" xmlns:xlink="http://www.w3.org/1999/xlink">
<g id="graph0" class="graph" transform="scale(1 1) rotate(0) translate(4 3311.75)">
<title>alltypes</title>
<polygon fill="white" stroke="transparent" points="-4,4 -4,-3311.75 8152.28,-3311.75 8152.28,4 -4,4"/>
<!-- NodeFamily -->
<g id="node1" class="node">
<title>NodeFamily</title>
<ellipse fill="none" stroke="#00cdcd" cx="204.37" cy="-841.55" rx="66.09" ry="18"/>
<text text-anchor="middle" x="204.37" y="-837.85" font-family="Times,serif" font-size="14.00">NodeFamily</text>
</g>
<!-- UID -->
<g id="node2" class="node">
<title>UID</title>
<ellipse fill="none" stroke="black" cx="57.84" cy="-756.95" rx="29.5" ry="18"/>
<text text-anchor="middle" x="57.84" y="-753.25" font-family="Times,serif" font-size="14.00">UID</text>
</g>
<!-- NodeFamily&#45;&gt;UID -->
<g id="edge1" class="edge">
<title>NodeFamily&#45;&gt;UID</title>
<path fill="none" stroke="black" d="M176.12,-825.24C150.94,-810.7 114.17,-789.47 88.33,-774.55"/>
<polygon fill="black" stroke="black" points="89.76,-771.33 79.35,-769.37 86.26,-777.4 89.76,-771.33"/>
</g>
<!-- Label -->
<g id="node3" class="node">
<title>Label</title>
<ellipse fill="none" stroke="#ee0000" cx="3875.29" cy="-841.55" rx="36.29" ry="18"/>
<text text-anchor="middle" x="3875.29" y="-837.85" font-family="Times,serif" font-size="14.00">Label</text>
</g>
<!-- NodeFamily&#45;&gt;Label -->
<g id="edge2" class="edge">
<title>NodeFamily&#45;&gt;Label</title>
<path fill="none" stroke="black" d="M270.82,-841.55C731.16,-841.55 3438.79,-841.55 3828.55,-841.55"/>
<polygon fill="black" stroke="black" points="3828.63,-845.05 3838.63,-841.55 3828.63,-838.05 3828.63,-845.05"/>
</g>
<!-- Colour -->
<g id="node4" class="node">
<title>Colour</title>
<ellipse fill="none" stroke="#ee0000" cx="3908.61" cy="-1030.54" rx="41.69" ry="18"/>
<text text-anchor="middle" x="3908.61" y="-1026.84" font-family="Times,serif" font-size="14.00">Colour</text>
</g>
<!-- NodeFamily&#45;&gt;Colour -->
<g id="edge3" class="edge">
<title>NodeFamily&#45;&gt;Colour</title>
<path fill="none" stroke="black" d="M269.84,-844.89C728.08,-868.27 3448.55,-1007.07 3857.23,-1027.92"/>
<polygon fill="black" stroke="black" points="3857.11,-1031.42 3867.28,-1028.43 3857.47,-1024.43 3857.11,-1031.42"/>
</g>
<!-- String -->
<g id="node6" class="node">
<title>String</title>
<ellipse fill="none" stroke="black" cx="4004.57" cy="-1196.74" rx="40.09" ry="18"/>
<text text-anchor="middle" x="4004.57" y="-1193.04" font-family="Times,serif" font-size="14.00">String</text>
</g>
<!-- Label&#45;&gt;String -->
<g id="edge7" class="edge">
<title>Label&#45;&gt;String</title>
<path fill="none" stroke="black" d="M3881.88,-859.65C3903.01,-917.73 3969.21,-1099.61 3994.56,-1169.25"/>
<polygon fill="black" stroke="black" points="3991.28,-1170.48 3997.99,-1178.68 3997.86,-1168.08 3991.28,-1170.48"/>
</g>
<!-- Spec -->
<g id="node22" class="node">
<title>Spec</title>
<ellipse fill="none" stroke="darkviolet" cx="4980.46" cy="-841.55" rx="33.29" ry="18"/>
<text text-anchor="middle" x="4980.46" y="-837.85" font-family="Times,serif" font-size="14.00">Spec</text>
</g>
<!-- Label&#45;&gt;Spec -->
<g id="edge35" class="edge">
<title>Label&#45;&gt;Spec</title>
<path fill="none" stroke="black" d="M3911.74,-841.55C4077.26,-841.55 4757.67,-841.55 4936.98,-841.55"/>
<polygon fill="black" stroke="black" points="4937.09,-845.05 4947.09,-841.55 4937.09,-838.05 4937.09,-845.05"/>
</g>
<!-- Colour&#45;&gt;String -->
<g id="edge6" class="edge">
<title>Colour&#45;&gt;String</title>
<path fill="none" stroke="black" d="M3918.7,-1048.02C3935.54,-1077.19 3969.5,-1136 3989.29,-1170.28"/>
<polygon fill="black" stroke="black" points="3986.44,-1172.35 3994.47,-1179.26 3992.5,-1168.85 3986.44,-1172.35"/>
</g>
<!-- GraphInfo -->
<g id="node5" class="node">
<title>GraphInfo</title>
<ellipse fill="none" stroke="#00cdcd" cx="57.84" cy="-926.14" rx="57.69" ry="18"/>
<text text-anchor="middle" x="57.84" y="-922.44" font-family="Times,serif" font-size="14.00">GraphInfo</text>
</g>
<!-- GraphInfo&#45;&gt;NodeFamily -->
<g id="edge4" class="edge">
<title>GraphInfo&#45;&gt;NodeFamily</title>
<path fill="none" stroke="black" d="M85.41,-910.23C108.44,-896.93 141.51,-877.84 166.94,-863.16"/>
<polygon fill="black" stroke="black" points="169.02,-866 175.93,-857.97 165.52,-859.93 169.02,-866"/>
</g>
<!-- GraphInfo&#45;&gt;UID -->
<g id="edge5" class="edge">
<title>GraphInfo&#45;&gt;UID</title>
<path fill="none" stroke="black" d="M57.84,-908.04C57.84,-878.6 57.84,-820.16 57.84,-785.21"/>
<polygon fill="black" stroke="black" points="61.34,-785.18 57.84,-775.18 54.34,-785.18 61.34,-785.18"/>
</g>
<!-- Variation -->
<g id="node7" class="node">
<title>Variation</title>
<ellipse fill="none" stroke="darkviolet" cx="4151.58" cy="-1320.1" rx="52.79" ry="18"/>
<text text-anchor="middle" x="4151.58" y="-1316.4" font-family="Times,serif" font-size="14.00">Variation</text>
</g>
<!-- Variation&#45;&gt;String -->
<g id="edge8" class="edge">
<title>Variation&#45;&gt;String</title>
<path fill="none" stroke="black" d="M4131.45,-1303.21C4105.43,-1281.37 4060.04,-1243.3 4031.2,-1219.09"/>
<polygon fill="black" stroke="black" points="4033.44,-1216.4 4023.53,-1212.65 4028.94,-1221.76 4033.44,-1216.4"/>
</g>
<!-- Doc -->
<g id="node8" class="node">
<title>Doc</title>
<ellipse fill="none" stroke="black" cx="4704.17" cy="-1320.1" rx="28.7" ry="18"/>
<text text-anchor="middle" x="4704.17" y="-1316.4" font-family="Times,serif" font-size="14.00">Doc</text>
</g>
<!-- Variation&#45;&gt;Doc -->
<g id="edge9" class="edge">
<title>Variation&#45;&gt;Doc</title>
<path fill="none" stroke="black" d="M4203.07,-1324.23C4312.95,-1327.88 4568.32,-1327.72 4665.6,-1323.76"/>
<polygon fill="black" stroke="black" points="4666.02,-1327.24 4675.85,-1323.3 4665.71,-1320.25 4666.02,-1327.24"/>
</g>
<!-- Variation&#45;&gt;Doc -->
<g id="edge20" class="edge">
<title>Variation&#45;&gt;Doc</title>
<path fill="none" stroke="black" d="M4203.07,-1315.97C4312.95,-1312.33 4568.32,-1312.49 4665.6,-1316.45"/>
<polygon fill="black" stroke="black" points="4665.71,-1319.95 4675.85,-1316.91 4666.02,-1312.96 4665.71,-1319.95"/>
</g>
<!-- td -->
<g id="node13" class="node">
<title>td</title>
<ellipse fill="none" stroke="black" cx="3707.15" cy="-2614.91" rx="27" ry="18"/>
<text text-anchor="middle" x="3707.15" y="-2611.21" font-family="Times,serif" font-size="14.00">td</text>
</g>
<!-- Variation&#45;&gt;td -->
<g id="edge15" class="edge">
<title>Variation&#45;&gt;td</title>
<path fill="none" stroke="black" d="M4145.3,-1338.41C4096.29,-1481.19 3775.57,-2415.58 3716.49,-2587.69"/>
<polygon fill="black" stroke="black" points="3713.14,-2586.68 3713.2,-2597.27 3719.76,-2588.95 3713.14,-2586.68"/>
</g>
<!-- figure -->
<g id="node14" class="node">
<title>figure</title>
<ellipse fill="none" stroke="black" cx="3581.87" cy="-2558.68" rx="38.19" ry="18"/>
<text text-anchor="middle" x="3581.87" y="-2554.98" font-family="Times,serif" font-size="14.00">figure</text>
</g>
<!-- Variation&#45;&gt;figure -->
<g id="edge16" class="edge">
<title>Variation&#45;&gt;figure</title>
<path fill="none" stroke="black" d="M4143.31,-1338.09C4079.88,-1475.98 3671.13,-2364.63 3594.31,-2531.65"/>
<polygon fill="black" stroke="black" points="3591.02,-2530.42 3590.02,-2540.97 3597.38,-2533.34 3591.02,-2530.42"/>
</g>
<!-- li -->
<g id="node15" class="node">
<title>li</title>
<ellipse fill="none" stroke="black" cx="3460.95" cy="-2493.62" rx="27" ry="18"/>
<text text-anchor="middle" x="3460.95" y="-2489.92" font-family="Times,serif" font-size="14.00">li</text>
</g>
<!-- Variation&#45;&gt;li -->
<g id="edge17" class="edge">
<title>Variation&#45;&gt;li</title>
<path fill="none" stroke="black" d="M4141.01,-1338.07C4062.39,-1471.66 3569.27,-2309.56 3476.12,-2467.84"/>
<polygon fill="black" stroke="black" points="3473.09,-2466.08 3471.04,-2476.48 3479.12,-2469.64 3473.09,-2466.08"/>
</g>
<!-- pa -->
<g id="node16" class="node">
<title>pa</title>
<ellipse fill="none" stroke="black" cx="3354.38" cy="-2426.44" rx="27" ry="18"/>
<text text-anchor="middle" x="3354.38" y="-2422.74" font-family="Times,serif" font-size="14.00">pa</text>
</g>
<!-- Variation&#45;&gt;pa -->
<g id="edge18" class="edge">
<title>Variation&#45;&gt;pa</title>
<path fill="none" stroke="black" d="M4138.73,-1337.93C4046.05,-1466.55 3480.11,-2251.95 3372.16,-2401.76"/>
<polygon fill="black" stroke="black" points="3369.27,-2399.79 3366.26,-2409.95 3374.95,-2403.88 3369.27,-2399.79"/>
</g>
<!-- ba -->
<g id="node17" class="node">
<title>ba</title>
<ellipse fill="none" stroke="black" cx="3252.46" cy="-2352.4" rx="27" ry="18"/>
<text text-anchor="middle" x="3252.46" y="-2348.7" font-family="Times,serif" font-size="14.00">ba</text>
</g>
<!-- Variation&#45;&gt;ba -->
<g id="edge19" class="edge">
<title>Variation&#45;&gt;ba</title>
<path fill="none" stroke="black" d="M4136.35,-1337.59C4029.67,-1460.07 3395.04,-2188.7 3272.82,-2329.02"/>
<polygon fill="black" stroke="black" points="3270.06,-2326.86 3266.13,-2336.7 3275.34,-2331.46 3270.06,-2326.86"/>
</g>
<!-- PrintHTML -->
<g id="node9" class="node">
<title>PrintHTML</title>
<ellipse fill="none" stroke="darkgreen" cx="3083.24" cy="-2302.49" rx="63.09" ry="18"/>
<text text-anchor="middle" x="3083.24" y="-2298.79" font-family="Times,serif" font-size="14.00">PrintHTML</text>
</g>
<!-- PrintHTML&#45;&gt;String -->
<g id="edge10" class="edge">
<title>PrintHTML&#45;&gt;String</title>
<path fill="none" stroke="black" d="M3098.08,-2284.67C3205.19,-2156.13 3859.17,-1371.24 3983.99,-1221.44"/>
<polygon fill="black" stroke="black" points="3986.78,-1223.55 3990.5,-1213.63 3981.41,-1219.07 3986.78,-1223.55"/>
</g>
<!-- OpenClose -->
<g id="node10" class="node">
<title>OpenClose</title>
<ellipse fill="none" stroke="darkviolet" cx="4851.18" cy="-1196.74" rx="60.39" ry="18"/>
<text text-anchor="middle" x="4851.18" y="-1193.04" font-family="Times,serif" font-size="14.00">OpenClose</text>
</g>
<!-- OpenClose&#45;&gt;String -->
<g id="edge12" class="edge">
<title>OpenClose&#45;&gt;String</title>
<path fill="none" stroke="black" d="M4791.98,-1193.09C4633.49,-1188.88 4201.58,-1188.97 4054.44,-1193.35"/>
<polygon fill="black" stroke="black" points="4054.23,-1189.85 4044.35,-1193.67 4054.45,-1196.85 4054.23,-1189.85"/>
</g>
<!-- OpenClose&#45;&gt;String -->
<g id="edge67" class="edge">
<title>OpenClose&#45;&gt;String</title>
<path fill="none" stroke="black" d="M4791.98,-1200.4C4633.49,-1204.61 4201.58,-1204.52 4054.44,-1200.14"/>
<polygon fill="black" stroke="black" points="4054.45,-1196.64 4044.35,-1199.82 4054.23,-1203.64 4054.45,-1196.64"/>
</g>
<!-- OpenClose&#45;&gt;Doc -->
<g id="edge14" class="edge">
<title>OpenClose&#45;&gt;Doc</title>
<path fill="none" stroke="black" d="M4830.74,-1213.9C4804.31,-1236.07 4758.3,-1274.68 4729.63,-1298.74"/>
<polygon fill="black" stroke="black" points="4727.09,-1296.3 4721.68,-1305.41 4731.59,-1301.66 4727.09,-1296.3"/>
</g>
<!-- PrintingInformation -->
<g id="node11" class="node">
<title>PrintingInformation</title>
<ellipse fill="none" stroke="#00cdcd" cx="6888.62" cy="-2906.36" rx="103.18" ry="18"/>
<text text-anchor="middle" x="6888.62" y="-2902.66" font-family="Times,serif" font-size="14.00">PrintingInformation</text>
</g>
<!-- OpenClose&#45;&gt;PrintingInformation -->
<g id="edge11" class="edge">
<title>OpenClose&#45;&gt;PrintingInformation</title>
<path fill="none" stroke="black" d="M4871.68,-1213.94C5068.85,-1379.39 6627.22,-2687.02 6859.66,-2882.06"/>
<polygon fill="black" stroke="black" points="6857.46,-2884.78 6867.37,-2888.53 6861.96,-2879.42 6857.46,-2884.78"/>
</g>
<!-- Document -->
<g id="node12" class="node">
<title>Document</title>
<ellipse fill="none" stroke="darkviolet" cx="4704.17" cy="-362.99" rx="57.69" ry="18"/>
<text text-anchor="middle" x="4704.17" y="-359.29" font-family="Times,serif" font-size="14.00">Document</text>
</g>
<!-- OpenClose&#45;&gt;Document -->
<g id="edge13" class="edge">
<title>OpenClose&#45;&gt;Document</title>
<path fill="none" stroke="black" d="M4847.97,-1178.55C4829.08,-1071.43 4732.37,-522.96 4709.17,-391.39"/>
<polygon fill="black" stroke="black" points="4712.58,-390.54 4707.4,-381.3 4705.68,-391.76 4712.58,-390.54"/>
</g>
<!-- PrintingConfiguration -->
<g id="node20" class="node">
<title>PrintingConfiguration</title>
<ellipse fill="none" stroke="darkgreen" cx="7004.91" cy="-2456.06" rx="112.38" ry="18"/>
<text text-anchor="middle" x="7004.91" y="-2452.36" font-family="Times,serif" font-size="14.00">PrintingConfiguration</text>
</g>
<!-- PrintingInformation&#45;&gt;PrintingConfiguration -->
<g id="edge63" class="edge">
<title>PrintingInformation&#45;&gt;PrintingConfiguration</title>
<path fill="none" stroke="black" d="M6893.32,-2888.15C6911.29,-2818.56 6975.71,-2569.13 6997.59,-2484.43"/>
<polygon fill="black" stroke="black" points="7001.04,-2485.06 7000.15,-2474.5 6994.26,-2483.31 7001.04,-2485.06"/>
</g>
<!-- ChunkDB -->
<g id="node55" class="node">
<title>ChunkDB</title>
<ellipse fill="none" stroke="black" cx="7151.87" cy="-3289.75" rx="54.69" ry="18"/>
<text text-anchor="middle" x="7151.87" y="-3286.05" font-family="Times,serif" font-size="14.00">ChunkDB</text>
</g>
<!-- PrintingInformation&#45;&gt;ChunkDB -->
<g id="edge61" class="edge">
<title>PrintingInformation&#45;&gt;ChunkDB</title>
<path fill="none" stroke="black" d="M6900.96,-2924.34C6943.37,-2986.09 7083.24,-3189.79 7133.6,-3263.14"/>
<polygon fill="black" stroke="black" points="7131.01,-3265.55 7139.55,-3271.81 7136.78,-3261.59 7131.01,-3265.55"/>
</g>
<!-- Stage -->
<g id="node56" class="node">
<title>Stage</title>
<ellipse fill="none" stroke="black" cx="6465.36" cy="-3099.08" rx="37.89" ry="18"/>
<text text-anchor="middle" x="6465.36" y="-3095.38" font-family="Times,serif" font-size="14.00">Stage</text>
</g>
<!-- PrintingInformation&#45;&gt;Stage -->
<g id="edge62" class="edge">
<title>PrintingInformation&#45;&gt;Stage</title>
<path fill="none" stroke="black" d="M6851.43,-2923.29C6770.98,-2959.92 6581.64,-3046.13 6501.84,-3082.47"/>
<polygon fill="black" stroke="black" points="6500.32,-3079.32 6492.66,-3086.65 6503.22,-3085.69 6500.32,-3079.32"/>
</g>
<!-- Title -->
<g id="node34" class="node">
<title>Title</title>
<ellipse fill="none" stroke="#ee0000" cx="4947.14" cy="-652.55" rx="31.7" ry="18"/>
<text text-anchor="middle" x="4947.14" y="-648.85" font-family="Times,serif" font-size="14.00">Title</text>
</g>
<!-- Document&#45;&gt;Title -->
<g id="edge44" class="edge">
<title>Document&#45;&gt;Title</title>
<path fill="none" stroke="black" d="M4719,-380.67C4760.74,-430.41 4879.23,-571.63 4926.9,-628.44"/>
<polygon fill="black" stroke="black" points="4924.3,-630.78 4933.41,-636.19 4929.66,-626.28 4924.3,-630.78"/>
</g>
<!-- Author -->
<g id="node42" class="node">
<title>Author</title>
<ellipse fill="none" stroke="#ee0000" cx="4851.18" cy="-486.35" rx="42.49" ry="18"/>
<text text-anchor="middle" x="4851.18" y="-482.65" font-family="Times,serif" font-size="14.00">Author</text>
</g>
<!-- Document&#45;&gt;Author -->
<g id="edge45" class="edge">
<title>Document&#45;&gt;Author</title>
<path fill="none" stroke="black" d="M4724.3,-379.89C4750.18,-401.6 4795.2,-439.38 4824.07,-463.61"/>
<polygon fill="black" stroke="black" points="4821.85,-466.31 4831.76,-470.05 4826.35,-460.95 4821.85,-466.31"/>
</g>
<!-- LayoutObj -->
<g id="node43" class="node">
<title>LayoutObj</title>
<ellipse fill="none" stroke="darkviolet" cx="4331.92" cy="-297.36" rx="58.49" ry="18"/>
<text text-anchor="middle" x="4331.92" y="-293.66" font-family="Times,serif" font-size="14.00">LayoutObj</text>
</g>
<!-- Document&#45;&gt;LayoutObj -->
<g id="edge46" class="edge">
<title>Document&#45;&gt;LayoutObj</title>
<path fill="none" stroke="black" d="M4653.58,-354.07C4585.7,-342.1 4465.31,-320.88 4392.62,-308.06"/>
<polygon fill="black" stroke="black" points="4393.15,-304.6 4382.7,-306.31 4391.94,-311.49 4393.15,-304.6"/>
</g>
<!-- Seperator -->
<g id="node18" class="node">
<title>Seperator</title>
<ellipse fill="none" stroke="#ee0000" cx="5121.24" cy="-2042.49" rx="57.39" ry="18"/>
<text text-anchor="middle" x="5121.24" y="-2038.79" font-family="Times,serif" font-size="14.00">Seperator</text>
</g>
<!-- Seperator&#45;&gt;Doc -->
<g id="edge21" class="edge">
<title>Seperator&#45;&gt;Doc</title>
<path fill="none" stroke="black" d="M5110.93,-2024.63C5054.8,-1927.42 4786.15,-1462.1 4719.27,-1346.26"/>
<polygon fill="black" stroke="black" points="4722.15,-1344.25 4714.12,-1337.34 4716.09,-1347.75 4722.15,-1344.25"/>
</g>
<!-- Linearity -->
<g id="node19" class="node">
<title>Linearity</title>
<ellipse fill="none" stroke="darkviolet" cx="7234.47" cy="-2515.35" rx="52.79" ry="18"/>
<text text-anchor="middle" x="7234.47" y="-2511.65" font-family="Times,serif" font-size="14.00">Linearity</text>
</g>
<!-- Linearity&#45;&gt;PrintingConfiguration -->
<g id="edge22" class="edge">
<title>Linearity&#45;&gt;PrintingConfiguration</title>
<path fill="none" stroke="black" d="M7192.36,-2504.47C7159.45,-2495.97 7113,-2483.98 7074.57,-2474.05"/>
<polygon fill="black" stroke="black" points="7075.03,-2470.56 7064.47,-2471.44 7073.28,-2477.33 7075.03,-2470.56"/>
</g>
<!-- Notation -->
<g id="node57" class="node">
<title>Notation</title>
<ellipse fill="none" stroke="darkviolet" cx="6775.36" cy="-2396.78" rx="51.19" ry="18"/>
<text text-anchor="middle" x="6775.36" y="-2393.08" font-family="Times,serif" font-size="14.00">Notation</text>
</g>
<!-- PrintingConfiguration&#45;&gt;Notation -->
<g id="edge64" class="edge">
<title>PrintingConfiguration&#45;&gt;Notation</title>
<path fill="none" stroke="black" d="M6945.5,-2440.72C6908.74,-2431.22 6862.03,-2419.16 6826.85,-2410.07"/>
<polygon fill="black" stroke="black" points="6827.35,-2406.59 6816.79,-2407.48 6825.6,-2413.37 6827.35,-2406.59"/>
</g>
<!-- LinkType -->
<g id="node21" class="node">
<title>LinkType</title>
<ellipse fill="none" stroke="darkviolet" cx="7837.67" cy="-18" rx="53.09" ry="18"/>
<text text-anchor="middle" x="7837.67" y="-14.3" font-family="Times,serif" font-size="14.00">LinkType</text>
</g>
<!-- LinkType&#45;&gt;Spec -->
<g id="edge23" class="edge">
<title>LinkType&#45;&gt;Spec</title>
<path fill="none" stroke="black" d="M7797.01,-29.72C7474.65,-122.63 5336.48,-738.93 5019.66,-830.25"/>
<polygon fill="black" stroke="black" points="5018.63,-826.9 5009.99,-833.04 5020.57,-833.63 5018.63,-826.9"/>
</g>
<!-- Expr -->
<g id="node28" class="node">
<title>Expr</title>
<ellipse fill="none" stroke="darkviolet" cx="4947.14" cy="-1030.54" rx="33.29" ry="18"/>
<text text-anchor="middle" x="4947.14" y="-1026.84" font-family="Times,serif" font-size="14.00">Expr</text>
</g>
<!-- Spec&#45;&gt;Expr -->
<g id="edge28" class="edge">
<title>Spec&#45;&gt;Expr</title>
<path fill="none" stroke="black" d="M4977.27,-859.67C4971.43,-892.76 4959.01,-963.17 4952.08,-1002.5"/>
<polygon fill="black" stroke="black" points="4948.61,-1002.02 4950.32,-1012.48 4955.5,-1003.24 4948.61,-1002.02"/>
</g>
<!-- Ops -->
<g id="node23" class="node">
<title>Ops</title>
<ellipse fill="none" stroke="darkviolet" cx="3461.19" cy="-1421.55" rx="28.7" ry="18"/>
<text text-anchor="middle" x="3461.19" y="-1417.85" font-family="Times,serif" font-size="14.00">Ops</text>
</g>
<!-- Fence -->
<g id="node24" class="node">
<title>Fence</title>
<ellipse fill="none" stroke="darkviolet" cx="4874.19" cy="-2513.55" rx="38.19" ry="18"/>
<text text-anchor="middle" x="4874.19" y="-2509.85" font-family="Times,serif" font-size="14.00">Fence</text>
</g>
<!-- OverSymb -->
<g id="node25" class="node">
<title>OverSymb</title>
<ellipse fill="none" stroke="darkviolet" cx="4584.19" cy="-2513.55" rx="59.59" ry="18"/>
<text text-anchor="middle" x="4584.19" y="-2509.85" font-family="Times,serif" font-size="14.00">OverSymb</text>
</g>
<!-- Fonts -->
<g id="node26" class="node">
<title>Fonts</title>
<ellipse fill="none" stroke="darkviolet" cx="4248.19" cy="-2513.55" rx="36.29" ry="18"/>
<text text-anchor="middle" x="4248.19" y="-2509.85" font-family="Times,serif" font-size="14.00">Fonts</text>
</g>
<!-- Spacing -->
<g id="node27" class="node">
<title>Spacing</title>
<ellipse fill="none" stroke="darkviolet" cx="3168.19" cy="-2669.55" rx="48.19" ry="18"/>
<text text-anchor="middle" x="3168.19" y="-2665.85" font-family="Times,serif" font-size="14.00">Spacing</text>
</g>
<!-- Expr&#45;&gt;String -->
<g id="edge26" class="edge">
<title>Expr&#45;&gt;String</title>
<path fill="none" stroke="black" d="M4915.51,-1036.12C4776.51,-1060.63 4219.44,-1158.86 4052.25,-1188.34"/>
<polygon fill="black" stroke="black" points="4051.5,-1184.91 4042.26,-1190.1 4052.72,-1191.81 4051.5,-1184.91"/>
</g>
<!-- Expr&#45;&gt;Expr -->
<g id="edge27" class="edge">
<title>Expr&#45;&gt;Expr</title>
<path fill="none" stroke="black" d="M4978.1,-1037.29C4989.22,-1037.43 4998.28,-1035.18 4998.28,-1030.54 4998.28,-1027.43 4994.19,-1025.39 4988.13,-1024.43"/>
<polygon fill="black" stroke="black" points="4988.3,-1020.93 4978.1,-1023.8 4987.86,-1027.92 4988.3,-1020.93"/>
</g>
<!-- Double -->
<g id="node29" class="node">
<title>Double</title>
<ellipse fill="none" stroke="black" cx="6193.77" cy="-1398.28" rx="43.59" ry="18"/>
<text text-anchor="middle" x="6193.77" y="-1394.58" font-family="Times,serif" font-size="14.00">Double</text>
</g>
<!-- Expr&#45;&gt;Double -->
<g id="edge24" class="edge">
<title>Expr&#45;&gt;Double</title>
<path fill="none" stroke="black" d="M4976.42,-1039.18C5140.7,-1087.64 5947.58,-1325.65 6148.43,-1384.9"/>
<polygon fill="black" stroke="black" points="6147.5,-1388.27 6158.08,-1387.75 6149.48,-1381.56 6147.5,-1388.27"/>
</g>
<!-- Integer -->
<g id="node30" class="node">
<title>Integer</title>
<ellipse fill="none" stroke="black" cx="6138.99" cy="-1548.97" rx="44.69" ry="18"/>
<text text-anchor="middle" x="6138.99" y="-1545.27" font-family="Times,serif" font-size="14.00">Integer</text>
</g>
<!-- Expr&#45;&gt;Integer -->
<g id="edge25" class="edge">
<title>Expr&#45;&gt;Integer</title>
<path fill="none" stroke="black" d="M4973.14,-1041.85C5126.48,-1108.55 5912.36,-1450.39 6099.13,-1531.63"/>
<polygon fill="black" stroke="black" points="6098,-1534.96 6108.57,-1535.74 6100.8,-1528.54 6098,-1534.96"/>
</g>
<!-- ListType -->
<g id="node31" class="node">
<title>ListType</title>
<ellipse fill="none" stroke="darkviolet" cx="4004.57" cy="-486.35" rx="50.89" ry="18"/>
<text text-anchor="middle" x="4004.57" y="-482.65" font-family="Times,serif" font-size="14.00">ListType</text>
</g>
<!-- ListType&#45;&gt;Label -->
<g id="edge31" class="edge">
<title>ListType&#45;&gt;Label</title>
<path fill="none" stroke="black" d="M3997.98,-504.45C3976.84,-562.53 3910.64,-744.42 3885.29,-814.05"/>
<polygon fill="black" stroke="black" points="3881.99,-812.89 3881.86,-823.48 3888.57,-815.28 3881.99,-812.89"/>
</g>
<!-- ItemType -->
<g id="node32" class="node">
<title>ItemType</title>
<ellipse fill="none" stroke="darkviolet" cx="3908.61" cy="-652.55" rx="54.69" ry="18"/>
<text text-anchor="middle" x="3908.61" y="-648.85" font-family="Times,serif" font-size="14.00">ItemType</text>
</g>
<!-- ListType&#45;&gt;ItemType -->
<g id="edge29" class="edge">
<title>ListType&#45;&gt;ItemType</title>
<path fill="none" stroke="black" d="M3989.24,-503.79C3969.32,-532.74 3935.66,-590.76 3918.66,-625.19"/>
<polygon fill="black" stroke="black" points="3915.49,-623.7 3914.33,-634.23 3921.8,-626.72 3915.49,-623.7"/>
</g>
<!-- Maybe -->
<g id="node33" class="node">
<title>Maybe</title>
<ellipse fill="none" stroke="black" cx="3917.05" cy="-412.92" rx="42.49" ry="18"/>
<text text-anchor="middle" x="3917.05" y="-409.22" font-family="Times,serif" font-size="14.00">Maybe</text>
</g>
<!-- ListType&#45;&gt;Maybe -->
<g id="edge30" class="edge">
<title>ListType&#45;&gt;Maybe</title>
<path fill="none" stroke="black" d="M3984.71,-469.69C3972.68,-459.6 3957.18,-446.59 3944.05,-435.57"/>
<polygon fill="black" stroke="black" points="3946.14,-432.76 3936.23,-429.01 3941.64,-438.12 3946.14,-432.76"/>
</g>
<!-- ListType&#45;&gt;Title -->
<g id="edge32" class="edge">
<title>ListType&#45;&gt;Title</title>
<path fill="none" stroke="black" d="M4050.03,-494.37C4211.08,-522.76 4752.96,-618.31 4906.36,-645.36"/>
<polygon fill="black" stroke="black" points="4905.85,-648.83 4916.31,-647.12 4907.07,-641.93 4905.85,-648.83"/>
</g>
<!-- ItemType&#45;&gt;Spec -->
<g id="edge33" class="edge">
<title>ItemType&#45;&gt;Spec</title>
<path fill="none" stroke="black" d="M3957.1,-661.1C4137.73,-692.95 4769.82,-804.41 4938.7,-834.19"/>
<polygon fill="black" stroke="black" points="4938.24,-837.66 4948.7,-835.95 4939.46,-830.76 4938.24,-837.66"/>
</g>
<!-- ItemType&#45;&gt;ListType -->
<g id="edge34" class="edge">
<title>ItemType&#45;&gt;ListType</title>
<path fill="none" stroke="black" d="M3923.94,-635.11C3943.86,-606.16 3977.52,-548.15 3994.52,-513.72"/>
<polygon fill="black" stroke="black" points="3997.69,-515.2 3998.85,-504.67 3991.37,-512.18 3997.69,-515.2"/>
</g>
<!-- Title&#45;&gt;Spec -->
<g id="edge36" class="edge">
<title>Title&#45;&gt;Spec</title>
<path fill="none" stroke="black" d="M4950.33,-670.67C4956.17,-703.76 4968.58,-774.18 4975.52,-813.5"/>
<polygon fill="black" stroke="black" points="4972.09,-814.24 4977.27,-823.48 4978.99,-813.03 4972.09,-814.24"/>
</g>
<!-- Citation -->
<g id="node35" class="node">
<title>Citation</title>
<ellipse fill="none" stroke="darkviolet" cx="7941.99" cy="-1163.62" rx="48.19" ry="18"/>
<text text-anchor="middle" x="7941.99" y="-1159.92" font-family="Times,serif" font-size="14.00">Citation</text>
</g>
<!-- EntryID -->
<g id="node36" class="node">
<title>EntryID</title>
<ellipse fill="none" stroke="black" cx="8100.18" cy="-1059.02" rx="48.19" ry="18"/>
<text text-anchor="middle" x="8100.18" y="-1055.32" font-family="Times,serif" font-size="14.00">EntryID</text>
</g>
<!-- Citation&#45;&gt;EntryID -->
<g id="edge37" class="edge">
<title>Citation&#45;&gt;EntryID</title>
<path fill="none" stroke="black" d="M7966.02,-1147.73C7993.24,-1129.74 8037.73,-1100.32 8067.95,-1080.34"/>
<polygon fill="black" stroke="black" points="8070.04,-1083.15 8076.45,-1074.72 8066.18,-1077.31 8070.04,-1083.15"/>
</g>
<!-- CitationKind -->
<g id="node37" class="node">
<title>CitationKind</title>
<ellipse fill="none" stroke="black" cx="7942.44" cy="-1353.26" rx="69.59" ry="18"/>
<text text-anchor="middle" x="7942.44" y="-1349.56" font-family="Times,serif" font-size="14.00">CitationKind</text>
</g>
<!-- Citation&#45;&gt;CitationKind -->
<g id="edge38" class="edge">
<title>Citation&#45;&gt;CitationKind</title>
<path fill="none" stroke="black" d="M7942.04,-1181.8C7942.11,-1215.01 7942.28,-1285.66 7942.37,-1325.12"/>
<polygon fill="black" stroke="black" points="7938.87,-1325.14 7942.4,-1335.13 7945.87,-1325.12 7938.87,-1325.14"/>
</g>
<!-- CiteField -->
<g id="node38" class="node">
<title>CiteField</title>
<ellipse fill="none" stroke="darkviolet" cx="7935.16" cy="-779.2" rx="53.09" ry="18"/>
<text text-anchor="middle" x="7935.16" y="-775.5" font-family="Times,serif" font-size="14.00">CiteField</text>
</g>
<!-- Citation&#45;&gt;CiteField -->
<g id="edge39" class="edge">
<title>Citation&#45;&gt;CiteField</title>
<path fill="none" stroke="black" d="M7941.67,-1145.59C7940.58,-1084.19 7937,-882.85 7935.67,-807.76"/>
<polygon fill="black" stroke="black" points="7939.17,-807.57 7935.49,-797.64 7932.17,-807.7 7939.17,-807.57"/>
</g>
<!-- CiteField&#45;&gt;Spec -->
<g id="edge40" class="edge">
<title>CiteField&#45;&gt;Spec</title>
<path fill="none" stroke="black" d="M7881.67,-780.33C7513.33,-788.1 5357.4,-833.59 5023.81,-840.63"/>
<polygon fill="black" stroke="black" points="5023.52,-837.14 5013.59,-840.85 5023.67,-844.14 5023.52,-837.14"/>
</g>
<!-- People -->
<g id="node39" class="node">
<title>People</title>
<ellipse fill="none" stroke="black" cx="7928.33" cy="-394.78" rx="41.69" ry="18"/>
<text text-anchor="middle" x="7928.33" y="-391.08" font-family="Times,serif" font-size="14.00">People</text>
</g>
<!-- CiteField&#45;&gt;People -->
<g id="edge41" class="edge">
<title>CiteField&#45;&gt;People</title>
<path fill="none" stroke="black" d="M7934.84,-761.18C7933.75,-699.77 7930.17,-498.43 7928.83,-423.35"/>
<polygon fill="black" stroke="black" points="7932.33,-423.15 7928.65,-413.22 7925.33,-423.28 7932.33,-423.15"/>
</g>
<!-- HP -->
<g id="node40" class="node">
<title>HP</title>
<ellipse fill="none" stroke="darkviolet" cx="7869.95" cy="-1517.6" rx="27" ry="18"/>
<text text-anchor="middle" x="7869.95" y="-1513.9" font-family="Times,serif" font-size="14.00">HP</text>
</g>
<!-- HP&#45;&gt;Spec -->
<g id="edge42" class="edge">
<title>HP&#45;&gt;Spec</title>
<path fill="none" stroke="black" d="M7844.09,-1511.55C7578.6,-1449.43 5351.7,-928.41 5021.36,-851.12"/>
<polygon fill="black" stroke="black" points="5021.81,-847.63 5011.27,-848.76 5020.21,-854.44 5021.81,-847.63"/>
</g>
<!-- BibRef -->
<g id="node41" class="node">
<title>BibRef</title>
<ellipse fill="none" stroke="#ee0000" cx="7780.19" cy="-1064.71" rx="42.49" ry="18"/>
<text text-anchor="middle" x="7780.19" y="-1061.01" font-family="Times,serif" font-size="14.00">BibRef</text>
</g>
<!-- BibRef&#45;&gt;Citation -->
<g id="edge43" class="edge">
<title>BibRef&#45;&gt;Citation</title>
<path fill="none" stroke="black" d="M7804.41,-1079.52C7831.94,-1096.34 7877.04,-1123.92 7908.06,-1142.88"/>
<polygon fill="black" stroke="black" points="7906.45,-1145.99 7916.8,-1148.22 7910.1,-1140.02 7906.45,-1145.99"/>
</g>
<!-- Author&#45;&gt;Spec -->
<g id="edge52" class="edge">
<title>Author&#45;&gt;Spec</title>
<path fill="none" stroke="black" d="M4857.77,-504.45C4878.91,-562.53 4945.11,-744.42 4970.45,-814.05"/>
<polygon fill="black" stroke="black" points="4967.18,-815.28 4973.89,-823.48 4973.75,-812.89 4967.18,-815.28"/>
</g>
<!-- LayoutObj&#45;&gt;Label -->
<g id="edge49" class="edge">
<title>LayoutObj&#45;&gt;Label</title>
<path fill="none" stroke="black" d="M4317.24,-314.85C4250.34,-394.58 3974.14,-723.74 3895.98,-816.89"/>
<polygon fill="black" stroke="black" points="3893.2,-814.75 3889.45,-824.66 3898.56,-819.25 3893.2,-814.75"/>
</g>
<!-- LayoutObj&#45;&gt;Spec -->
<g id="edge48" class="edge">
<title>LayoutObj&#45;&gt;Spec</title>
<path fill="none" stroke="black" d="M4352.4,-314.54C4447.77,-394.57 4848.22,-730.59 4954.48,-819.75"/>
<polygon fill="black" stroke="black" points="4952.27,-822.46 4962.18,-826.21 4956.77,-817.1 4952.27,-822.46"/>
</g>
<!-- Tags -->
<g id="node44" class="node">
<title>Tags</title>
<ellipse fill="none" stroke="#ee0000" cx="4151.58" cy="-362.99" rx="32.49" ry="18"/>
<text text-anchor="middle" x="4151.58" y="-359.29" font-family="Times,serif" font-size="14.00">Tags</text>
</g>
<!-- LayoutObj&#45;&gt;Tags -->
<g id="edge47" class="edge">
<title>LayoutObj&#45;&gt;Tags</title>
<path fill="none" stroke="black" d="M4294.11,-311.12C4262.99,-322.45 4219.12,-338.41 4188.29,-349.63"/>
<polygon fill="black" stroke="black" points="4186.98,-346.39 4178.78,-353.1 4189.37,-352.96 4186.98,-346.39"/>
</g>
<!-- Bool -->
<g id="node45" class="node">
<title>Bool</title>
<ellipse fill="none" stroke="black" cx="4241.89" cy="-206.59" rx="31.4" ry="18"/>
<text text-anchor="middle" x="4241.89" y="-202.89" font-family="Times,serif" font-size="14.00">Bool</text>
</g>
<!-- LayoutObj&#45;&gt;Bool -->
<g id="edge50" class="edge">
<title>LayoutObj&#45;&gt;Bool</title>
<path fill="none" stroke="black" d="M4314.56,-279.86C4300.33,-265.51 4280.09,-245.1 4264.58,-229.47"/>
<polygon fill="black" stroke="black" points="4266.92,-226.86 4257.39,-222.22 4261.95,-231.78 4266.92,-226.86"/>
</g>
<!-- Caption -->
<g id="node46" class="node">
<title>Caption</title>
<ellipse fill="none" stroke="#ee0000" cx="4523.83" cy="-297.36" rx="46.59" ry="18"/>
<text text-anchor="middle" x="4523.83" y="-293.66" font-family="Times,serif" font-size="14.00">Caption</text>
</g>
<!-- LayoutObj&#45;&gt;Caption -->
<g id="edge51" class="edge">
<title>LayoutObj&#45;&gt;Caption</title>
<path fill="none" stroke="black" d="M4390.54,-297.36C4414.75,-297.36 4442.71,-297.36 4466.76,-297.36"/>
<polygon fill="black" stroke="black" points="4466.8,-300.86 4476.8,-297.36 4466.8,-293.86 4466.8,-300.86"/>
</g>
<!-- Tags&#45;&gt;String -->
<g id="edge55" class="edge">
<title>Tags&#45;&gt;String</title>
<path fill="none" stroke="black" d="M4148.37,-381.18C4129.46,-488.43 4032.56,-1037.97 4009.5,-1168.77"/>
<polygon fill="black" stroke="black" points="4006.02,-1168.34 4007.73,-1178.79 4012.92,-1169.55 4006.02,-1168.34"/>
</g>
<!-- Caption&#45;&gt;Spec -->
<g id="edge60" class="edge">
<title>Caption&#45;&gt;Spec</title>
<path fill="none" stroke="black" d="M4538.25,-314.54C4604.84,-393.9 4882.64,-724.97 4960.24,-817.45"/>
<polygon fill="black" stroke="black" points="4957.6,-819.75 4966.71,-825.16 4962.97,-815.25 4957.6,-819.75"/>
</g>
<!-- Contents -->
<g id="node47" class="node">
<title>Contents</title>
<ellipse fill="none" stroke="#ee0000" cx="7837.52" cy="-1665.73" rx="52.79" ry="18"/>
<text text-anchor="middle" x="7837.52" y="-1662.03" font-family="Times,serif" font-size="14.00">Contents</text>
</g>
<!-- Contents&#45;&gt;Spec -->
<g id="edge53" class="edge">
<title>Contents&#45;&gt;Spec</title>
<path fill="none" stroke="black" d="M7797.13,-1654.08C7475.74,-1561.37 5336.64,-944.29 5019.68,-852.86"/>
<polygon fill="black" stroke="black" points="5020.58,-849.48 5010.01,-850.07 5018.64,-856.21 5020.58,-849.48"/>
</g>
<!-- Items -->
<g id="node48" class="node">
<title>Items</title>
<ellipse fill="none" stroke="#ee0000" cx="4379.64" cy="-181.67" rx="37.09" ry="18"/>
<text text-anchor="middle" x="4379.64" y="-177.97" font-family="Times,serif" font-size="14.00">Items</text>
</g>
<!-- Items&#45;&gt;LayoutObj -->
<g id="edge54" class="edge">
<title>Items&#45;&gt;LayoutObj</title>
<path fill="none" stroke="black" d="M4372.29,-199.5C4364.53,-218.29 4352.22,-248.15 4343.23,-269.94"/>
<polygon fill="black" stroke="black" points="4339.93,-268.74 4339.36,-279.32 4346.41,-271.41 4339.93,-268.74"/>
</g>
<!-- Depth -->
<g id="node49" class="node">
<title>Depth</title>
<ellipse fill="none" stroke="#ee0000" cx="4563.19" cy="-2201.55" rx="38.99" ry="18"/>
<text text-anchor="middle" x="4563.19" y="-2197.85" font-family="Times,serif" font-size="14.00">Depth</text>
</g>
<!-- Int -->
<g id="node50" class="node">
<title>Int</title>
<ellipse fill="none" stroke="black" cx="4701.19" cy="-2201.55" rx="27" ry="18"/>
<text text-anchor="middle" x="4701.19" y="-2197.85" font-family="Times,serif" font-size="14.00">Int</text>
</g>
<!-- Depth&#45;&gt;Int -->
<g id="edge56" class="edge">
<title>Depth&#45;&gt;Int</title>
<path fill="none" stroke="black" d="M4602.37,-2201.55C4621.73,-2201.55 4644.97,-2201.55 4664.05,-2201.55"/>
<polygon fill="black" stroke="black" points="4664.17,-2205.05 4674.17,-2201.55 4664.17,-2198.05 4664.17,-2205.05"/>
</g>
<!-- Width -->
<g id="node51" class="node">
<title>Width</title>
<ellipse fill="none" stroke="#ee0000" cx="4250.5" cy="-1889.55" rx="38.19" ry="18"/>
<text text-anchor="middle" x="4250.5" y="-1885.85" font-family="Times,serif" font-size="14.00">Width</text>
</g>
<!-- Float -->
<g id="node52" class="node">
<title>Float</title>
<ellipse fill="none" stroke="black" cx="4395.29" cy="-1889.55" rx="34.39" ry="18"/>
<text text-anchor="middle" x="4395.29" y="-1885.85" font-family="Times,serif" font-size="14.00">Float</text>
</g>
<!-- Width&#45;&gt;Float -->
<g id="edge57" class="edge">
<title>Width&#45;&gt;Float</title>
<path fill="none" stroke="black" d="M4288.92,-1889.55C4307.81,-1889.55 4330.69,-1889.55 4350.39,-1889.55"/>
<polygon fill="black" stroke="black" points="4350.65,-1893.05 4360.65,-1889.55 4350.65,-1886.05 4350.65,-1893.05"/>
</g>
<!-- Height -->
<g id="node53" class="node">
<title>Height</title>
<ellipse fill="none" stroke="#ee0000" cx="4543.98" cy="-1889.55" rx="42.49" ry="18"/>
<text text-anchor="middle" x="4543.98" y="-1885.85" font-family="Times,serif" font-size="14.00">Height</text>
</g>
<!-- Height&#45;&gt;Float -->
<g id="edge58" class="edge">
<title>Height&#45;&gt;Float</title>
<path fill="none" stroke="black" d="M4501.37,-1889.55C4482.17,-1889.55 4459.49,-1889.55 4440.04,-1889.55"/>
<polygon fill="black" stroke="black" points="4439.9,-1886.05 4429.9,-1889.55 4439.9,-1893.05 4439.9,-1886.05"/>
</g>
<!-- Filepath -->
<g id="node54" class="node">
<title>Filepath</title>
<ellipse fill="none" stroke="#ee0000" cx="2953.52" cy="-2171.47" rx="49.29" ry="18"/>
<text text-anchor="middle" x="2953.52" y="-2167.77" font-family="Times,serif" font-size="14.00">Filepath</text>
</g>
<!-- Filepath&#45;&gt;String -->
<g id="edge59" class="edge">
<title>Filepath&#45;&gt;String</title>
<path fill="none" stroke="black" d="M2971.77,-2154.55C3097.37,-2038.06 3833.42,-1355.46 3979.41,-1220.08"/>
<polygon fill="black" stroke="black" points="3982.09,-1222.36 3987.05,-1212.99 3977.33,-1217.23 3982.09,-1222.36"/>
</g>
<!-- MathContext -->
<g id="node58" class="node">
<title>MathContext</title>
<ellipse fill="none" stroke="darkviolet" cx="4283.19" cy="-2201.55" rx="71.49" ry="18"/>
<text text-anchor="middle" x="4283.19" y="-2197.85" font-family="Times,serif" font-size="14.00">MathContext</text>
</g>
<!-- Latex -->
<g id="node59" class="node">
<title>Latex</title>
<ellipse fill="none" stroke="darkgreen" cx="2852.6" cy="-2050.22" rx="36.29" ry="18"/>
<text text-anchor="middle" x="2852.6" y="-2046.52" font-family="Times,serif" font-size="14.00">Latex</text>
</g>
<!-- Latex&#45;&gt;String -->
<g id="edge65" class="edge">
<title>Latex&#45;&gt;String</title>
<path fill="none" stroke="black" d="M2873.08,-2035.05C3011.72,-1932.33 3812.11,-1339.34 3975.46,-1218.31"/>
<polygon fill="black" stroke="black" points="3977.66,-1221.04 3983.61,-1212.27 3973.49,-1215.41 3977.66,-1221.04"/>
</g>
<!-- D -->
<g id="node60" class="node">
<title>D</title>
<ellipse fill="none" stroke="#ee0000" cx="4523.83" cy="-1385.74" rx="27" ry="18"/>
<text text-anchor="middle" x="4523.83" y="-1382.04" font-family="Times,serif" font-size="14.00">D</text>
</g>
<!-- D&#45;&gt;Doc -->
<g id="edge66" class="edge">
<title>D&#45;&gt;Doc</title>
<path fill="none" stroke="black" d="M4547.78,-1377.02C4579.04,-1365.64 4633.98,-1345.65 4669.72,-1332.64"/>
<polygon fill="black" stroke="black" points="4671.05,-1335.88 4679.25,-1329.17 4668.66,-1329.3 4671.05,-1335.88"/>
</g>
<!-- Package -->
<g id="node61" class="node">
<title>Package</title>
<ellipse fill="none" stroke="darkviolet" cx="3169.19" cy="-1577.55" rx="48.99" ry="18"/>
<text text-anchor="middle" x="3169.19" y="-1573.85" font-family="Times,serif" font-size="14.00">Package</text>
</g>
<!-- Def -->
<g id="node62" class="node">
<title>Def</title>
<ellipse fill="none" stroke="darkviolet" cx="5175.19" cy="-1733.55" rx="27" ry="18"/>
<text text-anchor="middle" x="5175.19" y="-1729.85" font-family="Times,serif" font-size="14.00">Def</text>
</g>
<!-- FieldWrap -->
<g id="node63" class="node">
<title>FieldWrap</title>
<ellipse fill="none" stroke="darkviolet" cx="4331.92" cy="-1385.74" rx="58.49" ry="18"/>
<text text-anchor="middle" x="4331.92" y="-1382.04" font-family="Times,serif" font-size="14.00">FieldWrap</text>
</g>
<!-- FieldWrap&#45;&gt;String -->
<g id="edge68" class="edge">
<title>FieldWrap&#45;&gt;String</title>
<path fill="none" stroke="black" d="M4304.29,-1369.79C4244.5,-1335.27 4103.25,-1253.72 4038.31,-1216.22"/>
<polygon fill="black" stroke="black" points="4039.71,-1212.99 4029.3,-1211.02 4036.21,-1219.05 4039.71,-1212.99"/>
</g>
<!-- FieldWrap&#45;&gt;Spec -->
<g id="edge70" class="edge">
<title>FieldWrap&#45;&gt;Spec</title>
<path fill="none" stroke="black" d="M4352.4,-1368.55C4447.77,-1288.53 4848.22,-952.51 4954.48,-863.35"/>
<polygon fill="black" stroke="black" points="4956.77,-866 4962.18,-856.89 4952.27,-860.64 4956.77,-866"/>
</g>
<!-- FieldWrap&#45;&gt;D -->
<g id="edge71" class="edge">
<title>FieldWrap&#45;&gt;D</title>
<path fill="none" stroke="black" d="M4390.54,-1385.74C4421.78,-1385.74 4459.27,-1385.74 4486.52,-1385.74"/>
<polygon fill="black" stroke="black" points="4486.79,-1389.24 4496.79,-1385.74 4486.79,-1382.24 4486.79,-1389.24"/>
</g>
<!-- FieldWrap&#45;&gt;FieldWrap -->
<g id="edge69" class="edge">
<title>FieldWrap&#45;&gt;FieldWrap</title>
<path fill="none" stroke="black" d="M4386.58,-1392.34C4399.17,-1391.77 4408.41,-1389.57 4408.41,-1385.74 4408.41,-1383.05 4403.84,-1381.16 4396.75,-1380.08"/>
<polygon fill="black" stroke="black" points="4396.86,-1376.57 4386.58,-1379.14 4396.22,-1383.54 4396.86,-1376.57"/>
</g>
<!-- StyleGuide -->
<g id="node64" class="node">
<title>StyleGuide</title>
<ellipse fill="none" stroke="darkviolet" cx="2754.93" cy="-1910.97" rx="61.99" ry="18"/>
<text text-anchor="middle" x="2754.93" y="-1907.27" font-family="Times,serif" font-size="14.00">StyleGuide</text>
</g>
<!-- StyleGuide&#45;&gt;String -->
<g id="edge73" class="edge">
<title>StyleGuide&#45;&gt;String</title>
<path fill="none" stroke="black" d="M2783.08,-1894.88C2948.32,-1800.44 3791.04,-1318.79 3970.81,-1216.04"/>
<polygon fill="black" stroke="black" points="3972.63,-1219.03 3979.57,-1211.03 3969.16,-1212.95 3972.63,-1219.03"/>
</g>
<!-- StyleGuide&#45;&gt;StyleGuide -->
<g id="edge72" class="edge">
<title>StyleGuide&#45;&gt;StyleGuide</title>
<path fill="none" stroke="black" d="M2812.64,-1917.54C2825.39,-1916.92 2834.68,-1914.73 2834.68,-1910.97 2834.68,-1908.32 2830.09,-1906.46 2822.93,-1905.37"/>
<polygon fill="black" stroke="black" points="2822.92,-1901.85 2812.64,-1904.4 2822.27,-1908.82 2822.92,-1901.85"/>
</g>
<!-- Format -->
<g id="node65" class="node">
<title>Format</title>
<ellipse fill="none" stroke="darkviolet" cx="5192.19" cy="-2357.55" rx="44.39" ry="18"/>
<text text-anchor="middle" x="5192.19" y="-2353.85" font-family="Times,serif" font-size="14.00">Format</text>
</g>
</g>
</svg>
