<?xml version="1.0" encoding="UTF-8" standalone="no"?>
<!DOCTYPE svg PUBLIC "-//W3C//DTD SVG 1.1//EN"
 "http://www.w3.org/Graphics/SVG/1.1/DTD/svg11.dtd">
<!-- Generated by graphviz version 2.43.0 (0)
 -->
<!-- Title: alltypes Pages: 1 -->
<svg width="2166pt" height="1084pt"
 viewBox="0.00 0.00 2165.86 1084.37" xmlns="http://www.w3.org/2000/svg" xmlns:xlink="http://www.w3.org/1999/xlink">
<g id="graph0" class="graph" transform="scale(1 1) rotate(0) translate(4 1080.37)">
<title>alltypes</title>
<polygon fill="white" stroke="transparent" points="-4,4 -4,-1080.37 2161.86,-1080.37 2161.86,4 -4,4"/>
<!-- VarOrFunc -->
<g id="node1" class="node">
<title>VarOrFunc</title>
<ellipse fill="none" stroke="#00cdcd" cx="1340.8" cy="-1058" rx="61.19" ry="18"/>
<text text-anchor="middle" x="1340.8" y="-1054.3" font-family="Times,serif" font-size="14.00">VarOrFunc</text>
</g>
<!-- VarOrFunc&#45;&gt;VarOrFunc -->
<g id="edge2" class="edge">
<title>VarOrFunc&#45;&gt;VarOrFunc</title>
<path fill="none" stroke="black" d="M1397.68,-1064.59C1410.51,-1063.99 1419.9,-1061.8 1419.9,-1058 1419.9,-1055.33 1415.26,-1053.45 1408.04,-1052.37"/>
<polygon fill="black" stroke="black" points="1407.96,-1048.84 1397.68,-1051.41 1407.32,-1055.82 1407.96,-1048.84"/>
</g>
<!-- QuantityDict -->
<g id="node2" class="node">
<title>QuantityDict</title>
<ellipse fill="none" stroke="black" cx="1544.09" cy="-1058" rx="70.39" ry="18"/>
<text text-anchor="middle" x="1544.09" y="-1054.3" font-family="Times,serif" font-size="14.00">QuantityDict</text>
</g>
<!-- VarOrFunc&#45;&gt;QuantityDict -->
<g id="edge1" class="edge">
<title>VarOrFunc&#45;&gt;QuantityDict</title>
<path fill="none" stroke="black" d="M1402.07,-1058C1421.37,-1058 1442.99,-1058 1463.43,-1058"/>
<polygon fill="black" stroke="black" points="1463.67,-1061.5 1473.67,-1058 1463.67,-1054.5 1463.67,-1061.5"/>
</g>
<!-- CodeVarChunk -->
<g id="node3" class="node">
<title>CodeVarChunk</title>
<ellipse fill="none" stroke="#00cdcd" cx="1633" cy="-18" rx="79.09" ry="18"/>
<text text-anchor="middle" x="1633" y="-14.3" font-family="Times,serif" font-size="14.00">CodeVarChunk</text>
</g>
<!-- CodeChunk -->
<g id="node4" class="node">
<title>CodeChunk</title>
<ellipse fill="none" stroke="black" cx="1847.98" cy="-18" rx="63.89" ry="18"/>
<text text-anchor="middle" x="1847.98" y="-14.3" font-family="Times,serif" font-size="14.00">CodeChunk</text>
</g>
<!-- CodeVarChunk&#45;&gt;CodeChunk -->
<g id="edge3" class="edge">
<title>CodeVarChunk&#45;&gt;CodeChunk</title>
<path fill="none" stroke="black" d="M1712.44,-18C1732.5,-18 1753.97,-18 1773.77,-18"/>
<polygon fill="black" stroke="black" points="1773.95,-21.5 1783.95,-18 1773.95,-14.5 1773.95,-21.5"/>
</g>
<!-- MaybeCodeChunk -->
<g id="node5" class="node">
<title>MaybeCodeChunk</title>
<ellipse fill="none" stroke="black" cx="1294.92" cy="-18" rx="94.78" ry="18"/>
<text text-anchor="middle" x="1294.92" y="-14.3" font-family="Times,serif" font-size="14.00">MaybeCodeChunk</text>
</g>
<!-- CodeVarChunk&#45;&gt;MaybeCodeChunk -->
<g id="edge4" class="edge">
<title>CodeVarChunk&#45;&gt;MaybeCodeChunk</title>
<path fill="none" stroke="black" d="M1553.3,-18C1507.55,-18 1449.55,-18 1400.1,-18"/>
<polygon fill="black" stroke="black" points="1400,-14.5 1390,-18 1400,-21.5 1400,-14.5"/>
</g>
<!-- CodeFuncChunk -->
<g id="node6" class="node">
<title>CodeFuncChunk</title>
<ellipse fill="none" stroke="darkgreen" cx="2070.77" cy="-18" rx="87.18" ry="18"/>
<text text-anchor="middle" x="2070.77" y="-14.3" font-family="Times,serif" font-size="14.00">CodeFuncChunk</text>
</g>
<!-- CodeFuncChunk&#45;&gt;CodeChunk -->
<g id="edge5" class="edge">
<title>CodeFuncChunk&#45;&gt;CodeChunk</title>
<path fill="none" stroke="black" d="M1983.68,-18C1963.31,-18 1941.8,-18 1922.06,-18"/>
<polygon fill="black" stroke="black" points="1921.91,-14.5 1911.91,-18 1921.91,-21.5 1921.91,-14.5"/>
</g>
<!-- ArithBinOp -->
<g id="node7" class="node">
<title>ArithBinOp</title>
<ellipse fill="none" stroke="darkviolet" cx="63.04" cy="-539" rx="63.09" ry="18"/>
<text text-anchor="middle" x="63.04" y="-535.3" font-family="Times,serif" font-size="14.00">ArithBinOp</text>
</g>
<!-- EqBinOp -->
<g id="node8" class="node">
<title>EqBinOp</title>
<ellipse fill="none" stroke="darkviolet" cx="314.76" cy="-443.74" rx="51.99" ry="18"/>
<text text-anchor="middle" x="314.76" y="-440.04" font-family="Times,serif" font-size="14.00">EqBinOp</text>
</g>
<!-- BoolBinOp -->
<g id="node9" class="node">
<title>BoolBinOp</title>
<ellipse fill="none" stroke="darkviolet" cx="379.21" cy="-272.64" rx="59.59" ry="18"/>
<text text-anchor="middle" x="379.21" y="-268.94" font-family="Times,serif" font-size="14.00">BoolBinOp</text>
</g>
<!-- LABinOp -->
<g id="node10" class="node">
<title>LABinOp</title>
<ellipse fill="none" stroke="darkviolet" cx="498.79" cy="-134.33" rx="51.99" ry="18"/>
<text text-anchor="middle" x="498.79" y="-130.63" font-family="Times,serif" font-size="14.00">LABinOp</text>
</g>
<!-- OrdBinOp -->
<g id="node11" class="node">
<title>OrdBinOp</title>
<ellipse fill="none" stroke="darkviolet" cx="656.34" cy="-46.7" rx="57.39" ry="18"/>
<text text-anchor="middle" x="656.34" y="-43" font-family="Times,serif" font-size="14.00">OrdBinOp</text>
</g>
<!-- VVVBinOp -->
<g id="node12" class="node">
<title>VVVBinOp</title>
<ellipse fill="none" stroke="darkviolet" cx="840.81" cy="-18.12" rx="58.49" ry="18"/>
<text text-anchor="middle" x="840.81" y="-14.42" font-family="Times,serif" font-size="14.00">VVVBinOp</text>
</g>
<!-- VVNBinOp -->
<g id="node13" class="node">
<title>VVNBinOp</title>
<ellipse fill="none" stroke="darkviolet" cx="1025.93" cy="-57.39" rx="59.59" ry="18"/>
<text text-anchor="middle" x="1025.93" y="-53.69" font-family="Times,serif" font-size="14.00">VVNBinOp</text>
</g>
<!-- AssocArithOper -->
<g id="node14" class="node">
<title>AssocArithOper</title>
<ellipse fill="none" stroke="darkviolet" cx="1202.36" cy="-177.56" rx="83.39" ry="18"/>
<text text-anchor="middle" x="1202.36" y="-173.86" font-family="Times,serif" font-size="14.00">AssocArithOper</text>
</g>
<!-- AssocBoolOper -->
<g id="node15" class="node">
<title>AssocBoolOper</title>
<ellipse fill="none" stroke="darkviolet" cx="1322.61" cy="-378.03" rx="80.69" ry="18"/>
<text text-anchor="middle" x="1322.61" y="-374.33" font-family="Times,serif" font-size="14.00">AssocBoolOper</text>
</g>
<!-- UFunc -->
<g id="node16" class="node">
<title>UFunc</title>
<ellipse fill="none" stroke="darkviolet" cx="1347.2" cy="-569.53" rx="41.69" ry="18"/>
<text text-anchor="middle" x="1347.2" y="-565.83" font-family="Times,serif" font-size="14.00">UFunc</text>
</g>
<!-- UFuncB -->
<g id="node17" class="node">
<title>UFuncB</title>
<ellipse fill="none" stroke="darkviolet" cx="1313.04" cy="-726.91" rx="48.19" ry="18"/>
<text text-anchor="middle" x="1313.04" y="-723.21" font-family="Times,serif" font-size="14.00">UFuncB</text>
</g>
<!-- UFuncVV -->
<g id="node18" class="node">
<title>UFuncVV</title>
<ellipse fill="none" stroke="darkviolet" cx="1224.58" cy="-875.85" rx="53.89" ry="18"/>
<text text-anchor="middle" x="1224.58" y="-872.15" font-family="Times,serif" font-size="14.00">UFuncVV</text>
</g>
<!-- UFuncVN -->
<g id="node19" class="node">
<title>UFuncVN</title>
<ellipse fill="none" stroke="darkviolet" cx="1085.43" cy="-991.48" rx="55.79" ry="18"/>
<text text-anchor="middle" x="1085.43" y="-987.78" font-family="Times,serif" font-size="14.00">UFuncVN</text>
</g>
<!-- CodeExpr -->
<g id="node20" class="node">
<title>CodeExpr</title>
<ellipse fill="none" stroke="darkviolet" cx="827.04" cy="-539" rx="56.59" ry="18"/>
<text text-anchor="middle" x="827.04" y="-535.3" font-family="Times,serif" font-size="14.00">CodeExpr</text>
</g>
<!-- CodeExpr&#45;&gt;ArithBinOp -->
<g id="edge16" class="edge">
<title>CodeExpr&#45;&gt;ArithBinOp</title>
<path fill="none" stroke="black" d="M770.24,-539C633.92,-539 288.31,-539 136.49,-539"/>
<polygon fill="black" stroke="black" points="136.33,-535.5 126.33,-539 136.33,-542.5 136.33,-535.5"/>
</g>
<!-- CodeExpr&#45;&gt;EqBinOp -->
<g id="edge18" class="edge">
<title>CodeExpr&#45;&gt;EqBinOp</title>
<path fill="none" stroke="black" d="M777.92,-529.87C682.29,-512.08 471.65,-472.92 370.76,-454.16"/>
<polygon fill="black" stroke="black" points="371.24,-450.69 360.77,-452.3 369.96,-457.57 371.24,-450.69"/>
</g>
<!-- CodeExpr&#45;&gt;BoolBinOp -->
<g id="edge17" class="edge">
<title>CodeExpr&#45;&gt;BoolBinOp</title>
<path fill="none" stroke="black" d="M800.03,-522.94C722.96,-477.1 501.92,-345.63 414.96,-293.91"/>
<polygon fill="black" stroke="black" points="416.63,-290.83 406.25,-288.72 413.05,-296.84 416.63,-290.83"/>
</g>
<!-- CodeExpr&#45;&gt;LABinOp -->
<g id="edge19" class="edge">
<title>CodeExpr&#45;&gt;LABinOp</title>
<path fill="none" stroke="black" d="M812.72,-521.35C760.68,-457.19 581.37,-236.13 519.77,-160.19"/>
<polygon fill="black" stroke="black" points="522.2,-157.63 513.18,-152.07 516.76,-162.04 522.2,-157.63"/>
</g>
<!-- CodeExpr&#45;&gt;OrdBinOp -->
<g id="edge20" class="edge">
<title>CodeExpr&#45;&gt;OrdBinOp</title>
<path fill="none" stroke="black" d="M820.76,-520.89C794.96,-446.48 696.97,-163.89 665.87,-74.19"/>
<polygon fill="black" stroke="black" points="669.16,-73.01 662.58,-64.7 662.55,-75.3 669.16,-73.01"/>
</g>
<!-- CodeExpr&#45;&gt;VVVBinOp -->
<g id="edge21" class="edge">
<title>CodeExpr&#45;&gt;VVVBinOp</title>
<path fill="none" stroke="black" d="M827.52,-520.77C829.57,-443.26 837.57,-140.79 840.07,-46.41"/>
<polygon fill="black" stroke="black" points="843.57,-46.3 840.34,-36.21 836.57,-46.11 843.57,-46.3"/>
</g>
<!-- CodeExpr&#45;&gt;VVNBinOp -->
<g id="edge22" class="edge">
<title>CodeExpr&#45;&gt;VVNBinOp</title>
<path fill="none" stroke="black" d="M834.47,-521C864.66,-447.91 978.17,-173.05 1014.6,-84.83"/>
<polygon fill="black" stroke="black" points="1017.87,-86.06 1018.46,-75.48 1011.4,-83.39 1017.87,-86.06"/>
</g>
<!-- CodeExpr&#45;&gt;AssocArithOper -->
<g id="edge8" class="edge">
<title>CodeExpr&#45;&gt;AssocArithOper</title>
<path fill="none" stroke="black" d="M845.14,-521.57C906.32,-462.65 1105.49,-270.84 1176.73,-202.24"/>
<polygon fill="black" stroke="black" points="1179.22,-204.7 1184,-195.24 1174.37,-199.66 1179.22,-204.7"/>
</g>
<!-- CodeExpr&#45;&gt;AssocBoolOper -->
<g id="edge9" class="edge">
<title>CodeExpr&#45;&gt;AssocBoolOper</title>
<path fill="none" stroke="black" d="M866.76,-526.1C954.67,-497.55 1165.9,-428.94 1266.94,-396.12"/>
<polygon fill="black" stroke="black" points="1268.23,-399.38 1276.66,-392.96 1266.07,-392.72 1268.23,-399.38"/>
</g>
<!-- CodeExpr&#45;&gt;UFunc -->
<g id="edge12" class="edge">
<title>CodeExpr&#45;&gt;UFunc</title>
<path fill="none" stroke="black" d="M882.71,-542.27C984.08,-548.22 1197.4,-560.74 1295.66,-566.5"/>
<polygon fill="black" stroke="black" points="1295.46,-570 1305.65,-567.09 1295.87,-563.01 1295.46,-570"/>
</g>
<!-- CodeExpr&#45;&gt;UFuncB -->
<g id="edge13" class="edge">
<title>CodeExpr&#45;&gt;UFuncB</title>
<path fill="none" stroke="black" d="M863.17,-552.97C950.92,-586.9 1174.99,-673.53 1269.72,-710.16"/>
<polygon fill="black" stroke="black" points="1268.68,-713.51 1279.27,-713.85 1271.21,-706.98 1268.68,-713.51"/>
</g>
<!-- CodeExpr&#45;&gt;UFuncVV -->
<g id="edge14" class="edge">
<title>CodeExpr&#45;&gt;UFuncVV</title>
<path fill="none" stroke="black" d="M847.03,-555.94C912.65,-611.54 1121.64,-788.63 1197.08,-852.56"/>
<polygon fill="black" stroke="black" points="1194.89,-855.29 1204.79,-859.08 1199.42,-849.95 1194.89,-855.29"/>
</g>
<!-- CodeExpr&#45;&gt;UFuncVN -->
<g id="edge15" class="edge">
<title>CodeExpr&#45;&gt;UFuncVN</title>
<path fill="none" stroke="black" d="M837.17,-556.74C876.88,-626.28 1022.11,-880.6 1070,-964.46"/>
<polygon fill="black" stroke="black" points="1067.09,-966.43 1075.09,-973.37 1073.17,-962.95 1067.09,-966.43"/>
</g>
<!-- CodeExpr&#45;&gt;CodeExpr -->
<g id="edge7" class="edge">
<title>CodeExpr&#45;&gt;CodeExpr</title>
<path fill="none" stroke="black" d="M879.63,-545.63C892.24,-545.11 901.58,-542.9 901.58,-539 901.58,-536.26 896.97,-534.35 889.84,-533.28"/>
<polygon fill="black" stroke="black" points="889.9,-529.77 879.63,-532.37 889.28,-536.74 889.9,-529.77"/>
</g>
<!-- Literal -->
<g id="node21" class="node">
<title>Literal</title>
<ellipse fill="none" stroke="black" cx="927.28" cy="-1050.33" rx="41.69" ry="18"/>
<text text-anchor="middle" x="927.28" y="-1046.63" font-family="Times,serif" font-size="14.00">Literal</text>
</g>
<!-- CodeExpr&#45;&gt;Literal -->
<g id="edge6" class="edge">
<title>CodeExpr&#45;&gt;Literal</title>
<path fill="none" stroke="black" d="M830.61,-557.2C845.6,-633.69 903.59,-929.49 921.78,-1022.3"/>
<polygon fill="black" stroke="black" points="918.4,-1023.21 923.75,-1032.35 925.26,-1021.86 918.4,-1023.21"/>
</g>
<!-- UID -->
<g id="node22" class="node">
<title>UID</title>
<ellipse fill="none" stroke="black" cx="785.11" cy="-1058.37" rx="29.5" ry="18"/>
<text text-anchor="middle" x="785.11" y="-1054.67" font-family="Times,serif" font-size="14.00">UID</text>
</g>
<!-- CodeExpr&#45;&gt;UID -->
<g id="edge10" class="edge">
<title>CodeExpr&#45;&gt;UID</title>
<path fill="none" stroke="black" d="M825.57,-557.18C819.33,-634.46 794.98,-936.06 787.39,-1030.16"/>
<polygon fill="black" stroke="black" points="783.88,-1030.09 786.56,-1040.34 790.86,-1030.65 783.88,-1030.09"/>
</g>
<!-- Completeness -->
<g id="node23" class="node">
<title>Completeness</title>
<ellipse fill="none" stroke="black" cx="614.19" cy="-1014.6" rx="76.09" ry="18"/>
<text text-anchor="middle" x="614.19" y="-1010.9" font-family="Times,serif" font-size="14.00">Completeness</text>
</g>
<!-- CodeExpr&#45;&gt;Completeness -->
<g id="edge11" class="edge">
<title>CodeExpr&#45;&gt;Completeness</title>
<path fill="none" stroke="black" d="M818.96,-557.06C786.49,-629.6 665.47,-900.01 626.42,-987.27"/>
<polygon fill="black" stroke="black" points="623.17,-985.96 622.28,-996.52 629.56,-988.82 623.17,-985.96"/>
</g>
<!-- DiscreteDomainDesc -->
<g id="node24" class="node">
<title>DiscreteDomainDesc</title>
<ellipse fill="none" stroke="black" cx="415.03" cy="-857.98" rx="107.78" ry="18"/>
<text text-anchor="middle" x="415.03" y="-854.28" font-family="Times,serif" font-size="14.00">DiscreteDomainDesc</text>
</g>
<!-- CodeExpr&#45;&gt;DiscreteDomainDesc -->
<g id="edge23" class="edge">
<title>CodeExpr&#45;&gt;DiscreteDomainDesc</title>
<path fill="none" stroke="black" d="M805.47,-555.7C737.25,-608.51 526.01,-772.05 446.09,-833.93"/>
<polygon fill="black" stroke="black" points="443.65,-831.39 437.89,-840.28 447.94,-836.92 443.65,-831.39"/>
</g>
<!-- RealInterval -->
<g id="node25" class="node">
<title>RealInterval</title>
<ellipse fill="none" stroke="black" cx="314.76" cy="-634.26" rx="67.69" ry="18"/>
<text text-anchor="middle" x="314.76" y="-630.56" font-family="Times,serif" font-size="14.00">RealInterval</text>
</g>
<!-- CodeExpr&#45;&gt;RealInterval -->
<g id="edge24" class="edge">
<title>CodeExpr&#45;&gt;RealInterval</title>
<path fill="none" stroke="black" d="M777.92,-548.13C685.22,-565.37 484.46,-602.7 380.35,-622.06"/>
<polygon fill="black" stroke="black" points="379.47,-618.66 370.28,-623.93 380.75,-625.55 379.47,-618.66"/>
</g>
</g>
</svg>
