<?xml version="1.0" encoding="UTF-8" standalone="no"?>
<!DOCTYPE svg PUBLIC "-//W3C//DTD SVG 1.1//EN"
 "http://www.w3.org/Graphics/SVG/1.1/DTD/svg11.dtd">
<!-- Generated by graphviz version 2.43.0 (0)
 -->
<!-- Title: alltypes Pages: 1 -->
<svg width="2205pt" height="2146pt"
 viewBox="0.00 0.00 2205.07 2146.10" xmlns="http://www.w3.org/2000/svg" xmlns:xlink="http://www.w3.org/1999/xlink">
<g id="graph0" class="graph" transform="scale(1 1) rotate(0) translate(4 2142.1)">
<title>alltypes</title>
<polygon fill="white" stroke="transparent" points="-4,4 -4,-2142.1 2201.07,-2142.1 2201.07,4 -4,4"/>
<!-- ConstraintSet -->
<g id="node1" class="node">
<title>ConstraintSet</title>
<ellipse fill="none" stroke="#00cdcd" cx="1633.56" cy="-644" rx="75.29" ry="18"/>
<text text-anchor="middle" x="1633.56" y="-640.3" font-family="Times,serif" font-size="14.00">ConstraintSet</text>
</g>
<!-- ConceptChunk -->
<g id="node2" class="node">
<title>ConceptChunk</title>
<ellipse fill="none" stroke="black" cx="1513.23" cy="-421.64" rx="78.79" ry="18"/>
<text text-anchor="middle" x="1513.23" y="-417.94" font-family="Times,serif" font-size="14.00">ConceptChunk</text>
</g>
<!-- ConstraintSet&#45;&gt;ConceptChunk -->
<g id="edge1" class="edge">
<title>ConstraintSet&#45;&gt;ConceptChunk</title>
<path fill="none" stroke="black" d="M1623.71,-625.8C1602.55,-586.7 1552.64,-494.48 1527.8,-448.58"/>
<polygon fill="black" stroke="black" points="1530.88,-446.91 1523.04,-439.78 1524.72,-450.24 1530.88,-446.91"/>
</g>
<!-- NonEmptyExpr -->
<g id="node3" class="node">
<title>NonEmptyExpr</title>
<ellipse fill="none" stroke="black" cx="1780.34" cy="-593.61" rx="83.39" ry="18"/>
<text text-anchor="middle" x="1780.34" y="-589.91" font-family="Times,serif" font-size="14.00">NonEmptyExpr</text>
</g>
<!-- ConstraintSet&#45;&gt;NonEmptyExpr -->
<g id="edge2" class="edge">
<title>ConstraintSet&#45;&gt;NonEmptyExpr</title>
<path fill="none" stroke="black" d="M1676.81,-629.15C1692.21,-623.86 1709.77,-617.84 1725.99,-612.27"/>
<polygon fill="black" stroke="black" points="1727.56,-615.43 1735.88,-608.87 1725.29,-608.81 1727.56,-615.43"/>
</g>
<!-- DataDefinition -->
<g id="node4" class="node">
<title>DataDefinition</title>
<ellipse fill="none" stroke="#00cdcd" cx="1675.17" cy="-893.38" rx="77.99" ry="18"/>
<text text-anchor="middle" x="1675.17" y="-889.68" font-family="Times,serif" font-size="14.00">DataDefinition</text>
</g>
<!-- QDefinition -->
<g id="node5" class="node">
<title>QDefinition</title>
<ellipse fill="none" stroke="black" cx="149.58" cy="-1019.79" rx="63.89" ry="18"/>
<text text-anchor="middle" x="149.58" y="-1016.09" font-family="Times,serif" font-size="14.00">QDefinition</text>
</g>
<!-- DataDefinition&#45;&gt;QDefinition -->
<g id="edge3" class="edge">
<title>DataDefinition&#45;&gt;QDefinition</title>
<path fill="none" stroke="black" d="M1601.59,-899.48C1342.84,-920.92 476.7,-992.69 221.15,-1013.86"/>
<polygon fill="black" stroke="black" points="220.55,-1010.4 210.87,-1014.71 221.13,-1017.38 220.55,-1010.4"/>
</g>
<!-- ScopeType -->
<g id="node6" class="node">
<title>ScopeType</title>
<ellipse fill="none" stroke="black" cx="1808.27" cy="-893.38" rx="61.19" ry="18"/>
<text text-anchor="middle" x="1808.27" y="-889.68" font-family="Times,serif" font-size="14.00">ScopeType</text>
</g>
<!-- DataDefinition&#45;&gt;ScopeType -->
<g id="edge4" class="edge">
<title>DataDefinition&#45;&gt;ScopeType</title>
<path fill="none" stroke="black" d="M1753.37,-893.38C1753.42,-893.38 1753.48,-893.38 1753.54,-893.38"/>
<polygon fill="black" stroke="black" points="1743.71,-896.89 1753.71,-893.38 1743.7,-889.89 1743.71,-896.89"/>
</g>
<!-- DecRef -->
<g id="node7" class="node">
<title>DecRef</title>
<ellipse fill="none" stroke="black" cx="843.72" cy="-1658.79" rx="44.39" ry="18"/>
<text text-anchor="middle" x="843.72" y="-1655.09" font-family="Times,serif" font-size="14.00">DecRef</text>
</g>
<!-- DataDefinition&#45;&gt;DecRef -->
<g id="edge5" class="edge">
<title>DataDefinition&#45;&gt;DecRef</title>
<path fill="none" stroke="black" d="M1655.85,-911.17C1545.5,-1012.75 995.71,-1518.87 869.55,-1635.01"/>
<polygon fill="black" stroke="black" points="866.85,-1632.74 861.86,-1642.09 871.59,-1637.89 866.85,-1632.74"/>
</g>
<!-- MaybeDerivation -->
<g id="node8" class="node">
<title>MaybeDerivation</title>
<ellipse fill="none" stroke="black" cx="1633.56" cy="-1142.76" rx="90.98" ry="18"/>
<text text-anchor="middle" x="1633.56" y="-1139.06" font-family="Times,serif" font-size="14.00">MaybeDerivation</text>
</g>
<!-- DataDefinition&#45;&gt;MaybeDerivation -->
<g id="edge6" class="edge">
<title>DataDefinition&#45;&gt;MaybeDerivation</title>
<path fill="none" stroke="black" d="M1672.11,-911.72C1664.91,-954.88 1646.85,-1063.11 1638.25,-1114.64"/>
<polygon fill="black" stroke="black" points="1634.76,-1114.29 1636.57,-1124.73 1641.67,-1115.44 1634.76,-1114.29"/>
</g>
<!-- ShortName -->
<g id="node9" class="node">
<title>ShortName</title>
<ellipse fill="none" stroke="black" cx="1095.68" cy="-1637.91" rx="63.89" ry="18"/>
<text text-anchor="middle" x="1095.68" y="-1634.21" font-family="Times,serif" font-size="14.00">ShortName</text>
</g>
<!-- DataDefinition&#45;&gt;ShortName -->
<g id="edge7" class="edge">
<title>DataDefinition&#45;&gt;ShortName</title>
<path fill="none" stroke="black" d="M1661.14,-911.41C1583.57,-1011.07 1207.56,-1494.17 1115.88,-1611.97"/>
<polygon fill="black" stroke="black" points="1112.92,-1610.07 1109.54,-1620.11 1118.44,-1614.37 1112.92,-1610.07"/>
</g>
<!-- String -->
<g id="node10" class="node">
<title>String</title>
<ellipse fill="none" stroke="black" cx="1513.23" cy="-1365.11" rx="40.09" ry="18"/>
<text text-anchor="middle" x="1513.23" y="-1361.41" font-family="Times,serif" font-size="14.00">String</text>
</g>
<!-- DataDefinition&#45;&gt;String -->
<g id="edge8" class="edge">
<title>DataDefinition&#45;&gt;String</title>
<path fill="none" stroke="black" d="M1668.93,-911.58C1644.12,-983.83 1552.54,-1250.6 1522.7,-1337.53"/>
<polygon fill="black" stroke="black" points="1519.31,-1336.62 1519.37,-1347.22 1525.93,-1338.9 1519.31,-1336.62"/>
</g>
<!-- Sentence -->
<g id="node11" class="node">
<title>Sentence</title>
<ellipse fill="none" stroke="black" cx="386.97" cy="-1458.44" rx="53.89" ry="18"/>
<text text-anchor="middle" x="386.97" y="-1454.74" font-family="Times,serif" font-size="14.00">Sentence</text>
</g>
<!-- DataDefinition&#45;&gt;Sentence -->
<g id="edge9" class="edge">
<title>DataDefinition&#45;&gt;Sentence</title>
<path fill="none" stroke="black" d="M1638.7,-909.38C1454.38,-990.23 626.59,-1353.33 429.28,-1439.88"/>
<polygon fill="black" stroke="black" points="427.59,-1436.8 419.84,-1444.02 430.4,-1443.21 427.59,-1436.8"/>
</g>
<!-- Scope -->
<g id="node12" class="node">
<title>Scope</title>
<ellipse fill="none" stroke="darkgreen" cx="834.61" cy="-18" rx="38.19" ry="18"/>
<text text-anchor="middle" x="834.61" y="-14.3" font-family="Times,serif" font-size="14.00">Scope</text>
</g>
<!-- UID -->
<g id="node13" class="node">
<title>UID</title>
<ellipse fill="none" stroke="black" cx="843.72" cy="-127.97" rx="29.5" ry="18"/>
<text text-anchor="middle" x="843.72" y="-124.27" font-family="Times,serif" font-size="14.00">UID</text>
</g>
<!-- Scope&#45;&gt;UID -->
<g id="edge10" class="edge">
<title>Scope&#45;&gt;UID</title>
<path fill="none" stroke="black" d="M836.11,-36.16C837.54,-53.43 839.72,-79.67 841.37,-99.69"/>
<polygon fill="black" stroke="black" points="837.9,-100.11 842.21,-109.78 844.87,-99.53 837.9,-100.11"/>
</g>
<!-- GenDefn -->
<g id="node14" class="node">
<title>GenDefn</title>
<ellipse fill="none" stroke="#00cdcd" cx="1327.22" cy="-1536.35" rx="51.19" ry="18"/>
<text text-anchor="middle" x="1327.22" y="-1532.65" font-family="Times,serif" font-size="14.00">GenDefn</text>
</g>
<!-- GenDefn&#45;&gt;DecRef -->
<g id="edge14" class="edge">
<title>GenDefn&#45;&gt;DecRef</title>
<path fill="none" stroke="black" d="M1285.57,-1546.9C1196.07,-1569.56 985.81,-1622.81 891.25,-1646.75"/>
<polygon fill="black" stroke="black" points="890.23,-1643.4 881.39,-1649.25 891.94,-1650.19 890.23,-1643.4"/>
</g>
<!-- GenDefn&#45;&gt;MaybeDerivation -->
<g id="edge13" class="edge">
<title>GenDefn&#45;&gt;MaybeDerivation</title>
<path fill="none" stroke="black" d="M1340.77,-1518.93C1389.39,-1456.47 1555.13,-1243.53 1613.23,-1168.87"/>
<polygon fill="black" stroke="black" points="1616.08,-1170.92 1619.46,-1160.88 1610.56,-1166.62 1616.08,-1170.92"/>
</g>
<!-- GenDefn&#45;&gt;ShortName -->
<g id="edge15" class="edge">
<title>GenDefn&#45;&gt;ShortName</title>
<path fill="none" stroke="black" d="M1295.02,-1550.47C1254.54,-1568.23 1184.85,-1598.8 1139.53,-1618.68"/>
<polygon fill="black" stroke="black" points="1138,-1615.53 1130.24,-1622.75 1140.81,-1621.94 1138,-1615.53"/>
</g>
<!-- GenDefn&#45;&gt;String -->
<g id="edge16" class="edge">
<title>GenDefn&#45;&gt;String</title>
<path fill="none" stroke="black" d="M1345.73,-1519.31C1379.28,-1488.43 1450.13,-1423.2 1488.04,-1388.3"/>
<polygon fill="black" stroke="black" points="1490.62,-1390.69 1495.61,-1381.34 1485.88,-1385.54 1490.62,-1390.69"/>
</g>
<!-- GenDefn&#45;&gt;Sentence -->
<g id="edge17" class="edge">
<title>GenDefn&#45;&gt;Sentence</title>
<path fill="none" stroke="black" d="M1277,-1532.19C1117.86,-1519 624.97,-1478.16 449.65,-1463.63"/>
<polygon fill="black" stroke="black" points="449.81,-1460.14 439.56,-1462.8 449.24,-1467.11 449.81,-1460.14"/>
</g>
<!-- ModelKind -->
<g id="node15" class="node">
<title>ModelKind</title>
<ellipse fill="none" stroke="#00cdcd" cx="1095.68" cy="-148.85" rx="61.19" ry="18"/>
<text text-anchor="middle" x="1095.68" y="-145.15" font-family="Times,serif" font-size="14.00">ModelKind</text>
</g>
<!-- GenDefn&#45;&gt;ModelKind -->
<g id="edge11" class="edge">
<title>GenDefn&#45;&gt;ModelKind</title>
<path fill="none" stroke="black" d="M1324.2,-1518.3C1299.53,-1370.44 1130.83,-359.48 1100.39,-177.04"/>
<polygon fill="black" stroke="black" points="1103.79,-176.19 1098.7,-166.91 1096.89,-177.35 1103.79,-176.19"/>
</g>
<!-- MaybeUnitDefn -->
<g id="node16" class="node">
<title>MaybeUnitDefn</title>
<ellipse fill="none" stroke="black" cx="1412.81" cy="-1667.36" rx="84.49" ry="18"/>
<text text-anchor="middle" x="1412.81" y="-1663.66" font-family="Times,serif" font-size="14.00">MaybeUnitDefn</text>
</g>
<!-- GenDefn&#45;&gt;MaybeUnitDefn -->
<g id="edge12" class="edge">
<title>GenDefn&#45;&gt;MaybeUnitDefn</title>
<path fill="none" stroke="black" d="M1338.76,-1554.02C1353.29,-1576.26 1378.39,-1614.68 1395.29,-1640.55"/>
<polygon fill="black" stroke="black" points="1392.5,-1642.67 1400.9,-1649.13 1398.36,-1638.85 1392.5,-1642.67"/>
</g>
<!-- ModelKind&#45;&gt;UID -->
<g id="edge31" class="edge">
<title>ModelKind&#45;&gt;UID</title>
<path fill="none" stroke="black" d="M1036.61,-143.95C989.24,-140.03 924.1,-134.63 882.95,-131.22"/>
<polygon fill="black" stroke="black" points="883.03,-127.72 872.78,-130.38 882.45,-134.69 883.03,-127.72"/>
</g>
<!-- ModelKinds -->
<g id="node25" class="node">
<title>ModelKinds</title>
<ellipse fill="none" stroke="darkviolet" cx="1327.22" cy="-250.41" rx="65.79" ry="18"/>
<text text-anchor="middle" x="1327.22" y="-246.71" font-family="Times,serif" font-size="14.00">ModelKinds</text>
</g>
<!-- ModelKind&#45;&gt;ModelKinds -->
<g id="edge30" class="edge">
<title>ModelKind&#45;&gt;ModelKinds</title>
<path fill="none" stroke="black" d="M1129.85,-163.83C1170.39,-181.62 1238.12,-211.33 1282.73,-230.89"/>
<polygon fill="black" stroke="black" points="1281.59,-234.22 1292.15,-235.03 1284.4,-227.81 1281.59,-234.22"/>
</g>
<!-- NP -->
<g id="node26" class="node">
<title>NP</title>
<ellipse fill="none" stroke="black" cx="1119.99" cy="-52.88" rx="27" ry="18"/>
<text text-anchor="middle" x="1119.99" y="-49.18" font-family="Times,serif" font-size="14.00">NP</text>
</g>
<!-- ModelKind&#45;&gt;NP -->
<g id="edge32" class="edge">
<title>ModelKind&#45;&gt;NP</title>
<path fill="none" stroke="black" d="M1100.25,-130.8C1103.82,-116.72 1108.83,-96.93 1112.91,-80.81"/>
<polygon fill="black" stroke="black" points="1116.37,-81.4 1115.44,-70.85 1109.59,-79.68 1116.37,-81.4"/>
</g>
<!-- InstanceModel -->
<g id="node17" class="node">
<title>InstanceModel</title>
<ellipse fill="none" stroke="#00cdcd" cx="598.63" cy="-1596.72" rx="79.09" ry="18"/>
<text text-anchor="middle" x="598.63" y="-1593.02" font-family="Times,serif" font-size="14.00">InstanceModel</text>
</g>
<!-- InstanceModel&#45;&gt;DecRef -->
<g id="edge21" class="edge">
<title>InstanceModel&#45;&gt;DecRef</title>
<path fill="none" stroke="black" d="M651.81,-1610.19C694.73,-1621.06 754.58,-1636.22 795.98,-1646.7"/>
<polygon fill="black" stroke="black" points="795.27,-1650.13 805.82,-1649.19 796.99,-1643.34 795.27,-1650.13"/>
</g>
<!-- InstanceModel&#45;&gt;MaybeDerivation -->
<g id="edge22" class="edge">
<title>InstanceModel&#45;&gt;MaybeDerivation</title>
<path fill="none" stroke="black" d="M635.16,-1580.7C792.35,-1511.75 1411.1,-1240.34 1586.8,-1163.27"/>
<polygon fill="black" stroke="black" points="1588.3,-1166.44 1596.05,-1159.21 1585.48,-1160.03 1588.3,-1166.44"/>
</g>
<!-- InstanceModel&#45;&gt;ShortName -->
<g id="edge23" class="edge">
<title>InstanceModel&#45;&gt;ShortName</title>
<path fill="none" stroke="black" d="M673.31,-1602.91C768.13,-1610.77 930.6,-1624.23 1023.98,-1631.97"/>
<polygon fill="black" stroke="black" points="1023.93,-1635.48 1034.19,-1632.81 1024.51,-1628.5 1023.93,-1635.48"/>
</g>
<!-- InstanceModel&#45;&gt;String -->
<g id="edge24" class="edge">
<title>InstanceModel&#45;&gt;String</title>
<path fill="none" stroke="black" d="M651.75,-1583.27C816.11,-1541.65 1314.42,-1415.46 1467.81,-1376.62"/>
<polygon fill="black" stroke="black" points="1468.99,-1379.93 1477.82,-1374.08 1467.27,-1373.14 1468.99,-1379.93"/>
</g>
<!-- InstanceModel&#45;&gt;Sentence -->
<g id="edge25" class="edge">
<title>InstanceModel&#45;&gt;Sentence</title>
<path fill="none" stroke="black" d="M572.25,-1579.49C533.76,-1554.34 462.24,-1507.62 420.2,-1480.15"/>
<polygon fill="black" stroke="black" points="421.99,-1477.14 411.7,-1474.6 418.16,-1483 421.99,-1477.14"/>
</g>
<!-- InstanceModel&#45;&gt;ModelKind -->
<g id="edge18" class="edge">
<title>InstanceModel&#45;&gt;ModelKind</title>
<path fill="none" stroke="black" d="M604.82,-1578.68C656.99,-1426.72 1022.62,-361.67 1086.25,-176.32"/>
<polygon fill="black" stroke="black" points="1089.6,-177.36 1089.53,-166.76 1082.97,-175.09 1089.6,-177.36"/>
</g>
<!-- Inputs -->
<g id="node18" class="node">
<title>Inputs</title>
<ellipse fill="none" stroke="#ee0000" cx="553.52" cy="-1699.56" rx="40.09" ry="18"/>
<text text-anchor="middle" x="553.52" y="-1695.86" font-family="Times,serif" font-size="14.00">Inputs</text>
</g>
<!-- InstanceModel&#45;&gt;Inputs -->
<g id="edge19" class="edge">
<title>InstanceModel&#45;&gt;Inputs</title>
<path fill="none" stroke="black" d="M590.77,-1614.64C583.75,-1630.64 573.37,-1654.3 565.35,-1672.59"/>
<polygon fill="black" stroke="black" points="562.1,-1671.29 561.29,-1681.85 568.51,-1674.1 562.1,-1671.29"/>
</g>
<!-- Output -->
<g id="node19" class="node">
<title>Output</title>
<ellipse fill="none" stroke="#ee0000" cx="149.58" cy="-766.97" rx="43.59" ry="18"/>
<text text-anchor="middle" x="149.58" y="-763.27" font-family="Times,serif" font-size="14.00">Output</text>
</g>
<!-- InstanceModel&#45;&gt;Output -->
<g id="edge20" class="edge">
<title>InstanceModel&#45;&gt;Output</title>
<path fill="none" stroke="black" d="M588.83,-1578.62C530.9,-1471.57 233.31,-921.68 164.02,-793.64"/>
<polygon fill="black" stroke="black" points="167.09,-791.96 159.25,-784.83 160.93,-795.29 167.09,-791.96"/>
</g>
<!-- Input -->
<g id="node20" class="node">
<title>Input</title>
<ellipse fill="none" stroke="#ee0000" cx="494.05" cy="-1835.14" rx="36" ry="18"/>
<text text-anchor="middle" x="494.05" y="-1831.44" font-family="Times,serif" font-size="14.00">Input</text>
</g>
<!-- Inputs&#45;&gt;Input -->
<g id="edge27" class="edge">
<title>Inputs&#45;&gt;Input</title>
<path fill="none" stroke="black" d="M545.74,-1717.29C535.59,-1740.43 517.73,-1781.15 505.89,-1808.14"/>
<polygon fill="black" stroke="black" points="502.64,-1806.84 501.83,-1817.41 509.05,-1809.66 502.64,-1806.84"/>
</g>
<!-- QuantityDict -->
<g id="node22" class="node">
<title>QuantityDict</title>
<ellipse fill="none" stroke="black" cx="231.68" cy="-527.84" rx="70.39" ry="18"/>
<text text-anchor="middle" x="231.68" y="-524.14" font-family="Times,serif" font-size="14.00">QuantityDict</text>
</g>
<!-- Output&#45;&gt;QuantityDict -->
<g id="edge28" class="edge">
<title>Output&#45;&gt;QuantityDict</title>
<path fill="none" stroke="black" d="M155.75,-748.99C169.96,-707.62 205.05,-605.4 222.09,-555.77"/>
<polygon fill="black" stroke="black" points="225.5,-556.61 225.44,-546.02 218.88,-554.34 225.5,-556.61"/>
</g>
<!-- QuantityDictMaybeRealIntervalExprExpr -->
<g id="node21" class="node">
<title>QuantityDictMaybeRealIntervalExprExpr</title>
<ellipse fill="none" stroke="black" cx="369.05" cy="-2120.1" rx="203.36" ry="18"/>
<text text-anchor="middle" x="369.05" y="-2116.4" font-family="Times,serif" font-size="14.00">QuantityDictMaybeRealIntervalExprExpr</text>
</g>
<!-- Input&#45;&gt;QuantityDictMaybeRealIntervalExprExpr -->
<g id="edge26" class="edge">
<title>Input&#45;&gt;QuantityDictMaybeRealIntervalExprExpr</title>
<path fill="none" stroke="black" d="M486.23,-1852.96C465.06,-1901.22 406.52,-2034.69 381.09,-2092.65"/>
<polygon fill="black" stroke="black" points="377.84,-2091.35 377.03,-2101.92 384.25,-2094.17 377.84,-2091.35"/>
</g>
<!-- OutputConstraints -->
<g id="node23" class="node">
<title>OutputConstraints</title>
<ellipse fill="none" stroke="#ee0000" cx="1802.7" cy="-1723.38" rx="97.48" ry="18"/>
<text text-anchor="middle" x="1802.7" y="-1719.68" font-family="Times,serif" font-size="14.00">OutputConstraints</text>
</g>
<!-- RealIntervalExprExpr -->
<g id="node24" class="node">
<title>RealIntervalExprExpr</title>
<ellipse fill="none" stroke="black" cx="2084.63" cy="-1723.38" rx="112.38" ry="18"/>
<text text-anchor="middle" x="2084.63" y="-1719.68" font-family="Times,serif" font-size="14.00">RealIntervalExprExpr</text>
</g>
<!-- OutputConstraints&#45;&gt;RealIntervalExprExpr -->
<g id="edge29" class="edge">
<title>OutputConstraints&#45;&gt;RealIntervalExprExpr</title>
<path fill="none" stroke="black" d="M1900.52,-1723.38C1920.33,-1723.38 1941.41,-1723.38 1961.96,-1723.38"/>
<polygon fill="black" stroke="black" points="1962,-1726.88 1972,-1723.38 1962,-1719.88 1962,-1726.88"/>
</g>
<!-- ModelKinds&#45;&gt;ConstraintSet -->
<g id="edge34" class="edge">
<title>ModelKinds&#45;&gt;ConstraintSet</title>
<path fill="none" stroke="black" d="M1340.97,-268.08C1389.85,-330.88 1555.29,-543.44 1613.28,-617.94"/>
<polygon fill="black" stroke="black" points="1610.59,-620.18 1619.49,-625.92 1616.11,-615.88 1610.59,-620.18"/>
</g>
<!-- ModelKinds&#45;&gt;QDefinition -->
<g id="edge35" class="edge">
<title>ModelKinds&#45;&gt;QDefinition</title>
<path fill="none" stroke="black" d="M1301.8,-267.01C1149.41,-366.57 357.62,-883.87 183.48,-997.65"/>
<polygon fill="black" stroke="black" points="181.42,-994.81 174.96,-1003.21 185.25,-1000.67 181.42,-994.81"/>
</g>
<!-- RelationConcept -->
<g id="node27" class="node">
<title>RelationConcept</title>
<ellipse fill="none" stroke="black" cx="1414.23" cy="-117.22" rx="87.18" ry="18"/>
<text text-anchor="middle" x="1414.23" y="-113.52" font-family="Times,serif" font-size="14.00">RelationConcept</text>
</g>
<!-- ModelKinds&#45;&gt;RelationConcept -->
<g id="edge33" class="edge">
<title>ModelKinds&#45;&gt;RelationConcept</title>
<path fill="none" stroke="black" d="M1338.95,-232.45C1353.81,-209.71 1379.53,-170.34 1396.71,-144.03"/>
<polygon fill="black" stroke="black" points="1399.86,-145.61 1402.4,-135.32 1394,-141.78 1399.86,-145.61"/>
</g>
<!-- MultiDefn -->
<g id="node28" class="node">
<title>MultiDefn</title>
<ellipse fill="none" stroke="#00cdcd" cx="386.97" cy="-328.32" rx="57.69" ry="18"/>
<text text-anchor="middle" x="386.97" y="-324.62" font-family="Times,serif" font-size="14.00">MultiDefn</text>
</g>
<!-- ModelKinds&#45;&gt;MultiDefn -->
<g id="edge36" class="edge">
<title>ModelKinds&#45;&gt;MultiDefn</title>
<path fill="none" stroke="black" d="M1264.06,-255.64C1093.8,-269.75 626.44,-308.48 452.94,-322.85"/>
<polygon fill="black" stroke="black" points="452.61,-319.37 442.93,-323.68 453.18,-326.34 452.61,-319.37"/>
</g>
<!-- MultiDefn&#45;&gt;Sentence -->
<g id="edge42" class="edge">
<title>MultiDefn&#45;&gt;Sentence</title>
<path fill="none" stroke="black" d="M386.97,-346.53C386.97,-477.11 386.97,-1270.35 386.97,-1430.33"/>
<polygon fill="black" stroke="black" points="383.47,-1430.34 386.97,-1440.34 390.47,-1430.34 383.47,-1430.34"/>
</g>
<!-- MultiDefn&#45;&gt;UID -->
<g id="edge40" class="edge">
<title>MultiDefn&#45;&gt;UID</title>
<path fill="none" stroke="black" d="M420.55,-313.59C505.17,-276.47 726.36,-179.45 810.54,-142.52"/>
<polygon fill="black" stroke="black" points="812.12,-145.65 819.88,-138.43 809.31,-139.24 812.12,-145.65"/>
</g>
<!-- MultiDefn&#45;&gt;QuantityDict -->
<g id="edge41" class="edge">
<title>MultiDefn&#45;&gt;QuantityDict</title>
<path fill="none" stroke="black" d="M373.19,-346.03C345.62,-381.45 283.58,-461.15 251.59,-502.25"/>
<polygon fill="black" stroke="black" points="248.81,-500.13 245.43,-510.17 254.33,-504.43 248.81,-500.13"/>
</g>
<!-- NonEmptyDefiningExpr -->
<g id="node31" class="node">
<title>NonEmptyDefiningExpr</title>
<ellipse fill="none" stroke="black" cx="255.45" cy="-185.45" rx="122.38" ry="18"/>
<text text-anchor="middle" x="255.45" y="-181.75" font-family="Times,serif" font-size="14.00">NonEmptyDefiningExpr</text>
</g>
<!-- MultiDefn&#45;&gt;NonEmptyDefiningExpr -->
<g id="edge43" class="edge">
<title>MultiDefn&#45;&gt;NonEmptyDefiningExpr</title>
<path fill="none" stroke="black" d="M370.84,-310.8C347.89,-285.87 305.67,-240 279.15,-211.2"/>
<polygon fill="black" stroke="black" points="281.47,-208.55 272.12,-203.56 276.32,-213.29 281.47,-208.55"/>
</g>
<!-- DefiningExpr -->
<g id="node29" class="node">
<title>DefiningExpr</title>
<ellipse fill="none" stroke="#00cdcd" cx="598.63" cy="-190.04" rx="72.29" ry="18"/>
<text text-anchor="middle" x="598.63" y="-186.34" font-family="Times,serif" font-size="14.00">DefiningExpr</text>
</g>
<!-- DefiningExpr&#45;&gt;Sentence -->
<g id="edge38" class="edge">
<title>DefiningExpr&#45;&gt;Sentence</title>
<path fill="none" stroke="black" d="M595.55,-208.45C572.01,-349.53 420.43,-1257.9 391.67,-1430.24"/>
<polygon fill="black" stroke="black" points="388.19,-1429.86 390,-1440.29 395.09,-1431.01 388.19,-1429.86"/>
</g>
<!-- DefiningExpr&#45;&gt;UID -->
<g id="edge37" class="edge">
<title>DefiningExpr&#45;&gt;UID</title>
<path fill="none" stroke="black" d="M649.41,-177.18C696.3,-165.3 764.83,-147.95 806.73,-137.34"/>
<polygon fill="black" stroke="black" points="807.69,-140.7 816.53,-134.86 805.97,-133.92 807.69,-140.7"/>
</g>
<!-- Expr -->
<g id="node30" class="node">
<title>Expr</title>
<ellipse fill="none" stroke="black" cx="556.39" cy="-93.74" rx="33.29" ry="18"/>
<text text-anchor="middle" x="556.39" y="-90.04" font-family="Times,serif" font-size="14.00">Expr</text>
</g>
<!-- DefiningExpr&#45;&gt;Expr -->
<g id="edge39" class="edge">
<title>DefiningExpr&#45;&gt;Expr</title>
<path fill="none" stroke="black" d="M590.68,-171.92C584.39,-157.58 575.5,-137.31 568.35,-121"/>
<polygon fill="black" stroke="black" points="571.38,-119.2 564.16,-111.45 564.97,-122.01 571.38,-119.2"/>
</g>
<!-- TheoryModel -->
<g id="node32" class="node">
<title>TheoryModel</title>
<ellipse fill="none" stroke="#00cdcd" cx="231.68" cy="-1258.92" rx="71.49" ry="18"/>
<text text-anchor="middle" x="231.68" y="-1255.22" font-family="Times,serif" font-size="14.00">TheoryModel</text>
</g>
<!-- TheoryModel&#45;&gt;ConceptChunk -->
<g id="edge48" class="edge">
<title>TheoryModel&#45;&gt;ConceptChunk</title>
<path fill="none" stroke="black" d="M257.57,-1242.01C419.56,-1136.18 1292.81,-565.65 1478.5,-444.33"/>
<polygon fill="black" stroke="black" points="1480.6,-447.14 1487.06,-438.74 1476.78,-441.28 1480.6,-447.14"/>
</g>
<!-- TheoryModel&#45;&gt;QDefinition -->
<g id="edge49" class="edge">
<title>TheoryModel&#45;&gt;QDefinition</title>
<path fill="none" stroke="black" d="M225.51,-1240.95C211.3,-1199.58 176.21,-1097.36 159.17,-1047.73"/>
<polygon fill="black" stroke="black" points="162.38,-1046.3 155.83,-1037.98 155.76,-1048.57 162.38,-1046.3"/>
</g>
<!-- TheoryModel&#45;&gt;DecRef -->
<g id="edge51" class="edge">
<title>TheoryModel&#45;&gt;DecRef</title>
<path fill="none" stroke="black" d="M257.58,-1275.85C355.62,-1339.9 703.78,-1567.36 811.63,-1637.82"/>
<polygon fill="black" stroke="black" points="809.86,-1640.85 820.14,-1643.39 813.69,-1634.99 809.86,-1640.85"/>
</g>
<!-- TheoryModel&#45;&gt;ShortName -->
<g id="edge52" class="edge">
<title>TheoryModel&#45;&gt;ShortName</title>
<path fill="none" stroke="black" d="M267.43,-1274.61C405.01,-1334.95 900.1,-1552.12 1051.43,-1618.5"/>
<polygon fill="black" stroke="black" points="1050.33,-1621.84 1060.89,-1622.65 1053.14,-1615.43 1050.33,-1621.84"/>
</g>
<!-- TheoryModel&#45;&gt;String -->
<g id="edge53" class="edge">
<title>TheoryModel&#45;&gt;String</title>
<path fill="none" stroke="black" d="M299.67,-1264.56C528.06,-1283.48 1264.46,-1344.5 1463.33,-1360.98"/>
<polygon fill="black" stroke="black" points="1463.23,-1364.48 1473.49,-1361.82 1463.81,-1357.51 1463.23,-1364.48"/>
</g>
<!-- TheoryModel&#45;&gt;Sentence -->
<g id="edge54" class="edge">
<title>TheoryModel&#45;&gt;Sentence</title>
<path fill="none" stroke="black" d="M245.46,-1276.63C273.03,-1312.05 335.06,-1391.75 367.05,-1432.86"/>
<polygon fill="black" stroke="black" points="364.31,-1435.03 373.22,-1440.77 369.84,-1430.73 364.31,-1435.03"/>
</g>
<!-- TheoryModel&#45;&gt;ModelKind -->
<g id="edge44" class="edge">
<title>TheoryModel&#45;&gt;ModelKind</title>
<path fill="none" stroke="black" d="M245.6,-1241.04C345.83,-1112.26 956.73,-327.37 1075.64,-174.6"/>
<polygon fill="black" stroke="black" points="1078.47,-176.67 1081.85,-166.63 1072.94,-172.37 1078.47,-176.67"/>
</g>
<!-- TheoryModel&#45;&gt;QuantityDict -->
<g id="edge47" class="edge">
<title>TheoryModel&#45;&gt;QuantityDict</title>
<path fill="none" stroke="black" d="M231.68,-1240.85C231.68,-1142.98 231.68,-676.41 231.68,-556.16"/>
<polygon fill="black" stroke="black" points="235.18,-555.93 231.68,-545.93 228.18,-555.93 235.18,-555.93"/>
</g>
<!-- TheoryModel&#45;&gt;TheoryModel -->
<g id="edge45" class="edge">
<title>TheoryModel&#45;&gt;TheoryModel</title>
<path fill="none" stroke="black" d="M298.42,-1265.39C311.7,-1264.67 321.17,-1262.51 321.17,-1258.92 321.17,-1256.35 316.28,-1254.51 308.59,-1253.4"/>
<polygon fill="black" stroke="black" points="308.7,-1249.9 298.42,-1252.45 308.05,-1256.87 308.7,-1249.9"/>
</g>
<!-- SpaceDefn -->
<g id="node33" class="node">
<title>SpaceDefn</title>
<ellipse fill="none" stroke="black" cx="163.3" cy="-1413.46" rx="60.39" ry="18"/>
<text text-anchor="middle" x="163.3" y="-1409.76" font-family="Times,serif" font-size="14.00">SpaceDefn</text>
</g>
<!-- TheoryModel&#45;&gt;SpaceDefn -->
<g id="edge46" class="edge">
<title>TheoryModel&#45;&gt;SpaceDefn</title>
<path fill="none" stroke="black" d="M223.7,-1276.95C211.81,-1303.82 189.35,-1354.58 175.43,-1386.06"/>
<polygon fill="black" stroke="black" points="172.07,-1384.99 171.23,-1395.55 178.47,-1387.82 172.07,-1384.99"/>
</g>
<!-- DisplayExpr -->
<g id="node34" class="node">
<title>DisplayExpr</title>
<ellipse fill="none" stroke="black" cx="67.59" cy="-1238.26" rx="67.69" ry="18"/>
<text text-anchor="middle" x="67.59" y="-1234.56" font-family="Times,serif" font-size="14.00">DisplayExpr</text>
</g>
<!-- TheoryModel&#45;&gt;DisplayExpr -->
<g id="edge50" class="edge">
<title>TheoryModel&#45;&gt;DisplayExpr</title>
<path fill="none" stroke="black" d="M167.3,-1250.82C158,-1249.65 148.39,-1248.44 138.96,-1247.25"/>
<polygon fill="black" stroke="black" points="139.2,-1243.75 128.84,-1245.98 138.32,-1250.7 139.2,-1243.75"/>
</g>
</g>
</svg>
