<?xml version="1.0" encoding="UTF-8" standalone="no"?>
<!DOCTYPE svg PUBLIC "-//W3C//DTD SVG 1.1//EN"
 "http://www.w3.org/Graphics/SVG/1.1/DTD/svg11.dtd">
<!-- Generated by graphviz version 2.43.0 (0)
 -->
<!-- Title: alltypes Pages: 1 -->
<svg width="1411pt" height="456pt"
 viewBox="0.00 0.00 1410.73 455.99" xmlns="http://www.w3.org/2000/svg" xmlns:xlink="http://www.w3.org/1999/xlink">
<g id="graph0" class="graph" transform="scale(1 1) rotate(0) translate(4 451.99)">
<title>alltypes</title>
<polygon fill="white" stroke="transparent" points="-4,4 -4,-451.99 1406.73,-451.99 1406.73,4 -4,4"/>
<!-- FolderLocation -->
<g id="node1" class="node">
<title>FolderLocation</title>
<ellipse fill="none" stroke="#00cdcd" cx="588.08" cy="-223.99" rx="79.89" ry="18"/>
<text text-anchor="middle" x="588.08" y="-220.29" font-family="Times,serif" font-size="14.00">FolderLocation</text>
</g>
<!-- FilePath -->
<g id="node2" class="node">
<title>FilePath</title>
<ellipse fill="none" stroke="black" cx="789.41" cy="-223.99" rx="49.29" ry="18"/>
<text text-anchor="middle" x="789.41" y="-220.29" font-family="Times,serif" font-size="14.00">FilePath</text>
</g>
<!-- FolderLocation&#45;&gt;FilePath -->
<g id="edge1" class="edge">
<title>FolderLocation&#45;&gt;FilePath</title>
<path fill="none" stroke="black" d="M668.23,-223.99C688.77,-223.99 710.51,-223.99 729.81,-223.99"/>
<polygon fill="black" stroke="black" points="729.96,-227.49 739.96,-223.99 729.96,-220.49 729.96,-227.49"/>
</g>
<!-- String -->
<g id="node3" class="node">
<title>String</title>
<ellipse fill="none" stroke="black" cx="227.99" cy="-223.99" rx="40.09" ry="18"/>
<text text-anchor="middle" x="227.99" y="-220.29" font-family="Times,serif" font-size="14.00">String</text>
</g>
<!-- FolderLocation&#45;&gt;String -->
<g id="edge2" class="edge">
<title>FolderLocation&#45;&gt;String</title>
<path fill="none" stroke="black" d="M507.71,-223.99C437.71,-223.99 338.35,-223.99 278.82,-223.99"/>
<polygon fill="black" stroke="black" points="278.54,-220.49 268.54,-223.99 278.54,-227.49 278.54,-220.49"/>
</g>
<!-- CaseStudy -->
<g id="node4" class="node">
<title>CaseStudy</title>
<ellipse fill="none" stroke="#00cdcd" cx="1302.64" cy="-351.31" rx="60.39" ry="18"/>
<text text-anchor="middle" x="1302.64" y="-347.61" font-family="Times,serif" font-size="14.00">CaseStudy</text>
</g>
<!-- SystemInformation -->
<g id="node5" class="node">
<title>SystemInformation</title>
<ellipse fill="none" stroke="black" cx="1302.64" cy="-96.68" rx="100.18" ry="18"/>
<text text-anchor="middle" x="1302.64" y="-92.98" font-family="Times,serif" font-size="14.00">SystemInformation</text>
</g>
<!-- CaseStudy&#45;&gt;SystemInformation -->
<g id="edge3" class="edge">
<title>CaseStudy&#45;&gt;SystemInformation</title>
<path fill="none" stroke="black" d="M1302.64,-332.99C1302.64,-289.13 1302.64,-177.81 1302.64,-125.13"/>
<polygon fill="black" stroke="black" points="1306.14,-124.83 1302.64,-114.83 1299.14,-124.83 1306.14,-124.83"/>
</g>
<!-- Sentence -->
<g id="node6" class="node">
<title>Sentence</title>
<ellipse fill="none" stroke="black" cx="1060.47" cy="-429.99" rx="53.89" ry="18"/>
<text text-anchor="middle" x="1060.47" y="-426.29" font-family="Times,serif" font-size="14.00">Sentence</text>
</g>
<!-- CaseStudy&#45;&gt;Sentence -->
<g id="edge4" class="edge">
<title>CaseStudy&#45;&gt;Sentence</title>
<path fill="none" stroke="black" d="M1261.56,-364.65C1219.4,-378.35 1153.84,-399.65 1109.12,-414.18"/>
<polygon fill="black" stroke="black" points="1107.78,-410.94 1099.35,-417.36 1109.94,-417.6 1107.78,-410.94"/>
</g>
<!-- Choices -->
<g id="node7" class="node">
<title>Choices</title>
<ellipse fill="none" stroke="black" cx="1060.47" cy="-18" rx="46.59" ry="18"/>
<text text-anchor="middle" x="1060.47" y="-14.3" font-family="Times,serif" font-size="14.00">Choices</text>
</g>
<!-- CaseStudy&#45;&gt;Choices -->
<g id="edge5" class="edge">
<title>CaseStudy&#45;&gt;Choices</title>
<path fill="none" stroke="black" d="M1289.62,-333.39C1249.36,-277.98 1126.79,-109.28 1079.43,-44.09"/>
<polygon fill="black" stroke="black" points="1081.97,-41.64 1073.26,-35.6 1076.31,-45.75 1081.97,-41.64"/>
</g>
<!-- CSLegend -->
<g id="node8" class="node">
<title>CSLegend</title>
<ellipse fill="none" stroke="#00cdcd" cx="57.84" cy="-223.99" rx="57.69" ry="18"/>
<text text-anchor="middle" x="57.84" y="-220.29" font-family="Times,serif" font-size="14.00">CSLegend</text>
</g>
<!-- CSLegend&#45;&gt;String -->
<g id="edge6" class="edge">
<title>CSLegend&#45;&gt;String</title>
<path fill="none" stroke="black" d="M115.92,-223.99C135.91,-223.99 158.13,-223.99 177.47,-223.99"/>
<polygon fill="black" stroke="black" points="177.59,-227.49 187.59,-223.99 177.59,-220.49 177.59,-227.49"/>
</g>
<!-- Example -->
<g id="node9" class="node">
<title>Example</title>
<ellipse fill="none" stroke="#00cdcd" cx="910.81" cy="-223.99" rx="51.19" ry="18"/>
<text text-anchor="middle" x="910.81" y="-220.29" font-family="Times,serif" font-size="14.00">Example</text>
</g>
<!-- Example&#45;&gt;FilePath -->
<g id="edge10" class="edge">
<title>Example&#45;&gt;FilePath</title>
<path fill="none" stroke="black" d="M859.33,-223.99C855.97,-223.99 852.57,-223.99 849.17,-223.99"/>
<polygon fill="black" stroke="black" points="849.04,-220.49 839.04,-223.99 849.04,-227.49 849.04,-220.49"/>
</g>
<!-- Example&#45;&gt;SystemInformation -->
<g id="edge7" class="edge">
<title>Example&#45;&gt;SystemInformation</title>
<path fill="none" stroke="black" d="M948.74,-211.67C1017.48,-189.33 1163.08,-142.03 1244.47,-115.58"/>
<polygon fill="black" stroke="black" points="1245.64,-118.88 1254.07,-112.46 1243.48,-112.22 1245.64,-118.88"/>
</g>
<!-- Example&#45;&gt;Sentence -->
<g id="edge8" class="edge">
<title>Example&#45;&gt;Sentence</title>
<path fill="none" stroke="black" d="M923.57,-241.56C950.02,-277.97 1010.94,-361.82 1041.81,-404.31"/>
<polygon fill="black" stroke="black" points="1039.04,-406.44 1047.75,-412.47 1044.7,-402.32 1039.04,-406.44"/>
</g>
<!-- Example&#45;&gt;Choices -->
<g id="edge9" class="edge">
<title>Example&#45;&gt;Choices</title>
<path fill="none" stroke="black" d="M923.57,-206.43C950.02,-170.02 1010.94,-86.17 1041.81,-43.68"/>
<polygon fill="black" stroke="black" points="1044.7,-45.67 1047.75,-35.52 1039.04,-41.55 1044.7,-45.67"/>
</g>
</g>
</svg>
