<?xml version="1.0" encoding="UTF-8" standalone="no"?>
<!DOCTYPE svg PUBLIC "-//W3C//DTD SVG 1.1//EN"
 "http://www.w3.org/Graphics/SVG/1.1/DTD/svg11.dtd">
<!-- Generated by graphviz version 2.43.0 (0)
 -->
<!-- Title: alltypes Pages: 1 -->
<svg width="1445pt" height="1213pt"
 viewBox="0.00 0.00 1444.55 1212.51" xmlns="http://www.w3.org/2000/svg" xmlns:xlink="http://www.w3.org/1999/xlink">
<g id="graph0" class="graph" transform="scale(1 1) rotate(0) translate(4 1208.51)">
<title>alltypes</title>
<polygon fill="white" stroke="transparent" points="-4,4 -4,-1208.51 1440.55,-1208.51 1440.55,4 -4,4"/>
<!-- ChunkDB -->
<g id="node1" class="node">
<title>ChunkDB</title>
<ellipse fill="none" stroke="#00cdcd" cx="746.84" cy="-625.08" rx="54.69" ry="18"/>
<text text-anchor="middle" x="746.84" y="-621.38" font-family="Times,serif" font-size="14.00">ChunkDB</text>
</g>
<!-- SymbolMap -->
<g id="node2" class="node">
<title>SymbolMap</title>
<ellipse fill="none" stroke="#ee0000" cx="901.18" cy="-789.48" rx="65.79" ry="18"/>
<text text-anchor="middle" x="901.18" y="-785.78" font-family="Times,serif" font-size="14.00">SymbolMap</text>
</g>
<!-- ChunkDB&#45;&gt;SymbolMap -->
<g id="edge1" class="edge">
<title>ChunkDB&#45;&gt;SymbolMap</title>
<path fill="none" stroke="black" d="M763.06,-642.36C790.44,-671.52 845.89,-730.59 877.57,-764.34"/>
<polygon fill="black" stroke="black" points="875.31,-767.04 884.71,-771.94 880.42,-762.25 875.31,-767.04"/>
</g>
<!-- TermMap -->
<g id="node3" class="node">
<title>TermMap</title>
<ellipse fill="none" stroke="#ee0000" cx="649.95" cy="-974.86" rx="55.49" ry="18"/>
<text text-anchor="middle" x="649.95" y="-971.16" font-family="Times,serif" font-size="14.00">TermMap</text>
</g>
<!-- ChunkDB&#45;&gt;TermMap -->
<g id="edge2" class="edge">
<title>ChunkDB&#45;&gt;TermMap</title>
<path fill="none" stroke="black" d="M741.77,-643.39C725.84,-700.88 676.76,-878.05 657.66,-947"/>
<polygon fill="black" stroke="black" points="654.26,-946.16 654.97,-956.73 661.01,-948.03 654.26,-946.16"/>
</g>
<!-- ConceptMap -->
<g id="node4" class="node">
<title>ConceptMap</title>
<ellipse fill="none" stroke="#ee0000" cx="366.88" cy="-832.96" rx="69.59" ry="18"/>
<text text-anchor="middle" x="366.88" y="-829.26" font-family="Times,serif" font-size="14.00">ConceptMap</text>
</g>
<!-- ChunkDB&#45;&gt;ConceptMap -->
<g id="edge3" class="edge">
<title>ChunkDB&#45;&gt;ConceptMap</title>
<path fill="none" stroke="black" d="M718.59,-640.53C651.41,-677.29 482.02,-769.97 405.48,-811.85"/>
<polygon fill="black" stroke="black" points="403.71,-808.82 396.62,-816.69 407.07,-814.96 403.71,-808.82"/>
</g>
<!-- UnitMap -->
<g id="node5" class="node">
<title>UnitMap</title>
<ellipse fill="none" stroke="#ee0000" cx="278.79" cy="-530.63" rx="51.99" ry="18"/>
<text text-anchor="middle" x="278.79" y="-526.93" font-family="Times,serif" font-size="14.00">UnitMap</text>
</g>
<!-- ChunkDB&#45;&gt;UnitMap -->
<g id="edge4" class="edge">
<title>ChunkDB&#45;&gt;UnitMap</title>
<path fill="none" stroke="black" d="M700.25,-615.68C613.33,-598.14 426.86,-560.51 333.87,-541.74"/>
<polygon fill="black" stroke="black" points="334.31,-538.26 323.82,-539.71 332.93,-545.12 334.31,-538.26"/>
</g>
<!-- TraceMap -->
<g id="node6" class="node">
<title>TraceMap</title>
<ellipse fill="none" stroke="#ee0000" cx="614.11" cy="-492.35" rx="57.39" ry="18"/>
<text text-anchor="middle" x="614.11" y="-488.65" font-family="Times,serif" font-size="14.00">TraceMap</text>
</g>
<!-- ChunkDB&#45;&gt;TraceMap -->
<g id="edge5" class="edge">
<title>ChunkDB&#45;&gt;TraceMap</title>
<path fill="none" stroke="black" d="M729.49,-607.73C706.33,-584.57 665.2,-543.44 638.82,-517.06"/>
<polygon fill="black" stroke="black" points="641.01,-514.3 631.47,-509.71 636.06,-519.25 641.01,-514.3"/>
</g>
<!-- RefbyMap -->
<g id="node7" class="node">
<title>RefbyMap</title>
<ellipse fill="none" stroke="#ee0000" cx="614.11" cy="-757.81" rx="57.69" ry="18"/>
<text text-anchor="middle" x="614.11" y="-754.11" font-family="Times,serif" font-size="14.00">RefbyMap</text>
</g>
<!-- ChunkDB&#45;&gt;RefbyMap -->
<g id="edge6" class="edge">
<title>ChunkDB&#45;&gt;RefbyMap</title>
<path fill="none" stroke="black" d="M729.49,-642.43C706.33,-665.58 665.2,-706.71 638.82,-733.1"/>
<polygon fill="black" stroke="black" points="636.06,-730.9 631.47,-740.45 641.01,-735.85 636.06,-730.9"/>
</g>
<!-- DatadefnMap -->
<g id="node8" class="node">
<title>DatadefnMap</title>
<ellipse fill="none" stroke="#ee0000" cx="514.3" cy="-317.87" rx="73.39" ry="18"/>
<text text-anchor="middle" x="514.3" y="-314.17" font-family="Times,serif" font-size="14.00">DatadefnMap</text>
</g>
<!-- ChunkDB&#45;&gt;DatadefnMap -->
<g id="edge7" class="edge">
<title>ChunkDB&#45;&gt;DatadefnMap</title>
<path fill="none" stroke="black" d="M733.33,-607.23C694.16,-555.48 580.37,-405.15 534.15,-344.1"/>
<polygon fill="black" stroke="black" points="536.67,-341.62 527.84,-335.76 531.09,-345.85 536.67,-341.62"/>
</g>
<!-- InsModelMap -->
<g id="node9" class="node">
<title>InsModelMap</title>
<ellipse fill="none" stroke="#ee0000" cx="838.81" cy="-393.93" rx="74.19" ry="18"/>
<text text-anchor="middle" x="838.81" y="-390.23" font-family="Times,serif" font-size="14.00">InsModelMap</text>
</g>
<!-- ChunkDB&#45;&gt;InsModelMap -->
<g id="edge8" class="edge">
<title>ChunkDB&#45;&gt;InsModelMap</title>
<path fill="none" stroke="black" d="M754.06,-606.94C770.11,-566.6 808.84,-469.24 827.88,-421.4"/>
<polygon fill="black" stroke="black" points="831.18,-422.57 831.63,-411.98 824.68,-419.98 831.18,-422.57"/>
</g>
<!-- GendefMap -->
<g id="node10" class="node">
<title>GendefMap</title>
<ellipse fill="none" stroke="#ee0000" cx="956.9" cy="-697.31" rx="64.19" ry="18"/>
<text text-anchor="middle" x="956.9" y="-693.61" font-family="Times,serif" font-size="14.00">GendefMap</text>
</g>
<!-- ChunkDB&#45;&gt;GendefMap -->
<g id="edge9" class="edge">
<title>ChunkDB&#45;&gt;GendefMap</title>
<path fill="none" stroke="black" d="M784.88,-638.16C818.96,-649.88 869.18,-667.15 906.58,-680.01"/>
<polygon fill="black" stroke="black" points="905.68,-683.4 916.27,-683.34 907.96,-676.78 905.68,-683.4"/>
</g>
<!-- TheoryModelMap -->
<g id="node11" class="node">
<title>TheoryModelMap</title>
<ellipse fill="none" stroke="#ee0000" cx="721.56" cy="-936.58" rx="92.08" ry="18"/>
<text text-anchor="middle" x="721.56" y="-932.88" font-family="Times,serif" font-size="14.00">TheoryModelMap</text>
</g>
<!-- ChunkDB&#45;&gt;TheoryModelMap -->
<g id="edge10" class="edge">
<title>ChunkDB&#45;&gt;TheoryModelMap</title>
<path fill="none" stroke="black" d="M745.37,-643.17C741.15,-695.22 728.95,-845.59 723.84,-908.44"/>
<polygon fill="black" stroke="black" points="720.35,-908.19 723.03,-918.44 727.33,-908.75 720.35,-908.19"/>
</g>
<!-- ConceptInstanceMap -->
<g id="node12" class="node">
<title>ConceptInstanceMap</title>
<ellipse fill="none" stroke="#ee0000" cx="374.01" cy="-826.29" rx="108.58" ry="18"/>
<text text-anchor="middle" x="374.01" y="-822.59" font-family="Times,serif" font-size="14.00">ConceptInstanceMap</text>
</g>
<!-- ChunkDB&#45;&gt;ConceptInstanceMap -->
<g id="edge11" class="edge">
<title>ChunkDB&#45;&gt;ConceptInstanceMap</title>
<path fill="none" stroke="black" d="M718.2,-640.53C652.58,-675.95 491.14,-763.08 415,-804.17"/>
<polygon fill="black" stroke="black" points="413.29,-801.12 406.15,-808.95 416.62,-807.28 413.29,-801.12"/>
</g>
<!-- SectionMap -->
<g id="node13" class="node">
<title>SectionMap</title>
<ellipse fill="none" stroke="#ee0000" cx="285.16" cy="-488.53" rx="65.79" ry="18"/>
<text text-anchor="middle" x="285.16" y="-484.83" font-family="Times,serif" font-size="14.00">SectionMap</text>
</g>
<!-- ChunkDB&#45;&gt;SectionMap -->
<g id="edge12" class="edge">
<title>ChunkDB&#45;&gt;SectionMap</title>
<path fill="none" stroke="black" d="M705.87,-612.96C622.61,-588.34 433.64,-532.44 339.94,-504.73"/>
<polygon fill="black" stroke="black" points="340.67,-501.3 330.09,-501.82 338.69,-508.01 340.67,-501.3"/>
</g>
<!-- LabelledContentMap -->
<g id="node14" class="node">
<title>LabelledContentMap</title>
<ellipse fill="none" stroke="#ee0000" cx="586.16" cy="-312.41" rx="107.78" ry="18"/>
<text text-anchor="middle" x="586.16" y="-308.71" font-family="Times,serif" font-size="14.00">LabelledContentMap</text>
</g>
<!-- ChunkDB&#45;&gt;LabelledContentMap -->
<g id="edge13" class="edge">
<title>ChunkDB&#45;&gt;LabelledContentMap</title>
<path fill="none" stroke="black" d="M737.51,-606.92C710.55,-554.46 632.46,-402.49 600.28,-339.87"/>
<polygon fill="black" stroke="black" points="603.21,-337.91 595.52,-330.62 596.98,-341.11 603.21,-337.91"/>
</g>
<!-- ReferenceMap -->
<g id="node15" class="node">
<title>ReferenceMap</title>
<ellipse fill="none" stroke="#ee0000" cx="912.7" cy="-454.63" rx="77.99" ry="18"/>
<text text-anchor="middle" x="912.7" y="-450.93" font-family="Times,serif" font-size="14.00">ReferenceMap</text>
</g>
<!-- ChunkDB&#45;&gt;ReferenceMap -->
<g id="edge14" class="edge">
<title>ChunkDB&#45;&gt;ReferenceMap</title>
<path fill="none" stroke="black" d="M763.65,-607.8C793.13,-577.5 854.24,-514.71 888.34,-479.66"/>
<polygon fill="black" stroke="black" points="891.13,-481.82 895.59,-472.21 886.11,-476.94 891.13,-481.82"/>
</g>
<!-- UMapQuantityDict -->
<g id="node18" class="node">
<title>UMapQuantityDict</title>
<ellipse fill="none" stroke="black" cx="1106.35" cy="-906.99" rx="98.58" ry="18"/>
<text text-anchor="middle" x="1106.35" y="-903.29" font-family="Times,serif" font-size="14.00">UMapQuantityDict</text>
</g>
<!-- SymbolMap&#45;&gt;UMapQuantityDict -->
<g id="edge16" class="edge">
<title>SymbolMap&#45;&gt;UMapQuantityDict</title>
<path fill="none" stroke="black" d="M929.71,-805.82C965.54,-826.34 1027.17,-861.64 1067.34,-884.64"/>
<polygon fill="black" stroke="black" points="1065.65,-887.71 1076.06,-889.64 1069.13,-881.63 1065.65,-887.71"/>
</g>
<!-- UMapIdeaDict -->
<g id="node21" class="node">
<title>UMapIdeaDict</title>
<ellipse fill="none" stroke="black" cx="670.86" cy="-1179.03" rx="77.99" ry="18"/>
<text text-anchor="middle" x="670.86" y="-1175.33" font-family="Times,serif" font-size="14.00">UMapIdeaDict</text>
</g>
<!-- TermMap&#45;&gt;UMapIdeaDict -->
<g id="edge19" class="edge">
<title>TermMap&#45;&gt;UMapIdeaDict</title>
<path fill="none" stroke="black" d="M651.8,-992.98C655.46,-1028.7 663.63,-1108.42 667.99,-1150.98"/>
<polygon fill="black" stroke="black" points="664.51,-1151.36 669.01,-1160.95 671.47,-1150.65 664.51,-1151.36"/>
</g>
<!-- UMapConceptChunk -->
<g id="node19" class="node">
<title>UMapConceptChunk</title>
<ellipse fill="none" stroke="black" cx="176.96" cy="-992.66" rx="106.68" ry="18"/>
<text text-anchor="middle" x="176.96" y="-988.96" font-family="Times,serif" font-size="14.00">UMapConceptChunk</text>
</g>
<!-- ConceptMap&#45;&gt;UMapConceptChunk -->
<g id="edge17" class="edge">
<title>ConceptMap&#45;&gt;UMapConceptChunk</title>
<path fill="none" stroke="black" d="M346.19,-850.36C312.27,-878.89 244.71,-935.69 206,-968.24"/>
<polygon fill="black" stroke="black" points="203.6,-965.68 198.2,-974.8 208.11,-971.04 203.6,-965.68"/>
</g>
<!-- UMapUnitDefn -->
<g id="node20" class="node">
<title>UMapUnitDefn</title>
<ellipse fill="none" stroke="black" cx="81.24" cy="-474.98" rx="81.49" ry="18"/>
<text text-anchor="middle" x="81.24" y="-471.28" font-family="Times,serif" font-size="14.00">UMapUnitDefn</text>
</g>
<!-- UnitMap&#45;&gt;UMapUnitDefn -->
<g id="edge18" class="edge">
<title>UnitMap&#45;&gt;UMapUnitDefn</title>
<path fill="none" stroke="black" d="M238.34,-519.23C210.53,-511.4 173.12,-500.86 141.78,-492.03"/>
<polygon fill="black" stroke="black" points="142.41,-488.58 131.83,-489.23 140.51,-495.31 142.41,-488.58"/>
</g>
<!-- MapUIDUID -->
<g id="node22" class="node">
<title>MapUIDUID</title>
<ellipse fill="none" stroke="black" cx="481.38" cy="-625.08" rx="68.49" ry="18"/>
<text text-anchor="middle" x="481.38" y="-621.38" font-family="Times,serif" font-size="14.00">MapUIDUID</text>
</g>
<!-- TraceMap&#45;&gt;MapUIDUID -->
<g id="edge20" class="edge">
<title>TraceMap&#45;&gt;MapUIDUID</title>
<path fill="none" stroke="black" d="M596.76,-509.7C573.74,-532.73 532.93,-573.53 506.53,-599.93"/>
<polygon fill="black" stroke="black" points="503.76,-597.75 499.16,-607.3 508.71,-602.7 503.76,-597.75"/>
</g>
<!-- RefbyMap&#45;&gt;MapUIDUID -->
<g id="edge21" class="edge">
<title>RefbyMap&#45;&gt;MapUIDUID</title>
<path fill="none" stroke="black" d="M596.76,-740.45C573.74,-717.43 532.93,-676.62 506.53,-650.22"/>
<polygon fill="black" stroke="black" points="508.71,-647.45 499.16,-642.86 503.76,-652.4 508.71,-647.45"/>
</g>
<!-- UMapDataDefinition -->
<g id="node23" class="node">
<title>UMapDataDefinition</title>
<ellipse fill="none" stroke="black" cx="436.42" cy="-78.17" rx="106.68" ry="18"/>
<text text-anchor="middle" x="436.42" y="-74.47" font-family="Times,serif" font-size="14.00">UMapDataDefinition</text>
</g>
<!-- DatadefnMap&#45;&gt;UMapDataDefinition -->
<g id="edge22" class="edge">
<title>DatadefnMap&#45;&gt;UMapDataDefinition</title>
<path fill="none" stroke="black" d="M508.44,-299.85C494.97,-258.38 461.68,-155.92 445.52,-106.17"/>
<polygon fill="black" stroke="black" points="448.76,-104.82 442.34,-96.39 442.1,-106.99 448.76,-104.82"/>
</g>
<!-- UMapInstanceModel -->
<g id="node24" class="node">
<title>UMapInstanceModel</title>
<ellipse fill="none" stroke="black" cx="1015.39" cy="-212.28" rx="107.48" ry="18"/>
<text text-anchor="middle" x="1015.39" y="-208.58" font-family="Times,serif" font-size="14.00">UMapInstanceModel</text>
</g>
<!-- InsModelMap&#45;&gt;UMapInstanceModel -->
<g id="edge23" class="edge">
<title>InsModelMap&#45;&gt;UMapInstanceModel</title>
<path fill="none" stroke="black" d="M856.06,-376.18C887.58,-343.76 954.55,-274.87 990.82,-237.56"/>
<polygon fill="black" stroke="black" points="993.61,-239.71 998.07,-230.1 988.59,-234.83 993.61,-239.71"/>
</g>
<!-- UMapGenDefn -->
<g id="node25" class="node">
<title>UMapGenDefn</title>
<ellipse fill="none" stroke="black" cx="1167.9" cy="-741.77" rx="79.09" ry="18"/>
<text text-anchor="middle" x="1167.9" y="-738.07" font-family="Times,serif" font-size="14.00">UMapGenDefn</text>
</g>
<!-- GendefMap&#45;&gt;UMapGenDefn -->
<g id="edge24" class="edge">
<title>GendefMap&#45;&gt;UMapGenDefn</title>
<path fill="none" stroke="black" d="M1008.51,-708.19C1036.03,-713.98 1070.23,-721.19 1099.88,-727.44"/>
<polygon fill="black" stroke="black" points="1099.24,-730.88 1109.75,-729.52 1100.68,-724.03 1099.24,-730.88"/>
</g>
<!-- UMapTheoryModel -->
<g id="node26" class="node">
<title>UMapTheoryModel</title>
<ellipse fill="none" stroke="black" cx="807.77" cy="-1186.51" rx="100.18" ry="18"/>
<text text-anchor="middle" x="807.77" y="-1182.81" font-family="Times,serif" font-size="14.00">UMapTheoryModel</text>
</g>
<!-- TheoryModelMap&#45;&gt;UMapTheoryModel -->
<g id="edge25" class="edge">
<title>TheoryModelMap&#45;&gt;UMapTheoryModel</title>
<path fill="none" stroke="black" d="M727.76,-954.56C742.64,-997.68 780.44,-1107.27 798.23,-1158.86"/>
<polygon fill="black" stroke="black" points="794.94,-1160.05 801.51,-1168.37 801.56,-1157.77 794.94,-1160.05"/>
</g>
<!-- UMapConceptInstance -->
<g id="node27" class="node">
<title>UMapConceptInstance</title>
<ellipse fill="none" stroke="black" cx="146.47" cy="-1016.98" rx="116.18" ry="18"/>
<text text-anchor="middle" x="146.47" y="-1013.28" font-family="Times,serif" font-size="14.00">UMapConceptInstance</text>
</g>
<!-- ConceptInstanceMap&#45;&gt;UMapConceptInstance -->
<g id="edge26" class="edge">
<title>ConceptInstanceMap&#45;&gt;UMapConceptInstance</title>
<path fill="none" stroke="black" d="M352.6,-844.23C311.59,-878.61 221.89,-953.78 175.52,-992.64"/>
<polygon fill="black" stroke="black" points="173.07,-990.13 167.65,-999.23 177.57,-995.49 173.07,-990.13"/>
</g>
<!-- UMapSection -->
<g id="node28" class="node">
<title>UMapSection</title>
<ellipse fill="none" stroke="black" cx="90.2" cy="-407.6" rx="73.39" ry="18"/>
<text text-anchor="middle" x="90.2" y="-403.9" font-family="Times,serif" font-size="14.00">UMapSection</text>
</g>
<!-- SectionMap&#45;&gt;UMapSection -->
<g id="edge27" class="edge">
<title>SectionMap&#45;&gt;UMapSection</title>
<path fill="none" stroke="black" d="M248.95,-473.5C217.34,-460.38 171.29,-441.26 136.91,-426.99"/>
<polygon fill="black" stroke="black" points="138.13,-423.7 127.55,-423.1 135.45,-430.17 138.13,-423.7"/>
</g>
<!-- UMapLabelledContent -->
<g id="node29" class="node">
<title>UMapLabelledContent</title>
<ellipse fill="none" stroke="black" cx="559.85" cy="-18" rx="115.88" ry="18"/>
<text text-anchor="middle" x="559.85" y="-14.3" font-family="Times,serif" font-size="14.00">UMapLabelledContent</text>
</g>
<!-- LabelledContentMap&#45;&gt;UMapLabelledContent -->
<g id="edge28" class="edge">
<title>LabelledContentMap&#45;&gt;UMapLabelledContent</title>
<path fill="none" stroke="black" d="M584.52,-293.99C580.06,-244.1 567.72,-106.07 562.37,-46.25"/>
<polygon fill="black" stroke="black" points="565.84,-45.68 561.46,-36.03 558.86,-46.31 565.84,-45.68"/>
</g>
<!-- UMapReference -->
<g id="node30" class="node">
<title>UMapReference</title>
<ellipse fill="none" stroke="black" cx="1117.47" cy="-337.73" rx="85.59" ry="18"/>
<text text-anchor="middle" x="1117.47" y="-334.03" font-family="Times,serif" font-size="14.00">UMapReference</text>
</g>
<!-- ReferenceMap&#45;&gt;UMapReference -->
<g id="edge29" class="edge">
<title>ReferenceMap&#45;&gt;UMapReference</title>
<path fill="none" stroke="black" d="M942.04,-437.88C978.05,-417.32 1039.22,-382.4 1078.97,-359.71"/>
<polygon fill="black" stroke="black" points="1080.9,-362.64 1087.85,-354.64 1077.43,-356.56 1080.9,-362.64"/>
</g>
<!-- UMapa -->
<g id="node16" class="node">
<title>UMapa</title>
<ellipse fill="none" stroke="#ee0000" cx="1183.87" cy="-588.08" rx="44.39" ry="18"/>
<text text-anchor="middle" x="1183.87" y="-584.38" font-family="Times,serif" font-size="14.00">UMapa</text>
</g>
<!-- MapUIDaInt -->
<g id="node17" class="node">
<title>MapUIDaInt</title>
<ellipse fill="none" stroke="black" cx="1368.31" cy="-588.08" rx="68.49" ry="18"/>
<text text-anchor="middle" x="1368.31" y="-584.38" font-family="Times,serif" font-size="14.00">MapUIDaInt</text>
</g>
<!-- UMapa&#45;&gt;MapUIDaInt -->
<g id="edge15" class="edge">
<title>UMapa&#45;&gt;MapUIDaInt</title>
<path fill="none" stroke="black" d="M1228.51,-588.08C1246.93,-588.08 1268.83,-588.08 1289.77,-588.08"/>
<polygon fill="black" stroke="black" points="1289.95,-591.58 1299.95,-588.08 1289.95,-584.58 1289.95,-591.58"/>
</g>
</g>
</svg>
