<?xml version="1.0" encoding="UTF-8" standalone="no"?>
<!DOCTYPE svg PUBLIC "-//W3C//DTD SVG 1.1//EN"
 "http://www.w3.org/Graphics/SVG/1.1/DTD/svg11.dtd">
<!-- Generated by graphviz version 2.43.0 (0)
 -->
<!-- Title: alltypes Pages: 1 -->
<svg width="2194pt" height="2146pt"
 viewBox="0.00 0.00 2194.05 2146.10" xmlns="http://www.w3.org/2000/svg" xmlns:xlink="http://www.w3.org/1999/xlink">
<g id="graph0" class="graph" transform="scale(1 1) rotate(0) translate(4 2142.1)">
<title>alltypes</title>
<polygon fill="white" stroke="transparent" points="-4,4 -4,-2142.1 2190.05,-2142.1 2190.05,4 -4,4"/>
<!-- ConstraintSet -->
<g id="node1" class="node">
<title>ConstraintSet</title>
<ellipse fill="none" stroke="#00cdcd" cx="1622.54" cy="-644" rx="75.29" ry="18"/>
<text text-anchor="middle" x="1622.54" y="-640.3" font-family="Times,serif" font-size="14.00">ConstraintSet</text>
</g>
<!-- ConceptChunk -->
<g id="node2" class="node">
<title>ConceptChunk</title>
<ellipse fill="none" stroke="black" cx="1502.2" cy="-421.64" rx="78.79" ry="18"/>
<text text-anchor="middle" x="1502.2" y="-417.94" font-family="Times,serif" font-size="14.00">ConceptChunk</text>
</g>
<!-- ConstraintSet&#45;&gt;ConceptChunk -->
<g id="edge1" class="edge">
<title>ConstraintSet&#45;&gt;ConceptChunk</title>
<path fill="none" stroke="black" d="M1612.69,-625.8C1591.53,-586.7 1541.62,-494.48 1516.78,-448.58"/>
<polygon fill="black" stroke="black" points="1519.86,-446.91 1512.02,-439.78 1513.7,-450.24 1519.86,-446.91"/>
</g>
<!-- NonEmptyExpr -->
<g id="node3" class="node">
<title>NonEmptyExpr</title>
<ellipse fill="none" stroke="black" cx="1769.32" cy="-593.61" rx="83.39" ry="18"/>
<text text-anchor="middle" x="1769.32" y="-589.91" font-family="Times,serif" font-size="14.00">NonEmptyExpr</text>
</g>
<!-- ConstraintSet&#45;&gt;NonEmptyExpr -->
<g id="edge2" class="edge">
<title>ConstraintSet&#45;&gt;NonEmptyExpr</title>
<path fill="none" stroke="black" d="M1665.78,-629.15C1681.19,-623.86 1698.74,-617.84 1714.96,-612.27"/>
<polygon fill="black" stroke="black" points="1716.54,-615.43 1724.86,-608.87 1714.26,-608.81 1716.54,-615.43"/>
</g>
<!-- DataDefinition -->
<g id="node4" class="node">
<title>DataDefinition</title>
<ellipse fill="none" stroke="#00cdcd" cx="1664.15" cy="-893.38" rx="77.99" ry="18"/>
<text text-anchor="middle" x="1664.15" y="-889.68" font-family="Times,serif" font-size="14.00">DataDefinition</text>
</g>
<!-- QDefinition -->
<g id="node5" class="node">
<title>QDefinition</title>
<ellipse fill="none" stroke="black" cx="138.56" cy="-1019.79" rx="63.89" ry="18"/>
<text text-anchor="middle" x="138.56" y="-1016.09" font-family="Times,serif" font-size="14.00">QDefinition</text>
</g>
<!-- DataDefinition&#45;&gt;QDefinition -->
<g id="edge3" class="edge">
<title>DataDefinition&#45;&gt;QDefinition</title>
<path fill="none" stroke="black" d="M1590.57,-899.48C1331.82,-920.92 465.68,-992.69 210.12,-1013.86"/>
<polygon fill="black" stroke="black" points="209.53,-1010.4 199.85,-1014.71 210.1,-1017.38 209.53,-1010.4"/>
</g>
<!-- ScopeType -->
<g id="node6" class="node">
<title>ScopeType</title>
<ellipse fill="none" stroke="black" cx="1797.25" cy="-893.38" rx="61.19" ry="18"/>
<text text-anchor="middle" x="1797.25" y="-889.68" font-family="Times,serif" font-size="14.00">ScopeType</text>
</g>
<!-- DataDefinition&#45;&gt;ScopeType -->
<g id="edge4" class="edge">
<title>DataDefinition&#45;&gt;ScopeType</title>
<path fill="none" stroke="black" d="M1742.34,-893.38C1742.4,-893.38 1742.46,-893.38 1742.51,-893.38"/>
<polygon fill="black" stroke="black" points="1732.68,-896.89 1742.68,-893.38 1732.68,-889.89 1732.68,-896.89"/>
</g>
<!-- DecRef -->
<g id="node7" class="node">
<title>DecRef</title>
<ellipse fill="none" stroke="black" cx="832.69" cy="-1658.79" rx="44.39" ry="18"/>
<text text-anchor="middle" x="832.69" y="-1655.09" font-family="Times,serif" font-size="14.00">DecRef</text>
</g>
<!-- DataDefinition&#45;&gt;DecRef -->
<g id="edge5" class="edge">
<title>DataDefinition&#45;&gt;DecRef</title>
<path fill="none" stroke="black" d="M1644.82,-911.17C1534.47,-1012.75 984.68,-1518.87 858.53,-1635.01"/>
<polygon fill="black" stroke="black" points="855.82,-1632.74 850.84,-1642.09 860.56,-1637.89 855.82,-1632.74"/>
</g>
<!-- MaybeDerivation -->
<g id="node8" class="node">
<title>MaybeDerivation</title>
<ellipse fill="none" stroke="black" cx="1622.54" cy="-1142.76" rx="90.98" ry="18"/>
<text text-anchor="middle" x="1622.54" y="-1139.06" font-family="Times,serif" font-size="14.00">MaybeDerivation</text>
</g>
<!-- DataDefinition&#45;&gt;MaybeDerivation -->
<g id="edge6" class="edge">
<title>DataDefinition&#45;&gt;MaybeDerivation</title>
<path fill="none" stroke="black" d="M1661.09,-911.72C1653.89,-954.88 1635.83,-1063.11 1627.23,-1114.64"/>
<polygon fill="black" stroke="black" points="1623.74,-1114.29 1625.54,-1124.73 1630.64,-1115.44 1623.74,-1114.29"/>
</g>
<!-- ShortName -->
<g id="node9" class="node">
<title>ShortName</title>
<ellipse fill="none" stroke="black" cx="1084.66" cy="-1637.91" rx="63.89" ry="18"/>
<text text-anchor="middle" x="1084.66" y="-1634.21" font-family="Times,serif" font-size="14.00">ShortName</text>
</g>
<!-- DataDefinition&#45;&gt;ShortName -->
<g id="edge7" class="edge">
<title>DataDefinition&#45;&gt;ShortName</title>
<path fill="none" stroke="black" d="M1650.11,-911.41C1572.54,-1011.07 1196.54,-1494.17 1104.85,-1611.97"/>
<polygon fill="black" stroke="black" points="1101.89,-1610.07 1098.51,-1620.11 1107.42,-1614.37 1101.89,-1610.07"/>
</g>
<!-- String -->
<g id="node10" class="node">
<title>String</title>
<ellipse fill="none" stroke="black" cx="1502.2" cy="-1365.11" rx="40.09" ry="18"/>
<text text-anchor="middle" x="1502.2" y="-1361.41" font-family="Times,serif" font-size="14.00">String</text>
</g>
<!-- DataDefinition&#45;&gt;String -->
<g id="edge8" class="edge">
<title>DataDefinition&#45;&gt;String</title>
<path fill="none" stroke="black" d="M1657.9,-911.58C1633.1,-983.83 1541.52,-1250.6 1511.67,-1337.53"/>
<polygon fill="black" stroke="black" points="1508.28,-1336.62 1508.35,-1347.22 1514.9,-1338.9 1508.28,-1336.62"/>
</g>
<!-- Sentence -->
<g id="node11" class="node">
<title>Sentence</title>
<ellipse fill="none" stroke="black" cx="375.94" cy="-1458.44" rx="53.89" ry="18"/>
<text text-anchor="middle" x="375.94" y="-1454.74" font-family="Times,serif" font-size="14.00">Sentence</text>
</g>
<!-- DataDefinition&#45;&gt;Sentence -->
<g id="edge9" class="edge">
<title>DataDefinition&#45;&gt;Sentence</title>
<path fill="none" stroke="black" d="M1627.67,-909.38C1443.36,-990.23 615.56,-1353.33 418.26,-1439.88"/>
<polygon fill="black" stroke="black" points="416.56,-1436.8 408.81,-1444.02 419.38,-1443.21 416.56,-1436.8"/>
</g>
<!-- Scope -->
<g id="node12" class="node">
<title>Scope</title>
<ellipse fill="none" stroke="darkgreen" cx="823.58" cy="-18" rx="38.19" ry="18"/>
<text text-anchor="middle" x="823.58" y="-14.3" font-family="Times,serif" font-size="14.00">Scope</text>
</g>
<!-- UID -->
<g id="node13" class="node">
<title>UID</title>
<ellipse fill="none" stroke="black" cx="832.69" cy="-127.97" rx="29.5" ry="18"/>
<text text-anchor="middle" x="832.69" y="-124.27" font-family="Times,serif" font-size="14.00">UID</text>
</g>
<!-- Scope&#45;&gt;UID -->
<g id="edge10" class="edge">
<title>Scope&#45;&gt;UID</title>
<path fill="none" stroke="black" d="M825.09,-36.16C826.52,-53.43 828.69,-79.67 830.35,-99.69"/>
<polygon fill="black" stroke="black" points="826.87,-100.11 831.19,-109.78 833.85,-99.53 826.87,-100.11"/>
</g>
<!-- GenDefn -->
<g id="node14" class="node">
<title>GenDefn</title>
<ellipse fill="none" stroke="#00cdcd" cx="1316.19" cy="-1536.35" rx="51.19" ry="18"/>
<text text-anchor="middle" x="1316.19" y="-1532.65" font-family="Times,serif" font-size="14.00">GenDefn</text>
</g>
<!-- GenDefn&#45;&gt;DecRef -->
<g id="edge14" class="edge">
<title>GenDefn&#45;&gt;DecRef</title>
<path fill="none" stroke="black" d="M1274.55,-1546.9C1185.04,-1569.56 974.79,-1622.81 880.23,-1646.75"/>
<polygon fill="black" stroke="black" points="879.2,-1643.4 870.37,-1649.25 880.92,-1650.19 879.2,-1643.4"/>
</g>
<!-- GenDefn&#45;&gt;MaybeDerivation -->
<g id="edge13" class="edge">
<title>GenDefn&#45;&gt;MaybeDerivation</title>
<path fill="none" stroke="black" d="M1329.75,-1518.93C1378.36,-1456.47 1544.11,-1243.53 1602.21,-1168.87"/>
<polygon fill="black" stroke="black" points="1605.06,-1170.92 1608.44,-1160.88 1599.53,-1166.62 1605.06,-1170.92"/>
</g>
<!-- GenDefn&#45;&gt;ShortName -->
<g id="edge15" class="edge">
<title>GenDefn&#45;&gt;ShortName</title>
<path fill="none" stroke="black" d="M1284,-1550.47C1243.51,-1568.23 1173.83,-1598.8 1128.5,-1618.68"/>
<polygon fill="black" stroke="black" points="1126.97,-1615.53 1119.22,-1622.75 1129.78,-1621.94 1126.97,-1615.53"/>
</g>
<!-- GenDefn&#45;&gt;String -->
<g id="edge16" class="edge">
<title>GenDefn&#45;&gt;String</title>
<path fill="none" stroke="black" d="M1334.71,-1519.31C1368.25,-1488.43 1439.1,-1423.2 1477.02,-1388.3"/>
<polygon fill="black" stroke="black" points="1479.59,-1390.69 1484.58,-1381.34 1474.85,-1385.54 1479.59,-1390.69"/>
</g>
<!-- GenDefn&#45;&gt;Sentence -->
<g id="edge17" class="edge">
<title>GenDefn&#45;&gt;Sentence</title>
<path fill="none" stroke="black" d="M1265.97,-1532.19C1106.84,-1519 613.94,-1478.16 438.63,-1463.63"/>
<polygon fill="black" stroke="black" points="438.79,-1460.14 428.53,-1462.8 438.21,-1467.11 438.79,-1460.14"/>
</g>
<!-- ModelKind -->
<g id="node15" class="node">
<title>ModelKind</title>
<ellipse fill="none" stroke="#00cdcd" cx="1084.66" cy="-148.85" rx="61.19" ry="18"/>
<text text-anchor="middle" x="1084.66" y="-145.15" font-family="Times,serif" font-size="14.00">ModelKind</text>
</g>
<!-- GenDefn&#45;&gt;ModelKind -->
<g id="edge11" class="edge">
<title>GenDefn&#45;&gt;ModelKind</title>
<path fill="none" stroke="black" d="M1313.18,-1518.3C1288.51,-1370.44 1119.81,-359.48 1089.36,-177.04"/>
<polygon fill="black" stroke="black" points="1092.77,-176.19 1087.67,-166.91 1085.87,-177.35 1092.77,-176.19"/>
</g>
<!-- MaybeUnitDefn -->
<g id="node16" class="node">
<title>MaybeUnitDefn</title>
<ellipse fill="none" stroke="black" cx="1401.79" cy="-1667.36" rx="84.49" ry="18"/>
<text text-anchor="middle" x="1401.79" y="-1663.66" font-family="Times,serif" font-size="14.00">MaybeUnitDefn</text>
</g>
<!-- GenDefn&#45;&gt;MaybeUnitDefn -->
<g id="edge12" class="edge">
<title>GenDefn&#45;&gt;MaybeUnitDefn</title>
<path fill="none" stroke="black" d="M1327.74,-1554.02C1342.27,-1576.26 1367.37,-1614.68 1384.27,-1640.55"/>
<polygon fill="black" stroke="black" points="1381.48,-1642.67 1389.88,-1649.13 1387.34,-1638.85 1381.48,-1642.67"/>
</g>
<!-- ModelKind&#45;&gt;UID -->
<g id="edge31" class="edge">
<title>ModelKind&#45;&gt;UID</title>
<path fill="none" stroke="black" d="M1025.58,-143.95C978.22,-140.03 913.07,-134.63 871.93,-131.22"/>
<polygon fill="black" stroke="black" points="872.01,-127.72 861.75,-130.38 871.43,-134.69 872.01,-127.72"/>
</g>
<!-- ModelKinds -->
<g id="node25" class="node">
<title>ModelKinds</title>
<ellipse fill="none" stroke="darkviolet" cx="1316.19" cy="-250.41" rx="65.79" ry="18"/>
<text text-anchor="middle" x="1316.19" y="-246.71" font-family="Times,serif" font-size="14.00">ModelKinds</text>
</g>
<!-- ModelKind&#45;&gt;ModelKinds -->
<g id="edge30" class="edge">
<title>ModelKind&#45;&gt;ModelKinds</title>
<path fill="none" stroke="black" d="M1118.82,-163.83C1159.37,-181.62 1227.09,-211.33 1271.7,-230.89"/>
<polygon fill="black" stroke="black" points="1270.57,-234.22 1281.13,-235.03 1273.38,-227.81 1270.57,-234.22"/>
</g>
<!-- NP -->
<g id="node26" class="node">
<title>NP</title>
<ellipse fill="none" stroke="black" cx="1108.96" cy="-52.88" rx="27" ry="18"/>
<text text-anchor="middle" x="1108.96" y="-49.18" font-family="Times,serif" font-size="14.00">NP</text>
</g>
<!-- ModelKind&#45;&gt;NP -->
<g id="edge32" class="edge">
<title>ModelKind&#45;&gt;NP</title>
<path fill="none" stroke="black" d="M1089.23,-130.8C1092.79,-116.72 1097.81,-96.93 1101.89,-80.81"/>
<polygon fill="black" stroke="black" points="1105.35,-81.4 1104.41,-70.85 1098.56,-79.68 1105.35,-81.4"/>
</g>
<!-- InstanceModel -->
<g id="node17" class="node">
<title>InstanceModel</title>
<ellipse fill="none" stroke="#00cdcd" cx="587.6" cy="-1596.72" rx="79.09" ry="18"/>
<text text-anchor="middle" x="587.6" y="-1593.02" font-family="Times,serif" font-size="14.00">InstanceModel</text>
</g>
<!-- InstanceModel&#45;&gt;DecRef -->
<g id="edge21" class="edge">
<title>InstanceModel&#45;&gt;DecRef</title>
<path fill="none" stroke="black" d="M640.78,-1610.19C683.7,-1621.06 743.55,-1636.22 784.95,-1646.7"/>
<polygon fill="black" stroke="black" points="784.24,-1650.13 794.8,-1649.19 785.96,-1643.34 784.24,-1650.13"/>
</g>
<!-- InstanceModel&#45;&gt;MaybeDerivation -->
<g id="edge22" class="edge">
<title>InstanceModel&#45;&gt;MaybeDerivation</title>
<path fill="none" stroke="black" d="M624.13,-1580.7C781.32,-1511.75 1400.07,-1240.34 1575.78,-1163.27"/>
<polygon fill="black" stroke="black" points="1577.27,-1166.44 1585.02,-1159.21 1574.46,-1160.03 1577.27,-1166.44"/>
</g>
<!-- InstanceModel&#45;&gt;ShortName -->
<g id="edge23" class="edge">
<title>InstanceModel&#45;&gt;ShortName</title>
<path fill="none" stroke="black" d="M662.29,-1602.91C757.11,-1610.77 919.58,-1624.23 1012.96,-1631.97"/>
<polygon fill="black" stroke="black" points="1012.91,-1635.48 1023.16,-1632.81 1013.48,-1628.5 1012.91,-1635.48"/>
</g>
<!-- InstanceModel&#45;&gt;String -->
<g id="edge24" class="edge">
<title>InstanceModel&#45;&gt;String</title>
<path fill="none" stroke="black" d="M640.73,-1583.27C805.08,-1541.65 1303.4,-1415.46 1456.78,-1376.62"/>
<polygon fill="black" stroke="black" points="1457.96,-1379.93 1466.8,-1374.08 1456.25,-1373.14 1457.96,-1379.93"/>
</g>
<!-- InstanceModel&#45;&gt;Sentence -->
<g id="edge25" class="edge">
<title>InstanceModel&#45;&gt;Sentence</title>
<path fill="none" stroke="black" d="M561.22,-1579.49C522.74,-1554.34 451.21,-1507.62 409.18,-1480.15"/>
<polygon fill="black" stroke="black" points="410.97,-1477.14 400.68,-1474.6 407.14,-1483 410.97,-1477.14"/>
</g>
<!-- InstanceModel&#45;&gt;ModelKind -->
<g id="edge18" class="edge">
<title>InstanceModel&#45;&gt;ModelKind</title>
<path fill="none" stroke="black" d="M593.8,-1578.68C645.97,-1426.72 1011.6,-361.67 1075.23,-176.32"/>
<polygon fill="black" stroke="black" points="1078.57,-177.36 1078.51,-166.76 1071.95,-175.09 1078.57,-177.36"/>
</g>
<!-- Inputs -->
<g id="node18" class="node">
<title>Inputs</title>
<ellipse fill="none" stroke="#ee0000" cx="542.49" cy="-1699.56" rx="40.09" ry="18"/>
<text text-anchor="middle" x="542.49" y="-1695.86" font-family="Times,serif" font-size="14.00">Inputs</text>
</g>
<!-- InstanceModel&#45;&gt;Inputs -->
<g id="edge19" class="edge">
<title>InstanceModel&#45;&gt;Inputs</title>
<path fill="none" stroke="black" d="M579.75,-1614.64C572.73,-1630.64 562.35,-1654.3 554.32,-1672.59"/>
<polygon fill="black" stroke="black" points="551.07,-1671.29 550.26,-1681.85 557.48,-1674.1 551.07,-1671.29"/>
</g>
<!-- Output -->
<g id="node19" class="node">
<title>Output</title>
<ellipse fill="none" stroke="#ee0000" cx="138.56" cy="-766.97" rx="43.59" ry="18"/>
<text text-anchor="middle" x="138.56" y="-763.27" font-family="Times,serif" font-size="14.00">Output</text>
</g>
<!-- InstanceModel&#45;&gt;Output -->
<g id="edge20" class="edge">
<title>InstanceModel&#45;&gt;Output</title>
<path fill="none" stroke="black" d="M577.81,-1578.62C519.87,-1471.57 222.29,-921.68 152.99,-793.64"/>
<polygon fill="black" stroke="black" points="156.07,-791.96 148.23,-784.83 149.91,-795.29 156.07,-791.96"/>
</g>
<!-- Input -->
<g id="node20" class="node">
<title>Input</title>
<ellipse fill="none" stroke="#ee0000" cx="483.03" cy="-1835.14" rx="36" ry="18"/>
<text text-anchor="middle" x="483.03" y="-1831.44" font-family="Times,serif" font-size="14.00">Input</text>
</g>
<!-- Inputs&#45;&gt;Input -->
<g id="edge27" class="edge">
<title>Inputs&#45;&gt;Input</title>
<path fill="none" stroke="black" d="M534.72,-1717.29C524.57,-1740.43 506.7,-1781.15 494.87,-1808.14"/>
<polygon fill="black" stroke="black" points="491.61,-1806.84 490.8,-1817.41 498.02,-1809.66 491.61,-1806.84"/>
</g>
<!-- QuantityDict -->
<g id="node22" class="node">
<title>QuantityDict</title>
<ellipse fill="none" stroke="black" cx="220.65" cy="-527.84" rx="70.39" ry="18"/>
<text text-anchor="middle" x="220.65" y="-524.14" font-family="Times,serif" font-size="14.00">QuantityDict</text>
</g>
<!-- Output&#45;&gt;QuantityDict -->
<g id="edge28" class="edge">
<title>Output&#45;&gt;QuantityDict</title>
<path fill="none" stroke="black" d="M144.73,-748.99C158.93,-707.62 194.02,-605.4 211.06,-555.77"/>
<polygon fill="black" stroke="black" points="214.47,-556.61 214.41,-546.02 207.85,-554.34 214.47,-556.61"/>
</g>
<!-- QuantityDictMaybeRealIntervalExprExpr -->
<g id="node21" class="node">
<title>QuantityDictMaybeRealIntervalExprExpr</title>
<ellipse fill="none" stroke="black" cx="358.03" cy="-2120.1" rx="203.36" ry="18"/>
<text text-anchor="middle" x="358.03" y="-2116.4" font-family="Times,serif" font-size="14.00">QuantityDictMaybeRealIntervalExprExpr</text>
</g>
<!-- Input&#45;&gt;QuantityDictMaybeRealIntervalExprExpr -->
<g id="edge26" class="edge">
<title>Input&#45;&gt;QuantityDictMaybeRealIntervalExprExpr</title>
<path fill="none" stroke="black" d="M475.21,-1852.96C454.04,-1901.22 395.49,-2034.69 370.07,-2092.65"/>
<polygon fill="black" stroke="black" points="366.82,-2091.35 366,-2101.92 373.23,-2094.17 366.82,-2091.35"/>
</g>
<!-- OutputConstraints -->
<g id="node23" class="node">
<title>OutputConstraints</title>
<ellipse fill="none" stroke="#ee0000" cx="1791.68" cy="-1712.38" rx="97.48" ry="18"/>
<text text-anchor="middle" x="1791.68" y="-1708.68" font-family="Times,serif" font-size="14.00">OutputConstraints</text>
</g>
<!-- RealIntervalExprExpr -->
<g id="node24" class="node">
<title>RealIntervalExprExpr</title>
<ellipse fill="none" stroke="black" cx="2073.61" cy="-1712.38" rx="112.38" ry="18"/>
<text text-anchor="middle" x="2073.61" y="-1708.68" font-family="Times,serif" font-size="14.00">RealIntervalExprExpr</text>
</g>
<!-- OutputConstraints&#45;&gt;RealIntervalExprExpr -->
<g id="edge29" class="edge">
<title>OutputConstraints&#45;&gt;RealIntervalExprExpr</title>
<path fill="none" stroke="black" d="M1889.49,-1712.38C1909.31,-1712.38 1930.39,-1712.38 1950.94,-1712.38"/>
<polygon fill="black" stroke="black" points="1950.97,-1715.88 1960.97,-1712.38 1950.97,-1708.88 1950.97,-1715.88"/>
</g>
<!-- ModelKinds&#45;&gt;ConstraintSet -->
<g id="edge34" class="edge">
<title>ModelKinds&#45;&gt;ConstraintSet</title>
<path fill="none" stroke="black" d="M1329.95,-268.08C1378.83,-330.88 1544.27,-543.44 1602.25,-617.94"/>
<polygon fill="black" stroke="black" points="1599.56,-620.18 1608.47,-625.92 1605.09,-615.88 1599.56,-620.18"/>
</g>
<!-- ModelKinds&#45;&gt;QDefinition -->
<g id="edge35" class="edge">
<title>ModelKinds&#45;&gt;QDefinition</title>
<path fill="none" stroke="black" d="M1290.78,-267.01C1138.39,-366.57 346.6,-883.87 172.46,-997.65"/>
<polygon fill="black" stroke="black" points="170.4,-994.81 163.94,-1003.21 174.23,-1000.67 170.4,-994.81"/>
</g>
<!-- RelationConcept -->
<g id="node27" class="node">
<title>RelationConcept</title>
<ellipse fill="none" stroke="black" cx="1403.21" cy="-117.22" rx="87.18" ry="18"/>
<text text-anchor="middle" x="1403.21" y="-113.52" font-family="Times,serif" font-size="14.00">RelationConcept</text>
</g>
<!-- ModelKinds&#45;&gt;RelationConcept -->
<g id="edge33" class="edge">
<title>ModelKinds&#45;&gt;RelationConcept</title>
<path fill="none" stroke="black" d="M1327.93,-232.45C1342.78,-209.71 1368.51,-170.34 1385.69,-144.03"/>
<polygon fill="black" stroke="black" points="1388.84,-145.61 1391.38,-135.32 1382.98,-141.78 1388.84,-145.61"/>
</g>
<!-- MultiDefn -->
<g id="node28" class="node">
<title>MultiDefn</title>
<ellipse fill="none" stroke="#00cdcd" cx="375.94" cy="-328.32" rx="57.69" ry="18"/>
<text text-anchor="middle" x="375.94" y="-324.62" font-family="Times,serif" font-size="14.00">MultiDefn</text>
</g>
<!-- ModelKinds&#45;&gt;MultiDefn -->
<g id="edge36" class="edge">
<title>ModelKinds&#45;&gt;MultiDefn</title>
<path fill="none" stroke="black" d="M1253.04,-255.64C1082.78,-269.75 615.42,-308.48 441.92,-322.85"/>
<polygon fill="black" stroke="black" points="441.58,-319.37 431.91,-323.68 442.16,-326.34 441.58,-319.37"/>
</g>
<!-- MultiDefn&#45;&gt;Sentence -->
<g id="edge42" class="edge">
<title>MultiDefn&#45;&gt;Sentence</title>
<path fill="none" stroke="black" d="M375.94,-346.53C375.94,-477.11 375.94,-1270.35 375.94,-1430.33"/>
<polygon fill="black" stroke="black" points="372.44,-1430.34 375.94,-1440.34 379.44,-1430.34 372.44,-1430.34"/>
</g>
<!-- MultiDefn&#45;&gt;UID -->
<g id="edge40" class="edge">
<title>MultiDefn&#45;&gt;UID</title>
<path fill="none" stroke="black" d="M409.53,-313.59C494.15,-276.47 715.33,-179.45 799.51,-142.52"/>
<polygon fill="black" stroke="black" points="801.1,-145.65 808.85,-138.43 798.29,-139.24 801.1,-145.65"/>
</g>
<!-- MultiDefn&#45;&gt;QuantityDict -->
<g id="edge41" class="edge">
<title>MultiDefn&#45;&gt;QuantityDict</title>
<path fill="none" stroke="black" d="M362.16,-346.03C334.59,-381.45 272.56,-461.15 240.57,-502.25"/>
<polygon fill="black" stroke="black" points="237.78,-500.13 234.4,-510.17 243.31,-504.43 237.78,-500.13"/>
</g>
<!-- NonEmptyDefiningExpr -->
<g id="node31" class="node">
<title>NonEmptyDefiningExpr</title>
<ellipse fill="none" stroke="black" cx="244.42" cy="-185.45" rx="122.38" ry="18"/>
<text text-anchor="middle" x="244.42" y="-181.75" font-family="Times,serif" font-size="14.00">NonEmptyDefiningExpr</text>
</g>
<!-- MultiDefn&#45;&gt;NonEmptyDefiningExpr -->
<g id="edge43" class="edge">
<title>MultiDefn&#45;&gt;NonEmptyDefiningExpr</title>
<path fill="none" stroke="black" d="M359.82,-310.8C336.87,-285.87 294.64,-240 268.13,-211.2"/>
<polygon fill="black" stroke="black" points="270.44,-208.55 261.1,-203.56 265.29,-213.29 270.44,-208.55"/>
</g>
<!-- DefiningExpr -->
<g id="node29" class="node">
<title>DefiningExpr</title>
<ellipse fill="none" stroke="#00cdcd" cx="587.6" cy="-190.04" rx="72.29" ry="18"/>
<text text-anchor="middle" x="587.6" y="-186.34" font-family="Times,serif" font-size="14.00">DefiningExpr</text>
</g>
<!-- DefiningExpr&#45;&gt;Sentence -->
<g id="edge38" class="edge">
<title>DefiningExpr&#45;&gt;Sentence</title>
<path fill="none" stroke="black" d="M584.53,-208.45C560.99,-349.53 409.41,-1257.9 380.65,-1430.24"/>
<polygon fill="black" stroke="black" points="377.16,-1429.86 378.97,-1440.29 384.07,-1431.01 377.16,-1429.86"/>
</g>
<!-- DefiningExpr&#45;&gt;UID -->
<g id="edge37" class="edge">
<title>DefiningExpr&#45;&gt;UID</title>
<path fill="none" stroke="black" d="M638.39,-177.18C685.28,-165.3 753.81,-147.95 795.71,-137.34"/>
<polygon fill="black" stroke="black" points="796.67,-140.7 805.5,-134.86 794.95,-133.92 796.67,-140.7"/>
</g>
<!-- Expr -->
<g id="node30" class="node">
<title>Expr</title>
<ellipse fill="none" stroke="black" cx="545.37" cy="-93.74" rx="33.29" ry="18"/>
<text text-anchor="middle" x="545.37" y="-90.04" font-family="Times,serif" font-size="14.00">Expr</text>
</g>
<!-- DefiningExpr&#45;&gt;Expr -->
<g id="edge39" class="edge">
<title>DefiningExpr&#45;&gt;Expr</title>
<path fill="none" stroke="black" d="M579.66,-171.92C573.36,-157.58 564.47,-137.31 557.32,-121"/>
<polygon fill="black" stroke="black" points="560.35,-119.2 553.13,-111.45 553.94,-122.01 560.35,-119.2"/>
</g>
<!-- TheoryModel -->
<g id="node32" class="node">
<title>TheoryModel</title>
<ellipse fill="none" stroke="#00cdcd" cx="220.65" cy="-1258.92" rx="71.49" ry="18"/>
<text text-anchor="middle" x="220.65" y="-1255.22" font-family="Times,serif" font-size="14.00">TheoryModel</text>
</g>
<!-- TheoryModel&#45;&gt;ConceptChunk -->
<g id="edge48" class="edge">
<title>TheoryModel&#45;&gt;ConceptChunk</title>
<path fill="none" stroke="black" d="M246.54,-1242.01C408.53,-1136.18 1281.78,-565.65 1467.47,-444.33"/>
<polygon fill="black" stroke="black" points="1469.58,-447.14 1476.04,-438.74 1465.75,-441.28 1469.58,-447.14"/>
</g>
<!-- TheoryModel&#45;&gt;QDefinition -->
<g id="edge49" class="edge">
<title>TheoryModel&#45;&gt;QDefinition</title>
<path fill="none" stroke="black" d="M214.48,-1240.95C200.28,-1199.58 165.19,-1097.36 148.15,-1047.73"/>
<polygon fill="black" stroke="black" points="151.36,-1046.3 144.8,-1037.98 144.74,-1048.57 151.36,-1046.3"/>
</g>
<!-- TheoryModel&#45;&gt;DecRef -->
<g id="edge51" class="edge">
<title>TheoryModel&#45;&gt;DecRef</title>
<path fill="none" stroke="black" d="M246.56,-1275.85C344.6,-1339.9 692.75,-1567.36 800.6,-1637.82"/>
<polygon fill="black" stroke="black" points="798.83,-1640.85 809.12,-1643.39 802.66,-1634.99 798.83,-1640.85"/>
</g>
<!-- TheoryModel&#45;&gt;ShortName -->
<g id="edge52" class="edge">
<title>TheoryModel&#45;&gt;ShortName</title>
<path fill="none" stroke="black" d="M256.41,-1274.61C393.99,-1334.95 889.08,-1552.12 1040.41,-1618.5"/>
<polygon fill="black" stroke="black" points="1039.31,-1621.84 1049.87,-1622.65 1042.12,-1615.43 1039.31,-1621.84"/>
</g>
<!-- TheoryModel&#45;&gt;String -->
<g id="edge53" class="edge">
<title>TheoryModel&#45;&gt;String</title>
<path fill="none" stroke="black" d="M288.65,-1264.56C517.04,-1283.48 1253.44,-1344.5 1452.31,-1360.98"/>
<polygon fill="black" stroke="black" points="1452.21,-1364.48 1462.46,-1361.82 1452.79,-1357.51 1452.21,-1364.48"/>
</g>
<!-- TheoryModel&#45;&gt;Sentence -->
<g id="edge54" class="edge">
<title>TheoryModel&#45;&gt;Sentence</title>
<path fill="none" stroke="black" d="M234.43,-1276.63C262,-1312.05 324.04,-1391.75 356.03,-1432.86"/>
<polygon fill="black" stroke="black" points="353.29,-1435.03 362.19,-1440.77 358.81,-1430.73 353.29,-1435.03"/>
</g>
<!-- TheoryModel&#45;&gt;ModelKind -->
<g id="edge44" class="edge">
<title>TheoryModel&#45;&gt;ModelKind</title>
<path fill="none" stroke="black" d="M234.57,-1241.04C334.8,-1112.26 945.71,-327.37 1064.61,-174.6"/>
<polygon fill="black" stroke="black" points="1067.44,-176.67 1070.82,-166.63 1061.92,-172.37 1067.44,-176.67"/>
</g>
<!-- TheoryModel&#45;&gt;QuantityDict -->
<g id="edge47" class="edge">
<title>TheoryModel&#45;&gt;QuantityDict</title>
<path fill="none" stroke="black" d="M220.65,-1240.85C220.65,-1142.98 220.65,-676.41 220.65,-556.16"/>
<polygon fill="black" stroke="black" points="224.15,-555.93 220.65,-545.93 217.15,-555.93 224.15,-555.93"/>
</g>
<!-- TheoryModel&#45;&gt;TheoryModel -->
<g id="edge45" class="edge">
<title>TheoryModel&#45;&gt;TheoryModel</title>
<path fill="none" stroke="black" d="M287.39,-1265.39C300.68,-1264.67 310.15,-1262.51 310.15,-1258.92 310.15,-1256.35 305.25,-1254.51 297.57,-1253.4"/>
<polygon fill="black" stroke="black" points="297.68,-1249.9 287.39,-1252.45 297.02,-1256.87 297.68,-1249.9"/>
</g>
<!-- SpaceDefn -->
<g id="node33" class="node">
<title>SpaceDefn</title>
<ellipse fill="none" stroke="black" cx="154.11" cy="-1405.85" rx="60.39" ry="18"/>
<text text-anchor="middle" x="154.11" y="-1402.15" font-family="Times,serif" font-size="14.00">SpaceDefn</text>
</g>
<!-- TheoryModel&#45;&gt;SpaceDefn -->
<g id="edge46" class="edge">
<title>TheoryModel&#45;&gt;SpaceDefn</title>
<path fill="none" stroke="black" d="M212.49,-1276.94C201.02,-1302.28 180.02,-1348.65 166.58,-1378.32"/>
<polygon fill="black" stroke="black" points="163.28,-1377.14 162.34,-1387.69 169.65,-1380.03 163.28,-1377.14"/>
</g>
<!-- ModelExpr -->
<g id="node34" class="node">
<title>ModelExpr</title>
<ellipse fill="none" stroke="black" cx="61.74" cy="-1235.47" rx="61.99" ry="18"/>
<text text-anchor="middle" x="61.74" y="-1231.77" font-family="Times,serif" font-size="14.00">ModelExpr</text>
</g>
<!-- TheoryModel&#45;&gt;ModelExpr -->
<g id="edge50" class="edge">
<title>TheoryModel&#45;&gt;ModelExpr</title>
<path fill="none" stroke="black" d="M158.76,-1249.79C148.33,-1248.25 137.47,-1246.64 126.95,-1245.09"/>
<polygon fill="black" stroke="black" points="127.4,-1241.62 117,-1243.62 126.38,-1248.55 127.4,-1241.62"/>
</g>
</g>
</svg>
