<?xml version="1.0" encoding="UTF-8" standalone="no"?>
<!DOCTYPE svg PUBLIC "-//W3C//DTD SVG 1.1//EN"
 "http://www.w3.org/Graphics/SVG/1.1/DTD/svg11.dtd">
<!-- Generated by graphviz version 2.43.0 (0)
 -->
<!-- Title: alltypes Pages: 1 -->
<svg width="3179pt" height="116pt"
 viewBox="0.00 0.00 3178.79 116.00" xmlns="http://www.w3.org/2000/svg" xmlns:xlink="http://www.w3.org/1999/xlink">
<g id="graph0" class="graph" transform="scale(1 1) rotate(0) translate(4 112)">
<title>alltypes</title>
<polygon fill="white" stroke="transparent" points="-4,4 -4,-112 3174.79,-112 3174.79,4 -4,4"/>
<!-- VarOrFunc -->
<g id="node1" class="node">
<title>VarOrFunc</title>
<ellipse fill="none" stroke="#00cdcd" cx="70.19" cy="-90" rx="61.19" ry="18"/>
<text text-anchor="middle" x="70.19" y="-86.3" font-family="Times,serif" font-size="14.00">VarOrFunc</text>
</g>
<!-- VarOrFunc&#45;&gt;VarOrFunc -->
<g id="edge2" class="edge">
<title>VarOrFunc&#45;&gt;VarOrFunc</title>
<path fill="none" stroke="black" d="M112.1,-103.2C131.9,-104.74 149.29,-100.34 149.29,-90 149.29,-81.52 137.59,-77.04 122.46,-76.55"/>
<polygon fill="black" stroke="black" points="122.02,-73.05 112.1,-76.8 122.19,-80.05 122.02,-73.05"/>
</g>
<!-- QuantityDict -->
<g id="node2" class="node">
<title>QuantityDict</title>
<ellipse fill="none" stroke="black" cx="70.19" cy="-18" rx="70.39" ry="18"/>
<text text-anchor="middle" x="70.19" y="-14.3" font-family="Times,serif" font-size="14.00">QuantityDict</text>
</g>
<!-- VarOrFunc&#45;&gt;QuantityDict -->
<g id="edge1" class="edge">
<title>VarOrFunc&#45;&gt;QuantityDict</title>
<path fill="none" stroke="black" d="M70.19,-71.7C70.19,-63.98 70.19,-54.71 70.19,-46.11"/>
<polygon fill="black" stroke="black" points="73.69,-46.1 70.19,-36.1 66.69,-46.1 73.69,-46.1"/>
</g>
<!-- CodeVarChunk -->
<g id="node3" class="node">
<title>CodeVarChunk</title>
<ellipse fill="none" stroke="#00cdcd" cx="438.19" cy="-90" rx="79.09" ry="18"/>
<text text-anchor="middle" x="438.19" y="-86.3" font-family="Times,serif" font-size="14.00">CodeVarChunk</text>
</g>
<!-- CodeChunk -->
<g id="node4" class="node">
<title>CodeChunk</title>
<ellipse fill="none" stroke="black" cx="257.19" cy="-18" rx="63.89" ry="18"/>
<text text-anchor="middle" x="257.19" y="-14.3" font-family="Times,serif" font-size="14.00">CodeChunk</text>
</g>
<!-- CodeVarChunk&#45;&gt;CodeChunk -->
<g id="edge3" class="edge">
<title>CodeVarChunk&#45;&gt;CodeChunk</title>
<path fill="none" stroke="black" d="M399.81,-74.15C371.44,-63.18 332.7,-48.2 302.75,-36.62"/>
<polygon fill="black" stroke="black" points="303.96,-33.33 293.37,-32.99 301.43,-39.86 303.96,-33.33"/>
</g>
<!-- MaybeCodeChunk -->
<g id="node5" class="node">
<title>MaybeCodeChunk</title>
<ellipse fill="none" stroke="black" cx="438.19" cy="-18" rx="94.78" ry="18"/>
<text text-anchor="middle" x="438.19" y="-14.3" font-family="Times,serif" font-size="14.00">MaybeCodeChunk</text>
</g>
<!-- CodeVarChunk&#45;&gt;MaybeCodeChunk -->
<g id="edge4" class="edge">
<title>CodeVarChunk&#45;&gt;MaybeCodeChunk</title>
<path fill="none" stroke="black" d="M438.19,-71.7C438.19,-63.98 438.19,-54.71 438.19,-46.11"/>
<polygon fill="black" stroke="black" points="441.69,-46.1 438.19,-36.1 434.69,-46.1 441.69,-46.1"/>
</g>
<!-- CodeFuncChunk -->
<g id="node6" class="node">
<title>CodeFuncChunk</title>
<ellipse fill="none" stroke="darkgreen" cx="254.19" cy="-90" rx="87.18" ry="18"/>
<text text-anchor="middle" x="254.19" y="-86.3" font-family="Times,serif" font-size="14.00">CodeFuncChunk</text>
</g>
<!-- CodeFuncChunk&#45;&gt;CodeChunk -->
<g id="edge5" class="edge">
<title>CodeFuncChunk&#45;&gt;CodeChunk</title>
<path fill="none" stroke="black" d="M254.94,-71.7C255.27,-63.98 255.66,-54.71 256.03,-46.11"/>
<polygon fill="black" stroke="black" points="259.53,-46.25 256.46,-36.1 252.54,-45.95 259.53,-46.25"/>
</g>
<!-- ArithBinOp -->
<g id="node7" class="node">
<title>ArithBinOp</title>
<ellipse fill="none" stroke="darkviolet" cx="614.19" cy="-18" rx="63.09" ry="18"/>
<text text-anchor="middle" x="614.19" y="-14.3" font-family="Times,serif" font-size="14.00">ArithBinOp</text>
</g>
<!-- EqBinOp -->
<g id="node8" class="node">
<title>EqBinOp</title>
<ellipse fill="none" stroke="darkviolet" cx="747.19" cy="-18" rx="51.99" ry="18"/>
<text text-anchor="middle" x="747.19" y="-14.3" font-family="Times,serif" font-size="14.00">EqBinOp</text>
</g>
<!-- BoolBinOp -->
<g id="node9" class="node">
<title>BoolBinOp</title>
<ellipse fill="none" stroke="darkviolet" cx="877.19" cy="-18" rx="59.59" ry="18"/>
<text text-anchor="middle" x="877.19" y="-14.3" font-family="Times,serif" font-size="14.00">BoolBinOp</text>
</g>
<!-- LABinOp -->
<g id="node10" class="node">
<title>LABinOp</title>
<ellipse fill="none" stroke="darkviolet" cx="1007.19" cy="-18" rx="51.99" ry="18"/>
<text text-anchor="middle" x="1007.19" y="-14.3" font-family="Times,serif" font-size="14.00">LABinOp</text>
</g>
<!-- OrdBinOp -->
<g id="node11" class="node">
<title>OrdBinOp</title>
<ellipse fill="none" stroke="darkviolet" cx="1134.19" cy="-18" rx="57.39" ry="18"/>
<text text-anchor="middle" x="1134.19" y="-14.3" font-family="Times,serif" font-size="14.00">OrdBinOp</text>
</g>
<!-- VVVBinOp -->
<g id="node12" class="node">
<title>VVVBinOp</title>
<ellipse fill="none" stroke="darkviolet" cx="1268.19" cy="-18" rx="58.49" ry="18"/>
<text text-anchor="middle" x="1268.19" y="-14.3" font-family="Times,serif" font-size="14.00">VVVBinOp</text>
</g>
<!-- VVNBinOp -->
<g id="node13" class="node">
<title>VVNBinOp</title>
<ellipse fill="none" stroke="darkviolet" cx="1404.19" cy="-18" rx="59.59" ry="18"/>
<text text-anchor="middle" x="1404.19" y="-14.3" font-family="Times,serif" font-size="14.00">VVNBinOp</text>
</g>
<!-- NVVBinOp -->
<g id="node14" class="node">
<title>NVVBinOp</title>
<ellipse fill="none" stroke="darkviolet" cx="1542.19" cy="-18" rx="59.59" ry="18"/>
<text text-anchor="middle" x="1542.19" y="-14.3" font-family="Times,serif" font-size="14.00">NVVBinOp</text>
</g>
<!-- AssocArithOper -->
<g id="node15" class="node">
<title>AssocArithOper</title>
<ellipse fill="none" stroke="darkviolet" cx="1703.19" cy="-18" rx="83.39" ry="18"/>
<text text-anchor="middle" x="1703.19" y="-14.3" font-family="Times,serif" font-size="14.00">AssocArithOper</text>
</g>
<!-- AssocBoolOper -->
<g id="node16" class="node">
<title>AssocBoolOper</title>
<ellipse fill="none" stroke="darkviolet" cx="1885.19" cy="-18" rx="80.69" ry="18"/>
<text text-anchor="middle" x="1885.19" y="-14.3" font-family="Times,serif" font-size="14.00">AssocBoolOper</text>
</g>
<!-- UFunc -->
<g id="node17" class="node">
<title>UFunc</title>
<ellipse fill="none" stroke="darkviolet" cx="2025.19" cy="-18" rx="41.69" ry="18"/>
<text text-anchor="middle" x="2025.19" y="-14.3" font-family="Times,serif" font-size="14.00">UFunc</text>
</g>
<!-- UFuncB -->
<g id="node18" class="node">
<title>UFuncB</title>
<ellipse fill="none" stroke="darkviolet" cx="2133.19" cy="-18" rx="48.19" ry="18"/>
<text text-anchor="middle" x="2133.19" y="-14.3" font-family="Times,serif" font-size="14.00">UFuncB</text>
</g>
<!-- UFuncVV -->
<g id="node19" class="node">
<title>UFuncVV</title>
<ellipse fill="none" stroke="darkviolet" cx="2253.19" cy="-18" rx="53.89" ry="18"/>
<text text-anchor="middle" x="2253.19" y="-14.3" font-family="Times,serif" font-size="14.00">UFuncVV</text>
</g>
<!-- UFuncVN -->
<g id="node20" class="node">
<title>UFuncVN</title>
<ellipse fill="none" stroke="darkviolet" cx="2381.19" cy="-18" rx="55.79" ry="18"/>
<text text-anchor="middle" x="2381.19" y="-14.3" font-family="Times,serif" font-size="14.00">UFuncVN</text>
</g>
<!-- CodeExpr -->
<g id="node21" class="node">
<title>CodeExpr</title>
<ellipse fill="none" stroke="darkviolet" cx="1885.19" cy="-90" rx="56.59" ry="18"/>
<text text-anchor="middle" x="1885.19" y="-86.3" font-family="Times,serif" font-size="14.00">CodeExpr</text>
</g>
<!-- CodeExpr&#45;&gt;ArithBinOp -->
<g id="edge16" class="edge">
<title>CodeExpr&#45;&gt;ArithBinOp</title>
<path fill="none" stroke="black" d="M1829.01,-87.92C1623.26,-83.73 911.28,-67.26 686.19,-36 680.41,-35.2 674.4,-34.14 668.44,-32.95"/>
<polygon fill="black" stroke="black" points="669.01,-29.49 658.5,-30.84 667.55,-36.34 669.01,-29.49"/>
</g>
<!-- CodeExpr&#45;&gt;EqBinOp -->
<g id="edge18" class="edge">
<title>CodeExpr&#45;&gt;EqBinOp</title>
<path fill="none" stroke="black" d="M1828.81,-87.88C1636.57,-83.81 1007.66,-68.29 808.19,-36 803.68,-35.27 799.02,-34.33 794.38,-33.26"/>
<polygon fill="black" stroke="black" points="794.87,-29.78 784.32,-30.76 793.18,-36.57 794.87,-29.78"/>
</g>
<!-- CodeExpr&#45;&gt;BoolBinOp -->
<g id="edge17" class="edge">
<title>CodeExpr&#45;&gt;BoolBinOp</title>
<path fill="none" stroke="black" d="M1828.46,-89.44C1681.69,-89.8 1277.82,-85.77 946.19,-36 940.78,-35.19 935.17,-34.15 929.59,-32.98"/>
<polygon fill="black" stroke="black" points="930.17,-29.52 919.64,-30.77 928.65,-36.35 930.17,-29.52"/>
</g>
<!-- CodeExpr&#45;&gt;LABinOp -->
<g id="edge19" class="edge">
<title>CodeExpr&#45;&gt;LABinOp</title>
<path fill="none" stroke="black" d="M1828.27,-89.34C1694.58,-89.26 1350.56,-83.97 1068.19,-36 1063.68,-35.23 1059.03,-34.27 1054.39,-33.19"/>
<polygon fill="black" stroke="black" points="1054.89,-29.7 1044.34,-30.67 1053.19,-36.49 1054.89,-29.7"/>
</g>
<!-- CodeExpr&#45;&gt;OrdBinOp -->
<g id="edge20" class="edge">
<title>CodeExpr&#45;&gt;OrdBinOp</title>
<path fill="none" stroke="black" d="M1828.95,-87.89C1711.54,-84.87 1432.14,-73.96 1201.19,-36 1196.07,-35.16 1190.77,-34.11 1185.49,-32.96"/>
<polygon fill="black" stroke="black" points="1185.95,-29.48 1175.42,-30.64 1184.38,-36.3 1185.95,-29.48"/>
</g>
<!-- CodeExpr&#45;&gt;VVVBinOp -->
<g id="edge21" class="edge">
<title>CodeExpr&#45;&gt;VVVBinOp</title>
<path fill="none" stroke="black" d="M1829.39,-86.44C1729.61,-81.23 1514.29,-67.16 1335.19,-36 1330.22,-35.14 1325.08,-34.1 1319.95,-32.96"/>
<polygon fill="black" stroke="black" points="1320.69,-29.54 1310.16,-30.69 1319.11,-36.36 1320.69,-29.54"/>
</g>
<!-- CodeExpr&#45;&gt;VVNBinOp -->
<g id="edge22" class="edge">
<title>CodeExpr&#45;&gt;VVNBinOp</title>
<path fill="none" stroke="black" d="M1831.56,-84.07C1752.64,-76.36 1600.8,-59.85 1473.19,-36 1468.09,-35.05 1462.81,-33.95 1457.54,-32.78"/>
<polygon fill="black" stroke="black" points="1457.99,-29.29 1447.46,-30.46 1456.42,-36.11 1457.99,-29.29"/>
</g>
<!-- CodeExpr&#45;&gt;NVVBinOp -->
<g id="edge23" class="edge">
<title>CodeExpr&#45;&gt;NVVBinOp</title>
<path fill="none" stroke="black" d="M1837.03,-80.44C1782.19,-70.53 1689.98,-53.31 1611.19,-36 1606.27,-34.92 1601.17,-33.75 1596.06,-32.55"/>
<polygon fill="black" stroke="black" points="1596.83,-29.13 1586.29,-30.22 1595.2,-35.94 1596.83,-29.13"/>
</g>
<!-- CodeExpr&#45;&gt;AssocArithOper -->
<g id="edge8" class="edge">
<title>CodeExpr&#45;&gt;AssocArithOper</title>
<path fill="none" stroke="black" d="M1850.53,-75.67C1822.49,-64.88 1782.69,-49.57 1751.52,-37.59"/>
<polygon fill="black" stroke="black" points="1752.73,-34.3 1742.14,-33.98 1750.22,-40.84 1752.73,-34.3"/>
</g>
<!-- CodeExpr&#45;&gt;AssocBoolOper -->
<g id="edge9" class="edge">
<title>CodeExpr&#45;&gt;AssocBoolOper</title>
<path fill="none" stroke="black" d="M1885.19,-71.7C1885.19,-63.98 1885.19,-54.71 1885.19,-46.11"/>
<polygon fill="black" stroke="black" points="1888.69,-46.1 1885.19,-36.1 1881.69,-46.1 1888.69,-46.1"/>
</g>
<!-- CodeExpr&#45;&gt;UFunc -->
<g id="edge12" class="edge">
<title>CodeExpr&#45;&gt;UFunc</title>
<path fill="none" stroke="black" d="M1914.2,-74.5C1936.16,-63.51 1966.44,-48.38 1989.82,-36.69"/>
<polygon fill="black" stroke="black" points="1991.68,-39.67 1999.06,-32.07 1988.55,-33.41 1991.68,-39.67"/>
</g>
<!-- CodeExpr&#45;&gt;UFuncB -->
<g id="edge13" class="edge">
<title>CodeExpr&#45;&gt;UFuncB</title>
<path fill="none" stroke="black" d="M1926.99,-77.65C1965.73,-67.07 2024.94,-50.75 2076.19,-36 2079.78,-34.97 2083.49,-33.89 2087.21,-32.8"/>
<polygon fill="black" stroke="black" points="2088.44,-36.08 2097.04,-29.9 2086.46,-29.37 2088.44,-36.08"/>
</g>
<!-- CodeExpr&#45;&gt;UFuncVV -->
<g id="edge14" class="edge">
<title>CodeExpr&#45;&gt;UFuncVV</title>
<path fill="none" stroke="black" d="M1935.66,-81.68C1996.38,-72.54 2101.25,-55.69 2190.19,-36 2194.61,-35.02 2199.17,-33.94 2203.74,-32.8"/>
<polygon fill="black" stroke="black" points="2204.86,-36.13 2213.67,-30.26 2203.12,-29.35 2204.86,-36.13"/>
</g>
<!-- CodeExpr&#45;&gt;UFuncVN -->
<g id="edge15" class="edge">
<title>CodeExpr&#45;&gt;UFuncVN</title>
<path fill="none" stroke="black" d="M1939.31,-84.68C2021.33,-77.61 2181.8,-61.72 2316.19,-36 2320.96,-35.09 2325.88,-34.03 2330.8,-32.88"/>
<polygon fill="black" stroke="black" points="2331.92,-36.21 2340.82,-30.45 2330.27,-29.41 2331.92,-36.21"/>
</g>
<!-- CodeExpr&#45;&gt;CodeExpr -->
<g id="edge7" class="edge">
<title>CodeExpr&#45;&gt;CodeExpr</title>
<path fill="none" stroke="black" d="M1923.93,-103.14C1942.9,-104.86 1959.74,-100.48 1959.74,-90 1959.74,-81.49 1948.62,-77 1934.28,-76.54"/>
<polygon fill="black" stroke="black" points="1933.82,-73.05 1923.93,-76.86 1934.04,-80.05 1933.82,-73.05"/>
</g>
<!-- Literal -->
<g id="node22" class="node">
<title>Literal</title>
<ellipse fill="none" stroke="black" cx="2496.19" cy="-18" rx="41.69" ry="18"/>
<text text-anchor="middle" x="2496.19" y="-14.3" font-family="Times,serif" font-size="14.00">Literal</text>
</g>
<!-- CodeExpr&#45;&gt;Literal -->
<g id="edge6" class="edge">
<title>CodeExpr&#45;&gt;Literal</title>
<path fill="none" stroke="black" d="M1941.59,-88.01C2043.45,-85.26 2264.44,-74.92 2446.19,-36 2449.57,-35.28 2453.03,-34.4 2456.48,-33.43"/>
<polygon fill="black" stroke="black" points="2457.56,-36.76 2466.11,-30.49 2455.52,-30.06 2457.56,-36.76"/>
</g>
<!-- UID -->
<g id="node23" class="node">
<title>UID</title>
<ellipse fill="none" stroke="black" cx="2585.19" cy="-18" rx="29.5" ry="18"/>
<text text-anchor="middle" x="2585.19" y="-14.3" font-family="Times,serif" font-size="14.00">UID</text>
</g>
<!-- CodeExpr&#45;&gt;UID -->
<g id="edge10" class="edge">
<title>CodeExpr&#45;&gt;UID</title>
<path fill="none" stroke="black" d="M1941.17,-86.96C2079.23,-81.55 2433.04,-65.18 2547.19,-36 2549.5,-35.41 2551.84,-34.69 2554.17,-33.89"/>
<polygon fill="black" stroke="black" points="2555.52,-37.12 2563.55,-30.2 2552.96,-30.6 2555.52,-37.12"/>
</g>
<!-- Completeness -->
<g id="node24" class="node">
<title>Completeness</title>
<ellipse fill="none" stroke="black" cx="2708.19" cy="-18" rx="76.09" ry="18"/>
<text text-anchor="middle" x="2708.19" y="-14.3" font-family="Times,serif" font-size="14.00">Completeness</text>
</g>
<!-- CodeExpr&#45;&gt;Completeness -->
<g id="edge11" class="edge">
<title>CodeExpr&#45;&gt;Completeness</title>
<path fill="none" stroke="black" d="M1941.45,-87.37C2065.21,-83.26 2370.2,-70.25 2623.19,-36 2630.01,-35.08 2637.1,-33.94 2644.14,-32.7"/>
<polygon fill="black" stroke="black" points="2645.2,-36.07 2654.41,-30.82 2643.94,-29.18 2645.2,-36.07"/>
</g>
<!-- DiscreteDomainDesc -->
<g id="node25" class="node">
<title>DiscreteDomainDesc</title>
<ellipse fill="none" stroke="black" cx="2910.19" cy="-18" rx="107.78" ry="18"/>
<text text-anchor="middle" x="2910.19" y="-14.3" font-family="Times,serif" font-size="14.00">DiscreteDomainDesc</text>
</g>
<!-- CodeExpr&#45;&gt;DiscreteDomainDesc -->
<g id="edge24" class="edge">
<title>CodeExpr&#45;&gt;DiscreteDomainDesc</title>
<path fill="none" stroke="black" d="M1941.38,-87.4C2084.04,-82.98 2471.73,-68.67 2793.19,-36 2803.41,-34.96 2814.1,-33.68 2824.68,-32.29"/>
<polygon fill="black" stroke="black" points="2825.34,-35.73 2834.79,-30.93 2824.41,-28.8 2825.34,-35.73"/>
</g>
<!-- RealInterval -->
<g id="node26" class="node">
<title>RealInterval</title>
<ellipse fill="none" stroke="black" cx="3103.19" cy="-18" rx="67.69" ry="18"/>
<text text-anchor="middle" x="3103.19" y="-14.3" font-family="Times,serif" font-size="14.00">RealInterval</text>
</g>
<!-- CodeExpr&#45;&gt;RealInterval -->
<g id="edge25" class="edge">
<title>CodeExpr&#45;&gt;RealInterval</title>
<path fill="none" stroke="black" d="M1941.43,-87.68C2140.84,-82.82 2813.63,-64.62 3027.19,-36 3033.35,-35.18 3039.74,-34.1 3046.09,-32.89"/>
<polygon fill="black" stroke="black" points="3046.88,-36.3 3055.99,-30.89 3045.49,-29.44 3046.88,-36.3"/>
</g>
</g>
</svg>
