<?xml version="1.0" encoding="UTF-8" standalone="no"?>
<!DOCTYPE svg PUBLIC "-//W3C//DTD SVG 1.1//EN"
 "http://www.w3.org/Graphics/SVG/1.1/DTD/svg11.dtd">
<!-- Generated by graphviz version 2.43.0 (0)
 -->
<!-- Title: alltypes Pages: 1 -->
<svg width="2797pt" height="188pt"
 viewBox="0.00 0.00 2797.04 188.00" xmlns="http://www.w3.org/2000/svg" xmlns:xlink="http://www.w3.org/1999/xlink">
<g id="graph0" class="graph" transform="scale(1 1) rotate(0) translate(4 184)">
<title>alltypes</title>
<polygon fill="white" stroke="transparent" points="-4,4 -4,-184 2793.04,-184 2793.04,4 -4,4"/>
<!-- ChunkDB -->
<g id="node1" class="node">
<title>ChunkDB</title>
<ellipse fill="none" stroke="#00cdcd" cx="1219.79" cy="-162" rx="54.69" ry="18"/>
<text text-anchor="middle" x="1219.79" y="-158.3" font-family="Times,serif" font-size="14.00">ChunkDB</text>
</g>
<!-- SymbolMap -->
<g id="node2" class="node">
<title>SymbolMap</title>
<ellipse fill="none" stroke="#ee0000" cx="156.79" cy="-90" rx="65.79" ry="18"/>
<text text-anchor="middle" x="156.79" y="-86.3" font-family="Times,serif" font-size="14.00">SymbolMap</text>
</g>
<!-- ChunkDB&#45;&gt;SymbolMap -->
<g id="edge1" class="edge">
<title>ChunkDB&#45;&gt;SymbolMap</title>
<path fill="none" stroke="black" d="M1165.49,-160.06C1018.94,-157.09 603.25,-145.71 259.79,-108 246.73,-106.57 232.8,-104.58 219.55,-102.47"/>
<polygon fill="black" stroke="black" points="220,-99 209.57,-100.84 218.87,-105.91 220,-99"/>
</g>
<!-- TermMap -->
<g id="node3" class="node">
<title>TermMap</title>
<ellipse fill="none" stroke="#ee0000" cx="323.79" cy="-90" rx="55.49" ry="18"/>
<text text-anchor="middle" x="323.79" y="-86.3" font-family="Times,serif" font-size="14.00">TermMap</text>
</g>
<!-- ChunkDB&#45;&gt;TermMap -->
<g id="edge2" class="edge">
<title>ChunkDB&#45;&gt;TermMap</title>
<path fill="none" stroke="black" d="M1166.08,-158.49C1040.65,-152.36 718.74,-135.14 450.79,-108 428.53,-105.75 404.16,-102.64 382.77,-99.7"/>
<polygon fill="black" stroke="black" points="383.24,-96.23 372.86,-98.32 382.28,-103.16 383.24,-96.23"/>
</g>
<!-- ConceptMap -->
<g id="node4" class="node">
<title>ConceptMap</title>
<ellipse fill="none" stroke="#ee0000" cx="529.79" cy="-90" rx="69.59" ry="18"/>
<text text-anchor="middle" x="529.79" y="-86.3" font-family="Times,serif" font-size="14.00">ConceptMap</text>
</g>
<!-- ChunkDB&#45;&gt;ConceptMap -->
<g id="edge3" class="edge">
<title>ChunkDB&#45;&gt;ConceptMap</title>
<path fill="none" stroke="black" d="M1167.05,-156.95C1066.35,-149.02 839.81,-130.28 649.79,-108 633.18,-106.05 615.31,-103.67 598.57,-101.32"/>
<polygon fill="black" stroke="black" points="598.71,-97.81 588.31,-99.86 597.72,-104.74 598.71,-97.81"/>
</g>
<!-- UnitMap -->
<g id="node5" class="node">
<title>UnitMap</title>
<ellipse fill="none" stroke="#ee0000" cx="710.79" cy="-90" rx="51.99" ry="18"/>
<text text-anchor="middle" x="710.79" y="-86.3" font-family="Times,serif" font-size="14.00">UnitMap</text>
</g>
<!-- ChunkDB&#45;&gt;UnitMap -->
<g id="edge4" class="edge">
<title>ChunkDB&#45;&gt;UnitMap</title>
<path fill="none" stroke="black" d="M1167.82,-156.17C1086.6,-148.28 924.8,-131.13 788.79,-108 780.35,-106.56 771.43,-104.83 762.77,-103.03"/>
<polygon fill="black" stroke="black" points="763.26,-99.55 752.75,-100.89 761.8,-106.4 763.26,-99.55"/>
</g>
<!-- TraceMap -->
<g id="node6" class="node">
<title>TraceMap</title>
<ellipse fill="none" stroke="#ee0000" cx="854.79" cy="-90" rx="57.39" ry="18"/>
<text text-anchor="middle" x="854.79" y="-86.3" font-family="Times,serif" font-size="14.00">TraceMap</text>
</g>
<!-- ChunkDB&#45;&gt;TraceMap -->
<g id="edge5" class="edge">
<title>ChunkDB&#45;&gt;TraceMap</title>
<path fill="none" stroke="black" d="M1171.41,-153.59C1112.09,-144.25 1008.63,-127.07 920.79,-108 916.19,-107 911.43,-105.9 906.66,-104.76"/>
<polygon fill="black" stroke="black" points="907.47,-101.35 896.93,-102.37 905.8,-108.15 907.47,-101.35"/>
</g>
<!-- RefbyMap -->
<g id="node7" class="node">
<title>RefbyMap</title>
<ellipse fill="none" stroke="#ee0000" cx="987.79" cy="-90" rx="57.69" ry="18"/>
<text text-anchor="middle" x="987.79" y="-86.3" font-family="Times,serif" font-size="14.00">RefbyMap</text>
</g>
<!-- ChunkDB&#45;&gt;RefbyMap -->
<g id="edge6" class="edge">
<title>ChunkDB&#45;&gt;RefbyMap</title>
<path fill="none" stroke="black" d="M1180.96,-149.28C1141.59,-137.4 1080.51,-118.98 1037.6,-106.03"/>
<polygon fill="black" stroke="black" points="1038.5,-102.65 1027.92,-103.11 1036.48,-109.35 1038.5,-102.65"/>
</g>
<!-- DatadefnMap -->
<g id="node8" class="node">
<title>DatadefnMap</title>
<ellipse fill="none" stroke="#ee0000" cx="1136.79" cy="-90" rx="73.39" ry="18"/>
<text text-anchor="middle" x="1136.79" y="-86.3" font-family="Times,serif" font-size="14.00">DatadefnMap</text>
</g>
<!-- ChunkDB&#45;&gt;DatadefnMap -->
<g id="edge7" class="edge">
<title>ChunkDB&#45;&gt;DatadefnMap</title>
<path fill="none" stroke="black" d="M1200.54,-144.76C1189.72,-135.64 1176.04,-124.1 1164.13,-114.06"/>
<polygon fill="black" stroke="black" points="1166.13,-111.16 1156.22,-107.39 1161.61,-116.51 1166.13,-111.16"/>
</g>
<!-- InsModelMap -->
<g id="node9" class="node">
<title>InsModelMap</title>
<ellipse fill="none" stroke="#ee0000" cx="1302.79" cy="-90" rx="74.19" ry="18"/>
<text text-anchor="middle" x="1302.79" y="-86.3" font-family="Times,serif" font-size="14.00">InsModelMap</text>
</g>
<!-- ChunkDB&#45;&gt;InsModelMap -->
<g id="edge8" class="edge">
<title>ChunkDB&#45;&gt;InsModelMap</title>
<path fill="none" stroke="black" d="M1239.04,-144.76C1249.86,-135.64 1263.54,-124.1 1275.45,-114.06"/>
<polygon fill="black" stroke="black" points="1277.97,-116.51 1283.36,-107.39 1273.46,-111.16 1277.97,-116.51"/>
</g>
<!-- GendefMap -->
<g id="node10" class="node">
<title>GendefMap</title>
<ellipse fill="none" stroke="#ee0000" cx="1482.79" cy="-90" rx="64.19" ry="18"/>
<text text-anchor="middle" x="1482.79" y="-86.3" font-family="Times,serif" font-size="14.00">GendefMap</text>
</g>
<!-- ChunkDB&#45;&gt;GendefMap -->
<g id="edge9" class="edge">
<title>ChunkDB&#45;&gt;GendefMap</title>
<path fill="none" stroke="black" d="M1260.88,-150.06C1305.76,-138.12 1377.85,-118.93 1427.63,-105.68"/>
<polygon fill="black" stroke="black" points="1428.82,-108.99 1437.58,-103.03 1427.02,-102.22 1428.82,-108.99"/>
</g>
<!-- TheoryModelMap -->
<g id="node11" class="node">
<title>TheoryModelMap</title>
<ellipse fill="none" stroke="#ee0000" cx="1680.79" cy="-90" rx="92.08" ry="18"/>
<text text-anchor="middle" x="1680.79" y="-86.3" font-family="Times,serif" font-size="14.00">TheoryModelMap</text>
</g>
<!-- ChunkDB&#45;&gt;TheoryModelMap -->
<g id="edge10" class="edge">
<title>ChunkDB&#45;&gt;TheoryModelMap</title>
<path fill="none" stroke="black" d="M1268.25,-153.64C1347.18,-141.66 1504.29,-117.8 1600.21,-103.24"/>
<polygon fill="black" stroke="black" points="1600.8,-106.69 1610.16,-101.73 1599.75,-99.77 1600.8,-106.69"/>
</g>
<!-- ConceptInstanceMap -->
<g id="node12" class="node">
<title>ConceptInstanceMap</title>
<ellipse fill="none" stroke="#ee0000" cx="1918.79" cy="-90" rx="108.58" ry="18"/>
<text text-anchor="middle" x="1918.79" y="-86.3" font-family="Times,serif" font-size="14.00">ConceptInstanceMap</text>
</g>
<!-- ChunkDB&#45;&gt;ConceptInstanceMap -->
<g id="edge11" class="edge">
<title>ChunkDB&#45;&gt;ConceptInstanceMap</title>
<path fill="none" stroke="black" d="M1272.14,-156.58C1371.56,-148.07 1594.49,-128.45 1781.79,-108 1796.02,-106.45 1811.06,-104.69 1825.77,-102.92"/>
<polygon fill="black" stroke="black" points="1826.38,-106.37 1835.89,-101.69 1825.54,-99.42 1826.38,-106.37"/>
</g>
<!-- SectionMap -->
<g id="node13" class="node">
<title>SectionMap</title>
<ellipse fill="none" stroke="#ee0000" cx="2128.79" cy="-90" rx="65.79" ry="18"/>
<text text-anchor="middle" x="2128.79" y="-86.3" font-family="Times,serif" font-size="14.00">SectionMap</text>
</g>
<!-- ChunkDB&#45;&gt;SectionMap -->
<g id="edge12" class="edge">
<title>ChunkDB&#45;&gt;SectionMap</title>
<path fill="none" stroke="black" d="M1274.01,-159.69C1405.35,-156.04 1750.81,-143.57 2036.79,-108 2046.82,-106.75 2057.42,-105.11 2067.71,-103.33"/>
<polygon fill="black" stroke="black" points="2068.63,-106.72 2077.86,-101.52 2067.4,-99.83 2068.63,-106.72"/>
</g>
<!-- LabelledContentMap -->
<g id="node14" class="node">
<title>LabelledContentMap</title>
<ellipse fill="none" stroke="#ee0000" cx="2336.79" cy="-90" rx="107.78" ry="18"/>
<text text-anchor="middle" x="2336.79" y="-86.3" font-family="Times,serif" font-size="14.00">LabelledContentMap</text>
</g>
<!-- ChunkDB&#45;&gt;LabelledContentMap -->
<g id="edge13" class="edge">
<title>ChunkDB&#45;&gt;LabelledContentMap</title>
<path fill="none" stroke="black" d="M1274.03,-159.48C1422.84,-154.99 1850.04,-140.09 2203.79,-108 2217.82,-106.73 2232.66,-105.11 2247.13,-103.37"/>
<polygon fill="black" stroke="black" points="2247.57,-106.84 2257.07,-102.16 2246.72,-99.9 2247.57,-106.84"/>
</g>
<!-- ReferenceMap -->
<g id="node15" class="node">
<title>ReferenceMap</title>
<ellipse fill="none" stroke="#ee0000" cx="2556.79" cy="-90" rx="77.99" ry="18"/>
<text text-anchor="middle" x="2556.79" y="-86.3" font-family="Times,serif" font-size="14.00">ReferenceMap</text>
</g>
<!-- ChunkDB&#45;&gt;ReferenceMap -->
<g id="edge14" class="edge">
<title>ChunkDB&#45;&gt;ReferenceMap</title>
<path fill="none" stroke="black" d="M1274.39,-161C1447.55,-160.5 1999.75,-155.05 2453.79,-108 2464.95,-106.84 2476.73,-105.25 2488.18,-103.51"/>
<polygon fill="black" stroke="black" points="2488.8,-106.95 2498.13,-101.94 2487.71,-100.04 2488.8,-106.95"/>
</g>
<!-- UMapQuantityDict -->
<g id="node18" class="node">
<title>UMapQuantityDict</title>
<ellipse fill="none" stroke="black" cx="98.79" cy="-18" rx="98.58" ry="18"/>
<text text-anchor="middle" x="98.79" y="-14.3" font-family="Times,serif" font-size="14.00">UMapQuantityDict</text>
</g>
<!-- SymbolMap&#45;&gt;UMapQuantityDict -->
<g id="edge16" class="edge">
<title>SymbolMap&#45;&gt;UMapQuantityDict</title>
<path fill="none" stroke="black" d="M142.75,-72.05C135.8,-63.67 127.27,-53.38 119.59,-44.1"/>
<polygon fill="black" stroke="black" points="122.18,-41.74 113.11,-36.28 116.79,-46.21 122.18,-41.74"/>
</g>
<!-- UMapIdeaDict -->
<g id="node21" class="node">
<title>UMapIdeaDict</title>
<ellipse fill="none" stroke="black" cx="293.79" cy="-18" rx="77.99" ry="18"/>
<text text-anchor="middle" x="293.79" y="-14.3" font-family="Times,serif" font-size="14.00">UMapIdeaDict</text>
</g>
<!-- TermMap&#45;&gt;UMapIdeaDict -->
<g id="edge19" class="edge">
<title>TermMap&#45;&gt;UMapIdeaDict</title>
<path fill="none" stroke="black" d="M316.53,-72.05C313.12,-64.09 308.97,-54.41 305.15,-45.51"/>
<polygon fill="black" stroke="black" points="308.35,-44.09 301.19,-36.28 301.92,-46.85 308.35,-44.09"/>
</g>
<!-- UMapConceptChunk -->
<g id="node19" class="node">
<title>UMapConceptChunk</title>
<ellipse fill="none" stroke="black" cx="496.79" cy="-18" rx="106.68" ry="18"/>
<text text-anchor="middle" x="496.79" y="-14.3" font-family="Times,serif" font-size="14.00">UMapConceptChunk</text>
</g>
<!-- ConceptMap&#45;&gt;UMapConceptChunk -->
<g id="edge17" class="edge">
<title>ConceptMap&#45;&gt;UMapConceptChunk</title>
<path fill="none" stroke="black" d="M521.8,-72.05C518.05,-64.09 513.48,-54.41 509.29,-45.51"/>
<polygon fill="black" stroke="black" points="512.37,-43.83 504.94,-36.28 506.03,-46.81 512.37,-43.83"/>
</g>
<!-- UMapUnitDefn -->
<g id="node20" class="node">
<title>UMapUnitDefn</title>
<ellipse fill="none" stroke="black" cx="702.79" cy="-18" rx="81.49" ry="18"/>
<text text-anchor="middle" x="702.79" y="-14.3" font-family="Times,serif" font-size="14.00">UMapUnitDefn</text>
</g>
<!-- UnitMap&#45;&gt;UMapUnitDefn -->
<g id="edge18" class="edge">
<title>UnitMap&#45;&gt;UMapUnitDefn</title>
<path fill="none" stroke="black" d="M708.81,-71.7C707.93,-63.98 706.87,-54.71 705.89,-46.11"/>
<polygon fill="black" stroke="black" points="709.36,-45.64 704.75,-36.1 702.4,-46.44 709.36,-45.64"/>
</g>
<!-- MapUIDUID -->
<g id="node22" class="node">
<title>MapUIDUID</title>
<ellipse fill="none" stroke="black" cx="869.79" cy="-18" rx="68.49" ry="18"/>
<text text-anchor="middle" x="869.79" y="-14.3" font-family="Times,serif" font-size="14.00">MapUIDUID</text>
</g>
<!-- TraceMap&#45;&gt;MapUIDUID -->
<g id="edge20" class="edge">
<title>TraceMap&#45;&gt;MapUIDUID</title>
<path fill="none" stroke="black" d="M858.5,-71.7C860.15,-63.98 862.14,-54.71 863.98,-46.11"/>
<polygon fill="black" stroke="black" points="867.45,-46.62 866.13,-36.1 860.61,-45.15 867.45,-46.62"/>
</g>
<!-- RefbyMap&#45;&gt;MapUIDUID -->
<g id="edge21" class="edge">
<title>RefbyMap&#45;&gt;MapUIDUID</title>
<path fill="none" stroke="black" d="M962.19,-73.81C945.41,-63.86 923.26,-50.72 904.86,-39.8"/>
<polygon fill="black" stroke="black" points="906.55,-36.74 896.16,-34.64 902.98,-42.76 906.55,-36.74"/>
</g>
<!-- UMapDataDefinition -->
<g id="node23" class="node">
<title>UMapDataDefinition</title>
<ellipse fill="none" stroke="black" cx="1062.79" cy="-18" rx="106.68" ry="18"/>
<text text-anchor="middle" x="1062.79" y="-14.3" font-family="Times,serif" font-size="14.00">UMapDataDefinition</text>
</g>
<!-- DatadefnMap&#45;&gt;UMapDataDefinition -->
<g id="edge22" class="edge">
<title>DatadefnMap&#45;&gt;UMapDataDefinition</title>
<path fill="none" stroke="black" d="M1119.25,-72.41C1109.99,-63.65 1098.45,-52.73 1088.22,-43.06"/>
<polygon fill="black" stroke="black" points="1090.39,-40.29 1080.72,-35.96 1085.58,-45.37 1090.39,-40.29"/>
</g>
<!-- UMapInstanceModel -->
<g id="node24" class="node">
<title>UMapInstanceModel</title>
<ellipse fill="none" stroke="black" cx="1294.79" cy="-18" rx="107.48" ry="18"/>
<text text-anchor="middle" x="1294.79" y="-14.3" font-family="Times,serif" font-size="14.00">UMapInstanceModel</text>
</g>
<!-- InsModelMap&#45;&gt;UMapInstanceModel -->
<g id="edge23" class="edge">
<title>InsModelMap&#45;&gt;UMapInstanceModel</title>
<path fill="none" stroke="black" d="M1300.81,-71.7C1299.93,-63.98 1298.87,-54.71 1297.89,-46.11"/>
<polygon fill="black" stroke="black" points="1301.36,-45.64 1296.75,-36.1 1294.4,-46.44 1301.36,-45.64"/>
</g>
<!-- UMapGenDefn -->
<g id="node25" class="node">
<title>UMapGenDefn</title>
<ellipse fill="none" stroke="black" cx="1499.79" cy="-18" rx="79.09" ry="18"/>
<text text-anchor="middle" x="1499.79" y="-14.3" font-family="Times,serif" font-size="14.00">UMapGenDefn</text>
</g>
<!-- GendefMap&#45;&gt;UMapGenDefn -->
<g id="edge24" class="edge">
<title>GendefMap&#45;&gt;UMapGenDefn</title>
<path fill="none" stroke="black" d="M1486.99,-71.7C1488.89,-63.9 1491.17,-54.51 1493.28,-45.83"/>
<polygon fill="black" stroke="black" points="1496.68,-46.65 1495.64,-36.1 1489.88,-45 1496.68,-46.65"/>
</g>
<!-- UMapTheoryModel -->
<g id="node26" class="node">
<title>UMapTheoryModel</title>
<ellipse fill="none" stroke="black" cx="1696.79" cy="-18" rx="100.18" ry="18"/>
<text text-anchor="middle" x="1696.79" y="-14.3" font-family="Times,serif" font-size="14.00">UMapTheoryModel</text>
</g>
<!-- TheoryModelMap&#45;&gt;UMapTheoryModel -->
<g id="edge25" class="edge">
<title>TheoryModelMap&#45;&gt;UMapTheoryModel</title>
<path fill="none" stroke="black" d="M1684.75,-71.7C1686.51,-63.98 1688.63,-54.71 1690.59,-46.11"/>
<polygon fill="black" stroke="black" points="1694.07,-46.63 1692.88,-36.1 1687.24,-45.07 1694.07,-46.63"/>
</g>
<!-- UMapConceptInstance -->
<g id="node27" class="node">
<title>UMapConceptInstance</title>
<ellipse fill="none" stroke="black" cx="1930.79" cy="-18" rx="116.18" ry="18"/>
<text text-anchor="middle" x="1930.79" y="-14.3" font-family="Times,serif" font-size="14.00">UMapConceptInstance</text>
</g>
<!-- ConceptInstanceMap&#45;&gt;UMapConceptInstance -->
<g id="edge26" class="edge">
<title>ConceptInstanceMap&#45;&gt;UMapConceptInstance</title>
<path fill="none" stroke="black" d="M1921.76,-71.7C1923.08,-63.98 1924.67,-54.71 1926.14,-46.11"/>
<polygon fill="black" stroke="black" points="1929.62,-46.55 1927.86,-36.1 1922.72,-45.37 1929.62,-46.55"/>
</g>
<!-- UMapSection -->
<g id="node28" class="node">
<title>UMapSection</title>
<ellipse fill="none" stroke="black" cx="2138.79" cy="-18" rx="73.39" ry="18"/>
<text text-anchor="middle" x="2138.79" y="-14.3" font-family="Times,serif" font-size="14.00">UMapSection</text>
</g>
<!-- SectionMap&#45;&gt;UMapSection -->
<g id="edge27" class="edge">
<title>SectionMap&#45;&gt;UMapSection</title>
<path fill="none" stroke="black" d="M2131.26,-71.7C2132.37,-63.98 2133.69,-54.71 2134.92,-46.11"/>
<polygon fill="black" stroke="black" points="2138.4,-46.5 2136.35,-36.1 2131.47,-45.51 2138.4,-46.5"/>
</g>
<!-- UMapLabelledContent -->
<g id="node29" class="node">
<title>UMapLabelledContent</title>
<ellipse fill="none" stroke="black" cx="2345.79" cy="-18" rx="115.88" ry="18"/>
<text text-anchor="middle" x="2345.79" y="-14.3" font-family="Times,serif" font-size="14.00">UMapLabelledContent</text>
</g>
<!-- LabelledContentMap&#45;&gt;UMapLabelledContent -->
<g id="edge28" class="edge">
<title>LabelledContentMap&#45;&gt;UMapLabelledContent</title>
<path fill="none" stroke="black" d="M2339.02,-71.7C2340.01,-63.98 2341.2,-54.71 2342.31,-46.11"/>
<polygon fill="black" stroke="black" points="2345.79,-46.47 2343.59,-36.1 2338.85,-45.58 2345.79,-46.47"/>
</g>
<!-- UMapReference -->
<g id="node30" class="node">
<title>UMapReference</title>
<ellipse fill="none" stroke="black" cx="2564.79" cy="-18" rx="85.59" ry="18"/>
<text text-anchor="middle" x="2564.79" y="-14.3" font-family="Times,serif" font-size="14.00">UMapReference</text>
</g>
<!-- ReferenceMap&#45;&gt;UMapReference -->
<g id="edge29" class="edge">
<title>ReferenceMap&#45;&gt;UMapReference</title>
<path fill="none" stroke="black" d="M2558.77,-71.7C2559.65,-63.98 2560.71,-54.71 2561.69,-46.11"/>
<polygon fill="black" stroke="black" points="2565.18,-46.44 2562.84,-36.1 2558.22,-45.64 2565.18,-46.44"/>
</g>
<!-- UMapa -->
<g id="node16" class="node">
<title>UMapa</title>
<ellipse fill="none" stroke="#ee0000" cx="2720.79" cy="-162" rx="44.39" ry="18"/>
<text text-anchor="middle" x="2720.79" y="-158.3" font-family="Times,serif" font-size="14.00">UMapa</text>
</g>
<!-- MapUIDaInt -->
<g id="node17" class="node">
<title>MapUIDaInt</title>
<ellipse fill="none" stroke="black" cx="2720.79" cy="-90" rx="68.49" ry="18"/>
<text text-anchor="middle" x="2720.79" y="-86.3" font-family="Times,serif" font-size="14.00">MapUIDaInt</text>
</g>
<!-- UMapa&#45;&gt;MapUIDaInt -->
<g id="edge15" class="edge">
<title>UMapa&#45;&gt;MapUIDaInt</title>
<path fill="none" stroke="black" d="M2720.79,-143.7C2720.79,-135.98 2720.79,-126.71 2720.79,-118.11"/>
<polygon fill="black" stroke="black" points="2724.29,-118.1 2720.79,-108.1 2717.29,-118.1 2724.29,-118.1"/>
</g>
</g>
</svg>
