<?xml version="1.0" encoding="UTF-8" standalone="no"?>
<!DOCTYPE svg PUBLIC "-//W3C//DTD SVG 1.1//EN"
 "http://www.w3.org/Graphics/SVG/1.1/DTD/svg11.dtd">
<!-- Generated by graphviz version 2.43.0 (0)
 -->
<!-- Title: alltypes Pages: 1 -->
<svg width="936pt" height="188pt"
 viewBox="0.00 0.00 936.03 188.00" xmlns="http://www.w3.org/2000/svg" xmlns:xlink="http://www.w3.org/1999/xlink">
<g id="graph0" class="graph" transform="scale(1 1) rotate(0) translate(4 184)">
<title>alltypes</title>
<polygon fill="white" stroke="transparent" points="-4,4 -4,-184 932.03,-184 932.03,4 -4,4"/>
<!-- ChunkDB -->
<g id="node1" class="node">
<title>ChunkDB</title>
<ellipse fill="none" stroke="#00cdcd" cx="261.99" cy="-162" rx="54.69" ry="18"/>
<text text-anchor="middle" x="261.99" y="-158.3" font-family="Times,serif" font-size="14.00">ChunkDB</text>
</g>
<!-- ChunkByUID -->
<g id="node2" class="node">
<title>ChunkByUID</title>
<ellipse fill="none" stroke="#ee0000" cx="159.99" cy="-90" rx="71.49" ry="18"/>
<text text-anchor="middle" x="159.99" y="-86.3" font-family="Times,serif" font-size="14.00">ChunkByUID</text>
</g>
<!-- ChunkDB&#45;&gt;ChunkByUID -->
<g id="edge1" class="edge">
<title>ChunkDB&#45;&gt;ChunkByUID</title>
<path fill="none" stroke="black" d="M239.35,-145.46C225.52,-135.97 207.6,-123.67 192.29,-113.17"/>
<polygon fill="black" stroke="black" points="193.85,-109.99 183.63,-107.22 189.89,-115.77 193.85,-109.99"/>
</g>
<!-- ChunksByTypeRep -->
<g id="node3" class="node">
<title>ChunksByTypeRep</title>
<ellipse fill="none" stroke="#ee0000" cx="362.99" cy="-90" rx="98.28" ry="18"/>
<text text-anchor="middle" x="362.99" y="-86.3" font-family="Times,serif" font-size="14.00">ChunksByTypeRep</text>
</g>
<!-- ChunkDB&#45;&gt;ChunksByTypeRep -->
<g id="edge2" class="edge">
<title>ChunkDB&#45;&gt;ChunksByTypeRep</title>
<path fill="none" stroke="black" d="M284.4,-145.46C298.01,-136.04 315.6,-123.85 330.68,-113.39"/>
<polygon fill="black" stroke="black" points="333,-116.04 339.23,-107.47 329.02,-110.29 333,-116.04"/>
</g>
<!-- MapUIDChunkDependant -->
<g id="node6" class="node">
<title>MapUIDChunkDependant</title>
<ellipse fill="none" stroke="black" cx="129.99" cy="-18" rx="129.98" ry="18"/>
<text text-anchor="middle" x="129.99" y="-14.3" font-family="Times,serif" font-size="14.00">MapUIDChunkDependant</text>
</g>
<!-- ChunkByUID&#45;&gt;MapUIDChunkDependant -->
<g id="edge4" class="edge">
<title>ChunkByUID&#45;&gt;MapUIDChunkDependant</title>
<path fill="none" stroke="black" d="M152.73,-72.05C149.31,-64.09 145.16,-54.41 141.35,-45.51"/>
<polygon fill="black" stroke="black" points="144.55,-44.09 137.39,-36.28 138.11,-46.85 144.55,-44.09"/>
</g>
<!-- MapTypeRepChunk -->
<g id="node7" class="node">
<title>MapTypeRepChunk</title>
<ellipse fill="none" stroke="black" cx="378.99" cy="-18" rx="101.28" ry="18"/>
<text text-anchor="middle" x="378.99" y="-14.3" font-family="Times,serif" font-size="14.00">MapTypeRepChunk</text>
</g>
<!-- ChunksByTypeRep&#45;&gt;MapTypeRepChunk -->
<g id="edge5" class="edge">
<title>ChunksByTypeRep&#45;&gt;MapTypeRepChunk</title>
<path fill="none" stroke="black" d="M366.94,-71.7C368.71,-63.98 370.83,-54.71 372.79,-46.11"/>
<polygon fill="black" stroke="black" points="376.26,-46.63 375.08,-36.1 369.44,-45.07 376.26,-46.63"/>
</g>
<!-- Dependant -->
<g id="node4" class="node">
<title>Dependant</title>
<ellipse fill="none" stroke="#ee0000" cx="507.99" cy="-162" rx="61.99" ry="18"/>
<text text-anchor="middle" x="507.99" y="-158.3" font-family="Times,serif" font-size="14.00">Dependant</text>
</g>
<!-- UID -->
<g id="node5" class="node">
<title>UID</title>
<ellipse fill="none" stroke="black" cx="507.99" cy="-90" rx="29.5" ry="18"/>
<text text-anchor="middle" x="507.99" y="-86.3" font-family="Times,serif" font-size="14.00">UID</text>
</g>
<!-- Dependant&#45;&gt;UID -->
<g id="edge3" class="edge">
<title>Dependant&#45;&gt;UID</title>
<path fill="none" stroke="black" d="M507.99,-143.7C507.99,-135.98 507.99,-126.71 507.99,-118.11"/>
<polygon fill="black" stroke="black" points="511.49,-118.1 507.99,-108.1 504.49,-118.1 511.49,-118.1"/>
</g>
<!-- ChunkType -->
<g id="node8" class="node">
<title>ChunkType</title>
<ellipse fill="none" stroke="#ee0000" cx="650.99" cy="-162" rx="63.09" ry="18"/>
<text text-anchor="middle" x="650.99" y="-158.3" font-family="Times,serif" font-size="14.00">ChunkType</text>
</g>
<!-- String -->
<g id="node9" class="node">
<title>String</title>
<ellipse fill="none" stroke="black" cx="650.99" cy="-90" rx="40.09" ry="18"/>
<text text-anchor="middle" x="650.99" y="-86.3" font-family="Times,serif" font-size="14.00">String</text>
</g>
<!-- ChunkType&#45;&gt;String -->
<g id="edge6" class="edge">
<title>ChunkType&#45;&gt;String</title>
<path fill="none" stroke="black" d="M650.99,-143.7C650.99,-135.98 650.99,-126.71 650.99,-118.11"/>
<polygon fill="black" stroke="black" points="654.49,-118.1 650.99,-108.1 647.49,-118.1 654.49,-118.1"/>
</g>
<!-- DumpedChunkDB -->
<g id="node10" class="node">
<title>DumpedChunkDB</title>
<ellipse fill="none" stroke="#ee0000" cx="825.99" cy="-162" rx="93.68" ry="18"/>
<text text-anchor="middle" x="825.99" y="-158.3" font-family="Times,serif" font-size="14.00">DumpedChunkDB</text>
</g>
<!-- MapChunkTypeUID -->
<g id="node11" class="node">
<title>MapChunkTypeUID</title>
<ellipse fill="none" stroke="black" cx="825.99" cy="-90" rx="102.08" ry="18"/>
<text text-anchor="middle" x="825.99" y="-86.3" font-family="Times,serif" font-size="14.00">MapChunkTypeUID</text>
</g>
<!-- DumpedChunkDB&#45;&gt;MapChunkTypeUID -->
<g id="edge7" class="edge">
<title>DumpedChunkDB&#45;&gt;MapChunkTypeUID</title>
<path fill="none" stroke="black" d="M825.99,-143.7C825.99,-135.98 825.99,-126.71 825.99,-118.11"/>
<polygon fill="black" stroke="black" points="829.49,-118.1 825.99,-108.1 822.49,-118.1 829.49,-118.1"/>
</g>
</g>
</svg>
