<?xml version="1.0" encoding="UTF-8" standalone="no"?>
<!DOCTYPE svg PUBLIC "-//W3C//DTD SVG 1.1//EN"
 "http://www.w3.org/Graphics/SVG/1.1/DTD/svg11.dtd">
<!-- Generated by graphviz version 2.43.0 (0)
 -->
<!-- Title: alltypes Pages: 1 -->
<svg width="1302pt" height="188pt"
 viewBox="0.00 0.00 1302.03 188.00" xmlns="http://www.w3.org/2000/svg" xmlns:xlink="http://www.w3.org/1999/xlink">
<g id="graph0" class="graph" transform="scale(1 1) rotate(0) translate(4 184)">
<title>alltypes</title>
<polygon fill="white" stroke="transparent" points="-4,4 -4,-184 1298.03,-184 1298.03,4 -4,4"/>
<!-- ChunkDB -->
<g id="node1" class="node">
<title>ChunkDB</title>
<ellipse fill="none" stroke="#00cdcd" cx="469.99" cy="-162" rx="54.69" ry="18"/>
<text text-anchor="middle" x="469.99" y="-158.3" font-family="Times,serif" font-size="14.00">ChunkDB</text>
</g>
<!-- ChunkByUID -->
<g id="node2" class="node">
<title>ChunkByUID</title>
<ellipse fill="none" stroke="#ee0000" cx="159.99" cy="-90" rx="71.49" ry="18"/>
<text text-anchor="middle" x="159.99" y="-86.3" font-family="Times,serif" font-size="14.00">ChunkByUID</text>
</g>
<!-- ChunkDB&#45;&gt;ChunkByUID -->
<g id="edge1" class="edge">
<title>ChunkDB&#45;&gt;ChunkByUID</title>
<path fill="none" stroke="black" d="M426.23,-151.12C372.64,-139.02 281.54,-118.45 221.06,-104.79"/>
<polygon fill="black" stroke="black" points="221.78,-101.37 211.26,-102.58 220.24,-108.19 221.78,-101.37"/>
</g>
<!-- ChunksByTypeRep -->
<g id="node3" class="node">
<title>ChunksByTypeRep</title>
<ellipse fill="none" stroke="#ee0000" cx="362.99" cy="-90" rx="98.28" ry="18"/>
<text text-anchor="middle" x="362.99" y="-86.3" font-family="Times,serif" font-size="14.00">ChunksByTypeRep</text>
</g>
<!-- ChunkDB&#45;&gt;ChunksByTypeRep -->
<g id="edge2" class="edge">
<title>ChunkDB&#45;&gt;ChunksByTypeRep</title>
<path fill="none" stroke="black" d="M446.51,-145.64C431.97,-136.13 413.07,-123.76 396.92,-113.2"/>
<polygon fill="black" stroke="black" points="398.57,-110.09 388.28,-107.55 394.73,-115.95 398.57,-110.09"/>
</g>
<!-- MapUIDReference -->
<g id="node4" class="node">
<title>MapUIDReference</title>
<ellipse fill="none" stroke="black" cx="575.99" cy="-90" rx="96.68" ry="18"/>
<text text-anchor="middle" x="575.99" y="-86.3" font-family="Times,serif" font-size="14.00">MapUIDReference</text>
</g>
<!-- ChunkDB&#45;&gt;MapUIDReference -->
<g id="edge3" class="edge">
<title>ChunkDB&#45;&gt;MapUIDReference</title>
<path fill="none" stroke="black" d="M493.25,-145.64C507.65,-136.13 526.38,-123.76 542.37,-113.2"/>
<polygon fill="black" stroke="black" points="544.51,-115.98 550.93,-107.55 540.66,-110.14 544.51,-115.98"/>
</g>
<!-- MapUIDUID -->
<g id="node5" class="node">
<title>MapUIDUID</title>
<ellipse fill="none" stroke="black" cx="758.99" cy="-90" rx="68.49" ry="18"/>
<text text-anchor="middle" x="758.99" y="-86.3" font-family="Times,serif" font-size="14.00">MapUIDUID</text>
</g>
<!-- ChunkDB&#45;&gt;MapUIDUID -->
<g id="edge4" class="edge">
<title>ChunkDB&#45;&gt;MapUIDUID</title>
<path fill="none" stroke="black" d="M512.63,-150.67C562.4,-138.62 644.97,-118.62 700.65,-105.13"/>
<polygon fill="black" stroke="black" points="701.48,-108.53 710.37,-102.78 699.83,-101.73 701.48,-108.53"/>
</g>
<!-- MapUIDChunkDependant -->
<g id="node8" class="node">
<title>MapUIDChunkDependant</title>
<ellipse fill="none" stroke="black" cx="129.99" cy="-18" rx="129.98" ry="18"/>
<text text-anchor="middle" x="129.99" y="-14.3" font-family="Times,serif" font-size="14.00">MapUIDChunkDependant</text>
</g>
<!-- ChunkByUID&#45;&gt;MapUIDChunkDependant -->
<g id="edge6" class="edge">
<title>ChunkByUID&#45;&gt;MapUIDChunkDependant</title>
<path fill="none" stroke="black" d="M152.73,-72.05C149.31,-64.09 145.16,-54.41 141.35,-45.51"/>
<polygon fill="black" stroke="black" points="144.55,-44.09 137.39,-36.28 138.11,-46.85 144.55,-44.09"/>
</g>
<!-- MapTypeRepChunk -->
<g id="node9" class="node">
<title>MapTypeRepChunk</title>
<ellipse fill="none" stroke="black" cx="378.99" cy="-18" rx="101.28" ry="18"/>
<text text-anchor="middle" x="378.99" y="-14.3" font-family="Times,serif" font-size="14.00">MapTypeRepChunk</text>
</g>
<!-- ChunksByTypeRep&#45;&gt;MapTypeRepChunk -->
<g id="edge7" class="edge">
<title>ChunksByTypeRep&#45;&gt;MapTypeRepChunk</title>
<path fill="none" stroke="black" d="M366.94,-71.7C368.71,-63.98 370.83,-54.71 372.79,-46.11"/>
<polygon fill="black" stroke="black" points="376.26,-46.63 375.08,-36.1 369.44,-45.07 376.26,-46.63"/>
</g>
<!-- Dependant -->
<g id="node6" class="node">
<title>Dependant</title>
<ellipse fill="none" stroke="#ee0000" cx="873.99" cy="-162" rx="61.99" ry="18"/>
<text text-anchor="middle" x="873.99" y="-158.3" font-family="Times,serif" font-size="14.00">Dependant</text>
</g>
<!-- UID -->
<g id="node7" class="node">
<title>UID</title>
<ellipse fill="none" stroke="black" cx="873.99" cy="-90" rx="29.5" ry="18"/>
<text text-anchor="middle" x="873.99" y="-86.3" font-family="Times,serif" font-size="14.00">UID</text>
</g>
<!-- Dependant&#45;&gt;UID -->
<g id="edge5" class="edge">
<title>Dependant&#45;&gt;UID</title>
<path fill="none" stroke="black" d="M873.99,-143.7C873.99,-135.98 873.99,-126.71 873.99,-118.11"/>
<polygon fill="black" stroke="black" points="877.49,-118.1 873.99,-108.1 870.49,-118.1 877.49,-118.1"/>
</g>
<!-- ChunkType -->
<g id="node10" class="node">
<title>ChunkType</title>
<ellipse fill="none" stroke="#ee0000" cx="1016.99" cy="-162" rx="63.09" ry="18"/>
<text text-anchor="middle" x="1016.99" y="-158.3" font-family="Times,serif" font-size="14.00">ChunkType</text>
</g>
<!-- String -->
<g id="node11" class="node">
<title>String</title>
<ellipse fill="none" stroke="black" cx="1016.99" cy="-90" rx="40.09" ry="18"/>
<text text-anchor="middle" x="1016.99" y="-86.3" font-family="Times,serif" font-size="14.00">String</text>
</g>
<!-- ChunkType&#45;&gt;String -->
<g id="edge8" class="edge">
<title>ChunkType&#45;&gt;String</title>
<path fill="none" stroke="black" d="M1016.99,-143.7C1016.99,-135.98 1016.99,-126.71 1016.99,-118.11"/>
<polygon fill="black" stroke="black" points="1020.49,-118.1 1016.99,-108.1 1013.49,-118.1 1020.49,-118.1"/>
</g>
<!-- DumpedChunkDB -->
<g id="node12" class="node">
<title>DumpedChunkDB</title>
<ellipse fill="none" stroke="#ee0000" cx="1191.99" cy="-162" rx="93.68" ry="18"/>
<text text-anchor="middle" x="1191.99" y="-158.3" font-family="Times,serif" font-size="14.00">DumpedChunkDB</text>
</g>
<!-- MapChunkTypeUID -->
<g id="node13" class="node">
<title>MapChunkTypeUID</title>
<ellipse fill="none" stroke="black" cx="1191.99" cy="-90" rx="102.08" ry="18"/>
<text text-anchor="middle" x="1191.99" y="-86.3" font-family="Times,serif" font-size="14.00">MapChunkTypeUID</text>
</g>
<!-- DumpedChunkDB&#45;&gt;MapChunkTypeUID -->
<g id="edge9" class="edge">
<title>DumpedChunkDB&#45;&gt;MapChunkTypeUID</title>
<path fill="none" stroke="black" d="M1191.99,-143.7C1191.99,-135.98 1191.99,-126.71 1191.99,-118.11"/>
<polygon fill="black" stroke="black" points="1195.49,-118.1 1191.99,-108.1 1188.49,-118.1 1195.49,-118.1"/>
</g>
</g>
</svg>
