<?xml version="1.0" encoding="UTF-8" standalone="no"?>
<!DOCTYPE svg PUBLIC "-//W3C//DTD SVG 1.1//EN"
 "http://www.w3.org/Graphics/SVG/1.1/DTD/svg11.dtd">
<!-- Generated by graphviz version 2.43.0 (0)
 -->
<!-- Title: alltypes Pages: 1 -->
<svg width="1494pt" height="188pt"
 viewBox="0.00 0.00 1493.79 188.00" xmlns="http://www.w3.org/2000/svg" xmlns:xlink="http://www.w3.org/1999/xlink">
<g id="graph0" class="graph" transform="scale(1 1) rotate(0) translate(4 184)">
<title>alltypes</title>
<polygon fill="white" stroke="transparent" points="-4,4 -4,-184 1489.79,-184 1489.79,4 -4,4"/>
<!-- Chunk -->
<g id="node1" class="node">
<title>Chunk</title>
<ellipse fill="none" stroke="darkviolet" cx="95.75" cy="-162" rx="40.09" ry="18"/>
<text text-anchor="middle" x="95.75" y="-158.3" font-family="Times,serif" font-size="14.00">Chunk</text>
</g>
<!-- Chunk&#45;&gt;Chunk -->
<g id="edge3" class="edge">
<title>Chunk&#45;&gt;Chunk</title>
<path fill="none" stroke="black" d="M124.24,-174.9C139.79,-177.2 154.04,-172.9 154.04,-162 154.04,-153.57 145.52,-149.09 134.46,-148.55"/>
<polygon fill="black" stroke="black" points="134.04,-145.07 124.24,-149.1 134.41,-152.06 134.04,-145.07"/>
</g>
<!-- IsChunk -->
<g id="node2" class="node">
<title>IsChunk</title>
<ellipse fill="none" stroke="black" cx="48.75" cy="-90" rx="48.99" ry="18"/>
<text text-anchor="middle" x="48.75" y="-86.3" font-family="Times,serif" font-size="14.00">IsChunk</text>
</g>
<!-- Chunk&#45;&gt;IsChunk -->
<g id="edge1" class="edge">
<title>Chunk&#45;&gt;IsChunk</title>
<path fill="none" stroke="black" d="M84.61,-144.41C79.01,-136.08 72.11,-125.8 65.86,-116.49"/>
<polygon fill="black" stroke="black" points="68.61,-114.31 60.13,-107.96 62.8,-118.21 68.61,-114.31"/>
</g>
<!-- a -->
<g id="node3" class="node">
<title>a</title>
<ellipse fill="none" stroke="black" cx="142.75" cy="-90" rx="27" ry="18"/>
<text text-anchor="middle" x="142.75" y="-86.3" font-family="Times,serif" font-size="14.00">a</text>
</g>
<!-- Chunk&#45;&gt;a -->
<g id="edge2" class="edge">
<title>Chunk&#45;&gt;a</title>
<path fill="none" stroke="black" d="M106.88,-144.41C112.7,-135.74 119.94,-124.97 126.38,-115.38"/>
<polygon fill="black" stroke="black" points="129.34,-117.24 132.01,-106.99 123.53,-113.34 129.34,-117.24"/>
</g>
<!-- IsChunka -->
<g id="node4" class="node">
<title>IsChunka</title>
<ellipse fill="none" stroke="#ee0000" cx="361.75" cy="-162" rx="53.89" ry="18"/>
<text text-anchor="middle" x="361.75" y="-158.3" font-family="Times,serif" font-size="14.00">IsChunka</text>
</g>
<!-- HasUIDaHasChunkRefsaTypeablea -->
<g id="node5" class="node">
<title>HasUIDaHasChunkRefsaTypeablea</title>
<ellipse fill="none" stroke="black" cx="361.75" cy="-90" rx="173.57" ry="18"/>
<text text-anchor="middle" x="361.75" y="-86.3" font-family="Times,serif" font-size="14.00">HasUIDaHasChunkRefsaTypeablea</text>
</g>
<!-- IsChunka&#45;&gt;HasUIDaHasChunkRefsaTypeablea -->
<g id="edge4" class="edge">
<title>IsChunka&#45;&gt;HasUIDaHasChunkRefsaTypeablea</title>
<path fill="none" stroke="black" d="M361.75,-143.7C361.75,-135.98 361.75,-126.71 361.75,-118.11"/>
<polygon fill="black" stroke="black" points="365.25,-118.1 361.75,-108.1 358.25,-118.1 365.25,-118.1"/>
</g>
<!-- ChunkDB -->
<g id="node6" class="node">
<title>ChunkDB</title>
<ellipse fill="none" stroke="#00cdcd" cx="684.75" cy="-162" rx="54.69" ry="18"/>
<text text-anchor="middle" x="684.75" y="-158.3" font-family="Times,serif" font-size="14.00">ChunkDB</text>
</g>
<!-- ChunkByUID -->
<g id="node7" class="node">
<title>ChunkByUID</title>
<ellipse fill="none" stroke="#ee0000" cx="624.75" cy="-90" rx="71.49" ry="18"/>
<text text-anchor="middle" x="624.75" y="-86.3" font-family="Times,serif" font-size="14.00">ChunkByUID</text>
</g>
<!-- ChunkDB&#45;&gt;ChunkByUID -->
<g id="edge5" class="edge">
<title>ChunkDB&#45;&gt;ChunkByUID</title>
<path fill="none" stroke="black" d="M670.53,-144.41C663.16,-135.82 654.03,-125.16 645.85,-115.63"/>
<polygon fill="black" stroke="black" points="648.44,-113.27 639.28,-107.96 643.13,-117.83 648.44,-113.27"/>
</g>
<!-- ChunksByTypeRep -->
<g id="node8" class="node">
<title>ChunksByTypeRep</title>
<ellipse fill="none" stroke="#ee0000" cx="842.75" cy="-90" rx="98.28" ry="18"/>
<text text-anchor="middle" x="842.75" y="-86.3" font-family="Times,serif" font-size="14.00">ChunksByTypeRep</text>
</g>
<!-- ChunkDB&#45;&gt;ChunksByTypeRep -->
<g id="edge6" class="edge">
<title>ChunkDB&#45;&gt;ChunksByTypeRep</title>
<path fill="none" stroke="black" d="M715.96,-147.17C739.27,-136.84 771.47,-122.58 797.58,-111.01"/>
<polygon fill="black" stroke="black" points="799.18,-114.13 806.9,-106.88 796.34,-107.73 799.18,-114.13"/>
</g>
<!-- MapUIDChunkDependant -->
<g id="node11" class="node">
<title>MapUIDChunkDependant</title>
<ellipse fill="none" stroke="black" cx="609.75" cy="-18" rx="129.98" ry="18"/>
<text text-anchor="middle" x="609.75" y="-14.3" font-family="Times,serif" font-size="14.00">MapUIDChunkDependant</text>
</g>
<!-- ChunkByUID&#45;&gt;MapUIDChunkDependant -->
<g id="edge8" class="edge">
<title>ChunkByUID&#45;&gt;MapUIDChunkDependant</title>
<path fill="none" stroke="black" d="M621.04,-71.7C619.38,-63.98 617.4,-54.71 615.56,-46.11"/>
<polygon fill="black" stroke="black" points="618.93,-45.15 613.41,-36.1 612.08,-46.62 618.93,-45.15"/>
</g>
<!-- MapTypeRepChunk -->
<g id="node12" class="node">
<title>MapTypeRepChunk</title>
<ellipse fill="none" stroke="black" cx="858.75" cy="-18" rx="101.28" ry="18"/>
<text text-anchor="middle" x="858.75" y="-14.3" font-family="Times,serif" font-size="14.00">MapTypeRepChunk</text>
</g>
<!-- ChunksByTypeRep&#45;&gt;MapTypeRepChunk -->
<g id="edge9" class="edge">
<title>ChunksByTypeRep&#45;&gt;MapTypeRepChunk</title>
<path fill="none" stroke="black" d="M846.7,-71.7C848.46,-63.98 850.58,-54.71 852.55,-46.11"/>
<polygon fill="black" stroke="black" points="856.02,-46.63 854.84,-36.1 849.2,-45.07 856.02,-46.63"/>
</g>
<!-- Dependant -->
<g id="node9" class="node">
<title>Dependant</title>
<ellipse fill="none" stroke="#ee0000" cx="878.75" cy="-162" rx="61.99" ry="18"/>
<text text-anchor="middle" x="878.75" y="-158.3" font-family="Times,serif" font-size="14.00">Dependant</text>
</g>
<!-- UID -->
<g id="node10" class="node">
<title>UID</title>
<ellipse fill="none" stroke="#00cdcd" cx="1018.75" cy="-90" rx="29.5" ry="18"/>
<text text-anchor="middle" x="1018.75" y="-86.3" font-family="Times,serif" font-size="14.00">UID</text>
</g>
<!-- Dependant&#45;&gt;UID -->
<g id="edge7" class="edge">
<title>Dependant&#45;&gt;UID</title>
<path fill="none" stroke="black" d="M908.44,-146.15C931.57,-134.59 963.63,-118.56 987.22,-106.76"/>
<polygon fill="black" stroke="black" points="989.07,-109.75 996.45,-102.15 985.94,-103.49 989.07,-109.75"/>
</g>
<!-- String -->
<g id="node14" class="node">
<title>String</title>
<ellipse fill="none" stroke="black" cx="1035.75" cy="-18" rx="40.09" ry="18"/>
<text text-anchor="middle" x="1035.75" y="-14.3" font-family="Times,serif" font-size="14.00">String</text>
</g>
<!-- UID&#45;&gt;String -->
<g id="edge12" class="edge">
<title>UID&#45;&gt;String</title>
<path fill="none" stroke="black" d="M1022.86,-72.05C1024.75,-64.26 1027.05,-54.82 1029.17,-46.08"/>
<polygon fill="black" stroke="black" points="1032.59,-46.82 1031.55,-36.28 1025.79,-45.17 1032.59,-46.82"/>
</g>
<!-- ChunkType -->
<g id="node13" class="node">
<title>ChunkType</title>
<ellipse fill="none" stroke="#ee0000" cx="1128.75" cy="-90" rx="63.09" ry="18"/>
<text text-anchor="middle" x="1128.75" y="-86.3" font-family="Times,serif" font-size="14.00">ChunkType</text>
</g>
<!-- ChunkType&#45;&gt;String -->
<g id="edge10" class="edge">
<title>ChunkType&#45;&gt;String</title>
<path fill="none" stroke="black" d="M1107.18,-72.76C1094.29,-63.07 1077.78,-50.64 1063.87,-40.17"/>
<polygon fill="black" stroke="black" points="1065.71,-37.17 1055.61,-33.95 1061.5,-42.76 1065.71,-37.17"/>
</g>
<!-- DumpedChunkDB -->
<g id="node15" class="node">
<title>DumpedChunkDB</title>
<ellipse fill="none" stroke="#ee0000" cx="1383.75" cy="-162" rx="93.68" ry="18"/>
<text text-anchor="middle" x="1383.75" y="-158.3" font-family="Times,serif" font-size="14.00">DumpedChunkDB</text>
</g>
<!-- MapChunkTypeUID -->
<g id="node16" class="node">
<title>MapChunkTypeUID</title>
<ellipse fill="none" stroke="black" cx="1383.75" cy="-90" rx="102.08" ry="18"/>
<text text-anchor="middle" x="1383.75" y="-86.3" font-family="Times,serif" font-size="14.00">MapChunkTypeUID</text>
</g>
<!-- DumpedChunkDB&#45;&gt;MapChunkTypeUID -->
<g id="edge11" class="edge">
<title>DumpedChunkDB&#45;&gt;MapChunkTypeUID</title>
<path fill="none" stroke="black" d="M1383.75,-143.7C1383.75,-135.98 1383.75,-126.71 1383.75,-118.11"/>
<polygon fill="black" stroke="black" points="1387.25,-118.1 1383.75,-108.1 1380.25,-118.1 1387.25,-118.1"/>
</g>
<!-- UIDReftyp -->
<g id="node17" class="node">
<title>UIDReftyp</title>
<ellipse fill="none" stroke="darkgreen" cx="1018.75" cy="-162" rx="59.59" ry="18"/>
<text text-anchor="middle" x="1018.75" y="-158.3" font-family="Times,serif" font-size="14.00">UIDReftyp</text>
</g>
<!-- UIDReftyp&#45;&gt;UID -->
<g id="edge13" class="edge">
<title>UIDReftyp&#45;&gt;UID</title>
<path fill="none" stroke="black" d="M1018.75,-143.7C1018.75,-135.98 1018.75,-126.71 1018.75,-118.11"/>
<polygon fill="black" stroke="black" points="1022.25,-118.1 1018.75,-108.1 1015.25,-118.1 1022.25,-118.1"/>
</g>
<!-- UnitypedUIDRef -->
<g id="node18" class="node">
<title>UnitypedUIDRef</title>
<ellipse fill="none" stroke="darkgreen" cx="1184.75" cy="-162" rx="87.99" ry="18"/>
<text text-anchor="middle" x="1184.75" y="-158.3" font-family="Times,serif" font-size="14.00">UnitypedUIDRef</text>
</g>
<!-- UnitypedUIDRef&#45;&gt;UID -->
<g id="edge14" class="edge">
<title>UnitypedUIDRef&#45;&gt;UID</title>
<path fill="none" stroke="black" d="M1147.1,-145.74C1121.54,-135.29 1087.01,-121.03 1056.75,-108 1054.9,-107.21 1053.01,-106.39 1051.11,-105.55"/>
<polygon fill="black" stroke="black" points="1052.17,-102.19 1041.61,-101.35 1049.34,-108.6 1052.17,-102.19"/>
</g>
</g>
</svg>
