<?xml version="1.0" encoding="UTF-8" standalone="no"?>
<!DOCTYPE svg PUBLIC "-//W3C//DTD SVG 1.1//EN"
 "http://www.w3.org/Graphics/SVG/1.1/DTD/svg11.dtd">
<!-- Generated by graphviz version 2.43.0 (0)
 -->
<!-- Title: alltypes Pages: 1 -->
<svg width="1687pt" height="188pt"
 viewBox="0.00 0.00 1686.58 188.00" xmlns="http://www.w3.org/2000/svg" xmlns:xlink="http://www.w3.org/1999/xlink">
<g id="graph0" class="graph" transform="scale(1 1) rotate(0) translate(4 184)">
<title>alltypes</title>
<polygon fill="white" stroke="transparent" points="-4,4 -4,-184 1682.58,-184 1682.58,4 -4,4"/>
<!-- Chunk -->
<g id="node1" class="node">
<title>Chunk</title>
<ellipse fill="none" stroke="darkviolet" cx="146.54" cy="-162" rx="40.09" ry="18"/>
<text text-anchor="middle" x="146.54" y="-158.3" font-family="Times,serif" font-size="14.00">Chunk</text>
</g>
<!-- Chunk&#45;&gt;Chunk -->
<g id="edge3" class="edge">
<title>Chunk&#45;&gt;Chunk</title>
<path fill="none" stroke="black" d="M175.04,-174.9C190.59,-177.2 204.84,-172.9 204.84,-162 204.84,-153.57 196.32,-149.09 185.26,-148.55"/>
<polygon fill="black" stroke="black" points="184.84,-145.07 175.04,-149.1 185.21,-152.06 184.84,-145.07"/>
</g>
<!-- TypeableChunk -->
<g id="node2" class="node">
<title>TypeableChunk</title>
<ellipse fill="none" stroke="black" cx="82.54" cy="-90" rx="82.59" ry="18"/>
<text text-anchor="middle" x="82.54" y="-86.3" font-family="Times,serif" font-size="14.00">TypeableChunk</text>
</g>
<!-- Chunk&#45;&gt;TypeableChunk -->
<g id="edge1" class="edge">
<title>Chunk&#45;&gt;TypeableChunk</title>
<path fill="none" stroke="black" d="M132.02,-145.12C123.99,-136.33 113.84,-125.23 104.82,-115.37"/>
<polygon fill="black" stroke="black" points="107.23,-112.82 97.9,-107.8 102.06,-117.54 107.23,-112.82"/>
</g>
<!-- a -->
<g id="node3" class="node">
<title>a</title>
<ellipse fill="none" stroke="black" cx="210.54" cy="-90" rx="27" ry="18"/>
<text text-anchor="middle" x="210.54" y="-86.3" font-family="Times,serif" font-size="14.00">a</text>
</g>
<!-- Chunk&#45;&gt;a -->
<g id="edge2" class="edge">
<title>Chunk&#45;&gt;a</title>
<path fill="none" stroke="black" d="M161.07,-145.12C169.65,-135.73 180.65,-123.7 190.1,-113.36"/>
<polygon fill="black" stroke="black" points="192.79,-115.61 196.95,-105.86 187.62,-110.88 192.79,-115.61"/>
</g>
<!-- IsChunka -->
<g id="node4" class="node">
<title>IsChunka</title>
<ellipse fill="none" stroke="#ee0000" cx="381.54" cy="-162" rx="53.89" ry="18"/>
<text text-anchor="middle" x="381.54" y="-158.3" font-family="Times,serif" font-size="14.00">IsChunka</text>
</g>
<!-- HasUIDaHasChunkRefsa -->
<g id="node5" class="node">
<title>HasUIDaHasChunkRefsa</title>
<ellipse fill="none" stroke="black" cx="381.54" cy="-90" rx="126.18" ry="18"/>
<text text-anchor="middle" x="381.54" y="-86.3" font-family="Times,serif" font-size="14.00">HasUIDaHasChunkRefsa</text>
</g>
<!-- IsChunka&#45;&gt;HasUIDaHasChunkRefsa -->
<g id="edge4" class="edge">
<title>IsChunka&#45;&gt;HasUIDaHasChunkRefsa</title>
<path fill="none" stroke="black" d="M381.54,-143.7C381.54,-135.98 381.54,-126.71 381.54,-118.11"/>
<polygon fill="black" stroke="black" points="385.04,-118.1 381.54,-108.1 378.04,-118.1 385.04,-118.1"/>
</g>
<!-- TypeableChunka -->
<g id="node6" class="node">
<title>TypeableChunka</title>
<ellipse fill="none" stroke="#ee0000" cx="626.54" cy="-162" rx="87.99" ry="18"/>
<text text-anchor="middle" x="626.54" y="-158.3" font-family="Times,serif" font-size="14.00">TypeableChunka</text>
</g>
<!-- IsChunkaTypeablea -->
<g id="node7" class="node">
<title>IsChunkaTypeablea</title>
<ellipse fill="none" stroke="black" cx="626.54" cy="-90" rx="101.28" ry="18"/>
<text text-anchor="middle" x="626.54" y="-86.3" font-family="Times,serif" font-size="14.00">IsChunkaTypeablea</text>
</g>
<!-- TypeableChunka&#45;&gt;IsChunkaTypeablea -->
<g id="edge5" class="edge">
<title>TypeableChunka&#45;&gt;IsChunkaTypeablea</title>
<path fill="none" stroke="black" d="M626.54,-143.7C626.54,-135.98 626.54,-126.71 626.54,-118.11"/>
<polygon fill="black" stroke="black" points="630.04,-118.1 626.54,-108.1 623.04,-118.1 630.04,-118.1"/>
</g>
<!-- ChunkDB -->
<g id="node8" class="node">
<title>ChunkDB</title>
<ellipse fill="none" stroke="#00cdcd" cx="877.54" cy="-162" rx="54.69" ry="18"/>
<text text-anchor="middle" x="877.54" y="-158.3" font-family="Times,serif" font-size="14.00">ChunkDB</text>
</g>
<!-- ChunkByUID -->
<g id="node9" class="node">
<title>ChunkByUID</title>
<ellipse fill="none" stroke="#ee0000" cx="817.54" cy="-90" rx="71.49" ry="18"/>
<text text-anchor="middle" x="817.54" y="-86.3" font-family="Times,serif" font-size="14.00">ChunkByUID</text>
</g>
<!-- ChunkDB&#45;&gt;ChunkByUID -->
<g id="edge6" class="edge">
<title>ChunkDB&#45;&gt;ChunkByUID</title>
<path fill="none" stroke="black" d="M863.32,-144.41C855.96,-135.82 846.82,-125.16 838.65,-115.63"/>
<polygon fill="black" stroke="black" points="841.24,-113.27 832.08,-107.96 835.93,-117.83 841.24,-113.27"/>
</g>
<!-- ChunksByTypeRep -->
<g id="node10" class="node">
<title>ChunksByTypeRep</title>
<ellipse fill="none" stroke="#ee0000" cx="1035.54" cy="-90" rx="98.28" ry="18"/>
<text text-anchor="middle" x="1035.54" y="-86.3" font-family="Times,serif" font-size="14.00">ChunksByTypeRep</text>
</g>
<!-- ChunkDB&#45;&gt;ChunksByTypeRep -->
<g id="edge7" class="edge">
<title>ChunkDB&#45;&gt;ChunksByTypeRep</title>
<path fill="none" stroke="black" d="M908.76,-147.17C932.07,-136.84 964.26,-122.58 990.38,-111.01"/>
<polygon fill="black" stroke="black" points="991.97,-114.13 999.7,-106.88 989.14,-107.73 991.97,-114.13"/>
</g>
<!-- MapUIDChunkDependant -->
<g id="node13" class="node">
<title>MapUIDChunkDependant</title>
<ellipse fill="none" stroke="black" cx="802.54" cy="-18" rx="129.98" ry="18"/>
<text text-anchor="middle" x="802.54" y="-14.3" font-family="Times,serif" font-size="14.00">MapUIDChunkDependant</text>
</g>
<!-- ChunkByUID&#45;&gt;MapUIDChunkDependant -->
<g id="edge9" class="edge">
<title>ChunkByUID&#45;&gt;MapUIDChunkDependant</title>
<path fill="none" stroke="black" d="M813.83,-71.7C812.18,-63.98 810.2,-54.71 808.35,-46.11"/>
<polygon fill="black" stroke="black" points="811.73,-45.15 806.21,-36.1 804.88,-46.62 811.73,-45.15"/>
</g>
<!-- MapTypeRepChunk -->
<g id="node14" class="node">
<title>MapTypeRepChunk</title>
<ellipse fill="none" stroke="black" cx="1051.54" cy="-18" rx="101.28" ry="18"/>
<text text-anchor="middle" x="1051.54" y="-14.3" font-family="Times,serif" font-size="14.00">MapTypeRepChunk</text>
</g>
<!-- ChunksByTypeRep&#45;&gt;MapTypeRepChunk -->
<g id="edge10" class="edge">
<title>ChunksByTypeRep&#45;&gt;MapTypeRepChunk</title>
<path fill="none" stroke="black" d="M1039.5,-71.7C1041.26,-63.98 1043.38,-54.71 1045.35,-46.11"/>
<polygon fill="black" stroke="black" points="1048.82,-46.63 1047.63,-36.1 1041.99,-45.07 1048.82,-46.63"/>
</g>
<!-- Dependant -->
<g id="node11" class="node">
<title>Dependant</title>
<ellipse fill="none" stroke="#ee0000" cx="1071.54" cy="-162" rx="61.99" ry="18"/>
<text text-anchor="middle" x="1071.54" y="-158.3" font-family="Times,serif" font-size="14.00">Dependant</text>
</g>
<!-- UID -->
<g id="node12" class="node">
<title>UID</title>
<ellipse fill="none" stroke="#00cdcd" cx="1211.54" cy="-90" rx="29.5" ry="18"/>
<text text-anchor="middle" x="1211.54" y="-86.3" font-family="Times,serif" font-size="14.00">UID</text>
</g>
<!-- Dependant&#45;&gt;UID -->
<g id="edge8" class="edge">
<title>Dependant&#45;&gt;UID</title>
<path fill="none" stroke="black" d="M1101.23,-146.15C1124.37,-134.59 1156.43,-118.56 1180.02,-106.76"/>
<polygon fill="black" stroke="black" points="1181.86,-109.75 1189.24,-102.15 1178.73,-103.49 1181.86,-109.75"/>
</g>
<!-- String -->
<g id="node16" class="node">
<title>String</title>
<ellipse fill="none" stroke="black" cx="1228.54" cy="-18" rx="40.09" ry="18"/>
<text text-anchor="middle" x="1228.54" y="-14.3" font-family="Times,serif" font-size="14.00">String</text>
</g>
<!-- UID&#45;&gt;String -->
<g id="edge13" class="edge">
<title>UID&#45;&gt;String</title>
<path fill="none" stroke="black" d="M1215.66,-72.05C1217.55,-64.26 1219.84,-54.82 1221.97,-46.08"/>
<polygon fill="black" stroke="black" points="1225.39,-46.82 1224.35,-36.28 1218.59,-45.17 1225.39,-46.82"/>
</g>
<!-- ChunkType -->
<g id="node15" class="node">
<title>ChunkType</title>
<ellipse fill="none" stroke="#ee0000" cx="1321.54" cy="-90" rx="63.09" ry="18"/>
<text text-anchor="middle" x="1321.54" y="-86.3" font-family="Times,serif" font-size="14.00">ChunkType</text>
</g>
<!-- ChunkType&#45;&gt;String -->
<g id="edge11" class="edge">
<title>ChunkType&#45;&gt;String</title>
<path fill="none" stroke="black" d="M1299.97,-72.76C1287.09,-63.07 1270.57,-50.64 1256.67,-40.17"/>
<polygon fill="black" stroke="black" points="1258.5,-37.17 1248.41,-33.95 1254.29,-42.76 1258.5,-37.17"/>
</g>
<!-- DumpedChunkDB -->
<g id="node17" class="node">
<title>DumpedChunkDB</title>
<ellipse fill="none" stroke="#ee0000" cx="1576.54" cy="-162" rx="93.68" ry="18"/>
<text text-anchor="middle" x="1576.54" y="-158.3" font-family="Times,serif" font-size="14.00">DumpedChunkDB</text>
</g>
<!-- MapChunkTypeUID -->
<g id="node18" class="node">
<title>MapChunkTypeUID</title>
<ellipse fill="none" stroke="black" cx="1576.54" cy="-90" rx="102.08" ry="18"/>
<text text-anchor="middle" x="1576.54" y="-86.3" font-family="Times,serif" font-size="14.00">MapChunkTypeUID</text>
</g>
<!-- DumpedChunkDB&#45;&gt;MapChunkTypeUID -->
<g id="edge12" class="edge">
<title>DumpedChunkDB&#45;&gt;MapChunkTypeUID</title>
<path fill="none" stroke="black" d="M1576.54,-143.7C1576.54,-135.98 1576.54,-126.71 1576.54,-118.11"/>
<polygon fill="black" stroke="black" points="1580.04,-118.1 1576.54,-108.1 1573.04,-118.1 1580.04,-118.1"/>
</g>
<!-- UIDReftyp -->
<g id="node19" class="node">
<title>UIDReftyp</title>
<ellipse fill="none" stroke="darkgreen" cx="1211.54" cy="-162" rx="59.59" ry="18"/>
<text text-anchor="middle" x="1211.54" y="-158.3" font-family="Times,serif" font-size="14.00">UIDReftyp</text>
</g>
<!-- UIDReftyp&#45;&gt;UID -->
<g id="edge14" class="edge">
<title>UIDReftyp&#45;&gt;UID</title>
<path fill="none" stroke="black" d="M1211.54,-143.7C1211.54,-135.98 1211.54,-126.71 1211.54,-118.11"/>
<polygon fill="black" stroke="black" points="1215.04,-118.1 1211.54,-108.1 1208.04,-118.1 1215.04,-118.1"/>
</g>
<!-- UnitypedUIDRef -->
<g id="node20" class="node">
<title>UnitypedUIDRef</title>
<ellipse fill="none" stroke="darkgreen" cx="1377.54" cy="-162" rx="87.99" ry="18"/>
<text text-anchor="middle" x="1377.54" y="-158.3" font-family="Times,serif" font-size="14.00">UnitypedUIDRef</text>
</g>
<!-- UnitypedUIDRef&#45;&gt;UID -->
<g id="edge15" class="edge">
<title>UnitypedUIDRef&#45;&gt;UID</title>
<path fill="none" stroke="black" d="M1339.9,-145.74C1314.34,-135.29 1279.81,-121.03 1249.54,-108 1247.7,-107.21 1245.81,-106.39 1243.91,-105.55"/>
<polygon fill="black" stroke="black" points="1244.97,-102.19 1234.4,-101.35 1242.14,-108.6 1244.97,-102.19"/>
</g>
</g>
</svg>
