<?xml version="1.0" encoding="UTF-8" standalone="no"?>
<!DOCTYPE svg PUBLIC "-//W3C//DTD SVG 1.1//EN"
 "http://www.w3.org/Graphics/SVG/1.1/DTD/svg11.dtd">
<!-- Generated by graphviz version 2.43.0 (0)
 -->
<!-- Title: alltypes Pages: 1 -->
<svg width="2974pt" height="188pt"
 viewBox="0.00 0.00 2973.83 188.00" xmlns="http://www.w3.org/2000/svg" xmlns:xlink="http://www.w3.org/1999/xlink">
<g id="graph0" class="graph" transform="scale(1 1) rotate(0) translate(4 184)">
<title>alltypes</title>
<polygon fill="white" stroke="transparent" points="-4,4 -4,-184 2969.83,-184 2969.83,4 -4,4"/>
<!-- ChunkDB -->
<g id="node1" class="node">
<title>ChunkDB</title>
<ellipse fill="none" stroke="#00cdcd" cx="1299.79" cy="-162" rx="54.69" ry="18"/>
<text text-anchor="middle" x="1299.79" y="-158.3" font-family="Times,serif" font-size="14.00">ChunkDB</text>
</g>
<!-- SymbolMap -->
<g id="node2" class="node">
<title>SymbolMap</title>
<ellipse fill="none" stroke="#ee0000" cx="156.79" cy="-90" rx="65.79" ry="18"/>
<text text-anchor="middle" x="156.79" y="-86.3" font-family="Times,serif" font-size="14.00">SymbolMap</text>
</g>
<!-- ChunkDB&#45;&gt;SymbolMap -->
<g id="edge1" class="edge">
<title>ChunkDB&#45;&gt;SymbolMap</title>
<path fill="none" stroke="black" d="M1245.21,-160.38C1090.37,-158.16 635.25,-148.42 259.79,-108 246.65,-106.59 232.64,-104.6 219.32,-102.48"/>
<polygon fill="black" stroke="black" points="219.73,-99 209.3,-100.84 218.6,-105.91 219.73,-99"/>
</g>
<!-- TermMap -->
<g id="node3" class="node">
<title>TermMap</title>
<ellipse fill="none" stroke="#ee0000" cx="323.79" cy="-90" rx="55.49" ry="18"/>
<text text-anchor="middle" x="323.79" y="-86.3" font-family="Times,serif" font-size="14.00">TermMap</text>
</g>
<!-- ChunkDB&#45;&gt;TermMap -->
<g id="edge2" class="edge">
<title>ChunkDB&#45;&gt;TermMap</title>
<path fill="none" stroke="black" d="M1245.55,-158.95C1110.84,-153.56 750.26,-137.35 450.79,-108 428.53,-105.82 404.15,-102.73 382.77,-99.78"/>
<polygon fill="black" stroke="black" points="383.24,-96.31 372.85,-98.39 382.27,-103.24 383.24,-96.31"/>
</g>
<!-- ConceptMap -->
<g id="node4" class="node">
<title>ConceptMap</title>
<ellipse fill="none" stroke="#ee0000" cx="529.79" cy="-90" rx="69.59" ry="18"/>
<text text-anchor="middle" x="529.79" y="-86.3" font-family="Times,serif" font-size="14.00">ConceptMap</text>
</g>
<!-- ChunkDB&#45;&gt;ConceptMap -->
<g id="edge3" class="edge">
<title>ChunkDB&#45;&gt;ConceptMap</title>
<path fill="none" stroke="black" d="M1246.89,-157.14C1138.88,-149.12 885.26,-129.6 672.79,-108 649.39,-105.62 623.88,-102.69 600.96,-99.94"/>
<polygon fill="black" stroke="black" points="601.33,-96.46 590.98,-98.74 600.49,-103.41 601.33,-96.46"/>
</g>
<!-- UnitMap -->
<g id="node5" class="node">
<title>UnitMap</title>
<ellipse fill="none" stroke="#ee0000" cx="733.79" cy="-90" rx="51.99" ry="18"/>
<text text-anchor="middle" x="733.79" y="-86.3" font-family="Times,serif" font-size="14.00">UnitMap</text>
</g>
<!-- ChunkDB&#45;&gt;UnitMap -->
<g id="edge4" class="edge">
<title>ChunkDB&#45;&gt;UnitMap</title>
<path fill="none" stroke="black" d="M1249.28,-155.15C1167.44,-145.63 1000.8,-126 859.79,-108 837.3,-105.13 812.57,-101.82 791.02,-98.9"/>
<polygon fill="black" stroke="black" points="791.42,-95.42 781.04,-97.54 790.47,-102.35 791.42,-95.42"/>
</g>
<!-- DatadefnMap -->
<g id="node6" class="node">
<title>DatadefnMap</title>
<ellipse fill="none" stroke="#ee0000" cx="941.79" cy="-90" rx="73.39" ry="18"/>
<text text-anchor="middle" x="941.79" y="-86.3" font-family="Times,serif" font-size="14.00">DatadefnMap</text>
</g>
<!-- ChunkDB&#45;&gt;DatadefnMap -->
<g id="edge5" class="edge">
<title>ChunkDB&#45;&gt;DatadefnMap</title>
<path fill="none" stroke="black" d="M1254.09,-152.06C1191.56,-139.84 1078.98,-117.83 1007.44,-103.84"/>
<polygon fill="black" stroke="black" points="1007.68,-100.32 997.2,-101.83 1006.34,-107.19 1007.68,-100.32"/>
</g>
<!-- InsModelMap -->
<g id="node7" class="node">
<title>InsModelMap</title>
<ellipse fill="none" stroke="#ee0000" cx="1141.79" cy="-90" rx="74.19" ry="18"/>
<text text-anchor="middle" x="1141.79" y="-86.3" font-family="Times,serif" font-size="14.00">InsModelMap</text>
</g>
<!-- ChunkDB&#45;&gt;InsModelMap -->
<g id="edge6" class="edge">
<title>ChunkDB&#45;&gt;InsModelMap</title>
<path fill="none" stroke="black" d="M1268.58,-147.17C1244.71,-136.6 1211.52,-121.89 1185.08,-110.18"/>
<polygon fill="black" stroke="black" points="1186.24,-106.86 1175.68,-106.01 1183.4,-113.26 1186.24,-106.86"/>
</g>
<!-- GendefMap -->
<g id="node8" class="node">
<title>GendefMap</title>
<ellipse fill="none" stroke="#ee0000" cx="1299.79" cy="-90" rx="64.19" ry="18"/>
<text text-anchor="middle" x="1299.79" y="-86.3" font-family="Times,serif" font-size="14.00">GendefMap</text>
</g>
<!-- ChunkDB&#45;&gt;GendefMap -->
<g id="edge7" class="edge">
<title>ChunkDB&#45;&gt;GendefMap</title>
<path fill="none" stroke="black" d="M1299.79,-143.7C1299.79,-135.98 1299.79,-126.71 1299.79,-118.11"/>
<polygon fill="black" stroke="black" points="1303.29,-118.1 1299.79,-108.1 1296.29,-118.1 1303.29,-118.1"/>
</g>
<!-- TheoryModelMap -->
<g id="node9" class="node">
<title>TheoryModelMap</title>
<ellipse fill="none" stroke="#ee0000" cx="1474.79" cy="-90" rx="92.08" ry="18"/>
<text text-anchor="middle" x="1474.79" y="-86.3" font-family="Times,serif" font-size="14.00">TheoryModelMap</text>
</g>
<!-- ChunkDB&#45;&gt;TheoryModelMap -->
<g id="edge8" class="edge">
<title>ChunkDB&#45;&gt;TheoryModelMap</title>
<path fill="none" stroke="black" d="M1333.12,-147.67C1359.61,-137.07 1397.01,-122.11 1426.74,-110.22"/>
<polygon fill="black" stroke="black" points="1428.11,-113.44 1436.1,-106.48 1425.51,-106.94 1428.11,-113.44"/>
</g>
<!-- ConceptInstanceMap -->
<g id="node10" class="node">
<title>ConceptInstanceMap</title>
<ellipse fill="none" stroke="#ee0000" cx="1693.79" cy="-90" rx="108.58" ry="18"/>
<text text-anchor="middle" x="1693.79" y="-86.3" font-family="Times,serif" font-size="14.00">ConceptInstanceMap</text>
</g>
<!-- ChunkDB&#45;&gt;ConceptInstanceMap -->
<g id="edge9" class="edge">
<title>ChunkDB&#45;&gt;ConceptInstanceMap</title>
<path fill="none" stroke="black" d="M1346.54,-152.7C1412.02,-141.06 1532.04,-119.74 1612.38,-105.46"/>
<polygon fill="black" stroke="black" points="1613.23,-108.87 1622.47,-103.67 1612.01,-101.98 1613.23,-108.87"/>
</g>
<!-- LabelledContentMap -->
<g id="node11" class="node">
<title>LabelledContentMap</title>
<ellipse fill="none" stroke="#ee0000" cx="1927.79" cy="-90" rx="107.78" ry="18"/>
<text text-anchor="middle" x="1927.79" y="-86.3" font-family="Times,serif" font-size="14.00">LabelledContentMap</text>
</g>
<!-- ChunkDB&#45;&gt;LabelledContentMap -->
<g id="edge10" class="edge">
<title>ChunkDB&#45;&gt;LabelledContentMap</title>
<path fill="none" stroke="black" d="M1351.84,-156.35C1444.47,-147.9 1643.98,-128.97 1811.79,-108 1821.23,-106.82 1831.1,-105.5 1840.91,-104.14"/>
<polygon fill="black" stroke="black" points="1841.69,-107.57 1851.11,-102.71 1840.72,-100.63 1841.69,-107.57"/>
</g>
<!-- ReferenceMap -->
<g id="node12" class="node">
<title>ReferenceMap</title>
<ellipse fill="none" stroke="#ee0000" cx="2131.79" cy="-90" rx="77.99" ry="18"/>
<text text-anchor="middle" x="2131.79" y="-86.3" font-family="Times,serif" font-size="14.00">ReferenceMap</text>
</g>
<!-- ChunkDB&#45;&gt;ReferenceMap -->
<g id="edge11" class="edge">
<title>ChunkDB&#45;&gt;ReferenceMap</title>
<path fill="none" stroke="black" d="M1354.24,-159.4C1477.61,-155.28 1787.71,-142.13 2044.79,-108 2051.92,-107.05 2059.35,-105.89 2066.73,-104.61"/>
<polygon fill="black" stroke="black" points="2067.51,-108.02 2076.73,-102.81 2066.27,-101.14 2067.51,-108.02"/>
</g>
<!-- TraceMap -->
<g id="node13" class="node">
<title>TraceMap</title>
<ellipse fill="none" stroke="#ee0000" cx="2284.79" cy="-90" rx="57.39" ry="18"/>
<text text-anchor="middle" x="2284.79" y="-86.3" font-family="Times,serif" font-size="14.00">TraceMap</text>
</g>
<!-- ChunkDB&#45;&gt;TraceMap -->
<g id="edge12" class="edge">
<title>ChunkDB&#45;&gt;TraceMap</title>
<path fill="none" stroke="black" d="M1354.56,-161.54C1497.62,-162.14 1893.91,-158.71 2218.79,-108 2223.85,-107.21 2229.08,-106.2 2234.29,-105.07"/>
<polygon fill="black" stroke="black" points="2235.26,-108.44 2244.21,-102.77 2233.68,-101.62 2235.26,-108.44"/>
</g>
<!-- RefbyMap -->
<g id="node14" class="node">
<title>RefbyMap</title>
<ellipse fill="none" stroke="#ee0000" cx="2417.79" cy="-90" rx="57.69" ry="18"/>
<text text-anchor="middle" x="2417.79" y="-86.3" font-family="Times,serif" font-size="14.00">RefbyMap</text>
</g>
<!-- ChunkDB&#45;&gt;RefbyMap -->
<g id="edge13" class="edge">
<title>ChunkDB&#45;&gt;RefbyMap</title>
<path fill="none" stroke="black" d="M1354.14,-159.68C1540.89,-154.93 2155.56,-137.39 2350.79,-108 2355.93,-107.23 2361.24,-106.23 2366.52,-105.11"/>
<polygon fill="black" stroke="black" points="2367.62,-108.45 2376.59,-102.82 2366.07,-101.62 2367.62,-108.45"/>
</g>
<!-- UMapQuantityDict -->
<g id="node17" class="node">
<title>UMapQuantityDict</title>
<ellipse fill="none" stroke="black" cx="98.79" cy="-18" rx="98.58" ry="18"/>
<text text-anchor="middle" x="98.79" y="-14.3" font-family="Times,serif" font-size="14.00">UMapQuantityDict</text>
</g>
<!-- SymbolMap&#45;&gt;UMapQuantityDict -->
<g id="edge15" class="edge">
<title>SymbolMap&#45;&gt;UMapQuantityDict</title>
<path fill="none" stroke="black" d="M142.75,-72.05C135.8,-63.67 127.27,-53.38 119.59,-44.1"/>
<polygon fill="black" stroke="black" points="122.18,-41.74 113.11,-36.28 116.79,-46.21 122.18,-41.74"/>
</g>
<!-- UMapIdeaDict -->
<g id="node20" class="node">
<title>UMapIdeaDict</title>
<ellipse fill="none" stroke="black" cx="293.79" cy="-18" rx="77.99" ry="18"/>
<text text-anchor="middle" x="293.79" y="-14.3" font-family="Times,serif" font-size="14.00">UMapIdeaDict</text>
</g>
<!-- TermMap&#45;&gt;UMapIdeaDict -->
<g id="edge18" class="edge">
<title>TermMap&#45;&gt;UMapIdeaDict</title>
<path fill="none" stroke="black" d="M316.53,-72.05C313.12,-64.09 308.97,-54.41 305.15,-45.51"/>
<polygon fill="black" stroke="black" points="308.35,-44.09 301.19,-36.28 301.92,-46.85 308.35,-44.09"/>
</g>
<!-- UMapConceptChunk -->
<g id="node18" class="node">
<title>UMapConceptChunk</title>
<ellipse fill="none" stroke="black" cx="496.79" cy="-18" rx="106.68" ry="18"/>
<text text-anchor="middle" x="496.79" y="-14.3" font-family="Times,serif" font-size="14.00">UMapConceptChunk</text>
</g>
<!-- ConceptMap&#45;&gt;UMapConceptChunk -->
<g id="edge16" class="edge">
<title>ConceptMap&#45;&gt;UMapConceptChunk</title>
<path fill="none" stroke="black" d="M521.8,-72.05C518.05,-64.09 513.48,-54.41 509.29,-45.51"/>
<polygon fill="black" stroke="black" points="512.37,-43.83 504.94,-36.28 506.03,-46.81 512.37,-43.83"/>
</g>
<!-- UMapUnitDefn -->
<g id="node19" class="node">
<title>UMapUnitDefn</title>
<ellipse fill="none" stroke="black" cx="702.79" cy="-18" rx="81.49" ry="18"/>
<text text-anchor="middle" x="702.79" y="-14.3" font-family="Times,serif" font-size="14.00">UMapUnitDefn</text>
</g>
<!-- UnitMap&#45;&gt;UMapUnitDefn -->
<g id="edge17" class="edge">
<title>UnitMap&#45;&gt;UMapUnitDefn</title>
<path fill="none" stroke="black" d="M726.29,-72.05C722.76,-64.09 718.47,-54.41 714.53,-45.51"/>
<polygon fill="black" stroke="black" points="717.69,-44 710.44,-36.28 711.29,-46.84 717.69,-44"/>
</g>
<!-- UMapDataDefinition -->
<g id="node22" class="node">
<title>UMapDataDefinition</title>
<ellipse fill="none" stroke="black" cx="908.79" cy="-18" rx="106.68" ry="18"/>
<text text-anchor="middle" x="908.79" y="-14.3" font-family="Times,serif" font-size="14.00">UMapDataDefinition</text>
</g>
<!-- DatadefnMap&#45;&gt;UMapDataDefinition -->
<g id="edge21" class="edge">
<title>DatadefnMap&#45;&gt;UMapDataDefinition</title>
<path fill="none" stroke="black" d="M933.8,-72.05C930.05,-64.09 925.48,-54.41 921.29,-45.51"/>
<polygon fill="black" stroke="black" points="924.37,-43.83 916.94,-36.28 918.03,-46.81 924.37,-43.83"/>
</g>
<!-- UMapInstanceModel -->
<g id="node23" class="node">
<title>UMapInstanceModel</title>
<ellipse fill="none" stroke="black" cx="1140.79" cy="-18" rx="107.48" ry="18"/>
<text text-anchor="middle" x="1140.79" y="-14.3" font-family="Times,serif" font-size="14.00">UMapInstanceModel</text>
</g>
<!-- InsModelMap&#45;&gt;UMapInstanceModel -->
<g id="edge22" class="edge">
<title>InsModelMap&#45;&gt;UMapInstanceModel</title>
<path fill="none" stroke="black" d="M1141.54,-71.7C1141.43,-63.98 1141.3,-54.71 1141.18,-46.11"/>
<polygon fill="black" stroke="black" points="1144.68,-46.05 1141.04,-36.1 1137.68,-46.15 1144.68,-46.05"/>
</g>
<!-- UMapGenDefn -->
<g id="node24" class="node">
<title>UMapGenDefn</title>
<ellipse fill="none" stroke="black" cx="1345.79" cy="-18" rx="79.09" ry="18"/>
<text text-anchor="middle" x="1345.79" y="-14.3" font-family="Times,serif" font-size="14.00">UMapGenDefn</text>
</g>
<!-- GendefMap&#45;&gt;UMapGenDefn -->
<g id="edge23" class="edge">
<title>GendefMap&#45;&gt;UMapGenDefn</title>
<path fill="none" stroke="black" d="M1310.93,-72.05C1316.33,-63.84 1322.93,-53.79 1328.93,-44.66"/>
<polygon fill="black" stroke="black" points="1331.87,-46.55 1334.44,-36.28 1326.02,-42.71 1331.87,-46.55"/>
</g>
<!-- UMapTheoryModel -->
<g id="node25" class="node">
<title>UMapTheoryModel</title>
<ellipse fill="none" stroke="black" cx="1542.79" cy="-18" rx="100.18" ry="18"/>
<text text-anchor="middle" x="1542.79" y="-14.3" font-family="Times,serif" font-size="14.00">UMapTheoryModel</text>
</g>
<!-- TheoryModelMap&#45;&gt;UMapTheoryModel -->
<g id="edge24" class="edge">
<title>TheoryModelMap&#45;&gt;UMapTheoryModel</title>
<path fill="none" stroke="black" d="M1491.25,-72.05C1499.69,-63.37 1510.11,-52.64 1519.37,-43.11"/>
<polygon fill="black" stroke="black" points="1522.02,-45.4 1526.48,-35.79 1517,-40.52 1522.02,-45.4"/>
</g>
<!-- UMapConceptInstance -->
<g id="node26" class="node">
<title>UMapConceptInstance</title>
<ellipse fill="none" stroke="black" cx="1776.79" cy="-18" rx="116.18" ry="18"/>
<text text-anchor="middle" x="1776.79" y="-14.3" font-family="Times,serif" font-size="14.00">UMapConceptInstance</text>
</g>
<!-- ConceptInstanceMap&#45;&gt;UMapConceptInstance -->
<g id="edge25" class="edge">
<title>ConceptInstanceMap&#45;&gt;UMapConceptInstance</title>
<path fill="none" stroke="black" d="M1713.88,-72.05C1724.49,-63.11 1737.66,-52.01 1749.2,-42.27"/>
<polygon fill="black" stroke="black" points="1751.5,-44.91 1756.88,-35.79 1746.98,-39.56 1751.5,-44.91"/>
</g>
<!-- UMapLabelledContent -->
<g id="node27" class="node">
<title>UMapLabelledContent</title>
<ellipse fill="none" stroke="black" cx="2026.79" cy="-18" rx="115.88" ry="18"/>
<text text-anchor="middle" x="2026.79" y="-14.3" font-family="Times,serif" font-size="14.00">UMapLabelledContent</text>
</g>
<!-- LabelledContentMap&#45;&gt;UMapLabelledContent -->
<g id="edge26" class="edge">
<title>LabelledContentMap&#45;&gt;UMapLabelledContent</title>
<path fill="none" stroke="black" d="M1951.25,-72.41C1964.23,-63.24 1980.54,-51.7 1994.68,-41.71"/>
<polygon fill="black" stroke="black" points="1997.01,-44.34 2003.15,-35.71 1992.97,-38.63 1997.01,-44.34"/>
</g>
<!-- UMapReference -->
<g id="node28" class="node">
<title>UMapReference</title>
<ellipse fill="none" stroke="black" cx="2245.79" cy="-18" rx="85.59" ry="18"/>
<text text-anchor="middle" x="2245.79" y="-14.3" font-family="Times,serif" font-size="14.00">UMapReference</text>
</g>
<!-- ReferenceMap&#45;&gt;UMapReference -->
<g id="edge27" class="edge">
<title>ReferenceMap&#45;&gt;UMapReference</title>
<path fill="none" stroke="black" d="M2157.95,-72.94C2173.62,-63.32 2193.75,-50.96 2210.78,-40.5"/>
<polygon fill="black" stroke="black" points="2212.67,-43.44 2219.36,-35.23 2209.01,-37.48 2212.67,-43.44"/>
</g>
<!-- MapUIDUID -->
<g id="node21" class="node">
<title>MapUIDUID</title>
<ellipse fill="none" stroke="black" cx="2417.79" cy="-18" rx="68.49" ry="18"/>
<text text-anchor="middle" x="2417.79" y="-14.3" font-family="Times,serif" font-size="14.00">MapUIDUID</text>
</g>
<!-- TraceMap&#45;&gt;MapUIDUID -->
<g id="edge19" class="edge">
<title>TraceMap&#45;&gt;MapUIDUID</title>
<path fill="none" stroke="black" d="M2313,-74.15C2332.39,-63.95 2358.38,-50.27 2379.62,-39.09"/>
<polygon fill="black" stroke="black" points="2381.49,-42.06 2388.71,-34.31 2378.23,-35.87 2381.49,-42.06"/>
</g>
<!-- RefbyMap&#45;&gt;MapUIDUID -->
<g id="edge20" class="edge">
<title>RefbyMap&#45;&gt;MapUIDUID</title>
<path fill="none" stroke="black" d="M2417.79,-71.7C2417.79,-63.98 2417.79,-54.71 2417.79,-46.11"/>
<polygon fill="black" stroke="black" points="2421.29,-46.1 2417.79,-36.1 2414.29,-46.1 2421.29,-46.1"/>
</g>
<!-- UMapa -->
<g id="node15" class="node">
<title>UMapa</title>
<ellipse fill="none" stroke="#ee0000" cx="2561.79" cy="-162" rx="44.39" ry="18"/>
<text text-anchor="middle" x="2561.79" y="-158.3" font-family="Times,serif" font-size="14.00">UMapa</text>
</g>
<!-- MapUIDaInt -->
<g id="node16" class="node">
<title>MapUIDaInt</title>
<ellipse fill="none" stroke="black" cx="2561.79" cy="-90" rx="68.49" ry="18"/>
<text text-anchor="middle" x="2561.79" y="-86.3" font-family="Times,serif" font-size="14.00">MapUIDaInt</text>
</g>
<!-- UMapa&#45;&gt;MapUIDaInt -->
<g id="edge14" class="edge">
<title>UMapa&#45;&gt;MapUIDaInt</title>
<path fill="none" stroke="black" d="M2561.79,-143.7C2561.79,-135.98 2561.79,-126.71 2561.79,-118.11"/>
<polygon fill="black" stroke="black" points="2565.29,-118.1 2561.79,-108.1 2558.29,-118.1 2565.29,-118.1"/>
</g>
<!-- ChunkType -->
<g id="node29" class="node">
<title>ChunkType</title>
<ellipse fill="none" stroke="#ee0000" cx="2688.79" cy="-162" rx="63.09" ry="18"/>
<text text-anchor="middle" x="2688.79" y="-158.3" font-family="Times,serif" font-size="14.00">ChunkType</text>
</g>
<!-- String -->
<g id="node30" class="node">
<title>String</title>
<ellipse fill="none" stroke="black" cx="2688.79" cy="-90" rx="40.09" ry="18"/>
<text text-anchor="middle" x="2688.79" y="-86.3" font-family="Times,serif" font-size="14.00">String</text>
</g>
<!-- ChunkType&#45;&gt;String -->
<g id="edge28" class="edge">
<title>ChunkType&#45;&gt;String</title>
<path fill="none" stroke="black" d="M2688.79,-143.7C2688.79,-135.98 2688.79,-126.71 2688.79,-118.11"/>
<polygon fill="black" stroke="black" points="2692.29,-118.1 2688.79,-108.1 2685.29,-118.1 2692.29,-118.1"/>
</g>
<!-- DumpedChunkDB -->
<g id="node31" class="node">
<title>DumpedChunkDB</title>
<ellipse fill="none" stroke="#ee0000" cx="2863.79" cy="-162" rx="93.68" ry="18"/>
<text text-anchor="middle" x="2863.79" y="-158.3" font-family="Times,serif" font-size="14.00">DumpedChunkDB</text>
</g>
<!-- MapChunkTypeUID -->
<g id="node32" class="node">
<title>MapChunkTypeUID</title>
<ellipse fill="none" stroke="black" cx="2863.79" cy="-90" rx="102.08" ry="18"/>
<text text-anchor="middle" x="2863.79" y="-86.3" font-family="Times,serif" font-size="14.00">MapChunkTypeUID</text>
</g>
<!-- DumpedChunkDB&#45;&gt;MapChunkTypeUID -->
<g id="edge29" class="edge">
<title>DumpedChunkDB&#45;&gt;MapChunkTypeUID</title>
<path fill="none" stroke="black" d="M2863.79,-143.7C2863.79,-135.98 2863.79,-126.71 2863.79,-118.11"/>
<polygon fill="black" stroke="black" points="2867.29,-118.1 2863.79,-108.1 2860.29,-118.1 2867.29,-118.1"/>
</g>
</g>
</svg>
