<?xml version="1.0" encoding="UTF-8" standalone="no"?>
<!DOCTYPE svg PUBLIC "-//W3C//DTD SVG 1.1//EN"
 "http://www.w3.org/Graphics/SVG/1.1/DTD/svg11.dtd">
<!-- Generated by graphviz version 2.43.0 (0)
 -->
<!-- Title: alltypes Pages: 1 -->
<svg width="2959pt" height="188pt"
 viewBox="0.00 0.00 2958.83 188.00" xmlns="http://www.w3.org/2000/svg" xmlns:xlink="http://www.w3.org/1999/xlink">
<g id="graph0" class="graph" transform="scale(1 1) rotate(0) translate(4 184)">
<title>alltypes</title>
<polygon fill="white" stroke="transparent" points="-4,4 -4,-184 2954.83,-184 2954.83,4 -4,4"/>
<!-- ChunkDB -->
<g id="node1" class="node">
<title>ChunkDB</title>
<ellipse fill="none" stroke="#00cdcd" cx="1128.79" cy="-162" rx="54.69" ry="18"/>
<text text-anchor="middle" x="1128.79" y="-158.3" font-family="Times,serif" font-size="14.00">ChunkDB</text>
</g>
<!-- SymbolMap -->
<g id="node2" class="node">
<title>SymbolMap</title>
<ellipse fill="none" stroke="#ee0000" cx="156.79" cy="-90" rx="65.79" ry="18"/>
<text text-anchor="middle" x="156.79" y="-86.3" font-family="Times,serif" font-size="14.00">SymbolMap</text>
</g>
<!-- ChunkDB&#45;&gt;SymbolMap -->
<g id="edge1" class="edge">
<title>ChunkDB&#45;&gt;SymbolMap</title>
<path fill="none" stroke="black" d="M1074.48,-159.62C937.45,-155.73 566.76,-142.6 259.79,-108 246.73,-106.53 232.81,-104.53 219.55,-102.41"/>
<polygon fill="black" stroke="black" points="220.01,-98.94 209.57,-100.78 218.88,-105.85 220.01,-98.94"/>
</g>
<!-- TermMap -->
<g id="node3" class="node">
<title>TermMap</title>
<ellipse fill="none" stroke="#ee0000" cx="323.79" cy="-90" rx="55.49" ry="18"/>
<text text-anchor="middle" x="323.79" y="-86.3" font-family="Times,serif" font-size="14.00">TermMap</text>
</g>
<!-- ChunkDB&#45;&gt;TermMap -->
<g id="edge2" class="edge">
<title>ChunkDB&#45;&gt;TermMap</title>
<path fill="none" stroke="black" d="M1075.52,-157.84C961.01,-150.82 682.97,-132.6 450.79,-108 428.74,-105.66 404.6,-102.57 383.35,-99.66"/>
<polygon fill="black" stroke="black" points="383.56,-96.16 373.17,-98.25 382.6,-103.09 383.56,-96.16"/>
</g>
<!-- ConceptMap -->
<g id="node4" class="node">
<title>ConceptMap</title>
<ellipse fill="none" stroke="#ee0000" cx="529.79" cy="-90" rx="69.59" ry="18"/>
<text text-anchor="middle" x="529.79" y="-86.3" font-family="Times,serif" font-size="14.00">ConceptMap</text>
</g>
<!-- ChunkDB&#45;&gt;ConceptMap -->
<g id="edge3" class="edge">
<title>ChunkDB&#45;&gt;ConceptMap</title>
<path fill="none" stroke="black" d="M1077.34,-155.83C989.55,-146.89 805.23,-127.6 649.79,-108 633.28,-105.92 615.52,-103.5 598.86,-101.15"/>
<polygon fill="black" stroke="black" points="599.03,-97.64 588.64,-99.7 598.05,-104.57 599.03,-97.64"/>
</g>
<!-- UnitMap -->
<g id="node5" class="node">
<title>UnitMap</title>
<ellipse fill="none" stroke="#ee0000" cx="710.79" cy="-90" rx="51.99" ry="18"/>
<text text-anchor="middle" x="710.79" y="-86.3" font-family="Times,serif" font-size="14.00">UnitMap</text>
</g>
<!-- ChunkDB&#45;&gt;UnitMap -->
<g id="edge4" class="edge">
<title>ChunkDB&#45;&gt;UnitMap</title>
<path fill="none" stroke="black" d="M1078.71,-154.77C1010.88,-146.01 886.17,-128.78 780.79,-108 774.51,-106.76 767.94,-105.34 761.45,-103.85"/>
<polygon fill="black" stroke="black" points="761.91,-100.37 751.38,-101.49 760.31,-107.18 761.91,-100.37"/>
</g>
<!-- TraceMap -->
<g id="node6" class="node">
<title>TraceMap</title>
<ellipse fill="none" stroke="#ee0000" cx="846.79" cy="-90" rx="57.39" ry="18"/>
<text text-anchor="middle" x="846.79" y="-86.3" font-family="Times,serif" font-size="14.00">TraceMap</text>
</g>
<!-- ChunkDB&#45;&gt;TraceMap -->
<g id="edge5" class="edge">
<title>ChunkDB&#45;&gt;TraceMap</title>
<path fill="none" stroke="black" d="M1086.13,-150.69C1042.54,-140.11 972.89,-123.11 912.79,-108 908.41,-106.9 903.87,-105.75 899.32,-104.59"/>
<polygon fill="black" stroke="black" points="899.93,-101.13 889.38,-102.05 898.2,-107.91 899.93,-101.13"/>
</g>
<!-- RefbyMap -->
<g id="node7" class="node">
<title>RefbyMap</title>
<ellipse fill="none" stroke="#ee0000" cx="979.79" cy="-90" rx="57.69" ry="18"/>
<text text-anchor="middle" x="979.79" y="-86.3" font-family="Times,serif" font-size="14.00">RefbyMap</text>
</g>
<!-- ChunkDB&#45;&gt;RefbyMap -->
<g id="edge6" class="edge">
<title>ChunkDB&#45;&gt;RefbyMap</title>
<path fill="none" stroke="black" d="M1098.64,-146.83C1075.87,-136.14 1044.4,-121.36 1019.57,-109.69"/>
<polygon fill="black" stroke="black" points="1020.95,-106.47 1010.41,-105.38 1017.97,-112.8 1020.95,-106.47"/>
</g>
<!-- DatadefnMap -->
<g id="node8" class="node">
<title>DatadefnMap</title>
<ellipse fill="none" stroke="#ee0000" cx="1128.79" cy="-90" rx="73.39" ry="18"/>
<text text-anchor="middle" x="1128.79" y="-86.3" font-family="Times,serif" font-size="14.00">DatadefnMap</text>
</g>
<!-- ChunkDB&#45;&gt;DatadefnMap -->
<g id="edge7" class="edge">
<title>ChunkDB&#45;&gt;DatadefnMap</title>
<path fill="none" stroke="black" d="M1128.79,-143.7C1128.79,-135.98 1128.79,-126.71 1128.79,-118.11"/>
<polygon fill="black" stroke="black" points="1132.29,-118.1 1128.79,-108.1 1125.29,-118.1 1132.29,-118.1"/>
</g>
<!-- InsModelMap -->
<g id="node9" class="node">
<title>InsModelMap</title>
<ellipse fill="none" stroke="#ee0000" cx="1294.79" cy="-90" rx="74.19" ry="18"/>
<text text-anchor="middle" x="1294.79" y="-86.3" font-family="Times,serif" font-size="14.00">InsModelMap</text>
</g>
<!-- ChunkDB&#45;&gt;InsModelMap -->
<g id="edge8" class="edge">
<title>ChunkDB&#45;&gt;InsModelMap</title>
<path fill="none" stroke="black" d="M1161.19,-147.34C1186.43,-136.7 1221.76,-121.8 1249.75,-110"/>
<polygon fill="black" stroke="black" points="1251.46,-113.07 1259.31,-105.96 1248.74,-106.62 1251.46,-113.07"/>
</g>
<!-- GendefMap -->
<g id="node10" class="node">
<title>GendefMap</title>
<ellipse fill="none" stroke="#ee0000" cx="1474.79" cy="-90" rx="64.19" ry="18"/>
<text text-anchor="middle" x="1474.79" y="-86.3" font-family="Times,serif" font-size="14.00">GendefMap</text>
</g>
<!-- ChunkDB&#45;&gt;GendefMap -->
<g id="edge9" class="edge">
<title>ChunkDB&#45;&gt;GendefMap</title>
<path fill="none" stroke="black" d="M1174.02,-151.85C1235.44,-139.42 1345.4,-117.18 1413.99,-103.3"/>
<polygon fill="black" stroke="black" points="1415.1,-106.65 1424.21,-101.23 1413.72,-99.79 1415.1,-106.65"/>
</g>
<!-- TheoryModelMap -->
<g id="node11" class="node">
<title>TheoryModelMap</title>
<ellipse fill="none" stroke="#ee0000" cx="1672.79" cy="-90" rx="92.08" ry="18"/>
<text text-anchor="middle" x="1672.79" y="-86.3" font-family="Times,serif" font-size="14.00">TheoryModelMap</text>
</g>
<!-- ChunkDB&#45;&gt;TheoryModelMap -->
<g id="edge10" class="edge">
<title>ChunkDB&#45;&gt;TheoryModelMap</title>
<path fill="none" stroke="black" d="M1179.12,-154.79C1257.81,-145.04 1414.75,-125.46 1547.79,-108 1561.33,-106.22 1575.7,-104.3 1589.67,-102.41"/>
<polygon fill="black" stroke="black" points="1590.33,-105.86 1599.77,-101.05 1589.39,-98.92 1590.33,-105.86"/>
</g>
<!-- ConceptInstanceMap -->
<g id="node12" class="node">
<title>ConceptInstanceMap</title>
<ellipse fill="none" stroke="#ee0000" cx="1910.79" cy="-90" rx="108.58" ry="18"/>
<text text-anchor="middle" x="1910.79" y="-86.3" font-family="Times,serif" font-size="14.00">ConceptInstanceMap</text>
</g>
<!-- ChunkDB&#45;&gt;ConceptInstanceMap -->
<g id="edge11" class="edge">
<title>ChunkDB&#45;&gt;ConceptInstanceMap</title>
<path fill="none" stroke="black" d="M1181.95,-157.38C1292.35,-149.7 1554.45,-130.61 1773.79,-108 1788.13,-106.52 1803.28,-104.8 1818.09,-103.03"/>
<polygon fill="black" stroke="black" points="1818.76,-106.48 1828.27,-101.8 1817.92,-99.53 1818.76,-106.48"/>
</g>
<!-- LabelledContentMap -->
<g id="node13" class="node">
<title>LabelledContentMap</title>
<ellipse fill="none" stroke="#ee0000" cx="2162.79" cy="-90" rx="107.78" ry="18"/>
<text text-anchor="middle" x="2162.79" y="-86.3" font-family="Times,serif" font-size="14.00">LabelledContentMap</text>
</g>
<!-- ChunkDB&#45;&gt;LabelledContentMap -->
<g id="edge12" class="edge">
<title>ChunkDB&#45;&gt;LabelledContentMap</title>
<path fill="none" stroke="black" d="M1182.91,-159.09C1322.96,-153.86 1708.71,-137.69 2028.79,-108 2042.93,-106.69 2057.87,-105.05 2072.44,-103.3"/>
<polygon fill="black" stroke="black" points="2072.96,-106.77 2082.46,-102.09 2072.11,-99.82 2072.96,-106.77"/>
</g>
<!-- ReferenceMap -->
<g id="node14" class="node">
<title>ReferenceMap</title>
<ellipse fill="none" stroke="#ee0000" cx="2382.79" cy="-90" rx="77.99" ry="18"/>
<text text-anchor="middle" x="2382.79" y="-86.3" font-family="Times,serif" font-size="14.00">ReferenceMap</text>
</g>
<!-- ChunkDB&#45;&gt;ReferenceMap -->
<g id="edge13" class="edge">
<title>ChunkDB&#45;&gt;ReferenceMap</title>
<path fill="none" stroke="black" d="M1183.48,-160.76C1349.09,-159.54 1859.53,-152.2 2279.79,-108 2290.94,-106.83 2302.72,-105.23 2314.17,-103.48"/>
<polygon fill="black" stroke="black" points="2314.79,-106.92 2324.13,-101.91 2313.7,-100.01 2314.79,-106.92"/>
</g>
<!-- UMapQuantityDict -->
<g id="node17" class="node">
<title>UMapQuantityDict</title>
<ellipse fill="none" stroke="black" cx="98.79" cy="-18" rx="98.58" ry="18"/>
<text text-anchor="middle" x="98.79" y="-14.3" font-family="Times,serif" font-size="14.00">UMapQuantityDict</text>
</g>
<!-- SymbolMap&#45;&gt;UMapQuantityDict -->
<g id="edge15" class="edge">
<title>SymbolMap&#45;&gt;UMapQuantityDict</title>
<path fill="none" stroke="black" d="M142.75,-72.05C135.8,-63.67 127.27,-53.38 119.59,-44.1"/>
<polygon fill="black" stroke="black" points="122.18,-41.74 113.11,-36.28 116.79,-46.21 122.18,-41.74"/>
</g>
<!-- UMapIdeaDict -->
<g id="node20" class="node">
<title>UMapIdeaDict</title>
<ellipse fill="none" stroke="black" cx="293.79" cy="-18" rx="77.99" ry="18"/>
<text text-anchor="middle" x="293.79" y="-14.3" font-family="Times,serif" font-size="14.00">UMapIdeaDict</text>
</g>
<!-- TermMap&#45;&gt;UMapIdeaDict -->
<g id="edge18" class="edge">
<title>TermMap&#45;&gt;UMapIdeaDict</title>
<path fill="none" stroke="black" d="M316.53,-72.05C313.12,-64.09 308.97,-54.41 305.15,-45.51"/>
<polygon fill="black" stroke="black" points="308.35,-44.09 301.19,-36.28 301.92,-46.85 308.35,-44.09"/>
</g>
<!-- UMapConceptChunk -->
<g id="node18" class="node">
<title>UMapConceptChunk</title>
<ellipse fill="none" stroke="black" cx="496.79" cy="-18" rx="106.68" ry="18"/>
<text text-anchor="middle" x="496.79" y="-14.3" font-family="Times,serif" font-size="14.00">UMapConceptChunk</text>
</g>
<!-- ConceptMap&#45;&gt;UMapConceptChunk -->
<g id="edge16" class="edge">
<title>ConceptMap&#45;&gt;UMapConceptChunk</title>
<path fill="none" stroke="black" d="M521.8,-72.05C518.05,-64.09 513.48,-54.41 509.29,-45.51"/>
<polygon fill="black" stroke="black" points="512.37,-43.83 504.94,-36.28 506.03,-46.81 512.37,-43.83"/>
</g>
<!-- UMapUnitDefn -->
<g id="node19" class="node">
<title>UMapUnitDefn</title>
<ellipse fill="none" stroke="black" cx="702.79" cy="-18" rx="81.49" ry="18"/>
<text text-anchor="middle" x="702.79" y="-14.3" font-family="Times,serif" font-size="14.00">UMapUnitDefn</text>
</g>
<!-- UnitMap&#45;&gt;UMapUnitDefn -->
<g id="edge17" class="edge">
<title>UnitMap&#45;&gt;UMapUnitDefn</title>
<path fill="none" stroke="black" d="M708.81,-71.7C707.93,-63.98 706.87,-54.71 705.89,-46.11"/>
<polygon fill="black" stroke="black" points="709.36,-45.64 704.75,-36.1 702.4,-46.44 709.36,-45.64"/>
</g>
<!-- MapUIDUID -->
<g id="node21" class="node">
<title>MapUIDUID</title>
<ellipse fill="none" stroke="black" cx="869.79" cy="-18" rx="68.49" ry="18"/>
<text text-anchor="middle" x="869.79" y="-14.3" font-family="Times,serif" font-size="14.00">MapUIDUID</text>
</g>
<!-- TraceMap&#45;&gt;MapUIDUID -->
<g id="edge19" class="edge">
<title>TraceMap&#45;&gt;MapUIDUID</title>
<path fill="none" stroke="black" d="M852.36,-72.05C854.95,-64.18 858.09,-54.62 860.99,-45.79"/>
<polygon fill="black" stroke="black" points="864.32,-46.87 864.12,-36.28 857.67,-44.68 864.32,-46.87"/>
</g>
<!-- RefbyMap&#45;&gt;MapUIDUID -->
<g id="edge20" class="edge">
<title>RefbyMap&#45;&gt;MapUIDUID</title>
<path fill="none" stroke="black" d="M955.65,-73.64C940.25,-63.84 920.07,-51 903.15,-40.23"/>
<polygon fill="black" stroke="black" points="904.95,-37.23 894.64,-34.81 901.19,-43.13 904.95,-37.23"/>
</g>
<!-- UMapDataDefinition -->
<g id="node22" class="node">
<title>UMapDataDefinition</title>
<ellipse fill="none" stroke="black" cx="1062.79" cy="-18" rx="106.68" ry="18"/>
<text text-anchor="middle" x="1062.79" y="-14.3" font-family="Times,serif" font-size="14.00">UMapDataDefinition</text>
</g>
<!-- DatadefnMap&#45;&gt;UMapDataDefinition -->
<g id="edge21" class="edge">
<title>DatadefnMap&#45;&gt;UMapDataDefinition</title>
<path fill="none" stroke="black" d="M1113.15,-72.41C1104.97,-63.73 1094.8,-52.95 1085.74,-43.34"/>
<polygon fill="black" stroke="black" points="1088.19,-40.83 1078.78,-35.96 1083.09,-45.63 1088.19,-40.83"/>
</g>
<!-- UMapInstanceModel -->
<g id="node23" class="node">
<title>UMapInstanceModel</title>
<ellipse fill="none" stroke="black" cx="1294.79" cy="-18" rx="107.48" ry="18"/>
<text text-anchor="middle" x="1294.79" y="-14.3" font-family="Times,serif" font-size="14.00">UMapInstanceModel</text>
</g>
<!-- InsModelMap&#45;&gt;UMapInstanceModel -->
<g id="edge22" class="edge">
<title>InsModelMap&#45;&gt;UMapInstanceModel</title>
<path fill="none" stroke="black" d="M1294.79,-71.7C1294.79,-63.98 1294.79,-54.71 1294.79,-46.11"/>
<polygon fill="black" stroke="black" points="1298.29,-46.1 1294.79,-36.1 1291.29,-46.1 1298.29,-46.1"/>
</g>
<!-- UMapGenDefn -->
<g id="node24" class="node">
<title>UMapGenDefn</title>
<ellipse fill="none" stroke="black" cx="1499.79" cy="-18" rx="79.09" ry="18"/>
<text text-anchor="middle" x="1499.79" y="-14.3" font-family="Times,serif" font-size="14.00">UMapGenDefn</text>
</g>
<!-- GendefMap&#45;&gt;UMapGenDefn -->
<g id="edge23" class="edge">
<title>GendefMap&#45;&gt;UMapGenDefn</title>
<path fill="none" stroke="black" d="M1480.84,-72.05C1483.66,-64.18 1487.07,-54.62 1490.22,-45.79"/>
<polygon fill="black" stroke="black" points="1493.55,-46.87 1493.62,-36.28 1486.96,-44.52 1493.55,-46.87"/>
</g>
<!-- UMapTheoryModel -->
<g id="node25" class="node">
<title>UMapTheoryModel</title>
<ellipse fill="none" stroke="black" cx="1696.79" cy="-18" rx="100.18" ry="18"/>
<text text-anchor="middle" x="1696.79" y="-14.3" font-family="Times,serif" font-size="14.00">UMapTheoryModel</text>
</g>
<!-- TheoryModelMap&#45;&gt;UMapTheoryModel -->
<g id="edge24" class="edge">
<title>TheoryModelMap&#45;&gt;UMapTheoryModel</title>
<path fill="none" stroke="black" d="M1678.72,-71.7C1681.4,-63.9 1684.62,-54.51 1687.59,-45.83"/>
<polygon fill="black" stroke="black" points="1690.99,-46.7 1690.93,-36.1 1684.37,-44.43 1690.99,-46.7"/>
</g>
<!-- UMapConceptInstance -->
<g id="node26" class="node">
<title>UMapConceptInstance</title>
<ellipse fill="none" stroke="black" cx="1930.79" cy="-18" rx="116.18" ry="18"/>
<text text-anchor="middle" x="1930.79" y="-14.3" font-family="Times,serif" font-size="14.00">UMapConceptInstance</text>
</g>
<!-- ConceptInstanceMap&#45;&gt;UMapConceptInstance -->
<g id="edge25" class="edge">
<title>ConceptInstanceMap&#45;&gt;UMapConceptInstance</title>
<path fill="none" stroke="black" d="M1915.74,-71.7C1917.96,-63.9 1920.65,-54.51 1923.13,-45.83"/>
<polygon fill="black" stroke="black" points="1926.52,-46.68 1925.9,-36.1 1919.79,-44.76 1926.52,-46.68"/>
</g>
<!-- UMapLabelledContent -->
<g id="node27" class="node">
<title>UMapLabelledContent</title>
<ellipse fill="none" stroke="black" cx="2180.79" cy="-18" rx="115.88" ry="18"/>
<text text-anchor="middle" x="2180.79" y="-14.3" font-family="Times,serif" font-size="14.00">UMapLabelledContent</text>
</g>
<!-- LabelledContentMap&#45;&gt;UMapLabelledContent -->
<g id="edge26" class="edge">
<title>LabelledContentMap&#45;&gt;UMapLabelledContent</title>
<path fill="none" stroke="black" d="M2167.24,-71.7C2169.25,-63.9 2171.66,-54.51 2173.89,-45.83"/>
<polygon fill="black" stroke="black" points="2177.29,-46.66 2176.39,-36.1 2170.51,-44.92 2177.29,-46.66"/>
</g>
<!-- UMapReference -->
<g id="node28" class="node">
<title>UMapReference</title>
<ellipse fill="none" stroke="black" cx="2399.79" cy="-18" rx="85.59" ry="18"/>
<text text-anchor="middle" x="2399.79" y="-14.3" font-family="Times,serif" font-size="14.00">UMapReference</text>
</g>
<!-- ReferenceMap&#45;&gt;UMapReference -->
<g id="edge27" class="edge">
<title>ReferenceMap&#45;&gt;UMapReference</title>
<path fill="none" stroke="black" d="M2386.99,-71.7C2388.89,-63.9 2391.17,-54.51 2393.28,-45.83"/>
<polygon fill="black" stroke="black" points="2396.68,-46.65 2395.64,-36.1 2389.88,-45 2396.68,-46.65"/>
</g>
<!-- UMapa -->
<g id="node15" class="node">
<title>UMapa</title>
<ellipse fill="none" stroke="#ee0000" cx="2546.79" cy="-162" rx="44.39" ry="18"/>
<text text-anchor="middle" x="2546.79" y="-158.3" font-family="Times,serif" font-size="14.00">UMapa</text>
</g>
<!-- MapUIDaInt -->
<g id="node16" class="node">
<title>MapUIDaInt</title>
<ellipse fill="none" stroke="black" cx="2546.79" cy="-90" rx="68.49" ry="18"/>
<text text-anchor="middle" x="2546.79" y="-86.3" font-family="Times,serif" font-size="14.00">MapUIDaInt</text>
</g>
<!-- UMapa&#45;&gt;MapUIDaInt -->
<g id="edge14" class="edge">
<title>UMapa&#45;&gt;MapUIDaInt</title>
<path fill="none" stroke="black" d="M2546.79,-143.7C2546.79,-135.98 2546.79,-126.71 2546.79,-118.11"/>
<polygon fill="black" stroke="black" points="2550.29,-118.1 2546.79,-108.1 2543.29,-118.1 2550.29,-118.1"/>
</g>
<!-- ChunkType -->
<g id="node29" class="node">
<title>ChunkType</title>
<ellipse fill="none" stroke="#ee0000" cx="2673.79" cy="-162" rx="63.09" ry="18"/>
<text text-anchor="middle" x="2673.79" y="-158.3" font-family="Times,serif" font-size="14.00">ChunkType</text>
</g>
<!-- String -->
<g id="node30" class="node">
<title>String</title>
<ellipse fill="none" stroke="black" cx="2673.79" cy="-90" rx="40.09" ry="18"/>
<text text-anchor="middle" x="2673.79" y="-86.3" font-family="Times,serif" font-size="14.00">String</text>
</g>
<!-- ChunkType&#45;&gt;String -->
<g id="edge28" class="edge">
<title>ChunkType&#45;&gt;String</title>
<path fill="none" stroke="black" d="M2673.79,-143.7C2673.79,-135.98 2673.79,-126.71 2673.79,-118.11"/>
<polygon fill="black" stroke="black" points="2677.29,-118.1 2673.79,-108.1 2670.29,-118.1 2677.29,-118.1"/>
</g>
<!-- DumpedChunkDB -->
<g id="node31" class="node">
<title>DumpedChunkDB</title>
<ellipse fill="none" stroke="#ee0000" cx="2848.79" cy="-162" rx="93.68" ry="18"/>
<text text-anchor="middle" x="2848.79" y="-158.3" font-family="Times,serif" font-size="14.00">DumpedChunkDB</text>
</g>
<!-- MapChunkTypeUID -->
<g id="node32" class="node">
<title>MapChunkTypeUID</title>
<ellipse fill="none" stroke="black" cx="2848.79" cy="-90" rx="102.08" ry="18"/>
<text text-anchor="middle" x="2848.79" y="-86.3" font-family="Times,serif" font-size="14.00">MapChunkTypeUID</text>
</g>
<!-- DumpedChunkDB&#45;&gt;MapChunkTypeUID -->
<g id="edge29" class="edge">
<title>DumpedChunkDB&#45;&gt;MapChunkTypeUID</title>
<path fill="none" stroke="black" d="M2848.79,-143.7C2848.79,-135.98 2848.79,-126.71 2848.79,-118.11"/>
<polygon fill="black" stroke="black" points="2852.29,-118.1 2848.79,-108.1 2845.29,-118.1 2852.29,-118.1"/>
</g>
</g>
</svg>
