<?xml version="1.0" encoding="UTF-8" standalone="no"?>
<!DOCTYPE svg PUBLIC "-//W3C//DTD SVG 1.1//EN"
 "http://www.w3.org/Graphics/SVG/1.1/DTD/svg11.dtd">
<!-- Generated by graphviz version 2.43.0 (0)
 -->
<!-- Title: alltypes Pages: 1 -->
<svg width="1637pt" height="188pt"
 viewBox="0.00 0.00 1637.03 188.00" xmlns="http://www.w3.org/2000/svg" xmlns:xlink="http://www.w3.org/1999/xlink">
<g id="graph0" class="graph" transform="scale(1 1) rotate(0) translate(4 184)">
<title>alltypes</title>
<polygon fill="white" stroke="transparent" points="-4,4 -4,-184 1633.03,-184 1633.03,4 -4,4"/>
<!-- ChunkDB -->
<g id="node1" class="node">
<title>ChunkDB</title>
<ellipse fill="none" stroke="#00cdcd" cx="594.99" cy="-162" rx="54.69" ry="18"/>
<text text-anchor="middle" x="594.99" y="-158.3" font-family="Times,serif" font-size="14.00">ChunkDB</text>
</g>
<!-- ChunkByUID -->
<g id="node2" class="node">
<title>ChunkByUID</title>
<ellipse fill="none" stroke="#ee0000" cx="159.99" cy="-90" rx="71.49" ry="18"/>
<text text-anchor="middle" x="159.99" y="-86.3" font-family="Times,serif" font-size="14.00">ChunkByUID</text>
</g>
<!-- ChunkDB&#45;&gt;ChunkByUID -->
<g id="edge1" class="edge">
<title>ChunkDB&#45;&gt;ChunkByUID</title>
<path fill="none" stroke="black" d="M546.38,-153.72C480.51,-143.77 359.26,-125.21 255.99,-108 246.35,-106.39 236.17,-104.65 226.19,-102.9"/>
<polygon fill="black" stroke="black" points="226.76,-99.45 216.3,-101.17 225.55,-106.34 226.76,-99.45"/>
</g>
<!-- ChunksByTypeRep -->
<g id="node3" class="node">
<title>ChunksByTypeRep</title>
<ellipse fill="none" stroke="#ee0000" cx="362.99" cy="-90" rx="98.28" ry="18"/>
<text text-anchor="middle" x="362.99" y="-86.3" font-family="Times,serif" font-size="14.00">ChunksByTypeRep</text>
</g>
<!-- ChunkDB&#45;&gt;ChunksByTypeRep -->
<g id="edge2" class="edge">
<title>ChunkDB&#45;&gt;ChunksByTypeRep</title>
<path fill="none" stroke="black" d="M556.16,-149.28C519.3,-138.16 463.42,-121.3 421.22,-108.57"/>
<polygon fill="black" stroke="black" points="422.21,-105.21 411.63,-105.68 420.19,-111.92 422.21,-105.21"/>
</g>
<!-- UMapLabelledContent -->
<g id="node4" class="node">
<title>UMapLabelledContent</title>
<ellipse fill="none" stroke="black" cx="594.99" cy="-90" rx="115.88" ry="18"/>
<text text-anchor="middle" x="594.99" y="-86.3" font-family="Times,serif" font-size="14.00">UMapLabelledContent</text>
</g>
<!-- ChunkDB&#45;&gt;UMapLabelledContent -->
<g id="edge3" class="edge">
<title>ChunkDB&#45;&gt;UMapLabelledContent</title>
<path fill="none" stroke="black" d="M594.99,-143.7C594.99,-135.98 594.99,-126.71 594.99,-118.11"/>
<polygon fill="black" stroke="black" points="598.49,-118.1 594.99,-108.1 591.49,-118.1 598.49,-118.1"/>
</g>
<!-- UMapReference -->
<g id="node5" class="node">
<title>UMapReference</title>
<ellipse fill="none" stroke="black" cx="813.99" cy="-90" rx="85.59" ry="18"/>
<text text-anchor="middle" x="813.99" y="-86.3" font-family="Times,serif" font-size="14.00">UMapReference</text>
</g>
<!-- ChunkDB&#45;&gt;UMapReference -->
<g id="edge4" class="edge">
<title>ChunkDB&#45;&gt;UMapReference</title>
<path fill="none" stroke="black" d="M633.14,-148.81C668.04,-137.65 720.09,-121.01 759.4,-108.45"/>
<polygon fill="black" stroke="black" points="760.64,-111.73 769.1,-105.35 758.51,-105.06 760.64,-111.73"/>
</g>
<!-- MapUIDUID -->
<g id="node6" class="node">
<title>MapUIDUID</title>
<ellipse fill="none" stroke="black" cx="985.99" cy="-90" rx="68.49" ry="18"/>
<text text-anchor="middle" x="985.99" y="-86.3" font-family="Times,serif" font-size="14.00">MapUIDUID</text>
</g>
<!-- ChunkDB&#45;&gt;MapUIDUID -->
<g id="edge5" class="edge">
<title>ChunkDB&#45;&gt;MapUIDUID</title>
<path fill="none" stroke="black" d="M643.54,-153.58C705.35,-143.95 815.38,-126.22 908.99,-108 914.45,-106.94 920.11,-105.78 925.78,-104.6"/>
<polygon fill="black" stroke="black" points="926.9,-107.94 935.95,-102.43 925.44,-101.09 926.9,-107.94"/>
</g>
<!-- MapUIDChunkDependant -->
<g id="node9" class="node">
<title>MapUIDChunkDependant</title>
<ellipse fill="none" stroke="black" cx="129.99" cy="-18" rx="129.98" ry="18"/>
<text text-anchor="middle" x="129.99" y="-14.3" font-family="Times,serif" font-size="14.00">MapUIDChunkDependant</text>
</g>
<!-- ChunkByUID&#45;&gt;MapUIDChunkDependant -->
<g id="edge7" class="edge">
<title>ChunkByUID&#45;&gt;MapUIDChunkDependant</title>
<path fill="none" stroke="black" d="M152.73,-72.05C149.31,-64.09 145.16,-54.41 141.35,-45.51"/>
<polygon fill="black" stroke="black" points="144.55,-44.09 137.39,-36.28 138.11,-46.85 144.55,-44.09"/>
</g>
<!-- MapTypeRepChunk -->
<g id="node10" class="node">
<title>MapTypeRepChunk</title>
<ellipse fill="none" stroke="black" cx="378.99" cy="-18" rx="101.28" ry="18"/>
<text text-anchor="middle" x="378.99" y="-14.3" font-family="Times,serif" font-size="14.00">MapTypeRepChunk</text>
</g>
<!-- ChunksByTypeRep&#45;&gt;MapTypeRepChunk -->
<g id="edge8" class="edge">
<title>ChunksByTypeRep&#45;&gt;MapTypeRepChunk</title>
<path fill="none" stroke="black" d="M366.94,-71.7C368.71,-63.98 370.83,-54.71 372.79,-46.11"/>
<polygon fill="black" stroke="black" points="376.26,-46.63 375.08,-36.1 369.44,-45.07 376.26,-46.63"/>
</g>
<!-- Dependant -->
<g id="node7" class="node">
<title>Dependant</title>
<ellipse fill="none" stroke="#ee0000" cx="1100.99" cy="-162" rx="61.99" ry="18"/>
<text text-anchor="middle" x="1100.99" y="-158.3" font-family="Times,serif" font-size="14.00">Dependant</text>
</g>
<!-- UID -->
<g id="node8" class="node">
<title>UID</title>
<ellipse fill="none" stroke="black" cx="1100.99" cy="-90" rx="29.5" ry="18"/>
<text text-anchor="middle" x="1100.99" y="-86.3" font-family="Times,serif" font-size="14.00">UID</text>
</g>
<!-- Dependant&#45;&gt;UID -->
<g id="edge6" class="edge">
<title>Dependant&#45;&gt;UID</title>
<path fill="none" stroke="black" d="M1100.99,-143.7C1100.99,-135.98 1100.99,-126.71 1100.99,-118.11"/>
<polygon fill="black" stroke="black" points="1104.49,-118.1 1100.99,-108.1 1097.49,-118.1 1104.49,-118.1"/>
</g>
<!-- UMapa -->
<g id="node11" class="node">
<title>UMapa</title>
<ellipse fill="none" stroke="#ee0000" cx="1224.99" cy="-162" rx="44.39" ry="18"/>
<text text-anchor="middle" x="1224.99" y="-158.3" font-family="Times,serif" font-size="14.00">UMapa</text>
</g>
<!-- MapUIDaInt -->
<g id="node12" class="node">
<title>MapUIDaInt</title>
<ellipse fill="none" stroke="black" cx="1224.99" cy="-90" rx="68.49" ry="18"/>
<text text-anchor="middle" x="1224.99" y="-86.3" font-family="Times,serif" font-size="14.00">MapUIDaInt</text>
</g>
<!-- UMapa&#45;&gt;MapUIDaInt -->
<g id="edge9" class="edge">
<title>UMapa&#45;&gt;MapUIDaInt</title>
<path fill="none" stroke="black" d="M1224.99,-143.7C1224.99,-135.98 1224.99,-126.71 1224.99,-118.11"/>
<polygon fill="black" stroke="black" points="1228.49,-118.1 1224.99,-108.1 1221.49,-118.1 1228.49,-118.1"/>
</g>
<!-- ChunkType -->
<g id="node13" class="node">
<title>ChunkType</title>
<ellipse fill="none" stroke="#ee0000" cx="1351.99" cy="-162" rx="63.09" ry="18"/>
<text text-anchor="middle" x="1351.99" y="-158.3" font-family="Times,serif" font-size="14.00">ChunkType</text>
</g>
<!-- String -->
<g id="node14" class="node">
<title>String</title>
<ellipse fill="none" stroke="black" cx="1351.99" cy="-90" rx="40.09" ry="18"/>
<text text-anchor="middle" x="1351.99" y="-86.3" font-family="Times,serif" font-size="14.00">String</text>
</g>
<!-- ChunkType&#45;&gt;String -->
<g id="edge10" class="edge">
<title>ChunkType&#45;&gt;String</title>
<path fill="none" stroke="black" d="M1351.99,-143.7C1351.99,-135.98 1351.99,-126.71 1351.99,-118.11"/>
<polygon fill="black" stroke="black" points="1355.49,-118.1 1351.99,-108.1 1348.49,-118.1 1355.49,-118.1"/>
</g>
<!-- DumpedChunkDB -->
<g id="node15" class="node">
<title>DumpedChunkDB</title>
<ellipse fill="none" stroke="#ee0000" cx="1526.99" cy="-162" rx="93.68" ry="18"/>
<text text-anchor="middle" x="1526.99" y="-158.3" font-family="Times,serif" font-size="14.00">DumpedChunkDB</text>
</g>
<!-- MapChunkTypeUID -->
<g id="node16" class="node">
<title>MapChunkTypeUID</title>
<ellipse fill="none" stroke="black" cx="1526.99" cy="-90" rx="102.08" ry="18"/>
<text text-anchor="middle" x="1526.99" y="-86.3" font-family="Times,serif" font-size="14.00">MapChunkTypeUID</text>
</g>
<!-- DumpedChunkDB&#45;&gt;MapChunkTypeUID -->
<g id="edge11" class="edge">
<title>DumpedChunkDB&#45;&gt;MapChunkTypeUID</title>
<path fill="none" stroke="black" d="M1526.99,-143.7C1526.99,-135.98 1526.99,-126.71 1526.99,-118.11"/>
<polygon fill="black" stroke="black" points="1530.49,-118.1 1526.99,-108.1 1523.49,-118.1 1530.49,-118.1"/>
</g>
</g>
</svg>
