<?xml version="1.0" encoding="UTF-8" standalone="no"?>
<!DOCTYPE svg PUBLIC "-//W3C//DTD SVG 1.1//EN"
 "http://www.w3.org/Graphics/SVG/1.1/DTD/svg11.dtd">
<!-- Generated by graphviz version 2.43.0 (0)
 -->
<!-- Title: alltypes Pages: 1 -->
<svg width="900pt" height="188pt"
 viewBox="0.00 0.00 900.19 188.00" xmlns="http://www.w3.org/2000/svg" xmlns:xlink="http://www.w3.org/1999/xlink">
<g id="graph0" class="graph" transform="scale(1 1) rotate(0) translate(4 184)">
<title>alltypes</title>
<polygon fill="white" stroke="transparent" points="-4,4 -4,-184 896.19,-184 896.19,4 -4,4"/>
<!-- Path -->
<g id="node1" class="node">
<title>Path</title>
<ellipse fill="none" stroke="#ee0000" cx="31.85" cy="-90" rx="31.7" ry="18"/>
<text text-anchor="middle" x="31.85" y="-86.3" font-family="Times,serif" font-size="14.00">Path</text>
</g>
<!-- String -->
<g id="node2" class="node">
<title>String</title>
<ellipse fill="none" stroke="black" cx="359.85" cy="-18" rx="40.09" ry="18"/>
<text text-anchor="middle" x="359.85" y="-14.3" font-family="Times,serif" font-size="14.00">String</text>
</g>
<!-- Path&#45;&gt;String -->
<g id="edge1" class="edge">
<title>Path&#45;&gt;String</title>
<path fill="none" stroke="black" d="M55.82,-78.07C61.34,-75.84 67.23,-73.66 72.85,-72 154.89,-47.71 253.57,-32.41 311.24,-24.8"/>
<polygon fill="black" stroke="black" points="311.71,-28.27 321.18,-23.51 310.81,-21.33 311.71,-28.27"/>
</g>
<!-- TargetFile -->
<g id="node3" class="node">
<title>TargetFile</title>
<ellipse fill="none" stroke="#ee0000" cx="139.85" cy="-90" rx="58.49" ry="18"/>
<text text-anchor="middle" x="139.85" y="-86.3" font-family="Times,serif" font-size="14.00">TargetFile</text>
</g>
<!-- TargetFile&#45;&gt;String -->
<g id="edge2" class="edge">
<title>TargetFile&#45;&gt;String</title>
<path fill="none" stroke="black" d="M178.93,-76.57C218.08,-64.11 278.14,-45 318.19,-32.26"/>
<polygon fill="black" stroke="black" points="319.44,-35.53 327.91,-29.16 317.32,-28.86 319.44,-35.53"/>
</g>
<!-- DocChoices -->
<g id="node4" class="node">
<title>DocChoices</title>
<ellipse fill="none" stroke="#00cdcd" cx="827.85" cy="-90" rx="64.19" ry="18"/>
<text text-anchor="middle" x="827.85" y="-86.3" font-family="Times,serif" font-size="14.00">DocChoices</text>
</g>
<!-- Format -->
<g id="node5" class="node">
<title>Format</title>
<ellipse fill="none" stroke="darkviolet" cx="781.85" cy="-18" rx="44.39" ry="18"/>
<text text-anchor="middle" x="781.85" y="-14.3" font-family="Times,serif" font-size="14.00">Format</text>
</g>
<!-- DocChoices&#45;&gt;Format -->
<g id="edge3" class="edge">
<title>DocChoices&#45;&gt;Format</title>
<path fill="none" stroke="black" d="M816.71,-72.05C811.23,-63.71 804.51,-53.49 798.44,-44.25"/>
<polygon fill="black" stroke="black" points="801.3,-42.22 792.88,-35.79 795.45,-46.07 801.3,-42.22"/>
</g>
<!-- DocSpec -->
<g id="node6" class="node">
<title>DocSpec</title>
<ellipse fill="none" stroke="darkviolet" cx="735.85" cy="-162" rx="50.89" ry="18"/>
<text text-anchor="middle" x="735.85" y="-158.3" font-family="Times,serif" font-size="14.00">DocSpec</text>
</g>
<!-- DocSpec&#45;&gt;DocChoices -->
<g id="edge4" class="edge">
<title>DocSpec&#45;&gt;DocChoices</title>
<path fill="none" stroke="black" d="M756.26,-145.46C768.63,-136.06 784.6,-123.9 798.33,-113.46"/>
<polygon fill="black" stroke="black" points="800.69,-116.06 806.53,-107.22 796.45,-110.49 800.69,-116.06"/>
</g>
<!-- DocSpec&#45;&gt;Format -->
<g id="edge6" class="edge">
<title>DocSpec&#45;&gt;Format</title>
<path fill="none" stroke="black" d="M738.14,-143.91C740.89,-125.72 746.24,-96.27 754.85,-72 758.11,-62.81 762.64,-53.18 767.06,-44.7"/>
<polygon fill="black" stroke="black" points="770.25,-46.15 771.92,-35.68 764.09,-42.82 770.25,-46.15"/>
</g>
<!-- Filename -->
<g id="node7" class="node">
<title>Filename</title>
<ellipse fill="none" stroke="#ee0000" cx="430.85" cy="-90" rx="53.89" ry="18"/>
<text text-anchor="middle" x="430.85" y="-86.3" font-family="Times,serif" font-size="14.00">Filename</text>
</g>
<!-- DocSpec&#45;&gt;Filename -->
<g id="edge5" class="edge">
<title>DocSpec&#45;&gt;Filename</title>
<path fill="none" stroke="black" d="M692.86,-152.24C644.37,-142.2 563.2,-124.94 493.85,-108 489.7,-106.99 485.41,-105.9 481.1,-104.79"/>
<polygon fill="black" stroke="black" points="481.66,-101.32 471.1,-102.17 479.89,-108.09 481.66,-101.32"/>
</g>
<!-- Filename&#45;&gt;String -->
<g id="edge12" class="edge">
<title>Filename&#45;&gt;String</title>
<path fill="none" stroke="black" d="M414.38,-72.76C405.02,-63.53 393.15,-51.83 382.88,-41.7"/>
<polygon fill="black" stroke="black" points="385.32,-39.19 375.74,-34.67 380.4,-44.18 385.32,-39.19"/>
</g>
<!-- DocClass -->
<g id="node8" class="node">
<title>DocClass</title>
<ellipse fill="none" stroke="darkviolet" cx="555.85" cy="-90" rx="53.09" ry="18"/>
<text text-anchor="middle" x="555.85" y="-86.3" font-family="Times,serif" font-size="14.00">DocClass</text>
</g>
<!-- DocClass&#45;&gt;String -->
<g id="edge8" class="edge">
<title>DocClass&#45;&gt;String</title>
<path fill="none" stroke="black" d="M520.35,-76.32C486.37,-64.19 435.18,-45.9 399.79,-33.26"/>
<polygon fill="black" stroke="black" points="400.85,-29.93 390.25,-29.86 398.49,-36.52 400.85,-29.93"/>
</g>
<!-- Maybe -->
<g id="node9" class="node">
<title>Maybe</title>
<ellipse fill="none" stroke="black" cx="593.85" cy="-18" rx="42.49" ry="18"/>
<text text-anchor="middle" x="593.85" y="-14.3" font-family="Times,serif" font-size="14.00">Maybe</text>
</g>
<!-- DocClass&#45;&gt;Maybe -->
<g id="edge7" class="edge">
<title>DocClass&#45;&gt;Maybe</title>
<path fill="none" stroke="black" d="M565.05,-72.05C569.48,-63.89 574.9,-53.91 579.83,-44.82"/>
<polygon fill="black" stroke="black" points="583.04,-46.25 584.73,-35.79 576.89,-42.91 583.04,-46.25"/>
</g>
<!-- ExDoc -->
<g id="node10" class="node">
<title>ExDoc</title>
<ellipse fill="none" stroke="darkviolet" cx="667.85" cy="-90" rx="40.09" ry="18"/>
<text text-anchor="middle" x="667.85" y="-86.3" font-family="Times,serif" font-size="14.00">ExDoc</text>
</g>
<!-- ExDoc&#45;&gt;String -->
<g id="edge10" class="edge">
<title>ExDoc&#45;&gt;String</title>
<path fill="none" stroke="black" d="M637.63,-78.05C631.15,-75.89 624.31,-73.75 617.85,-72 545.03,-52.23 458.9,-35.92 406.87,-26.83"/>
<polygon fill="black" stroke="black" points="407.38,-23.37 396.93,-25.11 406.19,-30.27 407.38,-23.37"/>
</g>
<!-- ExDoc&#45;&gt;Maybe -->
<g id="edge9" class="edge">
<title>ExDoc&#45;&gt;Maybe</title>
<path fill="none" stroke="black" d="M651.42,-73.46C641.53,-64.11 628.76,-52.02 617.76,-41.62"/>
<polygon fill="black" stroke="black" points="620.15,-39.06 610.48,-34.73 615.34,-44.15 620.15,-39.06"/>
</g>
<!-- UsePackages -->
<g id="node11" class="node">
<title>UsePackages</title>
<ellipse fill="none" stroke="darkgreen" cx="287.85" cy="-90" rx="71.49" ry="18"/>
<text text-anchor="middle" x="287.85" y="-86.3" font-family="Times,serif" font-size="14.00">UsePackages</text>
</g>
<!-- UsePackages&#45;&gt;String -->
<g id="edge11" class="edge">
<title>UsePackages&#45;&gt;String</title>
<path fill="none" stroke="black" d="M304.91,-72.41C314.19,-63.39 325.81,-52.09 335.98,-42.21"/>
<polygon fill="black" stroke="black" points="338.67,-44.47 343.4,-34.99 333.79,-39.45 338.67,-44.47"/>
</g>
</g>
</svg>
