<?xml version="1.0" encoding="UTF-8" standalone="no"?>
<!DOCTYPE svg PUBLIC "-//W3C//DTD SVG 1.1//EN"
 "http://www.w3.org/Graphics/SVG/1.1/DTD/svg11.dtd">
<!-- Generated by graphviz version 2.43.0 (0)
 -->
<!-- Title: alltypes Pages: 1 -->
<svg width="620pt" height="188pt"
 viewBox="0.00 0.00 619.99 188.00" xmlns="http://www.w3.org/2000/svg" xmlns:xlink="http://www.w3.org/1999/xlink">
<g id="graph0" class="graph" transform="scale(1 1) rotate(0) translate(4 184)">
<title>alltypes</title>
<polygon fill="white" stroke="transparent" points="-4,4 -4,-184 615.99,-184 615.99,4 -4,4"/>
<!-- DocType -->
<g id="node1" class="node">
<title>DocType</title>
<ellipse fill="none" stroke="darkviolet" cx="50.7" cy="-90" rx="50.89" ry="18"/>
<text text-anchor="middle" x="50.7" y="-86.3" font-family="Times,serif" font-size="14.00">DocType</text>
</g>
<!-- DocSpec -->
<g id="node2" class="node">
<title>DocSpec</title>
<ellipse fill="none" stroke="darkviolet" cx="111.7" cy="-162" rx="50.89" ry="18"/>
<text text-anchor="middle" x="111.7" y="-158.3" font-family="Times,serif" font-size="14.00">DocSpec</text>
</g>
<!-- DocSpec&#45;&gt;DocType -->
<g id="edge1" class="edge">
<title>DocSpec&#45;&gt;DocType</title>
<path fill="none" stroke="black" d="M97.24,-144.41C89.64,-135.69 80.19,-124.85 71.79,-115.21"/>
<polygon fill="black" stroke="black" points="74.26,-112.71 65.05,-107.47 68.98,-117.31 74.26,-112.71"/>
</g>
<!-- Filename -->
<g id="node3" class="node">
<title>Filename</title>
<ellipse fill="none" stroke="#ee0000" cx="173.7" cy="-90" rx="53.89" ry="18"/>
<text text-anchor="middle" x="173.7" y="-86.3" font-family="Times,serif" font-size="14.00">Filename</text>
</g>
<!-- DocSpec&#45;&gt;Filename -->
<g id="edge2" class="edge">
<title>DocSpec&#45;&gt;Filename</title>
<path fill="none" stroke="black" d="M126.39,-144.41C134.11,-135.69 143.72,-124.85 152.25,-115.21"/>
<polygon fill="black" stroke="black" points="155.1,-117.28 159.11,-107.47 149.86,-112.64 155.1,-117.28"/>
</g>
<!-- String -->
<g id="node6" class="node">
<title>String</title>
<ellipse fill="none" stroke="black" cx="387.7" cy="-18" rx="40.09" ry="18"/>
<text text-anchor="middle" x="387.7" y="-14.3" font-family="Times,serif" font-size="14.00">String</text>
</g>
<!-- Filename&#45;&gt;String -->
<g id="edge8" class="edge">
<title>Filename&#45;&gt;String</title>
<path fill="none" stroke="black" d="M210.97,-76.81C248.84,-64.42 307.34,-45.29 346.54,-32.46"/>
<polygon fill="black" stroke="black" points="347.65,-35.78 356.07,-29.35 345.48,-29.13 347.65,-35.78"/>
</g>
<!-- DocClass -->
<g id="node4" class="node">
<title>DocClass</title>
<ellipse fill="none" stroke="darkviolet" cx="558.7" cy="-90" rx="53.09" ry="18"/>
<text text-anchor="middle" x="558.7" y="-86.3" font-family="Times,serif" font-size="14.00">DocClass</text>
</g>
<!-- Maybe -->
<g id="node5" class="node">
<title>Maybe</title>
<ellipse fill="none" stroke="black" cx="502.7" cy="-18" rx="42.49" ry="18"/>
<text text-anchor="middle" x="502.7" y="-14.3" font-family="Times,serif" font-size="14.00">Maybe</text>
</g>
<!-- DocClass&#45;&gt;Maybe -->
<g id="edge3" class="edge">
<title>DocClass&#45;&gt;Maybe</title>
<path fill="none" stroke="black" d="M545.42,-72.41C538.52,-63.78 529.95,-53.06 522.29,-43.5"/>
<polygon fill="black" stroke="black" points="524.85,-41.09 515.87,-35.47 519.39,-45.47 524.85,-41.09"/>
</g>
<!-- DocClass&#45;&gt;String -->
<g id="edge4" class="edge">
<title>DocClass&#45;&gt;String</title>
<path fill="none" stroke="black" d="M526.13,-75.67C497.54,-63.96 455.92,-46.93 425.79,-34.6"/>
<polygon fill="black" stroke="black" points="427.02,-31.32 416.44,-30.77 424.37,-37.8 427.02,-31.32"/>
</g>
<!-- ExDoc -->
<g id="node7" class="node">
<title>ExDoc</title>
<ellipse fill="none" stroke="darkviolet" cx="446.7" cy="-90" rx="40.09" ry="18"/>
<text text-anchor="middle" x="446.7" y="-86.3" font-family="Times,serif" font-size="14.00">ExDoc</text>
</g>
<!-- ExDoc&#45;&gt;Maybe -->
<g id="edge5" class="edge">
<title>ExDoc&#45;&gt;Maybe</title>
<path fill="none" stroke="black" d="M459.68,-72.76C466.75,-63.93 475.63,-52.83 483.48,-43.01"/>
<polygon fill="black" stroke="black" points="486.26,-45.14 489.78,-35.15 480.8,-40.77 486.26,-45.14"/>
</g>
<!-- ExDoc&#45;&gt;String -->
<g id="edge6" class="edge">
<title>ExDoc&#45;&gt;String</title>
<path fill="none" stroke="black" d="M433.01,-72.76C425.56,-63.93 416.21,-52.83 407.94,-43.01"/>
<polygon fill="black" stroke="black" points="410.43,-40.54 401.31,-35.15 405.07,-45.05 410.43,-40.54"/>
</g>
<!-- UsePackages -->
<g id="node8" class="node">
<title>UsePackages</title>
<ellipse fill="none" stroke="darkgreen" cx="316.7" cy="-90" rx="71.49" ry="18"/>
<text text-anchor="middle" x="316.7" y="-86.3" font-family="Times,serif" font-size="14.00">UsePackages</text>
</g>
<!-- UsePackages&#45;&gt;String -->
<g id="edge7" class="edge">
<title>UsePackages&#45;&gt;String</title>
<path fill="none" stroke="black" d="M333.52,-72.41C342.67,-63.39 354.13,-52.09 364.16,-42.21"/>
<polygon fill="black" stroke="black" points="366.82,-44.5 371.48,-34.99 361.9,-39.52 366.82,-44.5"/>
</g>
</g>
</svg>
