<?xml version="1.0" encoding="UTF-8" standalone="no"?>
<!DOCTYPE svg PUBLIC "-//W3C//DTD SVG 1.1//EN"
 "http://www.w3.org/Graphics/SVG/1.1/DTD/svg11.dtd">
<!-- Generated by graphviz version 2.43.0 (0)
 -->
<!-- Title: alltypes Pages: 1 -->
<svg width="905pt" height="188pt"
 viewBox="0.00 0.00 904.99 188.00" xmlns="http://www.w3.org/2000/svg" xmlns:xlink="http://www.w3.org/1999/xlink">
<g id="graph0" class="graph" transform="scale(1 1) rotate(0) translate(4 184)">
<title>alltypes</title>
<polygon fill="white" stroke="transparent" points="-4,4 -4,-184 900.99,-184 900.99,4 -4,4"/>
<!-- Path -->
<g id="node1" class="node">
<title>Path</title>
<ellipse fill="none" stroke="#ee0000" cx="641.7" cy="-90" rx="31.7" ry="18"/>
<text text-anchor="middle" x="641.7" y="-86.3" font-family="Times,serif" font-size="14.00">Path</text>
</g>
<!-- String -->
<g id="node2" class="node">
<title>String</title>
<ellipse fill="none" stroke="black" cx="575.7" cy="-18" rx="40.09" ry="18"/>
<text text-anchor="middle" x="575.7" y="-14.3" font-family="Times,serif" font-size="14.00">String</text>
</g>
<!-- Path&#45;&gt;String -->
<g id="edge1" class="edge">
<title>Path&#45;&gt;String</title>
<path fill="none" stroke="black" d="M627.37,-73.81C618.79,-64.71 607.7,-52.95 598,-42.65"/>
<polygon fill="black" stroke="black" points="600.31,-40.01 590.91,-35.13 595.22,-44.81 600.31,-40.01"/>
</g>
<!-- TargetFile -->
<g id="node3" class="node">
<title>TargetFile</title>
<ellipse fill="none" stroke="#ee0000" cx="247.7" cy="-90" rx="58.49" ry="18"/>
<text text-anchor="middle" x="247.7" y="-86.3" font-family="Times,serif" font-size="14.00">TargetFile</text>
</g>
<!-- TargetFile&#45;&gt;String -->
<g id="edge2" class="edge">
<title>TargetFile&#45;&gt;String</title>
<path fill="none" stroke="black" d="M290.87,-77.72C298.78,-75.75 306.97,-73.76 314.7,-72 389.5,-54.93 476.99,-37.72 529.29,-27.72"/>
<polygon fill="black" stroke="black" points="530.1,-31.13 539.27,-25.82 528.79,-24.26 530.1,-31.13"/>
</g>
<!-- DocChoices -->
<g id="node4" class="node">
<title>DocChoices</title>
<ellipse fill="none" stroke="#00cdcd" cx="106.7" cy="-90" rx="64.19" ry="18"/>
<text text-anchor="middle" x="106.7" y="-86.3" font-family="Times,serif" font-size="14.00">DocChoices</text>
</g>
<!-- DocType -->
<g id="node5" class="node">
<title>DocType</title>
<ellipse fill="none" stroke="black" cx="50.7" cy="-18" rx="50.89" ry="18"/>
<text text-anchor="middle" x="50.7" y="-14.3" font-family="Times,serif" font-size="14.00">DocType</text>
</g>
<!-- DocChoices&#45;&gt;DocType -->
<g id="edge3" class="edge">
<title>DocChoices&#45;&gt;DocType</title>
<path fill="none" stroke="black" d="M93.14,-72.05C86.33,-63.54 77.95,-53.07 70.44,-43.68"/>
<polygon fill="black" stroke="black" points="73.11,-41.41 64.13,-35.79 67.64,-45.78 73.11,-41.41"/>
</g>
<!-- Format -->
<g id="node6" class="node">
<title>Format</title>
<ellipse fill="none" stroke="black" cx="163.7" cy="-18" rx="44.39" ry="18"/>
<text text-anchor="middle" x="163.7" y="-14.3" font-family="Times,serif" font-size="14.00">Format</text>
</g>
<!-- DocChoices&#45;&gt;Format -->
<g id="edge4" class="edge">
<title>DocChoices&#45;&gt;Format</title>
<path fill="none" stroke="black" d="M120.49,-72.05C127.53,-63.42 136.21,-52.76 143.93,-43.27"/>
<polygon fill="black" stroke="black" points="146.82,-45.27 150.42,-35.31 141.39,-40.85 146.82,-45.27"/>
</g>
<!-- DocSpec -->
<g id="node7" class="node">
<title>DocSpec</title>
<ellipse fill="none" stroke="darkviolet" cx="241.7" cy="-162" rx="50.89" ry="18"/>
<text text-anchor="middle" x="241.7" y="-158.3" font-family="Times,serif" font-size="14.00">DocSpec</text>
</g>
<!-- DocSpec&#45;&gt;DocChoices -->
<g id="edge5" class="edge">
<title>DocSpec&#45;&gt;DocChoices</title>
<path fill="none" stroke="black" d="M214.38,-146.83C194.42,-136.49 167.1,-122.32 144.97,-110.85"/>
<polygon fill="black" stroke="black" points="146.33,-107.61 135.84,-106.11 143.11,-113.82 146.33,-107.61"/>
</g>
<!-- Filename -->
<g id="node8" class="node">
<title>Filename</title>
<ellipse fill="none" stroke="#ee0000" cx="377.7" cy="-90" rx="53.89" ry="18"/>
<text text-anchor="middle" x="377.7" y="-86.3" font-family="Times,serif" font-size="14.00">Filename</text>
</g>
<!-- DocSpec&#45;&gt;Filename -->
<g id="edge6" class="edge">
<title>DocSpec&#45;&gt;Filename</title>
<path fill="none" stroke="black" d="M269.22,-146.83C289.68,-136.3 317.84,-121.81 340.34,-110.23"/>
<polygon fill="black" stroke="black" points="341.99,-113.31 349.28,-105.63 338.79,-107.09 341.99,-113.31"/>
</g>
<!-- Filename&#45;&gt;String -->
<g id="edge12" class="edge">
<title>Filename&#45;&gt;String</title>
<path fill="none" stroke="black" d="M413.55,-76.32C447.88,-64.19 499.59,-45.9 535.35,-33.26"/>
<polygon fill="black" stroke="black" points="536.72,-36.49 544.98,-29.86 534.38,-29.89 536.72,-36.49"/>
</g>
<!-- DocClass -->
<g id="node9" class="node">
<title>DocClass</title>
<ellipse fill="none" stroke="darkviolet" cx="843.7" cy="-90" rx="53.09" ry="18"/>
<text text-anchor="middle" x="843.7" y="-86.3" font-family="Times,serif" font-size="14.00">DocClass</text>
</g>
<!-- DocClass&#45;&gt;String -->
<g id="edge8" class="edge">
<title>DocClass&#45;&gt;String</title>
<path fill="none" stroke="black" d="M803.38,-78.05C795.85,-76.03 788.03,-73.94 780.7,-72 725.21,-57.34 661.15,-40.85 619.62,-30.21"/>
<polygon fill="black" stroke="black" points="620.38,-26.79 609.82,-27.71 618.64,-33.58 620.38,-26.79"/>
</g>
<!-- Maybe -->
<g id="node10" class="node">
<title>Maybe</title>
<ellipse fill="none" stroke="black" cx="787.7" cy="-18" rx="42.49" ry="18"/>
<text text-anchor="middle" x="787.7" y="-14.3" font-family="Times,serif" font-size="14.00">Maybe</text>
</g>
<!-- DocClass&#45;&gt;Maybe -->
<g id="edge7" class="edge">
<title>DocClass&#45;&gt;Maybe</title>
<path fill="none" stroke="black" d="M830.42,-72.41C823.52,-63.78 814.95,-53.06 807.29,-43.5"/>
<polygon fill="black" stroke="black" points="809.85,-41.09 800.87,-35.47 804.39,-45.47 809.85,-41.09"/>
</g>
<!-- ExDoc -->
<g id="node11" class="node">
<title>ExDoc</title>
<ellipse fill="none" stroke="darkviolet" cx="731.7" cy="-90" rx="40.09" ry="18"/>
<text text-anchor="middle" x="731.7" y="-86.3" font-family="Times,serif" font-size="14.00">ExDoc</text>
</g>
<!-- ExDoc&#45;&gt;String -->
<g id="edge10" class="edge">
<title>ExDoc&#45;&gt;String</title>
<path fill="none" stroke="black" d="M704.16,-76.65C678.74,-65.24 640.76,-48.2 612.69,-35.6"/>
<polygon fill="black" stroke="black" points="613.77,-32.25 603.21,-31.35 610.9,-38.63 613.77,-32.25"/>
</g>
<!-- ExDoc&#45;&gt;Maybe -->
<g id="edge9" class="edge">
<title>ExDoc&#45;&gt;Maybe</title>
<path fill="none" stroke="black" d="M744.68,-72.76C751.75,-63.93 760.63,-52.83 768.48,-43.01"/>
<polygon fill="black" stroke="black" points="771.26,-45.14 774.78,-35.15 765.8,-40.77 771.26,-45.14"/>
</g>
<!-- UsePackages -->
<g id="node12" class="node">
<title>UsePackages</title>
<ellipse fill="none" stroke="darkgreen" cx="520.7" cy="-90" rx="71.49" ry="18"/>
<text text-anchor="middle" x="520.7" y="-86.3" font-family="Times,serif" font-size="14.00">UsePackages</text>
</g>
<!-- UsePackages&#45;&gt;String -->
<g id="edge11" class="edge">
<title>UsePackages&#45;&gt;String</title>
<path fill="none" stroke="black" d="M534.01,-72.05C540.8,-63.42 549.17,-52.76 556.63,-43.27"/>
<polygon fill="black" stroke="black" points="559.46,-45.33 562.88,-35.31 553.95,-41.01 559.46,-45.33"/>
</g>
</g>
</svg>
