<?xml version="1.0" encoding="UTF-8" standalone="no"?>
<!DOCTYPE svg PUBLIC "-//W3C//DTD SVG 1.1//EN"
 "http://www.w3.org/Graphics/SVG/1.1/DTD/svg11.dtd">
<!-- Generated by graphviz version 2.43.0 (0)
 -->
<!-- Title: alltypes Pages: 1 -->
<svg width="2774pt" height="476pt"
 viewBox="0.00 0.00 2773.54 476.00" xmlns="http://www.w3.org/2000/svg" xmlns:xlink="http://www.w3.org/1999/xlink">
<g id="graph0" class="graph" transform="scale(1 1) rotate(0) translate(4 472)">
<title>alltypes</title>
<polygon fill="white" stroke="transparent" points="-4,4 -4,-472 2769.54,-472 2769.54,4 -4,4"/>
<!-- NodeFamily -->
<g id="node1" class="node">
<title>NodeFamily</title>
<ellipse fill="none" stroke="#00cdcd" cx="1614.34" cy="-306" rx="66.09" ry="18"/>
<text text-anchor="middle" x="1614.34" y="-302.3" font-family="Times,serif" font-size="14.00">NodeFamily</text>
</g>
<!-- UID -->
<g id="node2" class="node">
<title>UID</title>
<ellipse fill="none" stroke="black" cx="1565.34" cy="-234" rx="29.5" ry="18"/>
<text text-anchor="middle" x="1565.34" y="-230.3" font-family="Times,serif" font-size="14.00">UID</text>
</g>
<!-- NodeFamily&#45;&gt;UID -->
<g id="edge1" class="edge">
<title>NodeFamily&#45;&gt;UID</title>
<path fill="none" stroke="black" d="M1602.48,-288.05C1596.41,-279.38 1588.91,-268.67 1582.24,-259.15"/>
<polygon fill="black" stroke="black" points="1585.02,-257.01 1576.42,-250.83 1579.29,-261.03 1585.02,-257.01"/>
</g>
<!-- Label -->
<g id="node3" class="node">
<title>Label</title>
<ellipse fill="none" stroke="#ee0000" cx="1021.34" cy="-234" rx="36.29" ry="18"/>
<text text-anchor="middle" x="1021.34" y="-230.3" font-family="Times,serif" font-size="14.00">Label</text>
</g>
<!-- NodeFamily&#45;&gt;Label -->
<g id="edge2" class="edge">
<title>NodeFamily&#45;&gt;Label</title>
<path fill="none" stroke="black" d="M1566.67,-293.43C1557.31,-291.42 1547.55,-289.5 1538.34,-288 1447.97,-273.31 1175.95,-248.6 1067.1,-238.99"/>
<polygon fill="black" stroke="black" points="1067.35,-235.5 1057.08,-238.11 1066.74,-242.47 1067.35,-235.5"/>
</g>
<!-- Colour -->
<g id="node4" class="node">
<title>Colour</title>
<ellipse fill="none" stroke="#ee0000" cx="1569.34" cy="-162" rx="41.69" ry="18"/>
<text text-anchor="middle" x="1569.34" y="-158.3" font-family="Times,serif" font-size="14.00">Colour</text>
</g>
<!-- NodeFamily&#45;&gt;Colour -->
<g id="edge3" class="edge">
<title>NodeFamily&#45;&gt;Colour</title>
<path fill="none" stroke="black" d="M1575.12,-291.48C1557.17,-283.09 1537.65,-270.35 1527.34,-252 1515.22,-230.43 1530.26,-204.78 1545.6,-186.57"/>
<polygon fill="black" stroke="black" points="1548.52,-188.56 1552.57,-178.77 1543.3,-183.89 1548.52,-188.56"/>
</g>
<!-- String -->
<g id="node6" class="node">
<title>String</title>
<ellipse fill="none" stroke="black" cx="1204.34" cy="-18" rx="40.09" ry="18"/>
<text text-anchor="middle" x="1204.34" y="-14.3" font-family="Times,serif" font-size="14.00">String</text>
</g>
<!-- Label&#45;&gt;String -->
<g id="edge7" class="edge">
<title>Label&#45;&gt;String</title>
<path fill="none" stroke="black" d="M1031.63,-216.46C1050.93,-186.11 1094.71,-120.22 1140.34,-72 1151.19,-60.53 1164.46,-49.18 1176.1,-39.95"/>
<polygon fill="black" stroke="black" points="1178.48,-42.53 1184.23,-33.63 1174.18,-37 1178.48,-42.53"/>
</g>
<!-- Spec -->
<g id="node23" class="node">
<title>Spec</title>
<ellipse fill="none" stroke="darkviolet" cx="724.34" cy="-162" rx="33.29" ry="18"/>
<text text-anchor="middle" x="724.34" y="-158.3" font-family="Times,serif" font-size="14.00">Spec</text>
</g>
<!-- Label&#45;&gt;Spec -->
<g id="edge34" class="edge">
<title>Label&#45;&gt;Spec</title>
<path fill="none" stroke="black" d="M992.96,-222.71C985.94,-220.35 978.41,-217.95 971.34,-216 899.71,-196.21 814.69,-179.4 765.39,-170.29"/>
<polygon fill="black" stroke="black" points="765.89,-166.83 755.43,-168.47 764.63,-173.71 765.89,-166.83"/>
</g>
<!-- Colour&#45;&gt;String -->
<g id="edge6" class="edge">
<title>Colour&#45;&gt;String</title>
<path fill="none" stroke="black" d="M1594.85,-147.76C1609.33,-138.7 1626.16,-125.23 1634.34,-108 1641.2,-93.55 1644.94,-83.99 1634.34,-72 1609.48,-43.89 1362.08,-27.4 1254.2,-21.49"/>
<polygon fill="black" stroke="black" points="1254.38,-18 1244.21,-20.95 1254,-24.99 1254.38,-18"/>
</g>
<!-- GraphInfo -->
<g id="node5" class="node">
<title>GraphInfo</title>
<ellipse fill="none" stroke="#00cdcd" cx="1640.34" cy="-378" rx="57.69" ry="18"/>
<text text-anchor="middle" x="1640.34" y="-374.3" font-family="Times,serif" font-size="14.00">GraphInfo</text>
</g>
<!-- GraphInfo&#45;&gt;NodeFamily -->
<g id="edge4" class="edge">
<title>GraphInfo&#45;&gt;NodeFamily</title>
<path fill="none" stroke="black" d="M1634.05,-360.05C1631.12,-352.18 1627.57,-342.62 1624.29,-333.79"/>
<polygon fill="black" stroke="black" points="1627.52,-332.43 1620.76,-324.28 1620.96,-334.87 1627.52,-332.43"/>
</g>
<!-- GraphInfo&#45;&gt;UID -->
<g id="edge5" class="edge">
<title>GraphInfo&#45;&gt;UID</title>
<path fill="none" stroke="black" d="M1660.25,-360.78C1680.11,-342.58 1705.51,-312.41 1689.34,-288 1666.68,-253.8 1642.03,-268.2 1604.34,-252 1602.17,-251.07 1599.92,-250.1 1597.66,-249.12"/>
<polygon fill="black" stroke="black" points="1598.99,-245.88 1588.42,-245.11 1596.2,-252.3 1598.99,-245.88"/>
</g>
<!-- BibFormatter -->
<g id="node7" class="node">
<title>BibFormatter</title>
<ellipse fill="none" stroke="#00cdcd" cx="1388.34" cy="-162" rx="73.39" ry="18"/>
<text text-anchor="middle" x="1388.34" y="-158.3" font-family="Times,serif" font-size="14.00">BibFormatter</text>
</g>
<!-- Doc -->
<g id="node8" class="node">
<title>Doc</title>
<ellipse fill="none" stroke="black" cx="1178.34" cy="-90" rx="28.7" ry="18"/>
<text text-anchor="middle" x="1178.34" y="-86.3" font-family="Times,serif" font-size="14.00">Doc</text>
</g>
<!-- BibFormatter&#45;&gt;Doc -->
<g id="edge8" class="edge">
<title>BibFormatter&#45;&gt;Doc</title>
<path fill="none" stroke="black" d="M1341.1,-148.12C1306.25,-138.22 1257.87,-123.62 1216.34,-108 1214.25,-107.21 1212.11,-106.37 1209.97,-105.5"/>
<polygon fill="black" stroke="black" points="1211.23,-102.23 1200.66,-101.53 1208.48,-108.67 1211.23,-102.23"/>
</g>
<!-- SpecDoc -->
<g id="node9" class="node">
<title>SpecDoc</title>
<ellipse fill="none" stroke="black" cx="1420.34" cy="-90" rx="50.89" ry="18"/>
<text text-anchor="middle" x="1420.34" y="-86.3" font-family="Times,serif" font-size="14.00">SpecDoc</text>
</g>
<!-- BibFormatter&#45;&gt;SpecDoc -->
<g id="edge9" class="edge">
<title>BibFormatter&#45;&gt;SpecDoc</title>
<path fill="none" stroke="black" d="M1396.09,-144.05C1399.73,-136.09 1404.15,-126.41 1408.22,-117.51"/>
<polygon fill="black" stroke="black" points="1411.47,-118.83 1412.44,-108.28 1405.1,-115.91 1411.47,-118.83"/>
</g>
<!-- Variation -->
<g id="node10" class="node">
<title>Variation</title>
<ellipse fill="none" stroke="darkviolet" cx="2200.34" cy="-162" rx="52.79" ry="18"/>
<text text-anchor="middle" x="2200.34" y="-158.3" font-family="Times,serif" font-size="14.00">Variation</text>
</g>
<!-- Variation&#45;&gt;Doc -->
<g id="edge20" class="edge">
<title>Variation&#45;&gt;Doc</title>
<path fill="none" stroke="black" d="M2148.05,-159.3C1957.55,-152.97 1307.02,-129.93 1216.34,-108 1213.88,-107.41 1211.39,-106.66 1208.91,-105.8"/>
<polygon fill="black" stroke="black" points="1210.15,-102.53 1199.56,-102.13 1207.59,-109.05 1210.15,-102.53"/>
</g>
<!-- td -->
<g id="node15" class="node">
<title>td</title>
<ellipse fill="none" stroke="black" cx="2236.34" cy="-90" rx="27" ry="18"/>
<text text-anchor="middle" x="2236.34" y="-86.3" font-family="Times,serif" font-size="14.00">td</text>
</g>
<!-- Variation&#45;&gt;td -->
<g id="edge15" class="edge">
<title>Variation&#45;&gt;td</title>
<path fill="none" stroke="black" d="M2209.06,-144.05C2213.32,-135.77 2218.54,-125.62 2223.27,-116.42"/>
<polygon fill="black" stroke="black" points="2226.49,-117.8 2227.95,-107.31 2220.27,-114.6 2226.49,-117.8"/>
</g>
<!-- figure -->
<g id="node16" class="node">
<title>figure</title>
<ellipse fill="none" stroke="black" cx="2319.34" cy="-90" rx="38.19" ry="18"/>
<text text-anchor="middle" x="2319.34" y="-86.3" font-family="Times,serif" font-size="14.00">figure</text>
</g>
<!-- Variation&#45;&gt;figure -->
<g id="edge16" class="edge">
<title>Variation&#45;&gt;figure</title>
<path fill="none" stroke="black" d="M2225.58,-146.15C2243.6,-135.55 2267.99,-121.21 2287.37,-109.81"/>
<polygon fill="black" stroke="black" points="2289.31,-112.72 2296.16,-104.64 2285.76,-106.69 2289.31,-112.72"/>
</g>
<!-- li -->
<g id="node17" class="node">
<title>li</title>
<ellipse fill="none" stroke="black" cx="2402.34" cy="-90" rx="27" ry="18"/>
<text text-anchor="middle" x="2402.34" y="-86.3" font-family="Times,serif" font-size="14.00">li</text>
</g>
<!-- Variation&#45;&gt;li -->
<g id="edge17" class="edge">
<title>Variation&#45;&gt;li</title>
<path fill="none" stroke="black" d="M2239.76,-150.01C2273.72,-140.17 2323.84,-124.74 2366.34,-108 2368.17,-107.28 2370.04,-106.51 2371.92,-105.7"/>
<polygon fill="black" stroke="black" points="2373.53,-108.82 2381.22,-101.54 2370.67,-102.43 2373.53,-108.82"/>
</g>
<!-- pa -->
<g id="node18" class="node">
<title>pa</title>
<ellipse fill="none" stroke="black" cx="2092.34" cy="-90" rx="27" ry="18"/>
<text text-anchor="middle" x="2092.34" y="-86.3" font-family="Times,serif" font-size="14.00">pa</text>
</g>
<!-- Variation&#45;&gt;pa -->
<g id="edge18" class="edge">
<title>Variation&#45;&gt;pa</title>
<path fill="none" stroke="black" d="M2176.91,-145.81C2160.11,-134.92 2137.42,-120.22 2119.78,-108.78"/>
<polygon fill="black" stroke="black" points="2121.36,-105.64 2111.07,-103.14 2117.55,-111.51 2121.36,-105.64"/>
</g>
<!-- ba -->
<g id="node19" class="node">
<title>ba</title>
<ellipse fill="none" stroke="black" cx="2164.34" cy="-90" rx="27" ry="18"/>
<text text-anchor="middle" x="2164.34" y="-86.3" font-family="Times,serif" font-size="14.00">ba</text>
</g>
<!-- Variation&#45;&gt;ba -->
<g id="edge19" class="edge">
<title>Variation&#45;&gt;ba</title>
<path fill="none" stroke="black" d="M2191.63,-144.05C2187.36,-135.77 2182.14,-125.62 2177.42,-116.42"/>
<polygon fill="black" stroke="black" points="2180.41,-114.6 2172.73,-107.31 2174.19,-117.8 2180.41,-114.6"/>
</g>
<!-- PrintHTML -->
<g id="node11" class="node">
<title>PrintHTML</title>
<ellipse fill="none" stroke="darkgreen" cx="1288.34" cy="-90" rx="63.09" ry="18"/>
<text text-anchor="middle" x="1288.34" y="-86.3" font-family="Times,serif" font-size="14.00">PrintHTML</text>
</g>
<!-- PrintHTML&#45;&gt;String -->
<g id="edge10" class="edge">
<title>PrintHTML&#45;&gt;String</title>
<path fill="none" stroke="black" d="M1268.86,-72.76C1257.41,-63.22 1242.79,-51.04 1230.36,-40.68"/>
<polygon fill="black" stroke="black" points="1232.49,-37.9 1222.57,-34.19 1228.01,-43.28 1232.49,-37.9"/>
</g>
<!-- OpenClose -->
<g id="node12" class="node">
<title>OpenClose</title>
<ellipse fill="none" stroke="darkviolet" cx="1280.34" cy="-450" rx="60.39" ry="18"/>
<text text-anchor="middle" x="1280.34" y="-446.3" font-family="Times,serif" font-size="14.00">OpenClose</text>
</g>
<!-- OpenClose&#45;&gt;String -->
<g id="edge12" class="edge">
<title>OpenClose&#45;&gt;String</title>
<path fill="none" stroke="black" d="M1330.81,-440.02C1350.03,-437.21 1372.1,-434.26 1392.34,-432 1533.54,-416.25 2019.34,-449.08 2019.34,-307 2019.34,-307 2019.34,-307 2019.34,-161 2019.34,-82.5 1431.01,-35.27 1254.03,-22.52"/>
<polygon fill="black" stroke="black" points="1254.18,-19.02 1243.96,-21.8 1253.68,-26 1254.18,-19.02"/>
</g>
<!-- OpenClose&#45;&gt;String -->
<g id="edge76" class="edge">
<title>OpenClose&#45;&gt;String</title>
<path fill="none" stroke="black" d="M1334.65,-441.88C1358.05,-438.57 1385.57,-434.76 1410.34,-432 1551.54,-416.25 2037.34,-449.08 2037.34,-307 2037.34,-307 2037.34,-307 2037.34,-161 2037.34,-81.52 1434.25,-34.1 1254.34,-22.06"/>
<polygon fill="black" stroke="black" points="1254.31,-18.55 1244.1,-21.38 1253.85,-25.53 1254.31,-18.55"/>
</g>
<!-- OpenClose&#45;&gt;Doc -->
<g id="edge14" class="edge">
<title>OpenClose&#45;&gt;Doc</title>
<path fill="none" stroke="black" d="M1281.82,-431.8C1283.69,-400.95 1283.99,-335.07 1258.34,-288 1246.58,-266.41 1229.13,-273 1216.34,-252 1190.73,-209.95 1182.38,-152.01 1179.66,-118.33"/>
<polygon fill="black" stroke="black" points="1183.15,-118.02 1178.96,-108.29 1176.16,-118.51 1183.15,-118.02"/>
</g>
<!-- PrintingInformation -->
<g id="node13" class="node">
<title>PrintingInformation</title>
<ellipse fill="none" stroke="#00cdcd" cx="1149.34" cy="-378" rx="103.18" ry="18"/>
<text text-anchor="middle" x="1149.34" y="-374.3" font-family="Times,serif" font-size="14.00">PrintingInformation</text>
</g>
<!-- OpenClose&#45;&gt;PrintingInformation -->
<g id="edge11" class="edge">
<title>OpenClose&#45;&gt;PrintingInformation</title>
<path fill="none" stroke="black" d="M1252.24,-433.98C1233.72,-424.09 1209.21,-410.99 1188.76,-400.06"/>
<polygon fill="black" stroke="black" points="1190.15,-396.84 1179.68,-395.21 1186.85,-403.01 1190.15,-396.84"/>
</g>
<!-- Document -->
<g id="node14" class="node">
<title>Document</title>
<ellipse fill="none" stroke="darkviolet" cx="812.34" cy="-378" rx="57.69" ry="18"/>
<text text-anchor="middle" x="812.34" y="-374.3" font-family="Times,serif" font-size="14.00">Document</text>
</g>
<!-- OpenClose&#45;&gt;Document -->
<g id="edge13" class="edge">
<title>OpenClose&#45;&gt;Document</title>
<path fill="none" stroke="black" d="M1226.79,-441.45C1155.94,-431.39 1027.18,-412.91 917.34,-396 902.73,-393.75 887,-391.25 872.27,-388.87"/>
<polygon fill="black" stroke="black" points="872.69,-385.39 862.25,-387.24 871.57,-392.3 872.69,-385.39"/>
</g>
<!-- PrintingConfiguration -->
<g id="node21" class="node">
<title>PrintingConfiguration</title>
<ellipse fill="none" stroke="darkgreen" cx="1417.34" cy="-306" rx="112.38" ry="18"/>
<text text-anchor="middle" x="1417.34" y="-302.3" font-family="Times,serif" font-size="14.00">PrintingConfiguration</text>
</g>
<!-- PrintingInformation&#45;&gt;PrintingConfiguration -->
<g id="edge72" class="edge">
<title>PrintingInformation&#45;&gt;PrintingConfiguration</title>
<path fill="none" stroke="black" d="M1204.22,-362.67C1246.88,-351.52 1306.2,-336.03 1351.43,-324.21"/>
<polygon fill="black" stroke="black" points="1352.36,-327.59 1361.15,-321.68 1350.59,-320.82 1352.36,-327.59"/>
</g>
<!-- ChunkDB -->
<g id="node61" class="node">
<title>ChunkDB</title>
<ellipse fill="none" stroke="black" cx="1194.34" cy="-306" rx="54.69" ry="18"/>
<text text-anchor="middle" x="1194.34" y="-302.3" font-family="Times,serif" font-size="14.00">ChunkDB</text>
</g>
<!-- PrintingInformation&#45;&gt;ChunkDB -->
<g id="edge70" class="edge">
<title>PrintingInformation&#45;&gt;ChunkDB</title>
<path fill="none" stroke="black" d="M1160.23,-360.05C1165.6,-351.71 1172.17,-341.49 1178.11,-332.25"/>
<polygon fill="black" stroke="black" points="1181.08,-334.09 1183.55,-323.79 1175.2,-330.31 1181.08,-334.09"/>
</g>
<!-- Stage -->
<g id="node62" class="node">
<title>Stage</title>
<ellipse fill="none" stroke="black" cx="1084.34" cy="-306" rx="37.89" ry="18"/>
<text text-anchor="middle" x="1084.34" y="-302.3" font-family="Times,serif" font-size="14.00">Stage</text>
</g>
<!-- PrintingInformation&#45;&gt;Stage -->
<g id="edge71" class="edge">
<title>PrintingInformation&#45;&gt;Stage</title>
<path fill="none" stroke="black" d="M1133.61,-360.05C1125.31,-351.12 1114.99,-340.01 1105.95,-330.28"/>
<polygon fill="black" stroke="black" points="1108.41,-327.78 1099.04,-322.83 1103.28,-332.54 1108.41,-327.78"/>
</g>
<!-- Title -->
<g id="node35" class="node">
<title>Title</title>
<ellipse fill="none" stroke="#ee0000" cx="495.34" cy="-306" rx="31.7" ry="18"/>
<text text-anchor="middle" x="495.34" y="-302.3" font-family="Times,serif" font-size="14.00">Title</text>
</g>
<!-- Document&#45;&gt;Title -->
<g id="edge43" class="edge">
<title>Document&#45;&gt;Title</title>
<path fill="none" stroke="black" d="M769.51,-365.86C761.49,-363.86 753.17,-361.82 745.34,-360 671.31,-342.77 584.41,-324.86 535.01,-314.91"/>
<polygon fill="black" stroke="black" points="535.55,-311.44 525.06,-312.9 534.17,-318.31 535.55,-311.44"/>
</g>
<!-- Author -->
<g id="node43" class="node">
<title>Author</title>
<ellipse fill="none" stroke="#ee0000" cx="846.34" cy="-306" rx="42.49" ry="18"/>
<text text-anchor="middle" x="846.34" y="-302.3" font-family="Times,serif" font-size="14.00">Author</text>
</g>
<!-- Document&#45;&gt;Author -->
<g id="edge44" class="edge">
<title>Document&#45;&gt;Author</title>
<path fill="none" stroke="black" d="M820.57,-360.05C824.54,-351.89 829.38,-341.91 833.8,-332.82"/>
<polygon fill="black" stroke="black" points="836.97,-334.31 838.19,-323.79 830.67,-331.25 836.97,-334.31"/>
</g>
<!-- LayoutObj -->
<g id="node44" class="node">
<title>LayoutObj</title>
<ellipse fill="none" stroke="darkviolet" cx="727.34" cy="-306" rx="58.49" ry="18"/>
<text text-anchor="middle" x="727.34" y="-302.3" font-family="Times,serif" font-size="14.00">LayoutObj</text>
</g>
<!-- Document&#45;&gt;LayoutObj -->
<g id="edge45" class="edge">
<title>Document&#45;&gt;LayoutObj</title>
<path fill="none" stroke="black" d="M792.63,-360.76C781.36,-351.49 767.07,-339.71 754.72,-329.55"/>
<polygon fill="black" stroke="black" points="756.89,-326.8 746.95,-323.15 752.44,-332.21 756.89,-326.8"/>
</g>
<!-- SingleLine -->
<g id="node20" class="node">
<title>SingleLine</title>
<ellipse fill="none" stroke="darkviolet" cx="1417.34" cy="-378" rx="59.59" ry="18"/>
<text text-anchor="middle" x="1417.34" y="-374.3" font-family="Times,serif" font-size="14.00">SingleLine</text>
</g>
<!-- SingleLine&#45;&gt;PrintingConfiguration -->
<g id="edge21" class="edge">
<title>SingleLine&#45;&gt;PrintingConfiguration</title>
<path fill="none" stroke="black" d="M1417.34,-359.7C1417.34,-351.98 1417.34,-342.71 1417.34,-334.11"/>
<polygon fill="black" stroke="black" points="1420.84,-334.1 1417.34,-324.1 1413.84,-334.1 1420.84,-334.1"/>
</g>
<!-- Notation -->
<g id="node63" class="node">
<title>Notation</title>
<ellipse fill="none" stroke="darkviolet" cx="1429.34" cy="-234" rx="51.19" ry="18"/>
<text text-anchor="middle" x="1429.34" y="-230.3" font-family="Times,serif" font-size="14.00">Notation</text>
</g>
<!-- PrintingConfiguration&#45;&gt;Notation -->
<g id="edge73" class="edge">
<title>PrintingConfiguration&#45;&gt;Notation</title>
<path fill="none" stroke="black" d="M1420.31,-287.7C1421.63,-279.98 1423.22,-270.71 1424.69,-262.11"/>
<polygon fill="black" stroke="black" points="1428.17,-262.55 1426.41,-252.1 1421.27,-261.37 1428.17,-262.55"/>
</g>
<!-- LinkType -->
<g id="node22" class="node">
<title>LinkType</title>
<ellipse fill="none" stroke="darkviolet" cx="446.34" cy="-234" rx="53.09" ry="18"/>
<text text-anchor="middle" x="446.34" y="-230.3" font-family="Times,serif" font-size="14.00">LinkType</text>
</g>
<!-- LinkType&#45;&gt;Spec -->
<g id="edge22" class="edge">
<title>LinkType&#45;&gt;Spec</title>
<path fill="none" stroke="black" d="M485.99,-221.96C493.41,-219.94 501.1,-217.88 508.34,-216 569.75,-200.05 641.32,-182.74 684.71,-172.39"/>
<polygon fill="black" stroke="black" points="685.66,-175.76 694.58,-170.03 684.04,-168.95 685.66,-175.76"/>
</g>
<!-- Expr -->
<g id="node29" class="node">
<title>Expr</title>
<ellipse fill="none" stroke="darkviolet" cx="716.34" cy="-90" rx="33.29" ry="18"/>
<text text-anchor="middle" x="716.34" y="-86.3" font-family="Times,serif" font-size="14.00">Expr</text>
</g>
<!-- Spec&#45;&gt;Expr -->
<g id="edge27" class="edge">
<title>Spec&#45;&gt;Expr</title>
<path fill="none" stroke="black" d="M722.36,-143.7C721.48,-135.98 720.42,-126.71 719.44,-118.11"/>
<polygon fill="black" stroke="black" points="722.91,-117.64 718.3,-108.1 715.95,-118.44 722.91,-117.64"/>
</g>
<!-- Ops -->
<g id="node24" class="node">
<title>Ops</title>
<ellipse fill="none" stroke="darkviolet" cx="1439.34" cy="-450" rx="28.7" ry="18"/>
<text text-anchor="middle" x="1439.34" y="-446.3" font-family="Times,serif" font-size="14.00">Ops</text>
</g>
<!-- Fence -->
<g id="node25" class="node">
<title>Fence</title>
<ellipse fill="none" stroke="darkviolet" cx="1570.34" cy="-450" rx="38.19" ry="18"/>
<text text-anchor="middle" x="1570.34" y="-446.3" font-family="Times,serif" font-size="14.00">Fence</text>
</g>
<!-- OverSymb -->
<g id="node26" class="node">
<title>OverSymb</title>
<ellipse fill="none" stroke="darkviolet" cx="1709.34" cy="-450" rx="59.59" ry="18"/>
<text text-anchor="middle" x="1709.34" y="-446.3" font-family="Times,serif" font-size="14.00">OverSymb</text>
</g>
<!-- Fonts -->
<g id="node27" class="node">
<title>Fonts</title>
<ellipse fill="none" stroke="darkviolet" cx="1834.34" cy="-450" rx="36.29" ry="18"/>
<text text-anchor="middle" x="1834.34" y="-446.3" font-family="Times,serif" font-size="14.00">Fonts</text>
</g>
<!-- Spacing -->
<g id="node28" class="node">
<title>Spacing</title>
<ellipse fill="none" stroke="darkviolet" cx="1942.34" cy="-450" rx="48.19" ry="18"/>
<text text-anchor="middle" x="1942.34" y="-446.3" font-family="Times,serif" font-size="14.00">Spacing</text>
</g>
<!-- Expr&#45;&gt;String -->
<g id="edge25" class="edge">
<title>Expr&#45;&gt;String</title>
<path fill="none" stroke="black" d="M744.95,-80.65C756.22,-77.59 769.31,-74.32 781.34,-72 915.23,-46.22 1075.48,-30.1 1154.81,-23.08"/>
<polygon fill="black" stroke="black" points="1155.34,-26.55 1165,-22.19 1154.73,-19.58 1155.34,-26.55"/>
</g>
<!-- Expr&#45;&gt;Expr -->
<g id="edge26" class="edge">
<title>Expr&#45;&gt;Expr</title>
<path fill="none" stroke="black" d="M740.02,-102.66C754.17,-105.47 767.49,-101.25 767.49,-90 767.49,-81.56 760,-77.08 750.28,-76.55"/>
<polygon fill="black" stroke="black" points="749.72,-73.09 740.02,-77.34 750.26,-80.06 749.72,-73.09"/>
</g>
<!-- Double -->
<g id="node30" class="node">
<title>Double</title>
<ellipse fill="none" stroke="black" cx="769.34" cy="-18" rx="43.59" ry="18"/>
<text text-anchor="middle" x="769.34" y="-14.3" font-family="Times,serif" font-size="14.00">Double</text>
</g>
<!-- Expr&#45;&gt;Double -->
<g id="edge23" class="edge">
<title>Expr&#45;&gt;Double</title>
<path fill="none" stroke="black" d="M728.37,-73.12C734.98,-64.38 743.33,-53.35 750.76,-43.54"/>
<polygon fill="black" stroke="black" points="753.75,-45.39 756.99,-35.31 748.17,-41.17 753.75,-45.39"/>
</g>
<!-- Integer -->
<g id="node31" class="node">
<title>Integer</title>
<ellipse fill="none" stroke="black" cx="663.34" cy="-18" rx="44.69" ry="18"/>
<text text-anchor="middle" x="663.34" y="-14.3" font-family="Times,serif" font-size="14.00">Integer</text>
</g>
<!-- Expr&#45;&gt;Integer -->
<g id="edge24" class="edge">
<title>Expr&#45;&gt;Integer</title>
<path fill="none" stroke="black" d="M704.31,-73.12C697.7,-64.38 689.35,-53.35 681.92,-43.54"/>
<polygon fill="black" stroke="black" points="684.51,-41.17 675.69,-35.31 678.93,-45.39 684.51,-41.17"/>
</g>
<!-- ListType -->
<g id="node32" class="node">
<title>ListType</title>
<ellipse fill="none" stroke="darkviolet" cx="977.34" cy="-378" rx="50.89" ry="18"/>
<text text-anchor="middle" x="977.34" y="-374.3" font-family="Times,serif" font-size="14.00">ListType</text>
</g>
<!-- ListType&#45;&gt;Label -->
<g id="edge30" class="edge">
<title>ListType&#45;&gt;Label</title>
<path fill="none" stroke="black" d="M985.14,-360.06C989.68,-349.78 995.29,-336.3 999.34,-324 1006.09,-303.5 1011.86,-279.74 1015.8,-261.93"/>
<polygon fill="black" stroke="black" points="1019.26,-262.46 1017.95,-251.95 1012.42,-260.98 1019.26,-262.46"/>
</g>
<!-- ItemType -->
<g id="node33" class="node">
<title>ItemType</title>
<ellipse fill="none" stroke="darkviolet" cx="977.34" cy="-450" rx="54.69" ry="18"/>
<text text-anchor="middle" x="977.34" y="-446.3" font-family="Times,serif" font-size="14.00">ItemType</text>
</g>
<!-- ListType&#45;&gt;ItemType -->
<g id="edge28" class="edge">
<title>ListType&#45;&gt;ItemType</title>
<path fill="none" stroke="black" d="M983.25,-396.28C984.06,-404.03 984.28,-413.36 983.93,-422.01"/>
<polygon fill="black" stroke="black" points="980.43,-421.83 983.22,-432.05 987.42,-422.33 980.43,-421.83"/>
</g>
<!-- Maybe -->
<g id="node34" class="node">
<title>Maybe</title>
<ellipse fill="none" stroke="black" cx="948.34" cy="-306" rx="42.49" ry="18"/>
<text text-anchor="middle" x="948.34" y="-302.3" font-family="Times,serif" font-size="14.00">Maybe</text>
</g>
<!-- ListType&#45;&gt;Maybe -->
<g id="edge29" class="edge">
<title>ListType&#45;&gt;Maybe</title>
<path fill="none" stroke="black" d="M970.32,-360.05C966.97,-351.97 962.89,-342.12 959.16,-333.11"/>
<polygon fill="black" stroke="black" points="962.36,-331.69 955.3,-323.79 955.89,-334.37 962.36,-331.69"/>
</g>
<!-- ListType&#45;&gt;Title -->
<g id="edge31" class="edge">
<title>ListType&#45;&gt;Title</title>
<path fill="none" stroke="black" d="M933,-368.97C916.21,-366.02 896.92,-362.74 879.34,-360 754.74,-340.6 606.81,-321.2 536.46,-312.2"/>
<polygon fill="black" stroke="black" points="536.62,-308.69 526.25,-310.9 535.73,-315.64 536.62,-308.69"/>
</g>
<!-- ItemType&#45;&gt;Spec -->
<g id="edge32" class="edge">
<title>ItemType&#45;&gt;Spec</title>
<path fill="none" stroke="black" d="M922.93,-448.26C839.82,-445.86 687.3,-435.96 653.34,-396 601.31,-334.76 634.21,-287.77 670.34,-216 676.63,-203.5 687.04,-192.23 697.04,-183.32"/>
<polygon fill="black" stroke="black" points="699.5,-185.83 704.9,-176.71 694.99,-180.48 699.5,-185.83"/>
</g>
<!-- ItemType&#45;&gt;ListType -->
<g id="edge33" class="edge">
<title>ItemType&#45;&gt;ListType</title>
<path fill="none" stroke="black" d="M971.46,-432.05C970.64,-424.35 970.4,-415.03 970.74,-406.36"/>
<polygon fill="black" stroke="black" points="974.24,-406.49 971.43,-396.28 967.25,-406.01 974.24,-406.49"/>
</g>
<!-- Title&#45;&gt;Spec -->
<g id="edge35" class="edge">
<title>Title&#45;&gt;Spec</title>
<path fill="none" stroke="black" d="M465.39,-299.83C438.97,-293.52 402,-280 384.34,-252 375.81,-238.47 373.93,-228.15 384.34,-216 403.48,-193.65 594.49,-174.31 681.53,-166.59"/>
<polygon fill="black" stroke="black" points="681.95,-170.06 691.61,-165.7 681.34,-163.09 681.95,-170.06"/>
</g>
<!-- Citation -->
<g id="node36" class="node">
<title>Citation</title>
<ellipse fill="none" stroke="darkviolet" cx="1785.34" cy="-306" rx="48.19" ry="18"/>
<text text-anchor="middle" x="1785.34" y="-302.3" font-family="Times,serif" font-size="14.00">Citation</text>
</g>
<!-- EntryID -->
<g id="node37" class="node">
<title>EntryID</title>
<ellipse fill="none" stroke="black" cx="1785.34" cy="-234" rx="48.19" ry="18"/>
<text text-anchor="middle" x="1785.34" y="-230.3" font-family="Times,serif" font-size="14.00">EntryID</text>
</g>
<!-- Citation&#45;&gt;EntryID -->
<g id="edge36" class="edge">
<title>Citation&#45;&gt;EntryID</title>
<path fill="none" stroke="black" d="M1785.34,-287.7C1785.34,-279.98 1785.34,-270.71 1785.34,-262.11"/>
<polygon fill="black" stroke="black" points="1788.84,-262.1 1785.34,-252.1 1781.84,-262.1 1788.84,-262.1"/>
</g>
<!-- CitationKind -->
<g id="node38" class="node">
<title>CitationKind</title>
<ellipse fill="none" stroke="black" cx="1921.34" cy="-234" rx="69.59" ry="18"/>
<text text-anchor="middle" x="1921.34" y="-230.3" font-family="Times,serif" font-size="14.00">CitationKind</text>
</g>
<!-- Citation&#45;&gt;CitationKind -->
<g id="edge37" class="edge">
<title>Citation&#45;&gt;CitationKind</title>
<path fill="none" stroke="black" d="M1812.54,-291C1832.57,-280.69 1860.09,-266.53 1882.45,-255.02"/>
<polygon fill="black" stroke="black" points="1884.07,-258.12 1891.36,-250.43 1880.86,-251.9 1884.07,-258.12"/>
</g>
<!-- CiteField -->
<g id="node39" class="node">
<title>CiteField</title>
<ellipse fill="none" stroke="darkviolet" cx="1666.34" cy="-234" rx="53.09" ry="18"/>
<text text-anchor="middle" x="1666.34" y="-230.3" font-family="Times,serif" font-size="14.00">CiteField</text>
</g>
<!-- Citation&#45;&gt;CiteField -->
<g id="edge38" class="edge">
<title>Citation&#45;&gt;CiteField</title>
<path fill="none" stroke="black" d="M1760.68,-290.5C1743.29,-280.26 1719.76,-266.42 1700.55,-255.12"/>
<polygon fill="black" stroke="black" points="1702.18,-252.02 1691.79,-249.97 1698.63,-258.06 1702.18,-252.02"/>
</g>
<!-- CiteField&#45;&gt;Spec -->
<g id="edge39" class="edge">
<title>CiteField&#45;&gt;Spec</title>
<path fill="none" stroke="black" d="M1628.31,-221.37C1620.14,-219.26 1611.51,-217.31 1603.34,-216 1315.92,-169.83 1239.83,-198.97 949.34,-180 885.88,-175.86 812.41,-170.13 767.16,-166.5"/>
<polygon fill="black" stroke="black" points="767.37,-163 757.12,-165.69 766.8,-169.98 767.37,-163"/>
</g>
<!-- People -->
<g id="node40" class="node">
<title>People</title>
<ellipse fill="none" stroke="black" cx="1670.34" cy="-162" rx="41.69" ry="18"/>
<text text-anchor="middle" x="1670.34" y="-158.3" font-family="Times,serif" font-size="14.00">People</text>
</g>
<!-- CiteField&#45;&gt;People -->
<g id="edge40" class="edge">
<title>CiteField&#45;&gt;People</title>
<path fill="none" stroke="black" d="M1667.33,-215.7C1667.77,-207.98 1668.3,-198.71 1668.79,-190.11"/>
<polygon fill="black" stroke="black" points="1672.29,-190.29 1669.36,-180.1 1665.3,-189.89 1672.29,-190.29"/>
</g>
<!-- HP -->
<g id="node41" class="node">
<title>HP</title>
<ellipse fill="none" stroke="darkviolet" cx="194.34" cy="-234" rx="27" ry="18"/>
<text text-anchor="middle" x="194.34" y="-230.3" font-family="Times,serif" font-size="14.00">HP</text>
</g>
<!-- HP&#45;&gt;Spec -->
<g id="edge41" class="edge">
<title>HP&#45;&gt;Spec</title>
<path fill="none" stroke="black" d="M214.82,-221.89C219.78,-219.61 225.15,-217.46 230.34,-216 273.28,-203.93 569.29,-176.77 681.42,-166.78"/>
<polygon fill="black" stroke="black" points="682.03,-170.24 691.68,-165.87 681.41,-163.27 682.03,-170.24"/>
</g>
<!-- BibRef -->
<g id="node42" class="node">
<title>BibRef</title>
<ellipse fill="none" stroke="#ee0000" cx="1785.34" cy="-378" rx="42.49" ry="18"/>
<text text-anchor="middle" x="1785.34" y="-374.3" font-family="Times,serif" font-size="14.00">BibRef</text>
</g>
<!-- BibRef&#45;&gt;Citation -->
<g id="edge42" class="edge">
<title>BibRef&#45;&gt;Citation</title>
<path fill="none" stroke="black" d="M1785.34,-359.7C1785.34,-351.98 1785.34,-342.71 1785.34,-334.11"/>
<polygon fill="black" stroke="black" points="1788.84,-334.1 1785.34,-324.1 1781.84,-334.1 1788.84,-334.1"/>
</g>
<!-- Author&#45;&gt;Spec -->
<g id="edge59" class="edge">
<title>Author&#45;&gt;Spec</title>
<path fill="none" stroke="black" d="M866.73,-289.97C888.84,-271.82 918.67,-240.66 900.34,-216 870.07,-175.27 809.49,-164.69 767.94,-162.52"/>
<polygon fill="black" stroke="black" points="767.94,-159.02 757.82,-162.14 767.68,-166.01 767.94,-159.02"/>
</g>
<!-- LayoutObj&#45;&gt;Label -->
<g id="edge56" class="edge">
<title>LayoutObj&#45;&gt;Label</title>
<path fill="none" stroke="black" d="M771.21,-293.93C779.23,-291.94 787.54,-289.89 795.34,-288 859.43,-272.48 933.92,-255.14 979.33,-244.66"/>
<polygon fill="black" stroke="black" points="980.16,-248.06 989.12,-242.4 978.59,-241.24 980.16,-248.06"/>
</g>
<!-- LayoutObj&#45;&gt;Spec -->
<g id="edge55" class="edge">
<title>LayoutObj&#45;&gt;Spec</title>
<path fill="none" stroke="black" d="M751,-289.33C762.8,-280.04 775.91,-267.13 782.34,-252 788.6,-237.28 788.79,-230.64 782.34,-216 776.38,-202.47 765.07,-190.9 754.01,-182.05"/>
<polygon fill="black" stroke="black" points="755.8,-179.02 745.69,-175.83 751.6,-184.62 755.8,-179.02"/>
</g>
<!-- Tags -->
<g id="node50" class="node">
<title>Tags</title>
<ellipse fill="none" stroke="#ee0000" cx="990.34" cy="-162" rx="32.49" ry="18"/>
<text text-anchor="middle" x="990.34" y="-158.3" font-family="Times,serif" font-size="14.00">Tags</text>
</g>
<!-- LayoutObj&#45;&gt;Tags -->
<g id="edge54" class="edge">
<title>LayoutObj&#45;&gt;Tags</title>
<path fill="none" stroke="black" d="M771.35,-294.09C815.02,-282.81 878.5,-265.05 900.34,-252 929.02,-234.86 955.38,-206.69 972.06,-186.63"/>
<polygon fill="black" stroke="black" points="974.79,-188.82 978.39,-178.85 969.36,-184.4 974.79,-188.82"/>
</g>
<!-- Bool -->
<g id="node51" class="node">
<title>Bool</title>
<ellipse fill="none" stroke="black" cx="860.34" cy="-234" rx="31.4" ry="18"/>
<text text-anchor="middle" x="860.34" y="-230.3" font-family="Times,serif" font-size="14.00">Bool</text>
</g>
<!-- LayoutObj&#45;&gt;Bool -->
<g id="edge57" class="edge">
<title>LayoutObj&#45;&gt;Bool</title>
<path fill="none" stroke="black" d="M755.55,-290.15C777.03,-278.85 806.6,-263.28 828.86,-251.57"/>
<polygon fill="black" stroke="black" points="830.68,-254.56 837.9,-246.81 827.42,-248.37 830.68,-254.56"/>
</g>
<!-- Caption -->
<g id="node52" class="node">
<title>Caption</title>
<ellipse fill="none" stroke="#ee0000" cx="726.34" cy="-234" rx="46.59" ry="18"/>
<text text-anchor="middle" x="726.34" y="-230.3" font-family="Times,serif" font-size="14.00">Caption</text>
</g>
<!-- LayoutObj&#45;&gt;Caption -->
<g id="edge58" class="edge">
<title>LayoutObj&#45;&gt;Caption</title>
<path fill="none" stroke="black" d="M727.09,-287.7C726.98,-279.98 726.85,-270.71 726.73,-262.11"/>
<polygon fill="black" stroke="black" points="730.23,-262.05 726.59,-252.1 723.23,-262.15 730.23,-262.05"/>
</g>
<!-- Project -->
<g id="node45" class="node">
<title>Project</title>
<ellipse fill="none" stroke="darkviolet" cx="467.34" cy="-450" rx="44.39" ry="18"/>
<text text-anchor="middle" x="467.34" y="-446.3" font-family="Times,serif" font-size="14.00">Project</text>
</g>
<!-- Project&#45;&gt;Title -->
<g id="edge46" class="edge">
<title>Project&#45;&gt;Title</title>
<path fill="none" stroke="black" d="M470.72,-431.87C475.51,-407.56 484.33,-362.82 490.01,-334.01"/>
<polygon fill="black" stroke="black" points="493.45,-334.68 491.95,-324.19 486.58,-333.32 493.45,-334.68"/>
</g>
<!-- Project&#45;&gt;Author -->
<g id="edge47" class="edge">
<title>Project&#45;&gt;Author</title>
<path fill="none" stroke="black" d="M511.02,-446.59C612.07,-440.58 855.26,-423.38 879.34,-396 895.55,-377.57 881.73,-350.45 867.33,-331"/>
<polygon fill="black" stroke="black" points="869.92,-328.63 860.99,-322.92 864.41,-332.95 869.92,-328.63"/>
</g>
<!-- RefMap -->
<g id="node46" class="node">
<title>RefMap</title>
<ellipse fill="none" stroke="#ee0000" cx="183.34" cy="-378" rx="46.59" ry="18"/>
<text text-anchor="middle" x="183.34" y="-374.3" font-family="Times,serif" font-size="14.00">RefMap</text>
</g>
<!-- Project&#45;&gt;RefMap -->
<g id="edge48" class="edge">
<title>Project&#45;&gt;RefMap</title>
<path fill="none" stroke="black" d="M430.5,-439.92C379.68,-427.39 287.95,-404.78 231.67,-390.91"/>
<polygon fill="black" stroke="black" points="232.48,-387.51 221.93,-388.51 230.8,-394.3 232.48,-387.51"/>
</g>
<!-- File -->
<g id="node47" class="node">
<title>File</title>
<ellipse fill="none" stroke="darkviolet" cx="438.34" cy="-378" rx="28.7" ry="18"/>
<text text-anchor="middle" x="438.34" y="-374.3" font-family="Times,serif" font-size="14.00">File</text>
</g>
<!-- Project&#45;&gt;File -->
<g id="edge49" class="edge">
<title>Project&#45;&gt;File</title>
<path fill="none" stroke="black" d="M460.32,-432.05C456.97,-423.97 452.89,-414.12 449.16,-405.11"/>
<polygon fill="black" stroke="black" points="452.36,-403.69 445.3,-395.79 445.89,-406.37 452.36,-403.69"/>
</g>
<!-- MapStringFilename -->
<g id="node60" class="node">
<title>MapStringFilename</title>
<ellipse fill="none" stroke="black" cx="103.34" cy="-306" rx="103.18" ry="18"/>
<text text-anchor="middle" x="103.34" y="-302.3" font-family="Times,serif" font-size="14.00">MapStringFilename</text>
</g>
<!-- RefMap&#45;&gt;MapStringFilename -->
<g id="edge69" class="edge">
<title>RefMap&#45;&gt;MapStringFilename</title>
<path fill="none" stroke="black" d="M165.19,-361.12C154.85,-352.07 141.7,-340.57 130.19,-330.49"/>
<polygon fill="black" stroke="black" points="132.37,-327.75 122.54,-323.8 127.76,-333.02 132.37,-327.75"/>
</g>
<!-- File&#45;&gt;Title -->
<g id="edge50" class="edge">
<title>File&#45;&gt;Title</title>
<path fill="none" stroke="black" d="M450.99,-361.46C458.34,-352.44 467.75,-340.88 476.01,-330.73"/>
<polygon fill="black" stroke="black" points="478.73,-332.94 482.33,-322.98 473.3,-328.52 478.73,-332.94"/>
</g>
<!-- File&#45;&gt;LayoutObj -->
<g id="edge53" class="edge">
<title>File&#45;&gt;LayoutObj</title>
<path fill="none" stroke="black" d="M464.5,-370.66C511.35,-359.32 610.51,-335.3 672.75,-320.22"/>
<polygon fill="black" stroke="black" points="673.89,-323.55 682.78,-317.79 672.24,-316.74 673.89,-323.55"/>
</g>
<!-- Filename -->
<g id="node48" class="node">
<title>Filename</title>
<ellipse fill="none" stroke="#ee0000" cx="472.34" cy="-162" rx="53.89" ry="18"/>
<text text-anchor="middle" x="472.34" y="-158.3" font-family="Times,serif" font-size="14.00">Filename</text>
</g>
<!-- File&#45;&gt;Filename -->
<g id="edge51" class="edge">
<title>File&#45;&gt;Filename</title>
<path fill="none" stroke="black" d="M423.46,-362.07C396.11,-332.76 343.29,-266.17 373.34,-216 384.14,-197.97 403.39,-185.73 422.07,-177.6"/>
<polygon fill="black" stroke="black" points="423.48,-180.8 431.45,-173.82 420.86,-174.31 423.48,-180.8"/>
</g>
<!-- Depth -->
<g id="node49" class="node">
<title>Depth</title>
<ellipse fill="none" stroke="#ee0000" cx="263.34" cy="-306" rx="38.99" ry="18"/>
<text text-anchor="middle" x="263.34" y="-302.3" font-family="Times,serif" font-size="14.00">Depth</text>
</g>
<!-- File&#45;&gt;Depth -->
<g id="edge52" class="edge">
<title>File&#45;&gt;Depth</title>
<path fill="none" stroke="black" d="M414.74,-367.56C385.57,-355.89 335.58,-335.9 301.07,-322.09"/>
<polygon fill="black" stroke="black" points="302.36,-318.84 291.78,-318.37 299.76,-325.34 302.36,-318.84"/>
</g>
<!-- Filename&#45;&gt;String -->
<g id="edge67" class="edge">
<title>Filename&#45;&gt;String</title>
<path fill="none" stroke="black" d="M526.34,-160.86C589.49,-158.66 695.67,-148.52 776.34,-108 797.13,-97.56 793.36,-82.05 814.34,-72 873.53,-43.65 1063.49,-28 1154.63,-21.96"/>
<polygon fill="black" stroke="black" points="1154.97,-25.44 1164.72,-21.3 1154.51,-18.46 1154.97,-25.44"/>
</g>
<!-- Int -->
<g id="node55" class="node">
<title>Int</title>
<ellipse fill="none" stroke="black" cx="266.34" cy="-234" rx="27" ry="18"/>
<text text-anchor="middle" x="266.34" y="-230.3" font-family="Times,serif" font-size="14.00">Int</text>
</g>
<!-- Depth&#45;&gt;Int -->
<g id="edge63" class="edge">
<title>Depth&#45;&gt;Int</title>
<path fill="none" stroke="black" d="M264.08,-287.7C264.41,-279.98 264.81,-270.71 265.18,-262.11"/>
<polygon fill="black" stroke="black" points="268.68,-262.25 265.61,-252.1 261.68,-261.95 268.68,-262.25"/>
</g>
<!-- Tags&#45;&gt;String -->
<g id="edge62" class="edge">
<title>Tags&#45;&gt;String</title>
<path fill="none" stroke="black" d="M1010.11,-147.45C1025.19,-136.97 1046.35,-121.94 1064.34,-108 1084.04,-92.73 1086.75,-86.04 1107.34,-72 1126.74,-58.77 1149.74,-46.08 1168.48,-36.44"/>
<polygon fill="black" stroke="black" points="1170.25,-39.47 1177.58,-31.83 1167.08,-33.23 1170.25,-39.47"/>
</g>
<!-- Caption&#45;&gt;Spec -->
<g id="edge68" class="edge">
<title>Caption&#45;&gt;Spec</title>
<path fill="none" stroke="black" d="M725.85,-215.7C725.63,-207.98 725.36,-198.71 725.12,-190.11"/>
<polygon fill="black" stroke="black" points="728.61,-190 724.83,-180.1 721.62,-190.2 728.61,-190"/>
</g>
<!-- Contents -->
<g id="node53" class="node">
<title>Contents</title>
<ellipse fill="none" stroke="#ee0000" cx="570.34" cy="-234" rx="52.79" ry="18"/>
<text text-anchor="middle" x="570.34" y="-230.3" font-family="Times,serif" font-size="14.00">Contents</text>
</g>
<!-- Contents&#45;&gt;Spec -->
<g id="edge60" class="edge">
<title>Contents&#45;&gt;Spec</title>
<path fill="none" stroke="black" d="M600.77,-219.17C626.53,-207.46 663.43,-190.68 690.2,-178.52"/>
<polygon fill="black" stroke="black" points="691.91,-181.59 699.56,-174.26 689.01,-175.21 691.91,-181.59"/>
</g>
<!-- Items -->
<g id="node54" class="node">
<title>Items</title>
<ellipse fill="none" stroke="#ee0000" cx="699.34" cy="-378" rx="37.09" ry="18"/>
<text text-anchor="middle" x="699.34" y="-374.3" font-family="Times,serif" font-size="14.00">Items</text>
</g>
<!-- Items&#45;&gt;LayoutObj -->
<g id="edge61" class="edge">
<title>Items&#45;&gt;LayoutObj</title>
<path fill="none" stroke="black" d="M706.12,-360.05C709.27,-352.18 713.09,-342.62 716.62,-333.79"/>
<polygon fill="black" stroke="black" points="719.97,-334.86 720.43,-324.28 713.47,-332.26 719.97,-334.86"/>
</g>
<!-- Width -->
<g id="node56" class="node">
<title>Width</title>
<ellipse fill="none" stroke="#ee0000" cx="2049.34" cy="-450" rx="38.19" ry="18"/>
<text text-anchor="middle" x="2049.34" y="-446.3" font-family="Times,serif" font-size="14.00">Width</text>
</g>
<!-- Float -->
<g id="node57" class="node">
<title>Float</title>
<ellipse fill="none" stroke="black" cx="2099.34" cy="-378" rx="34.39" ry="18"/>
<text text-anchor="middle" x="2099.34" y="-374.3" font-family="Times,serif" font-size="14.00">Float</text>
</g>
<!-- Width&#45;&gt;Float -->
<g id="edge64" class="edge">
<title>Width&#45;&gt;Float</title>
<path fill="none" stroke="black" d="M2060.94,-432.76C2067.19,-424.02 2075.02,-413.05 2081.98,-403.31"/>
<polygon fill="black" stroke="black" points="2084.84,-405.32 2087.81,-395.15 2079.15,-401.25 2084.84,-405.32"/>
</g>
<!-- Height -->
<g id="node58" class="node">
<title>Height</title>
<ellipse fill="none" stroke="#ee0000" cx="2148.34" cy="-450" rx="42.49" ry="18"/>
<text text-anchor="middle" x="2148.34" y="-446.3" font-family="Times,serif" font-size="14.00">Height</text>
</g>
<!-- Height&#45;&gt;Float -->
<g id="edge65" class="edge">
<title>Height&#45;&gt;Float</title>
<path fill="none" stroke="black" d="M2136.73,-432.41C2130.75,-423.87 2123.34,-413.28 2116.69,-403.79"/>
<polygon fill="black" stroke="black" points="2119.47,-401.66 2110.87,-395.47 2113.74,-405.67 2119.47,-401.66"/>
</g>
<!-- Filepath -->
<g id="node59" class="node">
<title>Filepath</title>
<ellipse fill="none" stroke="#ee0000" cx="1576.34" cy="-90" rx="49.29" ry="18"/>
<text text-anchor="middle" x="1576.34" y="-86.3" font-family="Times,serif" font-size="14.00">Filepath</text>
</g>
<!-- Filepath&#45;&gt;String -->
<g id="edge66" class="edge">
<title>Filepath&#45;&gt;String</title>
<path fill="none" stroke="black" d="M1538.84,-78.26C1530.48,-76.04 1521.64,-73.83 1513.34,-72 1421.64,-51.81 1313.2,-34.76 1252.23,-25.79"/>
<polygon fill="black" stroke="black" points="1252.54,-22.3 1242.14,-24.32 1251.53,-29.23 1252.54,-22.3"/>
</g>
<!-- MathContext -->
<g id="node64" class="node">
<title>MathContext</title>
<ellipse fill="none" stroke="darkviolet" cx="2280.34" cy="-450" rx="71.49" ry="18"/>
<text text-anchor="middle" x="2280.34" y="-446.3" font-family="Times,serif" font-size="14.00">MathContext</text>
</g>
<!-- Latex -->
<g id="node65" class="node">
<title>Latex</title>
<ellipse fill="none" stroke="darkgreen" cx="859.34" cy="-90" rx="36.29" ry="18"/>
<text text-anchor="middle" x="859.34" y="-86.3" font-family="Times,serif" font-size="14.00">Latex</text>
</g>
<!-- Latex&#45;&gt;String -->
<g id="edge74" class="edge">
<title>Latex&#45;&gt;String</title>
<path fill="none" stroke="black" d="M886.68,-77.75C892.45,-75.63 898.54,-73.59 904.34,-72 991.36,-48.1 1095.66,-32.51 1155.54,-24.78"/>
<polygon fill="black" stroke="black" points="1155.99,-28.25 1165.47,-23.51 1155.11,-21.3 1155.99,-28.25"/>
</g>
<!-- D -->
<g id="node66" class="node">
<title>D</title>
<ellipse fill="none" stroke="#ee0000" cx="1264.34" cy="-162" rx="27" ry="18"/>
<text text-anchor="middle" x="1264.34" y="-158.3" font-family="Times,serif" font-size="14.00">D</text>
</g>
<!-- D&#45;&gt;Doc -->
<g id="edge75" class="edge">
<title>D&#45;&gt;Doc</title>
<path fill="none" stroke="black" d="M1247.76,-147.5C1235.11,-137.21 1217.48,-122.86 1203.16,-111.2"/>
<polygon fill="black" stroke="black" points="1205.13,-108.29 1195.17,-104.69 1200.71,-113.72 1205.13,-108.29"/>
</g>
<!-- Package -->
<g id="node67" class="node">
<title>Package</title>
<ellipse fill="none" stroke="darkviolet" cx="2418.34" cy="-450" rx="48.99" ry="18"/>
<text text-anchor="middle" x="2418.34" y="-446.3" font-family="Times,serif" font-size="14.00">Package</text>
</g>
<!-- Def -->
<g id="node68" class="node">
<title>Def</title>
<ellipse fill="none" stroke="darkviolet" cx="2512.34" cy="-450" rx="27" ry="18"/>
<text text-anchor="middle" x="2512.34" y="-446.3" font-family="Times,serif" font-size="14.00">Def</text>
</g>
<!-- FieldWrap -->
<g id="node69" class="node">
<title>FieldWrap</title>
<ellipse fill="none" stroke="darkviolet" cx="1283.34" cy="-234" rx="58.49" ry="18"/>
<text text-anchor="middle" x="1283.34" y="-230.3" font-family="Times,serif" font-size="14.00">FieldWrap</text>
</g>
<!-- FieldWrap&#45;&gt;String -->
<g id="edge77" class="edge">
<title>FieldWrap&#45;&gt;String</title>
<path fill="none" stroke="black" d="M1329.28,-222.74C1381.55,-210.64 1460.92,-190.82 1470.34,-180 1501.99,-143.64 1511.05,-109.16 1480.34,-72 1452.24,-37.99 1326.09,-25.58 1254.46,-21.23"/>
<polygon fill="black" stroke="black" points="1254.49,-17.72 1244.3,-20.64 1254.08,-24.71 1254.49,-17.72"/>
</g>
<!-- FieldWrap&#45;&gt;Spec -->
<g id="edge79" class="edge">
<title>FieldWrap&#45;&gt;Spec</title>
<path fill="none" stroke="black" d="M1230.25,-226.35C1119.7,-212.51 866.76,-180.83 766.45,-168.27"/>
<polygon fill="black" stroke="black" points="766.74,-164.78 756.39,-167.01 765.87,-171.73 766.74,-164.78"/>
</g>
<!-- FieldWrap&#45;&gt;D -->
<g id="edge80" class="edge">
<title>FieldWrap&#45;&gt;D</title>
<path fill="none" stroke="black" d="M1278.74,-216.05C1276.59,-208.14 1273.99,-198.54 1271.58,-189.69"/>
<polygon fill="black" stroke="black" points="1274.9,-188.52 1268.9,-179.79 1268.14,-190.36 1274.9,-188.52"/>
</g>
<!-- FieldWrap&#45;&gt;FieldWrap -->
<g id="edge78" class="edge">
<title>FieldWrap&#45;&gt;FieldWrap</title>
<path fill="none" stroke="black" d="M1323.48,-247.17C1342.79,-248.8 1359.84,-244.41 1359.84,-234 1359.84,-225.46 1348.37,-220.98 1333.59,-220.54"/>
<polygon fill="black" stroke="black" points="1333.38,-217.04 1323.48,-220.83 1333.58,-224.04 1333.38,-217.04"/>
</g>
<!-- StyleGuide -->
<g id="node70" class="node">
<title>StyleGuide</title>
<ellipse fill="none" stroke="darkviolet" cx="975.34" cy="-90" rx="61.99" ry="18"/>
<text text-anchor="middle" x="975.34" y="-86.3" font-family="Times,serif" font-size="14.00">StyleGuide</text>
</g>
<!-- StyleGuide&#45;&gt;String -->
<g id="edge82" class="edge">
<title>StyleGuide&#45;&gt;String</title>
<path fill="none" stroke="black" d="M1016.28,-76.49C1057.4,-63.92 1120.48,-44.64 1162.07,-31.92"/>
<polygon fill="black" stroke="black" points="1163.35,-35.19 1171.89,-28.92 1161.31,-28.5 1163.35,-35.19"/>
</g>
<!-- StyleGuide&#45;&gt;StyleGuide -->
<g id="edge81" class="edge">
<title>StyleGuide&#45;&gt;StyleGuide</title>
<path fill="none" stroke="black" d="M1017.6,-103.2C1037.56,-104.74 1055.09,-100.34 1055.09,-90 1055.09,-81.44 1043.06,-76.95 1027.6,-76.53"/>
<polygon fill="black" stroke="black" points="1027.5,-73.03 1017.6,-76.8 1027.69,-80.03 1027.5,-73.03"/>
</g>
<!-- DocType -->
<g id="node71" class="node">
<title>DocType</title>
<ellipse fill="none" stroke="darkviolet" cx="2608.34" cy="-450" rx="50.89" ry="18"/>
<text text-anchor="middle" x="2608.34" y="-446.3" font-family="Times,serif" font-size="14.00">DocType</text>
</g>
<!-- Format -->
<g id="node72" class="node">
<title>Format</title>
<ellipse fill="none" stroke="darkviolet" cx="2721.34" cy="-450" rx="44.39" ry="18"/>
<text text-anchor="middle" x="2721.34" y="-446.3" font-family="Times,serif" font-size="14.00">Format</text>
</g>
</g>
</svg>
