<?xml version="1.0" encoding="UTF-8" standalone="no"?>
<!DOCTYPE svg PUBLIC "-//W3C//DTD SVG 1.1//EN"
 "http://www.w3.org/Graphics/SVG/1.1/DTD/svg11.dtd">
<!-- Generated by graphviz version 2.43.0 (0)
 -->
<!-- Title: alltypes Pages: 1 -->
<svg width="3143pt" height="476pt"
 viewBox="0.00 0.00 3142.94 476.00" xmlns="http://www.w3.org/2000/svg" xmlns:xlink="http://www.w3.org/1999/xlink">
<g id="graph0" class="graph" transform="scale(1 1) rotate(0) translate(4 472)">
<title>alltypes</title>
<polygon fill="white" stroke="transparent" points="-4,4 -4,-472 3138.94,-472 3138.94,4 -4,4"/>
<!-- NodeFamily -->
<g id="node1" class="node">
<title>NodeFamily</title>
<ellipse fill="none" stroke="#00cdcd" cx="552.74" cy="-306" rx="66.09" ry="18"/>
<text text-anchor="middle" x="552.74" y="-302.3" font-family="Times,serif" font-size="14.00">NodeFamily</text>
</g>
<!-- UID -->
<g id="node2" class="node">
<title>UID</title>
<ellipse fill="none" stroke="black" cx="469.74" cy="-234" rx="29.5" ry="18"/>
<text text-anchor="middle" x="469.74" y="-230.3" font-family="Times,serif" font-size="14.00">UID</text>
</g>
<!-- NodeFamily&#45;&gt;UID -->
<g id="edge1" class="edge">
<title>NodeFamily&#45;&gt;UID</title>
<path fill="none" stroke="black" d="M533.49,-288.76C521.79,-278.89 506.73,-266.19 494.18,-255.61"/>
<polygon fill="black" stroke="black" points="496.27,-252.79 486.37,-249.02 491.75,-258.14 496.27,-252.79"/>
</g>
<!-- Label -->
<g id="node3" class="node">
<title>Label</title>
<ellipse fill="none" stroke="#ee0000" cx="902.74" cy="-234" rx="36.29" ry="18"/>
<text text-anchor="middle" x="902.74" y="-230.3" font-family="Times,serif" font-size="14.00">Label</text>
</g>
<!-- NodeFamily&#45;&gt;Label -->
<g id="edge2" class="edge">
<title>NodeFamily&#45;&gt;Label</title>
<path fill="none" stroke="black" d="M612,-297.91C673.77,-289.77 773.08,-274.55 856.74,-252 859.69,-251.21 862.71,-250.3 865.73,-249.33"/>
<polygon fill="black" stroke="black" points="866.94,-252.62 875.28,-246.07 864.68,-245.99 866.94,-252.62"/>
</g>
<!-- Colour -->
<g id="node4" class="node">
<title>Colour</title>
<ellipse fill="none" stroke="#ee0000" cx="605.74" cy="-162" rx="41.69" ry="18"/>
<text text-anchor="middle" x="605.74" y="-158.3" font-family="Times,serif" font-size="14.00">Colour</text>
</g>
<!-- NodeFamily&#45;&gt;Colour -->
<g id="edge3" class="edge">
<title>NodeFamily&#45;&gt;Colour</title>
<path fill="none" stroke="black" d="M547.64,-287.79C543.1,-269.24 538.61,-239.25 548.74,-216 554.34,-203.17 564.74,-192.04 575.14,-183.34"/>
<polygon fill="black" stroke="black" points="577.3,-186.1 583.01,-177.18 572.98,-180.59 577.3,-186.1"/>
</g>
<!-- String -->
<g id="node6" class="node">
<title>String</title>
<ellipse fill="none" stroke="black" cx="620.74" cy="-18" rx="40.09" ry="18"/>
<text text-anchor="middle" x="620.74" y="-14.3" font-family="Times,serif" font-size="14.00">String</text>
</g>
<!-- Label&#45;&gt;String -->
<g id="edge7" class="edge">
<title>Label&#45;&gt;String</title>
<path fill="none" stroke="black" d="M906.5,-216.06C912.62,-183.54 920.66,-112.04 883.74,-72 869.28,-56.31 740.78,-35.93 668.9,-25.61"/>
<polygon fill="black" stroke="black" points="669.12,-22.1 658.73,-24.16 668.13,-29.03 669.12,-22.1"/>
</g>
<!-- Spec -->
<g id="node17" class="node">
<title>Spec</title>
<ellipse fill="none" stroke="darkviolet" cx="1345.74" cy="-162" rx="33.29" ry="18"/>
<text text-anchor="middle" x="1345.74" y="-158.3" font-family="Times,serif" font-size="14.00">Spec</text>
</g>
<!-- Label&#45;&gt;Spec -->
<g id="edge28" class="edge">
<title>Label&#45;&gt;Spec</title>
<path fill="none" stroke="black" d="M929.55,-221.73C935.46,-219.57 941.75,-217.51 947.74,-216 1074.34,-184.11 1228.73,-170.51 1302.48,-165.51"/>
<polygon fill="black" stroke="black" points="1303.02,-168.98 1312.76,-164.84 1302.56,-162 1303.02,-168.98"/>
</g>
<!-- Colour&#45;&gt;String -->
<g id="edge6" class="edge">
<title>Colour&#45;&gt;String</title>
<path fill="none" stroke="black" d="M604.69,-143.85C603.87,-125.86 603.38,-96.81 606.74,-72 607.93,-63.28 610.08,-53.95 612.35,-45.59"/>
<polygon fill="black" stroke="black" points="615.71,-46.55 615.12,-35.97 608.99,-44.61 615.71,-46.55"/>
</g>
<!-- GraphInfo -->
<g id="node5" class="node">
<title>GraphInfo</title>
<ellipse fill="none" stroke="#00cdcd" cx="523.74" cy="-378" rx="57.69" ry="18"/>
<text text-anchor="middle" x="523.74" y="-374.3" font-family="Times,serif" font-size="14.00">GraphInfo</text>
</g>
<!-- GraphInfo&#45;&gt;NodeFamily -->
<g id="edge4" class="edge">
<title>GraphInfo&#45;&gt;NodeFamily</title>
<path fill="none" stroke="black" d="M530.76,-360.05C534.03,-352.18 537.99,-342.62 541.64,-333.79"/>
<polygon fill="black" stroke="black" points="544.99,-334.85 545.59,-324.28 538.53,-332.17 544.99,-334.85"/>
</g>
<!-- GraphInfo&#45;&gt;UID -->
<g id="edge5" class="edge">
<title>GraphInfo&#45;&gt;UID</title>
<path fill="none" stroke="black" d="M504.85,-360.81C494.99,-351.19 483.75,-338.13 477.74,-324 469.46,-304.52 467.73,-280.52 467.93,-262.35"/>
<polygon fill="black" stroke="black" points="471.43,-262.25 468.24,-252.15 464.44,-262.04 471.43,-262.25"/>
</g>
<!-- Variation -->
<g id="node7" class="node">
<title>Variation</title>
<ellipse fill="none" stroke="darkviolet" cx="250.74" cy="-162" rx="52.79" ry="18"/>
<text text-anchor="middle" x="250.74" y="-158.3" font-family="Times,serif" font-size="14.00">Variation</text>
</g>
<!-- Variation&#45;&gt;String -->
<g id="edge8" class="edge">
<title>Variation&#45;&gt;String</title>
<path fill="none" stroke="black" d="M249.12,-143.85C248.23,-123.62 250.19,-90.41 269.74,-72 312.22,-32.02 483.81,-22.19 570.33,-19.78"/>
<polygon fill="black" stroke="black" points="570.54,-23.27 580.45,-19.52 570.36,-16.27 570.54,-23.27"/>
</g>
<!-- Doc -->
<g id="node8" class="node">
<title>Doc</title>
<ellipse fill="none" stroke="black" cx="451.74" cy="-90" rx="28.7" ry="18"/>
<text text-anchor="middle" x="451.74" y="-86.3" font-family="Times,serif" font-size="14.00">Doc</text>
</g>
<!-- Variation&#45;&gt;Doc -->
<g id="edge9" class="edge">
<title>Variation&#45;&gt;Doc</title>
<path fill="none" stroke="black" d="M289.35,-149.71C322.64,-139.68 371.81,-124.14 413.74,-108 415.83,-107.2 417.96,-106.34 420.1,-105.46"/>
<polygon fill="black" stroke="black" points="421.59,-108.63 429.41,-101.47 418.84,-102.19 421.59,-108.63"/>
</g>
<!-- PrintHTML -->
<g id="node9" class="node">
<title>PrintHTML</title>
<ellipse fill="none" stroke="darkgreen" cx="341.74" cy="-90" rx="63.09" ry="18"/>
<text text-anchor="middle" x="341.74" y="-86.3" font-family="Times,serif" font-size="14.00">PrintHTML</text>
</g>
<!-- PrintHTML&#45;&gt;String -->
<g id="edge10" class="edge">
<title>PrintHTML&#45;&gt;String</title>
<path fill="none" stroke="black" d="M387.5,-77.52C439.82,-64.39 524.89,-43.05 576.55,-30.09"/>
<polygon fill="black" stroke="black" points="577.56,-33.44 586.41,-27.61 575.86,-26.65 577.56,-33.44"/>
</g>
<!-- OpenClose -->
<g id="node10" class="node">
<title>OpenClose</title>
<ellipse fill="none" stroke="darkviolet" cx="564.74" cy="-450" rx="60.39" ry="18"/>
<text text-anchor="middle" x="564.74" y="-446.3" font-family="Times,serif" font-size="14.00">OpenClose</text>
</g>
<!-- OpenClose&#45;&gt;String -->
<g id="edge12" class="edge">
<title>OpenClose&#45;&gt;String</title>
<path fill="none" stroke="black" d="M511.47,-441.29C403.65,-424.18 169.74,-378.78 169.74,-307 169.74,-307 169.74,-307 169.74,-161 169.74,-108.11 202.16,-97.04 248.74,-72 303.46,-42.59 482.67,-27.6 570.84,-21.86"/>
<polygon fill="black" stroke="black" points="571.11,-25.35 580.87,-21.22 570.67,-18.36 571.11,-25.35"/>
</g>
<!-- OpenClose&#45;&gt;Doc -->
<g id="edge14" class="edge">
<title>OpenClose&#45;&gt;Doc</title>
<path fill="none" stroke="black" d="M512.45,-440.85C443.76,-426.83 331.74,-391.08 331.74,-307 331.74,-307 331.74,-307 331.74,-233 331.74,-192.55 326.3,-176.23 350.74,-144 355.45,-137.8 392.47,-119.22 420.34,-105.81"/>
<polygon fill="black" stroke="black" points="421.87,-108.96 429.38,-101.49 418.85,-102.65 421.87,-108.96"/>
</g>
<!-- PrintingInformation -->
<g id="node11" class="node">
<title>PrintingInformation</title>
<ellipse fill="none" stroke="#00cdcd" cx="2295.74" cy="-378" rx="103.18" ry="18"/>
<text text-anchor="middle" x="2295.74" y="-374.3" font-family="Times,serif" font-size="14.00">PrintingInformation</text>
</g>
<!-- OpenClose&#45;&gt;PrintingInformation -->
<g id="edge11" class="edge">
<title>OpenClose&#45;&gt;PrintingInformation</title>
<path fill="none" stroke="black" d="M614.77,-439.79C633.24,-436.76 654.38,-433.73 673.74,-432 1341.93,-372.18 1514.4,-454.02 2182.74,-396 2193,-395.11 2203.75,-393.88 2214.36,-392.49"/>
<polygon fill="black" stroke="black" points="2215.04,-395.93 2224.47,-391.11 2214.09,-388.99 2215.04,-395.93"/>
</g>
<!-- Document -->
<g id="node12" class="node">
<title>Document</title>
<ellipse fill="none" stroke="darkviolet" cx="1374.74" cy="-378" rx="57.69" ry="18"/>
<text text-anchor="middle" x="1374.74" y="-374.3" font-family="Times,serif" font-size="14.00">Document</text>
</g>
<!-- OpenClose&#45;&gt;Document -->
<g id="edge13" class="edge">
<title>OpenClose&#45;&gt;Document</title>
<path fill="none" stroke="black" d="M615.36,-440.14C633.7,-437.18 654.61,-434.11 673.74,-432 919.44,-404.93 982.57,-418.3 1228.74,-396 1256.23,-393.51 1286.55,-390.09 1312.4,-386.97"/>
<polygon fill="black" stroke="black" points="1312.94,-390.43 1322.44,-385.75 1312.09,-383.48 1312.94,-390.43"/>
</g>
<!-- Expr -->
<g id="node23" class="node">
<title>Expr</title>
<ellipse fill="none" stroke="darkviolet" cx="963.74" cy="-90" rx="33.29" ry="18"/>
<text text-anchor="middle" x="963.74" y="-86.3" font-family="Times,serif" font-size="14.00">Expr</text>
</g>
<!-- OpenClose&#45;&gt;Expr -->
<g id="edge60" class="edge">
<title>OpenClose&#45;&gt;Expr</title>
<path fill="none" stroke="black" d="M577.66,-432.19C609.02,-391.99 692.82,-288.26 776.74,-216 827.56,-172.24 894.35,-130.94 932.82,-108.49"/>
<polygon fill="black" stroke="black" points="934.6,-111.5 941.5,-103.46 931.09,-105.45 934.6,-111.5"/>
</g>
<!-- D -->
<g id="node57" class="node">
<title>D</title>
<ellipse fill="none" stroke="#ee0000" cx="386.74" cy="-162" rx="27" ry="18"/>
<text text-anchor="middle" x="386.74" y="-158.3" font-family="Times,serif" font-size="14.00">D</text>
</g>
<!-- OpenClose&#45;&gt;D -->
<g id="edge61" class="edge">
<title>OpenClose&#45;&gt;D</title>
<path fill="none" stroke="black" d="M522.11,-437.21C499.77,-429.02 473.63,-415.91 456.74,-396 405.18,-335.18 391.6,-237.34 388.02,-190.17"/>
<polygon fill="black" stroke="black" points="391.51,-189.85 387.36,-180.11 384.52,-190.32 391.51,-189.85"/>
</g>
<!-- PrintingConfiguration -->
<g id="node15" class="node">
<title>PrintingConfiguration</title>
<ellipse fill="none" stroke="darkgreen" cx="2012.74" cy="-306" rx="112.38" ry="18"/>
<text text-anchor="middle" x="2012.74" y="-302.3" font-family="Times,serif" font-size="14.00">PrintingConfiguration</text>
</g>
<!-- PrintingInformation&#45;&gt;PrintingConfiguration -->
<g id="edge56" class="edge">
<title>PrintingInformation&#45;&gt;PrintingConfiguration</title>
<path fill="none" stroke="black" d="M2238.82,-362.92C2193.21,-351.64 2129.1,-335.78 2080.79,-323.83"/>
<polygon fill="black" stroke="black" points="2081.59,-320.42 2071.04,-321.42 2079.91,-327.22 2081.59,-320.42"/>
</g>
<!-- ChunkDB -->
<g id="node52" class="node">
<title>ChunkDB</title>
<ellipse fill="none" stroke="black" cx="2405.74" cy="-306" rx="54.69" ry="18"/>
<text text-anchor="middle" x="2405.74" y="-302.3" font-family="Times,serif" font-size="14.00">ChunkDB</text>
</g>
<!-- PrintingInformation&#45;&gt;ChunkDB -->
<g id="edge54" class="edge">
<title>PrintingInformation&#45;&gt;ChunkDB</title>
<path fill="none" stroke="black" d="M2321.81,-360.41C2337.14,-350.65 2356.67,-338.23 2373.03,-327.82"/>
<polygon fill="black" stroke="black" points="2375.19,-330.6 2381.74,-322.27 2371.43,-324.69 2375.19,-330.6"/>
</g>
<!-- Stage -->
<g id="node53" class="node">
<title>Stage</title>
<ellipse fill="none" stroke="black" cx="2295.74" cy="-306" rx="37.89" ry="18"/>
<text text-anchor="middle" x="2295.74" y="-302.3" font-family="Times,serif" font-size="14.00">Stage</text>
</g>
<!-- PrintingInformation&#45;&gt;Stage -->
<g id="edge55" class="edge">
<title>PrintingInformation&#45;&gt;Stage</title>
<path fill="none" stroke="black" d="M2295.74,-359.7C2295.74,-351.98 2295.74,-342.71 2295.74,-334.11"/>
<polygon fill="black" stroke="black" points="2299.24,-334.1 2295.74,-324.1 2292.24,-334.1 2299.24,-334.1"/>
</g>
<!-- Title -->
<g id="node31" class="node">
<title>Title</title>
<ellipse fill="none" stroke="#ee0000" cx="1453.74" cy="-306" rx="31.7" ry="18"/>
<text text-anchor="middle" x="1453.74" y="-302.3" font-family="Times,serif" font-size="14.00">Title</text>
</g>
<!-- Document&#45;&gt;Title -->
<g id="edge37" class="edge">
<title>Document&#45;&gt;Title</title>
<path fill="none" stroke="black" d="M1393.07,-360.76C1403.96,-351.12 1417.89,-338.77 1429.66,-328.34"/>
<polygon fill="black" stroke="black" points="1432.24,-330.73 1437.4,-321.48 1427.59,-325.5 1432.24,-330.73"/>
</g>
<!-- Author -->
<g id="node39" class="node">
<title>Author</title>
<ellipse fill="none" stroke="#ee0000" cx="1641.74" cy="-306" rx="42.49" ry="18"/>
<text text-anchor="middle" x="1641.74" y="-302.3" font-family="Times,serif" font-size="14.00">Author</text>
</g>
<!-- Document&#45;&gt;Author -->
<g id="edge38" class="edge">
<title>Document&#45;&gt;Author</title>
<path fill="none" stroke="black" d="M1417.64,-365.75C1466.74,-352.88 1546.79,-331.89 1596.75,-318.8"/>
<polygon fill="black" stroke="black" points="1597.84,-322.13 1606.62,-316.21 1596.06,-315.36 1597.84,-322.13"/>
</g>
<!-- LayoutObj -->
<g id="node40" class="node">
<title>LayoutObj</title>
<ellipse fill="none" stroke="darkviolet" cx="952.74" cy="-306" rx="58.49" ry="18"/>
<text text-anchor="middle" x="952.74" y="-302.3" font-family="Times,serif" font-size="14.00">LayoutObj</text>
</g>
<!-- Document&#45;&gt;LayoutObj -->
<g id="edge39" class="edge">
<title>Document&#45;&gt;LayoutObj</title>
<path fill="none" stroke="black" d="M1324.68,-368.7C1246.74,-355.77 1096.67,-330.87 1012.95,-316.99"/>
<polygon fill="black" stroke="black" points="1013.51,-313.53 1003.07,-315.35 1012.37,-320.44 1013.51,-313.53"/>
</g>
<!-- Seperator -->
<g id="node13" class="node">
<title>Seperator</title>
<ellipse fill="none" stroke="#ee0000" cx="488.74" cy="-162" rx="57.39" ry="18"/>
<text text-anchor="middle" x="488.74" y="-158.3" font-family="Times,serif" font-size="14.00">Seperator</text>
</g>
<!-- Seperator&#45;&gt;Doc -->
<g id="edge15" class="edge">
<title>Seperator&#45;&gt;Doc</title>
<path fill="none" stroke="black" d="M479.79,-144.05C475.41,-135.77 470.04,-125.62 465.18,-116.42"/>
<polygon fill="black" stroke="black" points="468.13,-114.51 460.36,-107.31 461.94,-117.78 468.13,-114.51"/>
</g>
<!-- Linearity -->
<g id="node14" class="node">
<title>Linearity</title>
<ellipse fill="none" stroke="darkviolet" cx="2012.74" cy="-378" rx="52.79" ry="18"/>
<text text-anchor="middle" x="2012.74" y="-374.3" font-family="Times,serif" font-size="14.00">Linearity</text>
</g>
<!-- Linearity&#45;&gt;PrintingConfiguration -->
<g id="edge16" class="edge">
<title>Linearity&#45;&gt;PrintingConfiguration</title>
<path fill="none" stroke="black" d="M2012.74,-359.7C2012.74,-351.98 2012.74,-342.71 2012.74,-334.11"/>
<polygon fill="black" stroke="black" points="2016.24,-334.1 2012.74,-324.1 2009.24,-334.1 2016.24,-334.1"/>
</g>
<!-- Notation -->
<g id="node54" class="node">
<title>Notation</title>
<ellipse fill="none" stroke="darkviolet" cx="2012.74" cy="-234" rx="51.19" ry="18"/>
<text text-anchor="middle" x="2012.74" y="-230.3" font-family="Times,serif" font-size="14.00">Notation</text>
</g>
<!-- PrintingConfiguration&#45;&gt;Notation -->
<g id="edge57" class="edge">
<title>PrintingConfiguration&#45;&gt;Notation</title>
<path fill="none" stroke="black" d="M2012.74,-287.7C2012.74,-279.98 2012.74,-270.71 2012.74,-262.11"/>
<polygon fill="black" stroke="black" points="2016.24,-262.1 2012.74,-252.1 2009.24,-262.1 2016.24,-262.1"/>
</g>
<!-- LinkType -->
<g id="node16" class="node">
<title>LinkType</title>
<ellipse fill="none" stroke="darkviolet" cx="1656.74" cy="-234" rx="53.09" ry="18"/>
<text text-anchor="middle" x="1656.74" y="-230.3" font-family="Times,serif" font-size="14.00">LinkType</text>
</g>
<!-- LinkType&#45;&gt;Spec -->
<g id="edge17" class="edge">
<title>LinkType&#45;&gt;Spec</title>
<path fill="none" stroke="black" d="M1615.7,-222.35C1607.13,-220.19 1598.16,-217.98 1589.74,-216 1518.39,-199.2 1434.85,-181.47 1386.34,-171.37"/>
<polygon fill="black" stroke="black" points="1386.76,-167.88 1376.25,-169.27 1385.33,-174.73 1386.76,-167.88"/>
</g>
<!-- Spec&#45;&gt;Expr -->
<g id="edge22" class="edge">
<title>Spec&#45;&gt;Expr</title>
<path fill="none" stroke="black" d="M1314.81,-155.33C1246.36,-142.79 1082.06,-112.68 1004.98,-98.56"/>
<polygon fill="black" stroke="black" points="1005.17,-95.03 994.7,-96.67 1003.91,-101.92 1005.17,-95.03"/>
</g>
<!-- Ops -->
<g id="node18" class="node">
<title>Ops</title>
<ellipse fill="none" stroke="darkviolet" cx="711.74" cy="-450" rx="28.7" ry="18"/>
<text text-anchor="middle" x="711.74" y="-446.3" font-family="Times,serif" font-size="14.00">Ops</text>
</g>
<!-- Fence -->
<g id="node19" class="node">
<title>Fence</title>
<ellipse fill="none" stroke="darkviolet" cx="1421.74" cy="-450" rx="38.19" ry="18"/>
<text text-anchor="middle" x="1421.74" y="-446.3" font-family="Times,serif" font-size="14.00">Fence</text>
</g>
<!-- OverSymb -->
<g id="node20" class="node">
<title>OverSymb</title>
<ellipse fill="none" stroke="darkviolet" cx="1849.74" cy="-450" rx="59.59" ry="18"/>
<text text-anchor="middle" x="1849.74" y="-446.3" font-family="Times,serif" font-size="14.00">OverSymb</text>
</g>
<!-- Fonts -->
<g id="node21" class="node">
<title>Fonts</title>
<ellipse fill="none" stroke="darkviolet" cx="2119.74" cy="-450" rx="36.29" ry="18"/>
<text text-anchor="middle" x="2119.74" y="-446.3" font-family="Times,serif" font-size="14.00">Fonts</text>
</g>
<!-- Spacing -->
<g id="node22" class="node">
<title>Spacing</title>
<ellipse fill="none" stroke="darkviolet" cx="2299.74" cy="-450" rx="48.19" ry="18"/>
<text text-anchor="middle" x="2299.74" y="-446.3" font-family="Times,serif" font-size="14.00">Spacing</text>
</g>
<!-- Expr&#45;&gt;String -->
<g id="edge20" class="edge">
<title>Expr&#45;&gt;String</title>
<path fill="none" stroke="black" d="M937.65,-78.67C930.91,-76.25 923.62,-73.84 916.74,-72 830.89,-48.96 728.29,-33.13 669.21,-25.1"/>
<polygon fill="black" stroke="black" points="669.42,-21.6 659.05,-23.74 668.49,-28.54 669.42,-21.6"/>
</g>
<!-- Double -->
<g id="node24" class="node">
<title>Double</title>
<ellipse fill="none" stroke="black" cx="963.74" cy="-18" rx="43.59" ry="18"/>
<text text-anchor="middle" x="963.74" y="-14.3" font-family="Times,serif" font-size="14.00">Double</text>
</g>
<!-- Expr&#45;&gt;Double -->
<g id="edge18" class="edge">
<title>Expr&#45;&gt;Double</title>
<path fill="none" stroke="black" d="M963.74,-71.7C963.74,-63.98 963.74,-54.71 963.74,-46.11"/>
<polygon fill="black" stroke="black" points="967.24,-46.1 963.74,-36.1 960.24,-46.1 967.24,-46.1"/>
</g>
<!-- Integer -->
<g id="node25" class="node">
<title>Integer</title>
<ellipse fill="none" stroke="black" cx="1069.74" cy="-18" rx="44.69" ry="18"/>
<text text-anchor="middle" x="1069.74" y="-14.3" font-family="Times,serif" font-size="14.00">Integer</text>
</g>
<!-- Expr&#45;&gt;Integer -->
<g id="edge19" class="edge">
<title>Expr&#45;&gt;Integer</title>
<path fill="none" stroke="black" d="M984.18,-75.5C999.65,-65.29 1021.17,-51.08 1038.75,-39.46"/>
<polygon fill="black" stroke="black" points="1041.12,-42.09 1047.54,-33.66 1037.27,-36.25 1041.12,-42.09"/>
</g>
<!-- ExprExpr -->
<g id="node26" class="node">
<title>ExprExpr</title>
<ellipse fill="none" stroke="black" cx="846.74" cy="-18" rx="55.79" ry="18"/>
<text text-anchor="middle" x="846.74" y="-14.3" font-family="Times,serif" font-size="14.00">ExprExpr</text>
</g>
<!-- Expr&#45;&gt;ExprExpr -->
<g id="edge21" class="edge">
<title>Expr&#45;&gt;ExprExpr</title>
<path fill="none" stroke="black" d="M942.28,-76.16C925.12,-65.89 900.73,-51.3 880.89,-39.43"/>
<polygon fill="black" stroke="black" points="882.52,-36.33 872.14,-34.19 878.93,-42.33 882.52,-36.33"/>
</g>
<!-- ListType -->
<g id="node27" class="node">
<title>ListType</title>
<ellipse fill="none" stroke="darkviolet" cx="1213.74" cy="-306" rx="50.89" ry="18"/>
<text text-anchor="middle" x="1213.74" y="-302.3" font-family="Times,serif" font-size="14.00">ListType</text>
</g>
<!-- ListType&#45;&gt;Label -->
<g id="edge24" class="edge">
<title>ListType&#45;&gt;Label</title>
<path fill="none" stroke="black" d="M1167.54,-298.16C1114.05,-289.7 1023.57,-273.72 947.74,-252 945.13,-251.25 942.44,-250.41 939.76,-249.53"/>
<polygon fill="black" stroke="black" points="940.7,-246.15 930.11,-246.16 938.39,-252.76 940.7,-246.15"/>
</g>
<!-- ItemTypeMaybe -->
<g id="node28" class="node">
<title>ItemTypeMaybe</title>
<ellipse fill="none" stroke="black" cx="1230.74" cy="-234" rx="85.59" ry="18"/>
<text text-anchor="middle" x="1230.74" y="-230.3" font-family="Times,serif" font-size="14.00">ItemTypeMaybe</text>
</g>
<!-- ListType&#45;&gt;ItemTypeMaybe -->
<g id="edge23" class="edge">
<title>ListType&#45;&gt;ItemTypeMaybe</title>
<path fill="none" stroke="black" d="M1217.86,-288.05C1219.75,-280.26 1222.04,-270.82 1224.17,-262.08"/>
<polygon fill="black" stroke="black" points="1227.59,-262.82 1226.55,-252.28 1220.79,-261.17 1227.59,-262.82"/>
</g>
<!-- TitleItemTypeMaybe -->
<g id="node29" class="node">
<title>TitleItemTypeMaybe</title>
<ellipse fill="none" stroke="black" cx="1440.74" cy="-234" rx="106.68" ry="18"/>
<text text-anchor="middle" x="1440.74" y="-230.3" font-family="Times,serif" font-size="14.00">TitleItemTypeMaybe</text>
</g>
<!-- ListType&#45;&gt;TitleItemTypeMaybe -->
<g id="edge25" class="edge">
<title>ListType&#45;&gt;TitleItemTypeMaybe</title>
<path fill="none" stroke="black" d="M1250.72,-293.6C1286.31,-282.62 1340.69,-265.85 1382.17,-253.06"/>
<polygon fill="black" stroke="black" points="1383.36,-256.36 1391.88,-250.07 1381.3,-249.67 1383.36,-256.36"/>
</g>
<!-- ItemType -->
<g id="node30" class="node">
<title>ItemType</title>
<ellipse fill="none" stroke="darkviolet" cx="1164.74" cy="-378" rx="54.69" ry="18"/>
<text text-anchor="middle" x="1164.74" y="-374.3" font-family="Times,serif" font-size="14.00">ItemType</text>
</g>
<!-- ItemType&#45;&gt;Spec -->
<g id="edge26" class="edge">
<title>ItemType&#45;&gt;Spec</title>
<path fill="none" stroke="black" d="M1153.93,-359.91C1135.3,-328.07 1102.23,-259.02 1135.74,-216 1156.1,-189.87 1247.86,-174.61 1303.13,-167.63"/>
<polygon fill="black" stroke="black" points="1303.84,-171.07 1313.34,-166.38 1302.99,-164.12 1303.84,-171.07"/>
</g>
<!-- ItemType&#45;&gt;ListType -->
<g id="edge27" class="edge">
<title>ItemType&#45;&gt;ListType</title>
<path fill="none" stroke="black" d="M1176.36,-360.41C1182.25,-351.99 1189.54,-341.58 1196.1,-332.2"/>
<polygon fill="black" stroke="black" points="1199.01,-334.16 1201.88,-323.96 1193.27,-330.14 1199.01,-334.16"/>
</g>
<!-- Title&#45;&gt;Spec -->
<g id="edge29" class="edge">
<title>Title&#45;&gt;Spec</title>
<path fill="none" stroke="black" d="M1483.05,-298.79C1507.5,-291.89 1540.82,-278.1 1556.74,-252 1565.08,-238.34 1566.58,-228.62 1556.74,-216 1536.29,-189.77 1444.08,-174.54 1388.55,-167.6"/>
<polygon fill="black" stroke="black" points="1388.65,-164.08 1378.3,-166.36 1387.81,-171.03 1388.65,-164.08"/>
</g>
<!-- Citation -->
<g id="node32" class="node">
<title>Citation</title>
<ellipse fill="none" stroke="darkviolet" cx="2191.74" cy="-306" rx="48.19" ry="18"/>
<text text-anchor="middle" x="2191.74" y="-302.3" font-family="Times,serif" font-size="14.00">Citation</text>
</g>
<!-- EntryID -->
<g id="node33" class="node">
<title>EntryID</title>
<ellipse fill="none" stroke="black" cx="2254.74" cy="-234" rx="48.19" ry="18"/>
<text text-anchor="middle" x="2254.74" y="-230.3" font-family="Times,serif" font-size="14.00">EntryID</text>
</g>
<!-- Citation&#45;&gt;EntryID -->
<g id="edge30" class="edge">
<title>Citation&#45;&gt;EntryID</title>
<path fill="none" stroke="black" d="M2206.36,-288.76C2214.27,-279.97 2224.21,-268.93 2233.01,-259.14"/>
<polygon fill="black" stroke="black" points="2235.69,-261.41 2239.77,-251.63 2230.48,-256.72 2235.69,-261.41"/>
</g>
<!-- CitationKind -->
<g id="node34" class="node">
<title>CitationKind</title>
<ellipse fill="none" stroke="black" cx="2390.74" cy="-234" rx="69.59" ry="18"/>
<text text-anchor="middle" x="2390.74" y="-230.3" font-family="Times,serif" font-size="14.00">CitationKind</text>
</g>
<!-- Citation&#45;&gt;CitationKind -->
<g id="edge31" class="edge">
<title>Citation&#45;&gt;CitationKind</title>
<path fill="none" stroke="black" d="M2225.5,-293.13C2257.33,-281.93 2305.4,-265.02 2341.5,-252.32"/>
<polygon fill="black" stroke="black" points="2343.07,-255.48 2351.34,-248.86 2340.75,-248.88 2343.07,-255.48"/>
</g>
<!-- CiteField -->
<g id="node35" class="node">
<title>CiteField</title>
<ellipse fill="none" stroke="darkviolet" cx="2135.74" cy="-234" rx="53.09" ry="18"/>
<text text-anchor="middle" x="2135.74" y="-230.3" font-family="Times,serif" font-size="14.00">CiteField</text>
</g>
<!-- Citation&#45;&gt;CiteField -->
<g id="edge32" class="edge">
<title>Citation&#45;&gt;CiteField</title>
<path fill="none" stroke="black" d="M2178.47,-288.41C2171.57,-279.78 2162.99,-269.06 2155.34,-259.5"/>
<polygon fill="black" stroke="black" points="2157.9,-257.09 2148.92,-251.47 2152.43,-261.47 2157.9,-257.09"/>
</g>
<!-- CiteField&#45;&gt;Spec -->
<g id="edge33" class="edge">
<title>CiteField&#45;&gt;Spec</title>
<path fill="none" stroke="black" d="M2097.35,-221.39C2089.29,-219.31 2080.79,-217.37 2072.74,-216 1815.95,-172.4 1502.13,-164.65 1388.99,-163.29"/>
<polygon fill="black" stroke="black" points="1389.02,-159.79 1378.98,-163.18 1388.94,-166.79 1389.02,-159.79"/>
</g>
<!-- People -->
<g id="node36" class="node">
<title>People</title>
<ellipse fill="none" stroke="black" cx="2135.74" cy="-162" rx="41.69" ry="18"/>
<text text-anchor="middle" x="2135.74" y="-158.3" font-family="Times,serif" font-size="14.00">People</text>
</g>
<!-- CiteField&#45;&gt;People -->
<g id="edge34" class="edge">
<title>CiteField&#45;&gt;People</title>
<path fill="none" stroke="black" d="M2135.74,-215.7C2135.74,-207.98 2135.74,-198.71 2135.74,-190.11"/>
<polygon fill="black" stroke="black" points="2139.24,-190.1 2135.74,-180.1 2132.24,-190.1 2139.24,-190.1"/>
</g>
<!-- HP -->
<g id="node37" class="node">
<title>HP</title>
<ellipse fill="none" stroke="darkviolet" cx="1792.74" cy="-234" rx="27" ry="18"/>
<text text-anchor="middle" x="1792.74" y="-230.3" font-family="Times,serif" font-size="14.00">HP</text>
</g>
<!-- HP&#45;&gt;Spec -->
<g id="edge35" class="edge">
<title>HP&#45;&gt;Spec</title>
<path fill="none" stroke="black" d="M1771.41,-222.91C1765.19,-220.31 1758.3,-217.75 1751.74,-216 1622.38,-181.39 1463.55,-169.02 1388.67,-164.9"/>
<polygon fill="black" stroke="black" points="1388.85,-161.4 1378.68,-164.37 1388.48,-168.39 1388.85,-161.4"/>
</g>
<!-- BibRef -->
<g id="node38" class="node">
<title>BibRef</title>
<ellipse fill="none" stroke="#ee0000" cx="2131.74" cy="-378" rx="42.49" ry="18"/>
<text text-anchor="middle" x="2131.74" y="-374.3" font-family="Times,serif" font-size="14.00">BibRef</text>
</g>
<!-- BibRef&#45;&gt;Citation -->
<g id="edge36" class="edge">
<title>BibRef&#45;&gt;Citation</title>
<path fill="none" stroke="black" d="M2145.66,-360.76C2153.13,-352.06 2162.48,-341.15 2170.8,-331.43"/>
<polygon fill="black" stroke="black" points="2173.64,-333.5 2177.49,-323.63 2168.32,-328.95 2173.64,-333.5"/>
</g>
<!-- Author&#45;&gt;Spec -->
<g id="edge45" class="edge">
<title>Author&#45;&gt;Spec</title>
<path fill="none" stroke="black" d="M1671.42,-293.09C1688.62,-284.46 1708.78,-270.96 1718.74,-252 1726.19,-237.84 1729.23,-228.08 1718.74,-216 1676.47,-167.3 1478.01,-162.18 1389.06,-162.4"/>
<polygon fill="black" stroke="black" points="1389.01,-158.9 1379.02,-162.44 1389.04,-165.9 1389.01,-158.9"/>
</g>
<!-- LayoutObj&#45;&gt;Label -->
<g id="edge42" class="edge">
<title>LayoutObj&#45;&gt;Label</title>
<path fill="none" stroke="black" d="M940.64,-288.05C934.53,-279.5 927.01,-268.97 920.28,-259.56"/>
<polygon fill="black" stroke="black" points="923.05,-257.41 914.39,-251.31 917.36,-261.48 923.05,-257.41"/>
</g>
<!-- LayoutObj&#45;&gt;Spec -->
<g id="edge41" class="edge">
<title>LayoutObj&#45;&gt;Spec</title>
<path fill="none" stroke="black" d="M986.16,-290.93C1007.84,-281.2 1036.31,-267.3 1059.74,-252 1080.61,-238.37 1080.37,-226.97 1102.74,-216 1168.08,-183.97 1252.69,-171.14 1302.89,-166.12"/>
<polygon fill="black" stroke="black" points="1303.44,-169.58 1313.06,-165.16 1302.78,-162.61 1303.44,-169.58"/>
</g>
<!-- Tags -->
<g id="node41" class="node">
<title>Tags</title>
<ellipse fill="none" stroke="#ee0000" cx="735.74" cy="-162" rx="32.49" ry="18"/>
<text text-anchor="middle" x="735.74" y="-158.3" font-family="Times,serif" font-size="14.00">Tags</text>
</g>
<!-- LayoutObj&#45;&gt;Tags -->
<g id="edge40" class="edge">
<title>LayoutObj&#45;&gt;Tags</title>
<path fill="none" stroke="black" d="M897.03,-300.15C859.23,-294.23 810.21,-281.11 776.74,-252 758.16,-235.84 747.48,-209.5 741.71,-189.65"/>
<polygon fill="black" stroke="black" points="745.09,-188.72 739.13,-179.96 738.32,-190.52 745.09,-188.72"/>
</g>
<!-- Bool -->
<g id="node42" class="node">
<title>Bool</title>
<ellipse fill="none" stroke="black" cx="816.74" cy="-234" rx="31.4" ry="18"/>
<text text-anchor="middle" x="816.74" y="-230.3" font-family="Times,serif" font-size="14.00">Bool</text>
</g>
<!-- LayoutObj&#45;&gt;Bool -->
<g id="edge43" class="edge">
<title>LayoutObj&#45;&gt;Bool</title>
<path fill="none" stroke="black" d="M923.9,-290.15C901.7,-278.73 871.05,-262.95 848.21,-251.2"/>
<polygon fill="black" stroke="black" points="849.75,-248.05 839.26,-246.59 846.55,-254.28 849.75,-248.05"/>
</g>
<!-- Caption -->
<g id="node43" class="node">
<title>Caption</title>
<ellipse fill="none" stroke="#ee0000" cx="1003.74" cy="-234" rx="46.59" ry="18"/>
<text text-anchor="middle" x="1003.74" y="-230.3" font-family="Times,serif" font-size="14.00">Caption</text>
</g>
<!-- LayoutObj&#45;&gt;Caption -->
<g id="edge44" class="edge">
<title>LayoutObj&#45;&gt;Caption</title>
<path fill="none" stroke="black" d="M965.09,-288.05C971.23,-279.63 978.77,-269.28 985.55,-259.97"/>
<polygon fill="black" stroke="black" points="988.45,-261.93 991.51,-251.79 982.8,-257.81 988.45,-261.93"/>
</g>
<!-- Tags&#45;&gt;String -->
<g id="edge48" class="edge">
<title>Tags&#45;&gt;String</title>
<path fill="none" stroke="black" d="M746.33,-144.81C757.28,-125.82 770.82,-94.11 755.74,-72 736.57,-43.87 699.99,-30.67 669.74,-24.48"/>
<polygon fill="black" stroke="black" points="670.22,-21.01 659.75,-22.63 668.95,-27.89 670.22,-21.01"/>
</g>
<!-- Caption&#45;&gt;Spec -->
<g id="edge53" class="edge">
<title>Caption&#45;&gt;Spec</title>
<path fill="none" stroke="black" d="M1039.74,-222.42C1047.93,-220.17 1056.61,-217.9 1064.74,-216 1149.23,-196.3 1249.3,-178.8 1304.32,-169.68"/>
<polygon fill="black" stroke="black" points="1305.08,-173.1 1314.38,-168.02 1303.94,-166.19 1305.08,-173.1"/>
</g>
<!-- Contents -->
<g id="node44" class="node">
<title>Contents</title>
<ellipse fill="none" stroke="#ee0000" cx="1890.74" cy="-234" rx="52.79" ry="18"/>
<text text-anchor="middle" x="1890.74" y="-230.3" font-family="Times,serif" font-size="14.00">Contents</text>
</g>
<!-- Contents&#45;&gt;Spec -->
<g id="edge46" class="edge">
<title>Contents&#45;&gt;Spec</title>
<path fill="none" stroke="black" d="M1852.6,-221.52C1844.76,-219.45 1836.53,-217.48 1828.74,-216 1667.86,-185.32 1473.2,-170.69 1388.53,-165.41"/>
<polygon fill="black" stroke="black" points="1388.71,-161.92 1378.52,-164.8 1388.28,-168.9 1388.71,-161.92"/>
</g>
<!-- Items -->
<g id="node45" class="node">
<title>Items</title>
<ellipse fill="none" stroke="#ee0000" cx="952.74" cy="-378" rx="37.09" ry="18"/>
<text text-anchor="middle" x="952.74" y="-374.3" font-family="Times,serif" font-size="14.00">Items</text>
</g>
<!-- Items&#45;&gt;LayoutObj -->
<g id="edge47" class="edge">
<title>Items&#45;&gt;LayoutObj</title>
<path fill="none" stroke="black" d="M952.74,-359.7C952.74,-351.98 952.74,-342.71 952.74,-334.11"/>
<polygon fill="black" stroke="black" points="956.24,-334.1 952.74,-324.1 949.24,-334.1 956.24,-334.1"/>
</g>
<!-- Depth -->
<g id="node46" class="node">
<title>Depth</title>
<ellipse fill="none" stroke="#ee0000" cx="2443.74" cy="-450" rx="38.99" ry="18"/>
<text text-anchor="middle" x="2443.74" y="-446.3" font-family="Times,serif" font-size="14.00">Depth</text>
</g>
<!-- Int -->
<g id="node47" class="node">
<title>Int</title>
<ellipse fill="none" stroke="black" cx="2443.74" cy="-378" rx="27" ry="18"/>
<text text-anchor="middle" x="2443.74" y="-374.3" font-family="Times,serif" font-size="14.00">Int</text>
</g>
<!-- Depth&#45;&gt;Int -->
<g id="edge49" class="edge">
<title>Depth&#45;&gt;Int</title>
<path fill="none" stroke="black" d="M2443.74,-431.7C2443.74,-423.98 2443.74,-414.71 2443.74,-406.11"/>
<polygon fill="black" stroke="black" points="2447.24,-406.1 2443.74,-396.1 2440.24,-406.1 2447.24,-406.1"/>
</g>
<!-- Width -->
<g id="node48" class="node">
<title>Width</title>
<ellipse fill="none" stroke="#ee0000" cx="2538.74" cy="-450" rx="38.19" ry="18"/>
<text text-anchor="middle" x="2538.74" y="-446.3" font-family="Times,serif" font-size="14.00">Width</text>
</g>
<!-- Float -->
<g id="node49" class="node">
<title>Float</title>
<ellipse fill="none" stroke="black" cx="2588.74" cy="-378" rx="34.39" ry="18"/>
<text text-anchor="middle" x="2588.74" y="-374.3" font-family="Times,serif" font-size="14.00">Float</text>
</g>
<!-- Width&#45;&gt;Float -->
<g id="edge50" class="edge">
<title>Width&#45;&gt;Float</title>
<path fill="none" stroke="black" d="M2550.34,-432.76C2556.59,-424.02 2564.42,-413.05 2571.38,-403.31"/>
<polygon fill="black" stroke="black" points="2574.25,-405.32 2577.21,-395.15 2568.55,-401.25 2574.25,-405.32"/>
</g>
<!-- Height -->
<g id="node50" class="node">
<title>Height</title>
<ellipse fill="none" stroke="#ee0000" cx="2637.74" cy="-450" rx="42.49" ry="18"/>
<text text-anchor="middle" x="2637.74" y="-446.3" font-family="Times,serif" font-size="14.00">Height</text>
</g>
<!-- Height&#45;&gt;Float -->
<g id="edge51" class="edge">
<title>Height&#45;&gt;Float</title>
<path fill="none" stroke="black" d="M2626.13,-432.41C2620.15,-423.87 2612.74,-413.28 2606.1,-403.79"/>
<polygon fill="black" stroke="black" points="2608.88,-401.66 2600.27,-395.47 2603.14,-405.67 2608.88,-401.66"/>
</g>
<!-- Filepath -->
<g id="node51" class="node">
<title>Filepath</title>
<ellipse fill="none" stroke="#ee0000" cx="697.74" cy="-90" rx="49.29" ry="18"/>
<text text-anchor="middle" x="697.74" y="-86.3" font-family="Times,serif" font-size="14.00">Filepath</text>
</g>
<!-- Filepath&#45;&gt;String -->
<g id="edge52" class="edge">
<title>Filepath&#45;&gt;String</title>
<path fill="none" stroke="black" d="M680.27,-73.12C669.96,-63.74 656.75,-51.73 645.39,-41.41"/>
<polygon fill="black" stroke="black" points="647.64,-38.72 637.88,-34.58 642.93,-43.9 647.64,-38.72"/>
</g>
<!-- MathContext -->
<g id="node55" class="node">
<title>MathContext</title>
<ellipse fill="none" stroke="darkviolet" cx="2769.74" cy="-450" rx="71.49" ry="18"/>
<text text-anchor="middle" x="2769.74" y="-446.3" font-family="Times,serif" font-size="14.00">MathContext</text>
</g>
<!-- Latex -->
<g id="node56" class="node">
<title>Latex</title>
<ellipse fill="none" stroke="darkgreen" cx="838.74" cy="-90" rx="36.29" ry="18"/>
<text text-anchor="middle" x="838.74" y="-86.3" font-family="Times,serif" font-size="14.00">Latex</text>
</g>
<!-- Latex&#45;&gt;String -->
<g id="edge58" class="edge">
<title>Latex&#45;&gt;String</title>
<path fill="none" stroke="black" d="M809.7,-79C802.84,-76.68 795.54,-74.23 788.74,-72 745.89,-57.96 696.67,-42.51 662.63,-31.93"/>
<polygon fill="black" stroke="black" points="663.61,-28.57 653.02,-28.95 661.53,-35.26 663.61,-28.57"/>
</g>
<!-- D&#45;&gt;Doc -->
<g id="edge59" class="edge">
<title>D&#45;&gt;Doc</title>
<path fill="none" stroke="black" d="M400.53,-146.15C409.41,-136.6 421.11,-123.99 431.08,-113.25"/>
<polygon fill="black" stroke="black" points="433.74,-115.53 437.98,-105.82 428.61,-110.77 433.74,-115.53"/>
</g>
<!-- Package -->
<g id="node58" class="node">
<title>Package</title>
<ellipse fill="none" stroke="darkviolet" cx="2907.74" cy="-450" rx="48.99" ry="18"/>
<text text-anchor="middle" x="2907.74" y="-446.3" font-family="Times,serif" font-size="14.00">Package</text>
</g>
<!-- Def -->
<g id="node59" class="node">
<title>Def</title>
<ellipse fill="none" stroke="darkviolet" cx="3001.74" cy="-450" rx="27" ry="18"/>
<text text-anchor="middle" x="3001.74" y="-446.3" font-family="Times,serif" font-size="14.00">Def</text>
</g>
<!-- FieldWrap -->
<g id="node60" class="node">
<title>FieldWrap</title>
<ellipse fill="none" stroke="darkviolet" cx="615.74" cy="-234" rx="58.49" ry="18"/>
<text text-anchor="middle" x="615.74" y="-230.3" font-family="Times,serif" font-size="14.00">FieldWrap</text>
</g>
<!-- FieldWrap&#45;&gt;String -->
<g id="edge62" class="edge">
<title>FieldWrap&#45;&gt;String</title>
<path fill="none" stroke="black" d="M633.06,-216.61C642,-206.93 652.01,-193.87 656.74,-180 661.92,-164.86 660.25,-159.61 656.74,-144 652.87,-126.73 645.41,-124.76 639.74,-108 632.89,-87.7 627.96,-63.93 624.85,-46.06"/>
<polygon fill="black" stroke="black" points="628.27,-45.33 623.18,-36.04 621.37,-46.48 628.27,-45.33"/>
</g>
<!-- FieldWrap&#45;&gt;Spec -->
<g id="edge64" class="edge">
<title>FieldWrap&#45;&gt;Spec</title>
<path fill="none" stroke="black" d="M670.13,-227.09C701.32,-223.74 741.22,-219.53 776.74,-216 973.49,-196.45 1208.72,-175.22 1303.3,-166.77"/>
<polygon fill="black" stroke="black" points="1303.68,-170.25 1313.33,-165.88 1303.06,-163.28 1303.68,-170.25"/>
</g>
<!-- FieldWrap&#45;&gt;D -->
<g id="edge65" class="edge">
<title>FieldWrap&#45;&gt;D</title>
<path fill="none" stroke="black" d="M569.81,-222.76C530.26,-213.38 471.95,-198.22 422.74,-180 420.9,-179.32 419.02,-178.57 417.13,-177.79"/>
<polygon fill="black" stroke="black" points="418.37,-174.52 407.8,-173.69 415.55,-180.92 418.37,-174.52"/>
</g>
<!-- FieldWrap&#45;&gt;FieldWrap -->
<g id="edge63" class="edge">
<title>FieldWrap&#45;&gt;FieldWrap</title>
<path fill="none" stroke="black" d="M655.89,-247.17C675.19,-248.8 692.24,-244.41 692.24,-234 692.24,-225.46 680.77,-220.98 665.99,-220.54"/>
<polygon fill="black" stroke="black" points="665.78,-217.04 655.89,-220.83 665.98,-224.04 665.78,-217.04"/>
</g>
<!-- StyleGuide -->
<g id="node61" class="node">
<title>StyleGuide</title>
<ellipse fill="none" stroke="darkviolet" cx="61.74" cy="-90" rx="61.99" ry="18"/>
<text text-anchor="middle" x="61.74" y="-86.3" font-family="Times,serif" font-size="14.00">StyleGuide</text>
</g>
<!-- StyleGuide&#45;&gt;String -->
<g id="edge67" class="edge">
<title>StyleGuide&#45;&gt;String</title>
<path fill="none" stroke="black" d="M111.89,-79.3C126.04,-76.74 141.47,-74.1 155.74,-72 306.8,-49.76 486.64,-31.61 571.62,-23.53"/>
<polygon fill="black" stroke="black" points="572.12,-27 581.75,-22.57 571.46,-20.03 572.12,-27"/>
</g>
<!-- StyleGuide&#45;&gt;StyleGuide -->
<g id="edge66" class="edge">
<title>StyleGuide&#45;&gt;StyleGuide</title>
<path fill="none" stroke="black" d="M104,-103.2C123.96,-104.74 141.49,-100.34 141.49,-90 141.49,-81.44 129.47,-76.95 114,-76.53"/>
<polygon fill="black" stroke="black" points="113.9,-73.03 104,-76.8 114.09,-80.03 113.9,-73.03"/>
</g>
<!-- Format -->
<g id="node62" class="node">
<title>Format</title>
<ellipse fill="none" stroke="darkviolet" cx="3090.74" cy="-450" rx="44.39" ry="18"/>
<text text-anchor="middle" x="3090.74" y="-446.3" font-family="Times,serif" font-size="14.00">Format</text>
</g>
</g>
</svg>
