<?xml version="1.0" encoding="UTF-8" standalone="no"?>
<!DOCTYPE svg PUBLIC "-//W3C//DTD SVG 1.1//EN"
 "http://www.w3.org/Graphics/SVG/1.1/DTD/svg11.dtd">
<!-- Generated by graphviz version 2.43.0 (0)
 -->
<!-- Title: alltypes Pages: 1 -->
<svg width="2962pt" height="476pt"
 viewBox="0.00 0.00 2962.20 476.00" xmlns="http://www.w3.org/2000/svg" xmlns:xlink="http://www.w3.org/1999/xlink">
<g id="graph0" class="graph" transform="scale(1 1) rotate(0) translate(4 472)">
<title>alltypes</title>
<polygon fill="white" stroke="transparent" points="-4,4 -4,-472 2958.2,-472 2958.2,4 -4,4"/>
<!-- TermAbbr -->
<g id="node1" class="node">
<title>TermAbbr</title>
<ellipse fill="none" stroke="#00cdcd" cx="85" cy="-450" rx="57.39" ry="18"/>
<text text-anchor="middle" x="85" y="-446.3" font-family="Times,serif" font-size="14.00">TermAbbr</text>
</g>
<!-- NP -->
<g id="node2" class="node">
<title>NP</title>
<ellipse fill="none" stroke="black" cx="27" cy="-378" rx="27" ry="18"/>
<text text-anchor="middle" x="27" y="-374.3" font-family="Times,serif" font-size="14.00">NP</text>
</g>
<!-- TermAbbr&#45;&gt;NP -->
<g id="edge1" class="edge">
<title>TermAbbr&#45;&gt;NP</title>
<path fill="none" stroke="black" d="M71.25,-432.41C63.72,-423.31 54.26,-411.9 46.02,-401.96"/>
<polygon fill="black" stroke="black" points="48.54,-399.51 39.46,-394.04 43.15,-403.97 48.54,-399.51"/>
</g>
<!-- MaybeString -->
<g id="node3" class="node">
<title>MaybeString</title>
<ellipse fill="none" stroke="black" cx="143" cy="-378" rx="71.49" ry="18"/>
<text text-anchor="middle" x="143" y="-374.3" font-family="Times,serif" font-size="14.00">MaybeString</text>
</g>
<!-- TermAbbr&#45;&gt;MaybeString -->
<g id="edge2" class="edge">
<title>TermAbbr&#45;&gt;MaybeString</title>
<path fill="none" stroke="black" d="M98.75,-432.41C105.79,-423.91 114.52,-413.37 122.36,-403.91"/>
<polygon fill="black" stroke="black" points="125.27,-405.89 128.95,-395.96 119.88,-401.42 125.27,-405.89"/>
</g>
<!-- DomDefn -->
<g id="node4" class="node">
<title>DomDefn</title>
<ellipse fill="none" stroke="#00cdcd" cx="426" cy="-306" rx="53.89" ry="18"/>
<text text-anchor="middle" x="426" y="-302.3" font-family="Times,serif" font-size="14.00">DomDefn</text>
</g>
<!-- UID -->
<g id="node5" class="node">
<title>UID</title>
<ellipse fill="none" stroke="black" cx="602" cy="-234" rx="29.5" ry="18"/>
<text text-anchor="middle" x="602" y="-230.3" font-family="Times,serif" font-size="14.00">UID</text>
</g>
<!-- DomDefn&#45;&gt;UID -->
<g id="edge3" class="edge">
<title>DomDefn&#45;&gt;UID</title>
<path fill="none" stroke="black" d="M460.8,-292.23C488.83,-281.8 529.16,-266.47 564,-252 565.85,-251.23 567.75,-250.43 569.66,-249.61"/>
<polygon fill="black" stroke="black" points="571.42,-252.66 579.18,-245.45 568.61,-246.25 571.42,-252.66"/>
</g>
<!-- Sentence -->
<g id="node6" class="node">
<title>Sentence</title>
<ellipse fill="none" stroke="black" cx="377" cy="-234" rx="53.89" ry="18"/>
<text text-anchor="middle" x="377" y="-230.3" font-family="Times,serif" font-size="14.00">Sentence</text>
</g>
<!-- DomDefn&#45;&gt;Sentence -->
<g id="edge4" class="edge">
<title>DomDefn&#45;&gt;Sentence</title>
<path fill="none" stroke="black" d="M414.39,-288.41C408.49,-279.99 401.21,-269.58 394.64,-260.2"/>
<polygon fill="black" stroke="black" points="397.47,-258.14 388.87,-251.96 391.74,-262.16 397.47,-258.14"/>
</g>
<!-- NodeFamily -->
<g id="node7" class="node">
<title>NodeFamily</title>
<ellipse fill="none" stroke="#00cdcd" cx="602" cy="-306" rx="66.09" ry="18"/>
<text text-anchor="middle" x="602" y="-302.3" font-family="Times,serif" font-size="14.00">NodeFamily</text>
</g>
<!-- NodeFamily&#45;&gt;UID -->
<g id="edge5" class="edge">
<title>NodeFamily&#45;&gt;UID</title>
<path fill="none" stroke="black" d="M602,-287.7C602,-279.98 602,-270.71 602,-262.11"/>
<polygon fill="black" stroke="black" points="605.5,-262.1 602,-252.1 598.5,-262.1 605.5,-262.1"/>
</g>
<!-- Label -->
<g id="node8" class="node">
<title>Label</title>
<ellipse fill="none" stroke="#ee0000" cx="735" cy="-234" rx="36.29" ry="18"/>
<text text-anchor="middle" x="735" y="-230.3" font-family="Times,serif" font-size="14.00">Label</text>
</g>
<!-- NodeFamily&#45;&gt;Label -->
<g id="edge6" class="edge">
<title>NodeFamily&#45;&gt;Label</title>
<path fill="none" stroke="black" d="M631.19,-289.64C652.06,-278.65 680.19,-263.85 701.9,-252.42"/>
<polygon fill="black" stroke="black" points="703.56,-255.5 710.77,-247.75 700.3,-249.31 703.56,-255.5"/>
</g>
<!-- Colour -->
<g id="node9" class="node">
<title>Colour</title>
<ellipse fill="none" stroke="#ee0000" cx="757" cy="-162" rx="41.69" ry="18"/>
<text text-anchor="middle" x="757" y="-158.3" font-family="Times,serif" font-size="14.00">Colour</text>
</g>
<!-- NodeFamily&#45;&gt;Colour -->
<g id="edge7" class="edge">
<title>NodeFamily&#45;&gt;Colour</title>
<path fill="none" stroke="black" d="M617.33,-288.32C634.45,-269.97 663.29,-239.91 690,-216 702.3,-204.99 716.57,-193.53 728.77,-184.1"/>
<polygon fill="black" stroke="black" points="731.03,-186.78 736.84,-177.92 726.77,-181.22 731.03,-186.78"/>
</g>
<!-- String -->
<g id="node11" class="node">
<title>String</title>
<ellipse fill="none" stroke="black" cx="1293" cy="-18" rx="40.09" ry="18"/>
<text text-anchor="middle" x="1293" y="-14.3" font-family="Times,serif" font-size="14.00">String</text>
</g>
<!-- Label&#45;&gt;String -->
<g id="edge11" class="edge">
<title>Label&#45;&gt;String</title>
<path fill="none" stroke="black" d="M755.91,-219.05C803.52,-187.91 924.55,-112.34 1036,-72 1106.08,-46.64 1191.54,-32.05 1244.11,-24.82"/>
<polygon fill="black" stroke="black" points="1244.72,-28.27 1254.17,-23.47 1243.79,-21.33 1244.72,-28.27"/>
</g>
<!-- Spec -->
<g id="node28" class="node">
<title>Spec</title>
<ellipse fill="none" stroke="darkviolet" cx="1006" cy="-162" rx="33.29" ry="18"/>
<text text-anchor="middle" x="1006" y="-158.3" font-family="Times,serif" font-size="14.00">Spec</text>
</g>
<!-- Label&#45;&gt;Spec -->
<g id="edge38" class="edge">
<title>Label&#45;&gt;Spec</title>
<path fill="none" stroke="black" d="M763.37,-222.68C770.39,-220.31 777.92,-217.93 785,-216 861.2,-195.25 883.01,-201.49 959,-180 962.64,-178.97 966.4,-177.8 970.13,-176.57"/>
<polygon fill="black" stroke="black" points="971.56,-179.78 979.87,-173.2 969.27,-173.16 971.56,-179.78"/>
</g>
<!-- Colour&#45;&gt;String -->
<g id="edge10" class="edge">
<title>Colour&#45;&gt;String</title>
<path fill="none" stroke="black" d="M789.83,-150.92C817.16,-141.78 856.55,-126.88 888,-108 909.37,-95.17 908.25,-82.19 931,-72 985.94,-47.39 1157.97,-30.17 1243.59,-22.88"/>
<polygon fill="black" stroke="black" points="1243.91,-26.37 1253.59,-22.05 1243.33,-19.39 1243.91,-26.37"/>
</g>
<!-- GraphInfo -->
<g id="node10" class="node">
<title>GraphInfo</title>
<ellipse fill="none" stroke="#00cdcd" cx="523" cy="-378" rx="57.69" ry="18"/>
<text text-anchor="middle" x="523" y="-374.3" font-family="Times,serif" font-size="14.00">GraphInfo</text>
</g>
<!-- GraphInfo&#45;&gt;UID -->
<g id="edge9" class="edge">
<title>GraphInfo&#45;&gt;UID</title>
<path fill="none" stroke="black" d="M519.52,-359.75C516.64,-340.89 514.76,-310.39 527,-288 536.27,-271.04 553.58,-258.26 569.23,-249.5"/>
<polygon fill="black" stroke="black" points="570.95,-252.55 578.18,-244.81 567.7,-246.35 570.95,-252.55"/>
</g>
<!-- GraphInfo&#45;&gt;NodeFamily -->
<g id="edge8" class="edge">
<title>GraphInfo&#45;&gt;NodeFamily</title>
<path fill="none" stroke="black" d="M541.32,-360.76C551.62,-351.64 564.64,-340.1 575.98,-330.06"/>
<polygon fill="black" stroke="black" points="578.34,-332.64 583.5,-323.39 573.7,-327.4 578.34,-332.64"/>
</g>
<!-- BibFormatter -->
<g id="node12" class="node">
<title>BibFormatter</title>
<ellipse fill="none" stroke="#00cdcd" cx="1720" cy="-162" rx="73.39" ry="18"/>
<text text-anchor="middle" x="1720" y="-158.3" font-family="Times,serif" font-size="14.00">BibFormatter</text>
</g>
<!-- Doc -->
<g id="node13" class="node">
<title>Doc</title>
<ellipse fill="none" stroke="black" cx="2025" cy="-90" rx="28.7" ry="18"/>
<text text-anchor="middle" x="2025" y="-86.3" font-family="Times,serif" font-size="14.00">Doc</text>
</g>
<!-- BibFormatter&#45;&gt;Doc -->
<g id="edge12" class="edge">
<title>BibFormatter&#45;&gt;Doc</title>
<path fill="none" stroke="black" d="M1771.74,-149.13C1833.37,-134.98 1934.74,-111.71 1988.65,-99.34"/>
<polygon fill="black" stroke="black" points="1989.49,-102.74 1998.45,-97.09 1987.92,-95.92 1989.49,-102.74"/>
</g>
<!-- SpecDoc -->
<g id="node14" class="node">
<title>SpecDoc</title>
<ellipse fill="none" stroke="black" cx="1709" cy="-90" rx="50.89" ry="18"/>
<text text-anchor="middle" x="1709" y="-86.3" font-family="Times,serif" font-size="14.00">SpecDoc</text>
</g>
<!-- BibFormatter&#45;&gt;SpecDoc -->
<g id="edge13" class="edge">
<title>BibFormatter&#45;&gt;SpecDoc</title>
<path fill="none" stroke="black" d="M1717.28,-143.7C1716.07,-135.98 1714.61,-126.71 1713.26,-118.11"/>
<polygon fill="black" stroke="black" points="1716.7,-117.44 1711.69,-108.1 1709.78,-118.53 1716.7,-117.44"/>
</g>
<!-- Variation -->
<g id="node15" class="node">
<title>Variation</title>
<ellipse fill="none" stroke="darkviolet" cx="2316" cy="-162" rx="52.79" ry="18"/>
<text text-anchor="middle" x="2316" y="-158.3" font-family="Times,serif" font-size="14.00">Variation</text>
</g>
<!-- Variation&#45;&gt;Doc -->
<g id="edge24" class="edge">
<title>Variation&#45;&gt;Doc</title>
<path fill="none" stroke="black" d="M2275.28,-150.56C2266.61,-148.36 2257.51,-146.09 2249,-144 2182.92,-127.8 2105.67,-109.71 2061.33,-99.41"/>
<polygon fill="black" stroke="black" points="2062.12,-96 2051.58,-97.14 2060.53,-102.81 2062.12,-96"/>
</g>
<!-- td -->
<g id="node20" class="node">
<title>td</title>
<ellipse fill="none" stroke="black" cx="2233" cy="-90" rx="27" ry="18"/>
<text text-anchor="middle" x="2233" y="-86.3" font-family="Times,serif" font-size="14.00">td</text>
</g>
<!-- Variation&#45;&gt;td -->
<g id="edge19" class="edge">
<title>Variation&#45;&gt;td</title>
<path fill="none" stroke="black" d="M2297.17,-145.12C2285.32,-135.12 2269.91,-122.13 2257.17,-111.38"/>
<polygon fill="black" stroke="black" points="2259.14,-108.47 2249.24,-104.7 2254.63,-113.82 2259.14,-108.47"/>
</g>
<!-- figure -->
<g id="node21" class="node">
<title>figure</title>
<ellipse fill="none" stroke="black" cx="2316" cy="-90" rx="38.19" ry="18"/>
<text text-anchor="middle" x="2316" y="-86.3" font-family="Times,serif" font-size="14.00">figure</text>
</g>
<!-- Variation&#45;&gt;figure -->
<g id="edge20" class="edge">
<title>Variation&#45;&gt;figure</title>
<path fill="none" stroke="black" d="M2316,-143.7C2316,-135.98 2316,-126.71 2316,-118.11"/>
<polygon fill="black" stroke="black" points="2319.5,-118.1 2316,-108.1 2312.5,-118.1 2319.5,-118.1"/>
</g>
<!-- li -->
<g id="node22" class="node">
<title>li</title>
<ellipse fill="none" stroke="black" cx="2399" cy="-90" rx="27" ry="18"/>
<text text-anchor="middle" x="2399" y="-86.3" font-family="Times,serif" font-size="14.00">li</text>
</g>
<!-- Variation&#45;&gt;li -->
<g id="edge21" class="edge">
<title>Variation&#45;&gt;li</title>
<path fill="none" stroke="black" d="M2334.83,-145.12C2346.68,-135.12 2362.09,-122.13 2374.83,-111.38"/>
<polygon fill="black" stroke="black" points="2377.37,-113.82 2382.76,-104.7 2372.86,-108.47 2377.37,-113.82"/>
</g>
<!-- pa -->
<g id="node23" class="node">
<title>pa</title>
<ellipse fill="none" stroke="black" cx="2471" cy="-90" rx="27" ry="18"/>
<text text-anchor="middle" x="2471" y="-86.3" font-family="Times,serif" font-size="14.00">pa</text>
</g>
<!-- Variation&#45;&gt;pa -->
<g id="edge22" class="edge">
<title>Variation&#45;&gt;pa</title>
<path fill="none" stroke="black" d="M2347.4,-147.24C2371.45,-136.65 2405.4,-121.58 2435,-108 2436.79,-107.18 2438.63,-106.33 2440.48,-105.47"/>
<polygon fill="black" stroke="black" points="2442.14,-108.56 2449.72,-101.15 2439.18,-102.22 2442.14,-108.56"/>
</g>
<!-- ba -->
<g id="node24" class="node">
<title>ba</title>
<ellipse fill="none" stroke="black" cx="2161" cy="-90" rx="27" ry="18"/>
<text text-anchor="middle" x="2161" y="-86.3" font-family="Times,serif" font-size="14.00">ba</text>
</g>
<!-- Variation&#45;&gt;ba -->
<g id="edge23" class="edge">
<title>Variation&#45;&gt;ba</title>
<path fill="none" stroke="black" d="M2284.6,-147.24C2260.55,-136.65 2226.6,-121.58 2197,-108 2195.21,-107.18 2193.37,-106.33 2191.52,-105.47"/>
<polygon fill="black" stroke="black" points="2192.82,-102.22 2182.28,-101.15 2189.86,-108.56 2192.82,-102.22"/>
</g>
<!-- PrintHTML -->
<g id="node16" class="node">
<title>PrintHTML</title>
<ellipse fill="none" stroke="darkgreen" cx="1841" cy="-90" rx="63.09" ry="18"/>
<text text-anchor="middle" x="1841" y="-86.3" font-family="Times,serif" font-size="14.00">PrintHTML</text>
</g>
<!-- PrintHTML&#45;&gt;String -->
<g id="edge14" class="edge">
<title>PrintHTML&#45;&gt;String</title>
<path fill="none" stroke="black" d="M1795.46,-77.37C1786.72,-75.39 1777.61,-73.49 1769,-72 1614.49,-45.26 1429.31,-29.15 1342.5,-22.53"/>
<polygon fill="black" stroke="black" points="1342.64,-19.03 1332.41,-21.77 1342.12,-26.01 1342.64,-19.03"/>
</g>
<!-- OpenClose -->
<g id="node17" class="node">
<title>OpenClose</title>
<ellipse fill="none" stroke="darkviolet" cx="1610" cy="-450" rx="60.39" ry="18"/>
<text text-anchor="middle" x="1610" y="-446.3" font-family="Times,serif" font-size="14.00">OpenClose</text>
</g>
<!-- OpenClose&#45;&gt;String -->
<g id="edge16" class="edge">
<title>OpenClose&#45;&gt;String</title>
<path fill="none" stroke="black" d="M1604.29,-431.95C1601,-405.29 1601,-352.11 1601,-307 1601,-307 1601,-307 1601,-161 1601,-48 1431.16,-24.34 1343.64,-19.78"/>
<polygon fill="black" stroke="black" points="1343.54,-16.27 1333.4,-19.32 1343.23,-23.27 1343.54,-16.27"/>
</g>
<!-- OpenClose&#45;&gt;String -->
<g id="edge80" class="edge">
<title>OpenClose&#45;&gt;String</title>
<path fill="none" stroke="black" d="M1615.71,-431.95C1619,-405.29 1619,-352.11 1619,-307 1619,-307 1619,-307 1619,-161 1619,-43.42 1435.1,-22.57 1343.46,-19.32"/>
<polygon fill="black" stroke="black" points="1343.39,-15.81 1333.29,-19.01 1343.18,-22.81 1343.39,-15.81"/>
</g>
<!-- OpenClose&#45;&gt;Doc -->
<g id="edge18" class="edge">
<title>OpenClose&#45;&gt;Doc</title>
<path fill="none" stroke="black" d="M1652.83,-437.22C1661.44,-435.2 1670.47,-433.33 1679,-432 1737.43,-422.89 2164.1,-433.29 2210,-396 2241.89,-370.09 2235,-348.09 2235,-307 2235,-307 2235,-307 2235,-233 2235,-150.42 2122.17,-112.61 2061.92,-98.3"/>
<polygon fill="black" stroke="black" points="2062.55,-94.86 2052.02,-96.05 2061,-101.68 2062.55,-94.86"/>
</g>
<!-- PrintingInformation -->
<g id="node18" class="node">
<title>PrintingInformation</title>
<ellipse fill="none" stroke="#00cdcd" cx="1775" cy="-378" rx="103.18" ry="18"/>
<text text-anchor="middle" x="1775" y="-374.3" font-family="Times,serif" font-size="14.00">PrintingInformation</text>
</g>
<!-- OpenClose&#45;&gt;PrintingInformation -->
<g id="edge15" class="edge">
<title>OpenClose&#45;&gt;PrintingInformation</title>
<path fill="none" stroke="black" d="M1643.39,-434.83C1667.82,-424.47 1701.28,-410.28 1728.35,-398.79"/>
<polygon fill="black" stroke="black" points="1729.79,-401.98 1737.63,-394.85 1727.06,-395.54 1729.79,-401.98"/>
</g>
<!-- Document -->
<g id="node19" class="node">
<title>Document</title>
<ellipse fill="none" stroke="darkviolet" cx="1107" cy="-378" rx="57.69" ry="18"/>
<text text-anchor="middle" x="1107" y="-374.3" font-family="Times,serif" font-size="14.00">Document</text>
</g>
<!-- OpenClose&#45;&gt;Document -->
<g id="edge17" class="edge">
<title>OpenClose&#45;&gt;Document</title>
<path fill="none" stroke="black" d="M1552.37,-444.44C1468.41,-437.25 1307.8,-421.42 1173,-396 1168.31,-395.11 1163.45,-394.09 1158.6,-392.98"/>
<polygon fill="black" stroke="black" points="1159.25,-389.54 1148.71,-390.63 1157.63,-396.35 1159.25,-389.54"/>
</g>
<!-- PrintingConfiguration -->
<g id="node26" class="node">
<title>PrintingConfiguration</title>
<ellipse fill="none" stroke="darkgreen" cx="1980" cy="-306" rx="112.38" ry="18"/>
<text text-anchor="middle" x="1980" y="-302.3" font-family="Times,serif" font-size="14.00">PrintingConfiguration</text>
</g>
<!-- PrintingInformation&#45;&gt;PrintingConfiguration -->
<g id="edge76" class="edge">
<title>PrintingInformation&#45;&gt;PrintingConfiguration</title>
<path fill="none" stroke="black" d="M1819.73,-361.72C1850.72,-351.14 1892.17,-336.99 1925.15,-325.73"/>
<polygon fill="black" stroke="black" points="1926.32,-329.03 1934.65,-322.48 1924.06,-322.4 1926.32,-329.03"/>
</g>
<!-- ChunkDB -->
<g id="node66" class="node">
<title>ChunkDB</title>
<ellipse fill="none" stroke="black" cx="1702" cy="-306" rx="54.69" ry="18"/>
<text text-anchor="middle" x="1702" y="-302.3" font-family="Times,serif" font-size="14.00">ChunkDB</text>
</g>
<!-- PrintingInformation&#45;&gt;ChunkDB -->
<g id="edge74" class="edge">
<title>PrintingInformation&#45;&gt;ChunkDB</title>
<path fill="none" stroke="black" d="M1757.33,-360.05C1748.05,-351.16 1736.53,-340.11 1726.41,-330.41"/>
<polygon fill="black" stroke="black" points="1728.65,-327.7 1719.01,-323.31 1723.8,-332.75 1728.65,-327.7"/>
</g>
<!-- Stage -->
<g id="node67" class="node">
<title>Stage</title>
<ellipse fill="none" stroke="black" cx="1812" cy="-306" rx="37.89" ry="18"/>
<text text-anchor="middle" x="1812" y="-302.3" font-family="Times,serif" font-size="14.00">Stage</text>
</g>
<!-- PrintingInformation&#45;&gt;Stage -->
<g id="edge75" class="edge">
<title>PrintingInformation&#45;&gt;Stage</title>
<path fill="none" stroke="black" d="M1783.96,-360.05C1788.27,-351.89 1793.55,-341.91 1798.35,-332.82"/>
<polygon fill="black" stroke="black" points="1801.55,-334.27 1803.13,-323.79 1795.36,-330.99 1801.55,-334.27"/>
</g>
<!-- Title -->
<g id="node40" class="node">
<title>Title</title>
<ellipse fill="none" stroke="#ee0000" cx="1083" cy="-306" rx="31.7" ry="18"/>
<text text-anchor="middle" x="1083" y="-302.3" font-family="Times,serif" font-size="14.00">Title</text>
</g>
<!-- Document&#45;&gt;Title -->
<g id="edge47" class="edge">
<title>Document&#45;&gt;Title</title>
<path fill="none" stroke="black" d="M1101.19,-360.05C1098.45,-352.06 1095.11,-342.33 1092.05,-333.4"/>
<polygon fill="black" stroke="black" points="1095.31,-332.11 1088.76,-323.79 1088.69,-334.38 1095.31,-332.11"/>
</g>
<!-- Author -->
<g id="node48" class="node">
<title>Author</title>
<ellipse fill="none" stroke="#ee0000" cx="991" cy="-306" rx="42.49" ry="18"/>
<text text-anchor="middle" x="991" y="-302.3" font-family="Times,serif" font-size="14.00">Author</text>
</g>
<!-- Document&#45;&gt;Author -->
<g id="edge48" class="edge">
<title>Document&#45;&gt;Author</title>
<path fill="none" stroke="black" d="M1081.54,-361.64C1064.35,-351.26 1041.51,-337.48 1023.08,-326.36"/>
<polygon fill="black" stroke="black" points="1024.79,-323.31 1014.42,-321.14 1021.18,-329.3 1024.79,-323.31"/>
</g>
<!-- LayoutObj -->
<g id="node49" class="node">
<title>LayoutObj</title>
<ellipse fill="none" stroke="darkviolet" cx="1287" cy="-306" rx="58.49" ry="18"/>
<text text-anchor="middle" x="1287" y="-302.3" font-family="Times,serif" font-size="14.00">LayoutObj</text>
</g>
<!-- Document&#45;&gt;LayoutObj -->
<g id="edge49" class="edge">
<title>Document&#45;&gt;LayoutObj</title>
<path fill="none" stroke="black" d="M1141.71,-363.5C1170.5,-352.31 1211.62,-336.31 1242.77,-324.2"/>
<polygon fill="black" stroke="black" points="1244.04,-327.46 1252.09,-320.57 1241.51,-320.94 1244.04,-327.46"/>
</g>
<!-- SingleLine -->
<g id="node25" class="node">
<title>SingleLine</title>
<ellipse fill="none" stroke="darkviolet" cx="1980" cy="-378" rx="59.59" ry="18"/>
<text text-anchor="middle" x="1980" y="-374.3" font-family="Times,serif" font-size="14.00">SingleLine</text>
</g>
<!-- SingleLine&#45;&gt;PrintingConfiguration -->
<g id="edge25" class="edge">
<title>SingleLine&#45;&gt;PrintingConfiguration</title>
<path fill="none" stroke="black" d="M1980,-359.7C1980,-351.98 1980,-342.71 1980,-334.11"/>
<polygon fill="black" stroke="black" points="1983.5,-334.1 1980,-324.1 1976.5,-334.1 1983.5,-334.1"/>
</g>
<!-- Notation -->
<g id="node68" class="node">
<title>Notation</title>
<ellipse fill="none" stroke="darkviolet" cx="1759" cy="-234" rx="51.19" ry="18"/>
<text text-anchor="middle" x="1759" y="-230.3" font-family="Times,serif" font-size="14.00">Notation</text>
</g>
<!-- PrintingConfiguration&#45;&gt;Notation -->
<g id="edge77" class="edge">
<title>PrintingConfiguration&#45;&gt;Notation</title>
<path fill="none" stroke="black" d="M1931.77,-289.72C1894.23,-277.83 1842.45,-261.43 1805.39,-249.69"/>
<polygon fill="black" stroke="black" points="1806.41,-246.35 1795.82,-246.66 1804.3,-253.02 1806.41,-246.35"/>
</g>
<!-- LinkType -->
<g id="node27" class="node">
<title>LinkType</title>
<ellipse fill="none" stroke="darkviolet" cx="880" cy="-234" rx="53.09" ry="18"/>
<text text-anchor="middle" x="880" y="-230.3" font-family="Times,serif" font-size="14.00">LinkType</text>
</g>
<!-- LinkType&#45;&gt;Spec -->
<g id="edge26" class="edge">
<title>LinkType&#45;&gt;Spec</title>
<path fill="none" stroke="black" d="M906.41,-218.33C926.28,-207.29 953.57,-192.13 974.56,-180.47"/>
<polygon fill="black" stroke="black" points="976.38,-183.46 983.42,-175.55 972.98,-177.34 976.38,-183.46"/>
</g>
<!-- Expr -->
<g id="node34" class="node">
<title>Expr</title>
<ellipse fill="none" stroke="darkviolet" cx="828" cy="-90" rx="33.29" ry="18"/>
<text text-anchor="middle" x="828" y="-86.3" font-family="Times,serif" font-size="14.00">Expr</text>
</g>
<!-- Spec&#45;&gt;Expr -->
<g id="edge31" class="edge">
<title>Spec&#45;&gt;Expr</title>
<path fill="none" stroke="black" d="M979.74,-150.67C949.02,-138.59 898.01,-118.53 863.71,-105.05"/>
<polygon fill="black" stroke="black" points="864.67,-101.66 854.08,-101.26 862.11,-108.17 864.67,-101.66"/>
</g>
<!-- Ops -->
<g id="node29" class="node">
<title>Ops</title>
<ellipse fill="none" stroke="darkviolet" cx="1717" cy="-450" rx="28.7" ry="18"/>
<text text-anchor="middle" x="1717" y="-446.3" font-family="Times,serif" font-size="14.00">Ops</text>
</g>
<!-- Fence -->
<g id="node30" class="node">
<title>Fence</title>
<ellipse fill="none" stroke="darkviolet" cx="1802" cy="-450" rx="38.19" ry="18"/>
<text text-anchor="middle" x="1802" y="-446.3" font-family="Times,serif" font-size="14.00">Fence</text>
</g>
<!-- OverSymb -->
<g id="node31" class="node">
<title>OverSymb</title>
<ellipse fill="none" stroke="darkviolet" cx="1918" cy="-450" rx="59.59" ry="18"/>
<text text-anchor="middle" x="1918" y="-446.3" font-family="Times,serif" font-size="14.00">OverSymb</text>
</g>
<!-- Fonts -->
<g id="node32" class="node">
<title>Fonts</title>
<ellipse fill="none" stroke="darkviolet" cx="2032" cy="-450" rx="36.29" ry="18"/>
<text text-anchor="middle" x="2032" y="-446.3" font-family="Times,serif" font-size="14.00">Fonts</text>
</g>
<!-- Spacing -->
<g id="node33" class="node">
<title>Spacing</title>
<ellipse fill="none" stroke="darkviolet" cx="2134" cy="-450" rx="48.19" ry="18"/>
<text text-anchor="middle" x="2134" y="-446.3" font-family="Times,serif" font-size="14.00">Spacing</text>
</g>
<!-- Expr&#45;&gt;String -->
<g id="edge29" class="edge">
<title>Expr&#45;&gt;String</title>
<path fill="none" stroke="black" d="M856.62,-80.7C867.89,-77.64 880.98,-74.36 893,-72 1018.23,-47.43 1167.8,-30.99 1243.64,-23.55"/>
<polygon fill="black" stroke="black" points="1244.23,-27.01 1253.84,-22.56 1243.55,-20.04 1244.23,-27.01"/>
</g>
<!-- Expr&#45;&gt;Expr -->
<g id="edge30" class="edge">
<title>Expr&#45;&gt;Expr</title>
<path fill="none" stroke="black" d="M851.68,-102.66C865.83,-105.47 879.15,-101.25 879.15,-90 879.15,-81.56 871.65,-77.08 861.94,-76.55"/>
<polygon fill="black" stroke="black" points="861.38,-73.09 851.68,-77.34 861.91,-80.06 861.38,-73.09"/>
</g>
<!-- Double -->
<g id="node35" class="node">
<title>Double</title>
<ellipse fill="none" stroke="black" cx="775" cy="-18" rx="43.59" ry="18"/>
<text text-anchor="middle" x="775" y="-14.3" font-family="Times,serif" font-size="14.00">Double</text>
</g>
<!-- Expr&#45;&gt;Double -->
<g id="edge27" class="edge">
<title>Expr&#45;&gt;Double</title>
<path fill="none" stroke="black" d="M815.97,-73.12C809.36,-64.38 801.01,-53.35 793.58,-43.54"/>
<polygon fill="black" stroke="black" points="796.17,-41.17 787.35,-35.31 790.59,-45.39 796.17,-41.17"/>
</g>
<!-- Integer -->
<g id="node36" class="node">
<title>Integer</title>
<ellipse fill="none" stroke="black" cx="881" cy="-18" rx="44.69" ry="18"/>
<text text-anchor="middle" x="881" y="-14.3" font-family="Times,serif" font-size="14.00">Integer</text>
</g>
<!-- Expr&#45;&gt;Integer -->
<g id="edge28" class="edge">
<title>Expr&#45;&gt;Integer</title>
<path fill="none" stroke="black" d="M840.03,-73.12C846.64,-64.38 854.99,-53.35 862.42,-43.54"/>
<polygon fill="black" stroke="black" points="865.41,-45.39 868.65,-35.31 859.83,-41.17 865.41,-45.39"/>
</g>
<!-- ListType -->
<g id="node37" class="node">
<title>ListType</title>
<ellipse fill="none" stroke="darkviolet" cx="680" cy="-378" rx="50.89" ry="18"/>
<text text-anchor="middle" x="680" y="-374.3" font-family="Times,serif" font-size="14.00">ListType</text>
</g>
<!-- ListType&#45;&gt;Label -->
<g id="edge34" class="edge">
<title>ListType&#45;&gt;Label</title>
<path fill="none" stroke="black" d="M686.63,-359.87C696.14,-335.33 713.72,-289.94 724.86,-261.17"/>
<polygon fill="black" stroke="black" points="728.16,-262.34 728.51,-251.75 721.64,-259.81 728.16,-262.34"/>
</g>
<!-- ItemType -->
<g id="node38" class="node">
<title>ItemType</title>
<ellipse fill="none" stroke="darkviolet" cx="680" cy="-450" rx="54.69" ry="18"/>
<text text-anchor="middle" x="680" y="-446.3" font-family="Times,serif" font-size="14.00">ItemType</text>
</g>
<!-- ListType&#45;&gt;ItemType -->
<g id="edge32" class="edge">
<title>ListType&#45;&gt;ItemType</title>
<path fill="none" stroke="black" d="M685.91,-396.28C686.71,-404.03 686.94,-413.36 686.59,-422.01"/>
<polygon fill="black" stroke="black" points="683.09,-421.83 685.88,-432.05 690.08,-422.33 683.09,-421.83"/>
</g>
<!-- Maybe -->
<g id="node39" class="node">
<title>Maybe</title>
<ellipse fill="none" stroke="black" cx="312" cy="-306" rx="42.49" ry="18"/>
<text text-anchor="middle" x="312" y="-302.3" font-family="Times,serif" font-size="14.00">Maybe</text>
</g>
<!-- ListType&#45;&gt;Maybe -->
<g id="edge33" class="edge">
<title>ListType&#45;&gt;Maybe</title>
<path fill="none" stroke="black" d="M636.56,-368.53C621.8,-365.72 605.2,-362.64 590,-360 489.36,-342.52 462.23,-348.23 363,-324 359.63,-323.18 356.17,-322.24 352.71,-321.23"/>
<polygon fill="black" stroke="black" points="353.64,-317.85 343.05,-318.25 351.58,-324.54 353.64,-317.85"/>
</g>
<!-- ListType&#45;&gt;Title -->
<g id="edge35" class="edge">
<title>ListType&#45;&gt;Title</title>
<path fill="none" stroke="black" d="M726.78,-370.81C817.74,-358.68 1012.15,-332.24 1042,-324 1044.47,-323.32 1046.99,-322.53 1049.51,-321.67"/>
<polygon fill="black" stroke="black" points="1050.93,-324.87 1059.07,-318.08 1048.48,-318.31 1050.93,-324.87"/>
</g>
<!-- ItemType&#45;&gt;Spec -->
<g id="edge36" class="edge">
<title>ItemType&#45;&gt;Spec</title>
<path fill="none" stroke="black" d="M630.69,-441.98C529.4,-426.4 303.8,-385.43 261,-324 251.85,-310.87 256.01,-303.2 261,-288 273.4,-250.25 279.22,-235.21 314,-216 410.36,-162.8 698.28,-188.71 808,-180 861.51,-175.75 923.12,-170.39 963.21,-166.83"/>
<polygon fill="black" stroke="black" points="963.78,-170.3 973.43,-165.93 963.16,-163.33 963.78,-170.3"/>
</g>
<!-- ItemType&#45;&gt;ListType -->
<g id="edge37" class="edge">
<title>ItemType&#45;&gt;ListType</title>
<path fill="none" stroke="black" d="M674.12,-432.05C673.3,-424.35 673.06,-415.03 673.39,-406.36"/>
<polygon fill="black" stroke="black" points="676.89,-406.49 674.09,-396.28 669.91,-406.01 676.89,-406.49"/>
</g>
<!-- Title&#45;&gt;Spec -->
<g id="edge39" class="edge">
<title>Title&#45;&gt;Spec</title>
<path fill="none" stroke="black" d="M1073,-288.42C1066.81,-278.03 1058.78,-264.33 1052,-252 1040.39,-230.91 1027.9,-206.62 1018.86,-188.75"/>
<polygon fill="black" stroke="black" points="1021.85,-186.9 1014.22,-179.54 1015.59,-190.05 1021.85,-186.9"/>
</g>
<!-- Citation -->
<g id="node41" class="node">
<title>Citation</title>
<ellipse fill="none" stroke="darkviolet" cx="2159" cy="-306" rx="48.19" ry="18"/>
<text text-anchor="middle" x="2159" y="-302.3" font-family="Times,serif" font-size="14.00">Citation</text>
</g>
<!-- EntryID -->
<g id="node42" class="node">
<title>EntryID</title>
<ellipse fill="none" stroke="black" cx="2159" cy="-234" rx="48.19" ry="18"/>
<text text-anchor="middle" x="2159" y="-230.3" font-family="Times,serif" font-size="14.00">EntryID</text>
</g>
<!-- Citation&#45;&gt;EntryID -->
<g id="edge40" class="edge">
<title>Citation&#45;&gt;EntryID</title>
<path fill="none" stroke="black" d="M2159,-287.7C2159,-279.98 2159,-270.71 2159,-262.11"/>
<polygon fill="black" stroke="black" points="2162.5,-262.1 2159,-252.1 2155.5,-262.1 2162.5,-262.1"/>
</g>
<!-- CitationKind -->
<g id="node43" class="node">
<title>CitationKind</title>
<ellipse fill="none" stroke="black" cx="2023" cy="-234" rx="69.59" ry="18"/>
<text text-anchor="middle" x="2023" y="-230.3" font-family="Times,serif" font-size="14.00">CitationKind</text>
</g>
<!-- Citation&#45;&gt;CitationKind -->
<g id="edge41" class="edge">
<title>Citation&#45;&gt;CitationKind</title>
<path fill="none" stroke="black" d="M2131.81,-291C2111.78,-280.69 2084.25,-266.53 2061.9,-255.02"/>
<polygon fill="black" stroke="black" points="2063.48,-251.9 2052.98,-250.43 2060.27,-258.12 2063.48,-251.9"/>
</g>
<!-- CiteField -->
<g id="node44" class="node">
<title>CiteField</title>
<ellipse fill="none" stroke="darkviolet" cx="1882" cy="-234" rx="53.09" ry="18"/>
<text text-anchor="middle" x="1882" y="-230.3" font-family="Times,serif" font-size="14.00">CiteField</text>
</g>
<!-- Citation&#45;&gt;CiteField -->
<g id="edge42" class="edge">
<title>Citation&#45;&gt;CiteField</title>
<path fill="none" stroke="black" d="M2122.89,-294.06C2115.66,-291.97 2108.11,-289.85 2101,-288 2031.73,-269.92 2013.42,-269.47 1944,-252 1939.92,-250.97 1935.7,-249.88 1931.46,-248.76"/>
<polygon fill="black" stroke="black" points="1932.19,-245.33 1921.62,-246.13 1930.38,-252.1 1932.19,-245.33"/>
</g>
<!-- CiteField&#45;&gt;Spec -->
<g id="edge43" class="edge">
<title>CiteField&#45;&gt;Spec</title>
<path fill="none" stroke="black" d="M1843.96,-221.38C1835.8,-219.26 1827.16,-217.32 1819,-216 1536.42,-170.47 1461.36,-202.25 1176,-180 1132.45,-176.61 1082.75,-171.49 1048.39,-167.76"/>
<polygon fill="black" stroke="black" points="1048.56,-164.26 1038.24,-166.65 1047.8,-171.21 1048.56,-164.26"/>
</g>
<!-- People -->
<g id="node45" class="node">
<title>People</title>
<ellipse fill="none" stroke="black" cx="1925" cy="-162" rx="41.69" ry="18"/>
<text text-anchor="middle" x="1925" y="-158.3" font-family="Times,serif" font-size="14.00">People</text>
</g>
<!-- CiteField&#45;&gt;People -->
<g id="edge44" class="edge">
<title>CiteField&#45;&gt;People</title>
<path fill="none" stroke="black" d="M1892.41,-216.05C1897.48,-207.8 1903.68,-197.7 1909.31,-188.54"/>
<polygon fill="black" stroke="black" points="1912.43,-190.14 1914.69,-179.79 1906.47,-186.48 1912.43,-190.14"/>
</g>
<!-- HP -->
<g id="node46" class="node">
<title>HP</title>
<ellipse fill="none" stroke="darkviolet" cx="978" cy="-234" rx="27" ry="18"/>
<text text-anchor="middle" x="978" y="-230.3" font-family="Times,serif" font-size="14.00">HP</text>
</g>
<!-- HP&#45;&gt;Spec -->
<g id="edge45" class="edge">
<title>HP&#45;&gt;Spec</title>
<path fill="none" stroke="black" d="M984.64,-216.41C987.87,-208.34 991.83,-198.43 995.46,-189.35"/>
<polygon fill="black" stroke="black" points="998.75,-190.54 999.22,-179.96 992.25,-187.94 998.75,-190.54"/>
</g>
<!-- BibRef -->
<g id="node47" class="node">
<title>BibRef</title>
<ellipse fill="none" stroke="#ee0000" cx="2159" cy="-378" rx="42.49" ry="18"/>
<text text-anchor="middle" x="2159" y="-374.3" font-family="Times,serif" font-size="14.00">BibRef</text>
</g>
<!-- BibRef&#45;&gt;Citation -->
<g id="edge46" class="edge">
<title>BibRef&#45;&gt;Citation</title>
<path fill="none" stroke="black" d="M2159,-359.7C2159,-351.98 2159,-342.71 2159,-334.11"/>
<polygon fill="black" stroke="black" points="2162.5,-334.1 2159,-324.1 2155.5,-334.1 2162.5,-334.1"/>
</g>
<!-- Author&#45;&gt;Spec -->
<g id="edge63" class="edge">
<title>Author&#45;&gt;Spec</title>
<path fill="none" stroke="black" d="M958.59,-294.26C952.11,-292.15 945.35,-289.98 939,-288 885.44,-271.28 851.54,-296.98 818,-252 808.43,-239.17 808.18,-228.64 818,-216 857.68,-164.92 897.18,-199.02 959,-180 962.52,-178.92 966.17,-177.72 969.81,-176.49"/>
<polygon fill="black" stroke="black" points="971.03,-179.77 979.31,-173.16 968.71,-173.16 971.03,-179.77"/>
</g>
<!-- LayoutObj&#45;&gt;Label -->
<g id="edge60" class="edge">
<title>LayoutObj&#45;&gt;Label</title>
<path fill="none" stroke="black" d="M1245.04,-293.27C1236.79,-291.27 1228.16,-289.39 1220,-288 1043.17,-257.85 995.48,-278.04 818,-252 804.68,-250.05 790.27,-247.32 777.26,-244.61"/>
<polygon fill="black" stroke="black" points="777.68,-241.13 767.17,-242.47 776.23,-247.97 777.68,-241.13"/>
</g>
<!-- LayoutObj&#45;&gt;Spec -->
<g id="edge59" class="edge">
<title>LayoutObj&#45;&gt;Spec</title>
<path fill="none" stroke="black" d="M1248.03,-292.56C1222.42,-283.42 1188.82,-269.56 1162,-252 1142.54,-239.26 1143.33,-228.95 1124,-216 1098.75,-199.08 1067.21,-185.24 1043.1,-175.95"/>
<polygon fill="black" stroke="black" points="1044.18,-172.61 1033.59,-172.37 1041.71,-179.17 1044.18,-172.61"/>
</g>
<!-- Tags -->
<g id="node55" class="node">
<title>Tags</title>
<ellipse fill="none" stroke="#ee0000" cx="1424" cy="-162" rx="32.49" ry="18"/>
<text text-anchor="middle" x="1424" y="-158.3" font-family="Times,serif" font-size="14.00">Tags</text>
</g>
<!-- LayoutObj&#45;&gt;Tags -->
<g id="edge58" class="edge">
<title>LayoutObj&#45;&gt;Tags</title>
<path fill="none" stroke="black" d="M1309.51,-289.27C1323.06,-279.31 1340.28,-265.76 1354,-252 1374.13,-231.81 1393.92,-205.93 1407.29,-187.29"/>
<polygon fill="black" stroke="black" points="1410.22,-189.21 1413.14,-179.03 1404.51,-185.17 1410.22,-189.21"/>
</g>
<!-- Bool -->
<g id="node56" class="node">
<title>Bool</title>
<ellipse fill="none" stroke="black" cx="1314" cy="-234" rx="31.4" ry="18"/>
<text text-anchor="middle" x="1314" y="-230.3" font-family="Times,serif" font-size="14.00">Bool</text>
</g>
<!-- LayoutObj&#45;&gt;Bool -->
<g id="edge61" class="edge">
<title>LayoutObj&#45;&gt;Bool</title>
<path fill="none" stroke="black" d="M1293.54,-288.05C1296.62,-280.06 1300.37,-270.33 1303.82,-261.4"/>
<polygon fill="black" stroke="black" points="1307.19,-262.38 1307.52,-251.79 1300.66,-259.86 1307.19,-262.38"/>
</g>
<!-- Caption -->
<g id="node57" class="node">
<title>Caption</title>
<ellipse fill="none" stroke="#ee0000" cx="1218" cy="-234" rx="46.59" ry="18"/>
<text text-anchor="middle" x="1218" y="-230.3" font-family="Times,serif" font-size="14.00">Caption</text>
</g>
<!-- LayoutObj&#45;&gt;Caption -->
<g id="edge62" class="edge">
<title>LayoutObj&#45;&gt;Caption</title>
<path fill="none" stroke="black" d="M1270.65,-288.41C1261.76,-279.39 1250.62,-268.09 1240.88,-258.21"/>
<polygon fill="black" stroke="black" points="1243.27,-255.65 1233.76,-250.99 1238.29,-260.57 1243.27,-255.65"/>
</g>
<!-- Project -->
<g id="node50" class="node">
<title>Project</title>
<ellipse fill="none" stroke="darkviolet" cx="1002" cy="-450" rx="44.39" ry="18"/>
<text text-anchor="middle" x="1002" y="-446.3" font-family="Times,serif" font-size="14.00">Project</text>
</g>
<!-- Project&#45;&gt;Title -->
<g id="edge50" class="edge">
<title>Project&#45;&gt;Title</title>
<path fill="none" stroke="black" d="M1007.68,-431.92C1014.18,-413.49 1025.77,-383.6 1040,-360 1046.28,-349.59 1054.43,-339.01 1061.94,-330.07"/>
<polygon fill="black" stroke="black" points="1064.71,-332.23 1068.6,-322.37 1059.41,-327.65 1064.71,-332.23"/>
</g>
<!-- Project&#45;&gt;Author -->
<g id="edge51" class="edge">
<title>Project&#45;&gt;Author</title>
<path fill="none" stroke="black" d="M1000.67,-431.87C998.8,-407.67 995.35,-363.21 993.12,-334.39"/>
<polygon fill="black" stroke="black" points="996.59,-333.89 992.33,-324.19 989.61,-334.43 996.59,-333.89"/>
</g>
<!-- RefMap -->
<g id="node51" class="node">
<title>RefMap</title>
<ellipse fill="none" stroke="#ee0000" cx="864" cy="-378" rx="46.59" ry="18"/>
<text text-anchor="middle" x="864" y="-374.3" font-family="Times,serif" font-size="14.00">RefMap</text>
</g>
<!-- Project&#45;&gt;RefMap -->
<g id="edge52" class="edge">
<title>Project&#45;&gt;RefMap</title>
<path fill="none" stroke="black" d="M975.39,-435.5C954.1,-424.7 924,-409.44 900.46,-397.5"/>
<polygon fill="black" stroke="black" points="901.97,-394.34 891.47,-392.93 898.81,-400.58 901.97,-394.34"/>
</g>
<!-- File -->
<g id="node52" class="node">
<title>File</title>
<ellipse fill="none" stroke="darkviolet" cx="1211" cy="-378" rx="28.7" ry="18"/>
<text text-anchor="middle" x="1211" y="-374.3" font-family="Times,serif" font-size="14.00">File</text>
</g>
<!-- Project&#45;&gt;File -->
<g id="edge53" class="edge">
<title>Project&#45;&gt;File</title>
<path fill="none" stroke="black" d="M1038.04,-439.39C1073.17,-429.67 1127.88,-413.61 1174,-396 1175.83,-395.3 1177.7,-394.55 1179.58,-393.77"/>
<polygon fill="black" stroke="black" points="1181.12,-396.92 1188.9,-389.73 1178.33,-390.5 1181.12,-396.92"/>
</g>
<!-- MapStringFilename -->
<g id="node65" class="node">
<title>MapStringFilename</title>
<ellipse fill="none" stroke="black" cx="827" cy="-306" rx="103.18" ry="18"/>
<text text-anchor="middle" x="827" y="-302.3" font-family="Times,serif" font-size="14.00">MapStringFilename</text>
</g>
<!-- RefMap&#45;&gt;MapStringFilename -->
<g id="edge73" class="edge">
<title>RefMap&#45;&gt;MapStringFilename</title>
<path fill="none" stroke="black" d="M855.04,-360.05C850.79,-352.01 845.61,-342.2 840.86,-333.23"/>
<polygon fill="black" stroke="black" points="843.9,-331.48 836.13,-324.28 837.71,-334.75 843.9,-331.48"/>
</g>
<!-- File&#45;&gt;Title -->
<g id="edge54" class="edge">
<title>File&#45;&gt;Title</title>
<path fill="none" stroke="black" d="M1190.15,-365.6C1169.51,-354.31 1137.67,-336.9 1114.05,-323.98"/>
<polygon fill="black" stroke="black" points="1115.58,-320.83 1105.13,-319.1 1112.22,-326.97 1115.58,-320.83"/>
</g>
<!-- File&#45;&gt;LayoutObj -->
<g id="edge57" class="edge">
<title>File&#45;&gt;LayoutObj</title>
<path fill="none" stroke="black" d="M1226.75,-362.5C1236.85,-353.19 1250.19,-340.9 1261.76,-330.25"/>
<polygon fill="black" stroke="black" points="1264.43,-332.55 1269.41,-323.2 1259.69,-327.4 1264.43,-332.55"/>
</g>
<!-- Filename -->
<g id="node53" class="node">
<title>Filename</title>
<ellipse fill="none" stroke="#ee0000" cx="1239" cy="-162" rx="53.89" ry="18"/>
<text text-anchor="middle" x="1239" y="-158.3" font-family="Times,serif" font-size="14.00">Filename</text>
</g>
<!-- File&#45;&gt;Filename -->
<g id="edge55" class="edge">
<title>File&#45;&gt;Filename</title>
<path fill="none" stroke="black" d="M1233.36,-366.59C1238.46,-364.33 1243.89,-362.01 1249,-360 1294.9,-341.91 1325.33,-364.14 1354,-324 1381.9,-284.94 1379.88,-256.42 1354,-216 1340.67,-195.18 1316.87,-182.43 1294.36,-174.67"/>
<polygon fill="black" stroke="black" points="1295.42,-171.33 1284.83,-171.64 1293.3,-178 1295.42,-171.33"/>
</g>
<!-- Depth -->
<g id="node54" class="node">
<title>Depth</title>
<ellipse fill="none" stroke="#ee0000" cx="1172" cy="-306" rx="38.99" ry="18"/>
<text text-anchor="middle" x="1172" y="-302.3" font-family="Times,serif" font-size="14.00">Depth</text>
</g>
<!-- File&#45;&gt;Depth -->
<g id="edge56" class="edge">
<title>File&#45;&gt;Depth</title>
<path fill="none" stroke="black" d="M1201.95,-360.76C1197.3,-352.4 1191.51,-342.02 1186.27,-332.61"/>
<polygon fill="black" stroke="black" points="1189.19,-330.67 1181.27,-323.63 1183.08,-334.07 1189.19,-330.67"/>
</g>
<!-- Filename&#45;&gt;String -->
<g id="edge71" class="edge">
<title>Filename&#45;&gt;String</title>
<path fill="none" stroke="black" d="M1218.38,-145.25C1207.72,-135.77 1195.76,-122.7 1190,-108 1184.17,-93.1 1181.67,-85.66 1190,-72 1202.72,-51.16 1226.54,-38.16 1248.07,-30.26"/>
<polygon fill="black" stroke="black" points="1249.41,-33.5 1257.75,-26.98 1247.16,-26.87 1249.41,-33.5"/>
</g>
<!-- Int -->
<g id="node60" class="node">
<title>Int</title>
<ellipse fill="none" stroke="black" cx="1088" cy="-234" rx="27" ry="18"/>
<text text-anchor="middle" x="1088" y="-230.3" font-family="Times,serif" font-size="14.00">Int</text>
</g>
<!-- Depth&#45;&gt;Int -->
<g id="edge67" class="edge">
<title>Depth&#45;&gt;Int</title>
<path fill="none" stroke="black" d="M1153.77,-289.81C1141.55,-279.62 1125.31,-266.09 1112.03,-255.02"/>
<polygon fill="black" stroke="black" points="1114.13,-252.22 1104.2,-248.5 1109.65,-257.59 1114.13,-252.22"/>
</g>
<!-- Tags&#45;&gt;String -->
<g id="edge66" class="edge">
<title>Tags&#45;&gt;String</title>
<path fill="none" stroke="black" d="M1433.57,-144.67C1443.39,-125.54 1455.25,-93.71 1440,-72 1418.24,-41.02 1376.51,-28.07 1343.06,-22.69"/>
<polygon fill="black" stroke="black" points="1343.37,-19.2 1332.98,-21.26 1342.38,-26.13 1343.37,-19.2"/>
</g>
<!-- Caption&#45;&gt;Spec -->
<g id="edge72" class="edge">
<title>Caption&#45;&gt;Spec</title>
<path fill="none" stroke="black" d="M1183.47,-221.6C1144.96,-208.88 1082.9,-188.39 1043.31,-175.32"/>
<polygon fill="black" stroke="black" points="1044.35,-171.98 1033.75,-172.16 1042.15,-178.62 1044.35,-171.98"/>
</g>
<!-- Contents -->
<g id="node58" class="node">
<title>Contents</title>
<ellipse fill="none" stroke="#ee0000" cx="502" cy="-234" rx="52.79" ry="18"/>
<text text-anchor="middle" x="502" y="-230.3" font-family="Times,serif" font-size="14.00">Contents</text>
</g>
<!-- Contents&#45;&gt;Spec -->
<g id="edge64" class="edge">
<title>Contents&#45;&gt;Spec</title>
<path fill="none" stroke="black" d="M540.15,-221.58C547.99,-219.51 556.22,-217.52 564,-216 708.99,-187.59 883.91,-172.06 963.21,-166.01"/>
<polygon fill="black" stroke="black" points="963.59,-169.49 973.3,-165.25 963.07,-162.51 963.59,-169.49"/>
</g>
<!-- Items -->
<g id="node59" class="node">
<title>Items</title>
<ellipse fill="none" stroke="#ee0000" cx="1295" cy="-378" rx="37.09" ry="18"/>
<text text-anchor="middle" x="1295" y="-374.3" font-family="Times,serif" font-size="14.00">Items</text>
</g>
<!-- Items&#45;&gt;LayoutObj -->
<g id="edge65" class="edge">
<title>Items&#45;&gt;LayoutObj</title>
<path fill="none" stroke="black" d="M1293.02,-359.7C1292.14,-351.98 1291.08,-342.71 1290.1,-334.11"/>
<polygon fill="black" stroke="black" points="1293.57,-333.64 1288.95,-324.1 1286.61,-334.44 1293.57,-333.64"/>
</g>
<!-- Width -->
<g id="node61" class="node">
<title>Width</title>
<ellipse fill="none" stroke="#ee0000" cx="2238" cy="-450" rx="38.19" ry="18"/>
<text text-anchor="middle" x="2238" y="-446.3" font-family="Times,serif" font-size="14.00">Width</text>
</g>
<!-- Float -->
<g id="node62" class="node">
<title>Float</title>
<ellipse fill="none" stroke="black" cx="2317" cy="-378" rx="34.39" ry="18"/>
<text text-anchor="middle" x="2317" y="-374.3" font-family="Times,serif" font-size="14.00">Float</text>
</g>
<!-- Width&#45;&gt;Float -->
<g id="edge68" class="edge">
<title>Width&#45;&gt;Float</title>
<path fill="none" stroke="black" d="M2255.14,-433.81C2266.09,-424.11 2280.45,-411.39 2292.57,-400.64"/>
<polygon fill="black" stroke="black" points="2295,-403.17 2300.16,-393.92 2290.36,-397.93 2295,-403.17"/>
</g>
<!-- Height -->
<g id="node63" class="node">
<title>Height</title>
<ellipse fill="none" stroke="#ee0000" cx="2337" cy="-450" rx="42.49" ry="18"/>
<text text-anchor="middle" x="2337" y="-446.3" font-family="Times,serif" font-size="14.00">Height</text>
</g>
<!-- Height&#45;&gt;Float -->
<g id="edge69" class="edge">
<title>Height&#45;&gt;Float</title>
<path fill="none" stroke="black" d="M2332.16,-432.05C2329.93,-424.26 2327.23,-414.82 2324.74,-406.08"/>
<polygon fill="black" stroke="black" points="2328.05,-404.93 2321.94,-396.28 2321.32,-406.85 2328.05,-404.93"/>
</g>
<!-- Filepath -->
<g id="node64" class="node">
<title>Filepath</title>
<ellipse fill="none" stroke="#ee0000" cx="1094" cy="-90" rx="49.29" ry="18"/>
<text text-anchor="middle" x="1094" y="-86.3" font-family="Times,serif" font-size="14.00">Filepath</text>
</g>
<!-- Filepath&#45;&gt;String -->
<g id="edge70" class="edge">
<title>Filepath&#45;&gt;String</title>
<path fill="none" stroke="black" d="M1128.21,-76.97C1162.64,-64.85 1215.76,-46.17 1252.33,-33.31"/>
<polygon fill="black" stroke="black" points="1253.9,-36.46 1262.17,-29.84 1251.58,-29.86 1253.9,-36.46"/>
</g>
<!-- MathContext -->
<g id="node69" class="node">
<title>MathContext</title>
<ellipse fill="none" stroke="darkviolet" cx="2469" cy="-450" rx="71.49" ry="18"/>
<text text-anchor="middle" x="2469" y="-446.3" font-family="Times,serif" font-size="14.00">MathContext</text>
</g>
<!-- Latex -->
<g id="node70" class="node">
<title>Latex</title>
<ellipse fill="none" stroke="darkgreen" cx="1235" cy="-90" rx="36.29" ry="18"/>
<text text-anchor="middle" x="1235" y="-86.3" font-family="Times,serif" font-size="14.00">Latex</text>
</g>
<!-- Latex&#45;&gt;String -->
<g id="edge78" class="edge">
<title>Latex&#45;&gt;String</title>
<path fill="none" stroke="black" d="M1248.16,-73.12C1255.47,-64.29 1264.72,-53.13 1272.92,-43.24"/>
<polygon fill="black" stroke="black" points="1275.8,-45.24 1279.49,-35.31 1270.41,-40.77 1275.8,-45.24"/>
</g>
<!-- D -->
<g id="node71" class="node">
<title>D</title>
<ellipse fill="none" stroke="#ee0000" cx="1838" cy="-162" rx="27" ry="18"/>
<text text-anchor="middle" x="1838" y="-158.3" font-family="Times,serif" font-size="14.00">D</text>
</g>
<!-- D&#45;&gt;Doc -->
<g id="edge79" class="edge">
<title>D&#45;&gt;Doc</title>
<path fill="none" stroke="black" d="M1859.16,-150.56C1863.99,-148.3 1869.14,-145.99 1874,-144 1913.14,-127.94 1959.15,-112.23 1990,-102.14"/>
<polygon fill="black" stroke="black" points="1991.42,-105.36 1999.85,-98.94 1989.26,-98.7 1991.42,-105.36"/>
</g>
<!-- Package -->
<g id="node72" class="node">
<title>Package</title>
<ellipse fill="none" stroke="darkviolet" cx="2607" cy="-450" rx="48.99" ry="18"/>
<text text-anchor="middle" x="2607" y="-446.3" font-family="Times,serif" font-size="14.00">Package</text>
</g>
<!-- Def -->
<g id="node73" class="node">
<title>Def</title>
<ellipse fill="none" stroke="darkviolet" cx="2701" cy="-450" rx="27" ry="18"/>
<text text-anchor="middle" x="2701" y="-446.3" font-family="Times,serif" font-size="14.00">Def</text>
</g>
<!-- FieldWrap -->
<g id="node74" class="node">
<title>FieldWrap</title>
<ellipse fill="none" stroke="darkviolet" cx="1497" cy="-234" rx="58.49" ry="18"/>
<text text-anchor="middle" x="1497" y="-230.3" font-family="Times,serif" font-size="14.00">FieldWrap</text>
</g>
<!-- FieldWrap&#45;&gt;String -->
<g id="edge81" class="edge">
<title>FieldWrap&#45;&gt;String</title>
<path fill="none" stroke="black" d="M1497.94,-215.93C1498.77,-183.52 1495.79,-112.66 1458,-72 1428.42,-40.17 1379.7,-27.39 1342.85,-22.29"/>
<polygon fill="black" stroke="black" points="1343.15,-18.8 1332.8,-21.05 1342.29,-25.75 1343.15,-18.8"/>
</g>
<!-- FieldWrap&#45;&gt;Spec -->
<g id="edge83" class="edge">
<title>FieldWrap&#45;&gt;Spec</title>
<path fill="none" stroke="black" d="M1444.92,-225.58C1346.99,-211.61 1137.23,-181.71 1047.8,-168.96"/>
<polygon fill="black" stroke="black" points="1048.15,-165.47 1037.75,-167.53 1047.16,-172.4 1048.15,-165.47"/>
</g>
<!-- FieldWrap&#45;&gt;D -->
<g id="edge84" class="edge">
<title>FieldWrap&#45;&gt;D</title>
<path fill="none" stroke="black" d="M1552.33,-227.91C1614.26,-221.18 1717.07,-206.89 1802,-180 1803.93,-179.39 1805.88,-178.7 1807.84,-177.95"/>
<polygon fill="black" stroke="black" points="1809.61,-181 1817.44,-173.87 1806.87,-174.56 1809.61,-181"/>
</g>
<!-- FieldWrap&#45;&gt;FieldWrap -->
<g id="edge82" class="edge">
<title>FieldWrap&#45;&gt;FieldWrap</title>
<path fill="none" stroke="black" d="M1537.14,-247.17C1556.45,-248.8 1573.49,-244.41 1573.49,-234 1573.49,-225.46 1562.03,-220.98 1547.25,-220.54"/>
<polygon fill="black" stroke="black" points="1547.04,-217.04 1537.14,-220.83 1547.24,-224.04 1547.04,-217.04"/>
</g>
<!-- StyleGuide -->
<g id="node75" class="node">
<title>StyleGuide</title>
<ellipse fill="none" stroke="darkviolet" cx="1351" cy="-90" rx="61.99" ry="18"/>
<text text-anchor="middle" x="1351" y="-86.3" font-family="Times,serif" font-size="14.00">StyleGuide</text>
</g>
<!-- StyleGuide&#45;&gt;String -->
<g id="edge86" class="edge">
<title>StyleGuide&#45;&gt;String</title>
<path fill="none" stroke="black" d="M1337.25,-72.41C1330.03,-63.69 1321.04,-52.85 1313.06,-43.21"/>
<polygon fill="black" stroke="black" points="1315.72,-40.94 1306.65,-35.47 1310.33,-45.4 1315.72,-40.94"/>
</g>
<!-- StyleGuide&#45;&gt;StyleGuide -->
<g id="edge85" class="edge">
<title>StyleGuide&#45;&gt;StyleGuide</title>
<path fill="none" stroke="black" d="M1393.26,-103.2C1413.22,-104.74 1430.74,-100.34 1430.74,-90 1430.74,-81.44 1418.72,-76.95 1403.25,-76.53"/>
<polygon fill="black" stroke="black" points="1403.16,-73.03 1393.26,-76.8 1403.34,-80.03 1403.16,-73.03"/>
</g>
<!-- DocType -->
<g id="node76" class="node">
<title>DocType</title>
<ellipse fill="none" stroke="darkviolet" cx="2797" cy="-450" rx="50.89" ry="18"/>
<text text-anchor="middle" x="2797" y="-446.3" font-family="Times,serif" font-size="14.00">DocType</text>
</g>
<!-- Format -->
<g id="node77" class="node">
<title>Format</title>
<ellipse fill="none" stroke="darkviolet" cx="2910" cy="-450" rx="44.39" ry="18"/>
<text text-anchor="middle" x="2910" y="-446.3" font-family="Times,serif" font-size="14.00">Format</text>
</g>
</g>
</svg>
