<?xml version="1.0" encoding="UTF-8" standalone="no"?>
<!DOCTYPE svg PUBLIC "-//W3C//DTD SVG 1.1//EN"
 "http://www.w3.org/Graphics/SVG/1.1/DTD/svg11.dtd">
<!-- Generated by graphviz version 2.43.0 (0)
 -->
<!-- Title: alltypes Pages: 1 -->
<svg width="2725pt" height="476pt"
 viewBox="0.00 0.00 2725.20 476.00" xmlns="http://www.w3.org/2000/svg" xmlns:xlink="http://www.w3.org/1999/xlink">
<g id="graph0" class="graph" transform="scale(1 1) rotate(0) translate(4 472)">
<title>alltypes</title>
<polygon fill="white" stroke="transparent" points="-4,4 -4,-472 2721.2,-472 2721.2,4 -4,4"/>
<!-- NodeFamily -->
<g id="node1" class="node">
<title>NodeFamily</title>
<ellipse fill="none" stroke="#00cdcd" cx="1206" cy="-306" rx="66.09" ry="18"/>
<text text-anchor="middle" x="1206" y="-302.3" font-family="Times,serif" font-size="14.00">NodeFamily</text>
</g>
<!-- UID -->
<g id="node2" class="node">
<title>UID</title>
<ellipse fill="none" stroke="black" cx="1290" cy="-234" rx="29.5" ry="18"/>
<text text-anchor="middle" x="1290" y="-230.3" font-family="Times,serif" font-size="14.00">UID</text>
</g>
<!-- NodeFamily&#45;&gt;UID -->
<g id="edge1" class="edge">
<title>NodeFamily&#45;&gt;UID</title>
<path fill="none" stroke="black" d="M1225.48,-288.76C1237.33,-278.89 1252.57,-266.19 1265.27,-255.61"/>
<polygon fill="black" stroke="black" points="1267.74,-258.11 1273.18,-249.02 1263.26,-252.73 1267.74,-258.11"/>
</g>
<!-- Label -->
<g id="node3" class="node">
<title>Label</title>
<ellipse fill="none" stroke="#ee0000" cx="1050" cy="-234" rx="36.29" ry="18"/>
<text text-anchor="middle" x="1050" y="-230.3" font-family="Times,serif" font-size="14.00">Label</text>
</g>
<!-- NodeFamily&#45;&gt;Label -->
<g id="edge2" class="edge">
<title>NodeFamily&#45;&gt;Label</title>
<path fill="none" stroke="black" d="M1173.3,-290.33C1147.52,-278.76 1111.63,-262.65 1085.22,-250.8"/>
<polygon fill="black" stroke="black" points="1086.51,-247.55 1075.95,-246.65 1083.65,-253.93 1086.51,-247.55"/>
</g>
<!-- Colour -->
<g id="node4" class="node">
<title>Colour</title>
<ellipse fill="none" stroke="#ee0000" cx="1267" cy="-162" rx="41.69" ry="18"/>
<text text-anchor="middle" x="1267" y="-158.3" font-family="Times,serif" font-size="14.00">Colour</text>
</g>
<!-- NodeFamily&#45;&gt;Colour -->
<g id="edge3" class="edge">
<title>NodeFamily&#45;&gt;Colour</title>
<path fill="none" stroke="black" d="M1213.36,-287.87C1223.9,-263.33 1243.4,-217.94 1255.76,-189.17"/>
<polygon fill="black" stroke="black" points="1259.07,-190.32 1259.81,-179.75 1252.64,-187.55 1259.07,-190.32"/>
</g>
<!-- String -->
<g id="node6" class="node">
<title>String</title>
<ellipse fill="none" stroke="black" cx="1347" cy="-18" rx="40.09" ry="18"/>
<text text-anchor="middle" x="1347" y="-14.3" font-family="Times,serif" font-size="14.00">String</text>
</g>
<!-- Label&#45;&gt;String -->
<g id="edge7" class="edge">
<title>Label&#45;&gt;String</title>
<path fill="none" stroke="black" d="M1053.94,-215.9C1062.48,-182.78 1085.94,-109.83 1134,-72 1180.77,-35.19 1249.75,-23.56 1296.44,-20.1"/>
<polygon fill="black" stroke="black" points="1296.87,-23.58 1306.63,-19.44 1296.43,-16.59 1296.87,-23.58"/>
</g>
<!-- Spec -->
<g id="node22" class="node">
<title>Spec</title>
<ellipse fill="none" stroke="darkviolet" cx="753" cy="-162" rx="33.29" ry="18"/>
<text text-anchor="middle" x="753" y="-158.3" font-family="Times,serif" font-size="14.00">Spec</text>
</g>
<!-- Label&#45;&gt;Spec -->
<g id="edge35" class="edge">
<title>Label&#45;&gt;Spec</title>
<path fill="none" stroke="black" d="M1022.62,-221.89C1016.86,-219.77 1010.77,-217.69 1005,-216 932.08,-194.7 844.95,-178.32 794.59,-169.72"/>
<polygon fill="black" stroke="black" points="794.86,-166.22 784.42,-168.01 793.7,-173.12 794.86,-166.22"/>
</g>
<!-- Colour&#45;&gt;String -->
<g id="edge6" class="edge">
<title>Colour&#45;&gt;String</title>
<path fill="none" stroke="black" d="M1276.33,-144.43C1290.17,-119.88 1316.24,-73.6 1332.55,-44.65"/>
<polygon fill="black" stroke="black" points="1335.62,-46.33 1337.48,-35.9 1329.52,-42.9 1335.62,-46.33"/>
</g>
<!-- GraphInfo -->
<g id="node5" class="node">
<title>GraphInfo</title>
<ellipse fill="none" stroke="#00cdcd" cx="1233" cy="-378" rx="57.69" ry="18"/>
<text text-anchor="middle" x="1233" y="-374.3" font-family="Times,serif" font-size="14.00">GraphInfo</text>
</g>
<!-- GraphInfo&#45;&gt;NodeFamily -->
<g id="edge4" class="edge">
<title>GraphInfo&#45;&gt;NodeFamily</title>
<path fill="none" stroke="black" d="M1226.46,-360.05C1223.43,-352.18 1219.74,-342.62 1216.33,-333.79"/>
<polygon fill="black" stroke="black" points="1219.53,-332.35 1212.66,-324.28 1213,-334.86 1219.53,-332.35"/>
</g>
<!-- GraphInfo&#45;&gt;UID -->
<g id="edge5" class="edge">
<title>GraphInfo&#45;&gt;UID</title>
<path fill="none" stroke="black" d="M1252.65,-360.94C1262.92,-351.36 1274.65,-338.29 1281,-324 1289.61,-304.64 1291.6,-280.63 1291.58,-262.43"/>
<polygon fill="black" stroke="black" points="1295.07,-262.13 1291.36,-252.2 1288.07,-262.28 1295.07,-262.13"/>
</g>
<!-- Variation -->
<g id="node7" class="node">
<title>Variation</title>
<ellipse fill="none" stroke="darkviolet" cx="2143" cy="-162" rx="52.79" ry="18"/>
<text text-anchor="middle" x="2143" y="-158.3" font-family="Times,serif" font-size="14.00">Variation</text>
</g>
<!-- Variation&#45;&gt;String -->
<g id="edge8" class="edge">
<title>Variation&#45;&gt;String</title>
<path fill="none" stroke="black" d="M2094.78,-154.63C2011.21,-143.35 1846.03,-119.94 1822,-108 1801.16,-97.65 1805.05,-81.9 1784,-72 1716.37,-40.2 1497.01,-26.05 1397.24,-21.15"/>
<polygon fill="black" stroke="black" points="1397.26,-17.65 1387.11,-20.66 1396.93,-24.64 1397.26,-17.65"/>
</g>
<!-- Doc -->
<g id="node8" class="node">
<title>Doc</title>
<ellipse fill="none" stroke="black" cx="1746" cy="-90" rx="28.7" ry="18"/>
<text text-anchor="middle" x="1746" y="-86.3" font-family="Times,serif" font-size="14.00">Doc</text>
</g>
<!-- Variation&#45;&gt;Doc -->
<g id="edge9" class="edge">
<title>Variation&#45;&gt;Doc</title>
<path fill="none" stroke="black" d="M2093.62,-155.66C2008.38,-145.61 1837.69,-123.5 1780,-108 1778.35,-107.56 1776.67,-107.07 1774.99,-106.55"/>
<polygon fill="black" stroke="black" points="1776.1,-103.22 1765.5,-103.27 1773.81,-109.84 1776.1,-103.22"/>
</g>
<!-- Variation&#45;&gt;Doc -->
<g id="edge20" class="edge">
<title>Variation&#45;&gt;Doc</title>
<path fill="none" stroke="black" d="M2094.83,-154.47C2013.66,-143.95 1853.51,-122.92 1798,-108 1792.34,-106.48 1786.41,-104.44 1780.61,-102.31"/>
<polygon fill="black" stroke="black" points="1781.65,-98.96 1771.06,-98.7 1779.18,-105.51 1781.65,-98.96"/>
</g>
<!-- td -->
<g id="node13" class="node">
<title>td</title>
<ellipse fill="none" stroke="black" cx="2324" cy="-90" rx="27" ry="18"/>
<text text-anchor="middle" x="2324" y="-86.3" font-family="Times,serif" font-size="14.00">td</text>
</g>
<!-- Variation&#45;&gt;td -->
<g id="edge15" class="edge">
<title>Variation&#45;&gt;td</title>
<path fill="none" stroke="black" d="M2179.1,-148.83C2208.65,-138.62 2251.4,-123.29 2288,-108 2289.82,-107.24 2291.68,-106.44 2293.55,-105.62"/>
<polygon fill="black" stroke="black" points="2295.17,-108.72 2302.82,-101.39 2292.27,-102.35 2295.17,-108.72"/>
</g>
<!-- figure -->
<g id="node14" class="node">
<title>figure</title>
<ellipse fill="none" stroke="black" cx="2407" cy="-90" rx="38.19" ry="18"/>
<text text-anchor="middle" x="2407" y="-86.3" font-family="Times,serif" font-size="14.00">figure</text>
</g>
<!-- Variation&#45;&gt;figure -->
<g id="edge16" class="edge">
<title>Variation&#45;&gt;figure</title>
<path fill="none" stroke="black" d="M2186.6,-151.8C2230.68,-142.16 2300.6,-125.94 2360,-108 2362.76,-107.17 2365.6,-106.26 2368.45,-105.32"/>
<polygon fill="black" stroke="black" points="2369.76,-108.57 2378.08,-102.01 2367.49,-101.95 2369.76,-108.57"/>
</g>
<!-- li -->
<g id="node15" class="node">
<title>li</title>
<ellipse fill="none" stroke="black" cx="1858" cy="-90" rx="27" ry="18"/>
<text text-anchor="middle" x="1858" y="-86.3" font-family="Times,serif" font-size="14.00">li</text>
</g>
<!-- Variation&#45;&gt;li -->
<g id="edge17" class="edge">
<title>Variation&#45;&gt;li</title>
<path fill="none" stroke="black" d="M2095.32,-154.22C2044.54,-146.22 1962.26,-131.03 1894,-108 1892.08,-107.35 1890.14,-106.63 1888.19,-105.86"/>
<polygon fill="black" stroke="black" points="1889.17,-102.47 1878.6,-101.73 1886.4,-108.9 1889.17,-102.47"/>
</g>
<!-- pa -->
<g id="node16" class="node">
<title>pa</title>
<ellipse fill="none" stroke="black" cx="2180" cy="-90" rx="27" ry="18"/>
<text text-anchor="middle" x="2180" y="-86.3" font-family="Times,serif" font-size="14.00">pa</text>
</g>
<!-- Variation&#45;&gt;pa -->
<g id="edge18" class="edge">
<title>Variation&#45;&gt;pa</title>
<path fill="none" stroke="black" d="M2151.96,-144.05C2156.34,-135.77 2161.7,-125.62 2166.56,-116.42"/>
<polygon fill="black" stroke="black" points="2169.8,-117.78 2171.38,-107.31 2163.61,-114.51 2169.8,-117.78"/>
</g>
<!-- ba -->
<g id="node17" class="node">
<title>ba</title>
<ellipse fill="none" stroke="black" cx="2252" cy="-90" rx="27" ry="18"/>
<text text-anchor="middle" x="2252" y="-86.3" font-family="Times,serif" font-size="14.00">ba</text>
</g>
<!-- Variation&#45;&gt;ba -->
<g id="edge19" class="edge">
<title>Variation&#45;&gt;ba</title>
<path fill="none" stroke="black" d="M2166.65,-145.81C2183.61,-134.92 2206.5,-120.22 2224.31,-108.78"/>
<polygon fill="black" stroke="black" points="2226.58,-111.49 2233.1,-103.14 2222.8,-105.6 2226.58,-111.49"/>
</g>
<!-- PrintHTML -->
<g id="node9" class="node">
<title>PrintHTML</title>
<ellipse fill="none" stroke="darkgreen" cx="1218" cy="-90" rx="63.09" ry="18"/>
<text text-anchor="middle" x="1218" y="-86.3" font-family="Times,serif" font-size="14.00">PrintHTML</text>
</g>
<!-- PrintHTML&#45;&gt;String -->
<g id="edge10" class="edge">
<title>PrintHTML&#45;&gt;String</title>
<path fill="none" stroke="black" d="M1245.99,-73.81C1265.74,-63.09 1292.31,-48.68 1313.23,-37.32"/>
<polygon fill="black" stroke="black" points="1315,-40.35 1322.12,-32.5 1311.66,-34.2 1315,-40.35"/>
</g>
<!-- OpenClose -->
<g id="node10" class="node">
<title>OpenClose</title>
<ellipse fill="none" stroke="darkviolet" cx="1130" cy="-450" rx="60.39" ry="18"/>
<text text-anchor="middle" x="1130" y="-446.3" font-family="Times,serif" font-size="14.00">OpenClose</text>
</g>
<!-- OpenClose&#45;&gt;String -->
<g id="edge12" class="edge">
<title>OpenClose&#45;&gt;String</title>
<path fill="none" stroke="black" d="M1185.73,-442.7C1221.71,-436.16 1267.67,-422.88 1300,-396 1334.4,-367.4 1347,-351.73 1347,-307 1347,-307 1347,-307 1347,-161 1347,-121 1347,-74.65 1347,-46.08"/>
<polygon fill="black" stroke="black" points="1350.5,-46.05 1347,-36.05 1343.5,-46.05 1350.5,-46.05"/>
</g>
<!-- OpenClose&#45;&gt;Doc -->
<g id="edge14" class="edge">
<title>OpenClose&#45;&gt;Doc</title>
<path fill="none" stroke="black" d="M1190.24,-448.19C1280.48,-445.64 1455.37,-435.5 1598,-396 1746.74,-354.81 1830.5,-381.8 1914,-252 1966.61,-170.21 1810.31,-185.65 1803,-180 1781.66,-163.52 1766.03,-136.64 1756.6,-116.72"/>
<polygon fill="black" stroke="black" points="1759.77,-115.25 1752.46,-107.58 1753.4,-118.13 1759.77,-115.25"/>
</g>
<!-- PrintingInformation -->
<g id="node11" class="node">
<title>PrintingInformation</title>
<ellipse fill="none" stroke="#00cdcd" cx="364" cy="-378" rx="103.18" ry="18"/>
<text text-anchor="middle" x="364" y="-374.3" font-family="Times,serif" font-size="14.00">PrintingInformation</text>
</g>
<!-- OpenClose&#45;&gt;PrintingInformation -->
<g id="edge11" class="edge">
<title>OpenClose&#45;&gt;PrintingInformation</title>
<path fill="none" stroke="black" d="M1072.39,-444.52C963.59,-435.94 720.43,-416.25 516,-396 496.99,-394.12 476.65,-391.95 457.24,-389.81"/>
<polygon fill="black" stroke="black" points="457.51,-386.31 447.19,-388.69 456.74,-393.27 457.51,-386.31"/>
</g>
<!-- Document -->
<g id="node12" class="node">
<title>Document</title>
<ellipse fill="none" stroke="darkviolet" cx="859" cy="-378" rx="57.69" ry="18"/>
<text text-anchor="middle" x="859" y="-374.3" font-family="Times,serif" font-size="14.00">Document</text>
</g>
<!-- OpenClose&#45;&gt;Document -->
<g id="edge13" class="edge">
<title>OpenClose&#45;&gt;Document</title>
<path fill="none" stroke="black" d="M1085.86,-437.6C1038.33,-425.32 962.74,-405.8 912.02,-392.7"/>
<polygon fill="black" stroke="black" points="912.79,-389.28 902.23,-390.17 911.04,-396.06 912.79,-389.28"/>
</g>
<!-- Expr -->
<g id="node28" class="node">
<title>Expr</title>
<ellipse fill="none" stroke="darkviolet" cx="753" cy="-90" rx="33.29" ry="18"/>
<text text-anchor="middle" x="753" y="-86.3" font-family="Times,serif" font-size="14.00">Expr</text>
</g>
<!-- OpenClose&#45;&gt;Expr -->
<g id="edge67" class="edge">
<title>OpenClose&#45;&gt;Expr</title>
<path fill="none" stroke="black" d="M1069.68,-448.69C859.49,-447.23 167.2,-439.17 78,-396 30.66,-373.09 0,-359.6 0,-307 0,-307 0,-307 0,-233 0,-160.26 549.68,-108.16 709.75,-94.53"/>
<polygon fill="black" stroke="black" points="710.49,-97.98 720.16,-93.65 709.9,-91 710.49,-97.98"/>
</g>
<!-- D -->
<g id="node60" class="node">
<title>D</title>
<ellipse fill="none" stroke="#ee0000" cx="1971" cy="-162" rx="27" ry="18"/>
<text text-anchor="middle" x="1971" y="-158.3" font-family="Times,serif" font-size="14.00">D</text>
</g>
<!-- OpenClose&#45;&gt;D -->
<g id="edge68" class="edge">
<title>OpenClose&#45;&gt;D</title>
<path fill="none" stroke="black" d="M1188.81,-445.43C1375.63,-434.08 1943.58,-399.29 1947,-396 2003.08,-342 1988.71,-238.45 1977.89,-189.67"/>
<polygon fill="black" stroke="black" points="1981.28,-188.8 1975.59,-179.86 1974.46,-190.39 1981.28,-188.8"/>
</g>
<!-- PrintingConfiguration -->
<g id="node20" class="node">
<title>PrintingConfiguration</title>
<ellipse fill="none" stroke="darkgreen" cx="140" cy="-306" rx="112.38" ry="18"/>
<text text-anchor="middle" x="140" y="-302.3" font-family="Times,serif" font-size="14.00">PrintingConfiguration</text>
</g>
<!-- PrintingInformation&#45;&gt;PrintingConfiguration -->
<g id="edge63" class="edge">
<title>PrintingInformation&#45;&gt;PrintingConfiguration</title>
<path fill="none" stroke="black" d="M315.95,-361.98C281.49,-351.22 234.89,-336.65 198.3,-325.22"/>
<polygon fill="black" stroke="black" points="199.34,-321.88 188.75,-322.23 197.25,-328.56 199.34,-321.88"/>
</g>
<!-- ChunkDB -->
<g id="node55" class="node">
<title>ChunkDB</title>
<ellipse fill="none" stroke="black" cx="325" cy="-306" rx="54.69" ry="18"/>
<text text-anchor="middle" x="325" y="-302.3" font-family="Times,serif" font-size="14.00">ChunkDB</text>
</g>
<!-- PrintingInformation&#45;&gt;ChunkDB -->
<g id="edge61" class="edge">
<title>PrintingInformation&#45;&gt;ChunkDB</title>
<path fill="none" stroke="black" d="M354.56,-360.05C349.96,-351.8 344.33,-341.7 339.23,-332.54"/>
<polygon fill="black" stroke="black" points="342.28,-330.82 334.35,-323.79 336.16,-334.23 342.28,-330.82"/>
</g>
<!-- Stage -->
<g id="node56" class="node">
<title>Stage</title>
<ellipse fill="none" stroke="black" cx="435" cy="-306" rx="37.89" ry="18"/>
<text text-anchor="middle" x="435" y="-302.3" font-family="Times,serif" font-size="14.00">Stage</text>
</g>
<!-- PrintingInformation&#45;&gt;Stage -->
<g id="edge62" class="edge">
<title>PrintingInformation&#45;&gt;Stage</title>
<path fill="none" stroke="black" d="M381.19,-360.05C390.34,-351.03 401.74,-339.79 411.68,-329.99"/>
<polygon fill="black" stroke="black" points="414.28,-332.34 418.94,-322.83 409.37,-327.36 414.28,-332.34"/>
</g>
<!-- Title -->
<g id="node34" class="node">
<title>Title</title>
<ellipse fill="none" stroke="#ee0000" cx="580" cy="-234" rx="31.7" ry="18"/>
<text text-anchor="middle" x="580" y="-230.3" font-family="Times,serif" font-size="14.00">Title</text>
</g>
<!-- Document&#45;&gt;Title -->
<g id="edge44" class="edge">
<title>Document&#45;&gt;Title</title>
<path fill="none" stroke="black" d="M830.01,-362.42C808.91,-351.8 779.67,-337.04 754,-324 704.37,-298.78 646.88,-269.33 612,-251.43"/>
<polygon fill="black" stroke="black" points="613.28,-248.15 602.78,-246.7 610.08,-254.38 613.28,-248.15"/>
</g>
<!-- Author -->
<g id="node42" class="node">
<title>Author</title>
<ellipse fill="none" stroke="#ee0000" cx="805" cy="-306" rx="42.49" ry="18"/>
<text text-anchor="middle" x="805" y="-302.3" font-family="Times,serif" font-size="14.00">Author</text>
</g>
<!-- Document&#45;&gt;Author -->
<g id="edge45" class="edge">
<title>Document&#45;&gt;Author</title>
<path fill="none" stroke="black" d="M846.2,-360.41C839.54,-351.78 831.28,-341.06 823.9,-331.5"/>
<polygon fill="black" stroke="black" points="826.58,-329.25 817.71,-323.47 821.04,-333.53 826.58,-329.25"/>
</g>
<!-- LayoutObj -->
<g id="node43" class="node">
<title>LayoutObj</title>
<ellipse fill="none" stroke="darkviolet" cx="1025" cy="-306" rx="58.49" ry="18"/>
<text text-anchor="middle" x="1025" y="-302.3" font-family="Times,serif" font-size="14.00">LayoutObj</text>
</g>
<!-- Document&#45;&gt;LayoutObj -->
<g id="edge46" class="edge">
<title>Document&#45;&gt;LayoutObj</title>
<path fill="none" stroke="black" d="M891.8,-363.17C917.86,-352.18 954.5,-336.73 982.75,-324.81"/>
<polygon fill="black" stroke="black" points="984.13,-328.03 991.99,-320.92 981.41,-321.58 984.13,-328.03"/>
</g>
<!-- Seperator -->
<g id="node18" class="node">
<title>Seperator</title>
<ellipse fill="none" stroke="#ee0000" cx="1869" cy="-162" rx="57.39" ry="18"/>
<text text-anchor="middle" x="1869" y="-158.3" font-family="Times,serif" font-size="14.00">Seperator</text>
</g>
<!-- Seperator&#45;&gt;Doc -->
<g id="edge21" class="edge">
<title>Seperator&#45;&gt;Doc</title>
<path fill="none" stroke="black" d="M1842.61,-145.98C1822.9,-134.77 1795.95,-119.43 1775.53,-107.8"/>
<polygon fill="black" stroke="black" points="1777.07,-104.66 1766.65,-102.75 1773.61,-110.74 1777.07,-104.66"/>
</g>
<!-- Linearity -->
<g id="node19" class="node">
<title>Linearity</title>
<ellipse fill="none" stroke="darkviolet" cx="140" cy="-378" rx="52.79" ry="18"/>
<text text-anchor="middle" x="140" y="-374.3" font-family="Times,serif" font-size="14.00">Linearity</text>
</g>
<!-- Linearity&#45;&gt;PrintingConfiguration -->
<g id="edge22" class="edge">
<title>Linearity&#45;&gt;PrintingConfiguration</title>
<path fill="none" stroke="black" d="M140,-359.7C140,-351.98 140,-342.71 140,-334.11"/>
<polygon fill="black" stroke="black" points="143.5,-334.1 140,-324.1 136.5,-334.1 143.5,-334.1"/>
</g>
<!-- Notation -->
<g id="node57" class="node">
<title>Notation</title>
<ellipse fill="none" stroke="darkviolet" cx="271" cy="-234" rx="51.19" ry="18"/>
<text text-anchor="middle" x="271" y="-230.3" font-family="Times,serif" font-size="14.00">Notation</text>
</g>
<!-- PrintingConfiguration&#45;&gt;Notation -->
<g id="edge64" class="edge">
<title>PrintingConfiguration&#45;&gt;Notation</title>
<path fill="none" stroke="black" d="M170.71,-288.59C189.99,-278.29 214.94,-264.96 235.13,-254.17"/>
<polygon fill="black" stroke="black" points="236.86,-257.21 244.03,-249.41 233.56,-251.04 236.86,-257.21"/>
</g>
<!-- LinkType -->
<g id="node21" class="node">
<title>LinkType</title>
<ellipse fill="none" stroke="darkviolet" cx="871" cy="-234" rx="53.09" ry="18"/>
<text text-anchor="middle" x="871" y="-230.3" font-family="Times,serif" font-size="14.00">LinkType</text>
</g>
<!-- LinkType&#45;&gt;Spec -->
<g id="edge23" class="edge">
<title>LinkType&#45;&gt;Spec</title>
<path fill="none" stroke="black" d="M845.69,-217.98C827.45,-207.16 802.75,-192.51 783.43,-181.05"/>
<polygon fill="black" stroke="black" points="785.09,-177.97 774.71,-175.88 781.52,-183.99 785.09,-177.97"/>
</g>
<!-- Spec&#45;&gt;Expr -->
<g id="edge28" class="edge">
<title>Spec&#45;&gt;Expr</title>
<path fill="none" stroke="black" d="M753,-143.7C753,-135.98 753,-126.71 753,-118.11"/>
<polygon fill="black" stroke="black" points="756.5,-118.1 753,-108.1 749.5,-118.1 756.5,-118.1"/>
</g>
<!-- Ops -->
<g id="node23" class="node">
<title>Ops</title>
<ellipse fill="none" stroke="darkviolet" cx="1456" cy="-450" rx="28.7" ry="18"/>
<text text-anchor="middle" x="1456" y="-446.3" font-family="Times,serif" font-size="14.00">Ops</text>
</g>
<!-- Fence -->
<g id="node24" class="node">
<title>Fence</title>
<ellipse fill="none" stroke="darkviolet" cx="1566" cy="-450" rx="38.19" ry="18"/>
<text text-anchor="middle" x="1566" y="-446.3" font-family="Times,serif" font-size="14.00">Fence</text>
</g>
<!-- OverSymb -->
<g id="node25" class="node">
<title>OverSymb</title>
<ellipse fill="none" stroke="darkviolet" cx="1694" cy="-450" rx="59.59" ry="18"/>
<text text-anchor="middle" x="1694" y="-446.3" font-family="Times,serif" font-size="14.00">OverSymb</text>
</g>
<!-- Fonts -->
<g id="node26" class="node">
<title>Fonts</title>
<ellipse fill="none" stroke="darkviolet" cx="1814" cy="-450" rx="36.29" ry="18"/>
<text text-anchor="middle" x="1814" y="-446.3" font-family="Times,serif" font-size="14.00">Fonts</text>
</g>
<!-- Spacing -->
<g id="node27" class="node">
<title>Spacing</title>
<ellipse fill="none" stroke="darkviolet" cx="1919" cy="-450" rx="48.19" ry="18"/>
<text text-anchor="middle" x="1919" y="-446.3" font-family="Times,serif" font-size="14.00">Spacing</text>
</g>
<!-- Expr&#45;&gt;String -->
<g id="edge26" class="edge">
<title>Expr&#45;&gt;String</title>
<path fill="none" stroke="black" d="M785.36,-85.19C883.94,-73.57 1180.98,-38.56 1298.44,-24.72"/>
<polygon fill="black" stroke="black" points="1299.05,-28.17 1308.57,-23.53 1298.23,-21.22 1299.05,-28.17"/>
</g>
<!-- Expr&#45;&gt;Expr -->
<g id="edge27" class="edge">
<title>Expr&#45;&gt;Expr</title>
<path fill="none" stroke="black" d="M776.68,-102.66C790.83,-105.47 804.15,-101.25 804.15,-90 804.15,-81.56 796.65,-77.08 786.94,-76.55"/>
<polygon fill="black" stroke="black" points="786.38,-73.09 776.68,-77.34 786.91,-80.06 786.38,-73.09"/>
</g>
<!-- Double -->
<g id="node29" class="node">
<title>Double</title>
<ellipse fill="none" stroke="black" cx="806" cy="-18" rx="43.59" ry="18"/>
<text text-anchor="middle" x="806" y="-14.3" font-family="Times,serif" font-size="14.00">Double</text>
</g>
<!-- Expr&#45;&gt;Double -->
<g id="edge24" class="edge">
<title>Expr&#45;&gt;Double</title>
<path fill="none" stroke="black" d="M765.03,-73.12C771.64,-64.38 779.99,-53.35 787.42,-43.54"/>
<polygon fill="black" stroke="black" points="790.41,-45.39 793.65,-35.31 784.83,-41.17 790.41,-45.39"/>
</g>
<!-- Integer -->
<g id="node30" class="node">
<title>Integer</title>
<ellipse fill="none" stroke="black" cx="700" cy="-18" rx="44.69" ry="18"/>
<text text-anchor="middle" x="700" y="-14.3" font-family="Times,serif" font-size="14.00">Integer</text>
</g>
<!-- Expr&#45;&gt;Integer -->
<g id="edge25" class="edge">
<title>Expr&#45;&gt;Integer</title>
<path fill="none" stroke="black" d="M740.97,-73.12C734.36,-64.38 726.01,-53.35 718.58,-43.54"/>
<polygon fill="black" stroke="black" points="721.17,-41.17 712.35,-35.31 715.59,-45.39 721.17,-41.17"/>
</g>
<!-- ListType -->
<g id="node31" class="node">
<title>ListType</title>
<ellipse fill="none" stroke="darkviolet" cx="580" cy="-306" rx="50.89" ry="18"/>
<text text-anchor="middle" x="580" y="-302.3" font-family="Times,serif" font-size="14.00">ListType</text>
</g>
<!-- ListType&#45;&gt;Label -->
<g id="edge31" class="edge">
<title>ListType&#45;&gt;Label</title>
<path fill="none" stroke="black" d="M628.54,-300.41C724.33,-291.11 934.54,-269.44 1005,-252 1007.81,-251.3 1010.69,-250.48 1013.56,-249.59"/>
<polygon fill="black" stroke="black" points="1014.86,-252.84 1023.2,-246.31 1012.61,-246.21 1014.86,-252.84"/>
</g>
<!-- ItemType -->
<g id="node32" class="node">
<title>ItemType</title>
<ellipse fill="none" stroke="darkviolet" cx="580" cy="-378" rx="54.69" ry="18"/>
<text text-anchor="middle" x="580" y="-374.3" font-family="Times,serif" font-size="14.00">ItemType</text>
</g>
<!-- ListType&#45;&gt;ItemType -->
<g id="edge29" class="edge">
<title>ListType&#45;&gt;ItemType</title>
<path fill="none" stroke="black" d="M585.91,-324.28C586.71,-332.03 586.94,-341.36 586.59,-350.01"/>
<polygon fill="black" stroke="black" points="583.09,-349.83 585.88,-360.05 590.08,-350.33 583.09,-349.83"/>
</g>
<!-- Maybe -->
<g id="node33" class="node">
<title>Maybe</title>
<ellipse fill="none" stroke="black" cx="488" cy="-234" rx="42.49" ry="18"/>
<text text-anchor="middle" x="488" y="-230.3" font-family="Times,serif" font-size="14.00">Maybe</text>
</g>
<!-- ListType&#45;&gt;Maybe -->
<g id="edge30" class="edge">
<title>ListType&#45;&gt;Maybe</title>
<path fill="none" stroke="black" d="M559.58,-289.46C546.78,-279.72 530.1,-267.04 516.07,-256.36"/>
<polygon fill="black" stroke="black" points="517.81,-253.28 507.73,-250.01 513.57,-258.85 517.81,-253.28"/>
</g>
<!-- ListType&#45;&gt;Title -->
<g id="edge32" class="edge">
<title>ListType&#45;&gt;Title</title>
<path fill="none" stroke="black" d="M580,-287.7C580,-279.98 580,-270.71 580,-262.11"/>
<polygon fill="black" stroke="black" points="583.5,-262.1 580,-252.1 576.5,-262.1 583.5,-262.1"/>
</g>
<!-- ItemType&#45;&gt;Spec -->
<g id="edge33" class="edge">
<title>ItemType&#45;&gt;Spec</title>
<path fill="none" stroke="black" d="M561.47,-360.93C549.54,-350.5 533.74,-336.57 520,-324 502.83,-308.3 499.54,-303.28 482,-288 462.69,-271.18 448.1,-275.08 437,-252 430.07,-237.58 426.66,-228.21 437,-216 471.43,-175.31 631.41,-165.84 709.66,-163.65"/>
<polygon fill="black" stroke="black" points="709.78,-167.15 719.69,-163.4 709.6,-160.15 709.78,-167.15"/>
</g>
<!-- ItemType&#45;&gt;ListType -->
<g id="edge34" class="edge">
<title>ItemType&#45;&gt;ListType</title>
<path fill="none" stroke="black" d="M574.12,-360.05C573.3,-352.35 573.06,-343.03 573.39,-334.36"/>
<polygon fill="black" stroke="black" points="576.89,-334.49 574.09,-324.28 569.91,-334.01 576.89,-334.49"/>
</g>
<!-- Title&#45;&gt;Spec -->
<g id="edge36" class="edge">
<title>Title&#45;&gt;Spec</title>
<path fill="none" stroke="black" d="M605.16,-222.82C634.84,-210.81 684.37,-190.77 717.84,-177.23"/>
<polygon fill="black" stroke="black" points="719.29,-180.41 727.25,-173.42 716.67,-173.93 719.29,-180.41"/>
</g>
<!-- Citation -->
<g id="node35" class="node">
<title>Citation</title>
<ellipse fill="none" stroke="darkviolet" cx="1547" cy="-306" rx="48.19" ry="18"/>
<text text-anchor="middle" x="1547" y="-302.3" font-family="Times,serif" font-size="14.00">Citation</text>
</g>
<!-- EntryID -->
<g id="node36" class="node">
<title>EntryID</title>
<ellipse fill="none" stroke="black" cx="1547" cy="-234" rx="48.19" ry="18"/>
<text text-anchor="middle" x="1547" y="-230.3" font-family="Times,serif" font-size="14.00">EntryID</text>
</g>
<!-- Citation&#45;&gt;EntryID -->
<g id="edge37" class="edge">
<title>Citation&#45;&gt;EntryID</title>
<path fill="none" stroke="black" d="M1547,-287.7C1547,-279.98 1547,-270.71 1547,-262.11"/>
<polygon fill="black" stroke="black" points="1550.5,-262.1 1547,-252.1 1543.5,-262.1 1550.5,-262.1"/>
</g>
<!-- CitationKind -->
<g id="node37" class="node">
<title>CitationKind</title>
<ellipse fill="none" stroke="black" cx="1683" cy="-234" rx="69.59" ry="18"/>
<text text-anchor="middle" x="1683" y="-230.3" font-family="Times,serif" font-size="14.00">CitationKind</text>
</g>
<!-- Citation&#45;&gt;CitationKind -->
<g id="edge38" class="edge">
<title>Citation&#45;&gt;CitationKind</title>
<path fill="none" stroke="black" d="M1574.19,-291C1594.22,-280.69 1621.75,-266.53 1644.1,-255.02"/>
<polygon fill="black" stroke="black" points="1645.73,-258.12 1653.02,-250.43 1642.52,-251.9 1645.73,-258.12"/>
</g>
<!-- CiteField -->
<g id="node38" class="node">
<title>CiteField</title>
<ellipse fill="none" stroke="darkviolet" cx="1428" cy="-234" rx="53.09" ry="18"/>
<text text-anchor="middle" x="1428" y="-230.3" font-family="Times,serif" font-size="14.00">CiteField</text>
</g>
<!-- Citation&#45;&gt;CiteField -->
<g id="edge39" class="edge">
<title>Citation&#45;&gt;CiteField</title>
<path fill="none" stroke="black" d="M1522.34,-290.5C1504.95,-280.26 1481.42,-266.42 1462.21,-255.12"/>
<polygon fill="black" stroke="black" points="1463.84,-252.02 1453.45,-249.97 1460.29,-258.06 1463.84,-252.02"/>
</g>
<!-- CiteField&#45;&gt;Spec -->
<g id="edge40" class="edge">
<title>CiteField&#45;&gt;Spec</title>
<path fill="none" stroke="black" d="M1382.31,-224.48C1365.3,-221.5 1345.81,-218.33 1328,-216 1129.91,-190.07 891.79,-172.39 796,-165.83"/>
<polygon fill="black" stroke="black" points="796.05,-162.33 785.84,-165.14 795.58,-169.31 796.05,-162.33"/>
</g>
<!-- People -->
<g id="node39" class="node">
<title>People</title>
<ellipse fill="none" stroke="black" cx="1428" cy="-162" rx="41.69" ry="18"/>
<text text-anchor="middle" x="1428" y="-158.3" font-family="Times,serif" font-size="14.00">People</text>
</g>
<!-- CiteField&#45;&gt;People -->
<g id="edge41" class="edge">
<title>CiteField&#45;&gt;People</title>
<path fill="none" stroke="black" d="M1428,-215.7C1428,-207.98 1428,-198.71 1428,-190.11"/>
<polygon fill="black" stroke="black" points="1431.5,-190.1 1428,-180.1 1424.5,-190.1 1431.5,-190.1"/>
</g>
<!-- HP -->
<g id="node40" class="node">
<title>HP</title>
<ellipse fill="none" stroke="darkviolet" cx="969" cy="-234" rx="27" ry="18"/>
<text text-anchor="middle" x="969" y="-230.3" font-family="Times,serif" font-size="14.00">HP</text>
</g>
<!-- HP&#45;&gt;Spec -->
<g id="edge42" class="edge">
<title>HP&#45;&gt;Spec</title>
<path fill="none" stroke="black" d="M947.92,-222.38C943.08,-220.13 937.91,-217.87 933,-216 885.69,-197.99 829.5,-182.32 792.63,-172.78"/>
<polygon fill="black" stroke="black" points="793.33,-169.34 782.77,-170.25 791.59,-176.12 793.33,-169.34"/>
</g>
<!-- BibRef -->
<g id="node41" class="node">
<title>BibRef</title>
<ellipse fill="none" stroke="#ee0000" cx="1547" cy="-378" rx="42.49" ry="18"/>
<text text-anchor="middle" x="1547" y="-374.3" font-family="Times,serif" font-size="14.00">BibRef</text>
</g>
<!-- BibRef&#45;&gt;Citation -->
<g id="edge43" class="edge">
<title>BibRef&#45;&gt;Citation</title>
<path fill="none" stroke="black" d="M1547,-359.7C1547,-351.98 1547,-342.71 1547,-334.11"/>
<polygon fill="black" stroke="black" points="1550.5,-334.1 1547,-324.1 1543.5,-334.1 1550.5,-334.1"/>
</g>
<!-- Author&#45;&gt;Spec -->
<g id="edge52" class="edge">
<title>Author&#45;&gt;Spec</title>
<path fill="none" stroke="black" d="M763.65,-301.8C730.6,-296.82 686.26,-284.14 664,-252 654.89,-238.85 656.09,-229.91 664,-216 675.02,-196.61 696.26,-183.56 715.22,-175.27"/>
<polygon fill="black" stroke="black" points="716.64,-178.47 724.58,-171.47 714,-171.99 716.64,-178.47"/>
</g>
<!-- LayoutObj&#45;&gt;Label -->
<g id="edge49" class="edge">
<title>LayoutObj&#45;&gt;Label</title>
<path fill="none" stroke="black" d="M1031.05,-288.05C1033.91,-280.06 1037.38,-270.33 1040.57,-261.4"/>
<polygon fill="black" stroke="black" points="1043.94,-262.38 1044,-251.79 1037.34,-260.03 1043.94,-262.38"/>
</g>
<!-- LayoutObj&#45;&gt;Spec -->
<g id="edge48" class="edge">
<title>LayoutObj&#45;&gt;Spec</title>
<path fill="none" stroke="black" d="M969.81,-299.96C880.99,-291.3 714.46,-272.51 697,-252 678.55,-230.34 703.33,-202.06 725.53,-183.26"/>
<polygon fill="black" stroke="black" points="727.95,-185.8 733.51,-176.79 723.54,-180.37 727.95,-185.8"/>
</g>
<!-- Tags -->
<g id="node44" class="node">
<title>Tags</title>
<ellipse fill="none" stroke="#ee0000" cx="1155" cy="-162" rx="32.49" ry="18"/>
<text text-anchor="middle" x="1155" y="-158.3" font-family="Times,serif" font-size="14.00">Tags</text>
</g>
<!-- LayoutObj&#45;&gt;Tags -->
<g id="edge47" class="edge">
<title>LayoutObj&#45;&gt;Tags</title>
<path fill="none" stroke="black" d="M1081.28,-300.93C1114.71,-295.27 1154.63,-282.15 1176,-252 1189.33,-233.19 1180.78,-207.08 1170.88,-188"/>
<polygon fill="black" stroke="black" points="1173.93,-186.29 1166,-179.27 1167.82,-189.7 1173.93,-186.29"/>
</g>
<!-- Bool -->
<g id="node45" class="node">
<title>Bool</title>
<ellipse fill="none" stroke="black" cx="1136" cy="-234" rx="31.4" ry="18"/>
<text text-anchor="middle" x="1136" y="-230.3" font-family="Times,serif" font-size="14.00">Bool</text>
</g>
<!-- LayoutObj&#45;&gt;Bool -->
<g id="edge50" class="edge">
<title>LayoutObj&#45;&gt;Bool</title>
<path fill="none" stroke="black" d="M1049.63,-289.46C1066.5,-278.83 1088.93,-264.68 1106.71,-253.47"/>
<polygon fill="black" stroke="black" points="1108.93,-256.21 1115.52,-247.91 1105.2,-250.29 1108.93,-256.21"/>
</g>
<!-- Caption -->
<g id="node46" class="node">
<title>Caption</title>
<ellipse fill="none" stroke="#ee0000" cx="753" cy="-234" rx="46.59" ry="18"/>
<text text-anchor="middle" x="753" y="-230.3" font-family="Times,serif" font-size="14.00">Caption</text>
</g>
<!-- LayoutObj&#45;&gt;Caption -->
<g id="edge51" class="edge">
<title>LayoutObj&#45;&gt;Caption</title>
<path fill="none" stroke="black" d="M979.3,-294.55C935.46,-284.34 867.46,-268.03 809,-252 805.41,-251.01 801.7,-249.96 797.97,-248.88"/>
<polygon fill="black" stroke="black" points="798.75,-245.46 788.17,-245.99 796.77,-252.18 798.75,-245.46"/>
</g>
<!-- Tags&#45;&gt;String -->
<g id="edge55" class="edge">
<title>Tags&#45;&gt;String</title>
<path fill="none" stroke="black" d="M1147.04,-144.35C1139.03,-124.92 1129.98,-92.79 1146,-72 1164.47,-48.03 1244.99,-32.72 1298.34,-25.01"/>
<polygon fill="black" stroke="black" points="1298.88,-28.47 1308.29,-23.62 1297.91,-21.54 1298.88,-28.47"/>
</g>
<!-- Caption&#45;&gt;Spec -->
<g id="edge60" class="edge">
<title>Caption&#45;&gt;Spec</title>
<path fill="none" stroke="black" d="M753,-215.7C753,-207.98 753,-198.71 753,-190.11"/>
<polygon fill="black" stroke="black" points="756.5,-190.1 753,-180.1 749.5,-190.1 756.5,-190.1"/>
</g>
<!-- Contents -->
<g id="node47" class="node">
<title>Contents</title>
<ellipse fill="none" stroke="#ee0000" cx="149" cy="-234" rx="52.79" ry="18"/>
<text text-anchor="middle" x="149" y="-230.3" font-family="Times,serif" font-size="14.00">Contents</text>
</g>
<!-- Contents&#45;&gt;Spec -->
<g id="edge53" class="edge">
<title>Contents&#45;&gt;Spec</title>
<path fill="none" stroke="black" d="M187.13,-221.45C194.97,-219.39 203.21,-217.44 211,-216 394.75,-182.08 617.82,-168.95 709.98,-164.72"/>
<polygon fill="black" stroke="black" points="710.21,-168.21 720.04,-164.27 709.9,-161.22 710.21,-168.21"/>
</g>
<!-- Items -->
<g id="node48" class="node">
<title>Items</title>
<ellipse fill="none" stroke="#ee0000" cx="1025" cy="-378" rx="37.09" ry="18"/>
<text text-anchor="middle" x="1025" y="-374.3" font-family="Times,serif" font-size="14.00">Items</text>
</g>
<!-- Items&#45;&gt;LayoutObj -->
<g id="edge54" class="edge">
<title>Items&#45;&gt;LayoutObj</title>
<path fill="none" stroke="black" d="M1025,-359.7C1025,-351.98 1025,-342.71 1025,-334.11"/>
<polygon fill="black" stroke="black" points="1028.5,-334.1 1025,-324.1 1021.5,-334.1 1028.5,-334.1"/>
</g>
<!-- Depth -->
<g id="node49" class="node">
<title>Depth</title>
<ellipse fill="none" stroke="#ee0000" cx="2026" cy="-450" rx="38.99" ry="18"/>
<text text-anchor="middle" x="2026" y="-446.3" font-family="Times,serif" font-size="14.00">Depth</text>
</g>
<!-- Int -->
<g id="node50" class="node">
<title>Int</title>
<ellipse fill="none" stroke="black" cx="2026" cy="-378" rx="27" ry="18"/>
<text text-anchor="middle" x="2026" y="-374.3" font-family="Times,serif" font-size="14.00">Int</text>
</g>
<!-- Depth&#45;&gt;Int -->
<g id="edge56" class="edge">
<title>Depth&#45;&gt;Int</title>
<path fill="none" stroke="black" d="M2026,-431.7C2026,-423.98 2026,-414.71 2026,-406.11"/>
<polygon fill="black" stroke="black" points="2029.5,-406.1 2026,-396.1 2022.5,-406.1 2029.5,-406.1"/>
</g>
<!-- Width -->
<g id="node51" class="node">
<title>Width</title>
<ellipse fill="none" stroke="#ee0000" cx="2121" cy="-450" rx="38.19" ry="18"/>
<text text-anchor="middle" x="2121" y="-446.3" font-family="Times,serif" font-size="14.00">Width</text>
</g>
<!-- Float -->
<g id="node52" class="node">
<title>Float</title>
<ellipse fill="none" stroke="black" cx="2170" cy="-378" rx="34.39" ry="18"/>
<text text-anchor="middle" x="2170" y="-374.3" font-family="Times,serif" font-size="14.00">Float</text>
</g>
<!-- Width&#45;&gt;Float -->
<g id="edge57" class="edge">
<title>Width&#45;&gt;Float</title>
<path fill="none" stroke="black" d="M2132.36,-432.76C2138.43,-424.11 2146.01,-413.27 2152.78,-403.6"/>
<polygon fill="black" stroke="black" points="2155.83,-405.35 2158.7,-395.15 2150.09,-401.33 2155.83,-405.35"/>
</g>
<!-- Height -->
<g id="node53" class="node">
<title>Height</title>
<ellipse fill="none" stroke="#ee0000" cx="2220" cy="-450" rx="42.49" ry="18"/>
<text text-anchor="middle" x="2220" y="-446.3" font-family="Times,serif" font-size="14.00">Height</text>
</g>
<!-- Height&#45;&gt;Float -->
<g id="edge58" class="edge">
<title>Height&#45;&gt;Float</title>
<path fill="none" stroke="black" d="M2208.15,-432.41C2201.96,-423.74 2194.27,-412.97 2187.41,-403.38"/>
<polygon fill="black" stroke="black" points="2190.08,-401.09 2181.42,-394.99 2184.38,-405.16 2190.08,-401.09"/>
</g>
<!-- Filepath -->
<g id="node54" class="node">
<title>Filepath</title>
<ellipse fill="none" stroke="#ee0000" cx="1424" cy="-90" rx="49.29" ry="18"/>
<text text-anchor="middle" x="1424" y="-86.3" font-family="Times,serif" font-size="14.00">Filepath</text>
</g>
<!-- Filepath&#45;&gt;String -->
<g id="edge59" class="edge">
<title>Filepath&#45;&gt;String</title>
<path fill="none" stroke="black" d="M1406.53,-73.12C1396.22,-63.74 1383,-51.73 1371.65,-41.41"/>
<polygon fill="black" stroke="black" points="1373.89,-38.72 1364.14,-34.58 1369.18,-43.9 1373.89,-38.72"/>
</g>
<!-- MathContext -->
<g id="node58" class="node">
<title>MathContext</title>
<ellipse fill="none" stroke="darkviolet" cx="2352" cy="-450" rx="71.49" ry="18"/>
<text text-anchor="middle" x="2352" y="-446.3" font-family="Times,serif" font-size="14.00">MathContext</text>
</g>
<!-- Latex -->
<g id="node59" class="node">
<title>Latex</title>
<ellipse fill="none" stroke="darkgreen" cx="1939" cy="-90" rx="36.29" ry="18"/>
<text text-anchor="middle" x="1939" y="-86.3" font-family="Times,serif" font-size="14.00">Latex</text>
</g>
<!-- Latex&#45;&gt;String -->
<g id="edge65" class="edge">
<title>Latex&#45;&gt;String</title>
<path fill="none" stroke="black" d="M1912.23,-77.57C1906.32,-75.41 1900.02,-73.4 1894,-72 1714.69,-30.22 1494.9,-21.31 1397.54,-19.46"/>
<polygon fill="black" stroke="black" points="1397.45,-15.96 1387.39,-19.28 1397.33,-22.96 1397.45,-15.96"/>
</g>
<!-- D&#45;&gt;Doc -->
<g id="edge66" class="edge">
<title>D&#45;&gt;Doc</title>
<path fill="none" stroke="black" d="M1950.36,-150.39C1945.41,-148.09 1940.08,-145.81 1935,-144 1872.03,-121.62 1852.66,-128.33 1789,-108 1785.61,-106.92 1782.1,-105.7 1778.62,-104.43"/>
<polygon fill="black" stroke="black" points="1779.59,-101.05 1769,-100.75 1777.1,-107.59 1779.59,-101.05"/>
</g>
<!-- Package -->
<g id="node61" class="node">
<title>Package</title>
<ellipse fill="none" stroke="darkviolet" cx="2490" cy="-450" rx="48.99" ry="18"/>
<text text-anchor="middle" x="2490" y="-446.3" font-family="Times,serif" font-size="14.00">Package</text>
</g>
<!-- Def -->
<g id="node62" class="node">
<title>Def</title>
<ellipse fill="none" stroke="darkviolet" cx="2584" cy="-450" rx="27" ry="18"/>
<text text-anchor="middle" x="2584" y="-446.3" font-family="Times,serif" font-size="14.00">Def</text>
</g>
<!-- FieldWrap -->
<g id="node63" class="node">
<title>FieldWrap</title>
<ellipse fill="none" stroke="darkviolet" cx="1829" cy="-234" rx="58.49" ry="18"/>
<text text-anchor="middle" x="1829" y="-230.3" font-family="Times,serif" font-size="14.00">FieldWrap</text>
</g>
<!-- FieldWrap&#45;&gt;String -->
<g id="edge69" class="edge">
<title>FieldWrap&#45;&gt;String</title>
<path fill="none" stroke="black" d="M1799.1,-218.39C1739.36,-189.35 1600.76,-122.81 1482,-72 1450.15,-58.37 1413.53,-44.08 1386.48,-33.78"/>
<polygon fill="black" stroke="black" points="1387.56,-30.45 1376.97,-30.17 1385.08,-36.99 1387.56,-30.45"/>
</g>
<!-- FieldWrap&#45;&gt;Spec -->
<g id="edge71" class="edge">
<title>FieldWrap&#45;&gt;Spec</title>
<path fill="none" stroke="black" d="M1787.8,-221.2C1779.33,-219.15 1770.42,-217.28 1762,-216 1713.62,-208.66 982.8,-173.84 796.14,-165.03"/>
<polygon fill="black" stroke="black" points="796.05,-161.52 785.9,-164.55 795.72,-168.51 796.05,-161.52"/>
</g>
<!-- FieldWrap&#45;&gt;D -->
<g id="edge72" class="edge">
<title>FieldWrap&#45;&gt;D</title>
<path fill="none" stroke="black" d="M1858.77,-218.33C1882.89,-206.43 1916.73,-189.75 1940.94,-177.82"/>
<polygon fill="black" stroke="black" points="1942.6,-180.9 1950.02,-173.34 1939.5,-174.63 1942.6,-180.9"/>
</g>
<!-- FieldWrap&#45;&gt;FieldWrap -->
<g id="edge70" class="edge">
<title>FieldWrap&#45;&gt;FieldWrap</title>
<path fill="none" stroke="black" d="M1869.14,-247.17C1888.45,-248.8 1905.49,-244.41 1905.49,-234 1905.49,-225.46 1894.03,-220.98 1879.25,-220.54"/>
<polygon fill="black" stroke="black" points="1879.04,-217.04 1869.14,-220.83 1879.24,-224.04 1879.04,-217.04"/>
</g>
<!-- StyleGuide -->
<g id="node64" class="node">
<title>StyleGuide</title>
<ellipse fill="none" stroke="darkviolet" cx="2055" cy="-90" rx="61.99" ry="18"/>
<text text-anchor="middle" x="2055" y="-86.3" font-family="Times,serif" font-size="14.00">StyleGuide</text>
</g>
<!-- StyleGuide&#45;&gt;String -->
<g id="edge74" class="edge">
<title>StyleGuide&#45;&gt;String</title>
<path fill="none" stroke="black" d="M2010.9,-77.34C2002.04,-75.31 1992.76,-73.4 1984,-72 1767.41,-37.27 1505.52,-24.57 1397.41,-20.59"/>
<polygon fill="black" stroke="black" points="1397.25,-17.08 1387.13,-20.22 1397,-24.08 1397.25,-17.08"/>
</g>
<!-- StyleGuide&#45;&gt;StyleGuide -->
<g id="edge73" class="edge">
<title>StyleGuide&#45;&gt;StyleGuide</title>
<path fill="none" stroke="black" d="M2097.26,-103.2C2117.22,-104.74 2134.74,-100.34 2134.74,-90 2134.74,-81.44 2122.72,-76.95 2107.25,-76.53"/>
<polygon fill="black" stroke="black" points="2107.16,-73.03 2097.26,-76.8 2107.34,-80.03 2107.16,-73.03"/>
</g>
<!-- Format -->
<g id="node65" class="node">
<title>Format</title>
<ellipse fill="none" stroke="darkviolet" cx="2673" cy="-450" rx="44.39" ry="18"/>
<text text-anchor="middle" x="2673" y="-446.3" font-family="Times,serif" font-size="14.00">Format</text>
</g>
</g>
</svg>
