<?xml version="1.0" encoding="UTF-8" standalone="no"?>
<!DOCTYPE svg PUBLIC "-//W3C//DTD SVG 1.1//EN"
 "http://www.w3.org/Graphics/SVG/1.1/DTD/svg11.dtd">
<!-- Generated by graphviz version 2.43.0 (0)
 -->
<!-- Title: alltypes Pages: 1 -->
<svg width="3038pt" height="476pt"
 viewBox="0.00 0.00 3038.00 476.00" xmlns="http://www.w3.org/2000/svg" xmlns:xlink="http://www.w3.org/1999/xlink">
<g id="graph0" class="graph" transform="scale(1 1) rotate(0) translate(4 472)">
<title>alltypes</title>
<polygon fill="white" stroke="transparent" points="-4,4 -4,-472 3034,-472 3034,4 -4,4"/>
<!-- TermAbbr -->
<g id="node1" class="node">
<title>TermAbbr</title>
<ellipse fill="none" stroke="#00cdcd" cx="113" cy="-450" rx="57.39" ry="18"/>
<text text-anchor="middle" x="113" y="-446.3" font-family="Times,serif" font-size="14.00">TermAbbr</text>
</g>
<!-- NP -->
<g id="node2" class="node">
<title>NP</title>
<ellipse fill="none" stroke="black" cx="27" cy="-378" rx="27" ry="18"/>
<text text-anchor="middle" x="27" y="-374.3" font-family="Times,serif" font-size="14.00">NP</text>
</g>
<!-- TermAbbr&#45;&gt;NP -->
<g id="edge1" class="edge">
<title>TermAbbr&#45;&gt;NP</title>
<path fill="none" stroke="black" d="M93.05,-432.76C80.56,-422.6 64.38,-409.43 51.17,-398.67"/>
<polygon fill="black" stroke="black" points="53.34,-395.93 43.38,-392.33 48.92,-401.36 53.34,-395.93"/>
</g>
<!-- MaybeString -->
<g id="node3" class="node">
<title>MaybeString</title>
<ellipse fill="none" stroke="black" cx="143" cy="-378" rx="71.49" ry="18"/>
<text text-anchor="middle" x="143" y="-374.3" font-family="Times,serif" font-size="14.00">MaybeString</text>
</g>
<!-- TermAbbr&#45;&gt;MaybeString -->
<g id="edge2" class="edge">
<title>TermAbbr&#45;&gt;MaybeString</title>
<path fill="none" stroke="black" d="M120.26,-432.05C123.68,-424.09 127.82,-414.41 131.64,-405.51"/>
<polygon fill="black" stroke="black" points="134.87,-406.85 135.6,-396.28 128.44,-404.09 134.87,-406.85"/>
</g>
<!-- DomDefn -->
<g id="node4" class="node">
<title>DomDefn</title>
<ellipse fill="none" stroke="#00cdcd" cx="297" cy="-450" rx="53.89" ry="18"/>
<text text-anchor="middle" x="297" y="-446.3" font-family="Times,serif" font-size="14.00">DomDefn</text>
</g>
<!-- UID -->
<g id="node5" class="node">
<title>UID</title>
<ellipse fill="none" stroke="black" cx="267" cy="-378" rx="29.5" ry="18"/>
<text text-anchor="middle" x="267" y="-374.3" font-family="Times,serif" font-size="14.00">UID</text>
</g>
<!-- DomDefn&#45;&gt;UID -->
<g id="edge3" class="edge">
<title>DomDefn&#45;&gt;UID</title>
<path fill="none" stroke="black" d="M289.74,-432.05C286.27,-423.97 282.05,-414.12 278.19,-405.11"/>
<polygon fill="black" stroke="black" points="281.35,-403.6 274.2,-395.79 274.92,-406.36 281.35,-403.6"/>
</g>
<!-- Sentence -->
<g id="node6" class="node">
<title>Sentence</title>
<ellipse fill="none" stroke="black" cx="368" cy="-378" rx="53.89" ry="18"/>
<text text-anchor="middle" x="368" y="-374.3" font-family="Times,serif" font-size="14.00">Sentence</text>
</g>
<!-- DomDefn&#45;&gt;Sentence -->
<g id="edge4" class="edge">
<title>DomDefn&#45;&gt;Sentence</title>
<path fill="none" stroke="black" d="M313.47,-432.76C322.48,-423.88 333.81,-412.71 343.81,-402.85"/>
<polygon fill="black" stroke="black" points="346.47,-405.15 351.13,-395.63 341.55,-400.16 346.47,-405.15"/>
</g>
<!-- UIDMap -->
<g id="node7" class="node">
<title>UIDMap</title>
<ellipse fill="none" stroke="#ee0000" cx="508" cy="-450" rx="50.09" ry="18"/>
<text text-anchor="middle" x="508" y="-446.3" font-family="Times,serif" font-size="14.00">UIDMap</text>
</g>
<!-- MapUIDUID -->
<g id="node8" class="node">
<title>MapUIDUID</title>
<ellipse fill="none" stroke="black" cx="508" cy="-378" rx="68.49" ry="18"/>
<text text-anchor="middle" x="508" y="-374.3" font-family="Times,serif" font-size="14.00">MapUIDUID</text>
</g>
<!-- UIDMap&#45;&gt;MapUIDUID -->
<g id="edge5" class="edge">
<title>UIDMap&#45;&gt;MapUIDUID</title>
<path fill="none" stroke="black" d="M508,-431.7C508,-423.98 508,-414.71 508,-406.11"/>
<polygon fill="black" stroke="black" points="511.5,-406.1 508,-396.1 504.5,-406.1 511.5,-406.1"/>
</g>
<!-- BibFormatter -->
<g id="node9" class="node">
<title>BibFormatter</title>
<ellipse fill="none" stroke="#00cdcd" cx="1369" cy="-162" rx="73.39" ry="18"/>
<text text-anchor="middle" x="1369" y="-158.3" font-family="Times,serif" font-size="14.00">BibFormatter</text>
</g>
<!-- Doc -->
<g id="node10" class="node">
<title>Doc</title>
<ellipse fill="none" stroke="black" cx="1150" cy="-90" rx="28.7" ry="18"/>
<text text-anchor="middle" x="1150" y="-86.3" font-family="Times,serif" font-size="14.00">Doc</text>
</g>
<!-- BibFormatter&#45;&gt;Doc -->
<g id="edge6" class="edge">
<title>BibFormatter&#45;&gt;Doc</title>
<path fill="none" stroke="black" d="M1319.31,-148.65C1282.35,-138.96 1230.94,-124.39 1187,-108 1185.16,-107.31 1183.29,-106.58 1181.41,-105.81"/>
<polygon fill="black" stroke="black" points="1182.65,-102.53 1172.08,-101.79 1179.88,-108.96 1182.65,-102.53"/>
</g>
<!-- SpecDoc -->
<g id="node11" class="node">
<title>SpecDoc</title>
<ellipse fill="none" stroke="black" cx="1247" cy="-90" rx="50.89" ry="18"/>
<text text-anchor="middle" x="1247" y="-86.3" font-family="Times,serif" font-size="14.00">SpecDoc</text>
</g>
<!-- BibFormatter&#45;&gt;SpecDoc -->
<g id="edge7" class="edge">
<title>BibFormatter&#45;&gt;SpecDoc</title>
<path fill="none" stroke="black" d="M1341.62,-145.29C1323.79,-135.06 1300.39,-121.63 1281.32,-110.69"/>
<polygon fill="black" stroke="black" points="1283.04,-107.64 1272.62,-105.7 1279.55,-113.71 1283.04,-107.64"/>
</g>
<!-- Variation -->
<g id="node12" class="node">
<title>Variation</title>
<ellipse fill="none" stroke="darkviolet" cx="792" cy="-162" rx="52.79" ry="18"/>
<text text-anchor="middle" x="792" y="-158.3" font-family="Times,serif" font-size="14.00">Variation</text>
</g>
<!-- Variation&#45;&gt;Doc -->
<g id="edge17" class="edge">
<title>Variation&#45;&gt;Doc</title>
<path fill="none" stroke="black" d="M830.87,-149.67C838.5,-147.63 846.48,-145.64 854,-144 950.8,-122.87 976.73,-126.82 1074,-108 1086.96,-105.49 1101.1,-102.42 1113.62,-99.59"/>
<polygon fill="black" stroke="black" points="1114.73,-102.92 1123.7,-97.28 1113.17,-96.1 1114.73,-102.92"/>
</g>
<!-- td -->
<g id="node17" class="node">
<title>td</title>
<ellipse fill="none" stroke="black" cx="936" cy="-90" rx="27" ry="18"/>
<text text-anchor="middle" x="936" y="-86.3" font-family="Times,serif" font-size="14.00">td</text>
</g>
<!-- Variation&#45;&gt;td -->
<g id="edge12" class="edge">
<title>Variation&#45;&gt;td</title>
<path fill="none" stroke="black" d="M821.14,-146.83C845.77,-134.86 880.92,-117.77 905.84,-105.66"/>
<polygon fill="black" stroke="black" points="907.38,-108.8 914.84,-101.28 904.32,-102.51 907.38,-108.8"/>
</g>
<!-- figure -->
<g id="node18" class="node">
<title>figure</title>
<ellipse fill="none" stroke="black" cx="637" cy="-90" rx="38.19" ry="18"/>
<text text-anchor="middle" x="637" y="-86.3" font-family="Times,serif" font-size="14.00">figure</text>
</g>
<!-- Variation&#45;&gt;figure -->
<g id="edge13" class="edge">
<title>Variation&#45;&gt;figure</title>
<path fill="none" stroke="black" d="M761.38,-147.17C736,-135.71 699.87,-119.39 673.09,-107.3"/>
<polygon fill="black" stroke="black" points="674.24,-103.98 663.68,-103.05 671.36,-110.36 674.24,-103.98"/>
</g>
<!-- li -->
<g id="node19" class="node">
<title>li</title>
<ellipse fill="none" stroke="black" cx="720" cy="-90" rx="27" ry="18"/>
<text text-anchor="middle" x="720" y="-86.3" font-family="Times,serif" font-size="14.00">li</text>
</g>
<!-- Variation&#45;&gt;li -->
<g id="edge14" class="edge">
<title>Variation&#45;&gt;li</title>
<path fill="none" stroke="black" d="M775.3,-144.76C765.41,-135.14 752.75,-122.84 742.04,-112.43"/>
<polygon fill="black" stroke="black" points="744.27,-109.71 734.66,-105.25 739.39,-114.73 744.27,-109.71"/>
</g>
<!-- pa -->
<g id="node20" class="node">
<title>pa</title>
<ellipse fill="none" stroke="black" cx="792" cy="-90" rx="27" ry="18"/>
<text text-anchor="middle" x="792" y="-86.3" font-family="Times,serif" font-size="14.00">pa</text>
</g>
<!-- Variation&#45;&gt;pa -->
<g id="edge15" class="edge">
<title>Variation&#45;&gt;pa</title>
<path fill="none" stroke="black" d="M792,-143.7C792,-135.98 792,-126.71 792,-118.11"/>
<polygon fill="black" stroke="black" points="795.5,-118.1 792,-108.1 788.5,-118.1 795.5,-118.1"/>
</g>
<!-- ba -->
<g id="node21" class="node">
<title>ba</title>
<ellipse fill="none" stroke="black" cx="864" cy="-90" rx="27" ry="18"/>
<text text-anchor="middle" x="864" y="-86.3" font-family="Times,serif" font-size="14.00">ba</text>
</g>
<!-- Variation&#45;&gt;ba -->
<g id="edge16" class="edge">
<title>Variation&#45;&gt;ba</title>
<path fill="none" stroke="black" d="M808.7,-144.76C818.59,-135.14 831.25,-122.84 841.96,-112.43"/>
<polygon fill="black" stroke="black" points="844.61,-114.73 849.34,-105.25 839.73,-109.71 844.61,-114.73"/>
</g>
<!-- PrintHTML -->
<g id="node13" class="node">
<title>PrintHTML</title>
<ellipse fill="none" stroke="darkgreen" cx="1379" cy="-90" rx="63.09" ry="18"/>
<text text-anchor="middle" x="1379" y="-86.3" font-family="Times,serif" font-size="14.00">PrintHTML</text>
</g>
<!-- String -->
<g id="node14" class="node">
<title>String</title>
<ellipse fill="none" stroke="black" cx="1599" cy="-18" rx="40.09" ry="18"/>
<text text-anchor="middle" x="1599" y="-14.3" font-family="Times,serif" font-size="14.00">String</text>
</g>
<!-- PrintHTML&#45;&gt;String -->
<g id="edge8" class="edge">
<title>PrintHTML&#45;&gt;String</title>
<path fill="none" stroke="black" d="M1419.35,-76.16C1458.58,-63.68 1517.87,-44.81 1557.49,-32.21"/>
<polygon fill="black" stroke="black" points="1558.64,-35.51 1567.11,-29.15 1556.52,-28.84 1558.64,-35.51"/>
</g>
<!-- OpenClose -->
<g id="node15" class="node">
<title>OpenClose</title>
<ellipse fill="none" stroke="darkviolet" cx="1545" cy="-450" rx="60.39" ry="18"/>
<text text-anchor="middle" x="1545" y="-446.3" font-family="Times,serif" font-size="14.00">OpenClose</text>
</g>
<!-- OpenClose&#45;&gt;Doc -->
<g id="edge11" class="edge">
<title>OpenClose&#45;&gt;Doc</title>
<path fill="none" stroke="black" d="M1549.35,-431.81C1559.07,-388.9 1577.45,-276.18 1520,-216 1447.65,-140.21 1381.09,-226.13 1287,-180 1266.11,-169.76 1267.87,-157.61 1249,-144 1237.15,-135.45 1205.25,-118.75 1180.84,-106.37"/>
<polygon fill="black" stroke="black" points="1182.41,-103.24 1171.9,-101.86 1179.25,-109.49 1182.41,-103.24"/>
</g>
<!-- OpenClose&#45;&gt;String -->
<g id="edge9" class="edge">
<title>OpenClose&#45;&gt;String</title>
<path fill="none" stroke="black" d="M1595.54,-439.99C1696.5,-421.41 1913,-374.84 1913,-307 1913,-307 1913,-307 1913,-161 1913,-119.53 1916.12,-99.4 1885,-72 1850.24,-41.4 1721.2,-27.73 1648.82,-22.24"/>
<polygon fill="black" stroke="black" points="1648.8,-18.73 1638.57,-21.49 1648.29,-25.71 1648.8,-18.73"/>
</g>
<!-- OpenClose&#45;&gt;String -->
<g id="edge76" class="edge">
<title>OpenClose&#45;&gt;String</title>
<path fill="none" stroke="black" d="M1597.92,-441.3C1703.76,-423.68 1931,-376.5 1931,-307 1931,-307 1931,-307 1931,-161 1931,-119.53 1934.12,-99.4 1903,-72 1866.49,-39.86 1725.97,-26.4 1649.33,-21.47"/>
<polygon fill="black" stroke="black" points="1649.15,-17.95 1638.95,-20.83 1648.72,-24.94 1649.15,-17.95"/>
</g>
<!-- Document -->
<g id="node16" class="node">
<title>Document</title>
<ellipse fill="none" stroke="darkviolet" cx="1147" cy="-378" rx="57.69" ry="18"/>
<text text-anchor="middle" x="1147" y="-374.3" font-family="Times,serif" font-size="14.00">Document</text>
</g>
<!-- OpenClose&#45;&gt;Document -->
<g id="edge10" class="edge">
<title>OpenClose&#45;&gt;Document</title>
<path fill="none" stroke="black" d="M1490.84,-441.85C1425.06,-432.81 1310.89,-416.01 1214,-396 1209.25,-395.02 1204.34,-393.93 1199.43,-392.78"/>
<polygon fill="black" stroke="black" points="1199.94,-389.3 1189.4,-390.37 1198.3,-396.11 1199.94,-389.3"/>
</g>
<!-- Title -->
<g id="node37" class="node">
<title>Title</title>
<ellipse fill="none" stroke="#ee0000" cx="1131" cy="-306" rx="31.7" ry="18"/>
<text text-anchor="middle" x="1131" y="-302.3" font-family="Times,serif" font-size="14.00">Title</text>
</g>
<!-- Document&#45;&gt;Title -->
<g id="edge42" class="edge">
<title>Document&#45;&gt;Title</title>
<path fill="none" stroke="black" d="M1143.04,-359.7C1141.28,-351.98 1139.16,-342.71 1137.2,-334.11"/>
<polygon fill="black" stroke="black" points="1140.55,-333.07 1134.91,-324.1 1133.73,-334.63 1140.55,-333.07"/>
</g>
<!-- Author -->
<g id="node45" class="node">
<title>Author</title>
<ellipse fill="none" stroke="#ee0000" cx="1039" cy="-306" rx="42.49" ry="18"/>
<text text-anchor="middle" x="1039" y="-302.3" font-family="Times,serif" font-size="14.00">Author</text>
</g>
<!-- Document&#45;&gt;Author -->
<g id="edge43" class="edge">
<title>Document&#45;&gt;Author</title>
<path fill="none" stroke="black" d="M1123.03,-361.46C1107.37,-351.31 1086.76,-337.96 1069.87,-327.01"/>
<polygon fill="black" stroke="black" points="1071.72,-324.04 1061.43,-321.54 1067.91,-329.91 1071.72,-324.04"/>
</g>
<!-- LayoutObj -->
<g id="node46" class="node">
<title>LayoutObj</title>
<ellipse fill="none" stroke="darkviolet" cx="1239" cy="-306" rx="58.49" ry="18"/>
<text text-anchor="middle" x="1239" y="-302.3" font-family="Times,serif" font-size="14.00">LayoutObj</text>
</g>
<!-- Document&#45;&gt;LayoutObj -->
<g id="edge44" class="edge">
<title>Document&#45;&gt;LayoutObj</title>
<path fill="none" stroke="black" d="M1167.88,-361.12C1180.26,-351.7 1196.14,-339.61 1209.76,-329.25"/>
<polygon fill="black" stroke="black" points="1212.05,-331.9 1217.89,-323.06 1207.81,-326.33 1212.05,-331.9"/>
</g>
<!-- SingleLine -->
<g id="node22" class="node">
<title>SingleLine</title>
<ellipse fill="none" stroke="darkviolet" cx="1090" cy="-162" rx="59.59" ry="18"/>
<text text-anchor="middle" x="1090" y="-158.3" font-family="Times,serif" font-size="14.00">SingleLine</text>
</g>
<!-- SingleLine&#45;&gt;Doc -->
<g id="edge20" class="edge">
<title>SingleLine&#45;&gt;Doc</title>
<path fill="none" stroke="black" d="M1104.22,-144.41C1111.91,-135.44 1121.53,-124.21 1129.97,-114.37"/>
<polygon fill="black" stroke="black" points="1132.85,-116.38 1136.7,-106.51 1127.54,-111.83 1132.85,-116.38"/>
</g>
<!-- SingleLine&#45;&gt;SingleLine -->
<g id="edge18" class="edge">
<title>SingleLine&#45;&gt;SingleLine</title>
<path fill="none" stroke="black" d="M1130.82,-175.17C1150.46,-176.8 1167.79,-172.41 1167.79,-162 1167.79,-153.46 1156.13,-148.98 1141.1,-148.54"/>
<polygon fill="black" stroke="black" points="1140.72,-145.05 1130.82,-148.83 1140.92,-152.04 1140.72,-145.05"/>
</g>
<!-- Expr -->
<g id="node23" class="node">
<title>Expr</title>
<ellipse fill="none" stroke="darkviolet" cx="1014" cy="-90" rx="33.29" ry="18"/>
<text text-anchor="middle" x="1014" y="-86.3" font-family="Times,serif" font-size="14.00">Expr</text>
</g>
<!-- SingleLine&#45;&gt;Expr -->
<g id="edge19" class="edge">
<title>SingleLine&#45;&gt;Expr</title>
<path fill="none" stroke="black" d="M1072.37,-144.76C1062.04,-135.25 1048.86,-123.1 1037.63,-112.77"/>
<polygon fill="black" stroke="black" points="1039.96,-110.15 1030.23,-105.95 1035.22,-115.3 1039.96,-110.15"/>
</g>
<!-- Expr&#45;&gt;String -->
<g id="edge24" class="edge">
<title>Expr&#45;&gt;String</title>
<path fill="none" stroke="black" d="M1042.26,-80.59C1053.6,-77.49 1066.83,-74.2 1079,-72 1249.9,-41.13 1455.88,-26.8 1548.99,-21.53"/>
<polygon fill="black" stroke="black" points="1549.45,-25.01 1559.24,-20.96 1549.06,-18.02 1549.45,-25.01"/>
</g>
<!-- Expr&#45;&gt;Expr -->
<g id="edge25" class="edge">
<title>Expr&#45;&gt;Expr</title>
<path fill="none" stroke="black" d="M1037.68,-102.66C1051.83,-105.47 1065.15,-101.25 1065.15,-90 1065.15,-81.56 1057.65,-77.08 1047.94,-76.55"/>
<polygon fill="black" stroke="black" points="1047.38,-73.09 1037.68,-77.34 1047.91,-80.06 1047.38,-73.09"/>
</g>
<!-- Double -->
<g id="node31" class="node">
<title>Double</title>
<ellipse fill="none" stroke="black" cx="1067" cy="-18" rx="43.59" ry="18"/>
<text text-anchor="middle" x="1067" y="-14.3" font-family="Times,serif" font-size="14.00">Double</text>
</g>
<!-- Expr&#45;&gt;Double -->
<g id="edge22" class="edge">
<title>Expr&#45;&gt;Double</title>
<path fill="none" stroke="black" d="M1026.03,-73.12C1032.64,-64.38 1040.99,-53.35 1048.42,-43.54"/>
<polygon fill="black" stroke="black" points="1051.41,-45.39 1054.65,-35.31 1045.83,-41.17 1051.41,-45.39"/>
</g>
<!-- Integer -->
<g id="node32" class="node">
<title>Integer</title>
<ellipse fill="none" stroke="black" cx="961" cy="-18" rx="44.69" ry="18"/>
<text text-anchor="middle" x="961" y="-14.3" font-family="Times,serif" font-size="14.00">Integer</text>
</g>
<!-- Expr&#45;&gt;Integer -->
<g id="edge23" class="edge">
<title>Expr&#45;&gt;Integer</title>
<path fill="none" stroke="black" d="M1001.97,-73.12C995.36,-64.38 987.01,-53.35 979.58,-43.54"/>
<polygon fill="black" stroke="black" points="982.17,-41.17 973.35,-35.31 976.59,-45.39 982.17,-41.17"/>
</g>
<!-- LinkType -->
<g id="node24" class="node">
<title>LinkType</title>
<ellipse fill="none" stroke="darkviolet" cx="1078" cy="-234" rx="53.09" ry="18"/>
<text text-anchor="middle" x="1078" y="-230.3" font-family="Times,serif" font-size="14.00">LinkType</text>
</g>
<!-- Spec -->
<g id="node25" class="node">
<title>Spec</title>
<ellipse fill="none" stroke="darkviolet" cx="896" cy="-162" rx="33.29" ry="18"/>
<text text-anchor="middle" x="896" y="-158.3" font-family="Times,serif" font-size="14.00">Spec</text>
</g>
<!-- LinkType&#45;&gt;Spec -->
<g id="edge21" class="edge">
<title>LinkType&#45;&gt;Spec</title>
<path fill="none" stroke="black" d="M1043.68,-220.05C1015.52,-209.39 974.63,-193.84 939,-180 936.49,-179.03 933.9,-178.01 931.3,-176.99"/>
<polygon fill="black" stroke="black" points="932.49,-173.7 921.9,-173.3 929.93,-180.22 932.49,-173.7"/>
</g>
<!-- Spec&#45;&gt;Expr -->
<g id="edge26" class="edge">
<title>Spec&#45;&gt;Expr</title>
<path fill="none" stroke="black" d="M917.64,-148.16C936.19,-137.16 963.1,-121.19 983.77,-108.93"/>
<polygon fill="black" stroke="black" points="985.68,-111.87 992.49,-103.76 982.11,-105.85 985.68,-111.87"/>
</g>
<!-- Ops -->
<g id="node26" class="node">
<title>Ops</title>
<ellipse fill="none" stroke="darkviolet" cx="1699" cy="-450" rx="28.7" ry="18"/>
<text text-anchor="middle" x="1699" y="-446.3" font-family="Times,serif" font-size="14.00">Ops</text>
</g>
<!-- Fence -->
<g id="node27" class="node">
<title>Fence</title>
<ellipse fill="none" stroke="darkviolet" cx="1787" cy="-450" rx="38.19" ry="18"/>
<text text-anchor="middle" x="1787" y="-446.3" font-family="Times,serif" font-size="14.00">Fence</text>
</g>
<!-- OverSymb -->
<g id="node28" class="node">
<title>OverSymb</title>
<ellipse fill="none" stroke="darkviolet" cx="1905" cy="-450" rx="59.59" ry="18"/>
<text text-anchor="middle" x="1905" y="-446.3" font-family="Times,serif" font-size="14.00">OverSymb</text>
</g>
<!-- Fonts -->
<g id="node29" class="node">
<title>Fonts</title>
<ellipse fill="none" stroke="darkviolet" cx="2020" cy="-450" rx="36.29" ry="18"/>
<text text-anchor="middle" x="2020" y="-446.3" font-family="Times,serif" font-size="14.00">Fonts</text>
</g>
<!-- Spacing -->
<g id="node30" class="node">
<title>Spacing</title>
<ellipse fill="none" stroke="darkviolet" cx="2122" cy="-450" rx="48.19" ry="18"/>
<text text-anchor="middle" x="2122" y="-446.3" font-family="Times,serif" font-size="14.00">Spacing</text>
</g>
<!-- ListType -->
<g id="node33" class="node">
<title>ListType</title>
<ellipse fill="none" stroke="darkviolet" cx="713" cy="-378" rx="50.89" ry="18"/>
<text text-anchor="middle" x="713" y="-374.3" font-family="Times,serif" font-size="14.00">ListType</text>
</g>
<!-- ItemType -->
<g id="node34" class="node">
<title>ItemType</title>
<ellipse fill="none" stroke="darkviolet" cx="713" cy="-450" rx="54.69" ry="18"/>
<text text-anchor="middle" x="713" y="-446.3" font-family="Times,serif" font-size="14.00">ItemType</text>
</g>
<!-- ListType&#45;&gt;ItemType -->
<g id="edge27" class="edge">
<title>ListType&#45;&gt;ItemType</title>
<path fill="none" stroke="black" d="M718.91,-396.28C719.71,-404.03 719.94,-413.36 719.59,-422.01"/>
<polygon fill="black" stroke="black" points="716.09,-421.83 718.88,-432.05 723.08,-422.33 716.09,-421.83"/>
</g>
<!-- Maybe -->
<g id="node35" class="node">
<title>Maybe</title>
<ellipse fill="none" stroke="black" cx="674" cy="-306" rx="42.49" ry="18"/>
<text text-anchor="middle" x="674" y="-302.3" font-family="Times,serif" font-size="14.00">Maybe</text>
</g>
<!-- ListType&#45;&gt;Maybe -->
<g id="edge28" class="edge">
<title>ListType&#45;&gt;Maybe</title>
<path fill="none" stroke="black" d="M703.56,-360.05C698.96,-351.8 693.33,-341.7 688.23,-332.54"/>
<polygon fill="black" stroke="black" points="691.28,-330.82 683.35,-323.79 685.16,-334.23 691.28,-330.82"/>
</g>
<!-- Label -->
<g id="node36" class="node">
<title>Label</title>
<ellipse fill="none" stroke="#ee0000" cx="749" cy="-234" rx="36.29" ry="18"/>
<text text-anchor="middle" x="749" y="-230.3" font-family="Times,serif" font-size="14.00">Label</text>
</g>
<!-- ListType&#45;&gt;Label -->
<g id="edge29" class="edge">
<title>ListType&#45;&gt;Label</title>
<path fill="none" stroke="black" d="M717.34,-359.87C723.5,-335.56 734.85,-290.82 742.15,-262.01"/>
<polygon fill="black" stroke="black" points="745.58,-262.74 744.64,-252.19 738.79,-261.02 745.58,-262.74"/>
</g>
<!-- ListType&#45;&gt;Title -->
<g id="edge30" class="edge">
<title>ListType&#45;&gt;Title</title>
<path fill="none" stroke="black" d="M759.91,-371.08C853.84,-359.13 1058.72,-332.54 1090,-324 1092.47,-323.33 1094.99,-322.54 1097.51,-321.68"/>
<polygon fill="black" stroke="black" points="1098.93,-324.89 1107.07,-318.11 1096.48,-318.33 1098.93,-324.89"/>
</g>
<!-- ItemType&#45;&gt;Spec -->
<g id="edge31" class="edge">
<title>ItemType&#45;&gt;Spec</title>
<path fill="none" stroke="black" d="M690.76,-433.35C678.35,-423.72 663.35,-410.47 653,-396 606.22,-330.61 578.09,-272.79 635,-216 704.83,-146.33 759.03,-206.67 854,-180 856.45,-179.31 858.96,-178.53 861.46,-177.68"/>
<polygon fill="black" stroke="black" points="862.82,-180.91 871,-174.17 860.4,-174.34 862.82,-180.91"/>
</g>
<!-- ItemType&#45;&gt;ListType -->
<g id="edge32" class="edge">
<title>ItemType&#45;&gt;ListType</title>
<path fill="none" stroke="black" d="M707.12,-432.05C706.3,-424.35 706.06,-415.03 706.39,-406.36"/>
<polygon fill="black" stroke="black" points="709.89,-406.49 707.09,-396.28 702.91,-406.01 709.89,-406.49"/>
</g>
<!-- Label&#45;&gt;Spec -->
<g id="edge33" class="edge">
<title>Label&#45;&gt;Spec</title>
<path fill="none" stroke="black" d="M774.27,-220.97C798.54,-209.41 835.38,-191.87 862.17,-179.11"/>
<polygon fill="black" stroke="black" points="864.02,-182.1 871.55,-174.64 861.01,-175.78 864.02,-182.1"/>
</g>
<!-- Title&#45;&gt;Spec -->
<g id="edge34" class="edge">
<title>Title&#45;&gt;Spec</title>
<path fill="none" stroke="black" d="M1107.13,-293.7C1101.61,-291.48 1095.68,-289.41 1090,-288 1006.38,-267.27 762.02,-315.68 704,-252 693.22,-240.17 694.09,-228.56 704,-216 746.45,-162.16 788.71,-200.92 854,-180 856.43,-179.22 858.91,-178.37 861.4,-177.47"/>
<polygon fill="black" stroke="black" points="862.8,-180.69 870.9,-173.87 860.31,-174.14 862.8,-180.69"/>
</g>
<!-- Citation -->
<g id="node38" class="node">
<title>Citation</title>
<ellipse fill="none" stroke="darkviolet" cx="2131" cy="-306" rx="48.19" ry="18"/>
<text text-anchor="middle" x="2131" y="-302.3" font-family="Times,serif" font-size="14.00">Citation</text>
</g>
<!-- EntryID -->
<g id="node39" class="node">
<title>EntryID</title>
<ellipse fill="none" stroke="black" cx="2131" cy="-234" rx="48.19" ry="18"/>
<text text-anchor="middle" x="2131" y="-230.3" font-family="Times,serif" font-size="14.00">EntryID</text>
</g>
<!-- Citation&#45;&gt;EntryID -->
<g id="edge35" class="edge">
<title>Citation&#45;&gt;EntryID</title>
<path fill="none" stroke="black" d="M2131,-287.7C2131,-279.98 2131,-270.71 2131,-262.11"/>
<polygon fill="black" stroke="black" points="2134.5,-262.1 2131,-252.1 2127.5,-262.1 2134.5,-262.1"/>
</g>
<!-- CitationKind -->
<g id="node40" class="node">
<title>CitationKind</title>
<ellipse fill="none" stroke="black" cx="2267" cy="-234" rx="69.59" ry="18"/>
<text text-anchor="middle" x="2267" y="-230.3" font-family="Times,serif" font-size="14.00">CitationKind</text>
</g>
<!-- Citation&#45;&gt;CitationKind -->
<g id="edge36" class="edge">
<title>Citation&#45;&gt;CitationKind</title>
<path fill="none" stroke="black" d="M2158.19,-291C2178.22,-280.69 2205.75,-266.53 2228.1,-255.02"/>
<polygon fill="black" stroke="black" points="2229.73,-258.12 2237.02,-250.43 2226.52,-251.9 2229.73,-258.12"/>
</g>
<!-- CiteField -->
<g id="node41" class="node">
<title>CiteField</title>
<ellipse fill="none" stroke="darkviolet" cx="2012" cy="-234" rx="53.09" ry="18"/>
<text text-anchor="middle" x="2012" y="-230.3" font-family="Times,serif" font-size="14.00">CiteField</text>
</g>
<!-- Citation&#45;&gt;CiteField -->
<g id="edge37" class="edge">
<title>Citation&#45;&gt;CiteField</title>
<path fill="none" stroke="black" d="M2106.34,-290.5C2088.95,-280.26 2065.42,-266.42 2046.21,-255.12"/>
<polygon fill="black" stroke="black" points="2047.84,-252.02 2037.45,-249.97 2044.29,-258.06 2047.84,-252.02"/>
</g>
<!-- CiteField&#45;&gt;Spec -->
<g id="edge38" class="edge">
<title>CiteField&#45;&gt;Spec</title>
<path fill="none" stroke="black" d="M1959.23,-231.4C1757.18,-225.16 1039.09,-201.64 939,-180 936.13,-179.38 933.2,-178.59 930.3,-177.69"/>
<polygon fill="black" stroke="black" points="931.18,-174.29 920.58,-174.31 928.87,-180.9 931.18,-174.29"/>
</g>
<!-- People -->
<g id="node42" class="node">
<title>People</title>
<ellipse fill="none" stroke="black" cx="2012" cy="-162" rx="41.69" ry="18"/>
<text text-anchor="middle" x="2012" y="-158.3" font-family="Times,serif" font-size="14.00">People</text>
</g>
<!-- CiteField&#45;&gt;People -->
<g id="edge39" class="edge">
<title>CiteField&#45;&gt;People</title>
<path fill="none" stroke="black" d="M2012,-215.7C2012,-207.98 2012,-198.71 2012,-190.11"/>
<polygon fill="black" stroke="black" points="2015.5,-190.1 2012,-180.1 2008.5,-190.1 2015.5,-190.1"/>
</g>
<!-- HP -->
<g id="node43" class="node">
<title>HP</title>
<ellipse fill="none" stroke="darkviolet" cx="942" cy="-234" rx="27" ry="18"/>
<text text-anchor="middle" x="942" y="-230.3" font-family="Times,serif" font-size="14.00">HP</text>
</g>
<!-- HP&#45;&gt;Spec -->
<g id="edge40" class="edge">
<title>HP&#45;&gt;Spec</title>
<path fill="none" stroke="black" d="M931.56,-217.12C925.88,-208.47 918.72,-197.58 912.32,-187.83"/>
<polygon fill="black" stroke="black" points="915.13,-185.74 906.72,-179.31 909.28,-189.59 915.13,-185.74"/>
</g>
<!-- BibRef -->
<g id="node44" class="node">
<title>BibRef</title>
<ellipse fill="none" stroke="#ee0000" cx="2131" cy="-378" rx="42.49" ry="18"/>
<text text-anchor="middle" x="2131" y="-374.3" font-family="Times,serif" font-size="14.00">BibRef</text>
</g>
<!-- BibRef&#45;&gt;Citation -->
<g id="edge41" class="edge">
<title>BibRef&#45;&gt;Citation</title>
<path fill="none" stroke="black" d="M2131,-359.7C2131,-351.98 2131,-342.71 2131,-334.11"/>
<polygon fill="black" stroke="black" points="2134.5,-334.1 2131,-324.1 2127.5,-334.1 2134.5,-334.1"/>
</g>
<!-- Author&#45;&gt;Spec -->
<g id="edge58" class="edge">
<title>Author&#45;&gt;Spec</title>
<path fill="none" stroke="black" d="M1007.94,-293.71C1001.11,-291.55 993.87,-289.5 987,-288 917.95,-272.94 718.06,-304.73 671,-252 575.13,-144.59 617.03,-250.57 854,-180 856.44,-179.27 858.94,-178.46 861.43,-177.59"/>
<polygon fill="black" stroke="black" points="862.81,-180.81 870.96,-174.04 860.37,-174.25 862.81,-180.81"/>
</g>
<!-- LayoutObj&#45;&gt;Spec -->
<g id="edge54" class="edge">
<title>LayoutObj&#45;&gt;Spec</title>
<path fill="none" stroke="black" d="M1195.42,-293.8C1187.63,-291.84 1179.58,-289.84 1172,-288 1102.84,-271.25 1078.7,-285.65 1016,-252 995.5,-241 996.29,-230.38 978,-216 961.85,-203.3 942.61,-190.75 926.82,-181.05"/>
<polygon fill="black" stroke="black" points="928.35,-177.88 917.98,-175.69 924.72,-183.86 928.35,-177.88"/>
</g>
<!-- LayoutObj&#45;&gt;Label -->
<g id="edge55" class="edge">
<title>LayoutObj&#45;&gt;Label</title>
<path fill="none" stroke="black" d="M1197.04,-293.3C1188.79,-291.3 1180.16,-289.41 1172,-288 1005.72,-259.16 958.39,-290.16 794,-252 791.18,-251.34 788.29,-250.56 785.42,-249.68"/>
<polygon fill="black" stroke="black" points="786.36,-246.3 775.77,-246.44 784.13,-252.94 786.36,-246.3"/>
</g>
<!-- Tags -->
<g id="node52" class="node">
<title>Tags</title>
<ellipse fill="none" stroke="#ee0000" cx="980" cy="-162" rx="32.49" ry="18"/>
<text text-anchor="middle" x="980" y="-158.3" font-family="Times,serif" font-size="14.00">Tags</text>
</g>
<!-- LayoutObj&#45;&gt;Tags -->
<g id="edge53" class="edge">
<title>LayoutObj&#45;&gt;Tags</title>
<path fill="none" stroke="black" d="M1240.54,-287.94C1241.34,-267.81 1239.29,-234.69 1220,-216 1155.46,-153.45 1107.23,-205.36 1021,-180 1018.69,-179.32 1016.34,-178.56 1013.98,-177.73"/>
<polygon fill="black" stroke="black" points="1015,-174.38 1004.41,-174.12 1012.53,-180.93 1015,-174.38"/>
</g>
<!-- Bool -->
<g id="node53" class="node">
<title>Bool</title>
<ellipse fill="none" stroke="black" cx="1180" cy="-234" rx="31.4" ry="18"/>
<text text-anchor="middle" x="1180" y="-230.3" font-family="Times,serif" font-size="14.00">Bool</text>
</g>
<!-- LayoutObj&#45;&gt;Bool -->
<g id="edge56" class="edge">
<title>LayoutObj&#45;&gt;Bool</title>
<path fill="none" stroke="black" d="M1225.02,-288.41C1217.46,-279.44 1208,-268.21 1199.7,-258.37"/>
<polygon fill="black" stroke="black" points="1202.19,-255.9 1193.07,-250.51 1196.84,-260.41 1202.19,-255.9"/>
</g>
<!-- Caption -->
<g id="node54" class="node">
<title>Caption</title>
<ellipse fill="none" stroke="#ee0000" cx="850" cy="-234" rx="46.59" ry="18"/>
<text text-anchor="middle" x="850" y="-230.3" font-family="Times,serif" font-size="14.00">Caption</text>
</g>
<!-- LayoutObj&#45;&gt;Caption -->
<g id="edge57" class="edge">
<title>LayoutObj&#45;&gt;Caption</title>
<path fill="none" stroke="black" d="M1196.63,-293.47C1188.49,-291.48 1180.01,-289.55 1172,-288 1054.88,-265.29 1022.56,-277.41 906,-252 902.15,-251.16 898.17,-250.18 894.2,-249.13"/>
<polygon fill="black" stroke="black" points="895,-245.72 884.42,-246.4 893.11,-252.46 895,-245.72"/>
</g>
<!-- Project -->
<g id="node47" class="node">
<title>Project</title>
<ellipse fill="none" stroke="darkviolet" cx="1042" cy="-450" rx="44.39" ry="18"/>
<text text-anchor="middle" x="1042" y="-446.3" font-family="Times,serif" font-size="14.00">Project</text>
</g>
<!-- Project&#45;&gt;Title -->
<g id="edge45" class="edge">
<title>Project&#45;&gt;Title</title>
<path fill="none" stroke="black" d="M1047.19,-432.02C1053.33,-413.4 1064.7,-383.11 1080,-360 1087.49,-348.69 1097.55,-337.64 1106.75,-328.58"/>
<polygon fill="black" stroke="black" points="1109.38,-330.91 1114.21,-321.47 1104.55,-325.84 1109.38,-330.91"/>
</g>
<!-- Project&#45;&gt;Author -->
<g id="edge46" class="edge">
<title>Project&#45;&gt;Author</title>
<path fill="none" stroke="black" d="M1041.64,-431.87C1041.13,-407.67 1040.19,-363.21 1039.58,-334.39"/>
<polygon fill="black" stroke="black" points="1043.07,-334.11 1039.36,-324.19 1036.08,-334.26 1043.07,-334.11"/>
</g>
<!-- RefMap -->
<g id="node48" class="node">
<title>RefMap</title>
<ellipse fill="none" stroke="#ee0000" cx="904" cy="-378" rx="46.59" ry="18"/>
<text text-anchor="middle" x="904" y="-374.3" font-family="Times,serif" font-size="14.00">RefMap</text>
</g>
<!-- Project&#45;&gt;RefMap -->
<g id="edge47" class="edge">
<title>Project&#45;&gt;RefMap</title>
<path fill="none" stroke="black" d="M1015.39,-435.5C994.1,-424.7 964,-409.44 940.46,-397.5"/>
<polygon fill="black" stroke="black" points="941.97,-394.34 931.47,-392.93 938.81,-400.58 941.97,-394.34"/>
</g>
<!-- File -->
<g id="node49" class="node">
<title>File</title>
<ellipse fill="none" stroke="darkviolet" cx="1344" cy="-378" rx="28.7" ry="18"/>
<text text-anchor="middle" x="1344" y="-374.3" font-family="Times,serif" font-size="14.00">File</text>
</g>
<!-- Project&#45;&gt;File -->
<g id="edge48" class="edge">
<title>Project&#45;&gt;File</title>
<path fill="none" stroke="black" d="M1083.42,-443.6C1136.03,-436.08 1229.19,-420.55 1306,-396 1308.27,-395.28 1310.58,-394.46 1312.88,-393.58"/>
<polygon fill="black" stroke="black" points="1314.31,-396.78 1322.22,-389.74 1311.64,-390.31 1314.31,-396.78"/>
</g>
<!-- MapStringFilename -->
<g id="node62" class="node">
<title>MapStringFilename</title>
<ellipse fill="none" stroke="black" cx="875" cy="-306" rx="103.18" ry="18"/>
<text text-anchor="middle" x="875" y="-302.3" font-family="Times,serif" font-size="14.00">MapStringFilename</text>
</g>
<!-- RefMap&#45;&gt;MapStringFilename -->
<g id="edge68" class="edge">
<title>RefMap&#45;&gt;MapStringFilename</title>
<path fill="none" stroke="black" d="M896.98,-360.05C893.72,-352.18 889.76,-342.62 886.1,-333.79"/>
<polygon fill="black" stroke="black" points="889.22,-332.17 882.16,-324.28 882.75,-334.85 889.22,-332.17"/>
</g>
<!-- File&#45;&gt;Title -->
<g id="edge49" class="edge">
<title>File&#45;&gt;Title</title>
<path fill="none" stroke="black" d="M1321.73,-366.33C1316.63,-364.09 1311.18,-361.84 1306,-360 1247.89,-339.34 1230.38,-343.85 1172,-324 1169.72,-323.23 1167.39,-322.39 1165.05,-321.51"/>
<polygon fill="black" stroke="black" points="1166.1,-318.17 1155.52,-317.78 1163.55,-324.68 1166.1,-318.17"/>
</g>
<!-- File&#45;&gt;LayoutObj -->
<g id="edge52" class="edge">
<title>File&#45;&gt;LayoutObj</title>
<path fill="none" stroke="black" d="M1324.74,-364.16C1309.82,-354.21 1288.81,-340.21 1271.32,-328.55"/>
<polygon fill="black" stroke="black" points="1272.81,-325.33 1262.55,-322.7 1268.93,-331.16 1272.81,-325.33"/>
</g>
<!-- Filename -->
<g id="node50" class="node">
<title>Filename</title>
<ellipse fill="none" stroke="#ee0000" cx="1634" cy="-162" rx="53.89" ry="18"/>
<text text-anchor="middle" x="1634" y="-158.3" font-family="Times,serif" font-size="14.00">Filename</text>
</g>
<!-- File&#45;&gt;Filename -->
<g id="edge50" class="edge">
<title>File&#45;&gt;Filename</title>
<path fill="none" stroke="black" d="M1350.12,-360.26C1362.98,-327.44 1395.99,-254.52 1448,-216 1484.29,-189.13 1533.78,-175.86 1572.59,-169.32"/>
<polygon fill="black" stroke="black" points="1573.39,-172.74 1582.72,-167.73 1572.3,-165.83 1573.39,-172.74"/>
</g>
<!-- Depth -->
<g id="node51" class="node">
<title>Depth</title>
<ellipse fill="none" stroke="#ee0000" cx="1478" cy="-306" rx="38.99" ry="18"/>
<text text-anchor="middle" x="1478" y="-302.3" font-family="Times,serif" font-size="14.00">Depth</text>
</g>
<!-- File&#45;&gt;Depth -->
<g id="edge51" class="edge">
<title>File&#45;&gt;Depth</title>
<path fill="none" stroke="black" d="M1365.23,-365.91C1386.43,-354.83 1419.35,-337.64 1444.16,-324.68"/>
<polygon fill="black" stroke="black" points="1445.98,-327.67 1453.22,-319.94 1442.74,-321.47 1445.98,-327.67"/>
</g>
<!-- Filename&#45;&gt;String -->
<g id="edge66" class="edge">
<title>Filename&#45;&gt;String</title>
<path fill="none" stroke="black" d="M1660.27,-146.2C1673.64,-137.09 1688.59,-124.08 1696,-108 1702.7,-93.47 1704.16,-85.76 1696,-72 1684.39,-52.43 1662.72,-39.61 1642.8,-31.5"/>
<polygon fill="black" stroke="black" points="1643.81,-28.14 1633.22,-27.88 1641.34,-34.69 1643.81,-28.14"/>
</g>
<!-- Int -->
<g id="node57" class="node">
<title>Int</title>
<ellipse fill="none" stroke="black" cx="1484" cy="-234" rx="27" ry="18"/>
<text text-anchor="middle" x="1484" y="-230.3" font-family="Times,serif" font-size="14.00">Int</text>
</g>
<!-- Depth&#45;&gt;Int -->
<g id="edge62" class="edge">
<title>Depth&#45;&gt;Int</title>
<path fill="none" stroke="black" d="M1479.48,-287.7C1480.14,-279.98 1480.94,-270.71 1481.68,-262.11"/>
<polygon fill="black" stroke="black" points="1485.17,-262.37 1482.53,-252.1 1478.19,-261.77 1485.17,-262.37"/>
</g>
<!-- Tags&#45;&gt;String -->
<g id="edge61" class="edge">
<title>Tags&#45;&gt;String</title>
<path fill="none" stroke="black" d="M1003.77,-149.65C1023.38,-139.81 1051.54,-124.58 1074,-108 1092.72,-94.18 1090.89,-81.77 1112,-72 1188.83,-36.45 1440.67,-24.14 1548.87,-20.42"/>
<polygon fill="black" stroke="black" points="1549,-23.92 1558.88,-20.09 1548.77,-16.92 1549,-23.92"/>
</g>
<!-- Caption&#45;&gt;Spec -->
<g id="edge67" class="edge">
<title>Caption&#45;&gt;Spec</title>
<path fill="none" stroke="black" d="M860.9,-216.41C866.46,-207.95 873.33,-197.49 879.52,-188.08"/>
<polygon fill="black" stroke="black" points="882.61,-189.75 885.18,-179.47 876.76,-185.9 882.61,-189.75"/>
</g>
<!-- Contents -->
<g id="node55" class="node">
<title>Contents</title>
<ellipse fill="none" stroke="#ee0000" cx="523" cy="-234" rx="52.79" ry="18"/>
<text text-anchor="middle" x="523" y="-230.3" font-family="Times,serif" font-size="14.00">Contents</text>
</g>
<!-- Contents&#45;&gt;Spec -->
<g id="edge59" class="edge">
<title>Contents&#45;&gt;Spec</title>
<path fill="none" stroke="black" d="M562.87,-222.1C571.76,-219.89 581.16,-217.72 590,-216 706.24,-193.4 739.56,-210.45 854,-180 856.62,-179.3 859.29,-178.49 861.96,-177.59"/>
<polygon fill="black" stroke="black" points="863.29,-180.84 871.48,-174.11 860.88,-174.26 863.29,-180.84"/>
</g>
<!-- Items -->
<g id="node56" class="node">
<title>Items</title>
<ellipse fill="none" stroke="#ee0000" cx="1260" cy="-378" rx="37.09" ry="18"/>
<text text-anchor="middle" x="1260" y="-374.3" font-family="Times,serif" font-size="14.00">Items</text>
</g>
<!-- Items&#45;&gt;LayoutObj -->
<g id="edge60" class="edge">
<title>Items&#45;&gt;LayoutObj</title>
<path fill="none" stroke="black" d="M1254.92,-360.05C1252.58,-352.26 1249.75,-342.82 1247.12,-334.08"/>
<polygon fill="black" stroke="black" points="1250.41,-332.85 1244.18,-324.28 1243.7,-334.86 1250.41,-332.85"/>
</g>
<!-- Width -->
<g id="node58" class="node">
<title>Width</title>
<ellipse fill="none" stroke="#ee0000" cx="2226" cy="-450" rx="38.19" ry="18"/>
<text text-anchor="middle" x="2226" y="-446.3" font-family="Times,serif" font-size="14.00">Width</text>
</g>
<!-- Float -->
<g id="node59" class="node">
<title>Float</title>
<ellipse fill="none" stroke="black" cx="2226" cy="-378" rx="34.39" ry="18"/>
<text text-anchor="middle" x="2226" y="-374.3" font-family="Times,serif" font-size="14.00">Float</text>
</g>
<!-- Width&#45;&gt;Float -->
<g id="edge63" class="edge">
<title>Width&#45;&gt;Float</title>
<path fill="none" stroke="black" d="M2226,-431.7C2226,-423.98 2226,-414.71 2226,-406.11"/>
<polygon fill="black" stroke="black" points="2229.5,-406.1 2226,-396.1 2222.5,-406.1 2229.5,-406.1"/>
</g>
<!-- Height -->
<g id="node60" class="node">
<title>Height</title>
<ellipse fill="none" stroke="#ee0000" cx="2325" cy="-450" rx="42.49" ry="18"/>
<text text-anchor="middle" x="2325" y="-446.3" font-family="Times,serif" font-size="14.00">Height</text>
</g>
<!-- Height&#45;&gt;Float -->
<g id="edge64" class="edge">
<title>Height&#45;&gt;Float</title>
<path fill="none" stroke="black" d="M2304,-434.15C2289.45,-423.86 2269.9,-410.04 2254.01,-398.81"/>
<polygon fill="black" stroke="black" points="2255.8,-395.79 2245.62,-392.87 2251.76,-401.5 2255.8,-395.79"/>
</g>
<!-- Filepath -->
<g id="node61" class="node">
<title>Filepath</title>
<ellipse fill="none" stroke="#ee0000" cx="1547" cy="-90" rx="49.29" ry="18"/>
<text text-anchor="middle" x="1547" y="-86.3" font-family="Times,serif" font-size="14.00">Filepath</text>
</g>
<!-- Filepath&#45;&gt;String -->
<g id="edge65" class="edge">
<title>Filepath&#45;&gt;String</title>
<path fill="none" stroke="black" d="M1559.32,-72.41C1565.67,-63.87 1573.54,-53.28 1580.59,-43.79"/>
<polygon fill="black" stroke="black" points="1583.61,-45.58 1586.77,-35.47 1577.99,-41.41 1583.61,-45.58"/>
</g>
<!-- PrintingInformation -->
<g id="node63" class="node">
<title>PrintingInformation</title>
<ellipse fill="none" stroke="#00cdcd" cx="2578" cy="-450" rx="103.18" ry="18"/>
<text text-anchor="middle" x="2578" y="-446.3" font-family="Times,serif" font-size="14.00">PrintingInformation</text>
</g>
<!-- ChunkDB -->
<g id="node64" class="node">
<title>ChunkDB</title>
<ellipse fill="none" stroke="black" cx="2333" cy="-378" rx="54.69" ry="18"/>
<text text-anchor="middle" x="2333" y="-374.3" font-family="Times,serif" font-size="14.00">ChunkDB</text>
</g>
<!-- PrintingInformation&#45;&gt;ChunkDB -->
<g id="edge69" class="edge">
<title>PrintingInformation&#45;&gt;ChunkDB</title>
<path fill="none" stroke="black" d="M2526.64,-434.33C2484.29,-422.23 2424.59,-405.17 2382.7,-393.2"/>
<polygon fill="black" stroke="black" points="2383.56,-389.81 2372.99,-390.43 2381.64,-396.54 2383.56,-389.81"/>
</g>
<!-- MapUIDReference -->
<g id="node65" class="node">
<title>MapUIDReference</title>
<ellipse fill="none" stroke="black" cx="2502" cy="-378" rx="96.68" ry="18"/>
<text text-anchor="middle" x="2502" y="-374.3" font-family="Times,serif" font-size="14.00">MapUIDReference</text>
</g>
<!-- PrintingInformation&#45;&gt;MapUIDReference -->
<g id="edge70" class="edge">
<title>PrintingInformation&#45;&gt;MapUIDReference</title>
<path fill="none" stroke="black" d="M2559.6,-432.05C2550.08,-423.28 2538.3,-412.43 2527.87,-402.83"/>
<polygon fill="black" stroke="black" points="2529.95,-399.99 2520.23,-395.79 2525.21,-405.14 2529.95,-399.99"/>
</g>
<!-- Stage -->
<g id="node66" class="node">
<title>Stage</title>
<ellipse fill="none" stroke="black" cx="2655" cy="-378" rx="37.89" ry="18"/>
<text text-anchor="middle" x="2655" y="-374.3" font-family="Times,serif" font-size="14.00">Stage</text>
</g>
<!-- PrintingInformation&#45;&gt;Stage -->
<g id="edge71" class="edge">
<title>PrintingInformation&#45;&gt;Stage</title>
<path fill="none" stroke="black" d="M2596.64,-432.05C2606.81,-422.81 2619.53,-411.25 2630.49,-401.28"/>
<polygon fill="black" stroke="black" points="2633.06,-403.67 2638.11,-394.36 2628.35,-398.49 2633.06,-403.67"/>
</g>
<!-- PrintingConfiguration -->
<g id="node67" class="node">
<title>PrintingConfiguration</title>
<ellipse fill="none" stroke="darkgreen" cx="2823" cy="-378" rx="112.38" ry="18"/>
<text text-anchor="middle" x="2823" y="-374.3" font-family="Times,serif" font-size="14.00">PrintingConfiguration</text>
</g>
<!-- PrintingInformation&#45;&gt;PrintingConfiguration -->
<g id="edge72" class="edge">
<title>PrintingInformation&#45;&gt;PrintingConfiguration</title>
<path fill="none" stroke="black" d="M2629.36,-434.33C2667.6,-423.4 2719.99,-408.43 2760.64,-396.82"/>
<polygon fill="black" stroke="black" points="2761.79,-400.13 2770.44,-394.02 2759.86,-393.4 2761.79,-400.13"/>
</g>
<!-- Notation -->
<g id="node68" class="node">
<title>Notation</title>
<ellipse fill="none" stroke="darkviolet" cx="2823" cy="-306" rx="51.19" ry="18"/>
<text text-anchor="middle" x="2823" y="-302.3" font-family="Times,serif" font-size="14.00">Notation</text>
</g>
<!-- PrintingConfiguration&#45;&gt;Notation -->
<g id="edge73" class="edge">
<title>PrintingConfiguration&#45;&gt;Notation</title>
<path fill="none" stroke="black" d="M2823,-359.7C2823,-351.98 2823,-342.71 2823,-334.11"/>
<polygon fill="black" stroke="black" points="2826.5,-334.1 2823,-324.1 2819.5,-334.1 2826.5,-334.1"/>
</g>
<!-- MathContext -->
<g id="node69" class="node">
<title>MathContext</title>
<ellipse fill="none" stroke="darkviolet" cx="2771" cy="-450" rx="71.49" ry="18"/>
<text text-anchor="middle" x="2771" y="-446.3" font-family="Times,serif" font-size="14.00">MathContext</text>
</g>
<!-- Latex -->
<g id="node70" class="node">
<title>Latex</title>
<ellipse fill="none" stroke="darkgreen" cx="1651" cy="-90" rx="36.29" ry="18"/>
<text text-anchor="middle" x="1651" y="-86.3" font-family="Times,serif" font-size="14.00">Latex</text>
</g>
<!-- Latex&#45;&gt;String -->
<g id="edge74" class="edge">
<title>Latex&#45;&gt;String</title>
<path fill="none" stroke="black" d="M1638.94,-72.76C1632.53,-64.14 1624.53,-53.36 1617.37,-43.73"/>
<polygon fill="black" stroke="black" points="1620.13,-41.57 1611.36,-35.63 1614.51,-45.75 1620.13,-41.57"/>
</g>
<!-- D -->
<g id="node71" class="node">
<title>D</title>
<ellipse fill="none" stroke="#ee0000" cx="1213" cy="-162" rx="27" ry="18"/>
<text text-anchor="middle" x="1213" y="-158.3" font-family="Times,serif" font-size="14.00">D</text>
</g>
<!-- D&#45;&gt;Doc -->
<g id="edge75" class="edge">
<title>D&#45;&gt;Doc</title>
<path fill="none" stroke="black" d="M1199.64,-146.15C1191.23,-136.82 1180.22,-124.57 1170.7,-114"/>
<polygon fill="black" stroke="black" points="1173.07,-111.4 1163.78,-106.31 1167.87,-116.08 1173.07,-111.4"/>
</g>
<!-- Package -->
<g id="node72" class="node">
<title>Package</title>
<ellipse fill="none" stroke="darkviolet" cx="2909" cy="-450" rx="48.99" ry="18"/>
<text text-anchor="middle" x="2909" y="-446.3" font-family="Times,serif" font-size="14.00">Package</text>
</g>
<!-- Def -->
<g id="node73" class="node">
<title>Def</title>
<ellipse fill="none" stroke="darkviolet" cx="3003" cy="-450" rx="27" ry="18"/>
<text text-anchor="middle" x="3003" y="-446.3" font-family="Times,serif" font-size="14.00">Def</text>
</g>
<!-- FieldWrap -->
<g id="node74" class="node">
<title>FieldWrap</title>
<ellipse fill="none" stroke="darkviolet" cx="1325" cy="-234" rx="58.49" ry="18"/>
<text text-anchor="middle" x="1325" y="-230.3" font-family="Times,serif" font-size="14.00">FieldWrap</text>
</g>
<!-- FieldWrap&#45;&gt;String -->
<g id="edge77" class="edge">
<title>FieldWrap&#45;&gt;String</title>
<path fill="none" stroke="black" d="M1372.07,-223.17C1398.43,-215.47 1430.09,-202.2 1451,-180 1485.89,-142.96 1455.06,-109.92 1489,-72 1506.49,-52.46 1532.76,-39.43 1555.24,-31.18"/>
<polygon fill="black" stroke="black" points="1556.63,-34.4 1564.93,-27.83 1554.34,-27.79 1556.63,-34.4"/>
</g>
<!-- FieldWrap&#45;&gt;Spec -->
<g id="edge79" class="edge">
<title>FieldWrap&#45;&gt;Spec</title>
<path fill="none" stroke="black" d="M1275.11,-224.58C1257.69,-221.73 1238,-218.61 1220,-216 1095.39,-197.94 1060.93,-211.39 939,-180 936.23,-179.29 933.4,-178.44 930.58,-177.52"/>
<polygon fill="black" stroke="black" points="931.71,-174.21 921.12,-174.14 929.36,-180.8 931.71,-174.21"/>
</g>
<!-- FieldWrap&#45;&gt;D -->
<g id="edge80" class="edge">
<title>FieldWrap&#45;&gt;D</title>
<path fill="none" stroke="black" d="M1300.42,-217.64C1282.71,-206.57 1258.81,-191.63 1240.47,-180.17"/>
<polygon fill="black" stroke="black" points="1242.3,-177.19 1231.97,-174.85 1238.59,-183.12 1242.3,-177.19"/>
</g>
<!-- FieldWrap&#45;&gt;FieldWrap -->
<g id="edge78" class="edge">
<title>FieldWrap&#45;&gt;FieldWrap</title>
<path fill="none" stroke="black" d="M1365.14,-247.17C1384.45,-248.8 1401.49,-244.41 1401.49,-234 1401.49,-225.46 1390.03,-220.98 1375.25,-220.54"/>
<polygon fill="black" stroke="black" points="1375.04,-217.04 1365.14,-220.83 1375.24,-224.04 1375.04,-217.04"/>
</g>
<!-- StyleGuide -->
<g id="node75" class="node">
<title>StyleGuide</title>
<ellipse fill="none" stroke="darkviolet" cx="1805" cy="-90" rx="61.99" ry="18"/>
<text text-anchor="middle" x="1805" y="-86.3" font-family="Times,serif" font-size="14.00">StyleGuide</text>
</g>
<!-- StyleGuide&#45;&gt;String -->
<g id="edge82" class="edge">
<title>StyleGuide&#45;&gt;String</title>
<path fill="none" stroke="black" d="M1766.25,-75.83C1730.24,-63.6 1676.79,-45.43 1640.06,-32.95"/>
<polygon fill="black" stroke="black" points="1640.77,-29.5 1630.17,-29.59 1638.51,-36.12 1640.77,-29.5"/>
</g>
<!-- StyleGuide&#45;&gt;StyleGuide -->
<g id="edge81" class="edge">
<title>StyleGuide&#45;&gt;StyleGuide</title>
<path fill="none" stroke="black" d="M1847.26,-103.2C1867.22,-104.74 1884.74,-100.34 1884.74,-90 1884.74,-81.44 1872.72,-76.95 1857.25,-76.53"/>
<polygon fill="black" stroke="black" points="1857.16,-73.03 1847.26,-76.8 1857.34,-80.03 1857.16,-73.03"/>
</g>
</g>
</svg>
