<?xml version="1.0" encoding="UTF-8" standalone="no"?>
<!DOCTYPE svg PUBLIC "-//W3C//DTD SVG 1.1//EN"
 "http://www.w3.org/Graphics/SVG/1.1/DTD/svg11.dtd">
<!-- Generated by graphviz version 2.43.0 (0)
 -->
<!-- Title: alltypes Pages: 1 -->
<svg width="2763pt" height="476pt"
 viewBox="0.00 0.00 2763.24 476.00" xmlns="http://www.w3.org/2000/svg" xmlns:xlink="http://www.w3.org/1999/xlink">
<g id="graph0" class="graph" transform="scale(1 1) rotate(0) translate(4 472)">
<title>alltypes</title>
<polygon fill="white" stroke="transparent" points="-4,4 -4,-472 2759.24,-472 2759.24,4 -4,4"/>
<!-- UIDMap -->
<g id="node1" class="node">
<title>UIDMap</title>
<ellipse fill="none" stroke="#ee0000" cx="68.24" cy="-450" rx="50.09" ry="18"/>
<text text-anchor="middle" x="68.24" y="-446.3" font-family="Times,serif" font-size="14.00">UIDMap</text>
</g>
<!-- MapUIDUID -->
<g id="node2" class="node">
<title>MapUIDUID</title>
<ellipse fill="none" stroke="black" cx="68.24" cy="-378" rx="68.49" ry="18"/>
<text text-anchor="middle" x="68.24" y="-374.3" font-family="Times,serif" font-size="14.00">MapUIDUID</text>
</g>
<!-- UIDMap&#45;&gt;MapUIDUID -->
<g id="edge1" class="edge">
<title>UIDMap&#45;&gt;MapUIDUID</title>
<path fill="none" stroke="black" d="M68.24,-431.7C68.24,-423.98 68.24,-414.71 68.24,-406.11"/>
<polygon fill="black" stroke="black" points="71.74,-406.1 68.24,-396.1 64.74,-406.1 71.74,-406.1"/>
</g>
<!-- BibFormatter -->
<g id="node3" class="node">
<title>BibFormatter</title>
<ellipse fill="none" stroke="#00cdcd" cx="929.24" cy="-162" rx="73.39" ry="18"/>
<text text-anchor="middle" x="929.24" y="-158.3" font-family="Times,serif" font-size="14.00">BibFormatter</text>
</g>
<!-- Doc -->
<g id="node4" class="node">
<title>Doc</title>
<ellipse fill="none" stroke="black" cx="710.24" cy="-90" rx="28.7" ry="18"/>
<text text-anchor="middle" x="710.24" y="-86.3" font-family="Times,serif" font-size="14.00">Doc</text>
</g>
<!-- BibFormatter&#45;&gt;Doc -->
<g id="edge2" class="edge">
<title>BibFormatter&#45;&gt;Doc</title>
<path fill="none" stroke="black" d="M879.55,-148.65C842.6,-138.96 791.18,-124.39 747.24,-108 745.41,-107.31 743.53,-106.58 741.65,-105.81"/>
<polygon fill="black" stroke="black" points="742.89,-102.53 732.32,-101.79 740.12,-108.96 742.89,-102.53"/>
</g>
<!-- SpecDoc -->
<g id="node5" class="node">
<title>SpecDoc</title>
<ellipse fill="none" stroke="black" cx="807.24" cy="-90" rx="50.89" ry="18"/>
<text text-anchor="middle" x="807.24" y="-86.3" font-family="Times,serif" font-size="14.00">SpecDoc</text>
</g>
<!-- BibFormatter&#45;&gt;SpecDoc -->
<g id="edge3" class="edge">
<title>BibFormatter&#45;&gt;SpecDoc</title>
<path fill="none" stroke="black" d="M901.86,-145.29C884.03,-135.06 860.63,-121.63 841.56,-110.69"/>
<polygon fill="black" stroke="black" points="843.28,-107.64 832.86,-105.7 839.8,-113.71 843.28,-107.64"/>
</g>
<!-- Variation -->
<g id="node6" class="node">
<title>Variation</title>
<ellipse fill="none" stroke="darkviolet" cx="352.24" cy="-162" rx="52.79" ry="18"/>
<text text-anchor="middle" x="352.24" y="-158.3" font-family="Times,serif" font-size="14.00">Variation</text>
</g>
<!-- Variation&#45;&gt;Doc -->
<g id="edge13" class="edge">
<title>Variation&#45;&gt;Doc</title>
<path fill="none" stroke="black" d="M391.12,-149.67C398.75,-147.63 406.72,-145.64 414.24,-144 511.04,-122.87 536.97,-126.82 634.24,-108 647.21,-105.49 661.34,-102.42 673.86,-99.59"/>
<polygon fill="black" stroke="black" points="674.98,-102.92 683.94,-97.28 673.41,-96.1 674.98,-102.92"/>
</g>
<!-- td -->
<g id="node11" class="node">
<title>td</title>
<ellipse fill="none" stroke="black" cx="496.24" cy="-90" rx="27" ry="18"/>
<text text-anchor="middle" x="496.24" y="-86.3" font-family="Times,serif" font-size="14.00">td</text>
</g>
<!-- Variation&#45;&gt;td -->
<g id="edge8" class="edge">
<title>Variation&#45;&gt;td</title>
<path fill="none" stroke="black" d="M381.38,-146.83C406.02,-134.86 441.17,-117.77 466.08,-105.66"/>
<polygon fill="black" stroke="black" points="467.62,-108.8 475.09,-101.28 464.56,-102.51 467.62,-108.8"/>
</g>
<!-- figure -->
<g id="node12" class="node">
<title>figure</title>
<ellipse fill="none" stroke="black" cx="197.24" cy="-90" rx="38.19" ry="18"/>
<text text-anchor="middle" x="197.24" y="-86.3" font-family="Times,serif" font-size="14.00">figure</text>
</g>
<!-- Variation&#45;&gt;figure -->
<g id="edge9" class="edge">
<title>Variation&#45;&gt;figure</title>
<path fill="none" stroke="black" d="M321.62,-147.17C296.24,-135.71 260.12,-119.39 233.33,-107.3"/>
<polygon fill="black" stroke="black" points="234.48,-103.98 223.93,-103.05 231.6,-110.36 234.48,-103.98"/>
</g>
<!-- li -->
<g id="node13" class="node">
<title>li</title>
<ellipse fill="none" stroke="black" cx="280.24" cy="-90" rx="27" ry="18"/>
<text text-anchor="middle" x="280.24" y="-86.3" font-family="Times,serif" font-size="14.00">li</text>
</g>
<!-- Variation&#45;&gt;li -->
<g id="edge10" class="edge">
<title>Variation&#45;&gt;li</title>
<path fill="none" stroke="black" d="M335.54,-144.76C325.65,-135.14 312.99,-122.84 302.29,-112.43"/>
<polygon fill="black" stroke="black" points="304.51,-109.71 294.9,-105.25 299.63,-114.73 304.51,-109.71"/>
</g>
<!-- pa -->
<g id="node14" class="node">
<title>pa</title>
<ellipse fill="none" stroke="black" cx="352.24" cy="-90" rx="27" ry="18"/>
<text text-anchor="middle" x="352.24" y="-86.3" font-family="Times,serif" font-size="14.00">pa</text>
</g>
<!-- Variation&#45;&gt;pa -->
<g id="edge11" class="edge">
<title>Variation&#45;&gt;pa</title>
<path fill="none" stroke="black" d="M352.24,-143.7C352.24,-135.98 352.24,-126.71 352.24,-118.11"/>
<polygon fill="black" stroke="black" points="355.74,-118.1 352.24,-108.1 348.74,-118.1 355.74,-118.1"/>
</g>
<!-- ba -->
<g id="node15" class="node">
<title>ba</title>
<ellipse fill="none" stroke="black" cx="424.24" cy="-90" rx="27" ry="18"/>
<text text-anchor="middle" x="424.24" y="-86.3" font-family="Times,serif" font-size="14.00">ba</text>
</g>
<!-- Variation&#45;&gt;ba -->
<g id="edge12" class="edge">
<title>Variation&#45;&gt;ba</title>
<path fill="none" stroke="black" d="M368.94,-144.76C378.84,-135.14 391.49,-122.84 402.2,-112.43"/>
<polygon fill="black" stroke="black" points="404.86,-114.73 409.59,-105.25 399.98,-109.71 404.86,-114.73"/>
</g>
<!-- PrintHTML -->
<g id="node7" class="node">
<title>PrintHTML</title>
<ellipse fill="none" stroke="darkgreen" cx="939.24" cy="-90" rx="63.09" ry="18"/>
<text text-anchor="middle" x="939.24" y="-86.3" font-family="Times,serif" font-size="14.00">PrintHTML</text>
</g>
<!-- String -->
<g id="node8" class="node">
<title>String</title>
<ellipse fill="none" stroke="black" cx="1159.24" cy="-18" rx="40.09" ry="18"/>
<text text-anchor="middle" x="1159.24" y="-14.3" font-family="Times,serif" font-size="14.00">String</text>
</g>
<!-- PrintHTML&#45;&gt;String -->
<g id="edge4" class="edge">
<title>PrintHTML&#45;&gt;String</title>
<path fill="none" stroke="black" d="M979.6,-76.16C1018.82,-63.68 1078.11,-44.81 1117.73,-32.21"/>
<polygon fill="black" stroke="black" points="1118.89,-35.51 1127.35,-29.15 1116.76,-28.84 1118.89,-35.51"/>
</g>
<!-- OpenClose -->
<g id="node9" class="node">
<title>OpenClose</title>
<ellipse fill="none" stroke="darkviolet" cx="1268.24" cy="-450" rx="60.39" ry="18"/>
<text text-anchor="middle" x="1268.24" y="-446.3" font-family="Times,serif" font-size="14.00">OpenClose</text>
</g>
<!-- OpenClose&#45;&gt;Doc -->
<g id="edge7" class="edge">
<title>OpenClose&#45;&gt;Doc</title>
<path fill="none" stroke="black" d="M1260.15,-431.92C1238.22,-387.75 1173.03,-269.44 1080.24,-216 989.45,-163.7 941.33,-226.13 847.24,-180 826.35,-169.76 828.11,-157.61 809.24,-144 797.4,-135.45 765.5,-118.75 741.08,-106.37"/>
<polygon fill="black" stroke="black" points="742.65,-103.24 732.15,-101.86 739.5,-109.49 742.65,-103.24"/>
</g>
<!-- OpenClose&#45;&gt;String -->
<g id="edge5" class="edge">
<title>OpenClose&#45;&gt;String</title>
<path fill="none" stroke="black" d="M1297.81,-434.21C1354.74,-407.36 1473.24,-349.47 1473.24,-307 1473.24,-307 1473.24,-307 1473.24,-161 1473.24,-119.53 1476.37,-99.4 1445.24,-72 1410.48,-41.4 1281.45,-27.73 1209.06,-22.24"/>
<polygon fill="black" stroke="black" points="1209.04,-18.73 1198.81,-21.49 1208.53,-25.71 1209.04,-18.73"/>
</g>
<!-- OpenClose&#45;&gt;String -->
<g id="edge72" class="edge">
<title>OpenClose&#45;&gt;String</title>
<path fill="none" stroke="black" d="M1304.9,-435.66C1368.35,-409.5 1491.24,-350.25 1491.24,-307 1491.24,-307 1491.24,-307 1491.24,-161 1491.24,-119.53 1494.37,-99.4 1463.24,-72 1426.74,-39.86 1286.22,-26.4 1209.57,-21.47"/>
<polygon fill="black" stroke="black" points="1209.39,-17.95 1199.2,-20.83 1208.96,-24.94 1209.39,-17.95"/>
</g>
<!-- Document -->
<g id="node10" class="node">
<title>Document</title>
<ellipse fill="none" stroke="darkviolet" cx="707.24" cy="-378" rx="57.69" ry="18"/>
<text text-anchor="middle" x="707.24" y="-374.3" font-family="Times,serif" font-size="14.00">Document</text>
</g>
<!-- OpenClose&#45;&gt;Document -->
<g id="edge6" class="edge">
<title>OpenClose&#45;&gt;Document</title>
<path fill="none" stroke="black" d="M1209.69,-445.41C1116.81,-439.12 930.24,-424.01 774.24,-396 769.21,-395.1 763.99,-394.02 758.79,-392.86"/>
<polygon fill="black" stroke="black" points="759.4,-389.4 748.86,-390.53 757.8,-396.22 759.4,-389.4"/>
</g>
<!-- Title -->
<g id="node31" class="node">
<title>Title</title>
<ellipse fill="none" stroke="#ee0000" cx="691.24" cy="-306" rx="31.7" ry="18"/>
<text text-anchor="middle" x="691.24" y="-302.3" font-family="Times,serif" font-size="14.00">Title</text>
</g>
<!-- Document&#45;&gt;Title -->
<g id="edge38" class="edge">
<title>Document&#45;&gt;Title</title>
<path fill="none" stroke="black" d="M703.29,-359.7C701.53,-351.98 699.41,-342.71 697.44,-334.11"/>
<polygon fill="black" stroke="black" points="700.79,-333.07 695.15,-324.1 693.97,-334.63 700.79,-333.07"/>
</g>
<!-- Author -->
<g id="node39" class="node">
<title>Author</title>
<ellipse fill="none" stroke="#ee0000" cx="599.24" cy="-306" rx="42.49" ry="18"/>
<text text-anchor="middle" x="599.24" y="-302.3" font-family="Times,serif" font-size="14.00">Author</text>
</g>
<!-- Document&#45;&gt;Author -->
<g id="edge39" class="edge">
<title>Document&#45;&gt;Author</title>
<path fill="none" stroke="black" d="M683.28,-361.46C667.61,-351.31 647,-337.96 630.12,-327.01"/>
<polygon fill="black" stroke="black" points="631.97,-324.04 621.67,-321.54 628.16,-329.91 631.97,-324.04"/>
</g>
<!-- LayoutObj -->
<g id="node40" class="node">
<title>LayoutObj</title>
<ellipse fill="none" stroke="darkviolet" cx="799.24" cy="-306" rx="58.49" ry="18"/>
<text text-anchor="middle" x="799.24" y="-302.3" font-family="Times,serif" font-size="14.00">LayoutObj</text>
</g>
<!-- Document&#45;&gt;LayoutObj -->
<g id="edge40" class="edge">
<title>Document&#45;&gt;LayoutObj</title>
<path fill="none" stroke="black" d="M728.12,-361.12C740.5,-351.7 756.38,-339.61 770,-329.25"/>
<polygon fill="black" stroke="black" points="772.29,-331.9 778.13,-323.06 768.05,-326.33 772.29,-331.9"/>
</g>
<!-- SingleLine -->
<g id="node16" class="node">
<title>SingleLine</title>
<ellipse fill="none" stroke="darkviolet" cx="650.24" cy="-162" rx="59.59" ry="18"/>
<text text-anchor="middle" x="650.24" y="-158.3" font-family="Times,serif" font-size="14.00">SingleLine</text>
</g>
<!-- SingleLine&#45;&gt;Doc -->
<g id="edge16" class="edge">
<title>SingleLine&#45;&gt;Doc</title>
<path fill="none" stroke="black" d="M664.46,-144.41C672.15,-135.44 681.77,-124.21 690.21,-114.37"/>
<polygon fill="black" stroke="black" points="693.1,-116.38 696.95,-106.51 687.78,-111.83 693.1,-116.38"/>
</g>
<!-- SingleLine&#45;&gt;SingleLine -->
<g id="edge14" class="edge">
<title>SingleLine&#45;&gt;SingleLine</title>
<path fill="none" stroke="black" d="M691.07,-175.17C710.7,-176.8 728.04,-172.41 728.04,-162 728.04,-153.46 716.37,-148.98 701.34,-148.54"/>
<polygon fill="black" stroke="black" points="700.96,-145.05 691.07,-148.83 701.16,-152.04 700.96,-145.05"/>
</g>
<!-- Expr -->
<g id="node17" class="node">
<title>Expr</title>
<ellipse fill="none" stroke="darkviolet" cx="574.24" cy="-90" rx="33.29" ry="18"/>
<text text-anchor="middle" x="574.24" y="-86.3" font-family="Times,serif" font-size="14.00">Expr</text>
</g>
<!-- SingleLine&#45;&gt;Expr -->
<g id="edge15" class="edge">
<title>SingleLine&#45;&gt;Expr</title>
<path fill="none" stroke="black" d="M632.62,-144.76C622.28,-135.25 609.1,-123.1 597.88,-112.77"/>
<polygon fill="black" stroke="black" points="600.2,-110.15 590.48,-105.95 595.46,-115.3 600.2,-110.15"/>
</g>
<!-- Expr&#45;&gt;String -->
<g id="edge20" class="edge">
<title>Expr&#45;&gt;String</title>
<path fill="none" stroke="black" d="M602.51,-80.59C613.84,-77.49 627.08,-74.2 639.24,-72 810.14,-41.13 1016.13,-26.8 1109.23,-21.53"/>
<polygon fill="black" stroke="black" points="1109.7,-25.01 1119.49,-20.96 1109.31,-18.02 1109.7,-25.01"/>
</g>
<!-- Expr&#45;&gt;Expr -->
<g id="edge21" class="edge">
<title>Expr&#45;&gt;Expr</title>
<path fill="none" stroke="black" d="M597.92,-102.66C612.07,-105.47 625.39,-101.25 625.39,-90 625.39,-81.56 617.9,-77.08 608.18,-76.55"/>
<polygon fill="black" stroke="black" points="607.62,-73.09 597.92,-77.34 608.16,-80.06 607.62,-73.09"/>
</g>
<!-- Double -->
<g id="node25" class="node">
<title>Double</title>
<ellipse fill="none" stroke="black" cx="627.24" cy="-18" rx="43.59" ry="18"/>
<text text-anchor="middle" x="627.24" y="-14.3" font-family="Times,serif" font-size="14.00">Double</text>
</g>
<!-- Expr&#45;&gt;Double -->
<g id="edge18" class="edge">
<title>Expr&#45;&gt;Double</title>
<path fill="none" stroke="black" d="M586.27,-73.12C592.88,-64.38 601.23,-53.35 608.67,-43.54"/>
<polygon fill="black" stroke="black" points="611.65,-45.39 614.9,-35.31 606.07,-41.17 611.65,-45.39"/>
</g>
<!-- Integer -->
<g id="node26" class="node">
<title>Integer</title>
<ellipse fill="none" stroke="black" cx="521.24" cy="-18" rx="44.69" ry="18"/>
<text text-anchor="middle" x="521.24" y="-14.3" font-family="Times,serif" font-size="14.00">Integer</text>
</g>
<!-- Expr&#45;&gt;Integer -->
<g id="edge19" class="edge">
<title>Expr&#45;&gt;Integer</title>
<path fill="none" stroke="black" d="M562.22,-73.12C555.6,-64.38 547.25,-53.35 539.82,-43.54"/>
<polygon fill="black" stroke="black" points="542.42,-41.17 533.59,-35.31 536.84,-45.39 542.42,-41.17"/>
</g>
<!-- LinkType -->
<g id="node18" class="node">
<title>LinkType</title>
<ellipse fill="none" stroke="darkviolet" cx="638.24" cy="-234" rx="53.09" ry="18"/>
<text text-anchor="middle" x="638.24" y="-230.3" font-family="Times,serif" font-size="14.00">LinkType</text>
</g>
<!-- Spec -->
<g id="node19" class="node">
<title>Spec</title>
<ellipse fill="none" stroke="darkviolet" cx="456.24" cy="-162" rx="33.29" ry="18"/>
<text text-anchor="middle" x="456.24" y="-158.3" font-family="Times,serif" font-size="14.00">Spec</text>
</g>
<!-- LinkType&#45;&gt;Spec -->
<g id="edge17" class="edge">
<title>LinkType&#45;&gt;Spec</title>
<path fill="none" stroke="black" d="M603.93,-220.05C575.77,-209.39 534.88,-193.84 499.24,-180 496.73,-179.03 494.15,-178.01 491.54,-176.99"/>
<polygon fill="black" stroke="black" points="492.73,-173.7 482.15,-173.3 490.17,-180.22 492.73,-173.7"/>
</g>
<!-- Spec&#45;&gt;Expr -->
<g id="edge22" class="edge">
<title>Spec&#45;&gt;Expr</title>
<path fill="none" stroke="black" d="M477.89,-148.16C496.43,-137.16 523.35,-121.19 544.02,-108.93"/>
<polygon fill="black" stroke="black" points="545.92,-111.87 552.74,-103.76 542.35,-105.85 545.92,-111.87"/>
</g>
<!-- Ops -->
<g id="node20" class="node">
<title>Ops</title>
<ellipse fill="none" stroke="darkviolet" cx="1378.24" cy="-450" rx="28.7" ry="18"/>
<text text-anchor="middle" x="1378.24" y="-446.3" font-family="Times,serif" font-size="14.00">Ops</text>
</g>
<!-- Fence -->
<g id="node21" class="node">
<title>Fence</title>
<ellipse fill="none" stroke="darkviolet" cx="1465.24" cy="-450" rx="38.19" ry="18"/>
<text text-anchor="middle" x="1465.24" y="-446.3" font-family="Times,serif" font-size="14.00">Fence</text>
</g>
<!-- OverSymb -->
<g id="node22" class="node">
<title>OverSymb</title>
<ellipse fill="none" stroke="darkviolet" cx="1582.24" cy="-450" rx="59.59" ry="18"/>
<text text-anchor="middle" x="1582.24" y="-446.3" font-family="Times,serif" font-size="14.00">OverSymb</text>
</g>
<!-- Fonts -->
<g id="node23" class="node">
<title>Fonts</title>
<ellipse fill="none" stroke="darkviolet" cx="1696.24" cy="-450" rx="36.29" ry="18"/>
<text text-anchor="middle" x="1696.24" y="-446.3" font-family="Times,serif" font-size="14.00">Fonts</text>
</g>
<!-- Spacing -->
<g id="node24" class="node">
<title>Spacing</title>
<ellipse fill="none" stroke="darkviolet" cx="1798.24" cy="-450" rx="48.19" ry="18"/>
<text text-anchor="middle" x="1798.24" y="-446.3" font-family="Times,serif" font-size="14.00">Spacing</text>
</g>
<!-- ListType -->
<g id="node27" class="node">
<title>ListType</title>
<ellipse fill="none" stroke="darkviolet" cx="274.24" cy="-378" rx="50.89" ry="18"/>
<text text-anchor="middle" x="274.24" y="-374.3" font-family="Times,serif" font-size="14.00">ListType</text>
</g>
<!-- ItemType -->
<g id="node28" class="node">
<title>ItemType</title>
<ellipse fill="none" stroke="darkviolet" cx="274.24" cy="-450" rx="54.69" ry="18"/>
<text text-anchor="middle" x="274.24" y="-446.3" font-family="Times,serif" font-size="14.00">ItemType</text>
</g>
<!-- ListType&#45;&gt;ItemType -->
<g id="edge23" class="edge">
<title>ListType&#45;&gt;ItemType</title>
<path fill="none" stroke="black" d="M280.16,-396.28C280.96,-404.03 281.18,-413.36 280.83,-422.01"/>
<polygon fill="black" stroke="black" points="277.34,-421.83 280.12,-432.05 284.32,-422.33 277.34,-421.83"/>
</g>
<!-- Maybe -->
<g id="node29" class="node">
<title>Maybe</title>
<ellipse fill="none" stroke="black" cx="234.24" cy="-306" rx="42.49" ry="18"/>
<text text-anchor="middle" x="234.24" y="-302.3" font-family="Times,serif" font-size="14.00">Maybe</text>
</g>
<!-- ListType&#45;&gt;Maybe -->
<g id="edge24" class="edge">
<title>ListType&#45;&gt;Maybe</title>
<path fill="none" stroke="black" d="M264.56,-360.05C259.84,-351.8 254.07,-341.7 248.84,-332.54"/>
<polygon fill="black" stroke="black" points="251.84,-330.73 243.84,-323.79 245.76,-334.21 251.84,-330.73"/>
</g>
<!-- Label -->
<g id="node30" class="node">
<title>Label</title>
<ellipse fill="none" stroke="#ee0000" cx="309.24" cy="-234" rx="36.29" ry="18"/>
<text text-anchor="middle" x="309.24" y="-230.3" font-family="Times,serif" font-size="14.00">Label</text>
</g>
<!-- ListType&#45;&gt;Label -->
<g id="edge25" class="edge">
<title>ListType&#45;&gt;Label</title>
<path fill="none" stroke="black" d="M278.47,-359.87C284.46,-335.56 295.49,-290.82 302.59,-262.01"/>
<polygon fill="black" stroke="black" points="306.01,-262.74 305.01,-252.19 299.22,-261.06 306.01,-262.74"/>
</g>
<!-- ListType&#45;&gt;Title -->
<g id="edge26" class="edge">
<title>ListType&#45;&gt;Title</title>
<path fill="none" stroke="black" d="M321.39,-371.03C415.23,-359.06 619.08,-332.51 650.24,-324 652.72,-323.33 655.24,-322.54 657.75,-321.68"/>
<polygon fill="black" stroke="black" points="659.18,-324.89 667.32,-318.11 656.73,-318.33 659.18,-324.89"/>
</g>
<!-- ItemType&#45;&gt;Spec -->
<g id="edge27" class="edge">
<title>ItemType&#45;&gt;Spec</title>
<path fill="none" stroke="black" d="M252.07,-433.31C239.68,-423.66 224.68,-410.41 214.24,-396 167.05,-330.85 138.3,-272.82 195.24,-216 265.07,-146.33 319.28,-206.67 414.24,-180 416.7,-179.31 419.2,-178.53 421.7,-177.68"/>
<polygon fill="black" stroke="black" points="423.06,-180.91 431.24,-174.17 420.65,-174.34 423.06,-180.91"/>
</g>
<!-- ItemType&#45;&gt;ListType -->
<g id="edge28" class="edge">
<title>ItemType&#45;&gt;ListType</title>
<path fill="none" stroke="black" d="M268.37,-432.05C267.55,-424.35 267.31,-415.03 267.64,-406.36"/>
<polygon fill="black" stroke="black" points="271.14,-406.49 268.33,-396.28 264.15,-406.01 271.14,-406.49"/>
</g>
<!-- Label&#45;&gt;Spec -->
<g id="edge29" class="edge">
<title>Label&#45;&gt;Spec</title>
<path fill="none" stroke="black" d="M334.51,-220.97C358.79,-209.41 395.62,-191.87 422.42,-179.11"/>
<polygon fill="black" stroke="black" points="424.27,-182.1 431.79,-174.64 421.26,-175.78 424.27,-182.1"/>
</g>
<!-- Title&#45;&gt;Spec -->
<g id="edge30" class="edge">
<title>Title&#45;&gt;Spec</title>
<path fill="none" stroke="black" d="M667.37,-293.7C661.85,-291.48 655.93,-289.41 650.24,-288 566.63,-267.27 322.26,-315.68 264.24,-252 253.47,-240.17 254.34,-228.56 264.24,-216 306.69,-162.16 348.95,-200.92 414.24,-180 416.67,-179.22 419.15,-178.37 421.64,-177.47"/>
<polygon fill="black" stroke="black" points="423.04,-180.69 431.15,-173.87 420.56,-174.14 423.04,-180.69"/>
</g>
<!-- Citation -->
<g id="node32" class="node">
<title>Citation</title>
<ellipse fill="none" stroke="darkviolet" cx="1691.24" cy="-306" rx="48.19" ry="18"/>
<text text-anchor="middle" x="1691.24" y="-302.3" font-family="Times,serif" font-size="14.00">Citation</text>
</g>
<!-- EntryID -->
<g id="node33" class="node">
<title>EntryID</title>
<ellipse fill="none" stroke="black" cx="1691.24" cy="-234" rx="48.19" ry="18"/>
<text text-anchor="middle" x="1691.24" y="-230.3" font-family="Times,serif" font-size="14.00">EntryID</text>
</g>
<!-- Citation&#45;&gt;EntryID -->
<g id="edge31" class="edge">
<title>Citation&#45;&gt;EntryID</title>
<path fill="none" stroke="black" d="M1691.24,-287.7C1691.24,-279.98 1691.24,-270.71 1691.24,-262.11"/>
<polygon fill="black" stroke="black" points="1694.74,-262.1 1691.24,-252.1 1687.74,-262.1 1694.74,-262.1"/>
</g>
<!-- CitationKind -->
<g id="node34" class="node">
<title>CitationKind</title>
<ellipse fill="none" stroke="black" cx="1827.24" cy="-234" rx="69.59" ry="18"/>
<text text-anchor="middle" x="1827.24" y="-230.3" font-family="Times,serif" font-size="14.00">CitationKind</text>
</g>
<!-- Citation&#45;&gt;CitationKind -->
<g id="edge32" class="edge">
<title>Citation&#45;&gt;CitationKind</title>
<path fill="none" stroke="black" d="M1718.44,-291C1738.47,-280.69 1765.99,-266.53 1788.35,-255.02"/>
<polygon fill="black" stroke="black" points="1789.97,-258.12 1797.26,-250.43 1786.77,-251.9 1789.97,-258.12"/>
</g>
<!-- CiteField -->
<g id="node35" class="node">
<title>CiteField</title>
<ellipse fill="none" stroke="darkviolet" cx="1572.24" cy="-234" rx="53.09" ry="18"/>
<text text-anchor="middle" x="1572.24" y="-230.3" font-family="Times,serif" font-size="14.00">CiteField</text>
</g>
<!-- Citation&#45;&gt;CiteField -->
<g id="edge33" class="edge">
<title>Citation&#45;&gt;CiteField</title>
<path fill="none" stroke="black" d="M1666.59,-290.5C1649.19,-280.26 1625.66,-266.42 1606.45,-255.12"/>
<polygon fill="black" stroke="black" points="1608.08,-252.02 1597.69,-249.97 1604.54,-258.06 1608.08,-252.02"/>
</g>
<!-- CiteField&#45;&gt;Spec -->
<g id="edge34" class="edge">
<title>CiteField&#45;&gt;Spec</title>
<path fill="none" stroke="black" d="M1519.47,-231.4C1317.43,-225.16 599.34,-201.64 499.24,-180 496.38,-179.38 493.45,-178.59 490.54,-177.69"/>
<polygon fill="black" stroke="black" points="491.42,-174.29 480.82,-174.31 489.12,-180.9 491.42,-174.29"/>
</g>
<!-- People -->
<g id="node36" class="node">
<title>People</title>
<ellipse fill="none" stroke="black" cx="1572.24" cy="-162" rx="41.69" ry="18"/>
<text text-anchor="middle" x="1572.24" y="-158.3" font-family="Times,serif" font-size="14.00">People</text>
</g>
<!-- CiteField&#45;&gt;People -->
<g id="edge35" class="edge">
<title>CiteField&#45;&gt;People</title>
<path fill="none" stroke="black" d="M1572.24,-215.7C1572.24,-207.98 1572.24,-198.71 1572.24,-190.11"/>
<polygon fill="black" stroke="black" points="1575.74,-190.1 1572.24,-180.1 1568.74,-190.1 1575.74,-190.1"/>
</g>
<!-- HP -->
<g id="node37" class="node">
<title>HP</title>
<ellipse fill="none" stroke="darkviolet" cx="502.24" cy="-234" rx="27" ry="18"/>
<text text-anchor="middle" x="502.24" y="-230.3" font-family="Times,serif" font-size="14.00">HP</text>
</g>
<!-- HP&#45;&gt;Spec -->
<g id="edge36" class="edge">
<title>HP&#45;&gt;Spec</title>
<path fill="none" stroke="black" d="M491.81,-217.12C486.12,-208.47 478.96,-197.58 472.56,-187.83"/>
<polygon fill="black" stroke="black" points="475.38,-185.74 466.96,-179.31 469.53,-189.59 475.38,-185.74"/>
</g>
<!-- BibRef -->
<g id="node38" class="node">
<title>BibRef</title>
<ellipse fill="none" stroke="#ee0000" cx="1691.24" cy="-378" rx="42.49" ry="18"/>
<text text-anchor="middle" x="1691.24" y="-374.3" font-family="Times,serif" font-size="14.00">BibRef</text>
</g>
<!-- BibRef&#45;&gt;Citation -->
<g id="edge37" class="edge">
<title>BibRef&#45;&gt;Citation</title>
<path fill="none" stroke="black" d="M1691.24,-359.7C1691.24,-351.98 1691.24,-342.71 1691.24,-334.11"/>
<polygon fill="black" stroke="black" points="1694.74,-334.1 1691.24,-324.1 1687.74,-334.1 1694.74,-334.1"/>
</g>
<!-- Author&#45;&gt;Spec -->
<g id="edge54" class="edge">
<title>Author&#45;&gt;Spec</title>
<path fill="none" stroke="black" d="M568.18,-293.71C561.35,-291.55 554.11,-289.5 547.24,-288 478.19,-272.94 278.31,-304.73 231.24,-252 135.38,-144.59 177.27,-250.57 414.24,-180 416.68,-179.27 419.18,-178.46 421.68,-177.59"/>
<polygon fill="black" stroke="black" points="423.05,-180.81 431.2,-174.04 420.61,-174.25 423.05,-180.81"/>
</g>
<!-- LayoutObj&#45;&gt;Spec -->
<g id="edge50" class="edge">
<title>LayoutObj&#45;&gt;Spec</title>
<path fill="none" stroke="black" d="M755.67,-293.8C747.88,-291.84 739.83,-289.84 732.24,-288 663.09,-271.25 638.94,-285.65 576.24,-252 555.75,-241 556.54,-230.38 538.24,-216 522.09,-203.3 502.85,-190.75 487.07,-181.05"/>
<polygon fill="black" stroke="black" points="488.59,-177.88 478.22,-175.69 484.96,-183.86 488.59,-177.88"/>
</g>
<!-- LayoutObj&#45;&gt;Label -->
<g id="edge51" class="edge">
<title>LayoutObj&#45;&gt;Label</title>
<path fill="none" stroke="black" d="M757.28,-293.3C749.03,-291.3 740.4,-289.41 732.24,-288 565.97,-259.16 518.63,-290.16 354.24,-252 351.42,-251.34 348.54,-250.56 345.66,-249.68"/>
<polygon fill="black" stroke="black" points="346.6,-246.3 336.01,-246.44 344.38,-252.94 346.6,-246.3"/>
</g>
<!-- Tags -->
<g id="node46" class="node">
<title>Tags</title>
<ellipse fill="none" stroke="#ee0000" cx="540.24" cy="-162" rx="32.49" ry="18"/>
<text text-anchor="middle" x="540.24" y="-158.3" font-family="Times,serif" font-size="14.00">Tags</text>
</g>
<!-- LayoutObj&#45;&gt;Tags -->
<g id="edge49" class="edge">
<title>LayoutObj&#45;&gt;Tags</title>
<path fill="none" stroke="black" d="M800.78,-287.94C801.58,-267.81 799.53,-234.69 780.24,-216 715.7,-153.45 667.47,-205.36 581.24,-180 578.94,-179.32 576.58,-178.56 574.23,-177.73"/>
<polygon fill="black" stroke="black" points="575.24,-174.38 564.65,-174.12 572.77,-180.93 575.24,-174.38"/>
</g>
<!-- Bool -->
<g id="node47" class="node">
<title>Bool</title>
<ellipse fill="none" stroke="black" cx="740.24" cy="-234" rx="31.4" ry="18"/>
<text text-anchor="middle" x="740.24" y="-230.3" font-family="Times,serif" font-size="14.00">Bool</text>
</g>
<!-- LayoutObj&#45;&gt;Bool -->
<g id="edge52" class="edge">
<title>LayoutObj&#45;&gt;Bool</title>
<path fill="none" stroke="black" d="M785.26,-288.41C777.7,-279.44 768.24,-268.21 759.94,-258.37"/>
<polygon fill="black" stroke="black" points="762.44,-255.9 753.32,-250.51 757.09,-260.41 762.44,-255.9"/>
</g>
<!-- Caption -->
<g id="node48" class="node">
<title>Caption</title>
<ellipse fill="none" stroke="#ee0000" cx="410.24" cy="-234" rx="46.59" ry="18"/>
<text text-anchor="middle" x="410.24" y="-230.3" font-family="Times,serif" font-size="14.00">Caption</text>
</g>
<!-- LayoutObj&#45;&gt;Caption -->
<g id="edge53" class="edge">
<title>LayoutObj&#45;&gt;Caption</title>
<path fill="none" stroke="black" d="M756.88,-293.47C748.74,-291.48 740.26,-289.55 732.24,-288 615.12,-265.29 582.81,-277.41 466.24,-252 462.39,-251.16 458.42,-250.18 454.45,-249.13"/>
<polygon fill="black" stroke="black" points="455.24,-245.72 444.67,-246.4 453.36,-252.46 455.24,-245.72"/>
</g>
<!-- Project -->
<g id="node41" class="node">
<title>Project</title>
<ellipse fill="none" stroke="darkviolet" cx="602.24" cy="-450" rx="44.39" ry="18"/>
<text text-anchor="middle" x="602.24" y="-446.3" font-family="Times,serif" font-size="14.00">Project</text>
</g>
<!-- Project&#45;&gt;Title -->
<g id="edge41" class="edge">
<title>Project&#45;&gt;Title</title>
<path fill="none" stroke="black" d="M607.43,-432.02C613.58,-413.4 624.94,-383.11 640.24,-360 647.73,-348.69 657.79,-337.64 667,-328.58"/>
<polygon fill="black" stroke="black" points="669.63,-330.91 674.45,-321.47 664.8,-325.84 669.63,-330.91"/>
</g>
<!-- Project&#45;&gt;Author -->
<g id="edge42" class="edge">
<title>Project&#45;&gt;Author</title>
<path fill="none" stroke="black" d="M601.88,-431.87C601.37,-407.67 600.43,-363.21 599.82,-334.39"/>
<polygon fill="black" stroke="black" points="603.32,-334.11 599.61,-324.19 596.32,-334.26 603.32,-334.11"/>
</g>
<!-- RefMap -->
<g id="node42" class="node">
<title>RefMap</title>
<ellipse fill="none" stroke="#ee0000" cx="471.24" cy="-378" rx="46.59" ry="18"/>
<text text-anchor="middle" x="471.24" y="-374.3" font-family="Times,serif" font-size="14.00">RefMap</text>
</g>
<!-- Project&#45;&gt;RefMap -->
<g id="edge43" class="edge">
<title>Project&#45;&gt;RefMap</title>
<path fill="none" stroke="black" d="M576.36,-435.17C556.4,-424.5 528.57,-409.63 506.56,-397.87"/>
<polygon fill="black" stroke="black" points="507.99,-394.67 497.52,-393.04 504.69,-400.84 507.99,-394.67"/>
</g>
<!-- File -->
<g id="node43" class="node">
<title>File</title>
<ellipse fill="none" stroke="darkviolet" cx="904.24" cy="-378" rx="28.7" ry="18"/>
<text text-anchor="middle" x="904.24" y="-374.3" font-family="Times,serif" font-size="14.00">File</text>
</g>
<!-- Project&#45;&gt;File -->
<g id="edge44" class="edge">
<title>Project&#45;&gt;File</title>
<path fill="none" stroke="black" d="M643.67,-443.6C696.27,-436.08 789.43,-420.55 866.24,-396 868.51,-395.28 870.82,-394.46 873.13,-393.58"/>
<polygon fill="black" stroke="black" points="874.55,-396.78 882.47,-389.74 871.89,-390.31 874.55,-396.78"/>
</g>
<!-- MapStringFilename -->
<g id="node56" class="node">
<title>MapStringFilename</title>
<ellipse fill="none" stroke="black" cx="435.24" cy="-306" rx="103.18" ry="18"/>
<text text-anchor="middle" x="435.24" y="-302.3" font-family="Times,serif" font-size="14.00">MapStringFilename</text>
</g>
<!-- RefMap&#45;&gt;MapStringFilename -->
<g id="edge64" class="edge">
<title>RefMap&#45;&gt;MapStringFilename</title>
<path fill="none" stroke="black" d="M462.53,-360.05C458.39,-352.01 453.35,-342.2 448.73,-333.23"/>
<polygon fill="black" stroke="black" points="451.81,-331.57 444.13,-324.28 445.59,-334.77 451.81,-331.57"/>
</g>
<!-- File&#45;&gt;Title -->
<g id="edge45" class="edge">
<title>File&#45;&gt;Title</title>
<path fill="none" stroke="black" d="M881.98,-366.33C876.87,-364.09 871.42,-361.84 866.24,-360 808.14,-339.34 790.63,-343.85 732.24,-324 729.97,-323.23 727.63,-322.39 725.3,-321.51"/>
<polygon fill="black" stroke="black" points="726.35,-318.17 715.76,-317.78 723.8,-324.68 726.35,-318.17"/>
</g>
<!-- File&#45;&gt;LayoutObj -->
<g id="edge48" class="edge">
<title>File&#45;&gt;LayoutObj</title>
<path fill="none" stroke="black" d="M884.99,-364.16C870.06,-354.21 849.05,-340.21 831.56,-328.55"/>
<polygon fill="black" stroke="black" points="833.05,-325.33 822.79,-322.7 829.17,-331.16 833.05,-325.33"/>
</g>
<!-- Filename -->
<g id="node44" class="node">
<title>Filename</title>
<ellipse fill="none" stroke="#ee0000" cx="1194.24" cy="-162" rx="53.89" ry="18"/>
<text text-anchor="middle" x="1194.24" y="-158.3" font-family="Times,serif" font-size="14.00">Filename</text>
</g>
<!-- File&#45;&gt;Filename -->
<g id="edge46" class="edge">
<title>File&#45;&gt;Filename</title>
<path fill="none" stroke="black" d="M910.36,-360.26C923.22,-327.44 956.23,-254.52 1008.24,-216 1044.53,-189.13 1094.02,-175.86 1132.83,-169.32"/>
<polygon fill="black" stroke="black" points="1133.63,-172.74 1142.96,-167.73 1132.54,-165.83 1133.63,-172.74"/>
</g>
<!-- Depth -->
<g id="node45" class="node">
<title>Depth</title>
<ellipse fill="none" stroke="#ee0000" cx="1038.24" cy="-306" rx="38.99" ry="18"/>
<text text-anchor="middle" x="1038.24" y="-302.3" font-family="Times,serif" font-size="14.00">Depth</text>
</g>
<!-- File&#45;&gt;Depth -->
<g id="edge47" class="edge">
<title>File&#45;&gt;Depth</title>
<path fill="none" stroke="black" d="M925.48,-365.91C946.68,-354.83 979.59,-337.64 1004.4,-324.68"/>
<polygon fill="black" stroke="black" points="1006.23,-327.67 1013.47,-319.94 1002.98,-321.47 1006.23,-327.67"/>
</g>
<!-- Filename&#45;&gt;String -->
<g id="edge62" class="edge">
<title>Filename&#45;&gt;String</title>
<path fill="none" stroke="black" d="M1220.51,-146.2C1233.88,-137.09 1248.84,-124.08 1256.24,-108 1262.94,-93.47 1264.41,-85.76 1256.24,-72 1244.63,-52.43 1222.96,-39.61 1203.05,-31.5"/>
<polygon fill="black" stroke="black" points="1204.05,-28.14 1193.46,-27.88 1201.58,-34.69 1204.05,-28.14"/>
</g>
<!-- Int -->
<g id="node51" class="node">
<title>Int</title>
<ellipse fill="none" stroke="black" cx="1044.24" cy="-234" rx="27" ry="18"/>
<text text-anchor="middle" x="1044.24" y="-230.3" font-family="Times,serif" font-size="14.00">Int</text>
</g>
<!-- Depth&#45;&gt;Int -->
<g id="edge58" class="edge">
<title>Depth&#45;&gt;Int</title>
<path fill="none" stroke="black" d="M1039.73,-287.7C1040.39,-279.98 1041.18,-270.71 1041.92,-262.11"/>
<polygon fill="black" stroke="black" points="1045.41,-262.37 1042.78,-252.1 1038.44,-261.77 1045.41,-262.37"/>
</g>
<!-- Tags&#45;&gt;String -->
<g id="edge57" class="edge">
<title>Tags&#45;&gt;String</title>
<path fill="none" stroke="black" d="M564.01,-149.65C583.63,-139.81 611.79,-124.58 634.24,-108 652.96,-94.18 651.13,-81.77 672.24,-72 749.07,-36.45 1000.92,-24.14 1109.11,-20.42"/>
<polygon fill="black" stroke="black" points="1109.25,-23.92 1119.13,-20.09 1109.02,-16.92 1109.25,-23.92"/>
</g>
<!-- Caption&#45;&gt;Spec -->
<g id="edge63" class="edge">
<title>Caption&#45;&gt;Spec</title>
<path fill="none" stroke="black" d="M421.15,-216.41C426.7,-207.95 433.58,-197.49 439.76,-188.08"/>
<polygon fill="black" stroke="black" points="442.85,-189.75 445.42,-179.47 437,-185.9 442.85,-189.75"/>
</g>
<!-- Contents -->
<g id="node49" class="node">
<title>Contents</title>
<ellipse fill="none" stroke="#ee0000" cx="83.24" cy="-234" rx="52.79" ry="18"/>
<text text-anchor="middle" x="83.24" y="-230.3" font-family="Times,serif" font-size="14.00">Contents</text>
</g>
<!-- Contents&#45;&gt;Spec -->
<g id="edge55" class="edge">
<title>Contents&#45;&gt;Spec</title>
<path fill="none" stroke="black" d="M123.11,-222.1C132,-219.89 141.41,-217.72 150.24,-216 266.49,-193.4 299.81,-210.45 414.24,-180 416.86,-179.3 419.54,-178.49 422.2,-177.59"/>
<polygon fill="black" stroke="black" points="423.53,-180.84 431.72,-174.11 421.13,-174.26 423.53,-180.84"/>
</g>
<!-- Items -->
<g id="node50" class="node">
<title>Items</title>
<ellipse fill="none" stroke="#ee0000" cx="820.24" cy="-378" rx="37.09" ry="18"/>
<text text-anchor="middle" x="820.24" y="-374.3" font-family="Times,serif" font-size="14.00">Items</text>
</g>
<!-- Items&#45;&gt;LayoutObj -->
<g id="edge56" class="edge">
<title>Items&#45;&gt;LayoutObj</title>
<path fill="none" stroke="black" d="M815.16,-360.05C812.82,-352.26 809.99,-342.82 807.37,-334.08"/>
<polygon fill="black" stroke="black" points="810.65,-332.85 804.43,-324.28 803.95,-334.86 810.65,-332.85"/>
</g>
<!-- Width -->
<g id="node52" class="node">
<title>Width</title>
<ellipse fill="none" stroke="#ee0000" cx="1902.24" cy="-450" rx="38.19" ry="18"/>
<text text-anchor="middle" x="1902.24" y="-446.3" font-family="Times,serif" font-size="14.00">Width</text>
</g>
<!-- Float -->
<g id="node53" class="node">
<title>Float</title>
<ellipse fill="none" stroke="black" cx="1951.24" cy="-378" rx="34.39" ry="18"/>
<text text-anchor="middle" x="1951.24" y="-374.3" font-family="Times,serif" font-size="14.00">Float</text>
</g>
<!-- Width&#45;&gt;Float -->
<g id="edge59" class="edge">
<title>Width&#45;&gt;Float</title>
<path fill="none" stroke="black" d="M1913.61,-432.76C1919.67,-424.11 1927.25,-413.27 1934.02,-403.6"/>
<polygon fill="black" stroke="black" points="1937.07,-405.35 1939.94,-395.15 1931.34,-401.33 1937.07,-405.35"/>
</g>
<!-- Height -->
<g id="node54" class="node">
<title>Height</title>
<ellipse fill="none" stroke="#ee0000" cx="2001.24" cy="-450" rx="42.49" ry="18"/>
<text text-anchor="middle" x="2001.24" y="-446.3" font-family="Times,serif" font-size="14.00">Height</text>
</g>
<!-- Height&#45;&gt;Float -->
<g id="edge60" class="edge">
<title>Height&#45;&gt;Float</title>
<path fill="none" stroke="black" d="M1989.39,-432.41C1983.2,-423.74 1975.51,-412.97 1968.65,-403.38"/>
<polygon fill="black" stroke="black" points="1971.32,-401.09 1962.66,-394.99 1965.63,-405.16 1971.32,-401.09"/>
</g>
<!-- Filepath -->
<g id="node55" class="node">
<title>Filepath</title>
<ellipse fill="none" stroke="#ee0000" cx="1107.24" cy="-90" rx="49.29" ry="18"/>
<text text-anchor="middle" x="1107.24" y="-86.3" font-family="Times,serif" font-size="14.00">Filepath</text>
</g>
<!-- Filepath&#45;&gt;String -->
<g id="edge61" class="edge">
<title>Filepath&#45;&gt;String</title>
<path fill="none" stroke="black" d="M1119.57,-72.41C1125.91,-63.87 1133.78,-53.28 1140.83,-43.79"/>
<polygon fill="black" stroke="black" points="1143.86,-45.58 1147.01,-35.47 1138.24,-41.41 1143.86,-45.58"/>
</g>
<!-- PrintingInformation -->
<g id="node57" class="node">
<title>PrintingInformation</title>
<ellipse fill="none" stroke="#00cdcd" cx="2303.24" cy="-450" rx="103.18" ry="18"/>
<text text-anchor="middle" x="2303.24" y="-446.3" font-family="Times,serif" font-size="14.00">PrintingInformation</text>
</g>
<!-- ChunkDB -->
<g id="node58" class="node">
<title>ChunkDB</title>
<ellipse fill="none" stroke="black" cx="2058.24" cy="-378" rx="54.69" ry="18"/>
<text text-anchor="middle" x="2058.24" y="-374.3" font-family="Times,serif" font-size="14.00">ChunkDB</text>
</g>
<!-- PrintingInformation&#45;&gt;ChunkDB -->
<g id="edge65" class="edge">
<title>PrintingInformation&#45;&gt;ChunkDB</title>
<path fill="none" stroke="black" d="M2251.88,-434.33C2209.54,-422.23 2149.83,-405.17 2107.94,-393.2"/>
<polygon fill="black" stroke="black" points="2108.81,-389.81 2098.23,-390.43 2106.89,-396.54 2108.81,-389.81"/>
</g>
<!-- MapUIDReference -->
<g id="node59" class="node">
<title>MapUIDReference</title>
<ellipse fill="none" stroke="black" cx="2227.24" cy="-378" rx="96.68" ry="18"/>
<text text-anchor="middle" x="2227.24" y="-374.3" font-family="Times,serif" font-size="14.00">MapUIDReference</text>
</g>
<!-- PrintingInformation&#45;&gt;MapUIDReference -->
<g id="edge66" class="edge">
<title>PrintingInformation&#45;&gt;MapUIDReference</title>
<path fill="none" stroke="black" d="M2284.85,-432.05C2275.32,-423.28 2263.54,-412.43 2253.12,-402.83"/>
<polygon fill="black" stroke="black" points="2255.2,-399.99 2245.47,-395.79 2250.46,-405.14 2255.2,-399.99"/>
</g>
<!-- Stage -->
<g id="node60" class="node">
<title>Stage</title>
<ellipse fill="none" stroke="black" cx="2380.24" cy="-378" rx="37.89" ry="18"/>
<text text-anchor="middle" x="2380.24" y="-374.3" font-family="Times,serif" font-size="14.00">Stage</text>
</g>
<!-- PrintingInformation&#45;&gt;Stage -->
<g id="edge67" class="edge">
<title>PrintingInformation&#45;&gt;Stage</title>
<path fill="none" stroke="black" d="M2321.88,-432.05C2332.06,-422.81 2344.77,-411.25 2355.74,-401.28"/>
<polygon fill="black" stroke="black" points="2358.31,-403.67 2363.35,-394.36 2353.6,-398.49 2358.31,-403.67"/>
</g>
<!-- PrintingConfiguration -->
<g id="node61" class="node">
<title>PrintingConfiguration</title>
<ellipse fill="none" stroke="darkgreen" cx="2548.24" cy="-378" rx="112.38" ry="18"/>
<text text-anchor="middle" x="2548.24" y="-374.3" font-family="Times,serif" font-size="14.00">PrintingConfiguration</text>
</g>
<!-- PrintingInformation&#45;&gt;PrintingConfiguration -->
<g id="edge68" class="edge">
<title>PrintingInformation&#45;&gt;PrintingConfiguration</title>
<path fill="none" stroke="black" d="M2354.6,-434.33C2392.84,-423.4 2445.24,-408.43 2485.88,-396.82"/>
<polygon fill="black" stroke="black" points="2487.03,-400.13 2495.68,-394.02 2485.11,-393.4 2487.03,-400.13"/>
</g>
<!-- Notation -->
<g id="node62" class="node">
<title>Notation</title>
<ellipse fill="none" stroke="darkviolet" cx="2548.24" cy="-306" rx="51.19" ry="18"/>
<text text-anchor="middle" x="2548.24" y="-302.3" font-family="Times,serif" font-size="14.00">Notation</text>
</g>
<!-- PrintingConfiguration&#45;&gt;Notation -->
<g id="edge69" class="edge">
<title>PrintingConfiguration&#45;&gt;Notation</title>
<path fill="none" stroke="black" d="M2548.24,-359.7C2548.24,-351.98 2548.24,-342.71 2548.24,-334.11"/>
<polygon fill="black" stroke="black" points="2551.74,-334.1 2548.24,-324.1 2544.74,-334.1 2551.74,-334.1"/>
</g>
<!-- MathContext -->
<g id="node63" class="node">
<title>MathContext</title>
<ellipse fill="none" stroke="darkviolet" cx="2496.24" cy="-450" rx="71.49" ry="18"/>
<text text-anchor="middle" x="2496.24" y="-446.3" font-family="Times,serif" font-size="14.00">MathContext</text>
</g>
<!-- Latex -->
<g id="node64" class="node">
<title>Latex</title>
<ellipse fill="none" stroke="darkgreen" cx="1211.24" cy="-90" rx="36.29" ry="18"/>
<text text-anchor="middle" x="1211.24" y="-86.3" font-family="Times,serif" font-size="14.00">Latex</text>
</g>
<!-- Latex&#45;&gt;String -->
<g id="edge70" class="edge">
<title>Latex&#45;&gt;String</title>
<path fill="none" stroke="black" d="M1199.18,-72.76C1192.78,-64.14 1184.77,-53.36 1177.61,-43.73"/>
<polygon fill="black" stroke="black" points="1180.37,-41.57 1171.6,-35.63 1174.75,-45.75 1180.37,-41.57"/>
</g>
<!-- D -->
<g id="node65" class="node">
<title>D</title>
<ellipse fill="none" stroke="#ee0000" cx="773.24" cy="-162" rx="27" ry="18"/>
<text text-anchor="middle" x="773.24" y="-158.3" font-family="Times,serif" font-size="14.00">D</text>
</g>
<!-- D&#45;&gt;Doc -->
<g id="edge71" class="edge">
<title>D&#45;&gt;Doc</title>
<path fill="none" stroke="black" d="M759.88,-146.15C751.48,-136.82 740.46,-124.57 730.94,-114"/>
<polygon fill="black" stroke="black" points="733.31,-111.4 724.02,-106.31 728.11,-116.08 733.31,-111.4"/>
</g>
<!-- Package -->
<g id="node66" class="node">
<title>Package</title>
<ellipse fill="none" stroke="darkviolet" cx="2634.24" cy="-450" rx="48.99" ry="18"/>
<text text-anchor="middle" x="2634.24" y="-446.3" font-family="Times,serif" font-size="14.00">Package</text>
</g>
<!-- Def -->
<g id="node67" class="node">
<title>Def</title>
<ellipse fill="none" stroke="darkviolet" cx="2728.24" cy="-450" rx="27" ry="18"/>
<text text-anchor="middle" x="2728.24" y="-446.3" font-family="Times,serif" font-size="14.00">Def</text>
</g>
<!-- FieldWrap -->
<g id="node68" class="node">
<title>FieldWrap</title>
<ellipse fill="none" stroke="darkviolet" cx="885.24" cy="-234" rx="58.49" ry="18"/>
<text text-anchor="middle" x="885.24" y="-230.3" font-family="Times,serif" font-size="14.00">FieldWrap</text>
</g>
<!-- FieldWrap&#45;&gt;String -->
<g id="edge73" class="edge">
<title>FieldWrap&#45;&gt;String</title>
<path fill="none" stroke="black" d="M932.32,-223.17C958.67,-215.47 990.34,-202.2 1011.24,-180 1046.13,-142.96 1015.31,-109.92 1049.24,-72 1066.73,-52.46 1093,-39.43 1115.48,-31.18"/>
<polygon fill="black" stroke="black" points="1116.87,-34.4 1125.17,-27.83 1114.58,-27.79 1116.87,-34.4"/>
</g>
<!-- FieldWrap&#45;&gt;Spec -->
<g id="edge75" class="edge">
<title>FieldWrap&#45;&gt;Spec</title>
<path fill="none" stroke="black" d="M835.36,-224.58C817.94,-221.73 798.25,-218.61 780.24,-216 655.64,-197.94 621.18,-211.39 499.24,-180 496.47,-179.29 493.64,-178.44 490.82,-177.52"/>
<polygon fill="black" stroke="black" points="491.96,-174.21 481.36,-174.14 489.6,-180.8 491.96,-174.21"/>
</g>
<!-- FieldWrap&#45;&gt;D -->
<g id="edge76" class="edge">
<title>FieldWrap&#45;&gt;D</title>
<path fill="none" stroke="black" d="M860.67,-217.64C842.96,-206.57 819.05,-191.63 800.71,-180.17"/>
<polygon fill="black" stroke="black" points="802.55,-177.19 792.21,-174.85 798.84,-183.12 802.55,-177.19"/>
</g>
<!-- FieldWrap&#45;&gt;FieldWrap -->
<g id="edge74" class="edge">
<title>FieldWrap&#45;&gt;FieldWrap</title>
<path fill="none" stroke="black" d="M925.39,-247.17C944.69,-248.8 961.74,-244.41 961.74,-234 961.74,-225.46 950.27,-220.98 935.49,-220.54"/>
<polygon fill="black" stroke="black" points="935.28,-217.04 925.39,-220.83 935.48,-224.04 935.28,-217.04"/>
</g>
<!-- StyleGuide -->
<g id="node69" class="node">
<title>StyleGuide</title>
<ellipse fill="none" stroke="darkviolet" cx="1365.24" cy="-90" rx="61.99" ry="18"/>
<text text-anchor="middle" x="1365.24" y="-86.3" font-family="Times,serif" font-size="14.00">StyleGuide</text>
</g>
<!-- StyleGuide&#45;&gt;String -->
<g id="edge78" class="edge">
<title>StyleGuide&#45;&gt;String</title>
<path fill="none" stroke="black" d="M1326.5,-75.83C1290.49,-63.6 1237.04,-45.43 1200.3,-32.95"/>
<polygon fill="black" stroke="black" points="1201.01,-29.5 1190.42,-29.59 1198.76,-36.12 1201.01,-29.5"/>
</g>
<!-- StyleGuide&#45;&gt;StyleGuide -->
<g id="edge77" class="edge">
<title>StyleGuide&#45;&gt;StyleGuide</title>
<path fill="none" stroke="black" d="M1407.5,-103.2C1427.46,-104.74 1444.99,-100.34 1444.99,-90 1444.99,-81.44 1432.97,-76.95 1417.5,-76.53"/>
<polygon fill="black" stroke="black" points="1417.4,-73.03 1407.5,-76.8 1417.59,-80.03 1417.4,-73.03"/>
</g>
</g>
</svg>
