<?xml version="1.0" encoding="UTF-8" standalone="no"?>
<!DOCTYPE svg PUBLIC "-//W3C//DTD SVG 1.1//EN"
 "http://www.w3.org/Graphics/SVG/1.1/DTD/svg11.dtd">
<!-- Generated by graphviz version 2.43.0 (0)
 -->
<!-- Title: alltypes Pages: 1 -->
<svg width="3171pt" height="476pt"
 viewBox="0.00 0.00 3170.65 476.00" xmlns="http://www.w3.org/2000/svg" xmlns:xlink="http://www.w3.org/1999/xlink">
<g id="graph0" class="graph" transform="scale(1 1) rotate(0) translate(4 472)">
<title>alltypes</title>
<polygon fill="white" stroke="transparent" points="-4,4 -4,-472 3166.65,-472 3166.65,4 -4,4"/>
<!-- NodeFamily -->
<g id="node1" class="node">
<title>NodeFamily</title>
<ellipse fill="none" stroke="#00cdcd" cx="317.46" cy="-306" rx="66.09" ry="18"/>
<text text-anchor="middle" x="317.46" y="-302.3" font-family="Times,serif" font-size="14.00">NodeFamily</text>
</g>
<!-- UID -->
<g id="node2" class="node">
<title>UID</title>
<ellipse fill="none" stroke="black" cx="241.46" cy="-234" rx="29.5" ry="18"/>
<text text-anchor="middle" x="241.46" y="-230.3" font-family="Times,serif" font-size="14.00">UID</text>
</g>
<!-- NodeFamily&#45;&gt;UID -->
<g id="edge1" class="edge">
<title>NodeFamily&#45;&gt;UID</title>
<path fill="none" stroke="black" d="M299.45,-288.41C288.96,-278.75 275.64,-266.48 264.41,-256.14"/>
<polygon fill="black" stroke="black" points="266.75,-253.54 257.02,-249.34 262.01,-258.69 266.75,-253.54"/>
</g>
<!-- Label -->
<g id="node3" class="node">
<title>Label</title>
<ellipse fill="none" stroke="#ee0000" cx="720.46" cy="-234" rx="36.29" ry="18"/>
<text text-anchor="middle" x="720.46" y="-230.3" font-family="Times,serif" font-size="14.00">Label</text>
</g>
<!-- NodeFamily&#45;&gt;Label -->
<g id="edge2" class="edge">
<title>NodeFamily&#45;&gt;Label</title>
<path fill="none" stroke="black" d="M373.64,-296.35C437.63,-286.36 545.26,-269.07 637.46,-252 650.58,-249.57 664.83,-246.73 677.76,-244.07"/>
<polygon fill="black" stroke="black" points="678.71,-247.44 687.79,-241.99 677.29,-240.59 678.71,-247.44"/>
</g>
<!-- Colour -->
<g id="node4" class="node">
<title>Colour</title>
<ellipse fill="none" stroke="#ee0000" cx="431.46" cy="-162" rx="41.69" ry="18"/>
<text text-anchor="middle" x="431.46" y="-158.3" font-family="Times,serif" font-size="14.00">Colour</text>
</g>
<!-- NodeFamily&#45;&gt;Colour -->
<g id="edge3" class="edge">
<title>NodeFamily&#45;&gt;Colour</title>
<path fill="none" stroke="black" d="M312.34,-287.75C307.76,-268.63 303.66,-237.62 317.46,-216 332.11,-193.03 359.57,-179.86 383.87,-172.4"/>
<polygon fill="black" stroke="black" points="385.01,-175.71 393.69,-169.62 383.11,-168.97 385.01,-175.71"/>
</g>
<!-- String -->
<g id="node6" class="node">
<title>String</title>
<ellipse fill="none" stroke="black" cx="1322.46" cy="-18" rx="40.09" ry="18"/>
<text text-anchor="middle" x="1322.46" y="-14.3" font-family="Times,serif" font-size="14.00">String</text>
</g>
<!-- Label&#45;&gt;String -->
<g id="edge7" class="edge">
<title>Label&#45;&gt;String</title>
<path fill="none" stroke="black" d="M748.68,-222.5C818.82,-196.46 1006.72,-127.04 1164.46,-72 1203.9,-58.24 1249.1,-43.14 1281.03,-32.59"/>
<polygon fill="black" stroke="black" points="1282.5,-35.79 1290.9,-29.33 1280.31,-29.14 1282.5,-35.79"/>
</g>
<!-- Spec -->
<g id="node21" class="node">
<title>Spec</title>
<ellipse fill="none" stroke="darkviolet" cx="688.46" cy="-162" rx="33.29" ry="18"/>
<text text-anchor="middle" x="688.46" y="-158.3" font-family="Times,serif" font-size="14.00">Spec</text>
</g>
<!-- Label&#45;&gt;Spec -->
<g id="edge34" class="edge">
<title>Label&#45;&gt;Spec</title>
<path fill="none" stroke="black" d="M712.71,-216.05C709.02,-207.97 704.51,-198.12 700.39,-189.11"/>
<polygon fill="black" stroke="black" points="703.47,-187.43 696.13,-179.79 697.11,-190.34 703.47,-187.43"/>
</g>
<!-- Colour&#45;&gt;String -->
<g id="edge6" class="edge">
<title>Colour&#45;&gt;String</title>
<path fill="none" stroke="black" d="M472.79,-159.83C539.14,-156.83 672.68,-146.13 778.46,-108 807.71,-97.45 808.98,-81.92 838.46,-72 918.02,-45.21 1165.51,-28.09 1272.43,-21.76"/>
<polygon fill="black" stroke="black" points="1272.85,-25.24 1282.63,-21.16 1272.44,-18.25 1272.85,-25.24"/>
</g>
<!-- GraphInfo -->
<g id="node5" class="node">
<title>GraphInfo</title>
<ellipse fill="none" stroke="#00cdcd" cx="270.46" cy="-378" rx="57.69" ry="18"/>
<text text-anchor="middle" x="270.46" y="-374.3" font-family="Times,serif" font-size="14.00">GraphInfo</text>
</g>
<!-- GraphInfo&#45;&gt;NodeFamily -->
<g id="edge4" class="edge">
<title>GraphInfo&#45;&gt;NodeFamily</title>
<path fill="none" stroke="black" d="M281.83,-360.05C287.43,-351.71 294.3,-341.49 300.5,-332.25"/>
<polygon fill="black" stroke="black" points="303.52,-334.04 306.18,-323.79 297.7,-330.14 303.52,-334.04"/>
</g>
<!-- GraphInfo&#45;&gt;UID -->
<g id="edge5" class="edge">
<title>GraphInfo&#45;&gt;UID</title>
<path fill="none" stroke="black" d="M258.92,-360.18C252.74,-350.16 245.74,-336.91 242.46,-324 237.3,-303.69 237.33,-279.92 238.49,-262.06"/>
<polygon fill="black" stroke="black" points="241.98,-262.29 239.3,-252.04 235.01,-261.72 241.98,-262.29"/>
</g>
<!-- Variation -->
<g id="node7" class="node">
<title>Variation</title>
<ellipse fill="none" stroke="darkviolet" cx="1803.46" cy="-162" rx="52.79" ry="18"/>
<text text-anchor="middle" x="1803.46" y="-158.3" font-family="Times,serif" font-size="14.00">Variation</text>
</g>
<!-- Variation&#45;&gt;String -->
<g id="edge8" class="edge">
<title>Variation&#45;&gt;String</title>
<path fill="none" stroke="black" d="M1763.2,-150.19C1754.42,-148 1745.15,-145.81 1736.46,-144 1639.46,-123.8 1605.22,-152.01 1516.46,-108 1495.61,-97.67 1498.38,-84.02 1478.46,-72 1444.09,-51.26 1400.53,-37.34 1368.18,-28.98"/>
<polygon fill="black" stroke="black" points="1368.65,-25.49 1358.1,-26.47 1366.95,-32.28 1368.65,-25.49"/>
</g>
<!-- Doc -->
<g id="node8" class="node">
<title>Doc</title>
<ellipse fill="none" stroke="black" cx="1296.46" cy="-90" rx="28.7" ry="18"/>
<text text-anchor="middle" x="1296.46" y="-86.3" font-family="Times,serif" font-size="14.00">Doc</text>
</g>
<!-- Variation&#45;&gt;Doc -->
<g id="edge9" class="edge">
<title>Variation&#45;&gt;Doc</title>
<path fill="none" stroke="black" d="M1761.01,-151.29C1750.05,-148.57 1738.34,-145.86 1727.46,-144 1550.63,-113.85 1499.04,-153.25 1325.46,-108 1324.87,-107.85 1324.27,-107.68 1323.68,-107.51"/>
<polygon fill="black" stroke="black" points="1324.72,-104.17 1314.13,-104.21 1322.44,-110.79 1324.72,-104.17"/>
</g>
<!-- Variation&#45;&gt;Doc -->
<g id="edge20" class="edge">
<title>Variation&#45;&gt;Doc</title>
<path fill="none" stroke="black" d="M1767.85,-148.66C1760.5,-146.89 1752.79,-145.25 1745.46,-144 1568.63,-113.85 1517.04,-153.25 1343.46,-108 1339.17,-106.88 1334.76,-105.33 1330.41,-103.6"/>
<polygon fill="black" stroke="black" points="1331.61,-100.31 1321.03,-99.68 1328.9,-106.77 1331.61,-100.31"/>
</g>
<!-- td -->
<g id="node13" class="node">
<title>td</title>
<ellipse fill="none" stroke="black" cx="2069.46" cy="-90" rx="27" ry="18"/>
<text text-anchor="middle" x="2069.46" y="-86.3" font-family="Times,serif" font-size="14.00">td</text>
</g>
<!-- Variation&#45;&gt;td -->
<g id="edge15" class="edge">
<title>Variation&#45;&gt;td</title>
<path fill="none" stroke="black" d="M1850.1,-153.29C1897.16,-144.82 1971.51,-129.48 2033.46,-108 2035.37,-107.34 2037.31,-106.6 2039.26,-105.83"/>
<polygon fill="black" stroke="black" points="2041.06,-108.86 2048.83,-101.67 2038.27,-102.44 2041.06,-108.86"/>
</g>
<!-- figure -->
<g id="node14" class="node">
<title>figure</title>
<ellipse fill="none" stroke="black" cx="1680.46" cy="-90" rx="38.19" ry="18"/>
<text text-anchor="middle" x="1680.46" y="-86.3" font-family="Times,serif" font-size="14.00">figure</text>
</g>
<!-- Variation&#45;&gt;figure -->
<g id="edge16" class="edge">
<title>Variation&#45;&gt;figure</title>
<path fill="none" stroke="black" d="M1777.37,-146.15C1758.54,-135.44 1732.98,-120.89 1712.84,-109.43"/>
<polygon fill="black" stroke="black" points="1714.43,-106.31 1704.01,-104.4 1710.97,-112.39 1714.43,-106.31"/>
</g>
<!-- li -->
<g id="node15" class="node">
<title>li</title>
<ellipse fill="none" stroke="black" cx="1763.46" cy="-90" rx="27" ry="18"/>
<text text-anchor="middle" x="1763.46" y="-86.3" font-family="Times,serif" font-size="14.00">li</text>
</g>
<!-- Variation&#45;&gt;li -->
<g id="edge17" class="edge">
<title>Variation&#45;&gt;li</title>
<path fill="none" stroke="black" d="M1793.77,-144.05C1788.99,-135.68 1783.12,-125.4 1777.82,-116.13"/>
<polygon fill="black" stroke="black" points="1780.78,-114.25 1772.78,-107.31 1774.7,-117.73 1780.78,-114.25"/>
</g>
<!-- pa -->
<g id="node16" class="node">
<title>pa</title>
<ellipse fill="none" stroke="black" cx="1835.46" cy="-90" rx="27" ry="18"/>
<text text-anchor="middle" x="1835.46" y="-86.3" font-family="Times,serif" font-size="14.00">pa</text>
</g>
<!-- Variation&#45;&gt;pa -->
<g id="edge18" class="edge">
<title>Variation&#45;&gt;pa</title>
<path fill="none" stroke="black" d="M1811.2,-144.05C1814.99,-135.77 1819.63,-125.62 1823.83,-116.42"/>
<polygon fill="black" stroke="black" points="1827.03,-117.86 1828,-107.31 1820.66,-114.95 1827.03,-117.86"/>
</g>
<!-- ba -->
<g id="node17" class="node">
<title>ba</title>
<ellipse fill="none" stroke="black" cx="1907.46" cy="-90" rx="27" ry="18"/>
<text text-anchor="middle" x="1907.46" y="-86.3" font-family="Times,serif" font-size="14.00">ba</text>
</g>
<!-- Variation&#45;&gt;ba -->
<g id="edge19" class="edge">
<title>Variation&#45;&gt;ba</title>
<path fill="none" stroke="black" d="M1826.28,-145.64C1842.37,-134.81 1863.97,-120.27 1880.84,-108.91"/>
<polygon fill="black" stroke="black" points="1882.84,-111.79 1889.18,-103.3 1878.93,-105.98 1882.84,-111.79"/>
</g>
<!-- PrintHTML -->
<g id="node9" class="node">
<title>PrintHTML</title>
<ellipse fill="none" stroke="darkgreen" cx="1406.46" cy="-90" rx="63.09" ry="18"/>
<text text-anchor="middle" x="1406.46" y="-86.3" font-family="Times,serif" font-size="14.00">PrintHTML</text>
</g>
<!-- PrintHTML&#45;&gt;String -->
<g id="edge10" class="edge">
<title>PrintHTML&#45;&gt;String</title>
<path fill="none" stroke="black" d="M1386.97,-72.76C1375.52,-63.22 1360.9,-51.04 1348.48,-40.68"/>
<polygon fill="black" stroke="black" points="1350.61,-37.9 1340.68,-34.19 1346.13,-43.28 1350.61,-37.9"/>
</g>
<!-- OpenClose -->
<g id="node10" class="node">
<title>OpenClose</title>
<ellipse fill="none" stroke="darkviolet" cx="1722.46" cy="-450" rx="60.39" ry="18"/>
<text text-anchor="middle" x="1722.46" y="-446.3" font-family="Times,serif" font-size="14.00">OpenClose</text>
</g>
<!-- OpenClose&#45;&gt;String -->
<g id="edge12" class="edge">
<title>OpenClose&#45;&gt;String</title>
<path fill="none" stroke="black" d="M1762,-436.19C1863.47,-404.99 2124.46,-326.25 2124.46,-307 2124.46,-307 2124.46,-307 2124.46,-161 2124.46,-119.53 2129.04,-97.65 2096.46,-72 2039.49,-27.17 1536.07,-20.25 1373.06,-19.19"/>
<polygon fill="black" stroke="black" points="1372.85,-15.69 1362.83,-19.13 1372.81,-22.69 1372.85,-15.69"/>
</g>
<!-- OpenClose&#45;&gt;String -->
<g id="edge66" class="edge">
<title>OpenClose&#45;&gt;String</title>
<path fill="none" stroke="black" d="M1766.11,-437.53C1873.74,-407.32 2142.46,-326.53 2142.46,-307 2142.46,-307 2142.46,-307 2142.46,-161 2142.46,-119.53 2147.04,-97.65 2114.46,-72 2056.64,-26.5 1538.93,-20.05 1373.17,-19.14"/>
<polygon fill="black" stroke="black" points="1372.79,-15.64 1362.77,-19.09 1372.76,-22.64 1372.79,-15.64"/>
</g>
<!-- OpenClose&#45;&gt;Doc -->
<g id="edge14" class="edge">
<title>OpenClose&#45;&gt;Doc</title>
<path fill="none" stroke="black" d="M1722.46,-431.95C1722.46,-405.29 1722.46,-352.11 1722.46,-307 1722.46,-307 1722.46,-307 1722.46,-233 1722.46,-51.83 1506.34,-165.28 1334.46,-108 1332.34,-107.29 1330.18,-106.51 1328.02,-105.68"/>
<polygon fill="black" stroke="black" points="1329.25,-102.4 1318.67,-101.82 1326.58,-108.87 1329.25,-102.4"/>
</g>
<!-- PrintingInformation -->
<g id="node11" class="node">
<title>PrintingInformation</title>
<ellipse fill="none" stroke="#00cdcd" cx="1207.46" cy="-378" rx="103.18" ry="18"/>
<text text-anchor="middle" x="1207.46" y="-374.3" font-family="Times,serif" font-size="14.00">PrintingInformation</text>
</g>
<!-- OpenClose&#45;&gt;PrintingInformation -->
<g id="edge11" class="edge">
<title>OpenClose&#45;&gt;PrintingInformation</title>
<path fill="none" stroke="black" d="M1667.8,-442.11C1590.42,-432.29 1444.53,-413.51 1320.46,-396 1311.27,-394.7 1301.67,-393.31 1292.12,-391.91"/>
<polygon fill="black" stroke="black" points="1292.6,-388.44 1282.19,-390.44 1291.57,-395.37 1292.6,-388.44"/>
</g>
<!-- Document -->
<g id="node12" class="node">
<title>Document</title>
<ellipse fill="none" stroke="darkviolet" cx="667.46" cy="-378" rx="57.69" ry="18"/>
<text text-anchor="middle" x="667.46" y="-374.3" font-family="Times,serif" font-size="14.00">Document</text>
</g>
<!-- OpenClose&#45;&gt;Document -->
<g id="edge13" class="edge">
<title>OpenClose&#45;&gt;Document</title>
<path fill="none" stroke="black" d="M1662.46,-447.73C1512.51,-444.1 1109.49,-431.55 775.46,-396 759.51,-394.3 742.32,-391.87 726.46,-389.38"/>
<polygon fill="black" stroke="black" points="726.67,-385.87 716.24,-387.74 725.56,-392.78 726.67,-385.87"/>
</g>
<!-- PrintingConfiguration -->
<g id="node19" class="node">
<title>PrintingConfiguration</title>
<ellipse fill="none" stroke="darkgreen" cx="1490.46" cy="-306" rx="112.38" ry="18"/>
<text text-anchor="middle" x="1490.46" y="-302.3" font-family="Times,serif" font-size="14.00">PrintingConfiguration</text>
</g>
<!-- PrintingInformation&#45;&gt;PrintingConfiguration -->
<g id="edge62" class="edge">
<title>PrintingInformation&#45;&gt;PrintingConfiguration</title>
<path fill="none" stroke="black" d="M1264.39,-362.92C1309.99,-351.64 1374.1,-335.78 1422.41,-323.83"/>
<polygon fill="black" stroke="black" points="1423.29,-327.22 1432.16,-321.42 1421.61,-320.42 1423.29,-327.22"/>
</g>
<!-- ChunkDB -->
<g id="node54" class="node">
<title>ChunkDB</title>
<ellipse fill="none" stroke="black" cx="1097.46" cy="-306" rx="54.69" ry="18"/>
<text text-anchor="middle" x="1097.46" y="-302.3" font-family="Times,serif" font-size="14.00">ChunkDB</text>
</g>
<!-- PrintingInformation&#45;&gt;ChunkDB -->
<g id="edge60" class="edge">
<title>PrintingInformation&#45;&gt;ChunkDB</title>
<path fill="none" stroke="black" d="M1181.39,-360.41C1166.06,-350.65 1146.53,-338.23 1130.18,-327.82"/>
<polygon fill="black" stroke="black" points="1131.77,-324.69 1121.46,-322.27 1128.02,-330.6 1131.77,-324.69"/>
</g>
<!-- Stage -->
<g id="node55" class="node">
<title>Stage</title>
<ellipse fill="none" stroke="black" cx="1207.46" cy="-306" rx="37.89" ry="18"/>
<text text-anchor="middle" x="1207.46" y="-302.3" font-family="Times,serif" font-size="14.00">Stage</text>
</g>
<!-- PrintingInformation&#45;&gt;Stage -->
<g id="edge61" class="edge">
<title>PrintingInformation&#45;&gt;Stage</title>
<path fill="none" stroke="black" d="M1207.46,-359.7C1207.46,-351.98 1207.46,-342.71 1207.46,-334.11"/>
<polygon fill="black" stroke="black" points="1210.96,-334.1 1207.46,-324.1 1203.96,-334.1 1210.96,-334.1"/>
</g>
<!-- Title -->
<g id="node33" class="node">
<title>Title</title>
<ellipse fill="none" stroke="#ee0000" cx="162.46" cy="-234" rx="31.7" ry="18"/>
<text text-anchor="middle" x="162.46" y="-230.3" font-family="Times,serif" font-size="14.00">Title</text>
</g>
<!-- Document&#45;&gt;Title -->
<g id="edge43" class="edge">
<title>Document&#45;&gt;Title</title>
<path fill="none" stroke="black" d="M610.16,-374.79C509.39,-370.09 305.15,-356.75 242.46,-324 214.42,-309.36 191.44,-280.65 177.41,-259.79"/>
<polygon fill="black" stroke="black" points="180.34,-257.87 171.96,-251.39 174.47,-261.69 180.34,-257.87"/>
</g>
<!-- Author -->
<g id="node41" class="node">
<title>Author</title>
<ellipse fill="none" stroke="#ee0000" cx="660.46" cy="-306" rx="42.49" ry="18"/>
<text text-anchor="middle" x="660.46" y="-302.3" font-family="Times,serif" font-size="14.00">Author</text>
</g>
<!-- Document&#45;&gt;Author -->
<g id="edge44" class="edge">
<title>Document&#45;&gt;Author</title>
<path fill="none" stroke="black" d="M665.73,-359.7C664.96,-351.98 664.03,-342.71 663.17,-334.11"/>
<polygon fill="black" stroke="black" points="666.65,-333.71 662.17,-324.1 659.68,-334.4 666.65,-333.71"/>
</g>
<!-- LayoutObj -->
<g id="node42" class="node">
<title>LayoutObj</title>
<ellipse fill="none" stroke="darkviolet" cx="821.46" cy="-306" rx="58.49" ry="18"/>
<text text-anchor="middle" x="821.46" y="-302.3" font-family="Times,serif" font-size="14.00">LayoutObj</text>
</g>
<!-- Document&#45;&gt;LayoutObj -->
<g id="edge45" class="edge">
<title>Document&#45;&gt;LayoutObj</title>
<path fill="none" stroke="black" d="M698.62,-362.83C722.34,-352.05 755.18,-337.13 780.94,-325.42"/>
<polygon fill="black" stroke="black" points="782.42,-328.59 790.08,-321.26 779.52,-322.22 782.42,-328.59"/>
</g>
<!-- Linearity -->
<g id="node18" class="node">
<title>Linearity</title>
<ellipse fill="none" stroke="darkviolet" cx="1490.46" cy="-378" rx="52.79" ry="18"/>
<text text-anchor="middle" x="1490.46" y="-374.3" font-family="Times,serif" font-size="14.00">Linearity</text>
</g>
<!-- Linearity&#45;&gt;PrintingConfiguration -->
<g id="edge21" class="edge">
<title>Linearity&#45;&gt;PrintingConfiguration</title>
<path fill="none" stroke="black" d="M1490.46,-359.7C1490.46,-351.98 1490.46,-342.71 1490.46,-334.11"/>
<polygon fill="black" stroke="black" points="1493.96,-334.1 1490.46,-324.1 1486.96,-334.1 1493.96,-334.1"/>
</g>
<!-- Notation -->
<g id="node56" class="node">
<title>Notation</title>
<ellipse fill="none" stroke="darkviolet" cx="1490.46" cy="-234" rx="51.19" ry="18"/>
<text text-anchor="middle" x="1490.46" y="-230.3" font-family="Times,serif" font-size="14.00">Notation</text>
</g>
<!-- PrintingConfiguration&#45;&gt;Notation -->
<g id="edge63" class="edge">
<title>PrintingConfiguration&#45;&gt;Notation</title>
<path fill="none" stroke="black" d="M1490.46,-287.7C1490.46,-279.98 1490.46,-270.71 1490.46,-262.11"/>
<polygon fill="black" stroke="black" points="1493.96,-262.1 1490.46,-252.1 1486.96,-262.1 1493.96,-262.1"/>
</g>
<!-- LinkType -->
<g id="node20" class="node">
<title>LinkType</title>
<ellipse fill="none" stroke="darkviolet" cx="503.46" cy="-234" rx="53.09" ry="18"/>
<text text-anchor="middle" x="503.46" y="-230.3" font-family="Times,serif" font-size="14.00">LinkType</text>
</g>
<!-- LinkType&#45;&gt;Spec -->
<g id="edge22" class="edge">
<title>LinkType&#45;&gt;Spec</title>
<path fill="none" stroke="black" d="M537.82,-220C570.4,-207.67 619.15,-189.22 652.3,-176.68"/>
<polygon fill="black" stroke="black" points="653.94,-179.8 662.06,-172.99 651.46,-173.26 653.94,-179.8"/>
</g>
<!-- Expr -->
<g id="node27" class="node">
<title>Expr</title>
<ellipse fill="none" stroke="darkviolet" cx="718.46" cy="-90" rx="33.29" ry="18"/>
<text text-anchor="middle" x="718.46" y="-86.3" font-family="Times,serif" font-size="14.00">Expr</text>
</g>
<!-- Spec&#45;&gt;Expr -->
<g id="edge27" class="edge">
<title>Spec&#45;&gt;Expr</title>
<path fill="none" stroke="black" d="M695.57,-144.41C699.03,-136.34 703.27,-126.43 707.16,-117.35"/>
<polygon fill="black" stroke="black" points="710.47,-118.53 711.19,-107.96 704.03,-115.77 710.47,-118.53"/>
</g>
<!-- Ops -->
<g id="node22" class="node">
<title>Ops</title>
<ellipse fill="none" stroke="darkviolet" cx="1829.46" cy="-450" rx="28.7" ry="18"/>
<text text-anchor="middle" x="1829.46" y="-446.3" font-family="Times,serif" font-size="14.00">Ops</text>
</g>
<!-- Fence -->
<g id="node23" class="node">
<title>Fence</title>
<ellipse fill="none" stroke="darkviolet" cx="1914.46" cy="-450" rx="38.19" ry="18"/>
<text text-anchor="middle" x="1914.46" y="-446.3" font-family="Times,serif" font-size="14.00">Fence</text>
</g>
<!-- OverSymb -->
<g id="node24" class="node">
<title>OverSymb</title>
<ellipse fill="none" stroke="darkviolet" cx="2030.46" cy="-450" rx="59.59" ry="18"/>
<text text-anchor="middle" x="2030.46" y="-446.3" font-family="Times,serif" font-size="14.00">OverSymb</text>
</g>
<!-- Fonts -->
<g id="node25" class="node">
<title>Fonts</title>
<ellipse fill="none" stroke="darkviolet" cx="2144.46" cy="-450" rx="36.29" ry="18"/>
<text text-anchor="middle" x="2144.46" y="-446.3" font-family="Times,serif" font-size="14.00">Fonts</text>
</g>
<!-- Spacing -->
<g id="node26" class="node">
<title>Spacing</title>
<ellipse fill="none" stroke="darkviolet" cx="2246.46" cy="-450" rx="48.19" ry="18"/>
<text text-anchor="middle" x="2246.46" y="-446.3" font-family="Times,serif" font-size="14.00">Spacing</text>
</g>
<!-- Expr&#45;&gt;String -->
<g id="edge25" class="edge">
<title>Expr&#45;&gt;String</title>
<path fill="none" stroke="black" d="M748.33,-81.85C763.3,-78.47 781.76,-74.61 798.46,-72 971.74,-44.91 1179.52,-28.66 1272.83,-22.22"/>
<polygon fill="black" stroke="black" points="1273.09,-25.71 1282.83,-21.53 1272.61,-18.72 1273.09,-25.71"/>
</g>
<!-- Expr&#45;&gt;Expr -->
<g id="edge26" class="edge">
<title>Expr&#45;&gt;Expr</title>
<path fill="none" stroke="black" d="M742.13,-102.66C756.28,-105.47 769.6,-101.25 769.6,-90 769.6,-81.56 762.11,-77.08 752.4,-76.55"/>
<polygon fill="black" stroke="black" points="751.83,-73.09 742.13,-77.34 752.37,-80.06 751.83,-73.09"/>
</g>
<!-- Double -->
<g id="node28" class="node">
<title>Double</title>
<ellipse fill="none" stroke="black" cx="771.46" cy="-18" rx="43.59" ry="18"/>
<text text-anchor="middle" x="771.46" y="-14.3" font-family="Times,serif" font-size="14.00">Double</text>
</g>
<!-- Expr&#45;&gt;Double -->
<g id="edge23" class="edge">
<title>Expr&#45;&gt;Double</title>
<path fill="none" stroke="black" d="M730.48,-73.12C737.1,-64.38 745.45,-53.35 752.88,-43.54"/>
<polygon fill="black" stroke="black" points="755.86,-45.39 759.11,-35.31 750.28,-41.17 755.86,-45.39"/>
</g>
<!-- Integer -->
<g id="node29" class="node">
<title>Integer</title>
<ellipse fill="none" stroke="black" cx="665.46" cy="-18" rx="44.69" ry="18"/>
<text text-anchor="middle" x="665.46" y="-14.3" font-family="Times,serif" font-size="14.00">Integer</text>
</g>
<!-- Expr&#45;&gt;Integer -->
<g id="edge24" class="edge">
<title>Expr&#45;&gt;Integer</title>
<path fill="none" stroke="black" d="M706.43,-73.12C699.82,-64.38 691.47,-53.35 684.03,-43.54"/>
<polygon fill="black" stroke="black" points="686.63,-41.17 677.8,-35.31 681.05,-45.39 686.63,-41.17"/>
</g>
<!-- ListType -->
<g id="node30" class="node">
<title>ListType</title>
<ellipse fill="none" stroke="darkviolet" cx="81.46" cy="-306" rx="50.89" ry="18"/>
<text text-anchor="middle" x="81.46" y="-302.3" font-family="Times,serif" font-size="14.00">ListType</text>
</g>
<!-- ListType&#45;&gt;Label -->
<g id="edge30" class="edge">
<title>ListType&#45;&gt;Label</title>
<path fill="none" stroke="black" d="M129.34,-299.76C161.35,-296.31 204.42,-291.74 242.46,-288 417.89,-270.74 463.06,-277.73 637.46,-252 650.78,-250.04 665.18,-247.3 678.19,-244.6"/>
<polygon fill="black" stroke="black" points="679.23,-247.96 688.28,-242.46 677.77,-241.11 679.23,-247.96"/>
</g>
<!-- ItemType -->
<g id="node31" class="node">
<title>ItemType</title>
<ellipse fill="none" stroke="darkviolet" cx="81.46" cy="-378" rx="54.69" ry="18"/>
<text text-anchor="middle" x="81.46" y="-374.3" font-family="Times,serif" font-size="14.00">ItemType</text>
</g>
<!-- ListType&#45;&gt;ItemType -->
<g id="edge28" class="edge">
<title>ListType&#45;&gt;ItemType</title>
<path fill="none" stroke="black" d="M87.37,-324.28C88.17,-332.03 88.4,-341.36 88.05,-350.01"/>
<polygon fill="black" stroke="black" points="84.55,-349.83 87.34,-360.05 91.53,-350.33 84.55,-349.83"/>
</g>
<!-- Maybe -->
<g id="node32" class="node">
<title>Maybe</title>
<ellipse fill="none" stroke="black" cx="70.46" cy="-234" rx="42.49" ry="18"/>
<text text-anchor="middle" x="70.46" y="-230.3" font-family="Times,serif" font-size="14.00">Maybe</text>
</g>
<!-- ListType&#45;&gt;Maybe -->
<g id="edge29" class="edge">
<title>ListType&#45;&gt;Maybe</title>
<path fill="none" stroke="black" d="M78.74,-287.7C77.53,-279.98 76.07,-270.71 74.72,-262.11"/>
<polygon fill="black" stroke="black" points="78.16,-261.44 73.15,-252.1 71.24,-262.53 78.16,-261.44"/>
</g>
<!-- ListType&#45;&gt;Title -->
<g id="edge31" class="edge">
<title>ListType&#45;&gt;Title</title>
<path fill="none" stroke="black" d="M99.84,-289.12C111.17,-279.32 125.84,-266.65 138.13,-256.02"/>
<polygon fill="black" stroke="black" points="140.53,-258.58 145.8,-249.39 135.95,-253.28 140.53,-258.58"/>
</g>
<!-- ItemType&#45;&gt;Spec -->
<g id="edge32" class="edge">
<title>ItemType&#45;&gt;Spec</title>
<path fill="none" stroke="black" d="M56.19,-361.93C43.3,-352.74 28.82,-339.74 21.46,-324 1.12,-280.51 -13.15,-251.24 19.46,-216 54.5,-178.13 431.02,-184.12 482.46,-180 539.01,-175.47 604.28,-170.05 645.93,-166.57"/>
<polygon fill="black" stroke="black" points="646.32,-170.05 655.99,-165.73 645.74,-163.07 646.32,-170.05"/>
</g>
<!-- ItemType&#45;&gt;ListType -->
<g id="edge33" class="edge">
<title>ItemType&#45;&gt;ListType</title>
<path fill="none" stroke="black" d="M75.58,-360.05C74.76,-352.35 74.52,-343.03 74.85,-334.36"/>
<polygon fill="black" stroke="black" points="78.35,-334.49 75.54,-324.28 71.37,-334.01 78.35,-334.49"/>
</g>
<!-- Title&#45;&gt;Spec -->
<g id="edge35" class="edge">
<title>Title&#45;&gt;Spec</title>
<path fill="none" stroke="black" d="M186.35,-221.76C191.87,-219.54 197.78,-217.45 203.46,-216 245.83,-205.14 535.65,-177.29 645.96,-166.95"/>
<polygon fill="black" stroke="black" points="646.43,-170.42 656.06,-166 645.78,-163.45 646.43,-170.42"/>
</g>
<!-- Citation -->
<g id="node34" class="node">
<title>Citation</title>
<ellipse fill="none" stroke="darkviolet" cx="1311.46" cy="-306" rx="48.19" ry="18"/>
<text text-anchor="middle" x="1311.46" y="-302.3" font-family="Times,serif" font-size="14.00">Citation</text>
</g>
<!-- EntryID -->
<g id="node35" class="node">
<title>EntryID</title>
<ellipse fill="none" stroke="black" cx="1248.46" cy="-234" rx="48.19" ry="18"/>
<text text-anchor="middle" x="1248.46" y="-230.3" font-family="Times,serif" font-size="14.00">EntryID</text>
</g>
<!-- Citation&#45;&gt;EntryID -->
<g id="edge36" class="edge">
<title>Citation&#45;&gt;EntryID</title>
<path fill="none" stroke="black" d="M1296.85,-288.76C1288.93,-279.97 1278.99,-268.93 1270.19,-259.14"/>
<polygon fill="black" stroke="black" points="1272.72,-256.72 1263.43,-251.63 1267.52,-261.41 1272.72,-256.72"/>
</g>
<!-- CitationKind -->
<g id="node36" class="node">
<title>CitationKind</title>
<ellipse fill="none" stroke="black" cx="1112.46" cy="-234" rx="69.59" ry="18"/>
<text text-anchor="middle" x="1112.46" y="-230.3" font-family="Times,serif" font-size="14.00">CitationKind</text>
</g>
<!-- Citation&#45;&gt;CitationKind -->
<g id="edge37" class="edge">
<title>Citation&#45;&gt;CitationKind</title>
<path fill="none" stroke="black" d="M1277.7,-293.13C1245.87,-281.93 1197.8,-265.02 1161.7,-252.32"/>
<polygon fill="black" stroke="black" points="1162.45,-248.88 1151.86,-248.86 1160.13,-255.48 1162.45,-248.88"/>
</g>
<!-- CiteField -->
<g id="node37" class="node">
<title>CiteField</title>
<ellipse fill="none" stroke="darkviolet" cx="1367.46" cy="-234" rx="53.09" ry="18"/>
<text text-anchor="middle" x="1367.46" y="-230.3" font-family="Times,serif" font-size="14.00">CiteField</text>
</g>
<!-- Citation&#45;&gt;CiteField -->
<g id="edge38" class="edge">
<title>Citation&#45;&gt;CiteField</title>
<path fill="none" stroke="black" d="M1324.73,-288.41C1331.63,-279.78 1340.21,-269.06 1347.86,-259.5"/>
<polygon fill="black" stroke="black" points="1350.77,-261.47 1354.28,-251.47 1345.3,-257.09 1350.77,-261.47"/>
</g>
<!-- CiteField&#45;&gt;Spec -->
<g id="edge39" class="edge">
<title>CiteField&#45;&gt;Spec</title>
<path fill="none" stroke="black" d="M1329.34,-221.38C1321.5,-219.32 1313.26,-217.39 1305.46,-216 1092.32,-177.95 832.72,-166.97 731.64,-164.01"/>
<polygon fill="black" stroke="black" points="731.6,-160.51 721.51,-163.73 731.41,-167.51 731.6,-160.51"/>
</g>
<!-- People -->
<g id="node38" class="node">
<title>People</title>
<ellipse fill="none" stroke="black" cx="1169.46" cy="-162" rx="41.69" ry="18"/>
<text text-anchor="middle" x="1169.46" y="-158.3" font-family="Times,serif" font-size="14.00">People</text>
</g>
<!-- CiteField&#45;&gt;People -->
<g id="edge40" class="edge">
<title>CiteField&#45;&gt;People</title>
<path fill="none" stroke="black" d="M1332.06,-220.49C1297.9,-208.41 1246.21,-190.14 1210.32,-177.45"/>
<polygon fill="black" stroke="black" points="1211.23,-174.06 1200.64,-174.02 1208.9,-180.66 1211.23,-174.06"/>
</g>
<!-- HP -->
<g id="node39" class="node">
<title>HP</title>
<ellipse fill="none" stroke="darkviolet" cx="601.46" cy="-234" rx="27" ry="18"/>
<text text-anchor="middle" x="601.46" y="-230.3" font-family="Times,serif" font-size="14.00">HP</text>
</g>
<!-- HP&#45;&gt;Spec -->
<g id="edge41" class="edge">
<title>HP&#45;&gt;Spec</title>
<path fill="none" stroke="black" d="M618.23,-219.5C630.78,-209.41 648.17,-195.41 662.51,-183.88"/>
<polygon fill="black" stroke="black" points="664.94,-186.41 670.54,-177.42 660.55,-180.96 664.94,-186.41"/>
</g>
<!-- BibRef -->
<g id="node40" class="node">
<title>BibRef</title>
<ellipse fill="none" stroke="#ee0000" cx="1371.46" cy="-378" rx="42.49" ry="18"/>
<text text-anchor="middle" x="1371.46" y="-374.3" font-family="Times,serif" font-size="14.00">BibRef</text>
</g>
<!-- BibRef&#45;&gt;Citation -->
<g id="edge42" class="edge">
<title>BibRef&#45;&gt;Citation</title>
<path fill="none" stroke="black" d="M1357.54,-360.76C1350.08,-352.06 1340.73,-341.15 1332.4,-331.43"/>
<polygon fill="black" stroke="black" points="1334.88,-328.95 1325.71,-323.63 1329.57,-333.5 1334.88,-328.95"/>
</g>
<!-- Author&#45;&gt;Spec -->
<g id="edge51" class="edge">
<title>Author&#45;&gt;Spec</title>
<path fill="none" stroke="black" d="M662.96,-287.87C665.68,-269.9 670.32,-240.86 675.46,-216 677.21,-207.52 679.37,-198.34 681.42,-190.04"/>
<polygon fill="black" stroke="black" points="684.87,-190.67 683.92,-180.11 678.08,-188.95 684.87,-190.67"/>
</g>
<!-- LayoutObj&#45;&gt;Label -->
<g id="edge48" class="edge">
<title>LayoutObj&#45;&gt;Label</title>
<path fill="none" stroke="black" d="M798.79,-289.29C784.07,-279.09 764.76,-265.7 748.99,-254.78"/>
<polygon fill="black" stroke="black" points="750.86,-251.82 740.65,-249 746.88,-257.57 750.86,-251.82"/>
</g>
<!-- LayoutObj&#45;&gt;Spec -->
<g id="edge47" class="edge">
<title>LayoutObj&#45;&gt;Spec</title>
<path fill="none" stroke="black" d="M813.34,-287.84C803.76,-268.8 786.44,-237.87 765.46,-216 752.24,-202.23 734.92,-189.93 720.06,-180.65"/>
<polygon fill="black" stroke="black" points="721.54,-177.46 711.17,-175.28 717.92,-183.45 721.54,-177.46"/>
</g>
<!-- Tags -->
<g id="node43" class="node">
<title>Tags</title>
<ellipse fill="none" stroke="#ee0000" cx="1077.46" cy="-162" rx="32.49" ry="18"/>
<text text-anchor="middle" x="1077.46" y="-158.3" font-family="Times,serif" font-size="14.00">Tags</text>
</g>
<!-- LayoutObj&#45;&gt;Tags -->
<g id="edge46" class="edge">
<title>LayoutObj&#45;&gt;Tags</title>
<path fill="none" stroke="black" d="M851.39,-290.52C870.45,-280.73 895.26,-266.91 915.46,-252 934.17,-238.18 934.01,-228.77 953.46,-216 968.6,-206.06 1010.75,-188.77 1041.72,-176.65"/>
<polygon fill="black" stroke="black" points="1043.28,-179.79 1051.33,-172.91 1040.74,-173.27 1043.28,-179.79"/>
</g>
<!-- Bool -->
<g id="node44" class="node">
<title>Bool</title>
<ellipse fill="none" stroke="black" cx="993.46" cy="-234" rx="31.4" ry="18"/>
<text text-anchor="middle" x="993.46" y="-230.3" font-family="Times,serif" font-size="14.00">Bool</text>
</g>
<!-- LayoutObj&#45;&gt;Bool -->
<g id="edge49" class="edge">
<title>LayoutObj&#45;&gt;Bool</title>
<path fill="none" stroke="black" d="M855.44,-291.17C885.56,-278.91 929.33,-261.1 959.46,-248.84"/>
<polygon fill="black" stroke="black" points="960.78,-252.08 968.73,-245.06 958.15,-245.59 960.78,-252.08"/>
</g>
<!-- Caption -->
<g id="node45" class="node">
<title>Caption</title>
<ellipse fill="none" stroke="#ee0000" cx="859.46" cy="-234" rx="46.59" ry="18"/>
<text text-anchor="middle" x="859.46" y="-230.3" font-family="Times,serif" font-size="14.00">Caption</text>
</g>
<!-- LayoutObj&#45;&gt;Caption -->
<g id="edge50" class="edge">
<title>LayoutObj&#45;&gt;Caption</title>
<path fill="none" stroke="black" d="M830.66,-288.05C835.09,-279.89 840.51,-269.91 845.44,-260.82"/>
<polygon fill="black" stroke="black" points="848.65,-262.25 850.34,-251.79 842.5,-258.91 848.65,-262.25"/>
</g>
<!-- Tags&#45;&gt;String -->
<g id="edge54" class="edge">
<title>Tags&#45;&gt;String</title>
<path fill="none" stroke="black" d="M1098.37,-148.05C1126.9,-130.48 1179.68,-98.25 1225.46,-72 1246.25,-60.08 1269.84,-47.17 1288.55,-37.08"/>
<polygon fill="black" stroke="black" points="1290.43,-40.04 1297.58,-32.23 1287.12,-33.88 1290.43,-40.04"/>
</g>
<!-- Caption&#45;&gt;Spec -->
<g id="edge59" class="edge">
<title>Caption&#45;&gt;Spec</title>
<path fill="none" stroke="black" d="M828.49,-220.32C798.96,-208.24 754.54,-190.05 723.68,-177.42"/>
<polygon fill="black" stroke="black" points="724.75,-174.08 714.17,-173.53 722.1,-180.55 724.75,-174.08"/>
</g>
<!-- Contents -->
<g id="node46" class="node">
<title>Contents</title>
<ellipse fill="none" stroke="#ee0000" cx="379.46" cy="-234" rx="52.79" ry="18"/>
<text text-anchor="middle" x="379.46" y="-230.3" font-family="Times,serif" font-size="14.00">Contents</text>
</g>
<!-- Contents&#45;&gt;Spec -->
<g id="edge52" class="edge">
<title>Contents&#45;&gt;Spec</title>
<path fill="none" stroke="black" d="M418.73,-221.87C426.25,-219.84 434.08,-217.8 441.46,-216 513.65,-198.37 598.49,-180.86 647.6,-171.03"/>
<polygon fill="black" stroke="black" points="648.4,-174.44 657.52,-169.06 647.03,-167.58 648.4,-174.44"/>
</g>
<!-- Items -->
<g id="node47" class="node">
<title>Items</title>
<ellipse fill="none" stroke="#ee0000" cx="821.46" cy="-378" rx="37.09" ry="18"/>
<text text-anchor="middle" x="821.46" y="-374.3" font-family="Times,serif" font-size="14.00">Items</text>
</g>
<!-- Items&#45;&gt;LayoutObj -->
<g id="edge53" class="edge">
<title>Items&#45;&gt;LayoutObj</title>
<path fill="none" stroke="black" d="M821.46,-359.7C821.46,-351.98 821.46,-342.71 821.46,-334.11"/>
<polygon fill="black" stroke="black" points="824.96,-334.1 821.46,-324.1 817.96,-334.1 824.96,-334.1"/>
</g>
<!-- Depth -->
<g id="node48" class="node">
<title>Depth</title>
<ellipse fill="none" stroke="#ee0000" cx="2351.46" cy="-450" rx="38.99" ry="18"/>
<text text-anchor="middle" x="2351.46" y="-446.3" font-family="Times,serif" font-size="14.00">Depth</text>
</g>
<!-- Int -->
<g id="node49" class="node">
<title>Int</title>
<ellipse fill="none" stroke="black" cx="2351.46" cy="-378" rx="27" ry="18"/>
<text text-anchor="middle" x="2351.46" y="-374.3" font-family="Times,serif" font-size="14.00">Int</text>
</g>
<!-- Depth&#45;&gt;Int -->
<g id="edge55" class="edge">
<title>Depth&#45;&gt;Int</title>
<path fill="none" stroke="black" d="M2351.46,-431.7C2351.46,-423.98 2351.46,-414.71 2351.46,-406.11"/>
<polygon fill="black" stroke="black" points="2354.96,-406.1 2351.46,-396.1 2347.96,-406.1 2354.96,-406.1"/>
</g>
<!-- Width -->
<g id="node50" class="node">
<title>Width</title>
<ellipse fill="none" stroke="#ee0000" cx="2446.46" cy="-450" rx="38.19" ry="18"/>
<text text-anchor="middle" x="2446.46" y="-446.3" font-family="Times,serif" font-size="14.00">Width</text>
</g>
<!-- Float -->
<g id="node51" class="node">
<title>Float</title>
<ellipse fill="none" stroke="black" cx="2495.46" cy="-378" rx="34.39" ry="18"/>
<text text-anchor="middle" x="2495.46" y="-374.3" font-family="Times,serif" font-size="14.00">Float</text>
</g>
<!-- Width&#45;&gt;Float -->
<g id="edge56" class="edge">
<title>Width&#45;&gt;Float</title>
<path fill="none" stroke="black" d="M2457.82,-432.76C2463.88,-424.11 2471.47,-413.27 2478.23,-403.6"/>
<polygon fill="black" stroke="black" points="2481.29,-405.35 2484.15,-395.15 2475.55,-401.33 2481.29,-405.35"/>
</g>
<!-- Height -->
<g id="node52" class="node">
<title>Height</title>
<ellipse fill="none" stroke="#ee0000" cx="2545.46" cy="-450" rx="42.49" ry="18"/>
<text text-anchor="middle" x="2545.46" y="-446.3" font-family="Times,serif" font-size="14.00">Height</text>
</g>
<!-- Height&#45;&gt;Float -->
<g id="edge57" class="edge">
<title>Height&#45;&gt;Float</title>
<path fill="none" stroke="black" d="M2533.61,-432.41C2527.42,-423.74 2519.72,-412.97 2512.87,-403.38"/>
<polygon fill="black" stroke="black" points="2515.54,-401.09 2506.88,-394.99 2509.84,-405.16 2515.54,-401.09"/>
</g>
<!-- Filepath -->
<g id="node53" class="node">
<title>Filepath</title>
<ellipse fill="none" stroke="#ee0000" cx="1574.46" cy="-90" rx="49.29" ry="18"/>
<text text-anchor="middle" x="1574.46" y="-86.3" font-family="Times,serif" font-size="14.00">Filepath</text>
</g>
<!-- Filepath&#45;&gt;String -->
<g id="edge58" class="edge">
<title>Filepath&#45;&gt;String</title>
<path fill="none" stroke="black" d="M1536.46,-78.44C1490.63,-65.71 1413.78,-44.37 1365.72,-31.02"/>
<polygon fill="black" stroke="black" points="1366.5,-27.6 1355.92,-28.3 1364.62,-34.35 1366.5,-27.6"/>
</g>
<!-- MathContext -->
<g id="node57" class="node">
<title>MathContext</title>
<ellipse fill="none" stroke="darkviolet" cx="2677.46" cy="-450" rx="71.49" ry="18"/>
<text text-anchor="middle" x="2677.46" y="-446.3" font-family="Times,serif" font-size="14.00">MathContext</text>
</g>
<!-- Latex -->
<g id="node58" class="node">
<title>Latex</title>
<ellipse fill="none" stroke="darkgreen" cx="1988.46" cy="-90" rx="36.29" ry="18"/>
<text text-anchor="middle" x="1988.46" y="-86.3" font-family="Times,serif" font-size="14.00">Latex</text>
</g>
<!-- Latex&#45;&gt;String -->
<g id="edge64" class="edge">
<title>Latex&#45;&gt;String</title>
<path fill="none" stroke="black" d="M1961.7,-77.51C1955.79,-75.37 1949.48,-73.37 1943.46,-72 1735.64,-24.84 1480.05,-18.87 1373.18,-18.63"/>
<polygon fill="black" stroke="black" points="1373.01,-15.13 1363,-18.62 1373,-22.13 1373.01,-15.13"/>
</g>
<!-- D -->
<g id="node59" class="node">
<title>D</title>
<ellipse fill="none" stroke="#ee0000" cx="1457.46" cy="-162" rx="27" ry="18"/>
<text text-anchor="middle" x="1457.46" y="-158.3" font-family="Times,serif" font-size="14.00">D</text>
</g>
<!-- D&#45;&gt;Doc -->
<g id="edge65" class="edge">
<title>D&#45;&gt;Doc</title>
<path fill="none" stroke="black" d="M1435.2,-151.52C1410.53,-140.98 1369.59,-123.43 1334.46,-108 1332.62,-107.19 1330.74,-106.36 1328.84,-105.52"/>
<polygon fill="black" stroke="black" points="1329.9,-102.16 1319.34,-101.3 1327.06,-108.56 1329.9,-102.16"/>
</g>
<!-- Package -->
<g id="node60" class="node">
<title>Package</title>
<ellipse fill="none" stroke="darkviolet" cx="2815.46" cy="-450" rx="48.99" ry="18"/>
<text text-anchor="middle" x="2815.46" y="-446.3" font-family="Times,serif" font-size="14.00">Package</text>
</g>
<!-- Def -->
<g id="node61" class="node">
<title>Def</title>
<ellipse fill="none" stroke="darkviolet" cx="2909.46" cy="-450" rx="27" ry="18"/>
<text text-anchor="middle" x="2909.46" y="-446.3" font-family="Times,serif" font-size="14.00">Def</text>
</g>
<!-- FieldWrap -->
<g id="node62" class="node">
<title>FieldWrap</title>
<ellipse fill="none" stroke="darkviolet" cx="1618.46" cy="-234" rx="58.49" ry="18"/>
<text text-anchor="middle" x="1618.46" y="-230.3" font-family="Times,serif" font-size="14.00">FieldWrap</text>
</g>
<!-- FieldWrap&#45;&gt;String -->
<g id="edge67" class="edge">
<title>FieldWrap&#45;&gt;String</title>
<path fill="none" stroke="black" d="M1574.57,-222.03C1525.59,-209.63 1449.51,-189.9 1421.46,-180 1346.78,-153.64 1301.69,-174.36 1258.46,-108 1249.72,-94.59 1251.65,-86.48 1258.46,-72 1264.93,-58.24 1276.92,-46.82 1288.79,-38.16"/>
<polygon fill="black" stroke="black" points="1291.04,-40.86 1297.33,-32.34 1287.1,-35.07 1291.04,-40.86"/>
</g>
<!-- FieldWrap&#45;&gt;Spec -->
<g id="edge69" class="edge">
<title>FieldWrap&#45;&gt;Spec</title>
<path fill="none" stroke="black" d="M1576.63,-221.26C1568.03,-219.21 1559,-217.32 1550.46,-216 1469.26,-203.46 895.19,-173.54 731.77,-165.19"/>
<polygon fill="black" stroke="black" points="731.77,-161.69 721.61,-164.68 731.42,-168.68 731.77,-161.69"/>
</g>
<!-- FieldWrap&#45;&gt;D -->
<g id="edge70" class="edge">
<title>FieldWrap&#45;&gt;D</title>
<path fill="none" stroke="black" d="M1585.88,-218.83C1557.6,-206.54 1516.93,-188.86 1488.97,-176.7"/>
<polygon fill="black" stroke="black" points="1490.22,-173.43 1479.65,-172.65 1487.43,-179.85 1490.22,-173.43"/>
</g>
<!-- FieldWrap&#45;&gt;FieldWrap -->
<g id="edge68" class="edge">
<title>FieldWrap&#45;&gt;FieldWrap</title>
<path fill="none" stroke="black" d="M1658.6,-247.17C1677.91,-248.8 1694.95,-244.41 1694.95,-234 1694.95,-225.46 1683.48,-220.98 1668.7,-220.54"/>
<polygon fill="black" stroke="black" points="1668.49,-217.04 1658.6,-220.83 1668.7,-224.04 1668.49,-217.04"/>
</g>
<!-- StyleGuide -->
<g id="node63" class="node">
<title>StyleGuide</title>
<ellipse fill="none" stroke="darkviolet" cx="909.46" cy="-90" rx="61.99" ry="18"/>
<text text-anchor="middle" x="909.46" y="-86.3" font-family="Times,serif" font-size="14.00">StyleGuide</text>
</g>
<!-- StyleGuide&#45;&gt;String -->
<g id="edge72" class="edge">
<title>StyleGuide&#45;&gt;String</title>
<path fill="none" stroke="black" d="M960.17,-79.69C974.19,-77.16 989.4,-74.44 1003.46,-72 1099.87,-55.27 1212.87,-36.76 1275.18,-26.64"/>
<polygon fill="black" stroke="black" points="1275.79,-30.08 1285.1,-25.03 1274.67,-23.18 1275.79,-30.08"/>
</g>
<!-- StyleGuide&#45;&gt;StyleGuide -->
<g id="edge71" class="edge">
<title>StyleGuide&#45;&gt;StyleGuide</title>
<path fill="none" stroke="black" d="M951.71,-103.2C971.67,-104.74 989.2,-100.34 989.2,-90 989.2,-81.44 977.18,-76.95 961.71,-76.53"/>
<polygon fill="black" stroke="black" points="961.62,-73.03 951.71,-76.8 961.8,-80.03 961.62,-73.03"/>
</g>
<!-- DocType -->
<g id="node64" class="node">
<title>DocType</title>
<ellipse fill="none" stroke="darkviolet" cx="3005.46" cy="-450" rx="50.89" ry="18"/>
<text text-anchor="middle" x="3005.46" y="-446.3" font-family="Times,serif" font-size="14.00">DocType</text>
</g>
<!-- Format -->
<g id="node65" class="node">
<title>Format</title>
<ellipse fill="none" stroke="darkviolet" cx="3118.46" cy="-450" rx="44.39" ry="18"/>
<text text-anchor="middle" x="3118.46" y="-446.3" font-family="Times,serif" font-size="14.00">Format</text>
</g>
</g>
</svg>
