<?xml version="1.0" encoding="UTF-8" standalone="no"?>
<!DOCTYPE svg PUBLIC "-//W3C//DTD SVG 1.1//EN"
 "http://www.w3.org/Graphics/SVG/1.1/DTD/svg11.dtd">
<!-- Generated by graphviz version 2.43.0 (0)
 -->
<!-- Title: alltypes Pages: 1 -->
<svg width="3045pt" height="476pt"
 viewBox="0.00 0.00 3045.02 476.00" xmlns="http://www.w3.org/2000/svg" xmlns:xlink="http://www.w3.org/1999/xlink">
<g id="graph0" class="graph" transform="scale(1 1) rotate(0) translate(4 472)">
<title>alltypes</title>
<polygon fill="white" stroke="transparent" points="-4,4 -4,-472 3041.02,-472 3041.02,4 -4,4"/>
<!-- NodeFamily -->
<g id="node1" class="node">
<title>NodeFamily</title>
<ellipse fill="none" stroke="#00cdcd" cx="632.83" cy="-306" rx="66.09" ry="18"/>
<text text-anchor="middle" x="632.83" y="-302.3" font-family="Times,serif" font-size="14.00">NodeFamily</text>
</g>
<!-- UID -->
<g id="node2" class="node">
<title>UID</title>
<ellipse fill="none" stroke="black" cx="396.83" cy="-234" rx="29.5" ry="18"/>
<text text-anchor="middle" x="396.83" y="-230.3" font-family="Times,serif" font-size="14.00">UID</text>
</g>
<!-- NodeFamily&#45;&gt;UID -->
<g id="edge1" class="edge">
<title>NodeFamily&#45;&gt;UID</title>
<path fill="none" stroke="black" d="M583.64,-293.91C543.41,-284.34 485.3,-269.33 435.83,-252 433.59,-251.22 431.3,-250.36 429.01,-249.47"/>
<polygon fill="black" stroke="black" points="430.28,-246.21 419.7,-245.64 427.62,-252.68 430.28,-246.21"/>
</g>
<!-- Label -->
<g id="node3" class="node">
<title>Label</title>
<ellipse fill="none" stroke="#ee0000" cx="676.83" cy="-234" rx="36.29" ry="18"/>
<text text-anchor="middle" x="676.83" y="-230.3" font-family="Times,serif" font-size="14.00">Label</text>
</g>
<!-- NodeFamily&#45;&gt;Label -->
<g id="edge2" class="edge">
<title>NodeFamily&#45;&gt;Label</title>
<path fill="none" stroke="black" d="M643.48,-288.05C648.8,-279.59 655.33,-269.19 661.21,-259.84"/>
<polygon fill="black" stroke="black" points="664.22,-261.64 666.58,-251.31 658.29,-257.91 664.22,-261.64"/>
</g>
<!-- Colour -->
<g id="node4" class="node">
<title>Colour</title>
<ellipse fill="none" stroke="#ee0000" cx="949.83" cy="-162" rx="41.69" ry="18"/>
<text text-anchor="middle" x="949.83" y="-158.3" font-family="Times,serif" font-size="14.00">Colour</text>
</g>
<!-- NodeFamily&#45;&gt;Colour -->
<g id="edge3" class="edge">
<title>NodeFamily&#45;&gt;Colour</title>
<path fill="none" stroke="black" d="M684.17,-294.46C751.95,-280.43 863.71,-256.81 871.83,-252 886,-243.61 913.01,-210.82 931.22,-187.49"/>
<polygon fill="black" stroke="black" points="934.14,-189.43 937.49,-179.38 928.6,-185.15 934.14,-189.43"/>
</g>
<!-- String -->
<g id="node6" class="node">
<title>String</title>
<ellipse fill="none" stroke="black" cx="1285.83" cy="-18" rx="40.09" ry="18"/>
<text text-anchor="middle" x="1285.83" y="-14.3" font-family="Times,serif" font-size="14.00">String</text>
</g>
<!-- Label&#45;&gt;String -->
<g id="edge7" class="edge">
<title>Label&#45;&gt;String</title>
<path fill="none" stroke="black" d="M702.44,-221.19C765,-192.66 930.97,-118.91 1074.83,-72 1130.84,-53.73 1196.94,-38.05 1240.03,-28.58"/>
<polygon fill="black" stroke="black" points="1240.9,-31.97 1249.93,-26.43 1239.42,-25.13 1240.9,-31.97"/>
</g>
<!-- Spec -->
<g id="node22" class="node">
<title>Spec</title>
<ellipse fill="none" stroke="darkviolet" cx="606.83" cy="-162" rx="33.29" ry="18"/>
<text text-anchor="middle" x="606.83" y="-158.3" font-family="Times,serif" font-size="14.00">Spec</text>
</g>
<!-- Label&#45;&gt;Spec -->
<g id="edge35" class="edge">
<title>Label&#45;&gt;Spec</title>
<path fill="none" stroke="black" d="M661.29,-217.46C651.96,-208.13 639.91,-196.09 629.53,-185.7"/>
<polygon fill="black" stroke="black" points="631.86,-183.09 622.32,-178.49 626.91,-188.04 631.86,-183.09"/>
</g>
<!-- Colour&#45;&gt;String -->
<g id="edge6" class="edge">
<title>Colour&#45;&gt;String</title>
<path fill="none" stroke="black" d="M978.47,-148.89C1038.98,-123.32 1179.79,-63.81 1247.77,-35.08"/>
<polygon fill="black" stroke="black" points="1249.4,-38.19 1257.25,-31.08 1246.68,-31.75 1249.4,-38.19"/>
</g>
<!-- GraphInfo -->
<g id="node5" class="node">
<title>GraphInfo</title>
<ellipse fill="none" stroke="#00cdcd" cx="587.83" cy="-378" rx="57.69" ry="18"/>
<text text-anchor="middle" x="587.83" y="-374.3" font-family="Times,serif" font-size="14.00">GraphInfo</text>
</g>
<!-- GraphInfo&#45;&gt;NodeFamily -->
<g id="edge4" class="edge">
<title>GraphInfo&#45;&gt;NodeFamily</title>
<path fill="none" stroke="black" d="M598.72,-360.05C604.08,-351.71 610.65,-341.49 616.59,-332.25"/>
<polygon fill="black" stroke="black" points="619.57,-334.09 622.03,-323.79 613.68,-330.31 619.57,-334.09"/>
</g>
<!-- GraphInfo&#45;&gt;UID -->
<g id="edge5" class="edge">
<title>GraphInfo&#45;&gt;UID</title>
<path fill="none" stroke="black" d="M566.29,-360.99C531,-334.76 461.02,-282.72 422.96,-254.43"/>
<polygon fill="black" stroke="black" points="425.01,-251.59 414.9,-248.43 420.83,-257.21 425.01,-251.59"/>
</g>
<!-- Variation -->
<g id="node7" class="node">
<title>Variation</title>
<ellipse fill="none" stroke="darkviolet" cx="1797.83" cy="-162" rx="52.79" ry="18"/>
<text text-anchor="middle" x="1797.83" y="-158.3" font-family="Times,serif" font-size="14.00">Variation</text>
</g>
<!-- Variation&#45;&gt;String -->
<g id="edge8" class="edge">
<title>Variation&#45;&gt;String</title>
<path fill="none" stroke="black" d="M1757.95,-150.14C1749.06,-147.93 1739.65,-145.75 1730.83,-144 1620.27,-122.11 1581.28,-157.06 1479.83,-108 1458.88,-97.87 1461.74,-84.02 1441.83,-72 1407.46,-51.26 1363.9,-37.34 1331.55,-28.98"/>
<polygon fill="black" stroke="black" points="1332.02,-25.49 1321.47,-26.47 1330.32,-32.28 1332.02,-25.49"/>
</g>
<!-- Doc -->
<g id="node8" class="node">
<title>Doc</title>
<ellipse fill="none" stroke="black" cx="1259.83" cy="-90" rx="28.7" ry="18"/>
<text text-anchor="middle" x="1259.83" y="-86.3" font-family="Times,serif" font-size="14.00">Doc</text>
</g>
<!-- Variation&#45;&gt;Doc -->
<g id="edge9" class="edge">
<title>Variation&#45;&gt;Doc</title>
<path fill="none" stroke="black" d="M1755.39,-151.25C1744.43,-148.53 1732.71,-145.82 1721.83,-144 1531.36,-112.14 1475.84,-156.11 1288.83,-108 1288.23,-107.85 1287.64,-107.69 1287.05,-107.52"/>
<polygon fill="black" stroke="black" points="1288.09,-104.18 1277.49,-104.23 1285.81,-110.79 1288.09,-104.18"/>
</g>
<!-- Variation&#45;&gt;Doc -->
<g id="edge20" class="edge">
<title>Variation&#45;&gt;Doc</title>
<path fill="none" stroke="black" d="M1762.23,-148.62C1754.88,-146.86 1747.16,-145.23 1739.83,-144 1549.36,-112.14 1493.84,-156.11 1306.83,-108 1302.54,-106.9 1298.12,-105.35 1293.77,-103.63"/>
<polygon fill="black" stroke="black" points="1294.97,-100.34 1284.4,-99.7 1292.27,-106.79 1294.97,-100.34"/>
</g>
<!-- td -->
<g id="node13" class="node">
<title>td</title>
<ellipse fill="none" stroke="black" cx="2032.83" cy="-90" rx="27" ry="18"/>
<text text-anchor="middle" x="2032.83" y="-86.3" font-family="Times,serif" font-size="14.00">td</text>
</g>
<!-- Variation&#45;&gt;td -->
<g id="edge15" class="edge">
<title>Variation&#45;&gt;td</title>
<path fill="none" stroke="black" d="M1841.61,-151.74C1882.41,-142.55 1944.61,-127.1 1996.83,-108 1998.68,-107.32 2000.56,-106.59 2002.45,-105.81"/>
<polygon fill="black" stroke="black" points="2004.03,-108.94 2011.78,-101.72 2001.21,-102.53 2004.03,-108.94"/>
</g>
<!-- figure -->
<g id="node14" class="node">
<title>figure</title>
<ellipse fill="none" stroke="black" cx="1643.83" cy="-90" rx="38.19" ry="18"/>
<text text-anchor="middle" x="1643.83" y="-86.3" font-family="Times,serif" font-size="14.00">figure</text>
</g>
<!-- Variation&#45;&gt;figure -->
<g id="edge16" class="edge">
<title>Variation&#45;&gt;figure</title>
<path fill="none" stroke="black" d="M1767.4,-147.17C1742.18,-135.71 1706.29,-119.39 1679.68,-107.3"/>
<polygon fill="black" stroke="black" points="1680.89,-104 1670.34,-103.05 1677.99,-110.37 1680.89,-104"/>
</g>
<!-- li -->
<g id="node15" class="node">
<title>li</title>
<ellipse fill="none" stroke="black" cx="1726.83" cy="-90" rx="27" ry="18"/>
<text text-anchor="middle" x="1726.83" y="-86.3" font-family="Times,serif" font-size="14.00">li</text>
</g>
<!-- Variation&#45;&gt;li -->
<g id="edge17" class="edge">
<title>Variation&#45;&gt;li</title>
<path fill="none" stroke="black" d="M1781.36,-144.76C1771.6,-135.14 1759.12,-122.84 1748.56,-112.43"/>
<polygon fill="black" stroke="black" points="1750.86,-109.78 1741.28,-105.25 1745.94,-114.76 1750.86,-109.78"/>
</g>
<!-- pa -->
<g id="node16" class="node">
<title>pa</title>
<ellipse fill="none" stroke="black" cx="1798.83" cy="-90" rx="27" ry="18"/>
<text text-anchor="middle" x="1798.83" y="-86.3" font-family="Times,serif" font-size="14.00">pa</text>
</g>
<!-- Variation&#45;&gt;pa -->
<g id="edge18" class="edge">
<title>Variation&#45;&gt;pa</title>
<path fill="none" stroke="black" d="M1798.07,-143.7C1798.18,-135.98 1798.32,-126.71 1798.44,-118.11"/>
<polygon fill="black" stroke="black" points="1801.94,-118.15 1798.58,-108.1 1794.94,-118.05 1801.94,-118.15"/>
</g>
<!-- ba -->
<g id="node17" class="node">
<title>ba</title>
<ellipse fill="none" stroke="black" cx="1870.83" cy="-90" rx="27" ry="18"/>
<text text-anchor="middle" x="1870.83" y="-86.3" font-family="Times,serif" font-size="14.00">ba</text>
</g>
<!-- Variation&#45;&gt;ba -->
<g id="edge19" class="edge">
<title>Variation&#45;&gt;ba</title>
<path fill="none" stroke="black" d="M1814.76,-144.76C1824.79,-135.14 1837.62,-122.84 1848.48,-112.43"/>
<polygon fill="black" stroke="black" points="1851.17,-114.7 1855.96,-105.25 1846.32,-109.64 1851.17,-114.7"/>
</g>
<!-- PrintHTML -->
<g id="node9" class="node">
<title>PrintHTML</title>
<ellipse fill="none" stroke="darkgreen" cx="1369.83" cy="-90" rx="63.09" ry="18"/>
<text text-anchor="middle" x="1369.83" y="-86.3" font-family="Times,serif" font-size="14.00">PrintHTML</text>
</g>
<!-- PrintHTML&#45;&gt;String -->
<g id="edge10" class="edge">
<title>PrintHTML&#45;&gt;String</title>
<path fill="none" stroke="black" d="M1350.34,-72.76C1338.89,-63.22 1324.27,-51.04 1311.85,-40.68"/>
<polygon fill="black" stroke="black" points="1313.98,-37.9 1304.05,-34.19 1309.49,-43.28 1313.98,-37.9"/>
</g>
<!-- OpenClose -->
<g id="node10" class="node">
<title>OpenClose</title>
<ellipse fill="none" stroke="darkviolet" cx="1716.83" cy="-450" rx="60.39" ry="18"/>
<text text-anchor="middle" x="1716.83" y="-446.3" font-family="Times,serif" font-size="14.00">OpenClose</text>
</g>
<!-- OpenClose&#45;&gt;String -->
<g id="edge12" class="edge">
<title>OpenClose&#45;&gt;String</title>
<path fill="none" stroke="black" d="M1758.35,-436.75C1855.31,-409.24 2087.83,-342.26 2087.83,-307 2087.83,-307 2087.83,-307 2087.83,-161 2087.83,-119.53 2092.41,-97.65 2059.83,-72 2002.86,-27.17 1499.44,-20.25 1336.43,-19.19"/>
<polygon fill="black" stroke="black" points="1336.22,-15.69 1326.2,-19.13 1336.18,-22.69 1336.22,-15.69"/>
</g>
<!-- OpenClose&#45;&gt;String -->
<g id="edge67" class="edge">
<title>OpenClose&#45;&gt;String</title>
<path fill="none" stroke="black" d="M1762.69,-438.05C1865.7,-411.43 2105.83,-342.83 2105.83,-307 2105.83,-307 2105.83,-307 2105.83,-161 2105.83,-119.53 2110.41,-97.65 2077.83,-72 2020.01,-26.5 1502.29,-20.05 1336.54,-19.14"/>
<polygon fill="black" stroke="black" points="1336.16,-15.64 1326.14,-19.09 1336.13,-22.64 1336.16,-15.64"/>
</g>
<!-- OpenClose&#45;&gt;Doc -->
<g id="edge14" class="edge">
<title>OpenClose&#45;&gt;Doc</title>
<path fill="none" stroke="black" d="M1716.83,-431.95C1716.83,-405.29 1716.83,-352.11 1716.83,-307 1716.83,-307 1716.83,-307 1716.83,-233 1716.83,-38.67 1482.95,-167.1 1297.83,-108 1295.56,-107.28 1293.25,-106.46 1290.94,-105.58"/>
<polygon fill="black" stroke="black" points="1292.18,-102.31 1281.6,-101.74 1289.52,-108.78 1292.18,-102.31"/>
</g>
<!-- PrintingInformation -->
<g id="node11" class="node">
<title>PrintingInformation</title>
<ellipse fill="none" stroke="#00cdcd" cx="1262.83" cy="-378" rx="103.18" ry="18"/>
<text text-anchor="middle" x="1262.83" y="-374.3" font-family="Times,serif" font-size="14.00">PrintingInformation</text>
</g>
<!-- OpenClose&#45;&gt;PrintingInformation -->
<g id="edge11" class="edge">
<title>OpenClose&#45;&gt;PrintingInformation</title>
<path fill="none" stroke="black" d="M1664.3,-440.9C1586.61,-428.92 1440.24,-406.35 1347.33,-392.03"/>
<polygon fill="black" stroke="black" points="1347.81,-388.56 1337.4,-390.5 1346.75,-395.48 1347.81,-388.56"/>
</g>
<!-- Document -->
<g id="node12" class="node">
<title>Document</title>
<ellipse fill="none" stroke="darkviolet" cx="438.83" cy="-378" rx="57.69" ry="18"/>
<text text-anchor="middle" x="438.83" y="-374.3" font-family="Times,serif" font-size="14.00">Document</text>
</g>
<!-- OpenClose&#45;&gt;Document -->
<g id="edge13" class="edge">
<title>OpenClose&#45;&gt;Document</title>
<path fill="none" stroke="black" d="M1656.87,-447.61C1446.74,-442.56 744.34,-423.94 520.83,-396 511.82,-394.87 502.33,-393.29 493.13,-391.53"/>
<polygon fill="black" stroke="black" points="493.79,-388.09 483.29,-389.57 492.42,-394.96 493.79,-388.09"/>
</g>
<!-- PrintingConfiguration -->
<g id="node20" class="node">
<title>PrintingConfiguration</title>
<ellipse fill="none" stroke="darkgreen" cx="1561.83" cy="-306" rx="112.38" ry="18"/>
<text text-anchor="middle" x="1561.83" y="-302.3" font-family="Times,serif" font-size="14.00">PrintingConfiguration</text>
</g>
<!-- PrintingInformation&#45;&gt;PrintingConfiguration -->
<g id="edge63" class="edge">
<title>PrintingInformation&#45;&gt;PrintingConfiguration</title>
<path fill="none" stroke="black" d="M1321.9,-363.17C1370.58,-351.77 1439.76,-335.58 1491.34,-323.5"/>
<polygon fill="black" stroke="black" points="1492.14,-326.91 1501.08,-321.22 1490.55,-320.09 1492.14,-326.91"/>
</g>
<!-- ChunkDB -->
<g id="node55" class="node">
<title>ChunkDB</title>
<ellipse fill="none" stroke="black" cx="1152.83" cy="-306" rx="54.69" ry="18"/>
<text text-anchor="middle" x="1152.83" y="-302.3" font-family="Times,serif" font-size="14.00">ChunkDB</text>
</g>
<!-- PrintingInformation&#45;&gt;ChunkDB -->
<g id="edge61" class="edge">
<title>PrintingInformation&#45;&gt;ChunkDB</title>
<path fill="none" stroke="black" d="M1236.76,-360.41C1221.43,-350.65 1201.9,-338.23 1185.54,-327.82"/>
<polygon fill="black" stroke="black" points="1187.14,-324.69 1176.83,-322.27 1183.39,-330.6 1187.14,-324.69"/>
</g>
<!-- Stage -->
<g id="node56" class="node">
<title>Stage</title>
<ellipse fill="none" stroke="black" cx="1262.83" cy="-306" rx="37.89" ry="18"/>
<text text-anchor="middle" x="1262.83" y="-302.3" font-family="Times,serif" font-size="14.00">Stage</text>
</g>
<!-- PrintingInformation&#45;&gt;Stage -->
<g id="edge62" class="edge">
<title>PrintingInformation&#45;&gt;Stage</title>
<path fill="none" stroke="black" d="M1262.83,-359.7C1262.83,-351.98 1262.83,-342.71 1262.83,-334.11"/>
<polygon fill="black" stroke="black" points="1266.33,-334.1 1262.83,-324.1 1259.33,-334.1 1266.33,-334.1"/>
</g>
<!-- Title -->
<g id="node34" class="node">
<title>Title</title>
<ellipse fill="none" stroke="#ee0000" cx="155.83" cy="-234" rx="31.7" ry="18"/>
<text text-anchor="middle" x="155.83" y="-230.3" font-family="Times,serif" font-size="14.00">Title</text>
</g>
<!-- Document&#45;&gt;Title -->
<g id="edge44" class="edge">
<title>Document&#45;&gt;Title</title>
<path fill="none" stroke="black" d="M409.61,-362.34C356.21,-335.54 243.26,-278.87 187.85,-251.07"/>
<polygon fill="black" stroke="black" points="189.34,-247.9 178.83,-246.55 186.2,-254.16 189.34,-247.9"/>
</g>
<!-- Author -->
<g id="node42" class="node">
<title>Author</title>
<ellipse fill="none" stroke="#ee0000" cx="392.83" cy="-306" rx="42.49" ry="18"/>
<text text-anchor="middle" x="392.83" y="-302.3" font-family="Times,serif" font-size="14.00">Author</text>
</g>
<!-- Document&#45;&gt;Author -->
<g id="edge45" class="edge">
<title>Document&#45;&gt;Author</title>
<path fill="none" stroke="black" d="M427.69,-360.05C422.21,-351.71 415.49,-341.49 409.42,-332.25"/>
<polygon fill="black" stroke="black" points="412.28,-330.22 403.86,-323.79 406.43,-334.07 412.28,-330.22"/>
</g>
<!-- LayoutObj -->
<g id="node43" class="node">
<title>LayoutObj</title>
<ellipse fill="none" stroke="darkviolet" cx="788.83" cy="-306" rx="58.49" ry="18"/>
<text text-anchor="middle" x="788.83" y="-302.3" font-family="Times,serif" font-size="14.00">LayoutObj</text>
</g>
<!-- Document&#45;&gt;LayoutObj -->
<g id="edge46" class="edge">
<title>Document&#45;&gt;LayoutObj</title>
<path fill="none" stroke="black" d="M485.63,-367.18C497.14,-364.8 509.42,-362.28 520.83,-360 603.82,-343.41 624.85,-340.69 707.83,-324 715.74,-322.41 724.08,-320.7 732.27,-318.99"/>
<polygon fill="black" stroke="black" points="733.09,-322.4 742.17,-316.93 731.66,-315.55 733.09,-322.4"/>
</g>
<!-- Seperator -->
<g id="node18" class="node">
<title>Seperator</title>
<ellipse fill="none" stroke="#ee0000" cx="1287.83" cy="-162" rx="57.39" ry="18"/>
<text text-anchor="middle" x="1287.83" y="-158.3" font-family="Times,serif" font-size="14.00">Seperator</text>
</g>
<!-- Seperator&#45;&gt;Doc -->
<g id="edge21" class="edge">
<title>Seperator&#45;&gt;Doc</title>
<path fill="none" stroke="black" d="M1281.05,-144.05C1277.81,-135.97 1273.87,-126.12 1270.27,-117.11"/>
<polygon fill="black" stroke="black" points="1273.5,-115.77 1266.54,-107.79 1267.01,-118.37 1273.5,-115.77"/>
</g>
<!-- Linearity -->
<g id="node19" class="node">
<title>Linearity</title>
<ellipse fill="none" stroke="darkviolet" cx="1561.83" cy="-378" rx="52.79" ry="18"/>
<text text-anchor="middle" x="1561.83" y="-374.3" font-family="Times,serif" font-size="14.00">Linearity</text>
</g>
<!-- Linearity&#45;&gt;PrintingConfiguration -->
<g id="edge22" class="edge">
<title>Linearity&#45;&gt;PrintingConfiguration</title>
<path fill="none" stroke="black" d="M1561.83,-359.7C1561.83,-351.98 1561.83,-342.71 1561.83,-334.11"/>
<polygon fill="black" stroke="black" points="1565.33,-334.1 1561.83,-324.1 1558.33,-334.1 1565.33,-334.1"/>
</g>
<!-- Notation -->
<g id="node57" class="node">
<title>Notation</title>
<ellipse fill="none" stroke="darkviolet" cx="1637.83" cy="-234" rx="51.19" ry="18"/>
<text text-anchor="middle" x="1637.83" y="-230.3" font-family="Times,serif" font-size="14.00">Notation</text>
</g>
<!-- PrintingConfiguration&#45;&gt;Notation -->
<g id="edge64" class="edge">
<title>PrintingConfiguration&#45;&gt;Notation</title>
<path fill="none" stroke="black" d="M1580.22,-288.05C1590.05,-279 1602.29,-267.73 1612.95,-257.91"/>
<polygon fill="black" stroke="black" points="1615.4,-260.42 1620.38,-251.07 1610.65,-255.27 1615.4,-260.42"/>
</g>
<!-- LinkType -->
<g id="node21" class="node">
<title>LinkType</title>
<ellipse fill="none" stroke="darkviolet" cx="497.83" cy="-234" rx="53.09" ry="18"/>
<text text-anchor="middle" x="497.83" y="-230.3" font-family="Times,serif" font-size="14.00">LinkType</text>
</g>
<!-- LinkType&#45;&gt;Spec -->
<g id="edge23" class="edge">
<title>LinkType&#45;&gt;Spec</title>
<path fill="none" stroke="black" d="M521.48,-217.81C537.9,-207.26 559.89,-193.14 577.44,-181.87"/>
<polygon fill="black" stroke="black" points="579.64,-184.62 586.16,-176.27 575.85,-178.73 579.64,-184.62"/>
</g>
<!-- Expr -->
<g id="node28" class="node">
<title>Expr</title>
<ellipse fill="none" stroke="darkviolet" cx="629.83" cy="-90" rx="33.29" ry="18"/>
<text text-anchor="middle" x="629.83" y="-86.3" font-family="Times,serif" font-size="14.00">Expr</text>
</g>
<!-- Spec&#45;&gt;Expr -->
<g id="edge28" class="edge">
<title>Spec&#45;&gt;Expr</title>
<path fill="none" stroke="black" d="M612.39,-144.05C615.02,-136.06 618.22,-126.33 621.15,-117.4"/>
<polygon fill="black" stroke="black" points="624.51,-118.38 624.31,-107.79 617.86,-116.2 624.51,-118.38"/>
</g>
<!-- Ops -->
<g id="node23" class="node">
<title>Ops</title>
<ellipse fill="none" stroke="darkviolet" cx="1823.83" cy="-450" rx="28.7" ry="18"/>
<text text-anchor="middle" x="1823.83" y="-446.3" font-family="Times,serif" font-size="14.00">Ops</text>
</g>
<!-- Fence -->
<g id="node24" class="node">
<title>Fence</title>
<ellipse fill="none" stroke="darkviolet" cx="1908.83" cy="-450" rx="38.19" ry="18"/>
<text text-anchor="middle" x="1908.83" y="-446.3" font-family="Times,serif" font-size="14.00">Fence</text>
</g>
<!-- OverSymb -->
<g id="node25" class="node">
<title>OverSymb</title>
<ellipse fill="none" stroke="darkviolet" cx="2024.83" cy="-450" rx="59.59" ry="18"/>
<text text-anchor="middle" x="2024.83" y="-446.3" font-family="Times,serif" font-size="14.00">OverSymb</text>
</g>
<!-- Fonts -->
<g id="node26" class="node">
<title>Fonts</title>
<ellipse fill="none" stroke="darkviolet" cx="2138.83" cy="-450" rx="36.29" ry="18"/>
<text text-anchor="middle" x="2138.83" y="-446.3" font-family="Times,serif" font-size="14.00">Fonts</text>
</g>
<!-- Spacing -->
<g id="node27" class="node">
<title>Spacing</title>
<ellipse fill="none" stroke="darkviolet" cx="2240.83" cy="-450" rx="48.19" ry="18"/>
<text text-anchor="middle" x="2240.83" y="-446.3" font-family="Times,serif" font-size="14.00">Spacing</text>
</g>
<!-- Expr&#45;&gt;String -->
<g id="edge26" class="edge">
<title>Expr&#45;&gt;String</title>
<path fill="none" stroke="black" d="M658.65,-81.1C671.48,-77.84 686.82,-74.3 700.83,-72 897.15,-39.78 1134,-25.89 1235.58,-21.1"/>
<polygon fill="black" stroke="black" points="1236.02,-24.58 1245.85,-20.63 1235.7,-17.59 1236.02,-24.58"/>
</g>
<!-- Expr&#45;&gt;Expr -->
<g id="edge27" class="edge">
<title>Expr&#45;&gt;Expr</title>
<path fill="none" stroke="black" d="M653.5,-102.66C667.65,-105.47 680.97,-101.25 680.97,-90 680.97,-81.56 673.48,-77.08 663.76,-76.55"/>
<polygon fill="black" stroke="black" points="663.2,-73.09 653.5,-77.34 663.74,-80.06 663.2,-73.09"/>
</g>
<!-- Double -->
<g id="node29" class="node">
<title>Double</title>
<ellipse fill="none" stroke="black" cx="682.83" cy="-18" rx="43.59" ry="18"/>
<text text-anchor="middle" x="682.83" y="-14.3" font-family="Times,serif" font-size="14.00">Double</text>
</g>
<!-- Expr&#45;&gt;Double -->
<g id="edge24" class="edge">
<title>Expr&#45;&gt;Double</title>
<path fill="none" stroke="black" d="M641.85,-73.12C648.47,-64.38 656.82,-53.35 664.25,-43.54"/>
<polygon fill="black" stroke="black" points="667.23,-45.39 670.48,-35.31 661.65,-41.17 667.23,-45.39"/>
</g>
<!-- Integer -->
<g id="node30" class="node">
<title>Integer</title>
<ellipse fill="none" stroke="black" cx="576.83" cy="-18" rx="44.69" ry="18"/>
<text text-anchor="middle" x="576.83" y="-14.3" font-family="Times,serif" font-size="14.00">Integer</text>
</g>
<!-- Expr&#45;&gt;Integer -->
<g id="edge25" class="edge">
<title>Expr&#45;&gt;Integer</title>
<path fill="none" stroke="black" d="M617.8,-73.12C611.18,-64.38 602.84,-53.35 595.4,-43.54"/>
<polygon fill="black" stroke="black" points="598,-41.17 589.17,-35.31 592.42,-45.39 598,-41.17"/>
</g>
<!-- ListType -->
<g id="node31" class="node">
<title>ListType</title>
<ellipse fill="none" stroke="darkviolet" cx="114.83" cy="-306" rx="50.89" ry="18"/>
<text text-anchor="middle" x="114.83" y="-302.3" font-family="Times,serif" font-size="14.00">ListType</text>
</g>
<!-- ListType&#45;&gt;Label -->
<g id="edge31" class="edge">
<title>ListType&#45;&gt;Label</title>
<path fill="none" stroke="black" d="M164.36,-301.57C275.86,-293.57 543.68,-272.8 631.83,-252 634.65,-251.33 637.53,-250.54 640.4,-249.66"/>
<polygon fill="black" stroke="black" points="641.69,-252.92 650.05,-246.41 639.46,-246.28 641.69,-252.92"/>
</g>
<!-- ItemType -->
<g id="node32" class="node">
<title>ItemType</title>
<ellipse fill="none" stroke="darkviolet" cx="114.83" cy="-378" rx="54.69" ry="18"/>
<text text-anchor="middle" x="114.83" y="-374.3" font-family="Times,serif" font-size="14.00">ItemType</text>
</g>
<!-- ListType&#45;&gt;ItemType -->
<g id="edge29" class="edge">
<title>ListType&#45;&gt;ItemType</title>
<path fill="none" stroke="black" d="M120.74,-324.28C121.54,-332.03 121.77,-341.36 121.42,-350.01"/>
<polygon fill="black" stroke="black" points="117.92,-349.83 120.7,-360.05 124.9,-350.33 117.92,-349.83"/>
</g>
<!-- Maybe -->
<g id="node33" class="node">
<title>Maybe</title>
<ellipse fill="none" stroke="black" cx="63.83" cy="-234" rx="42.49" ry="18"/>
<text text-anchor="middle" x="63.83" y="-230.3" font-family="Times,serif" font-size="14.00">Maybe</text>
</g>
<!-- ListType&#45;&gt;Maybe -->
<g id="edge30" class="edge">
<title>ListType&#45;&gt;Maybe</title>
<path fill="none" stroke="black" d="M102.74,-288.41C96.51,-279.87 88.8,-269.28 81.88,-259.79"/>
<polygon fill="black" stroke="black" points="84.54,-257.49 75.83,-251.47 78.88,-261.61 84.54,-257.49"/>
</g>
<!-- ListType&#45;&gt;Title -->
<g id="edge32" class="edge">
<title>ListType&#45;&gt;Title</title>
<path fill="none" stroke="black" d="M124.75,-288.05C129.66,-279.68 135.67,-269.4 141.1,-260.13"/>
<polygon fill="black" stroke="black" points="144.24,-261.7 146.27,-251.31 138.2,-258.17 144.24,-261.7"/>
</g>
<!-- ItemType&#45;&gt;Spec -->
<g id="edge33" class="edge">
<title>ItemType&#45;&gt;Spec</title>
<path fill="none" stroke="black" d="M92.15,-361.58C50.42,-331.4 -30.5,-263.36 12.83,-216 49.86,-175.51 432.95,-165.73 563.51,-163.57"/>
<polygon fill="black" stroke="black" points="563.61,-167.07 573.55,-163.41 563.5,-160.07 563.61,-167.07"/>
</g>
<!-- ItemType&#45;&gt;ListType -->
<g id="edge34" class="edge">
<title>ItemType&#45;&gt;ListType</title>
<path fill="none" stroke="black" d="M108.95,-360.05C108.13,-352.35 107.89,-343.03 108.22,-334.36"/>
<polygon fill="black" stroke="black" points="111.72,-334.49 108.91,-324.28 104.74,-334.01 111.72,-334.49"/>
</g>
<!-- Title&#45;&gt;Spec -->
<g id="edge36" class="edge">
<title>Title&#45;&gt;Spec</title>
<path fill="none" stroke="black" d="M180.81,-222.61C187.54,-220.13 194.88,-217.71 201.83,-216 331.09,-184.08 488.61,-170.47 563.4,-165.49"/>
<polygon fill="black" stroke="black" points="564.06,-168.95 573.82,-164.81 563.61,-161.97 564.06,-168.95"/>
</g>
<!-- Citation -->
<g id="node35" class="node">
<title>Citation</title>
<ellipse fill="none" stroke="darkviolet" cx="1366.83" cy="-306" rx="48.19" ry="18"/>
<text text-anchor="middle" x="1366.83" y="-302.3" font-family="Times,serif" font-size="14.00">Citation</text>
</g>
<!-- EntryID -->
<g id="node36" class="node">
<title>EntryID</title>
<ellipse fill="none" stroke="black" cx="1366.83" cy="-234" rx="48.19" ry="18"/>
<text text-anchor="middle" x="1366.83" y="-230.3" font-family="Times,serif" font-size="14.00">EntryID</text>
</g>
<!-- Citation&#45;&gt;EntryID -->
<g id="edge37" class="edge">
<title>Citation&#45;&gt;EntryID</title>
<path fill="none" stroke="black" d="M1366.83,-287.7C1366.83,-279.98 1366.83,-270.71 1366.83,-262.11"/>
<polygon fill="black" stroke="black" points="1370.33,-262.1 1366.83,-252.1 1363.33,-262.1 1370.33,-262.1"/>
</g>
<!-- CitationKind -->
<g id="node37" class="node">
<title>CitationKind</title>
<ellipse fill="none" stroke="black" cx="1230.83" cy="-234" rx="69.59" ry="18"/>
<text text-anchor="middle" x="1230.83" y="-230.3" font-family="Times,serif" font-size="14.00">CitationKind</text>
</g>
<!-- Citation&#45;&gt;CitationKind -->
<g id="edge38" class="edge">
<title>Citation&#45;&gt;CitationKind</title>
<path fill="none" stroke="black" d="M1339.63,-291C1319.6,-280.69 1292.08,-266.53 1269.72,-255.02"/>
<polygon fill="black" stroke="black" points="1271.3,-251.9 1260.81,-250.43 1268.1,-258.12 1271.3,-251.9"/>
</g>
<!-- CiteField -->
<g id="node38" class="node">
<title>CiteField</title>
<ellipse fill="none" stroke="darkviolet" cx="1051.83" cy="-234" rx="53.09" ry="18"/>
<text text-anchor="middle" x="1051.83" y="-230.3" font-family="Times,serif" font-size="14.00">CiteField</text>
</g>
<!-- Citation&#45;&gt;CiteField -->
<g id="edge39" class="edge">
<title>Citation&#45;&gt;CiteField</title>
<path fill="none" stroke="black" d="M1331.08,-293.82C1324.06,-291.77 1316.74,-289.74 1309.83,-288 1240.81,-270.65 1160.36,-254.81 1107.88,-245.05"/>
<polygon fill="black" stroke="black" points="1108.24,-241.56 1097.77,-243.19 1106.97,-248.44 1108.24,-241.56"/>
</g>
<!-- CiteField&#45;&gt;Spec -->
<g id="edge40" class="edge">
<title>CiteField&#45;&gt;Spec</title>
<path fill="none" stroke="black" d="M1012.99,-221.52C1005.35,-219.5 997.37,-217.55 989.83,-216 867.55,-190.89 720.83,-174.29 649.69,-167.09"/>
<polygon fill="black" stroke="black" points="649.65,-163.57 639.35,-166.06 648.95,-170.54 649.65,-163.57"/>
</g>
<!-- People -->
<g id="node39" class="node">
<title>People</title>
<ellipse fill="none" stroke="black" cx="1050.83" cy="-162" rx="41.69" ry="18"/>
<text text-anchor="middle" x="1050.83" y="-158.3" font-family="Times,serif" font-size="14.00">People</text>
</g>
<!-- CiteField&#45;&gt;People -->
<g id="edge41" class="edge">
<title>CiteField&#45;&gt;People</title>
<path fill="none" stroke="black" d="M1051.58,-215.7C1051.47,-207.98 1051.34,-198.71 1051.21,-190.11"/>
<polygon fill="black" stroke="black" points="1054.71,-190.05 1051.07,-180.1 1047.71,-190.15 1054.71,-190.05"/>
</g>
<!-- HP -->
<g id="node40" class="node">
<title>HP</title>
<ellipse fill="none" stroke="darkviolet" cx="595.83" cy="-234" rx="27" ry="18"/>
<text text-anchor="middle" x="595.83" y="-230.3" font-family="Times,serif" font-size="14.00">HP</text>
</g>
<!-- HP&#45;&gt;Spec -->
<g id="edge42" class="edge">
<title>HP&#45;&gt;Spec</title>
<path fill="none" stroke="black" d="M598.49,-216.05C599.7,-208.35 601.16,-199.03 602.53,-190.36"/>
<polygon fill="black" stroke="black" points="606.02,-190.7 604.11,-180.28 599.1,-189.61 606.02,-190.7"/>
</g>
<!-- BibRef -->
<g id="node41" class="node">
<title>BibRef</title>
<ellipse fill="none" stroke="#ee0000" cx="1426.83" cy="-378" rx="42.49" ry="18"/>
<text text-anchor="middle" x="1426.83" y="-374.3" font-family="Times,serif" font-size="14.00">BibRef</text>
</g>
<!-- BibRef&#45;&gt;Citation -->
<g id="edge43" class="edge">
<title>BibRef&#45;&gt;Citation</title>
<path fill="none" stroke="black" d="M1412.91,-360.76C1405.44,-352.06 1396.09,-341.15 1387.77,-331.43"/>
<polygon fill="black" stroke="black" points="1390.25,-328.95 1381.08,-323.63 1384.93,-333.5 1390.25,-328.95"/>
</g>
<!-- Author&#45;&gt;Spec -->
<g id="edge52" class="edge">
<title>Author&#45;&gt;Spec</title>
<path fill="none" stroke="black" d="M354.3,-298.41C296.17,-286.88 196.66,-259.99 234.83,-216 276.98,-167.42 474.91,-162.23 563.63,-162.41"/>
<polygon fill="black" stroke="black" points="563.62,-165.91 573.63,-162.46 563.65,-158.91 563.62,-165.91"/>
</g>
<!-- LayoutObj&#45;&gt;Label -->
<g id="edge49" class="edge">
<title>LayoutObj&#45;&gt;Label</title>
<path fill="none" stroke="black" d="M764.25,-289.64C747.58,-279.22 725.42,-265.37 707.58,-254.22"/>
<polygon fill="black" stroke="black" points="709.03,-251 698.69,-248.67 705.32,-256.94 709.03,-251"/>
</g>
<!-- LayoutObj&#45;&gt;Spec -->
<g id="edge48" class="edge">
<title>LayoutObj&#45;&gt;Spec</title>
<path fill="none" stroke="black" d="M779.48,-287.91C768.07,-268.35 747.12,-236.4 721.83,-216 698.81,-197.44 668.25,-183.76 644.41,-174.95"/>
<polygon fill="black" stroke="black" points="645.57,-171.64 634.98,-171.58 643.22,-178.24 645.57,-171.64"/>
</g>
<!-- Tags -->
<g id="node44" class="node">
<title>Tags</title>
<ellipse fill="none" stroke="#ee0000" cx="1142.83" cy="-162" rx="32.49" ry="18"/>
<text text-anchor="middle" x="1142.83" y="-158.3" font-family="Times,serif" font-size="14.00">Tags</text>
</g>
<!-- LayoutObj&#45;&gt;Tags -->
<g id="edge47" class="edge">
<title>LayoutObj&#45;&gt;Tags</title>
<path fill="none" stroke="black" d="M846.39,-302.67C928.75,-298.19 1074.6,-285.63 1113.83,-252 1131.6,-236.76 1138.56,-210.48 1141.24,-190.41"/>
<polygon fill="black" stroke="black" points="1144.74,-190.61 1142.31,-180.3 1137.77,-189.87 1144.74,-190.61"/>
</g>
<!-- Bool -->
<g id="node45" class="node">
<title>Bool</title>
<ellipse fill="none" stroke="black" cx="949.83" cy="-234" rx="31.4" ry="18"/>
<text text-anchor="middle" x="949.83" y="-230.3" font-family="Times,serif" font-size="14.00">Bool</text>
</g>
<!-- LayoutObj&#45;&gt;Bool -->
<g id="edge50" class="edge">
<title>LayoutObj&#45;&gt;Bool</title>
<path fill="none" stroke="black" d="M821.41,-290.83C849.02,-278.83 888.47,-261.68 916.34,-249.56"/>
<polygon fill="black" stroke="black" points="917.9,-252.7 925.68,-245.5 915.11,-246.28 917.9,-252.7"/>
</g>
<!-- Caption -->
<g id="node46" class="node">
<title>Caption</title>
<ellipse fill="none" stroke="#ee0000" cx="815.83" cy="-234" rx="46.59" ry="18"/>
<text text-anchor="middle" x="815.83" y="-230.3" font-family="Times,serif" font-size="14.00">Caption</text>
</g>
<!-- LayoutObj&#45;&gt;Caption -->
<g id="edge51" class="edge">
<title>LayoutObj&#45;&gt;Caption</title>
<path fill="none" stroke="black" d="M795.36,-288.05C798.4,-280.18 802.09,-270.62 805.49,-261.79"/>
<polygon fill="black" stroke="black" points="808.83,-262.86 809.16,-252.28 802.3,-260.35 808.83,-262.86"/>
</g>
<!-- Tags&#45;&gt;String -->
<g id="edge55" class="edge">
<title>Tags&#45;&gt;String</title>
<path fill="none" stroke="black" d="M1148.16,-144.09C1154.97,-124.7 1168.4,-92.9 1188.83,-72 1204.77,-55.68 1226.83,-43.09 1245.89,-34.28"/>
<polygon fill="black" stroke="black" points="1247.52,-37.39 1255.24,-30.14 1244.68,-30.98 1247.52,-37.39"/>
</g>
<!-- Caption&#45;&gt;Spec -->
<g id="edge60" class="edge">
<title>Caption&#45;&gt;Spec</title>
<path fill="none" stroke="black" d="M781.78,-221.6C743.98,-208.94 683.16,-188.57 644.1,-175.49"/>
<polygon fill="black" stroke="black" points="644.78,-172.02 634.19,-172.16 642.56,-178.66 644.78,-172.02"/>
</g>
<!-- Contents -->
<g id="node47" class="node">
<title>Contents</title>
<ellipse fill="none" stroke="#ee0000" cx="296.83" cy="-234" rx="52.79" ry="18"/>
<text text-anchor="middle" x="296.83" y="-230.3" font-family="Times,serif" font-size="14.00">Contents</text>
</g>
<!-- Contents&#45;&gt;Spec -->
<g id="edge53" class="edge">
<title>Contents&#45;&gt;Spec</title>
<path fill="none" stroke="black" d="M336.1,-221.87C343.62,-219.84 351.45,-217.8 358.83,-216 431.51,-198.28 516.96,-180.74 566.21,-170.94"/>
<polygon fill="black" stroke="black" points="567.03,-174.35 576.15,-168.97 565.66,-167.48 567.03,-174.35"/>
</g>
<!-- Items -->
<g id="node48" class="node">
<title>Items</title>
<ellipse fill="none" stroke="#ee0000" cx="788.83" cy="-378" rx="37.09" ry="18"/>
<text text-anchor="middle" x="788.83" y="-374.3" font-family="Times,serif" font-size="14.00">Items</text>
</g>
<!-- Items&#45;&gt;LayoutObj -->
<g id="edge54" class="edge">
<title>Items&#45;&gt;LayoutObj</title>
<path fill="none" stroke="black" d="M788.83,-359.7C788.83,-351.98 788.83,-342.71 788.83,-334.11"/>
<polygon fill="black" stroke="black" points="792.33,-334.1 788.83,-324.1 785.33,-334.1 792.33,-334.1"/>
</g>
<!-- Depth -->
<g id="node49" class="node">
<title>Depth</title>
<ellipse fill="none" stroke="#ee0000" cx="2345.83" cy="-450" rx="38.99" ry="18"/>
<text text-anchor="middle" x="2345.83" y="-446.3" font-family="Times,serif" font-size="14.00">Depth</text>
</g>
<!-- Int -->
<g id="node50" class="node">
<title>Int</title>
<ellipse fill="none" stroke="black" cx="2345.83" cy="-378" rx="27" ry="18"/>
<text text-anchor="middle" x="2345.83" y="-374.3" font-family="Times,serif" font-size="14.00">Int</text>
</g>
<!-- Depth&#45;&gt;Int -->
<g id="edge56" class="edge">
<title>Depth&#45;&gt;Int</title>
<path fill="none" stroke="black" d="M2345.83,-431.7C2345.83,-423.98 2345.83,-414.71 2345.83,-406.11"/>
<polygon fill="black" stroke="black" points="2349.33,-406.1 2345.83,-396.1 2342.33,-406.1 2349.33,-406.1"/>
</g>
<!-- Width -->
<g id="node51" class="node">
<title>Width</title>
<ellipse fill="none" stroke="#ee0000" cx="2440.83" cy="-450" rx="38.19" ry="18"/>
<text text-anchor="middle" x="2440.83" y="-446.3" font-family="Times,serif" font-size="14.00">Width</text>
</g>
<!-- Float -->
<g id="node52" class="node">
<title>Float</title>
<ellipse fill="none" stroke="black" cx="2490.83" cy="-378" rx="34.39" ry="18"/>
<text text-anchor="middle" x="2490.83" y="-374.3" font-family="Times,serif" font-size="14.00">Float</text>
</g>
<!-- Width&#45;&gt;Float -->
<g id="edge57" class="edge">
<title>Width&#45;&gt;Float</title>
<path fill="none" stroke="black" d="M2452.42,-432.76C2458.67,-424.02 2466.5,-413.05 2473.46,-403.31"/>
<polygon fill="black" stroke="black" points="2476.33,-405.32 2479.29,-395.15 2470.63,-401.25 2476.33,-405.32"/>
</g>
<!-- Height -->
<g id="node53" class="node">
<title>Height</title>
<ellipse fill="none" stroke="#ee0000" cx="2539.83" cy="-450" rx="42.49" ry="18"/>
<text text-anchor="middle" x="2539.83" y="-446.3" font-family="Times,serif" font-size="14.00">Height</text>
</g>
<!-- Height&#45;&gt;Float -->
<g id="edge58" class="edge">
<title>Height&#45;&gt;Float</title>
<path fill="none" stroke="black" d="M2528.21,-432.41C2522.23,-423.87 2514.82,-413.28 2508.18,-403.79"/>
<polygon fill="black" stroke="black" points="2510.96,-401.66 2502.35,-395.47 2505.22,-405.67 2510.96,-401.66"/>
</g>
<!-- Filepath -->
<g id="node54" class="node">
<title>Filepath</title>
<ellipse fill="none" stroke="#ee0000" cx="1537.83" cy="-90" rx="49.29" ry="18"/>
<text text-anchor="middle" x="1537.83" y="-86.3" font-family="Times,serif" font-size="14.00">Filepath</text>
</g>
<!-- Filepath&#45;&gt;String -->
<g id="edge59" class="edge">
<title>Filepath&#45;&gt;String</title>
<path fill="none" stroke="black" d="M1499.83,-78.44C1454,-65.71 1377.15,-44.37 1329.09,-31.02"/>
<polygon fill="black" stroke="black" points="1329.86,-27.6 1319.29,-28.3 1327.99,-34.35 1329.86,-27.6"/>
</g>
<!-- MathContext -->
<g id="node58" class="node">
<title>MathContext</title>
<ellipse fill="none" stroke="darkviolet" cx="2671.83" cy="-450" rx="71.49" ry="18"/>
<text text-anchor="middle" x="2671.83" y="-446.3" font-family="Times,serif" font-size="14.00">MathContext</text>
</g>
<!-- Latex -->
<g id="node59" class="node">
<title>Latex</title>
<ellipse fill="none" stroke="darkgreen" cx="1951.83" cy="-90" rx="36.29" ry="18"/>
<text text-anchor="middle" x="1951.83" y="-86.3" font-family="Times,serif" font-size="14.00">Latex</text>
</g>
<!-- Latex&#45;&gt;String -->
<g id="edge65" class="edge">
<title>Latex&#45;&gt;String</title>
<path fill="none" stroke="black" d="M1925.07,-77.51C1919.15,-75.37 1912.85,-73.37 1906.83,-72 1699.01,-24.84 1443.42,-18.87 1336.55,-18.63"/>
<polygon fill="black" stroke="black" points="1336.37,-15.13 1326.37,-18.62 1336.37,-22.13 1336.37,-15.13"/>
</g>
<!-- D -->
<g id="node60" class="node">
<title>D</title>
<ellipse fill="none" stroke="#ee0000" cx="1441.83" cy="-162" rx="27" ry="18"/>
<text text-anchor="middle" x="1441.83" y="-158.3" font-family="Times,serif" font-size="14.00">D</text>
</g>
<!-- D&#45;&gt;Doc -->
<g id="edge66" class="edge">
<title>D&#45;&gt;Doc</title>
<path fill="none" stroke="black" d="M1418.44,-152.94C1389.8,-142.95 1339.89,-125.13 1297.83,-108 1295.76,-107.16 1293.64,-106.27 1291.51,-105.37"/>
<polygon fill="black" stroke="black" points="1292.79,-102.11 1282.22,-101.32 1289.99,-108.52 1292.79,-102.11"/>
</g>
<!-- Package -->
<g id="node61" class="node">
<title>Package</title>
<ellipse fill="none" stroke="darkviolet" cx="2809.83" cy="-450" rx="48.99" ry="18"/>
<text text-anchor="middle" x="2809.83" y="-446.3" font-family="Times,serif" font-size="14.00">Package</text>
</g>
<!-- Def -->
<g id="node62" class="node">
<title>Def</title>
<ellipse fill="none" stroke="darkviolet" cx="2903.83" cy="-450" rx="27" ry="18"/>
<text text-anchor="middle" x="2903.83" y="-446.3" font-family="Times,serif" font-size="14.00">Def</text>
</g>
<!-- FieldWrap -->
<g id="node63" class="node">
<title>FieldWrap</title>
<ellipse fill="none" stroke="darkviolet" cx="1491.83" cy="-234" rx="58.49" ry="18"/>
<text text-anchor="middle" x="1491.83" y="-230.3" font-family="Times,serif" font-size="14.00">FieldWrap</text>
</g>
<!-- FieldWrap&#45;&gt;String -->
<g id="edge68" class="edge">
<title>FieldWrap&#45;&gt;String</title>
<path fill="none" stroke="black" d="M1448.76,-221.76C1440.51,-219.74 1431.92,-217.73 1423.83,-216 1379.24,-206.47 1251.1,-214.96 1221.83,-180 1191.01,-143.2 1201.4,-115.44 1221.83,-72 1228.3,-58.24 1240.29,-46.82 1252.16,-38.16"/>
<polygon fill="black" stroke="black" points="1254.41,-40.86 1260.7,-32.34 1250.47,-35.07 1254.41,-40.86"/>
</g>
<!-- FieldWrap&#45;&gt;Spec -->
<g id="edge70" class="edge">
<title>FieldWrap&#45;&gt;Spec</title>
<path fill="none" stroke="black" d="M1449.99,-221.29C1441.39,-219.23 1432.36,-217.33 1423.83,-216 1385.31,-209.99 812.56,-175.34 649.72,-165.57"/>
<polygon fill="black" stroke="black" points="649.78,-162.07 639.59,-164.96 649.37,-169.05 649.78,-162.07"/>
</g>
<!-- FieldWrap&#45;&gt;D -->
<g id="edge71" class="edge">
<title>FieldWrap&#45;&gt;D</title>
<path fill="none" stroke="black" d="M1479.72,-216.05C1473.53,-207.38 1465.88,-196.67 1459.07,-187.15"/>
<polygon fill="black" stroke="black" points="1461.79,-184.93 1453.13,-178.83 1456.1,-189 1461.79,-184.93"/>
</g>
<!-- FieldWrap&#45;&gt;FieldWrap -->
<g id="edge69" class="edge">
<title>FieldWrap&#45;&gt;FieldWrap</title>
<path fill="none" stroke="black" d="M1531.97,-247.17C1551.28,-248.8 1568.32,-244.41 1568.32,-234 1568.32,-225.46 1556.85,-220.98 1542.07,-220.54"/>
<polygon fill="black" stroke="black" points="1541.86,-217.04 1531.97,-220.83 1542.07,-224.04 1541.86,-217.04"/>
</g>
<!-- StyleGuide -->
<g id="node64" class="node">
<title>StyleGuide</title>
<ellipse fill="none" stroke="darkviolet" cx="771.83" cy="-90" rx="61.99" ry="18"/>
<text text-anchor="middle" x="771.83" y="-86.3" font-family="Times,serif" font-size="14.00">StyleGuide</text>
</g>
<!-- StyleGuide&#45;&gt;String -->
<g id="edge73" class="edge">
<title>StyleGuide&#45;&gt;String</title>
<path fill="none" stroke="black" d="M821.99,-79.42C836.14,-76.85 851.56,-74.19 865.83,-72 999.83,-51.44 1158.79,-32.99 1237.16,-24.29"/>
<polygon fill="black" stroke="black" points="1237.67,-27.75 1247.22,-23.17 1236.9,-20.79 1237.67,-27.75"/>
</g>
<!-- StyleGuide&#45;&gt;StyleGuide -->
<g id="edge72" class="edge">
<title>StyleGuide&#45;&gt;StyleGuide</title>
<path fill="none" stroke="black" d="M814.08,-103.2C834.04,-104.74 851.57,-100.34 851.57,-90 851.57,-81.44 839.55,-76.95 824.08,-76.53"/>
<polygon fill="black" stroke="black" points="823.98,-73.03 814.08,-76.8 824.17,-80.03 823.98,-73.03"/>
</g>
<!-- Format -->
<g id="node65" class="node">
<title>Format</title>
<ellipse fill="none" stroke="darkviolet" cx="2992.83" cy="-450" rx="44.39" ry="18"/>
<text text-anchor="middle" x="2992.83" y="-446.3" font-family="Times,serif" font-size="14.00">Format</text>
</g>
</g>
</svg>
