<?xml version="1.0" encoding="UTF-8" standalone="no"?>
<!DOCTYPE svg PUBLIC "-//W3C//DTD SVG 1.1//EN"
 "http://www.w3.org/Graphics/SVG/1.1/DTD/svg11.dtd">
<!-- Generated by graphviz version 2.43.0 (0)
 -->
<!-- Title: alltypes Pages: 1 -->
<svg width="3451pt" height="332pt"
 viewBox="0.00 0.00 3451.03 332.00" xmlns="http://www.w3.org/2000/svg" xmlns:xlink="http://www.w3.org/1999/xlink">
<g id="graph0" class="graph" transform="scale(1 1) rotate(0) translate(4 328)">
<title>alltypes</title>
<polygon fill="white" stroke="transparent" points="-4,4 -4,-328 3447.03,-328 3447.03,4 -4,4"/>
<!-- ConstraintSete -->
<g id="node1" class="node">
<title>ConstraintSete</title>
<ellipse fill="none" stroke="#00cdcd" cx="216.64" cy="-234" rx="81.49" ry="18"/>
<text text-anchor="middle" x="216.64" y="-230.3" font-family="Times,serif" font-size="14.00">ConstraintSete</text>
</g>
<!-- ConceptChunk -->
<g id="node2" class="node">
<title>ConceptChunk</title>
<ellipse fill="none" stroke="black" cx="771.64" cy="-162" rx="78.79" ry="18"/>
<text text-anchor="middle" x="771.64" y="-158.3" font-family="Times,serif" font-size="14.00">ConceptChunk</text>
</g>
<!-- ConstraintSete&#45;&gt;ConceptChunk -->
<g id="edge1" class="edge">
<title>ConstraintSete&#45;&gt;ConceptChunk</title>
<path fill="none" stroke="black" d="M290.65,-226.47C383.11,-217.88 546.05,-201.35 684.64,-180 691.39,-178.96 698.41,-177.77 705.4,-176.52"/>
<polygon fill="black" stroke="black" points="706.4,-179.89 715.6,-174.64 705.13,-173.01 706.4,-179.89"/>
</g>
<!-- NonEmptye -->
<g id="node3" class="node">
<title>NonEmptye</title>
<ellipse fill="none" stroke="black" cx="65.64" cy="-162" rx="65.79" ry="18"/>
<text text-anchor="middle" x="65.64" y="-158.3" font-family="Times,serif" font-size="14.00">NonEmptye</text>
</g>
<!-- ConstraintSete&#45;&gt;NonEmptye -->
<g id="edge2" class="edge">
<title>ConstraintSete&#45;&gt;NonEmptye</title>
<path fill="none" stroke="black" d="M183.13,-217.46C160.58,-207.01 130.7,-193.16 106.72,-182.04"/>
<polygon fill="black" stroke="black" points="108.06,-178.8 97.51,-177.77 105.11,-185.15 108.06,-178.8"/>
</g>
<!-- DDPkt -->
<g id="node4" class="node">
<title>DDPkt</title>
<ellipse fill="none" stroke="#00cdcd" cx="2048.64" cy="-234" rx="40.89" ry="18"/>
<text text-anchor="middle" x="2048.64" y="-230.3" font-family="Times,serif" font-size="14.00">DDPkt</text>
</g>
<!-- ScopeType -->
<g id="node5" class="node">
<title>ScopeType</title>
<ellipse fill="none" stroke="darkviolet" cx="1782.64" cy="-162" rx="61.19" ry="18"/>
<text text-anchor="middle" x="1782.64" y="-158.3" font-family="Times,serif" font-size="14.00">ScopeType</text>
</g>
<!-- DDPkt&#45;&gt;ScopeType -->
<g id="edge3" class="edge">
<title>DDPkt&#45;&gt;ScopeType</title>
<path fill="none" stroke="black" d="M2014.41,-223.99C1969.46,-212.16 1890.03,-191.26 1836.86,-177.27"/>
<polygon fill="black" stroke="black" points="1837.48,-173.81 1826.92,-174.65 1835.7,-180.58 1837.48,-173.81"/>
</g>
<!-- DecRef -->
<g id="node6" class="node">
<title>DecRef</title>
<ellipse fill="none" stroke="black" cx="2275.64" cy="-162" rx="44.39" ry="18"/>
<text text-anchor="middle" x="2275.64" y="-158.3" font-family="Times,serif" font-size="14.00">DecRef</text>
</g>
<!-- DDPkt&#45;&gt;DecRef -->
<g id="edge4" class="edge">
<title>DDPkt&#45;&gt;DecRef</title>
<path fill="none" stroke="black" d="M2080.14,-222.3C2086.58,-220.17 2093.32,-217.98 2099.64,-216 2154.01,-198.99 2168.19,-196.7 2222.64,-180 2225.93,-178.99 2229.33,-177.94 2232.74,-176.86"/>
<polygon fill="black" stroke="black" points="2233.85,-180.19 2242.32,-173.83 2231.73,-173.51 2233.85,-180.19"/>
</g>
<!-- MaybeDerivation -->
<g id="node7" class="node">
<title>MaybeDerivation</title>
<ellipse fill="none" stroke="black" cx="2615.64" cy="-162" rx="90.98" ry="18"/>
<text text-anchor="middle" x="2615.64" y="-158.3" font-family="Times,serif" font-size="14.00">MaybeDerivation</text>
</g>
<!-- DDPkt&#45;&gt;MaybeDerivation -->
<g id="edge5" class="edge">
<title>DDPkt&#45;&gt;MaybeDerivation</title>
<path fill="none" stroke="black" d="M2078.8,-221.65C2085.57,-219.46 2092.79,-217.42 2099.64,-216 2281.37,-178.4 2331.57,-203.57 2515.64,-180 2523.93,-178.94 2532.58,-177.69 2541.17,-176.35"/>
<polygon fill="black" stroke="black" points="2541.88,-179.78 2551.21,-174.75 2540.78,-172.87 2541.88,-179.78"/>
</g>
<!-- ShortName -->
<g id="node8" class="node">
<title>ShortName</title>
<ellipse fill="none" stroke="black" cx="1925.64" cy="-162" rx="63.89" ry="18"/>
<text text-anchor="middle" x="1925.64" y="-158.3" font-family="Times,serif" font-size="14.00">ShortName</text>
</g>
<!-- DDPkt&#45;&gt;ShortName -->
<g id="edge6" class="edge">
<title>DDPkt&#45;&gt;ShortName</title>
<path fill="none" stroke="black" d="M2024.64,-219.34C2006.61,-209.08 1981.63,-194.86 1961.28,-183.28"/>
<polygon fill="black" stroke="black" points="1963.01,-180.24 1952.58,-178.33 1959.54,-186.32 1963.01,-180.24"/>
</g>
<!-- String -->
<g id="node9" class="node">
<title>String</title>
<ellipse fill="none" stroke="black" cx="2047.64" cy="-162" rx="40.09" ry="18"/>
<text text-anchor="middle" x="2047.64" y="-158.3" font-family="Times,serif" font-size="14.00">String</text>
</g>
<!-- DDPkt&#45;&gt;String -->
<g id="edge7" class="edge">
<title>DDPkt&#45;&gt;String</title>
<path fill="none" stroke="black" d="M2048.4,-215.7C2048.29,-207.98 2048.15,-198.71 2048.03,-190.11"/>
<polygon fill="black" stroke="black" points="2051.53,-190.05 2047.89,-180.1 2044.53,-190.15 2051.53,-190.05"/>
</g>
<!-- Sentence -->
<g id="node10" class="node">
<title>Sentence</title>
<ellipse fill="none" stroke="black" cx="2159.64" cy="-162" rx="53.89" ry="18"/>
<text text-anchor="middle" x="2159.64" y="-158.3" font-family="Times,serif" font-size="14.00">Sentence</text>
</g>
<!-- DDPkt&#45;&gt;Sentence -->
<g id="edge8" class="edge">
<title>DDPkt&#45;&gt;Sentence</title>
<path fill="none" stroke="black" d="M2071.11,-218.83C2087.11,-208.74 2108.88,-195.01 2126.83,-183.69"/>
<polygon fill="black" stroke="black" points="2128.7,-186.65 2135.29,-178.36 2124.96,-180.73 2128.7,-186.65"/>
</g>
<!-- Scope -->
<g id="node11" class="node">
<title>Scope</title>
<ellipse fill="none" stroke="darkgreen" cx="1584.64" cy="-90" rx="38.19" ry="18"/>
<text text-anchor="middle" x="1584.64" y="-86.3" font-family="Times,serif" font-size="14.00">Scope</text>
</g>
<!-- ScopeType&#45;&gt;Scope -->
<g id="edge9" class="edge">
<title>ScopeType&#45;&gt;Scope</title>
<path fill="none" stroke="black" d="M1744.94,-147.67C1710.27,-135.41 1659.08,-117.31 1623.92,-104.89"/>
<polygon fill="black" stroke="black" points="1625.05,-101.57 1614.46,-101.54 1622.72,-108.17 1625.05,-101.57"/>
</g>
<!-- UID -->
<g id="node17" class="node">
<title>UID</title>
<ellipse fill="none" stroke="black" cx="1187.64" cy="-18" rx="29.5" ry="18"/>
<text text-anchor="middle" x="1187.64" y="-14.3" font-family="Times,serif" font-size="14.00">UID</text>
</g>
<!-- Scope&#45;&gt;UID -->
<g id="edge16" class="edge">
<title>Scope&#45;&gt;UID</title>
<path fill="none" stroke="black" d="M1549.41,-82.79C1475.01,-69.67 1302.43,-39.24 1225.65,-25.7"/>
<polygon fill="black" stroke="black" points="1225.93,-22.2 1215.48,-23.91 1224.72,-29.09 1225.93,-22.2"/>
</g>
<!-- DataDefinition -->
<g id="node12" class="node">
<title>DataDefinition</title>
<ellipse fill="none" stroke="darkviolet" cx="2048.64" cy="-306" rx="77.99" ry="18"/>
<text text-anchor="middle" x="2048.64" y="-302.3" font-family="Times,serif" font-size="14.00">DataDefinition</text>
</g>
<!-- DataDefinition&#45;&gt;DDPkt -->
<g id="edge11" class="edge">
<title>DataDefinition&#45;&gt;DDPkt</title>
<path fill="none" stroke="black" d="M2048.64,-287.7C2048.64,-279.98 2048.64,-270.71 2048.64,-262.11"/>
<polygon fill="black" stroke="black" points="2052.14,-262.1 2048.64,-252.1 2045.14,-262.1 2052.14,-262.1"/>
</g>
<!-- DataDefinition&#45;&gt;DataDefinition -->
<g id="edge12" class="edge">
<title>DataDefinition&#45;&gt;DataDefinition</title>
<path fill="none" stroke="black" d="M2101.46,-319.31C2124.67,-320.49 2144.64,-316.05 2144.64,-306 2144.64,-297.44 2130.16,-292.95 2111.53,-292.53"/>
<polygon fill="black" stroke="black" points="2111.41,-289.03 2101.46,-292.69 2111.52,-296.03 2111.41,-289.03"/>
</g>
<!-- SimpleQDef -->
<g id="node13" class="node">
<title>SimpleQDef</title>
<ellipse fill="none" stroke="black" cx="3041.64" cy="-234" rx="66.09" ry="18"/>
<text text-anchor="middle" x="3041.64" y="-230.3" font-family="Times,serif" font-size="14.00">SimpleQDef</text>
</g>
<!-- DataDefinition&#45;&gt;SimpleQDef -->
<g id="edge10" class="edge">
<title>DataDefinition&#45;&gt;SimpleQDef</title>
<path fill="none" stroke="black" d="M2126.75,-304.83C2285.68,-303.53 2657.81,-295.61 2966.64,-252 2972.57,-251.16 2978.73,-250.1 2984.84,-248.91"/>
<polygon fill="black" stroke="black" points="2985.96,-252.25 2995.06,-246.81 2984.56,-245.39 2985.96,-252.25"/>
</g>
<!-- ModelQDef -->
<g id="node14" class="node">
<title>ModelQDef</title>
<ellipse fill="none" stroke="black" cx="1079.64" cy="-162" rx="63.09" ry="18"/>
<text text-anchor="middle" x="1079.64" y="-158.3" font-family="Times,serif" font-size="14.00">ModelQDef</text>
</g>
<!-- DataDefinition&#45;&gt;ModelQDef -->
<g id="edge13" class="edge">
<title>DataDefinition&#45;&gt;ModelQDef</title>
<path fill="none" stroke="black" d="M1971.15,-303.5C1842.42,-300 1590.74,-288.57 1510.64,-252 1489.48,-242.34 1493.74,-225.8 1472.64,-216 1342.45,-155.5 1293.09,-204.54 1151.64,-180 1146.27,-179.07 1140.69,-177.98 1135.13,-176.8"/>
<polygon fill="black" stroke="black" points="1135.7,-173.35 1125.18,-174.62 1134.2,-180.18 1135.7,-173.35"/>
</g>
<!-- Lens_ -->
<g id="node15" class="node">
<title>Lens_</title>
<ellipse fill="none" stroke="black" cx="1426.64" cy="-234" rx="37.09" ry="18"/>
<text text-anchor="middle" x="1426.64" y="-230.3" font-family="Times,serif" font-size="14.00">Lens_</text>
</g>
<!-- DataDefinition&#45;&gt;Lens_ -->
<g id="edge14" class="edge">
<title>DataDefinition&#45;&gt;Lens_</title>
<path fill="none" stroke="black" d="M1971.15,-303.42C1860.55,-299.9 1651.56,-288.55 1477.64,-252 1473.43,-251.11 1469.08,-250 1464.78,-248.76"/>
<polygon fill="black" stroke="black" points="1465.51,-245.32 1454.92,-245.7 1463.44,-252.01 1465.51,-245.32"/>
</g>
<!-- a -->
<g id="node16" class="node">
<title>a</title>
<ellipse fill="none" stroke="black" cx="2930.64" cy="-234" rx="27" ry="18"/>
<text text-anchor="middle" x="2930.64" y="-230.3" font-family="Times,serif" font-size="14.00">a</text>
</g>
<!-- DataDefinition&#45;&gt;a -->
<g id="edge15" class="edge">
<title>DataDefinition&#45;&gt;a</title>
<path fill="none" stroke="black" d="M2126.14,-303.87C2306.63,-300.64 2750.61,-289.07 2894.64,-252 2896.82,-251.44 2899.02,-250.75 2901.21,-249.97"/>
<polygon fill="black" stroke="black" points="2902.68,-253.15 2910.59,-246.1 2900.01,-246.68 2902.68,-253.15"/>
</g>
<!-- GenDefn -->
<g id="node18" class="node">
<title>GenDefn</title>
<ellipse fill="none" stroke="#00cdcd" cx="2159.64" cy="-234" rx="51.19" ry="18"/>
<text text-anchor="middle" x="2159.64" y="-230.3" font-family="Times,serif" font-size="14.00">GenDefn</text>
</g>
<!-- GenDefn&#45;&gt;DecRef -->
<g id="edge20" class="edge">
<title>GenDefn&#45;&gt;DecRef</title>
<path fill="none" stroke="black" d="M2184.24,-218.15C2201.39,-207.81 2224.44,-193.9 2243.11,-182.63"/>
<polygon fill="black" stroke="black" points="2245.12,-185.51 2251.87,-177.35 2241.5,-179.52 2245.12,-185.51"/>
</g>
<!-- GenDefn&#45;&gt;MaybeDerivation -->
<g id="edge19" class="edge">
<title>GenDefn&#45;&gt;MaybeDerivation</title>
<path fill="none" stroke="black" d="M2206.34,-226.36C2274.42,-216.61 2404.88,-197.66 2515.64,-180 2523.35,-178.77 2531.38,-177.46 2539.39,-176.13"/>
<polygon fill="black" stroke="black" points="2540.23,-179.54 2549.51,-174.44 2539.07,-172.63 2540.23,-179.54"/>
</g>
<!-- GenDefn&#45;&gt;ShortName -->
<g id="edge21" class="edge">
<title>GenDefn&#45;&gt;ShortName</title>
<path fill="none" stroke="black" d="M2121.79,-221.68C2082.58,-209.95 2021.06,-191.54 1977.39,-178.48"/>
<polygon fill="black" stroke="black" points="1978.38,-175.12 1967.8,-175.61 1976.38,-181.83 1978.38,-175.12"/>
</g>
<!-- GenDefn&#45;&gt;String -->
<g id="edge22" class="edge">
<title>GenDefn&#45;&gt;String</title>
<path fill="none" stroke="black" d="M2135.62,-217.98C2119.09,-207.65 2096.97,-193.83 2079.04,-182.63"/>
<polygon fill="black" stroke="black" points="2080.44,-179.37 2070.11,-177.04 2076.73,-185.31 2080.44,-179.37"/>
</g>
<!-- GenDefn&#45;&gt;Sentence -->
<g id="edge23" class="edge">
<title>GenDefn&#45;&gt;Sentence</title>
<path fill="none" stroke="black" d="M2159.64,-215.7C2159.64,-207.98 2159.64,-198.71 2159.64,-190.11"/>
<polygon fill="black" stroke="black" points="2163.14,-190.1 2159.64,-180.1 2156.14,-190.1 2163.14,-190.1"/>
</g>
<!-- ModelKindModelExpr -->
<g id="node19" class="node">
<title>ModelKindModelExpr</title>
<ellipse fill="none" stroke="black" cx="1590.64" cy="-162" rx="112.38" ry="18"/>
<text text-anchor="middle" x="1590.64" y="-158.3" font-family="Times,serif" font-size="14.00">ModelKindModelExpr</text>
</g>
<!-- GenDefn&#45;&gt;ModelKindModelExpr -->
<g id="edge17" class="edge">
<title>GenDefn&#45;&gt;ModelKindModelExpr</title>
<path fill="none" stroke="black" d="M2122.47,-221.5C2114.66,-219.41 2106.43,-217.44 2098.64,-216 1929.2,-184.75 1883.79,-199.89 1712.64,-180 1702.34,-178.8 1691.56,-177.45 1680.86,-176.04"/>
<polygon fill="black" stroke="black" points="1681.02,-172.53 1670.64,-174.68 1680.09,-179.47 1681.02,-172.53"/>
</g>
<!-- MaybeUnitDefn -->
<g id="node20" class="node">
<title>MaybeUnitDefn</title>
<ellipse fill="none" stroke="black" cx="2422.64" cy="-162" rx="84.49" ry="18"/>
<text text-anchor="middle" x="2422.64" y="-158.3" font-family="Times,serif" font-size="14.00">MaybeUnitDefn</text>
</g>
<!-- GenDefn&#45;&gt;MaybeUnitDefn -->
<g id="edge18" class="edge">
<title>GenDefn&#45;&gt;MaybeUnitDefn</title>
<path fill="none" stroke="black" d="M2199.3,-222.44C2242.49,-210.95 2312.06,-192.43 2362.09,-179.12"/>
<polygon fill="black" stroke="black" points="2363.06,-182.48 2371.82,-176.53 2361.26,-175.72 2363.06,-182.48"/>
</g>
<!-- InstanceModel -->
<g id="node21" class="node">
<title>InstanceModel</title>
<ellipse fill="none" stroke="#00cdcd" cx="2461.64" cy="-234" rx="79.09" ry="18"/>
<text text-anchor="middle" x="2461.64" y="-230.3" font-family="Times,serif" font-size="14.00">InstanceModel</text>
</g>
<!-- InstanceModel&#45;&gt;DecRef -->
<g id="edge27" class="edge">
<title>InstanceModel&#45;&gt;DecRef</title>
<path fill="none" stroke="black" d="M2422.65,-218.33C2391.47,-206.59 2347.89,-190.19 2316.28,-178.29"/>
<polygon fill="black" stroke="black" points="2317.48,-175 2306.89,-174.76 2315.01,-181.56 2317.48,-175"/>
</g>
<!-- InstanceModel&#45;&gt;MaybeDerivation -->
<g id="edge28" class="edge">
<title>InstanceModel&#45;&gt;MaybeDerivation</title>
<path fill="none" stroke="black" d="M2495.44,-217.64C2517.87,-207.44 2547.54,-193.96 2571.79,-182.93"/>
<polygon fill="black" stroke="black" points="2573.47,-186.01 2581.13,-178.69 2570.58,-179.64 2573.47,-186.01"/>
</g>
<!-- InstanceModel&#45;&gt;ShortName -->
<g id="edge29" class="edge">
<title>InstanceModel&#45;&gt;ShortName</title>
<path fill="none" stroke="black" d="M2387.9,-227.19C2296.22,-219.36 2135.17,-203.63 1998.64,-180 1993.19,-179.06 1987.54,-177.96 1981.91,-176.78"/>
<polygon fill="black" stroke="black" points="1982.34,-173.29 1971.82,-174.6 1980.85,-180.14 1982.34,-173.29"/>
</g>
<!-- InstanceModel&#45;&gt;String -->
<g id="edge30" class="edge">
<title>InstanceModel&#45;&gt;String</title>
<path fill="none" stroke="black" d="M2389.19,-226.57C2314.98,-219.04 2196.65,-204.37 2096.64,-180 2093.45,-179.22 2090.17,-178.32 2086.9,-177.35"/>
<polygon fill="black" stroke="black" points="2087.76,-173.95 2077.17,-174.26 2085.64,-180.62 2087.76,-173.95"/>
</g>
<!-- InstanceModel&#45;&gt;Sentence -->
<g id="edge31" class="edge">
<title>InstanceModel&#45;&gt;Sentence</title>
<path fill="none" stroke="black" d="M2405.46,-221.29C2356.92,-211 2284.97,-195.31 2222.64,-180 2218.5,-178.98 2214.21,-177.89 2209.9,-176.78"/>
<polygon fill="black" stroke="black" points="2210.47,-173.31 2199.9,-174.16 2208.69,-180.08 2210.47,-173.31"/>
</g>
<!-- ModelKindExpr -->
<g id="node22" class="node">
<title>ModelKindExpr</title>
<ellipse fill="none" stroke="black" cx="2913.64" cy="-162" rx="83.39" ry="18"/>
<text text-anchor="middle" x="2913.64" y="-158.3" font-family="Times,serif" font-size="14.00">ModelKindExpr</text>
</g>
<!-- InstanceModel&#45;&gt;ModelKindExpr -->
<g id="edge24" class="edge">
<title>InstanceModel&#45;&gt;ModelKindExpr</title>
<path fill="none" stroke="black" d="M2527.78,-224C2600.08,-213.99 2719.28,-196.99 2821.64,-180 2828.69,-178.83 2836.04,-177.56 2843.37,-176.26"/>
<polygon fill="black" stroke="black" points="2844.1,-179.68 2853.32,-174.47 2842.86,-172.79 2844.1,-179.68"/>
</g>
<!-- Inputs -->
<g id="node23" class="node">
<title>Inputs</title>
<ellipse fill="none" stroke="#ee0000" cx="3092.64" cy="-162" rx="40.09" ry="18"/>
<text text-anchor="middle" x="3092.64" y="-158.3" font-family="Times,serif" font-size="14.00">Inputs</text>
</g>
<!-- InstanceModel&#45;&gt;Inputs -->
<g id="edge25" class="edge">
<title>InstanceModel&#45;&gt;Inputs</title>
<path fill="none" stroke="black" d="M2536.71,-227.97C2641.91,-220.41 2838.98,-204.34 3005.64,-180 3019.24,-178.01 3033.92,-175.35 3047.29,-172.72"/>
<polygon fill="black" stroke="black" points="3048.11,-176.12 3057.22,-170.72 3046.73,-169.26 3048.11,-176.12"/>
</g>
<!-- Output -->
<g id="node24" class="node">
<title>Output</title>
<ellipse fill="none" stroke="#ee0000" cx="2768.64" cy="-162" rx="43.59" ry="18"/>
<text text-anchor="middle" x="2768.64" y="-158.3" font-family="Times,serif" font-size="14.00">Output</text>
</g>
<!-- InstanceModel&#45;&gt;Output -->
<g id="edge26" class="edge">
<title>InstanceModel&#45;&gt;Output</title>
<path fill="none" stroke="black" d="M2521.85,-222.28C2573.58,-212.63 2649.98,-197.33 2715.64,-180 2719.06,-179.1 2722.59,-178.1 2726.12,-177.07"/>
<polygon fill="black" stroke="black" points="2727.46,-180.32 2736.01,-174.06 2725.42,-173.62 2727.46,-180.32"/>
</g>
<!-- Input -->
<g id="node25" class="node">
<title>Input</title>
<ellipse fill="none" stroke="#ee0000" cx="3092.64" cy="-90" rx="36" ry="18"/>
<text text-anchor="middle" x="3092.64" y="-86.3" font-family="Times,serif" font-size="14.00">Input</text>
</g>
<!-- Inputs&#45;&gt;Input -->
<g id="edge33" class="edge">
<title>Inputs&#45;&gt;Input</title>
<path fill="none" stroke="black" d="M3092.64,-143.7C3092.64,-135.98 3092.64,-126.71 3092.64,-118.11"/>
<polygon fill="black" stroke="black" points="3096.14,-118.1 3092.64,-108.1 3089.14,-118.1 3096.14,-118.1"/>
</g>
<!-- QuantityDict -->
<g id="node27" class="node">
<title>QuantityDict</title>
<ellipse fill="none" stroke="black" cx="2768.64" cy="-90" rx="70.39" ry="18"/>
<text text-anchor="middle" x="2768.64" y="-86.3" font-family="Times,serif" font-size="14.00">QuantityDict</text>
</g>
<!-- Output&#45;&gt;QuantityDict -->
<g id="edge34" class="edge">
<title>Output&#45;&gt;QuantityDict</title>
<path fill="none" stroke="black" d="M2768.64,-143.7C2768.64,-135.98 2768.64,-126.71 2768.64,-118.11"/>
<polygon fill="black" stroke="black" points="2772.14,-118.1 2768.64,-108.1 2765.14,-118.1 2772.14,-118.1"/>
</g>
<!-- QuantityDictMaybeRealIntervalExprExpr -->
<g id="node26" class="node">
<title>QuantityDictMaybeRealIntervalExprExpr</title>
<ellipse fill="none" stroke="black" cx="3092.64" cy="-18" rx="203.36" ry="18"/>
<text text-anchor="middle" x="3092.64" y="-14.3" font-family="Times,serif" font-size="14.00">QuantityDictMaybeRealIntervalExprExpr</text>
</g>
<!-- Input&#45;&gt;QuantityDictMaybeRealIntervalExprExpr -->
<g id="edge32" class="edge">
<title>Input&#45;&gt;QuantityDictMaybeRealIntervalExprExpr</title>
<path fill="none" stroke="black" d="M3092.64,-71.7C3092.64,-63.98 3092.64,-54.71 3092.64,-46.11"/>
<polygon fill="black" stroke="black" points="3096.14,-46.1 3092.64,-36.1 3089.14,-46.1 3096.14,-46.1"/>
</g>
<!-- OutputConstraints -->
<g id="node28" class="node">
<title>OutputConstraints</title>
<ellipse fill="none" stroke="#ee0000" cx="3238.64" cy="-306" rx="97.48" ry="18"/>
<text text-anchor="middle" x="3238.64" y="-302.3" font-family="Times,serif" font-size="14.00">OutputConstraints</text>
</g>
<!-- RealIntervalExprExpr -->
<g id="node29" class="node">
<title>RealIntervalExprExpr</title>
<ellipse fill="none" stroke="black" cx="3238.64" cy="-234" rx="112.38" ry="18"/>
<text text-anchor="middle" x="3238.64" y="-230.3" font-family="Times,serif" font-size="14.00">RealIntervalExprExpr</text>
</g>
<!-- OutputConstraints&#45;&gt;RealIntervalExprExpr -->
<g id="edge35" class="edge">
<title>OutputConstraints&#45;&gt;RealIntervalExprExpr</title>
<path fill="none" stroke="black" d="M3238.64,-287.7C3238.64,-279.98 3238.64,-270.71 3238.64,-262.11"/>
<polygon fill="black" stroke="black" points="3242.14,-262.1 3238.64,-252.1 3235.14,-262.1 3242.14,-262.1"/>
</g>
<!-- ModelKinde -->
<g id="node30" class="node">
<title>ModelKinde</title>
<ellipse fill="none" stroke="#00cdcd" cx="609.64" cy="-306" rx="66.09" ry="18"/>
<text text-anchor="middle" x="609.64" y="-302.3" font-family="Times,serif" font-size="14.00">ModelKinde</text>
</g>
<!-- ModelKinde&#45;&gt;UID -->
<g id="edge37" class="edge">
<title>ModelKinde&#45;&gt;UID</title>
<path fill="none" stroke="black" d="M675.53,-303.28C766.95,-299.58 925.95,-288.01 969.64,-252 1008.91,-219.64 976.81,-184.48 1007.64,-144 1047.45,-91.75 1115.44,-53.12 1155.49,-33.5"/>
<polygon fill="black" stroke="black" points="1157.05,-36.64 1164.56,-29.16 1154.03,-30.33 1157.05,-36.64"/>
</g>
<!-- ModelKindse -->
<g id="node31" class="node">
<title>ModelKindse</title>
<ellipse fill="none" stroke="darkviolet" cx="609.64" cy="-234" rx="71.49" ry="18"/>
<text text-anchor="middle" x="609.64" y="-230.3" font-family="Times,serif" font-size="14.00">ModelKindse</text>
</g>
<!-- ModelKinde&#45;&gt;ModelKindse -->
<g id="edge36" class="edge">
<title>ModelKinde&#45;&gt;ModelKindse</title>
<path fill="none" stroke="black" d="M609.64,-287.7C609.64,-279.98 609.64,-270.71 609.64,-262.11"/>
<polygon fill="black" stroke="black" points="613.14,-262.1 609.64,-252.1 606.14,-262.1 613.14,-262.1"/>
</g>
<!-- NP -->
<g id="node32" class="node">
<title>NP</title>
<ellipse fill="none" stroke="black" cx="493.64" cy="-234" rx="27" ry="18"/>
<text text-anchor="middle" x="493.64" y="-230.3" font-family="Times,serif" font-size="14.00">NP</text>
</g>
<!-- ModelKinde&#45;&gt;NP -->
<g id="edge38" class="edge">
<title>ModelKinde&#45;&gt;NP</title>
<path fill="none" stroke="black" d="M583.61,-289.29C565.24,-278.21 540.65,-263.37 521.82,-252"/>
<polygon fill="black" stroke="black" points="523.46,-248.91 513.09,-246.74 519.85,-254.9 523.46,-248.91"/>
</g>
<!-- DifferentialModel -->
<g id="node33" class="node">
<title>DifferentialModel</title>
<ellipse fill="none" stroke="black" cx="241.64" cy="-162" rx="92.08" ry="18"/>
<text text-anchor="middle" x="241.64" y="-158.3" font-family="Times,serif" font-size="14.00">DifferentialModel</text>
</g>
<!-- ModelKindse&#45;&gt;DifferentialModel -->
<g id="edge39" class="edge">
<title>ModelKindse&#45;&gt;DifferentialModel</title>
<path fill="none" stroke="black" d="M557.19,-221.64C548.02,-219.71 538.56,-217.77 529.64,-216 458.02,-201.8 376.11,-186.85 318,-176.46"/>
<polygon fill="black" stroke="black" points="318.26,-172.95 307.8,-174.64 317.03,-179.85 318.26,-172.95"/>
</g>
<!-- ModelKinds -->
<g id="node34" class="node">
<title>ModelKinds</title>
<ellipse fill="none" stroke="black" cx="609.64" cy="-162" rx="65.79" ry="18"/>
<text text-anchor="middle" x="609.64" y="-158.3" font-family="Times,serif" font-size="14.00">ModelKinds</text>
</g>
<!-- ModelKindse&#45;&gt;ModelKinds -->
<g id="edge40" class="edge">
<title>ModelKindse&#45;&gt;ModelKinds</title>
<path fill="none" stroke="black" d="M609.64,-215.7C609.64,-207.98 609.64,-198.71 609.64,-190.11"/>
<polygon fill="black" stroke="black" points="613.14,-190.1 609.64,-180.1 606.14,-190.1 613.14,-190.1"/>
</g>
<!-- e -->
<g id="node35" class="node">
<title>e</title>
<ellipse fill="none" stroke="black" cx="895.64" cy="-162" rx="27" ry="18"/>
<text text-anchor="middle" x="895.64" y="-158.3" font-family="Times,serif" font-size="14.00">e</text>
</g>
<!-- ModelKindse&#45;&gt;e -->
<g id="edge41" class="edge">
<title>ModelKindse&#45;&gt;e</title>
<path fill="none" stroke="black" d="M670.04,-224.24C721.34,-215.84 796.47,-201.29 859.64,-180 861.56,-179.35 863.51,-178.63 865.46,-177.87"/>
<polygon fill="black" stroke="black" points="867.25,-180.9 875.04,-173.73 864.48,-174.48 867.25,-180.9"/>
</g>
<!-- RelationConcept -->
<g id="node36" class="node">
<title>RelationConcept</title>
<ellipse fill="none" stroke="black" cx="438.64" cy="-162" rx="87.18" ry="18"/>
<text text-anchor="middle" x="438.64" y="-158.3" font-family="Times,serif" font-size="14.00">RelationConcept</text>
</g>
<!-- ModelKindse&#45;&gt;RelationConcept -->
<g id="edge42" class="edge">
<title>ModelKindse&#45;&gt;RelationConcept</title>
<path fill="none" stroke="black" d="M573.8,-218.33C548.22,-207.85 513.56,-193.67 485.75,-182.28"/>
<polygon fill="black" stroke="black" points="486.8,-178.93 476.22,-178.38 484.15,-185.41 486.8,-178.93"/>
</g>
<!-- DefiningExpre -->
<g id="node37" class="node">
<title>DefiningExpre</title>
<ellipse fill="none" stroke="#00cdcd" cx="883.64" cy="-234" rx="77.19" ry="18"/>
<text text-anchor="middle" x="883.64" y="-230.3" font-family="Times,serif" font-size="14.00">DefiningExpre</text>
</g>
<!-- DefiningExpre&#45;&gt;Sentence -->
<g id="edge44" class="edge">
<title>DefiningExpre&#45;&gt;Sentence</title>
<path fill="none" stroke="black" d="M959.56,-230.14C1216.47,-220.42 2040.43,-188.7 2096.64,-180 2101.43,-179.26 2106.37,-178.29 2111.29,-177.19"/>
<polygon fill="black" stroke="black" points="2112.38,-180.53 2121.28,-174.79 2110.74,-173.73 2112.38,-180.53"/>
</g>
<!-- DefiningExpre&#45;&gt;UID -->
<g id="edge43" class="edge">
<title>DefiningExpre&#45;&gt;UID</title>
<path fill="none" stroke="black" d="M901.81,-216.15C911.61,-206.32 923.37,-193.27 931.64,-180 958.97,-136.16 935.73,-105.98 974.64,-72 1023.48,-29.35 1101.48,-19.98 1148.31,-18.49"/>
<polygon fill="black" stroke="black" points="1148.45,-21.99 1158.38,-18.28 1148.3,-14.99 1148.45,-21.99"/>
</g>
<!-- DefiningExpre&#45;&gt;e -->
<g id="edge45" class="edge">
<title>DefiningExpre&#45;&gt;e</title>
<path fill="none" stroke="black" d="M886.61,-215.7C887.93,-207.98 889.52,-198.71 891,-190.11"/>
<polygon fill="black" stroke="black" points="894.47,-190.55 892.71,-180.1 887.57,-189.37 894.47,-190.55"/>
</g>
<!-- MultiDefne -->
<g id="node38" class="node">
<title>MultiDefne</title>
<ellipse fill="none" stroke="#00cdcd" cx="2822.64" cy="-234" rx="63.09" ry="18"/>
<text text-anchor="middle" x="2822.64" y="-230.3" font-family="Times,serif" font-size="14.00">MultiDefne</text>
</g>
<!-- MultiDefne&#45;&gt;Sentence -->
<g id="edge48" class="edge">
<title>MultiDefne&#45;&gt;Sentence</title>
<path fill="none" stroke="black" d="M2761.89,-228.99C2630.82,-220.13 2325.09,-198.2 2222.64,-180 2217.94,-179.16 2213.08,-178.14 2208.24,-177.02"/>
<polygon fill="black" stroke="black" points="2208.93,-173.59 2198.39,-174.6 2207.26,-180.38 2208.93,-173.59"/>
</g>
<!-- MultiDefne&#45;&gt;UID -->
<g id="edge46" class="edge">
<title>MultiDefne&#45;&gt;UID</title>
<path fill="none" stroke="black" d="M2868.61,-221.52C2877.23,-219.54 2886.19,-217.61 2894.64,-216 2949.13,-205.62 3105.36,-221.96 3141.64,-180 3154.41,-165.24 3156.99,-90.81 3137.64,-72 3102.11,-37.46 1500.62,-21.77 1227.16,-19.34"/>
<polygon fill="black" stroke="black" points="1226.94,-15.84 1216.91,-19.25 1226.88,-22.84 1226.94,-15.84"/>
</g>
<!-- MultiDefne&#45;&gt;QuantityDict -->
<g id="edge47" class="edge">
<title>MultiDefne&#45;&gt;QuantityDict</title>
<path fill="none" stroke="black" d="M2867.9,-221.34C2920.7,-207.53 3001.38,-185.67 3005.64,-180 3015.26,-167.21 3015.65,-156.49 3005.64,-144 2985.61,-118.99 2905.78,-104.99 2844.24,-97.75"/>
<polygon fill="black" stroke="black" points="2844.48,-94.25 2834.15,-96.6 2843.69,-101.21 2844.48,-94.25"/>
</g>
<!-- NonEmptyDefiningExpre -->
<g id="node39" class="node">
<title>NonEmptyDefiningExpre</title>
<ellipse fill="none" stroke="black" cx="3315.64" cy="-162" rx="127.28" ry="18"/>
<text text-anchor="middle" x="3315.64" y="-158.3" font-family="Times,serif" font-size="14.00">NonEmptyDefiningExpre</text>
</g>
<!-- MultiDefne&#45;&gt;NonEmptyDefiningExpre -->
<g id="edge49" class="edge">
<title>MultiDefne&#45;&gt;NonEmptyDefiningExpre</title>
<path fill="none" stroke="black" d="M2868.2,-221.47C2876.94,-219.48 2886.05,-217.55 2894.64,-216 2910.18,-213.2 3093.7,-190.38 3213.25,-175.61"/>
<polygon fill="black" stroke="black" points="3213.68,-179.09 3223.18,-174.39 3212.83,-172.14 3213.68,-179.09"/>
</g>
<!-- TheoryModel -->
<g id="node40" class="node">
<title>TheoryModel</title>
<ellipse fill="none" stroke="#00cdcd" cx="1590.64" cy="-234" rx="71.49" ry="18"/>
<text text-anchor="middle" x="1590.64" y="-230.3" font-family="Times,serif" font-size="14.00">TheoryModel</text>
</g>
<!-- TheoryModel&#45;&gt;ConceptChunk -->
<g id="edge54" class="edge">
<title>TheoryModel&#45;&gt;ConceptChunk</title>
<path fill="none" stroke="black" d="M1532.24,-223.59C1513.28,-220.8 1492.1,-217.97 1472.64,-216 1201.12,-188.52 1130.44,-213.96 859.64,-180 852.24,-179.07 844.52,-177.89 836.86,-176.59"/>
<polygon fill="black" stroke="black" points="837.32,-173.12 826.86,-174.82 836.1,-180.01 837.32,-173.12"/>
</g>
<!-- TheoryModel&#45;&gt;DecRef -->
<g id="edge57" class="edge">
<title>TheoryModel&#45;&gt;DecRef</title>
<path fill="none" stroke="black" d="M1661.99,-232.26C1779.83,-229.88 2022.08,-220.04 2222.64,-180 2226.32,-179.27 2230.1,-178.36 2233.86,-177.36"/>
<polygon fill="black" stroke="black" points="2235.08,-180.66 2243.72,-174.52 2233.14,-173.93 2235.08,-180.66"/>
</g>
<!-- TheoryModel&#45;&gt;ShortName -->
<g id="edge58" class="edge">
<title>TheoryModel&#45;&gt;ShortName</title>
<path fill="none" stroke="black" d="M1645.44,-222.4C1698.51,-212.02 1781.22,-195.54 1852.64,-180 1857.89,-178.86 1863.34,-177.64 1868.79,-176.41"/>
<polygon fill="black" stroke="black" points="1869.6,-179.82 1878.57,-174.18 1868.04,-172.99 1869.6,-179.82"/>
</g>
<!-- TheoryModel&#45;&gt;String -->
<g id="edge59" class="edge">
<title>TheoryModel&#45;&gt;String</title>
<path fill="none" stroke="black" d="M1658.91,-228.42C1740.56,-221.97 1880.98,-207.74 1998.64,-180 2001.84,-179.25 2005.13,-178.36 2008.4,-177.4"/>
<polygon fill="black" stroke="black" points="2009.65,-180.68 2018.13,-174.33 2007.54,-174 2009.65,-180.68"/>
</g>
<!-- TheoryModel&#45;&gt;Sentence -->
<g id="edge60" class="edge">
<title>TheoryModel&#45;&gt;Sentence</title>
<path fill="none" stroke="black" d="M1659.89,-229.25C1757.82,-223.15 1942.07,-208.76 2096.64,-180 2101.27,-179.14 2106.06,-178.11 2110.83,-176.99"/>
<polygon fill="black" stroke="black" points="2111.68,-180.38 2120.55,-174.58 2110,-173.59 2111.68,-180.38"/>
</g>
<!-- TheoryModel&#45;&gt;ModelQDef -->
<g id="edge55" class="edge">
<title>TheoryModel&#45;&gt;ModelQDef</title>
<path fill="none" stroke="black" d="M1538.19,-221.69C1527.45,-219.61 1516.21,-217.59 1505.64,-216 1349.26,-192.47 1307.6,-206.23 1151.64,-180 1146.18,-179.08 1140.52,-177.99 1134.87,-176.81"/>
<polygon fill="black" stroke="black" points="1135.3,-173.32 1124.78,-174.61 1133.81,-180.16 1135.3,-173.32"/>
</g>
<!-- TheoryModel&#45;&gt;ModelKindModelExpr -->
<g id="edge50" class="edge">
<title>TheoryModel&#45;&gt;ModelKindModelExpr</title>
<path fill="none" stroke="black" d="M1590.64,-215.7C1590.64,-207.98 1590.64,-198.71 1590.64,-190.11"/>
<polygon fill="black" stroke="black" points="1594.14,-190.1 1590.64,-180.1 1587.14,-190.1 1594.14,-190.1"/>
</g>
<!-- TheoryModel&#45;&gt;QuantityDict -->
<g id="edge53" class="edge">
<title>TheoryModel&#45;&gt;QuantityDict</title>
<path fill="none" stroke="black" d="M1534.72,-222.76C1510.41,-215.24 1484.2,-202.27 1469.64,-180 1460.89,-166.61 1458.56,-155.54 1469.64,-144 1511.92,-99.97 2410.46,-92.51 2687.83,-91.25"/>
<polygon fill="black" stroke="black" points="2688.23,-94.75 2698.22,-91.21 2688.2,-87.75 2688.23,-94.75"/>
</g>
<!-- TheoryModel&#45;&gt;TheoryModel -->
<g id="edge51" class="edge">
<title>TheoryModel&#45;&gt;TheoryModel</title>
<path fill="none" stroke="black" d="M1639.43,-247.29C1661.26,-248.55 1680.14,-244.12 1680.14,-234 1680.14,-225.54 1666.95,-221.05 1649.87,-220.55"/>
<polygon fill="black" stroke="black" points="1649.38,-217.06 1639.43,-220.71 1649.49,-224.05 1649.38,-217.06"/>
</g>
<!-- SpaceDefn -->
<g id="node41" class="node">
<title>SpaceDefn</title>
<ellipse fill="none" stroke="black" cx="1362.64" cy="-162" rx="60.39" ry="18"/>
<text text-anchor="middle" x="1362.64" y="-158.3" font-family="Times,serif" font-size="14.00">SpaceDefn</text>
</g>
<!-- TheoryModel&#45;&gt;SpaceDefn -->
<g id="edge52" class="edge">
<title>TheoryModel&#45;&gt;SpaceDefn</title>
<path fill="none" stroke="black" d="M1547.22,-219.67C1508.91,-207.91 1453.06,-190.76 1412.84,-178.41"/>
<polygon fill="black" stroke="black" points="1413.81,-175.05 1403.22,-175.46 1411.76,-181.74 1413.81,-175.05"/>
</g>
<!-- ModelExpr -->
<g id="node42" class="node">
<title>ModelExpr</title>
<ellipse fill="none" stroke="black" cx="1222.64" cy="-162" rx="61.99" ry="18"/>
<text text-anchor="middle" x="1222.64" y="-158.3" font-family="Times,serif" font-size="14.00">ModelExpr</text>
</g>
<!-- TheoryModel&#45;&gt;ModelExpr -->
<g id="edge56" class="edge">
<title>TheoryModel&#45;&gt;ModelExpr</title>
<path fill="none" stroke="black" d="M1536.73,-221.97C1526.42,-219.93 1515.71,-217.86 1505.64,-216 1411.67,-198.63 1387.28,-199.14 1293.64,-180 1288.57,-178.96 1283.32,-177.83 1278.06,-176.64"/>
<polygon fill="black" stroke="black" points="1278.52,-173.16 1268,-174.34 1276.96,-179.98 1278.52,-173.16"/>
</g>
</g>
</svg>
