<?xml version="1.0" encoding="UTF-8" standalone="no"?>
<!DOCTYPE svg PUBLIC "-//W3C//DTD SVG 1.1//EN"
 "http://www.w3.org/Graphics/SVG/1.1/DTD/svg11.dtd">
<!-- Generated by graphviz version 2.43.0 (0)
 -->
<!-- Title: alltypes Pages: 1 -->
<svg width="3250pt" height="332pt"
 viewBox="0.00 0.00 3250.03 332.00" xmlns="http://www.w3.org/2000/svg" xmlns:xlink="http://www.w3.org/1999/xlink">
<g id="graph0" class="graph" transform="scale(1 1) rotate(0) translate(4 328)">
<title>alltypes</title>
<polygon fill="white" stroke="transparent" points="-4,4 -4,-328 3246.03,-328 3246.03,4 -4,4"/>
<!-- ConstraintSete -->
<g id="node1" class="node">
<title>ConstraintSete</title>
<ellipse fill="none" stroke="#00cdcd" cx="112.64" cy="-234" rx="81.49" ry="18"/>
<text text-anchor="middle" x="112.64" y="-230.3" font-family="Times,serif" font-size="14.00">ConstraintSete</text>
</g>
<!-- ConceptChunk -->
<g id="node2" class="node">
<title>ConceptChunk</title>
<ellipse fill="none" stroke="black" cx="608.64" cy="-162" rx="78.79" ry="18"/>
<text text-anchor="middle" x="608.64" y="-158.3" font-family="Times,serif" font-size="14.00">ConceptChunk</text>
</g>
<!-- ConstraintSete&#45;&gt;ConceptChunk -->
<g id="edge1" class="edge">
<title>ConstraintSete&#45;&gt;ConceptChunk</title>
<path fill="none" stroke="black" d="M179.28,-223.6C271.4,-210.6 437.16,-187.2 533.56,-173.6"/>
<polygon fill="black" stroke="black" points="534.11,-177.05 543.52,-172.19 533.13,-170.12 534.11,-177.05"/>
</g>
<!-- NonEmptye -->
<g id="node3" class="node">
<title>NonEmptye</title>
<ellipse fill="none" stroke="black" cx="65.64" cy="-162" rx="65.79" ry="18"/>
<text text-anchor="middle" x="65.64" y="-158.3" font-family="Times,serif" font-size="14.00">NonEmptye</text>
</g>
<!-- ConstraintSete&#45;&gt;NonEmptye -->
<g id="edge2" class="edge">
<title>ConstraintSete&#45;&gt;NonEmptye</title>
<path fill="none" stroke="black" d="M101.27,-216.05C95.67,-207.71 88.8,-197.49 82.6,-188.25"/>
<polygon fill="black" stroke="black" points="85.4,-186.14 76.92,-179.79 79.59,-190.04 85.4,-186.14"/>
</g>
<!-- DDPkt -->
<g id="node4" class="node">
<title>DDPkt</title>
<ellipse fill="none" stroke="#00cdcd" cx="2090.64" cy="-234" rx="40.89" ry="18"/>
<text text-anchor="middle" x="2090.64" y="-230.3" font-family="Times,serif" font-size="14.00">DDPkt</text>
</g>
<!-- ScopeType -->
<g id="node5" class="node">
<title>ScopeType</title>
<ellipse fill="none" stroke="darkviolet" cx="2080.64" cy="-162" rx="61.19" ry="18"/>
<text text-anchor="middle" x="2080.64" y="-158.3" font-family="Times,serif" font-size="14.00">ScopeType</text>
</g>
<!-- DDPkt&#45;&gt;ScopeType -->
<g id="edge3" class="edge">
<title>DDPkt&#45;&gt;ScopeType</title>
<path fill="none" stroke="black" d="M2088.17,-215.7C2087.07,-207.98 2085.75,-198.71 2084.52,-190.11"/>
<polygon fill="black" stroke="black" points="2087.97,-189.51 2083.09,-180.1 2081.04,-190.5 2087.97,-189.51"/>
</g>
<!-- DecRef -->
<g id="node6" class="node">
<title>DecRef</title>
<ellipse fill="none" stroke="black" cx="1713.64" cy="-162" rx="44.39" ry="18"/>
<text text-anchor="middle" x="1713.64" y="-158.3" font-family="Times,serif" font-size="14.00">DecRef</text>
</g>
<!-- DDPkt&#45;&gt;DecRef -->
<g id="edge4" class="edge">
<title>DDPkt&#45;&gt;DecRef</title>
<path fill="none" stroke="black" d="M2060.51,-221.69C2054.03,-219.56 2047.16,-217.52 2040.64,-216 1921.03,-188.1 1886.49,-206.87 1766.64,-180 1763.04,-179.19 1759.33,-178.25 1755.62,-177.22"/>
<polygon fill="black" stroke="black" points="1756.48,-173.83 1745.9,-174.36 1754.51,-180.54 1756.48,-173.83"/>
</g>
<!-- MaybeDerivation -->
<g id="node7" class="node">
<title>MaybeDerivation</title>
<ellipse fill="none" stroke="black" cx="2250.64" cy="-162" rx="90.98" ry="18"/>
<text text-anchor="middle" x="2250.64" y="-158.3" font-family="Times,serif" font-size="14.00">MaybeDerivation</text>
</g>
<!-- DDPkt&#45;&gt;MaybeDerivation -->
<g id="edge5" class="edge">
<title>DDPkt&#45;&gt;MaybeDerivation</title>
<path fill="none" stroke="black" d="M2118.51,-220.81C2142.57,-210.28 2177.75,-194.89 2205.77,-182.63"/>
<polygon fill="black" stroke="black" points="2207.21,-185.82 2214.97,-178.61 2204.4,-179.41 2207.21,-185.82"/>
</g>
<!-- ShortName -->
<g id="node8" class="node">
<title>ShortName</title>
<ellipse fill="none" stroke="black" cx="1839.64" cy="-162" rx="63.89" ry="18"/>
<text text-anchor="middle" x="1839.64" y="-158.3" font-family="Times,serif" font-size="14.00">ShortName</text>
</g>
<!-- DDPkt&#45;&gt;ShortName -->
<g id="edge6" class="edge">
<title>DDPkt&#45;&gt;ShortName</title>
<path fill="none" stroke="black" d="M2059.81,-222.14C2053.5,-220.02 2046.88,-217.88 2040.64,-216 1992.23,-201.41 1936.59,-186.91 1896.15,-176.78"/>
<polygon fill="black" stroke="black" points="1896.76,-173.32 1886.21,-174.3 1895.06,-180.11 1896.76,-173.32"/>
</g>
<!-- String -->
<g id="node9" class="node">
<title>String</title>
<ellipse fill="none" stroke="black" cx="1961.64" cy="-162" rx="40.09" ry="18"/>
<text text-anchor="middle" x="1961.64" y="-158.3" font-family="Times,serif" font-size="14.00">String</text>
</g>
<!-- DDPkt&#45;&gt;String -->
<g id="edge7" class="edge">
<title>DDPkt&#45;&gt;String</title>
<path fill="none" stroke="black" d="M2065.77,-219.5C2045.78,-208.66 2017.51,-193.31 1995.46,-181.35"/>
<polygon fill="black" stroke="black" points="1996.9,-178.15 1986.44,-176.46 1993.56,-184.3 1996.9,-178.15"/>
</g>
<!-- Sentence -->
<g id="node10" class="node">
<title>Sentence</title>
<ellipse fill="none" stroke="black" cx="2413.64" cy="-162" rx="53.89" ry="18"/>
<text text-anchor="middle" x="2413.64" y="-158.3" font-family="Times,serif" font-size="14.00">Sentence</text>
</g>
<!-- DDPkt&#45;&gt;Sentence -->
<g id="edge8" class="edge">
<title>DDPkt&#45;&gt;Sentence</title>
<path fill="none" stroke="black" d="M2125.73,-224.4C2137.45,-221.61 2150.59,-218.58 2162.64,-216 2245.84,-198.22 2267.74,-199.1 2350.64,-180 2354.98,-179 2359.48,-177.91 2363.97,-176.77"/>
<polygon fill="black" stroke="black" points="2364.96,-180.13 2373.76,-174.24 2363.21,-173.36 2364.96,-180.13"/>
</g>
<!-- Scope -->
<g id="node11" class="node">
<title>Scope</title>
<ellipse fill="none" stroke="darkgreen" cx="2128.64" cy="-90" rx="38.19" ry="18"/>
<text text-anchor="middle" x="2128.64" y="-86.3" font-family="Times,serif" font-size="14.00">Scope</text>
</g>
<!-- ScopeType&#45;&gt;Scope -->
<g id="edge9" class="edge">
<title>ScopeType&#45;&gt;Scope</title>
<path fill="none" stroke="black" d="M2092.26,-144.05C2098.13,-135.5 2105.35,-124.97 2111.81,-115.56"/>
<polygon fill="black" stroke="black" points="2114.69,-117.53 2117.46,-107.31 2108.92,-113.57 2114.69,-117.53"/>
</g>
<!-- UID -->
<g id="node17" class="node">
<title>UID</title>
<ellipse fill="none" stroke="black" cx="2177.64" cy="-18" rx="29.5" ry="18"/>
<text text-anchor="middle" x="2177.64" y="-14.3" font-family="Times,serif" font-size="14.00">UID</text>
</g>
<!-- Scope&#45;&gt;UID -->
<g id="edge16" class="edge">
<title>Scope&#45;&gt;UID</title>
<path fill="none" stroke="black" d="M2140.01,-72.76C2146.07,-64.11 2153.65,-53.27 2160.42,-43.6"/>
<polygon fill="black" stroke="black" points="2163.47,-45.35 2166.34,-35.15 2157.74,-41.33 2163.47,-45.35"/>
</g>
<!-- DataDefinition -->
<g id="node12" class="node">
<title>DataDefinition</title>
<ellipse fill="none" stroke="darkviolet" cx="2090.64" cy="-306" rx="77.99" ry="18"/>
<text text-anchor="middle" x="2090.64" y="-302.3" font-family="Times,serif" font-size="14.00">DataDefinition</text>
</g>
<!-- DataDefinition&#45;&gt;DDPkt -->
<g id="edge11" class="edge">
<title>DataDefinition&#45;&gt;DDPkt</title>
<path fill="none" stroke="black" d="M2090.64,-287.7C2090.64,-279.98 2090.64,-270.71 2090.64,-262.11"/>
<polygon fill="black" stroke="black" points="2094.14,-262.1 2090.64,-252.1 2087.14,-262.1 2094.14,-262.1"/>
</g>
<!-- DataDefinition&#45;&gt;DataDefinition -->
<g id="edge12" class="edge">
<title>DataDefinition&#45;&gt;DataDefinition</title>
<path fill="none" stroke="black" d="M2143.46,-319.31C2166.67,-320.49 2186.64,-316.05 2186.64,-306 2186.64,-297.44 2172.16,-292.95 2153.53,-292.53"/>
<polygon fill="black" stroke="black" points="2153.41,-289.03 2143.46,-292.69 2153.52,-296.03 2153.41,-289.03"/>
</g>
<!-- SimpleQDef -->
<g id="node13" class="node">
<title>SimpleQDef</title>
<ellipse fill="none" stroke="black" cx="1965.64" cy="-234" rx="66.09" ry="18"/>
<text text-anchor="middle" x="1965.64" y="-230.3" font-family="Times,serif" font-size="14.00">SimpleQDef</text>
</g>
<!-- DataDefinition&#45;&gt;SimpleQDef -->
<g id="edge10" class="edge">
<title>DataDefinition&#45;&gt;SimpleQDef</title>
<path fill="none" stroke="black" d="M2062.28,-289.12C2044.5,-279.16 2021.39,-266.22 2002.23,-255.49"/>
<polygon fill="black" stroke="black" points="2003.9,-252.41 1993.47,-250.58 2000.48,-258.52 2003.9,-252.41"/>
</g>
<!-- ModelQDef -->
<g id="node14" class="node">
<title>ModelQDef</title>
<ellipse fill="none" stroke="black" cx="768.64" cy="-162" rx="63.09" ry="18"/>
<text text-anchor="middle" x="768.64" y="-158.3" font-family="Times,serif" font-size="14.00">ModelQDef</text>
</g>
<!-- DataDefinition&#45;&gt;ModelQDef -->
<g id="edge13" class="edge">
<title>DataDefinition&#45;&gt;ModelQDef</title>
<path fill="none" stroke="black" d="M2013.02,-303.95C1858.12,-301.07 1499.9,-290.45 1201.64,-252 1064.28,-234.29 905.4,-197.32 823.6,-177.05"/>
<polygon fill="black" stroke="black" points="824.33,-173.62 813.78,-174.6 822.64,-180.41 824.33,-173.62"/>
</g>
<!-- Lens_ -->
<g id="node15" class="node">
<title>Lens_</title>
<ellipse fill="none" stroke="black" cx="2870.64" cy="-234" rx="37.09" ry="18"/>
<text text-anchor="middle" x="2870.64" y="-230.3" font-family="Times,serif" font-size="14.00">Lens_</text>
</g>
<!-- DataDefinition&#45;&gt;Lens_ -->
<g id="edge14" class="edge">
<title>DataDefinition&#45;&gt;Lens_</title>
<path fill="none" stroke="black" d="M2166.95,-302.21C2328.61,-295.87 2700.86,-278.78 2824.64,-252 2827.63,-251.35 2830.68,-250.56 2833.71,-249.66"/>
<polygon fill="black" stroke="black" points="2834.87,-252.97 2843.29,-246.54 2832.7,-246.31 2834.87,-252.97"/>
</g>
<!-- a -->
<g id="node16" class="node">
<title>a</title>
<ellipse fill="none" stroke="black" cx="2952.64" cy="-234" rx="27" ry="18"/>
<text text-anchor="middle" x="2952.64" y="-230.3" font-family="Times,serif" font-size="14.00">a</text>
</g>
<!-- DataDefinition&#45;&gt;a -->
<g id="edge15" class="edge">
<title>DataDefinition&#45;&gt;a</title>
<path fill="none" stroke="black" d="M2168.28,-303.73C2345.75,-300.23 2776.55,-288.16 2916.64,-252 2918.82,-251.44 2921.02,-250.75 2923.21,-249.96"/>
<polygon fill="black" stroke="black" points="2924.68,-253.15 2932.59,-246.1 2922.01,-246.67 2924.68,-253.15"/>
</g>
<!-- GenDefn -->
<g id="node18" class="node">
<title>GenDefn</title>
<ellipse fill="none" stroke="#00cdcd" cx="1829.64" cy="-234" rx="51.19" ry="18"/>
<text text-anchor="middle" x="1829.64" y="-230.3" font-family="Times,serif" font-size="14.00">GenDefn</text>
</g>
<!-- GenDefn&#45;&gt;DecRef -->
<g id="edge20" class="edge">
<title>GenDefn&#45;&gt;DecRef</title>
<path fill="none" stroke="black" d="M1805.04,-218.15C1787.9,-207.81 1764.84,-193.9 1746.18,-182.63"/>
<polygon fill="black" stroke="black" points="1747.79,-179.52 1737.42,-177.35 1744.17,-185.51 1747.79,-179.52"/>
</g>
<!-- GenDefn&#45;&gt;MaybeDerivation -->
<g id="edge19" class="edge">
<title>GenDefn&#45;&gt;MaybeDerivation</title>
<path fill="none" stroke="black" d="M1867.2,-221.68C1874.91,-219.6 1883,-217.59 1890.64,-216 2004.87,-192.29 2035.35,-197.78 2150.64,-180 2158.5,-178.79 2166.7,-177.48 2174.87,-176.13"/>
<polygon fill="black" stroke="black" points="2175.5,-179.58 2184.8,-174.49 2174.36,-172.67 2175.5,-179.58"/>
</g>
<!-- GenDefn&#45;&gt;ShortName -->
<g id="edge21" class="edge">
<title>GenDefn&#45;&gt;ShortName</title>
<path fill="none" stroke="black" d="M1832.12,-215.7C1833.22,-207.98 1834.54,-198.71 1835.77,-190.11"/>
<polygon fill="black" stroke="black" points="1839.25,-190.5 1837.2,-180.1 1832.32,-189.51 1839.25,-190.5"/>
</g>
<!-- GenDefn&#45;&gt;String -->
<g id="edge22" class="edge">
<title>GenDefn&#45;&gt;String</title>
<path fill="none" stroke="black" d="M1856.67,-218.67C1877.13,-207.82 1905.38,-192.84 1927.41,-181.15"/>
<polygon fill="black" stroke="black" points="1929.24,-184.14 1936.44,-176.37 1925.96,-177.96 1929.24,-184.14"/>
</g>
<!-- GenDefn&#45;&gt;Sentence -->
<g id="edge23" class="edge">
<title>GenDefn&#45;&gt;Sentence</title>
<path fill="none" stroke="black" d="M1866.8,-221.41C1874.61,-219.33 1882.85,-217.38 1890.64,-216 2092.58,-180.31 2148.56,-214.86 2350.64,-180 2355.35,-179.19 2360.22,-178.18 2365.06,-177.07"/>
<polygon fill="black" stroke="black" points="2366.03,-180.44 2374.91,-174.66 2364.37,-173.64 2366.03,-180.44"/>
</g>
<!-- ModelKindModelExpr -->
<g id="node19" class="node">
<title>ModelKindModelExpr</title>
<ellipse fill="none" stroke="black" cx="1351.64" cy="-162" rx="112.38" ry="18"/>
<text text-anchor="middle" x="1351.64" y="-158.3" font-family="Times,serif" font-size="14.00">ModelKindModelExpr</text>
</g>
<!-- GenDefn&#45;&gt;ModelKindModelExpr -->
<g id="edge17" class="edge">
<title>GenDefn&#45;&gt;ModelKindModelExpr</title>
<path fill="none" stroke="black" d="M1782.94,-226.16C1704.05,-214.61 1543.11,-191.04 1441.68,-176.19"/>
<polygon fill="black" stroke="black" points="1442.16,-172.72 1431.75,-174.73 1441.14,-179.64 1442.16,-172.72"/>
</g>
<!-- MaybeUnitDefn -->
<g id="node20" class="node">
<title>MaybeUnitDefn</title>
<ellipse fill="none" stroke="black" cx="1566.64" cy="-162" rx="84.49" ry="18"/>
<text text-anchor="middle" x="1566.64" y="-158.3" font-family="Times,serif" font-size="14.00">MaybeUnitDefn</text>
</g>
<!-- GenDefn&#45;&gt;MaybeUnitDefn -->
<g id="edge18" class="edge">
<title>GenDefn&#45;&gt;MaybeUnitDefn</title>
<path fill="none" stroke="black" d="M1789.99,-222.44C1746.8,-210.95 1677.22,-192.43 1627.2,-179.12"/>
<polygon fill="black" stroke="black" points="1628.03,-175.72 1617.47,-176.53 1626.23,-182.48 1628.03,-175.72"/>
</g>
<!-- InstanceModel -->
<g id="node21" class="node">
<title>InstanceModel</title>
<ellipse fill="none" stroke="#00cdcd" cx="2250.64" cy="-234" rx="79.09" ry="18"/>
<text text-anchor="middle" x="2250.64" y="-230.3" font-family="Times,serif" font-size="14.00">InstanceModel</text>
</g>
<!-- InstanceModel&#45;&gt;DecRef -->
<g id="edge27" class="edge">
<title>InstanceModel&#45;&gt;DecRef</title>
<path fill="none" stroke="black" d="M2188.49,-222.76C2172.89,-220.36 2156.18,-217.95 2140.64,-216 1974.95,-195.24 1930.2,-213.7 1766.64,-180 1762.97,-179.24 1759.2,-178.33 1755.44,-177.31"/>
<polygon fill="black" stroke="black" points="1756.16,-173.88 1745.58,-174.46 1754.21,-180.6 1756.16,-173.88"/>
</g>
<!-- InstanceModel&#45;&gt;MaybeDerivation -->
<g id="edge28" class="edge">
<title>InstanceModel&#45;&gt;MaybeDerivation</title>
<path fill="none" stroke="black" d="M2250.64,-215.7C2250.64,-207.98 2250.64,-198.71 2250.64,-190.11"/>
<polygon fill="black" stroke="black" points="2254.14,-190.1 2250.64,-180.1 2247.14,-190.1 2254.14,-190.1"/>
</g>
<!-- InstanceModel&#45;&gt;ShortName -->
<g id="edge29" class="edge">
<title>InstanceModel&#45;&gt;ShortName</title>
<path fill="none" stroke="black" d="M2187.12,-223.16C2092.97,-208.56 1925.98,-182.59 1912.64,-180 1907.3,-178.96 1901.74,-177.8 1896.2,-176.6"/>
<polygon fill="black" stroke="black" points="1896.79,-173.15 1886.27,-174.39 1895.27,-179.98 1896.79,-173.15"/>
</g>
<!-- InstanceModel&#45;&gt;String -->
<g id="edge30" class="edge">
<title>InstanceModel&#45;&gt;String</title>
<path fill="none" stroke="black" d="M2191.48,-221.94C2142.61,-212.32 2071.62,-197.25 2010.64,-180 2007.66,-179.16 2004.6,-178.23 2001.53,-177.27"/>
<polygon fill="black" stroke="black" points="2002.38,-173.86 1991.79,-174.08 2000.2,-180.52 2002.38,-173.86"/>
</g>
<!-- InstanceModel&#45;&gt;Sentence -->
<g id="edge31" class="edge">
<title>InstanceModel&#45;&gt;Sentence</title>
<path fill="none" stroke="black" d="M2286.01,-217.81C2311.45,-206.89 2345.82,-192.13 2372.49,-180.68"/>
<polygon fill="black" stroke="black" points="2374.12,-183.78 2381.93,-176.62 2371.36,-177.35 2374.12,-183.78"/>
</g>
<!-- ModelKindExpr -->
<g id="node22" class="node">
<title>ModelKindExpr</title>
<ellipse fill="none" stroke="black" cx="2666.64" cy="-162" rx="83.39" ry="18"/>
<text text-anchor="middle" x="2666.64" y="-158.3" font-family="Times,serif" font-size="14.00">ModelKindExpr</text>
</g>
<!-- InstanceModel&#45;&gt;ModelKindExpr -->
<g id="edge24" class="edge">
<title>InstanceModel&#45;&gt;ModelKindExpr</title>
<path fill="none" stroke="black" d="M2308.52,-221.63C2318.87,-219.68 2329.57,-217.73 2339.64,-216 2443.78,-198.08 2470.46,-197.6 2574.64,-180 2581.69,-178.81 2589.03,-177.53 2596.36,-176.22"/>
<polygon fill="black" stroke="black" points="2597.1,-179.64 2606.32,-174.42 2595.85,-172.75 2597.1,-179.64"/>
</g>
<!-- Inputs -->
<g id="node23" class="node">
<title>Inputs</title>
<ellipse fill="none" stroke="#ee0000" cx="2525.64" cy="-162" rx="40.09" ry="18"/>
<text text-anchor="middle" x="2525.64" y="-158.3" font-family="Times,serif" font-size="14.00">Inputs</text>
</g>
<!-- InstanceModel&#45;&gt;Inputs -->
<g id="edge25" class="edge">
<title>InstanceModel&#45;&gt;Inputs</title>
<path fill="none" stroke="black" d="M2307.72,-221.33C2353.67,-211.52 2419.74,-196.49 2476.64,-180 2479.62,-179.14 2482.68,-178.2 2485.75,-177.22"/>
<polygon fill="black" stroke="black" points="2487.08,-180.47 2495.48,-174.01 2484.89,-173.82 2487.08,-180.47"/>
</g>
<!-- Output -->
<g id="node24" class="node">
<title>Output</title>
<ellipse fill="none" stroke="#ee0000" cx="2811.64" cy="-162" rx="43.59" ry="18"/>
<text text-anchor="middle" x="2811.64" y="-158.3" font-family="Times,serif" font-size="14.00">Output</text>
</g>
<!-- InstanceModel&#45;&gt;Output -->
<g id="edge26" class="edge">
<title>InstanceModel&#45;&gt;Output</title>
<path fill="none" stroke="black" d="M2307,-221.33C2317.8,-219.35 2329.05,-217.46 2339.64,-216 2524.8,-190.43 2575.39,-216.78 2758.64,-180 2762.48,-179.23 2766.42,-178.28 2770.35,-177.22"/>
<polygon fill="black" stroke="black" points="2771.37,-180.57 2780,-174.43 2769.42,-173.85 2771.37,-180.57"/>
</g>
<!-- Input -->
<g id="node25" class="node">
<title>Input</title>
<ellipse fill="none" stroke="#ee0000" cx="2525.64" cy="-90" rx="36" ry="18"/>
<text text-anchor="middle" x="2525.64" y="-86.3" font-family="Times,serif" font-size="14.00">Input</text>
</g>
<!-- Inputs&#45;&gt;Input -->
<g id="edge33" class="edge">
<title>Inputs&#45;&gt;Input</title>
<path fill="none" stroke="black" d="M2525.64,-143.7C2525.64,-135.98 2525.64,-126.71 2525.64,-118.11"/>
<polygon fill="black" stroke="black" points="2529.14,-118.1 2525.64,-108.1 2522.14,-118.1 2529.14,-118.1"/>
</g>
<!-- QuantityDict -->
<g id="node27" class="node">
<title>QuantityDict</title>
<ellipse fill="none" stroke="black" cx="2785.64" cy="-90" rx="70.39" ry="18"/>
<text text-anchor="middle" x="2785.64" y="-86.3" font-family="Times,serif" font-size="14.00">QuantityDict</text>
</g>
<!-- Output&#45;&gt;QuantityDict -->
<g id="edge34" class="edge">
<title>Output&#45;&gt;QuantityDict</title>
<path fill="none" stroke="black" d="M2805.35,-144.05C2802.42,-136.18 2798.87,-126.62 2795.6,-117.79"/>
<polygon fill="black" stroke="black" points="2798.82,-116.43 2792.06,-108.28 2792.26,-118.87 2798.82,-116.43"/>
</g>
<!-- QuantityDictMaybeRealIntervalExprExpr -->
<g id="node26" class="node">
<title>QuantityDictMaybeRealIntervalExprExpr</title>
<ellipse fill="none" stroke="black" cx="2525.64" cy="-18" rx="203.36" ry="18"/>
<text text-anchor="middle" x="2525.64" y="-14.3" font-family="Times,serif" font-size="14.00">QuantityDictMaybeRealIntervalExprExpr</text>
</g>
<!-- Input&#45;&gt;QuantityDictMaybeRealIntervalExprExpr -->
<g id="edge32" class="edge">
<title>Input&#45;&gt;QuantityDictMaybeRealIntervalExprExpr</title>
<path fill="none" stroke="black" d="M2525.64,-71.7C2525.64,-63.98 2525.64,-54.71 2525.64,-46.11"/>
<polygon fill="black" stroke="black" points="2529.14,-46.1 2525.64,-36.1 2522.14,-46.1 2529.14,-46.1"/>
</g>
<!-- OutputConstraints -->
<g id="node28" class="node">
<title>OutputConstraints</title>
<ellipse fill="none" stroke="#ee0000" cx="3109.64" cy="-306" rx="97.48" ry="18"/>
<text text-anchor="middle" x="3109.64" y="-302.3" font-family="Times,serif" font-size="14.00">OutputConstraints</text>
</g>
<!-- RealIntervalExprExpr -->
<g id="node29" class="node">
<title>RealIntervalExprExpr</title>
<ellipse fill="none" stroke="black" cx="3109.64" cy="-234" rx="112.38" ry="18"/>
<text text-anchor="middle" x="3109.64" y="-230.3" font-family="Times,serif" font-size="14.00">RealIntervalExprExpr</text>
</g>
<!-- OutputConstraints&#45;&gt;RealIntervalExprExpr -->
<g id="edge35" class="edge">
<title>OutputConstraints&#45;&gt;RealIntervalExprExpr</title>
<path fill="none" stroke="black" d="M3109.64,-287.7C3109.64,-279.98 3109.64,-270.71 3109.64,-262.11"/>
<polygon fill="black" stroke="black" points="3113.14,-262.1 3109.64,-252.1 3106.14,-262.1 3113.14,-262.1"/>
</g>
<!-- ModelKinde -->
<g id="node30" class="node">
<title>ModelKinde</title>
<ellipse fill="none" stroke="#00cdcd" cx="446.64" cy="-306" rx="66.09" ry="18"/>
<text text-anchor="middle" x="446.64" y="-302.3" font-family="Times,serif" font-size="14.00">ModelKinde</text>
</g>
<!-- ModelKinde&#45;&gt;UID -->
<g id="edge37" class="edge">
<title>ModelKinde&#45;&gt;UID</title>
<path fill="none" stroke="black" d="M459.83,-288.03C467.23,-277.96 476.23,-264.71 482.64,-252 505.58,-206.58 480.26,-174.95 520.64,-144 653.07,-42.52 1899.08,-22.37 2138.1,-19.43"/>
<polygon fill="black" stroke="black" points="2138.45,-22.93 2148.4,-19.31 2138.36,-15.93 2138.45,-22.93"/>
</g>
<!-- ModelKindse -->
<g id="node31" class="node">
<title>ModelKindse</title>
<ellipse fill="none" stroke="darkviolet" cx="330.64" cy="-234" rx="71.49" ry="18"/>
<text text-anchor="middle" x="330.64" y="-230.3" font-family="Times,serif" font-size="14.00">ModelKindse</text>
</g>
<!-- ModelKinde&#45;&gt;ModelKindse -->
<g id="edge36" class="edge">
<title>ModelKinde&#45;&gt;ModelKindse</title>
<path fill="none" stroke="black" d="M420.61,-289.29C404.46,-279.54 383.49,-266.89 365.86,-256.25"/>
<polygon fill="black" stroke="black" points="367.36,-253.07 356.99,-250.9 363.74,-259.06 367.36,-253.07"/>
</g>
<!-- NP -->
<g id="node32" class="node">
<title>NP</title>
<ellipse fill="none" stroke="black" cx="446.64" cy="-234" rx="27" ry="18"/>
<text text-anchor="middle" x="446.64" y="-230.3" font-family="Times,serif" font-size="14.00">NP</text>
</g>
<!-- ModelKinde&#45;&gt;NP -->
<g id="edge38" class="edge">
<title>ModelKinde&#45;&gt;NP</title>
<path fill="none" stroke="black" d="M446.64,-287.7C446.64,-279.98 446.64,-270.71 446.64,-262.11"/>
<polygon fill="black" stroke="black" points="450.14,-262.1 446.64,-252.1 443.14,-262.1 450.14,-262.1"/>
</g>
<!-- RelationConcept -->
<g id="node33" class="node">
<title>RelationConcept</title>
<ellipse fill="none" stroke="black" cx="236.64" cy="-162" rx="87.18" ry="18"/>
<text text-anchor="middle" x="236.64" y="-158.3" font-family="Times,serif" font-size="14.00">RelationConcept</text>
</g>
<!-- ModelKindse&#45;&gt;RelationConcept -->
<g id="edge39" class="edge">
<title>ModelKindse&#45;&gt;RelationConcept</title>
<path fill="none" stroke="black" d="M308.84,-216.76C296.45,-207.53 280.73,-195.83 267.13,-185.7"/>
<polygon fill="black" stroke="black" points="269.09,-182.8 258.98,-179.63 264.91,-188.41 269.09,-182.8"/>
</g>
<!-- ModelKinds -->
<g id="node34" class="node">
<title>ModelKinds</title>
<ellipse fill="none" stroke="black" cx="407.64" cy="-162" rx="65.79" ry="18"/>
<text text-anchor="middle" x="407.64" y="-158.3" font-family="Times,serif" font-size="14.00">ModelKinds</text>
</g>
<!-- ModelKindse&#45;&gt;ModelKinds -->
<g id="edge40" class="edge">
<title>ModelKindse&#45;&gt;ModelKinds</title>
<path fill="none" stroke="black" d="M348.89,-216.41C358.77,-207.43 371.13,-196.19 381.97,-186.34"/>
<polygon fill="black" stroke="black" points="384.48,-188.79 389.53,-179.47 379.77,-183.61 384.48,-188.79"/>
</g>
<!-- e -->
<g id="node35" class="node">
<title>e</title>
<ellipse fill="none" stroke="black" cx="1018.64" cy="-162" rx="27" ry="18"/>
<text text-anchor="middle" x="1018.64" y="-158.3" font-family="Times,serif" font-size="14.00">e</text>
</g>
<!-- ModelKindse&#45;&gt;e -->
<g id="edge41" class="edge">
<title>ModelKindse&#45;&gt;e</title>
<path fill="none" stroke="black" d="M380.8,-221.17C390.65,-219.18 400.94,-217.33 410.64,-216 663.01,-181.43 735.97,-243.52 982.64,-180 984.82,-179.44 987.02,-178.75 989.21,-177.97"/>
<polygon fill="black" stroke="black" points="990.68,-181.15 998.59,-174.1 988.01,-174.68 990.68,-181.15"/>
</g>
<!-- DefiningExpre -->
<g id="node36" class="node">
<title>DefiningExpre</title>
<ellipse fill="none" stroke="#00cdcd" cx="2425.64" cy="-234" rx="77.19" ry="18"/>
<text text-anchor="middle" x="2425.64" y="-230.3" font-family="Times,serif" font-size="14.00">DefiningExpre</text>
</g>
<!-- DefiningExpre&#45;&gt;Sentence -->
<g id="edge43" class="edge">
<title>DefiningExpre&#45;&gt;Sentence</title>
<path fill="none" stroke="black" d="M2422.68,-215.7C2421.36,-207.98 2419.77,-198.71 2418.29,-190.11"/>
<polygon fill="black" stroke="black" points="2421.72,-189.37 2416.58,-180.1 2414.82,-190.55 2421.72,-189.37"/>
</g>
<!-- DefiningExpre&#45;&gt;UID -->
<g id="edge42" class="edge">
<title>DefiningExpre&#45;&gt;UID</title>
<path fill="none" stroke="black" d="M2497.16,-226.84C2618.45,-216.05 2852.6,-193.59 2864.64,-180 2896.49,-144.08 2897.46,-107.03 2864.64,-72 2822.7,-27.23 2374.72,-41.81 2313.64,-36 2280.71,-32.87 2243.43,-28.12 2216.24,-24.44"/>
<polygon fill="black" stroke="black" points="2216.36,-20.93 2205.98,-23.04 2215.42,-27.86 2216.36,-20.93"/>
</g>
<!-- DefiningExpre&#45;&gt;e -->
<g id="edge44" class="edge">
<title>DefiningExpre&#45;&gt;e</title>
<path fill="none" stroke="black" d="M2371.56,-221C2360.71,-219 2349.35,-217.19 2338.64,-216 2054.94,-184.52 1332.27,-246.35 1054.64,-180 1052.46,-179.48 1050.25,-178.81 1048.06,-178.05"/>
<polygon fill="black" stroke="black" points="1049.25,-174.76 1038.67,-174.23 1046.61,-181.25 1049.25,-174.76"/>
</g>
<!-- MultiDefne -->
<g id="node37" class="node">
<title>MultiDefne</title>
<ellipse fill="none" stroke="#00cdcd" cx="2752.64" cy="-234" rx="63.09" ry="18"/>
<text text-anchor="middle" x="2752.64" y="-230.3" font-family="Times,serif" font-size="14.00">MultiDefne</text>
</g>
<!-- MultiDefne&#45;&gt;Sentence -->
<g id="edge47" class="edge">
<title>MultiDefne&#45;&gt;Sentence</title>
<path fill="none" stroke="black" d="M2700,-224.08C2644.29,-214.37 2553.9,-197.82 2476.64,-180 2472.3,-179 2467.81,-177.9 2463.32,-176.77"/>
<polygon fill="black" stroke="black" points="2464.08,-173.35 2453.53,-174.24 2462.33,-180.13 2464.08,-173.35"/>
</g>
<!-- MultiDefne&#45;&gt;UID -->
<g id="edge45" class="edge">
<title>MultiDefne&#45;&gt;UID</title>
<path fill="none" stroke="black" d="M2795.77,-220.7C2829.25,-210.23 2871.76,-194.61 2882.64,-180 2911.38,-141.43 2922.58,-107.06 2889.64,-72 2845.74,-25.26 2377.49,-41.98 2313.64,-36 2280.7,-32.91 2243.43,-28.17 2216.24,-24.47"/>
<polygon fill="black" stroke="black" points="2216.36,-20.96 2205.98,-23.06 2215.41,-27.89 2216.36,-20.96"/>
</g>
<!-- MultiDefne&#45;&gt;QuantityDict -->
<g id="edge46" class="edge">
<title>MultiDefne&#45;&gt;QuantityDict</title>
<path fill="none" stroke="black" d="M2801.91,-222.58C2825.15,-214.93 2850.78,-201.9 2864.64,-180 2873.2,-166.48 2872.17,-158.12 2864.64,-144 2857.12,-129.89 2843.99,-118.88 2830.57,-110.63"/>
<polygon fill="black" stroke="black" points="2832.19,-107.52 2821.77,-105.61 2828.72,-113.6 2832.19,-107.52"/>
</g>
<!-- NonEmptyDefiningExpre -->
<g id="node38" class="node">
<title>NonEmptyDefiningExpre</title>
<ellipse fill="none" stroke="black" cx="3114.64" cy="-162" rx="127.28" ry="18"/>
<text text-anchor="middle" x="3114.64" y="-158.3" font-family="Times,serif" font-size="14.00">NonEmptyDefiningExpre</text>
</g>
<!-- MultiDefne&#45;&gt;NonEmptyDefiningExpre -->
<g id="edge48" class="edge">
<title>MultiDefne&#45;&gt;NonEmptyDefiningExpre</title>
<path fill="none" stroke="black" d="M2799.04,-221.68C2807.54,-219.71 2816.35,-217.74 2824.64,-216 2891.99,-201.91 2968.57,-188 3026.12,-177.97"/>
<polygon fill="black" stroke="black" points="3027.02,-181.37 3036.27,-176.21 3025.82,-174.47 3027.02,-181.37"/>
</g>
<!-- TheoryModel -->
<g id="node39" class="node">
<title>TheoryModel</title>
<ellipse fill="none" stroke="#00cdcd" cx="1281.64" cy="-234" rx="71.49" ry="18"/>
<text text-anchor="middle" x="1281.64" y="-230.3" font-family="Times,serif" font-size="14.00">TheoryModel</text>
</g>
<!-- TheoryModel&#45;&gt;ConceptChunk -->
<g id="edge53" class="edge">
<title>TheoryModel&#45;&gt;ConceptChunk</title>
<path fill="none" stroke="black" d="M1212.94,-229.02C1103.36,-222.17 882.43,-206.29 696.64,-180 689.55,-179 682.16,-177.8 674.8,-176.52"/>
<polygon fill="black" stroke="black" points="675.3,-173.05 664.84,-174.73 674.06,-179.94 675.3,-173.05"/>
</g>
<!-- TheoryModel&#45;&gt;DecRef -->
<g id="edge56" class="edge">
<title>TheoryModel&#45;&gt;DecRef</title>
<path fill="none" stroke="black" d="M1347.8,-227.08C1423.73,-219.51 1551.7,-204.38 1659.64,-180 1663.47,-179.14 1667.42,-178.13 1671.35,-177.04"/>
<polygon fill="black" stroke="black" points="1672.42,-180.38 1681.04,-174.22 1670.46,-173.66 1672.42,-180.38"/>
</g>
<!-- TheoryModel&#45;&gt;ShortName -->
<g id="edge57" class="edge">
<title>TheoryModel&#45;&gt;ShortName</title>
<path fill="none" stroke="black" d="M1349.48,-228.17C1443.58,-220.88 1618.85,-205.19 1766.64,-180 1772.31,-179.03 1778.2,-177.89 1784.07,-176.67"/>
<polygon fill="black" stroke="black" points="1784.83,-180.09 1793.86,-174.55 1783.35,-173.24 1784.83,-180.09"/>
</g>
<!-- TheoryModel&#45;&gt;String -->
<g id="edge58" class="edge">
<title>TheoryModel&#45;&gt;String</title>
<path fill="none" stroke="black" d="M1352.99,-232.78C1470.8,-231.14 1712.88,-222.34 1912.64,-180 1916.01,-179.29 1919.45,-178.41 1922.89,-177.43"/>
<polygon fill="black" stroke="black" points="1923.93,-180.77 1932.44,-174.46 1921.86,-174.09 1923.93,-180.77"/>
</g>
<!-- TheoryModel&#45;&gt;Sentence -->
<g id="edge59" class="edge">
<title>TheoryModel&#45;&gt;Sentence</title>
<path fill="none" stroke="black" d="M1351.76,-230.4C1573.8,-222.03 2252.62,-195.47 2350.64,-180 2355.43,-179.24 2360.37,-178.27 2365.29,-177.16"/>
<polygon fill="black" stroke="black" points="2366.38,-180.5 2375.28,-174.75 2364.74,-173.7 2366.38,-180.5"/>
</g>
<!-- TheoryModel&#45;&gt;ModelQDef -->
<g id="edge54" class="edge">
<title>TheoryModel&#45;&gt;ModelQDef</title>
<path fill="none" stroke="black" d="M1215.18,-227.36C1128.56,-219.47 972.57,-203.42 840.64,-180 835.27,-179.05 829.7,-177.94 824.14,-176.76"/>
<polygon fill="black" stroke="black" points="824.71,-173.3 814.19,-174.57 823.2,-180.14 824.71,-173.3"/>
</g>
<!-- TheoryModel&#45;&gt;ModelKindModelExpr -->
<g id="edge49" class="edge">
<title>TheoryModel&#45;&gt;ModelKindModelExpr</title>
<path fill="none" stroke="black" d="M1298.23,-216.41C1307,-207.65 1317.91,-196.73 1327.59,-187.06"/>
<polygon fill="black" stroke="black" points="1330.09,-189.5 1334.69,-179.96 1325.14,-184.55 1330.09,-189.5"/>
</g>
<!-- TheoryModel&#45;&gt;QuantityDict -->
<g id="edge52" class="edge">
<title>TheoryModel&#45;&gt;QuantityDict</title>
<path fill="none" stroke="black" d="M1260.7,-216.62C1238.6,-197.44 1209.65,-165.57 1230.64,-144 1256.62,-117.32 2533.46,-109.97 2570.64,-108 2617.28,-105.53 2669.5,-101.43 2710.8,-97.88"/>
<polygon fill="black" stroke="black" points="2711.12,-101.36 2720.78,-97.01 2710.52,-94.39 2711.12,-101.36"/>
</g>
<!-- TheoryModel&#45;&gt;TheoryModel -->
<g id="edge50" class="edge">
<title>TheoryModel&#45;&gt;TheoryModel</title>
<path fill="none" stroke="black" d="M1330.43,-247.29C1352.26,-248.55 1371.14,-244.12 1371.14,-234 1371.14,-225.54 1357.95,-221.05 1340.87,-220.55"/>
<polygon fill="black" stroke="black" points="1340.38,-217.06 1330.43,-220.71 1340.49,-224.05 1340.38,-217.06"/>
</g>
<!-- SpaceDefn -->
<g id="node40" class="node">
<title>SpaceDefn</title>
<ellipse fill="none" stroke="black" cx="1123.64" cy="-162" rx="60.39" ry="18"/>
<text text-anchor="middle" x="1123.64" y="-158.3" font-family="Times,serif" font-size="14.00">SpaceDefn</text>
</g>
<!-- TheoryModel&#45;&gt;SpaceDefn -->
<g id="edge51" class="edge">
<title>TheoryModel&#45;&gt;SpaceDefn</title>
<path fill="none" stroke="black" d="M1247.75,-217.98C1223.52,-207.25 1190.78,-192.75 1165.01,-181.33"/>
<polygon fill="black" stroke="black" points="1166.43,-178.13 1155.86,-177.27 1163.59,-184.53 1166.43,-178.13"/>
</g>
<!-- ModelExpr -->
<g id="node41" class="node">
<title>ModelExpr</title>
<ellipse fill="none" stroke="black" cx="911.64" cy="-162" rx="61.99" ry="18"/>
<text text-anchor="middle" x="911.64" y="-158.3" font-family="Times,serif" font-size="14.00">ModelExpr</text>
</g>
<!-- TheoryModel&#45;&gt;ModelExpr -->
<g id="edge55" class="edge">
<title>TheoryModel&#45;&gt;ModelExpr</title>
<path fill="none" stroke="black" d="M1223.01,-223.67C1162.58,-213.8 1065.74,-197.3 982.64,-180 977.58,-178.95 972.32,-177.79 967.06,-176.61"/>
<polygon fill="black" stroke="black" points="967.54,-173.12 957.01,-174.29 965.96,-179.94 967.54,-173.12"/>
</g>
</g>
</svg>
