<?xml version="1.0" encoding="UTF-8" standalone="no"?>
<!DOCTYPE svg PUBLIC "-//W3C//DTD SVG 1.1//EN"
 "http://www.w3.org/Graphics/SVG/1.1/DTD/svg11.dtd">
<!-- Generated by graphviz version 2.43.0 (0)
 -->
<!-- Title: alltypes Pages: 1 -->
<svg width="3996pt" height="332pt"
 viewBox="0.00 0.00 3996.14 332.00" xmlns="http://www.w3.org/2000/svg" xmlns:xlink="http://www.w3.org/1999/xlink">
<g id="graph0" class="graph" transform="scale(1 1) rotate(0) translate(4 328)">
<title>alltypes</title>
<polygon fill="white" stroke="transparent" points="-4,4 -4,-328 3992.14,-328 3992.14,4 -4,4"/>
<!-- TermAbbr -->
<g id="node1" class="node">
<title>TermAbbr</title>
<ellipse fill="none" stroke="#00cdcd" cx="2054.09" cy="-306" rx="57.39" ry="18"/>
<text text-anchor="middle" x="2054.09" y="-302.3" font-family="Times,serif" font-size="14.00">TermAbbr</text>
</g>
<!-- NP -->
<g id="node2" class="node">
<title>NP</title>
<ellipse fill="none" stroke="black" cx="1802.09" cy="-234" rx="27" ry="18"/>
<text text-anchor="middle" x="1802.09" y="-230.3" font-family="Times,serif" font-size="14.00">NP</text>
</g>
<!-- TermAbbr&#45;&gt;NP -->
<g id="edge1" class="edge">
<title>TermAbbr&#45;&gt;NP</title>
<path fill="none" stroke="black" d="M2012.76,-293.52C1963.56,-279.85 1882.31,-257.28 1836.42,-244.53"/>
<polygon fill="black" stroke="black" points="1837.21,-241.12 1826.64,-241.82 1835.34,-247.87 1837.21,-241.12"/>
</g>
<!-- MaybeString -->
<g id="node3" class="node">
<title>MaybeString</title>
<ellipse fill="none" stroke="black" cx="2327.09" cy="-234" rx="71.49" ry="18"/>
<text text-anchor="middle" x="2327.09" y="-230.3" font-family="Times,serif" font-size="14.00">MaybeString</text>
</g>
<!-- TermAbbr&#45;&gt;MaybeString -->
<g id="edge2" class="edge">
<title>TermAbbr&#45;&gt;MaybeString</title>
<path fill="none" stroke="black" d="M2097.05,-293.99C2143.36,-282.11 2217.36,-263.14 2268.88,-249.93"/>
<polygon fill="black" stroke="black" points="2270.05,-253.24 2278.87,-247.36 2268.31,-246.46 2270.05,-253.24"/>
</g>
<!-- DomDefn -->
<g id="node4" class="node">
<title>DomDefn</title>
<ellipse fill="none" stroke="#00cdcd" cx="1597.09" cy="-234" rx="53.89" ry="18"/>
<text text-anchor="middle" x="1597.09" y="-230.3" font-family="Times,serif" font-size="14.00">DomDefn</text>
</g>
<!-- UID -->
<g id="node5" class="node">
<title>UID</title>
<ellipse fill="none" stroke="black" cx="1179.09" cy="-162" rx="29.5" ry="18"/>
<text text-anchor="middle" x="1179.09" y="-158.3" font-family="Times,serif" font-size="14.00">UID</text>
</g>
<!-- DomDefn&#45;&gt;UID -->
<g id="edge3" class="edge">
<title>DomDefn&#45;&gt;UID</title>
<path fill="none" stroke="black" d="M1544.18,-230.33C1469.86,-225.53 1330.89,-212.68 1217.09,-180 1214.95,-179.38 1212.77,-178.67 1210.59,-177.89"/>
<polygon fill="black" stroke="black" points="1211.79,-174.6 1201.2,-174.15 1209.2,-181.1 1211.79,-174.6"/>
</g>
<!-- Sentence -->
<g id="node6" class="node">
<title>Sentence</title>
<ellipse fill="none" stroke="black" cx="2204.09" cy="-162" rx="53.89" ry="18"/>
<text text-anchor="middle" x="2204.09" y="-158.3" font-family="Times,serif" font-size="14.00">Sentence</text>
</g>
<!-- DomDefn&#45;&gt;Sentence -->
<g id="edge4" class="edge">
<title>DomDefn&#45;&gt;Sentence</title>
<path fill="none" stroke="black" d="M1647.91,-227.86C1767.25,-215.76 2058.73,-186.05 2103.09,-180 2117.69,-178.01 2133.43,-175.52 2148.03,-173.08"/>
<polygon fill="black" stroke="black" points="2148.65,-176.52 2157.93,-171.39 2147.48,-169.62 2148.65,-176.52"/>
</g>
<!-- Derivation -->
<g id="node7" class="node">
<title>Derivation</title>
<ellipse fill="none" stroke="darkviolet" cx="2178.09" cy="-234" rx="59.59" ry="18"/>
<text text-anchor="middle" x="2178.09" y="-230.3" font-family="Times,serif" font-size="14.00">Derivation</text>
</g>
<!-- Derivation&#45;&gt;Sentence -->
<g id="edge5" class="edge">
<title>Derivation&#45;&gt;Sentence</title>
<path fill="none" stroke="black" d="M2184.39,-216.05C2187.31,-208.18 2190.86,-198.62 2194.14,-189.79"/>
<polygon fill="black" stroke="black" points="2197.47,-190.87 2197.68,-180.28 2190.91,-188.43 2197.47,-190.87"/>
</g>
<!-- ConstraintSete -->
<g id="node8" class="node">
<title>ConstraintSete</title>
<ellipse fill="none" stroke="#00cdcd" cx="2013.09" cy="-162" rx="81.49" ry="18"/>
<text text-anchor="middle" x="2013.09" y="-158.3" font-family="Times,serif" font-size="14.00">ConstraintSete</text>
</g>
<!-- ConceptChunk -->
<g id="node9" class="node">
<title>ConceptChunk</title>
<ellipse fill="none" stroke="black" cx="2125.09" cy="-90" rx="78.79" ry="18"/>
<text text-anchor="middle" x="2125.09" y="-86.3" font-family="Times,serif" font-size="14.00">ConceptChunk</text>
</g>
<!-- ConstraintSete&#45;&gt;ConceptChunk -->
<g id="edge6" class="edge">
<title>ConstraintSete&#45;&gt;ConceptChunk</title>
<path fill="none" stroke="black" d="M2039.07,-144.76C2054.34,-135.22 2073.83,-123.04 2090.4,-112.68"/>
<polygon fill="black" stroke="black" points="2092.63,-115.42 2099.26,-107.15 2088.92,-109.48 2092.63,-115.42"/>
</g>
<!-- NonEmptye -->
<g id="node10" class="node">
<title>NonEmptye</title>
<ellipse fill="none" stroke="black" cx="1963.09" cy="-90" rx="65.79" ry="18"/>
<text text-anchor="middle" x="1963.09" y="-86.3" font-family="Times,serif" font-size="14.00">NonEmptye</text>
</g>
<!-- ConstraintSete&#45;&gt;NonEmptye -->
<g id="edge7" class="edge">
<title>ConstraintSete&#45;&gt;NonEmptye</title>
<path fill="none" stroke="black" d="M2000.99,-144.05C1994.97,-135.63 1987.58,-125.28 1980.93,-115.97"/>
<polygon fill="black" stroke="black" points="1983.74,-113.89 1975.08,-107.79 1978.05,-117.96 1983.74,-113.89"/>
</g>
<!-- DDPkt -->
<g id="node11" class="node">
<title>DDPkt</title>
<ellipse fill="none" stroke="#00cdcd" cx="2928.09" cy="-234" rx="40.89" ry="18"/>
<text text-anchor="middle" x="2928.09" y="-230.3" font-family="Times,serif" font-size="14.00">DDPkt</text>
</g>
<!-- DDPkt&#45;&gt;UID -->
<g id="edge8" class="edge">
<title>DDPkt&#45;&gt;UID</title>
<path fill="none" stroke="black" d="M2898.61,-221.31C2891.96,-219.15 2884.86,-217.2 2878.09,-216 2514.51,-151.83 1577.3,-260.99 1217.09,-180 1214.77,-179.48 1212.42,-178.81 1210.08,-178.04"/>
<polygon fill="black" stroke="black" points="1211.27,-174.75 1200.68,-174.43 1208.76,-181.28 1211.27,-174.75"/>
</g>
<!-- DDPkt&#45;&gt;Sentence -->
<g id="edge13" class="edge">
<title>DDPkt&#45;&gt;Sentence</title>
<path fill="none" stroke="black" d="M2898.57,-221.5C2891.93,-219.33 2884.84,-217.32 2878.09,-216 2611.13,-163.75 2535.59,-223.66 2267.09,-180 2262.31,-179.22 2257.37,-178.23 2252.46,-177.12"/>
<polygon fill="black" stroke="black" points="2253.01,-173.65 2242.47,-174.69 2251.36,-180.45 2253.01,-173.65"/>
</g>
<!-- DecRef -->
<g id="node12" class="node">
<title>DecRef</title>
<ellipse fill="none" stroke="black" cx="3152.09" cy="-162" rx="44.39" ry="18"/>
<text text-anchor="middle" x="3152.09" y="-158.3" font-family="Times,serif" font-size="14.00">DecRef</text>
</g>
<!-- DDPkt&#45;&gt;DecRef -->
<g id="edge9" class="edge">
<title>DDPkt&#45;&gt;DecRef</title>
<path fill="none" stroke="black" d="M2959.24,-222.2C2965.47,-220.1 2971.98,-217.95 2978.09,-216 3031.55,-198.97 3045.49,-196.57 3099.09,-180 3102.23,-179.03 3105.47,-178.02 3108.73,-176.99"/>
<polygon fill="black" stroke="black" points="3110.01,-180.26 3118.48,-173.9 3107.89,-173.59 3110.01,-180.26"/>
</g>
<!-- MaybeDerivation -->
<g id="node13" class="node">
<title>MaybeDerivation</title>
<ellipse fill="none" stroke="black" cx="2755.09" cy="-162" rx="90.98" ry="18"/>
<text text-anchor="middle" x="2755.09" y="-158.3" font-family="Times,serif" font-size="14.00">MaybeDerivation</text>
</g>
<!-- DDPkt&#45;&gt;MaybeDerivation -->
<g id="edge10" class="edge">
<title>DDPkt&#45;&gt;MaybeDerivation</title>
<path fill="none" stroke="black" d="M2898.75,-221.13C2872.47,-210.5 2833.47,-194.72 2802.74,-182.28"/>
<polygon fill="black" stroke="black" points="2803.66,-178.87 2793.07,-178.37 2801.03,-185.36 2803.66,-178.87"/>
</g>
<!-- ShortName -->
<g id="node14" class="node">
<title>ShortName</title>
<ellipse fill="none" stroke="black" cx="2928.09" cy="-162" rx="63.89" ry="18"/>
<text text-anchor="middle" x="2928.09" y="-158.3" font-family="Times,serif" font-size="14.00">ShortName</text>
</g>
<!-- DDPkt&#45;&gt;ShortName -->
<g id="edge11" class="edge">
<title>DDPkt&#45;&gt;ShortName</title>
<path fill="none" stroke="black" d="M2928.09,-215.7C2928.09,-207.98 2928.09,-198.71 2928.09,-190.11"/>
<polygon fill="black" stroke="black" points="2931.59,-190.1 2928.09,-180.1 2924.59,-190.1 2931.59,-190.1"/>
</g>
<!-- String -->
<g id="node15" class="node">
<title>String</title>
<ellipse fill="none" stroke="black" cx="3050.09" cy="-162" rx="40.09" ry="18"/>
<text text-anchor="middle" x="3050.09" y="-158.3" font-family="Times,serif" font-size="14.00">String</text>
</g>
<!-- DDPkt&#45;&gt;String -->
<g id="edge12" class="edge">
<title>DDPkt&#45;&gt;String</title>
<path fill="none" stroke="black" d="M2951.9,-219.34C2970.63,-208.59 2996.92,-193.51 3017.58,-181.66"/>
<polygon fill="black" stroke="black" points="3019.41,-184.64 3026.34,-176.63 3015.92,-178.57 3019.41,-184.64"/>
</g>
<!-- DataDefinition -->
<g id="node16" class="node">
<title>DataDefinition</title>
<ellipse fill="none" stroke="darkviolet" cx="3014.09" cy="-306" rx="77.99" ry="18"/>
<text text-anchor="middle" x="3014.09" y="-302.3" font-family="Times,serif" font-size="14.00">DataDefinition</text>
</g>
<!-- DataDefinition&#45;&gt;DDPkt -->
<g id="edge15" class="edge">
<title>DataDefinition&#45;&gt;DDPkt</title>
<path fill="none" stroke="black" d="M2993.71,-288.41C2982.06,-278.93 2967.31,-266.92 2954.74,-256.69"/>
<polygon fill="black" stroke="black" points="2956.82,-253.87 2946.86,-250.27 2952.4,-259.3 2956.82,-253.87"/>
</g>
<!-- DataDefinition&#45;&gt;DataDefinition -->
<g id="edge16" class="edge">
<title>DataDefinition&#45;&gt;DataDefinition</title>
<path fill="none" stroke="black" d="M3066.91,-319.31C3090.12,-320.49 3110.09,-316.05 3110.09,-306 3110.09,-297.44 3095.61,-292.95 3076.98,-292.53"/>
<polygon fill="black" stroke="black" points="3076.86,-289.03 3066.91,-292.69 3076.96,-296.03 3076.86,-289.03"/>
</g>
<!-- SimpleQDef -->
<g id="node17" class="node">
<title>SimpleQDef</title>
<ellipse fill="none" stroke="black" cx="3593.09" cy="-234" rx="66.09" ry="18"/>
<text text-anchor="middle" x="3593.09" y="-230.3" font-family="Times,serif" font-size="14.00">SimpleQDef</text>
</g>
<!-- DataDefinition&#45;&gt;SimpleQDef -->
<g id="edge14" class="edge">
<title>DataDefinition&#45;&gt;SimpleQDef</title>
<path fill="none" stroke="black" d="M3087.13,-299.63C3184.63,-291.91 3362.52,-275.93 3513.09,-252 3519.88,-250.92 3526.95,-249.64 3533.97,-248.28"/>
<polygon fill="black" stroke="black" points="3535.05,-251.63 3544.16,-246.24 3533.67,-244.77 3535.05,-251.63"/>
</g>
<!-- ModelQDef -->
<g id="node18" class="node">
<title>ModelQDef</title>
<ellipse fill="none" stroke="black" cx="3925.09" cy="-162" rx="63.09" ry="18"/>
<text text-anchor="middle" x="3925.09" y="-158.3" font-family="Times,serif" font-size="14.00">ModelQDef</text>
</g>
<!-- DataDefinition&#45;&gt;ModelQDef -->
<g id="edge17" class="edge">
<title>DataDefinition&#45;&gt;ModelQDef</title>
<path fill="none" stroke="black" d="M3090.62,-302.16C3204.59,-296.95 3412.74,-283.37 3480.09,-252 3501.18,-242.18 3496.97,-225.76 3518.09,-216 3654.04,-153.21 3705.49,-205.25 3853.09,-180 3858.55,-179.07 3864.22,-177.96 3869.86,-176.78"/>
<polygon fill="black" stroke="black" points="3870.93,-180.13 3879.95,-174.57 3869.43,-173.29 3870.93,-180.13"/>
</g>
<!-- Lens_ -->
<g id="node19" class="node">
<title>Lens_</title>
<ellipse fill="none" stroke="black" cx="2832.09" cy="-234" rx="37.09" ry="18"/>
<text text-anchor="middle" x="2832.09" y="-230.3" font-family="Times,serif" font-size="14.00">Lens_</text>
</g>
<!-- DataDefinition&#45;&gt;Lens_ -->
<g id="edge18" class="edge">
<title>DataDefinition&#45;&gt;Lens_</title>
<path fill="none" stroke="black" d="M2975.49,-290.15C2944.33,-278.17 2900.73,-261.4 2869.8,-249.5"/>
<polygon fill="black" stroke="black" points="2870.83,-246.15 2860.24,-245.82 2868.31,-252.68 2870.83,-246.15"/>
</g>
<!-- a -->
<g id="node20" class="node">
<title>a</title>
<ellipse fill="none" stroke="black" cx="3014.09" cy="-234" rx="27" ry="18"/>
<text text-anchor="middle" x="3014.09" y="-230.3" font-family="Times,serif" font-size="14.00">a</text>
</g>
<!-- DataDefinition&#45;&gt;a -->
<g id="edge19" class="edge">
<title>DataDefinition&#45;&gt;a</title>
<path fill="none" stroke="black" d="M3014.09,-287.7C3014.09,-279.98 3014.09,-270.71 3014.09,-262.11"/>
<polygon fill="black" stroke="black" points="3017.59,-262.1 3014.09,-252.1 3010.59,-262.1 3017.59,-262.1"/>
</g>
<!-- Term -->
<g id="node21" class="node">
<title>Term</title>
<ellipse fill="none" stroke="#00cdcd" cx="1026.09" cy="-162" rx="34.39" ry="18"/>
<text text-anchor="middle" x="1026.09" y="-158.3" font-family="Times,serif" font-size="14.00">Term</text>
</g>
<!-- Expr -->
<g id="node22" class="node">
<title>Expr</title>
<ellipse fill="none" stroke="black" cx="1231.09" cy="-90" rx="33.29" ry="18"/>
<text text-anchor="middle" x="1231.09" y="-86.3" font-family="Times,serif" font-size="14.00">Expr</text>
</g>
<!-- Term&#45;&gt;Expr -->
<g id="edge20" class="edge">
<title>Term&#45;&gt;Expr</title>
<path fill="none" stroke="black" d="M1052.38,-150.32C1057.88,-148.17 1063.66,-145.96 1069.09,-144 1111.22,-128.8 1160.16,-113.05 1193.13,-102.71"/>
<polygon fill="black" stroke="black" points="1194.32,-106 1202.82,-99.68 1192.23,-99.32 1194.32,-106"/>
</g>
<!-- Unknown -->
<g id="node23" class="node">
<title>Unknown</title>
<ellipse fill="none" stroke="#ee0000" cx="1026.09" cy="-90" rx="54.69" ry="18"/>
<text text-anchor="middle" x="1026.09" y="-86.3" font-family="Times,serif" font-size="14.00">Unknown</text>
</g>
<!-- Term&#45;&gt;Unknown -->
<g id="edge21" class="edge">
<title>Term&#45;&gt;Unknown</title>
<path fill="none" stroke="black" d="M1026.09,-143.7C1026.09,-135.98 1026.09,-126.71 1026.09,-118.11"/>
<polygon fill="black" stroke="black" points="1029.59,-118.1 1026.09,-108.1 1022.59,-118.1 1029.59,-118.1"/>
</g>
<!-- Integer -->
<g id="node29" class="node">
<title>Integer</title>
<ellipse fill="none" stroke="black" cx="1224.09" cy="-18" rx="44.69" ry="18"/>
<text text-anchor="middle" x="1224.09" y="-14.3" font-family="Times,serif" font-size="14.00">Integer</text>
</g>
<!-- Unknown&#45;&gt;Integer -->
<g id="edge30" class="edge">
<title>Unknown&#45;&gt;Integer</title>
<path fill="none" stroke="black" d="M1061.95,-76.32C1095.67,-64.4 1146.15,-46.55 1181.82,-33.95"/>
<polygon fill="black" stroke="black" points="1183.2,-37.17 1191.46,-30.54 1180.86,-30.57 1183.2,-37.17"/>
</g>
<!-- DifferentialModel -->
<g id="node24" class="node">
<title>DifferentialModel</title>
<ellipse fill="none" stroke="#00cdcd" cx="732.09" cy="-162" rx="92.08" ry="18"/>
<text text-anchor="middle" x="732.09" y="-158.3" font-family="Times,serif" font-size="14.00">DifferentialModel</text>
</g>
<!-- DifferentialModel&#45;&gt;ConceptChunk -->
<g id="edge26" class="edge">
<title>DifferentialModel&#45;&gt;ConceptChunk</title>
<path fill="none" stroke="black" d="M795.76,-148.92C808.1,-146.97 820.97,-145.2 833.09,-144 1366.3,-91.41 1505.62,-167.57 2038.09,-108 2045.43,-107.18 2053.07,-106.07 2060.65,-104.81"/>
<polygon fill="black" stroke="black" points="2061.29,-108.25 2070.54,-103.07 2060.08,-101.35 2061.29,-108.25"/>
</g>
<!-- DifferentialModel&#45;&gt;Expr -->
<g id="edge24" class="edge">
<title>DifferentialModel&#45;&gt;Expr</title>
<path fill="none" stroke="black" d="M798.59,-149.47C810.09,-147.58 821.93,-145.68 833.09,-144 962.52,-124.5 1116.2,-105.09 1188.92,-96.13"/>
<polygon fill="black" stroke="black" points="1189.56,-99.58 1199.05,-94.89 1188.7,-92.63 1189.56,-99.58"/>
</g>
<!-- DifferentialModel&#45;&gt;Unknown -->
<g id="edge25" class="edge">
<title>DifferentialModel&#45;&gt;Unknown</title>
<path fill="none" stroke="black" d="M788.08,-147.67C841.46,-134.96 921.22,-115.97 973.45,-103.53"/>
<polygon fill="black" stroke="black" points="974.27,-106.94 983.19,-101.21 972.65,-100.13 974.27,-106.94"/>
</g>
<!-- UnitalChunk -->
<g id="node25" class="node">
<title>UnitalChunk</title>
<ellipse fill="none" stroke="black" cx="808.09" cy="-90" rx="69.59" ry="18"/>
<text text-anchor="middle" x="808.09" y="-86.3" font-family="Times,serif" font-size="14.00">UnitalChunk</text>
</g>
<!-- DifferentialModel&#45;&gt;UnitalChunk -->
<g id="edge22" class="edge">
<title>DifferentialModel&#45;&gt;UnitalChunk</title>
<path fill="none" stroke="black" d="M750.49,-144.05C760.18,-135.13 772.2,-124.06 782.76,-114.34"/>
<polygon fill="black" stroke="black" points="785.14,-116.9 790.13,-107.55 780.4,-111.75 785.14,-116.9"/>
</g>
<!-- ConstrConcept -->
<g id="node26" class="node">
<title>ConstrConcept</title>
<ellipse fill="none" stroke="black" cx="641.09" cy="-90" rx="79.89" ry="18"/>
<text text-anchor="middle" x="641.09" y="-86.3" font-family="Times,serif" font-size="14.00">ConstrConcept</text>
</g>
<!-- DifferentialModel&#45;&gt;ConstrConcept -->
<g id="edge23" class="edge">
<title>DifferentialModel&#45;&gt;ConstrConcept</title>
<path fill="none" stroke="black" d="M710.53,-144.41C698.63,-135.26 683.67,-123.76 670.7,-113.77"/>
<polygon fill="black" stroke="black" points="672.56,-110.79 662.5,-107.47 668.3,-116.34 672.56,-110.79"/>
</g>
<!-- InitialValueProblem -->
<g id="node27" class="node">
<title>InitialValueProblem</title>
<ellipse fill="none" stroke="#00cdcd" cx="1329.09" cy="-162" rx="102.88" ry="18"/>
<text text-anchor="middle" x="1329.09" y="-158.3" font-family="Times,serif" font-size="14.00">InitialValueProblem</text>
</g>
<!-- InitialValueProblem&#45;&gt;Expr -->
<g id="edge27" class="edge">
<title>InitialValueProblem&#45;&gt;Expr</title>
<path fill="none" stroke="black" d="M1305.87,-144.41C1291.77,-134.34 1273.69,-121.42 1258.84,-110.82"/>
<polygon fill="black" stroke="black" points="1260.69,-107.84 1250.52,-104.88 1256.62,-113.54 1260.69,-107.84"/>
</g>
<!-- ODESolverFormat -->
<g id="node28" class="node">
<title>ODESolverFormat</title>
<ellipse fill="none" stroke="#00cdcd" cx="1818.09" cy="-162" rx="95.58" ry="18"/>
<text text-anchor="middle" x="1818.09" y="-158.3" font-family="Times,serif" font-size="14.00">ODESolverFormat</text>
</g>
<!-- ODESolverFormat&#45;&gt;Expr -->
<g id="edge28" class="edge">
<title>ODESolverFormat&#45;&gt;Expr</title>
<path fill="none" stroke="black" d="M1749.54,-149.39C1737.42,-147.48 1724.89,-145.6 1713.09,-144 1551.3,-122.02 1357.99,-102.92 1273.8,-94.96"/>
<polygon fill="black" stroke="black" points="1273.89,-91.45 1263.6,-94 1273.23,-98.42 1273.89,-91.45"/>
</g>
<!-- ODESolverFormat&#45;&gt;Integer -->
<g id="edge29" class="edge">
<title>ODESolverFormat&#45;&gt;Integer</title>
<path fill="none" stroke="black" d="M1761.41,-147.45C1644.82,-119.58 1380.04,-56.28 1271.67,-30.37"/>
<polygon fill="black" stroke="black" points="1272.22,-26.91 1261.68,-27.99 1270.6,-33.72 1272.22,-26.91"/>
</g>
<!-- LHS -->
<g id="node30" class="node">
<title>LHS</title>
<ellipse fill="none" stroke="#ee0000" cx="1026.09" cy="-234" rx="30.59" ry="18"/>
<text text-anchor="middle" x="1026.09" y="-230.3" font-family="Times,serif" font-size="14.00">LHS</text>
</g>
<!-- LHS&#45;&gt;Term -->
<g id="edge31" class="edge">
<title>LHS&#45;&gt;Term</title>
<path fill="none" stroke="black" d="M1026.09,-215.7C1026.09,-207.98 1026.09,-198.71 1026.09,-190.11"/>
<polygon fill="black" stroke="black" points="1029.59,-190.1 1026.09,-180.1 1022.59,-190.1 1029.59,-190.1"/>
</g>
<!-- GenDefn -->
<g id="node31" class="node">
<title>GenDefn</title>
<ellipse fill="none" stroke="#00cdcd" cx="3110.09" cy="-234" rx="51.19" ry="18"/>
<text text-anchor="middle" x="3110.09" y="-230.3" font-family="Times,serif" font-size="14.00">GenDefn</text>
</g>
<!-- GenDefn&#45;&gt;Sentence -->
<g id="edge38" class="edge">
<title>GenDefn&#45;&gt;Sentence</title>
<path fill="none" stroke="black" d="M3073.59,-221.21C3065.9,-219.14 3057.79,-217.25 3050.09,-216 2706.23,-160.15 2611.3,-233.7 2267.09,-180 2262.31,-179.25 2257.36,-178.28 2252.45,-177.18"/>
<polygon fill="black" stroke="black" points="2253,-173.71 2242.46,-174.77 2251.36,-180.52 2253,-173.71"/>
</g>
<!-- GenDefn&#45;&gt;DecRef -->
<g id="edge35" class="edge">
<title>GenDefn&#45;&gt;DecRef</title>
<path fill="none" stroke="black" d="M3120.26,-216.05C3125.21,-207.8 3131.27,-197.7 3136.77,-188.54"/>
<polygon fill="black" stroke="black" points="3139.88,-190.16 3142.02,-179.79 3133.87,-186.56 3139.88,-190.16"/>
</g>
<!-- GenDefn&#45;&gt;MaybeDerivation -->
<g id="edge34" class="edge">
<title>GenDefn&#45;&gt;MaybeDerivation</title>
<path fill="none" stroke="black" d="M3072.47,-221.73C3065.09,-219.69 3057.37,-217.68 3050.09,-216 3029.06,-211.14 2911.39,-190.32 2831.18,-176.27"/>
<polygon fill="black" stroke="black" points="2831.55,-172.78 2821.1,-174.5 2830.34,-179.68 2831.55,-172.78"/>
</g>
<!-- GenDefn&#45;&gt;ShortName -->
<g id="edge36" class="edge">
<title>GenDefn&#45;&gt;ShortName</title>
<path fill="none" stroke="black" d="M3076.71,-220.16C3047.88,-209.07 3005.94,-192.94 2973.96,-180.64"/>
<polygon fill="black" stroke="black" points="2974.97,-177.28 2964.38,-176.96 2972.46,-183.81 2974.97,-177.28"/>
</g>
<!-- GenDefn&#45;&gt;String -->
<g id="edge37" class="edge">
<title>GenDefn&#45;&gt;String</title>
<path fill="none" stroke="black" d="M3095.87,-216.41C3088.29,-207.57 3078.83,-196.53 3070.48,-186.79"/>
<polygon fill="black" stroke="black" points="3072.96,-184.3 3063.8,-178.99 3067.65,-188.86 3072.96,-184.3"/>
</g>
<!-- ModelKindModelExpr -->
<g id="node32" class="node">
<title>ModelKindModelExpr</title>
<ellipse fill="none" stroke="black" cx="3514.09" cy="-162" rx="112.38" ry="18"/>
<text text-anchor="middle" x="3514.09" y="-158.3" font-family="Times,serif" font-size="14.00">ModelKindModelExpr</text>
</g>
<!-- GenDefn&#45;&gt;ModelKindModelExpr -->
<g id="edge32" class="edge">
<title>GenDefn&#45;&gt;ModelKindModelExpr</title>
<path fill="none" stroke="black" d="M3155.26,-225.17C3221.84,-213.64 3347.45,-191.87 3430.97,-177.4"/>
<polygon fill="black" stroke="black" points="3431.68,-180.83 3440.94,-175.68 3430.49,-173.93 3431.68,-180.83"/>
</g>
<!-- MaybeUnitDefn -->
<g id="node33" class="node">
<title>MaybeUnitDefn</title>
<ellipse fill="none" stroke="black" cx="3299.09" cy="-162" rx="84.49" ry="18"/>
<text text-anchor="middle" x="3299.09" y="-158.3" font-family="Times,serif" font-size="14.00">MaybeUnitDefn</text>
</g>
<!-- GenDefn&#45;&gt;MaybeUnitDefn -->
<g id="edge33" class="edge">
<title>GenDefn&#45;&gt;MaybeUnitDefn</title>
<path fill="none" stroke="black" d="M3144.32,-220.32C3173.65,-209.46 3216.29,-193.67 3249.39,-181.41"/>
<polygon fill="black" stroke="black" points="3250.73,-184.65 3258.89,-177.89 3248.3,-178.08 3250.73,-184.65"/>
</g>
<!-- InstanceModel -->
<g id="node34" class="node">
<title>InstanceModel</title>
<ellipse fill="none" stroke="#00cdcd" cx="2650.09" cy="-234" rx="79.09" ry="18"/>
<text text-anchor="middle" x="2650.09" y="-230.3" font-family="Times,serif" font-size="14.00">InstanceModel</text>
</g>
<!-- InstanceModel&#45;&gt;Sentence -->
<g id="edge46" class="edge">
<title>InstanceModel&#45;&gt;Sentence</title>
<path fill="none" stroke="black" d="M2579.05,-225.88C2501.82,-217.51 2374.97,-201.93 2267.09,-180 2262.66,-179.1 2258.09,-178.07 2253.51,-176.97"/>
<polygon fill="black" stroke="black" points="2254.12,-173.51 2243.57,-174.47 2252.41,-180.3 2254.12,-173.51"/>
</g>
<!-- InstanceModel&#45;&gt;DecRef -->
<g id="edge42" class="edge">
<title>InstanceModel&#45;&gt;DecRef</title>
<path fill="none" stroke="black" d="M2717.52,-224.44C2739.39,-221.7 2763.77,-218.68 2786.09,-216 2925.12,-199.32 2962.21,-209.53 3099.09,-180 3102.71,-179.22 3106.42,-178.29 3110.13,-177.28"/>
<polygon fill="black" stroke="black" points="3111.23,-180.61 3119.85,-174.45 3109.27,-173.89 3111.23,-180.61"/>
</g>
<!-- InstanceModel&#45;&gt;MaybeDerivation -->
<g id="edge43" class="edge">
<title>InstanceModel&#45;&gt;MaybeDerivation</title>
<path fill="none" stroke="black" d="M2674.45,-216.76C2688.52,-207.38 2706.44,-195.44 2721.8,-185.19"/>
<polygon fill="black" stroke="black" points="2724.13,-187.85 2730.51,-179.39 2720.25,-182.02 2724.13,-187.85"/>
</g>
<!-- InstanceModel&#45;&gt;ShortName -->
<g id="edge44" class="edge">
<title>InstanceModel&#45;&gt;ShortName</title>
<path fill="none" stroke="black" d="M2701.08,-220.16C2749.48,-207.98 2822.05,-189.7 2872.04,-177.11"/>
<polygon fill="black" stroke="black" points="2873.2,-180.43 2882.04,-174.6 2871.49,-173.64 2873.2,-180.43"/>
</g>
<!-- InstanceModel&#45;&gt;String -->
<g id="edge45" class="edge">
<title>InstanceModel&#45;&gt;String</title>
<path fill="none" stroke="black" d="M2717.18,-224.37C2803.53,-213 2948.66,-192.94 3001.09,-180 3004.24,-179.22 3007.47,-178.33 3010.7,-177.37"/>
<polygon fill="black" stroke="black" points="3011.83,-180.68 3020.3,-174.32 3009.7,-174.01 3011.83,-180.68"/>
</g>
<!-- ModelKindExpr -->
<g id="node35" class="node">
<title>ModelKindExpr</title>
<ellipse fill="none" stroke="black" cx="2457.09" cy="-162" rx="83.39" ry="18"/>
<text text-anchor="middle" x="2457.09" y="-158.3" font-family="Times,serif" font-size="14.00">ModelKindExpr</text>
</g>
<!-- InstanceModel&#45;&gt;ModelKindExpr -->
<g id="edge39" class="edge">
<title>InstanceModel&#45;&gt;ModelKindExpr</title>
<path fill="none" stroke="black" d="M2609.63,-218.33C2579.88,-207.54 2539.26,-192.8 2507.41,-181.25"/>
<polygon fill="black" stroke="black" points="2508.42,-177.89 2497.83,-177.78 2506.04,-184.48 2508.42,-177.89"/>
</g>
<!-- Inputs -->
<g id="node36" class="node">
<title>Inputs</title>
<ellipse fill="none" stroke="#ee0000" cx="2316.09" cy="-162" rx="40.09" ry="18"/>
<text text-anchor="middle" x="2316.09" y="-158.3" font-family="Times,serif" font-size="14.00">Inputs</text>
</g>
<!-- InstanceModel&#45;&gt;Inputs -->
<g id="edge40" class="edge">
<title>InstanceModel&#45;&gt;Inputs</title>
<path fill="none" stroke="black" d="M2584.67,-223.69C2526.5,-214.75 2439.41,-199.68 2365.09,-180 2361.96,-179.17 2358.74,-178.24 2355.52,-177.25"/>
<polygon fill="black" stroke="black" points="2356.52,-173.89 2345.93,-174.15 2354.37,-180.56 2356.52,-173.89"/>
</g>
<!-- Output -->
<g id="node37" class="node">
<title>Output</title>
<ellipse fill="none" stroke="#ee0000" cx="2602.09" cy="-162" rx="43.59" ry="18"/>
<text text-anchor="middle" x="2602.09" y="-158.3" font-family="Times,serif" font-size="14.00">Output</text>
</g>
<!-- InstanceModel&#45;&gt;Output -->
<g id="edge41" class="edge">
<title>InstanceModel&#45;&gt;Output</title>
<path fill="none" stroke="black" d="M2638.47,-216.05C2632.75,-207.71 2625.74,-197.49 2619.41,-188.25"/>
<polygon fill="black" stroke="black" points="2622.15,-186.06 2613.6,-179.79 2616.37,-190.02 2622.15,-186.06"/>
</g>
<!-- Input -->
<g id="node38" class="node">
<title>Input</title>
<ellipse fill="none" stroke="#ee0000" cx="2316.09" cy="-90" rx="36" ry="18"/>
<text text-anchor="middle" x="2316.09" y="-86.3" font-family="Times,serif" font-size="14.00">Input</text>
</g>
<!-- Inputs&#45;&gt;Input -->
<g id="edge48" class="edge">
<title>Inputs&#45;&gt;Input</title>
<path fill="none" stroke="black" d="M2316.09,-143.7C2316.09,-135.98 2316.09,-126.71 2316.09,-118.11"/>
<polygon fill="black" stroke="black" points="2319.59,-118.1 2316.09,-108.1 2312.59,-118.1 2319.59,-118.1"/>
</g>
<!-- DefinedQuantityDict -->
<g id="node40" class="node">
<title>DefinedQuantityDict</title>
<ellipse fill="none" stroke="black" cx="2602.09" cy="-90" rx="105.88" ry="18"/>
<text text-anchor="middle" x="2602.09" y="-86.3" font-family="Times,serif" font-size="14.00">DefinedQuantityDict</text>
</g>
<!-- Output&#45;&gt;DefinedQuantityDict -->
<g id="edge49" class="edge">
<title>Output&#45;&gt;DefinedQuantityDict</title>
<path fill="none" stroke="black" d="M2602.09,-143.7C2602.09,-135.98 2602.09,-126.71 2602.09,-118.11"/>
<polygon fill="black" stroke="black" points="2605.59,-118.1 2602.09,-108.1 2598.59,-118.1 2605.59,-118.1"/>
</g>
<!-- DefinedQuantityDictMaybeRealIntervalExprExpr -->
<g id="node39" class="node">
<title>DefinedQuantityDictMaybeRealIntervalExprExpr</title>
<ellipse fill="none" stroke="black" cx="2316.09" cy="-18" rx="239.36" ry="18"/>
<text text-anchor="middle" x="2316.09" y="-14.3" font-family="Times,serif" font-size="14.00">DefinedQuantityDictMaybeRealIntervalExprExpr</text>
</g>
<!-- Input&#45;&gt;DefinedQuantityDictMaybeRealIntervalExprExpr -->
<g id="edge47" class="edge">
<title>Input&#45;&gt;DefinedQuantityDictMaybeRealIntervalExprExpr</title>
<path fill="none" stroke="black" d="M2316.09,-71.7C2316.09,-63.98 2316.09,-54.71 2316.09,-46.11"/>
<polygon fill="black" stroke="black" points="2319.59,-46.1 2316.09,-36.1 2312.59,-46.1 2319.59,-46.1"/>
</g>
<!-- OutputConstraints -->
<g id="node41" class="node">
<title>OutputConstraints</title>
<ellipse fill="none" stroke="#ee0000" cx="3790.09" cy="-306" rx="97.48" ry="18"/>
<text text-anchor="middle" x="3790.09" y="-302.3" font-family="Times,serif" font-size="14.00">OutputConstraints</text>
</g>
<!-- RealIntervalExprExpr -->
<g id="node42" class="node">
<title>RealIntervalExprExpr</title>
<ellipse fill="none" stroke="black" cx="3790.09" cy="-234" rx="112.38" ry="18"/>
<text text-anchor="middle" x="3790.09" y="-230.3" font-family="Times,serif" font-size="14.00">RealIntervalExprExpr</text>
</g>
<!-- OutputConstraints&#45;&gt;RealIntervalExprExpr -->
<g id="edge50" class="edge">
<title>OutputConstraints&#45;&gt;RealIntervalExprExpr</title>
<path fill="none" stroke="black" d="M3790.09,-287.7C3790.09,-279.98 3790.09,-270.71 3790.09,-262.11"/>
<polygon fill="black" stroke="black" points="3793.59,-262.1 3790.09,-252.1 3786.59,-262.1 3793.59,-262.1"/>
</g>
<!-- ModelKinde -->
<g id="node43" class="node">
<title>ModelKinde</title>
<ellipse fill="none" stroke="#00cdcd" cx="1132.09" cy="-306" rx="66.09" ry="18"/>
<text text-anchor="middle" x="1132.09" y="-302.3" font-family="Times,serif" font-size="14.00">ModelKinde</text>
</g>
<!-- ModelKinde&#45;&gt;NP -->
<g id="edge53" class="edge">
<title>ModelKinde&#45;&gt;NP</title>
<path fill="none" stroke="black" d="M1193.51,-299.22C1292.01,-289.86 1491.37,-270.57 1660.09,-252 1696.03,-248.05 1737.03,-243.09 1765.7,-239.55"/>
<polygon fill="black" stroke="black" points="1766.18,-243.02 1775.68,-238.32 1765.32,-236.07 1766.18,-243.02"/>
</g>
<!-- ModelKinde&#45;&gt;UID -->
<g id="edge52" class="edge">
<title>ModelKinde&#45;&gt;UID</title>
<path fill="none" stroke="black" d="M1134.31,-287.88C1137.01,-269.67 1142.31,-240.21 1151.09,-216 1154.53,-206.52 1159.38,-196.62 1164.08,-187.97"/>
<polygon fill="black" stroke="black" points="1167.18,-189.6 1169.05,-179.17 1161.09,-186.16 1167.18,-189.6"/>
</g>
<!-- ModelKindse -->
<g id="node44" class="node">
<title>ModelKindse</title>
<ellipse fill="none" stroke="darkviolet" cx="648.09" cy="-234" rx="71.49" ry="18"/>
<text text-anchor="middle" x="648.09" y="-230.3" font-family="Times,serif" font-size="14.00">ModelKindse</text>
</g>
<!-- ModelKinde&#45;&gt;ModelKindse -->
<g id="edge51" class="edge">
<title>ModelKinde&#45;&gt;ModelKindse</title>
<path fill="none" stroke="black" d="M1075.15,-296.76C986.33,-283.92 815.03,-259.14 718.56,-245.19"/>
<polygon fill="black" stroke="black" points="719.01,-241.72 708.61,-243.75 718.01,-248.65 719.01,-241.72"/>
</g>
<!-- ModelKindse&#45;&gt;DifferentialModel -->
<g id="edge54" class="edge">
<title>ModelKindse&#45;&gt;DifferentialModel</title>
<path fill="none" stroke="black" d="M668,-216.41C678.8,-207.41 692.33,-196.14 704.16,-186.27"/>
<polygon fill="black" stroke="black" points="706.6,-188.8 712.04,-179.71 702.11,-183.43 706.6,-188.8"/>
</g>
<!-- ModelKinds -->
<g id="node45" class="node">
<title>ModelKinds</title>
<ellipse fill="none" stroke="black" cx="908.09" cy="-162" rx="65.79" ry="18"/>
<text text-anchor="middle" x="908.09" y="-158.3" font-family="Times,serif" font-size="14.00">ModelKinds</text>
</g>
<!-- ModelKindse&#45;&gt;ModelKinds -->
<g id="edge55" class="edge">
<title>ModelKindse&#45;&gt;ModelKinds</title>
<path fill="none" stroke="black" d="M695.18,-220.32C739.71,-208.33 806.54,-190.34 853.41,-177.72"/>
<polygon fill="black" stroke="black" points="854.35,-181.09 863.1,-175.11 852.53,-174.33 854.35,-181.09"/>
</g>
<!-- e -->
<g id="node46" class="node">
<title>e</title>
<ellipse fill="none" stroke="black" cx="1105.09" cy="-162" rx="27" ry="18"/>
<text text-anchor="middle" x="1105.09" y="-158.3" font-family="Times,serif" font-size="14.00">e</text>
</g>
<!-- ModelKindse&#45;&gt;e -->
<g id="edge56" class="edge">
<title>ModelKindse&#45;&gt;e</title>
<path fill="none" stroke="black" d="M718.74,-230.89C803.51,-226.81 949.2,-214.89 1069.09,-180 1071.03,-179.44 1073,-178.78 1074.96,-178.06"/>
<polygon fill="black" stroke="black" points="1076.71,-181.12 1084.59,-174.04 1074.01,-174.66 1076.71,-181.12"/>
</g>
<!-- RelationConcept -->
<g id="node47" class="node">
<title>RelationConcept</title>
<ellipse fill="none" stroke="black" cx="87.09" cy="-162" rx="87.18" ry="18"/>
<text text-anchor="middle" x="87.09" y="-158.3" font-family="Times,serif" font-size="14.00">RelationConcept</text>
</g>
<!-- ModelKindse&#45;&gt;RelationConcept -->
<g id="edge57" class="edge">
<title>ModelKindse&#45;&gt;RelationConcept</title>
<path fill="none" stroke="black" d="M582.47,-226.81C492.27,-218.01 325.01,-200.63 183.09,-180 175.44,-178.89 167.46,-177.63 159.51,-176.31"/>
<polygon fill="black" stroke="black" points="159.93,-172.84 149.49,-174.63 158.77,-179.74 159.93,-172.84"/>
</g>
<!-- ConstraintSet -->
<g id="node48" class="node">
<title>ConstraintSet</title>
<ellipse fill="none" stroke="black" cx="267.09" cy="-162" rx="75.29" ry="18"/>
<text text-anchor="middle" x="267.09" y="-158.3" font-family="Times,serif" font-size="14.00">ConstraintSet</text>
</g>
<!-- ModelKindse&#45;&gt;ConstraintSet -->
<g id="edge58" class="edge">
<title>ModelKindse&#45;&gt;ConstraintSet</title>
<path fill="none" stroke="black" d="M590.81,-223.18C530.94,-212.83 434.32,-195.85 351.09,-180 344.95,-178.83 338.57,-177.59 332.18,-176.33"/>
<polygon fill="black" stroke="black" points="332.67,-172.86 322.18,-174.34 331.31,-179.72 332.67,-172.86"/>
</g>
<!-- QDefinition -->
<g id="node49" class="node">
<title>QDefinition</title>
<ellipse fill="none" stroke="black" cx="424.09" cy="-162" rx="63.89" ry="18"/>
<text text-anchor="middle" x="424.09" y="-158.3" font-family="Times,serif" font-size="14.00">QDefinition</text>
</g>
<!-- ModelKindse&#45;&gt;QDefinition -->
<g id="edge59" class="edge">
<title>ModelKindse&#45;&gt;QDefinition</title>
<path fill="none" stroke="black" d="M605.17,-219.59C568.04,-207.98 514.31,-191.19 475.02,-178.91"/>
<polygon fill="black" stroke="black" points="475.95,-175.54 465.36,-175.9 473.86,-182.22 475.95,-175.54"/>
</g>
<!-- MultiDefn -->
<g id="node50" class="node">
<title>MultiDefn</title>
<ellipse fill="none" stroke="black" cx="564.09" cy="-162" rx="57.69" ry="18"/>
<text text-anchor="middle" x="564.09" y="-158.3" font-family="Times,serif" font-size="14.00">MultiDefn</text>
</g>
<!-- ModelKindse&#45;&gt;MultiDefn -->
<g id="edge60" class="edge">
<title>ModelKindse&#45;&gt;MultiDefn</title>
<path fill="none" stroke="black" d="M628.19,-216.41C617.15,-207.21 603.27,-195.64 591.24,-185.63"/>
<polygon fill="black" stroke="black" points="593.2,-182.7 583.28,-178.99 588.72,-188.08 593.2,-182.7"/>
</g>
<!-- DefiningExpre -->
<g id="node51" class="node">
<title>DefiningExpre</title>
<ellipse fill="none" stroke="#00cdcd" cx="1237.09" cy="-234" rx="77.19" ry="18"/>
<text text-anchor="middle" x="1237.09" y="-230.3" font-family="Times,serif" font-size="14.00">DefiningExpre</text>
</g>
<!-- DefiningExpre&#45;&gt;UID -->
<g id="edge61" class="edge">
<title>DefiningExpre&#45;&gt;UID</title>
<path fill="none" stroke="black" d="M1223.05,-216.05C1215.61,-207.08 1206.37,-195.92 1198.28,-186.15"/>
<polygon fill="black" stroke="black" points="1200.89,-183.82 1191.82,-178.36 1195.5,-188.29 1200.89,-183.82"/>
</g>
<!-- DefiningExpre&#45;&gt;Sentence -->
<g id="edge62" class="edge">
<title>DefiningExpre&#45;&gt;Sentence</title>
<path fill="none" stroke="black" d="M1311.08,-228.69C1513.51,-216.85 2064.07,-184.47 2103.09,-180 2117.88,-178.31 2133.79,-175.91 2148.51,-173.44"/>
<polygon fill="black" stroke="black" points="2149.22,-176.87 2158.48,-171.73 2148.04,-169.97 2149.22,-176.87"/>
</g>
<!-- DefiningExpre&#45;&gt;e -->
<g id="edge63" class="edge">
<title>DefiningExpre&#45;&gt;e</title>
<path fill="none" stroke="black" d="M1207.47,-217.29C1185.75,-205.77 1156.39,-190.2 1134.68,-178.69"/>
<polygon fill="black" stroke="black" points="1136.07,-175.47 1125.6,-173.87 1132.79,-181.65 1136.07,-175.47"/>
</g>
<!-- MultiDefne -->
<g id="node52" class="node">
<title>MultiDefne</title>
<ellipse fill="none" stroke="#00cdcd" cx="1984.09" cy="-234" rx="63.09" ry="18"/>
<text text-anchor="middle" x="1984.09" y="-230.3" font-family="Times,serif" font-size="14.00">MultiDefne</text>
</g>
<!-- MultiDefne&#45;&gt;UID -->
<g id="edge64" class="edge">
<title>MultiDefne&#45;&gt;UID</title>
<path fill="none" stroke="black" d="M1928.01,-225.7C1900.89,-222.37 1867.84,-218.59 1838.09,-216 1562.67,-192 1485.68,-245.52 1217.09,-180 1214.78,-179.44 1212.44,-178.74 1210.11,-177.95"/>
<polygon fill="black" stroke="black" points="1211.3,-174.66 1200.72,-174.29 1208.76,-181.18 1211.3,-174.66"/>
</g>
<!-- MultiDefne&#45;&gt;Sentence -->
<g id="edge66" class="edge">
<title>MultiDefne&#45;&gt;Sentence</title>
<path fill="none" stroke="black" d="M2024.44,-220.16C2061.84,-208.26 2117.48,-190.56 2156.91,-178.01"/>
<polygon fill="black" stroke="black" points="2158.1,-181.31 2166.57,-174.94 2155.98,-174.64 2158.1,-181.31"/>
</g>
<!-- MultiDefne&#45;&gt;DefinedQuantityDict -->
<g id="edge65" class="edge">
<title>MultiDefne&#45;&gt;DefinedQuantityDict</title>
<path fill="none" stroke="black" d="M2022.51,-219.72C2046.7,-210.46 2077.98,-196.77 2103.09,-180 2122.44,-167.08 2120.01,-153.83 2141.09,-144 2172.73,-129.25 2372.81,-110.18 2498.76,-99.4"/>
<polygon fill="black" stroke="black" points="2499.16,-102.88 2508.83,-98.54 2498.57,-95.9 2499.16,-102.88"/>
</g>
<!-- NonEmptyDefiningExpre -->
<g id="node53" class="node">
<title>NonEmptyDefiningExpre</title>
<ellipse fill="none" stroke="black" cx="1577.09" cy="-162" rx="127.28" ry="18"/>
<text text-anchor="middle" x="1577.09" y="-158.3" font-family="Times,serif" font-size="14.00">NonEmptyDefiningExpre</text>
</g>
<!-- MultiDefne&#45;&gt;NonEmptyDefiningExpre -->
<g id="edge67" class="edge">
<title>MultiDefne&#45;&gt;NonEmptyDefiningExpre</title>
<path fill="none" stroke="black" d="M1931.3,-223.92C1863.75,-212.3 1745.79,-192.01 1664.69,-178.07"/>
<polygon fill="black" stroke="black" points="1664.94,-174.56 1654.49,-176.31 1663.75,-181.46 1664.94,-174.56"/>
</g>
<!-- TheoryModel -->
<g id="node54" class="node">
<title>TheoryModel</title>
<ellipse fill="none" stroke="#00cdcd" cx="3382.09" cy="-234" rx="71.49" ry="18"/>
<text text-anchor="middle" x="3382.09" y="-230.3" font-family="Times,serif" font-size="14.00">TheoryModel</text>
</g>
<!-- TheoryModel&#45;&gt;Sentence -->
<g id="edge77" class="edge">
<title>TheoryModel&#45;&gt;Sentence</title>
<path fill="none" stroke="black" d="M3315.78,-226.99C3274,-223.38 3218.93,-218.93 3170.09,-216 2769.16,-191.94 2664.13,-240.7 2267.09,-180 2262.3,-179.27 2257.36,-178.31 2252.44,-177.21"/>
<polygon fill="black" stroke="black" points="2252.99,-173.74 2242.45,-174.81 2251.35,-180.55 2252.99,-173.74"/>
</g>
<!-- TheoryModel&#45;&gt;ConceptChunk -->
<g id="edge71" class="edge">
<title>TheoryModel&#45;&gt;ConceptChunk</title>
<path fill="none" stroke="black" d="M3437.06,-222.38C3510.52,-208.05 3631.94,-183.88 3635.09,-180 3645.18,-167.58 3646.26,-155.46 3635.09,-144 3608.65,-116.85 2308.9,-110.69 2271.09,-108 2248.25,-106.37 2223.47,-103.8 2200.93,-101.14"/>
<polygon fill="black" stroke="black" points="2201.1,-97.63 2190.75,-99.91 2200.26,-104.58 2201.1,-97.63"/>
</g>
<!-- TheoryModel&#45;&gt;DecRef -->
<g id="edge74" class="edge">
<title>TheoryModel&#45;&gt;DecRef</title>
<path fill="none" stroke="black" d="M3337.56,-219.76C3301.95,-209.13 3250.77,-193.76 3206.09,-180 3202.6,-178.92 3198.98,-177.8 3195.35,-176.67"/>
<polygon fill="black" stroke="black" points="3196.36,-173.32 3185.77,-173.68 3194.27,-180 3196.36,-173.32"/>
</g>
<!-- TheoryModel&#45;&gt;ShortName -->
<g id="edge75" class="edge">
<title>TheoryModel&#45;&gt;ShortName</title>
<path fill="none" stroke="black" d="M3318.1,-225.89C3242.17,-217.05 3111.9,-200.56 3001.09,-180 2995.65,-178.99 2990.01,-177.85 2984.38,-176.64"/>
<polygon fill="black" stroke="black" points="2984.82,-173.16 2974.3,-174.43 2983.31,-179.99 2984.82,-173.16"/>
</g>
<!-- TheoryModel&#45;&gt;String -->
<g id="edge76" class="edge">
<title>TheoryModel&#45;&gt;String</title>
<path fill="none" stroke="black" d="M3321.61,-224.35C3263.91,-215.46 3174.82,-200.11 3099.09,-180 3095.96,-179.17 3092.74,-178.23 3089.52,-177.24"/>
<polygon fill="black" stroke="black" points="3090.53,-173.89 3079.93,-174.14 3088.37,-180.55 3090.53,-173.89"/>
</g>
<!-- TheoryModel&#45;&gt;ModelQDef -->
<g id="edge72" class="edge">
<title>TheoryModel&#45;&gt;ModelQDef</title>
<path fill="none" stroke="black" d="M3438.66,-222.97C3453.72,-220.49 3470,-217.98 3485.09,-216 3648.03,-194.61 3690.98,-206.94 3853.09,-180 3858.56,-179.09 3864.22,-178.01 3869.87,-176.83"/>
<polygon fill="black" stroke="black" points="3870.93,-180.18 3879.96,-174.63 3869.44,-173.34 3870.93,-180.18"/>
</g>
<!-- TheoryModel&#45;&gt;ModelKindModelExpr -->
<g id="edge68" class="edge">
<title>TheoryModel&#45;&gt;ModelKindModelExpr</title>
<path fill="none" stroke="black" d="M3411.39,-217.46C3429.83,-207.68 3453.88,-194.93 3474.07,-184.22"/>
<polygon fill="black" stroke="black" points="3475.85,-187.24 3483.04,-179.47 3472.57,-181.06 3475.85,-187.24"/>
</g>
<!-- TheoryModel&#45;&gt;DefinedQuantityDict -->
<g id="edge70" class="edge">
<title>TheoryModel&#45;&gt;DefinedQuantityDict</title>
<path fill="none" stroke="black" d="M3439.73,-223.27C3522.2,-209.2 3664.43,-184.4 3668.09,-180 3678.32,-167.7 3679.12,-155.59 3668.09,-144 3635.74,-110 2986.65,-96.62 2717.49,-92.52"/>
<polygon fill="black" stroke="black" points="2717.35,-89.01 2707.3,-92.36 2717.25,-96.01 2717.35,-89.01"/>
</g>
<!-- TheoryModel&#45;&gt;TheoryModel -->
<g id="edge69" class="edge">
<title>TheoryModel&#45;&gt;TheoryModel</title>
<path fill="none" stroke="black" d="M3430.88,-247.29C3452.71,-248.55 3471.59,-244.12 3471.59,-234 3471.59,-225.54 3458.39,-221.05 3441.32,-220.55"/>
<polygon fill="black" stroke="black" points="3440.83,-217.06 3430.88,-220.71 3440.93,-224.05 3440.83,-217.06"/>
</g>
<!-- ModelExpr -->
<g id="node55" class="node">
<title>ModelExpr</title>
<ellipse fill="none" stroke="black" cx="3782.09" cy="-162" rx="61.99" ry="18"/>
<text text-anchor="middle" x="3782.09" y="-158.3" font-family="Times,serif" font-size="14.00">ModelExpr</text>
</g>
<!-- TheoryModel&#45;&gt;ModelExpr -->
<g id="edge73" class="edge">
<title>TheoryModel&#45;&gt;ModelExpr</title>
<path fill="none" stroke="black" d="M3440.1,-223.4C3454.78,-220.98 3470.52,-218.39 3485.09,-216 3583.3,-199.9 3608.38,-198.87 3706.09,-180 3712.36,-178.79 3718.91,-177.45 3725.42,-176.06"/>
<polygon fill="black" stroke="black" points="3726.53,-179.4 3735.56,-173.86 3725.04,-172.56 3726.53,-179.4"/>
</g>
</g>
</svg>
