<?xml version="1.0" encoding="UTF-8" standalone="no"?>
<!DOCTYPE svg PUBLIC "-//W3C//DTD SVG 1.1//EN"
 "http://www.w3.org/Graphics/SVG/1.1/DTD/svg11.dtd">
<!-- Generated by graphviz version 2.43.0 (0)
 -->
<!-- Title: alltypes Pages: 1 -->
<svg width="3870pt" height="332pt"
 viewBox="0.00 0.00 3869.72 332.00" xmlns="http://www.w3.org/2000/svg" xmlns:xlink="http://www.w3.org/1999/xlink">
<g id="graph0" class="graph" transform="scale(1 1) rotate(0) translate(4 328)">
<title>alltypes</title>
<polygon fill="white" stroke="transparent" points="-4,4 -4,-328 3865.72,-328 3865.72,4 -4,4"/>
<!-- TermAbbr -->
<g id="node1" class="node">
<title>TermAbbr</title>
<ellipse fill="none" stroke="#00cdcd" cx="2057.54" cy="-306" rx="57.39" ry="18"/>
<text text-anchor="middle" x="2057.54" y="-302.3" font-family="Times,serif" font-size="14.00">TermAbbr</text>
</g>
<!-- NP -->
<g id="node2" class="node">
<title>NP</title>
<ellipse fill="none" stroke="black" cx="1858.54" cy="-234" rx="27" ry="18"/>
<text text-anchor="middle" x="1858.54" y="-230.3" font-family="Times,serif" font-size="14.00">NP</text>
</g>
<!-- TermAbbr&#45;&gt;NP -->
<g id="edge1" class="edge">
<title>TermAbbr&#45;&gt;NP</title>
<path fill="none" stroke="black" d="M2016.84,-293.33C1983.56,-283.42 1935.48,-268.24 1894.54,-252 1892.71,-251.27 1890.84,-250.5 1888.96,-249.69"/>
<polygon fill="black" stroke="black" points="1890.22,-246.42 1879.67,-245.52 1887.36,-252.81 1890.22,-246.42"/>
</g>
<!-- MaybeString -->
<g id="node3" class="node">
<title>MaybeString</title>
<ellipse fill="none" stroke="black" cx="2256.54" cy="-234" rx="71.49" ry="18"/>
<text text-anchor="middle" x="2256.54" y="-230.3" font-family="Times,serif" font-size="14.00">MaybeString</text>
</g>
<!-- TermAbbr&#45;&gt;MaybeString -->
<g id="edge2" class="edge">
<title>TermAbbr&#45;&gt;MaybeString</title>
<path fill="none" stroke="black" d="M2094.51,-292C2126.25,-280.83 2172.28,-264.64 2207.18,-252.36"/>
<polygon fill="black" stroke="black" points="2208.43,-255.63 2216.7,-249.01 2206.11,-249.03 2208.43,-255.63"/>
</g>
<!-- DomDefn -->
<g id="node4" class="node">
<title>DomDefn</title>
<ellipse fill="none" stroke="#00cdcd" cx="1759.54" cy="-234" rx="53.89" ry="18"/>
<text text-anchor="middle" x="1759.54" y="-230.3" font-family="Times,serif" font-size="14.00">DomDefn</text>
</g>
<!-- UID -->
<g id="node5" class="node">
<title>UID</title>
<ellipse fill="none" stroke="black" cx="1611.54" cy="-162" rx="29.5" ry="18"/>
<text text-anchor="middle" x="1611.54" y="-158.3" font-family="Times,serif" font-size="14.00">UID</text>
</g>
<!-- DomDefn&#45;&gt;UID -->
<g id="edge3" class="edge">
<title>DomDefn&#45;&gt;UID</title>
<path fill="none" stroke="black" d="M1729.59,-218.83C1704.58,-207 1669,-190.18 1643.45,-178.09"/>
<polygon fill="black" stroke="black" points="1644.73,-174.83 1634.2,-173.71 1641.74,-181.15 1644.73,-174.83"/>
</g>
<!-- Sentence -->
<g id="node6" class="node">
<title>Sentence</title>
<ellipse fill="none" stroke="black" cx="2204.54" cy="-162" rx="53.89" ry="18"/>
<text text-anchor="middle" x="2204.54" y="-158.3" font-family="Times,serif" font-size="14.00">Sentence</text>
</g>
<!-- DomDefn&#45;&gt;Sentence -->
<g id="edge4" class="edge">
<title>DomDefn&#45;&gt;Sentence</title>
<path fill="none" stroke="black" d="M1798.67,-221.56C1806.53,-219.51 1814.76,-217.54 1822.54,-216 1946.05,-191.54 1978.99,-198.45 2103.54,-180 2118.05,-177.85 2133.69,-175.32 2148.23,-172.88"/>
<polygon fill="black" stroke="black" points="2148.82,-176.33 2158.09,-171.21 2147.65,-169.43 2148.82,-176.33"/>
</g>
<!-- Derivation -->
<g id="node7" class="node">
<title>Derivation</title>
<ellipse fill="none" stroke="darkviolet" cx="2107.54" cy="-234" rx="59.59" ry="18"/>
<text text-anchor="middle" x="2107.54" y="-230.3" font-family="Times,serif" font-size="14.00">Derivation</text>
</g>
<!-- Derivation&#45;&gt;Sentence -->
<g id="edge5" class="edge">
<title>Derivation&#45;&gt;Sentence</title>
<path fill="none" stroke="black" d="M2129.55,-217.12C2142.92,-207.47 2160.15,-195.04 2174.73,-184.52"/>
<polygon fill="black" stroke="black" points="2176.89,-187.27 2182.95,-178.58 2172.79,-181.59 2176.89,-187.27"/>
</g>
<!-- ConstraintSete -->
<g id="node8" class="node">
<title>ConstraintSete</title>
<ellipse fill="none" stroke="#00cdcd" cx="2013.54" cy="-162" rx="81.49" ry="18"/>
<text text-anchor="middle" x="2013.54" y="-158.3" font-family="Times,serif" font-size="14.00">ConstraintSete</text>
</g>
<!-- ConceptChunk -->
<g id="node9" class="node">
<title>ConceptChunk</title>
<ellipse fill="none" stroke="black" cx="2094.54" cy="-90" rx="78.79" ry="18"/>
<text text-anchor="middle" x="2094.54" y="-86.3" font-family="Times,serif" font-size="14.00">ConceptChunk</text>
</g>
<!-- ConstraintSete&#45;&gt;ConceptChunk -->
<g id="edge6" class="edge">
<title>ConstraintSete&#45;&gt;ConceptChunk</title>
<path fill="none" stroke="black" d="M2032.74,-144.41C2043.23,-135.34 2056.39,-123.97 2067.86,-114.06"/>
<polygon fill="black" stroke="black" points="2070.21,-116.66 2075.48,-107.47 2065.63,-111.36 2070.21,-116.66"/>
</g>
<!-- NonEmptye -->
<g id="node10" class="node">
<title>NonEmptye</title>
<ellipse fill="none" stroke="black" cx="1932.54" cy="-90" rx="65.79" ry="18"/>
<text text-anchor="middle" x="1932.54" y="-86.3" font-family="Times,serif" font-size="14.00">NonEmptye</text>
</g>
<!-- ConstraintSete&#45;&gt;NonEmptye -->
<g id="edge7" class="edge">
<title>ConstraintSete&#45;&gt;NonEmptye</title>
<path fill="none" stroke="black" d="M1994.35,-144.41C1983.85,-135.34 1970.7,-123.97 1959.22,-114.06"/>
<polygon fill="black" stroke="black" points="1961.45,-111.36 1951.6,-107.47 1956.88,-116.66 1961.45,-111.36"/>
</g>
<!-- DDPkt -->
<g id="node11" class="node">
<title>DDPkt</title>
<ellipse fill="none" stroke="#00cdcd" cx="2767.54" cy="-234" rx="40.89" ry="18"/>
<text text-anchor="middle" x="2767.54" y="-230.3" font-family="Times,serif" font-size="14.00">DDPkt</text>
</g>
<!-- DDPkt&#45;&gt;UID -->
<g id="edge8" class="edge">
<title>DDPkt&#45;&gt;UID</title>
<path fill="none" stroke="black" d="M2738.05,-221.38C2731.4,-219.21 2724.31,-217.24 2717.54,-216 2484.16,-173.35 1881.94,-232.33 1650.54,-180 1648.02,-179.43 1645.46,-178.7 1642.92,-177.86"/>
<polygon fill="black" stroke="black" points="1643.91,-174.49 1633.32,-174.21 1641.43,-181.04 1643.91,-174.49"/>
</g>
<!-- DDPkt&#45;&gt;Sentence -->
<g id="edge13" class="edge">
<title>DDPkt&#45;&gt;Sentence</title>
<path fill="none" stroke="black" d="M2737.73,-221.52C2731.17,-219.37 2724.19,-217.37 2717.54,-216 2521.05,-175.4 2465.23,-214.28 2267.54,-180 2262.84,-179.18 2257.97,-178.18 2253.13,-177.06"/>
<polygon fill="black" stroke="black" points="2253.82,-173.63 2243.28,-174.65 2252.16,-180.43 2253.82,-173.63"/>
</g>
<!-- DecRef -->
<g id="node12" class="node">
<title>DecRef</title>
<ellipse fill="none" stroke="black" cx="3027.54" cy="-162" rx="44.39" ry="18"/>
<text text-anchor="middle" x="3027.54" y="-158.3" font-family="Times,serif" font-size="14.00">DecRef</text>
</g>
<!-- DDPkt&#45;&gt;DecRef -->
<g id="edge9" class="edge">
<title>DDPkt&#45;&gt;DecRef</title>
<path fill="none" stroke="black" d="M2798.33,-221.98C2804.64,-219.88 2811.28,-217.78 2817.54,-216 2886.41,-196.45 2905.51,-198.95 2974.54,-180 2977.9,-179.08 2981.37,-178.08 2984.85,-177.04"/>
<polygon fill="black" stroke="black" points="2986.06,-180.33 2994.59,-174.05 2984.01,-173.64 2986.06,-180.33"/>
</g>
<!-- MaybeDerivation -->
<g id="node13" class="node">
<title>MaybeDerivation</title>
<ellipse fill="none" stroke="black" cx="3367.54" cy="-162" rx="90.98" ry="18"/>
<text text-anchor="middle" x="3367.54" y="-158.3" font-family="Times,serif" font-size="14.00">MaybeDerivation</text>
</g>
<!-- DDPkt&#45;&gt;MaybeDerivation -->
<g id="edge10" class="edge">
<title>DDPkt&#45;&gt;MaybeDerivation</title>
<path fill="none" stroke="black" d="M2797.35,-221.52C2803.92,-219.37 2810.9,-217.37 2817.54,-216 3014.03,-175.4 3068.45,-204.84 3267.54,-180 3275.89,-178.96 3284.61,-177.71 3293.27,-176.38"/>
<polygon fill="black" stroke="black" points="3294.05,-179.8 3303.38,-174.77 3292.96,-172.88 3294.05,-179.8"/>
</g>
<!-- ShortName -->
<g id="node14" class="node">
<title>ShortName</title>
<ellipse fill="none" stroke="black" cx="2901.54" cy="-162" rx="63.89" ry="18"/>
<text text-anchor="middle" x="2901.54" y="-158.3" font-family="Times,serif" font-size="14.00">ShortName</text>
</g>
<!-- DDPkt&#45;&gt;ShortName -->
<g id="edge11" class="edge">
<title>DDPkt&#45;&gt;ShortName</title>
<path fill="none" stroke="black" d="M2793.06,-219.67C2812.95,-209.28 2840.88,-194.69 2863.42,-182.92"/>
<polygon fill="black" stroke="black" points="2865.15,-185.96 2872.39,-178.23 2861.91,-179.76 2865.15,-185.96"/>
</g>
<!-- String -->
<g id="node15" class="node">
<title>String</title>
<ellipse fill="none" stroke="black" cx="2779.54" cy="-162" rx="40.09" ry="18"/>
<text text-anchor="middle" x="2779.54" y="-158.3" font-family="Times,serif" font-size="14.00">String</text>
</g>
<!-- DDPkt&#45;&gt;String -->
<g id="edge12" class="edge">
<title>DDPkt&#45;&gt;String</title>
<path fill="none" stroke="black" d="M2770.51,-215.7C2771.83,-207.98 2773.42,-198.71 2774.89,-190.11"/>
<polygon fill="black" stroke="black" points="2778.37,-190.55 2776.61,-180.1 2771.47,-189.37 2778.37,-190.55"/>
</g>
<!-- DataDefinition -->
<g id="node16" class="node">
<title>DataDefinition</title>
<ellipse fill="none" stroke="darkviolet" cx="2681.54" cy="-306" rx="77.99" ry="18"/>
<text text-anchor="middle" x="2681.54" y="-302.3" font-family="Times,serif" font-size="14.00">DataDefinition</text>
</g>
<!-- DataDefinition&#45;&gt;DDPkt -->
<g id="edge15" class="edge">
<title>DataDefinition&#45;&gt;DDPkt</title>
<path fill="none" stroke="black" d="M2701.92,-288.41C2713.58,-278.93 2728.33,-266.92 2740.89,-256.69"/>
<polygon fill="black" stroke="black" points="2743.23,-259.3 2748.78,-250.27 2738.81,-253.87 2743.23,-259.3"/>
</g>
<!-- DataDefinition&#45;&gt;DataDefinition -->
<g id="edge16" class="edge">
<title>DataDefinition&#45;&gt;DataDefinition</title>
<path fill="none" stroke="black" d="M2734.36,-319.31C2757.57,-320.49 2777.53,-316.05 2777.53,-306 2777.53,-297.44 2763.05,-292.95 2744.43,-292.53"/>
<polygon fill="black" stroke="black" points="2744.31,-289.03 2734.36,-292.69 2744.41,-296.03 2744.31,-289.03"/>
</g>
<!-- SimpleQDef -->
<g id="node17" class="node">
<title>SimpleQDef</title>
<ellipse fill="none" stroke="black" cx="2892.54" cy="-234" rx="66.09" ry="18"/>
<text text-anchor="middle" x="2892.54" y="-230.3" font-family="Times,serif" font-size="14.00">SimpleQDef</text>
</g>
<!-- DataDefinition&#45;&gt;SimpleQDef -->
<g id="edge14" class="edge">
<title>DataDefinition&#45;&gt;SimpleQDef</title>
<path fill="none" stroke="black" d="M2724.24,-290.83C2758.36,-279.51 2806.27,-263.62 2842.24,-251.69"/>
<polygon fill="black" stroke="black" points="2843.66,-254.9 2852.05,-248.43 2841.46,-248.26 2843.66,-254.9"/>
</g>
<!-- ModelQDef -->
<g id="node18" class="node">
<title>ModelQDef</title>
<ellipse fill="none" stroke="black" cx="2339.54" cy="-162" rx="63.09" ry="18"/>
<text text-anchor="middle" x="2339.54" y="-158.3" font-family="Times,serif" font-size="14.00">ModelQDef</text>
</g>
<!-- DataDefinition&#45;&gt;ModelQDef -->
<g id="edge17" class="edge">
<title>DataDefinition&#45;&gt;ModelQDef</title>
<path fill="none" stroke="black" d="M2613.2,-297.21C2569.48,-290.08 2512.71,-276.71 2467.54,-252 2447.13,-240.83 2448.13,-229.99 2429.54,-216 2413.41,-203.85 2394.28,-192.24 2377.81,-183"/>
<polygon fill="black" stroke="black" points="2379.42,-179.89 2368.97,-178.13 2376.04,-186.02 2379.42,-179.89"/>
</g>
<!-- Lens_ -->
<g id="node19" class="node">
<title>Lens_</title>
<ellipse fill="none" stroke="black" cx="2383.54" cy="-234" rx="37.09" ry="18"/>
<text text-anchor="middle" x="2383.54" y="-230.3" font-family="Times,serif" font-size="14.00">Lens_</text>
</g>
<!-- DataDefinition&#45;&gt;Lens_ -->
<g id="edge18" class="edge">
<title>DataDefinition&#45;&gt;Lens_</title>
<path fill="none" stroke="black" d="M2622.46,-294.23C2572.14,-284.6 2498.11,-269.36 2434.54,-252 2430.49,-250.89 2426.29,-249.65 2422.11,-248.35"/>
<polygon fill="black" stroke="black" points="2423.09,-244.99 2412.5,-245.27 2420.95,-251.66 2423.09,-244.99"/>
</g>
<!-- a -->
<g id="node20" class="node">
<title>a</title>
<ellipse fill="none" stroke="black" cx="2681.54" cy="-234" rx="27" ry="18"/>
<text text-anchor="middle" x="2681.54" y="-230.3" font-family="Times,serif" font-size="14.00">a</text>
</g>
<!-- DataDefinition&#45;&gt;a -->
<g id="edge19" class="edge">
<title>DataDefinition&#45;&gt;a</title>
<path fill="none" stroke="black" d="M2681.54,-287.7C2681.54,-279.98 2681.54,-270.71 2681.54,-262.11"/>
<polygon fill="black" stroke="black" points="2685.04,-262.1 2681.54,-252.1 2678.04,-262.1 2685.04,-262.1"/>
</g>
<!-- Term -->
<g id="node21" class="node">
<title>Term</title>
<ellipse fill="none" stroke="#00cdcd" cx="466.54" cy="-162" rx="34.39" ry="18"/>
<text text-anchor="middle" x="466.54" y="-158.3" font-family="Times,serif" font-size="14.00">Term</text>
</g>
<!-- Expr -->
<g id="node22" class="node">
<title>Expr</title>
<ellipse fill="none" stroke="black" cx="336.54" cy="-90" rx="33.29" ry="18"/>
<text text-anchor="middle" x="336.54" y="-86.3" font-family="Times,serif" font-size="14.00">Expr</text>
</g>
<!-- Term&#45;&gt;Expr -->
<g id="edge20" class="edge">
<title>Term&#45;&gt;Expr</title>
<path fill="none" stroke="black" d="M443.3,-148.49C422.37,-137.22 391.44,-120.56 368.24,-108.07"/>
<polygon fill="black" stroke="black" points="369.61,-104.83 359.15,-103.17 366.29,-110.99 369.61,-104.83"/>
</g>
<!-- Unknown -->
<g id="node23" class="node">
<title>Unknown</title>
<ellipse fill="none" stroke="#ee0000" cx="466.54" cy="-90" rx="54.69" ry="18"/>
<text text-anchor="middle" x="466.54" y="-86.3" font-family="Times,serif" font-size="14.00">Unknown</text>
</g>
<!-- Term&#45;&gt;Unknown -->
<g id="edge21" class="edge">
<title>Term&#45;&gt;Unknown</title>
<path fill="none" stroke="black" d="M466.54,-143.7C466.54,-135.98 466.54,-126.71 466.54,-118.11"/>
<polygon fill="black" stroke="black" points="470.04,-118.1 466.54,-108.1 463.04,-118.1 470.04,-118.1"/>
</g>
<!-- Integer -->
<g id="node29" class="node">
<title>Integer</title>
<ellipse fill="none" stroke="black" cx="383.54" cy="-18" rx="44.69" ry="18"/>
<text text-anchor="middle" x="383.54" y="-14.3" font-family="Times,serif" font-size="14.00">Integer</text>
</g>
<!-- Unknown&#45;&gt;Integer -->
<g id="edge30" class="edge">
<title>Unknown&#45;&gt;Integer</title>
<path fill="none" stroke="black" d="M447.29,-72.76C436.13,-63.36 421.93,-51.38 409.77,-41.12"/>
<polygon fill="black" stroke="black" points="412.02,-38.44 402.12,-34.67 407.5,-43.79 412.02,-38.44"/>
</g>
<!-- DifferentialModel -->
<g id="node24" class="node">
<title>DifferentialModel</title>
<ellipse fill="none" stroke="#00cdcd" cx="925.54" cy="-162" rx="92.08" ry="18"/>
<text text-anchor="middle" x="925.54" y="-158.3" font-family="Times,serif" font-size="14.00">DifferentialModel</text>
</g>
<!-- DifferentialModel&#45;&gt;ConceptChunk -->
<g id="edge26" class="edge">
<title>DifferentialModel&#45;&gt;ConceptChunk</title>
<path fill="none" stroke="black" d="M989.49,-148.95C1001.75,-147 1014.51,-145.23 1026.54,-144 1460.58,-99.7 1574.12,-157.99 2007.54,-108 2014.88,-107.15 2022.52,-106.03 2030.09,-104.76"/>
<polygon fill="black" stroke="black" points="2030.74,-108.2 2039.98,-103.01 2029.53,-101.3 2030.74,-108.2"/>
</g>
<!-- DifferentialModel&#45;&gt;Expr -->
<g id="edge24" class="edge">
<title>DifferentialModel&#45;&gt;Expr</title>
<path fill="none" stroke="black" d="M860.19,-149.2C848.35,-147.29 836.1,-145.46 824.54,-144 637.8,-120.36 588.11,-139.59 402.54,-108 393.47,-106.46 383.83,-104.28 374.79,-102"/>
<polygon fill="black" stroke="black" points="375.47,-98.56 364.91,-99.41 373.69,-105.33 375.47,-98.56"/>
</g>
<!-- DifferentialModel&#45;&gt;Unknown -->
<g id="edge25" class="edge">
<title>DifferentialModel&#45;&gt;Unknown</title>
<path fill="none" stroke="black" d="M858.75,-149.57C847.34,-147.67 835.61,-145.75 824.54,-144 719.55,-127.39 596.98,-109.59 525.91,-99.42"/>
<polygon fill="black" stroke="black" points="526.21,-95.93 515.81,-97.98 525.22,-102.86 526.21,-95.93"/>
</g>
<!-- UnitalChunk -->
<g id="node25" class="node">
<title>UnitalChunk</title>
<ellipse fill="none" stroke="black" cx="842.54" cy="-90" rx="69.59" ry="18"/>
<text text-anchor="middle" x="842.54" y="-86.3" font-family="Times,serif" font-size="14.00">UnitalChunk</text>
</g>
<!-- DifferentialModel&#45;&gt;UnitalChunk -->
<g id="edge22" class="edge">
<title>DifferentialModel&#45;&gt;UnitalChunk</title>
<path fill="none" stroke="black" d="M905.87,-144.41C895.12,-135.34 881.64,-123.97 869.88,-114.06"/>
<polygon fill="black" stroke="black" points="871.97,-111.24 862.07,-107.47 867.46,-116.59 871.97,-111.24"/>
</g>
<!-- ConstrConcept -->
<g id="node26" class="node">
<title>ConstrConcept</title>
<ellipse fill="none" stroke="black" cx="1009.54" cy="-90" rx="79.89" ry="18"/>
<text text-anchor="middle" x="1009.54" y="-86.3" font-family="Times,serif" font-size="14.00">ConstrConcept</text>
</g>
<!-- DifferentialModel&#45;&gt;ConstrConcept -->
<g id="edge23" class="edge">
<title>DifferentialModel&#45;&gt;ConstrConcept</title>
<path fill="none" stroke="black" d="M945.45,-144.41C956.33,-135.34 969.97,-123.97 981.87,-114.06"/>
<polygon fill="black" stroke="black" points="984.34,-116.56 989.78,-107.47 979.85,-111.18 984.34,-116.56"/>
</g>
<!-- InitialValueProblem -->
<g id="node27" class="node">
<title>InitialValueProblem</title>
<ellipse fill="none" stroke="#00cdcd" cx="311.54" cy="-162" rx="102.88" ry="18"/>
<text text-anchor="middle" x="311.54" y="-158.3" font-family="Times,serif" font-size="14.00">InitialValueProblem</text>
</g>
<!-- InitialValueProblem&#45;&gt;Expr -->
<g id="edge27" class="edge">
<title>InitialValueProblem&#45;&gt;Expr</title>
<path fill="none" stroke="black" d="M317.72,-143.7C320.54,-135.81 323.93,-126.3 327.06,-117.55"/>
<polygon fill="black" stroke="black" points="330.37,-118.7 330.43,-108.1 323.77,-116.34 330.37,-118.7"/>
</g>
<!-- ODESolverFormat -->
<g id="node28" class="node">
<title>ODESolverFormat</title>
<ellipse fill="none" stroke="#00cdcd" cx="95.54" cy="-162" rx="95.58" ry="18"/>
<text text-anchor="middle" x="95.54" y="-158.3" font-family="Times,serif" font-size="14.00">ODESolverFormat</text>
</g>
<!-- ODESolverFormat&#45;&gt;Expr -->
<g id="edge28" class="edge">
<title>ODESolverFormat&#45;&gt;Expr</title>
<path fill="none" stroke="black" d="M145.18,-146.58C190.63,-133.38 256.93,-114.12 298.36,-102.09"/>
<polygon fill="black" stroke="black" points="299.45,-105.42 308.07,-99.27 297.49,-98.7 299.45,-105.42"/>
</g>
<!-- ODESolverFormat&#45;&gt;Integer -->
<g id="edge29" class="edge">
<title>ODESolverFormat&#45;&gt;Integer</title>
<path fill="none" stroke="black" d="M128.02,-144.99C182.11,-118.31 290.31,-64.97 346.99,-37.02"/>
<polygon fill="black" stroke="black" points="348.87,-40 356.29,-32.43 345.78,-33.72 348.87,-40"/>
</g>
<!-- LHS -->
<g id="node30" class="node">
<title>LHS</title>
<ellipse fill="none" stroke="#ee0000" cx="466.54" cy="-234" rx="30.59" ry="18"/>
<text text-anchor="middle" x="466.54" y="-230.3" font-family="Times,serif" font-size="14.00">LHS</text>
</g>
<!-- LHS&#45;&gt;Term -->
<g id="edge31" class="edge">
<title>LHS&#45;&gt;Term</title>
<path fill="none" stroke="black" d="M466.54,-215.7C466.54,-207.98 466.54,-198.71 466.54,-190.11"/>
<polygon fill="black" stroke="black" points="470.04,-190.1 466.54,-180.1 463.04,-190.1 470.04,-190.1"/>
</g>
<!-- GenDefn -->
<g id="node31" class="node">
<title>GenDefn</title>
<ellipse fill="none" stroke="#00cdcd" cx="3028.54" cy="-234" rx="51.19" ry="18"/>
<text text-anchor="middle" x="3028.54" y="-230.3" font-family="Times,serif" font-size="14.00">GenDefn</text>
</g>
<!-- GenDefn&#45;&gt;Sentence -->
<g id="edge38" class="edge">
<title>GenDefn&#45;&gt;Sentence</title>
<path fill="none" stroke="black" d="M2991.74,-221.34C2983.83,-219.23 2975.46,-217.29 2967.54,-216 2660.08,-165.88 2575.21,-228.85 2267.54,-180 2262.76,-179.24 2257.82,-178.26 2252.9,-177.16"/>
<polygon fill="black" stroke="black" points="2253.45,-173.69 2242.91,-174.74 2251.81,-180.49 2253.45,-173.69"/>
</g>
<!-- GenDefn&#45;&gt;DecRef -->
<g id="edge35" class="edge">
<title>GenDefn&#45;&gt;DecRef</title>
<path fill="none" stroke="black" d="M3028.29,-215.7C3028.18,-207.98 3028.05,-198.71 3027.93,-190.11"/>
<polygon fill="black" stroke="black" points="3031.43,-190.05 3027.79,-180.1 3024.43,-190.15 3031.43,-190.05"/>
</g>
<!-- GenDefn&#45;&gt;MaybeDerivation -->
<g id="edge34" class="edge">
<title>GenDefn&#45;&gt;MaybeDerivation</title>
<path fill="none" stroke="black" d="M3071.82,-224.06C3128.61,-212.34 3229.02,-191.6 3296.9,-177.59"/>
<polygon fill="black" stroke="black" points="3298,-180.93 3307.09,-175.48 3296.59,-174.08 3298,-180.93"/>
</g>
<!-- GenDefn&#45;&gt;ShortName -->
<g id="edge36" class="edge">
<title>GenDefn&#45;&gt;ShortName</title>
<path fill="none" stroke="black" d="M3002.23,-218.5C2983.83,-208.36 2959,-194.67 2938.61,-183.43"/>
<polygon fill="black" stroke="black" points="2940.03,-180.22 2929.58,-178.46 2936.65,-186.35 2940.03,-180.22"/>
</g>
<!-- GenDefn&#45;&gt;String -->
<g id="edge37" class="edge">
<title>GenDefn&#45;&gt;String</title>
<path fill="none" stroke="black" d="M2989.85,-222.1C2982.45,-220.05 2974.76,-217.94 2967.54,-216 2905.91,-199.43 2889.63,-198.47 2828.54,-180 2825.62,-179.12 2822.61,-178.17 2819.59,-177.19"/>
<polygon fill="black" stroke="black" points="2820.59,-173.83 2810,-173.99 2818.38,-180.47 2820.59,-173.83"/>
</g>
<!-- ModelKindModelExpr -->
<g id="node32" class="node">
<title>ModelKindModelExpr</title>
<ellipse fill="none" stroke="black" cx="2608.54" cy="-162" rx="112.38" ry="18"/>
<text text-anchor="middle" x="2608.54" y="-158.3" font-family="Times,serif" font-size="14.00">ModelKindModelExpr</text>
</g>
<!-- GenDefn&#45;&gt;ModelKindModelExpr -->
<g id="edge32" class="edge">
<title>GenDefn&#45;&gt;ModelKindModelExpr</title>
<path fill="none" stroke="black" d="M2990.65,-221.65C2983.04,-219.59 2975.07,-217.6 2967.54,-216 2941.91,-210.56 2797.98,-189.81 2700.33,-175.94"/>
<polygon fill="black" stroke="black" points="2700.54,-172.44 2690.15,-174.5 2699.56,-179.37 2700.54,-172.44"/>
</g>
<!-- MaybeUnitDefn -->
<g id="node33" class="node">
<title>MaybeUnitDefn</title>
<ellipse fill="none" stroke="black" cx="3174.54" cy="-162" rx="84.49" ry="18"/>
<text text-anchor="middle" x="3174.54" y="-158.3" font-family="Times,serif" font-size="14.00">MaybeUnitDefn</text>
</g>
<!-- GenDefn&#45;&gt;MaybeUnitDefn -->
<g id="edge33" class="edge">
<title>GenDefn&#45;&gt;MaybeUnitDefn</title>
<path fill="none" stroke="black" d="M3057.74,-219C3079.19,-208.72 3108.65,-194.59 3132.61,-183.1"/>
<polygon fill="black" stroke="black" points="3134.33,-186.16 3141.84,-178.68 3131.31,-179.85 3134.33,-186.16"/>
</g>
<!-- InstanceModel -->
<g id="node34" class="node">
<title>InstanceModel</title>
<ellipse fill="none" stroke="#00cdcd" cx="3272.54" cy="-234" rx="79.09" ry="18"/>
<text text-anchor="middle" x="3272.54" y="-230.3" font-family="Times,serif" font-size="14.00">InstanceModel</text>
</g>
<!-- InstanceModel&#45;&gt;Sentence -->
<g id="edge46" class="edge">
<title>InstanceModel&#45;&gt;Sentence</title>
<path fill="none" stroke="black" d="M3201.83,-225.66C3167.64,-222.32 3125.99,-218.55 3088.54,-216 2724.15,-191.19 2628.48,-235.91 2267.54,-180 2262.76,-179.26 2257.81,-178.29 2252.89,-177.19"/>
<polygon fill="black" stroke="black" points="2253.44,-173.72 2242.9,-174.79 2251.81,-180.53 2253.44,-173.72"/>
</g>
<!-- InstanceModel&#45;&gt;DecRef -->
<g id="edge42" class="edge">
<title>InstanceModel&#45;&gt;DecRef</title>
<path fill="none" stroke="black" d="M3223.34,-219.85C3184.69,-209.39 3129.55,-194.21 3081.54,-180 3078.04,-178.96 3074.41,-177.87 3070.77,-176.75"/>
<polygon fill="black" stroke="black" points="3071.78,-173.4 3061.19,-173.79 3069.71,-180.09 3071.78,-173.4"/>
</g>
<!-- InstanceModel&#45;&gt;MaybeDerivation -->
<g id="edge43" class="edge">
<title>InstanceModel&#45;&gt;MaybeDerivation</title>
<path fill="none" stroke="black" d="M3295.06,-216.41C3307.6,-207.17 3323.39,-195.54 3337.02,-185.49"/>
<polygon fill="black" stroke="black" points="3339.22,-188.22 3345.19,-179.47 3335.06,-182.58 3339.22,-188.22"/>
</g>
<!-- InstanceModel&#45;&gt;ShortName -->
<g id="edge44" class="edge">
<title>InstanceModel&#45;&gt;ShortName</title>
<path fill="none" stroke="black" d="M3210.15,-222.89C3149.73,-212.86 3055.62,-196.64 2974.54,-180 2969.28,-178.92 2963.82,-177.75 2958.37,-176.54"/>
<polygon fill="black" stroke="black" points="2959.11,-173.12 2948.58,-174.34 2957.57,-179.95 2959.11,-173.12"/>
</g>
<!-- InstanceModel&#45;&gt;String -->
<g id="edge45" class="edge">
<title>InstanceModel&#45;&gt;String</title>
<path fill="none" stroke="black" d="M3200.39,-226.29C3093.29,-216.01 2897.48,-195.88 2828.54,-180 2825.34,-179.26 2822.05,-178.39 2818.77,-177.43"/>
<polygon fill="black" stroke="black" points="2819.63,-174.04 2809.04,-174.38 2817.53,-180.71 2819.63,-174.04"/>
</g>
<!-- ModelKindExpr -->
<g id="node35" class="node">
<title>ModelKindExpr</title>
<ellipse fill="none" stroke="black" cx="3763.54" cy="-162" rx="83.39" ry="18"/>
<text text-anchor="middle" x="3763.54" y="-158.3" font-family="Times,serif" font-size="14.00">ModelKindExpr</text>
</g>
<!-- InstanceModel&#45;&gt;ModelKindExpr -->
<g id="edge39" class="edge">
<title>InstanceModel&#45;&gt;ModelKindExpr</title>
<path fill="none" stroke="black" d="M3329.89,-221.41C3340.39,-219.47 3351.28,-217.57 3361.54,-216 3498.64,-194.97 3534.38,-200.61 3671.54,-180 3678.8,-178.91 3686.36,-177.67 3693.9,-176.38"/>
<polygon fill="black" stroke="black" points="3694.51,-179.82 3703.76,-174.65 3693.3,-172.93 3694.51,-179.82"/>
</g>
<!-- Inputs -->
<g id="node36" class="node">
<title>Inputs</title>
<ellipse fill="none" stroke="#ee0000" cx="3622.54" cy="-162" rx="40.09" ry="18"/>
<text text-anchor="middle" x="3622.54" y="-158.3" font-family="Times,serif" font-size="14.00">Inputs</text>
</g>
<!-- InstanceModel&#45;&gt;Inputs -->
<g id="edge40" class="edge">
<title>InstanceModel&#45;&gt;Inputs</title>
<path fill="none" stroke="black" d="M3330.92,-221.67C3341.12,-219.74 3351.63,-217.79 3361.54,-216 3455.59,-199.03 3480.97,-203.74 3573.54,-180 3576.68,-179.19 3579.91,-178.28 3583.13,-177.3"/>
<polygon fill="black" stroke="black" points="3584.27,-180.61 3592.72,-174.23 3582.13,-173.95 3584.27,-180.61"/>
</g>
<!-- Output -->
<g id="node37" class="node">
<title>Output</title>
<ellipse fill="none" stroke="#ee0000" cx="3520.54" cy="-162" rx="43.59" ry="18"/>
<text text-anchor="middle" x="3520.54" y="-158.3" font-family="Times,serif" font-size="14.00">Output</text>
</g>
<!-- InstanceModel&#45;&gt;Output -->
<g id="edge41" class="edge">
<title>InstanceModel&#45;&gt;Output</title>
<path fill="none" stroke="black" d="M3322.81,-220C3362.3,-209.63 3418.6,-194.49 3467.54,-180 3470.89,-179.01 3474.34,-177.96 3477.81,-176.89"/>
<polygon fill="black" stroke="black" points="3479.04,-180.17 3487.53,-173.84 3476.94,-173.49 3479.04,-180.17"/>
</g>
<!-- Input -->
<g id="node38" class="node">
<title>Input</title>
<ellipse fill="none" stroke="#ee0000" cx="3622.54" cy="-90" rx="36" ry="18"/>
<text text-anchor="middle" x="3622.54" y="-86.3" font-family="Times,serif" font-size="14.00">Input</text>
</g>
<!-- Inputs&#45;&gt;Input -->
<g id="edge48" class="edge">
<title>Inputs&#45;&gt;Input</title>
<path fill="none" stroke="black" d="M3622.54,-143.7C3622.54,-135.98 3622.54,-126.71 3622.54,-118.11"/>
<polygon fill="black" stroke="black" points="3626.04,-118.1 3622.54,-108.1 3619.04,-118.1 3626.04,-118.1"/>
</g>
<!-- DefinedQuantityDict -->
<g id="node40" class="node">
<title>DefinedQuantityDict</title>
<ellipse fill="none" stroke="black" cx="2468.54" cy="-90" rx="105.88" ry="18"/>
<text text-anchor="middle" x="2468.54" y="-86.3" font-family="Times,serif" font-size="14.00">DefinedQuantityDict</text>
</g>
<!-- Output&#45;&gt;DefinedQuantityDict -->
<g id="edge49" class="edge">
<title>Output&#45;&gt;DefinedQuantityDict</title>
<path fill="none" stroke="black" d="M3489.21,-149.49C3482.17,-147.31 3474.67,-145.31 3467.54,-144 3300.99,-113.4 2808.52,-98.67 2583.29,-93.38"/>
<polygon fill="black" stroke="black" points="2583.18,-89.88 2573.1,-93.14 2583.02,-96.88 2583.18,-89.88"/>
</g>
<!-- DefinedQuantityDictMaybeRealIntervalExprExpr -->
<g id="node39" class="node">
<title>DefinedQuantityDictMaybeRealIntervalExprExpr</title>
<ellipse fill="none" stroke="black" cx="3622.54" cy="-18" rx="239.36" ry="18"/>
<text text-anchor="middle" x="3622.54" y="-14.3" font-family="Times,serif" font-size="14.00">DefinedQuantityDictMaybeRealIntervalExprExpr</text>
</g>
<!-- Input&#45;&gt;DefinedQuantityDictMaybeRealIntervalExprExpr -->
<g id="edge47" class="edge">
<title>Input&#45;&gt;DefinedQuantityDictMaybeRealIntervalExprExpr</title>
<path fill="none" stroke="black" d="M3622.54,-71.7C3622.54,-63.98 3622.54,-54.71 3622.54,-46.11"/>
<polygon fill="black" stroke="black" points="3626.04,-46.1 3622.54,-36.1 3619.04,-46.1 3626.04,-46.1"/>
</g>
<!-- OutputConstraints -->
<g id="node41" class="node">
<title>OutputConstraints</title>
<ellipse fill="none" stroke="#ee0000" cx="3482.54" cy="-306" rx="97.48" ry="18"/>
<text text-anchor="middle" x="3482.54" y="-302.3" font-family="Times,serif" font-size="14.00">OutputConstraints</text>
</g>
<!-- RealIntervalExprExpr -->
<g id="node42" class="node">
<title>RealIntervalExprExpr</title>
<ellipse fill="none" stroke="black" cx="3482.54" cy="-234" rx="112.38" ry="18"/>
<text text-anchor="middle" x="3482.54" y="-230.3" font-family="Times,serif" font-size="14.00">RealIntervalExprExpr</text>
</g>
<!-- OutputConstraints&#45;&gt;RealIntervalExprExpr -->
<g id="edge50" class="edge">
<title>OutputConstraints&#45;&gt;RealIntervalExprExpr</title>
<path fill="none" stroke="black" d="M3482.54,-287.7C3482.54,-279.98 3482.54,-270.71 3482.54,-262.11"/>
<polygon fill="black" stroke="black" points="3486.04,-262.1 3482.54,-252.1 3479.04,-262.1 3486.04,-262.1"/>
</g>
<!-- ModelKinde -->
<g id="node43" class="node">
<title>ModelKinde</title>
<ellipse fill="none" stroke="#00cdcd" cx="1505.54" cy="-306" rx="66.09" ry="18"/>
<text text-anchor="middle" x="1505.54" y="-302.3" font-family="Times,serif" font-size="14.00">ModelKinde</text>
</g>
<!-- ModelKinde&#45;&gt;NP -->
<g id="edge53" class="edge">
<title>ModelKinde&#45;&gt;NP</title>
<path fill="none" stroke="black" d="M1567.78,-299.7C1632.57,-293.01 1736.41,-278.97 1822.54,-252 1824.47,-251.4 1826.43,-250.71 1828.39,-249.96"/>
<polygon fill="black" stroke="black" points="1830.15,-253.02 1837.99,-245.89 1827.42,-246.57 1830.15,-253.02"/>
</g>
<!-- ModelKinde&#45;&gt;UID -->
<g id="edge52" class="edge">
<title>ModelKinde&#45;&gt;UID</title>
<path fill="none" stroke="black" d="M1505.31,-287.67C1505.88,-268.46 1509.37,-237.39 1524.54,-216 1531.88,-205.65 1558.33,-190.25 1580.16,-178.71"/>
<polygon fill="black" stroke="black" points="1581.9,-181.75 1589.16,-174.03 1578.67,-175.54 1581.9,-181.75"/>
</g>
<!-- ModelKindse -->
<g id="node44" class="node">
<title>ModelKindse</title>
<ellipse fill="none" stroke="darkviolet" cx="1164.54" cy="-234" rx="71.49" ry="18"/>
<text text-anchor="middle" x="1164.54" y="-230.3" font-family="Times,serif" font-size="14.00">ModelKindse</text>
</g>
<!-- ModelKinde&#45;&gt;ModelKindse -->
<g id="edge51" class="edge">
<title>ModelKinde&#45;&gt;ModelKindse</title>
<path fill="none" stroke="black" d="M1454.12,-294.44C1393.72,-282.05 1293.5,-261.47 1228.23,-248.07"/>
<polygon fill="black" stroke="black" points="1228.57,-244.57 1218.07,-245.99 1227.16,-251.43 1228.57,-244.57"/>
</g>
<!-- ModelKindse&#45;&gt;DifferentialModel -->
<g id="edge54" class="edge">
<title>ModelKindse&#45;&gt;DifferentialModel</title>
<path fill="none" stroke="black" d="M1119.87,-219.92C1081.59,-208.71 1026.18,-192.48 984.32,-180.21"/>
<polygon fill="black" stroke="black" points="985.1,-176.8 974.52,-177.35 983.14,-183.52 985.1,-176.8"/>
</g>
<!-- ModelKinds -->
<g id="node45" class="node">
<title>ModelKinds</title>
<ellipse fill="none" stroke="black" cx="1234.54" cy="-162" rx="65.79" ry="18"/>
<text text-anchor="middle" x="1234.54" y="-158.3" font-family="Times,serif" font-size="14.00">ModelKinds</text>
</g>
<!-- ModelKindse&#45;&gt;ModelKinds -->
<g id="edge55" class="edge">
<title>ModelKindse&#45;&gt;ModelKinds</title>
<path fill="none" stroke="black" d="M1181.13,-216.41C1190.02,-207.52 1201.13,-196.41 1210.91,-186.63"/>
<polygon fill="black" stroke="black" points="1213.48,-189.02 1218.07,-179.47 1208.53,-184.07 1213.48,-189.02"/>
</g>
<!-- e -->
<g id="node46" class="node">
<title>e</title>
<ellipse fill="none" stroke="black" cx="1537.54" cy="-162" rx="27" ry="18"/>
<text text-anchor="middle" x="1537.54" y="-158.3" font-family="Times,serif" font-size="14.00">e</text>
</g>
<!-- ModelKindse&#45;&gt;e -->
<g id="edge56" class="edge">
<title>ModelKindse&#45;&gt;e</title>
<path fill="none" stroke="black" d="M1232.32,-228.05C1301.29,-221.7 1410.69,-207.96 1501.54,-180 1503.47,-179.41 1505.43,-178.72 1507.39,-177.99"/>
<polygon fill="black" stroke="black" points="1509.15,-181.04 1517,-173.93 1506.43,-174.59 1509.15,-181.04"/>
</g>
<!-- RelationConcept -->
<g id="node47" class="node">
<title>RelationConcept</title>
<ellipse fill="none" stroke="black" cx="1405.54" cy="-162" rx="87.18" ry="18"/>
<text text-anchor="middle" x="1405.54" y="-158.3" font-family="Times,serif" font-size="14.00">RelationConcept</text>
</g>
<!-- ModelKindse&#45;&gt;RelationConcept -->
<g id="edge57" class="edge">
<title>ModelKindse&#45;&gt;RelationConcept</title>
<path fill="none" stroke="black" d="M1209.59,-219.92C1248.52,-208.61 1305.03,-192.19 1347.37,-179.9"/>
<polygon fill="black" stroke="black" points="1348.36,-183.25 1356.99,-177.1 1346.41,-176.53 1348.36,-183.25"/>
</g>
<!-- ConstraintSet -->
<g id="node48" class="node">
<title>ConstraintSet</title>
<ellipse fill="none" stroke="black" cx="594.54" cy="-162" rx="75.29" ry="18"/>
<text text-anchor="middle" x="594.54" y="-158.3" font-family="Times,serif" font-size="14.00">ConstraintSet</text>
</g>
<!-- ModelKindse&#45;&gt;ConstraintSet -->
<g id="edge58" class="edge">
<title>ModelKindse&#45;&gt;ConstraintSet</title>
<path fill="none" stroke="black" d="M1097.47,-227.63C1003.48,-219.67 827.41,-203.13 678.54,-180 672.02,-178.99 665.24,-177.81 658.48,-176.57"/>
<polygon fill="black" stroke="black" points="659.11,-173.13 648.64,-174.7 657.81,-180 659.11,-173.13"/>
</g>
<!-- QDefinition -->
<g id="node49" class="node">
<title>QDefinition</title>
<ellipse fill="none" stroke="black" cx="751.54" cy="-162" rx="63.89" ry="18"/>
<text text-anchor="middle" x="751.54" y="-158.3" font-family="Times,serif" font-size="14.00">QDefinition</text>
</g>
<!-- ModelKindse&#45;&gt;QDefinition -->
<g id="edge59" class="edge">
<title>ModelKindse&#45;&gt;QDefinition</title>
<path fill="none" stroke="black" d="M1102.88,-224.79C1034.58,-215.37 921.31,-198.78 824.54,-180 819.19,-178.96 813.64,-177.81 808.09,-176.61"/>
<polygon fill="black" stroke="black" points="808.68,-173.15 798.16,-174.4 807.17,-179.98 808.68,-173.15"/>
</g>
<!-- MultiDefn -->
<g id="node50" class="node">
<title>MultiDefn</title>
<ellipse fill="none" stroke="black" cx="1093.54" cy="-162" rx="57.69" ry="18"/>
<text text-anchor="middle" x="1093.54" y="-158.3" font-family="Times,serif" font-size="14.00">MultiDefn</text>
</g>
<!-- ModelKindse&#45;&gt;MultiDefn -->
<g id="edge60" class="edge">
<title>ModelKindse&#45;&gt;MultiDefn</title>
<path fill="none" stroke="black" d="M1147.72,-216.41C1138.7,-207.52 1127.43,-196.41 1117.51,-186.63"/>
<polygon fill="black" stroke="black" points="1119.83,-184 1110.25,-179.47 1114.91,-188.98 1119.83,-184"/>
</g>
<!-- DefiningExpre -->
<g id="node51" class="node">
<title>DefiningExpre</title>
<ellipse fill="none" stroke="#00cdcd" cx="1610.54" cy="-234" rx="77.19" ry="18"/>
<text text-anchor="middle" x="1610.54" y="-230.3" font-family="Times,serif" font-size="14.00">DefiningExpre</text>
</g>
<!-- DefiningExpre&#45;&gt;UID -->
<g id="edge61" class="edge">
<title>DefiningExpre&#45;&gt;UID</title>
<path fill="none" stroke="black" d="M1610.79,-215.7C1610.9,-207.98 1611.03,-198.71 1611.15,-190.11"/>
<polygon fill="black" stroke="black" points="1614.65,-190.15 1611.3,-180.1 1607.65,-190.05 1614.65,-190.15"/>
</g>
<!-- DefiningExpre&#45;&gt;Sentence -->
<g id="edge62" class="edge">
<title>DefiningExpre&#45;&gt;Sentence</title>
<path fill="none" stroke="black" d="M1665.45,-221.24C1675.75,-219.29 1686.45,-217.44 1696.54,-216 1876.32,-190.36 1923.42,-203.09 2103.54,-180 2118.23,-178.12 2134.05,-175.66 2148.71,-173.2"/>
<polygon fill="black" stroke="black" points="2149.38,-176.64 2158.65,-171.51 2148.2,-169.74 2149.38,-176.64"/>
</g>
<!-- DefiningExpre&#45;&gt;e -->
<g id="edge63" class="edge">
<title>DefiningExpre&#45;&gt;e</title>
<path fill="none" stroke="black" d="M1593.24,-216.41C1583.2,-206.78 1570.45,-194.55 1559.68,-184.23"/>
<polygon fill="black" stroke="black" points="1561.89,-181.5 1552.25,-177.11 1557.05,-186.56 1561.89,-181.5"/>
</g>
<!-- MultiDefne -->
<g id="node52" class="node">
<title>MultiDefne</title>
<ellipse fill="none" stroke="#00cdcd" cx="1966.54" cy="-234" rx="63.09" ry="18"/>
<text text-anchor="middle" x="1966.54" y="-230.3" font-family="Times,serif" font-size="14.00">MultiDefne</text>
</g>
<!-- MultiDefne&#45;&gt;UID -->
<g id="edge64" class="edge">
<title>MultiDefne&#45;&gt;UID</title>
<path fill="none" stroke="black" d="M1920.58,-221.53C1911.95,-219.55 1902.99,-217.62 1894.54,-216 1786.88,-195.39 1755.93,-210.16 1650.54,-180 1648.12,-179.31 1645.65,-178.5 1643.19,-177.61"/>
<polygon fill="black" stroke="black" points="1644.44,-174.34 1633.85,-173.93 1641.87,-180.85 1644.44,-174.34"/>
</g>
<!-- MultiDefne&#45;&gt;Sentence -->
<g id="edge66" class="edge">
<title>MultiDefne&#45;&gt;Sentence</title>
<path fill="none" stroke="black" d="M2008.82,-220.57C2049.96,-208.47 2112.43,-190.09 2155.68,-177.37"/>
<polygon fill="black" stroke="black" points="2156.82,-180.69 2165.42,-174.51 2154.84,-173.97 2156.82,-180.69"/>
</g>
<!-- MultiDefne&#45;&gt;DefinedQuantityDict -->
<g id="edge65" class="edge">
<title>MultiDefne&#45;&gt;DefinedQuantityDict</title>
<path fill="none" stroke="black" d="M2010.24,-220.9C2038.2,-212.03 2074.55,-198.33 2103.54,-180 2123.21,-167.57 2120.69,-154.32 2141.54,-144 2206.98,-111.62 2287.94,-98.32 2352.93,-93.14"/>
<polygon fill="black" stroke="black" points="2353.5,-96.61 2363.22,-92.38 2352.99,-89.62 2353.5,-96.61"/>
</g>
<!-- NonEmptyDefiningExpre -->
<g id="node53" class="node">
<title>NonEmptyDefiningExpre</title>
<ellipse fill="none" stroke="black" cx="1786.54" cy="-162" rx="127.28" ry="18"/>
<text text-anchor="middle" x="1786.54" y="-158.3" font-family="Times,serif" font-size="14.00">NonEmptyDefiningExpre</text>
</g>
<!-- MultiDefne&#45;&gt;NonEmptyDefiningExpre -->
<g id="edge67" class="edge">
<title>MultiDefne&#45;&gt;NonEmptyDefiningExpre</title>
<path fill="none" stroke="black" d="M1930.55,-219C1903.79,-208.6 1866.94,-194.26 1837.21,-182.7"/>
<polygon fill="black" stroke="black" points="1838.41,-179.42 1827.83,-179.05 1835.88,-185.94 1838.41,-179.42"/>
</g>
<!-- TheoryModel -->
<g id="node54" class="node">
<title>TheoryModel</title>
<ellipse fill="none" stroke="#00cdcd" cx="2547.54" cy="-234" rx="71.49" ry="18"/>
<text text-anchor="middle" x="2547.54" y="-230.3" font-family="Times,serif" font-size="14.00">TheoryModel</text>
</g>
<!-- TheoryModel&#45;&gt;Sentence -->
<g id="edge76" class="edge">
<title>TheoryModel&#45;&gt;Sentence</title>
<path fill="none" stroke="black" d="M2489.63,-223.37C2432.82,-213.61 2343.86,-197.49 2267.54,-180 2263.2,-179 2258.71,-177.91 2254.21,-176.78"/>
<polygon fill="black" stroke="black" points="2254.98,-173.36 2244.42,-174.25 2253.23,-180.14 2254.98,-173.36"/>
</g>
<!-- TheoryModel&#45;&gt;ConceptChunk -->
<g id="edge71" class="edge">
<title>TheoryModel&#45;&gt;ConceptChunk</title>
<path fill="none" stroke="black" d="M2524.19,-216.96C2488.6,-192.64 2423.63,-148.72 2411.54,-144 2336.8,-114.79 2246,-101.67 2180.77,-95.79"/>
<polygon fill="black" stroke="black" points="2180.79,-92.27 2170.52,-94.9 2180.19,-99.25 2180.79,-92.27"/>
</g>
<!-- TheoryModel&#45;&gt;DecRef -->
<g id="edge73" class="edge">
<title>TheoryModel&#45;&gt;DecRef</title>
<path fill="none" stroke="black" d="M2603.42,-222.68C2617.16,-220.32 2631.86,-217.93 2645.54,-216 2791.19,-195.42 2830.67,-210.62 2974.54,-180 2978.16,-179.23 2981.87,-178.31 2985.58,-177.3"/>
<polygon fill="black" stroke="black" points="2986.68,-180.63 2995.31,-174.48 2984.73,-173.91 2986.68,-180.63"/>
</g>
<!-- TheoryModel&#45;&gt;ShortName -->
<g id="edge74" class="edge">
<title>TheoryModel&#45;&gt;ShortName</title>
<path fill="none" stroke="black" d="M2604.46,-222.99C2661.33,-212.83 2751.18,-196.3 2828.54,-180 2833.79,-178.89 2839.25,-177.7 2844.71,-176.48"/>
<polygon fill="black" stroke="black" points="2845.5,-179.89 2854.48,-174.27 2843.96,-173.06 2845.5,-179.89"/>
</g>
<!-- TheoryModel&#45;&gt;String -->
<g id="edge75" class="edge">
<title>TheoryModel&#45;&gt;String</title>
<path fill="none" stroke="black" d="M2593.71,-220.17C2630.6,-209.76 2683.56,-194.5 2729.54,-180 2732.65,-179.02 2735.85,-177.99 2739.07,-176.93"/>
<polygon fill="black" stroke="black" points="2740.29,-180.21 2748.67,-173.73 2738.08,-173.57 2740.29,-180.21"/>
</g>
<!-- TheoryModel&#45;&gt;ModelQDef -->
<g id="edge72" class="edge">
<title>TheoryModel&#45;&gt;ModelQDef</title>
<path fill="none" stroke="black" d="M2506.45,-219.17C2472.57,-207.77 2424.44,-191.57 2388.56,-179.5"/>
<polygon fill="black" stroke="black" points="2389.38,-176.08 2378.79,-176.21 2387.15,-182.72 2389.38,-176.08"/>
</g>
<!-- TheoryModel&#45;&gt;ModelKindModelExpr -->
<g id="edge68" class="edge">
<title>TheoryModel&#45;&gt;ModelKindModelExpr</title>
<path fill="none" stroke="black" d="M2562.31,-216.05C2569.69,-207.58 2578.77,-197.17 2586.92,-187.82"/>
<polygon fill="black" stroke="black" points="2589.56,-190.11 2593.49,-180.28 2584.28,-185.51 2589.56,-190.11"/>
</g>
<!-- TheoryModel&#45;&gt;DefinedQuantityDict -->
<g id="edge70" class="edge">
<title>TheoryModel&#45;&gt;DefinedQuantityDict</title>
<path fill="none" stroke="black" d="M2522.77,-216.9C2510.35,-207.57 2496.17,-194.76 2487.54,-180 2476.55,-161.18 2471.88,-136.81 2469.92,-118.32"/>
<polygon fill="black" stroke="black" points="2473.4,-117.87 2469.05,-108.21 2466.42,-118.47 2473.4,-117.87"/>
</g>
<!-- TheoryModel&#45;&gt;TheoryModel -->
<g id="edge69" class="edge">
<title>TheoryModel&#45;&gt;TheoryModel</title>
<path fill="none" stroke="black" d="M2596.33,-247.29C2618.16,-248.55 2637.04,-244.12 2637.04,-234 2637.04,-225.54 2623.84,-221.05 2606.76,-220.55"/>
<polygon fill="black" stroke="black" points="2606.27,-217.06 2596.33,-220.71 2606.38,-224.05 2606.27,-217.06"/>
</g>
</g>
</svg>
