<?xml version="1.0" encoding="UTF-8" standalone="no"?>
<!DOCTYPE svg PUBLIC "-//W3C//DTD SVG 1.1//EN"
 "http://www.w3.org/Graphics/SVG/1.1/DTD/svg11.dtd">
<!-- Generated by graphviz version 2.43.0 (0)
 -->
<!-- Title: alltypes Pages: 1 -->
<svg width="4093pt" height="332pt"
 viewBox="0.00 0.00 4093.08 332.00" xmlns="http://www.w3.org/2000/svg" xmlns:xlink="http://www.w3.org/1999/xlink">
<g id="graph0" class="graph" transform="scale(1 1) rotate(0) translate(4 328)">
<title>alltypes</title>
<polygon fill="white" stroke="transparent" points="-4,4 -4,-328 4089.08,-328 4089.08,4 -4,4"/>
<!-- ConstraintSete -->
<g id="node1" class="node">
<title>ConstraintSete</title>
<ellipse fill="none" stroke="#00cdcd" cx="382.64" cy="-234" rx="81.49" ry="18"/>
<text text-anchor="middle" x="382.64" y="-230.3" font-family="Times,serif" font-size="14.00">ConstraintSete</text>
</g>
<!-- ConceptChunk -->
<g id="node2" class="node">
<title>ConceptChunk</title>
<ellipse fill="none" stroke="black" cx="699.64" cy="-162" rx="78.79" ry="18"/>
<text text-anchor="middle" x="699.64" y="-158.3" font-family="Times,serif" font-size="14.00">ConceptChunk</text>
</g>
<!-- ConstraintSete&#45;&gt;ConceptChunk -->
<g id="edge1" class="edge">
<title>ConstraintSete&#45;&gt;ConceptChunk</title>
<path fill="none" stroke="black" d="M438.22,-220.73C493.28,-208.57 577.53,-189.97 635.42,-177.18"/>
<polygon fill="black" stroke="black" points="636.18,-180.6 645.19,-175.02 634.67,-173.76 636.18,-180.6"/>
</g>
<!-- NonEmptye -->
<g id="node3" class="node">
<title>NonEmptye</title>
<ellipse fill="none" stroke="black" cx="65.64" cy="-162" rx="65.79" ry="18"/>
<text text-anchor="middle" x="65.64" y="-158.3" font-family="Times,serif" font-size="14.00">NonEmptye</text>
</g>
<!-- ConstraintSete&#45;&gt;NonEmptye -->
<g id="edge2" class="edge">
<title>ConstraintSete&#45;&gt;NonEmptye</title>
<path fill="none" stroke="black" d="M326.14,-220.86C276.86,-210.23 203.48,-194.29 139.64,-180 134.63,-178.88 129.42,-177.7 124.2,-176.52"/>
<polygon fill="black" stroke="black" points="124.72,-173.04 114.19,-174.23 123.16,-179.87 124.72,-173.04"/>
</g>
<!-- DDPkt -->
<g id="node4" class="node">
<title>DDPkt</title>
<ellipse fill="none" stroke="#00cdcd" cx="3159.64" cy="-234" rx="40.89" ry="18"/>
<text text-anchor="middle" x="3159.64" y="-230.3" font-family="Times,serif" font-size="14.00">DDPkt</text>
</g>
<!-- UID -->
<g id="node5" class="node">
<title>UID</title>
<ellipse fill="none" stroke="black" cx="3480.64" cy="-18" rx="29.5" ry="18"/>
<text text-anchor="middle" x="3480.64" y="-14.3" font-family="Times,serif" font-size="14.00">UID</text>
</g>
<!-- DDPkt&#45;&gt;UID -->
<g id="edge3" class="edge">
<title>DDPkt&#45;&gt;UID</title>
<path fill="none" stroke="black" d="M3193.49,-223.86C3203.21,-221.27 3213.84,-218.49 3223.64,-216 3289.68,-199.25 3318.28,-221.06 3372.64,-180 3416.63,-146.78 3401.62,-116.87 3433.64,-72 3441.16,-61.47 3450.43,-50.65 3458.75,-41.55"/>
<polygon fill="black" stroke="black" points="3461.49,-43.74 3465.75,-34.04 3456.37,-38.97 3461.49,-43.74"/>
</g>
<!-- ScopeType -->
<g id="node6" class="node">
<title>ScopeType</title>
<ellipse fill="none" stroke="darkviolet" cx="3480.64" cy="-162" rx="61.19" ry="18"/>
<text text-anchor="middle" x="3480.64" y="-158.3" font-family="Times,serif" font-size="14.00">ScopeType</text>
</g>
<!-- DDPkt&#45;&gt;ScopeType -->
<g id="edge4" class="edge">
<title>DDPkt&#45;&gt;ScopeType</title>
<path fill="none" stroke="black" d="M3193.42,-223.59C3203.15,-221 3213.79,-218.28 3223.64,-216 3303.98,-197.41 3324.98,-197.12 3405.64,-180 3411.5,-178.76 3417.61,-177.43 3423.7,-176.08"/>
<polygon fill="black" stroke="black" points="3424.88,-179.4 3433.88,-173.81 3423.36,-172.57 3424.88,-179.4"/>
</g>
<!-- DecRef -->
<g id="node7" class="node">
<title>DecRef</title>
<ellipse fill="none" stroke="black" cx="2605.64" cy="-162" rx="44.39" ry="18"/>
<text text-anchor="middle" x="2605.64" y="-158.3" font-family="Times,serif" font-size="14.00">DecRef</text>
</g>
<!-- DDPkt&#45;&gt;DecRef -->
<g id="edge5" class="edge">
<title>DDPkt&#45;&gt;DecRef</title>
<path fill="none" stroke="black" d="M3129.84,-221.52C3123.27,-219.37 3116.29,-217.37 3109.64,-216 2912.72,-175.32 2855.91,-218.97 2658.64,-180 2654.97,-179.27 2651.19,-178.38 2647.42,-177.38"/>
<polygon fill="black" stroke="black" points="2648.14,-173.94 2637.56,-174.55 2646.21,-180.67 2648.14,-173.94"/>
</g>
<!-- MaybeDerivation -->
<g id="node8" class="node">
<title>MaybeDerivation</title>
<ellipse fill="none" stroke="black" cx="3146.64" cy="-162" rx="90.98" ry="18"/>
<text text-anchor="middle" x="3146.64" y="-158.3" font-family="Times,serif" font-size="14.00">MaybeDerivation</text>
</g>
<!-- DDPkt&#45;&gt;MaybeDerivation -->
<g id="edge6" class="edge">
<title>DDPkt&#45;&gt;MaybeDerivation</title>
<path fill="none" stroke="black" d="M3156.43,-215.7C3155,-207.98 3153.28,-198.71 3151.68,-190.11"/>
<polygon fill="black" stroke="black" points="3155.09,-189.3 3149.82,-180.1 3148.21,-190.58 3155.09,-189.3"/>
</g>
<!-- ShortName -->
<g id="node9" class="node">
<title>ShortName</title>
<ellipse fill="none" stroke="black" cx="2381.64" cy="-162" rx="63.89" ry="18"/>
<text text-anchor="middle" x="2381.64" y="-158.3" font-family="Times,serif" font-size="14.00">ShortName</text>
</g>
<!-- DDPkt&#45;&gt;ShortName -->
<g id="edge7" class="edge">
<title>DDPkt&#45;&gt;ShortName</title>
<path fill="none" stroke="black" d="M3130.13,-221.48C3123.48,-219.31 3116.4,-217.31 3109.64,-216 2823.41,-160.56 2743.27,-221.22 2454.64,-180 2448.78,-179.16 2442.7,-178.09 2436.66,-176.88"/>
<polygon fill="black" stroke="black" points="2437.09,-173.4 2426.58,-174.76 2435.65,-180.25 2437.09,-173.4"/>
</g>
<!-- String -->
<g id="node10" class="node">
<title>String</title>
<ellipse fill="none" stroke="black" cx="2503.64" cy="-162" rx="40.09" ry="18"/>
<text text-anchor="middle" x="2503.64" y="-158.3" font-family="Times,serif" font-size="14.00">String</text>
</g>
<!-- DDPkt&#45;&gt;String -->
<g id="edge8" class="edge">
<title>DDPkt&#45;&gt;String</title>
<path fill="none" stroke="black" d="M3129.85,-221.45C3123.28,-219.3 3116.3,-217.32 3109.64,-216 2866.33,-167.65 2795.81,-229.1 2552.64,-180 2549.28,-179.32 2545.82,-178.46 2542.39,-177.5"/>
<polygon fill="black" stroke="black" points="2543.41,-174.16 2532.82,-174.56 2541.35,-180.85 2543.41,-174.16"/>
</g>
<!-- Sentence -->
<g id="node11" class="node">
<title>Sentence</title>
<ellipse fill="none" stroke="black" cx="3309.64" cy="-162" rx="53.89" ry="18"/>
<text text-anchor="middle" x="3309.64" y="-158.3" font-family="Times,serif" font-size="14.00">Sentence</text>
</g>
<!-- DDPkt&#45;&gt;Sentence -->
<g id="edge9" class="edge">
<title>DDPkt&#45;&gt;Sentence</title>
<path fill="none" stroke="black" d="M3186.81,-220.32C3210.12,-209.45 3244.01,-193.63 3270.29,-181.37"/>
<polygon fill="black" stroke="black" points="3272.01,-184.42 3279.59,-177.02 3269.05,-178.08 3272.01,-184.42"/>
</g>
<!-- Scope -->
<g id="node12" class="node">
<title>Scope</title>
<ellipse fill="none" stroke="darkgreen" cx="3480.64" cy="-90" rx="38.19" ry="18"/>
<text text-anchor="middle" x="3480.64" y="-86.3" font-family="Times,serif" font-size="14.00">Scope</text>
</g>
<!-- ScopeType&#45;&gt;Scope -->
<g id="edge10" class="edge">
<title>ScopeType&#45;&gt;Scope</title>
<path fill="none" stroke="black" d="M3480.64,-143.7C3480.64,-135.98 3480.64,-126.71 3480.64,-118.11"/>
<polygon fill="black" stroke="black" points="3484.14,-118.1 3480.64,-108.1 3477.14,-118.1 3484.14,-118.1"/>
</g>
<!-- Scope&#45;&gt;UID -->
<g id="edge17" class="edge">
<title>Scope&#45;&gt;UID</title>
<path fill="none" stroke="black" d="M3480.64,-71.7C3480.64,-63.98 3480.64,-54.71 3480.64,-46.11"/>
<polygon fill="black" stroke="black" points="3484.14,-46.1 3480.64,-36.1 3477.14,-46.1 3484.14,-46.1"/>
</g>
<!-- DataDefinition -->
<g id="node13" class="node">
<title>DataDefinition</title>
<ellipse fill="none" stroke="darkviolet" cx="3159.64" cy="-306" rx="77.99" ry="18"/>
<text text-anchor="middle" x="3159.64" y="-302.3" font-family="Times,serif" font-size="14.00">DataDefinition</text>
</g>
<!-- DataDefinition&#45;&gt;DDPkt -->
<g id="edge12" class="edge">
<title>DataDefinition&#45;&gt;DDPkt</title>
<path fill="none" stroke="black" d="M3159.64,-287.7C3159.64,-279.98 3159.64,-270.71 3159.64,-262.11"/>
<polygon fill="black" stroke="black" points="3163.14,-262.1 3159.64,-252.1 3156.14,-262.1 3163.14,-262.1"/>
</g>
<!-- DataDefinition&#45;&gt;DataDefinition -->
<g id="edge13" class="edge">
<title>DataDefinition&#45;&gt;DataDefinition</title>
<path fill="none" stroke="black" d="M3212.46,-319.31C3235.67,-320.49 3255.64,-316.05 3255.64,-306 3255.64,-297.44 3241.16,-292.95 3222.53,-292.53"/>
<polygon fill="black" stroke="black" points="3222.41,-289.03 3212.46,-292.69 3222.52,-296.03 3222.41,-289.03"/>
</g>
<!-- SimpleQDef -->
<g id="node14" class="node">
<title>SimpleQDef</title>
<ellipse fill="none" stroke="black" cx="3684.64" cy="-234" rx="66.09" ry="18"/>
<text text-anchor="middle" x="3684.64" y="-230.3" font-family="Times,serif" font-size="14.00">SimpleQDef</text>
</g>
<!-- DataDefinition&#45;&gt;SimpleQDef -->
<g id="edge11" class="edge">
<title>DataDefinition&#45;&gt;SimpleQDef</title>
<path fill="none" stroke="black" d="M3231.68,-298.88C3320.82,-290.77 3477.07,-274.77 3609.64,-252 3615.15,-251.05 3620.87,-249.96 3626.57,-248.8"/>
<polygon fill="black" stroke="black" points="3627.72,-252.13 3636.78,-246.64 3626.28,-245.28 3627.72,-252.13"/>
</g>
<!-- ModelQDef -->
<g id="node15" class="node">
<title>ModelQDef</title>
<ellipse fill="none" stroke="black" cx="1417.64" cy="-162" rx="63.09" ry="18"/>
<text text-anchor="middle" x="1417.64" y="-158.3" font-family="Times,serif" font-size="14.00">ModelQDef</text>
</g>
<!-- DataDefinition&#45;&gt;ModelQDef -->
<g id="edge14" class="edge">
<title>DataDefinition&#45;&gt;ModelQDef</title>
<path fill="none" stroke="black" d="M3082.04,-303.45C2838.51,-298.34 2091.31,-280.69 1850.64,-252 1712.93,-235.58 1553.88,-197.99 1472.23,-177.3"/>
<polygon fill="black" stroke="black" points="1472.98,-173.88 1462.43,-174.81 1471.26,-180.67 1472.98,-173.88"/>
</g>
<!-- Lens_ -->
<g id="node16" class="node">
<title>Lens_</title>
<ellipse fill="none" stroke="black" cx="3805.64" cy="-234" rx="37.09" ry="18"/>
<text text-anchor="middle" x="3805.64" y="-230.3" font-family="Times,serif" font-size="14.00">Lens_</text>
</g>
<!-- DataDefinition&#45;&gt;Lens_ -->
<g id="edge15" class="edge">
<title>DataDefinition&#45;&gt;Lens_</title>
<path fill="none" stroke="black" d="M3237.85,-304.68C3353.35,-302.73 3575.74,-293.33 3759.64,-252 3762.62,-251.33 3765.67,-250.52 3768.7,-249.61"/>
<polygon fill="black" stroke="black" points="3769.87,-252.91 3778.27,-246.47 3767.68,-246.26 3769.87,-252.91"/>
</g>
<!-- a -->
<g id="node17" class="node">
<title>a</title>
<ellipse fill="none" stroke="black" cx="3073.64" cy="-234" rx="27" ry="18"/>
<text text-anchor="middle" x="3073.64" y="-230.3" font-family="Times,serif" font-size="14.00">a</text>
</g>
<!-- DataDefinition&#45;&gt;a -->
<g id="edge16" class="edge">
<title>DataDefinition&#45;&gt;a</title>
<path fill="none" stroke="black" d="M3139.26,-288.41C3126.96,-278.4 3111.2,-265.57 3098.21,-254.99"/>
<polygon fill="black" stroke="black" points="3100.1,-252.02 3090.14,-248.42 3095.68,-257.45 3100.1,-252.02"/>
</g>
<!-- GenDefn -->
<g id="node18" class="node">
<title>GenDefn</title>
<ellipse fill="none" stroke="#00cdcd" cx="2503.64" cy="-234" rx="51.19" ry="18"/>
<text text-anchor="middle" x="2503.64" y="-230.3" font-family="Times,serif" font-size="14.00">GenDefn</text>
</g>
<!-- GenDefn&#45;&gt;DecRef -->
<g id="edge21" class="edge">
<title>GenDefn&#45;&gt;DecRef</title>
<path fill="none" stroke="black" d="M2526.03,-217.64C2540.58,-207.65 2559.72,-194.52 2575.58,-183.63"/>
<polygon fill="black" stroke="black" points="2577.75,-186.39 2584.01,-177.85 2573.79,-180.62 2577.75,-186.39"/>
</g>
<!-- GenDefn&#45;&gt;MaybeDerivation -->
<g id="edge20" class="edge">
<title>GenDefn&#45;&gt;MaybeDerivation</title>
<path fill="none" stroke="black" d="M2552.61,-228.42C2676.93,-216.77 2998.35,-186.45 3046.64,-180 3054.86,-178.9 3063.44,-177.63 3071.97,-176.29"/>
<polygon fill="black" stroke="black" points="3072.61,-179.73 3081.93,-174.69 3071.5,-172.82 3072.61,-179.73"/>
</g>
<!-- GenDefn&#45;&gt;ShortName -->
<g id="edge22" class="edge">
<title>GenDefn&#45;&gt;ShortName</title>
<path fill="none" stroke="black" d="M2478.07,-218.33C2460.46,-208.22 2436.81,-194.65 2417.35,-183.49"/>
<polygon fill="black" stroke="black" points="2418.87,-180.32 2408.45,-178.38 2415.38,-186.39 2418.87,-180.32"/>
</g>
<!-- GenDefn&#45;&gt;String -->
<g id="edge23" class="edge">
<title>GenDefn&#45;&gt;String</title>
<path fill="none" stroke="black" d="M2503.64,-215.7C2503.64,-207.98 2503.64,-198.71 2503.64,-190.11"/>
<polygon fill="black" stroke="black" points="2507.14,-190.1 2503.64,-180.1 2500.14,-190.1 2507.14,-190.1"/>
</g>
<!-- GenDefn&#45;&gt;Sentence -->
<g id="edge24" class="edge">
<title>GenDefn&#45;&gt;Sentence</title>
<path fill="none" stroke="black" d="M2552.57,-228.17C2590.06,-224.56 2643.09,-219.63 2689.64,-216 2936.97,-196.71 3001.9,-220.51 3246.64,-180 3251.42,-179.21 3256.36,-178.21 3261.27,-177.09"/>
<polygon fill="black" stroke="black" points="3262.37,-180.42 3271.26,-174.66 3260.72,-173.62 3262.37,-180.42"/>
</g>
<!-- ModelKindModelExpr -->
<g id="node19" class="node">
<title>ModelKindModelExpr</title>
<ellipse fill="none" stroke="black" cx="2000.64" cy="-162" rx="112.38" ry="18"/>
<text text-anchor="middle" x="2000.64" y="-158.3" font-family="Times,serif" font-size="14.00">ModelKindModelExpr</text>
</g>
<!-- GenDefn&#45;&gt;ModelKindModelExpr -->
<g id="edge18" class="edge">
<title>GenDefn&#45;&gt;ModelKindModelExpr</title>
<path fill="none" stroke="black" d="M2456.72,-226.48C2384.81,-216.48 2243.03,-196.76 2122.64,-180 2112.87,-178.64 2102.66,-177.22 2092.49,-175.8"/>
<polygon fill="black" stroke="black" points="2092.73,-172.3 2082.35,-174.39 2091.77,-179.23 2092.73,-172.3"/>
</g>
<!-- MaybeUnitDefn -->
<g id="node20" class="node">
<title>MaybeUnitDefn</title>
<ellipse fill="none" stroke="black" cx="2215.64" cy="-162" rx="84.49" ry="18"/>
<text text-anchor="middle" x="2215.64" y="-158.3" font-family="Times,serif" font-size="14.00">MaybeUnitDefn</text>
</g>
<!-- GenDefn&#45;&gt;MaybeUnitDefn -->
<g id="edge19" class="edge">
<title>GenDefn&#45;&gt;MaybeUnitDefn</title>
<path fill="none" stroke="black" d="M2462.69,-223.05C2414.78,-211.4 2334.92,-191.99 2279.01,-178.4"/>
<polygon fill="black" stroke="black" points="2279.75,-174.98 2269.21,-176.02 2278.1,-181.78 2279.75,-174.98"/>
</g>
<!-- InstanceModel -->
<g id="node21" class="node">
<title>InstanceModel</title>
<ellipse fill="none" stroke="#00cdcd" cx="2777.64" cy="-234" rx="79.09" ry="18"/>
<text text-anchor="middle" x="2777.64" y="-230.3" font-family="Times,serif" font-size="14.00">InstanceModel</text>
</g>
<!-- InstanceModel&#45;&gt;DecRef -->
<g id="edge28" class="edge">
<title>InstanceModel&#45;&gt;DecRef</title>
<path fill="none" stroke="black" d="M2740.75,-217.98C2712.63,-206.54 2673.99,-190.82 2645.24,-179.11"/>
<polygon fill="black" stroke="black" points="2646.47,-175.84 2635.89,-175.31 2643.83,-182.32 2646.47,-175.84"/>
</g>
<!-- InstanceModel&#45;&gt;MaybeDerivation -->
<g id="edge29" class="edge">
<title>InstanceModel&#45;&gt;MaybeDerivation</title>
<path fill="none" stroke="black" d="M2836.52,-221.83C2900.81,-209.63 3003.86,-190.09 3073.34,-176.91"/>
<polygon fill="black" stroke="black" points="3074.17,-180.31 3083.34,-175.01 3072.86,-173.43 3074.17,-180.31"/>
</g>
<!-- InstanceModel&#45;&gt;ShortName -->
<g id="edge30" class="edge">
<title>InstanceModel&#45;&gt;ShortName</title>
<path fill="none" stroke="black" d="M2712.76,-223.64C2647.38,-213.91 2543.69,-197.65 2454.64,-180 2449.3,-178.94 2443.75,-177.77 2438.21,-176.56"/>
<polygon fill="black" stroke="black" points="2438.8,-173.11 2428.28,-174.34 2437.27,-179.94 2438.8,-173.11"/>
</g>
<!-- InstanceModel&#45;&gt;String -->
<g id="edge31" class="edge">
<title>InstanceModel&#45;&gt;String</title>
<path fill="none" stroke="black" d="M2720.82,-221.31C2675.08,-211.49 2609.3,-196.45 2552.64,-180 2549.67,-179.14 2546.61,-178.2 2543.54,-177.22"/>
<polygon fill="black" stroke="black" points="2544.4,-173.82 2533.81,-174.01 2542.21,-180.47 2544.4,-173.82"/>
</g>
<!-- InstanceModel&#45;&gt;Sentence -->
<g id="edge32" class="edge">
<title>InstanceModel&#45;&gt;Sentence</title>
<path fill="none" stroke="black" d="M2852.49,-228.05C2945.5,-221.09 3108.79,-206.23 3246.64,-180 3251.27,-179.12 3256.05,-178.08 3260.82,-176.95"/>
<polygon fill="black" stroke="black" points="3261.68,-180.34 3270.54,-174.53 3259.99,-173.55 3261.68,-180.34"/>
</g>
<!-- ModelKindExpr -->
<g id="node22" class="node">
<title>ModelKindExpr</title>
<ellipse fill="none" stroke="black" cx="2848.64" cy="-162" rx="83.39" ry="18"/>
<text text-anchor="middle" x="2848.64" y="-158.3" font-family="Times,serif" font-size="14.00">ModelKindExpr</text>
</g>
<!-- InstanceModel&#45;&gt;ModelKindExpr -->
<g id="edge25" class="edge">
<title>InstanceModel&#45;&gt;ModelKindExpr</title>
<path fill="none" stroke="black" d="M2794.83,-216.05C2803.73,-207.28 2814.73,-196.43 2824.47,-186.83"/>
<polygon fill="black" stroke="black" points="2826.95,-189.3 2831.62,-179.79 2822.04,-184.32 2826.95,-189.3"/>
</g>
<!-- Inputs -->
<g id="node23" class="node">
<title>Inputs</title>
<ellipse fill="none" stroke="#ee0000" cx="2707.64" cy="-162" rx="40.09" ry="18"/>
<text text-anchor="middle" x="2707.64" y="-158.3" font-family="Times,serif" font-size="14.00">Inputs</text>
</g>
<!-- InstanceModel&#45;&gt;Inputs -->
<g id="edge26" class="edge">
<title>InstanceModel&#45;&gt;Inputs</title>
<path fill="none" stroke="black" d="M2760.7,-216.05C2751.67,-207.03 2740.44,-195.79 2730.63,-185.99"/>
<polygon fill="black" stroke="black" points="2733.02,-183.43 2723.47,-178.83 2728.07,-188.38 2733.02,-183.43"/>
</g>
<!-- Output -->
<g id="node24" class="node">
<title>Output</title>
<ellipse fill="none" stroke="#ee0000" cx="2993.64" cy="-162" rx="43.59" ry="18"/>
<text text-anchor="middle" x="2993.64" y="-158.3" font-family="Times,serif" font-size="14.00">Output</text>
</g>
<!-- InstanceModel&#45;&gt;Output -->
<g id="edge27" class="edge">
<title>InstanceModel&#45;&gt;Output</title>
<path fill="none" stroke="black" d="M2821.1,-218.92C2858.87,-206.68 2913.28,-189.05 2950.85,-176.87"/>
<polygon fill="black" stroke="black" points="2952.07,-180.15 2960.5,-173.74 2949.91,-173.49 2952.07,-180.15"/>
</g>
<!-- Input -->
<g id="node25" class="node">
<title>Input</title>
<ellipse fill="none" stroke="#ee0000" cx="1262.64" cy="-90" rx="36" ry="18"/>
<text text-anchor="middle" x="1262.64" y="-86.3" font-family="Times,serif" font-size="14.00">Input</text>
</g>
<!-- Inputs&#45;&gt;Input -->
<g id="edge34" class="edge">
<title>Inputs&#45;&gt;Input</title>
<path fill="none" stroke="black" d="M2678.75,-149.39C2672.23,-147.22 2665.28,-145.25 2658.64,-144 2390.99,-93.65 1518.56,-90.85 1308.46,-90.92"/>
<polygon fill="black" stroke="black" points="1308.39,-87.42 1298.4,-90.93 1308.4,-94.42 1308.39,-87.42"/>
</g>
<!-- DefinedQuantityDict -->
<g id="node27" class="node">
<title>DefinedQuantityDict</title>
<ellipse fill="none" stroke="black" cx="2993.64" cy="-90" rx="105.88" ry="18"/>
<text text-anchor="middle" x="2993.64" y="-86.3" font-family="Times,serif" font-size="14.00">DefinedQuantityDict</text>
</g>
<!-- Output&#45;&gt;DefinedQuantityDict -->
<g id="edge35" class="edge">
<title>Output&#45;&gt;DefinedQuantityDict</title>
<path fill="none" stroke="black" d="M2993.64,-143.7C2993.64,-135.98 2993.64,-126.71 2993.64,-118.11"/>
<polygon fill="black" stroke="black" points="2997.14,-118.1 2993.64,-108.1 2990.14,-118.1 2997.14,-118.1"/>
</g>
<!-- DefinedQuantityDictMaybeRealIntervalExprExpr -->
<g id="node26" class="node">
<title>DefinedQuantityDictMaybeRealIntervalExprExpr</title>
<ellipse fill="none" stroke="black" cx="1262.64" cy="-18" rx="239.36" ry="18"/>
<text text-anchor="middle" x="1262.64" y="-14.3" font-family="Times,serif" font-size="14.00">DefinedQuantityDictMaybeRealIntervalExprExpr</text>
</g>
<!-- Input&#45;&gt;DefinedQuantityDictMaybeRealIntervalExprExpr -->
<g id="edge33" class="edge">
<title>Input&#45;&gt;DefinedQuantityDictMaybeRealIntervalExprExpr</title>
<path fill="none" stroke="black" d="M1262.64,-71.7C1262.64,-63.98 1262.64,-54.71 1262.64,-46.11"/>
<polygon fill="black" stroke="black" points="1266.14,-46.1 1262.64,-36.1 1259.14,-46.1 1266.14,-46.1"/>
</g>
<!-- OutputConstraints -->
<g id="node28" class="node">
<title>OutputConstraints</title>
<ellipse fill="none" stroke="#ee0000" cx="3972.64" cy="-306" rx="97.48" ry="18"/>
<text text-anchor="middle" x="3972.64" y="-302.3" font-family="Times,serif" font-size="14.00">OutputConstraints</text>
</g>
<!-- RealIntervalExprExpr -->
<g id="node29" class="node">
<title>RealIntervalExprExpr</title>
<ellipse fill="none" stroke="black" cx="3972.64" cy="-234" rx="112.38" ry="18"/>
<text text-anchor="middle" x="3972.64" y="-230.3" font-family="Times,serif" font-size="14.00">RealIntervalExprExpr</text>
</g>
<!-- OutputConstraints&#45;&gt;RealIntervalExprExpr -->
<g id="edge36" class="edge">
<title>OutputConstraints&#45;&gt;RealIntervalExprExpr</title>
<path fill="none" stroke="black" d="M3972.64,-287.7C3972.64,-279.98 3972.64,-270.71 3972.64,-262.11"/>
<polygon fill="black" stroke="black" points="3976.14,-262.1 3972.64,-252.1 3969.14,-262.1 3976.14,-262.1"/>
</g>
<!-- ModelKinde -->
<g id="node30" class="node">
<title>ModelKinde</title>
<ellipse fill="none" stroke="#00cdcd" cx="1209.64" cy="-306" rx="66.09" ry="18"/>
<text text-anchor="middle" x="1209.64" y="-302.3" font-family="Times,serif" font-size="14.00">ModelKinde</text>
</g>
<!-- ModelKinde&#45;&gt;UID -->
<g id="edge38" class="edge">
<title>ModelKinde&#45;&gt;UID</title>
<path fill="none" stroke="black" d="M1222.58,-288.22C1253.25,-248.68 1329.04,-152.31 1345.64,-144 1539.99,-46.76 3164.54,-22.83 3440.79,-19.45"/>
<polygon fill="black" stroke="black" points="3441.18,-22.95 3451.13,-19.33 3441.09,-15.95 3441.18,-22.95"/>
</g>
<!-- ModelKindse -->
<g id="node31" class="node">
<title>ModelKindse</title>
<ellipse fill="none" stroke="darkviolet" cx="951.64" cy="-234" rx="71.49" ry="18"/>
<text text-anchor="middle" x="951.64" y="-230.3" font-family="Times,serif" font-size="14.00">ModelKindse</text>
</g>
<!-- ModelKinde&#45;&gt;ModelKindse -->
<g id="edge37" class="edge">
<title>ModelKinde&#45;&gt;ModelKindse</title>
<path fill="none" stroke="black" d="M1164.41,-292.73C1120.96,-280.94 1055.19,-263.09 1008.28,-250.37"/>
<polygon fill="black" stroke="black" points="1009.14,-246.97 998.57,-247.73 1007.31,-253.73 1009.14,-246.97"/>
</g>
<!-- NP -->
<g id="node32" class="node">
<title>NP</title>
<ellipse fill="none" stroke="black" cx="1209.64" cy="-234" rx="27" ry="18"/>
<text text-anchor="middle" x="1209.64" y="-230.3" font-family="Times,serif" font-size="14.00">NP</text>
</g>
<!-- ModelKinde&#45;&gt;NP -->
<g id="edge39" class="edge">
<title>ModelKinde&#45;&gt;NP</title>
<path fill="none" stroke="black" d="M1209.64,-287.7C1209.64,-279.98 1209.64,-270.71 1209.64,-262.11"/>
<polygon fill="black" stroke="black" points="1213.14,-262.1 1209.64,-252.1 1206.14,-262.1 1213.14,-262.1"/>
</g>
<!-- DifferentialModel -->
<g id="node33" class="node">
<title>DifferentialModel</title>
<ellipse fill="none" stroke="black" cx="1206.64" cy="-162" rx="92.08" ry="18"/>
<text text-anchor="middle" x="1206.64" y="-158.3" font-family="Times,serif" font-size="14.00">DifferentialModel</text>
</g>
<!-- ModelKindse&#45;&gt;DifferentialModel -->
<g id="edge40" class="edge">
<title>ModelKindse&#45;&gt;DifferentialModel</title>
<path fill="none" stroke="black" d="M998.12,-220.24C1039.47,-208.89 1100.25,-192.21 1145.53,-179.78"/>
<polygon fill="black" stroke="black" points="1146.51,-183.14 1155.23,-177.11 1144.66,-176.39 1146.51,-183.14"/>
</g>
<!-- ModelKinds -->
<g id="node34" class="node">
<title>ModelKinds</title>
<ellipse fill="none" stroke="black" cx="1030.64" cy="-162" rx="65.79" ry="18"/>
<text text-anchor="middle" x="1030.64" y="-158.3" font-family="Times,serif" font-size="14.00">ModelKinds</text>
</g>
<!-- ModelKindse&#45;&gt;ModelKinds -->
<g id="edge41" class="edge">
<title>ModelKindse&#45;&gt;ModelKinds</title>
<path fill="none" stroke="black" d="M970.37,-216.41C980.5,-207.43 993.18,-196.19 1004.3,-186.34"/>
<polygon fill="black" stroke="black" points="1006.89,-188.72 1012.06,-179.47 1002.25,-183.48 1006.89,-188.72"/>
</g>
<!-- e -->
<g id="node35" class="node">
<title>e</title>
<ellipse fill="none" stroke="black" cx="1667.64" cy="-162" rx="27" ry="18"/>
<text text-anchor="middle" x="1667.64" y="-158.3" font-family="Times,serif" font-size="14.00">e</text>
</g>
<!-- ModelKindse&#45;&gt;e -->
<g id="edge42" class="edge">
<title>ModelKindse&#45;&gt;e</title>
<path fill="none" stroke="black" d="M1018.91,-227.84C1189.89,-214.7 1627.96,-180.98 1631.64,-180 1633.82,-179.42 1636.02,-178.72 1638.2,-177.93"/>
<polygon fill="black" stroke="black" points="1639.67,-181.11 1647.57,-174.05 1636.99,-174.64 1639.67,-181.11"/>
</g>
<!-- RelationConcept -->
<g id="node36" class="node">
<title>RelationConcept</title>
<ellipse fill="none" stroke="black" cx="515.64" cy="-162" rx="87.18" ry="18"/>
<text text-anchor="middle" x="515.64" y="-158.3" font-family="Times,serif" font-size="14.00">RelationConcept</text>
</g>
<!-- ModelKindse&#45;&gt;RelationConcept -->
<g id="edge43" class="edge">
<title>ModelKindse&#45;&gt;RelationConcept</title>
<path fill="none" stroke="black" d="M891.7,-224.04C823.73,-213.79 709.61,-196.31 611.64,-180 604.27,-178.77 596.59,-177.46 588.92,-176.14"/>
<polygon fill="black" stroke="black" points="589.32,-172.65 578.87,-174.39 588.12,-179.55 589.32,-172.65"/>
</g>
<!-- ConstraintSet -->
<g id="node37" class="node">
<title>ConstraintSet</title>
<ellipse fill="none" stroke="black" cx="871.64" cy="-162" rx="75.29" ry="18"/>
<text text-anchor="middle" x="871.64" y="-158.3" font-family="Times,serif" font-size="14.00">ConstraintSet</text>
</g>
<!-- ModelKindse&#45;&gt;ConstraintSet -->
<g id="edge44" class="edge">
<title>ModelKindse&#45;&gt;ConstraintSet</title>
<path fill="none" stroke="black" d="M932.69,-216.41C922.32,-207.34 909.33,-195.97 898,-186.06"/>
<polygon fill="black" stroke="black" points="900.3,-183.42 890.47,-179.47 895.69,-188.69 900.3,-183.42"/>
</g>
<!-- QDefinition -->
<g id="node38" class="node">
<title>QDefinition</title>
<ellipse fill="none" stroke="black" cx="212.64" cy="-162" rx="63.89" ry="18"/>
<text text-anchor="middle" x="212.64" y="-158.3" font-family="Times,serif" font-size="14.00">QDefinition</text>
</g>
<!-- ModelKindse&#45;&gt;QDefinition -->
<g id="edge45" class="edge">
<title>ModelKindse&#45;&gt;QDefinition</title>
<path fill="none" stroke="black" d="M881.25,-230.85C759.3,-226.37 501.12,-213.47 285.64,-180 279.88,-179.1 273.89,-178 267.94,-176.79"/>
<polygon fill="black" stroke="black" points="268.51,-173.33 258,-174.67 267.05,-180.18 268.51,-173.33"/>
</g>
<!-- MultiDefn -->
<g id="node39" class="node">
<title>MultiDefn</title>
<ellipse fill="none" stroke="black" cx="352.64" cy="-162" rx="57.69" ry="18"/>
<text text-anchor="middle" x="352.64" y="-158.3" font-family="Times,serif" font-size="14.00">MultiDefn</text>
</g>
<!-- ModelKindse&#45;&gt;MultiDefn -->
<g id="edge46" class="edge">
<title>ModelKindse&#45;&gt;MultiDefn</title>
<path fill="none" stroke="black" d="M882.33,-229.4C780.36,-223.37 584.2,-208.91 419.64,-180 414.6,-179.11 409.38,-178.05 404.18,-176.9"/>
<polygon fill="black" stroke="black" points="404.79,-173.44 394.25,-174.58 403.2,-180.26 404.79,-173.44"/>
</g>
<!-- DefiningExpre -->
<g id="node40" class="node">
<title>DefiningExpre</title>
<ellipse fill="none" stroke="#00cdcd" cx="3309.64" cy="-234" rx="77.19" ry="18"/>
<text text-anchor="middle" x="3309.64" y="-230.3" font-family="Times,serif" font-size="14.00">DefiningExpre</text>
</g>
<!-- DefiningExpre&#45;&gt;UID -->
<g id="edge47" class="edge">
<title>DefiningExpre&#45;&gt;UID</title>
<path fill="none" stroke="black" d="M3381.04,-227.04C3444.25,-220.12 3529.64,-206.13 3550.64,-180 3585.3,-136.9 3535.66,-74.01 3503.81,-41.04"/>
<polygon fill="black" stroke="black" points="3506.07,-38.35 3496.55,-33.71 3501.1,-43.28 3506.07,-38.35"/>
</g>
<!-- DefiningExpre&#45;&gt;Sentence -->
<g id="edge48" class="edge">
<title>DefiningExpre&#45;&gt;Sentence</title>
<path fill="none" stroke="black" d="M3309.64,-215.7C3309.64,-207.98 3309.64,-198.71 3309.64,-190.11"/>
<polygon fill="black" stroke="black" points="3313.14,-190.1 3309.64,-180.1 3306.14,-190.1 3313.14,-190.1"/>
</g>
<!-- DefiningExpre&#45;&gt;e -->
<g id="edge49" class="edge">
<title>DefiningExpre&#45;&gt;e</title>
<path fill="none" stroke="black" d="M3252.46,-221.82C3238.5,-219.49 3223.58,-217.34 3209.64,-216 3043.04,-199.93 1866.52,-218.57 1703.64,-180 1701.46,-179.48 1699.25,-178.82 1697.05,-178.06"/>
<polygon fill="black" stroke="black" points="1698.25,-174.77 1687.67,-174.25 1695.61,-181.26 1698.25,-174.77"/>
</g>
<!-- MultiDefne -->
<g id="node41" class="node">
<title>MultiDefne</title>
<ellipse fill="none" stroke="#00cdcd" cx="3537.64" cy="-234" rx="63.09" ry="18"/>
<text text-anchor="middle" x="3537.64" y="-230.3" font-family="Times,serif" font-size="14.00">MultiDefne</text>
</g>
<!-- MultiDefne&#45;&gt;UID -->
<g id="edge50" class="edge">
<title>MultiDefne&#45;&gt;UID</title>
<path fill="none" stroke="black" d="M3550.63,-216.3C3572.72,-185.69 3612.56,-119.4 3583.64,-72 3569.35,-48.57 3541.01,-35.05 3517.68,-27.55"/>
<polygon fill="black" stroke="black" points="3518.62,-24.17 3508.04,-24.68 3516.63,-30.88 3518.62,-24.17"/>
</g>
<!-- MultiDefne&#45;&gt;Sentence -->
<g id="edge52" class="edge">
<title>MultiDefne&#45;&gt;Sentence</title>
<path fill="none" stroke="black" d="M3496.36,-220.32C3457.35,-208.35 3398.86,-190.39 3357.76,-177.77"/>
<polygon fill="black" stroke="black" points="3358.56,-174.36 3347.97,-174.77 3356.5,-181.05 3358.56,-174.36"/>
</g>
<!-- MultiDefne&#45;&gt;DefinedQuantityDict -->
<g id="edge51" class="edge">
<title>MultiDefne&#45;&gt;DefinedQuantityDict</title>
<path fill="none" stroke="black" d="M3547.28,-215.91C3557.05,-196.06 3568.4,-163.52 3550.64,-144 3521.47,-111.92 3261.95,-98.8 3107.66,-93.81"/>
<polygon fill="black" stroke="black" points="3107.76,-90.31 3097.65,-93.49 3107.53,-97.3 3107.76,-90.31"/>
</g>
<!-- NonEmptyDefiningExpre -->
<g id="node42" class="node">
<title>NonEmptyDefiningExpre</title>
<ellipse fill="none" stroke="black" cx="3800.64" cy="-162" rx="127.28" ry="18"/>
<text text-anchor="middle" x="3800.64" y="-158.3" font-family="Times,serif" font-size="14.00">NonEmptyDefiningExpre</text>
</g>
<!-- MultiDefne&#45;&gt;NonEmptyDefiningExpre -->
<g id="edge53" class="edge">
<title>MultiDefne&#45;&gt;NonEmptyDefiningExpre</title>
<path fill="none" stroke="black" d="M3582.26,-221.13C3623.85,-210.05 3686.44,-193.4 3733.96,-180.75"/>
<polygon fill="black" stroke="black" points="3735.1,-184.07 3743.86,-178.11 3733.3,-177.3 3735.1,-184.07"/>
</g>
<!-- TheoryModel -->
<g id="node43" class="node">
<title>TheoryModel</title>
<ellipse fill="none" stroke="#00cdcd" cx="1930.64" cy="-234" rx="71.49" ry="18"/>
<text text-anchor="middle" x="1930.64" y="-230.3" font-family="Times,serif" font-size="14.00">TheoryModel</text>
</g>
<!-- TheoryModel&#45;&gt;ConceptChunk -->
<g id="edge58" class="edge">
<title>TheoryModel&#45;&gt;ConceptChunk</title>
<path fill="none" stroke="black" d="M1859.87,-231.06C1644.14,-224.93 996.86,-204.93 787.64,-180 780.23,-179.12 772.51,-177.97 764.85,-176.68"/>
<polygon fill="black" stroke="black" points="765.3,-173.21 754.85,-174.93 764.09,-180.1 765.3,-173.21"/>
</g>
<!-- TheoryModel&#45;&gt;DecRef -->
<g id="edge61" class="edge">
<title>TheoryModel&#45;&gt;DecRef</title>
<path fill="none" stroke="black" d="M2001.8,-232.13C2118.13,-229.55 2355.79,-219.43 2552.64,-180 2556.32,-179.26 2560.1,-178.36 2563.86,-177.36"/>
<polygon fill="black" stroke="black" points="2565.08,-180.65 2573.72,-174.52 2563.14,-173.92 2565.08,-180.65"/>
</g>
<!-- TheoryModel&#45;&gt;ShortName -->
<g id="edge62" class="edge">
<title>TheoryModel&#45;&gt;ShortName</title>
<path fill="none" stroke="black" d="M1994.46,-225.82C2069.84,-216.93 2198.87,-200.44 2308.64,-180 2314.08,-178.99 2319.72,-177.84 2325.36,-176.64"/>
<polygon fill="black" stroke="black" points="2326.42,-179.99 2335.43,-174.42 2324.92,-173.15 2326.42,-179.99"/>
</g>
<!-- TheoryModel&#45;&gt;String -->
<g id="edge63" class="edge">
<title>TheoryModel&#45;&gt;String</title>
<path fill="none" stroke="black" d="M2001.39,-231.06C2102.85,-227.11 2295.05,-215.25 2454.64,-180 2457.85,-179.29 2461.14,-178.44 2464.43,-177.5"/>
<polygon fill="black" stroke="black" points="2465.66,-180.78 2474.16,-174.47 2463.58,-174.1 2465.66,-180.78"/>
</g>
<!-- TheoryModel&#45;&gt;Sentence -->
<g id="edge64" class="edge">
<title>TheoryModel&#45;&gt;Sentence</title>
<path fill="none" stroke="black" d="M2001.29,-230.59C2265.67,-221.52 3184.77,-189.47 3246.64,-180 3251.43,-179.27 3256.38,-178.3 3261.29,-177.21"/>
<polygon fill="black" stroke="black" points="3262.38,-180.55 3271.29,-174.81 3260.75,-173.74 3262.38,-180.55"/>
</g>
<!-- TheoryModel&#45;&gt;ModelQDef -->
<g id="edge59" class="edge">
<title>TheoryModel&#45;&gt;ModelQDef</title>
<path fill="none" stroke="black" d="M1864.18,-227.36C1777.56,-219.47 1621.57,-203.42 1489.64,-180 1484.27,-179.05 1478.7,-177.94 1473.14,-176.76"/>
<polygon fill="black" stroke="black" points="1473.71,-173.3 1463.19,-174.57 1472.2,-180.14 1473.71,-173.3"/>
</g>
<!-- TheoryModel&#45;&gt;ModelKindModelExpr -->
<g id="edge54" class="edge">
<title>TheoryModel&#45;&gt;ModelKindModelExpr</title>
<path fill="none" stroke="black" d="M1947.23,-216.41C1956,-207.65 1966.91,-196.73 1976.59,-187.06"/>
<polygon fill="black" stroke="black" points="1979.09,-189.5 1983.69,-179.96 1974.14,-184.55 1979.09,-189.5"/>
</g>
<!-- TheoryModel&#45;&gt;DefinedQuantityDict -->
<g id="edge57" class="edge">
<title>TheoryModel&#45;&gt;DefinedQuantityDict</title>
<path fill="none" stroke="black" d="M1909.78,-216.7C1887.75,-197.59 1858.87,-165.78 1879.64,-144 1913.69,-108.29 2599.92,-95.85 2878.05,-92.26"/>
<polygon fill="black" stroke="black" points="2878.22,-95.75 2888.18,-92.13 2878.13,-88.76 2878.22,-95.75"/>
</g>
<!-- TheoryModel&#45;&gt;TheoryModel -->
<g id="edge55" class="edge">
<title>TheoryModel&#45;&gt;TheoryModel</title>
<path fill="none" stroke="black" d="M1979.43,-247.29C2001.26,-248.55 2020.14,-244.12 2020.14,-234 2020.14,-225.54 2006.95,-221.05 1989.87,-220.55"/>
<polygon fill="black" stroke="black" points="1989.38,-217.06 1979.43,-220.71 1989.49,-224.05 1989.38,-217.06"/>
</g>
<!-- SpaceDefn -->
<g id="node44" class="node">
<title>SpaceDefn</title>
<ellipse fill="none" stroke="black" cx="1772.64" cy="-162" rx="60.39" ry="18"/>
<text text-anchor="middle" x="1772.64" y="-158.3" font-family="Times,serif" font-size="14.00">SpaceDefn</text>
</g>
<!-- TheoryModel&#45;&gt;SpaceDefn -->
<g id="edge56" class="edge">
<title>TheoryModel&#45;&gt;SpaceDefn</title>
<path fill="none" stroke="black" d="M1896.75,-217.98C1872.52,-207.25 1839.78,-192.75 1814.01,-181.33"/>
<polygon fill="black" stroke="black" points="1815.43,-178.13 1804.86,-177.27 1812.59,-184.53 1815.43,-178.13"/>
</g>
<!-- ModelExpr -->
<g id="node45" class="node">
<title>ModelExpr</title>
<ellipse fill="none" stroke="black" cx="1560.64" cy="-162" rx="61.99" ry="18"/>
<text text-anchor="middle" x="1560.64" y="-158.3" font-family="Times,serif" font-size="14.00">ModelExpr</text>
</g>
<!-- TheoryModel&#45;&gt;ModelExpr -->
<g id="edge60" class="edge">
<title>TheoryModel&#45;&gt;ModelExpr</title>
<path fill="none" stroke="black" d="M1872.01,-223.67C1811.58,-213.8 1714.74,-197.3 1631.64,-180 1626.58,-178.95 1621.32,-177.79 1616.06,-176.61"/>
<polygon fill="black" stroke="black" points="1616.54,-173.12 1606.01,-174.29 1614.96,-179.94 1616.54,-173.12"/>
</g>
</g>
</svg>
