<?xml version="1.0" encoding="UTF-8" standalone="no"?>
<!DOCTYPE svg PUBLIC "-//W3C//DTD SVG 1.1//EN"
 "http://www.w3.org/Graphics/SVG/1.1/DTD/svg11.dtd">
<!-- Generated by graphviz version 2.43.0 (0)
 -->
<!-- Title: alltypes Pages: 1 -->
<svg width="3898pt" height="332pt"
 viewBox="0.00 0.00 3898.03 332.00" xmlns="http://www.w3.org/2000/svg" xmlns:xlink="http://www.w3.org/1999/xlink">
<g id="graph0" class="graph" transform="scale(1 1) rotate(0) translate(4 328)">
<title>alltypes</title>
<polygon fill="white" stroke="transparent" points="-4,4 -4,-328 3894.03,-328 3894.03,4 -4,4"/>
<!-- ConstraintSete -->
<g id="node1" class="node">
<title>ConstraintSete</title>
<ellipse fill="none" stroke="#00cdcd" cx="370.64" cy="-234" rx="81.49" ry="18"/>
<text text-anchor="middle" x="370.64" y="-230.3" font-family="Times,serif" font-size="14.00">ConstraintSete</text>
</g>
<!-- ConceptChunk -->
<g id="node2" class="node">
<title>ConceptChunk</title>
<ellipse fill="none" stroke="black" cx="675.64" cy="-162" rx="78.79" ry="18"/>
<text text-anchor="middle" x="675.64" y="-158.3" font-family="Times,serif" font-size="14.00">ConceptChunk</text>
</g>
<!-- ConstraintSete&#45;&gt;ConceptChunk -->
<g id="edge1" class="edge">
<title>ConstraintSete&#45;&gt;ConceptChunk</title>
<path fill="none" stroke="black" d="M424.82,-220.57C477.28,-208.53 556.79,-190.28 612.18,-177.57"/>
<polygon fill="black" stroke="black" points="613.26,-180.91 622.23,-175.26 611.7,-174.09 613.26,-180.91"/>
</g>
<!-- NonEmptye -->
<g id="node3" class="node">
<title>NonEmptye</title>
<ellipse fill="none" stroke="black" cx="65.64" cy="-162" rx="65.79" ry="18"/>
<text text-anchor="middle" x="65.64" y="-158.3" font-family="Times,serif" font-size="14.00">NonEmptye</text>
</g>
<!-- ConstraintSete&#45;&gt;NonEmptye -->
<g id="edge2" class="edge">
<title>ConstraintSete&#45;&gt;NonEmptye</title>
<path fill="none" stroke="black" d="M316.47,-220.57C262.48,-208.18 179.84,-189.21 124.32,-176.47"/>
<polygon fill="black" stroke="black" points="124.82,-172.99 114.29,-174.16 123.25,-179.81 124.82,-172.99"/>
</g>
<!-- DDPkt -->
<g id="node4" class="node">
<title>DDPkt</title>
<ellipse fill="none" stroke="#00cdcd" cx="2753.64" cy="-234" rx="40.89" ry="18"/>
<text text-anchor="middle" x="2753.64" y="-230.3" font-family="Times,serif" font-size="14.00">DDPkt</text>
</g>
<!-- ScopeType -->
<g id="node5" class="node">
<title>ScopeType</title>
<ellipse fill="none" stroke="darkviolet" cx="2928.64" cy="-162" rx="61.19" ry="18"/>
<text text-anchor="middle" x="2928.64" y="-158.3" font-family="Times,serif" font-size="14.00">ScopeType</text>
</g>
<!-- DDPkt&#45;&gt;ScopeType -->
<g id="edge3" class="edge">
<title>DDPkt&#45;&gt;ScopeType</title>
<path fill="none" stroke="black" d="M2782.94,-221.28C2810.62,-210.21 2852.54,-193.44 2884.32,-180.73"/>
<polygon fill="black" stroke="black" points="2885.85,-183.89 2893.83,-176.92 2883.25,-177.39 2885.85,-183.89"/>
</g>
<!-- DecRef -->
<g id="node6" class="node">
<title>DecRef</title>
<ellipse fill="none" stroke="black" cx="2459.64" cy="-162" rx="44.39" ry="18"/>
<text text-anchor="middle" x="2459.64" y="-158.3" font-family="Times,serif" font-size="14.00">DecRef</text>
</g>
<!-- DDPkt&#45;&gt;DecRef -->
<g id="edge4" class="edge">
<title>DDPkt&#45;&gt;DecRef</title>
<path fill="none" stroke="black" d="M2723.18,-221.88C2716.78,-219.76 2710.03,-217.68 2703.64,-216 2620.1,-194.04 2596.38,-201.23 2512.64,-180 2509.22,-179.13 2505.68,-178.16 2502.15,-177.14"/>
<polygon fill="black" stroke="black" points="2502.84,-173.69 2492.26,-174.16 2500.82,-180.4 2502.84,-173.69"/>
</g>
<!-- MaybeDerivation -->
<g id="node7" class="node">
<title>MaybeDerivation</title>
<ellipse fill="none" stroke="black" cx="2758.64" cy="-162" rx="90.98" ry="18"/>
<text text-anchor="middle" x="2758.64" y="-158.3" font-family="Times,serif" font-size="14.00">MaybeDerivation</text>
</g>
<!-- DDPkt&#45;&gt;MaybeDerivation -->
<g id="edge5" class="edge">
<title>DDPkt&#45;&gt;MaybeDerivation</title>
<path fill="none" stroke="black" d="M2754.88,-215.7C2755.43,-207.98 2756.09,-198.71 2756.71,-190.11"/>
<polygon fill="black" stroke="black" points="2760.2,-190.33 2757.42,-180.1 2753.22,-189.83 2760.2,-190.33"/>
</g>
<!-- ShortName -->
<g id="node8" class="node">
<title>ShortName</title>
<ellipse fill="none" stroke="black" cx="2585.64" cy="-162" rx="63.89" ry="18"/>
<text text-anchor="middle" x="2585.64" y="-158.3" font-family="Times,serif" font-size="14.00">ShortName</text>
</g>
<!-- DDPkt&#45;&gt;ShortName -->
<g id="edge6" class="edge">
<title>DDPkt&#45;&gt;ShortName</title>
<path fill="none" stroke="black" d="M2724.76,-220.97C2698.52,-210.03 2659.43,-193.74 2629.36,-181.21"/>
<polygon fill="black" stroke="black" points="2630.52,-177.91 2619.94,-177.29 2627.83,-184.37 2630.52,-177.91"/>
</g>
<!-- String -->
<g id="node9" class="node">
<title>String</title>
<ellipse fill="none" stroke="black" cx="2357.64" cy="-162" rx="40.09" ry="18"/>
<text text-anchor="middle" x="2357.64" y="-158.3" font-family="Times,serif" font-size="14.00">String</text>
</g>
<!-- DDPkt&#45;&gt;String -->
<g id="edge7" class="edge">
<title>DDPkt&#45;&gt;String</title>
<path fill="none" stroke="black" d="M2723.53,-221.64C2717.04,-219.51 2710.17,-217.49 2703.64,-216 2574.01,-186.44 2536.19,-209.96 2406.64,-180 2403.44,-179.26 2400.16,-178.38 2396.88,-177.43"/>
<polygon fill="black" stroke="black" points="2397.74,-174.03 2387.15,-174.37 2395.64,-180.71 2397.74,-174.03"/>
</g>
<!-- Sentence -->
<g id="node10" class="node">
<title>Sentence</title>
<ellipse fill="none" stroke="black" cx="3061.64" cy="-162" rx="53.89" ry="18"/>
<text text-anchor="middle" x="3061.64" y="-158.3" font-family="Times,serif" font-size="14.00">Sentence</text>
</g>
<!-- DDPkt&#45;&gt;Sentence -->
<g id="edge8" class="edge">
<title>DDPkt&#45;&gt;Sentence</title>
<path fill="none" stroke="black" d="M2784.1,-221.86C2790.51,-219.74 2797.26,-217.67 2803.64,-216 2888.92,-193.76 2912.7,-199.5 2998.64,-180 3002.99,-179.01 3007.48,-177.93 3011.98,-176.8"/>
<polygon fill="black" stroke="black" points="3012.96,-180.16 3021.77,-174.28 3011.22,-173.39 3012.96,-180.16"/>
</g>
<!-- Scope -->
<g id="node11" class="node">
<title>Scope</title>
<ellipse fill="none" stroke="darkgreen" cx="2928.64" cy="-90" rx="38.19" ry="18"/>
<text text-anchor="middle" x="2928.64" y="-86.3" font-family="Times,serif" font-size="14.00">Scope</text>
</g>
<!-- ScopeType&#45;&gt;Scope -->
<g id="edge9" class="edge">
<title>ScopeType&#45;&gt;Scope</title>
<path fill="none" stroke="black" d="M2928.64,-143.7C2928.64,-135.98 2928.64,-126.71 2928.64,-118.11"/>
<polygon fill="black" stroke="black" points="2932.14,-118.1 2928.64,-108.1 2925.14,-118.1 2932.14,-118.1"/>
</g>
<!-- UID -->
<g id="node17" class="node">
<title>UID</title>
<ellipse fill="none" stroke="black" cx="2928.64" cy="-18" rx="29.5" ry="18"/>
<text text-anchor="middle" x="2928.64" y="-14.3" font-family="Times,serif" font-size="14.00">UID</text>
</g>
<!-- Scope&#45;&gt;UID -->
<g id="edge16" class="edge">
<title>Scope&#45;&gt;UID</title>
<path fill="none" stroke="black" d="M2928.64,-71.7C2928.64,-63.98 2928.64,-54.71 2928.64,-46.11"/>
<polygon fill="black" stroke="black" points="2932.14,-46.1 2928.64,-36.1 2925.14,-46.1 2932.14,-46.1"/>
</g>
<!-- DataDefinition -->
<g id="node12" class="node">
<title>DataDefinition</title>
<ellipse fill="none" stroke="darkviolet" cx="2753.64" cy="-306" rx="77.99" ry="18"/>
<text text-anchor="middle" x="2753.64" y="-302.3" font-family="Times,serif" font-size="14.00">DataDefinition</text>
</g>
<!-- DataDefinition&#45;&gt;DDPkt -->
<g id="edge11" class="edge">
<title>DataDefinition&#45;&gt;DDPkt</title>
<path fill="none" stroke="black" d="M2753.64,-287.7C2753.64,-279.98 2753.64,-270.71 2753.64,-262.11"/>
<polygon fill="black" stroke="black" points="2757.14,-262.1 2753.64,-252.1 2750.14,-262.1 2757.14,-262.1"/>
</g>
<!-- DataDefinition&#45;&gt;DataDefinition -->
<g id="edge12" class="edge">
<title>DataDefinition&#45;&gt;DataDefinition</title>
<path fill="none" stroke="black" d="M2806.46,-319.31C2829.67,-320.49 2849.64,-316.05 2849.64,-306 2849.64,-297.44 2835.16,-292.95 2816.53,-292.53"/>
<polygon fill="black" stroke="black" points="2816.41,-289.03 2806.46,-292.69 2816.52,-296.03 2816.41,-289.03"/>
</g>
<!-- SimpleQDef -->
<g id="node13" class="node">
<title>SimpleQDef</title>
<ellipse fill="none" stroke="black" cx="2628.64" cy="-234" rx="66.09" ry="18"/>
<text text-anchor="middle" x="2628.64" y="-230.3" font-family="Times,serif" font-size="14.00">SimpleQDef</text>
</g>
<!-- DataDefinition&#45;&gt;SimpleQDef -->
<g id="edge10" class="edge">
<title>DataDefinition&#45;&gt;SimpleQDef</title>
<path fill="none" stroke="black" d="M2725.28,-289.12C2707.5,-279.16 2684.39,-266.22 2665.23,-255.49"/>
<polygon fill="black" stroke="black" points="2666.9,-252.41 2656.47,-250.58 2663.48,-258.52 2666.9,-252.41"/>
</g>
<!-- ModelQDef -->
<g id="node14" class="node">
<title>ModelQDef</title>
<ellipse fill="none" stroke="black" cx="1416.64" cy="-162" rx="63.09" ry="18"/>
<text text-anchor="middle" x="1416.64" y="-158.3" font-family="Times,serif" font-size="14.00">ModelQDef</text>
</g>
<!-- DataDefinition&#45;&gt;ModelQDef -->
<g id="edge13" class="edge">
<title>DataDefinition&#45;&gt;ModelQDef</title>
<path fill="none" stroke="black" d="M2675.92,-304.06C2519.07,-301.36 2153.71,-291.05 1849.64,-252 1712.27,-234.36 1553.39,-197.36 1471.6,-177.06"/>
<polygon fill="black" stroke="black" points="1472.33,-173.64 1461.78,-174.61 1470.63,-180.43 1472.33,-173.64"/>
</g>
<!-- Lens_ -->
<g id="node15" class="node">
<title>Lens_</title>
<ellipse fill="none" stroke="black" cx="3517.64" cy="-234" rx="37.09" ry="18"/>
<text text-anchor="middle" x="3517.64" y="-230.3" font-family="Times,serif" font-size="14.00">Lens_</text>
</g>
<!-- DataDefinition&#45;&gt;Lens_ -->
<g id="edge14" class="edge">
<title>DataDefinition&#45;&gt;Lens_</title>
<path fill="none" stroke="black" d="M2829.79,-302.08C2988.71,-295.54 3350.95,-278.21 3471.64,-252 3474.63,-251.35 3477.68,-250.55 3480.71,-249.66"/>
<polygon fill="black" stroke="black" points="3481.87,-252.96 3490.29,-246.53 3479.7,-246.31 3481.87,-252.96"/>
</g>
<!-- a -->
<g id="node16" class="node">
<title>a</title>
<ellipse fill="none" stroke="black" cx="3599.64" cy="-234" rx="27" ry="18"/>
<text text-anchor="middle" x="3599.64" y="-230.3" font-family="Times,serif" font-size="14.00">a</text>
</g>
<!-- DataDefinition&#45;&gt;a -->
<g id="edge15" class="edge">
<title>DataDefinition&#45;&gt;a</title>
<path fill="none" stroke="black" d="M2831.08,-303.62C3005.91,-299.91 3426.62,-287.46 3563.64,-252 3565.82,-251.44 3568.02,-250.74 3570.21,-249.96"/>
<polygon fill="black" stroke="black" points="3571.68,-253.14 3579.58,-246.09 3569.01,-246.67 3571.68,-253.14"/>
</g>
<!-- GenDefn -->
<g id="node18" class="node">
<title>GenDefn</title>
<ellipse fill="none" stroke="#00cdcd" cx="2459.64" cy="-234" rx="51.19" ry="18"/>
<text text-anchor="middle" x="2459.64" y="-230.3" font-family="Times,serif" font-size="14.00">GenDefn</text>
</g>
<!-- GenDefn&#45;&gt;DecRef -->
<g id="edge20" class="edge">
<title>GenDefn&#45;&gt;DecRef</title>
<path fill="none" stroke="black" d="M2459.64,-215.7C2459.64,-207.98 2459.64,-198.71 2459.64,-190.11"/>
<polygon fill="black" stroke="black" points="2463.14,-190.1 2459.64,-180.1 2456.14,-190.1 2463.14,-190.1"/>
</g>
<!-- GenDefn&#45;&gt;MaybeDerivation -->
<g id="edge19" class="edge">
<title>GenDefn&#45;&gt;MaybeDerivation</title>
<path fill="none" stroke="black" d="M2501.22,-223.27C2550.74,-211.67 2634.11,-192.16 2692.51,-178.48"/>
<polygon fill="black" stroke="black" points="2693.45,-181.86 2702.39,-176.17 2691.85,-175.04 2693.45,-181.86"/>
</g>
<!-- GenDefn&#45;&gt;ShortName -->
<g id="edge21" class="edge">
<title>GenDefn&#45;&gt;ShortName</title>
<path fill="none" stroke="black" d="M2485.75,-218.5C2504,-208.36 2528.64,-194.67 2548.87,-183.43"/>
<polygon fill="black" stroke="black" points="2550.78,-186.37 2557.82,-178.46 2547.38,-180.25 2550.78,-186.37"/>
</g>
<!-- GenDefn&#45;&gt;String -->
<g id="edge22" class="edge">
<title>GenDefn&#45;&gt;String</title>
<path fill="none" stroke="black" d="M2437.26,-217.64C2422.61,-207.59 2403.31,-194.34 2387.38,-183.41"/>
<polygon fill="black" stroke="black" points="2389.16,-180.38 2378.93,-177.61 2385.19,-186.15 2389.16,-180.38"/>
</g>
<!-- GenDefn&#45;&gt;Sentence -->
<g id="edge23" class="edge">
<title>GenDefn&#45;&gt;Sentence</title>
<path fill="none" stroke="black" d="M2503.03,-224.24C2518.9,-221.27 2537.04,-218.17 2553.64,-216 2750.4,-190.31 2803.15,-213.99 2998.64,-180 3003.35,-179.18 3008.21,-178.17 3013.06,-177.06"/>
<polygon fill="black" stroke="black" points="3014.03,-180.42 3022.91,-174.64 3012.36,-173.62 3014.03,-180.42"/>
</g>
<!-- ModelKindModelExpr -->
<g id="node19" class="node">
<title>ModelKindModelExpr</title>
<ellipse fill="none" stroke="black" cx="1999.64" cy="-162" rx="112.38" ry="18"/>
<text text-anchor="middle" x="1999.64" y="-158.3" font-family="Times,serif" font-size="14.00">ModelKindModelExpr</text>
</g>
<!-- GenDefn&#45;&gt;ModelKindModelExpr -->
<g id="edge17" class="edge">
<title>GenDefn&#45;&gt;ModelKindModelExpr</title>
<path fill="none" stroke="black" d="M2413.43,-225.97C2337.63,-214.43 2185.6,-191.3 2088.43,-176.51"/>
<polygon fill="black" stroke="black" points="2088.74,-173.02 2078.33,-174.97 2087.68,-179.94 2088.74,-173.02"/>
</g>
<!-- MaybeUnitDefn -->
<g id="node20" class="node">
<title>MaybeUnitDefn</title>
<ellipse fill="none" stroke="black" cx="2214.64" cy="-162" rx="84.49" ry="18"/>
<text text-anchor="middle" x="2214.64" y="-158.3" font-family="Times,serif" font-size="14.00">MaybeUnitDefn</text>
</g>
<!-- GenDefn&#45;&gt;MaybeUnitDefn -->
<g id="edge18" class="edge">
<title>GenDefn&#45;&gt;MaybeUnitDefn</title>
<path fill="none" stroke="black" d="M2421.09,-221.99C2381.3,-210.61 2318.72,-192.74 2272.89,-179.64"/>
<polygon fill="black" stroke="black" points="2273.66,-176.22 2263.08,-176.84 2271.74,-182.95 2273.66,-176.22"/>
</g>
<!-- InstanceModel -->
<g id="node21" class="node">
<title>InstanceModel</title>
<ellipse fill="none" stroke="#00cdcd" cx="2891.64" cy="-234" rx="79.09" ry="18"/>
<text text-anchor="middle" x="2891.64" y="-230.3" font-family="Times,serif" font-size="14.00">InstanceModel</text>
</g>
<!-- InstanceModel&#45;&gt;DecRef -->
<g id="edge27" class="edge">
<title>InstanceModel&#45;&gt;DecRef</title>
<path fill="none" stroke="black" d="M2834.47,-221.37C2824.22,-219.46 2813.63,-217.58 2803.64,-216 2674.93,-195.63 2639.91,-208.02 2512.64,-180 2509.03,-179.21 2505.32,-178.27 2501.61,-177.25"/>
<polygon fill="black" stroke="black" points="2502.48,-173.86 2491.89,-174.4 2500.51,-180.57 2502.48,-173.86"/>
</g>
<!-- InstanceModel&#45;&gt;MaybeDerivation -->
<g id="edge28" class="edge">
<title>InstanceModel&#45;&gt;MaybeDerivation</title>
<path fill="none" stroke="black" d="M2861.8,-217.29C2843.07,-207.43 2818.7,-194.61 2798.35,-183.9"/>
<polygon fill="black" stroke="black" points="2799.79,-180.7 2789.31,-179.14 2796.53,-186.9 2799.79,-180.7"/>
</g>
<!-- InstanceModel&#45;&gt;ShortName -->
<g id="edge29" class="edge">
<title>InstanceModel&#45;&gt;ShortName</title>
<path fill="none" stroke="black" d="M2837.48,-220.76C2790.25,-210.07 2719.89,-194.1 2658.64,-180 2653.62,-178.84 2648.41,-177.64 2643.18,-176.43"/>
<polygon fill="black" stroke="black" points="2643.68,-172.95 2633.15,-174.1 2642.1,-179.77 2643.68,-172.95"/>
</g>
<!-- InstanceModel&#45;&gt;String -->
<g id="edge30" class="edge">
<title>InstanceModel&#45;&gt;String</title>
<path fill="none" stroke="black" d="M2835.45,-221.27C2824.91,-219.32 2813.97,-217.46 2803.64,-216 2628.22,-191.17 2579.84,-217.31 2406.64,-180 2403.29,-179.28 2399.84,-178.39 2396.41,-177.41"/>
<polygon fill="black" stroke="black" points="2397.44,-174.06 2386.85,-174.43 2395.36,-180.75 2397.44,-174.06"/>
</g>
<!-- InstanceModel&#45;&gt;Sentence -->
<g id="edge31" class="edge">
<title>InstanceModel&#45;&gt;Sentence</title>
<path fill="none" stroke="black" d="M2928.11,-217.98C2954.91,-206.95 2991.37,-191.94 3019.43,-180.38"/>
<polygon fill="black" stroke="black" points="3021.06,-183.5 3028.97,-176.45 3018.39,-177.02 3021.06,-183.5"/>
</g>
<!-- ModelKindExpr -->
<g id="node22" class="node">
<title>ModelKindExpr</title>
<ellipse fill="none" stroke="black" cx="3314.64" cy="-162" rx="83.39" ry="18"/>
<text text-anchor="middle" x="3314.64" y="-158.3" font-family="Times,serif" font-size="14.00">ModelKindExpr</text>
</g>
<!-- InstanceModel&#45;&gt;ModelKindExpr -->
<g id="edge24" class="edge">
<title>InstanceModel&#45;&gt;ModelKindExpr</title>
<path fill="none" stroke="black" d="M2949.51,-221.59C2959.86,-219.65 2970.56,-217.71 2980.64,-216 3087.85,-197.8 3115.39,-197.88 3222.64,-180 3229.69,-178.82 3237.04,-177.55 3244.37,-176.25"/>
<polygon fill="black" stroke="black" points="3245.1,-179.67 3254.32,-174.46 3243.86,-172.78 3245.1,-179.67"/>
</g>
<!-- Inputs -->
<g id="node23" class="node">
<title>Inputs</title>
<ellipse fill="none" stroke="#ee0000" cx="3173.64" cy="-162" rx="40.09" ry="18"/>
<text text-anchor="middle" x="3173.64" y="-158.3" font-family="Times,serif" font-size="14.00">Inputs</text>
</g>
<!-- InstanceModel&#45;&gt;Inputs -->
<g id="edge25" class="edge">
<title>InstanceModel&#45;&gt;Inputs</title>
<path fill="none" stroke="black" d="M2949.55,-221.68C2996.97,-211.97 3065.62,-196.9 3124.64,-180 3127.62,-179.15 3130.68,-178.22 3133.75,-177.25"/>
<polygon fill="black" stroke="black" points="3135.08,-180.49 3143.49,-174.05 3132.9,-173.84 3135.08,-180.49"/>
</g>
<!-- Output -->
<g id="node24" class="node">
<title>Output</title>
<ellipse fill="none" stroke="#ee0000" cx="3459.64" cy="-162" rx="43.59" ry="18"/>
<text text-anchor="middle" x="3459.64" y="-158.3" font-family="Times,serif" font-size="14.00">Output</text>
</g>
<!-- InstanceModel&#45;&gt;Output -->
<g id="edge26" class="edge">
<title>InstanceModel&#45;&gt;Output</title>
<path fill="none" stroke="black" d="M2948,-221.32C2958.8,-219.34 2970.05,-217.46 2980.64,-216 3168.88,-190.14 3220.32,-217.25 3406.64,-180 3410.48,-179.23 3414.43,-178.28 3418.35,-177.23"/>
<polygon fill="black" stroke="black" points="3419.37,-180.58 3428,-174.43 3417.42,-173.86 3419.37,-180.58"/>
</g>
<!-- Input -->
<g id="node25" class="node">
<title>Input</title>
<ellipse fill="none" stroke="#ee0000" cx="3176.64" cy="-90" rx="36" ry="18"/>
<text text-anchor="middle" x="3176.64" y="-86.3" font-family="Times,serif" font-size="14.00">Input</text>
</g>
<!-- Inputs&#45;&gt;Input -->
<g id="edge33" class="edge">
<title>Inputs&#45;&gt;Input</title>
<path fill="none" stroke="black" d="M3174.39,-143.7C3174.72,-135.98 3175.11,-126.71 3175.48,-118.11"/>
<polygon fill="black" stroke="black" points="3178.98,-118.25 3175.91,-108.1 3171.99,-117.95 3178.98,-118.25"/>
</g>
<!-- QuantityDict -->
<g id="node27" class="node">
<title>QuantityDict</title>
<ellipse fill="none" stroke="black" cx="3433.64" cy="-90" rx="70.39" ry="18"/>
<text text-anchor="middle" x="3433.64" y="-86.3" font-family="Times,serif" font-size="14.00">QuantityDict</text>
</g>
<!-- Output&#45;&gt;QuantityDict -->
<g id="edge34" class="edge">
<title>Output&#45;&gt;QuantityDict</title>
<path fill="none" stroke="black" d="M3453.35,-144.05C3450.42,-136.18 3446.87,-126.62 3443.6,-117.79"/>
<polygon fill="black" stroke="black" points="3446.82,-116.43 3440.06,-108.28 3440.26,-118.87 3446.82,-116.43"/>
</g>
<!-- QuantityDictMaybeRealIntervalExprExpr -->
<g id="node26" class="node">
<title>QuantityDictMaybeRealIntervalExprExpr</title>
<ellipse fill="none" stroke="black" cx="3179.64" cy="-18" rx="203.36" ry="18"/>
<text text-anchor="middle" x="3179.64" y="-14.3" font-family="Times,serif" font-size="14.00">QuantityDictMaybeRealIntervalExprExpr</text>
</g>
<!-- Input&#45;&gt;QuantityDictMaybeRealIntervalExprExpr -->
<g id="edge32" class="edge">
<title>Input&#45;&gt;QuantityDictMaybeRealIntervalExprExpr</title>
<path fill="none" stroke="black" d="M3177.39,-71.7C3177.72,-63.98 3178.11,-54.71 3178.48,-46.11"/>
<polygon fill="black" stroke="black" points="3181.98,-46.25 3178.91,-36.1 3174.99,-45.95 3181.98,-46.25"/>
</g>
<!-- OutputConstraints -->
<g id="node28" class="node">
<title>OutputConstraints</title>
<ellipse fill="none" stroke="#ee0000" cx="3756.64" cy="-306" rx="97.48" ry="18"/>
<text text-anchor="middle" x="3756.64" y="-302.3" font-family="Times,serif" font-size="14.00">OutputConstraints</text>
</g>
<!-- RealIntervalExprExpr -->
<g id="node29" class="node">
<title>RealIntervalExprExpr</title>
<ellipse fill="none" stroke="black" cx="3756.64" cy="-234" rx="112.38" ry="18"/>
<text text-anchor="middle" x="3756.64" y="-230.3" font-family="Times,serif" font-size="14.00">RealIntervalExprExpr</text>
</g>
<!-- OutputConstraints&#45;&gt;RealIntervalExprExpr -->
<g id="edge35" class="edge">
<title>OutputConstraints&#45;&gt;RealIntervalExprExpr</title>
<path fill="none" stroke="black" d="M3756.64,-287.7C3756.64,-279.98 3756.64,-270.71 3756.64,-262.11"/>
<polygon fill="black" stroke="black" points="3760.14,-262.1 3756.64,-252.1 3753.14,-262.1 3760.14,-262.1"/>
</g>
<!-- ModelKinde -->
<g id="node30" class="node">
<title>ModelKinde</title>
<ellipse fill="none" stroke="#00cdcd" cx="1158.64" cy="-306" rx="66.09" ry="18"/>
<text text-anchor="middle" x="1158.64" y="-302.3" font-family="Times,serif" font-size="14.00">ModelKinde</text>
</g>
<!-- ModelKinde&#45;&gt;UID -->
<g id="edge37" class="edge">
<title>ModelKinde&#45;&gt;UID</title>
<path fill="none" stroke="black" d="M1178.58,-288.77C1207.3,-265.26 1261.78,-220.14 1306.64,-180 1323.98,-164.49 1323.39,-153.46 1344.64,-144 1633.24,-15.62 2673.09,-16.9 2889.16,-18.59"/>
<polygon fill="black" stroke="black" points="2889.36,-22.1 2899.39,-18.68 2889.42,-15.1 2889.36,-22.1"/>
</g>
<!-- ModelKindse -->
<g id="node31" class="node">
<title>ModelKindse</title>
<ellipse fill="none" stroke="darkviolet" cx="930.64" cy="-234" rx="71.49" ry="18"/>
<text text-anchor="middle" x="930.64" y="-230.3" font-family="Times,serif" font-size="14.00">ModelKindse</text>
</g>
<!-- ModelKinde&#45;&gt;ModelKindse -->
<g id="edge36" class="edge">
<title>ModelKinde&#45;&gt;ModelKindse</title>
<path fill="none" stroke="black" d="M1116.56,-292.08C1079.12,-280.58 1024.18,-263.72 983.73,-251.3"/>
<polygon fill="black" stroke="black" points="984.62,-247.91 974.03,-248.32 982.57,-254.6 984.62,-247.91"/>
</g>
<!-- NP -->
<g id="node32" class="node">
<title>NP</title>
<ellipse fill="none" stroke="black" cx="1158.64" cy="-234" rx="27" ry="18"/>
<text text-anchor="middle" x="1158.64" y="-230.3" font-family="Times,serif" font-size="14.00">NP</text>
</g>
<!-- ModelKinde&#45;&gt;NP -->
<g id="edge38" class="edge">
<title>ModelKinde&#45;&gt;NP</title>
<path fill="none" stroke="black" d="M1158.64,-287.7C1158.64,-279.98 1158.64,-270.71 1158.64,-262.11"/>
<polygon fill="black" stroke="black" points="1162.14,-262.1 1158.64,-252.1 1155.14,-262.1 1162.14,-262.1"/>
</g>
<!-- DifferentialModel -->
<g id="node33" class="node">
<title>DifferentialModel</title>
<ellipse fill="none" stroke="black" cx="1013.64" cy="-162" rx="92.08" ry="18"/>
<text text-anchor="middle" x="1013.64" y="-158.3" font-family="Times,serif" font-size="14.00">DifferentialModel</text>
</g>
<!-- ModelKindse&#45;&gt;DifferentialModel -->
<g id="edge39" class="edge">
<title>ModelKindse&#45;&gt;DifferentialModel</title>
<path fill="none" stroke="black" d="M950.31,-216.41C960.99,-207.41 974.35,-196.14 986.05,-186.27"/>
<polygon fill="black" stroke="black" points="988.44,-188.84 993.83,-179.71 983.93,-183.48 988.44,-188.84"/>
</g>
<!-- ModelKinds -->
<g id="node34" class="node">
<title>ModelKinds</title>
<ellipse fill="none" stroke="black" cx="837.64" cy="-162" rx="65.79" ry="18"/>
<text text-anchor="middle" x="837.64" y="-158.3" font-family="Times,serif" font-size="14.00">ModelKinds</text>
</g>
<!-- ModelKindse&#45;&gt;ModelKinds -->
<g id="edge40" class="edge">
<title>ModelKindse&#45;&gt;ModelKinds</title>
<path fill="none" stroke="black" d="M909.07,-216.76C896.63,-207.4 880.81,-195.49 867.22,-185.26"/>
<polygon fill="black" stroke="black" points="869.19,-182.36 859.1,-179.15 864.98,-187.96 869.19,-182.36"/>
</g>
<!-- e -->
<g id="node35" class="node">
<title>e</title>
<ellipse fill="none" stroke="black" cx="1662.64" cy="-162" rx="27" ry="18"/>
<text text-anchor="middle" x="1662.64" y="-158.3" font-family="Times,serif" font-size="14.00">e</text>
</g>
<!-- ModelKindse&#45;&gt;e -->
<g id="edge41" class="edge">
<title>ModelKindse&#45;&gt;e</title>
<path fill="none" stroke="black" d="M996.38,-226.9C1033.45,-223.53 1080.61,-219.36 1122.64,-216 1346.5,-198.1 1409.41,-236.92 1626.64,-180 1628.82,-179.43 1631.02,-178.73 1633.21,-177.95"/>
<polygon fill="black" stroke="black" points="1634.67,-181.13 1642.58,-174.07 1632,-174.66 1634.67,-181.13"/>
</g>
<!-- RelationConcept -->
<g id="node36" class="node">
<title>RelationConcept</title>
<ellipse fill="none" stroke="black" cx="1210.64" cy="-162" rx="87.18" ry="18"/>
<text text-anchor="middle" x="1210.64" y="-158.3" font-family="Times,serif" font-size="14.00">RelationConcept</text>
</g>
<!-- ModelKindse&#45;&gt;RelationConcept -->
<g id="edge42" class="edge">
<title>ModelKindse&#45;&gt;RelationConcept</title>
<path fill="none" stroke="black" d="M979.42,-220.81C1025.98,-209.17 1096.39,-191.56 1147.28,-178.84"/>
<polygon fill="black" stroke="black" points="1148.33,-182.19 1157.19,-176.36 1146.63,-175.39 1148.33,-182.19"/>
</g>
<!-- ConstraintSet -->
<g id="node37" class="node">
<title>ConstraintSet</title>
<ellipse fill="none" stroke="black" cx="224.64" cy="-162" rx="75.29" ry="18"/>
<text text-anchor="middle" x="224.64" y="-158.3" font-family="Times,serif" font-size="14.00">ConstraintSet</text>
</g>
<!-- ModelKindse&#45;&gt;ConstraintSet -->
<g id="edge43" class="edge">
<title>ModelKindse&#45;&gt;ConstraintSet</title>
<path fill="none" stroke="black" d="M860.85,-229.67C745.48,-223.58 507.92,-208.56 308.64,-180 302.01,-179.05 295.12,-177.91 288.26,-176.67"/>
<polygon fill="black" stroke="black" points="288.73,-173.2 278.26,-174.8 287.45,-180.08 288.73,-173.2"/>
</g>
<!-- QDefinition -->
<g id="node38" class="node">
<title>QDefinition</title>
<ellipse fill="none" stroke="black" cx="381.64" cy="-162" rx="63.89" ry="18"/>
<text text-anchor="middle" x="381.64" y="-158.3" font-family="Times,serif" font-size="14.00">QDefinition</text>
</g>
<!-- ModelKindse&#45;&gt;QDefinition -->
<g id="edge44" class="edge">
<title>ModelKindse&#45;&gt;QDefinition</title>
<path fill="none" stroke="black" d="M862.9,-227.99C770.26,-220.56 599.09,-204.77 454.64,-180 448.97,-179.03 443.09,-177.88 437.22,-176.66"/>
<polygon fill="black" stroke="black" points="437.94,-173.23 427.43,-174.53 436.46,-180.07 437.94,-173.23"/>
</g>
<!-- MultiDefn -->
<g id="node39" class="node">
<title>MultiDefn</title>
<ellipse fill="none" stroke="black" cx="521.64" cy="-162" rx="57.69" ry="18"/>
<text text-anchor="middle" x="521.64" y="-158.3" font-family="Times,serif" font-size="14.00">MultiDefn</text>
</g>
<!-- ModelKindse&#45;&gt;MultiDefn -->
<g id="edge45" class="edge">
<title>ModelKindse&#45;&gt;MultiDefn</title>
<path fill="none" stroke="black" d="M868.04,-225.22C799.02,-216.2 684.88,-199.98 587.64,-180 583.03,-179.05 578.26,-177.99 573.49,-176.87"/>
<polygon fill="black" stroke="black" points="574.29,-173.46 563.75,-174.51 572.64,-180.26 574.29,-173.46"/>
</g>
<!-- DefiningExpre -->
<g id="node40" class="node">
<title>DefiningExpre</title>
<ellipse fill="none" stroke="#00cdcd" cx="3066.64" cy="-234" rx="77.19" ry="18"/>
<text text-anchor="middle" x="3066.64" y="-230.3" font-family="Times,serif" font-size="14.00">DefiningExpre</text>
</g>
<!-- DefiningExpre&#45;&gt;Sentence -->
<g id="edge47" class="edge">
<title>DefiningExpre&#45;&gt;Sentence</title>
<path fill="none" stroke="black" d="M3065.41,-215.7C3064.86,-207.98 3064.2,-198.71 3063.58,-190.11"/>
<polygon fill="black" stroke="black" points="3067.07,-189.83 3062.87,-180.1 3060.09,-190.33 3067.07,-189.83"/>
</g>
<!-- DefiningExpre&#45;&gt;UID -->
<g id="edge46" class="edge">
<title>DefiningExpre&#45;&gt;UID</title>
<path fill="none" stroke="black" d="M3138.33,-226.97C3261.26,-216.27 3500.36,-193.83 3512.64,-180 3544.52,-144.11 3545.45,-107.04 3512.64,-72 3471.17,-27.7 3026.61,-50.34 2967.64,-36 2965.13,-35.39 2962.58,-34.63 2960.04,-33.77"/>
<polygon fill="black" stroke="black" points="2961.05,-30.41 2950.46,-30.08 2958.53,-36.94 2961.05,-30.41"/>
</g>
<!-- DefiningExpre&#45;&gt;e -->
<g id="edge48" class="edge">
<title>DefiningExpre&#45;&gt;e</title>
<path fill="none" stroke="black" d="M3012.56,-221C3001.71,-219 2990.35,-217.19 2979.64,-216 2696.6,-184.59 1975.62,-246.21 1698.64,-180 1696.46,-179.48 1694.25,-178.81 1692.06,-178.05"/>
<polygon fill="black" stroke="black" points="1693.25,-174.76 1682.67,-174.23 1690.61,-181.25 1693.25,-174.76"/>
</g>
<!-- MultiDefne -->
<g id="node41" class="node">
<title>MultiDefne</title>
<ellipse fill="none" stroke="#00cdcd" cx="3399.64" cy="-234" rx="63.09" ry="18"/>
<text text-anchor="middle" x="3399.64" y="-230.3" font-family="Times,serif" font-size="14.00">MultiDefne</text>
</g>
<!-- MultiDefne&#45;&gt;Sentence -->
<g id="edge51" class="edge">
<title>MultiDefne&#45;&gt;Sentence</title>
<path fill="none" stroke="black" d="M3346.94,-224.02C3291.41,-214.29 3201.51,-197.75 3124.64,-180 3120.3,-179 3115.81,-177.9 3111.32,-176.77"/>
<polygon fill="black" stroke="black" points="3112.08,-173.35 3101.53,-174.23 3110.33,-180.13 3112.08,-173.35"/>
</g>
<!-- MultiDefne&#45;&gt;UID -->
<g id="edge49" class="edge">
<title>MultiDefne&#45;&gt;UID</title>
<path fill="none" stroke="black" d="M3442.76,-220.85C3476.55,-210.4 3519.63,-194.74 3530.64,-180 3559.43,-141.47 3570.57,-107.07 3537.64,-72 3494.21,-25.73 3029.33,-50.9 2967.64,-36 2965.13,-35.39 2962.58,-34.63 2960.04,-33.78"/>
<polygon fill="black" stroke="black" points="2961.04,-30.41 2950.45,-30.09 2958.53,-36.95 2961.04,-30.41"/>
</g>
<!-- MultiDefne&#45;&gt;QuantityDict -->
<g id="edge50" class="edge">
<title>MultiDefne&#45;&gt;QuantityDict</title>
<path fill="none" stroke="black" d="M3449.04,-222.79C3472.57,-215.18 3498.58,-202.13 3512.64,-180 3521.23,-166.5 3520.17,-158.12 3512.64,-144 3505.12,-129.89 3491.99,-118.88 3478.57,-110.63"/>
<polygon fill="black" stroke="black" points="3480.19,-107.52 3469.77,-105.61 3476.72,-113.6 3480.19,-107.52"/>
</g>
<!-- NonEmptyDefiningExpre -->
<g id="node42" class="node">
<title>NonEmptyDefiningExpre</title>
<ellipse fill="none" stroke="black" cx="3762.64" cy="-162" rx="127.28" ry="18"/>
<text text-anchor="middle" x="3762.64" y="-158.3" font-family="Times,serif" font-size="14.00">NonEmptyDefiningExpre</text>
</g>
<!-- MultiDefne&#45;&gt;NonEmptyDefiningExpre -->
<g id="edge52" class="edge">
<title>MultiDefne&#45;&gt;NonEmptyDefiningExpre</title>
<path fill="none" stroke="black" d="M3446.04,-221.67C3454.54,-219.7 3463.35,-217.73 3471.64,-216 3539.22,-201.88 3616.06,-187.97 3673.81,-177.95"/>
<polygon fill="black" stroke="black" points="3674.74,-181.34 3684,-176.19 3673.55,-174.44 3674.74,-181.34"/>
</g>
<!-- TheoryModel -->
<g id="node43" class="node">
<title>TheoryModel</title>
<ellipse fill="none" stroke="#00cdcd" cx="1929.64" cy="-234" rx="71.49" ry="18"/>
<text text-anchor="middle" x="1929.64" y="-230.3" font-family="Times,serif" font-size="14.00">TheoryModel</text>
</g>
<!-- TheoryModel&#45;&gt;ConceptChunk -->
<g id="edge57" class="edge">
<title>TheoryModel&#45;&gt;ConceptChunk</title>
<path fill="none" stroke="black" d="M1858.93,-231.16C1640.23,-225.25 976.73,-205.64 762.64,-180 755.5,-179.14 748.06,-178.03 740.68,-176.79"/>
<polygon fill="black" stroke="black" points="741.13,-173.32 730.68,-175.03 739.92,-180.21 741.13,-173.32"/>
</g>
<!-- TheoryModel&#45;&gt;DecRef -->
<g id="edge60" class="edge">
<title>TheoryModel&#45;&gt;DecRef</title>
<path fill="none" stroke="black" d="M1999.06,-229.64C2092.53,-224.13 2263.64,-210.56 2406.64,-180 2410.26,-179.23 2413.98,-178.31 2417.69,-177.3"/>
<polygon fill="black" stroke="black" points="2418.78,-180.62 2427.41,-174.47 2416.83,-173.9 2418.78,-180.62"/>
</g>
<!-- TheoryModel&#45;&gt;ShortName -->
<g id="edge61" class="edge">
<title>TheoryModel&#45;&gt;ShortName</title>
<path fill="none" stroke="black" d="M1999.58,-229.77C2109.41,-223.99 2328.77,-209.62 2512.64,-180 2518.32,-179.09 2524.22,-177.98 2530.08,-176.78"/>
<polygon fill="black" stroke="black" points="2530.84,-180.19 2539.88,-174.67 2529.37,-173.35 2530.84,-180.19"/>
</g>
<!-- TheoryModel&#45;&gt;String -->
<g id="edge62" class="edge">
<title>TheoryModel&#45;&gt;String</title>
<path fill="none" stroke="black" d="M1996.58,-227.46C2072.69,-220.27 2200.3,-205.53 2307.64,-180 2311.05,-179.19 2314.55,-178.24 2318.04,-177.22"/>
<polygon fill="black" stroke="black" points="2319.27,-180.5 2327.77,-174.18 2317.18,-173.82 2319.27,-180.5"/>
</g>
<!-- TheoryModel&#45;&gt;Sentence -->
<g id="edge63" class="edge">
<title>TheoryModel&#45;&gt;Sentence</title>
<path fill="none" stroke="black" d="M1999.76,-230.4C2221.8,-222.03 2900.62,-195.47 2998.64,-180 3003.43,-179.24 3008.37,-178.27 3013.29,-177.16"/>
<polygon fill="black" stroke="black" points="3014.38,-180.5 3023.28,-174.75 3012.74,-173.7 3014.38,-180.5"/>
</g>
<!-- TheoryModel&#45;&gt;ModelQDef -->
<g id="edge58" class="edge">
<title>TheoryModel&#45;&gt;ModelQDef</title>
<path fill="none" stroke="black" d="M1863.18,-227.36C1776.56,-219.47 1620.57,-203.42 1488.64,-180 1483.27,-179.05 1477.7,-177.94 1472.14,-176.76"/>
<polygon fill="black" stroke="black" points="1472.71,-173.3 1462.19,-174.57 1471.2,-180.14 1472.71,-173.3"/>
</g>
<!-- TheoryModel&#45;&gt;ModelKindModelExpr -->
<g id="edge53" class="edge">
<title>TheoryModel&#45;&gt;ModelKindModelExpr</title>
<path fill="none" stroke="black" d="M1946.23,-216.41C1955,-207.65 1965.91,-196.73 1975.59,-187.06"/>
<polygon fill="black" stroke="black" points="1978.09,-189.5 1982.69,-179.96 1973.14,-184.55 1978.09,-189.5"/>
</g>
<!-- TheoryModel&#45;&gt;QuantityDict -->
<g id="edge56" class="edge">
<title>TheoryModel&#45;&gt;QuantityDict</title>
<path fill="none" stroke="black" d="M1908.7,-216.62C1886.6,-197.44 1857.65,-165.56 1878.64,-144 1904.68,-117.26 3184.38,-109.99 3221.64,-108 3267.19,-105.57 3318.15,-101.52 3358.68,-97.99"/>
<polygon fill="black" stroke="black" points="3359.1,-101.47 3368.75,-97.1 3358.49,-94.49 3359.1,-101.47"/>
</g>
<!-- TheoryModel&#45;&gt;TheoryModel -->
<g id="edge54" class="edge">
<title>TheoryModel&#45;&gt;TheoryModel</title>
<path fill="none" stroke="black" d="M1978.43,-247.29C2000.26,-248.55 2019.14,-244.12 2019.14,-234 2019.14,-225.54 2005.95,-221.05 1988.87,-220.55"/>
<polygon fill="black" stroke="black" points="1988.38,-217.06 1978.43,-220.71 1988.49,-224.05 1988.38,-217.06"/>
</g>
<!-- SpaceDefn -->
<g id="node44" class="node">
<title>SpaceDefn</title>
<ellipse fill="none" stroke="black" cx="1557.64" cy="-162" rx="60.39" ry="18"/>
<text text-anchor="middle" x="1557.64" y="-158.3" font-family="Times,serif" font-size="14.00">SpaceDefn</text>
</g>
<!-- TheoryModel&#45;&gt;SpaceDefn -->
<g id="edge55" class="edge">
<title>TheoryModel&#45;&gt;SpaceDefn</title>
<path fill="none" stroke="black" d="M1870.48,-223.88C1809.24,-214.15 1710.91,-197.73 1626.64,-180 1621.71,-178.96 1616.6,-177.82 1611.49,-176.64"/>
<polygon fill="black" stroke="black" points="1612.25,-173.23 1601.71,-174.33 1610.64,-180.04 1612.25,-173.23"/>
</g>
<!-- ModelExpr -->
<g id="node45" class="node">
<title>ModelExpr</title>
<ellipse fill="none" stroke="black" cx="1769.64" cy="-162" rx="61.99" ry="18"/>
<text text-anchor="middle" x="1769.64" y="-158.3" font-family="Times,serif" font-size="14.00">ModelExpr</text>
</g>
<!-- TheoryModel&#45;&gt;ModelExpr -->
<g id="edge59" class="edge">
<title>TheoryModel&#45;&gt;ModelExpr</title>
<path fill="none" stroke="black" d="M1895.71,-218.15C1871.2,-207.43 1837.94,-192.88 1811.74,-181.42"/>
<polygon fill="black" stroke="black" points="1813,-178.15 1802.43,-177.35 1810.19,-184.56 1813,-178.15"/>
</g>
</g>
</svg>
