<?xml version="1.0" encoding="UTF-8" standalone="no"?>
<!DOCTYPE svg PUBLIC "-//W3C//DTD SVG 1.1//EN"
 "http://www.w3.org/Graphics/SVG/1.1/DTD/svg11.dtd">
<!-- Generated by graphviz version 2.43.0 (0)
 -->
<!-- Title: alltypes Pages: 1 -->
<svg width="4175pt" height="332pt"
 viewBox="0.00 0.00 4175.28 332.00" xmlns="http://www.w3.org/2000/svg" xmlns:xlink="http://www.w3.org/1999/xlink">
<g id="graph0" class="graph" transform="scale(1 1) rotate(0) translate(4 328)">
<title>alltypes</title>
<polygon fill="white" stroke="transparent" points="-4,4 -4,-328 4171.28,-328 4171.28,4 -4,4"/>
<!-- TermAbbr -->
<g id="node1" class="node">
<title>TermAbbr</title>
<ellipse fill="none" stroke="#00cdcd" cx="1895.84" cy="-306" rx="57.39" ry="18"/>
<text text-anchor="middle" x="1895.84" y="-302.3" font-family="Times,serif" font-size="14.00">TermAbbr</text>
</g>
<!-- NP -->
<g id="node2" class="node">
<title>NP</title>
<ellipse fill="none" stroke="black" cx="1634.84" cy="-234" rx="27" ry="18"/>
<text text-anchor="middle" x="1634.84" y="-230.3" font-family="Times,serif" font-size="14.00">NP</text>
</g>
<!-- TermAbbr&#45;&gt;NP -->
<g id="edge1" class="edge">
<title>TermAbbr&#45;&gt;NP</title>
<path fill="none" stroke="black" d="M1853.91,-293.75C1802.63,-280 1716.8,-256.98 1669.22,-244.22"/>
<polygon fill="black" stroke="black" points="1669.96,-240.79 1659.4,-241.58 1668.15,-247.56 1669.96,-240.79"/>
</g>
<!-- MaybeString -->
<g id="node3" class="node">
<title>MaybeString</title>
<ellipse fill="none" stroke="black" cx="2094.84" cy="-234" rx="71.49" ry="18"/>
<text text-anchor="middle" x="2094.84" y="-230.3" font-family="Times,serif" font-size="14.00">MaybeString</text>
</g>
<!-- TermAbbr&#45;&gt;MaybeString -->
<g id="edge2" class="edge">
<title>TermAbbr&#45;&gt;MaybeString</title>
<path fill="none" stroke="black" d="M1932.81,-292C1964.56,-280.83 2010.59,-264.64 2045.48,-252.36"/>
<polygon fill="black" stroke="black" points="2046.73,-255.63 2055.01,-249.01 2044.41,-249.03 2046.73,-255.63"/>
</g>
<!-- DomDefn -->
<g id="node4" class="node">
<title>DomDefn</title>
<ellipse fill="none" stroke="#00cdcd" cx="1508.84" cy="-234" rx="53.89" ry="18"/>
<text text-anchor="middle" x="1508.84" y="-230.3" font-family="Times,serif" font-size="14.00">DomDefn</text>
</g>
<!-- UID -->
<g id="node5" class="node">
<title>UID</title>
<ellipse fill="none" stroke="black" cx="1358.84" cy="-162" rx="29.5" ry="18"/>
<text text-anchor="middle" x="1358.84" y="-158.3" font-family="Times,serif" font-size="14.00">UID</text>
</g>
<!-- DomDefn&#45;&gt;UID -->
<g id="edge3" class="edge">
<title>DomDefn&#45;&gt;UID</title>
<path fill="none" stroke="black" d="M1478.85,-219C1453.27,-207.06 1416.59,-189.95 1390.53,-177.79"/>
<polygon fill="black" stroke="black" points="1392,-174.61 1381.45,-173.55 1389.04,-180.95 1392,-174.61"/>
</g>
<!-- Sentence -->
<g id="node6" class="node">
<title>Sentence</title>
<ellipse fill="none" stroke="black" cx="1993.84" cy="-162" rx="53.89" ry="18"/>
<text text-anchor="middle" x="1993.84" y="-158.3" font-family="Times,serif" font-size="14.00">Sentence</text>
</g>
<!-- DomDefn&#45;&gt;Sentence -->
<g id="edge4" class="edge">
<title>DomDefn&#45;&gt;Sentence</title>
<path fill="none" stroke="black" d="M1553.61,-223.95C1568.02,-221.2 1584.08,-218.3 1598.84,-216 1728.92,-195.77 1762.57,-198.93 1892.84,-180 1907.36,-177.89 1923,-175.38 1937.54,-172.94"/>
<polygon fill="black" stroke="black" points="1938.13,-176.39 1947.4,-171.27 1936.96,-169.49 1938.13,-176.39"/>
</g>
<!-- Derivation -->
<g id="node7" class="node">
<title>Derivation</title>
<ellipse fill="none" stroke="darkviolet" cx="1945.84" cy="-234" rx="59.59" ry="18"/>
<text text-anchor="middle" x="1945.84" y="-230.3" font-family="Times,serif" font-size="14.00">Derivation</text>
</g>
<!-- Derivation&#45;&gt;Sentence -->
<g id="edge5" class="edge">
<title>Derivation&#45;&gt;Sentence</title>
<path fill="none" stroke="black" d="M1957.46,-216.05C1963.18,-207.71 1970.19,-197.49 1976.53,-188.25"/>
<polygon fill="black" stroke="black" points="1979.56,-190.02 1982.33,-179.79 1973.79,-186.06 1979.56,-190.02"/>
</g>
<!-- ConstraintSete -->
<g id="node8" class="node">
<title>ConstraintSete</title>
<ellipse fill="none" stroke="#00cdcd" cx="1230.84" cy="-162" rx="81.49" ry="18"/>
<text text-anchor="middle" x="1230.84" y="-158.3" font-family="Times,serif" font-size="14.00">ConstraintSete</text>
</g>
<!-- ConceptChunk -->
<g id="node9" class="node">
<title>ConceptChunk</title>
<ellipse fill="none" stroke="black" cx="1230.84" cy="-90" rx="78.79" ry="18"/>
<text text-anchor="middle" x="1230.84" y="-86.3" font-family="Times,serif" font-size="14.00">ConceptChunk</text>
</g>
<!-- ConstraintSete&#45;&gt;ConceptChunk -->
<g id="edge6" class="edge">
<title>ConstraintSete&#45;&gt;ConceptChunk</title>
<path fill="none" stroke="black" d="M1230.84,-143.7C1230.84,-135.98 1230.84,-126.71 1230.84,-118.11"/>
<polygon fill="black" stroke="black" points="1234.34,-118.1 1230.84,-108.1 1227.34,-118.1 1234.34,-118.1"/>
</g>
<!-- NonEmptye -->
<g id="node10" class="node">
<title>NonEmptye</title>
<ellipse fill="none" stroke="black" cx="1392.84" cy="-90" rx="65.79" ry="18"/>
<text text-anchor="middle" x="1392.84" y="-86.3" font-family="Times,serif" font-size="14.00">NonEmptye</text>
</g>
<!-- ConstraintSete&#45;&gt;NonEmptye -->
<g id="edge7" class="edge">
<title>ConstraintSete&#45;&gt;NonEmptye</title>
<path fill="none" stroke="black" d="M1266.4,-145.64C1291.03,-134.99 1323.96,-120.76 1350.04,-109.49"/>
<polygon fill="black" stroke="black" points="1351.52,-112.67 1359.31,-105.49 1348.74,-106.24 1351.52,-112.67"/>
</g>
<!-- DDPkt -->
<g id="node11" class="node">
<title>DDPkt</title>
<ellipse fill="none" stroke="#00cdcd" cx="2898.84" cy="-234" rx="40.89" ry="18"/>
<text text-anchor="middle" x="2898.84" y="-230.3" font-family="Times,serif" font-size="14.00">DDPkt</text>
</g>
<!-- DDPkt&#45;&gt;UID -->
<g id="edge8" class="edge">
<title>DDPkt&#45;&gt;UID</title>
<path fill="none" stroke="black" d="M2860.83,-227.15C2834.06,-223.28 2797.35,-218.48 2764.84,-216 2461.62,-192.83 1693.39,-247.4 1396.84,-180 1394.53,-179.47 1392.18,-178.8 1389.84,-178.03"/>
<polygon fill="black" stroke="black" points="1391.03,-174.74 1380.44,-174.42 1388.52,-181.27 1391.03,-174.74"/>
</g>
<!-- DDPkt&#45;&gt;Sentence -->
<g id="edge13" class="edge">
<title>DDPkt&#45;&gt;Sentence</title>
<path fill="none" stroke="black" d="M2860.52,-227.36C2833.76,-223.61 2797.2,-218.87 2764.84,-216 2450.56,-188.13 2367.37,-230.01 2055.84,-180 2051.32,-179.27 2046.65,-178.34 2042.01,-177.29"/>
<polygon fill="black" stroke="black" points="2042.47,-173.8 2031.92,-174.83 2040.81,-180.6 2042.47,-173.8"/>
</g>
<!-- DecRef -->
<g id="node12" class="node">
<title>DecRef</title>
<ellipse fill="none" stroke="black" cx="3004.84" cy="-162" rx="44.39" ry="18"/>
<text text-anchor="middle" x="3004.84" y="-158.3" font-family="Times,serif" font-size="14.00">DecRef</text>
</g>
<!-- DDPkt&#45;&gt;DecRef -->
<g id="edge9" class="edge">
<title>DDPkt&#45;&gt;DecRef</title>
<path fill="none" stroke="black" d="M2920.55,-218.67C2935.92,-208.52 2956.76,-194.75 2973.88,-183.45"/>
<polygon fill="black" stroke="black" points="2976.02,-186.23 2982.44,-177.8 2972.16,-180.39 2976.02,-186.23"/>
</g>
<!-- MaybeDerivation -->
<g id="node13" class="node">
<title>MaybeDerivation</title>
<ellipse fill="none" stroke="black" cx="2753.84" cy="-162" rx="90.98" ry="18"/>
<text text-anchor="middle" x="2753.84" y="-158.3" font-family="Times,serif" font-size="14.00">MaybeDerivation</text>
</g>
<!-- DDPkt&#45;&gt;MaybeDerivation -->
<g id="edge10" class="edge">
<title>DDPkt&#45;&gt;MaybeDerivation</title>
<path fill="none" stroke="black" d="M2872.25,-220.16C2850.86,-209.84 2820.42,-195.14 2795.76,-183.24"/>
<polygon fill="black" stroke="black" points="2797.15,-180.02 2786.63,-178.83 2794.11,-186.32 2797.15,-180.02"/>
</g>
<!-- ShortName -->
<g id="node14" class="node">
<title>ShortName</title>
<ellipse fill="none" stroke="black" cx="3130.84" cy="-162" rx="63.89" ry="18"/>
<text text-anchor="middle" x="3130.84" y="-158.3" font-family="Times,serif" font-size="14.00">ShortName</text>
</g>
<!-- DDPkt&#45;&gt;ShortName -->
<g id="edge11" class="edge">
<title>DDPkt&#45;&gt;ShortName</title>
<path fill="none" stroke="black" d="M2929.98,-222.18C2936.21,-220.08 2942.72,-217.93 2948.84,-216 2991.73,-202.47 3040.69,-188.28 3077.02,-178"/>
<polygon fill="black" stroke="black" points="3078.25,-181.29 3086.92,-175.2 3076.34,-174.55 3078.25,-181.29"/>
</g>
<!-- String -->
<g id="node15" class="node">
<title>String</title>
<ellipse fill="none" stroke="black" cx="2902.84" cy="-162" rx="40.09" ry="18"/>
<text text-anchor="middle" x="2902.84" y="-158.3" font-family="Times,serif" font-size="14.00">String</text>
</g>
<!-- DDPkt&#45;&gt;String -->
<g id="edge12" class="edge">
<title>DDPkt&#45;&gt;String</title>
<path fill="none" stroke="black" d="M2899.83,-215.7C2900.27,-207.98 2900.8,-198.71 2901.3,-190.11"/>
<polygon fill="black" stroke="black" points="2904.79,-190.29 2901.87,-180.1 2897.8,-189.89 2904.79,-190.29"/>
</g>
<!-- DataDefinition -->
<g id="node16" class="node">
<title>DataDefinition</title>
<ellipse fill="none" stroke="darkviolet" cx="3357.84" cy="-306" rx="77.99" ry="18"/>
<text text-anchor="middle" x="3357.84" y="-302.3" font-family="Times,serif" font-size="14.00">DataDefinition</text>
</g>
<!-- DataDefinition&#45;&gt;DDPkt -->
<g id="edge15" class="edge">
<title>DataDefinition&#45;&gt;DDPkt</title>
<path fill="none" stroke="black" d="M3284.29,-299.9C3201.81,-293.16 3064.44,-278.86 2948.84,-252 2945.48,-251.22 2942.03,-250.3 2938.58,-249.3"/>
<polygon fill="black" stroke="black" points="2939.56,-245.94 2928.97,-246.32 2937.49,-252.63 2939.56,-245.94"/>
</g>
<!-- DataDefinition&#45;&gt;DataDefinition -->
<g id="edge16" class="edge">
<title>DataDefinition&#45;&gt;DataDefinition</title>
<path fill="none" stroke="black" d="M3410.66,-319.31C3433.87,-320.49 3453.84,-316.05 3453.84,-306 3453.84,-297.44 3439.36,-292.95 3420.73,-292.53"/>
<polygon fill="black" stroke="black" points="3420.61,-289.03 3410.66,-292.69 3420.72,-296.03 3420.61,-289.03"/>
</g>
<!-- SimpleQDef -->
<g id="node17" class="node">
<title>SimpleQDef</title>
<ellipse fill="none" stroke="black" cx="3236.84" cy="-234" rx="66.09" ry="18"/>
<text text-anchor="middle" x="3236.84" y="-230.3" font-family="Times,serif" font-size="14.00">SimpleQDef</text>
</g>
<!-- DataDefinition&#45;&gt;SimpleQDef -->
<g id="edge14" class="edge">
<title>DataDefinition&#45;&gt;SimpleQDef</title>
<path fill="none" stroke="black" d="M3330.39,-289.12C3313.25,-279.2 3291.01,-266.34 3272.52,-255.64"/>
<polygon fill="black" stroke="black" points="3274.18,-252.56 3263.78,-250.58 3270.68,-258.62 3274.18,-252.56"/>
</g>
<!-- ModelQDef -->
<g id="node18" class="node">
<title>ModelQDef</title>
<ellipse fill="none" stroke="black" cx="4060.84" cy="-162" rx="63.09" ry="18"/>
<text text-anchor="middle" x="4060.84" y="-158.3" font-family="Times,serif" font-size="14.00">ModelQDef</text>
</g>
<!-- DataDefinition&#45;&gt;ModelQDef -->
<g id="edge17" class="edge">
<title>DataDefinition&#45;&gt;ModelQDef</title>
<path fill="none" stroke="black" d="M3421.91,-295.72C3487.06,-286 3590.79,-269.68 3679.84,-252 3818.16,-224.53 3851.56,-212.2 3988.84,-180 3993.8,-178.84 3998.94,-177.63 4004.1,-176.41"/>
<polygon fill="black" stroke="black" points="4005.06,-179.79 4013.99,-174.08 4003.45,-172.97 4005.06,-179.79"/>
</g>
<!-- Lens_ -->
<g id="node19" class="node">
<title>Lens_</title>
<ellipse fill="none" stroke="black" cx="3357.84" cy="-234" rx="37.09" ry="18"/>
<text text-anchor="middle" x="3357.84" y="-230.3" font-family="Times,serif" font-size="14.00">Lens_</text>
</g>
<!-- DataDefinition&#45;&gt;Lens_ -->
<g id="edge18" class="edge">
<title>DataDefinition&#45;&gt;Lens_</title>
<path fill="none" stroke="black" d="M3357.84,-287.7C3357.84,-279.98 3357.84,-270.71 3357.84,-262.11"/>
<polygon fill="black" stroke="black" points="3361.34,-262.1 3357.84,-252.1 3354.34,-262.1 3361.34,-262.1"/>
</g>
<!-- a -->
<g id="node20" class="node">
<title>a</title>
<ellipse fill="none" stroke="black" cx="3439.84" cy="-234" rx="27" ry="18"/>
<text text-anchor="middle" x="3439.84" y="-230.3" font-family="Times,serif" font-size="14.00">a</text>
</g>
<!-- DataDefinition&#45;&gt;a -->
<g id="edge19" class="edge">
<title>DataDefinition&#45;&gt;a</title>
<path fill="none" stroke="black" d="M3377.28,-288.41C3388.93,-278.46 3403.84,-265.74 3416.18,-255.2"/>
<polygon fill="black" stroke="black" points="3418.52,-257.8 3423.86,-248.65 3413.98,-252.48 3418.52,-257.8"/>
</g>
<!-- Term -->
<g id="node21" class="node">
<title>Term</title>
<ellipse fill="none" stroke="#00cdcd" cx="1025.84" cy="-162" rx="34.39" ry="18"/>
<text text-anchor="middle" x="1025.84" y="-158.3" font-family="Times,serif" font-size="14.00">Term</text>
</g>
<!-- Expr -->
<g id="node22" class="node">
<title>Expr</title>
<ellipse fill="none" stroke="black" cx="1100.84" cy="-90" rx="33.29" ry="18"/>
<text text-anchor="middle" x="1100.84" y="-86.3" font-family="Times,serif" font-size="14.00">Expr</text>
</g>
<!-- Term&#45;&gt;Expr -->
<g id="edge20" class="edge">
<title>Term&#45;&gt;Expr</title>
<path fill="none" stroke="black" d="M1042.12,-145.81C1052.41,-136.21 1065.88,-123.63 1077.33,-112.95"/>
<polygon fill="black" stroke="black" points="1079.94,-115.3 1084.86,-105.92 1075.16,-110.18 1079.94,-115.3"/>
</g>
<!-- Unknown -->
<g id="node23" class="node">
<title>Unknown</title>
<ellipse fill="none" stroke="#ee0000" cx="994.84" cy="-90" rx="54.69" ry="18"/>
<text text-anchor="middle" x="994.84" y="-86.3" font-family="Times,serif" font-size="14.00">Unknown</text>
</g>
<!-- Term&#45;&gt;Unknown -->
<g id="edge21" class="edge">
<title>Term&#45;&gt;Unknown</title>
<path fill="none" stroke="black" d="M1018.5,-144.41C1014.92,-136.34 1010.54,-126.43 1006.52,-117.35"/>
<polygon fill="black" stroke="black" points="1009.6,-115.68 1002.35,-107.96 1003.2,-118.52 1009.6,-115.68"/>
</g>
<!-- Integer -->
<g id="node29" class="node">
<title>Integer</title>
<ellipse fill="none" stroke="black" cx="1503.84" cy="-18" rx="44.69" ry="18"/>
<text text-anchor="middle" x="1503.84" y="-14.3" font-family="Times,serif" font-size="14.00">Integer</text>
</g>
<!-- Unknown&#45;&gt;Integer -->
<g id="edge30" class="edge">
<title>Unknown&#45;&gt;Integer</title>
<path fill="none" stroke="black" d="M1034.59,-77.51C1042.57,-75.47 1050.94,-73.51 1058.84,-72 1198.59,-45.26 1365.76,-29.68 1449.86,-22.96"/>
<polygon fill="black" stroke="black" points="1450.25,-26.44 1459.95,-22.16 1449.7,-19.46 1450.25,-26.44"/>
</g>
<!-- DifferentialModel -->
<g id="node24" class="node">
<title>DifferentialModel</title>
<ellipse fill="none" stroke="#00cdcd" cx="735.84" cy="-162" rx="92.08" ry="18"/>
<text text-anchor="middle" x="735.84" y="-158.3" font-family="Times,serif" font-size="14.00">DifferentialModel</text>
</g>
<!-- DifferentialModel&#45;&gt;ConceptChunk -->
<g id="edge26" class="edge">
<title>DifferentialModel&#45;&gt;ConceptChunk</title>
<path fill="none" stroke="black" d="M802.05,-149.37C813.63,-147.48 825.58,-145.61 836.84,-144 972.41,-124.63 1007.53,-129 1142.84,-108 1149.66,-106.94 1156.76,-105.74 1163.83,-104.48"/>
<polygon fill="black" stroke="black" points="1164.94,-107.83 1174.15,-102.59 1163.68,-100.95 1164.94,-107.83"/>
</g>
<!-- DifferentialModel&#45;&gt;Expr -->
<g id="edge24" class="edge">
<title>DifferentialModel&#45;&gt;Expr</title>
<path fill="none" stroke="black" d="M803.2,-149.6C814.44,-147.72 825.97,-145.8 836.84,-144 935.46,-127.7 962.58,-134.92 1058.84,-108 1061.3,-107.31 1063.8,-106.53 1066.3,-105.68"/>
<polygon fill="black" stroke="black" points="1067.66,-108.91 1075.84,-102.18 1065.25,-102.34 1067.66,-108.91"/>
</g>
<!-- DifferentialModel&#45;&gt;Unknown -->
<g id="edge25" class="edge">
<title>DifferentialModel&#45;&gt;Unknown</title>
<path fill="none" stroke="black" d="M787.63,-147C833.06,-134.73 898.73,-116.98 943.91,-104.77"/>
<polygon fill="black" stroke="black" points="945.05,-108.08 953.79,-102.1 943.22,-101.33 945.05,-108.08"/>
</g>
<!-- UnitalChunk -->
<g id="node25" class="node">
<title>UnitalChunk</title>
<ellipse fill="none" stroke="black" cx="621.84" cy="-90" rx="69.59" ry="18"/>
<text text-anchor="middle" x="621.84" y="-86.3" font-family="Times,serif" font-size="14.00">UnitalChunk</text>
</g>
<!-- DifferentialModel&#45;&gt;UnitalChunk -->
<g id="edge22" class="edge">
<title>DifferentialModel&#45;&gt;UnitalChunk</title>
<path fill="none" stroke="black" d="M709.12,-144.59C693.31,-134.88 673.14,-122.49 656.16,-112.07"/>
<polygon fill="black" stroke="black" points="657.97,-109.08 647.62,-106.83 654.31,-115.04 657.97,-109.08"/>
</g>
<!-- ConstrConcept -->
<g id="node26" class="node">
<title>ConstrConcept</title>
<ellipse fill="none" stroke="black" cx="788.84" cy="-90" rx="79.89" ry="18"/>
<text text-anchor="middle" x="788.84" y="-86.3" font-family="Times,serif" font-size="14.00">ConstrConcept</text>
</g>
<!-- DifferentialModel&#45;&gt;ConstrConcept -->
<g id="edge23" class="edge">
<title>DifferentialModel&#45;&gt;ConstrConcept</title>
<path fill="none" stroke="black" d="M748.67,-144.05C755.05,-135.63 762.89,-125.28 769.94,-115.97"/>
<polygon fill="black" stroke="black" points="772.89,-117.87 776.13,-107.79 767.31,-113.65 772.89,-117.87"/>
</g>
<!-- InitialValueProblem -->
<g id="node27" class="node">
<title>InitialValueProblem</title>
<ellipse fill="none" stroke="#00cdcd" cx="1508.84" cy="-162" rx="102.88" ry="18"/>
<text text-anchor="middle" x="1508.84" y="-158.3" font-family="Times,serif" font-size="14.00">InitialValueProblem</text>
</g>
<!-- InitialValueProblem&#45;&gt;Expr -->
<g id="edge27" class="edge">
<title>InitialValueProblem&#45;&gt;Expr</title>
<path fill="none" stroke="black" d="M1434.16,-149.56C1421.7,-147.68 1408.91,-145.77 1396.84,-144 1284.04,-127.44 1252.95,-137.61 1142.84,-108 1140.39,-107.34 1137.88,-106.57 1135.37,-105.74"/>
<polygon fill="black" stroke="black" points="1136.42,-102.4 1125.82,-102.27 1134.02,-108.97 1136.42,-102.4"/>
</g>
<!-- ODESolverFormat -->
<g id="node28" class="node">
<title>ODESolverFormat</title>
<ellipse fill="none" stroke="#00cdcd" cx="2160.84" cy="-162" rx="95.58" ry="18"/>
<text text-anchor="middle" x="2160.84" y="-158.3" font-family="Times,serif" font-size="14.00">ODESolverFormat</text>
</g>
<!-- ODESolverFormat&#45;&gt;Expr -->
<g id="edge28" class="edge">
<title>ODESolverFormat&#45;&gt;Expr</title>
<path fill="none" stroke="black" d="M2094.71,-148.94C2082.17,-147.01 2069.13,-145.24 2056.84,-144 1854.61,-123.57 1341.56,-150.77 1142.84,-108 1140.2,-107.43 1137.5,-106.71 1134.82,-105.88"/>
<polygon fill="black" stroke="black" points="1135.86,-102.54 1125.27,-102.53 1133.55,-109.14 1135.86,-102.54"/>
</g>
<!-- ODESolverFormat&#45;&gt;Integer -->
<g id="edge29" class="edge">
<title>ODESolverFormat&#45;&gt;Integer</title>
<path fill="none" stroke="black" d="M2100.51,-147.96C1971.35,-120.04 1670.32,-54.98 1552.43,-29.5"/>
<polygon fill="black" stroke="black" points="1553.11,-26.07 1542.59,-27.38 1551.63,-32.91 1553.11,-26.07"/>
</g>
<!-- LHS -->
<g id="node30" class="node">
<title>LHS</title>
<ellipse fill="none" stroke="#ee0000" cx="1025.84" cy="-234" rx="30.59" ry="18"/>
<text text-anchor="middle" x="1025.84" y="-230.3" font-family="Times,serif" font-size="14.00">LHS</text>
</g>
<!-- LHS&#45;&gt;Term -->
<g id="edge31" class="edge">
<title>LHS&#45;&gt;Term</title>
<path fill="none" stroke="black" d="M1025.84,-215.7C1025.84,-207.98 1025.84,-198.71 1025.84,-190.11"/>
<polygon fill="black" stroke="black" points="1029.34,-190.1 1025.84,-180.1 1022.34,-190.1 1029.34,-190.1"/>
</g>
<!-- GenDefn -->
<g id="node31" class="node">
<title>GenDefn</title>
<ellipse fill="none" stroke="#00cdcd" cx="3008.84" cy="-234" rx="51.19" ry="18"/>
<text text-anchor="middle" x="3008.84" y="-230.3" font-family="Times,serif" font-size="14.00">GenDefn</text>
</g>
<!-- GenDefn&#45;&gt;Sentence -->
<g id="edge38" class="edge">
<title>GenDefn&#45;&gt;Sentence</title>
<path fill="none" stroke="black" d="M2972.34,-221.18C2964.66,-219.11 2956.54,-217.23 2948.84,-216 2556.59,-153.43 2448.36,-240.91 2055.84,-180 2051.32,-179.3 2046.65,-178.38 2042,-177.34"/>
<polygon fill="black" stroke="black" points="2042.46,-173.85 2031.91,-174.9 2040.81,-180.66 2042.46,-173.85"/>
</g>
<!-- GenDefn&#45;&gt;DecRef -->
<g id="edge35" class="edge">
<title>GenDefn&#45;&gt;DecRef</title>
<path fill="none" stroke="black" d="M3007.86,-215.7C3007.42,-207.98 3006.89,-198.71 3006.39,-190.11"/>
<polygon fill="black" stroke="black" points="3009.89,-189.89 3005.82,-180.1 3002.9,-190.29 3009.89,-189.89"/>
</g>
<!-- GenDefn&#45;&gt;MaybeDerivation -->
<g id="edge34" class="edge">
<title>GenDefn&#45;&gt;MaybeDerivation</title>
<path fill="none" stroke="black" d="M2970.13,-221.97C2963.05,-219.97 2955.73,-217.91 2948.84,-216 2904.31,-203.64 2853.98,-189.97 2815.61,-179.6"/>
<polygon fill="black" stroke="black" points="2816.18,-176.14 2805.62,-176.91 2814.36,-182.89 2816.18,-176.14"/>
</g>
<!-- GenDefn&#45;&gt;ShortName -->
<g id="edge36" class="edge">
<title>GenDefn&#45;&gt;ShortName</title>
<path fill="none" stroke="black" d="M3034.42,-218.33C3052.03,-208.22 3075.68,-194.65 3095.14,-183.49"/>
<polygon fill="black" stroke="black" points="3097.1,-186.39 3104.04,-178.38 3093.62,-180.32 3097.1,-186.39"/>
</g>
<!-- GenDefn&#45;&gt;String -->
<g id="edge37" class="edge">
<title>GenDefn&#45;&gt;String</title>
<path fill="none" stroke="black" d="M2985.84,-217.81C2970.39,-207.61 2949.87,-194.05 2933.1,-182.98"/>
<polygon fill="black" stroke="black" points="2934.99,-180.03 2924.71,-177.44 2931.13,-185.87 2934.99,-180.03"/>
</g>
<!-- ModelKindModelExpr -->
<g id="node32" class="node">
<title>ModelKindModelExpr</title>
<ellipse fill="none" stroke="black" cx="3511.84" cy="-162" rx="112.38" ry="18"/>
<text text-anchor="middle" x="3511.84" y="-158.3" font-family="Times,serif" font-size="14.00">ModelKindModelExpr</text>
</g>
<!-- GenDefn&#45;&gt;ModelKindModelExpr -->
<g id="edge32" class="edge">
<title>GenDefn&#45;&gt;ModelKindModelExpr</title>
<path fill="none" stroke="black" d="M3055.77,-226.48C3127.68,-216.48 3269.46,-196.76 3389.84,-180 3399.61,-178.64 3409.82,-177.22 3420,-175.8"/>
<polygon fill="black" stroke="black" points="3420.72,-179.23 3430.14,-174.39 3419.76,-172.3 3420.72,-179.23"/>
</g>
<!-- MaybeUnitDefn -->
<g id="node33" class="node">
<title>MaybeUnitDefn</title>
<ellipse fill="none" stroke="black" cx="3296.84" cy="-162" rx="84.49" ry="18"/>
<text text-anchor="middle" x="3296.84" y="-158.3" font-family="Times,serif" font-size="14.00">MaybeUnitDefn</text>
</g>
<!-- GenDefn&#45;&gt;MaybeUnitDefn -->
<g id="edge33" class="edge">
<title>GenDefn&#45;&gt;MaybeUnitDefn</title>
<path fill="none" stroke="black" d="M3049.8,-223.05C3097.71,-211.4 3177.56,-191.99 3233.48,-178.4"/>
<polygon fill="black" stroke="black" points="3234.39,-181.78 3243.28,-176.02 3232.74,-174.98 3234.39,-181.78"/>
</g>
<!-- InstanceModel -->
<g id="node34" class="node">
<title>InstanceModel</title>
<ellipse fill="none" stroke="#00cdcd" cx="2676.84" cy="-234" rx="79.09" ry="18"/>
<text text-anchor="middle" x="2676.84" y="-230.3" font-family="Times,serif" font-size="14.00">InstanceModel</text>
</g>
<!-- InstanceModel&#45;&gt;Sentence -->
<g id="edge46" class="edge">
<title>InstanceModel&#45;&gt;Sentence</title>
<path fill="none" stroke="black" d="M2598.31,-230.88C2479.89,-226.66 2248.92,-214.41 2055.84,-180 2051.4,-179.21 2046.81,-178.24 2042.23,-177.17"/>
<polygon fill="black" stroke="black" points="2042.84,-173.72 2032.29,-174.71 2041.16,-180.51 2042.84,-173.72"/>
</g>
<!-- InstanceModel&#45;&gt;DecRef -->
<g id="edge42" class="edge">
<title>InstanceModel&#45;&gt;DecRef</title>
<path fill="none" stroke="black" d="M2740.12,-223.02C2796.17,-213.66 2880.01,-198.37 2951.84,-180 2955.22,-179.14 2958.7,-178.18 2962.19,-177.17"/>
<polygon fill="black" stroke="black" points="2963.38,-180.46 2971.94,-174.23 2961.36,-173.76 2963.38,-180.46"/>
</g>
<!-- InstanceModel&#45;&gt;MaybeDerivation -->
<g id="edge43" class="edge">
<title>InstanceModel&#45;&gt;MaybeDerivation</title>
<path fill="none" stroke="black" d="M2695.09,-216.41C2704.9,-207.5 2717.15,-196.36 2727.93,-186.56"/>
<polygon fill="black" stroke="black" points="2730.42,-189.03 2735.46,-179.71 2725.71,-183.85 2730.42,-189.03"/>
</g>
<!-- InstanceModel&#45;&gt;ShortName -->
<g id="edge44" class="edge">
<title>InstanceModel&#45;&gt;ShortName</title>
<path fill="none" stroke="black" d="M2746.32,-225.25C2822.93,-216.26 2949.67,-200.08 3057.84,-180 3063.28,-178.99 3068.93,-177.85 3074.56,-176.64"/>
<polygon fill="black" stroke="black" points="3075.62,-179.99 3084.64,-174.43 3074.12,-173.16 3075.62,-179.99"/>
</g>
<!-- InstanceModel&#45;&gt;String -->
<g id="edge45" class="edge">
<title>InstanceModel&#45;&gt;String</title>
<path fill="none" stroke="black" d="M2723.97,-219.49C2759.73,-209.09 2810.04,-194.15 2853.84,-180 2856.75,-179.06 2859.75,-178.07 2862.76,-177.07"/>
<polygon fill="black" stroke="black" points="2863.99,-180.34 2872.33,-173.81 2861.74,-173.72 2863.99,-180.34"/>
</g>
<!-- ModelKindExpr -->
<g id="node35" class="node">
<title>ModelKindExpr</title>
<ellipse fill="none" stroke="black" cx="2455.84" cy="-162" rx="83.39" ry="18"/>
<text text-anchor="middle" x="2455.84" y="-158.3" font-family="Times,serif" font-size="14.00">ModelKindExpr</text>
</g>
<!-- InstanceModel&#45;&gt;ModelKindExpr -->
<g id="edge39" class="edge">
<title>InstanceModel&#45;&gt;ModelKindExpr</title>
<path fill="none" stroke="black" d="M2632.65,-219C2597.5,-207.87 2548.14,-192.23 2510.51,-180.31"/>
<polygon fill="black" stroke="black" points="2511.31,-176.9 2500.72,-177.21 2509.19,-183.57 2511.31,-176.9"/>
</g>
<!-- Inputs -->
<g id="node36" class="node">
<title>Inputs</title>
<ellipse fill="none" stroke="#ee0000" cx="2314.84" cy="-162" rx="40.09" ry="18"/>
<text text-anchor="middle" x="2314.84" y="-158.3" font-family="Times,serif" font-size="14.00">Inputs</text>
</g>
<!-- InstanceModel&#45;&gt;Inputs -->
<g id="edge40" class="edge">
<title>InstanceModel&#45;&gt;Inputs</title>
<path fill="none" stroke="black" d="M2608.7,-224.79C2544.83,-216.31 2447,-201.31 2363.84,-180 2360.7,-179.2 2357.48,-178.28 2354.25,-177.3"/>
<polygon fill="black" stroke="black" points="2355.26,-173.95 2344.66,-174.23 2353.12,-180.61 2355.26,-173.95"/>
</g>
<!-- Output -->
<g id="node37" class="node">
<title>Output</title>
<ellipse fill="none" stroke="#ee0000" cx="2600.84" cy="-162" rx="43.59" ry="18"/>
<text text-anchor="middle" x="2600.84" y="-158.3" font-family="Times,serif" font-size="14.00">Output</text>
</g>
<!-- InstanceModel&#45;&gt;Output -->
<g id="edge41" class="edge">
<title>InstanceModel&#45;&gt;Output</title>
<path fill="none" stroke="black" d="M2658.83,-216.41C2648.87,-207.24 2636.35,-195.7 2625.49,-185.7"/>
<polygon fill="black" stroke="black" points="2627.67,-182.95 2617.94,-178.75 2622.93,-188.1 2627.67,-182.95"/>
</g>
<!-- Input -->
<g id="node38" class="node">
<title>Input</title>
<ellipse fill="none" stroke="#ee0000" cx="2314.84" cy="-90" rx="36" ry="18"/>
<text text-anchor="middle" x="2314.84" y="-86.3" font-family="Times,serif" font-size="14.00">Input</text>
</g>
<!-- Inputs&#45;&gt;Input -->
<g id="edge48" class="edge">
<title>Inputs&#45;&gt;Input</title>
<path fill="none" stroke="black" d="M2314.84,-143.7C2314.84,-135.98 2314.84,-126.71 2314.84,-118.11"/>
<polygon fill="black" stroke="black" points="2318.34,-118.1 2314.84,-108.1 2311.34,-118.1 2318.34,-118.1"/>
</g>
<!-- DefinedQuantityDict -->
<g id="node40" class="node">
<title>DefinedQuantityDict</title>
<ellipse fill="none" stroke="black" cx="2600.84" cy="-90" rx="105.88" ry="18"/>
<text text-anchor="middle" x="2600.84" y="-86.3" font-family="Times,serif" font-size="14.00">DefinedQuantityDict</text>
</g>
<!-- Output&#45;&gt;DefinedQuantityDict -->
<g id="edge49" class="edge">
<title>Output&#45;&gt;DefinedQuantityDict</title>
<path fill="none" stroke="black" d="M2600.84,-143.7C2600.84,-135.98 2600.84,-126.71 2600.84,-118.11"/>
<polygon fill="black" stroke="black" points="2604.34,-118.1 2600.84,-108.1 2597.34,-118.1 2604.34,-118.1"/>
</g>
<!-- DefinedQuantityDictMaybeRealIntervalExprExpr -->
<g id="node39" class="node">
<title>DefinedQuantityDictMaybeRealIntervalExprExpr</title>
<ellipse fill="none" stroke="black" cx="2314.84" cy="-18" rx="239.36" ry="18"/>
<text text-anchor="middle" x="2314.84" y="-14.3" font-family="Times,serif" font-size="14.00">DefinedQuantityDictMaybeRealIntervalExprExpr</text>
</g>
<!-- Input&#45;&gt;DefinedQuantityDictMaybeRealIntervalExprExpr -->
<g id="edge47" class="edge">
<title>Input&#45;&gt;DefinedQuantityDictMaybeRealIntervalExprExpr</title>
<path fill="none" stroke="black" d="M2314.84,-71.7C2314.84,-63.98 2314.84,-54.71 2314.84,-46.11"/>
<polygon fill="black" stroke="black" points="2318.34,-46.1 2314.84,-36.1 2311.34,-46.1 2318.34,-46.1"/>
</g>
<!-- OutputConstraints -->
<g id="node41" class="node">
<title>OutputConstraints</title>
<ellipse fill="none" stroke="#ee0000" cx="4054.84" cy="-306" rx="97.48" ry="18"/>
<text text-anchor="middle" x="4054.84" y="-302.3" font-family="Times,serif" font-size="14.00">OutputConstraints</text>
</g>
<!-- RealIntervalExprExpr -->
<g id="node42" class="node">
<title>RealIntervalExprExpr</title>
<ellipse fill="none" stroke="black" cx="4054.84" cy="-234" rx="112.38" ry="18"/>
<text text-anchor="middle" x="4054.84" y="-230.3" font-family="Times,serif" font-size="14.00">RealIntervalExprExpr</text>
</g>
<!-- OutputConstraints&#45;&gt;RealIntervalExprExpr -->
<g id="edge50" class="edge">
<title>OutputConstraints&#45;&gt;RealIntervalExprExpr</title>
<path fill="none" stroke="black" d="M4054.84,-287.7C4054.84,-279.98 4054.84,-270.71 4054.84,-262.11"/>
<polygon fill="black" stroke="black" points="4058.34,-262.1 4054.84,-252.1 4051.34,-262.1 4058.34,-262.1"/>
</g>
<!-- ModelKinde -->
<g id="node43" class="node">
<title>ModelKinde</title>
<ellipse fill="none" stroke="#00cdcd" cx="1372.84" cy="-306" rx="66.09" ry="18"/>
<text text-anchor="middle" x="1372.84" y="-302.3" font-family="Times,serif" font-size="14.00">ModelKinde</text>
</g>
<!-- ModelKinde&#45;&gt;NP -->
<g id="edge53" class="edge">
<title>ModelKinde&#45;&gt;NP</title>
<path fill="none" stroke="black" d="M1418.7,-292.83C1459.04,-282.12 1519.35,-266.07 1571.84,-252 1581.17,-249.5 1591.26,-246.78 1600.58,-244.27"/>
<polygon fill="black" stroke="black" points="1601.57,-247.62 1610.32,-241.64 1599.75,-240.87 1601.57,-247.62"/>
</g>
<!-- ModelKinde&#45;&gt;UID -->
<g id="edge52" class="edge">
<title>ModelKinde&#45;&gt;UID</title>
<path fill="none" stroke="black" d="M1371.16,-287.87C1368.77,-263.67 1364.39,-219.21 1361.55,-190.39"/>
<polygon fill="black" stroke="black" points="1365,-189.8 1360.54,-180.19 1358.04,-190.48 1365,-189.8"/>
</g>
<!-- ModelKindse -->
<g id="node44" class="node">
<title>ModelKindse</title>
<ellipse fill="none" stroke="darkviolet" cx="642.84" cy="-234" rx="71.49" ry="18"/>
<text text-anchor="middle" x="642.84" y="-230.3" font-family="Times,serif" font-size="14.00">ModelKindse</text>
</g>
<!-- ModelKinde&#45;&gt;ModelKindse -->
<g id="edge51" class="edge">
<title>ModelKinde&#45;&gt;ModelKindse</title>
<path fill="none" stroke="black" d="M1311.55,-299.12C1178.49,-286.36 863.52,-256.16 718.42,-242.25"/>
<polygon fill="black" stroke="black" points="718.56,-238.74 708.28,-241.27 717.9,-245.71 718.56,-238.74"/>
</g>
<!-- ModelKindse&#45;&gt;DifferentialModel -->
<g id="edge54" class="edge">
<title>ModelKindse&#45;&gt;DifferentialModel</title>
<path fill="none" stroke="black" d="M664.41,-216.76C676.68,-207.53 692.23,-195.83 705.69,-185.7"/>
<polygon fill="black" stroke="black" points="707.86,-188.44 713.75,-179.63 703.65,-182.85 707.86,-188.44"/>
</g>
<!-- ModelKinds -->
<g id="node45" class="node">
<title>ModelKinds</title>
<ellipse fill="none" stroke="black" cx="198.84" cy="-162" rx="65.79" ry="18"/>
<text text-anchor="middle" x="198.84" y="-158.3" font-family="Times,serif" font-size="14.00">ModelKinds</text>
</g>
<!-- ModelKindse&#45;&gt;ModelKinds -->
<g id="edge55" class="edge">
<title>ModelKindse&#45;&gt;ModelKinds</title>
<path fill="none" stroke="black" d="M579.59,-225.48C505.89,-216.36 380.6,-199.73 273.84,-180 268.21,-178.96 262.36,-177.79 256.52,-176.56"/>
<polygon fill="black" stroke="black" points="257.25,-173.14 246.74,-174.46 255.78,-179.98 257.25,-173.14"/>
</g>
<!-- e -->
<g id="node46" class="node">
<title>e</title>
<ellipse fill="none" stroke="black" cx="1104.84" cy="-162" rx="27" ry="18"/>
<text text-anchor="middle" x="1104.84" y="-158.3" font-family="Times,serif" font-size="14.00">e</text>
</g>
<!-- ModelKindse&#45;&gt;e -->
<g id="edge56" class="edge">
<title>ModelKindse&#45;&gt;e</title>
<path fill="none" stroke="black" d="M713.58,-231.03C799.24,-227.1 947.17,-215.32 1068.84,-180 1070.79,-179.44 1072.75,-178.78 1074.72,-178.06"/>
<polygon fill="black" stroke="black" points="1076.46,-181.12 1084.34,-174.05 1073.77,-174.66 1076.46,-181.12"/>
</g>
<!-- RelationConcept -->
<g id="node47" class="node">
<title>RelationConcept</title>
<ellipse fill="none" stroke="black" cx="369.84" cy="-162" rx="87.18" ry="18"/>
<text text-anchor="middle" x="369.84" y="-158.3" font-family="Times,serif" font-size="14.00">RelationConcept</text>
</g>
<!-- ModelKindse&#45;&gt;RelationConcept -->
<g id="edge57" class="edge">
<title>ModelKindse&#45;&gt;RelationConcept</title>
<path fill="none" stroke="black" d="M594.67,-220.65C549.41,-209.04 481.46,-191.62 432.12,-178.97"/>
<polygon fill="black" stroke="black" points="432.75,-175.52 422.19,-176.42 431.01,-182.3 432.75,-175.52"/>
</g>
<!-- ConstraintSet -->
<g id="node48" class="node">
<title>ConstraintSet</title>
<ellipse fill="none" stroke="black" cx="549.84" cy="-162" rx="75.29" ry="18"/>
<text text-anchor="middle" x="549.84" y="-158.3" font-family="Times,serif" font-size="14.00">ConstraintSet</text>
</g>
<!-- ModelKindse&#45;&gt;ConstraintSet -->
<g id="edge58" class="edge">
<title>ModelKindse&#45;&gt;ConstraintSet</title>
<path fill="none" stroke="black" d="M621.28,-216.76C608.92,-207.47 593.24,-195.66 579.71,-185.48"/>
<polygon fill="black" stroke="black" points="581.71,-182.61 571.62,-179.39 577.5,-188.2 581.71,-182.61"/>
</g>
<!-- QDefinition -->
<g id="node49" class="node">
<title>QDefinition</title>
<ellipse fill="none" stroke="black" cx="909.84" cy="-162" rx="63.89" ry="18"/>
<text text-anchor="middle" x="909.84" y="-158.3" font-family="Times,serif" font-size="14.00">QDefinition</text>
</g>
<!-- ModelKindse&#45;&gt;QDefinition -->
<g id="edge59" class="edge">
<title>ModelKindse&#45;&gt;QDefinition</title>
<path fill="none" stroke="black" d="M690.58,-220.49C736.75,-208.38 806.65,-190.06 855.06,-177.36"/>
<polygon fill="black" stroke="black" points="855.96,-180.74 864.75,-174.82 854.19,-173.97 855.96,-180.74"/>
</g>
<!-- MultiDefn -->
<g id="node50" class="node">
<title>MultiDefn</title>
<ellipse fill="none" stroke="black" cx="57.84" cy="-162" rx="57.69" ry="18"/>
<text text-anchor="middle" x="57.84" y="-158.3" font-family="Times,serif" font-size="14.00">MultiDefn</text>
</g>
<!-- ModelKindse&#45;&gt;MultiDefn -->
<g id="edge60" class="edge">
<title>ModelKindse&#45;&gt;MultiDefn</title>
<path fill="none" stroke="black" d="M573.54,-229.24C473.59,-223.08 283.44,-208.54 123.84,-180 119.07,-179.15 114.14,-178.13 109.21,-177.03"/>
<polygon fill="black" stroke="black" points="109.72,-173.55 99.18,-174.66 108.11,-180.36 109.72,-173.55"/>
</g>
<!-- DefiningExpre -->
<g id="node51" class="node">
<title>DefiningExpre</title>
<ellipse fill="none" stroke="#00cdcd" cx="1267.84" cy="-234" rx="77.19" ry="18"/>
<text text-anchor="middle" x="1267.84" y="-230.3" font-family="Times,serif" font-size="14.00">DefiningExpre</text>
</g>
<!-- DefiningExpre&#45;&gt;UID -->
<g id="edge61" class="edge">
<title>DefiningExpre&#45;&gt;UID</title>
<path fill="none" stroke="black" d="M1289.41,-216.41C1302.47,-206.37 1319.2,-193.49 1332.97,-182.9"/>
<polygon fill="black" stroke="black" points="1335.31,-185.52 1341.1,-176.65 1331.04,-179.97 1335.31,-185.52"/>
</g>
<!-- DefiningExpre&#45;&gt;Sentence -->
<g id="edge62" class="edge">
<title>DefiningExpre&#45;&gt;Sentence</title>
<path fill="none" stroke="black" d="M1337.57,-226.1C1370.41,-222.91 1410.13,-219.14 1445.84,-216 1644.39,-198.53 1695.05,-204.56 1892.84,-180 1907.54,-178.17 1923.36,-175.74 1938.03,-173.28"/>
<polygon fill="black" stroke="black" points="1938.69,-176.72 1947.96,-171.58 1937.52,-169.82 1938.69,-176.72"/>
</g>
<!-- DefiningExpre&#45;&gt;e -->
<g id="edge63" class="edge">
<title>DefiningExpre&#45;&gt;e</title>
<path fill="none" stroke="black" d="M1230.97,-218.13C1205.52,-207.75 1170.97,-193.39 1140.84,-180 1139.04,-179.2 1137.2,-178.37 1135.34,-177.52"/>
<polygon fill="black" stroke="black" points="1136.64,-174.26 1126.09,-173.23 1133.69,-180.61 1136.64,-174.26"/>
</g>
<!-- MultiDefne -->
<g id="node52" class="node">
<title>MultiDefne</title>
<ellipse fill="none" stroke="#00cdcd" cx="1780.84" cy="-234" rx="63.09" ry="18"/>
<text text-anchor="middle" x="1780.84" y="-230.3" font-family="Times,serif" font-size="14.00">MultiDefne</text>
</g>
<!-- MultiDefne&#45;&gt;UID -->
<g id="edge64" class="edge">
<title>MultiDefne&#45;&gt;UID</title>
<path fill="none" stroke="black" d="M1727.17,-224.46C1709.27,-221.67 1689.21,-218.63 1670.84,-216 1549.26,-198.62 1515.03,-213.43 1396.84,-180 1394.7,-179.39 1392.52,-178.68 1390.34,-177.91"/>
<polygon fill="black" stroke="black" points="1391.53,-174.62 1380.95,-174.18 1388.95,-181.12 1391.53,-174.62"/>
</g>
<!-- MultiDefne&#45;&gt;Sentence -->
<g id="edge66" class="edge">
<title>MultiDefne&#45;&gt;Sentence</title>
<path fill="none" stroke="black" d="M1820.91,-219.83C1856.75,-208.05 1909.31,-190.78 1947.07,-178.37"/>
<polygon fill="black" stroke="black" points="1948.4,-181.62 1956.81,-175.17 1946.22,-174.97 1948.4,-181.62"/>
</g>
<!-- MultiDefne&#45;&gt;DefinedQuantityDict -->
<g id="edge65" class="edge">
<title>MultiDefne&#45;&gt;DefinedQuantityDict</title>
<path fill="none" stroke="black" d="M1817.21,-219.24C1839.93,-209.83 1869.23,-196.16 1892.84,-180 1912.04,-166.86 1909.59,-153.46 1930.84,-144 1943.55,-138.35 2309.27,-111.69 2494.9,-98.47"/>
<polygon fill="black" stroke="black" points="2495.24,-101.96 2504.96,-97.76 2494.74,-94.98 2495.24,-101.96"/>
</g>
<!-- NonEmptyDefiningExpre -->
<g id="node53" class="node">
<title>NonEmptyDefiningExpre</title>
<ellipse fill="none" stroke="black" cx="1756.84" cy="-162" rx="127.28" ry="18"/>
<text text-anchor="middle" x="1756.84" y="-158.3" font-family="Times,serif" font-size="14.00">NonEmptyDefiningExpre</text>
</g>
<!-- MultiDefne&#45;&gt;NonEmptyDefiningExpre -->
<g id="edge67" class="edge">
<title>MultiDefne&#45;&gt;NonEmptyDefiningExpre</title>
<path fill="none" stroke="black" d="M1775.04,-216.05C1772.33,-208.18 1769.06,-198.62 1766.03,-189.79"/>
<polygon fill="black" stroke="black" points="1769.32,-188.6 1762.77,-180.28 1762.7,-190.87 1769.32,-188.6"/>
</g>
<!-- TheoryModel -->
<g id="node54" class="node">
<title>TheoryModel</title>
<ellipse fill="none" stroke="#00cdcd" cx="3581.84" cy="-234" rx="71.49" ry="18"/>
<text text-anchor="middle" x="3581.84" y="-230.3" font-family="Times,serif" font-size="14.00">TheoryModel</text>
</g>
<!-- TheoryModel&#45;&gt;Sentence -->
<g id="edge78" class="edge">
<title>TheoryModel&#45;&gt;Sentence</title>
<path fill="none" stroke="black" d="M3526.18,-222.64C3510.01,-220.02 3492.27,-217.52 3475.84,-216 3161.53,-186.94 2368.12,-226.07 2055.84,-180 2051.12,-179.3 2046.25,-178.37 2041.41,-177.29"/>
<polygon fill="black" stroke="black" points="2042.11,-173.86 2031.57,-174.9 2040.47,-180.66 2042.11,-173.86"/>
</g>
<!-- TheoryModel&#45;&gt;ConceptChunk -->
<g id="edge72" class="edge">
<title>TheoryModel&#45;&gt;ConceptChunk</title>
<path fill="none" stroke="black" d="M3602.83,-216.58C3624.97,-197.36 3653.96,-165.45 3632.84,-144 3587.72,-98.17 1381.81,-114.69 1317.84,-108 1310.4,-107.22 1302.63,-106.12 1294.95,-104.86"/>
<polygon fill="black" stroke="black" points="1295.37,-101.38 1284.92,-103.11 1294.17,-108.27 1295.37,-101.38"/>
</g>
<!-- TheoryModel&#45;&gt;DecRef -->
<g id="edge75" class="edge">
<title>TheoryModel&#45;&gt;DecRef</title>
<path fill="none" stroke="black" d="M3524.74,-223.06C3508.94,-220.52 3491.75,-217.96 3475.84,-216 3290.78,-193.22 3240.66,-216.71 3057.84,-180 3054.17,-179.26 3050.39,-178.36 3046.63,-177.35"/>
<polygon fill="black" stroke="black" points="3047.35,-173.92 3036.77,-174.51 3045.41,-180.65 3047.35,-173.92"/>
</g>
<!-- TheoryModel&#45;&gt;ShortName -->
<g id="edge76" class="edge">
<title>TheoryModel&#45;&gt;ShortName</title>
<path fill="none" stroke="black" d="M3523.85,-223.4C3508.27,-220.91 3491.43,-218.28 3475.84,-216 3355.19,-198.34 3323.81,-201.85 3203.84,-180 3198.4,-179.01 3192.76,-177.88 3187.12,-176.68"/>
<polygon fill="black" stroke="black" points="3187.56,-173.19 3177.04,-174.47 3186.06,-180.03 3187.56,-173.19"/>
</g>
<!-- TheoryModel&#45;&gt;String -->
<g id="edge77" class="edge">
<title>TheoryModel&#45;&gt;String</title>
<path fill="none" stroke="black" d="M3525.31,-222.96C3509.36,-220.39 3491.95,-217.84 3475.84,-216 3243.92,-189.49 3180.57,-226.67 2951.84,-180 2948.48,-179.31 2945.03,-178.45 2941.59,-177.49"/>
<polygon fill="black" stroke="black" points="2942.62,-174.14 2932.03,-174.54 2940.55,-180.83 2942.62,-174.14"/>
</g>
<!-- TheoryModel&#45;&gt;ModelQDef -->
<g id="edge73" class="edge">
<title>TheoryModel&#45;&gt;ModelQDef</title>
<path fill="none" stroke="black" d="M3647.01,-226.59C3727.65,-218.19 3868.98,-201.9 3988.84,-180 3994.21,-179.02 3999.79,-177.9 4005.34,-176.7"/>
<polygon fill="black" stroke="black" points="4006.28,-180.08 4015.29,-174.5 4004.77,-173.25 4006.28,-180.08"/>
</g>
<!-- TheoryModel&#45;&gt;ModelKindModelExpr -->
<g id="edge68" class="edge">
<title>TheoryModel&#45;&gt;ModelKindModelExpr</title>
<path fill="none" stroke="black" d="M3565.26,-216.41C3556.49,-207.65 3545.58,-196.73 3535.9,-187.06"/>
<polygon fill="black" stroke="black" points="3538.35,-184.55 3528.8,-179.96 3533.4,-189.5 3538.35,-184.55"/>
</g>
<!-- TheoryModel&#45;&gt;DefinedQuantityDict -->
<g id="edge71" class="edge">
<title>TheoryModel&#45;&gt;DefinedQuantityDict</title>
<path fill="none" stroke="black" d="M3620.63,-218.72C3637.72,-210.26 3656.1,-197.67 3665.84,-180 3673.57,-165.99 3676.87,-155.59 3665.84,-144 3633.52,-110.03 2985.04,-96.63 2716.14,-92.52"/>
<polygon fill="black" stroke="black" points="2716.01,-89.02 2705.95,-92.37 2715.9,-96.02 2716.01,-89.02"/>
</g>
<!-- TheoryModel&#45;&gt;TheoryModel -->
<g id="edge69" class="edge">
<title>TheoryModel&#45;&gt;TheoryModel</title>
<path fill="none" stroke="black" d="M3630.63,-247.29C3652.46,-248.55 3671.34,-244.12 3671.34,-234 3671.34,-225.54 3658.15,-221.05 3641.07,-220.55"/>
<polygon fill="black" stroke="black" points="3640.58,-217.06 3630.63,-220.71 3640.69,-224.05 3640.58,-217.06"/>
</g>
<!-- SpaceDefn -->
<g id="node55" class="node">
<title>SpaceDefn</title>
<ellipse fill="none" stroke="black" cx="3777.84" cy="-162" rx="60.39" ry="18"/>
<text text-anchor="middle" x="3777.84" y="-158.3" font-family="Times,serif" font-size="14.00">SpaceDefn</text>
</g>
<!-- TheoryModel&#45;&gt;SpaceDefn -->
<g id="edge70" class="edge">
<title>TheoryModel&#45;&gt;SpaceDefn</title>
<path fill="none" stroke="black" d="M3621.51,-218.83C3653.17,-207.53 3697.61,-191.66 3731.02,-179.72"/>
<polygon fill="black" stroke="black" points="3732.32,-182.97 3740.56,-176.31 3729.97,-176.38 3732.32,-182.97"/>
</g>
<!-- ModelExpr -->
<g id="node56" class="node">
<title>ModelExpr</title>
<ellipse fill="none" stroke="black" cx="3917.84" cy="-162" rx="61.99" ry="18"/>
<text text-anchor="middle" x="3917.84" y="-158.3" font-family="Times,serif" font-size="14.00">ModelExpr</text>
</g>
<!-- TheoryModel&#45;&gt;ModelExpr -->
<g id="edge74" class="edge">
<title>TheoryModel&#45;&gt;ModelExpr</title>
<path fill="none" stroke="black" d="M3637.29,-222.54C3691,-212.26 3774.67,-195.85 3846.84,-180 3851.82,-178.91 3856.99,-177.74 3862.16,-176.54"/>
<polygon fill="black" stroke="black" points="3863.13,-179.91 3872.07,-174.23 3861.54,-173.09 3863.13,-179.91"/>
</g>
</g>
</svg>
