<?xml version="1.0" encoding="UTF-8" standalone="no"?>
<!DOCTYPE svg PUBLIC "-//W3C//DTD SVG 1.1//EN"
 "http://www.w3.org/Graphics/SVG/1.1/DTD/svg11.dtd">
<!-- Generated by graphviz version 2.43.0 (0)
 -->
<!-- Title: alltypes Pages: 1 -->
<svg width="4118pt" height="332pt"
 viewBox="0.00 0.00 4118.28 332.00" xmlns="http://www.w3.org/2000/svg" xmlns:xlink="http://www.w3.org/1999/xlink">
<g id="graph0" class="graph" transform="scale(1 1) rotate(0) translate(4 328)">
<title>alltypes</title>
<polygon fill="white" stroke="transparent" points="-4,4 -4,-328 4114.28,-328 4114.28,4 -4,4"/>
<!-- Derivation -->
<g id="node1" class="node">
<title>Derivation</title>
<ellipse fill="none" stroke="darkviolet" cx="1787.84" cy="-234" rx="59.59" ry="18"/>
<text text-anchor="middle" x="1787.84" y="-230.3" font-family="Times,serif" font-size="14.00">Derivation</text>
</g>
<!-- Sentence -->
<g id="node2" class="node">
<title>Sentence</title>
<ellipse fill="none" stroke="black" cx="1787.84" cy="-162" rx="53.89" ry="18"/>
<text text-anchor="middle" x="1787.84" y="-158.3" font-family="Times,serif" font-size="14.00">Sentence</text>
</g>
<!-- Derivation&#45;&gt;Sentence -->
<g id="edge1" class="edge">
<title>Derivation&#45;&gt;Sentence</title>
<path fill="none" stroke="black" d="M1787.84,-215.7C1787.84,-207.98 1787.84,-198.71 1787.84,-190.11"/>
<polygon fill="black" stroke="black" points="1791.34,-190.1 1787.84,-180.1 1784.34,-190.1 1791.34,-190.1"/>
</g>
<!-- ConstraintSete -->
<g id="node3" class="node">
<title>ConstraintSete</title>
<ellipse fill="none" stroke="#00cdcd" cx="3471.84" cy="-234" rx="81.49" ry="18"/>
<text text-anchor="middle" x="3471.84" y="-230.3" font-family="Times,serif" font-size="14.00">ConstraintSete</text>
</g>
<!-- ConceptChunk -->
<g id="node4" class="node">
<title>ConceptChunk</title>
<ellipse fill="none" stroke="black" cx="3484.84" cy="-162" rx="78.79" ry="18"/>
<text text-anchor="middle" x="3484.84" y="-158.3" font-family="Times,serif" font-size="14.00">ConceptChunk</text>
</g>
<!-- ConstraintSete&#45;&gt;ConceptChunk -->
<g id="edge2" class="edge">
<title>ConstraintSete&#45;&gt;ConceptChunk</title>
<path fill="none" stroke="black" d="M3475.06,-215.7C3476.49,-207.98 3478.21,-198.71 3479.81,-190.11"/>
<polygon fill="black" stroke="black" points="3483.28,-190.58 3481.67,-180.1 3476.4,-189.3 3483.28,-190.58"/>
</g>
<!-- NonEmptye -->
<g id="node5" class="node">
<title>NonEmptye</title>
<ellipse fill="none" stroke="black" cx="3646.84" cy="-162" rx="65.79" ry="18"/>
<text text-anchor="middle" x="3646.84" y="-158.3" font-family="Times,serif" font-size="14.00">NonEmptye</text>
</g>
<!-- ConstraintSete&#45;&gt;NonEmptye -->
<g id="edge3" class="edge">
<title>ConstraintSete&#45;&gt;NonEmptye</title>
<path fill="none" stroke="black" d="M3509.39,-217.98C3536.46,-207.16 3573.12,-192.49 3601.77,-181.03"/>
<polygon fill="black" stroke="black" points="3603.17,-184.24 3611.16,-177.27 3600.57,-177.74 3603.17,-184.24"/>
</g>
<!-- DDPkt -->
<g id="node6" class="node">
<title>DDPkt</title>
<ellipse fill="none" stroke="#00cdcd" cx="2200.84" cy="-234" rx="40.89" ry="18"/>
<text text-anchor="middle" x="2200.84" y="-230.3" font-family="Times,serif" font-size="14.00">DDPkt</text>
</g>
<!-- DDPkt&#45;&gt;Sentence -->
<g id="edge9" class="edge">
<title>DDPkt&#45;&gt;Sentence</title>
<path fill="none" stroke="black" d="M2162.74,-227.21C2141.08,-223.91 2113.44,-219.72 2088.84,-216 1982.63,-199.94 1954.94,-202.24 1849.84,-180 1845.67,-179.12 1841.36,-178.12 1837.04,-177.06"/>
<polygon fill="black" stroke="black" points="1837.59,-173.58 1827.03,-174.5 1835.85,-180.37 1837.59,-173.58"/>
</g>
<!-- UID -->
<g id="node7" class="node">
<title>UID</title>
<ellipse fill="none" stroke="black" cx="1092.84" cy="-162" rx="29.5" ry="18"/>
<text text-anchor="middle" x="1092.84" y="-158.3" font-family="Times,serif" font-size="14.00">UID</text>
</g>
<!-- DDPkt&#45;&gt;UID -->
<g id="edge4" class="edge">
<title>DDPkt&#45;&gt;UID</title>
<path fill="none" stroke="black" d="M2163.64,-226.27C2141.91,-222.62 2113.91,-218.37 2088.84,-216 1876.97,-196 1339.33,-227.34 1131.84,-180 1129.32,-179.42 1126.76,-178.69 1124.22,-177.85"/>
<polygon fill="black" stroke="black" points="1125.22,-174.48 1114.63,-174.19 1122.73,-181.02 1125.22,-174.48"/>
</g>
<!-- DecRef -->
<g id="node8" class="node">
<title>DecRef</title>
<ellipse fill="none" stroke="black" cx="2306.84" cy="-162" rx="44.39" ry="18"/>
<text text-anchor="middle" x="2306.84" y="-158.3" font-family="Times,serif" font-size="14.00">DecRef</text>
</g>
<!-- DDPkt&#45;&gt;DecRef -->
<g id="edge5" class="edge">
<title>DDPkt&#45;&gt;DecRef</title>
<path fill="none" stroke="black" d="M2222.55,-218.67C2237.92,-208.52 2258.76,-194.75 2275.88,-183.45"/>
<polygon fill="black" stroke="black" points="2278.02,-186.23 2284.44,-177.8 2274.16,-180.39 2278.02,-186.23"/>
</g>
<!-- MaybeDerivation -->
<g id="node9" class="node">
<title>MaybeDerivation</title>
<ellipse fill="none" stroke="black" cx="2055.84" cy="-162" rx="90.98" ry="18"/>
<text text-anchor="middle" x="2055.84" y="-158.3" font-family="Times,serif" font-size="14.00">MaybeDerivation</text>
</g>
<!-- DDPkt&#45;&gt;MaybeDerivation -->
<g id="edge6" class="edge">
<title>DDPkt&#45;&gt;MaybeDerivation</title>
<path fill="none" stroke="black" d="M2174.25,-220.16C2152.86,-209.84 2122.42,-195.14 2097.76,-183.24"/>
<polygon fill="black" stroke="black" points="2099.15,-180.02 2088.63,-178.83 2096.11,-186.32 2099.15,-180.02"/>
</g>
<!-- ShortName -->
<g id="node10" class="node">
<title>ShortName</title>
<ellipse fill="none" stroke="black" cx="2432.84" cy="-162" rx="63.89" ry="18"/>
<text text-anchor="middle" x="2432.84" y="-158.3" font-family="Times,serif" font-size="14.00">ShortName</text>
</g>
<!-- DDPkt&#45;&gt;ShortName -->
<g id="edge7" class="edge">
<title>DDPkt&#45;&gt;ShortName</title>
<path fill="none" stroke="black" d="M2231.98,-222.18C2238.21,-220.08 2244.72,-217.93 2250.84,-216 2293.73,-202.47 2342.69,-188.28 2379.02,-178"/>
<polygon fill="black" stroke="black" points="2380.25,-181.29 2388.92,-175.2 2378.34,-174.55 2380.25,-181.29"/>
</g>
<!-- String -->
<g id="node11" class="node">
<title>String</title>
<ellipse fill="none" stroke="black" cx="2204.84" cy="-162" rx="40.09" ry="18"/>
<text text-anchor="middle" x="2204.84" y="-158.3" font-family="Times,serif" font-size="14.00">String</text>
</g>
<!-- DDPkt&#45;&gt;String -->
<g id="edge8" class="edge">
<title>DDPkt&#45;&gt;String</title>
<path fill="none" stroke="black" d="M2201.83,-215.7C2202.27,-207.98 2202.8,-198.71 2203.3,-190.11"/>
<polygon fill="black" stroke="black" points="2206.79,-190.29 2203.87,-180.1 2199.8,-189.89 2206.79,-190.29"/>
</g>
<!-- DataDefinition -->
<g id="node12" class="node">
<title>DataDefinition</title>
<ellipse fill="none" stroke="darkviolet" cx="3637.84" cy="-306" rx="77.99" ry="18"/>
<text text-anchor="middle" x="3637.84" y="-302.3" font-family="Times,serif" font-size="14.00">DataDefinition</text>
</g>
<!-- DataDefinition&#45;&gt;DDPkt -->
<g id="edge11" class="edge">
<title>DataDefinition&#45;&gt;DDPkt</title>
<path fill="none" stroke="black" d="M3559.91,-304.98C3306.06,-304.45 2504.83,-299 2250.84,-252 2247.36,-251.35 2243.78,-250.52 2240.23,-249.56"/>
<polygon fill="black" stroke="black" points="2240.93,-246.11 2230.34,-246.6 2238.92,-252.82 2240.93,-246.11"/>
</g>
<!-- DataDefinition&#45;&gt;DataDefinition -->
<g id="edge12" class="edge">
<title>DataDefinition&#45;&gt;DataDefinition</title>
<path fill="none" stroke="black" d="M3690.66,-319.31C3713.87,-320.49 3733.84,-316.05 3733.84,-306 3733.84,-297.44 3719.36,-292.95 3700.73,-292.53"/>
<polygon fill="black" stroke="black" points="3700.61,-289.03 3690.66,-292.69 3700.72,-296.03 3700.61,-289.03"/>
</g>
<!-- SimpleQDef -->
<g id="node13" class="node">
<title>SimpleQDef</title>
<ellipse fill="none" stroke="black" cx="3637.84" cy="-234" rx="66.09" ry="18"/>
<text text-anchor="middle" x="3637.84" y="-230.3" font-family="Times,serif" font-size="14.00">SimpleQDef</text>
</g>
<!-- DataDefinition&#45;&gt;SimpleQDef -->
<g id="edge10" class="edge">
<title>DataDefinition&#45;&gt;SimpleQDef</title>
<path fill="none" stroke="black" d="M3637.84,-287.7C3637.84,-279.98 3637.84,-270.71 3637.84,-262.11"/>
<polygon fill="black" stroke="black" points="3641.34,-262.1 3637.84,-252.1 3634.34,-262.1 3641.34,-262.1"/>
</g>
<!-- ModelQDef -->
<g id="node14" class="node">
<title>ModelQDef</title>
<ellipse fill="none" stroke="black" cx="3324.84" cy="-162" rx="63.09" ry="18"/>
<text text-anchor="middle" x="3324.84" y="-158.3" font-family="Times,serif" font-size="14.00">ModelQDef</text>
</g>
<!-- DataDefinition&#45;&gt;ModelQDef -->
<g id="edge13" class="edge">
<title>DataDefinition&#45;&gt;ModelQDef</title>
<path fill="none" stroke="black" d="M3570.07,-297C3504.86,-288.24 3411.85,-272.65 3381.84,-252 3359.63,-236.72 3344.14,-209.65 3334.97,-189.37"/>
<polygon fill="black" stroke="black" points="3338.13,-187.85 3330.97,-180.04 3331.69,-190.61 3338.13,-187.85"/>
</g>
<!-- Lens_ -->
<g id="node15" class="node">
<title>Lens_</title>
<ellipse fill="none" stroke="black" cx="3758.84" cy="-234" rx="37.09" ry="18"/>
<text text-anchor="middle" x="3758.84" y="-230.3" font-family="Times,serif" font-size="14.00">Lens_</text>
</g>
<!-- DataDefinition&#45;&gt;Lens_ -->
<g id="edge14" class="edge">
<title>DataDefinition&#45;&gt;Lens_</title>
<path fill="none" stroke="black" d="M3665.3,-289.12C3683.72,-278.46 3708.03,-264.39 3727.26,-253.27"/>
<polygon fill="black" stroke="black" points="3729.06,-256.27 3735.96,-248.24 3725.55,-250.22 3729.06,-256.27"/>
</g>
<!-- a -->
<g id="node16" class="node">
<title>a</title>
<ellipse fill="none" stroke="black" cx="3840.84" cy="-234" rx="27" ry="18"/>
<text text-anchor="middle" x="3840.84" y="-230.3" font-family="Times,serif" font-size="14.00">a</text>
</g>
<!-- DataDefinition&#45;&gt;a -->
<g id="edge15" class="edge">
<title>DataDefinition&#45;&gt;a</title>
<path fill="none" stroke="black" d="M3685.58,-291.7C3719.31,-281.86 3765.35,-267.51 3804.84,-252 3806.68,-251.28 3808.55,-250.51 3810.43,-249.71"/>
<polygon fill="black" stroke="black" points="3812.03,-252.83 3819.73,-245.55 3809.17,-246.44 3812.03,-252.83"/>
</g>
<!-- GenDefn -->
<g id="node17" class="node">
<title>GenDefn</title>
<ellipse fill="none" stroke="#00cdcd" cx="2310.84" cy="-234" rx="51.19" ry="18"/>
<text text-anchor="middle" x="2310.84" y="-230.3" font-family="Times,serif" font-size="14.00">GenDefn</text>
</g>
<!-- GenDefn&#45;&gt;Sentence -->
<g id="edge22" class="edge">
<title>GenDefn&#45;&gt;Sentence</title>
<path fill="none" stroke="black" d="M2273.97,-221.39C2266.38,-219.33 2258.4,-217.4 2250.84,-216 2074.89,-183.47 2025.94,-211.78 1849.84,-180 1845.4,-179.2 1840.81,-178.22 1836.23,-177.15"/>
<polygon fill="black" stroke="black" points="1836.85,-173.7 1826.3,-174.68 1835.16,-180.49 1836.85,-173.7"/>
</g>
<!-- GenDefn&#45;&gt;DecRef -->
<g id="edge19" class="edge">
<title>GenDefn&#45;&gt;DecRef</title>
<path fill="none" stroke="black" d="M2309.86,-215.7C2309.42,-207.98 2308.89,-198.71 2308.39,-190.11"/>
<polygon fill="black" stroke="black" points="2311.89,-189.89 2307.82,-180.1 2304.9,-190.29 2311.89,-189.89"/>
</g>
<!-- GenDefn&#45;&gt;MaybeDerivation -->
<g id="edge18" class="edge">
<title>GenDefn&#45;&gt;MaybeDerivation</title>
<path fill="none" stroke="black" d="M2272.13,-221.97C2265.05,-219.97 2257.73,-217.91 2250.84,-216 2206.31,-203.64 2155.98,-189.97 2117.61,-179.6"/>
<polygon fill="black" stroke="black" points="2118.18,-176.14 2107.62,-176.91 2116.36,-182.89 2118.18,-176.14"/>
</g>
<!-- GenDefn&#45;&gt;ShortName -->
<g id="edge20" class="edge">
<title>GenDefn&#45;&gt;ShortName</title>
<path fill="none" stroke="black" d="M2336.42,-218.33C2354.03,-208.22 2377.68,-194.65 2397.14,-183.49"/>
<polygon fill="black" stroke="black" points="2399.1,-186.39 2406.04,-178.38 2395.62,-180.32 2399.1,-186.39"/>
</g>
<!-- GenDefn&#45;&gt;String -->
<g id="edge21" class="edge">
<title>GenDefn&#45;&gt;String</title>
<path fill="none" stroke="black" d="M2287.84,-217.81C2272.39,-207.61 2251.87,-194.05 2235.1,-182.98"/>
<polygon fill="black" stroke="black" points="2236.99,-180.03 2226.71,-177.44 2233.13,-185.87 2236.99,-180.03"/>
</g>
<!-- ModelKindModelExpr -->
<g id="node18" class="node">
<title>ModelKindModelExpr</title>
<ellipse fill="none" stroke="black" cx="2813.84" cy="-162" rx="112.38" ry="18"/>
<text text-anchor="middle" x="2813.84" y="-158.3" font-family="Times,serif" font-size="14.00">ModelKindModelExpr</text>
</g>
<!-- GenDefn&#45;&gt;ModelKindModelExpr -->
<g id="edge16" class="edge">
<title>GenDefn&#45;&gt;ModelKindModelExpr</title>
<path fill="none" stroke="black" d="M2357.77,-226.48C2429.68,-216.48 2571.46,-196.76 2691.84,-180 2701.61,-178.64 2711.82,-177.22 2722,-175.8"/>
<polygon fill="black" stroke="black" points="2722.72,-179.23 2732.14,-174.39 2721.76,-172.3 2722.72,-179.23"/>
</g>
<!-- MaybeUnitDefn -->
<g id="node19" class="node">
<title>MaybeUnitDefn</title>
<ellipse fill="none" stroke="black" cx="2598.84" cy="-162" rx="84.49" ry="18"/>
<text text-anchor="middle" x="2598.84" y="-158.3" font-family="Times,serif" font-size="14.00">MaybeUnitDefn</text>
</g>
<!-- GenDefn&#45;&gt;MaybeUnitDefn -->
<g id="edge17" class="edge">
<title>GenDefn&#45;&gt;MaybeUnitDefn</title>
<path fill="none" stroke="black" d="M2351.8,-223.05C2399.71,-211.4 2479.56,-191.99 2535.48,-178.4"/>
<polygon fill="black" stroke="black" points="2536.39,-181.78 2545.28,-176.02 2534.74,-174.98 2536.39,-181.78"/>
</g>
<!-- InstanceModel -->
<g id="node20" class="node">
<title>InstanceModel</title>
<ellipse fill="none" stroke="#00cdcd" cx="2000.84" cy="-234" rx="79.09" ry="18"/>
<text text-anchor="middle" x="2000.84" y="-230.3" font-family="Times,serif" font-size="14.00">InstanceModel</text>
</g>
<!-- InstanceModel&#45;&gt;Sentence -->
<g id="edge30" class="edge">
<title>InstanceModel&#45;&gt;Sentence</title>
<path fill="none" stroke="black" d="M1957.74,-218.83C1922.07,-207.11 1871.49,-190.49 1834.8,-178.43"/>
<polygon fill="black" stroke="black" points="1835.44,-174.96 1824.84,-175.16 1833.25,-181.61 1835.44,-174.96"/>
</g>
<!-- InstanceModel&#45;&gt;DecRef -->
<g id="edge26" class="edge">
<title>InstanceModel&#45;&gt;DecRef</title>
<path fill="none" stroke="black" d="M2061.06,-222.21C2112.59,-212.54 2188.55,-197.26 2253.84,-180 2257.22,-179.11 2260.69,-178.13 2264.17,-177.11"/>
<polygon fill="black" stroke="black" points="2265.37,-180.4 2273.92,-174.14 2263.34,-173.7 2265.37,-180.4"/>
</g>
<!-- InstanceModel&#45;&gt;MaybeDerivation -->
<g id="edge27" class="edge">
<title>InstanceModel&#45;&gt;MaybeDerivation</title>
<path fill="none" stroke="black" d="M2014.16,-216.05C2020.68,-207.75 2028.67,-197.58 2035.91,-188.38"/>
<polygon fill="black" stroke="black" points="2038.85,-190.3 2042.27,-180.28 2033.34,-185.98 2038.85,-190.3"/>
</g>
<!-- InstanceModel&#45;&gt;ShortName -->
<g id="edge28" class="edge">
<title>InstanceModel&#45;&gt;ShortName</title>
<path fill="none" stroke="black" d="M2068.95,-224.64C2141.36,-215.36 2259.11,-199.13 2359.84,-180 2365.2,-178.98 2370.75,-177.84 2376.3,-176.65"/>
<polygon fill="black" stroke="black" points="2377.22,-180.03 2386.23,-174.46 2375.71,-173.2 2377.22,-180.03"/>
</g>
<!-- InstanceModel&#45;&gt;String -->
<g id="edge29" class="edge">
<title>InstanceModel&#45;&gt;String</title>
<path fill="none" stroke="black" d="M2042.97,-218.65C2074.15,-208.02 2117.66,-193.15 2155.84,-180 2158.6,-179.05 2161.44,-178.07 2164.3,-177.08"/>
<polygon fill="black" stroke="black" points="2165.7,-180.3 2174.01,-173.72 2163.41,-173.69 2165.7,-180.3"/>
</g>
<!-- ModelKindExpr -->
<g id="node21" class="node">
<title>ModelKindExpr</title>
<ellipse fill="none" stroke="black" cx="1632.84" cy="-162" rx="83.39" ry="18"/>
<text text-anchor="middle" x="1632.84" y="-158.3" font-family="Times,serif" font-size="14.00">ModelKindExpr</text>
</g>
<!-- InstanceModel&#45;&gt;ModelKindExpr -->
<g id="edge23" class="edge">
<title>InstanceModel&#45;&gt;ModelKindExpr</title>
<path fill="none" stroke="black" d="M1942.13,-221.83C1877.14,-209.47 1772.45,-189.56 1703.15,-176.37"/>
<polygon fill="black" stroke="black" points="1703.67,-172.91 1693.19,-174.48 1702.36,-179.79 1703.67,-172.91"/>
</g>
<!-- Inputs -->
<g id="node22" class="node">
<title>Inputs</title>
<ellipse fill="none" stroke="#ee0000" cx="1453.84" cy="-162" rx="40.09" ry="18"/>
<text text-anchor="middle" x="1453.84" y="-158.3" font-family="Times,serif" font-size="14.00">Inputs</text>
</g>
<!-- InstanceModel&#45;&gt;Inputs -->
<g id="edge24" class="edge">
<title>InstanceModel&#45;&gt;Inputs</title>
<path fill="none" stroke="black" d="M1932.36,-224.86C1908.47,-222.03 1881.48,-218.86 1856.84,-216 1716.43,-199.71 1680.54,-201.57 1540.84,-180 1527.27,-177.9 1512.59,-175.2 1499.22,-172.57"/>
<polygon fill="black" stroke="black" points="1499.78,-169.12 1489.29,-170.59 1498.41,-175.98 1499.78,-169.12"/>
</g>
<!-- Output -->
<g id="node23" class="node">
<title>Output</title>
<ellipse fill="none" stroke="#ee0000" cx="1902.84" cy="-162" rx="43.59" ry="18"/>
<text text-anchor="middle" x="1902.84" y="-158.3" font-family="Times,serif" font-size="14.00">Output</text>
</g>
<!-- InstanceModel&#45;&gt;Output -->
<g id="edge25" class="edge">
<title>InstanceModel&#45;&gt;Output</title>
<path fill="none" stroke="black" d="M1977.62,-216.41C1963.99,-206.68 1946.65,-194.29 1932.1,-183.89"/>
<polygon fill="black" stroke="black" points="1934.07,-181 1923.9,-178.04 1930,-186.7 1934.07,-181"/>
</g>
<!-- Input -->
<g id="node24" class="node">
<title>Input</title>
<ellipse fill="none" stroke="#ee0000" cx="1453.84" cy="-90" rx="36" ry="18"/>
<text text-anchor="middle" x="1453.84" y="-86.3" font-family="Times,serif" font-size="14.00">Input</text>
</g>
<!-- Inputs&#45;&gt;Input -->
<g id="edge32" class="edge">
<title>Inputs&#45;&gt;Input</title>
<path fill="none" stroke="black" d="M1453.84,-143.7C1453.84,-135.98 1453.84,-126.71 1453.84,-118.11"/>
<polygon fill="black" stroke="black" points="1457.34,-118.1 1453.84,-108.1 1450.34,-118.1 1457.34,-118.1"/>
</g>
<!-- DefinedQuantityDict -->
<g id="node26" class="node">
<title>DefinedQuantityDict</title>
<ellipse fill="none" stroke="black" cx="1902.84" cy="-90" rx="105.88" ry="18"/>
<text text-anchor="middle" x="1902.84" y="-86.3" font-family="Times,serif" font-size="14.00">DefinedQuantityDict</text>
</g>
<!-- Output&#45;&gt;DefinedQuantityDict -->
<g id="edge33" class="edge">
<title>Output&#45;&gt;DefinedQuantityDict</title>
<path fill="none" stroke="black" d="M1902.84,-143.7C1902.84,-135.98 1902.84,-126.71 1902.84,-118.11"/>
<polygon fill="black" stroke="black" points="1906.34,-118.1 1902.84,-108.1 1899.34,-118.1 1906.34,-118.1"/>
</g>
<!-- DefinedQuantityDictMaybeRealIntervalExprExpr -->
<g id="node25" class="node">
<title>DefinedQuantityDictMaybeRealIntervalExprExpr</title>
<ellipse fill="none" stroke="black" cx="1453.84" cy="-18" rx="239.36" ry="18"/>
<text text-anchor="middle" x="1453.84" y="-14.3" font-family="Times,serif" font-size="14.00">DefinedQuantityDictMaybeRealIntervalExprExpr</text>
</g>
<!-- Input&#45;&gt;DefinedQuantityDictMaybeRealIntervalExprExpr -->
<g id="edge31" class="edge">
<title>Input&#45;&gt;DefinedQuantityDictMaybeRealIntervalExprExpr</title>
<path fill="none" stroke="black" d="M1453.84,-71.7C1453.84,-63.98 1453.84,-54.71 1453.84,-46.11"/>
<polygon fill="black" stroke="black" points="1457.34,-46.1 1453.84,-36.1 1450.34,-46.1 1457.34,-46.1"/>
</g>
<!-- OutputConstraints -->
<g id="node27" class="node">
<title>OutputConstraints</title>
<ellipse fill="none" stroke="#ee0000" cx="3997.84" cy="-306" rx="97.48" ry="18"/>
<text text-anchor="middle" x="3997.84" y="-302.3" font-family="Times,serif" font-size="14.00">OutputConstraints</text>
</g>
<!-- RealIntervalExprExpr -->
<g id="node28" class="node">
<title>RealIntervalExprExpr</title>
<ellipse fill="none" stroke="black" cx="3997.84" cy="-234" rx="112.38" ry="18"/>
<text text-anchor="middle" x="3997.84" y="-230.3" font-family="Times,serif" font-size="14.00">RealIntervalExprExpr</text>
</g>
<!-- OutputConstraints&#45;&gt;RealIntervalExprExpr -->
<g id="edge34" class="edge">
<title>OutputConstraints&#45;&gt;RealIntervalExprExpr</title>
<path fill="none" stroke="black" d="M3997.84,-287.7C3997.84,-279.98 3997.84,-270.71 3997.84,-262.11"/>
<polygon fill="black" stroke="black" points="4001.34,-262.1 3997.84,-252.1 3994.34,-262.1 4001.34,-262.1"/>
</g>
<!-- ModelKinde -->
<g id="node29" class="node">
<title>ModelKinde</title>
<ellipse fill="none" stroke="#00cdcd" cx="884.84" cy="-306" rx="66.09" ry="18"/>
<text text-anchor="middle" x="884.84" y="-302.3" font-family="Times,serif" font-size="14.00">ModelKinde</text>
</g>
<!-- ModelKinde&#45;&gt;UID -->
<g id="edge36" class="edge">
<title>ModelKinde&#45;&gt;UID</title>
<path fill="none" stroke="black" d="M906.08,-288.73C930.14,-270.48 970.71,-240.26 1006.84,-216 1025.4,-203.54 1046.78,-190.36 1063.59,-180.26"/>
<polygon fill="black" stroke="black" points="1065.62,-183.12 1072.41,-174.98 1062.03,-177.11 1065.62,-183.12"/>
</g>
<!-- ModelKindse -->
<g id="node30" class="node">
<title>ModelKindse</title>
<ellipse fill="none" stroke="darkviolet" cx="662.84" cy="-234" rx="71.49" ry="18"/>
<text text-anchor="middle" x="662.84" y="-230.3" font-family="Times,serif" font-size="14.00">ModelKindse</text>
</g>
<!-- ModelKinde&#45;&gt;ModelKindse -->
<g id="edge35" class="edge">
<title>ModelKinde&#45;&gt;ModelKindse</title>
<path fill="none" stroke="black" d="M843.35,-291.92C807.14,-280.5 754.41,-263.87 715.29,-251.54"/>
<polygon fill="black" stroke="black" points="716.24,-248.17 705.65,-248.5 714.13,-254.84 716.24,-248.17"/>
</g>
<!-- NP -->
<g id="node31" class="node">
<title>NP</title>
<ellipse fill="none" stroke="black" cx="884.84" cy="-234" rx="27" ry="18"/>
<text text-anchor="middle" x="884.84" y="-230.3" font-family="Times,serif" font-size="14.00">NP</text>
</g>
<!-- ModelKinde&#45;&gt;NP -->
<g id="edge37" class="edge">
<title>ModelKinde&#45;&gt;NP</title>
<path fill="none" stroke="black" d="M884.84,-287.7C884.84,-279.98 884.84,-270.71 884.84,-262.11"/>
<polygon fill="black" stroke="black" points="888.34,-262.1 884.84,-252.1 881.34,-262.1 888.34,-262.1"/>
</g>
<!-- DifferentialModel -->
<g id="node32" class="node">
<title>DifferentialModel</title>
<ellipse fill="none" stroke="black" cx="225.84" cy="-162" rx="92.08" ry="18"/>
<text text-anchor="middle" x="225.84" y="-158.3" font-family="Times,serif" font-size="14.00">DifferentialModel</text>
</g>
<!-- ModelKindse&#45;&gt;DifferentialModel -->
<g id="edge38" class="edge">
<title>ModelKindse&#45;&gt;DifferentialModel</title>
<path fill="none" stroke="black" d="M603.64,-223.85C536.49,-213.43 423.74,-195.8 326.84,-180 319.05,-178.73 310.91,-177.39 302.8,-176.04"/>
<polygon fill="black" stroke="black" points="303.36,-172.58 292.92,-174.39 302.21,-179.49 303.36,-172.58"/>
</g>
<!-- ModelKinds -->
<g id="node33" class="node">
<title>ModelKinds</title>
<ellipse fill="none" stroke="black" cx="401.84" cy="-162" rx="65.79" ry="18"/>
<text text-anchor="middle" x="401.84" y="-158.3" font-family="Times,serif" font-size="14.00">ModelKinds</text>
</g>
<!-- ModelKindse&#45;&gt;ModelKinds -->
<g id="edge39" class="edge">
<title>ModelKindse&#45;&gt;ModelKinds</title>
<path fill="none" stroke="black" d="M615.88,-220.4C571.21,-208.42 504.02,-190.4 456.86,-177.76"/>
<polygon fill="black" stroke="black" points="457.69,-174.35 447.12,-175.14 455.87,-181.11 457.69,-174.35"/>
</g>
<!-- e -->
<g id="node34" class="node">
<title>e</title>
<ellipse fill="none" stroke="black" cx="1018.84" cy="-162" rx="27" ry="18"/>
<text text-anchor="middle" x="1018.84" y="-158.3" font-family="Times,serif" font-size="14.00">e</text>
</g>
<!-- ModelKindse&#45;&gt;e -->
<g id="edge40" class="edge">
<title>ModelKindse&#45;&gt;e</title>
<path fill="none" stroke="black" d="M729.66,-227.37C795.28,-220.58 897.65,-206.6 982.84,-180 984.77,-179.4 986.73,-178.71 988.69,-177.97"/>
<polygon fill="black" stroke="black" points="990.46,-181.02 998.3,-173.9 987.73,-174.57 990.46,-181.02"/>
</g>
<!-- RelationConcept -->
<g id="node35" class="node">
<title>RelationConcept</title>
<ellipse fill="none" stroke="black" cx="572.84" cy="-162" rx="87.18" ry="18"/>
<text text-anchor="middle" x="572.84" y="-158.3" font-family="Times,serif" font-size="14.00">RelationConcept</text>
</g>
<!-- ModelKindse&#45;&gt;RelationConcept -->
<g id="edge41" class="edge">
<title>ModelKindse&#45;&gt;RelationConcept</title>
<path fill="none" stroke="black" d="M641.97,-216.76C630.21,-207.62 615.34,-196.05 602.4,-185.99"/>
<polygon fill="black" stroke="black" points="604.27,-183.01 594.23,-179.63 599.98,-188.54 604.27,-183.01"/>
</g>
<!-- ConstraintSet -->
<g id="node36" class="node">
<title>ConstraintSet</title>
<ellipse fill="none" stroke="black" cx="752.84" cy="-162" rx="75.29" ry="18"/>
<text text-anchor="middle" x="752.84" y="-158.3" font-family="Times,serif" font-size="14.00">ConstraintSet</text>
</g>
<!-- ModelKindse&#45;&gt;ConstraintSet -->
<g id="edge42" class="edge">
<title>ModelKindse&#45;&gt;ConstraintSet</title>
<path fill="none" stroke="black" d="M683.72,-216.76C695.56,-207.55 710.57,-195.88 723.57,-185.77"/>
<polygon fill="black" stroke="black" points="726.03,-188.29 731.77,-179.39 721.73,-182.77 726.03,-188.29"/>
</g>
<!-- QDefinition -->
<g id="node37" class="node">
<title>QDefinition</title>
<ellipse fill="none" stroke="black" cx="909.84" cy="-162" rx="63.89" ry="18"/>
<text text-anchor="middle" x="909.84" y="-158.3" font-family="Times,serif" font-size="14.00">QDefinition</text>
</g>
<!-- ModelKindse&#45;&gt;QDefinition -->
<g id="edge43" class="edge">
<title>ModelKindse&#45;&gt;QDefinition</title>
<path fill="none" stroke="black" d="M708.44,-220.08C750.42,-208.18 812.72,-190.53 856.89,-178.01"/>
<polygon fill="black" stroke="black" points="857.92,-181.35 866.59,-175.26 856.01,-174.62 857.92,-181.35"/>
</g>
<!-- MultiDefn -->
<g id="node38" class="node">
<title>MultiDefn</title>
<ellipse fill="none" stroke="black" cx="57.84" cy="-162" rx="57.69" ry="18"/>
<text text-anchor="middle" x="57.84" y="-158.3" font-family="Times,serif" font-size="14.00">MultiDefn</text>
</g>
<!-- ModelKindse&#45;&gt;MultiDefn -->
<g id="edge44" class="edge">
<title>ModelKindse&#45;&gt;MultiDefn</title>
<path fill="none" stroke="black" d="M593.6,-229.51C490.73,-223.58 291.71,-209.22 124.84,-180 119.8,-179.12 114.58,-178.06 109.38,-176.9"/>
<polygon fill="black" stroke="black" points="109.99,-173.45 99.45,-174.59 108.4,-180.27 109.99,-173.45"/>
</g>
<!-- DefiningExpre -->
<g id="node39" class="node">
<title>DefiningExpre</title>
<ellipse fill="none" stroke="#00cdcd" cx="1092.84" cy="-234" rx="77.19" ry="18"/>
<text text-anchor="middle" x="1092.84" y="-230.3" font-family="Times,serif" font-size="14.00">DefiningExpre</text>
</g>
<!-- DefiningExpre&#45;&gt;Sentence -->
<g id="edge46" class="edge">
<title>DefiningExpre&#45;&gt;Sentence</title>
<path fill="none" stroke="black" d="M1165.45,-227.65C1319.81,-216.17 1670.96,-189.45 1724.84,-180 1729.55,-179.18 1734.41,-178.16 1739.25,-177.04"/>
<polygon fill="black" stroke="black" points="1740.23,-180.41 1749.11,-174.63 1738.56,-173.61 1740.23,-180.41"/>
</g>
<!-- DefiningExpre&#45;&gt;UID -->
<g id="edge45" class="edge">
<title>DefiningExpre&#45;&gt;UID</title>
<path fill="none" stroke="black" d="M1092.84,-215.7C1092.84,-207.98 1092.84,-198.71 1092.84,-190.11"/>
<polygon fill="black" stroke="black" points="1096.34,-190.1 1092.84,-180.1 1089.34,-190.1 1096.34,-190.1"/>
</g>
<!-- DefiningExpre&#45;&gt;e -->
<g id="edge47" class="edge">
<title>DefiningExpre&#45;&gt;e</title>
<path fill="none" stroke="black" d="M1075.31,-216.41C1065.13,-206.78 1052.2,-194.55 1041.28,-184.23"/>
<polygon fill="black" stroke="black" points="1043.43,-181.44 1033.76,-177.11 1038.62,-186.52 1043.43,-181.44"/>
</g>
<!-- MultiDefne -->
<g id="node40" class="node">
<title>MultiDefne</title>
<ellipse fill="none" stroke="#00cdcd" cx="1394.84" cy="-234" rx="63.09" ry="18"/>
<text text-anchor="middle" x="1394.84" y="-230.3" font-family="Times,serif" font-size="14.00">MultiDefne</text>
</g>
<!-- MultiDefne&#45;&gt;Sentence -->
<g id="edge50" class="edge">
<title>MultiDefne&#45;&gt;Sentence</title>
<path fill="none" stroke="black" d="M1451.23,-225.77C1517.2,-216.89 1629.53,-200.46 1724.84,-180 1729.26,-179.05 1733.83,-177.99 1738.4,-176.86"/>
<polygon fill="black" stroke="black" points="1739.51,-180.19 1748.34,-174.34 1737.79,-173.41 1739.51,-180.19"/>
</g>
<!-- MultiDefne&#45;&gt;UID -->
<g id="edge48" class="edge">
<title>MultiDefne&#45;&gt;UID</title>
<path fill="none" stroke="black" d="M1339.33,-225.32C1285.51,-217.06 1201.93,-202.06 1131.84,-180 1129.44,-179.24 1126.98,-178.39 1124.53,-177.47"/>
<polygon fill="black" stroke="black" points="1125.8,-174.21 1115.22,-173.72 1123.19,-180.7 1125.8,-174.21"/>
</g>
<!-- MultiDefne&#45;&gt;DefinedQuantityDict -->
<g id="edge49" class="edge">
<title>MultiDefne&#45;&gt;DefinedQuantityDict</title>
<path fill="none" stroke="black" d="M1429.88,-219.03C1451.77,-209.54 1480.03,-195.85 1502.84,-180 1521.95,-166.72 1519.92,-154.16 1540.84,-144 1585.04,-122.55 1708.02,-107.67 1798.42,-99.25"/>
<polygon fill="black" stroke="black" points="1798.81,-102.73 1808.44,-98.33 1798.17,-95.76 1798.81,-102.73"/>
</g>
<!-- NonEmptyDefiningExpre -->
<g id="node41" class="node">
<title>NonEmptyDefiningExpre</title>
<ellipse fill="none" stroke="black" cx="1267.84" cy="-162" rx="127.28" ry="18"/>
<text text-anchor="middle" x="1267.84" y="-158.3" font-family="Times,serif" font-size="14.00">NonEmptyDefiningExpre</text>
</g>
<!-- MultiDefne&#45;&gt;NonEmptyDefiningExpre -->
<g id="edge51" class="edge">
<title>MultiDefne&#45;&gt;NonEmptyDefiningExpre</title>
<path fill="none" stroke="black" d="M1366.97,-217.64C1349.32,-207.91 1326.25,-195.19 1306.8,-184.47"/>
<polygon fill="black" stroke="black" points="1308.31,-181.31 1297.87,-179.55 1304.93,-187.44 1308.31,-181.31"/>
</g>
<!-- TheoryModel -->
<g id="node42" class="node">
<title>TheoryModel</title>
<ellipse fill="none" stroke="#00cdcd" cx="2883.84" cy="-234" rx="71.49" ry="18"/>
<text text-anchor="middle" x="2883.84" y="-230.3" font-family="Times,serif" font-size="14.00">TheoryModel</text>
</g>
<!-- TheoryModel&#45;&gt;Sentence -->
<g id="edge62" class="edge">
<title>TheoryModel&#45;&gt;Sentence</title>
<path fill="none" stroke="black" d="M2813.74,-230.29C2596.64,-221.76 1944.29,-195.19 1849.84,-180 1845.32,-179.27 1840.65,-178.34 1836.01,-177.29"/>
<polygon fill="black" stroke="black" points="1836.47,-173.8 1825.93,-174.83 1834.81,-180.6 1836.47,-173.8"/>
</g>
<!-- TheoryModel&#45;&gt;ConceptChunk -->
<g id="edge56" class="edge">
<title>TheoryModel&#45;&gt;ConceptChunk</title>
<path fill="none" stroke="black" d="M2951.3,-227.93C3049.61,-220.12 3237.86,-203.52 3396.84,-180 3403.94,-178.95 3411.32,-177.73 3418.67,-176.43"/>
<polygon fill="black" stroke="black" points="3419.42,-179.85 3428.64,-174.62 3418.17,-172.96 3419.42,-179.85"/>
</g>
<!-- TheoryModel&#45;&gt;DecRef -->
<g id="edge59" class="edge">
<title>TheoryModel&#45;&gt;DecRef</title>
<path fill="none" stroke="black" d="M2813.63,-230.57C2712.42,-226.01 2520.07,-213.41 2359.84,-180 2356.23,-179.25 2352.51,-178.34 2348.8,-177.34"/>
<polygon fill="black" stroke="black" points="2349.65,-173.94 2339.07,-174.52 2347.7,-180.66 2349.65,-173.94"/>
</g>
<!-- TheoryModel&#45;&gt;ShortName -->
<g id="edge60" class="edge">
<title>TheoryModel&#45;&gt;ShortName</title>
<path fill="none" stroke="black" d="M2820.03,-225.82C2744.65,-216.93 2615.62,-200.44 2505.84,-180 2500.41,-178.99 2494.76,-177.84 2489.13,-176.64"/>
<polygon fill="black" stroke="black" points="2489.57,-173.15 2479.05,-174.42 2488.07,-179.99 2489.57,-173.15"/>
</g>
<!-- TheoryModel&#45;&gt;String -->
<g id="edge61" class="edge">
<title>TheoryModel&#45;&gt;String</title>
<path fill="none" stroke="black" d="M2812.14,-232.76C2694.34,-231.09 2453.02,-222.23 2253.84,-180 2250.48,-179.29 2247.04,-178.41 2243.6,-177.43"/>
<polygon fill="black" stroke="black" points="2244.63,-174.09 2234.05,-174.46 2242.56,-180.77 2244.63,-174.09"/>
</g>
<!-- TheoryModel&#45;&gt;ModelQDef -->
<g id="edge57" class="edge">
<title>TheoryModel&#45;&gt;ModelQDef</title>
<path fill="none" stroke="black" d="M2947.47,-225.61C3021.23,-216.64 3146.33,-200.18 3252.84,-180 3258.13,-179 3263.61,-177.87 3269.08,-176.68"/>
<polygon fill="black" stroke="black" points="3269.89,-180.09 3278.88,-174.5 3268.36,-173.26 3269.89,-180.09"/>
</g>
<!-- TheoryModel&#45;&gt;ModelKindModelExpr -->
<g id="edge52" class="edge">
<title>TheoryModel&#45;&gt;ModelKindModelExpr</title>
<path fill="none" stroke="black" d="M2867.26,-216.41C2858.49,-207.65 2847.58,-196.73 2837.9,-187.06"/>
<polygon fill="black" stroke="black" points="2840.35,-184.55 2830.8,-179.96 2835.4,-189.5 2840.35,-184.55"/>
</g>
<!-- TheoryModel&#45;&gt;DefinedQuantityDict -->
<g id="edge55" class="edge">
<title>TheoryModel&#45;&gt;DefinedQuantityDict</title>
<path fill="none" stroke="black" d="M2904.69,-216.71C2926.71,-197.62 2955.57,-165.82 2934.84,-144 2903.7,-111.21 2281.11,-97.19 2018.31,-92.72"/>
<polygon fill="black" stroke="black" points="2018.03,-89.21 2007.97,-92.54 2017.91,-96.21 2018.03,-89.21"/>
</g>
<!-- TheoryModel&#45;&gt;TheoryModel -->
<g id="edge53" class="edge">
<title>TheoryModel&#45;&gt;TheoryModel</title>
<path fill="none" stroke="black" d="M2932.63,-247.29C2954.46,-248.55 2973.34,-244.12 2973.34,-234 2973.34,-225.54 2960.15,-221.05 2943.07,-220.55"/>
<polygon fill="black" stroke="black" points="2942.58,-217.06 2932.63,-220.71 2942.69,-224.05 2942.58,-217.06"/>
</g>
<!-- SpaceDefn -->
<g id="node43" class="node">
<title>SpaceDefn</title>
<ellipse fill="none" stroke="black" cx="3183.84" cy="-162" rx="60.39" ry="18"/>
<text text-anchor="middle" x="3183.84" y="-158.3" font-family="Times,serif" font-size="14.00">SpaceDefn</text>
</g>
<!-- TheoryModel&#45;&gt;SpaceDefn -->
<g id="edge54" class="edge">
<title>TheoryModel&#45;&gt;SpaceDefn</title>
<path fill="none" stroke="black" d="M2935.28,-221.45C2982.13,-210.87 3053.2,-194.66 3114.84,-180 3119.48,-178.9 3124.28,-177.74 3129.1,-176.57"/>
<polygon fill="black" stroke="black" points="3130.07,-179.94 3138.96,-174.17 3128.41,-173.14 3130.07,-179.94"/>
</g>
<!-- ModelExpr -->
<g id="node44" class="node">
<title>ModelExpr</title>
<ellipse fill="none" stroke="black" cx="3043.84" cy="-162" rx="61.99" ry="18"/>
<text text-anchor="middle" x="3043.84" y="-158.3" font-family="Times,serif" font-size="14.00">ModelExpr</text>
</g>
<!-- TheoryModel&#45;&gt;ModelExpr -->
<g id="edge58" class="edge">
<title>TheoryModel&#45;&gt;ModelExpr</title>
<path fill="none" stroke="black" d="M2917.78,-218.15C2942.29,-207.43 2975.55,-192.88 3001.75,-181.42"/>
<polygon fill="black" stroke="black" points="3003.3,-184.56 3011.06,-177.35 3000.49,-178.15 3003.3,-184.56"/>
</g>
</g>
</svg>
