<?xml version="1.0" encoding="UTF-8" standalone="no"?>
<!DOCTYPE svg PUBLIC "-//W3C//DTD SVG 1.1//EN"
 "http://www.w3.org/Graphics/SVG/1.1/DTD/svg11.dtd">
<!-- Generated by graphviz version 2.43.0 (0)
 -->
<!-- Title: alltypes Pages: 1 -->
<svg width="3903pt" height="332pt"
 viewBox="0.00 0.00 3902.82 332.00" xmlns="http://www.w3.org/2000/svg" xmlns:xlink="http://www.w3.org/1999/xlink">
<g id="graph0" class="graph" transform="scale(1 1) rotate(0) translate(4 328)">
<title>alltypes</title>
<polygon fill="white" stroke="transparent" points="-4,4 -4,-328 3898.82,-328 3898.82,4 -4,4"/>
<!-- TermAbbr -->
<g id="node1" class="node">
<title>TermAbbr</title>
<ellipse fill="none" stroke="#00cdcd" cx="2155.64" cy="-306" rx="57.39" ry="18"/>
<text text-anchor="middle" x="2155.64" y="-302.3" font-family="Times,serif" font-size="14.00">TermAbbr</text>
</g>
<!-- NP -->
<g id="node2" class="node">
<title>NP</title>
<ellipse fill="none" stroke="black" cx="1778.64" cy="-234" rx="27" ry="18"/>
<text text-anchor="middle" x="1778.64" y="-230.3" font-family="Times,serif" font-size="14.00">NP</text>
</g>
<!-- TermAbbr&#45;&gt;NP -->
<g id="edge1" class="edge">
<title>TermAbbr&#45;&gt;NP</title>
<path fill="none" stroke="black" d="M2104.15,-298.07C2041.33,-289.22 1932.09,-272.57 1839.64,-252 1830.85,-250.04 1821.44,-247.6 1812.7,-245.18"/>
<polygon fill="black" stroke="black" points="1813.41,-241.74 1802.84,-242.38 1811.5,-248.47 1813.41,-241.74"/>
</g>
<!-- MaybeString -->
<g id="node3" class="node">
<title>MaybeString</title>
<ellipse fill="none" stroke="black" cx="2531.64" cy="-234" rx="71.49" ry="18"/>
<text text-anchor="middle" x="2531.64" y="-230.3" font-family="Times,serif" font-size="14.00">MaybeString</text>
</g>
<!-- TermAbbr&#45;&gt;MaybeString -->
<g id="edge2" class="edge">
<title>TermAbbr&#45;&gt;MaybeString</title>
<path fill="none" stroke="black" d="M2204.79,-296.62C2263.41,-286.52 2364.33,-268.81 2450.64,-252 2456.52,-250.86 2462.62,-249.64 2468.73,-248.39"/>
<polygon fill="black" stroke="black" points="2469.88,-251.73 2478.97,-246.29 2468.47,-244.87 2469.88,-251.73"/>
</g>
<!-- DomDefn -->
<g id="node4" class="node">
<title>DomDefn</title>
<ellipse fill="none" stroke="#00cdcd" cx="1629.64" cy="-234" rx="53.89" ry="18"/>
<text text-anchor="middle" x="1629.64" y="-230.3" font-family="Times,serif" font-size="14.00">DomDefn</text>
</g>
<!-- UID -->
<g id="node5" class="node">
<title>UID</title>
<ellipse fill="none" stroke="black" cx="1429.64" cy="-162" rx="29.5" ry="18"/>
<text text-anchor="middle" x="1429.64" y="-158.3" font-family="Times,serif" font-size="14.00">UID</text>
</g>
<!-- DomDefn&#45;&gt;UID -->
<g id="edge3" class="edge">
<title>DomDefn&#45;&gt;UID</title>
<path fill="none" stroke="black" d="M1590.91,-221.36C1558.07,-211.23 1509.88,-195.74 1468.64,-180 1466.43,-179.16 1464.16,-178.26 1461.88,-177.33"/>
<polygon fill="black" stroke="black" points="1463.17,-174.07 1452.59,-173.43 1460.46,-180.53 1463.17,-174.07"/>
</g>
<!-- Sentence -->
<g id="node6" class="node">
<title>Sentence</title>
<ellipse fill="none" stroke="black" cx="2065.64" cy="-162" rx="53.89" ry="18"/>
<text text-anchor="middle" x="2065.64" y="-158.3" font-family="Times,serif" font-size="14.00">Sentence</text>
</g>
<!-- DomDefn&#45;&gt;Sentence -->
<g id="edge4" class="edge">
<title>DomDefn&#45;&gt;Sentence</title>
<path fill="none" stroke="black" d="M1677.38,-225.6C1742.38,-215.49 1862.36,-196.7 1964.64,-180 1978.84,-177.68 1994.14,-175.13 2008.44,-172.73"/>
<polygon fill="black" stroke="black" points="2009.36,-176.12 2018.64,-171.01 2008.2,-169.22 2009.36,-176.12"/>
</g>
<!-- Derivation -->
<g id="node7" class="node">
<title>Derivation</title>
<ellipse fill="none" stroke="darkviolet" cx="2065.64" cy="-234" rx="59.59" ry="18"/>
<text text-anchor="middle" x="2065.64" y="-230.3" font-family="Times,serif" font-size="14.00">Derivation</text>
</g>
<!-- Derivation&#45;&gt;Sentence -->
<g id="edge5" class="edge">
<title>Derivation&#45;&gt;Sentence</title>
<path fill="none" stroke="black" d="M2065.64,-215.7C2065.64,-207.98 2065.64,-198.71 2065.64,-190.11"/>
<polygon fill="black" stroke="black" points="2069.14,-190.1 2065.64,-180.1 2062.14,-190.1 2069.14,-190.1"/>
</g>
<!-- ConstraintSete -->
<g id="node8" class="node">
<title>ConstraintSete</title>
<ellipse fill="none" stroke="#00cdcd" cx="108.64" cy="-162" rx="81.49" ry="18"/>
<text text-anchor="middle" x="108.64" y="-158.3" font-family="Times,serif" font-size="14.00">ConstraintSete</text>
</g>
<!-- ConceptChunk -->
<g id="node9" class="node">
<title>ConceptChunk</title>
<ellipse fill="none" stroke="black" cx="368.64" cy="-90" rx="78.79" ry="18"/>
<text text-anchor="middle" x="368.64" y="-86.3" font-family="Times,serif" font-size="14.00">ConceptChunk</text>
</g>
<!-- ConstraintSete&#45;&gt;ConceptChunk -->
<g id="edge6" class="edge">
<title>ConstraintSete&#45;&gt;ConceptChunk</title>
<path fill="none" stroke="black" d="M158.16,-147.67C201.4,-136.03 264.22,-119.11 309.97,-106.8"/>
<polygon fill="black" stroke="black" points="311.01,-110.14 319.75,-104.16 309.19,-103.38 311.01,-110.14"/>
</g>
<!-- NonEmptye -->
<g id="node10" class="node">
<title>NonEmptye</title>
<ellipse fill="none" stroke="black" cx="65.64" cy="-90" rx="65.79" ry="18"/>
<text text-anchor="middle" x="65.64" y="-86.3" font-family="Times,serif" font-size="14.00">NonEmptye</text>
</g>
<!-- ConstraintSete&#45;&gt;NonEmptye -->
<g id="edge7" class="edge">
<title>ConstraintSete&#45;&gt;NonEmptye</title>
<path fill="none" stroke="black" d="M98.24,-144.05C93.16,-135.8 86.96,-125.7 81.33,-116.54"/>
<polygon fill="black" stroke="black" points="84.17,-114.48 75.96,-107.79 78.21,-118.14 84.17,-114.48"/>
</g>
<!-- DDPkt -->
<g id="node11" class="node">
<title>DDPkt</title>
<ellipse fill="none" stroke="#00cdcd" cx="2661.64" cy="-234" rx="40.89" ry="18"/>
<text text-anchor="middle" x="2661.64" y="-230.3" font-family="Times,serif" font-size="14.00">DDPkt</text>
</g>
<!-- DDPkt&#45;&gt;UID -->
<g id="edge8" class="edge">
<title>DDPkt&#45;&gt;UID</title>
<path fill="none" stroke="black" d="M2632.15,-221.36C2625.5,-219.2 2618.41,-217.23 2611.64,-216 2361.61,-170.6 1716.57,-235.77 1468.64,-180 1466.12,-179.43 1463.56,-178.7 1461.02,-177.87"/>
<polygon fill="black" stroke="black" points="1462.02,-174.5 1451.42,-174.22 1459.53,-181.04 1462.02,-174.5"/>
</g>
<!-- DDPkt&#45;&gt;Sentence -->
<g id="edge13" class="edge">
<title>DDPkt&#45;&gt;Sentence</title>
<path fill="none" stroke="black" d="M2631.84,-221.49C2625.27,-219.35 2618.29,-217.36 2611.64,-216 2400.72,-173.01 2340.84,-216.2 2128.64,-180 2123.94,-179.2 2119.07,-178.2 2114.23,-177.09"/>
<polygon fill="black" stroke="black" points="2114.92,-173.65 2104.37,-174.68 2113.26,-180.45 2114.92,-173.65"/>
</g>
<!-- DecRef -->
<g id="node12" class="node">
<title>DecRef</title>
<ellipse fill="none" stroke="black" cx="2854.64" cy="-162" rx="44.39" ry="18"/>
<text text-anchor="middle" x="2854.64" y="-158.3" font-family="Times,serif" font-size="14.00">DecRef</text>
</g>
<!-- DDPkt&#45;&gt;DecRef -->
<g id="edge9" class="edge">
<title>DDPkt&#45;&gt;DecRef</title>
<path fill="none" stroke="black" d="M2692.23,-221.91C2724.77,-210.1 2776.48,-191.35 2812.79,-178.18"/>
<polygon fill="black" stroke="black" points="2814.39,-181.32 2822.6,-174.62 2812,-174.74 2814.39,-181.32"/>
</g>
<!-- MaybeDerivation -->
<g id="node13" class="node">
<title>MaybeDerivation</title>
<ellipse fill="none" stroke="black" cx="3007.64" cy="-162" rx="90.98" ry="18"/>
<text text-anchor="middle" x="3007.64" y="-158.3" font-family="Times,serif" font-size="14.00">MaybeDerivation</text>
</g>
<!-- DDPkt&#45;&gt;MaybeDerivation -->
<g id="edge10" class="edge">
<title>DDPkt&#45;&gt;MaybeDerivation</title>
<path fill="none" stroke="black" d="M2692.1,-221.83C2698.5,-219.72 2705.25,-217.65 2711.64,-216 2732.58,-210.6 2850.38,-189.99 2930.9,-176.12"/>
<polygon fill="black" stroke="black" points="2931.76,-179.53 2941.02,-174.38 2930.57,-172.63 2931.76,-179.53"/>
</g>
<!-- ShortName -->
<g id="node14" class="node">
<title>ShortName</title>
<ellipse fill="none" stroke="black" cx="2630.64" cy="-162" rx="63.89" ry="18"/>
<text text-anchor="middle" x="2630.64" y="-158.3" font-family="Times,serif" font-size="14.00">ShortName</text>
</g>
<!-- DDPkt&#45;&gt;ShortName -->
<g id="edge11" class="edge">
<title>DDPkt&#45;&gt;ShortName</title>
<path fill="none" stroke="black" d="M2654.14,-216.05C2650.61,-208.09 2646.33,-198.41 2642.38,-189.51"/>
<polygon fill="black" stroke="black" points="2645.54,-188 2638.29,-180.28 2639.14,-190.84 2645.54,-188"/>
</g>
<!-- String -->
<g id="node15" class="node">
<title>String</title>
<ellipse fill="none" stroke="black" cx="2752.64" cy="-162" rx="40.09" ry="18"/>
<text text-anchor="middle" x="2752.64" y="-158.3" font-family="Times,serif" font-size="14.00">String</text>
</g>
<!-- DDPkt&#45;&gt;String -->
<g id="edge12" class="edge">
<title>DDPkt&#45;&gt;String</title>
<path fill="none" stroke="black" d="M2681.39,-217.81C2694.24,-207.93 2711.17,-194.9 2725.3,-184.03"/>
<polygon fill="black" stroke="black" points="2727.46,-186.79 2733.25,-177.92 2723.19,-181.24 2727.46,-186.79"/>
</g>
<!-- DataDefinition -->
<g id="node16" class="node">
<title>DataDefinition</title>
<ellipse fill="none" stroke="darkviolet" cx="2933.64" cy="-306" rx="77.99" ry="18"/>
<text text-anchor="middle" x="2933.64" y="-302.3" font-family="Times,serif" font-size="14.00">DataDefinition</text>
</g>
<!-- DataDefinition&#45;&gt;DDPkt -->
<g id="edge15" class="edge">
<title>DataDefinition&#45;&gt;DDPkt</title>
<path fill="none" stroke="black" d="M2878.07,-293.24C2832.94,-283.34 2767.8,-268.21 2711.64,-252 2708.52,-251.1 2705.3,-250.12 2702.07,-249.1"/>
<polygon fill="black" stroke="black" points="2703.03,-245.73 2692.44,-245.97 2700.87,-252.39 2703.03,-245.73"/>
</g>
<!-- DataDefinition&#45;&gt;DataDefinition -->
<g id="edge16" class="edge">
<title>DataDefinition&#45;&gt;DataDefinition</title>
<path fill="none" stroke="black" d="M2986.46,-319.31C3009.67,-320.49 3029.64,-316.05 3029.64,-306 3029.64,-297.44 3015.16,-292.95 2996.53,-292.53"/>
<polygon fill="black" stroke="black" points="2996.41,-289.03 2986.46,-292.69 2996.52,-296.03 2996.41,-289.03"/>
</g>
<!-- SimpleQDef -->
<g id="node17" class="node">
<title>SimpleQDef</title>
<ellipse fill="none" stroke="black" cx="2786.64" cy="-234" rx="66.09" ry="18"/>
<text text-anchor="middle" x="2786.64" y="-230.3" font-family="Times,serif" font-size="14.00">SimpleQDef</text>
</g>
<!-- DataDefinition&#45;&gt;SimpleQDef -->
<g id="edge14" class="edge">
<title>DataDefinition&#45;&gt;SimpleQDef</title>
<path fill="none" stroke="black" d="M2901.02,-289.46C2879.24,-279.09 2850.43,-265.38 2827.18,-254.3"/>
<polygon fill="black" stroke="black" points="2828.45,-251.03 2817.92,-249.89 2825.44,-257.35 2828.45,-251.03"/>
</g>
<!-- ModelQDef -->
<g id="node18" class="node">
<title>ModelQDef</title>
<ellipse fill="none" stroke="black" cx="2933.64" cy="-234" rx="63.09" ry="18"/>
<text text-anchor="middle" x="2933.64" y="-230.3" font-family="Times,serif" font-size="14.00">ModelQDef</text>
</g>
<!-- DataDefinition&#45;&gt;ModelQDef -->
<g id="edge17" class="edge">
<title>DataDefinition&#45;&gt;ModelQDef</title>
<path fill="none" stroke="black" d="M2933.64,-287.7C2933.64,-279.98 2933.64,-270.71 2933.64,-262.11"/>
<polygon fill="black" stroke="black" points="2937.14,-262.1 2933.64,-252.1 2930.14,-262.1 2937.14,-262.1"/>
</g>
<!-- Lens_ -->
<g id="node19" class="node">
<title>Lens_</title>
<ellipse fill="none" stroke="black" cx="3051.64" cy="-234" rx="37.09" ry="18"/>
<text text-anchor="middle" x="3051.64" y="-230.3" font-family="Times,serif" font-size="14.00">Lens_</text>
</g>
<!-- DataDefinition&#45;&gt;Lens_ -->
<g id="edge18" class="edge">
<title>DataDefinition&#45;&gt;Lens_</title>
<path fill="none" stroke="black" d="M2960.72,-288.94C2978.49,-278.4 3001.8,-264.57 3020.37,-253.55"/>
<polygon fill="black" stroke="black" points="3022.24,-256.51 3029.06,-248.4 3018.67,-250.49 3022.24,-256.51"/>
</g>
<!-- a -->
<g id="node20" class="node">
<title>a</title>
<ellipse fill="none" stroke="black" cx="3133.64" cy="-234" rx="27" ry="18"/>
<text text-anchor="middle" x="3133.64" y="-230.3" font-family="Times,serif" font-size="14.00">a</text>
</g>
<!-- DataDefinition&#45;&gt;a -->
<g id="edge19" class="edge">
<title>DataDefinition&#45;&gt;a</title>
<path fill="none" stroke="black" d="M2980.51,-291.61C3013.62,-281.72 3058.83,-267.36 3097.64,-252 3099.48,-251.28 3101.35,-250.5 3103.22,-249.7"/>
<polygon fill="black" stroke="black" points="3104.83,-252.81 3112.52,-245.53 3101.97,-246.43 3104.83,-252.81"/>
</g>
<!-- Term -->
<g id="node21" class="node">
<title>Term</title>
<ellipse fill="none" stroke="#00cdcd" cx="1276.64" cy="-162" rx="34.39" ry="18"/>
<text text-anchor="middle" x="1276.64" y="-158.3" font-family="Times,serif" font-size="14.00">Term</text>
</g>
<!-- Expr -->
<g id="node22" class="node">
<title>Expr</title>
<ellipse fill="none" stroke="black" cx="1617.64" cy="-90" rx="33.29" ry="18"/>
<text text-anchor="middle" x="1617.64" y="-86.3" font-family="Times,serif" font-size="14.00">Expr</text>
</g>
<!-- Term&#45;&gt;Expr -->
<g id="edge20" class="edge">
<title>Term&#45;&gt;Expr</title>
<path fill="none" stroke="black" d="M1302.28,-149.9C1307.93,-147.72 1313.93,-145.62 1319.64,-144 1409.07,-118.65 1517.18,-103.03 1575.47,-95.79"/>
<polygon fill="black" stroke="black" points="1575.91,-99.27 1585.41,-94.58 1575.06,-92.32 1575.91,-99.27"/>
</g>
<!-- Unknown -->
<g id="node23" class="node">
<title>Unknown</title>
<ellipse fill="none" stroke="#ee0000" cx="1276.64" cy="-90" rx="54.69" ry="18"/>
<text text-anchor="middle" x="1276.64" y="-86.3" font-family="Times,serif" font-size="14.00">Unknown</text>
</g>
<!-- Term&#45;&gt;Unknown -->
<g id="edge21" class="edge">
<title>Term&#45;&gt;Unknown</title>
<path fill="none" stroke="black" d="M1276.64,-143.7C1276.64,-135.98 1276.64,-126.71 1276.64,-118.11"/>
<polygon fill="black" stroke="black" points="1280.14,-118.1 1276.64,-108.1 1273.14,-118.1 1280.14,-118.1"/>
</g>
<!-- Integer -->
<g id="node29" class="node">
<title>Integer</title>
<ellipse fill="none" stroke="black" cx="2315.64" cy="-18" rx="44.69" ry="18"/>
<text text-anchor="middle" x="2315.64" y="-14.3" font-family="Times,serif" font-size="14.00">Integer</text>
</g>
<!-- Unknown&#45;&gt;Integer -->
<g id="edge30" class="edge">
<title>Unknown&#45;&gt;Integer</title>
<path fill="none" stroke="black" d="M1329.6,-85.43C1507.48,-73.45 2082.45,-34.71 2261.74,-22.63"/>
<polygon fill="black" stroke="black" points="2261.99,-26.12 2271.73,-21.96 2261.52,-19.14 2261.99,-26.12"/>
</g>
<!-- DifferentialModel -->
<g id="node24" class="node">
<title>DifferentialModel</title>
<ellipse fill="none" stroke="#00cdcd" cx="534.64" cy="-162" rx="92.08" ry="18"/>
<text text-anchor="middle" x="534.64" y="-158.3" font-family="Times,serif" font-size="14.00">DifferentialModel</text>
</g>
<!-- DifferentialModel&#45;&gt;ConceptChunk -->
<g id="edge26" class="edge">
<title>DifferentialModel&#45;&gt;ConceptChunk</title>
<path fill="none" stroke="black" d="M497.8,-145.46C473.05,-135.03 440.26,-121.2 413.91,-110.09"/>
<polygon fill="black" stroke="black" points="415.1,-106.79 404.53,-106.13 412.38,-113.24 415.1,-106.79"/>
</g>
<!-- DifferentialModel&#45;&gt;Expr -->
<g id="edge24" class="edge">
<title>DifferentialModel&#45;&gt;Expr</title>
<path fill="none" stroke="black" d="M599.24,-149.09C611.62,-147.13 624.51,-145.32 636.64,-144 948.11,-110.19 1027.84,-125.6 1340.64,-108 1423.4,-103.34 1520.02,-97.27 1574.5,-93.78"/>
<polygon fill="black" stroke="black" points="1575.06,-97.26 1584.82,-93.12 1574.61,-90.27 1575.06,-97.26"/>
</g>
<!-- DifferentialModel&#45;&gt;Unknown -->
<g id="edge25" class="edge">
<title>DifferentialModel&#45;&gt;Unknown</title>
<path fill="none" stroke="black" d="M600.1,-149.27C612.22,-147.33 624.8,-145.48 636.64,-144 846.87,-117.82 1097.61,-101.31 1212.91,-94.53"/>
<polygon fill="black" stroke="black" points="1213.19,-98.02 1222.97,-93.94 1212.78,-91.03 1213.19,-98.02"/>
</g>
<!-- UnitalChunk -->
<g id="node25" class="node">
<title>UnitalChunk</title>
<ellipse fill="none" stroke="black" cx="534.64" cy="-90" rx="69.59" ry="18"/>
<text text-anchor="middle" x="534.64" y="-86.3" font-family="Times,serif" font-size="14.00">UnitalChunk</text>
</g>
<!-- DifferentialModel&#45;&gt;UnitalChunk -->
<g id="edge22" class="edge">
<title>DifferentialModel&#45;&gt;UnitalChunk</title>
<path fill="none" stroke="black" d="M534.64,-143.7C534.64,-135.98 534.64,-126.71 534.64,-118.11"/>
<polygon fill="black" stroke="black" points="538.14,-118.1 534.64,-108.1 531.14,-118.1 538.14,-118.1"/>
</g>
<!-- ConstrConcept -->
<g id="node26" class="node">
<title>ConstrConcept</title>
<ellipse fill="none" stroke="black" cx="701.64" cy="-90" rx="79.89" ry="18"/>
<text text-anchor="middle" x="701.64" y="-86.3" font-family="Times,serif" font-size="14.00">ConstrConcept</text>
</g>
<!-- DifferentialModel&#45;&gt;ConstrConcept -->
<g id="edge23" class="edge">
<title>DifferentialModel&#45;&gt;ConstrConcept</title>
<path fill="none" stroke="black" d="M571.71,-145.46C596.61,-135.03 629.6,-121.2 656.1,-110.09"/>
<polygon fill="black" stroke="black" points="657.68,-113.22 665.55,-106.13 654.97,-106.77 657.68,-113.22"/>
</g>
<!-- InitialValueProblem -->
<g id="node27" class="node">
<title>InitialValueProblem</title>
<ellipse fill="none" stroke="#00cdcd" cx="1852.64" cy="-162" rx="102.88" ry="18"/>
<text text-anchor="middle" x="1852.64" y="-158.3" font-family="Times,serif" font-size="14.00">InitialValueProblem</text>
</g>
<!-- InitialValueProblem&#45;&gt;Expr -->
<g id="edge27" class="edge">
<title>InitialValueProblem&#45;&gt;Expr</title>
<path fill="none" stroke="black" d="M1802.81,-146.15C1758.84,-133.06 1695.69,-114.25 1655.68,-102.33"/>
<polygon fill="black" stroke="black" points="1656.62,-98.96 1646.03,-99.46 1654.62,-105.67 1656.62,-98.96"/>
</g>
<!-- ODESolverFormat -->
<g id="node28" class="node">
<title>ODESolverFormat</title>
<ellipse fill="none" stroke="#00cdcd" cx="3396.64" cy="-162" rx="95.58" ry="18"/>
<text text-anchor="middle" x="3396.64" y="-158.3" font-family="Times,serif" font-size="14.00">ODESolverFormat</text>
</g>
<!-- ODESolverFormat&#45;&gt;Expr -->
<g id="edge28" class="edge">
<title>ODESolverFormat&#45;&gt;Expr</title>
<path fill="none" stroke="black" d="M3330.44,-148.95C3317.61,-146.99 3304.24,-145.21 3291.64,-144 2961.51,-112.18 1890.42,-94.98 1661.11,-91.62"/>
<polygon fill="black" stroke="black" points="1660.88,-88.11 1650.83,-91.47 1660.78,-95.11 1660.88,-88.11"/>
</g>
<!-- ODESolverFormat&#45;&gt;Integer -->
<g id="edge29" class="edge">
<title>ODESolverFormat&#45;&gt;Integer</title>
<path fill="none" stroke="black" d="M3327.79,-149.52C3315.75,-147.61 3303.34,-145.7 3291.64,-144 2939.57,-92.97 2514.43,-42.24 2368.09,-25.1"/>
<polygon fill="black" stroke="black" points="2368.38,-21.61 2358.04,-23.92 2367.57,-28.56 2368.38,-21.61"/>
</g>
<!-- LHS -->
<g id="node30" class="node">
<title>LHS</title>
<ellipse fill="none" stroke="#ee0000" cx="1276.64" cy="-234" rx="30.59" ry="18"/>
<text text-anchor="middle" x="1276.64" y="-230.3" font-family="Times,serif" font-size="14.00">LHS</text>
</g>
<!-- LHS&#45;&gt;Term -->
<g id="edge31" class="edge">
<title>LHS&#45;&gt;Term</title>
<path fill="none" stroke="black" d="M1276.64,-215.7C1276.64,-207.98 1276.64,-198.71 1276.64,-190.11"/>
<polygon fill="black" stroke="black" points="1280.14,-190.1 1276.64,-180.1 1273.14,-190.1 1280.14,-190.1"/>
</g>
<!-- GenDefn -->
<g id="node31" class="node">
<title>GenDefn</title>
<ellipse fill="none" stroke="#00cdcd" cx="2390.64" cy="-234" rx="51.19" ry="18"/>
<text text-anchor="middle" x="2390.64" y="-230.3" font-family="Times,serif" font-size="14.00">GenDefn</text>
</g>
<!-- GenDefn&#45;&gt;Sentence -->
<g id="edge38" class="edge">
<title>GenDefn&#45;&gt;Sentence</title>
<path fill="none" stroke="black" d="M2352.71,-221.83C2345.11,-219.76 2337.15,-217.71 2329.64,-216 2241.17,-195.8 2217.2,-199.84 2128.64,-180 2124.3,-179.03 2119.8,-177.95 2115.3,-176.83"/>
<polygon fill="black" stroke="black" points="2116.06,-173.41 2105.51,-174.31 2114.32,-180.19 2116.06,-173.41"/>
</g>
<!-- GenDefn&#45;&gt;DecRef -->
<g id="edge35" class="edge">
<title>GenDefn&#45;&gt;DecRef</title>
<path fill="none" stroke="black" d="M2427.83,-221.56C2435.64,-219.46 2443.87,-217.47 2451.64,-216 2605.29,-186.91 2648.59,-212.05 2801.64,-180 2805.26,-179.24 2808.98,-178.33 2812.69,-177.33"/>
<polygon fill="black" stroke="black" points="2813.79,-180.66 2822.42,-174.51 2811.84,-173.93 2813.79,-180.66"/>
</g>
<!-- GenDefn&#45;&gt;MaybeDerivation -->
<g id="edge34" class="edge">
<title>GenDefn&#45;&gt;MaybeDerivation</title>
<path fill="none" stroke="black" d="M2427.8,-221.42C2435.61,-219.33 2443.85,-217.38 2451.64,-216 2651.83,-180.55 2705.9,-205.06 2907.64,-180 2916,-178.96 2924.72,-177.72 2933.38,-176.38"/>
<polygon fill="black" stroke="black" points="2934.16,-179.8 2943.49,-174.78 2933.06,-172.89 2934.16,-179.8"/>
</g>
<!-- GenDefn&#45;&gt;ShortName -->
<g id="edge36" class="edge">
<title>GenDefn&#45;&gt;ShortName</title>
<path fill="none" stroke="black" d="M2428.94,-221.83C2469.29,-210.06 2533.13,-191.44 2578.16,-178.31"/>
<polygon fill="black" stroke="black" points="2579.42,-181.59 2588.04,-175.43 2577.46,-174.87 2579.42,-181.59"/>
</g>
<!-- GenDefn&#45;&gt;String -->
<g id="edge37" class="edge">
<title>GenDefn&#45;&gt;String</title>
<path fill="none" stroke="black" d="M2428.2,-221.71C2435.91,-219.62 2444,-217.6 2451.64,-216 2562.37,-192.76 2593.69,-206.66 2703.64,-180 2706.84,-179.23 2710.12,-178.33 2713.39,-177.35"/>
<polygon fill="black" stroke="black" points="2714.65,-180.63 2723.12,-174.27 2712.53,-173.96 2714.65,-180.63"/>
</g>
<!-- ModelKindModelExpr -->
<g id="node32" class="node">
<title>ModelKindModelExpr</title>
<ellipse fill="none" stroke="black" cx="2249.64" cy="-162" rx="112.38" ry="18"/>
<text text-anchor="middle" x="2249.64" y="-158.3" font-family="Times,serif" font-size="14.00">ModelKindModelExpr</text>
</g>
<!-- GenDefn&#45;&gt;ModelKindModelExpr -->
<g id="edge32" class="edge">
<title>GenDefn&#45;&gt;ModelKindModelExpr</title>
<path fill="none" stroke="black" d="M2362.11,-218.83C2341.81,-208.76 2314.22,-195.06 2291.44,-183.75"/>
<polygon fill="black" stroke="black" points="2292.85,-180.54 2282.33,-179.23 2289.73,-186.81 2292.85,-180.54"/>
</g>
<!-- MaybeUnitDefn -->
<g id="node33" class="node">
<title>MaybeUnitDefn</title>
<ellipse fill="none" stroke="black" cx="2464.64" cy="-162" rx="84.49" ry="18"/>
<text text-anchor="middle" x="2464.64" y="-158.3" font-family="Times,serif" font-size="14.00">MaybeUnitDefn</text>
</g>
<!-- GenDefn&#45;&gt;MaybeUnitDefn -->
<g id="edge33" class="edge">
<title>GenDefn&#45;&gt;MaybeUnitDefn</title>
<path fill="none" stroke="black" d="M2407.81,-216.76C2417.29,-207.79 2429.24,-196.49 2439.73,-186.56"/>
<polygon fill="black" stroke="black" points="2442.2,-189.05 2447.06,-179.63 2437.39,-183.96 2442.2,-189.05"/>
</g>
<!-- InstanceModel -->
<g id="node34" class="node">
<title>InstanceModel</title>
<ellipse fill="none" stroke="#00cdcd" cx="3257.64" cy="-234" rx="79.09" ry="18"/>
<text text-anchor="middle" x="3257.64" y="-230.3" font-family="Times,serif" font-size="14.00">InstanceModel</text>
</g>
<!-- InstanceModel&#45;&gt;Sentence -->
<g id="edge46" class="edge">
<title>InstanceModel&#45;&gt;Sentence</title>
<path fill="none" stroke="black" d="M3202.45,-220.97C3191.62,-219 3180.31,-217.21 3169.64,-216 2709.64,-163.94 2586.45,-248.75 2128.64,-180 2123.85,-179.28 2118.91,-178.33 2113.99,-177.24"/>
<polygon fill="black" stroke="black" points="2114.54,-173.77 2104,-174.84 2112.91,-180.58 2114.54,-173.77"/>
</g>
<!-- InstanceModel&#45;&gt;DecRef -->
<g id="edge42" class="edge">
<title>InstanceModel&#45;&gt;DecRef</title>
<path fill="none" stroke="black" d="M3200.45,-221.48C3190.21,-219.56 3179.62,-217.65 3169.64,-216 3053.68,-196.85 3022.26,-206.05 2907.64,-180 2904.04,-179.18 2900.33,-178.23 2896.63,-177.2"/>
<polygon fill="black" stroke="black" points="2897.49,-173.8 2886.91,-174.33 2895.51,-180.52 2897.49,-173.8"/>
</g>
<!-- InstanceModel&#45;&gt;MaybeDerivation -->
<g id="edge43" class="edge">
<title>InstanceModel&#45;&gt;MaybeDerivation</title>
<path fill="none" stroke="black" d="M3209.74,-219.59C3169.36,-208.28 3111.36,-192.04 3067.85,-179.86"/>
<polygon fill="black" stroke="black" points="3068.53,-176.41 3057.96,-177.09 3066.65,-183.16 3068.53,-176.41"/>
</g>
<!-- InstanceModel&#45;&gt;ShortName -->
<g id="edge44" class="edge">
<title>InstanceModel&#45;&gt;ShortName</title>
<path fill="none" stroke="black" d="M3201.47,-221.16C3190.93,-219.22 3179.98,-217.39 3169.64,-216 2963.78,-188.25 2908.95,-211.65 2703.64,-180 2697.88,-179.11 2691.89,-178.01 2685.94,-176.8"/>
<polygon fill="black" stroke="black" points="2686.51,-173.35 2676,-174.68 2685.05,-180.19 2686.51,-173.35"/>
</g>
<!-- InstanceModel&#45;&gt;String -->
<g id="edge45" class="edge">
<title>InstanceModel&#45;&gt;String</title>
<path fill="none" stroke="black" d="M3200.97,-221.25C3190.58,-219.32 3179.81,-217.48 3169.64,-216 3007.01,-192.39 2962.17,-215.18 2801.64,-180 2798.43,-179.3 2795.14,-178.45 2791.86,-177.51"/>
<polygon fill="black" stroke="black" points="2792.71,-174.11 2782.12,-174.48 2790.63,-180.79 2792.71,-174.11"/>
</g>
<!-- ModelKindExpr -->
<g id="node35" class="node">
<title>ModelKindExpr</title>
<ellipse fill="none" stroke="black" cx="3199.64" cy="-162" rx="83.39" ry="18"/>
<text text-anchor="middle" x="3199.64" y="-158.3" font-family="Times,serif" font-size="14.00">ModelKindExpr</text>
</g>
<!-- InstanceModel&#45;&gt;ModelKindExpr -->
<g id="edge39" class="edge">
<title>InstanceModel&#45;&gt;ModelKindExpr</title>
<path fill="none" stroke="black" d="M3243.6,-216.05C3236.55,-207.54 3227.87,-197.07 3220.09,-187.68"/>
<polygon fill="black" stroke="black" points="3222.63,-185.26 3213.56,-179.79 3217.24,-189.72 3222.63,-185.26"/>
</g>
<!-- Inputs -->
<g id="node36" class="node">
<title>Inputs</title>
<ellipse fill="none" stroke="#ee0000" cx="3655.64" cy="-162" rx="40.09" ry="18"/>
<text text-anchor="middle" x="3655.64" y="-158.3" font-family="Times,serif" font-size="14.00">Inputs</text>
</g>
<!-- InstanceModel&#45;&gt;Inputs -->
<g id="edge40" class="edge">
<title>InstanceModel&#45;&gt;Inputs</title>
<path fill="none" stroke="black" d="M3315.5,-221.51C3325.85,-219.57 3336.55,-217.66 3346.64,-216 3461.75,-197.05 3493.21,-207.25 3606.64,-180 3609.84,-179.23 3613.12,-178.34 3616.4,-177.37"/>
<polygon fill="black" stroke="black" points="3617.65,-180.64 3626.12,-174.29 3615.53,-173.97 3617.65,-180.64"/>
</g>
<!-- Output -->
<g id="node37" class="node">
<title>Output</title>
<ellipse fill="none" stroke="#ee0000" cx="3553.64" cy="-162" rx="43.59" ry="18"/>
<text text-anchor="middle" x="3553.64" y="-158.3" font-family="Times,serif" font-size="14.00">Output</text>
</g>
<!-- InstanceModel&#45;&gt;Output -->
<g id="edge41" class="edge">
<title>InstanceModel&#45;&gt;Output</title>
<path fill="none" stroke="black" d="M3316.72,-221.92C3366.39,-212.19 3439.1,-196.97 3501.64,-180 3504.95,-179.1 3508.36,-178.12 3511.78,-177.09"/>
<polygon fill="black" stroke="black" points="3512.83,-180.43 3521.34,-174.12 3510.76,-173.75 3512.83,-180.43"/>
</g>
<!-- Input -->
<g id="node38" class="node">
<title>Input</title>
<ellipse fill="none" stroke="#ee0000" cx="3655.64" cy="-90" rx="36" ry="18"/>
<text text-anchor="middle" x="3655.64" y="-86.3" font-family="Times,serif" font-size="14.00">Input</text>
</g>
<!-- Inputs&#45;&gt;Input -->
<g id="edge48" class="edge">
<title>Inputs&#45;&gt;Input</title>
<path fill="none" stroke="black" d="M3655.64,-143.7C3655.64,-135.98 3655.64,-126.71 3655.64,-118.11"/>
<polygon fill="black" stroke="black" points="3659.14,-118.1 3655.64,-108.1 3652.14,-118.1 3659.14,-118.1"/>
</g>
<!-- DefinedQuantityDict -->
<g id="node40" class="node">
<title>DefinedQuantityDict</title>
<ellipse fill="none" stroke="black" cx="3234.64" cy="-90" rx="105.88" ry="18"/>
<text text-anchor="middle" x="3234.64" y="-86.3" font-family="Times,serif" font-size="14.00">DefinedQuantityDict</text>
</g>
<!-- Output&#45;&gt;DefinedQuantityDict -->
<g id="edge49" class="edge">
<title>Output&#45;&gt;DefinedQuantityDict</title>
<path fill="none" stroke="black" d="M3521.37,-149.78C3514.88,-147.72 3508.08,-145.68 3501.64,-144 3440.65,-128.04 3370.72,-114.32 3317.73,-104.84"/>
<polygon fill="black" stroke="black" points="3318.16,-101.36 3307.71,-103.06 3316.94,-108.26 3318.16,-101.36"/>
</g>
<!-- DefinedQuantityDictMaybeRealIntervalExprExpr -->
<g id="node39" class="node">
<title>DefinedQuantityDictMaybeRealIntervalExprExpr</title>
<ellipse fill="none" stroke="black" cx="3655.64" cy="-18" rx="239.36" ry="18"/>
<text text-anchor="middle" x="3655.64" y="-14.3" font-family="Times,serif" font-size="14.00">DefinedQuantityDictMaybeRealIntervalExprExpr</text>
</g>
<!-- Input&#45;&gt;DefinedQuantityDictMaybeRealIntervalExprExpr -->
<g id="edge47" class="edge">
<title>Input&#45;&gt;DefinedQuantityDictMaybeRealIntervalExprExpr</title>
<path fill="none" stroke="black" d="M3655.64,-71.7C3655.64,-63.98 3655.64,-54.71 3655.64,-46.11"/>
<polygon fill="black" stroke="black" points="3659.14,-46.1 3655.64,-36.1 3652.14,-46.1 3659.14,-46.1"/>
</g>
<!-- OutputConstraints -->
<g id="node41" class="node">
<title>OutputConstraints</title>
<ellipse fill="none" stroke="#ee0000" cx="3467.64" cy="-306" rx="97.48" ry="18"/>
<text text-anchor="middle" x="3467.64" y="-302.3" font-family="Times,serif" font-size="14.00">OutputConstraints</text>
</g>
<!-- RealIntervalExprExpr -->
<g id="node42" class="node">
<title>RealIntervalExprExpr</title>
<ellipse fill="none" stroke="black" cx="3467.64" cy="-234" rx="112.38" ry="18"/>
<text text-anchor="middle" x="3467.64" y="-230.3" font-family="Times,serif" font-size="14.00">RealIntervalExprExpr</text>
</g>
<!-- OutputConstraints&#45;&gt;RealIntervalExprExpr -->
<g id="edge50" class="edge">
<title>OutputConstraints&#45;&gt;RealIntervalExprExpr</title>
<path fill="none" stroke="black" d="M3467.64,-287.7C3467.64,-279.98 3467.64,-270.71 3467.64,-262.11"/>
<polygon fill="black" stroke="black" points="3471.14,-262.1 3467.64,-252.1 3464.14,-262.1 3471.14,-262.1"/>
</g>
<!-- ModelKinde -->
<g id="node43" class="node">
<title>ModelKinde</title>
<ellipse fill="none" stroke="#00cdcd" cx="1521.64" cy="-306" rx="66.09" ry="18"/>
<text text-anchor="middle" x="1521.64" y="-302.3" font-family="Times,serif" font-size="14.00">ModelKinde</text>
</g>
<!-- ModelKinde&#45;&gt;NP -->
<g id="edge53" class="edge">
<title>ModelKinde&#45;&gt;NP</title>
<path fill="none" stroke="black" d="M1566.7,-292.73C1617.29,-278.95 1698.28,-256.89 1744.11,-244.41"/>
<polygon fill="black" stroke="black" points="1745.14,-247.75 1753.87,-241.75 1743.31,-241 1745.14,-247.75"/>
</g>
<!-- ModelKinde&#45;&gt;UID -->
<g id="edge52" class="edge">
<title>ModelKinde&#45;&gt;UID</title>
<path fill="none" stroke="black" d="M1521.55,-287.89C1520.69,-268.88 1516.94,-237.99 1502.64,-216 1492.46,-200.34 1475.93,-187.77 1461.17,-178.81"/>
<polygon fill="black" stroke="black" points="1462.69,-175.65 1452.28,-173.7 1459.2,-181.72 1462.69,-175.65"/>
</g>
<!-- ModelKindse -->
<g id="node44" class="node">
<title>ModelKindse</title>
<ellipse fill="none" stroke="darkviolet" cx="947.64" cy="-234" rx="71.49" ry="18"/>
<text text-anchor="middle" x="947.64" y="-230.3" font-family="Times,serif" font-size="14.00">ModelKindse</text>
</g>
<!-- ModelKinde&#45;&gt;ModelKindse -->
<g id="edge51" class="edge">
<title>ModelKinde&#45;&gt;ModelKindse</title>
<path fill="none" stroke="black" d="M1462.38,-297.77C1356.58,-284.87 1135.56,-257.92 1020.61,-243.9"/>
<polygon fill="black" stroke="black" points="1020.85,-240.4 1010.5,-242.67 1020,-247.35 1020.85,-240.4"/>
</g>
<!-- ModelKindse&#45;&gt;DifferentialModel -->
<g id="edge54" class="edge">
<title>ModelKindse&#45;&gt;DifferentialModel</title>
<path fill="none" stroke="black" d="M890.22,-223.27C817.74,-210.98 692.79,-189.8 611.97,-176.11"/>
<polygon fill="black" stroke="black" points="612.29,-172.61 601.85,-174.39 611.12,-179.51 612.29,-172.61"/>
</g>
<!-- ModelKinds -->
<g id="node45" class="node">
<title>ModelKinds</title>
<ellipse fill="none" stroke="black" cx="1158.64" cy="-162" rx="65.79" ry="18"/>
<text text-anchor="middle" x="1158.64" y="-158.3" font-family="Times,serif" font-size="14.00">ModelKinds</text>
</g>
<!-- ModelKindse&#45;&gt;ModelKinds -->
<g id="edge55" class="edge">
<title>ModelKindse&#45;&gt;ModelKinds</title>
<path fill="none" stroke="black" d="M989.08,-219.25C1023.31,-207.9 1072.01,-191.74 1108.45,-179.65"/>
<polygon fill="black" stroke="black" points="1109.99,-182.83 1118.38,-176.36 1107.78,-176.19 1109.99,-182.83"/>
</g>
<!-- e -->
<g id="node46" class="node">
<title>e</title>
<ellipse fill="none" stroke="black" cx="1355.64" cy="-162" rx="27" ry="18"/>
<text text-anchor="middle" x="1355.64" y="-158.3" font-family="Times,serif" font-size="14.00">e</text>
</g>
<!-- ModelKindse&#45;&gt;e -->
<g id="edge56" class="edge">
<title>ModelKindse&#45;&gt;e</title>
<path fill="none" stroke="black" d="M1016.85,-229.34C1092.56,-223.92 1216.85,-210.83 1319.64,-180 1321.58,-179.42 1323.54,-178.75 1325.5,-178.02"/>
<polygon fill="black" stroke="black" points="1327.26,-181.08 1335.12,-173.98 1324.55,-174.62 1327.26,-181.08"/>
</g>
<!-- RelationConcept -->
<g id="node47" class="node">
<title>RelationConcept</title>
<ellipse fill="none" stroke="#00cdcd" cx="337.64" cy="-162" rx="87.18" ry="18"/>
<text text-anchor="middle" x="337.64" y="-158.3" font-family="Times,serif" font-size="14.00">RelationConcept</text>
</g>
<!-- ModelKindse&#45;&gt;RelationConcept -->
<g id="edge57" class="edge">
<title>ModelKindse&#45;&gt;RelationConcept</title>
<path fill="none" stroke="black" d="M880.51,-227.64C782.18,-219.44 593.34,-202.34 433.64,-180 425.92,-178.92 417.87,-177.68 409.86,-176.37"/>
<polygon fill="black" stroke="black" points="410.21,-172.88 399.77,-174.68 409.05,-179.78 410.21,-172.88"/>
</g>
<!-- ConstraintSet -->
<g id="node48" class="node">
<title>ConstraintSet</title>
<ellipse fill="none" stroke="black" cx="720.64" cy="-162" rx="75.29" ry="18"/>
<text text-anchor="middle" x="720.64" y="-158.3" font-family="Times,serif" font-size="14.00">ConstraintSet</text>
</g>
<!-- ModelKindse&#45;&gt;ConstraintSet -->
<g id="edge58" class="edge">
<title>ModelKindse&#45;&gt;ConstraintSet</title>
<path fill="none" stroke="black" d="M904.14,-219.59C867.24,-208.2 814.12,-191.83 774.53,-179.62"/>
<polygon fill="black" stroke="black" points="775.36,-176.21 764.77,-176.61 773.29,-182.9 775.36,-176.21"/>
</g>
<!-- QDefinition -->
<g id="node49" class="node">
<title>QDefinition</title>
<ellipse fill="none" stroke="black" cx="877.64" cy="-162" rx="63.89" ry="18"/>
<text text-anchor="middle" x="877.64" y="-158.3" font-family="Times,serif" font-size="14.00">QDefinition</text>
</g>
<!-- ModelKindse&#45;&gt;QDefinition -->
<g id="edge59" class="edge">
<title>ModelKindse&#45;&gt;QDefinition</title>
<path fill="none" stroke="black" d="M931.06,-216.41C922.16,-207.52 911.05,-196.41 901.28,-186.63"/>
<polygon fill="black" stroke="black" points="903.66,-184.07 894.11,-179.47 898.71,-189.02 903.66,-184.07"/>
</g>
<!-- MultiDefn -->
<g id="node50" class="node">
<title>MultiDefn</title>
<ellipse fill="none" stroke="black" cx="1017.64" cy="-162" rx="57.69" ry="18"/>
<text text-anchor="middle" x="1017.64" y="-158.3" font-family="Times,serif" font-size="14.00">MultiDefn</text>
</g>
<!-- ModelKindse&#45;&gt;MultiDefn -->
<g id="edge60" class="edge">
<title>ModelKindse&#45;&gt;MultiDefn</title>
<path fill="none" stroke="black" d="M964.23,-216.41C973.13,-207.52 984.23,-196.41 994.01,-186.63"/>
<polygon fill="black" stroke="black" points="996.58,-189.02 1001.17,-179.47 991.63,-184.07 996.58,-189.02"/>
</g>
<!-- RelationConcept&#45;&gt;ConceptChunk -->
<g id="edge68" class="edge">
<title>RelationConcept&#45;&gt;ConceptChunk</title>
<path fill="none" stroke="black" d="M345.15,-144.05C348.68,-136.09 352.96,-126.41 356.9,-117.51"/>
<polygon fill="black" stroke="black" points="360.14,-118.84 360.99,-108.28 353.74,-116 360.14,-118.84"/>
</g>
<!-- ModelExpr -->
<g id="node54" class="node">
<title>ModelExpr</title>
<ellipse fill="none" stroke="black" cx="210.64" cy="-90" rx="61.99" ry="18"/>
<text text-anchor="middle" x="210.64" y="-86.3" font-family="Times,serif" font-size="14.00">ModelExpr</text>
</g>
<!-- RelationConcept&#45;&gt;ModelExpr -->
<g id="edge69" class="edge">
<title>RelationConcept&#45;&gt;ModelExpr</title>
<path fill="none" stroke="black" d="M308.51,-144.94C290.3,-134.91 266.7,-121.9 247.24,-111.17"/>
<polygon fill="black" stroke="black" points="248.79,-108.03 238.34,-106.26 245.41,-114.16 248.79,-108.03"/>
</g>
<!-- DefiningExpre -->
<g id="node51" class="node">
<title>DefiningExpre</title>
<ellipse fill="none" stroke="#00cdcd" cx="1416.64" cy="-234" rx="77.19" ry="18"/>
<text text-anchor="middle" x="1416.64" y="-230.3" font-family="Times,serif" font-size="14.00">DefiningExpre</text>
</g>
<!-- DefiningExpre&#45;&gt;UID -->
<g id="edge61" class="edge">
<title>DefiningExpre&#45;&gt;UID</title>
<path fill="none" stroke="black" d="M1419.86,-215.7C1421.29,-207.98 1423.01,-198.71 1424.61,-190.11"/>
<polygon fill="black" stroke="black" points="1428.08,-190.58 1426.47,-180.1 1421.2,-189.3 1428.08,-190.58"/>
</g>
<!-- DefiningExpre&#45;&gt;Sentence -->
<g id="edge62" class="edge">
<title>DefiningExpre&#45;&gt;Sentence</title>
<path fill="none" stroke="black" d="M1483.81,-225.06C1509.69,-222.09 1539.53,-218.76 1566.64,-216 1743.34,-198 1788.5,-202.76 1964.64,-180 1979.33,-178.1 1995.15,-175.64 2009.81,-173.18"/>
<polygon fill="black" stroke="black" points="2010.48,-176.62 2019.75,-171.49 2009.3,-169.72 2010.48,-176.62"/>
</g>
<!-- DefiningExpre&#45;&gt;e -->
<g id="edge63" class="edge">
<title>DefiningExpre&#45;&gt;e</title>
<path fill="none" stroke="black" d="M1401.88,-216.05C1393.86,-206.86 1383.86,-195.38 1375.2,-185.45"/>
<polygon fill="black" stroke="black" points="1377.83,-183.13 1368.62,-177.89 1372.55,-187.73 1377.83,-183.13"/>
</g>
<!-- MultiDefne -->
<g id="node52" class="node">
<title>MultiDefne</title>
<ellipse fill="none" stroke="#00cdcd" cx="1911.64" cy="-234" rx="63.09" ry="18"/>
<text text-anchor="middle" x="1911.64" y="-230.3" font-family="Times,serif" font-size="14.00">MultiDefne</text>
</g>
<!-- MultiDefne&#45;&gt;UID -->
<g id="edge64" class="edge">
<title>MultiDefne&#45;&gt;UID</title>
<path fill="none" stroke="black" d="M1860.65,-223.37C1845.85,-220.77 1829.63,-218.09 1814.64,-216 1661.52,-194.64 1618.16,-219.35 1468.64,-180 1466.21,-179.36 1463.73,-178.59 1461.26,-177.73"/>
<polygon fill="black" stroke="black" points="1462.5,-174.46 1451.91,-174.1 1459.96,-180.98 1462.5,-174.46"/>
</g>
<!-- MultiDefne&#45;&gt;Sentence -->
<g id="edge66" class="edge">
<title>MultiDefne&#45;&gt;Sentence</title>
<path fill="none" stroke="black" d="M1943.93,-218.33C1967.7,-207.52 2000.18,-192.76 2025.61,-181.2"/>
<polygon fill="black" stroke="black" points="2027.32,-184.26 2034.98,-176.94 2024.42,-177.89 2027.32,-184.26"/>
</g>
<!-- MultiDefne&#45;&gt;DefinedQuantityDict -->
<g id="edge65" class="edge">
<title>MultiDefne&#45;&gt;DefinedQuantityDict</title>
<path fill="none" stroke="black" d="M1928.22,-216.49C1953.82,-191.04 2000.3,-145.02 2002.64,-144 2103.24,-100.44 2831.51,-92.66 3118.68,-91.28"/>
<polygon fill="black" stroke="black" points="3118.72,-94.78 3128.7,-91.24 3118.69,-87.78 3118.72,-94.78"/>
</g>
<!-- NonEmptyDefiningExpre -->
<g id="node53" class="node">
<title>NonEmptyDefiningExpre</title>
<ellipse fill="none" stroke="black" cx="1604.64" cy="-162" rx="127.28" ry="18"/>
<text text-anchor="middle" x="1604.64" y="-158.3" font-family="Times,serif" font-size="14.00">NonEmptyDefiningExpre</text>
</g>
<!-- MultiDefne&#45;&gt;NonEmptyDefiningExpre -->
<g id="edge67" class="edge">
<title>MultiDefne&#45;&gt;NonEmptyDefiningExpre</title>
<path fill="none" stroke="black" d="M1864.01,-222.14C1814.42,-210.83 1736.08,-192.97 1678.46,-179.83"/>
<polygon fill="black" stroke="black" points="1679.21,-176.41 1668.68,-177.6 1677.65,-183.24 1679.21,-176.41"/>
</g>
<!-- TheoryModel -->
<g id="node55" class="node">
<title>TheoryModel</title>
<ellipse fill="none" stroke="#00cdcd" cx="2249.64" cy="-234" rx="71.49" ry="18"/>
<text text-anchor="middle" x="2249.64" y="-230.3" font-family="Times,serif" font-size="14.00">TheoryModel</text>
</g>
<!-- TheoryModel&#45;&gt;Sentence -->
<g id="edge74" class="edge">
<title>TheoryModel&#45;&gt;Sentence</title>
<path fill="none" stroke="black" d="M2211.97,-218.67C2182.27,-207.37 2140.81,-191.6 2109.6,-179.72"/>
<polygon fill="black" stroke="black" points="2110.45,-176.3 2099.86,-176.02 2107.96,-182.84 2110.45,-176.3"/>
</g>
<!-- TheoryModel&#45;&gt;DecRef -->
<g id="edge71" class="edge">
<title>TheoryModel&#45;&gt;DecRef</title>
<path fill="none" stroke="black" d="M2300.45,-221.28C2310.42,-219.28 2320.83,-217.4 2330.64,-216 2538.49,-186.38 2595.61,-220.34 2801.64,-180 2805.32,-179.28 2809.1,-178.39 2812.87,-177.39"/>
<polygon fill="black" stroke="black" points="2814.08,-180.69 2822.73,-174.56 2812.15,-173.96 2814.08,-180.69"/>
</g>
<!-- TheoryModel&#45;&gt;ShortName -->
<g id="edge72" class="edge">
<title>TheoryModel&#45;&gt;ShortName</title>
<path fill="none" stroke="black" d="M2301.86,-221.64C2311.42,-219.68 2321.32,-217.72 2330.64,-216 2431.11,-197.5 2457.39,-199.6 2557.64,-180 2562.99,-178.95 2568.54,-177.8 2574.09,-176.59"/>
<polygon fill="black" stroke="black" points="2575.02,-179.97 2584.02,-174.38 2573.5,-173.14 2575.02,-179.97"/>
</g>
<!-- TheoryModel&#45;&gt;String -->
<g id="edge73" class="edge">
<title>TheoryModel&#45;&gt;String</title>
<path fill="none" stroke="black" d="M2300.91,-221.35C2310.74,-219.37 2320.99,-217.48 2330.64,-216 2495.28,-190.86 2540.93,-215.55 2703.64,-180 2707,-179.27 2710.45,-178.37 2713.88,-177.39"/>
<polygon fill="black" stroke="black" points="2714.93,-180.73 2723.43,-174.4 2712.84,-174.04 2714.93,-180.73"/>
</g>
<!-- TheoryModel&#45;&gt;ModelKindModelExpr -->
<g id="edge70" class="edge">
<title>TheoryModel&#45;&gt;ModelKindModelExpr</title>
<path fill="none" stroke="black" d="M2249.64,-215.7C2249.64,-207.98 2249.64,-198.71 2249.64,-190.11"/>
<polygon fill="black" stroke="black" points="2253.14,-190.1 2249.64,-180.1 2246.14,-190.1 2253.14,-190.1"/>
</g>
</g>
</svg>
