<?xml version="1.0" encoding="UTF-8" standalone="no"?>
<!DOCTYPE svg PUBLIC "-//W3C//DTD SVG 1.1//EN"
 "http://www.w3.org/Graphics/SVG/1.1/DTD/svg11.dtd">
<!-- Generated by graphviz version 2.43.0 (0)
 -->
<!-- Title: alltypes Pages: 1 -->
<svg width="468pt" height="116pt"
 viewBox="0.00 0.00 468.49 116.00" xmlns="http://www.w3.org/2000/svg" xmlns:xlink="http://www.w3.org/1999/xlink">
<g id="graph0" class="graph" transform="scale(1 1) rotate(0) translate(4 112)">
<title>alltypes</title>
<polygon fill="white" stroke="transparent" points="-4,4 -4,-112 464.49,-112 464.49,4 -4,4"/>
<!-- Separator -->
<g id="node1" class="node">
<title>Separator</title>
<ellipse fill="none" stroke="#ee0000" cx="57.19" cy="-90" rx="57.39" ry="18"/>
<text text-anchor="middle" x="57.19" y="-86.3" font-family="Times,serif" font-size="14.00">Separator</text>
</g>
<!-- Doc -->
<g id="node2" class="node">
<title>Doc</title>
<ellipse fill="none" stroke="black" cx="91.19" cy="-18" rx="28.7" ry="18"/>
<text text-anchor="middle" x="91.19" y="-14.3" font-family="Times,serif" font-size="14.00">Doc</text>
</g>
<!-- Separator&#45;&gt;Doc -->
<g id="edge1" class="edge">
<title>Separator&#45;&gt;Doc</title>
<path fill="none" stroke="black" d="M65.43,-72.05C69.45,-63.77 74.38,-53.62 78.85,-44.42"/>
<polygon fill="black" stroke="black" points="82.05,-45.83 83.27,-35.31 75.76,-42.77 82.05,-45.83"/>
</g>
<!-- FileAndContents -->
<g id="node3" class="node">
<title>FileAndContents</title>
<ellipse fill="none" stroke="#00cdcd" cx="221.19" cy="-90" rx="88.28" ry="18"/>
<text text-anchor="middle" x="221.19" y="-86.3" font-family="Times,serif" font-size="14.00">FileAndContents</text>
</g>
<!-- FileAndContents&#45;&gt;Doc -->
<g id="edge3" class="edge">
<title>FileAndContents&#45;&gt;Doc</title>
<path fill="none" stroke="black" d="M191.37,-72.94C170.34,-61.62 142.29,-46.51 121.22,-35.17"/>
<polygon fill="black" stroke="black" points="122.83,-32.06 112.37,-30.4 119.52,-38.22 122.83,-32.06"/>
</g>
<!-- FilePath -->
<g id="node4" class="node">
<title>FilePath</title>
<ellipse fill="none" stroke="black" cx="221.19" cy="-18" rx="49.29" ry="18"/>
<text text-anchor="middle" x="221.19" y="-14.3" font-family="Times,serif" font-size="14.00">FilePath</text>
</g>
<!-- FileAndContents&#45;&gt;FilePath -->
<g id="edge2" class="edge">
<title>FileAndContents&#45;&gt;FilePath</title>
<path fill="none" stroke="black" d="M221.19,-71.7C221.19,-63.98 221.19,-54.71 221.19,-46.11"/>
<polygon fill="black" stroke="black" points="224.7,-46.1 221.19,-36.1 217.7,-46.1 224.7,-46.1"/>
</g>
<!-- RelativeFile -->
<g id="node5" class="node">
<title>RelativeFile</title>
<ellipse fill="none" stroke="darkgreen" cx="394.19" cy="-90" rx="66.09" ry="18"/>
<text text-anchor="middle" x="394.19" y="-86.3" font-family="Times,serif" font-size="14.00">RelativeFile</text>
</g>
<!-- String -->
<g id="node6" class="node">
<title>String</title>
<ellipse fill="none" stroke="black" cx="394.19" cy="-18" rx="40.09" ry="18"/>
<text text-anchor="middle" x="394.19" y="-14.3" font-family="Times,serif" font-size="14.00">String</text>
</g>
<!-- RelativeFile&#45;&gt;String -->
<g id="edge4" class="edge">
<title>RelativeFile&#45;&gt;String</title>
<path fill="none" stroke="black" d="M394.19,-71.7C394.19,-63.98 394.19,-54.71 394.19,-46.11"/>
<polygon fill="black" stroke="black" points="397.7,-46.1 394.19,-36.1 390.7,-46.1 397.7,-46.1"/>
</g>
</g>
</svg>
