<?xml version="1.0" encoding="UTF-8" standalone="no"?>
<!DOCTYPE svg PUBLIC "-//W3C//DTD SVG 1.1//EN"
 "http://www.w3.org/Graphics/SVG/1.1/DTD/svg11.dtd">
<!-- Generated by graphviz version 2.43.0 (0)
 -->
<!-- Title: alltypes Pages: 1 -->
<svg width="654pt" height="116pt"
 viewBox="0.00 0.00 653.79 116.00" xmlns="http://www.w3.org/2000/svg" xmlns:xlink="http://www.w3.org/1999/xlink">
<g id="graph0" class="graph" transform="scale(1 1) rotate(0) translate(4 112)">
<title>alltypes</title>
<polygon fill="white" stroke="transparent" points="-4,4 -4,-112 649.79,-112 649.79,4 -4,4"/>
<!-- FolderLocation -->
<g id="node1" class="node">
<title>FolderLocation</title>
<ellipse fill="none" stroke="#00cdcd" cx="431.95" cy="-90" rx="79.89" ry="18"/>
<text text-anchor="middle" x="431.95" y="-86.3" font-family="Times,serif" font-size="14.00">FolderLocation</text>
</g>
<!-- FilePath -->
<g id="node2" class="node">
<title>FilePath</title>
<ellipse fill="none" stroke="black" cx="413.95" cy="-18" rx="49.29" ry="18"/>
<text text-anchor="middle" x="413.95" y="-14.3" font-family="Times,serif" font-size="14.00">FilePath</text>
</g>
<!-- FolderLocation&#45;&gt;FilePath -->
<g id="edge1" class="edge">
<title>FolderLocation&#45;&gt;FilePath</title>
<path fill="none" stroke="black" d="M427.5,-71.7C425.49,-63.9 423.08,-54.51 420.84,-45.83"/>
<polygon fill="black" stroke="black" points="424.22,-44.92 418.34,-36.1 417.44,-46.66 424.22,-44.92"/>
</g>
<!-- String -->
<g id="node3" class="node">
<title>String</title>
<ellipse fill="none" stroke="black" cx="563.95" cy="-18" rx="40.09" ry="18"/>
<text text-anchor="middle" x="563.95" y="-14.3" font-family="Times,serif" font-size="14.00">String</text>
</g>
<!-- FolderLocation&#45;&gt;String -->
<g id="edge2" class="edge">
<title>FolderLocation&#45;&gt;String</title>
<path fill="none" stroke="black" d="M461.9,-73.12C482.17,-62.36 509,-48.14 530.05,-36.97"/>
<polygon fill="black" stroke="black" points="531.79,-40.01 538.98,-32.24 528.51,-33.83 531.79,-40.01"/>
</g>
<!-- CaseStudy -->
<g id="node4" class="node">
<title>CaseStudy</title>
<ellipse fill="none" stroke="#00cdcd" cx="152.95" cy="-90" rx="60.39" ry="18"/>
<text text-anchor="middle" x="152.95" y="-86.3" font-family="Times,serif" font-size="14.00">CaseStudy</text>
</g>
<!-- System -->
<g id="node5" class="node">
<title>System</title>
<ellipse fill="none" stroke="black" cx="282.95" cy="-18" rx="45.49" ry="18"/>
<text text-anchor="middle" x="282.95" y="-14.3" font-family="Times,serif" font-size="14.00">System</text>
</g>
<!-- CaseStudy&#45;&gt;System -->
<g id="edge3" class="edge">
<title>CaseStudy&#45;&gt;System</title>
<path fill="none" stroke="black" d="M180.83,-73.98C200.46,-63.42 226.88,-49.19 247.92,-37.86"/>
<polygon fill="black" stroke="black" points="249.73,-40.86 256.87,-33.04 246.41,-34.7 249.73,-40.86"/>
</g>
<!-- Sentence -->
<g id="node6" class="node">
<title>Sentence</title>
<ellipse fill="none" stroke="black" cx="53.95" cy="-18" rx="53.89" ry="18"/>
<text text-anchor="middle" x="53.95" y="-14.3" font-family="Times,serif" font-size="14.00">Sentence</text>
</g>
<!-- CaseStudy&#45;&gt;Sentence -->
<g id="edge4" class="edge">
<title>CaseStudy&#45;&gt;Sentence</title>
<path fill="none" stroke="black" d="M130.48,-73.12C116.84,-63.47 99.25,-51.04 84.38,-40.52"/>
<polygon fill="black" stroke="black" points="86.17,-37.5 75.98,-34.58 82.12,-43.21 86.17,-37.5"/>
</g>
<!-- Choices -->
<g id="node7" class="node">
<title>Choices</title>
<ellipse fill="none" stroke="black" cx="172.95" cy="-18" rx="46.59" ry="18"/>
<text text-anchor="middle" x="172.95" y="-14.3" font-family="Times,serif" font-size="14.00">Choices</text>
</g>
<!-- CaseStudy&#45;&gt;Choices -->
<g id="edge5" class="edge">
<title>CaseStudy&#45;&gt;Choices</title>
<path fill="none" stroke="black" d="M157.79,-72.05C160.01,-64.26 162.71,-54.82 165.21,-46.08"/>
<polygon fill="black" stroke="black" points="168.63,-46.85 168.01,-36.28 161.9,-44.93 168.63,-46.85"/>
</g>
<!-- CSLegend -->
<g id="node8" class="node">
<title>CSLegend</title>
<ellipse fill="none" stroke="#00cdcd" cx="587.95" cy="-90" rx="57.69" ry="18"/>
<text text-anchor="middle" x="587.95" y="-86.3" font-family="Times,serif" font-size="14.00">CSLegend</text>
</g>
<!-- CSLegend&#45;&gt;String -->
<g id="edge6" class="edge">
<title>CSLegend&#45;&gt;String</title>
<path fill="none" stroke="black" d="M582.14,-72.05C579.43,-64.18 576.16,-54.62 573.13,-45.79"/>
<polygon fill="black" stroke="black" points="576.42,-44.6 569.87,-36.28 569.8,-46.87 576.42,-44.6"/>
</g>
<!-- Example -->
<g id="node9" class="node">
<title>Example</title>
<ellipse fill="none" stroke="#00cdcd" cx="282.95" cy="-90" rx="51.19" ry="18"/>
<text text-anchor="middle" x="282.95" y="-86.3" font-family="Times,serif" font-size="14.00">Example</text>
</g>
<!-- Example&#45;&gt;FilePath -->
<g id="edge9" class="edge">
<title>Example&#45;&gt;FilePath</title>
<path fill="none" stroke="black" d="M310.09,-74.5C329.89,-63.91 356.92,-49.47 378.44,-37.97"/>
<polygon fill="black" stroke="black" points="380.11,-41.05 387.28,-33.25 376.82,-34.87 380.11,-41.05"/>
</g>
<!-- Example&#45;&gt;System -->
<g id="edge7" class="edge">
<title>Example&#45;&gt;System</title>
<path fill="none" stroke="black" d="M282.95,-71.7C282.95,-63.98 282.95,-54.71 282.95,-46.11"/>
<polygon fill="black" stroke="black" points="286.45,-46.1 282.95,-36.1 279.45,-46.1 286.45,-46.1"/>
</g>
<!-- Example&#45;&gt;Choices -->
<g id="edge8" class="edge">
<title>Example&#45;&gt;Choices</title>
<path fill="none" stroke="black" d="M259.35,-73.98C243.44,-63.86 222.25,-50.38 204.84,-39.3"/>
<polygon fill="black" stroke="black" points="206.44,-36.17 196.13,-33.75 202.68,-42.07 206.44,-36.17"/>
</g>
</g>
</svg>
