<?xml version="1.0" encoding="UTF-8" standalone="no"?>
<!DOCTYPE svg PUBLIC "-//W3C//DTD SVG 1.1//EN"
 "http://www.w3.org/Graphics/SVG/1.1/DTD/svg11.dtd">
<!-- Generated by graphviz version 2.43.0 (0)
 -->
<!-- Title: alltypes Pages: 1 -->
<svg width="727pt" height="116pt"
 viewBox="0.00 0.00 726.79 116.00" xmlns="http://www.w3.org/2000/svg" xmlns:xlink="http://www.w3.org/1999/xlink">
<g id="graph0" class="graph" transform="scale(1 1) rotate(0) translate(4 112)">
<title>alltypes</title>
<polygon fill="white" stroke="transparent" points="-4,4 -4,-112 722.79,-112 722.79,4 -4,4"/>
<!-- FolderLocation -->
<g id="node1" class="node">
<title>FolderLocation</title>
<ellipse fill="none" stroke="#00cdcd" cx="504.95" cy="-90" rx="79.89" ry="18"/>
<text text-anchor="middle" x="504.95" y="-86.3" font-family="Times,serif" font-size="14.00">FolderLocation</text>
</g>
<!-- FilePath -->
<g id="node2" class="node">
<title>FilePath</title>
<ellipse fill="none" stroke="black" cx="504.95" cy="-18" rx="49.29" ry="18"/>
<text text-anchor="middle" x="504.95" y="-14.3" font-family="Times,serif" font-size="14.00">FilePath</text>
</g>
<!-- FolderLocation&#45;&gt;FilePath -->
<g id="edge1" class="edge">
<title>FolderLocation&#45;&gt;FilePath</title>
<path fill="none" stroke="black" d="M504.95,-71.7C504.95,-63.98 504.95,-54.71 504.95,-46.11"/>
<polygon fill="black" stroke="black" points="508.45,-46.1 504.95,-36.1 501.45,-46.1 508.45,-46.1"/>
</g>
<!-- String -->
<g id="node3" class="node">
<title>String</title>
<ellipse fill="none" stroke="black" cx="636.95" cy="-18" rx="40.09" ry="18"/>
<text text-anchor="middle" x="636.95" y="-14.3" font-family="Times,serif" font-size="14.00">String</text>
</g>
<!-- FolderLocation&#45;&gt;String -->
<g id="edge2" class="edge">
<title>FolderLocation&#45;&gt;String</title>
<path fill="none" stroke="black" d="M534.9,-73.12C555.17,-62.36 582,-48.14 603.05,-36.97"/>
<polygon fill="black" stroke="black" points="604.79,-40.01 611.98,-32.24 601.51,-33.83 604.79,-40.01"/>
</g>
<!-- CaseStudy -->
<g id="node4" class="node">
<title>CaseStudy</title>
<ellipse fill="none" stroke="#00cdcd" cx="172.95" cy="-90" rx="60.39" ry="18"/>
<text text-anchor="middle" x="172.95" y="-86.3" font-family="Times,serif" font-size="14.00">CaseStudy</text>
</g>
<!-- SystemInformation -->
<g id="node5" class="node">
<title>SystemInformation</title>
<ellipse fill="none" stroke="black" cx="337.95" cy="-18" rx="100.18" ry="18"/>
<text text-anchor="middle" x="337.95" y="-14.3" font-family="Times,serif" font-size="14.00">SystemInformation</text>
</g>
<!-- CaseStudy&#45;&gt;SystemInformation -->
<g id="edge3" class="edge">
<title>CaseStudy&#45;&gt;SystemInformation</title>
<path fill="none" stroke="black" d="M206.34,-74.83C230.85,-64.44 264.45,-50.18 291.57,-38.67"/>
<polygon fill="black" stroke="black" points="293.03,-41.86 300.87,-34.73 290.3,-35.41 293.03,-41.86"/>
</g>
<!-- Sentence -->
<g id="node6" class="node">
<title>Sentence</title>
<ellipse fill="none" stroke="black" cx="53.95" cy="-18" rx="53.89" ry="18"/>
<text text-anchor="middle" x="53.95" y="-14.3" font-family="Times,serif" font-size="14.00">Sentence</text>
</g>
<!-- CaseStudy&#45;&gt;Sentence -->
<g id="edge4" class="edge">
<title>CaseStudy&#45;&gt;Sentence</title>
<path fill="none" stroke="black" d="M146.83,-73.64C129.66,-63.54 107.01,-50.21 88.37,-39.25"/>
<polygon fill="black" stroke="black" points="89.98,-36.14 79.59,-34.09 86.43,-42.17 89.98,-36.14"/>
</g>
<!-- Choices -->
<g id="node7" class="node">
<title>Choices</title>
<ellipse fill="none" stroke="black" cx="172.95" cy="-18" rx="46.59" ry="18"/>
<text text-anchor="middle" x="172.95" y="-14.3" font-family="Times,serif" font-size="14.00">Choices</text>
</g>
<!-- CaseStudy&#45;&gt;Choices -->
<g id="edge5" class="edge">
<title>CaseStudy&#45;&gt;Choices</title>
<path fill="none" stroke="black" d="M172.95,-71.7C172.95,-63.98 172.95,-54.71 172.95,-46.11"/>
<polygon fill="black" stroke="black" points="176.45,-46.1 172.95,-36.1 169.45,-46.1 176.45,-46.1"/>
</g>
<!-- CSLegend -->
<g id="node8" class="node">
<title>CSLegend</title>
<ellipse fill="none" stroke="#00cdcd" cx="660.95" cy="-90" rx="57.69" ry="18"/>
<text text-anchor="middle" x="660.95" y="-86.3" font-family="Times,serif" font-size="14.00">CSLegend</text>
</g>
<!-- CSLegend&#45;&gt;String -->
<g id="edge6" class="edge">
<title>CSLegend&#45;&gt;String</title>
<path fill="none" stroke="black" d="M655.14,-72.05C652.43,-64.18 649.16,-54.62 646.13,-45.79"/>
<polygon fill="black" stroke="black" points="649.42,-44.6 642.87,-36.28 642.8,-46.87 649.42,-44.6"/>
</g>
<!-- Example -->
<g id="node9" class="node">
<title>Example</title>
<ellipse fill="none" stroke="#00cdcd" cx="320.95" cy="-90" rx="51.19" ry="18"/>
<text text-anchor="middle" x="320.95" y="-86.3" font-family="Times,serif" font-size="14.00">Example</text>
</g>
<!-- Example&#45;&gt;FilePath -->
<g id="edge10" class="edge">
<title>Example&#45;&gt;FilePath</title>
<path fill="none" stroke="black" d="M354.69,-76.16C384.97,-64.64 429.54,-47.69 462.28,-35.23"/>
<polygon fill="black" stroke="black" points="463.93,-38.35 472.03,-31.52 461.44,-31.81 463.93,-38.35"/>
</g>
<!-- Example&#45;&gt;SystemInformation -->
<g id="edge7" class="edge">
<title>Example&#45;&gt;SystemInformation</title>
<path fill="none" stroke="black" d="M325.06,-72.05C326.95,-64.26 329.25,-54.82 331.37,-46.08"/>
<polygon fill="black" stroke="black" points="334.79,-46.82 333.75,-36.28 327.99,-45.17 334.79,-46.82"/>
</g>
<!-- Example&#45;&gt;Sentence -->
<g id="edge8" class="edge">
<title>Example&#45;&gt;Sentence</title>
<path fill="none" stroke="black" d="M280.66,-78.65C239.49,-68.05 173.72,-51.03 116.95,-36 112.88,-34.92 108.67,-33.8 104.44,-32.67"/>
<polygon fill="black" stroke="black" points="105.16,-29.24 94.6,-30.03 103.35,-36 105.16,-29.24"/>
</g>
<!-- Example&#45;&gt;Choices -->
<g id="edge9" class="edge">
<title>Example&#45;&gt;Choices</title>
<path fill="none" stroke="black" d="M291.71,-75.17C268.47,-64.18 235.82,-48.74 210.62,-36.82"/>
<polygon fill="black" stroke="black" points="211.91,-33.56 201.37,-32.44 208.91,-39.88 211.91,-33.56"/>
</g>
</g>
</svg>
