<?xml version="1.0" encoding="UTF-8" standalone="no"?>
<!DOCTYPE svg PUBLIC "-//W3C//DTD SVG 1.1//EN"
 "http://www.w3.org/Graphics/SVG/1.1/DTD/svg11.dtd">
<!-- Generated by graphviz version 2.43.0 (0)
 -->
<!-- Title: allvsr Pages: 1 -->
<svg width="5325pt" height="148pt"
 viewBox="0.00 0.00 5324.50 147.65" xmlns="http://www.w3.org/2000/svg" xmlns:xlink="http://www.w3.org/1999/xlink">
<g id="graph0" class="graph" transform="scale(1 1) rotate(0) translate(4 143.65)">
<title>allvsr</title>
<polygon fill="white" stroke="transparent" points="-4,4 -4,-143.65 5320.5,-143.65 5320.5,4 -4,4"/>
<!-- findMass -->
<g id="node1" class="node">
<title>findMass</title>
<polygon fill="ivory" stroke="black" points="541.5,-108 435.5,-108 435.5,-72 541.5,-72 541.5,-108"/>
<text text-anchor="middle" x="488.5" y="-86.3" font-family="Times,serif" font-size="14.00">FR:findMass</text>
</g>
<!-- wMass -->
<g id="node2" class="node">
<title>wMass</title>
<polygon fill="#bbffff" stroke="black" points="677.5,-36 555.5,-36 555.5,0 677.5,0 677.5,-36"/>
<text text-anchor="middle" x="616.5" y="-14.3" font-family="Times,serif" font-size="14.00">DD:waterMass</text>
</g>
<!-- findMass&#45;&gt;wMass -->
<g id="edge1" class="edge">
<title>findMass&#45;&gt;wMass</title>
<path fill="none" stroke="black" d="M519.81,-71.88C536.7,-62.64 557.75,-51.13 575.88,-41.21"/>
<polygon fill="black" stroke="black" points="577.97,-44.06 585.07,-36.19 574.61,-37.92 577.97,-44.06"/>
</g>
<!-- wVol -->
<g id="node3" class="node">
<title>wVol</title>
<polygon fill="#bbffff" stroke="black" points="885,-36 696,-36 696,0 885,0 885,-36"/>
<text text-anchor="middle" x="790.5" y="-14.3" font-family="Times,serif" font-size="14.00">DD:waterVolume.nopcm</text>
</g>
<!-- findMass&#45;&gt;wVol -->
<g id="edge2" class="edge">
<title>findMass&#45;&gt;wVol</title>
<path fill="none" stroke="black" d="M541.73,-74.45C545.03,-73.61 548.31,-72.78 551.5,-72 600.23,-60.03 654.85,-47.83 699.56,-38.15"/>
<polygon fill="black" stroke="black" points="700.49,-41.53 709.53,-36 699.02,-34.69 700.49,-41.53"/>
</g>
<!-- tankVol -->
<g id="node4" class="node">
<title>tankVol</title>
<polygon fill="#bbffff" stroke="black" points="537.5,-36 409.5,-36 409.5,0 537.5,0 537.5,-36"/>
<text text-anchor="middle" x="473.5" y="-14.3" font-family="Times,serif" font-size="14.00">DD:tankVolume</text>
</g>
<!-- findMass&#45;&gt;tankVol -->
<g id="edge3" class="edge">
<title>findMass&#45;&gt;tankVol</title>
<path fill="none" stroke="black" d="M484.79,-71.7C483.14,-63.98 481.15,-54.71 479.31,-46.11"/>
<polygon fill="black" stroke="black" points="482.68,-45.15 477.17,-36.1 475.84,-46.62 482.68,-45.15"/>
</g>
<!-- eBalanceOnWtrRC -->
<g id="node5" class="node">
<title>eBalanceOnWtrRC</title>
<polygon fill="#fff68f" stroke="black" points="391.5,-36 239.5,-36 239.5,0 391.5,0 391.5,-36"/>
<text text-anchor="middle" x="315.5" y="-14.3" font-family="Times,serif" font-size="14.00">IM:eBalanceOnWtr</text>
</g>
<!-- findMass&#45;&gt;eBalanceOnWtrRC -->
<g id="edge4" class="edge">
<title>findMass&#45;&gt;eBalanceOnWtrRC</title>
<path fill="none" stroke="black" d="M446.18,-71.88C422.32,-62.22 392.33,-50.09 367.1,-39.88"/>
<polygon fill="black" stroke="black" points="368.27,-36.57 357.68,-36.07 365.64,-43.06 368.27,-36.57"/>
</g>
<!-- inputInitVals -->
<g id="node6" class="node">
<title>inputInitVals</title>
<polygon fill="ivory" stroke="black" points="693,-108 560,-108 560,-72 693,-72 693,-108"/>
<text text-anchor="middle" x="626.5" y="-86.3" font-family="Times,serif" font-size="14.00">FR:inputInitVals</text>
</g>
<!-- findMass&#45;&gt;inputInitVals -->
<g id="edge5" class="edge">
<title>findMass&#45;&gt;inputInitVals</title>
<path fill="none" stroke="black" d="M541.6,-90C544.26,-90 546.92,-90 549.58,-90"/>
<polygon fill="black" stroke="black" points="549.84,-93.5 559.84,-90 549.84,-86.5 549.84,-93.5"/>
</g>
<!-- outputInputDerivVals -->
<g id="node7" class="node">
<title>outputInputDerivVals</title>
<polygon fill="ivory" stroke="black" points="195,-108 0,-108 0,-72 195,-72 195,-108"/>
<text text-anchor="middle" x="97.5" y="-86.3" font-family="Times,serif" font-size="14.00">FR:outputInputDerivVals</text>
</g>
<!-- outputInputDerivVals&#45;&gt;findMass -->
<g id="edge8" class="edge">
<title>outputInputDerivVals&#45;&gt;findMass</title>
<path fill="none" stroke="black" d="M144.43,-108.09C165.25,-115.19 190.25,-122.48 213.5,-126 303.58,-139.66 329.95,-147.44 418.5,-126 429.9,-123.24 441.53,-118.28 451.95,-112.91"/>
<polygon fill="black" stroke="black" points="453.64,-115.98 460.76,-108.13 450.3,-109.82 453.64,-115.98"/>
</g>
<!-- outputInputDerivVals&#45;&gt;inputInitVals -->
<g id="edge7" class="edge">
<title>outputInputDerivVals&#45;&gt;inputInitVals</title>
<path fill="none" stroke="black" d="M144.43,-108.09C165.25,-115.19 190.25,-122.48 213.5,-126 285.57,-136.93 470.07,-140.5 541.5,-126 555.53,-123.15 570.11,-117.91 583.16,-112.29"/>
<polygon fill="black" stroke="black" points="584.67,-115.45 592.36,-108.16 581.81,-109.06 584.67,-115.45"/>
</g>
<!-- tauW -->
<g id="node8" class="node">
<title>tauW</title>
<polygon fill="#bbffff" stroke="black" points="185,-36 10,-36 10,0 185,0 185,-36"/>
<text text-anchor="middle" x="97.5" y="-14.3" font-family="Times,serif" font-size="14.00">DD:balanceDecayRate</text>
</g>
<!-- outputInputDerivVals&#45;&gt;tauW -->
<g id="edge6" class="edge">
<title>outputInputDerivVals&#45;&gt;tauW</title>
<path fill="none" stroke="black" d="M97.5,-71.7C97.5,-63.98 97.5,-54.71 97.5,-46.11"/>
<polygon fill="black" stroke="black" points="101,-46.1 97.5,-36.1 94,-46.1 101,-46.1"/>
</g>
<!-- calcTempWtrOverTime -->
<g id="node9" class="node">
<title>calcTempWtrOverTime</title>
<polygon fill="ivory" stroke="black" points="418,-108 213,-108 213,-72 418,-72 418,-108"/>
<text text-anchor="middle" x="315.5" y="-86.3" font-family="Times,serif" font-size="14.00">FR:calcTempWtrOverTime</text>
</g>
<!-- calcTempWtrOverTime&#45;&gt;eBalanceOnWtrRC -->
<g id="edge9" class="edge">
<title>calcTempWtrOverTime&#45;&gt;eBalanceOnWtrRC</title>
<path fill="none" stroke="black" d="M315.5,-71.7C315.5,-63.98 315.5,-54.71 315.5,-46.11"/>
<polygon fill="black" stroke="black" points="319,-46.1 315.5,-36.1 312,-46.1 319,-46.1"/>
</g>
<!-- calcChgHeatEnergyWtrOverTime -->
<g id="node10" class="node">
<title>calcChgHeatEnergyWtrOverTime</title>
<polygon fill="ivory" stroke="black" points="1106,-108 825,-108 825,-72 1106,-72 1106,-108"/>
<text text-anchor="middle" x="965.5" y="-86.3" font-family="Times,serif" font-size="14.00">FR:calcChgHeatEnergyWtrOverTime</text>
</g>
<!-- heatEInWtrRC -->
<g id="node11" class="node">
<title>heatEInWtrRC</title>
<polygon fill="#fff68f" stroke="black" points="1027.5,-36 903.5,-36 903.5,0 1027.5,0 1027.5,-36"/>
<text text-anchor="middle" x="965.5" y="-14.3" font-family="Times,serif" font-size="14.00">IM:heatEInWtr</text>
</g>
<!-- calcChgHeatEnergyWtrOverTime&#45;&gt;heatEInWtrRC -->
<g id="edge10" class="edge">
<title>calcChgHeatEnergyWtrOverTime&#45;&gt;heatEInWtrRC</title>
<path fill="none" stroke="black" d="M965.5,-71.7C965.5,-63.98 965.5,-54.71 965.5,-46.11"/>
<polygon fill="black" stroke="black" points="969,-46.1 965.5,-36.1 962,-46.1 969,-46.1"/>
</g>
<!-- assumpTEO -->
<g id="node12" class="node">
<title>assumpTEO</title>
<polygon fill="mistyrose" stroke="black" points="1240.5,-108 1124.5,-108 1124.5,-72 1240.5,-72 1240.5,-108"/>
<text text-anchor="middle" x="1182.5" y="-86.3" font-family="Times,serif" font-size="14.00">A:assumpTEO</text>
</g>
<!-- assumpHTCC -->
<g id="node13" class="node">
<title>assumpHTCC</title>
<polygon fill="mistyrose" stroke="black" points="1386.5,-108 1258.5,-108 1258.5,-72 1386.5,-72 1386.5,-108"/>
<text text-anchor="middle" x="1322.5" y="-86.3" font-family="Times,serif" font-size="14.00">A:assumpHTCC</text>
</g>
<!-- assumpCWTAT -->
<g id="node14" class="node">
<title>assumpCWTAT</title>
<polygon fill="mistyrose" stroke="black" points="1542,-108 1405,-108 1405,-72 1542,-72 1542,-108"/>
<text text-anchor="middle" x="1473.5" y="-86.3" font-family="Times,serif" font-size="14.00">A:assumpCWTAT</text>
</g>
<!-- assumpDWCoW -->
<g id="node15" class="node">
<title>assumpDWCoW</title>
<polygon fill="mistyrose" stroke="black" points="1704.5,-108 1560.5,-108 1560.5,-72 1704.5,-72 1704.5,-108"/>
<text text-anchor="middle" x="1632.5" y="-86.3" font-family="Times,serif" font-size="14.00">A:assumpDWCoW</text>
</g>
<!-- assumpSHECoW -->
<g id="node16" class="node">
<title>assumpSHECoW</title>
<polygon fill="mistyrose" stroke="black" points="1874,-108 1723,-108 1723,-72 1874,-72 1874,-108"/>
<text text-anchor="middle" x="1798.5" y="-86.3" font-family="Times,serif" font-size="14.00">A:assumpSHECoW</text>
</g>
<!-- assumpLCCCW -->
<g id="node17" class="node">
<title>assumpLCCCW</title>
<polygon fill="mistyrose" stroke="black" points="2032.5,-108 1892.5,-108 1892.5,-72 2032.5,-72 2032.5,-108"/>
<text text-anchor="middle" x="1962.5" y="-86.3" font-family="Times,serif" font-size="14.00">A:assumpLCCCW</text>
</g>
<!-- assumpTHCCoT -->
<g id="node18" class="node">
<title>assumpTHCCoT</title>
<polygon fill="mistyrose" stroke="black" points="2196,-108 2051,-108 2051,-72 2196,-72 2196,-108"/>
<text text-anchor="middle" x="2123.5" y="-86.3" font-family="Times,serif" font-size="14.00">A:assumpTHCCoT</text>
</g>
<!-- assumpTHCCoL -->
<g id="node19" class="node">
<title>assumpTHCCoL</title>
<polygon fill="mistyrose" stroke="black" points="2359,-108 2214,-108 2214,-72 2359,-72 2359,-108"/>
<text text-anchor="middle" x="2286.5" y="-86.3" font-family="Times,serif" font-size="14.00">A:assumpTHCCoL</text>
</g>
<!-- assumpCTNTD -->
<g id="node20" class="node">
<title>assumpCTNTD</title>
<polygon fill="mistyrose" stroke="black" points="2514,-108 2377,-108 2377,-72 2514,-72 2514,-108"/>
<text text-anchor="middle" x="2445.5" y="-86.3" font-family="Times,serif" font-size="14.00">A:assumpCTNTD</text>
</g>
<!-- assumpWAL -->
<g id="node21" class="node">
<title>assumpWAL</title>
<polygon fill="mistyrose" stroke="black" points="2650.5,-108 2532.5,-108 2532.5,-72 2650.5,-72 2650.5,-108"/>
<text text-anchor="middle" x="2591.5" y="-86.3" font-family="Times,serif" font-size="14.00">A:assumpWAL</text>
</g>
<!-- assumpPIT -->
<g id="node22" class="node">
<title>assumpPIT</title>
<polygon fill="mistyrose" stroke="black" points="2778.5,-108 2668.5,-108 2668.5,-72 2778.5,-72 2778.5,-108"/>
<text text-anchor="middle" x="2723.5" y="-86.3" font-family="Times,serif" font-size="14.00">A:assumpPIT</text>
</g>
<!-- assumpNIHGBW -->
<g id="node23" class="node">
<title>assumpNIHGBW</title>
<polygon fill="mistyrose" stroke="black" points="2948,-108 2797,-108 2797,-72 2948,-72 2948,-108"/>
<text text-anchor="middle" x="2872.5" y="-86.3" font-family="Times,serif" font-size="14.00">A:assumpNIHGBW</text>
</g>
<!-- assumpAPT -->
<g id="node24" class="node">
<title>assumpAPT</title>
<polygon fill="mistyrose" stroke="black" points="3080.5,-108 2966.5,-108 2966.5,-72 3080.5,-72 3080.5,-108"/>
<text text-anchor="middle" x="3023.5" y="-86.3" font-family="Times,serif" font-size="14.00">A:assumpAPT</text>
</g>
<!-- assumpVCN -->
<g id="node25" class="node">
<title>assumpVCN</title>
<polygon fill="mistyrose" stroke="black" points="3216.5,-108 3098.5,-108 3098.5,-72 3216.5,-72 3216.5,-108"/>
<text text-anchor="middle" x="3157.5" y="-86.3" font-family="Times,serif" font-size="14.00">A:assumpVCN</text>
</g>
<!-- consThermECS -->
<g id="node26" class="node">
<title>consThermECS</title>
<polygon fill="pink" stroke="black" points="3368.5,-108 3234.5,-108 3234.5,-72 3368.5,-72 3368.5,-108"/>
<text text-anchor="middle" x="3301.5" y="-86.3" font-family="Times,serif" font-size="14.00">TM:consThermE</text>
</g>
<!-- sensHeat -->
<g id="node27" class="node">
<title>sensHeat</title>
<polygon fill="pink" stroke="black" points="3492,-108 3387,-108 3387,-72 3492,-72 3492,-108"/>
<text text-anchor="middle" x="3439.5" y="-86.3" font-family="Times,serif" font-size="14.00">TM:sensHtE</text>
</g>
<!-- nwtnCoolingRC -->
<g id="node28" class="node">
<title>nwtnCoolingRC</title>
<polygon fill="pink" stroke="black" points="3644.5,-108 3510.5,-108 3510.5,-72 3644.5,-72 3644.5,-108"/>
<text text-anchor="middle" x="3577.5" y="-86.3" font-family="Times,serif" font-size="14.00">TM:nwtnCooling</text>
</g>
<!-- rocTempSimpRC -->
<g id="node29" class="node">
<title>rocTempSimpRC</title>
<polygon fill="palegreen" stroke="black" points="3804.5,-108 3662.5,-108 3662.5,-72 3804.5,-72 3804.5,-108"/>
<text text-anchor="middle" x="3733.5" y="-86.3" font-family="Times,serif" font-size="14.00">GD:rocTempSimp</text>
</g>
<!-- htFluxC -->
<g id="node30" class="node">
<title>htFluxC</title>
<polygon fill="palegreen" stroke="black" points="4022,-108 3823,-108 3823,-72 4022,-72 4022,-108"/>
<text text-anchor="middle" x="3922.5" y="-86.3" font-family="Times,serif" font-size="14.00">GD:htFluxWaterFromCoil</text>
</g>
<!-- checkWithPhysConsts -->
<g id="node31" class="node">
<title>checkWithPhysConsts</title>
<polygon fill="ivory" stroke="black" points="4239,-108 4040,-108 4040,-72 4239,-72 4239,-108"/>
<text text-anchor="middle" x="4139.5" y="-86.3" font-family="Times,serif" font-size="14.00">FR:checkWithPhysConsts</text>
</g>
<!-- correct -->
<g id="node32" class="node">
<title>correct</title>
<polygon fill="ivory" stroke="black" points="4361.5,-108 4257.5,-108 4257.5,-72 4361.5,-72 4361.5,-108"/>
<text text-anchor="middle" x="4309.5" y="-86.3" font-family="Times,serif" font-size="14.00">NFR:correct</text>
</g>
<!-- verifiable -->
<g id="node33" class="node">
<title>verifiable</title>
<polygon fill="ivory" stroke="black" points="4499.5,-108 4379.5,-108 4379.5,-72 4499.5,-72 4499.5,-108"/>
<text text-anchor="middle" x="4439.5" y="-86.3" font-family="Times,serif" font-size="14.00">NFR:verifiable</text>
</g>
<!-- understandable -->
<g id="node34" class="node">
<title>understandable</title>
<polygon fill="ivory" stroke="black" points="4683,-108 4518,-108 4518,-72 4683,-72 4683,-108"/>
<text text-anchor="middle" x="4600.5" y="-86.3" font-family="Times,serif" font-size="14.00">NFR:understandable</text>
</g>
<!-- reusable -->
<g id="node35" class="node">
<title>reusable</title>
<polygon fill="ivory" stroke="black" points="4816,-108 4701,-108 4701,-72 4816,-72 4816,-108"/>
<text text-anchor="middle" x="4758.5" y="-86.3" font-family="Times,serif" font-size="14.00">NFR:reusable</text>
</g>
<!-- maintainable -->
<g id="node36" class="node">
<title>maintainable</title>
<polygon fill="ivory" stroke="black" points="4980.5,-108 4834.5,-108 4834.5,-72 4980.5,-72 4980.5,-108"/>
<text text-anchor="middle" x="4907.5" y="-86.3" font-family="Times,serif" font-size="14.00">NFR:maintainable</text>
</g>
<!-- waterTempGS -->
<g id="node37" class="node">
<title>waterTempGS</title>
<polygon fill="#ffb90f" stroke="black" points="5142,-108 4999,-108 4999,-72 5142,-72 5142,-108"/>
<text text-anchor="middle" x="5070.5" y="-86.3" font-family="Times,serif" font-size="14.00">GS:waterTempGS</text>
</g>
<!-- waterEnergyGS -->
<g id="node38" class="node">
<title>waterEnergyGS</title>
<polygon fill="#ffb90f" stroke="black" points="5316.5,-108 5160.5,-108 5160.5,-72 5316.5,-72 5316.5,-108"/>
<text text-anchor="middle" x="5238.5" y="-86.3" font-family="Times,serif" font-size="14.00">GS:waterEnergyGS</text>
</g>
</g>
</svg>
