<?xml version="1.0" encoding="UTF-8" standalone="no"?>
<!DOCTYPE svg PUBLIC "-//W3C//DTD SVG 1.1//EN"
 "http://www.w3.org/Graphics/SVG/1.1/DTD/svg11.dtd">
<!-- Generated by graphviz version 2.43.0 (0)
 -->
<!-- Title: allvsall Pages: 1 -->
<svg width="3736pt" height="367pt"
 viewBox="0.00 0.00 3735.50 366.75" xmlns="http://www.w3.org/2000/svg" xmlns:xlink="http://www.w3.org/1999/xlink">
<g id="graph0" class="graph" transform="scale(1 1) rotate(0) translate(4 362.75)">
<title>allvsall</title>
<polygon fill="white" stroke="transparent" points="-4,4 -4,-362.75 3731.5,-362.75 3731.5,4 -4,4"/>
<!-- wVol -->
<g id="node1" class="node">
<title>wVol</title>
<polygon fill="#bbffff" stroke="black" points="1902,-180 1713,-180 1713,-144 1902,-144 1902,-180"/>
<text text-anchor="middle" x="1807.5" y="-158.3" font-family="Times,serif" font-size="14.00">DD:waterVolume.nopcm</text>
</g>
<!-- assumpVCN -->
<g id="node2" class="node">
<title>assumpVCN</title>
<polygon fill="mistyrose" stroke="black" points="1889.5,-36 1771.5,-36 1771.5,0 1889.5,0 1889.5,-36"/>
<text text-anchor="middle" x="1830.5" y="-14.3" font-family="Times,serif" font-size="14.00">A:assumpVCN</text>
</g>
<!-- wVol&#45;&gt;assumpVCN -->
<g id="edge1" class="edge">
<title>wVol&#45;&gt;assumpVCN</title>
<path fill="none" stroke="black" d="M1810.27,-143.87C1814.19,-119.67 1821.4,-75.21 1826.06,-46.39"/>
<polygon fill="black" stroke="black" points="1829.57,-46.62 1827.72,-36.19 1822.66,-45.5 1829.57,-46.62"/>
</g>
<!-- tankVol -->
<g id="node3" class="node">
<title>tankVol</title>
<polygon fill="#bbffff" stroke="black" points="2048.5,-180 1920.5,-180 1920.5,-144 2048.5,-144 2048.5,-180"/>
<text text-anchor="middle" x="1984.5" y="-158.3" font-family="Times,serif" font-size="14.00">DD:tankVolume</text>
</g>
<!-- wVol&#45;&gt;tankVol -->
<g id="edge2" class="edge">
<title>wVol&#45;&gt;tankVol</title>
<path fill="none" stroke="black" d="M1902.22,-162C1904.85,-162 1907.47,-162 1910.1,-162"/>
<polygon fill="black" stroke="black" points="1910.22,-165.5 1920.22,-162 1910.22,-158.5 1910.22,-165.5"/>
</g>
<!-- consThermECS -->
<g id="node4" class="node">
<title>consThermECS</title>
<polygon fill="pink" stroke="black" points="898.5,-108 764.5,-108 764.5,-72 898.5,-72 898.5,-108"/>
<text text-anchor="middle" x="831.5" y="-86.3" font-family="Times,serif" font-size="14.00">TM:consThermE</text>
</g>
<!-- assumpTEO -->
<g id="node5" class="node">
<title>assumpTEO</title>
<polygon fill="mistyrose" stroke="black" points="839.5,-36 723.5,-36 723.5,0 839.5,0 839.5,-36"/>
<text text-anchor="middle" x="781.5" y="-14.3" font-family="Times,serif" font-size="14.00">A:assumpTEO</text>
</g>
<!-- consThermECS&#45;&gt;assumpTEO -->
<g id="edge3" class="edge">
<title>consThermECS&#45;&gt;assumpTEO</title>
<path fill="none" stroke="black" d="M819.14,-71.7C813.27,-63.47 806.13,-53.48 799.66,-44.42"/>
<polygon fill="black" stroke="black" points="802.38,-42.21 793.72,-36.1 796.68,-46.28 802.38,-42.21"/>
</g>
<!-- sensHeat -->
<g id="node6" class="node">
<title>sensHeat</title>
<polygon fill="pink" stroke="black" points="279,-108 174,-108 174,-72 279,-72 279,-108"/>
<text text-anchor="middle" x="226.5" y="-86.3" font-family="Times,serif" font-size="14.00">TM:sensHtE</text>
</g>
<!-- assumpWAL -->
<g id="node7" class="node">
<title>assumpWAL</title>
<polygon fill="mistyrose" stroke="black" points="366.5,-36 248.5,-36 248.5,0 366.5,0 366.5,-36"/>
<text text-anchor="middle" x="307.5" y="-14.3" font-family="Times,serif" font-size="14.00">A:assumpWAL</text>
</g>
<!-- sensHeat&#45;&gt;assumpWAL -->
<g id="edge4" class="edge">
<title>sensHeat&#45;&gt;assumpWAL</title>
<path fill="none" stroke="black" d="M246.52,-71.7C256.63,-62.97 269.04,-52.24 280.02,-42.75"/>
<polygon fill="black" stroke="black" points="282.43,-45.29 287.71,-36.1 277.85,-39.99 282.43,-45.29"/>
</g>
<!-- nwtnCoolingRC -->
<g id="node8" class="node">
<title>nwtnCoolingRC</title>
<polygon fill="pink" stroke="black" points="1435.5,-108 1301.5,-108 1301.5,-72 1435.5,-72 1435.5,-108"/>
<text text-anchor="middle" x="1368.5" y="-86.3" font-family="Times,serif" font-size="14.00">TM:nwtnCooling</text>
</g>
<!-- assumpHTCC -->
<g id="node9" class="node">
<title>assumpHTCC</title>
<polygon fill="mistyrose" stroke="black" points="1461.5,-36 1333.5,-36 1333.5,0 1461.5,0 1461.5,-36"/>
<text text-anchor="middle" x="1397.5" y="-14.3" font-family="Times,serif" font-size="14.00">A:assumpHTCC</text>
</g>
<!-- nwtnCoolingRC&#45;&gt;assumpHTCC -->
<g id="edge5" class="edge">
<title>nwtnCoolingRC&#45;&gt;assumpHTCC</title>
<path fill="none" stroke="black" d="M1375.67,-71.7C1378.93,-63.81 1382.87,-54.3 1386.5,-45.55"/>
<polygon fill="black" stroke="black" points="1389.82,-46.68 1390.41,-36.1 1383.35,-44 1389.82,-46.68"/>
</g>
<!-- rocTempSimpRC -->
<g id="node10" class="node">
<title>rocTempSimpRC</title>
<polygon fill="palegreen" stroke="black" points="950.5,-180 808.5,-180 808.5,-144 950.5,-144 950.5,-180"/>
<text text-anchor="middle" x="879.5" y="-158.3" font-family="Times,serif" font-size="14.00">GD:rocTempSimp</text>
</g>
<!-- rocTempSimpRC&#45;&gt;consThermECS -->
<g id="edge9" class="edge">
<title>rocTempSimpRC&#45;&gt;consThermECS</title>
<path fill="none" stroke="black" d="M867.63,-143.7C862,-135.47 855.15,-125.48 848.93,-116.42"/>
<polygon fill="black" stroke="black" points="851.77,-114.37 843.23,-108.1 846,-118.33 851.77,-114.37"/>
</g>
<!-- rocTempSimpRC&#45;&gt;rocTempSimpRC -->
<g id="edge10" class="edge">
<title>rocTempSimpRC&#45;&gt;rocTempSimpRC</title>
<path fill="none" stroke="black" d="M950.73,-174.25C961.33,-172.34 968.5,-168.26 968.5,-162 968.5,-157.99 965.56,-154.88 960.65,-152.65"/>
<polygon fill="black" stroke="black" points="961.31,-149.2 950.73,-149.75 959.34,-155.92 961.31,-149.2"/>
</g>
<!-- assumpCWTAT -->
<g id="node11" class="node">
<title>assumpCWTAT</title>
<polygon fill="mistyrose" stroke="black" points="995,-36 858,-36 858,0 995,0 995,-36"/>
<text text-anchor="middle" x="926.5" y="-14.3" font-family="Times,serif" font-size="14.00">A:assumpCWTAT</text>
</g>
<!-- rocTempSimpRC&#45;&gt;assumpCWTAT -->
<g id="edge6" class="edge">
<title>rocTempSimpRC&#45;&gt;assumpCWTAT</title>
<path fill="none" stroke="black" d="M890.09,-143.89C895.96,-133.77 902.96,-120.52 907.5,-108 914.81,-87.86 919.71,-64.08 922.7,-46.17"/>
<polygon fill="black" stroke="black" points="926.18,-46.54 924.28,-36.12 919.27,-45.45 926.18,-46.54"/>
</g>
<!-- assumpDWCoW -->
<g id="node12" class="node">
<title>assumpDWCoW</title>
<polygon fill="mistyrose" stroke="black" points="1157.5,-36 1013.5,-36 1013.5,0 1157.5,0 1157.5,-36"/>
<text text-anchor="middle" x="1085.5" y="-14.3" font-family="Times,serif" font-size="14.00">A:assumpDWCoW</text>
</g>
<!-- rocTempSimpRC&#45;&gt;assumpDWCoW -->
<g id="edge7" class="edge">
<title>rocTempSimpRC&#45;&gt;assumpDWCoW</title>
<path fill="none" stroke="black" d="M904.35,-143.87C941.31,-118.39 1010.86,-70.45 1052.19,-41.96"/>
<polygon fill="black" stroke="black" points="1054.32,-44.75 1060.56,-36.19 1050.34,-38.98 1054.32,-44.75"/>
</g>
<!-- assumpSHECoW -->
<g id="node13" class="node">
<title>assumpSHECoW</title>
<polygon fill="mistyrose" stroke="black" points="705,-36 554,-36 554,0 705,0 705,-36"/>
<text text-anchor="middle" x="629.5" y="-14.3" font-family="Times,serif" font-size="14.00">A:assumpSHECoW</text>
</g>
<!-- rocTempSimpRC&#45;&gt;assumpSHECoW -->
<g id="edge8" class="edge">
<title>rocTempSimpRC&#45;&gt;assumpSHECoW</title>
<path fill="none" stroke="black" d="M830.77,-144C807.23,-134.84 779.04,-122.45 755.5,-108 734.26,-94.96 732.6,-86.74 712.5,-72 698,-61.37 681.4,-50.53 666.88,-41.44"/>
<polygon fill="black" stroke="black" points="668.49,-38.32 658.15,-36.03 664.81,-44.27 668.49,-38.32"/>
</g>
<!-- htFluxC -->
<g id="node14" class="node">
<title>htFluxC</title>
<polygon fill="palegreen" stroke="black" points="1402,-180 1203,-180 1203,-144 1402,-144 1402,-180"/>
<text text-anchor="middle" x="1302.5" y="-158.3" font-family="Times,serif" font-size="14.00">GD:htFluxWaterFromCoil</text>
</g>
<!-- htFluxC&#45;&gt;nwtnCoolingRC -->
<g id="edge13" class="edge">
<title>htFluxC&#45;&gt;nwtnCoolingRC</title>
<path fill="none" stroke="black" d="M1318.81,-143.7C1326.81,-135.22 1336.57,-124.86 1345.32,-115.58"/>
<polygon fill="black" stroke="black" points="1348.06,-117.78 1352.37,-108.1 1342.97,-112.98 1348.06,-117.78"/>
</g>
<!-- assumpLCCCW -->
<g id="node15" class="node">
<title>assumpLCCCW</title>
<polygon fill="mistyrose" stroke="black" points="1315.5,-36 1175.5,-36 1175.5,0 1315.5,0 1315.5,-36"/>
<text text-anchor="middle" x="1245.5" y="-14.3" font-family="Times,serif" font-size="14.00">A:assumpLCCCW</text>
</g>
<!-- htFluxC&#45;&gt;assumpLCCCW -->
<g id="edge11" class="edge">
<title>htFluxC&#45;&gt;assumpLCCCW</title>
<path fill="none" stroke="black" d="M1295.62,-143.87C1285.82,-119.46 1267.75,-74.43 1256.19,-45.64"/>
<polygon fill="black" stroke="black" points="1259.37,-44.17 1252.4,-36.19 1252.88,-46.77 1259.37,-44.17"/>
</g>
<!-- assumpTHCCoT -->
<g id="node16" class="node">
<title>assumpTHCCoT</title>
<polygon fill="mistyrose" stroke="black" points="1625,-36 1480,-36 1480,0 1625,0 1625,-36"/>
<text text-anchor="middle" x="1552.5" y="-14.3" font-family="Times,serif" font-size="14.00">A:assumpTHCCoT</text>
</g>
<!-- htFluxC&#45;&gt;assumpTHCCoT -->
<g id="edge12" class="edge">
<title>htFluxC&#45;&gt;assumpTHCCoT</title>
<path fill="none" stroke="black" d="M1361.47,-143.89C1387.79,-135.03 1418.63,-122.92 1444.5,-108 1475.85,-89.91 1507.29,-62.74 1528.09,-43.18"/>
<polygon fill="black" stroke="black" points="1530.7,-45.52 1535.52,-36.09 1525.87,-40.46 1530.7,-45.52"/>
</g>
<!-- eBalanceOnWtrRC -->
<g id="node17" class="node">
<title>eBalanceOnWtrRC</title>
<polygon fill="#fff68f" stroke="black" points="955.5,-252 803.5,-252 803.5,-216 955.5,-216 955.5,-252"/>
<text text-anchor="middle" x="879.5" y="-230.3" font-family="Times,serif" font-size="14.00">IM:eBalanceOnWtr</text>
</g>
<!-- eBalanceOnWtrRC&#45;&gt;assumpWAL -->
<g id="edge14" class="edge">
<title>eBalanceOnWtrRC&#45;&gt;assumpWAL</title>
<path fill="none" stroke="black" d="M803.09,-218.62C771.6,-210.46 735.72,-198.14 706.5,-180 687.8,-168.39 691.05,-155.84 672.5,-144 629.84,-116.79 612.41,-124.28 564.5,-108 496.25,-84.81 418.01,-57.63 365.96,-39.46"/>
<polygon fill="black" stroke="black" points="366.83,-36.06 356.23,-36.07 364.52,-42.67 366.83,-36.06"/>
</g>
<!-- eBalanceOnWtrRC&#45;&gt;rocTempSimpRC -->
<g id="edge18" class="edge">
<title>eBalanceOnWtrRC&#45;&gt;rocTempSimpRC</title>
<path fill="none" stroke="black" d="M879.5,-215.7C879.5,-207.98 879.5,-198.71 879.5,-190.11"/>
<polygon fill="black" stroke="black" points="883,-190.1 879.5,-180.1 876,-190.1 883,-190.1"/>
</g>
<!-- eBalanceOnWtrRC&#45;&gt;htFluxC -->
<g id="edge19" class="edge">
<title>eBalanceOnWtrRC&#45;&gt;htFluxC</title>
<path fill="none" stroke="black" d="M955.61,-220.4C1021.74,-209.46 1118.33,-193.48 1192.81,-181.15"/>
<polygon fill="black" stroke="black" points="1193.41,-184.6 1202.7,-179.52 1192.26,-177.69 1193.41,-184.6"/>
</g>
<!-- assumpPIT -->
<g id="node18" class="node">
<title>assumpPIT</title>
<polygon fill="mistyrose" stroke="black" points="1753.5,-36 1643.5,-36 1643.5,0 1753.5,0 1753.5,-36"/>
<text text-anchor="middle" x="1698.5" y="-14.3" font-family="Times,serif" font-size="14.00">A:assumpPIT</text>
</g>
<!-- eBalanceOnWtrRC&#45;&gt;assumpPIT -->
<g id="edge15" class="edge">
<title>eBalanceOnWtrRC&#45;&gt;assumpPIT</title>
<path fill="none" stroke="black" d="M955.66,-229.23C1081.64,-222.35 1327.7,-206.03 1410.5,-180 1511.49,-148.25 1616.76,-78.44 1667.5,-42.06"/>
<polygon fill="black" stroke="black" points="1669.69,-44.79 1675.75,-36.1 1665.59,-39.12 1669.69,-44.79"/>
</g>
<!-- assumpNIHGBW -->
<g id="node19" class="node">
<title>assumpNIHGBW</title>
<polygon fill="mistyrose" stroke="black" points="536,-36 385,-36 385,0 536,0 536,-36"/>
<text text-anchor="middle" x="460.5" y="-14.3" font-family="Times,serif" font-size="14.00">A:assumpNIHGBW</text>
</g>
<!-- eBalanceOnWtrRC&#45;&gt;assumpNIHGBW -->
<g id="edge16" class="edge">
<title>eBalanceOnWtrRC&#45;&gt;assumpNIHGBW</title>
<path fill="none" stroke="black" d="M846.36,-215.89C811.56,-197.93 755.22,-168.91 706.5,-144 635.37,-107.63 552.53,-65.61 503.41,-40.72"/>
<polygon fill="black" stroke="black" points="504.85,-37.53 494.35,-36.13 501.69,-43.77 504.85,-37.53"/>
</g>
<!-- tauW -->
<g id="node20" class="node">
<title>tauW</title>
<polygon fill="#bbffff" stroke="black" points="664,-180 489,-180 489,-144 664,-144 664,-180"/>
<text text-anchor="middle" x="576.5" y="-158.3" font-family="Times,serif" font-size="14.00">DD:balanceDecayRate</text>
</g>
<!-- eBalanceOnWtrRC&#45;&gt;tauW -->
<g id="edge17" class="edge">
<title>eBalanceOnWtrRC&#45;&gt;tauW</title>
<path fill="none" stroke="black" d="M805.77,-215.97C761.78,-205.8 705.8,-192.87 660.17,-182.33"/>
<polygon fill="black" stroke="black" points="660.83,-178.89 650.3,-180.05 659.26,-185.71 660.83,-178.89"/>
</g>
<!-- heatEInWtrRC -->
<g id="node21" class="node">
<title>heatEInWtrRC</title>
<polygon fill="#fff68f" stroke="black" points="218.5,-252 94.5,-252 94.5,-216 218.5,-216 218.5,-252"/>
<text text-anchor="middle" x="156.5" y="-230.3" font-family="Times,serif" font-size="14.00">IM:heatEInWtr</text>
</g>
<!-- heatEInWtrRC&#45;&gt;sensHeat -->
<g id="edge22" class="edge">
<title>heatEInWtrRC&#45;&gt;sensHeat</title>
<path fill="none" stroke="black" d="M164.94,-215.87C177.03,-191.35 199.37,-146.03 213.56,-117.26"/>
<polygon fill="black" stroke="black" points="216.74,-118.71 218.03,-108.19 210.47,-115.61 216.74,-118.71"/>
</g>
<!-- heatEInWtrRC&#45;&gt;assumpWAL -->
<g id="edge20" class="edge">
<title>heatEInWtrRC&#45;&gt;assumpWAL</title>
<path fill="none" stroke="black" d="M182.01,-215.9C212.05,-194.37 261.18,-154.51 287.5,-108 298.26,-88.99 303.23,-64.63 305.53,-46.2"/>
<polygon fill="black" stroke="black" points="309.02,-46.43 306.59,-36.12 302.06,-45.7 309.02,-46.43"/>
</g>
<!-- assumpAPT -->
<g id="node22" class="node">
<title>assumpAPT</title>
<polygon fill="mistyrose" stroke="black" points="202.5,-36 88.5,-36 88.5,0 202.5,0 202.5,-36"/>
<text text-anchor="middle" x="145.5" y="-14.3" font-family="Times,serif" font-size="14.00">A:assumpAPT</text>
</g>
<!-- heatEInWtrRC&#45;&gt;assumpAPT -->
<g id="edge21" class="edge">
<title>heatEInWtrRC&#45;&gt;assumpAPT</title>
<path fill="none" stroke="black" d="M155.62,-215.85C153.72,-178.83 149.21,-91.18 146.91,-46.39"/>
<polygon fill="black" stroke="black" points="150.39,-46.04 146.39,-36.23 143.4,-46.4 150.39,-46.04"/>
</g>
<!-- findMass -->
<g id="node23" class="node">
<title>findMass</title>
<polygon fill="ivory" stroke="black" points="1866.5,-324 1760.5,-324 1760.5,-288 1866.5,-288 1866.5,-324"/>
<text text-anchor="middle" x="1813.5" y="-302.3" font-family="Times,serif" font-size="14.00">FR:findMass</text>
</g>
<!-- findMass&#45;&gt;wVol -->
<g id="edge24" class="edge">
<title>findMass&#45;&gt;wVol</title>
<path fill="none" stroke="black" d="M1812.78,-287.87C1811.75,-263.67 1809.88,-219.21 1808.66,-190.39"/>
<polygon fill="black" stroke="black" points="1812.15,-190.03 1808.23,-180.19 1805.15,-190.33 1812.15,-190.03"/>
</g>
<!-- findMass&#45;&gt;tankVol -->
<g id="edge25" class="edge">
<title>findMass&#45;&gt;tankVol</title>
<path fill="none" stroke="black" d="M1834.13,-287.87C1864.55,-262.6 1921.57,-215.25 1955.99,-186.68"/>
<polygon fill="black" stroke="black" points="1958.34,-189.27 1963.8,-180.19 1953.87,-183.89 1958.34,-189.27"/>
</g>
<!-- findMass&#45;&gt;eBalanceOnWtrRC -->
<g id="edge26" class="edge">
<title>findMass&#45;&gt;eBalanceOnWtrRC</title>
<path fill="none" stroke="black" d="M1760.39,-289.86C1757.06,-289.16 1753.74,-288.53 1750.5,-288 1465.77,-241.42 1122.65,-234.81 965.58,-234.48"/>
<polygon fill="black" stroke="black" points="965.52,-230.98 955.51,-234.47 965.51,-237.98 965.52,-230.98"/>
</g>
<!-- wMass -->
<g id="node24" class="node">
<title>wMass</title>
<polygon fill="#bbffff" stroke="black" points="2188.5,-180 2066.5,-180 2066.5,-144 2188.5,-144 2188.5,-180"/>
<text text-anchor="middle" x="2127.5" y="-158.3" font-family="Times,serif" font-size="14.00">DD:waterMass</text>
</g>
<!-- findMass&#45;&gt;wMass -->
<g id="edge23" class="edge">
<title>findMass&#45;&gt;wMass</title>
<path fill="none" stroke="black" d="M1851.38,-287.87C1908.78,-261.91 2017.73,-212.64 2080.24,-184.37"/>
<polygon fill="black" stroke="black" points="2081.82,-187.5 2089.49,-180.19 2078.94,-181.12 2081.82,-187.5"/>
</g>
<!-- inputInitVals -->
<g id="node25" class="node">
<title>inputInitVals</title>
<polygon fill="ivory" stroke="black" points="2018,-324 1885,-324 1885,-288 2018,-288 2018,-324"/>
<text text-anchor="middle" x="1951.5" y="-302.3" font-family="Times,serif" font-size="14.00">FR:inputInitVals</text>
</g>
<!-- findMass&#45;&gt;inputInitVals -->
<g id="edge27" class="edge">
<title>findMass&#45;&gt;inputInitVals</title>
<path fill="none" stroke="black" d="M1866.6,-306C1869.26,-306 1871.92,-306 1874.58,-306"/>
<polygon fill="black" stroke="black" points="1874.84,-309.5 1884.84,-306 1874.84,-302.5 1874.84,-309.5"/>
</g>
<!-- outputInputDerivVals -->
<g id="node26" class="node">
<title>outputInputDerivVals</title>
<polygon fill="ivory" stroke="black" points="722,-324 527,-324 527,-288 722,-288 722,-324"/>
<text text-anchor="middle" x="624.5" y="-302.3" font-family="Times,serif" font-size="14.00">FR:outputInputDerivVals</text>
</g>
<!-- outputInputDerivVals&#45;&gt;tauW -->
<g id="edge28" class="edge">
<title>outputInputDerivVals&#45;&gt;tauW</title>
<path fill="none" stroke="black" d="M618.71,-287.87C610.49,-263.56 595.37,-218.82 585.63,-190.01"/>
<polygon fill="black" stroke="black" points="588.83,-188.54 582.31,-180.19 582.2,-190.78 588.83,-188.54"/>
</g>
<!-- outputInputDerivVals&#45;&gt;findMass -->
<g id="edge30" class="edge">
<title>outputInputDerivVals&#45;&gt;findMass</title>
<path fill="none" stroke="black" d="M671.43,-324.09C692.25,-331.19 717.25,-338.48 740.5,-342 850.47,-358.67 1633.25,-367.55 1741.5,-342 1753.18,-339.24 1765.12,-334.29 1775.84,-328.92"/>
<polygon fill="black" stroke="black" points="1777.69,-331.9 1784.9,-324.13 1774.42,-325.7 1777.69,-331.9"/>
</g>
<!-- outputInputDerivVals&#45;&gt;inputInitVals -->
<g id="edge29" class="edge">
<title>outputInputDerivVals&#45;&gt;inputInitVals</title>
<path fill="none" stroke="black" d="M671.43,-324.09C692.25,-331.19 717.25,-338.48 740.5,-342 864.2,-360.75 1743.89,-366.89 1866.5,-342 1880.53,-339.15 1895.11,-333.91 1908.16,-328.29"/>
<polygon fill="black" stroke="black" points="1909.67,-331.45 1917.36,-324.16 1906.81,-325.06 1909.67,-331.45"/>
</g>
<!-- calcTempWtrOverTime -->
<g id="node27" class="node">
<title>calcTempWtrOverTime</title>
<polygon fill="ivory" stroke="black" points="1120,-324 915,-324 915,-288 1120,-288 1120,-324"/>
<text text-anchor="middle" x="1017.5" y="-302.3" font-family="Times,serif" font-size="14.00">FR:calcTempWtrOverTime</text>
</g>
<!-- calcTempWtrOverTime&#45;&gt;eBalanceOnWtrRC -->
<g id="edge31" class="edge">
<title>calcTempWtrOverTime&#45;&gt;eBalanceOnWtrRC</title>
<path fill="none" stroke="black" d="M983.74,-287.88C965.28,-278.51 942.22,-266.81 922.48,-256.8"/>
<polygon fill="black" stroke="black" points="923.89,-253.59 913.39,-252.19 920.72,-259.83 923.89,-253.59"/>
</g>
<!-- calcChgHeatEnergyWtrOverTime -->
<g id="node28" class="node">
<title>calcChgHeatEnergyWtrOverTime</title>
<polygon fill="ivory" stroke="black" points="281,-324 0,-324 0,-288 281,-288 281,-324"/>
<text text-anchor="middle" x="140.5" y="-302.3" font-family="Times,serif" font-size="14.00">FR:calcChgHeatEnergyWtrOverTime</text>
</g>
<!-- calcChgHeatEnergyWtrOverTime&#45;&gt;heatEInWtrRC -->
<g id="edge32" class="edge">
<title>calcChgHeatEnergyWtrOverTime&#45;&gt;heatEInWtrRC</title>
<path fill="none" stroke="black" d="M144.46,-287.7C146.22,-279.98 148.34,-270.71 150.3,-262.11"/>
<polygon fill="black" stroke="black" points="153.77,-262.63 152.59,-252.1 146.95,-261.07 153.77,-262.63"/>
</g>
<!-- likeChgTCVOD -->
<g id="node29" class="node">
<title>likeChgTCVOD</title>
<polygon fill="lavender" stroke="black" points="1598.5,-324 1452.5,-324 1452.5,-288 1598.5,-288 1598.5,-324"/>
<text text-anchor="middle" x="1525.5" y="-302.3" font-family="Times,serif" font-size="14.00">LC:likeChgTCVOD</text>
</g>
<!-- likeChgTCVOD&#45;&gt;assumpTHCCoT -->
<g id="edge33" class="edge">
<title>likeChgTCVOD&#45;&gt;assumpTHCCoT</title>
<path fill="none" stroke="black" d="M1527.11,-287.97C1531.62,-240.19 1544.42,-104.62 1549.93,-46.27"/>
<polygon fill="black" stroke="black" points="1553.41,-46.59 1550.87,-36.31 1546.44,-45.93 1553.41,-46.59"/>
</g>
<!-- likeChgTCVOL -->
<g id="node30" class="node">
<title>likeChgTCVOL</title>
<polygon fill="lavender" stroke="black" points="2288.5,-324 2144.5,-324 2144.5,-288 2288.5,-288 2288.5,-324"/>
<text text-anchor="middle" x="2216.5" y="-302.3" font-family="Times,serif" font-size="14.00">LC:likeChgTCVOL</text>
</g>
<!-- assumpTHCCoL -->
<g id="node31" class="node">
<title>assumpTHCCoL</title>
<polygon fill="mistyrose" stroke="black" points="2289,-36 2144,-36 2144,0 2289,0 2289,-36"/>
<text text-anchor="middle" x="2216.5" y="-14.3" font-family="Times,serif" font-size="14.00">A:assumpTHCCoL</text>
</g>
<!-- likeChgTCVOL&#45;&gt;assumpTHCCoL -->
<g id="edge34" class="edge">
<title>likeChgTCVOL&#45;&gt;assumpTHCCoL</title>
<path fill="none" stroke="black" d="M2216.5,-287.97C2216.5,-240.29 2216.5,-105.18 2216.5,-46.63"/>
<polygon fill="black" stroke="black" points="2220,-46.31 2216.5,-36.31 2213,-46.31 2220,-46.31"/>
</g>
<!-- likeChgDT -->
<g id="node32" class="node">
<title>likeChgDT</title>
<polygon fill="lavender" stroke="black" points="2433,-324 2318,-324 2318,-288 2433,-288 2433,-324"/>
<text text-anchor="middle" x="2375.5" y="-302.3" font-family="Times,serif" font-size="14.00">LC:likeChgDT</text>
</g>
<!-- assumpCTNTD -->
<g id="node33" class="node">
<title>assumpCTNTD</title>
<polygon fill="mistyrose" stroke="black" points="2444,-36 2307,-36 2307,0 2444,0 2444,-36"/>
<text text-anchor="middle" x="2375.5" y="-14.3" font-family="Times,serif" font-size="14.00">A:assumpCTNTD</text>
</g>
<!-- likeChgDT&#45;&gt;assumpCTNTD -->
<g id="edge35" class="edge">
<title>likeChgDT&#45;&gt;assumpCTNTD</title>
<path fill="none" stroke="black" d="M2375.5,-287.97C2375.5,-240.29 2375.5,-105.18 2375.5,-46.63"/>
<polygon fill="black" stroke="black" points="2379,-46.31 2375.5,-36.31 2372,-46.31 2379,-46.31"/>
</g>
<!-- likeChgTLH -->
<g id="node34" class="node">
<title>likeChgTLH</title>
<polygon fill="lavender" stroke="black" points="1742,-324 1617,-324 1617,-288 1742,-288 1742,-324"/>
<text text-anchor="middle" x="1679.5" y="-302.3" font-family="Times,serif" font-size="14.00">LC:likeChgTLH</text>
</g>
<!-- likeChgTLH&#45;&gt;assumpPIT -->
<g id="edge36" class="edge">
<title>likeChgTLH&#45;&gt;assumpPIT</title>
<path fill="none" stroke="black" d="M1680.63,-287.97C1683.8,-240.29 1692.77,-105.18 1696.66,-46.63"/>
<polygon fill="black" stroke="black" points="1700.18,-46.52 1697.35,-36.31 1693.2,-46.05 1700.18,-46.52"/>
</g>
<!-- unlikeChgWFS -->
<g id="node35" class="node">
<title>unlikeChgWFS</title>
<polygon fill="lavender" stroke="black" points="448,-324 299,-324 299,-288 448,-288 448,-324"/>
<text text-anchor="middle" x="373.5" y="-302.3" font-family="Times,serif" font-size="14.00">UC:unlikeChgWFS</text>
</g>
<!-- unlikeChgWFS&#45;&gt;assumpWAL -->
<g id="edge37" class="edge">
<title>unlikeChgWFS&#45;&gt;assumpWAL</title>
<path fill="none" stroke="black" d="M369.57,-287.97C358.54,-240.19 327.26,-104.62 313.79,-46.27"/>
<polygon fill="black" stroke="black" points="317.15,-45.26 311.49,-36.31 310.33,-46.84 317.15,-45.26"/>
</g>
<!-- unlikeChgNIHG -->
<g id="node36" class="node">
<title>unlikeChgNIHG</title>
<polygon fill="lavender" stroke="black" points="896.5,-324 740.5,-324 740.5,-288 896.5,-288 896.5,-324"/>
<text text-anchor="middle" x="818.5" y="-302.3" font-family="Times,serif" font-size="14.00">UC:unlikeChgNIHG</text>
</g>
<!-- unlikeChgNIHG&#45;&gt;eBalanceOnWtrRC -->
<g id="edge39" class="edge">
<title>unlikeChgNIHG&#45;&gt;eBalanceOnWtrRC</title>
<path fill="none" stroke="black" d="M833.58,-287.7C840.89,-279.3 849.81,-269.07 857.84,-259.86"/>
<polygon fill="black" stroke="black" points="860.66,-261.94 864.59,-252.1 855.39,-257.34 860.66,-261.94"/>
</g>
<!-- unlikeChgNIHG&#45;&gt;assumpNIHGBW -->
<g id="edge38" class="edge">
<title>unlikeChgNIHG&#45;&gt;assumpNIHGBW</title>
<path fill="none" stroke="black" d="M746.84,-287.93C657.75,-265.2 513.28,-222.86 479.5,-180 449.18,-141.54 451.3,-80.98 455.77,-46.14"/>
<polygon fill="black" stroke="black" points="459.24,-46.59 457.2,-36.2 452.31,-45.6 459.24,-46.59"/>
</g>
<!-- checkWithPhysConsts -->
<g id="node37" class="node">
<title>checkWithPhysConsts</title>
<polygon fill="ivory" stroke="black" points="2650,-324 2451,-324 2451,-288 2650,-288 2650,-324"/>
<text text-anchor="middle" x="2550.5" y="-302.3" font-family="Times,serif" font-size="14.00">FR:checkWithPhysConsts</text>
</g>
<!-- correct -->
<g id="node38" class="node">
<title>correct</title>
<polygon fill="ivory" stroke="black" points="2772.5,-324 2668.5,-324 2668.5,-288 2772.5,-288 2772.5,-324"/>
<text text-anchor="middle" x="2720.5" y="-302.3" font-family="Times,serif" font-size="14.00">NFR:correct</text>
</g>
<!-- verifiable -->
<g id="node39" class="node">
<title>verifiable</title>
<polygon fill="ivory" stroke="black" points="2910.5,-324 2790.5,-324 2790.5,-288 2910.5,-288 2910.5,-324"/>
<text text-anchor="middle" x="2850.5" y="-302.3" font-family="Times,serif" font-size="14.00">NFR:verifiable</text>
</g>
<!-- understandable -->
<g id="node40" class="node">
<title>understandable</title>
<polygon fill="ivory" stroke="black" points="3094,-324 2929,-324 2929,-288 3094,-288 3094,-324"/>
<text text-anchor="middle" x="3011.5" y="-302.3" font-family="Times,serif" font-size="14.00">NFR:understandable</text>
</g>
<!-- reusable -->
<g id="node41" class="node">
<title>reusable</title>
<polygon fill="ivory" stroke="black" points="3227,-324 3112,-324 3112,-288 3227,-288 3227,-324"/>
<text text-anchor="middle" x="3169.5" y="-302.3" font-family="Times,serif" font-size="14.00">NFR:reusable</text>
</g>
<!-- maintainable -->
<g id="node42" class="node">
<title>maintainable</title>
<polygon fill="ivory" stroke="black" points="3391.5,-324 3245.5,-324 3245.5,-288 3391.5,-288 3391.5,-324"/>
<text text-anchor="middle" x="3318.5" y="-302.3" font-family="Times,serif" font-size="14.00">NFR:maintainable</text>
</g>
<!-- waterTempGS -->
<g id="node43" class="node">
<title>waterTempGS</title>
<polygon fill="#ffb90f" stroke="black" points="3553,-324 3410,-324 3410,-288 3553,-288 3553,-324"/>
<text text-anchor="middle" x="3481.5" y="-302.3" font-family="Times,serif" font-size="14.00">GS:waterTempGS</text>
</g>
<!-- waterEnergyGS -->
<g id="node44" class="node">
<title>waterEnergyGS</title>
<polygon fill="#ffb90f" stroke="black" points="3727.5,-324 3571.5,-324 3571.5,-288 3727.5,-288 3727.5,-324"/>
<text text-anchor="middle" x="3649.5" y="-302.3" font-family="Times,serif" font-size="14.00">GS:waterEnergyGS</text>
</g>
</g>
</svg>
