<?xml version="1.0" encoding="UTF-8" standalone="no"?>
<!DOCTYPE svg PUBLIC "-//W3C//DTD SVG 1.1//EN"
 "http://www.w3.org/Graphics/SVG/1.1/DTD/svg11.dtd">
<!-- Generated by graphviz version 2.43.0 (0)
 -->
<!-- Title: allvsr Pages: 1 -->
<svg width="5086pt" height="116pt"
 viewBox="0.00 0.00 5086.00 116.00" xmlns="http://www.w3.org/2000/svg" xmlns:xlink="http://www.w3.org/1999/xlink">
<g id="graph0" class="graph" transform="scale(1 1) rotate(0) translate(4 112)">
<title>allvsr</title>
<polygon fill="white" stroke="transparent" points="-4,4 -4,-112 5082,-112 5082,4 -4,4"/>
<!-- calcAng -->
<g id="node1" class="node">
<title>calcAng</title>
<polygon fill="ivory" stroke="black" points="117,-108 20,-108 20,-72 117,-72 117,-108"/>
<text text-anchor="middle" x="68.5" y="-86.3" font-family="Times,serif" font-size="14.00">FR:calcAng</text>
</g>
<!-- angleIM1 -->
<g id="node2" class="node">
<title>angleIM1</title>
<polygon fill="#fff68f" stroke="black" points="127,-36 0,-36 0,0 127,0 127,-36"/>
<text text-anchor="middle" x="63.5" y="-14.3" font-family="Times,serif" font-size="14.00">IM:calOfAngle1</text>
</g>
<!-- calcAng&#45;&gt;angleIM1 -->
<g id="edge1" class="edge">
<title>calcAng&#45;&gt;angleIM1</title>
<path fill="none" stroke="black" d="M67.26,-71.7C66.71,-63.98 66.05,-54.71 65.44,-46.11"/>
<polygon fill="black" stroke="black" points="68.93,-45.83 64.72,-36.1 61.94,-46.33 68.93,-45.83"/>
</g>
<!-- angleIM2 -->
<g id="node3" class="node">
<title>angleIM2</title>
<polygon fill="#fff68f" stroke="black" points="272,-36 145,-36 145,0 272,0 272,-36"/>
<text text-anchor="middle" x="208.5" y="-14.3" font-family="Times,serif" font-size="14.00">IM:calOfAngle2</text>
</g>
<!-- calcAng&#45;&gt;angleIM2 -->
<g id="edge2" class="edge">
<title>calcAng&#45;&gt;angleIM2</title>
<path fill="none" stroke="black" d="M102.75,-71.88C121.56,-62.47 145.08,-50.71 165.17,-40.67"/>
<polygon fill="black" stroke="black" points="166.74,-43.79 174.12,-36.19 163.61,-37.53 166.74,-43.79"/>
</g>
<!-- outputValues -->
<g id="node4" class="node">
<title>outputValues</title>
<polygon fill="ivory" stroke="black" points="273,-108 138,-108 138,-72 273,-72 273,-108"/>
<text text-anchor="middle" x="205.5" y="-86.3" font-family="Times,serif" font-size="14.00">FR:outputValues</text>
</g>
<!-- outputValues&#45;&gt;angleIM1 -->
<g id="edge3" class="edge">
<title>outputValues&#45;&gt;angleIM1</title>
<path fill="none" stroke="black" d="M170.76,-71.88C151.68,-62.47 127.82,-50.71 107.45,-40.67"/>
<polygon fill="black" stroke="black" points="108.89,-37.47 98.37,-36.19 105.79,-43.75 108.89,-37.47"/>
</g>
<!-- outputValues&#45;&gt;angleIM2 -->
<g id="edge4" class="edge">
<title>outputValues&#45;&gt;angleIM2</title>
<path fill="none" stroke="black" d="M206.24,-71.7C206.57,-63.98 206.97,-54.71 207.34,-46.11"/>
<polygon fill="black" stroke="black" points="210.84,-46.25 207.77,-36.1 203.84,-45.95 210.84,-46.25"/>
</g>
<!-- twoDMotion -->
<g id="node5" class="node">
<title>twoDMotion</title>
<polygon fill="mistyrose" stroke="black" points="410,-108 291,-108 291,-72 410,-72 410,-108"/>
<text text-anchor="middle" x="350.5" y="-86.3" font-family="Times,serif" font-size="14.00">A:twoDMotion</text>
</g>
<!-- cartSys -->
<g id="node6" class="node">
<title>cartSys</title>
<polygon fill="mistyrose" stroke="black" points="513,-108 428,-108 428,-72 513,-72 513,-108"/>
<text text-anchor="middle" x="470.5" y="-86.3" font-family="Times,serif" font-size="14.00">A:cartSys</text>
</g>
<!-- cartSysR -->
<g id="node7" class="node">
<title>cartSysR</title>
<polygon fill="mistyrose" stroke="black" points="626,-108 531,-108 531,-72 626,-72 626,-108"/>
<text text-anchor="middle" x="578.5" y="-86.3" font-family="Times,serif" font-size="14.00">A:cartSysR</text>
</g>
<!-- yAxisDir -->
<g id="node8" class="node">
<title>yAxisDir</title>
<polygon fill="mistyrose" stroke="black" points="736.5,-108 644.5,-108 644.5,-72 736.5,-72 736.5,-108"/>
<text text-anchor="middle" x="690.5" y="-86.3" font-family="Times,serif" font-size="14.00">A:yAxisDir</text>
</g>
<!-- startOrigin -->
<g id="node9" class="node">
<title>startOrigin</title>
<polygon fill="mistyrose" stroke="black" points="864.5,-108 754.5,-108 754.5,-72 864.5,-72 864.5,-108"/>
<text text-anchor="middle" x="809.5" y="-86.3" font-family="Times,serif" font-size="14.00">A:startOrigin</text>
</g>
<!-- firstPend -->
<g id="node10" class="node">
<title>firstPend</title>
<polygon fill="mistyrose" stroke="black" points="978,-108 883,-108 883,-72 978,-72 978,-108"/>
<text text-anchor="middle" x="930.5" y="-86.3" font-family="Times,serif" font-size="14.00">A:firstPend</text>
</g>
<!-- secondPend -->
<g id="node11" class="node">
<title>secondPend</title>
<polygon fill="mistyrose" stroke="black" points="1112.5,-108 996.5,-108 996.5,-72 1112.5,-72 1112.5,-108"/>
<text text-anchor="middle" x="1054.5" y="-86.3" font-family="Times,serif" font-size="14.00">A:secondPend</text>
</g>
<!-- velocity -->
<g id="node12" class="node">
<title>velocity</title>
<polygon fill="#bbffff" stroke="black" points="1264.5,-108 1130.5,-108 1130.5,-72 1264.5,-72 1264.5,-108"/>
<text text-anchor="middle" x="1197.5" y="-86.3" font-family="Times,serif" font-size="14.00">DD:positionGDD</text>
</g>
<!-- p_x1 -->
<g id="node13" class="node">
<title>p_x1</title>
<polygon fill="#bbffff" stroke="black" points="1424.5,-108 1282.5,-108 1282.5,-72 1424.5,-72 1424.5,-108"/>
<text text-anchor="middle" x="1353.5" y="-86.3" font-family="Times,serif" font-size="14.00">DD:positionXDD1</text>
</g>
<!-- p_y1 -->
<g id="node14" class="node">
<title>p_y1</title>
<polygon fill="#bbffff" stroke="black" points="1584,-108 1443,-108 1443,-72 1584,-72 1584,-108"/>
<text text-anchor="middle" x="1513.5" y="-86.3" font-family="Times,serif" font-size="14.00">DD:positionYDD1</text>
</g>
<!-- p_x2 -->
<g id="node15" class="node">
<title>p_x2</title>
<polygon fill="#bbffff" stroke="black" points="1744.5,-108 1602.5,-108 1602.5,-72 1744.5,-72 1744.5,-108"/>
<text text-anchor="middle" x="1673.5" y="-86.3" font-family="Times,serif" font-size="14.00">DD:positionXDD2</text>
</g>
<!-- p_y2 -->
<g id="node16" class="node">
<title>p_y2</title>
<polygon fill="#bbffff" stroke="black" points="1904,-108 1763,-108 1763,-72 1904,-72 1904,-108"/>
<text text-anchor="middle" x="1833.5" y="-86.3" font-family="Times,serif" font-size="14.00">DD:positionYDD2</text>
</g>
<!-- acceleration -->
<g id="node17" class="node">
<title>acceleration</title>
<polygon fill="#bbffff" stroke="black" points="2086.5,-108 1922.5,-108 1922.5,-72 2086.5,-72 2086.5,-108"/>
<text text-anchor="middle" x="2004.5" y="-86.3" font-family="Times,serif" font-size="14.00">DD:accelerationGDD</text>
</g>
<!-- force -->
<g id="node18" class="node">
<title>force</title>
<polygon fill="#bbffff" stroke="black" points="2218,-108 2105,-108 2105,-72 2218,-72 2218,-108"/>
<text text-anchor="middle" x="2161.5" y="-86.3" font-family="Times,serif" font-size="14.00">DD:forceGDD</text>
</g>
<!-- accelerationTM -->
<g id="node19" class="node">
<title>accelerationTM</title>
<polygon fill="pink" stroke="black" points="2367,-108 2236,-108 2236,-72 2367,-72 2367,-108"/>
<text text-anchor="middle" x="2301.5" y="-86.3" font-family="Times,serif" font-size="14.00">TM:acceleration</text>
</g>
<!-- velocityTM -->
<g id="node20" class="node">
<title>velocityTM</title>
<polygon fill="pink" stroke="black" points="2485.5,-108 2385.5,-108 2385.5,-72 2485.5,-72 2485.5,-108"/>
<text text-anchor="middle" x="2435.5" y="-86.3" font-family="Times,serif" font-size="14.00">TM:velocity</text>
</g>
<!-- newtonSL -->
<g id="node21" class="node">
<title>newtonSL</title>
<polygon fill="pink" stroke="black" points="2687,-108 2504,-108 2504,-72 2687,-72 2687,-108"/>
<text text-anchor="middle" x="2595.5" y="-86.3" font-family="Times,serif" font-size="14.00">TM:NewtonSecLawMot</text>
</g>
<!-- v_x1 -->
<g id="node22" class="node">
<title>v_x1</title>
<polygon fill="palegreen" stroke="black" points="2823.5,-108 2705.5,-108 2705.5,-72 2823.5,-72 2823.5,-108"/>
<text text-anchor="middle" x="2764.5" y="-86.3" font-family="Times,serif" font-size="14.00">GD:velocityX1</text>
</g>
<!-- v_y1 -->
<g id="node23" class="node">
<title>v_y1</title>
<polygon fill="palegreen" stroke="black" points="2959,-108 2842,-108 2842,-72 2959,-72 2959,-108"/>
<text text-anchor="middle" x="2900.5" y="-86.3" font-family="Times,serif" font-size="14.00">GD:velocityY1</text>
</g>
<!-- v_x2 -->
<g id="node24" class="node">
<title>v_x2</title>
<polygon fill="palegreen" stroke="black" points="3095.5,-108 2977.5,-108 2977.5,-72 3095.5,-72 3095.5,-108"/>
<text text-anchor="middle" x="3036.5" y="-86.3" font-family="Times,serif" font-size="14.00">GD:velocityX2</text>
</g>
<!-- v_y2 -->
<g id="node25" class="node">
<title>v_y2</title>
<polygon fill="palegreen" stroke="black" points="3231,-108 3114,-108 3114,-72 3231,-72 3231,-108"/>
<text text-anchor="middle" x="3172.5" y="-86.3" font-family="Times,serif" font-size="14.00">GD:velocityY2</text>
</g>
<!-- a_x1 -->
<g id="node26" class="node">
<title>a_x1</title>
<polygon fill="palegreen" stroke="black" points="3398,-108 3249,-108 3249,-72 3398,-72 3398,-108"/>
<text text-anchor="middle" x="3323.5" y="-86.3" font-family="Times,serif" font-size="14.00">GD:accelerationX1</text>
</g>
<!-- a_y1 -->
<g id="node27" class="node">
<title>a_y1</title>
<polygon fill="palegreen" stroke="black" points="3565,-108 3416,-108 3416,-72 3565,-72 3565,-108"/>
<text text-anchor="middle" x="3490.5" y="-86.3" font-family="Times,serif" font-size="14.00">GD:accelerationY1</text>
</g>
<!-- a_x2 -->
<g id="node28" class="node">
<title>a_x2</title>
<polygon fill="palegreen" stroke="black" points="3732,-108 3583,-108 3583,-72 3732,-72 3732,-108"/>
<text text-anchor="middle" x="3657.5" y="-86.3" font-family="Times,serif" font-size="14.00">GD:accelerationX2</text>
</g>
<!-- a_y2 -->
<g id="node29" class="node">
<title>a_y2</title>
<polygon fill="palegreen" stroke="black" points="3899,-108 3750,-108 3750,-72 3899,-72 3899,-108"/>
<text text-anchor="middle" x="3824.5" y="-86.3" font-family="Times,serif" font-size="14.00">GD:accelerationY2</text>
</g>
<!-- xForce1 -->
<g id="node30" class="node">
<title>xForce1</title>
<polygon fill="palegreen" stroke="black" points="4018,-108 3917,-108 3917,-72 4018,-72 4018,-108"/>
<text text-anchor="middle" x="3967.5" y="-86.3" font-family="Times,serif" font-size="14.00">GD:xForce1</text>
</g>
<!-- yForce1 -->
<g id="node31" class="node">
<title>yForce1</title>
<polygon fill="palegreen" stroke="black" points="4137,-108 4036,-108 4036,-72 4137,-72 4137,-108"/>
<text text-anchor="middle" x="4086.5" y="-86.3" font-family="Times,serif" font-size="14.00">GD:yForce1</text>
</g>
<!-- xForce2 -->
<g id="node32" class="node">
<title>xForce2</title>
<polygon fill="palegreen" stroke="black" points="4256,-108 4155,-108 4155,-72 4256,-72 4256,-108"/>
<text text-anchor="middle" x="4205.5" y="-86.3" font-family="Times,serif" font-size="14.00">GD:xForce2</text>
</g>
<!-- yForce2 -->
<g id="node33" class="node">
<title>yForce2</title>
<polygon fill="palegreen" stroke="black" points="4375,-108 4274,-108 4274,-72 4375,-72 4375,-108"/>
<text text-anchor="middle" x="4324.5" y="-86.3" font-family="Times,serif" font-size="14.00">GD:yForce2</text>
</g>
<!-- inputValues -->
<g id="node34" class="node">
<title>inputValues</title>
<polygon fill="ivory" stroke="black" points="4518,-108 4393,-108 4393,-72 4518,-72 4518,-108"/>
<text text-anchor="middle" x="4455.5" y="-86.3" font-family="Times,serif" font-size="14.00">FR:inputValues</text>
</g>
<!-- verifyInptVals -->
<g id="node35" class="node">
<title>verifyInptVals</title>
<polygon fill="ivory" stroke="black" points="4677,-108 4536,-108 4536,-72 4677,-72 4677,-108"/>
<text text-anchor="middle" x="4606.5" y="-86.3" font-family="Times,serif" font-size="14.00">FR:verifyInptVals</text>
</g>
<!-- correct -->
<g id="node36" class="node">
<title>correct</title>
<polygon fill="ivory" stroke="black" points="4799.5,-108 4695.5,-108 4695.5,-72 4799.5,-72 4799.5,-108"/>
<text text-anchor="middle" x="4747.5" y="-86.3" font-family="Times,serif" font-size="14.00">NFR:correct</text>
</g>
<!-- portable -->
<g id="node37" class="node">
<title>portable</title>
<polygon fill="ivory" stroke="black" points="4931,-108 4818,-108 4818,-72 4931,-72 4931,-108"/>
<text text-anchor="middle" x="4874.5" y="-86.3" font-family="Times,serif" font-size="14.00">NFR:portable</text>
</g>
<!-- motionMass -->
<g id="node38" class="node">
<title>motionMass</title>
<polygon fill="#ffb90f" stroke="black" points="5078,-108 4949,-108 4949,-72 5078,-72 5078,-108"/>
<text text-anchor="middle" x="5013.5" y="-86.3" font-family="Times,serif" font-size="14.00">GS:motionMass</text>
</g>
</g>
</svg>
