<?xml version="1.0" encoding="UTF-8" standalone="no"?>
<!DOCTYPE svg PUBLIC "-//W3C//DTD SVG 1.1//EN"
 "http://www.w3.org/Graphics/SVG/1.1/DTD/svg11.dtd">
<!-- Generated by graphviz version 2.43.0 (0)
 -->
<!-- Title: allvsall Pages: 1 -->
<svg width="2302pt" height="260pt"
 viewBox="0.00 0.00 2301.50 260.00" xmlns="http://www.w3.org/2000/svg" xmlns:xlink="http://www.w3.org/1999/xlink">
<g id="graph0" class="graph" transform="scale(1 1) rotate(0) translate(4 256)">
<title>allvsall</title>
<polygon fill="white" stroke="transparent" points="-4,4 -4,-256 2297.5,-256 2297.5,4 -4,4"/>
<!-- theory -->
<g id="node1" class="node">
<title>theory</title>
<polygon fill="palegreen" stroke="black" points="219.5,-108 70.5,-108 70.5,-72 219.5,-72 219.5,-108"/>
<text text-anchor="middle" x="145" y="-86.3" font-family="Times,serif" font-size="14.00">GD:accelerationY2</text>
</g>
<!-- velocity -->
<g id="node2" class="node">
<title>velocity</title>
<polygon fill="#bbffff" stroke="black" points="134,-36 0,-36 0,0 134,0 134,-36"/>
<text text-anchor="middle" x="67" y="-14.3" font-family="Times,serif" font-size="14.00">DD:positionGDD</text>
</g>
<!-- theory&#45;&gt;velocity -->
<g id="edge1" class="edge">
<title>theory:v_x1&#45;&gt;velocity</title>
<path fill="none" stroke="black" d="M108.23,-71.88C96.12,-63.4 83.97,-53.02 75.07,-43.7"/>
<polygon fill="black" stroke="black" points="77.68,-41.37 68.44,-36.19 72.44,-46 77.68,-41.37"/>
</g>
<!-- theory&#45;&gt;velocity -->
<g id="edge3" class="edge">
<title>theory:v_y1&#45;&gt;velocity</title>
<path fill="none" stroke="black" d="M119.8,-71.7C109.38,-63.14 97.52,-52.66 87.62,-43.3"/>
<polygon fill="black" stroke="black" points="89.79,-40.53 80.16,-36.1 84.93,-45.57 89.79,-40.53"/>
</g>
<!-- theory&#45;&gt;velocity -->
<g id="edge5" class="edge">
<title>theory:v_x2&#45;&gt;velocity</title>
<path fill="none" stroke="black" d="M131.63,-71.7C122.81,-62.97 111.03,-52.24 99.89,-42.75"/>
<polygon fill="black" stroke="black" points="101.87,-39.84 91.95,-36.1 97.38,-45.21 101.87,-39.84"/>
</g>
<!-- theory&#45;&gt;velocity -->
<g id="edge7" class="edge">
<title>theory:v_y2&#45;&gt;velocity</title>
<path fill="none" stroke="black" d="M143.47,-71.7C136.3,-62.8 124.56,-51.82 112.04,-42.2"/>
<polygon fill="black" stroke="black" points="113.88,-39.2 103.74,-36.1 109.73,-44.85 113.88,-39.2"/>
</g>
<!-- p_x1 -->
<g id="node3" class="node">
<title>p_x1</title>
<polygon fill="#bbffff" stroke="black" points="294,-36 152,-36 152,0 294,0 294,-36"/>
<text text-anchor="middle" x="223" y="-14.3" font-family="Times,serif" font-size="14.00">DD:positionXDD1</text>
</g>
<!-- theory&#45;&gt;p_x1 -->
<g id="edge2" class="edge">
<title>theory:v_x1&#45;&gt;p_x1</title>
<path fill="none" stroke="black" d="M164.28,-71.7C173.92,-63.05 185.73,-52.45 196.23,-43.03"/>
<polygon fill="black" stroke="black" points="198.84,-45.39 203.94,-36.1 194.16,-40.18 198.84,-45.39"/>
</g>
<!-- p_y1 -->
<g id="node4" class="node">
<title>p_y1</title>
<polygon fill="#bbffff" stroke="black" points="453.5,-36 312.5,-36 312.5,0 453.5,0 453.5,-36"/>
<text text-anchor="middle" x="383" y="-14.3" font-family="Times,serif" font-size="14.00">DD:positionYDD1</text>
</g>
<!-- theory&#45;&gt;p_y1 -->
<g id="edge4" class="edge">
<title>theory:v_y1&#45;&gt;p_y1</title>
<path fill="none" stroke="black" d="M202.92,-71.97C236.75,-62.01 279.62,-49.41 315.04,-38.99"/>
<polygon fill="black" stroke="black" points="316.22,-42.29 324.82,-36.11 314.24,-35.57 316.22,-42.29"/>
</g>
<!-- p_x2 -->
<g id="node5" class="node">
<title>p_x2</title>
<polygon fill="#bbffff" stroke="black" points="614,-36 472,-36 472,0 614,0 614,-36"/>
<text text-anchor="middle" x="543" y="-14.3" font-family="Times,serif" font-size="14.00">DD:positionXDD2</text>
</g>
<!-- theory&#45;&gt;p_x2 -->
<g id="edge6" class="edge">
<title>theory:v_x2&#45;&gt;p_x2</title>
<path fill="none" stroke="black" d="M219.62,-73.71C222.79,-73.12 225.92,-72.55 229,-72 329.46,-54.12 357.8,-54.88 461.96,-36.13"/>
<polygon fill="black" stroke="black" points="462.73,-39.55 471.94,-34.32 461.48,-32.66 462.73,-39.55"/>
</g>
<!-- p_y2 -->
<g id="node6" class="node">
<title>p_y2</title>
<polygon fill="#bbffff" stroke="black" points="773.5,-36 632.5,-36 632.5,0 773.5,0 773.5,-36"/>
<text text-anchor="middle" x="703" y="-14.3" font-family="Times,serif" font-size="14.00">DD:positionYDD2</text>
</g>
<!-- theory&#45;&gt;p_y2 -->
<g id="edge8" class="edge">
<title>theory:v_y2&#45;&gt;p_y2</title>
<path fill="none" stroke="black" d="M219.58,-73.47C222.76,-72.95 225.91,-72.45 229,-72 399.76,-47 447.38,-61.75 622.35,-35.98"/>
<polygon fill="black" stroke="black" points="623.04,-39.41 632.41,-34.47 622,-32.49 623.04,-39.41"/>
</g>
<!-- angleIM1 -->
<g id="node7" class="node">
<title>angleIM1</title>
<polygon fill="#fff68f" stroke="black" points="135.5,-180 8.5,-180 8.5,-144 135.5,-144 135.5,-180"/>
<text text-anchor="middle" x="72" y="-158.3" font-family="Times,serif" font-size="14.00">IM:calOfAngle1</text>
</g>
<!-- angleIM2 -->
<g id="node8" class="node">
<title>angleIM2</title>
<polygon fill="#fff68f" stroke="black" points="280.5,-180 153.5,-180 153.5,-144 280.5,-144 280.5,-180"/>
<text text-anchor="middle" x="217" y="-158.3" font-family="Times,serif" font-size="14.00">IM:calOfAngle2</text>
</g>
<!-- angleIM1&#45;&gt;angleIM2 -->
<g id="edge9" class="edge">
<title>angleIM1&#45;&gt;angleIM2</title>
<path fill="none" stroke="black" d="M135.72,-148.7C138.18,-148.59 140.63,-148.52 143.09,-148.51"/>
<polygon fill="black" stroke="black" points="143.12,-152.01 153.18,-148.69 143.25,-145.01 143.12,-152.01"/>
</g>
<!-- angleIM2&#45;&gt;theory -->
<g id="edge10" class="edge">
<title>angleIM2&#45;&gt;theory:a_x1</title>
<path fill="none" stroke="black" d="M181.46,-143.7C170.34,-135.39 159.35,-125.28 151.34,-116.14"/>
<polygon fill="black" stroke="black" points="153.89,-113.72 144.91,-108.1 148.42,-118.1 153.89,-113.72"/>
</g>
<!-- angleIM2&#45;&gt;theory -->
<g id="edge11" class="edge">
<title>angleIM2&#45;&gt;theory:a_y1</title>
<path fill="none" stroke="black" d="M193.29,-143.7C183.69,-135.22 172.85,-124.86 163.81,-115.58"/>
<polygon fill="black" stroke="black" points="166.12,-112.94 156.7,-108.1 161.05,-117.76 166.12,-112.94"/>
</g>
<!-- angleIM2&#45;&gt;theory -->
<g id="edge12" class="edge">
<title>angleIM2&#45;&gt;theory:a_x2</title>
<path fill="none" stroke="black" d="M205.12,-143.7C197.12,-135.05 186.39,-124.45 176.16,-115.03"/>
<polygon fill="black" stroke="black" points="178.26,-112.21 168.49,-108.1 173.57,-117.4 178.26,-112.21"/>
</g>
<!-- angleIM2&#45;&gt;theory -->
<g id="edge13" class="edge">
<title>angleIM2&#45;&gt;theory:a_y2</title>
<path fill="none" stroke="black" d="M216.95,-143.7C210.61,-134.88 199.95,-124.03 188.39,-114.47"/>
<polygon fill="black" stroke="black" points="190.3,-111.53 180.28,-108.1 185.98,-117.03 190.3,-111.53"/>
</g>
<!-- angleIM2&#45;&gt;angleIM1 -->
<g id="edge18" class="edge">
<title>angleIM2&#45;&gt;angleIM1</title>
<path fill="none" stroke="black" d="M153.18,-175.31C150.73,-175.42 148.27,-175.48 145.82,-175.5"/>
<polygon fill="black" stroke="black" points="145.79,-171.99 135.72,-175.3 145.65,-178.99 145.79,-171.99"/>
</g>
<!-- angleIM2&#45;&gt;angleIM2 -->
<g id="edge19" class="edge">
<title>angleIM2&#45;&gt;angleIM2</title>
<path fill="none" stroke="black" d="M280.56,-174.55C291.17,-172.79 298.5,-168.61 298.5,-162 298.5,-157.77 295.49,-154.53 290.54,-152.29"/>
<polygon fill="black" stroke="black" points="291.13,-148.82 280.56,-149.45 289.22,-155.55 291.13,-148.82"/>
</g>
<!-- xForce1 -->
<g id="node9" class="node">
<title>xForce1</title>
<polygon fill="palegreen" stroke="black" points="338.5,-108 237.5,-108 237.5,-72 338.5,-72 338.5,-108"/>
<text text-anchor="middle" x="288" y="-86.3" font-family="Times,serif" font-size="14.00">GD:xForce1</text>
</g>
<!-- angleIM2&#45;&gt;xForce1 -->
<g id="edge14" class="edge">
<title>angleIM2&#45;&gt;xForce1</title>
<path fill="none" stroke="black" d="M234.55,-143.7C243.23,-135.14 253.86,-124.66 263.35,-115.3"/>
<polygon fill="black" stroke="black" points="265.99,-117.62 270.65,-108.1 261.07,-112.63 265.99,-117.62"/>
</g>
<!-- yForce1 -->
<g id="node10" class="node">
<title>yForce1</title>
<polygon fill="palegreen" stroke="black" points="457.5,-108 356.5,-108 356.5,-72 457.5,-72 457.5,-108"/>
<text text-anchor="middle" x="407" y="-86.3" font-family="Times,serif" font-size="14.00">GD:yForce1</text>
</g>
<!-- angleIM2&#45;&gt;yForce1 -->
<g id="edge15" class="edge">
<title>angleIM2&#45;&gt;yForce1</title>
<path fill="none" stroke="black" d="M263.48,-143.88C289.92,-134.14 323.2,-121.87 351.06,-111.61"/>
<polygon fill="black" stroke="black" points="352.5,-114.81 360.67,-108.07 350.08,-108.24 352.5,-114.81"/>
</g>
<!-- xForce2 -->
<g id="node11" class="node">
<title>xForce2</title>
<polygon fill="palegreen" stroke="black" points="576.5,-108 475.5,-108 475.5,-72 576.5,-72 576.5,-108"/>
<text text-anchor="middle" x="526" y="-86.3" font-family="Times,serif" font-size="14.00">GD:xForce2</text>
</g>
<!-- angleIM2&#45;&gt;xForce2 -->
<g id="edge16" class="edge">
<title>angleIM2&#45;&gt;xForce2</title>
<path fill="none" stroke="black" d="M280.74,-148.8C329.05,-139.25 397.29,-125.12 465.2,-108.37"/>
<polygon fill="black" stroke="black" points="466.35,-111.69 475.21,-105.88 464.66,-104.9 466.35,-111.69"/>
</g>
<!-- yForce2 -->
<g id="node12" class="node">
<title>yForce2</title>
<polygon fill="palegreen" stroke="black" points="695.5,-108 594.5,-108 594.5,-72 695.5,-72 695.5,-108"/>
<text text-anchor="middle" x="645" y="-86.3" font-family="Times,serif" font-size="14.00">GD:yForce2</text>
</g>
<!-- angleIM2&#45;&gt;yForce2 -->
<g id="edge17" class="edge">
<title>angleIM2&#45;&gt;yForce2</title>
<path fill="none" stroke="black" d="M280.81,-154.54C352.58,-146.67 472.72,-131.68 584.2,-108.24"/>
<polygon fill="black" stroke="black" points="585.21,-111.61 594.26,-106.1 583.75,-104.76 585.21,-111.61"/>
</g>
<!-- calcAng -->
<g id="node13" class="node">
<title>calcAng</title>
<polygon fill="ivory" stroke="black" points="125.5,-252 28.5,-252 28.5,-216 125.5,-216 125.5,-252"/>
<text text-anchor="middle" x="77" y="-230.3" font-family="Times,serif" font-size="14.00">FR:calcAng</text>
</g>
<!-- calcAng&#45;&gt;angleIM1 -->
<g id="edge20" class="edge">
<title>calcAng&#45;&gt;angleIM1</title>
<path fill="none" stroke="black" d="M75.76,-215.7C75.21,-207.98 74.55,-198.71 73.94,-190.11"/>
<polygon fill="black" stroke="black" points="77.43,-189.83 73.22,-180.1 70.44,-190.33 77.43,-189.83"/>
</g>
<!-- calcAng&#45;&gt;angleIM2 -->
<g id="edge21" class="edge">
<title>calcAng&#45;&gt;angleIM2</title>
<path fill="none" stroke="black" d="M111.25,-215.88C130.06,-206.47 153.58,-194.71 173.67,-184.67"/>
<polygon fill="black" stroke="black" points="175.24,-187.79 182.62,-180.19 172.11,-181.53 175.24,-187.79"/>
</g>
<!-- outputValues -->
<g id="node14" class="node">
<title>outputValues</title>
<polygon fill="ivory" stroke="black" points="281.5,-252 146.5,-252 146.5,-216 281.5,-216 281.5,-252"/>
<text text-anchor="middle" x="214" y="-230.3" font-family="Times,serif" font-size="14.00">FR:outputValues</text>
</g>
<!-- outputValues&#45;&gt;angleIM1 -->
<g id="edge22" class="edge">
<title>outputValues&#45;&gt;angleIM1</title>
<path fill="none" stroke="black" d="M179.26,-215.88C160.18,-206.47 136.32,-194.71 115.95,-184.67"/>
<polygon fill="black" stroke="black" points="117.39,-181.47 106.87,-180.19 114.29,-187.75 117.39,-181.47"/>
</g>
<!-- outputValues&#45;&gt;angleIM2 -->
<g id="edge23" class="edge">
<title>outputValues&#45;&gt;angleIM2</title>
<path fill="none" stroke="black" d="M214.74,-215.7C215.07,-207.98 215.47,-198.71 215.84,-190.11"/>
<polygon fill="black" stroke="black" points="219.34,-190.25 216.27,-180.1 212.34,-189.95 219.34,-190.25"/>
</g>
<!-- twoDMotion -->
<g id="node15" class="node">
<title>twoDMotion</title>
<polygon fill="mistyrose" stroke="black" points="418.5,-252 299.5,-252 299.5,-216 418.5,-216 418.5,-252"/>
<text text-anchor="middle" x="359" y="-230.3" font-family="Times,serif" font-size="14.00">A:twoDMotion</text>
</g>
<!-- cartSys -->
<g id="node16" class="node">
<title>cartSys</title>
<polygon fill="mistyrose" stroke="black" points="521.5,-252 436.5,-252 436.5,-216 521.5,-216 521.5,-252"/>
<text text-anchor="middle" x="479" y="-230.3" font-family="Times,serif" font-size="14.00">A:cartSys</text>
</g>
<!-- cartSysR -->
<g id="node17" class="node">
<title>cartSysR</title>
<polygon fill="mistyrose" stroke="black" points="634.5,-252 539.5,-252 539.5,-216 634.5,-216 634.5,-252"/>
<text text-anchor="middle" x="587" y="-230.3" font-family="Times,serif" font-size="14.00">A:cartSysR</text>
</g>
<!-- yAxisDir -->
<g id="node18" class="node">
<title>yAxisDir</title>
<polygon fill="mistyrose" stroke="black" points="745,-252 653,-252 653,-216 745,-216 745,-252"/>
<text text-anchor="middle" x="699" y="-230.3" font-family="Times,serif" font-size="14.00">A:yAxisDir</text>
</g>
<!-- startOrigin -->
<g id="node19" class="node">
<title>startOrigin</title>
<polygon fill="mistyrose" stroke="black" points="873,-252 763,-252 763,-216 873,-216 873,-252"/>
<text text-anchor="middle" x="818" y="-230.3" font-family="Times,serif" font-size="14.00">A:startOrigin</text>
</g>
<!-- firstPend -->
<g id="node20" class="node">
<title>firstPend</title>
<polygon fill="mistyrose" stroke="black" points="986.5,-252 891.5,-252 891.5,-216 986.5,-216 986.5,-252"/>
<text text-anchor="middle" x="939" y="-230.3" font-family="Times,serif" font-size="14.00">A:firstPend</text>
</g>
<!-- secondPend -->
<g id="node21" class="node">
<title>secondPend</title>
<polygon fill="mistyrose" stroke="black" points="1121,-252 1005,-252 1005,-216 1121,-216 1121,-252"/>
<text text-anchor="middle" x="1063" y="-230.3" font-family="Times,serif" font-size="14.00">A:secondPend</text>
</g>
<!-- acceleration -->
<g id="node22" class="node">
<title>acceleration</title>
<polygon fill="#bbffff" stroke="black" points="956,-36 792,-36 792,0 956,0 956,-36"/>
<text text-anchor="middle" x="874" y="-14.3" font-family="Times,serif" font-size="14.00">DD:accelerationGDD</text>
</g>
<!-- force -->
<g id="node23" class="node">
<title>force</title>
<polygon fill="#bbffff" stroke="black" points="1087.5,-36 974.5,-36 974.5,0 1087.5,0 1087.5,-36"/>
<text text-anchor="middle" x="1031" y="-14.3" font-family="Times,serif" font-size="14.00">DD:forceGDD</text>
</g>
<!-- accelerationTM -->
<g id="node24" class="node">
<title>accelerationTM</title>
<polygon fill="pink" stroke="black" points="1270.5,-252 1139.5,-252 1139.5,-216 1270.5,-216 1270.5,-252"/>
<text text-anchor="middle" x="1205" y="-230.3" font-family="Times,serif" font-size="14.00">TM:acceleration</text>
</g>
<!-- velocityTM -->
<g id="node25" class="node">
<title>velocityTM</title>
<polygon fill="pink" stroke="black" points="1389,-252 1289,-252 1289,-216 1389,-216 1389,-252"/>
<text text-anchor="middle" x="1339" y="-230.3" font-family="Times,serif" font-size="14.00">TM:velocity</text>
</g>
<!-- newtonSL -->
<g id="node26" class="node">
<title>newtonSL</title>
<polygon fill="pink" stroke="black" points="1590.5,-252 1407.5,-252 1407.5,-216 1590.5,-216 1590.5,-252"/>
<text text-anchor="middle" x="1499" y="-230.3" font-family="Times,serif" font-size="14.00">TM:NewtonSecLawMot</text>
</g>
<!-- inputValues -->
<g id="node27" class="node">
<title>inputValues</title>
<polygon fill="ivory" stroke="black" points="1733.5,-252 1608.5,-252 1608.5,-216 1733.5,-216 1733.5,-252"/>
<text text-anchor="middle" x="1671" y="-230.3" font-family="Times,serif" font-size="14.00">FR:inputValues</text>
</g>
<!-- verifyInptVals -->
<g id="node28" class="node">
<title>verifyInptVals</title>
<polygon fill="ivory" stroke="black" points="1892.5,-252 1751.5,-252 1751.5,-216 1892.5,-216 1892.5,-252"/>
<text text-anchor="middle" x="1822" y="-230.3" font-family="Times,serif" font-size="14.00">FR:verifyInptVals</text>
</g>
<!-- correct -->
<g id="node29" class="node">
<title>correct</title>
<polygon fill="ivory" stroke="black" points="2015,-252 1911,-252 1911,-216 2015,-216 2015,-252"/>
<text text-anchor="middle" x="1963" y="-230.3" font-family="Times,serif" font-size="14.00">NFR:correct</text>
</g>
<!-- portable -->
<g id="node30" class="node">
<title>portable</title>
<polygon fill="ivory" stroke="black" points="2146.5,-252 2033.5,-252 2033.5,-216 2146.5,-216 2146.5,-252"/>
<text text-anchor="middle" x="2090" y="-230.3" font-family="Times,serif" font-size="14.00">NFR:portable</text>
</g>
<!-- motionMass -->
<g id="node31" class="node">
<title>motionMass</title>
<polygon fill="#ffb90f" stroke="black" points="2293.5,-252 2164.5,-252 2164.5,-216 2293.5,-216 2293.5,-252"/>
<text text-anchor="middle" x="2229" y="-230.3" font-family="Times,serif" font-size="14.00">GS:motionMass</text>
</g>
</g>
</svg>
