<?xml version="1.0" encoding="UTF-8" standalone="no"?>
<!DOCTYPE svg PUBLIC "-//W3C//DTD SVG 1.1//EN"
 "http://www.w3.org/Graphics/SVG/1.1/DTD/svg11.dtd">
<!-- Generated by graphviz version 2.43.0 (0)
 -->
<!-- Title: allvsall Pages: 1 -->
<svg width="3466pt" height="260pt"
 viewBox="0.00 0.00 3466.00 260.00" xmlns="http://www.w3.org/2000/svg" xmlns:xlink="http://www.w3.org/1999/xlink">
<g id="graph0" class="graph" transform="scale(1 1) rotate(0) translate(4 256)">
<title>allvsall</title>
<polygon fill="white" stroke="transparent" points="-4,4 -4,-256 3462,-256 3462,4 -4,4"/>
<!-- v_x1 -->
<g id="node1" class="node">
<title>v_x1</title>
<polygon fill="palegreen" stroke="black" points="716.5,-108 598.5,-108 598.5,-72 716.5,-72 716.5,-108"/>
<text text-anchor="middle" x="657.5" y="-86.3" font-family="Times,serif" font-size="14.00">GD:velocityX1</text>
</g>
<!-- velocity -->
<g id="node2" class="node">
<title>velocity</title>
<polygon fill="#bbffff" stroke="black" points="453.5,-36 319.5,-36 319.5,0 453.5,0 453.5,-36"/>
<text text-anchor="middle" x="386.5" y="-14.3" font-family="Times,serif" font-size="14.00">DD:positionGDD</text>
</g>
<!-- v_x1&#45;&gt;velocity -->
<g id="edge1" class="edge">
<title>v_x1&#45;&gt;velocity</title>
<path fill="none" stroke="black" d="M598.36,-73.72C558.48,-63.42 505.51,-49.74 462.5,-38.63"/>
<polygon fill="black" stroke="black" points="463.2,-35.2 452.65,-36.09 461.45,-41.98 463.2,-35.2"/>
</g>
<!-- p_x1 -->
<g id="node3" class="node">
<title>p_x1</title>
<polygon fill="#bbffff" stroke="black" points="773.5,-36 631.5,-36 631.5,0 773.5,0 773.5,-36"/>
<text text-anchor="middle" x="702.5" y="-14.3" font-family="Times,serif" font-size="14.00">DD:positionXDD1</text>
</g>
<!-- v_x1&#45;&gt;p_x1 -->
<g id="edge2" class="edge">
<title>v_x1&#45;&gt;p_x1</title>
<path fill="none" stroke="black" d="M668.62,-71.7C673.86,-63.56 680.2,-53.69 685.98,-44.7"/>
<polygon fill="black" stroke="black" points="689.04,-46.41 691.5,-36.1 683.15,-42.62 689.04,-46.41"/>
</g>
<!-- v_y1 -->
<g id="node4" class="node">
<title>v_y1</title>
<polygon fill="palegreen" stroke="black" points="151,-108 34,-108 34,-72 151,-72 151,-108"/>
<text text-anchor="middle" x="92.5" y="-86.3" font-family="Times,serif" font-size="14.00">GD:velocityY1</text>
</g>
<!-- v_y1&#45;&gt;velocity -->
<g id="edge3" class="edge">
<title>v_y1&#45;&gt;velocity</title>
<path fill="none" stroke="black" d="M151.29,-75C196.67,-64.2 259.86,-49.15 309.32,-37.38"/>
<polygon fill="black" stroke="black" points="310.41,-40.71 319.33,-34.99 308.79,-33.9 310.41,-40.71"/>
</g>
<!-- p_y1 -->
<g id="node5" class="node">
<title>p_y1</title>
<polygon fill="#bbffff" stroke="black" points="141,-36 0,-36 0,0 141,0 141,-36"/>
<text text-anchor="middle" x="70.5" y="-14.3" font-family="Times,serif" font-size="14.00">DD:positionYDD1</text>
</g>
<!-- v_y1&#45;&gt;p_y1 -->
<g id="edge4" class="edge">
<title>v_y1&#45;&gt;p_y1</title>
<path fill="none" stroke="black" d="M87.06,-71.7C84.61,-63.9 81.66,-54.51 78.93,-45.83"/>
<polygon fill="black" stroke="black" points="82.21,-44.59 75.88,-36.1 75.54,-46.69 82.21,-44.59"/>
</g>
<!-- v_x2 -->
<g id="node6" class="node">
<title>v_x2</title>
<polygon fill="palegreen" stroke="black" points="299.5,-108 181.5,-108 181.5,-72 299.5,-72 299.5,-108"/>
<text text-anchor="middle" x="240.5" y="-86.3" font-family="Times,serif" font-size="14.00">GD:velocityX2</text>
</g>
<!-- v_x2&#45;&gt;velocity -->
<g id="edge5" class="edge">
<title>v_x2&#45;&gt;velocity</title>
<path fill="none" stroke="black" d="M276.22,-71.88C296,-62.39 320.77,-50.51 341.83,-40.42"/>
<polygon fill="black" stroke="black" points="343.4,-43.55 350.9,-36.07 340.37,-37.24 343.4,-43.55"/>
</g>
<!-- p_x2 -->
<g id="node7" class="node">
<title>p_x2</title>
<polygon fill="#bbffff" stroke="black" points="301.5,-36 159.5,-36 159.5,0 301.5,0 301.5,-36"/>
<text text-anchor="middle" x="230.5" y="-14.3" font-family="Times,serif" font-size="14.00">DD:positionXDD2</text>
</g>
<!-- v_x2&#45;&gt;p_x2 -->
<g id="edge6" class="edge">
<title>v_x2&#45;&gt;p_x2</title>
<path fill="none" stroke="black" d="M238.03,-71.7C236.93,-63.98 235.6,-54.71 234.37,-46.11"/>
<polygon fill="black" stroke="black" points="237.82,-45.51 232.94,-36.1 230.89,-46.5 237.82,-45.51"/>
</g>
<!-- v_y2 -->
<g id="node8" class="node">
<title>v_y2</title>
<polygon fill="palegreen" stroke="black" points="490,-108 373,-108 373,-72 490,-72 490,-108"/>
<text text-anchor="middle" x="431.5" y="-86.3" font-family="Times,serif" font-size="14.00">GD:velocityY2</text>
</g>
<!-- v_y2&#45;&gt;velocity -->
<g id="edge7" class="edge">
<title>v_y2&#45;&gt;velocity</title>
<path fill="none" stroke="black" d="M420.38,-71.7C415.14,-63.56 408.8,-53.69 403.02,-44.7"/>
<polygon fill="black" stroke="black" points="405.85,-42.62 397.5,-36.1 399.96,-46.41 405.85,-42.62"/>
</g>
<!-- p_y2 -->
<g id="node9" class="node">
<title>p_y2</title>
<polygon fill="#bbffff" stroke="black" points="613,-36 472,-36 472,0 613,0 613,-36"/>
<text text-anchor="middle" x="542.5" y="-14.3" font-family="Times,serif" font-size="14.00">DD:positionYDD2</text>
</g>
<!-- v_y2&#45;&gt;p_y2 -->
<g id="edge8" class="edge">
<title>v_y2&#45;&gt;p_y2</title>
<path fill="none" stroke="black" d="M458.65,-71.88C473.03,-62.81 490.88,-51.55 506.41,-41.76"/>
<polygon fill="black" stroke="black" points="508.65,-44.48 515.24,-36.19 504.92,-38.56 508.65,-44.48"/>
</g>
<!-- angleIM1 -->
<g id="node10" class="node">
<title>angleIM1</title>
<polygon fill="#fff68f" stroke="black" points="1300,-180 1173,-180 1173,-144 1300,-144 1300,-180"/>
<text text-anchor="middle" x="1236.5" y="-158.3" font-family="Times,serif" font-size="14.00">IM:calOfAngle1</text>
</g>
<!-- angleIM2 -->
<g id="node11" class="node">
<title>angleIM2</title>
<polygon fill="#fff68f" stroke="black" points="1445,-180 1318,-180 1318,-144 1445,-144 1445,-180"/>
<text text-anchor="middle" x="1381.5" y="-158.3" font-family="Times,serif" font-size="14.00">IM:calOfAngle2</text>
</g>
<!-- angleIM1&#45;&gt;angleIM2 -->
<g id="edge9" class="edge">
<title>angleIM1&#45;&gt;angleIM2</title>
<path fill="none" stroke="black" d="M1300.22,-148.7C1302.68,-148.59 1305.13,-148.52 1307.59,-148.51"/>
<polygon fill="black" stroke="black" points="1307.62,-152.01 1317.68,-148.69 1307.75,-145.01 1307.62,-152.01"/>
</g>
<!-- angleIM2&#45;&gt;angleIM1 -->
<g id="edge18" class="edge">
<title>angleIM2&#45;&gt;angleIM1</title>
<path fill="none" stroke="black" d="M1317.68,-175.31C1315.23,-175.42 1312.77,-175.48 1310.32,-175.5"/>
<polygon fill="black" stroke="black" points="1310.29,-171.99 1300.22,-175.3 1310.15,-178.99 1310.29,-171.99"/>
</g>
<!-- angleIM2&#45;&gt;angleIM2 -->
<g id="edge19" class="edge">
<title>angleIM2&#45;&gt;angleIM2</title>
<path fill="none" stroke="black" d="M1445.06,-174.55C1455.67,-172.79 1463,-168.61 1463,-162 1463,-157.77 1459.99,-154.53 1455.04,-152.29"/>
<polygon fill="black" stroke="black" points="1455.63,-148.82 1445.06,-149.45 1453.72,-155.55 1455.63,-148.82"/>
</g>
<!-- a_x1 -->
<g id="node12" class="node">
<title>a_x1</title>
<polygon fill="palegreen" stroke="black" points="884,-108 735,-108 735,-72 884,-72 884,-108"/>
<text text-anchor="middle" x="809.5" y="-86.3" font-family="Times,serif" font-size="14.00">GD:accelerationX1</text>
</g>
<!-- angleIM2&#45;&gt;a_x1 -->
<g id="edge10" class="edge">
<title>angleIM2&#45;&gt;a_x1</title>
<path fill="none" stroke="black" d="M1318,-145.48C1315.13,-144.94 1312.29,-144.45 1309.5,-144 1129.05,-115.07 1078.37,-134.01 894.11,-108.13"/>
<polygon fill="black" stroke="black" points="894.48,-104.65 884.08,-106.7 893.49,-111.58 894.48,-104.65"/>
</g>
<!-- a_y1 -->
<g id="node13" class="node">
<title>a_y1</title>
<polygon fill="palegreen" stroke="black" points="1051,-108 902,-108 902,-72 1051,-72 1051,-108"/>
<text text-anchor="middle" x="976.5" y="-86.3" font-family="Times,serif" font-size="14.00">GD:accelerationY1</text>
</g>
<!-- angleIM2&#45;&gt;a_y1 -->
<g id="edge11" class="edge">
<title>angleIM2&#45;&gt;a_y1</title>
<path fill="none" stroke="black" d="M1317.96,-145.67C1315.11,-145.09 1312.28,-144.53 1309.5,-144 1202.33,-123.67 1171.81,-127.05 1061.01,-108.21"/>
<polygon fill="black" stroke="black" points="1061.57,-104.75 1051.12,-106.5 1060.38,-111.65 1061.57,-104.75"/>
</g>
<!-- a_x2 -->
<g id="node14" class="node">
<title>a_x2</title>
<polygon fill="palegreen" stroke="black" points="1218,-108 1069,-108 1069,-72 1218,-72 1218,-108"/>
<text text-anchor="middle" x="1143.5" y="-86.3" font-family="Times,serif" font-size="14.00">GD:accelerationX2</text>
</g>
<!-- angleIM2&#45;&gt;a_x2 -->
<g id="edge12" class="edge">
<title>angleIM2&#45;&gt;a_x2</title>
<path fill="none" stroke="black" d="M1323.58,-143.97C1289.75,-134.01 1246.88,-121.41 1211.46,-110.99"/>
<polygon fill="black" stroke="black" points="1212.26,-107.57 1201.68,-108.11 1210.28,-114.29 1212.26,-107.57"/>
</g>
<!-- a_y2 -->
<g id="node15" class="node">
<title>a_y2</title>
<polygon fill="palegreen" stroke="black" points="1385,-108 1236,-108 1236,-72 1385,-72 1385,-108"/>
<text text-anchor="middle" x="1310.5" y="-86.3" font-family="Times,serif" font-size="14.00">GD:accelerationY2</text>
</g>
<!-- angleIM2&#45;&gt;a_y2 -->
<g id="edge13" class="edge">
<title>angleIM2&#45;&gt;a_y2</title>
<path fill="none" stroke="black" d="M1363.95,-143.7C1355.27,-135.14 1344.64,-124.66 1335.15,-115.3"/>
<polygon fill="black" stroke="black" points="1337.43,-112.63 1327.85,-108.1 1332.51,-117.62 1337.43,-112.63"/>
</g>
<!-- xForce1 -->
<g id="node16" class="node">
<title>xForce1</title>
<polygon fill="palegreen" stroke="black" points="1504,-108 1403,-108 1403,-72 1504,-72 1504,-108"/>
<text text-anchor="middle" x="1453.5" y="-86.3" font-family="Times,serif" font-size="14.00">GD:xForce1</text>
</g>
<!-- angleIM2&#45;&gt;xForce1 -->
<g id="edge14" class="edge">
<title>angleIM2&#45;&gt;xForce1</title>
<path fill="none" stroke="black" d="M1399.3,-143.7C1408.1,-135.14 1418.88,-124.66 1428.5,-115.3"/>
<polygon fill="black" stroke="black" points="1431.18,-117.58 1435.91,-108.1 1426.3,-112.57 1431.18,-117.58"/>
</g>
<!-- yForce1 -->
<g id="node17" class="node">
<title>yForce1</title>
<polygon fill="palegreen" stroke="black" points="1623,-108 1522,-108 1522,-72 1623,-72 1623,-108"/>
<text text-anchor="middle" x="1572.5" y="-86.3" font-family="Times,serif" font-size="14.00">GD:yForce1</text>
</g>
<!-- angleIM2&#45;&gt;yForce1 -->
<g id="edge15" class="edge">
<title>angleIM2&#45;&gt;yForce1</title>
<path fill="none" stroke="black" d="M1428.22,-143.88C1454.8,-134.14 1488.26,-121.87 1516.27,-111.61"/>
<polygon fill="black" stroke="black" points="1517.74,-114.8 1525.93,-108.07 1515.33,-108.22 1517.74,-114.8"/>
</g>
<!-- xForce2 -->
<g id="node18" class="node">
<title>xForce2</title>
<polygon fill="palegreen" stroke="black" points="1742,-108 1641,-108 1641,-72 1742,-72 1742,-108"/>
<text text-anchor="middle" x="1691.5" y="-86.3" font-family="Times,serif" font-size="14.00">GD:xForce2</text>
</g>
<!-- angleIM2&#45;&gt;xForce2 -->
<g id="edge16" class="edge">
<title>angleIM2&#45;&gt;xForce2</title>
<path fill="none" stroke="black" d="M1445.23,-148.87C1493.75,-139.33 1562.39,-125.19 1630.65,-108.38"/>
<polygon fill="black" stroke="black" points="1631.85,-111.69 1640.71,-105.89 1630.17,-104.9 1631.85,-111.69"/>
</g>
<!-- yForce2 -->
<g id="node19" class="node">
<title>yForce2</title>
<polygon fill="palegreen" stroke="black" points="1861,-108 1760,-108 1760,-72 1861,-72 1861,-108"/>
<text text-anchor="middle" x="1810.5" y="-86.3" font-family="Times,serif" font-size="14.00">GD:yForce2</text>
</g>
<!-- angleIM2&#45;&gt;yForce2 -->
<g id="edge17" class="edge">
<title>angleIM2&#45;&gt;yForce2</title>
<path fill="none" stroke="black" d="M1445.15,-154.59C1517.08,-146.74 1637.74,-131.75 1749.66,-108.25"/>
<polygon fill="black" stroke="black" points="1750.71,-111.61 1759.76,-106.1 1749.25,-104.76 1750.71,-111.61"/>
</g>
<!-- calcAng -->
<g id="node20" class="node">
<title>calcAng</title>
<polygon fill="ivory" stroke="black" points="1290,-252 1193,-252 1193,-216 1290,-216 1290,-252"/>
<text text-anchor="middle" x="1241.5" y="-230.3" font-family="Times,serif" font-size="14.00">FR:calcAng</text>
</g>
<!-- calcAng&#45;&gt;angleIM1 -->
<g id="edge20" class="edge">
<title>calcAng&#45;&gt;angleIM1</title>
<path fill="none" stroke="black" d="M1240.26,-215.7C1239.71,-207.98 1239.05,-198.71 1238.44,-190.11"/>
<polygon fill="black" stroke="black" points="1241.93,-189.83 1237.72,-180.1 1234.94,-190.33 1241.93,-189.83"/>
</g>
<!-- calcAng&#45;&gt;angleIM2 -->
<g id="edge21" class="edge">
<title>calcAng&#45;&gt;angleIM2</title>
<path fill="none" stroke="black" d="M1275.75,-215.88C1294.56,-206.47 1318.08,-194.71 1338.17,-184.67"/>
<polygon fill="black" stroke="black" points="1339.74,-187.79 1347.12,-180.19 1336.61,-181.53 1339.74,-187.79"/>
</g>
<!-- outputValues -->
<g id="node21" class="node">
<title>outputValues</title>
<polygon fill="ivory" stroke="black" points="1446,-252 1311,-252 1311,-216 1446,-216 1446,-252"/>
<text text-anchor="middle" x="1378.5" y="-230.3" font-family="Times,serif" font-size="14.00">FR:outputValues</text>
</g>
<!-- outputValues&#45;&gt;angleIM1 -->
<g id="edge22" class="edge">
<title>outputValues&#45;&gt;angleIM1</title>
<path fill="none" stroke="black" d="M1343.76,-215.88C1324.68,-206.47 1300.82,-194.71 1280.45,-184.67"/>
<polygon fill="black" stroke="black" points="1281.89,-181.47 1271.37,-180.19 1278.79,-187.75 1281.89,-181.47"/>
</g>
<!-- outputValues&#45;&gt;angleIM2 -->
<g id="edge23" class="edge">
<title>outputValues&#45;&gt;angleIM2</title>
<path fill="none" stroke="black" d="M1379.24,-215.7C1379.57,-207.98 1379.97,-198.71 1380.34,-190.11"/>
<polygon fill="black" stroke="black" points="1383.84,-190.25 1380.77,-180.1 1376.84,-189.95 1383.84,-190.25"/>
</g>
<!-- twoDMotion -->
<g id="node22" class="node">
<title>twoDMotion</title>
<polygon fill="mistyrose" stroke="black" points="1583,-252 1464,-252 1464,-216 1583,-216 1583,-252"/>
<text text-anchor="middle" x="1523.5" y="-230.3" font-family="Times,serif" font-size="14.00">A:twoDMotion</text>
</g>
<!-- cartSys -->
<g id="node23" class="node">
<title>cartSys</title>
<polygon fill="mistyrose" stroke="black" points="1686,-252 1601,-252 1601,-216 1686,-216 1686,-252"/>
<text text-anchor="middle" x="1643.5" y="-230.3" font-family="Times,serif" font-size="14.00">A:cartSys</text>
</g>
<!-- cartSysR -->
<g id="node24" class="node">
<title>cartSysR</title>
<polygon fill="mistyrose" stroke="black" points="1799,-252 1704,-252 1704,-216 1799,-216 1799,-252"/>
<text text-anchor="middle" x="1751.5" y="-230.3" font-family="Times,serif" font-size="14.00">A:cartSysR</text>
</g>
<!-- yAxisDir -->
<g id="node25" class="node">
<title>yAxisDir</title>
<polygon fill="mistyrose" stroke="black" points="1909.5,-252 1817.5,-252 1817.5,-216 1909.5,-216 1909.5,-252"/>
<text text-anchor="middle" x="1863.5" y="-230.3" font-family="Times,serif" font-size="14.00">A:yAxisDir</text>
</g>
<!-- startOrigin -->
<g id="node26" class="node">
<title>startOrigin</title>
<polygon fill="mistyrose" stroke="black" points="2037.5,-252 1927.5,-252 1927.5,-216 2037.5,-216 2037.5,-252"/>
<text text-anchor="middle" x="1982.5" y="-230.3" font-family="Times,serif" font-size="14.00">A:startOrigin</text>
</g>
<!-- firstPend -->
<g id="node27" class="node">
<title>firstPend</title>
<polygon fill="mistyrose" stroke="black" points="2151,-252 2056,-252 2056,-216 2151,-216 2151,-252"/>
<text text-anchor="middle" x="2103.5" y="-230.3" font-family="Times,serif" font-size="14.00">A:firstPend</text>
</g>
<!-- secondPend -->
<g id="node28" class="node">
<title>secondPend</title>
<polygon fill="mistyrose" stroke="black" points="2285.5,-252 2169.5,-252 2169.5,-216 2285.5,-216 2285.5,-252"/>
<text text-anchor="middle" x="2227.5" y="-230.3" font-family="Times,serif" font-size="14.00">A:secondPend</text>
</g>
<!-- acceleration -->
<g id="node29" class="node">
<title>acceleration</title>
<polygon fill="#bbffff" stroke="black" points="955.5,-36 791.5,-36 791.5,0 955.5,0 955.5,-36"/>
<text text-anchor="middle" x="873.5" y="-14.3" font-family="Times,serif" font-size="14.00">DD:accelerationGDD</text>
</g>
<!-- force -->
<g id="node30" class="node">
<title>force</title>
<polygon fill="#bbffff" stroke="black" points="1087,-36 974,-36 974,0 1087,0 1087,-36"/>
<text text-anchor="middle" x="1030.5" y="-14.3" font-family="Times,serif" font-size="14.00">DD:forceGDD</text>
</g>
<!-- accelerationTM -->
<g id="node31" class="node">
<title>accelerationTM</title>
<polygon fill="pink" stroke="black" points="2435,-252 2304,-252 2304,-216 2435,-216 2435,-252"/>
<text text-anchor="middle" x="2369.5" y="-230.3" font-family="Times,serif" font-size="14.00">TM:acceleration</text>
</g>
<!-- velocityTM -->
<g id="node32" class="node">
<title>velocityTM</title>
<polygon fill="pink" stroke="black" points="2553.5,-252 2453.5,-252 2453.5,-216 2553.5,-216 2553.5,-252"/>
<text text-anchor="middle" x="2503.5" y="-230.3" font-family="Times,serif" font-size="14.00">TM:velocity</text>
</g>
<!-- newtonSL -->
<g id="node33" class="node">
<title>newtonSL</title>
<polygon fill="pink" stroke="black" points="2755,-252 2572,-252 2572,-216 2755,-216 2755,-252"/>
<text text-anchor="middle" x="2663.5" y="-230.3" font-family="Times,serif" font-size="14.00">TM:NewtonSecLawMot</text>
</g>
<!-- inputValues -->
<g id="node34" class="node">
<title>inputValues</title>
<polygon fill="ivory" stroke="black" points="2898,-252 2773,-252 2773,-216 2898,-216 2898,-252"/>
<text text-anchor="middle" x="2835.5" y="-230.3" font-family="Times,serif" font-size="14.00">FR:inputValues</text>
</g>
<!-- verifyInptVals -->
<g id="node35" class="node">
<title>verifyInptVals</title>
<polygon fill="ivory" stroke="black" points="3057,-252 2916,-252 2916,-216 3057,-216 3057,-252"/>
<text text-anchor="middle" x="2986.5" y="-230.3" font-family="Times,serif" font-size="14.00">FR:verifyInptVals</text>
</g>
<!-- correct -->
<g id="node36" class="node">
<title>correct</title>
<polygon fill="ivory" stroke="black" points="3179.5,-252 3075.5,-252 3075.5,-216 3179.5,-216 3179.5,-252"/>
<text text-anchor="middle" x="3127.5" y="-230.3" font-family="Times,serif" font-size="14.00">NFR:correct</text>
</g>
<!-- portable -->
<g id="node37" class="node">
<title>portable</title>
<polygon fill="ivory" stroke="black" points="3311,-252 3198,-252 3198,-216 3311,-216 3311,-252"/>
<text text-anchor="middle" x="3254.5" y="-230.3" font-family="Times,serif" font-size="14.00">NFR:portable</text>
</g>
<!-- motionMass -->
<g id="node38" class="node">
<title>motionMass</title>
<polygon fill="#ffb90f" stroke="black" points="3458,-252 3329,-252 3329,-216 3458,-216 3458,-252"/>
<text text-anchor="middle" x="3393.5" y="-230.3" font-family="Times,serif" font-size="14.00">GS:motionMass</text>
</g>
</g>
</svg>
