<?xml version="1.0" encoding="UTF-8" standalone="no"?>
<!DOCTYPE svg PUBLIC "-//W3C//DTD SVG 1.1//EN"
 "http://www.w3.org/Graphics/SVG/1.1/DTD/svg11.dtd">
<!-- Generated by graphviz version 2.43.0 (0)
 -->
<!-- Title: allvsr Pages: 1 -->
<svg width="5219pt" height="116pt"
 viewBox="0.00 0.00 5219.00 116.00" xmlns="http://www.w3.org/2000/svg" xmlns:xlink="http://www.w3.org/1999/xlink">
<g id="graph0" class="graph" transform="scale(1 1) rotate(0) translate(4 112)">
<title>allvsr</title>
<polygon fill="white" stroke="transparent" points="-4,4 -4,-112 5215,-112 5215,4 -4,4"/>
<!-- calcAngPos -->
<g id="node1" class="node">
<title>calcAngPos</title>
<polygon fill="ivory" stroke="black" points="227.5,-108 105.5,-108 105.5,-72 227.5,-72 227.5,-108"/>
<text text-anchor="middle" x="166.5" y="-86.3" font-family="Times,serif" font-size="14.00">FR:calcAngPos</text>
</g>
<!-- angularAccelerationIM1 -->
<g id="node2" class="node">
<title>angularAccelerationIM1</title>
<polygon fill="#fff68f" stroke="black" points="231,-36 0,-36 0,0 231,0 231,-36"/>
<text text-anchor="middle" x="115.5" y="-14.3" font-family="Times,serif" font-size="14.00">IM:calOfAngularAcceleration1</text>
</g>
<!-- calcAngPos&#45;&gt;angularAccelerationIM1 -->
<g id="edge1" class="edge">
<title>calcAngPos&#45;&gt;angularAccelerationIM1</title>
<path fill="none" stroke="black" d="M153.89,-71.7C147.9,-63.47 140.62,-53.48 134.02,-44.42"/>
<polygon fill="black" stroke="black" points="136.68,-42.13 127.96,-36.1 131.02,-46.25 136.68,-42.13"/>
</g>
<!-- angularAccelerationIM2 -->
<g id="node3" class="node">
<title>angularAccelerationIM2</title>
<polygon fill="#fff68f" stroke="black" points="480,-36 249,-36 249,0 480,0 480,-36"/>
<text text-anchor="middle" x="364.5" y="-14.3" font-family="Times,serif" font-size="14.00">IM:calOfAngularAcceleration2</text>
</g>
<!-- calcAngPos&#45;&gt;angularAccelerationIM2 -->
<g id="edge2" class="edge">
<title>calcAngPos&#45;&gt;angularAccelerationIM2</title>
<path fill="none" stroke="black" d="M214.68,-71.97C242.35,-62.19 277.28,-49.84 306.45,-39.52"/>
<polygon fill="black" stroke="black" points="307.84,-42.74 316.1,-36.11 305.51,-36.14 307.84,-42.74"/>
</g>
<!-- outputValues -->
<g id="node4" class="node">
<title>outputValues</title>
<polygon fill="ivory" stroke="black" points="406,-108 271,-108 271,-72 406,-72 406,-108"/>
<text text-anchor="middle" x="338.5" y="-86.3" font-family="Times,serif" font-size="14.00">FR:outputValues</text>
</g>
<!-- outputValues&#45;&gt;angularAccelerationIM1 -->
<g id="edge3" class="edge">
<title>outputValues&#45;&gt;angularAccelerationIM1</title>
<path fill="none" stroke="black" d="M284.23,-71.97C252.67,-62.06 212.71,-49.51 179.6,-39.12"/>
<polygon fill="black" stroke="black" points="180.6,-35.77 170.01,-36.11 178.5,-42.45 180.6,-35.77"/>
</g>
<!-- outputValues&#45;&gt;angularAccelerationIM2 -->
<g id="edge4" class="edge">
<title>outputValues&#45;&gt;angularAccelerationIM2</title>
<path fill="none" stroke="black" d="M344.93,-71.7C347.86,-63.81 351.39,-54.3 354.64,-45.55"/>
<polygon fill="black" stroke="black" points="357.95,-46.7 358.15,-36.1 351.38,-44.26 357.95,-46.7"/>
</g>
<!-- twoDMotion -->
<g id="node5" class="node">
<title>twoDMotion</title>
<polygon fill="mistyrose" stroke="black" points="543,-108 424,-108 424,-72 543,-72 543,-108"/>
<text text-anchor="middle" x="483.5" y="-86.3" font-family="Times,serif" font-size="14.00">A:twoDMotion</text>
</g>
<!-- cartSys -->
<g id="node6" class="node">
<title>cartSys</title>
<polygon fill="mistyrose" stroke="black" points="646,-108 561,-108 561,-72 646,-72 646,-108"/>
<text text-anchor="middle" x="603.5" y="-86.3" font-family="Times,serif" font-size="14.00">A:cartSys</text>
</g>
<!-- cartSysR -->
<g id="node7" class="node">
<title>cartSysR</title>
<polygon fill="mistyrose" stroke="black" points="759,-108 664,-108 664,-72 759,-72 759,-108"/>
<text text-anchor="middle" x="711.5" y="-86.3" font-family="Times,serif" font-size="14.00">A:cartSysR</text>
</g>
<!-- yAxisDir -->
<g id="node8" class="node">
<title>yAxisDir</title>
<polygon fill="mistyrose" stroke="black" points="869.5,-108 777.5,-108 777.5,-72 869.5,-72 869.5,-108"/>
<text text-anchor="middle" x="823.5" y="-86.3" font-family="Times,serif" font-size="14.00">A:yAxisDir</text>
</g>
<!-- startOrigin -->
<g id="node9" class="node">
<title>startOrigin</title>
<polygon fill="mistyrose" stroke="black" points="997.5,-108 887.5,-108 887.5,-72 997.5,-72 997.5,-108"/>
<text text-anchor="middle" x="942.5" y="-86.3" font-family="Times,serif" font-size="14.00">A:startOrigin</text>
</g>
<!-- firstPend -->
<g id="node10" class="node">
<title>firstPend</title>
<polygon fill="mistyrose" stroke="black" points="1111,-108 1016,-108 1016,-72 1111,-72 1111,-108"/>
<text text-anchor="middle" x="1063.5" y="-86.3" font-family="Times,serif" font-size="14.00">A:firstPend</text>
</g>
<!-- secondPend -->
<g id="node11" class="node">
<title>secondPend</title>
<polygon fill="mistyrose" stroke="black" points="1245.5,-108 1129.5,-108 1129.5,-72 1245.5,-72 1245.5,-108"/>
<text text-anchor="middle" x="1187.5" y="-86.3" font-family="Times,serif" font-size="14.00">A:secondPend</text>
</g>
<!-- velocity -->
<g id="node12" class="node">
<title>velocity</title>
<polygon fill="#bbffff" stroke="black" points="1397.5,-108 1263.5,-108 1263.5,-72 1397.5,-72 1397.5,-108"/>
<text text-anchor="middle" x="1330.5" y="-86.3" font-family="Times,serif" font-size="14.00">DD:positionGDD</text>
</g>
<!-- p_x1 -->
<g id="node13" class="node">
<title>p_x1</title>
<polygon fill="#bbffff" stroke="black" points="1557.5,-108 1415.5,-108 1415.5,-72 1557.5,-72 1557.5,-108"/>
<text text-anchor="middle" x="1486.5" y="-86.3" font-family="Times,serif" font-size="14.00">DD:positionXDD1</text>
</g>
<!-- p_y1 -->
<g id="node14" class="node">
<title>p_y1</title>
<polygon fill="#bbffff" stroke="black" points="1717,-108 1576,-108 1576,-72 1717,-72 1717,-108"/>
<text text-anchor="middle" x="1646.5" y="-86.3" font-family="Times,serif" font-size="14.00">DD:positionYDD1</text>
</g>
<!-- p_x2 -->
<g id="node15" class="node">
<title>p_x2</title>
<polygon fill="#bbffff" stroke="black" points="1877.5,-108 1735.5,-108 1735.5,-72 1877.5,-72 1877.5,-108"/>
<text text-anchor="middle" x="1806.5" y="-86.3" font-family="Times,serif" font-size="14.00">DD:positionXDD2</text>
</g>
<!-- p_y2 -->
<g id="node16" class="node">
<title>p_y2</title>
<polygon fill="#bbffff" stroke="black" points="2037,-108 1896,-108 1896,-72 2037,-72 2037,-108"/>
<text text-anchor="middle" x="1966.5" y="-86.3" font-family="Times,serif" font-size="14.00">DD:positionYDD2</text>
</g>
<!-- acceleration -->
<g id="node17" class="node">
<title>acceleration</title>
<polygon fill="#bbffff" stroke="black" points="2219.5,-108 2055.5,-108 2055.5,-72 2219.5,-72 2219.5,-108"/>
<text text-anchor="middle" x="2137.5" y="-86.3" font-family="Times,serif" font-size="14.00">DD:accelerationGDD</text>
</g>
<!-- force -->
<g id="node18" class="node">
<title>force</title>
<polygon fill="#bbffff" stroke="black" points="2351,-108 2238,-108 2238,-72 2351,-72 2351,-108"/>
<text text-anchor="middle" x="2294.5" y="-86.3" font-family="Times,serif" font-size="14.00">DD:forceGDD</text>
</g>
<!-- accelerationTM -->
<g id="node19" class="node">
<title>accelerationTM</title>
<polygon fill="pink" stroke="black" points="2500,-108 2369,-108 2369,-72 2500,-72 2500,-108"/>
<text text-anchor="middle" x="2434.5" y="-86.3" font-family="Times,serif" font-size="14.00">TM:acceleration</text>
</g>
<!-- velocityTM -->
<g id="node20" class="node">
<title>velocityTM</title>
<polygon fill="pink" stroke="black" points="2618.5,-108 2518.5,-108 2518.5,-72 2618.5,-72 2618.5,-108"/>
<text text-anchor="middle" x="2568.5" y="-86.3" font-family="Times,serif" font-size="14.00">TM:velocity</text>
</g>
<!-- newtonSL -->
<g id="node21" class="node">
<title>newtonSL</title>
<polygon fill="pink" stroke="black" points="2820,-108 2637,-108 2637,-72 2820,-72 2820,-108"/>
<text text-anchor="middle" x="2728.5" y="-86.3" font-family="Times,serif" font-size="14.00">TM:NewtonSecLawMot</text>
</g>
<!-- v_x1 -->
<g id="node22" class="node">
<title>v_x1</title>
<polygon fill="palegreen" stroke="black" points="2956.5,-108 2838.5,-108 2838.5,-72 2956.5,-72 2956.5,-108"/>
<text text-anchor="middle" x="2897.5" y="-86.3" font-family="Times,serif" font-size="14.00">GD:velocityX1</text>
</g>
<!-- v_y1 -->
<g id="node23" class="node">
<title>v_y1</title>
<polygon fill="palegreen" stroke="black" points="3092,-108 2975,-108 2975,-72 3092,-72 3092,-108"/>
<text text-anchor="middle" x="3033.5" y="-86.3" font-family="Times,serif" font-size="14.00">GD:velocityY1</text>
</g>
<!-- v_x2 -->
<g id="node24" class="node">
<title>v_x2</title>
<polygon fill="palegreen" stroke="black" points="3228.5,-108 3110.5,-108 3110.5,-72 3228.5,-72 3228.5,-108"/>
<text text-anchor="middle" x="3169.5" y="-86.3" font-family="Times,serif" font-size="14.00">GD:velocityX2</text>
</g>
<!-- v_y2 -->
<g id="node25" class="node">
<title>v_y2</title>
<polygon fill="palegreen" stroke="black" points="3364,-108 3247,-108 3247,-72 3364,-72 3364,-108"/>
<text text-anchor="middle" x="3305.5" y="-86.3" font-family="Times,serif" font-size="14.00">GD:velocityY2</text>
</g>
<!-- a_x1 -->
<g id="node26" class="node">
<title>a_x1</title>
<polygon fill="palegreen" stroke="black" points="3531,-108 3382,-108 3382,-72 3531,-72 3531,-108"/>
<text text-anchor="middle" x="3456.5" y="-86.3" font-family="Times,serif" font-size="14.00">GD:accelerationX1</text>
</g>
<!-- a_y1 -->
<g id="node27" class="node">
<title>a_y1</title>
<polygon fill="palegreen" stroke="black" points="3698,-108 3549,-108 3549,-72 3698,-72 3698,-108"/>
<text text-anchor="middle" x="3623.5" y="-86.3" font-family="Times,serif" font-size="14.00">GD:accelerationY1</text>
</g>
<!-- a_x2 -->
<g id="node28" class="node">
<title>a_x2</title>
<polygon fill="palegreen" stroke="black" points="3865,-108 3716,-108 3716,-72 3865,-72 3865,-108"/>
<text text-anchor="middle" x="3790.5" y="-86.3" font-family="Times,serif" font-size="14.00">GD:accelerationX2</text>
</g>
<!-- a_y2 -->
<g id="node29" class="node">
<title>a_y2</title>
<polygon fill="palegreen" stroke="black" points="4032,-108 3883,-108 3883,-72 4032,-72 4032,-108"/>
<text text-anchor="middle" x="3957.5" y="-86.3" font-family="Times,serif" font-size="14.00">GD:accelerationY2</text>
</g>
<!-- xForce1 -->
<g id="node30" class="node">
<title>xForce1</title>
<polygon fill="palegreen" stroke="black" points="4151,-108 4050,-108 4050,-72 4151,-72 4151,-108"/>
<text text-anchor="middle" x="4100.5" y="-86.3" font-family="Times,serif" font-size="14.00">GD:xForce1</text>
</g>
<!-- yForce1 -->
<g id="node31" class="node">
<title>yForce1</title>
<polygon fill="palegreen" stroke="black" points="4270,-108 4169,-108 4169,-72 4270,-72 4270,-108"/>
<text text-anchor="middle" x="4219.5" y="-86.3" font-family="Times,serif" font-size="14.00">GD:yForce1</text>
</g>
<!-- xForce2 -->
<g id="node32" class="node">
<title>xForce2</title>
<polygon fill="palegreen" stroke="black" points="4389,-108 4288,-108 4288,-72 4389,-72 4389,-108"/>
<text text-anchor="middle" x="4338.5" y="-86.3" font-family="Times,serif" font-size="14.00">GD:xForce2</text>
</g>
<!-- yForce2 -->
<g id="node33" class="node">
<title>yForce2</title>
<polygon fill="palegreen" stroke="black" points="4508,-108 4407,-108 4407,-72 4508,-72 4508,-108"/>
<text text-anchor="middle" x="4457.5" y="-86.3" font-family="Times,serif" font-size="14.00">GD:yForce2</text>
</g>
<!-- inputValues -->
<g id="node34" class="node">
<title>inputValues</title>
<polygon fill="ivory" stroke="black" points="4651,-108 4526,-108 4526,-72 4651,-72 4651,-108"/>
<text text-anchor="middle" x="4588.5" y="-86.3" font-family="Times,serif" font-size="14.00">FR:inputValues</text>
</g>
<!-- verifyInptVals -->
<g id="node35" class="node">
<title>verifyInptVals</title>
<polygon fill="ivory" stroke="black" points="4810,-108 4669,-108 4669,-72 4810,-72 4810,-108"/>
<text text-anchor="middle" x="4739.5" y="-86.3" font-family="Times,serif" font-size="14.00">FR:verifyInptVals</text>
</g>
<!-- correct -->
<g id="node36" class="node">
<title>correct</title>
<polygon fill="ivory" stroke="black" points="4932.5,-108 4828.5,-108 4828.5,-72 4932.5,-72 4932.5,-108"/>
<text text-anchor="middle" x="4880.5" y="-86.3" font-family="Times,serif" font-size="14.00">NFR:correct</text>
</g>
<!-- portable -->
<g id="node37" class="node">
<title>portable</title>
<polygon fill="ivory" stroke="black" points="5064,-108 4951,-108 4951,-72 5064,-72 5064,-108"/>
<text text-anchor="middle" x="5007.5" y="-86.3" font-family="Times,serif" font-size="14.00">NFR:portable</text>
</g>
<!-- motionMass -->
<g id="node38" class="node">
<title>motionMass</title>
<polygon fill="#ffb90f" stroke="black" points="5211,-108 5082,-108 5082,-72 5211,-72 5211,-108"/>
<text text-anchor="middle" x="5146.5" y="-86.3" font-family="Times,serif" font-size="14.00">GS:motionMass</text>
</g>
</g>
</svg>
