<?xml version="1.0" encoding="UTF-8" standalone="no"?>
<!DOCTYPE svg PUBLIC "-//W3C//DTD SVG 1.1//EN"
 "http://www.w3.org/Graphics/SVG/1.1/DTD/svg11.dtd">
<!-- Generated by graphviz version 2.43.0 (0)
 -->
<!-- Title: allvsr Pages: 1 -->
<svg width="1932pt" height="116pt"
 viewBox="0.00 0.00 1932.00 116.00" xmlns="http://www.w3.org/2000/svg" xmlns:xlink="http://www.w3.org/1999/xlink">
<g id="graph0" class="graph" transform="scale(1 1) rotate(0) translate(4 112)">
<title>allvsr</title>
<polygon fill="white" stroke="transparent" points="-4,4 -4,-112 1928,-112 1928,4 -4,4"/>
<!-- calcAng -->
<g id="node1" class="node">
<title>calcAng</title>
<polygon fill="ivory" stroke="black" points="97,-108 0,-108 0,-72 97,-72 97,-108"/>
<text text-anchor="middle" x="48.5" y="-86.3" font-family="Times,serif" font-size="14.00">FR:calcAng</text>
</g>
<!-- theory -->
<g id="node2" class="node">
<title>theory</title>
<polygon fill="#fff68f" stroke="black" points="179,-36 52,-36 52,0 179,0 179,-36"/>
<text text-anchor="middle" x="115.5" y="-14.3" font-family="Times,serif" font-size="14.00">IM:calOfAngle2</text>
</g>
<!-- calcAng&#45;&gt;theory -->
<g id="edge1" class="edge">
<title>calcAng&#45;&gt;theory:angleIM1</title>
<path fill="none" stroke="black" d="M59.15,-71.7C66.46,-63.14 76.31,-52.66 85.78,-43.3"/>
<polygon fill="black" stroke="black" points="88.47,-45.57 93.23,-36.1 83.61,-40.53 88.47,-45.57"/>
</g>
<!-- calcAng&#45;&gt;theory -->
<g id="edge2" class="edge">
<title>calcAng&#45;&gt;theory:angleIM2</title>
<path fill="none" stroke="black" d="M70.98,-71.7C79.88,-63.3 89.86,-53.07 98.2,-43.86"/>
<polygon fill="black" stroke="black" points="101.04,-45.92 105.02,-36.1 95.79,-41.3 101.04,-45.92"/>
</g>
<!-- outputValues -->
<g id="node3" class="node">
<title>outputValues</title>
<polygon fill="ivory" stroke="black" points="250,-108 115,-108 115,-72 250,-72 250,-108"/>
<text text-anchor="middle" x="182.5" y="-86.3" font-family="Times,serif" font-size="14.00">FR:outputValues</text>
</g>
<!-- outputValues&#45;&gt;theory -->
<g id="edge3" class="edge">
<title>outputValues&#45;&gt;theory:angleIM1</title>
<path fill="none" stroke="black" d="M160.02,-71.7C151.12,-63.3 141.14,-53.07 132.8,-43.86"/>
<polygon fill="black" stroke="black" points="135.21,-41.3 125.98,-36.1 129.96,-45.92 135.21,-41.3"/>
</g>
<!-- outputValues&#45;&gt;theory -->
<g id="edge4" class="edge">
<title>outputValues&#45;&gt;theory:angleIM2</title>
<path fill="none" stroke="black" d="M171.85,-71.7C164.54,-63.14 154.69,-52.66 145.22,-43.3"/>
<polygon fill="black" stroke="black" points="147.39,-40.53 137.77,-36.1 142.53,-45.57 147.39,-40.53"/>
</g>
<!-- twoDMotion -->
<g id="node4" class="node">
<title>twoDMotion</title>
<polygon fill="mistyrose" stroke="black" points="387,-108 268,-108 268,-72 387,-72 387,-108"/>
<text text-anchor="middle" x="327.5" y="-86.3" font-family="Times,serif" font-size="14.00">A:twoDMotion</text>
</g>
<!-- cartSys -->
<g id="node5" class="node">
<title>cartSys</title>
<polygon fill="mistyrose" stroke="black" points="490,-108 405,-108 405,-72 490,-72 490,-108"/>
<text text-anchor="middle" x="447.5" y="-86.3" font-family="Times,serif" font-size="14.00">A:cartSys</text>
</g>
<!-- cartSysR -->
<g id="node6" class="node">
<title>cartSysR</title>
<polygon fill="mistyrose" stroke="black" points="603,-108 508,-108 508,-72 603,-72 603,-108"/>
<text text-anchor="middle" x="555.5" y="-86.3" font-family="Times,serif" font-size="14.00">A:cartSysR</text>
</g>
<!-- yAxisDir -->
<g id="node7" class="node">
<title>yAxisDir</title>
<polygon fill="mistyrose" stroke="black" points="713.5,-108 621.5,-108 621.5,-72 713.5,-72 713.5,-108"/>
<text text-anchor="middle" x="667.5" y="-86.3" font-family="Times,serif" font-size="14.00">A:yAxisDir</text>
</g>
<!-- startOrigin -->
<g id="node8" class="node">
<title>startOrigin</title>
<polygon fill="mistyrose" stroke="black" points="841.5,-108 731.5,-108 731.5,-72 841.5,-72 841.5,-108"/>
<text text-anchor="middle" x="786.5" y="-86.3" font-family="Times,serif" font-size="14.00">A:startOrigin</text>
</g>
<!-- firstPend -->
<g id="node9" class="node">
<title>firstPend</title>
<polygon fill="mistyrose" stroke="black" points="955,-108 860,-108 860,-72 955,-72 955,-108"/>
<text text-anchor="middle" x="907.5" y="-86.3" font-family="Times,serif" font-size="14.00">A:firstPend</text>
</g>
<!-- secondPend -->
<g id="node10" class="node">
<title>secondPend</title>
<polygon fill="mistyrose" stroke="black" points="1089.5,-108 973.5,-108 973.5,-72 1089.5,-72 1089.5,-108"/>
<text text-anchor="middle" x="1031.5" y="-86.3" font-family="Times,serif" font-size="14.00">A:secondPend</text>
</g>
<!-- dataDefn -->
<g id="node11" class="node">
<title>dataDefn</title>
<polygon fill="#bbffff" stroke="black" points="1221,-108 1108,-108 1108,-72 1221,-72 1221,-108"/>
<text text-anchor="middle" x="1164.5" y="-86.3" font-family="Times,serif" font-size="14.00">DD:forceGDD</text>
</g>
<!-- inputValues -->
<g id="node12" class="node">
<title>inputValues</title>
<polygon fill="ivory" stroke="black" points="1364,-108 1239,-108 1239,-72 1364,-72 1364,-108"/>
<text text-anchor="middle" x="1301.5" y="-86.3" font-family="Times,serif" font-size="14.00">FR:inputValues</text>
</g>
<!-- verifyInptVals -->
<g id="node13" class="node">
<title>verifyInptVals</title>
<polygon fill="ivory" stroke="black" points="1523,-108 1382,-108 1382,-72 1523,-72 1523,-108"/>
<text text-anchor="middle" x="1452.5" y="-86.3" font-family="Times,serif" font-size="14.00">FR:verifyInptVals</text>
</g>
<!-- correct -->
<g id="node14" class="node">
<title>correct</title>
<polygon fill="ivory" stroke="black" points="1645.5,-108 1541.5,-108 1541.5,-72 1645.5,-72 1645.5,-108"/>
<text text-anchor="middle" x="1593.5" y="-86.3" font-family="Times,serif" font-size="14.00">NFR:correct</text>
</g>
<!-- portable -->
<g id="node15" class="node">
<title>portable</title>
<polygon fill="ivory" stroke="black" points="1777,-108 1664,-108 1664,-72 1777,-72 1777,-108"/>
<text text-anchor="middle" x="1720.5" y="-86.3" font-family="Times,serif" font-size="14.00">NFR:portable</text>
</g>
<!-- motionMass -->
<g id="node16" class="node">
<title>motionMass</title>
<polygon fill="#ffb90f" stroke="black" points="1924,-108 1795,-108 1795,-72 1924,-72 1924,-108"/>
<text text-anchor="middle" x="1859.5" y="-86.3" font-family="Times,serif" font-size="14.00">GS:motionMass</text>
</g>
</g>
</svg>
