<?xml version="1.0" encoding="UTF-8" standalone="no"?>
<!DOCTYPE svg PUBLIC "-//W3C//DTD SVG 1.1//EN"
 "http://www.w3.org/Graphics/SVG/1.1/DTD/svg11.dtd">
<!-- Generated by graphviz version 2.43.0 (0)
 -->
<!-- Title: avsall Pages: 1 -->
<svg width="1948pt" height="44pt"
 viewBox="0.00 0.00 1948.00 44.00" xmlns="http://www.w3.org/2000/svg" xmlns:xlink="http://www.w3.org/1999/xlink">
<g id="graph0" class="graph" transform="scale(1 1) rotate(0) translate(4 40)">
<title>avsall</title>
<polygon fill="white" stroke="transparent" points="-4,4 -4,-40 1944,-40 1944,4 -4,4"/>
<!-- twoDMotion -->
<g id="node1" class="node">
<title>twoDMotion</title>
<polygon fill="mistyrose" stroke="black" points="119,-36 0,-36 0,0 119,0 119,-36"/>
<text text-anchor="middle" x="59.5" y="-14.3" font-family="Times,serif" font-size="14.00">A:twoDMotion</text>
</g>
<!-- cartSys -->
<g id="node2" class="node">
<title>cartSys</title>
<polygon fill="mistyrose" stroke="black" points="222,-36 137,-36 137,0 222,0 222,-36"/>
<text text-anchor="middle" x="179.5" y="-14.3" font-family="Times,serif" font-size="14.00">A:cartSys</text>
</g>
<!-- cartSysR -->
<g id="node3" class="node">
<title>cartSysR</title>
<polygon fill="mistyrose" stroke="black" points="335,-36 240,-36 240,0 335,0 335,-36"/>
<text text-anchor="middle" x="287.5" y="-14.3" font-family="Times,serif" font-size="14.00">A:cartSysR</text>
</g>
<!-- yAxisDir -->
<g id="node4" class="node">
<title>yAxisDir</title>
<polygon fill="mistyrose" stroke="black" points="445.5,-36 353.5,-36 353.5,0 445.5,0 445.5,-36"/>
<text text-anchor="middle" x="399.5" y="-14.3" font-family="Times,serif" font-size="14.00">A:yAxisDir</text>
</g>
<!-- startOrigin2x -->
<g id="node5" class="node">
<title>startOrigin2x</title>
<polygon fill="mistyrose" stroke="black" points="591.5,-36 463.5,-36 463.5,0 591.5,0 591.5,-36"/>
<text text-anchor="middle" x="527.5" y="-14.3" font-family="Times,serif" font-size="14.00">A:startOrigin2x</text>
</g>
<!-- firstPend -->
<g id="node6" class="node">
<title>firstPend</title>
<polygon fill="mistyrose" stroke="black" points="705,-36 610,-36 610,0 705,0 705,-36"/>
<text text-anchor="middle" x="657.5" y="-14.3" font-family="Times,serif" font-size="14.00">A:firstPend</text>
</g>
<!-- secondPend -->
<g id="node7" class="node">
<title>secondPend</title>
<polygon fill="mistyrose" stroke="black" points="839.5,-36 723.5,-36 723.5,0 839.5,0 839.5,-36"/>
<text text-anchor="middle" x="781.5" y="-14.3" font-family="Times,serif" font-size="14.00">A:secondPend</text>
</g>
<!-- dataDefn -->
<g id="node8" class="node">
<title>dataDefn</title>
<polygon fill="#bbffff" stroke="black" points="971,-36 858,-36 858,0 971,0 971,-36"/>
<text text-anchor="middle" x="914.5" y="-14.3" font-family="Times,serif" font-size="14.00">DD:forceGDD</text>
</g>
<!-- theory -->
<g id="node9" class="node">
<title>theory</title>
<polygon fill="#fff68f" stroke="black" points="1116,-36 989,-36 989,0 1116,0 1116,-36"/>
<text text-anchor="middle" x="1052.5" y="-14.3" font-family="Times,serif" font-size="14.00">IM:calOfAngle2</text>
</g>
<!-- inputValues -->
<g id="node10" class="node">
<title>inputValues</title>
<polygon fill="ivory" stroke="black" points="1259,-36 1134,-36 1134,0 1259,0 1259,-36"/>
<text text-anchor="middle" x="1196.5" y="-14.3" font-family="Times,serif" font-size="14.00">FR:inputValues</text>
</g>
<!-- verifyInptVals -->
<g id="node11" class="node">
<title>verifyInptVals</title>
<polygon fill="ivory" stroke="black" points="1418,-36 1277,-36 1277,0 1418,0 1418,-36"/>
<text text-anchor="middle" x="1347.5" y="-14.3" font-family="Times,serif" font-size="14.00">FR:verifyInptVals</text>
</g>
<!-- calcAng -->
<g id="node12" class="node">
<title>calcAng</title>
<polygon fill="ivory" stroke="black" points="1533,-36 1436,-36 1436,0 1533,0 1533,-36"/>
<text text-anchor="middle" x="1484.5" y="-14.3" font-family="Times,serif" font-size="14.00">FR:calcAng</text>
</g>
<!-- outputValues -->
<g id="node13" class="node">
<title>outputValues</title>
<polygon fill="ivory" stroke="black" points="1686,-36 1551,-36 1551,0 1686,0 1686,-36"/>
<text text-anchor="middle" x="1618.5" y="-14.3" font-family="Times,serif" font-size="14.00">FR:outputValues</text>
</g>
<!-- correct -->
<g id="node14" class="node">
<title>correct</title>
<polygon fill="ivory" stroke="black" points="1808.5,-36 1704.5,-36 1704.5,0 1808.5,0 1808.5,-36"/>
<text text-anchor="middle" x="1756.5" y="-14.3" font-family="Times,serif" font-size="14.00">NFR:correct</text>
</g>
<!-- portable -->
<g id="node15" class="node">
<title>portable</title>
<polygon fill="ivory" stroke="black" points="1940,-36 1827,-36 1827,0 1940,0 1940,-36"/>
<text text-anchor="middle" x="1883.5" y="-14.3" font-family="Times,serif" font-size="14.00">NFR:portable</text>
</g>
</g>
</svg>
