<?xml version="1.0" encoding="UTF-8" standalone="no"?>
<!DOCTYPE svg PUBLIC "-//W3C//DTD SVG 1.1//EN"
 "http://www.w3.org/Graphics/SVG/1.1/DTD/svg11.dtd">
<!-- Generated by graphviz version 2.43.0 (0)
 -->
<!-- Title: allvsr Pages: 1 -->
<svg width="4164pt" height="141pt"
 viewBox="0.00 0.00 4163.50 140.50" xmlns="http://www.w3.org/2000/svg" xmlns:xlink="http://www.w3.org/1999/xlink">
<g id="graph0" class="graph" transform="scale(1 1) rotate(0) translate(4 136.5)">
<title>allvsr</title>
<polygon fill="white" stroke="transparent" points="-4,4 -4,-136.5 4159.5,-136.5 4159.5,4 -4,4"/>
<!-- findMass -->
<g id="node1" class="node">
<title>findMass</title>
<polygon fill="ivory" stroke="black" points="318.5,-108 212.5,-108 212.5,-72 318.5,-72 318.5,-108"/>
<text text-anchor="middle" x="265.5" y="-86.3" font-family="Times,serif" font-size="14.00">FR:findMass</text>
</g>
<!-- dataDefn -->
<g id="node2" class="node">
<title>dataDefn</title>
<polygon fill="#bbffff" stroke="black" points="353,-36 178,-36 178,0 353,0 353,-36"/>
<text text-anchor="middle" x="265.5" y="-14.3" font-family="Times,serif" font-size="14.00">DD:balanceDecayRate</text>
</g>
<!-- findMass&#45;&gt;dataDefn -->
<g id="edge1" class="edge">
<title>findMass&#45;&gt;dataDefn:wMass</title>
<path fill="none" stroke="black" d="M253.67,-71.7C252.08,-63.98 251.62,-54.71 252.31,-46.11"/>
<polygon fill="black" stroke="black" points="255.79,-46.49 253.71,-36.1 248.86,-45.52 255.79,-46.49"/>
</g>
<!-- findMass&#45;&gt;dataDefn -->
<g id="edge2" class="edge">
<title>findMass&#45;&gt;dataDefn:wVol</title>
<path fill="none" stroke="black" d="M265.5,-71.7C265.5,-63.98 265.5,-54.71 265.5,-46.11"/>
<polygon fill="black" stroke="black" points="269,-46.1 265.5,-36.1 262,-46.1 269,-46.1"/>
</g>
<!-- findMass&#45;&gt;dataDefn -->
<g id="edge3" class="edge">
<title>findMass&#45;&gt;dataDefn:tankVol</title>
<path fill="none" stroke="black" d="M277.33,-71.7C278.92,-63.98 279.38,-54.71 278.69,-46.11"/>
<polygon fill="black" stroke="black" points="282.14,-45.52 277.29,-36.1 275.21,-46.49 282.14,-45.52"/>
</g>
<!-- theory -->
<g id="node3" class="node">
<title>theory</title>
<polygon fill="#fff68f" stroke="black" points="600.5,-36 476.5,-36 476.5,0 600.5,0 600.5,-36"/>
<text text-anchor="middle" x="538.5" y="-14.3" font-family="Times,serif" font-size="14.00">IM:heatEInWtr</text>
</g>
<!-- findMass&#45;&gt;theory -->
<g id="edge4" class="edge">
<title>findMass&#45;&gt;theory:eBalanceOnWtrRC</title>
<path fill="none" stroke="black" d="M318.58,-74.37C321.6,-73.56 324.59,-72.77 327.5,-72 373.57,-59.9 425.45,-46.86 466.24,-36.74"/>
<polygon fill="black" stroke="black" points="467.22,-40.1 476.09,-34.3 465.54,-33.31 467.22,-40.1"/>
</g>
<!-- inputValues -->
<g id="node4" class="node">
<title>inputValues</title>
<polygon fill="ivory" stroke="black" points="462,-108 337,-108 337,-72 462,-72 462,-108"/>
<text text-anchor="middle" x="399.5" y="-86.3" font-family="Times,serif" font-size="14.00">FR:inputValues</text>
</g>
<!-- findMass&#45;&gt;inputValues -->
<g id="edge5" class="edge">
<title>findMass&#45;&gt;inputValues</title>
<path fill="none" stroke="black" d="M318.63,-90C321.4,-90 324.16,-90 326.93,-90"/>
<polygon fill="black" stroke="black" points="326.95,-93.5 336.95,-90 326.95,-86.5 326.95,-93.5"/>
</g>
<!-- outputInputDerivVals -->
<g id="node5" class="node">
<title>outputInputDerivVals</title>
<polygon fill="ivory" stroke="black" points="195,-108 0,-108 0,-72 195,-72 195,-108"/>
<text text-anchor="middle" x="97.5" y="-86.3" font-family="Times,serif" font-size="14.00">FR:outputInputDerivVals</text>
</g>
<!-- outputInputDerivVals&#45;&gt;findMass -->
<g id="edge8" class="edge">
<title>outputInputDerivVals&#45;&gt;findMass</title>
<path fill="none" stroke="black" d="M195.28,-90C197.58,-90 199.89,-90 202.19,-90"/>
<polygon fill="black" stroke="black" points="202.29,-93.5 212.29,-90 202.29,-86.5 202.29,-93.5"/>
</g>
<!-- outputInputDerivVals&#45;&gt;dataDefn -->
<g id="edge6" class="edge">
<title>outputInputDerivVals&#45;&gt;dataDefn:tauW</title>
<path fill="none" stroke="black" d="M138.6,-71.88C161.67,-62.26 190.64,-50.19 215.07,-40.01"/>
<polygon fill="black" stroke="black" points="216.65,-43.15 224.54,-36.07 213.96,-36.68 216.65,-43.15"/>
</g>
<!-- outputInputDerivVals&#45;&gt;inputValues -->
<g id="edge7" class="edge">
<title>outputInputDerivVals&#45;&gt;inputValues</title>
<path fill="none" stroke="black" d="M144.02,-108.09C164.65,-115.19 189.44,-122.48 212.5,-126 259.07,-133.12 272.42,-135.78 318.5,-126 331.82,-123.17 345.6,-118 357.94,-112.45"/>
<polygon fill="black" stroke="black" points="359.5,-115.58 367.06,-108.15 356.52,-109.24 359.5,-115.58"/>
</g>
<!-- calcValues -->
<g id="node6" class="node">
<title>calcValues</title>
<polygon fill="ivory" stroke="black" points="596.5,-108 480.5,-108 480.5,-72 596.5,-72 596.5,-108"/>
<text text-anchor="middle" x="538.5" y="-86.3" font-family="Times,serif" font-size="14.00">FR:calcValues</text>
</g>
<!-- calcValues&#45;&gt;theory -->
<g id="edge9" class="edge">
<title>calcValues&#45;&gt;theory:eBalanceOnWtrRC</title>
<path fill="none" stroke="black" d="M532.58,-71.7C531.79,-63.98 531.56,-54.71 531.9,-46.11"/>
<polygon fill="black" stroke="black" points="535.4,-46.32 532.6,-36.1 528.42,-45.84 535.4,-46.32"/>
</g>
<!-- calcValues&#45;&gt;theory -->
<g id="edge10" class="edge">
<title>calcValues&#45;&gt;theory:heatEInWtrIM</title>
<path fill="none" stroke="black" d="M544.42,-71.7C545.21,-63.98 545.44,-54.71 545.1,-46.11"/>
<polygon fill="black" stroke="black" points="548.58,-45.84 544.4,-36.1 541.6,-46.32 548.58,-45.84"/>
</g>
<!-- outputValues -->
<g id="node7" class="node">
<title>outputValues</title>
<polygon fill="ivory" stroke="black" points="750,-108 615,-108 615,-72 750,-72 750,-108"/>
<text text-anchor="middle" x="682.5" y="-86.3" font-family="Times,serif" font-size="14.00">FR:outputValues</text>
</g>
<!-- outputValues&#45;&gt;theory -->
<g id="edge11" class="edge">
<title>outputValues&#45;&gt;theory:eBalanceOnWtrRC</title>
<path fill="none" stroke="black" d="M641.38,-71.88C621.13,-62.51 596.93,-50.81 577.05,-40.8"/>
<polygon fill="black" stroke="black" points="578.46,-37.59 567.96,-36.19 575.29,-43.84 578.46,-37.59"/>
</g>
<!-- outputValues&#45;&gt;theory -->
<g id="edge12" class="edge">
<title>outputValues&#45;&gt;theory:heatEInWtrIM</title>
<path fill="none" stroke="black" d="M653.17,-71.88C634.65,-62.39 610.34,-50.51 588.84,-40.42"/>
<polygon fill="black" stroke="black" points="590.05,-37.12 579.5,-36.07 587.09,-43.47 590.05,-37.12"/>
</g>
<!-- assumpTEO -->
<g id="node8" class="node">
<title>assumpTEO</title>
<polygon fill="mistyrose" stroke="black" points="884.5,-108 768.5,-108 768.5,-72 884.5,-72 884.5,-108"/>
<text text-anchor="middle" x="826.5" y="-86.3" font-family="Times,serif" font-size="14.00">A:assumpTEO</text>
</g>
<!-- assumpHTCC -->
<g id="node9" class="node">
<title>assumpHTCC</title>
<polygon fill="mistyrose" stroke="black" points="1030.5,-108 902.5,-108 902.5,-72 1030.5,-72 1030.5,-108"/>
<text text-anchor="middle" x="966.5" y="-86.3" font-family="Times,serif" font-size="14.00">A:assumpHTCC</text>
</g>
<!-- assumpCWTAT -->
<g id="node10" class="node">
<title>assumpCWTAT</title>
<polygon fill="mistyrose" stroke="black" points="1186,-108 1049,-108 1049,-72 1186,-72 1186,-108"/>
<text text-anchor="middle" x="1117.5" y="-86.3" font-family="Times,serif" font-size="14.00">A:assumpCWTAT</text>
</g>
<!-- assumpDWCoW -->
<g id="node11" class="node">
<title>assumpDWCoW</title>
<polygon fill="mistyrose" stroke="black" points="1348.5,-108 1204.5,-108 1204.5,-72 1348.5,-72 1348.5,-108"/>
<text text-anchor="middle" x="1276.5" y="-86.3" font-family="Times,serif" font-size="14.00">A:assumpDWCoW</text>
</g>
<!-- assumpSHECoW -->
<g id="node12" class="node">
<title>assumpSHECoW</title>
<polygon fill="mistyrose" stroke="black" points="1518,-108 1367,-108 1367,-72 1518,-72 1518,-108"/>
<text text-anchor="middle" x="1442.5" y="-86.3" font-family="Times,serif" font-size="14.00">A:assumpSHECoW</text>
</g>
<!-- assumpLCCCW -->
<g id="node13" class="node">
<title>assumpLCCCW</title>
<polygon fill="mistyrose" stroke="black" points="1676.5,-108 1536.5,-108 1536.5,-72 1676.5,-72 1676.5,-108"/>
<text text-anchor="middle" x="1606.5" y="-86.3" font-family="Times,serif" font-size="14.00">A:assumpLCCCW</text>
</g>
<!-- assumpTHCCoT -->
<g id="node14" class="node">
<title>assumpTHCCoT</title>
<polygon fill="mistyrose" stroke="black" points="1840,-108 1695,-108 1695,-72 1840,-72 1840,-108"/>
<text text-anchor="middle" x="1767.5" y="-86.3" font-family="Times,serif" font-size="14.00">A:assumpTHCCoT</text>
</g>
<!-- assumpTHCCoL -->
<g id="node15" class="node">
<title>assumpTHCCoL</title>
<polygon fill="mistyrose" stroke="black" points="2003,-108 1858,-108 1858,-72 2003,-72 2003,-108"/>
<text text-anchor="middle" x="1930.5" y="-86.3" font-family="Times,serif" font-size="14.00">A:assumpTHCCoL</text>
</g>
<!-- assumpCTNTD -->
<g id="node16" class="node">
<title>assumpCTNTD</title>
<polygon fill="mistyrose" stroke="black" points="2158,-108 2021,-108 2021,-72 2158,-72 2158,-108"/>
<text text-anchor="middle" x="2089.5" y="-86.3" font-family="Times,serif" font-size="14.00">A:assumpCTNTD</text>
</g>
<!-- assumpWAL -->
<g id="node17" class="node">
<title>assumpWAL</title>
<polygon fill="mistyrose" stroke="black" points="2294.5,-108 2176.5,-108 2176.5,-72 2294.5,-72 2294.5,-108"/>
<text text-anchor="middle" x="2235.5" y="-86.3" font-family="Times,serif" font-size="14.00">A:assumpWAL</text>
</g>
<!-- assumpPIT -->
<g id="node18" class="node">
<title>assumpPIT</title>
<polygon fill="mistyrose" stroke="black" points="2422.5,-108 2312.5,-108 2312.5,-72 2422.5,-72 2422.5,-108"/>
<text text-anchor="middle" x="2367.5" y="-86.3" font-family="Times,serif" font-size="14.00">A:assumpPIT</text>
</g>
<!-- assumpNIHGBW -->
<g id="node19" class="node">
<title>assumpNIHGBW</title>
<polygon fill="mistyrose" stroke="black" points="2592,-108 2441,-108 2441,-72 2592,-72 2592,-108"/>
<text text-anchor="middle" x="2516.5" y="-86.3" font-family="Times,serif" font-size="14.00">A:assumpNIHGBW</text>
</g>
<!-- assumpAPT -->
<g id="node20" class="node">
<title>assumpAPT</title>
<polygon fill="mistyrose" stroke="black" points="2724.5,-108 2610.5,-108 2610.5,-72 2724.5,-72 2724.5,-108"/>
<text text-anchor="middle" x="2667.5" y="-86.3" font-family="Times,serif" font-size="14.00">A:assumpAPT</text>
</g>
<!-- assumpVCN -->
<g id="node21" class="node">
<title>assumpVCN</title>
<polygon fill="mistyrose" stroke="black" points="2860.5,-108 2742.5,-108 2742.5,-72 2860.5,-72 2860.5,-108"/>
<text text-anchor="middle" x="2801.5" y="-86.3" font-family="Times,serif" font-size="14.00">A:assumpVCN</text>
</g>
<!-- checkWithPhysConsts -->
<g id="node22" class="node">
<title>checkWithPhysConsts</title>
<polygon fill="ivory" stroke="black" points="3078,-108 2879,-108 2879,-72 3078,-72 3078,-108"/>
<text text-anchor="middle" x="2978.5" y="-86.3" font-family="Times,serif" font-size="14.00">FR:checkWithPhysConsts</text>
</g>
<!-- correct -->
<g id="node23" class="node">
<title>correct</title>
<polygon fill="ivory" stroke="black" points="3200.5,-108 3096.5,-108 3096.5,-72 3200.5,-72 3200.5,-108"/>
<text text-anchor="middle" x="3148.5" y="-86.3" font-family="Times,serif" font-size="14.00">NFR:correct</text>
</g>
<!-- verifiable -->
<g id="node24" class="node">
<title>verifiable</title>
<polygon fill="ivory" stroke="black" points="3338.5,-108 3218.5,-108 3218.5,-72 3338.5,-72 3338.5,-108"/>
<text text-anchor="middle" x="3278.5" y="-86.3" font-family="Times,serif" font-size="14.00">NFR:verifiable</text>
</g>
<!-- understandable -->
<g id="node25" class="node">
<title>understandable</title>
<polygon fill="ivory" stroke="black" points="3522,-108 3357,-108 3357,-72 3522,-72 3522,-108"/>
<text text-anchor="middle" x="3439.5" y="-86.3" font-family="Times,serif" font-size="14.00">NFR:understandable</text>
</g>
<!-- reusable -->
<g id="node26" class="node">
<title>reusable</title>
<polygon fill="ivory" stroke="black" points="3655,-108 3540,-108 3540,-72 3655,-72 3655,-108"/>
<text text-anchor="middle" x="3597.5" y="-86.3" font-family="Times,serif" font-size="14.00">NFR:reusable</text>
</g>
<!-- maintainable -->
<g id="node27" class="node">
<title>maintainable</title>
<polygon fill="ivory" stroke="black" points="3819.5,-108 3673.5,-108 3673.5,-72 3819.5,-72 3819.5,-108"/>
<text text-anchor="middle" x="3746.5" y="-86.3" font-family="Times,serif" font-size="14.00">NFR:maintainable</text>
</g>
<!-- waterTempGS -->
<g id="node28" class="node">
<title>waterTempGS</title>
<polygon fill="#ffb90f" stroke="black" points="3981,-108 3838,-108 3838,-72 3981,-72 3981,-108"/>
<text text-anchor="middle" x="3909.5" y="-86.3" font-family="Times,serif" font-size="14.00">GS:waterTempGS</text>
</g>
<!-- waterEnergyGS -->
<g id="node29" class="node">
<title>waterEnergyGS</title>
<polygon fill="#ffb90f" stroke="black" points="4155.5,-108 3999.5,-108 3999.5,-72 4155.5,-72 4155.5,-108"/>
<text text-anchor="middle" x="4077.5" y="-86.3" font-family="Times,serif" font-size="14.00">GS:waterEnergyGS</text>
</g>
</g>
</svg>
