<?xml version="1.0" encoding="UTF-8" standalone="no"?>
<!DOCTYPE svg PUBLIC "-//W3C//DTD SVG 1.1//EN"
 "http://www.w3.org/Graphics/SVG/1.1/DTD/svg11.dtd">
<!-- Generated by graphviz version 2.43.0 (0)
 -->
<!-- Title: allvsr Pages: 1 -->
<svg width="4164pt" height="141pt"
 viewBox="0.00 0.00 4163.50 140.50" xmlns="http://www.w3.org/2000/svg" xmlns:xlink="http://www.w3.org/1999/xlink">
<g id="graph0" class="graph" transform="scale(1 1) rotate(0) translate(4 136.5)">
<title>allvsr</title>
<polygon fill="white" stroke="transparent" points="-4,4 -4,-136.5 4159.5,-136.5 4159.5,4 -4,4"/>
<!-- findMass -->
<g id="node1" class="node">
<title>findMass</title>
<polygon fill="ivory" stroke="black" points="606.5,-108 500.5,-108 500.5,-72 606.5,-72 606.5,-108"/>
<text text-anchor="middle" x="553.5" y="-86.3" font-family="Times,serif" font-size="14.00">FR:findMass</text>
</g>
<!-- wMass -->
<g id="node2" class="node">
<title>wMass</title>
<polygon fill="#bbffff" stroke="black" points="610.5,-36 488.5,-36 488.5,0 610.5,0 610.5,-36"/>
<text text-anchor="middle" x="549.5" y="-14.3" font-family="Times,serif" font-size="14.00">DD:waterMass</text>
</g>
<!-- findMass&#45;&gt;wMass -->
<g id="edge1" class="edge">
<title>findMass&#45;&gt;wMass</title>
<path fill="none" stroke="black" d="M552.51,-71.7C552.07,-63.98 551.54,-54.71 551.05,-46.11"/>
<polygon fill="black" stroke="black" points="554.54,-45.89 550.48,-36.1 547.55,-46.29 554.54,-45.89"/>
</g>
<!-- wVol -->
<g id="node3" class="node">
<title>wVol</title>
<polygon fill="#bbffff" stroke="black" points="818,-36 629,-36 629,0 818,0 818,-36"/>
<text text-anchor="middle" x="723.5" y="-14.3" font-family="Times,serif" font-size="14.00">DD:waterVolume.nopcm</text>
</g>
<!-- findMass&#45;&gt;wVol -->
<g id="edge2" class="edge">
<title>findMass&#45;&gt;wVol</title>
<path fill="none" stroke="black" d="M595.09,-71.88C618.53,-62.22 648,-50.09 672.8,-39.88"/>
<polygon fill="black" stroke="black" points="674.13,-43.11 682.05,-36.07 671.47,-36.64 674.13,-43.11"/>
</g>
<!-- tankVol -->
<g id="node4" class="node">
<title>tankVol</title>
<polygon fill="#bbffff" stroke="black" points="964.5,-36 836.5,-36 836.5,0 964.5,0 964.5,-36"/>
<text text-anchor="middle" x="900.5" y="-14.3" font-family="Times,serif" font-size="14.00">DD:tankVolume</text>
</g>
<!-- findMass&#45;&gt;tankVol -->
<g id="edge3" class="edge">
<title>findMass&#45;&gt;tankVol</title>
<path fill="none" stroke="black" d="M606.69,-74.27C610,-73.47 613.29,-72.71 616.5,-72 706.33,-52.26 732.52,-54.61 826.52,-36.12"/>
<polygon fill="black" stroke="black" points="827.33,-39.53 836.45,-34.14 825.96,-32.67 827.33,-39.53"/>
</g>
<!-- theory -->
<g id="node5" class="node">
<title>theory</title>
<polygon fill="#fff68f" stroke="black" points="273.5,-36 149.5,-36 149.5,0 273.5,0 273.5,-36"/>
<text text-anchor="middle" x="211.5" y="-14.3" font-family="Times,serif" font-size="14.00">IM:heatEInWtr</text>
</g>
<!-- findMass&#45;&gt;theory -->
<g id="edge4" class="edge">
<title>findMass&#45;&gt;theory:eBalanceOnWtrRC</title>
<path fill="none" stroke="black" d="M500.35,-73.85C497.7,-73.2 495.07,-72.58 492.5,-72 401.85,-51.5 377.63,-54.28 286.5,-36 285.58,-35.82 284.66,-35.63 283.73,-35.44"/>
<polygon fill="black" stroke="black" points="284.16,-31.95 273.66,-33.34 282.73,-38.81 284.16,-31.95"/>
</g>
<!-- inputValues -->
<g id="node6" class="node">
<title>inputValues</title>
<polygon fill="ivory" stroke="black" points="750,-108 625,-108 625,-72 750,-72 750,-108"/>
<text text-anchor="middle" x="687.5" y="-86.3" font-family="Times,serif" font-size="14.00">FR:inputValues</text>
</g>
<!-- findMass&#45;&gt;inputValues -->
<g id="edge5" class="edge">
<title>findMass&#45;&gt;inputValues</title>
<path fill="none" stroke="black" d="M606.63,-90C609.4,-90 612.16,-90 614.93,-90"/>
<polygon fill="black" stroke="black" points="614.95,-93.5 624.95,-90 614.95,-86.5 614.95,-93.5"/>
</g>
<!-- outputInputDerivVals -->
<g id="node7" class="node">
<title>outputInputDerivVals</title>
<polygon fill="ivory" stroke="black" points="483,-108 288,-108 288,-72 483,-72 483,-108"/>
<text text-anchor="middle" x="385.5" y="-86.3" font-family="Times,serif" font-size="14.00">FR:outputInputDerivVals</text>
</g>
<!-- outputInputDerivVals&#45;&gt;findMass -->
<g id="edge8" class="edge">
<title>outputInputDerivVals&#45;&gt;findMass</title>
<path fill="none" stroke="black" d="M483.28,-90C485.58,-90 487.89,-90 490.19,-90"/>
<polygon fill="black" stroke="black" points="490.29,-93.5 500.29,-90 490.29,-86.5 490.29,-93.5"/>
</g>
<!-- outputInputDerivVals&#45;&gt;inputValues -->
<g id="edge7" class="edge">
<title>outputInputDerivVals&#45;&gt;inputValues</title>
<path fill="none" stroke="black" d="M432.02,-108.09C452.65,-115.19 477.44,-122.48 500.5,-126 547.07,-133.12 560.42,-135.78 606.5,-126 619.82,-123.17 633.6,-118 645.94,-112.45"/>
<polygon fill="black" stroke="black" points="647.5,-115.58 655.06,-108.15 644.52,-109.24 647.5,-115.58"/>
</g>
<!-- tauW -->
<g id="node8" class="node">
<title>tauW</title>
<polygon fill="#bbffff" stroke="black" points="470,-36 295,-36 295,0 470,0 470,-36"/>
<text text-anchor="middle" x="382.5" y="-14.3" font-family="Times,serif" font-size="14.00">DD:balanceDecayRate</text>
</g>
<!-- outputInputDerivVals&#45;&gt;tauW -->
<g id="edge6" class="edge">
<title>outputInputDerivVals&#45;&gt;tauW</title>
<path fill="none" stroke="black" d="M384.76,-71.7C384.43,-63.98 384.03,-54.71 383.66,-46.11"/>
<polygon fill="black" stroke="black" points="387.16,-45.95 383.23,-36.1 380.16,-46.25 387.16,-45.95"/>
</g>
<!-- calcValues -->
<g id="node9" class="node">
<title>calcValues</title>
<polygon fill="ivory" stroke="black" points="269.5,-108 153.5,-108 153.5,-72 269.5,-72 269.5,-108"/>
<text text-anchor="middle" x="211.5" y="-86.3" font-family="Times,serif" font-size="14.00">FR:calcValues</text>
</g>
<!-- calcValues&#45;&gt;theory -->
<g id="edge9" class="edge">
<title>calcValues&#45;&gt;theory:eBalanceOnWtrRC</title>
<path fill="none" stroke="black" d="M205.58,-71.7C204.79,-63.98 204.56,-54.71 204.9,-46.11"/>
<polygon fill="black" stroke="black" points="208.4,-46.32 205.6,-36.1 201.42,-45.84 208.4,-46.32"/>
</g>
<!-- calcValues&#45;&gt;theory -->
<g id="edge10" class="edge">
<title>calcValues&#45;&gt;theory:heatEInWtrIM</title>
<path fill="none" stroke="black" d="M217.42,-71.7C218.21,-63.98 218.44,-54.71 218.1,-46.11"/>
<polygon fill="black" stroke="black" points="221.58,-45.84 217.4,-36.1 214.6,-46.32 221.58,-45.84"/>
</g>
<!-- outputValues -->
<g id="node10" class="node">
<title>outputValues</title>
<polygon fill="ivory" stroke="black" points="135,-108 0,-108 0,-72 135,-72 135,-108"/>
<text text-anchor="middle" x="67.5" y="-86.3" font-family="Times,serif" font-size="14.00">FR:outputValues</text>
</g>
<!-- outputValues&#45;&gt;theory -->
<g id="edge11" class="edge">
<title>outputValues&#45;&gt;theory:eBalanceOnWtrRC</title>
<path fill="none" stroke="black" d="M96.83,-71.88C115.35,-62.39 139.66,-50.51 161.16,-40.42"/>
<polygon fill="black" stroke="black" points="162.91,-43.47 170.5,-36.07 159.95,-37.12 162.91,-43.47"/>
</g>
<!-- outputValues&#45;&gt;theory -->
<g id="edge12" class="edge">
<title>outputValues&#45;&gt;theory:heatEInWtrIM</title>
<path fill="none" stroke="black" d="M108.62,-71.88C128.87,-62.51 153.07,-50.81 172.95,-40.8"/>
<polygon fill="black" stroke="black" points="174.71,-43.84 182.04,-36.19 171.54,-37.59 174.71,-43.84"/>
</g>
<!-- assumpTEO -->
<g id="node11" class="node">
<title>assumpTEO</title>
<polygon fill="mistyrose" stroke="black" points="884.5,-108 768.5,-108 768.5,-72 884.5,-72 884.5,-108"/>
<text text-anchor="middle" x="826.5" y="-86.3" font-family="Times,serif" font-size="14.00">A:assumpTEO</text>
</g>
<!-- assumpHTCC -->
<g id="node12" class="node">
<title>assumpHTCC</title>
<polygon fill="mistyrose" stroke="black" points="1030.5,-108 902.5,-108 902.5,-72 1030.5,-72 1030.5,-108"/>
<text text-anchor="middle" x="966.5" y="-86.3" font-family="Times,serif" font-size="14.00">A:assumpHTCC</text>
</g>
<!-- assumpCWTAT -->
<g id="node13" class="node">
<title>assumpCWTAT</title>
<polygon fill="mistyrose" stroke="black" points="1186,-108 1049,-108 1049,-72 1186,-72 1186,-108"/>
<text text-anchor="middle" x="1117.5" y="-86.3" font-family="Times,serif" font-size="14.00">A:assumpCWTAT</text>
</g>
<!-- assumpDWCoW -->
<g id="node14" class="node">
<title>assumpDWCoW</title>
<polygon fill="mistyrose" stroke="black" points="1348.5,-108 1204.5,-108 1204.5,-72 1348.5,-72 1348.5,-108"/>
<text text-anchor="middle" x="1276.5" y="-86.3" font-family="Times,serif" font-size="14.00">A:assumpDWCoW</text>
</g>
<!-- assumpSHECoW -->
<g id="node15" class="node">
<title>assumpSHECoW</title>
<polygon fill="mistyrose" stroke="black" points="1518,-108 1367,-108 1367,-72 1518,-72 1518,-108"/>
<text text-anchor="middle" x="1442.5" y="-86.3" font-family="Times,serif" font-size="14.00">A:assumpSHECoW</text>
</g>
<!-- assumpLCCCW -->
<g id="node16" class="node">
<title>assumpLCCCW</title>
<polygon fill="mistyrose" stroke="black" points="1676.5,-108 1536.5,-108 1536.5,-72 1676.5,-72 1676.5,-108"/>
<text text-anchor="middle" x="1606.5" y="-86.3" font-family="Times,serif" font-size="14.00">A:assumpLCCCW</text>
</g>
<!-- assumpTHCCoT -->
<g id="node17" class="node">
<title>assumpTHCCoT</title>
<polygon fill="mistyrose" stroke="black" points="1840,-108 1695,-108 1695,-72 1840,-72 1840,-108"/>
<text text-anchor="middle" x="1767.5" y="-86.3" font-family="Times,serif" font-size="14.00">A:assumpTHCCoT</text>
</g>
<!-- assumpTHCCoL -->
<g id="node18" class="node">
<title>assumpTHCCoL</title>
<polygon fill="mistyrose" stroke="black" points="2003,-108 1858,-108 1858,-72 2003,-72 2003,-108"/>
<text text-anchor="middle" x="1930.5" y="-86.3" font-family="Times,serif" font-size="14.00">A:assumpTHCCoL</text>
</g>
<!-- assumpCTNTD -->
<g id="node19" class="node">
<title>assumpCTNTD</title>
<polygon fill="mistyrose" stroke="black" points="2158,-108 2021,-108 2021,-72 2158,-72 2158,-108"/>
<text text-anchor="middle" x="2089.5" y="-86.3" font-family="Times,serif" font-size="14.00">A:assumpCTNTD</text>
</g>
<!-- assumpWAL -->
<g id="node20" class="node">
<title>assumpWAL</title>
<polygon fill="mistyrose" stroke="black" points="2294.5,-108 2176.5,-108 2176.5,-72 2294.5,-72 2294.5,-108"/>
<text text-anchor="middle" x="2235.5" y="-86.3" font-family="Times,serif" font-size="14.00">A:assumpWAL</text>
</g>
<!-- assumpPIT -->
<g id="node21" class="node">
<title>assumpPIT</title>
<polygon fill="mistyrose" stroke="black" points="2422.5,-108 2312.5,-108 2312.5,-72 2422.5,-72 2422.5,-108"/>
<text text-anchor="middle" x="2367.5" y="-86.3" font-family="Times,serif" font-size="14.00">A:assumpPIT</text>
</g>
<!-- assumpNIHGBW -->
<g id="node22" class="node">
<title>assumpNIHGBW</title>
<polygon fill="mistyrose" stroke="black" points="2592,-108 2441,-108 2441,-72 2592,-72 2592,-108"/>
<text text-anchor="middle" x="2516.5" y="-86.3" font-family="Times,serif" font-size="14.00">A:assumpNIHGBW</text>
</g>
<!-- assumpAPT -->
<g id="node23" class="node">
<title>assumpAPT</title>
<polygon fill="mistyrose" stroke="black" points="2724.5,-108 2610.5,-108 2610.5,-72 2724.5,-72 2724.5,-108"/>
<text text-anchor="middle" x="2667.5" y="-86.3" font-family="Times,serif" font-size="14.00">A:assumpAPT</text>
</g>
<!-- assumpVCN -->
<g id="node24" class="node">
<title>assumpVCN</title>
<polygon fill="mistyrose" stroke="black" points="2860.5,-108 2742.5,-108 2742.5,-72 2860.5,-72 2860.5,-108"/>
<text text-anchor="middle" x="2801.5" y="-86.3" font-family="Times,serif" font-size="14.00">A:assumpVCN</text>
</g>
<!-- checkWithPhysConsts -->
<g id="node25" class="node">
<title>checkWithPhysConsts</title>
<polygon fill="ivory" stroke="black" points="3078,-108 2879,-108 2879,-72 3078,-72 3078,-108"/>
<text text-anchor="middle" x="2978.5" y="-86.3" font-family="Times,serif" font-size="14.00">FR:checkWithPhysConsts</text>
</g>
<!-- correct -->
<g id="node26" class="node">
<title>correct</title>
<polygon fill="ivory" stroke="black" points="3200.5,-108 3096.5,-108 3096.5,-72 3200.5,-72 3200.5,-108"/>
<text text-anchor="middle" x="3148.5" y="-86.3" font-family="Times,serif" font-size="14.00">NFR:correct</text>
</g>
<!-- verifiable -->
<g id="node27" class="node">
<title>verifiable</title>
<polygon fill="ivory" stroke="black" points="3338.5,-108 3218.5,-108 3218.5,-72 3338.5,-72 3338.5,-108"/>
<text text-anchor="middle" x="3278.5" y="-86.3" font-family="Times,serif" font-size="14.00">NFR:verifiable</text>
</g>
<!-- understandable -->
<g id="node28" class="node">
<title>understandable</title>
<polygon fill="ivory" stroke="black" points="3522,-108 3357,-108 3357,-72 3522,-72 3522,-108"/>
<text text-anchor="middle" x="3439.5" y="-86.3" font-family="Times,serif" font-size="14.00">NFR:understandable</text>
</g>
<!-- reusable -->
<g id="node29" class="node">
<title>reusable</title>
<polygon fill="ivory" stroke="black" points="3655,-108 3540,-108 3540,-72 3655,-72 3655,-108"/>
<text text-anchor="middle" x="3597.5" y="-86.3" font-family="Times,serif" font-size="14.00">NFR:reusable</text>
</g>
<!-- maintainable -->
<g id="node30" class="node">
<title>maintainable</title>
<polygon fill="ivory" stroke="black" points="3819.5,-108 3673.5,-108 3673.5,-72 3819.5,-72 3819.5,-108"/>
<text text-anchor="middle" x="3746.5" y="-86.3" font-family="Times,serif" font-size="14.00">NFR:maintainable</text>
</g>
<!-- waterTempGS -->
<g id="node31" class="node">
<title>waterTempGS</title>
<polygon fill="#ffb90f" stroke="black" points="3981,-108 3838,-108 3838,-72 3981,-72 3981,-108"/>
<text text-anchor="middle" x="3909.5" y="-86.3" font-family="Times,serif" font-size="14.00">GS:waterTempGS</text>
</g>
<!-- waterEnergyGS -->
<g id="node32" class="node">
<title>waterEnergyGS</title>
<polygon fill="#ffb90f" stroke="black" points="4155.5,-108 3999.5,-108 3999.5,-72 4155.5,-72 4155.5,-108"/>
<text text-anchor="middle" x="4077.5" y="-86.3" font-family="Times,serif" font-size="14.00">GS:waterEnergyGS</text>
</g>
</g>
</svg>
