<?xml version="1.0" encoding="UTF-8" standalone="no"?>
<!DOCTYPE svg PUBLIC "-//W3C//DTD SVG 1.1//EN"
 "http://www.w3.org/Graphics/SVG/1.1/DTD/svg11.dtd">
<!-- Generated by graphviz version 2.43.0 (0)
 -->
<!-- Title: allvsall Pages: 1 -->
<svg width="3681pt" height="293pt"
 viewBox="0.00 0.00 3681.00 292.92" xmlns="http://www.w3.org/2000/svg" xmlns:xlink="http://www.w3.org/1999/xlink">
<g id="graph0" class="graph" transform="scale(1 1) rotate(0) translate(4 288.92)">
<title>allvsall</title>
<polygon fill="white" stroke="transparent" points="-4,4 -4,-288.92 3677,-288.92 3677,4 -4,4"/>
<!-- wVol -->
<g id="node1" class="node">
<title>wVol</title>
<polygon fill="#bbffff" stroke="black" points="1987.5,-108 1798.5,-108 1798.5,-72 1987.5,-72 1987.5,-108"/>
<text text-anchor="middle" x="1893" y="-86.3" font-family="Times,serif" font-size="14.00">DD:waterVolume.nopcm</text>
</g>
<!-- assumpVCN -->
<g id="node2" class="node">
<title>assumpVCN</title>
<polygon fill="mistyrose" stroke="black" points="1952,-36 1834,-36 1834,0 1952,0 1952,-36"/>
<text text-anchor="middle" x="1893" y="-14.3" font-family="Times,serif" font-size="14.00">A:assumpVCN</text>
</g>
<!-- wVol&#45;&gt;assumpVCN -->
<g id="edge1" class="edge">
<title>wVol&#45;&gt;assumpVCN</title>
<path fill="none" stroke="black" d="M1893,-71.7C1893,-63.98 1893,-54.71 1893,-46.11"/>
<polygon fill="black" stroke="black" points="1896.5,-46.1 1893,-36.1 1889.5,-46.1 1896.5,-46.1"/>
</g>
<!-- tankVol -->
<g id="node3" class="node">
<title>tankVol</title>
<polygon fill="#bbffff" stroke="black" points="2134,-108 2006,-108 2006,-72 2134,-72 2134,-108"/>
<text text-anchor="middle" x="2070" y="-86.3" font-family="Times,serif" font-size="14.00">DD:tankVolume</text>
</g>
<!-- wVol&#45;&gt;tankVol -->
<g id="edge2" class="edge">
<title>wVol&#45;&gt;tankVol</title>
<path fill="none" stroke="black" d="M1987.72,-90C1990.35,-90 1992.97,-90 1995.6,-90"/>
<polygon fill="black" stroke="black" points="1995.72,-93.5 2005.72,-90 1995.72,-86.5 1995.72,-93.5"/>
</g>
<!-- theory -->
<g id="node4" class="node">
<title>theory</title>
<polygon fill="#fff68f" stroke="black" points="1001,-180 849,-180 849,-144 1001,-144 1001,-180"/>
<text text-anchor="middle" x="925" y="-158.3" font-family="Times,serif" font-size="14.00">IM:eBalanceOnWtr</text>
</g>
<!-- theory&#45;&gt;theory -->
<g id="edge9" class="edge">
<title>theory:rocTempSimpRC&#45;&gt;theory:consThermECS</title>
<path fill="none" stroke="black" d="M1001.35,-165.01C1011.93,-164.52 1019,-163.51 1019,-162 1019,-161.06 1016.24,-160.31 1011.58,-159.76"/>
<polygon fill="black" stroke="black" points="1011.58,-156.25 1001.35,-158.99 1011.06,-163.23 1011.58,-156.25"/>
</g>
<!-- theory&#45;&gt;theory -->
<g id="edge10" class="edge">
<title>theory:rocTempSimpRC&#45;&gt;theory:rocTempSimpRC</title>
<path fill="none" stroke="black" d="M1001.17,-168.7C1021.54,-168.33 1037,-166.1 1037,-162 1037,-158.61 1026.4,-156.49 1011.18,-155.66"/>
<polygon fill="black" stroke="black" points="1011.28,-152.16 1001.17,-155.3 1011.04,-159.16 1011.28,-152.16"/>
</g>
<!-- theory&#45;&gt;theory -->
<g id="edge18" class="edge">
<title>theory:eBalanceOnWtrRC&#45;&gt;theory:rocTempSimpRC</title>
<path fill="none" stroke="black" d="M1001.11,-172.09C1030.54,-172.53 1055,-169.17 1055,-162 1055,-155.67 1035.94,-152.31 1011.22,-151.91"/>
<polygon fill="black" stroke="black" points="1011.11,-148.41 1001.11,-151.91 1011.11,-155.41 1011.11,-148.41"/>
</g>
<!-- theory&#45;&gt;theory -->
<g id="edge19" class="edge">
<title>theory:eBalanceOnWtrRC&#45;&gt;theory:htFluxC</title>
<path fill="none" stroke="black" d="M1001.15,-175.1C1039.13,-176.91 1073,-172.55 1073,-162 1073,-152.4 1044.94,-147.92 1011.26,-148.56"/>
<polygon fill="black" stroke="black" points="1011.03,-145.07 1001.15,-148.9 1011.26,-152.06 1011.03,-145.07"/>
</g>
<!-- assumpTEO -->
<g id="node5" class="node">
<title>assumpTEO</title>
<polygon fill="mistyrose" stroke="black" points="893,-36 777,-36 777,0 893,0 893,-36"/>
<text text-anchor="middle" x="835" y="-14.3" font-family="Times,serif" font-size="14.00">A:assumpTEO</text>
</g>
<!-- theory&#45;&gt;assumpTEO -->
<g id="edge3" class="edge">
<title>theory:consThermECS&#45;&gt;assumpTEO</title>
<path fill="none" stroke="black" d="M914.14,-143.87C898.53,-119.24 869.63,-73.64 851.41,-44.88"/>
<polygon fill="black" stroke="black" points="854.2,-42.76 845.89,-36.19 848.29,-46.51 854.2,-42.76"/>
</g>
<!-- assumpWAL -->
<g id="node6" class="node">
<title>assumpWAL</title>
<polygon fill="mistyrose" stroke="black" points="1199,-36 1081,-36 1081,0 1199,0 1199,-36"/>
<text text-anchor="middle" x="1140" y="-14.3" font-family="Times,serif" font-size="14.00">A:assumpWAL</text>
</g>
<!-- theory&#45;&gt;assumpWAL -->
<g id="edge4" class="edge">
<title>theory:sensHeat&#45;&gt;assumpWAL</title>
<path fill="none" stroke="black" d="M1001,-144C1032.26,-107.08 1075.57,-67.2 1105.67,-42.66"/>
<polygon fill="black" stroke="black" points="1108.17,-45.14 1113.79,-36.16 1103.8,-39.68 1108.17,-45.14"/>
</g>
<!-- theory&#45;&gt;assumpWAL -->
<g id="edge14" class="edge">
<title>theory:eBalanceOnWtrRC&#45;&gt;assumpWAL</title>
<path fill="none" stroke="black" d="M1001.4,-143.66C1043.74,-106.95 1090.88,-67.37 1118.03,-42.89"/>
<polygon fill="black" stroke="black" points="1120.44,-45.43 1125.46,-36.1 1115.72,-40.26 1120.44,-45.43"/>
</g>
<!-- nwtnCoolingTM -->
<g id="node7" class="node">
<title>nwtnCoolingTM</title>
<polygon fill="pink" stroke="black" points="1694,-180 1560,-180 1560,-144 1694,-144 1694,-180"/>
<text text-anchor="middle" x="1627" y="-158.3" font-family="Times,serif" font-size="14.00">TM:nwtnCooling</text>
</g>
<!-- theory&#45;&gt;nwtnCoolingTM -->
<g id="edge13" class="edge">
<title>theory:htFluxC&#45;&gt;nwtnCoolingTM</title>
<path fill="none" stroke="black" d="M1001.1,-162C1183.95,-162 1366.81,-162 1549.67,-162"/>
<polygon fill="black" stroke="black" points="1549.76,-165.5 1559.76,-162 1549.76,-158.5 1549.76,-165.5"/>
</g>
<!-- assumpCWTAT -->
<g id="node9" class="node">
<title>assumpCWTAT</title>
<polygon fill="mistyrose" stroke="black" points="589.5,-36 452.5,-36 452.5,0 589.5,0 589.5,-36"/>
<text text-anchor="middle" x="521" y="-14.3" font-family="Times,serif" font-size="14.00">A:assumpCWTAT</text>
</g>
<!-- theory&#45;&gt;assumpCWTAT -->
<g id="edge6" class="edge">
<title>theory:rocTempSimpRC&#45;&gt;assumpCWTAT</title>
<path fill="none" stroke="black" d="M876.27,-143.87C801.7,-117.66 659.54,-67.69 579.51,-39.56"/>
<polygon fill="black" stroke="black" points="580.18,-36.09 569.59,-36.08 577.86,-42.7 580.18,-36.09"/>
</g>
<!-- assumpDWCoW -->
<g id="node10" class="node">
<title>assumpDWCoW</title>
<polygon fill="mistyrose" stroke="black" points="276,-36 132,-36 132,0 276,0 276,-36"/>
<text text-anchor="middle" x="204" y="-14.3" font-family="Times,serif" font-size="14.00">A:assumpDWCoW</text>
</g>
<!-- theory&#45;&gt;assumpDWCoW -->
<g id="edge7" class="edge">
<title>theory:rocTempSimpRC&#45;&gt;assumpDWCoW</title>
<path fill="none" stroke="black" d="M848.7,-151.62C753.83,-139.76 597.39,-119.51 540,-108 444.98,-88.95 336.94,-58.77 269.62,-38.93"/>
<polygon fill="black" stroke="black" points="270.57,-35.56 259.98,-36.08 268.58,-42.27 270.57,-35.56"/>
</g>
<!-- assumpSHECoW -->
<g id="node11" class="node">
<title>assumpSHECoW</title>
<polygon fill="mistyrose" stroke="black" points="1062.5,-36 911.5,-36 911.5,0 1062.5,0 1062.5,-36"/>
<text text-anchor="middle" x="987" y="-14.3" font-family="Times,serif" font-size="14.00">A:assumpSHECoW</text>
</g>
<!-- theory&#45;&gt;assumpSHECoW -->
<g id="edge8" class="edge">
<title>theory:rocTempSimpRC&#45;&gt;assumpSHECoW</title>
<path fill="none" stroke="black" d="M932.48,-143.87C943.14,-119.46 962.8,-74.43 975.37,-45.64"/>
<polygon fill="black" stroke="black" points="978.7,-46.75 979.49,-36.19 972.29,-43.95 978.7,-46.75"/>
</g>
<!-- assumpLCCCW -->
<g id="node12" class="node">
<title>assumpLCCCW</title>
<polygon fill="mistyrose" stroke="black" points="434,-36 294,-36 294,0 434,0 434,-36"/>
<text text-anchor="middle" x="364" y="-14.3" font-family="Times,serif" font-size="14.00">A:assumpLCCCW</text>
</g>
<!-- theory&#45;&gt;assumpLCCCW -->
<g id="edge11" class="edge">
<title>theory:htFluxC&#45;&gt;assumpLCCCW</title>
<path fill="none" stroke="black" d="M848.8,-146.68C798.17,-136.78 730.34,-122.77 671,-108 586.15,-86.88 489.44,-58.04 427.62,-38.99"/>
<polygon fill="black" stroke="black" points="428.6,-35.62 418.01,-36.02 426.53,-42.31 428.6,-35.62"/>
</g>
<!-- assumpTHCCoT -->
<g id="node13" class="node">
<title>assumpTHCCoT</title>
<polygon fill="mistyrose" stroke="black" points="1362.5,-36 1217.5,-36 1217.5,0 1362.5,0 1362.5,-36"/>
<text text-anchor="middle" x="1290" y="-14.3" font-family="Times,serif" font-size="14.00">A:assumpTHCCoT</text>
</g>
<!-- theory&#45;&gt;assumpTHCCoT -->
<g id="edge12" class="edge">
<title>theory:htFluxC&#45;&gt;assumpTHCCoT</title>
<path fill="none" stroke="black" d="M979.14,-143.89C1009.58,-133.98 1048.14,-120.94 1082,-108 1138,-86.61 1201.15,-59.09 1243.03,-40.36"/>
<polygon fill="black" stroke="black" points="1244.72,-43.43 1252.41,-36.14 1241.85,-37.04 1244.72,-43.43"/>
</g>
<!-- assumpPIT -->
<g id="node14" class="node">
<title>assumpPIT</title>
<polygon fill="mistyrose" stroke="black" points="1527,-36 1417,-36 1417,0 1527,0 1527,-36"/>
<text text-anchor="middle" x="1472" y="-14.3" font-family="Times,serif" font-size="14.00">A:assumpPIT</text>
</g>
<!-- theory&#45;&gt;assumpPIT -->
<g id="edge15" class="edge">
<title>theory:eBalanceOnWtrRC&#45;&gt;assumpPIT</title>
<path fill="none" stroke="black" d="M995.78,-143.93C1037.75,-133.72 1091.97,-120.36 1140,-108 1232.9,-84.1 1340.03,-55.12 1406.9,-36.87"/>
<polygon fill="black" stroke="black" points="1408.15,-40.16 1416.87,-34.14 1406.3,-33.4 1408.15,-40.16"/>
</g>
<!-- assumpNIHGBW -->
<g id="node15" class="node">
<title>assumpNIHGBW</title>
<polygon fill="mistyrose" stroke="black" points="758.5,-36 607.5,-36 607.5,0 758.5,0 758.5,-36"/>
<text text-anchor="middle" x="683" y="-14.3" font-family="Times,serif" font-size="14.00">A:assumpNIHGBW</text>
</g>
<!-- theory&#45;&gt;assumpNIHGBW -->
<g id="edge16" class="edge">
<title>theory:eBalanceOnWtrRC&#45;&gt;assumpNIHGBW</title>
<path fill="none" stroke="black" d="M904.55,-143.76C881.24,-124.64 841.49,-93.64 804,-72 783.16,-59.97 759.07,-48.9 737.91,-40.02"/>
<polygon fill="black" stroke="black" points="738.99,-36.68 728.41,-36.1 736.32,-43.15 738.99,-36.68"/>
</g>
<!-- tauW -->
<g id="node16" class="node">
<title>tauW</title>
<polygon fill="#bbffff" stroke="black" points="1503.5,-108 1328.5,-108 1328.5,-72 1503.5,-72 1503.5,-108"/>
<text text-anchor="middle" x="1416" y="-86.3" font-family="Times,serif" font-size="14.00">DD:balanceDecayRate</text>
</g>
<!-- theory&#45;&gt;tauW -->
<g id="edge17" class="edge">
<title>theory:eBalanceOnWtrRC&#45;&gt;tauW</title>
<path fill="none" stroke="black" d="M1001.13,-151.31C1079.62,-141.16 1205.5,-124.43 1314,-108 1315.47,-107.78 1316.95,-107.55 1318.44,-107.32"/>
<polygon fill="black" stroke="black" points="1319.05,-110.77 1328.39,-105.77 1317.97,-103.85 1319.05,-110.77"/>
</g>
<!-- assumpHTCC -->
<g id="node8" class="node">
<title>assumpHTCC</title>
<polygon fill="mistyrose" stroke="black" points="1691,-36 1563,-36 1563,0 1691,0 1691,-36"/>
<text text-anchor="middle" x="1627" y="-14.3" font-family="Times,serif" font-size="14.00">A:assumpHTCC</text>
</g>
<!-- nwtnCoolingTM&#45;&gt;assumpHTCC -->
<g id="edge5" class="edge">
<title>nwtnCoolingTM&#45;&gt;assumpHTCC</title>
<path fill="none" stroke="black" d="M1627,-143.87C1627,-119.67 1627,-75.21 1627,-46.39"/>
<polygon fill="black" stroke="black" points="1630.5,-46.19 1627,-36.19 1623.5,-46.19 1630.5,-46.19"/>
</g>
<!-- heatEInWtrIM -->
<g id="node17" class="node">
<title>heatEInWtrIM</title>
<polygon fill="#fff68f" stroke="black" points="762,-180 638,-180 638,-144 762,-144 762,-180"/>
<text text-anchor="middle" x="700" y="-158.3" font-family="Times,serif" font-size="14.00">IM:heatEInWtr</text>
</g>
<!-- heatEInWtrIM&#45;&gt;theory -->
<g id="edge22" class="edge">
<title>heatEInWtrIM&#45;&gt;theory:sensHeat</title>
<path fill="none" stroke="black" d="M762.36,-151.24C849.36,-136.73 998.93,-114.87 1006.16,-134.71"/>
<polygon fill="black" stroke="black" points="1002.89,-133.44 1002,-144 1009.28,-136.3 1002.89,-133.44"/>
</g>
<!-- heatEInWtrIM&#45;&gt;assumpWAL -->
<g id="edge20" class="edge">
<title>heatEInWtrIM&#45;&gt;assumpWAL</title>
<path fill="none" stroke="black" d="M753.07,-143.87C834.62,-117.56 990.38,-67.29 1077.34,-39.22"/>
<polygon fill="black" stroke="black" points="1078.64,-42.48 1087.08,-36.08 1076.49,-35.82 1078.64,-42.48"/>
</g>
<!-- assumpAPT -->
<g id="node18" class="node">
<title>assumpAPT</title>
<polygon fill="mistyrose" stroke="black" points="114,-36 0,-36 0,0 114,0 114,-36"/>
<text text-anchor="middle" x="57" y="-14.3" font-family="Times,serif" font-size="14.00">A:assumpAPT</text>
</g>
<!-- heatEInWtrIM&#45;&gt;assumpAPT -->
<g id="edge21" class="edge">
<title>heatEInWtrIM&#45;&gt;assumpAPT</title>
<path fill="none" stroke="black" d="M637.68,-158.28C520.28,-152.53 270.9,-137.22 190,-108 149.44,-93.35 109.18,-63.75 83.76,-42.71"/>
<polygon fill="black" stroke="black" points="85.95,-39.98 76.04,-36.21 81.44,-45.33 85.95,-39.98"/>
</g>
<!-- findMass -->
<g id="node19" class="node">
<title>findMass</title>
<polygon fill="ivory" stroke="black" points="1816,-252 1710,-252 1710,-216 1816,-216 1816,-252"/>
<text text-anchor="middle" x="1763" y="-230.3" font-family="Times,serif" font-size="14.00">FR:findMass</text>
</g>
<!-- findMass&#45;&gt;wVol -->
<g id="edge24" class="edge">
<title>findMass&#45;&gt;wVol</title>
<path fill="none" stroke="black" d="M1778.68,-215.87C1801.52,-190.92 1844.07,-144.45 1870.32,-115.77"/>
<polygon fill="black" stroke="black" points="1873.09,-117.93 1877.26,-108.19 1867.93,-113.2 1873.09,-117.93"/>
</g>
<!-- findMass&#45;&gt;tankVol -->
<g id="edge25" class="edge">
<title>findMass&#45;&gt;tankVol</title>
<path fill="none" stroke="black" d="M1800.03,-215.87C1856.04,-189.96 1962.24,-140.84 2023.42,-112.55"/>
<polygon fill="black" stroke="black" points="2025.23,-115.56 2032.84,-108.19 2022.29,-109.21 2025.23,-115.56"/>
</g>
<!-- findMass&#45;&gt;theory -->
<g id="edge26" class="edge">
<title>findMass&#45;&gt;theory:eBalanceOnWtrRC</title>
<path fill="none" stroke="black" d="M1709.89,-217.88C1706.55,-217.18 1703.24,-216.54 1700,-216 1452.39,-174.53 1155.08,-165.35 1011.29,-163.42"/>
<polygon fill="black" stroke="black" points="1011.25,-159.92 1001.2,-163.3 1011.16,-166.92 1011.25,-159.92"/>
</g>
<!-- wMass -->
<g id="node20" class="node">
<title>wMass</title>
<polygon fill="#bbffff" stroke="black" points="1780,-108 1658,-108 1658,-72 1780,-72 1780,-108"/>
<text text-anchor="middle" x="1719" y="-86.3" font-family="Times,serif" font-size="14.00">DD:waterMass</text>
</g>
<!-- findMass&#45;&gt;wMass -->
<g id="edge23" class="edge">
<title>findMass&#45;&gt;wMass</title>
<path fill="none" stroke="black" d="M1757.69,-215.87C1750.16,-191.56 1736.3,-146.82 1727.37,-118.01"/>
<polygon fill="black" stroke="black" points="1730.63,-116.71 1724.33,-108.19 1723.94,-118.78 1730.63,-116.71"/>
</g>
<!-- inputInitVals -->
<g id="node21" class="node">
<title>inputInitVals</title>
<polygon fill="ivory" stroke="black" points="1967.5,-252 1834.5,-252 1834.5,-216 1967.5,-216 1967.5,-252"/>
<text text-anchor="middle" x="1901" y="-230.3" font-family="Times,serif" font-size="14.00">FR:inputInitVals</text>
</g>
<!-- findMass&#45;&gt;inputInitVals -->
<g id="edge27" class="edge">
<title>findMass&#45;&gt;inputInitVals</title>
<path fill="none" stroke="black" d="M1816.1,-234C1818.76,-234 1821.42,-234 1824.08,-234"/>
<polygon fill="black" stroke="black" points="1824.34,-237.5 1834.34,-234 1824.34,-230.5 1824.34,-237.5"/>
</g>
<!-- outputInputDerivVals -->
<g id="node22" class="node">
<title>outputInputDerivVals</title>
<polygon fill="ivory" stroke="black" points="1548.5,-252 1353.5,-252 1353.5,-216 1548.5,-216 1548.5,-252"/>
<text text-anchor="middle" x="1451" y="-230.3" font-family="Times,serif" font-size="14.00">FR:outputInputDerivVals</text>
</g>
<!-- outputInputDerivVals&#45;&gt;tauW -->
<g id="edge28" class="edge">
<title>outputInputDerivVals&#45;&gt;tauW</title>
<path fill="none" stroke="black" d="M1446.78,-215.87C1440.79,-191.56 1429.76,-146.82 1422.66,-118.01"/>
<polygon fill="black" stroke="black" points="1426.03,-117.06 1420.24,-108.19 1419.23,-118.74 1426.03,-117.06"/>
</g>
<!-- outputInputDerivVals&#45;&gt;findMass -->
<g id="edge30" class="edge">
<title>outputInputDerivVals&#45;&gt;findMass</title>
<path fill="none" stroke="black" d="M1497.52,-252.09C1518.15,-259.19 1542.94,-266.48 1566,-270 1620.92,-278.39 1636.93,-282.76 1691,-270 1702.68,-267.24 1714.62,-262.29 1725.34,-256.92"/>
<polygon fill="black" stroke="black" points="1727.19,-259.9 1734.4,-252.13 1723.92,-253.7 1727.19,-259.9"/>
</g>
<!-- outputInputDerivVals&#45;&gt;inputInitVals -->
<g id="edge29" class="edge">
<title>outputInputDerivVals&#45;&gt;inputInitVals</title>
<path fill="none" stroke="black" d="M1497.52,-252.09C1518.15,-259.19 1542.94,-266.48 1566,-270 1675.84,-286.79 1707.11,-292.11 1816,-270 1830.03,-267.15 1844.61,-261.91 1857.66,-256.29"/>
<polygon fill="black" stroke="black" points="1859.17,-259.45 1866.86,-252.16 1856.31,-253.06 1859.17,-259.45"/>
</g>
<!-- calcValues -->
<g id="node23" class="node">
<title>calcValues</title>
<polygon fill="ivory" stroke="black" points="829,-252 713,-252 713,-216 829,-216 829,-252"/>
<text text-anchor="middle" x="771" y="-230.3" font-family="Times,serif" font-size="14.00">FR:calcValues</text>
</g>
<!-- calcValues&#45;&gt;theory -->
<g id="edge31" class="edge">
<title>calcValues&#45;&gt;theory:eBalanceOnWtrRC</title>
<path fill="none" stroke="black" d="M808.67,-215.88C829.63,-206.35 855.9,-194.41 878.18,-184.28"/>
<polygon fill="black" stroke="black" points="879.79,-187.39 887.45,-180.07 876.9,-181.02 879.79,-187.39"/>
</g>
<!-- calcValues&#45;&gt;heatEInWtrIM -->
<g id="edge32" class="edge">
<title>calcValues&#45;&gt;heatEInWtrIM</title>
<path fill="none" stroke="black" d="M753.45,-215.7C744.77,-207.14 734.14,-196.66 724.65,-187.3"/>
<polygon fill="black" stroke="black" points="726.93,-184.63 717.35,-180.1 722.01,-189.62 726.93,-184.63"/>
</g>
<!-- outputValues -->
<g id="node24" class="node">
<title>outputValues</title>
<polygon fill="ivory" stroke="black" points="694.5,-252 559.5,-252 559.5,-216 694.5,-216 694.5,-252"/>
<text text-anchor="middle" x="627" y="-230.3" font-family="Times,serif" font-size="14.00">FR:outputValues</text>
</g>
<!-- outputValues&#45;&gt;theory -->
<g id="edge33" class="edge">
<title>outputValues&#45;&gt;theory:eBalanceOnWtrRC</title>
<path fill="none" stroke="black" d="M694.62,-217.12C738.55,-206.8 796.09,-193.28 842.67,-182.34"/>
<polygon fill="black" stroke="black" points="843.51,-185.74 852.44,-180.04 841.9,-178.92 843.51,-185.74"/>
</g>
<!-- outputValues&#45;&gt;heatEInWtrIM -->
<g id="edge34" class="edge">
<title>outputValues&#45;&gt;heatEInWtrIM</title>
<path fill="none" stroke="black" d="M645.04,-215.7C654.06,-207.05 665.12,-196.45 674.94,-187.03"/>
<polygon fill="black" stroke="black" points="677.37,-189.55 682.16,-180.1 672.52,-184.5 677.37,-189.55"/>
</g>
<!-- likeChgTCVOD -->
<g id="node25" class="node">
<title>likeChgTCVOD</title>
<polygon fill="lavender" stroke="black" points="1335,-252 1189,-252 1189,-216 1335,-216 1335,-252"/>
<text text-anchor="middle" x="1262" y="-230.3" font-family="Times,serif" font-size="14.00">LC:likeChgTCVOD</text>
</g>
<!-- likeChgTCVOD&#45;&gt;assumpTHCCoT -->
<g id="edge35" class="edge">
<title>likeChgTCVOD&#45;&gt;assumpTHCCoT</title>
<path fill="none" stroke="black" d="M1264.24,-215.85C1269.09,-178.83 1280.56,-91.18 1286.42,-46.39"/>
<polygon fill="black" stroke="black" points="1289.92,-46.6 1287.75,-36.23 1282.98,-45.69 1289.92,-46.6"/>
</g>
<!-- likeChgTCVOL -->
<g id="node26" class="node">
<title>likeChgTCVOL</title>
<polygon fill="lavender" stroke="black" points="2234,-252 2090,-252 2090,-216 2234,-216 2234,-252"/>
<text text-anchor="middle" x="2162" y="-230.3" font-family="Times,serif" font-size="14.00">LC:likeChgTCVOL</text>
</g>
<!-- assumpTHCCoL -->
<g id="node27" class="node">
<title>assumpTHCCoL</title>
<polygon fill="mistyrose" stroke="black" points="2234.5,-36 2089.5,-36 2089.5,0 2234.5,0 2234.5,-36"/>
<text text-anchor="middle" x="2162" y="-14.3" font-family="Times,serif" font-size="14.00">A:assumpTHCCoL</text>
</g>
<!-- likeChgTCVOL&#45;&gt;assumpTHCCoL -->
<g id="edge36" class="edge">
<title>likeChgTCVOL&#45;&gt;assumpTHCCoL</title>
<path fill="none" stroke="black" d="M2162,-215.85C2162,-178.83 2162,-91.18 2162,-46.39"/>
<polygon fill="black" stroke="black" points="2165.5,-46.23 2162,-36.23 2158.5,-46.23 2165.5,-46.23"/>
</g>
<!-- likeChgDT -->
<g id="node28" class="node">
<title>likeChgDT</title>
<polygon fill="lavender" stroke="black" points="2378.5,-252 2263.5,-252 2263.5,-216 2378.5,-216 2378.5,-252"/>
<text text-anchor="middle" x="2321" y="-230.3" font-family="Times,serif" font-size="14.00">LC:likeChgDT</text>
</g>
<!-- assumpCTNTD -->
<g id="node29" class="node">
<title>assumpCTNTD</title>
<polygon fill="mistyrose" stroke="black" points="2389.5,-36 2252.5,-36 2252.5,0 2389.5,0 2389.5,-36"/>
<text text-anchor="middle" x="2321" y="-14.3" font-family="Times,serif" font-size="14.00">A:assumpCTNTD</text>
</g>
<!-- likeChgDT&#45;&gt;assumpCTNTD -->
<g id="edge37" class="edge">
<title>likeChgDT&#45;&gt;assumpCTNTD</title>
<path fill="none" stroke="black" d="M2321,-215.85C2321,-178.83 2321,-91.18 2321,-46.39"/>
<polygon fill="black" stroke="black" points="2324.5,-46.23 2321,-36.23 2317.5,-46.23 2324.5,-46.23"/>
</g>
<!-- likeChgTLH -->
<g id="node30" class="node">
<title>likeChgTLH</title>
<polygon fill="lavender" stroke="black" points="1691.5,-252 1566.5,-252 1566.5,-216 1691.5,-216 1691.5,-252"/>
<text text-anchor="middle" x="1629" y="-230.3" font-family="Times,serif" font-size="14.00">LC:likeChgTLH</text>
</g>
<!-- likeChgTLH&#45;&gt;assumpPIT -->
<g id="edge38" class="edge">
<title>likeChgTLH&#45;&gt;assumpPIT</title>
<path fill="none" stroke="black" d="M1594.19,-215.78C1579.17,-206.86 1562.45,-194.74 1551,-180 1519.7,-139.69 1536.31,-116.87 1512,-72 1506.81,-62.42 1500,-52.69 1493.48,-44.23"/>
<polygon fill="black" stroke="black" points="1496.08,-41.88 1487.12,-36.24 1490.61,-46.24 1496.08,-41.88"/>
</g>
<!-- unlikeChgWFS -->
<g id="node31" class="node">
<title>unlikeChgWFS</title>
<polygon fill="lavender" stroke="black" points="1170.5,-252 1021.5,-252 1021.5,-216 1170.5,-216 1170.5,-252"/>
<text text-anchor="middle" x="1096" y="-230.3" font-family="Times,serif" font-size="14.00">UC:unlikeChgWFS</text>
</g>
<!-- unlikeChgWFS&#45;&gt;assumpWAL -->
<g id="edge39" class="edge">
<title>unlikeChgWFS&#45;&gt;assumpWAL</title>
<path fill="none" stroke="black" d="M1099.53,-215.85C1107.15,-178.75 1125.24,-90.81 1134.43,-46.1"/>
<polygon fill="black" stroke="black" points="1137.87,-46.73 1136.46,-36.23 1131.01,-45.32 1137.87,-46.73"/>
</g>
<!-- unlikeChgNIHG -->
<g id="node32" class="node">
<title>unlikeChgNIHG</title>
<polygon fill="lavender" stroke="black" points="1003,-252 847,-252 847,-216 1003,-216 1003,-252"/>
<text text-anchor="middle" x="925" y="-230.3" font-family="Times,serif" font-size="14.00">UC:unlikeChgNIHG</text>
</g>
<!-- unlikeChgNIHG&#45;&gt;theory -->
<g id="edge41" class="edge">
<title>unlikeChgNIHG&#45;&gt;theory:eBalanceOnWtrRC</title>
<path fill="none" stroke="black" d="M925,-215.7C925,-207.98 925,-198.71 925,-190.11"/>
<polygon fill="black" stroke="black" points="928.5,-190.1 925,-180.1 921.5,-190.1 928.5,-190.1"/>
</g>
<!-- unlikeChgNIHG&#45;&gt;assumpNIHGBW -->
<g id="edge40" class="edge">
<title>unlikeChgNIHG&#45;&gt;assumpNIHGBW</title>
<path fill="none" stroke="black" d="M893.5,-215.81C876.94,-206.17 856.66,-193.41 840,-180 786.73,-137.12 732.86,-77.55 704.15,-44.2"/>
<polygon fill="black" stroke="black" points="706.56,-41.64 697.4,-36.31 701.24,-46.19 706.56,-41.64"/>
</g>
<!-- checkWithPhysConsts -->
<g id="node33" class="node">
<title>checkWithPhysConsts</title>
<polygon fill="ivory" stroke="black" points="2595.5,-252 2396.5,-252 2396.5,-216 2595.5,-216 2595.5,-252"/>
<text text-anchor="middle" x="2496" y="-230.3" font-family="Times,serif" font-size="14.00">FR:checkWithPhysConsts</text>
</g>
<!-- correct -->
<g id="node34" class="node">
<title>correct</title>
<polygon fill="ivory" stroke="black" points="2718,-252 2614,-252 2614,-216 2718,-216 2718,-252"/>
<text text-anchor="middle" x="2666" y="-230.3" font-family="Times,serif" font-size="14.00">NFR:correct</text>
</g>
<!-- verifiable -->
<g id="node35" class="node">
<title>verifiable</title>
<polygon fill="ivory" stroke="black" points="2856,-252 2736,-252 2736,-216 2856,-216 2856,-252"/>
<text text-anchor="middle" x="2796" y="-230.3" font-family="Times,serif" font-size="14.00">NFR:verifiable</text>
</g>
<!-- understandable -->
<g id="node36" class="node">
<title>understandable</title>
<polygon fill="ivory" stroke="black" points="3039.5,-252 2874.5,-252 2874.5,-216 3039.5,-216 3039.5,-252"/>
<text text-anchor="middle" x="2957" y="-230.3" font-family="Times,serif" font-size="14.00">NFR:understandable</text>
</g>
<!-- reusable -->
<g id="node37" class="node">
<title>reusable</title>
<polygon fill="ivory" stroke="black" points="3172.5,-252 3057.5,-252 3057.5,-216 3172.5,-216 3172.5,-252"/>
<text text-anchor="middle" x="3115" y="-230.3" font-family="Times,serif" font-size="14.00">NFR:reusable</text>
</g>
<!-- maintainable -->
<g id="node38" class="node">
<title>maintainable</title>
<polygon fill="ivory" stroke="black" points="3337,-252 3191,-252 3191,-216 3337,-216 3337,-252"/>
<text text-anchor="middle" x="3264" y="-230.3" font-family="Times,serif" font-size="14.00">NFR:maintainable</text>
</g>
<!-- waterTempGS -->
<g id="node39" class="node">
<title>waterTempGS</title>
<polygon fill="#ffb90f" stroke="black" points="3498.5,-252 3355.5,-252 3355.5,-216 3498.5,-216 3498.5,-252"/>
<text text-anchor="middle" x="3427" y="-230.3" font-family="Times,serif" font-size="14.00">GS:waterTempGS</text>
</g>
<!-- waterEnergyGS -->
<g id="node40" class="node">
<title>waterEnergyGS</title>
<polygon fill="#ffb90f" stroke="black" points="3673,-252 3517,-252 3517,-216 3673,-216 3673,-252"/>
<text text-anchor="middle" x="3595" y="-230.3" font-family="Times,serif" font-size="14.00">GS:waterEnergyGS</text>
</g>
</g>
</svg>
