<?xml version="1.0" encoding="UTF-8" standalone="no"?>
<!DOCTYPE svg PUBLIC "-//W3C//DTD SVG 1.1//EN"
 "http://www.w3.org/Graphics/SVG/1.1/DTD/svg11.dtd">
<!-- Generated by graphviz version 2.43.0 (0)
 -->
<!-- Title: allvsr Pages: 1 -->
<svg width="396pt" height="116pt"
 viewBox="0.00 0.00 395.50 116.00" xmlns="http://www.w3.org/2000/svg" xmlns:xlink="http://www.w3.org/1999/xlink">
<g id="graph0" class="graph" transform="scale(1 1) rotate(0) translate(4 112)">
<title>allvsr</title>
<polygon fill="white" stroke="transparent" points="-4,4 -4,-112 391.5,-112 391.5,4 -4,4"/>
<!-- instance -->
<g id="node1" class="node">
<title>instance</title>
<polygon fill="#ffb90f" stroke="black" points="333.5,-108 177.5,-108 177.5,-72 333.5,-72 333.5,-108"/>
<text text-anchor="middle" x="255.5" y="-86.3" font-family="Times,serif" font-size="14.00">GS:waterEnergyGS</text>
</g>
<!-- instance&#45;&gt;instance -->
<g id="edge5" class="edge">
<title>instance:findMass&#45;&gt;instance:inputValues</title>
<path fill="none" stroke="black" d="M333.85,-93.99C344.44,-93.32 351.5,-91.99 351.5,-90 351.5,-88.75 348.74,-87.77 344.09,-87.04"/>
<polygon fill="black" stroke="black" points="344.15,-83.53 333.85,-86.01 343.45,-90.49 344.15,-83.53"/>
</g>
<!-- instance&#45;&gt;instance -->
<g id="edge7" class="edge">
<title>instance:outputInputDerivVals&#45;&gt;instance:inputValues</title>
<path fill="none" stroke="black" d="M333.56,-98.91C354.03,-98.39 369.5,-95.41 369.5,-90 369.5,-85.52 358.89,-82.71 343.62,-81.57"/>
<polygon fill="black" stroke="black" points="343.72,-78.08 333.56,-81.09 343.38,-85.07 343.72,-78.08"/>
</g>
<!-- instance&#45;&gt;instance -->
<g id="edge8" class="edge">
<title>instance:outputInputDerivVals&#45;&gt;instance:findMass</title>
<path fill="none" stroke="black" d="M333.77,-103.47C363.21,-103.95 387.5,-99.46 387.5,-90 387.5,-81.65 368.57,-77.17 343.88,-76.57"/>
<polygon fill="black" stroke="black" points="343.78,-73.07 333.77,-76.53 343.76,-80.07 343.78,-73.07"/>
</g>
<!-- dataDefn -->
<g id="node2" class="node">
<title>dataDefn</title>
<polygon fill="#bbffff" stroke="black" points="175,-36 0,-36 0,0 175,0 175,-36"/>
<text text-anchor="middle" x="87.5" y="-14.3" font-family="Times,serif" font-size="14.00">DD:balanceDecayRate</text>
</g>
<!-- instance&#45;&gt;dataDefn -->
<g id="edge1" class="edge">
<title>instance:findMass&#45;&gt;dataDefn:wMass</title>
<path fill="none" stroke="black" d="M196.71,-71.88C170.97,-62.39 142.08,-50.51 120.08,-40.42"/>
<polygon fill="black" stroke="black" points="121.33,-37.14 110.79,-36.07 118.36,-43.48 121.33,-37.14"/>
</g>
<!-- instance&#45;&gt;dataDefn -->
<g id="edge2" class="edge">
<title>instance:findMass&#45;&gt;dataDefn:wVol</title>
<path fill="none" stroke="black" d="M208.51,-71.88C184.54,-62.31 155.6,-50.3 132,-40.15"/>
<polygon fill="black" stroke="black" points="133.14,-36.83 122.57,-36.07 130.36,-43.25 133.14,-36.83"/>
</g>
<!-- instance&#45;&gt;dataDefn -->
<g id="edge3" class="edge">
<title>instance:findMass&#45;&gt;dataDefn:tankVol</title>
<path fill="none" stroke="black" d="M220.3,-71.88C198.14,-62.22 169.13,-50.09 143.84,-39.88"/>
<polygon fill="black" stroke="black" points="144.94,-36.55 134.36,-36.07 142.33,-43.04 144.94,-36.55"/>
</g>
<!-- instance&#45;&gt;dataDefn -->
<g id="edge6" class="edge">
<title>instance:outputInputDerivVals&#45;&gt;dataDefn:tauW</title>
<path fill="none" stroke="black" d="M232.09,-71.88C211.78,-62.14 182.66,-49.87 155.6,-39.61"/>
<polygon fill="black" stroke="black" points="156.73,-36.29 146.14,-36.07 154.28,-42.85 156.73,-36.29"/>
</g>
<!-- theory -->
<g id="node3" class="node">
<title>theory</title>
<polygon fill="#fff68f" stroke="black" points="317.5,-36 193.5,-36 193.5,0 317.5,0 317.5,-36"/>
<text text-anchor="middle" x="255.5" y="-14.3" font-family="Times,serif" font-size="14.00">IM:heatEInWtr</text>
</g>
<!-- instance&#45;&gt;theory -->
<g id="edge4" class="edge">
<title>instance:findMass&#45;&gt;theory:eBalanceOnWtrRC</title>
<path fill="none" stroke="black" d="M231.84,-71.7C228.62,-63.9 227.73,-54.51 229.16,-45.83"/>
<polygon fill="black" stroke="black" points="232.56,-46.68 231.92,-36.1 225.83,-44.77 232.56,-46.68"/>
</g>
<!-- instance&#45;&gt;theory -->
<g id="edge9" class="edge">
<title>instance:calcValues&#45;&gt;theory:eBalanceOnWtrRC</title>
<path fill="none" stroke="black" d="M243.67,-71.7C242.08,-63.98 241.62,-54.71 242.31,-46.11"/>
<polygon fill="black" stroke="black" points="245.79,-46.49 243.71,-36.1 238.86,-45.52 245.79,-46.49"/>
</g>
<!-- instance&#45;&gt;theory -->
<g id="edge10" class="edge">
<title>instance:calcValues&#45;&gt;theory:heatEInWtrIM</title>
<path fill="none" stroke="black" d="M255.5,-71.7C255.5,-63.98 255.5,-54.71 255.5,-46.11"/>
<polygon fill="black" stroke="black" points="259,-46.1 255.5,-36.1 252,-46.1 259,-46.1"/>
</g>
<!-- instance&#45;&gt;theory -->
<g id="edge11" class="edge">
<title>instance:outputValues&#45;&gt;theory:eBalanceOnWtrRC</title>
<path fill="none" stroke="black" d="M267.33,-71.7C268.92,-63.98 269.38,-54.71 268.69,-46.11"/>
<polygon fill="black" stroke="black" points="272.14,-45.52 267.29,-36.1 265.21,-46.49 272.14,-45.52"/>
</g>
<!-- instance&#45;&gt;theory -->
<g id="edge12" class="edge">
<title>instance:outputValues&#45;&gt;theory:heatEInWtrIM</title>
<path fill="none" stroke="black" d="M279.16,-71.7C282.38,-63.9 283.27,-54.51 281.84,-45.83"/>
<polygon fill="black" stroke="black" points="285.17,-44.77 279.08,-36.1 278.44,-46.68 285.17,-44.77"/>
</g>
</g>
</svg>
