<?xml version="1.0" encoding="UTF-8" standalone="no"?>
<!DOCTYPE svg PUBLIC "-//W3C//DTD SVG 1.1//EN"
 "http://www.w3.org/Graphics/SVG/1.1/DTD/svg11.dtd">
<!-- Generated by graphviz version 2.43.0 (0)
 -->
<!-- Title: allvsall Pages: 1 -->
<svg width="3695pt" height="362pt"
 viewBox="0.00 0.00 3694.50 362.32" xmlns="http://www.w3.org/2000/svg" xmlns:xlink="http://www.w3.org/1999/xlink">
<g id="graph0" class="graph" transform="scale(1 1) rotate(0) translate(4 358.32)">
<title>allvsall</title>
<polygon fill="white" stroke="transparent" points="-4,4 -4,-358.32 3690.5,-358.32 3690.5,4 -4,4"/>
<!-- wVol -->
<g id="node1" class="node">
<title>wVol</title>
<polygon fill="#bbffff" stroke="black" points="1861,-180 1672,-180 1672,-144 1861,-144 1861,-180"/>
<text text-anchor="middle" x="1766.5" y="-158.3" font-family="Times,serif" font-size="14.00">DD:waterVolume.nopcm</text>
</g>
<!-- assumpVCN -->
<g id="node2" class="node">
<title>assumpVCN</title>
<polygon fill="mistyrose" stroke="black" points="1826.5,-36 1708.5,-36 1708.5,0 1826.5,0 1826.5,-36"/>
<text text-anchor="middle" x="1767.5" y="-14.3" font-family="Times,serif" font-size="14.00">A:assumpVCN</text>
</g>
<!-- wVol&#45;&gt;assumpVCN -->
<g id="edge1" class="edge">
<title>wVol&#45;&gt;assumpVCN</title>
<path fill="none" stroke="black" d="M1766.62,-143.87C1766.79,-119.67 1767.1,-75.21 1767.31,-46.39"/>
<polygon fill="black" stroke="black" points="1770.81,-46.21 1767.38,-36.19 1763.81,-46.16 1770.81,-46.21"/>
</g>
<!-- tankVol -->
<g id="node3" class="node">
<title>tankVol</title>
<polygon fill="#bbffff" stroke="black" points="2007.5,-180 1879.5,-180 1879.5,-144 2007.5,-144 2007.5,-180"/>
<text text-anchor="middle" x="1943.5" y="-158.3" font-family="Times,serif" font-size="14.00">DD:tankVolume</text>
</g>
<!-- wVol&#45;&gt;tankVol -->
<g id="edge2" class="edge">
<title>wVol&#45;&gt;tankVol</title>
<path fill="none" stroke="black" d="M1861.22,-162C1863.85,-162 1866.47,-162 1869.1,-162"/>
<polygon fill="black" stroke="black" points="1869.22,-165.5 1879.22,-162 1869.22,-158.5 1869.22,-165.5"/>
</g>
<!-- consThermECS -->
<g id="node4" class="node">
<title>consThermECS</title>
<polygon fill="pink" stroke="black" points="778.5,-108 644.5,-108 644.5,-72 778.5,-72 778.5,-108"/>
<text text-anchor="middle" x="711.5" y="-86.3" font-family="Times,serif" font-size="14.00">TM:consThermE</text>
</g>
<!-- assumpTEO -->
<g id="node5" class="node">
<title>assumpTEO</title>
<polygon fill="mistyrose" stroke="black" points="769.5,-36 653.5,-36 653.5,0 769.5,0 769.5,-36"/>
<text text-anchor="middle" x="711.5" y="-14.3" font-family="Times,serif" font-size="14.00">A:assumpTEO</text>
</g>
<!-- consThermECS&#45;&gt;assumpTEO -->
<g id="edge3" class="edge">
<title>consThermECS&#45;&gt;assumpTEO</title>
<path fill="none" stroke="black" d="M711.5,-71.7C711.5,-63.98 711.5,-54.71 711.5,-46.11"/>
<polygon fill="black" stroke="black" points="715,-46.1 711.5,-36.1 708,-46.1 715,-46.1"/>
</g>
<!-- sensHeat -->
<g id="node6" class="node">
<title>sensHeat</title>
<polygon fill="pink" stroke="black" points="246,-108 141,-108 141,-72 246,-72 246,-108"/>
<text text-anchor="middle" x="193.5" y="-86.3" font-family="Times,serif" font-size="14.00">TM:sensHtE</text>
</g>
<!-- assumpWAL -->
<g id="node7" class="node">
<title>assumpWAL</title>
<polygon fill="mistyrose" stroke="black" points="171.5,-36 53.5,-36 53.5,0 171.5,0 171.5,-36"/>
<text text-anchor="middle" x="112.5" y="-14.3" font-family="Times,serif" font-size="14.00">A:assumpWAL</text>
</g>
<!-- sensHeat&#45;&gt;assumpWAL -->
<g id="edge4" class="edge">
<title>sensHeat&#45;&gt;assumpWAL</title>
<path fill="none" stroke="black" d="M173.48,-71.7C163.37,-62.97 150.96,-52.24 139.98,-42.75"/>
<polygon fill="black" stroke="black" points="142.15,-39.99 132.29,-36.1 137.57,-45.29 142.15,-39.99"/>
</g>
<!-- nwtnCoolingTM -->
<g id="node8" class="node">
<title>nwtnCoolingTM</title>
<polygon fill="pink" stroke="black" points="1164.5,-108 1030.5,-108 1030.5,-72 1164.5,-72 1164.5,-108"/>
<text text-anchor="middle" x="1097.5" y="-86.3" font-family="Times,serif" font-size="14.00">TM:nwtnCooling</text>
</g>
<!-- assumpHTCC -->
<g id="node9" class="node">
<title>assumpHTCC</title>
<polygon fill="mistyrose" stroke="black" points="1229.5,-36 1101.5,-36 1101.5,0 1229.5,0 1229.5,-36"/>
<text text-anchor="middle" x="1165.5" y="-14.3" font-family="Times,serif" font-size="14.00">A:assumpHTCC</text>
</g>
<!-- nwtnCoolingTM&#45;&gt;assumpHTCC -->
<g id="edge5" class="edge">
<title>nwtnCoolingTM&#45;&gt;assumpHTCC</title>
<path fill="none" stroke="black" d="M1114.31,-71.7C1122.63,-63.14 1132.81,-52.66 1141.89,-43.3"/>
<polygon fill="black" stroke="black" points="1144.43,-45.72 1148.88,-36.1 1139.41,-40.84 1144.43,-45.72"/>
</g>
<!-- rocTempSimpRC -->
<g id="node10" class="node">
<title>rocTempSimpRC</title>
<polygon fill="palegreen" stroke="black" points="782.5,-180 640.5,-180 640.5,-144 782.5,-144 782.5,-180"/>
<text text-anchor="middle" x="711.5" y="-158.3" font-family="Times,serif" font-size="14.00">GD:rocTempSimp</text>
</g>
<!-- rocTempSimpRC&#45;&gt;consThermECS -->
<g id="edge9" class="edge">
<title>rocTempSimpRC&#45;&gt;consThermECS</title>
<path fill="none" stroke="black" d="M711.5,-143.7C711.5,-135.98 711.5,-126.71 711.5,-118.11"/>
<polygon fill="black" stroke="black" points="715,-118.1 711.5,-108.1 708,-118.1 715,-118.1"/>
</g>
<!-- rocTempSimpRC&#45;&gt;rocTempSimpRC -->
<g id="edge10" class="edge">
<title>rocTempSimpRC&#45;&gt;rocTempSimpRC</title>
<path fill="none" stroke="black" d="M782.73,-174.25C793.33,-172.34 800.5,-168.26 800.5,-162 800.5,-157.99 797.56,-154.88 792.65,-152.65"/>
<polygon fill="black" stroke="black" points="793.31,-149.2 782.73,-149.75 791.34,-155.92 793.31,-149.2"/>
</g>
<!-- assumpCWTAT -->
<g id="node11" class="node">
<title>assumpCWTAT</title>
<polygon fill="mistyrose" stroke="black" points="925,-36 788,-36 788,0 925,0 925,-36"/>
<text text-anchor="middle" x="856.5" y="-14.3" font-family="Times,serif" font-size="14.00">A:assumpCWTAT</text>
</g>
<!-- rocTempSimpRC&#45;&gt;assumpCWTAT -->
<g id="edge6" class="edge">
<title>rocTempSimpRC&#45;&gt;assumpCWTAT</title>
<path fill="none" stroke="black" d="M740.11,-143.99C755.06,-134.4 773.16,-121.63 787.5,-108 807.68,-88.81 826.77,-63.42 839.73,-44.67"/>
<polygon fill="black" stroke="black" points="842.68,-46.56 845.4,-36.32 836.89,-42.62 842.68,-46.56"/>
</g>
<!-- assumpDWCoW -->
<g id="node12" class="node">
<title>assumpDWCoW</title>
<polygon fill="mistyrose" stroke="black" points="465.5,-36 321.5,-36 321.5,0 465.5,0 465.5,-36"/>
<text text-anchor="middle" x="393.5" y="-14.3" font-family="Times,serif" font-size="14.00">A:assumpDWCoW</text>
</g>
<!-- rocTempSimpRC&#45;&gt;assumpDWCoW -->
<g id="edge7" class="edge">
<title>rocTempSimpRC&#45;&gt;assumpDWCoW</title>
<path fill="none" stroke="black" d="M673.14,-143.87C615.01,-117.91 504.67,-68.64 441.36,-40.37"/>
<polygon fill="black" stroke="black" points="442.55,-37.07 431.99,-36.19 439.7,-43.46 442.55,-37.07"/>
</g>
<!-- assumpSHECoW -->
<g id="node13" class="node">
<title>assumpSHECoW</title>
<polygon fill="mistyrose" stroke="black" points="635,-36 484,-36 484,0 635,0 635,-36"/>
<text text-anchor="middle" x="559.5" y="-14.3" font-family="Times,serif" font-size="14.00">A:assumpSHECoW</text>
</g>
<!-- rocTempSimpRC&#45;&gt;assumpSHECoW -->
<g id="edge8" class="edge">
<title>rocTempSimpRC&#45;&gt;assumpSHECoW</title>
<path fill="none" stroke="black" d="M683.51,-143.94C668.57,-134.25 650.28,-121.4 635.5,-108 613.96,-88.47 592.76,-62.97 578.24,-44.27"/>
<polygon fill="black" stroke="black" points="580.93,-42.02 572.07,-36.21 575.37,-46.27 580.93,-42.02"/>
</g>
<!-- htFluxC -->
<g id="node14" class="node">
<title>htFluxC</title>
<polygon fill="palegreen" stroke="black" points="1153,-180 954,-180 954,-144 1153,-144 1153,-180"/>
<text text-anchor="middle" x="1053.5" y="-158.3" font-family="Times,serif" font-size="14.00">GD:htFluxWaterFromCoil</text>
</g>
<!-- htFluxC&#45;&gt;nwtnCoolingTM -->
<g id="edge13" class="edge">
<title>htFluxC&#45;&gt;nwtnCoolingTM</title>
<path fill="none" stroke="black" d="M1064.38,-143.7C1069.49,-135.56 1075.7,-125.69 1081.34,-116.7"/>
<polygon fill="black" stroke="black" points="1084.39,-118.43 1086.75,-108.1 1078.46,-114.71 1084.39,-118.43"/>
</g>
<!-- assumpLCCCW -->
<g id="node15" class="node">
<title>assumpLCCCW</title>
<polygon fill="mistyrose" stroke="black" points="1083.5,-36 943.5,-36 943.5,0 1083.5,0 1083.5,-36"/>
<text text-anchor="middle" x="1013.5" y="-14.3" font-family="Times,serif" font-size="14.00">A:assumpLCCCW</text>
</g>
<!-- htFluxC&#45;&gt;assumpLCCCW -->
<g id="edge11" class="edge">
<title>htFluxC&#45;&gt;assumpLCCCW</title>
<path fill="none" stroke="black" d="M1040.39,-143.84C1033.53,-133.91 1025.71,-120.87 1021.5,-108 1014.95,-88 1013.1,-64.22 1012.8,-46.27"/>
<polygon fill="black" stroke="black" points="1016.3,-46.18 1012.78,-36.19 1009.3,-46.19 1016.3,-46.18"/>
</g>
<!-- assumpTHCCoT -->
<g id="node16" class="node">
<title>assumpTHCCoT</title>
<polygon fill="mistyrose" stroke="black" points="1562,-36 1417,-36 1417,0 1562,0 1562,-36"/>
<text text-anchor="middle" x="1489.5" y="-14.3" font-family="Times,serif" font-size="14.00">A:assumpTHCCoT</text>
</g>
<!-- htFluxC&#45;&gt;assumpTHCCoT -->
<g id="edge12" class="edge">
<title>htFluxC&#45;&gt;assumpTHCCoT</title>
<path fill="none" stroke="black" d="M1106.09,-143.87C1186.89,-117.56 1341.24,-67.29 1427.41,-39.22"/>
<polygon fill="black" stroke="black" points="1428.64,-42.5 1437.06,-36.08 1426.47,-35.85 1428.64,-42.5"/>
</g>
<!-- eBalanceOnWtrRC -->
<g id="node17" class="node">
<title>eBalanceOnWtrRC</title>
<polygon fill="#fff68f" stroke="black" points="1143.5,-252 991.5,-252 991.5,-216 1143.5,-216 1143.5,-252"/>
<text text-anchor="middle" x="1067.5" y="-230.3" font-family="Times,serif" font-size="14.00">IM:eBalanceOnWtr</text>
</g>
<!-- eBalanceOnWtrRC&#45;&gt;assumpWAL -->
<g id="edge14" class="edge">
<title>eBalanceOnWtrRC&#45;&gt;assumpWAL</title>
<path fill="none" stroke="black" d="M991.2,-227.9C903.62,-221.09 756.02,-206.66 631.5,-180 458.65,-143 260.8,-73.91 167.14,-39.53"/>
<polygon fill="black" stroke="black" points="168.18,-36.19 157.59,-36.01 165.76,-42.76 168.18,-36.19"/>
</g>
<!-- eBalanceOnWtrRC&#45;&gt;rocTempSimpRC -->
<g id="edge18" class="edge">
<title>eBalanceOnWtrRC&#45;&gt;rocTempSimpRC</title>
<path fill="none" stroke="black" d="M991.13,-217.98C932.71,-206.5 852.32,-190.69 792.72,-178.97"/>
<polygon fill="black" stroke="black" points="793.08,-175.47 782.6,-176.98 791.73,-182.34 793.08,-175.47"/>
</g>
<!-- eBalanceOnWtrRC&#45;&gt;htFluxC -->
<g id="edge19" class="edge">
<title>eBalanceOnWtrRC&#45;&gt;htFluxC</title>
<path fill="none" stroke="black" d="M1064.04,-215.7C1062.5,-207.98 1060.64,-198.71 1058.92,-190.11"/>
<polygon fill="black" stroke="black" points="1062.31,-189.22 1056.92,-180.1 1055.45,-190.6 1062.31,-189.22"/>
</g>
<!-- assumpPIT -->
<g id="node18" class="node">
<title>assumpPIT</title>
<polygon fill="mistyrose" stroke="black" points="1690.5,-36 1580.5,-36 1580.5,0 1690.5,0 1690.5,-36"/>
<text text-anchor="middle" x="1635.5" y="-14.3" font-family="Times,serif" font-size="14.00">A:assumpPIT</text>
</g>
<!-- eBalanceOnWtrRC&#45;&gt;assumpPIT -->
<g id="edge15" class="edge">
<title>eBalanceOnWtrRC&#45;&gt;assumpPIT</title>
<path fill="none" stroke="black" d="M1119.55,-215.94C1143.81,-206.92 1172.54,-194.66 1196.5,-180 1217.47,-167.17 1217.01,-155.93 1238.5,-144 1296.22,-111.95 1473.8,-61.97 1570.73,-35.98"/>
<polygon fill="black" stroke="black" points="1571.67,-39.36 1580.42,-33.39 1569.86,-32.59 1571.67,-39.36"/>
</g>
<!-- assumpNIHGBW -->
<g id="node19" class="node">
<title>assumpNIHGBW</title>
<polygon fill="mistyrose" stroke="black" points="1399,-36 1248,-36 1248,0 1399,0 1399,-36"/>
<text text-anchor="middle" x="1323.5" y="-14.3" font-family="Times,serif" font-size="14.00">A:assumpNIHGBW</text>
</g>
<!-- eBalanceOnWtrRC&#45;&gt;assumpNIHGBW -->
<g id="edge16" class="edge">
<title>eBalanceOnWtrRC&#45;&gt;assumpNIHGBW</title>
<path fill="none" stroke="black" d="M1102.82,-215.98C1121.07,-206.48 1143.27,-193.79 1161.5,-180 1217.17,-137.87 1272.9,-77.53 1302.27,-43.96"/>
<polygon fill="black" stroke="black" points="1305.24,-45.87 1309.15,-36.03 1299.95,-41.29 1305.24,-45.87"/>
</g>
<!-- tauW -->
<g id="node20" class="node">
<title>tauW</title>
<polygon fill="#bbffff" stroke="black" points="1423,-180 1248,-180 1248,-144 1423,-144 1423,-180"/>
<text text-anchor="middle" x="1335.5" y="-158.3" font-family="Times,serif" font-size="14.00">DD:balanceDecayRate</text>
</g>
<!-- eBalanceOnWtrRC&#45;&gt;tauW -->
<g id="edge17" class="edge">
<title>eBalanceOnWtrRC&#45;&gt;tauW</title>
<path fill="none" stroke="black" d="M1132.72,-215.97C1171.22,-205.91 1220.12,-193.14 1260.25,-182.65"/>
<polygon fill="black" stroke="black" points="1261.2,-186.02 1269.99,-180.11 1259.43,-179.25 1261.2,-186.02"/>
</g>
<!-- heatEInWtrIM -->
<g id="node21" class="node">
<title>heatEInWtrIM</title>
<polygon fill="#fff68f" stroke="black" points="374.5,-252 250.5,-252 250.5,-216 374.5,-216 374.5,-252"/>
<text text-anchor="middle" x="312.5" y="-230.3" font-family="Times,serif" font-size="14.00">IM:heatEInWtr</text>
</g>
<!-- heatEInWtrIM&#45;&gt;sensHeat -->
<g id="edge22" class="edge">
<title>heatEInWtrIM&#45;&gt;sensHeat</title>
<path fill="none" stroke="black" d="M298.15,-215.87C277.33,-191.03 238.62,-144.85 214.57,-116.14"/>
<polygon fill="black" stroke="black" points="217.01,-113.61 207.91,-108.19 211.65,-118.1 217.01,-113.61"/>
</g>
<!-- heatEInWtrIM&#45;&gt;assumpWAL -->
<g id="edge20" class="edge">
<title>heatEInWtrIM&#45;&gt;assumpWAL</title>
<path fill="none" stroke="black" d="M271.47,-215.82C229.57,-196.09 165.91,-159.64 131.5,-108 119.29,-89.67 114.74,-64.91 113.13,-46.16"/>
<polygon fill="black" stroke="black" points="116.63,-45.93 112.5,-36.17 109.64,-46.37 116.63,-45.93"/>
</g>
<!-- assumpAPT -->
<g id="node22" class="node">
<title>assumpAPT</title>
<polygon fill="mistyrose" stroke="black" points="303.5,-36 189.5,-36 189.5,0 303.5,0 303.5,-36"/>
<text text-anchor="middle" x="246.5" y="-14.3" font-family="Times,serif" font-size="14.00">A:assumpAPT</text>
</g>
<!-- heatEInWtrIM&#45;&gt;assumpAPT -->
<g id="edge21" class="edge">
<title>heatEInWtrIM&#45;&gt;assumpAPT</title>
<path fill="none" stroke="black" d="M307.21,-215.85C295.75,-178.68 268.53,-90.44 254.77,-45.82"/>
<polygon fill="black" stroke="black" points="258.11,-44.76 251.81,-36.23 251.42,-46.82 258.11,-44.76"/>
</g>
<!-- findMass -->
<g id="node23" class="node">
<title>findMass</title>
<polygon fill="ivory" stroke="black" points="1830.5,-324 1724.5,-324 1724.5,-288 1830.5,-288 1830.5,-324"/>
<text text-anchor="middle" x="1777.5" y="-302.3" font-family="Times,serif" font-size="14.00">FR:findMass</text>
</g>
<!-- findMass&#45;&gt;wVol -->
<g id="edge24" class="edge">
<title>findMass&#45;&gt;wVol</title>
<path fill="none" stroke="black" d="M1776.17,-287.87C1774.3,-263.67 1770.85,-219.21 1768.62,-190.39"/>
<polygon fill="black" stroke="black" points="1772.09,-189.89 1767.83,-180.19 1765.11,-190.43 1772.09,-189.89"/>
</g>
<!-- findMass&#45;&gt;tankVol -->
<g id="edge25" class="edge">
<title>findMass&#45;&gt;tankVol</title>
<path fill="none" stroke="black" d="M1797.52,-287.87C1826.94,-262.71 1881.95,-215.65 1915.4,-187.04"/>
<polygon fill="black" stroke="black" points="1918.08,-189.35 1923.41,-180.19 1913.53,-184.03 1918.08,-189.35"/>
</g>
<!-- findMass&#45;&gt;eBalanceOnWtrRC -->
<g id="edge26" class="edge">
<title>findMass&#45;&gt;eBalanceOnWtrRC</title>
<path fill="none" stroke="black" d="M1724.38,-289.94C1721.05,-289.22 1717.74,-288.56 1714.5,-288 1515.8,-253.35 1278.71,-241.24 1154.02,-237.1"/>
<polygon fill="black" stroke="black" points="1153.88,-233.59 1143.77,-236.76 1153.65,-240.59 1153.88,-233.59"/>
</g>
<!-- wMass -->
<g id="node24" class="node">
<title>wMass</title>
<polygon fill="#bbffff" stroke="black" points="2147.5,-180 2025.5,-180 2025.5,-144 2147.5,-144 2147.5,-180"/>
<text text-anchor="middle" x="2086.5" y="-158.3" font-family="Times,serif" font-size="14.00">DD:waterMass</text>
</g>
<!-- findMass&#45;&gt;wMass -->
<g id="edge23" class="edge">
<title>findMass&#45;&gt;wMass</title>
<path fill="none" stroke="black" d="M1814.77,-287.87C1871.26,-261.91 1978.48,-212.64 2040,-184.37"/>
<polygon fill="black" stroke="black" points="2041.47,-187.55 2049.1,-180.19 2038.55,-181.18 2041.47,-187.55"/>
</g>
<!-- inputInitVals -->
<g id="node25" class="node">
<title>inputInitVals</title>
<polygon fill="ivory" stroke="black" points="1982,-324 1849,-324 1849,-288 1982,-288 1982,-324"/>
<text text-anchor="middle" x="1915.5" y="-302.3" font-family="Times,serif" font-size="14.00">FR:inputInitVals</text>
</g>
<!-- findMass&#45;&gt;inputInitVals -->
<g id="edge27" class="edge">
<title>findMass&#45;&gt;inputInitVals</title>
<path fill="none" stroke="black" d="M1830.6,-306C1833.26,-306 1835.92,-306 1838.58,-306"/>
<polygon fill="black" stroke="black" points="1838.84,-309.5 1848.84,-306 1838.84,-302.5 1838.84,-309.5"/>
</g>
<!-- outputInputDerivVals -->
<g id="node26" class="node">
<title>outputInputDerivVals</title>
<polygon fill="ivory" stroke="black" points="1398,-324 1203,-324 1203,-288 1398,-288 1398,-324"/>
<text text-anchor="middle" x="1300.5" y="-302.3" font-family="Times,serif" font-size="14.00">FR:outputInputDerivVals</text>
</g>
<!-- outputInputDerivVals&#45;&gt;tauW -->
<g id="edge28" class="edge">
<title>outputInputDerivVals&#45;&gt;tauW</title>
<path fill="none" stroke="black" d="M1304.72,-287.87C1310.71,-263.56 1321.74,-218.82 1328.84,-190.01"/>
<polygon fill="black" stroke="black" points="1332.27,-190.74 1331.26,-180.19 1325.47,-189.06 1332.27,-190.74"/>
</g>
<!-- outputInputDerivVals&#45;&gt;findMass -->
<g id="edge30" class="edge">
<title>outputInputDerivVals&#45;&gt;findMass</title>
<path fill="none" stroke="black" d="M1347.43,-324.09C1368.25,-331.19 1393.25,-338.48 1416.5,-342 1480,-351.63 1643,-356.76 1705.5,-342 1717.18,-339.24 1729.12,-334.29 1739.84,-328.92"/>
<polygon fill="black" stroke="black" points="1741.69,-331.9 1748.9,-324.13 1738.42,-325.7 1741.69,-331.9"/>
</g>
<!-- outputInputDerivVals&#45;&gt;inputInitVals -->
<g id="edge29" class="edge">
<title>outputInputDerivVals&#45;&gt;inputInitVals</title>
<path fill="none" stroke="black" d="M1347.43,-324.09C1368.25,-331.19 1393.25,-338.48 1416.5,-342 1507.46,-355.79 1740.34,-360.31 1830.5,-342 1844.53,-339.15 1859.11,-333.91 1872.16,-328.29"/>
<polygon fill="black" stroke="black" points="1873.67,-331.45 1881.36,-324.16 1870.81,-325.06 1873.67,-331.45"/>
</g>
<!-- calcValues -->
<g id="node27" class="node">
<title>calcValues</title>
<polygon fill="ivory" stroke="black" points="860.5,-324 744.5,-324 744.5,-288 860.5,-288 860.5,-324"/>
<text text-anchor="middle" x="802.5" y="-302.3" font-family="Times,serif" font-size="14.00">FR:calcValues</text>
</g>
<!-- calcValues&#45;&gt;eBalanceOnWtrRC -->
<g id="edge31" class="edge">
<title>calcValues&#45;&gt;eBalanceOnWtrRC</title>
<path fill="none" stroke="black" d="M860.66,-289.64C899.59,-279.35 951.17,-265.73 993.09,-254.65"/>
<polygon fill="black" stroke="black" points="994.2,-257.98 1002.98,-252.04 992.41,-251.21 994.2,-257.98"/>
</g>
<!-- calcValues&#45;&gt;heatEInWtrIM -->
<g id="edge32" class="edge">
<title>calcValues&#45;&gt;heatEInWtrIM</title>
<path fill="none" stroke="black" d="M744.37,-296.7C654.63,-283.88 482.55,-259.29 384.88,-245.34"/>
<polygon fill="black" stroke="black" points="385.19,-241.85 374.8,-243.9 384.2,-248.78 385.19,-241.85"/>
</g>
<!-- outputValues -->
<g id="node28" class="node">
<title>outputValues</title>
<polygon fill="ivory" stroke="black" points="478,-324 343,-324 343,-288 478,-288 478,-324"/>
<text text-anchor="middle" x="410.5" y="-302.3" font-family="Times,serif" font-size="14.00">FR:outputValues</text>
</g>
<!-- outputValues&#45;&gt;eBalanceOnWtrRC -->
<g id="edge33" class="edge">
<title>outputValues&#45;&gt;eBalanceOnWtrRC</title>
<path fill="none" stroke="black" d="M478.03,-297.81C598.18,-285 848.88,-258.29 981.3,-244.18"/>
<polygon fill="black" stroke="black" points="981.83,-247.65 991.4,-243.11 981.08,-240.69 981.83,-247.65"/>
</g>
<!-- outputValues&#45;&gt;heatEInWtrIM -->
<g id="edge34" class="edge">
<title>outputValues&#45;&gt;heatEInWtrIM</title>
<path fill="none" stroke="black" d="M386.53,-287.88C373.95,-278.89 358.37,-267.76 344.75,-258.03"/>
<polygon fill="black" stroke="black" points="346.74,-255.15 336.57,-252.19 342.67,-260.85 346.74,-255.15"/>
</g>
<!-- likeChgTCVOD -->
<g id="node29" class="node">
<title>likeChgTCVOD</title>
<polygon fill="lavender" stroke="black" points="1562.5,-324 1416.5,-324 1416.5,-288 1562.5,-288 1562.5,-324"/>
<text text-anchor="middle" x="1489.5" y="-302.3" font-family="Times,serif" font-size="14.00">LC:likeChgTCVOD</text>
</g>
<!-- likeChgTCVOD&#45;&gt;assumpTHCCoT -->
<g id="edge35" class="edge">
<title>likeChgTCVOD&#45;&gt;assumpTHCCoT</title>
<path fill="none" stroke="black" d="M1489.5,-287.97C1489.5,-240.29 1489.5,-105.18 1489.5,-46.63"/>
<polygon fill="black" stroke="black" points="1493,-46.31 1489.5,-36.31 1486,-46.31 1493,-46.31"/>
</g>
<!-- likeChgTCVOL -->
<g id="node30" class="node">
<title>likeChgTCVOL</title>
<polygon fill="lavender" stroke="black" points="2247.5,-324 2103.5,-324 2103.5,-288 2247.5,-288 2247.5,-324"/>
<text text-anchor="middle" x="2175.5" y="-302.3" font-family="Times,serif" font-size="14.00">LC:likeChgTCVOL</text>
</g>
<!-- assumpTHCCoL -->
<g id="node31" class="node">
<title>assumpTHCCoL</title>
<polygon fill="mistyrose" stroke="black" points="2248,-36 2103,-36 2103,0 2248,0 2248,-36"/>
<text text-anchor="middle" x="2175.5" y="-14.3" font-family="Times,serif" font-size="14.00">A:assumpTHCCoL</text>
</g>
<!-- likeChgTCVOL&#45;&gt;assumpTHCCoL -->
<g id="edge36" class="edge">
<title>likeChgTCVOL&#45;&gt;assumpTHCCoL</title>
<path fill="none" stroke="black" d="M2175.5,-287.97C2175.5,-240.29 2175.5,-105.18 2175.5,-46.63"/>
<polygon fill="black" stroke="black" points="2179,-46.31 2175.5,-36.31 2172,-46.31 2179,-46.31"/>
</g>
<!-- likeChgDT -->
<g id="node32" class="node">
<title>likeChgDT</title>
<polygon fill="lavender" stroke="black" points="2392,-324 2277,-324 2277,-288 2392,-288 2392,-324"/>
<text text-anchor="middle" x="2334.5" y="-302.3" font-family="Times,serif" font-size="14.00">LC:likeChgDT</text>
</g>
<!-- assumpCTNTD -->
<g id="node33" class="node">
<title>assumpCTNTD</title>
<polygon fill="mistyrose" stroke="black" points="2403,-36 2266,-36 2266,0 2403,0 2403,-36"/>
<text text-anchor="middle" x="2334.5" y="-14.3" font-family="Times,serif" font-size="14.00">A:assumpCTNTD</text>
</g>
<!-- likeChgDT&#45;&gt;assumpCTNTD -->
<g id="edge37" class="edge">
<title>likeChgDT&#45;&gt;assumpCTNTD</title>
<path fill="none" stroke="black" d="M2334.5,-287.97C2334.5,-240.29 2334.5,-105.18 2334.5,-46.63"/>
<polygon fill="black" stroke="black" points="2338,-46.31 2334.5,-36.31 2331,-46.31 2338,-46.31"/>
</g>
<!-- likeChgTLH -->
<g id="node34" class="node">
<title>likeChgTLH</title>
<polygon fill="lavender" stroke="black" points="1706,-324 1581,-324 1581,-288 1706,-288 1706,-324"/>
<text text-anchor="middle" x="1643.5" y="-302.3" font-family="Times,serif" font-size="14.00">LC:likeChgTLH</text>
</g>
<!-- likeChgTLH&#45;&gt;assumpPIT -->
<g id="edge38" class="edge">
<title>likeChgTLH&#45;&gt;assumpPIT</title>
<path fill="none" stroke="black" d="M1643.02,-287.97C1641.69,-240.29 1637.91,-105.18 1636.27,-46.63"/>
<polygon fill="black" stroke="black" points="1639.76,-46.2 1635.98,-36.31 1632.77,-46.4 1639.76,-46.2"/>
</g>
<!-- unlikeChgWFS -->
<g id="node35" class="node">
<title>unlikeChgWFS</title>
<polygon fill="lavender" stroke="black" points="149,-324 0,-324 0,-288 149,-288 149,-324"/>
<text text-anchor="middle" x="74.5" y="-302.3" font-family="Times,serif" font-size="14.00">UC:unlikeChgWFS</text>
</g>
<!-- unlikeChgWFS&#45;&gt;assumpWAL -->
<g id="edge39" class="edge">
<title>unlikeChgWFS&#45;&gt;assumpWAL</title>
<path fill="none" stroke="black" d="M76.76,-287.97C83.11,-240.19 101.12,-104.62 108.88,-46.27"/>
<polygon fill="black" stroke="black" points="112.35,-46.68 110.2,-36.31 105.41,-45.76 112.35,-46.68"/>
</g>
<!-- unlikeChgNIHG -->
<g id="node36" class="node">
<title>unlikeChgNIHG</title>
<polygon fill="lavender" stroke="black" points="1158.5,-324 1002.5,-324 1002.5,-288 1158.5,-288 1158.5,-324"/>
<text text-anchor="middle" x="1080.5" y="-302.3" font-family="Times,serif" font-size="14.00">UC:unlikeChgNIHG</text>
</g>
<!-- unlikeChgNIHG&#45;&gt;eBalanceOnWtrRC -->
<g id="edge41" class="edge">
<title>unlikeChgNIHG&#45;&gt;eBalanceOnWtrRC</title>
<path fill="none" stroke="black" d="M1077.29,-287.7C1075.85,-279.98 1074.13,-270.71 1072.54,-262.11"/>
<polygon fill="black" stroke="black" points="1075.94,-261.3 1070.68,-252.1 1069.06,-262.58 1075.94,-261.3"/>
</g>
<!-- unlikeChgNIHG&#45;&gt;assumpNIHGBW -->
<g id="edge40" class="edge">
<title>unlikeChgNIHG&#45;&gt;assumpNIHGBW</title>
<path fill="none" stroke="black" d="M1158.71,-288.14C1252.01,-266.26 1399.43,-225.46 1431.5,-180 1465.69,-131.52 1401.61,-73.48 1358.37,-42.03"/>
<polygon fill="black" stroke="black" points="1360.21,-39.04 1350.03,-36.1 1356.15,-44.75 1360.21,-39.04"/>
</g>
<!-- checkWithPhysConsts -->
<g id="node37" class="node">
<title>checkWithPhysConsts</title>
<polygon fill="ivory" stroke="black" points="2609,-324 2410,-324 2410,-288 2609,-288 2609,-324"/>
<text text-anchor="middle" x="2509.5" y="-302.3" font-family="Times,serif" font-size="14.00">FR:checkWithPhysConsts</text>
</g>
<!-- correct -->
<g id="node38" class="node">
<title>correct</title>
<polygon fill="ivory" stroke="black" points="2731.5,-324 2627.5,-324 2627.5,-288 2731.5,-288 2731.5,-324"/>
<text text-anchor="middle" x="2679.5" y="-302.3" font-family="Times,serif" font-size="14.00">NFR:correct</text>
</g>
<!-- verifiable -->
<g id="node39" class="node">
<title>verifiable</title>
<polygon fill="ivory" stroke="black" points="2869.5,-324 2749.5,-324 2749.5,-288 2869.5,-288 2869.5,-324"/>
<text text-anchor="middle" x="2809.5" y="-302.3" font-family="Times,serif" font-size="14.00">NFR:verifiable</text>
</g>
<!-- understandable -->
<g id="node40" class="node">
<title>understandable</title>
<polygon fill="ivory" stroke="black" points="3053,-324 2888,-324 2888,-288 3053,-288 3053,-324"/>
<text text-anchor="middle" x="2970.5" y="-302.3" font-family="Times,serif" font-size="14.00">NFR:understandable</text>
</g>
<!-- reusable -->
<g id="node41" class="node">
<title>reusable</title>
<polygon fill="ivory" stroke="black" points="3186,-324 3071,-324 3071,-288 3186,-288 3186,-324"/>
<text text-anchor="middle" x="3128.5" y="-302.3" font-family="Times,serif" font-size="14.00">NFR:reusable</text>
</g>
<!-- maintainable -->
<g id="node42" class="node">
<title>maintainable</title>
<polygon fill="ivory" stroke="black" points="3350.5,-324 3204.5,-324 3204.5,-288 3350.5,-288 3350.5,-324"/>
<text text-anchor="middle" x="3277.5" y="-302.3" font-family="Times,serif" font-size="14.00">NFR:maintainable</text>
</g>
<!-- waterTempGS -->
<g id="node43" class="node">
<title>waterTempGS</title>
<polygon fill="#ffb90f" stroke="black" points="3512,-324 3369,-324 3369,-288 3512,-288 3512,-324"/>
<text text-anchor="middle" x="3440.5" y="-302.3" font-family="Times,serif" font-size="14.00">GS:waterTempGS</text>
</g>
<!-- waterEnergyGS -->
<g id="node44" class="node">
<title>waterEnergyGS</title>
<polygon fill="#ffb90f" stroke="black" points="3686.5,-324 3530.5,-324 3530.5,-288 3686.5,-288 3686.5,-324"/>
<text text-anchor="middle" x="3608.5" y="-302.3" font-family="Times,serif" font-size="14.00">GS:waterEnergyGS</text>
</g>
</g>
</svg>
