<?xml version="1.0" encoding="UTF-8" standalone="no"?>
<!DOCTYPE svg PUBLIC "-//W3C//DTD SVG 1.1//EN"
 "http://www.w3.org/Graphics/SVG/1.1/DTD/svg11.dtd">
<!-- Generated by graphviz version 2.43.0 (0)
 -->
<!-- Title: allvsall Pages: 1 -->
<svg width="3521pt" height="285pt"
 viewBox="0.00 0.00 3520.50 284.50" xmlns="http://www.w3.org/2000/svg" xmlns:xlink="http://www.w3.org/1999/xlink">
<g id="graph0" class="graph" transform="scale(1 1) rotate(0) translate(4 280.5)">
<title>allvsall</title>
<polygon fill="white" stroke="transparent" points="-4,4 -4,-280.5 3516.5,-280.5 3516.5,4 -4,4"/>
<!-- wVol -->
<g id="node1" class="node">
<title>wVol</title>
<polygon fill="#bbffff" stroke="black" points="189,-108 0,-108 0,-72 189,-72 189,-108"/>
<text text-anchor="middle" x="94.5" y="-86.3" font-family="Times,serif" font-size="14.00">DD:waterVolume.nopcm</text>
</g>
<!-- assumpVCN -->
<g id="node2" class="node">
<title>assumpVCN</title>
<polygon fill="mistyrose" stroke="black" points="153.5,-36 35.5,-36 35.5,0 153.5,0 153.5,-36"/>
<text text-anchor="middle" x="94.5" y="-14.3" font-family="Times,serif" font-size="14.00">A:assumpVCN</text>
</g>
<!-- wVol&#45;&gt;assumpVCN -->
<g id="edge1" class="edge">
<title>wVol&#45;&gt;assumpVCN</title>
<path fill="none" stroke="black" d="M94.5,-71.7C94.5,-63.98 94.5,-54.71 94.5,-46.11"/>
<polygon fill="black" stroke="black" points="98,-46.1 94.5,-36.1 91,-46.1 98,-46.1"/>
</g>
<!-- tankVol -->
<g id="node3" class="node">
<title>tankVol</title>
<polygon fill="#bbffff" stroke="black" points="513.5,-108 385.5,-108 385.5,-72 513.5,-72 513.5,-108"/>
<text text-anchor="middle" x="449.5" y="-86.3" font-family="Times,serif" font-size="14.00">DD:tankVolume</text>
</g>
<!-- wVol&#45;&gt;tankVol -->
<g id="edge2" class="edge">
<title>wVol&#45;&gt;tankVol</title>
<path fill="none" stroke="black" d="M149.3,-108.02C204.71,-123.72 292.64,-141.71 367.5,-126 380.96,-123.18 394.91,-118.01 407.4,-112.45"/>
<polygon fill="black" stroke="black" points="409.04,-115.54 416.64,-108.15 406.09,-109.19 409.04,-115.54"/>
</g>
<!-- theory -->
<g id="node4" class="node">
<title>theory</title>
<polygon fill="#fff68f" stroke="black" points="1127.5,-180 1003.5,-180 1003.5,-144 1127.5,-144 1127.5,-180"/>
<text text-anchor="middle" x="1065.5" y="-158.3" font-family="Times,serif" font-size="14.00">IM:heatEInWtr</text>
</g>
<!-- theory&#45;&gt;theory -->
<g id="edge9" class="edge">
<title>theory:rocTempSimpRC&#45;&gt;theory:consThermECS</title>
<path fill="none" stroke="black" d="M1127.55,-165.15C1138.16,-164.72 1145.5,-163.67 1145.5,-162 1145.5,-160.93 1142.49,-160.11 1137.53,-159.55"/>
<polygon fill="black" stroke="black" points="1137.78,-156.06 1127.55,-158.85 1137.28,-163.04 1137.78,-156.06"/>
</g>
<!-- theory&#45;&gt;theory -->
<g id="edge10" class="edge">
<title>theory:rocTempSimpRC&#45;&gt;theory:rocTempSimpRC</title>
<path fill="none" stroke="black" d="M1127.7,-168.75C1147.67,-168.68 1163.5,-166.43 1163.5,-162 1163.5,-158.37 1152.85,-156.2 1138,-155.5"/>
<polygon fill="black" stroke="black" points="1137.79,-151.99 1127.7,-155.25 1137.62,-158.99 1137.79,-151.99"/>
</g>
<!-- theory&#45;&gt;theory -->
<g id="edge13" class="edge">
<title>theory:htFluxC&#45;&gt;theory:nwtnCoolingTM</title>
<path fill="none" stroke="black" d="M1003.45,-151.64C992.84,-154.68 985.5,-160.98 985.5,-171 985.5,-192.09 992.82,-196.71 998.89,-189.13"/>
<polygon fill="black" stroke="black" points="1002.12,-190.5 1003.5,-180 995.87,-187.35 1002.12,-190.5"/>
</g>
<!-- theory&#45;&gt;theory -->
<g id="edge18" class="edge">
<title>theory:eBalanceOnWtrRC&#45;&gt;theory:rocTempSimpRC</title>
<path fill="none" stroke="black" d="M1127.56,-171.92C1156.35,-173.01 1181.5,-169.7 1181.5,-162 1181.5,-155.23 1162.07,-151.86 1137.82,-151.88"/>
<polygon fill="black" stroke="black" points="1137.49,-148.38 1127.56,-152.08 1137.62,-155.38 1137.49,-148.38"/>
</g>
<!-- theory&#45;&gt;theory -->
<g id="edge19" class="edge">
<title>theory:eBalanceOnWtrRC&#45;&gt;theory:htFluxC</title>
<path fill="none" stroke="black" d="M1127.53,-174.66C1164.6,-177.47 1199.5,-173.25 1199.5,-162 1199.5,-151.8 1170.84,-147.38 1137.87,-148.74"/>
<polygon fill="black" stroke="black" points="1137.31,-145.27 1127.53,-149.34 1137.71,-152.25 1137.31,-145.27"/>
</g>
<!-- theory&#45;&gt;theory -->
<g id="edge22" class="edge">
<title>theory:heatEInWtrIM&#45;&gt;theory:sensHeat</title>
<path fill="none" stroke="black" d="M1127.55,-172.36C1138.16,-169.32 1145.5,-163.02 1145.5,-153 1145.5,-131.91 1138.18,-127.29 1132.11,-134.87"/>
<polygon fill="black" stroke="black" points="1128.88,-133.5 1127.5,-144 1135.13,-136.65 1128.88,-133.5"/>
</g>
<!-- assumpTEO -->
<g id="node5" class="node">
<title>assumpTEO</title>
<polygon fill="mistyrose" stroke="black" points="981.5,-36 865.5,-36 865.5,0 981.5,0 981.5,-36"/>
<text text-anchor="middle" x="923.5" y="-14.3" font-family="Times,serif" font-size="14.00">A:assumpTEO</text>
</g>
<!-- theory&#45;&gt;assumpTEO -->
<g id="edge3" class="edge">
<title>theory:consThermECS&#45;&gt;assumpTEO</title>
<path fill="none" stroke="black" d="M1048.37,-143.87C1023.32,-118.82 976.55,-72.05 947.91,-43.41"/>
<polygon fill="black" stroke="black" points="950.24,-40.79 940.69,-36.19 945.29,-45.74 950.24,-40.79"/>
</g>
<!-- assumpWAL -->
<g id="node6" class="node">
<title>assumpWAL</title>
<polygon fill="mistyrose" stroke="black" points="1895.5,-36 1777.5,-36 1777.5,0 1895.5,0 1895.5,-36"/>
<text text-anchor="middle" x="1836.5" y="-14.3" font-family="Times,serif" font-size="14.00">A:assumpWAL</text>
</g>
<!-- theory&#45;&gt;assumpWAL -->
<g id="edge4" class="edge">
<title>theory:sensHeat&#45;&gt;assumpWAL</title>
<path fill="none" stroke="black" d="M1127.5,-144C1155.89,-97.61 1337.77,-118.65 1402.5,-108 1558.35,-82.35 1596.52,-71.16 1750.5,-36 1755.97,-34.75 1761.68,-33.4 1767.47,-32.02"/>
<polygon fill="black" stroke="black" points="1768.33,-35.42 1777.25,-29.7 1766.71,-28.61 1768.33,-35.42"/>
</g>
<!-- theory&#45;&gt;assumpWAL -->
<g id="edge14" class="edge">
<title>theory:eBalanceOnWtrRC&#45;&gt;assumpWAL</title>
<path fill="none" stroke="black" d="M1127.77,-143.73C1174.6,-97.7 1355.9,-118.63 1420.5,-108 1573.15,-82.87 1612.91,-71.63 1767.34,-36.23"/>
<polygon fill="black" stroke="black" points="1768.23,-39.62 1777.2,-33.98 1766.67,-32.8 1768.23,-39.62"/>
</g>
<!-- theory&#45;&gt;assumpWAL -->
<g id="edge20" class="edge">
<title>theory:heatEInWtrIM&#45;&gt;assumpWAL</title>
<path fill="none" stroke="black" d="M1127.88,-143.73C1192.6,-97.7 1373.9,-118.63 1438.5,-108 1590.7,-82.95 1630.67,-71.69 1775.87,-38.43"/>
<polygon fill="black" stroke="black" points="1777.08,-41.74 1786.05,-36.1 1775.52,-34.92 1777.08,-41.74"/>
</g>
<!-- assumpHTCC -->
<g id="node7" class="node">
<title>assumpHTCC</title>
<polygon fill="mistyrose" stroke="black" points="677.5,-36 549.5,-36 549.5,0 677.5,0 677.5,-36"/>
<text text-anchor="middle" x="613.5" y="-14.3" font-family="Times,serif" font-size="14.00">A:assumpHTCC</text>
</g>
<!-- theory&#45;&gt;assumpHTCC -->
<g id="edge5" class="edge">
<title>theory:nwtnCoolingTM&#45;&gt;assumpHTCC</title>
<path fill="none" stroke="black" d="M1003.5,-181C964.08,-220.42 944.5,-143.48 901.5,-108 883.55,-93.2 884.14,-82.73 863.5,-72 795.06,-36.41 767.14,-51.77 687.54,-36.1"/>
<polygon fill="black" stroke="black" points="688.07,-32.64 677.57,-34.03 686.65,-39.49 688.07,-32.64"/>
</g>
<!-- assumpCWTAT -->
<g id="node8" class="node">
<title>assumpCWTAT</title>
<polygon fill="mistyrose" stroke="black" points="1137,-36 1000,-36 1000,0 1137,0 1137,-36"/>
<text text-anchor="middle" x="1068.5" y="-14.3" font-family="Times,serif" font-size="14.00">A:assumpCWTAT</text>
</g>
<!-- theory&#45;&gt;assumpCWTAT -->
<g id="edge6" class="edge">
<title>theory:rocTempSimpRC&#45;&gt;assumpCWTAT</title>
<path fill="none" stroke="black" d="M1065.86,-143.87C1066.37,-119.67 1067.31,-75.21 1067.92,-46.39"/>
<polygon fill="black" stroke="black" points="1071.42,-46.26 1068.14,-36.19 1064.43,-46.11 1071.42,-46.26"/>
</g>
<!-- assumpDWCoW -->
<g id="node9" class="node">
<title>assumpDWCoW</title>
<polygon fill="mistyrose" stroke="black" points="1299.5,-36 1155.5,-36 1155.5,0 1299.5,0 1299.5,-36"/>
<text text-anchor="middle" x="1227.5" y="-14.3" font-family="Times,serif" font-size="14.00">A:assumpDWCoW</text>
</g>
<!-- theory&#45;&gt;assumpDWCoW -->
<g id="edge7" class="edge">
<title>theory:rocTempSimpRC&#45;&gt;assumpDWCoW</title>
<path fill="none" stroke="black" d="M1085.04,-143.87C1113.75,-118.71 1167.43,-71.65 1200.07,-43.04"/>
<polygon fill="black" stroke="black" points="1202.68,-45.41 1207.89,-36.19 1198.06,-40.15 1202.68,-45.41"/>
</g>
<!-- assumpSHECoW -->
<g id="node10" class="node">
<title>assumpSHECoW</title>
<polygon fill="mistyrose" stroke="black" points="1469,-36 1318,-36 1318,0 1469,0 1469,-36"/>
<text text-anchor="middle" x="1393.5" y="-14.3" font-family="Times,serif" font-size="14.00">A:assumpSHECoW</text>
</g>
<!-- theory&#45;&gt;assumpSHECoW -->
<g id="edge8" class="edge">
<title>theory:rocTempSimpRC&#45;&gt;assumpSHECoW</title>
<path fill="none" stroke="black" d="M1105.06,-143.87C1165.23,-117.82 1279.61,-68.3 1344.8,-40.08"/>
<polygon fill="black" stroke="black" points="1346.26,-43.26 1354.05,-36.08 1343.48,-36.84 1346.26,-43.26"/>
</g>
<!-- assumpLCCCW -->
<g id="node11" class="node">
<title>assumpLCCCW</title>
<polygon fill="mistyrose" stroke="black" points="1627.5,-36 1487.5,-36 1487.5,0 1627.5,0 1627.5,-36"/>
<text text-anchor="middle" x="1557.5" y="-14.3" font-family="Times,serif" font-size="14.00">A:assumpLCCCW</text>
</g>
<!-- theory&#45;&gt;assumpLCCCW -->
<g id="edge11" class="edge">
<title>theory:htFluxC&#45;&gt;assumpLCCCW</title>
<path fill="none" stroke="black" d="M1124.85,-143.87C1216.4,-117.45 1391.61,-66.88 1488.62,-38.88"/>
<polygon fill="black" stroke="black" points="1489.69,-42.21 1498.33,-36.08 1487.75,-35.49 1489.69,-42.21"/>
</g>
<!-- assumpTHCCoT -->
<g id="node12" class="node">
<title>assumpTHCCoT</title>
<polygon fill="mistyrose" stroke="black" points="362,-36 217,-36 217,0 362,0 362,-36"/>
<text text-anchor="middle" x="289.5" y="-14.3" font-family="Times,serif" font-size="14.00">A:assumpTHCCoT</text>
</g>
<!-- theory&#45;&gt;assumpTHCCoT -->
<g id="edge12" class="edge">
<title>theory:htFluxC&#45;&gt;assumpTHCCoT</title>
<path fill="none" stroke="black" d="M1003.43,-149.05C954.73,-139.25 885.39,-124.37 825.5,-108 775.88,-94.44 765.73,-83.09 715.5,-72 583.07,-42.77 547.01,-53.28 412.5,-36 399.55,-34.34 385.84,-32.51 372.46,-30.69"/>
<polygon fill="black" stroke="black" points="372.7,-27.19 362.31,-29.3 371.75,-34.12 372.7,-27.19"/>
</g>
<!-- assumpPIT -->
<g id="node13" class="node">
<title>assumpPIT</title>
<polygon fill="mistyrose" stroke="black" points="531.5,-36 421.5,-36 421.5,0 531.5,0 531.5,-36"/>
<text text-anchor="middle" x="476.5" y="-14.3" font-family="Times,serif" font-size="14.00">A:assumpPIT</text>
</g>
<!-- theory&#45;&gt;assumpPIT -->
<g id="edge15" class="edge">
<title>theory:eBalanceOnWtrRC&#45;&gt;assumpPIT</title>
<path fill="none" stroke="black" d="M1003.28,-152.94C961.71,-145.62 906.91,-132.14 863.5,-108 843.17,-96.69 846.53,-81.95 825.5,-72 713.03,-18.77 668.11,-58.32 541.6,-36"/>
<polygon fill="black" stroke="black" points="542.02,-32.51 531.55,-34.12 540.74,-39.4 542.02,-32.51"/>
</g>
<!-- assumpNIHGBW -->
<g id="node14" class="node">
<title>assumpNIHGBW</title>
<polygon fill="mistyrose" stroke="black" points="847,-36 696,-36 696,0 847,0 847,-36"/>
<text text-anchor="middle" x="771.5" y="-14.3" font-family="Times,serif" font-size="14.00">A:assumpNIHGBW</text>
</g>
<!-- theory&#45;&gt;assumpNIHGBW -->
<g id="edge16" class="edge">
<title>theory:eBalanceOnWtrRC&#45;&gt;assumpNIHGBW</title>
<path fill="none" stroke="black" d="M1036.38,-143.93C1003.97,-125.23 949.81,-94.87 901.5,-72 877.2,-60.5 849.71,-49.07 826.28,-39.78"/>
<polygon fill="black" stroke="black" points="827.44,-36.48 816.85,-36.07 824.88,-42.99 827.44,-36.48"/>
</g>
<!-- tauW -->
<g id="node15" class="node">
<title>tauW</title>
<polygon fill="#bbffff" stroke="black" points="707,-108 532,-108 532,-72 707,-72 707,-108"/>
<text text-anchor="middle" x="619.5" y="-86.3" font-family="Times,serif" font-size="14.00">DD:balanceDecayRate</text>
</g>
<!-- theory&#45;&gt;tauW -->
<g id="edge17" class="edge">
<title>theory:eBalanceOnWtrRC&#45;&gt;tauW</title>
<path fill="none" stroke="black" d="M1003.49,-151.27C929.27,-139.62 804.13,-119.98 716.95,-106.3"/>
<polygon fill="black" stroke="black" points="717.47,-102.83 707.05,-104.74 716.39,-109.75 717.47,-102.83"/>
</g>
<!-- assumpAPT -->
<g id="node16" class="node">
<title>assumpAPT</title>
<polygon fill="mistyrose" stroke="black" points="1759.5,-36 1645.5,-36 1645.5,0 1759.5,0 1759.5,-36"/>
<text text-anchor="middle" x="1702.5" y="-14.3" font-family="Times,serif" font-size="14.00">A:assumpAPT</text>
</g>
<!-- theory&#45;&gt;assumpAPT -->
<g id="edge21" class="edge">
<title>theory:heatEInWtrIM&#45;&gt;assumpAPT</title>
<path fill="none" stroke="black" d="M1127.59,-148.82C1180.32,-138.37 1257.98,-122.7 1325.5,-108 1460.88,-78.54 1497.01,-70.09 1635.16,-36.31"/>
<polygon fill="black" stroke="black" points="1636.4,-39.6 1645.28,-33.83 1634.74,-32.81 1636.4,-39.6"/>
</g>
<!-- findMass -->
<g id="node17" class="node">
<title>findMass</title>
<polygon fill="ivory" stroke="black" points="511.5,-252 405.5,-252 405.5,-216 511.5,-216 511.5,-252"/>
<text text-anchor="middle" x="458.5" y="-230.3" font-family="Times,serif" font-size="14.00">FR:findMass</text>
</g>
<!-- findMass&#45;&gt;wVol -->
<g id="edge24" class="edge">
<title>findMass&#45;&gt;wVol</title>
<path fill="none" stroke="black" d="M414.59,-215.87C347.55,-189.72 219.84,-139.9 147.66,-111.74"/>
<polygon fill="black" stroke="black" points="148.87,-108.45 138.28,-108.08 146.32,-114.97 148.87,-108.45"/>
</g>
<!-- findMass&#45;&gt;tankVol -->
<g id="edge25" class="edge">
<title>findMass&#45;&gt;tankVol</title>
<path fill="none" stroke="black" d="M457.41,-215.87C455.88,-191.67 453.06,-147.21 451.24,-118.39"/>
<polygon fill="black" stroke="black" points="454.72,-117.95 450.59,-108.19 447.73,-118.39 454.72,-117.95"/>
</g>
<!-- findMass&#45;&gt;theory -->
<g id="edge26" class="edge">
<title>findMass&#45;&gt;theory:eBalanceOnWtrRC</title>
<path fill="none" stroke="black" d="M511.8,-217.76C514.73,-217.12 517.65,-216.53 520.5,-216 688.11,-185.11 888.25,-171.49 993.15,-166.1"/>
<polygon fill="black" stroke="black" points="993.5,-169.59 1003.31,-165.59 993.15,-162.6 993.5,-169.59"/>
</g>
<!-- wMass -->
<g id="node18" class="node">
<title>wMass</title>
<polygon fill="#bbffff" stroke="black" points="367.5,-108 245.5,-108 245.5,-72 367.5,-72 367.5,-108"/>
<text text-anchor="middle" x="306.5" y="-86.3" font-family="Times,serif" font-size="14.00">DD:waterMass</text>
</g>
<!-- findMass&#45;&gt;wMass -->
<g id="edge23" class="edge">
<title>findMass&#45;&gt;wMass</title>
<path fill="none" stroke="black" d="M440.17,-215.87C413.23,-190.71 362.86,-143.65 332.23,-115.04"/>
<polygon fill="black" stroke="black" points="334.6,-112.46 324.9,-108.19 329.82,-117.57 334.6,-112.46"/>
</g>
<!-- inputValues -->
<g id="node19" class="node">
<title>inputValues</title>
<polygon fill="ivory" stroke="black" points="655,-252 530,-252 530,-216 655,-216 655,-252"/>
<text text-anchor="middle" x="592.5" y="-230.3" font-family="Times,serif" font-size="14.00">FR:inputValues</text>
</g>
<!-- findMass&#45;&gt;inputValues -->
<g id="edge27" class="edge">
<title>findMass&#45;&gt;inputValues</title>
<path fill="none" stroke="black" d="M511.63,-234C514.4,-234 517.16,-234 519.93,-234"/>
<polygon fill="black" stroke="black" points="519.95,-237.5 529.95,-234 519.95,-230.5 519.95,-237.5"/>
</g>
<!-- outputInputDerivVals -->
<g id="node20" class="node">
<title>outputInputDerivVals</title>
<polygon fill="ivory" stroke="black" points="388,-252 193,-252 193,-216 388,-216 388,-252"/>
<text text-anchor="middle" x="290.5" y="-230.3" font-family="Times,serif" font-size="14.00">FR:outputInputDerivVals</text>
</g>
<!-- outputInputDerivVals&#45;&gt;tauW -->
<g id="edge28" class="edge">
<title>outputInputDerivVals&#45;&gt;tauW</title>
<path fill="none" stroke="black" d="M330.19,-215.87C390.54,-189.82 505.27,-140.3 570.65,-112.08"/>
<polygon fill="black" stroke="black" points="572.14,-115.25 579.93,-108.08 569.36,-108.83 572.14,-115.25"/>
</g>
<!-- outputInputDerivVals&#45;&gt;findMass -->
<g id="edge30" class="edge">
<title>outputInputDerivVals&#45;&gt;findMass</title>
<path fill="none" stroke="black" d="M388.28,-234C390.58,-234 392.89,-234 395.19,-234"/>
<polygon fill="black" stroke="black" points="395.29,-237.5 405.29,-234 395.29,-230.5 395.29,-237.5"/>
</g>
<!-- outputInputDerivVals&#45;&gt;inputValues -->
<g id="edge29" class="edge">
<title>outputInputDerivVals&#45;&gt;inputValues</title>
<path fill="none" stroke="black" d="M337.02,-252.09C357.65,-259.19 382.44,-266.48 405.5,-270 452.07,-277.12 465.42,-279.78 511.5,-270 524.82,-267.17 538.6,-262 550.94,-256.45"/>
<polygon fill="black" stroke="black" points="552.5,-259.58 560.06,-252.15 549.52,-253.24 552.5,-259.58"/>
</g>
<!-- calcValues -->
<g id="node21" class="node">
<title>calcValues</title>
<polygon fill="ivory" stroke="black" points="1122.5,-252 1006.5,-252 1006.5,-216 1122.5,-216 1122.5,-252"/>
<text text-anchor="middle" x="1064.5" y="-230.3" font-family="Times,serif" font-size="14.00">FR:calcValues</text>
</g>
<!-- calcValues&#45;&gt;theory -->
<g id="edge31" class="edge">
<title>calcValues&#45;&gt;theory:eBalanceOnWtrRC</title>
<path fill="none" stroke="black" d="M1058.83,-215.7C1058.15,-207.98 1058.05,-198.71 1058.52,-190.11"/>
<polygon fill="black" stroke="black" points="1062.01,-190.36 1059.36,-180.1 1055.03,-189.78 1062.01,-190.36"/>
</g>
<!-- calcValues&#45;&gt;theory -->
<g id="edge32" class="edge">
<title>calcValues&#45;&gt;theory:heatEInWtrIM</title>
<path fill="none" stroke="black" d="M1070.66,-215.7C1071.57,-207.98 1071.93,-198.71 1071.71,-190.11"/>
<polygon fill="black" stroke="black" points="1075.2,-189.89 1071.15,-180.1 1068.21,-190.28 1075.2,-189.89"/>
</g>
<!-- outputValues -->
<g id="node22" class="node">
<title>outputValues</title>
<polygon fill="ivory" stroke="black" points="1276,-252 1141,-252 1141,-216 1276,-216 1276,-252"/>
<text text-anchor="middle" x="1208.5" y="-230.3" font-family="Times,serif" font-size="14.00">FR:outputValues</text>
</g>
<!-- outputValues&#45;&gt;theory -->
<g id="edge33" class="edge">
<title>outputValues&#45;&gt;theory:eBalanceOnWtrRC</title>
<path fill="none" stroke="black" d="M1167.62,-215.88C1147.51,-206.51 1123.48,-194.81 1103.74,-184.8"/>
<polygon fill="black" stroke="black" points="1105.21,-181.63 1094.71,-180.19 1102.02,-187.86 1105.21,-181.63"/>
</g>
<!-- outputValues&#45;&gt;theory -->
<g id="edge34" class="edge">
<title>outputValues&#45;&gt;theory:heatEInWtrIM</title>
<path fill="none" stroke="black" d="M1179.42,-215.88C1161.03,-206.39 1136.89,-194.51 1115.53,-184.42"/>
<polygon fill="black" stroke="black" points="1116.8,-181.15 1106.26,-180.07 1113.83,-187.48 1116.8,-181.15"/>
</g>
<!-- likeChgTCVOD -->
<g id="node23" class="node">
<title>likeChgTCVOD</title>
<polygon fill="lavender" stroke="black" points="174.5,-252 28.5,-252 28.5,-216 174.5,-216 174.5,-252"/>
<text text-anchor="middle" x="101.5" y="-230.3" font-family="Times,serif" font-size="14.00">LC:likeChgTCVOD</text>
</g>
<!-- likeChgTCVOD&#45;&gt;assumpTHCCoT -->
<g id="edge35" class="edge">
<title>likeChgTCVOD&#45;&gt;assumpTHCCoT</title>
<path fill="none" stroke="black" d="M115.21,-215.66C139.09,-185.69 190.18,-122.57 236.5,-72 245.29,-62.4 255.3,-52.22 264.24,-43.37"/>
<polygon fill="black" stroke="black" points="266.76,-45.79 271.44,-36.29 261.85,-40.8 266.76,-45.79"/>
</g>
<!-- likeChgTCVOL -->
<g id="node24" class="node">
<title>likeChgTCVOL</title>
<polygon fill="lavender" stroke="black" points="2073.5,-252 1929.5,-252 1929.5,-216 2073.5,-216 2073.5,-252"/>
<text text-anchor="middle" x="2001.5" y="-230.3" font-family="Times,serif" font-size="14.00">LC:likeChgTCVOL</text>
</g>
<!-- assumpTHCCoL -->
<g id="node25" class="node">
<title>assumpTHCCoL</title>
<polygon fill="mistyrose" stroke="black" points="2074,-36 1929,-36 1929,0 2074,0 2074,-36"/>
<text text-anchor="middle" x="2001.5" y="-14.3" font-family="Times,serif" font-size="14.00">A:assumpTHCCoL</text>
</g>
<!-- likeChgTCVOL&#45;&gt;assumpTHCCoL -->
<g id="edge36" class="edge">
<title>likeChgTCVOL&#45;&gt;assumpTHCCoL</title>
<path fill="none" stroke="black" d="M2001.5,-215.85C2001.5,-178.83 2001.5,-91.18 2001.5,-46.39"/>
<polygon fill="black" stroke="black" points="2005,-46.23 2001.5,-36.23 1998,-46.23 2005,-46.23"/>
</g>
<!-- likeChgDT -->
<g id="node26" class="node">
<title>likeChgDT</title>
<polygon fill="lavender" stroke="black" points="2218,-252 2103,-252 2103,-216 2218,-216 2218,-252"/>
<text text-anchor="middle" x="2160.5" y="-230.3" font-family="Times,serif" font-size="14.00">LC:likeChgDT</text>
</g>
<!-- assumpCTNTD -->
<g id="node27" class="node">
<title>assumpCTNTD</title>
<polygon fill="mistyrose" stroke="black" points="2229,-36 2092,-36 2092,0 2229,0 2229,-36"/>
<text text-anchor="middle" x="2160.5" y="-14.3" font-family="Times,serif" font-size="14.00">A:assumpCTNTD</text>
</g>
<!-- likeChgDT&#45;&gt;assumpCTNTD -->
<g id="edge37" class="edge">
<title>likeChgDT&#45;&gt;assumpCTNTD</title>
<path fill="none" stroke="black" d="M2160.5,-215.85C2160.5,-178.83 2160.5,-91.18 2160.5,-46.39"/>
<polygon fill="black" stroke="black" points="2164,-46.23 2160.5,-36.23 2157,-46.23 2164,-46.23"/>
</g>
<!-- likeChgTLH -->
<g id="node28" class="node">
<title>likeChgTLH</title>
<polygon fill="lavender" stroke="black" points="798,-252 673,-252 673,-216 798,-216 798,-252"/>
<text text-anchor="middle" x="735.5" y="-230.3" font-family="Times,serif" font-size="14.00">LC:likeChgTLH</text>
</g>
<!-- likeChgTLH&#45;&gt;assumpPIT -->
<g id="edge38" class="edge">
<title>likeChgTLH&#45;&gt;assumpPIT</title>
<path fill="none" stroke="black" d="M739.16,-215.8C745.02,-183.16 752.39,-111.93 715.5,-72 663.73,-15.95 621.23,-51.18 541.52,-35.97"/>
<polygon fill="black" stroke="black" points="542.12,-32.52 531.61,-33.85 540.66,-39.36 542.12,-32.52"/>
</g>
<!-- unlikeChgWFS -->
<g id="node29" class="node">
<title>unlikeChgWFS</title>
<polygon fill="lavender" stroke="black" points="1911,-252 1762,-252 1762,-216 1911,-216 1911,-252"/>
<text text-anchor="middle" x="1836.5" y="-230.3" font-family="Times,serif" font-size="14.00">UC:unlikeChgWFS</text>
</g>
<!-- unlikeChgWFS&#45;&gt;assumpWAL -->
<g id="edge39" class="edge">
<title>unlikeChgWFS&#45;&gt;assumpWAL</title>
<path fill="none" stroke="black" d="M1836.5,-215.85C1836.5,-178.83 1836.5,-91.18 1836.5,-46.39"/>
<polygon fill="black" stroke="black" points="1840,-46.23 1836.5,-36.23 1833,-46.23 1840,-46.23"/>
</g>
<!-- unlikeChgNIHG -->
<g id="node30" class="node">
<title>unlikeChgNIHG</title>
<polygon fill="lavender" stroke="black" points="983.5,-252 827.5,-252 827.5,-216 983.5,-216 983.5,-252"/>
<text text-anchor="middle" x="905.5" y="-230.3" font-family="Times,serif" font-size="14.00">UC:unlikeChgNIHG</text>
</g>
<!-- unlikeChgNIHG&#45;&gt;theory -->
<g id="edge41" class="edge">
<title>unlikeChgNIHG&#45;&gt;theory:eBalanceOnWtrRC</title>
<path fill="none" stroke="black" d="M944.64,-215.88C966.51,-206.31 993.96,-194.3 1017.16,-184.15"/>
<polygon fill="black" stroke="black" points="1018.73,-187.28 1026.49,-180.07 1015.92,-180.87 1018.73,-187.28"/>
</g>
<!-- unlikeChgNIHG&#45;&gt;assumpNIHGBW -->
<g id="edge40" class="edge">
<title>unlikeChgNIHG&#45;&gt;assumpNIHGBW</title>
<path fill="none" stroke="black" d="M894.76,-215.85C871.34,-178.44 815.53,-89.32 787.77,-44.98"/>
<polygon fill="black" stroke="black" points="790.56,-42.85 782.29,-36.23 784.63,-46.57 790.56,-42.85"/>
</g>
<!-- checkWithPhysConsts -->
<g id="node31" class="node">
<title>checkWithPhysConsts</title>
<polygon fill="ivory" stroke="black" points="2435,-252 2236,-252 2236,-216 2435,-216 2435,-252"/>
<text text-anchor="middle" x="2335.5" y="-230.3" font-family="Times,serif" font-size="14.00">FR:checkWithPhysConsts</text>
</g>
<!-- correct -->
<g id="node32" class="node">
<title>correct</title>
<polygon fill="ivory" stroke="black" points="2557.5,-252 2453.5,-252 2453.5,-216 2557.5,-216 2557.5,-252"/>
<text text-anchor="middle" x="2505.5" y="-230.3" font-family="Times,serif" font-size="14.00">NFR:correct</text>
</g>
<!-- verifiable -->
<g id="node33" class="node">
<title>verifiable</title>
<polygon fill="ivory" stroke="black" points="2695.5,-252 2575.5,-252 2575.5,-216 2695.5,-216 2695.5,-252"/>
<text text-anchor="middle" x="2635.5" y="-230.3" font-family="Times,serif" font-size="14.00">NFR:verifiable</text>
</g>
<!-- understandable -->
<g id="node34" class="node">
<title>understandable</title>
<polygon fill="ivory" stroke="black" points="2879,-252 2714,-252 2714,-216 2879,-216 2879,-252"/>
<text text-anchor="middle" x="2796.5" y="-230.3" font-family="Times,serif" font-size="14.00">NFR:understandable</text>
</g>
<!-- reusable -->
<g id="node35" class="node">
<title>reusable</title>
<polygon fill="ivory" stroke="black" points="3012,-252 2897,-252 2897,-216 3012,-216 3012,-252"/>
<text text-anchor="middle" x="2954.5" y="-230.3" font-family="Times,serif" font-size="14.00">NFR:reusable</text>
</g>
<!-- maintainable -->
<g id="node36" class="node">
<title>maintainable</title>
<polygon fill="ivory" stroke="black" points="3176.5,-252 3030.5,-252 3030.5,-216 3176.5,-216 3176.5,-252"/>
<text text-anchor="middle" x="3103.5" y="-230.3" font-family="Times,serif" font-size="14.00">NFR:maintainable</text>
</g>
<!-- waterTempGS -->
<g id="node37" class="node">
<title>waterTempGS</title>
<polygon fill="#ffb90f" stroke="black" points="3338,-252 3195,-252 3195,-216 3338,-216 3338,-252"/>
<text text-anchor="middle" x="3266.5" y="-230.3" font-family="Times,serif" font-size="14.00">GS:waterTempGS</text>
</g>
<!-- waterEnergyGS -->
<g id="node38" class="node">
<title>waterEnergyGS</title>
<polygon fill="#ffb90f" stroke="black" points="3512.5,-252 3356.5,-252 3356.5,-216 3512.5,-216 3512.5,-252"/>
<text text-anchor="middle" x="3434.5" y="-230.3" font-family="Times,serif" font-size="14.00">GS:waterEnergyGS</text>
</g>
</g>
</svg>
