<?xml version="1.0" encoding="UTF-8" standalone="no"?>
<!DOCTYPE svg PUBLIC "-//W3C//DTD SVG 1.1//EN"
 "http://www.w3.org/Graphics/SVG/1.1/DTD/svg11.dtd">
<!-- Generated by graphviz version 2.43.0 (0)
 -->
<!-- Title: avsa Pages: 1 -->
<svg width="2100pt" height="44pt"
 viewBox="0.00 0.00 2100.00 44.00" xmlns="http://www.w3.org/2000/svg" xmlns:xlink="http://www.w3.org/1999/xlink">
<g id="graph0" class="graph" transform="scale(1 1) rotate(0) translate(4 40)">
<title>avsa</title>
<polygon fill="white" stroke="transparent" points="-4,4 -4,-40 2096,-40 2096,4 -4,4"/>
<!-- assumpTEO -->
<g id="node1" class="node">
<title>assumpTEO</title>
<polygon fill="mistyrose" stroke="black" points="116,-36 0,-36 0,0 116,0 116,-36"/>
<text text-anchor="middle" x="58" y="-14.3" font-family="Times,serif" font-size="14.00">A:assumpTEO</text>
</g>
<!-- assumpHTCC -->
<g id="node2" class="node">
<title>assumpHTCC</title>
<polygon fill="mistyrose" stroke="black" points="262,-36 134,-36 134,0 262,0 262,-36"/>
<text text-anchor="middle" x="198" y="-14.3" font-family="Times,serif" font-size="14.00">A:assumpHTCC</text>
</g>
<!-- assumpCWTAT -->
<g id="node3" class="node">
<title>assumpCWTAT</title>
<polygon fill="mistyrose" stroke="black" points="417.5,-36 280.5,-36 280.5,0 417.5,0 417.5,-36"/>
<text text-anchor="middle" x="349" y="-14.3" font-family="Times,serif" font-size="14.00">A:assumpCWTAT</text>
</g>
<!-- assumpDWCoW -->
<g id="node4" class="node">
<title>assumpDWCoW</title>
<polygon fill="mistyrose" stroke="black" points="580,-36 436,-36 436,0 580,0 580,-36"/>
<text text-anchor="middle" x="508" y="-14.3" font-family="Times,serif" font-size="14.00">A:assumpDWCoW</text>
</g>
<!-- assumpSHECoW -->
<g id="node5" class="node">
<title>assumpSHECoW</title>
<polygon fill="mistyrose" stroke="black" points="749.5,-36 598.5,-36 598.5,0 749.5,0 749.5,-36"/>
<text text-anchor="middle" x="674" y="-14.3" font-family="Times,serif" font-size="14.00">A:assumpSHECoW</text>
</g>
<!-- assumpLCCCW -->
<g id="node6" class="node">
<title>assumpLCCCW</title>
<polygon fill="mistyrose" stroke="black" points="908,-36 768,-36 768,0 908,0 908,-36"/>
<text text-anchor="middle" x="838" y="-14.3" font-family="Times,serif" font-size="14.00">A:assumpLCCCW</text>
</g>
<!-- assumpTHCCoT -->
<g id="node7" class="node">
<title>assumpTHCCoT</title>
<polygon fill="mistyrose" stroke="black" points="1071.5,-36 926.5,-36 926.5,0 1071.5,0 1071.5,-36"/>
<text text-anchor="middle" x="999" y="-14.3" font-family="Times,serif" font-size="14.00">A:assumpTHCCoT</text>
</g>
<!-- assumpTHCCoL -->
<g id="node8" class="node">
<title>assumpTHCCoL</title>
<polygon fill="mistyrose" stroke="black" points="1234.5,-36 1089.5,-36 1089.5,0 1234.5,0 1234.5,-36"/>
<text text-anchor="middle" x="1162" y="-14.3" font-family="Times,serif" font-size="14.00">A:assumpTHCCoL</text>
</g>
<!-- assumpCTNTD -->
<g id="node9" class="node">
<title>assumpCTNTD</title>
<polygon fill="mistyrose" stroke="black" points="1389.5,-36 1252.5,-36 1252.5,0 1389.5,0 1389.5,-36"/>
<text text-anchor="middle" x="1321" y="-14.3" font-family="Times,serif" font-size="14.00">A:assumpCTNTD</text>
</g>
<!-- assumpWAL -->
<g id="node10" class="node">
<title>assumpWAL</title>
<polygon fill="mistyrose" stroke="black" points="1526,-36 1408,-36 1408,0 1526,0 1526,-36"/>
<text text-anchor="middle" x="1467" y="-14.3" font-family="Times,serif" font-size="14.00">A:assumpWAL</text>
</g>
<!-- assumpPIT -->
<g id="node11" class="node">
<title>assumpPIT</title>
<polygon fill="mistyrose" stroke="black" points="1654,-36 1544,-36 1544,0 1654,0 1654,-36"/>
<text text-anchor="middle" x="1599" y="-14.3" font-family="Times,serif" font-size="14.00">A:assumpPIT</text>
</g>
<!-- assumpNIHGBW -->
<g id="node12" class="node">
<title>assumpNIHGBW</title>
<polygon fill="mistyrose" stroke="black" points="1823.5,-36 1672.5,-36 1672.5,0 1823.5,0 1823.5,-36"/>
<text text-anchor="middle" x="1748" y="-14.3" font-family="Times,serif" font-size="14.00">A:assumpNIHGBW</text>
</g>
<!-- assumpAPT -->
<g id="node13" class="node">
<title>assumpAPT</title>
<polygon fill="mistyrose" stroke="black" points="1956,-36 1842,-36 1842,0 1956,0 1956,-36"/>
<text text-anchor="middle" x="1899" y="-14.3" font-family="Times,serif" font-size="14.00">A:assumpAPT</text>
</g>
<!-- assumpVCN -->
<g id="node14" class="node">
<title>assumpVCN</title>
<polygon fill="mistyrose" stroke="black" points="2092,-36 1974,-36 1974,0 2092,0 2092,-36"/>
<text text-anchor="middle" x="2033" y="-14.3" font-family="Times,serif" font-size="14.00">A:assumpVCN</text>
</g>
</g>
</svg>
