<?xml version="1.0" encoding="UTF-8" standalone="no"?>
<!DOCTYPE svg PUBLIC "-//W3C//DTD SVG 1.1//EN"
 "http://www.w3.org/Graphics/SVG/1.1/DTD/svg11.dtd">
<!-- Generated by graphviz version 2.43.0 (0)
 -->
<!-- Title: avsall Pages: 1 -->
<svg width="4374pt" height="123pt"
 viewBox="0.00 0.00 4373.50 123.18" xmlns="http://www.w3.org/2000/svg" xmlns:xlink="http://www.w3.org/1999/xlink">
<g id="graph0" class="graph" transform="scale(1 1) rotate(0) translate(4 119.18)">
<title>avsall</title>
<polygon fill="white" stroke="transparent" points="-4,4 -4,-119.18 4369.5,-119.18 4369.5,4 -4,4"/>
<!-- wVol -->
<g id="node1" class="node">
<title>wVol</title>
<polygon fill="#bbffff" stroke="black" points="189,-108 0,-108 0,-72 189,-72 189,-108"/>
<text text-anchor="middle" x="94.5" y="-86.3" font-family="Times,serif" font-size="14.00">DD:waterVolume.nopcm</text>
</g>
<!-- assumpVCN -->
<g id="node2" class="node">
<title>assumpVCN</title>
<polygon fill="mistyrose" stroke="black" points="153.5,-36 35.5,-36 35.5,0 153.5,0 153.5,-36"/>
<text text-anchor="middle" x="94.5" y="-14.3" font-family="Times,serif" font-size="14.00">A:assumpVCN</text>
</g>
<!-- wVol&#45;&gt;assumpVCN -->
<g id="edge1" class="edge">
<title>wVol&#45;&gt;assumpVCN</title>
<path fill="none" stroke="black" d="M94.5,-71.7C94.5,-63.98 94.5,-54.71 94.5,-46.11"/>
<polygon fill="black" stroke="black" points="98,-46.1 94.5,-36.1 91,-46.1 98,-46.1"/>
</g>
<!-- theory -->
<g id="node3" class="node">
<title>theory</title>
<polygon fill="#fff68f" stroke="black" points="1201.5,-108 1077.5,-108 1077.5,-72 1201.5,-72 1201.5,-108"/>
<text text-anchor="middle" x="1139.5" y="-86.3" font-family="Times,serif" font-size="14.00">IM:heatEInWtr</text>
</g>
<!-- assumpTEO -->
<g id="node4" class="node">
<title>assumpTEO</title>
<polygon fill="mistyrose" stroke="black" points="893.5,-36 777.5,-36 777.5,0 893.5,0 893.5,-36"/>
<text text-anchor="middle" x="835.5" y="-14.3" font-family="Times,serif" font-size="14.00">A:assumpTEO</text>
</g>
<!-- theory&#45;&gt;assumpTEO -->
<g id="edge2" class="edge">
<title>theory:consThermECS&#45;&gt;assumpTEO</title>
<path fill="none" stroke="black" d="M1077.01,-75.53C1031.5,-65.61 968.11,-51.55 903.53,-36.22"/>
<polygon fill="black" stroke="black" points="904.12,-32.76 893.58,-33.84 902.5,-39.57 904.12,-32.76"/>
</g>
<!-- assumpWAL -->
<g id="node5" class="node">
<title>assumpWAL</title>
<polygon fill="mistyrose" stroke="black" points="1809.5,-36 1691.5,-36 1691.5,0 1809.5,0 1809.5,-36"/>
<text text-anchor="middle" x="1750.5" y="-14.3" font-family="Times,serif" font-size="14.00">A:assumpWAL</text>
</g>
<!-- theory&#45;&gt;assumpWAL -->
<g id="edge3" class="edge">
<title>theory:sensHeat&#45;&gt;assumpWAL</title>
<path fill="none" stroke="black" d="M1201.5,-72C1221.32,-34.18 1610.68,-44.43 1663.5,-36 1669.2,-35.09 1675.12,-33.95 1681.09,-32.68"/>
<polygon fill="black" stroke="black" points="1682.17,-36.03 1691.18,-30.47 1680.67,-29.19 1682.17,-36.03"/>
</g>
<!-- theory&#45;&gt;assumpWAL -->
<g id="edge10" class="edge">
<title>theory:eBalanceOnWtrRC&#45;&gt;assumpWAL</title>
<path fill="none" stroke="black" d="M1201.96,-71.56C1240.58,-35.9 1595.59,-43.59 1681.13,-35.51"/>
<polygon fill="black" stroke="black" points="1681.66,-38.97 1691.16,-34.29 1680.81,-32.02 1681.66,-38.97"/>
</g>
<!-- theory&#45;&gt;assumpWAL -->
<g id="edge13" class="edge">
<title>theory:heatEInWtrIM&#45;&gt;assumpWAL</title>
<path fill="none" stroke="black" d="M1201.83,-71.78C1256,-36.09 1609.03,-43.52 1689.24,-37.12"/>
<polygon fill="black" stroke="black" points="1689.62,-40.6 1699.19,-36.05 1688.87,-33.64 1689.62,-40.6"/>
</g>
<!-- assumpHTCC -->
<g id="node6" class="node">
<title>assumpHTCC</title>
<polygon fill="mistyrose" stroke="black" points="299.5,-36 171.5,-36 171.5,0 299.5,0 299.5,-36"/>
<text text-anchor="middle" x="235.5" y="-14.3" font-family="Times,serif" font-size="14.00">A:assumpHTCC</text>
</g>
<!-- theory&#45;&gt;assumpHTCC -->
<g id="edge4" class="edge">
<title>theory:nwtnCoolingTM&#45;&gt;assumpHTCC</title>
<path fill="none" stroke="black" d="M1077.5,-109C1048.46,-138.04 409.46,-50.96 309.93,-36.05"/>
<polygon fill="black" stroke="black" points="310.31,-32.56 299.89,-34.49 309.24,-39.48 310.31,-32.56"/>
</g>
<!-- assumpCWTAT -->
<g id="node7" class="node">
<title>assumpCWTAT</title>
<polygon fill="mistyrose" stroke="black" points="1049,-36 912,-36 912,0 1049,0 1049,-36"/>
<text text-anchor="middle" x="980.5" y="-14.3" font-family="Times,serif" font-size="14.00">A:assumpCWTAT</text>
</g>
<!-- theory&#45;&gt;assumpCWTAT -->
<g id="edge5" class="edge">
<title>theory:rocTempSimpRC&#45;&gt;assumpCWTAT</title>
<path fill="none" stroke="black" d="M1100.6,-71.88C1078.87,-62.31 1051.6,-50.3 1028.54,-40.15"/>
<polygon fill="black" stroke="black" points="1029.83,-36.89 1019.27,-36.07 1027.01,-43.3 1029.83,-36.89"/>
</g>
<!-- assumpDWCoW -->
<g id="node8" class="node">
<title>assumpDWCoW</title>
<polygon fill="mistyrose" stroke="black" points="1211.5,-36 1067.5,-36 1067.5,0 1211.5,0 1211.5,-36"/>
<text text-anchor="middle" x="1139.5" y="-14.3" font-family="Times,serif" font-size="14.00">A:assumpDWCoW</text>
</g>
<!-- theory&#45;&gt;assumpDWCoW -->
<g id="edge6" class="edge">
<title>theory:rocTempSimpRC&#45;&gt;assumpDWCoW</title>
<path fill="none" stroke="black" d="M1139.5,-71.7C1139.5,-63.98 1139.5,-54.71 1139.5,-46.11"/>
<polygon fill="black" stroke="black" points="1143,-46.1 1139.5,-36.1 1136,-46.1 1143,-46.1"/>
</g>
<!-- assumpSHECoW -->
<g id="node9" class="node">
<title>assumpSHECoW</title>
<polygon fill="mistyrose" stroke="black" points="469,-36 318,-36 318,0 469,0 469,-36"/>
<text text-anchor="middle" x="393.5" y="-14.3" font-family="Times,serif" font-size="14.00">A:assumpSHECoW</text>
</g>
<!-- theory&#45;&gt;assumpSHECoW -->
<g id="edge7" class="edge">
<title>theory:rocTempSimpRC&#45;&gt;assumpSHECoW</title>
<path fill="none" stroke="black" d="M1077.27,-86.45C961.49,-81.17 705.07,-66.98 479.47,-36.04"/>
<polygon fill="black" stroke="black" points="479.81,-32.55 469.42,-34.64 478.85,-39.48 479.81,-32.55"/>
</g>
<!-- assumpLCCCW -->
<g id="node10" class="node">
<title>assumpLCCCW</title>
<polygon fill="mistyrose" stroke="black" points="627.5,-36 487.5,-36 487.5,0 627.5,0 627.5,-36"/>
<text text-anchor="middle" x="557.5" y="-14.3" font-family="Times,serif" font-size="14.00">A:assumpLCCCW</text>
</g>
<!-- theory&#45;&gt;assumpLCCCW -->
<g id="edge8" class="edge">
<title>theory:htFluxC&#45;&gt;assumpLCCCW</title>
<path fill="none" stroke="black" d="M1077.27,-84.6C983.92,-77.52 801.97,-61.88 637.92,-36.13"/>
<polygon fill="black" stroke="black" points="638.06,-32.61 627.64,-34.5 636.97,-39.52 638.06,-32.61"/>
</g>
<!-- assumpTHCCoT -->
<g id="node11" class="node">
<title>assumpTHCCoT</title>
<polygon fill="mistyrose" stroke="black" points="1375,-36 1230,-36 1230,0 1375,0 1375,-36"/>
<text text-anchor="middle" x="1302.5" y="-14.3" font-family="Times,serif" font-size="14.00">A:assumpTHCCoT</text>
</g>
<!-- theory&#45;&gt;assumpTHCCoT -->
<g id="edge9" class="edge">
<title>theory:htFluxC&#45;&gt;assumpTHCCoT</title>
<path fill="none" stroke="black" d="M1179.37,-71.88C1201.66,-62.31 1229.62,-50.3 1253.26,-40.15"/>
<polygon fill="black" stroke="black" points="1254.95,-43.23 1262.76,-36.07 1252.19,-36.8 1254.95,-43.23"/>
</g>
<!-- assumpPIT -->
<g id="node12" class="node">
<title>assumpPIT</title>
<polygon fill="mistyrose" stroke="black" points="1503.5,-36 1393.5,-36 1393.5,0 1503.5,0 1503.5,-36"/>
<text text-anchor="middle" x="1448.5" y="-14.3" font-family="Times,serif" font-size="14.00">A:assumpPIT</text>
</g>
<!-- theory&#45;&gt;assumpPIT -->
<g id="edge11" class="edge">
<title>theory:eBalanceOnWtrRC&#45;&gt;assumpPIT</title>
<path fill="none" stroke="black" d="M1201.53,-74.25C1204.9,-73.48 1208.24,-72.73 1211.5,-72 1287.73,-55.03 1307.47,-53.89 1383.5,-36 1383.6,-35.98 1383.7,-35.95 1383.8,-35.93"/>
<polygon fill="black" stroke="black" points="1384.33,-39.4 1393.23,-33.65 1382.69,-32.6 1384.33,-39.4"/>
</g>
<!-- assumpNIHGBW -->
<g id="node13" class="node">
<title>assumpNIHGBW</title>
<polygon fill="mistyrose" stroke="black" points="1673,-36 1522,-36 1522,0 1673,0 1673,-36"/>
<text text-anchor="middle" x="1597.5" y="-14.3" font-family="Times,serif" font-size="14.00">A:assumpNIHGBW</text>
</g>
<!-- theory&#45;&gt;assumpNIHGBW -->
<g id="edge12" class="edge">
<title>theory:eBalanceOnWtrRC&#45;&gt;assumpNIHGBW</title>
<path fill="none" stroke="black" d="M1201.85,-73.82C1205.11,-73.17 1208.34,-72.56 1211.5,-72 1340.92,-49.06 1377.67,-56.82 1511.33,-36.11"/>
<polygon fill="black" stroke="black" points="1512.22,-39.51 1521.55,-34.5 1511.13,-32.59 1512.22,-39.51"/>
</g>
<!-- assumpAPT -->
<g id="node14" class="node">
<title>assumpAPT</title>
<polygon fill="mistyrose" stroke="black" points="759.5,-36 645.5,-36 645.5,0 759.5,0 759.5,-36"/>
<text text-anchor="middle" x="702.5" y="-14.3" font-family="Times,serif" font-size="14.00">A:assumpAPT</text>
</g>
<!-- theory&#45;&gt;assumpAPT -->
<g id="edge14" class="edge">
<title>theory:heatEInWtrIM&#45;&gt;assumpAPT</title>
<path fill="none" stroke="black" d="M1077.44,-82.25C1005.57,-73.97 883.49,-58.43 769.59,-36.1"/>
<polygon fill="black" stroke="black" points="770.14,-32.64 759.65,-34.13 768.78,-39.51 770.14,-32.64"/>
</g>
<!-- likeChgTCVOD -->
<g id="node15" class="node">
<title>likeChgTCVOD</title>
<polygon fill="lavender" stroke="black" points="1366.5,-108 1220.5,-108 1220.5,-72 1366.5,-72 1366.5,-108"/>
<text text-anchor="middle" x="1293.5" y="-86.3" font-family="Times,serif" font-size="14.00">LC:likeChgTCVOD</text>
</g>
<!-- likeChgTCVOD&#45;&gt;assumpTHCCoT -->
<g id="edge15" class="edge">
<title>likeChgTCVOD&#45;&gt;assumpTHCCoT</title>
<path fill="none" stroke="black" d="M1295.72,-71.7C1296.72,-63.98 1297.91,-54.71 1299.01,-46.11"/>
<polygon fill="black" stroke="black" points="1302.5,-46.47 1300.3,-36.1 1295.55,-45.58 1302.5,-46.47"/>
</g>
<!-- likeChgTCVOL -->
<g id="node16" class="node">
<title>likeChgTCVOL</title>
<polygon fill="lavender" stroke="black" points="2014.5,-108 1870.5,-108 1870.5,-72 2014.5,-72 2014.5,-108"/>
<text text-anchor="middle" x="1942.5" y="-86.3" font-family="Times,serif" font-size="14.00">LC:likeChgTCVOL</text>
</g>
<!-- assumpTHCCoL -->
<g id="node17" class="node">
<title>assumpTHCCoL</title>
<polygon fill="mistyrose" stroke="black" points="2015,-36 1870,-36 1870,0 2015,0 2015,-36"/>
<text text-anchor="middle" x="1942.5" y="-14.3" font-family="Times,serif" font-size="14.00">A:assumpTHCCoL</text>
</g>
<!-- likeChgTCVOL&#45;&gt;assumpTHCCoL -->
<g id="edge16" class="edge">
<title>likeChgTCVOL&#45;&gt;assumpTHCCoL</title>
<path fill="none" stroke="black" d="M1942.5,-71.7C1942.5,-63.98 1942.5,-54.71 1942.5,-46.11"/>
<polygon fill="black" stroke="black" points="1946,-46.1 1942.5,-36.1 1939,-46.1 1946,-46.1"/>
</g>
<!-- likeChgDT -->
<g id="node18" class="node">
<title>likeChgDT</title>
<polygon fill="lavender" stroke="black" points="2159,-108 2044,-108 2044,-72 2159,-72 2159,-108"/>
<text text-anchor="middle" x="2101.5" y="-86.3" font-family="Times,serif" font-size="14.00">LC:likeChgDT</text>
</g>
<!-- assumpCTNTD -->
<g id="node19" class="node">
<title>assumpCTNTD</title>
<polygon fill="mistyrose" stroke="black" points="2170,-36 2033,-36 2033,0 2170,0 2170,-36"/>
<text text-anchor="middle" x="2101.5" y="-14.3" font-family="Times,serif" font-size="14.00">A:assumpCTNTD</text>
</g>
<!-- likeChgDT&#45;&gt;assumpCTNTD -->
<g id="edge17" class="edge">
<title>likeChgDT&#45;&gt;assumpCTNTD</title>
<path fill="none" stroke="black" d="M2101.5,-71.7C2101.5,-63.98 2101.5,-54.71 2101.5,-46.11"/>
<polygon fill="black" stroke="black" points="2105,-46.1 2101.5,-36.1 2098,-46.1 2105,-46.1"/>
</g>
<!-- likeChgTLH -->
<g id="node20" class="node">
<title>likeChgTLH</title>
<polygon fill="lavender" stroke="black" points="1510,-108 1385,-108 1385,-72 1510,-72 1510,-108"/>
<text text-anchor="middle" x="1447.5" y="-86.3" font-family="Times,serif" font-size="14.00">LC:likeChgTLH</text>
</g>
<!-- likeChgTLH&#45;&gt;assumpPIT -->
<g id="edge18" class="edge">
<title>likeChgTLH&#45;&gt;assumpPIT</title>
<path fill="none" stroke="black" d="M1447.75,-71.7C1447.86,-63.98 1447.99,-54.71 1448.11,-46.11"/>
<polygon fill="black" stroke="black" points="1451.61,-46.15 1448.26,-36.1 1444.61,-46.05 1451.61,-46.15"/>
</g>
<!-- unlikeChgWFS -->
<g id="node21" class="node">
<title>unlikeChgWFS</title>
<polygon fill="lavender" stroke="black" points="1852,-108 1703,-108 1703,-72 1852,-72 1852,-108"/>
<text text-anchor="middle" x="1777.5" y="-86.3" font-family="Times,serif" font-size="14.00">UC:unlikeChgWFS</text>
</g>
<!-- unlikeChgWFS&#45;&gt;assumpWAL -->
<g id="edge19" class="edge">
<title>unlikeChgWFS&#45;&gt;assumpWAL</title>
<path fill="none" stroke="black" d="M1770.83,-71.7C1767.79,-63.81 1764.12,-54.3 1760.74,-45.55"/>
<polygon fill="black" stroke="black" points="1763.96,-44.17 1757.1,-36.1 1757.43,-46.69 1763.96,-44.17"/>
</g>
<!-- unlikeChgNIHG -->
<g id="node22" class="node">
<title>unlikeChgNIHG</title>
<polygon fill="lavender" stroke="black" points="1684.5,-108 1528.5,-108 1528.5,-72 1684.5,-72 1684.5,-108"/>
<text text-anchor="middle" x="1606.5" y="-86.3" font-family="Times,serif" font-size="14.00">UC:unlikeChgNIHG</text>
</g>
<!-- unlikeChgNIHG&#45;&gt;assumpNIHGBW -->
<g id="edge20" class="edge">
<title>unlikeChgNIHG&#45;&gt;assumpNIHGBW</title>
<path fill="none" stroke="black" d="M1604.28,-71.7C1603.28,-63.98 1602.09,-54.71 1600.99,-46.11"/>
<polygon fill="black" stroke="black" points="1604.45,-45.58 1599.7,-36.1 1597.5,-46.47 1604.45,-45.58"/>
</g>
<!-- wMass -->
<g id="node23" class="node">
<title>wMass</title>
<polygon fill="#bbffff" stroke="black" points="2299.5,-108 2177.5,-108 2177.5,-72 2299.5,-72 2299.5,-108"/>
<text text-anchor="middle" x="2238.5" y="-86.3" font-family="Times,serif" font-size="14.00">DD:waterMass</text>
</g>
<!-- tankVol -->
<g id="node24" class="node">
<title>tankVol</title>
<polygon fill="#bbffff" stroke="black" points="2445.5,-108 2317.5,-108 2317.5,-72 2445.5,-72 2445.5,-108"/>
<text text-anchor="middle" x="2381.5" y="-86.3" font-family="Times,serif" font-size="14.00">DD:tankVolume</text>
</g>
<!-- tauW -->
<g id="node25" class="node">
<title>tauW</title>
<polygon fill="#bbffff" stroke="black" points="2639,-108 2464,-108 2464,-72 2639,-72 2639,-108"/>
<text text-anchor="middle" x="2551.5" y="-86.3" font-family="Times,serif" font-size="14.00">DD:balanceDecayRate</text>
</g>
<!-- inputValues -->
<g id="node26" class="node">
<title>inputValues</title>
<polygon fill="ivory" stroke="black" points="2782,-108 2657,-108 2657,-72 2782,-72 2782,-108"/>
<text text-anchor="middle" x="2719.5" y="-86.3" font-family="Times,serif" font-size="14.00">FR:inputValues</text>
</g>
<!-- findMass -->
<g id="node27" class="node">
<title>findMass</title>
<polygon fill="ivory" stroke="black" points="2906.5,-108 2800.5,-108 2800.5,-72 2906.5,-72 2906.5,-108"/>
<text text-anchor="middle" x="2853.5" y="-86.3" font-family="Times,serif" font-size="14.00">FR:findMass</text>
</g>
<!-- checkWithPhysConsts -->
<g id="node28" class="node">
<title>checkWithPhysConsts</title>
<polygon fill="ivory" stroke="black" points="3124,-108 2925,-108 2925,-72 3124,-72 3124,-108"/>
<text text-anchor="middle" x="3024.5" y="-86.3" font-family="Times,serif" font-size="14.00">FR:checkWithPhysConsts</text>
</g>
<!-- outputInputDerivVals -->
<g id="node29" class="node">
<title>outputInputDerivVals</title>
<polygon fill="ivory" stroke="black" points="3337,-108 3142,-108 3142,-72 3337,-72 3337,-108"/>
<text text-anchor="middle" x="3239.5" y="-86.3" font-family="Times,serif" font-size="14.00">FR:outputInputDerivVals</text>
</g>
<!-- calcValues -->
<g id="node30" class="node">
<title>calcValues</title>
<polygon fill="ivory" stroke="black" points="3470.5,-108 3354.5,-108 3354.5,-72 3470.5,-72 3470.5,-108"/>
<text text-anchor="middle" x="3412.5" y="-86.3" font-family="Times,serif" font-size="14.00">FR:calcValues</text>
</g>
<!-- outputValues -->
<g id="node31" class="node">
<title>outputValues</title>
<polygon fill="ivory" stroke="black" points="3624,-108 3489,-108 3489,-72 3624,-72 3624,-108"/>
<text text-anchor="middle" x="3556.5" y="-86.3" font-family="Times,serif" font-size="14.00">FR:outputValues</text>
</g>
<!-- correct -->
<g id="node32" class="node">
<title>correct</title>
<polygon fill="ivory" stroke="black" points="3746.5,-108 3642.5,-108 3642.5,-72 3746.5,-72 3746.5,-108"/>
<text text-anchor="middle" x="3694.5" y="-86.3" font-family="Times,serif" font-size="14.00">NFR:correct</text>
</g>
<!-- verifiable -->
<g id="node33" class="node">
<title>verifiable</title>
<polygon fill="ivory" stroke="black" points="3884.5,-108 3764.5,-108 3764.5,-72 3884.5,-72 3884.5,-108"/>
<text text-anchor="middle" x="3824.5" y="-86.3" font-family="Times,serif" font-size="14.00">NFR:verifiable</text>
</g>
<!-- understandable -->
<g id="node34" class="node">
<title>understandable</title>
<polygon fill="ivory" stroke="black" points="4068,-108 3903,-108 3903,-72 4068,-72 4068,-108"/>
<text text-anchor="middle" x="3985.5" y="-86.3" font-family="Times,serif" font-size="14.00">NFR:understandable</text>
</g>
<!-- reusable -->
<g id="node35" class="node">
<title>reusable</title>
<polygon fill="ivory" stroke="black" points="4201,-108 4086,-108 4086,-72 4201,-72 4201,-108"/>
<text text-anchor="middle" x="4143.5" y="-86.3" font-family="Times,serif" font-size="14.00">NFR:reusable</text>
</g>
<!-- maintainable -->
<g id="node36" class="node">
<title>maintainable</title>
<polygon fill="ivory" stroke="black" points="4365.5,-108 4219.5,-108 4219.5,-72 4365.5,-72 4365.5,-108"/>
<text text-anchor="middle" x="4292.5" y="-86.3" font-family="Times,serif" font-size="14.00">NFR:maintainable</text>
</g>
</g>
</svg>
