<?xml version="1.0" encoding="UTF-8" standalone="no"?>
<!DOCTYPE svg PUBLIC "-//W3C//DTD SVG 1.1//EN"
 "http://www.w3.org/Graphics/SVG/1.1/DTD/svg11.dtd">
<!-- Generated by graphviz version 2.43.0 (0)
 -->
<!-- Title: avsall Pages: 1 -->
<svg width="4398pt" height="116pt"
 viewBox="0.00 0.00 4397.50 116.00" xmlns="http://www.w3.org/2000/svg" xmlns:xlink="http://www.w3.org/1999/xlink">
<g id="graph0" class="graph" transform="scale(1 1) rotate(0) translate(4 112)">
<title>avsall</title>
<polygon fill="white" stroke="transparent" points="-4,4 -4,-112 4393.5,-112 4393.5,4 -4,4"/>
<!-- wVol -->
<g id="node1" class="node">
<title>wVol</title>
<polygon fill="#bbffff" stroke="black" points="189,-108 0,-108 0,-72 189,-72 189,-108"/>
<text text-anchor="middle" x="94.5" y="-86.3" font-family="Times,serif" font-size="14.00">DD:waterVolume.nopcm</text>
</g>
<!-- assumpVCN -->
<g id="node2" class="node">
<title>assumpVCN</title>
<polygon fill="mistyrose" stroke="black" points="153.5,-36 35.5,-36 35.5,0 153.5,0 153.5,-36"/>
<text text-anchor="middle" x="94.5" y="-14.3" font-family="Times,serif" font-size="14.00">A:assumpVCN</text>
</g>
<!-- wVol&#45;&gt;assumpVCN -->
<g id="edge1" class="edge">
<title>wVol&#45;&gt;assumpVCN</title>
<path fill="none" stroke="black" d="M94.5,-71.7C94.5,-63.98 94.5,-54.71 94.5,-46.11"/>
<polygon fill="black" stroke="black" points="98,-46.1 94.5,-36.1 91,-46.1 98,-46.1"/>
</g>
<!-- theory -->
<g id="node3" class="node">
<title>theory</title>
<polygon fill="#fff68f" stroke="black" points="925.5,-108 773.5,-108 773.5,-72 925.5,-72 925.5,-108"/>
<text text-anchor="middle" x="849.5" y="-86.3" font-family="Times,serif" font-size="14.00">IM:eBalanceOnWtr</text>
</g>
<!-- assumpTEO -->
<g id="node4" class="node">
<title>assumpTEO</title>
<polygon fill="mistyrose" stroke="black" points="287.5,-36 171.5,-36 171.5,0 287.5,0 287.5,-36"/>
<text text-anchor="middle" x="229.5" y="-14.3" font-family="Times,serif" font-size="14.00">A:assumpTEO</text>
</g>
<!-- theory&#45;&gt;assumpTEO -->
<g id="edge2" class="edge">
<title>theory:consThermECS&#45;&gt;assumpTEO</title>
<path fill="none" stroke="black" d="M773.43,-85.4C668.35,-79.6 472.83,-65.87 297.76,-36.07"/>
<polygon fill="black" stroke="black" points="298.3,-32.61 287.85,-34.37 297.11,-39.51 298.3,-32.61"/>
</g>
<!-- assumpWAL -->
<g id="node5" class="node">
<title>assumpWAL</title>
<polygon fill="mistyrose" stroke="black" points="1550.5,-36 1432.5,-36 1432.5,0 1550.5,0 1550.5,-36"/>
<text text-anchor="middle" x="1491.5" y="-14.3" font-family="Times,serif" font-size="14.00">A:assumpWAL</text>
</g>
<!-- theory&#45;&gt;assumpWAL -->
<g id="edge3" class="edge">
<title>theory:sensHeat&#45;&gt;assumpWAL</title>
<path fill="none" stroke="black" d="M925.5,-72C954.55,-33.95 1346.2,-43.41 1399.5,-36 1406.98,-34.96 1414.79,-33.65 1422.58,-32.23"/>
<polygon fill="black" stroke="black" points="1423.23,-35.67 1432.41,-30.37 1421.93,-28.79 1423.23,-35.67"/>
</g>
<!-- theory&#45;&gt;assumpWAL -->
<g id="edge10" class="edge">
<title>theory:eBalanceOnWtrRC&#45;&gt;assumpWAL</title>
<path fill="none" stroke="black" d="M925.78,-71.78C974.08,-33.98 1364.3,-43.4 1417.5,-36 1419,-35.79 1420.52,-35.57 1422.04,-35.34"/>
<polygon fill="black" stroke="black" points="1422.89,-38.75 1432.21,-33.7 1421.78,-31.84 1422.89,-38.75"/>
</g>
<!-- assumpCWTAT -->
<g id="node8" class="node">
<title>assumpCWTAT</title>
<polygon fill="mistyrose" stroke="black" points="443,-36 306,-36 306,0 443,0 443,-36"/>
<text text-anchor="middle" x="374.5" y="-14.3" font-family="Times,serif" font-size="14.00">A:assumpCWTAT</text>
</g>
<!-- theory&#45;&gt;assumpCWTAT -->
<g id="edge5" class="edge">
<title>theory:rocTempSimpRC&#45;&gt;assumpCWTAT</title>
<path fill="none" stroke="black" d="M773.48,-80.73C695.55,-71.82 570.68,-56.37 453.23,-36.05"/>
<polygon fill="black" stroke="black" points="453.8,-32.6 443.34,-34.32 452.59,-39.49 453.8,-32.6"/>
</g>
<!-- assumpDWCoW -->
<g id="node9" class="node">
<title>assumpDWCoW</title>
<polygon fill="mistyrose" stroke="black" points="605.5,-36 461.5,-36 461.5,0 605.5,0 605.5,-36"/>
<text text-anchor="middle" x="533.5" y="-14.3" font-family="Times,serif" font-size="14.00">A:assumpDWCoW</text>
</g>
<!-- theory&#45;&gt;assumpDWCoW -->
<g id="edge6" class="edge">
<title>theory:rocTempSimpRC&#45;&gt;assumpDWCoW</title>
<path fill="none" stroke="black" d="M773.41,-72.14C725.74,-61.58 664.32,-47.98 615.56,-37.18"/>
<polygon fill="black" stroke="black" points="616.2,-33.73 605.68,-34.99 614.68,-40.57 616.2,-33.73"/>
</g>
<!-- assumpSHECoW -->
<g id="node10" class="node">
<title>assumpSHECoW</title>
<polygon fill="mistyrose" stroke="black" points="775,-36 624,-36 624,0 775,0 775,-36"/>
<text text-anchor="middle" x="699.5" y="-14.3" font-family="Times,serif" font-size="14.00">A:assumpSHECoW</text>
</g>
<!-- theory&#45;&gt;assumpSHECoW -->
<g id="edge7" class="edge">
<title>theory:rocTempSimpRC&#45;&gt;assumpSHECoW</title>
<path fill="none" stroke="black" d="M812.81,-71.88C792.48,-62.39 767.03,-50.51 745.4,-40.42"/>
<polygon fill="black" stroke="black" points="746.62,-37.13 736.07,-36.07 743.66,-43.47 746.62,-37.13"/>
</g>
<!-- assumpLCCCW -->
<g id="node11" class="node">
<title>assumpLCCCW</title>
<polygon fill="mistyrose" stroke="black" points="933.5,-36 793.5,-36 793.5,0 933.5,0 933.5,-36"/>
<text text-anchor="middle" x="863.5" y="-14.3" font-family="Times,serif" font-size="14.00">A:assumpLCCCW</text>
</g>
<!-- theory&#45;&gt;assumpLCCCW -->
<g id="edge8" class="edge">
<title>theory:htFluxC&#45;&gt;assumpLCCCW</title>
<path fill="none" stroke="black" d="M852.96,-71.7C854.5,-63.98 856.36,-54.71 858.08,-46.11"/>
<polygon fill="black" stroke="black" points="861.55,-46.6 860.08,-36.1 854.69,-45.22 861.55,-46.6"/>
</g>
<!-- assumpTHCCoT -->
<g id="node12" class="node">
<title>assumpTHCCoT</title>
<polygon fill="mistyrose" stroke="black" points="1097,-36 952,-36 952,0 1097,0 1097,-36"/>
<text text-anchor="middle" x="1024.5" y="-14.3" font-family="Times,serif" font-size="14.00">A:assumpTHCCoT</text>
</g>
<!-- theory&#45;&gt;assumpTHCCoT -->
<g id="edge9" class="edge">
<title>theory:htFluxC&#45;&gt;assumpTHCCoT</title>
<path fill="none" stroke="black" d="M892.31,-71.88C916.45,-62.22 946.78,-50.09 972.31,-39.88"/>
<polygon fill="black" stroke="black" points="973.84,-43.03 981.83,-36.07 971.24,-36.53 973.84,-43.03"/>
</g>
<!-- assumpPIT -->
<g id="node13" class="node">
<title>assumpPIT</title>
<polygon fill="mistyrose" stroke="black" points="1225.5,-36 1115.5,-36 1115.5,0 1225.5,0 1225.5,-36"/>
<text text-anchor="middle" x="1170.5" y="-14.3" font-family="Times,serif" font-size="14.00">A:assumpPIT</text>
</g>
<!-- theory&#45;&gt;assumpPIT -->
<g id="edge11" class="edge">
<title>theory:eBalanceOnWtrRC&#45;&gt;assumpPIT</title>
<path fill="none" stroke="black" d="M925.6,-73.7C988.24,-61.02 1071.97,-43.85 1105.5,-36 1105.6,-35.98 1105.7,-35.95 1105.8,-35.93"/>
<polygon fill="black" stroke="black" points="1106.33,-39.4 1115.23,-33.66 1104.69,-32.6 1106.33,-39.4"/>
</g>
<!-- assumpNIHGBW -->
<g id="node14" class="node">
<title>assumpNIHGBW</title>
<polygon fill="mistyrose" stroke="black" points="1400,-36 1249,-36 1249,0 1400,0 1400,-36"/>
<text text-anchor="middle" x="1324.5" y="-14.3" font-family="Times,serif" font-size="14.00">A:assumpNIHGBW</text>
</g>
<!-- theory&#45;&gt;assumpNIHGBW -->
<g id="edge12" class="edge">
<title>theory:eBalanceOnWtrRC&#45;&gt;assumpNIHGBW</title>
<path fill="none" stroke="black" d="M925.9,-73.43C928.8,-72.93 931.68,-72.45 934.5,-72 1067.11,-50.82 1101.78,-56.47 1234.5,-36 1235.97,-35.77 1237.46,-35.54 1238.96,-35.3"/>
<polygon fill="black" stroke="black" points="1239.64,-38.73 1248.94,-33.65 1238.51,-31.83 1239.64,-38.73"/>
</g>
<!-- nwtnCoolingTM -->
<g id="node6" class="node">
<title>nwtnCoolingTM</title>
<polygon fill="pink" stroke="black" points="1868.5,-108 1734.5,-108 1734.5,-72 1868.5,-72 1868.5,-108"/>
<text text-anchor="middle" x="1801.5" y="-86.3" font-family="Times,serif" font-size="14.00">TM:nwtnCooling</text>
</g>
<!-- assumpHTCC -->
<g id="node7" class="node">
<title>assumpHTCC</title>
<polygon fill="mistyrose" stroke="black" points="1865.5,-36 1737.5,-36 1737.5,0 1865.5,0 1865.5,-36"/>
<text text-anchor="middle" x="1801.5" y="-14.3" font-family="Times,serif" font-size="14.00">A:assumpHTCC</text>
</g>
<!-- nwtnCoolingTM&#45;&gt;assumpHTCC -->
<g id="edge4" class="edge">
<title>nwtnCoolingTM&#45;&gt;assumpHTCC</title>
<path fill="none" stroke="black" d="M1801.5,-71.7C1801.5,-63.98 1801.5,-54.71 1801.5,-46.11"/>
<polygon fill="black" stroke="black" points="1805,-46.1 1801.5,-36.1 1798,-46.1 1805,-46.1"/>
</g>
<!-- heatEInWtrIM -->
<g id="node15" class="node">
<title>heatEInWtrIM</title>
<polygon fill="#fff68f" stroke="black" points="1716.5,-108 1592.5,-108 1592.5,-72 1716.5,-72 1716.5,-108"/>
<text text-anchor="middle" x="1654.5" y="-86.3" font-family="Times,serif" font-size="14.00">IM:heatEInWtr</text>
</g>
<!-- heatEInWtrIM&#45;&gt;assumpWAL -->
<g id="edge13" class="edge">
<title>heatEInWtrIM&#45;&gt;assumpWAL</title>
<path fill="none" stroke="black" d="M1614.63,-71.88C1592.34,-62.31 1564.38,-50.3 1540.74,-40.15"/>
<polygon fill="black" stroke="black" points="1541.81,-36.8 1531.24,-36.07 1539.05,-43.23 1541.81,-36.8"/>
</g>
<!-- assumpAPT -->
<g id="node16" class="node">
<title>assumpAPT</title>
<polygon fill="mistyrose" stroke="black" points="1711.5,-36 1597.5,-36 1597.5,0 1711.5,0 1711.5,-36"/>
<text text-anchor="middle" x="1654.5" y="-14.3" font-family="Times,serif" font-size="14.00">A:assumpAPT</text>
</g>
<!-- heatEInWtrIM&#45;&gt;assumpAPT -->
<g id="edge14" class="edge">
<title>heatEInWtrIM&#45;&gt;assumpAPT</title>
<path fill="none" stroke="black" d="M1654.5,-71.7C1654.5,-63.98 1654.5,-54.71 1654.5,-46.11"/>
<polygon fill="black" stroke="black" points="1658,-46.1 1654.5,-36.1 1651,-46.1 1658,-46.1"/>
</g>
<!-- likeChgTCVOD -->
<g id="node17" class="node">
<title>likeChgTCVOD</title>
<polygon fill="lavender" stroke="black" points="1089.5,-108 943.5,-108 943.5,-72 1089.5,-72 1089.5,-108"/>
<text text-anchor="middle" x="1016.5" y="-86.3" font-family="Times,serif" font-size="14.00">LC:likeChgTCVOD</text>
</g>
<!-- likeChgTCVOD&#45;&gt;assumpTHCCoT -->
<g id="edge15" class="edge">
<title>likeChgTCVOD&#45;&gt;assumpTHCCoT</title>
<path fill="none" stroke="black" d="M1018.48,-71.7C1019.36,-63.98 1020.42,-54.71 1021.4,-46.11"/>
<polygon fill="black" stroke="black" points="1024.89,-46.44 1022.55,-36.1 1017.93,-45.64 1024.89,-46.44"/>
</g>
<!-- likeChgTCVOL -->
<g id="node18" class="node">
<title>likeChgTCVOL</title>
<polygon fill="lavender" stroke="black" points="2030.5,-108 1886.5,-108 1886.5,-72 2030.5,-72 2030.5,-108"/>
<text text-anchor="middle" x="1958.5" y="-86.3" font-family="Times,serif" font-size="14.00">LC:likeChgTCVOL</text>
</g>
<!-- assumpTHCCoL -->
<g id="node19" class="node">
<title>assumpTHCCoL</title>
<polygon fill="mistyrose" stroke="black" points="2031,-36 1886,-36 1886,0 2031,0 2031,-36"/>
<text text-anchor="middle" x="1958.5" y="-14.3" font-family="Times,serif" font-size="14.00">A:assumpTHCCoL</text>
</g>
<!-- likeChgTCVOL&#45;&gt;assumpTHCCoL -->
<g id="edge16" class="edge">
<title>likeChgTCVOL&#45;&gt;assumpTHCCoL</title>
<path fill="none" stroke="black" d="M1958.5,-71.7C1958.5,-63.98 1958.5,-54.71 1958.5,-46.11"/>
<polygon fill="black" stroke="black" points="1962,-46.1 1958.5,-36.1 1955,-46.1 1962,-46.1"/>
</g>
<!-- likeChgDT -->
<g id="node20" class="node">
<title>likeChgDT</title>
<polygon fill="lavender" stroke="black" points="2175,-108 2060,-108 2060,-72 2175,-72 2175,-108"/>
<text text-anchor="middle" x="2117.5" y="-86.3" font-family="Times,serif" font-size="14.00">LC:likeChgDT</text>
</g>
<!-- assumpCTNTD -->
<g id="node21" class="node">
<title>assumpCTNTD</title>
<polygon fill="mistyrose" stroke="black" points="2186,-36 2049,-36 2049,0 2186,0 2186,-36"/>
<text text-anchor="middle" x="2117.5" y="-14.3" font-family="Times,serif" font-size="14.00">A:assumpCTNTD</text>
</g>
<!-- likeChgDT&#45;&gt;assumpCTNTD -->
<g id="edge17" class="edge">
<title>likeChgDT&#45;&gt;assumpCTNTD</title>
<path fill="none" stroke="black" d="M2117.5,-71.7C2117.5,-63.98 2117.5,-54.71 2117.5,-46.11"/>
<polygon fill="black" stroke="black" points="2121,-46.1 2117.5,-36.1 2114,-46.1 2121,-46.1"/>
</g>
<!-- likeChgTLH -->
<g id="node22" class="node">
<title>likeChgTLH</title>
<polygon fill="lavender" stroke="black" points="1233,-108 1108,-108 1108,-72 1233,-72 1233,-108"/>
<text text-anchor="middle" x="1170.5" y="-86.3" font-family="Times,serif" font-size="14.00">LC:likeChgTLH</text>
</g>
<!-- likeChgTLH&#45;&gt;assumpPIT -->
<g id="edge18" class="edge">
<title>likeChgTLH&#45;&gt;assumpPIT</title>
<path fill="none" stroke="black" d="M1170.5,-71.7C1170.5,-63.98 1170.5,-54.71 1170.5,-46.11"/>
<polygon fill="black" stroke="black" points="1174,-46.1 1170.5,-36.1 1167,-46.1 1174,-46.1"/>
</g>
<!-- unlikeChgWFS -->
<g id="node23" class="node">
<title>unlikeChgWFS</title>
<polygon fill="lavender" stroke="black" points="1575,-108 1426,-108 1426,-72 1575,-72 1575,-108"/>
<text text-anchor="middle" x="1500.5" y="-86.3" font-family="Times,serif" font-size="14.00">UC:unlikeChgWFS</text>
</g>
<!-- unlikeChgWFS&#45;&gt;assumpWAL -->
<g id="edge19" class="edge">
<title>unlikeChgWFS&#45;&gt;assumpWAL</title>
<path fill="none" stroke="black" d="M1498.28,-71.7C1497.28,-63.98 1496.09,-54.71 1494.99,-46.11"/>
<polygon fill="black" stroke="black" points="1498.45,-45.58 1493.7,-36.1 1491.5,-46.47 1498.45,-45.58"/>
</g>
<!-- unlikeChgNIHG -->
<g id="node24" class="node">
<title>unlikeChgNIHG</title>
<polygon fill="lavender" stroke="black" points="1407.5,-108 1251.5,-108 1251.5,-72 1407.5,-72 1407.5,-108"/>
<text text-anchor="middle" x="1329.5" y="-86.3" font-family="Times,serif" font-size="14.00">UC:unlikeChgNIHG</text>
</g>
<!-- unlikeChgNIHG&#45;&gt;assumpNIHGBW -->
<g id="edge20" class="edge">
<title>unlikeChgNIHG&#45;&gt;assumpNIHGBW</title>
<path fill="none" stroke="black" d="M1328.26,-71.7C1327.71,-63.98 1327.05,-54.71 1326.44,-46.11"/>
<polygon fill="black" stroke="black" points="1329.93,-45.83 1325.72,-36.1 1322.94,-46.33 1329.93,-45.83"/>
</g>
<!-- wMass -->
<g id="node25" class="node">
<title>wMass</title>
<polygon fill="#bbffff" stroke="black" points="2315.5,-108 2193.5,-108 2193.5,-72 2315.5,-72 2315.5,-108"/>
<text text-anchor="middle" x="2254.5" y="-86.3" font-family="Times,serif" font-size="14.00">DD:waterMass</text>
</g>
<!-- tankVol -->
<g id="node26" class="node">
<title>tankVol</title>
<polygon fill="#bbffff" stroke="black" points="2461.5,-108 2333.5,-108 2333.5,-72 2461.5,-72 2461.5,-108"/>
<text text-anchor="middle" x="2397.5" y="-86.3" font-family="Times,serif" font-size="14.00">DD:tankVolume</text>
</g>
<!-- tauW -->
<g id="node27" class="node">
<title>tauW</title>
<polygon fill="#bbffff" stroke="black" points="2655,-108 2480,-108 2480,-72 2655,-72 2655,-108"/>
<text text-anchor="middle" x="2567.5" y="-86.3" font-family="Times,serif" font-size="14.00">DD:balanceDecayRate</text>
</g>
<!-- inputInitVals -->
<g id="node28" class="node">
<title>inputInitVals</title>
<polygon fill="ivory" stroke="black" points="2806,-108 2673,-108 2673,-72 2806,-72 2806,-108"/>
<text text-anchor="middle" x="2739.5" y="-86.3" font-family="Times,serif" font-size="14.00">FR:inputInitVals</text>
</g>
<!-- findMass -->
<g id="node29" class="node">
<title>findMass</title>
<polygon fill="ivory" stroke="black" points="2930.5,-108 2824.5,-108 2824.5,-72 2930.5,-72 2930.5,-108"/>
<text text-anchor="middle" x="2877.5" y="-86.3" font-family="Times,serif" font-size="14.00">FR:findMass</text>
</g>
<!-- checkWithPhysConsts -->
<g id="node30" class="node">
<title>checkWithPhysConsts</title>
<polygon fill="ivory" stroke="black" points="3148,-108 2949,-108 2949,-72 3148,-72 3148,-108"/>
<text text-anchor="middle" x="3048.5" y="-86.3" font-family="Times,serif" font-size="14.00">FR:checkWithPhysConsts</text>
</g>
<!-- outputInputDerivVals -->
<g id="node31" class="node">
<title>outputInputDerivVals</title>
<polygon fill="ivory" stroke="black" points="3361,-108 3166,-108 3166,-72 3361,-72 3361,-108"/>
<text text-anchor="middle" x="3263.5" y="-86.3" font-family="Times,serif" font-size="14.00">FR:outputInputDerivVals</text>
</g>
<!-- calcValues -->
<g id="node32" class="node">
<title>calcValues</title>
<polygon fill="ivory" stroke="black" points="3494.5,-108 3378.5,-108 3378.5,-72 3494.5,-72 3494.5,-108"/>
<text text-anchor="middle" x="3436.5" y="-86.3" font-family="Times,serif" font-size="14.00">FR:calcValues</text>
</g>
<!-- outputValues -->
<g id="node33" class="node">
<title>outputValues</title>
<polygon fill="ivory" stroke="black" points="3648,-108 3513,-108 3513,-72 3648,-72 3648,-108"/>
<text text-anchor="middle" x="3580.5" y="-86.3" font-family="Times,serif" font-size="14.00">FR:outputValues</text>
</g>
<!-- correct -->
<g id="node34" class="node">
<title>correct</title>
<polygon fill="ivory" stroke="black" points="3770.5,-108 3666.5,-108 3666.5,-72 3770.5,-72 3770.5,-108"/>
<text text-anchor="middle" x="3718.5" y="-86.3" font-family="Times,serif" font-size="14.00">NFR:correct</text>
</g>
<!-- verifiable -->
<g id="node35" class="node">
<title>verifiable</title>
<polygon fill="ivory" stroke="black" points="3908.5,-108 3788.5,-108 3788.5,-72 3908.5,-72 3908.5,-108"/>
<text text-anchor="middle" x="3848.5" y="-86.3" font-family="Times,serif" font-size="14.00">NFR:verifiable</text>
</g>
<!-- understandable -->
<g id="node36" class="node">
<title>understandable</title>
<polygon fill="ivory" stroke="black" points="4092,-108 3927,-108 3927,-72 4092,-72 4092,-108"/>
<text text-anchor="middle" x="4009.5" y="-86.3" font-family="Times,serif" font-size="14.00">NFR:understandable</text>
</g>
<!-- reusable -->
<g id="node37" class="node">
<title>reusable</title>
<polygon fill="ivory" stroke="black" points="4225,-108 4110,-108 4110,-72 4225,-72 4225,-108"/>
<text text-anchor="middle" x="4167.5" y="-86.3" font-family="Times,serif" font-size="14.00">NFR:reusable</text>
</g>
<!-- maintainable -->
<g id="node38" class="node">
<title>maintainable</title>
<polygon fill="ivory" stroke="black" points="4389.5,-108 4243.5,-108 4243.5,-72 4389.5,-72 4389.5,-108"/>
<text text-anchor="middle" x="4316.5" y="-86.3" font-family="Times,serif" font-size="14.00">NFR:maintainable</text>
</g>
</g>
</svg>
