<?xml version="1.0" encoding="UTF-8" standalone="no"?>
<!DOCTYPE svg PUBLIC "-//W3C//DTD SVG 1.1//EN"
 "http://www.w3.org/Graphics/SVG/1.1/DTD/svg11.dtd">
<!-- Generated by graphviz version 2.43.0 (0)
 -->
<!-- Title: refvsref Pages: 1 -->
<svg width="248pt" height="129pt"
 viewBox="0.00 0.00 247.50 128.77" xmlns="http://www.w3.org/2000/svg" xmlns:xlink="http://www.w3.org/1999/xlink">
<g id="graph0" class="graph" transform="scale(1 1) rotate(0) translate(4 124.77)">
<title>refvsref</title>
<polygon fill="white" stroke="transparent" points="-4,4 -4,-124.77 243.5,-124.77 243.5,4 -4,4"/>
<!-- dataDefn -->
<g id="node1" class="node">
<title>dataDefn</title>
<polygon fill="#bbffff" stroke="black" points="175,-36 0,-36 0,0 175,0 175,-36"/>
<text text-anchor="middle" x="87.5" y="-14.3" font-family="Times,serif" font-size="14.00">DD:balanceDecayRate</text>
</g>
<!-- dataDefn&#45;&gt;dataDefn -->
<g id="edge1" class="edge">
<title>dataDefn:wVol&#45;&gt;dataDefn:tankVol</title>
<path fill="none" stroke="black" d="M175.22,-29.68C185.96,-27.59 193,-23.7 193,-18 193,-14.26 189.97,-11.3 184.85,-9.12"/>
<polygon fill="black" stroke="black" points="185.8,-5.75 175.22,-6.32 183.85,-12.47 185.8,-5.75"/>
</g>
<!-- theory -->
<g id="node2" class="node">
<title>theory</title>
<polygon fill="#fff68f" stroke="black" points="149.5,-108 25.5,-108 25.5,-72 149.5,-72 149.5,-108"/>
<text text-anchor="middle" x="87.5" y="-86.3" font-family="Times,serif" font-size="14.00">IM:heatEInWtr</text>
</g>
<!-- theory&#45;&gt;dataDefn -->
<g id="edge5" class="edge">
<title>theory:eBalanceOnWtrRC&#45;&gt;dataDefn:tauW</title>
<path fill="none" stroke="black" d="M87.5,-71.7C87.5,-63.98 87.5,-54.71 87.5,-46.11"/>
<polygon fill="black" stroke="black" points="91,-46.1 87.5,-36.1 84,-46.1 91,-46.1"/>
</g>
<!-- theory&#45;&gt;theory -->
<g id="edge2" class="edge">
<title>theory:rocTempSimpRC&#45;&gt;theory:consThermECS</title>
<path fill="none" stroke="black" d="M149.55,-93.15C160.16,-92.72 167.5,-91.67 167.5,-90 167.5,-88.93 164.49,-88.11 159.53,-87.55"/>
<polygon fill="black" stroke="black" points="159.78,-84.06 149.55,-86.85 159.28,-91.04 159.78,-84.06"/>
</g>
<!-- theory&#45;&gt;theory -->
<g id="edge3" class="edge">
<title>theory:rocTempSimpRC&#45;&gt;theory:rocTempSimpRC</title>
<path fill="none" stroke="black" d="M149.7,-96.75C169.67,-96.68 185.5,-94.43 185.5,-90 185.5,-86.37 174.85,-84.2 160,-83.5"/>
<polygon fill="black" stroke="black" points="159.79,-79.99 149.7,-83.25 159.62,-86.99 159.79,-79.99"/>
</g>
<!-- theory&#45;&gt;theory -->
<g id="edge4" class="edge">
<title>theory:htFluxC&#45;&gt;theory:nwtnCoolingTM</title>
<path fill="none" stroke="black" d="M25.45,-79.64C14.84,-82.68 7.5,-88.98 7.5,-99 7.5,-120.09 14.82,-124.71 20.89,-117.13"/>
<polygon fill="black" stroke="black" points="24.12,-118.5 25.5,-108 17.87,-115.35 24.12,-118.5"/>
</g>
<!-- theory&#45;&gt;theory -->
<g id="edge6" class="edge">
<title>theory:eBalanceOnWtrRC&#45;&gt;theory:rocTempSimpRC</title>
<path fill="none" stroke="black" d="M149.56,-99.92C178.35,-101.01 203.5,-97.7 203.5,-90 203.5,-83.23 184.07,-79.86 159.82,-79.88"/>
<polygon fill="black" stroke="black" points="159.49,-76.38 149.56,-80.08 159.62,-83.38 159.49,-76.38"/>
</g>
<!-- theory&#45;&gt;theory -->
<g id="edge7" class="edge">
<title>theory:eBalanceOnWtrRC&#45;&gt;theory:htFluxC</title>
<path fill="none" stroke="black" d="M149.53,-102.66C186.6,-105.47 221.5,-101.25 221.5,-90 221.5,-79.8 192.84,-75.38 159.87,-76.74"/>
<polygon fill="black" stroke="black" points="159.31,-73.27 149.53,-77.34 159.71,-80.25 159.31,-73.27"/>
</g>
<!-- theory&#45;&gt;theory -->
<g id="edge8" class="edge">
<title>theory:heatEInWtrIM&#45;&gt;theory:sensHeat</title>
<path fill="none" stroke="black" d="M149.55,-100.36C160.16,-97.32 167.5,-91.02 167.5,-81 167.5,-59.91 160.18,-55.29 154.11,-62.87"/>
<polygon fill="black" stroke="black" points="150.88,-61.5 149.5,-72 157.13,-64.65 150.88,-61.5"/>
</g>
</g>
</svg>
