<?xml version="1.0" encoding="UTF-8" standalone="no"?>
<!DOCTYPE svg PUBLIC "-//W3C//DTD SVG 1.1//EN"
 "http://www.w3.org/Graphics/SVG/1.1/DTD/svg11.dtd">
<!-- Generated by graphviz version 2.43.0 (0)
 -->
<!-- Title: refvsref Pages: 1 -->
<svg width="750pt" height="116pt"
 viewBox="0.00 0.00 749.50 116.00" xmlns="http://www.w3.org/2000/svg" xmlns:xlink="http://www.w3.org/1999/xlink">
<g id="graph0" class="graph" transform="scale(1 1) rotate(0) translate(4 112)">
<title>refvsref</title>
<polygon fill="white" stroke="transparent" points="-4,4 -4,-112 745.5,-112 745.5,4 -4,4"/>
<!-- wVol -->
<g id="node1" class="node">
<title>wVol</title>
<polygon fill="#bbffff" stroke="black" points="189,-36 0,-36 0,0 189,0 189,-36"/>
<text text-anchor="middle" x="94.5" y="-14.3" font-family="Times,serif" font-size="14.00">DD:waterVolume.nopcm</text>
</g>
<!-- tankVol -->
<g id="node2" class="node">
<title>tankVol</title>
<polygon fill="#bbffff" stroke="black" points="335.5,-36 207.5,-36 207.5,0 335.5,0 335.5,-36"/>
<text text-anchor="middle" x="271.5" y="-14.3" font-family="Times,serif" font-size="14.00">DD:tankVolume</text>
</g>
<!-- wVol&#45;&gt;tankVol -->
<g id="edge1" class="edge">
<title>wVol&#45;&gt;tankVol</title>
<path fill="none" stroke="black" d="M189.22,-18C191.85,-18 194.47,-18 197.1,-18"/>
<polygon fill="black" stroke="black" points="197.22,-21.5 207.22,-18 197.22,-14.5 197.22,-21.5"/>
</g>
<!-- theory -->
<g id="node3" class="node">
<title>theory</title>
<polygon fill="#fff68f" stroke="black" points="517.5,-108 365.5,-108 365.5,-72 517.5,-72 517.5,-108"/>
<text text-anchor="middle" x="441.5" y="-86.3" font-family="Times,serif" font-size="14.00">IM:eBalanceOnWtr</text>
</g>
<!-- theory&#45;&gt;theory -->
<g id="edge2" class="edge">
<title>theory:rocTempSimpRC&#45;&gt;theory:consThermECS</title>
<path fill="none" stroke="black" d="M517.85,-93.01C528.43,-92.52 535.5,-91.51 535.5,-90 535.5,-89.06 532.74,-88.31 528.08,-87.76"/>
<polygon fill="black" stroke="black" points="528.08,-84.25 517.85,-86.99 527.56,-91.23 528.08,-84.25"/>
</g>
<!-- theory&#45;&gt;theory -->
<g id="edge3" class="edge">
<title>theory:rocTempSimpRC&#45;&gt;theory:rocTempSimpRC</title>
<path fill="none" stroke="black" d="M517.67,-96.7C538.04,-96.33 553.5,-94.1 553.5,-90 553.5,-86.61 542.9,-84.49 527.68,-83.66"/>
<polygon fill="black" stroke="black" points="527.78,-80.16 517.67,-83.3 527.54,-87.16 527.78,-80.16"/>
</g>
<!-- theory&#45;&gt;theory -->
<g id="edge6" class="edge">
<title>theory:eBalanceOnWtrRC&#45;&gt;theory:rocTempSimpRC</title>
<path fill="none" stroke="black" d="M517.61,-100.09C547.04,-100.53 571.5,-97.17 571.5,-90 571.5,-83.67 552.44,-80.31 527.72,-79.91"/>
<polygon fill="black" stroke="black" points="527.61,-76.41 517.61,-79.91 527.61,-83.41 527.61,-76.41"/>
</g>
<!-- theory&#45;&gt;theory -->
<g id="edge7" class="edge">
<title>theory:eBalanceOnWtrRC&#45;&gt;theory:htFluxC</title>
<path fill="none" stroke="black" d="M517.65,-103.1C555.63,-104.91 589.5,-100.55 589.5,-90 589.5,-80.4 561.44,-75.92 527.76,-76.56"/>
<polygon fill="black" stroke="black" points="527.53,-73.07 517.65,-76.9 527.76,-80.06 527.53,-73.07"/>
</g>
<!-- nwtnCoolingTM -->
<g id="node4" class="node">
<title>nwtnCoolingTM</title>
<polygon fill="pink" stroke="black" points="741.5,-108 607.5,-108 607.5,-72 741.5,-72 741.5,-108"/>
<text text-anchor="middle" x="674.5" y="-86.3" font-family="Times,serif" font-size="14.00">TM:nwtnCooling</text>
</g>
<!-- theory&#45;&gt;nwtnCoolingTM -->
<g id="edge4" class="edge">
<title>theory:htFluxC&#45;&gt;nwtnCoolingTM</title>
<path fill="none" stroke="black" d="M517.95,-90C544.34,-90 570.73,-90 597.12,-90"/>
<polygon fill="black" stroke="black" points="597.23,-93.5 607.23,-90 597.23,-86.5 597.23,-93.5"/>
</g>
<!-- tauW -->
<g id="node5" class="node">
<title>tauW</title>
<polygon fill="#bbffff" stroke="black" points="529,-36 354,-36 354,0 529,0 529,-36"/>
<text text-anchor="middle" x="441.5" y="-14.3" font-family="Times,serif" font-size="14.00">DD:balanceDecayRate</text>
</g>
<!-- theory&#45;&gt;tauW -->
<g id="edge5" class="edge">
<title>theory:eBalanceOnWtrRC&#45;&gt;tauW</title>
<path fill="none" stroke="black" d="M441.5,-71.7C441.5,-63.98 441.5,-54.71 441.5,-46.11"/>
<polygon fill="black" stroke="black" points="445,-46.1 441.5,-36.1 438,-46.1 445,-46.1"/>
</g>
<!-- heatEInWtrIM -->
<g id="node6" class="node">
<title>heatEInWtrIM</title>
<polygon fill="#fff68f" stroke="black" points="347.5,-108 223.5,-108 223.5,-72 347.5,-72 347.5,-108"/>
<text text-anchor="middle" x="285.5" y="-86.3" font-family="Times,serif" font-size="14.00">IM:heatEInWtr</text>
</g>
<!-- heatEInWtrIM&#45;&gt;theory -->
<g id="edge8" class="edge">
<title>heatEInWtrIM&#45;&gt;theory:sensHeat</title>
<path fill="none" stroke="black" d="M347.53,-73.05C427.96,-51.96 555.89,-23.42 525.14,-64.48"/>
<polygon fill="black" stroke="black" points="522.5,-62.19 518.5,-72 527.75,-66.83 522.5,-62.19"/>
</g>
<!-- wMass -->
<g id="node7" class="node">
<title>wMass</title>
<polygon fill="#bbffff" stroke="black" points="669.5,-36 547.5,-36 547.5,0 669.5,0 669.5,-36"/>
<text text-anchor="middle" x="608.5" y="-14.3" font-family="Times,serif" font-size="14.00">DD:waterMass</text>
</g>
</g>
</svg>
