<?xml version="1.0" encoding="UTF-8" standalone="no"?>
<!DOCTYPE svg PUBLIC "-//W3C//DTD SVG 1.1//EN"
 "http://www.w3.org/Graphics/SVG/1.1/DTD/svg11.dtd">
<!-- Generated by graphviz version 2.43.0 (0)
 -->
<!-- Title: theory Pages: 1 -->
<svg width="2769pt" height="2609pt"
 viewBox="0.00 0.00 2768.54 2608.68" xmlns="http://www.w3.org/2000/svg" xmlns:xlink="http://www.w3.org/1999/xlink">
<g id="graph0" class="graph" transform="scale(1 1) rotate(0) translate(4 2604.68)">
<title>theory</title>
<polygon fill="white" stroke="transparent" points="-4,4 -4,-2604.68 2764.54,-2604.68 2764.54,4 -4,4"/>
<!-- ConstraintSet -->
<g id="node1" class="node">
<title>ConstraintSet</title>
<ellipse fill="none" stroke="#00868b" cx="787.55" cy="-140.99" rx="75.29" ry="18"/>
<text text-anchor="middle" x="787.55" y="-137.29" font-family="Times,serif" font-size="14.00">ConstraintSet</text>
</g>
<!-- HasUID -->
<g id="node13" class="node">
<title>HasUID</title>
<ellipse fill="none" stroke="pink" cx="207.48" cy="-1798.74" rx="47.39" ry="18"/>
<text text-anchor="middle" x="207.48" y="-1795.04" font-family="Times,serif" font-size="14.00">HasUID</text>
</g>
<!-- ConstraintSet&#45;&gt;HasUID -->
<g id="edge1" class="edge">
<title>ConstraintSet&#45;&gt;HasUID</title>
<path fill="none" stroke="black" d="M781.24,-159.04C723.49,-324.07 287.69,-1569.52 217.12,-1771.19"/>
<polygon fill="black" stroke="black" points="213.77,-1770.16 213.77,-1780.76 220.38,-1772.47 213.77,-1770.16"/>
</g>
<!-- NamedIdea -->
<g id="node14" class="node">
<title>NamedIdea</title>
<ellipse fill="none" stroke="pink" cx="552.08" cy="-2230.86" rx="63.89" ry="18"/>
<text text-anchor="middle" x="552.08" y="-2227.16" font-family="Times,serif" font-size="14.00">NamedIdea</text>
</g>
<!-- ConstraintSet&#45;&gt;NamedIdea -->
<g id="edge2" class="edge">
<title>ConstraintSet&#45;&gt;NamedIdea</title>
<path fill="none" stroke="black" d="M785.52,-159.05C764.18,-348.44 581.73,-1967.68 555.27,-2202.51"/>
<polygon fill="black" stroke="black" points="551.78,-2202.3 554.13,-2212.63 558.73,-2203.09 551.78,-2202.3"/>
</g>
<!-- Idea -->
<g id="node15" class="node">
<title>Idea</title>
<ellipse fill="none" stroke="pink" cx="787.55" cy="-2378.81" rx="30.59" ry="18"/>
<text text-anchor="middle" x="787.55" y="-2375.11" font-family="Times,serif" font-size="14.00">Idea</text>
</g>
<!-- ConstraintSet&#45;&gt;Idea -->
<g id="edge3" class="edge">
<title>ConstraintSet&#45;&gt;Idea</title>
<path fill="none" stroke="black" d="M787.55,-159C787.55,-355.97 787.55,-2106.65 787.55,-2350.63"/>
<polygon fill="black" stroke="black" points="784.05,-2350.8 787.55,-2360.8 791.05,-2350.8 784.05,-2350.8"/>
</g>
<!-- Definition -->
<g id="node16" class="node">
<title>Definition</title>
<ellipse fill="none" stroke="pink" cx="207.48" cy="-721.06" rx="55.79" ry="18"/>
<text text-anchor="middle" x="207.48" y="-717.36" font-family="Times,serif" font-size="14.00">Definition</text>
</g>
<!-- ConstraintSet&#45;&gt;Definition -->
<g id="edge4" class="edge">
<title>ConstraintSet&#45;&gt;Definition</title>
<path fill="none" stroke="black" d="M769.88,-158.66C686.13,-242.41 329.33,-599.21 232.06,-696.48"/>
<polygon fill="black" stroke="black" points="229.33,-694.26 224.74,-703.8 234.28,-699.21 229.33,-694.26"/>
</g>
<!-- ConceptDomain -->
<g id="node17" class="node">
<title>ConceptDomain</title>
<ellipse fill="none" stroke="pink" cx="84.49" cy="-1259.9" rx="84.49" ry="18"/>
<text text-anchor="middle" x="84.49" y="-1256.2" font-family="Times,serif" font-size="14.00">ConceptDomain</text>
</g>
<!-- ConstraintSet&#45;&gt;ConceptDomain -->
<g id="edge5" class="edge">
<title>ConstraintSet&#45;&gt;ConceptDomain</title>
<path fill="none" stroke="black" d="M776.22,-159.02C694.75,-288.69 198.55,-1078.38 101.09,-1233.48"/>
<polygon fill="black" stroke="black" points="98.11,-1231.65 95.75,-1241.98 104.04,-1235.38 98.11,-1231.65"/>
</g>
<!-- Express -->
<g id="node18" class="node">
<title>Express</title>
<ellipse fill="none" stroke="pink" cx="552.08" cy="-288.94" rx="48.19" ry="18"/>
<text text-anchor="middle" x="552.08" y="-285.24" font-family="Times,serif" font-size="14.00">Express</text>
</g>
<!-- ConstraintSet&#45;&gt;Express -->
<g id="edge6" class="edge">
<title>ConstraintSet&#45;&gt;Express</title>
<path fill="none" stroke="black" d="M760.54,-157.96C717.3,-185.13 632.64,-238.32 585.6,-267.88"/>
<polygon fill="black" stroke="black" points="583.6,-265 577,-273.29 587.33,-270.93 583.6,-265"/>
</g>
<!-- ScopeType -->
<g id="node2" class="node">
<title>ScopeType</title>
<ellipse fill="none" stroke="#00868b" cx="2475.39" cy="-301.9" rx="61.19" ry="18"/>
<text text-anchor="middle" x="2475.39" y="-298.2" font-family="Times,serif" font-size="14.00">ScopeType</text>
</g>
<!-- DataDefinition -->
<g id="node3" class="node">
<title>DataDefinition</title>
<ellipse fill="none" stroke="#00868b" cx="1050.04" cy="-49.14" rx="77.99" ry="18"/>
<text text-anchor="middle" x="1050.04" y="-45.44" font-family="Times,serif" font-size="14.00">DataDefinition</text>
</g>
<!-- DefiningExpr -->
<g id="node9" class="node">
<title>DefiningExpr</title>
<ellipse fill="none" stroke="pink" cx="115.63" cy="-1536.25" rx="72.29" ry="18"/>
<text text-anchor="middle" x="115.63" y="-1532.55" font-family="Times,serif" font-size="14.00">DefiningExpr</text>
</g>
<!-- DataDefinition&#45;&gt;DefiningExpr -->
<g id="edge13" class="edge">
<title>DataDefinition&#45;&gt;DefiningExpr</title>
<path fill="none" stroke="black" d="M1038.73,-67.14C941.62,-221.7 249.06,-1323.9 132.32,-1509.69"/>
<polygon fill="black" stroke="black" points="129.26,-1507.98 126.9,-1518.31 135.19,-1511.7 129.26,-1507.98"/>
</g>
<!-- DataDefinition&#45;&gt;HasUID -->
<g id="edge7" class="edge">
<title>DataDefinition&#45;&gt;HasUID</title>
<path fill="none" stroke="black" d="M1041.29,-67.31C958.9,-238.4 320.41,-1564.24 220.59,-1771.52"/>
<polygon fill="black" stroke="black" points="217.3,-1770.27 216.12,-1780.8 223.61,-1773.31 217.3,-1770.27"/>
</g>
<!-- DataDefinition&#45;&gt;NamedIdea -->
<g id="edge8" class="edge">
<title>DataDefinition&#45;&gt;NamedIdea</title>
<path fill="none" stroke="black" d="M1045.89,-67.34C1001.39,-262.32 613.33,-1962.52 558.51,-2202.7"/>
<polygon fill="black" stroke="black" points="555.03,-2202.2 556.22,-2212.73 561.86,-2203.75 555.03,-2202.2"/>
</g>
<!-- DataDefinition&#45;&gt;Idea -->
<g id="edge9" class="edge">
<title>DataDefinition&#45;&gt;Idea</title>
<path fill="none" stroke="black" d="M1048.01,-67.21C1025.25,-269.19 818.91,-2100.51 790.73,-2350.57"/>
<polygon fill="black" stroke="black" points="787.24,-2350.34 789.6,-2360.67 794.19,-2351.12 787.24,-2350.34"/>
</g>
<!-- DataDefinition&#45;&gt;ConceptDomain -->
<g id="edge23" class="edge">
<title>DataDefinition&#45;&gt;ConceptDomain</title>
<path fill="none" stroke="black" d="M1035.65,-67.19C926.86,-203.6 234.95,-1071.23 105.38,-1233.7"/>
<polygon fill="black" stroke="black" points="102.47,-1231.74 98.97,-1241.74 107.95,-1236.1 102.47,-1231.74"/>
</g>
<!-- DataDefinition&#45;&gt;Express -->
<g id="edge14" class="edge">
<title>DataDefinition&#45;&gt;Express</title>
<path fill="none" stroke="black" d="M1016.21,-65.43C927,-108.39 685.79,-224.55 591.04,-270.18"/>
<polygon fill="black" stroke="black" points="589.3,-267.13 581.81,-274.63 592.34,-273.44 589.3,-267.13"/>
</g>
<!-- HasSpace -->
<g id="node19" class="node">
<title>HasSpace</title>
<ellipse fill="none" stroke="pink" cx="2100.7" cy="-288.94" rx="56.59" ry="18"/>
<text text-anchor="middle" x="2100.7" y="-285.24" font-family="Times,serif" font-size="14.00">HasSpace</text>
</g>
<!-- DataDefinition&#45;&gt;HasSpace -->
<g id="edge10" class="edge">
<title>DataDefinition&#45;&gt;HasSpace</title>
<path fill="none" stroke="black" d="M1105.79,-61.86C1287.64,-103.37 1862.34,-234.54 2044.64,-276.15"/>
<polygon fill="black" stroke="black" points="2044.03,-279.6 2054.56,-278.41 2045.58,-272.77 2044.03,-279.6"/>
</g>
<!-- HasSymbol -->
<g id="node20" class="node">
<title>HasSymbol</title>
<ellipse fill="none" stroke="pink" cx="1865.23" cy="-140.99" rx="63.89" ry="18"/>
<text text-anchor="middle" x="1865.23" y="-137.29" font-family="Times,serif" font-size="14.00">HasSymbol</text>
</g>
<!-- DataDefinition&#45;&gt;HasSymbol -->
<g id="edge11" class="edge">
<title>DataDefinition&#45;&gt;HasSymbol</title>
<path fill="none" stroke="black" d="M1120.25,-57.05C1274.57,-74.43 1641.74,-115.81 1795.56,-133.14"/>
<polygon fill="black" stroke="black" points="1795.49,-136.65 1805.82,-134.29 1796.28,-129.7 1795.49,-136.65"/>
</g>
<!-- Quantity -->
<g id="node21" class="node">
<title>Quantity</title>
<ellipse fill="none" stroke="pink" cx="1602.74" cy="-49.14" rx="51.19" ry="18"/>
<text text-anchor="middle" x="1602.74" y="-45.44" font-family="Times,serif" font-size="14.00">Quantity</text>
</g>
<!-- DataDefinition&#45;&gt;Quantity -->
<g id="edge12" class="edge">
<title>DataDefinition&#45;&gt;Quantity</title>
<path fill="none" stroke="black" d="M1128.06,-49.14C1238.96,-49.14 1439.93,-49.14 1541.08,-49.14"/>
<polygon fill="black" stroke="black" points="1541.14,-52.64 1551.14,-49.14 1541.14,-45.64 1541.14,-52.64"/>
</g>
<!-- HasReference -->
<g id="node22" class="node">
<title>HasReference</title>
<ellipse fill="none" stroke="pink" cx="2445.31" cy="-721.06" rx="75.29" ry="18"/>
<text text-anchor="middle" x="2445.31" y="-717.36" font-family="Times,serif" font-size="14.00">HasReference</text>
</g>
<!-- DataDefinition&#45;&gt;HasReference -->
<g id="edge15" class="edge">
<title>DataDefinition&#45;&gt;HasReference</title>
<path fill="none" stroke="black" d="M1083.84,-65.41C1272.28,-156.16 2192.21,-599.17 2402.45,-700.42"/>
<polygon fill="black" stroke="black" points="2401.11,-703.66 2411.64,-704.85 2404.15,-697.36 2401.11,-703.66"/>
</g>
<!-- HasDecRef -->
<g id="node23" class="node">
<title>HasDecRef</title>
<ellipse fill="none" stroke="pink" cx="2297.35" cy="-2034.21" rx="61.99" ry="18"/>
<text text-anchor="middle" x="2297.35" y="-2030.51" font-family="Times,serif" font-size="14.00">HasDecRef</text>
</g>
<!-- DataDefinition&#45;&gt;HasDecRef -->
<g id="edge16" class="edge">
<title>DataDefinition&#45;&gt;HasDecRef</title>
<path fill="none" stroke="black" d="M1061.4,-67.21C1177.15,-251.43 2141.61,-1786.36 2280.67,-2007.67"/>
<polygon fill="black" stroke="black" points="2277.86,-2009.78 2286.15,-2016.38 2283.79,-2006.05 2277.86,-2009.78"/>
</g>
<!-- Eq -->
<g id="node24" class="node">
<title>Eq</title>
<ellipse fill="none" stroke="pink" cx="1326.39" cy="-18" rx="27" ry="18"/>
<text text-anchor="middle" x="1326.39" y="-14.3" font-family="Times,serif" font-size="14.00">Eq</text>
</g>
<!-- DataDefinition&#45;&gt;Eq -->
<g id="edge17" class="edge">
<title>DataDefinition&#45;&gt;Eq</title>
<path fill="none" stroke="black" d="M1120.14,-41.24C1174.05,-35.16 1246.41,-27.01 1289.54,-22.15"/>
<polygon fill="black" stroke="black" points="1290.04,-25.62 1299.58,-21.02 1289.25,-18.66 1290.04,-25.62"/>
</g>
<!-- HasDerivation -->
<g id="node25" class="node">
<title>HasDerivation</title>
<ellipse fill="none" stroke="pink" cx="2297.35" cy="-485.59" rx="77.19" ry="18"/>
<text text-anchor="middle" x="2297.35" y="-481.89" font-family="Times,serif" font-size="14.00">HasDerivation</text>
</g>
<!-- DataDefinition&#45;&gt;HasDerivation -->
<g id="edge18" class="edge">
<title>DataDefinition&#45;&gt;HasDerivation</title>
<path fill="none" stroke="black" d="M1093.34,-64.29C1282.67,-130.54 2037.55,-394.68 2244.59,-467.13"/>
<polygon fill="black" stroke="black" points="2243.72,-470.53 2254.32,-470.53 2246.04,-463.92 2243.72,-470.53"/>
</g>
<!-- HasAdditionalNotes -->
<g id="node26" class="node">
<title>HasAdditionalNotes</title>
<ellipse fill="none" stroke="pink" cx="2100.7" cy="-2230.86" rx="103.18" ry="18"/>
<text text-anchor="middle" x="2100.7" y="-2227.16" font-family="Times,serif" font-size="14.00">HasAdditionalNotes</text>
</g>
<!-- DataDefinition&#45;&gt;HasAdditionalNotes -->
<g id="edge19" class="edge">
<title>DataDefinition&#45;&gt;HasAdditionalNotes</title>
<path fill="none" stroke="black" d="M1058.81,-67.34C1152.8,-262.52 1973.11,-1965.89 2087.49,-2203.41"/>
<polygon fill="black" stroke="black" points="2084.48,-2205.23 2091.97,-2212.73 2090.79,-2202.2 2084.48,-2205.23"/>
</g>
<!-- MayHaveUnit -->
<g id="node27" class="node">
<title>MayHaveUnit</title>
<ellipse fill="none" stroke="pink" cx="2537.16" cy="-983.55" rx="75.29" ry="18"/>
<text text-anchor="middle" x="2537.16" y="-979.85" font-family="Times,serif" font-size="14.00">MayHaveUnit</text>
</g>
<!-- DataDefinition&#45;&gt;MayHaveUnit -->
<g id="edge20" class="edge">
<title>DataDefinition&#45;&gt;MayHaveUnit</title>
<path fill="none" stroke="black" d="M1077.12,-66.15C1258.46,-180.1 2295.36,-831.62 2501.52,-961.16"/>
<polygon fill="black" stroke="black" points="2499.83,-964.23 2510.16,-966.59 2503.55,-958.3 2499.83,-964.23"/>
</g>
<!-- HasShortName -->
<g id="node28" class="node">
<title>HasShortName</title>
<ellipse fill="none" stroke="pink" cx="1865.23" cy="-2378.81" rx="81.79" ry="18"/>
<text text-anchor="middle" x="1865.23" y="-2375.11" font-family="Times,serif" font-size="14.00">HasShortName</text>
</g>
<!-- DataDefinition&#45;&gt;HasShortName -->
<g id="edge21" class="edge">
<title>DataDefinition&#45;&gt;HasShortName</title>
<path fill="none" stroke="black" d="M1056.37,-67.21C1127.08,-269.29 1768.48,-2102.32 1855.48,-2350.94"/>
<polygon fill="black" stroke="black" points="1852.28,-2352.39 1858.88,-2360.67 1858.88,-2350.07 1852.28,-2352.39"/>
</g>
<!-- HasRefAddress -->
<g id="node29" class="node">
<title>HasRefAddress</title>
<ellipse fill="none" stroke="pink" cx="2445.31" cy="-1798.74" rx="81.79" ry="18"/>
<text text-anchor="middle" x="2445.31" y="-1795.04" font-family="Times,serif" font-size="14.00">HasRefAddress</text>
</g>
<!-- DataDefinition&#45;&gt;HasRefAddress -->
<g id="edge22" class="edge">
<title>DataDefinition&#45;&gt;HasRefAddress</title>
<path fill="none" stroke="black" d="M1064.31,-67.02C1200.04,-237.23 2262.32,-1569.28 2424.55,-1772.72"/>
<polygon fill="black" stroke="black" points="2422.01,-1775.14 2430.98,-1780.78 2427.48,-1770.78 2422.01,-1775.14"/>
</g>
<!-- CommonIdea -->
<g id="node30" class="node">
<title>CommonIdea</title>
<ellipse fill="none" stroke="pink" cx="2537.16" cy="-1536.25" rx="71.49" ry="18"/>
<text text-anchor="middle" x="2537.16" y="-1532.55" font-family="Times,serif" font-size="14.00">CommonIdea</text>
</g>
<!-- DataDefinition&#45;&gt;CommonIdea -->
<g id="edge24" class="edge">
<title>DataDefinition&#45;&gt;CommonIdea</title>
<path fill="none" stroke="black" d="M1067.78,-66.87C1221.88,-220.97 2332.4,-1331.5 2512.51,-1511.6"/>
<polygon fill="black" stroke="black" points="2510.14,-1514.18 2519.69,-1518.78 2515.09,-1509.23 2510.14,-1514.18"/>
</g>
<!-- Referable -->
<g id="node31" class="node">
<title>Referable</title>
<ellipse fill="none" stroke="pink" cx="1602.74" cy="-2470.66" rx="55.79" ry="18"/>
<text text-anchor="middle" x="1602.74" y="-2466.96" font-family="Times,serif" font-size="14.00">Referable</text>
</g>
<!-- DataDefinition&#45;&gt;Referable -->
<g id="edge25" class="edge">
<title>DataDefinition&#45;&gt;Referable</title>
<path fill="none" stroke="black" d="M1054.17,-67.24C1101.36,-273.96 1537.92,-2186.64 1596.3,-2442.43"/>
<polygon fill="black" stroke="black" points="1592.94,-2443.45 1598.58,-2452.42 1599.76,-2441.89 1592.94,-2443.45"/>
</g>
<!-- Scope -->
<g id="node4" class="node">
<title>Scope</title>
<ellipse fill="none" stroke="#00868b" cx="2452.39" cy="-2289.9" rx="38.19" ry="18"/>
<text text-anchor="middle" x="2452.39" y="-2286.2" font-family="Times,serif" font-size="14.00">Scope</text>
</g>
<!-- GenDefn -->
<g id="node5" class="node">
<title>GenDefn</title>
<ellipse fill="none" stroke="#00868b" cx="1326.39" cy="-2501.8" rx="51.19" ry="18"/>
<text text-anchor="middle" x="1326.39" y="-2498.1" font-family="Times,serif" font-size="14.00">GenDefn</text>
</g>
<!-- GenDefn&#45;&gt;HasUID -->
<g id="edge26" class="edge">
<title>GenDefn&#45;&gt;HasUID</title>
<path fill="none" stroke="black" d="M1301.19,-2485.96C1154.26,-2393.64 409.06,-1925.4 241.13,-1819.88"/>
<polygon fill="black" stroke="black" points="242.78,-1816.79 232.45,-1814.43 239.06,-1822.72 242.78,-1816.79"/>
</g>
<!-- GenDefn&#45;&gt;NamedIdea -->
<g id="edge27" class="edge">
<title>GenDefn&#45;&gt;NamedIdea</title>
<path fill="none" stroke="black" d="M1289.83,-2489C1163.67,-2444.86 746.5,-2298.88 601.93,-2248.3"/>
<polygon fill="black" stroke="black" points="602.99,-2244.96 592.4,-2244.96 600.68,-2251.57 602.99,-2244.96"/>
</g>
<!-- GenDefn&#45;&gt;Idea -->
<g id="edge28" class="edge">
<title>GenDefn&#45;&gt;Idea</title>
<path fill="none" stroke="black" d="M1283.21,-2491.94C1180.68,-2468.54 923.9,-2409.93 826.15,-2387.62"/>
<polygon fill="black" stroke="black" points="826.64,-2384.15 816.11,-2385.33 825.09,-2390.97 826.64,-2384.15"/>
</g>
<!-- GenDefn&#45;&gt;Definition -->
<g id="edge29" class="edge">
<title>GenDefn&#45;&gt;Definition</title>
<path fill="none" stroke="black" d="M1315.32,-2484.17C1208.02,-2313.42 354.43,-954.93 224.13,-747.57"/>
<polygon fill="black" stroke="black" points="226.93,-745.43 218.64,-738.83 221,-749.16 226.93,-745.43"/>
</g>
<!-- GenDefn&#45;&gt;ConceptDomain -->
<g id="edge30" class="edge">
<title>GenDefn&#45;&gt;ConceptDomain</title>
<path fill="none" stroke="black" d="M1309.31,-2484.72C1173.66,-2349.07 271.81,-1447.22 109.5,-1284.9"/>
<polygon fill="black" stroke="black" points="111.88,-1282.33 102.33,-1277.74 106.93,-1287.28 111.88,-1282.33"/>
</g>
<!-- GenDefn&#45;&gt;Express -->
<g id="edge31" class="edge">
<title>GenDefn&#45;&gt;Express</title>
<path fill="none" stroke="black" d="M1320.05,-2483.66C1251.33,-2287.3 646.18,-557.88 561.83,-316.8"/>
<polygon fill="black" stroke="black" points="565.02,-315.32 558.41,-307.04 558.41,-317.64 565.02,-315.32"/>
</g>
<!-- GenDefn&#45;&gt;HasReference -->
<g id="edge33" class="edge">
<title>GenDefn&#45;&gt;HasReference</title>
<path fill="none" stroke="black" d="M1337.47,-2484.17C1444.76,-2313.42 2298.31,-955 2428.64,-747.58"/>
<polygon fill="black" stroke="black" points="2431.61,-749.43 2433.97,-739.1 2425.69,-745.71 2431.61,-749.43"/>
</g>
<!-- GenDefn&#45;&gt;HasDecRef -->
<g id="edge34" class="edge">
<title>GenDefn&#45;&gt;HasDecRef</title>
<path fill="none" stroke="black" d="M1356.78,-2487.16C1498.35,-2418.99 2093.11,-2132.57 2255.97,-2054.14"/>
<polygon fill="black" stroke="black" points="2257.69,-2057.2 2265.18,-2049.7 2254.65,-2050.89 2257.69,-2057.2"/>
</g>
<!-- GenDefn&#45;&gt;HasDerivation -->
<g id="edge32" class="edge">
<title>GenDefn&#45;&gt;HasDerivation</title>
<path fill="none" stroke="black" d="M1335.08,-2483.75C1424.45,-2298.17 2175.25,-739.13 2284.19,-512.91"/>
<polygon fill="black" stroke="black" points="2287.43,-514.24 2288.62,-503.72 2281.13,-511.21 2287.43,-514.24"/>
</g>
<!-- GenDefn&#45;&gt;HasAdditionalNotes -->
<g id="edge37" class="edge">
<title>GenDefn&#45;&gt;HasAdditionalNotes</title>
<path fill="none" stroke="black" d="M1362.96,-2489C1487.48,-2445.43 1895.53,-2302.65 2045.11,-2250.31"/>
<polygon fill="black" stroke="black" points="2046.3,-2253.6 2054.58,-2247 2043.98,-2247 2046.3,-2253.6"/>
</g>
<!-- GenDefn&#45;&gt;MayHaveUnit -->
<g id="edge38" class="edge">
<title>GenDefn&#45;&gt;MayHaveUnit</title>
<path fill="none" stroke="black" d="M1340.41,-2484.22C1464.11,-2329.11 2368.32,-1195.26 2516.61,-1009.32"/>
<polygon fill="black" stroke="black" points="2519.4,-1011.42 2522.9,-1001.42 2513.93,-1007.06 2519.4,-1011.42"/>
</g>
<!-- GenDefn&#45;&gt;HasShortName -->
<g id="edge35" class="edge">
<title>GenDefn&#45;&gt;HasShortName</title>
<path fill="none" stroke="black" d="M1369.58,-2491.94C1463.39,-2470.53 1686.37,-2419.64 1798.47,-2394.05"/>
<polygon fill="black" stroke="black" points="1799.34,-2397.44 1808.31,-2391.81 1797.78,-2390.62 1799.34,-2397.44"/>
</g>
<!-- GenDefn&#45;&gt;HasRefAddress -->
<g id="edge36" class="edge">
<title>GenDefn&#45;&gt;HasRefAddress</title>
<path fill="none" stroke="black" d="M1351.6,-2485.96C1497.88,-2394.05 2237.21,-1929.49 2409.42,-1821.29"/>
<polygon fill="black" stroke="black" points="2411.51,-1824.11 2418.11,-1815.83 2407.78,-1818.18 2411.51,-1824.11"/>
</g>
<!-- GenDefn&#45;&gt;CommonIdea -->
<g id="edge39" class="edge">
<title>GenDefn&#45;&gt;CommonIdea</title>
<path fill="none" stroke="black" d="M1347.15,-2485.24C1490.92,-2370.59 2337.75,-1695.27 2507.53,-1559.88"/>
<polygon fill="black" stroke="black" points="2509.9,-1562.46 2515.54,-1553.49 2505.54,-1556.99 2509.9,-1562.46"/>
</g>
<!-- GenDefn&#45;&gt;Referable -->
<g id="edge40" class="edge">
<title>GenDefn&#45;&gt;Referable</title>
<path fill="none" stroke="black" d="M1375.48,-2496.27C1421.33,-2491.1 1490,-2483.37 1539.85,-2477.75"/>
<polygon fill="black" stroke="black" points="1540.33,-2481.22 1549.87,-2476.62 1539.55,-2474.26 1540.33,-2481.22"/>
</g>
<!-- InstanceModel -->
<g id="node6" class="node">
<title>InstanceModel</title>
<ellipse fill="none" stroke="#00868b" cx="2568.29" cy="-1259.9" rx="79.09" ry="18"/>
<text text-anchor="middle" x="2568.29" y="-1256.2" font-family="Times,serif" font-size="14.00">InstanceModel</text>
</g>
<!-- InstanceModel&#45;&gt;HasUID -->
<g id="edge41" class="edge">
<title>InstanceModel&#45;&gt;HasUID</title>
<path fill="none" stroke="black" d="M2512.26,-1272.69C2189.15,-1346.44 567.43,-1716.58 258.4,-1787.12"/>
<polygon fill="black" stroke="black" points="257.35,-1783.77 248.38,-1789.41 258.91,-1790.59 257.35,-1783.77"/>
</g>
<!-- InstanceModel&#45;&gt;NamedIdea -->
<g id="edge42" class="edge">
<title>InstanceModel&#45;&gt;NamedIdea</title>
<path fill="none" stroke="black" d="M2534.14,-1276.35C2293.77,-1392.1 858.13,-2083.47 593.87,-2210.73"/>
<polygon fill="black" stroke="black" points="592.11,-2207.7 584.61,-2215.19 595.14,-2214 592.11,-2207.7"/>
</g>
<!-- InstanceModel&#45;&gt;Idea -->
<g id="edge43" class="edge">
<title>InstanceModel&#45;&gt;Idea</title>
<path fill="none" stroke="black" d="M2541.03,-1277.03C2335.48,-1406.18 1031.07,-2225.8 817.2,-2360.18"/>
<polygon fill="black" stroke="black" points="815.27,-2357.26 808.67,-2365.55 818.99,-2363.19 815.27,-2357.26"/>
</g>
<!-- InstanceModel&#45;&gt;Definition -->
<g id="edge44" class="edge">
<title>InstanceModel&#45;&gt;Definition</title>
<path fill="none" stroke="black" d="M2512.26,-1247.11C2190.89,-1173.76 584.86,-807.19 263.5,-733.85"/>
<polygon fill="black" stroke="black" points="264.02,-730.37 253.49,-731.56 262.46,-737.2 264.02,-730.37"/>
</g>
<!-- InstanceModel&#45;&gt;ConceptDomain -->
<g id="edge45" class="edge">
<title>InstanceModel&#45;&gt;ConceptDomain</title>
<path fill="none" stroke="black" d="M2488.81,-1259.9C2120.22,-1259.9 578.34,-1259.9 179.18,-1259.9"/>
<polygon fill="black" stroke="black" points="179.11,-1256.4 169.11,-1259.9 179.11,-1263.4 179.11,-1256.4"/>
</g>
<!-- InstanceModel&#45;&gt;Express -->
<g id="edge46" class="edge">
<title>InstanceModel&#45;&gt;Express</title>
<path fill="none" stroke="black" d="M2534.14,-1243.45C2292.87,-1127.26 847.32,-431.13 590.94,-307.66"/>
<polygon fill="black" stroke="black" points="592.18,-304.37 581.65,-303.18 589.14,-310.67 592.18,-304.37"/>
</g>
<!-- InstanceModel&#45;&gt;HasSpace -->
<g id="edge59" class="edge">
<title>InstanceModel&#45;&gt;HasSpace</title>
<path fill="none" stroke="black" d="M2559.57,-1241.8C2502.56,-1123.4 2183.05,-459.93 2113.9,-316.35"/>
<polygon fill="black" stroke="black" points="2116.85,-314.41 2109.36,-306.92 2110.55,-317.45 2116.85,-314.41"/>
</g>
<!-- InstanceModel&#45;&gt;HasSymbol -->
<g id="edge58" class="edge">
<title>InstanceModel&#45;&gt;HasSymbol</title>
<path fill="none" stroke="black" d="M2556.96,-1241.87C2475.49,-1112.2 1979.29,-322.5 1881.83,-167.41"/>
<polygon fill="black" stroke="black" points="1884.78,-165.51 1876.49,-158.91 1878.85,-169.23 1884.78,-165.51"/>
</g>
<!-- InstanceModel&#45;&gt;Quantity -->
<g id="edge53" class="edge">
<title>InstanceModel&#45;&gt;Quantity</title>
<path fill="none" stroke="black" d="M2553.89,-1241.84C2445,-1105.29 1751.73,-235.97 1623.22,-74.82"/>
<polygon fill="black" stroke="black" points="1625.84,-72.49 1616.87,-66.86 1620.37,-76.86 1625.84,-72.49"/>
</g>
<!-- InstanceModel&#45;&gt;HasReference -->
<g id="edge48" class="edge">
<title>InstanceModel&#45;&gt;HasReference</title>
<path fill="none" stroke="black" d="M2564.13,-1241.66C2545.99,-1162.19 2473.77,-845.79 2451.73,-749.2"/>
<polygon fill="black" stroke="black" points="2455.1,-748.26 2449.47,-739.29 2448.28,-749.82 2455.1,-748.26"/>
</g>
<!-- InstanceModel&#45;&gt;HasDecRef -->
<g id="edge49" class="edge">
<title>InstanceModel&#45;&gt;HasDecRef</title>
<path fill="none" stroke="black" d="M2561.99,-1277.9C2526.4,-1379.61 2350.55,-1882.18 2307.08,-2006.41"/>
<polygon fill="black" stroke="black" points="2303.73,-2005.37 2303.73,-2015.97 2310.34,-2007.69 2303.73,-2005.37"/>
</g>
<!-- InstanceModel&#45;&gt;HasDerivation -->
<g id="edge47" class="edge">
<title>InstanceModel&#45;&gt;HasDerivation</title>
<path fill="none" stroke="black" d="M2561.99,-1241.9C2526.4,-1140.19 2350.55,-637.62 2307.08,-513.39"/>
<polygon fill="black" stroke="black" points="2310.34,-512.11 2303.73,-503.83 2303.73,-514.43 2310.34,-512.11"/>
</g>
<!-- InstanceModel&#45;&gt;HasAdditionalNotes -->
<g id="edge52" class="edge">
<title>InstanceModel&#45;&gt;HasAdditionalNotes</title>
<path fill="none" stroke="black" d="M2559.57,-1278C2502.56,-1396.4 2183.05,-2059.87 2113.9,-2203.45"/>
<polygon fill="black" stroke="black" points="2110.55,-2202.35 2109.36,-2212.88 2116.85,-2205.39 2110.55,-2202.35"/>
</g>
<!-- InstanceModel&#45;&gt;MayHaveUnit -->
<g id="edge60" class="edge">
<title>InstanceModel&#45;&gt;MayHaveUnit</title>
<path fill="none" stroke="black" d="M2566.25,-1241.77C2560.95,-1194.73 2546.73,-1068.5 2540.34,-1011.81"/>
<polygon fill="black" stroke="black" points="2543.8,-1011.3 2539.21,-1001.75 2536.85,-1012.08 2543.8,-1011.3"/>
</g>
<!-- InstanceModel&#45;&gt;HasShortName -->
<g id="edge50" class="edge">
<title>InstanceModel&#45;&gt;HasShortName</title>
<path fill="none" stroke="black" d="M2556.96,-1277.93C2475.49,-1407.6 1979.29,-2197.3 1881.83,-2352.39"/>
<polygon fill="black" stroke="black" points="1878.85,-2350.56 1876.49,-2360.89 1884.78,-2354.29 1878.85,-2350.56"/>
</g>
<!-- InstanceModel&#45;&gt;HasRefAddress -->
<g id="edge51" class="edge">
<title>InstanceModel&#45;&gt;HasRefAddress</title>
<path fill="none" stroke="black" d="M2564.13,-1278.14C2545.99,-1357.61 2473.77,-1674.01 2451.73,-1770.6"/>
<polygon fill="black" stroke="black" points="2448.28,-1769.98 2449.47,-1780.51 2455.1,-1771.54 2448.28,-1769.98"/>
</g>
<!-- InstanceModel&#45;&gt;CommonIdea -->
<g id="edge54" class="edge">
<title>InstanceModel&#45;&gt;CommonIdea</title>
<path fill="none" stroke="black" d="M2566.25,-1278.03C2560.95,-1325.07 2546.73,-1451.3 2540.34,-1507.99"/>
<polygon fill="black" stroke="black" points="2536.85,-1507.72 2539.21,-1518.05 2543.8,-1508.5 2536.85,-1507.72"/>
</g>
<!-- InstanceModel&#45;&gt;Referable -->
<g id="edge55" class="edge">
<title>InstanceModel&#45;&gt;Referable</title>
<path fill="none" stroke="black" d="M2553.89,-1277.95C2445,-1414.51 1751.73,-2283.83 1623.22,-2444.98"/>
<polygon fill="black" stroke="black" points="1620.37,-2442.94 1616.87,-2452.94 1625.84,-2447.31 1620.37,-2442.94"/>
</g>
<!-- HasInputs -->
<g id="node32" class="node">
<title>HasInputs</title>
<ellipse fill="none" stroke="magenta" cx="2698.57" cy="-1162.24" rx="58.49" ry="18"/>
<text text-anchor="middle" x="2698.57" y="-1158.54" font-family="Times,serif" font-size="14.00">HasInputs</text>
</g>
<!-- InstanceModel&#45;&gt;HasInputs -->
<g id="edge56" class="edge">
<title>InstanceModel&#45;&gt;HasInputs</title>
<path fill="none" stroke="black" d="M2591.28,-1242.66C2612.62,-1226.67 2644.53,-1202.74 2668.01,-1185.15"/>
<polygon fill="black" stroke="black" points="2670.34,-1187.77 2676.24,-1178.97 2666.14,-1182.17 2670.34,-1187.77"/>
</g>
<!-- HasOutput -->
<g id="node33" class="node">
<title>HasOutput</title>
<ellipse fill="none" stroke="magenta" cx="2698.79" cy="-1354.32" rx="61.99" ry="18"/>
<text text-anchor="middle" x="2698.79" y="-1350.62" font-family="Times,serif" font-size="14.00">HasOutput</text>
</g>
<!-- InstanceModel&#45;&gt;HasOutput -->
<g id="edge57" class="edge">
<title>InstanceModel&#45;&gt;HasOutput</title>
<path fill="none" stroke="black" d="M2592.23,-1277.22C2613.33,-1292.49 2644.23,-1314.84 2667.32,-1331.55"/>
<polygon fill="black" stroke="black" points="2665.29,-1334.4 2675.45,-1337.43 2669.4,-1328.73 2665.29,-1334.4"/>
</g>
<!-- ModelKinds -->
<g id="node7" class="node">
<title>ModelKinds</title>
<ellipse fill="none" stroke="#00868b" cx="355.44" cy="-485.59" rx="65.79" ry="18"/>
<text text-anchor="middle" x="355.44" y="-481.89" font-family="Times,serif" font-size="14.00">ModelKinds</text>
</g>
<!-- ModelKinds&#45;&gt;HasUID -->
<g id="edge61" class="edge">
<title>ModelKinds&#45;&gt;HasUID</title>
<path fill="none" stroke="black" d="M353.4,-503.65C337.3,-646.52 230.63,-1593.23 210.69,-1770.25"/>
<polygon fill="black" stroke="black" points="207.19,-1770.02 209.55,-1780.35 214.15,-1770.8 207.19,-1770.02"/>
</g>
<!-- ModelKinds&#45;&gt;NamedIdea -->
<g id="edge62" class="edge">
<title>ModelKinds&#45;&gt;NamedIdea</title>
<path fill="none" stroke="black" d="M357.48,-503.72C376.67,-674.03 525.13,-1991.63 548.88,-2202.45"/>
<polygon fill="black" stroke="black" points="545.44,-2203.14 550.03,-2212.69 552.39,-2202.36 545.44,-2203.14"/>
</g>
<!-- ModelKinds&#45;&gt;Idea -->
<g id="edge63" class="edge">
<title>ModelKinds&#45;&gt;Idea</title>
<path fill="none" stroke="black" d="M359.57,-503.72C400.43,-682.71 731.06,-2131.32 781.19,-2350.95"/>
<polygon fill="black" stroke="black" points="777.79,-2351.77 783.43,-2360.74 784.61,-2350.21 777.79,-2351.77"/>
</g>
<!-- ModelKinds&#45;&gt;Definition -->
<g id="edge64" class="edge">
<title>ModelKinds&#45;&gt;Definition</title>
<path fill="none" stroke="black" d="M344.07,-503.67C318.13,-544.95 254.48,-646.26 224.12,-694.58"/>
<polygon fill="black" stroke="black" points="221.04,-692.9 218.68,-703.23 226.96,-696.63 221.04,-692.9"/>
</g>
<!-- ModelKinds&#45;&gt;ConceptDomain -->
<g id="edge65" class="edge">
<title>ModelKinds&#45;&gt;ConceptDomain</title>
<path fill="none" stroke="black" d="M349.14,-503.59C313.55,-605.29 137.69,-1107.86 94.22,-1232.09"/>
<polygon fill="black" stroke="black" points="90.88,-1231.06 90.88,-1241.66 97.48,-1233.37 90.88,-1231.06"/>
</g>
<!-- ModelKinds&#45;&gt;Express -->
<g id="edge66" class="edge">
<title>ModelKinds&#45;&gt;Express</title>
<path fill="none" stroke="black" d="M372.89,-468.14C407.96,-433.06 487.08,-353.94 527.42,-313.6"/>
<polygon fill="black" stroke="black" points="530.35,-315.62 534.95,-306.07 525.4,-310.67 530.35,-315.62"/>
</g>
<!-- ModelKind -->
<g id="node8" class="node">
<title>ModelKind</title>
<ellipse fill="none" stroke="#00868b" cx="115.63" cy="-983.55" rx="61.19" ry="18"/>
<text text-anchor="middle" x="115.63" y="-979.85" font-family="Times,serif" font-size="14.00">ModelKind</text>
</g>
<!-- ModelKind&#45;&gt;HasUID -->
<g id="edge67" class="edge">
<title>ModelKind&#45;&gt;HasUID</title>
<path fill="none" stroke="black" d="M117.68,-1001.72C129.56,-1107.18 189.64,-1640.42 204.27,-1770.23"/>
<polygon fill="black" stroke="black" points="200.83,-1770.98 205.43,-1780.53 207.79,-1770.2 200.83,-1770.98"/>
</g>
<!-- ModelKind&#45;&gt;NamedIdea -->
<g id="edge68" class="edge">
<title>ModelKind&#45;&gt;NamedIdea</title>
<path fill="none" stroke="black" d="M121.97,-1001.66C170.51,-1140.38 483.04,-2033.55 542.37,-2203.09"/>
<polygon fill="black" stroke="black" points="539.07,-2204.28 545.68,-2212.56 545.68,-2201.97 539.07,-2204.28"/>
</g>
<!-- ModelKind&#45;&gt;Idea -->
<g id="edge69" class="edge">
<title>ModelKind&#45;&gt;Idea</title>
<path fill="none" stroke="black" d="M124.25,-1001.45C195.63,-1149.66 688.44,-2173 774.69,-2352.1"/>
<polygon fill="black" stroke="black" points="771.54,-2353.62 779.03,-2361.11 777.84,-2350.58 771.54,-2353.62"/>
</g>
<!-- ModelKind&#45;&gt;Definition -->
<g id="edge70" class="edge">
<title>ModelKind&#45;&gt;Definition</title>
<path fill="none" stroke="black" d="M121.94,-965.51C137.71,-920.46 178.88,-802.79 197.76,-748.83"/>
<polygon fill="black" stroke="black" points="201.12,-749.82 201.12,-739.23 194.52,-747.51 201.12,-749.82"/>
</g>
<!-- ModelKind&#45;&gt;ConceptDomain -->
<g id="edge71" class="edge">
<title>ModelKind&#45;&gt;ConceptDomain</title>
<path fill="none" stroke="black" d="M113.59,-1001.68C108.29,-1048.72 94.06,-1174.95 87.68,-1231.65"/>
<polygon fill="black" stroke="black" points="84.18,-1231.37 86.54,-1241.7 91.14,-1232.16 84.18,-1231.37"/>
</g>
<!-- ModelKind&#45;&gt;Express -->
<g id="edge72" class="edge">
<title>ModelKind&#45;&gt;Express</title>
<path fill="none" stroke="black" d="M126.86,-965.68C186.3,-871.09 464.21,-428.79 535.42,-315.46"/>
<polygon fill="black" stroke="black" points="538.57,-317.02 540.93,-306.69 532.64,-313.3 538.57,-317.02"/>
</g>
<!-- DefiningExpr&#45;&gt;HasUID -->
<g id="edge74" class="edge">
<title>DefiningExpr&#45;&gt;HasUID</title>
<path fill="none" stroke="black" d="M121.94,-1554.29C137.71,-1599.34 178.88,-1717.01 197.76,-1770.97"/>
<polygon fill="black" stroke="black" points="194.52,-1772.29 201.12,-1780.57 201.12,-1769.98 194.52,-1772.29"/>
</g>
<!-- DefiningExpr&#45;&gt;Definition -->
<g id="edge76" class="edge">
<title>DefiningExpr&#45;&gt;Definition</title>
<path fill="none" stroke="black" d="M117.68,-1518.08C129.56,-1412.62 189.64,-879.38 204.27,-749.57"/>
<polygon fill="black" stroke="black" points="207.79,-749.6 205.43,-739.27 200.83,-748.82 207.79,-749.6"/>
</g>
<!-- DefiningExpr&#45;&gt;ConceptDomain -->
<g id="edge75" class="edge">
<title>DefiningExpr&#45;&gt;ConceptDomain</title>
<path fill="none" stroke="black" d="M113.59,-1518.12C108.29,-1471.08 94.06,-1344.85 87.68,-1288.15"/>
<polygon fill="black" stroke="black" points="91.14,-1287.64 86.54,-1278.1 84.18,-1288.43 91.14,-1287.64"/>
</g>
<!-- DefiningExpr&#45;&gt;Eq -->
<g id="edge73" class="edge">
<title>DefiningExpr&#45;&gt;Eq</title>
<path fill="none" stroke="black" d="M129.86,-1518.41C254.78,-1361.77 1163.51,-222.24 1307.26,-41.99"/>
<polygon fill="black" stroke="black" points="1310.2,-43.91 1313.7,-33.91 1304.73,-39.55 1310.2,-43.91"/>
</g>
<!-- MultiDefn -->
<g id="node10" class="node">
<title>MultiDefn</title>
<ellipse fill="none" stroke="#00868b" cx="355.44" cy="-2034.21" rx="57.69" ry="18"/>
<text text-anchor="middle" x="355.44" y="-2030.51" font-family="Times,serif" font-size="14.00">MultiDefn</text>
</g>
<!-- MultiDefn&#45;&gt;HasUID -->
<g id="edge77" class="edge">
<title>MultiDefn&#45;&gt;HasUID</title>
<path fill="none" stroke="black" d="M344.32,-2016.51C318.49,-1975.42 254.36,-1873.35 223.96,-1824.98"/>
<polygon fill="black" stroke="black" points="226.81,-1822.93 218.53,-1816.32 220.88,-1826.65 226.81,-1822.93"/>
</g>
<!-- MultiDefn&#45;&gt;NamedIdea -->
<g id="edge79" class="edge">
<title>MultiDefn&#45;&gt;NamedIdea</title>
<path fill="none" stroke="black" d="M372.89,-2051.66C407.87,-2086.65 486.68,-2165.46 527.12,-2205.89"/>
<polygon fill="black" stroke="black" points="525.12,-2208.85 534.67,-2213.44 530.07,-2203.9 525.12,-2208.85"/>
</g>
<!-- MultiDefn&#45;&gt;Idea -->
<g id="edge80" class="edge">
<title>MultiDefn&#45;&gt;Idea</title>
<path fill="none" stroke="black" d="M376.57,-2051.07C448.18,-2108.17 681.57,-2294.29 760.89,-2357.55"/>
<polygon fill="black" stroke="black" points="758.93,-2360.46 768.93,-2363.96 763.29,-2354.99 758.93,-2360.46"/>
</g>
<!-- MultiDefn&#45;&gt;Definition -->
<g id="edge85" class="edge">
<title>MultiDefn&#45;&gt;Definition</title>
<path fill="none" stroke="black" d="M353.4,-2016.15C337.3,-1873.28 230.63,-926.57 210.69,-749.54"/>
<polygon fill="black" stroke="black" points="214.15,-749 209.55,-739.45 207.19,-749.78 214.15,-749"/>
</g>
<!-- MultiDefn&#45;&gt;ConceptDomain -->
<g id="edge84" class="edge">
<title>MultiDefn&#45;&gt;ConceptDomain</title>
<path fill="none" stroke="black" d="M349.14,-2016.21C313.55,-1914.51 137.69,-1411.93 94.22,-1287.71"/>
<polygon fill="black" stroke="black" points="97.48,-1286.43 90.88,-1278.14 90.88,-1288.74 97.48,-1286.43"/>
</g>
<!-- MultiDefn&#45;&gt;Express -->
<g id="edge86" class="edge">
<title>MultiDefn&#45;&gt;Express</title>
<path fill="none" stroke="black" d="M357.48,-2016.08C376.67,-1845.76 525.13,-528.17 548.88,-317.35"/>
<polygon fill="black" stroke="black" points="552.39,-317.44 550.03,-307.11 545.44,-316.66 552.39,-317.44"/>
</g>
<!-- MultiDefn&#45;&gt;HasSpace -->
<g id="edge81" class="edge">
<title>MultiDefn&#45;&gt;HasSpace</title>
<path fill="none" stroke="black" d="M372.71,-2016.94C540.48,-1849.17 1878.1,-511.54 2076.22,-313.43"/>
<polygon fill="black" stroke="black" points="2078.69,-315.9 2083.29,-306.36 2073.74,-310.95 2078.69,-315.9"/>
</g>
<!-- MultiDefn&#45;&gt;HasSymbol -->
<g id="edge78" class="edge">
<title>MultiDefn&#45;&gt;HasSymbol</title>
<path fill="none" stroke="black" d="M369.42,-2016.68C510.52,-1839.74 1675.58,-378.8 1844.78,-166.64"/>
<polygon fill="black" stroke="black" points="1847.52,-168.81 1851.02,-158.81 1842.05,-164.45 1847.52,-168.81"/>
</g>
<!-- MultiDefn&#45;&gt;Quantity -->
<g id="edge82" class="edge">
<title>MultiDefn&#45;&gt;Quantity</title>
<path fill="none" stroke="black" d="M366.6,-2016.44C481.47,-1833.64 1446.85,-297.24 1586.04,-75.71"/>
<polygon fill="black" stroke="black" points="1589.17,-77.31 1591.53,-66.99 1583.24,-73.59 1589.17,-77.31"/>
</g>
<!-- MultiDefn&#45;&gt;MayHaveUnit -->
<g id="edge83" class="edge">
<title>MultiDefn&#45;&gt;MayHaveUnit</title>
<path fill="none" stroke="black" d="M387.12,-2018.95C631.42,-1901.31 2213.44,-1139.44 2494.49,-1004.1"/>
<polygon fill="black" stroke="black" points="2496.07,-1007.22 2503.56,-999.73 2493.03,-1000.91 2496.07,-1007.22"/>
</g>
<!-- SpaceDefn -->
<g id="node11" class="node">
<title>SpaceDefn</title>
<ellipse fill="none" stroke="#00868b" cx="486.39" cy="-2431.9" rx="60.39" ry="18"/>
<text text-anchor="middle" x="486.39" y="-2428.2" font-family="Times,serif" font-size="14.00">SpaceDefn</text>
</g>
<!-- TheoryModel -->
<g id="node12" class="node">
<title>TheoryModel</title>
<ellipse fill="none" stroke="#00868b" cx="1050.04" cy="-2470.66" rx="71.49" ry="18"/>
<text text-anchor="middle" x="1050.04" y="-2466.96" font-family="Times,serif" font-size="14.00">TheoryModel</text>
</g>
<!-- TheoryModel&#45;&gt;HasUID -->
<g id="edge87" class="edge">
<title>TheoryModel&#45;&gt;HasUID</title>
<path fill="none" stroke="black" d="M1028.37,-2453.38C912.55,-2361.02 367.08,-1926.02 235.9,-1821.41"/>
<polygon fill="black" stroke="black" points="237.87,-1818.5 227.87,-1815 233.51,-1823.97 237.87,-1818.5"/>
</g>
<!-- TheoryModel&#45;&gt;NamedIdea -->
<g id="edge88" class="edge">
<title>TheoryModel&#45;&gt;NamedIdea</title>
<path fill="none" stroke="black" d="M1016.6,-2454.56C928.49,-2412.13 690.16,-2297.35 593.57,-2250.84"/>
<polygon fill="black" stroke="black" points="594.94,-2247.61 584.41,-2246.42 591.9,-2253.92 594.94,-2247.61"/>
</g>
<!-- TheoryModel&#45;&gt;Idea -->
<g id="edge89" class="edge">
<title>TheoryModel&#45;&gt;Idea</title>
<path fill="none" stroke="black" d="M1008.16,-2456.01C957.22,-2438.18 872.06,-2408.38 823.81,-2391.5"/>
<polygon fill="black" stroke="black" points="824.69,-2388.1 814.09,-2388.1 822.38,-2394.71 824.69,-2388.1"/>
</g>
<!-- TheoryModel&#45;&gt;Definition -->
<g id="edge90" class="edge">
<title>TheoryModel&#45;&gt;Definition</title>
<path fill="none" stroke="black" d="M1041.43,-2452.78C959.63,-2282.91 320.52,-955.79 220.6,-748.3"/>
<polygon fill="black" stroke="black" points="223.62,-746.51 216.13,-739.02 217.31,-749.55 223.62,-746.51"/>
</g>
<!-- TheoryModel&#45;&gt;ConceptDomain -->
<g id="edge93" class="edge">
<title>TheoryModel&#45;&gt;ConceptDomain</title>
<path fill="none" stroke="black" d="M1035.65,-2452.61C926.86,-2316.2 234.95,-1448.57 105.38,-1286.09"/>
<polygon fill="black" stroke="black" points="107.95,-1283.7 98.97,-1278.06 102.47,-1288.06 107.95,-1283.7"/>
</g>
<!-- TheoryModel&#45;&gt;HasReference -->
<g id="edge91" class="edge">
<title>TheoryModel&#45;&gt;HasReference</title>
<path fill="none" stroke="black" d="M1064.31,-2452.78C1200.11,-2282.48 2263.43,-949.13 2424.81,-746.76"/>
<polygon fill="black" stroke="black" points="2427.7,-748.75 2431.2,-738.75 2422.23,-744.39 2427.7,-748.75"/>
</g>
<!-- TheoryModel&#45;&gt;HasDecRef -->
<g id="edge92" class="edge">
<title>TheoryModel&#45;&gt;HasDecRef</title>
<path fill="none" stroke="black" d="M1091.9,-2456.02C1279.89,-2390.24 2045.81,-2122.23 2248.14,-2051.43"/>
<polygon fill="black" stroke="black" points="2249.34,-2054.72 2257.62,-2048.11 2247.03,-2048.11 2249.34,-2054.72"/>
</g>
<!-- TheoryModel&#45;&gt;HasAdditionalNotes -->
<g id="edge94" class="edge">
<title>TheoryModel&#45;&gt;HasAdditionalNotes</title>
<path fill="none" stroke="black" d="M1103.23,-2458.52C1277.06,-2418.85 1828.69,-2292.94 2027.98,-2247.45"/>
<polygon fill="black" stroke="black" points="2028.8,-2250.86 2037.77,-2245.22 2027.24,-2244.03 2028.8,-2250.86"/>
</g>
<!-- TheoryModel&#45;&gt;HasShortName -->
<g id="edge96" class="edge">
<title>TheoryModel&#45;&gt;HasShortName</title>
<path fill="none" stroke="black" d="M1115.38,-2463.3C1262.57,-2446.72 1619.93,-2406.45 1782.39,-2388.15"/>
<polygon fill="black" stroke="black" points="1782.79,-2391.62 1792.33,-2387.03 1782,-2384.67 1782.79,-2391.62"/>
</g>
<!-- TheoryModel&#45;&gt;HasRefAddress -->
<g id="edge97" class="edge">
<title>TheoryModel&#45;&gt;HasRefAddress</title>
<path fill="none" stroke="black" d="M1083.5,-2454.55C1271.04,-2364.23 2190.95,-1921.23 2402.07,-1819.56"/>
<polygon fill="black" stroke="black" points="2403.8,-1822.61 2411.29,-1815.12 2400.76,-1816.3 2403.8,-1822.61"/>
</g>
<!-- TheoryModel&#45;&gt;CommonIdea -->
<g id="edge98" class="edge">
<title>TheoryModel&#45;&gt;CommonIdea</title>
<path fill="none" stroke="black" d="M1076.8,-2453.85C1257.33,-2340.42 2296.23,-1687.63 2501.81,-1558.46"/>
<polygon fill="black" stroke="black" points="2503.82,-1561.33 2510.42,-1553.05 2500.09,-1555.4 2503.82,-1561.33"/>
</g>
<!-- TheoryModel&#45;&gt;Referable -->
<g id="edge99" class="edge">
<title>TheoryModel&#45;&gt;Referable</title>
<path fill="none" stroke="black" d="M1121.73,-2470.66C1229.57,-2470.66 1432,-2470.66 1536.53,-2470.66"/>
<polygon fill="black" stroke="black" points="1536.64,-2474.16 1546.64,-2470.66 1536.64,-2467.16 1536.64,-2474.16"/>
</g>
<!-- Theory -->
<g id="node34" class="node">
<title>Theory</title>
<ellipse fill="none" stroke="magenta" cx="1024.48" cy="-2582.68" rx="42.79" ry="18"/>
<text text-anchor="middle" x="1024.48" y="-2578.98" font-family="Times,serif" font-size="14.00">Theory</text>
</g>
<!-- TheoryModel&#45;&gt;Theory -->
<g id="edge95" class="edge">
<title>TheoryModel&#45;&gt;Theory</title>
<path fill="none" stroke="black" d="M1045.94,-2488.66C1041.85,-2506.54 1035.54,-2534.21 1030.81,-2554.91"/>
<polygon fill="black" stroke="black" points="1027.39,-2554.2 1028.57,-2564.73 1034.21,-2555.76 1027.39,-2554.2"/>
</g>
</g>
</svg>
