<?xml version="1.0" encoding="UTF-8" standalone="no"?>
<!DOCTYPE svg PUBLIC "-//W3C//DTD SVG 1.1//EN"
 "http://www.w3.org/Graphics/SVG/1.1/DTD/svg11.dtd">
<!-- Generated by graphviz version 2.43.0 (0)
 -->
<!-- Title: code_base Pages: 1 -->
<svg width="1084pt" height="902pt"
 viewBox="0.00 0.00 1084.42 901.61" xmlns="http://www.w3.org/2000/svg" xmlns:xlink="http://www.w3.org/1999/xlink">
<g id="graph0" class="graph" transform="scale(1 1) rotate(0) translate(4 897.61)">
<title>code_base</title>
<polygon fill="white" stroke="transparent" points="-4,4 -4,-897.61 1080.42,-897.61 1080.42,4 -4,4"/>
<!-- VarOrFunc -->
<g id="node1" class="node">
<title>VarOrFunc</title>
<ellipse fill="none" stroke="#00868b" cx="295.33" cy="-433.61" rx="61.19" ry="18"/>
<text text-anchor="middle" x="295.33" y="-429.91" font-family="Times,serif" font-size="14.00">VarOrFunc</text>
</g>
<!-- CodeChunk -->
<g id="node2" class="node">
<title>CodeChunk</title>
<ellipse fill="none" stroke="#00868b" cx="194.99" cy="-770.33" rx="63.89" ry="18"/>
<text text-anchor="middle" x="194.99" y="-766.63" font-family="Times,serif" font-size="14.00">CodeChunk</text>
</g>
<!-- HasUID -->
<g id="node19" class="node">
<title>HasUID</title>
<ellipse fill="none" stroke="pink" cx="194.99" cy="-118.88" rx="47.39" ry="18"/>
<text text-anchor="middle" x="194.99" y="-115.18" font-family="Times,serif" font-size="14.00">HasUID</text>
</g>
<!-- CodeChunk&#45;&gt;HasUID -->
<g id="edge1" class="edge">
<title>CodeChunk&#45;&gt;HasUID</title>
<path fill="none" stroke="black" d="M194.99,-752.23C194.99,-661.64 194.99,-257.55 194.99,-146.95"/>
<polygon fill="black" stroke="black" points="198.49,-146.9 194.99,-136.9 191.49,-146.9 198.49,-146.9"/>
</g>
<!-- NamedIdea -->
<g id="node20" class="node">
<title>NamedIdea</title>
<ellipse fill="none" stroke="pink" cx="839.81" cy="-211.6" rx="63.89" ry="18"/>
<text text-anchor="middle" x="839.81" y="-207.9" font-family="Times,serif" font-size="14.00">NamedIdea</text>
</g>
<!-- CodeChunk&#45;&gt;NamedIdea -->
<g id="edge2" class="edge">
<title>CodeChunk&#45;&gt;NamedIdea</title>
<path fill="none" stroke="black" d="M214.99,-753C308.73,-671.78 704.47,-328.87 812.48,-235.28"/>
<polygon fill="black" stroke="black" points="814.77,-237.92 820.04,-228.73 810.19,-232.63 814.77,-237.92"/>
</g>
<!-- Idea -->
<g id="node21" class="node">
<title>Idea</title>
<ellipse fill="none" stroke="pink" cx="656.27" cy="-52.56" rx="30.59" ry="18"/>
<text text-anchor="middle" x="656.27" y="-48.86" font-family="Times,serif" font-size="14.00">Idea</text>
</g>
<!-- CodeChunk&#45;&gt;Idea -->
<g id="edge3" class="edge">
<title>CodeChunk&#45;&gt;Idea</title>
<path fill="none" stroke="black" d="M206.39,-752.59C268.53,-655.91 566.2,-192.72 639.79,-78.21"/>
<polygon fill="black" stroke="black" points="642.81,-79.99 645.27,-69.68 636.92,-76.2 642.81,-79.99"/>
</g>
<!-- HasSpace -->
<g id="node22" class="node">
<title>HasSpace</title>
<ellipse fill="none" stroke="pink" cx="63.69" cy="-323.18" rx="56.59" ry="18"/>
<text text-anchor="middle" x="63.69" y="-319.48" font-family="Times,serif" font-size="14.00">HasSpace</text>
</g>
<!-- CodeChunk&#45;&gt;HasSpace -->
<g id="edge4" class="edge">
<title>CodeChunk&#45;&gt;HasSpace</title>
<path fill="none" stroke="black" d="M189.68,-752.25C169.37,-683.08 96.51,-434.96 71.89,-351.1"/>
<polygon fill="black" stroke="black" points="75.25,-350.1 69.07,-341.49 68.53,-352.07 75.25,-350.1"/>
</g>
<!-- HasSymbol -->
<g id="node23" class="node">
<title>HasSymbol</title>
<ellipse fill="none" stroke="pink" cx="63.69" cy="-566.04" rx="63.89" ry="18"/>
<text text-anchor="middle" x="63.69" y="-562.34" font-family="Times,serif" font-size="14.00">HasSymbol</text>
</g>
<!-- CodeChunk&#45;&gt;HasSymbol -->
<g id="edge5" class="edge">
<title>CodeChunk&#45;&gt;HasSymbol</title>
<path fill="none" stroke="black" d="M183.57,-752.56C160.43,-716.57 107.94,-634.88 80.74,-592.56"/>
<polygon fill="black" stroke="black" points="83.53,-590.43 75.18,-583.91 77.65,-594.22 83.53,-590.43"/>
</g>
<!-- Quantity -->
<g id="node24" class="node">
<title>Quantity</title>
<ellipse fill="none" stroke="pink" cx="415.9" cy="-871.22" rx="51.19" ry="18"/>
<text text-anchor="middle" x="415.9" y="-867.52" font-family="Times,serif" font-size="14.00">Quantity</text>
</g>
<!-- CodeChunk&#45;&gt;Quantity -->
<g id="edge6" class="edge">
<title>CodeChunk&#45;&gt;Quantity</title>
<path fill="none" stroke="black" d="M228.54,-785.66C267.93,-803.64 333.21,-833.46 375.39,-852.72"/>
<polygon fill="black" stroke="black" points="373.99,-855.93 384.54,-856.9 376.89,-849.56 373.99,-855.93"/>
</g>
<!-- Eq -->
<g id="node25" class="node">
<title>Eq</title>
<ellipse fill="none" stroke="pink" cx="656.27" cy="-836.66" rx="27" ry="18"/>
<text text-anchor="middle" x="656.27" y="-832.96" font-family="Times,serif" font-size="14.00">Eq</text>
</g>
<!-- CodeChunk&#45;&gt;Eq -->
<g id="edge7" class="edge">
<title>CodeChunk&#45;&gt;Eq</title>
<path fill="none" stroke="black" d="M252.01,-778.53C348.1,-792.35 539.6,-819.88 619.71,-831.4"/>
<polygon fill="black" stroke="black" points="619.41,-834.89 629.81,-832.85 620.41,-827.96 619.41,-834.89"/>
</g>
<!-- MayHaveUnit -->
<g id="node26" class="node">
<title>MayHaveUnit</title>
<ellipse fill="none" stroke="pink" cx="839.81" cy="-677.62" rx="75.29" ry="18"/>
<text text-anchor="middle" x="839.81" y="-673.92" font-family="Times,serif" font-size="14.00">MayHaveUnit</text>
</g>
<!-- CodeChunk&#45;&gt;MayHaveUnit -->
<g id="edge8" class="edge">
<title>CodeChunk&#45;&gt;MayHaveUnit</title>
<path fill="none" stroke="black" d="M251.93,-762.15C368.61,-745.37 634.83,-707.1 765.15,-688.36"/>
<polygon fill="black" stroke="black" points="765.66,-691.82 775.06,-686.93 764.66,-684.89 765.66,-691.82"/>
</g>
<!-- CodeVarChunk -->
<g id="node3" class="node">
<title>CodeVarChunk</title>
<ellipse fill="none" stroke="#00868b" cx="415.9" cy="-18" rx="79.09" ry="18"/>
<text text-anchor="middle" x="415.9" y="-14.3" font-family="Times,serif" font-size="14.00">CodeVarChunk</text>
</g>
<!-- CodeVarChunk&#45;&gt;HasUID -->
<g id="edge9" class="edge">
<title>CodeVarChunk&#45;&gt;HasUID</title>
<path fill="none" stroke="black" d="M380.4,-34.21C340.57,-52.4 276.12,-81.83 234.66,-100.77"/>
<polygon fill="black" stroke="black" points="233.06,-97.65 225.42,-104.99 235.97,-104.02 233.06,-97.65"/>
</g>
<!-- CodeVarChunk&#45;&gt;NamedIdea -->
<g id="edge10" class="edge">
<title>CodeVarChunk&#45;&gt;NamedIdea</title>
<path fill="none" stroke="black" d="M451.31,-34.17C528.81,-69.57 713.22,-153.79 797.04,-192.06"/>
<polygon fill="black" stroke="black" points="795.72,-195.31 806.27,-196.28 798.62,-188.94 795.72,-195.31"/>
</g>
<!-- CodeVarChunk&#45;&gt;Idea -->
<g id="edge11" class="edge">
<title>CodeVarChunk&#45;&gt;Idea</title>
<path fill="none" stroke="black" d="M483.17,-27.67C526.03,-33.83 580.09,-41.61 616.3,-46.81"/>
<polygon fill="black" stroke="black" points="616.07,-50.32 626.47,-48.28 617.07,-43.39 616.07,-50.32"/>
</g>
<!-- CodeVarChunk&#45;&gt;HasSpace -->
<g id="edge12" class="edge">
<title>CodeVarChunk&#45;&gt;HasSpace</title>
<path fill="none" stroke="black" d="M395.69,-35.5C335.86,-87.35 159.47,-240.19 91.16,-299.39"/>
<polygon fill="black" stroke="black" points="88.64,-296.93 83.38,-306.13 93.23,-302.22 88.64,-296.93"/>
</g>
<!-- CodeVarChunk&#45;&gt;HasSymbol -->
<g id="edge13" class="edge">
<title>CodeVarChunk&#45;&gt;HasSymbol</title>
<path fill="none" stroke="black" d="M404.38,-35.92C352.7,-116.34 142.04,-444.12 80.6,-539.74"/>
<polygon fill="black" stroke="black" points="77.59,-537.94 75.12,-548.25 83.48,-541.73 77.59,-537.94"/>
</g>
<!-- CodeVarChunk&#45;&gt;Quantity -->
<g id="edge14" class="edge">
<title>CodeVarChunk&#45;&gt;Quantity</title>
<path fill="none" stroke="black" d="M415.9,-36.22C415.9,-145.09 415.9,-709.62 415.9,-842.97"/>
<polygon fill="black" stroke="black" points="412.4,-843.17 415.9,-853.17 419.4,-843.17 412.4,-843.17"/>
</g>
<!-- CodeVarChunk&#45;&gt;Eq -->
<g id="edge15" class="edge">
<title>CodeVarChunk&#45;&gt;Eq</title>
<path fill="none" stroke="black" d="M421.25,-36.25C452.42,-142.38 610.25,-679.91 648.1,-808.83"/>
<polygon fill="black" stroke="black" points="644.83,-810.11 651.01,-818.72 651.55,-808.14 644.83,-810.11"/>
</g>
<!-- CodeVarChunk&#45;&gt;MayHaveUnit -->
<g id="edge16" class="edge">
<title>CodeVarChunk&#45;&gt;MayHaveUnit</title>
<path fill="none" stroke="black" d="M427.45,-35.99C486.31,-127.57 752.64,-541.98 822.82,-651.18"/>
<polygon fill="black" stroke="black" points="819.91,-653.13 828.26,-659.65 825.8,-649.35 819.91,-653.13"/>
</g>
<!-- CodeFuncChunk -->
<g id="node4" class="node">
<title>CodeFuncChunk</title>
<ellipse fill="none" stroke="#00868b" cx="908.23" cy="-444.61" rx="87.18" ry="18"/>
<text text-anchor="middle" x="908.23" y="-440.91" font-family="Times,serif" font-size="14.00">CodeFuncChunk</text>
</g>
<!-- CodeFuncChunk&#45;&gt;HasUID -->
<g id="edge17" class="edge">
<title>CodeFuncChunk&#45;&gt;HasUID</title>
<path fill="none" stroke="black" d="M871.88,-428.01C750.7,-372.67 361.06,-194.72 234.85,-137.09"/>
<polygon fill="black" stroke="black" points="236.08,-133.8 225.53,-132.83 233.17,-140.17 236.08,-133.8"/>
</g>
<!-- CodeFuncChunk&#45;&gt;NamedIdea -->
<g id="edge18" class="edge">
<title>CodeFuncChunk&#45;&gt;NamedIdea</title>
<path fill="none" stroke="black" d="M902.86,-426.33C890.94,-385.74 862.22,-287.93 848.03,-239.59"/>
<polygon fill="black" stroke="black" points="851.33,-238.4 845.15,-229.79 844.61,-240.38 851.33,-238.4"/>
</g>
<!-- CodeFuncChunk&#45;&gt;Idea -->
<g id="edge19" class="edge">
<title>CodeFuncChunk&#45;&gt;Idea</title>
<path fill="none" stroke="black" d="M896.75,-426.75C856.31,-363.83 720.38,-152.31 672.85,-78.35"/>
<polygon fill="black" stroke="black" points="675.6,-76.16 667.25,-69.64 669.71,-79.94 675.6,-76.16"/>
</g>
<!-- CodeFuncChunk&#45;&gt;HasSpace -->
<g id="edge20" class="edge">
<title>CodeFuncChunk&#45;&gt;HasSpace</title>
<path fill="none" stroke="black" d="M836.59,-434.31C673.85,-410.91 278.6,-354.08 125.61,-332.09"/>
<polygon fill="black" stroke="black" points="125.85,-328.58 115.45,-330.62 124.85,-335.51 125.85,-328.58"/>
</g>
<!-- CodeFuncChunk&#45;&gt;HasSymbol -->
<g id="edge21" class="edge">
<title>CodeFuncChunk&#45;&gt;HasSymbol</title>
<path fill="none" stroke="black" d="M836.59,-454.91C675.54,-478.07 286.77,-533.96 130.45,-556.44"/>
<polygon fill="black" stroke="black" points="129.89,-552.98 120.49,-557.87 130.89,-559.91 129.89,-552.98"/>
</g>
<!-- CodeFuncChunk&#45;&gt;Quantity -->
<g id="edge22" class="edge">
<title>CodeFuncChunk&#45;&gt;Quantity</title>
<path fill="none" stroke="black" d="M888.01,-462.13C810.37,-529.41 531.25,-771.26 442.91,-847.81"/>
<polygon fill="black" stroke="black" points="440.47,-845.29 435.2,-854.49 445.05,-850.58 440.47,-845.29"/>
</g>
<!-- CodeFuncChunk&#45;&gt;Eq -->
<g id="edge24" class="edge">
<title>CodeFuncChunk&#45;&gt;Eq</title>
<path fill="none" stroke="black" d="M896.75,-462.47C856.22,-525.54 719.76,-737.88 672.52,-811.37"/>
<polygon fill="black" stroke="black" points="669.43,-809.71 666.97,-820.02 675.32,-813.5 669.43,-809.71"/>
</g>
<!-- CodeFuncChunk&#45;&gt;MayHaveUnit -->
<g id="edge25" class="edge">
<title>CodeFuncChunk&#45;&gt;MayHaveUnit</title>
<path fill="none" stroke="black" d="M902.86,-462.89C890.94,-503.47 862.22,-601.29 848.03,-649.63"/>
<polygon fill="black" stroke="black" points="844.61,-648.84 845.15,-659.42 851.33,-650.82 844.61,-648.84"/>
</g>
<!-- Callable -->
<g id="node27" class="node">
<title>Callable</title>
<ellipse fill="none" stroke="pink" cx="1028.32" cy="-444.61" rx="48.19" ry="18"/>
<text text-anchor="middle" x="1028.32" y="-440.91" font-family="Times,serif" font-size="14.00">Callable</text>
</g>
<!-- CodeFuncChunk&#45;&gt;Callable -->
<g id="edge23" class="edge">
<title>CodeFuncChunk&#45;&gt;Callable</title>
<path fill="none" stroke="black" d="M995.51,-444.61C995.58,-444.61 995.65,-444.61 995.73,-444.61"/>
<polygon fill="black" stroke="black" points="985.95,-448.11 995.94,-444.61 985.94,-441.11 985.95,-448.11"/>
</g>
<!-- ArithBinOp -->
<g id="node5" class="node">
<title>ArithBinOp</title>
<ellipse fill="none" stroke="#00868b" cx="973.33" cy="-563.61" rx="63.09" ry="18"/>
<text text-anchor="middle" x="973.33" y="-559.91" font-family="Times,serif" font-size="14.00">ArithBinOp</text>
</g>
<!-- EqBinOp -->
<g id="node6" class="node">
<title>EqBinOp</title>
<ellipse fill="none" stroke="#00868b" cx="988.33" cy="-381.61" rx="51.99" ry="18"/>
<text text-anchor="middle" x="988.33" y="-377.91" font-family="Times,serif" font-size="14.00">EqBinOp</text>
</g>
<!-- BoolBinOp -->
<g id="node7" class="node">
<title>BoolBinOp</title>
<ellipse fill="none" stroke="#00868b" cx="684.33" cy="-251.61" rx="59.59" ry="18"/>
<text text-anchor="middle" x="684.33" y="-247.91" font-family="Times,serif" font-size="14.00">BoolBinOp</text>
</g>
<!-- LABinOp -->
<g id="node8" class="node">
<title>LABinOp</title>
<ellipse fill="none" stroke="#00868b" cx="988.33" cy="-849.61" rx="51.99" ry="18"/>
<text text-anchor="middle" x="988.33" y="-845.91" font-family="Times,serif" font-size="14.00">LABinOp</text>
</g>
<!-- OrdBinOp -->
<g id="node9" class="node">
<title>OrdBinOp</title>
<ellipse fill="none" stroke="#00868b" cx="525.33" cy="-667.61" rx="57.39" ry="18"/>
<text text-anchor="middle" x="525.33" y="-663.91" font-family="Times,serif" font-size="14.00">OrdBinOp</text>
</g>
<!-- VVVBinOp -->
<g id="node10" class="node">
<title>VVVBinOp</title>
<ellipse fill="none" stroke="#00868b" cx="786.33" cy="-69.61" rx="58.49" ry="18"/>
<text text-anchor="middle" x="786.33" y="-65.91" font-family="Times,serif" font-size="14.00">VVVBinOp</text>
</g>
<!-- VVNBinOp -->
<g id="node11" class="node">
<title>VVNBinOp</title>
<ellipse fill="none" stroke="#00868b" cx="944.33" cy="-69.61" rx="59.59" ry="18"/>
<text text-anchor="middle" x="944.33" y="-65.91" font-family="Times,serif" font-size="14.00">VVNBinOp</text>
</g>
<!-- AssocArithOper -->
<g id="node12" class="node">
<title>AssocArithOper</title>
<ellipse fill="none" stroke="#00868b" cx="863.33" cy="-147.61" rx="83.39" ry="18"/>
<text text-anchor="middle" x="863.33" y="-143.91" font-family="Times,serif" font-size="14.00">AssocArithOper</text>
</g>
<!-- AssocBoolOper -->
<g id="node13" class="node">
<title>AssocBoolOper</title>
<ellipse fill="none" stroke="#00868b" cx="991.33" cy="-303.61" rx="80.69" ry="18"/>
<text text-anchor="middle" x="991.33" y="-299.91" font-family="Times,serif" font-size="14.00">AssocBoolOper</text>
</g>
<!-- UFunc -->
<g id="node14" class="node">
<title>UFunc</title>
<ellipse fill="none" stroke="#00868b" cx="666.33" cy="-563.61" rx="41.69" ry="18"/>
<text text-anchor="middle" x="666.33" y="-559.91" font-family="Times,serif" font-size="14.00">UFunc</text>
</g>
<!-- UFuncB -->
<g id="node15" class="node">
<title>UFuncB</title>
<ellipse fill="none" stroke="#00868b" cx="828.33" cy="-849.61" rx="48.19" ry="18"/>
<text text-anchor="middle" x="828.33" y="-845.91" font-family="Times,serif" font-size="14.00">UFuncB</text>
</g>
<!-- UFuncVV -->
<g id="node16" class="node">
<title>UFuncVV</title>
<ellipse fill="none" stroke="#00868b" cx="1016.33" cy="-225.61" rx="53.89" ry="18"/>
<text text-anchor="middle" x="1016.33" y="-221.91" font-family="Times,serif" font-size="14.00">UFuncVV</text>
</g>
<!-- UFuncVN -->
<g id="node17" class="node">
<title>UFuncVN</title>
<ellipse fill="none" stroke="#00868b" cx="1018.33" cy="-641.61" rx="55.79" ry="18"/>
<text text-anchor="middle" x="1018.33" y="-637.91" font-family="Times,serif" font-size="14.00">UFuncVN</text>
</g>
<!-- CodeExpr -->
<g id="node18" class="node">
<title>CodeExpr</title>
<ellipse fill="none" stroke="#00868b" cx="239.33" cy="-875.61" rx="56.59" ry="18"/>
<text text-anchor="middle" x="239.33" y="-871.91" font-family="Times,serif" font-size="14.00">CodeExpr</text>
</g>
<!-- CodeIdea -->
<g id="node28" class="node">
<title>CodeIdea</title>
<ellipse fill="none" stroke="magenta" cx="184.33" cy="-43.61" rx="53.89" ry="18"/>
<text text-anchor="middle" x="184.33" y="-39.91" font-family="Times,serif" font-size="14.00">CodeIdea</text>
</g>
<!-- DefiningCodeExpr -->
<g id="node29" class="node">
<title>DefiningCodeExpr</title>
<ellipse fill="none" stroke="magenta" cx="954.33" cy="-771.61" rx="95.58" ry="18"/>
<text text-anchor="middle" x="954.33" y="-767.91" font-family="Times,serif" font-size="14.00">DefiningCodeExpr</text>
</g>
</g>
</svg>
