<?xml version="1.0" encoding="UTF-8" standalone="no"?>
<!DOCTYPE svg PUBLIC "-//W3C//DTD SVG 1.1//EN"
 "http://www.w3.org/Graphics/SVG/1.1/DTD/svg11.dtd">
<!-- Generated by graphviz version 2.43.0 (0)
 -->
<!-- Title: printers Pages: 1 -->
<svg width="903pt" height="698pt"
 viewBox="0.00 0.00 902.91 698.04" xmlns="http://www.w3.org/2000/svg" xmlns:xlink="http://www.w3.org/1999/xlink">
<g id="graph0" class="graph" transform="scale(1 1) rotate(0) translate(4 694.04)">
<title>printers</title>
<polygon fill="white" stroke="transparent" points="-4,4 -4,-694.04 898.91,-694.04 898.91,4 -4,4"/>
<!-- NodeFamily -->
<g id="node1" class="node">
<title>NodeFamily</title>
<ellipse fill="none" stroke="#00868b" cx="462.47" cy="-150" rx="66.09" ry="18"/>
<text text-anchor="middle" x="462.47" y="-146.3" font-family="Times,serif" font-size="14.00">NodeFamily</text>
</g>
<!-- GraphInfo -->
<g id="node2" class="node">
<title>GraphInfo</title>
<ellipse fill="none" stroke="#00868b" cx="634.47" cy="-330" rx="57.69" ry="18"/>
<text text-anchor="middle" x="634.47" y="-326.3" font-family="Times,serif" font-size="14.00">GraphInfo</text>
</g>
<!-- Variation -->
<g id="node3" class="node">
<title>Variation</title>
<ellipse fill="none" stroke="#00868b" cx="449.47" cy="-90" rx="52.79" ry="18"/>
<text text-anchor="middle" x="449.47" y="-86.3" font-family="Times,serif" font-size="14.00">Variation</text>
</g>
<!-- PrintHTML -->
<g id="node4" class="node">
<title>PrintHTML</title>
<ellipse fill="none" stroke="#00868b" cx="459.08" cy="-210" rx="63.09" ry="18"/>
<text text-anchor="middle" x="459.08" y="-206.3" font-family="Times,serif" font-size="14.00">PrintHTML</text>
</g>
<!-- RenderSpecial -->
<g id="node33" class="node">
<title>RenderSpecial</title>
<ellipse fill="none" stroke="pink" cx="672.12" cy="-210" rx="77.99" ry="18"/>
<text text-anchor="middle" x="672.12" y="-206.3" font-family="Times,serif" font-size="14.00">RenderSpecial</text>
</g>
<!-- PrintHTML&#45;&gt;RenderSpecial -->
<g id="edge1" class="edge">
<title>PrintHTML&#45;&gt;RenderSpecial</title>
<path fill="none" stroke="black" d="M522.14,-210C541.54,-210 563.26,-210 584.02,-210"/>
<polygon fill="black" stroke="black" points="584.12,-213.5 594.12,-210 584.12,-206.5 584.12,-213.5"/>
</g>
<!-- OpenClose -->
<g id="node5" class="node">
<title>OpenClose</title>
<ellipse fill="none" stroke="#00868b" cx="312.47" cy="-210" rx="60.39" ry="18"/>
<text text-anchor="middle" x="312.47" y="-206.3" font-family="Times,serif" font-size="14.00">OpenClose</text>
</g>
<!-- Linearity -->
<g id="node6" class="node">
<title>Linearity</title>
<ellipse fill="none" stroke="#00868b" cx="245.47" cy="-90" rx="52.79" ry="18"/>
<text text-anchor="middle" x="245.47" y="-86.3" font-family="Times,serif" font-size="14.00">Linearity</text>
</g>
<!-- LinkType -->
<g id="node7" class="node">
<title>LinkType</title>
<ellipse fill="none" stroke="#00868b" cx="581.47" cy="-78" rx="53.09" ry="18"/>
<text text-anchor="middle" x="581.47" y="-74.3" font-family="Times,serif" font-size="14.00">LinkType</text>
</g>
<!-- Ops -->
<g id="node8" class="node">
<title>Ops</title>
<ellipse fill="none" stroke="#00868b" cx="257.47" cy="-30" rx="28.7" ry="18"/>
<text text-anchor="middle" x="257.47" y="-26.3" font-family="Times,serif" font-size="14.00">Ops</text>
</g>
<!-- Fence -->
<g id="node9" class="node">
<title>Fence</title>
<ellipse fill="none" stroke="#00868b" cx="170.47" cy="-486" rx="38.19" ry="18"/>
<text text-anchor="middle" x="170.47" y="-482.3" font-family="Times,serif" font-size="14.00">Fence</text>
</g>
<!-- OverSymb -->
<g id="node10" class="node">
<title>OverSymb</title>
<ellipse fill="none" stroke="#00868b" cx="312.47" cy="-150" rx="59.59" ry="18"/>
<text text-anchor="middle" x="312.47" y="-146.3" font-family="Times,serif" font-size="14.00">OverSymb</text>
</g>
<!-- Fonts -->
<g id="node11" class="node">
<title>Fonts</title>
<ellipse fill="none" stroke="#00868b" cx="168.47" cy="-30" rx="36.29" ry="18"/>
<text text-anchor="middle" x="168.47" y="-26.3" font-family="Times,serif" font-size="14.00">Fonts</text>
</g>
<!-- Spacing -->
<g id="node12" class="node">
<title>Spacing</title>
<ellipse fill="none" stroke="#00868b" cx="228.47" cy="-330" rx="48.19" ry="18"/>
<text text-anchor="middle" x="228.47" y="-326.3" font-family="Times,serif" font-size="14.00">Spacing</text>
</g>
<!-- Expr -->
<g id="node13" class="node">
<title>Expr</title>
<ellipse fill="none" stroke="#00868b" cx="561.47" cy="-18" rx="33.29" ry="18"/>
<text text-anchor="middle" x="561.47" y="-14.3" font-family="Times,serif" font-size="14.00">Expr</text>
</g>
<!-- Spec -->
<g id="node14" class="node">
<title>Spec</title>
<ellipse fill="none" stroke="#00868b" cx="705.47" cy="-570" rx="33.29" ry="18"/>
<text text-anchor="middle" x="705.47" y="-566.3" font-family="Times,serif" font-size="14.00">Spec</text>
</g>
<!-- ListType -->
<g id="node15" class="node">
<title>ListType</title>
<ellipse fill="none" stroke="#00868b" cx="447.47" cy="-30" rx="50.89" ry="18"/>
<text text-anchor="middle" x="447.47" y="-26.3" font-family="Times,serif" font-size="14.00">ListType</text>
</g>
<!-- ItemType -->
<g id="node16" class="node">
<title>ItemType</title>
<ellipse fill="none" stroke="#00868b" cx="319.47" cy="-510" rx="54.69" ry="18"/>
<text text-anchor="middle" x="319.47" y="-506.3" font-family="Times,serif" font-size="14.00">ItemType</text>
</g>
<!-- Citation -->
<g id="node17" class="node">
<title>Citation</title>
<ellipse fill="none" stroke="#00868b" cx="192.47" cy="-546" rx="48.19" ry="18"/>
<text text-anchor="middle" x="192.47" y="-542.3" font-family="Times,serif" font-size="14.00">Citation</text>
</g>
<!-- CiteField -->
<g id="node18" class="node">
<title>CiteField</title>
<ellipse fill="none" stroke="#00868b" cx="461.47" cy="-522" rx="53.09" ry="18"/>
<text text-anchor="middle" x="461.47" y="-518.3" font-family="Times,serif" font-size="14.00">CiteField</text>
</g>
<!-- HP -->
<g id="node19" class="node">
<title>HP</title>
<ellipse fill="none" stroke="#00868b" cx="339.47" cy="-30" rx="27" ry="18"/>
<text text-anchor="middle" x="339.47" y="-26.3" font-family="Times,serif" font-size="14.00">HP</text>
</g>
<!-- Document -->
<g id="node20" class="node">
<title>Document</title>
<ellipse fill="none" stroke="#00868b" cx="214.47" cy="-390" rx="57.69" ry="18"/>
<text text-anchor="middle" x="214.47" y="-386.3" font-family="Times,serif" font-size="14.00">Document</text>
</g>
<!-- LayoutObj -->
<g id="node21" class="node">
<title>LayoutObj</title>
<ellipse fill="none" stroke="#00868b" cx="610.47" cy="-138" rx="58.49" ry="18"/>
<text text-anchor="middle" x="610.47" y="-134.3" font-family="Times,serif" font-size="14.00">LayoutObj</text>
</g>
<!-- Notation -->
<g id="node22" class="node">
<title>Notation</title>
<ellipse fill="none" stroke="#00868b" cx="711.47" cy="-30" rx="51.19" ry="18"/>
<text text-anchor="middle" x="711.47" y="-26.3" font-family="Times,serif" font-size="14.00">Notation</text>
</g>
<!-- PrintingInformation -->
<g id="node23" class="node">
<title>PrintingInformation</title>
<ellipse fill="none" stroke="#00868b" cx="103.34" cy="-270" rx="103.18" ry="18"/>
<text text-anchor="middle" x="103.34" y="-266.3" font-family="Times,serif" font-size="14.00">PrintingInformation</text>
</g>
<!-- HasPrintingOptions -->
<g id="node34" class="node">
<title>HasPrintingOptions</title>
<ellipse fill="none" stroke="magenta" cx="381.37" cy="-270" rx="102.88" ry="18"/>
<text text-anchor="middle" x="381.37" y="-266.3" font-family="Times,serif" font-size="14.00">HasPrintingOptions</text>
</g>
<!-- PrintingInformation&#45;&gt;HasPrintingOptions -->
<g id="edge3" class="edge">
<title>PrintingInformation&#45;&gt;HasPrintingOptions</title>
<path fill="none" stroke="black" d="M206.87,-270C226.81,-270 247.8,-270 268.04,-270"/>
<polygon fill="black" stroke="black" points="268.22,-273.5 278.22,-270 268.22,-266.5 268.22,-273.5"/>
</g>
<!-- PrintingConfiguration -->
<g id="node24" class="node">
<title>PrintingConfiguration</title>
<ellipse fill="none" stroke="#00868b" cx="668.5" cy="-270" rx="112.38" ry="18"/>
<text text-anchor="middle" x="668.5" y="-266.3" font-family="Times,serif" font-size="14.00">PrintingConfiguration</text>
</g>
<!-- PrintingConfiguration&#45;&gt;HasPrintingOptions -->
<g id="edge2" class="edge">
<title>PrintingConfiguration&#45;&gt;HasPrintingOptions</title>
<path fill="none" stroke="black" d="M555.85,-270C535.69,-270 514.67,-270 494.5,-270"/>
<polygon fill="black" stroke="black" points="494.35,-266.5 484.35,-270 494.35,-273.5 494.35,-266.5"/>
</g>
<!-- MathContext -->
<g id="node25" class="node">
<title>MathContext</title>
<ellipse fill="none" stroke="#00868b" cx="371.47" cy="-342" rx="71.49" ry="18"/>
<text text-anchor="middle" x="371.47" y="-338.3" font-family="Times,serif" font-size="14.00">MathContext</text>
</g>
<!-- PrintLaTeX -->
<g id="node26" class="node">
<title>PrintLaTeX</title>
<ellipse fill="none" stroke="#00868b" cx="600.47" cy="-506" rx="62.29" ry="18"/>
<text text-anchor="middle" x="600.47" y="-502.3" font-family="Times,serif" font-size="14.00">PrintLaTeX</text>
</g>
<!-- Functor -->
<g id="node35" class="node">
<title>Functor</title>
<ellipse fill="none" stroke="pink" cx="797.26" cy="-506" rx="47.39" ry="18"/>
<text text-anchor="middle" x="797.26" y="-502.3" font-family="Times,serif" font-size="14.00">Functor</text>
</g>
<!-- PrintLaTeX&#45;&gt;Functor -->
<g id="edge4" class="edge">
<title>PrintLaTeX&#45;&gt;Functor</title>
<path fill="none" stroke="black" d="M663.01,-506C687.53,-506 715.49,-506 739.53,-506"/>
<polygon fill="black" stroke="black" points="739.56,-509.5 749.56,-506 739.56,-502.5 739.56,-509.5"/>
</g>
<!-- Applicative -->
<g id="node36" class="node">
<title>Applicative</title>
<ellipse fill="none" stroke="pink" cx="494.85" cy="-672.04" rx="62.29" ry="18"/>
<text text-anchor="middle" x="494.85" y="-668.34" font-family="Times,serif" font-size="14.00">Applicative</text>
</g>
<!-- PrintLaTeX&#45;&gt;Applicative -->
<g id="edge5" class="edge">
<title>PrintLaTeX&#45;&gt;Applicative</title>
<path fill="none" stroke="black" d="M589.17,-523.77C570.56,-553.03 533.36,-611.5 511.66,-645.63"/>
<polygon fill="black" stroke="black" points="508.65,-643.83 506.23,-654.15 514.55,-647.59 508.65,-643.83"/>
</g>
<!-- Monad -->
<g id="node37" class="node">
<title>Monad</title>
<ellipse fill="none" stroke="pink" cx="512.38" cy="-330.03" rx="42.49" ry="18"/>
<text text-anchor="middle" x="512.38" y="-326.33" font-family="Times,serif" font-size="14.00">Monad</text>
</g>
<!-- PrintLaTeX&#45;&gt;Monad -->
<g id="edge6" class="edge">
<title>PrintLaTeX&#45;&gt;Monad</title>
<path fill="none" stroke="black" d="M591.54,-488.16C576,-457.12 543.91,-393.02 525.72,-356.69"/>
<polygon fill="black" stroke="black" points="528.81,-355.03 521.2,-347.66 522.55,-358.17 528.81,-355.03"/>
</g>
<!-- Latex -->
<g id="node27" class="node">
<title>Latex</title>
<ellipse fill="none" stroke="#00868b" cx="858.51" cy="-210" rx="36.29" ry="18"/>
<text text-anchor="middle" x="858.51" y="-206.3" font-family="Times,serif" font-size="14.00">Latex</text>
</g>
<!-- Latex&#45;&gt;RenderSpecial -->
<g id="edge9" class="edge">
<title>Latex&#45;&gt;RenderSpecial</title>
<path fill="none" stroke="black" d="M821.68,-210C804.1,-210 782.23,-210 760.68,-210"/>
<polygon fill="black" stroke="black" points="760.49,-206.5 750.49,-210 760.49,-213.5 760.49,-206.5"/>
</g>
<!-- Package -->
<g id="node28" class="node">
<title>Package</title>
<ellipse fill="none" stroke="#00868b" cx="181.47" cy="-210" rx="48.99" ry="18"/>
<text text-anchor="middle" x="181.47" y="-206.3" font-family="Times,serif" font-size="14.00">Package</text>
</g>
<!-- Def -->
<g id="node29" class="node">
<title>Def</title>
<ellipse fill="none" stroke="#00868b" cx="351.47" cy="-570" rx="27" ry="18"/>
<text text-anchor="middle" x="351.47" y="-566.3" font-family="Times,serif" font-size="14.00">Def</text>
</g>
<!-- FieldWrap -->
<g id="node30" class="node">
<title>FieldWrap</title>
<ellipse fill="none" stroke="#00868b" cx="298.47" cy="-450" rx="58.49" ry="18"/>
<text text-anchor="middle" x="298.47" y="-446.3" font-family="Times,serif" font-size="14.00">FieldWrap</text>
</g>
<!-- StyleGuide -->
<g id="node31" class="node">
<title>StyleGuide</title>
<ellipse fill="none" stroke="#00868b" cx="458.47" cy="-462" rx="61.99" ry="18"/>
<text text-anchor="middle" x="458.47" y="-458.3" font-family="Times,serif" font-size="14.00">StyleGuide</text>
</g>
<!-- Format -->
<g id="node32" class="node">
<title>Format</title>
<ellipse fill="none" stroke="#00868b" cx="176.47" cy="-150" rx="44.39" ry="18"/>
<text text-anchor="middle" x="176.47" y="-146.3" font-family="Times,serif" font-size="14.00">Format</text>
</g>
<!-- Semigroup -->
<g id="node38" class="node">
<title>Semigroup</title>
<ellipse fill="none" stroke="pink" cx="446.03" cy="-402" rx="61.99" ry="18"/>
<text text-anchor="middle" x="446.03" y="-398.3" font-family="Times,serif" font-size="14.00">Semigroup</text>
</g>
<!-- Monoid -->
<g id="node39" class="node">
<title>Monoid</title>
<ellipse fill="none" stroke="pink" cx="831.16" cy="-402" rx="45.49" ry="18"/>
<text text-anchor="middle" x="831.16" y="-398.3" font-family="Times,serif" font-size="14.00">Monoid</text>
</g>
<!-- _PrintLaTeX -->
<g id="node40" class="node">
<title>_PrintLaTeX</title>
<ellipse fill="none" stroke="black" cx="646.72" cy="-402" rx="66.89" ry="18"/>
<text text-anchor="middle" x="646.72" y="-398.3" font-family="Times,serif" font-size="14.00">_PrintLaTeX</text>
</g>
<!-- _PrintLaTeX&#45;&gt;Semigroup -->
<g id="edge7" class="edge">
<title>_PrintLaTeX&#45;&gt;Semigroup</title>
<path fill="none" stroke="black" d="M579.61,-402C559.83,-402 538.09,-402 518.01,-402"/>
<polygon fill="black" stroke="black" points="517.99,-398.5 507.99,-402 517.99,-405.5 517.99,-398.5"/>
</g>
<!-- _PrintLaTeX&#45;&gt;Monoid -->
<g id="edge8" class="edge">
<title>_PrintLaTeX&#45;&gt;Monoid</title>
<path fill="none" stroke="black" d="M713.83,-402C734,-402 755.9,-402 775.26,-402"/>
<polygon fill="black" stroke="black" points="775.43,-405.5 785.43,-402 775.43,-398.5 775.43,-405.5"/>
</g>
</g>
</svg>
