<?xml version="1.0" encoding="UTF-8" standalone="no"?>
<!DOCTYPE svg PUBLIC "-//W3C//DTD SVG 1.1//EN"
 "http://www.w3.org/Graphics/SVG/1.1/DTD/svg11.dtd">
<!-- Generated by graphviz version 2.43.0 (0)
 -->
<!-- Title: code_base Pages: 1 -->
<svg width="2973pt" height="116pt"
 viewBox="0.00 0.00 2973.24 116.00" xmlns="http://www.w3.org/2000/svg" xmlns:xlink="http://www.w3.org/1999/xlink">
<g id="graph0" class="graph" transform="scale(1 1) rotate(0) translate(4 112)">
<title>code_base</title>
<polygon fill="white" stroke="transparent" points="-4,4 -4,-112 2969.24,-112 2969.24,4 -4,4"/>
<!-- VarOrFunc -->
<g id="node1" class="node">
<title>VarOrFunc</title>
<ellipse fill="none" stroke="#00868b" cx="159.69" cy="-90" rx="61.19" ry="18"/>
<text text-anchor="middle" x="159.69" y="-86.3" font-family="Times,serif" font-size="14.00">VarOrFunc</text>
</g>
<!-- CodeChunk -->
<g id="node2" class="node">
<title>CodeChunk</title>
<ellipse fill="none" stroke="#00868b" cx="478.69" cy="-90" rx="63.89" ry="18"/>
<text text-anchor="middle" x="478.69" y="-86.3" font-family="Times,serif" font-size="14.00">CodeChunk</text>
</g>
<!-- HasUID -->
<g id="node19" class="node">
<title>HasUID</title>
<ellipse fill="none" stroke="pink" cx="908.69" cy="-18" rx="47.39" ry="18"/>
<text text-anchor="middle" x="908.69" y="-14.3" font-family="Times,serif" font-size="14.00">HasUID</text>
</g>
<!-- CodeChunk&#45;&gt;HasUID -->
<g id="edge1" class="edge">
<title>CodeChunk&#45;&gt;HasUID</title>
<path fill="none" stroke="black" d="M524.88,-77.44C533.74,-75.45 542.98,-73.53 551.69,-72 683.95,-48.74 720.21,-63.29 851.69,-36 855.79,-35.15 860.02,-34.14 864.23,-33.05"/>
<polygon fill="black" stroke="black" points="865.25,-36.4 873.97,-30.38 863.4,-29.65 865.25,-36.4"/>
</g>
<!-- NamedIdea -->
<g id="node20" class="node">
<title>NamedIdea</title>
<ellipse fill="none" stroke="pink" cx="63.69" cy="-18" rx="63.89" ry="18"/>
<text text-anchor="middle" x="63.69" y="-14.3" font-family="Times,serif" font-size="14.00">NamedIdea</text>
</g>
<!-- CodeChunk&#45;&gt;NamedIdea -->
<g id="edge2" class="edge">
<title>CodeChunk&#45;&gt;NamedIdea</title>
<path fill="none" stroke="black" d="M432.49,-77.53C423.63,-75.53 414.4,-73.59 405.69,-72 286.6,-50.25 254.75,-57.94 135.69,-36 130.41,-35.03 124.92,-33.91 119.44,-32.74"/>
<polygon fill="black" stroke="black" points="120.16,-29.31 109.64,-30.57 118.65,-36.15 120.16,-29.31"/>
</g>
<!-- Idea -->
<g id="node21" class="node">
<title>Idea</title>
<ellipse fill="none" stroke="pink" cx="175.69" cy="-18" rx="30.59" ry="18"/>
<text text-anchor="middle" x="175.69" y="-14.3" font-family="Times,serif" font-size="14.00">Idea</text>
</g>
<!-- CodeChunk&#45;&gt;Idea -->
<g id="edge3" class="edge">
<title>CodeChunk&#45;&gt;Idea</title>
<path fill="none" stroke="black" d="M431.64,-77.73C423.02,-75.76 414.1,-73.77 405.69,-72 321.16,-54.2 297.25,-61.42 214.69,-36 212.57,-35.35 210.41,-34.61 208.25,-33.82"/>
<polygon fill="black" stroke="black" points="209.47,-30.54 198.88,-30.12 206.89,-37.05 209.47,-30.54"/>
</g>
<!-- HasSpace -->
<g id="node22" class="node">
<title>HasSpace</title>
<ellipse fill="none" stroke="pink" cx="280.69" cy="-18" rx="56.59" ry="18"/>
<text text-anchor="middle" x="280.69" y="-14.3" font-family="Times,serif" font-size="14.00">HasSpace</text>
</g>
<!-- CodeChunk&#45;&gt;HasSpace -->
<g id="edge4" class="edge">
<title>CodeChunk&#45;&gt;HasSpace</title>
<path fill="none" stroke="black" d="M440.52,-75.5C408.1,-64.04 361.46,-47.55 326.93,-35.35"/>
<polygon fill="black" stroke="black" points="327.68,-31.9 317.08,-31.86 325.34,-38.5 327.68,-31.9"/>
</g>
<!-- HasSymbol -->
<g id="node23" class="node">
<title>HasSymbol</title>
<ellipse fill="none" stroke="pink" cx="418.69" cy="-18" rx="63.89" ry="18"/>
<text text-anchor="middle" x="418.69" y="-14.3" font-family="Times,serif" font-size="14.00">HasSymbol</text>
</g>
<!-- CodeChunk&#45;&gt;HasSymbol -->
<g id="edge5" class="edge">
<title>CodeChunk&#45;&gt;HasSymbol</title>
<path fill="none" stroke="black" d="M464.48,-72.41C457.11,-63.82 447.97,-53.16 439.8,-43.63"/>
<polygon fill="black" stroke="black" points="442.39,-41.27 433.23,-35.96 437.08,-45.83 442.39,-41.27"/>
</g>
<!-- Quantity -->
<g id="node24" class="node">
<title>Quantity</title>
<ellipse fill="none" stroke="pink" cx="551.69" cy="-18" rx="51.19" ry="18"/>
<text text-anchor="middle" x="551.69" y="-14.3" font-family="Times,serif" font-size="14.00">Quantity</text>
</g>
<!-- CodeChunk&#45;&gt;Quantity -->
<g id="edge6" class="edge">
<title>CodeChunk&#45;&gt;Quantity</title>
<path fill="none" stroke="black" d="M495.99,-72.41C505.33,-63.45 517.02,-52.25 527.27,-42.42"/>
<polygon fill="black" stroke="black" points="529.97,-44.68 534.77,-35.23 525.13,-39.62 529.97,-44.68"/>
</g>
<!-- Eq -->
<g id="node25" class="node">
<title>Eq</title>
<ellipse fill="none" stroke="pink" cx="647.69" cy="-18" rx="27" ry="18"/>
<text text-anchor="middle" x="647.69" y="-14.3" font-family="Times,serif" font-size="14.00">Eq</text>
</g>
<!-- CodeChunk&#45;&gt;Eq -->
<g id="edge7" class="edge">
<title>CodeChunk&#45;&gt;Eq</title>
<path fill="none" stroke="black" d="M515.07,-75.2C541.95,-64.84 579.33,-50.08 611.69,-36 613.5,-35.21 615.35,-34.39 617.21,-33.55"/>
<polygon fill="black" stroke="black" points="618.86,-36.65 626.47,-29.29 615.93,-30.29 618.86,-36.65"/>
</g>
<!-- MayHaveUnit -->
<g id="node26" class="node">
<title>MayHaveUnit</title>
<ellipse fill="none" stroke="pink" cx="767.69" cy="-18" rx="75.29" ry="18"/>
<text text-anchor="middle" x="767.69" y="-14.3" font-family="Times,serif" font-size="14.00">MayHaveUnit</text>
</g>
<!-- CodeChunk&#45;&gt;MayHaveUnit -->
<g id="edge8" class="edge">
<title>CodeChunk&#45;&gt;MayHaveUnit</title>
<path fill="none" stroke="black" d="M525.45,-77.68C574.78,-65.73 652.72,-46.85 706.81,-33.75"/>
<polygon fill="black" stroke="black" points="707.73,-37.13 716.62,-31.37 706.08,-30.32 707.73,-37.13"/>
</g>
<!-- CodeVarChunk -->
<g id="node3" class="node">
<title>CodeVarChunk</title>
<ellipse fill="none" stroke="#00868b" cx="317.69" cy="-90" rx="79.09" ry="18"/>
<text text-anchor="middle" x="317.69" y="-86.3" font-family="Times,serif" font-size="14.00">CodeVarChunk</text>
</g>
<!-- CodeVarChunk&#45;&gt;HasUID -->
<g id="edge9" class="edge">
<title>CodeVarChunk&#45;&gt;HasUID</title>
<path fill="none" stroke="black" d="M373.88,-77.19C384.41,-75.25 395.36,-73.41 405.69,-72 602.73,-45.1 656.23,-72.62 851.69,-36 855.86,-35.22 860.16,-34.25 864.44,-33.18"/>
<polygon fill="black" stroke="black" points="865.57,-36.5 874.31,-30.51 863.75,-29.74 865.57,-36.5"/>
</g>
<!-- CodeVarChunk&#45;&gt;NamedIdea -->
<g id="edge10" class="edge">
<title>CodeVarChunk&#45;&gt;NamedIdea</title>
<path fill="none" stroke="black" d="M269.32,-75.67C225.96,-63.72 162.45,-46.22 117.51,-33.83"/>
<polygon fill="black" stroke="black" points="118.21,-30.39 107.64,-31.11 116.35,-37.14 118.21,-30.39"/>
</g>
<!-- CodeVarChunk&#45;&gt;Idea -->
<g id="edge11" class="edge">
<title>CodeVarChunk&#45;&gt;Idea</title>
<path fill="none" stroke="black" d="M286.18,-73.46C262.77,-61.92 230.96,-46.24 207.48,-34.67"/>
<polygon fill="black" stroke="black" points="208.81,-31.42 198.3,-30.14 205.72,-37.7 208.81,-31.42"/>
</g>
<!-- CodeVarChunk&#45;&gt;HasSpace -->
<g id="edge12" class="edge">
<title>CodeVarChunk&#45;&gt;HasSpace</title>
<path fill="none" stroke="black" d="M308.74,-72.05C304.42,-63.89 299.15,-53.91 294.34,-44.82"/>
<polygon fill="black" stroke="black" points="297.34,-42.99 289.57,-35.79 291.15,-46.27 297.34,-42.99"/>
</g>
<!-- CodeVarChunk&#45;&gt;HasSymbol -->
<g id="edge13" class="edge">
<title>CodeVarChunk&#45;&gt;HasSymbol</title>
<path fill="none" stroke="black" d="M341.12,-72.76C354.86,-63.24 372.39,-51.09 387.31,-40.75"/>
<polygon fill="black" stroke="black" points="389.52,-43.48 395.74,-34.91 385.53,-37.73 389.52,-43.48"/>
</g>
<!-- CodeVarChunk&#45;&gt;Quantity -->
<g id="edge14" class="edge">
<title>CodeVarChunk&#45;&gt;Quantity</title>
<path fill="none" stroke="black" d="M363.65,-75.25C404.22,-63.12 463.15,-45.49 504.19,-33.21"/>
<polygon fill="black" stroke="black" points="505.38,-36.51 513.95,-30.29 503.37,-29.8 505.38,-36.51"/>
</g>
<!-- CodeVarChunk&#45;&gt;Eq -->
<g id="edge15" class="edge">
<title>CodeVarChunk&#45;&gt;Eq</title>
<path fill="none" stroke="black" d="M375.89,-77.61C385.83,-75.7 396.05,-73.77 405.69,-72 497.1,-55.18 523.1,-64.1 611.69,-36 613.62,-35.39 615.58,-34.7 617.53,-33.95"/>
<polygon fill="black" stroke="black" points="619.3,-37 627.14,-29.86 616.57,-30.55 619.3,-37"/>
</g>
<!-- CodeVarChunk&#45;&gt;MayHaveUnit -->
<g id="edge16" class="edge">
<title>CodeVarChunk&#45;&gt;MayHaveUnit</title>
<path fill="none" stroke="black" d="M374.88,-77.42C385.12,-75.5 395.71,-73.61 405.69,-72 528.69,-52.17 560.78,-56.37 683.69,-36 690.2,-34.92 696.98,-33.71 703.73,-32.43"/>
<polygon fill="black" stroke="black" points="704.42,-35.87 713.57,-30.54 703.09,-28.99 704.42,-35.87"/>
</g>
<!-- CodeFuncChunk -->
<g id="node4" class="node">
<title>CodeFuncChunk</title>
<ellipse fill="none" stroke="#00868b" cx="647.69" cy="-90" rx="87.18" ry="18"/>
<text text-anchor="middle" x="647.69" y="-86.3" font-family="Times,serif" font-size="14.00">CodeFuncChunk</text>
</g>
<!-- CodeFuncChunk&#45;&gt;HasUID -->
<g id="edge17" class="edge">
<title>CodeFuncChunk&#45;&gt;HasUID</title>
<path fill="none" stroke="black" d="M701.1,-75.68C742.33,-65.26 800.76,-50.21 851.69,-36 855.45,-34.95 859.33,-33.85 863.23,-32.72"/>
<polygon fill="black" stroke="black" points="864.26,-36.06 872.87,-29.9 862.29,-29.35 864.26,-36.06"/>
</g>
<!-- CodeFuncChunk&#45;&gt;NamedIdea -->
<g id="edge18" class="edge">
<title>CodeFuncChunk&#45;&gt;NamedIdea</title>
<path fill="none" stroke="black" d="M586.11,-77.26C574.69,-75.32 562.85,-73.47 551.69,-72 367.7,-47.8 318.93,-65.4 135.69,-36 130.23,-35.12 124.56,-34.06 118.91,-32.9"/>
<polygon fill="black" stroke="black" points="119.33,-29.41 108.82,-30.71 117.85,-36.25 119.33,-29.41"/>
</g>
<!-- CodeFuncChunk&#45;&gt;Idea -->
<g id="edge19" class="edge">
<title>CodeFuncChunk&#45;&gt;Idea</title>
<path fill="none" stroke="black" d="M585.57,-77.35C574.32,-75.43 562.67,-73.56 551.69,-72 402.56,-50.85 360.31,-74.54 214.69,-36 212.41,-35.39 210.08,-34.67 207.76,-33.88"/>
<polygon fill="black" stroke="black" points="208.96,-30.59 198.37,-30.26 206.45,-37.12 208.96,-30.59"/>
</g>
<!-- CodeFuncChunk&#45;&gt;HasSpace -->
<g id="edge20" class="edge">
<title>CodeFuncChunk&#45;&gt;HasSpace</title>
<path fill="none" stroke="black" d="M583.92,-77.69C573.17,-75.78 562.11,-73.83 551.69,-72 460.16,-55.9 436.51,-55.78 345.69,-36 341.28,-35.04 336.71,-33.98 332.14,-32.87"/>
<polygon fill="black" stroke="black" points="332.73,-29.41 322.18,-30.4 331.04,-36.21 332.73,-29.41"/>
</g>
<!-- CodeFuncChunk&#45;&gt;HasSymbol -->
<g id="edge21" class="edge">
<title>CodeFuncChunk&#45;&gt;HasSymbol</title>
<path fill="none" stroke="black" d="M601.08,-74.75C562.98,-63.1 509.19,-46.66 469.9,-34.65"/>
<polygon fill="black" stroke="black" points="470.83,-31.28 460.25,-31.7 468.79,-37.97 470.83,-31.28"/>
</g>
<!-- CodeFuncChunk&#45;&gt;Quantity -->
<g id="edge22" class="edge">
<title>CodeFuncChunk&#45;&gt;Quantity</title>
<path fill="none" stroke="black" d="M624.94,-72.41C611.9,-62.9 595.39,-50.86 581.34,-40.62"/>
<polygon fill="black" stroke="black" points="583.11,-37.57 572.97,-34.51 578.98,-43.23 583.11,-37.57"/>
</g>
<!-- CodeFuncChunk&#45;&gt;Eq -->
<g id="edge24" class="edge">
<title>CodeFuncChunk&#45;&gt;Eq</title>
<path fill="none" stroke="black" d="M647.69,-71.7C647.69,-63.98 647.69,-54.71 647.69,-46.11"/>
<polygon fill="black" stroke="black" points="651.19,-46.1 647.69,-36.1 644.19,-46.1 651.19,-46.1"/>
</g>
<!-- CodeFuncChunk&#45;&gt;MayHaveUnit -->
<g id="edge25" class="edge">
<title>CodeFuncChunk&#45;&gt;MayHaveUnit</title>
<path fill="none" stroke="black" d="M675.53,-72.76C692.15,-63.07 713.46,-50.64 731.4,-40.17"/>
<polygon fill="black" stroke="black" points="733.55,-42.97 740.43,-34.91 730.03,-36.92 733.55,-42.97"/>
</g>
<!-- Callable -->
<g id="node27" class="node">
<title>Callable</title>
<ellipse fill="none" stroke="pink" cx="1022.69" cy="-18" rx="48.19" ry="18"/>
<text text-anchor="middle" x="1022.69" y="-14.3" font-family="Times,serif" font-size="14.00">Callable</text>
</g>
<!-- CodeFuncChunk&#45;&gt;Callable -->
<g id="edge23" class="edge">
<title>CodeFuncChunk&#45;&gt;Callable</title>
<path fill="none" stroke="black" d="M711.19,-77.63C722.03,-75.72 733.18,-73.79 743.69,-72 841.8,-55.32 867.65,-58.04 964.69,-36 968.78,-35.07 973,-34.02 977.22,-32.9"/>
<polygon fill="black" stroke="black" points="978.27,-36.25 986.99,-30.22 976.42,-29.5 978.27,-36.25"/>
</g>
<!-- ArithBinOp -->
<g id="node5" class="node">
<title>ArithBinOp</title>
<ellipse fill="none" stroke="#00868b" cx="815.69" cy="-90" rx="63.09" ry="18"/>
<text text-anchor="middle" x="815.69" y="-86.3" font-family="Times,serif" font-size="14.00">ArithBinOp</text>
</g>
<!-- EqBinOp -->
<g id="node6" class="node">
<title>EqBinOp</title>
<ellipse fill="none" stroke="#00868b" cx="948.69" cy="-90" rx="51.99" ry="18"/>
<text text-anchor="middle" x="948.69" y="-86.3" font-family="Times,serif" font-size="14.00">EqBinOp</text>
</g>
<!-- BoolBinOp -->
<g id="node7" class="node">
<title>BoolBinOp</title>
<ellipse fill="none" stroke="#00868b" cx="1078.69" cy="-90" rx="59.59" ry="18"/>
<text text-anchor="middle" x="1078.69" y="-86.3" font-family="Times,serif" font-size="14.00">BoolBinOp</text>
</g>
<!-- LABinOp -->
<g id="node8" class="node">
<title>LABinOp</title>
<ellipse fill="none" stroke="#00868b" cx="1208.69" cy="-90" rx="51.99" ry="18"/>
<text text-anchor="middle" x="1208.69" y="-86.3" font-family="Times,serif" font-size="14.00">LABinOp</text>
</g>
<!-- OrdBinOp -->
<g id="node9" class="node">
<title>OrdBinOp</title>
<ellipse fill="none" stroke="#00868b" cx="1335.69" cy="-90" rx="57.39" ry="18"/>
<text text-anchor="middle" x="1335.69" y="-86.3" font-family="Times,serif" font-size="14.00">OrdBinOp</text>
</g>
<!-- VVVBinOp -->
<g id="node10" class="node">
<title>VVVBinOp</title>
<ellipse fill="none" stroke="#00868b" cx="1469.69" cy="-90" rx="58.49" ry="18"/>
<text text-anchor="middle" x="1469.69" y="-86.3" font-family="Times,serif" font-size="14.00">VVVBinOp</text>
</g>
<!-- VVNBinOp -->
<g id="node11" class="node">
<title>VVNBinOp</title>
<ellipse fill="none" stroke="#00868b" cx="1605.69" cy="-90" rx="59.59" ry="18"/>
<text text-anchor="middle" x="1605.69" y="-86.3" font-family="Times,serif" font-size="14.00">VVNBinOp</text>
</g>
<!-- AssocArithOper -->
<g id="node12" class="node">
<title>AssocArithOper</title>
<ellipse fill="none" stroke="#00868b" cx="1766.69" cy="-90" rx="83.39" ry="18"/>
<text text-anchor="middle" x="1766.69" y="-86.3" font-family="Times,serif" font-size="14.00">AssocArithOper</text>
</g>
<!-- AssocBoolOper -->
<g id="node13" class="node">
<title>AssocBoolOper</title>
<ellipse fill="none" stroke="#00868b" cx="1948.69" cy="-90" rx="80.69" ry="18"/>
<text text-anchor="middle" x="1948.69" y="-86.3" font-family="Times,serif" font-size="14.00">AssocBoolOper</text>
</g>
<!-- UFunc -->
<g id="node14" class="node">
<title>UFunc</title>
<ellipse fill="none" stroke="#00868b" cx="2088.69" cy="-90" rx="41.69" ry="18"/>
<text text-anchor="middle" x="2088.69" y="-86.3" font-family="Times,serif" font-size="14.00">UFunc</text>
</g>
<!-- UFuncB -->
<g id="node15" class="node">
<title>UFuncB</title>
<ellipse fill="none" stroke="#00868b" cx="2196.69" cy="-90" rx="48.19" ry="18"/>
<text text-anchor="middle" x="2196.69" y="-86.3" font-family="Times,serif" font-size="14.00">UFuncB</text>
</g>
<!-- UFuncVV -->
<g id="node16" class="node">
<title>UFuncVV</title>
<ellipse fill="none" stroke="#00868b" cx="2316.69" cy="-90" rx="53.89" ry="18"/>
<text text-anchor="middle" x="2316.69" y="-86.3" font-family="Times,serif" font-size="14.00">UFuncVV</text>
</g>
<!-- UFuncVN -->
<g id="node17" class="node">
<title>UFuncVN</title>
<ellipse fill="none" stroke="#00868b" cx="2444.69" cy="-90" rx="55.79" ry="18"/>
<text text-anchor="middle" x="2444.69" y="-86.3" font-family="Times,serif" font-size="14.00">UFuncVN</text>
</g>
<!-- CodeExpr -->
<g id="node18" class="node">
<title>CodeExpr</title>
<ellipse fill="none" stroke="#00868b" cx="2574.69" cy="-90" rx="56.59" ry="18"/>
<text text-anchor="middle" x="2574.69" y="-86.3" font-family="Times,serif" font-size="14.00">CodeExpr</text>
</g>
<!-- CodeIdea -->
<g id="node28" class="node">
<title>CodeIdea</title>
<ellipse fill="none" stroke="magenta" cx="2702.69" cy="-90" rx="53.89" ry="18"/>
<text text-anchor="middle" x="2702.69" y="-86.3" font-family="Times,serif" font-size="14.00">CodeIdea</text>
</g>
<!-- DefiningCodeExpr -->
<g id="node29" class="node">
<title>DefiningCodeExpr</title>
<ellipse fill="none" stroke="magenta" cx="2869.69" cy="-90" rx="95.58" ry="18"/>
<text text-anchor="middle" x="2869.69" y="-86.3" font-family="Times,serif" font-size="14.00">DefiningCodeExpr</text>
</g>
</g>
</svg>
