<?xml version="1.0" encoding="UTF-8" standalone="no"?>
<!DOCTYPE svg PUBLIC "-//W3C//DTD SVG 1.1//EN"
 "http://www.w3.org/Graphics/SVG/1.1/DTD/svg11.dtd">
<!-- Generated by graphviz version 2.43.0 (0)
 -->
<!-- Title: database Pages: 1 -->
<svg width="697pt" height="116pt"
 viewBox="0.00 0.00 697.40 116.00" xmlns="http://www.w3.org/2000/svg" xmlns:xlink="http://www.w3.org/1999/xlink">
<g id="graph0" class="graph" transform="scale(1 1) rotate(0) translate(4 112)">
<title>database</title>
<polygon fill="white" stroke="transparent" points="-4,4 -4,-112 693.4,-112 693.4,4 -4,4"/>
<!-- Chunk -->
<g id="node1" class="node">
<title>Chunk</title>
<ellipse fill="none" stroke="#00868b" cx="119" cy="-90" rx="40.09" ry="18"/>
<text text-anchor="middle" x="119" y="-86.3" font-family="Times,serif" font-size="14.00">Chunk</text>
</g>
<!-- Eq -->
<g id="node5" class="node">
<title>Eq</title>
<ellipse fill="none" stroke="pink" cx="27" cy="-18" rx="27" ry="18"/>
<text text-anchor="middle" x="27" y="-14.3" font-family="Times,serif" font-size="14.00">Eq</text>
</g>
<!-- Chunk&#45;&gt;Eq -->
<g id="edge1" class="edge">
<title>Chunk&#45;&gt;Eq</title>
<path fill="none" stroke="black" d="M99.49,-74.15C85.82,-63.75 67.42,-49.75 52.58,-38.46"/>
<polygon fill="black" stroke="black" points="54.39,-35.44 44.31,-32.17 50.15,-41.01 54.39,-35.44"/>
</g>
<!-- HasUID -->
<g id="node6" class="node">
<title>HasUID</title>
<ellipse fill="none" stroke="magenta" cx="119" cy="-18" rx="47.39" ry="18"/>
<text text-anchor="middle" x="119" y="-14.3" font-family="Times,serif" font-size="14.00">HasUID</text>
</g>
<!-- Chunk&#45;&gt;HasUID -->
<g id="edge2" class="edge">
<title>Chunk&#45;&gt;HasUID</title>
<path fill="none" stroke="black" d="M119,-71.7C119,-63.98 119,-54.71 119,-46.11"/>
<polygon fill="black" stroke="black" points="122.5,-46.1 119,-36.1 115.5,-46.1 122.5,-46.1"/>
</g>
<!-- HasChunkRefs -->
<g id="node10" class="node">
<title>HasChunkRefs</title>
<ellipse fill="none" stroke="magenta" cx="264" cy="-18" rx="79.09" ry="18"/>
<text text-anchor="middle" x="264" y="-14.3" font-family="Times,serif" font-size="14.00">HasChunkRefs</text>
</g>
<!-- Chunk&#45;&gt;HasChunkRefs -->
<g id="edge3" class="edge">
<title>Chunk&#45;&gt;HasChunkRefs</title>
<path fill="none" stroke="black" d="M145.26,-76.32C166.82,-65.91 197.76,-50.98 222.64,-38.96"/>
<polygon fill="black" stroke="black" points="224.37,-42.02 231.85,-34.52 221.33,-35.71 224.37,-42.02"/>
</g>
<!-- ChunkDB -->
<g id="node2" class="node">
<title>ChunkDB</title>
<ellipse fill="none" stroke="#00868b" cx="241" cy="-90" rx="54.69" ry="18"/>
<text text-anchor="middle" x="241" y="-86.3" font-family="Times,serif" font-size="14.00">ChunkDB</text>
</g>
<!-- TypedUIDRef -->
<g id="node3" class="node">
<title>TypedUIDRef</title>
<ellipse fill="none" stroke="#00868b" cx="405" cy="-90" rx="73.39" ry="18"/>
<text text-anchor="middle" x="405" y="-86.3" font-family="Times,serif" font-size="14.00">TypedUIDRef</text>
</g>
<!-- UID -->
<g id="node4" class="node">
<title>UID</title>
<ellipse fill="none" stroke="#00868b" cx="535" cy="-90" rx="29.5" ry="18"/>
<text text-anchor="middle" x="535" y="-86.3" font-family="Times,serif" font-size="14.00">UID</text>
</g>
<!-- ToJSON -->
<g id="node7" class="node">
<title>ToJSON</title>
<ellipse fill="none" stroke="pink" cx="407" cy="-18" rx="46.29" ry="18"/>
<text text-anchor="middle" x="407" y="-14.3" font-family="Times,serif" font-size="14.00">ToJSON</text>
</g>
<!-- UID&#45;&gt;ToJSON -->
<g id="edge4" class="edge">
<title>UID&#45;&gt;ToJSON</title>
<path fill="none" stroke="black" d="M513.86,-77.44C494.18,-66.68 464.49,-50.44 441.39,-37.81"/>
<polygon fill="black" stroke="black" points="443.03,-34.72 432.58,-32.99 439.68,-40.86 443.03,-34.72"/>
</g>
<!-- ToJSONKey -->
<g id="node8" class="node">
<title>ToJSONKey</title>
<ellipse fill="none" stroke="pink" cx="535" cy="-18" rx="63.89" ry="18"/>
<text text-anchor="middle" x="535" y="-14.3" font-family="Times,serif" font-size="14.00">ToJSONKey</text>
</g>
<!-- UID&#45;&gt;ToJSONKey -->
<g id="edge5" class="edge">
<title>UID&#45;&gt;ToJSONKey</title>
<path fill="none" stroke="black" d="M535,-71.7C535,-63.98 535,-54.71 535,-46.11"/>
<polygon fill="black" stroke="black" points="538.5,-46.1 535,-36.1 531.5,-46.1 538.5,-46.1"/>
</g>
<!-- Show -->
<g id="node9" class="node">
<title>Show</title>
<ellipse fill="none" stroke="pink" cx="653" cy="-18" rx="36.29" ry="18"/>
<text text-anchor="middle" x="653" y="-14.3" font-family="Times,serif" font-size="14.00">Show</text>
</g>
<!-- UID&#45;&gt;Show -->
<g id="edge6" class="edge">
<title>UID&#45;&gt;Show</title>
<path fill="none" stroke="black" d="M555.28,-76.97C573.62,-66.09 600.89,-49.91 621.96,-37.41"/>
<polygon fill="black" stroke="black" points="623.75,-40.42 630.57,-32.31 620.18,-34.4 623.75,-40.42"/>
</g>
</g>
</svg>
