<?xml version="1.0" encoding="UTF-8" standalone="no"?>
<!DOCTYPE svg PUBLIC "-//W3C//DTD SVG 1.1//EN"
 "http://www.w3.org/Graphics/SVG/1.1/DTD/svg11.dtd">
<!-- Generated by graphviz version 2.43.0 (0)
 -->
<!-- Title: docLang Pages: 1 -->
<svg width="5699pt" height="116pt"
 viewBox="0.00 0.00 5698.69 116.00" xmlns="http://www.w3.org/2000/svg" xmlns:xlink="http://www.w3.org/1999/xlink">
<g id="graph0" class="graph" transform="scale(1 1) rotate(0) translate(4 112)">
<title>docLang</title>
<polygon fill="white" stroke="transparent" points="-4,4 -4,-112 5694.69,-112 5694.69,4 -4,4"/>
<!-- LsnChapter -->
<g id="node1" class="node">
<title>LsnChapter</title>
<ellipse fill="none" stroke="#00868b" cx="64.99" cy="-90" rx="64.99" ry="18"/>
<text text-anchor="middle" x="64.99" y="-86.3" font-family="Times,serif" font-size="14.00">LsnChapter</text>
</g>
<!-- DLPlate -->
<g id="node2" class="node">
<title>DLPlate</title>
<ellipse fill="none" stroke="#00868b" cx="195.99" cy="-90" rx="48.19" ry="18"/>
<text text-anchor="middle" x="195.99" y="-86.3" font-family="Times,serif" font-size="14.00">DLPlate</text>
</g>
<!-- Multiplate -->
<g id="node45" class="node">
<title>Multiplate</title>
<ellipse fill="none" stroke="pink" cx="195.99" cy="-18" rx="59.29" ry="18"/>
<text text-anchor="middle" x="195.99" y="-14.3" font-family="Times,serif" font-size="14.00">Multiplate</text>
</g>
<!-- DLPlate&#45;&gt;Multiplate -->
<g id="edge1" class="edge">
<title>DLPlate&#45;&gt;Multiplate</title>
<path fill="none" stroke="black" d="M190.12,-72.05C189.3,-64.35 189.06,-55.03 189.39,-46.36"/>
<polygon fill="black" stroke="black" points="192.89,-46.49 190.08,-36.28 185.9,-46.01 192.89,-46.49"/>
</g>
<!-- DLPlate&#45;&gt;Multiplate -->
<g id="edge3" class="edge">
<title>DLPlate&#45;&gt;Multiplate</title>
<path fill="none" stroke="black" d="M201.87,-72.05C202.69,-64.35 202.93,-55.03 202.6,-46.36"/>
<polygon fill="black" stroke="black" points="206.08,-46.01 201.91,-36.28 199.1,-46.49 206.08,-46.01"/>
</g>
<!-- Intro -->
<g id="node3" class="node">
<title>Intro</title>
<ellipse fill="none" stroke="#00868b" cx="295.99" cy="-90" rx="33.6" ry="18"/>
<text text-anchor="middle" x="295.99" y="-86.3" font-family="Times,serif" font-size="14.00">Intro</text>
</g>
<!-- LearnObj -->
<g id="node4" class="node">
<title>LearnObj</title>
<ellipse fill="none" stroke="#00868b" cx="401.99" cy="-90" rx="53.89" ry="18"/>
<text text-anchor="middle" x="401.99" y="-86.3" font-family="Times,serif" font-size="14.00">LearnObj</text>
</g>
<!-- Review -->
<g id="node5" class="node">
<title>Review</title>
<ellipse fill="none" stroke="#00868b" cx="517.99" cy="-90" rx="44.39" ry="18"/>
<text text-anchor="middle" x="517.99" y="-86.3" font-family="Times,serif" font-size="14.00">Review</text>
</g>
<!-- CaseProb -->
<g id="node6" class="node">
<title>CaseProb</title>
<ellipse fill="none" stroke="#00868b" cx="634.99" cy="-90" rx="55.49" ry="18"/>
<text text-anchor="middle" x="634.99" y="-86.3" font-family="Times,serif" font-size="14.00">CaseProb</text>
</g>
<!-- Example -->
<g id="node7" class="node">
<title>Example</title>
<ellipse fill="none" stroke="#00868b" cx="759.99" cy="-90" rx="51.19" ry="18"/>
<text text-anchor="middle" x="759.99" y="-86.3" font-family="Times,serif" font-size="14.00">Example</text>
</g>
<!-- Smmry -->
<g id="node8" class="node">
<title>Smmry</title>
<ellipse fill="none" stroke="#00868b" cx="873.99" cy="-90" rx="44.39" ry="18"/>
<text text-anchor="middle" x="873.99" y="-86.3" font-family="Times,serif" font-size="14.00">Smmry</text>
</g>
<!-- Apndx -->
<g id="node9" class="node">
<title>Apndx</title>
<ellipse fill="none" stroke="#00868b" cx="975.99" cy="-90" rx="40.09" ry="18"/>
<text text-anchor="middle" x="975.99" y="-86.3" font-family="Times,serif" font-size="14.00">Apndx</text>
</g>
<!-- DocSection -->
<g id="node10" class="node">
<title>DocSection</title>
<ellipse fill="none" stroke="#00868b" cx="1096.99" cy="-90" rx="63.09" ry="18"/>
<text text-anchor="middle" x="1096.99" y="-86.3" font-family="Times,serif" font-size="14.00">DocSection</text>
</g>
<!-- RefSec -->
<g id="node11" class="node">
<title>RefSec</title>
<ellipse fill="none" stroke="#00868b" cx="1220.99" cy="-90" rx="42.79" ry="18"/>
<text text-anchor="middle" x="1220.99" y="-86.3" font-family="Times,serif" font-size="14.00">RefSec</text>
</g>
<!-- RefTab -->
<g id="node12" class="node">
<title>RefTab</title>
<ellipse fill="none" stroke="#00868b" cx="1324.99" cy="-90" rx="42.79" ry="18"/>
<text text-anchor="middle" x="1324.99" y="-86.3" font-family="Times,serif" font-size="14.00">RefTab</text>
</g>
<!-- TSIntro -->
<g id="node13" class="node">
<title>TSIntro</title>
<ellipse fill="none" stroke="#00868b" cx="1431.99" cy="-90" rx="46.29" ry="18"/>
<text text-anchor="middle" x="1431.99" y="-86.3" font-family="Times,serif" font-size="14.00">TSIntro</text>
</g>
<!-- TConvention -->
<g id="node14" class="node">
<title>TConvention</title>
<ellipse fill="none" stroke="#00868b" cx="1565.99" cy="-90" rx="69.59" ry="18"/>
<text text-anchor="middle" x="1565.99" y="-86.3" font-family="Times,serif" font-size="14.00">TConvention</text>
</g>
<!-- Emphasis -->
<g id="node15" class="node">
<title>Emphasis</title>
<ellipse fill="none" stroke="#00868b" cx="1708.99" cy="-90" rx="55.79" ry="18"/>
<text text-anchor="middle" x="1708.99" y="-86.3" font-family="Times,serif" font-size="14.00">Emphasis</text>
</g>
<!-- Show -->
<g id="node46" class="node">
<title>Show</title>
<ellipse fill="none" stroke="pink" cx="1762.99" cy="-18" rx="36.29" ry="18"/>
<text text-anchor="middle" x="1762.99" y="-14.3" font-family="Times,serif" font-size="14.00">Show</text>
</g>
<!-- Emphasis&#45;&gt;Show -->
<g id="edge2" class="edge">
<title>Emphasis&#45;&gt;Show</title>
<path fill="none" stroke="black" d="M1721.79,-72.41C1728.55,-63.66 1736.96,-52.75 1744.42,-43.08"/>
<polygon fill="black" stroke="black" points="1747.32,-45.04 1750.66,-34.99 1741.78,-40.77 1747.32,-45.04"/>
</g>
<!-- Literature -->
<g id="node16" class="node">
<title>Literature</title>
<ellipse fill="none" stroke="#00868b" cx="1926.99" cy="-90" rx="57.69" ry="18"/>
<text text-anchor="middle" x="1926.99" y="-86.3" font-family="Times,serif" font-size="14.00">Literature</text>
</g>
<!-- TUIntro -->
<g id="node17" class="node">
<title>TUIntro</title>
<ellipse fill="none" stroke="#00868b" cx="2049.99" cy="-90" rx="47.39" ry="18"/>
<text text-anchor="middle" x="2049.99" y="-86.3" font-family="Times,serif" font-size="14.00">TUIntro</text>
</g>
<!-- LFunc -->
<g id="node18" class="node">
<title>LFunc</title>
<ellipse fill="none" stroke="#00868b" cx="2154.99" cy="-90" rx="39.79" ry="18"/>
<text text-anchor="middle" x="2154.99" y="-86.3" font-family="Times,serif" font-size="14.00">LFunc</text>
</g>
<!-- IntroSec -->
<g id="node19" class="node">
<title>IntroSec</title>
<ellipse fill="none" stroke="#00868b" cx="2262.99" cy="-90" rx="50.09" ry="18"/>
<text text-anchor="middle" x="2262.99" y="-86.3" font-family="Times,serif" font-size="14.00">IntroSec</text>
</g>
<!-- IntroSub -->
<g id="node20" class="node">
<title>IntroSub</title>
<ellipse fill="none" stroke="#00868b" cx="2382.99" cy="-90" rx="51.99" ry="18"/>
<text text-anchor="middle" x="2382.99" y="-86.3" font-family="Times,serif" font-size="14.00">IntroSub</text>
</g>
<!-- StkhldrSub -->
<g id="node21" class="node">
<title>StkhldrSub</title>
<ellipse fill="none" stroke="#00868b" cx="2516.99" cy="-90" rx="63.89" ry="18"/>
<text text-anchor="middle" x="2516.99" y="-86.3" font-family="Times,serif" font-size="14.00">StkhldrSub</text>
</g>
<!-- GSDSub -->
<g id="node22" class="node">
<title>GSDSub</title>
<ellipse fill="none" stroke="#00868b" cx="2648.99" cy="-90" rx="50.09" ry="18"/>
<text text-anchor="middle" x="2648.99" y="-86.3" font-family="Times,serif" font-size="14.00">GSDSub</text>
</g>
<!-- SSDSub -->
<g id="node23" class="node">
<title>SSDSub</title>
<ellipse fill="none" stroke="#00868b" cx="2764.99" cy="-90" rx="48.19" ry="18"/>
<text text-anchor="middle" x="2764.99" y="-86.3" font-family="Times,serif" font-size="14.00">SSDSub</text>
</g>
<!-- ProblemDescription -->
<g id="node24" class="node">
<title>ProblemDescription</title>
<ellipse fill="none" stroke="#00868b" cx="2933.99" cy="-90" rx="103.18" ry="18"/>
<text text-anchor="middle" x="2933.99" y="-86.3" font-family="Times,serif" font-size="14.00">ProblemDescription</text>
</g>
<!-- PDSub -->
<g id="node25" class="node">
<title>PDSub</title>
<ellipse fill="none" stroke="#00868b" cx="3097.99" cy="-90" rx="42.49" ry="18"/>
<text text-anchor="middle" x="3097.99" y="-86.3" font-family="Times,serif" font-size="14.00">PDSub</text>
</g>
<!-- SolChSpec -->
<g id="node26" class="node">
<title>SolChSpec</title>
<ellipse fill="none" stroke="#00868b" cx="3218.99" cy="-90" rx="60.39" ry="18"/>
<text text-anchor="middle" x="3218.99" y="-86.3" font-family="Times,serif" font-size="14.00">SolChSpec</text>
</g>
<!-- SCSSub -->
<g id="node27" class="node">
<title>SCSSub</title>
<ellipse fill="none" stroke="#00868b" cx="3345.99" cy="-90" rx="48.19" ry="18"/>
<text text-anchor="middle" x="3345.99" y="-86.3" font-family="Times,serif" font-size="14.00">SCSSub</text>
</g>
<!-- DerivationDisplay -->
<g id="node28" class="node">
<title>DerivationDisplay</title>
<ellipse fill="none" stroke="#00868b" cx="3505.99" cy="-90" rx="94.48" ry="18"/>
<text text-anchor="middle" x="3505.99" y="-86.3" font-family="Times,serif" font-size="14.00">DerivationDisplay</text>
</g>
<!-- ReqsSub -->
<g id="node29" class="node">
<title>ReqsSub</title>
<ellipse fill="none" stroke="#00868b" cx="3669.99" cy="-90" rx="51.99" ry="18"/>
<text text-anchor="middle" x="3669.99" y="-86.3" font-family="Times,serif" font-size="14.00">ReqsSub</text>
</g>
<!-- TraceConfig -->
<g id="node30" class="node">
<title>TraceConfig</title>
<ellipse fill="none" stroke="#00868b" cx="3805.99" cy="-90" rx="66.09" ry="18"/>
<text text-anchor="middle" x="3805.99" y="-86.3" font-family="Times,serif" font-size="14.00">TraceConfig</text>
</g>
<!-- AuxConstntSec -->
<g id="node31" class="node">
<title>AuxConstntSec</title>
<ellipse fill="none" stroke="#00868b" cx="3971.99" cy="-90" rx="81.49" ry="18"/>
<text text-anchor="middle" x="3971.99" y="-86.3" font-family="Times,serif" font-size="14.00">AuxConstntSec</text>
</g>
<!-- StkhldrSec -->
<g id="node32" class="node">
<title>StkhldrSec</title>
<ellipse fill="none" stroke="#00868b" cx="4132.99" cy="-90" rx="61.99" ry="18"/>
<text text-anchor="middle" x="4132.99" y="-86.3" font-family="Times,serif" font-size="14.00">StkhldrSec</text>
</g>
<!-- GSDSec -->
<g id="node33" class="node">
<title>GSDSec</title>
<ellipse fill="none" stroke="#00868b" cx="4260.99" cy="-90" rx="48.19" ry="18"/>
<text text-anchor="middle" x="4260.99" y="-86.3" font-family="Times,serif" font-size="14.00">GSDSec</text>
</g>
<!-- SSDSec -->
<g id="node34" class="node">
<title>SSDSec</title>
<ellipse fill="none" stroke="#00868b" cx="4373.99" cy="-90" rx="46.59" ry="18"/>
<text text-anchor="middle" x="4373.99" y="-86.3" font-family="Times,serif" font-size="14.00">SSDSec</text>
</g>
<!-- ReqrmntSec -->
<g id="node35" class="node">
<title>ReqrmntSec</title>
<ellipse fill="none" stroke="#00868b" cx="4506.99" cy="-90" rx="68.49" ry="18"/>
<text text-anchor="middle" x="4506.99" y="-86.3" font-family="Times,serif" font-size="14.00">ReqrmntSec</text>
</g>
<!-- LCsSec -->
<g id="node36" class="node">
<title>LCsSec</title>
<ellipse fill="none" stroke="#00868b" cx="4637.99" cy="-90" rx="44.69" ry="18"/>
<text text-anchor="middle" x="4637.99" y="-86.3" font-family="Times,serif" font-size="14.00">LCsSec</text>
</g>
<!-- UCsSec -->
<g id="node37" class="node">
<title>UCsSec</title>
<ellipse fill="none" stroke="#00868b" cx="4747.99" cy="-90" rx="46.59" ry="18"/>
<text text-anchor="middle" x="4747.99" y="-86.3" font-family="Times,serif" font-size="14.00">UCsSec</text>
</g>
<!-- TraceabilitySec -->
<g id="node38" class="node">
<title>TraceabilitySec</title>
<ellipse fill="none" stroke="#00868b" cx="4894.99" cy="-90" rx="82.59" ry="18"/>
<text text-anchor="middle" x="4894.99" y="-86.3" font-family="Times,serif" font-size="14.00">TraceabilitySec</text>
</g>
<!-- OffShelfSolnsSec -->
<g id="node39" class="node">
<title>OffShelfSolnsSec</title>
<ellipse fill="none" stroke="#00868b" cx="5085.99" cy="-90" rx="90.18" ry="18"/>
<text text-anchor="middle" x="5085.99" y="-86.3" font-family="Times,serif" font-size="14.00">OffShelfSolnsSec</text>
</g>
<!-- AppndxSec -->
<g id="node40" class="node">
<title>AppndxSec</title>
<ellipse fill="none" stroke="#00868b" cx="5256.99" cy="-90" rx="62.29" ry="18"/>
<text text-anchor="middle" x="5256.99" y="-86.3" font-family="Times,serif" font-size="14.00">AppndxSec</text>
</g>
<!-- Field -->
<g id="node41" class="node">
<title>Field</title>
<ellipse fill="none" stroke="#00868b" cx="1816.99" cy="-90" rx="34.39" ry="18"/>
<text text-anchor="middle" x="1816.99" y="-86.3" font-family="Times,serif" font-size="14.00">Field</text>
</g>
<!-- Field&#45;&gt;Show -->
<g id="edge4" class="edge">
<title>Field&#45;&gt;Show</title>
<path fill="none" stroke="black" d="M1804.74,-73.12C1797.93,-64.29 1789.32,-53.13 1781.69,-43.24"/>
<polygon fill="black" stroke="black" points="1784.45,-41.09 1775.57,-35.31 1778.91,-45.36 1784.45,-41.09"/>
</g>
<!-- Verbosity -->
<g id="node42" class="node">
<title>Verbosity</title>
<ellipse fill="none" stroke="#00868b" cx="5391.99" cy="-90" rx="54.69" ry="18"/>
<text text-anchor="middle" x="5391.99" y="-86.3" font-family="Times,serif" font-size="14.00">Verbosity</text>
</g>
<!-- InclUnits -->
<g id="node43" class="node">
<title>InclUnits</title>
<ellipse fill="none" stroke="#00868b" cx="5517.99" cy="-90" rx="53.09" ry="18"/>
<text text-anchor="middle" x="5517.99" y="-86.3" font-family="Times,serif" font-size="14.00">InclUnits</text>
</g>
<!-- Plurality -->
<g id="node44" class="node">
<title>Plurality</title>
<ellipse fill="none" stroke="#00868b" cx="5639.99" cy="-90" rx="50.89" ry="18"/>
<text text-anchor="middle" x="5639.99" y="-86.3" font-family="Times,serif" font-size="14.00">Plurality</text>
</g>
</g>
</svg>
