<?xml version="1.0" encoding="UTF-8" standalone="no"?>
<!DOCTYPE svg PUBLIC "-//W3C//DTD SVG 1.1//EN"
 "http://www.w3.org/Graphics/SVG/1.1/DTD/svg11.dtd">
<!-- Generated by graphviz version 2.43.0 (0)
 -->
<!-- Title: docLang Pages: 1 -->
<svg width="4785pt" height="116pt"
 viewBox="0.00 0.00 4784.99 116.00" xmlns="http://www.w3.org/2000/svg" xmlns:xlink="http://www.w3.org/1999/xlink">
<g id="graph0" class="graph" transform="scale(1 1) rotate(0) translate(4 112)">
<title>docLang</title>
<polygon fill="white" stroke="transparent" points="-4,4 -4,-112 4780.99,-112 4780.99,4 -4,4"/>
<!-- DocSection -->
<g id="node1" class="node">
<title>DocSection</title>
<ellipse fill="none" stroke="#00868b" cx="63.04" cy="-90" rx="63.09" ry="18"/>
<text text-anchor="middle" x="63.04" y="-86.3" font-family="Times,serif" font-size="14.00">DocSection</text>
</g>
<!-- RefSec -->
<g id="node2" class="node">
<title>RefSec</title>
<ellipse fill="none" stroke="#00868b" cx="187.04" cy="-90" rx="42.79" ry="18"/>
<text text-anchor="middle" x="187.04" y="-86.3" font-family="Times,serif" font-size="14.00">RefSec</text>
</g>
<!-- RefTab -->
<g id="node3" class="node">
<title>RefTab</title>
<ellipse fill="none" stroke="#00868b" cx="291.04" cy="-90" rx="42.79" ry="18"/>
<text text-anchor="middle" x="291.04" y="-86.3" font-family="Times,serif" font-size="14.00">RefTab</text>
</g>
<!-- TSIntro -->
<g id="node4" class="node">
<title>TSIntro</title>
<ellipse fill="none" stroke="#00868b" cx="398.04" cy="-90" rx="46.29" ry="18"/>
<text text-anchor="middle" x="398.04" y="-86.3" font-family="Times,serif" font-size="14.00">TSIntro</text>
</g>
<!-- TConvention -->
<g id="node5" class="node">
<title>TConvention</title>
<ellipse fill="none" stroke="#00868b" cx="532.04" cy="-90" rx="69.59" ry="18"/>
<text text-anchor="middle" x="532.04" y="-86.3" font-family="Times,serif" font-size="14.00">TConvention</text>
</g>
<!-- Emphasis -->
<g id="node6" class="node">
<title>Emphasis</title>
<ellipse fill="none" stroke="#00868b" cx="675.04" cy="-90" rx="55.79" ry="18"/>
<text text-anchor="middle" x="675.04" y="-86.3" font-family="Times,serif" font-size="14.00">Emphasis</text>
</g>
<!-- Show -->
<g id="node37" class="node">
<title>Show</title>
<ellipse fill="none" stroke="pink" cx="729.04" cy="-18" rx="36.29" ry="18"/>
<text text-anchor="middle" x="729.04" y="-14.3" font-family="Times,serif" font-size="14.00">Show</text>
</g>
<!-- Emphasis&#45;&gt;Show -->
<g id="edge1" class="edge">
<title>Emphasis&#45;&gt;Show</title>
<path fill="none" stroke="black" d="M687.84,-72.41C694.6,-63.66 703.01,-52.75 710.47,-43.08"/>
<polygon fill="black" stroke="black" points="713.37,-45.04 716.71,-34.99 707.83,-40.77 713.37,-45.04"/>
</g>
<!-- Literature -->
<g id="node7" class="node">
<title>Literature</title>
<ellipse fill="none" stroke="#00868b" cx="893.04" cy="-90" rx="57.69" ry="18"/>
<text text-anchor="middle" x="893.04" y="-86.3" font-family="Times,serif" font-size="14.00">Literature</text>
</g>
<!-- TUIntro -->
<g id="node8" class="node">
<title>TUIntro</title>
<ellipse fill="none" stroke="#00868b" cx="1016.04" cy="-90" rx="47.39" ry="18"/>
<text text-anchor="middle" x="1016.04" y="-86.3" font-family="Times,serif" font-size="14.00">TUIntro</text>
</g>
<!-- LFunc -->
<g id="node9" class="node">
<title>LFunc</title>
<ellipse fill="none" stroke="#00868b" cx="1121.04" cy="-90" rx="39.79" ry="18"/>
<text text-anchor="middle" x="1121.04" y="-86.3" font-family="Times,serif" font-size="14.00">LFunc</text>
</g>
<!-- IntroSec -->
<g id="node10" class="node">
<title>IntroSec</title>
<ellipse fill="none" stroke="#00868b" cx="1229.04" cy="-90" rx="50.09" ry="18"/>
<text text-anchor="middle" x="1229.04" y="-86.3" font-family="Times,serif" font-size="14.00">IntroSec</text>
</g>
<!-- IntroSub -->
<g id="node11" class="node">
<title>IntroSub</title>
<ellipse fill="none" stroke="#00868b" cx="1349.04" cy="-90" rx="51.99" ry="18"/>
<text text-anchor="middle" x="1349.04" y="-86.3" font-family="Times,serif" font-size="14.00">IntroSub</text>
</g>
<!-- StkhldrSub -->
<g id="node12" class="node">
<title>StkhldrSub</title>
<ellipse fill="none" stroke="#00868b" cx="1483.04" cy="-90" rx="63.89" ry="18"/>
<text text-anchor="middle" x="1483.04" y="-86.3" font-family="Times,serif" font-size="14.00">StkhldrSub</text>
</g>
<!-- GSDSub -->
<g id="node13" class="node">
<title>GSDSub</title>
<ellipse fill="none" stroke="#00868b" cx="1615.04" cy="-90" rx="50.09" ry="18"/>
<text text-anchor="middle" x="1615.04" y="-86.3" font-family="Times,serif" font-size="14.00">GSDSub</text>
</g>
<!-- SSDSub -->
<g id="node14" class="node">
<title>SSDSub</title>
<ellipse fill="none" stroke="#00868b" cx="1731.04" cy="-90" rx="48.19" ry="18"/>
<text text-anchor="middle" x="1731.04" y="-86.3" font-family="Times,serif" font-size="14.00">SSDSub</text>
</g>
<!-- ProblemDescription -->
<g id="node15" class="node">
<title>ProblemDescription</title>
<ellipse fill="none" stroke="#00868b" cx="1900.04" cy="-90" rx="103.18" ry="18"/>
<text text-anchor="middle" x="1900.04" y="-86.3" font-family="Times,serif" font-size="14.00">ProblemDescription</text>
</g>
<!-- PDSub -->
<g id="node16" class="node">
<title>PDSub</title>
<ellipse fill="none" stroke="#00868b" cx="2064.04" cy="-90" rx="42.49" ry="18"/>
<text text-anchor="middle" x="2064.04" y="-86.3" font-family="Times,serif" font-size="14.00">PDSub</text>
</g>
<!-- SolChSpec -->
<g id="node17" class="node">
<title>SolChSpec</title>
<ellipse fill="none" stroke="#00868b" cx="2185.04" cy="-90" rx="60.39" ry="18"/>
<text text-anchor="middle" x="2185.04" y="-86.3" font-family="Times,serif" font-size="14.00">SolChSpec</text>
</g>
<!-- SCSSub -->
<g id="node18" class="node">
<title>SCSSub</title>
<ellipse fill="none" stroke="#00868b" cx="2312.04" cy="-90" rx="48.19" ry="18"/>
<text text-anchor="middle" x="2312.04" y="-86.3" font-family="Times,serif" font-size="14.00">SCSSub</text>
</g>
<!-- DerivationDisplay -->
<g id="node19" class="node">
<title>DerivationDisplay</title>
<ellipse fill="none" stroke="#00868b" cx="2472.04" cy="-90" rx="94.48" ry="18"/>
<text text-anchor="middle" x="2472.04" y="-86.3" font-family="Times,serif" font-size="14.00">DerivationDisplay</text>
</g>
<!-- ReqsSub -->
<g id="node20" class="node">
<title>ReqsSub</title>
<ellipse fill="none" stroke="#00868b" cx="2636.04" cy="-90" rx="51.99" ry="18"/>
<text text-anchor="middle" x="2636.04" y="-86.3" font-family="Times,serif" font-size="14.00">ReqsSub</text>
</g>
<!-- TraceConfig -->
<g id="node21" class="node">
<title>TraceConfig</title>
<ellipse fill="none" stroke="#00868b" cx="2772.04" cy="-90" rx="66.09" ry="18"/>
<text text-anchor="middle" x="2772.04" y="-86.3" font-family="Times,serif" font-size="14.00">TraceConfig</text>
</g>
<!-- AuxConstntSec -->
<g id="node22" class="node">
<title>AuxConstntSec</title>
<ellipse fill="none" stroke="#00868b" cx="2938.04" cy="-90" rx="81.49" ry="18"/>
<text text-anchor="middle" x="2938.04" y="-86.3" font-family="Times,serif" font-size="14.00">AuxConstntSec</text>
</g>
<!-- DLPlate -->
<g id="node23" class="node">
<title>DLPlate</title>
<ellipse fill="none" stroke="#00868b" cx="3085.04" cy="-90" rx="48.19" ry="18"/>
<text text-anchor="middle" x="3085.04" y="-86.3" font-family="Times,serif" font-size="14.00">DLPlate</text>
</g>
<!-- Multiplate -->
<g id="node38" class="node">
<title>Multiplate</title>
<ellipse fill="none" stroke="pink" cx="3085.04" cy="-18" rx="59.29" ry="18"/>
<text text-anchor="middle" x="3085.04" y="-14.3" font-family="Times,serif" font-size="14.00">Multiplate</text>
</g>
<!-- DLPlate&#45;&gt;Multiplate -->
<g id="edge2" class="edge">
<title>DLPlate&#45;&gt;Multiplate</title>
<path fill="none" stroke="black" d="M3085.04,-71.7C3085.04,-63.98 3085.04,-54.71 3085.04,-46.11"/>
<polygon fill="black" stroke="black" points="3088.54,-46.1 3085.04,-36.1 3081.54,-46.1 3088.54,-46.1"/>
</g>
<!-- StkhldrSec -->
<g id="node24" class="node">
<title>StkhldrSec</title>
<ellipse fill="none" stroke="#00868b" cx="3213.04" cy="-90" rx="61.99" ry="18"/>
<text text-anchor="middle" x="3213.04" y="-86.3" font-family="Times,serif" font-size="14.00">StkhldrSec</text>
</g>
<!-- GSDSec -->
<g id="node25" class="node">
<title>GSDSec</title>
<ellipse fill="none" stroke="#00868b" cx="3341.04" cy="-90" rx="48.19" ry="18"/>
<text text-anchor="middle" x="3341.04" y="-86.3" font-family="Times,serif" font-size="14.00">GSDSec</text>
</g>
<!-- SSDSec -->
<g id="node26" class="node">
<title>SSDSec</title>
<ellipse fill="none" stroke="#00868b" cx="3454.04" cy="-90" rx="46.59" ry="18"/>
<text text-anchor="middle" x="3454.04" y="-86.3" font-family="Times,serif" font-size="14.00">SSDSec</text>
</g>
<!-- ReqrmntSec -->
<g id="node27" class="node">
<title>ReqrmntSec</title>
<ellipse fill="none" stroke="#00868b" cx="3587.04" cy="-90" rx="68.49" ry="18"/>
<text text-anchor="middle" x="3587.04" y="-86.3" font-family="Times,serif" font-size="14.00">ReqrmntSec</text>
</g>
<!-- LCsSec -->
<g id="node28" class="node">
<title>LCsSec</title>
<ellipse fill="none" stroke="#00868b" cx="3718.04" cy="-90" rx="44.69" ry="18"/>
<text text-anchor="middle" x="3718.04" y="-86.3" font-family="Times,serif" font-size="14.00">LCsSec</text>
</g>
<!-- UCsSec -->
<g id="node29" class="node">
<title>UCsSec</title>
<ellipse fill="none" stroke="#00868b" cx="3828.04" cy="-90" rx="46.59" ry="18"/>
<text text-anchor="middle" x="3828.04" y="-86.3" font-family="Times,serif" font-size="14.00">UCsSec</text>
</g>
<!-- TraceabilitySec -->
<g id="node30" class="node">
<title>TraceabilitySec</title>
<ellipse fill="none" stroke="#00868b" cx="3975.04" cy="-90" rx="82.59" ry="18"/>
<text text-anchor="middle" x="3975.04" y="-86.3" font-family="Times,serif" font-size="14.00">TraceabilitySec</text>
</g>
<!-- OffShelfSolnsSec -->
<g id="node31" class="node">
<title>OffShelfSolnsSec</title>
<ellipse fill="none" stroke="#00868b" cx="4166.04" cy="-90" rx="90.18" ry="18"/>
<text text-anchor="middle" x="4166.04" y="-86.3" font-family="Times,serif" font-size="14.00">OffShelfSolnsSec</text>
</g>
<!-- AppndxSec -->
<g id="node32" class="node">
<title>AppndxSec</title>
<ellipse fill="none" stroke="#00868b" cx="4337.04" cy="-90" rx="62.29" ry="18"/>
<text text-anchor="middle" x="4337.04" y="-86.3" font-family="Times,serif" font-size="14.00">AppndxSec</text>
</g>
<!-- Field -->
<g id="node33" class="node">
<title>Field</title>
<ellipse fill="none" stroke="#00868b" cx="783.04" cy="-90" rx="34.39" ry="18"/>
<text text-anchor="middle" x="783.04" y="-86.3" font-family="Times,serif" font-size="14.00">Field</text>
</g>
<!-- Field&#45;&gt;Show -->
<g id="edge3" class="edge">
<title>Field&#45;&gt;Show</title>
<path fill="none" stroke="black" d="M770.79,-73.12C763.98,-64.29 755.37,-53.13 747.74,-43.24"/>
<polygon fill="black" stroke="black" points="750.5,-41.09 741.62,-35.31 744.96,-45.36 750.5,-41.09"/>
</g>
<!-- Verbosity -->
<g id="node34" class="node">
<title>Verbosity</title>
<ellipse fill="none" stroke="#00868b" cx="4472.04" cy="-90" rx="54.69" ry="18"/>
<text text-anchor="middle" x="4472.04" y="-86.3" font-family="Times,serif" font-size="14.00">Verbosity</text>
</g>
<!-- InclUnits -->
<g id="node35" class="node">
<title>InclUnits</title>
<ellipse fill="none" stroke="#00868b" cx="4598.04" cy="-90" rx="53.09" ry="18"/>
<text text-anchor="middle" x="4598.04" y="-86.3" font-family="Times,serif" font-size="14.00">InclUnits</text>
</g>
<!-- ModelDB -->
<g id="node36" class="node">
<title>ModelDB</title>
<ellipse fill="none" stroke="#00868b" cx="4723.04" cy="-90" rx="53.89" ry="18"/>
<text text-anchor="middle" x="4723.04" y="-86.3" font-family="Times,serif" font-size="14.00">ModelDB</text>
</g>
</g>
</svg>
