<?xml version="1.0" encoding="UTF-8" standalone="no"?>
<!DOCTYPE svg PUBLIC "-//W3C//DTD SVG 1.1//EN"
 "http://www.w3.org/Graphics/SVG/1.1/DTD/svg11.dtd">
<!-- Generated by graphviz version 2.43.0 (0)
 -->
<!-- Title: docLang Pages: 1 -->
<svg width="5699pt" height="116pt"
 viewBox="0.00 0.00 5698.99 116.00" xmlns="http://www.w3.org/2000/svg" xmlns:xlink="http://www.w3.org/1999/xlink">
<g id="graph0" class="graph" transform="scale(1 1) rotate(0) translate(4 112)">
<title>docLang</title>
<polygon fill="white" stroke="transparent" points="-4,4 -4,-112 5694.99,-112 5694.99,4 -4,4"/>
<!-- DocSection -->
<g id="node1" class="node">
<title>DocSection</title>
<ellipse fill="none" stroke="#00868b" cx="63.04" cy="-90" rx="63.09" ry="18"/>
<text text-anchor="middle" x="63.04" y="-86.3" font-family="Times,serif" font-size="14.00">DocSection</text>
</g>
<!-- IntrodSec -->
<g id="node2" class="node">
<title>IntrodSec</title>
<ellipse fill="none" stroke="#00868b" cx="200.04" cy="-90" rx="55.79" ry="18"/>
<text text-anchor="middle" x="200.04" y="-86.3" font-family="Times,serif" font-size="14.00">IntrodSec</text>
</g>
<!-- IntrodSub -->
<g id="node3" class="node">
<title>IntrodSub</title>
<ellipse fill="none" stroke="#00868b" cx="332.04" cy="-90" rx="57.69" ry="18"/>
<text text-anchor="middle" x="332.04" y="-86.3" font-family="Times,serif" font-size="14.00">IntrodSub</text>
</g>
<!-- BodySub -->
<g id="node4" class="node">
<title>BodySub</title>
<ellipse fill="none" stroke="#00868b" cx="460.04" cy="-90" rx="51.99" ry="18"/>
<text text-anchor="middle" x="460.04" y="-86.3" font-family="Times,serif" font-size="14.00">BodySub</text>
</g>
<!-- DLPlate -->
<g id="node5" class="node">
<title>DLPlate</title>
<ellipse fill="none" stroke="#00868b" cx="578.04" cy="-90" rx="48.19" ry="18"/>
<text text-anchor="middle" x="578.04" y="-86.3" font-family="Times,serif" font-size="14.00">DLPlate</text>
</g>
<!-- Multiplate -->
<g id="node44" class="node">
<title>Multiplate</title>
<ellipse fill="none" stroke="pink" cx="578.04" cy="-18" rx="59.29" ry="18"/>
<text text-anchor="middle" x="578.04" y="-14.3" font-family="Times,serif" font-size="14.00">Multiplate</text>
</g>
<!-- DLPlate&#45;&gt;Multiplate -->
<g id="edge1" class="edge">
<title>DLPlate&#45;&gt;Multiplate</title>
<path fill="none" stroke="black" d="M572.17,-72.05C571.35,-64.35 571.11,-55.03 571.44,-46.36"/>
<polygon fill="black" stroke="black" points="574.94,-46.49 572.13,-36.28 567.96,-46.01 574.94,-46.49"/>
</g>
<!-- DLPlate&#45;&gt;Multiplate -->
<g id="edge3" class="edge">
<title>DLPlate&#45;&gt;Multiplate</title>
<path fill="none" stroke="black" d="M583.92,-72.05C584.74,-64.35 584.98,-55.03 584.65,-46.36"/>
<polygon fill="black" stroke="black" points="588.13,-46.01 583.96,-36.28 581.15,-46.49 588.13,-46.01"/>
</g>
<!-- BodySec -->
<g id="node6" class="node">
<title>BodySec</title>
<ellipse fill="none" stroke="#00868b" cx="695.04" cy="-90" rx="50.89" ry="18"/>
<text text-anchor="middle" x="695.04" y="-86.3" font-family="Times,serif" font-size="14.00">BodySec</text>
</g>
<!-- SmmrySec -->
<g id="node7" class="node">
<title>SmmrySec</title>
<ellipse fill="none" stroke="#00868b" cx="825.04" cy="-90" rx="61.19" ry="18"/>
<text text-anchor="middle" x="825.04" y="-86.3" font-family="Times,serif" font-size="14.00">SmmrySec</text>
</g>
<!-- ApndxSec -->
<g id="node8" class="node">
<title>ApndxSec</title>
<ellipse fill="none" stroke="#00868b" cx="961.04" cy="-90" rx="56.59" ry="18"/>
<text text-anchor="middle" x="961.04" y="-86.3" font-family="Times,serif" font-size="14.00">ApndxSec</text>
</g>
<!-- NbSection -->
<g id="node9" class="node">
<title>NbSection</title>
<ellipse fill="none" stroke="#00868b" cx="1095.04" cy="-90" rx="59.29" ry="18"/>
<text text-anchor="middle" x="1095.04" y="-86.3" font-family="Times,serif" font-size="14.00">NbSection</text>
</g>
<!-- RefSec -->
<g id="node10" class="node">
<title>RefSec</title>
<ellipse fill="none" stroke="#00868b" cx="1215.04" cy="-90" rx="42.79" ry="18"/>
<text text-anchor="middle" x="1215.04" y="-86.3" font-family="Times,serif" font-size="14.00">RefSec</text>
</g>
<!-- RefTab -->
<g id="node11" class="node">
<title>RefTab</title>
<ellipse fill="none" stroke="#00868b" cx="1319.04" cy="-90" rx="42.79" ry="18"/>
<text text-anchor="middle" x="1319.04" y="-86.3" font-family="Times,serif" font-size="14.00">RefTab</text>
</g>
<!-- TSIntro -->
<g id="node12" class="node">
<title>TSIntro</title>
<ellipse fill="none" stroke="#00868b" cx="1426.04" cy="-90" rx="46.29" ry="18"/>
<text text-anchor="middle" x="1426.04" y="-86.3" font-family="Times,serif" font-size="14.00">TSIntro</text>
</g>
<!-- TConvention -->
<g id="node13" class="node">
<title>TConvention</title>
<ellipse fill="none" stroke="#00868b" cx="1560.04" cy="-90" rx="69.59" ry="18"/>
<text text-anchor="middle" x="1560.04" y="-86.3" font-family="Times,serif" font-size="14.00">TConvention</text>
</g>
<!-- Emphasis -->
<g id="node14" class="node">
<title>Emphasis</title>
<ellipse fill="none" stroke="#00868b" cx="1703.04" cy="-90" rx="55.79" ry="18"/>
<text text-anchor="middle" x="1703.04" y="-86.3" font-family="Times,serif" font-size="14.00">Emphasis</text>
</g>
<!-- Show -->
<g id="node45" class="node">
<title>Show</title>
<ellipse fill="none" stroke="pink" cx="1757.04" cy="-18" rx="36.29" ry="18"/>
<text text-anchor="middle" x="1757.04" y="-14.3" font-family="Times,serif" font-size="14.00">Show</text>
</g>
<!-- Emphasis&#45;&gt;Show -->
<g id="edge2" class="edge">
<title>Emphasis&#45;&gt;Show</title>
<path fill="none" stroke="black" d="M1715.84,-72.41C1722.6,-63.66 1731.01,-52.75 1738.47,-43.08"/>
<polygon fill="black" stroke="black" points="1741.37,-45.04 1744.71,-34.99 1735.83,-40.77 1741.37,-45.04"/>
</g>
<!-- Literature -->
<g id="node15" class="node">
<title>Literature</title>
<ellipse fill="none" stroke="#00868b" cx="1921.04" cy="-90" rx="57.69" ry="18"/>
<text text-anchor="middle" x="1921.04" y="-86.3" font-family="Times,serif" font-size="14.00">Literature</text>
</g>
<!-- TUIntro -->
<g id="node16" class="node">
<title>TUIntro</title>
<ellipse fill="none" stroke="#00868b" cx="2044.04" cy="-90" rx="47.39" ry="18"/>
<text text-anchor="middle" x="2044.04" y="-86.3" font-family="Times,serif" font-size="14.00">TUIntro</text>
</g>
<!-- LFunc -->
<g id="node17" class="node">
<title>LFunc</title>
<ellipse fill="none" stroke="#00868b" cx="2149.04" cy="-90" rx="39.79" ry="18"/>
<text text-anchor="middle" x="2149.04" y="-86.3" font-family="Times,serif" font-size="14.00">LFunc</text>
</g>
<!-- IntroSec -->
<g id="node18" class="node">
<title>IntroSec</title>
<ellipse fill="none" stroke="#00868b" cx="2257.04" cy="-90" rx="50.09" ry="18"/>
<text text-anchor="middle" x="2257.04" y="-86.3" font-family="Times,serif" font-size="14.00">IntroSec</text>
</g>
<!-- IntroSub -->
<g id="node19" class="node">
<title>IntroSub</title>
<ellipse fill="none" stroke="#00868b" cx="2377.04" cy="-90" rx="51.99" ry="18"/>
<text text-anchor="middle" x="2377.04" y="-86.3" font-family="Times,serif" font-size="14.00">IntroSub</text>
</g>
<!-- StkhldrSub -->
<g id="node20" class="node">
<title>StkhldrSub</title>
<ellipse fill="none" stroke="#00868b" cx="2511.04" cy="-90" rx="63.89" ry="18"/>
<text text-anchor="middle" x="2511.04" y="-86.3" font-family="Times,serif" font-size="14.00">StkhldrSub</text>
</g>
<!-- GSDSub -->
<g id="node21" class="node">
<title>GSDSub</title>
<ellipse fill="none" stroke="#00868b" cx="2643.04" cy="-90" rx="50.09" ry="18"/>
<text text-anchor="middle" x="2643.04" y="-86.3" font-family="Times,serif" font-size="14.00">GSDSub</text>
</g>
<!-- SSDSub -->
<g id="node22" class="node">
<title>SSDSub</title>
<ellipse fill="none" stroke="#00868b" cx="2759.04" cy="-90" rx="48.19" ry="18"/>
<text text-anchor="middle" x="2759.04" y="-86.3" font-family="Times,serif" font-size="14.00">SSDSub</text>
</g>
<!-- ProblemDescription -->
<g id="node23" class="node">
<title>ProblemDescription</title>
<ellipse fill="none" stroke="#00868b" cx="2928.04" cy="-90" rx="103.18" ry="18"/>
<text text-anchor="middle" x="2928.04" y="-86.3" font-family="Times,serif" font-size="14.00">ProblemDescription</text>
</g>
<!-- PDSub -->
<g id="node24" class="node">
<title>PDSub</title>
<ellipse fill="none" stroke="#00868b" cx="3092.04" cy="-90" rx="42.49" ry="18"/>
<text text-anchor="middle" x="3092.04" y="-86.3" font-family="Times,serif" font-size="14.00">PDSub</text>
</g>
<!-- SolChSpec -->
<g id="node25" class="node">
<title>SolChSpec</title>
<ellipse fill="none" stroke="#00868b" cx="3213.04" cy="-90" rx="60.39" ry="18"/>
<text text-anchor="middle" x="3213.04" y="-86.3" font-family="Times,serif" font-size="14.00">SolChSpec</text>
</g>
<!-- SCSSub -->
<g id="node26" class="node">
<title>SCSSub</title>
<ellipse fill="none" stroke="#00868b" cx="3340.04" cy="-90" rx="48.19" ry="18"/>
<text text-anchor="middle" x="3340.04" y="-86.3" font-family="Times,serif" font-size="14.00">SCSSub</text>
</g>
<!-- DerivationDisplay -->
<g id="node27" class="node">
<title>DerivationDisplay</title>
<ellipse fill="none" stroke="#00868b" cx="3500.04" cy="-90" rx="94.48" ry="18"/>
<text text-anchor="middle" x="3500.04" y="-86.3" font-family="Times,serif" font-size="14.00">DerivationDisplay</text>
</g>
<!-- ReqsSub -->
<g id="node28" class="node">
<title>ReqsSub</title>
<ellipse fill="none" stroke="#00868b" cx="3664.04" cy="-90" rx="51.99" ry="18"/>
<text text-anchor="middle" x="3664.04" y="-86.3" font-family="Times,serif" font-size="14.00">ReqsSub</text>
</g>
<!-- TraceConfig -->
<g id="node29" class="node">
<title>TraceConfig</title>
<ellipse fill="none" stroke="#00868b" cx="3800.04" cy="-90" rx="66.09" ry="18"/>
<text text-anchor="middle" x="3800.04" y="-86.3" font-family="Times,serif" font-size="14.00">TraceConfig</text>
</g>
<!-- AuxConstntSec -->
<g id="node30" class="node">
<title>AuxConstntSec</title>
<ellipse fill="none" stroke="#00868b" cx="3966.04" cy="-90" rx="81.49" ry="18"/>
<text text-anchor="middle" x="3966.04" y="-86.3" font-family="Times,serif" font-size="14.00">AuxConstntSec</text>
</g>
<!-- StkhldrSec -->
<g id="node31" class="node">
<title>StkhldrSec</title>
<ellipse fill="none" stroke="#00868b" cx="4127.04" cy="-90" rx="61.99" ry="18"/>
<text text-anchor="middle" x="4127.04" y="-86.3" font-family="Times,serif" font-size="14.00">StkhldrSec</text>
</g>
<!-- GSDSec -->
<g id="node32" class="node">
<title>GSDSec</title>
<ellipse fill="none" stroke="#00868b" cx="4255.04" cy="-90" rx="48.19" ry="18"/>
<text text-anchor="middle" x="4255.04" y="-86.3" font-family="Times,serif" font-size="14.00">GSDSec</text>
</g>
<!-- SSDSec -->
<g id="node33" class="node">
<title>SSDSec</title>
<ellipse fill="none" stroke="#00868b" cx="4368.04" cy="-90" rx="46.59" ry="18"/>
<text text-anchor="middle" x="4368.04" y="-86.3" font-family="Times,serif" font-size="14.00">SSDSec</text>
</g>
<!-- ReqrmntSec -->
<g id="node34" class="node">
<title>ReqrmntSec</title>
<ellipse fill="none" stroke="#00868b" cx="4501.04" cy="-90" rx="68.49" ry="18"/>
<text text-anchor="middle" x="4501.04" y="-86.3" font-family="Times,serif" font-size="14.00">ReqrmntSec</text>
</g>
<!-- LCsSec -->
<g id="node35" class="node">
<title>LCsSec</title>
<ellipse fill="none" stroke="#00868b" cx="4632.04" cy="-90" rx="44.69" ry="18"/>
<text text-anchor="middle" x="4632.04" y="-86.3" font-family="Times,serif" font-size="14.00">LCsSec</text>
</g>
<!-- UCsSec -->
<g id="node36" class="node">
<title>UCsSec</title>
<ellipse fill="none" stroke="#00868b" cx="4742.04" cy="-90" rx="46.59" ry="18"/>
<text text-anchor="middle" x="4742.04" y="-86.3" font-family="Times,serif" font-size="14.00">UCsSec</text>
</g>
<!-- TraceabilitySec -->
<g id="node37" class="node">
<title>TraceabilitySec</title>
<ellipse fill="none" stroke="#00868b" cx="4889.04" cy="-90" rx="82.59" ry="18"/>
<text text-anchor="middle" x="4889.04" y="-86.3" font-family="Times,serif" font-size="14.00">TraceabilitySec</text>
</g>
<!-- OffShelfSolnsSec -->
<g id="node38" class="node">
<title>OffShelfSolnsSec</title>
<ellipse fill="none" stroke="#00868b" cx="5080.04" cy="-90" rx="90.18" ry="18"/>
<text text-anchor="middle" x="5080.04" y="-86.3" font-family="Times,serif" font-size="14.00">OffShelfSolnsSec</text>
</g>
<!-- AppndxSec -->
<g id="node39" class="node">
<title>AppndxSec</title>
<ellipse fill="none" stroke="#00868b" cx="5251.04" cy="-90" rx="62.29" ry="18"/>
<text text-anchor="middle" x="5251.04" y="-86.3" font-family="Times,serif" font-size="14.00">AppndxSec</text>
</g>
<!-- Field -->
<g id="node40" class="node">
<title>Field</title>
<ellipse fill="none" stroke="#00868b" cx="1811.04" cy="-90" rx="34.39" ry="18"/>
<text text-anchor="middle" x="1811.04" y="-86.3" font-family="Times,serif" font-size="14.00">Field</text>
</g>
<!-- Field&#45;&gt;Show -->
<g id="edge4" class="edge">
<title>Field&#45;&gt;Show</title>
<path fill="none" stroke="black" d="M1798.79,-73.12C1791.98,-64.29 1783.37,-53.13 1775.74,-43.24"/>
<polygon fill="black" stroke="black" points="1778.5,-41.09 1769.62,-35.31 1772.96,-45.36 1778.5,-41.09"/>
</g>
<!-- Verbosity -->
<g id="node41" class="node">
<title>Verbosity</title>
<ellipse fill="none" stroke="#00868b" cx="5386.04" cy="-90" rx="54.69" ry="18"/>
<text text-anchor="middle" x="5386.04" y="-86.3" font-family="Times,serif" font-size="14.00">Verbosity</text>
</g>
<!-- InclUnits -->
<g id="node42" class="node">
<title>InclUnits</title>
<ellipse fill="none" stroke="#00868b" cx="5512.04" cy="-90" rx="53.09" ry="18"/>
<text text-anchor="middle" x="5512.04" y="-86.3" font-family="Times,serif" font-size="14.00">InclUnits</text>
</g>
<!-- ModelDB -->
<g id="node43" class="node">
<title>ModelDB</title>
<ellipse fill="none" stroke="#00868b" cx="5637.04" cy="-90" rx="53.89" ry="18"/>
<text text-anchor="middle" x="5637.04" y="-86.3" font-family="Times,serif" font-size="14.00">ModelDB</text>
</g>
</g>
</svg>
