<?xml version="1.0" encoding="UTF-8" standalone="no"?>
<!DOCTYPE svg PUBLIC "-//W3C//DTD SVG 1.1//EN"
 "http://www.w3.org/Graphics/SVG/1.1/DTD/svg11.dtd">
<!-- Generated by graphviz version 2.43.0 (0)
 -->
<!-- Title: gen Pages: 1 -->
<svg width="638pt" height="116pt"
 viewBox="0.00 0.00 638.19 116.00" xmlns="http://www.w3.org/2000/svg" xmlns:xlink="http://www.w3.org/1999/xlink">
<g id="graph0" class="graph" transform="scale(1 1) rotate(0) translate(4 112)">
<title>gen</title>
<polygon fill="white" stroke="transparent" points="-4,4 -4,-112 634.19,-112 634.19,4 -4,4"/>
<!-- DocType -->
<g id="node1" class="node">
<title>DocType</title>
<ellipse fill="none" stroke="#00868b" cx="50.7" cy="-90" rx="50.89" ry="18"/>
<text text-anchor="middle" x="50.7" y="-86.3" font-family="Times,serif" font-size="14.00">DocType</text>
</g>
<!-- Show -->
<g id="node7" class="node">
<title>Show</title>
<ellipse fill="none" stroke="pink" cx="50.7" cy="-18" rx="36.29" ry="18"/>
<text text-anchor="middle" x="50.7" y="-14.3" font-family="Times,serif" font-size="14.00">Show</text>
</g>
<!-- DocType&#45;&gt;Show -->
<g id="edge2" class="edge">
<title>DocType&#45;&gt;Show</title>
<path fill="none" stroke="black" d="M50.7,-71.7C50.7,-63.98 50.7,-54.71 50.7,-46.11"/>
<polygon fill="black" stroke="black" points="54.2,-46.1 50.7,-36.1 47.2,-46.1 54.2,-46.1"/>
</g>
<!-- DocSpec -->
<g id="node2" class="node">
<title>DocSpec</title>
<ellipse fill="none" stroke="#00868b" cx="194.7" cy="-90" rx="50.89" ry="18"/>
<text text-anchor="middle" x="194.7" y="-86.3" font-family="Times,serif" font-size="14.00">DocSpec</text>
</g>
<!-- RuleTransformer -->
<g id="node6" class="node">
<title>RuleTransformer</title>
<ellipse fill="none" stroke="pink" cx="194.7" cy="-18" rx="89.88" ry="18"/>
<text text-anchor="middle" x="194.7" y="-14.3" font-family="Times,serif" font-size="14.00">RuleTransformer</text>
</g>
<!-- DocSpec&#45;&gt;RuleTransformer -->
<g id="edge1" class="edge">
<title>DocSpec&#45;&gt;RuleTransformer</title>
<path fill="none" stroke="black" d="M194.7,-71.7C194.7,-63.98 194.7,-54.71 194.7,-46.11"/>
<polygon fill="black" stroke="black" points="198.2,-46.1 194.7,-36.1 191.2,-46.1 198.2,-46.1"/>
</g>
<!-- DocClass -->
<g id="node3" class="node">
<title>DocClass</title>
<ellipse fill="none" stroke="#00868b" cx="316.7" cy="-90" rx="53.09" ry="18"/>
<text text-anchor="middle" x="316.7" y="-86.3" font-family="Times,serif" font-size="14.00">DocClass</text>
</g>
<!-- ExDoc -->
<g id="node4" class="node">
<title>ExDoc</title>
<ellipse fill="none" stroke="#00868b" cx="428.7" cy="-90" rx="40.09" ry="18"/>
<text text-anchor="middle" x="428.7" y="-86.3" font-family="Times,serif" font-size="14.00">ExDoc</text>
</g>
<!-- UsePackages -->
<g id="node5" class="node">
<title>UsePackages</title>
<ellipse fill="none" stroke="#00868b" cx="558.7" cy="-90" rx="71.49" ry="18"/>
<text text-anchor="middle" x="558.7" y="-86.3" font-family="Times,serif" font-size="14.00">UsePackages</text>
</g>
</g>
</svg>
