<?xml version="1.0" encoding="UTF-8" standalone="no"?>
<!DOCTYPE svg PUBLIC "-//W3C//DTD SVG 1.1//EN"
 "http://www.w3.org/Graphics/SVG/1.1/DTD/svg11.dtd">
<!-- Generated by graphviz version 2.43.0 (0)
 -->
<!-- Title: gen Pages: 1 -->
<svg width="748pt" height="116pt"
 viewBox="0.00 0.00 747.69 116.00" xmlns="http://www.w3.org/2000/svg" xmlns:xlink="http://www.w3.org/1999/xlink">
<g id="graph0" class="graph" transform="scale(1 1) rotate(0) translate(4 112)">
<title>gen</title>
<polygon fill="white" stroke="transparent" points="-4,4 -4,-112 743.69,-112 743.69,4 -4,4"/>
<!-- Format -->
<g id="node1" class="node">
<title>Format</title>
<ellipse fill="none" stroke="#00868b" cx="44.2" cy="-90" rx="44.39" ry="18"/>
<text text-anchor="middle" x="44.2" y="-86.3" font-family="Times,serif" font-size="14.00">Format</text>
</g>
<!-- Show -->
<g id="node7" class="node">
<title>Show</title>
<ellipse fill="none" stroke="pink" cx="44.2" cy="-18" rx="36.29" ry="18"/>
<text text-anchor="middle" x="44.2" y="-14.3" font-family="Times,serif" font-size="14.00">Show</text>
</g>
<!-- Format&#45;&gt;Show -->
<g id="edge1" class="edge">
<title>Format&#45;&gt;Show</title>
<path fill="none" stroke="black" d="M44.2,-71.7C44.2,-63.98 44.2,-54.71 44.2,-46.11"/>
<polygon fill="black" stroke="black" points="47.7,-46.1 44.2,-36.1 40.7,-46.1 47.7,-46.1"/>
</g>
<!-- DocChoices -->
<g id="node2" class="node">
<title>DocChoices</title>
<ellipse fill="none" stroke="#00868b" cx="171.2" cy="-90" rx="64.19" ry="18"/>
<text text-anchor="middle" x="171.2" y="-86.3" font-family="Times,serif" font-size="14.00">DocChoices</text>
</g>
<!-- DocSpec -->
<g id="node3" class="node">
<title>DocSpec</title>
<ellipse fill="none" stroke="#00868b" cx="304.2" cy="-90" rx="50.89" ry="18"/>
<text text-anchor="middle" x="304.2" y="-86.3" font-family="Times,serif" font-size="14.00">DocSpec</text>
</g>
<!-- RuleTransformer -->
<g id="node8" class="node">
<title>RuleTransformer</title>
<ellipse fill="none" stroke="pink" cx="304.2" cy="-18" rx="89.88" ry="18"/>
<text text-anchor="middle" x="304.2" y="-14.3" font-family="Times,serif" font-size="14.00">RuleTransformer</text>
</g>
<!-- DocSpec&#45;&gt;RuleTransformer -->
<g id="edge2" class="edge">
<title>DocSpec&#45;&gt;RuleTransformer</title>
<path fill="none" stroke="black" d="M304.2,-71.7C304.2,-63.98 304.2,-54.71 304.2,-46.11"/>
<polygon fill="black" stroke="black" points="307.7,-46.1 304.2,-36.1 300.7,-46.1 307.7,-46.1"/>
</g>
<!-- DocClass -->
<g id="node4" class="node">
<title>DocClass</title>
<ellipse fill="none" stroke="#00868b" cx="426.2" cy="-90" rx="53.09" ry="18"/>
<text text-anchor="middle" x="426.2" y="-86.3" font-family="Times,serif" font-size="14.00">DocClass</text>
</g>
<!-- ExDoc -->
<g id="node5" class="node">
<title>ExDoc</title>
<ellipse fill="none" stroke="#00868b" cx="538.2" cy="-90" rx="40.09" ry="18"/>
<text text-anchor="middle" x="538.2" y="-86.3" font-family="Times,serif" font-size="14.00">ExDoc</text>
</g>
<!-- UsePackages -->
<g id="node6" class="node">
<title>UsePackages</title>
<ellipse fill="none" stroke="#00868b" cx="668.2" cy="-90" rx="71.49" ry="18"/>
<text text-anchor="middle" x="668.2" y="-86.3" font-family="Times,serif" font-size="14.00">UsePackages</text>
</g>
</g>
</svg>
