<?xml version="1.0" encoding="UTF-8" standalone="no"?>
<!DOCTYPE svg PUBLIC "-//W3C//DTD SVG 1.1//EN"
 "http://www.w3.org/Graphics/SVG/1.1/DTD/svg11.dtd">
<!-- Generated by graphviz version 2.43.0 (0)
 -->
<!-- Title: metadata Pages: 1 -->
<svg width="240pt" height="116pt"
 viewBox="0.00 0.00 239.59 116.00" xmlns="http://www.w3.org/2000/svg" xmlns:xlink="http://www.w3.org/1999/xlink">
<g id="graph0" class="graph" transform="scale(1 1) rotate(0) translate(4 112)">
<title>metadata</title>
<polygon fill="white" stroke="transparent" points="-4,4 -4,-112 235.59,-112 235.59,4 -4,4"/>
<!-- DrasilMeta -->
<g id="node1" class="node">
<title>DrasilMeta</title>
<ellipse fill="none" stroke="#00868b" cx="108.15" cy="-90" rx="62.29" ry="18"/>
<text text-anchor="middle" x="108.15" y="-86.3" font-family="Times,serif" font-size="14.00">DrasilMeta</text>
</g>
<!-- ToJSON -->
<g id="node2" class="node">
<title>ToJSON</title>
<ellipse fill="none" stroke="pink" cx="46.15" cy="-18" rx="46.29" ry="18"/>
<text text-anchor="middle" x="46.15" y="-14.3" font-family="Times,serif" font-size="14.00">ToJSON</text>
</g>
<!-- DrasilMeta&#45;&gt;ToJSON -->
<g id="edge1" class="edge">
<title>DrasilMeta&#45;&gt;ToJSON</title>
<path fill="none" stroke="black" d="M93.45,-72.41C85.73,-63.69 76.12,-52.85 67.59,-43.21"/>
<polygon fill="black" stroke="black" points="69.98,-40.64 60.73,-35.47 64.74,-45.28 69.98,-40.64"/>
</g>
<!-- FromJSON -->
<g id="node3" class="node">
<title>FromJSON</title>
<ellipse fill="none" stroke="pink" cx="171.15" cy="-18" rx="60.39" ry="18"/>
<text text-anchor="middle" x="171.15" y="-14.3" font-family="Times,serif" font-size="14.00">FromJSON</text>
</g>
<!-- DrasilMeta&#45;&gt;FromJSON -->
<g id="edge2" class="edge">
<title>DrasilMeta&#45;&gt;FromJSON</title>
<path fill="none" stroke="black" d="M123.08,-72.41C131,-63.61 140.88,-52.63 149.62,-42.92"/>
<polygon fill="black" stroke="black" points="152.23,-45.24 156.32,-35.47 147.03,-40.56 152.23,-45.24"/>
</g>
</g>
</svg>
