<?xml version="1.0" encoding="UTF-8" standalone="no"?>
<!DOCTYPE svg PUBLIC "-//W3C//DTD SVG 1.1//EN"
 "http://www.w3.org/Graphics/SVG/1.1/DTD/svg11.dtd">
<!-- Generated by graphviz version 2.43.0 (0)
 -->
<!-- Title: printers Pages: 1 -->
<svg width="4917pt" height="116pt"
 viewBox="0.00 0.00 4916.69 116.00" xmlns="http://www.w3.org/2000/svg" xmlns:xlink="http://www.w3.org/1999/xlink">
<g id="graph0" class="graph" transform="scale(1 1) rotate(0) translate(4 112)">
<title>printers</title>
<polygon fill="white" stroke="transparent" points="-4,4 -4,-112 4912.69,-112 4912.69,4 -4,4"/>
<!-- TermAbbr -->
<g id="node1" class="node">
<title>TermAbbr</title>
<ellipse fill="none" stroke="#00868b" cx="57.19" cy="-90" rx="57.39" ry="18"/>
<text text-anchor="middle" x="57.19" y="-86.3" font-family="Times,serif" font-size="14.00">TermAbbr</text>
</g>
<!-- DomDefn -->
<g id="node2" class="node">
<title>DomDefn</title>
<ellipse fill="none" stroke="#00868b" cx="186.19" cy="-90" rx="53.89" ry="18"/>
<text text-anchor="middle" x="186.19" y="-86.3" font-family="Times,serif" font-size="14.00">DomDefn</text>
</g>
<!-- NodeFamily -->
<g id="node3" class="node">
<title>NodeFamily</title>
<ellipse fill="none" stroke="#00868b" cx="324.19" cy="-90" rx="66.09" ry="18"/>
<text text-anchor="middle" x="324.19" y="-86.3" font-family="Times,serif" font-size="14.00">NodeFamily</text>
</g>
<!-- GraphInfo -->
<g id="node4" class="node">
<title>GraphInfo</title>
<ellipse fill="none" stroke="#00868b" cx="466.19" cy="-90" rx="57.69" ry="18"/>
<text text-anchor="middle" x="466.19" y="-86.3" font-family="Times,serif" font-size="14.00">GraphInfo</text>
</g>
<!-- BibFormatter -->
<g id="node5" class="node">
<title>BibFormatter</title>
<ellipse fill="none" stroke="#00868b" cx="615.19" cy="-90" rx="73.39" ry="18"/>
<text text-anchor="middle" x="615.19" y="-86.3" font-family="Times,serif" font-size="14.00">BibFormatter</text>
</g>
<!-- Variation -->
<g id="node6" class="node">
<title>Variation</title>
<ellipse fill="none" stroke="#00868b" cx="759.19" cy="-90" rx="52.79" ry="18"/>
<text text-anchor="middle" x="759.19" y="-86.3" font-family="Times,serif" font-size="14.00">Variation</text>
</g>
<!-- Show -->
<g id="node39" class="node">
<title>Show</title>
<ellipse fill="none" stroke="pink" cx="880.19" cy="-18" rx="36.29" ry="18"/>
<text text-anchor="middle" x="880.19" y="-14.3" font-family="Times,serif" font-size="14.00">Show</text>
</g>
<!-- Variation&#45;&gt;Show -->
<g id="edge1" class="edge">
<title>Variation&#45;&gt;Show</title>
<path fill="none" stroke="black" d="M784.86,-74.15C803.51,-63.37 828.85,-48.7 848.73,-37.21"/>
<polygon fill="black" stroke="black" points="850.52,-40.21 857.43,-32.17 847.02,-34.15 850.52,-40.21"/>
</g>
<!-- PrintHTML -->
<g id="node7" class="node">
<title>PrintHTML</title>
<ellipse fill="none" stroke="#00868b" cx="1118.19" cy="-90" rx="63.09" ry="18"/>
<text text-anchor="middle" x="1118.19" y="-86.3" font-family="Times,serif" font-size="14.00">PrintHTML</text>
</g>
<!-- RenderSpecial -->
<g id="node40" class="node">
<title>RenderSpecial</title>
<ellipse fill="none" stroke="pink" cx="1176.19" cy="-18" rx="77.99" ry="18"/>
<text text-anchor="middle" x="1176.19" y="-14.3" font-family="Times,serif" font-size="14.00">RenderSpecial</text>
</g>
<!-- PrintHTML&#45;&gt;RenderSpecial -->
<g id="edge2" class="edge">
<title>PrintHTML&#45;&gt;RenderSpecial</title>
<path fill="none" stroke="black" d="M1131.94,-72.41C1138.99,-63.91 1147.71,-53.37 1155.55,-43.91"/>
<polygon fill="black" stroke="black" points="1158.46,-45.89 1162.15,-35.96 1153.07,-41.42 1158.46,-45.89"/>
</g>
<!-- OpenClose -->
<g id="node8" class="node">
<title>OpenClose</title>
<ellipse fill="none" stroke="#00868b" cx="1350.19" cy="-90" rx="60.39" ry="18"/>
<text text-anchor="middle" x="1350.19" y="-86.3" font-family="Times,serif" font-size="14.00">OpenClose</text>
</g>
<!-- SingleLine -->
<g id="node9" class="node">
<title>SingleLine</title>
<ellipse fill="none" stroke="#00868b" cx="1488.19" cy="-90" rx="59.59" ry="18"/>
<text text-anchor="middle" x="1488.19" y="-86.3" font-family="Times,serif" font-size="14.00">SingleLine</text>
</g>
<!-- LinkType -->
<g id="node10" class="node">
<title>LinkType</title>
<ellipse fill="none" stroke="#00868b" cx="1619.19" cy="-90" rx="53.09" ry="18"/>
<text text-anchor="middle" x="1619.19" y="-86.3" font-family="Times,serif" font-size="14.00">LinkType</text>
</g>
<!-- Ops -->
<g id="node11" class="node">
<title>Ops</title>
<ellipse fill="none" stroke="#00868b" cx="1719.19" cy="-90" rx="28.7" ry="18"/>
<text text-anchor="middle" x="1719.19" y="-86.3" font-family="Times,serif" font-size="14.00">Ops</text>
</g>
<!-- Fence -->
<g id="node12" class="node">
<title>Fence</title>
<ellipse fill="none" stroke="#00868b" cx="1804.19" cy="-90" rx="38.19" ry="18"/>
<text text-anchor="middle" x="1804.19" y="-86.3" font-family="Times,serif" font-size="14.00">Fence</text>
</g>
<!-- OverSymb -->
<g id="node13" class="node">
<title>OverSymb</title>
<ellipse fill="none" stroke="#00868b" cx="1920.19" cy="-90" rx="59.59" ry="18"/>
<text text-anchor="middle" x="1920.19" y="-86.3" font-family="Times,serif" font-size="14.00">OverSymb</text>
</g>
<!-- Fonts -->
<g id="node14" class="node">
<title>Fonts</title>
<ellipse fill="none" stroke="#00868b" cx="2034.19" cy="-90" rx="36.29" ry="18"/>
<text text-anchor="middle" x="2034.19" y="-86.3" font-family="Times,serif" font-size="14.00">Fonts</text>
</g>
<!-- Spacing -->
<g id="node15" class="node">
<title>Spacing</title>
<ellipse fill="none" stroke="#00868b" cx="2136.19" cy="-90" rx="48.19" ry="18"/>
<text text-anchor="middle" x="2136.19" y="-86.3" font-family="Times,serif" font-size="14.00">Spacing</text>
</g>
<!-- Expr -->
<g id="node16" class="node">
<title>Expr</title>
<ellipse fill="none" stroke="#00868b" cx="2235.19" cy="-90" rx="33.29" ry="18"/>
<text text-anchor="middle" x="2235.19" y="-86.3" font-family="Times,serif" font-size="14.00">Expr</text>
</g>
<!-- Spec -->
<g id="node17" class="node">
<title>Spec</title>
<ellipse fill="none" stroke="#00868b" cx="2319.19" cy="-90" rx="33.29" ry="18"/>
<text text-anchor="middle" x="2319.19" y="-86.3" font-family="Times,serif" font-size="14.00">Spec</text>
</g>
<!-- ListType -->
<g id="node18" class="node">
<title>ListType</title>
<ellipse fill="none" stroke="#00868b" cx="2421.19" cy="-90" rx="50.89" ry="18"/>
<text text-anchor="middle" x="2421.19" y="-86.3" font-family="Times,serif" font-size="14.00">ListType</text>
</g>
<!-- ItemType -->
<g id="node19" class="node">
<title>ItemType</title>
<ellipse fill="none" stroke="#00868b" cx="2544.19" cy="-90" rx="54.69" ry="18"/>
<text text-anchor="middle" x="2544.19" y="-86.3" font-family="Times,serif" font-size="14.00">ItemType</text>
</g>
<!-- Citation -->
<g id="node20" class="node">
<title>Citation</title>
<ellipse fill="none" stroke="#00868b" cx="2665.19" cy="-90" rx="48.19" ry="18"/>
<text text-anchor="middle" x="2665.19" y="-86.3" font-family="Times,serif" font-size="14.00">Citation</text>
</g>
<!-- CiteField -->
<g id="node21" class="node">
<title>CiteField</title>
<ellipse fill="none" stroke="#00868b" cx="2784.19" cy="-90" rx="53.09" ry="18"/>
<text text-anchor="middle" x="2784.19" y="-86.3" font-family="Times,serif" font-size="14.00">CiteField</text>
</g>
<!-- HP -->
<g id="node22" class="node">
<title>HP</title>
<ellipse fill="none" stroke="#00868b" cx="2882.19" cy="-90" rx="27" ry="18"/>
<text text-anchor="middle" x="2882.19" y="-86.3" font-family="Times,serif" font-size="14.00">HP</text>
</g>
<!-- Document -->
<g id="node23" class="node">
<title>Document</title>
<ellipse fill="none" stroke="#00868b" cx="2985.19" cy="-90" rx="57.69" ry="18"/>
<text text-anchor="middle" x="2985.19" y="-86.3" font-family="Times,serif" font-size="14.00">Document</text>
</g>
<!-- Project -->
<g id="node24" class="node">
<title>Project</title>
<ellipse fill="none" stroke="#00868b" cx="3105.19" cy="-90" rx="44.39" ry="18"/>
<text text-anchor="middle" x="3105.19" y="-86.3" font-family="Times,serif" font-size="14.00">Project</text>
</g>
<!-- File -->
<g id="node25" class="node">
<title>File</title>
<ellipse fill="none" stroke="#00868b" cx="3196.19" cy="-90" rx="28.7" ry="18"/>
<text text-anchor="middle" x="3196.19" y="-86.3" font-family="Times,serif" font-size="14.00">File</text>
</g>
<!-- LayoutObj -->
<g id="node26" class="node">
<title>LayoutObj</title>
<ellipse fill="none" stroke="#00868b" cx="3301.19" cy="-90" rx="58.49" ry="18"/>
<text text-anchor="middle" x="3301.19" y="-86.3" font-family="Times,serif" font-size="14.00">LayoutObj</text>
</g>
<!-- Notation -->
<g id="node27" class="node">
<title>Notation</title>
<ellipse fill="none" stroke="#00868b" cx="3429.19" cy="-90" rx="51.19" ry="18"/>
<text text-anchor="middle" x="3429.19" y="-86.3" font-family="Times,serif" font-size="14.00">Notation</text>
</g>
<!-- PrintingInformation -->
<g id="node28" class="node">
<title>PrintingInformation</title>
<ellipse fill="none" stroke="#00868b" cx="3602.19" cy="-90" rx="103.18" ry="18"/>
<text text-anchor="middle" x="3602.19" y="-86.3" font-family="Times,serif" font-size="14.00">PrintingInformation</text>
</g>
<!-- HasPrintingOptions -->
<g id="node41" class="node">
<title>HasPrintingOptions</title>
<ellipse fill="none" stroke="magenta" cx="3719.19" cy="-18" rx="102.88" ry="18"/>
<text text-anchor="middle" x="3719.19" y="-14.3" font-family="Times,serif" font-size="14.00">HasPrintingOptions</text>
</g>
<!-- PrintingInformation&#45;&gt;HasPrintingOptions -->
<g id="edge4" class="edge">
<title>PrintingInformation&#45;&gt;HasPrintingOptions</title>
<path fill="none" stroke="black" d="M3629.63,-72.59C3645.5,-63.09 3665.68,-51.02 3682.86,-40.74"/>
<polygon fill="black" stroke="black" points="3684.75,-43.69 3691.53,-35.55 3681.15,-37.68 3684.75,-43.69"/>
</g>
<!-- PrintingConfiguration -->
<g id="node29" class="node">
<title>PrintingConfiguration</title>
<ellipse fill="none" stroke="#00868b" cx="3836.19" cy="-90" rx="112.38" ry="18"/>
<text text-anchor="middle" x="3836.19" y="-86.3" font-family="Times,serif" font-size="14.00">PrintingConfiguration</text>
</g>
<!-- PrintingConfiguration&#45;&gt;HasPrintingOptions -->
<g id="edge3" class="edge">
<title>PrintingConfiguration&#45;&gt;HasPrintingOptions</title>
<path fill="none" stroke="black" d="M3808.47,-72.41C3792.59,-62.91 3772.47,-50.88 3755.36,-40.64"/>
<polygon fill="black" stroke="black" points="3757.1,-37.6 3746.72,-35.47 3753.51,-43.61 3757.1,-37.6"/>
</g>
<!-- MathContext -->
<g id="node30" class="node">
<title>MathContext</title>
<ellipse fill="none" stroke="#00868b" cx="4038.19" cy="-90" rx="71.49" ry="18"/>
<text text-anchor="middle" x="4038.19" y="-86.3" font-family="Times,serif" font-size="14.00">MathContext</text>
</g>
<!-- PrintLaTeX -->
<g id="node31" class="node">
<title>PrintLaTeX</title>
<ellipse fill="none" stroke="#00868b" cx="4190.19" cy="-90" rx="62.29" ry="18"/>
<text text-anchor="middle" x="4190.19" y="-86.3" font-family="Times,serif" font-size="14.00">PrintLaTeX</text>
</g>
<!-- Functor -->
<g id="node42" class="node">
<title>Functor</title>
<ellipse fill="none" stroke="pink" cx="4062.19" cy="-18" rx="47.39" ry="18"/>
<text text-anchor="middle" x="4062.19" y="-14.3" font-family="Times,serif" font-size="14.00">Functor</text>
</g>
<!-- PrintLaTeX&#45;&gt;Functor -->
<g id="edge5" class="edge">
<title>PrintLaTeX&#45;&gt;Functor</title>
<path fill="none" stroke="black" d="M4162.42,-73.81C4143.29,-63.35 4117.73,-49.37 4097.2,-38.15"/>
<polygon fill="black" stroke="black" points="4098.62,-34.93 4088.17,-33.21 4095.26,-41.07 4098.62,-34.93"/>
</g>
<!-- Applicative -->
<g id="node43" class="node">
<title>Applicative</title>
<ellipse fill="none" stroke="pink" cx="4190.19" cy="-18" rx="62.29" ry="18"/>
<text text-anchor="middle" x="4190.19" y="-14.3" font-family="Times,serif" font-size="14.00">Applicative</text>
</g>
<!-- PrintLaTeX&#45;&gt;Applicative -->
<g id="edge6" class="edge">
<title>PrintLaTeX&#45;&gt;Applicative</title>
<path fill="none" stroke="black" d="M4190.19,-71.7C4190.19,-63.98 4190.19,-54.71 4190.19,-46.11"/>
<polygon fill="black" stroke="black" points="4193.7,-46.1 4190.19,-36.1 4186.7,-46.1 4193.7,-46.1"/>
</g>
<!-- Monad -->
<g id="node44" class="node">
<title>Monad</title>
<ellipse fill="none" stroke="pink" cx="4313.19" cy="-18" rx="42.49" ry="18"/>
<text text-anchor="middle" x="4313.19" y="-14.3" font-family="Times,serif" font-size="14.00">Monad</text>
</g>
<!-- PrintLaTeX&#45;&gt;Monad -->
<g id="edge7" class="edge">
<title>PrintLaTeX&#45;&gt;Monad</title>
<path fill="none" stroke="black" d="M4217.19,-73.64C4235.62,-63.15 4260.18,-49.17 4279.84,-37.98"/>
<polygon fill="black" stroke="black" points="4281.81,-40.89 4288.77,-32.9 4278.35,-34.81 4281.81,-40.89"/>
</g>
<!-- Latex -->
<g id="node32" class="node">
<title>Latex</title>
<ellipse fill="none" stroke="#00868b" cx="1235.19" cy="-90" rx="36.29" ry="18"/>
<text text-anchor="middle" x="1235.19" y="-86.3" font-family="Times,serif" font-size="14.00">Latex</text>
</g>
<!-- Latex&#45;&gt;RenderSpecial -->
<g id="edge10" class="edge">
<title>Latex&#45;&gt;RenderSpecial</title>
<path fill="none" stroke="black" d="M1221.81,-73.12C1214.48,-64.42 1205.23,-53.45 1196.98,-43.66"/>
<polygon fill="black" stroke="black" points="1199.47,-41.19 1190.35,-35.8 1194.12,-45.7 1199.47,-41.19"/>
</g>
<!-- Package -->
<g id="node33" class="node">
<title>Package</title>
<ellipse fill="none" stroke="#00868b" cx="4319.19" cy="-90" rx="48.99" ry="18"/>
<text text-anchor="middle" x="4319.19" y="-86.3" font-family="Times,serif" font-size="14.00">Package</text>
</g>
<!-- Def -->
<g id="node34" class="node">
<title>Def</title>
<ellipse fill="none" stroke="#00868b" cx="4413.19" cy="-90" rx="27" ry="18"/>
<text text-anchor="middle" x="4413.19" y="-86.3" font-family="Times,serif" font-size="14.00">Def</text>
</g>
<!-- FieldWrap -->
<g id="node35" class="node">
<title>FieldWrap</title>
<ellipse fill="none" stroke="#00868b" cx="4516.19" cy="-90" rx="58.49" ry="18"/>
<text text-anchor="middle" x="4516.19" y="-86.3" font-family="Times,serif" font-size="14.00">FieldWrap</text>
</g>
<!-- StyleGuide -->
<g id="node36" class="node">
<title>StyleGuide</title>
<ellipse fill="none" stroke="#00868b" cx="4654.19" cy="-90" rx="61.99" ry="18"/>
<text text-anchor="middle" x="4654.19" y="-86.3" font-family="Times,serif" font-size="14.00">StyleGuide</text>
</g>
<!-- DocType -->
<g id="node37" class="node">
<title>DocType</title>
<ellipse fill="none" stroke="#00868b" cx="880.19" cy="-90" rx="50.89" ry="18"/>
<text text-anchor="middle" x="880.19" y="-86.3" font-family="Times,serif" font-size="14.00">DocType</text>
</g>
<!-- DocType&#45;&gt;Show -->
<g id="edge12" class="edge">
<title>DocType&#45;&gt;Show</title>
<path fill="none" stroke="black" d="M880.19,-71.7C880.19,-63.98 880.19,-54.71 880.19,-46.11"/>
<polygon fill="black" stroke="black" points="883.7,-46.1 880.19,-36.1 876.7,-46.1 883.7,-46.1"/>
</g>
<!-- Format -->
<g id="node38" class="node">
<title>Format</title>
<ellipse fill="none" stroke="#00868b" cx="993.19" cy="-90" rx="44.39" ry="18"/>
<text text-anchor="middle" x="993.19" y="-86.3" font-family="Times,serif" font-size="14.00">Format</text>
</g>
<!-- Format&#45;&gt;Show -->
<g id="edge11" class="edge">
<title>Format&#45;&gt;Show</title>
<path fill="none" stroke="black" d="M969.78,-74.5C952.67,-63.9 929.31,-49.42 910.73,-37.92"/>
<polygon fill="black" stroke="black" points="912.39,-34.83 902.05,-32.54 908.7,-40.78 912.39,-34.83"/>
</g>
<!-- Semigroup -->
<g id="node45" class="node">
<title>Semigroup</title>
<ellipse fill="none" stroke="pink" cx="4738.19" cy="-18" rx="61.99" ry="18"/>
<text text-anchor="middle" x="4738.19" y="-14.3" font-family="Times,serif" font-size="14.00">Semigroup</text>
</g>
<!-- Monoid -->
<g id="node46" class="node">
<title>Monoid</title>
<ellipse fill="none" stroke="pink" cx="4863.19" cy="-18" rx="45.49" ry="18"/>
<text text-anchor="middle" x="4863.19" y="-14.3" font-family="Times,serif" font-size="14.00">Monoid</text>
</g>
<!-- _PrintLaTeX -->
<g id="node47" class="node">
<title>_PrintLaTeX</title>
<ellipse fill="none" stroke="black" cx="4801.19" cy="-90" rx="66.89" ry="18"/>
<text text-anchor="middle" x="4801.19" y="-86.3" font-family="Times,serif" font-size="14.00">_PrintLaTeX</text>
</g>
<!-- _PrintLaTeX&#45;&gt;Semigroup -->
<g id="edge8" class="edge">
<title>_PrintLaTeX&#45;&gt;Semigroup</title>
<path fill="none" stroke="black" d="M4786.26,-72.41C4778.53,-63.82 4768.94,-53.16 4760.36,-43.63"/>
<polygon fill="black" stroke="black" points="4762.75,-41.05 4753.46,-35.96 4757.54,-45.73 4762.75,-41.05"/>
</g>
<!-- _PrintLaTeX&#45;&gt;Monoid -->
<g id="edge9" class="edge">
<title>_PrintLaTeX&#45;&gt;Monoid</title>
<path fill="none" stroke="black" d="M4815.89,-72.41C4823.61,-63.69 4833.22,-52.85 4841.75,-43.21"/>
<polygon fill="black" stroke="black" points="4844.6,-45.28 4848.61,-35.47 4839.36,-40.64 4844.6,-45.28"/>
</g>
</g>
</svg>
