<?xml version="1.0" encoding="UTF-8" standalone="no"?>
<!DOCTYPE svg PUBLIC "-//W3C//DTD SVG 1.1//EN"
 "http://www.w3.org/Graphics/SVG/1.1/DTD/svg11.dtd">
<!-- Generated by graphviz version 2.43.0 (0)
 -->
<!-- Title: printers Pages: 1 -->
<svg width="4793pt" height="116pt"
 viewBox="0.00 0.00 4792.79 116.00" xmlns="http://www.w3.org/2000/svg" xmlns:xlink="http://www.w3.org/1999/xlink">
<g id="graph0" class="graph" transform="scale(1 1) rotate(0) translate(4 112)">
<title>printers</title>
<polygon fill="white" stroke="transparent" points="-4,4 -4,-112 4788.79,-112 4788.79,4 -4,4"/>
<!-- NodeFamily -->
<g id="node1" class="node">
<title>NodeFamily</title>
<ellipse fill="none" stroke="#00868b" cx="66.29" cy="-90" rx="66.09" ry="18"/>
<text text-anchor="middle" x="66.29" y="-86.3" font-family="Times,serif" font-size="14.00">NodeFamily</text>
</g>
<!-- GraphInfo -->
<g id="node2" class="node">
<title>GraphInfo</title>
<ellipse fill="none" stroke="#00868b" cx="208.29" cy="-90" rx="57.69" ry="18"/>
<text text-anchor="middle" x="208.29" y="-86.3" font-family="Times,serif" font-size="14.00">GraphInfo</text>
</g>
<!-- BibFormatter -->
<g id="node3" class="node">
<title>BibFormatter</title>
<ellipse fill="none" stroke="#00868b" cx="357.29" cy="-90" rx="73.39" ry="18"/>
<text text-anchor="middle" x="357.29" y="-86.3" font-family="Times,serif" font-size="14.00">BibFormatter</text>
</g>
<!-- Variation -->
<g id="node4" class="node">
<title>Variation</title>
<ellipse fill="none" stroke="#00868b" cx="501.29" cy="-90" rx="52.79" ry="18"/>
<text text-anchor="middle" x="501.29" y="-86.3" font-family="Times,serif" font-size="14.00">Variation</text>
</g>
<!-- Show -->
<g id="node38" class="node">
<title>Show</title>
<ellipse fill="none" stroke="pink" cx="693.29" cy="-18" rx="36.29" ry="18"/>
<text text-anchor="middle" x="693.29" y="-14.3" font-family="Times,serif" font-size="14.00">Show</text>
</g>
<!-- Variation&#45;&gt;Show -->
<g id="edge1" class="edge">
<title>Variation&#45;&gt;Show</title>
<path fill="none" stroke="black" d="M536.06,-76.32C569.6,-64.1 620.26,-45.63 654.95,-32.98"/>
<polygon fill="black" stroke="black" points="656.53,-36.13 664.73,-29.42 654.13,-29.55 656.53,-36.13"/>
</g>
<!-- PrintHTML -->
<g id="node5" class="node">
<title>PrintHTML</title>
<ellipse fill="none" stroke="#00868b" cx="994.29" cy="-90" rx="63.09" ry="18"/>
<text text-anchor="middle" x="994.29" y="-86.3" font-family="Times,serif" font-size="14.00">PrintHTML</text>
</g>
<!-- RenderSpecial -->
<g id="node39" class="node">
<title>RenderSpecial</title>
<ellipse fill="none" stroke="pink" cx="1052.29" cy="-18" rx="77.99" ry="18"/>
<text text-anchor="middle" x="1052.29" y="-14.3" font-family="Times,serif" font-size="14.00">RenderSpecial</text>
</g>
<!-- PrintHTML&#45;&gt;RenderSpecial -->
<g id="edge2" class="edge">
<title>PrintHTML&#45;&gt;RenderSpecial</title>
<path fill="none" stroke="black" d="M1008.04,-72.41C1015.09,-63.91 1023.81,-53.37 1031.65,-43.91"/>
<polygon fill="black" stroke="black" points="1034.56,-45.89 1038.24,-35.96 1029.17,-41.42 1034.56,-45.89"/>
</g>
<!-- OpenClose -->
<g id="node6" class="node">
<title>OpenClose</title>
<ellipse fill="none" stroke="#00868b" cx="1226.29" cy="-90" rx="60.39" ry="18"/>
<text text-anchor="middle" x="1226.29" y="-86.3" font-family="Times,serif" font-size="14.00">OpenClose</text>
</g>
<!-- SingleLine -->
<g id="node7" class="node">
<title>SingleLine</title>
<ellipse fill="none" stroke="#00868b" cx="1364.29" cy="-90" rx="59.59" ry="18"/>
<text text-anchor="middle" x="1364.29" y="-86.3" font-family="Times,serif" font-size="14.00">SingleLine</text>
</g>
<!-- LinkType -->
<g id="node8" class="node">
<title>LinkType</title>
<ellipse fill="none" stroke="#00868b" cx="1495.29" cy="-90" rx="53.09" ry="18"/>
<text text-anchor="middle" x="1495.29" y="-86.3" font-family="Times,serif" font-size="14.00">LinkType</text>
</g>
<!-- Ops -->
<g id="node9" class="node">
<title>Ops</title>
<ellipse fill="none" stroke="#00868b" cx="1595.29" cy="-90" rx="28.7" ry="18"/>
<text text-anchor="middle" x="1595.29" y="-86.3" font-family="Times,serif" font-size="14.00">Ops</text>
</g>
<!-- Fence -->
<g id="node10" class="node">
<title>Fence</title>
<ellipse fill="none" stroke="#00868b" cx="1680.29" cy="-90" rx="38.19" ry="18"/>
<text text-anchor="middle" x="1680.29" y="-86.3" font-family="Times,serif" font-size="14.00">Fence</text>
</g>
<!-- OverSymb -->
<g id="node11" class="node">
<title>OverSymb</title>
<ellipse fill="none" stroke="#00868b" cx="1796.29" cy="-90" rx="59.59" ry="18"/>
<text text-anchor="middle" x="1796.29" y="-86.3" font-family="Times,serif" font-size="14.00">OverSymb</text>
</g>
<!-- Fonts -->
<g id="node12" class="node">
<title>Fonts</title>
<ellipse fill="none" stroke="#00868b" cx="1910.29" cy="-90" rx="36.29" ry="18"/>
<text text-anchor="middle" x="1910.29" y="-86.3" font-family="Times,serif" font-size="14.00">Fonts</text>
</g>
<!-- Spacing -->
<g id="node13" class="node">
<title>Spacing</title>
<ellipse fill="none" stroke="#00868b" cx="2012.29" cy="-90" rx="48.19" ry="18"/>
<text text-anchor="middle" x="2012.29" y="-86.3" font-family="Times,serif" font-size="14.00">Spacing</text>
</g>
<!-- Expr -->
<g id="node14" class="node">
<title>Expr</title>
<ellipse fill="none" stroke="#00868b" cx="2111.29" cy="-90" rx="33.29" ry="18"/>
<text text-anchor="middle" x="2111.29" y="-86.3" font-family="Times,serif" font-size="14.00">Expr</text>
</g>
<!-- Spec -->
<g id="node15" class="node">
<title>Spec</title>
<ellipse fill="none" stroke="#00868b" cx="2195.29" cy="-90" rx="33.29" ry="18"/>
<text text-anchor="middle" x="2195.29" y="-86.3" font-family="Times,serif" font-size="14.00">Spec</text>
</g>
<!-- ListType -->
<g id="node16" class="node">
<title>ListType</title>
<ellipse fill="none" stroke="#00868b" cx="2297.29" cy="-90" rx="50.89" ry="18"/>
<text text-anchor="middle" x="2297.29" y="-86.3" font-family="Times,serif" font-size="14.00">ListType</text>
</g>
<!-- ItemType -->
<g id="node17" class="node">
<title>ItemType</title>
<ellipse fill="none" stroke="#00868b" cx="2420.29" cy="-90" rx="54.69" ry="18"/>
<text text-anchor="middle" x="2420.29" y="-86.3" font-family="Times,serif" font-size="14.00">ItemType</text>
</g>
<!-- Citation -->
<g id="node18" class="node">
<title>Citation</title>
<ellipse fill="none" stroke="#00868b" cx="2541.29" cy="-90" rx="48.19" ry="18"/>
<text text-anchor="middle" x="2541.29" y="-86.3" font-family="Times,serif" font-size="14.00">Citation</text>
</g>
<!-- CiteField -->
<g id="node19" class="node">
<title>CiteField</title>
<ellipse fill="none" stroke="#00868b" cx="2660.29" cy="-90" rx="53.09" ry="18"/>
<text text-anchor="middle" x="2660.29" y="-86.3" font-family="Times,serif" font-size="14.00">CiteField</text>
</g>
<!-- HP -->
<g id="node20" class="node">
<title>HP</title>
<ellipse fill="none" stroke="#00868b" cx="2758.29" cy="-90" rx="27" ry="18"/>
<text text-anchor="middle" x="2758.29" y="-86.3" font-family="Times,serif" font-size="14.00">HP</text>
</g>
<!-- Document -->
<g id="node21" class="node">
<title>Document</title>
<ellipse fill="none" stroke="#00868b" cx="2861.29" cy="-90" rx="57.69" ry="18"/>
<text text-anchor="middle" x="2861.29" y="-86.3" font-family="Times,serif" font-size="14.00">Document</text>
</g>
<!-- Project -->
<g id="node22" class="node">
<title>Project</title>
<ellipse fill="none" stroke="#00868b" cx="2981.29" cy="-90" rx="44.39" ry="18"/>
<text text-anchor="middle" x="2981.29" y="-86.3" font-family="Times,serif" font-size="14.00">Project</text>
</g>
<!-- File -->
<g id="node23" class="node">
<title>File</title>
<ellipse fill="none" stroke="#00868b" cx="3072.29" cy="-90" rx="28.7" ry="18"/>
<text text-anchor="middle" x="3072.29" y="-86.3" font-family="Times,serif" font-size="14.00">File</text>
</g>
<!-- LayoutObj -->
<g id="node24" class="node">
<title>LayoutObj</title>
<ellipse fill="none" stroke="#00868b" cx="3177.29" cy="-90" rx="58.49" ry="18"/>
<text text-anchor="middle" x="3177.29" y="-86.3" font-family="Times,serif" font-size="14.00">LayoutObj</text>
</g>
<!-- Notation -->
<g id="node25" class="node">
<title>Notation</title>
<ellipse fill="none" stroke="#00868b" cx="3305.29" cy="-90" rx="51.19" ry="18"/>
<text text-anchor="middle" x="3305.29" y="-86.3" font-family="Times,serif" font-size="14.00">Notation</text>
</g>
<!-- PrintingInformation -->
<g id="node26" class="node">
<title>PrintingInformation</title>
<ellipse fill="none" stroke="#00868b" cx="3478.29" cy="-90" rx="103.18" ry="18"/>
<text text-anchor="middle" x="3478.29" y="-86.3" font-family="Times,serif" font-size="14.00">PrintingInformation</text>
</g>
<!-- HasPrintingOptions -->
<g id="node40" class="node">
<title>HasPrintingOptions</title>
<ellipse fill="none" stroke="magenta" cx="3595.29" cy="-18" rx="102.88" ry="18"/>
<text text-anchor="middle" x="3595.29" y="-14.3" font-family="Times,serif" font-size="14.00">HasPrintingOptions</text>
</g>
<!-- PrintingInformation&#45;&gt;HasPrintingOptions -->
<g id="edge4" class="edge">
<title>PrintingInformation&#45;&gt;HasPrintingOptions</title>
<path fill="none" stroke="black" d="M3505.73,-72.59C3521.6,-63.09 3541.77,-51.02 3558.96,-40.74"/>
<polygon fill="black" stroke="black" points="3560.84,-43.69 3567.63,-35.55 3557.25,-37.68 3560.84,-43.69"/>
</g>
<!-- PrintingConfiguration -->
<g id="node27" class="node">
<title>PrintingConfiguration</title>
<ellipse fill="none" stroke="#00868b" cx="3712.29" cy="-90" rx="112.38" ry="18"/>
<text text-anchor="middle" x="3712.29" y="-86.3" font-family="Times,serif" font-size="14.00">PrintingConfiguration</text>
</g>
<!-- PrintingConfiguration&#45;&gt;HasPrintingOptions -->
<g id="edge3" class="edge">
<title>PrintingConfiguration&#45;&gt;HasPrintingOptions</title>
<path fill="none" stroke="black" d="M3684.57,-72.41C3668.68,-62.91 3648.57,-50.88 3631.46,-40.64"/>
<polygon fill="black" stroke="black" points="3633.2,-37.6 3622.82,-35.47 3629.61,-43.61 3633.2,-37.6"/>
</g>
<!-- ExprScale -->
<g id="node28" class="node">
<title>ExprScale</title>
<ellipse fill="none" stroke="#00868b" cx="629.29" cy="-90" rx="57.69" ry="18"/>
<text text-anchor="middle" x="629.29" y="-86.3" font-family="Times,serif" font-size="14.00">ExprScale</text>
</g>
<!-- ExprScale&#45;&gt;Show -->
<g id="edge5" class="edge">
<title>ExprScale&#45;&gt;Show</title>
<path fill="none" stroke="black" d="M644.46,-72.41C652.63,-63.48 662.84,-52.31 671.81,-42.5"/>
<polygon fill="black" stroke="black" points="674.51,-44.73 678.68,-34.99 669.35,-40.01 674.51,-44.73"/>
</g>
<!-- MathContext -->
<g id="node29" class="node">
<title>MathContext</title>
<ellipse fill="none" stroke="#00868b" cx="3914.29" cy="-90" rx="71.49" ry="18"/>
<text text-anchor="middle" x="3914.29" y="-86.3" font-family="Times,serif" font-size="14.00">MathContext</text>
</g>
<!-- PrintLaTeX -->
<g id="node30" class="node">
<title>PrintLaTeX</title>
<ellipse fill="none" stroke="#00868b" cx="4066.29" cy="-90" rx="62.29" ry="18"/>
<text text-anchor="middle" x="4066.29" y="-86.3" font-family="Times,serif" font-size="14.00">PrintLaTeX</text>
</g>
<!-- Functor -->
<g id="node41" class="node">
<title>Functor</title>
<ellipse fill="none" stroke="pink" cx="3938.29" cy="-18" rx="47.39" ry="18"/>
<text text-anchor="middle" x="3938.29" y="-14.3" font-family="Times,serif" font-size="14.00">Functor</text>
</g>
<!-- PrintLaTeX&#45;&gt;Functor -->
<g id="edge6" class="edge">
<title>PrintLaTeX&#45;&gt;Functor</title>
<path fill="none" stroke="black" d="M4038.52,-73.81C4019.39,-63.35 3993.83,-49.37 3973.3,-38.15"/>
<polygon fill="black" stroke="black" points="3974.72,-34.93 3964.27,-33.21 3971.36,-41.07 3974.72,-34.93"/>
</g>
<!-- Applicative -->
<g id="node42" class="node">
<title>Applicative</title>
<ellipse fill="none" stroke="pink" cx="4066.29" cy="-18" rx="62.29" ry="18"/>
<text text-anchor="middle" x="4066.29" y="-14.3" font-family="Times,serif" font-size="14.00">Applicative</text>
</g>
<!-- PrintLaTeX&#45;&gt;Applicative -->
<g id="edge7" class="edge">
<title>PrintLaTeX&#45;&gt;Applicative</title>
<path fill="none" stroke="black" d="M4066.29,-71.7C4066.29,-63.98 4066.29,-54.71 4066.29,-46.11"/>
<polygon fill="black" stroke="black" points="4069.79,-46.1 4066.29,-36.1 4062.79,-46.1 4069.79,-46.1"/>
</g>
<!-- Monad -->
<g id="node43" class="node">
<title>Monad</title>
<ellipse fill="none" stroke="pink" cx="4189.29" cy="-18" rx="42.49" ry="18"/>
<text text-anchor="middle" x="4189.29" y="-14.3" font-family="Times,serif" font-size="14.00">Monad</text>
</g>
<!-- PrintLaTeX&#45;&gt;Monad -->
<g id="edge8" class="edge">
<title>PrintLaTeX&#45;&gt;Monad</title>
<path fill="none" stroke="black" d="M4093.29,-73.64C4111.72,-63.15 4136.28,-49.17 4155.94,-37.98"/>
<polygon fill="black" stroke="black" points="4157.91,-40.89 4164.87,-32.9 4154.45,-34.81 4157.91,-40.89"/>
</g>
<!-- Latex -->
<g id="node31" class="node">
<title>Latex</title>
<ellipse fill="none" stroke="#00868b" cx="1111.29" cy="-90" rx="36.29" ry="18"/>
<text text-anchor="middle" x="1111.29" y="-86.3" font-family="Times,serif" font-size="14.00">Latex</text>
</g>
<!-- Latex&#45;&gt;RenderSpecial -->
<g id="edge11" class="edge">
<title>Latex&#45;&gt;RenderSpecial</title>
<path fill="none" stroke="black" d="M1097.91,-73.12C1090.58,-64.42 1081.33,-53.45 1073.08,-43.66"/>
<polygon fill="black" stroke="black" points="1075.57,-41.19 1066.45,-35.8 1070.22,-45.7 1075.57,-41.19"/>
</g>
<!-- Package -->
<g id="node32" class="node">
<title>Package</title>
<ellipse fill="none" stroke="#00868b" cx="4195.29" cy="-90" rx="48.99" ry="18"/>
<text text-anchor="middle" x="4195.29" y="-86.3" font-family="Times,serif" font-size="14.00">Package</text>
</g>
<!-- Def -->
<g id="node33" class="node">
<title>Def</title>
<ellipse fill="none" stroke="#00868b" cx="4289.29" cy="-90" rx="27" ry="18"/>
<text text-anchor="middle" x="4289.29" y="-86.3" font-family="Times,serif" font-size="14.00">Def</text>
</g>
<!-- FieldWrap -->
<g id="node34" class="node">
<title>FieldWrap</title>
<ellipse fill="none" stroke="#00868b" cx="4392.29" cy="-90" rx="58.49" ry="18"/>
<text text-anchor="middle" x="4392.29" y="-86.3" font-family="Times,serif" font-size="14.00">FieldWrap</text>
</g>
<!-- StyleGuide -->
<g id="node35" class="node">
<title>StyleGuide</title>
<ellipse fill="none" stroke="#00868b" cx="4530.29" cy="-90" rx="61.99" ry="18"/>
<text text-anchor="middle" x="4530.29" y="-86.3" font-family="Times,serif" font-size="14.00">StyleGuide</text>
</g>
<!-- DocType -->
<g id="node36" class="node">
<title>DocType</title>
<ellipse fill="none" stroke="#00868b" cx="756.29" cy="-90" rx="50.89" ry="18"/>
<text text-anchor="middle" x="756.29" y="-86.3" font-family="Times,serif" font-size="14.00">DocType</text>
</g>
<!-- DocType&#45;&gt;Show -->
<g id="edge13" class="edge">
<title>DocType&#45;&gt;Show</title>
<path fill="none" stroke="black" d="M741.36,-72.41C733.32,-63.48 723.27,-52.31 714.44,-42.5"/>
<polygon fill="black" stroke="black" points="716.97,-40.08 707.68,-34.99 711.77,-44.76 716.97,-40.08"/>
</g>
<!-- Format -->
<g id="node37" class="node">
<title>Format</title>
<ellipse fill="none" stroke="#00868b" cx="869.29" cy="-90" rx="44.39" ry="18"/>
<text text-anchor="middle" x="869.29" y="-86.3" font-family="Times,serif" font-size="14.00">Format</text>
</g>
<!-- Format&#45;&gt;Show -->
<g id="edge12" class="edge">
<title>Format&#45;&gt;Show</title>
<path fill="none" stroke="black" d="M838.64,-76.81C808.47,-64.81 762.38,-46.48 730.21,-33.68"/>
<polygon fill="black" stroke="black" points="731.3,-30.35 720.71,-29.9 728.71,-36.85 731.3,-30.35"/>
</g>
<!-- Semigroup -->
<g id="node44" class="node">
<title>Semigroup</title>
<ellipse fill="none" stroke="pink" cx="4614.29" cy="-18" rx="61.99" ry="18"/>
<text text-anchor="middle" x="4614.29" y="-14.3" font-family="Times,serif" font-size="14.00">Semigroup</text>
</g>
<!-- Monoid -->
<g id="node45" class="node">
<title>Monoid</title>
<ellipse fill="none" stroke="pink" cx="4739.29" cy="-18" rx="45.49" ry="18"/>
<text text-anchor="middle" x="4739.29" y="-14.3" font-family="Times,serif" font-size="14.00">Monoid</text>
</g>
<!-- _PrintLaTeX -->
<g id="node46" class="node">
<title>_PrintLaTeX</title>
<ellipse fill="none" stroke="black" cx="4677.29" cy="-90" rx="66.89" ry="18"/>
<text text-anchor="middle" x="4677.29" y="-86.3" font-family="Times,serif" font-size="14.00">_PrintLaTeX</text>
</g>
<!-- _PrintLaTeX&#45;&gt;Semigroup -->
<g id="edge9" class="edge">
<title>_PrintLaTeX&#45;&gt;Semigroup</title>
<path fill="none" stroke="black" d="M4662.36,-72.41C4654.63,-63.82 4645.04,-53.16 4636.46,-43.63"/>
<polygon fill="black" stroke="black" points="4638.85,-41.05 4629.55,-35.96 4633.64,-45.73 4638.85,-41.05"/>
</g>
<!-- _PrintLaTeX&#45;&gt;Monoid -->
<g id="edge10" class="edge">
<title>_PrintLaTeX&#45;&gt;Monoid</title>
<path fill="none" stroke="black" d="M4691.99,-72.41C4699.71,-63.69 4709.32,-52.85 4717.85,-43.21"/>
<polygon fill="black" stroke="black" points="4720.7,-45.28 4724.71,-35.47 4715.46,-40.64 4720.7,-45.28"/>
</g>
</g>
</svg>
