<?xml version="1.0" encoding="UTF-8" standalone="no"?>
<!DOCTYPE svg PUBLIC "-//W3C//DTD SVG 1.1//EN"
 "http://www.w3.org/Graphics/SVG/1.1/DTD/svg11.dtd">
<!-- Generated by graphviz version 2.43.0 (0)
 -->
<!-- Title: printers Pages: 1 -->
<svg width="4633pt" height="116pt"
 viewBox="0.00 0.00 4632.69 116.00" xmlns="http://www.w3.org/2000/svg" xmlns:xlink="http://www.w3.org/1999/xlink">
<g id="graph0" class="graph" transform="scale(1 1) rotate(0) translate(4 112)">
<title>printers</title>
<polygon fill="white" stroke="transparent" points="-4,4 -4,-112 4628.69,-112 4628.69,4 -4,4"/>
<!-- TermAbbr -->
<g id="node1" class="node">
<title>TermAbbr</title>
<ellipse fill="none" stroke="#00868b" cx="57.19" cy="-90" rx="57.39" ry="18"/>
<text text-anchor="middle" x="57.19" y="-86.3" font-family="Times,serif" font-size="14.00">TermAbbr</text>
</g>
<!-- DomDefn -->
<g id="node2" class="node">
<title>DomDefn</title>
<ellipse fill="none" stroke="#00868b" cx="186.19" cy="-90" rx="53.89" ry="18"/>
<text text-anchor="middle" x="186.19" y="-86.3" font-family="Times,serif" font-size="14.00">DomDefn</text>
</g>
<!-- BibFormatter -->
<g id="node3" class="node">
<title>BibFormatter</title>
<ellipse fill="none" stroke="#00868b" cx="331.19" cy="-90" rx="73.39" ry="18"/>
<text text-anchor="middle" x="331.19" y="-86.3" font-family="Times,serif" font-size="14.00">BibFormatter</text>
</g>
<!-- Variation -->
<g id="node4" class="node">
<title>Variation</title>
<ellipse fill="none" stroke="#00868b" cx="475.19" cy="-90" rx="52.79" ry="18"/>
<text text-anchor="middle" x="475.19" y="-86.3" font-family="Times,serif" font-size="14.00">Variation</text>
</g>
<!-- Show -->
<g id="node37" class="node">
<title>Show</title>
<ellipse fill="none" stroke="pink" cx="596.19" cy="-18" rx="36.29" ry="18"/>
<text text-anchor="middle" x="596.19" y="-14.3" font-family="Times,serif" font-size="14.00">Show</text>
</g>
<!-- Variation&#45;&gt;Show -->
<g id="edge1" class="edge">
<title>Variation&#45;&gt;Show</title>
<path fill="none" stroke="black" d="M500.86,-74.15C519.51,-63.37 544.85,-48.7 564.73,-37.21"/>
<polygon fill="black" stroke="black" points="566.52,-40.21 573.43,-32.17 563.02,-34.15 566.52,-40.21"/>
</g>
<!-- PrintHTML -->
<g id="node5" class="node">
<title>PrintHTML</title>
<ellipse fill="none" stroke="#00868b" cx="834.19" cy="-90" rx="63.09" ry="18"/>
<text text-anchor="middle" x="834.19" y="-86.3" font-family="Times,serif" font-size="14.00">PrintHTML</text>
</g>
<!-- RenderSpecial -->
<g id="node38" class="node">
<title>RenderSpecial</title>
<ellipse fill="none" stroke="pink" cx="892.19" cy="-18" rx="77.99" ry="18"/>
<text text-anchor="middle" x="892.19" y="-14.3" font-family="Times,serif" font-size="14.00">RenderSpecial</text>
</g>
<!-- PrintHTML&#45;&gt;RenderSpecial -->
<g id="edge2" class="edge">
<title>PrintHTML&#45;&gt;RenderSpecial</title>
<path fill="none" stroke="black" d="M847.94,-72.41C854.99,-63.91 863.71,-53.37 871.55,-43.91"/>
<polygon fill="black" stroke="black" points="874.46,-45.89 878.15,-35.96 869.07,-41.42 874.46,-45.89"/>
</g>
<!-- OpenClose -->
<g id="node6" class="node">
<title>OpenClose</title>
<ellipse fill="none" stroke="#00868b" cx="1066.19" cy="-90" rx="60.39" ry="18"/>
<text text-anchor="middle" x="1066.19" y="-86.3" font-family="Times,serif" font-size="14.00">OpenClose</text>
</g>
<!-- SingleLine -->
<g id="node7" class="node">
<title>SingleLine</title>
<ellipse fill="none" stroke="#00868b" cx="1204.19" cy="-90" rx="59.59" ry="18"/>
<text text-anchor="middle" x="1204.19" y="-86.3" font-family="Times,serif" font-size="14.00">SingleLine</text>
</g>
<!-- LinkType -->
<g id="node8" class="node">
<title>LinkType</title>
<ellipse fill="none" stroke="#00868b" cx="1335.19" cy="-90" rx="53.09" ry="18"/>
<text text-anchor="middle" x="1335.19" y="-86.3" font-family="Times,serif" font-size="14.00">LinkType</text>
</g>
<!-- Ops -->
<g id="node9" class="node">
<title>Ops</title>
<ellipse fill="none" stroke="#00868b" cx="1435.19" cy="-90" rx="28.7" ry="18"/>
<text text-anchor="middle" x="1435.19" y="-86.3" font-family="Times,serif" font-size="14.00">Ops</text>
</g>
<!-- Fence -->
<g id="node10" class="node">
<title>Fence</title>
<ellipse fill="none" stroke="#00868b" cx="1520.19" cy="-90" rx="38.19" ry="18"/>
<text text-anchor="middle" x="1520.19" y="-86.3" font-family="Times,serif" font-size="14.00">Fence</text>
</g>
<!-- OverSymb -->
<g id="node11" class="node">
<title>OverSymb</title>
<ellipse fill="none" stroke="#00868b" cx="1636.19" cy="-90" rx="59.59" ry="18"/>
<text text-anchor="middle" x="1636.19" y="-86.3" font-family="Times,serif" font-size="14.00">OverSymb</text>
</g>
<!-- Fonts -->
<g id="node12" class="node">
<title>Fonts</title>
<ellipse fill="none" stroke="#00868b" cx="1750.19" cy="-90" rx="36.29" ry="18"/>
<text text-anchor="middle" x="1750.19" y="-86.3" font-family="Times,serif" font-size="14.00">Fonts</text>
</g>
<!-- Spacing -->
<g id="node13" class="node">
<title>Spacing</title>
<ellipse fill="none" stroke="#00868b" cx="1852.19" cy="-90" rx="48.19" ry="18"/>
<text text-anchor="middle" x="1852.19" y="-86.3" font-family="Times,serif" font-size="14.00">Spacing</text>
</g>
<!-- Expr -->
<g id="node14" class="node">
<title>Expr</title>
<ellipse fill="none" stroke="#00868b" cx="1951.19" cy="-90" rx="33.29" ry="18"/>
<text text-anchor="middle" x="1951.19" y="-86.3" font-family="Times,serif" font-size="14.00">Expr</text>
</g>
<!-- Spec -->
<g id="node15" class="node">
<title>Spec</title>
<ellipse fill="none" stroke="#00868b" cx="2035.19" cy="-90" rx="33.29" ry="18"/>
<text text-anchor="middle" x="2035.19" y="-86.3" font-family="Times,serif" font-size="14.00">Spec</text>
</g>
<!-- ListType -->
<g id="node16" class="node">
<title>ListType</title>
<ellipse fill="none" stroke="#00868b" cx="2137.19" cy="-90" rx="50.89" ry="18"/>
<text text-anchor="middle" x="2137.19" y="-86.3" font-family="Times,serif" font-size="14.00">ListType</text>
</g>
<!-- ItemType -->
<g id="node17" class="node">
<title>ItemType</title>
<ellipse fill="none" stroke="#00868b" cx="2260.19" cy="-90" rx="54.69" ry="18"/>
<text text-anchor="middle" x="2260.19" y="-86.3" font-family="Times,serif" font-size="14.00">ItemType</text>
</g>
<!-- Citation -->
<g id="node18" class="node">
<title>Citation</title>
<ellipse fill="none" stroke="#00868b" cx="2381.19" cy="-90" rx="48.19" ry="18"/>
<text text-anchor="middle" x="2381.19" y="-86.3" font-family="Times,serif" font-size="14.00">Citation</text>
</g>
<!-- CiteField -->
<g id="node19" class="node">
<title>CiteField</title>
<ellipse fill="none" stroke="#00868b" cx="2500.19" cy="-90" rx="53.09" ry="18"/>
<text text-anchor="middle" x="2500.19" y="-86.3" font-family="Times,serif" font-size="14.00">CiteField</text>
</g>
<!-- HP -->
<g id="node20" class="node">
<title>HP</title>
<ellipse fill="none" stroke="#00868b" cx="2598.19" cy="-90" rx="27" ry="18"/>
<text text-anchor="middle" x="2598.19" y="-86.3" font-family="Times,serif" font-size="14.00">HP</text>
</g>
<!-- Document -->
<g id="node21" class="node">
<title>Document</title>
<ellipse fill="none" stroke="#00868b" cx="2701.19" cy="-90" rx="57.69" ry="18"/>
<text text-anchor="middle" x="2701.19" y="-86.3" font-family="Times,serif" font-size="14.00">Document</text>
</g>
<!-- Project -->
<g id="node22" class="node">
<title>Project</title>
<ellipse fill="none" stroke="#00868b" cx="2821.19" cy="-90" rx="44.39" ry="18"/>
<text text-anchor="middle" x="2821.19" y="-86.3" font-family="Times,serif" font-size="14.00">Project</text>
</g>
<!-- File -->
<g id="node23" class="node">
<title>File</title>
<ellipse fill="none" stroke="#00868b" cx="2912.19" cy="-90" rx="28.7" ry="18"/>
<text text-anchor="middle" x="2912.19" y="-86.3" font-family="Times,serif" font-size="14.00">File</text>
</g>
<!-- LayoutObj -->
<g id="node24" class="node">
<title>LayoutObj</title>
<ellipse fill="none" stroke="#00868b" cx="3017.19" cy="-90" rx="58.49" ry="18"/>
<text text-anchor="middle" x="3017.19" y="-86.3" font-family="Times,serif" font-size="14.00">LayoutObj</text>
</g>
<!-- Notation -->
<g id="node25" class="node">
<title>Notation</title>
<ellipse fill="none" stroke="#00868b" cx="3145.19" cy="-90" rx="51.19" ry="18"/>
<text text-anchor="middle" x="3145.19" y="-86.3" font-family="Times,serif" font-size="14.00">Notation</text>
</g>
<!-- PrintingInformation -->
<g id="node26" class="node">
<title>PrintingInformation</title>
<ellipse fill="none" stroke="#00868b" cx="3318.19" cy="-90" rx="103.18" ry="18"/>
<text text-anchor="middle" x="3318.19" y="-86.3" font-family="Times,serif" font-size="14.00">PrintingInformation</text>
</g>
<!-- HasPrintingOptions -->
<g id="node39" class="node">
<title>HasPrintingOptions</title>
<ellipse fill="none" stroke="magenta" cx="3435.19" cy="-18" rx="102.88" ry="18"/>
<text text-anchor="middle" x="3435.19" y="-14.3" font-family="Times,serif" font-size="14.00">HasPrintingOptions</text>
</g>
<!-- PrintingInformation&#45;&gt;HasPrintingOptions -->
<g id="edge4" class="edge">
<title>PrintingInformation&#45;&gt;HasPrintingOptions</title>
<path fill="none" stroke="black" d="M3345.63,-72.59C3361.5,-63.09 3381.68,-51.02 3398.86,-40.74"/>
<polygon fill="black" stroke="black" points="3400.75,-43.69 3407.53,-35.55 3397.15,-37.68 3400.75,-43.69"/>
</g>
<!-- PrintingConfiguration -->
<g id="node27" class="node">
<title>PrintingConfiguration</title>
<ellipse fill="none" stroke="#00868b" cx="3552.19" cy="-90" rx="112.38" ry="18"/>
<text text-anchor="middle" x="3552.19" y="-86.3" font-family="Times,serif" font-size="14.00">PrintingConfiguration</text>
</g>
<!-- PrintingConfiguration&#45;&gt;HasPrintingOptions -->
<g id="edge3" class="edge">
<title>PrintingConfiguration&#45;&gt;HasPrintingOptions</title>
<path fill="none" stroke="black" d="M3524.47,-72.41C3508.59,-62.91 3488.47,-50.88 3471.36,-40.64"/>
<polygon fill="black" stroke="black" points="3473.1,-37.6 3462.72,-35.47 3469.51,-43.61 3473.1,-37.6"/>
</g>
<!-- MathContext -->
<g id="node28" class="node">
<title>MathContext</title>
<ellipse fill="none" stroke="#00868b" cx="3754.19" cy="-90" rx="71.49" ry="18"/>
<text text-anchor="middle" x="3754.19" y="-86.3" font-family="Times,serif" font-size="14.00">MathContext</text>
</g>
<!-- PrintLaTeX -->
<g id="node29" class="node">
<title>PrintLaTeX</title>
<ellipse fill="none" stroke="#00868b" cx="3906.19" cy="-90" rx="62.29" ry="18"/>
<text text-anchor="middle" x="3906.19" y="-86.3" font-family="Times,serif" font-size="14.00">PrintLaTeX</text>
</g>
<!-- Functor -->
<g id="node40" class="node">
<title>Functor</title>
<ellipse fill="none" stroke="pink" cx="3778.19" cy="-18" rx="47.39" ry="18"/>
<text text-anchor="middle" x="3778.19" y="-14.3" font-family="Times,serif" font-size="14.00">Functor</text>
</g>
<!-- PrintLaTeX&#45;&gt;Functor -->
<g id="edge5" class="edge">
<title>PrintLaTeX&#45;&gt;Functor</title>
<path fill="none" stroke="black" d="M3878.42,-73.81C3859.29,-63.35 3833.73,-49.37 3813.2,-38.15"/>
<polygon fill="black" stroke="black" points="3814.62,-34.93 3804.17,-33.21 3811.26,-41.07 3814.62,-34.93"/>
</g>
<!-- Applicative -->
<g id="node41" class="node">
<title>Applicative</title>
<ellipse fill="none" stroke="pink" cx="3906.19" cy="-18" rx="62.29" ry="18"/>
<text text-anchor="middle" x="3906.19" y="-14.3" font-family="Times,serif" font-size="14.00">Applicative</text>
</g>
<!-- PrintLaTeX&#45;&gt;Applicative -->
<g id="edge6" class="edge">
<title>PrintLaTeX&#45;&gt;Applicative</title>
<path fill="none" stroke="black" d="M3906.19,-71.7C3906.19,-63.98 3906.19,-54.71 3906.19,-46.11"/>
<polygon fill="black" stroke="black" points="3909.7,-46.1 3906.19,-36.1 3902.7,-46.1 3909.7,-46.1"/>
</g>
<!-- Monad -->
<g id="node42" class="node">
<title>Monad</title>
<ellipse fill="none" stroke="pink" cx="4029.19" cy="-18" rx="42.49" ry="18"/>
<text text-anchor="middle" x="4029.19" y="-14.3" font-family="Times,serif" font-size="14.00">Monad</text>
</g>
<!-- PrintLaTeX&#45;&gt;Monad -->
<g id="edge7" class="edge">
<title>PrintLaTeX&#45;&gt;Monad</title>
<path fill="none" stroke="black" d="M3933.19,-73.64C3951.62,-63.15 3976.18,-49.17 3995.84,-37.98"/>
<polygon fill="black" stroke="black" points="3997.81,-40.89 4004.77,-32.9 3994.35,-34.81 3997.81,-40.89"/>
</g>
<!-- Latex -->
<g id="node30" class="node">
<title>Latex</title>
<ellipse fill="none" stroke="#00868b" cx="951.19" cy="-90" rx="36.29" ry="18"/>
<text text-anchor="middle" x="951.19" y="-86.3" font-family="Times,serif" font-size="14.00">Latex</text>
</g>
<!-- Latex&#45;&gt;RenderSpecial -->
<g id="edge10" class="edge">
<title>Latex&#45;&gt;RenderSpecial</title>
<path fill="none" stroke="black" d="M937.81,-73.12C930.48,-64.42 921.23,-53.45 912.98,-43.66"/>
<polygon fill="black" stroke="black" points="915.47,-41.19 906.35,-35.8 910.12,-45.7 915.47,-41.19"/>
</g>
<!-- Package -->
<g id="node31" class="node">
<title>Package</title>
<ellipse fill="none" stroke="#00868b" cx="4035.19" cy="-90" rx="48.99" ry="18"/>
<text text-anchor="middle" x="4035.19" y="-86.3" font-family="Times,serif" font-size="14.00">Package</text>
</g>
<!-- Def -->
<g id="node32" class="node">
<title>Def</title>
<ellipse fill="none" stroke="#00868b" cx="4129.19" cy="-90" rx="27" ry="18"/>
<text text-anchor="middle" x="4129.19" y="-86.3" font-family="Times,serif" font-size="14.00">Def</text>
</g>
<!-- FieldWrap -->
<g id="node33" class="node">
<title>FieldWrap</title>
<ellipse fill="none" stroke="#00868b" cx="4232.19" cy="-90" rx="58.49" ry="18"/>
<text text-anchor="middle" x="4232.19" y="-86.3" font-family="Times,serif" font-size="14.00">FieldWrap</text>
</g>
<!-- StyleGuide -->
<g id="node34" class="node">
<title>StyleGuide</title>
<ellipse fill="none" stroke="#00868b" cx="4370.19" cy="-90" rx="61.99" ry="18"/>
<text text-anchor="middle" x="4370.19" y="-86.3" font-family="Times,serif" font-size="14.00">StyleGuide</text>
</g>
<!-- DocType -->
<g id="node35" class="node">
<title>DocType</title>
<ellipse fill="none" stroke="#00868b" cx="596.19" cy="-90" rx="50.89" ry="18"/>
<text text-anchor="middle" x="596.19" y="-86.3" font-family="Times,serif" font-size="14.00">DocType</text>
</g>
<!-- DocType&#45;&gt;Show -->
<g id="edge12" class="edge">
<title>DocType&#45;&gt;Show</title>
<path fill="none" stroke="black" d="M596.19,-71.7C596.19,-63.98 596.19,-54.71 596.19,-46.11"/>
<polygon fill="black" stroke="black" points="599.7,-46.1 596.19,-36.1 592.7,-46.1 599.7,-46.1"/>
</g>
<!-- Format -->
<g id="node36" class="node">
<title>Format</title>
<ellipse fill="none" stroke="#00868b" cx="709.19" cy="-90" rx="44.39" ry="18"/>
<text text-anchor="middle" x="709.19" y="-86.3" font-family="Times,serif" font-size="14.00">Format</text>
</g>
<!-- Format&#45;&gt;Show -->
<g id="edge11" class="edge">
<title>Format&#45;&gt;Show</title>
<path fill="none" stroke="black" d="M685.78,-74.5C668.67,-63.9 645.31,-49.42 626.73,-37.92"/>
<polygon fill="black" stroke="black" points="628.39,-34.83 618.05,-32.54 624.7,-40.78 628.39,-34.83"/>
</g>
<!-- Semigroup -->
<g id="node43" class="node">
<title>Semigroup</title>
<ellipse fill="none" stroke="pink" cx="4454.19" cy="-18" rx="61.99" ry="18"/>
<text text-anchor="middle" x="4454.19" y="-14.3" font-family="Times,serif" font-size="14.00">Semigroup</text>
</g>
<!-- Monoid -->
<g id="node44" class="node">
<title>Monoid</title>
<ellipse fill="none" stroke="pink" cx="4579.19" cy="-18" rx="45.49" ry="18"/>
<text text-anchor="middle" x="4579.19" y="-14.3" font-family="Times,serif" font-size="14.00">Monoid</text>
</g>
<!-- _PrintLaTeX -->
<g id="node45" class="node">
<title>_PrintLaTeX</title>
<ellipse fill="none" stroke="black" cx="4517.19" cy="-90" rx="66.89" ry="18"/>
<text text-anchor="middle" x="4517.19" y="-86.3" font-family="Times,serif" font-size="14.00">_PrintLaTeX</text>
</g>
<!-- _PrintLaTeX&#45;&gt;Semigroup -->
<g id="edge8" class="edge">
<title>_PrintLaTeX&#45;&gt;Semigroup</title>
<path fill="none" stroke="black" d="M4502.26,-72.41C4494.53,-63.82 4484.94,-53.16 4476.36,-43.63"/>
<polygon fill="black" stroke="black" points="4478.75,-41.05 4469.46,-35.96 4473.54,-45.73 4478.75,-41.05"/>
</g>
<!-- _PrintLaTeX&#45;&gt;Monoid -->
<g id="edge9" class="edge">
<title>_PrintLaTeX&#45;&gt;Monoid</title>
<path fill="none" stroke="black" d="M4531.89,-72.41C4539.61,-63.69 4549.22,-52.85 4557.75,-43.21"/>
<polygon fill="black" stroke="black" points="4560.6,-45.28 4564.61,-35.47 4555.36,-40.64 4560.6,-45.28"/>
</g>
</g>
</svg>
