<?xml version="1.0" encoding="UTF-8" standalone="no"?>
<!DOCTYPE svg PUBLIC "-//W3C//DTD SVG 1.1//EN"
 "http://www.w3.org/Graphics/SVG/1.1/DTD/svg11.dtd">
<!-- Generated by graphviz version 2.43.0 (0)
 -->
<!-- Title: printers Pages: 1 -->
<svg width="4179pt" height="116pt"
 viewBox="0.00 0.00 4178.79 116.00" xmlns="http://www.w3.org/2000/svg" xmlns:xlink="http://www.w3.org/1999/xlink">
<g id="graph0" class="graph" transform="scale(1 1) rotate(0) translate(4 112)">
<title>printers</title>
<polygon fill="white" stroke="transparent" points="-4,4 -4,-112 4174.79,-112 4174.79,4 -4,4"/>
<!-- NodeFamily -->
<g id="node1" class="node">
<title>NodeFamily</title>
<ellipse fill="none" stroke="#00868b" cx="66.29" cy="-90" rx="66.09" ry="18"/>
<text text-anchor="middle" x="66.29" y="-86.3" font-family="Times,serif" font-size="14.00">NodeFamily</text>
</g>
<!-- GraphInfo -->
<g id="node2" class="node">
<title>GraphInfo</title>
<ellipse fill="none" stroke="#00868b" cx="208.29" cy="-90" rx="57.69" ry="18"/>
<text text-anchor="middle" x="208.29" y="-86.3" font-family="Times,serif" font-size="14.00">GraphInfo</text>
</g>
<!-- Variation -->
<g id="node3" class="node">
<title>Variation</title>
<ellipse fill="none" stroke="#00868b" cx="336.29" cy="-90" rx="52.79" ry="18"/>
<text text-anchor="middle" x="336.29" y="-86.3" font-family="Times,serif" font-size="14.00">Variation</text>
</g>
<!-- PrintHTML -->
<g id="node4" class="node">
<title>PrintHTML</title>
<ellipse fill="none" stroke="#00868b" cx="470.29" cy="-90" rx="63.09" ry="18"/>
<text text-anchor="middle" x="470.29" y="-86.3" font-family="Times,serif" font-size="14.00">PrintHTML</text>
</g>
<!-- RenderSpecial -->
<g id="node33" class="node">
<title>RenderSpecial</title>
<ellipse fill="none" stroke="pink" cx="529.29" cy="-18" rx="77.99" ry="18"/>
<text text-anchor="middle" x="529.29" y="-14.3" font-family="Times,serif" font-size="14.00">RenderSpecial</text>
</g>
<!-- PrintHTML&#45;&gt;RenderSpecial -->
<g id="edge1" class="edge">
<title>PrintHTML&#45;&gt;RenderSpecial</title>
<path fill="none" stroke="black" d="M484.28,-72.41C491.52,-63.82 500.5,-53.16 508.54,-43.63"/>
<polygon fill="black" stroke="black" points="511.23,-45.86 515,-35.96 505.88,-41.35 511.23,-45.86"/>
</g>
<!-- OpenClose -->
<g id="node5" class="node">
<title>OpenClose</title>
<ellipse fill="none" stroke="#00868b" cx="702.29" cy="-90" rx="60.39" ry="18"/>
<text text-anchor="middle" x="702.29" y="-86.3" font-family="Times,serif" font-size="14.00">OpenClose</text>
</g>
<!-- Linearity -->
<g id="node6" class="node">
<title>Linearity</title>
<ellipse fill="none" stroke="#00868b" cx="833.29" cy="-90" rx="52.79" ry="18"/>
<text text-anchor="middle" x="833.29" y="-86.3" font-family="Times,serif" font-size="14.00">Linearity</text>
</g>
<!-- LinkType -->
<g id="node7" class="node">
<title>LinkType</title>
<ellipse fill="none" stroke="#00868b" cx="957.29" cy="-90" rx="53.09" ry="18"/>
<text text-anchor="middle" x="957.29" y="-86.3" font-family="Times,serif" font-size="14.00">LinkType</text>
</g>
<!-- Ops -->
<g id="node8" class="node">
<title>Ops</title>
<ellipse fill="none" stroke="#00868b" cx="1057.29" cy="-90" rx="28.7" ry="18"/>
<text text-anchor="middle" x="1057.29" y="-86.3" font-family="Times,serif" font-size="14.00">Ops</text>
</g>
<!-- Fence -->
<g id="node9" class="node">
<title>Fence</title>
<ellipse fill="none" stroke="#00868b" cx="1142.29" cy="-90" rx="38.19" ry="18"/>
<text text-anchor="middle" x="1142.29" y="-86.3" font-family="Times,serif" font-size="14.00">Fence</text>
</g>
<!-- OverSymb -->
<g id="node10" class="node">
<title>OverSymb</title>
<ellipse fill="none" stroke="#00868b" cx="1258.29" cy="-90" rx="59.59" ry="18"/>
<text text-anchor="middle" x="1258.29" y="-86.3" font-family="Times,serif" font-size="14.00">OverSymb</text>
</g>
<!-- Fonts -->
<g id="node11" class="node">
<title>Fonts</title>
<ellipse fill="none" stroke="#00868b" cx="1372.29" cy="-90" rx="36.29" ry="18"/>
<text text-anchor="middle" x="1372.29" y="-86.3" font-family="Times,serif" font-size="14.00">Fonts</text>
</g>
<!-- Spacing -->
<g id="node12" class="node">
<title>Spacing</title>
<ellipse fill="none" stroke="#00868b" cx="1474.29" cy="-90" rx="48.19" ry="18"/>
<text text-anchor="middle" x="1474.29" y="-86.3" font-family="Times,serif" font-size="14.00">Spacing</text>
</g>
<!-- Expr -->
<g id="node13" class="node">
<title>Expr</title>
<ellipse fill="none" stroke="#00868b" cx="1573.29" cy="-90" rx="33.29" ry="18"/>
<text text-anchor="middle" x="1573.29" y="-86.3" font-family="Times,serif" font-size="14.00">Expr</text>
</g>
<!-- Spec -->
<g id="node14" class="node">
<title>Spec</title>
<ellipse fill="none" stroke="#00868b" cx="1657.29" cy="-90" rx="33.29" ry="18"/>
<text text-anchor="middle" x="1657.29" y="-86.3" font-family="Times,serif" font-size="14.00">Spec</text>
</g>
<!-- ListType -->
<g id="node15" class="node">
<title>ListType</title>
<ellipse fill="none" stroke="#00868b" cx="1759.29" cy="-90" rx="50.89" ry="18"/>
<text text-anchor="middle" x="1759.29" y="-86.3" font-family="Times,serif" font-size="14.00">ListType</text>
</g>
<!-- ItemType -->
<g id="node16" class="node">
<title>ItemType</title>
<ellipse fill="none" stroke="#00868b" cx="1882.29" cy="-90" rx="54.69" ry="18"/>
<text text-anchor="middle" x="1882.29" y="-86.3" font-family="Times,serif" font-size="14.00">ItemType</text>
</g>
<!-- Citation -->
<g id="node17" class="node">
<title>Citation</title>
<ellipse fill="none" stroke="#00868b" cx="2003.29" cy="-90" rx="48.19" ry="18"/>
<text text-anchor="middle" x="2003.29" y="-86.3" font-family="Times,serif" font-size="14.00">Citation</text>
</g>
<!-- CiteField -->
<g id="node18" class="node">
<title>CiteField</title>
<ellipse fill="none" stroke="#00868b" cx="2122.29" cy="-90" rx="53.09" ry="18"/>
<text text-anchor="middle" x="2122.29" y="-86.3" font-family="Times,serif" font-size="14.00">CiteField</text>
</g>
<!-- HP -->
<g id="node19" class="node">
<title>HP</title>
<ellipse fill="none" stroke="#00868b" cx="2220.29" cy="-90" rx="27" ry="18"/>
<text text-anchor="middle" x="2220.29" y="-86.3" font-family="Times,serif" font-size="14.00">HP</text>
</g>
<!-- Document -->
<g id="node20" class="node">
<title>Document</title>
<ellipse fill="none" stroke="#00868b" cx="2323.29" cy="-90" rx="57.69" ry="18"/>
<text text-anchor="middle" x="2323.29" y="-86.3" font-family="Times,serif" font-size="14.00">Document</text>
</g>
<!-- LayoutObj -->
<g id="node21" class="node">
<title>LayoutObj</title>
<ellipse fill="none" stroke="#00868b" cx="2457.29" cy="-90" rx="58.49" ry="18"/>
<text text-anchor="middle" x="2457.29" y="-86.3" font-family="Times,serif" font-size="14.00">LayoutObj</text>
</g>
<!-- Notation -->
<g id="node22" class="node">
<title>Notation</title>
<ellipse fill="none" stroke="#00868b" cx="2585.29" cy="-90" rx="51.19" ry="18"/>
<text text-anchor="middle" x="2585.29" y="-86.3" font-family="Times,serif" font-size="14.00">Notation</text>
</g>
<!-- PrintingInformation -->
<g id="node23" class="node">
<title>PrintingInformation</title>
<ellipse fill="none" stroke="#00868b" cx="2758.29" cy="-90" rx="103.18" ry="18"/>
<text text-anchor="middle" x="2758.29" y="-86.3" font-family="Times,serif" font-size="14.00">PrintingInformation</text>
</g>
<!-- HasPrintingOptions -->
<g id="node34" class="node">
<title>HasPrintingOptions</title>
<ellipse fill="none" stroke="magenta" cx="2875.29" cy="-18" rx="102.88" ry="18"/>
<text text-anchor="middle" x="2875.29" y="-14.3" font-family="Times,serif" font-size="14.00">HasPrintingOptions</text>
</g>
<!-- PrintingInformation&#45;&gt;HasPrintingOptions -->
<g id="edge3" class="edge">
<title>PrintingInformation&#45;&gt;HasPrintingOptions</title>
<path fill="none" stroke="black" d="M2785.73,-72.59C2801.6,-63.09 2821.77,-51.02 2838.96,-40.74"/>
<polygon fill="black" stroke="black" points="2840.84,-43.69 2847.63,-35.55 2837.25,-37.68 2840.84,-43.69"/>
</g>
<!-- PrintingConfiguration -->
<g id="node24" class="node">
<title>PrintingConfiguration</title>
<ellipse fill="none" stroke="#00868b" cx="2992.29" cy="-90" rx="112.38" ry="18"/>
<text text-anchor="middle" x="2992.29" y="-86.3" font-family="Times,serif" font-size="14.00">PrintingConfiguration</text>
</g>
<!-- PrintingConfiguration&#45;&gt;HasPrintingOptions -->
<g id="edge2" class="edge">
<title>PrintingConfiguration&#45;&gt;HasPrintingOptions</title>
<path fill="none" stroke="black" d="M2964.57,-72.41C2948.68,-62.91 2928.57,-50.88 2911.46,-40.64"/>
<polygon fill="black" stroke="black" points="2913.2,-37.6 2902.82,-35.47 2909.61,-43.61 2913.2,-37.6"/>
</g>
<!-- MathContext -->
<g id="node25" class="node">
<title>MathContext</title>
<ellipse fill="none" stroke="#00868b" cx="3194.29" cy="-90" rx="71.49" ry="18"/>
<text text-anchor="middle" x="3194.29" y="-86.3" font-family="Times,serif" font-size="14.00">MathContext</text>
</g>
<!-- PrintLaTeX -->
<g id="node26" class="node">
<title>PrintLaTeX</title>
<ellipse fill="none" stroke="#00868b" cx="3346.29" cy="-90" rx="62.29" ry="18"/>
<text text-anchor="middle" x="3346.29" y="-86.3" font-family="Times,serif" font-size="14.00">PrintLaTeX</text>
</g>
<!-- Functor -->
<g id="node35" class="node">
<title>Functor</title>
<ellipse fill="none" stroke="pink" cx="3218.29" cy="-18" rx="47.39" ry="18"/>
<text text-anchor="middle" x="3218.29" y="-14.3" font-family="Times,serif" font-size="14.00">Functor</text>
</g>
<!-- PrintLaTeX&#45;&gt;Functor -->
<g id="edge4" class="edge">
<title>PrintLaTeX&#45;&gt;Functor</title>
<path fill="none" stroke="black" d="M3318.52,-73.81C3299.39,-63.35 3273.83,-49.37 3253.3,-38.15"/>
<polygon fill="black" stroke="black" points="3254.72,-34.93 3244.27,-33.21 3251.36,-41.07 3254.72,-34.93"/>
</g>
<!-- Applicative -->
<g id="node36" class="node">
<title>Applicative</title>
<ellipse fill="none" stroke="pink" cx="3346.29" cy="-18" rx="62.29" ry="18"/>
<text text-anchor="middle" x="3346.29" y="-14.3" font-family="Times,serif" font-size="14.00">Applicative</text>
</g>
<!-- PrintLaTeX&#45;&gt;Applicative -->
<g id="edge5" class="edge">
<title>PrintLaTeX&#45;&gt;Applicative</title>
<path fill="none" stroke="black" d="M3346.29,-71.7C3346.29,-63.98 3346.29,-54.71 3346.29,-46.11"/>
<polygon fill="black" stroke="black" points="3349.79,-46.1 3346.29,-36.1 3342.79,-46.1 3349.79,-46.1"/>
</g>
<!-- Monad -->
<g id="node37" class="node">
<title>Monad</title>
<ellipse fill="none" stroke="pink" cx="3469.29" cy="-18" rx="42.49" ry="18"/>
<text text-anchor="middle" x="3469.29" y="-14.3" font-family="Times,serif" font-size="14.00">Monad</text>
</g>
<!-- PrintLaTeX&#45;&gt;Monad -->
<g id="edge6" class="edge">
<title>PrintLaTeX&#45;&gt;Monad</title>
<path fill="none" stroke="black" d="M3373.29,-73.64C3391.72,-63.15 3416.28,-49.17 3435.94,-37.98"/>
<polygon fill="black" stroke="black" points="3437.91,-40.89 3444.87,-32.9 3434.45,-34.81 3437.91,-40.89"/>
</g>
<!-- Latex -->
<g id="node27" class="node">
<title>Latex</title>
<ellipse fill="none" stroke="#00868b" cx="587.29" cy="-90" rx="36.29" ry="18"/>
<text text-anchor="middle" x="587.29" y="-86.3" font-family="Times,serif" font-size="14.00">Latex</text>
</g>
<!-- Latex&#45;&gt;RenderSpecial -->
<g id="edge9" class="edge">
<title>Latex&#45;&gt;RenderSpecial</title>
<path fill="none" stroke="black" d="M574.13,-73.12C566.93,-64.42 557.84,-53.45 549.73,-43.66"/>
<polygon fill="black" stroke="black" points="552.29,-41.26 543.21,-35.8 546.9,-45.73 552.29,-41.26"/>
</g>
<!-- Package -->
<g id="node28" class="node">
<title>Package</title>
<ellipse fill="none" stroke="#00868b" cx="3475.29" cy="-90" rx="48.99" ry="18"/>
<text text-anchor="middle" x="3475.29" y="-86.3" font-family="Times,serif" font-size="14.00">Package</text>
</g>
<!-- Def -->
<g id="node29" class="node">
<title>Def</title>
<ellipse fill="none" stroke="#00868b" cx="3569.29" cy="-90" rx="27" ry="18"/>
<text text-anchor="middle" x="3569.29" y="-86.3" font-family="Times,serif" font-size="14.00">Def</text>
</g>
<!-- FieldWrap -->
<g id="node30" class="node">
<title>FieldWrap</title>
<ellipse fill="none" stroke="#00868b" cx="3672.29" cy="-90" rx="58.49" ry="18"/>
<text text-anchor="middle" x="3672.29" y="-86.3" font-family="Times,serif" font-size="14.00">FieldWrap</text>
</g>
<!-- StyleGuide -->
<g id="node31" class="node">
<title>StyleGuide</title>
<ellipse fill="none" stroke="#00868b" cx="3810.29" cy="-90" rx="61.99" ry="18"/>
<text text-anchor="middle" x="3810.29" y="-86.3" font-family="Times,serif" font-size="14.00">StyleGuide</text>
</g>
<!-- Format -->
<g id="node32" class="node">
<title>Format</title>
<ellipse fill="none" stroke="#00868b" cx="3934.29" cy="-90" rx="44.39" ry="18"/>
<text text-anchor="middle" x="3934.29" y="-86.3" font-family="Times,serif" font-size="14.00">Format</text>
</g>
<!-- Semigroup -->
<g id="node38" class="node">
<title>Semigroup</title>
<ellipse fill="none" stroke="pink" cx="4000.29" cy="-18" rx="61.99" ry="18"/>
<text text-anchor="middle" x="4000.29" y="-14.3" font-family="Times,serif" font-size="14.00">Semigroup</text>
</g>
<!-- Monoid -->
<g id="node39" class="node">
<title>Monoid</title>
<ellipse fill="none" stroke="pink" cx="4125.29" cy="-18" rx="45.49" ry="18"/>
<text text-anchor="middle" x="4125.29" y="-14.3" font-family="Times,serif" font-size="14.00">Monoid</text>
</g>
<!-- _PrintLaTeX -->
<g id="node40" class="node">
<title>_PrintLaTeX</title>
<ellipse fill="none" stroke="black" cx="4063.29" cy="-90" rx="66.89" ry="18"/>
<text text-anchor="middle" x="4063.29" y="-86.3" font-family="Times,serif" font-size="14.00">_PrintLaTeX</text>
</g>
<!-- _PrintLaTeX&#45;&gt;Semigroup -->
<g id="edge7" class="edge">
<title>_PrintLaTeX&#45;&gt;Semigroup</title>
<path fill="none" stroke="black" d="M4048.36,-72.41C4040.63,-63.82 4031.04,-53.16 4022.46,-43.63"/>
<polygon fill="black" stroke="black" points="4024.85,-41.05 4015.55,-35.96 4019.64,-45.73 4024.85,-41.05"/>
</g>
<!-- _PrintLaTeX&#45;&gt;Monoid -->
<g id="edge8" class="edge">
<title>_PrintLaTeX&#45;&gt;Monoid</title>
<path fill="none" stroke="black" d="M4077.99,-72.41C4085.71,-63.69 4095.32,-52.85 4103.85,-43.21"/>
<polygon fill="black" stroke="black" points="4106.7,-45.28 4110.71,-35.47 4101.46,-40.64 4106.7,-45.28"/>
</g>
</g>
</svg>
