<?xml version="1.0" encoding="UTF-8" standalone="no"?>
<!DOCTYPE svg PUBLIC "-//W3C//DTD SVG 1.1//EN"
 "http://www.w3.org/Graphics/SVG/1.1/DTD/svg11.dtd">
<!-- Generated by graphviz version 2.43.0 (0)
 -->
<!-- Title: theory Pages: 1 -->
<svg width="3838pt" height="116pt"
 viewBox="0.00 0.00 3838.29 116.00" xmlns="http://www.w3.org/2000/svg" xmlns:xlink="http://www.w3.org/1999/xlink">
<g id="graph0" class="graph" transform="scale(1 1) rotate(0) translate(4 112)">
<title>theory</title>
<polygon fill="white" stroke="transparent" points="-4,4 -4,-112 3834.29,-112 3834.29,4 -4,4"/>
<!-- ConstraintSet -->
<g id="node1" class="node">
<title>ConstraintSet</title>
<ellipse fill="none" stroke="#00868b" cx="75.39" cy="-90" rx="75.29" ry="18"/>
<text text-anchor="middle" x="75.39" y="-86.3" font-family="Times,serif" font-size="14.00">ConstraintSet</text>
</g>
<!-- ScopeType -->
<g id="node2" class="node">
<title>ScopeType</title>
<ellipse fill="none" stroke="#00868b" cx="229.39" cy="-90" rx="61.19" ry="18"/>
<text text-anchor="middle" x="229.39" y="-86.3" font-family="Times,serif" font-size="14.00">ScopeType</text>
</g>
<!-- DDPkt -->
<g id="node3" class="node">
<title>DDPkt</title>
<ellipse fill="none" stroke="#00868b" cx="349.39" cy="-90" rx="40.89" ry="18"/>
<text text-anchor="middle" x="349.39" y="-86.3" font-family="Times,serif" font-size="14.00">DDPkt</text>
</g>
<!-- DataDefinition -->
<g id="node4" class="node">
<title>DataDefinition</title>
<ellipse fill="none" stroke="#00868b" cx="1901.39" cy="-90" rx="77.99" ry="18"/>
<text text-anchor="middle" x="1901.39" y="-86.3" font-family="Times,serif" font-size="14.00">DataDefinition</text>
</g>
<!-- HasUID -->
<g id="node14" class="node">
<title>HasUID</title>
<ellipse fill="none" stroke="pink" cx="1252.39" cy="-18" rx="47.39" ry="18"/>
<text text-anchor="middle" x="1252.39" y="-14.3" font-family="Times,serif" font-size="14.00">HasUID</text>
</g>
<!-- DataDefinition&#45;&gt;HasUID -->
<g id="edge7" class="edge">
<title>DataDefinition&#45;&gt;HasUID</title>
<path fill="none" stroke="black" d="M1830.02,-82.67C1673.07,-68.74 1311.57,-36.62 1308.39,-36 1304.47,-35.24 1300.42,-34.31 1296.39,-33.28"/>
<polygon fill="black" stroke="black" points="1297.04,-29.83 1286.47,-30.56 1295.19,-36.58 1297.04,-29.83"/>
</g>
<!-- NamedIdea -->
<g id="node15" class="node">
<title>NamedIdea</title>
<ellipse fill="none" stroke="pink" cx="1460.39" cy="-18" rx="63.89" ry="18"/>
<text text-anchor="middle" x="1460.39" y="-14.3" font-family="Times,serif" font-size="14.00">NamedIdea</text>
</g>
<!-- DataDefinition&#45;&gt;NamedIdea -->
<g id="edge8" class="edge">
<title>DataDefinition&#45;&gt;NamedIdea</title>
<path fill="none" stroke="black" d="M1833.42,-81.08C1759.16,-72 1636.84,-55.79 1532.39,-36 1527.11,-35 1521.63,-33.87 1516.15,-32.68"/>
<polygon fill="black" stroke="black" points="1516.88,-29.26 1506.35,-30.5 1515.35,-36.09 1516.88,-29.26"/>
</g>
<!-- Idea -->
<g id="node16" class="node">
<title>Idea</title>
<ellipse fill="none" stroke="pink" cx="1348.39" cy="-18" rx="30.59" ry="18"/>
<text text-anchor="middle" x="1348.39" y="-14.3" font-family="Times,serif" font-size="14.00">Idea</text>
</g>
<!-- DataDefinition&#45;&gt;Idea -->
<g id="edge9" class="edge">
<title>DataDefinition&#45;&gt;Idea</title>
<path fill="none" stroke="black" d="M1830.83,-82.3C1694.97,-69.33 1408.52,-41.55 1387.39,-36 1385.1,-35.4 1382.77,-34.68 1380.45,-33.89"/>
<polygon fill="black" stroke="black" points="1381.66,-30.6 1371.07,-30.28 1379.15,-37.13 1381.66,-30.6"/>
</g>
<!-- ConceptDomain -->
<g id="node18" class="node">
<title>ConceptDomain</title>
<ellipse fill="none" stroke="pink" cx="973.39" cy="-18" rx="84.49" ry="18"/>
<text text-anchor="middle" x="973.39" y="-14.3" font-family="Times,serif" font-size="14.00">ConceptDomain</text>
</g>
<!-- DataDefinition&#45;&gt;ConceptDomain -->
<g id="edge22" class="edge">
<title>DataDefinition&#45;&gt;ConceptDomain</title>
<path fill="none" stroke="black" d="M1830.77,-82.2C1794.51,-78.84 1749.61,-74.91 1709.39,-72 1423.91,-51.38 1350.62,-69.8 1066.39,-36 1058.72,-35.09 1050.71,-33.93 1042.77,-32.66"/>
<polygon fill="black" stroke="black" points="1043.2,-29.18 1032.76,-30.99 1042.05,-36.09 1043.2,-29.18"/>
</g>
<!-- Express -->
<g id="node19" class="node">
<title>Express</title>
<ellipse fill="none" stroke="pink" cx="822.39" cy="-18" rx="48.19" ry="18"/>
<text text-anchor="middle" x="822.39" y="-14.3" font-family="Times,serif" font-size="14.00">Express</text>
</g>
<!-- DataDefinition&#45;&gt;Express -->
<g id="edge13" class="edge">
<title>DataDefinition&#45;&gt;Express</title>
<path fill="none" stroke="black" d="M1831.23,-82.03C1794.9,-78.61 1749.8,-74.66 1709.39,-72 1341.4,-47.73 1244.22,-96.31 880.39,-36 875.96,-35.27 871.4,-34.3 866.86,-33.21"/>
<polygon fill="black" stroke="black" points="867.6,-29.78 857.04,-30.63 865.83,-36.55 867.6,-29.78"/>
</g>
<!-- HasSpace -->
<g id="node20" class="node">
<title>HasSpace</title>
<ellipse fill="none" stroke="pink" cx="1598.39" cy="-18" rx="56.59" ry="18"/>
<text text-anchor="middle" x="1598.39" y="-14.3" font-family="Times,serif" font-size="14.00">HasSpace</text>
</g>
<!-- DataDefinition&#45;&gt;HasSpace -->
<g id="edge10" class="edge">
<title>DataDefinition&#45;&gt;HasSpace</title>
<path fill="none" stroke="black" d="M1845.96,-77.26C1797.64,-66.88 1725.73,-51.09 1663.39,-36 1659.07,-34.95 1654.59,-33.84 1650.09,-32.71"/>
<polygon fill="black" stroke="black" points="1650.85,-29.29 1640.3,-30.2 1649.12,-36.07 1650.85,-29.29"/>
</g>
<!-- HasSymbol -->
<g id="node21" class="node">
<title>HasSymbol</title>
<ellipse fill="none" stroke="pink" cx="1736.39" cy="-18" rx="63.89" ry="18"/>
<text text-anchor="middle" x="1736.39" y="-14.3" font-family="Times,serif" font-size="14.00">HasSymbol</text>
</g>
<!-- DataDefinition&#45;&gt;HasSymbol -->
<g id="edge11" class="edge">
<title>DataDefinition&#45;&gt;HasSymbol</title>
<path fill="none" stroke="black" d="M1865.59,-73.81C1840.35,-63.1 1806.42,-48.71 1779.66,-37.36"/>
<polygon fill="black" stroke="black" points="1780.73,-34.01 1770.16,-33.32 1777.99,-40.45 1780.73,-34.01"/>
</g>
<!-- Quantity -->
<g id="node22" class="node">
<title>Quantity</title>
<ellipse fill="none" stroke="pink" cx="1869.39" cy="-18" rx="51.19" ry="18"/>
<text text-anchor="middle" x="1869.39" y="-14.3" font-family="Times,serif" font-size="14.00">Quantity</text>
</g>
<!-- DataDefinition&#45;&gt;Quantity -->
<g id="edge12" class="edge">
<title>DataDefinition&#45;&gt;Quantity</title>
<path fill="none" stroke="black" d="M1893.65,-72.05C1890.01,-64.09 1885.58,-54.41 1881.51,-45.51"/>
<polygon fill="black" stroke="black" points="1884.63,-43.91 1877.29,-36.28 1878.27,-46.83 1884.63,-43.91"/>
</g>
<!-- HasReference -->
<g id="node23" class="node">
<title>HasReference</title>
<ellipse fill="none" stroke="pink" cx="3103.39" cy="-18" rx="75.29" ry="18"/>
<text text-anchor="middle" x="3103.39" y="-14.3" font-family="Times,serif" font-size="14.00">HasReference</text>
</g>
<!-- DataDefinition&#45;&gt;HasReference -->
<g id="edge14" class="edge">
<title>DataDefinition&#45;&gt;HasReference</title>
<path fill="none" stroke="black" d="M1967.67,-80.34C1993.45,-77.26 2023.26,-74.05 2050.39,-72 2480.13,-39.55 2591.45,-86.91 3019.39,-36 3026.24,-35.19 3033.37,-34.11 3040.44,-32.89"/>
<polygon fill="black" stroke="black" points="3041.52,-36.25 3050.73,-31.02 3040.27,-29.36 3041.52,-36.25"/>
</g>
<!-- HasDecRef -->
<g id="node24" class="node">
<title>HasDecRef</title>
<ellipse fill="none" stroke="pink" cx="3258.39" cy="-18" rx="61.99" ry="18"/>
<text text-anchor="middle" x="3258.39" y="-14.3" font-family="Times,serif" font-size="14.00">HasDecRef</text>
</g>
<!-- DataDefinition&#45;&gt;HasDecRef -->
<g id="edge15" class="edge">
<title>DataDefinition&#45;&gt;HasDecRef</title>
<path fill="none" stroke="black" d="M1967.3,-80.3C1993.16,-77.2 2023.13,-73.98 2050.39,-72 2554.65,-35.31 2686.29,-103.21 3187.39,-36 3193.19,-35.22 3199.2,-34.17 3205.16,-32.98"/>
<polygon fill="black" stroke="black" points="3206.06,-36.36 3215.1,-30.84 3204.59,-29.52 3206.06,-36.36"/>
</g>
<!-- Eq -->
<g id="node25" class="node">
<title>Eq</title>
<ellipse fill="none" stroke="pink" cx="729.39" cy="-18" rx="27" ry="18"/>
<text text-anchor="middle" x="729.39" y="-14.3" font-family="Times,serif" font-size="14.00">Eq</text>
</g>
<!-- DataDefinition&#45;&gt;Eq -->
<g id="edge16" class="edge">
<title>DataDefinition&#45;&gt;Eq</title>
<path fill="none" stroke="black" d="M1831.24,-81.94C1794.91,-78.5 1749.8,-74.56 1709.39,-72 1499.88,-58.74 969.32,-85.83 765.39,-36 763.21,-35.47 761,-34.8 758.81,-34.03"/>
<polygon fill="black" stroke="black" points="760.01,-30.74 749.43,-30.2 757.36,-37.22 760.01,-30.74"/>
</g>
<!-- HasDerivation -->
<g id="node26" class="node">
<title>HasDerivation</title>
<ellipse fill="none" stroke="pink" cx="2461.39" cy="-18" rx="77.19" ry="18"/>
<text text-anchor="middle" x="2461.39" y="-14.3" font-family="Times,serif" font-size="14.00">HasDerivation</text>
</g>
<!-- DataDefinition&#45;&gt;HasDerivation -->
<g id="edge17" class="edge">
<title>DataDefinition&#45;&gt;HasDerivation</title>
<path fill="none" stroke="black" d="M1969.63,-81.17C1994.99,-78.27 2024,-74.97 2050.39,-72 2194.37,-55.79 2231.17,-57.91 2374.39,-36 2381.4,-34.93 2388.7,-33.69 2395.97,-32.38"/>
<polygon fill="black" stroke="black" points="2396.62,-35.82 2405.82,-30.57 2395.35,-28.94 2396.62,-35.82"/>
</g>
<!-- HasAdditionalNotes -->
<g id="node27" class="node">
<title>HasAdditionalNotes</title>
<ellipse fill="none" stroke="pink" cx="3441.39" cy="-18" rx="103.18" ry="18"/>
<text text-anchor="middle" x="3441.39" y="-14.3" font-family="Times,serif" font-size="14.00">HasAdditionalNotes</text>
</g>
<!-- DataDefinition&#45;&gt;HasAdditionalNotes -->
<g id="edge18" class="edge">
<title>DataDefinition&#45;&gt;HasAdditionalNotes</title>
<path fill="none" stroke="black" d="M1967.3,-80.25C1993.16,-77.14 2023.12,-73.94 2050.39,-72 2617.64,-31.73 2762.99,-86.76 3329.39,-36 3339.49,-35.1 3350.06,-33.87 3360.5,-32.48"/>
<polygon fill="black" stroke="black" points="3361.02,-35.94 3370.45,-31.11 3360.07,-29.01 3361.02,-35.94"/>
</g>
<!-- MayHaveUnit -->
<g id="node28" class="node">
<title>MayHaveUnit</title>
<ellipse fill="none" stroke="pink" cx="2014.39" cy="-18" rx="75.29" ry="18"/>
<text text-anchor="middle" x="2014.39" y="-14.3" font-family="Times,serif" font-size="14.00">MayHaveUnit</text>
</g>
<!-- DataDefinition&#45;&gt;MayHaveUnit -->
<g id="edge19" class="edge">
<title>DataDefinition&#45;&gt;MayHaveUnit</title>
<path fill="none" stroke="black" d="M1927.32,-72.94C1942.97,-63.25 1963.09,-50.78 1980.05,-40.27"/>
<polygon fill="black" stroke="black" points="1981.93,-43.23 1988.59,-34.98 1978.25,-37.28 1981.93,-43.23"/>
</g>
<!-- HasShortName -->
<g id="node29" class="node">
<title>HasShortName</title>
<ellipse fill="none" stroke="pink" cx="3644.39" cy="-18" rx="81.79" ry="18"/>
<text text-anchor="middle" x="3644.39" y="-14.3" font-family="Times,serif" font-size="14.00">HasShortName</text>
</g>
<!-- DataDefinition&#45;&gt;HasShortName -->
<g id="edge20" class="edge">
<title>DataDefinition&#45;&gt;HasShortName</title>
<path fill="none" stroke="black" d="M1967.29,-80.19C1993.15,-77.08 2023.12,-73.88 2050.39,-72 2717.01,-26.08 2888.83,-105.58 3553.39,-36 3561.35,-35.17 3569.65,-34.02 3577.86,-32.7"/>
<polygon fill="black" stroke="black" points="3578.52,-36.14 3587.8,-31.03 3577.36,-29.24 3578.52,-36.14"/>
</g>
<!-- HasRefAddress -->
<g id="node30" class="node">
<title>HasRefAddress</title>
<ellipse fill="none" stroke="pink" cx="2638.39" cy="-18" rx="81.79" ry="18"/>
<text text-anchor="middle" x="2638.39" y="-14.3" font-family="Times,serif" font-size="14.00">HasRefAddress</text>
</g>
<!-- DataDefinition&#45;&gt;HasRefAddress -->
<g id="edge21" class="edge">
<title>DataDefinition&#45;&gt;HasRefAddress</title>
<path fill="none" stroke="black" d="M1968.46,-80.75C1994.07,-77.76 2023.56,-74.5 2050.39,-72 2270.9,-51.44 2327.75,-64.38 2547.39,-36 2554.82,-35.04 2562.56,-33.87 2570.24,-32.59"/>
<polygon fill="black" stroke="black" points="2571.03,-36.01 2580.29,-30.86 2569.84,-29.11 2571.03,-36.01"/>
</g>
<!-- CommonIdea -->
<g id="node31" class="node">
<title>CommonIdea</title>
<ellipse fill="none" stroke="pink" cx="2809.39" cy="-18" rx="71.49" ry="18"/>
<text text-anchor="middle" x="2809.39" y="-14.3" font-family="Times,serif" font-size="14.00">CommonIdea</text>
</g>
<!-- DataDefinition&#45;&gt;CommonIdea -->
<g id="edge23" class="edge">
<title>DataDefinition&#45;&gt;CommonIdea</title>
<path fill="none" stroke="black" d="M1968.06,-80.52C1993.76,-77.48 2023.41,-74.25 2050.39,-72 2351.55,-46.86 2429.79,-75.53 2729.39,-36 2735.77,-35.16 2742.39,-34.08 2748.97,-32.88"/>
<polygon fill="black" stroke="black" points="2750.08,-36.23 2759.24,-30.91 2748.76,-29.36 2750.08,-36.23"/>
</g>
<!-- Referable -->
<g id="node32" class="node">
<title>Referable</title>
<ellipse fill="none" stroke="pink" cx="2954.39" cy="-18" rx="55.79" ry="18"/>
<text text-anchor="middle" x="2954.39" y="-14.3" font-family="Times,serif" font-size="14.00">Referable</text>
</g>
<!-- DataDefinition&#45;&gt;Referable -->
<g id="edge24" class="edge">
<title>DataDefinition&#45;&gt;Referable</title>
<path fill="none" stroke="black" d="M1967.68,-80.42C1993.46,-77.35 2023.27,-74.13 2050.39,-72 2422.48,-42.83 2520.32,-91.53 2889.39,-36 2894.45,-35.24 2899.69,-34.24 2904.89,-33.1"/>
<polygon fill="black" stroke="black" points="2905.86,-36.47 2914.8,-30.79 2904.26,-29.66 2905.86,-36.47"/>
</g>
<!-- Scope -->
<g id="node5" class="node">
<title>Scope</title>
<ellipse fill="none" stroke="#00868b" cx="2937.39" cy="-90" rx="38.19" ry="18"/>
<text text-anchor="middle" x="2937.39" y="-86.3" font-family="Times,serif" font-size="14.00">Scope</text>
</g>
<!-- GenDefn -->
<g id="node6" class="node">
<title>GenDefn</title>
<ellipse fill="none" stroke="#00868b" cx="2461.39" cy="-90" rx="51.19" ry="18"/>
<text text-anchor="middle" x="2461.39" y="-86.3" font-family="Times,serif" font-size="14.00">GenDefn</text>
</g>
<!-- GenDefn&#45;&gt;HasUID -->
<g id="edge25" class="edge">
<title>GenDefn&#45;&gt;HasUID</title>
<path fill="none" stroke="black" d="M2411.91,-84.94C2364.37,-81.16 2290.51,-75.58 2226.39,-72 1818.71,-49.27 1711.03,-103.86 1308.39,-36 1304.28,-35.31 1300.04,-34.4 1295.83,-33.36"/>
<polygon fill="black" stroke="black" points="1296.68,-29.97 1286.12,-30.75 1294.87,-36.73 1296.68,-29.97"/>
</g>
<!-- GenDefn&#45;&gt;NamedIdea -->
<g id="edge26" class="edge">
<title>GenDefn&#45;&gt;NamedIdea</title>
<path fill="none" stroke="black" d="M2411.9,-85.13C2364.36,-81.47 2290.49,-75.98 2226.39,-72 1918.13,-52.86 1838.15,-79.66 1532.39,-36 1526.69,-35.19 1520.78,-34.14 1514.9,-32.96"/>
<polygon fill="black" stroke="black" points="1515.6,-29.53 1505.09,-30.87 1514.15,-36.37 1515.6,-29.53"/>
</g>
<!-- GenDefn&#45;&gt;Idea -->
<g id="edge27" class="edge">
<title>GenDefn&#45;&gt;Idea</title>
<path fill="none" stroke="black" d="M2411.91,-85C2364.37,-81.25 2290.51,-75.69 2226.39,-72 2040.09,-61.27 1569.22,-77.99 1387.39,-36 1385.09,-35.47 1382.74,-34.8 1380.41,-34.04"/>
<polygon fill="black" stroke="black" points="1381.6,-30.75 1371.01,-30.52 1379.15,-37.31 1381.6,-30.75"/>
</g>
<!-- Definition -->
<g id="node17" class="node">
<title>Definition</title>
<ellipse fill="none" stroke="pink" cx="1131.39" cy="-18" rx="55.79" ry="18"/>
<text text-anchor="middle" x="1131.39" y="-14.3" font-family="Times,serif" font-size="14.00">Definition</text>
</g>
<!-- GenDefn&#45;&gt;Definition -->
<g id="edge28" class="edge">
<title>GenDefn&#45;&gt;Definition</title>
<path fill="none" stroke="black" d="M2411.91,-84.88C2364.38,-81.05 2290.52,-75.44 2226.39,-72 1768.99,-47.47 1649.62,-102.35 1196.39,-36 1191.33,-35.26 1186.09,-34.27 1180.89,-33.15"/>
<polygon fill="black" stroke="black" points="1181.52,-29.7 1170.98,-30.84 1179.93,-36.52 1181.52,-29.7"/>
</g>
<!-- GenDefn&#45;&gt;ConceptDomain -->
<g id="edge29" class="edge">
<title>GenDefn&#45;&gt;ConceptDomain</title>
<path fill="none" stroke="black" d="M2411.92,-84.83C2364.38,-80.96 2290.53,-75.31 2226.39,-72 1711.28,-45.39 1579.31,-90.53 1066.39,-36 1058.39,-35.15 1050.03,-34 1041.76,-32.7"/>
<polygon fill="black" stroke="black" points="1042.18,-29.22 1031.74,-31.04 1041.04,-36.13 1042.18,-29.22"/>
</g>
<!-- GenDefn&#45;&gt;Express -->
<g id="edge30" class="edge">
<title>GenDefn&#45;&gt;Express</title>
<path fill="none" stroke="black" d="M2411.92,-84.76C2364.39,-80.85 2290.54,-75.18 2226.39,-72 1927.54,-57.2 1175.98,-82.47 880.39,-36 875.9,-35.29 871.26,-34.34 866.66,-33.24"/>
<polygon fill="black" stroke="black" points="867.28,-29.78 856.72,-30.64 865.51,-36.56 867.28,-29.78"/>
</g>
<!-- GenDefn&#45;&gt;HasReference -->
<g id="edge32" class="edge">
<title>GenDefn&#45;&gt;HasReference</title>
<path fill="none" stroke="black" d="M2511.63,-86C2609.65,-79.76 2833.13,-63.62 3019.39,-36 3026.02,-35.02 3032.91,-33.86 3039.77,-32.61"/>
<polygon fill="black" stroke="black" points="3040.59,-36.01 3049.77,-30.73 3039.29,-29.14 3040.59,-36.01"/>
</g>
<!-- GenDefn&#45;&gt;HasDecRef -->
<g id="edge33" class="edge">
<title>GenDefn&#45;&gt;HasDecRef</title>
<path fill="none" stroke="black" d="M2511.41,-85.82C2664.61,-76.02 3121.05,-46.29 3187.39,-36 3192.87,-35.15 3198.55,-34.09 3204.21,-32.93"/>
<polygon fill="black" stroke="black" points="3205.27,-36.28 3214.3,-30.73 3203.78,-29.44 3205.27,-36.28"/>
</g>
<!-- GenDefn&#45;&gt;HasDerivation -->
<g id="edge31" class="edge">
<title>GenDefn&#45;&gt;HasDerivation</title>
<path fill="none" stroke="black" d="M2461.39,-71.7C2461.39,-63.98 2461.39,-54.71 2461.39,-46.11"/>
<polygon fill="black" stroke="black" points="2464.89,-46.1 2461.39,-36.1 2457.89,-46.1 2464.89,-46.1"/>
</g>
<!-- GenDefn&#45;&gt;HasAdditionalNotes -->
<g id="edge36" class="edge">
<title>GenDefn&#45;&gt;HasAdditionalNotes</title>
<path fill="none" stroke="black" d="M2511.77,-85.75C2565.63,-82.29 2653.54,-76.68 2729.39,-72 2996.03,-55.54 3063.73,-64.07 3329.39,-36 3339.07,-34.98 3349.2,-33.71 3359.23,-32.34"/>
<polygon fill="black" stroke="black" points="3359.8,-35.8 3369.22,-30.94 3358.83,-28.86 3359.8,-35.8"/>
</g>
<!-- GenDefn&#45;&gt;MayHaveUnit -->
<g id="edge37" class="edge">
<title>GenDefn&#45;&gt;MayHaveUnit</title>
<path fill="none" stroke="black" d="M2413.98,-82.92C2344.54,-73.82 2211.18,-55.63 2098.39,-36 2092.14,-34.91 2085.64,-33.71 2079.15,-32.47"/>
<polygon fill="black" stroke="black" points="2079.47,-28.97 2068.99,-30.5 2078.13,-35.84 2079.47,-28.97"/>
</g>
<!-- GenDefn&#45;&gt;HasShortName -->
<g id="edge34" class="edge">
<title>GenDefn&#45;&gt;HasShortName</title>
<path fill="none" stroke="black" d="M2511.26,-85.54C2565.07,-81.88 2653.28,-76.08 2729.39,-72 3095.44,-52.4 3189.21,-77.76 3553.39,-36 3561.14,-35.11 3569.22,-33.95 3577.23,-32.65"/>
<polygon fill="black" stroke="black" points="3578.03,-36.06 3587.3,-30.94 3576.85,-29.16 3578.03,-36.06"/>
</g>
<!-- GenDefn&#45;&gt;HasRefAddress -->
<g id="edge35" class="edge">
<title>GenDefn&#45;&gt;HasRefAddress</title>
<path fill="none" stroke="black" d="M2494.27,-76C2521.42,-65.26 2560.33,-49.87 2590.87,-37.79"/>
<polygon fill="black" stroke="black" points="2592.46,-40.93 2600.47,-34 2589.88,-34.42 2592.46,-40.93"/>
</g>
<!-- GenDefn&#45;&gt;CommonIdea -->
<g id="edge38" class="edge">
<title>GenDefn&#45;&gt;CommonIdea</title>
<path fill="none" stroke="black" d="M2505.54,-80.47C2558.69,-70.15 2650.64,-52.15 2729.39,-36 2735.1,-34.83 2741.02,-33.6 2746.96,-32.36"/>
<polygon fill="black" stroke="black" points="2747.85,-35.75 2756.92,-30.26 2746.41,-28.9 2747.85,-35.75"/>
</g>
<!-- GenDefn&#45;&gt;Referable -->
<g id="edge39" class="edge">
<title>GenDefn&#45;&gt;Referable</title>
<path fill="none" stroke="black" d="M2510.83,-85.02C2590.86,-78.11 2753.54,-62.06 2889.39,-36 2894.09,-35.1 2898.94,-34.05 2903.79,-32.93"/>
<polygon fill="black" stroke="black" points="2904.77,-36.29 2913.67,-30.53 2903.12,-29.49 2904.77,-36.29"/>
</g>
<!-- InstanceModel -->
<g id="node7" class="node">
<title>InstanceModel</title>
<ellipse fill="none" stroke="#00868b" cx="2138.39" cy="-90" rx="79.09" ry="18"/>
<text text-anchor="middle" x="2138.39" y="-86.3" font-family="Times,serif" font-size="14.00">InstanceModel</text>
</g>
<!-- InstanceModel&#45;&gt;HasUID -->
<g id="edge40" class="edge">
<title>InstanceModel&#45;&gt;HasUID</title>
<path fill="none" stroke="black" d="M2070.9,-80.48C2045.12,-77.45 2015.43,-74.25 1988.39,-72 1686.79,-46.95 1606.48,-88.34 1308.39,-36 1304.28,-35.28 1300.05,-34.35 1295.84,-33.3"/>
<polygon fill="black" stroke="black" points="1296.7,-29.91 1286.13,-30.67 1294.87,-36.66 1296.7,-29.91"/>
</g>
<!-- InstanceModel&#45;&gt;NamedIdea -->
<g id="edge41" class="edge">
<title>InstanceModel&#45;&gt;NamedIdea</title>
<path fill="none" stroke="black" d="M2070.12,-80.77C2044.51,-77.81 2015.13,-74.57 1988.39,-72 1786.03,-52.55 1733.24,-67.45 1532.39,-36 1526.92,-35.14 1521.25,-34.09 1515.6,-32.94"/>
<polygon fill="black" stroke="black" points="1516.02,-29.45 1505.51,-30.77 1514.55,-36.29 1516.02,-29.45"/>
</g>
<!-- InstanceModel&#45;&gt;Idea -->
<g id="edge42" class="edge">
<title>InstanceModel&#45;&gt;Idea</title>
<path fill="none" stroke="black" d="M2070.52,-80.54C2044.82,-77.53 2015.29,-74.33 1988.39,-72 1721.8,-48.92 1647.6,-98.42 1387.39,-36 1385.09,-35.45 1382.75,-34.77 1380.42,-34"/>
<polygon fill="black" stroke="black" points="1381.62,-30.71 1371.03,-30.45 1379.15,-37.26 1381.62,-30.71"/>
</g>
<!-- InstanceModel&#45;&gt;Definition -->
<g id="edge43" class="edge">
<title>InstanceModel&#45;&gt;Definition</title>
<path fill="none" stroke="black" d="M2070.91,-80.37C2045.13,-77.33 2015.43,-74.14 1988.39,-72 1637.13,-44.14 1544.77,-88.87 1196.39,-36 1191.33,-35.23 1186.1,-34.23 1180.9,-33.09"/>
<polygon fill="black" stroke="black" points="1181.53,-29.64 1170.99,-30.77 1179.93,-36.46 1181.53,-29.64"/>
</g>
<!-- InstanceModel&#45;&gt;ConceptDomain -->
<g id="edge44" class="edge">
<title>InstanceModel&#45;&gt;ConceptDomain</title>
<path fill="none" stroke="black" d="M2071.29,-80.32C2045.42,-77.26 2015.57,-74.07 1988.39,-72 1579.49,-40.89 1474.01,-80.98 1066.39,-36 1058.51,-35.13 1050.28,-33.98 1042.13,-32.69"/>
<polygon fill="black" stroke="black" points="1042.68,-29.24 1032.25,-31.06 1041.54,-36.14 1042.68,-29.24"/>
</g>
<!-- InstanceModel&#45;&gt;Express -->
<g id="edge45" class="edge">
<title>InstanceModel&#45;&gt;Express</title>
<path fill="none" stroke="black" d="M2071.3,-80.23C2045.43,-77.16 2015.58,-73.98 1988.39,-72 1742.69,-54.11 1123.65,-74.96 880.39,-36 875.9,-35.28 871.27,-34.32 866.67,-33.21"/>
<polygon fill="black" stroke="black" points="867.28,-29.76 856.72,-30.61 865.51,-36.53 867.28,-29.76"/>
</g>
<!-- InstanceModel&#45;&gt;HasSpace -->
<g id="edge58" class="edge">
<title>InstanceModel&#45;&gt;HasSpace</title>
<path fill="none" stroke="black" d="M2069.32,-81.13C2043.88,-78.25 2014.83,-74.96 1988.39,-72 1843.97,-55.82 1806.29,-62.46 1663.39,-36 1658.69,-35.13 1653.83,-34.1 1648.99,-32.99"/>
<polygon fill="black" stroke="black" points="1649.65,-29.55 1639.1,-30.62 1648.01,-36.36 1649.65,-29.55"/>
</g>
<!-- InstanceModel&#45;&gt;HasSymbol -->
<g id="edge57" class="edge">
<title>InstanceModel&#45;&gt;HasSymbol</title>
<path fill="none" stroke="black" d="M2072.92,-79.81C2006.36,-70.16 1900.36,-53.9 1809.39,-36 1804.05,-34.95 1798.5,-33.79 1792.95,-32.58"/>
<polygon fill="black" stroke="black" points="1793.54,-29.12 1783.02,-30.36 1792.02,-35.96 1793.54,-29.12"/>
</g>
<!-- InstanceModel&#45;&gt;Quantity -->
<g id="edge52" class="edge">
<title>InstanceModel&#45;&gt;Quantity</title>
<path fill="none" stroke="black" d="M2087.02,-76.25C2044.88,-65.71 1983.68,-50.21 1930.39,-36 1926.33,-34.92 1922.12,-33.78 1917.9,-32.62"/>
<polygon fill="black" stroke="black" points="1918.65,-29.2 1908.08,-29.92 1916.79,-35.95 1918.65,-29.2"/>
</g>
<!-- InstanceModel&#45;&gt;HasReference -->
<g id="edge47" class="edge">
<title>InstanceModel&#45;&gt;HasReference</title>
<path fill="none" stroke="black" d="M2213.49,-84.02C2266.09,-80.56 2338.03,-75.89 2401.39,-72 2676.01,-55.13 2746.54,-71.38 3019.39,-36 3026.13,-35.13 3033.15,-34.02 3040.11,-32.8"/>
<polygon fill="black" stroke="black" points="3041.06,-36.18 3050.26,-30.93 3039.79,-29.3 3041.06,-36.18"/>
</g>
<!-- InstanceModel&#45;&gt;HasDecRef -->
<g id="edge48" class="edge">
<title>InstanceModel&#45;&gt;HasDecRef</title>
<path fill="none" stroke="black" d="M2212.91,-83.81C2265.55,-80.23 2337.78,-75.51 2401.39,-72 2750.56,-52.72 2841.13,-84.93 3187.39,-36 3193.1,-35.19 3199.02,-34.14 3204.9,-32.94"/>
<polygon fill="black" stroke="black" points="3205.67,-36.36 3214.71,-30.83 3204.19,-29.52 3205.67,-36.36"/>
</g>
<!-- InstanceModel&#45;&gt;HasDerivation -->
<g id="edge46" class="edge">
<title>InstanceModel&#45;&gt;HasDerivation</title>
<path fill="none" stroke="black" d="M2193.55,-77.05C2249.85,-64.85 2337.17,-45.92 2396.69,-33.02"/>
<polygon fill="black" stroke="black" points="2397.7,-36.38 2406.73,-30.85 2396.22,-29.54 2397.7,-36.38"/>
</g>
<!-- InstanceModel&#45;&gt;HasAdditionalNotes -->
<g id="edge51" class="edge">
<title>InstanceModel&#45;&gt;HasAdditionalNotes</title>
<path fill="none" stroke="black" d="M2212.9,-83.67C2265.54,-80.03 2337.76,-75.29 2401.39,-72 2813.6,-50.69 2918.49,-75.03 3329.39,-36 3339.23,-35.07 3349.52,-33.84 3359.71,-32.48"/>
<polygon fill="black" stroke="black" points="3360.42,-35.92 3369.84,-31.08 3359.46,-28.98 3360.42,-35.92"/>
</g>
<!-- InstanceModel&#45;&gt;MayHaveUnit -->
<g id="edge59" class="edge">
<title>InstanceModel&#45;&gt;MayHaveUnit</title>
<path fill="none" stroke="black" d="M2110.26,-73.12C2092.82,-63.27 2070.22,-50.52 2051.35,-39.86"/>
<polygon fill="black" stroke="black" points="2052.85,-36.69 2042.42,-34.82 2049.41,-42.79 2052.85,-36.69"/>
</g>
<!-- InstanceModel&#45;&gt;HasShortName -->
<g id="edge49" class="edge">
<title>InstanceModel&#45;&gt;HasShortName</title>
<path fill="none" stroke="black" d="M2212.61,-83.54C2265.27,-79.83 2337.64,-75.06 2401.39,-72 2913.06,-47.48 3044.13,-91.2 3553.39,-36 3561.15,-35.16 3569.23,-34.03 3577.24,-32.74"/>
<polygon fill="black" stroke="black" points="3578.03,-36.16 3587.31,-31.05 3576.87,-29.26 3578.03,-36.16"/>
</g>
<!-- InstanceModel&#45;&gt;HasRefAddress -->
<g id="edge50" class="edge">
<title>InstanceModel&#45;&gt;HasRefAddress</title>
<path fill="none" stroke="black" d="M2207.67,-81.22C2289.15,-71.79 2428.4,-54.81 2547.39,-36 2554.49,-34.88 2561.88,-33.63 2569.24,-32.33"/>
<polygon fill="black" stroke="black" points="2570.02,-35.75 2579.25,-30.54 2568.79,-28.86 2570.02,-35.75"/>
</g>
<!-- InstanceModel&#45;&gt;CommonIdea -->
<g id="edge53" class="edge">
<title>InstanceModel&#45;&gt;CommonIdea</title>
<path fill="none" stroke="black" d="M2212.4,-83.48C2348.06,-73.17 2631.6,-50.72 2729.39,-36 2735.66,-35.06 2742.17,-33.93 2748.65,-32.7"/>
<polygon fill="black" stroke="black" points="2749.64,-36.07 2758.78,-30.71 2748.29,-29.21 2749.64,-36.07"/>
</g>
<!-- InstanceModel&#45;&gt;Referable -->
<g id="edge54" class="edge">
<title>InstanceModel&#45;&gt;Referable</title>
<path fill="none" stroke="black" d="M2213.34,-84.09C2396.9,-72 2856.43,-41.43 2889.39,-36 2894.37,-35.18 2899.53,-34.15 2904.65,-33.01"/>
<polygon fill="black" stroke="black" points="2905.5,-36.41 2914.42,-30.7 2903.88,-29.59 2905.5,-36.41"/>
</g>
<!-- HasInputs -->
<g id="node33" class="node">
<title>HasInputs</title>
<ellipse fill="none" stroke="magenta" cx="2307.39" cy="-18" rx="58.49" ry="18"/>
<text text-anchor="middle" x="2307.39" y="-14.3" font-family="Times,serif" font-size="14.00">HasInputs</text>
</g>
<!-- InstanceModel&#45;&gt;HasInputs -->
<g id="edge55" class="edge">
<title>InstanceModel&#45;&gt;HasInputs</title>
<path fill="none" stroke="black" d="M2174.65,-73.98C2201.02,-63.06 2236.83,-48.23 2264.61,-36.72"/>
<polygon fill="black" stroke="black" points="2266.17,-39.86 2274.07,-32.8 2263.49,-33.4 2266.17,-39.86"/>
</g>
<!-- HasOutput -->
<g id="node34" class="node">
<title>HasOutput</title>
<ellipse fill="none" stroke="magenta" cx="2169.39" cy="-18" rx="61.99" ry="18"/>
<text text-anchor="middle" x="2169.39" y="-14.3" font-family="Times,serif" font-size="14.00">HasOutput</text>
</g>
<!-- InstanceModel&#45;&gt;HasOutput -->
<g id="edge56" class="edge">
<title>InstanceModel&#45;&gt;HasOutput</title>
<path fill="none" stroke="black" d="M2145.9,-72.05C2149.42,-64.09 2153.71,-54.41 2157.65,-45.51"/>
<polygon fill="black" stroke="black" points="2160.89,-46.84 2161.74,-36.28 2154.49,-44 2160.89,-46.84"/>
</g>
<!-- ModelKinds -->
<g id="node8" class="node">
<title>ModelKinds</title>
<ellipse fill="none" stroke="#00868b" cx="3059.39" cy="-90" rx="65.79" ry="18"/>
<text text-anchor="middle" x="3059.39" y="-86.3" font-family="Times,serif" font-size="14.00">ModelKinds</text>
</g>
<!-- ModelKind -->
<g id="node9" class="node">
<title>ModelKind</title>
<ellipse fill="none" stroke="#00868b" cx="3204.39" cy="-90" rx="61.19" ry="18"/>
<text text-anchor="middle" x="3204.39" y="-86.3" font-family="Times,serif" font-size="14.00">ModelKind</text>
</g>
<!-- DefiningExpr -->
<g id="node10" class="node">
<title>DefiningExpr</title>
<ellipse fill="none" stroke="#00868b" cx="3355.39" cy="-90" rx="72.29" ry="18"/>
<text text-anchor="middle" x="3355.39" y="-86.3" font-family="Times,serif" font-size="14.00">DefiningExpr</text>
</g>
<!-- MultiDefn -->
<g id="node11" class="node">
<title>MultiDefn</title>
<ellipse fill="none" stroke="#00868b" cx="3503.39" cy="-90" rx="57.69" ry="18"/>
<text text-anchor="middle" x="3503.39" y="-86.3" font-family="Times,serif" font-size="14.00">MultiDefn</text>
</g>
<!-- SpaceDefn -->
<g id="node12" class="node">
<title>SpaceDefn</title>
<ellipse fill="none" stroke="#00868b" cx="3639.39" cy="-90" rx="60.39" ry="18"/>
<text text-anchor="middle" x="3639.39" y="-86.3" font-family="Times,serif" font-size="14.00">SpaceDefn</text>
</g>
<!-- TheoryModel -->
<g id="node13" class="node">
<title>TheoryModel</title>
<ellipse fill="none" stroke="#00868b" cx="2809.39" cy="-90" rx="71.49" ry="18"/>
<text text-anchor="middle" x="2809.39" y="-86.3" font-family="Times,serif" font-size="14.00">TheoryModel</text>
</g>
<!-- TheoryModel&#45;&gt;HasUID -->
<g id="edge86" class="edge">
<title>TheoryModel&#45;&gt;HasUID</title>
<path fill="none" stroke="black" d="M2741.34,-84.42C2683,-80.63 2596.7,-75.34 2521.39,-72 2251.98,-60.05 1574.53,-79.55 1308.39,-36 1304.28,-35.33 1300.04,-34.43 1295.83,-33.4"/>
<polygon fill="black" stroke="black" points="1296.67,-30.01 1286.11,-30.81 1294.86,-36.77 1296.67,-30.01"/>
</g>
<!-- TheoryModel&#45;&gt;NamedIdea -->
<g id="edge87" class="edge">
<title>TheoryModel&#45;&gt;NamedIdea</title>
<path fill="none" stroke="black" d="M2741.04,-84.53C2682.7,-80.82 2596.56,-75.59 2521.39,-72 2082.05,-51.04 1968.29,-94.82 1532.39,-36 1526.69,-35.23 1520.77,-34.21 1514.89,-33.05"/>
<polygon fill="black" stroke="black" points="1515.58,-29.62 1505.08,-30.98 1514.14,-36.46 1515.58,-29.62"/>
</g>
<!-- TheoryModel&#45;&gt;Idea -->
<g id="edge88" class="edge">
<title>TheoryModel&#45;&gt;Idea</title>
<path fill="none" stroke="black" d="M2741.34,-84.46C2683,-80.69 2596.7,-75.42 2521.39,-72 2269.53,-60.57 1633.37,-91.37 1387.39,-36 1384.93,-35.45 1382.44,-34.74 1379.96,-33.93"/>
<polygon fill="black" stroke="black" points="1381.18,-30.65 1370.59,-30.39 1378.71,-37.2 1381.18,-30.65"/>
</g>
<!-- TheoryModel&#45;&gt;Definition -->
<g id="edge89" class="edge">
<title>TheoryModel&#45;&gt;Definition</title>
<path fill="none" stroke="black" d="M2741.34,-84.37C2683,-80.55 2596.7,-75.24 2521.39,-72 2227.11,-59.32 1488,-77.54 1196.39,-36 1191.33,-35.28 1186.09,-34.3 1180.88,-33.19"/>
<polygon fill="black" stroke="black" points="1181.51,-29.74 1170.98,-30.89 1179.92,-36.56 1181.51,-29.74"/>
</g>
<!-- TheoryModel&#45;&gt;ConceptDomain -->
<g id="edge92" class="edge">
<title>TheoryModel&#45;&gt;ConceptDomain</title>
<path fill="none" stroke="black" d="M2741.34,-84.32C2683.01,-80.47 2596.71,-75.15 2521.39,-72 1875.1,-44.94 1709.85,-102.36 1066.39,-36 1058.38,-35.17 1050.03,-34.04 1041.76,-32.75"/>
<polygon fill="black" stroke="black" points="1042.17,-29.27 1031.73,-31.1 1041.03,-36.18 1042.17,-29.27"/>
</g>
<!-- TheoryModel&#45;&gt;HasReference -->
<g id="edge90" class="edge">
<title>TheoryModel&#45;&gt;HasReference</title>
<path fill="none" stroke="black" d="M2859.6,-77.05C2910.09,-65.03 2987.99,-46.48 3042.1,-33.59"/>
<polygon fill="black" stroke="black" points="3043,-36.98 3051.91,-31.26 3041.37,-30.17 3043,-36.98"/>
</g>
<!-- TheoryModel&#45;&gt;HasDecRef -->
<g id="edge91" class="edge">
<title>TheoryModel&#45;&gt;HasDecRef</title>
<path fill="none" stroke="black" d="M2861.12,-77.45C2870.82,-75.48 2880.89,-73.57 2890.39,-72 3021.58,-50.32 3056.52,-59.52 3187.39,-36 3192.77,-35.03 3198.36,-33.91 3203.92,-32.71"/>
<polygon fill="black" stroke="black" points="3204.87,-36.08 3213.87,-30.48 3203.34,-29.25 3204.87,-36.08"/>
</g>
<!-- TheoryModel&#45;&gt;HasAdditionalNotes -->
<g id="edge93" class="edge">
<title>TheoryModel&#45;&gt;HasAdditionalNotes</title>
<path fill="none" stroke="black" d="M2860.21,-77.32C2870.18,-75.32 2880.58,-73.43 2890.39,-72 3084.12,-43.84 3134.95,-58.7 3329.39,-36 3338.82,-34.9 3348.67,-33.61 3358.45,-32.24"/>
<polygon fill="black" stroke="black" points="3359.19,-35.67 3368.59,-30.79 3358.2,-28.74 3359.19,-35.67"/>
</g>
<!-- TheoryModel&#45;&gt;HasShortName -->
<g id="edge95" class="edge">
<title>TheoryModel&#45;&gt;HasShortName</title>
<path fill="none" stroke="black" d="M2859.74,-77.19C2869.85,-75.17 2880.42,-73.31 2890.39,-72 3182.98,-33.58 3260.4,-71.17 3553.39,-36 3561.02,-35.08 3568.98,-33.92 3576.87,-32.63"/>
<polygon fill="black" stroke="black" points="3577.53,-36.06 3586.8,-30.93 3576.35,-29.16 3577.53,-36.06"/>
</g>
<!-- TheoryModel&#45;&gt;HasRefAddress -->
<g id="edge96" class="edge">
<title>TheoryModel&#45;&gt;HasRefAddress</title>
<path fill="none" stroke="black" d="M2773.55,-74.33C2747.79,-63.78 2712.83,-49.47 2684.93,-38.05"/>
<polygon fill="black" stroke="black" points="2685.95,-34.69 2675.37,-34.14 2683.3,-41.17 2685.95,-34.69"/>
</g>
<!-- TheoryModel&#45;&gt;CommonIdea -->
<g id="edge97" class="edge">
<title>TheoryModel&#45;&gt;CommonIdea</title>
<path fill="none" stroke="black" d="M2809.39,-71.7C2809.39,-63.98 2809.39,-54.71 2809.39,-46.11"/>
<polygon fill="black" stroke="black" points="2812.89,-46.1 2809.39,-36.1 2805.89,-46.1 2812.89,-46.1"/>
</g>
<!-- TheoryModel&#45;&gt;Referable -->
<g id="edge98" class="edge">
<title>TheoryModel&#45;&gt;Referable</title>
<path fill="none" stroke="black" d="M2840.86,-73.81C2862.67,-63.28 2891.88,-49.18 2915.21,-37.92"/>
<polygon fill="black" stroke="black" points="2916.99,-40.94 2924.48,-33.44 2913.95,-34.64 2916.99,-40.94"/>
</g>
<!-- Theory -->
<g id="node35" class="node">
<title>Theory</title>
<ellipse fill="none" stroke="magenta" cx="3787.39" cy="-18" rx="42.79" ry="18"/>
<text text-anchor="middle" x="3787.39" y="-14.3" font-family="Times,serif" font-size="14.00">Theory</text>
</g>
<!-- TheoryModel&#45;&gt;Theory -->
<g id="edge94" class="edge">
<title>TheoryModel&#45;&gt;Theory</title>
<path fill="none" stroke="black" d="M2859.73,-77.1C2869.83,-75.09 2880.41,-73.25 2890.39,-72 3263.37,-25.24 3365.52,-103.03 3735.39,-36 3739.12,-35.33 3742.94,-34.45 3746.74,-33.45"/>
<polygon fill="black" stroke="black" points="3748.05,-36.72 3756.68,-30.57 3746.1,-29.99 3748.05,-36.72"/>
</g>
<!-- _ConstraintSet -->
<g id="node36" class="node">
<title>_ConstraintSet</title>
<ellipse fill="none" stroke="black" cx="1329.39" cy="-90" rx="79.89" ry="18"/>
<text text-anchor="middle" x="1329.39" y="-86.3" font-family="Times,serif" font-size="14.00">_ConstraintSet</text>
</g>
<!-- _ConstraintSet&#45;&gt;HasUID -->
<g id="edge1" class="edge">
<title>_ConstraintSet&#45;&gt;HasUID</title>
<path fill="none" stroke="black" d="M1311.15,-72.41C1301.13,-63.3 1288.55,-51.87 1277.6,-41.92"/>
<polygon fill="black" stroke="black" points="1279.73,-39.13 1269.98,-34.99 1275.03,-44.3 1279.73,-39.13"/>
</g>
<!-- _ConstraintSet&#45;&gt;NamedIdea -->
<g id="edge2" class="edge">
<title>_ConstraintSet&#45;&gt;NamedIdea</title>
<path fill="none" stroke="black" d="M1359.12,-73.12C1377.97,-63.04 1402.53,-49.92 1422.74,-39.12"/>
<polygon fill="black" stroke="black" points="1424.52,-42.14 1431.69,-34.34 1421.22,-35.97 1424.52,-42.14"/>
</g>
<!-- _ConstraintSet&#45;&gt;Idea -->
<g id="edge3" class="edge">
<title>_ConstraintSet&#45;&gt;Idea</title>
<path fill="none" stroke="black" d="M1334.09,-71.7C1336.21,-63.9 1338.76,-54.51 1341.11,-45.83"/>
<polygon fill="black" stroke="black" points="1344.51,-46.67 1343.75,-36.1 1337.75,-44.84 1344.51,-46.67"/>
</g>
<!-- _ConstraintSet&#45;&gt;Definition -->
<g id="edge4" class="edge">
<title>_ConstraintSet&#45;&gt;Definition</title>
<path fill="none" stroke="black" d="M1288.37,-74.5C1256,-63.05 1210.85,-47.09 1177.29,-35.22"/>
<polygon fill="black" stroke="black" points="1178.3,-31.87 1167.71,-31.84 1175.97,-38.47 1178.3,-31.87"/>
</g>
<!-- _ConstraintSet&#45;&gt;ConceptDomain -->
<g id="edge5" class="edge">
<title>_ConstraintSet&#45;&gt;ConceptDomain</title>
<path fill="none" stroke="black" d="M1271.4,-77.6C1209,-65.33 1109.75,-45.81 1043.13,-32.71"/>
<polygon fill="black" stroke="black" points="1043.63,-29.24 1033.14,-30.75 1042.28,-36.11 1043.63,-29.24"/>
</g>
<!-- ConstraintSet_e -->
<g id="node37" class="node">
<title>ConstraintSet_e</title>
<ellipse fill="none" stroke="black" cx="493.39" cy="-90" rx="85.29" ry="18"/>
<text text-anchor="middle" x="493.39" y="-86.3" font-family="Times,serif" font-size="14.00">ConstraintSet_e</text>
</g>
<!-- ConstraintSet_e&#45;&gt;Express -->
<g id="edge6" class="edge">
<title>ConstraintSet_e&#45;&gt;Express</title>
<path fill="none" stroke="black" d="M555.62,-77.6C623.14,-65.11 726.5,-45.56 765.39,-36 769.18,-35.07 773.08,-34.04 777,-32.97"/>
<polygon fill="black" stroke="black" points="777.99,-36.33 786.66,-30.24 776.08,-29.59 777.99,-36.33"/>
</g>
<!-- ModelKinds_e -->
<g id="node38" class="node">
<title>ModelKinds_e</title>
<ellipse fill="none" stroke="black" cx="1156.39" cy="-90" rx="75.29" ry="18"/>
<text text-anchor="middle" x="1156.39" y="-86.3" font-family="Times,serif" font-size="14.00">ModelKinds_e</text>
</g>
<!-- ModelKinds_e&#45;&gt;HasUID -->
<g id="edge60" class="edge">
<title>ModelKinds_e&#45;&gt;HasUID</title>
<path fill="none" stroke="black" d="M1178.66,-72.76C1191.99,-63.04 1209.09,-50.57 1223.46,-40.09"/>
<polygon fill="black" stroke="black" points="1225.54,-42.91 1231.56,-34.19 1221.42,-37.25 1225.54,-42.91"/>
</g>
<!-- ModelKinds_e&#45;&gt;NamedIdea -->
<g id="edge61" class="edge">
<title>ModelKinds_e&#45;&gt;NamedIdea</title>
<path fill="none" stroke="black" d="M1209.4,-77.01C1256.44,-66.33 1327.02,-50.26 1388.39,-36 1393.27,-34.87 1398.34,-33.68 1403.41,-32.49"/>
<polygon fill="black" stroke="black" points="1404.22,-35.9 1413.15,-30.21 1402.62,-29.09 1404.22,-35.9"/>
</g>
<!-- ModelKinds_e&#45;&gt;Idea -->
<g id="edge62" class="edge">
<title>ModelKinds_e&#45;&gt;Idea</title>
<path fill="none" stroke="black" d="M1198.93,-75.01C1229.56,-64.73 1271.77,-50.15 1308.39,-36 1310.59,-35.15 1312.85,-34.26 1315.12,-33.34"/>
<polygon fill="black" stroke="black" points="1316.48,-36.56 1324.39,-29.51 1313.81,-30.09 1316.48,-36.56"/>
</g>
<!-- ModelKinds_e&#45;&gt;Definition -->
<g id="edge63" class="edge">
<title>ModelKinds_e&#45;&gt;Definition</title>
<path fill="none" stroke="black" d="M1150.34,-72.05C1147.53,-64.18 1144.11,-54.62 1140.96,-45.79"/>
<polygon fill="black" stroke="black" points="1144.22,-44.52 1137.56,-36.28 1137.63,-46.87 1144.22,-44.52"/>
</g>
<!-- ModelKinds_e&#45;&gt;ConceptDomain -->
<g id="edge64" class="edge">
<title>ModelKinds_e&#45;&gt;ConceptDomain</title>
<path fill="none" stroke="black" d="M1118.03,-74.33C1090.13,-63.65 1052.15,-49.12 1022.1,-37.63"/>
<polygon fill="black" stroke="black" points="1023.24,-34.32 1012.65,-34.02 1020.74,-40.86 1023.24,-34.32"/>
</g>
<!-- ModelKinds_e&#45;&gt;Express -->
<g id="edge65" class="edge">
<title>ModelKinds_e&#45;&gt;Express</title>
<path fill="none" stroke="black" d="M1100.84,-77.64C1091.35,-75.73 1081.59,-73.79 1072.39,-72 987.18,-55.39 964.82,-56.24 880.39,-36 876.32,-35.02 872.1,-33.94 867.89,-32.8"/>
<polygon fill="black" stroke="black" points="868.71,-29.39 858.13,-30.08 866.83,-36.14 868.71,-29.39"/>
</g>
<!-- _ModelKind -->
<g id="node39" class="node">
<title>_ModelKind</title>
<ellipse fill="none" stroke="black" cx="1493.39" cy="-90" rx="65.79" ry="18"/>
<text text-anchor="middle" x="1493.39" y="-86.3" font-family="Times,serif" font-size="14.00">_ModelKind</text>
</g>
<!-- _ModelKind&#45;&gt;HasUID -->
<g id="edge66" class="edge">
<title>_ModelKind&#45;&gt;HasUID</title>
<path fill="none" stroke="black" d="M1449.23,-76.56C1411.71,-65.94 1356.46,-50.18 1308.39,-36 1305.03,-35.01 1301.55,-33.97 1298.05,-32.93"/>
<polygon fill="black" stroke="black" points="1298.8,-29.5 1288.22,-29.97 1296.78,-36.2 1298.8,-29.5"/>
</g>
<!-- _ModelKind&#45;&gt;NamedIdea -->
<g id="edge67" class="edge">
<title>_ModelKind&#45;&gt;NamedIdea</title>
<path fill="none" stroke="black" d="M1485.4,-72.05C1481.65,-64.09 1477.09,-54.41 1472.89,-45.51"/>
<polygon fill="black" stroke="black" points="1475.97,-43.83 1468.54,-36.28 1469.64,-46.81 1475.97,-43.83"/>
</g>
<!-- ModelKind_e -->
<g id="node40" class="node">
<title>ModelKind_e</title>
<ellipse fill="none" stroke="black" cx="992.39" cy="-90" rx="70.69" ry="18"/>
<text text-anchor="middle" x="992.39" y="-86.3" font-family="Times,serif" font-size="14.00">ModelKind_e</text>
</g>
<!-- ModelKind_e&#45;&gt;Idea -->
<g id="edge68" class="edge">
<title>ModelKind_e&#45;&gt;Idea</title>
<path fill="none" stroke="black" d="M1043.95,-77.59C1053.39,-75.63 1063.17,-73.68 1072.39,-72 1176.77,-52.96 1206.32,-64.98 1308.39,-36 1310.72,-35.34 1313.09,-34.58 1315.46,-33.75"/>
<polygon fill="black" stroke="black" points="1316.97,-36.92 1325.06,-30.07 1314.47,-30.38 1316.97,-36.92"/>
</g>
<!-- ModelKind_e&#45;&gt;Definition -->
<g id="edge69" class="edge">
<title>ModelKind_e&#45;&gt;Definition</title>
<path fill="none" stroke="black" d="M1022.9,-73.64C1043.6,-63.21 1071.12,-49.36 1093.26,-38.2"/>
<polygon fill="black" stroke="black" points="1095.03,-41.23 1102.39,-33.61 1091.88,-34.98 1095.03,-41.23"/>
</g>
<!-- ModelKind_e&#45;&gt;ConceptDomain -->
<g id="edge70" class="edge">
<title>ModelKind_e&#45;&gt;ConceptDomain</title>
<path fill="none" stroke="black" d="M987.7,-71.7C985.58,-63.9 983.03,-54.51 980.68,-45.83"/>
<polygon fill="black" stroke="black" points="984.03,-44.84 978.04,-36.1 977.28,-46.67 984.03,-44.84"/>
</g>
<!-- ModelKind_e&#45;&gt;Express -->
<g id="edge71" class="edge">
<title>ModelKind_e&#45;&gt;Express</title>
<path fill="none" stroke="black" d="M956.76,-74.33C929.29,-63.02 891.3,-47.37 862.72,-35.61"/>
<polygon fill="black" stroke="black" points="864,-32.35 853.42,-31.77 861.33,-38.82 864,-32.35"/>
</g>
<!-- _DefiningExpr -->
<g id="node41" class="node">
<title>_DefiningExpr</title>
<ellipse fill="none" stroke="black" cx="826.39" cy="-90" rx="76.89" ry="18"/>
<text text-anchor="middle" x="826.39" y="-86.3" font-family="Times,serif" font-size="14.00">_DefiningExpr</text>
</g>
<!-- _DefiningExpr&#45;&gt;HasUID -->
<g id="edge73" class="edge">
<title>_DefiningExpr&#45;&gt;HasUID</title>
<path fill="none" stroke="black" d="M881.81,-77.46C891.96,-75.51 902.48,-73.61 912.39,-72 1037.99,-51.65 1071.97,-62.57 1196.39,-36 1200.25,-35.18 1204.23,-34.21 1208.2,-33.17"/>
<polygon fill="black" stroke="black" points="1209.28,-36.5 1217.98,-30.44 1207.41,-29.75 1209.28,-36.5"/>
</g>
<!-- _DefiningExpr&#45;&gt;Definition -->
<g id="edge75" class="edge">
<title>_DefiningExpr&#45;&gt;Definition</title>
<path fill="none" stroke="black" d="M881.82,-77.39C930.55,-67.04 1003.34,-51.2 1066.39,-36 1070.79,-34.94 1075.34,-33.81 1079.9,-32.66"/>
<polygon fill="black" stroke="black" points="1081.02,-35.99 1089.84,-30.12 1079.29,-29.21 1081.02,-35.99"/>
</g>
<!-- _DefiningExpr&#45;&gt;ConceptDomain -->
<g id="edge74" class="edge">
<title>_DefiningExpr&#45;&gt;ConceptDomain</title>
<path fill="none" stroke="black" d="M858.65,-73.64C879.97,-63.49 908.13,-50.08 931.22,-39.08"/>
<polygon fill="black" stroke="black" points="932.92,-42.15 940.45,-34.69 929.91,-35.83 932.92,-42.15"/>
</g>
<!-- _DefiningExpr&#45;&gt;Eq -->
<g id="edge72" class="edge">
<title>_DefiningExpr&#45;&gt;Eq</title>
<path fill="none" stroke="black" d="M803.9,-72.76C789.49,-62.37 770.73,-48.83 755.64,-37.94"/>
<polygon fill="black" stroke="black" points="757.4,-34.89 747.24,-31.88 753.3,-40.57 757.4,-34.89"/>
</g>
<!-- _MultiDefn -->
<g id="node42" class="node">
<title>_MultiDefn</title>
<ellipse fill="none" stroke="black" cx="1638.39" cy="-90" rx="61.99" ry="18"/>
<text text-anchor="middle" x="1638.39" y="-86.3" font-family="Times,serif" font-size="14.00">_MultiDefn</text>
</g>
<!-- _MultiDefn&#45;&gt;HasUID -->
<g id="edge76" class="edge">
<title>_MultiDefn&#45;&gt;HasUID</title>
<path fill="none" stroke="black" d="M1593.73,-77.44C1585.34,-75.48 1576.62,-73.57 1568.39,-72 1453.79,-50.21 1422.34,-61.02 1308.39,-36 1304.59,-35.17 1300.68,-34.2 1296.77,-33.16"/>
<polygon fill="black" stroke="black" points="1297.69,-29.79 1287.12,-30.47 1295.81,-36.53 1297.69,-29.79"/>
</g>
<!-- _MultiDefn&#45;&gt;NamedIdea -->
<g id="edge78" class="edge">
<title>_MultiDefn&#45;&gt;NamedIdea</title>
<path fill="none" stroke="black" d="M1603.23,-75.17C1575.25,-64.17 1535.91,-48.7 1505.6,-36.78"/>
<polygon fill="black" stroke="black" points="1506.68,-33.44 1496.1,-33.04 1504.12,-39.96 1506.68,-33.44"/>
</g>
<!-- _MultiDefn&#45;&gt;Idea -->
<g id="edge79" class="edge">
<title>_MultiDefn&#45;&gt;Idea</title>
<path fill="none" stroke="black" d="M1592.9,-77.66C1584.75,-75.71 1576.33,-73.75 1568.39,-72 1488.3,-54.32 1465.66,-60.53 1387.39,-36 1385.27,-35.34 1383.12,-34.59 1380.95,-33.8"/>
<polygon fill="black" stroke="black" points="1382.18,-30.52 1371.59,-30.08 1379.59,-37.03 1382.18,-30.52"/>
</g>
<!-- _MultiDefn&#45;&gt;Definition -->
<g id="edge84" class="edge">
<title>_MultiDefn&#45;&gt;Definition</title>
<path fill="none" stroke="black" d="M1594.15,-77.25C1585.65,-75.28 1576.78,-73.42 1568.39,-72 1404.61,-44.33 1359.93,-65.11 1196.39,-36 1191.62,-35.15 1186.68,-34.13 1181.76,-33.01"/>
<polygon fill="black" stroke="black" points="1182.28,-29.54 1171.74,-30.62 1180.65,-36.35 1182.28,-29.54"/>
</g>
<!-- _MultiDefn&#45;&gt;HasSpace -->
<g id="edge80" class="edge">
<title>_MultiDefn&#45;&gt;HasSpace</title>
<path fill="none" stroke="black" d="M1628.71,-72.05C1623.99,-63.8 1618.22,-53.7 1612.99,-44.54"/>
<polygon fill="black" stroke="black" points="1615.99,-42.73 1607.99,-35.79 1609.91,-46.21 1615.99,-42.73"/>
</g>
<!-- _MultiDefn&#45;&gt;HasSymbol -->
<g id="edge77" class="edge">
<title>_MultiDefn&#45;&gt;HasSymbol</title>
<path fill="none" stroke="black" d="M1660.63,-73.12C1673.94,-63.61 1691.06,-51.38 1705.65,-40.96"/>
<polygon fill="black" stroke="black" points="1707.8,-43.72 1713.9,-35.06 1703.73,-38.03 1707.8,-43.72"/>
</g>
<!-- _MultiDefn&#45;&gt;Quantity -->
<g id="edge81" class="edge">
<title>_MultiDefn&#45;&gt;Quantity</title>
<path fill="none" stroke="black" d="M1679.69,-76.49C1719.7,-64.36 1780.3,-46 1822.2,-33.3"/>
<polygon fill="black" stroke="black" points="1823.34,-36.61 1831.89,-30.36 1821.31,-29.91 1823.34,-36.61"/>
</g>
<!-- _MultiDefn&#45;&gt;MayHaveUnit -->
<g id="edge82" class="edge">
<title>_MultiDefn&#45;&gt;MayHaveUnit</title>
<path fill="none" stroke="black" d="M1689.7,-79.93C1747.87,-69.59 1845.54,-52.02 1929.39,-36 1935.6,-34.81 1942.06,-33.56 1948.52,-32.29"/>
<polygon fill="black" stroke="black" points="1949.51,-35.66 1958.64,-30.29 1948.15,-28.8 1949.51,-35.66"/>
</g>
<!-- MultiDefn_e -->
<g id="node43" class="node">
<title>MultiDefn_e</title>
<ellipse fill="none" stroke="black" cx="664.39" cy="-90" rx="67.69" ry="18"/>
<text text-anchor="middle" x="664.39" y="-86.3" font-family="Times,serif" font-size="14.00">MultiDefn_e</text>
</g>
<!-- MultiDefn_e&#45;&gt;ConceptDomain -->
<g id="edge83" class="edge">
<title>MultiDefn_e&#45;&gt;ConceptDomain</title>
<path fill="none" stroke="black" d="M714.04,-77.75C766.69,-65.83 850.11,-46.93 908.07,-33.8"/>
<polygon fill="black" stroke="black" points="908.89,-37.2 917.86,-31.58 907.34,-30.38 908.89,-37.2"/>
</g>
<!-- MultiDefn_e&#45;&gt;Express -->
<g id="edge85" class="edge">
<title>MultiDefn_e&#45;&gt;Express</title>
<path fill="none" stroke="black" d="M697.9,-74.15C722.91,-63.07 757.15,-47.91 783.39,-36.28"/>
<polygon fill="black" stroke="black" points="784.94,-39.42 792.66,-32.17 782.1,-33.02 784.94,-39.42"/>
</g>
</g>
</svg>
