<?xml version="1.0" encoding="UTF-8" standalone="no"?>
<!DOCTYPE svg PUBLIC "-//W3C//DTD SVG 1.1//EN"
 "http://www.w3.org/Graphics/SVG/1.1/DTD/svg11.dtd">
<!-- Generated by graphviz version 2.43.0 (0)
 -->
<!-- Title: theory Pages: 1 -->
<svg width="4645pt" height="116pt"
 viewBox="0.00 0.00 4644.84 116.00" xmlns="http://www.w3.org/2000/svg" xmlns:xlink="http://www.w3.org/1999/xlink">
<g id="graph0" class="graph" transform="scale(1 1) rotate(0) translate(4 112)">
<title>theory</title>
<polygon fill="white" stroke="transparent" points="-4,4 -4,-112 4640.84,-112 4640.84,4 -4,4"/>
<!-- ConstraintSet -->
<g id="node1" class="node">
<title>ConstraintSet</title>
<ellipse fill="none" stroke="#00868b" cx="75.39" cy="-90" rx="75.29" ry="18"/>
<text text-anchor="middle" x="75.39" y="-86.3" font-family="Times,serif" font-size="14.00">ConstraintSet</text>
</g>
<!-- ScopeType -->
<g id="node2" class="node">
<title>ScopeType</title>
<ellipse fill="none" stroke="#00868b" cx="229.39" cy="-90" rx="61.19" ry="18"/>
<text text-anchor="middle" x="229.39" y="-86.3" font-family="Times,serif" font-size="14.00">ScopeType</text>
</g>
<!-- DDPkt -->
<g id="node3" class="node">
<title>DDPkt</title>
<ellipse fill="none" stroke="#00868b" cx="349.39" cy="-90" rx="40.89" ry="18"/>
<text text-anchor="middle" x="349.39" y="-86.3" font-family="Times,serif" font-size="14.00">DDPkt</text>
</g>
<!-- DataDefinition -->
<g id="node4" class="node">
<title>DataDefinition</title>
<ellipse fill="none" stroke="#00868b" cx="1865.39" cy="-90" rx="77.99" ry="18"/>
<text text-anchor="middle" x="1865.39" y="-86.3" font-family="Times,serif" font-size="14.00">DataDefinition</text>
</g>
<!-- HasUID -->
<g id="node14" class="node">
<title>HasUID</title>
<ellipse fill="none" stroke="pink" cx="663.39" cy="-18" rx="47.39" ry="18"/>
<text text-anchor="middle" x="663.39" y="-14.3" font-family="Times,serif" font-size="14.00">HasUID</text>
</g>
<!-- DataDefinition&#45;&gt;HasUID -->
<g id="edge7" class="edge">
<title>DataDefinition&#45;&gt;HasUID</title>
<path fill="none" stroke="black" d="M1810.84,-76.96C1800.13,-74.99 1788.94,-73.2 1778.39,-72 1310.93,-18.72 1184.73,-111.85 720.39,-36 716.15,-35.31 711.78,-34.39 707.44,-33.34"/>
<polygon fill="black" stroke="black" points="707.99,-29.86 697.42,-30.69 706.2,-36.63 707.99,-29.86"/>
</g>
<!-- NamedIdea -->
<g id="node15" class="node">
<title>NamedIdea</title>
<ellipse fill="none" stroke="pink" cx="979.39" cy="-18" rx="63.89" ry="18"/>
<text text-anchor="middle" x="979.39" y="-14.3" font-family="Times,serif" font-size="14.00">NamedIdea</text>
</g>
<!-- DataDefinition&#45;&gt;NamedIdea -->
<g id="edge8" class="edge">
<title>DataDefinition&#45;&gt;NamedIdea</title>
<path fill="none" stroke="black" d="M1810.82,-77.09C1800.11,-75.11 1788.93,-73.28 1778.39,-72 1457.26,-32.88 1371.7,-81.36 1051.39,-36 1045.69,-35.19 1039.78,-34.15 1033.9,-32.97"/>
<polygon fill="black" stroke="black" points="1034.6,-29.54 1024.09,-30.89 1033.14,-36.39 1034.6,-29.54"/>
</g>
<!-- Idea -->
<g id="node16" class="node">
<title>Idea</title>
<ellipse fill="none" stroke="pink" cx="1091.39" cy="-18" rx="30.59" ry="18"/>
<text text-anchor="middle" x="1091.39" y="-14.3" font-family="Times,serif" font-size="14.00">Idea</text>
</g>
<!-- DataDefinition&#45;&gt;Idea -->
<g id="edge9" class="edge">
<title>DataDefinition&#45;&gt;Idea</title>
<path fill="none" stroke="black" d="M1810.35,-77.06C1799.78,-75.1 1788.78,-73.3 1778.39,-72 1492.17,-36.26 1411.02,-102.68 1130.39,-36 1128.09,-35.45 1125.75,-34.78 1123.42,-34.01"/>
<polygon fill="black" stroke="black" points="1124.61,-30.72 1114.02,-30.47 1122.15,-37.27 1124.61,-30.72"/>
</g>
<!-- ConceptDomain -->
<g id="node18" class="node">
<title>ConceptDomain</title>
<ellipse fill="none" stroke="pink" cx="813.39" cy="-18" rx="84.49" ry="18"/>
<text text-anchor="middle" x="813.39" y="-14.3" font-family="Times,serif" font-size="14.00">ConceptDomain</text>
</g>
<!-- DataDefinition&#45;&gt;ConceptDomain -->
<g id="edge22" class="edge">
<title>DataDefinition&#45;&gt;ConceptDomain</title>
<path fill="none" stroke="black" d="M1810.83,-77.03C1800.12,-75.05 1788.94,-73.24 1778.39,-72 1393.16,-26.68 1291.89,-78.98 906.39,-36 898.51,-35.12 890.28,-33.97 882.13,-32.67"/>
<polygon fill="black" stroke="black" points="882.68,-29.22 872.25,-31.04 881.54,-36.12 882.68,-29.22"/>
</g>
<!-- Express -->
<g id="node19" class="node">
<title>Express</title>
<ellipse fill="none" stroke="pink" cx="3494.39" cy="-18" rx="48.19" ry="18"/>
<text text-anchor="middle" x="3494.39" y="-14.3" font-family="Times,serif" font-size="14.00">Express</text>
</g>
<!-- DataDefinition&#45;&gt;Express -->
<g id="edge13" class="edge">
<title>DataDefinition&#45;&gt;Express</title>
<path fill="none" stroke="black" d="M1919.48,-76.97C1930.33,-74.97 1941.68,-73.17 1952.39,-72 2280.55,-36.22 3111.36,-87.63 3437.39,-36 3441.64,-35.33 3446.01,-34.42 3450.36,-33.38"/>
<polygon fill="black" stroke="black" points="3451.59,-36.68 3460.37,-30.75 3449.81,-29.91 3451.59,-36.68"/>
</g>
<!-- HasSpace -->
<g id="node20" class="node">
<title>HasSpace</title>
<ellipse fill="none" stroke="pink" cx="1299.39" cy="-18" rx="56.59" ry="18"/>
<text text-anchor="middle" x="1299.39" y="-14.3" font-family="Times,serif" font-size="14.00">HasSpace</text>
</g>
<!-- DataDefinition&#45;&gt;HasSpace -->
<g id="edge10" class="edge">
<title>DataDefinition&#45;&gt;HasSpace</title>
<path fill="none" stroke="black" d="M1809.85,-77.23C1799.43,-75.29 1788.6,-73.44 1778.39,-72 1595.5,-46.25 1546.39,-67.48 1364.39,-36 1359.62,-35.17 1354.68,-34.17 1349.75,-33.06"/>
<polygon fill="black" stroke="black" points="1350.27,-29.59 1339.73,-30.68 1348.65,-36.4 1350.27,-29.59"/>
</g>
<!-- HasSymbol -->
<g id="node21" class="node">
<title>HasSymbol</title>
<ellipse fill="none" stroke="pink" cx="1437.39" cy="-18" rx="63.89" ry="18"/>
<text text-anchor="middle" x="1437.39" y="-14.3" font-family="Times,serif" font-size="14.00">HasSymbol</text>
</g>
<!-- DataDefinition&#45;&gt;HasSymbol -->
<g id="edge11" class="edge">
<title>DataDefinition&#45;&gt;HasSymbol</title>
<path fill="none" stroke="black" d="M1808.85,-77.45C1798.73,-75.52 1788.26,-73.63 1778.39,-72 1659.81,-52.47 1628.61,-57.65 1510.39,-36 1504.95,-35 1499.31,-33.87 1493.67,-32.67"/>
<polygon fill="black" stroke="black" points="1494.11,-29.18 1483.6,-30.46 1492.61,-36.02 1494.11,-29.18"/>
</g>
<!-- Quantity -->
<g id="node22" class="node">
<title>Quantity</title>
<ellipse fill="none" stroke="pink" cx="1570.39" cy="-18" rx="51.19" ry="18"/>
<text text-anchor="middle" x="1570.39" y="-14.3" font-family="Times,serif" font-size="14.00">Quantity</text>
</g>
<!-- DataDefinition&#45;&gt;Quantity -->
<g id="edge12" class="edge">
<title>DataDefinition&#45;&gt;Quantity</title>
<path fill="none" stroke="black" d="M1809.89,-77.23C1762.37,-66.96 1692.18,-51.34 1631.39,-36 1627.26,-34.96 1622.97,-33.84 1618.68,-32.69"/>
<polygon fill="black" stroke="black" points="1619.28,-29.23 1608.71,-29.99 1617.45,-35.98 1619.28,-29.23"/>
</g>
<!-- HasReference -->
<g id="node23" class="node">
<title>HasReference</title>
<ellipse fill="none" stroke="pink" cx="2762.39" cy="-18" rx="75.29" ry="18"/>
<text text-anchor="middle" x="2762.39" y="-14.3" font-family="Times,serif" font-size="14.00">HasReference</text>
</g>
<!-- DataDefinition&#45;&gt;HasReference -->
<g id="edge14" class="edge">
<title>DataDefinition&#45;&gt;HasReference</title>
<path fill="none" stroke="black" d="M1919.97,-77.1C1930.67,-75.11 1941.85,-73.28 1952.39,-72 2273.08,-32.92 2357.84,-76.15 2678.39,-36 2685.24,-35.14 2692.36,-34.04 2699.43,-32.8"/>
<polygon fill="black" stroke="black" points="2700.51,-36.16 2709.72,-30.92 2699.25,-29.28 2700.51,-36.16"/>
</g>
<!-- HasDecRef -->
<g id="node24" class="node">
<title>HasDecRef</title>
<ellipse fill="none" stroke="pink" cx="2917.39" cy="-18" rx="61.99" ry="18"/>
<text text-anchor="middle" x="2917.39" y="-14.3" font-family="Times,serif" font-size="14.00">HasDecRef</text>
</g>
<!-- DataDefinition&#45;&gt;HasDecRef -->
<g id="edge15" class="edge">
<title>DataDefinition&#45;&gt;HasDecRef</title>
<path fill="none" stroke="black" d="M1919.96,-77.02C1930.66,-75.04 1941.85,-73.24 1952.39,-72 2347.35,-25.73 2452.5,-90.56 2846.39,-36 2852.1,-35.21 2858.03,-34.16 2863.91,-32.98"/>
<polygon fill="black" stroke="black" points="2864.67,-36.39 2873.71,-30.87 2863.2,-29.55 2864.67,-36.39"/>
</g>
<!-- Eq -->
<g id="node25" class="node">
<title>Eq</title>
<ellipse fill="none" stroke="pink" cx="441.39" cy="-18" rx="27" ry="18"/>
<text text-anchor="middle" x="441.39" y="-14.3" font-family="Times,serif" font-size="14.00">Eq</text>
</g>
<!-- DataDefinition&#45;&gt;Eq -->
<g id="edge16" class="edge">
<title>DataDefinition&#45;&gt;Eq</title>
<path fill="none" stroke="black" d="M1811.31,-77C1800.46,-74.99 1789.1,-73.19 1778.39,-72 1490.93,-40.16 758.7,-103.18 477.39,-36 475.21,-35.48 473,-34.81 470.8,-34.05"/>
<polygon fill="black" stroke="black" points="472,-30.76 461.42,-30.24 469.36,-37.25 472,-30.76"/>
</g>
<!-- HasDerivation -->
<g id="node26" class="node">
<title>HasDerivation</title>
<ellipse fill="none" stroke="pink" cx="3074.39" cy="-18" rx="77.19" ry="18"/>
<text text-anchor="middle" x="3074.39" y="-14.3" font-family="Times,serif" font-size="14.00">HasDerivation</text>
</g>
<!-- DataDefinition&#45;&gt;HasDerivation -->
<g id="edge17" class="edge">
<title>DataDefinition&#45;&gt;HasDerivation</title>
<path fill="none" stroke="black" d="M1919.95,-76.97C1930.66,-75 1941.84,-73.21 1952.39,-72 2410.13,-19.66 2530.71,-88.84 2988.39,-36 2995.57,-35.17 3003.03,-34.07 3010.44,-32.82"/>
<polygon fill="black" stroke="black" points="3011.24,-36.23 3020.47,-31.03 3010.01,-29.34 3011.24,-36.23"/>
</g>
<!-- HasAdditionalNotes -->
<g id="node27" class="node">
<title>HasAdditionalNotes</title>
<ellipse fill="none" stroke="pink" cx="1912.39" cy="-18" rx="103.18" ry="18"/>
<text text-anchor="middle" x="1912.39" y="-14.3" font-family="Times,serif" font-size="14.00">HasAdditionalNotes</text>
</g>
<!-- DataDefinition&#45;&gt;HasAdditionalNotes -->
<g id="edge18" class="edge">
<title>DataDefinition&#45;&gt;HasAdditionalNotes</title>
<path fill="none" stroke="black" d="M1876.77,-72.05C1882.29,-63.84 1889.03,-53.79 1895.16,-44.66"/>
<polygon fill="black" stroke="black" points="1898.13,-46.53 1900.79,-36.28 1892.31,-42.63 1898.13,-46.53"/>
</g>
<!-- MayHaveUnit -->
<g id="node28" class="node">
<title>MayHaveUnit</title>
<ellipse fill="none" stroke="pink" cx="1715.39" cy="-18" rx="75.29" ry="18"/>
<text text-anchor="middle" x="1715.39" y="-14.3" font-family="Times,serif" font-size="14.00">MayHaveUnit</text>
</g>
<!-- DataDefinition&#45;&gt;MayHaveUnit -->
<g id="edge19" class="edge">
<title>DataDefinition&#45;&gt;MayHaveUnit</title>
<path fill="none" stroke="black" d="M1832.48,-73.64C1810.4,-63.33 1781.12,-49.67 1757.37,-38.59"/>
<polygon fill="black" stroke="black" points="1758.78,-35.38 1748.23,-34.33 1755.82,-41.73 1758.78,-35.38"/>
</g>
<!-- HasShortName -->
<g id="node29" class="node">
<title>HasShortName</title>
<ellipse fill="none" stroke="pink" cx="2115.39" cy="-18" rx="81.79" ry="18"/>
<text text-anchor="middle" x="2115.39" y="-14.3" font-family="Times,serif" font-size="14.00">HasShortName</text>
</g>
<!-- DataDefinition&#45;&gt;HasShortName -->
<g id="edge20" class="edge">
<title>DataDefinition&#45;&gt;HasShortName</title>
<path fill="none" stroke="black" d="M1913,-75.67C1953.97,-64.2 2013.21,-47.61 2057.02,-35.34"/>
<polygon fill="black" stroke="black" points="2057.99,-38.71 2066.68,-32.64 2056.11,-31.97 2057.99,-38.71"/>
</g>
<!-- HasRefAddress -->
<g id="node30" class="node">
<title>HasRefAddress</title>
<ellipse fill="none" stroke="pink" cx="2297.39" cy="-18" rx="81.79" ry="18"/>
<text text-anchor="middle" x="2297.39" y="-14.3" font-family="Times,serif" font-size="14.00">HasRefAddress</text>
</g>
<!-- DataDefinition&#45;&gt;HasRefAddress -->
<g id="edge21" class="edge">
<title>DataDefinition&#45;&gt;HasRefAddress</title>
<path fill="none" stroke="black" d="M1921.94,-77.51C1932.07,-75.58 1942.53,-73.66 1952.39,-72 2064.83,-53.06 2093.88,-54.47 2206.39,-36 2213.37,-34.85 2220.64,-33.6 2227.89,-32.31"/>
<polygon fill="black" stroke="black" points="2228.52,-35.75 2237.74,-30.53 2227.28,-28.86 2228.52,-35.75"/>
</g>
<!-- CommonIdea -->
<g id="node31" class="node">
<title>CommonIdea</title>
<ellipse fill="none" stroke="pink" cx="2468.39" cy="-18" rx="71.49" ry="18"/>
<text text-anchor="middle" x="2468.39" y="-14.3" font-family="Times,serif" font-size="14.00">CommonIdea</text>
</g>
<!-- DataDefinition&#45;&gt;CommonIdea -->
<g id="edge23" class="edge">
<title>DataDefinition&#45;&gt;CommonIdea</title>
<path fill="none" stroke="black" d="M1920.93,-77.2C1931.35,-75.25 1942.18,-73.42 1952.39,-72 2144.99,-45.32 2196.02,-64.26 2388.39,-36 2394.66,-35.08 2401.18,-33.96 2407.66,-32.75"/>
<polygon fill="black" stroke="black" points="2408.64,-36.12 2417.78,-30.77 2407.3,-29.25 2408.64,-36.12"/>
</g>
<!-- Referable -->
<g id="node32" class="node">
<title>Referable</title>
<ellipse fill="none" stroke="pink" cx="2613.39" cy="-18" rx="55.79" ry="18"/>
<text text-anchor="middle" x="2613.39" y="-14.3" font-family="Times,serif" font-size="14.00">Referable</text>
</g>
<!-- DataDefinition&#45;&gt;Referable -->
<g id="edge24" class="edge">
<title>DataDefinition&#45;&gt;Referable</title>
<path fill="none" stroke="black" d="M1920.44,-77.1C1931.01,-75.14 1942.01,-73.32 1952.39,-72 2215.64,-38.48 2286.33,-77.77 2548.39,-36 2553.38,-35.21 2558.53,-34.19 2563.66,-33.06"/>
<polygon fill="black" stroke="black" points="2564.5,-36.46 2573.43,-30.76 2562.9,-29.65 2564.5,-36.46"/>
</g>
<!-- Scope -->
<g id="node5" class="node">
<title>Scope</title>
<ellipse fill="none" stroke="#00868b" cx="3874.39" cy="-90" rx="38.19" ry="18"/>
<text text-anchor="middle" x="3874.39" y="-86.3" font-family="Times,serif" font-size="14.00">Scope</text>
</g>
<!-- GenDefn -->
<g id="node6" class="node">
<title>GenDefn</title>
<ellipse fill="none" stroke="#00868b" cx="2012.39" cy="-90" rx="51.19" ry="18"/>
<text text-anchor="middle" x="2012.39" y="-86.3" font-family="Times,serif" font-size="14.00">GenDefn</text>
</g>
<!-- GenDefn&#45;&gt;HasUID -->
<g id="edge25" class="edge">
<title>GenDefn&#45;&gt;HasUID</title>
<path fill="none" stroke="black" d="M1976.22,-77.2C1968.44,-75.1 1960.2,-73.2 1952.39,-72 1410.97,11.3 1261.23,-123.02 720.39,-36 716.15,-35.32 711.78,-34.41 707.43,-33.36"/>
<polygon fill="black" stroke="black" points="707.98,-29.89 697.42,-30.72 706.2,-36.65 707.98,-29.89"/>
</g>
<!-- GenDefn&#45;&gt;NamedIdea -->
<g id="edge26" class="edge">
<title>GenDefn&#45;&gt;NamedIdea</title>
<path fill="none" stroke="black" d="M1975.89,-77.18C1968.21,-75.11 1960.09,-73.23 1952.39,-72 1556.62,-8.94 1448.46,-90.3 1051.39,-36 1045.69,-35.22 1039.77,-34.19 1033.89,-33.03"/>
<polygon fill="black" stroke="black" points="1034.59,-29.59 1024.08,-30.95 1033.14,-36.44 1034.59,-29.59"/>
</g>
<!-- GenDefn&#45;&gt;Idea -->
<g id="edge27" class="edge">
<title>GenDefn&#45;&gt;Idea</title>
<path fill="none" stroke="black" d="M1975.89,-77.2C1968.2,-75.13 1960.09,-73.24 1952.39,-72 1591.38,-13.76 1486.66,-118.45 1130.39,-36 1128.09,-35.47 1125.75,-34.8 1123.41,-34.04"/>
<polygon fill="black" stroke="black" points="1124.6,-30.75 1114.01,-30.52 1122.15,-37.3 1124.6,-30.75"/>
</g>
<!-- Definition -->
<g id="node17" class="node">
<title>Definition</title>
<ellipse fill="none" stroke="pink" cx="542.39" cy="-18" rx="55.79" ry="18"/>
<text text-anchor="middle" x="542.39" y="-14.3" font-family="Times,serif" font-size="14.00">Definition</text>
</g>
<!-- GenDefn&#45;&gt;Definition -->
<g id="edge28" class="edge">
<title>GenDefn&#45;&gt;Definition</title>
<path fill="none" stroke="black" d="M1976.22,-77.19C1968.44,-75.09 1960.21,-73.19 1952.39,-72 1361.24,18.21 1199.43,-120.21 607.39,-36 602.33,-35.28 597.09,-34.31 591.88,-33.19"/>
<polygon fill="black" stroke="black" points="592.51,-29.74 581.97,-30.89 590.92,-36.56 592.51,-29.74"/>
</g>
<!-- GenDefn&#45;&gt;ConceptDomain -->
<g id="edge29" class="edge">
<title>GenDefn&#45;&gt;ConceptDomain</title>
<path fill="none" stroke="black" d="M1975.9,-77.15C1968.21,-75.08 1960.09,-73.21 1952.39,-72 1492.82,-0.07 1368.87,-85.96 906.39,-36 898.5,-35.15 890.28,-34.01 882.12,-32.73"/>
<polygon fill="black" stroke="black" points="882.68,-29.27 872.24,-31.1 881.54,-36.18 882.68,-29.27"/>
</g>
<!-- GenDefn&#45;&gt;Express -->
<g id="edge30" class="edge">
<title>GenDefn&#45;&gt;Express</title>
<path fill="none" stroke="black" d="M2048.85,-77.27C2056.86,-75.14 2065.35,-73.21 2073.39,-72 2673.1,18.08 2838.52,-131.49 3437.39,-36 3441.64,-35.32 3446.01,-34.42 3450.35,-33.37"/>
<polygon fill="black" stroke="black" points="3451.59,-36.67 3460.37,-30.74 3449.81,-29.9 3451.59,-36.67"/>
</g>
<!-- GenDefn&#45;&gt;HasReference -->
<g id="edge32" class="edge">
<title>GenDefn&#45;&gt;HasReference</title>
<path fill="none" stroke="black" d="M2049.21,-77.39C2057.12,-75.27 2065.48,-73.32 2073.39,-72 2339.07,-27.59 2411.29,-70.8 2678.39,-36 2685.13,-35.12 2692.14,-34.02 2699.11,-32.79"/>
<polygon fill="black" stroke="black" points="2700.06,-36.18 2709.26,-30.92 2698.79,-29.29 2700.06,-36.18"/>
</g>
<!-- GenDefn&#45;&gt;HasDecRef -->
<g id="edge33" class="edge">
<title>GenDefn&#45;&gt;HasDecRef</title>
<path fill="none" stroke="black" d="M2049.19,-77.31C2057.1,-75.2 2065.47,-73.27 2073.39,-72 2412.97,-17.49 2505.87,-84.26 2846.39,-36 2852.1,-35.19 2858.02,-34.13 2863.9,-32.94"/>
<polygon fill="black" stroke="black" points="2864.67,-36.35 2873.71,-30.82 2863.19,-29.51 2864.67,-36.35"/>
</g>
<!-- GenDefn&#45;&gt;HasDerivation -->
<g id="edge31" class="edge">
<title>GenDefn&#45;&gt;HasDerivation</title>
<path fill="none" stroke="black" d="M2049.19,-77.26C2057.1,-75.16 2065.46,-73.24 2073.39,-72 2475.46,-8.95 2584.21,-83.61 2988.39,-36 2995.56,-35.16 3003.03,-34.04 3010.44,-32.78"/>
<polygon fill="black" stroke="black" points="3011.23,-36.2 3020.46,-30.99 3010,-29.31 3011.23,-36.2"/>
</g>
<!-- GenDefn&#45;&gt;HasAdditionalNotes -->
<g id="edge36" class="edge">
<title>GenDefn&#45;&gt;HasAdditionalNotes</title>
<path fill="none" stroke="black" d="M1990.2,-73.46C1976.83,-64.1 1959.57,-52.02 1944.7,-41.61"/>
<polygon fill="black" stroke="black" points="1946.47,-38.58 1936.27,-35.71 1942.46,-44.32 1946.47,-38.58"/>
</g>
<!-- GenDefn&#45;&gt;MayHaveUnit -->
<g id="edge37" class="edge">
<title>GenDefn&#45;&gt;MayHaveUnit</title>
<path fill="none" stroke="black" d="M1974.39,-77.89C1967.11,-75.85 1959.53,-73.81 1952.39,-72 1894.58,-57.36 1828.31,-42.72 1780.57,-32.55"/>
<polygon fill="black" stroke="black" points="1781.18,-29.1 1770.67,-30.44 1779.73,-35.95 1781.18,-29.1"/>
</g>
<!-- GenDefn&#45;&gt;HasShortName -->
<g id="edge34" class="edge">
<title>GenDefn&#45;&gt;HasShortName</title>
<path fill="none" stroke="black" d="M2035,-73.64C2049.09,-64.06 2067.44,-51.59 2083.06,-40.97"/>
<polygon fill="black" stroke="black" points="2085.1,-43.82 2091.41,-35.3 2081.17,-38.03 2085.1,-43.82"/>
</g>
<!-- GenDefn&#45;&gt;HasRefAddress -->
<g id="edge35" class="edge">
<title>GenDefn&#45;&gt;HasRefAddress</title>
<path fill="none" stroke="black" d="M2051.05,-77.98C2058.46,-75.94 2066.15,-73.86 2073.39,-72 2126.82,-58.24 2187.77,-43.91 2232.59,-33.62"/>
<polygon fill="black" stroke="black" points="2233.5,-37 2242.47,-31.36 2231.94,-30.18 2233.5,-37"/>
</g>
<!-- GenDefn&#45;&gt;CommonIdea -->
<g id="edge38" class="edge">
<title>GenDefn&#45;&gt;CommonIdea</title>
<path fill="none" stroke="black" d="M2049.92,-77.54C2057.63,-75.47 2065.73,-73.5 2073.39,-72 2211.69,-45 2249.32,-58.67 2388.39,-36 2394.56,-35 2400.96,-33.83 2407.34,-32.6"/>
<polygon fill="black" stroke="black" points="2408.19,-36 2417.32,-30.61 2406.83,-29.13 2408.19,-36"/>
</g>
<!-- GenDefn&#45;&gt;Referable -->
<g id="edge39" class="edge">
<title>GenDefn&#45;&gt;Referable</title>
<path fill="none" stroke="black" d="M2049.55,-77.4C2057.36,-75.31 2065.6,-73.37 2073.39,-72 2281.92,-35.41 2339.58,-70.93 2548.39,-36 2553.37,-35.17 2558.52,-34.13 2563.65,-32.98"/>
<polygon fill="black" stroke="black" points="2564.5,-36.38 2573.42,-30.66 2562.88,-29.57 2564.5,-36.38"/>
</g>
<!-- InstanceModel -->
<g id="node7" class="node">
<title>InstanceModel</title>
<ellipse fill="none" stroke="#00868b" cx="2161.39" cy="-90" rx="79.09" ry="18"/>
<text text-anchor="middle" x="2161.39" y="-86.3" font-family="Times,serif" font-size="14.00">InstanceModel</text>
</g>
<!-- InstanceModel&#45;&gt;HasUID -->
<g id="edge40" class="edge">
<title>InstanceModel&#45;&gt;HasUID</title>
<path fill="none" stroke="black" d="M2106.05,-76.99C2094.96,-74.99 2083.34,-73.18 2072.39,-72 1773.58,-39.7 1017.19,-83.36 720.39,-36 716.15,-35.32 711.78,-34.42 707.43,-33.37"/>
<polygon fill="black" stroke="black" points="707.98,-29.9 697.42,-30.73 706.19,-36.67 707.98,-29.9"/>
</g>
<!-- InstanceModel&#45;&gt;NamedIdea -->
<g id="edge41" class="edge">
<title>InstanceModel&#45;&gt;NamedIdea</title>
<path fill="none" stroke="black" d="M2106.05,-77.07C2094.95,-75.06 2083.34,-73.23 2072.39,-72 1621.18,-21.26 1501.41,-96.46 1051.39,-36 1045.69,-35.23 1039.77,-34.21 1033.89,-33.05"/>
<polygon fill="black" stroke="black" points="1034.58,-29.62 1024.08,-30.99 1033.14,-36.47 1034.58,-29.62"/>
</g>
<!-- InstanceModel&#45;&gt;Idea -->
<g id="edge42" class="edge">
<title>InstanceModel&#45;&gt;Idea</title>
<path fill="none" stroke="black" d="M2106.04,-77.09C2094.95,-75.08 2083.33,-73.25 2072.39,-72 1864.25,-48.28 1334.62,-82.66 1130.39,-36 1127.94,-35.44 1125.44,-34.72 1122.96,-33.91"/>
<polygon fill="black" stroke="black" points="1124.18,-30.63 1113.59,-30.37 1121.71,-37.18 1124.18,-30.63"/>
</g>
<!-- InstanceModel&#45;&gt;Definition -->
<g id="edge43" class="edge">
<title>InstanceModel&#45;&gt;Definition</title>
<path fill="none" stroke="black" d="M2106.06,-76.97C2094.96,-74.97 2083.34,-73.17 2072.39,-72 1424.79,-2.67 1252.31,-127.01 607.39,-36 602.33,-35.28 597.09,-34.32 591.88,-33.2"/>
<polygon fill="black" stroke="black" points="592.5,-29.75 581.97,-30.9 590.92,-36.57 592.5,-29.75"/>
</g>
<!-- InstanceModel&#45;&gt;ConceptDomain -->
<g id="edge44" class="edge">
<title>InstanceModel&#45;&gt;ConceptDomain</title>
<path fill="none" stroke="black" d="M2106.05,-77.03C2094.95,-75.02 2083.34,-73.21 2072.39,-72 1557.05,-15.19 1421.96,-90.77 906.39,-36 898.39,-35.15 890.03,-34 881.76,-32.7"/>
<polygon fill="black" stroke="black" points="882.18,-29.22 871.74,-31.05 881.04,-36.13 882.18,-29.22"/>
</g>
<!-- InstanceModel&#45;&gt;Express -->
<g id="edge45" class="edge">
<title>InstanceModel&#45;&gt;Express</title>
<path fill="none" stroke="black" d="M2240.55,-88.28C2481.79,-85.68 3205.45,-74.78 3437.39,-36 3441.58,-35.3 3445.88,-34.39 3450.17,-33.35"/>
<polygon fill="black" stroke="black" points="3451.28,-36.68 3460.05,-30.74 3449.49,-29.91 3451.28,-36.68"/>
</g>
<!-- InstanceModel&#45;&gt;HasSpace -->
<g id="edge58" class="edge">
<title>InstanceModel&#45;&gt;HasSpace</title>
<path fill="none" stroke="black" d="M2105.56,-77.12C2094.6,-75.13 2083.17,-73.3 2072.39,-72 1759.58,-34.35 1675.77,-84.11 1364.39,-36 1359.41,-35.23 1354.25,-34.23 1349.12,-33.11"/>
<polygon fill="black" stroke="black" points="1349.88,-29.69 1339.34,-30.82 1348.28,-36.51 1349.88,-29.69"/>
</g>
<!-- InstanceModel&#45;&gt;HasSymbol -->
<g id="edge57" class="edge">
<title>InstanceModel&#45;&gt;HasSymbol</title>
<path fill="none" stroke="black" d="M2105.06,-77.14C2094.26,-75.18 2083,-73.35 2072.39,-72 1824.1,-40.46 1758.01,-72.51 1510.39,-36 1504.62,-35.15 1498.63,-34.07 1492.68,-32.88"/>
<polygon fill="black" stroke="black" points="1493.24,-29.42 1482.73,-30.78 1491.79,-36.27 1493.24,-29.42"/>
</g>
<!-- InstanceModel&#45;&gt;Quantity -->
<g id="edge52" class="edge">
<title>InstanceModel&#45;&gt;Quantity</title>
<path fill="none" stroke="black" d="M2105.04,-77.29C2094.24,-75.32 2082.99,-73.44 2072.39,-72 1877.53,-45.51 1824.99,-70.55 1631.39,-36 1626.89,-35.2 1622.24,-34.2 1617.6,-33.11"/>
<polygon fill="black" stroke="black" points="1618.11,-29.62 1607.56,-30.57 1616.39,-36.41 1618.11,-29.62"/>
</g>
<!-- InstanceModel&#45;&gt;HasReference -->
<g id="edge47" class="edge">
<title>InstanceModel&#45;&gt;HasReference</title>
<path fill="none" stroke="black" d="M2235.74,-83.67C2336.44,-75.93 2521.62,-59.84 2678.39,-36 2685.02,-34.99 2691.91,-33.81 2698.77,-32.56"/>
<polygon fill="black" stroke="black" points="2699.58,-35.96 2708.76,-30.67 2698.28,-29.09 2699.58,-35.96"/>
</g>
<!-- InstanceModel&#45;&gt;HasDecRef -->
<g id="edge48" class="edge">
<title>InstanceModel&#45;&gt;HasDecRef</title>
<path fill="none" stroke="black" d="M2239.68,-86.96C2367.4,-82.73 2628.26,-70.33 2846.39,-36 2851.87,-35.14 2857.55,-34.07 2863.2,-32.9"/>
<polygon fill="black" stroke="black" points="2864.27,-36.25 2873.3,-30.7 2862.78,-29.41 2864.27,-36.25"/>
</g>
<!-- InstanceModel&#45;&gt;HasDerivation -->
<g id="edge46" class="edge">
<title>InstanceModel&#45;&gt;HasDerivation</title>
<path fill="none" stroke="black" d="M2240.12,-87.39C2387.53,-83.61 2715.01,-71.62 2988.39,-36 2995.45,-35.08 3002.8,-33.93 3010.09,-32.66"/>
<polygon fill="black" stroke="black" points="3010.76,-36.1 3019.98,-30.88 3009.51,-29.21 3010.76,-36.1"/>
</g>
<!-- InstanceModel&#45;&gt;HasAdditionalNotes -->
<g id="edge51" class="edge">
<title>InstanceModel&#45;&gt;HasAdditionalNotes</title>
<path fill="none" stroke="black" d="M2113.68,-75.59C2073.98,-64.43 2017.2,-48.46 1974.06,-36.34"/>
<polygon fill="black" stroke="black" points="1974.82,-32.91 1964.24,-33.58 1972.92,-39.65 1974.82,-32.91"/>
</g>
<!-- InstanceModel&#45;&gt;MayHaveUnit -->
<g id="edge59" class="edge">
<title>InstanceModel&#45;&gt;MayHaveUnit</title>
<path fill="none" stroke="black" d="M2104.03,-77.54C2093.52,-75.59 2082.64,-73.66 2072.39,-72 1952.01,-52.55 1920.69,-55.97 1800.39,-36 1793.81,-34.91 1786.96,-33.68 1780.13,-32.41"/>
<polygon fill="black" stroke="black" points="1780.64,-28.94 1770.17,-30.51 1779.33,-35.82 1780.64,-28.94"/>
</g>
<!-- InstanceModel&#45;&gt;HasShortName -->
<g id="edge49" class="edge">
<title>InstanceModel&#45;&gt;HasShortName</title>
<path fill="none" stroke="black" d="M2150.26,-72.05C2144.86,-63.84 2138.26,-53.79 2132.26,-44.66"/>
<polygon fill="black" stroke="black" points="2135.16,-42.71 2126.75,-36.28 2129.31,-46.55 2135.16,-42.71"/>
</g>
<!-- InstanceModel&#45;&gt;HasRefAddress -->
<g id="edge50" class="edge">
<title>InstanceModel&#45;&gt;HasRefAddress</title>
<path fill="none" stroke="black" d="M2191.91,-73.29C2211.29,-63.32 2236.57,-50.31 2257.52,-39.52"/>
<polygon fill="black" stroke="black" points="2259.21,-42.59 2266.5,-34.9 2256.01,-36.36 2259.21,-42.59"/>
</g>
<!-- InstanceModel&#45;&gt;CommonIdea -->
<g id="edge53" class="edge">
<title>InstanceModel&#45;&gt;CommonIdea</title>
<path fill="none" stroke="black" d="M2215.22,-76.73C2268.92,-64.48 2351.28,-45.7 2407.38,-32.91"/>
<polygon fill="black" stroke="black" points="2408.21,-36.31 2417.18,-30.68 2406.66,-29.49 2408.21,-36.31"/>
</g>
<!-- InstanceModel&#45;&gt;Referable -->
<g id="edge54" class="edge">
<title>InstanceModel&#45;&gt;Referable</title>
<path fill="none" stroke="black" d="M2232.43,-81.85C2310.38,-73.41 2438.97,-57.72 2548.39,-36 2553.08,-35.07 2557.93,-34 2562.78,-32.86"/>
<polygon fill="black" stroke="black" points="2563.77,-36.22 2572.65,-30.45 2562.11,-29.42 2563.77,-36.22"/>
</g>
<!-- HasInputs -->
<g id="node33" class="node">
<title>HasInputs</title>
<ellipse fill="none" stroke="magenta" cx="3228.39" cy="-18" rx="58.49" ry="18"/>
<text text-anchor="middle" x="3228.39" y="-14.3" font-family="Times,serif" font-size="14.00">HasInputs</text>
</g>
<!-- InstanceModel&#45;&gt;HasInputs -->
<g id="edge55" class="edge">
<title>InstanceModel&#45;&gt;HasInputs</title>
<path fill="none" stroke="black" d="M2239.48,-86.8C2442.45,-80.76 2983.16,-62.6 3160.39,-36 3165.81,-35.19 3171.42,-34.13 3176.99,-32.95"/>
<polygon fill="black" stroke="black" points="3177.95,-36.32 3186.93,-30.71 3176.41,-29.5 3177.95,-36.32"/>
</g>
<!-- HasOutput -->
<g id="node34" class="node">
<title>HasOutput</title>
<ellipse fill="none" stroke="magenta" cx="3366.39" cy="-18" rx="61.99" ry="18"/>
<text text-anchor="middle" x="3366.39" y="-14.3" font-family="Times,serif" font-size="14.00">HasOutput</text>
</g>
<!-- InstanceModel&#45;&gt;HasOutput -->
<g id="edge56" class="edge">
<title>InstanceModel&#45;&gt;HasOutput</title>
<path fill="none" stroke="black" d="M2239.81,-87.26C2461.68,-82.02 3090.99,-64.98 3295.39,-36 3301.1,-35.19 3307.02,-34.13 3312.9,-32.94"/>
<polygon fill="black" stroke="black" points="3313.67,-36.35 3322.71,-30.82 3312.19,-29.51 3313.67,-36.35"/>
</g>
<!-- ModelKinds -->
<g id="node8" class="node">
<title>ModelKinds</title>
<ellipse fill="none" stroke="#00868b" cx="3996.39" cy="-90" rx="65.79" ry="18"/>
<text text-anchor="middle" x="3996.39" y="-86.3" font-family="Times,serif" font-size="14.00">ModelKinds</text>
</g>
<!-- ModelKind -->
<g id="node9" class="node">
<title>ModelKind</title>
<ellipse fill="none" stroke="#00868b" cx="4141.39" cy="-90" rx="61.19" ry="18"/>
<text text-anchor="middle" x="4141.39" y="-86.3" font-family="Times,serif" font-size="14.00">ModelKind</text>
</g>
<!-- DefiningExpr -->
<g id="node10" class="node">
<title>DefiningExpr</title>
<ellipse fill="none" stroke="#00868b" cx="4292.39" cy="-90" rx="72.29" ry="18"/>
<text text-anchor="middle" x="4292.39" y="-86.3" font-family="Times,serif" font-size="14.00">DefiningExpr</text>
</g>
<!-- MultiDefn -->
<g id="node11" class="node">
<title>MultiDefn</title>
<ellipse fill="none" stroke="#00868b" cx="4440.39" cy="-90" rx="57.69" ry="18"/>
<text text-anchor="middle" x="4440.39" y="-86.3" font-family="Times,serif" font-size="14.00">MultiDefn</text>
</g>
<!-- SpaceDefn -->
<g id="node12" class="node">
<title>SpaceDefn</title>
<ellipse fill="none" stroke="#00868b" cx="4576.39" cy="-90" rx="60.39" ry="18"/>
<text text-anchor="middle" x="4576.39" y="-86.3" font-family="Times,serif" font-size="14.00">SpaceDefn</text>
</g>
<!-- TheoryModel -->
<g id="node13" class="node">
<title>TheoryModel</title>
<ellipse fill="none" stroke="#00868b" cx="1698.39" cy="-90" rx="71.49" ry="18"/>
<text text-anchor="middle" x="1698.39" y="-86.3" font-family="Times,serif" font-size="14.00">TheoryModel</text>
</g>
<!-- TheoryModel&#45;&gt;HasUID -->
<g id="edge86" class="edge">
<title>TheoryModel&#45;&gt;HasUID</title>
<path fill="none" stroke="black" d="M1628.41,-86.16C1419.45,-77.56 809.03,-51.4 720.39,-36 716.16,-35.26 711.79,-34.32 707.45,-33.25"/>
<polygon fill="black" stroke="black" points="708.01,-29.78 697.44,-30.58 706.2,-36.54 708.01,-29.78"/>
</g>
<!-- TheoryModel&#45;&gt;NamedIdea -->
<g id="edge87" class="edge">
<title>TheoryModel&#45;&gt;NamedIdea</title>
<path fill="none" stroke="black" d="M1628.09,-86.7C1508.84,-82.02 1259.56,-68.91 1051.39,-36 1045.92,-35.14 1040.25,-34.08 1034.6,-32.92"/>
<polygon fill="black" stroke="black" points="1035.02,-29.43 1024.51,-30.75 1033.55,-36.27 1035.02,-29.43"/>
</g>
<!-- TheoryModel&#45;&gt;Idea -->
<g id="edge88" class="edge">
<title>TheoryModel&#45;&gt;Idea</title>
<path fill="none" stroke="black" d="M1626.76,-89.54C1517.81,-88.76 1304.71,-80.89 1130.39,-36 1128.1,-35.41 1125.77,-34.7 1123.45,-33.91"/>
<polygon fill="black" stroke="black" points="1124.65,-30.62 1114.06,-30.32 1122.15,-37.16 1124.65,-30.62"/>
</g>
<!-- TheoryModel&#45;&gt;Definition -->
<g id="edge89" class="edge">
<title>TheoryModel&#45;&gt;Definition</title>
<path fill="none" stroke="black" d="M1628.03,-86.43C1402.68,-78.08 707.67,-51.38 607.39,-36 602.33,-35.22 597.1,-34.22 591.9,-33.08"/>
<polygon fill="black" stroke="black" points="592.53,-29.63 582,-30.75 590.93,-36.44 592.53,-29.63"/>
</g>
<!-- TheoryModel&#45;&gt;ConceptDomain -->
<g id="edge92" class="edge">
<title>TheoryModel&#45;&gt;ConceptDomain</title>
<path fill="none" stroke="black" d="M1627.68,-86.97C1488.91,-82.39 1171.35,-68.97 906.39,-36 898.72,-35.05 890.72,-33.87 882.78,-32.58"/>
<polygon fill="black" stroke="black" points="883.21,-29.1 872.77,-30.9 882.05,-36.01 883.21,-29.1"/>
</g>
<!-- TheoryModel&#45;&gt;HasReference -->
<g id="edge90" class="edge">
<title>TheoryModel&#45;&gt;HasReference</title>
<path fill="none" stroke="black" d="M1748.53,-76.99C1758.38,-75.01 1768.67,-73.22 1778.39,-72 2175.61,-22.22 2280.94,-83.86 2678.39,-36 2685.24,-35.18 2692.36,-34.09 2699.44,-32.87"/>
<polygon fill="black" stroke="black" points="2700.52,-36.23 2709.73,-31 2699.26,-29.34 2700.52,-36.23"/>
</g>
<!-- TheoryModel&#45;&gt;HasDecRef -->
<g id="edge91" class="edge">
<title>TheoryModel&#45;&gt;HasDecRef</title>
<path fill="none" stroke="black" d="M1748.1,-77.03C1758.08,-75.02 1768.53,-73.21 1778.39,-72 2249.83,-14.42 2375.74,-99.62 2846.39,-36 2852.11,-35.23 2858.03,-34.19 2863.91,-33.01"/>
<polygon fill="black" stroke="black" points="2864.67,-36.43 2873.72,-30.91 2863.21,-29.59 2864.67,-36.43"/>
</g>
<!-- TheoryModel&#45;&gt;HasAdditionalNotes -->
<g id="edge93" class="edge">
<title>TheoryModel&#45;&gt;HasAdditionalNotes</title>
<path fill="none" stroke="black" d="M1740.16,-75.34C1773.18,-64.54 1819.61,-49.35 1855.94,-37.47"/>
<polygon fill="black" stroke="black" points="1857.48,-40.64 1865.9,-34.21 1855.31,-33.99 1857.48,-40.64"/>
</g>
<!-- TheoryModel&#45;&gt;HasShortName -->
<g id="edge95" class="edge">
<title>TheoryModel&#45;&gt;HasShortName</title>
<path fill="none" stroke="black" d="M1750.37,-77.45C1759.68,-75.53 1769.31,-73.63 1778.39,-72 1887.16,-52.51 1915.4,-54.15 2024.39,-36 2031.37,-34.84 2038.63,-33.57 2045.89,-32.28"/>
<polygon fill="black" stroke="black" points="2046.52,-35.72 2055.73,-30.49 2045.27,-28.83 2046.52,-35.72"/>
</g>
<!-- TheoryModel&#45;&gt;HasRefAddress -->
<g id="edge96" class="edge">
<title>TheoryModel&#45;&gt;HasRefAddress</title>
<path fill="none" stroke="black" d="M1749,-77.24C1758.72,-75.27 1768.84,-73.41 1778.39,-72 1967.24,-44.11 2017.22,-61.56 2206.39,-36 2213.81,-35 2221.55,-33.8 2229.23,-32.5"/>
<polygon fill="black" stroke="black" points="2230.03,-35.92 2239.28,-30.76 2228.83,-29.02 2230.03,-35.92"/>
</g>
<!-- TheoryModel&#45;&gt;CommonIdea -->
<g id="edge97" class="edge">
<title>TheoryModel&#45;&gt;CommonIdea</title>
<path fill="none" stroke="black" d="M1748.55,-77.14C1758.4,-75.15 1768.68,-73.31 1778.39,-72 2047.54,-35.67 2119.25,-72.33 2388.39,-36 2394.77,-35.14 2401.39,-34.05 2407.97,-32.84"/>
<polygon fill="black" stroke="black" points="2409.08,-36.19 2418.24,-30.86 2407.76,-29.32 2409.08,-36.19"/>
</g>
<!-- TheoryModel&#45;&gt;Referable -->
<g id="edge98" class="edge">
<title>TheoryModel&#45;&gt;Referable</title>
<path fill="none" stroke="black" d="M1748.54,-77.04C1758.39,-75.06 1768.68,-73.25 1778.39,-72 2118.18,-28.25 2209.71,-87.63 2548.39,-36 2553.45,-35.23 2558.69,-34.22 2563.89,-33.08"/>
<polygon fill="black" stroke="black" points="2564.86,-36.45 2573.79,-30.76 2563.26,-29.64 2564.86,-36.45"/>
</g>
<!-- Theory -->
<g id="node35" class="node">
<title>Theory</title>
<ellipse fill="none" stroke="magenta" cx="1182.39" cy="-18" rx="42.79" ry="18"/>
<text text-anchor="middle" x="1182.39" y="-14.3" font-family="Times,serif" font-size="14.00">Theory</text>
</g>
<!-- TheoryModel&#45;&gt;Theory -->
<g id="edge94" class="edge">
<title>TheoryModel&#45;&gt;Theory</title>
<path fill="none" stroke="black" d="M1628.71,-85.59C1537.12,-80.08 1371.64,-66.57 1233.39,-36 1230.01,-35.25 1226.54,-34.36 1223.07,-33.39"/>
<polygon fill="black" stroke="black" points="1223.98,-30.01 1213.39,-30.47 1221.96,-36.71 1223.98,-30.01"/>
</g>
<!-- _ConstraintSet -->
<g id="node36" class="node">
<title>_ConstraintSet</title>
<ellipse fill="none" stroke="black" cx="660.39" cy="-90" rx="79.89" ry="18"/>
<text text-anchor="middle" x="660.39" y="-86.3" font-family="Times,serif" font-size="14.00">_ConstraintSet</text>
</g>
<!-- _ConstraintSet&#45;&gt;HasUID -->
<g id="edge1" class="edge">
<title>_ConstraintSet&#45;&gt;HasUID</title>
<path fill="none" stroke="black" d="M661.13,-71.7C661.47,-63.98 661.86,-54.71 662.23,-46.11"/>
<polygon fill="black" stroke="black" points="665.73,-46.25 662.66,-36.1 658.74,-45.95 665.73,-46.25"/>
</g>
<!-- _ConstraintSet&#45;&gt;NamedIdea -->
<g id="edge2" class="edge">
<title>_ConstraintSet&#45;&gt;NamedIdea</title>
<path fill="none" stroke="black" d="M716.63,-77.16C766.53,-66.59 841.38,-50.57 906.39,-36 911.42,-34.87 916.64,-33.69 921.88,-32.49"/>
<polygon fill="black" stroke="black" points="922.95,-35.83 931.91,-30.18 921.37,-29.01 922.95,-35.83"/>
</g>
<!-- _ConstraintSet&#45;&gt;Idea -->
<g id="edge3" class="edge">
<title>_ConstraintSet&#45;&gt;Idea</title>
<path fill="none" stroke="black" d="M717.74,-77.43C728.25,-75.49 739.13,-73.59 749.39,-72 883.41,-51.27 921.5,-71.47 1052.39,-36 1054.68,-35.38 1057,-34.65 1059.32,-33.84"/>
<polygon fill="black" stroke="black" points="1060.64,-37.09 1068.7,-30.22 1058.11,-30.56 1060.64,-37.09"/>
</g>
<!-- _ConstraintSet&#45;&gt;Definition -->
<g id="edge4" class="edge">
<title>_ConstraintSet&#45;&gt;Definition</title>
<path fill="none" stroke="black" d="M633.32,-72.94C616.63,-63.04 595.07,-50.25 577.13,-39.61"/>
<polygon fill="black" stroke="black" points="578.51,-36.36 568.12,-34.26 574.94,-42.38 578.51,-36.36"/>
</g>
<!-- _ConstraintSet&#45;&gt;ConceptDomain -->
<g id="edge5" class="edge">
<title>_ConstraintSet&#45;&gt;ConceptDomain</title>
<path fill="none" stroke="black" d="M693.97,-73.64C716.33,-63.41 745.94,-49.86 770.07,-38.82"/>
<polygon fill="black" stroke="black" points="771.73,-41.91 779.37,-34.57 768.82,-35.55 771.73,-41.91"/>
</g>
<!-- ConstraintSet_e -->
<g id="node37" class="node">
<title>ConstraintSet_e</title>
<ellipse fill="none" stroke="black" cx="3404.39" cy="-90" rx="85.29" ry="18"/>
<text text-anchor="middle" x="3404.39" y="-86.3" font-family="Times,serif" font-size="14.00">ConstraintSet_e</text>
</g>
<!-- ConstraintSet_e&#45;&gt;Express -->
<g id="edge6" class="edge">
<title>ConstraintSet_e&#45;&gt;Express</title>
<path fill="none" stroke="black" d="M3425.72,-72.41C3437.83,-62.99 3453.14,-51.09 3466.23,-40.91"/>
<polygon fill="black" stroke="black" points="3468.71,-43.41 3474.45,-34.51 3464.41,-37.89 3468.71,-43.41"/>
</g>
<!-- _ModelKinds -->
<g id="node38" class="node">
<title>_ModelKinds</title>
<ellipse fill="none" stroke="black" cx="828.39" cy="-90" rx="70.39" ry="18"/>
<text text-anchor="middle" x="828.39" y="-86.3" font-family="Times,serif" font-size="14.00">_ModelKinds</text>
</g>
<!-- _ModelKinds&#45;&gt;HasUID -->
<g id="edge60" class="edge">
<title>_ModelKinds&#45;&gt;HasUID</title>
<path fill="none" stroke="black" d="M793.8,-74.33C767.35,-63.1 730.83,-47.61 703.16,-35.87"/>
<polygon fill="black" stroke="black" points="704.35,-32.57 693.78,-31.89 701.62,-39.02 704.35,-32.57"/>
</g>
<!-- _ModelKinds&#45;&gt;NamedIdea -->
<g id="edge61" class="edge">
<title>_ModelKinds&#45;&gt;NamedIdea</title>
<path fill="none" stroke="black" d="M860.79,-73.98C883.43,-63.49 913.86,-49.38 938.22,-38.09"/>
<polygon fill="black" stroke="black" points="939.97,-41.13 947.57,-33.75 937.03,-34.78 939.97,-41.13"/>
</g>
<!-- _ModelKinds&#45;&gt;Idea -->
<g id="edge62" class="edge">
<title>_ModelKinds&#45;&gt;Idea</title>
<path fill="none" stroke="black" d="M880.32,-77.84C936.08,-65.66 1020.93,-46.49 1052.39,-36 1054.5,-35.3 1056.65,-34.53 1058.8,-33.71"/>
<polygon fill="black" stroke="black" points="1060.18,-36.93 1068.15,-29.94 1057.56,-30.44 1060.18,-36.93"/>
</g>
<!-- _ModelKinds&#45;&gt;Definition -->
<g id="edge63" class="edge">
<title>_ModelKinds&#45;&gt;Definition</title>
<path fill="none" stroke="black" d="M778.29,-77.29C733.45,-66.74 665.95,-50.68 607.39,-36 603.08,-34.92 598.6,-33.78 594.11,-32.63"/>
<polygon fill="black" stroke="black" points="594.88,-29.21 584.32,-30.1 593.13,-35.99 594.88,-29.21"/>
</g>
<!-- _ModelKinds&#45;&gt;ConceptDomain -->
<g id="edge64" class="edge">
<title>_ModelKinds&#45;&gt;ConceptDomain</title>
<path fill="none" stroke="black" d="M824.69,-71.7C823.03,-63.98 821.05,-54.71 819.2,-46.11"/>
<polygon fill="black" stroke="black" points="822.58,-45.15 817.06,-36.1 815.73,-46.62 822.58,-45.15"/>
</g>
<!-- ModelKinds_e -->
<g id="node39" class="node">
<title>ModelKinds_e</title>
<ellipse fill="none" stroke="black" cx="3583.39" cy="-90" rx="75.29" ry="18"/>
<text text-anchor="middle" x="3583.39" y="-86.3" font-family="Times,serif" font-size="14.00">ModelKinds_e</text>
</g>
<!-- ModelKinds_e&#45;&gt;Express -->
<g id="edge65" class="edge">
<title>ModelKinds_e&#45;&gt;Express</title>
<path fill="none" stroke="black" d="M3562.3,-72.41C3550.33,-62.99 3535.19,-51.09 3522.25,-40.91"/>
<polygon fill="black" stroke="black" points="3524.14,-37.94 3514.11,-34.51 3519.81,-43.44 3524.14,-37.94"/>
</g>
<!-- _ModelKind -->
<g id="node40" class="node">
<title>_ModelKind</title>
<ellipse fill="none" stroke="black" cx="982.39" cy="-90" rx="65.79" ry="18"/>
<text text-anchor="middle" x="982.39" y="-86.3" font-family="Times,serif" font-size="14.00">_ModelKind</text>
</g>
<!-- _ModelKind&#45;&gt;HasUID -->
<g id="edge66" class="edge">
<title>_ModelKind&#45;&gt;HasUID</title>
<path fill="none" stroke="black" d="M934.03,-77.79C925.18,-75.81 916.02,-73.81 907.39,-72 824.56,-54.64 802.6,-56.12 720.39,-36 716.55,-35.06 712.59,-34.02 708.62,-32.93"/>
<polygon fill="black" stroke="black" points="709.39,-29.52 698.82,-30.16 707.49,-36.25 709.39,-29.52"/>
</g>
<!-- _ModelKind&#45;&gt;NamedIdea -->
<g id="edge67" class="edge">
<title>_ModelKind&#45;&gt;NamedIdea</title>
<path fill="none" stroke="black" d="M981.65,-71.7C981.32,-63.98 980.92,-54.71 980.56,-46.11"/>
<polygon fill="black" stroke="black" points="984.05,-45.95 980.13,-36.1 977.06,-46.25 984.05,-45.95"/>
</g>
<!-- _ModelKind&#45;&gt;Idea -->
<g id="edge68" class="edge">
<title>_ModelKind&#45;&gt;Idea</title>
<path fill="none" stroke="black" d="M1006.86,-73.29C1023.42,-62.65 1045.38,-48.55 1062.77,-37.39"/>
<polygon fill="black" stroke="black" points="1064.86,-40.2 1071.39,-31.85 1061.08,-34.31 1064.86,-40.2"/>
</g>
<!-- _ModelKind&#45;&gt;Definition -->
<g id="edge69" class="edge">
<title>_ModelKind&#45;&gt;Definition</title>
<path fill="none" stroke="black" d="M934.93,-77.46C925.82,-75.47 916.34,-73.55 907.39,-72 775.07,-49.13 739.33,-61.05 607.39,-36 602.63,-35.1 597.7,-34.04 592.78,-32.9"/>
<polygon fill="black" stroke="black" points="593.31,-29.42 582.77,-30.47 591.66,-36.23 593.31,-29.42"/>
</g>
<!-- _ModelKind&#45;&gt;ConceptDomain -->
<g id="edge70" class="edge">
<title>_ModelKind&#45;&gt;ConceptDomain</title>
<path fill="none" stroke="black" d="M947.79,-74.67C922.39,-64.15 887.62,-49.75 859.82,-38.23"/>
<polygon fill="black" stroke="black" points="860.87,-34.88 850.3,-34.29 858.2,-41.35 860.87,-34.88"/>
</g>
<!-- ModelKind_e -->
<g id="node41" class="node">
<title>ModelKind_e</title>
<ellipse fill="none" stroke="black" cx="3747.39" cy="-90" rx="70.69" ry="18"/>
<text text-anchor="middle" x="3747.39" y="-86.3" font-family="Times,serif" font-size="14.00">ModelKind_e</text>
</g>
<!-- ModelKind_e&#45;&gt;Express -->
<g id="edge71" class="edge">
<title>ModelKind_e&#45;&gt;Express</title>
<path fill="none" stroke="black" d="M3701.28,-76.24C3656,-63.71 3587.26,-44.69 3541.61,-32.06"/>
<polygon fill="black" stroke="black" points="3542.52,-28.68 3531.95,-29.39 3540.65,-35.43 3542.52,-28.68"/>
</g>
<!-- _DefiningExpr -->
<g id="node42" class="node">
<title>_DefiningExpr</title>
<ellipse fill="none" stroke="black" cx="485.39" cy="-90" rx="76.89" ry="18"/>
<text text-anchor="middle" x="485.39" y="-86.3" font-family="Times,serif" font-size="14.00">_DefiningExpr</text>
</g>
<!-- _DefiningExpr&#45;&gt;HasUID -->
<g id="edge73" class="edge">
<title>_DefiningExpr&#45;&gt;HasUID</title>
<path fill="none" stroke="black" d="M523.14,-74.15C552.24,-62.71 592.43,-46.91 622.33,-35.15"/>
<polygon fill="black" stroke="black" points="623.62,-38.4 631.65,-31.48 621.06,-31.89 623.62,-38.4"/>
</g>
<!-- _DefiningExpr&#45;&gt;Definition -->
<g id="edge75" class="edge">
<title>_DefiningExpr&#45;&gt;Definition</title>
<path fill="none" stroke="black" d="M499.19,-72.05C506.12,-63.54 514.65,-53.07 522.3,-43.68"/>
<polygon fill="black" stroke="black" points="525.12,-45.75 528.72,-35.79 519.69,-41.33 525.12,-45.75"/>
</g>
<!-- _DefiningExpr&#45;&gt;ConceptDomain -->
<g id="edge74" class="edge">
<title>_DefiningExpr&#45;&gt;ConceptDomain</title>
<path fill="none" stroke="black" d="M540.29,-77.28C596.87,-65.21 685.15,-46.37 745.94,-33.4"/>
<polygon fill="black" stroke="black" points="746.78,-36.8 755.83,-31.28 745.32,-29.95 746.78,-36.8"/>
</g>
<!-- _DefiningExpr&#45;&gt;Eq -->
<g id="edge72" class="edge">
<title>_DefiningExpr&#45;&gt;Eq</title>
<path fill="none" stroke="black" d="M474.74,-72.05C469.35,-63.47 462.69,-52.89 456.76,-43.44"/>
<polygon fill="black" stroke="black" points="459.63,-41.43 451.34,-34.83 453.7,-45.16 459.63,-41.43"/>
</g>
<!-- _MultiDefn -->
<g id="node43" class="node">
<title>_MultiDefn</title>
<ellipse fill="none" stroke="black" cx="1127.39" cy="-90" rx="61.99" ry="18"/>
<text text-anchor="middle" x="1127.39" y="-86.3" font-family="Times,serif" font-size="14.00">_MultiDefn</text>
</g>
<!-- _MultiDefn&#45;&gt;HasUID -->
<g id="edge76" class="edge">
<title>_MultiDefn&#45;&gt;HasUID</title>
<path fill="none" stroke="black" d="M1083.14,-77.32C1074.64,-75.34 1065.77,-73.46 1057.39,-72 908.99,-46.17 868.08,-65.65 720.39,-36 716.29,-35.18 712.06,-34.19 707.85,-33.11"/>
<polygon fill="black" stroke="black" points="708.67,-29.71 698.11,-30.45 706.83,-36.46 708.67,-29.71"/>
</g>
<!-- _MultiDefn&#45;&gt;NamedIdea -->
<g id="edge78" class="edge">
<title>_MultiDefn&#45;&gt;NamedIdea</title>
<path fill="none" stroke="black" d="M1096.37,-74.33C1074.14,-63.81 1044.01,-49.56 1019.89,-38.15"/>
<polygon fill="black" stroke="black" points="1021.17,-34.89 1010.63,-33.78 1018.18,-41.21 1021.17,-34.89"/>
</g>
<!-- _MultiDefn&#45;&gt;Idea -->
<g id="edge79" class="edge">
<title>_MultiDefn&#45;&gt;Idea</title>
<path fill="none" stroke="black" d="M1118.68,-72.05C1114.48,-63.89 1109.35,-53.91 1104.67,-44.82"/>
<polygon fill="black" stroke="black" points="1107.71,-43.08 1100.03,-35.79 1101.49,-46.28 1107.71,-43.08"/>
</g>
<!-- _MultiDefn&#45;&gt;Definition -->
<g id="edge84" class="edge">
<title>_MultiDefn&#45;&gt;Definition</title>
<path fill="none" stroke="black" d="M1083.55,-77.23C1074.93,-75.23 1065.91,-73.37 1057.39,-72 859.29,-40.23 805.21,-69.51 607.39,-36 602.42,-35.16 597.27,-34.11 592.14,-32.96"/>
<polygon fill="black" stroke="black" points="592.91,-29.55 582.37,-30.64 591.29,-36.36 592.91,-29.55"/>
</g>
<!-- _MultiDefn&#45;&gt;ConceptDomain -->
<g id="edge83" class="edge">
<title>_MultiDefn&#45;&gt;ConceptDomain</title>
<path fill="none" stroke="black" d="M1081.87,-77.77C1073.73,-75.81 1065.32,-73.82 1057.39,-72 998.11,-58.36 930.5,-43.75 881.51,-33.33"/>
<polygon fill="black" stroke="black" points="882.17,-29.89 871.66,-31.24 880.71,-36.74 882.17,-29.89"/>
</g>
<!-- _MultiDefn&#45;&gt;HasSpace -->
<g id="edge80" class="edge">
<title>_MultiDefn&#45;&gt;HasSpace</title>
<path fill="none" stroke="black" d="M1161.79,-75C1189,-63.93 1227.16,-48.4 1256.39,-36.5"/>
<polygon fill="black" stroke="black" points="1257.99,-39.63 1265.94,-32.62 1255.36,-33.14 1257.99,-39.63"/>
</g>
<!-- _MultiDefn&#45;&gt;HasSymbol -->
<g id="edge77" class="edge">
<title>_MultiDefn&#45;&gt;HasSymbol</title>
<path fill="none" stroke="black" d="M1175.3,-78.52C1223.39,-67.95 1299.58,-51.1 1365.39,-36 1370.28,-34.88 1375.34,-33.71 1380.42,-32.52"/>
<polygon fill="black" stroke="black" points="1381.22,-35.93 1390.16,-30.24 1379.63,-29.11 1381.22,-35.93"/>
</g>
<!-- _MultiDefn&#45;&gt;Quantity -->
<g id="edge81" class="edge">
<title>_MultiDefn&#45;&gt;Quantity</title>
<path fill="none" stroke="black" d="M1185.25,-83.52C1260.62,-75.8 1396.25,-59.95 1510.39,-36 1514.57,-35.12 1518.87,-34.12 1523.18,-33.04"/>
<polygon fill="black" stroke="black" points="1524.36,-36.34 1533.14,-30.42 1522.58,-29.57 1524.36,-36.34"/>
</g>
<!-- _MultiDefn&#45;&gt;MayHaveUnit -->
<g id="edge82" class="edge">
<title>_MultiDefn&#45;&gt;MayHaveUnit</title>
<path fill="none" stroke="black" d="M1186.47,-84.56C1280.7,-77.07 1470.67,-60.33 1630.39,-36 1637.09,-34.98 1644.06,-33.79 1651,-32.53"/>
<polygon fill="black" stroke="black" points="1651.93,-35.92 1661.11,-30.63 1650.64,-29.04 1651.93,-35.92"/>
</g>
<!-- MultiDefn_e -->
<g id="node44" class="node">
<title>MultiDefn_e</title>
<ellipse fill="none" stroke="black" cx="3233.39" cy="-90" rx="67.69" ry="18"/>
<text text-anchor="middle" x="3233.39" y="-86.3" font-family="Times,serif" font-size="14.00">MultiDefn_e</text>
</g>
<!-- MultiDefn_e&#45;&gt;Express -->
<g id="edge85" class="edge">
<title>MultiDefn_e&#45;&gt;Express</title>
<path fill="none" stroke="black" d="M3280.93,-77.16C3322.35,-66.72 3383.99,-50.89 3437.39,-36 3440.99,-35 3444.7,-33.94 3448.43,-32.86"/>
<polygon fill="black" stroke="black" points="3449.65,-36.15 3458.27,-29.99 3447.68,-29.43 3449.65,-36.15"/>
</g>
</g>
</svg>
