<?xml version="1.0" encoding="UTF-8" standalone="no"?>
<!DOCTYPE svg PUBLIC "-//W3C//DTD SVG 1.1//EN"
 "http://www.w3.org/Graphics/SVG/1.1/DTD/svg11.dtd">
<!-- Generated by graphviz version 2.43.0 (0)
 -->
<!-- Title: build Pages: 1 -->
<svg width="1020pt" height="116pt"
 viewBox="0.00 0.00 1019.54 116.00" xmlns="http://www.w3.org/2000/svg" xmlns:xlink="http://www.w3.org/1999/xlink">
<g id="graph0" class="graph" transform="scale(1 1) rotate(0) translate(4 112)">
<title>build</title>
<polygon fill="white" stroke="transparent" points="-4,4 -4,-112 1015.54,-112 1015.54,4 -4,4"/>
<!-- Rule -->
<g id="node1" class="node">
<title>Rule</title>
<ellipse fill="none" stroke="#00868b" cx="31.85" cy="-90" rx="31.7" ry="18"/>
<text text-anchor="middle" x="31.85" y="-86.3" font-family="Times,serif" font-size="14.00">Rule</text>
</g>
<!-- Command -->
<g id="node2" class="node">
<title>Command</title>
<ellipse fill="none" stroke="#00868b" cx="139.85" cy="-90" rx="57.69" ry="18"/>
<text text-anchor="middle" x="139.85" y="-86.3" font-family="Times,serif" font-size="14.00">Command</text>
</g>
<!-- CommandOpts -->
<g id="node3" class="node">
<title>CommandOpts</title>
<ellipse fill="none" stroke="#00868b" cx="294.85" cy="-90" rx="79.09" ry="18"/>
<text text-anchor="middle" x="294.85" y="-86.3" font-family="Times,serif" font-size="14.00">CommandOpts</text>
</g>
<!-- Type -->
<g id="node4" class="node">
<title>Type</title>
<ellipse fill="none" stroke="#00868b" cx="424.85" cy="-90" rx="33.29" ry="18"/>
<text text-anchor="middle" x="424.85" y="-86.3" font-family="Times,serif" font-size="14.00">Type</text>
</g>
<!-- Makefile -->
<g id="node5" class="node">
<title>Makefile</title>
<ellipse fill="none" stroke="#00868b" cx="525.85" cy="-90" rx="50.09" ry="18"/>
<text text-anchor="middle" x="525.85" y="-86.3" font-family="Times,serif" font-size="14.00">Makefile</text>
</g>
<!-- MakeString -->
<g id="node6" class="node">
<title>MakeString</title>
<ellipse fill="none" stroke="#00868b" cx="659.85" cy="-90" rx="65.79" ry="18"/>
<text text-anchor="middle" x="659.85" y="-86.3" font-family="Times,serif" font-size="14.00">MakeString</text>
</g>
<!-- Semigroup -->
<g id="node8" class="node">
<title>Semigroup</title>
<ellipse fill="none" stroke="pink" cx="596.85" cy="-18" rx="61.99" ry="18"/>
<text text-anchor="middle" x="596.85" y="-14.3" font-family="Times,serif" font-size="14.00">Semigroup</text>
</g>
<!-- MakeString&#45;&gt;Semigroup -->
<g id="edge1" class="edge">
<title>MakeString&#45;&gt;Semigroup</title>
<path fill="none" stroke="black" d="M644.92,-72.41C637.18,-63.82 627.59,-53.16 619.01,-43.63"/>
<polygon fill="black" stroke="black" points="621.4,-41.05 612.11,-35.96 616.2,-45.73 621.4,-41.05"/>
</g>
<!-- Monoid -->
<g id="node9" class="node">
<title>Monoid</title>
<ellipse fill="none" stroke="pink" cx="721.85" cy="-18" rx="45.49" ry="18"/>
<text text-anchor="middle" x="721.85" y="-14.3" font-family="Times,serif" font-size="14.00">Monoid</text>
</g>
<!-- MakeString&#45;&gt;Monoid -->
<g id="edge2" class="edge">
<title>MakeString&#45;&gt;Monoid</title>
<path fill="none" stroke="black" d="M674.54,-72.41C682.26,-63.69 691.87,-52.85 700.41,-43.21"/>
<polygon fill="black" stroke="black" points="703.25,-45.28 707.26,-35.47 698.01,-40.64 703.25,-45.28"/>
</g>
<!-- MVar -->
<g id="node7" class="node">
<title>MVar</title>
<ellipse fill="none" stroke="#00868b" cx="778.85" cy="-90" rx="36" ry="18"/>
<text text-anchor="middle" x="778.85" y="-86.3" font-family="Times,serif" font-size="14.00">MVar</text>
</g>
<!-- RuleTransformer -->
<g id="node10" class="node">
<title>RuleTransformer</title>
<ellipse fill="none" stroke="magenta" cx="921.85" cy="-90" rx="89.88" ry="18"/>
<text text-anchor="middle" x="921.85" y="-86.3" font-family="Times,serif" font-size="14.00">RuleTransformer</text>
</g>
</g>
</svg>
