<?xml version="1.0" encoding="UTF-8" standalone="no"?>
<!DOCTYPE svg PUBLIC "-//W3C//DTD SVG 1.1//EN"
 "http://www.w3.org/Graphics/SVG/1.1/DTD/svg11.dtd">
<!-- Generated by graphviz version 2.43.0 (0)
 -->
<!-- Title: docLang Pages: 1 -->
<svg width="624pt" height="575pt"
 viewBox="0.00 0.00 624.04 575.00" xmlns="http://www.w3.org/2000/svg" xmlns:xlink="http://www.w3.org/1999/xlink">
<g id="graph0" class="graph" transform="scale(1 1) rotate(0) translate(4 571)">
<title>docLang</title>
<polygon fill="white" stroke="transparent" points="-4,4 -4,-571 620.04,-571 620.04,4 -4,4"/>
<!-- DocSection -->
<g id="node1" class="node">
<title>DocSection</title>
<ellipse fill="none" stroke="#00868b" cx="324.25" cy="-441" rx="63.09" ry="18"/>
<text text-anchor="middle" x="324.25" y="-437.3" font-family="Times,serif" font-size="14.00">DocSection</text>
</g>
<!-- RefSec -->
<g id="node2" class="node">
<title>RefSec</title>
<ellipse fill="none" stroke="#00868b" cx="52.25" cy="-189" rx="42.79" ry="18"/>
<text text-anchor="middle" x="52.25" y="-185.3" font-family="Times,serif" font-size="14.00">RefSec</text>
</g>
<!-- RefTab -->
<g id="node3" class="node">
<title>RefTab</title>
<ellipse fill="none" stroke="#00868b" cx="43.25" cy="-441" rx="42.79" ry="18"/>
<text text-anchor="middle" x="43.25" y="-437.3" font-family="Times,serif" font-size="14.00">RefTab</text>
</g>
<!-- TSIntro -->
<g id="node4" class="node">
<title>TSIntro</title>
<ellipse fill="none" stroke="#00868b" cx="136.25" cy="-495" rx="46.29" ry="18"/>
<text text-anchor="middle" x="136.25" y="-491.3" font-family="Times,serif" font-size="14.00">TSIntro</text>
</g>
<!-- TConvention -->
<g id="node5" class="node">
<title>TConvention</title>
<ellipse fill="none" stroke="#00868b" cx="205.25" cy="-333" rx="69.59" ry="18"/>
<text text-anchor="middle" x="205.25" y="-329.3" font-family="Times,serif" font-size="14.00">TConvention</text>
</g>
<!-- Emphasis -->
<g id="node6" class="node">
<title>Emphasis</title>
<ellipse fill="none" stroke="#00868b" cx="119.4" cy="-243" rx="55.79" ry="18"/>
<text text-anchor="middle" x="119.4" y="-239.3" font-family="Times,serif" font-size="14.00">Emphasis</text>
</g>
<!-- Show -->
<g id="node37" class="node">
<title>Show</title>
<ellipse fill="none" stroke="pink" cx="283.69" cy="-243" rx="36.29" ry="18"/>
<text text-anchor="middle" x="283.69" y="-239.3" font-family="Times,serif" font-size="14.00">Show</text>
</g>
<!-- Emphasis&#45;&gt;Show -->
<g id="edge1" class="edge">
<title>Emphasis&#45;&gt;Show</title>
<path fill="none" stroke="black" d="M175.48,-243C195.4,-243 217.61,-243 236.69,-243"/>
<polygon fill="black" stroke="black" points="236.94,-246.5 246.94,-243 236.94,-239.5 236.94,-246.5"/>
</g>
<!-- Literature -->
<g id="node7" class="node">
<title>Literature</title>
<ellipse fill="none" stroke="#00868b" cx="517.25" cy="-459" rx="57.69" ry="18"/>
<text text-anchor="middle" x="517.25" y="-455.3" font-family="Times,serif" font-size="14.00">Literature</text>
</g>
<!-- TUIntro -->
<g id="node8" class="node">
<title>TUIntro</title>
<ellipse fill="none" stroke="#00868b" cx="83.25" cy="-387" rx="47.39" ry="18"/>
<text text-anchor="middle" x="83.25" y="-383.3" font-family="Times,serif" font-size="14.00">TUIntro</text>
</g>
<!-- LFunc -->
<g id="node9" class="node">
<title>LFunc</title>
<ellipse fill="none" stroke="#00868b" cx="346.25" cy="-549" rx="39.79" ry="18"/>
<text text-anchor="middle" x="346.25" y="-545.3" font-family="Times,serif" font-size="14.00">LFunc</text>
</g>
<!-- IntroSec -->
<g id="node10" class="node">
<title>IntroSec</title>
<ellipse fill="none" stroke="#00868b" cx="320.25" cy="-27" rx="50.09" ry="18"/>
<text text-anchor="middle" x="320.25" y="-23.3" font-family="Times,serif" font-size="14.00">IntroSec</text>
</g>
<!-- IntroSub -->
<g id="node11" class="node">
<title>IntroSub</title>
<ellipse fill="none" stroke="#00868b" cx="133.25" cy="-81" rx="51.99" ry="18"/>
<text text-anchor="middle" x="133.25" y="-77.3" font-family="Times,serif" font-size="14.00">IntroSub</text>
</g>
<!-- StkhldrSub -->
<g id="node12" class="node">
<title>StkhldrSub</title>
<ellipse fill="none" stroke="#00868b" cx="172.25" cy="-441" rx="63.89" ry="18"/>
<text text-anchor="middle" x="172.25" y="-437.3" font-family="Times,serif" font-size="14.00">StkhldrSub</text>
</g>
<!-- GSDSub -->
<g id="node13" class="node">
<title>GSDSub</title>
<ellipse fill="none" stroke="#00868b" cx="446.25" cy="-27" rx="50.09" ry="18"/>
<text text-anchor="middle" x="446.25" y="-23.3" font-family="Times,serif" font-size="14.00">GSDSub</text>
</g>
<!-- SSDSub -->
<g id="node14" class="node">
<title>SSDSub</title>
<ellipse fill="none" stroke="#00868b" cx="561.25" cy="-513" rx="48.19" ry="18"/>
<text text-anchor="middle" x="561.25" y="-509.3" font-family="Times,serif" font-size="14.00">SSDSub</text>
</g>
<!-- ProblemDescription -->
<g id="node15" class="node">
<title>ProblemDescription</title>
<ellipse fill="none" stroke="#00868b" cx="373.25" cy="-189" rx="103.18" ry="18"/>
<text text-anchor="middle" x="373.25" y="-185.3" font-family="Times,serif" font-size="14.00">ProblemDescription</text>
</g>
<!-- PDSub -->
<g id="node16" class="node">
<title>PDSub</title>
<ellipse fill="none" stroke="#00868b" cx="42.25" cy="-135" rx="42.49" ry="18"/>
<text text-anchor="middle" x="42.25" y="-131.3" font-family="Times,serif" font-size="14.00">PDSub</text>
</g>
<!-- SolChSpec -->
<g id="node17" class="node">
<title>SolChSpec</title>
<ellipse fill="none" stroke="#00868b" cx="330.25" cy="-81" rx="60.39" ry="18"/>
<text text-anchor="middle" x="330.25" y="-77.3" font-family="Times,serif" font-size="14.00">SolChSpec</text>
</g>
<!-- SCSSub -->
<g id="node18" class="node">
<title>SCSSub</title>
<ellipse fill="none" stroke="#00868b" cx="75.25" cy="-27" rx="48.19" ry="18"/>
<text text-anchor="middle" x="75.25" y="-23.3" font-family="Times,serif" font-size="14.00">SCSSub</text>
</g>
<!-- DerivationDisplay -->
<g id="node19" class="node">
<title>DerivationDisplay</title>
<ellipse fill="none" stroke="#00868b" cx="445.25" cy="-351" rx="94.48" ry="18"/>
<text text-anchor="middle" x="445.25" y="-347.3" font-family="Times,serif" font-size="14.00">DerivationDisplay</text>
</g>
<!-- ReqsSub -->
<g id="node20" class="node">
<title>ReqsSub</title>
<ellipse fill="none" stroke="#00868b" cx="538.25" cy="-243" rx="51.99" ry="18"/>
<text text-anchor="middle" x="538.25" y="-239.3" font-family="Times,serif" font-size="14.00">ReqsSub</text>
</g>
<!-- TraceConfig -->
<g id="node21" class="node">
<title>TraceConfig</title>
<ellipse fill="none" stroke="#00868b" cx="183.25" cy="-189" rx="66.09" ry="18"/>
<text text-anchor="middle" x="183.25" y="-185.3" font-family="Times,serif" font-size="14.00">TraceConfig</text>
</g>
<!-- AuxConstntSec -->
<g id="node22" class="node">
<title>AuxConstntSec</title>
<ellipse fill="none" stroke="#00868b" cx="486.25" cy="-405" rx="81.49" ry="18"/>
<text text-anchor="middle" x="486.25" y="-401.3" font-family="Times,serif" font-size="14.00">AuxConstntSec</text>
</g>
<!-- DLPlate -->
<g id="node23" class="node">
<title>DLPlate</title>
<ellipse fill="none" stroke="#00868b" cx="345.1" cy="-297" rx="48.19" ry="18"/>
<text text-anchor="middle" x="345.1" y="-293.3" font-family="Times,serif" font-size="14.00">DLPlate</text>
</g>
<!-- Multiplate -->
<g id="node38" class="node">
<title>Multiplate</title>
<ellipse fill="none" stroke="pink" cx="524.34" cy="-297" rx="59.29" ry="18"/>
<text text-anchor="middle" x="524.34" y="-293.3" font-family="Times,serif" font-size="14.00">Multiplate</text>
</g>
<!-- DLPlate&#45;&gt;Multiplate -->
<g id="edge2" class="edge">
<title>DLPlate&#45;&gt;Multiplate</title>
<path fill="none" stroke="black" d="M393.61,-297C412.41,-297 434.3,-297 454.72,-297"/>
<polygon fill="black" stroke="black" points="454.93,-300.5 464.93,-297 454.93,-293.5 454.93,-300.5"/>
</g>
<!-- StkhldrSec -->
<g id="node24" class="node">
<title>StkhldrSec</title>
<ellipse fill="none" stroke="#00868b" cx="476.25" cy="-81" rx="61.99" ry="18"/>
<text text-anchor="middle" x="476.25" y="-77.3" font-family="Times,serif" font-size="14.00">StkhldrSec</text>
</g>
<!-- GSDSec -->
<g id="node25" class="node">
<title>GSDSec</title>
<ellipse fill="none" stroke="#00868b" cx="192.25" cy="-27" rx="48.19" ry="18"/>
<text text-anchor="middle" x="192.25" y="-23.3" font-family="Times,serif" font-size="14.00">GSDSec</text>
</g>
<!-- SSDSec -->
<g id="node26" class="node">
<title>SSDSec</title>
<ellipse fill="none" stroke="#00868b" cx="569.25" cy="-18" rx="46.59" ry="18"/>
<text text-anchor="middle" x="569.25" y="-14.3" font-family="Times,serif" font-size="14.00">SSDSec</text>
</g>
<!-- ReqrmntSec -->
<g id="node27" class="node">
<title>ReqrmntSec</title>
<ellipse fill="none" stroke="#00868b" cx="176.25" cy="-135" rx="68.49" ry="18"/>
<text text-anchor="middle" x="176.25" y="-131.3" font-family="Times,serif" font-size="14.00">ReqrmntSec</text>
</g>
<!-- LCsSec -->
<g id="node28" class="node">
<title>LCsSec</title>
<ellipse fill="none" stroke="#00868b" cx="450.25" cy="-549" rx="44.69" ry="18"/>
<text text-anchor="middle" x="450.25" y="-545.3" font-family="Times,serif" font-size="14.00">LCsSec</text>
</g>
<!-- UCsSec -->
<g id="node29" class="node">
<title>UCsSec</title>
<ellipse fill="none" stroke="#00868b" cx="65.25" cy="-333" rx="46.59" ry="18"/>
<text text-anchor="middle" x="65.25" y="-329.3" font-family="Times,serif" font-size="14.00">UCsSec</text>
</g>
<!-- TraceabilitySec -->
<g id="node30" class="node">
<title>TraceabilitySec</title>
<ellipse fill="none" stroke="#00868b" cx="353.25" cy="-135" rx="82.59" ry="18"/>
<text text-anchor="middle" x="353.25" y="-131.3" font-family="Times,serif" font-size="14.00">TraceabilitySec</text>
</g>
<!-- OffShelfSolnsSec -->
<g id="node31" class="node">
<title>OffShelfSolnsSec</title>
<ellipse fill="none" stroke="#00868b" cx="243.25" cy="-387" rx="90.18" ry="18"/>
<text text-anchor="middle" x="243.25" y="-383.3" font-family="Times,serif" font-size="14.00">OffShelfSolnsSec</text>
</g>
<!-- AppndxSec -->
<g id="node32" class="node">
<title>AppndxSec</title>
<ellipse fill="none" stroke="#00868b" cx="521.25" cy="-135" rx="62.29" ry="18"/>
<text text-anchor="middle" x="521.25" y="-131.3" font-family="Times,serif" font-size="14.00">AppndxSec</text>
</g>
<!-- Field -->
<g id="node33" class="node">
<title>Field</title>
<ellipse fill="none" stroke="#00868b" cx="426.54" cy="-243" rx="34.39" ry="18"/>
<text text-anchor="middle" x="426.54" y="-239.3" font-family="Times,serif" font-size="14.00">Field</text>
</g>
<!-- Field&#45;&gt;Show -->
<g id="edge3" class="edge">
<title>Field&#45;&gt;Show</title>
<path fill="none" stroke="black" d="M391.96,-243C373.47,-243 350.44,-243 330.38,-243"/>
<polygon fill="black" stroke="black" points="330.2,-239.5 320.2,-243 330.2,-246.5 330.2,-239.5"/>
</g>
<!-- Verbosity -->
<g id="node34" class="node">
<title>Verbosity</title>
<ellipse fill="none" stroke="#00868b" cx="550.25" cy="-189" rx="54.69" ry="18"/>
<text text-anchor="middle" x="550.25" y="-185.3" font-family="Times,serif" font-size="14.00">Verbosity</text>
</g>
<!-- InclUnits -->
<g id="node35" class="node">
<title>InclUnits</title>
<ellipse fill="none" stroke="#00868b" cx="386.25" cy="-495" rx="53.09" ry="18"/>
<text text-anchor="middle" x="386.25" y="-491.3" font-family="Times,serif" font-size="14.00">InclUnits</text>
</g>
<!-- ModelDB -->
<g id="node36" class="node">
<title>ModelDB</title>
<ellipse fill="none" stroke="#00868b" cx="261.25" cy="-495" rx="53.89" ry="18"/>
<text text-anchor="middle" x="261.25" y="-491.3" font-family="Times,serif" font-size="14.00">ModelDB</text>
</g>
</g>
</svg>
