<?xml version="1.0" encoding="UTF-8" standalone="no"?>
<!DOCTYPE svg PUBLIC "-//W3C//DTD SVG 1.1//EN"
 "http://www.w3.org/Graphics/SVG/1.1/DTD/svg11.dtd">
<!-- Generated by graphviz version 2.43.0 (0)
 -->
<!-- Title: code Pages: 1 -->
<svg width="2050pt" height="1890pt"
 viewBox="0.00 0.00 2050.02 1890.06" xmlns="http://www.w3.org/2000/svg" xmlns:xlink="http://www.w3.org/1999/xlink">
<g id="graph0" class="graph" transform="scale(1 1) rotate(0) translate(4 1886.06)">
<title>code</title>
<polygon fill="white" stroke="transparent" points="-4,4 -4,-1886.06 2046.02,-1886.06 2046.02,4 -4,4"/>
<!-- DefinitionType -->
<g id="node1" class="node">
<title>DefinitionType</title>
<ellipse fill="none" stroke="#00868b" cx="991.43" cy="-762" rx="78.79" ry="18"/>
<text text-anchor="middle" x="991.43" y="-758.3" font-family="Times,serif" font-size="14.00">DefinitionType</text>
</g>
<!-- CodeDefinition -->
<g id="node2" class="node">
<title>CodeDefinition</title>
<ellipse fill="none" stroke="#00868b" cx="839.75" cy="-855.71" rx="79.09" ry="18"/>
<text text-anchor="middle" x="839.75" y="-852.01" font-family="Times,serif" font-size="14.00">CodeDefinition</text>
</g>
<!-- CodeIdea -->
<g id="node77" class="node">
<title>CodeIdea</title>
<ellipse fill="none" stroke="pink" cx="909.26" cy="-619" rx="53.89" ry="18"/>
<text text-anchor="middle" x="909.26" y="-615.3" font-family="Times,serif" font-size="14.00">CodeIdea</text>
</g>
<!-- CodeDefinition&#45;&gt;CodeIdea -->
<g id="edge10" class="edge">
<title>CodeDefinition&#45;&gt;CodeIdea</title>
<path fill="none" stroke="black" d="M845.09,-837.52C857.2,-796.29 886.81,-695.46 901.17,-646.53"/>
<polygon fill="black" stroke="black" points="904.54,-647.5 904,-636.92 897.82,-645.53 904.54,-647.5"/>
</g>
<!-- HasUID -->
<g id="node78" class="node">
<title>HasUID</title>
<ellipse fill="none" stroke="pink" cx="653.31" cy="-1017.26" rx="47.39" ry="18"/>
<text text-anchor="middle" x="653.31" y="-1013.56" font-family="Times,serif" font-size="14.00">HasUID</text>
</g>
<!-- CodeDefinition&#45;&gt;HasUID -->
<g id="edge4" class="edge">
<title>CodeDefinition&#45;&gt;HasUID</title>
<path fill="none" stroke="black" d="M819.45,-873.3C785.75,-902.5 718.28,-960.97 680.51,-993.69"/>
<polygon fill="black" stroke="black" points="677.74,-991.46 672.48,-1000.65 682.33,-996.75 677.74,-991.46"/>
</g>
<!-- NamedIdea -->
<g id="node79" class="node">
<title>NamedIdea</title>
<ellipse fill="none" stroke="pink" cx="839.75" cy="-382.29" rx="63.89" ry="18"/>
<text text-anchor="middle" x="839.75" y="-378.59" font-family="Times,serif" font-size="14.00">NamedIdea</text>
</g>
<!-- CodeDefinition&#45;&gt;NamedIdea -->
<g id="edge5" class="edge">
<title>CodeDefinition&#45;&gt;NamedIdea</title>
<path fill="none" stroke="black" d="M839.75,-837.44C839.75,-765.09 839.75,-498.36 839.75,-410.54"/>
<polygon fill="black" stroke="black" points="843.25,-410.51 839.75,-400.51 836.25,-410.51 843.25,-410.51"/>
</g>
<!-- Idea -->
<g id="node80" class="node">
<title>Idea</title>
<ellipse fill="none" stroke="pink" cx="653.31" cy="-220.74" rx="30.59" ry="18"/>
<text text-anchor="middle" x="653.31" y="-217.04" font-family="Times,serif" font-size="14.00">Idea</text>
</g>
<!-- CodeDefinition&#45;&gt;Idea -->
<g id="edge6" class="edge">
<title>CodeDefinition&#45;&gt;Idea</title>
<path fill="none" stroke="black" d="M834.48,-837.72C808.38,-748.86 693.17,-356.49 661.43,-248.4"/>
<polygon fill="black" stroke="black" points="664.72,-247.17 658.55,-238.57 658.01,-249.15 664.72,-247.17"/>
</g>
<!-- HasSpace -->
<g id="node81" class="node">
<title>HasSpace</title>
<ellipse fill="none" stroke="pink" cx="409.13" cy="-185.63" rx="56.59" ry="18"/>
<text text-anchor="middle" x="409.13" y="-181.93" font-family="Times,serif" font-size="14.00">HasSpace</text>
</g>
<!-- CodeDefinition&#45;&gt;HasSpace -->
<g id="edge7" class="edge">
<title>CodeDefinition&#45;&gt;HasSpace</title>
<path fill="none" stroke="black" d="M828.24,-837.78C768.78,-745.27 496.67,-321.85 425.96,-211.82"/>
<polygon fill="black" stroke="black" points="428.83,-209.82 420.48,-203.3 422.94,-213.6 428.83,-209.82"/>
</g>
<!-- HasSymbol -->
<g id="node82" class="node">
<title>HasSymbol</title>
<ellipse fill="none" stroke="pink" cx="184.72" cy="-288.12" rx="63.89" ry="18"/>
<text text-anchor="middle" x="184.72" y="-284.42" font-family="Times,serif" font-size="14.00">HasSymbol</text>
</g>
<!-- CodeDefinition&#45;&gt;HasSymbol -->
<g id="edge8" class="edge">
<title>CodeDefinition&#45;&gt;HasSymbol</title>
<path fill="none" stroke="black" d="M819.43,-838.1C724.1,-755.49 321.31,-406.47 212.12,-311.86"/>
<polygon fill="black" stroke="black" points="214.33,-309.14 204.48,-305.24 209.75,-314.43 214.33,-309.14"/>
</g>
<!-- Quantity -->
<g id="node83" class="node">
<title>Quantity</title>
<ellipse fill="none" stroke="pink" cx="51.35" cy="-495.65" rx="51.19" ry="18"/>
<text text-anchor="middle" x="51.35" y="-491.95" font-family="Times,serif" font-size="14.00">Quantity</text>
</g>
<!-- CodeDefinition&#45;&gt;Quantity -->
<g id="edge9" class="edge">
<title>CodeDefinition&#45;&gt;Quantity</title>
<path fill="none" stroke="black" d="M804.35,-839.53C675.16,-780.54 229.58,-577.05 92.08,-514.25"/>
<polygon fill="black" stroke="black" points="93.27,-510.95 82.72,-509.98 90.36,-517.32 93.27,-510.95"/>
</g>
<!-- Eq -->
<g id="node84" class="node">
<title>Eq</title>
<ellipse fill="none" stroke="pink" cx="51.35" cy="-742.35" rx="27" ry="18"/>
<text text-anchor="middle" x="51.35" y="-738.65" font-family="Times,serif" font-size="14.00">Eq</text>
</g>
<!-- CodeDefinition&#45;&gt;Eq -->
<g id="edge11" class="edge">
<title>CodeDefinition&#45;&gt;Eq</title>
<path fill="none" stroke="black" d="M772.54,-846.04C612.06,-822.97 210.81,-765.28 87.79,-747.59"/>
<polygon fill="black" stroke="black" points="88.15,-744.1 77.75,-746.15 87.15,-751.03 88.15,-744.1"/>
</g>
<!-- MayHaveUnit -->
<g id="node85" class="node">
<title>MayHaveUnit</title>
<ellipse fill="none" stroke="pink" cx="184.72" cy="-949.88" rx="75.29" ry="18"/>
<text text-anchor="middle" x="184.72" y="-946.18" font-family="Times,serif" font-size="14.00">MayHaveUnit</text>
</g>
<!-- CodeDefinition&#45;&gt;MayHaveUnit -->
<g id="edge12" class="edge">
<title>CodeDefinition&#45;&gt;MayHaveUnit</title>
<path fill="none" stroke="black" d="M772.73,-865.34C649.71,-883.03 388.71,-920.56 259.87,-939.08"/>
<polygon fill="black" stroke="black" points="259.1,-935.65 249.7,-940.54 260.1,-942.58 259.1,-935.65"/>
</g>
<!-- DefiningCodeExpr -->
<g id="node86" class="node">
<title>DefiningCodeExpr</title>
<ellipse fill="none" stroke="pink" cx="1170.13" cy="-1068.03" rx="95.58" ry="18"/>
<text text-anchor="middle" x="1170.13" y="-1064.33" font-family="Times,serif" font-size="14.00">DefiningCodeExpr</text>
</g>
<!-- CodeDefinition&#45;&gt;DefiningCodeExpr -->
<g id="edge13" class="edge">
<title>CodeDefinition&#45;&gt;DefiningCodeExpr</title>
<path fill="none" stroke="black" d="M866.23,-872.72C925.29,-910.67 1067.82,-1002.27 1134.55,-1045.16"/>
<polygon fill="black" stroke="black" points="1132.76,-1048.17 1143.07,-1050.63 1136.55,-1042.28 1132.76,-1048.17"/>
</g>
<!-- PassBy -->
<g id="node3" class="node">
<title>PassBy</title>
<ellipse fill="none" stroke="#00868b" cx="1316.43" cy="-162" rx="44.39" ry="18"/>
<text text-anchor="middle" x="1316.43" y="-158.3" font-family="Times,serif" font-size="14.00">PassBy</text>
</g>
<!-- ParameterChunk -->
<g id="node4" class="node">
<title>ParameterChunk</title>
<ellipse fill="none" stroke="#00868b" cx="409.13" cy="-1052.37" rx="89.08" ry="18"/>
<text text-anchor="middle" x="409.13" y="-1048.67" font-family="Times,serif" font-size="14.00">ParameterChunk</text>
</g>
<!-- ParameterChunk&#45;&gt;CodeIdea -->
<g id="edge20" class="edge">
<title>ParameterChunk&#45;&gt;CodeIdea</title>
<path fill="none" stroke="black" d="M429.66,-1034.57C508.54,-966.23 792.07,-720.54 881.82,-642.78"/>
<polygon fill="black" stroke="black" points="884.38,-645.19 889.64,-636 879.79,-639.9 884.38,-645.19"/>
</g>
<!-- ParameterChunk&#45;&gt;HasUID -->
<g id="edge14" class="edge">
<title>ParameterChunk&#45;&gt;HasUID</title>
<path fill="none" stroke="black" d="M481.73,-1041.93C519.06,-1036.56 563.82,-1030.13 598.26,-1025.17"/>
<polygon fill="black" stroke="black" points="599.2,-1028.57 608.6,-1023.69 598.2,-1021.65 599.2,-1028.57"/>
</g>
<!-- ParameterChunk&#45;&gt;NamedIdea -->
<g id="edge15" class="edge">
<title>ParameterChunk&#45;&gt;NamedIdea</title>
<path fill="none" stroke="black" d="M420.64,-1034.44C480.03,-942.03 751.62,-519.44 822.69,-408.85"/>
<polygon fill="black" stroke="black" points="825.74,-410.58 828.2,-400.27 819.85,-406.79 825.74,-410.58"/>
</g>
<!-- ParameterChunk&#45;&gt;Idea -->
<g id="edge16" class="edge">
<title>ParameterChunk&#45;&gt;Idea</title>
<path fill="none" stroke="black" d="M414.45,-1034.22C445.89,-927.15 607.13,-378.01 645.24,-248.25"/>
<polygon fill="black" stroke="black" points="648.6,-249.23 648.06,-238.65 641.88,-247.25 648.6,-249.23"/>
</g>
<!-- ParameterChunk&#45;&gt;HasSpace -->
<g id="edge17" class="edge">
<title>ParameterChunk&#45;&gt;HasSpace</title>
<path fill="none" stroke="black" d="M409.13,-1034.26C409.13,-924.55 409.13,-348.88 409.13,-213.95"/>
<polygon fill="black" stroke="black" points="412.63,-213.64 409.13,-203.64 405.63,-213.64 412.63,-213.64"/>
</g>
<!-- ParameterChunk&#45;&gt;HasSymbol -->
<g id="edge18" class="edge">
<title>ParameterChunk&#45;&gt;HasSymbol</title>
<path fill="none" stroke="black" d="M403.8,-1034.23C374.1,-933.08 228.98,-438.87 192.87,-315.87"/>
<polygon fill="black" stroke="black" points="196.17,-314.69 190,-306.08 189.46,-316.66 196.17,-314.69"/>
</g>
<!-- ParameterChunk&#45;&gt;Quantity -->
<g id="edge19" class="edge">
<title>ParameterChunk&#45;&gt;Quantity</title>
<path fill="none" stroke="black" d="M397.63,-1034.47C345.43,-953.25 130.62,-619.01 68.34,-522.1"/>
<polygon fill="black" stroke="black" points="71.15,-520 62.8,-513.48 65.26,-523.78 71.15,-520"/>
</g>
<!-- ParameterChunk&#45;&gt;Eq -->
<g id="edge21" class="edge">
<title>ParameterChunk&#45;&gt;Eq</title>
<path fill="none" stroke="black" d="M388.86,-1034.81C327.34,-981.5 142.81,-821.61 75.91,-763.64"/>
<polygon fill="black" stroke="black" points="77.84,-760.68 67.99,-756.77 73.26,-765.97 77.84,-760.68"/>
</g>
<!-- ParameterChunk&#45;&gt;MayHaveUnit -->
<g id="edge22" class="edge">
<title>ParameterChunk&#45;&gt;MayHaveUnit</title>
<path fill="none" stroke="black" d="M373.07,-1035.9C333.91,-1018.02 271.31,-989.43 229.14,-970.17"/>
<polygon fill="black" stroke="black" points="230.5,-966.94 219.95,-965.97 227.59,-973.31 230.5,-966.94"/>
</g>
<!-- BuildName -->
<g id="node5" class="node">
<title>BuildName</title>
<ellipse fill="none" stroke="#00868b" cx="566.43" cy="-162" rx="62.29" ry="18"/>
<text text-anchor="middle" x="566.43" y="-158.3" font-family="Times,serif" font-size="14.00">BuildName</text>
</g>
<!-- Ext -->
<g id="node6" class="node">
<title>Ext</title>
<ellipse fill="none" stroke="#00868b" cx="483.43" cy="-642" rx="27" ry="18"/>
<text text-anchor="middle" x="483.43" y="-638.3" font-family="Times,serif" font-size="14.00">Ext</text>
</g>
<!-- BuildDependencies -->
<g id="node7" class="node">
<title>BuildDependencies</title>
<ellipse fill="none" stroke="#00868b" cx="988.43" cy="-474" rx="100.18" ry="18"/>
<text text-anchor="middle" x="988.43" y="-470.3" font-family="Times,serif" font-size="14.00">BuildDependencies</text>
</g>
<!-- BuildConfig -->
<g id="node8" class="node">
<title>BuildConfig</title>
<ellipse fill="none" stroke="#00868b" cx="1121.43" cy="-666" rx="64.99" ry="18"/>
<text text-anchor="middle" x="1121.43" y="-662.3" font-family="Times,serif" font-size="14.00">BuildConfig</text>
</g>
<!-- RunType -->
<g id="node9" class="node">
<title>RunType</title>
<ellipse fill="none" stroke="#00868b" cx="172.43" cy="-66" rx="51.99" ry="18"/>
<text text-anchor="middle" x="172.43" y="-62.3" font-family="Times,serif" font-size="14.00">RunType</text>
</g>
<!-- Runnable -->
<g id="node10" class="node">
<title>Runnable</title>
<ellipse fill="none" stroke="#00868b" cx="943.43" cy="-546" rx="54.69" ry="18"/>
<text text-anchor="middle" x="943.43" y="-542.3" font-family="Times,serif" font-size="14.00">Runnable</text>
</g>
<!-- DocConfig -->
<g id="node11" class="node">
<title>DocConfig</title>
<ellipse fill="none" stroke="#00868b" cx="250.43" cy="-210" rx="57.69" ry="18"/>
<text text-anchor="middle" x="250.43" y="-206.3" font-family="Times,serif" font-size="14.00">DocConfig</text>
</g>
<!-- NameOpts -->
<g id="node12" class="node">
<title>NameOpts</title>
<ellipse fill="none" stroke="#00868b" cx="252.43" cy="-138" rx="59.59" ry="18"/>
<text text-anchor="middle" x="252.43" y="-134.3" font-family="Times,serif" font-size="14.00">NameOpts</text>
</g>
<!-- CodeHarness -->
<g id="node13" class="node">
<title>CodeHarness</title>
<ellipse fill="none" stroke="#00868b" cx="792.74" cy="-306" rx="72.59" ry="18"/>
<text text-anchor="middle" x="792.74" y="-302.3" font-family="Times,serif" font-size="14.00">CodeHarness</text>
</g>
<!-- RuleTransformer -->
<g id="node87" class="node">
<title>RuleTransformer</title>
<ellipse fill="none" stroke="pink" cx="1027.23" cy="-306" rx="89.88" ry="18"/>
<text text-anchor="middle" x="1027.23" y="-302.3" font-family="Times,serif" font-size="14.00">RuleTransformer</text>
</g>
<!-- CodeHarness&#45;&gt;RuleTransformer -->
<g id="edge23" class="edge">
<title>CodeHarness&#45;&gt;RuleTransformer</title>
<path fill="none" stroke="black" d="M865.65,-306C885.17,-306 906.62,-306 927.33,-306"/>
<polygon fill="black" stroke="black" points="927.43,-309.5 937.43,-306 927.43,-302.5 927.43,-309.5"/>
</g>
<!-- CSharpProject -->
<g id="node14" class="node">
<title>CSharpProject</title>
<ellipse fill="none" stroke="#00868b" cx="765.2" cy="-1169.94" rx="78.79" ry="18"/>
<text text-anchor="middle" x="765.2" y="-1166.24" font-family="Times,serif" font-size="14.00">CSharpProject</text>
</g>
<!-- Functor -->
<g id="node88" class="node">
<title>Functor</title>
<ellipse fill="none" stroke="pink" cx="287.51" cy="-1517" rx="47.39" ry="18"/>
<text text-anchor="middle" x="287.51" y="-1513.3" font-family="Times,serif" font-size="14.00">Functor</text>
</g>
<!-- CSharpProject&#45;&gt;Functor -->
<g id="edge24" class="edge">
<title>CSharpProject&#45;&gt;Functor</title>
<path fill="none" stroke="black" d="M741.51,-1187.15C662.26,-1244.73 406.4,-1430.62 317.94,-1494.89"/>
<polygon fill="black" stroke="black" points="315.71,-1492.19 309.67,-1500.9 319.82,-1497.85 315.71,-1492.19"/>
</g>
<!-- Applicative -->
<g id="node89" class="node">
<title>Applicative</title>
<ellipse fill="none" stroke="pink" cx="539.67" cy="-1864.06" rx="62.29" ry="18"/>
<text text-anchor="middle" x="539.67" y="-1860.36" font-family="Times,serif" font-size="14.00">Applicative</text>
</g>
<!-- CSharpProject&#45;&gt;Applicative -->
<g id="edge25" class="edge">
<title>CSharpProject&#45;&gt;Applicative</title>
<path fill="none" stroke="black" d="M759.28,-1188.15C728.45,-1283.05 586.16,-1720.98 548.72,-1836.21"/>
<polygon fill="black" stroke="black" points="545.28,-1835.45 545.52,-1846.04 551.94,-1837.61 545.28,-1835.45"/>
</g>
<!-- Monad -->
<g id="node90" class="node">
<title>Monad</title>
<ellipse fill="none" stroke="pink" cx="947.66" cy="-1302.51" rx="42.49" ry="18"/>
<text text-anchor="middle" x="947.66" y="-1298.81" font-family="Times,serif" font-size="14.00">Monad</text>
</g>
<!-- CSharpProject&#45;&gt;Monad -->
<g id="edge26" class="edge">
<title>CSharpProject&#45;&gt;Monad</title>
<path fill="none" stroke="black" d="M789.05,-1187.27C822.14,-1211.31 881.95,-1254.76 917.91,-1280.89"/>
<polygon fill="black" stroke="black" points="915.93,-1283.78 926.08,-1286.82 920.04,-1278.11 915.93,-1283.78"/>
</g>
<!-- PackageSym -->
<g id="node91" class="node">
<title>PackageSym</title>
<ellipse fill="none" stroke="magenta" cx="539.67" cy="-1169.94" rx="69.59" ry="18"/>
<text text-anchor="middle" x="539.67" y="-1166.24" font-family="Times,serif" font-size="14.00">PackageSym</text>
</g>
<!-- CSharpProject&#45;&gt;PackageSym -->
<g id="edge27" class="edge">
<title>CSharpProject&#45;&gt;PackageSym</title>
<path fill="none" stroke="black" d="M686.32,-1169.94C664.72,-1169.94 641.29,-1169.94 619.62,-1169.94"/>
<polygon fill="black" stroke="black" points="619.48,-1166.44 609.48,-1169.94 619.48,-1173.44 619.48,-1166.44"/>
</g>
<!-- AuxiliarySym -->
<g id="node92" class="node">
<title>AuxiliarySym</title>
<ellipse fill="none" stroke="magenta" cx="947.66" cy="-1731.49" rx="72.59" ry="18"/>
<text text-anchor="middle" x="947.66" y="-1727.79" font-family="Times,serif" font-size="14.00">AuxiliarySym</text>
</g>
<!-- CSharpProject&#45;&gt;AuxiliarySym -->
<g id="edge28" class="edge">
<title>CSharpProject&#45;&gt;AuxiliarySym</title>
<path fill="none" stroke="black" d="M771.06,-1187.99C797.6,-1269.67 906.57,-1605.03 938.7,-1703.92"/>
<polygon fill="black" stroke="black" points="935.4,-1705.08 941.82,-1713.51 942.06,-1702.92 935.4,-1705.08"/>
</g>
<!-- CppProject -->
<g id="node15" class="node">
<title>CppProject</title>
<ellipse fill="none" stroke="#00868b" cx="357.21" cy="-1302.51" rx="62.29" ry="18"/>
<text text-anchor="middle" x="357.21" y="-1298.81" font-family="Times,serif" font-size="14.00">CppProject</text>
</g>
<!-- CppProject&#45;&gt;Functor -->
<g id="edge29" class="edge">
<title>CppProject&#45;&gt;Functor</title>
<path fill="none" stroke="black" d="M351.27,-1320.79C339.02,-1358.48 310.91,-1444.99 296.46,-1489.47"/>
<polygon fill="black" stroke="black" points="293.1,-1488.47 293.34,-1499.06 299.76,-1490.63 293.1,-1488.47"/>
</g>
<!-- CppProject&#45;&gt;Applicative -->
<g id="edge30" class="edge">
<title>CppProject&#45;&gt;Applicative</title>
<path fill="none" stroke="black" d="M363.07,-1320.55C389.61,-1402.24 498.58,-1737.6 530.71,-1836.49"/>
<polygon fill="black" stroke="black" points="527.41,-1837.65 533.83,-1846.08 534.06,-1835.49 527.41,-1837.65"/>
</g>
<!-- CppProject&#45;&gt;Monad -->
<g id="edge31" class="edge">
<title>CppProject&#45;&gt;Monad</title>
<path fill="none" stroke="black" d="M419.84,-1302.51C536.86,-1302.51 786.66,-1302.51 895.34,-1302.51"/>
<polygon fill="black" stroke="black" points="895.41,-1306.01 905.41,-1302.51 895.41,-1299.01 895.41,-1306.01"/>
</g>
<!-- CppProject&#45;&gt;PackageSym -->
<g id="edge32" class="edge">
<title>CppProject&#45;&gt;PackageSym</title>
<path fill="none" stroke="black" d="M380.32,-1285.72C412.63,-1262.24 471.44,-1219.51 507.87,-1193.05"/>
<polygon fill="black" stroke="black" points="510.14,-1195.72 516.17,-1187.01 506.02,-1190.06 510.14,-1195.72"/>
</g>
<!-- CppProject&#45;&gt;AuxiliarySym -->
<g id="edge33" class="edge">
<title>CppProject&#45;&gt;AuxiliarySym</title>
<path fill="none" stroke="black" d="M380.35,-1319.32C472.02,-1385.92 809.73,-1631.28 915.66,-1708.24"/>
<polygon fill="black" stroke="black" points="913.89,-1711.28 924.03,-1714.33 918,-1705.62 913.89,-1711.28"/>
</g>
<!-- JavaProject -->
<g id="node16" class="node">
<title>JavaProject</title>
<ellipse fill="none" stroke="#00868b" cx="1017.35" cy="-1517" rx="63.89" ry="18"/>
<text text-anchor="middle" x="1017.35" y="-1513.3" font-family="Times,serif" font-size="14.00">JavaProject</text>
</g>
<!-- JavaProject&#45;&gt;Functor -->
<g id="edge34" class="edge">
<title>JavaProject&#45;&gt;Functor</title>
<path fill="none" stroke="black" d="M953.54,-1517C813.23,-1517 479.7,-1517 345.21,-1517"/>
<polygon fill="black" stroke="black" points="345.11,-1513.5 335.11,-1517 345.11,-1520.5 345.11,-1513.5"/>
</g>
<!-- JavaProject&#45;&gt;Applicative -->
<g id="edge35" class="edge">
<title>JavaProject&#45;&gt;Applicative</title>
<path fill="none" stroke="black" d="M993.99,-1533.97C915.33,-1591.13 660.06,-1776.59 570.81,-1841.43"/>
<polygon fill="black" stroke="black" points="568.74,-1838.61 562.71,-1847.32 572.85,-1844.28 568.74,-1838.61"/>
</g>
<!-- JavaProject&#45;&gt;Monad -->
<g id="edge36" class="edge">
<title>JavaProject&#45;&gt;Monad</title>
<path fill="none" stroke="black" d="M1011.41,-1498.71C999.17,-1461.02 971.06,-1374.52 956.6,-1330.03"/>
<polygon fill="black" stroke="black" points="959.91,-1328.87 953.49,-1320.44 953.25,-1331.04 959.91,-1328.87"/>
</g>
<!-- JavaProject&#45;&gt;PackageSym -->
<g id="edge37" class="edge">
<title>JavaProject&#45;&gt;PackageSym</title>
<path fill="none" stroke="black" d="M993.99,-1500.03C915.51,-1443.01 661.23,-1258.26 571.43,-1193.02"/>
<polygon fill="black" stroke="black" points="573.41,-1190.13 563.27,-1187.09 569.3,-1195.8 573.41,-1190.13"/>
</g>
<!-- JavaProject&#45;&gt;AuxiliarySym -->
<g id="edge38" class="edge">
<title>JavaProject&#45;&gt;AuxiliarySym</title>
<path fill="none" stroke="black" d="M1011.41,-1535.29C999.2,-1572.88 971.2,-1659.05 956.71,-1703.63"/>
<polygon fill="black" stroke="black" points="953.35,-1702.66 953.59,-1713.25 960.01,-1704.82 953.35,-1702.66"/>
</g>
<!-- PythonProject -->
<g id="node17" class="node">
<title>PythonProject</title>
<ellipse fill="none" stroke="#00868b" cx="765.2" cy="-1864.06" rx="76.89" ry="18"/>
<text text-anchor="middle" x="765.2" y="-1860.36" font-family="Times,serif" font-size="14.00">PythonProject</text>
</g>
<!-- PythonProject&#45;&gt;Functor -->
<g id="edge39" class="edge">
<title>PythonProject&#45;&gt;Functor</title>
<path fill="none" stroke="black" d="M741.51,-1846.85C662.26,-1789.27 406.4,-1603.38 317.94,-1539.11"/>
<polygon fill="black" stroke="black" points="319.82,-1536.15 309.67,-1533.1 315.71,-1541.81 319.82,-1536.15"/>
</g>
<!-- PythonProject&#45;&gt;Applicative -->
<g id="edge40" class="edge">
<title>PythonProject&#45;&gt;Applicative</title>
<path fill="none" stroke="black" d="M688.22,-1864.06C663.65,-1864.06 636.56,-1864.06 612.31,-1864.06"/>
<polygon fill="black" stroke="black" points="612.11,-1860.56 602.11,-1864.06 612.11,-1867.56 612.11,-1860.56"/>
</g>
<!-- PythonProject&#45;&gt;Monad -->
<g id="edge41" class="edge">
<title>PythonProject&#45;&gt;Monad</title>
<path fill="none" stroke="black" d="M771.06,-1846.01C797.6,-1764.33 906.57,-1428.97 938.7,-1330.08"/>
<polygon fill="black" stroke="black" points="942.06,-1331.08 941.82,-1320.49 935.4,-1328.92 942.06,-1331.08"/>
</g>
<!-- PythonProject&#45;&gt;PackageSym -->
<g id="edge42" class="edge">
<title>PythonProject&#45;&gt;PackageSym</title>
<path fill="none" stroke="black" d="M759.28,-1845.85C728.45,-1750.95 586.16,-1313.02 548.72,-1197.79"/>
<polygon fill="black" stroke="black" points="551.94,-1196.39 545.52,-1187.96 545.28,-1198.55 551.94,-1196.39"/>
</g>
<!-- PythonProject&#45;&gt;AuxiliarySym -->
<g id="edge43" class="edge">
<title>PythonProject&#45;&gt;AuxiliarySym</title>
<path fill="none" stroke="black" d="M789.05,-1846.73C821.52,-1823.14 879.69,-1780.87 915.85,-1754.61"/>
<polygon fill="black" stroke="black" points="918.06,-1757.33 924.09,-1748.62 913.94,-1751.67 918.06,-1757.33"/>
</g>
<!-- SwiftProject -->
<g id="node18" class="node">
<title>SwiftProject</title>
<ellipse fill="none" stroke="#00868b" cx="357.21" cy="-1731.49" rx="68.49" ry="18"/>
<text text-anchor="middle" x="357.21" y="-1727.79" font-family="Times,serif" font-size="14.00">SwiftProject</text>
</g>
<!-- SwiftProject&#45;&gt;Functor -->
<g id="edge44" class="edge">
<title>SwiftProject&#45;&gt;Functor</title>
<path fill="none" stroke="black" d="M351.27,-1713.21C339.02,-1675.52 310.91,-1589.01 296.46,-1544.53"/>
<polygon fill="black" stroke="black" points="299.76,-1543.37 293.34,-1534.94 293.1,-1545.53 299.76,-1543.37"/>
</g>
<!-- SwiftProject&#45;&gt;Applicative -->
<g id="edge45" class="edge">
<title>SwiftProject&#45;&gt;Applicative</title>
<path fill="none" stroke="black" d="M380.69,-1748.55C413.21,-1772.18 472.05,-1814.93 508.31,-1841.27"/>
<polygon fill="black" stroke="black" points="506.42,-1844.23 516.57,-1847.27 510.53,-1838.57 506.42,-1844.23"/>
</g>
<!-- SwiftProject&#45;&gt;Monad -->
<g id="edge46" class="edge">
<title>SwiftProject&#45;&gt;Monad</title>
<path fill="none" stroke="black" d="M380.72,-1714.41C473.66,-1646.89 815.37,-1398.62 918.19,-1323.91"/>
<polygon fill="black" stroke="black" points="920.26,-1326.74 926.29,-1318.03 916.14,-1321.08 920.26,-1326.74"/>
</g>
<!-- SwiftProject&#45;&gt;PackageSym -->
<g id="edge47" class="edge">
<title>SwiftProject&#45;&gt;PackageSym</title>
<path fill="none" stroke="black" d="M363.07,-1713.45C389.61,-1631.76 498.58,-1296.4 530.71,-1197.51"/>
<polygon fill="black" stroke="black" points="534.06,-1198.51 533.83,-1187.92 527.41,-1196.35 534.06,-1198.51"/>
</g>
<!-- SwiftProject&#45;&gt;AuxiliarySym -->
<g id="edge48" class="edge">
<title>SwiftProject&#45;&gt;AuxiliarySym</title>
<path fill="none" stroke="black" d="M425.52,-1731.49C534.36,-1731.49 746.82,-1731.49 864.4,-1731.49"/>
<polygon fill="black" stroke="black" points="864.43,-1734.99 874.43,-1731.49 864.43,-1727.99 864.43,-1734.99"/>
</g>
<!-- ReadMeInfo -->
<g id="node19" class="node">
<title>ReadMeInfo</title>
<ellipse fill="none" stroke="#00868b" cx="1147.43" cy="-978" rx="66.89" ry="18"/>
<text text-anchor="middle" x="1147.43" y="-974.3" font-family="Times,serif" font-size="14.00">ReadMeInfo</text>
</g>
<!-- AuxData -->
<g id="node20" class="node">
<title>AuxData</title>
<ellipse fill="none" stroke="#00868b" cx="146.43" cy="-426" rx="50.09" ry="18"/>
<text text-anchor="middle" x="146.43" y="-422.3" font-family="Times,serif" font-size="14.00">AuxData</text>
</g>
<!-- PackData -->
<g id="node21" class="node">
<title>PackData</title>
<ellipse fill="none" stroke="#00868b" cx="342.43" cy="-330" rx="53.89" ry="18"/>
<text text-anchor="middle" x="342.43" y="-326.3" font-family="Times,serif" font-size="14.00">PackData</text>
</g>
<!-- Configuration -->
<g id="node22" class="node">
<title>Configuration</title>
<ellipse fill="none" stroke="#00868b" cx="794.43" cy="-234" rx="74.19" ry="18"/>
<text text-anchor="middle" x="794.43" y="-230.3" font-family="Times,serif" font-size="14.00">Configuration</text>
</g>
<!-- DrasilState -->
<g id="node23" class="node">
<title>DrasilState</title>
<ellipse fill="none" stroke="#00868b" cx="1288.43" cy="-666" rx="63.89" ry="18"/>
<text text-anchor="middle" x="1288.43" y="-662.3" font-family="Times,serif" font-size="14.00">DrasilState</text>
</g>
<!-- ClassType -->
<g id="node24" class="node">
<title>ClassType</title>
<ellipse fill="none" stroke="#00868b" cx="226.43" cy="-1050" rx="57.69" ry="18"/>
<text text-anchor="middle" x="226.43" y="-1046.3" font-family="Times,serif" font-size="14.00">ClassType</text>
</g>
<!-- CalcType -->
<g id="node25" class="node">
<title>CalcType</title>
<ellipse fill="none" stroke="#00868b" cx="605.43" cy="-1098" rx="53.09" ry="18"/>
<text text-anchor="middle" x="605.43" y="-1094.3" font-family="Times,serif" font-size="14.00">CalcType</text>
</g>
<!-- ParamType -->
<g id="node26" class="node">
<title>ParamType</title>
<ellipse fill="none" stroke="#00868b" cx="759.43" cy="-90" rx="63.09" ry="18"/>
<text text-anchor="middle" x="759.43" y="-86.3" font-family="Times,serif" font-size="14.00">ParamType</text>
</g>
<!-- Code -->
<g id="node27" class="node">
<title>Code</title>
<ellipse fill="none" stroke="#00868b" cx="634.43" cy="-954" rx="34.39" ry="18"/>
<text text-anchor="middle" x="634.43" y="-950.3" font-family="Times,serif" font-size="14.00">Code</text>
</g>
<!-- DataDesc_ -->
<g id="node28" class="node">
<title>DataDesc_</title>
<ellipse fill="none" stroke="#00868b" cx="922.43" cy="-90" rx="57.69" ry="18"/>
<text text-anchor="middle" x="922.43" y="-86.3" font-family="Times,serif" font-size="14.00">DataDesc&#39;</text>
</g>
<!-- Data_ -->
<g id="node29" class="node">
<title>Data_</title>
<ellipse fill="none" stroke="#00868b" cx="563.43" cy="-306" rx="35.19" ry="18"/>
<text text-anchor="middle" x="563.43" y="-302.3" font-family="Times,serif" font-size="14.00">Data&#39;</text>
</g>
<!-- DataItem_ -->
<g id="node30" class="node">
<title>DataItem_</title>
<ellipse fill="none" stroke="#00868b" cx="1089.43" cy="-90" rx="56.59" ry="18"/>
<text text-anchor="middle" x="1089.43" y="-86.3" font-family="Times,serif" font-size="14.00">DataItem&#39;</text>
</g>
<!-- Data -->
<g id="node31" class="node">
<title>Data</title>
<ellipse fill="none" stroke="#00868b" cx="344.43" cy="-570" rx="32.49" ry="18"/>
<text text-anchor="middle" x="344.43" y="-566.3" font-family="Times,serif" font-size="14.00">Data</text>
</g>
<!-- LinePattern -->
<g id="node32" class="node">
<title>LinePattern</title>
<ellipse fill="none" stroke="#00868b" cx="978.43" cy="-234" rx="65.79" ry="18"/>
<text text-anchor="middle" x="978.43" y="-230.3" font-family="Times,serif" font-size="14.00">LinePattern</text>
</g>
<!-- ExtLibState -->
<g id="node33" class="node">
<title>ExtLibState</title>
<ellipse fill="none" stroke="#00868b" cx="1146.43" cy="-234" rx="66.09" ry="18"/>
<text text-anchor="middle" x="1146.43" y="-230.3" font-family="Times,serif" font-size="14.00">ExtLibState</text>
</g>
<!-- Step -->
<g id="node34" class="node">
<title>Step</title>
<ellipse fill="none" stroke="#00868b" cx="536.43" cy="-234" rx="32.49" ry="18"/>
<text text-anchor="middle" x="536.43" y="-230.3" font-family="Times,serif" font-size="14.00">Step</text>
</g>
<!-- FunctionInterface -->
<g id="node35" class="node">
<title>FunctionInterface</title>
<ellipse fill="none" stroke="#00868b" cx="1030.43" cy="-402" rx="93.68" ry="18"/>
<text text-anchor="middle" x="1030.43" y="-398.3" font-family="Times,serif" font-size="14.00">FunctionInterface</text>
</g>
<!-- Result -->
<g id="node36" class="node">
<title>Result</title>
<ellipse fill="none" stroke="#00868b" cx="496.43" cy="-474" rx="40.09" ry="18"/>
<text text-anchor="middle" x="496.43" y="-470.3" font-family="Times,serif" font-size="14.00">Result</text>
</g>
<!-- Argument -->
<g id="node37" class="node">
<title>Argument</title>
<ellipse fill="none" stroke="#00868b" cx="1257.43" cy="-90" rx="57.39" ry="18"/>
<text text-anchor="middle" x="1257.43" y="-86.3" font-family="Times,serif" font-size="14.00">Argument</text>
</g>
<!-- ArgumentInfo -->
<g id="node38" class="node">
<title>ArgumentInfo</title>
<ellipse fill="none" stroke="#00868b" cx="963.43" cy="-1050" rx="75.29" ry="18"/>
<text text-anchor="middle" x="963.43" y="-1046.3" font-family="Times,serif" font-size="14.00">ArgumentInfo</text>
</g>
<!-- Parameter -->
<g id="node39" class="node">
<title>Parameter</title>
<ellipse fill="none" stroke="#00868b" cx="1308.43" cy="-234" rx="59.59" ry="18"/>
<text text-anchor="middle" x="1308.43" y="-230.3" font-family="Times,serif" font-size="14.00">Parameter</text>
</g>
<!-- ClassInfo -->
<g id="node40" class="node">
<title>ClassInfo</title>
<ellipse fill="none" stroke="#00868b" cx="414.43" cy="-114" rx="53.89" ry="18"/>
<text text-anchor="middle" x="414.43" y="-110.3" font-family="Times,serif" font-size="14.00">ClassInfo</text>
</g>
<!-- MethodInfo -->
<g id="node41" class="node">
<title>MethodInfo</title>
<ellipse fill="none" stroke="#00868b" cx="1216.43" cy="-306" rx="64.19" ry="18"/>
<text text-anchor="middle" x="1216.43" y="-302.3" font-family="Times,serif" font-size="14.00">MethodInfo</text>
</g>
<!-- FuncType -->
<g id="node42" class="node">
<title>FuncType</title>
<ellipse fill="none" stroke="#00868b" cx="392.43" cy="-1194" rx="55.79" ry="18"/>
<text text-anchor="middle" x="392.43" y="-1190.3" font-family="Times,serif" font-size="14.00">FuncType</text>
</g>
<!-- StepGroupFill -->
<g id="node43" class="node">
<title>StepGroupFill</title>
<ellipse fill="none" stroke="#00868b" cx="1036.43" cy="-834" rx="76.09" ry="18"/>
<text text-anchor="middle" x="1036.43" y="-830.3" font-family="Times,serif" font-size="14.00">StepGroupFill</text>
</g>
<!-- StepFill -->
<g id="node44" class="node">
<title>StepFill</title>
<ellipse fill="none" stroke="#00868b" cx="311.43" cy="-42" rx="47.39" ry="18"/>
<text text-anchor="middle" x="311.43" y="-38.3" font-family="Times,serif" font-size="14.00">StepFill</text>
</g>
<!-- ArgumentFill -->
<g id="node45" class="node">
<title>ArgumentFill</title>
<ellipse fill="none" stroke="#00868b" cx="768.43" cy="-1098" rx="72.29" ry="18"/>
<text text-anchor="middle" x="768.43" y="-1094.3" font-family="Times,serif" font-size="14.00">ArgumentFill</text>
</g>
<!-- ParameterFill -->
<g id="node46" class="node">
<title>ParameterFill</title>
<ellipse fill="none" stroke="#00868b" cx="771.43" cy="-162" rx="74.99" ry="18"/>
<text text-anchor="middle" x="771.43" y="-158.3" font-family="Times,serif" font-size="14.00">ParameterFill</text>
</g>
<!-- ClassInfoFill -->
<g id="node47" class="node">
<title>ClassInfoFill</title>
<ellipse fill="none" stroke="#00868b" cx="957.43" cy="-162" rx="68.79" ry="18"/>
<text text-anchor="middle" x="957.43" y="-158.3" font-family="Times,serif" font-size="14.00">ClassInfoFill</text>
</g>
<!-- MethodInfoFill -->
<g id="node48" class="node">
<title>MethodInfoFill</title>
<ellipse fill="none" stroke="#00868b" cx="1063.43" cy="-906" rx="79.09" ry="18"/>
<text text-anchor="middle" x="1063.43" y="-902.3" font-family="Times,serif" font-size="14.00">MethodInfoFill</text>
</g>
<!-- FunctionIntFill -->
<g id="node49" class="node">
<title>FunctionIntFill</title>
<ellipse fill="none" stroke="#00868b" cx="872.43" cy="-978" rx="79.89" ry="18"/>
<text text-anchor="middle" x="872.43" y="-974.3" font-family="Times,serif" font-size="14.00">FunctionIntFill</text>
</g>
<!-- Lang -->
<g id="node50" class="node">
<title>Lang</title>
<ellipse fill="none" stroke="#00868b" cx="178.43" cy="-498" rx="33.6" ry="18"/>
<text text-anchor="middle" x="178.43" y="-494.3" font-family="Times,serif" font-size="14.00">Lang</text>
</g>
<!-- ODEInfo -->
<g id="node51" class="node">
<title>ODEInfo</title>
<ellipse fill="none" stroke="#00868b" cx="746.43" cy="-18" rx="50.09" ry="18"/>
<text text-anchor="middle" x="746.43" y="-14.3" font-family="Times,serif" font-size="14.00">ODEInfo</text>
</g>
<!-- ODEOptions -->
<g id="node52" class="node">
<title>ODEOptions</title>
<ellipse fill="none" stroke="#00868b" cx="1148.43" cy="-162" rx="68.49" ry="18"/>
<text text-anchor="middle" x="1148.43" y="-158.3" font-family="Times,serif" font-size="14.00">ODEOptions</text>
</g>
<!-- ODEMethod -->
<g id="node53" class="node">
<title>ODEMethod</title>
<ellipse fill="none" stroke="#00868b" cx="1244.43" cy="-522" rx="67.69" ry="18"/>
<text text-anchor="middle" x="1244.43" y="-518.3" font-family="Times,serif" font-size="14.00">ODEMethod</text>
</g>
<!-- ODELibPckg -->
<g id="node54" class="node">
<title>ODELibPckg</title>
<ellipse fill="none" stroke="#00868b" cx="1246.43" cy="-738" rx="69.59" ry="18"/>
<text text-anchor="middle" x="1246.43" y="-734.3" font-family="Times,serif" font-size="14.00">ODELibPckg</text>
</g>
<!-- Choices -->
<g id="node55" class="node">
<title>Choices</title>
<ellipse fill="none" stroke="#00868b" cx="887.43" cy="-18" rx="46.59" ry="18"/>
<text text-anchor="middle" x="887.43" y="-14.3" font-family="Times,serif" font-size="14.00">Choices</text>
</g>
<!-- Modularity -->
<g id="node56" class="node">
<title>Modularity</title>
<ellipse fill="none" stroke="#00868b" cx="974.12" cy="-1230" rx="61.99" ry="18"/>
<text text-anchor="middle" x="974.12" y="-1226.3" font-family="Times,serif" font-size="14.00">Modularity</text>
</g>
<!-- RenderChoices -->
<g id="node93" class="node">
<title>RenderChoices</title>
<ellipse fill="none" stroke="magenta" cx="1588.18" cy="-1230" rx="80.69" ry="18"/>
<text text-anchor="middle" x="1588.18" y="-1226.3" font-family="Times,serif" font-size="14.00">RenderChoices</text>
</g>
<!-- Modularity&#45;&gt;RenderChoices -->
<g id="edge49" class="edge">
<title>Modularity&#45;&gt;RenderChoices</title>
<path fill="none" stroke="black" d="M1036.1,-1230C1144.98,-1230 1371.05,-1230 1497.51,-1230"/>
<polygon fill="black" stroke="black" points="1497.57,-1233.5 1507.57,-1230 1497.57,-1226.5 1497.57,-1233.5"/>
</g>
<!-- InputModule -->
<g id="node57" class="node">
<title>InputModule</title>
<ellipse fill="none" stroke="#00868b" cx="958.43" cy="-1122" rx="70.39" ry="18"/>
<text text-anchor="middle" x="958.43" y="-1118.3" font-family="Times,serif" font-size="14.00">InputModule</text>
</g>
<!-- Structure -->
<g id="node58" class="node">
<title>Structure</title>
<ellipse fill="none" stroke="#00868b" cx="1225.21" cy="-1143.77" rx="55.79" ry="18"/>
<text text-anchor="middle" x="1225.21" y="-1140.07" font-family="Times,serif" font-size="14.00">Structure</text>
</g>
<!-- Structure&#45;&gt;RenderChoices -->
<g id="edge50" class="edge">
<title>Structure&#45;&gt;RenderChoices</title>
<path fill="none" stroke="black" d="M1270.45,-1154.51C1333.97,-1169.61 1449.99,-1197.17 1522.87,-1214.48"/>
<polygon fill="black" stroke="black" points="1522.32,-1217.95 1532.86,-1216.86 1523.94,-1211.14 1522.32,-1217.95"/>
</g>
<!-- ConstantStructure -->
<g id="node59" class="node">
<title>ConstantStructure</title>
<ellipse fill="none" stroke="#00868b" cx="1338.45" cy="-952.85" rx="97.48" ry="18"/>
<text text-anchor="middle" x="1338.45" y="-949.15" font-family="Times,serif" font-size="14.00">ConstantStructure</text>
</g>
<!-- ConstantStructure&#45;&gt;RenderChoices -->
<g id="edge51" class="edge">
<title>ConstantStructure&#45;&gt;RenderChoices</title>
<path fill="none" stroke="black" d="M1354.45,-970.6C1397.34,-1018.2 1515,-1148.79 1565.1,-1204.39"/>
<polygon fill="black" stroke="black" points="1562.69,-1206.94 1571.99,-1212.03 1567.89,-1202.26 1562.69,-1206.94"/>
</g>
<!-- ConstantRepr -->
<g id="node60" class="node">
<title>ConstantRepr</title>
<ellipse fill="none" stroke="#00868b" cx="1559.48" cy="-858.04" rx="75.29" ry="18"/>
<text text-anchor="middle" x="1559.48" y="-854.34" font-family="Times,serif" font-size="14.00">ConstantRepr</text>
</g>
<!-- ConstantRepr&#45;&gt;RenderChoices -->
<g id="edge52" class="edge">
<title>ConstantRepr&#45;&gt;RenderChoices</title>
<path fill="none" stroke="black" d="M1560.89,-876.23C1565.52,-936.3 1580.36,-1128.64 1585.99,-1201.59"/>
<polygon fill="black" stroke="black" points="1582.52,-1202.14 1586.78,-1211.84 1589.5,-1201.6 1582.52,-1202.14"/>
</g>
<!-- CodeConcept -->
<g id="node61" class="node">
<title>CodeConcept</title>
<ellipse fill="none" stroke="#00868b" cx="1770.78" cy="-904.67" rx="72.29" ry="18"/>
<text text-anchor="middle" x="1770.78" y="-900.97" font-family="Times,serif" font-size="14.00">CodeConcept</text>
</g>
<!-- CodeConcept&#45;&gt;RenderChoices -->
<g id="edge53" class="edge">
<title>CodeConcept&#45;&gt;RenderChoices</title>
<path fill="none" stroke="black" d="M1760.7,-922.63C1730.27,-976.84 1639.21,-1139.08 1603.13,-1203.35"/>
<polygon fill="black" stroke="black" points="1600.07,-1201.67 1598.22,-1212.1 1606.17,-1205.09 1600.07,-1201.67"/>
</g>
<!-- ImplementationType -->
<g id="node62" class="node">
<title>ImplementationType</title>
<ellipse fill="none" stroke="#00868b" cx="1933.62" cy="-1089.12" rx="106.68" ry="18"/>
<text text-anchor="middle" x="1933.62" y="-1085.42" font-family="Times,serif" font-size="14.00">ImplementationType</text>
</g>
<!-- ImplementationType&#45;&gt;RenderChoices -->
<g id="edge54" class="edge">
<title>ImplementationType&#45;&gt;RenderChoices</title>
<path fill="none" stroke="black" d="M1892.64,-1105.83C1828.59,-1131.95 1705.04,-1182.34 1636.66,-1210.23"/>
<polygon fill="black" stroke="black" points="1634.93,-1207.15 1626.99,-1214.17 1637.57,-1213.64 1634.93,-1207.15"/>
</g>
<!-- ConstraintBehaviour -->
<g id="node63" class="node">
<title>ConstraintBehaviour</title>
<ellipse fill="none" stroke="#00868b" cx="1934.78" cy="-1368" rx="107.48" ry="18"/>
<text text-anchor="middle" x="1934.78" y="-1364.3" font-family="Times,serif" font-size="14.00">ConstraintBehaviour</text>
</g>
<!-- ConstraintBehaviour&#45;&gt;RenderChoices -->
<g id="edge55" class="edge">
<title>ConstraintBehaviour&#45;&gt;RenderChoices</title>
<path fill="none" stroke="black" d="M1892.98,-1351.36C1828.71,-1325.77 1705.91,-1276.88 1637.43,-1249.61"/>
<polygon fill="black" stroke="black" points="1638.31,-1246.2 1627.73,-1245.75 1635.73,-1252.7 1638.31,-1246.2"/>
</g>
<!-- Comments -->
<g id="node64" class="node">
<title>Comments</title>
<ellipse fill="none" stroke="#00868b" cx="1782.99" cy="-1548.17" rx="60.39" ry="18"/>
<text text-anchor="middle" x="1782.99" y="-1544.47" font-family="Times,serif" font-size="14.00">Comments</text>
</g>
<!-- Comments&#45;&gt;RenderChoices -->
<g id="edge56" class="edge">
<title>Comments&#45;&gt;RenderChoices</title>
<path fill="none" stroke="black" d="M1771.96,-1530.15C1739.35,-1476.9 1643.3,-1320.03 1604.61,-1256.84"/>
<polygon fill="black" stroke="black" points="1607.54,-1254.91 1599.33,-1248.21 1601.57,-1258.57 1607.54,-1254.91"/>
</g>
<!-- Verbosity -->
<g id="node65" class="node">
<title>Verbosity</title>
<ellipse fill="none" stroke="#00868b" cx="1606.1" cy="-1602.64" rx="54.69" ry="18"/>
<text text-anchor="middle" x="1606.1" y="-1598.94" font-family="Times,serif" font-size="14.00">Verbosity</text>
</g>
<!-- Verbosity&#45;&gt;RenderChoices -->
<g id="edge57" class="edge">
<title>Verbosity&#45;&gt;RenderChoices</title>
<path fill="none" stroke="black" d="M1605.22,-1584.41C1602.33,-1524.23 1593.06,-1331.54 1589.55,-1258.46"/>
<polygon fill="black" stroke="black" points="1593.03,-1258.01 1589.05,-1248.19 1586.04,-1258.35 1593.03,-1258.01"/>
</g>
<!-- Visibility -->
<g id="node66" class="node">
<title>Visibility</title>
<ellipse fill="none" stroke="#00868b" cx="1432.44" cy="-1569.01" rx="51.99" ry="18"/>
<text text-anchor="middle" x="1432.44" y="-1565.31" font-family="Times,serif" font-size="14.00">Visibility</text>
</g>
<!-- Visibility&#45;&gt;RenderChoices -->
<g id="edge58" class="edge">
<title>Visibility&#45;&gt;RenderChoices</title>
<path fill="none" stroke="black" d="M1440.81,-1550.78C1466.58,-1494.68 1544.84,-1324.34 1575.58,-1257.41"/>
<polygon fill="black" stroke="black" points="1578.77,-1258.86 1579.76,-1248.32 1572.41,-1255.94 1578.77,-1258.86"/>
</g>
<!-- Logging -->
<g id="node67" class="node">
<title>Logging</title>
<ellipse fill="none" stroke="#00868b" cx="1297.82" cy="-1464.25" rx="48.19" ry="18"/>
<text text-anchor="middle" x="1297.82" y="-1460.55" font-family="Times,serif" font-size="14.00">Logging</text>
</g>
<!-- Logging&#45;&gt;RenderChoices -->
<g id="edge59" class="edge">
<title>Logging&#45;&gt;RenderChoices</title>
<path fill="none" stroke="black" d="M1318.24,-1447.78C1368.79,-1407 1499.91,-1301.21 1558.8,-1253.71"/>
<polygon fill="black" stroke="black" points="1561.02,-1256.41 1566.61,-1247.4 1556.63,-1250.96 1561.02,-1256.41"/>
</g>
<!-- AuxFile -->
<g id="node68" class="node">
<title>AuxFile</title>
<ellipse fill="none" stroke="#00868b" cx="1225.21" cy="-1316.23" rx="46.29" ry="18"/>
<text text-anchor="middle" x="1225.21" y="-1312.53" font-family="Times,serif" font-size="14.00">AuxFile</text>
</g>
<!-- AuxFile&#45;&gt;RenderChoices -->
<g id="edge60" class="edge">
<title>AuxFile&#45;&gt;RenderChoices</title>
<path fill="none" stroke="black" d="M1264.75,-1306.84C1326.82,-1292.09 1447.79,-1263.35 1522.91,-1245.51"/>
<polygon fill="black" stroke="black" points="1523.82,-1248.89 1532.74,-1243.17 1522.2,-1242.08 1523.82,-1248.89"/>
</g>
<!-- CodeSpec -->
<g id="node69" class="node">
<title>CodeSpec</title>
<ellipse fill="none" stroke="#00868b" cx="225.43" cy="-1194" rx="56.59" ry="18"/>
<text text-anchor="middle" x="225.43" y="-1190.3" font-family="Times,serif" font-size="14.00">CodeSpec</text>
</g>
<!-- Mod -->
<g id="node70" class="node">
<title>Mod</title>
<ellipse fill="none" stroke="#00868b" cx="679.43" cy="-498" rx="31.4" ry="18"/>
<text text-anchor="middle" x="679.43" y="-494.3" font-family="Times,serif" font-size="14.00">Mod</text>
</g>
<!-- Class -->
<g id="node71" class="node">
<title>Class</title>
<ellipse fill="none" stroke="#00868b" cx="1164.43" cy="-18" rx="36" ry="18"/>
<text text-anchor="middle" x="1164.43" y="-14.3" font-family="Times,serif" font-size="14.00">Class</text>
</g>
<!-- StateVariable -->
<g id="node72" class="node">
<title>StateVariable</title>
<ellipse fill="none" stroke="#00868b" cx="361.43" cy="-1122" rx="73.39" ry="18"/>
<text text-anchor="middle" x="361.43" y="-1118.3" font-family="Times,serif" font-size="14.00">StateVariable</text>
</g>
<!-- Func -->
<g id="node73" class="node">
<title>Func</title>
<ellipse fill="none" stroke="#00868b" cx="1282.43" cy="-18" rx="33.6" ry="18"/>
<text text-anchor="middle" x="1282.43" y="-14.3" font-family="Times,serif" font-size="14.00">Func</text>
</g>
<!-- FuncData -->
<g id="node74" class="node">
<title>FuncData</title>
<ellipse fill="none" stroke="#00868b" cx="200.43" cy="-1122" rx="55.79" ry="18"/>
<text text-anchor="middle" x="200.43" y="-1118.3" font-family="Times,serif" font-size="14.00">FuncData</text>
</g>
<!-- FuncDef -->
<g id="node75" class="node">
<title>FuncDef</title>
<ellipse fill="none" stroke="#00868b" cx="1034.43" cy="-18" rx="50.09" ry="18"/>
<text text-anchor="middle" x="1034.43" y="-14.3" font-family="Times,serif" font-size="14.00">FuncDef</text>
</g>
<!-- FuncStmt -->
<g id="node76" class="node">
<title>FuncStmt</title>
<ellipse fill="none" stroke="#00868b" cx="561.43" cy="-90" rx="56.59" ry="18"/>
<text text-anchor="middle" x="561.43" y="-86.3" font-family="Times,serif" font-size="14.00">FuncStmt</text>
</g>
<!-- CodeChunk -->
<g id="node94" class="node">
<title>CodeChunk</title>
<ellipse fill="none" stroke="black" cx="1255.94" cy="-383.97" rx="63.89" ry="18"/>
<text text-anchor="middle" x="1255.94" y="-380.27" font-family="Times,serif" font-size="14.00">CodeChunk</text>
</g>
<!-- CodeChunk&#45;&gt;CodeIdea -->
<g id="edge1" class="edge">
<title>CodeChunk&#45;&gt;CodeIdea</title>
<path fill="none" stroke="black" d="M1231.28,-400.68C1169.87,-442.32 1010.07,-550.66 941.39,-597.21"/>
<polygon fill="black" stroke="black" points="939.41,-594.33 933.1,-602.84 943.34,-600.12 939.41,-594.33"/>
</g>
<!-- CodeVarChunk -->
<g id="node95" class="node">
<title>CodeVarChunk</title>
<ellipse fill="none" stroke="black" cx="1290.05" cy="-595.61" rx="79.09" ry="18"/>
<text text-anchor="middle" x="1290.05" y="-591.91" font-family="Times,serif" font-size="14.00">CodeVarChunk</text>
</g>
<!-- CodeVarChunk&#45;&gt;CodeIdea -->
<g id="edge2" class="edge">
<title>CodeVarChunk&#45;&gt;CodeIdea</title>
<path fill="none" stroke="black" d="M1213.45,-600.31C1142.74,-604.66 1038.95,-611.03 972.75,-615.1"/>
<polygon fill="black" stroke="black" points="972.22,-611.62 962.46,-615.73 972.65,-618.61 972.22,-611.62"/>
</g>
<!-- CodeFuncChunk -->
<g id="node96" class="node">
<title>CodeFuncChunk</title>
<ellipse fill="none" stroke="black" cx="1262.33" cy="-831.53" rx="87.18" ry="18"/>
<text text-anchor="middle" x="1262.33" y="-827.83" font-family="Times,serif" font-size="14.00">CodeFuncChunk</text>
</g>
<!-- CodeFuncChunk&#45;&gt;CodeIdea -->
<g id="edge3" class="edge">
<title>CodeFuncChunk&#45;&gt;CodeIdea</title>
<path fill="none" stroke="black" d="M1234.03,-814.49C1170.14,-776.03 1014.81,-682.53 944.67,-640.31"/>
<polygon fill="black" stroke="black" points="946.12,-637.11 935.75,-634.95 942.51,-643.1 946.12,-637.11"/>
</g>
</g>
</svg>
