<?xml version="1.0" encoding="UTF-8" standalone="no"?>
<!DOCTYPE svg PUBLIC "-//W3C//DTD SVG 1.1//EN"
 "http://www.w3.org/Graphics/SVG/1.1/DTD/svg11.dtd">
<!-- Generated by graphviz version 2.43.0 (0)
 -->
<!-- Title: build Pages: 1 -->
<svg width="514pt" height="254pt"
 viewBox="0.00 0.00 514.02 254.00" xmlns="http://www.w3.org/2000/svg" xmlns:xlink="http://www.w3.org/1999/xlink">
<g id="graph0" class="graph" transform="scale(1 1) rotate(0) translate(4 250)">
<title>build</title>
<polygon fill="white" stroke="transparent" points="-4,4 -4,-250 510.02,-250 510.02,4 -4,4"/>
<!-- Rule -->
<g id="node1" class="node">
<title>Rule</title>
<ellipse fill="none" stroke="#00868b" cx="171.88" cy="-228" rx="31.7" ry="18"/>
<text text-anchor="middle" x="171.88" y="-224.3" font-family="Times,serif" font-size="14.00">Rule</text>
</g>
<!-- Command -->
<g id="node2" class="node">
<title>Command</title>
<ellipse fill="none" stroke="#00868b" cx="407.88" cy="-198" rx="57.69" ry="18"/>
<text text-anchor="middle" x="407.88" y="-194.3" font-family="Times,serif" font-size="14.00">Command</text>
</g>
<!-- CommandOpts -->
<g id="node3" class="node">
<title>CommandOpts</title>
<ellipse fill="none" stroke="#00868b" cx="338.88" cy="-18" rx="79.09" ry="18"/>
<text text-anchor="middle" x="338.88" y="-14.3" font-family="Times,serif" font-size="14.00">CommandOpts</text>
</g>
<!-- Type -->
<g id="node4" class="node">
<title>Type</title>
<ellipse fill="none" stroke="#00868b" cx="232.88" cy="-138" rx="33.29" ry="18"/>
<text text-anchor="middle" x="232.88" y="-134.3" font-family="Times,serif" font-size="14.00">Type</text>
</g>
<!-- Makefile -->
<g id="node5" class="node">
<title>Makefile</title>
<ellipse fill="none" stroke="#00868b" cx="279.88" cy="-198" rx="50.09" ry="18"/>
<text text-anchor="middle" x="279.88" y="-194.3" font-family="Times,serif" font-size="14.00">Makefile</text>
</g>
<!-- MakeString -->
<g id="node6" class="node">
<title>MakeString</title>
<ellipse fill="none" stroke="#00868b" cx="244.88" cy="-78" rx="65.79" ry="18"/>
<text text-anchor="middle" x="244.88" y="-74.3" font-family="Times,serif" font-size="14.00">MakeString</text>
</g>
<!-- Semigroup -->
<g id="node8" class="node">
<title>Semigroup</title>
<ellipse fill="none" stroke="pink" cx="444.27" cy="-78" rx="61.99" ry="18"/>
<text text-anchor="middle" x="444.27" y="-74.3" font-family="Times,serif" font-size="14.00">Semigroup</text>
</g>
<!-- MakeString&#45;&gt;Semigroup -->
<g id="edge1" class="edge">
<title>MakeString&#45;&gt;Semigroup</title>
<path fill="none" stroke="black" d="M310.72,-78C330.42,-78 352.12,-78 372.2,-78"/>
<polygon fill="black" stroke="black" points="372.22,-81.5 382.22,-78 372.22,-74.5 372.22,-81.5"/>
</g>
<!-- Monoid -->
<g id="node9" class="node">
<title>Monoid</title>
<ellipse fill="none" stroke="pink" cx="45.5" cy="-78" rx="45.49" ry="18"/>
<text text-anchor="middle" x="45.5" y="-74.3" font-family="Times,serif" font-size="14.00">Monoid</text>
</g>
<!-- MakeString&#45;&gt;Monoid -->
<g id="edge2" class="edge">
<title>MakeString&#45;&gt;Monoid</title>
<path fill="none" stroke="black" d="M179.04,-78C153.83,-78 125.35,-78 101.18,-78"/>
<polygon fill="black" stroke="black" points="101.11,-74.5 91.1,-78 101.1,-81.5 101.11,-74.5"/>
</g>
<!-- MVar -->
<g id="node7" class="node">
<title>MVar</title>
<ellipse fill="none" stroke="#00868b" cx="205.88" cy="-18" rx="36" ry="18"/>
<text text-anchor="middle" x="205.88" y="-14.3" font-family="Times,serif" font-size="14.00">MVar</text>
</g>
<!-- RuleTransformer -->
<g id="node10" class="node">
<title>RuleTransformer</title>
<ellipse fill="none" stroke="magenta" cx="379.88" cy="-138" rx="89.88" ry="18"/>
<text text-anchor="middle" x="379.88" y="-134.3" font-family="Times,serif" font-size="14.00">RuleTransformer</text>
</g>
</g>
</svg>
