<?xml version="1.0" encoding="UTF-8" standalone="no"?>
<!DOCTYPE svg PUBLIC "-//W3C//DTD SVG 1.1//EN"
 "http://www.w3.org/Graphics/SVG/1.1/DTD/svg11.dtd">
<!-- Generated by graphviz version 2.43.0 (0)
 -->
<!-- Title: code Pages: 1 -->
<svg width="11319pt" height="116pt"
 viewBox="0.00 0.00 11319.19 116.00" xmlns="http://www.w3.org/2000/svg" xmlns:xlink="http://www.w3.org/1999/xlink">
<g id="graph0" class="graph" transform="scale(1 1) rotate(0) translate(4 112)">
<title>code</title>
<polygon fill="white" stroke="transparent" points="-4,4 -4,-112 11315.19,-112 11315.19,4 -4,4"/>
<!-- DefinitionType -->
<g id="node1" class="node">
<title>DefinitionType</title>
<ellipse fill="none" stroke="#00868b" cx="78.64" cy="-90" rx="78.79" ry="18"/>
<text text-anchor="middle" x="78.64" y="-86.3" font-family="Times,serif" font-size="14.00">DefinitionType</text>
</g>
<!-- CodeDefinition -->
<g id="node2" class="node">
<title>CodeDefinition</title>
<ellipse fill="none" stroke="#00868b" cx="1025.64" cy="-90" rx="79.09" ry="18"/>
<text text-anchor="middle" x="1025.64" y="-86.3" font-family="Times,serif" font-size="14.00">CodeDefinition</text>
</g>
<!-- CodeIdea -->
<g id="node77" class="node">
<title>CodeIdea</title>
<ellipse fill="none" stroke="pink" cx="399.64" cy="-18" rx="53.89" ry="18"/>
<text text-anchor="middle" x="399.64" y="-14.3" font-family="Times,serif" font-size="14.00">CodeIdea</text>
</g>
<!-- CodeDefinition&#45;&gt;CodeIdea -->
<g id="edge10" class="edge">
<title>CodeDefinition&#45;&gt;CodeIdea</title>
<path fill="none" stroke="black" d="M969.47,-77.15C958.93,-75.21 947.98,-73.38 937.64,-72 727.8,-43.87 671.32,-71.74 462.64,-36 457.94,-35.19 453.07,-34.19 448.23,-33.08"/>
<polygon fill="black" stroke="black" points="448.92,-29.65 438.37,-30.68 447.26,-36.45 448.92,-29.65"/>
</g>
<!-- HasUID -->
<g id="node78" class="node">
<title>HasUID</title>
<ellipse fill="none" stroke="pink" cx="1025.64" cy="-18" rx="47.39" ry="18"/>
<text text-anchor="middle" x="1025.64" y="-14.3" font-family="Times,serif" font-size="14.00">HasUID</text>
</g>
<!-- CodeDefinition&#45;&gt;HasUID -->
<g id="edge4" class="edge">
<title>CodeDefinition&#45;&gt;HasUID</title>
<path fill="none" stroke="black" d="M1025.64,-71.7C1025.64,-63.98 1025.64,-54.71 1025.64,-46.11"/>
<polygon fill="black" stroke="black" points="1029.14,-46.1 1025.64,-36.1 1022.14,-46.1 1029.14,-46.1"/>
</g>
<!-- NamedIdea -->
<g id="node79" class="node">
<title>NamedIdea</title>
<ellipse fill="none" stroke="pink" cx="1154.64" cy="-18" rx="63.89" ry="18"/>
<text text-anchor="middle" x="1154.64" y="-14.3" font-family="Times,serif" font-size="14.00">NamedIdea</text>
</g>
<!-- CodeDefinition&#45;&gt;NamedIdea -->
<g id="edge5" class="edge">
<title>CodeDefinition&#45;&gt;NamedIdea</title>
<path fill="none" stroke="black" d="M1054.92,-73.12C1073.48,-63.04 1097.66,-49.92 1117.57,-39.12"/>
<polygon fill="black" stroke="black" points="1119.25,-42.19 1126.37,-34.34 1115.91,-36.03 1119.25,-42.19"/>
</g>
<!-- Idea -->
<g id="node80" class="node">
<title>Idea</title>
<ellipse fill="none" stroke="pink" cx="1266.64" cy="-18" rx="30.59" ry="18"/>
<text text-anchor="middle" x="1266.64" y="-14.3" font-family="Times,serif" font-size="14.00">Idea</text>
</g>
<!-- CodeDefinition&#45;&gt;Idea -->
<g id="edge6" class="edge">
<title>CodeDefinition&#45;&gt;Idea</title>
<path fill="none" stroke="black" d="M1080.77,-76.97C1121.77,-67.43 1178.83,-52.93 1227.64,-36 1229.74,-35.27 1231.88,-34.48 1234.03,-33.65"/>
<polygon fill="black" stroke="black" points="1235.43,-36.86 1243.37,-29.84 1232.78,-30.38 1235.43,-36.86"/>
</g>
<!-- HasSpace -->
<g id="node81" class="node">
<title>HasSpace</title>
<ellipse fill="none" stroke="pink" cx="1371.64" cy="-18" rx="56.59" ry="18"/>
<text text-anchor="middle" x="1371.64" y="-14.3" font-family="Times,serif" font-size="14.00">HasSpace</text>
</g>
<!-- CodeDefinition&#45;&gt;HasSpace -->
<g id="edge7" class="edge">
<title>CodeDefinition&#45;&gt;HasSpace</title>
<path fill="none" stroke="black" d="M1083.86,-77.7C1093.79,-75.79 1104.01,-73.83 1113.64,-72 1199.37,-55.72 1221.49,-55.05 1306.64,-36 1311.05,-35.01 1315.62,-33.94 1320.18,-32.82"/>
<polygon fill="black" stroke="black" points="1321.29,-36.15 1330.14,-30.33 1319.59,-29.36 1321.29,-36.15"/>
</g>
<!-- HasSymbol -->
<g id="node82" class="node">
<title>HasSymbol</title>
<ellipse fill="none" stroke="pink" cx="535.64" cy="-18" rx="63.89" ry="18"/>
<text text-anchor="middle" x="535.64" y="-14.3" font-family="Times,serif" font-size="14.00">HasSymbol</text>
</g>
<!-- CodeDefinition&#45;&gt;HasSymbol -->
<g id="edge8" class="edge">
<title>CodeDefinition&#45;&gt;HasSymbol</title>
<path fill="none" stroke="black" d="M968.96,-77.34C958.57,-75.41 947.8,-73.53 937.64,-72 792.2,-50.03 753.65,-60.73 608.64,-36 602.97,-35.03 597.08,-33.89 591.22,-32.67"/>
<polygon fill="black" stroke="black" points="591.94,-29.24 581.42,-30.54 590.46,-36.08 591.94,-29.24"/>
</g>
<!-- Quantity -->
<g id="node83" class="node">
<title>Quantity</title>
<ellipse fill="none" stroke="pink" cx="668.64" cy="-18" rx="51.19" ry="18"/>
<text text-anchor="middle" x="668.64" y="-14.3" font-family="Times,serif" font-size="14.00">Quantity</text>
</g>
<!-- CodeDefinition&#45;&gt;Quantity -->
<g id="edge9" class="edge">
<title>CodeDefinition&#45;&gt;Quantity</title>
<path fill="none" stroke="black" d="M967.45,-77.59C957.51,-75.69 947.29,-73.76 937.64,-72 844.92,-55.06 820.56,-56.88 728.64,-36 724.55,-35.07 720.31,-34.03 716.08,-32.94"/>
<polygon fill="black" stroke="black" points="716.82,-29.51 706.25,-30.31 715.01,-36.28 716.82,-29.51"/>
</g>
<!-- Eq -->
<g id="node84" class="node">
<title>Eq</title>
<ellipse fill="none" stroke="pink" cx="764.64" cy="-18" rx="27" ry="18"/>
<text text-anchor="middle" x="764.64" y="-14.3" font-family="Times,serif" font-size="14.00">Eq</text>
</g>
<!-- CodeDefinition&#45;&gt;Eq -->
<g id="edge11" class="edge">
<title>CodeDefinition&#45;&gt;Eq</title>
<path fill="none" stroke="black" d="M969.58,-77.2C913.53,-65.16 831.38,-46.74 800.64,-36 798.73,-35.33 796.79,-34.6 794.85,-33.81"/>
<polygon fill="black" stroke="black" points="795.84,-30.43 785.27,-29.65 793.04,-36.85 795.84,-30.43"/>
</g>
<!-- MayHaveUnit -->
<g id="node85" class="node">
<title>MayHaveUnit</title>
<ellipse fill="none" stroke="pink" cx="884.64" cy="-18" rx="75.29" ry="18"/>
<text text-anchor="middle" x="884.64" y="-14.3" font-family="Times,serif" font-size="14.00">MayHaveUnit</text>
</g>
<!-- CodeDefinition&#45;&gt;MayHaveUnit -->
<g id="edge12" class="edge">
<title>CodeDefinition&#45;&gt;MayHaveUnit</title>
<path fill="none" stroke="black" d="M994,-73.29C973.54,-63.13 946.73,-49.82 924.77,-38.92"/>
<polygon fill="black" stroke="black" points="926.21,-35.73 915.7,-34.42 923.1,-42 926.21,-35.73"/>
</g>
<!-- DefiningCodeExpr -->
<g id="node86" class="node">
<title>DefiningCodeExpr</title>
<ellipse fill="none" stroke="pink" cx="1541.64" cy="-18" rx="95.58" ry="18"/>
<text text-anchor="middle" x="1541.64" y="-14.3" font-family="Times,serif" font-size="14.00">DefiningCodeExpr</text>
</g>
<!-- CodeDefinition&#45;&gt;DefiningCodeExpr -->
<g id="edge13" class="edge">
<title>CodeDefinition&#45;&gt;DefiningCodeExpr</title>
<path fill="none" stroke="black" d="M1082.33,-77.36C1092.72,-75.42 1103.49,-73.54 1113.64,-72 1256.89,-50.24 1294.1,-55.69 1437.64,-36 1445.98,-34.86 1454.68,-33.57 1463.34,-32.24"/>
<polygon fill="black" stroke="black" points="1464.13,-35.66 1473.47,-30.66 1463.05,-28.74 1464.13,-35.66"/>
</g>
<!-- PassBy -->
<g id="node3" class="node">
<title>PassBy</title>
<ellipse fill="none" stroke="#00868b" cx="1166.64" cy="-90" rx="44.39" ry="18"/>
<text text-anchor="middle" x="1166.64" y="-86.3" font-family="Times,serif" font-size="14.00">PassBy</text>
</g>
<!-- ParameterChunk -->
<g id="node4" class="node">
<title>ParameterChunk</title>
<ellipse fill="none" stroke="#00868b" cx="839.64" cy="-90" rx="89.08" ry="18"/>
<text text-anchor="middle" x="839.64" y="-86.3" font-family="Times,serif" font-size="14.00">ParameterChunk</text>
</g>
<!-- ParameterChunk&#45;&gt;CodeIdea -->
<g id="edge20" class="edge">
<title>ParameterChunk&#45;&gt;CodeIdea</title>
<path fill="none" stroke="black" d="M762.27,-80.96C685.72,-72.34 565.44,-57.01 462.64,-36 458.22,-35.1 453.64,-34.06 449.06,-32.96"/>
<polygon fill="black" stroke="black" points="449.67,-29.5 439.12,-30.46 447.97,-36.29 449.67,-29.5"/>
</g>
<!-- ParameterChunk&#45;&gt;HasUID -->
<g id="edge14" class="edge">
<title>ParameterChunk&#45;&gt;HasUID</title>
<path fill="none" stroke="black" d="M880,-73.81C910.56,-62.31 952.44,-46.55 983.44,-34.88"/>
<polygon fill="black" stroke="black" points="984.97,-38.05 993.1,-31.25 982.5,-31.5 984.97,-38.05"/>
</g>
<!-- ParameterChunk&#45;&gt;NamedIdea -->
<g id="edge15" class="edge">
<title>ParameterChunk&#45;&gt;NamedIdea</title>
<path fill="none" stroke="black" d="M898.37,-76.36C947.41,-65.76 1019.13,-50.12 1081.64,-36 1086.67,-34.86 1091.89,-33.67 1097.12,-32.47"/>
<polygon fill="black" stroke="black" points="1098.19,-35.82 1107.15,-30.16 1096.62,-28.99 1098.19,-35.82"/>
</g>
<!-- ParameterChunk&#45;&gt;Idea -->
<g id="edge16" class="edge">
<title>ParameterChunk&#45;&gt;Idea</title>
<path fill="none" stroke="black" d="M903.62,-77.44C914.94,-75.53 926.63,-73.64 937.64,-72 1066.11,-52.9 1102.38,-70.3 1227.64,-36 1229.93,-35.37 1232.25,-34.64 1234.57,-33.83"/>
<polygon fill="black" stroke="black" points="1235.89,-37.07 1243.94,-30.2 1233.35,-30.55 1235.89,-37.07"/>
</g>
<!-- ParameterChunk&#45;&gt;HasSpace -->
<g id="edge17" class="edge">
<title>ParameterChunk&#45;&gt;HasSpace</title>
<path fill="none" stroke="black" d="M903.06,-77.29C914.55,-75.37 926.43,-73.52 937.64,-72 1100.93,-49.9 1144.43,-64.94 1306.64,-36 1311.42,-35.15 1316.35,-34.13 1321.27,-33.01"/>
<polygon fill="black" stroke="black" points="1322.38,-36.34 1331.29,-30.61 1320.75,-29.53 1322.38,-36.34"/>
</g>
<!-- ParameterChunk&#45;&gt;HasSymbol -->
<g id="edge18" class="edge">
<title>ParameterChunk&#45;&gt;HasSymbol</title>
<path fill="none" stroke="black" d="M782.67,-75.98C735.91,-65.29 667.97,-49.71 608.64,-36 603.62,-34.84 598.41,-33.63 593.18,-32.42"/>
<polygon fill="black" stroke="black" points="593.68,-28.94 583.15,-30.09 592.1,-35.76 593.68,-28.94"/>
</g>
<!-- ParameterChunk&#45;&gt;Quantity -->
<g id="edge19" class="edge">
<title>ParameterChunk&#45;&gt;Quantity</title>
<path fill="none" stroke="black" d="M802.12,-73.64C774.94,-62.51 738.21,-47.48 710.15,-35.99"/>
<polygon fill="black" stroke="black" points="711.2,-32.64 700.62,-32.09 708.55,-39.12 711.2,-32.64"/>
</g>
<!-- ParameterChunk&#45;&gt;Eq -->
<g id="edge21" class="edge">
<title>ParameterChunk&#45;&gt;Eq</title>
<path fill="none" stroke="black" d="M821.49,-72.05C811.3,-62.55 798.49,-50.59 787.61,-40.44"/>
<polygon fill="black" stroke="black" points="789.8,-37.69 780.1,-33.42 785.02,-42.81 789.8,-37.69"/>
</g>
<!-- ParameterChunk&#45;&gt;MayHaveUnit -->
<g id="edge22" class="edge">
<title>ParameterChunk&#45;&gt;MayHaveUnit</title>
<path fill="none" stroke="black" d="M850.54,-72.05C855.76,-63.92 862.14,-54 867.97,-44.94"/>
<polygon fill="black" stroke="black" points="871.07,-46.58 873.54,-36.28 865.19,-42.79 871.07,-46.58"/>
</g>
<!-- BuildName -->
<g id="node5" class="node">
<title>BuildName</title>
<ellipse fill="none" stroke="#00868b" cx="1291.64" cy="-90" rx="62.29" ry="18"/>
<text text-anchor="middle" x="1291.64" y="-86.3" font-family="Times,serif" font-size="14.00">BuildName</text>
</g>
<!-- Ext -->
<g id="node6" class="node">
<title>Ext</title>
<ellipse fill="none" stroke="#00868b" cx="1398.64" cy="-90" rx="27" ry="18"/>
<text text-anchor="middle" x="1398.64" y="-86.3" font-family="Times,serif" font-size="14.00">Ext</text>
</g>
<!-- BuildDependencies -->
<g id="node7" class="node">
<title>BuildDependencies</title>
<ellipse fill="none" stroke="#00868b" cx="1543.64" cy="-90" rx="100.18" ry="18"/>
<text text-anchor="middle" x="1543.64" y="-86.3" font-family="Times,serif" font-size="14.00">BuildDependencies</text>
</g>
<!-- BuildConfig -->
<g id="node8" class="node">
<title>BuildConfig</title>
<ellipse fill="none" stroke="#00868b" cx="1726.64" cy="-90" rx="64.99" ry="18"/>
<text text-anchor="middle" x="1726.64" y="-86.3" font-family="Times,serif" font-size="14.00">BuildConfig</text>
</g>
<!-- RunType -->
<g id="node9" class="node">
<title>RunType</title>
<ellipse fill="none" stroke="#00868b" cx="1861.64" cy="-90" rx="51.99" ry="18"/>
<text text-anchor="middle" x="1861.64" y="-86.3" font-family="Times,serif" font-size="14.00">RunType</text>
</g>
<!-- Runnable -->
<g id="node10" class="node">
<title>Runnable</title>
<ellipse fill="none" stroke="#00868b" cx="1986.64" cy="-90" rx="54.69" ry="18"/>
<text text-anchor="middle" x="1986.64" y="-86.3" font-family="Times,serif" font-size="14.00">Runnable</text>
</g>
<!-- DocConfig -->
<g id="node11" class="node">
<title>DocConfig</title>
<ellipse fill="none" stroke="#00868b" cx="2116.64" cy="-90" rx="57.69" ry="18"/>
<text text-anchor="middle" x="2116.64" y="-86.3" font-family="Times,serif" font-size="14.00">DocConfig</text>
</g>
<!-- NameOpts -->
<g id="node12" class="node">
<title>NameOpts</title>
<ellipse fill="none" stroke="#00868b" cx="2252.64" cy="-90" rx="59.59" ry="18"/>
<text text-anchor="middle" x="2252.64" y="-86.3" font-family="Times,serif" font-size="14.00">NameOpts</text>
</g>
<!-- CodeHarness -->
<g id="node13" class="node">
<title>CodeHarness</title>
<ellipse fill="none" stroke="#00868b" cx="2403.64" cy="-90" rx="72.59" ry="18"/>
<text text-anchor="middle" x="2403.64" y="-86.3" font-family="Times,serif" font-size="14.00">CodeHarness</text>
</g>
<!-- RuleTransformer -->
<g id="node87" class="node">
<title>RuleTransformer</title>
<ellipse fill="none" stroke="pink" cx="2403.64" cy="-18" rx="89.88" ry="18"/>
<text text-anchor="middle" x="2403.64" y="-14.3" font-family="Times,serif" font-size="14.00">RuleTransformer</text>
</g>
<!-- CodeHarness&#45;&gt;RuleTransformer -->
<g id="edge23" class="edge">
<title>CodeHarness&#45;&gt;RuleTransformer</title>
<path fill="none" stroke="black" d="M2403.64,-71.7C2403.64,-63.98 2403.64,-54.71 2403.64,-46.11"/>
<polygon fill="black" stroke="black" points="2407.14,-46.1 2403.64,-36.1 2400.14,-46.1 2407.14,-46.1"/>
</g>
<!-- CSharpProject -->
<g id="node14" class="node">
<title>CSharpProject</title>
<ellipse fill="none" stroke="#00868b" cx="3186.64" cy="-90" rx="78.79" ry="18"/>
<text text-anchor="middle" x="3186.64" y="-86.3" font-family="Times,serif" font-size="14.00">CSharpProject</text>
</g>
<!-- Functor -->
<g id="node88" class="node">
<title>Functor</title>
<ellipse fill="none" stroke="pink" cx="3156.64" cy="-18" rx="47.39" ry="18"/>
<text text-anchor="middle" x="3156.64" y="-14.3" font-family="Times,serif" font-size="14.00">Functor</text>
</g>
<!-- CSharpProject&#45;&gt;Functor -->
<g id="edge24" class="edge">
<title>CSharpProject&#45;&gt;Functor</title>
<path fill="none" stroke="black" d="M3179.38,-72.05C3175.97,-64.09 3171.82,-54.41 3168,-45.51"/>
<polygon fill="black" stroke="black" points="3171.2,-44.09 3164.05,-36.28 3164.77,-46.85 3171.2,-44.09"/>
</g>
<!-- Applicative -->
<g id="node89" class="node">
<title>Applicative</title>
<ellipse fill="none" stroke="pink" cx="2605.64" cy="-18" rx="62.29" ry="18"/>
<text text-anchor="middle" x="2605.64" y="-14.3" font-family="Times,serif" font-size="14.00">Applicative</text>
</g>
<!-- CSharpProject&#45;&gt;Applicative -->
<g id="edge25" class="edge">
<title>CSharpProject&#45;&gt;Applicative</title>
<path fill="none" stroke="black" d="M3130.46,-77.23C3119.92,-75.28 3108.97,-73.43 3098.64,-72 2912.64,-46.15 2863.08,-65.66 2677.64,-36 2671.96,-35.09 2666.05,-33.98 2660.18,-32.76"/>
<polygon fill="black" stroke="black" points="2660.89,-29.33 2650.38,-30.63 2659.41,-36.18 2660.89,-29.33"/>
</g>
<!-- Monad -->
<g id="node90" class="node">
<title>Monad</title>
<ellipse fill="none" stroke="pink" cx="2728.64" cy="-18" rx="42.49" ry="18"/>
<text text-anchor="middle" x="2728.64" y="-14.3" font-family="Times,serif" font-size="14.00">Monad</text>
</g>
<!-- CSharpProject&#45;&gt;Monad -->
<g id="edge26" class="edge">
<title>CSharpProject&#45;&gt;Monad</title>
<path fill="none" stroke="black" d="M3129.95,-77.37C3119.56,-75.43 3108.79,-73.55 3098.64,-72 2957.6,-50.45 2918.97,-66.73 2779.64,-36 2776.21,-35.24 2772.69,-34.34 2769.17,-33.35"/>
<polygon fill="black" stroke="black" points="2769.95,-29.93 2759.37,-30.39 2767.93,-36.63 2769.95,-29.93"/>
</g>
<!-- PackageSym -->
<g id="node91" class="node">
<title>PackageSym</title>
<ellipse fill="none" stroke="magenta" cx="2858.64" cy="-18" rx="69.59" ry="18"/>
<text text-anchor="middle" x="2858.64" y="-14.3" font-family="Times,serif" font-size="14.00">PackageSym</text>
</g>
<!-- CSharpProject&#45;&gt;PackageSym -->
<g id="edge27" class="edge">
<title>CSharpProject&#45;&gt;PackageSym</title>
<path fill="none" stroke="black" d="M3130.52,-77.2C3079.84,-66.52 3003.23,-50.31 2936.64,-36 2931.22,-34.83 2925.59,-33.62 2919.95,-32.4"/>
<polygon fill="black" stroke="black" points="2920.34,-28.9 2909.82,-30.2 2918.85,-35.74 2920.34,-28.9"/>
</g>
<!-- AuxiliarySym -->
<g id="node92" class="node">
<title>AuxiliarySym</title>
<ellipse fill="none" stroke="magenta" cx="3018.64" cy="-18" rx="72.59" ry="18"/>
<text text-anchor="middle" x="3018.64" y="-14.3" font-family="Times,serif" font-size="14.00">AuxiliarySym</text>
</g>
<!-- CSharpProject&#45;&gt;AuxiliarySym -->
<g id="edge28" class="edge">
<title>CSharpProject&#45;&gt;AuxiliarySym</title>
<path fill="none" stroke="black" d="M3150.6,-73.98C3125.07,-63.35 3090.66,-49.01 3063.37,-37.64"/>
<polygon fill="black" stroke="black" points="3064.62,-34.37 3054.05,-33.75 3061.93,-40.83 3064.62,-34.37"/>
</g>
<!-- CppProject -->
<g id="node15" class="node">
<title>CppProject</title>
<ellipse fill="none" stroke="#00868b" cx="2556.64" cy="-90" rx="62.29" ry="18"/>
<text text-anchor="middle" x="2556.64" y="-86.3" font-family="Times,serif" font-size="14.00">CppProject</text>
</g>
<!-- CppProject&#45;&gt;Functor -->
<g id="edge29" class="edge">
<title>CppProject&#45;&gt;Functor</title>
<path fill="none" stroke="black" d="M2601.12,-77.21C2609.86,-75.21 2619,-73.35 2627.64,-72 2835.93,-39.35 2893.42,-74.85 3100.64,-36 3104.58,-35.26 3108.62,-34.35 3112.66,-33.33"/>
<polygon fill="black" stroke="black" points="3113.85,-36.64 3122.58,-30.63 3112.02,-29.88 3113.85,-36.64"/>
</g>
<!-- CppProject&#45;&gt;Applicative -->
<g id="edge30" class="edge">
<title>CppProject&#45;&gt;Applicative</title>
<path fill="none" stroke="black" d="M2568.5,-72.05C2574.34,-63.71 2581.5,-53.49 2587.97,-44.25"/>
<polygon fill="black" stroke="black" points="2591.02,-45.99 2593.89,-35.79 2585.29,-41.97 2591.02,-45.99"/>
</g>
<!-- CppProject&#45;&gt;Monad -->
<g id="edge31" class="edge">
<title>CppProject&#45;&gt;Monad</title>
<path fill="none" stroke="black" d="M2591.45,-74.83C2619.85,-63.28 2659.95,-46.95 2689.47,-34.94"/>
<polygon fill="black" stroke="black" points="2691.1,-38.06 2699.04,-31.05 2688.46,-31.57 2691.1,-38.06"/>
</g>
<!-- CppProject&#45;&gt;PackageSym -->
<g id="edge32" class="edge">
<title>CppProject&#45;&gt;PackageSym</title>
<path fill="none" stroke="black" d="M2602.84,-77.87C2611.1,-75.9 2619.62,-73.88 2627.64,-72 2685.49,-58.44 2751.58,-43.31 2798.2,-32.7"/>
<polygon fill="black" stroke="black" points="2799.17,-36.07 2808.14,-30.44 2797.61,-29.25 2799.17,-36.07"/>
</g>
<!-- CppProject&#45;&gt;AuxiliarySym -->
<g id="edge33" class="edge">
<title>CppProject&#45;&gt;AuxiliarySym</title>
<path fill="none" stroke="black" d="M2601.54,-77.39C2610.17,-75.41 2619.16,-73.5 2627.64,-72 2764.22,-47.81 2800.74,-58.27 2937.64,-36 2943.79,-35 2950.17,-33.85 2956.53,-32.64"/>
<polygon fill="black" stroke="black" points="2957.35,-36.04 2966.49,-30.68 2956,-29.17 2957.35,-36.04"/>
</g>
<!-- JavaProject -->
<g id="node16" class="node">
<title>JavaProject</title>
<ellipse fill="none" stroke="#00868b" cx="2700.64" cy="-90" rx="63.89" ry="18"/>
<text text-anchor="middle" x="2700.64" y="-86.3" font-family="Times,serif" font-size="14.00">JavaProject</text>
</g>
<!-- JavaProject&#45;&gt;Functor -->
<g id="edge34" class="edge">
<title>JavaProject&#45;&gt;Functor</title>
<path fill="none" stroke="black" d="M2746.18,-77.36C2754.92,-75.38 2764.04,-73.48 2772.64,-72 2917.17,-47.1 2956.97,-65.43 3100.64,-36 3104.51,-35.21 3108.49,-34.27 3112.46,-33.24"/>
<polygon fill="black" stroke="black" points="3113.54,-36.57 3122.25,-30.53 3111.68,-29.82 3113.54,-36.57"/>
</g>
<!-- JavaProject&#45;&gt;Applicative -->
<g id="edge35" class="edge">
<title>JavaProject&#45;&gt;Applicative</title>
<path fill="none" stroke="black" d="M2678.61,-72.76C2665.81,-63.33 2649.51,-51.32 2635.56,-41.04"/>
<polygon fill="black" stroke="black" points="2637.36,-38.02 2627.23,-34.91 2633.2,-43.66 2637.36,-38.02"/>
</g>
<!-- JavaProject&#45;&gt;Monad -->
<g id="edge36" class="edge">
<title>JavaProject&#45;&gt;Monad</title>
<path fill="none" stroke="black" d="M2707.42,-72.05C2710.65,-63.97 2714.59,-54.12 2718.2,-45.11"/>
<polygon fill="black" stroke="black" points="2721.46,-46.37 2721.93,-35.79 2714.96,-43.77 2721.46,-46.37"/>
</g>
<!-- JavaProject&#45;&gt;PackageSym -->
<g id="edge37" class="edge">
<title>JavaProject&#45;&gt;PackageSym</title>
<path fill="none" stroke="black" d="M2733.38,-74.5C2757.29,-63.9 2789.93,-49.44 2815.89,-37.94"/>
<polygon fill="black" stroke="black" points="2817.41,-41.1 2825.13,-33.85 2814.57,-34.7 2817.41,-41.1"/>
</g>
<!-- JavaProject&#45;&gt;AuxiliarySym -->
<g id="edge38" class="edge">
<title>JavaProject&#45;&gt;AuxiliarySym</title>
<path fill="none" stroke="black" d="M2747.86,-77.71C2756.12,-75.78 2764.62,-73.81 2772.64,-72 2834.44,-58.05 2905.16,-42.9 2954.86,-32.38"/>
<polygon fill="black" stroke="black" points="2955.77,-35.77 2964.83,-30.28 2954.32,-28.92 2955.77,-35.77"/>
</g>
<!-- PythonProject -->
<g id="node17" class="node">
<title>PythonProject</title>
<ellipse fill="none" stroke="#00868b" cx="2858.64" cy="-90" rx="76.89" ry="18"/>
<text text-anchor="middle" x="2858.64" y="-86.3" font-family="Times,serif" font-size="14.00">PythonProject</text>
</g>
<!-- PythonProject&#45;&gt;Functor -->
<g id="edge39" class="edge">
<title>PythonProject&#45;&gt;Functor</title>
<path fill="none" stroke="black" d="M2915.67,-77.84C2964.9,-67.89 3037.8,-52.39 3100.64,-36 3104.25,-35.06 3107.97,-34.04 3111.7,-32.98"/>
<polygon fill="black" stroke="black" points="3112.89,-36.28 3121.51,-30.13 3110.93,-29.56 3112.89,-36.28"/>
</g>
<!-- PythonProject&#45;&gt;Applicative -->
<g id="edge40" class="edge">
<title>PythonProject&#45;&gt;Applicative</title>
<path fill="none" stroke="black" d="M2811.06,-75.83C2767.81,-63.87 2704.07,-46.23 2659.08,-33.79"/>
<polygon fill="black" stroke="black" points="2659.79,-30.35 2649.21,-31.06 2657.92,-37.1 2659.79,-30.35"/>
</g>
<!-- PythonProject&#45;&gt;Monad -->
<g id="edge41" class="edge">
<title>PythonProject&#45;&gt;Monad</title>
<path fill="none" stroke="black" d="M2829.47,-73.29C2809.64,-62.62 2783.36,-48.46 2762.59,-37.28"/>
<polygon fill="black" stroke="black" points="2764.24,-34.19 2753.78,-32.53 2760.92,-40.36 2764.24,-34.19"/>
</g>
<!-- PythonProject&#45;&gt;PackageSym -->
<g id="edge42" class="edge">
<title>PythonProject&#45;&gt;PackageSym</title>
<path fill="none" stroke="black" d="M2858.64,-71.7C2858.64,-63.98 2858.64,-54.71 2858.64,-46.11"/>
<polygon fill="black" stroke="black" points="2862.14,-46.1 2858.64,-36.1 2855.14,-46.1 2862.14,-46.1"/>
</g>
<!-- PythonProject&#45;&gt;AuxiliarySym -->
<g id="edge43" class="edge">
<title>PythonProject&#45;&gt;AuxiliarySym</title>
<path fill="none" stroke="black" d="M2893.36,-73.81C2917.43,-63.28 2949.64,-49.19 2975.38,-37.93"/>
<polygon fill="black" stroke="black" points="2976.78,-41.13 2984.54,-33.92 2973.98,-34.72 2976.78,-41.13"/>
</g>
<!-- SwiftProject -->
<g id="node18" class="node">
<title>SwiftProject</title>
<ellipse fill="none" stroke="#00868b" cx="3021.64" cy="-90" rx="68.49" ry="18"/>
<text text-anchor="middle" x="3021.64" y="-86.3" font-family="Times,serif" font-size="14.00">SwiftProject</text>
</g>
<!-- SwiftProject&#45;&gt;Functor -->
<g id="edge44" class="edge">
<title>SwiftProject&#45;&gt;Functor</title>
<path fill="none" stroke="black" d="M3051.27,-73.64C3071.78,-63 3099.19,-48.79 3120.91,-37.53"/>
<polygon fill="black" stroke="black" points="3122.57,-40.61 3129.83,-32.9 3119.35,-34.4 3122.57,-40.61"/>
</g>
<!-- SwiftProject&#45;&gt;Applicative -->
<g id="edge45" class="edge">
<title>SwiftProject&#45;&gt;Applicative</title>
<path fill="none" stroke="black" d="M2972.47,-77.5C2963.25,-75.53 2953.67,-73.6 2944.64,-72 2826.75,-51.07 2795.39,-57.78 2677.64,-36 2672.28,-35.01 2666.71,-33.88 2661.15,-32.68"/>
<polygon fill="black" stroke="black" points="2661.73,-29.22 2651.21,-30.47 2660.21,-36.05 2661.73,-29.22"/>
</g>
<!-- SwiftProject&#45;&gt;Monad -->
<g id="edge46" class="edge">
<title>SwiftProject&#45;&gt;Monad</title>
<path fill="none" stroke="black" d="M2971.12,-77.83C2962.29,-75.88 2953.2,-73.88 2944.64,-72 2871.33,-55.91 2852.02,-55.9 2779.64,-36 2776.45,-35.12 2773.16,-34.16 2769.86,-33.16"/>
<polygon fill="black" stroke="black" points="2770.63,-29.73 2760.04,-30.05 2768.52,-36.4 2770.63,-29.73"/>
</g>
<!-- SwiftProject&#45;&gt;PackageSym -->
<g id="edge47" class="edge">
<title>SwiftProject&#45;&gt;PackageSym</title>
<path fill="none" stroke="black" d="M2987.47,-74.33C2962.78,-63.72 2929.22,-49.31 2902.54,-37.85"/>
<polygon fill="black" stroke="black" points="2903.62,-34.51 2893.05,-33.78 2900.86,-40.94 2903.62,-34.51"/>
</g>
<!-- SwiftProject&#45;&gt;AuxiliarySym -->
<g id="edge48" class="edge">
<title>SwiftProject&#45;&gt;AuxiliarySym</title>
<path fill="none" stroke="black" d="M3020.9,-71.7C3020.57,-63.98 3020.17,-54.71 3019.8,-46.11"/>
<polygon fill="black" stroke="black" points="3023.3,-45.95 3019.38,-36.1 3016.31,-46.25 3023.3,-45.95"/>
</g>
<!-- ReadMeInfo -->
<g id="node19" class="node">
<title>ReadMeInfo</title>
<ellipse fill="none" stroke="#00868b" cx="3350.64" cy="-90" rx="66.89" ry="18"/>
<text text-anchor="middle" x="3350.64" y="-86.3" font-family="Times,serif" font-size="14.00">ReadMeInfo</text>
</g>
<!-- AuxData -->
<g id="node20" class="node">
<title>AuxData</title>
<ellipse fill="none" stroke="#00868b" cx="3485.64" cy="-90" rx="50.09" ry="18"/>
<text text-anchor="middle" x="3485.64" y="-86.3" font-family="Times,serif" font-size="14.00">AuxData</text>
</g>
<!-- PackData -->
<g id="node21" class="node">
<title>PackData</title>
<ellipse fill="none" stroke="#00868b" cx="3607.64" cy="-90" rx="53.89" ry="18"/>
<text text-anchor="middle" x="3607.64" y="-86.3" font-family="Times,serif" font-size="14.00">PackData</text>
</g>
<!-- Configuration -->
<g id="node22" class="node">
<title>Configuration</title>
<ellipse fill="none" stroke="#00868b" cx="3753.64" cy="-90" rx="74.19" ry="18"/>
<text text-anchor="middle" x="3753.64" y="-86.3" font-family="Times,serif" font-size="14.00">Configuration</text>
</g>
<!-- DrasilState -->
<g id="node23" class="node">
<title>DrasilState</title>
<ellipse fill="none" stroke="#00868b" cx="3909.64" cy="-90" rx="63.89" ry="18"/>
<text text-anchor="middle" x="3909.64" y="-86.3" font-family="Times,serif" font-size="14.00">DrasilState</text>
</g>
<!-- ClassType -->
<g id="node24" class="node">
<title>ClassType</title>
<ellipse fill="none" stroke="#00868b" cx="4049.64" cy="-90" rx="57.69" ry="18"/>
<text text-anchor="middle" x="4049.64" y="-86.3" font-family="Times,serif" font-size="14.00">ClassType</text>
</g>
<!-- CalcType -->
<g id="node25" class="node">
<title>CalcType</title>
<ellipse fill="none" stroke="#00868b" cx="4178.64" cy="-90" rx="53.09" ry="18"/>
<text text-anchor="middle" x="4178.64" y="-86.3" font-family="Times,serif" font-size="14.00">CalcType</text>
</g>
<!-- ParamType -->
<g id="node26" class="node">
<title>ParamType</title>
<ellipse fill="none" stroke="#00868b" cx="4312.64" cy="-90" rx="63.09" ry="18"/>
<text text-anchor="middle" x="4312.64" y="-86.3" font-family="Times,serif" font-size="14.00">ParamType</text>
</g>
<!-- Code -->
<g id="node27" class="node">
<title>Code</title>
<ellipse fill="none" stroke="#00868b" cx="4427.64" cy="-90" rx="34.39" ry="18"/>
<text text-anchor="middle" x="4427.64" y="-86.3" font-family="Times,serif" font-size="14.00">Code</text>
</g>
<!-- DataDesc_ -->
<g id="node28" class="node">
<title>DataDesc_</title>
<ellipse fill="none" stroke="#00868b" cx="4537.64" cy="-90" rx="57.69" ry="18"/>
<text text-anchor="middle" x="4537.64" y="-86.3" font-family="Times,serif" font-size="14.00">DataDesc&#39;</text>
</g>
<!-- Data_ -->
<g id="node29" class="node">
<title>Data_</title>
<ellipse fill="none" stroke="#00868b" cx="4648.64" cy="-90" rx="35.19" ry="18"/>
<text text-anchor="middle" x="4648.64" y="-86.3" font-family="Times,serif" font-size="14.00">Data&#39;</text>
</g>
<!-- DataItem_ -->
<g id="node30" class="node">
<title>DataItem_</title>
<ellipse fill="none" stroke="#00868b" cx="4758.64" cy="-90" rx="56.59" ry="18"/>
<text text-anchor="middle" x="4758.64" y="-86.3" font-family="Times,serif" font-size="14.00">DataItem&#39;</text>
</g>
<!-- Data -->
<g id="node31" class="node">
<title>Data</title>
<ellipse fill="none" stroke="#00868b" cx="4865.64" cy="-90" rx="32.49" ry="18"/>
<text text-anchor="middle" x="4865.64" y="-86.3" font-family="Times,serif" font-size="14.00">Data</text>
</g>
<!-- LinePattern -->
<g id="node32" class="node">
<title>LinePattern</title>
<ellipse fill="none" stroke="#00868b" cx="4981.64" cy="-90" rx="65.79" ry="18"/>
<text text-anchor="middle" x="4981.64" y="-86.3" font-family="Times,serif" font-size="14.00">LinePattern</text>
</g>
<!-- ExtLibState -->
<g id="node33" class="node">
<title>ExtLibState</title>
<ellipse fill="none" stroke="#00868b" cx="5131.64" cy="-90" rx="66.09" ry="18"/>
<text text-anchor="middle" x="5131.64" y="-86.3" font-family="Times,serif" font-size="14.00">ExtLibState</text>
</g>
<!-- Step -->
<g id="node34" class="node">
<title>Step</title>
<ellipse fill="none" stroke="#00868b" cx="5248.64" cy="-90" rx="32.49" ry="18"/>
<text text-anchor="middle" x="5248.64" y="-86.3" font-family="Times,serif" font-size="14.00">Step</text>
</g>
<!-- FunctionInterface -->
<g id="node35" class="node">
<title>FunctionInterface</title>
<ellipse fill="none" stroke="#00868b" cx="5392.64" cy="-90" rx="93.68" ry="18"/>
<text text-anchor="middle" x="5392.64" y="-86.3" font-family="Times,serif" font-size="14.00">FunctionInterface</text>
</g>
<!-- Result -->
<g id="node36" class="node">
<title>Result</title>
<ellipse fill="none" stroke="#00868b" cx="5544.64" cy="-90" rx="40.09" ry="18"/>
<text text-anchor="middle" x="5544.64" y="-86.3" font-family="Times,serif" font-size="14.00">Result</text>
</g>
<!-- Argument -->
<g id="node37" class="node">
<title>Argument</title>
<ellipse fill="none" stroke="#00868b" cx="5659.64" cy="-90" rx="57.39" ry="18"/>
<text text-anchor="middle" x="5659.64" y="-86.3" font-family="Times,serif" font-size="14.00">Argument</text>
</g>
<!-- ArgumentInfo -->
<g id="node38" class="node">
<title>ArgumentInfo</title>
<ellipse fill="none" stroke="#00868b" cx="5810.64" cy="-90" rx="75.29" ry="18"/>
<text text-anchor="middle" x="5810.64" y="-86.3" font-family="Times,serif" font-size="14.00">ArgumentInfo</text>
</g>
<!-- Parameter -->
<g id="node39" class="node">
<title>Parameter</title>
<ellipse fill="none" stroke="#00868b" cx="5963.64" cy="-90" rx="59.59" ry="18"/>
<text text-anchor="middle" x="5963.64" y="-86.3" font-family="Times,serif" font-size="14.00">Parameter</text>
</g>
<!-- ClassInfo -->
<g id="node40" class="node">
<title>ClassInfo</title>
<ellipse fill="none" stroke="#00868b" cx="6095.64" cy="-90" rx="53.89" ry="18"/>
<text text-anchor="middle" x="6095.64" y="-86.3" font-family="Times,serif" font-size="14.00">ClassInfo</text>
</g>
<!-- MethodInfo -->
<g id="node41" class="node">
<title>MethodInfo</title>
<ellipse fill="none" stroke="#00868b" cx="6231.64" cy="-90" rx="64.19" ry="18"/>
<text text-anchor="middle" x="6231.64" y="-86.3" font-family="Times,serif" font-size="14.00">MethodInfo</text>
</g>
<!-- FuncType -->
<g id="node42" class="node">
<title>FuncType</title>
<ellipse fill="none" stroke="#00868b" cx="6369.64" cy="-90" rx="55.79" ry="18"/>
<text text-anchor="middle" x="6369.64" y="-86.3" font-family="Times,serif" font-size="14.00">FuncType</text>
</g>
<!-- StepGroupFill -->
<g id="node43" class="node">
<title>StepGroupFill</title>
<ellipse fill="none" stroke="#00868b" cx="6519.64" cy="-90" rx="76.09" ry="18"/>
<text text-anchor="middle" x="6519.64" y="-86.3" font-family="Times,serif" font-size="14.00">StepGroupFill</text>
</g>
<!-- StepFill -->
<g id="node44" class="node">
<title>StepFill</title>
<ellipse fill="none" stroke="#00868b" cx="6660.64" cy="-90" rx="47.39" ry="18"/>
<text text-anchor="middle" x="6660.64" y="-86.3" font-family="Times,serif" font-size="14.00">StepFill</text>
</g>
<!-- ArgumentFill -->
<g id="node45" class="node">
<title>ArgumentFill</title>
<ellipse fill="none" stroke="#00868b" cx="6798.64" cy="-90" rx="72.29" ry="18"/>
<text text-anchor="middle" x="6798.64" y="-86.3" font-family="Times,serif" font-size="14.00">ArgumentFill</text>
</g>
<!-- ParameterFill -->
<g id="node46" class="node">
<title>ParameterFill</title>
<ellipse fill="none" stroke="#00868b" cx="6963.64" cy="-90" rx="74.99" ry="18"/>
<text text-anchor="middle" x="6963.64" y="-86.3" font-family="Times,serif" font-size="14.00">ParameterFill</text>
</g>
<!-- ClassInfoFill -->
<g id="node47" class="node">
<title>ClassInfoFill</title>
<ellipse fill="none" stroke="#00868b" cx="7125.64" cy="-90" rx="68.79" ry="18"/>
<text text-anchor="middle" x="7125.64" y="-86.3" font-family="Times,serif" font-size="14.00">ClassInfoFill</text>
</g>
<!-- MethodInfoFill -->
<g id="node48" class="node">
<title>MethodInfoFill</title>
<ellipse fill="none" stroke="#00868b" cx="7291.64" cy="-90" rx="79.09" ry="18"/>
<text text-anchor="middle" x="7291.64" y="-86.3" font-family="Times,serif" font-size="14.00">MethodInfoFill</text>
</g>
<!-- FunctionIntFill -->
<g id="node49" class="node">
<title>FunctionIntFill</title>
<ellipse fill="none" stroke="#00868b" cx="7468.64" cy="-90" rx="79.89" ry="18"/>
<text text-anchor="middle" x="7468.64" y="-86.3" font-family="Times,serif" font-size="14.00">FunctionIntFill</text>
</g>
<!-- Lang -->
<g id="node50" class="node">
<title>Lang</title>
<ellipse fill="none" stroke="#00868b" cx="7600.64" cy="-90" rx="33.6" ry="18"/>
<text text-anchor="middle" x="7600.64" y="-86.3" font-family="Times,serif" font-size="14.00">Lang</text>
</g>
<!-- ODEInfo -->
<g id="node51" class="node">
<title>ODEInfo</title>
<ellipse fill="none" stroke="#00868b" cx="7702.64" cy="-90" rx="50.09" ry="18"/>
<text text-anchor="middle" x="7702.64" y="-86.3" font-family="Times,serif" font-size="14.00">ODEInfo</text>
</g>
<!-- ODEOptions -->
<g id="node52" class="node">
<title>ODEOptions</title>
<ellipse fill="none" stroke="#00868b" cx="7838.64" cy="-90" rx="68.49" ry="18"/>
<text text-anchor="middle" x="7838.64" y="-86.3" font-family="Times,serif" font-size="14.00">ODEOptions</text>
</g>
<!-- ODEMethod -->
<g id="node53" class="node">
<title>ODEMethod</title>
<ellipse fill="none" stroke="#00868b" cx="7992.64" cy="-90" rx="67.69" ry="18"/>
<text text-anchor="middle" x="7992.64" y="-86.3" font-family="Times,serif" font-size="14.00">ODEMethod</text>
</g>
<!-- ODELibPckg -->
<g id="node54" class="node">
<title>ODELibPckg</title>
<ellipse fill="none" stroke="#00868b" cx="8147.64" cy="-90" rx="69.59" ry="18"/>
<text text-anchor="middle" x="8147.64" y="-86.3" font-family="Times,serif" font-size="14.00">ODELibPckg</text>
</g>
<!-- Choices -->
<g id="node55" class="node">
<title>Choices</title>
<ellipse fill="none" stroke="#00868b" cx="8281.64" cy="-90" rx="46.59" ry="18"/>
<text text-anchor="middle" x="8281.64" y="-86.3" font-family="Times,serif" font-size="14.00">Choices</text>
</g>
<!-- Modularity -->
<g id="node56" class="node">
<title>Modularity</title>
<ellipse fill="none" stroke="#00868b" cx="8408.64" cy="-90" rx="61.99" ry="18"/>
<text text-anchor="middle" x="8408.64" y="-86.3" font-family="Times,serif" font-size="14.00">Modularity</text>
</g>
<!-- RenderChoices -->
<g id="node93" class="node">
<title>RenderChoices</title>
<ellipse fill="none" stroke="magenta" cx="9385.64" cy="-18" rx="80.69" ry="18"/>
<text text-anchor="middle" x="9385.64" y="-14.3" font-family="Times,serif" font-size="14.00">RenderChoices</text>
</g>
<!-- Modularity&#45;&gt;RenderChoices -->
<g id="edge49" class="edge">
<title>Modularity&#45;&gt;RenderChoices</title>
<path fill="none" stroke="black" d="M8452.34,-77.26C8461.31,-75.21 8470.74,-73.32 8479.64,-72 8775.63,-28.26 9131.03,-20.25 9294.83,-19.03"/>
<polygon fill="black" stroke="black" points="9294.89,-22.53 9304.86,-18.96 9294.84,-15.53 9294.89,-22.53"/>
</g>
<!-- InputModule -->
<g id="node57" class="node">
<title>InputModule</title>
<ellipse fill="none" stroke="#00868b" cx="10309.64" cy="-90" rx="70.39" ry="18"/>
<text text-anchor="middle" x="10309.64" y="-86.3" font-family="Times,serif" font-size="14.00">InputModule</text>
</g>
<!-- Structure -->
<g id="node58" class="node">
<title>Structure</title>
<ellipse fill="none" stroke="#00868b" cx="8544.64" cy="-90" rx="55.79" ry="18"/>
<text text-anchor="middle" x="8544.64" y="-86.3" font-family="Times,serif" font-size="14.00">Structure</text>
</g>
<!-- Structure&#45;&gt;RenderChoices -->
<g id="edge50" class="edge">
<title>Structure&#45;&gt;RenderChoices</title>
<path fill="none" stroke="black" d="M8584.61,-77.29C8592.83,-75.24 8601.47,-73.34 8609.64,-72 8855.29,-31.85 9149.5,-22.04 9294.99,-19.7"/>
<polygon fill="black" stroke="black" points="9295.26,-23.19 9305.2,-19.54 9295.15,-16.19 9295.26,-23.19"/>
</g>
<!-- ConstantStructure -->
<g id="node59" class="node">
<title>ConstantStructure</title>
<ellipse fill="none" stroke="#00868b" cx="8715.64" cy="-90" rx="97.48" ry="18"/>
<text text-anchor="middle" x="8715.64" y="-86.3" font-family="Times,serif" font-size="14.00">ConstantStructure</text>
</g>
<!-- ConstantStructure&#45;&gt;RenderChoices -->
<g id="edge51" class="edge">
<title>ConstantStructure&#45;&gt;RenderChoices</title>
<path fill="none" stroke="black" d="M8785.2,-77.29C8797.65,-75.38 8810.51,-73.53 8822.64,-72 8991.48,-50.66 9189.79,-33.92 9300.26,-25.34"/>
<polygon fill="black" stroke="black" points="9300.65,-28.82 9310.35,-24.55 9300.11,-21.84 9300.65,-28.82"/>
</g>
<!-- ConstantRepr -->
<g id="node60" class="node">
<title>ConstantRepr</title>
<ellipse fill="none" stroke="#00868b" cx="8906.64" cy="-90" rx="75.29" ry="18"/>
<text text-anchor="middle" x="8906.64" y="-86.3" font-family="Times,serif" font-size="14.00">ConstantRepr</text>
</g>
<!-- ConstantRepr&#45;&gt;RenderChoices -->
<g id="edge52" class="edge">
<title>ConstantRepr&#45;&gt;RenderChoices</title>
<path fill="none" stroke="black" d="M8961.42,-77.51C8971.45,-75.56 8981.85,-73.64 8991.64,-72 9100.01,-53.89 9225.96,-37.81 9305.72,-28.24"/>
<polygon fill="black" stroke="black" points="9306.18,-31.71 9315.69,-27.04 9305.35,-24.76 9306.18,-31.71"/>
</g>
<!-- CodeConcept -->
<g id="node61" class="node">
<title>CodeConcept</title>
<ellipse fill="none" stroke="#00868b" cx="9072.64" cy="-90" rx="72.29" ry="18"/>
<text text-anchor="middle" x="9072.64" y="-86.3" font-family="Times,serif" font-size="14.00">CodeConcept</text>
</g>
<!-- CodeConcept&#45;&gt;RenderChoices -->
<g id="edge53" class="edge">
<title>CodeConcept&#45;&gt;RenderChoices</title>
<path fill="none" stroke="black" d="M9124.33,-77.44C9178.17,-65.4 9262.63,-46.51 9320.88,-33.48"/>
<polygon fill="black" stroke="black" points="9321.72,-36.88 9330.72,-31.28 9320.2,-30.05 9321.72,-36.88"/>
</g>
<!-- ImplementationType -->
<g id="node62" class="node">
<title>ImplementationType</title>
<ellipse fill="none" stroke="#00868b" cx="9269.64" cy="-90" rx="106.68" ry="18"/>
<text text-anchor="middle" x="9269.64" y="-86.3" font-family="Times,serif" font-size="14.00">ImplementationType</text>
</g>
<!-- ImplementationType&#45;&gt;RenderChoices -->
<g id="edge54" class="edge">
<title>ImplementationType&#45;&gt;RenderChoices</title>
<path fill="none" stroke="black" d="M9296.84,-72.59C9312.81,-62.95 9333.16,-50.67 9350.35,-40.3"/>
<polygon fill="black" stroke="black" points="9352.26,-43.23 9359.02,-35.07 9348.65,-37.24 9352.26,-43.23"/>
</g>
<!-- ConstraintBehaviour -->
<g id="node63" class="node">
<title>ConstraintBehaviour</title>
<ellipse fill="none" stroke="#00868b" cx="9501.64" cy="-90" rx="107.48" ry="18"/>
<text text-anchor="middle" x="9501.64" y="-86.3" font-family="Times,serif" font-size="14.00">ConstraintBehaviour</text>
</g>
<!-- ConstraintBehaviour&#45;&gt;RenderChoices -->
<g id="edge55" class="edge">
<title>ConstraintBehaviour&#45;&gt;RenderChoices</title>
<path fill="none" stroke="black" d="M9474.45,-72.59C9458.48,-62.95 9438.12,-50.67 9420.93,-40.3"/>
<polygon fill="black" stroke="black" points="9422.64,-37.24 9412.27,-35.07 9419.02,-43.23 9422.64,-37.24"/>
</g>
<!-- Comments -->
<g id="node64" class="node">
<title>Comments</title>
<ellipse fill="none" stroke="#00868b" cx="9687.64" cy="-90" rx="60.39" ry="18"/>
<text text-anchor="middle" x="9687.64" y="-86.3" font-family="Times,serif" font-size="14.00">Comments</text>
</g>
<!-- Comments&#45;&gt;RenderChoices -->
<g id="edge56" class="edge">
<title>Comments&#45;&gt;RenderChoices</title>
<path fill="none" stroke="black" d="M9642.48,-77.94C9634.22,-75.94 9625.68,-73.89 9617.64,-72 9561.26,-58.71 9497.04,-44.08 9450.49,-33.56"/>
<polygon fill="black" stroke="black" points="9451.06,-30.11 9440.54,-31.32 9449.52,-36.93 9451.06,-30.11"/>
</g>
<!-- Verbosity -->
<g id="node65" class="node">
<title>Verbosity</title>
<ellipse fill="none" stroke="#00868b" cx="9820.64" cy="-90" rx="54.69" ry="18"/>
<text text-anchor="middle" x="9820.64" y="-86.3" font-family="Times,serif" font-size="14.00">Verbosity</text>
</g>
<!-- Verbosity&#45;&gt;RenderChoices -->
<g id="edge57" class="edge">
<title>Verbosity&#45;&gt;RenderChoices</title>
<path fill="none" stroke="black" d="M9780.87,-77.66C9772.89,-75.6 9764.53,-73.6 9756.64,-72 9657.69,-51.86 9542.36,-36.66 9466.88,-27.81"/>
<polygon fill="black" stroke="black" points="9466.84,-24.29 9456.5,-26.61 9466.03,-31.24 9466.84,-24.29"/>
</g>
<!-- Visibility -->
<g id="node66" class="node">
<title>Visibility</title>
<ellipse fill="none" stroke="#00868b" cx="9945.64" cy="-90" rx="51.99" ry="18"/>
<text text-anchor="middle" x="9945.64" y="-86.3" font-family="Times,serif" font-size="14.00">Visibility</text>
</g>
<!-- Visibility&#45;&gt;RenderChoices -->
<g id="edge58" class="edge">
<title>Visibility&#45;&gt;RenderChoices</title>
<path fill="none" stroke="black" d="M9908.13,-77.49C9900.42,-75.43 9892.31,-73.46 9884.64,-72 9741.93,-44.73 9573.39,-30.5 9473.24,-23.89"/>
<polygon fill="black" stroke="black" points="9473.37,-20.39 9463.16,-23.24 9472.91,-27.38 9473.37,-20.39"/>
</g>
<!-- Logging -->
<g id="node67" class="node">
<title>Logging</title>
<ellipse fill="none" stroke="#00868b" cx="10063.64" cy="-90" rx="48.19" ry="18"/>
<text text-anchor="middle" x="10063.64" y="-86.3" font-family="Times,serif" font-size="14.00">Logging</text>
</g>
<!-- Logging&#45;&gt;RenderChoices -->
<g id="edge59" class="edge">
<title>Logging&#45;&gt;RenderChoices</title>
<path fill="none" stroke="black" d="M10028.95,-77.43C10021.65,-75.34 10013.95,-73.39 10006.64,-72 9820,-36.59 9597.29,-24.82 9475.76,-20.92"/>
<polygon fill="black" stroke="black" points="9475.86,-17.42 9465.75,-20.61 9475.64,-24.42 9475.86,-17.42"/>
</g>
<!-- AuxFile -->
<g id="node68" class="node">
<title>AuxFile</title>
<ellipse fill="none" stroke="#00868b" cx="10175.64" cy="-90" rx="46.29" ry="18"/>
<text text-anchor="middle" x="10175.64" y="-86.3" font-family="Times,serif" font-size="14.00">AuxFile</text>
</g>
<!-- AuxFile&#45;&gt;RenderChoices -->
<g id="edge60" class="edge">
<title>AuxFile&#45;&gt;RenderChoices</title>
<path fill="none" stroke="black" d="M10142.5,-77.43C10135.37,-75.31 10127.81,-73.35 10120.64,-72 9891.57,-28.92 9616.28,-20.32 9476.58,-18.93"/>
<polygon fill="black" stroke="black" points="9476.38,-15.43 9466.35,-18.84 9476.32,-22.43 9476.38,-15.43"/>
</g>
<!-- CodeSpec -->
<g id="node69" class="node">
<title>CodeSpec</title>
<ellipse fill="none" stroke="#00868b" cx="10454.64" cy="-90" rx="56.59" ry="18"/>
<text text-anchor="middle" x="10454.64" y="-86.3" font-family="Times,serif" font-size="14.00">CodeSpec</text>
</g>
<!-- Mod -->
<g id="node70" class="node">
<title>Mod</title>
<ellipse fill="none" stroke="#00868b" cx="10560.64" cy="-90" rx="31.4" ry="18"/>
<text text-anchor="middle" x="10560.64" y="-86.3" font-family="Times,serif" font-size="14.00">Mod</text>
</g>
<!-- Class -->
<g id="node71" class="node">
<title>Class</title>
<ellipse fill="none" stroke="#00868b" cx="10645.64" cy="-90" rx="36" ry="18"/>
<text text-anchor="middle" x="10645.64" y="-86.3" font-family="Times,serif" font-size="14.00">Class</text>
</g>
<!-- StateVariable -->
<g id="node72" class="node">
<title>StateVariable</title>
<ellipse fill="none" stroke="#00868b" cx="10772.64" cy="-90" rx="73.39" ry="18"/>
<text text-anchor="middle" x="10772.64" y="-86.3" font-family="Times,serif" font-size="14.00">StateVariable</text>
</g>
<!-- Func -->
<g id="node73" class="node">
<title>Func</title>
<ellipse fill="none" stroke="#00868b" cx="10897.64" cy="-90" rx="33.6" ry="18"/>
<text text-anchor="middle" x="10897.64" y="-86.3" font-family="Times,serif" font-size="14.00">Func</text>
</g>
<!-- FuncData -->
<g id="node74" class="node">
<title>FuncData</title>
<ellipse fill="none" stroke="#00868b" cx="11005.64" cy="-90" rx="55.79" ry="18"/>
<text text-anchor="middle" x="11005.64" y="-86.3" font-family="Times,serif" font-size="14.00">FuncData</text>
</g>
<!-- FuncDef -->
<g id="node75" class="node">
<title>FuncDef</title>
<ellipse fill="none" stroke="#00868b" cx="11129.64" cy="-90" rx="50.09" ry="18"/>
<text text-anchor="middle" x="11129.64" y="-86.3" font-family="Times,serif" font-size="14.00">FuncDef</text>
</g>
<!-- FuncStmt -->
<g id="node76" class="node">
<title>FuncStmt</title>
<ellipse fill="none" stroke="#00868b" cx="11254.64" cy="-90" rx="56.59" ry="18"/>
<text text-anchor="middle" x="11254.64" y="-86.3" font-family="Times,serif" font-size="14.00">FuncStmt</text>
</g>
<!-- CodeChunk -->
<g id="node94" class="node">
<title>CodeChunk</title>
<ellipse fill="none" stroke="black" cx="238.64" cy="-90" rx="63.89" ry="18"/>
<text text-anchor="middle" x="238.64" y="-86.3" font-family="Times,serif" font-size="14.00">CodeChunk</text>
</g>
<!-- CodeChunk&#45;&gt;CodeIdea -->
<g id="edge1" class="edge">
<title>CodeChunk&#45;&gt;CodeIdea</title>
<path fill="none" stroke="black" d="M272,-74.5C297.19,-63.55 331.87,-48.47 358.73,-36.79"/>
<polygon fill="black" stroke="black" points="360.47,-39.85 368.24,-32.65 357.67,-33.43 360.47,-39.85"/>
</g>
<!-- CodeVarChunk -->
<g id="node95" class="node">
<title>CodeVarChunk</title>
<ellipse fill="none" stroke="black" cx="399.64" cy="-90" rx="79.09" ry="18"/>
<text text-anchor="middle" x="399.64" y="-86.3" font-family="Times,serif" font-size="14.00">CodeVarChunk</text>
</g>
<!-- CodeVarChunk&#45;&gt;CodeIdea -->
<g id="edge2" class="edge">
<title>CodeVarChunk&#45;&gt;CodeIdea</title>
<path fill="none" stroke="black" d="M399.64,-71.7C399.64,-63.98 399.64,-54.71 399.64,-46.11"/>
<polygon fill="black" stroke="black" points="403.14,-46.1 399.64,-36.1 396.14,-46.1 403.14,-46.1"/>
</g>
<!-- CodeFuncChunk -->
<g id="node96" class="node">
<title>CodeFuncChunk</title>
<ellipse fill="none" stroke="black" cx="583.64" cy="-90" rx="87.18" ry="18"/>
<text text-anchor="middle" x="583.64" y="-86.3" font-family="Times,serif" font-size="14.00">CodeFuncChunk</text>
</g>
<!-- CodeFuncChunk&#45;&gt;CodeIdea -->
<g id="edge3" class="edge">
<title>CodeFuncChunk&#45;&gt;CodeIdea</title>
<path fill="none" stroke="black" d="M543.72,-73.81C514.15,-62.56 473.89,-47.25 443.44,-35.66"/>
<polygon fill="black" stroke="black" points="444.52,-32.33 433.93,-32.04 442.03,-38.87 444.52,-32.33"/>
</g>
</g>
</svg>
