<?xml version="1.0" encoding="UTF-8" standalone="no"?>
<!DOCTYPE svg PUBLIC "-//W3C//DTD SVG 1.1//EN"
 "http://www.w3.org/Graphics/SVG/1.1/DTD/svg11.dtd">
<!-- Generated by graphviz version 2.43.0 (0)
 -->
<!-- Title: theory Pages: 1 -->
<svg width="3132pt" height="188pt"
 viewBox="0.00 0.00 3131.90 188.00" xmlns="http://www.w3.org/2000/svg" xmlns:xlink="http://www.w3.org/1999/xlink">
<g id="graph0" class="graph" transform="scale(1 1) rotate(0) translate(4 184)">
<title>theory</title>
<polygon fill="white" stroke="transparent" points="-4,4 -4,-184 3127.9,-184 3127.9,4 -4,4"/>
<!-- ConstraintSet -->
<g id="node1" class="node">
<title>ConstraintSet</title>
<ellipse fill="none" stroke="#00868b" cx="410" cy="-90" rx="75.29" ry="18"/>
<text text-anchor="middle" x="410" y="-86.3" font-family="Times,serif" font-size="14.00">ConstraintSet</text>
</g>
<!-- HasUID -->
<g id="node13" class="node">
<title>HasUID</title>
<ellipse fill="none" stroke="pink" cx="119" cy="-18" rx="47.39" ry="18"/>
<text text-anchor="middle" x="119" y="-14.3" font-family="Times,serif" font-size="14.00">HasUID</text>
</g>
<!-- ConstraintSet&#45;&gt;HasUID -->
<g id="edge1" class="edge">
<title>ConstraintSet&#45;&gt;HasUID</title>
<path fill="none" stroke="black" d="M354.9,-77.61C307.32,-67.52 236.84,-51.94 176,-36 172.18,-35 168.22,-33.92 164.26,-32.8"/>
<polygon fill="black" stroke="black" points="165.05,-29.38 154.47,-29.98 163.11,-36.11 165.05,-29.38"/>
</g>
<!-- NamedIdea -->
<g id="node14" class="node">
<title>NamedIdea</title>
<ellipse fill="none" stroke="pink" cx="674" cy="-18" rx="63.89" ry="18"/>
<text text-anchor="middle" x="674" y="-14.3" font-family="Times,serif" font-size="14.00">NamedIdea</text>
</g>
<!-- ConstraintSet&#45;&gt;NamedIdea -->
<g id="edge2" class="edge">
<title>ConstraintSet&#45;&gt;NamedIdea</title>
<path fill="none" stroke="black" d="M458.42,-76.16C503.87,-64.11 571.76,-46.11 619.18,-33.54"/>
<polygon fill="black" stroke="black" points="620.2,-36.89 628.97,-30.94 618.41,-30.12 620.2,-36.89"/>
</g>
<!-- Idea -->
<g id="node15" class="node">
<title>Idea</title>
<ellipse fill="none" stroke="pink" cx="786" cy="-18" rx="30.59" ry="18"/>
<text text-anchor="middle" x="786" y="-14.3" font-family="Times,serif" font-size="14.00">Idea</text>
</g>
<!-- ConstraintSet&#45;&gt;Idea -->
<g id="edge3" class="edge">
<title>ConstraintSet&#45;&gt;Idea</title>
<path fill="none" stroke="black" d="M464.59,-77.47C474.36,-75.54 484.47,-73.64 494,-72 605.93,-52.73 637.73,-66.97 747,-36 749.28,-35.35 751.6,-34.6 753.91,-33.78"/>
<polygon fill="black" stroke="black" points="755.24,-37.02 763.28,-30.12 752.69,-30.5 755.24,-37.02"/>
</g>
<!-- Definition -->
<g id="node16" class="node">
<title>Definition</title>
<ellipse fill="none" stroke="pink" cx="536" cy="-18" rx="55.79" ry="18"/>
<text text-anchor="middle" x="536" y="-14.3" font-family="Times,serif" font-size="14.00">Definition</text>
</g>
<!-- ConstraintSet&#45;&gt;Definition -->
<g id="edge4" class="edge">
<title>ConstraintSet&#45;&gt;Definition</title>
<path fill="none" stroke="black" d="M438.28,-73.29C456.57,-63.13 480.53,-49.81 500.16,-38.91"/>
<polygon fill="black" stroke="black" points="502.07,-41.85 509.11,-33.94 498.67,-35.73 502.07,-41.85"/>
</g>
<!-- ConceptDomain -->
<g id="node17" class="node">
<title>ConceptDomain</title>
<ellipse fill="none" stroke="pink" cx="269" cy="-18" rx="84.49" ry="18"/>
<text text-anchor="middle" x="269" y="-14.3" font-family="Times,serif" font-size="14.00">ConceptDomain</text>
</g>
<!-- ConstraintSet&#45;&gt;ConceptDomain -->
<g id="edge5" class="edge">
<title>ConstraintSet&#45;&gt;ConceptDomain</title>
<path fill="none" stroke="black" d="M378.71,-73.46C358.4,-63.39 331.74,-50.15 309.78,-39.25"/>
<polygon fill="black" stroke="black" points="311.21,-36.05 300.69,-34.73 308.09,-42.32 311.21,-36.05"/>
</g>
<!-- Display -->
<g id="node18" class="node">
<title>Display</title>
<ellipse fill="none" stroke="pink" cx="417" cy="-18" rx="45.49" ry="18"/>
<text text-anchor="middle" x="417" y="-14.3" font-family="Times,serif" font-size="14.00">Display</text>
</g>
<!-- ConstraintSet&#45;&gt;Display -->
<g id="edge6" class="edge">
<title>ConstraintSet&#45;&gt;Display</title>
<path fill="none" stroke="black" d="M411.73,-71.7C412.5,-63.98 413.43,-54.71 414.29,-46.11"/>
<polygon fill="black" stroke="black" points="417.78,-46.4 415.29,-36.1 410.81,-45.71 417.78,-46.4"/>
</g>
<!-- ScopeType -->
<g id="node2" class="node">
<title>ScopeType</title>
<ellipse fill="none" stroke="#00868b" cx="1319" cy="-162" rx="61.19" ry="18"/>
<text text-anchor="middle" x="1319" y="-158.3" font-family="Times,serif" font-size="14.00">ScopeType</text>
</g>
<!-- DataDefinition -->
<g id="node3" class="node">
<title>DataDefinition</title>
<ellipse fill="none" stroke="#00868b" cx="1162" cy="-162" rx="77.99" ry="18"/>
<text text-anchor="middle" x="1162" y="-158.3" font-family="Times,serif" font-size="14.00">DataDefinition</text>
</g>
<!-- DefiningExpr -->
<g id="node9" class="node">
<title>DefiningExpr</title>
<ellipse fill="none" stroke="pink" cx="169" cy="-90" rx="72.29" ry="18"/>
<text text-anchor="middle" x="169" y="-86.3" font-family="Times,serif" font-size="14.00">DefiningExpr</text>
</g>
<!-- DataDefinition&#45;&gt;DefiningExpr -->
<g id="edge13" class="edge">
<title>DataDefinition&#45;&gt;DefiningExpr</title>
<path fill="none" stroke="black" d="M1084.32,-160.04C927.13,-157.3 560.31,-146.91 255,-108 247.25,-107.01 239.15,-105.74 231.15,-104.33"/>
<polygon fill="black" stroke="black" points="231.58,-100.85 221.11,-102.49 230.32,-107.74 231.58,-100.85"/>
</g>
<!-- DataDefinition&#45;&gt;HasUID -->
<g id="edge7" class="edge">
<title>DataDefinition&#45;&gt;HasUID</title>
<path fill="none" stroke="black" d="M1084.18,-160.06C843.02,-156.79 122.27,-144 88,-108 71.2,-90.35 84.44,-63.1 98.46,-43.41"/>
<polygon fill="black" stroke="black" points="101.41,-45.31 104.64,-35.22 95.82,-41.09 101.41,-45.31"/>
</g>
<!-- DataDefinition&#45;&gt;NamedIdea -->
<g id="edge8" class="edge">
<title>DataDefinition&#45;&gt;NamedIdea</title>
<path fill="none" stroke="black" d="M1090.35,-154.87C1004.95,-146.69 867.98,-130.58 822,-108 801.12,-97.74 803.15,-85.21 784,-72 763.95,-58.17 739.74,-46.08 719.14,-36.95"/>
<polygon fill="black" stroke="black" points="720.52,-33.74 709.96,-32.97 717.74,-40.16 720.52,-33.74"/>
</g>
<!-- DataDefinition&#45;&gt;Idea -->
<g id="edge9" class="edge">
<title>DataDefinition&#45;&gt;Idea</title>
<path fill="none" stroke="black" d="M1121.35,-146.63C1093.83,-136.57 1056.83,-122.41 1025,-108 993.49,-93.74 988.19,-84.65 956,-72 899.81,-49.91 881.93,-56.11 825,-36 822.91,-35.26 820.77,-34.46 818.62,-33.62"/>
<polygon fill="black" stroke="black" points="819.87,-30.35 809.29,-29.8 817.22,-36.83 819.87,-30.35"/>
</g>
<!-- DataDefinition&#45;&gt;ConceptDomain -->
<g id="edge23" class="edge">
<title>DataDefinition&#45;&gt;ConceptDomain</title>
<path fill="none" stroke="black" d="M1084.24,-160.46C887.04,-158.49 378.47,-149.41 315,-108 293.57,-94.01 281.58,-66.7 275.25,-46.01"/>
<polygon fill="black" stroke="black" points="278.57,-44.87 272.52,-36.18 271.83,-46.75 278.57,-44.87"/>
</g>
<!-- DataDefinition&#45;&gt;Display -->
<g id="edge14" class="edge">
<title>DataDefinition&#45;&gt;Display</title>
<path fill="none" stroke="black" d="M1085.04,-158.94C883.1,-153.18 351.77,-135.45 326,-108 315.05,-96.33 318.03,-85.87 326,-72 336.07,-54.48 354.41,-42.21 372,-33.92"/>
<polygon fill="black" stroke="black" points="373.87,-36.92 381.64,-29.72 371.07,-30.51 373.87,-36.92"/>
</g>
<!-- HasSpace -->
<g id="node19" class="node">
<title>HasSpace</title>
<ellipse fill="none" stroke="pink" cx="891" cy="-18" rx="56.59" ry="18"/>
<text text-anchor="middle" x="891" y="-14.3" font-family="Times,serif" font-size="14.00">HasSpace</text>
</g>
<!-- DataDefinition&#45;&gt;HasSpace -->
<g id="edge10" class="edge">
<title>DataDefinition&#45;&gt;HasSpace</title>
<path fill="none" stroke="black" d="M1137.22,-144.81C1098.54,-119.56 1027.92,-73.51 1025,-72 997.11,-57.61 964.36,-44.59 938.23,-35.06"/>
<polygon fill="black" stroke="black" points="939.15,-31.67 928.56,-31.58 936.79,-38.26 939.15,-31.67"/>
</g>
<!-- HasSymbol -->
<g id="node20" class="node">
<title>HasSymbol</title>
<ellipse fill="none" stroke="pink" cx="1029" cy="-18" rx="63.89" ry="18"/>
<text text-anchor="middle" x="1029" y="-14.3" font-family="Times,serif" font-size="14.00">HasSymbol</text>
</g>
<!-- DataDefinition&#45;&gt;HasSymbol -->
<g id="edge11" class="edge">
<title>DataDefinition&#45;&gt;HasSymbol</title>
<path fill="none" stroke="black" d="M1146.96,-144.1C1130.83,-126.07 1104.39,-96.75 1081,-72 1071.87,-62.34 1061.66,-51.86 1052.72,-42.79"/>
<polygon fill="black" stroke="black" points="1055.08,-40.2 1045.56,-35.55 1050.1,-45.12 1055.08,-40.2"/>
</g>
<!-- Quantity -->
<g id="node21" class="node">
<title>Quantity</title>
<ellipse fill="none" stroke="pink" cx="1162" cy="-18" rx="51.19" ry="18"/>
<text text-anchor="middle" x="1162" y="-14.3" font-family="Times,serif" font-size="14.00">Quantity</text>
</g>
<!-- DataDefinition&#45;&gt;Quantity -->
<g id="edge12" class="edge">
<title>DataDefinition&#45;&gt;Quantity</title>
<path fill="none" stroke="black" d="M1162,-143.87C1162,-119.67 1162,-75.21 1162,-46.39"/>
<polygon fill="black" stroke="black" points="1165.5,-46.19 1162,-36.19 1158.5,-46.19 1165.5,-46.19"/>
</g>
<!-- HasReference -->
<g id="node22" class="node">
<title>HasReference</title>
<ellipse fill="none" stroke="pink" cx="2945" cy="-18" rx="75.29" ry="18"/>
<text text-anchor="middle" x="2945" y="-14.3" font-family="Times,serif" font-size="14.00">HasReference</text>
</g>
<!-- DataDefinition&#45;&gt;HasReference -->
<g id="edge15" class="edge">
<title>DataDefinition&#45;&gt;HasReference</title>
<path fill="none" stroke="black" d="M1216.09,-149.02C1226.94,-147.02 1238.29,-145.2 1249,-144 1765.55,-85.97 1900.59,-157.8 2418,-108 2586.54,-91.78 2782.58,-53.46 2881.28,-32.79"/>
<polygon fill="black" stroke="black" points="2882.03,-36.21 2891.1,-30.72 2880.59,-29.36 2882.03,-36.21"/>
</g>
<!-- HasDecRef -->
<g id="node23" class="node">
<title>HasDecRef</title>
<ellipse fill="none" stroke="pink" cx="2223" cy="-18" rx="61.99" ry="18"/>
<text text-anchor="middle" x="2223" y="-14.3" font-family="Times,serif" font-size="14.00">HasDecRef</text>
</g>
<!-- DataDefinition&#45;&gt;HasDecRef -->
<g id="edge16" class="edge">
<title>DataDefinition&#45;&gt;HasDecRef</title>
<path fill="none" stroke="black" d="M1216.57,-149.05C1227.27,-147.07 1238.46,-145.26 1249,-144 1429.24,-122.54 1890.49,-157.91 2065,-108 2113.49,-94.13 2163.16,-62.77 2193.55,-41.24"/>
<polygon fill="black" stroke="black" points="2195.89,-43.86 2201.96,-35.18 2191.8,-38.18 2195.89,-43.86"/>
</g>
<!-- Eq -->
<g id="node24" class="node">
<title>Eq</title>
<ellipse fill="none" stroke="pink" cx="27" cy="-18" rx="27" ry="18"/>
<text text-anchor="middle" x="27" y="-14.3" font-family="Times,serif" font-size="14.00">Eq</text>
</g>
<!-- DataDefinition&#45;&gt;Eq -->
<g id="edge17" class="edge">
<title>DataDefinition&#45;&gt;Eq</title>
<path fill="none" stroke="black" d="M1083.98,-161.5C849.49,-162.42 161.96,-160.54 77,-108 54.59,-94.14 41.35,-66.36 34.18,-45.51"/>
<polygon fill="black" stroke="black" points="37.5,-44.39 31.14,-35.91 30.82,-46.5 37.5,-44.39"/>
</g>
<!-- HasDerivation -->
<g id="node25" class="node">
<title>HasDerivation</title>
<ellipse fill="none" stroke="pink" cx="1754" cy="-18" rx="77.19" ry="18"/>
<text text-anchor="middle" x="1754" y="-14.3" font-family="Times,serif" font-size="14.00">HasDerivation</text>
</g>
<!-- DataDefinition&#45;&gt;HasDerivation -->
<g id="edge18" class="edge">
<title>DataDefinition&#45;&gt;HasDerivation</title>
<path fill="none" stroke="black" d="M1219.04,-149.56C1229.02,-147.65 1239.3,-145.72 1249,-144 1348.71,-126.29 1375.47,-131.4 1474,-108 1556.4,-88.43 1649.69,-56.81 1705.09,-37"/>
<polygon fill="black" stroke="black" points="1706.42,-40.24 1714.65,-33.56 1704.05,-33.65 1706.42,-40.24"/>
</g>
<!-- HasAdditionalNotes -->
<g id="node26" class="node">
<title>HasAdditionalNotes</title>
<ellipse fill="none" stroke="pink" cx="2567" cy="-18" rx="103.18" ry="18"/>
<text text-anchor="middle" x="2567" y="-14.3" font-family="Times,serif" font-size="14.00">HasAdditionalNotes</text>
</g>
<!-- DataDefinition&#45;&gt;HasAdditionalNotes -->
<g id="edge19" class="edge">
<title>DataDefinition&#45;&gt;HasAdditionalNotes</title>
<path fill="none" stroke="black" d="M1216.56,-149C1227.27,-147.02 1238.45,-145.22 1249,-144 1665.18,-95.68 1775.86,-164.52 2191,-108 2304.63,-92.53 2434.18,-58.03 2507.71,-36.82"/>
<polygon fill="black" stroke="black" points="2509.08,-40.06 2517.71,-33.92 2507.13,-33.34 2509.08,-40.06"/>
</g>
<!-- MayHaveUnit -->
<g id="node27" class="node">
<title>MayHaveUnit</title>
<ellipse fill="none" stroke="pink" cx="1583" cy="-18" rx="75.29" ry="18"/>
<text text-anchor="middle" x="1583" y="-14.3" font-family="Times,serif" font-size="14.00">MayHaveUnit</text>
</g>
<!-- DataDefinition&#45;&gt;MayHaveUnit -->
<g id="edge20" class="edge">
<title>DataDefinition&#45;&gt;MayHaveUnit</title>
<path fill="none" stroke="black" d="M1219.12,-149.67C1294.73,-134.65 1419.17,-109.79 1424,-108 1470.57,-90.74 1519.82,-61.17 1550.95,-40.89"/>
<polygon fill="black" stroke="black" points="1553.2,-43.6 1559.62,-35.18 1549.34,-37.76 1553.2,-43.6"/>
</g>
<!-- HasShortName -->
<g id="node28" class="node">
<title>HasShortName</title>
<ellipse fill="none" stroke="pink" cx="2061" cy="-18" rx="81.79" ry="18"/>
<text text-anchor="middle" x="2061" y="-14.3" font-family="Times,serif" font-size="14.00">HasShortName</text>
</g>
<!-- DataDefinition&#45;&gt;HasShortName -->
<g id="edge21" class="edge">
<title>DataDefinition&#45;&gt;HasShortName</title>
<path fill="none" stroke="black" d="M1216.57,-149.06C1227.28,-147.08 1238.46,-145.26 1249,-144 1336.58,-133.51 1974.71,-165.02 2042,-108 2059.47,-93.2 2063.25,-66.62 2063.24,-46.36"/>
<polygon fill="black" stroke="black" points="2066.73,-46.03 2062.92,-36.14 2059.73,-46.25 2066.73,-46.03"/>
</g>
<!-- HasRefAddress -->
<g id="node29" class="node">
<title>HasRefAddress</title>
<ellipse fill="none" stroke="pink" cx="2770" cy="-18" rx="81.79" ry="18"/>
<text text-anchor="middle" x="2770" y="-14.3" font-family="Times,serif" font-size="14.00">HasRefAddress</text>
</g>
<!-- DataDefinition&#45;&gt;HasRefAddress -->
<g id="edge22" class="edge">
<title>DataDefinition&#45;&gt;HasRefAddress</title>
<path fill="none" stroke="black" d="M1216.56,-148.97C1227.27,-147 1238.45,-145.2 1249,-144 1710.28,-91.32 1831.5,-158.71 2293,-108 2442.52,-91.57 2615.52,-54.76 2706.5,-34"/>
<polygon fill="black" stroke="black" points="2707.42,-37.38 2716.38,-31.73 2705.85,-30.55 2707.42,-37.38"/>
</g>
<!-- CommonIdea -->
<g id="node30" class="node">
<title>CommonIdea</title>
<ellipse fill="none" stroke="pink" cx="2374" cy="-18" rx="71.49" ry="18"/>
<text text-anchor="middle" x="2374" y="-14.3" font-family="Times,serif" font-size="14.00">CommonIdea</text>
</g>
<!-- DataDefinition&#45;&gt;CommonIdea -->
<g id="edge24" class="edge">
<title>DataDefinition&#45;&gt;CommonIdea</title>
<path fill="none" stroke="black" d="M1216.56,-149.03C1227.27,-147.05 1238.45,-145.24 1249,-144 1632.46,-98.85 1737.65,-179.94 2117,-108 2195.01,-93.21 2281.43,-59.44 2331.55,-38.02"/>
<polygon fill="black" stroke="black" points="2332.98,-41.21 2340.77,-34.04 2330.2,-34.79 2332.98,-41.21"/>
</g>
<!-- Referable -->
<g id="node31" class="node">
<title>Referable</title>
<ellipse fill="none" stroke="pink" cx="1905" cy="-18" rx="55.79" ry="18"/>
<text text-anchor="middle" x="1905" y="-14.3" font-family="Times,serif" font-size="14.00">Referable</text>
</g>
<!-- DataDefinition&#45;&gt;Referable -->
<g id="edge25" class="edge">
<title>DataDefinition&#45;&gt;Referable</title>
<path fill="none" stroke="black" d="M1217.05,-149.13C1227.62,-147.17 1238.62,-145.34 1249,-144 1373.78,-127.9 1699.07,-159.18 1814,-108 1844.87,-94.25 1871.33,-65.17 1887.64,-43.98"/>
<polygon fill="black" stroke="black" points="1890.62,-45.84 1893.78,-35.73 1885,-41.66 1890.62,-45.84"/>
</g>
<!-- Scope -->
<g id="node4" class="node">
<title>Scope</title>
<ellipse fill="none" stroke="#00868b" cx="1436" cy="-162" rx="38.19" ry="18"/>
<text text-anchor="middle" x="1436" y="-158.3" font-family="Times,serif" font-size="14.00">Scope</text>
</g>
<!-- GenDefn -->
<g id="node5" class="node">
<title>GenDefn</title>
<ellipse fill="none" stroke="#00868b" cx="1754" cy="-90" rx="51.19" ry="18"/>
<text text-anchor="middle" x="1754" y="-86.3" font-family="Times,serif" font-size="14.00">GenDefn</text>
</g>
<!-- GenDefn&#45;&gt;HasUID -->
<g id="edge26" class="edge">
<title>GenDefn&#45;&gt;HasUID</title>
<path fill="none" stroke="black" d="M1703.7,-86.05C1639.01,-82.35 1523.17,-75.98 1424,-72 1146.77,-60.86 449.93,-80.02 176,-36 171.76,-35.32 167.39,-34.41 163.04,-33.36"/>
<polygon fill="black" stroke="black" points="163.59,-29.89 153.02,-30.72 161.8,-36.66 163.59,-29.89"/>
</g>
<!-- GenDefn&#45;&gt;NamedIdea -->
<g id="edge27" class="edge">
<title>GenDefn&#45;&gt;NamedIdea</title>
<path fill="none" stroke="black" d="M1703.64,-86.41C1501.33,-76.01 757.99,-37.72 746,-36 740.3,-35.18 734.39,-34.13 728.51,-32.95"/>
<polygon fill="black" stroke="black" points="729.21,-29.52 718.7,-30.86 727.75,-36.37 729.21,-29.52"/>
</g>
<!-- GenDefn&#45;&gt;Idea -->
<g id="edge28" class="edge">
<title>GenDefn&#45;&gt;Idea</title>
<path fill="none" stroke="black" d="M1703.39,-86.35C1512.6,-76.35 846.53,-41.13 825,-36 822.7,-35.45 820.36,-34.77 818.03,-34.01"/>
<polygon fill="black" stroke="black" points="819.22,-30.72 808.63,-30.46 816.75,-37.27 819.22,-30.72"/>
</g>
<!-- GenDefn&#45;&gt;Definition -->
<g id="edge29" class="edge">
<title>GenDefn&#45;&gt;Definition</title>
<path fill="none" stroke="black" d="M1703.69,-86.29C1638.99,-82.83 1523.13,-76.72 1424,-72 1058.29,-54.58 963.03,-90.63 601,-36 595.94,-35.24 590.7,-34.24 585.5,-33.1"/>
<polygon fill="black" stroke="black" points="586.13,-29.65 575.6,-30.78 584.54,-36.47 586.13,-29.65"/>
</g>
<!-- GenDefn&#45;&gt;ConceptDomain -->
<g id="edge30" class="edge">
<title>GenDefn&#45;&gt;ConceptDomain</title>
<path fill="none" stroke="black" d="M1703.7,-86.13C1639,-82.51 1523.16,-76.24 1424,-72 952.6,-51.86 832.16,-86.12 363,-36 354.76,-35.12 346.16,-33.94 337.65,-32.6"/>
<polygon fill="black" stroke="black" points="338.16,-29.14 327.73,-30.97 337.03,-36.05 338.16,-29.14"/>
</g>
<!-- GenDefn&#45;&gt;Display -->
<g id="edge31" class="edge">
<title>GenDefn&#45;&gt;Display</title>
<path fill="none" stroke="black" d="M1703.69,-86.19C1639,-82.63 1523.15,-76.43 1424,-72 1212.28,-62.55 679.82,-72.14 471,-36 467.13,-35.33 463.16,-34.46 459.21,-33.46"/>
<polygon fill="black" stroke="black" points="460.06,-30.06 449.49,-30.77 458.19,-36.81 460.06,-30.06"/>
</g>
<!-- GenDefn&#45;&gt;HasReference -->
<g id="edge33" class="edge">
<title>GenDefn&#45;&gt;HasReference</title>
<path fill="none" stroke="black" d="M1799.8,-81.84C1824.15,-78.31 1854.64,-74.31 1882,-72 2315.86,-35.3 2428.63,-87.35 2861,-36 2867.85,-35.19 2874.97,-34.11 2882.05,-32.89"/>
<polygon fill="black" stroke="black" points="2883.12,-36.25 2892.34,-31.02 2881.87,-29.37 2883.12,-36.25"/>
</g>
<!-- GenDefn&#45;&gt;HasDecRef -->
<g id="edge34" class="edge">
<title>GenDefn&#45;&gt;HasDecRef</title>
<path fill="none" stroke="black" d="M1801.31,-82.72C1906.33,-68.76 2149.85,-36.4 2152,-36 2157.3,-35.02 2162.79,-33.89 2168.27,-32.7"/>
<polygon fill="black" stroke="black" points="2169.09,-36.1 2178.08,-30.49 2167.55,-29.27 2169.09,-36.1"/>
</g>
<!-- GenDefn&#45;&gt;HasDerivation -->
<g id="edge32" class="edge">
<title>GenDefn&#45;&gt;HasDerivation</title>
<path fill="none" stroke="black" d="M1754,-71.7C1754,-63.98 1754,-54.71 1754,-46.11"/>
<polygon fill="black" stroke="black" points="1757.5,-46.1 1754,-36.1 1750.5,-46.1 1757.5,-46.1"/>
</g>
<!-- GenDefn&#45;&gt;HasAdditionalNotes -->
<g id="edge37" class="edge">
<title>GenDefn&#45;&gt;HasAdditionalNotes</title>
<path fill="none" stroke="black" d="M1800.12,-82.09C1824.43,-78.65 1854.78,-74.66 1882,-72 2135.52,-47.22 2200.71,-62.97 2454,-36 2463.84,-34.95 2474.13,-33.67 2484.33,-32.28"/>
<polygon fill="black" stroke="black" points="2485.06,-35.71 2494.48,-30.86 2484.09,-28.78 2485.06,-35.71"/>
</g>
<!-- GenDefn&#45;&gt;MayHaveUnit -->
<g id="edge38" class="edge">
<title>GenDefn&#45;&gt;MayHaveUnit</title>
<path fill="none" stroke="black" d="M1721.84,-75.83C1695.59,-65.09 1658.17,-49.77 1628.79,-37.74"/>
<polygon fill="black" stroke="black" points="1629.74,-34.35 1619.16,-33.8 1627.09,-40.83 1629.74,-34.35"/>
</g>
<!-- GenDefn&#45;&gt;HasShortName -->
<g id="edge35" class="edge">
<title>GenDefn&#45;&gt;HasShortName</title>
<path fill="none" stroke="black" d="M1795.72,-79.49C1847.44,-67.7 1936.12,-47.47 1996.59,-33.69"/>
<polygon fill="black" stroke="black" points="1997.45,-37.08 2006.42,-31.45 1995.89,-30.26 1997.45,-37.08"/>
</g>
<!-- GenDefn&#45;&gt;HasRefAddress -->
<g id="edge36" class="edge">
<title>GenDefn&#45;&gt;HasRefAddress</title>
<path fill="none" stroke="black" d="M1800.1,-81.89C1824.41,-78.39 1854.76,-74.42 1882,-72 2235.19,-40.63 2326.76,-76.66 2679,-36 2686.75,-35.11 2694.82,-33.94 2702.83,-32.64"/>
<polygon fill="black" stroke="black" points="2703.63,-36.05 2712.9,-30.93 2702.46,-29.15 2703.63,-36.05"/>
</g>
<!-- GenDefn&#45;&gt;CommonIdea -->
<g id="edge39" class="edge">
<title>GenDefn&#45;&gt;CommonIdea</title>
<path fill="none" stroke="black" d="M1800.45,-82.32C1824.72,-78.96 1854.93,-74.98 1882,-72 2064.71,-51.9 2112.21,-63.15 2294,-36 2300.27,-35.06 2306.78,-33.94 2313.26,-32.72"/>
<polygon fill="black" stroke="black" points="2314.25,-36.09 2323.39,-30.73 2312.9,-29.22 2314.25,-36.09"/>
</g>
<!-- GenDefn&#45;&gt;Referable -->
<g id="edge40" class="edge">
<title>GenDefn&#45;&gt;Referable</title>
<path fill="none" stroke="black" d="M1783.83,-75.17C1807.08,-64.39 1839.57,-49.33 1865.06,-37.51"/>
<polygon fill="black" stroke="black" points="1866.85,-40.54 1874.45,-33.16 1863.91,-34.19 1866.85,-40.54"/>
</g>
<!-- InstanceModel -->
<g id="node6" class="node">
<title>InstanceModel</title>
<ellipse fill="none" stroke="#00868b" cx="1336" cy="-90" rx="79.09" ry="18"/>
<text text-anchor="middle" x="1336" y="-86.3" font-family="Times,serif" font-size="14.00">InstanceModel</text>
</g>
<!-- InstanceModel&#45;&gt;HasUID -->
<g id="edge41" class="edge">
<title>InstanceModel&#45;&gt;HasUID</title>
<path fill="none" stroke="black" d="M1259.04,-85.55C1001.07,-73.96 182.7,-37.13 176,-36 171.76,-35.28 167.4,-34.35 163.05,-33.29"/>
<polygon fill="black" stroke="black" points="163.6,-29.81 153.04,-30.63 161.81,-36.58 163.6,-29.81"/>
</g>
<!-- InstanceModel&#45;&gt;NamedIdea -->
<g id="edge42" class="edge">
<title>InstanceModel&#45;&gt;NamedIdea</title>
<path fill="none" stroke="black" d="M1258.72,-85.57C1145.58,-79.75 928.48,-65.58 746,-36 740.61,-35.13 735.03,-34.07 729.46,-32.93"/>
<polygon fill="black" stroke="black" points="730.02,-29.47 719.51,-30.78 728.55,-36.31 730.02,-29.47"/>
</g>
<!-- InstanceModel&#45;&gt;Idea -->
<g id="edge43" class="edge">
<title>InstanceModel&#45;&gt;Idea</title>
<path fill="none" stroke="black" d="M1260.76,-84.05C1139.25,-75.57 905.33,-57.13 825,-36 822.71,-35.4 820.38,-34.68 818.06,-33.88"/>
<polygon fill="black" stroke="black" points="819.27,-30.6 808.68,-30.28 816.76,-37.13 819.27,-30.6"/>
</g>
<!-- InstanceModel&#45;&gt;Definition -->
<g id="edge44" class="edge">
<title>InstanceModel&#45;&gt;Definition</title>
<path fill="none" stroke="black" d="M1259.46,-85.27C1097.77,-77.09 726.04,-56.68 601,-36 596.02,-35.18 590.87,-34.15 585.74,-33"/>
<polygon fill="black" stroke="black" points="586.51,-29.59 575.97,-30.69 584.9,-36.4 586.51,-29.59"/>
</g>
<!-- InstanceModel&#45;&gt;ConceptDomain -->
<g id="edge45" class="edge">
<title>InstanceModel&#45;&gt;ConceptDomain</title>
<path fill="none" stroke="black" d="M1259.3,-85.37C1045.18,-75.17 450.9,-46.3 363,-36 354.98,-35.06 346.61,-33.86 338.31,-32.54"/>
<polygon fill="black" stroke="black" points="338.69,-29.05 328.25,-30.87 337.55,-35.96 338.69,-29.05"/>
</g>
<!-- InstanceModel&#45;&gt;Display -->
<g id="edge46" class="edge">
<title>InstanceModel&#45;&gt;Display</title>
<path fill="none" stroke="black" d="M1259.34,-85.37C1062.12,-75.89 547.28,-50.12 471,-36 467.14,-35.29 463.17,-34.38 459.22,-33.36"/>
<polygon fill="black" stroke="black" points="460.09,-29.97 449.52,-30.64 458.2,-36.71 460.09,-29.97"/>
</g>
<!-- InstanceModel&#45;&gt;HasSpace -->
<g id="edge59" class="edge">
<title>InstanceModel&#45;&gt;HasSpace</title>
<path fill="none" stroke="black" d="M1265.55,-81.68C1188.95,-73.13 1063.12,-57.4 956,-36 951.38,-35.08 946.6,-34.02 941.83,-32.9"/>
<polygon fill="black" stroke="black" points="942.64,-29.5 932.09,-30.52 940.98,-36.3 942.64,-29.5"/>
</g>
<!-- InstanceModel&#45;&gt;HasSymbol -->
<g id="edge58" class="edge">
<title>InstanceModel&#45;&gt;HasSymbol</title>
<path fill="none" stroke="black" d="M1281.6,-76.78C1234.16,-66.09 1163.5,-50.13 1102,-36 1096.98,-34.85 1091.76,-33.64 1086.53,-32.43"/>
<polygon fill="black" stroke="black" points="1087.04,-28.96 1076.5,-30.11 1085.46,-35.78 1087.04,-28.96"/>
</g>
<!-- InstanceModel&#45;&gt;Quantity -->
<g id="edge53" class="edge">
<title>InstanceModel&#45;&gt;Quantity</title>
<path fill="none" stroke="black" d="M1298.67,-73.98C1270.86,-62.79 1232.86,-47.51 1203.99,-35.89"/>
<polygon fill="black" stroke="black" points="1205.16,-32.59 1194.58,-32.11 1202.55,-39.09 1205.16,-32.59"/>
</g>
<!-- InstanceModel&#45;&gt;HasReference -->
<g id="edge48" class="edge">
<title>InstanceModel&#45;&gt;HasReference</title>
<path fill="none" stroke="black" d="M1412.45,-85C1484.93,-81.3 1596.85,-75.8 1694,-72 2212.52,-51.69 2345.53,-95.68 2861,-36 2867.85,-35.21 2874.98,-34.14 2882.05,-32.93"/>
<polygon fill="black" stroke="black" points="2883.13,-36.3 2892.34,-31.07 2881.88,-29.41 2883.13,-36.3"/>
</g>
<!-- InstanceModel&#45;&gt;HasDecRef -->
<g id="edge49" class="edge">
<title>InstanceModel&#45;&gt;HasDecRef</title>
<path fill="none" stroke="black" d="M1413.28,-85.66C1588.34,-77.83 2010.93,-57.31 2152,-36 2157.48,-35.17 2163.17,-34.13 2168.82,-32.97"/>
<polygon fill="black" stroke="black" points="2169.88,-36.32 2178.92,-30.78 2168.4,-29.48 2169.88,-36.32"/>
</g>
<!-- InstanceModel&#45;&gt;HasDerivation -->
<g id="edge47" class="edge">
<title>InstanceModel&#45;&gt;HasDerivation</title>
<path fill="none" stroke="black" d="M1400.18,-79.39C1466.95,-69.23 1574.46,-52.44 1667,-36 1673.62,-34.82 1680.51,-33.55 1687.39,-32.26"/>
<polygon fill="black" stroke="black" points="1688.26,-35.66 1697.43,-30.35 1686.95,-28.78 1688.26,-35.66"/>
</g>
<!-- InstanceModel&#45;&gt;HasAdditionalNotes -->
<g id="edge52" class="edge">
<title>InstanceModel&#45;&gt;HasAdditionalNotes</title>
<path fill="none" stroke="black" d="M1412.82,-85.35C1485.31,-81.91 1597.04,-76.6 1694,-72 2031.78,-55.98 2117.48,-69.2 2454,-36 2464.1,-35 2474.67,-33.73 2485.13,-32.32"/>
<polygon fill="black" stroke="black" points="2485.68,-35.78 2495.1,-30.94 2484.72,-28.85 2485.68,-35.78"/>
</g>
<!-- InstanceModel&#45;&gt;MayHaveUnit -->
<g id="edge60" class="edge">
<title>InstanceModel&#45;&gt;MayHaveUnit</title>
<path fill="none" stroke="black" d="M1383.62,-75.5C1424.46,-63.93 1483.37,-47.24 1526.57,-34.99"/>
<polygon fill="black" stroke="black" points="1527.69,-38.31 1536.36,-32.22 1525.78,-31.58 1527.69,-38.31"/>
</g>
<!-- InstanceModel&#45;&gt;HasShortName -->
<g id="edge50" class="edge">
<title>InstanceModel&#45;&gt;HasShortName</title>
<path fill="none" stroke="black" d="M1412.39,-85.12C1531.78,-78.49 1769.68,-63.01 1970,-36 1977.42,-35 1985.15,-33.8 1992.84,-32.51"/>
<polygon fill="black" stroke="black" points="1993.63,-35.92 2002.89,-30.76 1992.44,-29.03 1993.63,-35.92"/>
</g>
<!-- InstanceModel&#45;&gt;HasRefAddress -->
<g id="edge51" class="edge">
<title>InstanceModel&#45;&gt;HasRefAddress</title>
<path fill="none" stroke="black" d="M1412.46,-85.13C1484.94,-81.51 1596.86,-76.08 1694,-72 2131.68,-53.61 2243.61,-84.36 2679,-36 2686.75,-35.14 2694.83,-33.99 2702.84,-32.7"/>
<polygon fill="black" stroke="black" points="2703.64,-36.12 2712.91,-31 2702.47,-29.22 2703.64,-36.12"/>
</g>
<!-- InstanceModel&#45;&gt;CommonIdea -->
<g id="edge54" class="edge">
<title>InstanceModel&#45;&gt;CommonIdea</title>
<path fill="none" stroke="black" d="M1413.05,-85.42C1625.19,-75.47 2207.83,-47.47 2294,-36 2300.37,-35.15 2306.99,-34.07 2313.58,-32.87"/>
<polygon fill="black" stroke="black" points="2314.69,-36.22 2323.85,-30.89 2313.37,-29.34 2314.69,-36.22"/>
</g>
<!-- InstanceModel&#45;&gt;Referable -->
<g id="edge55" class="edge">
<title>InstanceModel&#45;&gt;Referable</title>
<path fill="none" stroke="black" d="M1412.07,-84.59C1511.19,-78.03 1689.61,-63.41 1840,-36 1844.77,-35.13 1849.7,-34.1 1854.62,-32.97"/>
<polygon fill="black" stroke="black" points="1855.74,-36.3 1864.64,-30.56 1854.1,-29.5 1855.74,-36.3"/>
</g>
<!-- HasInputs -->
<g id="node32" class="node">
<title>HasInputs</title>
<ellipse fill="none" stroke="magenta" cx="1290" cy="-18" rx="58.49" ry="18"/>
<text text-anchor="middle" x="1290" y="-14.3" font-family="Times,serif" font-size="14.00">HasInputs</text>
</g>
<!-- InstanceModel&#45;&gt;HasInputs -->
<g id="edge56" class="edge">
<title>InstanceModel&#45;&gt;HasInputs</title>
<path fill="none" stroke="black" d="M1324.86,-72.05C1319.38,-63.71 1312.67,-53.49 1306.59,-44.25"/>
<polygon fill="black" stroke="black" points="1309.45,-42.22 1301.03,-35.79 1303.6,-46.07 1309.45,-42.22"/>
</g>
<!-- HasOutput -->
<g id="node33" class="node">
<title>HasOutput</title>
<ellipse fill="none" stroke="magenta" cx="1428" cy="-18" rx="61.99" ry="18"/>
<text text-anchor="middle" x="1428" y="-14.3" font-family="Times,serif" font-size="14.00">HasOutput</text>
</g>
<!-- InstanceModel&#45;&gt;HasOutput -->
<g id="edge57" class="edge">
<title>InstanceModel&#45;&gt;HasOutput</title>
<path fill="none" stroke="black" d="M1357.8,-72.41C1370.12,-63.04 1385.68,-51.2 1399.02,-41.05"/>
<polygon fill="black" stroke="black" points="1401.15,-43.83 1406.99,-34.99 1396.91,-38.26 1401.15,-43.83"/>
</g>
<!-- ModelKinds -->
<g id="node7" class="node">
<title>ModelKinds</title>
<ellipse fill="none" stroke="#00868b" cx="569" cy="-90" rx="65.79" ry="18"/>
<text text-anchor="middle" x="569" y="-86.3" font-family="Times,serif" font-size="14.00">ModelKinds</text>
</g>
<!-- ModelKinds&#45;&gt;HasUID -->
<g id="edge61" class="edge">
<title>ModelKinds&#45;&gt;HasUID</title>
<path fill="none" stroke="black" d="M521.55,-77.41C512.44,-75.43 502.95,-73.52 494,-72 353.76,-48.24 315.36,-64.44 176,-36 171.9,-35.16 167.67,-34.17 163.46,-33.08"/>
<polygon fill="black" stroke="black" points="164.29,-29.68 153.72,-30.42 162.44,-36.43 164.29,-29.68"/>
</g>
<!-- ModelKinds&#45;&gt;NamedIdea -->
<g id="edge62" class="edge">
<title>ModelKinds&#45;&gt;NamedIdea</title>
<path fill="none" stroke="black" d="M592.83,-73.12C607.33,-63.45 626.03,-50.98 641.83,-40.44"/>
<polygon fill="black" stroke="black" points="643.89,-43.28 650.27,-34.82 640.01,-37.46 643.89,-43.28"/>
</g>
<!-- ModelKinds&#45;&gt;Idea -->
<g id="edge63" class="edge">
<title>ModelKinds&#45;&gt;Idea</title>
<path fill="none" stroke="black" d="M614.86,-77C651.1,-67.12 702.78,-52.15 747,-36 749.09,-35.24 751.22,-34.42 753.36,-33.57"/>
<polygon fill="black" stroke="black" points="754.78,-36.77 762.68,-29.72 752.1,-30.31 754.78,-36.77"/>
</g>
<!-- ModelKinds&#45;&gt;Definition -->
<g id="edge64" class="edge">
<title>ModelKinds&#45;&gt;Definition</title>
<path fill="none" stroke="black" d="M561.01,-72.05C557.26,-64.09 552.69,-54.41 548.5,-45.51"/>
<polygon fill="black" stroke="black" points="551.57,-43.83 544.14,-36.28 545.24,-46.81 551.57,-43.83"/>
</g>
<!-- ModelKinds&#45;&gt;ConceptDomain -->
<g id="edge65" class="edge">
<title>ModelKinds&#45;&gt;ConceptDomain</title>
<path fill="none" stroke="black" d="M520.8,-77.75C470.02,-65.9 389.76,-47.18 333.54,-34.06"/>
<polygon fill="black" stroke="black" points="334.22,-30.62 323.69,-31.76 332.63,-37.44 334.22,-30.62"/>
</g>
<!-- ModelKinds&#45;&gt;Display -->
<g id="edge66" class="edge">
<title>ModelKinds&#45;&gt;Display</title>
<path fill="none" stroke="black" d="M536.76,-74.15C512.81,-63.12 480.06,-48.04 454.86,-36.43"/>
<polygon fill="black" stroke="black" points="456.15,-33.18 445.6,-32.17 453.22,-39.53 456.15,-33.18"/>
</g>
<!-- ModelKind -->
<g id="node8" class="node">
<title>ModelKind</title>
<ellipse fill="none" stroke="#00868b" cx="714" cy="-90" rx="61.19" ry="18"/>
<text text-anchor="middle" x="714" y="-86.3" font-family="Times,serif" font-size="14.00">ModelKind</text>
</g>
<!-- ModelKind&#45;&gt;HasUID -->
<g id="edge67" class="edge">
<title>ModelKind&#45;&gt;HasUID</title>
<path fill="none" stroke="black" d="M670.53,-77.29C661.8,-75.27 652.65,-73.37 644,-72 437.97,-39.28 381.12,-74.03 176,-36 171.83,-35.23 167.53,-34.26 163.25,-33.19"/>
<polygon fill="black" stroke="black" points="163.94,-29.75 153.38,-30.53 162.12,-36.51 163.94,-29.75"/>
</g>
<!-- ModelKind&#45;&gt;NamedIdea -->
<g id="edge68" class="edge">
<title>ModelKind&#45;&gt;NamedIdea</title>
<path fill="none" stroke="black" d="M704.32,-72.05C699.72,-64.01 694.12,-54.2 688.99,-45.23"/>
<polygon fill="black" stroke="black" points="691.87,-43.22 683.87,-36.28 685.79,-46.69 691.87,-43.22"/>
</g>
<!-- ModelKind&#45;&gt;Idea -->
<g id="edge69" class="edge">
<title>ModelKind&#45;&gt;Idea</title>
<path fill="none" stroke="black" d="M731.06,-72.41C740.7,-63.04 752.87,-51.21 763.3,-41.07"/>
<polygon fill="black" stroke="black" points="765.8,-43.52 770.53,-34.04 760.92,-38.5 765.8,-43.52"/>
</g>
<!-- ModelKind&#45;&gt;Definition -->
<g id="edge70" class="edge">
<title>ModelKind&#45;&gt;Definition</title>
<path fill="none" stroke="black" d="M678.83,-75.17C650.31,-63.95 609.97,-48.09 579.43,-36.08"/>
<polygon fill="black" stroke="black" points="580.47,-32.73 569.89,-32.33 577.91,-39.24 580.47,-32.73"/>
</g>
<!-- ModelKind&#45;&gt;ConceptDomain -->
<g id="edge71" class="edge">
<title>ModelKind&#45;&gt;ConceptDomain</title>
<path fill="none" stroke="black" d="M669.72,-77.46C661.22,-75.47 652.36,-73.55 644,-72 520.19,-49.11 487.44,-55.21 363,-36 355.59,-34.86 347.87,-33.59 340.18,-32.27"/>
<polygon fill="black" stroke="black" points="340.56,-28.79 330.11,-30.52 339.36,-35.68 340.56,-28.79"/>
</g>
<!-- ModelKind&#45;&gt;Display -->
<g id="edge72" class="edge">
<title>ModelKind&#45;&gt;Display</title>
<path fill="none" stroke="black" d="M668.87,-77.81C660.6,-75.82 652.05,-73.81 644,-72 567.39,-54.73 546.99,-55.82 471,-36 467.62,-35.12 464.13,-34.15 460.64,-33.14"/>
<polygon fill="black" stroke="black" points="461.42,-29.73 450.84,-30.22 459.42,-36.43 461.42,-29.73"/>
</g>
<!-- DefiningExpr&#45;&gt;HasUID -->
<g id="edge74" class="edge">
<title>DefiningExpr&#45;&gt;HasUID</title>
<path fill="none" stroke="black" d="M156.9,-72.05C150.88,-63.63 143.49,-53.28 136.83,-43.97"/>
<polygon fill="black" stroke="black" points="139.65,-41.89 130.99,-35.79 133.96,-45.96 139.65,-41.89"/>
</g>
<!-- DefiningExpr&#45;&gt;Definition -->
<g id="edge76" class="edge">
<title>DefiningExpr&#45;&gt;Definition</title>
<path fill="none" stroke="black" d="M229.16,-79.93C290.32,-70.37 387.66,-54.18 471,-36 475.6,-35 480.37,-33.89 485.13,-32.73"/>
<polygon fill="black" stroke="black" points="486,-36.12 494.86,-30.3 484.31,-29.33 486,-36.12"/>
</g>
<!-- DefiningExpr&#45;&gt;ConceptDomain -->
<g id="edge75" class="edge">
<title>DefiningExpr&#45;&gt;ConceptDomain</title>
<path fill="none" stroke="black" d="M192.19,-72.76C205.6,-63.38 222.66,-51.44 237.3,-41.19"/>
<polygon fill="black" stroke="black" points="239.4,-43.99 245.59,-35.39 235.39,-38.26 239.4,-43.99"/>
</g>
<!-- DefiningExpr&#45;&gt;Eq -->
<g id="edge73" class="edge">
<title>DefiningExpr&#45;&gt;Eq</title>
<path fill="none" stroke="black" d="M137.84,-73.64C113.87,-61.82 80.95,-45.6 57.22,-33.9"/>
<polygon fill="black" stroke="black" points="58.5,-30.63 47.99,-29.35 55.41,-36.91 58.5,-30.63"/>
</g>
<!-- MultiDefn -->
<g id="node10" class="node">
<title>MultiDefn</title>
<ellipse fill="none" stroke="#00868b" cx="889" cy="-90" rx="57.69" ry="18"/>
<text text-anchor="middle" x="889" y="-86.3" font-family="Times,serif" font-size="14.00">MultiDefn</text>
</g>
<!-- MultiDefn&#45;&gt;HasUID -->
<g id="edge77" class="edge">
<title>MultiDefn&#45;&gt;HasUID</title>
<path fill="none" stroke="black" d="M840.52,-80.1C822.79,-77.12 802.54,-74.04 784,-72 514.94,-42.33 442.58,-83 176,-36 171.77,-35.25 167.4,-34.3 163.06,-33.23"/>
<polygon fill="black" stroke="black" points="163.62,-29.75 153.05,-30.55 161.81,-36.52 163.62,-29.75"/>
</g>
<!-- MultiDefn&#45;&gt;NamedIdea -->
<g id="edge79" class="edge">
<title>MultiDefn&#45;&gt;NamedIdea</title>
<path fill="none" stroke="black" d="M850.56,-76.49C815.3,-65.01 762.86,-47.93 724.28,-35.37"/>
<polygon fill="black" stroke="black" points="724.89,-31.89 714.29,-32.12 722.72,-38.54 724.89,-31.89"/>
</g>
<!-- MultiDefn&#45;&gt;Idea -->
<g id="edge80" class="edge">
<title>MultiDefn&#45;&gt;Idea</title>
<path fill="none" stroke="black" d="M866.14,-73.46C850.74,-63 830.33,-49.12 813.96,-38"/>
<polygon fill="black" stroke="black" points="815.57,-34.87 805.34,-32.14 811.64,-40.66 815.57,-34.87"/>
</g>
<!-- MultiDefn&#45;&gt;Definition -->
<g id="edge85" class="edge">
<title>MultiDefn&#45;&gt;Definition</title>
<path fill="none" stroke="black" d="M838.83,-80.92C781.18,-71.37 683.88,-54.44 601,-36 596.4,-34.98 591.64,-33.85 586.88,-32.69"/>
<polygon fill="black" stroke="black" points="587.7,-29.29 577.15,-30.25 586,-36.08 587.7,-29.29"/>
</g>
<!-- MultiDefn&#45;&gt;ConceptDomain -->
<g id="edge84" class="edge">
<title>MultiDefn&#45;&gt;ConceptDomain</title>
<path fill="none" stroke="black" d="M840.23,-80.32C822.56,-77.38 802.42,-74.28 784,-72 597.62,-48.98 549.16,-60.74 363,-36 355.26,-34.97 347.18,-33.74 339.15,-32.43"/>
<polygon fill="black" stroke="black" points="339.49,-28.94 329.04,-30.72 338.32,-35.84 339.49,-28.94"/>
</g>
<!-- MultiDefn&#45;&gt;Display -->
<g id="edge86" class="edge">
<title>MultiDefn&#45;&gt;Display</title>
<path fill="none" stroke="black" d="M839.66,-80.53C822.12,-77.65 802.2,-74.52 784,-72 645.29,-52.81 607.96,-65.16 471,-36 467.37,-35.23 463.64,-34.31 459.92,-33.32"/>
<polygon fill="black" stroke="black" points="460.73,-29.91 450.15,-30.53 458.8,-36.64 460.73,-29.91"/>
</g>
<!-- MultiDefn&#45;&gt;HasSpace -->
<g id="edge81" class="edge">
<title>MultiDefn&#45;&gt;HasSpace</title>
<path fill="none" stroke="black" d="M889.49,-71.7C889.71,-63.98 889.98,-54.71 890.23,-46.11"/>
<polygon fill="black" stroke="black" points="893.72,-46.2 890.51,-36.1 886.73,-46 893.72,-46.2"/>
</g>
<!-- MultiDefn&#45;&gt;HasSymbol -->
<g id="edge78" class="edge">
<title>MultiDefn&#45;&gt;HasSymbol</title>
<path fill="none" stroke="black" d="M918.35,-74.33C939.07,-63.97 967.06,-49.97 989.7,-38.65"/>
<polygon fill="black" stroke="black" points="991.34,-41.74 998.72,-34.14 988.21,-35.48 991.34,-41.74"/>
</g>
<!-- MultiDefn&#45;&gt;Quantity -->
<g id="edge82" class="edge">
<title>MultiDefn&#45;&gt;Quantity</title>
<path fill="none" stroke="black" d="M933.57,-78.35C976.74,-67.93 1044,-51.43 1102,-36 1105.83,-34.98 1109.8,-33.9 1113.78,-32.81"/>
<polygon fill="black" stroke="black" points="1114.94,-36.12 1123.64,-30.07 1113.07,-29.37 1114.94,-36.12"/>
</g>
<!-- MultiDefn&#45;&gt;MayHaveUnit -->
<g id="edge83" class="edge">
<title>MultiDefn&#45;&gt;MayHaveUnit</title>
<path fill="none" stroke="black" d="M945.59,-86.22C1053.61,-80.45 1296.46,-65.2 1499,-36 1505.63,-35.04 1512.52,-33.9 1519.39,-32.66"/>
<polygon fill="black" stroke="black" points="1520.2,-36.07 1529.38,-30.79 1518.91,-29.19 1520.2,-36.07"/>
</g>
<!-- SpaceDefn -->
<g id="node11" class="node">
<title>SpaceDefn</title>
<ellipse fill="none" stroke="#00868b" cx="1553" cy="-162" rx="60.39" ry="18"/>
<text text-anchor="middle" x="1553" y="-158.3" font-family="Times,serif" font-size="14.00">SpaceDefn</text>
</g>
<!-- TheoryModel -->
<g id="node12" class="node">
<title>TheoryModel</title>
<ellipse fill="none" stroke="#00868b" cx="1962" cy="-90" rx="71.49" ry="18"/>
<text text-anchor="middle" x="1962" y="-86.3" font-family="Times,serif" font-size="14.00">TheoryModel</text>
</g>
<!-- TheoryModel&#45;&gt;HasUID -->
<g id="edge87" class="edge">
<title>TheoryModel&#45;&gt;HasUID</title>
<path fill="none" stroke="black" d="M1900.55,-80.65C1873.99,-77.38 1842.51,-73.95 1814,-72 1450.76,-47.2 535.67,-92.54 176,-36 171.58,-35.3 167.02,-34.36 162.49,-33.26"/>
<polygon fill="black" stroke="black" points="163.28,-29.85 152.72,-30.67 161.49,-36.62 163.28,-29.85"/>
</g>
<!-- TheoryModel&#45;&gt;NamedIdea -->
<g id="edge88" class="edge">
<title>TheoryModel&#45;&gt;NamedIdea</title>
<path fill="none" stroke="black" d="M1900.18,-80.77C1873.69,-77.54 1842.37,-74.1 1814,-72 1340.36,-36.87 1216.76,-98.88 746,-36 740.29,-35.24 734.37,-34.22 728.49,-33.06"/>
<polygon fill="black" stroke="black" points="729.19,-29.63 718.68,-31 727.75,-36.48 729.19,-29.63"/>
</g>
<!-- TheoryModel&#45;&gt;Idea -->
<g id="edge89" class="edge">
<title>TheoryModel&#45;&gt;Idea</title>
<path fill="none" stroke="black" d="M1900.18,-80.81C1873.68,-77.58 1842.37,-74.14 1814,-72 1594.7,-55.44 1039.44,-84.79 825,-36 822.54,-35.44 820.05,-34.73 817.57,-33.91"/>
<polygon fill="black" stroke="black" points="818.79,-30.63 808.2,-30.37 816.31,-37.18 818.79,-30.63"/>
</g>
<!-- TheoryModel&#45;&gt;Definition -->
<g id="edge90" class="edge">
<title>TheoryModel&#45;&gt;Definition</title>
<path fill="none" stroke="black" d="M1900.54,-80.76C1873.98,-77.5 1842.5,-74.06 1814,-72 1276.05,-33.19 1134.86,-112.72 601,-36 595.93,-35.27 590.7,-34.29 585.49,-33.17"/>
<polygon fill="black" stroke="black" points="586.12,-29.73 575.58,-30.87 584.53,-36.54 586.12,-29.73"/>
</g>
<!-- TheoryModel&#45;&gt;ConceptDomain -->
<g id="edge93" class="edge">
<title>TheoryModel&#45;&gt;ConceptDomain</title>
<path fill="none" stroke="black" d="M1900.55,-80.69C1873.98,-77.43 1842.51,-73.99 1814,-72 1170.47,-27.15 1004.74,-101.6 363,-36 354.7,-35.15 346.03,-33.98 337.46,-32.65"/>
<polygon fill="black" stroke="black" points="337.9,-29.17 327.47,-31.01 336.77,-36.08 337.9,-29.17"/>
</g>
<!-- TheoryModel&#45;&gt;HasReference -->
<g id="edge91" class="edge">
<title>TheoryModel&#45;&gt;HasReference</title>
<path fill="none" stroke="black" d="M2033.41,-88.2C2185.98,-85.74 2554.79,-75.81 2861,-36 2867.74,-35.12 2874.75,-34.02 2881.72,-32.79"/>
<polygon fill="black" stroke="black" points="2882.66,-36.18 2891.86,-30.93 2881.4,-29.3 2882.66,-36.18"/>
</g>
<!-- TheoryModel&#45;&gt;HasDecRef -->
<g id="edge92" class="edge">
<title>TheoryModel&#45;&gt;HasDecRef</title>
<path fill="none" stroke="black" d="M2008.96,-76.4C2054.04,-64.31 2122.06,-46.07 2169.28,-33.41"/>
<polygon fill="black" stroke="black" points="2170.27,-36.77 2179.02,-30.79 2168.46,-30 2170.27,-36.77"/>
</g>
<!-- TheoryModel&#45;&gt;HasAdditionalNotes -->
<g id="edge94" class="edge">
<title>TheoryModel&#45;&gt;HasAdditionalNotes</title>
<path fill="none" stroke="black" d="M2027.76,-82.8C2122.21,-73.7 2301.7,-55.65 2454,-36 2463.35,-34.79 2473.11,-33.45 2482.83,-32.06"/>
<polygon fill="black" stroke="black" points="2483.51,-35.5 2492.91,-30.6 2482.51,-28.57 2483.51,-35.5"/>
</g>
<!-- TheoryModel&#45;&gt;HasShortName -->
<g id="edge96" class="edge">
<title>TheoryModel&#45;&gt;HasShortName</title>
<path fill="none" stroke="black" d="M1984.96,-72.76C1998.24,-63.38 2015.12,-51.44 2029.61,-41.19"/>
<polygon fill="black" stroke="black" points="2031.68,-44.02 2037.82,-35.39 2027.63,-38.31 2031.68,-44.02"/>
</g>
<!-- TheoryModel&#45;&gt;HasRefAddress -->
<g id="edge97" class="edge">
<title>TheoryModel&#45;&gt;HasRefAddress</title>
<path fill="none" stroke="black" d="M2032.23,-86.4C2160.93,-81.05 2443.05,-66.66 2679,-36 2686.42,-35.04 2694.16,-33.86 2701.85,-32.58"/>
<polygon fill="black" stroke="black" points="2702.64,-35.99 2711.9,-30.85 2701.45,-29.1 2702.64,-35.99"/>
</g>
<!-- TheoryModel&#45;&gt;CommonIdea -->
<g id="edge98" class="edge">
<title>TheoryModel&#45;&gt;CommonIdea</title>
<path fill="none" stroke="black" d="M2022.44,-80.3C2089.1,-70.48 2199.46,-53.58 2294,-36 2299.81,-34.92 2305.85,-33.74 2311.89,-32.52"/>
<polygon fill="black" stroke="black" points="2312.91,-35.89 2322.01,-30.45 2311.51,-29.03 2312.91,-35.89"/>
</g>
<!-- TheoryModel&#45;&gt;Referable -->
<g id="edge99" class="edge">
<title>TheoryModel&#45;&gt;Referable</title>
<path fill="none" stroke="black" d="M1948.2,-72.05C1941.27,-63.54 1932.74,-53.07 1925.1,-43.68"/>
<polygon fill="black" stroke="black" points="1927.7,-41.33 1918.67,-35.79 1922.27,-45.75 1927.7,-41.33"/>
</g>
<!-- Theory -->
<g id="node34" class="node">
<title>Theory</title>
<ellipse fill="none" stroke="magenta" cx="3081" cy="-18" rx="42.79" ry="18"/>
<text text-anchor="middle" x="3081" y="-14.3" font-family="Times,serif" font-size="14.00">Theory</text>
</g>
<!-- TheoryModel&#45;&gt;Theory -->
<g id="edge95" class="edge">
<title>TheoryModel&#45;&gt;Theory</title>
<path fill="none" stroke="black" d="M2033.31,-87.93C2240.05,-84.43 2837.16,-71.46 3029,-36 3032.67,-35.32 3036.44,-34.45 3040.19,-33.46"/>
<polygon fill="black" stroke="black" points="3041.37,-36.76 3050,-30.62 3039.42,-30.04 3041.37,-36.76"/>
</g>
</g>
</svg>
