<?xml version="1.0" encoding="UTF-8" standalone="no"?>
<!DOCTYPE svg PUBLIC "-//W3C//DTD SVG 1.1//EN"
 "http://www.w3.org/Graphics/SVG/1.1/DTD/svg11.dtd">
<!-- Generated by graphviz version 2.43.0 (0)
 -->
<!-- Title: allvsr Pages: 1 -->
<svg width="268pt" height="116pt"
 viewBox="0.00 0.00 268.00 116.00" xmlns="http://www.w3.org/2000/svg" xmlns:xlink="http://www.w3.org/1999/xlink">
<g id="graph0" class="graph" transform="scale(1 1) rotate(0) translate(4 112)">
<title>allvsr</title>
<polygon fill="white" stroke="transparent" points="-4,4 -4,-112 264,-112 264,4 -4,4"/>
<!-- instance -->
<g id="node1" class="node">
<title>instance</title>
<polygon fill="#ffb90f" stroke="black" points="129,-108 0,-108 0,-72 129,-72 129,-108"/>
<text text-anchor="middle" x="64.5" y="-86.3" font-family="Times,serif" font-size="14.00">GS:motionMass</text>
</g>
<!-- theory -->
<g id="node2" class="node">
<title>theory</title>
<polygon fill="#fff68f" stroke="black" points="128,-36 1,-36 1,0 128,0 128,-36"/>
<text text-anchor="middle" x="64.5" y="-14.3" font-family="Times,serif" font-size="14.00">IM:calOfAngle2</text>
</g>
<!-- instance&#45;&gt;theory -->
<g id="edge1" class="edge">
<title>instance:calcAng&#45;&gt;theory:angleIM1</title>
<path fill="none" stroke="black" d="M46.75,-71.7C44.37,-63.98 43.69,-54.71 44.71,-46.11"/>
<polygon fill="black" stroke="black" points="48.19,-46.61 46.81,-36.1 41.34,-45.17 48.19,-46.61"/>
</g>
<!-- instance&#45;&gt;theory -->
<g id="edge2" class="edge">
<title>instance:calcAng&#45;&gt;theory:angleIM2</title>
<path fill="none" stroke="black" d="M58.58,-71.7C57.79,-63.98 57.56,-54.71 57.9,-46.11"/>
<polygon fill="black" stroke="black" points="61.4,-46.32 58.6,-36.1 54.42,-45.84 61.4,-46.32"/>
</g>
<!-- instance&#45;&gt;theory -->
<g id="edge3" class="edge">
<title>instance:outputValues&#45;&gt;theory:angleIM1</title>
<path fill="none" stroke="black" d="M70.42,-71.7C71.21,-63.98 71.44,-54.71 71.1,-46.11"/>
<polygon fill="black" stroke="black" points="74.58,-45.84 70.4,-36.1 67.6,-46.32 74.58,-45.84"/>
</g>
<!-- instance&#45;&gt;theory -->
<g id="edge4" class="edge">
<title>instance:outputValues&#45;&gt;theory:angleIM2</title>
<path fill="none" stroke="black" d="M82.25,-71.7C84.63,-63.98 85.31,-54.71 84.29,-46.11"/>
<polygon fill="black" stroke="black" points="87.66,-45.17 82.19,-36.1 80.81,-46.61 87.66,-45.17"/>
</g>
<!-- dataDefn -->
<g id="node3" class="node">
<title>dataDefn</title>
<polygon fill="#bbffff" stroke="black" points="260,-108 147,-108 147,-72 260,-72 260,-108"/>
<text text-anchor="middle" x="203.5" y="-86.3" font-family="Times,serif" font-size="14.00">DD:forceGDD</text>
</g>
</g>
</svg>
