<?xml version="1.0" encoding="UTF-8" standalone="no"?>
<!DOCTYPE svg PUBLIC "-//W3C//DTD SVG 1.1//EN"
 "http://www.w3.org/Graphics/SVG/1.1/DTD/svg11.dtd">
<!-- Generated by graphviz version 2.43.0 (0)
 -->
<!-- Title: allvsall Pages: 1 -->
<svg width="1801pt" height="188pt"
 viewBox="0.00 0.00 1801.00 188.00" xmlns="http://www.w3.org/2000/svg" xmlns:xlink="http://www.w3.org/1999/xlink">
<g id="graph0" class="graph" transform="scale(1 1) rotate(0) translate(4 184)">
<title>allvsall</title>
<polygon fill="white" stroke="transparent" points="-4,4 -4,-184 1797,-184 1797,4 -4,4"/>
<!-- theory -->
<g id="node1" class="node">
<title>theory</title>
<polygon fill="#fff68f" stroke="black" points="179,-108 52,-108 52,-72 179,-72 179,-108"/>
<text text-anchor="middle" x="115.5" y="-86.3" font-family="Times,serif" font-size="14.00">IM:calOfAngle2</text>
</g>
<!-- theory&#45;&gt;theory -->
<g id="edge9" class="edge">
<title>theory:angleIM1&#45;&gt;theory:angleIM2</title>
<path fill="none" stroke="black" d="M179.06,-91.39C189.67,-91.2 197,-90.73 197,-90 197,-89.54 194.14,-89.19 189.4,-88.94"/>
<polygon fill="black" stroke="black" points="189.17,-85.43 179.06,-88.61 188.94,-92.43 189.17,-85.43"/>
</g>
<!-- theory&#45;&gt;theory -->
<g id="edge10" class="edge">
<title>theory:angleIM2&#45;&gt;theory:a_x1</title>
<path fill="none" stroke="black" d="M179.14,-93C199.18,-92.95 215,-91.95 215,-90 215,-88.4 204.36,-87.44 189.47,-87.12"/>
<polygon fill="black" stroke="black" points="189.18,-83.62 179.14,-87 189.1,-90.61 189.18,-83.62"/>
</g>
<!-- theory&#45;&gt;theory -->
<g id="edge11" class="edge">
<title>theory:angleIM2&#45;&gt;theory:a_y1</title>
<path fill="none" stroke="black" d="M179.26,-94.43C208.04,-94.86 233,-93.39 233,-90 233,-87.02 213.72,-85.52 189.51,-85.5"/>
<polygon fill="black" stroke="black" points="189.23,-82 179.26,-85.57 189.28,-89 189.23,-82"/>
</g>
<!-- theory&#45;&gt;theory -->
<g id="edge12" class="edge">
<title>theory:angleIM2&#45;&gt;theory:a_x2</title>
<path fill="none" stroke="black" d="M179.28,-95.66C216.37,-96.84 251,-94.95 251,-90 251,-85.51 222.56,-83.54 189.62,-84.09"/>
<polygon fill="black" stroke="black" points="189.19,-80.6 179.28,-84.34 189.36,-87.6 189.19,-80.6"/>
</g>
<!-- theory&#45;&gt;theory -->
<g id="edge13" class="edge">
<title>theory:angleIM2&#45;&gt;theory:a_y2</title>
<path fill="none" stroke="black" d="M179.37,-96.73C224.4,-98.85 269,-96.6 269,-90 269,-83.89 230.78,-81.51 189.37,-82.87"/>
<polygon fill="black" stroke="black" points="189.22,-79.37 179.37,-83.27 189.5,-86.37 189.22,-79.37"/>
</g>
<!-- theory&#45;&gt;theory -->
<g id="edge14" class="edge">
<title>theory:angleIM2&#45;&gt;theory:xForce1</title>
<path fill="none" stroke="black" d="M179.27,-97.65C232.03,-100.87 287,-98.32 287,-90 287,-82.22 238.89,-79.48 189.48,-81.8"/>
<polygon fill="black" stroke="black" points="189.07,-78.31 179.27,-82.35 189.44,-85.3 189.07,-78.31"/>
</g>
<!-- theory&#45;&gt;theory -->
<g id="edge15" class="edge">
<title>theory:angleIM2&#45;&gt;theory:yForce1</title>
<path fill="none" stroke="black" d="M179.08,-98.45C239.38,-102.91 305,-100.09 305,-90 305,-80.48 246.6,-77.43 189.37,-80.86"/>
<polygon fill="black" stroke="black" points="188.82,-77.39 179.08,-81.55 189.29,-84.37 188.82,-77.39"/>
</g>
<!-- theory&#45;&gt;theory -->
<g id="edge16" class="edge">
<title>theory:angleIM2&#45;&gt;theory:xForce2</title>
<path fill="none" stroke="black" d="M179.23,-99.18C246.8,-104.94 323,-101.88 323,-90 323,-78.73 254.34,-75.4 189.58,-80.01"/>
<polygon fill="black" stroke="black" points="188.93,-76.55 179.23,-80.82 189.47,-83.53 188.93,-76.55"/>
</g>
<!-- theory&#45;&gt;theory -->
<g id="edge17" class="edge">
<title>theory:angleIM2&#45;&gt;theory:yForce2</title>
<path fill="none" stroke="black" d="M179.27,-99.83C254,-106.97 341,-103.69 341,-90 341,-76.92 261.64,-73.35 189.41,-79.27"/>
<polygon fill="black" stroke="black" points="188.92,-75.8 179.27,-80.17 189.54,-82.77 188.92,-75.8"/>
</g>
<!-- theory&#45;&gt;theory -->
<g id="edge18" class="edge">
<title>theory:angleIM2&#45;&gt;theory:angleIM1</title>
<path fill="none" stroke="black" d="M179.1,-100.38C260.91,-109.01 359,-105.55 359,-90 359,-75.09 268.79,-71.3 189.24,-78.62"/>
<polygon fill="black" stroke="black" points="188.71,-75.15 179.1,-79.62 189.4,-82.12 188.71,-75.15"/>
</g>
<!-- theory&#45;&gt;theory -->
<g id="edge19" class="edge">
<title>theory:angleIM2&#45;&gt;theory:angleIM2</title>
<path fill="none" stroke="black" d="M179.18,-100.91C267.92,-111.04 377,-107.4 377,-90 377,-73.24 275.86,-69.25 189.14,-78.02"/>
<polygon fill="black" stroke="black" points="188.75,-74.54 179.18,-79.09 189.5,-81.5 188.75,-74.54"/>
</g>
<!-- dataDefn -->
<g id="node2" class="node">
<title>dataDefn</title>
<polygon fill="#bbffff" stroke="black" points="172,-36 59,-36 59,0 172,0 172,-36"/>
<text text-anchor="middle" x="115.5" y="-14.3" font-family="Times,serif" font-size="14.00">DD:forceGDD</text>
</g>
<!-- theory&#45;&gt;dataDefn -->
<g id="edge1" class="edge">
<title>theory:v_x1&#45;&gt;dataDefn:velocity</title>
<path fill="none" stroke="black" d="M74.09,-71.7C68.34,-63.73 66.83,-54.1 69.58,-45.26"/>
<polygon fill="black" stroke="black" points="72.83,-46.61 74.23,-36.1 66.59,-43.44 72.83,-46.61"/>
</g>
<!-- theory&#45;&gt;dataDefn -->
<g id="edge2" class="edge">
<title>theory:v_x1&#45;&gt;dataDefn:p_x1</title>
<path fill="none" stroke="black" d="M85.92,-71.7C81.86,-63.81 80.76,-54.3 82.64,-45.55"/>
<polygon fill="black" stroke="black" points="85.95,-46.7 86.02,-36.1 79.36,-44.34 85.95,-46.7"/>
</g>
<!-- theory&#45;&gt;dataDefn -->
<g id="edge3" class="edge">
<title>theory:v_y1&#45;&gt;dataDefn:velocity</title>
<path fill="none" stroke="black" d="M97.75,-71.7C95.37,-63.98 94.69,-54.71 95.71,-46.11"/>
<polygon fill="black" stroke="black" points="99.19,-46.61 97.81,-36.1 92.34,-45.17 99.19,-46.61"/>
</g>
<!-- theory&#45;&gt;dataDefn -->
<g id="edge4" class="edge">
<title>theory:v_y1&#45;&gt;dataDefn:p_y1</title>
<path fill="none" stroke="black" d="M109.58,-71.7C108.79,-63.98 108.56,-54.71 108.9,-46.11"/>
<polygon fill="black" stroke="black" points="112.4,-46.32 109.6,-36.1 105.42,-45.84 112.4,-46.32"/>
</g>
<!-- theory&#45;&gt;dataDefn -->
<g id="edge5" class="edge">
<title>theory:v_x2&#45;&gt;dataDefn:velocity</title>
<path fill="none" stroke="black" d="M121.42,-71.7C122.21,-63.98 122.44,-54.71 122.1,-46.11"/>
<polygon fill="black" stroke="black" points="125.58,-45.84 121.4,-36.1 118.6,-46.32 125.58,-45.84"/>
</g>
<!-- theory&#45;&gt;dataDefn -->
<g id="edge6" class="edge">
<title>theory:v_x2&#45;&gt;dataDefn:p_x2</title>
<path fill="none" stroke="black" d="M133.25,-71.7C135.63,-63.98 136.31,-54.71 135.29,-46.11"/>
<polygon fill="black" stroke="black" points="138.66,-45.17 133.19,-36.1 131.81,-46.61 138.66,-45.17"/>
</g>
<!-- theory&#45;&gt;dataDefn -->
<g id="edge7" class="edge">
<title>theory:v_y2&#45;&gt;dataDefn:velocity</title>
<path fill="none" stroke="black" d="M145.08,-71.7C149.14,-63.81 150.24,-54.3 148.36,-45.55"/>
<polygon fill="black" stroke="black" points="151.64,-44.34 144.98,-36.1 145.05,-46.7 151.64,-44.34"/>
</g>
<!-- theory&#45;&gt;dataDefn -->
<g id="edge8" class="edge">
<title>theory:v_y2&#45;&gt;dataDefn:p_y2</title>
<path fill="none" stroke="black" d="M156.91,-71.7C162.66,-63.73 164.17,-54.1 161.42,-45.26"/>
<polygon fill="black" stroke="black" points="164.41,-43.44 156.77,-36.1 158.17,-46.61 164.41,-43.44"/>
</g>
<!-- calcAng -->
<g id="node3" class="node">
<title>calcAng</title>
<polygon fill="ivory" stroke="black" points="97,-180 0,-180 0,-144 97,-144 97,-180"/>
<text text-anchor="middle" x="48.5" y="-158.3" font-family="Times,serif" font-size="14.00">FR:calcAng</text>
</g>
<!-- calcAng&#45;&gt;theory -->
<g id="edge20" class="edge">
<title>calcAng&#45;&gt;theory:angleIM1</title>
<path fill="none" stroke="black" d="M59.15,-143.7C66.46,-135.14 76.31,-124.66 85.78,-115.3"/>
<polygon fill="black" stroke="black" points="88.47,-117.57 93.23,-108.1 83.61,-112.53 88.47,-117.57"/>
</g>
<!-- calcAng&#45;&gt;theory -->
<g id="edge21" class="edge">
<title>calcAng&#45;&gt;theory:angleIM2</title>
<path fill="none" stroke="black" d="M70.98,-143.7C79.88,-135.3 89.86,-125.07 98.2,-115.86"/>
<polygon fill="black" stroke="black" points="101.04,-117.92 105.02,-108.1 95.79,-113.3 101.04,-117.92"/>
</g>
<!-- outputValues -->
<g id="node4" class="node">
<title>outputValues</title>
<polygon fill="ivory" stroke="black" points="250,-180 115,-180 115,-144 250,-144 250,-180"/>
<text text-anchor="middle" x="182.5" y="-158.3" font-family="Times,serif" font-size="14.00">FR:outputValues</text>
</g>
<!-- outputValues&#45;&gt;theory -->
<g id="edge22" class="edge">
<title>outputValues&#45;&gt;theory:angleIM1</title>
<path fill="none" stroke="black" d="M160.02,-143.7C151.12,-135.3 141.14,-125.07 132.8,-115.86"/>
<polygon fill="black" stroke="black" points="135.21,-113.3 125.98,-108.1 129.96,-117.92 135.21,-113.3"/>
</g>
<!-- outputValues&#45;&gt;theory -->
<g id="edge23" class="edge">
<title>outputValues&#45;&gt;theory:angleIM2</title>
<path fill="none" stroke="black" d="M171.85,-143.7C164.54,-135.14 154.69,-124.66 145.22,-115.3"/>
<polygon fill="black" stroke="black" points="147.39,-112.53 137.77,-108.1 142.53,-117.57 147.39,-112.53"/>
</g>
<!-- twoDMotion -->
<g id="node5" class="node">
<title>twoDMotion</title>
<polygon fill="mistyrose" stroke="black" points="387,-180 268,-180 268,-144 387,-144 387,-180"/>
<text text-anchor="middle" x="327.5" y="-158.3" font-family="Times,serif" font-size="14.00">A:twoDMotion</text>
</g>
<!-- cartSys -->
<g id="node6" class="node">
<title>cartSys</title>
<polygon fill="mistyrose" stroke="black" points="490,-180 405,-180 405,-144 490,-144 490,-180"/>
<text text-anchor="middle" x="447.5" y="-158.3" font-family="Times,serif" font-size="14.00">A:cartSys</text>
</g>
<!-- cartSysR -->
<g id="node7" class="node">
<title>cartSysR</title>
<polygon fill="mistyrose" stroke="black" points="603,-180 508,-180 508,-144 603,-144 603,-180"/>
<text text-anchor="middle" x="555.5" y="-158.3" font-family="Times,serif" font-size="14.00">A:cartSysR</text>
</g>
<!-- yAxisDir -->
<g id="node8" class="node">
<title>yAxisDir</title>
<polygon fill="mistyrose" stroke="black" points="713.5,-180 621.5,-180 621.5,-144 713.5,-144 713.5,-180"/>
<text text-anchor="middle" x="667.5" y="-158.3" font-family="Times,serif" font-size="14.00">A:yAxisDir</text>
</g>
<!-- startOrigin -->
<g id="node9" class="node">
<title>startOrigin</title>
<polygon fill="mistyrose" stroke="black" points="841.5,-180 731.5,-180 731.5,-144 841.5,-144 841.5,-180"/>
<text text-anchor="middle" x="786.5" y="-158.3" font-family="Times,serif" font-size="14.00">A:startOrigin</text>
</g>
<!-- firstPend -->
<g id="node10" class="node">
<title>firstPend</title>
<polygon fill="mistyrose" stroke="black" points="955,-180 860,-180 860,-144 955,-144 955,-180"/>
<text text-anchor="middle" x="907.5" y="-158.3" font-family="Times,serif" font-size="14.00">A:firstPend</text>
</g>
<!-- secondPend -->
<g id="node11" class="node">
<title>secondPend</title>
<polygon fill="mistyrose" stroke="black" points="1089.5,-180 973.5,-180 973.5,-144 1089.5,-144 1089.5,-180"/>
<text text-anchor="middle" x="1031.5" y="-158.3" font-family="Times,serif" font-size="14.00">A:secondPend</text>
</g>
<!-- inputValues -->
<g id="node12" class="node">
<title>inputValues</title>
<polygon fill="ivory" stroke="black" points="1233,-180 1108,-180 1108,-144 1233,-144 1233,-180"/>
<text text-anchor="middle" x="1170.5" y="-158.3" font-family="Times,serif" font-size="14.00">FR:inputValues</text>
</g>
<!-- verifyInptVals -->
<g id="node13" class="node">
<title>verifyInptVals</title>
<polygon fill="ivory" stroke="black" points="1392,-180 1251,-180 1251,-144 1392,-144 1392,-180"/>
<text text-anchor="middle" x="1321.5" y="-158.3" font-family="Times,serif" font-size="14.00">FR:verifyInptVals</text>
</g>
<!-- correct -->
<g id="node14" class="node">
<title>correct</title>
<polygon fill="ivory" stroke="black" points="1514.5,-180 1410.5,-180 1410.5,-144 1514.5,-144 1514.5,-180"/>
<text text-anchor="middle" x="1462.5" y="-158.3" font-family="Times,serif" font-size="14.00">NFR:correct</text>
</g>
<!-- portable -->
<g id="node15" class="node">
<title>portable</title>
<polygon fill="ivory" stroke="black" points="1646,-180 1533,-180 1533,-144 1646,-144 1646,-180"/>
<text text-anchor="middle" x="1589.5" y="-158.3" font-family="Times,serif" font-size="14.00">NFR:portable</text>
</g>
<!-- motionMass -->
<g id="node16" class="node">
<title>motionMass</title>
<polygon fill="#ffb90f" stroke="black" points="1793,-180 1664,-180 1664,-144 1793,-144 1793,-180"/>
<text text-anchor="middle" x="1728.5" y="-158.3" font-family="Times,serif" font-size="14.00">GS:motionMass</text>
</g>
</g>
</svg>
