<?xml version="1.0" encoding="UTF-8" standalone="no"?>
<!DOCTYPE svg PUBLIC "-//W3C//DTD SVG 1.1//EN"
 "http://www.w3.org/Graphics/SVG/1.1/DTD/svg11.dtd">
<!-- Generated by graphviz version 2.43.0 (0)
 -->
<!-- Title: allvsall Pages: 1 -->
<svg width="334pt" height="188pt"
 viewBox="0.00 0.00 334.00 188.00" xmlns="http://www.w3.org/2000/svg" xmlns:xlink="http://www.w3.org/1999/xlink">
<g id="graph0" class="graph" transform="scale(1 1) rotate(0) translate(4 184)">
<title>allvsall</title>
<polygon fill="white" stroke="transparent" points="-4,4 -4,-184 330,-184 330,4 -4,4"/>
<!-- theory -->
<g id="node1" class="node">
<title>theory</title>
<polygon fill="#fff68f" stroke="black" points="128,-108 1,-108 1,-72 128,-72 128,-108"/>
<text text-anchor="middle" x="64.5" y="-86.3" font-family="Times,serif" font-size="14.00">IM:calOfAngle2</text>
</g>
<!-- theory&#45;&gt;theory -->
<g id="edge9" class="edge">
<title>theory:angleIM1&#45;&gt;theory:angleIM2</title>
<path fill="none" stroke="black" d="M128.06,-91.39C138.67,-91.2 146,-90.73 146,-90 146,-89.54 143.14,-89.19 138.4,-88.94"/>
<polygon fill="black" stroke="black" points="138.17,-85.43 128.06,-88.61 137.94,-92.43 138.17,-85.43"/>
</g>
<!-- theory&#45;&gt;theory -->
<g id="edge10" class="edge">
<title>theory:angleIM2&#45;&gt;theory:a_x1</title>
<path fill="none" stroke="black" d="M128.14,-93C148.18,-92.95 164,-91.95 164,-90 164,-88.4 153.36,-87.44 138.47,-87.12"/>
<polygon fill="black" stroke="black" points="138.18,-83.62 128.14,-87 138.1,-90.61 138.18,-83.62"/>
</g>
<!-- theory&#45;&gt;theory -->
<g id="edge11" class="edge">
<title>theory:angleIM2&#45;&gt;theory:a_y1</title>
<path fill="none" stroke="black" d="M128.26,-94.43C157.04,-94.86 182,-93.39 182,-90 182,-87.02 162.72,-85.52 138.51,-85.5"/>
<polygon fill="black" stroke="black" points="138.23,-82 128.26,-85.57 138.28,-89 138.23,-82"/>
</g>
<!-- theory&#45;&gt;theory -->
<g id="edge12" class="edge">
<title>theory:angleIM2&#45;&gt;theory:a_x2</title>
<path fill="none" stroke="black" d="M128.28,-95.66C165.37,-96.84 200,-94.95 200,-90 200,-85.51 171.56,-83.54 138.62,-84.09"/>
<polygon fill="black" stroke="black" points="138.19,-80.6 128.28,-84.34 138.36,-87.6 138.19,-80.6"/>
</g>
<!-- theory&#45;&gt;theory -->
<g id="edge13" class="edge">
<title>theory:angleIM2&#45;&gt;theory:a_y2</title>
<path fill="none" stroke="black" d="M128.37,-96.73C173.4,-98.85 218,-96.6 218,-90 218,-83.89 179.78,-81.51 138.37,-82.87"/>
<polygon fill="black" stroke="black" points="138.22,-79.37 128.37,-83.27 138.5,-86.37 138.22,-79.37"/>
</g>
<!-- theory&#45;&gt;theory -->
<g id="edge14" class="edge">
<title>theory:angleIM2&#45;&gt;theory:xForce1</title>
<path fill="none" stroke="black" d="M128.27,-97.65C181.03,-100.87 236,-98.32 236,-90 236,-82.22 187.89,-79.48 138.48,-81.8"/>
<polygon fill="black" stroke="black" points="138.07,-78.31 128.27,-82.35 138.44,-85.3 138.07,-78.31"/>
</g>
<!-- theory&#45;&gt;theory -->
<g id="edge15" class="edge">
<title>theory:angleIM2&#45;&gt;theory:yForce1</title>
<path fill="none" stroke="black" d="M128.08,-98.45C188.38,-102.91 254,-100.09 254,-90 254,-80.48 195.6,-77.43 138.37,-80.86"/>
<polygon fill="black" stroke="black" points="137.82,-77.39 128.08,-81.55 138.29,-84.37 137.82,-77.39"/>
</g>
<!-- theory&#45;&gt;theory -->
<g id="edge16" class="edge">
<title>theory:angleIM2&#45;&gt;theory:xForce2</title>
<path fill="none" stroke="black" d="M128.23,-99.18C195.8,-104.94 272,-101.88 272,-90 272,-78.73 203.34,-75.4 138.58,-80.01"/>
<polygon fill="black" stroke="black" points="137.93,-76.55 128.23,-80.82 138.47,-83.53 137.93,-76.55"/>
</g>
<!-- theory&#45;&gt;theory -->
<g id="edge17" class="edge">
<title>theory:angleIM2&#45;&gt;theory:yForce2</title>
<path fill="none" stroke="black" d="M128.27,-99.83C203,-106.97 290,-103.69 290,-90 290,-76.92 210.64,-73.35 138.41,-79.27"/>
<polygon fill="black" stroke="black" points="137.92,-75.8 128.27,-80.17 138.54,-82.77 137.92,-75.8"/>
</g>
<!-- theory&#45;&gt;theory -->
<g id="edge18" class="edge">
<title>theory:angleIM2&#45;&gt;theory:angleIM1</title>
<path fill="none" stroke="black" d="M128.1,-100.38C209.91,-109.01 308,-105.55 308,-90 308,-75.09 217.79,-71.3 138.24,-78.62"/>
<polygon fill="black" stroke="black" points="137.71,-75.15 128.1,-79.62 138.4,-82.12 137.71,-75.15"/>
</g>
<!-- theory&#45;&gt;theory -->
<g id="edge19" class="edge">
<title>theory:angleIM2&#45;&gt;theory:angleIM2</title>
<path fill="none" stroke="black" d="M128.18,-100.91C216.92,-111.04 326,-107.4 326,-90 326,-73.24 224.86,-69.25 138.14,-78.02"/>
<polygon fill="black" stroke="black" points="137.75,-74.54 128.18,-79.09 138.5,-81.5 137.75,-74.54"/>
</g>
<!-- dataDefn -->
<g id="node2" class="node">
<title>dataDefn</title>
<polygon fill="#bbffff" stroke="black" points="121,-36 8,-36 8,0 121,0 121,-36"/>
<text text-anchor="middle" x="64.5" y="-14.3" font-family="Times,serif" font-size="14.00">DD:forceGDD</text>
</g>
<!-- theory&#45;&gt;dataDefn -->
<g id="edge1" class="edge">
<title>theory:v_x1&#45;&gt;dataDefn:velocity</title>
<path fill="none" stroke="black" d="M23.09,-71.7C17.34,-63.73 15.83,-54.1 18.58,-45.26"/>
<polygon fill="black" stroke="black" points="21.83,-46.61 23.23,-36.1 15.59,-43.44 21.83,-46.61"/>
</g>
<!-- theory&#45;&gt;dataDefn -->
<g id="edge2" class="edge">
<title>theory:v_x1&#45;&gt;dataDefn:p_x1</title>
<path fill="none" stroke="black" d="M34.92,-71.7C30.86,-63.81 29.76,-54.3 31.64,-45.55"/>
<polygon fill="black" stroke="black" points="34.95,-46.7 35.02,-36.1 28.36,-44.34 34.95,-46.7"/>
</g>
<!-- theory&#45;&gt;dataDefn -->
<g id="edge3" class="edge">
<title>theory:v_y1&#45;&gt;dataDefn:velocity</title>
<path fill="none" stroke="black" d="M46.75,-71.7C44.37,-63.98 43.69,-54.71 44.71,-46.11"/>
<polygon fill="black" stroke="black" points="48.19,-46.61 46.81,-36.1 41.34,-45.17 48.19,-46.61"/>
</g>
<!-- theory&#45;&gt;dataDefn -->
<g id="edge4" class="edge">
<title>theory:v_y1&#45;&gt;dataDefn:p_y1</title>
<path fill="none" stroke="black" d="M58.58,-71.7C57.79,-63.98 57.56,-54.71 57.9,-46.11"/>
<polygon fill="black" stroke="black" points="61.4,-46.32 58.6,-36.1 54.42,-45.84 61.4,-46.32"/>
</g>
<!-- theory&#45;&gt;dataDefn -->
<g id="edge5" class="edge">
<title>theory:v_x2&#45;&gt;dataDefn:velocity</title>
<path fill="none" stroke="black" d="M70.42,-71.7C71.21,-63.98 71.44,-54.71 71.1,-46.11"/>
<polygon fill="black" stroke="black" points="74.58,-45.84 70.4,-36.1 67.6,-46.32 74.58,-45.84"/>
</g>
<!-- theory&#45;&gt;dataDefn -->
<g id="edge6" class="edge">
<title>theory:v_x2&#45;&gt;dataDefn:p_x2</title>
<path fill="none" stroke="black" d="M82.25,-71.7C84.63,-63.98 85.31,-54.71 84.29,-46.11"/>
<polygon fill="black" stroke="black" points="87.66,-45.17 82.19,-36.1 80.81,-46.61 87.66,-45.17"/>
</g>
<!-- theory&#45;&gt;dataDefn -->
<g id="edge7" class="edge">
<title>theory:v_y2&#45;&gt;dataDefn:velocity</title>
<path fill="none" stroke="black" d="M94.08,-71.7C98.14,-63.81 99.24,-54.3 97.36,-45.55"/>
<polygon fill="black" stroke="black" points="100.64,-44.34 93.98,-36.1 94.05,-46.7 100.64,-44.34"/>
</g>
<!-- theory&#45;&gt;dataDefn -->
<g id="edge8" class="edge">
<title>theory:v_y2&#45;&gt;dataDefn:p_y2</title>
<path fill="none" stroke="black" d="M105.91,-71.7C111.66,-63.73 113.17,-54.1 110.42,-45.26"/>
<polygon fill="black" stroke="black" points="113.41,-43.44 105.77,-36.1 107.17,-46.61 113.41,-43.44"/>
</g>
<!-- instance -->
<g id="node3" class="node">
<title>instance</title>
<polygon fill="#ffb90f" stroke="black" points="129,-180 0,-180 0,-144 129,-144 129,-180"/>
<text text-anchor="middle" x="64.5" y="-158.3" font-family="Times,serif" font-size="14.00">GS:motionMass</text>
</g>
<!-- instance&#45;&gt;theory -->
<g id="edge20" class="edge">
<title>instance:calcAng&#45;&gt;theory:angleIM1</title>
<path fill="none" stroke="black" d="M46.75,-143.7C44.37,-135.98 43.69,-126.71 44.71,-118.11"/>
<polygon fill="black" stroke="black" points="48.19,-118.61 46.81,-108.1 41.34,-117.17 48.19,-118.61"/>
</g>
<!-- instance&#45;&gt;theory -->
<g id="edge21" class="edge">
<title>instance:calcAng&#45;&gt;theory:angleIM2</title>
<path fill="none" stroke="black" d="M58.58,-143.7C57.79,-135.98 57.56,-126.71 57.9,-118.11"/>
<polygon fill="black" stroke="black" points="61.4,-118.32 58.6,-108.1 54.42,-117.84 61.4,-118.32"/>
</g>
<!-- instance&#45;&gt;theory -->
<g id="edge22" class="edge">
<title>instance:outputValues&#45;&gt;theory:angleIM1</title>
<path fill="none" stroke="black" d="M70.42,-143.7C71.21,-135.98 71.44,-126.71 71.1,-118.11"/>
<polygon fill="black" stroke="black" points="74.58,-117.84 70.4,-108.1 67.6,-118.32 74.58,-117.84"/>
</g>
<!-- instance&#45;&gt;theory -->
<g id="edge23" class="edge">
<title>instance:outputValues&#45;&gt;theory:angleIM2</title>
<path fill="none" stroke="black" d="M82.25,-143.7C84.63,-135.98 85.31,-126.71 84.29,-118.11"/>
<polygon fill="black" stroke="black" points="87.66,-117.17 82.19,-108.1 80.81,-118.61 87.66,-117.17"/>
</g>
</g>
</svg>
