<?xml version="1.0" encoding="UTF-8" standalone="no"?>
<!DOCTYPE svg PUBLIC "-//W3C//DTD SVG 1.1//EN"
 "http://www.w3.org/Graphics/SVG/1.1/DTD/svg11.dtd">
<!-- Generated by graphviz version 2.43.0 (0)
 -->
<!-- Title: avsall Pages: 1 -->
<svg width="1930pt" height="44pt"
 viewBox="0.00 0.00 1930.00 44.00" xmlns="http://www.w3.org/2000/svg" xmlns:xlink="http://www.w3.org/1999/xlink">
<g id="graph0" class="graph" transform="scale(1 1) rotate(0) translate(4 40)">
<title>avsall</title>
<polygon fill="white" stroke="transparent" points="-4,4 -4,-40 1926,-40 1926,4 -4,4"/>
<!-- twoDMotion -->
<g id="node1" class="node">
<title>twoDMotion</title>
<polygon fill="mistyrose" stroke="black" points="119,-36 0,-36 0,0 119,0 119,-36"/>
<text text-anchor="middle" x="59.5" y="-14.3" font-family="Times,serif" font-size="14.00">A:twoDMotion</text>
</g>
<!-- cartSys -->
<g id="node2" class="node">
<title>cartSys</title>
<polygon fill="mistyrose" stroke="black" points="222,-36 137,-36 137,0 222,0 222,-36"/>
<text text-anchor="middle" x="179.5" y="-14.3" font-family="Times,serif" font-size="14.00">A:cartSys</text>
</g>
<!-- cartSysR -->
<g id="node3" class="node">
<title>cartSysR</title>
<polygon fill="mistyrose" stroke="black" points="335,-36 240,-36 240,0 335,0 335,-36"/>
<text text-anchor="middle" x="287.5" y="-14.3" font-family="Times,serif" font-size="14.00">A:cartSysR</text>
</g>
<!-- yAxisDir -->
<g id="node4" class="node">
<title>yAxisDir</title>
<polygon fill="mistyrose" stroke="black" points="445.5,-36 353.5,-36 353.5,0 445.5,0 445.5,-36"/>
<text text-anchor="middle" x="399.5" y="-14.3" font-family="Times,serif" font-size="14.00">A:yAxisDir</text>
</g>
<!-- startOrigin -->
<g id="node5" class="node">
<title>startOrigin</title>
<polygon fill="mistyrose" stroke="black" points="573.5,-36 463.5,-36 463.5,0 573.5,0 573.5,-36"/>
<text text-anchor="middle" x="518.5" y="-14.3" font-family="Times,serif" font-size="14.00">A:startOrigin</text>
</g>
<!-- firstPend -->
<g id="node6" class="node">
<title>firstPend</title>
<polygon fill="mistyrose" stroke="black" points="687,-36 592,-36 592,0 687,0 687,-36"/>
<text text-anchor="middle" x="639.5" y="-14.3" font-family="Times,serif" font-size="14.00">A:firstPend</text>
</g>
<!-- secondPend -->
<g id="node7" class="node">
<title>secondPend</title>
<polygon fill="mistyrose" stroke="black" points="821.5,-36 705.5,-36 705.5,0 821.5,0 821.5,-36"/>
<text text-anchor="middle" x="763.5" y="-14.3" font-family="Times,serif" font-size="14.00">A:secondPend</text>
</g>
<!-- dataDefn -->
<g id="node8" class="node">
<title>dataDefn</title>
<polygon fill="#bbffff" stroke="black" points="953,-36 840,-36 840,0 953,0 953,-36"/>
<text text-anchor="middle" x="896.5" y="-14.3" font-family="Times,serif" font-size="14.00">DD:forceGDD</text>
</g>
<!-- theory -->
<g id="node9" class="node">
<title>theory</title>
<polygon fill="#fff68f" stroke="black" points="1098,-36 971,-36 971,0 1098,0 1098,-36"/>
<text text-anchor="middle" x="1034.5" y="-14.3" font-family="Times,serif" font-size="14.00">IM:calOfAngle2</text>
</g>
<!-- inputValues -->
<g id="node10" class="node">
<title>inputValues</title>
<polygon fill="ivory" stroke="black" points="1241,-36 1116,-36 1116,0 1241,0 1241,-36"/>
<text text-anchor="middle" x="1178.5" y="-14.3" font-family="Times,serif" font-size="14.00">FR:inputValues</text>
</g>
<!-- verifyInptVals -->
<g id="node11" class="node">
<title>verifyInptVals</title>
<polygon fill="ivory" stroke="black" points="1400,-36 1259,-36 1259,0 1400,0 1400,-36"/>
<text text-anchor="middle" x="1329.5" y="-14.3" font-family="Times,serif" font-size="14.00">FR:verifyInptVals</text>
</g>
<!-- calcAng -->
<g id="node12" class="node">
<title>calcAng</title>
<polygon fill="ivory" stroke="black" points="1515,-36 1418,-36 1418,0 1515,0 1515,-36"/>
<text text-anchor="middle" x="1466.5" y="-14.3" font-family="Times,serif" font-size="14.00">FR:calcAng</text>
</g>
<!-- outputValues -->
<g id="node13" class="node">
<title>outputValues</title>
<polygon fill="ivory" stroke="black" points="1668,-36 1533,-36 1533,0 1668,0 1668,-36"/>
<text text-anchor="middle" x="1600.5" y="-14.3" font-family="Times,serif" font-size="14.00">FR:outputValues</text>
</g>
<!-- correct -->
<g id="node14" class="node">
<title>correct</title>
<polygon fill="ivory" stroke="black" points="1790.5,-36 1686.5,-36 1686.5,0 1790.5,0 1790.5,-36"/>
<text text-anchor="middle" x="1738.5" y="-14.3" font-family="Times,serif" font-size="14.00">NFR:correct</text>
</g>
<!-- portable -->
<g id="node15" class="node">
<title>portable</title>
<polygon fill="ivory" stroke="black" points="1922,-36 1809,-36 1809,0 1922,0 1922,-36"/>
<text text-anchor="middle" x="1865.5" y="-14.3" font-family="Times,serif" font-size="14.00">NFR:portable</text>
</g>
</g>
</svg>
