<?xml version="1.0" encoding="UTF-8" standalone="no"?>
<!DOCTYPE svg PUBLIC "-//W3C//DTD SVG 1.1//EN"
 "http://www.w3.org/Graphics/SVG/1.1/DTD/svg11.dtd">
<!-- Generated by graphviz version 2.43.0 (0)
 -->
<!-- Title: refvsref Pages: 1 -->
<svg width="1096pt" height="116pt"
 viewBox="0.00 0.00 1095.50 116.00" xmlns="http://www.w3.org/2000/svg" xmlns:xlink="http://www.w3.org/1999/xlink">
<g id="graph0" class="graph" transform="scale(1 1) rotate(0) translate(4 112)">
<title>refvsref</title>
<polygon fill="white" stroke="transparent" points="-4,4 -4,-112 1091.5,-112 1091.5,4 -4,4"/>
<!-- theory -->
<g id="node1" class="node">
<title>theory</title>
<polygon fill="#fff68f" stroke="black" points="208.5,-108 81.5,-108 81.5,-72 208.5,-72 208.5,-108"/>
<text text-anchor="middle" x="145" y="-86.3" font-family="Times,serif" font-size="14.00">IM:calOfAngle2</text>
</g>
<!-- theory&#45;&gt;theory -->
<g id="edge9" class="edge">
<title>theory:angleIM1&#45;&gt;theory:angleIM2</title>
<path fill="none" stroke="black" d="M208.56,-91.39C219.17,-91.2 226.5,-90.73 226.5,-90 226.5,-89.54 223.64,-89.19 218.9,-88.94"/>
<polygon fill="black" stroke="black" points="218.67,-85.43 208.56,-88.61 218.44,-92.43 218.67,-85.43"/>
</g>
<!-- theory&#45;&gt;theory -->
<g id="edge10" class="edge">
<title>theory:angleIM2&#45;&gt;theory:a_x1</title>
<path fill="none" stroke="black" d="M208.64,-93C228.68,-92.95 244.5,-91.95 244.5,-90 244.5,-88.4 233.86,-87.44 218.97,-87.12"/>
<polygon fill="black" stroke="black" points="218.68,-83.62 208.64,-87 218.6,-90.61 218.68,-83.62"/>
</g>
<!-- theory&#45;&gt;theory -->
<g id="edge11" class="edge">
<title>theory:angleIM2&#45;&gt;theory:a_y1</title>
<path fill="none" stroke="black" d="M208.76,-94.43C237.54,-94.86 262.5,-93.39 262.5,-90 262.5,-87.02 243.22,-85.52 219.01,-85.5"/>
<polygon fill="black" stroke="black" points="218.73,-82 208.76,-85.57 218.78,-89 218.73,-82"/>
</g>
<!-- theory&#45;&gt;theory -->
<g id="edge12" class="edge">
<title>theory:angleIM2&#45;&gt;theory:a_x2</title>
<path fill="none" stroke="black" d="M208.78,-95.66C245.87,-96.84 280.5,-94.95 280.5,-90 280.5,-85.51 252.06,-83.54 219.12,-84.09"/>
<polygon fill="black" stroke="black" points="218.69,-80.6 208.78,-84.34 218.86,-87.6 218.69,-80.6"/>
</g>
<!-- theory&#45;&gt;theory -->
<g id="edge13" class="edge">
<title>theory:angleIM2&#45;&gt;theory:a_y2</title>
<path fill="none" stroke="black" d="M208.87,-96.73C253.9,-98.85 298.5,-96.6 298.5,-90 298.5,-83.89 260.28,-81.51 218.87,-82.87"/>
<polygon fill="black" stroke="black" points="218.72,-79.37 208.87,-83.27 219,-86.37 218.72,-79.37"/>
</g>
<!-- theory&#45;&gt;theory -->
<g id="edge14" class="edge">
<title>theory:angleIM2&#45;&gt;theory:xForce1</title>
<path fill="none" stroke="black" d="M208.77,-97.65C261.53,-100.87 316.5,-98.32 316.5,-90 316.5,-82.22 268.39,-79.48 218.98,-81.8"/>
<polygon fill="black" stroke="black" points="218.57,-78.31 208.77,-82.35 218.94,-85.3 218.57,-78.31"/>
</g>
<!-- theory&#45;&gt;theory -->
<g id="edge15" class="edge">
<title>theory:angleIM2&#45;&gt;theory:yForce1</title>
<path fill="none" stroke="black" d="M208.58,-98.45C268.88,-102.91 334.5,-100.09 334.5,-90 334.5,-80.48 276.1,-77.43 218.87,-80.86"/>
<polygon fill="black" stroke="black" points="218.32,-77.39 208.58,-81.55 218.79,-84.37 218.32,-77.39"/>
</g>
<!-- theory&#45;&gt;theory -->
<g id="edge16" class="edge">
<title>theory:angleIM2&#45;&gt;theory:xForce2</title>
<path fill="none" stroke="black" d="M208.73,-99.18C276.3,-104.94 352.5,-101.88 352.5,-90 352.5,-78.73 283.84,-75.4 219.08,-80.01"/>
<polygon fill="black" stroke="black" points="218.43,-76.55 208.73,-80.82 218.97,-83.53 218.43,-76.55"/>
</g>
<!-- theory&#45;&gt;theory -->
<g id="edge17" class="edge">
<title>theory:angleIM2&#45;&gt;theory:yForce2</title>
<path fill="none" stroke="black" d="M208.77,-99.83C283.5,-106.97 370.5,-103.69 370.5,-90 370.5,-76.92 291.14,-73.35 218.91,-79.27"/>
<polygon fill="black" stroke="black" points="218.42,-75.8 208.77,-80.17 219.04,-82.77 218.42,-75.8"/>
</g>
<!-- theory&#45;&gt;theory -->
<g id="edge18" class="edge">
<title>theory:angleIM2&#45;&gt;theory:angleIM1</title>
<path fill="none" stroke="black" d="M208.6,-100.38C290.41,-109.01 388.5,-105.55 388.5,-90 388.5,-75.09 298.29,-71.3 218.74,-78.62"/>
<polygon fill="black" stroke="black" points="218.21,-75.15 208.6,-79.62 218.9,-82.12 218.21,-75.15"/>
</g>
<!-- theory&#45;&gt;theory -->
<g id="edge19" class="edge">
<title>theory:angleIM2&#45;&gt;theory:angleIM2</title>
<path fill="none" stroke="black" d="M208.68,-100.91C297.42,-111.04 406.5,-107.4 406.5,-90 406.5,-73.24 305.36,-69.25 218.64,-78.02"/>
<polygon fill="black" stroke="black" points="218.25,-74.54 208.68,-79.09 219,-81.5 218.25,-74.54"/>
</g>
<!-- velocity -->
<g id="node2" class="node">
<title>velocity</title>
<polygon fill="#bbffff" stroke="black" points="134,-36 0,-36 0,0 134,0 134,-36"/>
<text text-anchor="middle" x="67" y="-14.3" font-family="Times,serif" font-size="14.00">DD:positionGDD</text>
</g>
<!-- theory&#45;&gt;velocity -->
<g id="edge1" class="edge">
<title>theory:v_x1&#45;&gt;velocity</title>
<path fill="none" stroke="black" d="M108.23,-71.88C96.12,-63.4 83.97,-53.02 75.07,-43.7"/>
<polygon fill="black" stroke="black" points="77.68,-41.37 68.44,-36.19 72.44,-46 77.68,-41.37"/>
</g>
<!-- theory&#45;&gt;velocity -->
<g id="edge3" class="edge">
<title>theory:v_y1&#45;&gt;velocity</title>
<path fill="none" stroke="black" d="M119.8,-71.7C109.38,-63.14 97.52,-52.66 87.62,-43.3"/>
<polygon fill="black" stroke="black" points="89.79,-40.53 80.16,-36.1 84.93,-45.57 89.79,-40.53"/>
</g>
<!-- theory&#45;&gt;velocity -->
<g id="edge5" class="edge">
<title>theory:v_x2&#45;&gt;velocity</title>
<path fill="none" stroke="black" d="M131.63,-71.7C122.81,-62.97 111.03,-52.24 99.89,-42.75"/>
<polygon fill="black" stroke="black" points="101.87,-39.84 91.95,-36.1 97.38,-45.21 101.87,-39.84"/>
</g>
<!-- theory&#45;&gt;velocity -->
<g id="edge7" class="edge">
<title>theory:v_y2&#45;&gt;velocity</title>
<path fill="none" stroke="black" d="M143.47,-71.7C136.3,-62.8 124.56,-51.82 112.04,-42.2"/>
<polygon fill="black" stroke="black" points="113.88,-39.2 103.74,-36.1 109.73,-44.85 113.88,-39.2"/>
</g>
<!-- p_x1 -->
<g id="node3" class="node">
<title>p_x1</title>
<polygon fill="#bbffff" stroke="black" points="294,-36 152,-36 152,0 294,0 294,-36"/>
<text text-anchor="middle" x="223" y="-14.3" font-family="Times,serif" font-size="14.00">DD:positionXDD1</text>
</g>
<!-- theory&#45;&gt;p_x1 -->
<g id="edge2" class="edge">
<title>theory:v_x1&#45;&gt;p_x1</title>
<path fill="none" stroke="black" d="M164.28,-71.7C173.92,-63.05 185.73,-52.45 196.23,-43.03"/>
<polygon fill="black" stroke="black" points="198.84,-45.39 203.94,-36.1 194.16,-40.18 198.84,-45.39"/>
</g>
<!-- p_y1 -->
<g id="node4" class="node">
<title>p_y1</title>
<polygon fill="#bbffff" stroke="black" points="453.5,-36 312.5,-36 312.5,0 453.5,0 453.5,-36"/>
<text text-anchor="middle" x="383" y="-14.3" font-family="Times,serif" font-size="14.00">DD:positionYDD1</text>
</g>
<!-- theory&#45;&gt;p_y1 -->
<g id="edge4" class="edge">
<title>theory:v_y1&#45;&gt;p_y1</title>
<path fill="none" stroke="black" d="M202.92,-71.97C236.75,-62.01 279.62,-49.41 315.04,-38.99"/>
<polygon fill="black" stroke="black" points="316.22,-42.29 324.82,-36.11 314.24,-35.57 316.22,-42.29"/>
</g>
<!-- p_x2 -->
<g id="node5" class="node">
<title>p_x2</title>
<polygon fill="#bbffff" stroke="black" points="614,-36 472,-36 472,0 614,0 614,-36"/>
<text text-anchor="middle" x="543" y="-14.3" font-family="Times,serif" font-size="14.00">DD:positionXDD2</text>
</g>
<!-- theory&#45;&gt;p_x2 -->
<g id="edge6" class="edge">
<title>theory:v_x2&#45;&gt;p_x2</title>
<path fill="none" stroke="black" d="M208.8,-79.22C270.91,-69.5 368.22,-53.77 461.99,-36.15"/>
<polygon fill="black" stroke="black" points="462.76,-39.57 471.93,-34.27 461.46,-32.69 462.76,-39.57"/>
</g>
<!-- p_y2 -->
<g id="node6" class="node">
<title>p_y2</title>
<polygon fill="#bbffff" stroke="black" points="773.5,-36 632.5,-36 632.5,0 773.5,0 773.5,-36"/>
<text text-anchor="middle" x="703" y="-14.3" font-family="Times,serif" font-size="14.00">DD:positionYDD2</text>
</g>
<!-- theory&#45;&gt;p_y2 -->
<g id="edge8" class="edge">
<title>theory:v_y2&#45;&gt;p_y2</title>
<path fill="none" stroke="black" d="M208.67,-83.96C298.57,-76.39 467.97,-60.5 622.26,-36.02"/>
<polygon fill="black" stroke="black" points="623.08,-39.44 632.4,-34.4 621.97,-32.52 623.08,-39.44"/>
</g>
<!-- acceleration -->
<g id="node7" class="node">
<title>acceleration</title>
<polygon fill="#bbffff" stroke="black" points="956,-36 792,-36 792,0 956,0 956,-36"/>
<text text-anchor="middle" x="874" y="-14.3" font-family="Times,serif" font-size="14.00">DD:accelerationGDD</text>
</g>
<!-- force -->
<g id="node8" class="node">
<title>force</title>
<polygon fill="#bbffff" stroke="black" points="1087.5,-36 974.5,-36 974.5,0 1087.5,0 1087.5,-36"/>
<text text-anchor="middle" x="1031" y="-14.3" font-family="Times,serif" font-size="14.00">DD:forceGDD</text>
</g>
</g>
</svg>
