<?xml version="1.0" encoding="UTF-8" standalone="no"?>
<!DOCTYPE svg PUBLIC "-//W3C//DTD SVG 1.1//EN"
 "http://www.w3.org/Graphics/SVG/1.1/DTD/svg11.dtd">
<!-- Generated by graphviz version 2.43.0 (0)
 -->
<!-- Title: refvsref Pages: 1 -->
<svg width="1096pt" height="188pt"
 viewBox="0.00 0.00 1095.50 188.00" xmlns="http://www.w3.org/2000/svg" xmlns:xlink="http://www.w3.org/1999/xlink">
<g id="graph0" class="graph" transform="scale(1 1) rotate(0) translate(4 184)">
<title>refvsref</title>
<polygon fill="white" stroke="transparent" points="-4,4 -4,-184 1091.5,-184 1091.5,4 -4,4"/>
<!-- theory -->
<g id="node1" class="node">
<title>theory</title>
<polygon fill="palegreen" stroke="black" points="219.5,-108 70.5,-108 70.5,-72 219.5,-72 219.5,-108"/>
<text text-anchor="middle" x="145" y="-86.3" font-family="Times,serif" font-size="14.00">GD:accelerationY2</text>
</g>
<!-- velocity -->
<g id="node2" class="node">
<title>velocity</title>
<polygon fill="#bbffff" stroke="black" points="134,-36 0,-36 0,0 134,0 134,-36"/>
<text text-anchor="middle" x="67" y="-14.3" font-family="Times,serif" font-size="14.00">DD:positionGDD</text>
</g>
<!-- theory&#45;&gt;velocity -->
<g id="edge1" class="edge">
<title>theory:v_x1&#45;&gt;velocity</title>
<path fill="none" stroke="black" d="M108.23,-71.88C96.12,-63.4 83.97,-53.02 75.07,-43.7"/>
<polygon fill="black" stroke="black" points="77.68,-41.37 68.44,-36.19 72.44,-46 77.68,-41.37"/>
</g>
<!-- theory&#45;&gt;velocity -->
<g id="edge3" class="edge">
<title>theory:v_y1&#45;&gt;velocity</title>
<path fill="none" stroke="black" d="M119.8,-71.7C109.38,-63.14 97.52,-52.66 87.62,-43.3"/>
<polygon fill="black" stroke="black" points="89.79,-40.53 80.16,-36.1 84.93,-45.57 89.79,-40.53"/>
</g>
<!-- theory&#45;&gt;velocity -->
<g id="edge5" class="edge">
<title>theory:v_x2&#45;&gt;velocity</title>
<path fill="none" stroke="black" d="M131.63,-71.7C122.81,-62.97 111.03,-52.24 99.89,-42.75"/>
<polygon fill="black" stroke="black" points="101.87,-39.84 91.95,-36.1 97.38,-45.21 101.87,-39.84"/>
</g>
<!-- theory&#45;&gt;velocity -->
<g id="edge7" class="edge">
<title>theory:v_y2&#45;&gt;velocity</title>
<path fill="none" stroke="black" d="M143.47,-71.7C136.3,-62.8 124.56,-51.82 112.04,-42.2"/>
<polygon fill="black" stroke="black" points="113.88,-39.2 103.74,-36.1 109.73,-44.85 113.88,-39.2"/>
</g>
<!-- p_x1 -->
<g id="node3" class="node">
<title>p_x1</title>
<polygon fill="#bbffff" stroke="black" points="294,-36 152,-36 152,0 294,0 294,-36"/>
<text text-anchor="middle" x="223" y="-14.3" font-family="Times,serif" font-size="14.00">DD:positionXDD1</text>
</g>
<!-- theory&#45;&gt;p_x1 -->
<g id="edge2" class="edge">
<title>theory:v_x1&#45;&gt;p_x1</title>
<path fill="none" stroke="black" d="M164.28,-71.7C173.92,-63.05 185.73,-52.45 196.23,-43.03"/>
<polygon fill="black" stroke="black" points="198.84,-45.39 203.94,-36.1 194.16,-40.18 198.84,-45.39"/>
</g>
<!-- p_y1 -->
<g id="node4" class="node">
<title>p_y1</title>
<polygon fill="#bbffff" stroke="black" points="453.5,-36 312.5,-36 312.5,0 453.5,0 453.5,-36"/>
<text text-anchor="middle" x="383" y="-14.3" font-family="Times,serif" font-size="14.00">DD:positionYDD1</text>
</g>
<!-- theory&#45;&gt;p_y1 -->
<g id="edge4" class="edge">
<title>theory:v_y1&#45;&gt;p_y1</title>
<path fill="none" stroke="black" d="M202.92,-71.97C236.75,-62.01 279.62,-49.41 315.04,-38.99"/>
<polygon fill="black" stroke="black" points="316.22,-42.29 324.82,-36.11 314.24,-35.57 316.22,-42.29"/>
</g>
<!-- p_x2 -->
<g id="node5" class="node">
<title>p_x2</title>
<polygon fill="#bbffff" stroke="black" points="614,-36 472,-36 472,0 614,0 614,-36"/>
<text text-anchor="middle" x="543" y="-14.3" font-family="Times,serif" font-size="14.00">DD:positionXDD2</text>
</g>
<!-- theory&#45;&gt;p_x2 -->
<g id="edge6" class="edge">
<title>theory:v_x2&#45;&gt;p_x2</title>
<path fill="none" stroke="black" d="M219.62,-73.71C222.79,-73.12 225.92,-72.55 229,-72 329.46,-54.12 357.8,-54.88 461.96,-36.13"/>
<polygon fill="black" stroke="black" points="462.73,-39.55 471.94,-34.32 461.48,-32.66 462.73,-39.55"/>
</g>
<!-- p_y2 -->
<g id="node6" class="node">
<title>p_y2</title>
<polygon fill="#bbffff" stroke="black" points="773.5,-36 632.5,-36 632.5,0 773.5,0 773.5,-36"/>
<text text-anchor="middle" x="703" y="-14.3" font-family="Times,serif" font-size="14.00">DD:positionYDD2</text>
</g>
<!-- theory&#45;&gt;p_y2 -->
<g id="edge8" class="edge">
<title>theory:v_y2&#45;&gt;p_y2</title>
<path fill="none" stroke="black" d="M219.58,-73.47C222.76,-72.95 225.91,-72.45 229,-72 399.76,-47 447.38,-61.75 622.35,-35.98"/>
<polygon fill="black" stroke="black" points="623.04,-39.41 632.41,-34.47 622,-32.49 623.04,-39.41"/>
</g>
<!-- angleIM1 -->
<g id="node7" class="node">
<title>angleIM1</title>
<polygon fill="#fff68f" stroke="black" points="442.5,-180 315.5,-180 315.5,-144 442.5,-144 442.5,-180"/>
<text text-anchor="middle" x="379" y="-158.3" font-family="Times,serif" font-size="14.00">IM:calOfAngle1</text>
</g>
<!-- angleIM2 -->
<g id="node8" class="node">
<title>angleIM2</title>
<polygon fill="#fff68f" stroke="black" points="279.5,-180 152.5,-180 152.5,-144 279.5,-144 279.5,-180"/>
<text text-anchor="middle" x="216" y="-158.3" font-family="Times,serif" font-size="14.00">IM:calOfAngle2</text>
</g>
<!-- angleIM1&#45;&gt;angleIM2 -->
<g id="edge9" class="edge">
<title>angleIM1&#45;&gt;angleIM2</title>
<path fill="none" stroke="black" d="M315.37,-149.15C306.82,-148.53 298.26,-148.35 289.71,-148.62"/>
<polygon fill="black" stroke="black" points="289.48,-145.13 279.67,-149.15 289.84,-152.12 289.48,-145.13"/>
</g>
<!-- angleIM2&#45;&gt;theory -->
<g id="edge10" class="edge">
<title>angleIM2&#45;&gt;theory:a_x1</title>
<path fill="none" stroke="black" d="M180.7,-143.7C169.71,-135.39 158.86,-125.28 150.98,-116.14"/>
<polygon fill="black" stroke="black" points="153.6,-113.8 144.66,-108.1 148.09,-118.13 153.6,-113.8"/>
</g>
<!-- angleIM2&#45;&gt;theory -->
<g id="edge11" class="edge">
<title>angleIM2&#45;&gt;theory:a_y1</title>
<path fill="none" stroke="black" d="M192.53,-143.7C183.06,-135.22 172.37,-124.86 163.46,-115.58"/>
<polygon fill="black" stroke="black" points="165.84,-113.01 156.45,-108.1 160.73,-117.8 165.84,-113.01"/>
</g>
<!-- angleIM2&#45;&gt;theory -->
<g id="edge12" class="edge">
<title>angleIM2&#45;&gt;theory:a_x2</title>
<path fill="none" stroke="black" d="M204.37,-143.7C196.49,-135.05 185.91,-124.45 175.82,-115.03"/>
<polygon fill="black" stroke="black" points="177.99,-112.27 168.24,-108.1 173.26,-117.43 177.99,-112.27"/>
</g>
<!-- angleIM2&#45;&gt;theory -->
<g id="edge13" class="edge">
<title>angleIM2&#45;&gt;theory:a_y2</title>
<path fill="none" stroke="black" d="M216.2,-143.7C209.98,-134.88 199.48,-124.03 188.05,-114.47"/>
<polygon fill="black" stroke="black" points="190.04,-111.59 180.03,-108.1 185.69,-117.07 190.04,-111.59"/>
</g>
<!-- angleIM2&#45;&gt;angleIM1 -->
<g id="edge18" class="edge">
<title>angleIM2&#45;&gt;angleIM1</title>
<path fill="none" stroke="black" d="M279.67,-174.85C288.22,-175.47 296.78,-175.65 305.33,-175.38"/>
<polygon fill="black" stroke="black" points="305.56,-178.87 315.37,-174.85 305.2,-171.88 305.56,-178.87"/>
</g>
<!-- angleIM2&#45;&gt;angleIM2 -->
<g id="edge19" class="edge">
<title>angleIM2&#45;&gt;angleIM2</title>
<path fill="none" stroke="black" d="M279.56,-174.55C290.17,-172.79 297.5,-168.61 297.5,-162 297.5,-157.77 294.49,-154.53 289.54,-152.29"/>
<polygon fill="black" stroke="black" points="290.13,-148.82 279.56,-149.45 288.22,-155.55 290.13,-148.82"/>
</g>
<!-- xForce1 -->
<g id="node9" class="node">
<title>xForce1</title>
<polygon fill="palegreen" stroke="black" points="338.5,-108 237.5,-108 237.5,-72 338.5,-72 338.5,-108"/>
<text text-anchor="middle" x="288" y="-86.3" font-family="Times,serif" font-size="14.00">GD:xForce1</text>
</g>
<!-- angleIM2&#45;&gt;xForce1 -->
<g id="edge14" class="edge">
<title>angleIM2&#45;&gt;xForce1</title>
<path fill="none" stroke="black" d="M233.8,-143.7C242.6,-135.14 253.38,-124.66 263,-115.3"/>
<polygon fill="black" stroke="black" points="265.68,-117.58 270.41,-108.1 260.8,-112.57 265.68,-117.58"/>
</g>
<!-- yForce1 -->
<g id="node10" class="node">
<title>yForce1</title>
<polygon fill="palegreen" stroke="black" points="457.5,-108 356.5,-108 356.5,-72 457.5,-72 457.5,-108"/>
<text text-anchor="middle" x="407" y="-86.3" font-family="Times,serif" font-size="14.00">GD:yForce1</text>
</g>
<!-- angleIM2&#45;&gt;yForce1 -->
<g id="edge15" class="edge">
<title>angleIM2&#45;&gt;yForce1</title>
<path fill="none" stroke="black" d="M262.72,-143.88C289.3,-134.14 322.76,-121.87 350.77,-111.61"/>
<polygon fill="black" stroke="black" points="352.24,-114.8 360.43,-108.07 349.83,-108.22 352.24,-114.8"/>
</g>
<!-- xForce2 -->
<g id="node11" class="node">
<title>xForce2</title>
<polygon fill="palegreen" stroke="black" points="576.5,-108 475.5,-108 475.5,-72 576.5,-72 576.5,-108"/>
<text text-anchor="middle" x="526" y="-86.3" font-family="Times,serif" font-size="14.00">GD:xForce2</text>
</g>
<!-- angleIM2&#45;&gt;xForce2 -->
<g id="edge16" class="edge">
<title>angleIM2&#45;&gt;xForce2</title>
<path fill="none" stroke="black" d="M279.73,-148.87C328.25,-139.33 396.89,-125.19 465.15,-108.38"/>
<polygon fill="black" stroke="black" points="466.35,-111.69 475.21,-105.89 464.67,-104.9 466.35,-111.69"/>
</g>
<!-- yForce2 -->
<g id="node12" class="node">
<title>yForce2</title>
<polygon fill="palegreen" stroke="black" points="695.5,-108 594.5,-108 594.5,-72 695.5,-72 695.5,-108"/>
<text text-anchor="middle" x="645" y="-86.3" font-family="Times,serif" font-size="14.00">GD:yForce2</text>
</g>
<!-- angleIM2&#45;&gt;yForce2 -->
<g id="edge17" class="edge">
<title>angleIM2&#45;&gt;yForce2</title>
<path fill="none" stroke="black" d="M279.56,-148.65C288.75,-147.01 298.11,-145.4 307,-144 427.24,-125.03 461.77,-132.93 584.14,-108.23"/>
<polygon fill="black" stroke="black" points="585.18,-111.59 594.27,-106.15 583.77,-104.73 585.18,-111.59"/>
</g>
<!-- acceleration -->
<g id="node13" class="node">
<title>acceleration</title>
<polygon fill="#bbffff" stroke="black" points="956,-36 792,-36 792,0 956,0 956,-36"/>
<text text-anchor="middle" x="874" y="-14.3" font-family="Times,serif" font-size="14.00">DD:accelerationGDD</text>
</g>
<!-- force -->
<g id="node14" class="node">
<title>force</title>
<polygon fill="#bbffff" stroke="black" points="1087.5,-36 974.5,-36 974.5,0 1087.5,0 1087.5,-36"/>
<text text-anchor="middle" x="1031" y="-14.3" font-family="Times,serif" font-size="14.00">DD:forceGDD</text>
</g>
<!-- accelerationTM -->
<g id="node15" class="node">
<title>accelerationTM</title>
<polygon fill="pink" stroke="black" points="591.5,-180 460.5,-180 460.5,-144 591.5,-144 591.5,-180"/>
<text text-anchor="middle" x="526" y="-158.3" font-family="Times,serif" font-size="14.00">TM:acceleration</text>
</g>
<!-- velocityTM -->
<g id="node16" class="node">
<title>velocityTM</title>
<polygon fill="pink" stroke="black" points="710,-180 610,-180 610,-144 710,-144 710,-180"/>
<text text-anchor="middle" x="660" y="-158.3" font-family="Times,serif" font-size="14.00">TM:velocity</text>
</g>
<!-- newtonSL -->
<g id="node17" class="node">
<title>newtonSL</title>
<polygon fill="pink" stroke="black" points="911.5,-180 728.5,-180 728.5,-144 911.5,-144 911.5,-180"/>
<text text-anchor="middle" x="820" y="-158.3" font-family="Times,serif" font-size="14.00">TM:NewtonSecLawMot</text>
</g>
</g>
</svg>
