<?xml version="1.0" encoding="UTF-8" standalone="no"?>
<!DOCTYPE svg PUBLIC "-//W3C//DTD SVG 1.1//EN"
 "http://www.w3.org/Graphics/SVG/1.1/DTD/svg11.dtd">
<!-- Generated by graphviz version 2.43.0 (0)
 -->
<!-- Title: avsall Pages: 1 -->
<svg width="4558pt" height="44pt"
 viewBox="0.00 0.00 4558.00 44.00" xmlns="http://www.w3.org/2000/svg" xmlns:xlink="http://www.w3.org/1999/xlink">
<g id="graph0" class="graph" transform="scale(1 1) rotate(0) translate(4 40)">
<title>avsall</title>
<polygon fill="white" stroke="transparent" points="-4,4 -4,-40 4554,-40 4554,4 -4,4"/>
<!-- pend2DMotion -->
<g id="node1" class="node">
<title>pend2DMotion</title>
<polygon fill="mistyrose" stroke="black" points="137,-36 0,-36 0,0 137,0 137,-36"/>
<text text-anchor="middle" x="68.5" y="-14.3" font-family="Times,serif" font-size="14.00">A:pend2DMotion</text>
</g>
<!-- cartCoord -->
<g id="node2" class="node">
<title>cartCoord</title>
<polygon fill="mistyrose" stroke="black" points="257.5,-36 155.5,-36 155.5,0 257.5,0 257.5,-36"/>
<text text-anchor="middle" x="206.5" y="-14.3" font-family="Times,serif" font-size="14.00">A:cartCoord</text>
</g>
<!-- cartCoordRight -->
<g id="node3" class="node">
<title>cartCoordRight</title>
<polygon fill="mistyrose" stroke="black" points="417,-36 276,-36 276,0 417,0 417,-36"/>
<text text-anchor="middle" x="346.5" y="-14.3" font-family="Times,serif" font-size="14.00">A:cartCoordRight</text>
</g>
<!-- yAxisDir -->
<g id="node4" class="node">
<title>yAxisDir</title>
<polygon fill="mistyrose" stroke="black" points="527.5,-36 435.5,-36 435.5,0 527.5,0 527.5,-36"/>
<text text-anchor="middle" x="481.5" y="-14.3" font-family="Times,serif" font-size="14.00">A:yAxisDir</text>
</g>
<!-- startOrigin -->
<g id="node5" class="node">
<title>startOrigin</title>
<polygon fill="mistyrose" stroke="black" points="655.5,-36 545.5,-36 545.5,0 655.5,0 655.5,-36"/>
<text text-anchor="middle" x="600.5" y="-14.3" font-family="Times,serif" font-size="14.00">A:startOrigin</text>
</g>
<!-- ixPos -->
<g id="node6" class="node">
<title>ixPos</title>
<polygon fill="#bbffff" stroke="black" points="789.5,-36 673.5,-36 673.5,0 789.5,0 789.5,-36"/>
<text text-anchor="middle" x="731.5" y="-14.3" font-family="Times,serif" font-size="14.00">DD:positionIX</text>
</g>
<!-- iyPos -->
<g id="node7" class="node">
<title>iyPos</title>
<polygon fill="#bbffff" stroke="black" points="923,-36 808,-36 808,0 923,0 923,-36"/>
<text text-anchor="middle" x="865.5" y="-14.3" font-family="Times,serif" font-size="14.00">DD:positionIY</text>
</g>
<!-- frequency -->
<g id="node8" class="node">
<title>frequency</title>
<polygon fill="#bbffff" stroke="black" points="1078,-36 941,-36 941,0 1078,0 1078,-36"/>
<text text-anchor="middle" x="1009.5" y="-14.3" font-family="Times,serif" font-size="14.00">DD:frequencyDD</text>
</g>
<!-- angularFrequency -->
<g id="node9" class="node">
<title>angularFrequency</title>
<polygon fill="#bbffff" stroke="black" points="1264.5,-36 1096.5,-36 1096.5,0 1264.5,0 1264.5,-36"/>
<text text-anchor="middle" x="1180.5" y="-14.3" font-family="Times,serif" font-size="14.00">DD:angFrequencyDD</text>
</g>
<!-- period -->
<g id="node10" class="node">
<title>period</title>
<polygon fill="#bbffff" stroke="black" points="1430.5,-36 1282.5,-36 1282.5,0 1430.5,0 1430.5,-36"/>
<text text-anchor="middle" x="1356.5" y="-14.3" font-family="Times,serif" font-size="14.00">DD:periodSHMDD</text>
</g>
<!-- accelerationTM -->
<g id="node11" class="node">
<title>accelerationTM</title>
<polygon fill="pink" stroke="black" points="1580,-36 1449,-36 1449,0 1580,0 1580,-36"/>
<text text-anchor="middle" x="1514.5" y="-14.3" font-family="Times,serif" font-size="14.00">TM:acceleration</text>
</g>
<!-- velocityTM -->
<g id="node12" class="node">
<title>velocityTM</title>
<polygon fill="pink" stroke="black" points="1698.5,-36 1598.5,-36 1598.5,0 1698.5,0 1698.5,-36"/>
<text text-anchor="middle" x="1648.5" y="-14.3" font-family="Times,serif" font-size="14.00">TM:velocity</text>
</g>
<!-- newtonSL -->
<g id="node13" class="node">
<title>newtonSL</title>
<polygon fill="pink" stroke="black" points="1900,-36 1717,-36 1717,0 1900,0 1900,-36"/>
<text text-anchor="middle" x="1808.5" y="-14.3" font-family="Times,serif" font-size="14.00">TM:NewtonSecLawMot</text>
</g>
<!-- newtonSLR -->
<g id="node14" class="node">
<title>newtonSLR</title>
<polygon fill="pink" stroke="black" points="2126.5,-36 1918.5,-36 1918.5,0 2126.5,0 2126.5,-36"/>
<text text-anchor="middle" x="2022.5" y="-14.3" font-family="Times,serif" font-size="14.00">TM:NewtonSecLawRotMot</text>
</g>
<!-- xVel -->
<g id="node15" class="node">
<title>xVel</title>
<polygon fill="palegreen" stroke="black" points="2258.5,-36 2144.5,-36 2144.5,0 2258.5,0 2258.5,-36"/>
<text text-anchor="middle" x="2201.5" y="-14.3" font-family="Times,serif" font-size="14.00">GD:velocityIX</text>
</g>
<!-- yVel -->
<g id="node16" class="node">
<title>yVel</title>
<polygon fill="palegreen" stroke="black" points="2390,-36 2277,-36 2277,0 2390,0 2390,-36"/>
<text text-anchor="middle" x="2333.5" y="-14.3" font-family="Times,serif" font-size="14.00">GD:velocityIY</text>
</g>
<!-- xScalAcc -->
<g id="node17" class="node">
<title>xScalAcc</title>
<polygon fill="palegreen" stroke="black" points="2554.5,-36 2408.5,-36 2408.5,0 2554.5,0 2554.5,-36"/>
<text text-anchor="middle" x="2481.5" y="-14.3" font-family="Times,serif" font-size="14.00">GD:accelerationIX</text>
</g>
<!-- yScalAcc -->
<g id="node18" class="node">
<title>yScalAcc</title>
<polygon fill="palegreen" stroke="black" points="2718,-36 2573,-36 2573,0 2718,0 2718,-36"/>
<text text-anchor="middle" x="2645.5" y="-14.3" font-family="Times,serif" font-size="14.00">GD:accelerationIY</text>
</g>
<!-- hForceOnPendulum -->
<g id="node19" class="node">
<title>hForceOnPendulum</title>
<polygon fill="palegreen" stroke="black" points="2920.5,-36 2736.5,-36 2736.5,0 2920.5,0 2920.5,-36"/>
<text text-anchor="middle" x="2828.5" y="-14.3" font-family="Times,serif" font-size="14.00">GD:hForceOnPendulum</text>
</g>
<!-- vForceOnPendulum -->
<g id="node20" class="node">
<title>vForceOnPendulum</title>
<polygon fill="palegreen" stroke="black" points="3122,-36 2939,-36 2939,0 3122,0 3122,-36"/>
<text text-anchor="middle" x="3030.5" y="-14.3" font-family="Times,serif" font-size="14.00">GD:vForceOnPendulum</text>
</g>
<!-- angFrequencyGD -->
<g id="node21" class="node">
<title>angFrequencyGD</title>
<polygon fill="palegreen" stroke="black" points="3308.5,-36 3140.5,-36 3140.5,0 3308.5,0 3308.5,-36"/>
<text text-anchor="middle" x="3224.5" y="-14.3" font-family="Times,serif" font-size="14.00">GD:angFrequencyGD</text>
</g>
<!-- periodPendGD -->
<g id="node22" class="node">
<title>periodPendGD</title>
<polygon fill="palegreen" stroke="black" points="3451,-36 3326,-36 3326,0 3451,0 3451,-36"/>
<text text-anchor="middle" x="3388.5" y="-14.3" font-family="Times,serif" font-size="14.00">GD:periodPend</text>
</g>
<!-- angularDisplacementRC -->
<g id="node23" class="node">
<title>angularDisplacementRC</title>
<polygon fill="#fff68f" stroke="black" points="3700,-36 3469,-36 3469,0 3700,0 3700,-36"/>
<text text-anchor="middle" x="3584.5" y="-14.3" font-family="Times,serif" font-size="14.00">IM:calOfAngularDisplacement</text>
</g>
<!-- inputValues -->
<g id="node24" class="node">
<title>inputValues</title>
<polygon fill="ivory" stroke="black" points="3843,-36 3718,-36 3718,0 3843,0 3843,-36"/>
<text text-anchor="middle" x="3780.5" y="-14.3" font-family="Times,serif" font-size="14.00">FR:inputValues</text>
</g>
<!-- verifyInptVals -->
<g id="node25" class="node">
<title>verifyInptVals</title>
<polygon fill="ivory" stroke="black" points="4002,-36 3861,-36 3861,0 4002,0 4002,-36"/>
<text text-anchor="middle" x="3931.5" y="-14.3" font-family="Times,serif" font-size="14.00">FR:verifyInptVals</text>
</g>
<!-- calcAngPos -->
<g id="node26" class="node">
<title>calcAngPos</title>
<polygon fill="ivory" stroke="black" points="4142.5,-36 4020.5,-36 4020.5,0 4142.5,0 4142.5,-36"/>
<text text-anchor="middle" x="4081.5" y="-14.3" font-family="Times,serif" font-size="14.00">FR:calcAngPos</text>
</g>
<!-- outputValues -->
<g id="node27" class="node">
<title>outputValues</title>
<polygon fill="ivory" stroke="black" points="4296,-36 4161,-36 4161,0 4296,0 4296,-36"/>
<text text-anchor="middle" x="4228.5" y="-14.3" font-family="Times,serif" font-size="14.00">FR:outputValues</text>
</g>
<!-- correct -->
<g id="node28" class="node">
<title>correct</title>
<polygon fill="ivory" stroke="black" points="4418.5,-36 4314.5,-36 4314.5,0 4418.5,0 4418.5,-36"/>
<text text-anchor="middle" x="4366.5" y="-14.3" font-family="Times,serif" font-size="14.00">NFR:correct</text>
</g>
<!-- portable -->
<g id="node29" class="node">
<title>portable</title>
<polygon fill="ivory" stroke="black" points="4550,-36 4437,-36 4437,0 4550,0 4550,-36"/>
<text text-anchor="middle" x="4493.5" y="-14.3" font-family="Times,serif" font-size="14.00">NFR:portable</text>
</g>
</g>
</svg>
