<?xml version="1.0" encoding="UTF-8" standalone="no"?>
<!DOCTYPE svg PUBLIC "-//W3C//DTD SVG 1.1//EN"
 "http://www.w3.org/Graphics/SVG/1.1/DTD/svg11.dtd">
<!-- Generated by graphviz version 2.43.0 (0)
 -->
<!-- Title: avsall Pages: 1 -->
<svg width="5440pt" height="44pt"
 viewBox="0.00 0.00 5440.00 44.00" xmlns="http://www.w3.org/2000/svg" xmlns:xlink="http://www.w3.org/1999/xlink">
<g id="graph0" class="graph" transform="scale(1 1) rotate(0) translate(4 40)">
<title>avsall</title>
<polygon fill="white" stroke="transparent" points="-4,4 -4,-40 5436,-40 5436,4 -4,4"/>
<!-- twoDMotion -->
<g id="node1" class="node">
<title>twoDMotion</title>
<polygon fill="mistyrose" stroke="black" points="119,-36 0,-36 0,0 119,0 119,-36"/>
<text text-anchor="middle" x="59.5" y="-14.3" font-family="Times,serif" font-size="14.00">A:twoDMotion</text>
</g>
<!-- cartSys -->
<g id="node2" class="node">
<title>cartSys</title>
<polygon fill="mistyrose" stroke="black" points="222,-36 137,-36 137,0 222,0 222,-36"/>
<text text-anchor="middle" x="179.5" y="-14.3" font-family="Times,serif" font-size="14.00">A:cartSys</text>
</g>
<!-- cartSysR -->
<g id="node3" class="node">
<title>cartSysR</title>
<polygon fill="mistyrose" stroke="black" points="335,-36 240,-36 240,0 335,0 335,-36"/>
<text text-anchor="middle" x="287.5" y="-14.3" font-family="Times,serif" font-size="14.00">A:cartSysR</text>
</g>
<!-- yAxisDir -->
<g id="node4" class="node">
<title>yAxisDir</title>
<polygon fill="mistyrose" stroke="black" points="445.5,-36 353.5,-36 353.5,0 445.5,0 445.5,-36"/>
<text text-anchor="middle" x="399.5" y="-14.3" font-family="Times,serif" font-size="14.00">A:yAxisDir</text>
</g>
<!-- startOrigin -->
<g id="node5" class="node">
<title>startOrigin</title>
<polygon fill="mistyrose" stroke="black" points="573.5,-36 463.5,-36 463.5,0 573.5,0 573.5,-36"/>
<text text-anchor="middle" x="518.5" y="-14.3" font-family="Times,serif" font-size="14.00">A:startOrigin</text>
</g>
<!-- firstPend -->
<g id="node6" class="node">
<title>firstPend</title>
<polygon fill="mistyrose" stroke="black" points="687,-36 592,-36 592,0 687,0 687,-36"/>
<text text-anchor="middle" x="639.5" y="-14.3" font-family="Times,serif" font-size="14.00">A:firstPend</text>
</g>
<!-- secondPend -->
<g id="node7" class="node">
<title>secondPend</title>
<polygon fill="mistyrose" stroke="black" points="821.5,-36 705.5,-36 705.5,0 821.5,0 821.5,-36"/>
<text text-anchor="middle" x="763.5" y="-14.3" font-family="Times,serif" font-size="14.00">A:secondPend</text>
</g>
<!-- velocity -->
<g id="node8" class="node">
<title>velocity</title>
<polygon fill="#bbffff" stroke="black" points="973.5,-36 839.5,-36 839.5,0 973.5,0 973.5,-36"/>
<text text-anchor="middle" x="906.5" y="-14.3" font-family="Times,serif" font-size="14.00">DD:positionGDD</text>
</g>
<!-- p_x1 -->
<g id="node9" class="node">
<title>p_x1</title>
<polygon fill="#bbffff" stroke="black" points="1133.5,-36 991.5,-36 991.5,0 1133.5,0 1133.5,-36"/>
<text text-anchor="middle" x="1062.5" y="-14.3" font-family="Times,serif" font-size="14.00">DD:positionXDD1</text>
</g>
<!-- p_y1 -->
<g id="node10" class="node">
<title>p_y1</title>
<polygon fill="#bbffff" stroke="black" points="1293,-36 1152,-36 1152,0 1293,0 1293,-36"/>
<text text-anchor="middle" x="1222.5" y="-14.3" font-family="Times,serif" font-size="14.00">DD:positionYDD1</text>
</g>
<!-- p_x2 -->
<g id="node11" class="node">
<title>p_x2</title>
<polygon fill="#bbffff" stroke="black" points="1453.5,-36 1311.5,-36 1311.5,0 1453.5,0 1453.5,-36"/>
<text text-anchor="middle" x="1382.5" y="-14.3" font-family="Times,serif" font-size="14.00">DD:positionXDD2</text>
</g>
<!-- p_y2 -->
<g id="node12" class="node">
<title>p_y2</title>
<polygon fill="#bbffff" stroke="black" points="1613,-36 1472,-36 1472,0 1613,0 1613,-36"/>
<text text-anchor="middle" x="1542.5" y="-14.3" font-family="Times,serif" font-size="14.00">DD:positionYDD2</text>
</g>
<!-- acceleration -->
<g id="node13" class="node">
<title>acceleration</title>
<polygon fill="#bbffff" stroke="black" points="1795.5,-36 1631.5,-36 1631.5,0 1795.5,0 1795.5,-36"/>
<text text-anchor="middle" x="1713.5" y="-14.3" font-family="Times,serif" font-size="14.00">DD:accelerationGDD</text>
</g>
<!-- force -->
<g id="node14" class="node">
<title>force</title>
<polygon fill="#bbffff" stroke="black" points="1927,-36 1814,-36 1814,0 1927,0 1927,-36"/>
<text text-anchor="middle" x="1870.5" y="-14.3" font-family="Times,serif" font-size="14.00">DD:forceGDD</text>
</g>
<!-- accelerationTM -->
<g id="node15" class="node">
<title>accelerationTM</title>
<polygon fill="pink" stroke="black" points="2076,-36 1945,-36 1945,0 2076,0 2076,-36"/>
<text text-anchor="middle" x="2010.5" y="-14.3" font-family="Times,serif" font-size="14.00">TM:acceleration</text>
</g>
<!-- velocityTM -->
<g id="node16" class="node">
<title>velocityTM</title>
<polygon fill="pink" stroke="black" points="2194.5,-36 2094.5,-36 2094.5,0 2194.5,0 2194.5,-36"/>
<text text-anchor="middle" x="2144.5" y="-14.3" font-family="Times,serif" font-size="14.00">TM:velocity</text>
</g>
<!-- newtonSL -->
<g id="node17" class="node">
<title>newtonSL</title>
<polygon fill="pink" stroke="black" points="2396,-36 2213,-36 2213,0 2396,0 2396,-36"/>
<text text-anchor="middle" x="2304.5" y="-14.3" font-family="Times,serif" font-size="14.00">TM:NewtonSecLawMot</text>
</g>
<!-- v_x1 -->
<g id="node18" class="node">
<title>v_x1</title>
<polygon fill="palegreen" stroke="black" points="2532.5,-36 2414.5,-36 2414.5,0 2532.5,0 2532.5,-36"/>
<text text-anchor="middle" x="2473.5" y="-14.3" font-family="Times,serif" font-size="14.00">GD:velocityX1</text>
</g>
<!-- v_y1 -->
<g id="node19" class="node">
<title>v_y1</title>
<polygon fill="palegreen" stroke="black" points="2668,-36 2551,-36 2551,0 2668,0 2668,-36"/>
<text text-anchor="middle" x="2609.5" y="-14.3" font-family="Times,serif" font-size="14.00">GD:velocityY1</text>
</g>
<!-- v_x2 -->
<g id="node20" class="node">
<title>v_x2</title>
<polygon fill="palegreen" stroke="black" points="2804.5,-36 2686.5,-36 2686.5,0 2804.5,0 2804.5,-36"/>
<text text-anchor="middle" x="2745.5" y="-14.3" font-family="Times,serif" font-size="14.00">GD:velocityX2</text>
</g>
<!-- v_y2 -->
<g id="node21" class="node">
<title>v_y2</title>
<polygon fill="palegreen" stroke="black" points="2940,-36 2823,-36 2823,0 2940,0 2940,-36"/>
<text text-anchor="middle" x="2881.5" y="-14.3" font-family="Times,serif" font-size="14.00">GD:velocityY2</text>
</g>
<!-- a_x1 -->
<g id="node22" class="node">
<title>a_x1</title>
<polygon fill="palegreen" stroke="black" points="3107,-36 2958,-36 2958,0 3107,0 3107,-36"/>
<text text-anchor="middle" x="3032.5" y="-14.3" font-family="Times,serif" font-size="14.00">GD:accelerationX1</text>
</g>
<!-- a_y1 -->
<g id="node23" class="node">
<title>a_y1</title>
<polygon fill="palegreen" stroke="black" points="3274,-36 3125,-36 3125,0 3274,0 3274,-36"/>
<text text-anchor="middle" x="3199.5" y="-14.3" font-family="Times,serif" font-size="14.00">GD:accelerationY1</text>
</g>
<!-- a_x2 -->
<g id="node24" class="node">
<title>a_x2</title>
<polygon fill="palegreen" stroke="black" points="3441,-36 3292,-36 3292,0 3441,0 3441,-36"/>
<text text-anchor="middle" x="3366.5" y="-14.3" font-family="Times,serif" font-size="14.00">GD:accelerationX2</text>
</g>
<!-- a_y2 -->
<g id="node25" class="node">
<title>a_y2</title>
<polygon fill="palegreen" stroke="black" points="3608,-36 3459,-36 3459,0 3608,0 3608,-36"/>
<text text-anchor="middle" x="3533.5" y="-14.3" font-family="Times,serif" font-size="14.00">GD:accelerationY2</text>
</g>
<!-- xForce1 -->
<g id="node26" class="node">
<title>xForce1</title>
<polygon fill="palegreen" stroke="black" points="3727,-36 3626,-36 3626,0 3727,0 3727,-36"/>
<text text-anchor="middle" x="3676.5" y="-14.3" font-family="Times,serif" font-size="14.00">GD:xForce1</text>
</g>
<!-- yForce1 -->
<g id="node27" class="node">
<title>yForce1</title>
<polygon fill="palegreen" stroke="black" points="3846,-36 3745,-36 3745,0 3846,0 3846,-36"/>
<text text-anchor="middle" x="3795.5" y="-14.3" font-family="Times,serif" font-size="14.00">GD:yForce1</text>
</g>
<!-- xForce2 -->
<g id="node28" class="node">
<title>xForce2</title>
<polygon fill="palegreen" stroke="black" points="3965,-36 3864,-36 3864,0 3965,0 3965,-36"/>
<text text-anchor="middle" x="3914.5" y="-14.3" font-family="Times,serif" font-size="14.00">GD:xForce2</text>
</g>
<!-- yForce2 -->
<g id="node29" class="node">
<title>yForce2</title>
<polygon fill="palegreen" stroke="black" points="4084,-36 3983,-36 3983,0 4084,0 4084,-36"/>
<text text-anchor="middle" x="4033.5" y="-14.3" font-family="Times,serif" font-size="14.00">GD:yForce2</text>
</g>
<!-- angularAccelerationIM1 -->
<g id="node30" class="node">
<title>angularAccelerationIM1</title>
<polygon fill="#fff68f" stroke="black" points="4333,-36 4102,-36 4102,0 4333,0 4333,-36"/>
<text text-anchor="middle" x="4217.5" y="-14.3" font-family="Times,serif" font-size="14.00">IM:calOfAngularAcceleration1</text>
</g>
<!-- angularAccelerationIM2 -->
<g id="node31" class="node">
<title>angularAccelerationIM2</title>
<polygon fill="#fff68f" stroke="black" points="4582,-36 4351,-36 4351,0 4582,0 4582,-36"/>
<text text-anchor="middle" x="4466.5" y="-14.3" font-family="Times,serif" font-size="14.00">IM:calOfAngularAcceleration2</text>
</g>
<!-- inputValues -->
<g id="node32" class="node">
<title>inputValues</title>
<polygon fill="ivory" stroke="black" points="4725,-36 4600,-36 4600,0 4725,0 4725,-36"/>
<text text-anchor="middle" x="4662.5" y="-14.3" font-family="Times,serif" font-size="14.00">FR:inputValues</text>
</g>
<!-- verifyInptVals -->
<g id="node33" class="node">
<title>verifyInptVals</title>
<polygon fill="ivory" stroke="black" points="4884,-36 4743,-36 4743,0 4884,0 4884,-36"/>
<text text-anchor="middle" x="4813.5" y="-14.3" font-family="Times,serif" font-size="14.00">FR:verifyInptVals</text>
</g>
<!-- calcAngPos -->
<g id="node34" class="node">
<title>calcAngPos</title>
<polygon fill="ivory" stroke="black" points="5024.5,-36 4902.5,-36 4902.5,0 5024.5,0 5024.5,-36"/>
<text text-anchor="middle" x="4963.5" y="-14.3" font-family="Times,serif" font-size="14.00">FR:calcAngPos</text>
</g>
<!-- outputValues -->
<g id="node35" class="node">
<title>outputValues</title>
<polygon fill="ivory" stroke="black" points="5178,-36 5043,-36 5043,0 5178,0 5178,-36"/>
<text text-anchor="middle" x="5110.5" y="-14.3" font-family="Times,serif" font-size="14.00">FR:outputValues</text>
</g>
<!-- correct -->
<g id="node36" class="node">
<title>correct</title>
<polygon fill="ivory" stroke="black" points="5300.5,-36 5196.5,-36 5196.5,0 5300.5,0 5300.5,-36"/>
<text text-anchor="middle" x="5248.5" y="-14.3" font-family="Times,serif" font-size="14.00">NFR:correct</text>
</g>
<!-- portable -->
<g id="node37" class="node">
<title>portable</title>
<polygon fill="ivory" stroke="black" points="5432,-36 5319,-36 5319,0 5432,0 5432,-36"/>
<text text-anchor="middle" x="5375.5" y="-14.3" font-family="Times,serif" font-size="14.00">NFR:portable</text>
</g>
</g>
</svg>
