<?xml version="1.0" encoding="UTF-8" standalone="no"?>
<!DOCTYPE svg PUBLIC "-//W3C//DTD SVG 1.1//EN"
 "http://www.w3.org/Graphics/SVG/1.1/DTD/svg11.dtd">
<!-- Generated by graphviz version 2.43.0 (0)
 -->
<!-- Title: refvsref Pages: 1 -->
<svg width="2241pt" height="188pt"
 viewBox="0.00 0.00 2241.00 188.00" xmlns="http://www.w3.org/2000/svg" xmlns:xlink="http://www.w3.org/1999/xlink">
<g id="graph0" class="graph" transform="scale(1 1) rotate(0) translate(4 184)">
<title>refvsref</title>
<polygon fill="white" stroke="transparent" points="-4,4 -4,-184 2237,-184 2237,4 -4,4"/>
<!-- v_x1 -->
<g id="node1" class="node">
<title>v_x1</title>
<polygon fill="palegreen" stroke="black" points="716.5,-108 598.5,-108 598.5,-72 716.5,-72 716.5,-108"/>
<text text-anchor="middle" x="657.5" y="-86.3" font-family="Times,serif" font-size="14.00">GD:velocityX1</text>
</g>
<!-- velocity -->
<g id="node2" class="node">
<title>velocity</title>
<polygon fill="#bbffff" stroke="black" points="453.5,-36 319.5,-36 319.5,0 453.5,0 453.5,-36"/>
<text text-anchor="middle" x="386.5" y="-14.3" font-family="Times,serif" font-size="14.00">DD:positionGDD</text>
</g>
<!-- v_x1&#45;&gt;velocity -->
<g id="edge1" class="edge">
<title>v_x1&#45;&gt;velocity</title>
<path fill="none" stroke="black" d="M598.36,-73.72C558.48,-63.42 505.51,-49.74 462.5,-38.63"/>
<polygon fill="black" stroke="black" points="463.2,-35.2 452.65,-36.09 461.45,-41.98 463.2,-35.2"/>
</g>
<!-- p_x1 -->
<g id="node3" class="node">
<title>p_x1</title>
<polygon fill="#bbffff" stroke="black" points="773.5,-36 631.5,-36 631.5,0 773.5,0 773.5,-36"/>
<text text-anchor="middle" x="702.5" y="-14.3" font-family="Times,serif" font-size="14.00">DD:positionXDD1</text>
</g>
<!-- v_x1&#45;&gt;p_x1 -->
<g id="edge2" class="edge">
<title>v_x1&#45;&gt;p_x1</title>
<path fill="none" stroke="black" d="M668.62,-71.7C673.86,-63.56 680.2,-53.69 685.98,-44.7"/>
<polygon fill="black" stroke="black" points="689.04,-46.41 691.5,-36.1 683.15,-42.62 689.04,-46.41"/>
</g>
<!-- v_y1 -->
<g id="node4" class="node">
<title>v_y1</title>
<polygon fill="palegreen" stroke="black" points="151,-108 34,-108 34,-72 151,-72 151,-108"/>
<text text-anchor="middle" x="92.5" y="-86.3" font-family="Times,serif" font-size="14.00">GD:velocityY1</text>
</g>
<!-- v_y1&#45;&gt;velocity -->
<g id="edge3" class="edge">
<title>v_y1&#45;&gt;velocity</title>
<path fill="none" stroke="black" d="M151.29,-75C196.67,-64.2 259.86,-49.15 309.32,-37.38"/>
<polygon fill="black" stroke="black" points="310.41,-40.71 319.33,-34.99 308.79,-33.9 310.41,-40.71"/>
</g>
<!-- p_y1 -->
<g id="node5" class="node">
<title>p_y1</title>
<polygon fill="#bbffff" stroke="black" points="141,-36 0,-36 0,0 141,0 141,-36"/>
<text text-anchor="middle" x="70.5" y="-14.3" font-family="Times,serif" font-size="14.00">DD:positionYDD1</text>
</g>
<!-- v_y1&#45;&gt;p_y1 -->
<g id="edge4" class="edge">
<title>v_y1&#45;&gt;p_y1</title>
<path fill="none" stroke="black" d="M87.06,-71.7C84.61,-63.9 81.66,-54.51 78.93,-45.83"/>
<polygon fill="black" stroke="black" points="82.21,-44.59 75.88,-36.1 75.54,-46.69 82.21,-44.59"/>
</g>
<!-- v_x2 -->
<g id="node6" class="node">
<title>v_x2</title>
<polygon fill="palegreen" stroke="black" points="299.5,-108 181.5,-108 181.5,-72 299.5,-72 299.5,-108"/>
<text text-anchor="middle" x="240.5" y="-86.3" font-family="Times,serif" font-size="14.00">GD:velocityX2</text>
</g>
<!-- v_x2&#45;&gt;velocity -->
<g id="edge5" class="edge">
<title>v_x2&#45;&gt;velocity</title>
<path fill="none" stroke="black" d="M276.22,-71.88C296,-62.39 320.77,-50.51 341.83,-40.42"/>
<polygon fill="black" stroke="black" points="343.4,-43.55 350.9,-36.07 340.37,-37.24 343.4,-43.55"/>
</g>
<!-- p_x2 -->
<g id="node7" class="node">
<title>p_x2</title>
<polygon fill="#bbffff" stroke="black" points="301.5,-36 159.5,-36 159.5,0 301.5,0 301.5,-36"/>
<text text-anchor="middle" x="230.5" y="-14.3" font-family="Times,serif" font-size="14.00">DD:positionXDD2</text>
</g>
<!-- v_x2&#45;&gt;p_x2 -->
<g id="edge6" class="edge">
<title>v_x2&#45;&gt;p_x2</title>
<path fill="none" stroke="black" d="M238.03,-71.7C236.93,-63.98 235.6,-54.71 234.37,-46.11"/>
<polygon fill="black" stroke="black" points="237.82,-45.51 232.94,-36.1 230.89,-46.5 237.82,-45.51"/>
</g>
<!-- v_y2 -->
<g id="node8" class="node">
<title>v_y2</title>
<polygon fill="palegreen" stroke="black" points="490,-108 373,-108 373,-72 490,-72 490,-108"/>
<text text-anchor="middle" x="431.5" y="-86.3" font-family="Times,serif" font-size="14.00">GD:velocityY2</text>
</g>
<!-- v_y2&#45;&gt;velocity -->
<g id="edge7" class="edge">
<title>v_y2&#45;&gt;velocity</title>
<path fill="none" stroke="black" d="M420.38,-71.7C415.14,-63.56 408.8,-53.69 403.02,-44.7"/>
<polygon fill="black" stroke="black" points="405.85,-42.62 397.5,-36.1 399.96,-46.41 405.85,-42.62"/>
</g>
<!-- p_y2 -->
<g id="node9" class="node">
<title>p_y2</title>
<polygon fill="#bbffff" stroke="black" points="613,-36 472,-36 472,0 613,0 613,-36"/>
<text text-anchor="middle" x="542.5" y="-14.3" font-family="Times,serif" font-size="14.00">DD:positionYDD2</text>
</g>
<!-- v_y2&#45;&gt;p_y2 -->
<g id="edge8" class="edge">
<title>v_y2&#45;&gt;p_y2</title>
<path fill="none" stroke="black" d="M458.65,-71.88C473.03,-62.81 490.88,-51.55 506.41,-41.76"/>
<polygon fill="black" stroke="black" points="508.65,-44.48 515.24,-36.19 504.92,-38.56 508.65,-44.48"/>
</g>
<!-- angularAccelerationIM2 -->
<g id="node10" class="node">
<title>angularAccelerationIM2</title>
<polygon fill="#fff68f" stroke="black" points="1497,-180 1266,-180 1266,-144 1497,-144 1497,-180"/>
<text text-anchor="middle" x="1381.5" y="-158.3" font-family="Times,serif" font-size="14.00">IM:calOfAngularAcceleration2</text>
</g>
<!-- angularAccelerationIM2&#45;&gt;angularAccelerationIM2 -->
<g id="edge18" class="edge">
<title>angularAccelerationIM2&#45;&gt;angularAccelerationIM2</title>
<path fill="none" stroke="black" d="M1497.31,-172.82C1508.15,-170.6 1515,-166.99 1515,-162 1515,-158.72 1512.05,-156.04 1506.96,-153.96"/>
<polygon fill="black" stroke="black" points="1507.89,-150.59 1497.31,-151.18 1505.95,-157.31 1507.89,-150.59"/>
</g>
<!-- a_x1 -->
<g id="node11" class="node">
<title>a_x1</title>
<polygon fill="palegreen" stroke="black" points="884,-108 735,-108 735,-72 884,-72 884,-108"/>
<text text-anchor="middle" x="809.5" y="-86.3" font-family="Times,serif" font-size="14.00">GD:accelerationX1</text>
</g>
<!-- angularAccelerationIM2&#45;&gt;a_x1 -->
<g id="edge9" class="edge">
<title>angularAccelerationIM2&#45;&gt;a_x1</title>
<path fill="none" stroke="black" d="M1265.99,-151.57C1169.07,-142.94 1026.83,-128.59 894.05,-108.17"/>
<polygon fill="black" stroke="black" points="894.52,-104.7 884.1,-106.62 893.44,-111.62 894.52,-104.7"/>
</g>
<!-- a_y1 -->
<g id="node12" class="node">
<title>a_y1</title>
<polygon fill="palegreen" stroke="black" points="1051,-108 902,-108 902,-72 1051,-72 1051,-108"/>
<text text-anchor="middle" x="976.5" y="-86.3" font-family="Times,serif" font-size="14.00">GD:accelerationY1</text>
</g>
<!-- angularAccelerationIM2&#45;&gt;a_y1 -->
<g id="edge10" class="edge">
<title>angularAccelerationIM2&#45;&gt;a_y1</title>
<path fill="none" stroke="black" d="M1272.13,-143.94C1212.65,-134.43 1137.55,-122.03 1061.39,-108.13"/>
<polygon fill="black" stroke="black" points="1061.6,-104.61 1051.13,-106.25 1060.33,-111.49 1061.6,-104.61"/>
</g>
<!-- a_x2 -->
<g id="node13" class="node">
<title>a_x2</title>
<polygon fill="palegreen" stroke="black" points="1218,-108 1069,-108 1069,-72 1218,-72 1218,-108"/>
<text text-anchor="middle" x="1143.5" y="-86.3" font-family="Times,serif" font-size="14.00">GD:accelerationX2</text>
</g>
<!-- angularAccelerationIM2&#45;&gt;a_x2 -->
<g id="edge11" class="edge">
<title>angularAccelerationIM2&#45;&gt;a_x2</title>
<path fill="none" stroke="black" d="M1323.58,-143.97C1289.75,-134.01 1246.88,-121.41 1211.46,-110.99"/>
<polygon fill="black" stroke="black" points="1212.26,-107.57 1201.68,-108.11 1210.28,-114.29 1212.26,-107.57"/>
</g>
<!-- a_y2 -->
<g id="node14" class="node">
<title>a_y2</title>
<polygon fill="palegreen" stroke="black" points="1385,-108 1236,-108 1236,-72 1385,-72 1385,-108"/>
<text text-anchor="middle" x="1310.5" y="-86.3" font-family="Times,serif" font-size="14.00">GD:accelerationY2</text>
</g>
<!-- angularAccelerationIM2&#45;&gt;a_y2 -->
<g id="edge12" class="edge">
<title>angularAccelerationIM2&#45;&gt;a_y2</title>
<path fill="none" stroke="black" d="M1363.95,-143.7C1355.27,-135.14 1344.64,-124.66 1335.15,-115.3"/>
<polygon fill="black" stroke="black" points="1337.43,-112.63 1327.85,-108.1 1332.51,-117.62 1337.43,-112.63"/>
</g>
<!-- xForce1 -->
<g id="node15" class="node">
<title>xForce1</title>
<polygon fill="palegreen" stroke="black" points="1504,-108 1403,-108 1403,-72 1504,-72 1504,-108"/>
<text text-anchor="middle" x="1453.5" y="-86.3" font-family="Times,serif" font-size="14.00">GD:xForce1</text>
</g>
<!-- angularAccelerationIM2&#45;&gt;xForce1 -->
<g id="edge13" class="edge">
<title>angularAccelerationIM2&#45;&gt;xForce1</title>
<path fill="none" stroke="black" d="M1399.3,-143.7C1408.1,-135.14 1418.88,-124.66 1428.5,-115.3"/>
<polygon fill="black" stroke="black" points="1431.18,-117.58 1435.91,-108.1 1426.3,-112.57 1431.18,-117.58"/>
</g>
<!-- yForce1 -->
<g id="node16" class="node">
<title>yForce1</title>
<polygon fill="palegreen" stroke="black" points="1623,-108 1522,-108 1522,-72 1623,-72 1623,-108"/>
<text text-anchor="middle" x="1572.5" y="-86.3" font-family="Times,serif" font-size="14.00">GD:yForce1</text>
</g>
<!-- angularAccelerationIM2&#45;&gt;yForce1 -->
<g id="edge14" class="edge">
<title>angularAccelerationIM2&#45;&gt;yForce1</title>
<path fill="none" stroke="black" d="M1428.22,-143.88C1454.8,-134.14 1488.26,-121.87 1516.27,-111.61"/>
<polygon fill="black" stroke="black" points="1517.74,-114.8 1525.93,-108.07 1515.33,-108.22 1517.74,-114.8"/>
</g>
<!-- xForce2 -->
<g id="node17" class="node">
<title>xForce2</title>
<polygon fill="palegreen" stroke="black" points="1742,-108 1641,-108 1641,-72 1742,-72 1742,-108"/>
<text text-anchor="middle" x="1691.5" y="-86.3" font-family="Times,serif" font-size="14.00">GD:xForce2</text>
</g>
<!-- angularAccelerationIM2&#45;&gt;xForce2 -->
<g id="edge15" class="edge">
<title>angularAccelerationIM2&#45;&gt;xForce2</title>
<path fill="none" stroke="black" d="M1469.85,-143.97C1515.56,-134.78 1572.44,-122.74 1630.93,-108.32"/>
<polygon fill="black" stroke="black" points="1631.85,-111.69 1640.71,-105.89 1630.17,-104.9 1631.85,-111.69"/>
</g>
<!-- yForce2 -->
<g id="node18" class="node">
<title>yForce2</title>
<polygon fill="palegreen" stroke="black" points="1861,-108 1760,-108 1760,-72 1861,-72 1861,-108"/>
<text text-anchor="middle" x="1810.5" y="-86.3" font-family="Times,serif" font-size="14.00">GD:yForce2</text>
</g>
<!-- angularAccelerationIM2&#45;&gt;yForce2 -->
<g id="edge16" class="edge">
<title>angularAccelerationIM2&#45;&gt;yForce2</title>
<path fill="none" stroke="black" d="M1497.06,-146.22C1581.94,-135.05 1691.11,-119.95 1749.76,-108.18"/>
<polygon fill="black" stroke="black" points="1750.69,-111.57 1759.76,-106.1 1749.26,-104.71 1750.69,-111.57"/>
</g>
<!-- angularAccelerationIM1 -->
<g id="node19" class="node">
<title>angularAccelerationIM1</title>
<polygon fill="#fff68f" stroke="black" points="1764,-180 1533,-180 1533,-144 1764,-144 1764,-180"/>
<text text-anchor="middle" x="1648.5" y="-158.3" font-family="Times,serif" font-size="14.00">IM:calOfAngularAcceleration1</text>
</g>
<!-- angularAccelerationIM2&#45;&gt;angularAccelerationIM1 -->
<g id="edge17" class="edge">
<title>angularAccelerationIM2&#45;&gt;angularAccelerationIM1</title>
<path fill="none" stroke="black" d="M1497.01,-162C1505.59,-162 1514.16,-162 1522.74,-162"/>
<polygon fill="black" stroke="black" points="1522.81,-165.5 1532.81,-162 1522.81,-158.5 1522.81,-165.5"/>
</g>
<!-- acceleration -->
<g id="node20" class="node">
<title>acceleration</title>
<polygon fill="#bbffff" stroke="black" points="955.5,-36 791.5,-36 791.5,0 955.5,0 955.5,-36"/>
<text text-anchor="middle" x="873.5" y="-14.3" font-family="Times,serif" font-size="14.00">DD:accelerationGDD</text>
</g>
<!-- force -->
<g id="node21" class="node">
<title>force</title>
<polygon fill="#bbffff" stroke="black" points="1087,-36 974,-36 974,0 1087,0 1087,-36"/>
<text text-anchor="middle" x="1030.5" y="-14.3" font-family="Times,serif" font-size="14.00">DD:forceGDD</text>
</g>
<!-- accelerationTM -->
<g id="node22" class="node">
<title>accelerationTM</title>
<polygon fill="pink" stroke="black" points="1913,-180 1782,-180 1782,-144 1913,-144 1913,-180"/>
<text text-anchor="middle" x="1847.5" y="-158.3" font-family="Times,serif" font-size="14.00">TM:acceleration</text>
</g>
<!-- velocityTM -->
<g id="node23" class="node">
<title>velocityTM</title>
<polygon fill="pink" stroke="black" points="2031.5,-180 1931.5,-180 1931.5,-144 2031.5,-144 2031.5,-180"/>
<text text-anchor="middle" x="1981.5" y="-158.3" font-family="Times,serif" font-size="14.00">TM:velocity</text>
</g>
<!-- newtonSL -->
<g id="node24" class="node">
<title>newtonSL</title>
<polygon fill="pink" stroke="black" points="2233,-180 2050,-180 2050,-144 2233,-144 2233,-180"/>
<text text-anchor="middle" x="2141.5" y="-158.3" font-family="Times,serif" font-size="14.00">TM:NewtonSecLawMot</text>
</g>
</g>
</svg>
