<?xml version="1.0" encoding="UTF-8" standalone="no"?>
<!DOCTYPE svg PUBLIC "-//W3C//DTD SVG 1.1//EN"
 "http://www.w3.org/Graphics/SVG/1.1/DTD/svg11.dtd">
<!-- Generated by graphviz version 2.43.0 (0)
 -->
<!-- Title: refvsref Pages: 1 -->
<svg width="1616pt" height="188pt"
 viewBox="0.00 0.00 1615.50 188.00" xmlns="http://www.w3.org/2000/svg" xmlns:xlink="http://www.w3.org/1999/xlink">
<g id="graph0" class="graph" transform="scale(1 1) rotate(0) translate(4 184)">
<title>refvsref</title>
<polygon fill="white" stroke="transparent" points="-4,4 -4,-184 1611.5,-184 1611.5,4 -4,4"/>
<!-- angularFrequency -->
<g id="node1" class="node">
<title>angularFrequency</title>
<polygon fill="#bbffff" stroke="black" points="168,-36 0,-36 0,0 168,0 168,-36"/>
<text text-anchor="middle" x="84" y="-14.3" font-family="Times,serif" font-size="14.00">DD:angFrequencyDD</text>
</g>
<!-- period -->
<g id="node2" class="node">
<title>period</title>
<polygon fill="#bbffff" stroke="black" points="334,-36 186,-36 186,0 334,0 334,-36"/>
<text text-anchor="middle" x="260" y="-14.3" font-family="Times,serif" font-size="14.00">DD:periodSHMDD</text>
</g>
<!-- angularFrequency&#45;&gt;period -->
<g id="edge1" class="edge">
<title>angularFrequency&#45;&gt;period</title>
<path fill="none" stroke="black" d="M168.22,-18C170.69,-18 173.16,-18 175.63,-18"/>
<polygon fill="black" stroke="black" points="175.79,-21.5 185.79,-18 175.79,-14.5 175.79,-21.5"/>
</g>
<!-- frequency -->
<g id="node3" class="node">
<title>frequency</title>
<polygon fill="#bbffff" stroke="black" points="489.5,-36 352.5,-36 352.5,0 489.5,0 489.5,-36"/>
<text text-anchor="middle" x="421" y="-14.3" font-family="Times,serif" font-size="14.00">DD:frequencyDD</text>
</g>
<!-- period&#45;&gt;frequency -->
<g id="edge2" class="edge">
<title>period&#45;&gt;frequency</title>
<path fill="none" stroke="black" d="M334.21,-18C336.83,-18 339.45,-18 342.07,-18"/>
<polygon fill="black" stroke="black" points="342.18,-21.5 352.18,-18 342.18,-14.5 342.18,-21.5"/>
</g>
<!-- angFrequencyGD -->
<g id="node4" class="node">
<title>angFrequencyGD</title>
<polygon fill="palegreen" stroke="black" points="565,-108 397,-108 397,-72 565,-72 565,-108"/>
<text text-anchor="middle" x="481" y="-86.3" font-family="Times,serif" font-size="14.00">GD:angFrequencyGD</text>
</g>
<!-- angFrequencyGD&#45;&gt;frequency -->
<g id="edge3" class="edge">
<title>angFrequencyGD&#45;&gt;frequency</title>
<path fill="none" stroke="black" d="M466.17,-71.7C458.98,-63.3 450.2,-53.07 442.31,-43.86"/>
<polygon fill="black" stroke="black" points="444.83,-41.42 435.66,-36.1 439.51,-45.97 444.83,-41.42"/>
</g>
<!-- newtonSLR -->
<g id="node5" class="node">
<title>newtonSLR</title>
<polygon fill="pink" stroke="black" points="716,-36 508,-36 508,0 716,0 716,-36"/>
<text text-anchor="middle" x="612" y="-14.3" font-family="Times,serif" font-size="14.00">TM:NewtonSecLawRotMot</text>
</g>
<!-- angFrequencyGD&#45;&gt;newtonSLR -->
<g id="edge4" class="edge">
<title>angFrequencyGD&#45;&gt;newtonSLR</title>
<path fill="none" stroke="black" d="M513.05,-71.88C530.49,-62.55 552.27,-50.92 570.94,-40.94"/>
<polygon fill="black" stroke="black" points="572.66,-43.99 579.83,-36.19 569.36,-37.82 572.66,-43.99"/>
</g>
<!-- periodPendGD -->
<g id="node6" class="node">
<title>periodPendGD</title>
<polygon fill="palegreen" stroke="black" points="359.5,-108 234.5,-108 234.5,-72 359.5,-72 359.5,-108"/>
<text text-anchor="middle" x="297" y="-86.3" font-family="Times,serif" font-size="14.00">GD:periodPend</text>
</g>
<!-- periodPendGD&#45;&gt;angularFrequency -->
<g id="edge6" class="edge">
<title>periodPendGD&#45;&gt;angularFrequency</title>
<path fill="none" stroke="black" d="M245.17,-71.97C215.15,-62.1 177.18,-49.62 145.63,-39.25"/>
<polygon fill="black" stroke="black" points="146.66,-35.91 136.07,-36.11 144.47,-42.56 146.66,-35.91"/>
</g>
<!-- periodPendGD&#45;&gt;period -->
<g id="edge7" class="edge">
<title>periodPendGD&#45;&gt;period</title>
<path fill="none" stroke="black" d="M287.85,-71.7C283.6,-63.64 278.44,-53.89 273.73,-44.98"/>
<polygon fill="black" stroke="black" points="276.81,-43.31 269.04,-36.1 270.62,-46.58 276.81,-43.31"/>
</g>
<!-- periodPendGD&#45;&gt;frequency -->
<g id="edge5" class="edge">
<title>periodPendGD&#45;&gt;frequency</title>
<path fill="none" stroke="black" d="M327.33,-71.88C343.7,-62.64 364.08,-51.13 381.65,-41.21"/>
<polygon fill="black" stroke="black" points="383.56,-44.15 390.55,-36.19 380.12,-38.06 383.56,-44.15"/>
</g>
<!-- periodPendGD&#45;&gt;angFrequencyGD -->
<g id="edge8" class="edge">
<title>periodPendGD&#45;&gt;angFrequencyGD</title>
<path fill="none" stroke="black" d="M359.53,-90C368.49,-90 377.46,-90 386.42,-90"/>
<polygon fill="black" stroke="black" points="386.54,-93.5 396.54,-90 386.54,-86.5 386.54,-93.5"/>
</g>
<!-- angularDisplacementRC -->
<g id="node7" class="node">
<title>angularDisplacementRC</title>
<polygon fill="#fff68f" stroke="black" points="652.5,-180 421.5,-180 421.5,-144 652.5,-144 652.5,-180"/>
<text text-anchor="middle" x="537" y="-158.3" font-family="Times,serif" font-size="14.00">IM:calOfAngularDisplacement</text>
</g>
<!-- angularDisplacementRC&#45;&gt;angFrequencyGD -->
<g id="edge10" class="edge">
<title>angularDisplacementRC&#45;&gt;angFrequencyGD</title>
<path fill="none" stroke="black" d="M523.16,-143.7C516.51,-135.39 508.42,-125.28 501.11,-116.14"/>
<polygon fill="black" stroke="black" points="503.66,-113.73 494.68,-108.1 498.2,-118.1 503.66,-113.73"/>
</g>
<!-- angularDisplacementRC&#45;&gt;newtonSLR -->
<g id="edge9" class="edge">
<title>angularDisplacementRC&#45;&gt;newtonSLR</title>
<path fill="none" stroke="black" d="M550.27,-143.92C557.78,-133.81 567.03,-120.56 574,-108 585.16,-87.89 595.25,-63.84 602.22,-45.81"/>
<polygon fill="black" stroke="black" points="605.59,-46.81 605.86,-36.22 599.04,-44.33 605.59,-46.81"/>
</g>
<!-- ixPos -->
<g id="node8" class="node">
<title>ixPos</title>
<polygon fill="#bbffff" stroke="black" points="850,-36 734,-36 734,0 850,0 850,-36"/>
<text text-anchor="middle" x="792" y="-14.3" font-family="Times,serif" font-size="14.00">DD:positionIX</text>
</g>
<!-- iyPos -->
<g id="node9" class="node">
<title>iyPos</title>
<polygon fill="#bbffff" stroke="black" points="983.5,-36 868.5,-36 868.5,0 983.5,0 983.5,-36"/>
<text text-anchor="middle" x="926" y="-14.3" font-family="Times,serif" font-size="14.00">DD:positionIY</text>
</g>
<!-- accelerationTM -->
<g id="node10" class="node">
<title>accelerationTM</title>
<polygon fill="pink" stroke="black" points="1132.5,-36 1001.5,-36 1001.5,0 1132.5,0 1132.5,-36"/>
<text text-anchor="middle" x="1067" y="-14.3" font-family="Times,serif" font-size="14.00">TM:acceleration</text>
</g>
<!-- velocityTM -->
<g id="node11" class="node">
<title>velocityTM</title>
<polygon fill="pink" stroke="black" points="1251,-36 1151,-36 1151,0 1251,0 1251,-36"/>
<text text-anchor="middle" x="1201" y="-14.3" font-family="Times,serif" font-size="14.00">TM:velocity</text>
</g>
<!-- newtonSL -->
<g id="node12" class="node">
<title>newtonSL</title>
<polygon fill="pink" stroke="black" points="1452.5,-36 1269.5,-36 1269.5,0 1452.5,0 1452.5,-36"/>
<text text-anchor="middle" x="1361" y="-14.3" font-family="Times,serif" font-size="14.00">TM:NewtonSecLawMot</text>
</g>
<!-- xVel -->
<g id="node13" class="node">
<title>xVel</title>
<polygon fill="palegreen" stroke="black" points="744,-108 630,-108 630,-72 744,-72 744,-108"/>
<text text-anchor="middle" x="687" y="-86.3" font-family="Times,serif" font-size="14.00">GD:velocityIX</text>
</g>
<!-- yVel -->
<g id="node14" class="node">
<title>yVel</title>
<polygon fill="palegreen" stroke="black" points="875.5,-108 762.5,-108 762.5,-72 875.5,-72 875.5,-108"/>
<text text-anchor="middle" x="819" y="-86.3" font-family="Times,serif" font-size="14.00">GD:velocityIY</text>
</g>
<!-- xScalAcc -->
<g id="node15" class="node">
<title>xScalAcc</title>
<polygon fill="palegreen" stroke="black" points="1040,-108 894,-108 894,-72 1040,-72 1040,-108"/>
<text text-anchor="middle" x="967" y="-86.3" font-family="Times,serif" font-size="14.00">GD:accelerationIX</text>
</g>
<!-- yScalAcc -->
<g id="node16" class="node">
<title>yScalAcc</title>
<polygon fill="palegreen" stroke="black" points="1203.5,-108 1058.5,-108 1058.5,-72 1203.5,-72 1203.5,-108"/>
<text text-anchor="middle" x="1131" y="-86.3" font-family="Times,serif" font-size="14.00">GD:accelerationIY</text>
</g>
<!-- hForceOnPendulum -->
<g id="node17" class="node">
<title>hForceOnPendulum</title>
<polygon fill="palegreen" stroke="black" points="1406,-108 1222,-108 1222,-72 1406,-72 1406,-108"/>
<text text-anchor="middle" x="1314" y="-86.3" font-family="Times,serif" font-size="14.00">GD:hForceOnPendulum</text>
</g>
<!-- vForceOnPendulum -->
<g id="node18" class="node">
<title>vForceOnPendulum</title>
<polygon fill="palegreen" stroke="black" points="1607.5,-108 1424.5,-108 1424.5,-72 1607.5,-72 1607.5,-108"/>
<text text-anchor="middle" x="1516" y="-86.3" font-family="Times,serif" font-size="14.00">GD:vForceOnPendulum</text>
</g>
</g>
</svg>
