<?xml version="1.0" encoding="UTF-8" standalone="no"?>
<!DOCTYPE svg PUBLIC "-//W3C//DTD SVG 1.1//EN"
 "http://www.w3.org/Graphics/SVG/1.1/DTD/svg11.dtd">
<!-- Generated by graphviz version 2.43.0 (0)
 -->
<!-- Title: allvsr Pages: 1 -->
<svg width="5089pt" height="150pt"
 viewBox="0.00 0.00 5088.50 150.38" xmlns="http://www.w3.org/2000/svg" xmlns:xlink="http://www.w3.org/1999/xlink">
<g id="graph0" class="graph" transform="scale(1 1) rotate(0) translate(4 146.38)">
<title>allvsr</title>
<polygon fill="white" stroke="transparent" points="-4,4 -4,-146.38 5084.5,-146.38 5084.5,4 -4,4"/>
<!-- determineCritSlip -->
<g id="node1" class="node">
<title>determineCritSlip</title>
<polygon fill="ivory" stroke="black" points="170,-108 0,-108 0,-72 170,-72 170,-108"/>
<text text-anchor="middle" x="85" y="-86.3" font-family="Times,serif" font-size="14.00">FR:determineCritSlip</text>
</g>
<!-- theory -->
<g id="node2" class="node">
<title>theory</title>
<polygon fill="#fff68f" stroke="black" points="673,-36 575,-36 575,0 673,0 673,-36"/>
<text text-anchor="middle" x="624" y="-14.3" font-family="Times,serif" font-size="14.00">IM:crtSlpId</text>
</g>
<!-- determineCritSlip&#45;&gt;theory -->
<g id="edge1" class="edge">
<title>determineCritSlip&#45;&gt;theory:FS</title>
<path fill="none" stroke="black" d="M152.29,-71.96C298.95,-49.99 473.82,-31.37 564.69,-23.3"/>
<polygon fill="black" stroke="black" points="565.16,-26.77 574.81,-22.41 564.55,-19.8 565.16,-26.77"/>
</g>
<!-- determineCritSlip&#45;&gt;theory -->
<g id="edge2" class="edge">
<title>determineCritSlip&#45;&gt;theory:nrmShrForIM</title>
<path fill="none" stroke="black" d="M170.29,-71.96C310.92,-50.89 477.49,-32.91 564.51,-24.34"/>
<polygon fill="black" stroke="black" points="565.11,-27.8 574.72,-23.35 564.43,-20.84 565.11,-27.8"/>
</g>
<!-- determineCritSlip&#45;&gt;theory -->
<g id="edge3" class="edge">
<title>determineCritSlip&#45;&gt;theory:intsliceFsRC</title>
<path fill="none" stroke="black" d="M170.1,-74.83C176.16,-73.83 182.18,-72.87 188,-72 322.43,-51.86 480.64,-34.52 564.69,-25.54"/>
<polygon fill="black" stroke="black" points="565.24,-29.01 574.82,-24.47 564.5,-22.05 565.24,-29.01"/>
</g>
<!-- determineCritSlip&#45;&gt;theory -->
<g id="edge4" class="edge">
<title>determineCritSlip&#45;&gt;theory:crtSlpIdIM</title>
<path fill="none" stroke="black" d="M170.03,-77.84C182.29,-75.77 194.52,-73.72 206,-72 333.84,-52.85 483.18,-36.23 564.88,-26.93"/>
<polygon fill="black" stroke="black" points="565.45,-30.38 574.99,-25.77 564.66,-23.43 565.45,-30.38"/>
</g>
<!-- displayGraph -->
<g id="node3" class="node">
<title>displayGraph</title>
<polygon fill="ivory" stroke="black" points="1061.5,-108 924.5,-108 924.5,-72 1061.5,-72 1061.5,-108"/>
<text text-anchor="middle" x="993" y="-86.3" font-family="Times,serif" font-size="14.00">FR:displayGraph</text>
</g>
<!-- displayGraph&#45;&gt;theory -->
<g id="edge5" class="edge">
<title>displayGraph&#45;&gt;theory:crtSlpIdIM</title>
<path fill="none" stroke="black" d="M924.12,-73.85C921.04,-73.22 917.99,-72.6 915,-72 834.79,-55.96 741.74,-39.36 682.88,-29.11"/>
<polygon fill="black" stroke="black" points="683.46,-25.66 673.01,-27.4 682.26,-32.56 683.46,-25.66"/>
</g>
<!-- displayFS -->
<g id="node4" class="node">
<title>displayFS</title>
<polygon fill="ivory" stroke="black" points="906,-108 794,-108 794,-72 906,-72 906,-108"/>
<text text-anchor="middle" x="850" y="-86.3" font-family="Times,serif" font-size="14.00">FR:displayFS</text>
</g>
<!-- displayFS&#45;&gt;theory -->
<g id="edge6" class="edge">
<title>displayFS&#45;&gt;theory:FS</title>
<path fill="none" stroke="black" d="M793.76,-75C757.93,-64.75 712.1,-50.69 676.93,-39.23"/>
<polygon fill="black" stroke="black" points="677.91,-35.86 667.32,-36.07 675.72,-42.51 677.91,-35.86"/>
</g>
<!-- displayFS&#45;&gt;theory -->
<g id="edge7" class="edge">
<title>displayFS&#45;&gt;theory:nrmShrForIM</title>
<path fill="none" stroke="black" d="M795,-71.97C761.11,-61.47 717.67,-48.01 683.05,-37.29"/>
<polygon fill="black" stroke="black" points="683.66,-33.82 673.08,-34.2 681.59,-40.5 683.66,-33.82"/>
</g>
<!-- displayFS&#45;&gt;theory -->
<g id="edge8" class="edge">
<title>displayFS&#45;&gt;theory:intsliceFsRC</title>
<path fill="none" stroke="black" d="M806.78,-71.97C771.54,-60.29 721.85,-44.95 683,-33.79"/>
<polygon fill="black" stroke="black" points="683.95,-30.42 673.37,-31.04 682.03,-37.15 683.95,-30.42"/>
</g>
<!-- displayNormal -->
<g id="node5" class="node">
<title>displayNormal</title>
<polygon fill="ivory" stroke="black" points="776,-108 630,-108 630,-72 776,-72 776,-108"/>
<text text-anchor="middle" x="703" y="-86.3" font-family="Times,serif" font-size="14.00">FR:displayNormal</text>
</g>
<!-- displayNormal&#45;&gt;theory -->
<g id="edge9" class="edge">
<title>displayNormal&#45;&gt;theory:FS</title>
<path fill="none" stroke="black" d="M671.64,-71.7C660.21,-63.14 648.02,-52.66 638.51,-43.3"/>
<polygon fill="black" stroke="black" points="640.99,-40.84 631.51,-36.1 635.97,-45.72 640.99,-40.84"/>
</g>
<!-- displayNormal&#45;&gt;theory -->
<g id="edge10" class="edge">
<title>displayNormal&#45;&gt;theory:nrmShrForIM</title>
<path fill="none" stroke="black" d="M683.47,-71.7C673.62,-62.97 661.51,-52.24 650.8,-42.75"/>
<polygon fill="black" stroke="black" points="653.11,-40.12 643.3,-36.1 648.47,-45.36 653.11,-40.12"/>
</g>
<!-- displayNormal&#45;&gt;theory -->
<g id="edge11" class="edge">
<title>displayNormal&#45;&gt;theory:intsliceFsRC</title>
<path fill="none" stroke="black" d="M695.3,-71.7C687.17,-62.88 675.26,-52.03 663.32,-42.47"/>
<polygon fill="black" stroke="black" points="665.14,-39.46 655.09,-36.1 660.86,-44.99 665.14,-39.46"/>
</g>
<!-- displayShear -->
<g id="node6" class="node">
<title>displayShear</title>
<polygon fill="ivory" stroke="black" points="612,-108 478,-108 478,-72 612,-72 612,-108"/>
<text text-anchor="middle" x="545" y="-86.3" font-family="Times,serif" font-size="14.00">FR:displayShear</text>
</g>
<!-- displayShear&#45;&gt;theory -->
<g id="edge12" class="edge">
<title>displayShear&#45;&gt;theory:FS</title>
<path fill="none" stroke="black" d="M552.7,-71.7C560.83,-62.88 572.74,-52.03 584.68,-42.47"/>
<polygon fill="black" stroke="black" points="587.14,-44.99 592.91,-36.1 582.86,-39.46 587.14,-44.99"/>
</g>
<!-- displayShear&#45;&gt;theory -->
<g id="edge13" class="edge">
<title>displayShear&#45;&gt;theory:nrmShrForIM</title>
<path fill="none" stroke="black" d="M564.53,-71.7C574.38,-62.97 586.49,-52.24 597.2,-42.75"/>
<polygon fill="black" stroke="black" points="599.53,-45.36 604.7,-36.1 594.89,-40.12 599.53,-45.36"/>
</g>
<!-- displayShear&#45;&gt;theory -->
<g id="edge14" class="edge">
<title>displayShear&#45;&gt;theory:intsliceFsRC</title>
<path fill="none" stroke="black" d="M576.36,-71.7C587.79,-63.14 599.98,-52.66 609.49,-43.3"/>
<polygon fill="black" stroke="black" points="612.03,-45.72 616.49,-36.1 607.01,-40.84 612.03,-45.72"/>
</g>
<!-- writeToFile -->
<g id="node7" class="node">
<title>writeToFile</title>
<polygon fill="ivory" stroke="black" points="310,-108 188,-108 188,-72 310,-72 310,-108"/>
<text text-anchor="middle" x="249" y="-86.3" font-family="Times,serif" font-size="14.00">FR:writeToFile</text>
</g>
<!-- writeToFile&#45;&gt;displayGraph -->
<g id="edge16" class="edge">
<title>writeToFile&#45;&gt;displayGraph</title>
<path fill="none" stroke="black" d="M280.59,-108.15C294.63,-115.21 311.65,-122.45 328,-126 390.76,-139.63 843.01,-138.52 906,-126 920.32,-123.15 935.24,-117.91 948.59,-112.29"/>
<polygon fill="black" stroke="black" points="950.26,-115.38 958.01,-108.16 947.45,-108.97 950.26,-115.38"/>
</g>
<!-- writeToFile&#45;&gt;displayFS -->
<g id="edge17" class="edge">
<title>writeToFile&#45;&gt;displayFS</title>
<path fill="none" stroke="black" d="M280.59,-108.15C294.63,-115.21 311.65,-122.45 328,-126 425.29,-147.12 678.98,-148.35 776,-126 788.07,-123.22 800.46,-118.19 811.56,-112.76"/>
<polygon fill="black" stroke="black" points="813.25,-115.82 820.55,-108.14 810.05,-109.6 813.25,-115.82"/>
</g>
<!-- writeToFile&#45;&gt;displayNormal -->
<g id="edge18" class="edge">
<title>writeToFile&#45;&gt;displayNormal</title>
<path fill="none" stroke="black" d="M280.59,-108.15C294.63,-115.21 311.65,-122.45 328,-126 389.67,-139.39 550.01,-137.82 612,-126 627.05,-123.13 642.79,-117.82 656.87,-112.13"/>
<polygon fill="black" stroke="black" points="658.45,-115.26 666.32,-108.17 655.74,-108.81 658.45,-115.26"/>
</g>
<!-- writeToFile&#45;&gt;displayShear -->
<g id="edge19" class="edge">
<title>writeToFile&#45;&gt;displayShear</title>
<path fill="none" stroke="black" d="M280.59,-108.15C294.63,-115.21 311.65,-122.45 328,-126 384.9,-138.35 401.92,-137.47 459,-126 473.17,-123.15 487.93,-117.91 501.13,-112.29"/>
<polygon fill="black" stroke="black" points="502.72,-115.41 510.44,-108.16 499.88,-109.02 502.72,-115.41"/>
</g>
<!-- displayInput -->
<g id="node8" class="node">
<title>displayInput</title>
<polygon fill="ivory" stroke="black" points="459.5,-108 328.5,-108 328.5,-72 459.5,-72 459.5,-108"/>
<text text-anchor="middle" x="394" y="-86.3" font-family="Times,serif" font-size="14.00">FR:displayInput</text>
</g>
<!-- writeToFile&#45;&gt;displayInput -->
<g id="edge15" class="edge">
<title>writeToFile&#45;&gt;displayInput</title>
<path fill="none" stroke="black" d="M310.17,-90C312.8,-90 315.42,-90 318.05,-90"/>
<polygon fill="black" stroke="black" points="318.18,-93.5 328.18,-90 318.18,-86.5 318.18,-93.5"/>
</g>
<!-- assumpSSC -->
<g id="node9" class="node">
<title>assumpSSC</title>
<polygon fill="mistyrose" stroke="black" points="1194.5,-108 1079.5,-108 1079.5,-72 1194.5,-72 1194.5,-108"/>
<text text-anchor="middle" x="1137" y="-86.3" font-family="Times,serif" font-size="14.00">A:assumpSSC</text>
</g>
<!-- assumpFOS -->
<g id="node10" class="node">
<title>assumpFOS</title>
<polygon fill="mistyrose" stroke="black" points="1329,-108 1213,-108 1213,-72 1329,-72 1329,-108"/>
<text text-anchor="middle" x="1271" y="-86.3" font-family="Times,serif" font-size="14.00">A:assumpFOS</text>
</g>
<!-- assumpSLH -->
<g id="node11" class="node">
<title>assumpSLH</title>
<polygon fill="mistyrose" stroke="black" points="1463,-108 1347,-108 1347,-72 1463,-72 1463,-108"/>
<text text-anchor="middle" x="1405" y="-86.3" font-family="Times,serif" font-size="14.00">A:assumpSLH</text>
</g>
<!-- assumpSP -->
<g id="node12" class="node">
<title>assumpSP</title>
<polygon fill="mistyrose" stroke="black" points="1586.5,-108 1481.5,-108 1481.5,-72 1586.5,-72 1586.5,-108"/>
<text text-anchor="middle" x="1534" y="-86.3" font-family="Times,serif" font-size="14.00">A:assumpSP</text>
</g>
<!-- assumpSLI -->
<g id="node13" class="node">
<title>assumpSLI</title>
<polygon fill="mistyrose" stroke="black" points="1715,-108 1605,-108 1605,-72 1715,-72 1715,-108"/>
<text text-anchor="middle" x="1660" y="-86.3" font-family="Times,serif" font-size="14.00">A:assumpSLI</text>
</g>
<!-- assumpINSFL -->
<g id="node14" class="node">
<title>assumpINSFL</title>
<polygon fill="mistyrose" stroke="black" points="1864.5,-108 1733.5,-108 1733.5,-72 1864.5,-72 1864.5,-108"/>
<text text-anchor="middle" x="1799" y="-86.3" font-family="Times,serif" font-size="14.00">A:assumpINSFL</text>
</g>
<!-- assumpPSC -->
<g id="node15" class="node">
<title>assumpPSC</title>
<polygon fill="mistyrose" stroke="black" points="1999,-108 1883,-108 1883,-72 1999,-72 1999,-108"/>
<text text-anchor="middle" x="1941" y="-86.3" font-family="Times,serif" font-size="14.00">A:assumpPSC</text>
</g>
<!-- assumpENSL -->
<g id="node16" class="node">
<title>assumpENSL</title>
<polygon fill="mistyrose" stroke="black" points="2144.5,-108 2017.5,-108 2017.5,-72 2144.5,-72 2144.5,-108"/>
<text text-anchor="middle" x="2081" y="-86.3" font-family="Times,serif" font-size="14.00">A:assumpENSL</text>
</g>
<!-- assumpSBSBISL -->
<g id="node17" class="node">
<title>assumpSBSBISL</title>
<polygon fill="mistyrose" stroke="black" points="2313,-108 2163,-108 2163,-72 2313,-72 2313,-108"/>
<text text-anchor="middle" x="2238" y="-86.3" font-family="Times,serif" font-size="14.00">A:assumpSBSBISL</text>
</g>
<!-- assumpES -->
<g id="node18" class="node">
<title>assumpES</title>
<polygon fill="mistyrose" stroke="black" points="2437,-108 2331,-108 2331,-72 2437,-72 2437,-108"/>
<text text-anchor="middle" x="2384" y="-86.3" font-family="Times,serif" font-size="14.00">A:assumpES</text>
</g>
<!-- assumpSF -->
<g id="node19" class="node">
<title>assumpSF</title>
<polygon fill="mistyrose" stroke="black" points="2560.5,-108 2455.5,-108 2455.5,-72 2560.5,-72 2560.5,-108"/>
<text text-anchor="middle" x="2508" y="-86.3" font-family="Times,serif" font-size="14.00">A:assumpSF</text>
</g>
<!-- assumpSL -->
<g id="node20" class="node">
<title>assumpSL</title>
<polygon fill="mistyrose" stroke="black" points="2683,-108 2579,-108 2579,-72 2683,-72 2683,-108"/>
<text text-anchor="middle" x="2631" y="-86.3" font-family="Times,serif" font-size="14.00">A:assumpSL</text>
</g>
<!-- assumpWIBE -->
<g id="node21" class="node">
<title>assumpWIBE</title>
<polygon fill="mistyrose" stroke="black" points="2827,-108 2701,-108 2701,-72 2827,-72 2827,-108"/>
<text text-anchor="middle" x="2764" y="-86.3" font-family="Times,serif" font-size="14.00">A:assumpWIBE</text>
</g>
<!-- assumpWISE -->
<g id="node22" class="node">
<title>assumpWISE</title>
<polygon fill="mistyrose" stroke="black" points="2970.5,-108 2845.5,-108 2845.5,-72 2970.5,-72 2970.5,-108"/>
<text text-anchor="middle" x="2908" y="-86.3" font-family="Times,serif" font-size="14.00">A:assumpWISE</text>
</g>
<!-- assumpNESSS -->
<g id="node23" class="node">
<title>assumpNESSS</title>
<polygon fill="mistyrose" stroke="black" points="3125,-108 2989,-108 2989,-72 3125,-72 3125,-108"/>
<text text-anchor="middle" x="3057" y="-86.3" font-family="Times,serif" font-size="14.00">A:assumpNESSS</text>
</g>
<!-- assumpHFSM -->
<g id="node24" class="node">
<title>assumpHFSM</title>
<polygon fill="mistyrose" stroke="black" points="3274.5,-108 3143.5,-108 3143.5,-72 3274.5,-72 3274.5,-108"/>
<text text-anchor="middle" x="3209" y="-86.3" font-family="Times,serif" font-size="14.00">A:assumpHFSM</text>
</g>
<!-- dataDefn -->
<g id="node25" class="node">
<title>dataDefn</title>
<polygon fill="#bbffff" stroke="black" points="3455.5,-108 3292.5,-108 3292.5,-72 3455.5,-72 3455.5,-108"/>
<text text-anchor="middle" x="3374" y="-86.3" font-family="Times,serif" font-size="14.00">DD:sliceHghtLeftDD</text>
</g>
<!-- readAndStore -->
<g id="node26" class="node">
<title>readAndStore</title>
<polygon fill="ivory" stroke="black" points="3614,-108 3474,-108 3474,-72 3614,-72 3614,-108"/>
<text text-anchor="middle" x="3544" y="-86.3" font-family="Times,serif" font-size="14.00">FR:readAndStore</text>
</g>
<!-- verifyInput -->
<g id="node27" class="node">
<title>verifyInput</title>
<polygon fill="ivory" stroke="black" points="3753.5,-108 3632.5,-108 3632.5,-72 3753.5,-72 3753.5,-108"/>
<text text-anchor="middle" x="3693" y="-86.3" font-family="Times,serif" font-size="14.00">FR:verifyInput</text>
</g>
<!-- verifyOutput -->
<g id="node28" class="node">
<title>verifyOutput</title>
<polygon fill="ivory" stroke="black" points="3904.5,-108 3771.5,-108 3771.5,-72 3904.5,-72 3904.5,-108"/>
<text text-anchor="middle" x="3838" y="-86.3" font-family="Times,serif" font-size="14.00">FR:verifyOutput</text>
</g>
<!-- correct -->
<g id="node29" class="node">
<title>correct</title>
<polygon fill="ivory" stroke="black" points="4027,-108 3923,-108 3923,-72 4027,-72 4027,-108"/>
<text text-anchor="middle" x="3975" y="-86.3" font-family="Times,serif" font-size="14.00">NFR:correct</text>
</g>
<!-- understandable -->
<g id="node30" class="node">
<title>understandable</title>
<polygon fill="ivory" stroke="black" points="4210.5,-108 4045.5,-108 4045.5,-72 4210.5,-72 4210.5,-108"/>
<text text-anchor="middle" x="4128" y="-86.3" font-family="Times,serif" font-size="14.00">NFR:understandable</text>
</g>
<!-- reusable -->
<g id="node31" class="node">
<title>reusable</title>
<polygon fill="ivory" stroke="black" points="4343.5,-108 4228.5,-108 4228.5,-72 4343.5,-72 4343.5,-108"/>
<text text-anchor="middle" x="4286" y="-86.3" font-family="Times,serif" font-size="14.00">NFR:reusable</text>
</g>
<!-- maintainable -->
<g id="node32" class="node">
<title>maintainable</title>
<polygon fill="ivory" stroke="black" points="4508,-108 4362,-108 4362,-72 4508,-72 4508,-108"/>
<text text-anchor="middle" x="4435" y="-86.3" font-family="Times,serif" font-size="14.00">NFR:maintainable</text>
</g>
<!-- identifyCritAndFS -->
<g id="node33" class="node">
<title>identifyCritAndFS</title>
<polygon fill="#ffb90f" stroke="black" points="4698,-108 4526,-108 4526,-72 4698,-72 4698,-108"/>
<text text-anchor="middle" x="4612" y="-86.3" font-family="Times,serif" font-size="14.00">GS:identifyCritAndFS</text>
</g>
<!-- determineNormalF -->
<g id="node34" class="node">
<title>determineNormalF</title>
<polygon fill="#ffb90f" stroke="black" points="4895.5,-108 4716.5,-108 4716.5,-72 4895.5,-72 4895.5,-108"/>
<text text-anchor="middle" x="4806" y="-86.3" font-family="Times,serif" font-size="14.00">GS:determineNormalF</text>
</g>
<!-- determineShearF -->
<g id="node35" class="node">
<title>determineShearF</title>
<polygon fill="#ffb90f" stroke="black" points="5080.5,-108 4913.5,-108 4913.5,-72 5080.5,-72 5080.5,-108"/>
<text text-anchor="middle" x="4997" y="-86.3" font-family="Times,serif" font-size="14.00">GS:determineShearF</text>
</g>
</g>
</svg>
