<?xml version="1.0" encoding="UTF-8" standalone="no"?>
<!DOCTYPE svg PUBLIC "-//W3C//DTD SVG 1.1//EN"
 "http://www.w3.org/Graphics/SVG/1.1/DTD/svg11.dtd">
<!-- Generated by graphviz version 2.43.0 (0)
 -->
<!-- Title: allvsr Pages: 1 -->
<svg width="10059pt" height="150pt"
 viewBox="0.00 0.00 10059.00 149.87" xmlns="http://www.w3.org/2000/svg" xmlns:xlink="http://www.w3.org/1999/xlink">
<g id="graph0" class="graph" transform="scale(1 1) rotate(0) translate(4 145.87)">
<title>allvsr</title>
<polygon fill="white" stroke="transparent" points="-4,4 -4,-145.87 10055,-145.87 10055,4 -4,4"/>
<!-- determineCritSlip -->
<g id="node1" class="node">
<title>determineCritSlip</title>
<polygon fill="ivory" stroke="black" points="615.5,-108 445.5,-108 445.5,-72 615.5,-72 615.5,-108"/>
<text text-anchor="middle" x="530.5" y="-86.3" font-family="Times,serif" font-size="14.00">FR:determineCritSlip</text>
</g>
<!-- FS -->
<g id="node2" class="node">
<title>FS</title>
<polygon fill="#fff68f" stroke="black" points="696,-36 607,-36 607,0 696,0 696,-36"/>
<text text-anchor="middle" x="651.5" y="-14.3" font-family="Times,serif" font-size="14.00">IM:fctSfty</text>
</g>
<!-- determineCritSlip&#45;&gt;FS -->
<g id="edge1" class="edge">
<title>determineCritSlip&#45;&gt;FS</title>
<path fill="none" stroke="black" d="M560.1,-71.88C576.07,-62.64 595.96,-51.13 613.11,-41.21"/>
<polygon fill="black" stroke="black" points="614.88,-44.23 621.79,-36.19 611.38,-38.17 614.88,-44.23"/>
</g>
<!-- nrmShrForIM -->
<g id="node3" class="node">
<title>nrmShrForIM</title>
<polygon fill="#fff68f" stroke="black" points="833,-36 714,-36 714,0 833,0 833,-36"/>
<text text-anchor="middle" x="773.5" y="-14.3" font-family="Times,serif" font-size="14.00">IM:nrmShrFor</text>
</g>
<!-- determineCritSlip&#45;&gt;nrmShrForIM -->
<g id="edge2" class="edge">
<title>determineCritSlip&#45;&gt;nrmShrForIM</title>
<path fill="none" stroke="black" d="M589.63,-71.97C624.18,-62.01 667.95,-49.41 704.12,-38.99"/>
<polygon fill="black" stroke="black" points="705.46,-42.24 714.1,-36.11 703.52,-35.52 705.46,-42.24"/>
</g>
<!-- intsliceFsRC -->
<g id="node4" class="node">
<title>intsliceFsRC</title>
<polygon fill="#fff68f" stroke="black" points="961.5,-36 851.5,-36 851.5,0 961.5,0 961.5,-36"/>
<text text-anchor="middle" x="906.5" y="-14.3" font-family="Times,serif" font-size="14.00">IM:intsliceFs</text>
</g>
<!-- determineCritSlip&#45;&gt;intsliceFsRC -->
<g id="edge3" class="edge">
<title>determineCritSlip&#45;&gt;intsliceFsRC</title>
<path fill="none" stroke="black" d="M615.54,-73.56C618.57,-73.03 621.56,-72.51 624.5,-72 718.15,-55.8 744.79,-56.56 841.52,-36.1"/>
<polygon fill="black" stroke="black" points="842.38,-39.5 851.42,-33.99 840.91,-32.66 842.38,-39.5"/>
</g>
<!-- crtSlpIdIM -->
<g id="node5" class="node">
<title>crtSlpIdIM</title>
<polygon fill="#fff68f" stroke="black" points="377.5,-36 279.5,-36 279.5,0 377.5,0 377.5,-36"/>
<text text-anchor="middle" x="328.5" y="-14.3" font-family="Times,serif" font-size="14.00">IM:crtSlpId</text>
</g>
<!-- determineCritSlip&#45;&gt;crtSlpIdIM -->
<g id="edge4" class="edge">
<title>determineCritSlip&#45;&gt;crtSlpIdIM</title>
<path fill="none" stroke="black" d="M481.34,-71.97C452.89,-62.11 416.91,-49.64 387,-39.27"/>
<polygon fill="black" stroke="black" points="388.12,-35.96 377.53,-35.99 385.83,-42.57 388.12,-35.96"/>
</g>
<!-- displayGraph -->
<g id="node6" class="node">
<title>displayGraph</title>
<polygon fill="ivory" stroke="black" points="137,-108 0,-108 0,-72 137,-72 137,-108"/>
<text text-anchor="middle" x="68.5" y="-86.3" font-family="Times,serif" font-size="14.00">FR:displayGraph</text>
</g>
<!-- displayGraph&#45;&gt;crtSlpIdIM -->
<g id="edge5" class="edge">
<title>displayGraph&#45;&gt;crtSlpIdIM</title>
<path fill="none" stroke="black" d="M131.77,-71.97C173.71,-60.67 228.36,-45.96 269.41,-34.91"/>
<polygon fill="black" stroke="black" points="270.53,-38.23 279.27,-32.25 268.71,-31.47 270.53,-38.23"/>
</g>
<!-- displayFS -->
<g id="node7" class="node">
<title>displayFS</title>
<polygon fill="ivory" stroke="black" points="1061.5,-108 949.5,-108 949.5,-72 1061.5,-72 1061.5,-108"/>
<text text-anchor="middle" x="1005.5" y="-86.3" font-family="Times,serif" font-size="14.00">FR:displayFS</text>
</g>
<!-- displayFS&#45;&gt;FS -->
<g id="edge6" class="edge">
<title>displayFS&#45;&gt;FS</title>
<path fill="none" stroke="black" d="M949.21,-73.9C946.27,-73.23 943.36,-72.59 940.5,-72 840.16,-51.25 810.22,-59.4 706.11,-35.93"/>
<polygon fill="black" stroke="black" points="706.67,-32.46 696.14,-33.63 705.1,-39.29 706.67,-32.46"/>
</g>
<!-- displayFS&#45;&gt;nrmShrForIM -->
<g id="edge7" class="edge">
<title>displayFS&#45;&gt;nrmShrForIM</title>
<path fill="none" stroke="black" d="M949.34,-72.05C916.38,-62.11 874.56,-49.49 839.96,-39.05"/>
<polygon fill="black" stroke="black" points="840.53,-35.57 829.95,-36.03 838.51,-42.27 840.53,-35.57"/>
</g>
<!-- displayFS&#45;&gt;intsliceFsRC -->
<g id="edge8" class="edge">
<title>displayFS&#45;&gt;intsliceFsRC</title>
<path fill="none" stroke="black" d="M981.28,-71.88C968.58,-62.89 952.84,-51.76 939.08,-42.03"/>
<polygon fill="black" stroke="black" points="941,-39.11 930.81,-36.19 936.96,-44.82 941,-39.11"/>
</g>
<!-- displayNormal -->
<g id="node8" class="node">
<title>displayNormal</title>
<polygon fill="ivory" stroke="black" points="931.5,-108 785.5,-108 785.5,-72 931.5,-72 931.5,-108"/>
<text text-anchor="middle" x="858.5" y="-86.3" font-family="Times,serif" font-size="14.00">FR:displayNormal</text>
</g>
<!-- displayNormal&#45;&gt;FS -->
<g id="edge9" class="edge">
<title>displayNormal&#45;&gt;FS</title>
<path fill="none" stroke="black" d="M808.13,-71.97C777.11,-61.48 737.36,-48.03 705.66,-37.32"/>
<polygon fill="black" stroke="black" points="706.7,-33.97 696.1,-34.08 704.46,-40.6 706.7,-33.97"/>
</g>
<!-- displayNormal&#45;&gt;nrmShrForIM -->
<g id="edge10" class="edge">
<title>displayNormal&#45;&gt;nrmShrForIM</title>
<path fill="none" stroke="black" d="M837.49,-71.7C826.78,-62.88 813.61,-52.03 802,-42.47"/>
<polygon fill="black" stroke="black" points="804.21,-39.76 794.27,-36.1 799.76,-45.16 804.21,-39.76"/>
</g>
<!-- displayNormal&#45;&gt;intsliceFsRC -->
<g id="edge11" class="edge">
<title>displayNormal&#45;&gt;intsliceFsRC</title>
<path fill="none" stroke="black" d="M870.37,-71.7C876,-63.47 882.85,-53.48 889.07,-44.42"/>
<polygon fill="black" stroke="black" points="892,-46.33 894.77,-36.1 886.23,-42.37 892,-46.33"/>
</g>
<!-- displayShear -->
<g id="node9" class="node">
<title>displayShear</title>
<polygon fill="ivory" stroke="black" points="767.5,-108 633.5,-108 633.5,-72 767.5,-72 767.5,-108"/>
<text text-anchor="middle" x="700.5" y="-86.3" font-family="Times,serif" font-size="14.00">FR:displayShear</text>
</g>
<!-- displayShear&#45;&gt;FS -->
<g id="edge12" class="edge">
<title>displayShear&#45;&gt;FS</title>
<path fill="none" stroke="black" d="M688.39,-71.7C682.63,-63.47 675.64,-53.48 669.29,-44.42"/>
<polygon fill="black" stroke="black" points="672.08,-42.29 663.47,-36.1 666.34,-46.3 672.08,-42.29"/>
</g>
<!-- displayShear&#45;&gt;nrmShrForIM -->
<g id="edge13" class="edge">
<title>displayShear&#45;&gt;nrmShrForIM</title>
<path fill="none" stroke="black" d="M718.54,-71.7C727.56,-63.05 738.62,-52.45 748.44,-43.03"/>
<polygon fill="black" stroke="black" points="750.87,-45.55 755.66,-36.1 746.02,-40.5 750.87,-45.55"/>
</g>
<!-- displayShear&#45;&gt;intsliceFsRC -->
<g id="edge14" class="edge">
<title>displayShear&#45;&gt;intsliceFsRC</title>
<path fill="none" stroke="black" d="M750.63,-71.97C779.54,-62.14 816.07,-49.73 846.5,-39.39"/>
<polygon fill="black" stroke="black" points="847.8,-42.64 856.15,-36.11 845.55,-36.01 847.8,-42.64"/>
</g>
<!-- writeToFile -->
<g id="node10" class="node">
<title>writeToFile</title>
<polygon fill="ivory" stroke="black" points="277.5,-108 155.5,-108 155.5,-72 277.5,-72 277.5,-108"/>
<text text-anchor="middle" x="216.5" y="-86.3" font-family="Times,serif" font-size="14.00">FR:writeToFile</text>
</g>
<!-- writeToFile&#45;&gt;displayGraph -->
<g id="edge16" class="edge">
<title>writeToFile&#45;&gt;displayGraph</title>
<path fill="none" stroke="black" d="M155.33,-90C152.56,-90 149.79,-90 147.03,-90"/>
<polygon fill="black" stroke="black" points="147.01,-86.5 137.01,-90 147.01,-93.5 147.01,-86.5"/>
</g>
<!-- writeToFile&#45;&gt;displayFS -->
<g id="edge17" class="edge">
<title>writeToFile&#45;&gt;displayFS</title>
<path fill="none" stroke="black" d="M248.09,-108.15C262.13,-115.21 279.15,-122.45 295.5,-126 364.56,-140.99 862.64,-141.86 931.5,-126 943.57,-123.22 955.96,-118.19 967.06,-112.76"/>
<polygon fill="black" stroke="black" points="968.75,-115.82 976.05,-108.14 965.55,-109.6 968.75,-115.82"/>
</g>
<!-- writeToFile&#45;&gt;displayNormal -->
<g id="edge18" class="edge">
<title>writeToFile&#45;&gt;displayNormal</title>
<path fill="none" stroke="black" d="M248.09,-108.15C262.13,-115.21 279.15,-122.45 295.5,-126 398,-148.25 664.47,-145.64 767.5,-126 782.55,-123.13 798.29,-117.82 812.37,-112.13"/>
<polygon fill="black" stroke="black" points="813.95,-115.26 821.82,-108.17 811.24,-108.81 813.95,-115.26"/>
</g>
<!-- writeToFile&#45;&gt;displayShear -->
<g id="edge19" class="edge">
<title>writeToFile&#45;&gt;displayShear</title>
<path fill="none" stroke="black" d="M248.09,-108.15C262.13,-115.21 279.15,-122.45 295.5,-126 364.99,-141.09 545.81,-140.15 615.5,-126 629.53,-123.15 644.11,-117.91 657.16,-112.29"/>
<polygon fill="black" stroke="black" points="658.67,-115.45 666.36,-108.16 655.81,-109.06 658.67,-115.45"/>
</g>
<!-- displayInput -->
<g id="node11" class="node">
<title>displayInput</title>
<polygon fill="ivory" stroke="black" points="427,-108 296,-108 296,-72 427,-72 427,-108"/>
<text text-anchor="middle" x="361.5" y="-86.3" font-family="Times,serif" font-size="14.00">FR:displayInput</text>
</g>
<!-- writeToFile&#45;&gt;displayInput -->
<g id="edge15" class="edge">
<title>writeToFile&#45;&gt;displayInput</title>
<path fill="none" stroke="black" d="M277.67,-90C280.3,-90 282.92,-90 285.55,-90"/>
<polygon fill="black" stroke="black" points="285.68,-93.5 295.68,-90 285.68,-86.5 285.68,-93.5"/>
</g>
<!-- assumpSSC -->
<g id="node12" class="node">
<title>assumpSSC</title>
<polygon fill="mistyrose" stroke="black" points="1195,-108 1080,-108 1080,-72 1195,-72 1195,-108"/>
<text text-anchor="middle" x="1137.5" y="-86.3" font-family="Times,serif" font-size="14.00">A:assumpSSC</text>
</g>
<!-- assumpFOS -->
<g id="node13" class="node">
<title>assumpFOS</title>
<polygon fill="mistyrose" stroke="black" points="1329.5,-108 1213.5,-108 1213.5,-72 1329.5,-72 1329.5,-108"/>
<text text-anchor="middle" x="1271.5" y="-86.3" font-family="Times,serif" font-size="14.00">A:assumpFOS</text>
</g>
<!-- assumpSLH -->
<g id="node14" class="node">
<title>assumpSLH</title>
<polygon fill="mistyrose" stroke="black" points="1463.5,-108 1347.5,-108 1347.5,-72 1463.5,-72 1463.5,-108"/>
<text text-anchor="middle" x="1405.5" y="-86.3" font-family="Times,serif" font-size="14.00">A:assumpSLH</text>
</g>
<!-- assumpSP -->
<g id="node15" class="node">
<title>assumpSP</title>
<polygon fill="mistyrose" stroke="black" points="1587,-108 1482,-108 1482,-72 1587,-72 1587,-108"/>
<text text-anchor="middle" x="1534.5" y="-86.3" font-family="Times,serif" font-size="14.00">A:assumpSP</text>
</g>
<!-- assumpSLI -->
<g id="node16" class="node">
<title>assumpSLI</title>
<polygon fill="mistyrose" stroke="black" points="1715.5,-108 1605.5,-108 1605.5,-72 1715.5,-72 1715.5,-108"/>
<text text-anchor="middle" x="1660.5" y="-86.3" font-family="Times,serif" font-size="14.00">A:assumpSLI</text>
</g>
<!-- assumpINSFL -->
<g id="node17" class="node">
<title>assumpINSFL</title>
<polygon fill="mistyrose" stroke="black" points="1865,-108 1734,-108 1734,-72 1865,-72 1865,-108"/>
<text text-anchor="middle" x="1799.5" y="-86.3" font-family="Times,serif" font-size="14.00">A:assumpINSFL</text>
</g>
<!-- assumpPSC -->
<g id="node18" class="node">
<title>assumpPSC</title>
<polygon fill="mistyrose" stroke="black" points="1999.5,-108 1883.5,-108 1883.5,-72 1999.5,-72 1999.5,-108"/>
<text text-anchor="middle" x="1941.5" y="-86.3" font-family="Times,serif" font-size="14.00">A:assumpPSC</text>
</g>
<!-- assumpENSL -->
<g id="node19" class="node">
<title>assumpENSL</title>
<polygon fill="mistyrose" stroke="black" points="2145,-108 2018,-108 2018,-72 2145,-72 2145,-108"/>
<text text-anchor="middle" x="2081.5" y="-86.3" font-family="Times,serif" font-size="14.00">A:assumpENSL</text>
</g>
<!-- assumpSBSBISL -->
<g id="node20" class="node">
<title>assumpSBSBISL</title>
<polygon fill="mistyrose" stroke="black" points="2313.5,-108 2163.5,-108 2163.5,-72 2313.5,-72 2313.5,-108"/>
<text text-anchor="middle" x="2238.5" y="-86.3" font-family="Times,serif" font-size="14.00">A:assumpSBSBISL</text>
</g>
<!-- assumpES -->
<g id="node21" class="node">
<title>assumpES</title>
<polygon fill="mistyrose" stroke="black" points="2437.5,-108 2331.5,-108 2331.5,-72 2437.5,-72 2437.5,-108"/>
<text text-anchor="middle" x="2384.5" y="-86.3" font-family="Times,serif" font-size="14.00">A:assumpES</text>
</g>
<!-- assumpSF -->
<g id="node22" class="node">
<title>assumpSF</title>
<polygon fill="mistyrose" stroke="black" points="2561,-108 2456,-108 2456,-72 2561,-72 2561,-108"/>
<text text-anchor="middle" x="2508.5" y="-86.3" font-family="Times,serif" font-size="14.00">A:assumpSF</text>
</g>
<!-- assumpSL -->
<g id="node23" class="node">
<title>assumpSL</title>
<polygon fill="mistyrose" stroke="black" points="2683.5,-108 2579.5,-108 2579.5,-72 2683.5,-72 2683.5,-108"/>
<text text-anchor="middle" x="2631.5" y="-86.3" font-family="Times,serif" font-size="14.00">A:assumpSL</text>
</g>
<!-- assumpWIBE -->
<g id="node24" class="node">
<title>assumpWIBE</title>
<polygon fill="mistyrose" stroke="black" points="2827.5,-108 2701.5,-108 2701.5,-72 2827.5,-72 2827.5,-108"/>
<text text-anchor="middle" x="2764.5" y="-86.3" font-family="Times,serif" font-size="14.00">A:assumpWIBE</text>
</g>
<!-- assumpWISE -->
<g id="node25" class="node">
<title>assumpWISE</title>
<polygon fill="mistyrose" stroke="black" points="2971,-108 2846,-108 2846,-72 2971,-72 2971,-108"/>
<text text-anchor="middle" x="2908.5" y="-86.3" font-family="Times,serif" font-size="14.00">A:assumpWISE</text>
</g>
<!-- assumpNESSS -->
<g id="node26" class="node">
<title>assumpNESSS</title>
<polygon fill="mistyrose" stroke="black" points="3125.5,-108 2989.5,-108 2989.5,-72 3125.5,-72 3125.5,-108"/>
<text text-anchor="middle" x="3057.5" y="-86.3" font-family="Times,serif" font-size="14.00">A:assumpNESSS</text>
</g>
<!-- assumpHFSM -->
<g id="node27" class="node">
<title>assumpHFSM</title>
<polygon fill="mistyrose" stroke="black" points="3275,-108 3144,-108 3144,-72 3275,-72 3275,-108"/>
<text text-anchor="middle" x="3209.5" y="-86.3" font-family="Times,serif" font-size="14.00">A:assumpHFSM</text>
</g>
<!-- H_i -->
<g id="node28" class="node">
<title>H_i</title>
<polygon fill="#bbffff" stroke="black" points="3440,-108 3293,-108 3293,-72 3440,-72 3440,-108"/>
<text text-anchor="middle" x="3366.5" y="-86.3" font-family="Times,serif" font-size="14.00">DD:intersliceWtrF</text>
</g>
<!-- alpha_i -->
<g id="node29" class="node">
<title>alpha_i</title>
<polygon fill="#bbffff" stroke="black" points="3550.5,-108 3458.5,-108 3458.5,-72 3550.5,-72 3550.5,-108"/>
<text text-anchor="middle" x="3504.5" y="-86.3" font-family="Times,serif" font-size="14.00">DD:angleA</text>
</g>
<!-- beta_i -->
<g id="node30" class="node">
<title>beta_i</title>
<polygon fill="#bbffff" stroke="black" points="3662,-108 3569,-108 3569,-72 3662,-72 3662,-108"/>
<text text-anchor="middle" x="3615.5" y="-86.3" font-family="Times,serif" font-size="14.00">DD:angleB</text>
</g>
<!-- b_i -->
<g id="node31" class="node">
<title>b_i</title>
<polygon fill="#bbffff" stroke="black" points="3780.5,-108 3680.5,-108 3680.5,-72 3780.5,-72 3780.5,-108"/>
<text text-anchor="middle" x="3730.5" y="-86.3" font-family="Times,serif" font-size="14.00">DD:lengthB</text>
</g>
<!-- l_bi -->
<g id="node32" class="node">
<title>l_bi</title>
<polygon fill="#bbffff" stroke="black" points="3906,-108 3799,-108 3799,-72 3906,-72 3906,-108"/>
<text text-anchor="middle" x="3852.5" y="-86.3" font-family="Times,serif" font-size="14.00">DD:lengthLb</text>
</g>
<!-- l_si -->
<g id="node33" class="node">
<title>l_si</title>
<polygon fill="#bbffff" stroke="black" points="4030.5,-108 3924.5,-108 3924.5,-72 4030.5,-72 4030.5,-108"/>
<text text-anchor="middle" x="3977.5" y="-86.3" font-family="Times,serif" font-size="14.00">DD:lengthLs</text>
</g>
<!-- h_i -->
<g id="node34" class="node">
<title>h_i</title>
<polygon fill="#bbffff" stroke="black" points="4160.5,-108 4048.5,-108 4048.5,-72 4160.5,-72 4160.5,-108"/>
<text text-anchor="middle" x="4104.5" y="-86.3" font-family="Times,serif" font-size="14.00">DD:slcHeight</text>
</g>
<!-- sigma -->
<g id="node35" class="node">
<title>sigma</title>
<polygon fill="#bbffff" stroke="black" points="4306,-108 4179,-108 4179,-72 4306,-72 4306,-108"/>
<text text-anchor="middle" x="4242.5" y="-86.3" font-family="Times,serif" font-size="14.00">DD:normStress</text>
</g>
<!-- tau -->
<g id="node36" class="node">
<title>tau</title>
<polygon fill="#bbffff" stroke="black" points="4446.5,-108 4324.5,-108 4324.5,-72 4446.5,-72 4446.5,-108"/>
<text text-anchor="middle" x="4385.5" y="-86.3" font-family="Times,serif" font-size="14.00">DD:tangStress</text>
</g>
<!-- torque -->
<g id="node37" class="node">
<title>torque</title>
<polygon fill="#bbffff" stroke="black" points="4556,-108 4465,-108 4465,-72 4556,-72 4556,-108"/>
<text text-anchor="middle" x="4510.5" y="-86.3" font-family="Times,serif" font-size="14.00">DD:torque</text>
</g>
<!-- f_i -->
<g id="node38" class="node">
<title>f_i</title>
<polygon fill="#bbffff" stroke="black" points="4716.5,-108 4574.5,-108 4574.5,-72 4716.5,-72 4716.5,-108"/>
<text text-anchor="middle" x="4645.5" y="-86.3" font-family="Times,serif" font-size="14.00">DD:ratioVariation</text>
</g>
<!-- Phi -->
<g id="node39" class="node">
<title>Phi</title>
<polygon fill="#bbffff" stroke="black" points="4876.5,-108 4734.5,-108 4734.5,-72 4876.5,-72 4876.5,-108"/>
<text text-anchor="middle" x="4805.5" y="-86.3" font-family="Times,serif" font-size="14.00">DD:convertFunc1</text>
</g>
<!-- Psi -->
<g id="node40" class="node">
<title>Psi</title>
<polygon fill="#bbffff" stroke="black" points="5036.5,-108 4894.5,-108 4894.5,-72 5036.5,-72 5036.5,-108"/>
<text text-anchor="middle" x="4965.5" y="-86.3" font-family="Times,serif" font-size="14.00">DD:convertFunc2</text>
</g>
<!-- F_xG -->
<g id="node41" class="node">
<title>F_xG</title>
<polygon fill="#bbffff" stroke="black" points="5222,-108 5055,-108 5055,-72 5222,-72 5222,-108"/>
<text text-anchor="middle" x="5138.5" y="-86.3" font-family="Times,serif" font-size="14.00">DD:nrmForceSumDD</text>
</g>
<!-- F_xH -->
<g id="node42" class="node">
<title>F_xH</title>
<polygon fill="#bbffff" stroke="black" points="5404.5,-108 5240.5,-108 5240.5,-72 5404.5,-72 5404.5,-108"/>
<text text-anchor="middle" x="5322.5" y="-86.3" font-family="Times,serif" font-size="14.00">DD:watForceSumDD</text>
</g>
<!-- hR -->
<g id="node43" class="node">
<title>hR</title>
<polygon fill="#bbffff" stroke="black" points="5596,-108 5423,-108 5423,-72 5596,-72 5596,-108"/>
<text text-anchor="middle" x="5509.5" y="-86.3" font-family="Times,serif" font-size="14.00">DD:sliceHghtRightDD</text>
</g>
<!-- hL -->
<g id="node44" class="node">
<title>hL</title>
<polygon fill="#bbffff" stroke="black" points="5777,-108 5614,-108 5614,-72 5777,-72 5777,-108"/>
<text text-anchor="middle" x="5695.5" y="-86.3" font-family="Times,serif" font-size="14.00">DD:sliceHghtLeftDD</text>
</g>
<!-- factOfSafetyTM -->
<g id="node45" class="node">
<title>factOfSafetyTM</title>
<polygon fill="pink" stroke="black" points="5929.5,-108 5795.5,-108 5795.5,-72 5929.5,-72 5929.5,-108"/>
<text text-anchor="middle" x="5862.5" y="-86.3" font-family="Times,serif" font-size="14.00">TM:factOfSafety</text>
</g>
<!-- equilibriumCS -->
<g id="node46" class="node">
<title>equilibriumCS</title>
<polygon fill="pink" stroke="black" points="6075,-108 5948,-108 5948,-72 6075,-72 6075,-108"/>
<text text-anchor="middle" x="6011.5" y="-86.3" font-family="Times,serif" font-size="14.00">TM:equilibrium</text>
</g>
<!-- mcShrSrgth -->
<g id="node47" class="node">
<title>mcShrSrgth</title>
<polygon fill="pink" stroke="black" points="6230,-108 6093,-108 6093,-72 6230,-72 6230,-108"/>
<text text-anchor="middle" x="6161.5" y="-86.3" font-family="Times,serif" font-size="14.00">TM:mcShrStrgth</text>
</g>
<!-- effectiveStressTM -->
<g id="node48" class="node">
<title>effectiveStressTM</title>
<polygon fill="pink" stroke="black" points="6356.5,-108 6248.5,-108 6248.5,-72 6356.5,-72 6356.5,-108"/>
<text text-anchor="middle" x="6302.5" y="-86.3" font-family="Times,serif" font-size="14.00">TM:effStress</text>
</g>
<!-- newtonSL -->
<g id="node49" class="node">
<title>newtonSL</title>
<polygon fill="pink" stroke="black" points="6558,-108 6375,-108 6375,-72 6558,-72 6558,-108"/>
<text text-anchor="middle" x="6466.5" y="-86.3" font-family="Times,serif" font-size="14.00">TM:NewtonSecLawMot</text>
</g>
<!-- normForcEq -->
<g id="node50" class="node">
<title>normForcEq</title>
<polygon fill="palegreen" stroke="black" points="6708.5,-108 6576.5,-108 6576.5,-72 6708.5,-72 6708.5,-108"/>
<text text-anchor="middle" x="6642.5" y="-86.3" font-family="Times,serif" font-size="14.00">GD:normForcEq</text>
</g>
<!-- bsShrFEq -->
<g id="node51" class="node">
<title>bsShrFEq</title>
<polygon fill="palegreen" stroke="black" points="6842,-108 6727,-108 6727,-72 6842,-72 6842,-108"/>
<text text-anchor="middle" x="6784.5" y="-86.3" font-family="Times,serif" font-size="14.00">GD:bsShrFEq</text>
</g>
<!-- resShr -->
<g id="node52" class="node">
<title>resShr</title>
<polygon fill="palegreen" stroke="black" points="6952.5,-108 6860.5,-108 6860.5,-72 6952.5,-72 6952.5,-108"/>
<text text-anchor="middle" x="6906.5" y="-86.3" font-family="Times,serif" font-size="14.00">GD:resShr</text>
</g>
<!-- mobShr -->
<g id="node53" class="node">
<title>mobShr</title>
<polygon fill="palegreen" stroke="black" points="7070.5,-108 6970.5,-108 6970.5,-72 7070.5,-72 7070.5,-108"/>
<text text-anchor="middle" x="7020.5" y="-86.3" font-family="Times,serif" font-size="14.00">GD:mobShr</text>
</g>
<!-- effNormF -->
<g id="node54" class="node">
<title>effNormF</title>
<polygon fill="palegreen" stroke="black" points="7200.5,-108 7088.5,-108 7088.5,-72 7200.5,-72 7200.5,-108"/>
<text text-anchor="middle" x="7144.5" y="-86.3" font-family="Times,serif" font-size="14.00">GD:effNormF</text>
</g>
<!-- resShearWO -->
<g id="node55" class="node">
<title>resShearWO</title>
<polygon fill="palegreen" stroke="black" points="7352.5,-108 7218.5,-108 7218.5,-72 7352.5,-72 7352.5,-108"/>
<text text-anchor="middle" x="7285.5" y="-86.3" font-family="Times,serif" font-size="14.00">GD:resShearWO</text>
</g>
<!-- mobShearWO -->
<g id="node56" class="node">
<title>mobShearWO</title>
<polygon fill="palegreen" stroke="black" points="7512.5,-108 7370.5,-108 7370.5,-72 7512.5,-72 7512.5,-108"/>
<text text-anchor="middle" x="7441.5" y="-86.3" font-family="Times,serif" font-size="14.00">GD:mobShearWO</text>
</g>
<!-- X_i -->
<g id="node57" class="node">
<title>X_i</title>
<polygon fill="palegreen" stroke="black" points="7648,-108 7531,-108 7531,-72 7648,-72 7648,-108"/>
<text text-anchor="middle" x="7589.5" y="-86.3" font-family="Times,serif" font-size="14.00">GD:normShrR</text>
</g>
<!-- momentEql -->
<g id="node58" class="node">
<title>momentEql</title>
<polygon fill="palegreen" stroke="black" points="7792.5,-108 7666.5,-108 7666.5,-72 7792.5,-72 7792.5,-108"/>
<text text-anchor="middle" x="7729.5" y="-86.3" font-family="Times,serif" font-size="14.00">GD:momentEql</text>
</g>
<!-- weight -->
<g id="node59" class="node">
<title>weight</title>
<polygon fill="palegreen" stroke="black" points="7902.5,-108 7810.5,-108 7810.5,-72 7902.5,-72 7902.5,-108"/>
<text text-anchor="middle" x="7856.5" y="-86.3" font-family="Times,serif" font-size="14.00">GD:weight</text>
</g>
<!-- sliceWght -->
<g id="node60" class="node">
<title>sliceWght</title>
<polygon fill="palegreen" stroke="black" points="8034.5,-108 7920.5,-108 7920.5,-72 8034.5,-72 8034.5,-108"/>
<text text-anchor="middle" x="7977.5" y="-86.3" font-family="Times,serif" font-size="14.00">GD:sliceWght</text>
</g>
<!-- pressure -->
<g id="node61" class="node">
<title>pressure</title>
<polygon fill="palegreen" stroke="black" points="8176.5,-108 8052.5,-108 8052.5,-72 8176.5,-72 8176.5,-108"/>
<text text-anchor="middle" x="8114.5" y="-86.3" font-family="Times,serif" font-size="14.00">GD:hsPressure</text>
</g>
<!-- baseWtrF -->
<g id="node62" class="node">
<title>baseWtrF</title>
<polygon fill="palegreen" stroke="black" points="8308,-108 8195,-108 8195,-72 8308,-72 8308,-108"/>
<text text-anchor="middle" x="8251.5" y="-86.3" font-family="Times,serif" font-size="14.00">GD:baseWtrF</text>
</g>
<!-- srfWtrF -->
<g id="node63" class="node">
<title>srfWtrF</title>
<polygon fill="palegreen" stroke="black" points="8426.5,-108 8326.5,-108 8326.5,-72 8426.5,-72 8426.5,-108"/>
<text text-anchor="middle" x="8376.5" y="-86.3" font-family="Times,serif" font-size="14.00">GD:srfWtrF</text>
</g>
<!-- nrmShrForNumRC -->
<g id="node64" class="node">
<title>nrmShrForNumRC</title>
<polygon fill="#fff68f" stroke="black" points="1133.5,-36 979.5,-36 979.5,0 1133.5,0 1133.5,-36"/>
<text text-anchor="middle" x="1056.5" y="-14.3" font-family="Times,serif" font-size="14.00">IM:nrmShrForNum</text>
</g>
<!-- nrmShrForDenRC -->
<g id="node65" class="node">
<title>nrmShrForDenRC</title>
<polygon fill="#fff68f" stroke="black" points="1299.5,-36 1151.5,-36 1151.5,0 1299.5,0 1299.5,-36"/>
<text text-anchor="middle" x="1225.5" y="-14.3" font-family="Times,serif" font-size="14.00">IM:nrmShrForDen</text>
</g>
<!-- readAndStore -->
<g id="node66" class="node">
<title>readAndStore</title>
<polygon fill="ivory" stroke="black" points="8584.5,-108 8444.5,-108 8444.5,-72 8584.5,-72 8584.5,-108"/>
<text text-anchor="middle" x="8514.5" y="-86.3" font-family="Times,serif" font-size="14.00">FR:readAndStore</text>
</g>
<!-- verifyInput -->
<g id="node67" class="node">
<title>verifyInput</title>
<polygon fill="ivory" stroke="black" points="8724,-108 8603,-108 8603,-72 8724,-72 8724,-108"/>
<text text-anchor="middle" x="8663.5" y="-86.3" font-family="Times,serif" font-size="14.00">FR:verifyInput</text>
</g>
<!-- verifyOutput -->
<g id="node68" class="node">
<title>verifyOutput</title>
<polygon fill="ivory" stroke="black" points="8875,-108 8742,-108 8742,-72 8875,-72 8875,-108"/>
<text text-anchor="middle" x="8808.5" y="-86.3" font-family="Times,serif" font-size="14.00">FR:verifyOutput</text>
</g>
<!-- correct -->
<g id="node69" class="node">
<title>correct</title>
<polygon fill="ivory" stroke="black" points="8997.5,-108 8893.5,-108 8893.5,-72 8997.5,-72 8997.5,-108"/>
<text text-anchor="middle" x="8945.5" y="-86.3" font-family="Times,serif" font-size="14.00">NFR:correct</text>
</g>
<!-- understandable -->
<g id="node70" class="node">
<title>understandable</title>
<polygon fill="ivory" stroke="black" points="9181,-108 9016,-108 9016,-72 9181,-72 9181,-108"/>
<text text-anchor="middle" x="9098.5" y="-86.3" font-family="Times,serif" font-size="14.00">NFR:understandable</text>
</g>
<!-- reusable -->
<g id="node71" class="node">
<title>reusable</title>
<polygon fill="ivory" stroke="black" points="9314,-108 9199,-108 9199,-72 9314,-72 9314,-108"/>
<text text-anchor="middle" x="9256.5" y="-86.3" font-family="Times,serif" font-size="14.00">NFR:reusable</text>
</g>
<!-- maintainable -->
<g id="node72" class="node">
<title>maintainable</title>
<polygon fill="ivory" stroke="black" points="9478.5,-108 9332.5,-108 9332.5,-72 9478.5,-72 9478.5,-108"/>
<text text-anchor="middle" x="9405.5" y="-86.3" font-family="Times,serif" font-size="14.00">NFR:maintainable</text>
</g>
<!-- identifyCritAndFS -->
<g id="node73" class="node">
<title>identifyCritAndFS</title>
<polygon fill="#ffb90f" stroke="black" points="9668.5,-108 9496.5,-108 9496.5,-72 9668.5,-72 9668.5,-108"/>
<text text-anchor="middle" x="9582.5" y="-86.3" font-family="Times,serif" font-size="14.00">GS:identifyCritAndFS</text>
</g>
<!-- determineNormalF -->
<g id="node74" class="node">
<title>determineNormalF</title>
<polygon fill="#ffb90f" stroke="black" points="9866,-108 9687,-108 9687,-72 9866,-72 9866,-108"/>
<text text-anchor="middle" x="9776.5" y="-86.3" font-family="Times,serif" font-size="14.00">GS:determineNormalF</text>
</g>
<!-- determineShearF -->
<g id="node75" class="node">
<title>determineShearF</title>
<polygon fill="#ffb90f" stroke="black" points="10051,-108 9884,-108 9884,-72 10051,-72 10051,-108"/>
<text text-anchor="middle" x="9967.5" y="-86.3" font-family="Times,serif" font-size="14.00">GS:determineShearF</text>
</g>
</g>
</svg>
