<?xml version="1.0" encoding="UTF-8" standalone="no"?>
<!DOCTYPE svg PUBLIC "-//W3C//DTD SVG 1.1//EN"
 "http://www.w3.org/Graphics/SVG/1.1/DTD/svg11.dtd">
<!-- Generated by graphviz version 2.43.0 (0)
 -->
<!-- Title: avsall Pages: 1 -->
<svg width="462pt" height="116pt"
 viewBox="0.00 0.00 461.52 116.00" xmlns="http://www.w3.org/2000/svg" xmlns:xlink="http://www.w3.org/1999/xlink">
<g id="graph0" class="graph" transform="scale(1 1) rotate(0) translate(4 112)">
<title>avsall</title>
<polygon fill="white" stroke="transparent" points="-4,4 -4,-112 457.52,-112 457.52,4 -4,4"/>
<!-- dataDefn -->
<g id="node1" class="node">
<title>dataDefn</title>
<polygon fill="#bbffff" stroke="black" points="163,-108 0,-108 0,-72 163,-72 163,-108"/>
<text text-anchor="middle" x="81.5" y="-86.3" font-family="Times,serif" font-size="14.00">DD:sliceHghtLeftDD</text>
</g>
<!-- instance -->
<g id="node2" class="node">
<title>instance</title>
<polygon fill="lavender" stroke="black" points="291,-36 170,-36 170,0 291,0 291,-36"/>
<text text-anchor="middle" x="230.5" y="-14.3" font-family="Times,serif" font-size="14.00">UC:UC_2donly</text>
</g>
<!-- dataDefn&#45;&gt;instance -->
<g id="edge1" class="edge">
<title>dataDefn:alpha_i&#45;&gt;instance:assumpSBSBISL</title>
<path fill="none" stroke="black" d="M106.16,-71.88C124.52,-62.31 149.84,-50.3 172.97,-40.15"/>
<polygon fill="black" stroke="black" points="174.6,-43.26 182.39,-36.07 171.82,-36.83 174.6,-43.26"/>
</g>
<!-- dataDefn&#45;&gt;instance -->
<g id="edge2" class="edge">
<title>dataDefn:beta_i&#45;&gt;instance:assumpSBSBISL</title>
<path fill="none" stroke="black" d="M117.95,-71.88C138.14,-62.39 163.42,-50.51 184.91,-40.42"/>
<polygon fill="black" stroke="black" points="186.61,-43.49 194.17,-36.07 183.63,-37.15 186.61,-43.49"/>
</g>
<!-- dataDefn&#45;&gt;instance -->
<g id="edge3" class="edge">
<title>dataDefn:h_i&#45;&gt;instance:assumpSBSBISL</title>
<path fill="none" stroke="black" d="M129.74,-71.88C151.64,-62.51 176.81,-50.81 196.7,-40.8"/>
<polygon fill="black" stroke="black" points="198.41,-43.86 205.72,-36.19 195.22,-37.63 198.41,-43.86"/>
</g>
<!-- instance&#45;&gt;instance -->
<g id="edge38" class="edge">
<title>instance:LC_inhomogeneous&#45;&gt;instance:assumpSLH</title>
<path fill="none" stroke="black" d="M291.06,-20.53C301.64,-20.19 309,-19.35 309,-18 309,-17.16 306.13,-16.51 301.39,-16.06"/>
<polygon fill="black" stroke="black" points="301.25,-12.55 291.06,-15.47 300.84,-19.54 301.25,-12.55"/>
</g>
<!-- instance&#45;&gt;instance -->
<g id="edge39" class="edge">
<title>instance:LC_seismic&#45;&gt;instance:assumpSF</title>
<path fill="none" stroke="black" d="M291.28,-23.4C311.17,-23.37 327,-21.57 327,-18 327,-15.07 316.35,-13.33 301.54,-12.79"/>
<polygon fill="black" stroke="black" points="301.35,-9.28 291.28,-12.6 301.22,-16.28 301.35,-9.28"/>
</g>
<!-- instance&#45;&gt;instance -->
<g id="edge40" class="edge">
<title>instance:LC_external&#45;&gt;instance:assumpSL</title>
<path fill="none" stroke="black" d="M291.17,-25.92C319.83,-26.84 345,-24.2 345,-18 345,-12.55 325.56,-9.85 301.39,-9.9"/>
<polygon fill="black" stroke="black" points="301.11,-6.4 291.17,-10.08 301.23,-13.4 301.11,-6.4"/>
</g>
<!-- instance&#45;&gt;instance -->
<g id="edge41" class="edge">
<title>instance:UC_normshearlinear&#45;&gt;instance:assumpINSFL</title>
<path fill="none" stroke="black" d="M291.15,-28.08C328.06,-30.42 363,-27.06 363,-18 363,-9.79 334.31,-6.26 301.45,-7.41"/>
<polygon fill="black" stroke="black" points="300.96,-3.93 291.15,-7.92 301.31,-10.92 300.96,-3.93"/>
</g>
<!-- instance&#45;&gt;instance -->
<g id="edge42" class="edge">
<title>instance:UC_2donly&#45;&gt;instance:assumpENSL</title>
<path fill="none" stroke="black" d="M291.16,-29.94C335.97,-34.04 381,-30.06 381,-18 381,-6.86 342.57,-2.61 301.39,-5.26"/>
<polygon fill="black" stroke="black" points="300.86,-1.79 291.16,-6.06 301.4,-8.77 300.86,-1.79"/>
</g>
<!-- theory -->
<g id="node3" class="node">
<title>theory</title>
<polygon fill="#fff68f" stroke="black" points="279.5,-108 181.5,-108 181.5,-72 279.5,-72 279.5,-108"/>
<text text-anchor="middle" x="230.5" y="-86.3" font-family="Times,serif" font-size="14.00">IM:crtSlpId</text>
</g>
<!-- theory&#45;&gt;instance -->
<g id="edge4" class="edge">
<title>theory:equilibriumCS&#45;&gt;instance:assumpENSL</title>
<path fill="none" stroke="black" d="M181.35,-88.31C-42.64,-81.71 -49.88,-30.01 159.65,-20.5"/>
<polygon fill="black" stroke="black" points="159.94,-23.99 169.79,-20.08 159.65,-17 159.94,-23.99"/>
</g>
<!-- theory&#45;&gt;instance -->
<g id="edge5" class="edge">
<title>theory:mcShrSrgth&#45;&gt;instance:assumpSBSBISL</title>
<path fill="none" stroke="black" d="M181.46,-88.21C-24.61,-81.29 -31.89,-30.73 159.62,-20.72"/>
<polygon fill="black" stroke="black" points="159.97,-24.21 169.79,-20.23 159.63,-17.21 159.97,-24.21"/>
</g>
<!-- theory&#45;&gt;instance -->
<g id="edge6" class="edge">
<title>theory:resShr&#45;&gt;instance:assumpSLH</title>
<path fill="none" stroke="black" d="M181.29,-88.09C-6.63,-80.77 -13.81,-31.5 159.76,-20.98"/>
<polygon fill="black" stroke="black" points="160.01,-24.47 169.8,-20.42 159.62,-17.48 160.01,-24.47"/>
</g>
<!-- theory&#45;&gt;instance -->
<g id="edge7" class="edge">
<title>theory:resShr&#45;&gt;instance:assumpSP</title>
<path fill="none" stroke="black" d="M181.32,-87.94C11.34,-80.21 4.21,-32.39 159.93,-21.3"/>
<polygon fill="black" stroke="black" points="160.17,-24.79 169.93,-20.65 159.72,-17.8 160.17,-24.79"/>
</g>
<!-- theory&#45;&gt;instance -->
<g id="edge8" class="edge">
<title>theory:resShr&#45;&gt;instance:assumpSLI</title>
<path fill="none" stroke="black" d="M181.33,-87.76C29.46,-79.58 22.25,-33.52 159.7,-21.74"/>
<polygon fill="black" stroke="black" points="160.15,-25.22 169.85,-20.95 159.6,-18.24 160.15,-25.22"/>
</g>
<!-- theory&#45;&gt;instance -->
<g id="edge9" class="edge">
<title>theory:resShr&#45;&gt;instance:assumpPSC</title>
<path fill="none" stroke="black" d="M181.47,-87.52C47.46,-78.87 40.25,-34.75 159.84,-22.29"/>
<polygon fill="black" stroke="black" points="160.2,-25.77 169.83,-21.34 159.55,-18.8 160.2,-25.77"/>
</g>
<!-- theory&#45;&gt;instance -->
<g id="edge10" class="edge">
<title>theory:mobShr&#45;&gt;instance:assumpFOS</title>
<path fill="none" stroke="black" d="M181.43,-87.2C65.59,-78.02 58.34,-36.31 159.68,-23.06"/>
<polygon fill="black" stroke="black" points="160.3,-26.51 169.82,-21.87 159.48,-19.56 160.3,-26.51"/>
</g>
<!-- theory&#45;&gt;instance -->
<g id="edge11" class="edge">
<title>theory:effNormF&#45;&gt;instance:assumpPSC</title>
<path fill="none" stroke="black" d="M181.31,-86.75C83.61,-76.98 76.46,-38.11 159.86,-24.08"/>
<polygon fill="black" stroke="black" points="160.53,-27.52 169.9,-22.57 159.49,-20.6 160.53,-27.52"/>
</g>
<!-- theory&#45;&gt;instance -->
<g id="edge12" class="edge">
<title>theory:X_i&#45;&gt;instance:assumpINSFL</title>
<path fill="none" stroke="black" d="M181.31,-86.13C101.83,-75.81 94.62,-40.51 159.66,-25.67"/>
<polygon fill="black" stroke="black" points="160.67,-29.03 169.78,-23.63 159.29,-22.17 160.67,-29.03"/>
</g>
<!-- theory&#45;&gt;instance -->
<g id="edge13" class="edge">
<title>theory:momentEql&#45;&gt;instance:assumpNESSS</title>
<path fill="none" stroke="black" d="M181.27,-85.19C120,-74.41 112.85,-43.52 159.83,-28.05"/>
<polygon fill="black" stroke="black" points="160.93,-31.38 169.58,-25.26 159.01,-24.65 160.93,-31.38"/>
</g>
<!-- theory&#45;&gt;instance -->
<g id="edge14" class="edge">
<title>theory:momentEql&#45;&gt;instance:assumpHFSM</title>
<path fill="none" stroke="black" d="M181.45,-83.74C138.17,-72.84 131.19,-47.52 160.52,-31.97"/>
<polygon fill="black" stroke="black" points="162.04,-35.13 169.75,-27.86 159.19,-28.73 162.04,-35.13"/>
</g>
<!-- theory&#45;&gt;instance -->
<g id="edge15" class="edge">
<title>theory:sliceWght&#45;&gt;instance:assumpSLH</title>
<path fill="none" stroke="black" d="M181.4,-81.11C156.69,-71.18 150.19,-53.76 161.9,-39.89"/>
<polygon fill="black" stroke="black" points="164.5,-42.26 169.68,-33.02 159.87,-37.01 164.5,-42.26"/>
</g>
<!-- theory&#45;&gt;instance -->
<g id="edge16" class="edge">
<title>theory:sliceWght&#45;&gt;instance:assumpPSC</title>
<path fill="none" stroke="black" d="M181.38,-75.5C170.42,-66.75 167.21,-55.07 171.74,-44.6"/>
<polygon fill="black" stroke="black" points="174.72,-46.44 177.37,-36.18 168.9,-42.55 174.72,-46.44"/>
</g>
<!-- theory&#45;&gt;instance -->
<g id="edge17" class="edge">
<title>theory:sliceWght&#45;&gt;instance:assumpSBSBISL</title>
<path fill="none" stroke="black" d="M189.09,-71.7C183.34,-63.73 181.83,-54.1 184.58,-45.26"/>
<polygon fill="black" stroke="black" points="187.83,-46.61 189.23,-36.1 181.59,-43.44 187.83,-46.61"/>
</g>
<!-- theory&#45;&gt;instance -->
<g id="edge18" class="edge">
<title>theory:sliceWght&#45;&gt;instance:assumpWIBE</title>
<path fill="none" stroke="black" d="M200.92,-71.7C196.86,-63.81 195.76,-54.3 197.64,-45.55"/>
<polygon fill="black" stroke="black" points="200.95,-46.7 201.02,-36.1 194.36,-44.34 200.95,-46.7"/>
</g>
<!-- theory&#45;&gt;instance -->
<g id="edge19" class="edge">
<title>theory:sliceWght&#45;&gt;instance:assumpWISE</title>
<path fill="none" stroke="black" d="M212.75,-71.7C210.37,-63.98 209.69,-54.71 210.71,-46.11"/>
<polygon fill="black" stroke="black" points="214.19,-46.61 212.81,-36.1 207.34,-45.17 214.19,-46.61"/>
</g>
<!-- theory&#45;&gt;instance -->
<g id="edge20" class="edge">
<title>theory:baseWtrF&#45;&gt;instance:assumpPSC</title>
<path fill="none" stroke="black" d="M224.58,-71.7C223.79,-63.98 223.56,-54.71 223.9,-46.11"/>
<polygon fill="black" stroke="black" points="227.4,-46.32 224.6,-36.1 220.42,-45.84 227.4,-46.32"/>
</g>
<!-- theory&#45;&gt;instance -->
<g id="edge21" class="edge">
<title>theory:baseWtrF&#45;&gt;instance:assumpSBSBISL</title>
<path fill="none" stroke="black" d="M236.42,-71.7C237.21,-63.98 237.44,-54.71 237.1,-46.11"/>
<polygon fill="black" stroke="black" points="240.58,-45.84 236.4,-36.1 233.6,-46.32 240.58,-45.84"/>
</g>
<!-- theory&#45;&gt;instance -->
<g id="edge22" class="edge">
<title>theory:baseWtrF&#45;&gt;instance:assumpWIBE</title>
<path fill="none" stroke="black" d="M248.25,-71.7C250.63,-63.98 251.31,-54.71 250.29,-46.11"/>
<polygon fill="black" stroke="black" points="253.66,-45.17 248.19,-36.1 246.81,-46.61 253.66,-45.17"/>
</g>
<!-- theory&#45;&gt;instance -->
<g id="edge23" class="edge">
<title>theory:baseWtrF&#45;&gt;instance:assumpHFSM</title>
<path fill="none" stroke="black" d="M260.08,-71.7C264.14,-63.81 265.24,-54.3 263.36,-45.55"/>
<polygon fill="black" stroke="black" points="266.64,-44.34 259.98,-36.1 260.05,-46.7 266.64,-44.34"/>
</g>
<!-- theory&#45;&gt;instance -->
<g id="edge24" class="edge">
<title>theory:srfWtrF&#45;&gt;instance:assumpPSC</title>
<path fill="none" stroke="black" d="M271.91,-71.7C277.66,-63.73 279.17,-54.1 276.42,-45.26"/>
<polygon fill="black" stroke="black" points="279.41,-43.44 271.77,-36.1 273.17,-46.61 279.41,-43.44"/>
</g>
<!-- theory&#45;&gt;instance -->
<g id="edge25" class="edge">
<title>theory:srfWtrF&#45;&gt;instance:assumpSBSBISL</title>
<path fill="none" stroke="black" d="M279.62,-75.5C290.58,-66.75 293.79,-55.07 289.26,-44.6"/>
<polygon fill="black" stroke="black" points="292.1,-42.55 283.63,-36.18 286.28,-46.44 292.1,-42.55"/>
</g>
<!-- theory&#45;&gt;instance -->
<g id="edge26" class="edge">
<title>theory:srfWtrF&#45;&gt;instance:assumpWISE</title>
<path fill="none" stroke="black" d="M279.6,-81.11C304.31,-71.18 310.81,-53.76 299.1,-39.89"/>
<polygon fill="black" stroke="black" points="301.13,-37.01 291.32,-33.02 296.5,-42.26 301.13,-37.01"/>
</g>
<!-- theory&#45;&gt;instance -->
<g id="edge27" class="edge">
<title>theory:srfWtrF&#45;&gt;instance:assumpHFSM</title>
<path fill="none" stroke="black" d="M279.55,-83.74C322.83,-72.84 329.81,-47.52 300.48,-31.97"/>
<polygon fill="black" stroke="black" points="301.81,-28.73 291.25,-27.86 298.96,-35.13 301.81,-28.73"/>
</g>
<!-- theory&#45;&gt;instance -->
<g id="edge28" class="edge">
<title>theory:FS&#45;&gt;instance:assumpINSFL</title>
<path fill="none" stroke="black" d="M279.73,-85.19C341,-74.41 348.15,-43.52 301.17,-28.05"/>
<polygon fill="black" stroke="black" points="301.99,-24.65 291.42,-25.26 300.07,-31.38 301.99,-24.65"/>
</g>
<!-- theory&#45;&gt;instance -->
<g id="edge29" class="edge">
<title>theory:FS&#45;&gt;instance:assumpES</title>
<path fill="none" stroke="black" d="M279.69,-86.13C359.17,-75.81 366.38,-40.51 301.34,-25.67"/>
<polygon fill="black" stroke="black" points="301.71,-22.17 291.22,-23.63 300.33,-29.03 301.71,-22.17"/>
</g>
<!-- theory&#45;&gt;instance -->
<g id="edge30" class="edge">
<title>theory:FS&#45;&gt;instance:assumpSF</title>
<path fill="none" stroke="black" d="M279.69,-86.75C377.39,-76.98 384.54,-38.11 301.14,-24.08"/>
<polygon fill="black" stroke="black" points="301.51,-20.6 291.1,-22.57 300.47,-27.52 301.51,-20.6"/>
</g>
<!-- theory&#45;&gt;instance -->
<g id="edge31" class="edge">
<title>theory:FS&#45;&gt;instance:assumpSL</title>
<path fill="none" stroke="black" d="M279.57,-87.2C395.41,-78.02 402.66,-36.31 301.32,-23.06"/>
<polygon fill="black" stroke="black" points="301.52,-19.56 291.18,-21.87 300.7,-26.51 301.52,-19.56"/>
</g>
<!-- theory&#45;&gt;instance -->
<g id="edge32" class="edge">
<title>theory:nrmShrForIM&#45;&gt;instance:assumpINSFL</title>
<path fill="none" stroke="black" d="M279.53,-87.52C413.54,-78.87 420.75,-34.75 301.16,-22.29"/>
<polygon fill="black" stroke="black" points="301.45,-18.8 291.17,-21.34 300.8,-25.77 301.45,-18.8"/>
</g>
<!-- theory&#45;&gt;instance -->
<g id="edge33" class="edge">
<title>theory:nrmShrForIM&#45;&gt;instance:assumpES</title>
<path fill="none" stroke="black" d="M279.67,-87.76C431.54,-79.58 438.75,-33.52 301.3,-21.74"/>
<polygon fill="black" stroke="black" points="301.4,-18.24 291.15,-20.95 300.85,-25.22 301.4,-18.24"/>
</g>
<!-- theory&#45;&gt;instance -->
<g id="edge34" class="edge">
<title>theory:nrmShrForIM&#45;&gt;instance:assumpSF</title>
<path fill="none" stroke="black" d="M279.68,-87.94C449.66,-80.21 456.79,-32.39 301.07,-21.3"/>
<polygon fill="black" stroke="black" points="301.28,-17.8 291.07,-20.65 300.83,-24.79 301.28,-17.8"/>
</g>
<!-- theory&#45;&gt;instance -->
<g id="edge35" class="edge">
<title>theory:nrmShrForIM&#45;&gt;instance:assumpSL</title>
<path fill="none" stroke="black" d="M279.71,-88.09C467.63,-80.77 474.81,-31.5 301.24,-20.98"/>
<polygon fill="black" stroke="black" points="301.38,-17.48 291.2,-20.42 300.99,-24.47 301.38,-17.48"/>
</g>
<!-- theory&#45;&gt;instance -->
<g id="edge36" class="edge">
<title>theory:intsliceFsRC&#45;&gt;instance:assumpES</title>
<path fill="none" stroke="black" d="M279.54,-88.21C485.61,-81.29 492.89,-30.73 301.38,-20.72"/>
<polygon fill="black" stroke="black" points="301.37,-17.21 291.21,-20.23 301.03,-24.21 301.37,-17.21"/>
</g>
<!-- theory&#45;&gt;instance -->
<g id="edge37" class="edge">
<title>theory:crtSlpIdIM&#45;&gt;instance:assumpSSC</title>
<path fill="none" stroke="black" d="M279.65,-88.31C503.64,-81.71 510.88,-30.01 301.35,-20.5"/>
<polygon fill="black" stroke="black" points="301.35,-17 291.21,-20.08 301.06,-23.99 301.35,-17"/>
</g>
</g>
</svg>
