<?xml version="1.0" encoding="UTF-8" standalone="no"?>
<!DOCTYPE svg PUBLIC "-//W3C//DTD SVG 1.1//EN"
 "http://www.w3.org/Graphics/SVG/1.1/DTD/svg11.dtd">
<!-- Generated by graphviz version 2.43.0 (0)
 -->
<!-- Title: avsall Pages: 1 -->
<svg width="8928pt" height="116pt"
 viewBox="0.00 0.00 8927.50 116.00" xmlns="http://www.w3.org/2000/svg" xmlns:xlink="http://www.w3.org/1999/xlink">
<g id="graph0" class="graph" transform="scale(1 1) rotate(0) translate(4 112)">
<title>avsall</title>
<polygon fill="white" stroke="transparent" points="-4,4 -4,-112 8923.5,-112 8923.5,4 -4,4"/>
<!-- alpha_i -->
<g id="node1" class="node">
<title>alpha_i</title>
<polygon fill="#bbffff" stroke="black" points="247.5,-108 155.5,-108 155.5,-72 247.5,-72 247.5,-108"/>
<text text-anchor="middle" x="201.5" y="-86.3" font-family="Times,serif" font-size="14.00">DD:angleA</text>
</g>
<!-- assumpSBSBISL -->
<g id="node2" class="node">
<title>assumpSBSBISL</title>
<polygon fill="mistyrose" stroke="black" points="436.5,-36 286.5,-36 286.5,0 436.5,0 436.5,-36"/>
<text text-anchor="middle" x="361.5" y="-14.3" font-family="Times,serif" font-size="14.00">A:assumpSBSBISL</text>
</g>
<!-- alpha_i&#45;&gt;assumpSBSBISL -->
<g id="edge1" class="edge">
<title>alpha_i&#45;&gt;assumpSBSBISL</title>
<path fill="none" stroke="black" d="M240.64,-71.88C262.51,-62.31 289.96,-50.3 313.16,-40.15"/>
<polygon fill="black" stroke="black" points="314.73,-43.28 322.49,-36.07 311.92,-36.87 314.73,-43.28"/>
</g>
<!-- beta_i -->
<g id="node3" class="node">
<title>beta_i</title>
<polygon fill="#bbffff" stroke="black" points="359,-108 266,-108 266,-72 359,-72 359,-108"/>
<text text-anchor="middle" x="312.5" y="-86.3" font-family="Times,serif" font-size="14.00">DD:angleB</text>
</g>
<!-- beta_i&#45;&gt;assumpSBSBISL -->
<g id="edge2" class="edge">
<title>beta_i&#45;&gt;assumpSBSBISL</title>
<path fill="none" stroke="black" d="M324.61,-71.7C330.37,-63.47 337.36,-53.48 343.71,-44.42"/>
<polygon fill="black" stroke="black" points="346.66,-46.3 349.53,-36.1 340.92,-42.29 346.66,-46.3"/>
</g>
<!-- h_i -->
<g id="node4" class="node">
<title>h_i</title>
<polygon fill="#bbffff" stroke="black" points="489.5,-108 377.5,-108 377.5,-72 489.5,-72 489.5,-108"/>
<text text-anchor="middle" x="433.5" y="-86.3" font-family="Times,serif" font-size="14.00">DD:slcHeight</text>
</g>
<!-- h_i&#45;&gt;assumpSBSBISL -->
<g id="edge3" class="edge">
<title>h_i&#45;&gt;assumpSBSBISL</title>
<path fill="none" stroke="black" d="M415.7,-71.7C406.9,-63.14 396.12,-52.66 386.5,-43.3"/>
<polygon fill="black" stroke="black" points="388.7,-40.57 379.09,-36.1 383.82,-45.58 388.7,-40.57"/>
</g>
<!-- equilibriumCS -->
<g id="node5" class="node">
<title>equilibriumCS</title>
<polygon fill="pink" stroke="black" points="1599,-108 1472,-108 1472,-72 1599,-72 1599,-108"/>
<text text-anchor="middle" x="1535.5" y="-86.3" font-family="Times,serif" font-size="14.00">TM:equilibrium</text>
</g>
<!-- assumpENSL -->
<g id="node6" class="node">
<title>assumpENSL</title>
<polygon fill="mistyrose" stroke="black" points="1725,-36 1598,-36 1598,0 1725,0 1725,-36"/>
<text text-anchor="middle" x="1661.5" y="-14.3" font-family="Times,serif" font-size="14.00">A:assumpENSL</text>
</g>
<!-- equilibriumCS&#45;&gt;assumpENSL -->
<g id="edge4" class="edge">
<title>equilibriumCS&#45;&gt;assumpENSL</title>
<path fill="none" stroke="black" d="M1566.32,-71.88C1582.95,-62.64 1603.66,-51.13 1621.52,-41.21"/>
<polygon fill="black" stroke="black" points="1623.52,-44.11 1630.56,-36.19 1620.12,-37.99 1623.52,-44.11"/>
</g>
<!-- mcShrSrgth -->
<g id="node7" class="node">
<title>mcShrSrgth</title>
<polygon fill="pink" stroke="black" points="137,-108 0,-108 0,-72 137,-72 137,-108"/>
<text text-anchor="middle" x="68.5" y="-86.3" font-family="Times,serif" font-size="14.00">TM:mcShrStrgth</text>
</g>
<!-- mcShrSrgth&#45;&gt;assumpSBSBISL -->
<g id="edge5" class="edge">
<title>mcShrSrgth&#45;&gt;assumpSBSBISL</title>
<path fill="none" stroke="black" d="M137.2,-72.59C180.06,-62.35 235.44,-49.12 280.44,-38.36"/>
<polygon fill="black" stroke="black" points="281.26,-41.77 290.18,-36.04 279.64,-34.96 281.26,-41.77"/>
</g>
<!-- resShr -->
<g id="node8" class="node">
<title>resShr</title>
<polygon fill="palegreen" stroke="black" points="1453.5,-108 1361.5,-108 1361.5,-72 1453.5,-72 1453.5,-108"/>
<text text-anchor="middle" x="1407.5" y="-86.3" font-family="Times,serif" font-size="14.00">GD:resShr</text>
</g>
<!-- assumpSLH -->
<g id="node9" class="node">
<title>assumpSLH</title>
<polygon fill="mistyrose" stroke="black" points="1311.5,-36 1195.5,-36 1195.5,0 1311.5,0 1311.5,-36"/>
<text text-anchor="middle" x="1253.5" y="-14.3" font-family="Times,serif" font-size="14.00">A:assumpSLH</text>
</g>
<!-- resShr&#45;&gt;assumpSLH -->
<g id="edge6" class="edge">
<title>resShr&#45;&gt;assumpSLH</title>
<path fill="none" stroke="black" d="M1369.83,-71.88C1348.87,-62.35 1322.6,-50.41 1300.32,-40.28"/>
<polygon fill="black" stroke="black" points="1301.6,-37.02 1291.05,-36.07 1298.71,-43.39 1301.6,-37.02"/>
</g>
<!-- assumpSP -->
<g id="node10" class="node">
<title>assumpSP</title>
<polygon fill="mistyrose" stroke="black" points="1569,-36 1464,-36 1464,0 1569,0 1569,-36"/>
<text text-anchor="middle" x="1516.5" y="-14.3" font-family="Times,serif" font-size="14.00">A:assumpSP</text>
</g>
<!-- resShr&#45;&gt;assumpSP -->
<g id="edge7" class="edge">
<title>resShr&#45;&gt;assumpSP</title>
<path fill="none" stroke="black" d="M1434.16,-71.88C1448.28,-62.81 1465.81,-51.55 1481.06,-41.76"/>
<polygon fill="black" stroke="black" points="1483.21,-44.54 1489.73,-36.19 1479.43,-38.65 1483.21,-44.54"/>
</g>
<!-- assumpSLI -->
<g id="node11" class="node">
<title>assumpSLI</title>
<polygon fill="mistyrose" stroke="black" points="1445.5,-36 1335.5,-36 1335.5,0 1445.5,0 1445.5,-36"/>
<text text-anchor="middle" x="1390.5" y="-14.3" font-family="Times,serif" font-size="14.00">A:assumpSLI</text>
</g>
<!-- resShr&#45;&gt;assumpSLI -->
<g id="edge8" class="edge">
<title>resShr&#45;&gt;assumpSLI</title>
<path fill="none" stroke="black" d="M1403.3,-71.7C1401.4,-63.9 1399.12,-54.51 1397.02,-45.83"/>
<polygon fill="black" stroke="black" points="1400.42,-45 1394.65,-36.1 1393.61,-46.65 1400.42,-45"/>
</g>
<!-- assumpPSC -->
<g id="node12" class="node">
<title>assumpPSC</title>
<polygon fill="mistyrose" stroke="black" points="1007.5,-36 891.5,-36 891.5,0 1007.5,0 1007.5,-36"/>
<text text-anchor="middle" x="949.5" y="-14.3" font-family="Times,serif" font-size="14.00">A:assumpPSC</text>
</g>
<!-- resShr&#45;&gt;assumpPSC -->
<g id="edge9" class="edge">
<title>resShr&#45;&gt;assumpPSC</title>
<path fill="none" stroke="black" d="M1361.22,-74.22C1357.95,-73.4 1354.69,-72.65 1351.5,-72 1207.92,-42.76 1165.69,-61.63 1017.76,-36.07"/>
<polygon fill="black" stroke="black" points="1018.32,-32.62 1007.86,-34.32 1017.1,-39.51 1018.32,-32.62"/>
</g>
<!-- mobShr -->
<g id="node13" class="node">
<title>mobShr</title>
<polygon fill="palegreen" stroke="black" points="1856.5,-108 1756.5,-108 1756.5,-72 1856.5,-72 1856.5,-108"/>
<text text-anchor="middle" x="1806.5" y="-86.3" font-family="Times,serif" font-size="14.00">GD:mobShr</text>
</g>
<!-- assumpFOS -->
<g id="node14" class="node">
<title>assumpFOS</title>
<polygon fill="mistyrose" stroke="black" points="1864.5,-36 1748.5,-36 1748.5,0 1864.5,0 1864.5,-36"/>
<text text-anchor="middle" x="1806.5" y="-14.3" font-family="Times,serif" font-size="14.00">A:assumpFOS</text>
</g>
<!-- mobShr&#45;&gt;assumpFOS -->
<g id="edge10" class="edge">
<title>mobShr&#45;&gt;assumpFOS</title>
<path fill="none" stroke="black" d="M1806.5,-71.7C1806.5,-63.98 1806.5,-54.71 1806.5,-46.11"/>
<polygon fill="black" stroke="black" points="1810,-46.1 1806.5,-36.1 1803,-46.1 1810,-46.1"/>
</g>
<!-- effNormF -->
<g id="node15" class="node">
<title>effNormF</title>
<polygon fill="palegreen" stroke="black" points="1001.5,-108 889.5,-108 889.5,-72 1001.5,-72 1001.5,-108"/>
<text text-anchor="middle" x="945.5" y="-86.3" font-family="Times,serif" font-size="14.00">GD:effNormF</text>
</g>
<!-- effNormF&#45;&gt;assumpPSC -->
<g id="edge11" class="edge">
<title>effNormF&#45;&gt;assumpPSC</title>
<path fill="none" stroke="black" d="M946.49,-71.7C946.93,-63.98 947.46,-54.71 947.95,-46.11"/>
<polygon fill="black" stroke="black" points="951.45,-46.29 948.52,-36.1 944.46,-45.89 951.45,-46.29"/>
</g>
<!-- X_i -->
<g id="node16" class="node">
<title>X_i</title>
<polygon fill="palegreen" stroke="black" points="2201,-108 2084,-108 2084,-72 2201,-72 2201,-108"/>
<text text-anchor="middle" x="2142.5" y="-86.3" font-family="Times,serif" font-size="14.00">GD:normShrR</text>
</g>
<!-- assumpINSFL -->
<g id="node17" class="node">
<title>assumpINSFL</title>
<polygon fill="mistyrose" stroke="black" points="2271,-36 2140,-36 2140,0 2271,0 2271,-36"/>
<text text-anchor="middle" x="2205.5" y="-14.3" font-family="Times,serif" font-size="14.00">A:assumpINSFL</text>
</g>
<!-- X_i&#45;&gt;assumpINSFL -->
<g id="edge12" class="edge">
<title>X_i&#45;&gt;assumpINSFL</title>
<path fill="none" stroke="black" d="M2158.07,-71.7C2165.7,-63.22 2175.02,-52.86 2183.38,-43.58"/>
<polygon fill="black" stroke="black" points="2186.02,-45.88 2190.11,-36.1 2180.81,-41.2 2186.02,-45.88"/>
</g>
<!-- momentEql -->
<g id="node18" class="node">
<title>momentEql</title>
<polygon fill="palegreen" stroke="black" points="1145.5,-108 1019.5,-108 1019.5,-72 1145.5,-72 1145.5,-108"/>
<text text-anchor="middle" x="1082.5" y="-86.3" font-family="Times,serif" font-size="14.00">GD:momentEql</text>
</g>
<!-- assumpNESSS -->
<g id="node19" class="node">
<title>assumpNESSS</title>
<polygon fill="mistyrose" stroke="black" points="1161.5,-36 1025.5,-36 1025.5,0 1161.5,0 1161.5,-36"/>
<text text-anchor="middle" x="1093.5" y="-14.3" font-family="Times,serif" font-size="14.00">A:assumpNESSS</text>
</g>
<!-- momentEql&#45;&gt;assumpNESSS -->
<g id="edge13" class="edge">
<title>momentEql&#45;&gt;assumpNESSS</title>
<path fill="none" stroke="black" d="M1085.22,-71.7C1086.43,-63.98 1087.89,-54.71 1089.24,-46.11"/>
<polygon fill="black" stroke="black" points="1092.72,-46.53 1090.81,-36.1 1085.8,-45.44 1092.72,-46.53"/>
</g>
<!-- assumpHFSM -->
<g id="node20" class="node">
<title>assumpHFSM</title>
<polygon fill="mistyrose" stroke="black" points="730,-36 599,-36 599,0 730,0 730,-36"/>
<text text-anchor="middle" x="664.5" y="-14.3" font-family="Times,serif" font-size="14.00">A:assumpHFSM</text>
</g>
<!-- momentEql&#45;&gt;assumpHFSM -->
<g id="edge14" class="edge">
<title>momentEql&#45;&gt;assumpHFSM</title>
<path fill="none" stroke="black" d="M1019.36,-73.71C1016.37,-73.11 1013.41,-72.53 1010.5,-72 893.73,-50.54 860.25,-57.29 740.15,-36.21"/>
<polygon fill="black" stroke="black" points="740.66,-32.74 730.2,-34.43 739.43,-39.63 740.66,-32.74"/>
</g>
<!-- sliceWght -->
<g id="node21" class="node">
<title>sliceWght</title>
<polygon fill="palegreen" stroke="black" points="871.5,-108 757.5,-108 757.5,-72 871.5,-72 871.5,-108"/>
<text text-anchor="middle" x="814.5" y="-86.3" font-family="Times,serif" font-size="14.00">GD:sliceWght</text>
</g>
<!-- sliceWght&#45;&gt;assumpSBSBISL -->
<g id="edge17" class="edge">
<title>sliceWght&#45;&gt;assumpSBSBISL</title>
<path fill="none" stroke="black" d="M757.37,-73.79C754.38,-73.15 751.41,-72.54 748.5,-72 618.46,-47.64 581.21,-56.98 446.83,-36.13"/>
<polygon fill="black" stroke="black" points="446.97,-32.61 436.55,-34.5 445.88,-39.52 446.97,-32.61"/>
</g>
<!-- sliceWght&#45;&gt;assumpSLH -->
<g id="edge15" class="edge">
<title>sliceWght&#45;&gt;assumpSLH</title>
<path fill="none" stroke="black" d="M871.64,-73.8C874.63,-73.16 877.59,-72.55 880.5,-72 1008.09,-47.75 1042.34,-57.05 1170.5,-36 1175.24,-35.22 1180.12,-34.37 1185.03,-33.46"/>
<polygon fill="black" stroke="black" points="1185.93,-36.85 1195.11,-31.56 1184.63,-29.98 1185.93,-36.85"/>
</g>
<!-- sliceWght&#45;&gt;assumpPSC -->
<g id="edge16" class="edge">
<title>sliceWght&#45;&gt;assumpPSC</title>
<path fill="none" stroke="black" d="M847.52,-71.88C865.58,-62.51 888.15,-50.81 907.45,-40.8"/>
<polygon fill="black" stroke="black" points="909.08,-43.9 916.35,-36.19 905.86,-37.69 909.08,-43.9"/>
</g>
<!-- assumpWIBE -->
<g id="node22" class="node">
<title>assumpWIBE</title>
<polygon fill="mistyrose" stroke="black" points="580.5,-36 454.5,-36 454.5,0 580.5,0 580.5,-36"/>
<text text-anchor="middle" x="517.5" y="-14.3" font-family="Times,serif" font-size="14.00">A:assumpWIBE</text>
</g>
<!-- sliceWght&#45;&gt;assumpWIBE -->
<g id="edge18" class="edge">
<title>sliceWght&#45;&gt;assumpWIBE</title>
<path fill="none" stroke="black" d="M757.29,-74.15C754.32,-73.42 751.38,-72.7 748.5,-72 681.1,-55.69 661.73,-52.58 590.61,-36.24"/>
<polygon fill="black" stroke="black" points="591.24,-32.79 580.71,-33.96 589.67,-39.62 591.24,-32.79"/>
</g>
<!-- assumpWISE -->
<g id="node23" class="node">
<title>assumpWISE</title>
<polygon fill="mistyrose" stroke="black" points="873,-36 748,-36 748,0 873,0 873,-36"/>
<text text-anchor="middle" x="810.5" y="-14.3" font-family="Times,serif" font-size="14.00">A:assumpWISE</text>
</g>
<!-- sliceWght&#45;&gt;assumpWISE -->
<g id="edge19" class="edge">
<title>sliceWght&#45;&gt;assumpWISE</title>
<path fill="none" stroke="black" d="M813.51,-71.7C813.07,-63.98 812.54,-54.71 812.05,-46.11"/>
<polygon fill="black" stroke="black" points="815.54,-45.89 811.48,-36.1 808.55,-46.29 815.54,-45.89"/>
</g>
<!-- baseWtrF -->
<g id="node24" class="node">
<title>baseWtrF</title>
<polygon fill="palegreen" stroke="black" points="621,-108 508,-108 508,-72 621,-72 621,-108"/>
<text text-anchor="middle" x="564.5" y="-86.3" font-family="Times,serif" font-size="14.00">GD:baseWtrF</text>
</g>
<!-- baseWtrF&#45;&gt;assumpSBSBISL -->
<g id="edge21" class="edge">
<title>baseWtrF&#45;&gt;assumpSBSBISL</title>
<path fill="none" stroke="black" d="M515.1,-71.97C486.61,-62.14 450.61,-49.73 420.63,-39.39"/>
<polygon fill="black" stroke="black" points="421.72,-36.06 411.12,-36.11 419.43,-42.68 421.72,-36.06"/>
</g>
<!-- baseWtrF&#45;&gt;assumpPSC -->
<g id="edge20" class="edge">
<title>baseWtrF&#45;&gt;assumpPSC</title>
<path fill="none" stroke="black" d="M621.29,-73.95C624.4,-73.26 627.48,-72.6 630.5,-72 741.01,-49.91 770.91,-57.7 881.5,-36 881.6,-35.98 881.7,-35.96 881.8,-35.94"/>
<polygon fill="black" stroke="black" points="882.27,-39.42 891.35,-33.95 880.85,-32.56 882.27,-39.42"/>
</g>
<!-- baseWtrF&#45;&gt;assumpHFSM -->
<g id="edge23" class="edge">
<title>baseWtrF&#45;&gt;assumpHFSM</title>
<path fill="none" stroke="black" d="M588.96,-71.88C601.8,-62.89 617.7,-51.76 631.59,-42.03"/>
<polygon fill="black" stroke="black" points="633.76,-44.79 639.94,-36.19 629.74,-39.06 633.76,-44.79"/>
</g>
<!-- baseWtrF&#45;&gt;assumpWIBE -->
<g id="edge22" class="edge">
<title>baseWtrF&#45;&gt;assumpWIBE</title>
<path fill="none" stroke="black" d="M552.88,-71.7C547.36,-63.47 540.65,-53.48 534.57,-44.42"/>
<polygon fill="black" stroke="black" points="537.46,-42.46 528.98,-36.1 531.65,-46.36 537.46,-42.46"/>
</g>
<!-- srfWtrF -->
<g id="node25" class="node">
<title>srfWtrF</title>
<polygon fill="palegreen" stroke="black" points="739.5,-108 639.5,-108 639.5,-72 739.5,-72 739.5,-108"/>
<text text-anchor="middle" x="689.5" y="-86.3" font-family="Times,serif" font-size="14.00">GD:srfWtrF</text>
</g>
<!-- srfWtrF&#45;&gt;assumpSBSBISL -->
<g id="edge25" class="edge">
<title>srfWtrF&#45;&gt;assumpSBSBISL</title>
<path fill="none" stroke="black" d="M639.49,-74.5C636.12,-73.62 632.76,-72.78 629.5,-72 551.54,-53.36 528.93,-52.32 446.66,-36.21"/>
<polygon fill="black" stroke="black" points="447.09,-32.73 436.6,-34.22 445.73,-39.6 447.09,-32.73"/>
</g>
<!-- srfWtrF&#45;&gt;assumpPSC -->
<g id="edge24" class="edge">
<title>srfWtrF&#45;&gt;assumpPSC</title>
<path fill="none" stroke="black" d="M739.69,-74.45C742.67,-73.62 745.62,-72.79 748.5,-72 792.57,-59.84 842.24,-46.74 881.18,-36.6"/>
<polygon fill="black" stroke="black" points="882.56,-39.86 891.35,-33.96 880.79,-33.09 882.56,-39.86"/>
</g>
<!-- srfWtrF&#45;&gt;assumpHFSM -->
<g id="edge27" class="edge">
<title>srfWtrF&#45;&gt;assumpHFSM</title>
<path fill="none" stroke="black" d="M683.32,-71.7C680.5,-63.81 677.11,-54.3 673.98,-45.55"/>
<polygon fill="black" stroke="black" points="677.27,-44.34 670.61,-36.1 670.68,-46.7 677.27,-44.34"/>
</g>
<!-- srfWtrF&#45;&gt;assumpWISE -->
<g id="edge26" class="edge">
<title>srfWtrF&#45;&gt;assumpWISE</title>
<path fill="none" stroke="black" d="M719.1,-71.88C735.07,-62.64 754.96,-51.13 772.11,-41.21"/>
<polygon fill="black" stroke="black" points="773.88,-44.23 780.79,-36.19 770.38,-38.17 773.88,-44.23"/>
</g>
<!-- FS -->
<g id="node26" class="node">
<title>FS</title>
<polygon fill="#fff68f" stroke="black" points="2574,-108 2485,-108 2485,-72 2574,-72 2574,-108"/>
<text text-anchor="middle" x="2529.5" y="-86.3" font-family="Times,serif" font-size="14.00">IM:fctSfty</text>
</g>
<!-- FS&#45;&gt;assumpINSFL -->
<g id="edge28" class="edge">
<title>FS&#45;&gt;assumpINSFL</title>
<path fill="none" stroke="black" d="M2484.79,-74.25C2481.99,-73.46 2479.21,-72.7 2476.5,-72 2411.16,-55.19 2335.75,-40.85 2281.1,-31.34"/>
<polygon fill="black" stroke="black" points="2281.59,-27.87 2271.14,-29.62 2280.4,-34.77 2281.59,-27.87"/>
</g>
<!-- assumpES -->
<g id="node27" class="node">
<title>assumpES</title>
<polygon fill="mistyrose" stroke="black" points="2458.5,-36 2352.5,-36 2352.5,0 2458.5,0 2458.5,-36"/>
<text text-anchor="middle" x="2405.5" y="-14.3" font-family="Times,serif" font-size="14.00">A:assumpES</text>
</g>
<!-- FS&#45;&gt;assumpES -->
<g id="edge29" class="edge">
<title>FS&#45;&gt;assumpES</title>
<path fill="none" stroke="black" d="M2499.17,-71.88C2482.8,-62.64 2462.42,-51.13 2444.85,-41.21"/>
<polygon fill="black" stroke="black" points="2446.38,-38.06 2435.95,-36.19 2442.94,-44.15 2446.38,-38.06"/>
</g>
<!-- assumpSF -->
<g id="node28" class="node">
<title>assumpSF</title>
<polygon fill="mistyrose" stroke="black" points="2582,-36 2477,-36 2477,0 2582,0 2582,-36"/>
<text text-anchor="middle" x="2529.5" y="-14.3" font-family="Times,serif" font-size="14.00">A:assumpSF</text>
</g>
<!-- FS&#45;&gt;assumpSF -->
<g id="edge30" class="edge">
<title>FS&#45;&gt;assumpSF</title>
<path fill="none" stroke="black" d="M2529.5,-71.7C2529.5,-63.98 2529.5,-54.71 2529.5,-46.11"/>
<polygon fill="black" stroke="black" points="2533,-46.1 2529.5,-36.1 2526,-46.1 2533,-46.1"/>
</g>
<!-- assumpSL -->
<g id="node29" class="node">
<title>assumpSL</title>
<polygon fill="mistyrose" stroke="black" points="2704.5,-36 2600.5,-36 2600.5,0 2704.5,0 2704.5,-36"/>
<text text-anchor="middle" x="2652.5" y="-14.3" font-family="Times,serif" font-size="14.00">A:assumpSL</text>
</g>
<!-- FS&#45;&gt;assumpSL -->
<g id="edge31" class="edge">
<title>FS&#45;&gt;assumpSL</title>
<path fill="none" stroke="black" d="M2559.59,-71.88C2575.82,-62.64 2596.04,-51.13 2613.47,-41.21"/>
<polygon fill="black" stroke="black" points="2615.34,-44.18 2622.3,-36.19 2611.87,-38.09 2615.34,-44.18"/>
</g>
<!-- nrmShrForIM -->
<g id="node30" class="node">
<title>nrmShrForIM</title>
<polygon fill="#fff68f" stroke="black" points="2467,-108 2348,-108 2348,-72 2467,-72 2467,-108"/>
<text text-anchor="middle" x="2407.5" y="-86.3" font-family="Times,serif" font-size="14.00">IM:nrmShrFor</text>
</g>
<!-- nrmShrForIM&#45;&gt;assumpINSFL -->
<g id="edge32" class="edge">
<title>nrmShrForIM&#45;&gt;assumpINSFL</title>
<path fill="none" stroke="black" d="M2358.34,-71.97C2330,-62.14 2294.18,-49.73 2264.34,-39.39"/>
<polygon fill="black" stroke="black" points="2265.47,-36.08 2254.88,-36.11 2263.18,-42.69 2265.47,-36.08"/>
</g>
<!-- nrmShrForIM&#45;&gt;assumpES -->
<g id="edge33" class="edge">
<title>nrmShrForIM&#45;&gt;assumpES</title>
<path fill="none" stroke="black" d="M2407.01,-71.7C2406.79,-63.98 2406.52,-54.71 2406.27,-46.11"/>
<polygon fill="black" stroke="black" points="2409.77,-46 2405.99,-36.1 2402.78,-46.2 2409.77,-46"/>
</g>
<!-- nrmShrForIM&#45;&gt;assumpSF -->
<g id="edge34" class="edge">
<title>nrmShrForIM&#45;&gt;assumpSF</title>
<path fill="none" stroke="black" d="M2437.34,-71.88C2453.44,-62.64 2473.5,-51.13 2490.79,-41.21"/>
<polygon fill="black" stroke="black" points="2492.61,-44.2 2499.54,-36.19 2489.13,-38.13 2492.61,-44.2"/>
</g>
<!-- nrmShrForIM&#45;&gt;assumpSL -->
<g id="edge35" class="edge">
<title>nrmShrForIM&#45;&gt;assumpSL</title>
<path fill="none" stroke="black" d="M2467.12,-71.97C2504.44,-61.3 2552.43,-47.59 2590.24,-36.79"/>
<polygon fill="black" stroke="black" points="2591.46,-40.08 2600.12,-33.97 2589.54,-33.35 2591.46,-40.08"/>
</g>
<!-- intsliceFsRC -->
<g id="node31" class="node">
<title>intsliceFsRC</title>
<polygon fill="#fff68f" stroke="black" points="2329.5,-108 2219.5,-108 2219.5,-72 2329.5,-72 2329.5,-108"/>
<text text-anchor="middle" x="2274.5" y="-86.3" font-family="Times,serif" font-size="14.00">IM:intsliceFs</text>
</g>
<!-- intsliceFsRC&#45;&gt;assumpES -->
<g id="edge36" class="edge">
<title>intsliceFsRC&#45;&gt;assumpES</title>
<path fill="none" stroke="black" d="M2306.55,-71.88C2323.99,-62.55 2345.77,-50.92 2364.44,-40.94"/>
<polygon fill="black" stroke="black" points="2366.16,-43.99 2373.33,-36.19 2362.86,-37.82 2366.16,-43.99"/>
</g>
<!-- crtSlpIdIM -->
<g id="node32" class="node">
<title>crtSlpIdIM</title>
<polygon fill="#fff68f" stroke="black" points="2971.5,-108 2873.5,-108 2873.5,-72 2971.5,-72 2971.5,-108"/>
<text text-anchor="middle" x="2922.5" y="-86.3" font-family="Times,serif" font-size="14.00">IM:crtSlpId</text>
</g>
<!-- assumpSSC -->
<g id="node33" class="node">
<title>assumpSSC</title>
<polygon fill="mistyrose" stroke="black" points="2980,-36 2865,-36 2865,0 2980,0 2980,-36"/>
<text text-anchor="middle" x="2922.5" y="-14.3" font-family="Times,serif" font-size="14.00">A:assumpSSC</text>
</g>
<!-- crtSlpIdIM&#45;&gt;assumpSSC -->
<g id="edge37" class="edge">
<title>crtSlpIdIM&#45;&gt;assumpSSC</title>
<path fill="none" stroke="black" d="M2922.5,-71.7C2922.5,-63.98 2922.5,-54.71 2922.5,-46.11"/>
<polygon fill="black" stroke="black" points="2926,-46.1 2922.5,-36.1 2919,-46.1 2926,-46.1"/>
</g>
<!-- LC_inhomogeneous -->
<g id="node34" class="node">
<title>LC_inhomogeneous</title>
<polygon fill="lavender" stroke="black" points="1343,-108 1164,-108 1164,-72 1343,-72 1343,-108"/>
<text text-anchor="middle" x="1253.5" y="-86.3" font-family="Times,serif" font-size="14.00">LC:LC_inhomogeneous</text>
</g>
<!-- LC_inhomogeneous&#45;&gt;assumpSLH -->
<g id="edge38" class="edge">
<title>LC_inhomogeneous&#45;&gt;assumpSLH</title>
<path fill="none" stroke="black" d="M1253.5,-71.7C1253.5,-63.98 1253.5,-54.71 1253.5,-46.11"/>
<polygon fill="black" stroke="black" points="1257,-46.1 1253.5,-36.1 1250,-46.1 1257,-46.1"/>
</g>
<!-- LC_seismic -->
<g id="node35" class="node">
<title>LC_seismic</title>
<polygon fill="lavender" stroke="black" points="2711.5,-108 2591.5,-108 2591.5,-72 2711.5,-72 2711.5,-108"/>
<text text-anchor="middle" x="2651.5" y="-86.3" font-family="Times,serif" font-size="14.00">LC:LC_seismic</text>
</g>
<!-- LC_seismic&#45;&gt;assumpSF -->
<g id="edge39" class="edge">
<title>LC_seismic&#45;&gt;assumpSF</title>
<path fill="none" stroke="black" d="M2621.66,-71.88C2605.56,-62.64 2585.5,-51.13 2568.21,-41.21"/>
<polygon fill="black" stroke="black" points="2569.87,-38.13 2559.46,-36.19 2566.39,-44.2 2569.87,-38.13"/>
</g>
<!-- LC_external -->
<g id="node36" class="node">
<title>LC_external</title>
<polygon fill="lavender" stroke="black" points="2855.5,-108 2729.5,-108 2729.5,-72 2855.5,-72 2855.5,-108"/>
<text text-anchor="middle" x="2792.5" y="-86.3" font-family="Times,serif" font-size="14.00">LC:LC_external</text>
</g>
<!-- LC_external&#45;&gt;assumpSL -->
<g id="edge40" class="edge">
<title>LC_external&#45;&gt;assumpSL</title>
<path fill="none" stroke="black" d="M2758.25,-71.88C2739.44,-62.47 2715.92,-50.71 2695.83,-40.67"/>
<polygon fill="black" stroke="black" points="2697.39,-37.53 2686.88,-36.19 2694.26,-43.79 2697.39,-37.53"/>
</g>
<!-- UC_normshearlinear -->
<g id="node37" class="node">
<title>UC_normshearlinear</title>
<polygon fill="lavender" stroke="black" points="2066,-108 1875,-108 1875,-72 2066,-72 2066,-108"/>
<text text-anchor="middle" x="1970.5" y="-86.3" font-family="Times,serif" font-size="14.00">UC:UC_normshearlinear</text>
</g>
<!-- UC_normshearlinear&#45;&gt;assumpINSFL -->
<g id="edge41" class="edge">
<title>UC_normshearlinear&#45;&gt;assumpINSFL</title>
<path fill="none" stroke="black" d="M2027.69,-71.97C2061.09,-62.01 2103.42,-49.41 2138.4,-38.99"/>
<polygon fill="black" stroke="black" points="2139.47,-42.32 2148.06,-36.11 2137.47,-35.61 2139.47,-42.32"/>
</g>
<!-- UC_2donly -->
<g id="node38" class="node">
<title>UC_2donly</title>
<polygon fill="lavender" stroke="black" points="1738,-108 1617,-108 1617,-72 1738,-72 1738,-108"/>
<text text-anchor="middle" x="1677.5" y="-86.3" font-family="Times,serif" font-size="14.00">UC:UC_2donly</text>
</g>
<!-- UC_2donly&#45;&gt;assumpENSL -->
<g id="edge42" class="edge">
<title>UC_2donly&#45;&gt;assumpENSL</title>
<path fill="none" stroke="black" d="M1673.54,-71.7C1671.78,-63.98 1669.66,-54.71 1667.7,-46.11"/>
<polygon fill="black" stroke="black" points="1671.05,-45.07 1665.41,-36.1 1664.23,-46.63 1671.05,-45.07"/>
</g>
<!-- H_i -->
<g id="node39" class="node">
<title>H_i</title>
<polygon fill="#bbffff" stroke="black" points="3137,-108 2990,-108 2990,-72 3137,-72 3137,-108"/>
<text text-anchor="middle" x="3063.5" y="-86.3" font-family="Times,serif" font-size="14.00">DD:intersliceWtrF</text>
</g>
<!-- b_i -->
<g id="node40" class="node">
<title>b_i</title>
<polygon fill="#bbffff" stroke="black" points="3255.5,-108 3155.5,-108 3155.5,-72 3255.5,-72 3255.5,-108"/>
<text text-anchor="middle" x="3205.5" y="-86.3" font-family="Times,serif" font-size="14.00">DD:lengthB</text>
</g>
<!-- l_bi -->
<g id="node41" class="node">
<title>l_bi</title>
<polygon fill="#bbffff" stroke="black" points="3381,-108 3274,-108 3274,-72 3381,-72 3381,-108"/>
<text text-anchor="middle" x="3327.5" y="-86.3" font-family="Times,serif" font-size="14.00">DD:lengthLb</text>
</g>
<!-- l_si -->
<g id="node42" class="node">
<title>l_si</title>
<polygon fill="#bbffff" stroke="black" points="3505.5,-108 3399.5,-108 3399.5,-72 3505.5,-72 3505.5,-108"/>
<text text-anchor="middle" x="3452.5" y="-86.3" font-family="Times,serif" font-size="14.00">DD:lengthLs</text>
</g>
<!-- sigma -->
<g id="node43" class="node">
<title>sigma</title>
<polygon fill="#bbffff" stroke="black" points="3651,-108 3524,-108 3524,-72 3651,-72 3651,-108"/>
<text text-anchor="middle" x="3587.5" y="-86.3" font-family="Times,serif" font-size="14.00">DD:normStress</text>
</g>
<!-- tau -->
<g id="node44" class="node">
<title>tau</title>
<polygon fill="#bbffff" stroke="black" points="3791.5,-108 3669.5,-108 3669.5,-72 3791.5,-72 3791.5,-108"/>
<text text-anchor="middle" x="3730.5" y="-86.3" font-family="Times,serif" font-size="14.00">DD:tangStress</text>
</g>
<!-- torque -->
<g id="node45" class="node">
<title>torque</title>
<polygon fill="#bbffff" stroke="black" points="3901,-108 3810,-108 3810,-72 3901,-72 3901,-108"/>
<text text-anchor="middle" x="3855.5" y="-86.3" font-family="Times,serif" font-size="14.00">DD:torque</text>
</g>
<!-- f_i -->
<g id="node46" class="node">
<title>f_i</title>
<polygon fill="#bbffff" stroke="black" points="4061.5,-108 3919.5,-108 3919.5,-72 4061.5,-72 4061.5,-108"/>
<text text-anchor="middle" x="3990.5" y="-86.3" font-family="Times,serif" font-size="14.00">DD:ratioVariation</text>
</g>
<!-- Phi -->
<g id="node47" class="node">
<title>Phi</title>
<polygon fill="#bbffff" stroke="black" points="4221.5,-108 4079.5,-108 4079.5,-72 4221.5,-72 4221.5,-108"/>
<text text-anchor="middle" x="4150.5" y="-86.3" font-family="Times,serif" font-size="14.00">DD:convertFunc1</text>
</g>
<!-- Psi -->
<g id="node48" class="node">
<title>Psi</title>
<polygon fill="#bbffff" stroke="black" points="4381.5,-108 4239.5,-108 4239.5,-72 4381.5,-72 4381.5,-108"/>
<text text-anchor="middle" x="4310.5" y="-86.3" font-family="Times,serif" font-size="14.00">DD:convertFunc2</text>
</g>
<!-- F_xG -->
<g id="node49" class="node">
<title>F_xG</title>
<polygon fill="#bbffff" stroke="black" points="4567,-108 4400,-108 4400,-72 4567,-72 4567,-108"/>
<text text-anchor="middle" x="4483.5" y="-86.3" font-family="Times,serif" font-size="14.00">DD:nrmForceSumDD</text>
</g>
<!-- F_xH -->
<g id="node50" class="node">
<title>F_xH</title>
<polygon fill="#bbffff" stroke="black" points="4749.5,-108 4585.5,-108 4585.5,-72 4749.5,-72 4749.5,-108"/>
<text text-anchor="middle" x="4667.5" y="-86.3" font-family="Times,serif" font-size="14.00">DD:watForceSumDD</text>
</g>
<!-- hR -->
<g id="node51" class="node">
<title>hR</title>
<polygon fill="#bbffff" stroke="black" points="4941,-108 4768,-108 4768,-72 4941,-72 4941,-108"/>
<text text-anchor="middle" x="4854.5" y="-86.3" font-family="Times,serif" font-size="14.00">DD:sliceHghtRightDD</text>
</g>
<!-- hL -->
<g id="node52" class="node">
<title>hL</title>
<polygon fill="#bbffff" stroke="black" points="5122,-108 4959,-108 4959,-72 5122,-72 5122,-108"/>
<text text-anchor="middle" x="5040.5" y="-86.3" font-family="Times,serif" font-size="14.00">DD:sliceHghtLeftDD</text>
</g>
<!-- factOfSafetyTM -->
<g id="node53" class="node">
<title>factOfSafetyTM</title>
<polygon fill="pink" stroke="black" points="5274.5,-108 5140.5,-108 5140.5,-72 5274.5,-72 5274.5,-108"/>
<text text-anchor="middle" x="5207.5" y="-86.3" font-family="Times,serif" font-size="14.00">TM:factOfSafety</text>
</g>
<!-- effectiveStressTM -->
<g id="node54" class="node">
<title>effectiveStressTM</title>
<polygon fill="pink" stroke="black" points="5400.5,-108 5292.5,-108 5292.5,-72 5400.5,-72 5400.5,-108"/>
<text text-anchor="middle" x="5346.5" y="-86.3" font-family="Times,serif" font-size="14.00">TM:effStress</text>
</g>
<!-- newtonSL -->
<g id="node55" class="node">
<title>newtonSL</title>
<polygon fill="pink" stroke="black" points="5602,-108 5419,-108 5419,-72 5602,-72 5602,-108"/>
<text text-anchor="middle" x="5510.5" y="-86.3" font-family="Times,serif" font-size="14.00">TM:NewtonSecLawMot</text>
</g>
<!-- normForcEq -->
<g id="node56" class="node">
<title>normForcEq</title>
<polygon fill="palegreen" stroke="black" points="5752.5,-108 5620.5,-108 5620.5,-72 5752.5,-72 5752.5,-108"/>
<text text-anchor="middle" x="5686.5" y="-86.3" font-family="Times,serif" font-size="14.00">GD:normForcEq</text>
</g>
<!-- bsShrFEq -->
<g id="node57" class="node">
<title>bsShrFEq</title>
<polygon fill="palegreen" stroke="black" points="5886,-108 5771,-108 5771,-72 5886,-72 5886,-108"/>
<text text-anchor="middle" x="5828.5" y="-86.3" font-family="Times,serif" font-size="14.00">GD:bsShrFEq</text>
</g>
<!-- resShearWO -->
<g id="node58" class="node">
<title>resShearWO</title>
<polygon fill="palegreen" stroke="black" points="6038.5,-108 5904.5,-108 5904.5,-72 6038.5,-72 6038.5,-108"/>
<text text-anchor="middle" x="5971.5" y="-86.3" font-family="Times,serif" font-size="14.00">GD:resShearWO</text>
</g>
<!-- mobShearWO -->
<g id="node59" class="node">
<title>mobShearWO</title>
<polygon fill="palegreen" stroke="black" points="6198.5,-108 6056.5,-108 6056.5,-72 6198.5,-72 6198.5,-108"/>
<text text-anchor="middle" x="6127.5" y="-86.3" font-family="Times,serif" font-size="14.00">GD:mobShearWO</text>
</g>
<!-- weight -->
<g id="node60" class="node">
<title>weight</title>
<polygon fill="palegreen" stroke="black" points="6308.5,-108 6216.5,-108 6216.5,-72 6308.5,-72 6308.5,-108"/>
<text text-anchor="middle" x="6262.5" y="-86.3" font-family="Times,serif" font-size="14.00">GD:weight</text>
</g>
<!-- pressure -->
<g id="node61" class="node">
<title>pressure</title>
<polygon fill="palegreen" stroke="black" points="6450.5,-108 6326.5,-108 6326.5,-72 6450.5,-72 6450.5,-108"/>
<text text-anchor="middle" x="6388.5" y="-86.3" font-family="Times,serif" font-size="14.00">GD:hsPressure</text>
</g>
<!-- nrmShrForNumRC -->
<g id="node62" class="node">
<title>nrmShrForNumRC</title>
<polygon fill="#fff68f" stroke="black" points="6622.5,-108 6468.5,-108 6468.5,-72 6622.5,-72 6622.5,-108"/>
<text text-anchor="middle" x="6545.5" y="-86.3" font-family="Times,serif" font-size="14.00">IM:nrmShrForNum</text>
</g>
<!-- nrmShrForDenRC -->
<g id="node63" class="node">
<title>nrmShrForDenRC</title>
<polygon fill="#fff68f" stroke="black" points="6788.5,-108 6640.5,-108 6640.5,-72 6788.5,-72 6788.5,-108"/>
<text text-anchor="middle" x="6714.5" y="-86.3" font-family="Times,serif" font-size="14.00">IM:nrmShrForDen</text>
</g>
<!-- readAndStore -->
<g id="node64" class="node">
<title>readAndStore</title>
<polygon fill="ivory" stroke="black" points="6946.5,-108 6806.5,-108 6806.5,-72 6946.5,-72 6946.5,-108"/>
<text text-anchor="middle" x="6876.5" y="-86.3" font-family="Times,serif" font-size="14.00">FR:readAndStore</text>
</g>
<!-- verifyInput -->
<g id="node65" class="node">
<title>verifyInput</title>
<polygon fill="ivory" stroke="black" points="7086,-108 6965,-108 6965,-72 7086,-72 7086,-108"/>
<text text-anchor="middle" x="7025.5" y="-86.3" font-family="Times,serif" font-size="14.00">FR:verifyInput</text>
</g>
<!-- determineCritSlip -->
<g id="node66" class="node">
<title>determineCritSlip</title>
<polygon fill="ivory" stroke="black" points="7274.5,-108 7104.5,-108 7104.5,-72 7274.5,-72 7274.5,-108"/>
<text text-anchor="middle" x="7189.5" y="-86.3" font-family="Times,serif" font-size="14.00">FR:determineCritSlip</text>
</g>
<!-- verifyOutput -->
<g id="node67" class="node">
<title>verifyOutput</title>
<polygon fill="ivory" stroke="black" points="7426,-108 7293,-108 7293,-72 7426,-72 7426,-108"/>
<text text-anchor="middle" x="7359.5" y="-86.3" font-family="Times,serif" font-size="14.00">FR:verifyOutput</text>
</g>
<!-- displayInput -->
<g id="node68" class="node">
<title>displayInput</title>
<polygon fill="ivory" stroke="black" points="7575,-108 7444,-108 7444,-72 7575,-72 7575,-108"/>
<text text-anchor="middle" x="7509.5" y="-86.3" font-family="Times,serif" font-size="14.00">FR:displayInput</text>
</g>
<!-- displayGraph -->
<g id="node69" class="node">
<title>displayGraph</title>
<polygon fill="ivory" stroke="black" points="7730,-108 7593,-108 7593,-72 7730,-72 7730,-108"/>
<text text-anchor="middle" x="7661.5" y="-86.3" font-family="Times,serif" font-size="14.00">FR:displayGraph</text>
</g>
<!-- displayFS -->
<g id="node70" class="node">
<title>displayFS</title>
<polygon fill="ivory" stroke="black" points="7860.5,-108 7748.5,-108 7748.5,-72 7860.5,-72 7860.5,-108"/>
<text text-anchor="middle" x="7804.5" y="-86.3" font-family="Times,serif" font-size="14.00">FR:displayFS</text>
</g>
<!-- displayNormal -->
<g id="node71" class="node">
<title>displayNormal</title>
<polygon fill="ivory" stroke="black" points="8024.5,-108 7878.5,-108 7878.5,-72 8024.5,-72 8024.5,-108"/>
<text text-anchor="middle" x="7951.5" y="-86.3" font-family="Times,serif" font-size="14.00">FR:displayNormal</text>
</g>
<!-- displayShear -->
<g id="node72" class="node">
<title>displayShear</title>
<polygon fill="ivory" stroke="black" points="8176.5,-108 8042.5,-108 8042.5,-72 8176.5,-72 8176.5,-108"/>
<text text-anchor="middle" x="8109.5" y="-86.3" font-family="Times,serif" font-size="14.00">FR:displayShear</text>
</g>
<!-- writeToFile -->
<g id="node73" class="node">
<title>writeToFile</title>
<polygon fill="ivory" stroke="black" points="8316.5,-108 8194.5,-108 8194.5,-72 8316.5,-72 8316.5,-108"/>
<text text-anchor="middle" x="8255.5" y="-86.3" font-family="Times,serif" font-size="14.00">FR:writeToFile</text>
</g>
<!-- correct -->
<g id="node74" class="node">
<title>correct</title>
<polygon fill="ivory" stroke="black" points="8438.5,-108 8334.5,-108 8334.5,-72 8438.5,-72 8438.5,-108"/>
<text text-anchor="middle" x="8386.5" y="-86.3" font-family="Times,serif" font-size="14.00">NFR:correct</text>
</g>
<!-- understandable -->
<g id="node75" class="node">
<title>understandable</title>
<polygon fill="ivory" stroke="black" points="8622,-108 8457,-108 8457,-72 8622,-72 8622,-108"/>
<text text-anchor="middle" x="8539.5" y="-86.3" font-family="Times,serif" font-size="14.00">NFR:understandable</text>
</g>
<!-- reusable -->
<g id="node76" class="node">
<title>reusable</title>
<polygon fill="ivory" stroke="black" points="8755,-108 8640,-108 8640,-72 8755,-72 8755,-108"/>
<text text-anchor="middle" x="8697.5" y="-86.3" font-family="Times,serif" font-size="14.00">NFR:reusable</text>
</g>
<!-- maintainable -->
<g id="node77" class="node">
<title>maintainable</title>
<polygon fill="ivory" stroke="black" points="8919.5,-108 8773.5,-108 8773.5,-72 8919.5,-72 8919.5,-108"/>
<text text-anchor="middle" x="8846.5" y="-86.3" font-family="Times,serif" font-size="14.00">NFR:maintainable</text>
</g>
</g>
</svg>
