<?xml version="1.0" encoding="UTF-8" standalone="no"?>
<!DOCTYPE svg PUBLIC "-//W3C//DTD SVG 1.1//EN"
 "http://www.w3.org/Graphics/SVG/1.1/DTD/svg11.dtd">
<!-- Generated by graphviz version 2.43.0 (0)
 -->
<!-- Title: avsa Pages: 1 -->
<svg width="2203pt" height="44pt"
 viewBox="0.00 0.00 2203.00 44.00" xmlns="http://www.w3.org/2000/svg" xmlns:xlink="http://www.w3.org/1999/xlink">
<g id="graph0" class="graph" transform="scale(1 1) rotate(0) translate(4 40)">
<title>avsa</title>
<polygon fill="white" stroke="transparent" points="-4,4 -4,-40 2199,-40 2199,4 -4,4"/>
<!-- assumpSSC -->
<g id="node1" class="node">
<title>assumpSSC</title>
<polygon fill="mistyrose" stroke="black" points="115,-36 0,-36 0,0 115,0 115,-36"/>
<text text-anchor="middle" x="57.5" y="-14.3" font-family="Times,serif" font-size="14.00">A:assumpSSC</text>
</g>
<!-- assumpFOS -->
<g id="node2" class="node">
<title>assumpFOS</title>
<polygon fill="mistyrose" stroke="black" points="249.5,-36 133.5,-36 133.5,0 249.5,0 249.5,-36"/>
<text text-anchor="middle" x="191.5" y="-14.3" font-family="Times,serif" font-size="14.00">A:assumpFOS</text>
</g>
<!-- assumpSLH -->
<g id="node3" class="node">
<title>assumpSLH</title>
<polygon fill="mistyrose" stroke="black" points="383.5,-36 267.5,-36 267.5,0 383.5,0 383.5,-36"/>
<text text-anchor="middle" x="325.5" y="-14.3" font-family="Times,serif" font-size="14.00">A:assumpSLH</text>
</g>
<!-- assumpSP -->
<g id="node4" class="node">
<title>assumpSP</title>
<polygon fill="mistyrose" stroke="black" points="507,-36 402,-36 402,0 507,0 507,-36"/>
<text text-anchor="middle" x="454.5" y="-14.3" font-family="Times,serif" font-size="14.00">A:assumpSP</text>
</g>
<!-- assumpSLI -->
<g id="node5" class="node">
<title>assumpSLI</title>
<polygon fill="mistyrose" stroke="black" points="635.5,-36 525.5,-36 525.5,0 635.5,0 635.5,-36"/>
<text text-anchor="middle" x="580.5" y="-14.3" font-family="Times,serif" font-size="14.00">A:assumpSLI</text>
</g>
<!-- assumpINSFL -->
<g id="node6" class="node">
<title>assumpINSFL</title>
<polygon fill="mistyrose" stroke="black" points="785,-36 654,-36 654,0 785,0 785,-36"/>
<text text-anchor="middle" x="719.5" y="-14.3" font-family="Times,serif" font-size="14.00">A:assumpINSFL</text>
</g>
<!-- assumpPSC -->
<g id="node7" class="node">
<title>assumpPSC</title>
<polygon fill="mistyrose" stroke="black" points="919.5,-36 803.5,-36 803.5,0 919.5,0 919.5,-36"/>
<text text-anchor="middle" x="861.5" y="-14.3" font-family="Times,serif" font-size="14.00">A:assumpPSC</text>
</g>
<!-- assumpENSL -->
<g id="node8" class="node">
<title>assumpENSL</title>
<polygon fill="mistyrose" stroke="black" points="1065,-36 938,-36 938,0 1065,0 1065,-36"/>
<text text-anchor="middle" x="1001.5" y="-14.3" font-family="Times,serif" font-size="14.00">A:assumpENSL</text>
</g>
<!-- assumpSBSBISL -->
<g id="node9" class="node">
<title>assumpSBSBISL</title>
<polygon fill="mistyrose" stroke="black" points="1233.5,-36 1083.5,-36 1083.5,0 1233.5,0 1233.5,-36"/>
<text text-anchor="middle" x="1158.5" y="-14.3" font-family="Times,serif" font-size="14.00">A:assumpSBSBISL</text>
</g>
<!-- assumpES -->
<g id="node10" class="node">
<title>assumpES</title>
<polygon fill="mistyrose" stroke="black" points="1357.5,-36 1251.5,-36 1251.5,0 1357.5,0 1357.5,-36"/>
<text text-anchor="middle" x="1304.5" y="-14.3" font-family="Times,serif" font-size="14.00">A:assumpES</text>
</g>
<!-- assumpSF -->
<g id="node11" class="node">
<title>assumpSF</title>
<polygon fill="mistyrose" stroke="black" points="1481,-36 1376,-36 1376,0 1481,0 1481,-36"/>
<text text-anchor="middle" x="1428.5" y="-14.3" font-family="Times,serif" font-size="14.00">A:assumpSF</text>
</g>
<!-- assumpSL -->
<g id="node12" class="node">
<title>assumpSL</title>
<polygon fill="mistyrose" stroke="black" points="1603.5,-36 1499.5,-36 1499.5,0 1603.5,0 1603.5,-36"/>
<text text-anchor="middle" x="1551.5" y="-14.3" font-family="Times,serif" font-size="14.00">A:assumpSL</text>
</g>
<!-- assumpWIBE -->
<g id="node13" class="node">
<title>assumpWIBE</title>
<polygon fill="mistyrose" stroke="black" points="1747.5,-36 1621.5,-36 1621.5,0 1747.5,0 1747.5,-36"/>
<text text-anchor="middle" x="1684.5" y="-14.3" font-family="Times,serif" font-size="14.00">A:assumpWIBE</text>
</g>
<!-- assumpWISE -->
<g id="node14" class="node">
<title>assumpWISE</title>
<polygon fill="mistyrose" stroke="black" points="1891,-36 1766,-36 1766,0 1891,0 1891,-36"/>
<text text-anchor="middle" x="1828.5" y="-14.3" font-family="Times,serif" font-size="14.00">A:assumpWISE</text>
</g>
<!-- assumpNESSS -->
<g id="node15" class="node">
<title>assumpNESSS</title>
<polygon fill="mistyrose" stroke="black" points="2045.5,-36 1909.5,-36 1909.5,0 2045.5,0 2045.5,-36"/>
<text text-anchor="middle" x="1977.5" y="-14.3" font-family="Times,serif" font-size="14.00">A:assumpNESSS</text>
</g>
<!-- assumpHFSM -->
<g id="node16" class="node">
<title>assumpHFSM</title>
<polygon fill="mistyrose" stroke="black" points="2195,-36 2064,-36 2064,0 2195,0 2195,-36"/>
<text text-anchor="middle" x="2129.5" y="-14.3" font-family="Times,serif" font-size="14.00">A:assumpHFSM</text>
</g>
</g>
</svg>
