<?xml version="1.0" encoding="UTF-8" standalone="no"?>
<!DOCTYPE svg PUBLIC "-//W3C//DTD SVG 1.1//EN"
 "http://www.w3.org/Graphics/SVG/1.1/DTD/svg11.dtd">
<!-- Generated by graphviz version 2.43.0 (0)
 -->
<!-- Title: avsall Pages: 1 -->
<svg width="7280pt" height="116pt"
 viewBox="0.00 0.00 7279.50 116.00" xmlns="http://www.w3.org/2000/svg" xmlns:xlink="http://www.w3.org/1999/xlink">
<g id="graph0" class="graph" transform="scale(1 1) rotate(0) translate(4 112)">
<title>avsall</title>
<polygon fill="white" stroke="transparent" points="-4,4 -4,-112 7275.5,-112 7275.5,4 -4,4"/>
<!-- alpha_i -->
<g id="node1" class="node">
<title>alpha_i</title>
<polygon fill="#bbffff" stroke="black" points="489.5,-108 397.5,-108 397.5,-72 489.5,-72 489.5,-108"/>
<text text-anchor="middle" x="443.5" y="-86.3" font-family="Times,serif" font-size="14.00">DD:angleA</text>
</g>
<!-- assumpSBSBISL -->
<g id="node2" class="node">
<title>assumpSBSBISL</title>
<polygon fill="mistyrose" stroke="black" points="435.5,-36 285.5,-36 285.5,0 435.5,0 435.5,-36"/>
<text text-anchor="middle" x="360.5" y="-14.3" font-family="Times,serif" font-size="14.00">A:assumpSBSBISL</text>
</g>
<!-- alpha_i&#45;&gt;assumpSBSBISL -->
<g id="edge1" class="edge">
<title>alpha_i&#45;&gt;assumpSBSBISL</title>
<path fill="none" stroke="black" d="M422.98,-71.7C412.63,-62.97 399.91,-52.24 388.66,-42.75"/>
<polygon fill="black" stroke="black" points="390.68,-39.88 380.78,-36.1 386.17,-45.23 390.68,-39.88"/>
</g>
<!-- beta_i -->
<g id="node3" class="node">
<title>beta_i</title>
<polygon fill="#bbffff" stroke="black" points="93,-108 0,-108 0,-72 93,-72 93,-108"/>
<text text-anchor="middle" x="46.5" y="-86.3" font-family="Times,serif" font-size="14.00">DD:angleB</text>
</g>
<!-- beta_i&#45;&gt;assumpSBSBISL -->
<g id="edge2" class="edge">
<title>beta_i&#45;&gt;assumpSBSBISL</title>
<path fill="none" stroke="black" d="M93.16,-74.48C96.31,-73.61 99.45,-72.78 102.5,-72 159.74,-57.47 224.88,-44.11 275.39,-34.44"/>
<polygon fill="black" stroke="black" points="276.12,-37.86 285.29,-32.55 274.81,-30.99 276.12,-37.86"/>
</g>
<!-- h_i -->
<g id="node4" class="node">
<title>h_i</title>
<polygon fill="#bbffff" stroke="black" points="223.5,-108 111.5,-108 111.5,-72 223.5,-72 223.5,-108"/>
<text text-anchor="middle" x="167.5" y="-86.3" font-family="Times,serif" font-size="14.00">DD:slcHeight</text>
</g>
<!-- h_i&#45;&gt;assumpSBSBISL -->
<g id="edge3" class="edge">
<title>h_i&#45;&gt;assumpSBSBISL</title>
<path fill="none" stroke="black" d="M214.71,-71.88C241.57,-62.14 275.38,-49.87 303.68,-39.61"/>
<polygon fill="black" stroke="black" points="305.23,-42.77 313.44,-36.07 302.85,-36.19 305.23,-42.77"/>
</g>
<!-- theory -->
<g id="node5" class="node">
<title>theory</title>
<polygon fill="#fff68f" stroke="black" points="1427.5,-108 1329.5,-108 1329.5,-72 1427.5,-72 1427.5,-108"/>
<text text-anchor="middle" x="1378.5" y="-86.3" font-family="Times,serif" font-size="14.00">IM:crtSlpId</text>
</g>
<!-- theory&#45;&gt;assumpSBSBISL -->
<g id="edge17" class="edge">
<title>theory:sliceWght&#45;&gt;assumpSBSBISL</title>
<path fill="none" stroke="black" d="M1329.46,-88.76C1189.27,-87.55 777.75,-80.34 436.82,-37.32"/>
<polygon fill="black" stroke="black" points="437.11,-33.83 426.75,-36.03 436.23,-40.77 437.11,-33.83"/>
</g>
<!-- theory&#45;&gt;assumpSBSBISL -->
<g id="edge21" class="edge">
<title>theory:baseWtrF&#45;&gt;assumpSBSBISL</title>
<path fill="none" stroke="black" d="M1329.41,-88.68C1191.52,-87.26 788.92,-79.52 445.66,-36.03"/>
<polygon fill="black" stroke="black" points="445.88,-32.53 435.52,-34.74 444.99,-39.48 445.88,-32.53"/>
</g>
<!-- theory&#45;&gt;assumpSBSBISL -->
<g id="edge25" class="edge">
<title>theory:srfWtrF&#45;&gt;assumpSBSBISL</title>
<path fill="none" stroke="black" d="M1329.38,-88.59C1191.53,-86.91 792.11,-78.48 462.5,-36 457.15,-35.31 451.63,-34.48 446.05,-33.55"/>
<polygon fill="black" stroke="black" points="446.4,-30.06 435.95,-31.8 445.2,-36.96 446.4,-30.06"/>
</g>
<!-- assumpENSL -->
<g id="node6" class="node">
<title>assumpENSL</title>
<polygon fill="mistyrose" stroke="black" points="581,-36 454,-36 454,0 581,0 581,-36"/>
<text text-anchor="middle" x="517.5" y="-14.3" font-family="Times,serif" font-size="14.00">A:assumpENSL</text>
</g>
<!-- theory&#45;&gt;assumpENSL -->
<g id="edge4" class="edge">
<title>theory:equilibriumCS&#45;&gt;assumpENSL</title>
<path fill="none" stroke="black" d="M1329.33,-88.45C1206.39,-86.48 875.71,-77.55 591.19,-35.94"/>
<polygon fill="black" stroke="black" points="591.49,-32.45 581.08,-34.45 590.46,-39.37 591.49,-32.45"/>
</g>
<!-- assumpSLH -->
<g id="node8" class="node">
<title>assumpSLH</title>
<polygon fill="mistyrose" stroke="black" points="715.5,-36 599.5,-36 599.5,0 715.5,0 715.5,-36"/>
<text text-anchor="middle" x="657.5" y="-14.3" font-family="Times,serif" font-size="14.00">A:assumpSLH</text>
</g>
<!-- theory&#45;&gt;assumpSLH -->
<g id="edge6" class="edge">
<title>theory:resShr&#45;&gt;assumpSLH</title>
<path fill="none" stroke="black" d="M1329.2,-87.96C1220.08,-84.96 950.54,-74.05 725.17,-37.58"/>
<polygon fill="black" stroke="black" points="725.58,-34.1 715.14,-35.94 724.45,-41.01 725.58,-34.1"/>
</g>
<!-- theory&#45;&gt;assumpSLH -->
<g id="edge15" class="edge">
<title>theory:sliceWght&#45;&gt;assumpSLH</title>
<path fill="none" stroke="black" d="M1329.24,-87.68C1220.78,-84.25 954.03,-72.65 733.5,-36 730.87,-35.56 728.2,-35.07 725.49,-34.55"/>
<polygon fill="black" stroke="black" points="726.14,-31.11 715.63,-32.48 724.7,-37.96 726.14,-31.11"/>
</g>
<!-- assumpSP -->
<g id="node9" class="node">
<title>assumpSP</title>
<polygon fill="mistyrose" stroke="black" points="1697,-36 1592,-36 1592,0 1697,0 1697,-36"/>
<text text-anchor="middle" x="1644.5" y="-14.3" font-family="Times,serif" font-size="14.00">A:assumpSP</text>
</g>
<!-- theory&#45;&gt;assumpSP -->
<g id="edge7" class="edge">
<title>theory:resShr&#45;&gt;assumpSP</title>
<path fill="none" stroke="black" d="M1427.86,-76.52C1467.23,-66.49 1524.04,-51.9 1582.22,-36.32"/>
<polygon fill="black" stroke="black" points="1583.19,-39.69 1591.94,-33.71 1581.38,-32.92 1583.19,-39.69"/>
</g>
<!-- assumpSLI -->
<g id="node10" class="node">
<title>assumpSLI</title>
<polygon fill="mistyrose" stroke="black" points="1825.5,-36 1715.5,-36 1715.5,0 1825.5,0 1825.5,-36"/>
<text text-anchor="middle" x="1770.5" y="-14.3" font-family="Times,serif" font-size="14.00">A:assumpSLI</text>
</g>
<!-- theory&#45;&gt;assumpSLI -->
<g id="edge8" class="edge">
<title>theory:resShr&#45;&gt;assumpSLI</title>
<path fill="none" stroke="black" d="M1427.68,-82.61C1490.07,-74.16 1601.12,-57.97 1705.36,-36.13"/>
<polygon fill="black" stroke="black" points="1706.37,-39.5 1715.43,-34 1704.92,-32.65 1706.37,-39.5"/>
</g>
<!-- assumpPSC -->
<g id="node11" class="node">
<title>assumpPSC</title>
<polygon fill="mistyrose" stroke="black" points="1959.5,-36 1843.5,-36 1843.5,0 1959.5,0 1959.5,-36"/>
<text text-anchor="middle" x="1901.5" y="-14.3" font-family="Times,serif" font-size="14.00">A:assumpPSC</text>
</g>
<!-- theory&#45;&gt;assumpPSC -->
<g id="edge9" class="edge">
<title>theory:resShr&#45;&gt;assumpPSC</title>
<path fill="none" stroke="black" d="M1427.74,-83.38C1507.89,-75.86 1665.25,-60.54 1798.5,-36 1809.4,-33.99 1821.15,-31.22 1833.41,-28.5"/>
<polygon fill="black" stroke="black" points="1834.31,-31.89 1843.34,-26.34 1832.83,-25.05 1834.31,-31.89"/>
</g>
<!-- theory&#45;&gt;assumpPSC -->
<g id="edge11" class="edge">
<title>theory:effNormF&#45;&gt;assumpPSC</title>
<path fill="none" stroke="black" d="M1427.52,-84.51C1509.16,-77.45 1676.2,-61.84 1816.5,-36 1822.02,-34.98 1827.76,-33.77 1833.56,-32.47"/>
<polygon fill="black" stroke="black" points="1834.4,-35.87 1843.36,-30.21 1832.83,-29.05 1834.4,-35.87"/>
</g>
<!-- theory&#45;&gt;assumpPSC -->
<g id="edge16" class="edge">
<title>theory:sliceWght&#45;&gt;assumpPSC</title>
<path fill="none" stroke="black" d="M1427.74,-85.43C1509.9,-79.01 1680.21,-63.7 1833.43,-36.06"/>
<polygon fill="black" stroke="black" points="1834.29,-39.46 1843.5,-34.22 1833.03,-32.57 1834.29,-39.46"/>
</g>
<!-- theory&#45;&gt;assumpPSC -->
<g id="edge20" class="edge">
<title>theory:baseWtrF&#45;&gt;assumpPSC</title>
<path fill="none" stroke="black" d="M1427.51,-86.22C1512.65,-80.34 1691.21,-64.89 1842.15,-37.88"/>
<polygon fill="black" stroke="black" points="1842.84,-41.31 1852.05,-36.08 1841.59,-34.42 1842.84,-41.31"/>
</g>
<!-- theory&#45;&gt;assumpPSC -->
<g id="edge24" class="edge">
<title>theory:srfWtrF&#45;&gt;assumpPSC</title>
<path fill="none" stroke="black" d="M1427.65,-86.83C1517.26,-81.46 1703.38,-65.91 1859.78,-37.95"/>
<polygon fill="black" stroke="black" points="1860.82,-41.31 1870.04,-36.09 1859.57,-34.43 1860.82,-41.31"/>
</g>
<!-- assumpFOS -->
<g id="node12" class="node">
<title>assumpFOS</title>
<polygon fill="mistyrose" stroke="black" points="849.5,-36 733.5,-36 733.5,0 849.5,0 849.5,-36"/>
<text text-anchor="middle" x="791.5" y="-14.3" font-family="Times,serif" font-size="14.00">A:assumpFOS</text>
</g>
<!-- theory&#45;&gt;assumpFOS -->
<g id="edge10" class="edge">
<title>theory:mobShr&#45;&gt;assumpFOS</title>
<path fill="none" stroke="black" d="M1329.42,-86.41C1238.5,-81.08 1037.7,-66.88 859.91,-36.11"/>
<polygon fill="black" stroke="black" points="860.31,-32.62 849.86,-34.34 859.1,-39.52 860.31,-32.62"/>
</g>
<!-- assumpINSFL -->
<g id="node13" class="node">
<title>assumpINSFL</title>
<polygon fill="mistyrose" stroke="black" points="2233,-36 2102,-36 2102,0 2233,0 2233,-36"/>
<text text-anchor="middle" x="2167.5" y="-14.3" font-family="Times,serif" font-size="14.00">A:assumpINSFL</text>
</g>
<!-- theory&#45;&gt;assumpINSFL -->
<g id="edge12" class="edge">
<title>theory:X_i&#45;&gt;assumpINSFL</title>
<path fill="none" stroke="black" d="M1427.77,-87.73C1543.12,-84.32 1838.87,-72.6 2083.5,-36 2086.19,-35.6 2088.93,-35.15 2091.7,-34.67"/>
<polygon fill="black" stroke="black" points="2092.6,-38.06 2101.8,-32.8 2091.33,-31.18 2092.6,-38.06"/>
</g>
<!-- theory&#45;&gt;assumpINSFL -->
<g id="edge28" class="edge">
<title>theory:FS&#45;&gt;assumpINSFL</title>
<path fill="none" stroke="black" d="M1427.88,-87.98C1543.93,-84.96 1842.4,-73.86 2091.92,-37.41"/>
<polygon fill="black" stroke="black" points="2092.52,-40.87 2101.9,-35.94 2091.49,-33.94 2092.52,-40.87"/>
</g>
<!-- assumpNESSS -->
<g id="node14" class="node">
<title>assumpNESSS</title>
<polygon fill="mistyrose" stroke="black" points="1003.5,-36 867.5,-36 867.5,0 1003.5,0 1003.5,-36"/>
<text text-anchor="middle" x="935.5" y="-14.3" font-family="Times,serif" font-size="14.00">A:assumpNESSS</text>
</g>
<!-- theory&#45;&gt;assumpNESSS -->
<g id="edge13" class="edge">
<title>theory:momentEql&#45;&gt;assumpNESSS</title>
<path fill="none" stroke="black" d="M1329.47,-83.06C1261,-74.52 1132.66,-57.57 1013.88,-36.18"/>
<polygon fill="black" stroke="black" points="1014.35,-32.71 1003.88,-34.37 1013.1,-39.6 1014.35,-32.71"/>
</g>
<!-- assumpHFSM -->
<g id="node15" class="node">
<title>assumpHFSM</title>
<polygon fill="mistyrose" stroke="black" points="1153,-36 1022,-36 1022,0 1153,0 1153,-36"/>
<text text-anchor="middle" x="1087.5" y="-14.3" font-family="Times,serif" font-size="14.00">A:assumpHFSM</text>
</g>
<!-- theory&#45;&gt;assumpHFSM -->
<g id="edge14" class="edge">
<title>theory:momentEql&#45;&gt;assumpHFSM</title>
<path fill="none" stroke="black" d="M1329.35,-79.49C1281.68,-69 1209.49,-51.85 1156.23,-38.48"/>
<polygon fill="black" stroke="black" points="1157.07,-35.08 1146.52,-36.03 1155.36,-41.87 1157.07,-35.08"/>
</g>
<!-- theory&#45;&gt;assumpHFSM -->
<g id="edge23" class="edge">
<title>theory:baseWtrF&#45;&gt;assumpHFSM</title>
<path fill="none" stroke="black" d="M1329.46,-77.2C1283.97,-66.26 1215.56,-49.81 1163.08,-37.18"/>
<polygon fill="black" stroke="black" points="1163.68,-33.73 1153.14,-34.79 1162.05,-40.53 1163.68,-33.73"/>
</g>
<!-- theory&#45;&gt;assumpHFSM -->
<g id="edge27" class="edge">
<title>theory:srfWtrF&#45;&gt;assumpHFSM</title>
<path fill="none" stroke="black" d="M1329.39,-74.5C1283.76,-62.8 1215.58,-46.38 1163.08,-34.44"/>
<polygon fill="black" stroke="black" points="1163.67,-30.98 1153.14,-32.19 1162.12,-37.81 1163.67,-30.98"/>
</g>
<!-- assumpWIBE -->
<g id="node16" class="node">
<title>assumpWIBE</title>
<polygon fill="mistyrose" stroke="black" points="1297.5,-36 1171.5,-36 1171.5,0 1297.5,0 1297.5,-36"/>
<text text-anchor="middle" x="1234.5" y="-14.3" font-family="Times,serif" font-size="14.00">A:assumpWIBE</text>
</g>
<!-- theory&#45;&gt;assumpWIBE -->
<g id="edge18" class="edge">
<title>theory:sliceWght&#45;&gt;assumpWIBE</title>
<path fill="none" stroke="black" d="M1337.38,-71.88C1317.13,-62.51 1292.93,-50.81 1273.05,-40.8"/>
<polygon fill="black" stroke="black" points="1274.46,-37.59 1263.96,-36.19 1271.29,-43.84 1274.46,-37.59"/>
</g>
<!-- theory&#45;&gt;assumpWIBE -->
<g id="edge22" class="edge">
<title>theory:baseWtrF&#45;&gt;assumpWIBE</title>
<path fill="none" stroke="black" d="M1349.17,-71.88C1330.65,-62.39 1306.34,-50.51 1284.84,-40.42"/>
<polygon fill="black" stroke="black" points="1286.05,-37.12 1275.5,-36.07 1283.09,-43.47 1286.05,-37.12"/>
</g>
<!-- assumpWISE -->
<g id="node17" class="node">
<title>assumpWISE</title>
<polygon fill="mistyrose" stroke="black" points="1441,-36 1316,-36 1316,0 1441,0 1441,-36"/>
<text text-anchor="middle" x="1378.5" y="-14.3" font-family="Times,serif" font-size="14.00">A:assumpWISE</text>
</g>
<!-- theory&#45;&gt;assumpWISE -->
<g id="edge19" class="edge">
<title>theory:sliceWght&#45;&gt;assumpWISE</title>
<path fill="none" stroke="black" d="M1372.58,-71.7C1371.79,-63.98 1371.56,-54.71 1371.9,-46.11"/>
<polygon fill="black" stroke="black" points="1375.4,-46.32 1372.6,-36.1 1368.42,-45.84 1375.4,-46.32"/>
</g>
<!-- theory&#45;&gt;assumpWISE -->
<g id="edge26" class="edge">
<title>theory:srfWtrF&#45;&gt;assumpWISE</title>
<path fill="none" stroke="black" d="M1384.42,-71.7C1385.21,-63.98 1385.44,-54.71 1385.1,-46.11"/>
<polygon fill="black" stroke="black" points="1388.58,-45.84 1384.4,-36.1 1381.6,-46.32 1388.58,-45.84"/>
</g>
<!-- assumpES -->
<g id="node18" class="node">
<title>assumpES</title>
<polygon fill="mistyrose" stroke="black" points="2083.5,-36 1977.5,-36 1977.5,0 2083.5,0 2083.5,-36"/>
<text text-anchor="middle" x="2030.5" y="-14.3" font-family="Times,serif" font-size="14.00">A:assumpES</text>
</g>
<!-- theory&#45;&gt;assumpES -->
<g id="edge29" class="edge">
<title>theory:FS&#45;&gt;assumpES</title>
<path fill="none" stroke="black" d="M1427.87,-87.34C1528.63,-83.45 1764.42,-71.22 1959.5,-36 1962.14,-35.52 1964.83,-34.99 1967.54,-34.41"/>
<polygon fill="black" stroke="black" points="1968.47,-37.78 1977.43,-32.13 1966.9,-30.96 1968.47,-37.78"/>
</g>
<!-- theory&#45;&gt;assumpES -->
<g id="edge36" class="edge">
<title>theory:intsliceFsRC&#45;&gt;assumpES</title>
<path fill="none" stroke="black" d="M1427.65,-87.71C1528.97,-84.3 1767.74,-72.8 1967.74,-37.74"/>
<polygon fill="black" stroke="black" points="1968.6,-41.14 1977.83,-35.94 1967.37,-34.25 1968.6,-41.14"/>
</g>
<!-- assumpSF -->
<g id="node19" class="node">
<title>assumpSF</title>
<polygon fill="mistyrose" stroke="black" points="2356,-36 2251,-36 2251,0 2356,0 2356,-36"/>
<text text-anchor="middle" x="2303.5" y="-14.3" font-family="Times,serif" font-size="14.00">A:assumpSF</text>
</g>
<!-- theory&#45;&gt;assumpSF -->
<g id="edge30" class="edge">
<title>theory:FS&#45;&gt;assumpSF</title>
<path fill="none" stroke="black" d="M1427.55,-87.35C1583.11,-81.91 2065,-63.39 2240.86,-36.04"/>
<polygon fill="black" stroke="black" points="2241.44,-39.49 2250.75,-34.43 2240.32,-32.58 2241.44,-39.49"/>
</g>
<!-- assumpSL -->
<g id="node20" class="node">
<title>assumpSL</title>
<polygon fill="mistyrose" stroke="black" points="2478.5,-36 2374.5,-36 2374.5,0 2478.5,0 2478.5,-36"/>
<text text-anchor="middle" x="2426.5" y="-14.3" font-family="Times,serif" font-size="14.00">A:assumpSL</text>
</g>
<!-- theory&#45;&gt;assumpSL -->
<g id="edge31" class="edge">
<title>theory:FS&#45;&gt;assumpSL</title>
<path fill="none" stroke="black" d="M1427.75,-87.78C1598.13,-83.33 2162.7,-66.71 2364.52,-35.89"/>
<polygon fill="black" stroke="black" points="2365.1,-39.34 2374.42,-34.32 2364,-32.43 2365.1,-39.34"/>
</g>
<!-- assumpSSC -->
<g id="node22" class="node">
<title>assumpSSC</title>
<polygon fill="mistyrose" stroke="black" points="1574,-36 1459,-36 1459,0 1574,0 1574,-36"/>
<text text-anchor="middle" x="1516.5" y="-14.3" font-family="Times,serif" font-size="14.00">A:assumpSSC</text>
</g>
<!-- theory&#45;&gt;assumpSSC -->
<g id="edge37" class="edge">
<title>theory:crtSlpIdIM&#45;&gt;assumpSSC</title>
<path fill="none" stroke="black" d="M1412.26,-71.88C1430.72,-62.51 1453.78,-50.81 1473.52,-40.8"/>
<polygon fill="black" stroke="black" points="1475.28,-43.83 1482.61,-36.19 1472.11,-37.59 1475.28,-43.83"/>
</g>
<!-- mcShrSrgth -->
<g id="node7" class="node">
<title>mcShrSrgth</title>
<polygon fill="pink" stroke="black" points="379,-108 242,-108 242,-72 379,-72 379,-108"/>
<text text-anchor="middle" x="310.5" y="-86.3" font-family="Times,serif" font-size="14.00">TM:mcShrStrgth</text>
</g>
<!-- mcShrSrgth&#45;&gt;assumpSBSBISL -->
<g id="edge5" class="edge">
<title>mcShrSrgth&#45;&gt;assumpSBSBISL</title>
<path fill="none" stroke="black" d="M322.86,-71.7C328.73,-63.47 335.87,-53.48 342.34,-44.42"/>
<polygon fill="black" stroke="black" points="345.32,-46.28 348.28,-36.1 339.62,-42.21 345.32,-46.28"/>
</g>
<!-- nrmShrForIM -->
<g id="node21" class="node">
<title>nrmShrForIM</title>
<polygon fill="#fff68f" stroke="black" points="2227,-108 2108,-108 2108,-72 2227,-72 2227,-108"/>
<text text-anchor="middle" x="2167.5" y="-86.3" font-family="Times,serif" font-size="14.00">IM:nrmShrFor</text>
</g>
<!-- nrmShrForIM&#45;&gt;assumpINSFL -->
<g id="edge32" class="edge">
<title>nrmShrForIM&#45;&gt;assumpINSFL</title>
<path fill="none" stroke="black" d="M2167.5,-71.7C2167.5,-63.98 2167.5,-54.71 2167.5,-46.11"/>
<polygon fill="black" stroke="black" points="2171,-46.1 2167.5,-36.1 2164,-46.1 2171,-46.1"/>
</g>
<!-- nrmShrForIM&#45;&gt;assumpES -->
<g id="edge33" class="edge">
<title>nrmShrForIM&#45;&gt;assumpES</title>
<path fill="none" stroke="black" d="M2133.99,-71.88C2115.66,-62.51 2092.76,-50.81 2073.17,-40.8"/>
<polygon fill="black" stroke="black" points="2074.64,-37.62 2064.14,-36.19 2071.46,-43.86 2074.64,-37.62"/>
</g>
<!-- nrmShrForIM&#45;&gt;assumpSF -->
<g id="edge34" class="edge">
<title>nrmShrForIM&#45;&gt;assumpSF</title>
<path fill="none" stroke="black" d="M2200.77,-71.88C2218.96,-62.51 2241.69,-50.81 2261.14,-40.8"/>
<polygon fill="black" stroke="black" points="2262.81,-43.88 2270.1,-36.19 2259.61,-37.65 2262.81,-43.88"/>
</g>
<!-- nrmShrForIM&#45;&gt;assumpSL -->
<g id="edge35" class="edge">
<title>nrmShrForIM&#45;&gt;assumpSL</title>
<path fill="none" stroke="black" d="M2227.33,-73.16C2264.33,-63.32 2313.05,-50.29 2364.61,-36.23"/>
<polygon fill="black" stroke="black" points="2365.54,-39.61 2374.27,-33.59 2363.7,-32.85 2365.54,-39.61"/>
</g>
<!-- LC_inhomogeneous -->
<g id="node23" class="node">
<title>LC_inhomogeneous</title>
<polygon fill="lavender" stroke="black" points="826,-108 647,-108 647,-72 826,-72 826,-108"/>
<text text-anchor="middle" x="736.5" y="-86.3" font-family="Times,serif" font-size="14.00">LC:LC_inhomogeneous</text>
</g>
<!-- LC_inhomogeneous&#45;&gt;assumpSLH -->
<g id="edge38" class="edge">
<title>LC_inhomogeneous&#45;&gt;assumpSLH</title>
<path fill="none" stroke="black" d="M716.97,-71.7C707.12,-62.97 695.01,-52.24 684.3,-42.75"/>
<polygon fill="black" stroke="black" points="686.61,-40.12 676.8,-36.1 681.97,-45.36 686.61,-40.12"/>
</g>
<!-- LC_seismic -->
<g id="node24" class="node">
<title>LC_seismic</title>
<polygon fill="lavender" stroke="black" points="2365.5,-108 2245.5,-108 2245.5,-72 2365.5,-72 2365.5,-108"/>
<text text-anchor="middle" x="2305.5" y="-86.3" font-family="Times,serif" font-size="14.00">LC:LC_seismic</text>
</g>
<!-- LC_seismic&#45;&gt;assumpSF -->
<g id="edge39" class="edge">
<title>LC_seismic&#45;&gt;assumpSF</title>
<path fill="none" stroke="black" d="M2305.01,-71.7C2304.79,-63.98 2304.52,-54.71 2304.27,-46.11"/>
<polygon fill="black" stroke="black" points="2307.77,-46 2303.99,-36.1 2300.78,-46.2 2307.77,-46"/>
</g>
<!-- LC_external -->
<g id="node25" class="node">
<title>LC_external</title>
<polygon fill="lavender" stroke="black" points="2509.5,-108 2383.5,-108 2383.5,-72 2509.5,-72 2509.5,-108"/>
<text text-anchor="middle" x="2446.5" y="-86.3" font-family="Times,serif" font-size="14.00">LC:LC_external</text>
</g>
<!-- LC_external&#45;&gt;assumpSL -->
<g id="edge40" class="edge">
<title>LC_external&#45;&gt;assumpSL</title>
<path fill="none" stroke="black" d="M2441.56,-71.7C2439.33,-63.9 2436.65,-54.51 2434.17,-45.83"/>
<polygon fill="black" stroke="black" points="2437.5,-44.76 2431.39,-36.1 2430.77,-46.68 2437.5,-44.76"/>
</g>
<!-- UC_normshearlinear -->
<g id="node26" class="node">
<title>UC_normshearlinear</title>
<polygon fill="lavender" stroke="black" points="2090,-108 1899,-108 1899,-72 2090,-72 2090,-108"/>
<text text-anchor="middle" x="1994.5" y="-86.3" font-family="Times,serif" font-size="14.00">UC:UC_normshearlinear</text>
</g>
<!-- UC_normshearlinear&#45;&gt;assumpINSFL -->
<g id="edge41" class="edge">
<title>UC_normshearlinear&#45;&gt;assumpINSFL</title>
<path fill="none" stroke="black" d="M2036.82,-71.88C2060.68,-62.22 2090.67,-50.09 2115.9,-39.88"/>
<polygon fill="black" stroke="black" points="2117.36,-43.06 2125.32,-36.07 2114.73,-36.57 2117.36,-43.06"/>
</g>
<!-- UC_2donly -->
<g id="node27" class="node">
<title>UC_2donly</title>
<polygon fill="lavender" stroke="black" points="629,-108 508,-108 508,-72 629,-72 629,-108"/>
<text text-anchor="middle" x="568.5" y="-86.3" font-family="Times,serif" font-size="14.00">UC:UC_2donly</text>
</g>
<!-- UC_2donly&#45;&gt;assumpENSL -->
<g id="edge42" class="edge">
<title>UC_2donly&#45;&gt;assumpENSL</title>
<path fill="none" stroke="black" d="M555.89,-71.7C549.9,-63.47 542.62,-53.48 536.02,-44.42"/>
<polygon fill="black" stroke="black" points="538.68,-42.13 529.96,-36.1 533.02,-46.25 538.68,-42.13"/>
</g>
<!-- H_i -->
<g id="node28" class="node">
<title>H_i</title>
<polygon fill="#bbffff" stroke="black" points="2675,-108 2528,-108 2528,-72 2675,-72 2675,-108"/>
<text text-anchor="middle" x="2601.5" y="-86.3" font-family="Times,serif" font-size="14.00">DD:intersliceWtrF</text>
</g>
<!-- b_i -->
<g id="node29" class="node">
<title>b_i</title>
<polygon fill="#bbffff" stroke="black" points="2793.5,-108 2693.5,-108 2693.5,-72 2793.5,-72 2793.5,-108"/>
<text text-anchor="middle" x="2743.5" y="-86.3" font-family="Times,serif" font-size="14.00">DD:lengthB</text>
</g>
<!-- l_bi -->
<g id="node30" class="node">
<title>l_bi</title>
<polygon fill="#bbffff" stroke="black" points="2919,-108 2812,-108 2812,-72 2919,-72 2919,-108"/>
<text text-anchor="middle" x="2865.5" y="-86.3" font-family="Times,serif" font-size="14.00">DD:lengthLb</text>
</g>
<!-- l_si -->
<g id="node31" class="node">
<title>l_si</title>
<polygon fill="#bbffff" stroke="black" points="3043.5,-108 2937.5,-108 2937.5,-72 3043.5,-72 3043.5,-108"/>
<text text-anchor="middle" x="2990.5" y="-86.3" font-family="Times,serif" font-size="14.00">DD:lengthLs</text>
</g>
<!-- sigma -->
<g id="node32" class="node">
<title>sigma</title>
<polygon fill="#bbffff" stroke="black" points="3189,-108 3062,-108 3062,-72 3189,-72 3189,-108"/>
<text text-anchor="middle" x="3125.5" y="-86.3" font-family="Times,serif" font-size="14.00">DD:normStress</text>
</g>
<!-- tau -->
<g id="node33" class="node">
<title>tau</title>
<polygon fill="#bbffff" stroke="black" points="3329.5,-108 3207.5,-108 3207.5,-72 3329.5,-72 3329.5,-108"/>
<text text-anchor="middle" x="3268.5" y="-86.3" font-family="Times,serif" font-size="14.00">DD:tangStress</text>
</g>
<!-- torque -->
<g id="node34" class="node">
<title>torque</title>
<polygon fill="#bbffff" stroke="black" points="3439,-108 3348,-108 3348,-72 3439,-72 3439,-108"/>
<text text-anchor="middle" x="3393.5" y="-86.3" font-family="Times,serif" font-size="14.00">DD:torque</text>
</g>
<!-- f_i -->
<g id="node35" class="node">
<title>f_i</title>
<polygon fill="#bbffff" stroke="black" points="3599.5,-108 3457.5,-108 3457.5,-72 3599.5,-72 3599.5,-108"/>
<text text-anchor="middle" x="3528.5" y="-86.3" font-family="Times,serif" font-size="14.00">DD:ratioVariation</text>
</g>
<!-- Phi -->
<g id="node36" class="node">
<title>Phi</title>
<polygon fill="#bbffff" stroke="black" points="3759.5,-108 3617.5,-108 3617.5,-72 3759.5,-72 3759.5,-108"/>
<text text-anchor="middle" x="3688.5" y="-86.3" font-family="Times,serif" font-size="14.00">DD:convertFunc1</text>
</g>
<!-- Psi -->
<g id="node37" class="node">
<title>Psi</title>
<polygon fill="#bbffff" stroke="black" points="3919.5,-108 3777.5,-108 3777.5,-72 3919.5,-72 3919.5,-108"/>
<text text-anchor="middle" x="3848.5" y="-86.3" font-family="Times,serif" font-size="14.00">DD:convertFunc2</text>
</g>
<!-- F_xG -->
<g id="node38" class="node">
<title>F_xG</title>
<polygon fill="#bbffff" stroke="black" points="4105,-108 3938,-108 3938,-72 4105,-72 4105,-108"/>
<text text-anchor="middle" x="4021.5" y="-86.3" font-family="Times,serif" font-size="14.00">DD:nrmForceSumDD</text>
</g>
<!-- F_xH -->
<g id="node39" class="node">
<title>F_xH</title>
<polygon fill="#bbffff" stroke="black" points="4287.5,-108 4123.5,-108 4123.5,-72 4287.5,-72 4287.5,-108"/>
<text text-anchor="middle" x="4205.5" y="-86.3" font-family="Times,serif" font-size="14.00">DD:watForceSumDD</text>
</g>
<!-- hR -->
<g id="node40" class="node">
<title>hR</title>
<polygon fill="#bbffff" stroke="black" points="4479,-108 4306,-108 4306,-72 4479,-72 4479,-108"/>
<text text-anchor="middle" x="4392.5" y="-86.3" font-family="Times,serif" font-size="14.00">DD:sliceHghtRightDD</text>
</g>
<!-- hL -->
<g id="node41" class="node">
<title>hL</title>
<polygon fill="#bbffff" stroke="black" points="4660,-108 4497,-108 4497,-72 4660,-72 4660,-108"/>
<text text-anchor="middle" x="4578.5" y="-86.3" font-family="Times,serif" font-size="14.00">DD:sliceHghtLeftDD</text>
</g>
<!-- factOfSafetyTM -->
<g id="node42" class="node">
<title>factOfSafetyTM</title>
<polygon fill="pink" stroke="black" points="4812.5,-108 4678.5,-108 4678.5,-72 4812.5,-72 4812.5,-108"/>
<text text-anchor="middle" x="4745.5" y="-86.3" font-family="Times,serif" font-size="14.00">TM:factOfSafety</text>
</g>
<!-- effectiveStressTM -->
<g id="node43" class="node">
<title>effectiveStressTM</title>
<polygon fill="pink" stroke="black" points="4938.5,-108 4830.5,-108 4830.5,-72 4938.5,-72 4938.5,-108"/>
<text text-anchor="middle" x="4884.5" y="-86.3" font-family="Times,serif" font-size="14.00">TM:effStress</text>
</g>
<!-- newtonSL -->
<g id="node44" class="node">
<title>newtonSL</title>
<polygon fill="pink" stroke="black" points="5140,-108 4957,-108 4957,-72 5140,-72 5140,-108"/>
<text text-anchor="middle" x="5048.5" y="-86.3" font-family="Times,serif" font-size="14.00">TM:NewtonSecLawMot</text>
</g>
<!-- readAndStore -->
<g id="node45" class="node">
<title>readAndStore</title>
<polygon fill="ivory" stroke="black" points="5298.5,-108 5158.5,-108 5158.5,-72 5298.5,-72 5298.5,-108"/>
<text text-anchor="middle" x="5228.5" y="-86.3" font-family="Times,serif" font-size="14.00">FR:readAndStore</text>
</g>
<!-- verifyInput -->
<g id="node46" class="node">
<title>verifyInput</title>
<polygon fill="ivory" stroke="black" points="5438,-108 5317,-108 5317,-72 5438,-72 5438,-108"/>
<text text-anchor="middle" x="5377.5" y="-86.3" font-family="Times,serif" font-size="14.00">FR:verifyInput</text>
</g>
<!-- determineCritSlip -->
<g id="node47" class="node">
<title>determineCritSlip</title>
<polygon fill="ivory" stroke="black" points="5626.5,-108 5456.5,-108 5456.5,-72 5626.5,-72 5626.5,-108"/>
<text text-anchor="middle" x="5541.5" y="-86.3" font-family="Times,serif" font-size="14.00">FR:determineCritSlip</text>
</g>
<!-- verifyOutput -->
<g id="node48" class="node">
<title>verifyOutput</title>
<polygon fill="ivory" stroke="black" points="5778,-108 5645,-108 5645,-72 5778,-72 5778,-108"/>
<text text-anchor="middle" x="5711.5" y="-86.3" font-family="Times,serif" font-size="14.00">FR:verifyOutput</text>
</g>
<!-- displayInput -->
<g id="node49" class="node">
<title>displayInput</title>
<polygon fill="ivory" stroke="black" points="5927,-108 5796,-108 5796,-72 5927,-72 5927,-108"/>
<text text-anchor="middle" x="5861.5" y="-86.3" font-family="Times,serif" font-size="14.00">FR:displayInput</text>
</g>
<!-- displayGraph -->
<g id="node50" class="node">
<title>displayGraph</title>
<polygon fill="ivory" stroke="black" points="6082,-108 5945,-108 5945,-72 6082,-72 6082,-108"/>
<text text-anchor="middle" x="6013.5" y="-86.3" font-family="Times,serif" font-size="14.00">FR:displayGraph</text>
</g>
<!-- displayFS -->
<g id="node51" class="node">
<title>displayFS</title>
<polygon fill="ivory" stroke="black" points="6212.5,-108 6100.5,-108 6100.5,-72 6212.5,-72 6212.5,-108"/>
<text text-anchor="middle" x="6156.5" y="-86.3" font-family="Times,serif" font-size="14.00">FR:displayFS</text>
</g>
<!-- displayNormal -->
<g id="node52" class="node">
<title>displayNormal</title>
<polygon fill="ivory" stroke="black" points="6376.5,-108 6230.5,-108 6230.5,-72 6376.5,-72 6376.5,-108"/>
<text text-anchor="middle" x="6303.5" y="-86.3" font-family="Times,serif" font-size="14.00">FR:displayNormal</text>
</g>
<!-- displayShear -->
<g id="node53" class="node">
<title>displayShear</title>
<polygon fill="ivory" stroke="black" points="6528.5,-108 6394.5,-108 6394.5,-72 6528.5,-72 6528.5,-108"/>
<text text-anchor="middle" x="6461.5" y="-86.3" font-family="Times,serif" font-size="14.00">FR:displayShear</text>
</g>
<!-- writeToFile -->
<g id="node54" class="node">
<title>writeToFile</title>
<polygon fill="ivory" stroke="black" points="6668.5,-108 6546.5,-108 6546.5,-72 6668.5,-72 6668.5,-108"/>
<text text-anchor="middle" x="6607.5" y="-86.3" font-family="Times,serif" font-size="14.00">FR:writeToFile</text>
</g>
<!-- correct -->
<g id="node55" class="node">
<title>correct</title>
<polygon fill="ivory" stroke="black" points="6790.5,-108 6686.5,-108 6686.5,-72 6790.5,-72 6790.5,-108"/>
<text text-anchor="middle" x="6738.5" y="-86.3" font-family="Times,serif" font-size="14.00">NFR:correct</text>
</g>
<!-- understandable -->
<g id="node56" class="node">
<title>understandable</title>
<polygon fill="ivory" stroke="black" points="6974,-108 6809,-108 6809,-72 6974,-72 6974,-108"/>
<text text-anchor="middle" x="6891.5" y="-86.3" font-family="Times,serif" font-size="14.00">NFR:understandable</text>
</g>
<!-- reusable -->
<g id="node57" class="node">
<title>reusable</title>
<polygon fill="ivory" stroke="black" points="7107,-108 6992,-108 6992,-72 7107,-72 7107,-108"/>
<text text-anchor="middle" x="7049.5" y="-86.3" font-family="Times,serif" font-size="14.00">NFR:reusable</text>
</g>
<!-- maintainable -->
<g id="node58" class="node">
<title>maintainable</title>
<polygon fill="ivory" stroke="black" points="7271.5,-108 7125.5,-108 7125.5,-72 7271.5,-72 7271.5,-108"/>
<text text-anchor="middle" x="7198.5" y="-86.3" font-family="Times,serif" font-size="14.00">NFR:maintainable</text>
</g>
</g>
</svg>
