<?xml version="1.0" encoding="UTF-8" standalone="no"?>
<!DOCTYPE svg PUBLIC "-//W3C//DTD SVG 1.1//EN"
 "http://www.w3.org/Graphics/SVG/1.1/DTD/svg11.dtd">
<!-- Generated by graphviz version 2.43.0 (0)
 -->
<!-- Title: refvsref Pages: 1 -->
<svg width="2830pt" height="294pt"
 viewBox="0.00 0.00 2830.00 293.66" xmlns="http://www.w3.org/2000/svg" xmlns:xlink="http://www.w3.org/1999/xlink">
<g id="graph0" class="graph" transform="scale(1 1) rotate(0) translate(4 289.66)">
<title>refvsref</title>
<polygon fill="white" stroke="transparent" points="-4,4 -4,-289.66 2826,-289.66 2826,4 -4,4"/>
<!-- l_bi -->
<g id="node1" class="node">
<title>l_bi</title>
<polygon fill="#bbffff" stroke="black" points="702.5,-36 595.5,-36 595.5,0 702.5,0 702.5,-36"/>
<text text-anchor="middle" x="649" y="-14.3" font-family="Times,serif" font-size="14.00">DD:lengthLb</text>
</g>
<!-- alpha_i -->
<g id="node2" class="node">
<title>alpha_i</title>
<polygon fill="#bbffff" stroke="black" points="1162,-36 1070,-36 1070,0 1162,0 1162,-36"/>
<text text-anchor="middle" x="1116" y="-14.3" font-family="Times,serif" font-size="14.00">DD:angleA</text>
</g>
<!-- l_bi&#45;&gt;alpha_i -->
<g id="edge1" class="edge">
<title>l_bi&#45;&gt;alpha_i</title>
<path fill="none" stroke="black" d="M689.91,-36.18C707.95,-43.24 729.64,-50.48 750,-54 816.13,-65.43 987.08,-71.01 1052,-54 1062.37,-51.28 1072.84,-46.46 1082.22,-41.22"/>
<polygon fill="black" stroke="black" points="1084.02,-44.22 1090.84,-36.11 1080.45,-38.2 1084.02,-44.22"/>
</g>
<!-- b_i -->
<g id="node3" class="node">
<title>b_i</title>
<polygon fill="#bbffff" stroke="black" points="2454,-36 2354,-36 2354,0 2454,0 2454,-36"/>
<text text-anchor="middle" x="2404" y="-14.3" font-family="Times,serif" font-size="14.00">DD:lengthB</text>
</g>
<!-- l_bi&#45;&gt;b_i -->
<g id="edge2" class="edge">
<title>l_bi&#45;&gt;b_i</title>
<path fill="none" stroke="black" d="M689.91,-36.18C707.95,-43.24 729.64,-50.48 750,-54 836.82,-69.01 2250.49,-75.24 2336,-54 2347.02,-51.26 2358.21,-46.38 2368.26,-41.07"/>
<polygon fill="black" stroke="black" points="2370.09,-44.05 2377.12,-36.12 2366.68,-37.94 2370.09,-44.05"/>
</g>
<!-- l_si -->
<g id="node4" class="node">
<title>l_si</title>
<polygon fill="#bbffff" stroke="black" points="2064,-36 1958,-36 1958,0 2064,0 2064,-36"/>
<text text-anchor="middle" x="2011" y="-14.3" font-family="Times,serif" font-size="14.00">DD:lengthLs</text>
</g>
<!-- l_si&#45;&gt;b_i -->
<g id="edge4" class="edge">
<title>l_si&#45;&gt;b_i</title>
<path fill="none" stroke="black" d="M2039.6,-36.13C2052.36,-43.19 2067.9,-50.44 2083,-54 2137.72,-66.92 2281.44,-67.55 2336,-54 2347.02,-51.26 2358.21,-46.38 2368.26,-41.07"/>
<polygon fill="black" stroke="black" points="2370.09,-44.05 2377.12,-36.12 2366.68,-37.94 2370.09,-44.05"/>
</g>
<!-- beta_i -->
<g id="node5" class="node">
<title>beta_i</title>
<polygon fill="#bbffff" stroke="black" points="2175.5,-36 2082.5,-36 2082.5,0 2175.5,0 2175.5,-36"/>
<text text-anchor="middle" x="2129" y="-14.3" font-family="Times,serif" font-size="14.00">DD:angleB</text>
</g>
<!-- l_si&#45;&gt;beta_i -->
<g id="edge3" class="edge">
<title>l_si&#45;&gt;beta_i</title>
<path fill="none" stroke="black" d="M2064.01,-18C2066.67,-18 2069.34,-18 2072,-18"/>
<polygon fill="black" stroke="black" points="2072.29,-21.5 2082.29,-18 2072.29,-14.5 2072.29,-21.5"/>
</g>
<!-- h_i -->
<g id="node6" class="node">
<title>h_i</title>
<polygon fill="#bbffff" stroke="black" points="1567,-36 1455,-36 1455,0 1567,0 1567,-36"/>
<text text-anchor="middle" x="1511" y="-14.3" font-family="Times,serif" font-size="14.00">DD:slcHeight</text>
</g>
<!-- hR -->
<g id="node7" class="node">
<title>hR</title>
<polygon fill="#bbffff" stroke="black" points="1758.5,-36 1585.5,-36 1585.5,0 1758.5,0 1758.5,-36"/>
<text text-anchor="middle" x="1672" y="-14.3" font-family="Times,serif" font-size="14.00">DD:sliceHghtRightDD</text>
</g>
<!-- h_i&#45;&gt;hR -->
<g id="edge5" class="edge">
<title>h_i&#45;&gt;hR</title>
<path fill="none" stroke="black" d="M1567.29,-18C1569.91,-18 1572.54,-18 1575.16,-18"/>
<polygon fill="black" stroke="black" points="1575.28,-21.5 1585.28,-18 1575.28,-14.5 1575.28,-21.5"/>
</g>
<!-- hL -->
<g id="node8" class="node">
<title>hL</title>
<polygon fill="#bbffff" stroke="black" points="1939.5,-36 1776.5,-36 1776.5,0 1939.5,0 1939.5,-36"/>
<text text-anchor="middle" x="1858" y="-14.3" font-family="Times,serif" font-size="14.00">DD:sliceHghtLeftDD</text>
</g>
<!-- h_i&#45;&gt;hL -->
<g id="edge6" class="edge">
<title>h_i&#45;&gt;hL</title>
<path fill="none" stroke="black" d="M1540.88,-36.14C1554.19,-43.2 1570.37,-50.44 1586,-54 1660.97,-71.06 1683.28,-67.34 1759,-54 1775.56,-51.08 1792.99,-45.62 1808.53,-39.81"/>
<polygon fill="black" stroke="black" points="1809.87,-43.05 1817.94,-36.17 1807.35,-36.52 1809.87,-43.05"/>
</g>
<!-- Phi -->
<g id="node9" class="node">
<title>Phi</title>
<polygon fill="#bbffff" stroke="black" points="1052,-36 910,-36 910,0 1052,0 1052,-36"/>
<text text-anchor="middle" x="981" y="-14.3" font-family="Times,serif" font-size="14.00">DD:convertFunc1</text>
</g>
<!-- Phi&#45;&gt;alpha_i -->
<g id="edge7" class="edge">
<title>Phi&#45;&gt;alpha_i</title>
<path fill="none" stroke="black" d="M1052.19,-18C1054.64,-18 1057.1,-18 1059.55,-18"/>
<polygon fill="black" stroke="black" points="1059.64,-21.5 1069.64,-18 1059.64,-14.5 1059.64,-21.5"/>
</g>
<!-- f_i -->
<g id="node10" class="node">
<title>f_i</title>
<polygon fill="#bbffff" stroke="black" points="2336,-36 2194,-36 2194,0 2336,0 2336,-36"/>
<text text-anchor="middle" x="2265" y="-14.3" font-family="Times,serif" font-size="14.00">DD:ratioVariation</text>
</g>
<!-- Phi&#45;&gt;f_i -->
<g id="edge8" class="edge">
<title>Phi&#45;&gt;f_i</title>
<path fill="none" stroke="black" d="M1016.83,-36.16C1032.7,-43.23 1051.84,-50.47 1070,-54 1190.63,-77.47 2055.37,-77.47 2176,-54 2190.76,-51.13 2206.16,-45.81 2219.93,-40.13"/>
<polygon fill="black" stroke="black" points="2221.36,-43.32 2229.17,-36.16 2218.6,-36.89 2221.36,-43.32"/>
</g>
<!-- Psi -->
<g id="node11" class="node">
<title>Psi</title>
<polygon fill="#bbffff" stroke="black" points="892,-36 750,-36 750,0 892,0 892,-36"/>
<text text-anchor="middle" x="821" y="-14.3" font-family="Times,serif" font-size="14.00">DD:convertFunc2</text>
</g>
<!-- Psi&#45;&gt;alpha_i -->
<g id="edge9" class="edge">
<title>Psi&#45;&gt;alpha_i</title>
<path fill="none" stroke="black" d="M856.83,-36.16C872.7,-43.23 891.84,-50.47 910,-54 971.95,-66.05 990.95,-69.99 1052,-54 1062.37,-51.28 1072.84,-46.46 1082.22,-41.22"/>
<polygon fill="black" stroke="black" points="1084.02,-44.22 1090.84,-36.11 1080.45,-38.2 1084.02,-44.22"/>
</g>
<!-- Psi&#45;&gt;Phi -->
<g id="edge11" class="edge">
<title>Psi&#45;&gt;Phi</title>
<path fill="none" stroke="black" d="M892.25,-18C894.74,-18 897.22,-18 899.71,-18"/>
<polygon fill="black" stroke="black" points="899.93,-21.5 909.93,-18 899.93,-14.5 899.93,-21.5"/>
</g>
<!-- Psi&#45;&gt;f_i -->
<g id="edge10" class="edge">
<title>Psi&#45;&gt;f_i</title>
<path fill="none" stroke="black" d="M856.83,-36.16C872.7,-43.23 891.84,-50.47 910,-54 979.04,-67.43 2106.96,-67.43 2176,-54 2190.76,-51.13 2206.16,-45.81 2219.93,-40.13"/>
<polygon fill="black" stroke="black" points="2221.36,-43.32 2229.17,-36.16 2218.6,-36.89 2221.36,-43.32"/>
</g>
<!-- effectiveStressTM -->
<g id="node12" class="node">
<title>effectiveStressTM</title>
<polygon fill="pink" stroke="black" points="108,-108 0,-108 0,-72 108,-72 108,-108"/>
<text text-anchor="middle" x="54" y="-86.3" font-family="Times,serif" font-size="14.00">TM:effStress</text>
</g>
<!-- sigma -->
<g id="node13" class="node">
<title>sigma</title>
<polygon fill="#bbffff" stroke="black" points="199.5,-36 72.5,-36 72.5,0 199.5,0 199.5,-36"/>
<text text-anchor="middle" x="136" y="-14.3" font-family="Times,serif" font-size="14.00">DD:normStress</text>
</g>
<!-- effectiveStressTM&#45;&gt;sigma -->
<g id="edge12" class="edge">
<title>effectiveStressTM&#45;&gt;sigma</title>
<path fill="none" stroke="black" d="M74.27,-71.7C84.5,-62.97 97.06,-52.24 108.18,-42.75"/>
<polygon fill="black" stroke="black" points="110.63,-45.26 115.96,-36.1 106.09,-39.94 110.63,-45.26"/>
</g>
<!-- normForcEq -->
<g id="node14" class="node">
<title>normForcEq</title>
<polygon fill="palegreen" stroke="black" points="989,-180 857,-180 857,-144 989,-144 989,-180"/>
<text text-anchor="middle" x="923" y="-158.3" font-family="Times,serif" font-size="14.00">GD:normForcEq</text>
</g>
<!-- normForcEq&#45;&gt;alpha_i -->
<g id="edge13" class="edge">
<title>normForcEq&#45;&gt;alpha_i</title>
<path fill="none" stroke="black" d="M946.28,-143.87C980.77,-118.5 1045.52,-70.85 1084.31,-42.32"/>
<polygon fill="black" stroke="black" points="1086.66,-44.93 1092.64,-36.19 1082.51,-39.3 1086.66,-44.93"/>
</g>
<!-- normForcEq&#45;&gt;beta_i -->
<g id="edge14" class="edge">
<title>normForcEq&#45;&gt;beta_i</title>
<path fill="none" stroke="black" d="M989.15,-145.46C992.14,-144.93 995.1,-144.44 998,-144 1098.71,-128.7 1361.92,-149.4 1455,-108 1476.26,-98.55 1471.67,-81.28 1493,-72 1608.65,-21.71 1930.35,-57.16 2072.53,-35.67"/>
<polygon fill="black" stroke="black" points="2073.16,-39.11 2082.45,-34.02 2072.01,-32.2 2073.16,-39.11"/>
</g>
<!-- equilibriumCS -->
<g id="node15" class="node">
<title>equilibriumCS</title>
<polygon fill="pink" stroke="black" points="986.5,-108 859.5,-108 859.5,-72 986.5,-72 986.5,-108"/>
<text text-anchor="middle" x="923" y="-86.3" font-family="Times,serif" font-size="14.00">TM:equilibrium</text>
</g>
<!-- normForcEq&#45;&gt;equilibriumCS -->
<g id="edge15" class="edge">
<title>normForcEq&#45;&gt;equilibriumCS</title>
<path fill="none" stroke="black" d="M923,-143.7C923,-135.98 923,-126.71 923,-118.11"/>
<polygon fill="black" stroke="black" points="926.5,-118.1 923,-108.1 919.5,-118.1 926.5,-118.1"/>
</g>
<!-- sliceWght -->
<g id="node16" class="node">
<title>sliceWght</title>
<polygon fill="palegreen" stroke="black" points="2483,-180 2369,-180 2369,-144 2483,-144 2483,-180"/>
<text text-anchor="middle" x="2426" y="-158.3" font-family="Times,serif" font-size="14.00">GD:sliceWght</text>
</g>
<!-- normForcEq&#45;&gt;sliceWght -->
<g id="edge16" class="edge">
<title>normForcEq&#45;&gt;sliceWght</title>
<path fill="none" stroke="black" d="M956.71,-180.16C971.66,-187.22 989.75,-194.46 1007,-198 1136.74,-224.63 2066.96,-208.4 2199,-198 2253.18,-193.73 2313.96,-183.81 2358.99,-175.47"/>
<polygon fill="black" stroke="black" points="2359.74,-178.89 2368.92,-173.6 2358.45,-172.01 2359.74,-178.89"/>
</g>
<!-- srfWtrF -->
<g id="node17" class="node">
<title>srfWtrF</title>
<polygon fill="palegreen" stroke="black" points="1903,-180 1803,-180 1803,-144 1903,-144 1903,-180"/>
<text text-anchor="middle" x="1853" y="-158.3" font-family="Times,serif" font-size="14.00">GD:srfWtrF</text>
</g>
<!-- normForcEq&#45;&gt;srfWtrF -->
<g id="edge17" class="edge">
<title>normForcEq&#45;&gt;srfWtrF</title>
<path fill="none" stroke="black" d="M956.71,-180.16C971.66,-187.22 989.75,-194.46 1007,-198 1087.54,-214.53 1665.88,-211.4 1747,-198 1764.87,-195.05 1783.78,-189.47 1800.6,-183.58"/>
<polygon fill="black" stroke="black" points="1802.03,-186.78 1810.24,-180.09 1799.65,-180.2 1802.03,-186.78"/>
</g>
<!-- sliceWght&#45;&gt;b_i -->
<g id="edge56" class="edge">
<title>sliceWght&#45;&gt;b_i</title>
<path fill="none" stroke="black" d="M2423.35,-143.87C2419.6,-119.67 2412.71,-75.21 2408.24,-46.39"/>
<polygon fill="black" stroke="black" points="2411.65,-45.54 2406.66,-36.19 2404.74,-46.61 2411.65,-45.54"/>
</g>
<!-- weight -->
<g id="node32" class="node">
<title>weight</title>
<polygon fill="palegreen" stroke="black" points="2593,-180 2501,-180 2501,-144 2593,-144 2593,-180"/>
<text text-anchor="middle" x="2547" y="-158.3" font-family="Times,serif" font-size="14.00">GD:weight</text>
</g>
<!-- sliceWght&#45;&gt;weight -->
<g id="edge57" class="edge">
<title>sliceWght&#45;&gt;weight</title>
<path fill="none" stroke="black" d="M2483.19,-162C2485.64,-162 2488.1,-162 2490.55,-162"/>
<polygon fill="black" stroke="black" points="2490.64,-165.5 2500.64,-162 2490.64,-158.5 2490.64,-165.5"/>
</g>
<!-- srfWtrF&#45;&gt;l_si -->
<g id="edge61" class="edge">
<title>srfWtrF&#45;&gt;l_si</title>
<path fill="none" stroke="black" d="M1872.06,-143.87C1900.05,-118.71 1952.41,-71.65 1984.25,-43.04"/>
<polygon fill="black" stroke="black" points="1986.78,-45.48 1991.87,-36.19 1982.1,-40.27 1986.78,-45.48"/>
</g>
<!-- srfWtrF&#45;&gt;srfWtrF -->
<g id="edge63" class="edge">
<title>srfWtrF&#45;&gt;srfWtrF</title>
<path fill="none" stroke="black" d="M1903.11,-175.03C1913.52,-173.65 1921,-169.31 1921,-162 1921,-157.32 1917.93,-153.85 1912.99,-151.6"/>
<polygon fill="black" stroke="black" points="1913.68,-148.17 1903.11,-148.97 1911.88,-154.93 1913.68,-148.17"/>
</g>
<!-- pressure -->
<g id="node34" class="node">
<title>pressure</title>
<polygon fill="palegreen" stroke="black" points="2063,-180 1939,-180 1939,-144 2063,-144 2063,-180"/>
<text text-anchor="middle" x="2001" y="-158.3" font-family="Times,serif" font-size="14.00">GD:hsPressure</text>
</g>
<!-- srfWtrF&#45;&gt;pressure -->
<g id="edge62" class="edge">
<title>srfWtrF&#45;&gt;pressure</title>
<path fill="none" stroke="black" d="M1903.01,-162C1911.63,-162 1920.25,-162 1928.87,-162"/>
<polygon fill="black" stroke="black" points="1928.99,-165.5 1938.99,-162 1928.99,-158.5 1928.99,-165.5"/>
</g>
<!-- bsShrFEq -->
<g id="node18" class="node">
<title>bsShrFEq</title>
<polygon fill="palegreen" stroke="black" points="838.5,-180 723.5,-180 723.5,-144 838.5,-144 838.5,-180"/>
<text text-anchor="middle" x="781" y="-158.3" font-family="Times,serif" font-size="14.00">GD:bsShrFEq</text>
</g>
<!-- bsShrFEq&#45;&gt;alpha_i -->
<g id="edge18" class="edge">
<title>bsShrFEq&#45;&gt;alpha_i</title>
<path fill="none" stroke="black" d="M789.29,-143.77C800.17,-123.13 821.33,-89.19 850,-72 928.88,-24.7 965.97,-55.86 1060.01,-35.96"/>
<polygon fill="black" stroke="black" points="1060.92,-39.34 1069.91,-33.73 1059.38,-32.52 1060.92,-39.34"/>
</g>
<!-- bsShrFEq&#45;&gt;beta_i -->
<g id="edge19" class="edge">
<title>bsShrFEq&#45;&gt;beta_i</title>
<path fill="none" stroke="black" d="M838.64,-145.87C841.8,-145.2 844.93,-144.57 848,-144 1115.12,-94.49 1184.39,-95.91 1455,-72 1725.72,-48.08 1800.33,-83.42 2072.28,-35.83"/>
<polygon fill="black" stroke="black" points="2073.21,-39.22 2082.45,-34.03 2071.99,-32.33 2073.21,-39.22"/>
</g>
<!-- bsShrFEq&#45;&gt;equilibriumCS -->
<g id="edge20" class="edge">
<title>bsShrFEq&#45;&gt;equilibriumCS</title>
<path fill="none" stroke="black" d="M815.74,-143.88C834.82,-134.47 858.68,-122.71 879.05,-112.67"/>
<polygon fill="black" stroke="black" points="880.71,-115.75 888.13,-108.19 877.61,-109.47 880.71,-115.75"/>
</g>
<!-- bsShrFEq&#45;&gt;sliceWght -->
<g id="edge21" class="edge">
<title>bsShrFEq&#45;&gt;sliceWght</title>
<path fill="none" stroke="black" d="M811.31,-180.14C824.8,-187.2 841.19,-194.44 857,-198 1002.48,-230.71 2050.35,-209.71 2199,-198 2253.18,-193.73 2313.96,-183.81 2358.99,-175.47"/>
<polygon fill="black" stroke="black" points="2359.74,-178.89 2368.92,-173.6 2358.45,-172.01 2359.74,-178.89"/>
</g>
<!-- bsShrFEq&#45;&gt;srfWtrF -->
<g id="edge22" class="edge">
<title>bsShrFEq&#45;&gt;srfWtrF</title>
<path fill="none" stroke="black" d="M811.31,-180.14C824.8,-187.2 841.19,-194.44 857,-198 953.48,-219.7 1649.43,-214.12 1747,-198 1764.87,-195.05 1783.78,-189.47 1800.6,-183.58"/>
<polygon fill="black" stroke="black" points="1802.03,-186.78 1810.24,-180.09 1799.65,-180.2 1802.03,-186.78"/>
</g>
<!-- resShr -->
<g id="node19" class="node">
<title>resShr</title>
<polygon fill="palegreen" stroke="black" points="486,-180 394,-180 394,-144 486,-144 486,-180"/>
<text text-anchor="middle" x="440" y="-158.3" font-family="Times,serif" font-size="14.00">GD:resShr</text>
</g>
<!-- resShr&#45;&gt;l_bi -->
<g id="edge23" class="edge">
<title>resShr&#45;&gt;l_bi</title>
<path fill="none" stroke="black" d="M486.07,-149.47C513.88,-141.02 549.03,-127.57 576,-108 599.56,-90.9 619.95,-64.44 633.14,-44.81"/>
<polygon fill="black" stroke="black" points="636.14,-46.62 638.69,-36.33 630.28,-42.79 636.14,-46.62"/>
</g>
<!-- resShr&#45;&gt;sigma -->
<g id="edge24" class="edge">
<title>resShr&#45;&gt;sigma</title>
<path fill="none" stroke="black" d="M418.59,-143.8C393.24,-124.15 349.13,-92.1 307,-72 276.25,-57.33 240.47,-45.5 209.62,-36.78"/>
<polygon fill="black" stroke="black" points="210.35,-33.35 199.78,-34.05 208.49,-40.09 210.35,-33.35"/>
</g>
<!-- tau -->
<g id="node20" class="node">
<title>tau</title>
<polygon fill="#bbffff" stroke="black" points="463,-36 341,-36 341,0 463,0 463,-36"/>
<text text-anchor="middle" x="402" y="-14.3" font-family="Times,serif" font-size="14.00">DD:tangStress</text>
</g>
<!-- resShr&#45;&gt;tau -->
<g id="edge25" class="edge">
<title>resShr&#45;&gt;tau</title>
<path fill="none" stroke="black" d="M433.07,-143.53C429.17,-133.28 424.42,-120.03 421,-108 415.2,-87.61 410.26,-64.15 406.87,-46.44"/>
<polygon fill="black" stroke="black" points="410.24,-45.42 404.97,-36.23 403.36,-46.7 410.24,-45.42"/>
</g>
<!-- mcShrSrgth -->
<g id="node21" class="node">
<title>mcShrSrgth</title>
<polygon fill="pink" stroke="black" points="567.5,-108 430.5,-108 430.5,-72 567.5,-72 567.5,-108"/>
<text text-anchor="middle" x="499" y="-86.3" font-family="Times,serif" font-size="14.00">TM:mcShrStrgth</text>
</g>
<!-- resShr&#45;&gt;mcShrSrgth -->
<g id="edge26" class="edge">
<title>resShr&#45;&gt;mcShrSrgth</title>
<path fill="none" stroke="black" d="M454.58,-143.7C461.66,-135.3 470.28,-125.07 478.05,-115.86"/>
<polygon fill="black" stroke="black" points="480.81,-118.01 484.58,-108.1 475.46,-113.49 480.81,-118.01"/>
</g>
<!-- mobShr -->
<g id="node22" class="node">
<title>mobShr</title>
<polygon fill="palegreen" stroke="black" points="376,-180 276,-180 276,-144 376,-144 376,-180"/>
<text text-anchor="middle" x="326" y="-158.3" font-family="Times,serif" font-size="14.00">GD:mobShr</text>
</g>
<!-- mobShr&#45;&gt;l_bi -->
<g id="edge27" class="edge">
<title>mobShr&#45;&gt;l_bi</title>
<path fill="none" stroke="black" d="M339.49,-143.74C356.34,-123.41 387.11,-90.1 421,-72 472.26,-44.62 537.4,-31.29 584.92,-24.86"/>
<polygon fill="black" stroke="black" points="585.61,-28.3 595.08,-23.55 584.71,-21.36 585.61,-28.3"/>
</g>
<!-- mobShr&#45;&gt;resShr -->
<g id="edge29" class="edge">
<title>mobShr&#45;&gt;resShr</title>
<path fill="none" stroke="black" d="M376.32,-162C378.77,-162 381.22,-162 383.67,-162"/>
<polygon fill="black" stroke="black" points="383.73,-165.5 393.73,-162 383.73,-158.5 383.73,-165.5"/>
</g>
<!-- factOfSafetyTM -->
<g id="node23" class="node">
<title>factOfSafetyTM</title>
<polygon fill="pink" stroke="black" points="298,-108 164,-108 164,-72 298,-72 298,-108"/>
<text text-anchor="middle" x="231" y="-86.3" font-family="Times,serif" font-size="14.00">TM:factOfSafety</text>
</g>
<!-- mobShr&#45;&gt;factOfSafetyTM -->
<g id="edge28" class="edge">
<title>mobShr&#45;&gt;factOfSafetyTM</title>
<path fill="none" stroke="black" d="M302.52,-143.7C290.44,-134.8 275.55,-123.82 262.48,-114.2"/>
<polygon fill="black" stroke="black" points="264.34,-111.22 254.21,-108.1 260.19,-116.85 264.34,-111.22"/>
</g>
<!-- effNormF -->
<g id="node24" class="node">
<title>effNormF</title>
<polygon fill="palegreen" stroke="black" points="192,-180 80,-180 80,-144 192,-144 192,-180"/>
<text text-anchor="middle" x="136" y="-158.3" font-family="Times,serif" font-size="14.00">GD:effNormF</text>
</g>
<!-- effNormF&#45;&gt;effectiveStressTM -->
<g id="edge31" class="edge">
<title>effNormF&#45;&gt;effectiveStressTM</title>
<path fill="none" stroke="black" d="M115.73,-143.7C105.5,-134.97 92.94,-124.24 81.82,-114.75"/>
<polygon fill="black" stroke="black" points="83.91,-111.94 74.04,-108.1 79.37,-117.26 83.91,-111.94"/>
</g>
<!-- effNormF&#45;&gt;sigma -->
<g id="edge30" class="edge">
<title>effNormF&#45;&gt;sigma</title>
<path fill="none" stroke="black" d="M136,-143.87C136,-119.67 136,-75.21 136,-46.39"/>
<polygon fill="black" stroke="black" points="139.5,-46.19 136,-36.19 132.5,-46.19 139.5,-46.19"/>
</g>
<!-- baseWtrF -->
<g id="node25" class="node">
<title>baseWtrF</title>
<polygon fill="palegreen" stroke="black" points="1272.5,-180 1159.5,-180 1159.5,-144 1272.5,-144 1272.5,-180"/>
<text text-anchor="middle" x="1216" y="-158.3" font-family="Times,serif" font-size="14.00">GD:baseWtrF</text>
</g>
<!-- effNormF&#45;&gt;baseWtrF -->
<g id="edge32" class="edge">
<title>effNormF&#45;&gt;baseWtrF</title>
<path fill="none" stroke="black" d="M192.25,-179.91C217.56,-187.07 247.99,-194.46 276,-198 371.35,-210.06 1047.28,-219.33 1141,-198 1153.21,-195.22 1165.76,-190.19 1177.01,-184.76"/>
<polygon fill="black" stroke="black" points="1178.78,-187.78 1186.12,-180.14 1175.62,-181.54 1178.78,-187.78"/>
</g>
<!-- baseWtrF&#45;&gt;l_bi -->
<g id="edge58" class="edge">
<title>baseWtrF&#45;&gt;l_bi</title>
<path fill="none" stroke="black" d="M1161.1,-144C1131.87,-134.41 1095.55,-121.65 1064,-108 1032.25,-94.27 1027.93,-82.58 995,-72 886.45,-37.13 853.53,-54.36 741,-36 731.94,-34.52 722.39,-32.87 713.01,-31.18"/>
<polygon fill="black" stroke="black" points="713.4,-27.7 702.93,-29.36 712.15,-34.59 713.4,-27.7"/>
</g>
<!-- baseWtrF&#45;&gt;baseWtrF -->
<g id="edge60" class="edge">
<title>baseWtrF&#45;&gt;baseWtrF</title>
<path fill="none" stroke="black" d="M1272.53,-174.81C1283.07,-173.23 1290.5,-168.96 1290.5,-162 1290.5,-157.54 1287.45,-154.19 1282.49,-151.94"/>
<polygon fill="black" stroke="black" points="1283.1,-148.47 1272.53,-149.19 1281.24,-155.22 1283.1,-148.47"/>
</g>
<!-- baseWtrF&#45;&gt;pressure -->
<g id="edge59" class="edge">
<title>baseWtrF&#45;&gt;pressure</title>
<path fill="none" stroke="black" d="M1272.63,-177.17C1305.22,-185.12 1347.11,-194.01 1385,-198 1503.46,-210.48 1804.54,-223 1921,-198 1934.04,-195.2 1947.52,-190.1 1959.62,-184.61"/>
<polygon fill="black" stroke="black" points="1961.46,-187.61 1968.99,-180.15 1958.45,-181.29 1961.46,-187.61"/>
</g>
<!-- resShearWO -->
<g id="node26" class="node">
<title>resShearWO</title>
<polygon fill="palegreen" stroke="black" points="1141,-180 1007,-180 1007,-144 1141,-144 1141,-180"/>
<text text-anchor="middle" x="1074" y="-158.3" font-family="Times,serif" font-size="14.00">GD:resShearWO</text>
</g>
<!-- resShearWO&#45;&gt;l_bi -->
<g id="edge36" class="edge">
<title>resShearWO&#45;&gt;l_bi</title>
<path fill="none" stroke="black" d="M1006.94,-145.79C946.52,-131.98 864.94,-113.03 850,-108 793.74,-89.07 731.65,-60.29 691.58,-40.62"/>
<polygon fill="black" stroke="black" points="692.9,-37.36 682.38,-36.07 689.8,-43.64 692.9,-37.36"/>
</g>
<!-- resShearWO&#45;&gt;alpha_i -->
<g id="edge34" class="edge">
<title>resShearWO&#45;&gt;alpha_i</title>
<path fill="none" stroke="black" d="M1100.12,-143.82C1111.58,-134.69 1123.81,-122.39 1130,-108 1138.56,-88.12 1133.77,-63.73 1127.57,-45.51"/>
<polygon fill="black" stroke="black" points="1130.83,-44.24 1124.05,-36.09 1124.27,-46.69 1130.83,-44.24"/>
</g>
<!-- resShearWO&#45;&gt;beta_i -->
<g id="edge35" class="edge">
<title>resShearWO&#45;&gt;beta_i</title>
<path fill="none" stroke="black" d="M1141.05,-145.56C1144.07,-145 1147.06,-144.48 1150,-144 1301.27,-119.23 1344.58,-146.31 1493,-108 1532.72,-97.75 1538.12,-81.62 1578,-72 1789.29,-21.05 1854.23,-74.67 2072.6,-35.78"/>
<polygon fill="black" stroke="black" points="2073.23,-39.22 2082.44,-33.98 2071.98,-32.33 2073.23,-39.22"/>
</g>
<!-- resShearWO&#45;&gt;sliceWght -->
<g id="edge37" class="edge">
<title>resShearWO&#45;&gt;sliceWght</title>
<path fill="none" stroke="black" d="M1108.14,-180.16C1123.27,-187.22 1141.57,-194.46 1159,-198 1272.24,-220.99 2083.8,-207.08 2199,-198 2253.18,-193.73 2313.96,-183.81 2358.99,-175.47"/>
<polygon fill="black" stroke="black" points="2359.74,-178.89 2368.92,-173.6 2358.45,-172.01 2359.74,-178.89"/>
</g>
<!-- resShearWO&#45;&gt;srfWtrF -->
<g id="edge39" class="edge">
<title>resShearWO&#45;&gt;srfWtrF</title>
<path fill="none" stroke="black" d="M1108.14,-180.16C1123.27,-187.22 1141.57,-194.46 1159,-198 1287.05,-224 1618.08,-219.29 1747,-198 1764.87,-195.05 1783.78,-189.47 1800.6,-183.58"/>
<polygon fill="black" stroke="black" points="1802.03,-186.78 1810.24,-180.09 1799.65,-180.2 1802.03,-186.78"/>
</g>
<!-- resShearWO&#45;&gt;baseWtrF -->
<g id="edge38" class="edge">
<title>resShearWO&#45;&gt;baseWtrF</title>
<path fill="none" stroke="black" d="M1141.12,-162C1143.76,-162 1146.41,-162 1149.05,-162"/>
<polygon fill="black" stroke="black" points="1149.25,-165.5 1159.25,-162 1149.25,-158.5 1149.25,-165.5"/>
</g>
<!-- H_i -->
<g id="node27" class="node">
<title>H_i</title>
<polygon fill="#bbffff" stroke="black" points="1327.5,-36 1180.5,-36 1180.5,0 1327.5,0 1327.5,-36"/>
<text text-anchor="middle" x="1254" y="-14.3" font-family="Times,serif" font-size="14.00">DD:intersliceWtrF</text>
</g>
<!-- resShearWO&#45;&gt;H_i -->
<g id="edge33" class="edge">
<title>resShearWO&#45;&gt;H_i</title>
<path fill="none" stroke="black" d="M1098.3,-143.97C1112.64,-133.76 1131.05,-120.4 1147,-108 1174.57,-86.56 1205.12,-60.96 1226.49,-42.73"/>
<polygon fill="black" stroke="black" points="1228.88,-45.29 1234.21,-36.13 1224.33,-39.97 1228.88,-45.29"/>
</g>
<!-- mobShearWO -->
<g id="node28" class="node">
<title>mobShearWO</title>
<polygon fill="palegreen" stroke="black" points="1527,-180 1385,-180 1385,-144 1527,-144 1527,-180"/>
<text text-anchor="middle" x="1456" y="-158.3" font-family="Times,serif" font-size="14.00">GD:mobShearWO</text>
</g>
<!-- mobShearWO&#45;&gt;alpha_i -->
<g id="edge41" class="edge">
<title>mobShearWO&#45;&gt;alpha_i</title>
<path fill="none" stroke="black" d="M1384.6,-146.37C1350.35,-137.8 1309.4,-125.22 1275,-108 1251.15,-96.06 1249.81,-85.81 1227,-72 1207.69,-60.31 1185.4,-49.24 1165.89,-40.26"/>
<polygon fill="black" stroke="black" points="1167.11,-36.97 1156.56,-36.04 1164.22,-43.35 1167.11,-36.97"/>
</g>
<!-- mobShearWO&#45;&gt;beta_i -->
<g id="edge42" class="edge">
<title>mobShearWO&#45;&gt;beta_i</title>
<path fill="none" stroke="black" d="M1493.06,-143.88C1539.61,-123.19 1622.43,-89.04 1697,-72 1857.46,-35.34 1906.4,-67.25 2072.37,-35.85"/>
<polygon fill="black" stroke="black" points="2073.28,-39.24 2082.43,-33.9 2071.94,-32.37 2073.28,-39.24"/>
</g>
<!-- mobShearWO&#45;&gt;sliceWght -->
<g id="edge43" class="edge">
<title>mobShearWO&#45;&gt;sliceWght</title>
<path fill="none" stroke="black" d="M1509.28,-180.01C1533.07,-187.14 1561.63,-194.47 1588,-198 1722.58,-216.02 2063.64,-208.67 2199,-198 2253.18,-193.73 2313.96,-183.81 2358.99,-175.47"/>
<polygon fill="black" stroke="black" points="2359.74,-178.89 2368.92,-173.6 2358.45,-172.01 2359.74,-178.89"/>
</g>
<!-- mobShearWO&#45;&gt;srfWtrF -->
<g id="edge44" class="edge">
<title>mobShearWO&#45;&gt;srfWtrF</title>
<path fill="none" stroke="black" d="M1493.95,-180.17C1510.72,-187.24 1530.93,-194.47 1550,-198 1636.1,-213.92 1660.61,-212.27 1747,-198 1764.87,-195.05 1783.78,-189.47 1800.6,-183.58"/>
<polygon fill="black" stroke="black" points="1802.03,-186.78 1810.24,-180.09 1799.65,-180.2 1802.03,-186.78"/>
</g>
<!-- mobShearWO&#45;&gt;H_i -->
<g id="edge40" class="edge">
<title>mobShearWO&#45;&gt;H_i</title>
<path fill="none" stroke="black" d="M1431.63,-143.87C1395.39,-118.39 1327.19,-70.45 1286.66,-41.96"/>
<polygon fill="black" stroke="black" points="1288.65,-39.08 1278.45,-36.19 1284.62,-44.8 1288.65,-39.08"/>
</g>
<!-- X_i -->
<g id="node29" class="node">
<title>X_i</title>
<polygon fill="palegreen" stroke="black" points="2198.5,-180 2081.5,-180 2081.5,-144 2198.5,-144 2198.5,-180"/>
<text text-anchor="middle" x="2140" y="-158.3" font-family="Times,serif" font-size="14.00">GD:normShrR</text>
</g>
<!-- X_i&#45;&gt;f_i -->
<g id="edge45" class="edge">
<title>X_i&#45;&gt;f_i</title>
<path fill="none" stroke="black" d="M2155.08,-143.87C2177.04,-118.92 2217.95,-72.45 2243.19,-43.77"/>
<polygon fill="black" stroke="black" points="2245.89,-46.01 2249.87,-36.19 2240.63,-41.38 2245.89,-46.01"/>
</g>
<!-- momentEql -->
<g id="node30" class="node">
<title>momentEql</title>
<polygon fill="palegreen" stroke="black" points="1747,-180 1621,-180 1621,-144 1747,-144 1747,-180"/>
<text text-anchor="middle" x="1684" y="-158.3" font-family="Times,serif" font-size="14.00">GD:momentEql</text>
</g>
<!-- momentEql&#45;&gt;alpha_i -->
<g id="edge46" class="edge">
<title>momentEql&#45;&gt;alpha_i</title>
<path fill="none" stroke="black" d="M1620.9,-146.93C1525.68,-125.4 1339.49,-82.19 1172.13,-36.24"/>
<polygon fill="black" stroke="black" points="1172.72,-32.77 1162.15,-33.49 1170.86,-39.52 1172.72,-32.77"/>
</g>
<!-- momentEql&#45;&gt;b_i -->
<g id="edge48" class="edge">
<title>momentEql&#45;&gt;b_i</title>
<path fill="none" stroke="black" d="M1747.3,-151.06C1863.75,-132.33 2119.78,-89.09 2343.9,-36.16"/>
<polygon fill="black" stroke="black" points="2344.95,-39.5 2353.87,-33.79 2343.33,-32.69 2344.95,-39.5"/>
</g>
<!-- momentEql&#45;&gt;beta_i -->
<g id="edge47" class="edge">
<title>momentEql&#45;&gt;beta_i</title>
<path fill="none" stroke="black" d="M1687.82,-143.98C1693.45,-123.23 1706.11,-88.84 1731,-72 1791.94,-30.76 1983.17,-49.62 2072.55,-35.63"/>
<polygon fill="black" stroke="black" points="2073.19,-39.07 2082.42,-33.86 2071.96,-32.18 2073.19,-39.07"/>
</g>
<!-- momentEql&#45;&gt;h_i -->
<g id="edge49" class="edge">
<title>momentEql&#45;&gt;h_i</title>
<path fill="none" stroke="black" d="M1680.58,-143.65C1675.82,-123.85 1665.4,-91.67 1645,-72 1634.28,-61.66 1604.56,-49.48 1575.82,-39.4"/>
<polygon fill="black" stroke="black" points="1576.73,-36.02 1566.14,-36.07 1574.45,-42.63 1576.73,-36.02"/>
</g>
<!-- momentEql&#45;&gt;equilibriumCS -->
<g id="edge51" class="edge">
<title>momentEql&#45;&gt;equilibriumCS</title>
<path fill="none" stroke="black" d="M1620.66,-153.33C1594.48,-150.26 1563.79,-146.8 1536,-144 1341.52,-124.43 1111.89,-105.76 996.7,-96.7"/>
<polygon fill="black" stroke="black" points="996.84,-93.2 986.59,-95.91 996.29,-100.18 996.84,-93.2"/>
</g>
<!-- momentEql&#45;&gt;sliceWght -->
<g id="edge53" class="edge">
<title>momentEql&#45;&gt;sliceWght</title>
<path fill="none" stroke="black" d="M1718.56,-180.16C1733.88,-187.22 1752.39,-194.46 1770,-198 1863.47,-216.77 2103.96,-205.49 2199,-198 2253.18,-193.73 2313.96,-183.81 2358.99,-175.47"/>
<polygon fill="black" stroke="black" points="2359.74,-178.89 2368.92,-173.6 2358.45,-172.01 2359.74,-178.89"/>
</g>
<!-- momentEql&#45;&gt;srfWtrF -->
<g id="edge54" class="edge">
<title>momentEql&#45;&gt;srfWtrF</title>
<path fill="none" stroke="black" d="M1747.04,-162C1762.32,-162 1777.6,-162 1792.88,-162"/>
<polygon fill="black" stroke="black" points="1792.92,-165.5 1802.92,-162 1792.92,-158.5 1792.92,-165.5"/>
</g>
<!-- torque -->
<g id="node31" class="node">
<title>torque</title>
<polygon fill="#bbffff" stroke="black" points="1436.5,-36 1345.5,-36 1345.5,0 1436.5,0 1436.5,-36"/>
<text text-anchor="middle" x="1391" y="-14.3" font-family="Times,serif" font-size="14.00">DD:torque</text>
</g>
<!-- momentEql&#45;&gt;torque -->
<g id="edge50" class="edge">
<title>momentEql&#45;&gt;torque</title>
<path fill="none" stroke="black" d="M1671.26,-143.85C1653.74,-120.71 1622.61,-81.33 1607,-72 1546.77,-36 1519.26,-53.19 1446.6,-35.92"/>
<polygon fill="black" stroke="black" points="1447.09,-32.44 1436.54,-33.38 1445.38,-39.22 1447.09,-32.44"/>
</g>
<!-- momentEql&#45;&gt;weight -->
<g id="edge52" class="edge">
<title>momentEql&#45;&gt;weight</title>
<path fill="none" stroke="black" d="M1718.56,-180.16C1733.88,-187.22 1752.39,-194.46 1770,-198 1847.67,-213.6 2406.36,-218.08 2483,-198 2493.37,-195.28 2503.84,-190.46 2513.22,-185.22"/>
<polygon fill="black" stroke="black" points="2515.02,-188.22 2521.84,-180.11 2511.45,-182.2 2515.02,-188.22"/>
</g>
<!-- newtonSL -->
<g id="node33" class="node">
<title>newtonSL</title>
<polygon fill="pink" stroke="black" points="2638.5,-108 2455.5,-108 2455.5,-72 2638.5,-72 2638.5,-108"/>
<text text-anchor="middle" x="2547" y="-86.3" font-family="Times,serif" font-size="14.00">TM:NewtonSecLawMot</text>
</g>
<!-- weight&#45;&gt;newtonSL -->
<g id="edge55" class="edge">
<title>weight&#45;&gt;newtonSL</title>
<path fill="none" stroke="black" d="M2547,-143.7C2547,-135.98 2547,-126.71 2547,-118.11"/>
<polygon fill="black" stroke="black" points="2550.5,-118.1 2547,-108.1 2543.5,-118.1 2550.5,-118.1"/>
</g>
<!-- FS -->
<g id="node35" class="node">
<title>FS</title>
<polygon fill="#fff68f" stroke="black" points="1156.5,-252 1067.5,-252 1067.5,-216 1156.5,-216 1156.5,-252"/>
<text text-anchor="middle" x="1112" y="-230.3" font-family="Times,serif" font-size="14.00">IM:fctSfty</text>
</g>
<!-- FS&#45;&gt;Phi -->
<g id="edge64" class="edge">
<title>FS&#45;&gt;Phi</title>
<path fill="none" stroke="black" d="M1067.24,-230.31C968.12,-223.91 737.02,-206.29 714,-180 659.21,-117.43 767.01,-93.53 809,-72 837.35,-57.46 870.41,-46.1 899.92,-37.69"/>
<polygon fill="black" stroke="black" points="901.09,-40.99 909.79,-34.94 899.21,-34.25 901.09,-40.99"/>
</g>
<!-- FS&#45;&gt;Psi -->
<g id="edge65" class="edge">
<title>FS&#45;&gt;Psi</title>
<path fill="none" stroke="black" d="M1067.42,-230.61C964.91,-224.67 719.36,-207.65 695,-180 669.92,-151.53 719.05,-79.7 726,-72 737.53,-59.23 752.88,-48.84 767.88,-40.75"/>
<polygon fill="black" stroke="black" points="769.82,-43.68 777.13,-36 766.63,-37.45 769.82,-43.68"/>
</g>
<!-- FS&#45;&gt;normForcEq -->
<g id="edge66" class="edge">
<title>FS&#45;&gt;normForcEq</title>
<path fill="none" stroke="black" d="M1067.21,-216.41C1040.75,-206.61 1007.01,-194.12 978.83,-183.68"/>
<polygon fill="black" stroke="black" points="979.7,-180.27 969.11,-180.08 977.27,-186.83 979.7,-180.27"/>
</g>
<!-- FS&#45;&gt;bsShrFEq -->
<g id="edge67" class="edge">
<title>FS&#45;&gt;bsShrFEq</title>
<path fill="none" stroke="black" d="M1067.48,-224.77C1016.89,-215.26 931.62,-198.76 848.55,-180.07"/>
<polygon fill="black" stroke="black" points="849.23,-176.63 838.7,-177.84 847.68,-183.46 849.23,-176.63"/>
</g>
<!-- FS&#45;&gt;mobShr -->
<g id="edge68" class="edge">
<title>FS&#45;&gt;mobShr</title>
<path fill="none" stroke="black" d="M1067.34,-232.96C954.4,-232.16 648.29,-225.76 386.14,-179.97"/>
<polygon fill="black" stroke="black" points="386.5,-176.48 376.04,-178.19 385.28,-183.38 386.5,-176.48"/>
</g>
<!-- FS&#45;&gt;resShearWO -->
<g id="edge69" class="edge">
<title>FS&#45;&gt;resShearWO</title>
<path fill="none" stroke="black" d="M1102.61,-215.7C1098.24,-207.64 1092.94,-197.89 1088.1,-188.98"/>
<polygon fill="black" stroke="black" points="1091.13,-187.22 1083.29,-180.1 1084.98,-190.56 1091.13,-187.22"/>
</g>
<!-- FS&#45;&gt;mobShearWO -->
<g id="edge70" class="edge">
<title>FS&#45;&gt;mobShearWO</title>
<path fill="none" stroke="black" d="M1156.62,-223.92C1211.81,-212.69 1306.8,-193.36 1374.99,-179.48"/>
<polygon fill="black" stroke="black" points="1375.75,-182.9 1384.85,-177.48 1374.35,-176.04 1375.75,-182.9"/>
</g>
<!-- FS&#45;&gt;X_i -->
<g id="edge71" class="edge">
<title>FS&#45;&gt;X_i</title>
<path fill="none" stroke="black" d="M1156.58,-224.26C1174.1,-221.15 1194.43,-217.94 1213,-216 1589.7,-176.56 1692.02,-233.6 2071.03,-179.94"/>
<polygon fill="black" stroke="black" points="2071.77,-183.37 2081.17,-178.48 2070.78,-176.44 2071.77,-183.37"/>
</g>
<!-- FS&#45;&gt;FS -->
<g id="edge72" class="edge">
<title>FS&#45;&gt;FS</title>
<path fill="none" stroke="black" d="M1156.66,-247.2C1166.95,-246.06 1174.5,-241.66 1174.5,-234 1174.5,-229.09 1171.4,-225.52 1166.47,-223.29"/>
<polygon fill="black" stroke="black" points="1167.22,-219.87 1156.66,-220.8 1165.49,-226.65 1167.22,-219.87"/>
</g>
<!-- nrmShrForIM -->
<g id="node36" class="node">
<title>nrmShrForIM</title>
<polygon fill="#fff68f" stroke="black" points="1341.5,-252 1222.5,-252 1222.5,-216 1341.5,-216 1341.5,-252"/>
<text text-anchor="middle" x="1282" y="-230.3" font-family="Times,serif" font-size="14.00">IM:nrmShrFor</text>
</g>
<!-- FS&#45;&gt;nrmShrForIM -->
<g id="edge73" class="edge">
<title>FS&#45;&gt;nrmShrForIM</title>
<path fill="none" stroke="black" d="M1156.82,-223.52C1175.34,-220.74 1193.85,-219.88 1212.36,-220.94"/>
<polygon fill="black" stroke="black" points="1212.11,-224.43 1222.35,-221.7 1212.64,-217.45 1212.11,-224.43"/>
</g>
<!-- intsliceFsRC -->
<g id="node37" class="node">
<title>intsliceFsRC</title>
<polygon fill="#fff68f" stroke="black" points="1488,-252 1378,-252 1378,-216 1488,-216 1488,-252"/>
<text text-anchor="middle" x="1433" y="-230.3" font-family="Times,serif" font-size="14.00">IM:intsliceFs</text>
</g>
<!-- FS&#45;&gt;intsliceFsRC -->
<g id="edge74" class="edge">
<title>FS&#45;&gt;intsliceFsRC</title>
<path fill="none" stroke="black" d="M1156.72,-249.48C1175.68,-255.27 1198.17,-261.13 1219,-264 1282.4,-272.72 1300.31,-276.87 1363,-264 1371.66,-262.22 1380.57,-259.33 1389,-256.02"/>
<polygon fill="black" stroke="black" points="1390.41,-259.23 1398.29,-252.15 1387.72,-252.77 1390.41,-259.23"/>
</g>
<!-- nrmShrForIM&#45;&gt;X_i -->
<g id="edge75" class="edge">
<title>nrmShrForIM&#45;&gt;X_i</title>
<path fill="none" stroke="black" d="M1341.73,-220.17C1350.83,-218.55 1360.14,-217.09 1369,-216 1676.19,-178.31 1760.76,-225.13 2070.98,-179.95"/>
<polygon fill="black" stroke="black" points="2071.79,-183.37 2081.17,-178.45 2070.76,-176.45 2071.79,-183.37"/>
</g>
<!-- nrmShrForIM&#45;&gt;momentEql -->
<g id="edge76" class="edge">
<title>nrmShrForIM&#45;&gt;momentEql</title>
<path fill="none" stroke="black" d="M1341.87,-221.09C1350.95,-219.34 1360.22,-217.6 1369,-216 1451.74,-200.96 1546.98,-185.14 1610.88,-174.74"/>
<polygon fill="black" stroke="black" points="1611.55,-178.18 1620.86,-173.12 1610.43,-171.27 1611.55,-178.18"/>
</g>
<!-- nrmShrForIM&#45;&gt;FS -->
<g id="edge77" class="edge">
<title>nrmShrForIM&#45;&gt;FS</title>
<path fill="none" stroke="black" d="M1222.35,-246.3C1203.83,-248.05 1185.32,-247.89 1166.81,-245.8"/>
<polygon fill="black" stroke="black" points="1167.2,-242.32 1156.82,-244.48 1166.28,-249.26 1167.2,-242.32"/>
</g>
<!-- nrmShrForIM&#45;&gt;nrmShrForIM -->
<g id="edge78" class="edge">
<title>nrmShrForIM&#45;&gt;nrmShrForIM</title>
<path fill="none" stroke="black" d="M1341.79,-246.66C1352.23,-244.97 1359.5,-240.75 1359.5,-234 1359.5,-229.68 1356.52,-226.39 1351.63,-224.14"/>
<polygon fill="black" stroke="black" points="1352.37,-220.71 1341.79,-221.34 1350.45,-227.45 1352.37,-220.71"/>
</g>
<!-- nrmShrForIM&#45;&gt;intsliceFsRC -->
<g id="edge81" class="edge">
<title>nrmShrForIM&#45;&gt;intsliceFsRC</title>
<path fill="none" stroke="black" d="M1341.57,-221.1C1350.22,-220.45 1358.86,-220.33 1367.5,-220.74"/>
<polygon fill="black" stroke="black" points="1367.42,-224.24 1377.64,-221.46 1367.92,-217.26 1367.42,-224.24"/>
</g>
<!-- nrmShrForNumRC -->
<g id="node38" class="node">
<title>nrmShrForNumRC</title>
<polygon fill="#fff68f" stroke="black" points="1693,-252 1539,-252 1539,-216 1693,-216 1693,-252"/>
<text text-anchor="middle" x="1616" y="-230.3" font-family="Times,serif" font-size="14.00">IM:nrmShrForNum</text>
</g>
<!-- nrmShrForIM&#45;&gt;nrmShrForNumRC -->
<g id="edge79" class="edge">
<title>nrmShrForIM&#45;&gt;nrmShrForNumRC</title>
<path fill="none" stroke="black" d="M1328.14,-252.02C1342.88,-256.92 1359.41,-261.55 1375,-264 1433.83,-273.25 1450,-272.11 1509,-264 1523.44,-262.01 1538.68,-258.59 1552.99,-254.74"/>
<polygon fill="black" stroke="black" points="1554.03,-258.08 1562.72,-252.03 1552.15,-251.34 1554.03,-258.08"/>
</g>
<!-- nrmShrForDenRC -->
<g id="node39" class="node">
<title>nrmShrForDenRC</title>
<polygon fill="#fff68f" stroke="black" points="2129,-252 1981,-252 1981,-216 2129,-216 2129,-252"/>
<text text-anchor="middle" x="2055" y="-230.3" font-family="Times,serif" font-size="14.00">IM:nrmShrForDen</text>
</g>
<!-- nrmShrForIM&#45;&gt;nrmShrForDenRC -->
<g id="edge80" class="edge">
<title>nrmShrForIM&#45;&gt;nrmShrForDenRC</title>
<path fill="none" stroke="black" d="M1328.14,-252.02C1342.88,-256.92 1359.41,-261.55 1375,-264 1515.93,-286.17 1553.46,-269.95 1696,-264 1790.3,-260.07 1898.17,-250.35 1970.84,-243.03"/>
<polygon fill="black" stroke="black" points="1971.26,-246.5 1980.86,-242.01 1970.55,-239.54 1971.26,-246.5"/>
</g>
<!-- intsliceFsRC&#45;&gt;Phi -->
<g id="edge92" class="edge">
<title>intsliceFsRC&#45;&gt;Phi</title>
<path fill="none" stroke="black" d="M1414.62,-215.92C1388.31,-191.59 1342.09,-149.29 1333,-144 1290,-118.96 1273.95,-124.46 1227,-108 1161.51,-85.03 1086.55,-57.77 1036.76,-39.53"/>
<polygon fill="black" stroke="black" points="1037.74,-36.16 1027.15,-36 1035.33,-42.73 1037.74,-36.16"/>
</g>
<!-- intsliceFsRC&#45;&gt;Psi -->
<g id="edge93" class="edge">
<title>intsliceFsRC&#45;&gt;Psi</title>
<path fill="none" stroke="black" d="M1393.63,-216C1374.41,-206.76 1351.5,-194.3 1333,-180 1315.83,-166.72 1318.87,-154.73 1300,-144 1231.73,-105.18 1201.86,-131.75 1127,-108 1088.67,-95.84 1082.15,-84.7 1044,-72 1017.84,-63.29 954.66,-48.48 902.21,-36.73"/>
<polygon fill="black" stroke="black" points="902.73,-33.26 892.21,-34.5 901.21,-40.09 902.73,-33.26"/>
</g>
<!-- intsliceFsRC&#45;&gt;resShearWO -->
<g id="edge94" class="edge">
<title>intsliceFsRC&#45;&gt;resShearWO</title>
<path fill="none" stroke="black" d="M1377.92,-218.01C1374.91,-217.3 1371.92,-216.63 1369,-216 1275.66,-195.98 1248.57,-198.58 1151.07,-180.14"/>
<polygon fill="black" stroke="black" points="1151.57,-176.67 1141.09,-178.23 1150.26,-183.55 1151.57,-176.67"/>
</g>
<!-- intsliceFsRC&#45;&gt;mobShearWO -->
<g id="edge95" class="edge">
<title>intsliceFsRC&#45;&gt;mobShearWO</title>
<path fill="none" stroke="black" d="M1438.69,-215.7C1441.25,-207.9 1444.33,-198.51 1447.18,-189.83"/>
<polygon fill="black" stroke="black" points="1450.58,-190.7 1450.38,-180.1 1443.93,-188.51 1450.58,-190.7"/>
</g>
<!-- intsliceFsRC&#45;&gt;FS -->
<g id="edge96" class="edge">
<title>intsliceFsRC&#45;&gt;FS</title>
<path fill="none" stroke="black" d="M1408,-252.04C1393.79,-261.17 1375.25,-271.29 1357,-276 1300.19,-290.65 1282.74,-286.38 1225,-276 1202.87,-272.02 1179.42,-263.99 1159.65,-256"/>
<polygon fill="black" stroke="black" points="1160.84,-252.7 1150.26,-252.1 1158.15,-259.17 1160.84,-252.7"/>
</g>
<!-- intsliceFsRC&#45;&gt;nrmShrForIM -->
<g id="edge97" class="edge">
<title>intsliceFsRC&#45;&gt;nrmShrForIM</title>
<path fill="none" stroke="black" d="M1377.64,-246.54C1369,-247.36 1360.36,-247.66 1351.72,-247.42"/>
<polygon fill="black" stroke="black" points="1351.74,-243.92 1341.57,-246.9 1351.38,-250.91 1351.74,-243.92"/>
</g>
<!-- intsliceFsRC&#45;&gt;intsliceFsRC -->
<g id="edge98" class="edge">
<title>intsliceFsRC&#45;&gt;intsliceFsRC</title>
<path fill="none" stroke="black" d="M1488.07,-246.85C1498.57,-245.32 1506,-241.03 1506,-234 1506,-229.5 1502.95,-226.12 1498,-223.87"/>
<polygon fill="black" stroke="black" points="1498.64,-220.42 1488.07,-221.15 1496.79,-227.17 1498.64,-220.42"/>
</g>
<!-- nrmShrForNumRC&#45;&gt;alpha_i -->
<g id="edge83" class="edge">
<title>nrmShrForNumRC&#45;&gt;alpha_i</title>
<path fill="none" stroke="black" d="M1600.7,-215.69C1578.07,-190.13 1538.09,-145.13 1536,-144 1445.45,-94.85 1400.55,-151.16 1307,-108 1284.68,-97.7 1286.27,-84.33 1265,-72 1248.71,-62.56 1207.13,-48.03 1172.02,-36.57"/>
<polygon fill="black" stroke="black" points="1172.91,-33.18 1162.32,-33.43 1170.75,-39.84 1172.91,-33.18"/>
</g>
<!-- nrmShrForNumRC&#45;&gt;b_i -->
<g id="edge85" class="edge">
<title>nrmShrForNumRC&#45;&gt;b_i</title>
<path fill="none" stroke="black" d="M1693.26,-229.21C1846.98,-221.26 2180.48,-201.74 2228,-180 2290.59,-151.37 2287.61,-117.79 2339,-72 2350.2,-62.02 2362.91,-51.49 2374.1,-42.47"/>
<polygon fill="black" stroke="black" points="2376.32,-45.18 2381.94,-36.2 2371.94,-39.72 2376.32,-45.18"/>
</g>
<!-- nrmShrForNumRC&#45;&gt;beta_i -->
<g id="edge84" class="edge">
<title>nrmShrForNumRC&#45;&gt;beta_i</title>
<path fill="none" stroke="black" d="M1693.11,-228.84C1849.53,-220.03 2190.85,-198.75 2208,-180 2245.41,-139.09 2192.58,-77.22 2156.93,-43.32"/>
<polygon fill="black" stroke="black" points="2158.89,-40.37 2149.18,-36.13 2154.13,-45.5 2158.89,-40.37"/>
</g>
<!-- nrmShrForNumRC&#45;&gt;h_i -->
<g id="edge86" class="edge">
<title>nrmShrForNumRC&#45;&gt;h_i</title>
<path fill="none" stroke="black" d="M1693.25,-221.42C1717.37,-213.76 1741.45,-201.06 1756,-180 1765.09,-166.83 1762.77,-158.5 1756,-144 1734.91,-98.83 1713.52,-96.31 1670,-72 1653.57,-62.82 1613.16,-49.39 1577.19,-38.35"/>
<polygon fill="black" stroke="black" points="1577.77,-34.86 1567.18,-35.3 1575.73,-41.56 1577.77,-34.86"/>
</g>
<!-- nrmShrForNumRC&#45;&gt;srfWtrF -->
<g id="edge87" class="edge">
<title>nrmShrForNumRC&#45;&gt;srfWtrF</title>
<path fill="none" stroke="black" d="M1673.67,-215.97C1709.74,-205.31 1756.13,-191.61 1792.69,-180.81"/>
<polygon fill="black" stroke="black" points="1794.12,-184.04 1802.72,-177.85 1792.14,-177.33 1794.12,-184.04"/>
</g>
<!-- nrmShrForNumRC&#45;&gt;H_i -->
<g id="edge82" class="edge">
<title>nrmShrForNumRC&#45;&gt;H_i</title>
<path fill="none" stroke="black" d="M1611.02,-215.98C1604.42,-196.19 1590.98,-163.72 1569,-144 1531.08,-109.97 1400.27,-64.77 1319.63,-39.09"/>
<polygon fill="black" stroke="black" points="1320.64,-35.74 1310.05,-36.05 1318.53,-42.41 1320.64,-35.74"/>
</g>
<!-- nrmShrForNumRC&#45;&gt;nrmShrForIM -->
<g id="edge88" class="edge">
<title>nrmShrForNumRC&#45;&gt;nrmShrForIM</title>
<path fill="none" stroke="black" d="M1577.74,-252.1C1556.29,-261.25 1528.75,-271.37 1503,-276 1449.63,-285.6 1434.13,-286.8 1381,-276 1361.7,-272.08 1341.5,-264.26 1324.42,-256.42"/>
<polygon fill="black" stroke="black" points="1325.81,-253.2 1315.27,-252.08 1322.81,-259.53 1325.81,-253.2"/>
</g>
<!-- nrmShrForDenRC&#45;&gt;b_i -->
<g id="edge89" class="edge">
<title>nrmShrForDenRC&#45;&gt;b_i</title>
<path fill="none" stroke="black" d="M2129.19,-216.47C2184.42,-203.78 2252.22,-187.25 2264,-180 2320.18,-145.43 2365.95,-81.04 2388.6,-45.05"/>
<polygon fill="black" stroke="black" points="2391.84,-46.48 2394.11,-36.13 2385.88,-42.8 2391.84,-46.48"/>
</g>
<!-- nrmShrForDenRC&#45;&gt;f_i -->
<g id="edge90" class="edge">
<title>nrmShrForDenRC&#45;&gt;f_i</title>
<path fill="none" stroke="black" d="M2128.9,-215.97C2177.36,-204.12 2233.18,-188.91 2241,-180 2273.61,-142.86 2272.87,-81.31 2269.12,-46.05"/>
<polygon fill="black" stroke="black" points="2272.58,-45.51 2267.89,-36.01 2265.63,-46.36 2272.58,-45.51"/>
</g>
<!-- nrmShrForDenRC&#45;&gt;nrmShrForIM -->
<g id="edge91" class="edge">
<title>nrmShrForDenRC&#45;&gt;nrmShrForIM</title>
<path fill="none" stroke="black" d="M1980.77,-245.07C1907.17,-255.44 1791.09,-270.2 1690,-276 1621.45,-279.93 1448.29,-289.68 1381,-276 1361.7,-272.08 1341.5,-264.26 1324.42,-256.42"/>
<polygon fill="black" stroke="black" points="1325.81,-253.2 1315.27,-252.08 1322.81,-259.53 1325.81,-253.2"/>
</g>
<!-- F_xG -->
<g id="node40" class="node">
<title>F_xG</title>
<polygon fill="#bbffff" stroke="black" points="2639.5,-36 2472.5,-36 2472.5,0 2639.5,0 2639.5,-36"/>
<text text-anchor="middle" x="2556" y="-14.3" font-family="Times,serif" font-size="14.00">DD:nrmForceSumDD</text>
</g>
<!-- F_xH -->
<g id="node41" class="node">
<title>F_xH</title>
<polygon fill="#bbffff" stroke="black" points="2822,-36 2658,-36 2658,0 2822,0 2822,-36"/>
<text text-anchor="middle" x="2740" y="-14.3" font-family="Times,serif" font-size="14.00">DD:watForceSumDD</text>
</g>
<!-- crtSlpIdIM -->
<g id="node42" class="node">
<title>crtSlpIdIM</title>
<polygon fill="#fff68f" stroke="black" points="2245,-252 2147,-252 2147,-216 2245,-216 2245,-252"/>
<text text-anchor="middle" x="2196" y="-230.3" font-family="Times,serif" font-size="14.00">IM:crtSlpId</text>
</g>
</g>
</svg>
