<?xml version="1.0" encoding="UTF-8" standalone="no"?>
<!DOCTYPE svg PUBLIC "-//W3C//DTD SVG 1.1//EN"
 "http://www.w3.org/Graphics/SVG/1.1/DTD/svg11.dtd">
<!-- Generated by graphviz version 2.43.0 (0)
 -->
<!-- Title: allvsall Pages: 1 -->
<svg width="3028pt" height="188pt"
 viewBox="0.00 0.00 3028.00 188.00" xmlns="http://www.w3.org/2000/svg" xmlns:xlink="http://www.w3.org/1999/xlink">
<g id="graph0" class="graph" transform="scale(1 1) rotate(0) translate(4 184)">
<title>allvsall</title>
<polygon fill="white" stroke="transparent" points="-4,4 -4,-184 3024,-184 3024,4 -4,4"/>
<!-- cartSyst -->
<g id="node1" class="node">
<title>cartSyst</title>
<polygon fill="mistyrose" stroke="black" points="91,-36 0,-36 0,0 91,0 91,-36"/>
<text text-anchor="middle" x="45.5" y="-14.3" font-family="Times,serif" font-size="14.00">A:cartSyst</text>
</g>
<!-- neglectCurv -->
<g id="node2" class="node">
<title>neglectCurv</title>
<polygon fill="mistyrose" stroke="black" points="360.5,-36 242.5,-36 242.5,0 360.5,0 360.5,-36"/>
<text text-anchor="middle" x="301.5" y="-14.3" font-family="Times,serif" font-size="14.00">A:neglectCurv</text>
</g>
<!-- cartSyst&#45;&gt;neglectCurv -->
<g id="edge1" class="edge">
<title>cartSyst&#45;&gt;neglectCurv</title>
<path fill="none" stroke="black" d="M70.23,-36.11C81.35,-43.17 94.99,-50.41 108.5,-54 157.9,-67.12 173.58,-64.96 223.5,-54 236.26,-51.2 249.42,-46.1 261.21,-40.6"/>
<polygon fill="black" stroke="black" points="262.89,-43.68 270.34,-36.15 259.82,-37.39 262.89,-43.68"/>
</g>
<!-- targetXAxis -->
<g id="node3" class="node">
<title>targetXAxis</title>
<polygon fill="mistyrose" stroke="black" points="224,-36 109,-36 109,0 224,0 224,-36"/>
<text text-anchor="middle" x="166.5" y="-14.3" font-family="Times,serif" font-size="14.00">A:targetXAxis</text>
</g>
<!-- targetXAxis&#45;&gt;neglectCurv -->
<g id="edge2" class="edge">
<title>targetXAxis&#45;&gt;neglectCurv</title>
<path fill="none" stroke="black" d="M224.24,-18C226.88,-18 229.53,-18 232.17,-18"/>
<polygon fill="black" stroke="black" points="232.35,-21.5 242.35,-18 232.35,-14.5 232.35,-21.5"/>
</g>
<!-- constAccel -->
<g id="node4" class="node">
<title>constAccel</title>
<polygon fill="mistyrose" stroke="black" points="486,-36 379,-36 379,0 486,0 486,-36"/>
<text text-anchor="middle" x="432.5" y="-14.3" font-family="Times,serif" font-size="14.00">A:constAccel</text>
</g>
<!-- accelXZero -->
<g id="node5" class="node">
<title>accelXZero</title>
<polygon fill="mistyrose" stroke="black" points="1159.5,-36 1049.5,-36 1049.5,0 1159.5,0 1159.5,-36"/>
<text text-anchor="middle" x="1104.5" y="-14.3" font-family="Times,serif" font-size="14.00">A:accelXZero</text>
</g>
<!-- constAccel&#45;&gt;accelXZero -->
<g id="edge3" class="edge">
<title>constAccel&#45;&gt;accelXZero</title>
<path fill="none" stroke="black" d="M461.1,-36.13C473.86,-43.19 489.4,-50.44 504.5,-54 561.49,-67.45 974.47,-67.3 1031.5,-54 1043.31,-51.25 1055.42,-46.29 1066.28,-40.92"/>
<polygon fill="black" stroke="black" points="1068.22,-43.86 1075.47,-36.14 1064.99,-37.65 1068.22,-43.86"/>
</g>
<!-- accelYGravity -->
<g id="node6" class="node">
<title>accelYGravity</title>
<polygon fill="mistyrose" stroke="black" points="891,-36 762,-36 762,0 891,0 891,-36"/>
<text text-anchor="middle" x="826.5" y="-14.3" font-family="Times,serif" font-size="14.00">A:accelYGravity</text>
</g>
<!-- constAccel&#45;&gt;accelYGravity -->
<g id="edge4" class="edge">
<title>constAccel&#45;&gt;accelYGravity</title>
<path fill="none" stroke="black" d="M461.1,-36.13C473.86,-43.19 489.4,-50.44 504.5,-54 607.88,-78.4 639.49,-75.58 743.5,-54 757.1,-51.18 771.22,-46.01 783.86,-40.45"/>
<polygon fill="black" stroke="black" points="785.58,-43.51 793.21,-36.16 782.66,-37.15 785.58,-43.51"/>
</g>
<!-- neglectDrag -->
<g id="node7" class="node">
<title>neglectDrag</title>
<polygon fill="mistyrose" stroke="black" points="744,-36 625,-36 625,0 744,0 744,-36"/>
<text text-anchor="middle" x="684.5" y="-14.3" font-family="Times,serif" font-size="14.00">A:neglectDrag</text>
</g>
<!-- constAccel&#45;&gt;neglectDrag -->
<g id="edge5" class="edge">
<title>constAccel&#45;&gt;neglectDrag</title>
<path fill="none" stroke="black" d="M461.1,-36.13C473.86,-43.19 489.4,-50.44 504.5,-54 548.62,-64.42 562.22,-63.73 606.5,-54 619.26,-51.2 632.42,-46.1 644.21,-40.6"/>
<polygon fill="black" stroke="black" points="645.89,-43.68 653.34,-36.15 642.82,-37.39 645.89,-43.68"/>
</g>
<!-- freeFlight -->
<g id="node8" class="node">
<title>freeFlight</title>
<polygon fill="mistyrose" stroke="black" points="606.5,-36 504.5,-36 504.5,0 606.5,0 606.5,-36"/>
<text text-anchor="middle" x="555.5" y="-14.3" font-family="Times,serif" font-size="14.00">A:freeFlight</text>
</g>
<!-- constAccel&#45;&gt;freeFlight -->
<g id="edge6" class="edge">
<title>constAccel&#45;&gt;freeFlight</title>
<path fill="none" stroke="black" d="M486.31,-18C488.95,-18 491.59,-18 494.23,-18"/>
<polygon fill="black" stroke="black" points="494.42,-21.5 504.42,-18 494.42,-14.5 494.42,-21.5"/>
</g>
<!-- yAxisGravity -->
<g id="node9" class="node">
<title>yAxisGravity</title>
<polygon fill="mistyrose" stroke="black" points="1031.5,-36 909.5,-36 909.5,0 1031.5,0 1031.5,-36"/>
<text text-anchor="middle" x="970.5" y="-14.3" font-family="Times,serif" font-size="14.00">A:yAxisGravity</text>
</g>
<!-- accelYGravity&#45;&gt;yAxisGravity -->
<g id="edge7" class="edge">
<title>accelYGravity&#45;&gt;yAxisGravity</title>
<path fill="none" stroke="black" d="M891.19,-18C893.85,-18 896.52,-18 899.18,-18"/>
<polygon fill="black" stroke="black" points="899.47,-21.5 909.47,-18 899.47,-14.5 899.47,-21.5"/>
</g>
<!-- dataDefn -->
<g id="node10" class="node">
<title>dataDefn</title>
<polygon fill="#bbffff" stroke="black" points="1277.5,-36 1177.5,-36 1177.5,0 1277.5,0 1277.5,-36"/>
<text text-anchor="middle" x="1227.5" y="-14.3" font-family="Times,serif" font-size="14.00">DD:speedIY</text>
</g>
<!-- dataDefn&#45;&gt;dataDefn -->
<g id="edge8" class="edge">
<title>dataDefn:ixVel&#45;&gt;dataDefn:speed</title>
<path fill="none" stroke="black" d="M1277.61,-24.51C1288.02,-23.83 1295.5,-21.66 1295.5,-18 1295.5,-15.71 1292.58,-14.01 1287.85,-12.89"/>
<polygon fill="black" stroke="black" points="1288,-9.37 1277.61,-11.49 1287.05,-16.31 1288,-9.37"/>
</g>
<!-- dataDefn&#45;&gt;dataDefn -->
<g id="edge9" class="edge">
<title>dataDefn:iyVel&#45;&gt;dataDefn:speed</title>
<path fill="none" stroke="black" d="M1277.85,-31.45C1297.32,-32.04 1313.5,-27.56 1313.5,-18 1313.5,-10.16 1302.61,-5.73 1287.95,-4.72"/>
<polygon fill="black" stroke="black" points="1287.91,-1.22 1277.85,-4.55 1287.79,-8.22 1287.91,-1.22"/>
</g>
<!-- theory -->
<g id="node11" class="node">
<title>theory</title>
<polygon fill="#fff68f" stroke="black" points="1582.5,-108 1460.5,-108 1460.5,-72 1582.5,-72 1582.5,-108"/>
<text text-anchor="middle" x="1521.5" y="-86.3" font-family="Times,serif" font-size="14.00">IM:messageIM</text>
</g>
<!-- theory&#45;&gt;cartSyst -->
<g id="edge18" class="edge">
<title>theory:velocity&#45;&gt;cartSyst</title>
<path fill="none" stroke="black" d="M1460.5,-88.9C1225.84,-88.21 381.16,-82.61 101.02,-37.75"/>
<polygon fill="black" stroke="black" points="101.33,-34.25 90.89,-36.07 100.19,-41.16 101.33,-34.25"/>
</g>
<!-- theory&#45;&gt;cartSyst -->
<g id="edge23" class="edge">
<title>theory:position&#45;&gt;cartSyst</title>
<path fill="none" stroke="black" d="M1460.24,-88.88C1224.27,-88.09 374.76,-82.01 108.5,-36 106.04,-35.58 103.54,-35.07 101.02,-34.5"/>
<polygon fill="black" stroke="black" points="101.81,-31.09 91.25,-32.04 100.1,-37.87 101.81,-31.09"/>
</g>
<!-- theory&#45;&gt;targetXAxis -->
<g id="edge29" class="edge">
<title>theory:flightduration&#45;&gt;targetXAxis</title>
<path fill="none" stroke="black" d="M1460.36,-88.16C1241.22,-84.91 494.79,-71.54 234.27,-35.86"/>
<polygon fill="black" stroke="black" points="234.48,-32.36 224.09,-34.42 233.5,-39.29 234.48,-32.36"/>
</g>
<!-- theory&#45;&gt;constAccel -->
<g id="edge19" class="edge">
<title>theory:velocity&#45;&gt;constAccel</title>
<path fill="none" stroke="black" d="M1460.21,-87.63C1270.67,-83 695.43,-66.58 496.21,-37.48"/>
<polygon fill="black" stroke="black" points="496.58,-33.99 486.16,-35.95 495.52,-40.91 496.58,-33.99"/>
</g>
<!-- theory&#45;&gt;constAccel -->
<g id="edge24" class="edge">
<title>theory:position&#45;&gt;constAccel</title>
<path fill="none" stroke="black" d="M1460.42,-87.44C1270.25,-82.49 690.89,-65.62 504.5,-36 501.72,-35.56 498.89,-35.04 496.03,-34.47"/>
<polygon fill="black" stroke="black" points="496.77,-31.05 486.25,-32.34 495.28,-37.89 496.77,-31.05"/>
</g>
<!-- theory&#45;&gt;accelXZero -->
<g id="edge39" class="edge">
<title>theory:landingposition&#45;&gt;accelXZero</title>
<path fill="none" stroke="black" d="M1460.23,-81.89C1391.68,-73.47 1277.18,-58 1169.62,-36.11"/>
<polygon fill="black" stroke="black" points="1170.07,-32.63 1159.57,-34.04 1168.65,-39.49 1170.07,-32.63"/>
</g>
<!-- theory&#45;&gt;accelYGravity -->
<g id="edge31" class="edge">
<title>theory:flightduration&#45;&gt;accelYGravity</title>
<path fill="none" stroke="black" d="M1460.34,-86.64C1350.33,-81.76 1111.75,-68.35 901.37,-36"/>
<polygon fill="black" stroke="black" points="901.79,-32.52 891.37,-34.45 900.72,-39.44 901.79,-32.52"/>
</g>
<!-- theory&#45;&gt;yAxisGravity -->
<g id="edge27" class="edge">
<title>theory:flightduration&#45;&gt;yAxisGravity</title>
<path fill="none" stroke="black" d="M1460.37,-85.21C1369.2,-78.71 1192.53,-63.57 1041.83,-37.79"/>
<polygon fill="black" stroke="black" points="1042.4,-34.34 1031.95,-36.08 1041.2,-41.23 1042.4,-34.34"/>
</g>
<!-- theory&#45;&gt;yAxisGravity -->
<g id="edge36" class="edge">
<title>theory:landingposition&#45;&gt;yAxisGravity</title>
<path fill="none" stroke="black" d="M1460.22,-84.33C1369.83,-77.22 1195.96,-61.74 1049.5,-36 1046.88,-35.54 1044.21,-35.04 1041.51,-34.5"/>
<polygon fill="black" stroke="black" points="1042.16,-31.06 1031.66,-32.46 1040.74,-37.92 1042.16,-31.06"/>
</g>
<!-- theory&#45;&gt;dataDefn -->
<g id="edge34" class="edge">
<title>theory:flightduration&#45;&gt;dataDefn:iyVel</title>
<path fill="none" stroke="black" d="M1460.43,-75.75C1409.61,-64.05 1337.76,-46.96 1287.3,-34.6"/>
<polygon fill="black" stroke="black" points="1288.05,-31.18 1277.5,-32.19 1286.38,-37.98 1288.05,-31.18"/>
</g>
<!-- theory&#45;&gt;dataDefn -->
<g id="edge41" class="edge">
<title>theory:landingposition&#45;&gt;dataDefn:ixVel</title>
<path fill="none" stroke="black" d="M1460.19,-73.03C1409.5,-60.62 1338,-43.63 1287.64,-32.03"/>
<polygon fill="black" stroke="black" points="1288.38,-28.62 1277.86,-29.79 1286.82,-35.44 1288.38,-28.62"/>
</g>
<!-- theory&#45;&gt;theory -->
<g id="edge12" class="edge">
<title>theory:projSpeed&#45;&gt;theory:accelerationTM</title>
<path fill="none" stroke="black" d="M1582.78,-91.4C1593.25,-91.21 1600.5,-90.74 1600.5,-90 1600.5,-89.54 1597.67,-89.18 1592.99,-88.93"/>
<polygon fill="black" stroke="black" points="1592.89,-85.43 1582.78,-88.6 1592.66,-92.42 1592.89,-85.43"/>
</g>
<!-- theory&#45;&gt;theory -->
<g id="edge15" class="edge">
<title>theory:projPos&#45;&gt;theory:velocityTM</title>
<path fill="none" stroke="black" d="M1582.6,-93C1602.58,-92.98 1618.5,-91.98 1618.5,-90 1618.5,-88.37 1607.79,-87.41 1592.91,-87.1"/>
<polygon fill="black" stroke="black" points="1592.63,-83.6 1582.6,-87 1592.56,-90.6 1592.63,-83.6"/>
</g>
<!-- theory&#45;&gt;theory -->
<g id="edge16" class="edge">
<title>theory:projPos&#45;&gt;theory:projSpeed</title>
<path fill="none" stroke="black" d="M1582.73,-94.41C1611.39,-94.9 1636.5,-93.43 1636.5,-90 1636.5,-86.98 1617.11,-85.48 1592.95,-85.5"/>
<polygon fill="black" stroke="black" points="1592.7,-82 1582.73,-85.59 1592.76,-89 1592.7,-82"/>
</g>
<!-- theory&#45;&gt;theory -->
<g id="edge21" class="edge">
<title>theory:velocity&#45;&gt;theory:projSpeed</title>
<path fill="none" stroke="black" d="M1582.72,-95.61C1619.65,-96.89 1654.5,-95.02 1654.5,-90 1654.5,-85.45 1625.88,-83.49 1593.02,-84.11"/>
<polygon fill="black" stroke="black" points="1592.62,-80.62 1582.72,-84.39 1592.81,-87.62 1592.62,-80.62"/>
</g>
<!-- theory&#45;&gt;theory -->
<g id="edge26" class="edge">
<title>theory:position&#45;&gt;theory:projPos</title>
<path fill="none" stroke="black" d="M1582.76,-96.65C1627.58,-98.9 1672.5,-96.68 1672.5,-90 1672.5,-83.83 1634.17,-81.47 1592.98,-82.91"/>
<polygon fill="black" stroke="black" points="1592.6,-79.42 1582.76,-83.35 1592.9,-86.42 1592.6,-79.42"/>
</g>
<!-- theory&#45;&gt;theory -->
<g id="edge35" class="edge">
<title>theory:flightduration&#45;&gt;theory:position</title>
<path fill="none" stroke="black" d="M1582.58,-97.54C1635.11,-100.93 1690.5,-98.41 1690.5,-90 1690.5,-82.13 1642.02,-79.42 1592.76,-81.88"/>
<polygon fill="black" stroke="black" points="1592.37,-78.39 1582.58,-82.46 1592.77,-85.38 1592.37,-78.39"/>
</g>
<!-- theory&#45;&gt;theory -->
<g id="edge42" class="edge">
<title>theory:landingposition&#45;&gt;theory:position</title>
<path fill="none" stroke="black" d="M1582.79,-98.34C1642.69,-102.95 1708.5,-100.17 1708.5,-90 1708.5,-80.4 1649.93,-77.39 1593.01,-80.94"/>
<polygon fill="black" stroke="black" points="1592.52,-77.47 1582.79,-81.66 1593.01,-84.45 1592.52,-77.47"/>
</g>
<!-- theory&#45;&gt;theory -->
<g id="edge43" class="edge">
<title>theory:landingposition&#45;&gt;theory:flightduration</title>
<path fill="none" stroke="black" d="M1582.62,-99.02C1649.83,-104.99 1726.5,-101.98 1726.5,-90 1726.5,-78.62 1657.41,-75.34 1592.92,-80.14"/>
<polygon fill="black" stroke="black" points="1592.3,-76.68 1582.62,-80.98 1592.87,-83.65 1592.3,-76.68"/>
</g>
<!-- theory&#45;&gt;theory -->
<g id="edge45" class="edge">
<title>theory:offset&#45;&gt;theory:landingposition</title>
<path fill="none" stroke="black" d="M1582.58,-99.63C1656.91,-107.03 1744.5,-103.82 1744.5,-90 1744.5,-76.8 1664.6,-73.28 1592.67,-79.43"/>
<polygon fill="black" stroke="black" points="1592.21,-75.96 1582.58,-80.37 1592.86,-82.93 1592.21,-75.96"/>
</g>
<!-- theory&#45;&gt;theory -->
<g id="edge47" class="edge">
<title>theory:message&#45;&gt;theory:offset</title>
<path fill="none" stroke="black" d="M1582.62,-100.19C1663.95,-109.06 1762.5,-105.66 1762.5,-90 1762.5,-74.98 1671.86,-71.24 1592.71,-78.78"/>
<polygon fill="black" stroke="black" points="1592.21,-75.31 1582.62,-79.81 1592.92,-82.28 1592.21,-75.31"/>
</g>
<!-- pointMass -->
<g id="node12" class="node">
<title>pointMass</title>
<polygon fill="mistyrose" stroke="black" points="1437,-36 1332,-36 1332,0 1437,0 1437,-36"/>
<text text-anchor="middle" x="1384.5" y="-14.3" font-family="Times,serif" font-size="14.00">A:pointMass</text>
</g>
<!-- theory&#45;&gt;pointMass -->
<g id="edge10" class="edge">
<title>theory:projSpeed&#45;&gt;pointMass</title>
<path fill="none" stroke="black" d="M1482.09,-71.88C1462.87,-62.55 1439.96,-50.92 1421.12,-40.94"/>
<polygon fill="black" stroke="black" points="1422.71,-37.82 1412.24,-36.19 1419.41,-43.99 1422.71,-37.82"/>
</g>
<!-- theory&#45;&gt;pointMass -->
<g id="edge13" class="edge">
<title>theory:projPos&#45;&gt;pointMass</title>
<path fill="none" stroke="black" d="M1493.88,-71.88C1476.39,-62.43 1453.4,-50.62 1432.97,-40.55"/>
<polygon fill="black" stroke="black" points="1434.32,-37.32 1423.8,-36.07 1431.24,-43.61 1434.32,-37.32"/>
</g>
<!-- timeStartZero -->
<g id="node13" class="node">
<title>timeStartZero</title>
<polygon fill="mistyrose" stroke="black" points="1588,-36 1455,-36 1455,0 1588,0 1588,-36"/>
<text text-anchor="middle" x="1521.5" y="-14.3" font-family="Times,serif" font-size="14.00">A:timeStartZero</text>
</g>
<!-- theory&#45;&gt;timeStartZero -->
<g id="edge11" class="edge">
<title>theory:projSpeed&#45;&gt;timeStartZero</title>
<path fill="none" stroke="black" d="M1497.84,-71.7C1494.62,-63.9 1493.73,-54.51 1495.16,-45.83"/>
<polygon fill="black" stroke="black" points="1498.56,-46.68 1497.92,-36.1 1491.83,-44.77 1498.56,-46.68"/>
</g>
<!-- theory&#45;&gt;timeStartZero -->
<g id="edge14" class="edge">
<title>theory:projPos&#45;&gt;timeStartZero</title>
<path fill="none" stroke="black" d="M1509.67,-71.7C1508.08,-63.98 1507.62,-54.71 1508.31,-46.11"/>
<polygon fill="black" stroke="black" points="1511.79,-46.49 1509.71,-36.1 1504.86,-45.52 1511.79,-46.49"/>
</g>
<!-- theory&#45;&gt;timeStartZero -->
<g id="edge20" class="edge">
<title>theory:velocity&#45;&gt;timeStartZero</title>
<path fill="none" stroke="black" d="M1521.5,-71.7C1521.5,-63.98 1521.5,-54.71 1521.5,-46.11"/>
<polygon fill="black" stroke="black" points="1525,-46.1 1521.5,-36.1 1518,-46.1 1525,-46.1"/>
</g>
<!-- theory&#45;&gt;timeStartZero -->
<g id="edge25" class="edge">
<title>theory:position&#45;&gt;timeStartZero</title>
<path fill="none" stroke="black" d="M1533.33,-71.7C1534.92,-63.98 1535.38,-54.71 1534.69,-46.11"/>
<polygon fill="black" stroke="black" points="1538.14,-45.52 1533.29,-36.1 1531.21,-46.49 1538.14,-45.52"/>
</g>
<!-- theory&#45;&gt;timeStartZero -->
<g id="edge32" class="edge">
<title>theory:flightduration&#45;&gt;timeStartZero</title>
<path fill="none" stroke="black" d="M1545.16,-71.7C1548.38,-63.9 1549.27,-54.51 1547.84,-45.83"/>
<polygon fill="black" stroke="black" points="1551.17,-44.77 1545.08,-36.1 1544.44,-46.68 1551.17,-44.77"/>
</g>
<!-- twoDMotion -->
<g id="node14" class="node">
<title>twoDMotion</title>
<polygon fill="mistyrose" stroke="black" points="1725,-36 1606,-36 1606,0 1725,0 1725,-36"/>
<text text-anchor="middle" x="1665.5" y="-14.3" font-family="Times,serif" font-size="14.00">A:twoDMotion</text>
</g>
<!-- theory&#45;&gt;twoDMotion -->
<g id="edge17" class="edge">
<title>theory:velocity&#45;&gt;twoDMotion</title>
<path fill="none" stroke="black" d="M1550.83,-71.88C1569.35,-62.39 1593.66,-50.51 1615.16,-40.42"/>
<polygon fill="black" stroke="black" points="1616.91,-43.47 1624.5,-36.07 1613.95,-37.12 1616.91,-43.47"/>
</g>
<!-- theory&#45;&gt;twoDMotion -->
<g id="edge22" class="edge">
<title>theory:position&#45;&gt;twoDMotion</title>
<path fill="none" stroke="black" d="M1562.62,-71.88C1582.87,-62.51 1607.07,-50.81 1626.95,-40.8"/>
<polygon fill="black" stroke="black" points="1628.71,-43.84 1636.04,-36.19 1625.54,-37.59 1628.71,-43.84"/>
</g>
<!-- launchOrigin -->
<g id="node15" class="node">
<title>launchOrigin</title>
<polygon fill="mistyrose" stroke="black" points="1866,-36 1743,-36 1743,0 1866,0 1866,-36"/>
<text text-anchor="middle" x="1804.5" y="-14.3" font-family="Times,serif" font-size="14.00">A:launchOrigin</text>
</g>
<!-- theory&#45;&gt;launchOrigin -->
<g id="edge28" class="edge">
<title>theory:flightduration&#45;&gt;launchOrigin</title>
<path fill="none" stroke="black" d="M1582.73,-72.41C1626.88,-61.19 1686.55,-46.43 1732.9,-35.27"/>
<polygon fill="black" stroke="black" points="1733.98,-38.62 1742.88,-32.88 1732.34,-31.81 1733.98,-38.62"/>
</g>
<!-- theory&#45;&gt;launchOrigin -->
<g id="edge37" class="edge">
<title>theory:landingposition&#45;&gt;launchOrigin</title>
<path fill="none" stroke="black" d="M1582.57,-75.25C1626.84,-64.66 1686.78,-49.88 1733.23,-38.13"/>
<polygon fill="black" stroke="black" points="1734.1,-41.53 1742.93,-35.68 1732.38,-34.74 1734.1,-41.53"/>
</g>
<!-- posXDirection -->
<g id="node16" class="node">
<title>posXDirection</title>
<polygon fill="mistyrose" stroke="black" points="2015,-36 1884,-36 1884,0 2015,0 2015,-36"/>
<text text-anchor="middle" x="1949.5" y="-14.3" font-family="Times,serif" font-size="14.00">A:posXDirection</text>
</g>
<!-- theory&#45;&gt;posXDirection -->
<g id="edge30" class="edge">
<title>theory:flightduration&#45;&gt;posXDirection</title>
<path fill="none" stroke="black" d="M1582.66,-78.48C1649,-68.87 1756,-53.52 1848.5,-36 1856.59,-34.47 1865.14,-32.67 1873.84,-30.83"/>
<polygon fill="black" stroke="black" points="1874.64,-34.24 1883.7,-28.74 1873.19,-27.39 1874.64,-34.24"/>
</g>
<!-- theory&#45;&gt;posXDirection -->
<g id="edge38" class="edge">
<title>theory:landingposition&#45;&gt;posXDirection</title>
<path fill="none" stroke="black" d="M1582.59,-80.43C1651.74,-71.03 1767.43,-54.77 1866.5,-36 1868.85,-35.55 1871.24,-35.09 1873.65,-34.6"/>
<polygon fill="black" stroke="black" points="1874.59,-37.98 1883.67,-32.53 1873.17,-31.13 1874.59,-37.98"/>
</g>
<!-- theory&#45;&gt;posXDirection -->
<g id="edge44" class="edge">
<title>theory:offset&#45;&gt;posXDirection</title>
<path fill="none" stroke="black" d="M1582.55,-82.13C1652.73,-73.37 1771.24,-57.05 1874.27,-37.92"/>
<polygon fill="black" stroke="black" points="1875.01,-41.34 1884.19,-36.06 1873.72,-34.46 1875.01,-41.34"/>
</g>
<!-- theory&#45;&gt;posXDirection -->
<g id="edge46" class="edge">
<title>theory:message&#45;&gt;posXDirection</title>
<path fill="none" stroke="black" d="M1582.58,-83.55C1656.94,-75.23 1783.18,-58.16 1892.03,-37.96"/>
<polygon fill="black" stroke="black" points="1892.99,-41.34 1902.17,-36.06 1891.7,-34.46 1892.99,-41.34"/>
</g>
<!-- gravAccelValue -->
<g id="node17" class="node">
<title>gravAccelValue</title>
<polygon fill="mistyrose" stroke="black" points="2173.5,-36 2033.5,-36 2033.5,0 2173.5,0 2173.5,-36"/>
<text text-anchor="middle" x="2103.5" y="-14.3" font-family="Times,serif" font-size="14.00">A:gravAccelValue</text>
</g>
<!-- theory&#45;&gt;gravAccelValue -->
<g id="edge33" class="edge">
<title>theory:flightduration&#45;&gt;gravAccelValue</title>
<path fill="none" stroke="black" d="M1582.59,-84.23C1676.21,-76.83 1860.29,-60.8 2015.5,-36 2018.14,-35.58 2020.82,-35.13 2023.53,-34.65"/>
<polygon fill="black" stroke="black" points="2024.22,-38.08 2033.42,-32.83 2022.95,-31.2 2024.22,-38.08"/>
</g>
<!-- theory&#45;&gt;gravAccelValue -->
<g id="edge40" class="edge">
<title>theory:landingposition&#45;&gt;gravAccelValue</title>
<path fill="none" stroke="black" d="M1582.74,-85.09C1677.18,-78.27 1863.77,-62.5 2023.06,-37.65"/>
<polygon fill="black" stroke="black" points="2023.69,-41.09 2033.03,-36.08 2022.6,-34.18 2023.69,-41.09"/>
</g>
<!-- calcValues -->
<g id="node18" class="node">
<title>calcValues</title>
<polygon fill="ivory" stroke="black" points="1579.5,-180 1463.5,-180 1463.5,-144 1579.5,-144 1579.5,-180"/>
<text text-anchor="middle" x="1521.5" y="-158.3" font-family="Times,serif" font-size="14.00">FR:calcValues</text>
</g>
<!-- calcValues&#45;&gt;theory -->
<g id="edge48" class="edge">
<title>calcValues&#45;&gt;theory:flightduration</title>
<path fill="none" stroke="black" d="M1503.75,-143.7C1501.37,-135.98 1500.69,-126.71 1501.71,-118.11"/>
<polygon fill="black" stroke="black" points="1505.19,-118.61 1503.81,-108.1 1498.34,-117.17 1505.19,-118.61"/>
</g>
<!-- calcValues&#45;&gt;theory -->
<g id="edge49" class="edge">
<title>calcValues&#45;&gt;theory:landingposition</title>
<path fill="none" stroke="black" d="M1515.58,-143.7C1514.79,-135.98 1514.56,-126.71 1514.9,-118.11"/>
<polygon fill="black" stroke="black" points="1518.4,-118.32 1515.6,-108.1 1511.42,-117.84 1518.4,-118.32"/>
</g>
<!-- calcValues&#45;&gt;theory -->
<g id="edge50" class="edge">
<title>calcValues&#45;&gt;theory:offset</title>
<path fill="none" stroke="black" d="M1527.42,-143.7C1528.21,-135.98 1528.44,-126.71 1528.1,-118.11"/>
<polygon fill="black" stroke="black" points="1531.58,-117.84 1527.4,-108.1 1524.6,-118.32 1531.58,-117.84"/>
</g>
<!-- calcValues&#45;&gt;theory -->
<g id="edge51" class="edge">
<title>calcValues&#45;&gt;theory:message</title>
<path fill="none" stroke="black" d="M1539.25,-143.7C1541.63,-135.98 1542.31,-126.71 1541.29,-118.11"/>
<polygon fill="black" stroke="black" points="1544.66,-117.17 1539.19,-108.1 1537.81,-118.61 1544.66,-117.17"/>
</g>
<!-- outputValues -->
<g id="node19" class="node">
<title>outputValues</title>
<polygon fill="ivory" stroke="black" points="1733,-180 1598,-180 1598,-144 1733,-144 1733,-180"/>
<text text-anchor="middle" x="1665.5" y="-158.3" font-family="Times,serif" font-size="14.00">FR:outputValues</text>
</g>
<!-- outputValues&#45;&gt;theory -->
<g id="edge52" class="edge">
<title>outputValues&#45;&gt;theory:flightduration</title>
<path fill="none" stroke="black" d="M1618.48,-143.88C1597.35,-134.55 1573.14,-122.92 1554,-112.94"/>
<polygon fill="black" stroke="black" points="1555.53,-109.79 1545.05,-108.19 1552.25,-115.97 1555.53,-109.79"/>
</g>
<!-- outputValues&#45;&gt;theory -->
<g id="edge53" class="edge">
<title>outputValues&#45;&gt;theory:offset</title>
<path fill="none" stroke="black" d="M1630.27,-143.88C1610.92,-134.47 1586.73,-122.71 1566.07,-112.67"/>
<polygon fill="black" stroke="black" points="1567.39,-109.41 1556.86,-108.19 1564.33,-115.71 1567.39,-109.41"/>
</g>
<!-- outputValues&#45;&gt;theory -->
<g id="edge54" class="edge">
<title>outputValues&#45;&gt;theory:message</title>
<path fill="none" stroke="black" d="M1642.07,-143.88C1624.46,-134.35 1600.14,-122.41 1577.82,-112.28"/>
<polygon fill="black" stroke="black" points="1578.95,-108.96 1568.39,-108.07 1576.09,-115.35 1578.95,-108.96"/>
</g>
<!-- inputValues -->
<g id="node20" class="node">
<title>inputValues</title>
<polygon fill="ivory" stroke="black" points="1876,-180 1751,-180 1751,-144 1876,-144 1876,-180"/>
<text text-anchor="middle" x="1813.5" y="-158.3" font-family="Times,serif" font-size="14.00">FR:inputValues</text>
</g>
<!-- verifyInVals -->
<g id="node21" class="node">
<title>verifyInVals</title>
<polygon fill="ivory" stroke="black" points="2020.5,-180 1894.5,-180 1894.5,-144 2020.5,-144 2020.5,-180"/>
<text text-anchor="middle" x="1957.5" y="-158.3" font-family="Times,serif" font-size="14.00">FR:verifyInVals</text>
</g>
<!-- correct -->
<g id="node22" class="node">
<title>correct</title>
<polygon fill="ivory" stroke="black" points="2142.5,-180 2038.5,-180 2038.5,-144 2142.5,-144 2142.5,-180"/>
<text text-anchor="middle" x="2090.5" y="-158.3" font-family="Times,serif" font-size="14.00">NFR:correct</text>
</g>
<!-- verifiable -->
<g id="node23" class="node">
<title>verifiable</title>
<polygon fill="ivory" stroke="black" points="2280.5,-180 2160.5,-180 2160.5,-144 2280.5,-144 2280.5,-180"/>
<text text-anchor="middle" x="2220.5" y="-158.3" font-family="Times,serif" font-size="14.00">NFR:verifiable</text>
</g>
<!-- understandable -->
<g id="node24" class="node">
<title>understandable</title>
<polygon fill="ivory" stroke="black" points="2464,-180 2299,-180 2299,-144 2464,-144 2464,-180"/>
<text text-anchor="middle" x="2381.5" y="-158.3" font-family="Times,serif" font-size="14.00">NFR:understandable</text>
</g>
<!-- reusable -->
<g id="node25" class="node">
<title>reusable</title>
<polygon fill="ivory" stroke="black" points="2597,-180 2482,-180 2482,-144 2597,-144 2597,-180"/>
<text text-anchor="middle" x="2539.5" y="-158.3" font-family="Times,serif" font-size="14.00">NFR:reusable</text>
</g>
<!-- maintainable -->
<g id="node26" class="node">
<title>maintainable</title>
<polygon fill="ivory" stroke="black" points="2761.5,-180 2615.5,-180 2615.5,-144 2761.5,-144 2761.5,-180"/>
<text text-anchor="middle" x="2688.5" y="-158.3" font-family="Times,serif" font-size="14.00">NFR:maintainable</text>
</g>
<!-- portable -->
<g id="node27" class="node">
<title>portable</title>
<polygon fill="ivory" stroke="black" points="2893,-180 2780,-180 2780,-144 2893,-144 2893,-180"/>
<text text-anchor="middle" x="2836.5" y="-158.3" font-family="Times,serif" font-size="14.00">NFR:portable</text>
</g>
<!-- targetHit -->
<g id="node28" class="node">
<title>targetHit</title>
<polygon fill="#ffb90f" stroke="black" points="3020,-180 2911,-180 2911,-144 3020,-144 3020,-180"/>
<text text-anchor="middle" x="2965.5" y="-158.3" font-family="Times,serif" font-size="14.00">GS:targetHit</text>
</g>
</g>
</svg>
