<?xml version="1.0" encoding="UTF-8" standalone="no"?>
<!DOCTYPE svg PUBLIC "-//W3C//DTD SVG 1.1//EN"
 "http://www.w3.org/Graphics/SVG/1.1/DTD/svg11.dtd">
<!-- Generated by graphviz version 2.43.0 (0)
 -->
<!-- Title: allvsall Pages: 1 -->
<svg width="427pt" height="201pt"
 viewBox="0.00 0.00 426.97 200.86" xmlns="http://www.w3.org/2000/svg" xmlns:xlink="http://www.w3.org/1999/xlink">
<g id="graph0" class="graph" transform="scale(1 1) rotate(0) translate(4 196.86)">
<title>allvsall</title>
<polygon fill="white" stroke="transparent" points="-4,4 -4,-196.86 422.97,-196.86 422.97,4 -4,4"/>
<!-- instance -->
<g id="node1" class="node">
<title>instance</title>
<polygon fill="lavender" stroke="black" points="274.97,-180 116.97,-180 116.97,-144 274.97,-144 274.97,-180"/>
<text text-anchor="middle" x="195.97" y="-158.3" font-family="Times,serif" font-size="14.00">LC:considerAirDrag</text>
</g>
<!-- instance&#45;&gt;instance -->
<g id="edge1" class="edge">
<title>instance:cartSyst&#45;&gt;instance:neglectCurv</title>
<path fill="none" stroke="black" d="M275.13,-161.69C285.84,-163.52 292.97,-166.52 292.97,-171 292.97,-178.59 289.17,-181.92 284.78,-182.57"/>
<polygon fill="black" stroke="black" points="285.53,-179.15 274.97,-180 283.75,-185.92 285.53,-179.15"/>
</g>
<!-- instance&#45;&gt;instance -->
<g id="edge2" class="edge">
<title>instance:targetXAxis&#45;&gt;instance:neglectCurv</title>
<path fill="none" stroke="black" d="M274.98,-156.82C295.5,-158.46 310.97,-162.91 310.97,-171 310.97,-185.06 296.32,-188.14 284.19,-184.52"/>
<polygon fill="black" stroke="black" points="285.49,-181.26 274.97,-180 282.41,-187.54 285.49,-181.26"/>
</g>
<!-- instance&#45;&gt;instance -->
<g id="edge3" class="edge">
<title>instance:constAccel&#45;&gt;instance:accelXZero</title>
<path fill="none" stroke="black" d="M275.13,-164.99C285.84,-164.49 292.97,-163.49 292.97,-162 292.97,-161.04 290.04,-160.29 285.12,-159.74"/>
<polygon fill="black" stroke="black" points="285.36,-156.25 275.13,-159.01 284.85,-163.23 285.36,-156.25"/>
</g>
<!-- instance&#45;&gt;instance -->
<g id="edge4" class="edge">
<title>instance:constAccel&#45;&gt;instance:accelYGravity</title>
<path fill="none" stroke="black" d="M274.98,-168.68C295.5,-168.27 310.97,-166.04 310.97,-162 310.97,-158.65 300.36,-156.55 285.06,-155.69"/>
<polygon fill="black" stroke="black" points="285.1,-152.19 274.98,-155.32 284.84,-159.19 285.1,-152.19"/>
</g>
<!-- instance&#45;&gt;instance -->
<g id="edge5" class="edge">
<title>instance:constAccel&#45;&gt;instance:neglectDrag</title>
<path fill="none" stroke="black" d="M275.16,-152.87C304.67,-153.61 328.97,-159.22 328.97,-171 328.97,-190.25 302.62,-193.03 283.74,-184.98"/>
<polygon fill="black" stroke="black" points="285.39,-181.89 274.97,-180 281.93,-187.98 285.39,-181.89"/>
</g>
<!-- instance&#45;&gt;instance -->
<g id="edge6" class="edge">
<title>instance:constAccel&#45;&gt;instance:freeFlight</title>
<path fill="none" stroke="black" d="M275.16,-172.1C304.67,-172.43 328.97,-169.07 328.97,-162 328.97,-155.76 310.03,-152.41 285.29,-151.93"/>
<polygon fill="black" stroke="black" points="285.17,-148.43 275.16,-151.9 285.15,-155.43 285.17,-148.43"/>
</g>
<!-- instance&#45;&gt;instance -->
<g id="edge7" class="edge">
<title>instance:accelYGravity&#45;&gt;instance:yAxisGravity</title>
<path fill="none" stroke="black" d="M275.21,-175.17C313.32,-176.8 346.97,-172.41 346.97,-162 346.97,-152.53 319.1,-148.04 285.35,-148.54"/>
<polygon fill="black" stroke="black" points="285.1,-145.04 275.21,-148.83 285.3,-152.04 285.1,-145.04"/>
</g>
<!-- instance&#45;&gt;instance -->
<g id="edge51" class="edge">
<title>instance:considerAirDrag&#45;&gt;instance:neglectDrag</title>
<path fill="none" stroke="black" d="M275.21,-149.51C313.32,-148.81 346.97,-155.39 346.97,-171 346.97,-195.05 308.89,-197.68 283.61,-185.25"/>
<polygon fill="black" stroke="black" points="285.33,-182.2 274.97,-180 281.7,-188.18 285.33,-182.2"/>
</g>
<!-- theory -->
<g id="node3" class="node">
<title>theory</title>
<polygon fill="#fff68f" stroke="black" points="245.97,-108 145.97,-108 145.97,-72 245.97,-72 245.97,-108"/>
<text text-anchor="middle" x="195.97" y="-86.3" font-family="Times,serif" font-size="14.00">IM:offsetIM</text>
</g>
<!-- instance&#45;&gt;theory -->
<g id="edge46" class="edge">
<title>instance:calcValues&#45;&gt;theory:flightduration</title>
<path fill="none" stroke="black" d="M116.72,-158.47C-44.73,-147.11 -38.38,-101.03 135.77,-92.4"/>
<polygon fill="black" stroke="black" points="135.99,-95.89 145.83,-91.95 135.68,-88.9 135.99,-95.89"/>
</g>
<!-- instance&#45;&gt;theory -->
<g id="edge47" class="edge">
<title>instance:calcValues&#45;&gt;theory:landingposition</title>
<path fill="none" stroke="black" d="M275.31,-156.73C382.53,-143.48 376.16,-103.37 256.2,-93.31"/>
<polygon fill="black" stroke="black" points="256.44,-89.82 246.2,-92.56 255.91,-96.8 256.44,-89.82"/>
</g>
<!-- instance&#45;&gt;theory -->
<g id="edge48" class="edge">
<title>instance:calcValues&#45;&gt;theory:offset</title>
<path fill="none" stroke="black" d="M275.16,-157.48C400.53,-144.92 394.27,-102.52 256.38,-92.94"/>
<polygon fill="black" stroke="black" points="256.42,-89.43 246.23,-92.3 255.99,-96.42 256.42,-89.43"/>
</g>
<!-- instance&#45;&gt;theory -->
<g id="edge49" class="edge">
<title>instance:outputValues&#45;&gt;theory:flightduration</title>
<path fill="none" stroke="black" d="M275.17,-158.04C418.63,-146.1 412.3,-101.71 256.19,-92.63"/>
<polygon fill="black" stroke="black" points="256.35,-89.13 246.18,-92.11 255.99,-96.12 256.35,-89.13"/>
</g>
<!-- instance&#45;&gt;theory -->
<g id="edge50" class="edge">
<title>instance:outputValues&#45;&gt;theory:offset</title>
<path fill="none" stroke="black" d="M275.21,-158.47C436.66,-147.11 430.31,-101.03 256.16,-92.4"/>
<polygon fill="black" stroke="black" points="256.25,-88.9 246.11,-91.95 255.94,-95.89 256.25,-88.9"/>
</g>
<!-- dataDefn -->
<g id="node2" class="node">
<title>dataDefn</title>
<polygon fill="#bbffff" stroke="black" points="245.97,-36 145.97,-36 145.97,0 245.97,0 245.97,-36"/>
<text text-anchor="middle" x="195.97" y="-14.3" font-family="Times,serif" font-size="14.00">DD:speedIY</text>
</g>
<!-- dataDefn&#45;&gt;dataDefn -->
<g id="edge8" class="edge">
<title>dataDefn:ixVel&#45;&gt;dataDefn:speed</title>
<path fill="none" stroke="black" d="M246.08,-24.51C256.48,-23.83 263.97,-21.66 263.97,-18 263.97,-15.71 261.04,-14.01 256.31,-12.89"/>
<polygon fill="black" stroke="black" points="256.46,-9.37 246.08,-11.49 255.51,-16.31 256.46,-9.37"/>
</g>
<!-- dataDefn&#45;&gt;dataDefn -->
<g id="edge9" class="edge">
<title>dataDefn:iyVel&#45;&gt;dataDefn:speed</title>
<path fill="none" stroke="black" d="M246.32,-31.45C265.79,-32.04 281.97,-27.56 281.97,-18 281.97,-10.16 271.08,-5.73 256.42,-4.72"/>
<polygon fill="black" stroke="black" points="256.38,-1.22 246.32,-4.55 256.26,-8.22 256.38,-1.22"/>
</g>
<!-- theory&#45;&gt;instance -->
<g id="edge10" class="edge">
<title>theory:projSpeed&#45;&gt;instance:pointMass</title>
<path fill="none" stroke="black" d="M145.75,-92.11C-16.15,-99.65 -29.16,-143.71 106.73,-157.12"/>
<polygon fill="black" stroke="black" points="106.49,-160.62 116.77,-158.04 107.12,-153.65 106.49,-160.62"/>
</g>
<!-- theory&#45;&gt;instance -->
<g id="edge11" class="edge">
<title>theory:projSpeed&#45;&gt;instance:timeStartZero</title>
<path fill="none" stroke="black" d="M145.71,-92.3C2.07,-100.25 -10.98,-142.23 106.56,-156.36"/>
<polygon fill="black" stroke="black" points="106.46,-159.87 116.78,-157.48 107.22,-152.91 106.46,-159.87"/>
</g>
<!-- theory&#45;&gt;instance -->
<g id="edge13" class="edge">
<title>theory:projPos&#45;&gt;instance:pointMass</title>
<path fill="none" stroke="black" d="M145.73,-92.56C20.25,-100.9 7.22,-140.53 106.65,-155.37"/>
<polygon fill="black" stroke="black" points="106.24,-158.85 116.62,-156.73 107.18,-151.91 106.24,-158.85"/>
</g>
<!-- theory&#45;&gt;instance -->
<g id="edge14" class="edge">
<title>theory:projPos&#45;&gt;instance:timeStartZero</title>
<path fill="none" stroke="black" d="M145.7,-92.9C38.65,-101.65 25.55,-138.35 106.4,-153.95"/>
<polygon fill="black" stroke="black" points="106.27,-157.48 116.73,-155.74 107.47,-150.58 106.27,-157.48"/>
</g>
<!-- theory&#45;&gt;instance -->
<g id="edge17" class="edge">
<title>theory:velocity&#45;&gt;instance:twoDMotion</title>
<path fill="none" stroke="black" d="M145.79,-93.35C56.81,-102.48 43.89,-135.9 107.01,-152.09"/>
<polygon fill="black" stroke="black" points="106.35,-155.53 116.88,-154.35 107.91,-148.71 106.35,-155.53"/>
</g>
<!-- theory&#45;&gt;instance -->
<g id="edge18" class="edge">
<title>theory:velocity&#45;&gt;instance:cartSyst</title>
<path fill="none" stroke="black" d="M145.94,-93.98C75.61,-103.32 62.6,-132.36 106.9,-148.98"/>
<polygon fill="black" stroke="black" points="105.93,-152.35 116.52,-152.13 108.11,-145.7 105.93,-152.35"/>
</g>
<!-- theory&#45;&gt;instance -->
<g id="edge19" class="edge">
<title>theory:velocity&#45;&gt;instance:constAccel</title>
<path fill="none" stroke="black" d="M145.8,-94.98C94.35,-104.29 81.76,-127.91 108.05,-144.21"/>
<polygon fill="black" stroke="black" points="106.47,-147.34 116.96,-148.81 109.68,-141.12 106.47,-147.34"/>
</g>
<!-- theory&#45;&gt;instance -->
<g id="edge20" class="edge">
<title>theory:velocity&#45;&gt;instance:timeStartZero</title>
<path fill="none" stroke="black" d="M145.77,-96.55C112.99,-105.13 101.67,-122.1 111.81,-136.47"/>
<polygon fill="black" stroke="black" points="109.51,-139.12 119.06,-143.7 114.44,-134.16 109.51,-139.12"/>
</g>
<!-- theory&#45;&gt;instance -->
<g id="edge22" class="edge">
<title>theory:position&#45;&gt;instance:twoDMotion</title>
<path fill="none" stroke="black" d="M145.59,-99.42C124.44,-108.37 117.34,-122.95 124.3,-135.68"/>
<polygon fill="black" stroke="black" points="121.84,-138.2 130.89,-143.7 127.25,-133.75 121.84,-138.2"/>
</g>
<!-- theory&#45;&gt;instance -->
<g id="edge23" class="edge">
<title>theory:position&#45;&gt;instance:cartSyst</title>
<path fill="none" stroke="black" d="M145.89,-105.28C135.77,-113.88 132.85,-125.09 137.12,-135.19"/>
<polygon fill="black" stroke="black" points="134.3,-137.27 142.73,-143.7 140.14,-133.42 134.3,-137.27"/>
</g>
<!-- theory&#45;&gt;instance -->
<g id="edge24" class="edge">
<title>theory:position&#45;&gt;instance:constAccel</title>
<path fill="none" stroke="black" d="M154.7,-108.1C148.88,-116.04 147.3,-125.67 149.98,-134.51"/>
<polygon fill="black" stroke="black" points="146.96,-136.31 154.56,-143.7 153.23,-133.19 146.96,-136.31"/>
</g>
<!-- theory&#45;&gt;instance -->
<g id="edge25" class="edge">
<title>theory:position&#45;&gt;instance:timeStartZero</title>
<path fill="none" stroke="black" d="M166.49,-108.1C162.38,-115.96 161.23,-125.46 163.06,-134.23"/>
<polygon fill="black" stroke="black" points="159.77,-135.42 166.39,-143.7 166.37,-133.1 159.77,-135.42"/>
</g>
<!-- theory&#45;&gt;instance -->
<g id="edge27" class="edge">
<title>theory:flightduration&#45;&gt;instance:yAxisGravity</title>
<path fill="none" stroke="black" d="M178.28,-108.1C175.87,-115.79 175.16,-125.05 176.15,-133.67"/>
<polygon fill="black" stroke="black" points="172.78,-134.61 178.22,-143.7 179.63,-133.2 172.78,-134.61"/>
</g>
<!-- theory&#45;&gt;instance -->
<g id="edge28" class="edge">
<title>theory:flightduration&#45;&gt;instance:launchOrigin</title>
<path fill="none" stroke="black" d="M190.07,-108.1C189.27,-115.79 189.03,-125.05 189.36,-133.67"/>
<polygon fill="black" stroke="black" points="185.87,-133.96 190.05,-143.7 192.86,-133.48 185.87,-133.96"/>
</g>
<!-- theory&#45;&gt;instance -->
<g id="edge29" class="edge">
<title>theory:flightduration&#45;&gt;instance:targetXAxis</title>
<path fill="none" stroke="black" d="M201.86,-108.1C202.67,-115.79 202.9,-125.05 202.57,-133.67"/>
<polygon fill="black" stroke="black" points="199.08,-133.48 201.88,-143.7 206.06,-133.96 199.08,-133.48"/>
</g>
<!-- theory&#45;&gt;instance -->
<g id="edge30" class="edge">
<title>theory:flightduration&#45;&gt;instance:posXDirection</title>
<path fill="none" stroke="black" d="M213.65,-108.1C216.07,-115.79 216.78,-125.05 215.78,-133.67"/>
<polygon fill="black" stroke="black" points="212.3,-133.2 213.71,-143.7 219.16,-134.61 212.3,-133.2"/>
</g>
<!-- theory&#45;&gt;instance -->
<g id="edge31" class="edge">
<title>theory:flightduration&#45;&gt;instance:accelYGravity</title>
<path fill="none" stroke="black" d="M225.44,-108.1C229.56,-115.96 230.7,-125.46 228.87,-134.23"/>
<polygon fill="black" stroke="black" points="225.56,-133.1 225.55,-143.7 232.16,-135.42 225.56,-133.1"/>
</g>
<!-- theory&#45;&gt;instance -->
<g id="edge32" class="edge">
<title>theory:flightduration&#45;&gt;instance:timeStartZero</title>
<path fill="none" stroke="black" d="M237.23,-108.1C243.06,-116.04 244.63,-125.67 241.95,-134.51"/>
<polygon fill="black" stroke="black" points="238.7,-133.19 237.38,-143.7 244.97,-136.31 238.7,-133.19"/>
</g>
<!-- theory&#45;&gt;instance -->
<g id="edge33" class="edge">
<title>theory:flightduration&#45;&gt;instance:gravAccelValue</title>
<path fill="none" stroke="black" d="M246.04,-105.28C256.16,-113.88 259.09,-125.09 254.82,-135.19"/>
<polygon fill="black" stroke="black" points="251.79,-133.42 249.21,-143.7 257.63,-137.27 251.79,-133.42"/>
</g>
<!-- theory&#45;&gt;instance -->
<g id="edge36" class="edge">
<title>theory:landingposition&#45;&gt;instance:yAxisGravity</title>
<path fill="none" stroke="black" d="M246.34,-99.42C267.49,-108.37 274.59,-122.95 267.63,-135.68"/>
<polygon fill="black" stroke="black" points="264.69,-133.75 261.04,-143.7 270.09,-138.2 264.69,-133.75"/>
</g>
<!-- theory&#45;&gt;instance -->
<g id="edge37" class="edge">
<title>theory:landingposition&#45;&gt;instance:launchOrigin</title>
<path fill="none" stroke="black" d="M246.16,-96.55C278.94,-105.13 290.26,-122.1 280.13,-136.47"/>
<polygon fill="black" stroke="black" points="277.49,-134.16 272.87,-143.7 282.43,-139.12 277.49,-134.16"/>
</g>
<!-- theory&#45;&gt;instance -->
<g id="edge38" class="edge">
<title>theory:landingposition&#45;&gt;instance:posXDirection</title>
<path fill="none" stroke="black" d="M246.14,-94.98C297.59,-104.29 310.17,-127.91 283.89,-144.21"/>
<polygon fill="black" stroke="black" points="282.26,-141.12 274.97,-148.81 285.46,-147.34 282.26,-141.12"/>
</g>
<!-- theory&#45;&gt;instance -->
<g id="edge39" class="edge">
<title>theory:landingposition&#45;&gt;instance:accelXZero</title>
<path fill="none" stroke="black" d="M246,-93.98C316.32,-103.32 329.34,-132.36 285.03,-148.98"/>
<polygon fill="black" stroke="black" points="283.83,-145.7 275.41,-152.13 286,-152.35 283.83,-145.7"/>
</g>
<!-- theory&#45;&gt;instance -->
<g id="edge40" class="edge">
<title>theory:landingposition&#45;&gt;instance:gravAccelValue</title>
<path fill="none" stroke="black" d="M246.15,-93.35C335.12,-102.48 348.04,-135.9 284.92,-152.09"/>
<polygon fill="black" stroke="black" points="284.02,-148.71 275.05,-154.35 285.58,-155.53 284.02,-148.71"/>
</g>
<!-- theory&#45;&gt;instance -->
<g id="edge44" class="edge">
<title>theory:offset&#45;&gt;instance:posXDirection</title>
<path fill="none" stroke="black" d="M246.23,-92.9C353.28,-101.65 366.38,-138.35 285.53,-153.95"/>
<polygon fill="black" stroke="black" points="284.46,-150.58 275.21,-155.74 285.66,-157.48 284.46,-150.58"/>
</g>
<!-- theory&#45;&gt;dataDefn -->
<g id="edge34" class="edge">
<title>theory:flightduration&#45;&gt;dataDefn:iyVel</title>
<path fill="none" stroke="black" d="M190.05,-71.7C189.26,-63.98 189.03,-54.71 189.37,-46.11"/>
<polygon fill="black" stroke="black" points="192.86,-46.32 190.07,-36.1 185.88,-45.84 192.86,-46.32"/>
</g>
<!-- theory&#45;&gt;dataDefn -->
<g id="edge41" class="edge">
<title>theory:landingposition&#45;&gt;dataDefn:ixVel</title>
<path fill="none" stroke="black" d="M201.88,-71.7C202.68,-63.98 202.9,-54.71 202.56,-46.11"/>
<polygon fill="black" stroke="black" points="206.05,-45.84 201.86,-36.1 199.07,-46.32 206.05,-45.84"/>
</g>
<!-- theory&#45;&gt;theory -->
<g id="edge12" class="edge">
<title>theory:projSpeed&#45;&gt;theory:accelerationTM</title>
<path fill="none" stroke="black" d="M246.08,-91.45C256.48,-91.29 263.97,-90.81 263.97,-90 263.97,-89.49 261.04,-89.11 256.31,-88.86"/>
<polygon fill="black" stroke="black" points="256.18,-85.36 246.08,-88.55 255.97,-92.35 256.18,-85.36"/>
</g>
<!-- theory&#45;&gt;theory -->
<g id="edge15" class="edge">
<title>theory:projPos&#45;&gt;theory:velocityTM</title>
<path fill="none" stroke="black" d="M246.32,-92.99C265.79,-93.12 281.97,-92.12 281.97,-90 281.97,-88.26 271.08,-87.27 256.42,-87.05"/>
<polygon fill="black" stroke="black" points="256.33,-83.55 246.32,-87.01 256.3,-90.55 256.33,-83.55"/>
</g>
<!-- theory&#45;&gt;theory -->
<g id="edge16" class="edge">
<title>theory:projPos&#45;&gt;theory:projSpeed</title>
<path fill="none" stroke="black" d="M245.99,-94.28C274.06,-95.09 299.97,-93.67 299.97,-90 299.97,-86.78 279.95,-85.28 256.05,-85.53"/>
<polygon fill="black" stroke="black" points="255.92,-82.03 245.99,-85.72 256.06,-89.03 255.92,-82.03"/>
</g>
<!-- theory&#45;&gt;theory -->
<g id="edge21" class="edge">
<title>theory:velocity&#45;&gt;theory:projSpeed</title>
<path fill="none" stroke="black" d="M246.09,-95.35C282.1,-97.1 317.97,-95.31 317.97,-90 317.97,-85.19 288.51,-83.27 256.19,-84.25"/>
<polygon fill="black" stroke="black" points="255.95,-80.76 246.09,-84.65 256.22,-87.75 255.95,-80.76"/>
</g>
<!-- theory&#45;&gt;theory -->
<g id="edge26" class="edge">
<title>theory:position&#45;&gt;theory:projPos</title>
<path fill="none" stroke="black" d="M246.2,-96.26C289.82,-99.12 335.97,-97.03 335.97,-90 335.97,-83.5 296.59,-81.23 256.19,-83.17"/>
<polygon fill="black" stroke="black" points="255.99,-79.68 246.2,-83.74 256.39,-86.67 255.99,-79.68"/>
</g>
<!-- theory&#45;&gt;theory -->
<g id="edge35" class="edge">
<title>theory:flightduration&#45;&gt;theory:position</title>
<path fill="none" stroke="black" d="M246.12,-97.02C297.16,-101.15 353.97,-98.81 353.97,-90 353.97,-81.77 304.45,-79.19 256.35,-82.24"/>
<polygon fill="black" stroke="black" points="255.84,-78.77 246.12,-82.98 256.35,-85.75 255.84,-78.77"/>
</g>
<!-- theory&#45;&gt;theory -->
<g id="edge42" class="edge">
<title>theory:landingposition&#45;&gt;theory:position</title>
<path fill="none" stroke="black" d="M246.41,-97.71C304.58,-103.18 371.97,-100.61 371.97,-90 371.97,-80.01 312.25,-77.15 256.72,-81.41"/>
<polygon fill="black" stroke="black" points="256.08,-77.95 246.41,-82.29 256.68,-84.93 256.08,-77.95"/>
</g>
<!-- theory&#45;&gt;theory -->
<g id="edge43" class="edge">
<title>theory:landingposition&#45;&gt;theory:flightduration</title>
<path fill="none" stroke="black" d="M246.15,-98.26C311.42,-105.22 389.97,-102.47 389.97,-90 389.97,-78.16 319.2,-75.08 256.18,-80.76"/>
<polygon fill="black" stroke="black" points="255.76,-77.28 246.15,-81.74 256.44,-84.25 255.76,-77.28"/>
</g>
<!-- theory&#45;&gt;theory -->
<g id="edge45" class="edge">
<title>theory:offset&#45;&gt;theory:landingposition</title>
<path fill="none" stroke="black" d="M246,-98.74C318.22,-107.26 407.97,-104.34 407.97,-90 407.97,-76.33 326.44,-73.04 256.26,-80.14"/>
<polygon fill="black" stroke="black" points="255.56,-76.69 246,-81.26 256.32,-83.65 255.56,-76.69"/>
</g>
</g>
</svg>
