<?xml version="1.0" encoding="UTF-8" standalone="no"?>
<!DOCTYPE svg PUBLIC "-//W3C//DTD SVG 1.1//EN"
 "http://www.w3.org/Graphics/SVG/1.1/DTD/svg11.dtd">
<!-- Generated by graphviz version 2.43.0 (0)
 -->
<!-- Title: avsall Pages: 1 -->
<svg width="356pt" height="116pt"
 viewBox="0.00 0.00 356.27 116.00" xmlns="http://www.w3.org/2000/svg" xmlns:xlink="http://www.w3.org/1999/xlink">
<g id="graph0" class="graph" transform="scale(1 1) rotate(0) translate(4 112)">
<title>avsall</title>
<polygon fill="white" stroke="transparent" points="-4,4 -4,-112 352.27,-112 352.27,4 -4,4"/>
<!-- theory -->
<g id="node1" class="node">
<title>theory</title>
<polygon fill="#fff68f" stroke="black" points="230.27,-108 108.27,-108 108.27,-72 230.27,-72 230.27,-108"/>
<text text-anchor="middle" x="169.27" y="-86.3" font-family="Times,serif" font-size="14.00">IM:messageIM</text>
</g>
<!-- instance -->
<g id="node2" class="node">
<title>instance</title>
<polygon fill="ivory" stroke="black" points="236.77,-36 101.77,-36 101.77,0 236.77,0 236.77,-36"/>
<text text-anchor="middle" x="169.27" y="-14.3" font-family="Times,serif" font-size="14.00">FR:outputValues</text>
</g>
<!-- theory&#45;&gt;instance -->
<g id="edge1" class="edge">
<title>theory:projSpeed&#45;&gt;instance:pointMass</title>
<path fill="none" stroke="black" d="M108.21,-87.02C-29.5,-77.31 -35.13,-34.79 91.31,-22.4"/>
<polygon fill="black" stroke="black" points="91.81,-25.87 101.46,-21.49 91.19,-18.9 91.81,-25.87"/>
</g>
<!-- theory&#45;&gt;instance -->
<g id="edge2" class="edge">
<title>theory:projSpeed&#45;&gt;instance:timeStartZero</title>
<path fill="none" stroke="black" d="M107.84,-86.59C-11.59,-76.31 -16.99,-36.06 91.63,-23.07"/>
<polygon fill="black" stroke="black" points="92.21,-26.52 101.77,-21.97 91.45,-19.57 92.21,-26.52"/>
</g>
<!-- theory&#45;&gt;instance -->
<g id="edge3" class="edge">
<title>theory:projPos&#45;&gt;instance:pointMass</title>
<path fill="none" stroke="black" d="M108.09,-86.08C6.5,-75.31 0.98,-37.71 91.55,-24.03"/>
<polygon fill="black" stroke="black" points="92.09,-27.49 101.52,-22.67 91.14,-20.55 92.09,-27.49"/>
</g>
<!-- theory&#45;&gt;instance -->
<g id="edge4" class="edge">
<title>theory:projPos&#45;&gt;instance:timeStartZero</title>
<path fill="none" stroke="black" d="M108,-85.34C24.64,-74.05 19.09,-39.75 91.37,-25.41"/>
<polygon fill="black" stroke="black" points="92.33,-28.79 101.57,-23.6 91.11,-21.9 92.33,-28.79"/>
</g>
<!-- theory&#45;&gt;instance -->
<g id="edge5" class="edge">
<title>theory:velocity&#45;&gt;instance:twoDMotion</title>
<path fill="none" stroke="black" d="M108.15,-84.3C42.5,-72.6 37.13,-42.04 92.03,-27.26"/>
<polygon fill="black" stroke="black" points="92.84,-30.66 101.76,-24.94 91.22,-23.85 92.84,-30.66"/>
</g>
<!-- theory&#45;&gt;instance -->
<g id="edge6" class="edge">
<title>theory:velocity&#45;&gt;instance:cartSyst</title>
<path fill="none" stroke="black" d="M108.07,-82.66C60.68,-70.86 55.35,-45.33 92.07,-30.44"/>
<polygon fill="black" stroke="black" points="93.43,-33.67 101.72,-27.07 91.12,-27.06 93.43,-33.67"/>
</g>
<!-- theory&#45;&gt;instance -->
<g id="edge7" class="edge">
<title>theory:velocity&#45;&gt;instance:constAccel</title>
<path fill="none" stroke="black" d="M108.14,-79.99C78.85,-68.91 73.73,-49.86 92.79,-35.99"/>
<polygon fill="black" stroke="black" points="94.82,-38.86 101.66,-30.77 91.27,-32.83 94.82,-38.86"/>
</g>
<!-- theory&#45;&gt;instance -->
<g id="edge8" class="edge">
<title>theory:velocity&#45;&gt;instance:timeStartZero</title>
<path fill="none" stroke="black" d="M108.24,-74.83C95.3,-65.92 91.86,-54.17 97.93,-43.75"/>
<polygon fill="black" stroke="black" points="100.61,-46 104.42,-36.11 95.28,-41.47 100.61,-46"/>
</g>
<!-- theory&#45;&gt;instance -->
<g id="edge9" class="edge">
<title>theory:position&#45;&gt;instance:twoDMotion</title>
<path fill="none" stroke="black" d="M116.03,-71.7C108.4,-63.47 106.59,-53.48 110.59,-44.42"/>
<polygon fill="black" stroke="black" points="113.51,-46.35 116.22,-36.1 107.72,-42.43 113.51,-46.35"/>
</g>
<!-- theory&#45;&gt;instance -->
<g id="edge10" class="edge">
<title>theory:position&#45;&gt;instance:cartSyst</title>
<path fill="none" stroke="black" d="M127.86,-71.7C122.11,-63.73 120.61,-54.1 123.36,-45.26"/>
<polygon fill="black" stroke="black" points="126.6,-46.61 128.01,-36.1 120.36,-43.44 126.6,-46.61"/>
</g>
<!-- theory&#45;&gt;instance -->
<g id="edge11" class="edge">
<title>theory:position&#45;&gt;instance:constAccel</title>
<path fill="none" stroke="black" d="M139.7,-71.7C135.63,-63.81 134.54,-54.3 136.41,-45.55"/>
<polygon fill="black" stroke="black" points="139.72,-46.7 139.8,-36.1 133.13,-44.34 139.72,-46.7"/>
</g>
<!-- theory&#45;&gt;instance -->
<g id="edge12" class="edge">
<title>theory:position&#45;&gt;instance:timeStartZero</title>
<path fill="none" stroke="black" d="M151.53,-71.7C149.14,-63.98 148.46,-54.71 149.49,-46.11"/>
<polygon fill="black" stroke="black" points="152.96,-46.61 151.59,-36.1 146.11,-45.17 152.96,-46.61"/>
</g>
<!-- theory&#45;&gt;instance -->
<g id="edge13" class="edge">
<title>theory:flightduration&#45;&gt;instance:yAxisGravity</title>
<path fill="none" stroke="black" d="M163.36,-71.7C162.56,-63.98 162.34,-54.71 162.68,-46.11"/>
<polygon fill="black" stroke="black" points="166.17,-46.32 163.38,-36.1 159.19,-45.84 166.17,-46.32"/>
</g>
<!-- theory&#45;&gt;instance -->
<g id="edge14" class="edge">
<title>theory:flightduration&#45;&gt;instance:launchOrigin</title>
<path fill="none" stroke="black" d="M175.19,-71.7C175.99,-63.98 176.21,-54.71 175.87,-46.11"/>
<polygon fill="black" stroke="black" points="179.36,-45.84 175.17,-36.1 172.38,-46.32 179.36,-45.84"/>
</g>
<!-- theory&#45;&gt;instance -->
<g id="edge15" class="edge">
<title>theory:flightduration&#45;&gt;instance:targetXAxis</title>
<path fill="none" stroke="black" d="M187.02,-71.7C189.41,-63.98 190.09,-54.71 189.06,-46.11"/>
<polygon fill="black" stroke="black" points="192.44,-45.17 186.96,-36.1 185.59,-46.61 192.44,-45.17"/>
</g>
<!-- theory&#45;&gt;instance -->
<g id="edge16" class="edge">
<title>theory:flightduration&#45;&gt;instance:posXDirection</title>
<path fill="none" stroke="black" d="M198.85,-71.7C202.92,-63.81 204.01,-54.3 202.13,-45.55"/>
<polygon fill="black" stroke="black" points="205.42,-44.34 198.75,-36.1 198.83,-46.7 205.42,-44.34"/>
</g>
<!-- theory&#45;&gt;instance -->
<g id="edge17" class="edge">
<title>theory:flightduration&#45;&gt;instance:accelYGravity</title>
<path fill="none" stroke="black" d="M210.68,-71.7C216.44,-63.73 217.94,-54.1 215.19,-45.26"/>
<polygon fill="black" stroke="black" points="218.19,-43.44 210.54,-36.1 211.95,-46.61 218.19,-43.44"/>
</g>
<!-- theory&#45;&gt;instance -->
<g id="edge18" class="edge">
<title>theory:flightduration&#45;&gt;instance:timeStartZero</title>
<path fill="none" stroke="black" d="M222.52,-71.7C230.15,-63.47 231.96,-53.48 227.95,-44.42"/>
<polygon fill="black" stroke="black" points="230.83,-42.43 222.33,-36.1 225.03,-46.35 230.83,-42.43"/>
</g>
<!-- theory&#45;&gt;instance -->
<g id="edge19" class="edge">
<title>theory:flightduration&#45;&gt;instance:gravAccelValue</title>
<path fill="none" stroke="black" d="M230.31,-74.83C243.25,-65.92 246.69,-54.17 240.62,-43.75"/>
<polygon fill="black" stroke="black" points="243.27,-41.47 234.13,-36.11 237.94,-46 243.27,-41.47"/>
</g>
<!-- theory&#45;&gt;instance -->
<g id="edge20" class="edge">
<title>theory:landingposition&#45;&gt;instance:yAxisGravity</title>
<path fill="none" stroke="black" d="M230.4,-79.99C259.7,-68.91 264.81,-49.86 245.76,-35.99"/>
<polygon fill="black" stroke="black" points="247.28,-32.83 236.89,-30.77 243.73,-38.86 247.28,-32.83"/>
</g>
<!-- theory&#45;&gt;instance -->
<g id="edge21" class="edge">
<title>theory:landingposition&#45;&gt;instance:launchOrigin</title>
<path fill="none" stroke="black" d="M230.48,-82.66C277.86,-70.86 283.2,-45.33 246.47,-30.44"/>
<polygon fill="black" stroke="black" points="247.43,-27.06 236.83,-27.07 245.12,-33.67 247.43,-27.06"/>
</g>
<!-- theory&#45;&gt;instance -->
<g id="edge22" class="edge">
<title>theory:landingposition&#45;&gt;instance:posXDirection</title>
<path fill="none" stroke="black" d="M230.4,-84.3C296.05,-72.6 301.42,-42.04 246.52,-27.26"/>
<polygon fill="black" stroke="black" points="247.33,-23.85 236.79,-24.94 245.71,-30.66 247.33,-23.85"/>
</g>
<!-- theory&#45;&gt;instance -->
<g id="edge23" class="edge">
<title>theory:landingposition&#45;&gt;instance:accelXZero</title>
<path fill="none" stroke="black" d="M230.55,-85.34C313.91,-74.05 319.45,-39.75 247.18,-25.41"/>
<polygon fill="black" stroke="black" points="247.43,-21.9 236.98,-23.6 246.21,-28.79 247.43,-21.9"/>
</g>
<!-- theory&#45;&gt;instance -->
<g id="edge24" class="edge">
<title>theory:landingposition&#45;&gt;instance:gravAccelValue</title>
<path fill="none" stroke="black" d="M230.46,-86.08C332.05,-75.31 337.56,-37.71 247,-24.03"/>
<polygon fill="black" stroke="black" points="247.41,-20.55 237.02,-22.67 246.46,-27.49 247.41,-20.55"/>
</g>
<!-- theory&#45;&gt;instance -->
<g id="edge25" class="edge">
<title>theory:offset&#45;&gt;instance:posXDirection</title>
<path fill="none" stroke="black" d="M230.71,-86.59C350.13,-76.31 355.54,-36.06 246.92,-23.07"/>
<polygon fill="black" stroke="black" points="247.1,-19.57 236.78,-21.97 246.34,-26.52 247.1,-19.57"/>
</g>
<!-- theory&#45;&gt;instance -->
<g id="edge26" class="edge">
<title>theory:outputMessage&#45;&gt;instance:posXDirection</title>
<path fill="none" stroke="black" d="M230.34,-87.02C368.04,-77.31 373.68,-34.79 247.24,-22.4"/>
<polygon fill="black" stroke="black" points="247.36,-18.9 237.09,-21.49 246.74,-25.87 247.36,-18.9"/>
</g>
<!-- dataDefn -->
<g id="node3" class="node">
<title>dataDefn</title>
<polygon fill="#bbffff" stroke="black" points="348.27,-108 248.27,-108 248.27,-72 348.27,-72 348.27,-108"/>
<text text-anchor="middle" x="298.27" y="-86.3" font-family="Times,serif" font-size="14.00">DD:speedIY</text>
</g>
</g>
</svg>
