<?xml version="1.0" encoding="UTF-8" standalone="no"?>
<!DOCTYPE svg PUBLIC "-//W3C//DTD SVG 1.1//EN"
 "http://www.w3.org/Graphics/SVG/1.1/DTD/svg11.dtd">
<!-- Generated by graphviz version 2.43.0 (0)
 -->
<!-- Title: avsall Pages: 1 -->
<svg width="339pt" height="116pt"
 viewBox="0.00 0.00 338.58 116.00" xmlns="http://www.w3.org/2000/svg" xmlns:xlink="http://www.w3.org/1999/xlink">
<g id="graph0" class="graph" transform="scale(1 1) rotate(0) translate(4 112)">
<title>avsall</title>
<polygon fill="white" stroke="transparent" points="-4,4 -4,-112 334.58,-112 334.58,4 -4,4"/>
<!-- theory -->
<g id="node1" class="node">
<title>theory</title>
<polygon fill="#fff68f" stroke="black" points="212.58,-108 112.58,-108 112.58,-72 212.58,-72 212.58,-108"/>
<text text-anchor="middle" x="162.58" y="-86.3" font-family="Times,serif" font-size="14.00">IM:offsetIM</text>
</g>
<!-- instance -->
<g id="node2" class="node">
<title>instance</title>
<polygon fill="lavender" stroke="black" points="241.58,-36 83.58,-36 83.58,0 241.58,0 241.58,-36"/>
<text text-anchor="middle" x="162.58" y="-14.3" font-family="Times,serif" font-size="14.00">LC:considerAirDrag</text>
</g>
<!-- theory&#45;&gt;instance -->
<g id="edge1" class="edge">
<title>theory:projSpeed&#45;&gt;instance:pointMass</title>
<path fill="none" stroke="black" d="M112.47,-87.59C-22.29,-79.46 -35.32,-38.54 73.39,-24.08"/>
<polygon fill="black" stroke="black" points="74.06,-27.52 83.56,-22.84 73.21,-20.57 74.06,-27.52"/>
</g>
<!-- theory&#45;&gt;instance -->
<g id="edge2" class="edge">
<title>theory:projSpeed&#45;&gt;instance:timeStartZero</title>
<path fill="none" stroke="black" d="M112.12,-87.27C-4.08,-78.68 -16.98,-40.42 73.41,-25.24"/>
<polygon fill="black" stroke="black" points="74.03,-28.68 83.39,-23.71 72.98,-21.76 74.03,-28.68"/>
</g>
<!-- theory&#45;&gt;instance -->
<g id="edge3" class="edge">
<title>theory:projPos&#45;&gt;instance:pointMass</title>
<path fill="none" stroke="black" d="M112.47,-86.91C14.41,-77.98 1.31,-42.85 73.17,-26.93"/>
<polygon fill="black" stroke="black" points="74.24,-30.28 83.36,-24.9 72.87,-23.42 74.24,-30.28"/>
</g>
<!-- theory&#45;&gt;instance -->
<g id="edge4" class="edge">
<title>theory:projPos&#45;&gt;instance:timeStartZero</title>
<path fill="none" stroke="black" d="M112.3,-86.34C32.85,-77.06 19.88,-45.79 73.37,-29.33"/>
<polygon fill="black" stroke="black" points="74.59,-32.63 83.32,-26.63 72.76,-25.87 74.59,-32.63"/>
</g>
<!-- theory&#45;&gt;instance -->
<g id="edge5" class="edge">
<title>theory:velocity&#45;&gt;instance:twoDMotion</title>
<path fill="none" stroke="black" d="M112.52,-85.58C51.56,-76.2 38.71,-49.7 73.95,-33.1"/>
<polygon fill="black" stroke="black" points="75.39,-36.29 83.35,-29.31 72.77,-29.8 75.39,-36.29"/>
</g>
<!-- theory&#45;&gt;instance -->
<g id="edge6" class="edge">
<title>theory:velocity&#45;&gt;instance:cartSyst</title>
<path fill="none" stroke="black" d="M112.5,-84.35C70.95,-75.43 58.55,-55.41 75.3,-39.86"/>
<polygon fill="black" stroke="black" points="77.45,-42.62 83.52,-33.94 73.36,-36.95 77.45,-42.62"/>
</g>
<!-- theory&#45;&gt;instance -->
<g id="edge7" class="edge">
<title>theory:velocity&#45;&gt;instance:constAccel</title>
<path fill="none" stroke="black" d="M112.44,-82.29C85.08,-73.4 75.92,-57.23 84.94,-43.46"/>
<polygon fill="black" stroke="black" points="87.54,-45.8 91.83,-36.12 82.43,-41.01 87.54,-45.8"/>
</g>
<!-- theory&#45;&gt;instance -->
<g id="edge8" class="edge">
<title>theory:velocity&#45;&gt;instance:timeStartZero</title>
<path fill="none" stroke="black" d="M112.49,-78.37C96.57,-69.32 91.57,-55.96 97.49,-44.2"/>
<polygon fill="black" stroke="black" points="100.46,-46.08 103.73,-36.01 94.89,-41.84 100.46,-46.08"/>
</g>
<!-- theory&#45;&gt;instance -->
<g id="edge9" class="edge">
<title>theory:position&#45;&gt;instance:twoDMotion</title>
<path fill="none" stroke="black" d="M115.26,-71.7C108.54,-63.56 106.89,-53.69 110.31,-44.7"/>
<polygon fill="black" stroke="black" points="113.32,-46.49 115.42,-36.1 107.3,-42.91 113.32,-46.49"/>
</g>
<!-- theory&#45;&gt;instance -->
<g id="edge10" class="edge">
<title>theory:position&#45;&gt;instance:cartSyst</title>
<path fill="none" stroke="black" d="M127.09,-71.7C122.21,-63.81 120.9,-54.3 123.15,-45.55"/>
<polygon fill="black" stroke="black" points="126.48,-46.67 127.21,-36.1 120.05,-43.91 126.48,-46.67"/>
</g>
<!-- theory&#45;&gt;instance -->
<g id="edge11" class="edge">
<title>theory:position&#45;&gt;instance:constAccel</title>
<path fill="none" stroke="black" d="M138.92,-71.7C135.7,-63.9 134.81,-54.51 136.25,-45.83"/>
<polygon fill="black" stroke="black" points="139.64,-46.68 139,-36.1 132.91,-44.77 139.64,-46.68"/>
</g>
<!-- theory&#45;&gt;instance -->
<g id="edge12" class="edge">
<title>theory:position&#45;&gt;instance:timeStartZero</title>
<path fill="none" stroke="black" d="M150.75,-71.7C149.16,-63.98 148.71,-54.71 149.39,-46.11"/>
<polygon fill="black" stroke="black" points="152.87,-46.49 150.79,-36.1 145.94,-45.52 152.87,-46.49"/>
</g>
<!-- theory&#45;&gt;instance -->
<g id="edge13" class="edge">
<title>theory:flightduration&#45;&gt;instance:yAxisGravity</title>
<path fill="none" stroke="black" d="M162.58,-71.7C162.58,-63.98 162.58,-54.71 162.58,-46.11"/>
<polygon fill="black" stroke="black" points="166.08,-46.1 162.58,-36.1 159.08,-46.1 166.08,-46.1"/>
</g>
<!-- theory&#45;&gt;instance -->
<g id="edge14" class="edge">
<title>theory:flightduration&#45;&gt;instance:launchOrigin</title>
<path fill="none" stroke="black" d="M174.41,-71.7C176.01,-63.98 176.46,-54.71 175.77,-46.11"/>
<polygon fill="black" stroke="black" points="179.23,-45.52 174.37,-36.1 172.29,-46.49 179.23,-45.52"/>
</g>
<!-- theory&#45;&gt;instance -->
<g id="edge15" class="edge">
<title>theory:flightduration&#45;&gt;instance:targetXAxis</title>
<path fill="none" stroke="black" d="M186.25,-71.7C189.46,-63.9 190.35,-54.51 188.92,-45.83"/>
<polygon fill="black" stroke="black" points="192.26,-44.77 186.16,-36.1 185.52,-46.68 192.26,-44.77"/>
</g>
<!-- theory&#45;&gt;instance -->
<g id="edge16" class="edge">
<title>theory:flightduration&#45;&gt;instance:posXDirection</title>
<path fill="none" stroke="black" d="M198.08,-71.7C202.96,-63.81 204.27,-54.3 202.01,-45.55"/>
<polygon fill="black" stroke="black" points="205.12,-43.91 197.95,-36.1 198.69,-46.67 205.12,-43.91"/>
</g>
<!-- theory&#45;&gt;instance -->
<g id="edge17" class="edge">
<title>theory:flightduration&#45;&gt;instance:accelYGravity</title>
<path fill="none" stroke="black" d="M209.91,-71.7C216.62,-63.56 218.27,-53.69 214.85,-44.7"/>
<polygon fill="black" stroke="black" points="217.86,-42.91 209.74,-36.1 211.84,-46.49 217.86,-42.91"/>
</g>
<!-- theory&#45;&gt;instance -->
<g id="edge18" class="edge">
<title>theory:flightduration&#45;&gt;instance:timeStartZero</title>
<path fill="none" stroke="black" d="M212.68,-78.37C228.6,-69.32 233.6,-55.96 227.67,-44.2"/>
<polygon fill="black" stroke="black" points="230.28,-41.84 221.43,-36.01 224.71,-46.08 230.28,-41.84"/>
</g>
<!-- theory&#45;&gt;instance -->
<g id="edge19" class="edge">
<title>theory:flightduration&#45;&gt;instance:gravAccelValue</title>
<path fill="none" stroke="black" d="M212.73,-82.29C240.09,-73.4 249.25,-57.23 240.22,-43.46"/>
<polygon fill="black" stroke="black" points="242.73,-41.01 233.34,-36.12 237.63,-45.8 242.73,-41.01"/>
</g>
<!-- theory&#45;&gt;instance -->
<g id="edge20" class="edge">
<title>theory:landingposition&#45;&gt;instance:yAxisGravity</title>
<path fill="none" stroke="black" d="M212.67,-84.35C254.22,-75.43 266.61,-55.41 249.86,-39.86"/>
<polygon fill="black" stroke="black" points="251.81,-36.95 241.65,-33.94 247.72,-42.62 251.81,-36.95"/>
</g>
<!-- theory&#45;&gt;instance -->
<g id="edge21" class="edge">
<title>theory:landingposition&#45;&gt;instance:launchOrigin</title>
<path fill="none" stroke="black" d="M212.65,-85.58C273.6,-76.2 286.46,-49.7 251.22,-33.1"/>
<polygon fill="black" stroke="black" points="252.4,-29.8 241.81,-29.31 249.78,-36.29 252.4,-29.8"/>
</g>
<!-- theory&#45;&gt;instance -->
<g id="edge22" class="edge">
<title>theory:landingposition&#45;&gt;instance:posXDirection</title>
<path fill="none" stroke="black" d="M212.86,-86.34C292.31,-77.06 305.29,-45.79 251.79,-29.33"/>
<polygon fill="black" stroke="black" points="252.41,-25.87 241.84,-26.63 250.58,-32.63 252.41,-25.87"/>
</g>
<!-- theory&#45;&gt;instance -->
<g id="edge23" class="edge">
<title>theory:landingposition&#45;&gt;instance:accelXZero</title>
<path fill="none" stroke="black" d="M212.69,-86.91C310.76,-77.98 323.86,-42.85 251.99,-26.93"/>
<polygon fill="black" stroke="black" points="252.29,-23.42 241.8,-24.9 250.93,-30.28 252.29,-23.42"/>
</g>
<!-- theory&#45;&gt;instance -->
<g id="edge24" class="edge">
<title>theory:landingposition&#45;&gt;instance:gravAccelValue</title>
<path fill="none" stroke="black" d="M213.05,-87.27C329.25,-78.68 342.15,-40.42 251.76,-25.24"/>
<polygon fill="black" stroke="black" points="252.19,-21.76 241.78,-23.71 251.13,-28.68 252.19,-21.76"/>
</g>
<!-- theory&#45;&gt;instance -->
<g id="edge25" class="edge">
<title>theory:offset&#45;&gt;instance:posXDirection</title>
<path fill="none" stroke="black" d="M212.7,-87.59C347.46,-79.46 360.48,-38.54 251.78,-24.08"/>
<polygon fill="black" stroke="black" points="251.95,-20.57 241.61,-22.84 251.11,-27.52 251.95,-20.57"/>
</g>
<!-- instance&#45;&gt;instance -->
<g id="edge26" class="edge">
<title>instance:considerAirDrag&#45;&gt;instance:neglectDrag</title>
<path fill="none" stroke="black" d="M241.75,-8.71C252.45,-12.05 259.58,-18.04 259.58,-27 259.58,-48.09 252.26,-52.71 246.19,-45.13"/>
<polygon fill="black" stroke="black" points="249.21,-43.35 241.58,-36 242.96,-46.5 249.21,-43.35"/>
</g>
<!-- dataDefn -->
<g id="node3" class="node">
<title>dataDefn</title>
<polygon fill="#bbffff" stroke="black" points="330.58,-108 230.58,-108 230.58,-72 330.58,-72 330.58,-108"/>
<text text-anchor="middle" x="280.58" y="-86.3" font-family="Times,serif" font-size="14.00">DD:speedIY</text>
</g>
</g>
</svg>
