<?xml version="1.0" encoding="UTF-8" standalone="no"?>
<!DOCTYPE svg PUBLIC "-//W3C//DTD SVG 1.1//EN"
 "http://www.w3.org/Graphics/SVG/1.1/DTD/svg11.dtd">
<!-- Generated by graphviz version 2.43.0 (0)
 -->
<!-- Title: allvsall Pages: 1 -->
<svg width="348pt" height="188pt"
 viewBox="0.00 0.00 347.84 188.00" xmlns="http://www.w3.org/2000/svg" xmlns:xlink="http://www.w3.org/1999/xlink">
<g id="graph0" class="graph" transform="scale(1 1) rotate(0) translate(4 184)">
<title>allvsall</title>
<polygon fill="white" stroke="transparent" points="-4,4 -4,-184 343.84,-184 343.84,4 -4,4"/>
<!-- instance -->
<g id="node1" class="node">
<title>instance</title>
<polygon fill="lavender" stroke="black" points="158,-180 0,-180 0,-144 158,-144 158,-180"/>
<text text-anchor="middle" x="79" y="-158.3" font-family="Times,serif" font-size="14.00">UC:accAlteredGlass</text>
</g>
<!-- instance&#45;&gt;instance -->
<g id="edge1" class="edge">
<title>instance:assumpLDFC&#45;&gt;instance:assumpSV</title>
<path fill="none" stroke="black" d="M158.16,-163.33C168.87,-163.11 176,-162.66 176,-162 176,-161.58 173.22,-161.26 168.51,-161.01"/>
<polygon fill="black" stroke="black" points="168.27,-157.5 158.16,-160.67 168.04,-164.5 168.27,-157.5"/>
</g>
<!-- instance&#45;&gt;instance -->
<g id="edge31" class="edge">
<title>instance:outputValsAndKnownValues&#45;&gt;instance:inputValues</title>
<path fill="none" stroke="black" d="M158.01,-164.97C178.53,-164.79 194,-163.8 194,-162 194,-160.51 183.39,-159.58 168.09,-159.2"/>
<polygon fill="black" stroke="black" points="168.07,-155.7 158.01,-159.03 167.95,-162.69 168.07,-155.7"/>
</g>
<!-- instance&#45;&gt;instance -->
<g id="edge32" class="edge">
<title>instance:outputValsAndKnownValues&#45;&gt;instance:sysSetValsFollowingAssumps</title>
<path fill="none" stroke="black" d="M158.19,-166.49C187.71,-166.64 212,-165.14 212,-162 212,-159.23 193.07,-157.74 168.32,-157.53"/>
<polygon fill="black" stroke="black" points="168.2,-154.03 158.19,-157.51 168.19,-161.03 168.2,-154.03"/>
</g>
<!-- instance&#45;&gt;instance -->
<g id="edge35" class="edge">
<title>instance:calcInternalBlastRisk&#45;&gt;instance:assumpES</title>
<path fill="none" stroke="black" d="M158.24,-167.85C196.35,-168.58 230,-166.62 230,-162 230,-157.79 202.13,-155.8 168.38,-156.02"/>
<polygon fill="black" stroke="black" points="168.19,-152.52 158.24,-156.15 168.28,-159.52 168.19,-152.52"/>
</g>
<!-- instance&#45;&gt;instance -->
<g id="edge36" class="edge">
<title>instance:varValsOfmkE&#45;&gt;instance:assumpSV</title>
<path fill="none" stroke="black" d="M158.1,-169.06C204.54,-170.56 248,-168.21 248,-162 248,-156.24 210.59,-153.8 168.11,-154.67"/>
<polygon fill="black" stroke="black" points="168.01,-151.18 158.1,-154.94 168.19,-158.17 168.01,-151.18"/>
</g>
<!-- instance&#45;&gt;instance -->
<g id="edge37" class="edge">
<title>instance:varValsOfmkE&#45;&gt;instance:assumpLDFC</title>
<path fill="none" stroke="black" d="M158.27,-170.14C212.63,-172.57 266,-169.85 266,-162 266,-154.64 219.09,-151.79 168.44,-153.46"/>
<polygon fill="black" stroke="black" points="168.13,-149.97 158.27,-153.86 168.4,-156.97 168.13,-149.97"/>
</g>
<!-- instance&#45;&gt;instance -->
<g id="edge38" class="edge">
<title>instance:accMoreThanSingleLite&#45;&gt;instance:assumpGL</title>
<path fill="none" stroke="black" d="M158.16,-171.1C220.32,-174.59 284,-171.56 284,-162 284,-152.97 227.09,-149.76 168.36,-152.39"/>
<polygon fill="black" stroke="black" points="167.97,-148.9 158.16,-152.9 168.32,-155.89 167.97,-148.9"/>
</g>
<!-- instance&#45;&gt;instance -->
<g id="edge39" class="edge">
<title>instance:accMoreBoundaryConditions&#45;&gt;instance:assumpBC</title>
<path fill="none" stroke="black" d="M158.15,-171.96C227.89,-176.62 302,-173.3 302,-162 302,-151.25 234.95,-147.73 168.39,-151.41"/>
<polygon fill="black" stroke="black" points="167.92,-147.94 158.15,-152.04 168.35,-154.92 167.92,-147.94"/>
</g>
<!-- instance&#45;&gt;instance -->
<g id="edge40" class="edge">
<title>instance:considerMoreThanFlexGlass&#45;&gt;instance:assumpRT</title>
<path fill="none" stroke="black" d="M158.3,-172.75C235.41,-178.64 320,-175.06 320,-162 320,-149.53 242.84,-145.7 168.73,-150.51"/>
<polygon fill="black" stroke="black" points="168.03,-147.05 158.3,-151.25 168.52,-154.03 168.03,-147.05"/>
</g>
<!-- instance&#45;&gt;instance -->
<g id="edge41" class="edge">
<title>instance:accAlteredGlass&#45;&gt;instance:assumpGC</title>
<path fill="none" stroke="black" d="M158.22,-173.45C242.64,-180.68 338,-176.86 338,-162 338,-147.75 250.3,-143.65 168.65,-149.71"/>
<polygon fill="black" stroke="black" points="167.91,-146.26 158.22,-150.55 168.46,-153.24 167.91,-146.26"/>
</g>
<!-- theory -->
<g id="node3" class="node">
<title>theory</title>
<polygon fill="#fff68f" stroke="black" points="131,-108 27,-108 27,-72 131,-72 131,-108"/>
<text text-anchor="middle" x="79" y="-86.3" font-family="Times,serif" font-size="14.00">IM:isSafeLR</text>
</g>
<!-- instance&#45;&gt;theory -->
<g id="edge33" class="edge">
<title>instance:checkGlassSafety&#45;&gt;theory:isSafePb</title>
<path fill="none" stroke="black" d="M55.34,-143.7C52.12,-135.9 51.23,-126.51 52.66,-117.83"/>
<polygon fill="black" stroke="black" points="56.06,-118.68 55.42,-108.1 49.33,-116.77 56.06,-118.68"/>
</g>
<!-- instance&#45;&gt;theory -->
<g id="edge34" class="edge">
<title>instance:checkGlassSafety&#45;&gt;theory:isSafeLR</title>
<path fill="none" stroke="black" d="M102.66,-143.7C105.88,-135.9 106.77,-126.51 105.34,-117.83"/>
<polygon fill="black" stroke="black" points="108.67,-116.77 102.58,-108.1 101.94,-118.68 108.67,-116.77"/>
</g>
<!-- dataDefn -->
<g id="node2" class="node">
<title>dataDefn</title>
<polygon fill="#bbffff" stroke="black" points="147.5,-36 10.5,-36 10.5,0 147.5,0 147.5,-36"/>
<text text-anchor="middle" x="79" y="-14.3" font-family="Times,serif" font-size="14.00">DD:calofDemand</text>
</g>
<!-- dataDefn&#45;&gt;instance -->
<g id="edge2" class="edge">
<title>dataDefn:loadDurFactor&#45;&gt;instance:assumpSV</title>
<path fill="none" stroke="black" d="M147.6,-22.04C232.29,-28.36 359.35,-47.86 311,-108 292.74,-130.72 225.79,-144.26 168.43,-151.96"/>
<polygon fill="black" stroke="black" points="167.69,-148.53 158.22,-153.29 168.59,-155.47 167.69,-148.53"/>
</g>
<!-- dataDefn&#45;&gt;instance -->
<g id="edge3" class="edge">
<title>dataDefn:loadDurFactor&#45;&gt;instance:assumpLDFC</title>
<path fill="none" stroke="black" d="M147.78,-21.24C238.16,-26.64 379.58,-45.08 329,-108 309.16,-132.68 231.86,-146.53 168.35,-153.83"/>
<polygon fill="black" stroke="black" points="167.84,-150.36 158.28,-154.94 168.61,-157.32 167.84,-150.36"/>
</g>
<!-- dataDefn&#45;&gt;dataDefn -->
<g id="edge4" class="edge">
<title>dataDefn:demandq&#45;&gt;dataDefn:stdOffDist</title>
<path fill="none" stroke="black" d="M147.53,-24.19C158.21,-23.26 165.5,-21.2 165.5,-18 165.5,-15.95 162.51,-14.37 157.55,-13.25"/>
<polygon fill="black" stroke="black" points="157.92,-9.77 147.53,-11.81 156.93,-16.7 157.92,-9.77"/>
</g>
<!-- dataDefn&#45;&gt;dataDefn -->
<g id="edge5" class="edge">
<title>dataDefn:demandq&#45;&gt;dataDefn:eqTNTChar</title>
<path fill="none" stroke="black" d="M147.84,-31.46C167.94,-30.99 183.5,-26.51 183.5,-18 183.5,-11.02 173.03,-6.75 158.17,-5.18"/>
<polygon fill="black" stroke="black" points="158.04,-1.67 147.84,-4.54 157.61,-8.65 158.04,-1.67"/>
</g>
<!-- theory&#45;&gt;instance -->
<g id="edge11" class="edge">
<title>theory:nFL&#45;&gt;instance:assumpSV</title>
<path fill="none" stroke="black" d="M67.21,-108.1C65.6,-115.79 65.13,-125.05 65.79,-133.67"/>
<polygon fill="black" stroke="black" points="62.34,-134.27 67.17,-143.7 69.28,-133.31 62.34,-134.27"/>
</g>
<!-- theory&#45;&gt;instance -->
<g id="edge14" class="edge">
<title>theory:dimlessLoad&#45;&gt;instance:assumpSV</title>
<path fill="none" stroke="black" d="M79,-108.1C79,-115.79 79,-125.05 79,-133.67"/>
<polygon fill="black" stroke="black" points="75.5,-133.7 79,-143.7 82.5,-133.7 75.5,-133.7"/>
</g>
<!-- theory&#45;&gt;instance -->
<g id="edge20" class="edge">
<title>theory:sdfTol&#45;&gt;instance:assumpSV</title>
<path fill="none" stroke="black" d="M90.79,-108.1C92.4,-115.79 92.87,-125.05 92.21,-133.67"/>
<polygon fill="black" stroke="black" points="88.72,-133.31 90.83,-143.7 95.66,-134.27 88.72,-133.31"/>
</g>
<!-- theory&#45;&gt;dataDefn -->
<g id="edge6" class="edge">
<title>theory:riskFun&#45;&gt;dataDefn:minThick</title>
<path fill="none" stroke="black" d="M26.96,-79.85C6.96,-70.79 0.47,-56.51 7.48,-44.06"/>
<polygon fill="black" stroke="black" points="10.3,-46.14 14.03,-36.22 4.93,-41.65 10.3,-46.14"/>
</g>
<!-- theory&#45;&gt;dataDefn -->
<g id="edge7" class="edge">
<title>theory:riskFun&#45;&gt;dataDefn:loadDurFactor</title>
<path fill="none" stroke="black" d="M26.79,-72.76C18.3,-64.35 16.14,-53.89 20.31,-44.44"/>
<polygon fill="black" stroke="black" points="23.23,-46.37 25.93,-36.12 17.43,-42.45 23.23,-46.37"/>
</g>
<!-- theory&#45;&gt;dataDefn -->
<g id="edge9" class="edge">
<title>theory:stressDistFac&#45;&gt;dataDefn:aR</title>
<path fill="none" stroke="black" d="M37.59,-71.7C31.84,-63.73 30.33,-54.1 33.08,-45.26"/>
<polygon fill="black" stroke="black" points="36.33,-46.61 37.73,-36.1 30.09,-43.44 36.33,-46.61"/>
</g>
<!-- theory&#45;&gt;dataDefn -->
<g id="edge12" class="edge">
<title>theory:nFL&#45;&gt;dataDefn:minThick</title>
<path fill="none" stroke="black" d="M49.42,-71.7C45.36,-63.81 44.26,-54.3 46.14,-45.55"/>
<polygon fill="black" stroke="black" points="49.45,-46.7 49.52,-36.1 42.86,-44.34 49.45,-46.7"/>
</g>
<!-- theory&#45;&gt;dataDefn -->
<g id="edge15" class="edge">
<title>theory:dimlessLoad&#45;&gt;dataDefn:minThick</title>
<path fill="none" stroke="black" d="M61.25,-71.7C58.87,-63.98 58.19,-54.71 59.21,-46.11"/>
<polygon fill="black" stroke="black" points="62.69,-46.61 61.31,-36.1 55.84,-45.17 62.69,-46.61"/>
</g>
<!-- theory&#45;&gt;dataDefn -->
<g id="edge16" class="edge">
<title>theory:dimlessLoad&#45;&gt;dataDefn:glassTypeFac</title>
<path fill="none" stroke="black" d="M73.08,-71.7C72.29,-63.98 72.06,-54.71 72.4,-46.11"/>
<polygon fill="black" stroke="black" points="75.9,-46.32 73.1,-36.1 68.92,-45.84 75.9,-46.32"/>
</g>
<!-- theory&#45;&gt;dataDefn -->
<g id="edge17" class="edge">
<title>theory:dimlessLoad&#45;&gt;dataDefn:demandq</title>
<path fill="none" stroke="black" d="M84.92,-71.7C85.71,-63.98 85.94,-54.71 85.6,-46.11"/>
<polygon fill="black" stroke="black" points="89.08,-45.84 84.9,-36.1 82.1,-46.32 89.08,-45.84"/>
</g>
<!-- theory&#45;&gt;dataDefn -->
<g id="edge18" class="edge">
<title>theory:tolLoad&#45;&gt;dataDefn:aR</title>
<path fill="none" stroke="black" d="M96.75,-71.7C99.13,-63.98 99.81,-54.71 98.79,-46.11"/>
<polygon fill="black" stroke="black" points="102.16,-45.17 96.69,-36.1 95.31,-46.61 102.16,-45.17"/>
</g>
<!-- theory&#45;&gt;dataDefn -->
<g id="edge21" class="edge">
<title>theory:sdfTol&#45;&gt;dataDefn:minThick</title>
<path fill="none" stroke="black" d="M108.58,-71.7C112.64,-63.81 113.74,-54.3 111.86,-45.55"/>
<polygon fill="black" stroke="black" points="115.14,-44.34 108.48,-36.1 108.55,-46.7 115.14,-44.34"/>
</g>
<!-- theory&#45;&gt;dataDefn -->
<g id="edge22" class="edge">
<title>theory:sdfTol&#45;&gt;dataDefn:loadDurFactor</title>
<path fill="none" stroke="black" d="M120.41,-71.7C126.16,-63.73 127.67,-54.1 124.92,-45.26"/>
<polygon fill="black" stroke="black" points="127.91,-43.44 120.27,-36.1 121.67,-46.61 127.91,-43.44"/>
</g>
<!-- theory&#45;&gt;dataDefn -->
<g id="edge24" class="edge">
<title>theory:lResistance&#45;&gt;dataDefn:glassTypeFac</title>
<path fill="none" stroke="black" d="M131.21,-72.76C139.7,-64.35 141.86,-53.89 137.69,-44.44"/>
<polygon fill="black" stroke="black" points="140.57,-42.45 132.07,-36.12 134.77,-46.37 140.57,-42.45"/>
</g>
<!-- theory&#45;&gt;dataDefn -->
<g id="edge28" class="edge">
<title>theory:isSafeLR&#45;&gt;dataDefn:demandq</title>
<path fill="none" stroke="black" d="M131.04,-79.85C151.04,-70.79 157.53,-56.51 150.52,-44.06"/>
<polygon fill="black" stroke="black" points="153.07,-41.65 143.97,-36.22 147.7,-46.14 153.07,-41.65"/>
</g>
<!-- theory&#45;&gt;theory -->
<g id="edge8" class="edge">
<title>theory:riskFun&#45;&gt;theory:stressDistFac</title>
<path fill="none" stroke="black" d="M131.2,-91.44C141.59,-91.28 149,-90.8 149,-90 149,-89.5 146.11,-89.13 141.4,-88.88"/>
<polygon fill="black" stroke="black" points="141.31,-85.37 131.2,-88.56 141.09,-92.37 141.31,-85.37"/>
</g>
<!-- theory&#45;&gt;theory -->
<g id="edge10" class="edge">
<title>theory:stressDistFac&#45;&gt;theory:dimlessLoad</title>
<path fill="none" stroke="black" d="M131.4,-92.99C150.93,-93.09 167,-92.09 167,-90 167,-88.28 156.18,-87.3 141.52,-87.06"/>
<polygon fill="black" stroke="black" points="141.42,-83.56 131.4,-87.01 141.38,-90.56 141.42,-83.56"/>
</g>
<!-- theory&#45;&gt;theory -->
<g id="edge13" class="edge">
<title>theory:nFL&#45;&gt;theory:tolLoad</title>
<path fill="none" stroke="black" d="M131.08,-94.31C159.26,-95.06 185,-93.62 185,-90 185,-86.82 165.12,-85.32 141.17,-85.52"/>
<polygon fill="black" stroke="black" points="141.02,-82.02 131.08,-85.69 141.14,-89.02 141.02,-82.02"/>
</g>
<!-- theory&#45;&gt;theory -->
<g id="edge19" class="edge">
<title>theory:tolLoad&#45;&gt;theory:sdfTol</title>
<path fill="none" stroke="black" d="M131.24,-95.41C167.4,-97.05 203,-95.25 203,-90 203,-85.24 173.76,-83.31 141.37,-84.22"/>
<polygon fill="black" stroke="black" points="141.11,-80.72 131.24,-84.59 141.36,-87.72 141.11,-80.72"/>
</g>
<!-- theory&#45;&gt;theory -->
<g id="edge23" class="edge">
<title>theory:probBr&#45;&gt;theory:riskFun</title>
<path fill="none" stroke="black" d="M131.06,-96.33C174.98,-99.08 221,-96.97 221,-90 221,-83.56 181.72,-81.27 141.11,-83.12"/>
<polygon fill="black" stroke="black" points="140.86,-79.63 131.06,-83.67 141.24,-86.62 140.86,-79.63"/>
</g>
<!-- theory&#45;&gt;theory -->
<g id="edge25" class="edge">
<title>theory:lResistance&#45;&gt;theory:nFL</title>
<path fill="none" stroke="black" d="M131.03,-97.12C182.39,-101.12 239,-98.74 239,-90 239,-81.82 189.45,-79.22 141.01,-82.19"/>
<polygon fill="black" stroke="black" points="140.76,-78.7 131.03,-82.88 141.25,-85.68 140.76,-78.7"/>
</g>
<!-- theory&#45;&gt;theory -->
<g id="edge26" class="edge">
<title>theory:isSafePb&#45;&gt;theory:probBr</title>
<path fill="none" stroke="black" d="M131.39,-97.83C189.9,-103.14 257,-100.53 257,-90 257,-80.07 197.29,-77.18 141.4,-81.34"/>
<polygon fill="black" stroke="black" points="141.07,-77.86 131.39,-82.17 141.64,-84.83 141.07,-77.86"/>
</g>
<!-- theory&#45;&gt;theory -->
<g id="edge27" class="edge">
<title>theory:isSafePb&#45;&gt;theory:isSafeLR</title>
<path fill="none" stroke="black" d="M131.19,-98.41C196.83,-105.18 275,-102.38 275,-90 275,-78.25 204.57,-75.13 141.27,-80.63"/>
<polygon fill="black" stroke="black" points="140.81,-77.16 131.19,-81.59 141.47,-84.13 140.81,-77.16"/>
</g>
<!-- theory&#45;&gt;theory -->
<g id="edge29" class="edge">
<title>theory:isSafeLR&#45;&gt;theory:lResistance</title>
<path fill="none" stroke="black" d="M131.12,-98.93C203.73,-107.21 293,-104.24 293,-90 293,-76.43 211.91,-73.09 141.43,-79.98"/>
<polygon fill="black" stroke="black" points="140.69,-76.54 131.12,-81.07 141.43,-83.5 140.69,-76.54"/>
</g>
<!-- theory&#45;&gt;theory -->
<g id="edge30" class="edge">
<title>theory:isSafeLR&#45;&gt;theory:isSafePb</title>
<path fill="none" stroke="black" d="M131.15,-99.39C210.61,-109.24 311,-106.11 311,-90 311,-74.58 219.05,-71.05 141.49,-79.41"/>
<polygon fill="black" stroke="black" points="140.68,-75.98 131.15,-80.61 141.48,-82.93 140.68,-75.98"/>
</g>
</g>
</svg>
