<?xml version="1.0" encoding="UTF-8" standalone="no"?>
<!DOCTYPE svg PUBLIC "-//W3C//DTD SVG 1.1//EN"
 "http://www.w3.org/Graphics/SVG/1.1/DTD/svg11.dtd">
<!-- Generated by graphviz version 2.43.0 (0)
 -->
<!-- Title: avsall Pages: 1 -->
<svg width="421pt" height="116pt"
 viewBox="0.00 0.00 420.50 116.00" xmlns="http://www.w3.org/2000/svg" xmlns:xlink="http://www.w3.org/1999/xlink">
<g id="graph0" class="graph" transform="scale(1 1) rotate(0) translate(4 112)">
<title>avsall</title>
<polygon fill="white" stroke="transparent" points="-4,4 -4,-112 416.5,-112 416.5,4 -4,4"/>
<!-- dataDefn -->
<g id="node1" class="node">
<title>dataDefn</title>
<polygon fill="#bbffff" stroke="black" points="137,-108 0,-108 0,-72 137,-72 137,-108"/>
<text text-anchor="middle" x="68.5" y="-86.3" font-family="Times,serif" font-size="14.00">DD:calofDemand</text>
</g>
<!-- instance -->
<g id="node2" class="node">
<title>instance</title>
<polygon fill="lavender" stroke="black" points="286.5,-36 128.5,-36 128.5,0 286.5,0 286.5,-36"/>
<text text-anchor="middle" x="207.5" y="-14.3" font-family="Times,serif" font-size="14.00">UC:accAlteredGlass</text>
</g>
<!-- dataDefn&#45;&gt;instance -->
<g id="edge1" class="edge">
<title>dataDefn:loadDurFactor&#45;&gt;instance:assumpSV</title>
<path fill="none" stroke="black" d="M96.61,-71.88C114.45,-62.39 137.91,-50.51 158.69,-40.42"/>
<polygon fill="black" stroke="black" points="160.23,-43.56 167.72,-36.07 157.19,-37.26 160.23,-43.56"/>
</g>
<!-- dataDefn&#45;&gt;instance -->
<g id="edge2" class="edge">
<title>dataDefn:loadDurFactor&#45;&gt;instance:assumpLDFC</title>
<path fill="none" stroke="black" d="M108.4,-71.88C127.89,-62.55 151.13,-50.92 170.25,-40.94"/>
<polygon fill="black" stroke="black" points="172.05,-43.95 179.27,-36.19 168.79,-37.75 172.05,-43.95"/>
</g>
<!-- instance&#45;&gt;instance -->
<g id="edge6" class="edge">
<title>instance:calcInternalBlastRisk&#45;&gt;instance:assumpES</title>
<path fill="none" stroke="black" d="M286.66,-19.71C297.37,-19.42 304.5,-18.85 304.5,-18 304.5,-17.45 301.57,-17.02 296.66,-16.71"/>
<polygon fill="black" stroke="black" points="296.8,-13.21 286.66,-16.29 296.51,-20.21 296.8,-13.21"/>
</g>
<!-- instance&#45;&gt;instance -->
<g id="edge7" class="edge">
<title>instance:varValsOfmkE&#45;&gt;instance:assumpSV</title>
<path fill="none" stroke="black" d="M286.51,-21.82C307.03,-21.58 322.5,-20.31 322.5,-18 322.5,-16.09 311.89,-14.89 296.59,-14.4"/>
<polygon fill="black" stroke="black" points="296.58,-10.89 286.51,-14.18 296.44,-17.89 296.58,-10.89"/>
</g>
<!-- instance&#45;&gt;instance -->
<g id="edge8" class="edge">
<title>instance:varValsOfmkE&#45;&gt;instance:assumpLDFC</title>
<path fill="none" stroke="black" d="M286.69,-23.77C316.21,-23.96 340.5,-22.04 340.5,-18 340.5,-14.44 321.57,-12.52 296.82,-12.25"/>
<polygon fill="black" stroke="black" points="296.7,-8.75 286.69,-12.23 296.69,-15.75 296.7,-8.75"/>
</g>
<!-- instance&#45;&gt;instance -->
<g id="edge9" class="edge">
<title>instance:accMoreThanSingleLite&#45;&gt;instance:assumpGL</title>
<path fill="none" stroke="black" d="M286.74,-25.53C324.85,-26.46 358.5,-23.95 358.5,-18 358.5,-12.59 330.63,-10.02 296.88,-10.31"/>
<polygon fill="black" stroke="black" points="296.68,-6.81 286.74,-10.47 296.8,-13.81 296.68,-6.81"/>
</g>
<!-- instance&#45;&gt;instance -->
<g id="edge10" class="edge">
<title>instance:accMoreBoundaryConditions&#45;&gt;instance:assumpBC</title>
<path fill="none" stroke="black" d="M286.6,-27.08C333.04,-29.01 376.5,-25.99 376.5,-18 376.5,-10.59 339.09,-7.45 296.61,-8.58"/>
<polygon fill="black" stroke="black" points="296.48,-5.08 286.6,-8.92 296.72,-12.08 296.48,-5.08"/>
</g>
<!-- instance&#45;&gt;instance -->
<g id="edge11" class="edge">
<title>instance:considerMoreThanFlexGlass&#45;&gt;instance:assumpRT</title>
<path fill="none" stroke="black" d="M286.77,-28.47C341.13,-31.58 394.5,-28.09 394.5,-18 394.5,-8.54 347.59,-4.88 296.94,-7.02"/>
<polygon fill="black" stroke="black" points="296.58,-3.54 286.77,-7.53 296.93,-10.53 296.58,-3.54"/>
</g>
<!-- instance&#45;&gt;instance -->
<g id="edge12" class="edge">
<title>instance:accAlteredGlass&#45;&gt;instance:assumpGC</title>
<path fill="none" stroke="black" d="M286.66,-29.7C348.82,-34.19 412.5,-30.29 412.5,-18 412.5,-6.38 355.59,-2.26 296.86,-5.64"/>
<polygon fill="black" stroke="black" points="296.41,-2.16 286.66,-6.3 296.86,-9.15 296.41,-2.16"/>
</g>
<!-- theory -->
<g id="node3" class="node">
<title>theory</title>
<polygon fill="#fff68f" stroke="black" points="259.5,-108 155.5,-108 155.5,-72 259.5,-72 259.5,-108"/>
<text text-anchor="middle" x="207.5" y="-86.3" font-family="Times,serif" font-size="14.00">IM:isSafeLR</text>
</g>
<!-- theory&#45;&gt;instance -->
<g id="edge3" class="edge">
<title>theory:nFL&#45;&gt;instance:assumpSV</title>
<path fill="none" stroke="black" d="M195.67,-71.7C194.08,-63.98 193.62,-54.71 194.31,-46.11"/>
<polygon fill="black" stroke="black" points="197.79,-46.49 195.71,-36.1 190.86,-45.52 197.79,-46.49"/>
</g>
<!-- theory&#45;&gt;instance -->
<g id="edge4" class="edge">
<title>theory:dimlessLoad&#45;&gt;instance:assumpSV</title>
<path fill="none" stroke="black" d="M207.5,-71.7C207.5,-63.98 207.5,-54.71 207.5,-46.11"/>
<polygon fill="black" stroke="black" points="211,-46.1 207.5,-36.1 204,-46.1 211,-46.1"/>
</g>
<!-- theory&#45;&gt;instance -->
<g id="edge5" class="edge">
<title>theory:sdfTol&#45;&gt;instance:assumpSV</title>
<path fill="none" stroke="black" d="M219.33,-71.7C220.92,-63.98 221.38,-54.71 220.69,-46.11"/>
<polygon fill="black" stroke="black" points="224.14,-45.52 219.29,-36.1 217.21,-46.49 224.14,-45.52"/>
</g>
</g>
</svg>
