<?xml version="1.0" encoding="UTF-8" standalone="no"?>
<!DOCTYPE svg PUBLIC "-//W3C//DTD SVG 1.1//EN"
 "http://www.w3.org/Graphics/SVG/1.1/DTD/svg11.dtd">
<!-- Generated by graphviz version 2.43.0 (0)
 -->
<!-- Title: allvsr Pages: 1 -->
<svg width="355pt" height="116pt"
 viewBox="0.00 0.00 354.50 116.00" xmlns="http://www.w3.org/2000/svg" xmlns:xlink="http://www.w3.org/1999/xlink">
<g id="graph0" class="graph" transform="scale(1 1) rotate(0) translate(4 112)">
<title>allvsr</title>
<polygon fill="white" stroke="transparent" points="-4,4 -4,-112 350.5,-112 350.5,4 -4,4"/>
<!-- instance -->
<g id="node1" class="node">
<title>instance</title>
<polygon fill="#ffb90f" stroke="black" points="180,-108 51,-108 51,-72 180,-72 180,-108"/>
<text text-anchor="middle" x="115.5" y="-86.3" font-family="Times,serif" font-size="14.00">GS:motionMass</text>
</g>
<!-- theory -->
<g id="node2" class="node">
<title>theory</title>
<polygon fill="#fff68f" stroke="black" points="231,-36 0,-36 0,0 231,0 231,-36"/>
<text text-anchor="middle" x="115.5" y="-14.3" font-family="Times,serif" font-size="14.00">IM:calOfAngularDisplacement</text>
</g>
<!-- instance&#45;&gt;theory -->
<g id="edge1" class="edge">
<title>instance:calcAngPos&#45;&gt;theory:angularDisplacementIM</title>
<path fill="none" stroke="black" d="M109.58,-71.7C108.79,-63.98 108.56,-54.71 108.9,-46.11"/>
<polygon fill="black" stroke="black" points="112.4,-46.32 109.6,-36.1 105.42,-45.84 112.4,-46.32"/>
</g>
<!-- instance&#45;&gt;theory -->
<g id="edge2" class="edge">
<title>instance:outputValues&#45;&gt;theory:angularDisplacementIM</title>
<path fill="none" stroke="black" d="M121.42,-71.7C122.21,-63.98 122.44,-54.71 122.1,-46.11"/>
<polygon fill="black" stroke="black" points="125.58,-45.84 121.4,-36.1 118.6,-46.32 125.58,-45.84"/>
</g>
<!-- dataDefn -->
<g id="node3" class="node">
<title>dataDefn</title>
<polygon fill="#bbffff" stroke="black" points="346.5,-108 198.5,-108 198.5,-72 346.5,-72 346.5,-108"/>
<text text-anchor="middle" x="272.5" y="-86.3" font-family="Times,serif" font-size="14.00">DD:periodSHMDD</text>
</g>
</g>
</svg>
