<?xml version="1.0" encoding="UTF-8" standalone="no"?>
<!DOCTYPE svg PUBLIC "-//W3C//DTD SVG 1.1//EN"
 "http://www.w3.org/Graphics/SVG/1.1/DTD/svg11.dtd">
<!-- Generated by graphviz version 2.43.0 (0)
 -->
<!-- Title: avsall Pages: 1 -->
<svg width="2456pt" height="44pt"
 viewBox="0.00 0.00 2456.00 44.00" xmlns="http://www.w3.org/2000/svg" xmlns:xlink="http://www.w3.org/1999/xlink">
<g id="graph0" class="graph" transform="scale(1 1) rotate(0) translate(4 40)">
<title>avsall</title>
<polygon fill="white" stroke="transparent" points="-4,4 -4,-40 2452,-40 2452,4 -4,4"/>
<!-- twoDMotion -->
<g id="node1" class="node">
<title>twoDMotion</title>
<polygon fill="mistyrose" stroke="black" points="119,-36 0,-36 0,0 119,0 119,-36"/>
<text text-anchor="middle" x="59.5" y="-14.3" font-family="Times,serif" font-size="14.00">A:twoDMotion</text>
</g>
<!-- cartSys -->
<g id="node2" class="node">
<title>cartSys</title>
<polygon fill="mistyrose" stroke="black" points="222,-36 137,-36 137,0 222,0 222,-36"/>
<text text-anchor="middle" x="179.5" y="-14.3" font-family="Times,serif" font-size="14.00">A:cartSys</text>
</g>
<!-- cartSysR -->
<g id="node3" class="node">
<title>cartSysR</title>
<polygon fill="mistyrose" stroke="black" points="335,-36 240,-36 240,0 335,0 335,-36"/>
<text text-anchor="middle" x="287.5" y="-14.3" font-family="Times,serif" font-size="14.00">A:cartSysR</text>
</g>
<!-- yAxisDir -->
<g id="node4" class="node">
<title>yAxisDir</title>
<polygon fill="mistyrose" stroke="black" points="445.5,-36 353.5,-36 353.5,0 445.5,0 445.5,-36"/>
<text text-anchor="middle" x="399.5" y="-14.3" font-family="Times,serif" font-size="14.00">A:yAxisDir</text>
</g>
<!-- startOrigin -->
<g id="node5" class="node">
<title>startOrigin</title>
<polygon fill="mistyrose" stroke="black" points="573.5,-36 463.5,-36 463.5,0 573.5,0 573.5,-36"/>
<text text-anchor="middle" x="518.5" y="-14.3" font-family="Times,serif" font-size="14.00">A:startOrigin</text>
</g>
<!-- ixPos -->
<g id="node6" class="node">
<title>ixPos</title>
<polygon fill="#bbffff" stroke="black" points="707.5,-36 591.5,-36 591.5,0 707.5,0 707.5,-36"/>
<text text-anchor="middle" x="649.5" y="-14.3" font-family="Times,serif" font-size="14.00">DD:positionIX</text>
</g>
<!-- iyPos -->
<g id="node7" class="node">
<title>iyPos</title>
<polygon fill="#bbffff" stroke="black" points="841,-36 726,-36 726,0 841,0 841,-36"/>
<text text-anchor="middle" x="783.5" y="-14.3" font-family="Times,serif" font-size="14.00">DD:positionIY</text>
</g>
<!-- frequency -->
<g id="node8" class="node">
<title>frequency</title>
<polygon fill="#bbffff" stroke="black" points="996,-36 859,-36 859,0 996,0 996,-36"/>
<text text-anchor="middle" x="927.5" y="-14.3" font-family="Times,serif" font-size="14.00">DD:frequencyDD</text>
</g>
<!-- angularFrequency -->
<g id="node9" class="node">
<title>angularFrequency</title>
<polygon fill="#bbffff" stroke="black" points="1182.5,-36 1014.5,-36 1014.5,0 1182.5,0 1182.5,-36"/>
<text text-anchor="middle" x="1098.5" y="-14.3" font-family="Times,serif" font-size="14.00">DD:angFrequencyDD</text>
</g>
<!-- period -->
<g id="node10" class="node">
<title>period</title>
<polygon fill="#bbffff" stroke="black" points="1348.5,-36 1200.5,-36 1200.5,0 1348.5,0 1348.5,-36"/>
<text text-anchor="middle" x="1274.5" y="-14.3" font-family="Times,serif" font-size="14.00">DD:periodSHMDD</text>
</g>
<!-- theory -->
<g id="node11" class="node">
<title>theory</title>
<polygon fill="#fff68f" stroke="black" points="1598,-36 1367,-36 1367,0 1598,0 1598,-36"/>
<text text-anchor="middle" x="1482.5" y="-14.3" font-family="Times,serif" font-size="14.00">IM:calOfAngularDisplacement</text>
</g>
<!-- inputValues -->
<g id="node12" class="node">
<title>inputValues</title>
<polygon fill="ivory" stroke="black" points="1741,-36 1616,-36 1616,0 1741,0 1741,-36"/>
<text text-anchor="middle" x="1678.5" y="-14.3" font-family="Times,serif" font-size="14.00">FR:inputValues</text>
</g>
<!-- verifyInptVals -->
<g id="node13" class="node">
<title>verifyInptVals</title>
<polygon fill="ivory" stroke="black" points="1900,-36 1759,-36 1759,0 1900,0 1900,-36"/>
<text text-anchor="middle" x="1829.5" y="-14.3" font-family="Times,serif" font-size="14.00">FR:verifyInptVals</text>
</g>
<!-- calcAngPos -->
<g id="node14" class="node">
<title>calcAngPos</title>
<polygon fill="ivory" stroke="black" points="2040.5,-36 1918.5,-36 1918.5,0 2040.5,0 2040.5,-36"/>
<text text-anchor="middle" x="1979.5" y="-14.3" font-family="Times,serif" font-size="14.00">FR:calcAngPos</text>
</g>
<!-- outputValues -->
<g id="node15" class="node">
<title>outputValues</title>
<polygon fill="ivory" stroke="black" points="2194,-36 2059,-36 2059,0 2194,0 2194,-36"/>
<text text-anchor="middle" x="2126.5" y="-14.3" font-family="Times,serif" font-size="14.00">FR:outputValues</text>
</g>
<!-- correct -->
<g id="node16" class="node">
<title>correct</title>
<polygon fill="ivory" stroke="black" points="2316.5,-36 2212.5,-36 2212.5,0 2316.5,0 2316.5,-36"/>
<text text-anchor="middle" x="2264.5" y="-14.3" font-family="Times,serif" font-size="14.00">NFR:correct</text>
</g>
<!-- portable -->
<g id="node17" class="node">
<title>portable</title>
<polygon fill="ivory" stroke="black" points="2448,-36 2335,-36 2335,0 2448,0 2448,-36"/>
<text text-anchor="middle" x="2391.5" y="-14.3" font-family="Times,serif" font-size="14.00">NFR:portable</text>
</g>
</g>
</svg>
