<?xml version="1.0" encoding="UTF-8" standalone="no"?>
<!DOCTYPE svg PUBLIC "-//W3C//DTD SVG 1.1//EN"
 "http://www.w3.org/Graphics/SVG/1.1/DTD/svg11.dtd">
<!-- Generated by graphviz version 2.43.0 (0)
 -->
<!-- Title: avsall Pages: 1 -->
<svg width="1847pt" height="44pt"
 viewBox="0.00 0.00 1847.00 44.00" xmlns="http://www.w3.org/2000/svg" xmlns:xlink="http://www.w3.org/1999/xlink">
<g id="graph0" class="graph" transform="scale(1 1) rotate(0) translate(4 40)">
<title>avsall</title>
<polygon fill="white" stroke="transparent" points="-4,4 -4,-40 1843,-40 1843,4 -4,4"/>
<!-- twoDMotion -->
<g id="node1" class="node">
<title>twoDMotion</title>
<polygon fill="mistyrose" stroke="black" points="119,-36 0,-36 0,0 119,0 119,-36"/>
<text text-anchor="middle" x="59.5" y="-14.3" font-family="Times,serif" font-size="14.00">A:twoDMotion</text>
</g>
<!-- cartSys -->
<g id="node2" class="node">
<title>cartSys</title>
<polygon fill="mistyrose" stroke="black" points="222,-36 137,-36 137,0 222,0 222,-36"/>
<text text-anchor="middle" x="179.5" y="-14.3" font-family="Times,serif" font-size="14.00">A:cartSys</text>
</g>
<!-- cartSysR -->
<g id="node3" class="node">
<title>cartSysR</title>
<polygon fill="mistyrose" stroke="black" points="335,-36 240,-36 240,0 335,0 335,-36"/>
<text text-anchor="middle" x="287.5" y="-14.3" font-family="Times,serif" font-size="14.00">A:cartSysR</text>
</g>
<!-- yAxisDir -->
<g id="node4" class="node">
<title>yAxisDir</title>
<polygon fill="mistyrose" stroke="black" points="445.5,-36 353.5,-36 353.5,0 445.5,0 445.5,-36"/>
<text text-anchor="middle" x="399.5" y="-14.3" font-family="Times,serif" font-size="14.00">A:yAxisDir</text>
</g>
<!-- startOrigin -->
<g id="node5" class="node">
<title>startOrigin</title>
<polygon fill="mistyrose" stroke="black" points="573.5,-36 463.5,-36 463.5,0 573.5,0 573.5,-36"/>
<text text-anchor="middle" x="518.5" y="-14.3" font-family="Times,serif" font-size="14.00">A:startOrigin</text>
</g>
<!-- dataDefn -->
<g id="node6" class="node">
<title>dataDefn</title>
<polygon fill="#bbffff" stroke="black" points="739.5,-36 591.5,-36 591.5,0 739.5,0 739.5,-36"/>
<text text-anchor="middle" x="665.5" y="-14.3" font-family="Times,serif" font-size="14.00">DD:periodSHMDD</text>
</g>
<!-- theory -->
<g id="node7" class="node">
<title>theory</title>
<polygon fill="#fff68f" stroke="black" points="989,-36 758,-36 758,0 989,0 989,-36"/>
<text text-anchor="middle" x="873.5" y="-14.3" font-family="Times,serif" font-size="14.00">IM:calOfAngularDisplacement</text>
</g>
<!-- inputValues -->
<g id="node8" class="node">
<title>inputValues</title>
<polygon fill="ivory" stroke="black" points="1132,-36 1007,-36 1007,0 1132,0 1132,-36"/>
<text text-anchor="middle" x="1069.5" y="-14.3" font-family="Times,serif" font-size="14.00">FR:inputValues</text>
</g>
<!-- verifyInptVals -->
<g id="node9" class="node">
<title>verifyInptVals</title>
<polygon fill="ivory" stroke="black" points="1291,-36 1150,-36 1150,0 1291,0 1291,-36"/>
<text text-anchor="middle" x="1220.5" y="-14.3" font-family="Times,serif" font-size="14.00">FR:verifyInptVals</text>
</g>
<!-- calcAngPos -->
<g id="node10" class="node">
<title>calcAngPos</title>
<polygon fill="ivory" stroke="black" points="1431.5,-36 1309.5,-36 1309.5,0 1431.5,0 1431.5,-36"/>
<text text-anchor="middle" x="1370.5" y="-14.3" font-family="Times,serif" font-size="14.00">FR:calcAngPos</text>
</g>
<!-- outputValues -->
<g id="node11" class="node">
<title>outputValues</title>
<polygon fill="ivory" stroke="black" points="1585,-36 1450,-36 1450,0 1585,0 1585,-36"/>
<text text-anchor="middle" x="1517.5" y="-14.3" font-family="Times,serif" font-size="14.00">FR:outputValues</text>
</g>
<!-- correct -->
<g id="node12" class="node">
<title>correct</title>
<polygon fill="ivory" stroke="black" points="1707.5,-36 1603.5,-36 1603.5,0 1707.5,0 1707.5,-36"/>
<text text-anchor="middle" x="1655.5" y="-14.3" font-family="Times,serif" font-size="14.00">NFR:correct</text>
</g>
<!-- portable -->
<g id="node13" class="node">
<title>portable</title>
<polygon fill="ivory" stroke="black" points="1839,-36 1726,-36 1726,0 1839,0 1839,-36"/>
<text text-anchor="middle" x="1782.5" y="-14.3" font-family="Times,serif" font-size="14.00">NFR:portable</text>
</g>
</g>
</svg>
