<?xml version="1.0" encoding="UTF-8" standalone="no"?>
<!DOCTYPE svg PUBLIC "-//W3C//DTD SVG 1.1//EN"
 "http://www.w3.org/Graphics/SVG/1.1/DTD/svg11.dtd">
<!-- Generated by graphviz version 2.43.0 (0)
 -->
<!-- Title: refvsref Pages: 1 -->
<svg width="766pt" height="116pt"
 viewBox="0.00 0.00 765.50 116.00" xmlns="http://www.w3.org/2000/svg" xmlns:xlink="http://www.w3.org/1999/xlink">
<g id="graph0" class="graph" transform="scale(1 1) rotate(0) translate(4 112)">
<title>refvsref</title>
<polygon fill="white" stroke="transparent" points="-4,4 -4,-112 761.5,-112 761.5,4 -4,4"/>
<!-- angularFrequency -->
<g id="node1" class="node">
<title>angularFrequency</title>
<polygon fill="#bbffff" stroke="black" points="168,-36 0,-36 0,0 168,0 168,-36"/>
<text text-anchor="middle" x="84" y="-14.3" font-family="Times,serif" font-size="14.00">DD:angFrequencyDD</text>
</g>
<!-- period -->
<g id="node2" class="node">
<title>period</title>
<polygon fill="#bbffff" stroke="black" points="334,-36 186,-36 186,0 334,0 334,-36"/>
<text text-anchor="middle" x="260" y="-14.3" font-family="Times,serif" font-size="14.00">DD:periodSHMDD</text>
</g>
<!-- angularFrequency&#45;&gt;period -->
<g id="edge1" class="edge">
<title>angularFrequency&#45;&gt;period</title>
<path fill="none" stroke="black" d="M168.22,-18C170.69,-18 173.16,-18 175.63,-18"/>
<polygon fill="black" stroke="black" points="175.79,-21.5 185.79,-18 175.79,-14.5 175.79,-21.5"/>
</g>
<!-- frequency -->
<g id="node3" class="node">
<title>frequency</title>
<polygon fill="#bbffff" stroke="black" points="489.5,-36 352.5,-36 352.5,0 489.5,0 489.5,-36"/>
<text text-anchor="middle" x="421" y="-14.3" font-family="Times,serif" font-size="14.00">DD:frequencyDD</text>
</g>
<!-- period&#45;&gt;frequency -->
<g id="edge2" class="edge">
<title>period&#45;&gt;frequency</title>
<path fill="none" stroke="black" d="M334.21,-18C336.83,-18 339.45,-18 342.07,-18"/>
<polygon fill="black" stroke="black" points="342.18,-21.5 352.18,-18 342.18,-14.5 342.18,-21.5"/>
</g>
<!-- theory -->
<g id="node4" class="node">
<title>theory</title>
<polygon fill="#fff68f" stroke="black" points="455.5,-108 224.5,-108 224.5,-72 455.5,-72 455.5,-108"/>
<text text-anchor="middle" x="340" y="-86.3" font-family="Times,serif" font-size="14.00">IM:calOfAngularDisplacement</text>
</g>
<!-- theory&#45;&gt;angularFrequency -->
<g id="edge6" class="edge">
<title>theory:periodPendGD&#45;&gt;angularFrequency</title>
<path fill="none" stroke="black" d="M277.7,-71.97C241.16,-61.97 194.81,-49.3 156.61,-38.85"/>
<polygon fill="black" stroke="black" points="157.15,-35.37 146.58,-36.11 155.3,-42.12 157.15,-35.37"/>
</g>
<!-- theory&#45;&gt;period -->
<g id="edge7" class="edge">
<title>theory:periodPendGD&#45;&gt;period</title>
<path fill="none" stroke="black" d="M320.22,-71.7C310.25,-62.97 297.99,-52.24 287.14,-42.75"/>
<polygon fill="black" stroke="black" points="289.38,-40.06 279.55,-36.1 284.77,-45.32 289.38,-40.06"/>
</g>
<!-- theory&#45;&gt;frequency -->
<g id="edge3" class="edge">
<title>theory:angFrequencyGD&#45;&gt;frequency</title>
<path fill="none" stroke="black" d="M354.11,-71.7C363.4,-62.88 375.79,-52.03 387.42,-42.47"/>
<polygon fill="black" stroke="black" points="389.73,-45.11 395.31,-36.1 385.33,-39.66 389.73,-45.11"/>
</g>
<!-- theory&#45;&gt;frequency -->
<g id="edge5" class="edge">
<title>theory:periodPendGD&#45;&gt;frequency</title>
<path fill="none" stroke="black" d="M365.94,-71.7C376.84,-63.05 389.28,-52.45 399.64,-43.03"/>
<polygon fill="black" stroke="black" points="402.15,-45.47 407.1,-36.1 397.39,-40.34 402.15,-45.47"/>
</g>
<!-- theory&#45;&gt;theory -->
<g id="edge4" class="edge">
<title>theory:angFrequencyGD&#45;&gt;theory:newtonSLR</title>
<path fill="none" stroke="black" d="M455.67,-100.04C486.3,-99.46 509.5,-96.12 509.5,-90 509.5,-77.26 408.94,-76.54 350.11,-87.84"/>
<polygon fill="black" stroke="black" points="349.05,-84.49 340,-90 350.51,-91.33 349.05,-84.49"/>
</g>
<!-- theory&#45;&gt;theory -->
<g id="edge8" class="edge">
<title>theory:periodPendGD&#45;&gt;theory:angFrequencyGD</title>
<path fill="none" stroke="black" d="M455.81,-92.71C466.65,-92.15 473.5,-91.25 473.5,-90 473.5,-89.2 470.69,-88.54 465.82,-88.03"/>
<polygon fill="black" stroke="black" points="466.04,-84.53 455.81,-87.29 465.53,-91.52 466.04,-84.53"/>
</g>
<!-- theory&#45;&gt;theory -->
<g id="edge9" class="edge">
<title>theory:angularDisplacementIM&#45;&gt;theory:newtonSLR</title>
<path fill="none" stroke="black" d="M455.81,-103.5C495.51,-103.6 527.5,-99.11 527.5,-90 527.5,-72.91 414.87,-72.05 349.98,-87.4"/>
<polygon fill="black" stroke="black" points="348.79,-84.09 340,-90 350.56,-90.86 348.79,-84.09"/>
</g>
<!-- theory&#45;&gt;theory -->
<g id="edge10" class="edge">
<title>theory:angularDisplacementIM&#45;&gt;theory:angFrequencyGD</title>
<path fill="none" stroke="black" d="M455.6,-96.38C476.7,-95.57 491.5,-93.45 491.5,-90 491.5,-87.15 481.35,-85.2 465.88,-84.15"/>
<polygon fill="black" stroke="black" points="465.76,-80.64 455.6,-83.62 465.4,-87.63 465.76,-80.64"/>
</g>
<!-- ixPos -->
<g id="node5" class="node">
<title>ixPos</title>
<polygon fill="#bbffff" stroke="black" points="624,-36 508,-36 508,0 624,0 624,-36"/>
<text text-anchor="middle" x="566" y="-14.3" font-family="Times,serif" font-size="14.00">DD:positionIX</text>
</g>
<!-- iyPos -->
<g id="node6" class="node">
<title>iyPos</title>
<polygon fill="#bbffff" stroke="black" points="757.5,-36 642.5,-36 642.5,0 757.5,0 757.5,-36"/>
<text text-anchor="middle" x="700" y="-14.3" font-family="Times,serif" font-size="14.00">DD:positionIY</text>
</g>
</g>
</svg>
