<?xml version="1.0" encoding="UTF-8" standalone="no"?>
<!DOCTYPE svg PUBLIC "-//W3C//DTD SVG 1.1//EN"
 "http://www.w3.org/Graphics/SVG/1.1/DTD/svg11.dtd">
<!-- Generated by graphviz version 2.43.0 (0)
 -->
<!-- Title: allvsr Pages: 1 -->
<svg width="5968pt" height="44pt"
 viewBox="0.00 0.00 5968.00 44.00" xmlns="http://www.w3.org/2000/svg" xmlns:xlink="http://www.w3.org/1999/xlink">
<g id="graph0" class="graph" transform="scale(1 1) rotate(0) translate(4 40)">
<title>allvsr</title>
<polygon fill="white" stroke="transparent" points="-4,4 -4,-40 5964,-40 5964,4 -4,4"/>
<!-- assumpOT -->
<g id="node1" class="node">
<title>assumpOT</title>
<polygon fill="mistyrose" stroke="black" points="106,-36 0,-36 0,0 106,0 106,-36"/>
<text text-anchor="middle" x="53" y="-14.3" font-family="Times,serif" font-size="14.00">A:assumpOT</text>
</g>
<!-- assumpOD -->
<g id="node2" class="node">
<title>assumpOD</title>
<polygon fill="mistyrose" stroke="black" points="232,-36 124,-36 124,0 232,0 232,-36"/>
<text text-anchor="middle" x="178" y="-14.3" font-family="Times,serif" font-size="14.00">A:assumpOD</text>
</g>
<!-- assumpCST -->
<g id="node3" class="node">
<title>assumpCST</title>
<polygon fill="mistyrose" stroke="black" points="365.5,-36 250.5,-36 250.5,0 365.5,0 365.5,-36"/>
<text text-anchor="middle" x="308" y="-14.3" font-family="Times,serif" font-size="14.00">A:assumpCST</text>
</g>
<!-- assumpAD -->
<g id="node4" class="node">
<title>assumpAD</title>
<polygon fill="mistyrose" stroke="black" points="490.5,-36 383.5,-36 383.5,0 490.5,0 490.5,-36"/>
<text text-anchor="middle" x="437" y="-14.3" font-family="Times,serif" font-size="14.00">A:assumpAD</text>
</g>
<!-- assumpCT -->
<g id="node5" class="node">
<title>assumpCT</title>
<polygon fill="mistyrose" stroke="black" points="613.5,-36 508.5,-36 508.5,0 613.5,0 613.5,-36"/>
<text text-anchor="middle" x="561" y="-14.3" font-family="Times,serif" font-size="14.00">A:assumpCT</text>
</g>
<!-- assumpDI -->
<g id="node6" class="node">
<title>assumpDI</title>
<polygon fill="mistyrose" stroke="black" points="734,-36 632,-36 632,0 734,0 734,-36"/>
<text text-anchor="middle" x="683" y="-14.3" font-family="Times,serif" font-size="14.00">A:assumpDI</text>
</g>
<!-- assumpCAJI -->
<g id="node7" class="node">
<title>assumpCAJI</title>
<polygon fill="mistyrose" stroke="black" points="868,-36 752,-36 752,0 868,0 868,-36"/>
<text text-anchor="middle" x="810" y="-14.3" font-family="Times,serif" font-size="14.00">A:assumpCAJI</text>
</g>
<!-- p_CM -->
<g id="node8" class="node">
<title>p_CM</title>
<polygon fill="#bbffff" stroke="black" points="1004,-36 886,-36 886,0 1004,0 1004,-36"/>
<text text-anchor="middle" x="945" y="-14.3" font-family="Times,serif" font-size="14.00">DD:ctrOfMass</text>
</g>
<!-- linearDisplacement -->
<g id="node9" class="node">
<title>linearDisplacement</title>
<polygon fill="#bbffff" stroke="black" points="1116,-36 1022,-36 1022,0 1116,0 1116,-36"/>
<text text-anchor="middle" x="1069" y="-14.3" font-family="Times,serif" font-size="14.00">DD:linDisp</text>
</g>
<!-- linearVelocity -->
<g id="node10" class="node">
<title>linearVelocity</title>
<polygon fill="#bbffff" stroke="black" points="1217.5,-36 1134.5,-36 1134.5,0 1217.5,0 1217.5,-36"/>
<text text-anchor="middle" x="1176" y="-14.3" font-family="Times,serif" font-size="14.00">DD:linVel</text>
</g>
<!-- linearAcceleration -->
<g id="node11" class="node">
<title>linearAcceleration</title>
<polygon fill="#bbffff" stroke="black" points="1322,-36 1236,-36 1236,0 1322,0 1322,-36"/>
<text text-anchor="middle" x="1279" y="-14.3" font-family="Times,serif" font-size="14.00">DD:linAcc</text>
</g>
<!-- angularDisplacement -->
<g id="node12" class="node">
<title>angularDisplacement</title>
<polygon fill="#bbffff" stroke="black" points="1442,-36 1340,-36 1340,0 1442,0 1442,-36"/>
<text text-anchor="middle" x="1391" y="-14.3" font-family="Times,serif" font-size="14.00">DD:angDisp</text>
</g>
<!-- angularVelocity -->
<g id="node13" class="node">
<title>angularVelocity</title>
<polygon fill="#bbffff" stroke="black" points="1552,-36 1460,-36 1460,0 1552,0 1552,-36"/>
<text text-anchor="middle" x="1506" y="-14.3" font-family="Times,serif" font-size="14.00">DD:angVel</text>
</g>
<!-- angularAcceleration -->
<g id="node14" class="node">
<title>angularAcceleration</title>
<polygon fill="#bbffff" stroke="black" points="1677.5,-36 1570.5,-36 1570.5,0 1677.5,0 1677.5,-36"/>
<text text-anchor="middle" x="1624" y="-14.3" font-family="Times,serif" font-size="14.00">DD:angAccel</text>
</g>
<!-- velocityB -->
<g id="node15" class="node">
<title>velocityB</title>
<polygon fill="#bbffff" stroke="black" points="1824,-36 1696,-36 1696,0 1824,0 1824,-36"/>
<text text-anchor="middle" x="1760" y="-14.3" font-family="Times,serif" font-size="14.00">DD:chaslesThm</text>
</g>
<!-- torque -->
<g id="node16" class="node">
<title>torque</title>
<polygon fill="#bbffff" stroke="black" points="1933.5,-36 1842.5,-36 1842.5,0 1933.5,0 1933.5,-36"/>
<text text-anchor="middle" x="1888" y="-14.3" font-family="Times,serif" font-size="14.00">DD:torque</text>
</g>
<!-- kEnergy -->
<g id="node17" class="node">
<title>kEnergy</title>
<polygon fill="#bbffff" stroke="black" points="2056,-36 1952,-36 1952,0 2056,0 2056,-36"/>
<text text-anchor="middle" x="2004" y="-14.3" font-family="Times,serif" font-size="14.00">DD:kEnergy</text>
</g>
<!-- restitutionCoef -->
<g id="node18" class="node">
<title>restitutionCoef</title>
<polygon fill="#bbffff" stroke="black" points="2231.5,-36 2074.5,-36 2074.5,0 2231.5,0 2231.5,-36"/>
<text text-anchor="middle" x="2153" y="-14.3" font-family="Times,serif" font-size="14.00">DD:coeffRestitution</text>
</g>
<!-- v_iAB -->
<g id="node19" class="node">
<title>v_iAB</title>
<polygon fill="#bbffff" stroke="black" points="2368,-36 2250,-36 2250,0 2368,0 2368,-36"/>
<text text-anchor="middle" x="2309" y="-14.3" font-family="Times,serif" font-size="14.00">DD:reVeInColl</text>
</g>
<!-- impulseV -->
<g id="node20" class="node">
<title>impulseV</title>
<polygon fill="#bbffff" stroke="black" points="2496,-36 2386,-36 2386,0 2496,0 2496,-36"/>
<text text-anchor="middle" x="2441" y="-14.3" font-family="Times,serif" font-size="14.00">DD:impulseV</text>
</g>
<!-- potEnergy -->
<g id="node21" class="node">
<title>potEnergy</title>
<polygon fill="#bbffff" stroke="black" points="2633.5,-36 2514.5,-36 2514.5,0 2633.5,0 2633.5,-36"/>
<text text-anchor="middle" x="2574" y="-14.3" font-family="Times,serif" font-size="14.00">DD:potEnergy</text>
</g>
<!-- momentOfInertia -->
<g id="node22" class="node">
<title>momentOfInertia</title>
<polygon fill="#bbffff" stroke="black" points="2818.5,-36 2651.5,-36 2651.5,0 2818.5,0 2818.5,-36"/>
<text text-anchor="middle" x="2735" y="-14.3" font-family="Times,serif" font-size="14.00">DD:momentOfInertia</text>
</g>
<!-- newtonSL -->
<g id="node23" class="node">
<title>newtonSL</title>
<polygon fill="pink" stroke="black" points="3019.5,-36 2836.5,-36 2836.5,0 3019.5,0 3019.5,-36"/>
<text text-anchor="middle" x="2928" y="-14.3" font-family="Times,serif" font-size="14.00">TM:NewtonSecLawMot</text>
</g>
<!-- theory -->
<g id="node24" class="node">
<title>theory</title>
<polygon fill="#fff68f" stroke="black" points="3128,-36 3038,-36 3038,0 3128,0 3128,-36"/>
<text text-anchor="middle" x="3083" y="-14.3" font-family="Times,serif" font-size="14.00">IM:rotMot</text>
</g>
<!-- newtonSLR -->
<g id="node25" class="node">
<title>newtonSLR</title>
<polygon fill="pink" stroke="black" points="3354,-36 3146,-36 3146,0 3354,0 3354,-36"/>
<text text-anchor="middle" x="3250" y="-14.3" font-family="Times,serif" font-size="14.00">TM:NewtonSecLawRotMot</text>
</g>
<!-- col2DIM -->
<g id="node26" class="node">
<title>col2DIM</title>
<polygon fill="#fff68f" stroke="black" points="3453.5,-36 3372.5,-36 3372.5,0 3453.5,0 3453.5,-36"/>
<text text-anchor="middle" x="3413" y="-14.3" font-family="Times,serif" font-size="14.00">IM:col2D</text>
</g>
<!-- simSpace -->
<g id="node27" class="node">
<title>simSpace</title>
<polygon fill="ivory" stroke="black" points="3582,-36 3472,-36 3472,0 3582,0 3582,-36"/>
<text text-anchor="middle" x="3527" y="-14.3" font-family="Times,serif" font-size="14.00">FR:simSpace</text>
</g>
<!-- inputInitialConds -->
<g id="node28" class="node">
<title>inputInitialConds</title>
<polygon fill="ivory" stroke="black" points="3765.5,-36 3600.5,-36 3600.5,0 3765.5,0 3765.5,-36"/>
<text text-anchor="middle" x="3683" y="-14.3" font-family="Times,serif" font-size="14.00">FR:inputInitialConds</text>
</g>
<!-- inputSurfaceProps -->
<g id="node29" class="node">
<title>inputSurfaceProps</title>
<polygon fill="ivory" stroke="black" points="3958.5,-36 3783.5,-36 3783.5,0 3958.5,0 3958.5,-36"/>
<text text-anchor="middle" x="3871" y="-14.3" font-family="Times,serif" font-size="14.00">FR:inputSurfaceProps</text>
</g>
<!-- verifyPhysCons -->
<g id="node30" class="node">
<title>verifyPhysCons</title>
<polygon fill="ivory" stroke="black" points="4129,-36 3977,-36 3977,0 4129,0 4129,-36"/>
<text text-anchor="middle" x="4053" y="-14.3" font-family="Times,serif" font-size="14.00">FR:verifyPhysCons</text>
</g>
<!-- calcTransOverTime -->
<g id="node31" class="node">
<title>calcTransOverTime</title>
<polygon fill="ivory" stroke="black" points="4326.5,-36 4147.5,-36 4147.5,0 4326.5,0 4326.5,-36"/>
<text text-anchor="middle" x="4237" y="-14.3" font-family="Times,serif" font-size="14.00">FR:calcTransOverTime</text>
</g>
<!-- calcRotOverTime -->
<g id="node32" class="node">
<title>calcRotOverTime</title>
<polygon fill="ivory" stroke="black" points="4509,-36 4345,-36 4345,0 4509,0 4509,-36"/>
<text text-anchor="middle" x="4427" y="-14.3" font-family="Times,serif" font-size="14.00">FR:calcRotOverTime</text>
</g>
<!-- deterColls -->
<g id="node33" class="node">
<title>deterColls</title>
<polygon fill="ivory" stroke="black" points="4642.5,-36 4527.5,-36 4527.5,0 4642.5,0 4642.5,-36"/>
<text text-anchor="middle" x="4585" y="-14.3" font-family="Times,serif" font-size="14.00">FR:deterColls</text>
</g>
<!-- deterCollRespOverTime -->
<g id="node34" class="node">
<title>deterCollRespOverTime</title>
<polygon fill="ivory" stroke="black" points="4873,-36 4661,-36 4661,0 4873,0 4873,-36"/>
<text text-anchor="middle" x="4767" y="-14.3" font-family="Times,serif" font-size="14.00">FR:deterCollRespOverTime</text>
</g>
<!-- performance -->
<g id="node35" class="node">
<title>performance</title>
<polygon fill="ivory" stroke="black" points="5035,-36 4891,-36 4891,0 5035,0 5035,-36"/>
<text text-anchor="middle" x="4963" y="-14.3" font-family="Times,serif" font-size="14.00">NFR:performance</text>
</g>
<!-- correctness -->
<g id="node36" class="node">
<title>correctness</title>
<polygon fill="ivory" stroke="black" points="5190.5,-36 5053.5,-36 5053.5,0 5190.5,0 5190.5,-36"/>
<text text-anchor="middle" x="5122" y="-14.3" font-family="Times,serif" font-size="14.00">NFR:correctness</text>
</g>
<!-- usability -->
<g id="node37" class="node">
<title>usability</title>
<polygon fill="ivory" stroke="black" points="5323.5,-36 5208.5,-36 5208.5,0 5323.5,0 5323.5,-36"/>
<text text-anchor="middle" x="5266" y="-14.3" font-family="Times,serif" font-size="14.00">NFR:usability</text>
</g>
<!-- understandability -->
<g id="node38" class="node">
<title>understandability</title>
<polygon fill="ivory" stroke="black" points="5522,-36 5342,-36 5342,0 5522,0 5522,-36"/>
<text text-anchor="middle" x="5432" y="-14.3" font-family="Times,serif" font-size="14.00">NFR:understandability</text>
</g>
<!-- maintainability -->
<g id="node39" class="node">
<title>maintainability</title>
<polygon fill="ivory" stroke="black" points="5701.5,-36 5540.5,-36 5540.5,0 5701.5,0 5701.5,-36"/>
<text text-anchor="middle" x="5621" y="-14.3" font-family="Times,serif" font-size="14.00">NFR:maintainability</text>
</g>
<!-- linearGS -->
<g id="node40" class="node">
<title>linearGS</title>
<polygon fill="#ffb90f" stroke="black" points="5824,-36 5720,-36 5720,0 5824,0 5824,-36"/>
<text text-anchor="middle" x="5772" y="-14.3" font-family="Times,serif" font-size="14.00">GS:linearGS</text>
</g>
<!-- angularGS -->
<g id="node41" class="node">
<title>angularGS</title>
<polygon fill="#ffb90f" stroke="black" points="5960,-36 5842,-36 5842,0 5960,0 5960,-36"/>
<text text-anchor="middle" x="5901" y="-14.3" font-family="Times,serif" font-size="14.00">GS:angularGS</text>
</g>
</g>
</svg>
