<?xml version="1.0" encoding="UTF-8" standalone="no"?>
<!DOCTYPE svg PUBLIC "-//W3C//DTD SVG 1.1//EN"
 "http://www.w3.org/Graphics/SVG/1.1/DTD/svg11.dtd">
<!-- Generated by graphviz version 2.43.0 (0)
 -->
<!-- Title: allvsall Pages: 1 -->
<svg width="3900pt" height="218pt"
 viewBox="0.00 0.00 3900.00 217.57" xmlns="http://www.w3.org/2000/svg" xmlns:xlink="http://www.w3.org/1999/xlink">
<g id="graph0" class="graph" transform="scale(1 1) rotate(0) translate(4 213.57)">
<title>allvsall</title>
<polygon fill="white" stroke="transparent" points="-4,4 -4,-213.57 3896,-213.57 3896,4 -4,4"/>
<!-- p_CM -->
<g id="node1" class="node">
<title>p_CM</title>
<polygon fill="#bbffff" stroke="black" points="1406,-108 1288,-108 1288,-72 1406,-72 1406,-108"/>
<text text-anchor="middle" x="1347" y="-86.3" font-family="Times,serif" font-size="14.00">DD:ctrOfMass</text>
</g>
<!-- assumpOT -->
<g id="node2" class="node">
<title>assumpOT</title>
<polygon fill="mistyrose" stroke="black" points="1776,-36 1670,-36 1670,0 1776,0 1776,-36"/>
<text text-anchor="middle" x="1723" y="-14.3" font-family="Times,serif" font-size="14.00">A:assumpOT</text>
</g>
<!-- p_CM&#45;&gt;assumpOT -->
<g id="edge1" class="edge">
<title>p_CM&#45;&gt;assumpOT</title>
<path fill="none" stroke="black" d="M1406.28,-73.9C1409.22,-73.24 1412.14,-72.6 1415,-72 1499.24,-54.25 1597.37,-38.14 1659.82,-28.46"/>
<polygon fill="black" stroke="black" points="1660.56,-31.89 1669.91,-26.9 1659.49,-24.97 1660.56,-31.89"/>
</g>
<!-- linearDisplacement -->
<g id="node3" class="node">
<title>linearDisplacement</title>
<polygon fill="#bbffff" stroke="black" points="1952,-108 1858,-108 1858,-72 1952,-72 1952,-108"/>
<text text-anchor="middle" x="1905" y="-86.3" font-family="Times,serif" font-size="14.00">DD:linDisp</text>
</g>
<!-- linearDisplacement&#45;&gt;assumpOT -->
<g id="edge2" class="edge">
<title>linearDisplacement&#45;&gt;assumpOT</title>
<path fill="none" stroke="black" d="M1860.48,-71.88C1835.27,-62.18 1803.55,-49.98 1776.93,-39.74"/>
<polygon fill="black" stroke="black" points="1777.97,-36.39 1767.38,-36.07 1775.45,-42.92 1777.97,-36.39"/>
</g>
<!-- linearVelocity -->
<g id="node4" class="node">
<title>linearVelocity</title>
<polygon fill="#bbffff" stroke="black" points="2053.5,-108 1970.5,-108 1970.5,-72 2053.5,-72 2053.5,-108"/>
<text text-anchor="middle" x="2012" y="-86.3" font-family="Times,serif" font-size="14.00">DD:linVel</text>
</g>
<!-- linearVelocity&#45;&gt;assumpOT -->
<g id="edge3" class="edge">
<title>linearVelocity&#45;&gt;assumpOT</title>
<path fill="none" stroke="black" d="M1970.37,-74.68C1967.21,-73.73 1964.06,-72.82 1961,-72 1884.31,-51.41 1863.26,-54.35 1786,-36 1785.9,-35.98 1785.8,-35.95 1785.7,-35.93"/>
<polygon fill="black" stroke="black" points="1786.76,-32.59 1776.22,-33.6 1785.1,-39.38 1786.76,-32.59"/>
</g>
<!-- linearAcceleration -->
<g id="node5" class="node">
<title>linearAcceleration</title>
<polygon fill="#bbffff" stroke="black" points="1766,-108 1680,-108 1680,-72 1766,-72 1766,-108"/>
<text text-anchor="middle" x="1723" y="-86.3" font-family="Times,serif" font-size="14.00">DD:linAcc</text>
</g>
<!-- linearAcceleration&#45;&gt;assumpOT -->
<g id="edge4" class="edge">
<title>linearAcceleration&#45;&gt;assumpOT</title>
<path fill="none" stroke="black" d="M1723,-71.7C1723,-63.98 1723,-54.71 1723,-46.11"/>
<polygon fill="black" stroke="black" points="1726.5,-46.1 1723,-36.1 1719.5,-46.1 1726.5,-46.1"/>
</g>
<!-- angularDisplacement -->
<g id="node6" class="node">
<title>angularDisplacement</title>
<polygon fill="#bbffff" stroke="black" points="1232,-108 1130,-108 1130,-72 1232,-72 1232,-108"/>
<text text-anchor="middle" x="1181" y="-86.3" font-family="Times,serif" font-size="14.00">DD:angDisp</text>
</g>
<!-- angularDisplacement&#45;&gt;assumpOT -->
<g id="edge5" class="edge">
<title>angularDisplacement&#45;&gt;assumpOT</title>
<path fill="none" stroke="black" d="M1232.29,-74.85C1236.91,-73.8 1241.53,-72.83 1246,-72 1392.73,-44.81 1567.62,-29.72 1659.45,-23.11"/>
<polygon fill="black" stroke="black" points="1659.96,-26.59 1669.69,-22.39 1659.47,-19.6 1659.96,-26.59"/>
</g>
<!-- assumpOD -->
<g id="node7" class="node">
<title>assumpOD</title>
<polygon fill="mistyrose" stroke="black" points="880,-36 772,-36 772,0 880,0 880,-36"/>
<text text-anchor="middle" x="826" y="-14.3" font-family="Times,serif" font-size="14.00">A:assumpOD</text>
</g>
<!-- angularDisplacement&#45;&gt;assumpOD -->
<g id="edge6" class="edge">
<title>angularDisplacement&#45;&gt;assumpOD</title>
<path fill="none" stroke="black" d="M1129.83,-74.37C1126.51,-73.53 1123.21,-72.74 1120,-72 1041.5,-54.03 950.07,-38.36 890.28,-28.81"/>
<polygon fill="black" stroke="black" points="890.65,-25.33 880.22,-27.22 889.55,-32.24 890.65,-25.33"/>
</g>
<!-- angularVelocity -->
<g id="node8" class="node">
<title>angularVelocity</title>
<polygon fill="#bbffff" stroke="black" points="1516,-108 1424,-108 1424,-72 1516,-72 1516,-108"/>
<text text-anchor="middle" x="1470" y="-86.3" font-family="Times,serif" font-size="14.00">DD:angVel</text>
</g>
<!-- angularVelocity&#45;&gt;assumpOT -->
<g id="edge7" class="edge">
<title>angularVelocity&#45;&gt;assumpOT</title>
<path fill="none" stroke="black" d="M1516.18,-74.59C1519.16,-73.7 1522.12,-72.83 1525,-72 1569.88,-59.06 1620.8,-45.46 1659.76,-35.27"/>
<polygon fill="black" stroke="black" points="1661.11,-38.53 1669.9,-32.62 1659.34,-31.76 1661.11,-38.53"/>
</g>
<!-- angularVelocity&#45;&gt;assumpOD -->
<g id="edge8" class="edge">
<title>angularVelocity&#45;&gt;assumpOD</title>
<path fill="none" stroke="black" d="M1423.97,-74C1420.95,-73.26 1417.94,-72.58 1415,-72 1226.67,-34.85 999.26,-23.69 890.3,-20.38"/>
<polygon fill="black" stroke="black" points="890.23,-16.88 880.14,-20.08 890.03,-23.87 890.23,-16.88"/>
</g>
<!-- angularAcceleration -->
<g id="node9" class="node">
<title>angularAcceleration</title>
<polygon fill="#bbffff" stroke="black" points="1111.5,-108 1004.5,-108 1004.5,-72 1111.5,-72 1111.5,-108"/>
<text text-anchor="middle" x="1058" y="-86.3" font-family="Times,serif" font-size="14.00">DD:angAccel</text>
</g>
<!-- angularAcceleration&#45;&gt;assumpOT -->
<g id="edge9" class="edge">
<title>angularAcceleration&#45;&gt;assumpOT</title>
<path fill="none" stroke="black" d="M1111.82,-73.81C1114.91,-73.15 1117.99,-72.53 1121,-72 1315.4,-37.49 1549.28,-25.08 1659.56,-20.92"/>
<polygon fill="black" stroke="black" points="1659.98,-24.41 1669.85,-20.55 1659.72,-17.41 1659.98,-24.41"/>
</g>
<!-- angularAcceleration&#45;&gt;assumpOD -->
<g id="edge10" class="edge">
<title>angularAcceleration&#45;&gt;assumpOD</title>
<path fill="none" stroke="black" d="M1004.48,-72.85C970.36,-62.56 925.95,-49.16 889.96,-38.3"/>
<polygon fill="black" stroke="black" points="890.64,-34.85 880.05,-35.31 888.61,-41.55 890.64,-34.85"/>
</g>
<!-- velocityB -->
<g id="node10" class="node">
<title>velocityB</title>
<polygon fill="#bbffff" stroke="black" points="1662,-108 1534,-108 1534,-72 1662,-72 1662,-108"/>
<text text-anchor="middle" x="1598" y="-86.3" font-family="Times,serif" font-size="14.00">DD:chaslesThm</text>
</g>
<!-- velocityB&#45;&gt;assumpOT -->
<g id="edge11" class="edge">
<title>velocityB&#45;&gt;assumpOT</title>
<path fill="none" stroke="black" d="M1628.58,-71.88C1645.07,-62.64 1665.62,-51.13 1683.34,-41.21"/>
<polygon fill="black" stroke="black" points="1685.29,-44.13 1692.3,-36.19 1681.87,-38.02 1685.29,-44.13"/>
</g>
<!-- kEnergy -->
<g id="node11" class="node">
<title>kEnergy</title>
<polygon fill="#bbffff" stroke="black" points="986,-108 882,-108 882,-72 986,-72 986,-108"/>
<text text-anchor="middle" x="934" y="-86.3" font-family="Times,serif" font-size="14.00">DD:kEnergy</text>
</g>
<!-- kEnergy&#45;&gt;assumpOT -->
<g id="edge12" class="edge">
<title>kEnergy&#45;&gt;assumpOT</title>
<path fill="none" stroke="black" d="M986.09,-73.75C989.09,-73.1 992.08,-72.51 995,-72 1237.87,-29.75 1532,-21.11 1659.25,-19.39"/>
<polygon fill="black" stroke="black" points="1659.62,-22.89 1669.58,-19.26 1659.54,-15.89 1659.62,-22.89"/>
</g>
<!-- kEnergy&#45;&gt;assumpOD -->
<g id="edge13" class="edge">
<title>kEnergy&#45;&gt;assumpOD</title>
<path fill="none" stroke="black" d="M907.58,-71.88C893.59,-62.81 876.22,-51.55 861.11,-41.76"/>
<polygon fill="black" stroke="black" points="862.82,-38.69 852.52,-36.19 859.01,-44.57 862.82,-38.69"/>
</g>
<!-- assumpDI -->
<g id="node12" class="node">
<title>assumpDI</title>
<polygon fill="mistyrose" stroke="black" points="485,-36 383,-36 383,0 485,0 485,-36"/>
<text text-anchor="middle" x="434" y="-14.3" font-family="Times,serif" font-size="14.00">A:assumpDI</text>
</g>
<!-- kEnergy&#45;&gt;assumpDI -->
<g id="edge14" class="edge">
<title>kEnergy&#45;&gt;assumpDI</title>
<path fill="none" stroke="black" d="M881.77,-85.36C800.79,-79.15 640.05,-64.49 495.22,-36.07"/>
<polygon fill="black" stroke="black" points="495.75,-32.61 485.26,-34.09 494.38,-39.48 495.75,-32.61"/>
</g>
<!-- v_iAB -->
<g id="node13" class="node">
<title>v_iAB</title>
<polygon fill="#bbffff" stroke="black" points="2190,-108 2072,-108 2072,-72 2190,-72 2190,-108"/>
<text text-anchor="middle" x="2131" y="-86.3" font-family="Times,serif" font-size="14.00">DD:reVeInColl</text>
</g>
<!-- v_iAB&#45;&gt;assumpOT -->
<g id="edge15" class="edge">
<title>v_iAB&#45;&gt;assumpOT</title>
<path fill="none" stroke="black" d="M2071.75,-73.76C2068.8,-73.13 2065.87,-72.54 2063,-72 1941.02,-48.91 1907.76,-60.23 1786,-36 1785.9,-35.98 1785.8,-35.96 1785.7,-35.94"/>
<polygon fill="black" stroke="black" points="1786.67,-32.57 1776.16,-33.88 1785.19,-39.41 1786.67,-32.57"/>
</g>
<!-- impulseV -->
<g id="node14" class="node">
<title>impulseV</title>
<polygon fill="#bbffff" stroke="black" points="2318,-108 2208,-108 2208,-72 2318,-72 2318,-108"/>
<text text-anchor="middle" x="2263" y="-86.3" font-family="Times,serif" font-size="14.00">DD:impulseV</text>
</g>
<!-- impulseV&#45;&gt;assumpOT -->
<g id="edge16" class="edge">
<title>impulseV&#45;&gt;assumpOT</title>
<path fill="none" stroke="black" d="M2207.98,-73.74C2204.95,-73.1 2201.94,-72.52 2199,-72 2017.51,-40.23 1967.43,-68.13 1786,-36 1785.9,-35.98 1785.8,-35.96 1785.7,-35.95"/>
<polygon fill="black" stroke="black" points="1786.62,-32.56 1776.13,-34.04 1785.25,-39.43 1786.62,-32.56"/>
</g>
<!-- potEnergy -->
<g id="node15" class="node">
<title>potEnergy</title>
<polygon fill="#bbffff" stroke="black" points="713.5,-108 594.5,-108 594.5,-72 713.5,-72 713.5,-108"/>
<text text-anchor="middle" x="654" y="-86.3" font-family="Times,serif" font-size="14.00">DD:potEnergy</text>
</g>
<!-- potEnergy&#45;&gt;assumpOT -->
<g id="edge17" class="edge">
<title>potEnergy&#45;&gt;assumpOT</title>
<path fill="none" stroke="black" d="M713.94,-84.1C757.94,-80.56 819.17,-75.77 873,-72 1166.9,-51.43 1518.26,-30.77 1659.56,-22.62"/>
<polygon fill="black" stroke="black" points="1659.99,-26.11 1669.77,-22.04 1659.59,-19.12 1659.99,-26.11"/>
</g>
<!-- potEnergy&#45;&gt;assumpOD -->
<g id="edge18" class="edge">
<title>potEnergy&#45;&gt;assumpOD</title>
<path fill="none" stroke="black" d="M696.08,-71.88C719.8,-62.22 749.62,-50.09 774.7,-39.88"/>
<polygon fill="black" stroke="black" points="776.12,-43.08 784.06,-36.07 773.48,-36.6 776.12,-43.08"/>
</g>
<!-- potEnergy&#45;&gt;assumpDI -->
<g id="edge19" class="edge">
<title>potEnergy&#45;&gt;assumpDI</title>
<path fill="none" stroke="black" d="M600.46,-71.97C568.51,-61.8 527.84,-48.86 494.7,-38.31"/>
<polygon fill="black" stroke="black" points="495.71,-34.96 485.12,-35.27 493.59,-41.63 495.71,-34.96"/>
</g>
<!-- momentOfInertia -->
<g id="node16" class="node">
<title>momentOfInertia</title>
<polygon fill="#bbffff" stroke="black" points="2503.5,-108 2336.5,-108 2336.5,-72 2503.5,-72 2503.5,-108"/>
<text text-anchor="middle" x="2420" y="-86.3" font-family="Times,serif" font-size="14.00">DD:momentOfInertia</text>
</g>
<!-- momentOfInertia&#45;&gt;assumpOT -->
<g id="edge20" class="edge">
<title>momentOfInertia&#45;&gt;assumpOT</title>
<path fill="none" stroke="black" d="M2336.42,-73.26C2333.24,-72.81 2330.09,-72.38 2327,-72 2087.86,-42.29 2023.7,-75.58 1786,-36 1785.9,-35.98 1785.8,-35.97 1785.7,-35.95"/>
<polygon fill="black" stroke="black" points="1786.59,-32.56 1776.11,-34.12 1785.28,-39.43 1786.59,-32.56"/>
</g>
<!-- newtonSLR -->
<g id="node17" class="node">
<title>newtonSLR</title>
<polygon fill="pink" stroke="black" points="1184,-180 976,-180 976,-144 1184,-144 1184,-180"/>
<text text-anchor="middle" x="1080" y="-158.3" font-family="Times,serif" font-size="14.00">TM:NewtonSecLawRotMot</text>
</g>
<!-- newtonSLR&#45;&gt;assumpOD -->
<g id="edge21" class="edge">
<title>newtonSLR&#45;&gt;assumpOD</title>
<path fill="none" stroke="black" d="M983,-143.98C938.03,-134.55 890.66,-121.93 873,-108 853.05,-92.26 840.6,-65.68 833.56,-45.66"/>
<polygon fill="black" stroke="black" points="836.89,-44.57 830.45,-36.16 830.24,-46.75 836.89,-44.57"/>
</g>
<!-- theory -->
<g id="node18" class="node">
<title>theory</title>
<polygon fill="#fff68f" stroke="black" points="922,-180 832,-180 832,-144 922,-144 922,-180"/>
<text text-anchor="middle" x="877" y="-158.3" font-family="Times,serif" font-size="14.00">IM:rotMot</text>
</g>
<!-- theory&#45;&gt;p_CM -->
<g id="edge31" class="edge">
<title>theory:accj&#45;&gt;p_CM</title>
<path fill="none" stroke="black" d="M922.22,-151.82C936.51,-149.09 952.38,-146.23 967,-144 1102.8,-123.24 1138.67,-131.62 1274,-108 1275.26,-107.78 1276.53,-107.55 1277.82,-107.32"/>
<polygon fill="black" stroke="black" points="1278.6,-110.73 1287.75,-105.38 1277.27,-103.86 1278.6,-110.73"/>
</g>
<!-- theory&#45;&gt;assumpOT -->
<g id="edge23" class="edge">
<title>theory:impulseS&#45;&gt;assumpOT</title>
<path fill="none" stroke="black" d="M922.43,-147.88C931.2,-146.37 940.31,-145.01 949,-144 993.63,-138.82 1725.94,-140.47 1757,-108 1774.97,-89.22 1755.8,-63.1 1739.15,-44.01"/>
<polygon fill="black" stroke="black" points="1741.55,-41.44 1732.28,-36.31 1736.32,-46.1 1741.55,-41.44"/>
</g>
<!-- theory&#45;&gt;assumpOT -->
<g id="edge27" class="edge">
<title>theory:accj&#45;&gt;assumpOT</title>
<path fill="none" stroke="black" d="M922.13,-151.18C936.42,-148.42 952.31,-145.71 967,-144 1011.63,-138.82 1743.94,-140.47 1775,-108 1793.21,-88.96 1773.29,-62.39 1753.06,-43.25"/>
<polygon fill="black" stroke="black" points="1755.14,-40.41 1745.38,-36.31 1750.45,-45.61 1755.14,-40.41"/>
</g>
<!-- theory&#45;&gt;assumpOT -->
<g id="edge37" class="edge">
<title>theory:angAccj&#45;&gt;assumpOT</title>
<path fill="none" stroke="black" d="M922.13,-154.35C941.93,-150.66 964.62,-146.37 985,-144 1029.63,-138.82 1761.94,-140.47 1793,-108 1811.45,-88.71 1790.75,-61.69 1766.7,-42.49"/>
<polygon fill="black" stroke="black" points="1768.56,-39.52 1758.47,-36.31 1764.36,-45.11 1768.56,-39.52"/>
</g>
<!-- theory&#45;&gt;linearDisplacement -->
<g id="edge32" class="edge">
<title>theory:accj&#45;&gt;linearDisplacement</title>
<path fill="none" stroke="black" d="M922.13,-151.14C936.41,-148.38 952.31,-145.68 967,-144 1354.58,-99.68 1458.66,-168.77 1844,-108 1845.28,-107.8 1846.58,-107.58 1847.88,-107.34"/>
<polygon fill="black" stroke="black" points="1848.86,-110.71 1857.95,-105.27 1847.45,-103.86 1848.86,-110.71"/>
</g>
<!-- theory&#45;&gt;linearVelocity -->
<g id="edge33" class="edge">
<title>theory:accj&#45;&gt;linearVelocity</title>
<path fill="none" stroke="black" d="M922.12,-151.1C936.41,-148.34 952.3,-145.64 967,-144 1403,-95.21 1524.16,-185.32 1960.19,-107.78"/>
<polygon fill="black" stroke="black" points="1961,-111.19 1970.22,-105.98 1959.76,-104.3 1961,-111.19"/>
</g>
<!-- theory&#45;&gt;linearAcceleration -->
<g id="edge34" class="edge">
<title>theory:accj&#45;&gt;linearAcceleration</title>
<path fill="none" stroke="black" d="M922.14,-151.23C936.42,-148.48 952.32,-145.75 967,-144 1274.74,-107.24 1361.11,-163.94 1669.68,-107.93"/>
<polygon fill="black" stroke="black" points="1670.61,-111.32 1679.81,-106.07 1669.34,-104.44 1670.61,-111.32"/>
</g>
<!-- theory&#45;&gt;angularDisplacement -->
<g id="edge40" class="edge">
<title>theory:angAccj&#45;&gt;angularDisplacement</title>
<path fill="none" stroke="black" d="M922.41,-151.9C971.36,-141.91 1051.48,-125.01 1120,-108 1120.1,-107.98 1120.2,-107.95 1120.3,-107.93"/>
<polygon fill="black" stroke="black" points="1120.98,-111.36 1129.8,-105.5 1119.25,-104.58 1120.98,-111.36"/>
</g>
<!-- theory&#45;&gt;assumpOD -->
<g id="edge24" class="edge">
<title>theory:impulseS&#45;&gt;assumpOD</title>
<path fill="none" stroke="black" d="M845.82,-143.55C836.04,-133.75 827.2,-120.91 822,-108 814.03,-88.2 810.58,-64.22 811.82,-46.15"/>
<polygon fill="black" stroke="black" points="815.32,-46.37 813.15,-36 808.38,-45.46 815.32,-46.37"/>
</g>
<!-- theory&#45;&gt;assumpOD -->
<g id="edge28" class="edge">
<title>theory:accj&#45;&gt;assumpOD</title>
<path fill="none" stroke="black" d="M861.78,-143.55C854.04,-133.75 845.2,-120.91 840,-108 832.03,-88.2 828.58,-64.22 827.09,-46.15"/>
<polygon fill="black" stroke="black" points="830.57,-45.75 826.41,-36 823.59,-46.21 830.57,-45.75"/>
</g>
<!-- theory&#45;&gt;assumpOD -->
<g id="edge38" class="edge">
<title>theory:angAccj&#45;&gt;assumpOD</title>
<path fill="none" stroke="black" d="M877.73,-143.55C872.04,-133.75 863.2,-120.91 858,-108 849.99,-88.11 846.55,-64 842.31,-45.89"/>
<polygon fill="black" stroke="black" points="845.63,-44.77 839.68,-36 838.87,-46.57 845.63,-44.77"/>
</g>
<!-- theory&#45;&gt;angularVelocity -->
<g id="edge41" class="edge">
<title>theory:angAccj&#45;&gt;angularVelocity</title>
<path fill="none" stroke="black" d="M922.17,-151.49C936.46,-148.75 952.34,-145.97 967,-144 1161.69,-117.87 1217.01,-144.8 1413.88,-107.95"/>
<polygon fill="black" stroke="black" points="1414.8,-111.34 1423.97,-106.03 1413.49,-104.46 1414.8,-111.34"/>
</g>
<!-- theory&#45;&gt;angularAcceleration -->
<g id="edge42" class="edge">
<title>theory:angAccj&#45;&gt;angularAcceleration</title>
<path fill="none" stroke="black" d="M921.28,-143.88C946.35,-134.18 977.9,-121.98 1004.37,-111.74"/>
<polygon fill="black" stroke="black" points="1005.8,-114.94 1013.87,-108.07 1003.28,-108.41 1005.8,-114.94"/>
</g>
<!-- theory&#45;&gt;assumpDI -->
<g id="edge29" class="edge">
<title>theory:accj&#45;&gt;assumpDI</title>
<path fill="none" stroke="black" d="M831.9,-155.93C756.73,-147.06 609.32,-127.79 561,-108 522.72,-92.32 484.65,-63.41 460.32,-42.79"/>
<polygon fill="black" stroke="black" points="462.47,-40.03 452.61,-36.15 457.9,-45.33 462.47,-40.03"/>
</g>
<!-- theory&#45;&gt;newtonSLR -->
<g id="edge43" class="edge">
<title>theory:angAccj&#45;&gt;newtonSLR</title>
<path fill="none" stroke="black" d="M922.2,-162C936.72,-162 951.25,-162 965.77,-162"/>
<polygon fill="black" stroke="black" points="965.83,-165.5 975.83,-162 965.83,-158.5 965.83,-165.5"/>
</g>
<!-- theory&#45;&gt;theory -->
<g id="edge22" class="edge">
<title>theory:gravitationalAccel&#45;&gt;theory:force</title>
<path fill="none" stroke="black" d="M922.02,-168.6C932.39,-168.03 940,-165.83 940,-162 940,-159.6 937.03,-157.85 932.26,-156.73"/>
<polygon fill="black" stroke="black" points="932.39,-153.21 922.02,-155.4 931.49,-160.16 932.39,-153.21"/>
</g>
<!-- theory&#45;&gt;theory -->
<g id="edge36" class="edge">
<title>theory:accj&#45;&gt;theory:gravitationalAccel</title>
<path fill="none" stroke="black" d="M922.39,-175.36C941.62,-176.37 958,-171.91 958,-162 958,-153.87 946.98,-149.41 932.4,-148.63"/>
<polygon fill="black" stroke="black" points="932.38,-145.13 922.39,-148.64 932.39,-152.13 932.38,-145.13"/>
</g>
<!-- assumpAD -->
<g id="node19" class="node">
<title>assumpAD</title>
<polygon fill="mistyrose" stroke="black" points="610.5,-36 503.5,-36 503.5,0 610.5,0 610.5,-36"/>
<text text-anchor="middle" x="557" y="-14.3" font-family="Times,serif" font-size="14.00">A:assumpAD</text>
</g>
<!-- theory&#45;&gt;assumpAD -->
<g id="edge25" class="edge">
<title>theory:impulseS&#45;&gt;assumpAD</title>
<path fill="none" stroke="black" d="M831.82,-156.05C752.36,-146.39 594.72,-124.51 576,-108 558.49,-92.56 551.82,-66.3 550.94,-46.3"/>
<polygon fill="black" stroke="black" points="554.44,-46.24 551,-36.22 547.44,-46.2 554.44,-46.24"/>
</g>
<!-- theory&#45;&gt;assumpAD -->
<g id="edge39" class="edge">
<title>theory:angAccj&#45;&gt;assumpAD</title>
<path fill="none" stroke="black" d="M831.8,-154.67C756.4,-144.42 611.87,-123.76 594,-108 576.49,-92.56 569.82,-66.3 565.73,-46.3"/>
<polygon fill="black" stroke="black" points="569.11,-45.34 563.73,-36.22 562.25,-46.71 569.11,-45.34"/>
</g>
<!-- assumpCT -->
<g id="node20" class="node">
<title>assumpCT</title>
<polygon fill="mistyrose" stroke="black" points="295.5,-36 190.5,-36 190.5,0 295.5,0 295.5,-36"/>
<text text-anchor="middle" x="243" y="-14.3" font-family="Times,serif" font-size="14.00">A:assumpCT</text>
</g>
<!-- theory&#45;&gt;assumpCT -->
<g id="edge26" class="edge">
<title>theory:impulseS&#45;&gt;assumpCT</title>
<path fill="none" stroke="black" d="M831.7,-156.35C706.76,-143.52 366.36,-108.52 365,-108 327.34,-93.54 290.88,-64.31 267.78,-43.29"/>
<polygon fill="black" stroke="black" points="269.9,-40.48 260.19,-36.24 265.13,-45.61 269.9,-40.48"/>
</g>
<!-- assumpCAJI -->
<g id="node21" class="node">
<title>assumpCAJI</title>
<polygon fill="mistyrose" stroke="black" points="160,-36 44,-36 44,0 160,0 160,-36"/>
<text text-anchor="middle" x="102" y="-14.3" font-family="Times,serif" font-size="14.00">A:assumpCAJI</text>
</g>
<!-- theory&#45;&gt;assumpCAJI -->
<g id="edge30" class="edge">
<title>theory:accj&#45;&gt;assumpCAJI</title>
<path fill="none" stroke="black" d="M831.95,-155.99C798.58,-152.38 751.99,-147.53 711,-144 596.92,-134.17 300.13,-157.74 197,-108 177.45,-98.57 179.61,-87.08 164,-72 153.61,-61.97 141.66,-51.51 131.04,-42.57"/>
<polygon fill="black" stroke="black" points="133.14,-39.77 123.22,-36.06 128.66,-45.15 133.14,-39.77"/>
</g>
<!-- newtonSL -->
<g id="node22" class="node">
<title>newtonSL</title>
<polygon fill="pink" stroke="black" points="1385.5,-180 1202.5,-180 1202.5,-144 1385.5,-144 1385.5,-180"/>
<text text-anchor="middle" x="1294" y="-158.3" font-family="Times,serif" font-size="14.00">TM:NewtonSecLawMot</text>
</g>
<!-- theory&#45;&gt;newtonSL -->
<g id="edge35" class="edge">
<title>theory:accj&#45;&gt;newtonSL</title>
<path fill="none" stroke="black" d="M917.06,-180.17C934.74,-187.24 956.01,-194.48 976,-198 1067.04,-214.04 1092.71,-212.56 1184,-198 1202.67,-195.02 1222.47,-189.37 1240.05,-183.41"/>
<polygon fill="black" stroke="black" points="1241.29,-186.69 1249.57,-180.09 1238.98,-180.08 1241.29,-186.69"/>
</g>
<!-- col2DIM -->
<g id="node23" class="node">
<title>col2DIM</title>
<polygon fill="#fff68f" stroke="black" points="702.5,-180 621.5,-180 621.5,-144 702.5,-144 702.5,-180"/>
<text text-anchor="middle" x="662" y="-158.3" font-family="Times,serif" font-size="14.00">IM:col2D</text>
</g>
<!-- col2DIM&#45;&gt;p_CM -->
<g id="edge50" class="edge">
<title>col2DIM&#45;&gt;p_CM</title>
<path fill="none" stroke="black" d="M702.67,-156.42C735.2,-152.82 782,-147.8 823,-144 1023.22,-125.44 1075.3,-138.89 1274,-108 1275.27,-107.8 1276.54,-107.6 1277.83,-107.38"/>
<polygon fill="black" stroke="black" points="1278.57,-110.8 1287.78,-105.57 1277.32,-103.92 1278.57,-110.8"/>
</g>
<!-- col2DIM&#45;&gt;assumpOT -->
<g id="edge44" class="edge">
<title>col2DIM&#45;&gt;assumpOT</title>
<path fill="none" stroke="black" d="M702.67,-156.49C735.21,-152.93 782.01,-147.93 823,-144 915.81,-135.1 1155.95,-146.2 1241,-108 1262.22,-98.47 1257.94,-81.88 1279,-72 1345.06,-41.01 1553.53,-26.96 1659.63,-21.67"/>
<polygon fill="black" stroke="black" points="1660.06,-25.16 1669.88,-21.17 1659.72,-18.16 1660.06,-25.16"/>
</g>
<!-- col2DIM&#45;&gt;assumpOD -->
<g id="edge45" class="edge">
<title>col2DIM&#45;&gt;assumpOD</title>
<path fill="none" stroke="black" d="M681.78,-143.87C710.84,-118.71 765.19,-71.65 798.23,-43.04"/>
<polygon fill="black" stroke="black" points="800.88,-45.38 806.15,-36.19 796.3,-40.09 800.88,-45.38"/>
</g>
<!-- col2DIM&#45;&gt;assumpDI -->
<g id="edge48" class="edge">
<title>col2DIM&#45;&gt;assumpDI</title>
<path fill="none" stroke="black" d="M621.36,-159.94C547.81,-157.06 397.24,-146.5 365,-108 354.73,-95.73 357.93,-86.35 365,-72 370.96,-59.91 381.15,-49.8 391.9,-41.77"/>
<polygon fill="black" stroke="black" points="393.94,-44.61 400.16,-36.04 389.95,-38.86 393.94,-44.61"/>
</g>
<!-- col2DIM&#45;&gt;theory -->
<g id="edge51" class="edge">
<title>col2DIM&#45;&gt;theory:impulseS</title>
<path fill="none" stroke="black" d="M702.73,-162C742.37,-162 782.01,-162 821.65,-162"/>
<polygon fill="black" stroke="black" points="821.73,-165.5 831.73,-162 821.73,-158.5 821.73,-165.5"/>
</g>
<!-- col2DIM&#45;&gt;assumpAD -->
<g id="edge46" class="edge">
<title>col2DIM&#45;&gt;assumpAD</title>
<path fill="none" stroke="black" d="M621.3,-156.04C591.6,-150.06 553.31,-136.9 534,-108 521.41,-89.16 529.86,-63.83 539.89,-45.02"/>
<polygon fill="black" stroke="black" points="543.07,-46.51 545.01,-36.1 537,-43.03 543.07,-46.51"/>
</g>
<!-- col2DIM&#45;&gt;assumpCT -->
<g id="edge47" class="edge">
<title>col2DIM&#45;&gt;assumpCT</title>
<path fill="none" stroke="black" d="M621.28,-159.4C513.13,-154.74 225.07,-139.45 197,-108 180.03,-88.98 197.56,-62.57 215.66,-43.47"/>
<polygon fill="black" stroke="black" points="218.24,-45.83 222.81,-36.28 213.28,-40.9 218.24,-45.83"/>
</g>
<!-- col2DIM&#45;&gt;assumpCAJI -->
<g id="edge49" class="edge">
<title>col2DIM&#45;&gt;assumpCAJI</title>
<path fill="none" stroke="black" d="M621.3,-160C520.7,-156.97 263.03,-145.65 187,-108 158.18,-93.73 133.87,-65.48 118.73,-44.62"/>
<polygon fill="black" stroke="black" points="121.42,-42.36 112.81,-36.19 115.69,-46.39 121.42,-42.36"/>
</g>
<!-- lcEC -->
<g id="node24" class="node">
<title>lcEC</title>
<polygon fill="lavender" stroke="black" points="280,-108 206,-108 206,-72 280,-72 280,-108"/>
<text text-anchor="middle" x="243" y="-86.3" font-family="Times,serif" font-size="14.00">LC:lcEC</text>
</g>
<!-- lcEC&#45;&gt;assumpCT -->
<g id="edge52" class="edge">
<title>lcEC&#45;&gt;assumpCT</title>
<path fill="none" stroke="black" d="M243,-71.7C243,-63.98 243,-54.71 243,-46.11"/>
<polygon fill="black" stroke="black" points="246.5,-46.1 243,-36.1 239.5,-46.1 246.5,-46.1"/>
</g>
<!-- lcID -->
<g id="node25" class="node">
<title>lcID</title>
<polygon fill="lavender" stroke="black" points="443.5,-108 374.5,-108 374.5,-72 443.5,-72 443.5,-108"/>
<text text-anchor="middle" x="409" y="-86.3" font-family="Times,serif" font-size="14.00">LC:lcID</text>
</g>
<!-- lcID&#45;&gt;assumpDI -->
<g id="edge53" class="edge">
<title>lcID&#45;&gt;assumpDI</title>
<path fill="none" stroke="black" d="M415.18,-71.7C418,-63.81 421.39,-54.3 424.52,-45.55"/>
<polygon fill="black" stroke="black" points="427.82,-46.7 427.89,-36.1 421.23,-44.34 427.82,-46.7"/>
</g>
<!-- lcIJC -->
<g id="node26" class="node">
<title>lcIJC</title>
<polygon fill="lavender" stroke="black" points="74,-108 0,-108 0,-72 74,-72 74,-108"/>
<text text-anchor="middle" x="37" y="-86.3" font-family="Times,serif" font-size="14.00">LC:lcIJC</text>
</g>
<!-- lcIJC&#45;&gt;assumpCAJI -->
<g id="edge54" class="edge">
<title>lcIJC&#45;&gt;assumpCAJI</title>
<path fill="none" stroke="black" d="M53.07,-71.7C60.94,-63.22 70.56,-52.86 79.17,-43.58"/>
<polygon fill="black" stroke="black" points="81.88,-45.81 86.12,-36.1 76.75,-41.05 81.88,-45.81"/>
</g>
<!-- assumpCST -->
<g id="node27" class="node">
<title>assumpCST</title>
<polygon fill="mistyrose" stroke="black" points="1909.5,-36 1794.5,-36 1794.5,0 1909.5,0 1909.5,-36"/>
<text text-anchor="middle" x="1852" y="-14.3" font-family="Times,serif" font-size="14.00">A:assumpCST</text>
</g>
<!-- torque -->
<g id="node28" class="node">
<title>torque</title>
<polygon fill="#bbffff" stroke="black" points="2612.5,-108 2521.5,-108 2521.5,-72 2612.5,-72 2612.5,-108"/>
<text text-anchor="middle" x="2567" y="-86.3" font-family="Times,serif" font-size="14.00">DD:torque</text>
</g>
<!-- restitutionCoef -->
<g id="node29" class="node">
<title>restitutionCoef</title>
<polygon fill="#bbffff" stroke="black" points="2787.5,-108 2630.5,-108 2630.5,-72 2787.5,-72 2787.5,-108"/>
<text text-anchor="middle" x="2709" y="-86.3" font-family="Times,serif" font-size="14.00">DD:coeffRestitution</text>
</g>
<!-- simSpace -->
<g id="node30" class="node">
<title>simSpace</title>
<polygon fill="ivory" stroke="black" points="1514,-180 1404,-180 1404,-144 1514,-144 1514,-180"/>
<text text-anchor="middle" x="1459" y="-158.3" font-family="Times,serif" font-size="14.00">FR:simSpace</text>
</g>
<!-- inputInitialConds -->
<g id="node31" class="node">
<title>inputInitialConds</title>
<polygon fill="ivory" stroke="black" points="1697.5,-180 1532.5,-180 1532.5,-144 1697.5,-144 1697.5,-180"/>
<text text-anchor="middle" x="1615" y="-158.3" font-family="Times,serif" font-size="14.00">FR:inputInitialConds</text>
</g>
<!-- inputSurfaceProps -->
<g id="node32" class="node">
<title>inputSurfaceProps</title>
<polygon fill="ivory" stroke="black" points="1890.5,-180 1715.5,-180 1715.5,-144 1890.5,-144 1890.5,-180"/>
<text text-anchor="middle" x="1803" y="-158.3" font-family="Times,serif" font-size="14.00">FR:inputSurfaceProps</text>
</g>
<!-- verifyPhysCons -->
<g id="node33" class="node">
<title>verifyPhysCons</title>
<polygon fill="ivory" stroke="black" points="2061,-180 1909,-180 1909,-144 2061,-144 2061,-180"/>
<text text-anchor="middle" x="1985" y="-158.3" font-family="Times,serif" font-size="14.00">FR:verifyPhysCons</text>
</g>
<!-- calcTransOverTime -->
<g id="node34" class="node">
<title>calcTransOverTime</title>
<polygon fill="ivory" stroke="black" points="2258.5,-180 2079.5,-180 2079.5,-144 2258.5,-144 2258.5,-180"/>
<text text-anchor="middle" x="2169" y="-158.3" font-family="Times,serif" font-size="14.00">FR:calcTransOverTime</text>
</g>
<!-- calcRotOverTime -->
<g id="node35" class="node">
<title>calcRotOverTime</title>
<polygon fill="ivory" stroke="black" points="2441,-180 2277,-180 2277,-144 2441,-144 2441,-180"/>
<text text-anchor="middle" x="2359" y="-158.3" font-family="Times,serif" font-size="14.00">FR:calcRotOverTime</text>
</g>
<!-- deterColls -->
<g id="node36" class="node">
<title>deterColls</title>
<polygon fill="ivory" stroke="black" points="2574.5,-180 2459.5,-180 2459.5,-144 2574.5,-144 2574.5,-180"/>
<text text-anchor="middle" x="2517" y="-158.3" font-family="Times,serif" font-size="14.00">FR:deterColls</text>
</g>
<!-- deterCollRespOverTime -->
<g id="node37" class="node">
<title>deterCollRespOverTime</title>
<polygon fill="ivory" stroke="black" points="2805,-180 2593,-180 2593,-144 2805,-144 2805,-180"/>
<text text-anchor="middle" x="2699" y="-158.3" font-family="Times,serif" font-size="14.00">FR:deterCollRespOverTime</text>
</g>
<!-- performance -->
<g id="node38" class="node">
<title>performance</title>
<polygon fill="ivory" stroke="black" points="2967,-180 2823,-180 2823,-144 2967,-144 2967,-180"/>
<text text-anchor="middle" x="2895" y="-158.3" font-family="Times,serif" font-size="14.00">NFR:performance</text>
</g>
<!-- correctness -->
<g id="node39" class="node">
<title>correctness</title>
<polygon fill="ivory" stroke="black" points="3122.5,-180 2985.5,-180 2985.5,-144 3122.5,-144 3122.5,-180"/>
<text text-anchor="middle" x="3054" y="-158.3" font-family="Times,serif" font-size="14.00">NFR:correctness</text>
</g>
<!-- usability -->
<g id="node40" class="node">
<title>usability</title>
<polygon fill="ivory" stroke="black" points="3255.5,-180 3140.5,-180 3140.5,-144 3255.5,-144 3255.5,-180"/>
<text text-anchor="middle" x="3198" y="-158.3" font-family="Times,serif" font-size="14.00">NFR:usability</text>
</g>
<!-- understandability -->
<g id="node41" class="node">
<title>understandability</title>
<polygon fill="ivory" stroke="black" points="3454,-180 3274,-180 3274,-144 3454,-144 3454,-180"/>
<text text-anchor="middle" x="3364" y="-158.3" font-family="Times,serif" font-size="14.00">NFR:understandability</text>
</g>
<!-- maintainability -->
<g id="node42" class="node">
<title>maintainability</title>
<polygon fill="ivory" stroke="black" points="3633.5,-180 3472.5,-180 3472.5,-144 3633.5,-144 3633.5,-180"/>
<text text-anchor="middle" x="3553" y="-158.3" font-family="Times,serif" font-size="14.00">NFR:maintainability</text>
</g>
<!-- linearGS -->
<g id="node43" class="node">
<title>linearGS</title>
<polygon fill="#ffb90f" stroke="black" points="3756,-180 3652,-180 3652,-144 3756,-144 3756,-180"/>
<text text-anchor="middle" x="3704" y="-158.3" font-family="Times,serif" font-size="14.00">GS:linearGS</text>
</g>
<!-- angularGS -->
<g id="node44" class="node">
<title>angularGS</title>
<polygon fill="#ffb90f" stroke="black" points="3892,-180 3774,-180 3774,-144 3892,-144 3892,-180"/>
<text text-anchor="middle" x="3833" y="-158.3" font-family="Times,serif" font-size="14.00">GS:angularGS</text>
</g>
<!-- lcVODES -->
<g id="node45" class="node">
<title>lcVODES</title>
<polygon fill="lavender" stroke="black" points="2910.5,-108 2805.5,-108 2805.5,-72 2910.5,-72 2910.5,-108"/>
<text text-anchor="middle" x="2858" y="-86.3" font-family="Times,serif" font-size="14.00">LC:lcVODES</text>
</g>
<!-- ucSRB -->
<g id="node46" class="node">
<title>ucSRB</title>
<polygon fill="lavender" stroke="black" points="3019.5,-108 2928.5,-108 2928.5,-72 3019.5,-72 3019.5,-108"/>
<text text-anchor="middle" x="2974" y="-86.3" font-family="Times,serif" font-size="14.00">UC:ucSRB</text>
</g>
<!-- ucEI -->
<g id="node47" class="node">
<title>ucEI</title>
<polygon fill="lavender" stroke="black" points="3114,-108 3038,-108 3038,-72 3114,-72 3114,-108"/>
<text text-anchor="middle" x="3076" y="-86.3" font-family="Times,serif" font-size="14.00">UC:ucEI</text>
</g>
<!-- ucCCS -->
<g id="node48" class="node">
<title>ucCCS</title>
<polygon fill="lavender" stroke="black" points="3223.5,-108 3132.5,-108 3132.5,-72 3223.5,-72 3223.5,-108"/>
<text text-anchor="middle" x="3178" y="-86.3" font-family="Times,serif" font-size="14.00">UC:ucCCS</text>
</g>
<!-- ucORB -->
<g id="node49" class="node">
<title>ucORB</title>
<polygon fill="lavender" stroke="black" points="3334,-108 3242,-108 3242,-72 3334,-72 3334,-108"/>
<text text-anchor="middle" x="3288" y="-86.3" font-family="Times,serif" font-size="14.00">UC:ucORB</text>
</g>
</g>
</svg>
