<?xml version="1.0" encoding="UTF-8" standalone="no"?>
<!DOCTYPE svg PUBLIC "-//W3C//DTD SVG 1.1//EN"
 "http://www.w3.org/Graphics/SVG/1.1/DTD/svg11.dtd">
<!-- Generated by graphviz version 2.43.0 (0)
 -->
<!-- Title: allvsr Pages: 1 -->
<svg width="6773pt" height="44pt"
 viewBox="0.00 0.00 6773.00 44.00" xmlns="http://www.w3.org/2000/svg" xmlns:xlink="http://www.w3.org/1999/xlink">
<g id="graph0" class="graph" transform="scale(1 1) rotate(0) translate(4 40)">
<title>allvsr</title>
<polygon fill="white" stroke="transparent" points="-4,4 -4,-40 6769,-40 6769,4 -4,4"/>
<!-- assumpOT -->
<g id="node1" class="node">
<title>assumpOT</title>
<polygon fill="mistyrose" stroke="black" points="106,-36 0,-36 0,0 106,0 106,-36"/>
<text text-anchor="middle" x="53" y="-14.3" font-family="Times,serif" font-size="14.00">A:assumpOT</text>
</g>
<!-- assumpOD -->
<g id="node2" class="node">
<title>assumpOD</title>
<polygon fill="mistyrose" stroke="black" points="232,-36 124,-36 124,0 232,0 232,-36"/>
<text text-anchor="middle" x="178" y="-14.3" font-family="Times,serif" font-size="14.00">A:assumpOD</text>
</g>
<!-- assumpCST -->
<g id="node3" class="node">
<title>assumpCST</title>
<polygon fill="mistyrose" stroke="black" points="365.5,-36 250.5,-36 250.5,0 365.5,0 365.5,-36"/>
<text text-anchor="middle" x="308" y="-14.3" font-family="Times,serif" font-size="14.00">A:assumpCST</text>
</g>
<!-- assumpAD -->
<g id="node4" class="node">
<title>assumpAD</title>
<polygon fill="mistyrose" stroke="black" points="490.5,-36 383.5,-36 383.5,0 490.5,0 490.5,-36"/>
<text text-anchor="middle" x="437" y="-14.3" font-family="Times,serif" font-size="14.00">A:assumpAD</text>
</g>
<!-- assumpCT -->
<g id="node5" class="node">
<title>assumpCT</title>
<polygon fill="mistyrose" stroke="black" points="613.5,-36 508.5,-36 508.5,0 613.5,0 613.5,-36"/>
<text text-anchor="middle" x="561" y="-14.3" font-family="Times,serif" font-size="14.00">A:assumpCT</text>
</g>
<!-- assumpDI -->
<g id="node6" class="node">
<title>assumpDI</title>
<polygon fill="mistyrose" stroke="black" points="734,-36 632,-36 632,0 734,0 734,-36"/>
<text text-anchor="middle" x="683" y="-14.3" font-family="Times,serif" font-size="14.00">A:assumpDI</text>
</g>
<!-- assumpCAJI -->
<g id="node7" class="node">
<title>assumpCAJI</title>
<polygon fill="mistyrose" stroke="black" points="868,-36 752,-36 752,0 868,0 868,-36"/>
<text text-anchor="middle" x="810" y="-14.3" font-family="Times,serif" font-size="14.00">A:assumpCAJI</text>
</g>
<!-- p_CM -->
<g id="node8" class="node">
<title>p_CM</title>
<polygon fill="#bbffff" stroke="black" points="1004,-36 886,-36 886,0 1004,0 1004,-36"/>
<text text-anchor="middle" x="945" y="-14.3" font-family="Times,serif" font-size="14.00">DD:ctrOfMass</text>
</g>
<!-- linearDisplacement -->
<g id="node9" class="node">
<title>linearDisplacement</title>
<polygon fill="#bbffff" stroke="black" points="1116,-36 1022,-36 1022,0 1116,0 1116,-36"/>
<text text-anchor="middle" x="1069" y="-14.3" font-family="Times,serif" font-size="14.00">DD:linDisp</text>
</g>
<!-- linearVelocity -->
<g id="node10" class="node">
<title>linearVelocity</title>
<polygon fill="#bbffff" stroke="black" points="1217.5,-36 1134.5,-36 1134.5,0 1217.5,0 1217.5,-36"/>
<text text-anchor="middle" x="1176" y="-14.3" font-family="Times,serif" font-size="14.00">DD:linVel</text>
</g>
<!-- linearAcceleration -->
<g id="node11" class="node">
<title>linearAcceleration</title>
<polygon fill="#bbffff" stroke="black" points="1322,-36 1236,-36 1236,0 1322,0 1322,-36"/>
<text text-anchor="middle" x="1279" y="-14.3" font-family="Times,serif" font-size="14.00">DD:linAcc</text>
</g>
<!-- angularDisplacement -->
<g id="node12" class="node">
<title>angularDisplacement</title>
<polygon fill="#bbffff" stroke="black" points="1442,-36 1340,-36 1340,0 1442,0 1442,-36"/>
<text text-anchor="middle" x="1391" y="-14.3" font-family="Times,serif" font-size="14.00">DD:angDisp</text>
</g>
<!-- angularVelocity -->
<g id="node13" class="node">
<title>angularVelocity</title>
<polygon fill="#bbffff" stroke="black" points="1552,-36 1460,-36 1460,0 1552,0 1552,-36"/>
<text text-anchor="middle" x="1506" y="-14.3" font-family="Times,serif" font-size="14.00">DD:angVel</text>
</g>
<!-- angularAcceleration -->
<g id="node14" class="node">
<title>angularAcceleration</title>
<polygon fill="#bbffff" stroke="black" points="1677.5,-36 1570.5,-36 1570.5,0 1677.5,0 1677.5,-36"/>
<text text-anchor="middle" x="1624" y="-14.3" font-family="Times,serif" font-size="14.00">DD:angAccel</text>
</g>
<!-- velocityB -->
<g id="node15" class="node">
<title>velocityB</title>
<polygon fill="#bbffff" stroke="black" points="1824,-36 1696,-36 1696,0 1824,0 1824,-36"/>
<text text-anchor="middle" x="1760" y="-14.3" font-family="Times,serif" font-size="14.00">DD:chaslesThm</text>
</g>
<!-- torque -->
<g id="node16" class="node">
<title>torque</title>
<polygon fill="#bbffff" stroke="black" points="1933.5,-36 1842.5,-36 1842.5,0 1933.5,0 1933.5,-36"/>
<text text-anchor="middle" x="1888" y="-14.3" font-family="Times,serif" font-size="14.00">DD:torque</text>
</g>
<!-- kEnergy -->
<g id="node17" class="node">
<title>kEnergy</title>
<polygon fill="#bbffff" stroke="black" points="2056,-36 1952,-36 1952,0 2056,0 2056,-36"/>
<text text-anchor="middle" x="2004" y="-14.3" font-family="Times,serif" font-size="14.00">DD:kEnergy</text>
</g>
<!-- restitutionCoef -->
<g id="node18" class="node">
<title>restitutionCoef</title>
<polygon fill="#bbffff" stroke="black" points="2231.5,-36 2074.5,-36 2074.5,0 2231.5,0 2231.5,-36"/>
<text text-anchor="middle" x="2153" y="-14.3" font-family="Times,serif" font-size="14.00">DD:coeffRestitution</text>
</g>
<!-- v_iAB -->
<g id="node19" class="node">
<title>v_iAB</title>
<polygon fill="#bbffff" stroke="black" points="2368,-36 2250,-36 2250,0 2368,0 2368,-36"/>
<text text-anchor="middle" x="2309" y="-14.3" font-family="Times,serif" font-size="14.00">DD:reVeInColl</text>
</g>
<!-- impulseV -->
<g id="node20" class="node">
<title>impulseV</title>
<polygon fill="#bbffff" stroke="black" points="2496,-36 2386,-36 2386,0 2496,0 2496,-36"/>
<text text-anchor="middle" x="2441" y="-14.3" font-family="Times,serif" font-size="14.00">DD:impulseV</text>
</g>
<!-- potEnergy -->
<g id="node21" class="node">
<title>potEnergy</title>
<polygon fill="#bbffff" stroke="black" points="2633.5,-36 2514.5,-36 2514.5,0 2633.5,0 2633.5,-36"/>
<text text-anchor="middle" x="2574" y="-14.3" font-family="Times,serif" font-size="14.00">DD:potEnergy</text>
</g>
<!-- momentOfInertia -->
<g id="node22" class="node">
<title>momentOfInertia</title>
<polygon fill="#bbffff" stroke="black" points="2818.5,-36 2651.5,-36 2651.5,0 2818.5,0 2818.5,-36"/>
<text text-anchor="middle" x="2735" y="-14.3" font-family="Times,serif" font-size="14.00">DD:momentOfInertia</text>
</g>
<!-- newtonSL -->
<g id="node23" class="node">
<title>newtonSL</title>
<polygon fill="pink" stroke="black" points="3019.5,-36 2836.5,-36 2836.5,0 3019.5,0 3019.5,-36"/>
<text text-anchor="middle" x="2928" y="-14.3" font-family="Times,serif" font-size="14.00">TM:NewtonSecLawMot</text>
</g>
<!-- force1 -->
<g id="node24" class="node">
<title>force1</title>
<polygon fill="pink" stroke="black" points="3234,-36 3038,-36 3038,0 3234,0 3234,-36"/>
<text text-anchor="middle" x="3136" y="-14.3" font-family="Times,serif" font-size="14.00">TM:NewtonThirdLawMot</text>
</g>
<!-- force -->
<g id="node25" class="node">
<title>force</title>
<polygon fill="pink" stroke="black" points="3428.5,-36 3251.5,-36 3251.5,0 3428.5,0 3428.5,-36"/>
<text text-anchor="middle" x="3340" y="-14.3" font-family="Times,serif" font-size="14.00">TM:UniversalGravLaw</text>
</g>
<!-- newtonSLR -->
<g id="node26" class="node">
<title>newtonSLR</title>
<polygon fill="pink" stroke="black" points="3655,-36 3447,-36 3447,0 3655,0 3655,-36"/>
<text text-anchor="middle" x="3551" y="-14.3" font-family="Times,serif" font-size="14.00">TM:NewtonSecLawRotMot</text>
</g>
<!-- gravitationalAccel -->
<g id="node27" class="node">
<title>gravitationalAccel</title>
<polygon fill="palegreen" stroke="black" points="3806.5,-36 3673.5,-36 3673.5,0 3806.5,0 3806.5,-36"/>
<text text-anchor="middle" x="3740" y="-14.3" font-family="Times,serif" font-size="14.00">GD:accelGravity</text>
</g>
<!-- impulseS -->
<g id="node28" class="node">
<title>impulseS</title>
<polygon fill="palegreen" stroke="black" points="3925,-36 3825,-36 3825,0 3925,0 3925,-36"/>
<text text-anchor="middle" x="3875" y="-14.3" font-family="Times,serif" font-size="14.00">GD:impulse</text>
</g>
<!-- accj -->
<g id="node29" class="node">
<title>accj</title>
<polygon fill="#fff68f" stroke="black" points="4050.5,-36 3943.5,-36 3943.5,0 4050.5,0 4050.5,-36"/>
<text text-anchor="middle" x="3997" y="-14.3" font-family="Times,serif" font-size="14.00">IM:transMot</text>
</g>
<!-- angAccj -->
<g id="node30" class="node">
<title>angAccj</title>
<polygon fill="#fff68f" stroke="black" points="4159,-36 4069,-36 4069,0 4159,0 4159,-36"/>
<text text-anchor="middle" x="4114" y="-14.3" font-family="Times,serif" font-size="14.00">IM:rotMot</text>
</g>
<!-- col2DIM -->
<g id="node31" class="node">
<title>col2DIM</title>
<polygon fill="#fff68f" stroke="black" points="4258.5,-36 4177.5,-36 4177.5,0 4258.5,0 4258.5,-36"/>
<text text-anchor="middle" x="4218" y="-14.3" font-family="Times,serif" font-size="14.00">IM:col2D</text>
</g>
<!-- simSpace -->
<g id="node32" class="node">
<title>simSpace</title>
<polygon fill="ivory" stroke="black" points="4387,-36 4277,-36 4277,0 4387,0 4387,-36"/>
<text text-anchor="middle" x="4332" y="-14.3" font-family="Times,serif" font-size="14.00">FR:simSpace</text>
</g>
<!-- inputInitialConds -->
<g id="node33" class="node">
<title>inputInitialConds</title>
<polygon fill="ivory" stroke="black" points="4570.5,-36 4405.5,-36 4405.5,0 4570.5,0 4570.5,-36"/>
<text text-anchor="middle" x="4488" y="-14.3" font-family="Times,serif" font-size="14.00">FR:inputInitialConds</text>
</g>
<!-- inputSurfaceProps -->
<g id="node34" class="node">
<title>inputSurfaceProps</title>
<polygon fill="ivory" stroke="black" points="4763.5,-36 4588.5,-36 4588.5,0 4763.5,0 4763.5,-36"/>
<text text-anchor="middle" x="4676" y="-14.3" font-family="Times,serif" font-size="14.00">FR:inputSurfaceProps</text>
</g>
<!-- verifyPhysCons -->
<g id="node35" class="node">
<title>verifyPhysCons</title>
<polygon fill="ivory" stroke="black" points="4934,-36 4782,-36 4782,0 4934,0 4934,-36"/>
<text text-anchor="middle" x="4858" y="-14.3" font-family="Times,serif" font-size="14.00">FR:verifyPhysCons</text>
</g>
<!-- calcTransOverTime -->
<g id="node36" class="node">
<title>calcTransOverTime</title>
<polygon fill="ivory" stroke="black" points="5131.5,-36 4952.5,-36 4952.5,0 5131.5,0 5131.5,-36"/>
<text text-anchor="middle" x="5042" y="-14.3" font-family="Times,serif" font-size="14.00">FR:calcTransOverTime</text>
</g>
<!-- calcRotOverTime -->
<g id="node37" class="node">
<title>calcRotOverTime</title>
<polygon fill="ivory" stroke="black" points="5314,-36 5150,-36 5150,0 5314,0 5314,-36"/>
<text text-anchor="middle" x="5232" y="-14.3" font-family="Times,serif" font-size="14.00">FR:calcRotOverTime</text>
</g>
<!-- deterColls -->
<g id="node38" class="node">
<title>deterColls</title>
<polygon fill="ivory" stroke="black" points="5447.5,-36 5332.5,-36 5332.5,0 5447.5,0 5447.5,-36"/>
<text text-anchor="middle" x="5390" y="-14.3" font-family="Times,serif" font-size="14.00">FR:deterColls</text>
</g>
<!-- deterCollRespOverTime -->
<g id="node39" class="node">
<title>deterCollRespOverTime</title>
<polygon fill="ivory" stroke="black" points="5678,-36 5466,-36 5466,0 5678,0 5678,-36"/>
<text text-anchor="middle" x="5572" y="-14.3" font-family="Times,serif" font-size="14.00">FR:deterCollRespOverTime</text>
</g>
<!-- performance -->
<g id="node40" class="node">
<title>performance</title>
<polygon fill="ivory" stroke="black" points="5840,-36 5696,-36 5696,0 5840,0 5840,-36"/>
<text text-anchor="middle" x="5768" y="-14.3" font-family="Times,serif" font-size="14.00">NFR:performance</text>
</g>
<!-- correctness -->
<g id="node41" class="node">
<title>correctness</title>
<polygon fill="ivory" stroke="black" points="5995.5,-36 5858.5,-36 5858.5,0 5995.5,0 5995.5,-36"/>
<text text-anchor="middle" x="5927" y="-14.3" font-family="Times,serif" font-size="14.00">NFR:correctness</text>
</g>
<!-- usability -->
<g id="node42" class="node">
<title>usability</title>
<polygon fill="ivory" stroke="black" points="6128.5,-36 6013.5,-36 6013.5,0 6128.5,0 6128.5,-36"/>
<text text-anchor="middle" x="6071" y="-14.3" font-family="Times,serif" font-size="14.00">NFR:usability</text>
</g>
<!-- understandability -->
<g id="node43" class="node">
<title>understandability</title>
<polygon fill="ivory" stroke="black" points="6327,-36 6147,-36 6147,0 6327,0 6327,-36"/>
<text text-anchor="middle" x="6237" y="-14.3" font-family="Times,serif" font-size="14.00">NFR:understandability</text>
</g>
<!-- maintainability -->
<g id="node44" class="node">
<title>maintainability</title>
<polygon fill="ivory" stroke="black" points="6506.5,-36 6345.5,-36 6345.5,0 6506.5,0 6506.5,-36"/>
<text text-anchor="middle" x="6426" y="-14.3" font-family="Times,serif" font-size="14.00">NFR:maintainability</text>
</g>
<!-- linearGS -->
<g id="node45" class="node">
<title>linearGS</title>
<polygon fill="#ffb90f" stroke="black" points="6629,-36 6525,-36 6525,0 6629,0 6629,-36"/>
<text text-anchor="middle" x="6577" y="-14.3" font-family="Times,serif" font-size="14.00">GS:linearGS</text>
</g>
<!-- angularGS -->
<g id="node46" class="node">
<title>angularGS</title>
<polygon fill="#ffb90f" stroke="black" points="6765,-36 6647,-36 6647,0 6765,0 6765,-36"/>
<text text-anchor="middle" x="6706" y="-14.3" font-family="Times,serif" font-size="14.00">GS:angularGS</text>
</g>
</g>
</svg>
