<?xml version="1.0" encoding="UTF-8" standalone="no"?>
<!DOCTYPE svg PUBLIC "-//W3C//DTD SVG 1.1//EN"
 "http://www.w3.org/Graphics/SVG/1.1/DTD/svg11.dtd">
<!-- Generated by graphviz version 2.43.0 (0)
 -->
<!-- Title: allvsr Pages: 1 -->
<svg width="3667pt" height="44pt"
 viewBox="0.00 0.00 3667.00 44.00" xmlns="http://www.w3.org/2000/svg" xmlns:xlink="http://www.w3.org/1999/xlink">
<g id="graph0" class="graph" transform="scale(1 1) rotate(0) translate(4 40)">
<title>allvsr</title>
<polygon fill="white" stroke="transparent" points="-4,4 -4,-40 3663,-40 3663,4 -4,4"/>
<!-- assumpOT -->
<g id="node1" class="node">
<title>assumpOT</title>
<polygon fill="mistyrose" stroke="black" points="106,-36 0,-36 0,0 106,0 106,-36"/>
<text text-anchor="middle" x="53" y="-14.3" font-family="Times,serif" font-size="14.00">A:assumpOT</text>
</g>
<!-- assumpOD -->
<g id="node2" class="node">
<title>assumpOD</title>
<polygon fill="mistyrose" stroke="black" points="232,-36 124,-36 124,0 232,0 232,-36"/>
<text text-anchor="middle" x="178" y="-14.3" font-family="Times,serif" font-size="14.00">A:assumpOD</text>
</g>
<!-- assumpCST -->
<g id="node3" class="node">
<title>assumpCST</title>
<polygon fill="mistyrose" stroke="black" points="365.5,-36 250.5,-36 250.5,0 365.5,0 365.5,-36"/>
<text text-anchor="middle" x="308" y="-14.3" font-family="Times,serif" font-size="14.00">A:assumpCST</text>
</g>
<!-- assumpAD -->
<g id="node4" class="node">
<title>assumpAD</title>
<polygon fill="mistyrose" stroke="black" points="490.5,-36 383.5,-36 383.5,0 490.5,0 490.5,-36"/>
<text text-anchor="middle" x="437" y="-14.3" font-family="Times,serif" font-size="14.00">A:assumpAD</text>
</g>
<!-- assumpCT -->
<g id="node5" class="node">
<title>assumpCT</title>
<polygon fill="mistyrose" stroke="black" points="613.5,-36 508.5,-36 508.5,0 613.5,0 613.5,-36"/>
<text text-anchor="middle" x="561" y="-14.3" font-family="Times,serif" font-size="14.00">A:assumpCT</text>
</g>
<!-- assumpDI -->
<g id="node6" class="node">
<title>assumpDI</title>
<polygon fill="mistyrose" stroke="black" points="734,-36 632,-36 632,0 734,0 734,-36"/>
<text text-anchor="middle" x="683" y="-14.3" font-family="Times,serif" font-size="14.00">A:assumpDI</text>
</g>
<!-- assumpCAJI -->
<g id="node7" class="node">
<title>assumpCAJI</title>
<polygon fill="mistyrose" stroke="black" points="868,-36 752,-36 752,0 868,0 868,-36"/>
<text text-anchor="middle" x="810" y="-14.3" font-family="Times,serif" font-size="14.00">A:assumpCAJI</text>
</g>
<!-- dataDefn -->
<g id="node8" class="node">
<title>dataDefn</title>
<polygon fill="#bbffff" stroke="black" points="1053.5,-36 886.5,-36 886.5,0 1053.5,0 1053.5,-36"/>
<text text-anchor="middle" x="970" y="-14.3" font-family="Times,serif" font-size="14.00">DD:momentOfInertia</text>
</g>
<!-- theory -->
<g id="node9" class="node">
<title>theory</title>
<polygon fill="#fff68f" stroke="black" points="1152.5,-36 1071.5,-36 1071.5,0 1152.5,0 1152.5,-36"/>
<text text-anchor="middle" x="1112" y="-14.3" font-family="Times,serif" font-size="14.00">IM:col2D</text>
</g>
<!-- simSpace -->
<g id="node10" class="node">
<title>simSpace</title>
<polygon fill="ivory" stroke="black" points="1281,-36 1171,-36 1171,0 1281,0 1281,-36"/>
<text text-anchor="middle" x="1226" y="-14.3" font-family="Times,serif" font-size="14.00">FR:simSpace</text>
</g>
<!-- inputInitialConds -->
<g id="node11" class="node">
<title>inputInitialConds</title>
<polygon fill="ivory" stroke="black" points="1464.5,-36 1299.5,-36 1299.5,0 1464.5,0 1464.5,-36"/>
<text text-anchor="middle" x="1382" y="-14.3" font-family="Times,serif" font-size="14.00">FR:inputInitialConds</text>
</g>
<!-- inputSurfaceProps -->
<g id="node12" class="node">
<title>inputSurfaceProps</title>
<polygon fill="ivory" stroke="black" points="1657.5,-36 1482.5,-36 1482.5,0 1657.5,0 1657.5,-36"/>
<text text-anchor="middle" x="1570" y="-14.3" font-family="Times,serif" font-size="14.00">FR:inputSurfaceProps</text>
</g>
<!-- verifyPhysCons -->
<g id="node13" class="node">
<title>verifyPhysCons</title>
<polygon fill="ivory" stroke="black" points="1828,-36 1676,-36 1676,0 1828,0 1828,-36"/>
<text text-anchor="middle" x="1752" y="-14.3" font-family="Times,serif" font-size="14.00">FR:verifyPhysCons</text>
</g>
<!-- calcTransOverTime -->
<g id="node14" class="node">
<title>calcTransOverTime</title>
<polygon fill="ivory" stroke="black" points="2025.5,-36 1846.5,-36 1846.5,0 2025.5,0 2025.5,-36"/>
<text text-anchor="middle" x="1936" y="-14.3" font-family="Times,serif" font-size="14.00">FR:calcTransOverTime</text>
</g>
<!-- calcRotOverTime -->
<g id="node15" class="node">
<title>calcRotOverTime</title>
<polygon fill="ivory" stroke="black" points="2208,-36 2044,-36 2044,0 2208,0 2208,-36"/>
<text text-anchor="middle" x="2126" y="-14.3" font-family="Times,serif" font-size="14.00">FR:calcRotOverTime</text>
</g>
<!-- deterColls -->
<g id="node16" class="node">
<title>deterColls</title>
<polygon fill="ivory" stroke="black" points="2341.5,-36 2226.5,-36 2226.5,0 2341.5,0 2341.5,-36"/>
<text text-anchor="middle" x="2284" y="-14.3" font-family="Times,serif" font-size="14.00">FR:deterColls</text>
</g>
<!-- deterCollRespOverTime -->
<g id="node17" class="node">
<title>deterCollRespOverTime</title>
<polygon fill="ivory" stroke="black" points="2572,-36 2360,-36 2360,0 2572,0 2572,-36"/>
<text text-anchor="middle" x="2466" y="-14.3" font-family="Times,serif" font-size="14.00">FR:deterCollRespOverTime</text>
</g>
<!-- performance -->
<g id="node18" class="node">
<title>performance</title>
<polygon fill="ivory" stroke="black" points="2734,-36 2590,-36 2590,0 2734,0 2734,-36"/>
<text text-anchor="middle" x="2662" y="-14.3" font-family="Times,serif" font-size="14.00">NFR:performance</text>
</g>
<!-- correctness -->
<g id="node19" class="node">
<title>correctness</title>
<polygon fill="ivory" stroke="black" points="2889.5,-36 2752.5,-36 2752.5,0 2889.5,0 2889.5,-36"/>
<text text-anchor="middle" x="2821" y="-14.3" font-family="Times,serif" font-size="14.00">NFR:correctness</text>
</g>
<!-- usability -->
<g id="node20" class="node">
<title>usability</title>
<polygon fill="ivory" stroke="black" points="3022.5,-36 2907.5,-36 2907.5,0 3022.5,0 3022.5,-36"/>
<text text-anchor="middle" x="2965" y="-14.3" font-family="Times,serif" font-size="14.00">NFR:usability</text>
</g>
<!-- understandability -->
<g id="node21" class="node">
<title>understandability</title>
<polygon fill="ivory" stroke="black" points="3221,-36 3041,-36 3041,0 3221,0 3221,-36"/>
<text text-anchor="middle" x="3131" y="-14.3" font-family="Times,serif" font-size="14.00">NFR:understandability</text>
</g>
<!-- maintainability -->
<g id="node22" class="node">
<title>maintainability</title>
<polygon fill="ivory" stroke="black" points="3400.5,-36 3239.5,-36 3239.5,0 3400.5,0 3400.5,-36"/>
<text text-anchor="middle" x="3320" y="-14.3" font-family="Times,serif" font-size="14.00">NFR:maintainability</text>
</g>
<!-- linearGS -->
<g id="node23" class="node">
<title>linearGS</title>
<polygon fill="#ffb90f" stroke="black" points="3523,-36 3419,-36 3419,0 3523,0 3523,-36"/>
<text text-anchor="middle" x="3471" y="-14.3" font-family="Times,serif" font-size="14.00">GS:linearGS</text>
</g>
<!-- angularGS -->
<g id="node24" class="node">
<title>angularGS</title>
<polygon fill="#ffb90f" stroke="black" points="3659,-36 3541,-36 3541,0 3659,0 3659,-36"/>
<text text-anchor="middle" x="3600" y="-14.3" font-family="Times,serif" font-size="14.00">GS:angularGS</text>
</g>
</g>
</svg>
