<?xml version="1.0" encoding="UTF-8" standalone="no"?>
<!DOCTYPE svg PUBLIC "-//W3C//DTD SVG 1.1//EN"
 "http://www.w3.org/Graphics/SVG/1.1/DTD/svg11.dtd">
<!-- Generated by graphviz version 2.43.0 (0)
 -->
<!-- Title: allvsall Pages: 1 -->
<svg width="558pt" height="201pt"
 viewBox="0.00 0.00 557.66 200.85" xmlns="http://www.w3.org/2000/svg" xmlns:xlink="http://www.w3.org/1999/xlink">
<g id="graph0" class="graph" transform="scale(1 1) rotate(0) translate(4 196.85)">
<title>allvsall</title>
<polygon fill="white" stroke="transparent" points="-4,4 -4,-196.85 553.66,-196.85 553.66,4 -4,4"/>
<!-- dataDefn -->
<g id="node1" class="node">
<title>dataDefn</title>
<polygon fill="#bbffff" stroke="black" points="212.08,-108 45.08,-108 45.08,-72 212.08,-72 212.08,-108"/>
<text text-anchor="middle" x="128.58" y="-86.3" font-family="Times,serif" font-size="14.00">DD:momentOfInertia</text>
</g>
<!-- instance -->
<g id="node2" class="node">
<title>instance</title>
<polygon fill="lavender" stroke="black" points="174.58,-36 82.58,-36 82.58,0 174.58,0 174.58,-36"/>
<text text-anchor="middle" x="128.58" y="-14.3" font-family="Times,serif" font-size="14.00">UC:ucORB</text>
</g>
<!-- dataDefn&#45;&gt;instance -->
<g id="edge1" class="edge">
<title>dataDefn:p_CM&#45;&gt;instance:assumpOT</title>
<path fill="none" stroke="black" d="M44.95,-81.38C-22.6,-66.09 -13.46,-32.29 72.37,-22.02"/>
<polygon fill="black" stroke="black" points="72.77,-25.5 82.35,-20.97 72.03,-18.54 72.77,-25.5"/>
</g>
<!-- dataDefn&#45;&gt;instance -->
<g id="edge2" class="edge">
<title>dataDefn:linearDisplacement&#45;&gt;instance:assumpOT</title>
<path fill="none" stroke="black" d="M44.8,-78.82C-4.26,-63.05 4.96,-33.42 72.47,-22.86"/>
<polygon fill="black" stroke="black" points="72.95,-26.33 82.38,-21.5 72,-19.39 72.95,-26.33"/>
</g>
<!-- dataDefn&#45;&gt;instance -->
<g id="edge3" class="edge">
<title>dataDefn:linearVelocity&#45;&gt;instance:assumpOT</title>
<path fill="none" stroke="black" d="M45.01,-74.67C14.4,-59 23.52,-34.72 72.37,-24.18"/>
<polygon fill="black" stroke="black" points="73.12,-27.6 82.31,-22.32 71.83,-20.72 73.12,-27.6"/>
</g>
<!-- dataDefn&#45;&gt;instance -->
<g id="edge4" class="edge">
<title>dataDefn:linearAcceleration&#45;&gt;instance:assumpOT</title>
<path fill="none" stroke="black" d="M51.67,-71.7C32.04,-57.05 39.06,-36.8 72.75,-26.17"/>
<polygon fill="black" stroke="black" points="73.68,-29.55 82.42,-23.57 71.86,-22.79 73.68,-29.55"/>
</g>
<!-- dataDefn&#45;&gt;instance -->
<g id="edge5" class="edge">
<title>dataDefn:angularDisplacement&#45;&gt;instance:assumpOT</title>
<path fill="none" stroke="black" d="M63.5,-71.7C48.66,-58.62 51.82,-41.06 72.99,-29.88"/>
<polygon fill="black" stroke="black" points="74.6,-33 82.37,-25.8 71.81,-26.58 74.6,-33"/>
</g>
<!-- dataDefn&#45;&gt;instance -->
<g id="edge6" class="edge">
<title>dataDefn:angularDisplacement&#45;&gt;instance:assumpOD</title>
<path fill="none" stroke="black" d="M75.33,-71.7C65.53,-61.14 65.33,-47.66 74.73,-36.98"/>
<polygon fill="black" stroke="black" points="77.02,-39.61 82.29,-30.42 72.44,-34.33 77.02,-39.61"/>
</g>
<!-- dataDefn&#45;&gt;instance -->
<g id="edge7" class="edge">
<title>dataDefn:angularVelocity&#45;&gt;instance:assumpOT</title>
<path fill="none" stroke="black" d="M87.17,-71.7C81.41,-63.73 79.91,-54.1 82.66,-45.26"/>
<polygon fill="black" stroke="black" points="85.9,-46.61 87.31,-36.1 79.66,-43.44 85.9,-46.61"/>
</g>
<!-- dataDefn&#45;&gt;instance -->
<g id="edge8" class="edge">
<title>dataDefn:angularVelocity&#45;&gt;instance:assumpOD</title>
<path fill="none" stroke="black" d="M99,-71.7C94.93,-63.81 93.84,-54.3 95.72,-45.55"/>
<polygon fill="black" stroke="black" points="99.02,-46.7 99.1,-36.1 92.43,-44.34 99.02,-46.7"/>
</g>
<!-- dataDefn&#45;&gt;instance -->
<g id="edge9" class="edge">
<title>dataDefn:angularAcceleration&#45;&gt;instance:assumpOT</title>
<path fill="none" stroke="black" d="M110.83,-71.7C108.44,-63.98 107.76,-54.71 108.79,-46.11"/>
<polygon fill="black" stroke="black" points="112.26,-46.61 110.89,-36.1 105.41,-45.17 112.26,-46.61"/>
</g>
<!-- dataDefn&#45;&gt;instance -->
<g id="edge10" class="edge">
<title>dataDefn:angularAcceleration&#45;&gt;instance:assumpOD</title>
<path fill="none" stroke="black" d="M122.66,-71.7C121.86,-63.98 121.64,-54.71 121.98,-46.11"/>
<polygon fill="black" stroke="black" points="125.47,-46.32 122.68,-36.1 118.49,-45.84 125.47,-46.32"/>
</g>
<!-- dataDefn&#45;&gt;instance -->
<g id="edge11" class="edge">
<title>dataDefn:velocityB&#45;&gt;instance:assumpOT</title>
<path fill="none" stroke="black" d="M134.49,-71.7C135.29,-63.98 135.51,-54.71 135.17,-46.11"/>
<polygon fill="black" stroke="black" points="138.66,-45.84 134.47,-36.1 131.68,-46.32 138.66,-45.84"/>
</g>
<!-- dataDefn&#45;&gt;instance -->
<g id="edge12" class="edge">
<title>dataDefn:kEnergy&#45;&gt;instance:assumpOT</title>
<path fill="none" stroke="black" d="M146.32,-71.7C148.71,-63.98 149.39,-54.71 148.36,-46.11"/>
<polygon fill="black" stroke="black" points="151.74,-45.17 146.26,-36.1 144.89,-46.61 151.74,-45.17"/>
</g>
<!-- dataDefn&#45;&gt;instance -->
<g id="edge13" class="edge">
<title>dataDefn:kEnergy&#45;&gt;instance:assumpOD</title>
<path fill="none" stroke="black" d="M158.15,-71.7C162.22,-63.81 163.31,-54.3 161.43,-45.55"/>
<polygon fill="black" stroke="black" points="164.72,-44.34 158.05,-36.1 158.13,-46.7 164.72,-44.34"/>
</g>
<!-- dataDefn&#45;&gt;instance -->
<g id="edge14" class="edge">
<title>dataDefn:kEnergy&#45;&gt;instance:assumpDI</title>
<path fill="none" stroke="black" d="M169.99,-71.7C175.74,-63.73 177.24,-54.1 174.49,-45.26"/>
<polygon fill="black" stroke="black" points="177.49,-43.44 169.84,-36.1 171.25,-46.61 177.49,-43.44"/>
</g>
<!-- dataDefn&#45;&gt;instance -->
<g id="edge15" class="edge">
<title>dataDefn:v_iAB&#45;&gt;instance:assumpOT</title>
<path fill="none" stroke="black" d="M181.82,-71.7C191.62,-61.14 191.82,-47.66 182.42,-36.98"/>
<polygon fill="black" stroke="black" points="184.71,-34.33 174.86,-30.42 180.13,-39.61 184.71,-34.33"/>
</g>
<!-- dataDefn&#45;&gt;instance -->
<g id="edge16" class="edge">
<title>dataDefn:impulseV&#45;&gt;instance:assumpOT</title>
<path fill="none" stroke="black" d="M193.65,-71.7C208.49,-58.62 205.33,-41.06 184.16,-29.88"/>
<polygon fill="black" stroke="black" points="185.34,-26.58 174.78,-25.8 182.55,-33 185.34,-26.58"/>
</g>
<!-- dataDefn&#45;&gt;instance -->
<g id="edge17" class="edge">
<title>dataDefn:potEnergy&#45;&gt;instance:assumpOT</title>
<path fill="none" stroke="black" d="M205.48,-71.7C225.12,-57.05 218.09,-36.8 184.4,-26.17"/>
<polygon fill="black" stroke="black" points="185.29,-22.79 174.73,-23.57 183.47,-29.55 185.29,-22.79"/>
</g>
<!-- dataDefn&#45;&gt;instance -->
<g id="edge18" class="edge">
<title>dataDefn:potEnergy&#45;&gt;instance:assumpOD</title>
<path fill="none" stroke="black" d="M212.14,-74.67C242.75,-59 233.63,-34.72 184.78,-24.18"/>
<polygon fill="black" stroke="black" points="185.32,-20.72 174.84,-22.32 184.03,-27.6 185.32,-20.72"/>
</g>
<!-- dataDefn&#45;&gt;instance -->
<g id="edge19" class="edge">
<title>dataDefn:potEnergy&#45;&gt;instance:assumpDI</title>
<path fill="none" stroke="black" d="M212.35,-78.82C261.41,-63.05 252.19,-33.42 184.68,-22.86"/>
<polygon fill="black" stroke="black" points="185.15,-19.39 174.77,-21.5 184.2,-26.33 185.15,-19.39"/>
</g>
<!-- dataDefn&#45;&gt;instance -->
<g id="edge20" class="edge">
<title>dataDefn:momentOfInertia&#45;&gt;instance:assumpOT</title>
<path fill="none" stroke="black" d="M212.21,-81.38C279.75,-66.09 270.61,-32.29 184.78,-22.02"/>
<polygon fill="black" stroke="black" points="185.12,-18.54 174.8,-20.97 184.38,-25.5 185.12,-18.54"/>
</g>
<!-- instance&#45;&gt;instance -->
<g id="edge52" class="edge">
<title>instance:lcEC&#45;&gt;instance:assumpCT</title>
<path fill="none" stroke="black" d="M174.6,-22.39C184.98,-21.99 192.58,-20.53 192.58,-18 192.58,-16.42 189.61,-15.25 184.85,-14.51"/>
<polygon fill="black" stroke="black" points="184.87,-10.99 174.6,-13.61 184.26,-17.97 184.87,-10.99"/>
</g>
<!-- instance&#45;&gt;instance -->
<g id="edge53" class="edge">
<title>instance:lcID&#45;&gt;instance:assumpDI</title>
<path fill="none" stroke="black" d="M174.94,-26.92C194.23,-27.54 210.58,-24.56 210.58,-18 210.58,-12.62 199.57,-9.65 184.97,-9.1"/>
<polygon fill="black" stroke="black" points="184.94,-5.6 174.94,-9.08 184.93,-12.6 184.94,-5.6"/>
</g>
<!-- instance&#45;&gt;instance -->
<g id="edge54" class="edge">
<title>instance:lcIJC&#45;&gt;instance:assumpCAJI</title>
<path fill="none" stroke="black" d="M174.6,-30.63C202.37,-33.5 228.58,-29.29 228.58,-18 228.58,-8.08 208.33,-3.63 184.58,-4.64"/>
<polygon fill="black" stroke="black" points="184.32,-1.15 174.6,-5.37 184.83,-8.13 184.32,-1.15"/>
</g>
<!-- theory -->
<g id="node3" class="node">
<title>theory</title>
<polygon fill="#fff68f" stroke="black" points="393.08,-180 312.08,-180 312.08,-144 393.08,-144 393.08,-180"/>
<text text-anchor="middle" x="352.58" y="-158.3" font-family="Times,serif" font-size="14.00">IM:col2D</text>
</g>
<!-- theory&#45;&gt;dataDefn -->
<g id="edge31" class="edge">
<title>theory:accj&#45;&gt;dataDefn:p_CM</title>
<path fill="none" stroke="black" d="M312.06,-156.24C262.73,-147.26 192.78,-127.31 151.58,-111.82"/>
<polygon fill="black" stroke="black" points="152.59,-108.46 142,-108.09 150.05,-114.98 152.59,-108.46"/>
</g>
<!-- theory&#45;&gt;dataDefn -->
<g id="edge32" class="edge">
<title>theory:accj&#45;&gt;dataDefn:linearDisplacement</title>
<path fill="none" stroke="black" d="M311.9,-154.66C268.07,-145.01 204.26,-126.17 163.1,-111.48"/>
<polygon fill="black" stroke="black" points="164.25,-108.18 153.66,-108.04 161.85,-114.75 164.25,-108.18"/>
</g>
<!-- theory&#45;&gt;dataDefn -->
<g id="edge33" class="edge">
<title>theory:accj&#45;&gt;dataDefn:linearVelocity</title>
<path fill="none" stroke="black" d="M312.07,-152.63C273.11,-142.5 215.84,-125.11 175.21,-111.38"/>
<polygon fill="black" stroke="black" points="176.11,-107.99 165.51,-108.07 173.84,-114.61 176.11,-107.99"/>
</g>
<!-- theory&#45;&gt;dataDefn -->
<g id="edge34" class="edge">
<title>theory:accj&#45;&gt;dataDefn:linearAcceleration</title>
<path fill="none" stroke="black" d="M311.99,-149.91C277.03,-139.53 226.27,-123.78 186.97,-111.18"/>
<polygon fill="black" stroke="black" points="187.83,-107.78 177.24,-108.05 185.68,-114.44 187.83,-107.78"/>
</g>
<!-- theory&#45;&gt;dataDefn -->
<g id="edge40" class="edge">
<title>theory:angAccj&#45;&gt;dataDefn:angularDisplacement</title>
<path fill="none" stroke="black" d="M312.02,-146.58C280.54,-136.33 236.25,-122.43 199.04,-111.09"/>
<polygon fill="black" stroke="black" points="199.83,-107.67 189.25,-108.12 197.8,-114.37 199.83,-107.67"/>
</g>
<!-- theory&#45;&gt;dataDefn -->
<g id="edge41" class="edge">
<title>theory:angAccj&#45;&gt;dataDefn:angularVelocity</title>
<path fill="none" stroke="black" d="M315.73,-143.97C287.03,-134.01 246.96,-121.41 211.03,-110.99"/>
<polygon fill="black" stroke="black" points="211.59,-107.51 201.02,-108.11 209.66,-114.24 211.59,-107.51"/>
</g>
<!-- theory&#45;&gt;dataDefn -->
<g id="edge42" class="edge">
<title>theory:angAccj&#45;&gt;dataDefn:angularAcceleration</title>
<path fill="none" stroke="black" d="M327.26,-143.88C300.41,-133.84 260.14,-121.13 222.28,-110.69"/>
<polygon fill="black" stroke="black" points="222.77,-107.19 212.2,-107.95 220.93,-113.95 222.77,-107.19"/>
</g>
<!-- theory&#45;&gt;dataDefn -->
<g id="edge50" class="edge">
<title>theory:col2DIM&#45;&gt;dataDefn:p_CM</title>
<path fill="none" stroke="black" d="M339.06,-143.88C311.67,-132.78 265.48,-118.4 221.93,-107.43"/>
<polygon fill="black" stroke="black" points="222.65,-104.01 212.1,-105.01 220.97,-110.8 222.65,-104.01"/>
</g>
<!-- theory&#45;&gt;instance -->
<g id="edge21" class="edge">
<title>theory:newtonSLR&#45;&gt;instance:assumpOD</title>
<path fill="none" stroke="black" d="M393.58,-181C252.2,-192.63 248.97,-157.83 240.08,-144 185.56,-59.21 56.6,-30.76 72.68,-22.26"/>
<polygon fill="black" stroke="black" points="73.48,-25.66 82.57,-20.22 72.07,-18.81 73.48,-25.66"/>
</g>
<!-- theory&#45;&gt;instance -->
<g id="edge23" class="edge">
<title>theory:impulseS&#45;&gt;instance:assumpOT</title>
<path fill="none" stroke="black" d="M393.21,-181.03C270.2,-192.56 266.96,-157.82 258.08,-144 213.22,-74.24 117.99,-42.62 89.91,-28.86"/>
<polygon fill="black" stroke="black" points="92.23,-26.24 82.49,-22.06 87.5,-31.4 92.23,-26.24"/>
</g>
<!-- theory&#45;&gt;instance -->
<g id="edge24" class="edge">
<title>theory:impulseS&#45;&gt;instance:assumpOD</title>
<path fill="none" stroke="black" d="M393.27,-181.03C288.2,-192.56 284.96,-157.82 276.08,-144 240.53,-88.71 173.32,-57.38 130.67,-39.91"/>
<polygon fill="black" stroke="black" points="131.76,-36.57 121.18,-36.07 129.14,-43.06 131.76,-36.57"/>
</g>
<!-- theory&#45;&gt;instance -->
<g id="edge25" class="edge">
<title>theory:impulseS&#45;&gt;instance:assumpAD</title>
<path fill="none" stroke="black" d="M311.83,-170.11C301.12,-161.39 298.21,-150.43 294.08,-144 258.38,-88.48 190.75,-57.11 145.78,-39.69"/>
<polygon fill="black" stroke="black" points="146.85,-36.35 136.26,-36.07 144.37,-42.9 146.85,-36.35"/>
</g>
<!-- theory&#45;&gt;instance -->
<g id="edge26" class="edge">
<title>theory:impulseS&#45;&gt;instance:assumpCT</title>
<path fill="none" stroke="black" d="M311.87,-143.68C275.93,-88.07 207.97,-56.76 160.69,-39.42"/>
<polygon fill="black" stroke="black" points="161.83,-36.11 151.23,-36.03 159.47,-42.7 161.83,-36.11"/>
</g>
<!-- theory&#45;&gt;instance -->
<g id="edge27" class="edge">
<title>theory:accj&#45;&gt;instance:assumpOT</title>
<path fill="none" stroke="black" d="M329.87,-143.68C293.86,-87.96 225.68,-56.63 175.99,-39.31"/>
<polygon fill="black" stroke="black" points="176.91,-35.93 166.32,-36.03 174.66,-42.56 176.91,-35.93"/>
</g>
<!-- theory&#45;&gt;instance -->
<g id="edge28" class="edge">
<title>theory:accj&#45;&gt;instance:assumpOD</title>
<path fill="none" stroke="black" d="M347.87,-143.68C310.15,-85.32 237.15,-53.72 184.3,-36.95"/>
<polygon fill="black" stroke="black" points="185.26,-33.58 174.68,-33.98 183.2,-40.27 185.26,-33.58"/>
</g>
<!-- theory&#45;&gt;instance -->
<g id="edge29" class="edge">
<title>theory:accj&#45;&gt;instance:assumpDI</title>
<path fill="none" stroke="black" d="M365.87,-143.68C324.7,-79.97 241.47,-48.15 184.73,-32.7"/>
<polygon fill="black" stroke="black" points="185.37,-29.25 174.81,-30.09 183.59,-36.02 185.37,-29.25"/>
</g>
<!-- theory&#45;&gt;instance -->
<g id="edge30" class="edge">
<title>theory:accj&#45;&gt;instance:assumpCAJI</title>
<path fill="none" stroke="black" d="M383.87,-143.68C339.27,-74.66 245.3,-43.07 184.57,-29.17"/>
<polygon fill="black" stroke="black" points="185.27,-25.74 174.75,-27.01 183.77,-32.58 185.27,-25.74"/>
</g>
<!-- theory&#45;&gt;instance -->
<g id="edge37" class="edge">
<title>theory:angAccj&#45;&gt;instance:assumpOT</title>
<path fill="none" stroke="black" d="M394.05,-181.26C414.15,-192.09 410.9,-157.73 402.08,-144 354.49,-69.99 250.19,-38.91 184.93,-26.54"/>
<polygon fill="black" stroke="black" points="185.27,-23.05 174.81,-24.71 184.03,-29.94 185.27,-23.05"/>
</g>
<!-- theory&#45;&gt;instance -->
<g id="edge38" class="edge">
<title>theory:angAccj&#45;&gt;instance:assumpOD</title>
<path fill="none" stroke="black" d="M394.03,-181.13C432.18,-192.36 428.93,-157.78 420.08,-144 369.61,-65.51 255.36,-35.3 184.88,-24.5"/>
<polygon fill="black" stroke="black" points="185.21,-21.01 174.81,-23.04 184.21,-27.94 185.21,-21.01"/>
</g>
<!-- theory&#45;&gt;instance -->
<g id="edge39" class="edge">
<title>theory:angAccj&#45;&gt;instance:assumpAD</title>
<path fill="none" stroke="black" d="M393.91,-181.07C450.19,-192.49 446.95,-157.81 438.08,-144 385.04,-61.51 261.54,-32.35 184.74,-22.99"/>
<polygon fill="black" stroke="black" points="185.01,-19.5 174.68,-21.85 184.22,-26.46 185.01,-19.5"/>
</g>
<!-- theory&#45;&gt;instance -->
<g id="edge44" class="edge">
<title>theory:col2DIM&#45;&gt;instance:assumpOT</title>
<path fill="none" stroke="black" d="M394.01,-181.07C468.19,-192.49 464.95,-157.81 456.08,-144 400.84,-58.1 269.2,-30.02 184.72,-21.93"/>
<polygon fill="black" stroke="black" points="184.93,-18.44 174.66,-21.04 184.31,-25.41 184.93,-18.44"/>
</g>
<!-- theory&#45;&gt;instance -->
<g id="edge45" class="edge">
<title>theory:col2DIM&#45;&gt;instance:assumpOD</title>
<path fill="none" stroke="black" d="M393.85,-181.03C486.2,-192.56 482.96,-157.82 474.08,-144 416.96,-55.17 278.14,-28.18 184.62,-21.17"/>
<polygon fill="black" stroke="black" points="184.79,-17.68 174.58,-20.48 184.32,-24.66 184.79,-17.68"/>
</g>
<!-- theory&#45;&gt;instance -->
<g id="edge46" class="edge">
<title>theory:col2DIM&#45;&gt;instance:assumpAD</title>
<path fill="none" stroke="black" d="M393.9,-181.03C504.2,-192.56 500.96,-157.82 492.08,-144 433.46,-52.84 288.78,-26.8 184.9,-20.66"/>
<polygon fill="black" stroke="black" points="184.84,-17.15 174.67,-20.11 184.47,-24.14 184.84,-17.15"/>
</g>
<!-- theory&#45;&gt;instance -->
<g id="edge47" class="edge">
<title>theory:col2DIM&#45;&gt;instance:assumpCT</title>
<path fill="none" stroke="black" d="M393.95,-181.03C522.2,-192.56 518.96,-157.82 510.08,-144 450.16,-50.81 300.3,-25.67 184.9,-20.28"/>
<polygon fill="black" stroke="black" points="185.03,-16.78 174.9,-19.86 184.74,-23.77 185.03,-16.78"/>
</g>
<!-- theory&#45;&gt;instance -->
<g id="edge48" class="edge">
<title>theory:col2DIM&#45;&gt;instance:assumpDI</title>
<path fill="none" stroke="black" d="M394,-181.03C540.2,-192.56 536.96,-157.82 528.08,-144 467.1,-49.16 312.99,-24.81 185.09,-20.01"/>
<polygon fill="black" stroke="black" points="184.87,-16.5 174.76,-19.66 184.63,-23.5 184.87,-16.5"/>
</g>
<!-- theory&#45;&gt;instance -->
<g id="edge49" class="edge">
<title>theory:col2DIM&#45;&gt;instance:assumpCAJI</title>
<path fill="none" stroke="black" d="M394.06,-181.03C558.2,-192.56 554.96,-157.82 546.08,-144 484.18,-47.73 326.31,-24.09 185.03,-19.81"/>
<polygon fill="black" stroke="black" points="184.98,-16.3 174.89,-19.53 184.79,-23.3 184.98,-16.3"/>
</g>
<!-- theory&#45;&gt;theory -->
<g id="edge22" class="edge">
<title>theory:gravitationalAccel&#45;&gt;theory:force</title>
<path fill="none" stroke="black" d="M393.31,-166.44C403.48,-166.13 411.08,-164.65 411.08,-162 411.08,-160.34 408.11,-159.15 403.4,-158.4"/>
<polygon fill="black" stroke="black" points="403.57,-154.91 393.31,-157.56 402.98,-161.88 403.57,-154.91"/>
</g>
<!-- theory&#45;&gt;theory -->
<g id="edge35" class="edge">
<title>theory:accj&#45;&gt;theory:newtonSL</title>
<path fill="none" stroke="black" d="M393.31,-156.91C403.48,-158.62 411.08,-163.05 411.08,-171 411.08,-181.97 406.62,-186.25 401.89,-185.89"/>
<polygon fill="black" stroke="black" points="403.76,-182.92 393.58,-180 399.71,-188.64 403.76,-182.92"/>
</g>
<!-- theory&#45;&gt;theory -->
<g id="edge36" class="edge">
<title>theory:accj&#45;&gt;theory:gravitationalAccel</title>
<path fill="none" stroke="black" d="M393.11,-170.8C412.26,-171.82 429.08,-168.89 429.08,-162 429.08,-156.35 417.76,-153.36 403.12,-153.03"/>
<polygon fill="black" stroke="black" points="403.05,-149.53 393.11,-153.2 403.17,-156.53 403.05,-149.53"/>
</g>
<!-- theory&#45;&gt;theory -->
<g id="edge43" class="edge">
<title>theory:angAccj&#45;&gt;theory:newtonSLR</title>
<path fill="none" stroke="black" d="M393.11,-149.49C412.26,-148.89 429.08,-155.5 429.08,-171 429.08,-193.36 412.62,-197.2 400.43,-187.64"/>
<polygon fill="black" stroke="black" points="402.86,-185.11 393.58,-180 397.65,-189.78 402.86,-185.11"/>
</g>
<!-- theory&#45;&gt;theory -->
<g id="edge51" class="edge">
<title>theory:col2DIM&#45;&gt;theory:impulseS</title>
<path fill="none" stroke="black" d="M393.37,-174.31C420.59,-177.78 447.08,-173.67 447.08,-162 447.08,-151.79 426.79,-147.37 403.49,-148.75"/>
<polygon fill="black" stroke="black" points="403,-145.28 393.37,-149.69 403.65,-152.25 403,-145.28"/>
</g>
</g>
</svg>
