<?xml version="1.0" encoding="UTF-8" standalone="no"?>
<!DOCTYPE svg PUBLIC "-//W3C//DTD SVG 1.1//EN"
 "http://www.w3.org/Graphics/SVG/1.1/DTD/svg11.dtd">
<!-- Generated by graphviz version 2.43.0 (0)
 -->
<!-- Title: avsall Pages: 1 -->
<svg width="3547pt" height="120pt"
 viewBox="0.00 0.00 3546.50 119.60" xmlns="http://www.w3.org/2000/svg" xmlns:xlink="http://www.w3.org/1999/xlink">
<g id="graph0" class="graph" transform="scale(1 1) rotate(0) translate(4 115.6)">
<title>avsall</title>
<polygon fill="white" stroke="transparent" points="-4,4 -4,-115.6 3542.5,-115.6 3542.5,4 -4,4"/>
<!-- dataDefn -->
<g id="node1" class="node">
<title>dataDefn</title>
<polygon fill="#bbffff" stroke="black" points="167,-108 0,-108 0,-72 167,-72 167,-108"/>
<text text-anchor="middle" x="83.5" y="-86.3" font-family="Times,serif" font-size="14.00">DD:momentOfInertia</text>
</g>
<!-- assumpOT -->
<g id="node2" class="node">
<title>assumpOT</title>
<polygon fill="mistyrose" stroke="black" points="136.5,-36 30.5,-36 30.5,0 136.5,0 136.5,-36"/>
<text text-anchor="middle" x="83.5" y="-14.3" font-family="Times,serif" font-size="14.00">A:assumpOT</text>
</g>
<!-- dataDefn&#45;&gt;assumpOT -->
<g id="edge1" class="edge">
<title>dataDefn:p_CM&#45;&gt;assumpOT</title>
<path fill="none" stroke="black" d="M12.51,-71.7C-3.19,-59.01 -0.42,-42.11 20.83,-30.91"/>
<polygon fill="black" stroke="black" points="22.52,-33.99 30.27,-26.77 19.71,-27.58 22.52,-33.99"/>
</g>
<!-- dataDefn&#45;&gt;assumpOT -->
<g id="edge2" class="edge">
<title>dataDefn:linearDisplacement&#45;&gt;assumpOT</title>
<path fill="none" stroke="black" d="M24.34,-71.7C13.79,-61.47 13.25,-48.5 22.71,-37.99"/>
<polygon fill="black" stroke="black" points="25.01,-40.63 30.38,-31.49 20.49,-35.29 25.01,-40.63"/>
</g>
<!-- dataDefn&#45;&gt;assumpOT -->
<g id="edge3" class="edge">
<title>dataDefn:linearVelocity&#45;&gt;assumpOT</title>
<path fill="none" stroke="black" d="M36.17,-71.7C29.46,-63.56 27.81,-53.69 31.23,-44.7"/>
<polygon fill="black" stroke="black" points="34.24,-46.49 36.34,-36.1 28.22,-42.91 34.24,-46.49"/>
</g>
<!-- dataDefn&#45;&gt;assumpOT -->
<g id="edge4" class="edge">
<title>dataDefn:linearAcceleration&#45;&gt;assumpOT</title>
<path fill="none" stroke="black" d="M48.01,-71.7C43.13,-63.81 41.81,-54.3 44.07,-45.55"/>
<polygon fill="black" stroke="black" points="47.39,-46.67 48.13,-36.1 40.96,-43.91 47.39,-46.67"/>
</g>
<!-- dataDefn&#45;&gt;assumpOT -->
<g id="edge5" class="edge">
<title>dataDefn:angularDisplacement&#45;&gt;assumpOT</title>
<path fill="none" stroke="black" d="M59.84,-71.7C56.62,-63.9 55.73,-54.51 57.16,-45.83"/>
<polygon fill="black" stroke="black" points="60.56,-46.68 59.92,-36.1 53.83,-44.77 60.56,-46.68"/>
</g>
<!-- dataDefn&#45;&gt;assumpOT -->
<g id="edge7" class="edge">
<title>dataDefn:angularVelocity&#45;&gt;assumpOT</title>
<path fill="none" stroke="black" d="M71.67,-71.7C70.08,-63.98 69.62,-54.71 70.31,-46.11"/>
<polygon fill="black" stroke="black" points="73.79,-46.49 71.71,-36.1 66.86,-45.52 73.79,-46.49"/>
</g>
<!-- dataDefn&#45;&gt;assumpOT -->
<g id="edge9" class="edge">
<title>dataDefn:angularAcceleration&#45;&gt;assumpOT</title>
<path fill="none" stroke="black" d="M83.5,-71.7C83.5,-63.98 83.5,-54.71 83.5,-46.11"/>
<polygon fill="black" stroke="black" points="87,-46.1 83.5,-36.1 80,-46.1 87,-46.1"/>
</g>
<!-- dataDefn&#45;&gt;assumpOT -->
<g id="edge11" class="edge">
<title>dataDefn:velocityB&#45;&gt;assumpOT</title>
<path fill="none" stroke="black" d="M95.33,-71.7C96.92,-63.98 97.38,-54.71 96.69,-46.11"/>
<polygon fill="black" stroke="black" points="100.14,-45.52 95.29,-36.1 93.21,-46.49 100.14,-45.52"/>
</g>
<!-- dataDefn&#45;&gt;assumpOT -->
<g id="edge12" class="edge">
<title>dataDefn:kEnergy&#45;&gt;assumpOT</title>
<path fill="none" stroke="black" d="M107.16,-71.7C110.38,-63.9 111.27,-54.51 109.84,-45.83"/>
<polygon fill="black" stroke="black" points="113.17,-44.77 107.08,-36.1 106.44,-46.68 113.17,-44.77"/>
</g>
<!-- dataDefn&#45;&gt;assumpOT -->
<g id="edge15" class="edge">
<title>dataDefn:v_iAB&#45;&gt;assumpOT</title>
<path fill="none" stroke="black" d="M118.99,-71.7C123.87,-63.81 125.19,-54.3 122.93,-45.55"/>
<polygon fill="black" stroke="black" points="126.04,-43.91 118.87,-36.1 119.61,-46.67 126.04,-43.91"/>
</g>
<!-- dataDefn&#45;&gt;assumpOT -->
<g id="edge16" class="edge">
<title>dataDefn:impulseV&#45;&gt;assumpOT</title>
<path fill="none" stroke="black" d="M130.83,-71.7C137.54,-63.56 139.19,-53.69 135.77,-44.7"/>
<polygon fill="black" stroke="black" points="138.78,-42.91 130.66,-36.1 132.76,-46.49 138.78,-42.91"/>
</g>
<!-- dataDefn&#45;&gt;assumpOT -->
<g id="edge17" class="edge">
<title>dataDefn:potEnergy&#45;&gt;assumpOT</title>
<path fill="none" stroke="black" d="M142.66,-71.7C153.21,-61.47 153.75,-48.5 144.29,-37.99"/>
<polygon fill="black" stroke="black" points="146.51,-35.29 136.62,-31.49 141.99,-40.63 146.51,-35.29"/>
</g>
<!-- dataDefn&#45;&gt;assumpOT -->
<g id="edge20" class="edge">
<title>dataDefn:momentOfInertia&#45;&gt;assumpOT</title>
<path fill="none" stroke="black" d="M154.49,-71.7C170.19,-59.01 167.42,-42.11 146.17,-30.91"/>
<polygon fill="black" stroke="black" points="147.29,-27.58 136.73,-26.77 144.48,-33.99 147.29,-27.58"/>
</g>
<!-- assumpOD -->
<g id="node3" class="node">
<title>assumpOD</title>
<polygon fill="mistyrose" stroke="black" points="382.5,-36 274.5,-36 274.5,0 382.5,0 382.5,-36"/>
<text text-anchor="middle" x="328.5" y="-14.3" font-family="Times,serif" font-size="14.00">A:assumpOD</text>
</g>
<!-- dataDefn&#45;&gt;assumpOD -->
<g id="edge6" class="edge">
<title>dataDefn:angularDisplacement&#45;&gt;assumpOD</title>
<path fill="none" stroke="black" d="M119.57,-71.97C158.22,-59.41 217.77,-42.62 264.14,-31.34"/>
<polygon fill="black" stroke="black" points="265.21,-34.69 274.12,-28.95 263.58,-27.88 265.21,-34.69"/>
</g>
<!-- dataDefn&#45;&gt;assumpOD -->
<g id="edge8" class="edge">
<title>dataDefn:angularVelocity&#45;&gt;assumpOD</title>
<path fill="none" stroke="black" d="M131.35,-71.97C169.42,-60.39 222.68,-45.21 264.41,-34.08"/>
<polygon fill="black" stroke="black" points="265.43,-37.42 274.2,-31.48 263.64,-30.66 265.43,-37.42"/>
</g>
<!-- dataDefn&#45;&gt;assumpOD -->
<g id="edge10" class="edge">
<title>dataDefn:angularAcceleration&#45;&gt;assumpOD</title>
<path fill="none" stroke="black" d="M143.12,-71.97C179.92,-61.45 227.1,-47.97 264.65,-37.24"/>
<polygon fill="black" stroke="black" points="265.82,-40.55 274.48,-34.44 263.9,-33.82 265.82,-40.55"/>
</g>
<!-- dataDefn&#45;&gt;assumpOD -->
<g id="edge13" class="edge">
<title>dataDefn:kEnergy&#45;&gt;assumpOD</title>
<path fill="none" stroke="black" d="M154.9,-71.97C191.66,-62.06 235.76,-49.51 270.43,-39.12"/>
<polygon fill="black" stroke="black" points="271.84,-42.35 280.4,-36.11 269.82,-35.65 271.84,-42.35"/>
</g>
<!-- dataDefn&#45;&gt;assumpOD -->
<g id="edge18" class="edge">
<title>dataDefn:potEnergy&#45;&gt;assumpOD</title>
<path fill="none" stroke="black" d="M166.67,-71.97C205.36,-62.1 249.43,-49.62 282.35,-39.25"/>
<polygon fill="black" stroke="black" points="283.73,-42.49 292.2,-36.11 281.6,-35.82 283.73,-42.49"/>
</g>
<!-- assumpDI -->
<g id="node4" class="node">
<title>assumpDI</title>
<polygon fill="mistyrose" stroke="black" points="256.5,-36 154.5,-36 154.5,0 256.5,0 256.5,-36"/>
<text text-anchor="middle" x="205.5" y="-14.3" font-family="Times,serif" font-size="14.00">A:assumpDI</text>
</g>
<!-- dataDefn&#45;&gt;assumpDI -->
<g id="edge14" class="edge">
<title>dataDefn:kEnergy&#45;&gt;assumpDI</title>
<path fill="none" stroke="black" d="M107.45,-71.88C122.58,-62.64 142.49,-51.13 160.46,-41.21"/>
<polygon fill="black" stroke="black" points="162.54,-44.06 169.64,-36.19 159.18,-37.92 162.54,-44.06"/>
</g>
<!-- dataDefn&#45;&gt;assumpDI -->
<g id="edge19" class="edge">
<title>dataDefn:potEnergy&#45;&gt;assumpDI</title>
<path fill="none" stroke="black" d="M119.24,-71.88C136.15,-62.72 156.14,-51.34 172.66,-41.48"/>
<polygon fill="black" stroke="black" points="174.69,-44.35 181.44,-36.19 171.07,-38.36 174.69,-44.35"/>
</g>
<!-- theory -->
<g id="node5" class="node">
<title>theory</title>
<polygon fill="#fff68f" stroke="black" points="353,-108 272,-108 272,-72 353,-72 353,-108"/>
<text text-anchor="middle" x="312.5" y="-86.3" font-family="Times,serif" font-size="14.00">IM:col2D</text>
</g>
<!-- theory&#45;&gt;assumpOT -->
<g id="edge22" class="edge">
<title>theory:impulseS&#45;&gt;assumpOT</title>
<path fill="none" stroke="black" d="M271.96,-83.09C258.99,-79.74 246.6,-75.53 235.5,-72 199.83,-60.66 159.91,-48.76 129.31,-39.12"/>
<polygon fill="black" stroke="black" points="130.31,-35.77 119.72,-36.07 128.19,-42.44 130.31,-35.77"/>
</g>
<!-- theory&#45;&gt;assumpOT -->
<g id="edge26" class="edge">
<title>theory:accj&#45;&gt;assumpOT</title>
<path fill="none" stroke="black" d="M271.99,-78.02C265.75,-75.97 259.44,-73.89 253.5,-72 217.67,-60.61 177.56,-48.66 145.24,-39"/>
<polygon fill="black" stroke="black" points="146.06,-35.59 135.47,-36.07 144.05,-42.29 146.06,-35.59"/>
</g>
<!-- theory&#45;&gt;assumpOT -->
<g id="edge30" class="edge">
<title>theory:angAccj&#45;&gt;assumpOT</title>
<path fill="none" stroke="black" d="M271.76,-72.08C271.67,-72.06 271.59,-72.03 271.5,-72 230.28,-58.9 183.39,-45.05 146.67,-34.8"/>
<polygon fill="black" stroke="black" points="147.17,-31.31 136.6,-32.01 145.3,-38.05 147.17,-31.31"/>
</g>
<!-- theory&#45;&gt;assumpOT -->
<g id="edge33" class="edge">
<title>theory:col2DIM&#45;&gt;assumpOT</title>
<path fill="none" stroke="black" d="M289.04,-71.85C242.33,-57.01 188.42,-41.24 146.58,-30.83"/>
<polygon fill="black" stroke="black" points="147.31,-27.41 136.77,-28.44 145.65,-34.21 147.31,-27.41"/>
</g>
<!-- theory&#45;&gt;assumpOD -->
<g id="edge21" class="edge">
<title>theory:newtonSLR&#45;&gt;assumpOD</title>
<path fill="none" stroke="black" d="M353.5,-109C329.13,-120.63 320.64,-88.04 317,-72 315,-63.2 311.43,-54.12 309.14,-46"/>
<polygon fill="black" stroke="black" points="312.53,-45.11 307.1,-36.01 305.67,-46.51 312.53,-45.11"/>
</g>
<!-- theory&#45;&gt;assumpOD -->
<g id="edge23" class="edge">
<title>theory:impulseS&#45;&gt;assumpOD</title>
<path fill="none" stroke="black" d="M334.93,-71.7C332.92,-62.97 329.38,-53.97 326.36,-45.94"/>
<polygon fill="black" stroke="black" points="329.6,-44.62 322.96,-36.36 323,-46.96 329.6,-44.62"/>
</g>
<!-- theory&#45;&gt;assumpOD -->
<g id="edge27" class="edge">
<title>theory:accj&#45;&gt;assumpOD</title>
<path fill="none" stroke="black" d="M352.93,-71.7C350.87,-62.78 347.21,-53.57 343.34,-45.4"/>
<polygon fill="black" stroke="black" points="346.41,-43.72 338.78,-36.36 340.16,-46.87 346.41,-43.72"/>
</g>
<!-- theory&#45;&gt;assumpOD -->
<g id="edge31" class="edge">
<title>theory:angAccj&#45;&gt;assumpOD</title>
<path fill="none" stroke="black" d="M353.85,-109.13C383.06,-120.37 374.63,-87.98 371,-72 368.87,-62.61 364.94,-52.89 359.93,-44.38"/>
<polygon fill="black" stroke="black" points="362.81,-42.38 354.35,-36.01 356.99,-46.27 362.81,-42.38"/>
</g>
<!-- theory&#45;&gt;assumpOD -->
<g id="edge34" class="edge">
<title>theory:col2DIM&#45;&gt;assumpOD</title>
<path fill="none" stroke="black" d="M353.78,-109.07C401.1,-120.5 392.63,-88.01 389,-72 386.82,-62.41 382.78,-52.48 376.64,-43.84"/>
<polygon fill="black" stroke="black" points="379.19,-41.44 370.1,-36.01 373.82,-45.93 379.19,-41.44"/>
</g>
<!-- theory&#45;&gt;assumpDI -->
<g id="edge28" class="edge">
<title>theory:accj&#45;&gt;assumpDI</title>
<path fill="none" stroke="black" d="M280.43,-71.88C265.76,-62.89 248.58,-51.76 234.32,-42.03"/>
<polygon fill="black" stroke="black" points="236.09,-39 225.87,-36.19 232.11,-44.76 236.09,-39"/>
</g>
<!-- theory&#45;&gt;assumpDI -->
<g id="edge37" class="edge">
<title>theory:col2DIM&#45;&gt;assumpDI</title>
<path fill="none" stroke="black" d="M292.22,-71.88C279.19,-62.72 261.94,-51.34 246.22,-41.48"/>
<polygon fill="black" stroke="black" points="248.02,-38.48 237.68,-36.19 244.33,-44.43 248.02,-38.48"/>
</g>
<!-- assumpAD -->
<g id="node6" class="node">
<title>assumpAD</title>
<polygon fill="mistyrose" stroke="black" points="508,-36 401,-36 401,0 508,0 508,-36"/>
<text text-anchor="middle" x="454.5" y="-14.3" font-family="Times,serif" font-size="14.00">A:assumpAD</text>
</g>
<!-- theory&#45;&gt;assumpAD -->
<g id="edge24" class="edge">
<title>theory:impulseS&#45;&gt;assumpAD</title>
<path fill="none" stroke="black" d="M335.44,-71.88C352.78,-62.35 376.76,-50.41 398.79,-40.28"/>
<polygon fill="black" stroke="black" points="400.43,-43.38 408.09,-36.07 397.54,-37.01 400.43,-43.38"/>
</g>
<!-- theory&#45;&gt;assumpAD -->
<g id="edge32" class="edge">
<title>theory:angAccj&#45;&gt;assumpAD</title>
<path fill="none" stroke="black" d="M347.24,-71.88C366.32,-62.47 390.18,-50.71 410.55,-40.67"/>
<polygon fill="black" stroke="black" points="412.21,-43.75 419.63,-36.19 409.11,-37.47 412.21,-43.75"/>
</g>
<!-- theory&#45;&gt;assumpAD -->
<g id="edge35" class="edge">
<title>theory:col2DIM&#45;&gt;assumpAD</title>
<path fill="none" stroke="black" d="M353.11,-74.5C375.17,-64.84 401.76,-51.98 422.39,-41.06"/>
<polygon fill="black" stroke="black" points="424.27,-44.03 431.41,-36.2 420.95,-37.86 424.27,-44.03"/>
</g>
<!-- assumpCT -->
<g id="node7" class="node">
<title>assumpCT</title>
<polygon fill="mistyrose" stroke="black" points="631,-36 526,-36 526,0 631,0 631,-36"/>
<text text-anchor="middle" x="578.5" y="-14.3" font-family="Times,serif" font-size="14.00">A:assumpCT</text>
</g>
<!-- theory&#45;&gt;assumpCT -->
<g id="edge25" class="edge">
<title>theory:impulseS&#45;&gt;assumpCT</title>
<path fill="none" stroke="black" d="M353.21,-76.76C392.73,-66.13 454.12,-50.25 507.5,-36 510.28,-35.26 513.13,-34.49 516.01,-33.72"/>
<polygon fill="black" stroke="black" points="517.17,-37.03 525.91,-31.05 515.35,-30.27 517.17,-37.03"/>
</g>
<!-- theory&#45;&gt;assumpCT -->
<g id="edge36" class="edge">
<title>theory:col2DIM&#45;&gt;assumpCT</title>
<path fill="none" stroke="black" d="M353.26,-80.23C394.04,-70.4 458.4,-53.84 515.92,-38.55"/>
<polygon fill="black" stroke="black" points="517.06,-41.87 525.82,-35.91 515.26,-35.11 517.06,-41.87"/>
</g>
<!-- assumpCAJI -->
<g id="node8" class="node">
<title>assumpCAJI</title>
<polygon fill="mistyrose" stroke="black" points="765.5,-36 649.5,-36 649.5,0 765.5,0 765.5,-36"/>
<text text-anchor="middle" x="707.5" y="-14.3" font-family="Times,serif" font-size="14.00">A:assumpCAJI</text>
</g>
<!-- theory&#45;&gt;assumpCAJI -->
<g id="edge29" class="edge">
<title>theory:accj&#45;&gt;assumpCAJI</title>
<path fill="none" stroke="black" d="M353.12,-82.78C414,-73.98 531.95,-56.63 631.5,-36 634.11,-35.46 636.77,-34.88 639.46,-34.29"/>
<polygon fill="black" stroke="black" points="640.32,-37.68 649.28,-32.03 638.75,-30.86 640.32,-37.68"/>
</g>
<!-- theory&#45;&gt;assumpCAJI -->
<g id="edge38" class="edge">
<title>theory:col2DIM&#45;&gt;assumpCAJI</title>
<path fill="none" stroke="black" d="M353.1,-84.36C414.88,-76.43 535.74,-59.08 639.83,-37.98"/>
<polygon fill="black" stroke="black" points="640.76,-41.36 649.85,-35.93 639.35,-34.51 640.76,-41.36"/>
</g>
<!-- lcEC -->
<g id="node9" class="node">
<title>lcEC</title>
<polygon fill="lavender" stroke="black" points="615.5,-108 541.5,-108 541.5,-72 615.5,-72 615.5,-108"/>
<text text-anchor="middle" x="578.5" y="-86.3" font-family="Times,serif" font-size="14.00">LC:lcEC</text>
</g>
<!-- lcEC&#45;&gt;assumpCT -->
<g id="edge39" class="edge">
<title>lcEC&#45;&gt;assumpCT</title>
<path fill="none" stroke="black" d="M578.5,-71.7C578.5,-63.98 578.5,-54.71 578.5,-46.11"/>
<polygon fill="black" stroke="black" points="582,-46.1 578.5,-36.1 575,-46.1 582,-46.1"/>
</g>
<!-- lcID -->
<g id="node10" class="node">
<title>lcID</title>
<polygon fill="lavender" stroke="black" points="254,-108 185,-108 185,-72 254,-72 254,-108"/>
<text text-anchor="middle" x="219.5" y="-86.3" font-family="Times,serif" font-size="14.00">LC:lcID</text>
</g>
<!-- lcID&#45;&gt;assumpDI -->
<g id="edge40" class="edge">
<title>lcID&#45;&gt;assumpDI</title>
<path fill="none" stroke="black" d="M216.04,-71.7C214.5,-63.98 212.64,-54.71 210.92,-46.11"/>
<polygon fill="black" stroke="black" points="214.31,-45.22 208.92,-36.1 207.45,-46.6 214.31,-45.22"/>
</g>
<!-- lcIJC -->
<g id="node11" class="node">
<title>lcIJC</title>
<polygon fill="lavender" stroke="black" points="744.5,-108 670.5,-108 670.5,-72 744.5,-72 744.5,-108"/>
<text text-anchor="middle" x="707.5" y="-86.3" font-family="Times,serif" font-size="14.00">LC:lcIJC</text>
</g>
<!-- lcIJC&#45;&gt;assumpCAJI -->
<g id="edge41" class="edge">
<title>lcIJC&#45;&gt;assumpCAJI</title>
<path fill="none" stroke="black" d="M707.5,-71.7C707.5,-63.98 707.5,-54.71 707.5,-46.11"/>
<polygon fill="black" stroke="black" points="711,-46.1 707.5,-36.1 704,-46.1 711,-46.1"/>
</g>
<!-- assumpCST -->
<g id="node12" class="node">
<title>assumpCST</title>
<polygon fill="mistyrose" stroke="black" points="899,-36 784,-36 784,0 899,0 899,-36"/>
<text text-anchor="middle" x="841.5" y="-14.3" font-family="Times,serif" font-size="14.00">A:assumpCST</text>
</g>
<!-- simSpace -->
<g id="node13" class="node">
<title>simSpace</title>
<polygon fill="ivory" stroke="black" points="872.5,-108 762.5,-108 762.5,-72 872.5,-72 872.5,-108"/>
<text text-anchor="middle" x="817.5" y="-86.3" font-family="Times,serif" font-size="14.00">FR:simSpace</text>
</g>
<!-- inputInitialConds -->
<g id="node14" class="node">
<title>inputInitialConds</title>
<polygon fill="ivory" stroke="black" points="1056,-108 891,-108 891,-72 1056,-72 1056,-108"/>
<text text-anchor="middle" x="973.5" y="-86.3" font-family="Times,serif" font-size="14.00">FR:inputInitialConds</text>
</g>
<!-- inputSurfaceProps -->
<g id="node15" class="node">
<title>inputSurfaceProps</title>
<polygon fill="ivory" stroke="black" points="1249,-108 1074,-108 1074,-72 1249,-72 1249,-108"/>
<text text-anchor="middle" x="1161.5" y="-86.3" font-family="Times,serif" font-size="14.00">FR:inputSurfaceProps</text>
</g>
<!-- verifyPhysCons -->
<g id="node16" class="node">
<title>verifyPhysCons</title>
<polygon fill="ivory" stroke="black" points="1419.5,-108 1267.5,-108 1267.5,-72 1419.5,-72 1419.5,-108"/>
<text text-anchor="middle" x="1343.5" y="-86.3" font-family="Times,serif" font-size="14.00">FR:verifyPhysCons</text>
</g>
<!-- calcTransOverTime -->
<g id="node17" class="node">
<title>calcTransOverTime</title>
<polygon fill="ivory" stroke="black" points="1617,-108 1438,-108 1438,-72 1617,-72 1617,-108"/>
<text text-anchor="middle" x="1527.5" y="-86.3" font-family="Times,serif" font-size="14.00">FR:calcTransOverTime</text>
</g>
<!-- calcRotOverTime -->
<g id="node18" class="node">
<title>calcRotOverTime</title>
<polygon fill="ivory" stroke="black" points="1799.5,-108 1635.5,-108 1635.5,-72 1799.5,-72 1799.5,-108"/>
<text text-anchor="middle" x="1717.5" y="-86.3" font-family="Times,serif" font-size="14.00">FR:calcRotOverTime</text>
</g>
<!-- deterColls -->
<g id="node19" class="node">
<title>deterColls</title>
<polygon fill="ivory" stroke="black" points="1933,-108 1818,-108 1818,-72 1933,-72 1933,-108"/>
<text text-anchor="middle" x="1875.5" y="-86.3" font-family="Times,serif" font-size="14.00">FR:deterColls</text>
</g>
<!-- deterCollRespOverTime -->
<g id="node20" class="node">
<title>deterCollRespOverTime</title>
<polygon fill="ivory" stroke="black" points="2163.5,-108 1951.5,-108 1951.5,-72 2163.5,-72 2163.5,-108"/>
<text text-anchor="middle" x="2057.5" y="-86.3" font-family="Times,serif" font-size="14.00">FR:deterCollRespOverTime</text>
</g>
<!-- performance -->
<g id="node21" class="node">
<title>performance</title>
<polygon fill="ivory" stroke="black" points="2325.5,-108 2181.5,-108 2181.5,-72 2325.5,-72 2325.5,-108"/>
<text text-anchor="middle" x="2253.5" y="-86.3" font-family="Times,serif" font-size="14.00">NFR:performance</text>
</g>
<!-- correctness -->
<g id="node22" class="node">
<title>correctness</title>
<polygon fill="ivory" stroke="black" points="2481,-108 2344,-108 2344,-72 2481,-72 2481,-108"/>
<text text-anchor="middle" x="2412.5" y="-86.3" font-family="Times,serif" font-size="14.00">NFR:correctness</text>
</g>
<!-- usability -->
<g id="node23" class="node">
<title>usability</title>
<polygon fill="ivory" stroke="black" points="2614,-108 2499,-108 2499,-72 2614,-72 2614,-108"/>
<text text-anchor="middle" x="2556.5" y="-86.3" font-family="Times,serif" font-size="14.00">NFR:usability</text>
</g>
<!-- understandability -->
<g id="node24" class="node">
<title>understandability</title>
<polygon fill="ivory" stroke="black" points="2812.5,-108 2632.5,-108 2632.5,-72 2812.5,-72 2812.5,-108"/>
<text text-anchor="middle" x="2722.5" y="-86.3" font-family="Times,serif" font-size="14.00">NFR:understandability</text>
</g>
<!-- maintainability -->
<g id="node25" class="node">
<title>maintainability</title>
<polygon fill="ivory" stroke="black" points="2992,-108 2831,-108 2831,-72 2992,-72 2992,-108"/>
<text text-anchor="middle" x="2911.5" y="-86.3" font-family="Times,serif" font-size="14.00">NFR:maintainability</text>
</g>
<!-- lcVODES -->
<g id="node26" class="node">
<title>lcVODES</title>
<polygon fill="lavender" stroke="black" points="3115,-108 3010,-108 3010,-72 3115,-72 3115,-108"/>
<text text-anchor="middle" x="3062.5" y="-86.3" font-family="Times,serif" font-size="14.00">LC:lcVODES</text>
</g>
<!-- ucSRB -->
<g id="node27" class="node">
<title>ucSRB</title>
<polygon fill="lavender" stroke="black" points="3224,-108 3133,-108 3133,-72 3224,-72 3224,-108"/>
<text text-anchor="middle" x="3178.5" y="-86.3" font-family="Times,serif" font-size="14.00">UC:ucSRB</text>
</g>
<!-- ucEI -->
<g id="node28" class="node">
<title>ucEI</title>
<polygon fill="lavender" stroke="black" points="3318.5,-108 3242.5,-108 3242.5,-72 3318.5,-72 3318.5,-108"/>
<text text-anchor="middle" x="3280.5" y="-86.3" font-family="Times,serif" font-size="14.00">UC:ucEI</text>
</g>
<!-- ucCCS -->
<g id="node29" class="node">
<title>ucCCS</title>
<polygon fill="lavender" stroke="black" points="3428,-108 3337,-108 3337,-72 3428,-72 3428,-108"/>
<text text-anchor="middle" x="3382.5" y="-86.3" font-family="Times,serif" font-size="14.00">UC:ucCCS</text>
</g>
<!-- ucORB -->
<g id="node30" class="node">
<title>ucORB</title>
<polygon fill="lavender" stroke="black" points="3538.5,-108 3446.5,-108 3446.5,-72 3538.5,-72 3538.5,-108"/>
<text text-anchor="middle" x="3492.5" y="-86.3" font-family="Times,serif" font-size="14.00">UC:ucORB</text>
</g>
</g>
</svg>
