<?xml version="1.0" encoding="UTF-8" standalone="no"?>
<!DOCTYPE svg PUBLIC "-//W3C//DTD SVG 1.1//EN"
 "http://www.w3.org/Graphics/SVG/1.1/DTD/svg11.dtd">
<!-- Generated by graphviz version 2.43.0 (0)
 -->
<!-- Title: avsall Pages: 1 -->
<svg width="5641pt" height="116pt"
 viewBox="0.00 0.00 5641.00 116.00" xmlns="http://www.w3.org/2000/svg" xmlns:xlink="http://www.w3.org/1999/xlink">
<g id="graph0" class="graph" transform="scale(1 1) rotate(0) translate(4 112)">
<title>avsall</title>
<polygon fill="white" stroke="transparent" points="-4,4 -4,-112 5637,-112 5637,4 -4,4"/>
<!-- p_CM -->
<g id="node1" class="node">
<title>p_CM</title>
<polygon fill="#bbffff" stroke="black" points="1032,-108 914,-108 914,-72 1032,-72 1032,-108"/>
<text text-anchor="middle" x="973" y="-86.3" font-family="Times,serif" font-size="14.00">DD:ctrOfMass</text>
</g>
<!-- assumpOT -->
<g id="node2" class="node">
<title>assumpOT</title>
<polygon fill="mistyrose" stroke="black" points="1154,-36 1048,-36 1048,0 1154,0 1154,-36"/>
<text text-anchor="middle" x="1101" y="-14.3" font-family="Times,serif" font-size="14.00">A:assumpOT</text>
</g>
<!-- p_CM&#45;&gt;assumpOT -->
<g id="edge1" class="edge">
<title>p_CM&#45;&gt;assumpOT</title>
<path fill="none" stroke="black" d="M1004.31,-71.88C1021.2,-62.64 1042.25,-51.13 1060.38,-41.21"/>
<polygon fill="black" stroke="black" points="1062.47,-44.06 1069.57,-36.19 1059.11,-37.92 1062.47,-44.06"/>
</g>
<!-- linearDisplacement -->
<g id="node3" class="node">
<title>linearDisplacement</title>
<polygon fill="#bbffff" stroke="black" points="94,-108 0,-108 0,-72 94,-72 94,-108"/>
<text text-anchor="middle" x="47" y="-86.3" font-family="Times,serif" font-size="14.00">DD:linDisp</text>
</g>
<!-- linearDisplacement&#45;&gt;assumpOT -->
<g id="edge2" class="edge">
<title>linearDisplacement&#45;&gt;assumpOT</title>
<path fill="none" stroke="black" d="M94.16,-73.81C97.13,-73.12 100.1,-72.51 103,-72 283.81,-40.24 847.59,-24.77 1037.69,-20.36"/>
<polygon fill="black" stroke="black" points="1037.88,-23.86 1047.79,-20.13 1037.72,-16.86 1037.88,-23.86"/>
</g>
<!-- linearVelocity -->
<g id="node4" class="node">
<title>linearVelocity</title>
<polygon fill="#bbffff" stroke="black" points="195.5,-108 112.5,-108 112.5,-72 195.5,-72 195.5,-108"/>
<text text-anchor="middle" x="154" y="-86.3" font-family="Times,serif" font-size="14.00">DD:linVel</text>
</g>
<!-- linearVelocity&#45;&gt;assumpOT -->
<g id="edge3" class="edge">
<title>linearVelocity&#45;&gt;assumpOT</title>
<path fill="none" stroke="black" d="M195.51,-74.17C198.7,-73.34 201.88,-72.6 205,-72 364.87,-41.19 860.73,-25.36 1037.56,-20.59"/>
<polygon fill="black" stroke="black" points="1037.84,-24.08 1047.74,-20.32 1037.65,-17.09 1037.84,-24.08"/>
</g>
<!-- linearAcceleration -->
<g id="node5" class="node">
<title>linearAcceleration</title>
<polygon fill="#bbffff" stroke="black" points="300,-108 214,-108 214,-72 300,-72 300,-108"/>
<text text-anchor="middle" x="257" y="-86.3" font-family="Times,serif" font-size="14.00">DD:linAcc</text>
</g>
<!-- linearAcceleration&#45;&gt;assumpOT -->
<g id="edge4" class="edge">
<title>linearAcceleration&#45;&gt;assumpOT</title>
<path fill="none" stroke="black" d="M300.2,-73.99C303.16,-73.23 306.11,-72.56 309,-72 448.17,-45.03 875.16,-27.18 1037.48,-21.21"/>
<polygon fill="black" stroke="black" points="1037.92,-24.7 1047.78,-20.83 1037.66,-17.7 1037.92,-24.7"/>
</g>
<!-- angularDisplacement -->
<g id="node6" class="node">
<title>angularDisplacement</title>
<polygon fill="#bbffff" stroke="black" points="1152,-108 1050,-108 1050,-72 1152,-72 1152,-108"/>
<text text-anchor="middle" x="1101" y="-86.3" font-family="Times,serif" font-size="14.00">DD:angDisp</text>
</g>
<!-- angularDisplacement&#45;&gt;assumpOT -->
<g id="edge5" class="edge">
<title>angularDisplacement&#45;&gt;assumpOT</title>
<path fill="none" stroke="black" d="M1101,-71.7C1101,-63.98 1101,-54.71 1101,-46.11"/>
<polygon fill="black" stroke="black" points="1104.5,-46.1 1101,-36.1 1097.5,-46.1 1104.5,-46.1"/>
</g>
<!-- assumpOD -->
<g id="node7" class="node">
<title>assumpOD</title>
<polygon fill="mistyrose" stroke="black" points="1693,-36 1585,-36 1585,0 1693,0 1693,-36"/>
<text text-anchor="middle" x="1639" y="-14.3" font-family="Times,serif" font-size="14.00">A:assumpOD</text>
</g>
<!-- angularDisplacement&#45;&gt;assumpOD -->
<g id="edge6" class="edge">
<title>angularDisplacement&#45;&gt;assumpOD</title>
<path fill="none" stroke="black" d="M1152.25,-73.88C1155.2,-73.19 1158.13,-72.56 1161,-72 1307.51,-43.33 1482.53,-28.85 1574.78,-22.73"/>
<polygon fill="black" stroke="black" points="1575.04,-26.22 1584.79,-22.08 1574.59,-19.24 1575.04,-26.22"/>
</g>
<!-- angularVelocity -->
<g id="node8" class="node">
<title>angularVelocity</title>
<polygon fill="#bbffff" stroke="black" points="1262,-108 1170,-108 1170,-72 1262,-72 1262,-108"/>
<text text-anchor="middle" x="1216" y="-86.3" font-family="Times,serif" font-size="14.00">DD:angVel</text>
</g>
<!-- angularVelocity&#45;&gt;assumpOT -->
<g id="edge7" class="edge">
<title>angularVelocity&#45;&gt;assumpOT</title>
<path fill="none" stroke="black" d="M1187.87,-71.88C1172.83,-62.72 1154.13,-51.34 1137.94,-41.48"/>
<polygon fill="black" stroke="black" points="1139.6,-38.4 1129.24,-36.19 1135.96,-44.38 1139.6,-38.4"/>
</g>
<!-- angularVelocity&#45;&gt;assumpOD -->
<g id="edge8" class="edge">
<title>angularVelocity&#45;&gt;assumpOD</title>
<path fill="none" stroke="black" d="M1262.3,-74.35C1265.57,-73.5 1268.83,-72.71 1272,-72 1376.88,-48.65 1500.99,-33.22 1574.69,-25.31"/>
<polygon fill="black" stroke="black" points="1575.17,-28.77 1584.74,-24.24 1574.43,-21.81 1575.17,-28.77"/>
</g>
<!-- angularAcceleration -->
<g id="node9" class="node">
<title>angularAcceleration</title>
<polygon fill="#bbffff" stroke="black" points="1387.5,-108 1280.5,-108 1280.5,-72 1387.5,-72 1387.5,-108"/>
<text text-anchor="middle" x="1334" y="-86.3" font-family="Times,serif" font-size="14.00">DD:angAccel</text>
</g>
<!-- angularAcceleration&#45;&gt;assumpOT -->
<g id="edge9" class="edge">
<title>angularAcceleration&#45;&gt;assumpOT</title>
<path fill="none" stroke="black" d="M1280.25,-72.85C1245.61,-62.45 1200.42,-48.87 1164.07,-37.95"/>
<polygon fill="black" stroke="black" points="1164.66,-34.47 1154.08,-34.95 1162.65,-41.17 1164.66,-34.47"/>
</g>
<!-- angularAcceleration&#45;&gt;assumpOD -->
<g id="edge10" class="edge">
<title>angularAcceleration&#45;&gt;assumpOD</title>
<path fill="none" stroke="black" d="M1387.57,-74.36C1390.76,-73.54 1393.92,-72.75 1397,-72 1457,-57.34 1525.84,-42.45 1574.72,-32.2"/>
<polygon fill="black" stroke="black" points="1575.45,-35.62 1584.52,-30.15 1574.02,-28.77 1575.45,-35.62"/>
</g>
<!-- velocityB -->
<g id="node10" class="node">
<title>velocityB</title>
<polygon fill="#bbffff" stroke="black" points="446,-108 318,-108 318,-72 446,-72 446,-108"/>
<text text-anchor="middle" x="382" y="-86.3" font-family="Times,serif" font-size="14.00">DD:chaslesThm</text>
</g>
<!-- velocityB&#45;&gt;assumpOT -->
<g id="edge11" class="edge">
<title>velocityB&#45;&gt;assumpOT</title>
<path fill="none" stroke="black" d="M446.39,-73.47C449.29,-72.94 452.17,-72.44 455,-72 667.06,-38.79 921.74,-25.65 1037.81,-21.1"/>
<polygon fill="black" stroke="black" points="1038.08,-24.6 1047.93,-20.71 1037.81,-17.6 1038.08,-24.6"/>
</g>
<!-- kEnergy -->
<g id="node11" class="node">
<title>kEnergy</title>
<polygon fill="#bbffff" stroke="black" points="1510,-108 1406,-108 1406,-72 1510,-72 1510,-108"/>
<text text-anchor="middle" x="1458" y="-86.3" font-family="Times,serif" font-size="14.00">DD:kEnergy</text>
</g>
<!-- kEnergy&#45;&gt;assumpOT -->
<g id="edge12" class="edge">
<title>kEnergy&#45;&gt;assumpOT</title>
<path fill="none" stroke="black" d="M1405.84,-74.11C1402.86,-73.37 1399.89,-72.66 1397,-72 1317.37,-53.82 1224.52,-38.07 1164.35,-28.56"/>
<polygon fill="black" stroke="black" points="1164.66,-25.07 1154.24,-26.98 1163.58,-31.98 1164.66,-25.07"/>
</g>
<!-- kEnergy&#45;&gt;assumpOD -->
<g id="edge13" class="edge">
<title>kEnergy&#45;&gt;assumpOD</title>
<path fill="none" stroke="black" d="M1502.28,-71.88C1527.35,-62.18 1558.9,-49.98 1585.37,-39.74"/>
<polygon fill="black" stroke="black" points="1586.8,-42.94 1594.87,-36.07 1584.28,-36.41 1586.8,-42.94"/>
</g>
<!-- assumpDI -->
<g id="node12" class="node">
<title>assumpDI</title>
<polygon fill="mistyrose" stroke="black" points="1882,-36 1780,-36 1780,0 1882,0 1882,-36"/>
<text text-anchor="middle" x="1831" y="-14.3" font-family="Times,serif" font-size="14.00">A:assumpDI</text>
</g>
<!-- kEnergy&#45;&gt;assumpDI -->
<g id="edge14" class="edge">
<title>kEnergy&#45;&gt;assumpDI</title>
<path fill="none" stroke="black" d="M1510,-74.34C1513.38,-73.51 1516.73,-72.72 1520,-72 1605.98,-52.93 1706.65,-36.91 1769.63,-27.63"/>
<polygon fill="black" stroke="black" points="1770.4,-31.05 1779.79,-26.14 1769.39,-24.13 1770.4,-31.05"/>
</g>
<!-- v_iAB -->
<g id="node13" class="node">
<title>v_iAB</title>
<polygon fill="#bbffff" stroke="black" points="582,-108 464,-108 464,-72 582,-72 582,-108"/>
<text text-anchor="middle" x="523" y="-86.3" font-family="Times,serif" font-size="14.00">DD:reVeInColl</text>
</g>
<!-- v_iAB&#45;&gt;assumpOT -->
<g id="edge15" class="edge">
<title>v_iAB&#45;&gt;assumpOT</title>
<path fill="none" stroke="black" d="M582.23,-73.67C585.19,-73.07 588.12,-72.51 591,-72 750.45,-43.93 940.75,-28.99 1037.59,-22.7"/>
<polygon fill="black" stroke="black" points="1038.04,-26.18 1047.8,-22.04 1037.59,-19.19 1038.04,-26.18"/>
</g>
<!-- impulseV -->
<g id="node14" class="node">
<title>impulseV</title>
<polygon fill="#bbffff" stroke="black" points="710,-108 600,-108 600,-72 710,-72 710,-108"/>
<text text-anchor="middle" x="655" y="-86.3" font-family="Times,serif" font-size="14.00">DD:impulseV</text>
</g>
<!-- impulseV&#45;&gt;assumpOT -->
<g id="edge16" class="edge">
<title>impulseV&#45;&gt;assumpOT</title>
<path fill="none" stroke="black" d="M710.06,-73.92C713.07,-73.24 716.07,-72.59 719,-72 830.11,-49.62 961.32,-33.66 1037.45,-25.42"/>
<polygon fill="black" stroke="black" points="1038.25,-28.85 1047.82,-24.31 1037.51,-21.89 1038.25,-28.85"/>
</g>
<!-- potEnergy -->
<g id="node15" class="node">
<title>potEnergy</title>
<polygon fill="#bbffff" stroke="black" points="1647.5,-108 1528.5,-108 1528.5,-72 1647.5,-72 1647.5,-108"/>
<text text-anchor="middle" x="1588" y="-86.3" font-family="Times,serif" font-size="14.00">DD:potEnergy</text>
</g>
<!-- potEnergy&#45;&gt;assumpOT -->
<g id="edge17" class="edge">
<title>potEnergy&#45;&gt;assumpOT</title>
<path fill="none" stroke="black" d="M1528.25,-73.83C1525.13,-73.18 1522.03,-72.56 1519,-72 1394.17,-48.79 1246.45,-32.69 1164.27,-24.73"/>
<polygon fill="black" stroke="black" points="1164.38,-21.22 1154.09,-23.75 1163.71,-28.19 1164.38,-21.22"/>
</g>
<!-- potEnergy&#45;&gt;assumpOD -->
<g id="edge18" class="edge">
<title>potEnergy&#45;&gt;assumpOD</title>
<path fill="none" stroke="black" d="M1600.61,-71.7C1606.6,-63.47 1613.88,-53.48 1620.48,-44.42"/>
<polygon fill="black" stroke="black" points="1623.48,-46.25 1626.54,-36.1 1617.82,-42.13 1623.48,-46.25"/>
</g>
<!-- potEnergy&#45;&gt;assumpDI -->
<g id="edge19" class="edge">
<title>potEnergy&#45;&gt;assumpDI</title>
<path fill="none" stroke="black" d="M1647.13,-71.97C1684.4,-61.23 1732.42,-47.4 1770.03,-36.56"/>
<polygon fill="black" stroke="black" points="1771.21,-39.87 1779.85,-33.73 1769.27,-33.14 1771.21,-39.87"/>
</g>
<!-- momentOfInertia -->
<g id="node16" class="node">
<title>momentOfInertia</title>
<polygon fill="#bbffff" stroke="black" points="895.5,-108 728.5,-108 728.5,-72 895.5,-72 895.5,-108"/>
<text text-anchor="middle" x="812" y="-86.3" font-family="Times,serif" font-size="14.00">DD:momentOfInertia</text>
</g>
<!-- momentOfInertia&#45;&gt;assumpOT -->
<g id="edge20" class="edge">
<title>momentOfInertia&#45;&gt;assumpOT</title>
<path fill="none" stroke="black" d="M882.33,-71.97C929.8,-60.47 991.93,-45.42 1037.83,-34.3"/>
<polygon fill="black" stroke="black" points="1038.77,-37.68 1047.66,-31.92 1037.12,-30.87 1038.77,-37.68"/>
</g>
<!-- newtonSLR -->
<g id="node17" class="node">
<title>newtonSLR</title>
<polygon fill="pink" stroke="black" points="1874,-108 1666,-108 1666,-72 1874,-72 1874,-108"/>
<text text-anchor="middle" x="1770" y="-86.3" font-family="Times,serif" font-size="14.00">TM:NewtonSecLawRotMot</text>
</g>
<!-- newtonSLR&#45;&gt;assumpOD -->
<g id="edge21" class="edge">
<title>newtonSLR&#45;&gt;assumpOD</title>
<path fill="none" stroke="black" d="M1737.95,-71.88C1720.51,-62.55 1698.73,-50.92 1680.06,-40.94"/>
<polygon fill="black" stroke="black" points="1681.64,-37.82 1671.17,-36.19 1678.34,-43.99 1681.64,-37.82"/>
</g>
<!-- theory -->
<g id="node18" class="node">
<title>theory</title>
<polygon fill="#fff68f" stroke="black" points="1982,-108 1892,-108 1892,-72 1982,-72 1982,-108"/>
<text text-anchor="middle" x="1937" y="-86.3" font-family="Times,serif" font-size="14.00">IM:rotMot</text>
</g>
<!-- theory&#45;&gt;assumpOT -->
<g id="edge22" class="edge">
<title>theory:impulseS&#45;&gt;assumpOT</title>
<path fill="none" stroke="black" d="M1891.77,-78.8C1882.74,-76.17 1873.6,-73.62 1865,-72 1730.15,-46.58 1322.36,-28.31 1164.23,-21.71"/>
<polygon fill="black" stroke="black" points="1164.32,-18.21 1154.18,-21.29 1164.03,-25.21 1164.32,-18.21"/>
</g>
<!-- theory&#45;&gt;assumpOT -->
<g id="edge26" class="edge">
<title>theory:accj&#45;&gt;assumpOT</title>
<path fill="none" stroke="black" d="M1891.83,-73.92C1888.86,-73.2 1885.9,-72.55 1883,-72 1745.61,-46.1 1324.93,-27.63 1164.27,-21.35"/>
<polygon fill="black" stroke="black" points="1164.2,-17.85 1154.07,-20.95 1163.93,-24.84 1164.2,-17.85"/>
</g>
<!-- theory&#45;&gt;assumpOT -->
<g id="edge30" class="edge">
<title>theory:angAccj&#45;&gt;assumpOT</title>
<path fill="none" stroke="black" d="M1900.75,-71.95C1760.79,-45.64 1328.64,-27.01 1164.62,-21.05"/>
<polygon fill="black" stroke="black" points="1164.33,-17.53 1154.21,-20.67 1164.08,-24.53 1164.33,-17.53"/>
</g>
<!-- theory&#45;&gt;assumpOD -->
<g id="edge23" class="edge">
<title>theory:impulseS&#45;&gt;assumpOD</title>
<path fill="none" stroke="black" d="M1891.9,-79.69C1882.76,-77.04 1873.55,-74.27 1865,-72 1810.66,-57.58 1748.76,-44.17 1703.24,-34.44"/>
<polygon fill="black" stroke="black" points="1703.71,-30.96 1693.2,-32.3 1702.25,-37.81 1703.71,-30.96"/>
</g>
<!-- theory&#45;&gt;assumpOD -->
<g id="edge27" class="edge">
<title>theory:accj&#45;&gt;assumpOD</title>
<path fill="none" stroke="black" d="M1891.71,-74.41C1888.77,-73.57 1885.85,-72.76 1883,-72 1822.44,-55.93 1752.48,-41.11 1703.04,-31.25"/>
<polygon fill="black" stroke="black" points="1703.62,-27.8 1693.13,-29.29 1702.26,-34.66 1703.62,-27.8"/>
</g>
<!-- theory&#45;&gt;assumpOD -->
<g id="edge31" class="edge">
<title>theory:angAccj&#45;&gt;assumpOD</title>
<path fill="none" stroke="black" d="M1900.69,-71.92C1834.39,-54.33 1756.9,-38.26 1703.16,-28.56"/>
<polygon fill="black" stroke="black" points="1703.53,-25.07 1693.07,-26.76 1702.3,-31.96 1703.53,-25.07"/>
</g>
<!-- theory&#45;&gt;assumpDI -->
<g id="edge28" class="edge">
<title>theory:accj&#45;&gt;assumpDI</title>
<path fill="none" stroke="black" d="M1911.07,-71.88C1897.34,-62.81 1880.29,-51.55 1865.46,-41.76"/>
<polygon fill="black" stroke="black" points="1867.3,-38.78 1857.03,-36.19 1863.45,-44.62 1867.3,-38.78"/>
</g>
<!-- assumpAD -->
<g id="node19" class="node">
<title>assumpAD</title>
<polygon fill="mistyrose" stroke="black" points="2007.5,-36 1900.5,-36 1900.5,0 2007.5,0 2007.5,-36"/>
<text text-anchor="middle" x="1954" y="-14.3" font-family="Times,serif" font-size="14.00">A:assumpAD</text>
</g>
<!-- theory&#45;&gt;assumpAD -->
<g id="edge24" class="edge">
<title>theory:impulseS&#45;&gt;assumpAD</title>
<path fill="none" stroke="black" d="M1935.29,-71.7C1936.38,-63.9 1938.43,-54.51 1940.9,-45.83"/>
<polygon fill="black" stroke="black" points="1944.3,-46.69 1943.95,-36.1 1937.62,-44.6 1944.3,-46.69"/>
</g>
<!-- theory&#45;&gt;assumpAD -->
<g id="edge32" class="edge">
<title>theory:angAccj&#45;&gt;assumpAD</title>
<path fill="none" stroke="black" d="M1947.12,-71.7C1949.79,-63.98 1952.26,-54.71 1954.01,-46.11"/>
<polygon fill="black" stroke="black" points="1957.49,-46.55 1955.74,-36.1 1950.59,-45.36 1957.49,-46.55"/>
</g>
<!-- assumpCT -->
<g id="node20" class="node">
<title>assumpCT</title>
<polygon fill="mistyrose" stroke="black" points="2163.5,-36 2058.5,-36 2058.5,0 2163.5,0 2163.5,-36"/>
<text text-anchor="middle" x="2111" y="-14.3" font-family="Times,serif" font-size="14.00">A:assumpCT</text>
</g>
<!-- theory&#45;&gt;assumpCT -->
<g id="edge25" class="edge">
<title>theory:impulseS&#45;&gt;assumpCT</title>
<path fill="none" stroke="black" d="M1979.57,-71.88C2003.56,-62.22 2033.73,-50.09 2059.1,-39.88"/>
<polygon fill="black" stroke="black" points="2060.6,-43.05 2068.57,-36.07 2057.99,-36.55 2060.6,-43.05"/>
</g>
<!-- assumpCAJI -->
<g id="node21" class="node">
<title>assumpCAJI</title>
<polygon fill="mistyrose" stroke="black" points="2298,-36 2182,-36 2182,0 2298,0 2298,-36"/>
<text text-anchor="middle" x="2240" y="-14.3" font-family="Times,serif" font-size="14.00">A:assumpCAJI</text>
</g>
<!-- theory&#45;&gt;assumpCAJI -->
<g id="edge29" class="edge">
<title>theory:accj&#45;&gt;assumpCAJI</title>
<path fill="none" stroke="black" d="M1982.22,-74.62C1985.52,-73.69 1988.8,-72.81 1992,-72 2068.4,-52.65 2091.23,-53.95 2171.82,-36.19"/>
<polygon fill="black" stroke="black" points="2172.94,-39.53 2181.94,-33.93 2171.42,-32.7 2172.94,-39.53"/>
</g>
<!-- col2DIM -->
<g id="node22" class="node">
<title>col2DIM</title>
<polygon fill="#fff68f" stroke="black" points="2168.5,-108 2087.5,-108 2087.5,-72 2168.5,-72 2168.5,-108"/>
<text text-anchor="middle" x="2128" y="-86.3" font-family="Times,serif" font-size="14.00">IM:col2D</text>
</g>
<!-- col2DIM&#45;&gt;assumpOT -->
<g id="edge33" class="edge">
<title>col2DIM&#45;&gt;assumpOT</title>
<path fill="none" stroke="black" d="M2087.33,-73.93C2084.53,-73.2 2081.74,-72.54 2079,-72 1989.77,-54.47 1366.84,-29.23 1164.39,-21.41"/>
<polygon fill="black" stroke="black" points="1164.35,-17.9 1154.22,-21.01 1164.08,-24.9 1164.35,-17.9"/>
</g>
<!-- col2DIM&#45;&gt;assumpOD -->
<g id="edge34" class="edge">
<title>col2DIM&#45;&gt;assumpOD</title>
<path fill="none" stroke="black" d="M2087.29,-74.13C2084.5,-73.34 2081.72,-72.62 2079,-72 1944.66,-41.23 1907.79,-52.8 1771,-36 1748.93,-33.29 1724.79,-30.21 1703.26,-27.43"/>
<polygon fill="black" stroke="black" points="1703.62,-23.95 1693.25,-26.13 1702.72,-30.89 1703.62,-23.95"/>
</g>
<!-- col2DIM&#45;&gt;assumpDI -->
<g id="edge37" class="edge">
<title>col2DIM&#45;&gt;assumpDI</title>
<path fill="none" stroke="black" d="M2087.5,-74.45C2084.64,-73.57 2081.78,-72.75 2079,-72 1997.25,-50.07 1974.39,-55.38 1892,-36 1891.9,-35.98 1891.8,-35.95 1891.7,-35.93"/>
<polygon fill="black" stroke="black" points="1892.72,-32.58 1882.18,-33.59 1891.05,-39.37 1892.72,-32.58"/>
</g>
<!-- col2DIM&#45;&gt;assumpAD -->
<g id="edge35" class="edge">
<title>col2DIM&#45;&gt;assumpAD</title>
<path fill="none" stroke="black" d="M2087.2,-72.59C2062.87,-62.8 2031.74,-50.28 2005.7,-39.8"/>
<polygon fill="black" stroke="black" points="2006.94,-36.53 1996.36,-36.04 2004.33,-43.02 2006.94,-36.53"/>
</g>
<!-- col2DIM&#45;&gt;assumpCT -->
<g id="edge36" class="edge">
<title>col2DIM&#45;&gt;assumpCT</title>
<path fill="none" stroke="black" d="M2123.8,-71.7C2121.9,-63.9 2119.62,-54.51 2117.52,-45.83"/>
<polygon fill="black" stroke="black" points="2120.92,-45 2115.15,-36.1 2114.11,-46.65 2120.92,-45"/>
</g>
<!-- col2DIM&#45;&gt;assumpCAJI -->
<g id="edge38" class="edge">
<title>col2DIM&#45;&gt;assumpCAJI</title>
<path fill="none" stroke="black" d="M2155.4,-71.88C2169.91,-62.81 2187.92,-51.55 2203.59,-41.76"/>
<polygon fill="black" stroke="black" points="2205.87,-44.46 2212.5,-36.19 2202.16,-38.52 2205.87,-44.46"/>
</g>
<!-- lcEC -->
<g id="node23" class="node">
<title>lcEC</title>
<polygon fill="lavender" stroke="black" points="2261,-108 2187,-108 2187,-72 2261,-72 2261,-108"/>
<text text-anchor="middle" x="2224" y="-86.3" font-family="Times,serif" font-size="14.00">LC:lcEC</text>
</g>
<!-- lcEC&#45;&gt;assumpCT -->
<g id="edge39" class="edge">
<title>lcEC&#45;&gt;assumpCT</title>
<path fill="none" stroke="black" d="M2196.36,-71.88C2181.58,-62.72 2163.21,-51.34 2147.3,-41.48"/>
<polygon fill="black" stroke="black" points="2149.09,-38.48 2138.75,-36.19 2145.41,-44.43 2149.09,-38.48"/>
</g>
<!-- lcID -->
<g id="node24" class="node">
<title>lcID</title>
<polygon fill="lavender" stroke="black" points="2069.5,-108 2000.5,-108 2000.5,-72 2069.5,-72 2069.5,-108"/>
<text text-anchor="middle" x="2035" y="-86.3" font-family="Times,serif" font-size="14.00">LC:lcID</text>
</g>
<!-- lcID&#45;&gt;assumpDI -->
<g id="edge40" class="edge">
<title>lcID&#45;&gt;assumpDI</title>
<path fill="none" stroke="black" d="M2000.47,-75.48C1997.28,-74.28 1994.08,-73.11 1991,-72 1958.46,-60.33 1921.87,-48.14 1891.91,-38.4"/>
<polygon fill="black" stroke="black" points="1892.61,-34.95 1882.02,-35.2 1890.45,-41.61 1892.61,-34.95"/>
</g>
<!-- lcIJC -->
<g id="node25" class="node">
<title>lcIJC</title>
<polygon fill="lavender" stroke="black" points="2353,-108 2279,-108 2279,-72 2353,-72 2353,-108"/>
<text text-anchor="middle" x="2316" y="-86.3" font-family="Times,serif" font-size="14.00">LC:lcIJC</text>
</g>
<!-- lcIJC&#45;&gt;assumpCAJI -->
<g id="edge41" class="edge">
<title>lcIJC&#45;&gt;assumpCAJI</title>
<path fill="none" stroke="black" d="M2297.21,-71.7C2287.83,-63.05 2276.32,-52.45 2266.09,-43.03"/>
<polygon fill="black" stroke="black" points="2268.3,-40.3 2258.57,-36.1 2263.55,-45.45 2268.3,-40.3"/>
</g>
<!-- assumpCST -->
<g id="node26" class="node">
<title>assumpCST</title>
<polygon fill="mistyrose" stroke="black" points="2431.5,-36 2316.5,-36 2316.5,0 2431.5,0 2431.5,-36"/>
<text text-anchor="middle" x="2374" y="-14.3" font-family="Times,serif" font-size="14.00">A:assumpCST</text>
</g>
<!-- torque -->
<g id="node27" class="node">
<title>torque</title>
<polygon fill="#bbffff" stroke="black" points="2462.5,-108 2371.5,-108 2371.5,-72 2462.5,-72 2462.5,-108"/>
<text text-anchor="middle" x="2417" y="-86.3" font-family="Times,serif" font-size="14.00">DD:torque</text>
</g>
<!-- restitutionCoef -->
<g id="node28" class="node">
<title>restitutionCoef</title>
<polygon fill="#bbffff" stroke="black" points="2637.5,-108 2480.5,-108 2480.5,-72 2637.5,-72 2637.5,-108"/>
<text text-anchor="middle" x="2559" y="-86.3" font-family="Times,serif" font-size="14.00">DD:coeffRestitution</text>
</g>
<!-- newtonSL -->
<g id="node29" class="node">
<title>newtonSL</title>
<polygon fill="pink" stroke="black" points="2838.5,-108 2655.5,-108 2655.5,-72 2838.5,-72 2838.5,-108"/>
<text text-anchor="middle" x="2747" y="-86.3" font-family="Times,serif" font-size="14.00">TM:NewtonSecLawMot</text>
</g>
<!-- simSpace -->
<g id="node30" class="node">
<title>simSpace</title>
<polygon fill="ivory" stroke="black" points="2967,-108 2857,-108 2857,-72 2967,-72 2967,-108"/>
<text text-anchor="middle" x="2912" y="-86.3" font-family="Times,serif" font-size="14.00">FR:simSpace</text>
</g>
<!-- inputInitialConds -->
<g id="node31" class="node">
<title>inputInitialConds</title>
<polygon fill="ivory" stroke="black" points="3150.5,-108 2985.5,-108 2985.5,-72 3150.5,-72 3150.5,-108"/>
<text text-anchor="middle" x="3068" y="-86.3" font-family="Times,serif" font-size="14.00">FR:inputInitialConds</text>
</g>
<!-- inputSurfaceProps -->
<g id="node32" class="node">
<title>inputSurfaceProps</title>
<polygon fill="ivory" stroke="black" points="3343.5,-108 3168.5,-108 3168.5,-72 3343.5,-72 3343.5,-108"/>
<text text-anchor="middle" x="3256" y="-86.3" font-family="Times,serif" font-size="14.00">FR:inputSurfaceProps</text>
</g>
<!-- verifyPhysCons -->
<g id="node33" class="node">
<title>verifyPhysCons</title>
<polygon fill="ivory" stroke="black" points="3514,-108 3362,-108 3362,-72 3514,-72 3514,-108"/>
<text text-anchor="middle" x="3438" y="-86.3" font-family="Times,serif" font-size="14.00">FR:verifyPhysCons</text>
</g>
<!-- calcTransOverTime -->
<g id="node34" class="node">
<title>calcTransOverTime</title>
<polygon fill="ivory" stroke="black" points="3711.5,-108 3532.5,-108 3532.5,-72 3711.5,-72 3711.5,-108"/>
<text text-anchor="middle" x="3622" y="-86.3" font-family="Times,serif" font-size="14.00">FR:calcTransOverTime</text>
</g>
<!-- calcRotOverTime -->
<g id="node35" class="node">
<title>calcRotOverTime</title>
<polygon fill="ivory" stroke="black" points="3894,-108 3730,-108 3730,-72 3894,-72 3894,-108"/>
<text text-anchor="middle" x="3812" y="-86.3" font-family="Times,serif" font-size="14.00">FR:calcRotOverTime</text>
</g>
<!-- deterColls -->
<g id="node36" class="node">
<title>deterColls</title>
<polygon fill="ivory" stroke="black" points="4027.5,-108 3912.5,-108 3912.5,-72 4027.5,-72 4027.5,-108"/>
<text text-anchor="middle" x="3970" y="-86.3" font-family="Times,serif" font-size="14.00">FR:deterColls</text>
</g>
<!-- deterCollRespOverTime -->
<g id="node37" class="node">
<title>deterCollRespOverTime</title>
<polygon fill="ivory" stroke="black" points="4258,-108 4046,-108 4046,-72 4258,-72 4258,-108"/>
<text text-anchor="middle" x="4152" y="-86.3" font-family="Times,serif" font-size="14.00">FR:deterCollRespOverTime</text>
</g>
<!-- performance -->
<g id="node38" class="node">
<title>performance</title>
<polygon fill="ivory" stroke="black" points="4420,-108 4276,-108 4276,-72 4420,-72 4420,-108"/>
<text text-anchor="middle" x="4348" y="-86.3" font-family="Times,serif" font-size="14.00">NFR:performance</text>
</g>
<!-- correctness -->
<g id="node39" class="node">
<title>correctness</title>
<polygon fill="ivory" stroke="black" points="4575.5,-108 4438.5,-108 4438.5,-72 4575.5,-72 4575.5,-108"/>
<text text-anchor="middle" x="4507" y="-86.3" font-family="Times,serif" font-size="14.00">NFR:correctness</text>
</g>
<!-- usability -->
<g id="node40" class="node">
<title>usability</title>
<polygon fill="ivory" stroke="black" points="4708.5,-108 4593.5,-108 4593.5,-72 4708.5,-72 4708.5,-108"/>
<text text-anchor="middle" x="4651" y="-86.3" font-family="Times,serif" font-size="14.00">NFR:usability</text>
</g>
<!-- understandability -->
<g id="node41" class="node">
<title>understandability</title>
<polygon fill="ivory" stroke="black" points="4907,-108 4727,-108 4727,-72 4907,-72 4907,-108"/>
<text text-anchor="middle" x="4817" y="-86.3" font-family="Times,serif" font-size="14.00">NFR:understandability</text>
</g>
<!-- maintainability -->
<g id="node42" class="node">
<title>maintainability</title>
<polygon fill="ivory" stroke="black" points="5086.5,-108 4925.5,-108 4925.5,-72 5086.5,-72 5086.5,-108"/>
<text text-anchor="middle" x="5006" y="-86.3" font-family="Times,serif" font-size="14.00">NFR:maintainability</text>
</g>
<!-- lcVODES -->
<g id="node43" class="node">
<title>lcVODES</title>
<polygon fill="lavender" stroke="black" points="5209.5,-108 5104.5,-108 5104.5,-72 5209.5,-72 5209.5,-108"/>
<text text-anchor="middle" x="5157" y="-86.3" font-family="Times,serif" font-size="14.00">LC:lcVODES</text>
</g>
<!-- ucSRB -->
<g id="node44" class="node">
<title>ucSRB</title>
<polygon fill="lavender" stroke="black" points="5318.5,-108 5227.5,-108 5227.5,-72 5318.5,-72 5318.5,-108"/>
<text text-anchor="middle" x="5273" y="-86.3" font-family="Times,serif" font-size="14.00">UC:ucSRB</text>
</g>
<!-- ucEI -->
<g id="node45" class="node">
<title>ucEI</title>
<polygon fill="lavender" stroke="black" points="5413,-108 5337,-108 5337,-72 5413,-72 5413,-108"/>
<text text-anchor="middle" x="5375" y="-86.3" font-family="Times,serif" font-size="14.00">UC:ucEI</text>
</g>
<!-- ucCCS -->
<g id="node46" class="node">
<title>ucCCS</title>
<polygon fill="lavender" stroke="black" points="5522.5,-108 5431.5,-108 5431.5,-72 5522.5,-72 5522.5,-108"/>
<text text-anchor="middle" x="5477" y="-86.3" font-family="Times,serif" font-size="14.00">UC:ucCCS</text>
</g>
<!-- ucORB -->
<g id="node47" class="node">
<title>ucORB</title>
<polygon fill="lavender" stroke="black" points="5633,-108 5541,-108 5541,-72 5633,-72 5633,-108"/>
<text text-anchor="middle" x="5587" y="-86.3" font-family="Times,serif" font-size="14.00">UC:ucORB</text>
</g>
</g>
</svg>
