<?xml version="1.0" encoding="UTF-8" standalone="no"?>
<!DOCTYPE svg PUBLIC "-//W3C//DTD SVG 1.1//EN"
 "http://www.w3.org/Graphics/SVG/1.1/DTD/svg11.dtd">
<!-- Generated by graphviz version 2.43.0 (0)
 -->
<!-- Title: avsall Pages: 1 -->
<svg width="6445pt" height="116pt"
 viewBox="0.00 0.00 6444.50 116.00" xmlns="http://www.w3.org/2000/svg" xmlns:xlink="http://www.w3.org/1999/xlink">
<g id="graph0" class="graph" transform="scale(1 1) rotate(0) translate(4 112)">
<title>avsall</title>
<polygon fill="white" stroke="transparent" points="-4,4 -4,-112 6440.5,-112 6440.5,4 -4,4"/>
<!-- p_CM -->
<g id="node1" class="node">
<title>p_CM</title>
<polygon fill="#bbffff" stroke="black" points="303.5,-108 185.5,-108 185.5,-72 303.5,-72 303.5,-108"/>
<text text-anchor="middle" x="244.5" y="-86.3" font-family="Times,serif" font-size="14.00">DD:ctrOfMass</text>
</g>
<!-- assumpOT -->
<g id="node2" class="node">
<title>assumpOT</title>
<polygon fill="mistyrose" stroke="black" points="1153.5,-36 1047.5,-36 1047.5,0 1153.5,0 1153.5,-36"/>
<text text-anchor="middle" x="1100.5" y="-14.3" font-family="Times,serif" font-size="14.00">A:assumpOT</text>
</g>
<!-- p_CM&#45;&gt;assumpOT -->
<g id="edge1" class="edge">
<title>p_CM&#45;&gt;assumpOT</title>
<path fill="none" stroke="black" d="M303.71,-73.54C306.67,-72.97 309.61,-72.45 312.5,-72 579.49,-29.99 902.51,-21.25 1036.98,-19.45"/>
<polygon fill="black" stroke="black" points="1037.15,-22.95 1047.1,-19.33 1037.06,-15.95 1037.15,-22.95"/>
</g>
<!-- linearDisplacement -->
<g id="node3" class="node">
<title>linearDisplacement</title>
<polygon fill="#bbffff" stroke="black" points="415.5,-108 321.5,-108 321.5,-72 415.5,-72 415.5,-108"/>
<text text-anchor="middle" x="368.5" y="-86.3" font-family="Times,serif" font-size="14.00">DD:linDisp</text>
</g>
<!-- linearDisplacement&#45;&gt;assumpOT -->
<g id="edge2" class="edge">
<title>linearDisplacement&#45;&gt;assumpOT</title>
<path fill="none" stroke="black" d="M415.59,-74.12C418.92,-73.32 422.25,-72.6 425.5,-72 647.83,-30.6 917.23,-21.49 1037.37,-19.52"/>
<polygon fill="black" stroke="black" points="1037.55,-23.02 1047.49,-19.37 1037.44,-16.02 1037.55,-23.02"/>
</g>
<!-- linearVelocity -->
<g id="node4" class="node">
<title>linearVelocity</title>
<polygon fill="#bbffff" stroke="black" points="517,-108 434,-108 434,-72 517,-72 517,-108"/>
<text text-anchor="middle" x="475.5" y="-86.3" font-family="Times,serif" font-size="14.00">DD:linVel</text>
</g>
<!-- linearVelocity&#45;&gt;assumpOT -->
<g id="edge3" class="edge">
<title>linearVelocity&#45;&gt;assumpOT</title>
<path fill="none" stroke="black" d="M517.03,-74.29C520.21,-73.43 523.39,-72.65 526.5,-72 709.2,-33.65 930.41,-23.05 1037.01,-20.12"/>
<polygon fill="black" stroke="black" points="1037.36,-23.61 1047.27,-19.85 1037.18,-16.61 1037.36,-23.61"/>
</g>
<!-- linearAcceleration -->
<g id="node5" class="node">
<title>linearAcceleration</title>
<polygon fill="#bbffff" stroke="black" points="621.5,-108 535.5,-108 535.5,-72 621.5,-72 621.5,-108"/>
<text text-anchor="middle" x="578.5" y="-86.3" font-family="Times,serif" font-size="14.00">DD:linAcc</text>
</g>
<!-- linearAcceleration&#45;&gt;assumpOT -->
<g id="edge4" class="edge">
<title>linearAcceleration&#45;&gt;assumpOT</title>
<path fill="none" stroke="black" d="M621.73,-74.14C624.68,-73.35 627.62,-72.63 630.5,-72 774.01,-40.79 946.41,-27.32 1037.28,-22.04"/>
<polygon fill="black" stroke="black" points="1037.63,-25.52 1047.42,-21.46 1037.24,-18.53 1037.63,-25.52"/>
</g>
<!-- angularDisplacement -->
<g id="node6" class="node">
<title>angularDisplacement</title>
<polygon fill="#bbffff" stroke="black" points="1151.5,-108 1049.5,-108 1049.5,-72 1151.5,-72 1151.5,-108"/>
<text text-anchor="middle" x="1100.5" y="-86.3" font-family="Times,serif" font-size="14.00">DD:angDisp</text>
</g>
<!-- angularDisplacement&#45;&gt;assumpOT -->
<g id="edge5" class="edge">
<title>angularDisplacement&#45;&gt;assumpOT</title>
<path fill="none" stroke="black" d="M1100.5,-71.7C1100.5,-63.98 1100.5,-54.71 1100.5,-46.11"/>
<polygon fill="black" stroke="black" points="1104,-46.1 1100.5,-36.1 1097,-46.1 1104,-46.1"/>
</g>
<!-- assumpOD -->
<g id="node7" class="node">
<title>assumpOD</title>
<polygon fill="mistyrose" stroke="black" points="1702.5,-36 1594.5,-36 1594.5,0 1702.5,0 1702.5,-36"/>
<text text-anchor="middle" x="1648.5" y="-14.3" font-family="Times,serif" font-size="14.00">A:assumpOD</text>
</g>
<!-- angularDisplacement&#45;&gt;assumpOD -->
<g id="edge6" class="edge">
<title>angularDisplacement&#45;&gt;assumpOD</title>
<path fill="none" stroke="black" d="M1151.75,-73.87C1154.7,-73.19 1157.63,-72.56 1160.5,-72 1310.67,-42.79 1490.2,-28.48 1584.07,-22.54"/>
<polygon fill="black" stroke="black" points="1584.49,-26.02 1594.26,-21.91 1584.06,-19.04 1584.49,-26.02"/>
</g>
<!-- angularVelocity -->
<g id="node8" class="node">
<title>angularVelocity</title>
<polygon fill="#bbffff" stroke="black" points="1261.5,-108 1169.5,-108 1169.5,-72 1261.5,-72 1261.5,-108"/>
<text text-anchor="middle" x="1215.5" y="-86.3" font-family="Times,serif" font-size="14.00">DD:angVel</text>
</g>
<!-- angularVelocity&#45;&gt;assumpOT -->
<g id="edge7" class="edge">
<title>angularVelocity&#45;&gt;assumpOT</title>
<path fill="none" stroke="black" d="M1187.37,-71.88C1172.33,-62.72 1153.63,-51.34 1137.44,-41.48"/>
<polygon fill="black" stroke="black" points="1139.1,-38.4 1128.74,-36.19 1135.46,-44.38 1139.1,-38.4"/>
</g>
<!-- angularVelocity&#45;&gt;assumpOD -->
<g id="edge8" class="edge">
<title>angularVelocity&#45;&gt;assumpOD</title>
<path fill="none" stroke="black" d="M1261.8,-74.34C1265.07,-73.49 1268.33,-72.7 1271.5,-72 1379.99,-48.06 1508.55,-32.71 1584.05,-24.99"/>
<polygon fill="black" stroke="black" points="1584.74,-28.43 1594.34,-23.95 1584.04,-21.47 1584.74,-28.43"/>
</g>
<!-- angularAcceleration -->
<g id="node9" class="node">
<title>angularAcceleration</title>
<polygon fill="#bbffff" stroke="black" points="1387,-108 1280,-108 1280,-72 1387,-72 1387,-108"/>
<text text-anchor="middle" x="1333.5" y="-86.3" font-family="Times,serif" font-size="14.00">DD:angAccel</text>
</g>
<!-- angularAcceleration&#45;&gt;assumpOT -->
<g id="edge9" class="edge">
<title>angularAcceleration&#45;&gt;assumpOT</title>
<path fill="none" stroke="black" d="M1279.75,-72.85C1245.11,-62.45 1199.92,-48.87 1163.57,-37.95"/>
<polygon fill="black" stroke="black" points="1164.16,-34.47 1153.58,-34.95 1162.15,-41.17 1164.16,-34.47"/>
</g>
<!-- angularAcceleration&#45;&gt;assumpOD -->
<g id="edge10" class="edge">
<title>angularAcceleration&#45;&gt;assumpOD</title>
<path fill="none" stroke="black" d="M1387.06,-74.33C1390.25,-73.52 1393.42,-72.74 1396.5,-72 1460.08,-56.75 1533.26,-41.63 1584.32,-31.46"/>
<polygon fill="black" stroke="black" points="1585.1,-34.88 1594.23,-29.5 1583.74,-28.01 1585.1,-34.88"/>
</g>
<!-- velocityB -->
<g id="node10" class="node">
<title>velocityB</title>
<polygon fill="#bbffff" stroke="black" points="767.5,-108 639.5,-108 639.5,-72 767.5,-72 767.5,-108"/>
<text text-anchor="middle" x="703.5" y="-86.3" font-family="Times,serif" font-size="14.00">DD:chaslesThm</text>
</g>
<!-- velocityB&#45;&gt;assumpOT -->
<g id="edge11" class="edge">
<title>velocityB&#45;&gt;assumpOT</title>
<path fill="none" stroke="black" d="M767.54,-73.83C770.57,-73.2 773.56,-72.58 776.5,-72 866.59,-54.16 971.63,-37.78 1037.11,-28.09"/>
<polygon fill="black" stroke="black" points="1037.89,-31.52 1047.27,-26.6 1036.87,-24.59 1037.89,-31.52"/>
</g>
<!-- kEnergy -->
<g id="node11" class="node">
<title>kEnergy</title>
<polygon fill="#bbffff" stroke="black" points="1509.5,-108 1405.5,-108 1405.5,-72 1509.5,-72 1509.5,-108"/>
<text text-anchor="middle" x="1457.5" y="-86.3" font-family="Times,serif" font-size="14.00">DD:kEnergy</text>
</g>
<!-- kEnergy&#45;&gt;assumpOT -->
<g id="edge12" class="edge">
<title>kEnergy&#45;&gt;assumpOT</title>
<path fill="none" stroke="black" d="M1405.34,-74.11C1402.36,-73.37 1399.39,-72.66 1396.5,-72 1316.87,-53.82 1224.02,-38.07 1163.85,-28.56"/>
<polygon fill="black" stroke="black" points="1164.16,-25.07 1153.74,-26.98 1163.08,-31.98 1164.16,-25.07"/>
</g>
<!-- kEnergy&#45;&gt;assumpOD -->
<g id="edge13" class="edge">
<title>kEnergy&#45;&gt;assumpOD</title>
<path fill="none" stroke="black" d="M1504.22,-71.88C1530.8,-62.14 1564.26,-49.87 1592.27,-39.61"/>
<polygon fill="black" stroke="black" points="1593.74,-42.8 1601.93,-36.07 1591.33,-36.22 1593.74,-42.8"/>
</g>
<!-- assumpDI -->
<g id="node12" class="node">
<title>assumpDI</title>
<polygon fill="mistyrose" stroke="black" points="2104.5,-36 2002.5,-36 2002.5,0 2104.5,0 2104.5,-36"/>
<text text-anchor="middle" x="2053.5" y="-14.3" font-family="Times,serif" font-size="14.00">A:assumpDI</text>
</g>
<!-- kEnergy&#45;&gt;assumpDI -->
<g id="edge14" class="edge">
<title>kEnergy&#45;&gt;assumpDI</title>
<path fill="none" stroke="black" d="M1509.79,-74C1513.06,-73.26 1516.32,-72.59 1519.5,-72 1688.93,-40.6 1892.27,-26.91 1992.09,-21.72"/>
<polygon fill="black" stroke="black" points="1992.48,-25.21 2002.29,-21.21 1992.13,-18.22 1992.48,-25.21"/>
</g>
<!-- v_iAB -->
<g id="node13" class="node">
<title>v_iAB</title>
<polygon fill="#bbffff" stroke="black" points="903.5,-108 785.5,-108 785.5,-72 903.5,-72 903.5,-108"/>
<text text-anchor="middle" x="844.5" y="-86.3" font-family="Times,serif" font-size="14.00">DD:reVeInColl</text>
</g>
<!-- v_iAB&#45;&gt;assumpOT -->
<g id="edge15" class="edge">
<title>v_iAB&#45;&gt;assumpOT</title>
<path fill="none" stroke="black" d="M903.55,-72.85C943.66,-61.89 996.64,-47.4 1037.54,-36.21"/>
<polygon fill="black" stroke="black" points="1038.68,-39.53 1047.4,-33.52 1036.83,-32.78 1038.68,-39.53"/>
</g>
<!-- impulseV -->
<g id="node14" class="node">
<title>impulseV</title>
<polygon fill="#bbffff" stroke="black" points="1031.5,-108 921.5,-108 921.5,-72 1031.5,-72 1031.5,-108"/>
<text text-anchor="middle" x="976.5" y="-86.3" font-family="Times,serif" font-size="14.00">DD:impulseV</text>
</g>
<!-- impulseV&#45;&gt;assumpOT -->
<g id="edge16" class="edge">
<title>impulseV&#45;&gt;assumpOT</title>
<path fill="none" stroke="black" d="M1006.83,-71.88C1023.2,-62.64 1043.58,-51.13 1061.15,-41.21"/>
<polygon fill="black" stroke="black" points="1063.06,-44.15 1070.05,-36.19 1059.62,-38.06 1063.06,-44.15"/>
</g>
<!-- potEnergy -->
<g id="node15" class="node">
<title>potEnergy</title>
<polygon fill="#bbffff" stroke="black" points="1647,-108 1528,-108 1528,-72 1647,-72 1647,-108"/>
<text text-anchor="middle" x="1587.5" y="-86.3" font-family="Times,serif" font-size="14.00">DD:potEnergy</text>
</g>
<!-- potEnergy&#45;&gt;assumpOT -->
<g id="edge17" class="edge">
<title>potEnergy&#45;&gt;assumpOT</title>
<path fill="none" stroke="black" d="M1527.75,-73.83C1524.63,-73.18 1521.53,-72.56 1518.5,-72 1393.67,-48.79 1245.95,-32.69 1163.77,-24.73"/>
<polygon fill="black" stroke="black" points="1163.88,-21.22 1153.59,-23.75 1163.21,-28.19 1163.88,-21.22"/>
</g>
<!-- potEnergy&#45;&gt;assumpOD -->
<g id="edge18" class="edge">
<title>potEnergy&#45;&gt;assumpOD</title>
<path fill="none" stroke="black" d="M1602.58,-71.7C1609.89,-63.3 1618.81,-53.07 1626.84,-43.86"/>
<polygon fill="black" stroke="black" points="1629.66,-45.94 1633.59,-36.1 1624.39,-41.34 1629.66,-45.94"/>
</g>
<!-- potEnergy&#45;&gt;assumpDI -->
<g id="edge19" class="edge">
<title>potEnergy&#45;&gt;assumpDI</title>
<path fill="none" stroke="black" d="M1647.25,-73.86C1650.37,-73.2 1653.47,-72.57 1656.5,-72 1774.52,-49.65 1914.03,-33.33 1992.29,-25.08"/>
<polygon fill="black" stroke="black" points="1992.87,-28.54 2002.45,-24.02 1992.14,-21.58 1992.87,-28.54"/>
</g>
<!-- momentOfInertia -->
<g id="node16" class="node">
<title>momentOfInertia</title>
<polygon fill="#bbffff" stroke="black" points="167,-108 0,-108 0,-72 167,-72 167,-108"/>
<text text-anchor="middle" x="83.5" y="-86.3" font-family="Times,serif" font-size="14.00">DD:momentOfInertia</text>
</g>
<!-- momentOfInertia&#45;&gt;assumpOT -->
<g id="edge20" class="edge">
<title>momentOfInertia&#45;&gt;assumpOT</title>
<path fill="none" stroke="black" d="M167.08,-73.22C170.25,-72.78 173.4,-72.37 176.5,-72 498.43,-33.49 886.92,-22.76 1037.04,-19.94"/>
<polygon fill="black" stroke="black" points="1037.5,-23.44 1047.43,-19.75 1037.37,-16.44 1037.5,-23.44"/>
</g>
<!-- newtonSLR -->
<g id="node17" class="node">
<title>newtonSLR</title>
<polygon fill="pink" stroke="black" points="1981.5,-108 1773.5,-108 1773.5,-72 1981.5,-72 1981.5,-108"/>
<text text-anchor="middle" x="1877.5" y="-86.3" font-family="Times,serif" font-size="14.00">TM:NewtonSecLawRotMot</text>
</g>
<!-- newtonSLR&#45;&gt;assumpOD -->
<g id="edge21" class="edge">
<title>newtonSLR&#45;&gt;assumpOD</title>
<path fill="none" stroke="black" d="M1821.77,-71.97C1788.88,-61.91 1747.1,-49.14 1712.81,-38.66"/>
<polygon fill="black" stroke="black" points="1713.48,-35.2 1702.89,-35.63 1711.43,-41.9 1713.48,-35.2"/>
</g>
<!-- impulseS -->
<g id="node18" class="node">
<title>impulseS</title>
<polygon fill="palegreen" stroke="black" points="2312.5,-108 2212.5,-108 2212.5,-72 2312.5,-72 2312.5,-108"/>
<text text-anchor="middle" x="2262.5" y="-86.3" font-family="Times,serif" font-size="14.00">GD:impulse</text>
</g>
<!-- impulseS&#45;&gt;assumpOT -->
<g id="edge22" class="edge">
<title>impulseS&#45;&gt;assumpOT</title>
<path fill="none" stroke="black" d="M2212.47,-73.73C2209.45,-73.07 2206.44,-72.49 2203.5,-72 2101.1,-55.03 1382.61,-28.84 1163.67,-21.18"/>
<polygon fill="black" stroke="black" points="1163.75,-17.68 1153.63,-20.83 1163.5,-24.67 1163.75,-17.68"/>
</g>
<!-- impulseS&#45;&gt;assumpOD -->
<g id="edge23" class="edge">
<title>impulseS&#45;&gt;assumpOD</title>
<path fill="none" stroke="black" d="M2212.44,-73.89C2209.43,-73.2 2206.43,-72.56 2203.5,-72 2027.73,-38.58 1816.44,-25.79 1712.56,-21.26"/>
<polygon fill="black" stroke="black" points="1712.68,-17.77 1702.54,-20.84 1712.39,-24.76 1712.68,-17.77"/>
</g>
<!-- assumpAD -->
<g id="node19" class="node">
<title>assumpAD</title>
<polygon fill="mistyrose" stroke="black" points="2295,-36 2188,-36 2188,0 2295,0 2295,-36"/>
<text text-anchor="middle" x="2241.5" y="-14.3" font-family="Times,serif" font-size="14.00">A:assumpAD</text>
</g>
<!-- impulseS&#45;&gt;assumpAD -->
<g id="edge24" class="edge">
<title>impulseS&#45;&gt;assumpAD</title>
<path fill="none" stroke="black" d="M2257.31,-71.7C2254.97,-63.9 2252.15,-54.51 2249.55,-45.83"/>
<polygon fill="black" stroke="black" points="2252.86,-44.68 2246.63,-36.1 2246.15,-46.69 2252.86,-44.68"/>
</g>
<!-- assumpCT -->
<g id="node20" class="node">
<title>assumpCT</title>
<polygon fill="mistyrose" stroke="black" points="2553,-36 2448,-36 2448,0 2553,0 2553,-36"/>
<text text-anchor="middle" x="2500.5" y="-14.3" font-family="Times,serif" font-size="14.00">A:assumpCT</text>
</g>
<!-- impulseS&#45;&gt;assumpCT -->
<g id="edge25" class="edge">
<title>impulseS&#45;&gt;assumpCT</title>
<path fill="none" stroke="black" d="M2312.68,-74.24C2349.27,-63.48 2399.08,-48.83 2438.21,-37.32"/>
<polygon fill="black" stroke="black" points="2439.31,-40.65 2447.91,-34.47 2437.33,-33.93 2439.31,-40.65"/>
</g>
<!-- accj -->
<g id="node21" class="node">
<title>accj</title>
<polygon fill="#fff68f" stroke="black" points="2107,-108 2000,-108 2000,-72 2107,-72 2107,-108"/>
<text text-anchor="middle" x="2053.5" y="-86.3" font-family="Times,serif" font-size="14.00">IM:transMot</text>
</g>
<!-- accj&#45;&gt;assumpOT -->
<g id="edge26" class="edge">
<title>accj&#45;&gt;assumpOT</title>
<path fill="none" stroke="black" d="M1999.7,-73.71C1996.6,-73.07 1993.52,-72.49 1990.5,-72 1830.97,-46.01 1339.43,-27.15 1163.74,-21.09"/>
<polygon fill="black" stroke="black" points="1163.74,-17.58 1153.62,-20.74 1163.5,-24.58 1163.74,-17.58"/>
</g>
<!-- accj&#45;&gt;assumpOD -->
<g id="edge27" class="edge">
<title>accj&#45;&gt;assumpOD</title>
<path fill="none" stroke="black" d="M1999.98,-74.13C1996.78,-73.37 1993.6,-72.66 1990.5,-72 1894.61,-51.7 1782.06,-35.75 1713.02,-26.85"/>
<polygon fill="black" stroke="black" points="1713.1,-23.33 1702.74,-25.53 1712.21,-30.27 1713.1,-23.33"/>
</g>
<!-- accj&#45;&gt;assumpDI -->
<g id="edge28" class="edge">
<title>accj&#45;&gt;assumpDI</title>
<path fill="none" stroke="black" d="M2053.5,-71.7C2053.5,-63.98 2053.5,-54.71 2053.5,-46.11"/>
<polygon fill="black" stroke="black" points="2057,-46.1 2053.5,-36.1 2050,-46.1 2057,-46.1"/>
</g>
<!-- assumpCAJI -->
<g id="node22" class="node">
<title>assumpCAJI</title>
<polygon fill="mistyrose" stroke="black" points="2429.5,-36 2313.5,-36 2313.5,0 2429.5,0 2429.5,-36"/>
<text text-anchor="middle" x="2371.5" y="-14.3" font-family="Times,serif" font-size="14.00">A:assumpCAJI</text>
</g>
<!-- accj&#45;&gt;assumpCAJI -->
<g id="edge29" class="edge">
<title>accj&#45;&gt;assumpCAJI</title>
<path fill="none" stroke="black" d="M2107.05,-74.26C2110.24,-73.47 2113.41,-72.71 2116.5,-72 2196.33,-53.61 2219.73,-54.38 2303.49,-36.15"/>
<polygon fill="black" stroke="black" points="2304.43,-39.52 2313.45,-33.95 2302.93,-32.69 2304.43,-39.52"/>
</g>
<!-- angAccj -->
<g id="node23" class="node">
<title>angAccj</title>
<polygon fill="#fff68f" stroke="black" points="1755.5,-108 1665.5,-108 1665.5,-72 1755.5,-72 1755.5,-108"/>
<text text-anchor="middle" x="1710.5" y="-86.3" font-family="Times,serif" font-size="14.00">IM:rotMot</text>
</g>
<!-- angAccj&#45;&gt;assumpOT -->
<g id="edge30" class="edge">
<title>angAccj&#45;&gt;assumpOT</title>
<path fill="none" stroke="black" d="M1665.31,-74.02C1662.34,-73.27 1659.39,-72.59 1656.5,-72 1480.15,-36.25 1267.31,-24.48 1163.55,-20.71"/>
<polygon fill="black" stroke="black" points="1163.67,-17.21 1153.55,-20.36 1163.42,-24.21 1163.67,-17.21"/>
</g>
<!-- angAccj&#45;&gt;assumpOD -->
<g id="edge31" class="edge">
<title>angAccj&#45;&gt;assumpOD</title>
<path fill="none" stroke="black" d="M1695.17,-71.7C1687.74,-63.3 1678.68,-53.07 1670.52,-43.86"/>
<polygon fill="black" stroke="black" points="1672.9,-41.27 1663.65,-36.1 1667.66,-45.91 1672.9,-41.27"/>
</g>
<!-- angAccj&#45;&gt;assumpAD -->
<g id="edge32" class="edge">
<title>angAccj&#45;&gt;assumpAD</title>
<path fill="none" stroke="black" d="M1755.7,-74.04C1758.66,-73.29 1761.61,-72.6 1764.5,-72 1917.2,-40.43 1958.64,-54.27 2113.5,-36 2134.45,-33.53 2157.29,-30.58 2177.81,-27.83"/>
<polygon fill="black" stroke="black" points="2178.54,-31.27 2187.98,-26.46 2177.61,-24.33 2178.54,-31.27"/>
</g>
<!-- col2DRC -->
<g id="node24" class="node">
<title>col2DRC</title>
<polygon fill="#fff68f" stroke="black" points="2412,-108 2331,-108 2331,-72 2412,-72 2412,-108"/>
<text text-anchor="middle" x="2371.5" y="-86.3" font-family="Times,serif" font-size="14.00">IM:col2D</text>
</g>
<!-- col2DRC&#45;&gt;assumpOT -->
<g id="edge33" class="edge">
<title>col2DRC&#45;&gt;assumpOT</title>
<path fill="none" stroke="black" d="M2330.82,-74.12C2327.7,-73.3 2324.56,-72.58 2321.5,-72 2264.23,-61.25 1405.83,-29.91 1163.67,-21.24"/>
<polygon fill="black" stroke="black" points="1163.74,-17.74 1153.62,-20.88 1163.49,-24.74 1163.74,-17.74"/>
</g>
<!-- col2DRC&#45;&gt;assumpOD -->
<g id="edge34" class="edge">
<title>col2DRC&#45;&gt;assumpOD</title>
<path fill="none" stroke="black" d="M2330.8,-74.24C2327.68,-73.39 2324.55,-72.63 2321.5,-72 2206.25,-48.26 1857.72,-29.15 1712.79,-22.02"/>
<polygon fill="black" stroke="black" points="1712.87,-18.52 1702.71,-21.52 1712.53,-25.51 1712.87,-18.52"/>
</g>
<!-- col2DRC&#45;&gt;assumpDI -->
<g id="edge37" class="edge">
<title>col2DRC&#45;&gt;assumpDI</title>
<path fill="none" stroke="black" d="M2330.98,-74.72C2327.79,-73.75 2324.6,-72.83 2321.5,-72 2251.3,-53.21 2169.13,-37.93 2114.47,-28.69"/>
<polygon fill="black" stroke="black" points="2115.03,-25.23 2104.59,-27.03 2113.87,-32.14 2115.03,-25.23"/>
</g>
<!-- col2DRC&#45;&gt;assumpAD -->
<g id="edge35" class="edge">
<title>col2DRC&#45;&gt;assumpAD</title>
<path fill="none" stroke="black" d="M2339.7,-71.88C2322.39,-62.55 2300.78,-50.92 2282.24,-40.94"/>
<polygon fill="black" stroke="black" points="2283.89,-37.85 2273.42,-36.19 2280.57,-44.01 2283.89,-37.85"/>
</g>
<!-- col2DRC&#45;&gt;assumpCT -->
<g id="edge36" class="edge">
<title>col2DRC&#45;&gt;assumpCT</title>
<path fill="none" stroke="black" d="M2403.06,-71.88C2420.16,-62.6 2441.48,-51.03 2459.82,-41.08"/>
<polygon fill="black" stroke="black" points="2461.7,-44.04 2468.82,-36.19 2458.36,-37.88 2461.7,-44.04"/>
</g>
<!-- col2DRC&#45;&gt;assumpCAJI -->
<g id="edge38" class="edge">
<title>col2DRC&#45;&gt;assumpCAJI</title>
<path fill="none" stroke="black" d="M2371.5,-71.7C2371.5,-63.98 2371.5,-54.71 2371.5,-46.11"/>
<polygon fill="black" stroke="black" points="2375,-46.1 2371.5,-36.1 2368,-46.1 2375,-46.1"/>
</g>
<!-- lcEC -->
<g id="node25" class="node">
<title>lcEC</title>
<polygon fill="lavender" stroke="black" points="2596.5,-108 2522.5,-108 2522.5,-72 2596.5,-72 2596.5,-108"/>
<text text-anchor="middle" x="2559.5" y="-86.3" font-family="Times,serif" font-size="14.00">LC:lcEC</text>
</g>
<!-- lcEC&#45;&gt;assumpCT -->
<g id="edge39" class="edge">
<title>lcEC&#45;&gt;assumpCT</title>
<path fill="none" stroke="black" d="M2544.92,-71.7C2537.84,-63.3 2529.22,-53.07 2521.45,-43.86"/>
<polygon fill="black" stroke="black" points="2524.04,-41.49 2514.92,-36.1 2518.69,-46.01 2524.04,-41.49"/>
</g>
<!-- lcID -->
<g id="node26" class="node">
<title>lcID</title>
<polygon fill="lavender" stroke="black" points="2194,-108 2125,-108 2125,-72 2194,-72 2194,-108"/>
<text text-anchor="middle" x="2159.5" y="-86.3" font-family="Times,serif" font-size="14.00">LC:lcID</text>
</g>
<!-- lcID&#45;&gt;assumpDI -->
<g id="edge40" class="edge">
<title>lcID&#45;&gt;assumpDI</title>
<path fill="none" stroke="black" d="M2133.57,-71.88C2119.84,-62.81 2102.79,-51.55 2087.96,-41.76"/>
<polygon fill="black" stroke="black" points="2089.8,-38.78 2079.53,-36.19 2085.95,-44.62 2089.8,-38.78"/>
</g>
<!-- lcIJC -->
<g id="node27" class="node">
<title>lcIJC</title>
<polygon fill="lavender" stroke="black" points="2504.5,-108 2430.5,-108 2430.5,-72 2504.5,-72 2504.5,-108"/>
<text text-anchor="middle" x="2467.5" y="-86.3" font-family="Times,serif" font-size="14.00">LC:lcIJC</text>
</g>
<!-- lcIJC&#45;&gt;assumpCAJI -->
<g id="edge41" class="edge">
<title>lcIJC&#45;&gt;assumpCAJI</title>
<path fill="none" stroke="black" d="M2443.77,-71.7C2431.56,-62.8 2416.51,-51.82 2403.32,-42.2"/>
<polygon fill="black" stroke="black" points="2405.1,-39.17 2394.96,-36.1 2400.98,-44.82 2405.1,-39.17"/>
</g>
<!-- assumpCST -->
<g id="node28" class="node">
<title>assumpCST</title>
<polygon fill="mistyrose" stroke="black" points="2686,-36 2571,-36 2571,0 2686,0 2686,-36"/>
<text text-anchor="middle" x="2628.5" y="-14.3" font-family="Times,serif" font-size="14.00">A:assumpCST</text>
</g>
<!-- torque -->
<g id="node29" class="node">
<title>torque</title>
<polygon fill="#bbffff" stroke="black" points="2706,-108 2615,-108 2615,-72 2706,-72 2706,-108"/>
<text text-anchor="middle" x="2660.5" y="-86.3" font-family="Times,serif" font-size="14.00">DD:torque</text>
</g>
<!-- restitutionCoef -->
<g id="node30" class="node">
<title>restitutionCoef</title>
<polygon fill="#bbffff" stroke="black" points="2881,-108 2724,-108 2724,-72 2881,-72 2881,-108"/>
<text text-anchor="middle" x="2802.5" y="-86.3" font-family="Times,serif" font-size="14.00">DD:coeffRestitution</text>
</g>
<!-- newtonSL -->
<g id="node31" class="node">
<title>newtonSL</title>
<polygon fill="pink" stroke="black" points="3082,-108 2899,-108 2899,-72 3082,-72 3082,-108"/>
<text text-anchor="middle" x="2990.5" y="-86.3" font-family="Times,serif" font-size="14.00">TM:NewtonSecLawMot</text>
</g>
<!-- force1 -->
<g id="node32" class="node">
<title>force1</title>
<polygon fill="pink" stroke="black" points="3296.5,-108 3100.5,-108 3100.5,-72 3296.5,-72 3296.5,-108"/>
<text text-anchor="middle" x="3198.5" y="-86.3" font-family="Times,serif" font-size="14.00">TM:NewtonThirdLawMot</text>
</g>
<!-- force -->
<g id="node33" class="node">
<title>force</title>
<polygon fill="pink" stroke="black" points="3491,-108 3314,-108 3314,-72 3491,-72 3491,-108"/>
<text text-anchor="middle" x="3402.5" y="-86.3" font-family="Times,serif" font-size="14.00">TM:UniversalGravLaw</text>
</g>
<!-- gravitationalAccel -->
<g id="node34" class="node">
<title>gravitationalAccel</title>
<polygon fill="palegreen" stroke="black" points="3642,-108 3509,-108 3509,-72 3642,-72 3642,-108"/>
<text text-anchor="middle" x="3575.5" y="-86.3" font-family="Times,serif" font-size="14.00">GD:accelGravity</text>
</g>
<!-- simSpace -->
<g id="node35" class="node">
<title>simSpace</title>
<polygon fill="ivory" stroke="black" points="3770.5,-108 3660.5,-108 3660.5,-72 3770.5,-72 3770.5,-108"/>
<text text-anchor="middle" x="3715.5" y="-86.3" font-family="Times,serif" font-size="14.00">FR:simSpace</text>
</g>
<!-- inputInitialConds -->
<g id="node36" class="node">
<title>inputInitialConds</title>
<polygon fill="ivory" stroke="black" points="3954,-108 3789,-108 3789,-72 3954,-72 3954,-108"/>
<text text-anchor="middle" x="3871.5" y="-86.3" font-family="Times,serif" font-size="14.00">FR:inputInitialConds</text>
</g>
<!-- inputSurfaceProps -->
<g id="node37" class="node">
<title>inputSurfaceProps</title>
<polygon fill="ivory" stroke="black" points="4147,-108 3972,-108 3972,-72 4147,-72 4147,-108"/>
<text text-anchor="middle" x="4059.5" y="-86.3" font-family="Times,serif" font-size="14.00">FR:inputSurfaceProps</text>
</g>
<!-- verifyPhysCons -->
<g id="node38" class="node">
<title>verifyPhysCons</title>
<polygon fill="ivory" stroke="black" points="4317.5,-108 4165.5,-108 4165.5,-72 4317.5,-72 4317.5,-108"/>
<text text-anchor="middle" x="4241.5" y="-86.3" font-family="Times,serif" font-size="14.00">FR:verifyPhysCons</text>
</g>
<!-- calcTransOverTime -->
<g id="node39" class="node">
<title>calcTransOverTime</title>
<polygon fill="ivory" stroke="black" points="4515,-108 4336,-108 4336,-72 4515,-72 4515,-108"/>
<text text-anchor="middle" x="4425.5" y="-86.3" font-family="Times,serif" font-size="14.00">FR:calcTransOverTime</text>
</g>
<!-- calcRotOverTime -->
<g id="node40" class="node">
<title>calcRotOverTime</title>
<polygon fill="ivory" stroke="black" points="4697.5,-108 4533.5,-108 4533.5,-72 4697.5,-72 4697.5,-108"/>
<text text-anchor="middle" x="4615.5" y="-86.3" font-family="Times,serif" font-size="14.00">FR:calcRotOverTime</text>
</g>
<!-- deterColls -->
<g id="node41" class="node">
<title>deterColls</title>
<polygon fill="ivory" stroke="black" points="4831,-108 4716,-108 4716,-72 4831,-72 4831,-108"/>
<text text-anchor="middle" x="4773.5" y="-86.3" font-family="Times,serif" font-size="14.00">FR:deterColls</text>
</g>
<!-- deterCollRespOverTime -->
<g id="node42" class="node">
<title>deterCollRespOverTime</title>
<polygon fill="ivory" stroke="black" points="5061.5,-108 4849.5,-108 4849.5,-72 5061.5,-72 5061.5,-108"/>
<text text-anchor="middle" x="4955.5" y="-86.3" font-family="Times,serif" font-size="14.00">FR:deterCollRespOverTime</text>
</g>
<!-- performance -->
<g id="node43" class="node">
<title>performance</title>
<polygon fill="ivory" stroke="black" points="5223.5,-108 5079.5,-108 5079.5,-72 5223.5,-72 5223.5,-108"/>
<text text-anchor="middle" x="5151.5" y="-86.3" font-family="Times,serif" font-size="14.00">NFR:performance</text>
</g>
<!-- correctness -->
<g id="node44" class="node">
<title>correctness</title>
<polygon fill="ivory" stroke="black" points="5379,-108 5242,-108 5242,-72 5379,-72 5379,-108"/>
<text text-anchor="middle" x="5310.5" y="-86.3" font-family="Times,serif" font-size="14.00">NFR:correctness</text>
</g>
<!-- usability -->
<g id="node45" class="node">
<title>usability</title>
<polygon fill="ivory" stroke="black" points="5512,-108 5397,-108 5397,-72 5512,-72 5512,-108"/>
<text text-anchor="middle" x="5454.5" y="-86.3" font-family="Times,serif" font-size="14.00">NFR:usability</text>
</g>
<!-- understandability -->
<g id="node46" class="node">
<title>understandability</title>
<polygon fill="ivory" stroke="black" points="5710.5,-108 5530.5,-108 5530.5,-72 5710.5,-72 5710.5,-108"/>
<text text-anchor="middle" x="5620.5" y="-86.3" font-family="Times,serif" font-size="14.00">NFR:understandability</text>
</g>
<!-- maintainability -->
<g id="node47" class="node">
<title>maintainability</title>
<polygon fill="ivory" stroke="black" points="5890,-108 5729,-108 5729,-72 5890,-72 5890,-108"/>
<text text-anchor="middle" x="5809.5" y="-86.3" font-family="Times,serif" font-size="14.00">NFR:maintainability</text>
</g>
<!-- lcVODES -->
<g id="node48" class="node">
<title>lcVODES</title>
<polygon fill="lavender" stroke="black" points="6013,-108 5908,-108 5908,-72 6013,-72 6013,-108"/>
<text text-anchor="middle" x="5960.5" y="-86.3" font-family="Times,serif" font-size="14.00">LC:lcVODES</text>
</g>
<!-- ucSRB -->
<g id="node49" class="node">
<title>ucSRB</title>
<polygon fill="lavender" stroke="black" points="6122,-108 6031,-108 6031,-72 6122,-72 6122,-108"/>
<text text-anchor="middle" x="6076.5" y="-86.3" font-family="Times,serif" font-size="14.00">UC:ucSRB</text>
</g>
<!-- ucEI -->
<g id="node50" class="node">
<title>ucEI</title>
<polygon fill="lavender" stroke="black" points="6216.5,-108 6140.5,-108 6140.5,-72 6216.5,-72 6216.5,-108"/>
<text text-anchor="middle" x="6178.5" y="-86.3" font-family="Times,serif" font-size="14.00">UC:ucEI</text>
</g>
<!-- ucCCS -->
<g id="node51" class="node">
<title>ucCCS</title>
<polygon fill="lavender" stroke="black" points="6326,-108 6235,-108 6235,-72 6326,-72 6326,-108"/>
<text text-anchor="middle" x="6280.5" y="-86.3" font-family="Times,serif" font-size="14.00">UC:ucCCS</text>
</g>
<!-- ucORB -->
<g id="node52" class="node">
<title>ucORB</title>
<polygon fill="lavender" stroke="black" points="6436.5,-108 6344.5,-108 6344.5,-72 6436.5,-72 6436.5,-108"/>
<text text-anchor="middle" x="6390.5" y="-86.3" font-family="Times,serif" font-size="14.00">UC:ucORB</text>
</g>
</g>
</svg>
