<?xml version="1.0" encoding="UTF-8" standalone="no"?>
<!DOCTYPE svg PUBLIC "-//W3C//DTD SVG 1.1//EN"
 "http://www.w3.org/Graphics/SVG/1.1/DTD/svg11.dtd">
<!-- Generated by graphviz version 2.43.0 (0)
 -->
<!-- Title: refvsref Pages: 1 -->
<svg width="222pt" height="129pt"
 viewBox="0.00 0.00 222.00 128.85" xmlns="http://www.w3.org/2000/svg" xmlns:xlink="http://www.w3.org/1999/xlink">
<g id="graph0" class="graph" transform="scale(1 1) rotate(0) translate(4 124.85)">
<title>refvsref</title>
<polygon fill="white" stroke="transparent" points="-4,4 -4,-124.85 218,-124.85 218,4 -4,4"/>
<!-- theory -->
<g id="node1" class="node">
<title>theory</title>
<polygon fill="#fff68f" stroke="black" points="124,-108 43,-108 43,-72 124,-72 124,-108"/>
<text text-anchor="middle" x="83.5" y="-86.3" font-family="Times,serif" font-size="14.00">IM:col2D</text>
</g>
<!-- theory&#45;&gt;theory -->
<g id="edge1" class="edge">
<title>theory:gravitationalAccel&#45;&gt;theory:force</title>
<path fill="none" stroke="black" d="M124.23,-94.44C134.4,-94.13 142,-92.65 142,-90 142,-88.34 139.03,-87.15 134.32,-86.4"/>
<polygon fill="black" stroke="black" points="134.49,-82.91 124.23,-85.56 133.91,-89.88 134.49,-82.91"/>
</g>
<!-- theory&#45;&gt;theory -->
<g id="edge6" class="edge">
<title>theory:accj&#45;&gt;theory:newtonSL</title>
<path fill="none" stroke="black" d="M124.23,-84.91C134.4,-86.62 142,-91.05 142,-99 142,-109.97 137.54,-114.25 132.82,-113.89"/>
<polygon fill="black" stroke="black" points="134.68,-110.92 124.5,-108 130.64,-116.64 134.68,-110.92"/>
</g>
<!-- theory&#45;&gt;theory -->
<g id="edge7" class="edge">
<title>theory:accj&#45;&gt;theory:gravitationalAccel</title>
<path fill="none" stroke="black" d="M124.04,-98.8C143.18,-99.82 160,-96.89 160,-90 160,-84.35 148.68,-81.36 134.05,-81.03"/>
<polygon fill="black" stroke="black" points="133.98,-77.53 124.04,-81.2 134.09,-84.53 133.98,-77.53"/>
</g>
<!-- theory&#45;&gt;theory -->
<g id="edge11" class="edge">
<title>theory:angAccj&#45;&gt;theory:newtonSLR</title>
<path fill="none" stroke="black" d="M124.04,-77.49C143.18,-76.89 160,-83.5 160,-99 160,-121.36 143.54,-125.2 131.35,-115.64"/>
<polygon fill="black" stroke="black" points="133.78,-113.11 124.5,-108 128.57,-117.78 133.78,-113.11"/>
</g>
<!-- theory&#45;&gt;theory -->
<g id="edge13" class="edge">
<title>theory:col2DIM&#45;&gt;theory:impulseS</title>
<path fill="none" stroke="black" d="M124.3,-102.31C151.51,-105.78 178,-101.67 178,-90 178,-79.79 157.72,-75.37 134.42,-76.75"/>
<polygon fill="black" stroke="black" points="133.93,-73.28 124.3,-77.69 134.58,-80.25 133.93,-73.28"/>
</g>
<!-- dataDefn -->
<g id="node2" class="node">
<title>dataDefn</title>
<polygon fill="#bbffff" stroke="black" points="167,-36 0,-36 0,0 167,0 167,-36"/>
<text text-anchor="middle" x="83.5" y="-14.3" font-family="Times,serif" font-size="14.00">DD:momentOfInertia</text>
</g>
<!-- theory&#45;&gt;dataDefn -->
<g id="edge2" class="edge">
<title>theory:accj&#45;&gt;dataDefn:p_CM</title>
<path fill="none" stroke="black" d="M42.89,-72.76C36.49,-64.61 34.72,-54.53 37.57,-45.31"/>
<polygon fill="black" stroke="black" points="40.82,-46.63 42.22,-36.12 34.58,-43.46 40.82,-46.63"/>
</g>
<!-- theory&#45;&gt;dataDefn -->
<g id="edge3" class="edge">
<title>theory:accj&#45;&gt;dataDefn:linearDisplacement</title>
<path fill="none" stroke="black" d="M53.92,-71.7C49.86,-63.81 48.76,-54.3 50.64,-45.55"/>
<polygon fill="black" stroke="black" points="53.95,-46.7 54.02,-36.1 47.36,-44.34 53.95,-46.7"/>
</g>
<!-- theory&#45;&gt;dataDefn -->
<g id="edge4" class="edge">
<title>theory:accj&#45;&gt;dataDefn:linearVelocity</title>
<path fill="none" stroke="black" d="M65.75,-71.7C63.37,-63.98 62.69,-54.71 63.71,-46.11"/>
<polygon fill="black" stroke="black" points="67.19,-46.61 65.81,-36.1 60.34,-45.17 67.19,-46.61"/>
</g>
<!-- theory&#45;&gt;dataDefn -->
<g id="edge5" class="edge">
<title>theory:accj&#45;&gt;dataDefn:linearAcceleration</title>
<path fill="none" stroke="black" d="M77.58,-71.7C76.79,-63.98 76.56,-54.71 76.9,-46.11"/>
<polygon fill="black" stroke="black" points="80.4,-46.32 77.6,-36.1 73.42,-45.84 80.4,-46.32"/>
</g>
<!-- theory&#45;&gt;dataDefn -->
<g id="edge8" class="edge">
<title>theory:angAccj&#45;&gt;dataDefn:angularDisplacement</title>
<path fill="none" stroke="black" d="M89.42,-71.7C90.21,-63.98 90.44,-54.71 90.1,-46.11"/>
<polygon fill="black" stroke="black" points="93.58,-45.84 89.4,-36.1 86.6,-46.32 93.58,-45.84"/>
</g>
<!-- theory&#45;&gt;dataDefn -->
<g id="edge9" class="edge">
<title>theory:angAccj&#45;&gt;dataDefn:angularVelocity</title>
<path fill="none" stroke="black" d="M101.25,-71.7C103.63,-63.98 104.31,-54.71 103.29,-46.11"/>
<polygon fill="black" stroke="black" points="106.66,-45.17 101.19,-36.1 99.81,-46.61 106.66,-45.17"/>
</g>
<!-- theory&#45;&gt;dataDefn -->
<g id="edge10" class="edge">
<title>theory:angAccj&#45;&gt;dataDefn:angularAcceleration</title>
<path fill="none" stroke="black" d="M113.08,-71.7C117.14,-63.81 118.24,-54.3 116.36,-45.55"/>
<polygon fill="black" stroke="black" points="119.64,-44.34 112.98,-36.1 113.05,-46.7 119.64,-44.34"/>
</g>
<!-- theory&#45;&gt;dataDefn -->
<g id="edge12" class="edge">
<title>theory:col2DIM&#45;&gt;dataDefn:p_CM</title>
<path fill="none" stroke="black" d="M124.11,-72.76C130.51,-64.61 132.28,-54.53 129.43,-45.31"/>
<polygon fill="black" stroke="black" points="132.42,-43.46 124.78,-36.12 126.18,-46.63 132.42,-43.46"/>
</g>
</g>
</svg>
