<?xml version="1.0" encoding="UTF-8" standalone="no"?>
<!DOCTYPE svg PUBLIC "-//W3C//DTD SVG 1.1//EN"
 "http://www.w3.org/Graphics/SVG/1.1/DTD/svg11.dtd">
<!-- Generated by graphviz version 2.43.0 (0)
 -->
<!-- Title: refvsref Pages: 1 -->
<svg width="2308pt" height="188pt"
 viewBox="0.00 0.00 2308.00 188.00" xmlns="http://www.w3.org/2000/svg" xmlns:xlink="http://www.w3.org/1999/xlink">
<g id="graph0" class="graph" transform="scale(1 1) rotate(0) translate(4 184)">
<title>refvsref</title>
<polygon fill="white" stroke="transparent" points="-4,4 -4,-184 2304,-184 2304,4 -4,4"/>
<!-- gravitationalAccel -->
<g id="node1" class="node">
<title>gravitationalAccel</title>
<polygon fill="palegreen" stroke="black" points="155,-108 22,-108 22,-72 155,-72 155,-108"/>
<text text-anchor="middle" x="88.5" y="-86.3" font-family="Times,serif" font-size="14.00">GD:accelGravity</text>
</g>
<!-- force -->
<g id="node2" class="node">
<title>force</title>
<polygon fill="pink" stroke="black" points="177,-36 0,-36 0,0 177,0 177,-36"/>
<text text-anchor="middle" x="88.5" y="-14.3" font-family="Times,serif" font-size="14.00">TM:UniversalGravLaw</text>
</g>
<!-- gravitationalAccel&#45;&gt;force -->
<g id="edge1" class="edge">
<title>gravitationalAccel&#45;&gt;force</title>
<path fill="none" stroke="black" d="M88.5,-71.7C88.5,-63.98 88.5,-54.71 88.5,-46.11"/>
<polygon fill="black" stroke="black" points="92,-46.1 88.5,-36.1 85,-46.1 92,-46.1"/>
</g>
<!-- accj -->
<g id="node3" class="node">
<title>accj</title>
<polygon fill="#fff68f" stroke="black" points="433,-180 326,-180 326,-144 433,-144 433,-180"/>
<text text-anchor="middle" x="379.5" y="-158.3" font-family="Times,serif" font-size="14.00">IM:transMot</text>
</g>
<!-- accj&#45;&gt;gravitationalAccel -->
<g id="edge7" class="edge">
<title>accj&#45;&gt;gravitationalAccel</title>
<path fill="none" stroke="black" d="M325.79,-148.08C280.68,-137.23 215.67,-121.59 165.1,-109.43"/>
<polygon fill="black" stroke="black" points="165.73,-105.98 155.19,-107.04 164.09,-112.78 165.73,-105.98"/>
</g>
<!-- p_CM -->
<g id="node4" class="node">
<title>p_CM</title>
<polygon fill="#bbffff" stroke="black" points="647.5,-108 529.5,-108 529.5,-72 647.5,-72 647.5,-108"/>
<text text-anchor="middle" x="588.5" y="-86.3" font-family="Times,serif" font-size="14.00">DD:ctrOfMass</text>
</g>
<!-- accj&#45;&gt;p_CM -->
<g id="edge2" class="edge">
<title>accj&#45;&gt;p_CM</title>
<path fill="none" stroke="black" d="M430.36,-143.97C459.69,-134.14 496.75,-121.73 527.62,-111.39"/>
<polygon fill="black" stroke="black" points="529.04,-114.61 537.41,-108.11 526.82,-107.97 529.04,-114.61"/>
</g>
<!-- linearDisplacement -->
<g id="node5" class="node">
<title>linearDisplacement</title>
<polygon fill="#bbffff" stroke="black" points="267.5,-108 173.5,-108 173.5,-72 267.5,-72 267.5,-108"/>
<text text-anchor="middle" x="220.5" y="-86.3" font-family="Times,serif" font-size="14.00">DD:linDisp</text>
</g>
<!-- accj&#45;&gt;linearDisplacement -->
<g id="edge3" class="edge">
<title>accj&#45;&gt;linearDisplacement</title>
<path fill="none" stroke="black" d="M340.6,-143.88C318.87,-134.31 291.6,-122.3 268.54,-112.15"/>
<polygon fill="black" stroke="black" points="269.83,-108.89 259.27,-108.07 267.01,-115.3 269.83,-108.89"/>
</g>
<!-- linearVelocity -->
<g id="node6" class="node">
<title>linearVelocity</title>
<polygon fill="#bbffff" stroke="black" points="369,-108 286,-108 286,-72 369,-72 369,-108"/>
<text text-anchor="middle" x="327.5" y="-86.3" font-family="Times,serif" font-size="14.00">DD:linVel</text>
</g>
<!-- accj&#45;&gt;linearVelocity -->
<g id="edge4" class="edge">
<title>accj&#45;&gt;linearVelocity</title>
<path fill="none" stroke="black" d="M366.65,-143.7C360.47,-135.39 352.96,-125.28 346.18,-116.14"/>
<polygon fill="black" stroke="black" points="348.98,-114.04 340.21,-108.1 343.36,-118.22 348.98,-114.04"/>
</g>
<!-- linearAcceleration -->
<g id="node7" class="node">
<title>linearAcceleration</title>
<polygon fill="#bbffff" stroke="black" points="473.5,-108 387.5,-108 387.5,-72 473.5,-72 473.5,-108"/>
<text text-anchor="middle" x="430.5" y="-86.3" font-family="Times,serif" font-size="14.00">DD:linAcc</text>
</g>
<!-- accj&#45;&gt;linearAcceleration -->
<g id="edge5" class="edge">
<title>accj&#45;&gt;linearAcceleration</title>
<path fill="none" stroke="black" d="M392.11,-143.7C398.1,-135.47 405.38,-125.48 411.98,-116.42"/>
<polygon fill="black" stroke="black" points="414.98,-118.25 418.04,-108.1 409.32,-114.13 414.98,-118.25"/>
</g>
<!-- newtonSL -->
<g id="node8" class="node">
<title>newtonSL</title>
<polygon fill="pink" stroke="black" points="593,-36 410,-36 410,0 593,0 593,-36"/>
<text text-anchor="middle" x="501.5" y="-14.3" font-family="Times,serif" font-size="14.00">TM:NewtonSecLawMot</text>
</g>
<!-- accj&#45;&gt;newtonSL -->
<g id="edge6" class="edge">
<title>accj&#45;&gt;newtonSL</title>
<path fill="none" stroke="black" d="M433.21,-144.1C451.34,-135.9 470.1,-124.21 482.5,-108 495.96,-90.4 500.38,-65.37 501.62,-46.33"/>
<polygon fill="black" stroke="black" points="505.12,-46.32 502.02,-36.19 498.12,-46.05 505.12,-46.32"/>
</g>
<!-- angAccj -->
<g id="node9" class="node">
<title>angAccj</title>
<polygon fill="#fff68f" stroke="black" points="1053.5,-180 963.5,-180 963.5,-144 1053.5,-144 1053.5,-180"/>
<text text-anchor="middle" x="1008.5" y="-158.3" font-family="Times,serif" font-size="14.00">IM:rotMot</text>
</g>
<!-- angularDisplacement -->
<g id="node10" class="node">
<title>angularDisplacement</title>
<polygon fill="#bbffff" stroke="black" points="885.5,-108 783.5,-108 783.5,-72 885.5,-72 885.5,-108"/>
<text text-anchor="middle" x="834.5" y="-86.3" font-family="Times,serif" font-size="14.00">DD:angDisp</text>
</g>
<!-- angAccj&#45;&gt;angularDisplacement -->
<g id="edge8" class="edge">
<title>angAccj&#45;&gt;angularDisplacement</title>
<path fill="none" stroke="black" d="M965.93,-143.88C941.94,-134.22 911.77,-122.09 886.4,-111.88"/>
<polygon fill="black" stroke="black" points="887.51,-108.55 876.93,-108.07 884.9,-115.05 887.51,-108.55"/>
</g>
<!-- angularVelocity -->
<g id="node11" class="node">
<title>angularVelocity</title>
<polygon fill="#bbffff" stroke="black" points="995.5,-108 903.5,-108 903.5,-72 995.5,-72 995.5,-108"/>
<text text-anchor="middle" x="949.5" y="-86.3" font-family="Times,serif" font-size="14.00">DD:angVel</text>
</g>
<!-- angAccj&#45;&gt;angularVelocity -->
<g id="edge9" class="edge">
<title>angAccj&#45;&gt;angularVelocity</title>
<path fill="none" stroke="black" d="M993.92,-143.7C986.84,-135.3 978.22,-125.07 970.45,-115.86"/>
<polygon fill="black" stroke="black" points="973.04,-113.49 963.92,-108.1 967.69,-118.01 973.04,-113.49"/>
</g>
<!-- angularAcceleration -->
<g id="node12" class="node">
<title>angularAcceleration</title>
<polygon fill="#bbffff" stroke="black" points="1121,-108 1014,-108 1014,-72 1121,-72 1121,-108"/>
<text text-anchor="middle" x="1067.5" y="-86.3" font-family="Times,serif" font-size="14.00">DD:angAccel</text>
</g>
<!-- angAccj&#45;&gt;angularAcceleration -->
<g id="edge10" class="edge">
<title>angAccj&#45;&gt;angularAcceleration</title>
<path fill="none" stroke="black" d="M1023.08,-143.7C1030.16,-135.3 1038.78,-125.07 1046.55,-115.86"/>
<polygon fill="black" stroke="black" points="1049.31,-118.01 1053.08,-108.1 1043.96,-113.49 1049.31,-118.01"/>
</g>
<!-- newtonSLR -->
<g id="node13" class="node">
<title>newtonSLR</title>
<polygon fill="pink" stroke="black" points="1253.5,-36 1045.5,-36 1045.5,0 1253.5,0 1253.5,-36"/>
<text text-anchor="middle" x="1149.5" y="-14.3" font-family="Times,serif" font-size="14.00">TM:NewtonSecLawRotMot</text>
</g>
<!-- angAccj&#45;&gt;newtonSLR -->
<g id="edge11" class="edge">
<title>angAccj&#45;&gt;newtonSLR</title>
<path fill="none" stroke="black" d="M1053.66,-152.18C1079.85,-144.74 1111.35,-131.42 1130.5,-108 1144.61,-90.75 1148.94,-65.48 1149.98,-46.27"/>
<polygon fill="black" stroke="black" points="1153.49,-46.13 1150.27,-36.04 1146.49,-45.94 1153.49,-46.13"/>
</g>
<!-- col2DRC -->
<g id="node14" class="node">
<title>col2DRC</title>
<polygon fill="#fff68f" stroke="black" points="692,-180 611,-180 611,-144 692,-144 692,-180"/>
<text text-anchor="middle" x="651.5" y="-158.3" font-family="Times,serif" font-size="14.00">IM:col2D</text>
</g>
<!-- col2DRC&#45;&gt;p_CM -->
<g id="edge12" class="edge">
<title>col2DRC&#45;&gt;p_CM</title>
<path fill="none" stroke="black" d="M635.93,-143.7C628.3,-135.22 618.98,-124.86 610.62,-115.58"/>
<polygon fill="black" stroke="black" points="613.19,-113.2 603.89,-108.1 607.98,-117.88 613.19,-113.2"/>
</g>
<!-- impulseS -->
<g id="node15" class="node">
<title>impulseS</title>
<polygon fill="palegreen" stroke="black" points="765.5,-108 665.5,-108 665.5,-72 765.5,-72 765.5,-108"/>
<text text-anchor="middle" x="715.5" y="-86.3" font-family="Times,serif" font-size="14.00">GD:impulse</text>
</g>
<!-- col2DRC&#45;&gt;impulseS -->
<g id="edge13" class="edge">
<title>col2DRC&#45;&gt;impulseS</title>
<path fill="none" stroke="black" d="M667.32,-143.7C675.07,-135.22 684.54,-124.86 693.02,-115.58"/>
<polygon fill="black" stroke="black" points="695.7,-117.85 699.86,-108.1 690.53,-113.12 695.7,-117.85"/>
</g>
<!-- velocityB -->
<g id="node16" class="node">
<title>velocityB</title>
<polygon fill="#bbffff" stroke="black" points="1305.5,-108 1177.5,-108 1177.5,-72 1305.5,-72 1305.5,-108"/>
<text text-anchor="middle" x="1241.5" y="-86.3" font-family="Times,serif" font-size="14.00">DD:chaslesThm</text>
</g>
<!-- torque -->
<g id="node17" class="node">
<title>torque</title>
<polygon fill="#bbffff" stroke="black" points="1415,-108 1324,-108 1324,-72 1415,-72 1415,-108"/>
<text text-anchor="middle" x="1369.5" y="-86.3" font-family="Times,serif" font-size="14.00">DD:torque</text>
</g>
<!-- kEnergy -->
<g id="node18" class="node">
<title>kEnergy</title>
<polygon fill="#bbffff" stroke="black" points="1537.5,-108 1433.5,-108 1433.5,-72 1537.5,-72 1537.5,-108"/>
<text text-anchor="middle" x="1485.5" y="-86.3" font-family="Times,serif" font-size="14.00">DD:kEnergy</text>
</g>
<!-- restitutionCoef -->
<g id="node19" class="node">
<title>restitutionCoef</title>
<polygon fill="#bbffff" stroke="black" points="1713,-108 1556,-108 1556,-72 1713,-72 1713,-108"/>
<text text-anchor="middle" x="1634.5" y="-86.3" font-family="Times,serif" font-size="14.00">DD:coeffRestitution</text>
</g>
<!-- v_iAB -->
<g id="node20" class="node">
<title>v_iAB</title>
<polygon fill="#bbffff" stroke="black" points="1849.5,-108 1731.5,-108 1731.5,-72 1849.5,-72 1849.5,-108"/>
<text text-anchor="middle" x="1790.5" y="-86.3" font-family="Times,serif" font-size="14.00">DD:reVeInColl</text>
</g>
<!-- impulseV -->
<g id="node21" class="node">
<title>impulseV</title>
<polygon fill="#bbffff" stroke="black" points="1977.5,-108 1867.5,-108 1867.5,-72 1977.5,-72 1977.5,-108"/>
<text text-anchor="middle" x="1922.5" y="-86.3" font-family="Times,serif" font-size="14.00">DD:impulseV</text>
</g>
<!-- potEnergy -->
<g id="node22" class="node">
<title>potEnergy</title>
<polygon fill="#bbffff" stroke="black" points="2115,-108 1996,-108 1996,-72 2115,-72 2115,-108"/>
<text text-anchor="middle" x="2055.5" y="-86.3" font-family="Times,serif" font-size="14.00">DD:potEnergy</text>
</g>
<!-- momentOfInertia -->
<g id="node23" class="node">
<title>momentOfInertia</title>
<polygon fill="#bbffff" stroke="black" points="2300,-108 2133,-108 2133,-72 2300,-72 2300,-108"/>
<text text-anchor="middle" x="2216.5" y="-86.3" font-family="Times,serif" font-size="14.00">DD:momentOfInertia</text>
</g>
<!-- force1 -->
<g id="node24" class="node">
<title>force1</title>
<polygon fill="pink" stroke="black" points="1467.5,-36 1271.5,-36 1271.5,0 1467.5,0 1467.5,-36"/>
<text text-anchor="middle" x="1369.5" y="-14.3" font-family="Times,serif" font-size="14.00">TM:NewtonThirdLawMot</text>
</g>
</g>
</svg>
