<?xml version="1.0" encoding="UTF-8" standalone="no"?>
<!DOCTYPE svg PUBLIC "-//W3C//DTD SVG 1.1//EN"
 "http://www.w3.org/Graphics/SVG/1.1/DTD/svg11.dtd">
<!-- Generated by graphviz version 2.43.0 (0)
 -->
<!-- Title: allvsr Pages: 1 -->
<svg width="3432pt" height="149pt"
 viewBox="0.00 0.00 3432.00 148.65" xmlns="http://www.w3.org/2000/svg" xmlns:xlink="http://www.w3.org/1999/xlink">
<g id="graph0" class="graph" transform="scale(1 1) rotate(0) translate(4 144.65)">
<title>allvsr</title>
<polygon fill="white" stroke="transparent" points="-4,4 -4,-144.65 3428,-144.65 3428,4 -4,4"/>
<!-- outputValsAndKnownValues -->
<g id="node1" class="node">
<title>outputValsAndKnownValues</title>
<polygon fill="ivory" stroke="black" points="241,-108 0,-108 0,-72 241,-72 241,-108"/>
<text text-anchor="middle" x="120.5" y="-86.3" font-family="Times,serif" font-size="14.00">FR:outputValsAndKnownValues</text>
</g>
<!-- inputValues -->
<g id="node2" class="node">
<title>inputValues</title>
<polygon fill="ivory" stroke="black" points="653,-108 528,-108 528,-72 653,-72 653,-108"/>
<text text-anchor="middle" x="590.5" y="-86.3" font-family="Times,serif" font-size="14.00">FR:inputValues</text>
</g>
<!-- outputValsAndKnownValues&#45;&gt;inputValues -->
<g id="edge1" class="edge">
<title>outputValsAndKnownValues&#45;&gt;inputValues</title>
<path fill="none" stroke="black" d="M176.67,-108.01C201.74,-115.14 231.8,-122.47 259.5,-126 370.16,-140.1 401.43,-149.41 510.5,-126 523.54,-123.2 537.02,-118.1 549.12,-112.61"/>
<polygon fill="black" stroke="black" points="550.96,-115.61 558.49,-108.15 547.95,-109.29 550.96,-115.61"/>
</g>
<!-- sysSetValsFollowingAssumps -->
<g id="node3" class="node">
<title>sysSetValsFollowingAssumps</title>
<polygon fill="ivory" stroke="black" points="510,-108 259,-108 259,-72 510,-72 510,-108"/>
<text text-anchor="middle" x="384.5" y="-86.3" font-family="Times,serif" font-size="14.00">FR:sysSetValsFollowingAssumps</text>
</g>
<!-- outputValsAndKnownValues&#45;&gt;sysSetValsFollowingAssumps -->
<g id="edge2" class="edge">
<title>outputValsAndKnownValues&#45;&gt;sysSetValsFollowingAssumps</title>
<path fill="none" stroke="black" d="M241.16,-90C243.64,-90 246.12,-90 248.6,-90"/>
<polygon fill="black" stroke="black" points="248.79,-93.5 258.79,-90 248.79,-86.5 248.79,-93.5"/>
</g>
<!-- checkGlassSafety -->
<g id="node4" class="node">
<title>checkGlassSafety</title>
<polygon fill="ivory" stroke="black" points="838,-108 671,-108 671,-72 838,-72 838,-108"/>
<text text-anchor="middle" x="754.5" y="-86.3" font-family="Times,serif" font-size="14.00">FR:checkGlassSafety</text>
</g>
<!-- theory -->
<g id="node5" class="node">
<title>theory</title>
<polygon fill="#fff68f" stroke="black" points="806.5,-36 702.5,-36 702.5,0 806.5,0 806.5,-36"/>
<text text-anchor="middle" x="754.5" y="-14.3" font-family="Times,serif" font-size="14.00">IM:isSafeLR</text>
</g>
<!-- checkGlassSafety&#45;&gt;theory -->
<g id="edge3" class="edge">
<title>checkGlassSafety&#45;&gt;theory:isSafePb</title>
<path fill="none" stroke="black" d="M748.58,-71.7C747.79,-63.98 747.56,-54.71 747.9,-46.11"/>
<polygon fill="black" stroke="black" points="751.4,-46.32 748.6,-36.1 744.42,-45.84 751.4,-46.32"/>
</g>
<!-- checkGlassSafety&#45;&gt;theory -->
<g id="edge4" class="edge">
<title>checkGlassSafety&#45;&gt;theory:isSafeLR</title>
<path fill="none" stroke="black" d="M760.42,-71.7C761.21,-63.98 761.44,-54.71 761.1,-46.11"/>
<polygon fill="black" stroke="black" points="764.58,-45.84 760.4,-36.1 757.6,-46.32 764.58,-45.84"/>
</g>
<!-- assumpGT -->
<g id="node6" class="node">
<title>assumpGT</title>
<polygon fill="mistyrose" stroke="black" points="961.5,-108 855.5,-108 855.5,-72 961.5,-72 961.5,-108"/>
<text text-anchor="middle" x="908.5" y="-86.3" font-family="Times,serif" font-size="14.00">A:assumpGT</text>
</g>
<!-- assumpGC -->
<g id="node7" class="node">
<title>assumpGC</title>
<polygon fill="mistyrose" stroke="black" points="1087,-108 980,-108 980,-72 1087,-72 1087,-108"/>
<text text-anchor="middle" x="1033.5" y="-86.3" font-family="Times,serif" font-size="14.00">A:assumpGC</text>
</g>
<!-- assumpES -->
<g id="node8" class="node">
<title>assumpES</title>
<polygon fill="mistyrose" stroke="black" points="1211.5,-108 1105.5,-108 1105.5,-72 1211.5,-72 1211.5,-108"/>
<text text-anchor="middle" x="1158.5" y="-86.3" font-family="Times,serif" font-size="14.00">A:assumpES</text>
</g>
<!-- assumpSV -->
<g id="node9" class="node">
<title>assumpSV</title>
<polygon fill="mistyrose" stroke="black" points="1335,-108 1230,-108 1230,-72 1335,-72 1335,-108"/>
<text text-anchor="middle" x="1282.5" y="-86.3" font-family="Times,serif" font-size="14.00">A:assumpSV</text>
</g>
<!-- assumpGL -->
<g id="node10" class="node">
<title>assumpGL</title>
<polygon fill="mistyrose" stroke="black" points="1459.5,-108 1353.5,-108 1353.5,-72 1459.5,-72 1459.5,-108"/>
<text text-anchor="middle" x="1406.5" y="-86.3" font-family="Times,serif" font-size="14.00">A:assumpGL</text>
</g>
<!-- assumpBC -->
<g id="node11" class="node">
<title>assumpBC</title>
<polygon fill="mistyrose" stroke="black" points="1585,-108 1478,-108 1478,-72 1585,-72 1585,-108"/>
<text text-anchor="middle" x="1531.5" y="-86.3" font-family="Times,serif" font-size="14.00">A:assumpBC</text>
</g>
<!-- assumpRT -->
<g id="node12" class="node">
<title>assumpRT</title>
<polygon fill="mistyrose" stroke="black" points="1708,-108 1603,-108 1603,-72 1708,-72 1708,-108"/>
<text text-anchor="middle" x="1655.5" y="-86.3" font-family="Times,serif" font-size="14.00">A:assumpRT</text>
</g>
<!-- assumpLDFC -->
<g id="node13" class="node">
<title>assumpLDFC</title>
<polygon fill="mistyrose" stroke="black" points="1852.5,-108 1726.5,-108 1726.5,-72 1852.5,-72 1852.5,-108"/>
<text text-anchor="middle" x="1789.5" y="-86.3" font-family="Times,serif" font-size="14.00">A:assumpLDFC</text>
</g>
<!-- dataDefn -->
<g id="node14" class="node">
<title>dataDefn</title>
<polygon fill="#bbffff" stroke="black" points="2008,-108 1871,-108 1871,-72 2008,-72 2008,-108"/>
<text text-anchor="middle" x="1939.5" y="-86.3" font-family="Times,serif" font-size="14.00">DD:calofDemand</text>
</g>
<!-- checkInputWithDataCons -->
<g id="node15" class="node">
<title>checkInputWithDataCons</title>
<polygon fill="ivory" stroke="black" points="2249,-108 2026,-108 2026,-72 2249,-72 2249,-108"/>
<text text-anchor="middle" x="2137.5" y="-86.3" font-family="Times,serif" font-size="14.00">FR:checkInputWithDataCons</text>
</g>
<!-- outputValues -->
<g id="node16" class="node">
<title>outputValues</title>
<polygon fill="ivory" stroke="black" points="2402,-108 2267,-108 2267,-72 2402,-72 2402,-108"/>
<text text-anchor="middle" x="2334.5" y="-86.3" font-family="Times,serif" font-size="14.00">FR:outputValues</text>
</g>
<!-- correct -->
<g id="node17" class="node">
<title>correct</title>
<polygon fill="ivory" stroke="black" points="2524.5,-108 2420.5,-108 2420.5,-72 2524.5,-72 2524.5,-108"/>
<text text-anchor="middle" x="2472.5" y="-86.3" font-family="Times,serif" font-size="14.00">NFR:correct</text>
</g>
<!-- verifiable -->
<g id="node18" class="node">
<title>verifiable</title>
<polygon fill="ivory" stroke="black" points="2662.5,-108 2542.5,-108 2542.5,-72 2662.5,-72 2662.5,-108"/>
<text text-anchor="middle" x="2602.5" y="-86.3" font-family="Times,serif" font-size="14.00">NFR:verifiable</text>
</g>
<!-- understandable -->
<g id="node19" class="node">
<title>understandable</title>
<polygon fill="ivory" stroke="black" points="2846,-108 2681,-108 2681,-72 2846,-72 2846,-108"/>
<text text-anchor="middle" x="2763.5" y="-86.3" font-family="Times,serif" font-size="14.00">NFR:understandable</text>
</g>
<!-- reusable -->
<g id="node20" class="node">
<title>reusable</title>
<polygon fill="ivory" stroke="black" points="2979,-108 2864,-108 2864,-72 2979,-72 2979,-108"/>
<text text-anchor="middle" x="2921.5" y="-86.3" font-family="Times,serif" font-size="14.00">NFR:reusable</text>
</g>
<!-- maintainable -->
<g id="node21" class="node">
<title>maintainable</title>
<polygon fill="ivory" stroke="black" points="3143.5,-108 2997.5,-108 2997.5,-72 3143.5,-72 3143.5,-108"/>
<text text-anchor="middle" x="3070.5" y="-86.3" font-family="Times,serif" font-size="14.00">NFR:maintainable</text>
</g>
<!-- portable -->
<g id="node22" class="node">
<title>portable</title>
<polygon fill="ivory" stroke="black" points="3275,-108 3162,-108 3162,-72 3275,-72 3275,-108"/>
<text text-anchor="middle" x="3218.5" y="-86.3" font-family="Times,serif" font-size="14.00">NFR:portable</text>
</g>
<!-- willBreakGS -->
<g id="node23" class="node">
<title>willBreakGS</title>
<polygon fill="#ffb90f" stroke="black" points="3424,-108 3293,-108 3293,-72 3424,-72 3424,-108"/>
<text text-anchor="middle" x="3358.5" y="-86.3" font-family="Times,serif" font-size="14.00">GS:willBreakGS</text>
</g>
</g>
</svg>
