<?xml version="1.0" encoding="UTF-8" standalone="no"?>
<!DOCTYPE svg PUBLIC "-//W3C//DTD SVG 1.1//EN"
 "http://www.w3.org/Graphics/SVG/1.1/DTD/svg11.dtd">
<!-- Generated by graphviz version 2.43.0 (0)
 -->
<!-- Title: allvsall Pages: 1 -->
<svg width="2588pt" height="293pt"
 viewBox="0.00 0.00 2588.00 292.57" xmlns="http://www.w3.org/2000/svg" xmlns:xlink="http://www.w3.org/1999/xlink">
<g id="graph0" class="graph" transform="scale(1 1) rotate(0) translate(4 288.57)">
<title>allvsall</title>
<polygon fill="white" stroke="transparent" points="-4,4 -4,-288.57 2584,-288.57 2584,4 -4,4"/>
<!-- assumpLDFC -->
<g id="node1" class="node">
<title>assumpLDFC</title>
<polygon fill="mistyrose" stroke="black" points="564.5,-36 438.5,-36 438.5,0 564.5,0 564.5,-36"/>
<text text-anchor="middle" x="501.5" y="-14.3" font-family="Times,serif" font-size="14.00">A:assumpLDFC</text>
</g>
<!-- assumpSV -->
<g id="node2" class="node">
<title>assumpSV</title>
<polygon fill="mistyrose" stroke="black" points="688,-36 583,-36 583,0 688,0 688,-36"/>
<text text-anchor="middle" x="635.5" y="-14.3" font-family="Times,serif" font-size="14.00">A:assumpSV</text>
</g>
<!-- assumpLDFC&#45;&gt;assumpSV -->
<g id="edge1" class="edge">
<title>assumpLDFC&#45;&gt;assumpSV</title>
<path fill="none" stroke="black" d="M564.57,-18C567.24,-18 569.91,-18 572.57,-18"/>
<polygon fill="black" stroke="black" points="572.86,-21.5 582.86,-18 572.86,-14.5 572.86,-21.5"/>
</g>
<!-- loadDurFactor -->
<g id="node3" class="node">
<title>loadDurFactor</title>
<polygon fill="#bbffff" stroke="black" points="301.5,-108 155.5,-108 155.5,-72 301.5,-72 301.5,-108"/>
<text text-anchor="middle" x="228.5" y="-86.3" font-family="Times,serif" font-size="14.00">DD:loadDurFactor</text>
</g>
<!-- loadDurFactor&#45;&gt;assumpLDFC -->
<g id="edge3" class="edge">
<title>loadDurFactor&#45;&gt;assumpLDFC</title>
<path fill="none" stroke="black" d="M294.93,-71.97C335.26,-61.63 386.78,-48.41 428.28,-37.77"/>
<polygon fill="black" stroke="black" points="429.24,-41.14 438.06,-35.27 427.51,-34.36 429.24,-41.14"/>
</g>
<!-- loadDurFactor&#45;&gt;assumpSV -->
<g id="edge2" class="edge">
<title>loadDurFactor&#45;&gt;assumpSV</title>
<path fill="none" stroke="black" d="M301.77,-73.55C304.72,-73.01 307.63,-72.49 310.5,-72 423.59,-52.56 456.15,-59.25 572.81,-35.98"/>
<polygon fill="black" stroke="black" points="573.74,-39.36 582.85,-33.94 572.35,-32.5 573.74,-39.36"/>
</g>
<!-- demandq -->
<g id="node4" class="node">
<title>demandq</title>
<polygon fill="#bbffff" stroke="black" points="137,-108 0,-108 0,-72 137,-72 137,-108"/>
<text text-anchor="middle" x="68.5" y="-86.3" font-family="Times,serif" font-size="14.00">DD:calofDemand</text>
</g>
<!-- stdOffDist -->
<g id="node5" class="node">
<title>stdOffDist</title>
<polygon fill="#bbffff" stroke="black" points="1051.5,-108 917.5,-108 917.5,-72 1051.5,-72 1051.5,-108"/>
<text text-anchor="middle" x="984.5" y="-86.3" font-family="Times,serif" font-size="14.00">DD:standOffDist</text>
</g>
<!-- demandq&#45;&gt;stdOffDist -->
<g id="edge4" class="edge">
<title>demandq&#45;&gt;stdOffDist</title>
<path fill="none" stroke="black" d="M103.49,-108.16C118.98,-115.23 137.7,-122.46 155.5,-126 236.47,-142.09 817.56,-142.26 898.5,-126 912.67,-123.15 927.43,-117.91 940.63,-112.29"/>
<polygon fill="black" stroke="black" points="942.22,-115.41 949.94,-108.16 939.38,-109.02 942.22,-115.41"/>
</g>
<!-- eqTNTChar -->
<g id="node6" class="node">
<title>eqTNTChar</title>
<polygon fill="#bbffff" stroke="black" points="1175,-108 1070,-108 1070,-72 1175,-72 1175,-108"/>
<text text-anchor="middle" x="1122.5" y="-86.3" font-family="Times,serif" font-size="14.00">DD:eqTNTW</text>
</g>
<!-- demandq&#45;&gt;eqTNTChar -->
<g id="edge5" class="edge">
<title>demandq&#45;&gt;eqTNTChar</title>
<path fill="none" stroke="black" d="M103.49,-108.16C118.98,-115.23 137.7,-122.46 155.5,-126 253.15,-145.4 954.67,-149.15 1051.5,-126 1063.04,-123.24 1074.82,-118.28 1085.39,-112.91"/>
<polygon fill="black" stroke="black" points="1087.16,-115.94 1094.33,-108.13 1083.86,-109.76 1087.16,-115.94"/>
</g>
<!-- theory -->
<g id="node7" class="node">
<title>theory</title>
<polygon fill="#fff68f" stroke="black" points="426.5,-180 322.5,-180 322.5,-144 426.5,-144 426.5,-180"/>
<text text-anchor="middle" x="374.5" y="-158.3" font-family="Times,serif" font-size="14.00">IM:isSafeLR</text>
</g>
<!-- theory&#45;&gt;assumpSV -->
<g id="edge11" class="edge">
<title>theory:nFL&#45;&gt;assumpSV</title>
<path fill="none" stroke="black" d="M426.56,-152.13C479.76,-143.26 556.9,-128.06 580.5,-108 599.04,-92.24 608.46,-65.66 616.43,-45.65"/>
<polygon fill="black" stroke="black" points="619.77,-46.72 620.39,-36.15 613.31,-44.03 619.77,-46.72"/>
</g>
<!-- theory&#45;&gt;assumpSV -->
<g id="edge14" class="edge">
<title>theory:dimlessLoad&#45;&gt;assumpSV</title>
<path fill="none" stroke="black" d="M426.64,-154.23C484.45,-145.77 572.92,-129.74 598.5,-108 616.87,-92.38 626.28,-66.15 631,-46.2"/>
<polygon fill="black" stroke="black" points="634.48,-46.65 633.12,-36.15 627.63,-45.21 634.48,-46.65"/>
</g>
<!-- theory&#45;&gt;assumpSV -->
<g id="edge20" class="edge">
<title>theory:sdfTol&#45;&gt;assumpSV</title>
<path fill="none" stroke="black" d="M426.5,-155.92C489.49,-148.03 589.1,-131.3 616.5,-108 634.87,-92.38 644.28,-66.15 645.79,-46.2"/>
<polygon fill="black" stroke="black" points="649.29,-46.16 645.85,-36.15 642.29,-46.13 649.29,-46.16"/>
</g>
<!-- theory&#45;&gt;loadDurFactor -->
<g id="edge7" class="edge">
<title>theory:riskFun&#45;&gt;loadDurFactor</title>
<path fill="none" stroke="black" d="M332.89,-143.88C312.28,-134.47 287.62,-122.71 267.4,-112.67"/>
<polygon fill="black" stroke="black" points="268.96,-109.53 258.45,-108.19 265.83,-115.79 268.96,-109.53"/>
</g>
<!-- theory&#45;&gt;loadDurFactor -->
<g id="edge22" class="edge">
<title>theory:sdfTol&#45;&gt;loadDurFactor</title>
<path fill="none" stroke="black" d="M344.68,-143.88C325.81,-134.35 301.02,-122.41 279.16,-112.28"/>
<polygon fill="black" stroke="black" points="280.54,-109.07 269.99,-108.07 277.61,-115.43 280.54,-109.07"/>
</g>
<!-- theory&#45;&gt;demandq -->
<g id="edge17" class="edge">
<title>theory:dimlessLoad&#45;&gt;demandq</title>
<path fill="none" stroke="black" d="M322.32,-150.22C274.24,-139.64 202.33,-123.27 147.29,-110.42"/>
<polygon fill="black" stroke="black" points="147.75,-106.94 137.21,-108.07 146.15,-113.75 147.75,-106.94"/>
</g>
<!-- theory&#45;&gt;demandq -->
<g id="edge28" class="edge">
<title>theory:isSafeLR&#45;&gt;demandq</title>
<path fill="none" stroke="black" d="M322.36,-147.83C274.27,-136.46 202.33,-119.97 147.26,-107.68"/>
<polygon fill="black" stroke="black" points="147.7,-104.19 137.18,-105.43 146.18,-111.02 147.7,-104.19"/>
</g>
<!-- theory&#45;&gt;theory -->
<g id="edge8" class="edge">
<title>theory:riskFun&#45;&gt;theory:stressDistFac</title>
<path fill="none" stroke="black" d="M426.7,-163.44C437.09,-163.28 444.5,-162.8 444.5,-162 444.5,-161.5 441.61,-161.13 436.9,-160.88"/>
<polygon fill="black" stroke="black" points="436.81,-157.37 426.7,-160.56 436.59,-164.37 436.81,-157.37"/>
</g>
<!-- theory&#45;&gt;theory -->
<g id="edge10" class="edge">
<title>theory:stressDistFac&#45;&gt;theory:dimlessLoad</title>
<path fill="none" stroke="black" d="M426.9,-164.99C446.43,-165.09 462.5,-164.09 462.5,-162 462.5,-160.28 451.68,-159.3 437.02,-159.06"/>
<polygon fill="black" stroke="black" points="436.92,-155.56 426.9,-159.01 436.88,-162.56 436.92,-155.56"/>
</g>
<!-- theory&#45;&gt;theory -->
<g id="edge13" class="edge">
<title>theory:nFL&#45;&gt;theory:tolLoad</title>
<path fill="none" stroke="black" d="M426.58,-166.31C454.76,-167.06 480.5,-165.62 480.5,-162 480.5,-158.82 460.62,-157.32 436.67,-157.52"/>
<polygon fill="black" stroke="black" points="436.52,-154.02 426.58,-157.69 436.64,-161.02 436.52,-154.02"/>
</g>
<!-- theory&#45;&gt;theory -->
<g id="edge19" class="edge">
<title>theory:tolLoad&#45;&gt;theory:sdfTol</title>
<path fill="none" stroke="black" d="M426.74,-167.41C462.9,-169.05 498.5,-167.25 498.5,-162 498.5,-157.24 469.26,-155.31 436.87,-156.22"/>
<polygon fill="black" stroke="black" points="436.61,-152.72 426.74,-156.59 436.86,-159.72 436.61,-152.72"/>
</g>
<!-- theory&#45;&gt;theory -->
<g id="edge23" class="edge">
<title>theory:probBr&#45;&gt;theory:riskFun</title>
<path fill="none" stroke="black" d="M426.56,-168.33C470.48,-171.08 516.5,-168.97 516.5,-162 516.5,-155.56 477.22,-153.27 436.61,-155.12"/>
<polygon fill="black" stroke="black" points="436.36,-151.63 426.56,-155.67 436.74,-158.62 436.36,-151.63"/>
</g>
<!-- theory&#45;&gt;theory -->
<g id="edge25" class="edge">
<title>theory:lResistance&#45;&gt;theory:nFL</title>
<path fill="none" stroke="black" d="M426.53,-169.12C477.89,-173.12 534.5,-170.74 534.5,-162 534.5,-153.82 484.95,-151.22 436.51,-154.19"/>
<polygon fill="black" stroke="black" points="436.26,-150.7 426.53,-154.88 436.75,-157.68 436.26,-150.7"/>
</g>
<!-- theory&#45;&gt;theory -->
<g id="edge26" class="edge">
<title>theory:isSafePb&#45;&gt;theory:probBr</title>
<path fill="none" stroke="black" d="M426.89,-169.83C485.4,-175.14 552.5,-172.53 552.5,-162 552.5,-152.07 492.79,-149.18 436.9,-153.34"/>
<polygon fill="black" stroke="black" points="436.57,-149.86 426.89,-154.17 437.14,-156.83 436.57,-149.86"/>
</g>
<!-- theory&#45;&gt;theory -->
<g id="edge27" class="edge">
<title>theory:isSafePb&#45;&gt;theory:isSafeLR</title>
<path fill="none" stroke="black" d="M426.69,-170.41C492.33,-177.18 570.5,-174.38 570.5,-162 570.5,-150.25 500.07,-147.13 436.77,-152.63"/>
<polygon fill="black" stroke="black" points="436.31,-149.16 426.69,-153.59 436.97,-156.13 436.31,-149.16"/>
</g>
<!-- theory&#45;&gt;theory -->
<g id="edge29" class="edge">
<title>theory:isSafeLR&#45;&gt;theory:lResistance</title>
<path fill="none" stroke="black" d="M426.62,-170.93C499.23,-179.21 588.5,-176.24 588.5,-162 588.5,-148.43 507.41,-145.09 436.93,-151.98"/>
<polygon fill="black" stroke="black" points="436.19,-148.54 426.62,-153.07 436.93,-155.5 436.19,-148.54"/>
</g>
<!-- theory&#45;&gt;theory -->
<g id="edge30" class="edge">
<title>theory:isSafeLR&#45;&gt;theory:isSafePb</title>
<path fill="none" stroke="black" d="M426.65,-171.39C506.11,-181.24 606.5,-178.11 606.5,-162 606.5,-146.58 514.55,-143.05 436.99,-151.41"/>
<polygon fill="black" stroke="black" points="436.18,-147.98 426.65,-152.61 436.98,-154.93 436.18,-147.98"/>
</g>
<!-- minThick -->
<g id="node8" class="node">
<title>minThick</title>
<polygon fill="#bbffff" stroke="black" points="429,-108 320,-108 320,-72 429,-72 429,-108"/>
<text text-anchor="middle" x="374.5" y="-86.3" font-family="Times,serif" font-size="14.00">DD:minThick</text>
</g>
<!-- theory&#45;&gt;minThick -->
<g id="edge6" class="edge">
<title>theory:riskFun&#45;&gt;minThick</title>
<path fill="none" stroke="black" d="M356.75,-143.7C354.37,-135.98 353.69,-126.71 354.71,-118.11"/>
<polygon fill="black" stroke="black" points="358.19,-118.61 356.81,-108.1 351.34,-117.17 358.19,-118.61"/>
</g>
<!-- theory&#45;&gt;minThick -->
<g id="edge12" class="edge">
<title>theory:nFL&#45;&gt;minThick</title>
<path fill="none" stroke="black" d="M368.58,-143.7C367.79,-135.98 367.56,-126.71 367.9,-118.11"/>
<polygon fill="black" stroke="black" points="371.4,-118.32 368.6,-108.1 364.42,-117.84 371.4,-118.32"/>
</g>
<!-- theory&#45;&gt;minThick -->
<g id="edge15" class="edge">
<title>theory:dimlessLoad&#45;&gt;minThick</title>
<path fill="none" stroke="black" d="M380.42,-143.7C381.21,-135.98 381.44,-126.71 381.1,-118.11"/>
<polygon fill="black" stroke="black" points="384.58,-117.84 380.4,-108.1 377.6,-118.32 384.58,-117.84"/>
</g>
<!-- theory&#45;&gt;minThick -->
<g id="edge21" class="edge">
<title>theory:sdfTol&#45;&gt;minThick</title>
<path fill="none" stroke="black" d="M392.25,-143.7C394.63,-135.98 395.31,-126.71 394.29,-118.11"/>
<polygon fill="black" stroke="black" points="397.66,-117.17 392.19,-108.1 390.81,-118.61 397.66,-117.17"/>
</g>
<!-- aR -->
<g id="node9" class="node">
<title>aR</title>
<polygon fill="#bbffff" stroke="black" points="809.5,-108 681.5,-108 681.5,-72 809.5,-72 809.5,-108"/>
<text text-anchor="middle" x="745.5" y="-86.3" font-family="Times,serif" font-size="14.00">DD:aspectRatio</text>
</g>
<!-- theory&#45;&gt;aR -->
<g id="edge9" class="edge">
<title>theory:stressDistFac&#45;&gt;aR</title>
<path fill="none" stroke="black" d="M426.72,-150.96C483.8,-140.73 577.64,-124.12 658.5,-108 662.63,-107.18 666.88,-106.31 671.17,-105.42"/>
<polygon fill="black" stroke="black" points="672.17,-108.79 681.24,-103.32 670.74,-101.94 672.17,-108.79"/>
</g>
<!-- theory&#45;&gt;aR -->
<g id="edge18" class="edge">
<title>theory:tolLoad&#45;&gt;aR</title>
<path fill="none" stroke="black" d="M426.54,-153.24C484.83,-143.69 581.97,-126.67 671.42,-109"/>
<polygon fill="black" stroke="black" points="672.32,-112.39 681.44,-107.01 670.95,-105.52 672.32,-112.39"/>
</g>
<!-- glassTypeFac -->
<g id="node10" class="node">
<title>glassTypeFac</title>
<polygon fill="#bbffff" stroke="black" points="899,-108 828,-108 828,-72 899,-72 899,-108"/>
<text text-anchor="middle" x="863.5" y="-86.3" font-family="Times,serif" font-size="14.00">DD:gTF</text>
</g>
<!-- theory&#45;&gt;glassTypeFac -->
<g id="edge16" class="edge">
<title>theory:dimlessLoad&#45;&gt;glassTypeFac</title>
<path fill="none" stroke="black" d="M426.56,-158.56C508.95,-153.96 673.58,-141.26 809.5,-108 812.41,-107.29 815.38,-106.44 818.38,-105.51"/>
<polygon fill="black" stroke="black" points="819.55,-108.81 827.93,-102.33 817.33,-102.17 819.55,-108.81"/>
</g>
<!-- theory&#45;&gt;glassTypeFac -->
<g id="edge24" class="edge">
<title>theory:lResistance&#45;&gt;glassTypeFac</title>
<path fill="none" stroke="black" d="M426.59,-159.14C509.82,-155.17 677.27,-143.36 817.91,-110.3"/>
<polygon fill="black" stroke="black" points="819.08,-113.62 827.99,-107.88 817.45,-106.81 819.08,-113.62"/>
</g>
<!-- outputValsAndKnownValues -->
<g id="node11" class="node">
<title>outputValsAndKnownValues</title>
<polygon fill="ivory" stroke="black" points="717,-252 476,-252 476,-216 717,-216 717,-252"/>
<text text-anchor="middle" x="596.5" y="-230.3" font-family="Times,serif" font-size="14.00">FR:outputValsAndKnownValues</text>
</g>
<!-- inputValues -->
<g id="node12" class="node">
<title>inputValues</title>
<polygon fill="ivory" stroke="black" points="1129,-252 1004,-252 1004,-216 1129,-216 1129,-252"/>
<text text-anchor="middle" x="1066.5" y="-230.3" font-family="Times,serif" font-size="14.00">FR:inputValues</text>
</g>
<!-- outputValsAndKnownValues&#45;&gt;inputValues -->
<g id="edge31" class="edge">
<title>outputValsAndKnownValues&#45;&gt;inputValues</title>
<path fill="none" stroke="black" d="M652.26,-252.01C677.14,-259.14 706.99,-266.47 734.5,-270 845.15,-284.19 876.37,-293.16 985.5,-270 998.82,-267.17 1012.6,-262 1024.94,-256.45"/>
<polygon fill="black" stroke="black" points="1026.5,-259.58 1034.06,-252.15 1023.52,-253.24 1026.5,-259.58"/>
</g>
<!-- sysSetValsFollowingAssumps -->
<g id="node13" class="node">
<title>sysSetValsFollowingAssumps</title>
<polygon fill="ivory" stroke="black" points="986,-252 735,-252 735,-216 986,-216 986,-252"/>
<text text-anchor="middle" x="860.5" y="-230.3" font-family="Times,serif" font-size="14.00">FR:sysSetValsFollowingAssumps</text>
</g>
<!-- outputValsAndKnownValues&#45;&gt;sysSetValsFollowingAssumps -->
<g id="edge32" class="edge">
<title>outputValsAndKnownValues&#45;&gt;sysSetValsFollowingAssumps</title>
<path fill="none" stroke="black" d="M717.16,-234C719.64,-234 722.12,-234 724.6,-234"/>
<polygon fill="black" stroke="black" points="724.79,-237.5 734.79,-234 724.79,-230.5 724.79,-237.5"/>
</g>
<!-- checkGlassSafety -->
<g id="node14" class="node">
<title>checkGlassSafety</title>
<polygon fill="ivory" stroke="black" points="458,-252 291,-252 291,-216 458,-216 458,-252"/>
<text text-anchor="middle" x="374.5" y="-230.3" font-family="Times,serif" font-size="14.00">FR:checkGlassSafety</text>
</g>
<!-- checkGlassSafety&#45;&gt;theory -->
<g id="edge33" class="edge">
<title>checkGlassSafety&#45;&gt;theory:isSafePb</title>
<path fill="none" stroke="black" d="M368.58,-215.7C367.79,-207.98 367.56,-198.71 367.9,-190.11"/>
<polygon fill="black" stroke="black" points="371.4,-190.32 368.6,-180.1 364.42,-189.84 371.4,-190.32"/>
</g>
<!-- checkGlassSafety&#45;&gt;theory -->
<g id="edge34" class="edge">
<title>checkGlassSafety&#45;&gt;theory:isSafeLR</title>
<path fill="none" stroke="black" d="M380.42,-215.7C381.21,-207.98 381.44,-198.71 381.1,-190.11"/>
<polygon fill="black" stroke="black" points="384.58,-189.84 380.4,-180.1 377.6,-190.32 384.58,-189.84"/>
</g>
<!-- calcInternalBlastRisk -->
<g id="node15" class="node">
<title>calcInternalBlastRisk</title>
<polygon fill="lavender" stroke="black" points="1386,-108 1193,-108 1193,-72 1386,-72 1386,-108"/>
<text text-anchor="middle" x="1289.5" y="-86.3" font-family="Times,serif" font-size="14.00">LC:calcInternalBlastRisk</text>
</g>
<!-- assumpES -->
<g id="node16" class="node">
<title>assumpES</title>
<polygon fill="mistyrose" stroke="black" points="1342.5,-36 1236.5,-36 1236.5,0 1342.5,0 1342.5,-36"/>
<text text-anchor="middle" x="1289.5" y="-14.3" font-family="Times,serif" font-size="14.00">A:assumpES</text>
</g>
<!-- calcInternalBlastRisk&#45;&gt;assumpES -->
<g id="edge35" class="edge">
<title>calcInternalBlastRisk&#45;&gt;assumpES</title>
<path fill="none" stroke="black" d="M1289.5,-71.7C1289.5,-63.98 1289.5,-54.71 1289.5,-46.11"/>
<polygon fill="black" stroke="black" points="1293,-46.1 1289.5,-36.1 1286,-46.1 1293,-46.1"/>
</g>
<!-- varValsOfmkE -->
<g id="node17" class="node">
<title>varValsOfmkE</title>
<polygon fill="lavender" stroke="black" points="589.5,-108 447.5,-108 447.5,-72 589.5,-72 589.5,-108"/>
<text text-anchor="middle" x="518.5" y="-86.3" font-family="Times,serif" font-size="14.00">LC:varValsOfmkE</text>
</g>
<!-- varValsOfmkE&#45;&gt;assumpLDFC -->
<g id="edge37" class="edge">
<title>varValsOfmkE&#45;&gt;assumpLDFC</title>
<path fill="none" stroke="black" d="M514.3,-71.7C512.4,-63.9 510.12,-54.51 508.02,-45.83"/>
<polygon fill="black" stroke="black" points="511.42,-45 505.65,-36.1 504.61,-46.65 511.42,-45"/>
</g>
<!-- varValsOfmkE&#45;&gt;assumpSV -->
<g id="edge36" class="edge">
<title>varValsOfmkE&#45;&gt;assumpSV</title>
<path fill="none" stroke="black" d="M547.12,-71.88C562.42,-62.72 581.44,-51.34 597.92,-41.48"/>
<polygon fill="black" stroke="black" points="599.98,-44.33 606.77,-36.19 596.39,-38.32 599.98,-44.33"/>
</g>
<!-- accMoreThanSingleLite -->
<g id="node18" class="node">
<title>accMoreThanSingleLite</title>
<polygon fill="lavender" stroke="black" points="1613,-108 1404,-108 1404,-72 1613,-72 1613,-108"/>
<text text-anchor="middle" x="1508.5" y="-86.3" font-family="Times,serif" font-size="14.00">LC:accMoreThanSingleLite</text>
</g>
<!-- assumpGL -->
<g id="node19" class="node">
<title>assumpGL</title>
<polygon fill="mistyrose" stroke="black" points="1561.5,-36 1455.5,-36 1455.5,0 1561.5,0 1561.5,-36"/>
<text text-anchor="middle" x="1508.5" y="-14.3" font-family="Times,serif" font-size="14.00">A:assumpGL</text>
</g>
<!-- accMoreThanSingleLite&#45;&gt;assumpGL -->
<g id="edge38" class="edge">
<title>accMoreThanSingleLite&#45;&gt;assumpGL</title>
<path fill="none" stroke="black" d="M1508.5,-71.7C1508.5,-63.98 1508.5,-54.71 1508.5,-46.11"/>
<polygon fill="black" stroke="black" points="1512,-46.1 1508.5,-36.1 1505,-46.1 1512,-46.1"/>
</g>
<!-- accMoreBoundaryConditions -->
<g id="node20" class="node">
<title>accMoreBoundaryConditions</title>
<polygon fill="lavender" stroke="black" points="1878,-108 1631,-108 1631,-72 1878,-72 1878,-108"/>
<text text-anchor="middle" x="1754.5" y="-86.3" font-family="Times,serif" font-size="14.00">LC:accMoreBoundaryConditions</text>
</g>
<!-- assumpBC -->
<g id="node21" class="node">
<title>assumpBC</title>
<polygon fill="mistyrose" stroke="black" points="1808,-36 1701,-36 1701,0 1808,0 1808,-36"/>
<text text-anchor="middle" x="1754.5" y="-14.3" font-family="Times,serif" font-size="14.00">A:assumpBC</text>
</g>
<!-- accMoreBoundaryConditions&#45;&gt;assumpBC -->
<g id="edge39" class="edge">
<title>accMoreBoundaryConditions&#45;&gt;assumpBC</title>
<path fill="none" stroke="black" d="M1754.5,-71.7C1754.5,-63.98 1754.5,-54.71 1754.5,-46.11"/>
<polygon fill="black" stroke="black" points="1758,-46.1 1754.5,-36.1 1751,-46.1 1758,-46.1"/>
</g>
<!-- considerMoreThanFlexGlass -->
<g id="node22" class="node">
<title>considerMoreThanFlexGlass</title>
<polygon fill="lavender" stroke="black" points="2140.5,-108 1896.5,-108 1896.5,-72 2140.5,-72 2140.5,-108"/>
<text text-anchor="middle" x="2018.5" y="-86.3" font-family="Times,serif" font-size="14.00">LC:considerMoreThanFlexGlass</text>
</g>
<!-- assumpRT -->
<g id="node23" class="node">
<title>assumpRT</title>
<polygon fill="mistyrose" stroke="black" points="2071,-36 1966,-36 1966,0 2071,0 2071,-36"/>
<text text-anchor="middle" x="2018.5" y="-14.3" font-family="Times,serif" font-size="14.00">A:assumpRT</text>
</g>
<!-- considerMoreThanFlexGlass&#45;&gt;assumpRT -->
<g id="edge40" class="edge">
<title>considerMoreThanFlexGlass&#45;&gt;assumpRT</title>
<path fill="none" stroke="black" d="M2018.5,-71.7C2018.5,-63.98 2018.5,-54.71 2018.5,-46.11"/>
<polygon fill="black" stroke="black" points="2022,-46.1 2018.5,-36.1 2015,-46.1 2022,-46.1"/>
</g>
<!-- accAlteredGlass -->
<g id="node24" class="node">
<title>accAlteredGlass</title>
<polygon fill="lavender" stroke="black" points="2316.5,-108 2158.5,-108 2158.5,-72 2316.5,-72 2316.5,-108"/>
<text text-anchor="middle" x="2237.5" y="-86.3" font-family="Times,serif" font-size="14.00">UC:accAlteredGlass</text>
</g>
<!-- assumpGC -->
<g id="node25" class="node">
<title>assumpGC</title>
<polygon fill="mistyrose" stroke="black" points="2291,-36 2184,-36 2184,0 2291,0 2291,-36"/>
<text text-anchor="middle" x="2237.5" y="-14.3" font-family="Times,serif" font-size="14.00">A:assumpGC</text>
</g>
<!-- accAlteredGlass&#45;&gt;assumpGC -->
<g id="edge41" class="edge">
<title>accAlteredGlass&#45;&gt;assumpGC</title>
<path fill="none" stroke="black" d="M2237.5,-71.7C2237.5,-63.98 2237.5,-54.71 2237.5,-46.11"/>
<polygon fill="black" stroke="black" points="2241,-46.1 2237.5,-36.1 2234,-46.1 2241,-46.1"/>
</g>
<!-- assumpGT -->
<g id="node26" class="node">
<title>assumpGT</title>
<polygon fill="mistyrose" stroke="black" points="2415.5,-36 2309.5,-36 2309.5,0 2415.5,0 2415.5,-36"/>
<text text-anchor="middle" x="2362.5" y="-14.3" font-family="Times,serif" font-size="14.00">A:assumpGT</text>
</g>
<!-- checkInputWithDataCons -->
<g id="node27" class="node">
<title>checkInputWithDataCons</title>
<polygon fill="ivory" stroke="black" points="1370,-252 1147,-252 1147,-216 1370,-216 1370,-252"/>
<text text-anchor="middle" x="1258.5" y="-230.3" font-family="Times,serif" font-size="14.00">FR:checkInputWithDataCons</text>
</g>
<!-- outputValues -->
<g id="node28" class="node">
<title>outputValues</title>
<polygon fill="ivory" stroke="black" points="1523,-252 1388,-252 1388,-216 1523,-216 1523,-252"/>
<text text-anchor="middle" x="1455.5" y="-230.3" font-family="Times,serif" font-size="14.00">FR:outputValues</text>
</g>
<!-- correct -->
<g id="node29" class="node">
<title>correct</title>
<polygon fill="ivory" stroke="black" points="1645.5,-252 1541.5,-252 1541.5,-216 1645.5,-216 1645.5,-252"/>
<text text-anchor="middle" x="1593.5" y="-230.3" font-family="Times,serif" font-size="14.00">NFR:correct</text>
</g>
<!-- verifiable -->
<g id="node30" class="node">
<title>verifiable</title>
<polygon fill="ivory" stroke="black" points="1783.5,-252 1663.5,-252 1663.5,-216 1783.5,-216 1783.5,-252"/>
<text text-anchor="middle" x="1723.5" y="-230.3" font-family="Times,serif" font-size="14.00">NFR:verifiable</text>
</g>
<!-- understandable -->
<g id="node31" class="node">
<title>understandable</title>
<polygon fill="ivory" stroke="black" points="1967,-252 1802,-252 1802,-216 1967,-216 1967,-252"/>
<text text-anchor="middle" x="1884.5" y="-230.3" font-family="Times,serif" font-size="14.00">NFR:understandable</text>
</g>
<!-- reusable -->
<g id="node32" class="node">
<title>reusable</title>
<polygon fill="ivory" stroke="black" points="2100,-252 1985,-252 1985,-216 2100,-216 2100,-252"/>
<text text-anchor="middle" x="2042.5" y="-230.3" font-family="Times,serif" font-size="14.00">NFR:reusable</text>
</g>
<!-- maintainable -->
<g id="node33" class="node">
<title>maintainable</title>
<polygon fill="ivory" stroke="black" points="2264.5,-252 2118.5,-252 2118.5,-216 2264.5,-216 2264.5,-252"/>
<text text-anchor="middle" x="2191.5" y="-230.3" font-family="Times,serif" font-size="14.00">NFR:maintainable</text>
</g>
<!-- portable -->
<g id="node34" class="node">
<title>portable</title>
<polygon fill="ivory" stroke="black" points="2396,-252 2283,-252 2283,-216 2396,-216 2396,-252"/>
<text text-anchor="middle" x="2339.5" y="-230.3" font-family="Times,serif" font-size="14.00">NFR:portable</text>
</g>
<!-- willBreakGS -->
<g id="node35" class="node">
<title>willBreakGS</title>
<polygon fill="#ffb90f" stroke="black" points="2545,-252 2414,-252 2414,-216 2545,-216 2545,-252"/>
<text text-anchor="middle" x="2479.5" y="-230.3" font-family="Times,serif" font-size="14.00">GS:willBreakGS</text>
</g>
<!-- predictWithstandOfCertDeg -->
<g id="node36" class="node">
<title>predictWithstandOfCertDeg</title>
<polygon fill="lavender" stroke="black" points="2580,-108 2335,-108 2335,-72 2580,-72 2580,-108"/>
<text text-anchor="middle" x="2457.5" y="-86.3" font-family="Times,serif" font-size="14.00">UC:predictWithstandOfCertDeg</text>
</g>
</g>
</svg>
