<?xml version="1.0" encoding="UTF-8" standalone="no"?>
<!DOCTYPE svg PUBLIC "-//W3C//DTD SVG 1.1//EN"
 "http://www.w3.org/Graphics/SVG/1.1/DTD/svg11.dtd">
<!-- Generated by graphviz version 2.43.0 (0)
 -->
<!-- Title: allvsr Pages: 1 -->
<svg width="4516pt" height="149pt"
 viewBox="0.00 0.00 4516.00 148.57" xmlns="http://www.w3.org/2000/svg" xmlns:xlink="http://www.w3.org/1999/xlink">
<g id="graph0" class="graph" transform="scale(1 1) rotate(0) translate(4 144.57)">
<title>allvsr</title>
<polygon fill="white" stroke="transparent" points="-4,4 -4,-144.57 4512,-144.57 4512,4 -4,4"/>
<!-- outputValsAndKnownValues -->
<g id="node1" class="node">
<title>outputValsAndKnownValues</title>
<polygon fill="ivory" stroke="black" points="241,-108 0,-108 0,-72 241,-72 241,-108"/>
<text text-anchor="middle" x="120.5" y="-86.3" font-family="Times,serif" font-size="14.00">FR:outputValsAndKnownValues</text>
</g>
<!-- inputValues -->
<g id="node2" class="node">
<title>inputValues</title>
<polygon fill="ivory" stroke="black" points="653,-108 528,-108 528,-72 653,-72 653,-108"/>
<text text-anchor="middle" x="590.5" y="-86.3" font-family="Times,serif" font-size="14.00">FR:inputValues</text>
</g>
<!-- outputValsAndKnownValues&#45;&gt;inputValues -->
<g id="edge1" class="edge">
<title>outputValsAndKnownValues&#45;&gt;inputValues</title>
<path fill="none" stroke="black" d="M176.26,-108.01C201.14,-115.14 230.99,-122.47 258.5,-126 369.15,-140.19 400.37,-149.16 509.5,-126 522.82,-123.17 536.6,-118 548.94,-112.45"/>
<polygon fill="black" stroke="black" points="550.5,-115.58 558.06,-108.15 547.52,-109.24 550.5,-115.58"/>
</g>
<!-- sysSetValsFollowingAssumps -->
<g id="node3" class="node">
<title>sysSetValsFollowingAssumps</title>
<polygon fill="ivory" stroke="black" points="510,-108 259,-108 259,-72 510,-72 510,-108"/>
<text text-anchor="middle" x="384.5" y="-86.3" font-family="Times,serif" font-size="14.00">FR:sysSetValsFollowingAssumps</text>
</g>
<!-- outputValsAndKnownValues&#45;&gt;sysSetValsFollowingAssumps -->
<g id="edge2" class="edge">
<title>outputValsAndKnownValues&#45;&gt;sysSetValsFollowingAssumps</title>
<path fill="none" stroke="black" d="M241.16,-90C243.64,-90 246.12,-90 248.6,-90"/>
<polygon fill="black" stroke="black" points="248.79,-93.5 258.79,-90 248.79,-86.5 248.79,-93.5"/>
</g>
<!-- checkGlassSafety -->
<g id="node4" class="node">
<title>checkGlassSafety</title>
<polygon fill="ivory" stroke="black" points="838,-108 671,-108 671,-72 838,-72 838,-108"/>
<text text-anchor="middle" x="754.5" y="-86.3" font-family="Times,serif" font-size="14.00">FR:checkGlassSafety</text>
</g>
<!-- isSafePb -->
<g id="node5" class="node">
<title>isSafePb</title>
<polygon fill="#fff68f" stroke="black" points="745,-36 642,-36 642,0 745,0 745,-36"/>
<text text-anchor="middle" x="693.5" y="-14.3" font-family="Times,serif" font-size="14.00">IM:isSafePb</text>
</g>
<!-- checkGlassSafety&#45;&gt;isSafePb -->
<g id="edge3" class="edge">
<title>checkGlassSafety&#45;&gt;isSafePb</title>
<path fill="none" stroke="black" d="M739.42,-71.7C732.11,-63.3 723.19,-53.07 715.16,-43.86"/>
<polygon fill="black" stroke="black" points="717.61,-41.34 708.41,-36.1 712.34,-45.94 717.61,-41.34"/>
</g>
<!-- isSafeLR -->
<g id="node6" class="node">
<title>isSafeLR</title>
<polygon fill="#fff68f" stroke="black" points="867.5,-36 763.5,-36 763.5,0 867.5,0 867.5,-36"/>
<text text-anchor="middle" x="815.5" y="-14.3" font-family="Times,serif" font-size="14.00">IM:isSafeLR</text>
</g>
<!-- checkGlassSafety&#45;&gt;isSafeLR -->
<g id="edge4" class="edge">
<title>checkGlassSafety&#45;&gt;isSafeLR</title>
<path fill="none" stroke="black" d="M769.58,-71.7C776.89,-63.3 785.81,-53.07 793.84,-43.86"/>
<polygon fill="black" stroke="black" points="796.66,-45.94 800.59,-36.1 791.39,-41.34 796.66,-45.94"/>
</g>
<!-- assumpGT -->
<g id="node7" class="node">
<title>assumpGT</title>
<polygon fill="mistyrose" stroke="black" points="961.5,-108 855.5,-108 855.5,-72 961.5,-72 961.5,-108"/>
<text text-anchor="middle" x="908.5" y="-86.3" font-family="Times,serif" font-size="14.00">A:assumpGT</text>
</g>
<!-- assumpGC -->
<g id="node8" class="node">
<title>assumpGC</title>
<polygon fill="mistyrose" stroke="black" points="1087,-108 980,-108 980,-72 1087,-72 1087,-108"/>
<text text-anchor="middle" x="1033.5" y="-86.3" font-family="Times,serif" font-size="14.00">A:assumpGC</text>
</g>
<!-- assumpES -->
<g id="node9" class="node">
<title>assumpES</title>
<polygon fill="mistyrose" stroke="black" points="1211.5,-108 1105.5,-108 1105.5,-72 1211.5,-72 1211.5,-108"/>
<text text-anchor="middle" x="1158.5" y="-86.3" font-family="Times,serif" font-size="14.00">A:assumpES</text>
</g>
<!-- assumpSV -->
<g id="node10" class="node">
<title>assumpSV</title>
<polygon fill="mistyrose" stroke="black" points="1335,-108 1230,-108 1230,-72 1335,-72 1335,-108"/>
<text text-anchor="middle" x="1282.5" y="-86.3" font-family="Times,serif" font-size="14.00">A:assumpSV</text>
</g>
<!-- assumpGL -->
<g id="node11" class="node">
<title>assumpGL</title>
<polygon fill="mistyrose" stroke="black" points="1459.5,-108 1353.5,-108 1353.5,-72 1459.5,-72 1459.5,-108"/>
<text text-anchor="middle" x="1406.5" y="-86.3" font-family="Times,serif" font-size="14.00">A:assumpGL</text>
</g>
<!-- assumpBC -->
<g id="node12" class="node">
<title>assumpBC</title>
<polygon fill="mistyrose" stroke="black" points="1585,-108 1478,-108 1478,-72 1585,-72 1585,-108"/>
<text text-anchor="middle" x="1531.5" y="-86.3" font-family="Times,serif" font-size="14.00">A:assumpBC</text>
</g>
<!-- assumpRT -->
<g id="node13" class="node">
<title>assumpRT</title>
<polygon fill="mistyrose" stroke="black" points="1708,-108 1603,-108 1603,-72 1708,-72 1708,-108"/>
<text text-anchor="middle" x="1655.5" y="-86.3" font-family="Times,serif" font-size="14.00">A:assumpRT</text>
</g>
<!-- assumpLDFC -->
<g id="node14" class="node">
<title>assumpLDFC</title>
<polygon fill="mistyrose" stroke="black" points="1852.5,-108 1726.5,-108 1726.5,-72 1852.5,-72 1852.5,-108"/>
<text text-anchor="middle" x="1789.5" y="-86.3" font-family="Times,serif" font-size="14.00">A:assumpLDFC</text>
</g>
<!-- minThick -->
<g id="node15" class="node">
<title>minThick</title>
<polygon fill="#bbffff" stroke="black" points="1980,-108 1871,-108 1871,-72 1980,-72 1980,-108"/>
<text text-anchor="middle" x="1925.5" y="-86.3" font-family="Times,serif" font-size="14.00">DD:minThick</text>
</g>
<!-- loadDurFactor -->
<g id="node16" class="node">
<title>loadDurFactor</title>
<polygon fill="#bbffff" stroke="black" points="2144.5,-108 1998.5,-108 1998.5,-72 2144.5,-72 2144.5,-108"/>
<text text-anchor="middle" x="2071.5" y="-86.3" font-family="Times,serif" font-size="14.00">DD:loadDurFactor</text>
</g>
<!-- glassTypeFac -->
<g id="node17" class="node">
<title>glassTypeFac</title>
<polygon fill="#bbffff" stroke="black" points="2234,-108 2163,-108 2163,-72 2234,-72 2234,-108"/>
<text text-anchor="middle" x="2198.5" y="-86.3" font-family="Times,serif" font-size="14.00">DD:gTF</text>
</g>
<!-- stdOffDist -->
<g id="node18" class="node">
<title>stdOffDist</title>
<polygon fill="#bbffff" stroke="black" points="2386.5,-108 2252.5,-108 2252.5,-72 2386.5,-72 2386.5,-108"/>
<text text-anchor="middle" x="2319.5" y="-86.3" font-family="Times,serif" font-size="14.00">DD:standOffDist</text>
</g>
<!-- aR -->
<g id="node19" class="node">
<title>aR</title>
<polygon fill="#bbffff" stroke="black" points="2532.5,-108 2404.5,-108 2404.5,-72 2532.5,-72 2532.5,-108"/>
<text text-anchor="middle" x="2468.5" y="-86.3" font-family="Times,serif" font-size="14.00">DD:aspectRatio</text>
</g>
<!-- eqTNTChar -->
<g id="node20" class="node">
<title>eqTNTChar</title>
<polygon fill="#bbffff" stroke="black" points="2656,-108 2551,-108 2551,-72 2656,-72 2656,-108"/>
<text text-anchor="middle" x="2603.5" y="-86.3" font-family="Times,serif" font-size="14.00">DD:eqTNTW</text>
</g>
<!-- demandq -->
<g id="node21" class="node">
<title>demandq</title>
<polygon fill="#bbffff" stroke="black" points="2811,-108 2674,-108 2674,-72 2811,-72 2811,-108"/>
<text text-anchor="middle" x="2742.5" y="-86.3" font-family="Times,serif" font-size="14.00">DD:calofDemand</text>
</g>
<!-- isSafeProb -->
<g id="node22" class="node">
<title>isSafeProb</title>
<polygon fill="pink" stroke="black" points="2951.5,-108 2829.5,-108 2829.5,-72 2951.5,-72 2951.5,-108"/>
<text text-anchor="middle" x="2890.5" y="-86.3" font-family="Times,serif" font-size="14.00">TM:isSafeProb</text>
</g>
<!-- isSafeLoad -->
<g id="node23" class="node">
<title>isSafeLoad</title>
<polygon fill="pink" stroke="black" points="3091.5,-108 2969.5,-108 2969.5,-72 3091.5,-72 3091.5,-108"/>
<text text-anchor="middle" x="3030.5" y="-86.3" font-family="Times,serif" font-size="14.00">TM:isSafeLoad</text>
</g>
<!-- riskFun -->
<g id="node24" class="node">
<title>riskFun</title>
<polygon fill="#fff68f" stroke="black" points="981,-36 886,-36 886,0 981,0 981,-36"/>
<text text-anchor="middle" x="933.5" y="-14.3" font-family="Times,serif" font-size="14.00">IM:riskFun</text>
</g>
<!-- stressDistFac -->
<g id="node25" class="node">
<title>stressDistFac</title>
<polygon fill="#fff68f" stroke="black" points="1137.5,-36 999.5,-36 999.5,0 1137.5,0 1137.5,-36"/>
<text text-anchor="middle" x="1068.5" y="-14.3" font-family="Times,serif" font-size="14.00">IM:stressDistFac</text>
</g>
<!-- nFL -->
<g id="node26" class="node">
<title>nFL</title>
<polygon fill="#fff68f" stroke="black" points="1223.5,-36 1155.5,-36 1155.5,0 1223.5,0 1223.5,-36"/>
<text text-anchor="middle" x="1189.5" y="-14.3" font-family="Times,serif" font-size="14.00">IM:nFL</text>
</g>
<!-- dimlessLoad -->
<g id="node27" class="node">
<title>dimlessLoad</title>
<polygon fill="#fff68f" stroke="black" points="1371.5,-36 1241.5,-36 1241.5,0 1371.5,0 1371.5,-36"/>
<text text-anchor="middle" x="1306.5" y="-14.3" font-family="Times,serif" font-size="14.00">IM:dimlessLoad</text>
</g>
<!-- tolLoad -->
<g id="node28" class="node">
<title>tolLoad</title>
<polygon fill="#fff68f" stroke="black" points="1483.5,-36 1389.5,-36 1389.5,0 1483.5,0 1483.5,-36"/>
<text text-anchor="middle" x="1436.5" y="-14.3" font-family="Times,serif" font-size="14.00">IM:tolLoad</text>
</g>
<!-- sdfTol -->
<g id="node29" class="node">
<title>sdfTol</title>
<polygon fill="#fff68f" stroke="black" points="1585,-36 1502,-36 1502,0 1585,0 1585,-36"/>
<text text-anchor="middle" x="1543.5" y="-14.3" font-family="Times,serif" font-size="14.00">IM:sdfTol</text>
</g>
<!-- probBr -->
<g id="node30" class="node">
<title>probBr</title>
<polygon fill="#fff68f" stroke="black" points="1735.5,-36 1603.5,-36 1603.5,0 1735.5,0 1735.5,-36"/>
<text text-anchor="middle" x="1669.5" y="-14.3" font-family="Times,serif" font-size="14.00">IM:probOfBreak</text>
</g>
<!-- lResistance -->
<g id="node31" class="node">
<title>lResistance</title>
<polygon fill="#fff68f" stroke="black" points="1891,-36 1754,-36 1754,0 1891,0 1891,-36"/>
<text text-anchor="middle" x="1822.5" y="-14.3" font-family="Times,serif" font-size="14.00">IM:calofCapacity</text>
</g>
<!-- checkInputWithDataCons -->
<g id="node32" class="node">
<title>checkInputWithDataCons</title>
<polygon fill="ivory" stroke="black" points="3333,-108 3110,-108 3110,-72 3333,-72 3333,-108"/>
<text text-anchor="middle" x="3221.5" y="-86.3" font-family="Times,serif" font-size="14.00">FR:checkInputWithDataCons</text>
</g>
<!-- outputValues -->
<g id="node33" class="node">
<title>outputValues</title>
<polygon fill="ivory" stroke="black" points="3486,-108 3351,-108 3351,-72 3486,-72 3486,-108"/>
<text text-anchor="middle" x="3418.5" y="-86.3" font-family="Times,serif" font-size="14.00">FR:outputValues</text>
</g>
<!-- correct -->
<g id="node34" class="node">
<title>correct</title>
<polygon fill="ivory" stroke="black" points="3608.5,-108 3504.5,-108 3504.5,-72 3608.5,-72 3608.5,-108"/>
<text text-anchor="middle" x="3556.5" y="-86.3" font-family="Times,serif" font-size="14.00">NFR:correct</text>
</g>
<!-- verifiable -->
<g id="node35" class="node">
<title>verifiable</title>
<polygon fill="ivory" stroke="black" points="3746.5,-108 3626.5,-108 3626.5,-72 3746.5,-72 3746.5,-108"/>
<text text-anchor="middle" x="3686.5" y="-86.3" font-family="Times,serif" font-size="14.00">NFR:verifiable</text>
</g>
<!-- understandable -->
<g id="node36" class="node">
<title>understandable</title>
<polygon fill="ivory" stroke="black" points="3930,-108 3765,-108 3765,-72 3930,-72 3930,-108"/>
<text text-anchor="middle" x="3847.5" y="-86.3" font-family="Times,serif" font-size="14.00">NFR:understandable</text>
</g>
<!-- reusable -->
<g id="node37" class="node">
<title>reusable</title>
<polygon fill="ivory" stroke="black" points="4063,-108 3948,-108 3948,-72 4063,-72 4063,-108"/>
<text text-anchor="middle" x="4005.5" y="-86.3" font-family="Times,serif" font-size="14.00">NFR:reusable</text>
</g>
<!-- maintainable -->
<g id="node38" class="node">
<title>maintainable</title>
<polygon fill="ivory" stroke="black" points="4227.5,-108 4081.5,-108 4081.5,-72 4227.5,-72 4227.5,-108"/>
<text text-anchor="middle" x="4154.5" y="-86.3" font-family="Times,serif" font-size="14.00">NFR:maintainable</text>
</g>
<!-- portable -->
<g id="node39" class="node">
<title>portable</title>
<polygon fill="ivory" stroke="black" points="4359,-108 4246,-108 4246,-72 4359,-72 4359,-108"/>
<text text-anchor="middle" x="4302.5" y="-86.3" font-family="Times,serif" font-size="14.00">NFR:portable</text>
</g>
<!-- willBreakGS -->
<g id="node40" class="node">
<title>willBreakGS</title>
<polygon fill="#ffb90f" stroke="black" points="4508,-108 4377,-108 4377,-72 4508,-72 4508,-108"/>
<text text-anchor="middle" x="4442.5" y="-86.3" font-family="Times,serif" font-size="14.00">GS:willBreakGS</text>
</g>
</g>
</svg>
