<?xml version="1.0" encoding="UTF-8" standalone="no"?>
<!DOCTYPE svg PUBLIC "-//W3C//DTD SVG 1.1//EN"
 "http://www.w3.org/Graphics/SVG/1.1/DTD/svg11.dtd">
<!-- Generated by graphviz version 2.43.0 (0)
 -->
<!-- Title: allvsr Pages: 1 -->
<svg width="5525pt" height="149pt"
 viewBox="0.00 0.00 5525.00 148.57" xmlns="http://www.w3.org/2000/svg" xmlns:xlink="http://www.w3.org/1999/xlink">
<g id="graph0" class="graph" transform="scale(1 1) rotate(0) translate(4 144.57)">
<title>allvsr</title>
<polygon fill="white" stroke="transparent" points="-4,4 -4,-144.57 5521,-144.57 5521,4 -4,4"/>
<!-- outputValsAndKnownValues -->
<g id="node1" class="node">
<title>outputValsAndKnownValues</title>
<polygon fill="ivory" stroke="black" points="241,-108 0,-108 0,-72 241,-72 241,-108"/>
<text text-anchor="middle" x="120.5" y="-86.3" font-family="Times,serif" font-size="14.00">FR:outputValsAndKnownValues</text>
</g>
<!-- inputValues -->
<g id="node2" class="node">
<title>inputValues</title>
<polygon fill="ivory" stroke="black" points="653,-108 528,-108 528,-72 653,-72 653,-108"/>
<text text-anchor="middle" x="590.5" y="-86.3" font-family="Times,serif" font-size="14.00">FR:inputValues</text>
</g>
<!-- outputValsAndKnownValues&#45;&gt;inputValues -->
<g id="edge1" class="edge">
<title>outputValsAndKnownValues&#45;&gt;inputValues</title>
<path fill="none" stroke="black" d="M176.26,-108.01C201.14,-115.14 230.99,-122.47 258.5,-126 369.15,-140.19 400.37,-149.16 509.5,-126 522.82,-123.17 536.6,-118 548.94,-112.45"/>
<polygon fill="black" stroke="black" points="550.5,-115.58 558.06,-108.15 547.52,-109.24 550.5,-115.58"/>
</g>
<!-- sysSetValsFollowingAssumps -->
<g id="node3" class="node">
<title>sysSetValsFollowingAssumps</title>
<polygon fill="ivory" stroke="black" points="510,-108 259,-108 259,-72 510,-72 510,-108"/>
<text text-anchor="middle" x="384.5" y="-86.3" font-family="Times,serif" font-size="14.00">FR:sysSetValsFollowingAssumps</text>
</g>
<!-- outputValsAndKnownValues&#45;&gt;sysSetValsFollowingAssumps -->
<g id="edge2" class="edge">
<title>outputValsAndKnownValues&#45;&gt;sysSetValsFollowingAssumps</title>
<path fill="none" stroke="black" d="M241.16,-90C243.64,-90 246.12,-90 248.6,-90"/>
<polygon fill="black" stroke="black" points="248.79,-93.5 258.79,-90 248.79,-86.5 248.79,-93.5"/>
</g>
<!-- checkGlassSafety -->
<g id="node4" class="node">
<title>checkGlassSafety</title>
<polygon fill="ivory" stroke="black" points="838,-108 671,-108 671,-72 838,-72 838,-108"/>
<text text-anchor="middle" x="754.5" y="-86.3" font-family="Times,serif" font-size="14.00">FR:checkGlassSafety</text>
</g>
<!-- isSafeProb -->
<g id="node5" class="node">
<title>isSafeProb</title>
<polygon fill="pink" stroke="black" points="745.5,-36 623.5,-36 623.5,0 745.5,0 745.5,-36"/>
<text text-anchor="middle" x="684.5" y="-14.3" font-family="Times,serif" font-size="14.00">TM:isSafeProb</text>
</g>
<!-- checkGlassSafety&#45;&gt;isSafeProb -->
<g id="edge3" class="edge">
<title>checkGlassSafety&#45;&gt;isSafeProb</title>
<path fill="none" stroke="black" d="M737.2,-71.7C728.64,-63.14 718.16,-52.66 708.8,-43.3"/>
<polygon fill="black" stroke="black" points="711.15,-40.7 701.6,-36.1 706.2,-45.65 711.15,-40.7"/>
</g>
<!-- isSafeLoad -->
<g id="node6" class="node">
<title>isSafeLoad</title>
<polygon fill="pink" stroke="black" points="885.5,-36 763.5,-36 763.5,0 885.5,0 885.5,-36"/>
<text text-anchor="middle" x="824.5" y="-14.3" font-family="Times,serif" font-size="14.00">TM:isSafeLoad</text>
</g>
<!-- checkGlassSafety&#45;&gt;isSafeLoad -->
<g id="edge4" class="edge">
<title>checkGlassSafety&#45;&gt;isSafeLoad</title>
<path fill="none" stroke="black" d="M771.8,-71.7C780.36,-63.14 790.84,-52.66 800.2,-43.3"/>
<polygon fill="black" stroke="black" points="802.8,-45.65 807.4,-36.1 797.85,-40.7 802.8,-45.65"/>
</g>
<!-- assumpGT -->
<g id="node7" class="node">
<title>assumpGT</title>
<polygon fill="mistyrose" stroke="black" points="961.5,-108 855.5,-108 855.5,-72 961.5,-72 961.5,-108"/>
<text text-anchor="middle" x="908.5" y="-86.3" font-family="Times,serif" font-size="14.00">A:assumpGT</text>
</g>
<!-- assumpGC -->
<g id="node8" class="node">
<title>assumpGC</title>
<polygon fill="mistyrose" stroke="black" points="1087,-108 980,-108 980,-72 1087,-72 1087,-108"/>
<text text-anchor="middle" x="1033.5" y="-86.3" font-family="Times,serif" font-size="14.00">A:assumpGC</text>
</g>
<!-- assumpES -->
<g id="node9" class="node">
<title>assumpES</title>
<polygon fill="mistyrose" stroke="black" points="1211.5,-108 1105.5,-108 1105.5,-72 1211.5,-72 1211.5,-108"/>
<text text-anchor="middle" x="1158.5" y="-86.3" font-family="Times,serif" font-size="14.00">A:assumpES</text>
</g>
<!-- assumpSV -->
<g id="node10" class="node">
<title>assumpSV</title>
<polygon fill="mistyrose" stroke="black" points="1335,-108 1230,-108 1230,-72 1335,-72 1335,-108"/>
<text text-anchor="middle" x="1282.5" y="-86.3" font-family="Times,serif" font-size="14.00">A:assumpSV</text>
</g>
<!-- assumpGL -->
<g id="node11" class="node">
<title>assumpGL</title>
<polygon fill="mistyrose" stroke="black" points="1459.5,-108 1353.5,-108 1353.5,-72 1459.5,-72 1459.5,-108"/>
<text text-anchor="middle" x="1406.5" y="-86.3" font-family="Times,serif" font-size="14.00">A:assumpGL</text>
</g>
<!-- assumpBC -->
<g id="node12" class="node">
<title>assumpBC</title>
<polygon fill="mistyrose" stroke="black" points="1585,-108 1478,-108 1478,-72 1585,-72 1585,-108"/>
<text text-anchor="middle" x="1531.5" y="-86.3" font-family="Times,serif" font-size="14.00">A:assumpBC</text>
</g>
<!-- assumpRT -->
<g id="node13" class="node">
<title>assumpRT</title>
<polygon fill="mistyrose" stroke="black" points="1708,-108 1603,-108 1603,-72 1708,-72 1708,-108"/>
<text text-anchor="middle" x="1655.5" y="-86.3" font-family="Times,serif" font-size="14.00">A:assumpRT</text>
</g>
<!-- assumpLDFC -->
<g id="node14" class="node">
<title>assumpLDFC</title>
<polygon fill="mistyrose" stroke="black" points="1852.5,-108 1726.5,-108 1726.5,-72 1852.5,-72 1852.5,-108"/>
<text text-anchor="middle" x="1789.5" y="-86.3" font-family="Times,serif" font-size="14.00">A:assumpLDFC</text>
</g>
<!-- riskFun -->
<g id="node15" class="node">
<title>riskFun</title>
<polygon fill="#bbffff" stroke="black" points="1968.5,-108 1870.5,-108 1870.5,-72 1968.5,-72 1968.5,-108"/>
<text text-anchor="middle" x="1919.5" y="-86.3" font-family="Times,serif" font-size="14.00">DD:riskFun</text>
</g>
<!-- minThick -->
<g id="node16" class="node">
<title>minThick</title>
<polygon fill="#bbffff" stroke="black" points="2096,-108 1987,-108 1987,-72 2096,-72 2096,-108"/>
<text text-anchor="middle" x="2041.5" y="-86.3" font-family="Times,serif" font-size="14.00">DD:minThick</text>
</g>
<!-- loadDurFactor -->
<g id="node17" class="node">
<title>loadDurFactor</title>
<polygon fill="#bbffff" stroke="black" points="2260.5,-108 2114.5,-108 2114.5,-72 2260.5,-72 2260.5,-108"/>
<text text-anchor="middle" x="2187.5" y="-86.3" font-family="Times,serif" font-size="14.00">DD:loadDurFactor</text>
</g>
<!-- stressDistFac -->
<g id="node18" class="node">
<title>stressDistFac</title>
<polygon fill="#bbffff" stroke="black" points="2420,-108 2279,-108 2279,-72 2420,-72 2420,-108"/>
<text text-anchor="middle" x="2349.5" y="-86.3" font-family="Times,serif" font-size="14.00">DD:stressDistFac</text>
</g>
<!-- nFL -->
<g id="node19" class="node">
<title>nFL</title>
<polygon fill="#bbffff" stroke="black" points="2509,-108 2438,-108 2438,-72 2509,-72 2509,-108"/>
<text text-anchor="middle" x="2473.5" y="-86.3" font-family="Times,serif" font-size="14.00">DD:nFL</text>
</g>
<!-- glassTypeFac -->
<g id="node20" class="node">
<title>glassTypeFac</title>
<polygon fill="#bbffff" stroke="black" points="2598,-108 2527,-108 2527,-72 2598,-72 2598,-108"/>
<text text-anchor="middle" x="2562.5" y="-86.3" font-family="Times,serif" font-size="14.00">DD:gTF</text>
</g>
<!-- dimlessLoad -->
<g id="node21" class="node">
<title>dimlessLoad</title>
<polygon fill="#bbffff" stroke="black" points="2749,-108 2616,-108 2616,-72 2749,-72 2749,-108"/>
<text text-anchor="middle" x="2682.5" y="-86.3" font-family="Times,serif" font-size="14.00">DD:dimlessLoad</text>
</g>
<!-- tolLoad -->
<g id="node22" class="node">
<title>tolLoad</title>
<polygon fill="#bbffff" stroke="black" points="2864,-108 2767,-108 2767,-72 2864,-72 2864,-108"/>
<text text-anchor="middle" x="2815.5" y="-86.3" font-family="Times,serif" font-size="14.00">DD:tolLoad</text>
</g>
<!-- sdfTol -->
<g id="node23" class="node">
<title>sdfTol</title>
<polygon fill="#bbffff" stroke="black" points="2968.5,-108 2882.5,-108 2882.5,-72 2968.5,-72 2968.5,-108"/>
<text text-anchor="middle" x="2925.5" y="-86.3" font-family="Times,serif" font-size="14.00">DD:sdfTol</text>
</g>
<!-- stdOffDist -->
<g id="node24" class="node">
<title>stdOffDist</title>
<polygon fill="#bbffff" stroke="black" points="3120.5,-108 2986.5,-108 2986.5,-72 3120.5,-72 3120.5,-108"/>
<text text-anchor="middle" x="3053.5" y="-86.3" font-family="Times,serif" font-size="14.00">DD:standOffDist</text>
</g>
<!-- aR -->
<g id="node25" class="node">
<title>aR</title>
<polygon fill="#bbffff" stroke="black" points="3266.5,-108 3138.5,-108 3138.5,-72 3266.5,-72 3266.5,-108"/>
<text text-anchor="middle" x="3202.5" y="-86.3" font-family="Times,serif" font-size="14.00">DD:aspectRatio</text>
</g>
<!-- eqTNTChar -->
<g id="node26" class="node">
<title>eqTNTChar</title>
<polygon fill="#bbffff" stroke="black" points="3390,-108 3285,-108 3285,-72 3390,-72 3390,-108"/>
<text text-anchor="middle" x="3337.5" y="-86.3" font-family="Times,serif" font-size="14.00">DD:eqTNTW</text>
</g>
<!-- probBr -->
<g id="node27" class="node">
<title>probBr</title>
<polygon fill="#bbffff" stroke="black" points="3543,-108 3408,-108 3408,-72 3543,-72 3543,-108"/>
<text text-anchor="middle" x="3475.5" y="-86.3" font-family="Times,serif" font-size="14.00">DD:probOfBreak</text>
</g>
<!-- lResistance -->
<g id="node28" class="node">
<title>lResistance</title>
<polygon fill="#bbffff" stroke="black" points="3701.5,-108 3561.5,-108 3561.5,-72 3701.5,-72 3701.5,-108"/>
<text text-anchor="middle" x="3631.5" y="-86.3" font-family="Times,serif" font-size="14.00">DD:calofCapacity</text>
</g>
<!-- demandq -->
<g id="node29" class="node">
<title>demandq</title>
<polygon fill="#bbffff" stroke="black" points="3857,-108 3720,-108 3720,-72 3857,-72 3857,-108"/>
<text text-anchor="middle" x="3788.5" y="-86.3" font-family="Times,serif" font-size="14.00">DD:calofDemand</text>
</g>
<!-- isSafePb -->
<g id="node30" class="node">
<title>isSafePb</title>
<polygon fill="#fff68f" stroke="black" points="3978,-108 3875,-108 3875,-72 3978,-72 3978,-108"/>
<text text-anchor="middle" x="3926.5" y="-86.3" font-family="Times,serif" font-size="14.00">IM:isSafePb</text>
</g>
<!-- isSafeLR -->
<g id="node31" class="node">
<title>isSafeLR</title>
<polygon fill="#fff68f" stroke="black" points="4100.5,-108 3996.5,-108 3996.5,-72 4100.5,-72 4100.5,-108"/>
<text text-anchor="middle" x="4048.5" y="-86.3" font-family="Times,serif" font-size="14.00">IM:isSafeLR</text>
</g>
<!-- checkInputWithDataCons -->
<g id="node32" class="node">
<title>checkInputWithDataCons</title>
<polygon fill="ivory" stroke="black" points="4342,-108 4119,-108 4119,-72 4342,-72 4342,-108"/>
<text text-anchor="middle" x="4230.5" y="-86.3" font-family="Times,serif" font-size="14.00">FR:checkInputWithDataCons</text>
</g>
<!-- outputValues -->
<g id="node33" class="node">
<title>outputValues</title>
<polygon fill="ivory" stroke="black" points="4495,-108 4360,-108 4360,-72 4495,-72 4495,-108"/>
<text text-anchor="middle" x="4427.5" y="-86.3" font-family="Times,serif" font-size="14.00">FR:outputValues</text>
</g>
<!-- correct -->
<g id="node34" class="node">
<title>correct</title>
<polygon fill="ivory" stroke="black" points="4617.5,-108 4513.5,-108 4513.5,-72 4617.5,-72 4617.5,-108"/>
<text text-anchor="middle" x="4565.5" y="-86.3" font-family="Times,serif" font-size="14.00">NFR:correct</text>
</g>
<!-- verifiable -->
<g id="node35" class="node">
<title>verifiable</title>
<polygon fill="ivory" stroke="black" points="4755.5,-108 4635.5,-108 4635.5,-72 4755.5,-72 4755.5,-108"/>
<text text-anchor="middle" x="4695.5" y="-86.3" font-family="Times,serif" font-size="14.00">NFR:verifiable</text>
</g>
<!-- understandable -->
<g id="node36" class="node">
<title>understandable</title>
<polygon fill="ivory" stroke="black" points="4939,-108 4774,-108 4774,-72 4939,-72 4939,-108"/>
<text text-anchor="middle" x="4856.5" y="-86.3" font-family="Times,serif" font-size="14.00">NFR:understandable</text>
</g>
<!-- reusable -->
<g id="node37" class="node">
<title>reusable</title>
<polygon fill="ivory" stroke="black" points="5072,-108 4957,-108 4957,-72 5072,-72 5072,-108"/>
<text text-anchor="middle" x="5014.5" y="-86.3" font-family="Times,serif" font-size="14.00">NFR:reusable</text>
</g>
<!-- maintainable -->
<g id="node38" class="node">
<title>maintainable</title>
<polygon fill="ivory" stroke="black" points="5236.5,-108 5090.5,-108 5090.5,-72 5236.5,-72 5236.5,-108"/>
<text text-anchor="middle" x="5163.5" y="-86.3" font-family="Times,serif" font-size="14.00">NFR:maintainable</text>
</g>
<!-- portable -->
<g id="node39" class="node">
<title>portable</title>
<polygon fill="ivory" stroke="black" points="5368,-108 5255,-108 5255,-72 5368,-72 5368,-108"/>
<text text-anchor="middle" x="5311.5" y="-86.3" font-family="Times,serif" font-size="14.00">NFR:portable</text>
</g>
<!-- willBreakGS -->
<g id="node40" class="node">
<title>willBreakGS</title>
<polygon fill="#ffb90f" stroke="black" points="5517,-108 5386,-108 5386,-72 5517,-72 5517,-108"/>
<text text-anchor="middle" x="5451.5" y="-86.3" font-family="Times,serif" font-size="14.00">GS:willBreakGS</text>
</g>
</g>
</svg>
