<?xml version="1.0" encoding="UTF-8" standalone="no"?>
<!DOCTYPE svg PUBLIC "-//W3C//DTD SVG 1.1//EN"
 "http://www.w3.org/Graphics/SVG/1.1/DTD/svg11.dtd">
<!-- Generated by graphviz version 2.43.0 (0)
 -->
<!-- Title: allvsall Pages: 1 -->
<svg width="2630pt" height="293pt"
 viewBox="0.00 0.00 2630.00 292.57" xmlns="http://www.w3.org/2000/svg" xmlns:xlink="http://www.w3.org/1999/xlink">
<g id="graph0" class="graph" transform="scale(1 1) rotate(0) translate(4 288.57)">
<title>allvsall</title>
<polygon fill="white" stroke="transparent" points="-4,4 -4,-288.57 2626,-288.57 2626,4 -4,4"/>
<!-- assumpLDFC -->
<g id="node1" class="node">
<title>assumpLDFC</title>
<polygon fill="mistyrose" stroke="black" points="785.5,-36 659.5,-36 659.5,0 785.5,0 785.5,-36"/>
<text text-anchor="middle" x="722.5" y="-14.3" font-family="Times,serif" font-size="14.00">A:assumpLDFC</text>
</g>
<!-- assumpSV -->
<g id="node2" class="node">
<title>assumpSV</title>
<polygon fill="mistyrose" stroke="black" points="909,-36 804,-36 804,0 909,0 909,-36"/>
<text text-anchor="middle" x="856.5" y="-14.3" font-family="Times,serif" font-size="14.00">A:assumpSV</text>
</g>
<!-- assumpLDFC&#45;&gt;assumpSV -->
<g id="edge1" class="edge">
<title>assumpLDFC&#45;&gt;assumpSV</title>
<path fill="none" stroke="black" d="M785.57,-18C788.24,-18 790.91,-18 793.57,-18"/>
<polygon fill="black" stroke="black" points="793.86,-21.5 803.86,-18 793.86,-14.5 793.86,-21.5"/>
</g>
<!-- loadDurFactor -->
<g id="node3" class="node">
<title>loadDurFactor</title>
<polygon fill="#bbffff" stroke="black" points="828.5,-108 682.5,-108 682.5,-72 828.5,-72 828.5,-108"/>
<text text-anchor="middle" x="755.5" y="-86.3" font-family="Times,serif" font-size="14.00">DD:loadDurFactor</text>
</g>
<!-- loadDurFactor&#45;&gt;assumpLDFC -->
<g id="edge3" class="edge">
<title>loadDurFactor&#45;&gt;assumpLDFC</title>
<path fill="none" stroke="black" d="M747.34,-71.7C743.59,-63.73 739.05,-54.1 734.88,-45.26"/>
<polygon fill="black" stroke="black" points="737.99,-43.66 730.56,-36.1 731.66,-46.64 737.99,-43.66"/>
</g>
<!-- loadDurFactor&#45;&gt;assumpSV -->
<g id="edge2" class="edge">
<title>loadDurFactor&#45;&gt;assumpSV</title>
<path fill="none" stroke="black" d="M780.21,-71.88C793.17,-62.89 809.23,-51.76 823.27,-42.03"/>
<polygon fill="black" stroke="black" points="825.47,-44.76 831.7,-36.19 821.48,-39.01 825.47,-44.76"/>
</g>
<!-- demandq -->
<g id="node4" class="node">
<title>demandq</title>
<polygon fill="#bbffff" stroke="black" points="139,-108 2,-108 2,-72 139,-72 139,-108"/>
<text text-anchor="middle" x="70.5" y="-86.3" font-family="Times,serif" font-size="14.00">DD:calofDemand</text>
</g>
<!-- stdOffDist -->
<g id="node5" class="node">
<title>stdOffDist</title>
<polygon fill="#bbffff" stroke="black" points="291.5,-108 157.5,-108 157.5,-72 291.5,-72 291.5,-108"/>
<text text-anchor="middle" x="224.5" y="-86.3" font-family="Times,serif" font-size="14.00">DD:standOffDist</text>
</g>
<!-- demandq&#45;&gt;stdOffDist -->
<g id="edge4" class="edge">
<title>demandq&#45;&gt;stdOffDist</title>
<path fill="none" stroke="black" d="M139.08,-90C141.85,-90 144.62,-90 147.39,-90"/>
<polygon fill="black" stroke="black" points="147.43,-93.5 157.43,-90 147.43,-86.5 147.43,-93.5"/>
</g>
<!-- eqTNTChar -->
<g id="node6" class="node">
<title>eqTNTChar</title>
<polygon fill="#bbffff" stroke="black" points="415,-108 310,-108 310,-72 415,-72 415,-108"/>
<text text-anchor="middle" x="362.5" y="-86.3" font-family="Times,serif" font-size="14.00">DD:eqTNTW</text>
</g>
<!-- demandq&#45;&gt;eqTNTChar -->
<g id="edge5" class="edge">
<title>demandq&#45;&gt;eqTNTChar</title>
<path fill="none" stroke="black" d="M105.49,-108.16C120.98,-115.23 139.7,-122.46 157.5,-126 215.91,-137.61 233.58,-139.85 291.5,-126 303.04,-123.24 314.82,-118.28 325.39,-112.91"/>
<polygon fill="black" stroke="black" points="327.16,-115.94 334.33,-108.13 323.86,-109.76 327.16,-115.94"/>
</g>
<!-- riskFun -->
<g id="node7" class="node">
<title>riskFun</title>
<polygon fill="#fff68f" stroke="black" points="494,-180 399,-180 399,-144 494,-144 494,-180"/>
<text text-anchor="middle" x="446.5" y="-158.3" font-family="Times,serif" font-size="14.00">IM:riskFun</text>
</g>
<!-- riskFun&#45;&gt;loadDurFactor -->
<g id="edge7" class="edge">
<title>riskFun&#45;&gt;loadDurFactor</title>
<path fill="none" stroke="black" d="M494,-146.51C497.21,-145.63 500.4,-144.79 503.5,-144 511.88,-141.87 602.09,-122.98 672.21,-108.35"/>
<polygon fill="black" stroke="black" points="673.33,-111.69 682.4,-106.22 671.9,-104.84 673.33,-111.69"/>
</g>
<!-- minThick -->
<g id="node8" class="node">
<title>minThick</title>
<polygon fill="#bbffff" stroke="black" points="994,-108 885,-108 885,-72 994,-72 994,-108"/>
<text text-anchor="middle" x="939.5" y="-86.3" font-family="Times,serif" font-size="14.00">DD:minThick</text>
</g>
<!-- riskFun&#45;&gt;minThick -->
<g id="edge6" class="edge">
<title>riskFun&#45;&gt;minThick</title>
<path fill="none" stroke="black" d="M494.23,-146.07C497.35,-145.31 500.46,-144.61 503.5,-144 649.87,-114.54 689.58,-128.28 837.5,-108 849.52,-106.35 862.3,-104.39 874.6,-102.39"/>
<polygon fill="black" stroke="black" points="875.5,-105.79 884.8,-100.71 874.36,-98.89 875.5,-105.79"/>
</g>
<!-- stressDistFac -->
<g id="node9" class="node">
<title>stressDistFac</title>
<polygon fill="#fff68f" stroke="black" points="650.5,-180 512.5,-180 512.5,-144 650.5,-144 650.5,-180"/>
<text text-anchor="middle" x="581.5" y="-158.3" font-family="Times,serif" font-size="14.00">IM:stressDistFac</text>
</g>
<!-- riskFun&#45;&gt;stressDistFac -->
<g id="edge8" class="edge">
<title>riskFun&#45;&gt;stressDistFac</title>
<path fill="none" stroke="black" d="M494.22,-162C496.86,-162 499.49,-162 502.13,-162"/>
<polygon fill="black" stroke="black" points="502.29,-165.5 512.29,-162 502.29,-158.5 502.29,-165.5"/>
</g>
<!-- aR -->
<g id="node10" class="node">
<title>aR</title>
<polygon fill="#bbffff" stroke="black" points="1140.5,-108 1012.5,-108 1012.5,-72 1140.5,-72 1140.5,-108"/>
<text text-anchor="middle" x="1076.5" y="-86.3" font-family="Times,serif" font-size="14.00">DD:aspectRatio</text>
</g>
<!-- stressDistFac&#45;&gt;aR -->
<g id="edge9" class="edge">
<title>stressDistFac&#45;&gt;aR</title>
<path fill="none" stroke="black" d="M650.75,-145.49C653.7,-144.96 656.63,-144.46 659.5,-144 810.83,-119.64 851.3,-133.21 1002.5,-108 1002.6,-107.98 1002.7,-107.97 1002.8,-107.95"/>
<polygon fill="black" stroke="black" points="1003.2,-111.43 1012.42,-106.22 1001.96,-104.55 1003.2,-111.43"/>
</g>
<!-- dimlessLoad -->
<g id="node11" class="node">
<title>dimlessLoad</title>
<polygon fill="#fff68f" stroke="black" points="798.5,-180 668.5,-180 668.5,-144 798.5,-144 798.5,-180"/>
<text text-anchor="middle" x="733.5" y="-158.3" font-family="Times,serif" font-size="14.00">IM:dimlessLoad</text>
</g>
<!-- stressDistFac&#45;&gt;dimlessLoad -->
<g id="edge10" class="edge">
<title>stressDistFac&#45;&gt;dimlessLoad</title>
<path fill="none" stroke="black" d="M650.67,-162C653.27,-162 655.86,-162 658.46,-162"/>
<polygon fill="black" stroke="black" points="658.47,-165.5 668.47,-162 658.47,-158.5 658.47,-165.5"/>
</g>
<!-- dimlessLoad&#45;&gt;assumpSV -->
<g id="edge14" class="edge">
<title>dimlessLoad&#45;&gt;assumpSV</title>
<path fill="none" stroke="black" d="M788.27,-143.97C806.4,-135.79 825.1,-124.15 837.5,-108 851,-90.43 855.41,-65.39 856.64,-46.35"/>
<polygon fill="black" stroke="black" points="860.14,-46.33 857.03,-36.2 853.15,-46.06 860.14,-46.33"/>
</g>
<!-- dimlessLoad&#45;&gt;demandq -->
<g id="edge17" class="edge">
<title>dimlessLoad&#45;&gt;demandq</title>
<path fill="none" stroke="black" d="M668.24,-145.43C665.29,-144.91 662.37,-144.43 659.5,-144 437.62,-110.9 375.67,-139.46 149.5,-108"/>
<polygon fill="black" stroke="black" points="149.7,-104.5 139.31,-106.56 148.72,-111.43 149.7,-104.5"/>
</g>
<!-- dimlessLoad&#45;&gt;minThick -->
<g id="edge15" class="edge">
<title>dimlessLoad&#45;&gt;minThick</title>
<path fill="none" stroke="black" d="M783.63,-143.97C812.54,-134.14 849.07,-121.73 879.5,-111.39"/>
<polygon fill="black" stroke="black" points="880.8,-114.64 889.15,-108.11 878.55,-108.01 880.8,-114.64"/>
</g>
<!-- glassTypeFac -->
<g id="node14" class="node">
<title>glassTypeFac</title>
<polygon fill="#bbffff" stroke="black" points="504,-108 433,-108 433,-72 504,-72 504,-108"/>
<text text-anchor="middle" x="468.5" y="-86.3" font-family="Times,serif" font-size="14.00">DD:gTF</text>
</g>
<!-- dimlessLoad&#45;&gt;glassTypeFac -->
<g id="edge16" class="edge">
<title>dimlessLoad&#45;&gt;glassTypeFac</title>
<path fill="none" stroke="black" d="M668.27,-145.72C615.4,-133.28 545.72,-116.71 514.06,-107.85"/>
<polygon fill="black" stroke="black" points="514.8,-104.42 504.22,-104.96 512.83,-111.13 514.8,-104.42"/>
</g>
<!-- nFL -->
<g id="node12" class="node">
<title>nFL</title>
<polygon fill="#fff68f" stroke="black" points="1034.5,-180 966.5,-180 966.5,-144 1034.5,-144 1034.5,-180"/>
<text text-anchor="middle" x="1000.5" y="-158.3" font-family="Times,serif" font-size="14.00">IM:nFL</text>
</g>
<!-- nFL&#45;&gt;assumpSV -->
<g id="edge11" class="edge">
<title>nFL&#45;&gt;assumpSV</title>
<path fill="none" stroke="black" d="M1034.71,-147.3C1037.68,-146.17 1040.64,-145.05 1043.5,-144 1090.2,-126.85 1120.52,-148.44 1149.5,-108 1158.82,-94.99 1159.76,-84.28 1149.5,-72 1120.76,-37.59 996.44,-25.48 919.27,-21.25"/>
<polygon fill="black" stroke="black" points="919.34,-17.74 909.17,-20.72 918.98,-24.73 919.34,-17.74"/>
</g>
<!-- nFL&#45;&gt;minThick -->
<g id="edge12" class="edge">
<title>nFL&#45;&gt;minThick</title>
<path fill="none" stroke="black" d="M985.42,-143.7C978.11,-135.3 969.19,-125.07 961.16,-115.86"/>
<polygon fill="black" stroke="black" points="963.61,-113.34 954.41,-108.1 958.34,-117.94 963.61,-113.34"/>
</g>
<!-- tolLoad -->
<g id="node13" class="node">
<title>tolLoad</title>
<polygon fill="#fff68f" stroke="black" points="1146.5,-180 1052.5,-180 1052.5,-144 1146.5,-144 1146.5,-180"/>
<text text-anchor="middle" x="1099.5" y="-158.3" font-family="Times,serif" font-size="14.00">IM:tolLoad</text>
</g>
<!-- nFL&#45;&gt;tolLoad -->
<g id="edge13" class="edge">
<title>nFL&#45;&gt;tolLoad</title>
<path fill="none" stroke="black" d="M1034.53,-162C1037.03,-162 1039.53,-162 1042.03,-162"/>
<polygon fill="black" stroke="black" points="1042.3,-165.5 1052.3,-162 1042.3,-158.5 1042.3,-165.5"/>
</g>
<!-- tolLoad&#45;&gt;aR -->
<g id="edge18" class="edge">
<title>tolLoad&#45;&gt;aR</title>
<path fill="none" stroke="black" d="M1093.81,-143.7C1091.25,-135.9 1088.17,-126.51 1085.32,-117.83"/>
<polygon fill="black" stroke="black" points="1088.57,-116.51 1082.12,-108.1 1081.92,-118.7 1088.57,-116.51"/>
</g>
<!-- sdfTol -->
<g id="node15" class="node">
<title>sdfTol</title>
<polygon fill="#fff68f" stroke="black" points="1248,-180 1165,-180 1165,-144 1248,-144 1248,-180"/>
<text text-anchor="middle" x="1206.5" y="-158.3" font-family="Times,serif" font-size="14.00">IM:sdfTol</text>
</g>
<!-- tolLoad&#45;&gt;sdfTol -->
<g id="edge19" class="edge">
<title>tolLoad&#45;&gt;sdfTol</title>
<path fill="none" stroke="black" d="M1146.73,-162C1149.39,-162 1152.04,-162 1154.7,-162"/>
<polygon fill="black" stroke="black" points="1154.94,-165.5 1164.94,-162 1154.94,-158.5 1154.94,-165.5"/>
</g>
<!-- sdfTol&#45;&gt;assumpSV -->
<g id="edge20" class="edge">
<title>sdfTol&#45;&gt;assumpSV</title>
<path fill="none" stroke="black" d="M1203.97,-143.95C1200,-123.51 1190.23,-89.76 1167.5,-72 1129.86,-42.59 999.14,-28.65 919.65,-22.76"/>
<polygon fill="black" stroke="black" points="919.49,-19.24 909.27,-22.01 918.99,-26.22 919.49,-19.24"/>
</g>
<!-- sdfTol&#45;&gt;loadDurFactor -->
<g id="edge22" class="edge">
<title>sdfTol&#45;&gt;loadDurFactor</title>
<path fill="none" stroke="black" d="M1164.94,-146.42C1161.76,-145.53 1158.59,-144.71 1155.5,-144 1033.19,-116.03 999.84,-124.8 875.5,-108 863.69,-106.4 851.23,-104.68 838.99,-102.97"/>
<polygon fill="black" stroke="black" points="839.17,-99.46 828.78,-101.53 838.19,-106.39 839.17,-99.46"/>
</g>
<!-- sdfTol&#45;&gt;minThick -->
<g id="edge21" class="edge">
<title>sdfTol&#45;&gt;minThick</title>
<path fill="none" stroke="black" d="M1164.85,-146.78C1161.69,-145.81 1158.55,-144.87 1155.5,-144 1091.72,-125.86 1072.54,-124.96 1004.26,-108.14"/>
<polygon fill="black" stroke="black" points="1004.84,-104.68 994.29,-105.66 1003.15,-111.47 1004.84,-104.68"/>
</g>
<!-- probBr -->
<g id="node16" class="node">
<title>probBr</title>
<polygon fill="#fff68f" stroke="black" points="948.5,-180 816.5,-180 816.5,-144 948.5,-144 948.5,-180"/>
<text text-anchor="middle" x="882.5" y="-158.3" font-family="Times,serif" font-size="14.00">IM:probOfBreak</text>
</g>
<!-- probBr&#45;&gt;riskFun -->
<g id="edge23" class="edge">
<title>probBr&#45;&gt;riskFun</title>
<path fill="none" stroke="black" d="M848.79,-180.16C833.84,-187.22 815.75,-194.46 798.5,-198 736.24,-210.78 574.08,-213.7 512.5,-198 501.86,-195.29 491.09,-190.47 481.42,-185.23"/>
<polygon fill="black" stroke="black" points="482.94,-182.06 472.52,-180.12 479.45,-188.13 482.94,-182.06"/>
</g>
<!-- lResistance -->
<g id="node17" class="node">
<title>lResistance</title>
<polygon fill="#fff68f" stroke="black" points="381,-180 244,-180 244,-144 381,-144 381,-180"/>
<text text-anchor="middle" x="312.5" y="-158.3" font-family="Times,serif" font-size="14.00">IM:calofCapacity</text>
</g>
<!-- lResistance&#45;&gt;nFL -->
<g id="edge25" class="edge">
<title>lResistance&#45;&gt;nFL</title>
<path fill="none" stroke="black" d="M347.06,-180.16C362.38,-187.22 380.89,-194.46 398.5,-198 458.41,-210.03 890.17,-216.22 948.5,-198 956.79,-195.41 964.91,-190.99 972.19,-186.11"/>
<polygon fill="black" stroke="black" points="974.24,-188.95 980.3,-180.26 970.14,-183.27 974.24,-188.95"/>
</g>
<!-- lResistance&#45;&gt;glassTypeFac -->
<g id="edge24" class="edge">
<title>lResistance&#45;&gt;glassTypeFac</title>
<path fill="none" stroke="black" d="M350.66,-143.88C372.7,-133.99 400.54,-121.49 423.63,-111.14"/>
<polygon fill="black" stroke="black" points="425.18,-114.27 432.87,-106.99 422.31,-107.89 425.18,-114.27"/>
</g>
<!-- isSafePb -->
<g id="node18" class="node">
<title>isSafePb</title>
<polygon fill="#fff68f" stroke="black" points="103,-180 0,-180 0,-144 103,-144 103,-180"/>
<text text-anchor="middle" x="51.5" y="-158.3" font-family="Times,serif" font-size="14.00">IM:isSafePb</text>
</g>
<!-- isSafePb&#45;&gt;probBr -->
<g id="edge26" class="edge">
<title>isSafePb&#45;&gt;probBr</title>
<path fill="none" stroke="black" d="M79.24,-180.13C91.64,-187.19 106.76,-194.43 121.5,-198 194.61,-215.7 724.81,-213.12 798.5,-198 812.25,-195.18 826.52,-190.01 839.32,-184.45"/>
<polygon fill="black" stroke="black" points="841.13,-187.48 848.79,-180.16 838.23,-181.1 841.13,-187.48"/>
</g>
<!-- isSafeLR -->
<g id="node19" class="node">
<title>isSafeLR</title>
<polygon fill="#fff68f" stroke="black" points="225.5,-180 121.5,-180 121.5,-144 225.5,-144 225.5,-180"/>
<text text-anchor="middle" x="173.5" y="-158.3" font-family="Times,serif" font-size="14.00">IM:isSafeLR</text>
</g>
<!-- isSafePb&#45;&gt;isSafeLR -->
<g id="edge27" class="edge">
<title>isSafePb&#45;&gt;isSafeLR</title>
<path fill="none" stroke="black" d="M103.45,-148.8C106.04,-148.63 108.63,-148.53 111.23,-148.51"/>
<polygon fill="black" stroke="black" points="111.14,-152 121.23,-148.78 111.33,-145.01 111.14,-152"/>
</g>
<!-- isSafeLR&#45;&gt;demandq -->
<g id="edge28" class="edge">
<title>isSafeLR&#45;&gt;demandq</title>
<path fill="none" stroke="black" d="M148.3,-143.88C135.09,-134.89 118.71,-123.76 104.39,-114.03"/>
<polygon fill="black" stroke="black" points="106.03,-110.92 95.79,-108.19 102.1,-116.71 106.03,-110.92"/>
</g>
<!-- isSafeLR&#45;&gt;lResistance -->
<g id="edge29" class="edge">
<title>isSafeLR&#45;&gt;lResistance</title>
<path fill="none" stroke="black" d="M225.62,-162C228.39,-162 231.16,-162 233.93,-162"/>
<polygon fill="black" stroke="black" points="233.95,-165.5 243.95,-162 233.95,-158.5 233.95,-165.5"/>
</g>
<!-- isSafeLR&#45;&gt;isSafePb -->
<g id="edge30" class="edge">
<title>isSafeLR&#45;&gt;isSafePb</title>
<path fill="none" stroke="black" d="M121.23,-175.22C118.64,-175.39 116.04,-175.48 113.45,-175.5"/>
<polygon fill="black" stroke="black" points="113.54,-172 103.45,-175.2 113.34,-179 113.54,-172"/>
</g>
<!-- outputValsAndKnownValues -->
<g id="node20" class="node">
<title>outputValsAndKnownValues</title>
<polygon fill="ivory" stroke="black" points="455,-252 214,-252 214,-216 455,-216 455,-252"/>
<text text-anchor="middle" x="334.5" y="-230.3" font-family="Times,serif" font-size="14.00">FR:outputValsAndKnownValues</text>
</g>
<!-- inputValues -->
<g id="node21" class="node">
<title>inputValues</title>
<polygon fill="ivory" stroke="black" points="867,-252 742,-252 742,-216 867,-216 867,-252"/>
<text text-anchor="middle" x="804.5" y="-230.3" font-family="Times,serif" font-size="14.00">FR:inputValues</text>
</g>
<!-- outputValsAndKnownValues&#45;&gt;inputValues -->
<g id="edge31" class="edge">
<title>outputValsAndKnownValues&#45;&gt;inputValues</title>
<path fill="none" stroke="black" d="M390.26,-252.01C415.14,-259.14 444.99,-266.47 472.5,-270 583.15,-284.19 614.37,-293.16 723.5,-270 736.82,-267.17 750.6,-262 762.94,-256.45"/>
<polygon fill="black" stroke="black" points="764.5,-259.58 772.06,-252.15 761.52,-253.24 764.5,-259.58"/>
</g>
<!-- sysSetValsFollowingAssumps -->
<g id="node22" class="node">
<title>sysSetValsFollowingAssumps</title>
<polygon fill="ivory" stroke="black" points="724,-252 473,-252 473,-216 724,-216 724,-252"/>
<text text-anchor="middle" x="598.5" y="-230.3" font-family="Times,serif" font-size="14.00">FR:sysSetValsFollowingAssumps</text>
</g>
<!-- outputValsAndKnownValues&#45;&gt;sysSetValsFollowingAssumps -->
<g id="edge32" class="edge">
<title>outputValsAndKnownValues&#45;&gt;sysSetValsFollowingAssumps</title>
<path fill="none" stroke="black" d="M455.16,-234C457.64,-234 460.12,-234 462.6,-234"/>
<polygon fill="black" stroke="black" points="462.79,-237.5 472.79,-234 462.79,-230.5 462.79,-237.5"/>
</g>
<!-- checkGlassSafety -->
<g id="node23" class="node">
<title>checkGlassSafety</title>
<polygon fill="ivory" stroke="black" points="196,-252 29,-252 29,-216 196,-216 196,-252"/>
<text text-anchor="middle" x="112.5" y="-230.3" font-family="Times,serif" font-size="14.00">FR:checkGlassSafety</text>
</g>
<!-- checkGlassSafety&#45;&gt;isSafePb -->
<g id="edge33" class="edge">
<title>checkGlassSafety&#45;&gt;isSafePb</title>
<path fill="none" stroke="black" d="M97.42,-215.7C90.11,-207.3 81.19,-197.07 73.16,-187.86"/>
<polygon fill="black" stroke="black" points="75.61,-185.34 66.41,-180.1 70.34,-189.94 75.61,-185.34"/>
</g>
<!-- checkGlassSafety&#45;&gt;isSafeLR -->
<g id="edge34" class="edge">
<title>checkGlassSafety&#45;&gt;isSafeLR</title>
<path fill="none" stroke="black" d="M127.58,-215.7C134.89,-207.3 143.81,-197.07 151.84,-187.86"/>
<polygon fill="black" stroke="black" points="154.66,-189.94 158.59,-180.1 149.39,-185.34 154.66,-189.94"/>
</g>
<!-- calcInternalBlastRisk -->
<g id="node24" class="node">
<title>calcInternalBlastRisk</title>
<polygon fill="lavender" stroke="black" points="1428,-108 1235,-108 1235,-72 1428,-72 1428,-108"/>
<text text-anchor="middle" x="1331.5" y="-86.3" font-family="Times,serif" font-size="14.00">LC:calcInternalBlastRisk</text>
</g>
<!-- assumpES -->
<g id="node25" class="node">
<title>assumpES</title>
<polygon fill="mistyrose" stroke="black" points="1384.5,-36 1278.5,-36 1278.5,0 1384.5,0 1384.5,-36"/>
<text text-anchor="middle" x="1331.5" y="-14.3" font-family="Times,serif" font-size="14.00">A:assumpES</text>
</g>
<!-- calcInternalBlastRisk&#45;&gt;assumpES -->
<g id="edge35" class="edge">
<title>calcInternalBlastRisk&#45;&gt;assumpES</title>
<path fill="none" stroke="black" d="M1331.5,-71.7C1331.5,-63.98 1331.5,-54.71 1331.5,-46.11"/>
<polygon fill="black" stroke="black" points="1335,-46.1 1331.5,-36.1 1328,-46.1 1335,-46.1"/>
</g>
<!-- varValsOfmkE -->
<g id="node26" class="node">
<title>varValsOfmkE</title>
<polygon fill="lavender" stroke="black" points="664.5,-108 522.5,-108 522.5,-72 664.5,-72 664.5,-108"/>
<text text-anchor="middle" x="593.5" y="-86.3" font-family="Times,serif" font-size="14.00">LC:varValsOfmkE</text>
</g>
<!-- varValsOfmkE&#45;&gt;assumpLDFC -->
<g id="edge37" class="edge">
<title>varValsOfmkE&#45;&gt;assumpLDFC</title>
<path fill="none" stroke="black" d="M625.06,-71.88C642.16,-62.6 663.48,-51.03 681.82,-41.08"/>
<polygon fill="black" stroke="black" points="683.7,-44.04 690.82,-36.19 680.36,-37.88 683.7,-44.04"/>
</g>
<!-- varValsOfmkE&#45;&gt;assumpSV -->
<g id="edge36" class="edge">
<title>varValsOfmkE&#45;&gt;assumpSV</title>
<path fill="none" stroke="black" d="M658.72,-71.98C695.69,-62.29 743.05,-49.8 793.88,-36.16"/>
<polygon fill="black" stroke="black" points="795,-39.48 803.74,-33.5 793.18,-32.72 795,-39.48"/>
</g>
<!-- accMoreThanSingleLite -->
<g id="node27" class="node">
<title>accMoreThanSingleLite</title>
<polygon fill="lavender" stroke="black" points="1655,-108 1446,-108 1446,-72 1655,-72 1655,-108"/>
<text text-anchor="middle" x="1550.5" y="-86.3" font-family="Times,serif" font-size="14.00">LC:accMoreThanSingleLite</text>
</g>
<!-- assumpGL -->
<g id="node28" class="node">
<title>assumpGL</title>
<polygon fill="mistyrose" stroke="black" points="1603.5,-36 1497.5,-36 1497.5,0 1603.5,0 1603.5,-36"/>
<text text-anchor="middle" x="1550.5" y="-14.3" font-family="Times,serif" font-size="14.00">A:assumpGL</text>
</g>
<!-- accMoreThanSingleLite&#45;&gt;assumpGL -->
<g id="edge38" class="edge">
<title>accMoreThanSingleLite&#45;&gt;assumpGL</title>
<path fill="none" stroke="black" d="M1550.5,-71.7C1550.5,-63.98 1550.5,-54.71 1550.5,-46.11"/>
<polygon fill="black" stroke="black" points="1554,-46.1 1550.5,-36.1 1547,-46.1 1554,-46.1"/>
</g>
<!-- accMoreBoundaryConditions -->
<g id="node29" class="node">
<title>accMoreBoundaryConditions</title>
<polygon fill="lavender" stroke="black" points="1920,-108 1673,-108 1673,-72 1920,-72 1920,-108"/>
<text text-anchor="middle" x="1796.5" y="-86.3" font-family="Times,serif" font-size="14.00">LC:accMoreBoundaryConditions</text>
</g>
<!-- assumpBC -->
<g id="node30" class="node">
<title>assumpBC</title>
<polygon fill="mistyrose" stroke="black" points="1850,-36 1743,-36 1743,0 1850,0 1850,-36"/>
<text text-anchor="middle" x="1796.5" y="-14.3" font-family="Times,serif" font-size="14.00">A:assumpBC</text>
</g>
<!-- accMoreBoundaryConditions&#45;&gt;assumpBC -->
<g id="edge39" class="edge">
<title>accMoreBoundaryConditions&#45;&gt;assumpBC</title>
<path fill="none" stroke="black" d="M1796.5,-71.7C1796.5,-63.98 1796.5,-54.71 1796.5,-46.11"/>
<polygon fill="black" stroke="black" points="1800,-46.1 1796.5,-36.1 1793,-46.1 1800,-46.1"/>
</g>
<!-- considerMoreThanFlexGlass -->
<g id="node31" class="node">
<title>considerMoreThanFlexGlass</title>
<polygon fill="lavender" stroke="black" points="2182.5,-108 1938.5,-108 1938.5,-72 2182.5,-72 2182.5,-108"/>
<text text-anchor="middle" x="2060.5" y="-86.3" font-family="Times,serif" font-size="14.00">LC:considerMoreThanFlexGlass</text>
</g>
<!-- assumpRT -->
<g id="node32" class="node">
<title>assumpRT</title>
<polygon fill="mistyrose" stroke="black" points="2113,-36 2008,-36 2008,0 2113,0 2113,-36"/>
<text text-anchor="middle" x="2060.5" y="-14.3" font-family="Times,serif" font-size="14.00">A:assumpRT</text>
</g>
<!-- considerMoreThanFlexGlass&#45;&gt;assumpRT -->
<g id="edge40" class="edge">
<title>considerMoreThanFlexGlass&#45;&gt;assumpRT</title>
<path fill="none" stroke="black" d="M2060.5,-71.7C2060.5,-63.98 2060.5,-54.71 2060.5,-46.11"/>
<polygon fill="black" stroke="black" points="2064,-46.1 2060.5,-36.1 2057,-46.1 2064,-46.1"/>
</g>
<!-- accAlteredGlass -->
<g id="node33" class="node">
<title>accAlteredGlass</title>
<polygon fill="lavender" stroke="black" points="2358.5,-108 2200.5,-108 2200.5,-72 2358.5,-72 2358.5,-108"/>
<text text-anchor="middle" x="2279.5" y="-86.3" font-family="Times,serif" font-size="14.00">UC:accAlteredGlass</text>
</g>
<!-- assumpGC -->
<g id="node34" class="node">
<title>assumpGC</title>
<polygon fill="mistyrose" stroke="black" points="2333,-36 2226,-36 2226,0 2333,0 2333,-36"/>
<text text-anchor="middle" x="2279.5" y="-14.3" font-family="Times,serif" font-size="14.00">A:assumpGC</text>
</g>
<!-- accAlteredGlass&#45;&gt;assumpGC -->
<g id="edge41" class="edge">
<title>accAlteredGlass&#45;&gt;assumpGC</title>
<path fill="none" stroke="black" d="M2279.5,-71.7C2279.5,-63.98 2279.5,-54.71 2279.5,-46.11"/>
<polygon fill="black" stroke="black" points="2283,-46.1 2279.5,-36.1 2276,-46.1 2283,-46.1"/>
</g>
<!-- assumpGT -->
<g id="node35" class="node">
<title>assumpGT</title>
<polygon fill="mistyrose" stroke="black" points="2457.5,-36 2351.5,-36 2351.5,0 2457.5,0 2457.5,-36"/>
<text text-anchor="middle" x="2404.5" y="-14.3" font-family="Times,serif" font-size="14.00">A:assumpGT</text>
</g>
<!-- isSafeProb -->
<g id="node36" class="node">
<title>isSafeProb</title>
<polygon fill="pink" stroke="black" points="1007.5,-252 885.5,-252 885.5,-216 1007.5,-216 1007.5,-252"/>
<text text-anchor="middle" x="946.5" y="-230.3" font-family="Times,serif" font-size="14.00">TM:isSafeProb</text>
</g>
<!-- isSafeLoad -->
<g id="node37" class="node">
<title>isSafeLoad</title>
<polygon fill="pink" stroke="black" points="1147.5,-252 1025.5,-252 1025.5,-216 1147.5,-216 1147.5,-252"/>
<text text-anchor="middle" x="1086.5" y="-230.3" font-family="Times,serif" font-size="14.00">TM:isSafeLoad</text>
</g>
<!-- checkInputWithDataCons -->
<g id="node38" class="node">
<title>checkInputWithDataCons</title>
<polygon fill="ivory" stroke="black" points="1389,-252 1166,-252 1166,-216 1389,-216 1389,-252"/>
<text text-anchor="middle" x="1277.5" y="-230.3" font-family="Times,serif" font-size="14.00">FR:checkInputWithDataCons</text>
</g>
<!-- outputValues -->
<g id="node39" class="node">
<title>outputValues</title>
<polygon fill="ivory" stroke="black" points="1542,-252 1407,-252 1407,-216 1542,-216 1542,-252"/>
<text text-anchor="middle" x="1474.5" y="-230.3" font-family="Times,serif" font-size="14.00">FR:outputValues</text>
</g>
<!-- correct -->
<g id="node40" class="node">
<title>correct</title>
<polygon fill="ivory" stroke="black" points="1664.5,-252 1560.5,-252 1560.5,-216 1664.5,-216 1664.5,-252"/>
<text text-anchor="middle" x="1612.5" y="-230.3" font-family="Times,serif" font-size="14.00">NFR:correct</text>
</g>
<!-- verifiable -->
<g id="node41" class="node">
<title>verifiable</title>
<polygon fill="ivory" stroke="black" points="1802.5,-252 1682.5,-252 1682.5,-216 1802.5,-216 1802.5,-252"/>
<text text-anchor="middle" x="1742.5" y="-230.3" font-family="Times,serif" font-size="14.00">NFR:verifiable</text>
</g>
<!-- understandable -->
<g id="node42" class="node">
<title>understandable</title>
<polygon fill="ivory" stroke="black" points="1986,-252 1821,-252 1821,-216 1986,-216 1986,-252"/>
<text text-anchor="middle" x="1903.5" y="-230.3" font-family="Times,serif" font-size="14.00">NFR:understandable</text>
</g>
<!-- reusable -->
<g id="node43" class="node">
<title>reusable</title>
<polygon fill="ivory" stroke="black" points="2119,-252 2004,-252 2004,-216 2119,-216 2119,-252"/>
<text text-anchor="middle" x="2061.5" y="-230.3" font-family="Times,serif" font-size="14.00">NFR:reusable</text>
</g>
<!-- maintainable -->
<g id="node44" class="node">
<title>maintainable</title>
<polygon fill="ivory" stroke="black" points="2283.5,-252 2137.5,-252 2137.5,-216 2283.5,-216 2283.5,-252"/>
<text text-anchor="middle" x="2210.5" y="-230.3" font-family="Times,serif" font-size="14.00">NFR:maintainable</text>
</g>
<!-- portable -->
<g id="node45" class="node">
<title>portable</title>
<polygon fill="ivory" stroke="black" points="2415,-252 2302,-252 2302,-216 2415,-216 2415,-252"/>
<text text-anchor="middle" x="2358.5" y="-230.3" font-family="Times,serif" font-size="14.00">NFR:portable</text>
</g>
<!-- willBreakGS -->
<g id="node46" class="node">
<title>willBreakGS</title>
<polygon fill="#ffb90f" stroke="black" points="2564,-252 2433,-252 2433,-216 2564,-216 2564,-252"/>
<text text-anchor="middle" x="2498.5" y="-230.3" font-family="Times,serif" font-size="14.00">GS:willBreakGS</text>
</g>
<!-- predictWithstandOfCertDeg -->
<g id="node47" class="node">
<title>predictWithstandOfCertDeg</title>
<polygon fill="lavender" stroke="black" points="2622,-108 2377,-108 2377,-72 2622,-72 2622,-108"/>
<text text-anchor="middle" x="2499.5" y="-86.3" font-family="Times,serif" font-size="14.00">UC:predictWithstandOfCertDeg</text>
</g>
</g>
</svg>
