<?xml version="1.0" encoding="UTF-8" standalone="no"?>
<!DOCTYPE svg PUBLIC "-//W3C//DTD SVG 1.1//EN"
 "http://www.w3.org/Graphics/SVG/1.1/DTD/svg11.dtd">
<!-- Generated by graphviz version 2.43.0 (0)
 -->
<!-- Title: avsall Pages: 1 -->
<svg width="6184pt" height="116pt"
 viewBox="0.00 0.00 6183.50 116.00" xmlns="http://www.w3.org/2000/svg" xmlns:xlink="http://www.w3.org/1999/xlink">
<g id="graph0" class="graph" transform="scale(1 1) rotate(0) translate(4 112)">
<title>avsall</title>
<polygon fill="white" stroke="transparent" points="-4,4 -4,-112 6179.5,-112 6179.5,4 -4,4"/>
<!-- loadDurFactor -->
<g id="node1" class="node">
<title>loadDurFactor</title>
<polygon fill="#bbffff" stroke="black" points="642,-108 496,-108 496,-72 642,-72 642,-108"/>
<text text-anchor="middle" x="569" y="-86.3" font-family="Times,serif" font-size="14.00">DD:loadDurFactor</text>
</g>
<!-- assumpSV -->
<g id="node2" class="node">
<title>assumpSV</title>
<polygon fill="mistyrose" stroke="black" points="328.5,-36 223.5,-36 223.5,0 328.5,0 328.5,-36"/>
<text text-anchor="middle" x="276" y="-14.3" font-family="Times,serif" font-size="14.00">A:assumpSV</text>
</g>
<!-- loadDurFactor&#45;&gt;assumpSV -->
<g id="edge1" class="edge">
<title>loadDurFactor&#45;&gt;assumpSV</title>
<path fill="none" stroke="black" d="M497.7,-71.97C449.09,-60.35 385.33,-45.12 338.67,-33.97"/>
<polygon fill="black" stroke="black" points="339.23,-30.51 328.69,-31.59 337.6,-37.32 339.23,-30.51"/>
</g>
<!-- assumpLDFC -->
<g id="node3" class="node">
<title>assumpLDFC</title>
<polygon fill="mistyrose" stroke="black" points="553,-36 427,-36 427,0 553,0 553,-36"/>
<text text-anchor="middle" x="490" y="-14.3" font-family="Times,serif" font-size="14.00">A:assumpLDFC</text>
</g>
<!-- loadDurFactor&#45;&gt;assumpLDFC -->
<g id="edge2" class="edge">
<title>loadDurFactor&#45;&gt;assumpLDFC</title>
<path fill="none" stroke="black" d="M549.47,-71.7C539.62,-62.97 527.51,-52.24 516.8,-42.75"/>
<polygon fill="black" stroke="black" points="519.11,-40.12 509.3,-36.1 514.47,-45.36 519.11,-40.12"/>
</g>
<!-- nFL -->
<g id="node4" class="node">
<title>nFL</title>
<polygon fill="#fff68f" stroke="black" points="68,-108 0,-108 0,-72 68,-72 68,-108"/>
<text text-anchor="middle" x="34" y="-86.3" font-family="Times,serif" font-size="14.00">IM:nFL</text>
</g>
<!-- nFL&#45;&gt;assumpSV -->
<g id="edge3" class="edge">
<title>nFL&#45;&gt;assumpSV</title>
<path fill="none" stroke="black" d="M68.14,-75.09C71.12,-74 74.1,-72.95 77,-72 122.08,-57.14 173.91,-43.44 213.38,-33.69"/>
<polygon fill="black" stroke="black" points="214.26,-37.08 223.14,-31.3 212.59,-30.28 214.26,-37.08"/>
</g>
<!-- dimlessLoad -->
<g id="node5" class="node">
<title>dimlessLoad</title>
<polygon fill="#fff68f" stroke="black" points="216,-108 86,-108 86,-72 216,-72 216,-108"/>
<text text-anchor="middle" x="151" y="-86.3" font-family="Times,serif" font-size="14.00">IM:dimlessLoad</text>
</g>
<!-- dimlessLoad&#45;&gt;assumpSV -->
<g id="edge4" class="edge">
<title>dimlessLoad&#45;&gt;assumpSV</title>
<path fill="none" stroke="black" d="M181.58,-71.88C198.07,-62.64 218.62,-51.13 236.34,-41.21"/>
<polygon fill="black" stroke="black" points="238.29,-44.13 245.3,-36.19 234.87,-38.02 238.29,-44.13"/>
</g>
<!-- sdfTol -->
<g id="node6" class="node">
<title>sdfTol</title>
<polygon fill="#fff68f" stroke="black" points="317.5,-108 234.5,-108 234.5,-72 317.5,-72 317.5,-108"/>
<text text-anchor="middle" x="276" y="-86.3" font-family="Times,serif" font-size="14.00">IM:sdfTol</text>
</g>
<!-- sdfTol&#45;&gt;assumpSV -->
<g id="edge5" class="edge">
<title>sdfTol&#45;&gt;assumpSV</title>
<path fill="none" stroke="black" d="M276,-71.7C276,-63.98 276,-54.71 276,-46.11"/>
<polygon fill="black" stroke="black" points="279.5,-46.1 276,-36.1 272.5,-46.1 279.5,-46.1"/>
</g>
<!-- calcInternalBlastRisk -->
<g id="node7" class="node">
<title>calcInternalBlastRisk</title>
<polygon fill="lavender" stroke="black" points="853.5,-108 660.5,-108 660.5,-72 853.5,-72 853.5,-108"/>
<text text-anchor="middle" x="757" y="-86.3" font-family="Times,serif" font-size="14.00">LC:calcInternalBlastRisk</text>
</g>
<!-- assumpES -->
<g id="node8" class="node">
<title>assumpES</title>
<polygon fill="mistyrose" stroke="black" points="810,-36 704,-36 704,0 810,0 810,-36"/>
<text text-anchor="middle" x="757" y="-14.3" font-family="Times,serif" font-size="14.00">A:assumpES</text>
</g>
<!-- calcInternalBlastRisk&#45;&gt;assumpES -->
<g id="edge6" class="edge">
<title>calcInternalBlastRisk&#45;&gt;assumpES</title>
<path fill="none" stroke="black" d="M757,-71.7C757,-63.98 757,-54.71 757,-46.11"/>
<polygon fill="black" stroke="black" points="760.5,-46.1 757,-36.1 753.5,-46.1 760.5,-46.1"/>
</g>
<!-- varValsOfmkE -->
<g id="node9" class="node">
<title>varValsOfmkE</title>
<polygon fill="lavender" stroke="black" points="478,-108 336,-108 336,-72 478,-72 478,-108"/>
<text text-anchor="middle" x="407" y="-86.3" font-family="Times,serif" font-size="14.00">LC:varValsOfmkE</text>
</g>
<!-- varValsOfmkE&#45;&gt;assumpSV -->
<g id="edge7" class="edge">
<title>varValsOfmkE&#45;&gt;assumpSV</title>
<path fill="none" stroke="black" d="M374.95,-71.88C357.51,-62.55 335.73,-50.92 317.06,-40.94"/>
<polygon fill="black" stroke="black" points="318.64,-37.82 308.17,-36.19 315.34,-43.99 318.64,-37.82"/>
</g>
<!-- varValsOfmkE&#45;&gt;assumpLDFC -->
<g id="edge8" class="edge">
<title>varValsOfmkE&#45;&gt;assumpLDFC</title>
<path fill="none" stroke="black" d="M427.52,-71.7C437.87,-62.97 450.59,-52.24 461.84,-42.75"/>
<polygon fill="black" stroke="black" points="464.33,-45.23 469.72,-36.1 459.82,-39.88 464.33,-45.23"/>
</g>
<!-- accMoreThanSingleLite -->
<g id="node10" class="node">
<title>accMoreThanSingleLite</title>
<polygon fill="lavender" stroke="black" points="1080.5,-108 871.5,-108 871.5,-72 1080.5,-72 1080.5,-108"/>
<text text-anchor="middle" x="976" y="-86.3" font-family="Times,serif" font-size="14.00">LC:accMoreThanSingleLite</text>
</g>
<!-- assumpGL -->
<g id="node11" class="node">
<title>assumpGL</title>
<polygon fill="mistyrose" stroke="black" points="1029,-36 923,-36 923,0 1029,0 1029,-36"/>
<text text-anchor="middle" x="976" y="-14.3" font-family="Times,serif" font-size="14.00">A:assumpGL</text>
</g>
<!-- accMoreThanSingleLite&#45;&gt;assumpGL -->
<g id="edge9" class="edge">
<title>accMoreThanSingleLite&#45;&gt;assumpGL</title>
<path fill="none" stroke="black" d="M976,-71.7C976,-63.98 976,-54.71 976,-46.11"/>
<polygon fill="black" stroke="black" points="979.5,-46.1 976,-36.1 972.5,-46.1 979.5,-46.1"/>
</g>
<!-- accMoreBoundaryConditions -->
<g id="node12" class="node">
<title>accMoreBoundaryConditions</title>
<polygon fill="lavender" stroke="black" points="1345.5,-108 1098.5,-108 1098.5,-72 1345.5,-72 1345.5,-108"/>
<text text-anchor="middle" x="1222" y="-86.3" font-family="Times,serif" font-size="14.00">LC:accMoreBoundaryConditions</text>
</g>
<!-- assumpBC -->
<g id="node13" class="node">
<title>assumpBC</title>
<polygon fill="mistyrose" stroke="black" points="1275.5,-36 1168.5,-36 1168.5,0 1275.5,0 1275.5,-36"/>
<text text-anchor="middle" x="1222" y="-14.3" font-family="Times,serif" font-size="14.00">A:assumpBC</text>
</g>
<!-- accMoreBoundaryConditions&#45;&gt;assumpBC -->
<g id="edge10" class="edge">
<title>accMoreBoundaryConditions&#45;&gt;assumpBC</title>
<path fill="none" stroke="black" d="M1222,-71.7C1222,-63.98 1222,-54.71 1222,-46.11"/>
<polygon fill="black" stroke="black" points="1225.5,-46.1 1222,-36.1 1218.5,-46.1 1225.5,-46.1"/>
</g>
<!-- considerMoreThanFlexGlass -->
<g id="node14" class="node">
<title>considerMoreThanFlexGlass</title>
<polygon fill="lavender" stroke="black" points="1608,-108 1364,-108 1364,-72 1608,-72 1608,-108"/>
<text text-anchor="middle" x="1486" y="-86.3" font-family="Times,serif" font-size="14.00">LC:considerMoreThanFlexGlass</text>
</g>
<!-- assumpRT -->
<g id="node15" class="node">
<title>assumpRT</title>
<polygon fill="mistyrose" stroke="black" points="1538.5,-36 1433.5,-36 1433.5,0 1538.5,0 1538.5,-36"/>
<text text-anchor="middle" x="1486" y="-14.3" font-family="Times,serif" font-size="14.00">A:assumpRT</text>
</g>
<!-- considerMoreThanFlexGlass&#45;&gt;assumpRT -->
<g id="edge11" class="edge">
<title>considerMoreThanFlexGlass&#45;&gt;assumpRT</title>
<path fill="none" stroke="black" d="M1486,-71.7C1486,-63.98 1486,-54.71 1486,-46.11"/>
<polygon fill="black" stroke="black" points="1489.5,-46.1 1486,-36.1 1482.5,-46.1 1489.5,-46.1"/>
</g>
<!-- accAlteredGlass -->
<g id="node16" class="node">
<title>accAlteredGlass</title>
<polygon fill="lavender" stroke="black" points="1784,-108 1626,-108 1626,-72 1784,-72 1784,-108"/>
<text text-anchor="middle" x="1705" y="-86.3" font-family="Times,serif" font-size="14.00">UC:accAlteredGlass</text>
</g>
<!-- assumpGC -->
<g id="node17" class="node">
<title>assumpGC</title>
<polygon fill="mistyrose" stroke="black" points="1758.5,-36 1651.5,-36 1651.5,0 1758.5,0 1758.5,-36"/>
<text text-anchor="middle" x="1705" y="-14.3" font-family="Times,serif" font-size="14.00">A:assumpGC</text>
</g>
<!-- accAlteredGlass&#45;&gt;assumpGC -->
<g id="edge12" class="edge">
<title>accAlteredGlass&#45;&gt;assumpGC</title>
<path fill="none" stroke="black" d="M1705,-71.7C1705,-63.98 1705,-54.71 1705,-46.11"/>
<polygon fill="black" stroke="black" points="1708.5,-46.1 1705,-36.1 1701.5,-46.1 1708.5,-46.1"/>
</g>
<!-- assumpGT -->
<g id="node18" class="node">
<title>assumpGT</title>
<polygon fill="mistyrose" stroke="black" points="1883,-36 1777,-36 1777,0 1883,0 1883,-36"/>
<text text-anchor="middle" x="1830" y="-14.3" font-family="Times,serif" font-size="14.00">A:assumpGT</text>
</g>
<!-- minThick -->
<g id="node19" class="node">
<title>minThick</title>
<polygon fill="#bbffff" stroke="black" points="1911.5,-108 1802.5,-108 1802.5,-72 1911.5,-72 1911.5,-108"/>
<text text-anchor="middle" x="1857" y="-86.3" font-family="Times,serif" font-size="14.00">DD:minThick</text>
</g>
<!-- glassTypeFac -->
<g id="node20" class="node">
<title>glassTypeFac</title>
<polygon fill="#bbffff" stroke="black" points="2000.5,-108 1929.5,-108 1929.5,-72 2000.5,-72 2000.5,-108"/>
<text text-anchor="middle" x="1965" y="-86.3" font-family="Times,serif" font-size="14.00">DD:gTF</text>
</g>
<!-- stdOffDist -->
<g id="node21" class="node">
<title>stdOffDist</title>
<polygon fill="#bbffff" stroke="black" points="2153,-108 2019,-108 2019,-72 2153,-72 2153,-108"/>
<text text-anchor="middle" x="2086" y="-86.3" font-family="Times,serif" font-size="14.00">DD:standOffDist</text>
</g>
<!-- aR -->
<g id="node22" class="node">
<title>aR</title>
<polygon fill="#bbffff" stroke="black" points="2299,-108 2171,-108 2171,-72 2299,-72 2299,-108"/>
<text text-anchor="middle" x="2235" y="-86.3" font-family="Times,serif" font-size="14.00">DD:aspectRatio</text>
</g>
<!-- eqTNTChar -->
<g id="node23" class="node">
<title>eqTNTChar</title>
<polygon fill="#bbffff" stroke="black" points="2422.5,-108 2317.5,-108 2317.5,-72 2422.5,-72 2422.5,-108"/>
<text text-anchor="middle" x="2370" y="-86.3" font-family="Times,serif" font-size="14.00">DD:eqTNTW</text>
</g>
<!-- demandq -->
<g id="node24" class="node">
<title>demandq</title>
<polygon fill="#bbffff" stroke="black" points="2577.5,-108 2440.5,-108 2440.5,-72 2577.5,-72 2577.5,-108"/>
<text text-anchor="middle" x="2509" y="-86.3" font-family="Times,serif" font-size="14.00">DD:calofDemand</text>
</g>
<!-- isSafeProb -->
<g id="node25" class="node">
<title>isSafeProb</title>
<polygon fill="pink" stroke="black" points="2718,-108 2596,-108 2596,-72 2718,-72 2718,-108"/>
<text text-anchor="middle" x="2657" y="-86.3" font-family="Times,serif" font-size="14.00">TM:isSafeProb</text>
</g>
<!-- isSafeLoad -->
<g id="node26" class="node">
<title>isSafeLoad</title>
<polygon fill="pink" stroke="black" points="2858,-108 2736,-108 2736,-72 2858,-72 2858,-108"/>
<text text-anchor="middle" x="2797" y="-86.3" font-family="Times,serif" font-size="14.00">TM:isSafeLoad</text>
</g>
<!-- riskFun -->
<g id="node27" class="node">
<title>riskFun</title>
<polygon fill="#fff68f" stroke="black" points="2971.5,-108 2876.5,-108 2876.5,-72 2971.5,-72 2971.5,-108"/>
<text text-anchor="middle" x="2924" y="-86.3" font-family="Times,serif" font-size="14.00">IM:riskFun</text>
</g>
<!-- stressDistFac -->
<g id="node28" class="node">
<title>stressDistFac</title>
<polygon fill="#fff68f" stroke="black" points="3128,-108 2990,-108 2990,-72 3128,-72 3128,-108"/>
<text text-anchor="middle" x="3059" y="-86.3" font-family="Times,serif" font-size="14.00">IM:stressDistFac</text>
</g>
<!-- tolLoad -->
<g id="node29" class="node">
<title>tolLoad</title>
<polygon fill="#fff68f" stroke="black" points="3240,-108 3146,-108 3146,-72 3240,-72 3240,-108"/>
<text text-anchor="middle" x="3193" y="-86.3" font-family="Times,serif" font-size="14.00">IM:tolLoad</text>
</g>
<!-- probBr -->
<g id="node30" class="node">
<title>probBr</title>
<polygon fill="#fff68f" stroke="black" points="3390,-108 3258,-108 3258,-72 3390,-72 3390,-108"/>
<text text-anchor="middle" x="3324" y="-86.3" font-family="Times,serif" font-size="14.00">IM:probOfBreak</text>
</g>
<!-- lResistance -->
<g id="node31" class="node">
<title>lResistance</title>
<polygon fill="#fff68f" stroke="black" points="3545.5,-108 3408.5,-108 3408.5,-72 3545.5,-72 3545.5,-108"/>
<text text-anchor="middle" x="3477" y="-86.3" font-family="Times,serif" font-size="14.00">IM:calofCapacity</text>
</g>
<!-- isSafePb -->
<g id="node32" class="node">
<title>isSafePb</title>
<polygon fill="#fff68f" stroke="black" points="3666.5,-108 3563.5,-108 3563.5,-72 3666.5,-72 3666.5,-108"/>
<text text-anchor="middle" x="3615" y="-86.3" font-family="Times,serif" font-size="14.00">IM:isSafePb</text>
</g>
<!-- isSafeLR -->
<g id="node33" class="node">
<title>isSafeLR</title>
<polygon fill="#fff68f" stroke="black" points="3789,-108 3685,-108 3685,-72 3789,-72 3789,-108"/>
<text text-anchor="middle" x="3737" y="-86.3" font-family="Times,serif" font-size="14.00">IM:isSafeLR</text>
</g>
<!-- inputValues -->
<g id="node34" class="node">
<title>inputValues</title>
<polygon fill="ivory" stroke="black" points="3932.5,-108 3807.5,-108 3807.5,-72 3932.5,-72 3932.5,-108"/>
<text text-anchor="middle" x="3870" y="-86.3" font-family="Times,serif" font-size="14.00">FR:inputValues</text>
</g>
<!-- sysSetValsFollowingAssumps -->
<g id="node35" class="node">
<title>sysSetValsFollowingAssumps</title>
<polygon fill="ivory" stroke="black" points="4201.5,-108 3950.5,-108 3950.5,-72 4201.5,-72 4201.5,-108"/>
<text text-anchor="middle" x="4076" y="-86.3" font-family="Times,serif" font-size="14.00">FR:sysSetValsFollowingAssumps</text>
</g>
<!-- checkInputWithDataCons -->
<g id="node36" class="node">
<title>checkInputWithDataCons</title>
<polygon fill="ivory" stroke="black" points="4442.5,-108 4219.5,-108 4219.5,-72 4442.5,-72 4442.5,-108"/>
<text text-anchor="middle" x="4331" y="-86.3" font-family="Times,serif" font-size="14.00">FR:checkInputWithDataCons</text>
</g>
<!-- outputValsAndKnownValues -->
<g id="node37" class="node">
<title>outputValsAndKnownValues</title>
<polygon fill="ivory" stroke="black" points="4701.5,-108 4460.5,-108 4460.5,-72 4701.5,-72 4701.5,-108"/>
<text text-anchor="middle" x="4581" y="-86.3" font-family="Times,serif" font-size="14.00">FR:outputValsAndKnownValues</text>
</g>
<!-- checkGlassSafety -->
<g id="node38" class="node">
<title>checkGlassSafety</title>
<polygon fill="ivory" stroke="black" points="4886.5,-108 4719.5,-108 4719.5,-72 4886.5,-72 4886.5,-108"/>
<text text-anchor="middle" x="4803" y="-86.3" font-family="Times,serif" font-size="14.00">FR:checkGlassSafety</text>
</g>
<!-- outputValues -->
<g id="node39" class="node">
<title>outputValues</title>
<polygon fill="ivory" stroke="black" points="5039.5,-108 4904.5,-108 4904.5,-72 5039.5,-72 5039.5,-108"/>
<text text-anchor="middle" x="4972" y="-86.3" font-family="Times,serif" font-size="14.00">FR:outputValues</text>
</g>
<!-- correct -->
<g id="node40" class="node">
<title>correct</title>
<polygon fill="ivory" stroke="black" points="5162,-108 5058,-108 5058,-72 5162,-72 5162,-108"/>
<text text-anchor="middle" x="5110" y="-86.3" font-family="Times,serif" font-size="14.00">NFR:correct</text>
</g>
<!-- verifiable -->
<g id="node41" class="node">
<title>verifiable</title>
<polygon fill="ivory" stroke="black" points="5300,-108 5180,-108 5180,-72 5300,-72 5300,-108"/>
<text text-anchor="middle" x="5240" y="-86.3" font-family="Times,serif" font-size="14.00">NFR:verifiable</text>
</g>
<!-- understandable -->
<g id="node42" class="node">
<title>understandable</title>
<polygon fill="ivory" stroke="black" points="5483.5,-108 5318.5,-108 5318.5,-72 5483.5,-72 5483.5,-108"/>
<text text-anchor="middle" x="5401" y="-86.3" font-family="Times,serif" font-size="14.00">NFR:understandable</text>
</g>
<!-- reusable -->
<g id="node43" class="node">
<title>reusable</title>
<polygon fill="ivory" stroke="black" points="5616.5,-108 5501.5,-108 5501.5,-72 5616.5,-72 5616.5,-108"/>
<text text-anchor="middle" x="5559" y="-86.3" font-family="Times,serif" font-size="14.00">NFR:reusable</text>
</g>
<!-- maintainable -->
<g id="node44" class="node">
<title>maintainable</title>
<polygon fill="ivory" stroke="black" points="5781,-108 5635,-108 5635,-72 5781,-72 5781,-108"/>
<text text-anchor="middle" x="5708" y="-86.3" font-family="Times,serif" font-size="14.00">NFR:maintainable</text>
</g>
<!-- portable -->
<g id="node45" class="node">
<title>portable</title>
<polygon fill="ivory" stroke="black" points="5912.5,-108 5799.5,-108 5799.5,-72 5912.5,-72 5912.5,-108"/>
<text text-anchor="middle" x="5856" y="-86.3" font-family="Times,serif" font-size="14.00">NFR:portable</text>
</g>
<!-- predictWithstandOfCertDeg -->
<g id="node46" class="node">
<title>predictWithstandOfCertDeg</title>
<polygon fill="lavender" stroke="black" points="6175.5,-108 5930.5,-108 5930.5,-72 6175.5,-72 6175.5,-108"/>
<text text-anchor="middle" x="6053" y="-86.3" font-family="Times,serif" font-size="14.00">UC:predictWithstandOfCertDeg</text>
</g>
</g>
</svg>
