<?xml version="1.0" encoding="UTF-8" standalone="no"?>
<!DOCTYPE svg PUBLIC "-//W3C//DTD SVG 1.1//EN"
 "http://www.w3.org/Graphics/SVG/1.1/DTD/svg11.dtd">
<!-- Generated by graphviz version 2.43.0 (0)
 -->
<!-- Title: avsall Pages: 1 -->
<svg width="3955pt" height="116pt"
 viewBox="0.00 0.00 3955.00 116.00" xmlns="http://www.w3.org/2000/svg" xmlns:xlink="http://www.w3.org/1999/xlink">
<g id="graph0" class="graph" transform="scale(1 1) rotate(0) translate(4 112)">
<title>avsall</title>
<polygon fill="white" stroke="transparent" points="-4,4 -4,-112 3951,-112 3951,4 -4,4"/>
<!-- dataDefn -->
<g id="node1" class="node">
<title>dataDefn</title>
<polygon fill="#bbffff" stroke="black" points="420,-108 283,-108 283,-72 420,-72 420,-108"/>
<text text-anchor="middle" x="351.5" y="-86.3" font-family="Times,serif" font-size="14.00">DD:calofDemand</text>
</g>
<!-- assumpSV -->
<g id="node2" class="node">
<title>assumpSV</title>
<polygon fill="mistyrose" stroke="black" points="105,-36 0,-36 0,0 105,0 105,-36"/>
<text text-anchor="middle" x="52.5" y="-14.3" font-family="Times,serif" font-size="14.00">A:assumpSV</text>
</g>
<!-- dataDefn&#45;&gt;assumpSV -->
<g id="edge1" class="edge">
<title>dataDefn:loadDurFactor&#45;&gt;assumpSV</title>
<path fill="none" stroke="black" d="M282.9,-72.94C232.42,-61.12 164.31,-45.18 115.26,-33.69"/>
<polygon fill="black" stroke="black" points="115.94,-30.26 105.41,-31.39 114.34,-37.07 115.94,-30.26"/>
</g>
<!-- assumpLDFC -->
<g id="node3" class="node">
<title>assumpLDFC</title>
<polygon fill="mistyrose" stroke="black" points="335.5,-36 209.5,-36 209.5,0 335.5,0 335.5,-36"/>
<text text-anchor="middle" x="272.5" y="-14.3" font-family="Times,serif" font-size="14.00">A:assumpLDFC</text>
</g>
<!-- dataDefn&#45;&gt;assumpLDFC -->
<g id="edge2" class="edge">
<title>dataDefn:loadDurFactor&#45;&gt;assumpLDFC</title>
<path fill="none" stroke="black" d="M331.97,-71.7C322.12,-62.97 310.01,-52.24 299.3,-42.75"/>
<polygon fill="black" stroke="black" points="301.61,-40.12 291.8,-36.1 296.97,-45.36 301.61,-40.12"/>
</g>
<!-- theory -->
<g id="node4" class="node">
<title>theory</title>
<polygon fill="#fff68f" stroke="black" points="104.5,-108 0.5,-108 0.5,-72 104.5,-72 104.5,-108"/>
<text text-anchor="middle" x="52.5" y="-86.3" font-family="Times,serif" font-size="14.00">IM:isSafeLR</text>
</g>
<!-- theory&#45;&gt;assumpSV -->
<g id="edge3" class="edge">
<title>theory:nFL&#45;&gt;assumpSV</title>
<path fill="none" stroke="black" d="M40.67,-71.7C39.08,-63.98 38.62,-54.71 39.31,-46.11"/>
<polygon fill="black" stroke="black" points="42.79,-46.49 40.71,-36.1 35.86,-45.52 42.79,-46.49"/>
</g>
<!-- theory&#45;&gt;assumpSV -->
<g id="edge4" class="edge">
<title>theory:dimlessLoad&#45;&gt;assumpSV</title>
<path fill="none" stroke="black" d="M52.5,-71.7C52.5,-63.98 52.5,-54.71 52.5,-46.11"/>
<polygon fill="black" stroke="black" points="56,-46.1 52.5,-36.1 49,-46.1 56,-46.1"/>
</g>
<!-- theory&#45;&gt;assumpSV -->
<g id="edge5" class="edge">
<title>theory:sdfTol&#45;&gt;assumpSV</title>
<path fill="none" stroke="black" d="M64.33,-71.7C65.92,-63.98 66.38,-54.71 65.69,-46.11"/>
<polygon fill="black" stroke="black" points="69.14,-45.52 64.29,-36.1 62.21,-46.49 69.14,-45.52"/>
</g>
<!-- calcInternalBlastRisk -->
<g id="node5" class="node">
<title>calcInternalBlastRisk</title>
<polygon fill="lavender" stroke="black" points="631,-108 438,-108 438,-72 631,-72 631,-108"/>
<text text-anchor="middle" x="534.5" y="-86.3" font-family="Times,serif" font-size="14.00">LC:calcInternalBlastRisk</text>
</g>
<!-- assumpES -->
<g id="node6" class="node">
<title>assumpES</title>
<polygon fill="mistyrose" stroke="black" points="587.5,-36 481.5,-36 481.5,0 587.5,0 587.5,-36"/>
<text text-anchor="middle" x="534.5" y="-14.3" font-family="Times,serif" font-size="14.00">A:assumpES</text>
</g>
<!-- calcInternalBlastRisk&#45;&gt;assumpES -->
<g id="edge6" class="edge">
<title>calcInternalBlastRisk&#45;&gt;assumpES</title>
<path fill="none" stroke="black" d="M534.5,-71.7C534.5,-63.98 534.5,-54.71 534.5,-46.11"/>
<polygon fill="black" stroke="black" points="538,-46.1 534.5,-36.1 531,-46.1 538,-46.1"/>
</g>
<!-- varValsOfmkE -->
<g id="node7" class="node">
<title>varValsOfmkE</title>
<polygon fill="lavender" stroke="black" points="264.5,-108 122.5,-108 122.5,-72 264.5,-72 264.5,-108"/>
<text text-anchor="middle" x="193.5" y="-86.3" font-family="Times,serif" font-size="14.00">LC:varValsOfmkE</text>
</g>
<!-- varValsOfmkE&#45;&gt;assumpSV -->
<g id="edge7" class="edge">
<title>varValsOfmkE&#45;&gt;assumpSV</title>
<path fill="none" stroke="black" d="M159.01,-71.88C140.06,-62.47 116.37,-50.71 96.14,-40.67"/>
<polygon fill="black" stroke="black" points="97.64,-37.5 87.13,-36.19 94.53,-43.77 97.64,-37.5"/>
</g>
<!-- varValsOfmkE&#45;&gt;assumpLDFC -->
<g id="edge8" class="edge">
<title>varValsOfmkE&#45;&gt;assumpLDFC</title>
<path fill="none" stroke="black" d="M213.03,-71.7C222.88,-62.97 234.99,-52.24 245.7,-42.75"/>
<polygon fill="black" stroke="black" points="248.03,-45.36 253.2,-36.1 243.39,-40.12 248.03,-45.36"/>
</g>
<!-- accMoreThanSingleLite -->
<g id="node8" class="node">
<title>accMoreThanSingleLite</title>
<polygon fill="lavender" stroke="black" points="858,-108 649,-108 649,-72 858,-72 858,-108"/>
<text text-anchor="middle" x="753.5" y="-86.3" font-family="Times,serif" font-size="14.00">LC:accMoreThanSingleLite</text>
</g>
<!-- assumpGL -->
<g id="node9" class="node">
<title>assumpGL</title>
<polygon fill="mistyrose" stroke="black" points="806.5,-36 700.5,-36 700.5,0 806.5,0 806.5,-36"/>
<text text-anchor="middle" x="753.5" y="-14.3" font-family="Times,serif" font-size="14.00">A:assumpGL</text>
</g>
<!-- accMoreThanSingleLite&#45;&gt;assumpGL -->
<g id="edge9" class="edge">
<title>accMoreThanSingleLite&#45;&gt;assumpGL</title>
<path fill="none" stroke="black" d="M753.5,-71.7C753.5,-63.98 753.5,-54.71 753.5,-46.11"/>
<polygon fill="black" stroke="black" points="757,-46.1 753.5,-36.1 750,-46.1 757,-46.1"/>
</g>
<!-- accMoreBoundaryConditions -->
<g id="node10" class="node">
<title>accMoreBoundaryConditions</title>
<polygon fill="lavender" stroke="black" points="1123,-108 876,-108 876,-72 1123,-72 1123,-108"/>
<text text-anchor="middle" x="999.5" y="-86.3" font-family="Times,serif" font-size="14.00">LC:accMoreBoundaryConditions</text>
</g>
<!-- assumpBC -->
<g id="node11" class="node">
<title>assumpBC</title>
<polygon fill="mistyrose" stroke="black" points="1053,-36 946,-36 946,0 1053,0 1053,-36"/>
<text text-anchor="middle" x="999.5" y="-14.3" font-family="Times,serif" font-size="14.00">A:assumpBC</text>
</g>
<!-- accMoreBoundaryConditions&#45;&gt;assumpBC -->
<g id="edge10" class="edge">
<title>accMoreBoundaryConditions&#45;&gt;assumpBC</title>
<path fill="none" stroke="black" d="M999.5,-71.7C999.5,-63.98 999.5,-54.71 999.5,-46.11"/>
<polygon fill="black" stroke="black" points="1003,-46.1 999.5,-36.1 996,-46.1 1003,-46.1"/>
</g>
<!-- considerMoreThanFlexGlass -->
<g id="node12" class="node">
<title>considerMoreThanFlexGlass</title>
<polygon fill="lavender" stroke="black" points="1385.5,-108 1141.5,-108 1141.5,-72 1385.5,-72 1385.5,-108"/>
<text text-anchor="middle" x="1263.5" y="-86.3" font-family="Times,serif" font-size="14.00">LC:considerMoreThanFlexGlass</text>
</g>
<!-- assumpRT -->
<g id="node13" class="node">
<title>assumpRT</title>
<polygon fill="mistyrose" stroke="black" points="1316,-36 1211,-36 1211,0 1316,0 1316,-36"/>
<text text-anchor="middle" x="1263.5" y="-14.3" font-family="Times,serif" font-size="14.00">A:assumpRT</text>
</g>
<!-- considerMoreThanFlexGlass&#45;&gt;assumpRT -->
<g id="edge11" class="edge">
<title>considerMoreThanFlexGlass&#45;&gt;assumpRT</title>
<path fill="none" stroke="black" d="M1263.5,-71.7C1263.5,-63.98 1263.5,-54.71 1263.5,-46.11"/>
<polygon fill="black" stroke="black" points="1267,-46.1 1263.5,-36.1 1260,-46.1 1267,-46.1"/>
</g>
<!-- accAlteredGlass -->
<g id="node14" class="node">
<title>accAlteredGlass</title>
<polygon fill="lavender" stroke="black" points="1561.5,-108 1403.5,-108 1403.5,-72 1561.5,-72 1561.5,-108"/>
<text text-anchor="middle" x="1482.5" y="-86.3" font-family="Times,serif" font-size="14.00">UC:accAlteredGlass</text>
</g>
<!-- assumpGC -->
<g id="node15" class="node">
<title>assumpGC</title>
<polygon fill="mistyrose" stroke="black" points="1536,-36 1429,-36 1429,0 1536,0 1536,-36"/>
<text text-anchor="middle" x="1482.5" y="-14.3" font-family="Times,serif" font-size="14.00">A:assumpGC</text>
</g>
<!-- accAlteredGlass&#45;&gt;assumpGC -->
<g id="edge12" class="edge">
<title>accAlteredGlass&#45;&gt;assumpGC</title>
<path fill="none" stroke="black" d="M1482.5,-71.7C1482.5,-63.98 1482.5,-54.71 1482.5,-46.11"/>
<polygon fill="black" stroke="black" points="1486,-46.1 1482.5,-36.1 1479,-46.1 1486,-46.1"/>
</g>
<!-- assumpGT -->
<g id="node16" class="node">
<title>assumpGT</title>
<polygon fill="mistyrose" stroke="black" points="1660.5,-36 1554.5,-36 1554.5,0 1660.5,0 1660.5,-36"/>
<text text-anchor="middle" x="1607.5" y="-14.3" font-family="Times,serif" font-size="14.00">A:assumpGT</text>
</g>
<!-- inputValues -->
<g id="node17" class="node">
<title>inputValues</title>
<polygon fill="ivory" stroke="black" points="1704,-108 1579,-108 1579,-72 1704,-72 1704,-108"/>
<text text-anchor="middle" x="1641.5" y="-86.3" font-family="Times,serif" font-size="14.00">FR:inputValues</text>
</g>
<!-- sysSetValsFollowingAssumps -->
<g id="node18" class="node">
<title>sysSetValsFollowingAssumps</title>
<polygon fill="ivory" stroke="black" points="1973,-108 1722,-108 1722,-72 1973,-72 1973,-108"/>
<text text-anchor="middle" x="1847.5" y="-86.3" font-family="Times,serif" font-size="14.00">FR:sysSetValsFollowingAssumps</text>
</g>
<!-- checkInputWithDataCons -->
<g id="node19" class="node">
<title>checkInputWithDataCons</title>
<polygon fill="ivory" stroke="black" points="2214,-108 1991,-108 1991,-72 2214,-72 2214,-108"/>
<text text-anchor="middle" x="2102.5" y="-86.3" font-family="Times,serif" font-size="14.00">FR:checkInputWithDataCons</text>
</g>
<!-- outputValsAndKnownValues -->
<g id="node20" class="node">
<title>outputValsAndKnownValues</title>
<polygon fill="ivory" stroke="black" points="2473,-108 2232,-108 2232,-72 2473,-72 2473,-108"/>
<text text-anchor="middle" x="2352.5" y="-86.3" font-family="Times,serif" font-size="14.00">FR:outputValsAndKnownValues</text>
</g>
<!-- checkGlassSafety -->
<g id="node21" class="node">
<title>checkGlassSafety</title>
<polygon fill="ivory" stroke="black" points="2658,-108 2491,-108 2491,-72 2658,-72 2658,-108"/>
<text text-anchor="middle" x="2574.5" y="-86.3" font-family="Times,serif" font-size="14.00">FR:checkGlassSafety</text>
</g>
<!-- outputValues -->
<g id="node22" class="node">
<title>outputValues</title>
<polygon fill="ivory" stroke="black" points="2811,-108 2676,-108 2676,-72 2811,-72 2811,-108"/>
<text text-anchor="middle" x="2743.5" y="-86.3" font-family="Times,serif" font-size="14.00">FR:outputValues</text>
</g>
<!-- correct -->
<g id="node23" class="node">
<title>correct</title>
<polygon fill="ivory" stroke="black" points="2933.5,-108 2829.5,-108 2829.5,-72 2933.5,-72 2933.5,-108"/>
<text text-anchor="middle" x="2881.5" y="-86.3" font-family="Times,serif" font-size="14.00">NFR:correct</text>
</g>
<!-- verifiable -->
<g id="node24" class="node">
<title>verifiable</title>
<polygon fill="ivory" stroke="black" points="3071.5,-108 2951.5,-108 2951.5,-72 3071.5,-72 3071.5,-108"/>
<text text-anchor="middle" x="3011.5" y="-86.3" font-family="Times,serif" font-size="14.00">NFR:verifiable</text>
</g>
<!-- understandable -->
<g id="node25" class="node">
<title>understandable</title>
<polygon fill="ivory" stroke="black" points="3255,-108 3090,-108 3090,-72 3255,-72 3255,-108"/>
<text text-anchor="middle" x="3172.5" y="-86.3" font-family="Times,serif" font-size="14.00">NFR:understandable</text>
</g>
<!-- reusable -->
<g id="node26" class="node">
<title>reusable</title>
<polygon fill="ivory" stroke="black" points="3388,-108 3273,-108 3273,-72 3388,-72 3388,-108"/>
<text text-anchor="middle" x="3330.5" y="-86.3" font-family="Times,serif" font-size="14.00">NFR:reusable</text>
</g>
<!-- maintainable -->
<g id="node27" class="node">
<title>maintainable</title>
<polygon fill="ivory" stroke="black" points="3552.5,-108 3406.5,-108 3406.5,-72 3552.5,-72 3552.5,-108"/>
<text text-anchor="middle" x="3479.5" y="-86.3" font-family="Times,serif" font-size="14.00">NFR:maintainable</text>
</g>
<!-- portable -->
<g id="node28" class="node">
<title>portable</title>
<polygon fill="ivory" stroke="black" points="3684,-108 3571,-108 3571,-72 3684,-72 3684,-108"/>
<text text-anchor="middle" x="3627.5" y="-86.3" font-family="Times,serif" font-size="14.00">NFR:portable</text>
</g>
<!-- predictWithstandOfCertDeg -->
<g id="node29" class="node">
<title>predictWithstandOfCertDeg</title>
<polygon fill="lavender" stroke="black" points="3947,-108 3702,-108 3702,-72 3947,-72 3947,-108"/>
<text text-anchor="middle" x="3824.5" y="-86.3" font-family="Times,serif" font-size="14.00">UC:predictWithstandOfCertDeg</text>
</g>
</g>
</svg>
