<?xml version="1.0" encoding="UTF-8" standalone="no"?>
<!DOCTYPE svg PUBLIC "-//W3C//DTD SVG 1.1//EN"
 "http://www.w3.org/Graphics/SVG/1.1/DTD/svg11.dtd">
<!-- Generated by graphviz version 2.43.0 (0)
 -->
<!-- Title: avsall Pages: 1 -->
<svg width="4758pt" height="116pt"
 viewBox="0.00 0.00 4758.00 116.00" xmlns="http://www.w3.org/2000/svg" xmlns:xlink="http://www.w3.org/1999/xlink">
<g id="graph0" class="graph" transform="scale(1 1) rotate(0) translate(4 112)">
<title>avsall</title>
<polygon fill="white" stroke="transparent" points="-4,4 -4,-112 4754,-112 4754,4 -4,4"/>
<!-- loadDurFactor -->
<g id="node1" class="node">
<title>loadDurFactor</title>
<polygon fill="#bbffff" stroke="black" points="428.5,-108 282.5,-108 282.5,-72 428.5,-72 428.5,-108"/>
<text text-anchor="middle" x="355.5" y="-86.3" font-family="Times,serif" font-size="14.00">DD:loadDurFactor</text>
</g>
<!-- assumpSV -->
<g id="node2" class="node">
<title>assumpSV</title>
<polygon fill="mistyrose" stroke="black" points="105,-36 0,-36 0,0 105,0 105,-36"/>
<text text-anchor="middle" x="52.5" y="-14.3" font-family="Times,serif" font-size="14.00">A:assumpSV</text>
</g>
<!-- loadDurFactor&#45;&gt;assumpSV -->
<g id="edge1" class="edge">
<title>loadDurFactor&#45;&gt;assumpSV</title>
<path fill="none" stroke="black" d="M282.15,-72.05C231.03,-60.24 163.56,-44.66 114.99,-33.44"/>
<polygon fill="black" stroke="black" points="115.77,-30.02 105.24,-31.18 114.19,-36.84 115.77,-30.02"/>
</g>
<!-- assumpLDFC -->
<g id="node3" class="node">
<title>assumpLDFC</title>
<polygon fill="mistyrose" stroke="black" points="337.5,-36 211.5,-36 211.5,0 337.5,0 337.5,-36"/>
<text text-anchor="middle" x="274.5" y="-14.3" font-family="Times,serif" font-size="14.00">A:assumpLDFC</text>
</g>
<!-- loadDurFactor&#45;&gt;assumpLDFC -->
<g id="edge2" class="edge">
<title>loadDurFactor&#45;&gt;assumpLDFC</title>
<path fill="none" stroke="black" d="M335.48,-71.7C325.37,-62.97 312.96,-52.24 301.98,-42.75"/>
<polygon fill="black" stroke="black" points="304.15,-39.99 294.29,-36.1 299.57,-45.29 304.15,-39.99"/>
</g>
<!-- theory -->
<g id="node4" class="node">
<title>theory</title>
<polygon fill="#fff68f" stroke="black" points="104.5,-108 0.5,-108 0.5,-72 104.5,-72 104.5,-108"/>
<text text-anchor="middle" x="52.5" y="-86.3" font-family="Times,serif" font-size="14.00">IM:isSafeLR</text>
</g>
<!-- theory&#45;&gt;assumpSV -->
<g id="edge3" class="edge">
<title>theory:nFL&#45;&gt;assumpSV</title>
<path fill="none" stroke="black" d="M40.67,-71.7C39.08,-63.98 38.62,-54.71 39.31,-46.11"/>
<polygon fill="black" stroke="black" points="42.79,-46.49 40.71,-36.1 35.86,-45.52 42.79,-46.49"/>
</g>
<!-- theory&#45;&gt;assumpSV -->
<g id="edge4" class="edge">
<title>theory:dimlessLoad&#45;&gt;assumpSV</title>
<path fill="none" stroke="black" d="M52.5,-71.7C52.5,-63.98 52.5,-54.71 52.5,-46.11"/>
<polygon fill="black" stroke="black" points="56,-46.1 52.5,-36.1 49,-46.1 56,-46.1"/>
</g>
<!-- theory&#45;&gt;assumpSV -->
<g id="edge5" class="edge">
<title>theory:sdfTol&#45;&gt;assumpSV</title>
<path fill="none" stroke="black" d="M64.33,-71.7C65.92,-63.98 66.38,-54.71 65.69,-46.11"/>
<polygon fill="black" stroke="black" points="69.14,-45.52 64.29,-36.1 62.21,-46.49 69.14,-45.52"/>
</g>
<!-- calcInternalBlastRisk -->
<g id="node5" class="node">
<title>calcInternalBlastRisk</title>
<polygon fill="lavender" stroke="black" points="640,-108 447,-108 447,-72 640,-72 640,-108"/>
<text text-anchor="middle" x="543.5" y="-86.3" font-family="Times,serif" font-size="14.00">LC:calcInternalBlastRisk</text>
</g>
<!-- assumpES -->
<g id="node6" class="node">
<title>assumpES</title>
<polygon fill="mistyrose" stroke="black" points="596.5,-36 490.5,-36 490.5,0 596.5,0 596.5,-36"/>
<text text-anchor="middle" x="543.5" y="-14.3" font-family="Times,serif" font-size="14.00">A:assumpES</text>
</g>
<!-- calcInternalBlastRisk&#45;&gt;assumpES -->
<g id="edge6" class="edge">
<title>calcInternalBlastRisk&#45;&gt;assumpES</title>
<path fill="none" stroke="black" d="M543.5,-71.7C543.5,-63.98 543.5,-54.71 543.5,-46.11"/>
<polygon fill="black" stroke="black" points="547,-46.1 543.5,-36.1 540,-46.1 547,-46.1"/>
</g>
<!-- varValsOfmkE -->
<g id="node7" class="node">
<title>varValsOfmkE</title>
<polygon fill="lavender" stroke="black" points="264.5,-108 122.5,-108 122.5,-72 264.5,-72 264.5,-108"/>
<text text-anchor="middle" x="193.5" y="-86.3" font-family="Times,serif" font-size="14.00">LC:varValsOfmkE</text>
</g>
<!-- varValsOfmkE&#45;&gt;assumpSV -->
<g id="edge7" class="edge">
<title>varValsOfmkE&#45;&gt;assumpSV</title>
<path fill="none" stroke="black" d="M159.01,-71.88C140.06,-62.47 116.37,-50.71 96.14,-40.67"/>
<polygon fill="black" stroke="black" points="97.64,-37.5 87.13,-36.19 94.53,-43.77 97.64,-37.5"/>
</g>
<!-- varValsOfmkE&#45;&gt;assumpLDFC -->
<g id="edge8" class="edge">
<title>varValsOfmkE&#45;&gt;assumpLDFC</title>
<path fill="none" stroke="black" d="M213.52,-71.7C223.63,-62.97 236.04,-52.24 247.02,-42.75"/>
<polygon fill="black" stroke="black" points="249.43,-45.29 254.71,-36.1 244.85,-39.99 249.43,-45.29"/>
</g>
<!-- accMoreThanSingleLite -->
<g id="node8" class="node">
<title>accMoreThanSingleLite</title>
<polygon fill="lavender" stroke="black" points="867,-108 658,-108 658,-72 867,-72 867,-108"/>
<text text-anchor="middle" x="762.5" y="-86.3" font-family="Times,serif" font-size="14.00">LC:accMoreThanSingleLite</text>
</g>
<!-- assumpGL -->
<g id="node9" class="node">
<title>assumpGL</title>
<polygon fill="mistyrose" stroke="black" points="815.5,-36 709.5,-36 709.5,0 815.5,0 815.5,-36"/>
<text text-anchor="middle" x="762.5" y="-14.3" font-family="Times,serif" font-size="14.00">A:assumpGL</text>
</g>
<!-- accMoreThanSingleLite&#45;&gt;assumpGL -->
<g id="edge9" class="edge">
<title>accMoreThanSingleLite&#45;&gt;assumpGL</title>
<path fill="none" stroke="black" d="M762.5,-71.7C762.5,-63.98 762.5,-54.71 762.5,-46.11"/>
<polygon fill="black" stroke="black" points="766,-46.1 762.5,-36.1 759,-46.1 766,-46.1"/>
</g>
<!-- accMoreBoundaryConditions -->
<g id="node10" class="node">
<title>accMoreBoundaryConditions</title>
<polygon fill="lavender" stroke="black" points="1132,-108 885,-108 885,-72 1132,-72 1132,-108"/>
<text text-anchor="middle" x="1008.5" y="-86.3" font-family="Times,serif" font-size="14.00">LC:accMoreBoundaryConditions</text>
</g>
<!-- assumpBC -->
<g id="node11" class="node">
<title>assumpBC</title>
<polygon fill="mistyrose" stroke="black" points="1062,-36 955,-36 955,0 1062,0 1062,-36"/>
<text text-anchor="middle" x="1008.5" y="-14.3" font-family="Times,serif" font-size="14.00">A:assumpBC</text>
</g>
<!-- accMoreBoundaryConditions&#45;&gt;assumpBC -->
<g id="edge10" class="edge">
<title>accMoreBoundaryConditions&#45;&gt;assumpBC</title>
<path fill="none" stroke="black" d="M1008.5,-71.7C1008.5,-63.98 1008.5,-54.71 1008.5,-46.11"/>
<polygon fill="black" stroke="black" points="1012,-46.1 1008.5,-36.1 1005,-46.1 1012,-46.1"/>
</g>
<!-- considerMoreThanFlexGlass -->
<g id="node12" class="node">
<title>considerMoreThanFlexGlass</title>
<polygon fill="lavender" stroke="black" points="1394.5,-108 1150.5,-108 1150.5,-72 1394.5,-72 1394.5,-108"/>
<text text-anchor="middle" x="1272.5" y="-86.3" font-family="Times,serif" font-size="14.00">LC:considerMoreThanFlexGlass</text>
</g>
<!-- assumpRT -->
<g id="node13" class="node">
<title>assumpRT</title>
<polygon fill="mistyrose" stroke="black" points="1325,-36 1220,-36 1220,0 1325,0 1325,-36"/>
<text text-anchor="middle" x="1272.5" y="-14.3" font-family="Times,serif" font-size="14.00">A:assumpRT</text>
</g>
<!-- considerMoreThanFlexGlass&#45;&gt;assumpRT -->
<g id="edge11" class="edge">
<title>considerMoreThanFlexGlass&#45;&gt;assumpRT</title>
<path fill="none" stroke="black" d="M1272.5,-71.7C1272.5,-63.98 1272.5,-54.71 1272.5,-46.11"/>
<polygon fill="black" stroke="black" points="1276,-46.1 1272.5,-36.1 1269,-46.1 1276,-46.1"/>
</g>
<!-- accAlteredGlass -->
<g id="node14" class="node">
<title>accAlteredGlass</title>
<polygon fill="lavender" stroke="black" points="1570.5,-108 1412.5,-108 1412.5,-72 1570.5,-72 1570.5,-108"/>
<text text-anchor="middle" x="1491.5" y="-86.3" font-family="Times,serif" font-size="14.00">UC:accAlteredGlass</text>
</g>
<!-- assumpGC -->
<g id="node15" class="node">
<title>assumpGC</title>
<polygon fill="mistyrose" stroke="black" points="1545,-36 1438,-36 1438,0 1545,0 1545,-36"/>
<text text-anchor="middle" x="1491.5" y="-14.3" font-family="Times,serif" font-size="14.00">A:assumpGC</text>
</g>
<!-- accAlteredGlass&#45;&gt;assumpGC -->
<g id="edge12" class="edge">
<title>accAlteredGlass&#45;&gt;assumpGC</title>
<path fill="none" stroke="black" d="M1491.5,-71.7C1491.5,-63.98 1491.5,-54.71 1491.5,-46.11"/>
<polygon fill="black" stroke="black" points="1495,-46.1 1491.5,-36.1 1488,-46.1 1495,-46.1"/>
</g>
<!-- assumpGT -->
<g id="node16" class="node">
<title>assumpGT</title>
<polygon fill="mistyrose" stroke="black" points="1669.5,-36 1563.5,-36 1563.5,0 1669.5,0 1669.5,-36"/>
<text text-anchor="middle" x="1616.5" y="-14.3" font-family="Times,serif" font-size="14.00">A:assumpGT</text>
</g>
<!-- minThick -->
<g id="node17" class="node">
<title>minThick</title>
<polygon fill="#bbffff" stroke="black" points="1698,-108 1589,-108 1589,-72 1698,-72 1698,-108"/>
<text text-anchor="middle" x="1643.5" y="-86.3" font-family="Times,serif" font-size="14.00">DD:minThick</text>
</g>
<!-- glassTypeFac -->
<g id="node18" class="node">
<title>glassTypeFac</title>
<polygon fill="#bbffff" stroke="black" points="1787,-108 1716,-108 1716,-72 1787,-72 1787,-108"/>
<text text-anchor="middle" x="1751.5" y="-86.3" font-family="Times,serif" font-size="14.00">DD:gTF</text>
</g>
<!-- stdOffDist -->
<g id="node19" class="node">
<title>stdOffDist</title>
<polygon fill="#bbffff" stroke="black" points="1939.5,-108 1805.5,-108 1805.5,-72 1939.5,-72 1939.5,-108"/>
<text text-anchor="middle" x="1872.5" y="-86.3" font-family="Times,serif" font-size="14.00">DD:standOffDist</text>
</g>
<!-- aR -->
<g id="node20" class="node">
<title>aR</title>
<polygon fill="#bbffff" stroke="black" points="2085.5,-108 1957.5,-108 1957.5,-72 2085.5,-72 2085.5,-108"/>
<text text-anchor="middle" x="2021.5" y="-86.3" font-family="Times,serif" font-size="14.00">DD:aspectRatio</text>
</g>
<!-- eqTNTChar -->
<g id="node21" class="node">
<title>eqTNTChar</title>
<polygon fill="#bbffff" stroke="black" points="2209,-108 2104,-108 2104,-72 2209,-72 2209,-108"/>
<text text-anchor="middle" x="2156.5" y="-86.3" font-family="Times,serif" font-size="14.00">DD:eqTNTW</text>
</g>
<!-- demandq -->
<g id="node22" class="node">
<title>demandq</title>
<polygon fill="#bbffff" stroke="black" points="2364,-108 2227,-108 2227,-72 2364,-72 2364,-108"/>
<text text-anchor="middle" x="2295.5" y="-86.3" font-family="Times,serif" font-size="14.00">DD:calofDemand</text>
</g>
<!-- inputValues -->
<g id="node23" class="node">
<title>inputValues</title>
<polygon fill="ivory" stroke="black" points="2507,-108 2382,-108 2382,-72 2507,-72 2507,-108"/>
<text text-anchor="middle" x="2444.5" y="-86.3" font-family="Times,serif" font-size="14.00">FR:inputValues</text>
</g>
<!-- sysSetValsFollowingAssumps -->
<g id="node24" class="node">
<title>sysSetValsFollowingAssumps</title>
<polygon fill="ivory" stroke="black" points="2776,-108 2525,-108 2525,-72 2776,-72 2776,-108"/>
<text text-anchor="middle" x="2650.5" y="-86.3" font-family="Times,serif" font-size="14.00">FR:sysSetValsFollowingAssumps</text>
</g>
<!-- checkInputWithDataCons -->
<g id="node25" class="node">
<title>checkInputWithDataCons</title>
<polygon fill="ivory" stroke="black" points="3017,-108 2794,-108 2794,-72 3017,-72 3017,-108"/>
<text text-anchor="middle" x="2905.5" y="-86.3" font-family="Times,serif" font-size="14.00">FR:checkInputWithDataCons</text>
</g>
<!-- outputValsAndKnownValues -->
<g id="node26" class="node">
<title>outputValsAndKnownValues</title>
<polygon fill="ivory" stroke="black" points="3276,-108 3035,-108 3035,-72 3276,-72 3276,-108"/>
<text text-anchor="middle" x="3155.5" y="-86.3" font-family="Times,serif" font-size="14.00">FR:outputValsAndKnownValues</text>
</g>
<!-- checkGlassSafety -->
<g id="node27" class="node">
<title>checkGlassSafety</title>
<polygon fill="ivory" stroke="black" points="3461,-108 3294,-108 3294,-72 3461,-72 3461,-108"/>
<text text-anchor="middle" x="3377.5" y="-86.3" font-family="Times,serif" font-size="14.00">FR:checkGlassSafety</text>
</g>
<!-- outputValues -->
<g id="node28" class="node">
<title>outputValues</title>
<polygon fill="ivory" stroke="black" points="3614,-108 3479,-108 3479,-72 3614,-72 3614,-108"/>
<text text-anchor="middle" x="3546.5" y="-86.3" font-family="Times,serif" font-size="14.00">FR:outputValues</text>
</g>
<!-- correct -->
<g id="node29" class="node">
<title>correct</title>
<polygon fill="ivory" stroke="black" points="3736.5,-108 3632.5,-108 3632.5,-72 3736.5,-72 3736.5,-108"/>
<text text-anchor="middle" x="3684.5" y="-86.3" font-family="Times,serif" font-size="14.00">NFR:correct</text>
</g>
<!-- verifiable -->
<g id="node30" class="node">
<title>verifiable</title>
<polygon fill="ivory" stroke="black" points="3874.5,-108 3754.5,-108 3754.5,-72 3874.5,-72 3874.5,-108"/>
<text text-anchor="middle" x="3814.5" y="-86.3" font-family="Times,serif" font-size="14.00">NFR:verifiable</text>
</g>
<!-- understandable -->
<g id="node31" class="node">
<title>understandable</title>
<polygon fill="ivory" stroke="black" points="4058,-108 3893,-108 3893,-72 4058,-72 4058,-108"/>
<text text-anchor="middle" x="3975.5" y="-86.3" font-family="Times,serif" font-size="14.00">NFR:understandable</text>
</g>
<!-- reusable -->
<g id="node32" class="node">
<title>reusable</title>
<polygon fill="ivory" stroke="black" points="4191,-108 4076,-108 4076,-72 4191,-72 4191,-108"/>
<text text-anchor="middle" x="4133.5" y="-86.3" font-family="Times,serif" font-size="14.00">NFR:reusable</text>
</g>
<!-- maintainable -->
<g id="node33" class="node">
<title>maintainable</title>
<polygon fill="ivory" stroke="black" points="4355.5,-108 4209.5,-108 4209.5,-72 4355.5,-72 4355.5,-108"/>
<text text-anchor="middle" x="4282.5" y="-86.3" font-family="Times,serif" font-size="14.00">NFR:maintainable</text>
</g>
<!-- portable -->
<g id="node34" class="node">
<title>portable</title>
<polygon fill="ivory" stroke="black" points="4487,-108 4374,-108 4374,-72 4487,-72 4487,-108"/>
<text text-anchor="middle" x="4430.5" y="-86.3" font-family="Times,serif" font-size="14.00">NFR:portable</text>
</g>
<!-- predictWithstandOfCertDeg -->
<g id="node35" class="node">
<title>predictWithstandOfCertDeg</title>
<polygon fill="lavender" stroke="black" points="4750,-108 4505,-108 4505,-72 4750,-72 4750,-108"/>
<text text-anchor="middle" x="4627.5" y="-86.3" font-family="Times,serif" font-size="14.00">UC:predictWithstandOfCertDeg</text>
</g>
</g>
</svg>
