<?xml version="1.0" encoding="UTF-8" standalone="no"?>
<!DOCTYPE svg PUBLIC "-//W3C//DTD SVG 1.1//EN"
 "http://www.w3.org/Graphics/SVG/1.1/DTD/svg11.dtd">
<!-- Generated by graphviz version 2.43.0 (0)
 -->
<!-- Title: avsall Pages: 1 -->
<svg width="6207pt" height="116pt"
 viewBox="0.00 0.00 6207.00 116.00" xmlns="http://www.w3.org/2000/svg" xmlns:xlink="http://www.w3.org/1999/xlink">
<g id="graph0" class="graph" transform="scale(1 1) rotate(0) translate(4 112)">
<title>avsall</title>
<polygon fill="white" stroke="transparent" points="-4,4 -4,-112 6203,-112 6203,4 -4,4"/>
<!-- loadDurFactor -->
<g id="node1" class="node">
<title>loadDurFactor</title>
<polygon fill="#bbffff" stroke="black" points="650.5,-108 504.5,-108 504.5,-72 650.5,-72 650.5,-108"/>
<text text-anchor="middle" x="577.5" y="-86.3" font-family="Times,serif" font-size="14.00">DD:loadDurFactor</text>
</g>
<!-- assumpSV -->
<g id="node2" class="node">
<title>assumpSV</title>
<polygon fill="mistyrose" stroke="black" points="336,-36 231,-36 231,0 336,0 336,-36"/>
<text text-anchor="middle" x="283.5" y="-14.3" font-family="Times,serif" font-size="14.00">A:assumpSV</text>
</g>
<!-- loadDurFactor&#45;&gt;assumpSV -->
<g id="edge1" class="edge">
<title>loadDurFactor&#45;&gt;assumpSV</title>
<path fill="none" stroke="black" d="M505.96,-71.97C457.18,-60.35 393.21,-45.12 346.39,-33.97"/>
<polygon fill="black" stroke="black" points="346.91,-30.5 336.37,-31.59 345.29,-37.31 346.91,-30.5"/>
</g>
<!-- assumpLDFC -->
<g id="node3" class="node">
<title>assumpLDFC</title>
<polygon fill="mistyrose" stroke="black" points="560.5,-36 434.5,-36 434.5,0 560.5,0 560.5,-36"/>
<text text-anchor="middle" x="497.5" y="-14.3" font-family="Times,serif" font-size="14.00">A:assumpLDFC</text>
</g>
<!-- loadDurFactor&#45;&gt;assumpLDFC -->
<g id="edge2" class="edge">
<title>loadDurFactor&#45;&gt;assumpLDFC</title>
<path fill="none" stroke="black" d="M557.72,-71.7C547.75,-62.97 535.49,-52.24 524.64,-42.75"/>
<polygon fill="black" stroke="black" points="526.88,-40.06 517.05,-36.1 522.27,-45.32 526.88,-40.06"/>
</g>
<!-- nFL -->
<g id="node4" class="node">
<title>nFL</title>
<polygon fill="#bbffff" stroke="black" points="71,-108 0,-108 0,-72 71,-72 71,-108"/>
<text text-anchor="middle" x="35.5" y="-86.3" font-family="Times,serif" font-size="14.00">DD:nFL</text>
</g>
<!-- nFL&#45;&gt;assumpSV -->
<g id="edge3" class="edge">
<title>nFL&#45;&gt;assumpSV</title>
<path fill="none" stroke="black" d="M71.4,-74.74C74.13,-73.78 76.85,-72.85 79.5,-72 126.32,-56.93 180.21,-43.07 220.85,-33.31"/>
<polygon fill="black" stroke="black" points="221.7,-36.7 230.62,-30.98 220.08,-29.9 221.7,-36.7"/>
</g>
<!-- dimlessLoad -->
<g id="node5" class="node">
<title>dimlessLoad</title>
<polygon fill="#bbffff" stroke="black" points="222,-108 89,-108 89,-72 222,-72 222,-108"/>
<text text-anchor="middle" x="155.5" y="-86.3" font-family="Times,serif" font-size="14.00">DD:dimlessLoad</text>
</g>
<!-- dimlessLoad&#45;&gt;assumpSV -->
<g id="edge4" class="edge">
<title>dimlessLoad&#45;&gt;assumpSV</title>
<path fill="none" stroke="black" d="M186.81,-71.88C203.7,-62.64 224.75,-51.13 242.88,-41.21"/>
<polygon fill="black" stroke="black" points="244.97,-44.06 252.07,-36.19 241.61,-37.92 244.97,-44.06"/>
</g>
<!-- sdfTol -->
<g id="node6" class="node">
<title>sdfTol</title>
<polygon fill="#bbffff" stroke="black" points="326.5,-108 240.5,-108 240.5,-72 326.5,-72 326.5,-108"/>
<text text-anchor="middle" x="283.5" y="-86.3" font-family="Times,serif" font-size="14.00">DD:sdfTol</text>
</g>
<!-- sdfTol&#45;&gt;assumpSV -->
<g id="edge5" class="edge">
<title>sdfTol&#45;&gt;assumpSV</title>
<path fill="none" stroke="black" d="M283.5,-71.7C283.5,-63.98 283.5,-54.71 283.5,-46.11"/>
<polygon fill="black" stroke="black" points="287,-46.1 283.5,-36.1 280,-46.1 287,-46.1"/>
</g>
<!-- calcInternalBlastRisk -->
<g id="node7" class="node">
<title>calcInternalBlastRisk</title>
<polygon fill="lavender" stroke="black" points="862,-108 669,-108 669,-72 862,-72 862,-108"/>
<text text-anchor="middle" x="765.5" y="-86.3" font-family="Times,serif" font-size="14.00">LC:calcInternalBlastRisk</text>
</g>
<!-- assumpES -->
<g id="node8" class="node">
<title>assumpES</title>
<polygon fill="mistyrose" stroke="black" points="818.5,-36 712.5,-36 712.5,0 818.5,0 818.5,-36"/>
<text text-anchor="middle" x="765.5" y="-14.3" font-family="Times,serif" font-size="14.00">A:assumpES</text>
</g>
<!-- calcInternalBlastRisk&#45;&gt;assumpES -->
<g id="edge6" class="edge">
<title>calcInternalBlastRisk&#45;&gt;assumpES</title>
<path fill="none" stroke="black" d="M765.5,-71.7C765.5,-63.98 765.5,-54.71 765.5,-46.11"/>
<polygon fill="black" stroke="black" points="769,-46.1 765.5,-36.1 762,-46.1 769,-46.1"/>
</g>
<!-- varValsOfmkE -->
<g id="node9" class="node">
<title>varValsOfmkE</title>
<polygon fill="lavender" stroke="black" points="486.5,-108 344.5,-108 344.5,-72 486.5,-72 486.5,-108"/>
<text text-anchor="middle" x="415.5" y="-86.3" font-family="Times,serif" font-size="14.00">LC:varValsOfmkE</text>
</g>
<!-- varValsOfmkE&#45;&gt;assumpSV -->
<g id="edge7" class="edge">
<title>varValsOfmkE&#45;&gt;assumpSV</title>
<path fill="none" stroke="black" d="M383.21,-71.88C365.63,-62.55 343.69,-50.92 324.87,-40.94"/>
<polygon fill="black" stroke="black" points="326.39,-37.78 315.91,-36.19 323.11,-43.97 326.39,-37.78"/>
</g>
<!-- varValsOfmkE&#45;&gt;assumpLDFC -->
<g id="edge8" class="edge">
<title>varValsOfmkE&#45;&gt;assumpLDFC</title>
<path fill="none" stroke="black" d="M435.77,-71.7C446,-62.97 458.56,-52.24 469.68,-42.75"/>
<polygon fill="black" stroke="black" points="472.13,-45.26 477.46,-36.1 467.59,-39.94 472.13,-45.26"/>
</g>
<!-- accMoreThanSingleLite -->
<g id="node10" class="node">
<title>accMoreThanSingleLite</title>
<polygon fill="lavender" stroke="black" points="1089,-108 880,-108 880,-72 1089,-72 1089,-108"/>
<text text-anchor="middle" x="984.5" y="-86.3" font-family="Times,serif" font-size="14.00">LC:accMoreThanSingleLite</text>
</g>
<!-- assumpGL -->
<g id="node11" class="node">
<title>assumpGL</title>
<polygon fill="mistyrose" stroke="black" points="1037.5,-36 931.5,-36 931.5,0 1037.5,0 1037.5,-36"/>
<text text-anchor="middle" x="984.5" y="-14.3" font-family="Times,serif" font-size="14.00">A:assumpGL</text>
</g>
<!-- accMoreThanSingleLite&#45;&gt;assumpGL -->
<g id="edge9" class="edge">
<title>accMoreThanSingleLite&#45;&gt;assumpGL</title>
<path fill="none" stroke="black" d="M984.5,-71.7C984.5,-63.98 984.5,-54.71 984.5,-46.11"/>
<polygon fill="black" stroke="black" points="988,-46.1 984.5,-36.1 981,-46.1 988,-46.1"/>
</g>
<!-- accMoreBoundaryConditions -->
<g id="node12" class="node">
<title>accMoreBoundaryConditions</title>
<polygon fill="lavender" stroke="black" points="1354,-108 1107,-108 1107,-72 1354,-72 1354,-108"/>
<text text-anchor="middle" x="1230.5" y="-86.3" font-family="Times,serif" font-size="14.00">LC:accMoreBoundaryConditions</text>
</g>
<!-- assumpBC -->
<g id="node13" class="node">
<title>assumpBC</title>
<polygon fill="mistyrose" stroke="black" points="1284,-36 1177,-36 1177,0 1284,0 1284,-36"/>
<text text-anchor="middle" x="1230.5" y="-14.3" font-family="Times,serif" font-size="14.00">A:assumpBC</text>
</g>
<!-- accMoreBoundaryConditions&#45;&gt;assumpBC -->
<g id="edge10" class="edge">
<title>accMoreBoundaryConditions&#45;&gt;assumpBC</title>
<path fill="none" stroke="black" d="M1230.5,-71.7C1230.5,-63.98 1230.5,-54.71 1230.5,-46.11"/>
<polygon fill="black" stroke="black" points="1234,-46.1 1230.5,-36.1 1227,-46.1 1234,-46.1"/>
</g>
<!-- considerMoreThanFlexGlass -->
<g id="node14" class="node">
<title>considerMoreThanFlexGlass</title>
<polygon fill="lavender" stroke="black" points="1616.5,-108 1372.5,-108 1372.5,-72 1616.5,-72 1616.5,-108"/>
<text text-anchor="middle" x="1494.5" y="-86.3" font-family="Times,serif" font-size="14.00">LC:considerMoreThanFlexGlass</text>
</g>
<!-- assumpRT -->
<g id="node15" class="node">
<title>assumpRT</title>
<polygon fill="mistyrose" stroke="black" points="1547,-36 1442,-36 1442,0 1547,0 1547,-36"/>
<text text-anchor="middle" x="1494.5" y="-14.3" font-family="Times,serif" font-size="14.00">A:assumpRT</text>
</g>
<!-- considerMoreThanFlexGlass&#45;&gt;assumpRT -->
<g id="edge11" class="edge">
<title>considerMoreThanFlexGlass&#45;&gt;assumpRT</title>
<path fill="none" stroke="black" d="M1494.5,-71.7C1494.5,-63.98 1494.5,-54.71 1494.5,-46.11"/>
<polygon fill="black" stroke="black" points="1498,-46.1 1494.5,-36.1 1491,-46.1 1498,-46.1"/>
</g>
<!-- accAlteredGlass -->
<g id="node16" class="node">
<title>accAlteredGlass</title>
<polygon fill="lavender" stroke="black" points="1792.5,-108 1634.5,-108 1634.5,-72 1792.5,-72 1792.5,-108"/>
<text text-anchor="middle" x="1713.5" y="-86.3" font-family="Times,serif" font-size="14.00">UC:accAlteredGlass</text>
</g>
<!-- assumpGC -->
<g id="node17" class="node">
<title>assumpGC</title>
<polygon fill="mistyrose" stroke="black" points="1767,-36 1660,-36 1660,0 1767,0 1767,-36"/>
<text text-anchor="middle" x="1713.5" y="-14.3" font-family="Times,serif" font-size="14.00">A:assumpGC</text>
</g>
<!-- accAlteredGlass&#45;&gt;assumpGC -->
<g id="edge12" class="edge">
<title>accAlteredGlass&#45;&gt;assumpGC</title>
<path fill="none" stroke="black" d="M1713.5,-71.7C1713.5,-63.98 1713.5,-54.71 1713.5,-46.11"/>
<polygon fill="black" stroke="black" points="1717,-46.1 1713.5,-36.1 1710,-46.1 1717,-46.1"/>
</g>
<!-- assumpGT -->
<g id="node18" class="node">
<title>assumpGT</title>
<polygon fill="mistyrose" stroke="black" points="1891.5,-36 1785.5,-36 1785.5,0 1891.5,0 1891.5,-36"/>
<text text-anchor="middle" x="1838.5" y="-14.3" font-family="Times,serif" font-size="14.00">A:assumpGT</text>
</g>
<!-- riskFun -->
<g id="node19" class="node">
<title>riskFun</title>
<polygon fill="#bbffff" stroke="black" points="1908.5,-108 1810.5,-108 1810.5,-72 1908.5,-72 1908.5,-108"/>
<text text-anchor="middle" x="1859.5" y="-86.3" font-family="Times,serif" font-size="14.00">DD:riskFun</text>
</g>
<!-- minThick -->
<g id="node20" class="node">
<title>minThick</title>
<polygon fill="#bbffff" stroke="black" points="2036,-108 1927,-108 1927,-72 2036,-72 2036,-108"/>
<text text-anchor="middle" x="1981.5" y="-86.3" font-family="Times,serif" font-size="14.00">DD:minThick</text>
</g>
<!-- stressDistFac -->
<g id="node21" class="node">
<title>stressDistFac</title>
<polygon fill="#bbffff" stroke="black" points="2195,-108 2054,-108 2054,-72 2195,-72 2195,-108"/>
<text text-anchor="middle" x="2124.5" y="-86.3" font-family="Times,serif" font-size="14.00">DD:stressDistFac</text>
</g>
<!-- glassTypeFac -->
<g id="node22" class="node">
<title>glassTypeFac</title>
<polygon fill="#bbffff" stroke="black" points="2284,-108 2213,-108 2213,-72 2284,-72 2284,-108"/>
<text text-anchor="middle" x="2248.5" y="-86.3" font-family="Times,serif" font-size="14.00">DD:gTF</text>
</g>
<!-- tolLoad -->
<g id="node23" class="node">
<title>tolLoad</title>
<polygon fill="#bbffff" stroke="black" points="2399,-108 2302,-108 2302,-72 2399,-72 2399,-108"/>
<text text-anchor="middle" x="2350.5" y="-86.3" font-family="Times,serif" font-size="14.00">DD:tolLoad</text>
</g>
<!-- stdOffDist -->
<g id="node24" class="node">
<title>stdOffDist</title>
<polygon fill="#bbffff" stroke="black" points="2551.5,-108 2417.5,-108 2417.5,-72 2551.5,-72 2551.5,-108"/>
<text text-anchor="middle" x="2484.5" y="-86.3" font-family="Times,serif" font-size="14.00">DD:standOffDist</text>
</g>
<!-- aR -->
<g id="node25" class="node">
<title>aR</title>
<polygon fill="#bbffff" stroke="black" points="2697.5,-108 2569.5,-108 2569.5,-72 2697.5,-72 2697.5,-108"/>
<text text-anchor="middle" x="2633.5" y="-86.3" font-family="Times,serif" font-size="14.00">DD:aspectRatio</text>
</g>
<!-- eqTNTChar -->
<g id="node26" class="node">
<title>eqTNTChar</title>
<polygon fill="#bbffff" stroke="black" points="2821,-108 2716,-108 2716,-72 2821,-72 2821,-108"/>
<text text-anchor="middle" x="2768.5" y="-86.3" font-family="Times,serif" font-size="14.00">DD:eqTNTW</text>
</g>
<!-- probBr -->
<g id="node27" class="node">
<title>probBr</title>
<polygon fill="#bbffff" stroke="black" points="2974,-108 2839,-108 2839,-72 2974,-72 2974,-108"/>
<text text-anchor="middle" x="2906.5" y="-86.3" font-family="Times,serif" font-size="14.00">DD:probOfBreak</text>
</g>
<!-- lResistance -->
<g id="node28" class="node">
<title>lResistance</title>
<polygon fill="#bbffff" stroke="black" points="3132.5,-108 2992.5,-108 2992.5,-72 3132.5,-72 3132.5,-108"/>
<text text-anchor="middle" x="3062.5" y="-86.3" font-family="Times,serif" font-size="14.00">DD:calofCapacity</text>
</g>
<!-- demandq -->
<g id="node29" class="node">
<title>demandq</title>
<polygon fill="#bbffff" stroke="black" points="3288,-108 3151,-108 3151,-72 3288,-72 3288,-108"/>
<text text-anchor="middle" x="3219.5" y="-86.3" font-family="Times,serif" font-size="14.00">DD:calofDemand</text>
</g>
<!-- isSafeProb -->
<g id="node30" class="node">
<title>isSafeProb</title>
<polygon fill="pink" stroke="black" points="3428.5,-108 3306.5,-108 3306.5,-72 3428.5,-72 3428.5,-108"/>
<text text-anchor="middle" x="3367.5" y="-86.3" font-family="Times,serif" font-size="14.00">TM:isSafeProb</text>
</g>
<!-- isSafeLoad -->
<g id="node31" class="node">
<title>isSafeLoad</title>
<polygon fill="pink" stroke="black" points="3568.5,-108 3446.5,-108 3446.5,-72 3568.5,-72 3568.5,-108"/>
<text text-anchor="middle" x="3507.5" y="-86.3" font-family="Times,serif" font-size="14.00">TM:isSafeLoad</text>
</g>
<!-- isSafePb -->
<g id="node32" class="node">
<title>isSafePb</title>
<polygon fill="#fff68f" stroke="black" points="3690,-108 3587,-108 3587,-72 3690,-72 3690,-108"/>
<text text-anchor="middle" x="3638.5" y="-86.3" font-family="Times,serif" font-size="14.00">IM:isSafePb</text>
</g>
<!-- isSafeLR -->
<g id="node33" class="node">
<title>isSafeLR</title>
<polygon fill="#fff68f" stroke="black" points="3812.5,-108 3708.5,-108 3708.5,-72 3812.5,-72 3812.5,-108"/>
<text text-anchor="middle" x="3760.5" y="-86.3" font-family="Times,serif" font-size="14.00">IM:isSafeLR</text>
</g>
<!-- inputValues -->
<g id="node34" class="node">
<title>inputValues</title>
<polygon fill="ivory" stroke="black" points="3956,-108 3831,-108 3831,-72 3956,-72 3956,-108"/>
<text text-anchor="middle" x="3893.5" y="-86.3" font-family="Times,serif" font-size="14.00">FR:inputValues</text>
</g>
<!-- sysSetValsFollowingAssumps -->
<g id="node35" class="node">
<title>sysSetValsFollowingAssumps</title>
<polygon fill="ivory" stroke="black" points="4225,-108 3974,-108 3974,-72 4225,-72 4225,-108"/>
<text text-anchor="middle" x="4099.5" y="-86.3" font-family="Times,serif" font-size="14.00">FR:sysSetValsFollowingAssumps</text>
</g>
<!-- checkInputWithDataCons -->
<g id="node36" class="node">
<title>checkInputWithDataCons</title>
<polygon fill="ivory" stroke="black" points="4466,-108 4243,-108 4243,-72 4466,-72 4466,-108"/>
<text text-anchor="middle" x="4354.5" y="-86.3" font-family="Times,serif" font-size="14.00">FR:checkInputWithDataCons</text>
</g>
<!-- outputValsAndKnownValues -->
<g id="node37" class="node">
<title>outputValsAndKnownValues</title>
<polygon fill="ivory" stroke="black" points="4725,-108 4484,-108 4484,-72 4725,-72 4725,-108"/>
<text text-anchor="middle" x="4604.5" y="-86.3" font-family="Times,serif" font-size="14.00">FR:outputValsAndKnownValues</text>
</g>
<!-- checkGlassSafety -->
<g id="node38" class="node">
<title>checkGlassSafety</title>
<polygon fill="ivory" stroke="black" points="4910,-108 4743,-108 4743,-72 4910,-72 4910,-108"/>
<text text-anchor="middle" x="4826.5" y="-86.3" font-family="Times,serif" font-size="14.00">FR:checkGlassSafety</text>
</g>
<!-- outputValues -->
<g id="node39" class="node">
<title>outputValues</title>
<polygon fill="ivory" stroke="black" points="5063,-108 4928,-108 4928,-72 5063,-72 5063,-108"/>
<text text-anchor="middle" x="4995.5" y="-86.3" font-family="Times,serif" font-size="14.00">FR:outputValues</text>
</g>
<!-- correct -->
<g id="node40" class="node">
<title>correct</title>
<polygon fill="ivory" stroke="black" points="5185.5,-108 5081.5,-108 5081.5,-72 5185.5,-72 5185.5,-108"/>
<text text-anchor="middle" x="5133.5" y="-86.3" font-family="Times,serif" font-size="14.00">NFR:correct</text>
</g>
<!-- verifiable -->
<g id="node41" class="node">
<title>verifiable</title>
<polygon fill="ivory" stroke="black" points="5323.5,-108 5203.5,-108 5203.5,-72 5323.5,-72 5323.5,-108"/>
<text text-anchor="middle" x="5263.5" y="-86.3" font-family="Times,serif" font-size="14.00">NFR:verifiable</text>
</g>
<!-- understandable -->
<g id="node42" class="node">
<title>understandable</title>
<polygon fill="ivory" stroke="black" points="5507,-108 5342,-108 5342,-72 5507,-72 5507,-108"/>
<text text-anchor="middle" x="5424.5" y="-86.3" font-family="Times,serif" font-size="14.00">NFR:understandable</text>
</g>
<!-- reusable -->
<g id="node43" class="node">
<title>reusable</title>
<polygon fill="ivory" stroke="black" points="5640,-108 5525,-108 5525,-72 5640,-72 5640,-108"/>
<text text-anchor="middle" x="5582.5" y="-86.3" font-family="Times,serif" font-size="14.00">NFR:reusable</text>
</g>
<!-- maintainable -->
<g id="node44" class="node">
<title>maintainable</title>
<polygon fill="ivory" stroke="black" points="5804.5,-108 5658.5,-108 5658.5,-72 5804.5,-72 5804.5,-108"/>
<text text-anchor="middle" x="5731.5" y="-86.3" font-family="Times,serif" font-size="14.00">NFR:maintainable</text>
</g>
<!-- portable -->
<g id="node45" class="node">
<title>portable</title>
<polygon fill="ivory" stroke="black" points="5936,-108 5823,-108 5823,-72 5936,-72 5936,-108"/>
<text text-anchor="middle" x="5879.5" y="-86.3" font-family="Times,serif" font-size="14.00">NFR:portable</text>
</g>
<!-- predictWithstandOfCertDeg -->
<g id="node46" class="node">
<title>predictWithstandOfCertDeg</title>
<polygon fill="lavender" stroke="black" points="6199,-108 5954,-108 5954,-72 6199,-72 6199,-108"/>
<text text-anchor="middle" x="6076.5" y="-86.3" font-family="Times,serif" font-size="14.00">UC:predictWithstandOfCertDeg</text>
</g>
</g>
</svg>
