<?xml version="1.0" encoding="UTF-8" standalone="no"?>
<!DOCTYPE svg PUBLIC "-//W3C//DTD SVG 1.1//EN"
 "http://www.w3.org/Graphics/SVG/1.1/DTD/svg11.dtd">
<!-- Generated by graphviz version 2.43.0 (0)
 -->
<!-- Title: refvsref Pages: 1 -->
<svg width="314pt" height="116pt"
 viewBox="0.00 0.00 314.31 116.00" xmlns="http://www.w3.org/2000/svg" xmlns:xlink="http://www.w3.org/1999/xlink">
<g id="graph0" class="graph" transform="scale(1 1) rotate(0) translate(4 112)">
<title>refvsref</title>
<polygon fill="white" stroke="transparent" points="-4,4 -4,-112 310.31,-112 310.31,4 -4,4"/>
<!-- dataDefn -->
<g id="node1" class="node">
<title>dataDefn</title>
<polygon fill="#bbffff" stroke="black" points="142.81,-36 5.81,-36 5.81,0 142.81,0 142.81,-36"/>
<text text-anchor="middle" x="74.31" y="-14.3" font-family="Times,serif" font-size="14.00">DD:calofDemand</text>
</g>
<!-- dataDefn&#45;&gt;dataDefn -->
<g id="edge1" class="edge">
<title>dataDefn:demandq&#45;&gt;dataDefn:stdOffDist</title>
<path fill="none" stroke="black" d="M142.84,-24.19C153.52,-23.26 160.81,-21.2 160.81,-18 160.81,-15.95 157.82,-14.37 152.86,-13.25"/>
<polygon fill="black" stroke="black" points="153.23,-9.77 142.84,-11.81 152.24,-16.7 153.23,-9.77"/>
</g>
<!-- dataDefn&#45;&gt;dataDefn -->
<g id="edge2" class="edge">
<title>dataDefn:demandq&#45;&gt;dataDefn:eqTNTChar</title>
<path fill="none" stroke="black" d="M143.15,-31.46C163.25,-30.99 178.81,-26.51 178.81,-18 178.81,-11.02 168.34,-6.75 153.48,-5.18"/>
<polygon fill="black" stroke="black" points="153.35,-1.67 143.15,-4.54 152.92,-8.65 153.35,-1.67"/>
</g>
<!-- theory -->
<g id="node2" class="node">
<title>theory</title>
<polygon fill="#fff68f" stroke="black" points="126.31,-108 22.31,-108 22.31,-72 126.31,-72 126.31,-108"/>
<text text-anchor="middle" x="74.31" y="-86.3" font-family="Times,serif" font-size="14.00">IM:isSafeLR</text>
</g>
<!-- theory&#45;&gt;dataDefn -->
<g id="edge3" class="edge">
<title>theory:riskFun&#45;&gt;dataDefn:minThick</title>
<path fill="none" stroke="black" d="M22.27,-79.85C2.27,-70.79 -4.22,-56.51 2.79,-44.06"/>
<polygon fill="black" stroke="black" points="5.61,-46.14 9.34,-36.22 0.24,-41.65 5.61,-46.14"/>
</g>
<!-- theory&#45;&gt;dataDefn -->
<g id="edge4" class="edge">
<title>theory:riskFun&#45;&gt;dataDefn:loadDurFactor</title>
<path fill="none" stroke="black" d="M22.1,-72.76C13.61,-64.35 11.45,-53.89 15.62,-44.44"/>
<polygon fill="black" stroke="black" points="18.54,-46.37 21.24,-36.12 12.74,-42.45 18.54,-46.37"/>
</g>
<!-- theory&#45;&gt;dataDefn -->
<g id="edge6" class="edge">
<title>theory:stressDistFac&#45;&gt;dataDefn:aR</title>
<path fill="none" stroke="black" d="M32.9,-71.7C27.15,-63.73 25.64,-54.1 28.39,-45.26"/>
<polygon fill="black" stroke="black" points="31.64,-46.61 33.05,-36.1 25.4,-43.44 31.64,-46.61"/>
</g>
<!-- theory&#45;&gt;dataDefn -->
<g id="edge8" class="edge">
<title>theory:nFL&#45;&gt;dataDefn:minThick</title>
<path fill="none" stroke="black" d="M44.73,-71.7C40.67,-63.81 39.57,-54.3 41.45,-45.55"/>
<polygon fill="black" stroke="black" points="44.76,-46.7 44.84,-36.1 38.17,-44.34 44.76,-46.7"/>
</g>
<!-- theory&#45;&gt;dataDefn -->
<g id="edge10" class="edge">
<title>theory:dimlessLoad&#45;&gt;dataDefn:minThick</title>
<path fill="none" stroke="black" d="M56.56,-71.7C54.18,-63.98 53.5,-54.71 54.52,-46.11"/>
<polygon fill="black" stroke="black" points="58,-46.61 56.63,-36.1 51.15,-45.17 58,-46.61"/>
</g>
<!-- theory&#45;&gt;dataDefn -->
<g id="edge11" class="edge">
<title>theory:dimlessLoad&#45;&gt;dataDefn:glassTypeFac</title>
<path fill="none" stroke="black" d="M68.39,-71.7C67.6,-63.98 67.37,-54.71 67.72,-46.11"/>
<polygon fill="black" stroke="black" points="71.21,-46.32 68.42,-36.1 64.23,-45.84 71.21,-46.32"/>
</g>
<!-- theory&#45;&gt;dataDefn -->
<g id="edge12" class="edge">
<title>theory:dimlessLoad&#45;&gt;dataDefn:demandq</title>
<path fill="none" stroke="black" d="M80.23,-71.7C81.02,-63.98 81.25,-54.71 80.91,-46.11"/>
<polygon fill="black" stroke="black" points="84.4,-45.84 80.21,-36.1 77.41,-46.32 84.4,-45.84"/>
</g>
<!-- theory&#45;&gt;dataDefn -->
<g id="edge13" class="edge">
<title>theory:tolLoad&#45;&gt;dataDefn:aR</title>
<path fill="none" stroke="black" d="M92.06,-71.7C94.44,-63.98 95.12,-54.71 94.1,-46.11"/>
<polygon fill="black" stroke="black" points="97.48,-45.17 92,-36.1 90.62,-46.61 97.48,-45.17"/>
</g>
<!-- theory&#45;&gt;dataDefn -->
<g id="edge15" class="edge">
<title>theory:sdfTol&#45;&gt;dataDefn:minThick</title>
<path fill="none" stroke="black" d="M103.89,-71.7C107.96,-63.81 109.05,-54.3 107.17,-45.55"/>
<polygon fill="black" stroke="black" points="110.45,-44.34 103.79,-36.1 103.87,-46.7 110.45,-44.34"/>
</g>
<!-- theory&#45;&gt;dataDefn -->
<g id="edge16" class="edge">
<title>theory:sdfTol&#45;&gt;dataDefn:loadDurFactor</title>
<path fill="none" stroke="black" d="M115.72,-71.7C121.47,-63.73 122.98,-54.1 120.23,-45.26"/>
<polygon fill="black" stroke="black" points="123.22,-43.44 115.58,-36.1 116.98,-46.61 123.22,-43.44"/>
</g>
<!-- theory&#45;&gt;dataDefn -->
<g id="edge18" class="edge">
<title>theory:lResistance&#45;&gt;dataDefn:glassTypeFac</title>
<path fill="none" stroke="black" d="M126.52,-72.76C135.01,-64.35 137.17,-53.89 133,-44.44"/>
<polygon fill="black" stroke="black" points="135.88,-42.45 127.38,-36.12 130.08,-46.37 135.88,-42.45"/>
</g>
<!-- theory&#45;&gt;dataDefn -->
<g id="edge22" class="edge">
<title>theory:isSafeLR&#45;&gt;dataDefn:demandq</title>
<path fill="none" stroke="black" d="M126.35,-79.85C146.35,-70.79 152.84,-56.51 145.83,-44.06"/>
<polygon fill="black" stroke="black" points="148.38,-41.65 139.28,-36.22 143.01,-46.14 148.38,-41.65"/>
</g>
<!-- theory&#45;&gt;theory -->
<g id="edge5" class="edge">
<title>theory:riskFun&#45;&gt;theory:stressDistFac</title>
<path fill="none" stroke="black" d="M126.51,-91.44C136.9,-91.28 144.31,-90.8 144.31,-90 144.31,-89.5 141.42,-89.13 136.71,-88.88"/>
<polygon fill="black" stroke="black" points="136.62,-85.37 126.51,-88.56 136.4,-92.37 136.62,-85.37"/>
</g>
<!-- theory&#45;&gt;theory -->
<g id="edge7" class="edge">
<title>theory:stressDistFac&#45;&gt;theory:dimlessLoad</title>
<path fill="none" stroke="black" d="M126.71,-92.99C146.24,-93.09 162.31,-92.09 162.31,-90 162.31,-88.28 151.49,-87.3 136.83,-87.06"/>
<polygon fill="black" stroke="black" points="136.73,-83.56 126.71,-87.01 136.69,-90.56 136.73,-83.56"/>
</g>
<!-- theory&#45;&gt;theory -->
<g id="edge9" class="edge">
<title>theory:nFL&#45;&gt;theory:tolLoad</title>
<path fill="none" stroke="black" d="M126.39,-94.31C154.57,-95.06 180.31,-93.62 180.31,-90 180.31,-86.82 160.43,-85.32 136.48,-85.52"/>
<polygon fill="black" stroke="black" points="136.33,-82.02 126.39,-85.69 136.45,-89.02 136.33,-82.02"/>
</g>
<!-- theory&#45;&gt;theory -->
<g id="edge14" class="edge">
<title>theory:tolLoad&#45;&gt;theory:sdfTol</title>
<path fill="none" stroke="black" d="M126.55,-95.41C162.71,-97.05 198.31,-95.25 198.31,-90 198.31,-85.24 169.07,-83.31 136.68,-84.22"/>
<polygon fill="black" stroke="black" points="136.42,-80.72 126.55,-84.59 136.67,-87.72 136.42,-80.72"/>
</g>
<!-- theory&#45;&gt;theory -->
<g id="edge17" class="edge">
<title>theory:probBr&#45;&gt;theory:riskFun</title>
<path fill="none" stroke="black" d="M126.37,-96.33C170.29,-99.08 216.31,-96.97 216.31,-90 216.31,-83.56 177.03,-81.27 136.42,-83.12"/>
<polygon fill="black" stroke="black" points="136.17,-79.63 126.37,-83.67 136.55,-86.62 136.17,-79.63"/>
</g>
<!-- theory&#45;&gt;theory -->
<g id="edge19" class="edge">
<title>theory:lResistance&#45;&gt;theory:nFL</title>
<path fill="none" stroke="black" d="M126.34,-97.12C177.7,-101.12 234.31,-98.74 234.31,-90 234.31,-81.82 184.76,-79.22 136.32,-82.19"/>
<polygon fill="black" stroke="black" points="136.07,-78.7 126.34,-82.88 136.56,-85.68 136.07,-78.7"/>
</g>
<!-- theory&#45;&gt;theory -->
<g id="edge20" class="edge">
<title>theory:isSafePb&#45;&gt;theory:probBr</title>
<path fill="none" stroke="black" d="M126.7,-97.83C185.21,-103.14 252.31,-100.53 252.31,-90 252.31,-80.07 192.6,-77.18 136.71,-81.34"/>
<polygon fill="black" stroke="black" points="136.38,-77.86 126.7,-82.17 136.95,-84.83 136.38,-77.86"/>
</g>
<!-- theory&#45;&gt;theory -->
<g id="edge21" class="edge">
<title>theory:isSafePb&#45;&gt;theory:isSafeLR</title>
<path fill="none" stroke="black" d="M126.5,-98.41C192.15,-105.18 270.31,-102.38 270.31,-90 270.31,-78.25 199.88,-75.13 136.58,-80.63"/>
<polygon fill="black" stroke="black" points="136.12,-77.16 126.5,-81.59 136.78,-84.13 136.12,-77.16"/>
</g>
<!-- theory&#45;&gt;theory -->
<g id="edge23" class="edge">
<title>theory:isSafeLR&#45;&gt;theory:lResistance</title>
<path fill="none" stroke="black" d="M126.43,-98.93C199.04,-107.21 288.31,-104.24 288.31,-90 288.31,-76.43 207.22,-73.09 136.74,-79.98"/>
<polygon fill="black" stroke="black" points="136,-76.54 126.43,-81.07 136.74,-83.5 136,-76.54"/>
</g>
<!-- theory&#45;&gt;theory -->
<g id="edge24" class="edge">
<title>theory:isSafeLR&#45;&gt;theory:isSafePb</title>
<path fill="none" stroke="black" d="M126.46,-99.39C205.92,-109.24 306.31,-106.11 306.31,-90 306.31,-74.58 214.36,-71.05 136.81,-79.41"/>
<polygon fill="black" stroke="black" points="135.99,-75.98 126.46,-80.61 136.79,-82.93 135.99,-75.98"/>
</g>
</g>
</svg>
