<?xml version="1.0" encoding="UTF-8" standalone="no"?>
<!DOCTYPE svg PUBLIC "-//W3C//DTD SVG 1.1//EN"
 "http://www.w3.org/Graphics/SVG/1.1/DTD/svg11.dtd">
<!-- Generated by graphviz version 2.43.0 (0)
 -->
<!-- Title: refvsref Pages: 1 -->
<svg width="1537pt" height="151pt"
 viewBox="0.00 0.00 1537.00 150.97" xmlns="http://www.w3.org/2000/svg" xmlns:xlink="http://www.w3.org/1999/xlink">
<g id="graph0" class="graph" transform="scale(1 1) rotate(0) translate(4 146.97)">
<title>refvsref</title>
<polygon fill="white" stroke="transparent" points="-4,4 -4,-146.97 1533,-146.97 1533,4 -4,4"/>
<!-- demandq -->
<g id="node1" class="node">
<title>demandq</title>
<polygon fill="#bbffff" stroke="black" points="241.5,-36 104.5,-36 104.5,0 241.5,0 241.5,-36"/>
<text text-anchor="middle" x="173" y="-14.3" font-family="Times,serif" font-size="14.00">DD:calofDemand</text>
</g>
<!-- stdOffDist -->
<g id="node2" class="node">
<title>stdOffDist</title>
<polygon fill="#bbffff" stroke="black" points="394,-36 260,-36 260,0 394,0 394,-36"/>
<text text-anchor="middle" x="327" y="-14.3" font-family="Times,serif" font-size="14.00">DD:standOffDist</text>
</g>
<!-- demandq&#45;&gt;stdOffDist -->
<g id="edge1" class="edge">
<title>demandq&#45;&gt;stdOffDist</title>
<path fill="none" stroke="black" d="M241.58,-18C244.35,-18 247.12,-18 249.89,-18"/>
<polygon fill="black" stroke="black" points="249.93,-21.5 259.93,-18 249.93,-14.5 249.93,-21.5"/>
</g>
<!-- eqTNTChar -->
<g id="node3" class="node">
<title>eqTNTChar</title>
<polygon fill="#bbffff" stroke="black" points="517.5,-36 412.5,-36 412.5,0 517.5,0 517.5,-36"/>
<text text-anchor="middle" x="465" y="-14.3" font-family="Times,serif" font-size="14.00">DD:eqTNTW</text>
</g>
<!-- demandq&#45;&gt;eqTNTChar -->
<g id="edge2" class="edge">
<title>demandq&#45;&gt;eqTNTChar</title>
<path fill="none" stroke="black" d="M207.99,-36.16C223.48,-43.23 242.2,-50.46 260,-54 318.41,-65.61 336.08,-67.85 394,-54 405.54,-51.24 417.32,-46.28 427.89,-40.91"/>
<polygon fill="black" stroke="black" points="429.66,-43.94 436.83,-36.13 426.36,-37.76 429.66,-43.94"/>
</g>
<!-- riskFun -->
<g id="node4" class="node">
<title>riskFun</title>
<polygon fill="#fff68f" stroke="black" points="644.5,-108 549.5,-108 549.5,-72 644.5,-72 644.5,-108"/>
<text text-anchor="middle" x="597" y="-86.3" font-family="Times,serif" font-size="14.00">IM:riskFun</text>
</g>
<!-- minThick -->
<g id="node5" class="node">
<title>minThick</title>
<polygon fill="#bbffff" stroke="black" points="895.5,-36 786.5,-36 786.5,0 895.5,0 895.5,-36"/>
<text text-anchor="middle" x="841" y="-14.3" font-family="Times,serif" font-size="14.00">DD:minThick</text>
</g>
<!-- riskFun&#45;&gt;minThick -->
<g id="edge3" class="edge">
<title>riskFun&#45;&gt;minThick</title>
<path fill="none" stroke="black" d="M644.57,-74.76C647.76,-73.82 650.93,-72.89 654,-72 694.58,-60.2 740.2,-47.26 776.23,-37.12"/>
<polygon fill="black" stroke="black" points="777.44,-40.42 786.12,-34.34 775.55,-33.68 777.44,-40.42"/>
</g>
<!-- loadDurFactor -->
<g id="node6" class="node">
<title>loadDurFactor</title>
<polygon fill="#bbffff" stroke="black" points="1060,-36 914,-36 914,0 1060,0 1060,-36"/>
<text text-anchor="middle" x="987" y="-14.3" font-family="Times,serif" font-size="14.00">DD:loadDurFactor</text>
</g>
<!-- riskFun&#45;&gt;loadDurFactor -->
<g id="edge4" class="edge">
<title>riskFun&#45;&gt;loadDurFactor</title>
<path fill="none" stroke="black" d="M644.76,-74.2C647.87,-73.41 650.97,-72.66 654,-72 760.96,-48.51 792.23,-55.04 903.77,-36.14"/>
<polygon fill="black" stroke="black" points="904.47,-39.57 913.73,-34.43 903.28,-32.68 904.47,-39.57"/>
</g>
<!-- stressDistFac -->
<g id="node7" class="node">
<title>stressDistFac</title>
<polygon fill="#fff68f" stroke="black" points="801,-108 663,-108 663,-72 801,-72 801,-108"/>
<text text-anchor="middle" x="732" y="-86.3" font-family="Times,serif" font-size="14.00">IM:stressDistFac</text>
</g>
<!-- riskFun&#45;&gt;stressDistFac -->
<g id="edge5" class="edge">
<title>riskFun&#45;&gt;stressDistFac</title>
<path fill="none" stroke="black" d="M644.72,-90C647.36,-90 649.99,-90 652.63,-90"/>
<polygon fill="black" stroke="black" points="652.79,-93.5 662.79,-90 652.79,-86.5 652.79,-93.5"/>
</g>
<!-- aR -->
<g id="node8" class="node">
<title>aR</title>
<polygon fill="#bbffff" stroke="black" points="1206,-36 1078,-36 1078,0 1206,0 1206,-36"/>
<text text-anchor="middle" x="1142" y="-14.3" font-family="Times,serif" font-size="14.00">DD:aspectRatio</text>
</g>
<!-- stressDistFac&#45;&gt;aR -->
<g id="edge6" class="edge">
<title>stressDistFac&#45;&gt;aR</title>
<path fill="none" stroke="black" d="M801.27,-73.62C804.21,-73.05 807.13,-72.51 810,-72 921.29,-52.17 953.01,-56.92 1068.07,-36.08"/>
<polygon fill="black" stroke="black" points="1068.77,-39.51 1077.97,-34.26 1067.51,-32.62 1068.77,-39.51"/>
</g>
<!-- dimlessLoad -->
<g id="node9" class="node">
<title>dimlessLoad</title>
<polygon fill="#fff68f" stroke="black" points="949,-108 819,-108 819,-72 949,-72 949,-108"/>
<text text-anchor="middle" x="884" y="-86.3" font-family="Times,serif" font-size="14.00">IM:dimlessLoad</text>
</g>
<!-- stressDistFac&#45;&gt;dimlessLoad -->
<g id="edge7" class="edge">
<title>stressDistFac&#45;&gt;dimlessLoad</title>
<path fill="none" stroke="black" d="M801.17,-90C803.77,-90 806.36,-90 808.96,-90"/>
<polygon fill="black" stroke="black" points="808.97,-93.5 818.97,-90 808.97,-86.5 808.97,-93.5"/>
</g>
<!-- dimlessLoad&#45;&gt;demandq -->
<g id="edge12" class="edge">
<title>dimlessLoad&#45;&gt;demandq</title>
<path fill="none" stroke="black" d="M818.74,-73.41C815.79,-72.89 812.87,-72.42 810,-72 566.9,-36.49 499.32,-69.71 251.82,-35.97"/>
<polygon fill="black" stroke="black" points="252.19,-32.49 241.8,-34.58 251.23,-39.42 252.19,-32.49"/>
</g>
<!-- dimlessLoad&#45;&gt;minThick -->
<g id="edge10" class="edge">
<title>dimlessLoad&#45;&gt;minThick</title>
<path fill="none" stroke="black" d="M873.37,-71.7C868.37,-63.56 862.31,-53.69 856.79,-44.7"/>
<polygon fill="black" stroke="black" points="859.72,-42.79 851.51,-36.1 853.76,-46.46 859.72,-42.79"/>
</g>
<!-- glassTypeFac -->
<g id="node12" class="node">
<title>glassTypeFac</title>
<polygon fill="#bbffff" stroke="black" points="612.5,-36 541.5,-36 541.5,0 612.5,0 612.5,-36"/>
<text text-anchor="middle" x="577" y="-14.3" font-family="Times,serif" font-size="14.00">DD:gTF</text>
</g>
<!-- dimlessLoad&#45;&gt;glassTypeFac -->
<g id="edge11" class="edge">
<title>dimlessLoad&#45;&gt;glassTypeFac</title>
<path fill="none" stroke="black" d="M818.63,-73.97C815.71,-73.31 812.83,-72.65 810,-72 744.82,-57.1 669.36,-39.95 622.39,-29.3"/>
<polygon fill="black" stroke="black" points="623.06,-25.86 612.53,-27.06 621.51,-32.68 623.06,-25.86"/>
</g>
<!-- nFL -->
<g id="node10" class="node">
<title>nFL</title>
<polygon fill="#fff68f" stroke="black" points="1035,-108 967,-108 967,-72 1035,-72 1035,-108"/>
<text text-anchor="middle" x="1001" y="-86.3" font-family="Times,serif" font-size="14.00">IM:nFL</text>
</g>
<!-- nFL&#45;&gt;minThick -->
<g id="edge8" class="edge">
<title>nFL&#45;&gt;minThick</title>
<path fill="none" stroke="black" d="M966.68,-73.98C944.12,-64.12 914.28,-51.06 889.34,-40.15"/>
<polygon fill="black" stroke="black" points="890.61,-36.89 880.05,-36.08 887.81,-43.3 890.61,-36.89"/>
</g>
<!-- tolLoad -->
<g id="node11" class="node">
<title>tolLoad</title>
<polygon fill="#fff68f" stroke="black" points="1147,-108 1053,-108 1053,-72 1147,-72 1147,-108"/>
<text text-anchor="middle" x="1100" y="-86.3" font-family="Times,serif" font-size="14.00">IM:tolLoad</text>
</g>
<!-- nFL&#45;&gt;tolLoad -->
<g id="edge9" class="edge">
<title>nFL&#45;&gt;tolLoad</title>
<path fill="none" stroke="black" d="M1035.03,-90C1037.53,-90 1040.03,-90 1042.53,-90"/>
<polygon fill="black" stroke="black" points="1042.8,-93.5 1052.8,-90 1042.8,-86.5 1042.8,-93.5"/>
</g>
<!-- tolLoad&#45;&gt;aR -->
<g id="edge13" class="edge">
<title>tolLoad&#45;&gt;aR</title>
<path fill="none" stroke="black" d="M1110.38,-71.7C1115.26,-63.56 1121.19,-53.69 1126.58,-44.7"/>
<polygon fill="black" stroke="black" points="1129.59,-46.48 1131.74,-36.1 1123.59,-42.88 1129.59,-46.48"/>
</g>
<!-- sdfTol -->
<g id="node13" class="node">
<title>sdfTol</title>
<polygon fill="#fff68f" stroke="black" points="1248.5,-108 1165.5,-108 1165.5,-72 1248.5,-72 1248.5,-108"/>
<text text-anchor="middle" x="1207" y="-86.3" font-family="Times,serif" font-size="14.00">IM:sdfTol</text>
</g>
<!-- tolLoad&#45;&gt;sdfTol -->
<g id="edge14" class="edge">
<title>tolLoad&#45;&gt;sdfTol</title>
<path fill="none" stroke="black" d="M1147.23,-90C1149.89,-90 1152.54,-90 1155.2,-90"/>
<polygon fill="black" stroke="black" points="1155.44,-93.5 1165.44,-90 1155.44,-86.5 1155.44,-93.5"/>
</g>
<!-- sdfTol&#45;&gt;minThick -->
<g id="edge15" class="edge">
<title>sdfTol&#45;&gt;minThick</title>
<path fill="none" stroke="black" d="M1165.43,-74.47C1162.26,-73.57 1159.09,-72.73 1156,-72 1049.43,-46.81 1017.24,-57.83 905.67,-35.98"/>
<polygon fill="black" stroke="black" points="906.21,-32.52 895.71,-33.98 904.83,-39.38 906.21,-32.52"/>
</g>
<!-- sdfTol&#45;&gt;loadDurFactor -->
<g id="edge16" class="edge">
<title>sdfTol&#45;&gt;loadDurFactor</title>
<path fill="none" stroke="black" d="M1165.27,-75.02C1162.14,-73.99 1159.02,-72.98 1156,-72 1121.81,-60.94 1083.62,-48.94 1052.21,-39.15"/>
<polygon fill="black" stroke="black" points="1052.85,-35.69 1042.26,-36.06 1050.77,-42.37 1052.85,-35.69"/>
</g>
<!-- probBr -->
<g id="node14" class="node">
<title>probBr</title>
<polygon fill="#fff68f" stroke="black" points="376,-108 244,-108 244,-72 376,-72 376,-108"/>
<text text-anchor="middle" x="310" y="-86.3" font-family="Times,serif" font-size="14.00">IM:probOfBreak</text>
</g>
<!-- probBr&#45;&gt;riskFun -->
<g id="edge17" class="edge">
<title>probBr&#45;&gt;riskFun</title>
<path fill="none" stroke="black" d="M343.71,-108.16C358.66,-115.22 376.75,-122.46 394,-126 454.08,-138.33 472.62,-141.35 532,-126 542.51,-123.28 553.13,-118.47 562.65,-113.22"/>
<polygon fill="black" stroke="black" points="564.53,-116.18 571.41,-108.12 561,-110.13 564.53,-116.18"/>
</g>
<!-- lResistance -->
<g id="node15" class="node">
<title>lResistance</title>
<polygon fill="#fff68f" stroke="black" points="531.5,-108 394.5,-108 394.5,-72 531.5,-72 531.5,-108"/>
<text text-anchor="middle" x="463" y="-86.3" font-family="Times,serif" font-size="14.00">IM:calofCapacity</text>
</g>
<!-- lResistance&#45;&gt;nFL -->
<g id="edge19" class="edge">
<title>lResistance&#45;&gt;nFL</title>
<path fill="none" stroke="black" d="M497.99,-108.16C513.48,-115.23 532.2,-122.46 550,-126 636.97,-143.28 864.37,-152.44 949,-126 957.29,-123.41 965.41,-118.99 972.69,-114.11"/>
<polygon fill="black" stroke="black" points="974.74,-116.95 980.8,-108.26 970.64,-111.27 974.74,-116.95"/>
</g>
<!-- lResistance&#45;&gt;glassTypeFac -->
<g id="edge18" class="edge">
<title>lResistance&#45;&gt;glassTypeFac</title>
<path fill="none" stroke="black" d="M490.89,-71.88C505.79,-62.72 524.33,-51.34 540.38,-41.48"/>
<polygon fill="black" stroke="black" points="542.31,-44.41 549.01,-36.19 538.65,-38.44 542.31,-44.41"/>
</g>
<!-- isSafePb -->
<g id="node16" class="node">
<title>isSafePb</title>
<polygon fill="#fff68f" stroke="black" points="225.5,-108 122.5,-108 122.5,-72 225.5,-72 225.5,-108"/>
<text text-anchor="middle" x="174" y="-86.3" font-family="Times,serif" font-size="14.00">IM:isSafePb</text>
</g>
<!-- isSafePb&#45;&gt;probBr -->
<g id="edge20" class="edge">
<title>isSafePb&#45;&gt;probBr</title>
<path fill="none" stroke="black" d="M225.53,-90C228.18,-90 230.82,-90 233.47,-90"/>
<polygon fill="black" stroke="black" points="233.68,-93.5 243.68,-90 233.68,-86.5 233.68,-93.5"/>
</g>
<!-- isSafeLR -->
<g id="node17" class="node">
<title>isSafeLR</title>
<polygon fill="#fff68f" stroke="black" points="104,-108 0,-108 0,-72 104,-72 104,-108"/>
<text text-anchor="middle" x="52" y="-86.3" font-family="Times,serif" font-size="14.00">IM:isSafeLR</text>
</g>
<!-- isSafePb&#45;&gt;isSafeLR -->
<g id="edge21" class="edge">
<title>isSafePb&#45;&gt;isSafeLR</title>
<path fill="none" stroke="black" d="M122.36,-76.82C119.74,-76.64 117.13,-76.54 114.51,-76.51"/>
<polygon fill="black" stroke="black" points="114.33,-73.01 104.42,-76.77 114.51,-80.01 114.33,-73.01"/>
</g>
<!-- isSafeLR&#45;&gt;demandq -->
<g id="edge22" class="edge">
<title>isSafeLR&#45;&gt;demandq</title>
<path fill="none" stroke="black" d="M81.6,-71.88C97.57,-62.64 117.46,-51.13 134.61,-41.21"/>
<polygon fill="black" stroke="black" points="136.38,-44.23 143.29,-36.19 132.88,-38.17 136.38,-44.23"/>
</g>
<!-- isSafeLR&#45;&gt;lResistance -->
<g id="edge23" class="edge">
<title>isSafeLR&#45;&gt;lResistance</title>
<path fill="none" stroke="black" d="M79.74,-108.13C92.14,-115.19 107.26,-122.43 122,-126 176.86,-139.28 320.64,-137 376,-126 390.32,-123.15 405.24,-117.91 418.59,-112.29"/>
<polygon fill="black" stroke="black" points="420.26,-115.38 428.01,-108.16 417.45,-108.97 420.26,-115.38"/>
</g>
<!-- isSafeLR&#45;&gt;isSafePb -->
<g id="edge24" class="edge">
<title>isSafeLR&#45;&gt;isSafePb</title>
<path fill="none" stroke="black" d="M104.42,-103.23C107.04,-103.4 109.65,-103.48 112.27,-103.5"/>
<polygon fill="black" stroke="black" points="112.47,-106.99 122.36,-103.18 112.26,-100 112.47,-106.99"/>
</g>
<!-- isSafeProb -->
<g id="node18" class="node">
<title>isSafeProb</title>
<polygon fill="pink" stroke="black" points="1389,-108 1267,-108 1267,-72 1389,-72 1389,-108"/>
<text text-anchor="middle" x="1328" y="-86.3" font-family="Times,serif" font-size="14.00">TM:isSafeProb</text>
</g>
<!-- isSafeLoad -->
<g id="node19" class="node">
<title>isSafeLoad</title>
<polygon fill="pink" stroke="black" points="1529,-108 1407,-108 1407,-72 1529,-72 1529,-108"/>
<text text-anchor="middle" x="1468" y="-86.3" font-family="Times,serif" font-size="14.00">TM:isSafeLoad</text>
</g>
</g>
</svg>
