<?xml version="1.0" encoding="UTF-8" standalone="no"?>
<!DOCTYPE svg PUBLIC "-//W3C//DTD SVG 1.1//EN"
 "http://www.w3.org/Graphics/SVG/1.1/DTD/svg11.dtd">
<!-- Generated by graphviz version 2.43.0 (0)
 -->
<!-- Title: refvsref Pages: 1 -->
<svg width="1995pt" height="116pt"
 viewBox="0.00 0.00 1994.50 116.00" xmlns="http://www.w3.org/2000/svg" xmlns:xlink="http://www.w3.org/1999/xlink">
<g id="graph0" class="graph" transform="scale(1 1) rotate(0) translate(4 112)">
<title>refvsref</title>
<polygon fill="white" stroke="transparent" points="-4,4 -4,-112 1990.5,-112 1990.5,4 -4,4"/>
<!-- riskFun -->
<g id="node1" class="node">
<title>riskFun</title>
<polygon fill="#bbffff" stroke="black" points="719,-36 621,-36 621,0 719,0 719,-36"/>
<text text-anchor="middle" x="670" y="-14.3" font-family="Times,serif" font-size="14.00">DD:riskFun</text>
</g>
<!-- minThick -->
<g id="node2" class="node">
<title>minThick</title>
<polygon fill="#bbffff" stroke="black" points="1897.5,-36 1788.5,-36 1788.5,0 1897.5,0 1897.5,-36"/>
<text text-anchor="middle" x="1843" y="-14.3" font-family="Times,serif" font-size="14.00">DD:minThick</text>
</g>
<!-- riskFun&#45;&gt;minThick -->
<g id="edge1" class="edge">
<title>riskFun&#45;&gt;minThick</title>
<path fill="none" stroke="black" d="M696.88,-36.12C708.91,-43.18 723.61,-50.43 738,-54 793.64,-67.82 1714.16,-67.02 1770,-54 1781.81,-51.25 1793.92,-46.29 1804.78,-40.92"/>
<polygon fill="black" stroke="black" points="1806.72,-43.86 1813.97,-36.14 1803.49,-37.65 1806.72,-43.86"/>
</g>
<!-- loadDurFactor -->
<g id="node3" class="node">
<title>loadDurFactor</title>
<polygon fill="#bbffff" stroke="black" points="1624,-36 1478,-36 1478,0 1624,0 1624,-36"/>
<text text-anchor="middle" x="1551" y="-14.3" font-family="Times,serif" font-size="14.00">DD:loadDurFactor</text>
</g>
<!-- riskFun&#45;&gt;loadDurFactor -->
<g id="edge2" class="edge">
<title>riskFun&#45;&gt;loadDurFactor</title>
<path fill="none" stroke="black" d="M696.88,-36.12C708.91,-43.18 723.61,-50.43 738,-54 815.86,-73.34 1381.2,-69.02 1460,-54 1475.05,-51.13 1490.79,-45.82 1504.87,-40.13"/>
<polygon fill="black" stroke="black" points="1506.45,-43.26 1514.32,-36.17 1503.74,-36.81 1506.45,-43.26"/>
</g>
<!-- stressDistFac -->
<g id="node4" class="node">
<title>stressDistFac</title>
<polygon fill="#bbffff" stroke="black" points="878.5,-36 737.5,-36 737.5,0 878.5,0 878.5,-36"/>
<text text-anchor="middle" x="808" y="-14.3" font-family="Times,serif" font-size="14.00">DD:stressDistFac</text>
</g>
<!-- riskFun&#45;&gt;stressDistFac -->
<g id="edge3" class="edge">
<title>riskFun&#45;&gt;stressDistFac</title>
<path fill="none" stroke="black" d="M719.05,-18C721.84,-18 724.62,-18 727.4,-18"/>
<polygon fill="black" stroke="black" points="727.47,-21.5 737.47,-18 727.47,-14.5 727.47,-21.5"/>
</g>
<!-- dimlessLoad -->
<g id="node5" class="node">
<title>dimlessLoad</title>
<polygon fill="#bbffff" stroke="black" points="1029.5,-36 896.5,-36 896.5,0 1029.5,0 1029.5,-36"/>
<text text-anchor="middle" x="963" y="-14.3" font-family="Times,serif" font-size="14.00">DD:dimlessLoad</text>
</g>
<!-- stressDistFac&#45;&gt;dimlessLoad -->
<g id="edge4" class="edge">
<title>stressDistFac&#45;&gt;dimlessLoad</title>
<path fill="none" stroke="black" d="M878.54,-18C881.14,-18 883.73,-18 886.33,-18"/>
<polygon fill="black" stroke="black" points="886.35,-21.5 896.35,-18 886.35,-14.5 886.35,-21.5"/>
</g>
<!-- aR -->
<g id="node6" class="node">
<title>aR</title>
<polygon fill="#bbffff" stroke="black" points="1770,-36 1642,-36 1642,0 1770,0 1770,-36"/>
<text text-anchor="middle" x="1706" y="-14.3" font-family="Times,serif" font-size="14.00">DD:aspectRatio</text>
</g>
<!-- stressDistFac&#45;&gt;aR -->
<g id="edge5" class="edge">
<title>stressDistFac&#45;&gt;aR</title>
<path fill="none" stroke="black" d="M843.83,-36.16C859.7,-43.23 878.84,-50.47 897,-54 976.29,-69.43 1544.94,-70.59 1624,-54 1637.46,-51.18 1651.41,-46.01 1663.9,-40.45"/>
<polygon fill="black" stroke="black" points="1665.54,-43.54 1673.14,-36.15 1662.59,-37.19 1665.54,-43.54"/>
</g>
<!-- dimlessLoad&#45;&gt;minThick -->
<g id="edge8" class="edge">
<title>dimlessLoad&#45;&gt;minThick</title>
<path fill="none" stroke="black" d="M997.14,-36.16C1012.27,-43.22 1030.57,-50.46 1048,-54 1126.62,-69.96 1691.87,-72.22 1770,-54 1781.81,-51.25 1793.92,-46.29 1804.78,-40.92"/>
<polygon fill="black" stroke="black" points="1806.72,-43.86 1813.97,-36.14 1803.49,-37.65 1806.72,-43.86"/>
</g>
<!-- glassTypeFac -->
<g id="node9" class="node">
<title>glassTypeFac</title>
<polygon fill="#bbffff" stroke="black" points="1986.5,-36 1915.5,-36 1915.5,0 1986.5,0 1986.5,-36"/>
<text text-anchor="middle" x="1951" y="-14.3" font-family="Times,serif" font-size="14.00">DD:gTF</text>
</g>
<!-- dimlessLoad&#45;&gt;glassTypeFac -->
<g id="edge9" class="edge">
<title>dimlessLoad&#45;&gt;glassTypeFac</title>
<path fill="none" stroke="black" d="M997.14,-36.16C1012.27,-43.22 1030.57,-50.46 1048,-54 1140.56,-72.79 1807.73,-81.76 1898,-54 1906.48,-51.39 1914.83,-46.91 1922.29,-41.98"/>
<polygon fill="black" stroke="black" points="1924.49,-44.72 1930.61,-36.07 1920.43,-39.01 1924.49,-44.72"/>
</g>
<!-- demandq -->
<g id="node10" class="node">
<title>demandq</title>
<polygon fill="#bbffff" stroke="black" points="1184.5,-36 1047.5,-36 1047.5,0 1184.5,0 1184.5,-36"/>
<text text-anchor="middle" x="1116" y="-14.3" font-family="Times,serif" font-size="14.00">DD:calofDemand</text>
</g>
<!-- dimlessLoad&#45;&gt;demandq -->
<g id="edge10" class="edge">
<title>dimlessLoad&#45;&gt;demandq</title>
<path fill="none" stroke="black" d="M1029.64,-18C1032.11,-18 1034.57,-18 1037.04,-18"/>
<polygon fill="black" stroke="black" points="1037.18,-21.5 1047.18,-18 1037.18,-14.5 1037.18,-21.5"/>
</g>
<!-- nFL -->
<g id="node7" class="node">
<title>nFL</title>
<polygon fill="#bbffff" stroke="black" points="229.5,-36 158.5,-36 158.5,0 229.5,0 229.5,-36"/>
<text text-anchor="middle" x="194" y="-14.3" font-family="Times,serif" font-size="14.00">DD:nFL</text>
</g>
<!-- nFL&#45;&gt;minThick -->
<g id="edge6" class="edge">
<title>nFL&#45;&gt;minThick</title>
<path fill="none" stroke="black" d="M214.39,-36.07C223.67,-43.12 235.2,-50.37 247,-54 327.87,-78.87 1687.6,-73.21 1770,-54 1781.81,-51.25 1793.92,-46.29 1804.78,-40.92"/>
<polygon fill="black" stroke="black" points="1806.72,-43.86 1813.97,-36.14 1803.49,-37.65 1806.72,-43.86"/>
</g>
<!-- tolLoad -->
<g id="node8" class="node">
<title>tolLoad</title>
<polygon fill="#bbffff" stroke="black" points="344.5,-36 247.5,-36 247.5,0 344.5,0 344.5,-36"/>
<text text-anchor="middle" x="296" y="-14.3" font-family="Times,serif" font-size="14.00">DD:tolLoad</text>
</g>
<!-- nFL&#45;&gt;tolLoad -->
<g id="edge7" class="edge">
<title>nFL&#45;&gt;tolLoad</title>
<path fill="none" stroke="black" d="M229.86,-18C232.33,-18 234.8,-18 237.27,-18"/>
<polygon fill="black" stroke="black" points="237.43,-21.5 247.43,-18 237.43,-14.5 237.43,-21.5"/>
</g>
<!-- tolLoad&#45;&gt;aR -->
<g id="edge12" class="edge">
<title>tolLoad&#45;&gt;aR</title>
<path fill="none" stroke="black" d="M322.45,-36.12C334.3,-43.18 348.79,-50.42 363,-54 430.94,-71.1 1555.44,-68.39 1624,-54 1637.46,-51.18 1651.41,-46.01 1663.9,-40.45"/>
<polygon fill="black" stroke="black" points="1665.54,-43.54 1673.14,-36.15 1662.59,-37.19 1665.54,-43.54"/>
</g>
<!-- sdfTol -->
<g id="node11" class="node">
<title>sdfTol</title>
<polygon fill="#bbffff" stroke="black" points="449,-36 363,-36 363,0 449,0 449,-36"/>
<text text-anchor="middle" x="406" y="-14.3" font-family="Times,serif" font-size="14.00">DD:sdfTol</text>
</g>
<!-- tolLoad&#45;&gt;sdfTol -->
<g id="edge11" class="edge">
<title>tolLoad&#45;&gt;sdfTol</title>
<path fill="none" stroke="black" d="M344.55,-18C347.21,-18 349.88,-18 352.54,-18"/>
<polygon fill="black" stroke="black" points="352.8,-21.5 362.8,-18 352.8,-14.5 352.8,-21.5"/>
</g>
<!-- stdOffDist -->
<g id="node14" class="node">
<title>stdOffDist</title>
<polygon fill="#bbffff" stroke="black" points="1460,-36 1326,-36 1326,0 1460,0 1460,-36"/>
<text text-anchor="middle" x="1393" y="-14.3" font-family="Times,serif" font-size="14.00">DD:standOffDist</text>
</g>
<!-- demandq&#45;&gt;stdOffDist -->
<g id="edge18" class="edge">
<title>demandq&#45;&gt;stdOffDist</title>
<path fill="none" stroke="black" d="M1150.99,-36.16C1166.48,-43.23 1185.2,-50.46 1203,-54 1248.77,-63.1 1262.27,-63.29 1308,-54 1322.03,-51.15 1336.61,-45.91 1349.66,-40.29"/>
<polygon fill="black" stroke="black" points="1351.17,-43.45 1358.86,-36.16 1348.31,-37.06 1351.17,-43.45"/>
</g>
<!-- eqTNTChar -->
<g id="node15" class="node">
<title>eqTNTChar</title>
<polygon fill="#bbffff" stroke="black" points="1307.5,-36 1202.5,-36 1202.5,0 1307.5,0 1307.5,-36"/>
<text text-anchor="middle" x="1255" y="-14.3" font-family="Times,serif" font-size="14.00">DD:eqTNTW</text>
</g>
<!-- demandq&#45;&gt;eqTNTChar -->
<g id="edge19" class="edge">
<title>demandq&#45;&gt;eqTNTChar</title>
<path fill="none" stroke="black" d="M1184.69,-18C1187.16,-18 1189.63,-18 1192.1,-18"/>
<polygon fill="black" stroke="black" points="1192.26,-21.5 1202.26,-18 1192.26,-14.5 1192.26,-21.5"/>
</g>
<!-- sdfTol&#45;&gt;minThick -->
<g id="edge13" class="edge">
<title>sdfTol&#45;&gt;minThick</title>
<path fill="none" stroke="black" d="M430.3,-36.11C441.23,-43.16 454.66,-50.41 468,-54 537.85,-72.81 1699.56,-70.43 1770,-54 1781.81,-51.25 1793.92,-46.29 1804.78,-40.92"/>
<polygon fill="black" stroke="black" points="1806.72,-43.86 1813.97,-36.14 1803.49,-37.65 1806.72,-43.86"/>
</g>
<!-- sdfTol&#45;&gt;loadDurFactor -->
<g id="edge14" class="edge">
<title>sdfTol&#45;&gt;loadDurFactor</title>
<path fill="none" stroke="black" d="M430.3,-36.11C441.23,-43.16 454.66,-50.41 468,-54 521.22,-68.33 1405.86,-64.32 1460,-54 1475.05,-51.13 1490.79,-45.82 1504.87,-40.13"/>
<polygon fill="black" stroke="black" points="1506.45,-43.26 1514.32,-36.17 1503.74,-36.81 1506.45,-43.26"/>
</g>
<!-- probBr -->
<g id="node12" class="node">
<title>probBr</title>
<polygon fill="#bbffff" stroke="black" points="602.5,-36 467.5,-36 467.5,0 602.5,0 602.5,-36"/>
<text text-anchor="middle" x="535" y="-14.3" font-family="Times,serif" font-size="14.00">DD:probOfBreak</text>
</g>
<!-- probBr&#45;&gt;riskFun -->
<g id="edge15" class="edge">
<title>probBr&#45;&gt;riskFun</title>
<path fill="none" stroke="black" d="M602.76,-18C605.41,-18 608.05,-18 610.69,-18"/>
<polygon fill="black" stroke="black" points="610.89,-21.5 620.89,-18 610.89,-14.5 610.89,-21.5"/>
</g>
<!-- lResistance -->
<g id="node13" class="node">
<title>lResistance</title>
<polygon fill="#bbffff" stroke="black" points="140,-36 0,-36 0,0 140,0 140,-36"/>
<text text-anchor="middle" x="70" y="-14.3" font-family="Times,serif" font-size="14.00">DD:calofCapacity</text>
</g>
<!-- lResistance&#45;&gt;nFL -->
<g id="edge16" class="edge">
<title>lResistance&#45;&gt;nFL</title>
<path fill="none" stroke="black" d="M140.23,-18C142.87,-18 145.5,-18 148.14,-18"/>
<polygon fill="black" stroke="black" points="148.3,-21.5 158.3,-18 148.3,-14.5 148.3,-21.5"/>
</g>
<!-- lResistance&#45;&gt;glassTypeFac -->
<g id="edge17" class="edge">
<title>lResistance&#45;&gt;glassTypeFac</title>
<path fill="none" stroke="black" d="M105.41,-36.16C121.09,-43.23 140.02,-50.46 158,-54 252.85,-72.65 1805.6,-82.41 1898,-54 1906.48,-51.39 1914.83,-46.91 1922.29,-41.98"/>
<polygon fill="black" stroke="black" points="1924.49,-44.72 1930.61,-36.07 1920.43,-39.01 1924.49,-44.72"/>
</g>
<!-- isSafePb -->
<g id="node16" class="node">
<title>isSafePb</title>
<polygon fill="#fff68f" stroke="black" points="586.5,-108 483.5,-108 483.5,-72 586.5,-72 586.5,-108"/>
<text text-anchor="middle" x="535" y="-86.3" font-family="Times,serif" font-size="14.00">IM:isSafePb</text>
</g>
<!-- isSafePb&#45;&gt;probBr -->
<g id="edge20" class="edge">
<title>isSafePb&#45;&gt;probBr</title>
<path fill="none" stroke="black" d="M535,-71.7C535,-63.98 535,-54.71 535,-46.11"/>
<polygon fill="black" stroke="black" points="538.5,-46.1 535,-36.1 531.5,-46.1 538.5,-46.1"/>
</g>
<!-- isSafeLR -->
<g id="node17" class="node">
<title>isSafeLR</title>
<polygon fill="#fff68f" stroke="black" points="465,-108 361,-108 361,-72 465,-72 465,-108"/>
<text text-anchor="middle" x="413" y="-86.3" font-family="Times,serif" font-size="14.00">IM:isSafeLR</text>
</g>
<!-- isSafePb&#45;&gt;isSafeLR -->
<g id="edge21" class="edge">
<title>isSafePb&#45;&gt;isSafeLR</title>
<path fill="none" stroke="black" d="M483.36,-76.82C480.74,-76.64 478.13,-76.54 475.51,-76.51"/>
<polygon fill="black" stroke="black" points="475.33,-73.01 465.42,-76.77 475.51,-80.01 475.33,-73.01"/>
</g>
<!-- isSafeLR&#45;&gt;demandq -->
<g id="edge23" class="edge">
<title>isSafeLR&#45;&gt;demandq</title>
<path fill="none" stroke="black" d="M465.26,-73.86C468.54,-73.16 471.81,-72.53 475,-72 719.47,-31.12 788.49,-70.12 1037.18,-36.13"/>
<polygon fill="black" stroke="black" points="1037.83,-39.57 1047.25,-34.73 1036.86,-32.64 1037.83,-39.57"/>
</g>
<!-- isSafeLR&#45;&gt;lResistance -->
<g id="edge22" class="edge">
<title>isSafeLR&#45;&gt;lResistance</title>
<path fill="none" stroke="black" d="M360.86,-78.75C309.76,-68.66 229.39,-52.66 150.33,-36.26"/>
<polygon fill="black" stroke="black" points="150.7,-32.77 140.2,-34.16 149.28,-39.62 150.7,-32.77"/>
</g>
<!-- isSafeLR&#45;&gt;isSafePb -->
<g id="edge24" class="edge">
<title>isSafeLR&#45;&gt;isSafePb</title>
<path fill="none" stroke="black" d="M465.42,-103.23C468.04,-103.4 470.65,-103.48 473.27,-103.5"/>
<polygon fill="black" stroke="black" points="473.47,-106.99 483.36,-103.18 473.26,-100 473.47,-106.99"/>
</g>
<!-- isSafeProb -->
<g id="node18" class="node">
<title>isSafeProb</title>
<polygon fill="pink" stroke="black" points="727,-108 605,-108 605,-72 727,-72 727,-108"/>
<text text-anchor="middle" x="666" y="-86.3" font-family="Times,serif" font-size="14.00">TM:isSafeProb</text>
</g>
<!-- isSafeLoad -->
<g id="node19" class="node">
<title>isSafeLoad</title>
<polygon fill="pink" stroke="black" points="867,-108 745,-108 745,-72 867,-72 867,-108"/>
<text text-anchor="middle" x="806" y="-86.3" font-family="Times,serif" font-size="14.00">TM:isSafeLoad</text>
</g>
</g>
</svg>
