<?xml version="1.0" encoding="UTF-8" standalone="no"?>
<!DOCTYPE svg PUBLIC "-//W3C//DTD SVG 1.1//EN"
 "http://www.w3.org/Graphics/SVG/1.1/DTD/svg11.dtd">
<!-- Generated by graphviz version 2.43.0 (0)
 -->
<!-- Title: allvsr Pages: 1 -->
<svg width="1745pt" height="116pt"
 viewBox="0.00 0.00 1744.50 116.00" xmlns="http://www.w3.org/2000/svg" xmlns:xlink="http://www.w3.org/1999/xlink">
<g id="graph0" class="graph" transform="scale(1 1) rotate(0) translate(4 112)">
<title>allvsr</title>
<polygon fill="white" stroke="transparent" points="-4,4 -4,-112 1740.5,-112 1740.5,4 -4,4"/>
<!-- calcAngPos -->
<g id="node1" class="node">
<title>calcAngPos</title>
<polygon fill="ivory" stroke="black" points="122,-108 0,-108 0,-72 122,-72 122,-108"/>
<text text-anchor="middle" x="61" y="-86.3" font-family="Times,serif" font-size="14.00">FR:calcAngPos</text>
</g>
<!-- theory -->
<g id="node2" class="node">
<title>theory</title>
<polygon fill="#fff68f" stroke="black" points="249.5,-36 18.5,-36 18.5,0 249.5,0 249.5,-36"/>
<text text-anchor="middle" x="134" y="-14.3" font-family="Times,serif" font-size="14.00">IM:calOfAngularDisplacement</text>
</g>
<!-- calcAngPos&#45;&gt;theory -->
<g id="edge1" class="edge">
<title>calcAngPos&#45;&gt;theory:angularDisplacementIM</title>
<path fill="none" stroke="black" d="M79.04,-71.7C88.06,-63.05 99.12,-52.45 108.94,-43.03"/>
<polygon fill="black" stroke="black" points="111.37,-45.55 116.16,-36.1 106.52,-40.5 111.37,-45.55"/>
</g>
<!-- outputValues -->
<g id="node3" class="node">
<title>outputValues</title>
<polygon fill="ivory" stroke="black" points="275.5,-108 140.5,-108 140.5,-72 275.5,-72 275.5,-108"/>
<text text-anchor="middle" x="208" y="-86.3" font-family="Times,serif" font-size="14.00">FR:outputValues</text>
</g>
<!-- outputValues&#45;&gt;theory -->
<g id="edge2" class="edge">
<title>outputValues&#45;&gt;theory:angularDisplacementIM</title>
<path fill="none" stroke="black" d="M189.71,-71.7C180.57,-63.05 169.36,-52.45 159.4,-43.03"/>
<polygon fill="black" stroke="black" points="161.75,-40.43 152.08,-36.1 156.94,-45.52 161.75,-40.43"/>
</g>
<!-- twoDMotion -->
<g id="node4" class="node">
<title>twoDMotion</title>
<polygon fill="mistyrose" stroke="black" points="412.5,-108 293.5,-108 293.5,-72 412.5,-72 412.5,-108"/>
<text text-anchor="middle" x="353" y="-86.3" font-family="Times,serif" font-size="14.00">A:twoDMotion</text>
</g>
<!-- cartSys -->
<g id="node5" class="node">
<title>cartSys</title>
<polygon fill="mistyrose" stroke="black" points="515.5,-108 430.5,-108 430.5,-72 515.5,-72 515.5,-108"/>
<text text-anchor="middle" x="473" y="-86.3" font-family="Times,serif" font-size="14.00">A:cartSys</text>
</g>
<!-- cartSysR -->
<g id="node6" class="node">
<title>cartSysR</title>
<polygon fill="mistyrose" stroke="black" points="628.5,-108 533.5,-108 533.5,-72 628.5,-72 628.5,-108"/>
<text text-anchor="middle" x="581" y="-86.3" font-family="Times,serif" font-size="14.00">A:cartSysR</text>
</g>
<!-- yAxisDir -->
<g id="node7" class="node">
<title>yAxisDir</title>
<polygon fill="mistyrose" stroke="black" points="739,-108 647,-108 647,-72 739,-72 739,-108"/>
<text text-anchor="middle" x="693" y="-86.3" font-family="Times,serif" font-size="14.00">A:yAxisDir</text>
</g>
<!-- startOrigin -->
<g id="node8" class="node">
<title>startOrigin</title>
<polygon fill="mistyrose" stroke="black" points="867,-108 757,-108 757,-72 867,-72 867,-108"/>
<text text-anchor="middle" x="812" y="-86.3" font-family="Times,serif" font-size="14.00">A:startOrigin</text>
</g>
<!-- dataDefn -->
<g id="node9" class="node">
<title>dataDefn</title>
<polygon fill="#bbffff" stroke="black" points="1033,-108 885,-108 885,-72 1033,-72 1033,-108"/>
<text text-anchor="middle" x="959" y="-86.3" font-family="Times,serif" font-size="14.00">DD:periodSHMDD</text>
</g>
<!-- inputValues -->
<g id="node10" class="node">
<title>inputValues</title>
<polygon fill="ivory" stroke="black" points="1176.5,-108 1051.5,-108 1051.5,-72 1176.5,-72 1176.5,-108"/>
<text text-anchor="middle" x="1114" y="-86.3" font-family="Times,serif" font-size="14.00">FR:inputValues</text>
</g>
<!-- verifyInptVals -->
<g id="node11" class="node">
<title>verifyInptVals</title>
<polygon fill="ivory" stroke="black" points="1335.5,-108 1194.5,-108 1194.5,-72 1335.5,-72 1335.5,-108"/>
<text text-anchor="middle" x="1265" y="-86.3" font-family="Times,serif" font-size="14.00">FR:verifyInptVals</text>
</g>
<!-- correct -->
<g id="node12" class="node">
<title>correct</title>
<polygon fill="ivory" stroke="black" points="1458,-108 1354,-108 1354,-72 1458,-72 1458,-108"/>
<text text-anchor="middle" x="1406" y="-86.3" font-family="Times,serif" font-size="14.00">NFR:correct</text>
</g>
<!-- portable -->
<g id="node13" class="node">
<title>portable</title>
<polygon fill="ivory" stroke="black" points="1589.5,-108 1476.5,-108 1476.5,-72 1589.5,-72 1589.5,-108"/>
<text text-anchor="middle" x="1533" y="-86.3" font-family="Times,serif" font-size="14.00">NFR:portable</text>
</g>
<!-- motionMass -->
<g id="node14" class="node">
<title>motionMass</title>
<polygon fill="#ffb90f" stroke="black" points="1736.5,-108 1607.5,-108 1607.5,-72 1736.5,-72 1736.5,-108"/>
<text text-anchor="middle" x="1672" y="-86.3" font-family="Times,serif" font-size="14.00">GS:motionMass</text>
</g>
</g>
</svg>
