<?xml version="1.0" encoding="UTF-8" standalone="no"?>
<!DOCTYPE svg PUBLIC "-//W3C//DTD SVG 1.1//EN"
 "http://www.w3.org/Graphics/SVG/1.1/DTD/svg11.dtd">
<!-- Generated by graphviz version 2.43.0 (0)
 -->
<!-- Title: avsa Pages: 1 -->
<svg width="582pt" height="44pt"
 viewBox="0.00 0.00 581.50 44.00" xmlns="http://www.w3.org/2000/svg" xmlns:xlink="http://www.w3.org/1999/xlink">
<g id="graph0" class="graph" transform="scale(1 1) rotate(0) translate(4 40)">
<title>avsa</title>
<polygon fill="white" stroke="transparent" points="-4,4 -4,-40 577.5,-40 577.5,4 -4,4"/>
<!-- twoDMotion -->
<g id="node1" class="node">
<title>twoDMotion</title>
<polygon fill="mistyrose" stroke="black" points="119,-36 0,-36 0,0 119,0 119,-36"/>
<text text-anchor="middle" x="59.5" y="-14.3" font-family="Times,serif" font-size="14.00">A:twoDMotion</text>
</g>
<!-- cartSys -->
<g id="node2" class="node">
<title>cartSys</title>
<polygon fill="mistyrose" stroke="black" points="222,-36 137,-36 137,0 222,0 222,-36"/>
<text text-anchor="middle" x="179.5" y="-14.3" font-family="Times,serif" font-size="14.00">A:cartSys</text>
</g>
<!-- cartSysR -->
<g id="node3" class="node">
<title>cartSysR</title>
<polygon fill="mistyrose" stroke="black" points="335,-36 240,-36 240,0 335,0 335,-36"/>
<text text-anchor="middle" x="287.5" y="-14.3" font-family="Times,serif" font-size="14.00">A:cartSysR</text>
</g>
<!-- yAxisDir -->
<g id="node4" class="node">
<title>yAxisDir</title>
<polygon fill="mistyrose" stroke="black" points="445.5,-36 353.5,-36 353.5,0 445.5,0 445.5,-36"/>
<text text-anchor="middle" x="399.5" y="-14.3" font-family="Times,serif" font-size="14.00">A:yAxisDir</text>
</g>
<!-- startOrigin -->
<g id="node5" class="node">
<title>startOrigin</title>
<polygon fill="mistyrose" stroke="black" points="573.5,-36 463.5,-36 463.5,0 573.5,0 573.5,-36"/>
<text text-anchor="middle" x="518.5" y="-14.3" font-family="Times,serif" font-size="14.00">A:startOrigin</text>
</g>
</g>
</svg>
