<?xml version="1.0" encoding="UTF-8" standalone="no"?>
<!DOCTYPE svg PUBLIC "-//W3C//DTD SVG 1.1//EN"
 "http://www.w3.org/Graphics/SVG/1.1/DTD/svg11.dtd">
<!-- Generated by graphviz version 2.43.0 (0)
 -->
<!-- Title: G Pages: 1 -->
<svg width="431pt" height="288pt"
 viewBox="0.00 0.00 431.15 288.00" xmlns="http://www.w3.org/2000/svg" xmlns:xlink="http://www.w3.org/1999/xlink">
<g id="graph0" class="graph" transform="scale(0.25 0.25) rotate(0) translate(4 1134.67)">
<title>G</title>
<polygon fill="white" stroke="transparent" points="-4,4 -4,-1134.67 1700.63,-1134.67 1700.63,4 -4,4"/>
<!-- u8 -->
<g id="node1" class="node">
<title>u8</title>
<ellipse fill="#bbffbb" stroke="black" cx="854.54" cy="-727" rx="104.78" ry="18"/>
<text text-anchor="middle" x="854.54" y="-723.3" font-family="Times,serif" font-size="14.00">Drasil.Website.Body</text>
</g>
<!-- u7 -->
<g id="node2" class="node">
<title>u7</title>
<ellipse fill="#bbffbb" stroke="black" cx="108.54" cy="-404" rx="108.58" ry="18"/>
<text text-anchor="middle" x="108.54" y="-400.3" font-family="Times,serif" font-size="14.00">Drasil.Website.About</text>
</g>
<!-- u8&#45;&gt;u7 -->
<g id="edge8" class="edge">
<title>u8&#45;&gt;u7</title>
<path fill="none" stroke="black" d="M817.55,-710.08C693.52,-656.71 292.51,-484.16 155.18,-425.07"/>
<polygon fill="black" stroke="black" points="156.33,-421.75 145.76,-421.01 153.56,-428.18 156.33,-421.75"/>
</g>
<!-- u6 -->
<g id="node3" class="node">
<title>u6</title>
<ellipse fill="#bbffbb" stroke="black" cx="387.54" cy="-404" rx="152.17" ry="18"/>
<text text-anchor="middle" x="387.54" y="-400.3" font-family="Times,serif" font-size="14.00">Drasil.Website.Documentation</text>
</g>
<!-- u8&#45;&gt;u6 -->
<g id="edge7" class="edge">
<title>u8&#45;&gt;u6</title>
<path fill="none" stroke="black" d="M830.42,-709.42C752.78,-656.05 509.31,-488.7 420.44,-427.61"/>
<polygon fill="black" stroke="black" points="422.31,-424.65 412.08,-421.87 418.34,-430.42 422.31,-424.65"/>
</g>
<!-- u4 -->
<g id="node5" class="node">
<title>u4</title>
<ellipse fill="#bbffbb" stroke="black" cx="709.54" cy="-404" rx="151.37" ry="18"/>
<text text-anchor="middle" x="709.54" y="-400.3" font-family="Times,serif" font-size="14.00">Drasil.Website.GettingStarted</text>
</g>
<!-- u8&#45;&gt;u4 -->
<g id="edge6" class="edge">
<title>u8&#45;&gt;u4</title>
<path fill="none" stroke="black" d="M846.74,-708.74C822.85,-655.84 750.49,-495.65 721.62,-431.74"/>
<polygon fill="black" stroke="black" points="724.68,-430.02 717.37,-422.34 718.3,-432.9 724.68,-430.02"/>
</g>
<!-- u3 -->
<g id="node6" class="node">
<title>u3</title>
<ellipse fill="#bbffbb" stroke="black" cx="999.54" cy="-404" rx="120.48" ry="18"/>
<text text-anchor="middle" x="999.54" y="-400.3" font-family="Times,serif" font-size="14.00">Drasil.Website.Analysis</text>
</g>
<!-- u8&#45;&gt;u3 -->
<g id="edge5" class="edge">
<title>u8&#45;&gt;u3</title>
<path fill="none" stroke="black" d="M862.34,-708.74C886.23,-655.84 958.59,-495.65 987.46,-431.74"/>
<polygon fill="black" stroke="black" points="990.78,-432.9 991.71,-422.34 984.4,-430.02 990.78,-432.9"/>
</g>
<!-- u2 -->
<g id="node7" class="node">
<title>u2</title>
<ellipse fill="#bbffbb" stroke="black" cx="1269.54" cy="-404" rx="131.08" ry="18"/>
<text text-anchor="middle" x="1269.54" y="-400.3" font-family="Times,serif" font-size="14.00">Drasil.Website.CaseStudy</text>
</g>
<!-- u8&#45;&gt;u2 -->
<g id="edge4" class="edge">
<title>u8&#45;&gt;u2</title>
<path fill="none" stroke="black" d="M876.27,-709.19C945.38,-655.74 1160.25,-489.54 1239.65,-428.12"/>
<polygon fill="black" stroke="black" points="1242.01,-430.72 1247.78,-421.83 1237.73,-425.18 1242.01,-430.72"/>
</g>
<!-- u1 -->
<g id="node8" class="node">
<title>u1</title>
<ellipse fill="#bbffbb" stroke="black" cx="1557.54" cy="-404" rx="139.18" ry="18"/>
<text text-anchor="middle" x="1557.54" y="-400.3" font-family="Times,serif" font-size="14.00">Drasil.Website.Introduction</text>
</g>
<!-- u8&#45;&gt;u1 -->
<g id="edge3" class="edge">
<title>u8&#45;&gt;u1</title>
<path fill="none" stroke="black" d="M889.88,-709.86C1006.82,-656.47 1381.17,-485.54 1511.93,-425.82"/>
<polygon fill="black" stroke="black" points="1513.64,-428.89 1521.29,-421.55 1510.74,-422.52 1513.64,-428.89"/>
</g>
<!-- u5 -->
<g id="node4" class="node">
<title>u5</title>
<ellipse fill="#bbffbb" stroke="black" cx="1269.54" cy="-81" rx="122.38" ry="18"/>
<text text-anchor="middle" x="1269.54" y="-77.3" font-family="Times,serif" font-size="14.00">Drasil.Website.Example</text>
</g>
<!-- u2&#45;&gt;u5 -->
<g id="edge2" class="edge">
<title>u2&#45;&gt;u5</title>
<path fill="none" stroke="black" d="M1269.54,-385.74C1269.54,-333.05 1269.54,-173.96 1269.54,-109.54"/>
<polygon fill="black" stroke="black" points="1273.04,-109.34 1269.54,-99.34 1266.04,-109.34 1273.04,-109.34"/>
</g>
<!-- u0 -->
<g id="node9" class="node">
<title>u0</title>
<ellipse fill="#ffffbb" stroke="black" cx="854.54" cy="-1050" rx="122.38" ry="18"/>
<text text-anchor="middle" x="854.54" y="-1046.3" font-family="Times,serif" font-size="14.00">drasil&#45;website.app.Main</text>
</g>
<!-- u0&#45;&gt;u8 -->
<g id="edge1" class="edge">
<title>u0&#45;&gt;u8</title>
<path fill="none" stroke="black" d="M854.54,-1031.74C854.54,-979.05 854.54,-819.96 854.54,-755.54"/>
<polygon fill="black" stroke="black" points="858.04,-755.34 854.54,-745.34 851.04,-755.34 858.04,-755.34"/>
</g>
</g>
</svg>
