<?xml version="1.0" encoding="UTF-8" standalone="no"?>
<!DOCTYPE svg PUBLIC "-//W3C//DTD SVG 1.1//EN"
 "http://www.w3.org/Graphics/SVG/1.1/DTD/svg11.dtd">
<!-- Generated by graphviz version 2.43.0 (0)
 -->
<!-- Title: G Pages: 1 -->
<svg width="432pt" height="287pt"
 viewBox="0.00 0.00 432.00 286.78" xmlns="http://www.w3.org/2000/svg" xmlns:xlink="http://www.w3.org/1999/xlink">
<g id="graph0" class="graph" transform="scale(13.57 13.57) rotate(0) translate(4 3888)">
<title>G</title>
<polygon fill="white" stroke="transparent" points="-4,4 -4,-3888 5858.79,-3888 5858.79,4 -4,4"/>
<!-- u58 -->
<g id="node1" class="node">
<title>u58</title>
<ellipse fill="#bbffbb" stroke="black" cx="199.79" cy="-3571" rx="62.29" ry="18"/>
<text text-anchor="middle" x="199.79" y="-3567.3" font-family="Times,serif" font-size="14.00">HelloWorld</text>
</g>
<!-- u57 -->
<g id="node2" class="node">
<title>u57</title>
<ellipse fill="#bbffbb" stroke="black" cx="199.79" cy="-3320" rx="42.49" ry="18"/>
<text text-anchor="middle" x="199.79" y="-3316.3" font-family="Times,serif" font-size="14.00">Helper</text>
</g>
<!-- u58&#45;&gt;u57 -->
<g id="edge92" class="edge">
<title>u58&#45;&gt;u57</title>
<path fill="none" stroke="black" d="M199.79,-3552.89C199.79,-3510.42 199.79,-3399.92 199.79,-3348.31"/>
<polygon fill="black" stroke="black" points="203.29,-3348.23 199.79,-3338.23 196.29,-3348.23 203.29,-3348.23"/>
</g>
<!-- u55 -->
<g id="node3" class="node">
<title>u55</title>
<ellipse fill="#bbffbb" stroke="black" cx="475.79" cy="-3320" rx="53.89" ry="18"/>
<text text-anchor="middle" x="475.79" y="-3316.3" font-family="Times,serif" font-size="14.00">Observer</text>
</g>
<!-- u54 -->
<g id="node4" class="node">
<title>u54</title>
<ellipse fill="#bbffbb" stroke="black" cx="332.79" cy="-3571" rx="52.79" ry="18"/>
<text text-anchor="middle" x="332.79" y="-3567.3" font-family="Times,serif" font-size="14.00">FileTests</text>
</g>
<!-- u53 -->
<g id="node5" class="node">
<title>u53</title>
<ellipse fill="#bbffbb" stroke="black" cx="479.79" cy="-3571" rx="76.09" ry="18"/>
<text text-anchor="middle" x="479.79" y="-3567.3" font-family="Times,serif" font-size="14.00">NameGenTest</text>
</g>
<!-- u52 -->
<g id="node6" class="node">
<title>u52</title>
<ellipse fill="#bbffbb" stroke="black" cx="638.79" cy="-3571" rx="64.99" ry="18"/>
<text text-anchor="middle" x="638.79" y="-3567.3" font-family="Times,serif" font-size="14.00">PatternTest</text>
</g>
<!-- u52&#45;&gt;u55 -->
<g id="edge85" class="edge">
<title>u52&#45;&gt;u55</title>
<path fill="none" stroke="black" d="M627.59,-3552.89C599.43,-3509.87 525.59,-3397.06 492.38,-3346.34"/>
<polygon fill="black" stroke="black" points="495.27,-3344.36 486.86,-3337.91 489.41,-3348.19 495.27,-3344.36"/>
</g>
<!-- u51 -->
<g id="node7" class="node">
<title>u51</title>
<ellipse fill="#bbffbb" stroke="black" cx="59.79" cy="-3571" rx="59.59" ry="18"/>
<text text-anchor="middle" x="59.79" y="-3567.3" font-family="Times,serif" font-size="14.00">VectorTest</text>
</g>
<!-- u0 -->
<g id="node8" class="node">
<title>u0</title>
<ellipse fill="#ffffbb" stroke="black" cx="2142.79" cy="-3821" rx="214.46" ry="18"/>
<text text-anchor="middle" x="2142.79" y="-3817.3" font-family="Times,serif" font-size="14.00">Data.Drasil.ExternalLibraries.ODELibraries</text>
</g>
<!-- u5 -->
<g id="node10" class="node">
<title>u5</title>
<ellipse fill="#bbbbff" stroke="black" cx="2142.79" cy="-3571" rx="113.18" ry="18"/>
<text text-anchor="middle" x="2142.79" y="-3567.3" font-family="Times,serif" font-size="14.00">Language.Drasil.Code</text>
</g>
<!-- u0&#45;&gt;u5 -->
<g id="edge1" class="edge">
<title>u0&#45;&gt;u5</title>
<path fill="none" stroke="black" d="M2142.79,-3802.95C2142.79,-3760.66 2142.79,-3650.61 2142.79,-3599.2"/>
<polygon fill="black" stroke="black" points="2146.29,-3599.17 2142.79,-3589.17 2139.29,-3599.17 2146.29,-3599.17"/>
</g>
<!-- u6 -->
<g id="node9" class="node">
<title>u6</title>
<ellipse fill="#bbbbff" stroke="black" cx="4023.79" cy="-814" rx="110.48" ry="18"/>
<text text-anchor="middle" x="4023.79" y="-810.3" font-family="Times,serif" font-size="14.00">Language.Drasil.Mod</text>
</g>
<!-- u48 -->
<g id="node15" class="node">
<title>u48</title>
<ellipse fill="#ffbbbb" stroke="black" cx="3628.79" cy="-564" rx="170.87" ry="18"/>
<text text-anchor="middle" x="3628.79" y="-560.3" font-family="Times,serif" font-size="14.00">Language.Drasil.Chunk.Parameter</text>
</g>
<!-- u6&#45;&gt;u48 -->
<g id="edge20" class="edge">
<title>u6&#45;&gt;u48</title>
<path fill="none" stroke="black" d="M3997.26,-796.34C3928.14,-752.95 3742.47,-636.37 3664.28,-587.28"/>
<polygon fill="black" stroke="black" points="3666.06,-584.26 3655.73,-581.91 3662.34,-590.19 3666.06,-584.26"/>
</g>
<!-- u8 -->
<g id="node25" class="node">
<title>u8</title>
<ellipse fill="#bbffff" stroke="black" cx="2877.79" cy="-564" rx="160.57" ry="18"/>
<text text-anchor="middle" x="2877.79" y="-560.3" font-family="Times,serif" font-size="14.00">Language.Drasil.Code.DataDesc</text>
</g>
<!-- u6&#45;&gt;u8 -->
<g id="edge19" class="edge">
<title>u6&#45;&gt;u8</title>
<path fill="none" stroke="black" d="M3960.14,-799.22C3764.89,-756.97 3174.64,-629.24 2958.35,-582.43"/>
<polygon fill="black" stroke="black" points="2958.85,-578.96 2948.34,-580.27 2957.37,-585.8 2958.85,-578.96"/>
</g>
<!-- u23 -->
<g id="node40" class="node">
<title>u23</title>
<ellipse fill="#ffbbff" stroke="black" cx="4717.79" cy="-3320" rx="217.16" ry="18"/>
<text text-anchor="middle" x="4717.79" y="-3316.3" font-family="Times,serif" font-size="14.00">Language.Drasil.Code.Imperative.Generator</text>
</g>
<!-- u5&#45;&gt;u23 -->
<g id="edge18" class="edge">
<title>u5&#45;&gt;u23</title>
<path fill="none" stroke="black" d="M2236.73,-3560.92C2624.27,-3523.44 4100.7,-3380.67 4572.16,-3335.08"/>
<polygon fill="black" stroke="black" points="4572.81,-3338.54 4582.43,-3334.09 4572.14,-3331.57 4572.81,-3338.54"/>
</g>
<!-- u10 -->
<g id="node42" class="node">
<title>u10</title>
<ellipse fill="#ffbbff" stroke="black" cx="978.79" cy="-2067" rx="217.96" ry="18"/>
<text text-anchor="middle" x="978.79" y="-2063.3" font-family="Times,serif" font-size="14.00">Language.Drasil.Code.Imperative.ReadInput</text>
</g>
<!-- u5&#45;&gt;u10 -->
<g id="edge12" class="edge">
<title>u5&#45;&gt;u10</title>
<path fill="none" stroke="black" d="M2048.39,-3561.07C1707.17,-3526.21 557.79,-3385.45 557.79,-3071 557.79,-3071 557.79,-3071 557.79,-2567 557.79,-2332.14 833.62,-2150.55 938.75,-2089.87"/>
<polygon fill="black" stroke="black" points="940.55,-2092.88 947.5,-2084.88 937.08,-2086.8 940.55,-2092.88"/>
</g>
<!-- u22 -->
<g id="node50" class="node">
<title>u22</title>
<ellipse fill="#ff7777" stroke="black" cx="1680.79" cy="-3070" rx="369.33" ry="18"/>
<text text-anchor="middle" x="1680.79" y="-3066.3" font-family="Times,serif" font-size="14.00">Language.Drasil.Code.Imperative.GOOL.LanguageRenderer.CSharpRenderer</text>
</g>
<!-- u5&#45;&gt;u22 -->
<g id="edge17" class="edge">
<title>u5&#45;&gt;u22</title>
<path fill="none" stroke="black" d="M2127.16,-3553.11C2058.61,-3479.08 1784.49,-3183 1703.46,-3095.48"/>
<polygon fill="black" stroke="black" points="1706.03,-3093.1 1696.66,-3088.14 1700.89,-3097.86 1706.03,-3093.1"/>
</g>
<!-- u21 -->
<g id="node51" class="node">
<title>u21</title>
<ellipse fill="#ff7777" stroke="black" cx="2420.79" cy="-3070" rx="352.84" ry="18"/>
<text text-anchor="middle" x="2420.79" y="-3066.3" font-family="Times,serif" font-size="14.00">Language.Drasil.Code.Imperative.GOOL.LanguageRenderer.CppRenderer</text>
</g>
<!-- u5&#45;&gt;u21 -->
<g id="edge16" class="edge">
<title>u5&#45;&gt;u21</title>
<path fill="none" stroke="black" d="M2152.36,-3552.82C2193.63,-3478.75 2356.54,-3186.33 2406.29,-3097.04"/>
<polygon fill="black" stroke="black" points="2409.46,-3098.54 2411.27,-3088.1 2403.34,-3095.14 2409.46,-3098.54"/>
</g>
<!-- u19 -->
<g id="node53" class="node">
<title>u19</title>
<ellipse fill="#ff7777" stroke="black" cx="3158.79" cy="-3070" rx="367.43" ry="18"/>
<text text-anchor="middle" x="3158.79" y="-3066.3" font-family="Times,serif" font-size="14.00">Language.Drasil.Code.Imperative.GOOL.LanguageRenderer.PythonRenderer</text>
</g>
<!-- u5&#45;&gt;u19 -->
<g id="edge15" class="edge">
<title>u5&#45;&gt;u19</title>
<path fill="none" stroke="black" d="M2176.02,-3553.68C2326.56,-3479.75 2944.65,-3176.18 3115.09,-3092.46"/>
<polygon fill="black" stroke="black" points="3116.84,-3095.51 3124.27,-3087.96 3113.75,-3089.22 3116.84,-3095.51"/>
</g>
<!-- u18 -->
<g id="node54" class="node">
<title>u18</title>
<ellipse fill="#ff7777" stroke="black" cx="3902.79" cy="-3070" rx="358.54" ry="18"/>
<text text-anchor="middle" x="3902.79" y="-3066.3" font-family="Times,serif" font-size="14.00">Language.Drasil.Code.Imperative.GOOL.LanguageRenderer.SwiftRenderer</text>
</g>
<!-- u5&#45;&gt;u18 -->
<g id="edge14" class="edge">
<title>u5&#45;&gt;u18</title>
<path fill="none" stroke="black" d="M2195.47,-3555.07C2449.27,-3483.11 3545.56,-3172.28 3833.38,-3090.68"/>
<polygon fill="black" stroke="black" points="3834.61,-3093.97 3843.27,-3087.88 3832.7,-3087.24 3834.61,-3093.97"/>
</g>
<!-- u17 -->
<g id="node55" class="node">
<title>u17</title>
<ellipse fill="#ff7777" stroke="black" cx="939.79" cy="-3070" rx="354.44" ry="18"/>
<text text-anchor="middle" x="939.79" y="-3066.3" font-family="Times,serif" font-size="14.00">Language.Drasil.Code.Imperative.GOOL.LanguageRenderer.JavaRenderer</text>
</g>
<!-- u5&#45;&gt;u17 -->
<g id="edge13" class="edge">
<title>u5&#45;&gt;u17</title>
<path fill="none" stroke="black" d="M2104.13,-3553.96C1926.66,-3480.35 1190.23,-3174.88 990.15,-3091.89"/>
<polygon fill="black" stroke="black" points="991.34,-3088.59 980.76,-3087.99 988.65,-3095.06 991.34,-3088.59"/>
</g>
<!-- u2 -->
<g id="node11" class="node">
<title>u2</title>
<ellipse fill="#bbbbff" stroke="black" cx="3462.79" cy="-1566" rx="126.18" ry="18"/>
<text text-anchor="middle" x="3462.79" y="-1562.3" font-family="Times,serif" font-size="14.00">Language.Drasil.Choices</text>
</g>
<!-- u42 -->
<g id="node21" class="node">
<title>u42</title>
<ellipse fill="#bbffff" stroke="black" cx="2972.79" cy="-1316" rx="139.98" ry="18"/>
<text text-anchor="middle" x="2972.79" y="-1312.3" font-family="Times,serif" font-size="14.00">Language.Drasil.Code.Code</text>
</g>
<!-- u2&#45;&gt;u42 -->
<g id="edge6" class="edge">
<title>u2&#45;&gt;u42</title>
<path fill="none" stroke="black" d="M3430.26,-1548.54C3344.21,-1504.98 3110.64,-1386.77 3014.75,-1338.23"/>
<polygon fill="black" stroke="black" points="3016.14,-1335.01 3005.63,-1333.62 3012.98,-1341.26 3016.14,-1335.01"/>
</g>
<!-- u4 -->
<g id="node57" class="node">
<title>u4</title>
<ellipse fill="#ff77ff" stroke="black" cx="3510.79" cy="-1316" rx="172.77" ry="18"/>
<text text-anchor="middle" x="3510.79" y="-1312.3" font-family="Times,serif" font-size="14.00">Language.Drasil.Data.ODELibPckg</text>
</g>
<!-- u2&#45;&gt;u4 -->
<g id="edge5" class="edge">
<title>u2&#45;&gt;u4</title>
<path fill="none" stroke="black" d="M3466.09,-1547.95C3474.28,-1505.66 3495.58,-1395.61 3505.53,-1344.2"/>
<polygon fill="black" stroke="black" points="3509.01,-1344.65 3507.47,-1334.17 3502.14,-1343.32 3509.01,-1344.65"/>
</g>
<!-- u1 -->
<g id="node12" class="node">
<title>u1</title>
<ellipse fill="#bbbbff" stroke="black" cx="4054.79" cy="-1817" rx="135.68" ry="18"/>
<text text-anchor="middle" x="4054.79" y="-1813.3" font-family="Times,serif" font-size="14.00">Language.Drasil.CodeSpec</text>
</g>
<!-- u1&#45;&gt;u2 -->
<g id="edge2" class="edge">
<title>u1&#45;&gt;u2</title>
<path fill="none" stroke="black" d="M4015.95,-1799.66C3911.6,-1755.77 3625.34,-1635.37 3510.95,-1587.25"/>
<polygon fill="black" stroke="black" points="3511.97,-1583.89 3501.39,-1583.24 3509.26,-1590.34 3511.97,-1583.89"/>
</g>
<!-- u50 -->
<g id="node13" class="node">
<title>u50</title>
<ellipse fill="#ffbbbb" stroke="black" cx="3798.79" cy="-1566" rx="192.27" ry="18"/>
<text text-anchor="middle" x="3798.79" y="-1562.3" font-family="Times,serif" font-size="14.00">Language.Drasil.Chunk.ConstraintMap</text>
</g>
<!-- u1&#45;&gt;u50 -->
<g id="edge4" class="edge">
<title>u1&#45;&gt;u50</title>
<path fill="none" stroke="black" d="M4037.2,-1798.89C3992.72,-1755.62 3875.63,-1641.74 3823.94,-1591.46"/>
<polygon fill="black" stroke="black" points="3826.12,-1588.7 3816.51,-1584.23 3821.24,-1593.72 3826.12,-1588.7"/>
</g>
<!-- u47 -->
<g id="node16" class="node">
<title>u47</title>
<ellipse fill="#ffbbbb" stroke="black" cx="4199.79" cy="-1566" rx="191.17" ry="18"/>
<text text-anchor="middle" x="4199.79" y="-1562.3" font-family="Times,serif" font-size="14.00">Language.Drasil.Chunk.CodeDefinition</text>
</g>
<!-- u1&#45;&gt;u47 -->
<g id="edge3" class="edge">
<title>u1&#45;&gt;u47</title>
<path fill="none" stroke="black" d="M4064.76,-1798.89C4089.7,-1756.06 4154.92,-1644.07 4184.64,-1593.03"/>
<polygon fill="black" stroke="black" points="4187.75,-1594.64 4189.76,-1584.23 4181.7,-1591.11 4187.75,-1594.64"/>
</g>
<!-- u49 -->
<g id="node14" class="node">
<title>u49</title>
<ellipse fill="#ffbbbb" stroke="black" cx="3199.79" cy="-313" rx="145.67" ry="18"/>
<text text-anchor="middle" x="3199.79" y="-309.3" font-family="Times,serif" font-size="14.00">Language.Drasil.Chunk.Code</text>
</g>
<!-- u46 -->
<g id="node17" class="node">
<title>u46</title>
<ellipse fill="#ffbbbb" stroke="black" cx="3199.79" cy="-63" rx="168.17" ry="18"/>
<text text-anchor="middle" x="3199.79" y="-59.3" font-family="Times,serif" font-size="14.00">Language.Drasil.Chunk.CodeBase</text>
</g>
<!-- u49&#45;&gt;u46 -->
<g id="edge84" class="edge">
<title>u49&#45;&gt;u46</title>
<path fill="none" stroke="black" d="M3199.79,-294.95C3199.79,-252.66 3199.79,-142.61 3199.79,-91.2"/>
<polygon fill="black" stroke="black" points="3203.29,-91.17 3199.79,-81.17 3196.29,-91.17 3203.29,-91.17"/>
</g>
<!-- u48&#45;&gt;u49 -->
<g id="edge83" class="edge">
<title>u48&#45;&gt;u49</title>
<path fill="none" stroke="black" d="M3599.65,-546.08C3524.04,-502.2 3321.69,-384.75 3237.43,-335.84"/>
<polygon fill="black" stroke="black" points="3239.11,-332.77 3228.7,-330.78 3235.59,-338.83 3239.11,-332.77"/>
</g>
<!-- u3 -->
<g id="node58" class="node">
<title>u3</title>
<ellipse fill="#ff77ff" stroke="black" cx="3199.79" cy="-1065" rx="154.07" ry="18"/>
<text text-anchor="middle" x="3199.79" y="-1061.3" font-family="Times,serif" font-size="14.00">Language.Drasil.Data.ODEInfo</text>
</g>
<!-- u47&#45;&gt;u3 -->
<g id="edge82" class="edge">
<title>u47&#45;&gt;u3</title>
<path fill="none" stroke="black" d="M4105.82,-1550.25C3906.23,-1517.32 3448.48,-1432.92 3328.79,-1334 3251,-1269.7 3216.8,-1147.34 3204.97,-1093.08"/>
<polygon fill="black" stroke="black" points="3208.37,-1092.24 3202.9,-1083.17 3201.52,-1093.68 3208.37,-1092.24"/>
</g>
<!-- u45 -->
<g id="node18" class="node">
<title>u45</title>
<ellipse fill="#ffbbbb" stroke="black" cx="3692.79" cy="-814" rx="202.26" ry="18"/>
<text text-anchor="middle" x="3692.79" y="-810.3" font-family="Times,serif" font-size="14.00">Language.Drasil.Chunk.NamedArgument</text>
</g>
<!-- u44 -->
<g id="node19" class="node">
<title>u44</title>
<ellipse fill="#bbffff" stroke="black" cx="4274.79" cy="-1065" rx="207.96" ry="18"/>
<text text-anchor="middle" x="4274.79" y="-1061.3" font-family="Times,serif" font-size="14.00">Language.Drasil.Code.ExternalLibraryCall</text>
</g>
<!-- u44&#45;&gt;u6 -->
<g id="edge80" class="edge">
<title>u44&#45;&gt;u6</title>
<path fill="none" stroke="black" d="M4257.54,-1046.89C4213.82,-1003.51 4098.58,-889.19 4048.08,-839.09"/>
<polygon fill="black" stroke="black" points="4050.4,-836.46 4040.84,-831.91 4045.47,-841.43 4050.4,-836.46"/>
</g>
<!-- u44&#45;&gt;u45 -->
<g id="edge81" class="edge">
<title>u44&#45;&gt;u45</title>
<path fill="none" stroke="black" d="M4235.7,-1047.28C4132.81,-1003.25 3854.61,-884.23 3741.55,-835.86"/>
<polygon fill="black" stroke="black" points="3742.67,-832.53 3732.1,-831.82 3739.91,-838.97 3742.67,-832.53"/>
</g>
<!-- u43 -->
<g id="node20" class="node">
<title>u43</title>
<ellipse fill="#bbffff" stroke="black" cx="4508.79" cy="-3070" rx="191.17" ry="18"/>
<text text-anchor="middle" x="4508.79" y="-3066.3" font-family="Times,serif" font-size="14.00">Language.Drasil.Code.CodeGeneration</text>
</g>
<!-- u43&#45;&gt;u42 -->
<g id="edge79" class="edge">
<title>u43&#45;&gt;u42</title>
<path fill="none" stroke="black" d="M4502.13,-3051.87C4484.46,-3007.62 4433.21,-2886.99 4367.79,-2801 4269.19,-2671.37 4240.82,-2633.19 4100.79,-2550 3828.55,-2388.26 2935.81,-2344.13 2753.79,-2085 2664.36,-1957.68 2900.08,-1463.29 2959.55,-1343.33"/>
<polygon fill="black" stroke="black" points="2962.82,-1344.63 2964.14,-1334.12 2956.55,-1341.51 2962.82,-1344.63"/>
</g>
<!-- u16 -->
<g id="node47" class="node">
<title>u16</title>
<ellipse fill="#7777ff" stroke="black" cx="3158.79" cy="-2819" rx="222.06" ry="18"/>
<text text-anchor="middle" x="3158.79" y="-2815.3" font-family="Times,serif" font-size="14.00">Language.Drasil.Code.Imperative.GOOL.Data</text>
</g>
<!-- u43&#45;&gt;u16 -->
<g id="edge78" class="edge">
<title>u43&#45;&gt;u16</title>
<path fill="none" stroke="black" d="M4426.13,-3053.75C4188.75,-3009.97 3505.98,-2884.04 3253.84,-2837.53"/>
<polygon fill="black" stroke="black" points="3254.44,-2834.08 3243.97,-2835.71 3253.17,-2840.97 3254.44,-2834.08"/>
</g>
<!-- u41 -->
<g id="node22" class="node">
<title>u41</title>
<ellipse fill="#bbffff" stroke="black" cx="3858.79" cy="-1065" rx="190.37" ry="18"/>
<text text-anchor="middle" x="3858.79" y="-1061.3" font-family="Times,serif" font-size="14.00">Language.Drasil.Code.ExternalLibrary</text>
</g>
<!-- u41&#45;&gt;u6 -->
<g id="edge76" class="edge">
<title>u41&#45;&gt;u6</title>
<path fill="none" stroke="black" d="M3870.14,-1046.89C3898.57,-1003.97 3973.03,-891.6 4006.76,-840.71"/>
<polygon fill="black" stroke="black" points="4009.77,-842.5 4012.37,-832.23 4003.93,-838.64 4009.77,-842.5"/>
</g>
<!-- u41&#45;&gt;u45 -->
<g id="edge77" class="edge">
<title>u41&#45;&gt;u45</title>
<path fill="none" stroke="black" d="M3847.38,-1046.89C3818.78,-1003.97 3743.86,-891.6 3709.93,-840.71"/>
<polygon fill="black" stroke="black" points="3712.74,-838.61 3704.28,-832.23 3706.92,-842.5 3712.74,-838.61"/>
</g>
<!-- u40 -->
<g id="node23" class="node">
<title>u40</title>
<ellipse fill="#bbffff" stroke="black" cx="5492.79" cy="-2318" rx="204.16" ry="18"/>
<text text-anchor="middle" x="5492.79" y="-2314.3" font-family="Times,serif" font-size="14.00">Language.Drasil.Code.CodeQuantityDicts</text>
</g>
<!-- u39 -->
<g id="node24" class="node">
<title>u39</title>
<ellipse fill="#bbffff" stroke="black" cx="4370.79" cy="-1316" rx="178.97" ry="18"/>
<text text-anchor="middle" x="4370.79" y="-1312.3" font-family="Times,serif" font-size="14.00">Language.Drasil.Code.ExtLibImport</text>
</g>
<!-- u39&#45;&gt;u44 -->
<g id="edge75" class="edge">
<title>u39&#45;&gt;u44</title>
<path fill="none" stroke="black" d="M4364.2,-1297.89C4347.75,-1255.24 4304.87,-1144 4285.07,-1092.66"/>
<polygon fill="black" stroke="black" points="4288.3,-1091.31 4281.44,-1083.23 4281.77,-1093.82 4288.3,-1091.31"/>
</g>
<!-- u39&#45;&gt;u41 -->
<g id="edge74" class="edge">
<title>u39&#45;&gt;u41</title>
<path fill="none" stroke="black" d="M4336.41,-1298.28C4246.16,-1254.39 4002.62,-1135.95 3902.59,-1087.3"/>
<polygon fill="black" stroke="black" points="3903.89,-1084.04 3893.37,-1082.82 3900.83,-1090.34 3903.89,-1084.04"/>
</g>
<!-- u8&#45;&gt;u49 -->
<g id="edge21" class="edge">
<title>u8&#45;&gt;u49</title>
<path fill="none" stroke="black" d="M2899.67,-546.08C2955.89,-502.61 3105.49,-386.93 3169.76,-337.23"/>
<polygon fill="black" stroke="black" points="3172.12,-339.83 3177.89,-330.94 3167.83,-334.29 3172.12,-339.83"/>
</g>
<!-- u7 -->
<g id="node26" class="node">
<title>u7</title>
<ellipse fill="#bbffff" stroke="black" cx="3510.79" cy="-1065" rx="139.18" ry="18"/>
<text text-anchor="middle" x="3510.79" y="-1061.3" font-family="Times,serif" font-size="14.00">Language.Drasil.Code.Lang</text>
</g>
<!-- u38 -->
<g id="node27" class="node">
<title>u38</title>
<ellipse fill="#ffbbff" stroke="black" cx="3709.79" cy="-2318" rx="240.46" ry="18"/>
<text text-anchor="middle" x="3709.79" y="-2314.3" font-family="Times,serif" font-size="14.00">Language.Drasil.Code.Imperative.GenerateGOOL</text>
</g>
<!-- u24 -->
<g id="node39" class="node">
<title>u24</title>
<ellipse fill="#ffbbff" stroke="black" cx="4656.79" cy="-2067" rx="222.06" ry="18"/>
<text text-anchor="middle" x="4656.79" y="-2063.3" font-family="Times,serif" font-size="14.00">Language.Drasil.Code.Imperative.DrasilState</text>
</g>
<!-- u38&#45;&gt;u24 -->
<g id="edge73" class="edge">
<title>u38&#45;&gt;u24</title>
<path fill="none" stroke="black" d="M3772.3,-2300.57C3941.14,-2256.17 4405.72,-2134.02 4584.95,-2086.89"/>
<polygon fill="black" stroke="black" points="4586.03,-2090.23 4594.81,-2084.3 4584.25,-2083.46 4586.03,-2090.23"/>
</g>
<!-- u15 -->
<g id="node48" class="node">
<title>u15</title>
<ellipse fill="#7777ff" stroke="black" cx="3537.79" cy="-2067" rx="267.25" ry="18"/>
<text text-anchor="middle" x="3537.79" y="-2063.3" font-family="Times,serif" font-size="14.00">Language.Drasil.Code.Imperative.GOOL.ClassInterface</text>
</g>
<!-- u38&#45;&gt;u15 -->
<g id="edge72" class="edge">
<title>u38&#45;&gt;u15</title>
<path fill="none" stroke="black" d="M3697.97,-2299.89C3668.33,-2256.97 3590.71,-2144.6 3555.55,-2093.71"/>
<polygon fill="black" stroke="black" points="3558.26,-2091.47 3549.7,-2085.23 3552.5,-2095.45 3558.26,-2091.47"/>
</g>
<!-- u36 -->
<g id="node28" class="node">
<title>u36</title>
<ellipse fill="#ffbbff" stroke="black" cx="5126.79" cy="-2819" rx="228.26" ry="18"/>
<text text-anchor="middle" x="5126.79" y="-2815.3" font-family="Times,serif" font-size="14.00">Language.Drasil.Code.Imperative.Descriptions</text>
</g>
<!-- u36&#45;&gt;u24 -->
<g id="edge70" class="edge">
<title>u36&#45;&gt;u24</title>
<path fill="none" stroke="black" d="M5280.37,-2805.66C5422.45,-2785.17 5626.24,-2730.7 5725.79,-2586 5797.84,-2481.28 5806.59,-2398.95 5726.79,-2300 5616.26,-2162.93 5105.28,-2102.75 4831.37,-2079.95"/>
<polygon fill="black" stroke="black" points="4831.58,-2076.46 4821.33,-2079.13 4831.01,-2083.44 4831.58,-2076.46"/>
</g>
<!-- u35 -->
<g id="node29" class="node">
<title>u35</title>
<ellipse fill="#ffbbff" stroke="black" cx="3261.79" cy="-2568" rx="233.16" ry="18"/>
<text text-anchor="middle" x="3261.79" y="-2564.3" font-family="Times,serif" font-size="14.00">Language.Drasil.Code.Imperative.WriteReadMe</text>
</g>
<!-- u35&#45;&gt;u15 -->
<g id="edge69" class="edge">
<title>u35&#45;&gt;u15</title>
<path fill="none" stroke="black" d="M3271.3,-2549.82C3312.27,-2475.75 3474,-2183.33 3523.39,-2094.04"/>
<polygon fill="black" stroke="black" points="3526.56,-2095.55 3528.33,-2085.1 3520.43,-2092.16 3526.56,-2095.55"/>
</g>
<!-- u34 -->
<g id="node30" class="node">
<title>u34</title>
<ellipse fill="#ffbbff" stroke="black" cx="3663.79" cy="-1817" rx="237.46" ry="18"/>
<text text-anchor="middle" x="3663.79" y="-1813.3" font-family="Times,serif" font-size="14.00">Language.Drasil.Code.Imperative.ConceptMatch</text>
</g>
<!-- u34&#45;&gt;u2 -->
<g id="edge68" class="edge">
<title>u34&#45;&gt;u2</title>
<path fill="none" stroke="black" d="M3649.98,-1798.89C3615.11,-1755.69 3523.44,-1642.12 3482.74,-1591.71"/>
<polygon fill="black" stroke="black" points="3485.45,-1589.49 3476.44,-1583.91 3480,-1593.88 3485.45,-1589.49"/>
</g>
<!-- u32 -->
<g id="node31" class="node">
<title>u32</title>
<ellipse fill="#ffbbff" stroke="black" cx="4418.79" cy="-1817" rx="209.86" ry="18"/>
<text text-anchor="middle" x="4418.79" y="-1813.3" font-family="Times,serif" font-size="14.00">Language.Drasil.Code.Imperative.GenODE</text>
</g>
<!-- u32&#45;&gt;u2 -->
<g id="edge64" class="edge">
<title>u32&#45;&gt;u2</title>
<path fill="none" stroke="black" d="M4356.44,-1799.76C4185.04,-1755.12 3707.76,-1630.8 3530.34,-1584.59"/>
<polygon fill="black" stroke="black" points="3531.17,-1581.19 3520.61,-1582.06 3529.4,-1587.97 3531.17,-1581.19"/>
</g>
<!-- u32&#45;&gt;u47 -->
<g id="edge66" class="edge">
<title>u32&#45;&gt;u47</title>
<path fill="none" stroke="black" d="M4403.74,-1798.89C4365.77,-1755.71 4265.94,-1642.21 4221.58,-1591.77"/>
<polygon fill="black" stroke="black" points="4224.19,-1589.43 4214.95,-1584.23 4218.93,-1594.05 4224.19,-1589.43"/>
</g>
<!-- u32&#45;&gt;u39 -->
<g id="edge65" class="edge">
<title>u32&#45;&gt;u39</title>
<path fill="none" stroke="black" d="M4417.9,-1798.73C4415.6,-1756.1 4409.07,-1642.47 4399.79,-1548 4392.53,-1474.02 4380.74,-1387.11 4374.67,-1344.04"/>
<polygon fill="black" stroke="black" points="4378.13,-1343.47 4373.26,-1334.06 4371.2,-1344.45 4378.13,-1343.47"/>
</g>
<!-- u31 -->
<g id="node32" class="node">
<title>u31</title>
<ellipse fill="#ffbbff" stroke="black" cx="4926.79" cy="-3070" rx="209.06" ry="18"/>
<text text-anchor="middle" x="4926.79" y="-3066.3" font-family="Times,serif" font-size="14.00">Language.Drasil.Code.Imperative.Modules</text>
</g>
<!-- u31&#45;&gt;u36 -->
<g id="edge63" class="edge">
<title>u31&#45;&gt;u36</title>
<path fill="none" stroke="black" d="M4940.54,-3051.89C4975.15,-3008.8 5066.01,-2895.67 5106.65,-2845.08"/>
<polygon fill="black" stroke="black" points="5109.42,-2847.22 5112.95,-2837.23 5103.96,-2842.84 5109.42,-2847.22"/>
</g>
<!-- u28 -->
<g id="node35" class="node">
<title>u28</title>
<ellipse fill="#ffbbff" stroke="black" cx="4647.79" cy="-2819" rx="233.16" ry="18"/>
<text text-anchor="middle" x="4647.79" y="-2815.3" font-family="Times,serif" font-size="14.00">Language.Drasil.Code.Imperative.FunctionCalls</text>
</g>
<!-- u31&#45;&gt;u28 -->
<g id="edge62" class="edge">
<title>u31&#45;&gt;u28</title>
<path fill="none" stroke="black" d="M4907.62,-3051.89C4859.04,-3008.53 4731.01,-2894.27 4674.85,-2844.15"/>
<polygon fill="black" stroke="black" points="4676.9,-2841.28 4667.11,-2837.23 4672.24,-2846.5 4676.9,-2841.28"/>
</g>
<!-- u30 -->
<g id="node33" class="node">
<title>u30</title>
<ellipse fill="#ffbbff" stroke="black" cx="5064.79" cy="-2318" rx="206.06" ry="18"/>
<text text-anchor="middle" x="5064.79" y="-2314.3" font-family="Times,serif" font-size="14.00">Language.Drasil.Code.Imperative.Helpers</text>
</g>
<!-- u30&#45;&gt;u24 -->
<g id="edge61" class="edge">
<title>u30&#45;&gt;u24</title>
<path fill="none" stroke="black" d="M5037.07,-2300.08C4965.4,-2256.34 4773.97,-2139.51 4693.37,-2090.32"/>
<polygon fill="black" stroke="black" points="4694.91,-2087.16 4684.56,-2084.94 4691.27,-2093.14 4694.91,-2087.16"/>
</g>
<!-- u29 -->
<g id="node34" class="node">
<title>u29</title>
<ellipse fill="#ffbbff" stroke="black" cx="5599.79" cy="-2819" rx="226.66" ry="18"/>
<text text-anchor="middle" x="5599.79" y="-2815.3" font-family="Times,serif" font-size="14.00">Language.Drasil.Code.Imperative.SpaceMatch</text>
</g>
<!-- u29&#45;&gt;u24 -->
<g id="edge60" class="edge">
<title>u29&#45;&gt;u24</title>
<path fill="none" stroke="black" d="M5614.85,-2800.62C5674.17,-2730.04 5882.2,-2460.92 5751.79,-2300 5638.65,-2160.37 5117.38,-2101.4 4836.8,-2079.42"/>
<polygon fill="black" stroke="black" points="4836.75,-2075.91 4826.51,-2078.63 4836.21,-2082.89 4836.75,-2075.91"/>
</g>
<!-- u26 -->
<g id="node37" class="node">
<title>u26</title>
<ellipse fill="#ffbbff" stroke="black" cx="4620.79" cy="-2568" rx="201.46" ry="18"/>
<text text-anchor="middle" x="4620.79" y="-2564.3" font-family="Times,serif" font-size="14.00">Language.Drasil.Code.Imperative.Import</text>
</g>
<!-- u28&#45;&gt;u26 -->
<g id="edge59" class="edge">
<title>u28&#45;&gt;u26</title>
<path fill="none" stroke="black" d="M4645.94,-2800.89C4641.33,-2758.42 4629.35,-2647.92 4623.76,-2596.31"/>
<polygon fill="black" stroke="black" points="4627.22,-2595.8 4622.66,-2586.23 4620.26,-2596.55 4627.22,-2595.8"/>
</g>
<!-- u25 -->
<g id="node38" class="node">
<title>u25</title>
<ellipse fill="#ffbbff" stroke="black" cx="5492.79" cy="-2568" rx="223.66" ry="18"/>
<text text-anchor="middle" x="5492.79" y="-2564.3" font-family="Times,serif" font-size="14.00">Language.Drasil.Code.Imperative.Parameters</text>
</g>
<!-- u28&#45;&gt;u25 -->
<g id="edge58" class="edge">
<title>u28&#45;&gt;u25</title>
<path fill="none" stroke="black" d="M4703.89,-2801.47C4854.36,-2757.13 5266.36,-2635.72 5427.22,-2588.32"/>
<polygon fill="black" stroke="black" points="5428.39,-2591.63 5436.99,-2585.44 5426.41,-2584.91 5428.39,-2591.63"/>
</g>
<!-- u27 -->
<g id="node36" class="node">
<title>u27</title>
<ellipse fill="#ffbbff" stroke="black" cx="4175.79" cy="-2318" rx="207.16" ry="18"/>
<text text-anchor="middle" x="4175.79" y="-2314.3" font-family="Times,serif" font-size="14.00">Language.Drasil.Code.Imperative.Logging</text>
</g>
<!-- u27&#45;&gt;u24 -->
<g id="edge57" class="edge">
<title>u27&#45;&gt;u24</title>
<path fill="none" stroke="black" d="M4208.48,-2300.08C4293.4,-2256.12 4520.95,-2138.32 4615.11,-2089.58"/>
<polygon fill="black" stroke="black" points="4616.8,-2092.65 4624.07,-2084.94 4613.58,-2086.43 4616.8,-2092.65"/>
</g>
<!-- u26&#45;&gt;u40 -->
<g id="edge56" class="edge">
<title>u26&#45;&gt;u40</title>
<path fill="none" stroke="black" d="M4678.01,-2550.73C4832.77,-2506.71 5259.14,-2385.45 5425.28,-2338.2"/>
<polygon fill="black" stroke="black" points="5426.71,-2341.43 5435.37,-2335.33 5424.79,-2334.7 5426.71,-2341.43"/>
</g>
<!-- u26&#45;&gt;u38 -->
<g id="edge55" class="edge">
<title>u26&#45;&gt;u38</title>
<path fill="none" stroke="black" d="M4561.02,-2550.73C4399.29,-2506.7 3953.63,-2385.38 3780.17,-2338.16"/>
<polygon fill="black" stroke="black" points="3780.95,-2334.74 3770.38,-2335.49 3779.11,-2341.5 3780.95,-2334.74"/>
</g>
<!-- u26&#45;&gt;u34 -->
<g id="edge54" class="edge">
<title>u26&#45;&gt;u34</title>
<path fill="none" stroke="black" d="M4448.73,-2558.6C4156.73,-2540.36 3583.8,-2485.92 3460.79,-2336 3450.65,-2323.63 3452.96,-2313.95 3460.79,-2300 3550.77,-2139.85 3723.82,-2245.15 3813.79,-2085 3864.31,-1995.09 3752.17,-1888.15 3694.85,-1841.6"/>
<polygon fill="black" stroke="black" points="3696.82,-1838.69 3686.82,-1835.18 3692.45,-1844.16 3696.82,-1838.69"/>
</g>
<!-- u26&#45;&gt;u30 -->
<g id="edge53" class="edge">
<title>u26&#45;&gt;u30</title>
<path fill="none" stroke="black" d="M4650.96,-2550.15C4729.2,-2506.45 4938.55,-2389.51 5025.79,-2340.79"/>
<polygon fill="black" stroke="black" points="5027.56,-2343.81 5034.58,-2335.87 5024.15,-2337.7 5027.56,-2343.81"/>
</g>
<!-- u26&#45;&gt;u27 -->
<g id="edge52" class="edge">
<title>u26&#45;&gt;u27</title>
<path fill="none" stroke="black" d="M4590.56,-2550.15C4512.15,-2506.45 4302.32,-2389.51 4214.88,-2340.79"/>
<polygon fill="black" stroke="black" points="4216.51,-2337.69 4206.07,-2335.87 4213.1,-2343.8 4216.51,-2337.69"/>
</g>
<!-- u9 -->
<g id="node43" class="node">
<title>u9</title>
<ellipse fill="#ffbbff" stroke="black" cx="4620.79" cy="-2318" rx="219.86" ry="18"/>
<text text-anchor="middle" x="4620.79" y="-2314.3" font-family="Times,serif" font-size="14.00">Language.Drasil.Code.Imperative.Comments</text>
</g>
<!-- u26&#45;&gt;u9 -->
<g id="edge51" class="edge">
<title>u26&#45;&gt;u9</title>
<path fill="none" stroke="black" d="M4620.79,-2549.95C4620.79,-2507.66 4620.79,-2397.61 4620.79,-2346.2"/>
<polygon fill="black" stroke="black" points="4624.29,-2346.17 4620.79,-2336.17 4617.29,-2346.17 4624.29,-2346.17"/>
</g>
<!-- u25&#45;&gt;u40 -->
<g id="edge50" class="edge">
<title>u25&#45;&gt;u40</title>
<path fill="none" stroke="black" d="M5492.79,-2549.95C5492.79,-2507.66 5492.79,-2397.61 5492.79,-2346.2"/>
<polygon fill="black" stroke="black" points="5496.29,-2346.17 5492.79,-2336.17 5489.29,-2346.17 5496.29,-2346.17"/>
</g>
<!-- u25&#45;&gt;u24 -->
<g id="edge49" class="edge">
<title>u25&#45;&gt;u24</title>
<path fill="none" stroke="black" d="M5524.96,-2550.1C5601.31,-2507.87 5781.53,-2394.32 5705.79,-2300 5597.48,-2165.12 5095.4,-2103.9 4827.04,-2080.41"/>
<polygon fill="black" stroke="black" points="4827.08,-2076.9 4816.81,-2079.52 4826.47,-2083.87 4827.08,-2076.9"/>
</g>
<!-- u24&#45;&gt;u1 -->
<g id="edge47" class="edge">
<title>u24&#45;&gt;u1</title>
<path fill="none" stroke="black" d="M4615.89,-2049.15C4508.68,-2004.98 4219.85,-1886 4103.93,-1838.24"/>
<polygon fill="black" stroke="black" points="4105.15,-1834.96 4094.57,-1834.39 4102.48,-1841.43 4105.15,-1834.96"/>
</g>
<!-- u24&#45;&gt;u39 -->
<g id="edge48" class="edge">
<title>u24&#45;&gt;u39</title>
<path fill="none" stroke="black" d="M4658.08,-2048.99C4660.8,-2006.04 4664.83,-1890.11 4637.79,-1799 4581.43,-1609.03 4441.47,-1410.92 4390.1,-1342.21"/>
<polygon fill="black" stroke="black" points="4392.82,-1340 4384.01,-1334.12 4387.22,-1344.21 4392.82,-1340"/>
</g>
<!-- u23&#45;&gt;u43 -->
<g id="edge46" class="edge">
<title>u23&#45;&gt;u43</title>
<path fill="none" stroke="black" d="M4703.43,-3301.95C4667.26,-3259.04 4572.31,-3146.37 4529.85,-3095.98"/>
<polygon fill="black" stroke="black" points="4532.38,-3093.56 4523.26,-3088.17 4527.03,-3098.07 4532.38,-3093.56"/>
</g>
<!-- u23&#45;&gt;u32 -->
<g id="edge45" class="edge">
<title>u23&#45;&gt;u32</title>
<path fill="none" stroke="black" d="M4793.28,-3303.12C5047.22,-3247.55 5854.79,-3052.55 5854.79,-2820 5854.79,-2820 5854.79,-2820 5854.79,-2317 5854.79,-2039.72 4887.43,-1881.45 4540.66,-1833.62"/>
<polygon fill="black" stroke="black" points="4540.96,-1830.13 4530.58,-1832.24 4540.01,-1837.07 4540.96,-1830.13"/>
</g>
<!-- u23&#45;&gt;u31 -->
<g id="edge44" class="edge">
<title>u23&#45;&gt;u31</title>
<path fill="none" stroke="black" d="M4732.16,-3301.95C4768.33,-3259.04 4863.28,-3146.37 4905.74,-3095.98"/>
<polygon fill="black" stroke="black" points="4908.56,-3098.07 4912.33,-3088.17 4903.21,-3093.56 4908.56,-3098.07"/>
</g>
<!-- u23&#45;&gt;u29 -->
<g id="edge43" class="edge">
<title>u23&#45;&gt;u29</title>
<path fill="none" stroke="black" d="M4749.88,-3302.15C4821.29,-3264.55 4998.57,-3170.58 5144.79,-3088 5301.66,-2999.41 5485.81,-2888.91 5562.92,-2842.34"/>
<polygon fill="black" stroke="black" points="5565.03,-2845.15 5571.78,-2836.98 5561.41,-2839.16 5565.03,-2845.15"/>
</g>
<!-- u14 -->
<g id="node49" class="node">
<title>u14</title>
<ellipse fill="#7777ff" stroke="black" cx="3802.79" cy="-2568" rx="289.45" ry="18"/>
<text text-anchor="middle" x="3802.79" y="-2564.3" font-family="Times,serif" font-size="14.00">Language.Drasil.Code.Imperative.GOOL.LanguageRenderer</text>
</g>
<!-- u23&#45;&gt;u14 -->
<g id="edge42" class="edge">
<title>u23&#45;&gt;u14</title>
<path fill="none" stroke="black" d="M4681.27,-3302.13C4607.49,-3267.28 4436.86,-3182.61 4308.79,-3088 4290.08,-3074.18 4290.01,-3065.12 4270.79,-3052 4085.42,-2925.43 3937.94,-3024.01 3813.79,-2837 3764.04,-2762.05 3783.12,-2647.6 3795.47,-2595.95"/>
<polygon fill="black" stroke="black" points="3798.88,-2596.75 3797.9,-2586.2 3792.09,-2595.05 3798.88,-2596.75"/>
</g>
<!-- u13 -->
<g id="node41" class="node">
<title>u13</title>
<ellipse fill="#ffbbff" stroke="black" cx="2486.79" cy="-1817" rx="219.86" ry="18"/>
<text text-anchor="middle" x="2486.79" y="-1813.3" font-family="Times,serif" font-size="14.00">Language.Drasil.Code.Imperative.WriteInput</text>
</g>
<!-- u13&#45;&gt;u8 -->
<g id="edge25" class="edge">
<title>u13&#45;&gt;u8</title>
<path fill="none" stroke="black" d="M2493.2,-1798.6C2516,-1735.11 2591.79,-1509.55 2591.79,-1317 2591.79,-1317 2591.79,-1317 2591.79,-1064 2591.79,-856.32 2780.57,-656.73 2851.39,-589.16"/>
<polygon fill="black" stroke="black" points="2854.16,-591.35 2859.03,-581.94 2849.36,-586.26 2854.16,-591.35"/>
</g>
<!-- u10&#45;&gt;u8 -->
<g id="edge23" class="edge">
<title>u10&#45;&gt;u8</title>
<path fill="none" stroke="black" d="M1093.83,-2051.68C1323.89,-2015.94 1818.79,-1900.31 1818.79,-1567 1818.79,-1567 1818.79,-1567 1818.79,-1064 1818.79,-673.13 2416.44,-587.92 2713.79,-569.71"/>
<polygon fill="black" stroke="black" points="2714.03,-573.2 2723.81,-569.12 2713.62,-566.22 2714.03,-573.2"/>
</g>
<!-- u9&#45;&gt;u24 -->
<g id="edge22" class="edge">
<title>u9&#45;&gt;u24</title>
<path fill="none" stroke="black" d="M4623.27,-2299.89C4629.41,-2257.42 4645.38,-2146.92 4652.85,-2095.31"/>
<polygon fill="black" stroke="black" points="4656.34,-2095.63 4654.3,-2085.23 4649.41,-2094.63 4656.34,-2095.63"/>
</g>
<!-- u12 -->
<g id="node44" class="node">
<title>u12</title>
<ellipse fill="#77ff77" stroke="black" cx="2781.79" cy="-2318" rx="215.56" ry="18"/>
<text text-anchor="middle" x="2781.79" y="-2314.3" font-family="Times,serif" font-size="14.00">Language.Drasil.Code.Imperative.Build.AST</text>
</g>
<!-- u11 -->
<g id="node45" class="node">
<title>u11</title>
<ellipse fill="#77ff77" stroke="black" cx="2781.79" cy="-2568" rx="228.56" ry="18"/>
<text text-anchor="middle" x="2781.79" y="-2564.3" font-family="Times,serif" font-size="14.00">Language.Drasil.Code.Imperative.Build.Import</text>
</g>
<!-- u11&#45;&gt;u12 -->
<g id="edge24" class="edge">
<title>u11&#45;&gt;u12</title>
<path fill="none" stroke="black" d="M2781.79,-2549.95C2781.79,-2507.66 2781.79,-2397.61 2781.79,-2346.2"/>
<polygon fill="black" stroke="black" points="2785.29,-2346.17 2781.79,-2336.17 2778.29,-2346.17 2785.29,-2346.17"/>
</g>
<!-- u37 -->
<g id="node46" class="node">
<title>u37</title>
<ellipse fill="#ffff77" stroke="black" cx="3007.79" cy="-2067" rx="245.06" ry="18"/>
<text text-anchor="middle" x="3007.79" y="-2063.3" font-family="Times,serif" font-size="14.00">Language.Drasil.Code.Imperative.Doxygen.Import</text>
</g>
<!-- u37&#45;&gt;u2 -->
<g id="edge71" class="edge">
<title>u37&#45;&gt;u2</title>
<path fill="none" stroke="black" d="M3023.46,-2048.82C3091.34,-1974.37 3360.34,-1679.37 3440.28,-1591.7"/>
<polygon fill="black" stroke="black" points="3443.05,-1593.85 3447.2,-1584.1 3437.87,-1589.14 3443.05,-1593.85"/>
</g>
<!-- u15&#45;&gt;u2 -->
<g id="edge26" class="edge">
<title>u15&#45;&gt;u2</title>
<path fill="none" stroke="black" d="M3525.18,-2048.91C3498.9,-2012.12 3438.97,-1921.71 3417.79,-1835 3396.47,-1747.71 3431.78,-1641.97 3451.26,-1593.54"/>
<polygon fill="black" stroke="black" points="3454.58,-1594.69 3455.15,-1584.11 3448.11,-1592.02 3454.58,-1594.69"/>
</g>
<!-- u22&#45;&gt;u16 -->
<g id="edge40" class="edge">
<title>u22&#45;&gt;u16</title>
<path fill="none" stroke="black" d="M1778.06,-3052.61C2044.62,-3007.71 2785.08,-2882.96 3056.97,-2837.15"/>
<polygon fill="black" stroke="black" points="3057.95,-2840.54 3067.23,-2835.43 3056.78,-2833.64 3057.95,-2840.54"/>
</g>
<!-- u20 -->
<g id="node52" class="node">
<title>u20</title>
<ellipse fill="#ff7777" stroke="black" cx="2524.79" cy="-2819" rx="393.73" ry="18"/>
<text text-anchor="middle" x="2524.79" y="-2815.3" font-family="Times,serif" font-size="14.00">Language.Drasil.Code.Imperative.GOOL.LanguageRenderer.LanguagePolymorphic</text>
</g>
<!-- u22&#45;&gt;u20 -->
<g id="edge41" class="edge">
<title>u22&#45;&gt;u20</title>
<path fill="none" stroke="black" d="M1737.81,-3052.18C1888.43,-3007.74 2296.39,-2887.38 2457.78,-2839.77"/>
<polygon fill="black" stroke="black" points="2458.98,-2843.07 2467.58,-2836.88 2457,-2836.35 2458.98,-2843.07"/>
</g>
<!-- u21&#45;&gt;u16 -->
<g id="edge38" class="edge">
<title>u21&#45;&gt;u16</title>
<path fill="none" stroke="black" d="M2470.65,-3052.18C2602.2,-3007.8 2958.23,-2887.67 3099.69,-2839.94"/>
<polygon fill="black" stroke="black" points="3101.14,-2843.15 3109.5,-2836.63 3098.9,-2836.51 3101.14,-2843.15"/>
</g>
<!-- u21&#45;&gt;u20 -->
<g id="edge39" class="edge">
<title>u21&#45;&gt;u20</title>
<path fill="none" stroke="black" d="M2427.94,-3051.89C2445.75,-3009.24 2492.22,-2898 2513.66,-2846.66"/>
<polygon fill="black" stroke="black" points="2516.97,-2847.81 2517.6,-2837.23 2510.51,-2845.11 2516.97,-2847.81"/>
</g>
<!-- u20&#45;&gt;u35 -->
<g id="edge36" class="edge">
<title>u20&#45;&gt;u35</title>
<path fill="none" stroke="black" d="M2574.87,-2801.08C2706.49,-2756.61 3061.71,-2636.6 3202.83,-2588.92"/>
<polygon fill="black" stroke="black" points="3204.26,-2592.13 3212.62,-2585.62 3202.02,-2585.5 3204.26,-2592.13"/>
</g>
<!-- u20&#45;&gt;u13 -->
<g id="edge34" class="edge">
<title>u20&#45;&gt;u13</title>
<path fill="none" stroke="black" d="M2523.8,-2800.83C2521.6,-2762.38 2516.23,-2666.39 2512.79,-2586 2500.39,-2295.98 2490.29,-1944.13 2487.54,-1845.09"/>
<polygon fill="black" stroke="black" points="2491.03,-1844.93 2487.26,-1835.03 2484.04,-1845.12 2491.03,-1844.93"/>
</g>
<!-- u20&#45;&gt;u11 -->
<g id="edge33" class="edge">
<title>u20&#45;&gt;u11</title>
<path fill="none" stroke="black" d="M2542.46,-2800.89C2587.12,-2757.62 2704.66,-2643.74 2756.55,-2593.46"/>
<polygon fill="black" stroke="black" points="2759.26,-2595.71 2764.01,-2586.23 2754.39,-2590.68 2759.26,-2595.71"/>
</g>
<!-- u20&#45;&gt;u37 -->
<g id="edge37" class="edge">
<title>u20&#45;&gt;u37</title>
<path fill="none" stroke="black" d="M2523.65,-2800.79C2518.65,-2720.69 2501.36,-2384.86 2556.79,-2300 2638.75,-2174.55 2811.06,-2113.36 2917.37,-2086.44"/>
<polygon fill="black" stroke="black" points="2918.26,-2089.82 2927.13,-2084.02 2916.58,-2083.03 2918.26,-2089.82"/>
</g>
<!-- u20&#45;&gt;u14 -->
<g id="edge35" class="edge">
<title>u20&#45;&gt;u14</title>
<path fill="none" stroke="black" d="M2610.13,-2801.37C2839.9,-2756.61 3470.29,-2633.78 3709.27,-2587.22"/>
<polygon fill="black" stroke="black" points="3710.18,-2590.61 3719.32,-2585.26 3708.84,-2583.74 3710.18,-2590.61"/>
</g>
<!-- u19&#45;&gt;u16 -->
<g id="edge31" class="edge">
<title>u19&#45;&gt;u16</title>
<path fill="none" stroke="black" d="M3158.79,-3051.89C3158.79,-3009.42 3158.79,-2898.92 3158.79,-2847.31"/>
<polygon fill="black" stroke="black" points="3162.29,-2847.23 3158.79,-2837.23 3155.29,-2847.23 3162.29,-2847.23"/>
</g>
<!-- u19&#45;&gt;u20 -->
<g id="edge32" class="edge">
<title>u19&#45;&gt;u20</title>
<path fill="none" stroke="black" d="M3115.72,-3052.08C3003.1,-3007.85 2700.21,-2888.89 2577.5,-2840.7"/>
<polygon fill="black" stroke="black" points="2578.52,-2837.34 2567.93,-2836.94 2575.96,-2843.86 2578.52,-2837.34"/>
</g>
<!-- u18&#45;&gt;u16 -->
<g id="edge29" class="edge">
<title>u18&#45;&gt;u16</title>
<path fill="none" stroke="black" d="M3852.24,-3052.08C3719.37,-3007.61 3360.78,-2887.6 3218.32,-2839.92"/>
<polygon fill="black" stroke="black" points="3219.03,-2836.47 3208.44,-2836.62 3216.81,-2843.11 3219.03,-2836.47"/>
</g>
<!-- u18&#45;&gt;u20 -->
<g id="edge30" class="edge">
<title>u18&#45;&gt;u20</title>
<path fill="none" stroke="black" d="M3811.85,-3052.57C3565.27,-3008.01 2885.18,-2885.12 2626.48,-2838.37"/>
<polygon fill="black" stroke="black" points="2626.81,-2834.88 2616.34,-2836.54 2625.56,-2841.77 2626.81,-2834.88"/>
</g>
<!-- u17&#45;&gt;u16 -->
<g id="edge27" class="edge">
<title>u17&#45;&gt;u16</title>
<path fill="none" stroke="black" d="M1078.6,-3053.42C1478.64,-3008.53 2630.42,-2879.29 3024.61,-2835.06"/>
<polygon fill="black" stroke="black" points="3025.08,-2838.53 3034.63,-2833.93 3024.3,-2831.57 3025.08,-2838.53"/>
</g>
<!-- u17&#45;&gt;u20 -->
<g id="edge28" class="edge">
<title>u17&#45;&gt;u20</title>
<path fill="none" stroke="black" d="M1043.18,-3052.76C1326.67,-3008.22 2114.86,-2884.4 2410.67,-2837.93"/>
<polygon fill="black" stroke="black" points="2411.22,-2841.38 2420.56,-2836.37 2410.14,-2834.47 2411.22,-2841.38"/>
</g>
<!-- u33 -->
<g id="node56" class="node">
<title>u33</title>
<ellipse fill="#77ffff" stroke="black" cx="4090.79" cy="-2819" rx="267.55" ry="18"/>
<text text-anchor="middle" x="4090.79" y="-2815.3" font-family="Times,serif" font-size="14.00">Language.Drasil.Code.Imperative.Parsers.ConfigParser</text>
</g>
<!-- u33&#45;&gt;u14 -->
<g id="edge67" class="edge">
<title>u33&#45;&gt;u14</title>
<path fill="none" stroke="black" d="M4071,-2800.89C4020.75,-2757.44 3888.16,-2642.8 3830.37,-2592.84"/>
<polygon fill="black" stroke="black" points="3832.58,-2590.13 3822.73,-2586.23 3828,-2595.42 3832.58,-2590.13"/>
</g>
<!-- u4&#45;&gt;u44 -->
<g id="edge11" class="edge">
<title>u4&#45;&gt;u44</title>
<path fill="none" stroke="black" d="M3560.63,-1298.76C3695.6,-1254.77 4067.93,-1133.42 4214.44,-1085.67"/>
<polygon fill="black" stroke="black" points="4215.75,-1088.92 4224.18,-1082.5 4213.58,-1082.27 4215.75,-1088.92"/>
</g>
<!-- u4&#45;&gt;u41 -->
<g id="edge10" class="edge">
<title>u4&#45;&gt;u41</title>
<path fill="none" stroke="black" d="M3534.44,-1298.08C3595.32,-1254.52 3757.53,-1138.46 3826.76,-1088.92"/>
<polygon fill="black" stroke="black" points="3829.02,-1091.61 3835.12,-1082.94 3824.95,-1085.91 3829.02,-1091.61"/>
</g>
<!-- u4&#45;&gt;u7 -->
<g id="edge9" class="edge">
<title>u4&#45;&gt;u7</title>
<path fill="none" stroke="black" d="M3510.79,-1297.89C3510.79,-1255.42 3510.79,-1144.92 3510.79,-1093.31"/>
<polygon fill="black" stroke="black" points="3514.29,-1093.23 3510.79,-1083.23 3507.29,-1093.23 3514.29,-1093.23"/>
</g>
<!-- u4&#45;&gt;u3 -->
<g id="edge8" class="edge">
<title>u4&#45;&gt;u3</title>
<path fill="none" stroke="black" d="M3489.42,-1297.89C3434.91,-1254.25 3290.69,-1138.78 3228.74,-1089.18"/>
<polygon fill="black" stroke="black" points="3230.9,-1086.42 3220.91,-1082.91 3226.53,-1091.89 3230.9,-1086.42"/>
</g>
<!-- u3&#45;&gt;u49 -->
<g id="edge7" class="edge">
<title>u3&#45;&gt;u49</title>
<path fill="none" stroke="black" d="M3199.79,-1046.93C3199.79,-949.35 3199.79,-462.38 3199.79,-341.3"/>
<polygon fill="black" stroke="black" points="3203.29,-341.05 3199.79,-331.05 3196.29,-341.05 3203.29,-341.05"/>
</g>
<!-- u56 -->
<g id="node59" class="node">
<title>u56</title>
<ellipse fill="#33ff33" stroke="black" cx="406.79" cy="-3821" rx="108.58" ry="18"/>
<text text-anchor="middle" x="406.79" y="-3817.3" font-family="Times,serif" font-size="14.00">drasil&#45;code.test.Main</text>
</g>
<!-- u56&#45;&gt;u58 -->
<g id="edge91" class="edge">
<title>u56&#45;&gt;u58</title>
<path fill="none" stroke="black" d="M392.57,-3802.95C356.66,-3759.93 262.25,-3646.82 220.34,-3596.61"/>
<polygon fill="black" stroke="black" points="222.94,-3594.27 213.85,-3588.84 217.57,-3598.76 222.94,-3594.27"/>
</g>
<!-- u56&#45;&gt;u54 -->
<g id="edge90" class="edge">
<title>u56&#45;&gt;u54</title>
<path fill="none" stroke="black" d="M401.71,-3802.95C389.06,-3760.57 356.11,-3650.14 340.81,-3598.88"/>
<polygon fill="black" stroke="black" points="344.13,-3597.75 337.92,-3589.17 337.42,-3599.75 344.13,-3597.75"/>
</g>
<!-- u56&#45;&gt;u53 -->
<g id="edge89" class="edge">
<title>u56&#45;&gt;u53</title>
<path fill="none" stroke="black" d="M411.81,-3802.95C424.29,-3760.57 456.79,-3650.14 471.88,-3598.88"/>
<polygon fill="black" stroke="black" points="475.28,-3599.75 474.74,-3589.17 468.56,-3597.77 475.28,-3599.75"/>
</g>
<!-- u56&#45;&gt;u52 -->
<g id="edge88" class="edge">
<title>u56&#45;&gt;u52</title>
<path fill="none" stroke="black" d="M422.74,-3802.95C463.17,-3759.74 569.75,-3645.81 616.4,-3595.94"/>
<polygon fill="black" stroke="black" points="619.07,-3598.21 623.35,-3588.51 613.96,-3593.42 619.07,-3598.21"/>
</g>
<!-- u56&#45;&gt;u51 -->
<g id="edge87" class="edge">
<title>u56&#45;&gt;u51</title>
<path fill="none" stroke="black" d="M383.49,-3803.34C322.58,-3759.81 158.63,-3642.64 90.32,-3593.82"/>
<polygon fill="black" stroke="black" points="92.27,-3590.91 82.1,-3587.94 88.2,-3596.6 92.27,-3590.91"/>
</g>
<!-- u56&#45;&gt;u5 -->
<g id="edge86" class="edge">
<title>u56&#45;&gt;u5</title>
<path fill="none" stroke="black" d="M486.18,-3808.66C772.03,-3767.82 1747.78,-3628.43 2051.67,-3585.02"/>
<polygon fill="black" stroke="black" points="2052.36,-3588.45 2061.77,-3583.58 2051.37,-3581.52 2052.36,-3588.45"/>
</g>
</g>
</svg>
