<?xml version="1.0" encoding="UTF-8" standalone="no"?>
<!DOCTYPE svg PUBLIC "-//W3C//DTD SVG 1.1//EN"
 "http://www.w3.org/Graphics/SVG/1.1/DTD/svg11.dtd">
<!-- Generated by graphviz version 2.43.0 (0)
 -->
<!-- Title: G Pages: 1 -->
<svg width="431pt" height="288pt"
 viewBox="0.00 0.00 431.07 288.00" xmlns="http://www.w3.org/2000/svg" xmlns:xlink="http://www.w3.org/1999/xlink">
<g id="graph0" class="graph" transform="scale(3.95 3.95) rotate(0) translate(4 1134.67)">
<title>G</title>
<polygon fill="white" stroke="transparent" points="-4,4 -4,-1134.67 1700.33,-1134.67 1700.33,4 -4,4"/>
<!-- u7 -->
<g id="node1" class="node">
<title>u7</title>
<ellipse fill="#bbffbb" stroke="black" cx="139.09" cy="-404" rx="139.18" ry="18"/>
<text text-anchor="middle" x="139.09" y="-400.3" font-family="Times,serif" font-size="14.00">Drasil.Website.Introduction</text>
</g>
<!-- u6 -->
<g id="node2" class="node">
<title>u6</title>
<ellipse fill="#bbffbb" stroke="black" cx="448.09" cy="-404" rx="151.37" ry="18"/>
<text text-anchor="middle" x="448.09" y="-400.3" font-family="Times,serif" font-size="14.00">Drasil.Website.GettingStarted</text>
</g>
<!-- u5 -->
<g id="node3" class="node">
<title>u5</title>
<ellipse fill="#bbffbb" stroke="black" cx="749.09" cy="-404" rx="131.08" ry="18"/>
<text text-anchor="middle" x="749.09" y="-400.3" font-family="Times,serif" font-size="14.00">Drasil.Website.CaseStudy</text>
</g>
<!-- u1 -->
<g id="node7" class="node">
<title>u1</title>
<ellipse fill="#bbffbb" stroke="black" cx="749.09" cy="-81" rx="122.38" ry="18"/>
<text text-anchor="middle" x="749.09" y="-77.3" font-family="Times,serif" font-size="14.00">Drasil.Website.Example</text>
</g>
<!-- u5&#45;&gt;u1 -->
<g id="edge7" class="edge">
<title>u5&#45;&gt;u1</title>
<path fill="none" stroke="black" d="M749.09,-385.74C749.09,-333.05 749.09,-173.96 749.09,-109.54"/>
<polygon fill="black" stroke="black" points="752.59,-109.34 749.09,-99.34 745.59,-109.34 752.59,-109.34"/>
</g>
<!-- u4 -->
<g id="node4" class="node">
<title>u4</title>
<ellipse fill="#bbffbb" stroke="black" cx="1050.09" cy="-404" rx="152.17" ry="18"/>
<text text-anchor="middle" x="1050.09" y="-400.3" font-family="Times,serif" font-size="14.00">Drasil.Website.Documentation</text>
</g>
<!-- u3 -->
<g id="node5" class="node">
<title>u3</title>
<ellipse fill="#bbffbb" stroke="black" cx="1329.09" cy="-404" rx="108.58" ry="18"/>
<text text-anchor="middle" x="1329.09" y="-400.3" font-family="Times,serif" font-size="14.00">Drasil.Website.About</text>
</g>
<!-- u2 -->
<g id="node6" class="node">
<title>u2</title>
<ellipse fill="#bbffbb" stroke="black" cx="899.09" cy="-727" rx="104.78" ry="18"/>
<text text-anchor="middle" x="899.09" y="-723.3" font-family="Times,serif" font-size="14.00">Drasil.Website.Body</text>
</g>
<!-- u2&#45;&gt;u7 -->
<g id="edge6" class="edge">
<title>u2&#45;&gt;u7</title>
<path fill="none" stroke="black" d="M861.4,-710.08C735.21,-656.78 327.59,-484.62 187.16,-425.3"/>
<polygon fill="black" stroke="black" points="188.48,-422.06 177.91,-421.4 185.76,-428.51 188.48,-422.06"/>
</g>
<!-- u2&#45;&gt;u6 -->
<g id="edge5" class="edge">
<title>u2&#45;&gt;u6</title>
<path fill="none" stroke="black" d="M875.79,-709.42C800.89,-656.11 566.16,-489.04 480.12,-427.8"/>
<polygon fill="black" stroke="black" points="481.97,-424.82 471.79,-421.87 477.91,-430.52 481.97,-424.82"/>
</g>
<!-- u2&#45;&gt;u5 -->
<g id="edge4" class="edge">
<title>u2&#45;&gt;u5</title>
<path fill="none" stroke="black" d="M891.02,-708.74C866.3,-655.84 791.45,-495.65 761.58,-431.74"/>
<polygon fill="black" stroke="black" points="764.6,-429.92 757.19,-422.34 758.25,-432.89 764.6,-429.92"/>
</g>
<!-- u2&#45;&gt;u4 -->
<g id="edge3" class="edge">
<title>u2&#45;&gt;u4</title>
<path fill="none" stroke="black" d="M907.21,-708.74C932.09,-655.84 1007.45,-495.65 1037.51,-431.74"/>
<polygon fill="black" stroke="black" points="1040.84,-432.88 1041.93,-422.34 1034.51,-429.9 1040.84,-432.88"/>
</g>
<!-- u2&#45;&gt;u3 -->
<g id="edge2" class="edge">
<title>u2&#45;&gt;u3</title>
<path fill="none" stroke="black" d="M921.6,-709.19C993.29,-655.67 1216.36,-489.15 1298.4,-427.91"/>
<polygon fill="black" stroke="black" points="1300.88,-430.43 1306.8,-421.64 1296.69,-424.82 1300.88,-430.43"/>
</g>
<!-- u0 -->
<g id="node8" class="node">
<title>u0</title>
<ellipse fill="#bbffbb" stroke="black" cx="1576.09" cy="-404" rx="120.48" ry="18"/>
<text text-anchor="middle" x="1576.09" y="-400.3" font-family="Times,serif" font-size="14.00">Drasil.Website.Analysis</text>
</g>
<!-- u2&#45;&gt;u0 -->
<g id="edge1" class="edge">
<title>u2&#45;&gt;u0</title>
<path fill="none" stroke="black" d="M933.12,-709.86C1045.76,-656.46 1406.35,-485.48 1532.23,-425.8"/>
<polygon fill="black" stroke="black" points="1534.04,-428.81 1541.58,-421.36 1531.04,-422.48 1534.04,-428.81"/>
</g>
<!-- u8 -->
<g id="node9" class="node">
<title>u8</title>
<ellipse fill="#ffffbb" stroke="black" cx="899.09" cy="-1050" rx="122.38" ry="18"/>
<text text-anchor="middle" x="899.09" y="-1046.3" font-family="Times,serif" font-size="14.00">drasil&#45;website.app.Main</text>
</g>
<!-- u8&#45;&gt;u2 -->
<g id="edge8" class="edge">
<title>u8&#45;&gt;u2</title>
<path fill="none" stroke="black" d="M899.09,-1031.74C899.09,-979.05 899.09,-819.96 899.09,-755.54"/>
<polygon fill="black" stroke="black" points="902.59,-755.34 899.09,-745.34 895.59,-755.34 902.59,-755.34"/>
</g>
</g>
</svg>
