<?xml version="1.0" encoding="UTF-8" standalone="no"?>
<!DOCTYPE svg PUBLIC "-//W3C//DTD SVG 1.1//EN"
 "http://www.w3.org/Graphics/SVG/1.1/DTD/svg11.dtd">
<!-- Generated by graphviz version 2.43.0 (0)
 -->
<!-- Title: G Pages: 1 -->
<svg width="432pt" height="286pt"
 viewBox="0.00 0.00 432.00 285.84" xmlns="http://www.w3.org/2000/svg" xmlns:xlink="http://www.w3.org/1999/xlink">
<g id="graph0" class="graph" transform="scale(10.19 10.19) rotate(0) translate(4 2907.33)">
<title>G</title>
<polygon fill="white" stroke="transparent" points="-4,4 -4,-2907.33 4395.98,-2907.33 4395.98,4 -4,4"/>
<!-- u31 -->
<g id="node1" class="node">
<title>u31</title>
<ellipse fill="#bbffbb" stroke="black" cx="2214.7" cy="-1793" rx="92.08" ry="18"/>
<text text-anchor="middle" x="2214.7" y="-1789.3" font-family="Times,serif" font-size="14.00">Drasil.TraceTable</text>
</g>
<!-- u6 -->
<g id="node10" class="node">
<title>u6</title>
<ellipse fill="#bbbbff" stroke="black" cx="2015.7" cy="-1110" rx="159.47" ry="18"/>
<text text-anchor="middle" x="2015.7" y="-1106.3" font-family="Times,serif" font-size="14.00">Drasil.DocumentLanguage.Core</text>
</g>
<!-- u31&#45;&gt;u6 -->
<g id="edge52" class="edge">
<title>u31&#45;&gt;u6</title>
<path fill="none" stroke="black" d="M2212.52,-1774.96C2205.64,-1723.02 2182.55,-1562.48 2144.7,-1434 2111.28,-1320.58 2053.51,-1191.69 2028.2,-1137.36"/>
<polygon fill="black" stroke="black" points="2031.27,-1135.67 2023.86,-1128.1 2024.93,-1138.64 2031.27,-1135.67"/>
</g>
<!-- u28 -->
<g id="node2" class="node">
<title>u28</title>
<ellipse fill="#bbffbb" stroke="black" cx="2513.7" cy="-2135" rx="133.78" ry="18"/>
<text text-anchor="middle" x="2513.7" y="-2131.3" font-family="Times,serif" font-size="14.00">Drasil.DocumentLanguage</text>
</g>
<!-- u28&#45;&gt;u31 -->
<g id="edge49" class="edge">
<title>u28&#45;&gt;u31</title>
<path fill="none" stroke="black" d="M2498.46,-2116.67C2449.16,-2060.61 2293.86,-1884.02 2236.37,-1818.65"/>
<polygon fill="black" stroke="black" points="2238.78,-1816.09 2229.55,-1810.89 2233.53,-1820.71 2238.78,-1816.09"/>
</g>
<!-- u11 -->
<g id="node4" class="node">
<title>u11</title>
<ellipse fill="#bbffbb" stroke="black" cx="185.7" cy="-1793" rx="79.09" ry="18"/>
<text text-anchor="middle" x="185.7" y="-1789.3" font-family="Times,serif" font-size="14.00">Drasil.DocDecl</text>
</g>
<!-- u28&#45;&gt;u11 -->
<g id="edge43" class="edge">
<title>u28&#45;&gt;u11</title>
<path fill="none" stroke="black" d="M2426.69,-2121.29C2055.39,-2067.07 606.81,-1855.5 260.41,-1804.91"/>
<polygon fill="black" stroke="black" points="260.89,-1801.44 250.49,-1803.46 259.88,-1808.37 260.89,-1801.44"/>
</g>
<!-- u0 -->
<g id="node6" class="node">
<title>u0</title>
<ellipse fill="#bbffbb" stroke="black" cx="2441.7" cy="-1793" rx="116.18" ry="18"/>
<text text-anchor="middle" x="2441.7" y="-1789.3" font-family="Times,serif" font-size="14.00">Drasil.ExtractDocDesc</text>
</g>
<!-- u28&#45;&gt;u0 -->
<g id="edge41" class="edge">
<title>u28&#45;&gt;u0</title>
<path fill="none" stroke="black" d="M2510.03,-2116.67C2498.31,-2061.31 2461.69,-1888.4 2447.45,-1821.15"/>
<polygon fill="black" stroke="black" points="2450.86,-1820.35 2445.36,-1811.29 2444.01,-1821.8 2450.86,-1820.35"/>
</g>
<!-- u27 -->
<g id="node7" class="node">
<title>u27</title>
<ellipse fill="#ffffbb" stroke="black" cx="1368.7" cy="-1793" rx="136.48" ry="18"/>
<text text-anchor="middle" x="1368.7" y="-1789.3" font-family="Times,serif" font-size="14.00">Drasil.DocLang.References</text>
</g>
<!-- u28&#45;&gt;u27 -->
<g id="edge48" class="edge">
<title>u28&#45;&gt;u27</title>
<path fill="none" stroke="black" d="M2461.15,-2118.4C2273.08,-2062.55 1633.98,-1872.77 1431.07,-1812.52"/>
<polygon fill="black" stroke="black" points="1432.03,-1809.16 1421.45,-1809.66 1430.04,-1815.87 1432.03,-1809.16"/>
</g>
<!-- u4 -->
<g id="node12" class="node">
<title>u4</title>
<ellipse fill="#bbbbff" stroke="black" cx="1883.7" cy="-1793" rx="220.96" ry="18"/>
<text text-anchor="middle" x="1883.7" y="-1789.3" font-family="Times,serif" font-size="14.00">Drasil.DocumentLanguage.TraceabilityGraph</text>
</g>
<!-- u28&#45;&gt;u4 -->
<g id="edge42" class="edge">
<title>u28&#45;&gt;u4</title>
<path fill="none" stroke="black" d="M2482.89,-2117.37C2378.98,-2061.29 2041.42,-1879.12 1924.22,-1815.87"/>
<polygon fill="black" stroke="black" points="1925.66,-1812.67 1915.2,-1811 1922.33,-1818.83 1925.66,-1812.67"/>
</g>
<!-- u21 -->
<g id="node24" class="node">
<title>u21</title>
<ellipse fill="#ffbbff" stroke="black" cx="2862.7" cy="-1452" rx="161.37" ry="18"/>
<text text-anchor="middle" x="2862.7" y="-1448.3" font-family="Times,serif" font-size="14.00">Drasil.Sections.TableOfContents</text>
</g>
<!-- u28&#45;&gt;u21 -->
<g id="edge47" class="edge">
<title>u28&#45;&gt;u21</title>
<path fill="none" stroke="black" d="M2515.46,-2116.64C2521.41,-2063.15 2543.95,-1897.03 2604.7,-1775 2667.25,-1649.35 2785.19,-1527.4 2837.09,-1477.1"/>
<polygon fill="black" stroke="black" points="2839.76,-1479.39 2844.54,-1469.93 2834.91,-1474.34 2839.76,-1479.39"/>
</g>
<!-- u17 -->
<g id="node28" class="node">
<title>u17</title>
<ellipse fill="#ffbbff" stroke="black" cx="2758.7" cy="-1793" rx="144.87" ry="18"/>
<text text-anchor="middle" x="2758.7" y="-1789.3" font-family="Times,serif" font-size="14.00">Drasil.Sections.Stakeholders</text>
</g>
<!-- u28&#45;&gt;u17 -->
<g id="edge46" class="edge">
<title>u28&#45;&gt;u17</title>
<path fill="none" stroke="black" d="M2526.19,-2116.67C2566.41,-2060.85 2692.73,-1885.55 2740.32,-1819.51"/>
<polygon fill="black" stroke="black" points="2743.23,-1821.45 2746.24,-1811.29 2737.55,-1817.36 2743.23,-1821.45"/>
</g>
<!-- u14 -->
<g id="node31" class="node">
<title>u14</title>
<ellipse fill="#ffbbff" stroke="black" cx="3084.7" cy="-1793" rx="163.27" ry="18"/>
<text text-anchor="middle" x="3084.7" y="-1789.3" font-family="Times,serif" font-size="14.00">Drasil.Sections.GeneralSystDesc</text>
</g>
<!-- u28&#45;&gt;u14 -->
<g id="edge45" class="edge">
<title>u28&#45;&gt;u14</title>
<path fill="none" stroke="black" d="M2541.63,-2117.37C2635.72,-2061.34 2941.23,-1879.43 3047.7,-1816.03"/>
<polygon fill="black" stroke="black" points="3049.69,-1818.92 3056.49,-1810.8 3046.11,-1812.91 3049.69,-1818.92"/>
</g>
<!-- u13 -->
<g id="node32" class="node">
<title>u13</title>
<ellipse fill="#ffbbff" stroke="black" cx="3259.7" cy="-1452" rx="141.88" ry="18"/>
<text text-anchor="middle" x="3259.7" y="-1448.3" font-family="Times,serif" font-size="14.00">Drasil.Sections.Introduction</text>
</g>
<!-- u28&#45;&gt;u13 -->
<g id="edge44" class="edge">
<title>u28&#45;&gt;u13</title>
<path fill="none" stroke="black" d="M2617.93,-2123.65C2785.96,-2100.73 3112.43,-2029.03 3256.7,-1811 3326.06,-1706.17 3287.7,-1543.54 3268.53,-1479.86"/>
<polygon fill="black" stroke="black" points="3271.84,-1478.69 3265.53,-1470.17 3265.15,-1480.76 3271.84,-1478.69"/>
</g>
<!-- u12 -->
<g id="node3" class="node">
<title>u12</title>
<ellipse fill="#bbffbb" stroke="black" cx="3514.7" cy="-2476" rx="81.79" ry="18"/>
<text text-anchor="middle" x="3514.7" y="-2472.3" font-family="Times,serif" font-size="14.00">Drasil.DocLang</text>
</g>
<!-- u12&#45;&gt;u28 -->
<g id="edge18" class="edge">
<title>u12&#45;&gt;u28</title>
<path fill="none" stroke="black" d="M3472.01,-2460.54C3312.43,-2406.5 2750.91,-2216.33 2570.19,-2155.13"/>
<polygon fill="black" stroke="black" points="2571.2,-2151.78 2560.6,-2151.88 2568.95,-2158.41 2571.2,-2151.78"/>
</g>
<!-- u2 -->
<g id="node14" class="node">
<title>u2</title>
<ellipse fill="#bbbbff" stroke="black" cx="3272.7" cy="-2135" rx="189.27" ry="18"/>
<text text-anchor="middle" x="3272.7" y="-2131.3" font-family="Times,serif" font-size="14.00">Drasil.DocumentLanguage.RefHelpers</text>
</g>
<!-- u12&#45;&gt;u2 -->
<g id="edge15" class="edge">
<title>u12&#45;&gt;u2</title>
<path fill="none" stroke="black" d="M3502.7,-2458.19C3463.36,-2403.08 3338.13,-2227.65 3290.93,-2161.54"/>
<polygon fill="black" stroke="black" points="3293.72,-2159.42 3285.06,-2153.32 3288.02,-2163.49 3293.72,-2159.42"/>
</g>
<!-- u9 -->
<g id="node16" class="node">
<title>u9</title>
<ellipse fill="#ffbbbb" stroke="black" cx="3756.7" cy="-2135" rx="276.75" ry="18"/>
<text text-anchor="middle" x="3756.7" y="-2131.3" font-family="Times,serif" font-size="14.00">Drasil.DocumentLanguage.Notebook.DocumentLanguage</text>
</g>
<!-- u12&#45;&gt;u9 -->
<g id="edge16" class="edge">
<title>u12&#45;&gt;u9</title>
<path fill="none" stroke="black" d="M3526.7,-2458.19C3566.04,-2403.08 3691.27,-2227.65 3738.47,-2161.54"/>
<polygon fill="black" stroke="black" points="3741.38,-2163.49 3744.34,-2153.32 3735.68,-2159.42 3741.38,-2163.49"/>
</g>
<!-- u19 -->
<g id="node26" class="node">
<title>u19</title>
<ellipse fill="#ffbbff" stroke="black" cx="4221.7" cy="-2135" rx="170.07" ry="18"/>
<text text-anchor="middle" x="4221.7" y="-2131.3" font-family="Times,serif" font-size="14.00">Drasil.Sections.ReferenceMaterial</text>
</g>
<!-- u12&#45;&gt;u19 -->
<g id="edge17" class="edge">
<title>u12&#45;&gt;u19</title>
<path fill="none" stroke="black" d="M3547.38,-2459.33C3662.1,-2404.32 4046.54,-2219.99 4177.54,-2157.17"/>
<polygon fill="black" stroke="black" points="4179.39,-2160.17 4186.89,-2152.69 4176.36,-2153.86 4179.39,-2160.17"/>
</g>
<!-- u11&#45;&gt;u6 -->
<g id="edge13" class="edge">
<title>u11&#45;&gt;u6</title>
<path fill="none" stroke="black" d="M166.73,-1775.2C107.2,-1720.5 -66.5,-1544.74 27.7,-1434 261.48,-1159.17 1410.3,-1117.54 1846.91,-1111.72"/>
<polygon fill="black" stroke="black" points="1847.13,-1115.22 1857.09,-1111.59 1847.04,-1108.22 1847.13,-1115.22"/>
</g>
<!-- u18 -->
<g id="node27" class="node">
<title>u18</title>
<ellipse fill="#ffbbff" stroke="black" cx="185.7" cy="-1452" rx="149.47" ry="18"/>
<text text-anchor="middle" x="185.7" y="-1448.3" font-family="Times,serif" font-size="14.00">Drasil.Sections.Requirements</text>
</g>
<!-- u11&#45;&gt;u18 -->
<g id="edge14" class="edge">
<title>u11&#45;&gt;u18</title>
<path fill="none" stroke="black" d="M185.7,-1774.72C185.7,-1719.64 185.7,-1547.83 185.7,-1480.48"/>
<polygon fill="black" stroke="black" points="189.2,-1480.24 185.7,-1470.24 182.2,-1480.24 189.2,-1480.24"/>
</g>
<!-- u10 -->
<g id="node5" class="node">
<title>u10</title>
<ellipse fill="#bbffbb" stroke="black" cx="3514.7" cy="-2818" rx="108.58" ry="18"/>
<text text-anchor="middle" x="3514.7" y="-2814.3" font-family="Times,serif" font-size="14.00">Drasil.SRSDocument</text>
</g>
<!-- u10&#45;&gt;u12 -->
<g id="edge12" class="edge">
<title>u10&#45;&gt;u12</title>
<path fill="none" stroke="black" d="M3514.7,-2799.67C3514.7,-2744.42 3514.7,-2572.11 3514.7,-2504.56"/>
<polygon fill="black" stroke="black" points="3518.2,-2504.29 3514.7,-2494.29 3511.2,-2504.29 3518.2,-2504.29"/>
</g>
<!-- u0&#45;&gt;u6 -->
<g id="edge1" class="edge">
<title>u0&#45;&gt;u6</title>
<path fill="none" stroke="black" d="M2429.21,-1774.89C2394.69,-1727.37 2295.63,-1589.48 2220.7,-1470 2144.3,-1348.18 2061.92,-1197.16 2029.72,-1137.25"/>
<polygon fill="black" stroke="black" points="2032.63,-1135.27 2024.82,-1128.11 2026.46,-1138.58 2032.63,-1135.27"/>
</g>
<!-- u23 -->
<g id="node22" class="node">
<title>u23</title>
<ellipse fill="#ffbbff" stroke="black" cx="2437.7" cy="-1452" rx="207.96" ry="18"/>
<text text-anchor="middle" x="2437.7" y="-1448.3" font-family="Times,serif" font-size="14.00">Drasil.Sections.SpecificSystemDescription</text>
</g>
<!-- u0&#45;&gt;u23 -->
<g id="edge2" class="edge">
<title>u0&#45;&gt;u23</title>
<path fill="none" stroke="black" d="M2441.49,-1774.72C2440.84,-1719.64 2438.82,-1547.83 2438.02,-1480.48"/>
<polygon fill="black" stroke="black" points="2441.52,-1480.2 2437.9,-1470.24 2434.52,-1480.28 2441.52,-1480.2"/>
</g>
<!-- u24 -->
<g id="node21" class="node">
<title>u24</title>
<ellipse fill="#ffbbff" stroke="black" cx="525.7" cy="-1452" rx="172.47" ry="18"/>
<text text-anchor="middle" x="525.7" y="-1448.3" font-family="Times,serif" font-size="14.00">Drasil.Sections.AuxiliaryConstants</text>
</g>
<!-- u27&#45;&gt;u24 -->
<g id="edge40" class="edge">
<title>u27&#45;&gt;u24</title>
<path fill="none" stroke="black" d="M1328.32,-1775.76C1189.33,-1719.87 730.73,-1535.45 576.68,-1473.5"/>
<polygon fill="black" stroke="black" points="577.57,-1470.09 566.98,-1469.6 574.95,-1476.58 577.57,-1470.09"/>
</g>
<!-- u27&#45;&gt;u23 -->
<g id="edge39" class="edge">
<title>u27&#45;&gt;u23</title>
<path fill="none" stroke="black" d="M1418.47,-1776.22C1593.89,-1720.59 2183.23,-1533.7 2376.06,-1472.55"/>
<polygon fill="black" stroke="black" points="2377.28,-1475.83 2385.75,-1469.47 2375.16,-1469.16 2377.28,-1475.83"/>
</g>
<!-- u22 -->
<g id="node23" class="node">
<title>u22</title>
<ellipse fill="#ffbbff" stroke="black" cx="860.7" cy="-1452" rx="144.87" ry="18"/>
<text text-anchor="middle" x="860.7" y="-1448.3" font-family="Times,serif" font-size="14.00">Drasil.Sections.TableOfUnits</text>
</g>
<!-- u27&#45;&gt;u22 -->
<g id="edge38" class="edge">
<title>u27&#45;&gt;u22</title>
<path fill="none" stroke="black" d="M1343.51,-1775.19C1259.64,-1719.22 989.79,-1539.15 894.45,-1475.52"/>
<polygon fill="black" stroke="black" points="896.3,-1472.55 886.04,-1469.91 892.42,-1478.37 896.3,-1472.55"/>
</g>
<!-- u20 -->
<g id="node25" class="node">
<title>u20</title>
<ellipse fill="#ffbbff" stroke="black" cx="1224.7" cy="-1452" rx="201.46" ry="18"/>
<text text-anchor="middle" x="1224.7" y="-1448.3" font-family="Times,serif" font-size="14.00">Drasil.Sections.TableOfAbbAndAcronyms</text>
</g>
<!-- u27&#45;&gt;u20 -->
<g id="edge37" class="edge">
<title>u27&#45;&gt;u20</title>
<path fill="none" stroke="black" d="M1361.36,-1774.72C1337.86,-1719.41 1264.38,-1546.41 1236.02,-1479.65"/>
<polygon fill="black" stroke="black" points="1239.15,-1478.08 1232.02,-1470.24 1232.71,-1480.81 1239.15,-1478.08"/>
</g>
<!-- u27&#45;&gt;u18 -->
<g id="edge36" class="edge">
<title>u27&#45;&gt;u18</title>
<path fill="none" stroke="black" d="M1314.4,-1776.44C1120.22,-1720.8 460.64,-1531.79 250.55,-1471.58"/>
<polygon fill="black" stroke="black" points="251.46,-1468.2 240.89,-1468.81 249.53,-1474.93 251.46,-1468.2"/>
</g>
<!-- u16 -->
<g id="node29" class="node">
<title>u16</title>
<ellipse fill="#ffbbff" stroke="black" cx="1958.7" cy="-1452" rx="177.37" ry="18"/>
<text text-anchor="middle" x="1958.7" y="-1448.3" font-family="Times,serif" font-size="14.00">Drasil.Sections.TraceabilityMandGs</text>
</g>
<!-- u27&#45;&gt;u16 -->
<g id="edge35" class="edge">
<title>u27&#45;&gt;u16</title>
<path fill="none" stroke="black" d="M1397.96,-1775.19C1495.66,-1719.05 1810.66,-1538.06 1920.5,-1474.95"/>
<polygon fill="black" stroke="black" points="1922.34,-1477.93 1929.26,-1469.91 1918.85,-1471.86 1922.34,-1477.93"/>
</g>
<!-- u15 -->
<g id="node30" class="node">
<title>u15</title>
<ellipse fill="#ffbbff" stroke="black" cx="1603.7" cy="-1452" rx="159.47" ry="18"/>
<text text-anchor="middle" x="1603.7" y="-1448.3" font-family="Times,serif" font-size="14.00">Drasil.Sections.TableOfSymbols</text>
</g>
<!-- u27&#45;&gt;u15 -->
<g id="edge34" class="edge">
<title>u27&#45;&gt;u15</title>
<path fill="none" stroke="black" d="M1380.68,-1774.72C1419.18,-1719.18 1539.93,-1544.99 1585.79,-1478.84"/>
<polygon fill="black" stroke="black" points="1588.93,-1480.45 1591.75,-1470.24 1583.17,-1476.47 1588.93,-1480.45"/>
</g>
<!-- u26 -->
<g id="node8" class="node">
<title>u26</title>
<ellipse fill="#ffffbb" stroke="black" cx="4105.7" cy="-1452" rx="129.18" ry="18"/>
<text text-anchor="middle" x="4105.7" y="-1448.3" font-family="Times,serif" font-size="14.00">Drasil.DocLang.Notebook</text>
</g>
<!-- u25 -->
<g id="node9" class="node">
<title>u25</title>
<ellipse fill="#ffffbb" stroke="black" cx="2767.7" cy="-1110" rx="104.78" ry="18"/>
<text text-anchor="middle" x="2767.7" y="-1106.3" font-family="Times,serif" font-size="14.00">Drasil.DocLang.SRS</text>
</g>
<!-- u3 -->
<g id="node13" class="node">
<title>u3</title>
<ellipse fill="#bbbbff" stroke="black" cx="2128.7" cy="-769" rx="223.66" ry="18"/>
<text text-anchor="middle" x="2128.7" y="-765.3" font-family="Times,serif" font-size="14.00">Drasil.DocumentLanguage.TraceabilityMatrix</text>
</g>
<!-- u6&#45;&gt;u3 -->
<g id="edge7" class="edge">
<title>u6&#45;&gt;u3</title>
<path fill="none" stroke="black" d="M2021.46,-1091.72C2039.86,-1036.52 2097.32,-864.12 2119.68,-797.07"/>
<polygon fill="black" stroke="black" points="2123.11,-797.84 2122.95,-787.24 2116.47,-795.62 2123.11,-797.84"/>
</g>
<!-- u5 -->
<g id="node11" class="node">
<title>u5</title>
<ellipse fill="#bbbbff" stroke="black" cx="2311.7" cy="-427" rx="187.37" ry="18"/>
<text text-anchor="middle" x="2311.7" y="-423.3" font-family="Times,serif" font-size="14.00">Drasil.DocumentLanguage.Definitions</text>
</g>
<!-- u1 -->
<g id="node15" class="node">
<title>u1</title>
<ellipse fill="#bbbbff" stroke="black" cx="525.7" cy="-85" rx="162.47" ry="18"/>
<text text-anchor="middle" x="525.7" y="-81.3" font-family="Times,serif" font-size="14.00">Drasil.DocumentLanguage.Units</text>
</g>
<!-- u5&#45;&gt;u1 -->
<g id="edge6" class="edge">
<title>u5&#45;&gt;u1</title>
<path fill="none" stroke="black" d="M2231.49,-410.73C1937.53,-354.77 920.41,-161.14 613.83,-102.78"/>
<polygon fill="black" stroke="black" points="614.14,-99.27 603.67,-100.84 612.83,-106.15 614.14,-99.27"/>
</g>
<!-- u4&#45;&gt;u25 -->
<g id="edge5" class="edge">
<title>u4&#45;&gt;u25</title>
<path fill="none" stroke="black" d="M1987.63,-1777.04C2152.55,-1747.86 2473.98,-1667.9 2654.7,-1470 2744.04,-1372.16 2762.75,-1204.09 2766.66,-1138.42"/>
<polygon fill="black" stroke="black" points="2770.18,-1138.25 2767.2,-1128.08 2763.19,-1137.89 2770.18,-1138.25"/>
</g>
<!-- u4&#45;&gt;u16 -->
<g id="edge4" class="edge">
<title>u4&#45;&gt;u16</title>
<path fill="none" stroke="black" d="M1887.52,-1774.72C1899.73,-1719.52 1937.87,-1547.12 1952.71,-1480.07"/>
<polygon fill="black" stroke="black" points="1956.14,-1480.76 1954.88,-1470.24 1949.31,-1479.25 1956.14,-1480.76"/>
</g>
<!-- u3&#45;&gt;u5 -->
<g id="edge3" class="edge">
<title>u3&#45;&gt;u5</title>
<path fill="none" stroke="black" d="M2138.03,-750.67C2167.95,-695.08 2261.66,-520.98 2297.53,-454.32"/>
<polygon fill="black" stroke="black" points="2300.73,-455.76 2302.39,-445.29 2294.57,-452.44 2300.73,-455.76"/>
</g>
<!-- u7 -->
<g id="node18" class="node">
<title>u7</title>
<ellipse fill="#ffbbbb" stroke="black" cx="3576.7" cy="-1793" rx="219.86" ry="18"/>
<text text-anchor="middle" x="3576.7" y="-1789.3" font-family="Times,serif" font-size="14.00">Drasil.DocumentLanguage.Notebook.NBDecl</text>
</g>
<!-- u9&#45;&gt;u7 -->
<g id="edge9" class="edge">
<title>u9&#45;&gt;u7</title>
<path fill="none" stroke="black" d="M3747.53,-2116.67C3718.09,-2061.08 3625.92,-1886.98 3590.63,-1820.32"/>
<polygon fill="black" stroke="black" points="3593.63,-1818.49 3585.85,-1811.29 3587.44,-1821.77 3593.63,-1818.49"/>
</g>
<!-- u30 -->
<g id="node19" class="node">
<title>u30</title>
<ellipse fill="#bbffff" stroke="black" cx="3936.7" cy="-1793" rx="122.38" ry="18"/>
<text text-anchor="middle" x="3936.7" y="-1789.3" font-family="Times,serif" font-size="14.00">Drasil.NBSections.Body</text>
</g>
<!-- u9&#45;&gt;u30 -->
<g id="edge11" class="edge">
<title>u9&#45;&gt;u30</title>
<path fill="none" stroke="black" d="M3765.87,-2116.67C3795.3,-2061.08 3887.48,-1886.98 3922.76,-1820.32"/>
<polygon fill="black" stroke="black" points="3925.96,-1821.77 3927.54,-1811.29 3919.77,-1818.49 3925.96,-1821.77"/>
</g>
<!-- u29 -->
<g id="node20" class="node">
<title>u29</title>
<ellipse fill="#bbffff" stroke="black" cx="4232.7" cy="-1793" rx="155.97" ry="18"/>
<text text-anchor="middle" x="4232.7" y="-1789.3" font-family="Times,serif" font-size="14.00">Drasil.NBSections.Introduction</text>
</g>
<!-- u9&#45;&gt;u29 -->
<g id="edge10" class="edge">
<title>u9&#45;&gt;u29</title>
<path fill="none" stroke="black" d="M3780.63,-2116.91C3859.45,-2060.61 4110.97,-1880.95 4200.6,-1816.93"/>
<polygon fill="black" stroke="black" points="4202.9,-1819.59 4209,-1810.93 4198.83,-1813.89 4202.9,-1819.59"/>
</g>
<!-- u8 -->
<g id="node17" class="node">
<title>u8</title>
<ellipse fill="#ffbbbb" stroke="black" cx="3625.7" cy="-1452" rx="206.06" ry="18"/>
<text text-anchor="middle" x="3625.7" y="-1448.3" font-family="Times,serif" font-size="14.00">Drasil.DocumentLanguage.Notebook.Core</text>
</g>
<!-- u7&#45;&gt;u8 -->
<g id="edge8" class="edge">
<title>u7&#45;&gt;u8</title>
<path fill="none" stroke="black" d="M3579.2,-1774.72C3587.16,-1719.64 3611.99,-1547.83 3621.73,-1480.48"/>
<polygon fill="black" stroke="black" points="3625.24,-1480.64 3623.21,-1470.24 3618.31,-1479.64 3625.24,-1480.64"/>
</g>
<!-- u30&#45;&gt;u26 -->
<g id="edge51" class="edge">
<title>u30&#45;&gt;u26</title>
<path fill="none" stroke="black" d="M3945.31,-1774.72C3972.94,-1719.3 4059.48,-1545.7 4092.62,-1479.24"/>
<polygon fill="black" stroke="black" points="4095.77,-1480.75 4097.1,-1470.24 4089.51,-1477.63 4095.77,-1480.75"/>
</g>
<!-- u29&#45;&gt;u26 -->
<g id="edge50" class="edge">
<title>u29&#45;&gt;u26</title>
<path fill="none" stroke="black" d="M4226.23,-1774.72C4205.5,-1719.41 4140.69,-1546.41 4115.68,-1479.65"/>
<polygon fill="black" stroke="black" points="4118.94,-1478.38 4112.16,-1470.24 4112.39,-1480.83 4118.94,-1478.38"/>
</g>
<!-- u24&#45;&gt;u25 -->
<g id="edge33" class="edge">
<title>u24&#45;&gt;u25</title>
<path fill="none" stroke="black" d="M619.18,-1436.82C986.61,-1381.1 2328.78,-1177.56 2682.03,-1123.99"/>
<polygon fill="black" stroke="black" points="2682.58,-1127.45 2691.94,-1122.49 2681.53,-1120.53 2682.58,-1127.45"/>
</g>
<!-- u24&#45;&gt;u1 -->
<g id="edge32" class="edge">
<title>u24&#45;&gt;u1</title>
<path fill="none" stroke="black" d="M525.7,-1433.74C525.7,-1290 525.7,-292.53 525.7,-113.49"/>
<polygon fill="black" stroke="black" points="529.2,-113.33 525.7,-103.33 522.2,-113.33 529.2,-113.33"/>
</g>
<!-- u23&#45;&gt;u25 -->
<g id="edge31" class="edge">
<title>u23&#45;&gt;u25</title>
<path fill="none" stroke="black" d="M2454.52,-1433.67C2509.04,-1377.5 2681.03,-1200.3 2744.16,-1135.25"/>
<polygon fill="black" stroke="black" points="2746.85,-1137.5 2751.31,-1127.89 2741.83,-1132.63 2746.85,-1137.5"/>
</g>
<!-- u23&#45;&gt;u5 -->
<g id="edge30" class="edge">
<title>u23&#45;&gt;u5</title>
<path fill="none" stroke="black" d="M2436.13,-1433.91C2428.89,-1355.55 2397.47,-1022.78 2361.7,-751 2347.23,-641.03 2325.7,-510.68 2316.34,-455.19"/>
<polygon fill="black" stroke="black" points="2319.75,-454.39 2314.63,-445.12 2312.85,-455.56 2319.75,-454.39"/>
</g>
<!-- u22&#45;&gt;u6 -->
<g id="edge29" class="edge">
<title>u22&#45;&gt;u6</title>
<path fill="none" stroke="black" d="M914.47,-1435.17C1104.75,-1379.16 1745.71,-1190.48 1951.51,-1129.9"/>
<polygon fill="black" stroke="black" points="1952.66,-1133.21 1961.26,-1127.02 1950.68,-1126.49 1952.66,-1133.21"/>
</g>
<!-- u21&#45;&gt;u25 -->
<g id="edge28" class="edge">
<title>u21&#45;&gt;u25</title>
<path fill="none" stroke="black" d="M2857.86,-1433.67C2842.39,-1378.31 2794.08,-1205.4 2775.28,-1138.15"/>
<polygon fill="black" stroke="black" points="2778.59,-1136.98 2772.53,-1128.29 2771.85,-1138.87 2778.59,-1136.98"/>
</g>
<!-- u21&#45;&gt;u6 -->
<g id="edge27" class="edge">
<title>u21&#45;&gt;u6</title>
<path fill="none" stroke="black" d="M2821.56,-1434.49C2681.03,-1378.07 2220.22,-1193.1 2066.28,-1131.3"/>
<polygon fill="black" stroke="black" points="2067.18,-1127.89 2056.59,-1127.42 2064.57,-1134.39 2067.18,-1127.89"/>
</g>
<!-- u18&#45;&gt;u25 -->
<g id="edge26" class="edge">
<title>u18&#45;&gt;u25</title>
<path fill="none" stroke="black" d="M282.59,-1438.24C692.36,-1384.28 2280.11,-1175.21 2677.26,-1122.91"/>
<polygon fill="black" stroke="black" points="2677.8,-1126.37 2687.26,-1121.59 2676.89,-1119.43 2677.8,-1126.37"/>
</g>
<!-- u18&#45;&gt;u1 -->
<g id="edge25" class="edge">
<title>u18&#45;&gt;u1</title>
<path fill="none" stroke="black" d="M190,-1433.74C225.82,-1289.93 474.5,-291.53 518.92,-113.22"/>
<polygon fill="black" stroke="black" points="522.36,-113.88 521.38,-103.33 515.57,-112.19 522.36,-113.88"/>
</g>
<!-- u17&#45;&gt;u25 -->
<g id="edge24" class="edge">
<title>u17&#45;&gt;u25</title>
<path fill="none" stroke="black" d="M2781.62,-1774.94C2837.7,-1731.56 2981,-1610.53 3032.7,-1470 3086.75,-1323.07 2890.31,-1184.39 2805.19,-1132.5"/>
<polygon fill="black" stroke="black" points="2806.96,-1129.48 2796.58,-1127.32 2803.35,-1135.48 2806.96,-1129.48"/>
</g>
<!-- u16&#45;&gt;u6 -->
<g id="edge23" class="edge">
<title>u16&#45;&gt;u6</title>
<path fill="none" stroke="black" d="M1961.6,-1433.67C1970.87,-1378.42 1999.75,-1206.11 2011.08,-1138.56"/>
<polygon fill="black" stroke="black" points="2014.6,-1138.73 2012.8,-1128.29 2007.69,-1137.58 2014.6,-1138.73"/>
</g>
<!-- u15&#45;&gt;u6 -->
<g id="edge22" class="edge">
<title>u15&#45;&gt;u6</title>
<path fill="none" stroke="black" d="M1624.13,-1434.14C1691.81,-1378.29 1908.8,-1199.22 1987.15,-1134.56"/>
<polygon fill="black" stroke="black" points="1989.66,-1137.03 1995.14,-1127.96 1985.2,-1131.63 1989.66,-1137.03"/>
</g>
<!-- u14&#45;&gt;u25 -->
<g id="edge21" class="edge">
<title>u14&#45;&gt;u25</title>
<path fill="none" stroke="black" d="M3086.68,-1774.68C3092.03,-1721.29 3103.1,-1555.54 3050.7,-1434 2992.9,-1299.96 2857.98,-1182.02 2797.71,-1133.95"/>
<polygon fill="black" stroke="black" points="2799.73,-1131.09 2789.71,-1127.64 2795.39,-1136.58 2799.73,-1131.09"/>
</g>
<!-- u13&#45;&gt;u25 -->
<g id="edge20" class="edge">
<title>u13&#45;&gt;u25</title>
<path fill="none" stroke="black" d="M3235.3,-1434.14C3153.97,-1377.93 2892.04,-1196.93 2800.03,-1133.34"/>
<polygon fill="black" stroke="black" points="2801.88,-1130.37 2791.66,-1127.56 2797.9,-1136.13 2801.88,-1130.37"/>
</g>
<!-- u13&#45;&gt;u5 -->
<g id="edge19" class="edge">
<title>u13&#45;&gt;u5</title>
<path fill="none" stroke="black" d="M3244.04,-1434.1C3133.11,-1314.39 2466.69,-595.25 2334.49,-452.59"/>
<polygon fill="black" stroke="black" points="2336.93,-450.08 2327.57,-445.12 2331.8,-454.84 2336.93,-450.08"/>
</g>
</g>
</svg>
