<?xml version="1.0" encoding="UTF-8" standalone="no"?>
<!DOCTYPE svg PUBLIC "-//W3C//DTD SVG 1.1//EN"
 "http://www.w3.org/Graphics/SVG/1.1/DTD/svg11.dtd">
<!-- Generated by graphviz version 2.43.0 (0)
 -->
<!-- Title: G Pages: 1 -->
<svg width="431pt" height="288pt"
 viewBox="0.00 0.00 430.64 288.00" xmlns="http://www.w3.org/2000/svg" xmlns:xlink="http://www.w3.org/1999/xlink">
<g id="graph0" class="graph" transform="scale(2.66 2.66) rotate(0) translate(4 763.33)">
<title>G</title>
<polygon fill="white" stroke="transparent" points="-4,4 -4,-763.33 1143.38,-763.33 1143.38,4 -4,4"/>
<!-- u6 -->
<g id="node1" class="node">
<title>u6</title>
<ellipse fill="#bbffbb" stroke="black" cx="546.29" cy="-705" rx="34.39" ry="18"/>
<text text-anchor="middle" x="546.29" y="-701.3" font-family="Times,serif" font-size="14.00">Main</text>
</g>
<!-- u0 -->
<g id="node7" class="node">
<title>u0</title>
<ellipse fill="#ffffbb" stroke="black" cx="546.29" cy="-488" rx="104.78" ry="18"/>
<text text-anchor="middle" x="546.29" y="-484.3" font-family="Times,serif" font-size="14.00">Drasil.Website.Body</text>
</g>
<!-- u6&#45;&gt;u0 -->
<g id="edge6" class="edge">
<title>u6&#45;&gt;u0</title>
<path fill="none" stroke="black" d="M546.29,-686.77C546.29,-649.49 546.29,-561.08 546.29,-516.18"/>
<polygon fill="black" stroke="black" points="549.79,-516.01 546.29,-506.01 542.79,-516.01 549.79,-516.01"/>
</g>
<!-- u5 -->
<g id="node2" class="node">
<title>u5</title>
<ellipse fill="#ffffbb" stroke="black" cx="131.29" cy="-54" rx="122.38" ry="18"/>
<text text-anchor="middle" x="131.29" y="-50.3" font-family="Times,serif" font-size="14.00">Drasil.Website.Example</text>
</g>
<!-- u4 -->
<g id="node3" class="node">
<title>u4</title>
<ellipse fill="#ffffbb" stroke="black" cx="131.29" cy="-271" rx="131.08" ry="18"/>
<text text-anchor="middle" x="131.29" y="-267.3" font-family="Times,serif" font-size="14.00">Drasil.Website.CaseStudy</text>
</g>
<!-- u4&#45;&gt;u5 -->
<g id="edge5" class="edge">
<title>u4&#45;&gt;u5</title>
<path fill="none" stroke="black" d="M131.29,-252.77C131.29,-215.49 131.29,-127.08 131.29,-82.18"/>
<polygon fill="black" stroke="black" points="134.79,-82.01 131.29,-72.01 127.79,-82.01 134.79,-82.01"/>
</g>
<!-- u3 -->
<g id="node4" class="node">
<title>u3</title>
<ellipse fill="#ffffbb" stroke="black" cx="401.29" cy="-271" rx="120.48" ry="18"/>
<text text-anchor="middle" x="401.29" y="-267.3" font-family="Times,serif" font-size="14.00">Drasil.Website.Analysis</text>
</g>
<!-- u2 -->
<g id="node5" class="node">
<title>u2</title>
<ellipse fill="#ffffbb" stroke="black" cx="691.29" cy="-271" rx="152.17" ry="18"/>
<text text-anchor="middle" x="691.29" y="-267.3" font-family="Times,serif" font-size="14.00">Drasil.Website.Documentation</text>
</g>
<!-- u1 -->
<g id="node6" class="node">
<title>u1</title>
<ellipse fill="#ffffbb" stroke="black" cx="1000.29" cy="-271" rx="139.18" ry="18"/>
<text text-anchor="middle" x="1000.29" y="-267.3" font-family="Times,serif" font-size="14.00">Drasil.Website.Introduction</text>
</g>
<!-- u0&#45;&gt;u4 -->
<g id="edge4" class="edge">
<title>u0&#45;&gt;u4</title>
<path fill="none" stroke="black" d="M514.76,-470.66C440.63,-432.26 255.32,-336.25 172.45,-293.33"/>
<polygon fill="black" stroke="black" points="173.83,-290.1 163.34,-288.61 170.61,-296.31 173.83,-290.1"/>
</g>
<!-- u0&#45;&gt;u3 -->
<g id="edge3" class="edge">
<title>u0&#45;&gt;u3</title>
<path fill="none" stroke="black" d="M534.67,-469.77C509.2,-432.01 448.38,-341.83 418.48,-297.49"/>
<polygon fill="black" stroke="black" points="421.26,-295.35 412.76,-289.01 415.45,-299.26 421.26,-295.35"/>
</g>
<!-- u0&#45;&gt;u2 -->
<g id="edge2" class="edge">
<title>u0&#45;&gt;u2</title>
<path fill="none" stroke="black" d="M557.91,-469.77C583.37,-432.01 644.19,-341.83 674.1,-297.49"/>
<polygon fill="black" stroke="black" points="677.12,-299.26 679.81,-289.01 671.32,-295.35 677.12,-299.26"/>
</g>
<!-- u0&#45;&gt;u1 -->
<g id="edge1" class="edge">
<title>u0&#45;&gt;u1</title>
<path fill="none" stroke="black" d="M580.41,-470.84C661.57,-432.4 866.06,-335.57 956.31,-292.82"/>
<polygon fill="black" stroke="black" points="957.92,-295.94 965.46,-288.49 954.92,-289.61 957.92,-295.94"/>
</g>
</g>
</svg>
