<?xml version="1.0" encoding="UTF-8" standalone="no"?>
<!DOCTYPE svg PUBLIC "-//W3C//DTD SVG 1.1//EN"
 "http://www.w3.org/Graphics/SVG/1.1/DTD/svg11.dtd">
<!-- Generated by graphviz version 2.43.0 (0)
 -->
<!-- Title: G Pages: 1 -->
<svg width="432pt" height="282pt"
 viewBox="0.00 0.00 432.00 281.79" xmlns="http://www.w3.org/2000/svg" xmlns:xlink="http://www.w3.org/1999/xlink">
<g id="graph0" class="graph" transform="scale(9.65 9.65) rotate(0) translate(4 2714)">
<title>G</title>
<polygon fill="white" stroke="transparent" points="-4,4 -4,-2714 4162.86,-2714 4162.86,4 -4,4"/>
<!-- u25 -->
<g id="node1" class="node">
<title>u25</title>
<ellipse fill="#bbffbb" stroke="black" cx="343.23" cy="-1674" rx="92.08" ry="18"/>
<text text-anchor="middle" x="343.23" y="-1670.3" font-family="Times,serif" font-size="14.00">Drasil.TraceTable</text>
</g>
<!-- u9 -->
<g id="node11" class="node">
<title>u9</title>
<ellipse fill="#bbbbff" stroke="black" cx="399.23" cy="-1036" rx="159.47" ry="18"/>
<text text-anchor="middle" x="399.23" y="-1032.3" font-family="Times,serif" font-size="14.00">Drasil.DocumentLanguage.Core</text>
</g>
<!-- u25&#45;&gt;u9 -->
<g id="edge49" class="edge">
<title>u25&#45;&gt;u9</title>
<path fill="none" stroke="black" d="M303.79,-1657.65C201.15,-1615.19 -61.24,-1489.21 13.23,-1337 84.14,-1192.09 262.54,-1096.98 349.73,-1057.61"/>
<polygon fill="black" stroke="black" points="351.18,-1060.8 358.88,-1053.53 348.33,-1054.4 351.18,-1060.8"/>
</g>
<!-- u24 -->
<g id="node2" class="node">
<title>u24</title>
<ellipse fill="#bbffbb" stroke="black" cx="2598.23" cy="-1993" rx="133.78" ry="18"/>
<text text-anchor="middle" x="2598.23" y="-1989.3" font-family="Times,serif" font-size="14.00">Drasil.DocumentLanguage</text>
</g>
<!-- u24&#45;&gt;u25 -->
<g id="edge47" class="edge">
<title>u24&#45;&gt;u25</title>
<path fill="none" stroke="black" d="M2509.14,-1979.48C2145.61,-1928.37 777.2,-1736.01 425.86,-1686.62"/>
<polygon fill="black" stroke="black" points="426.15,-1683.12 415.76,-1685.2 425.18,-1690.05 426.15,-1683.12"/>
</g>
<!-- u2 -->
<g id="node4" class="node">
<title>u2</title>
<ellipse fill="#bbffbb" stroke="black" cx="887.23" cy="-1674" rx="79.09" ry="18"/>
<text text-anchor="middle" x="887.23" y="-1670.3" font-family="Times,serif" font-size="14.00">Drasil.DocDecl</text>
</g>
<!-- u24&#45;&gt;u2 -->
<g id="edge41" class="edge">
<title>u24&#45;&gt;u2</title>
<path fill="none" stroke="black" d="M2523.06,-1978.07C2238.74,-1925.4 1231.35,-1738.75 956.78,-1687.89"/>
<polygon fill="black" stroke="black" points="957.03,-1684.37 946.56,-1685.99 955.75,-1691.25 957.03,-1684.37"/>
</g>
<!-- u0 -->
<g id="node6" class="node">
<title>u0</title>
<ellipse fill="#bbffbb" stroke="black" cx="1412.23" cy="-1674" rx="116.18" ry="18"/>
<text text-anchor="middle" x="1412.23" y="-1670.3" font-family="Times,serif" font-size="14.00">Drasil.ExtractDocDesc</text>
</g>
<!-- u24&#45;&gt;u0 -->
<g id="edge40" class="edge">
<title>u24&#45;&gt;u0</title>
<path fill="none" stroke="black" d="M2541.03,-1976.71C2343.11,-1923.81 1688.03,-1748.72 1477.8,-1692.52"/>
<polygon fill="black" stroke="black" points="1478.39,-1689.06 1467.83,-1689.86 1476.59,-1695.82 1478.39,-1689.06"/>
</g>
<!-- u28 -->
<g id="node7" class="node">
<title>u28</title>
<ellipse fill="#ffffbb" stroke="black" cx="1683.23" cy="-1674" rx="136.48" ry="18"/>
<text text-anchor="middle" x="1683.23" y="-1670.3" font-family="Times,serif" font-size="14.00">Drasil.DocLang.References</text>
</g>
<!-- u24&#45;&gt;u28 -->
<g id="edge48" class="edge">
<title>u24&#45;&gt;u28</title>
<path fill="none" stroke="black" d="M2552.23,-1976.06C2398.91,-1922.95 1905.62,-1752.05 1738.9,-1694.28"/>
<polygon fill="black" stroke="black" points="1739.92,-1690.94 1729.33,-1690.97 1737.63,-1697.55 1739.92,-1690.94"/>
</g>
<!-- u8 -->
<g id="node12" class="node">
<title>u8</title>
<ellipse fill="#bbbbff" stroke="black" cx="2302.23" cy="-1674" rx="220.96" ry="18"/>
<text text-anchor="middle" x="2302.23" y="-1670.3" font-family="Times,serif" font-size="14.00">Drasil.DocumentLanguage.TraceabilityGraph</text>
</g>
<!-- u24&#45;&gt;u8 -->
<g id="edge42" class="edge">
<title>u24&#45;&gt;u8</title>
<path fill="none" stroke="black" d="M2582.32,-1974.96C2533.03,-1922.17 2382.77,-1761.25 2325.1,-1699.49"/>
<polygon fill="black" stroke="black" points="2327.61,-1697.05 2318.22,-1692.13 2322.49,-1701.83 2327.61,-1697.05"/>
</g>
<!-- u21 -->
<g id="node20" class="node">
<title>u21</title>
<ellipse fill="#bbffff" stroke="black" cx="2882.23" cy="-1355" rx="163.27" ry="18"/>
<text text-anchor="middle" x="2882.23" y="-1351.3" font-family="Times,serif" font-size="14.00">Drasil.Sections.GeneralSystDesc</text>
</g>
<!-- u24&#45;&gt;u21 -->
<g id="edge46" class="edge">
<title>u24&#45;&gt;u21</title>
<path fill="none" stroke="black" d="M2605.83,-1974.99C2644.84,-1887.63 2822.67,-1489.39 2870.41,-1382.48"/>
<polygon fill="black" stroke="black" points="2873.73,-1383.62 2874.61,-1373.06 2867.34,-1380.77 2873.73,-1383.62"/>
</g>
<!-- u19 -->
<g id="node22" class="node">
<title>u19</title>
<ellipse fill="#bbffff" stroke="black" cx="2989.23" cy="-1674" rx="144.87" ry="18"/>
<text text-anchor="middle" x="2989.23" y="-1670.3" font-family="Times,serif" font-size="14.00">Drasil.Sections.Stakeholders</text>
</g>
<!-- u24&#45;&gt;u19 -->
<g id="edge45" class="edge">
<title>u24&#45;&gt;u19</title>
<path fill="none" stroke="black" d="M2618.98,-1975.18C2684.04,-1922.43 2884.25,-1760.11 2959.89,-1698.79"/>
<polygon fill="black" stroke="black" points="2962.5,-1701.18 2968.06,-1692.16 2958.09,-1695.74 2962.5,-1701.18"/>
</g>
<!-- u14 -->
<g id="node27" class="node">
<title>u14</title>
<ellipse fill="#bbffff" stroke="black" cx="3262.23" cy="-1355" rx="161.37" ry="18"/>
<text text-anchor="middle" x="3262.23" y="-1351.3" font-family="Times,serif" font-size="14.00">Drasil.Sections.TableOfContents</text>
</g>
<!-- u24&#45;&gt;u14 -->
<g id="edge44" class="edge">
<title>u24&#45;&gt;u14</title>
<path fill="none" stroke="black" d="M2652.68,-1976.49C2761.42,-1942.8 3006.74,-1852.75 3143.23,-1692 3223.53,-1597.44 3251.04,-1444.94 3259.2,-1383.23"/>
<polygon fill="black" stroke="black" points="3262.69,-1383.48 3260.46,-1373.12 3255.75,-1382.61 3262.69,-1383.48"/>
</g>
<!-- u13 -->
<g id="node28" class="node">
<title>u13</title>
<ellipse fill="#bbffff" stroke="black" cx="3583.23" cy="-1355" rx="141.88" ry="18"/>
<text text-anchor="middle" x="3583.23" y="-1351.3" font-family="Times,serif" font-size="14.00">Drasil.Sections.Introduction</text>
</g>
<!-- u24&#45;&gt;u13 -->
<g id="edge43" class="edge">
<title>u24&#45;&gt;u13</title>
<path fill="none" stroke="black" d="M2635.31,-1975.58C2728.27,-1933.77 2977.49,-1817.66 3168.23,-1692 3325.25,-1588.56 3493.96,-1438.12 3557.28,-1380.08"/>
<polygon fill="black" stroke="black" points="3559.82,-1382.5 3564.81,-1373.15 3555.08,-1377.34 3559.82,-1382.5"/>
</g>
<!-- u11 -->
<g id="node3" class="node">
<title>u11</title>
<ellipse fill="#bbffbb" stroke="black" cx="2930.23" cy="-2311" rx="81.79" ry="18"/>
<text text-anchor="middle" x="2930.23" y="-2307.3" font-family="Times,serif" font-size="14.00">Drasil.DocLang</text>
</g>
<!-- u11&#45;&gt;u24 -->
<g id="edge16" class="edge">
<title>u11&#45;&gt;u24</title>
<path fill="none" stroke="black" d="M2912.38,-2293.01C2856.99,-2240.29 2687.88,-2079.33 2623.49,-2018.04"/>
<polygon fill="black" stroke="black" points="2625.83,-2015.43 2616.17,-2011.07 2621,-2020.5 2625.83,-2015.43"/>
</g>
<!-- u5 -->
<g id="node16" class="node">
<title>u5</title>
<ellipse fill="#ffbbbb" stroke="black" cx="3546.23" cy="-1993" rx="276.75" ry="18"/>
<text text-anchor="middle" x="3546.23" y="-1989.3" font-family="Times,serif" font-size="14.00">Drasil.DocumentLanguage.Notebook.DocumentLanguage</text>
</g>
<!-- u11&#45;&gt;u5 -->
<g id="edge15" class="edge">
<title>u11&#45;&gt;u5</title>
<path fill="none" stroke="black" d="M2961.2,-2294.11C3062.99,-2241.9 3387.34,-2075.51 3503.96,-2015.69"/>
<polygon fill="black" stroke="black" points="3505.67,-2018.74 3512.97,-2011.06 3502.47,-2012.51 3505.67,-2018.74"/>
</g>
<!-- u2&#45;&gt;u9 -->
<g id="edge4" class="edge">
<title>u2&#45;&gt;u9</title>
<path fill="none" stroke="black" d="M808.26,-1672.35C636.05,-1666.14 228.03,-1624.28 51.23,-1373 -46.28,-1234.4 226.14,-1105.54 345.9,-1057.18"/>
<polygon fill="black" stroke="black" points="347.3,-1060.39 355.28,-1053.43 344.7,-1053.89 347.3,-1060.39"/>
</g>
<!-- u12 -->
<g id="node29" class="node">
<title>u12</title>
<ellipse fill="#bbffff" stroke="black" cx="887.23" cy="-1355" rx="149.47" ry="18"/>
<text text-anchor="middle" x="887.23" y="-1351.3" font-family="Times,serif" font-size="14.00">Drasil.Sections.Requirements</text>
</g>
<!-- u2&#45;&gt;u12 -->
<g id="edge5" class="edge">
<title>u2&#45;&gt;u12</title>
<path fill="none" stroke="black" d="M887.23,-1655.96C887.23,-1603.93 887.23,-1446.82 887.23,-1383.19"/>
<polygon fill="black" stroke="black" points="890.73,-1383.13 887.23,-1373.13 883.73,-1383.13 890.73,-1383.13"/>
</g>
<!-- u1 -->
<g id="node5" class="node">
<title>u1</title>
<ellipse fill="#bbffbb" stroke="black" cx="2930.23" cy="-2630" rx="108.58" ry="18"/>
<text text-anchor="middle" x="2930.23" y="-2626.3" font-family="Times,serif" font-size="14.00">Drasil.SRSDocument</text>
</g>
<!-- u1&#45;&gt;u11 -->
<g id="edge3" class="edge">
<title>u1&#45;&gt;u11</title>
<path fill="none" stroke="black" d="M2930.23,-2611.96C2930.23,-2559.93 2930.23,-2402.82 2930.23,-2339.19"/>
<polygon fill="black" stroke="black" points="2933.73,-2339.13 2930.23,-2329.13 2926.73,-2339.13 2933.73,-2339.13"/>
</g>
<!-- u0&#45;&gt;u9 -->
<g id="edge1" class="edge">
<title>u0&#45;&gt;u9</title>
<path fill="none" stroke="black" d="M1308.7,-1665.79C1023.64,-1643.57 238.22,-1565.65 84.23,-1373 -17.15,-1246.16 240.55,-1109.11 351.42,-1057.88"/>
<polygon fill="black" stroke="black" points="353.09,-1060.96 360.73,-1053.62 350.18,-1054.6 353.09,-1060.96"/>
</g>
<!-- u16 -->
<g id="node25" class="node">
<title>u16</title>
<ellipse fill="#bbffff" stroke="black" cx="1683.23" cy="-1355" rx="207.96" ry="18"/>
<text text-anchor="middle" x="1683.23" y="-1351.3" font-family="Times,serif" font-size="14.00">Drasil.Sections.SpecificSystemDescription</text>
</g>
<!-- u0&#45;&gt;u16 -->
<g id="edge2" class="edge">
<title>u0&#45;&gt;u16</title>
<path fill="none" stroke="black" d="M1426.8,-1655.96C1471.83,-1603.28 1608.94,-1442.91 1661.97,-1380.87"/>
<polygon fill="black" stroke="black" points="1664.75,-1383 1668.59,-1373.13 1659.43,-1378.45 1664.75,-1383"/>
</g>
<!-- u23 -->
<g id="node18" class="node">
<title>u23</title>
<ellipse fill="#bbffff" stroke="black" cx="1256.23" cy="-1355" rx="201.46" ry="18"/>
<text text-anchor="middle" x="1256.23" y="-1351.3" font-family="Times,serif" font-size="14.00">Drasil.Sections.TableOfAbbAndAcronyms</text>
</g>
<!-- u28&#45;&gt;u23 -->
<g id="edge56" class="edge">
<title>u28&#45;&gt;u23</title>
<path fill="none" stroke="black" d="M1660.58,-1656.18C1589.29,-1603.26 1369.48,-1440.08 1287.49,-1379.21"/>
<polygon fill="black" stroke="black" points="1289.21,-1376.12 1279.09,-1372.97 1285.03,-1381.74 1289.21,-1376.12"/>
</g>
<!-- u22 -->
<g id="node19" class="node">
<title>u22</title>
<ellipse fill="#bbffff" stroke="black" cx="238.23" cy="-1355" rx="144.87" ry="18"/>
<text text-anchor="middle" x="238.23" y="-1351.3" font-family="Times,serif" font-size="14.00">Drasil.Sections.TableOfUnits</text>
</g>
<!-- u28&#45;&gt;u22 -->
<g id="edge55" class="edge">
<title>u28&#45;&gt;u22</title>
<path fill="none" stroke="black" d="M1615.96,-1658.24C1377.2,-1605.86 571.23,-1429.05 316.26,-1373.12"/>
<polygon fill="black" stroke="black" points="316.85,-1369.66 306.33,-1370.94 315.35,-1376.5 316.85,-1369.66"/>
</g>
<!-- u18 -->
<g id="node23" class="node">
<title>u18</title>
<ellipse fill="#bbffff" stroke="black" cx="560.23" cy="-1355" rx="159.47" ry="18"/>
<text text-anchor="middle" x="560.23" y="-1351.3" font-family="Times,serif" font-size="14.00">Drasil.Sections.TableOfSymbols</text>
</g>
<!-- u28&#45;&gt;u18 -->
<g id="edge54" class="edge">
<title>u28&#45;&gt;u18</title>
<path fill="none" stroke="black" d="M1628.31,-1657.5C1441.23,-1604.69 829.26,-1431.94 626.3,-1374.65"/>
<polygon fill="black" stroke="black" points="626.95,-1371.2 616.38,-1371.85 625.05,-1377.93 626.95,-1371.2"/>
</g>
<!-- u17 -->
<g id="node24" class="node">
<title>u17</title>
<ellipse fill="#bbffff" stroke="black" cx="2491.23" cy="-1355" rx="172.47" ry="18"/>
<text text-anchor="middle" x="2491.23" y="-1351.3" font-family="Times,serif" font-size="14.00">Drasil.Sections.AuxiliaryConstants</text>
</g>
<!-- u28&#45;&gt;u17 -->
<g id="edge53" class="edge">
<title>u28&#45;&gt;u17</title>
<path fill="none" stroke="black" d="M1724.69,-1656.73C1860.33,-1603.52 2290.72,-1434.67 2439.8,-1376.18"/>
<polygon fill="black" stroke="black" points="2441.18,-1379.4 2449.21,-1372.49 2438.62,-1372.88 2441.18,-1379.4"/>
</g>
<!-- u28&#45;&gt;u16 -->
<g id="edge52" class="edge">
<title>u28&#45;&gt;u16</title>
<path fill="none" stroke="black" d="M1683.23,-1655.96C1683.23,-1603.93 1683.23,-1446.82 1683.23,-1383.19"/>
<polygon fill="black" stroke="black" points="1686.73,-1383.13 1683.23,-1373.13 1679.73,-1383.13 1686.73,-1383.13"/>
</g>
<!-- u15 -->
<g id="node26" class="node">
<title>u15</title>
<ellipse fill="#bbffff" stroke="black" cx="2086.23" cy="-1355" rx="177.37" ry="18"/>
<text text-anchor="middle" x="2086.23" y="-1351.3" font-family="Times,serif" font-size="14.00">Drasil.Sections.TraceabilityMandGs</text>
</g>
<!-- u28&#45;&gt;u15 -->
<g id="edge51" class="edge">
<title>u28&#45;&gt;u15</title>
<path fill="none" stroke="black" d="M1704.61,-1656.18C1771.81,-1603.32 1978.86,-1440.46 2056.46,-1379.42"/>
<polygon fill="black" stroke="black" points="2058.71,-1382.1 2064.41,-1373.16 2054.39,-1376.6 2058.71,-1382.1"/>
</g>
<!-- u28&#45;&gt;u12 -->
<g id="edge50" class="edge">
<title>u28&#45;&gt;u12</title>
<path fill="none" stroke="black" d="M1642.39,-1656.73C1508.89,-1603.57 1085.61,-1435 938.34,-1376.35"/>
<polygon fill="black" stroke="black" points="939.21,-1372.93 928.63,-1372.49 936.62,-1379.44 939.21,-1372.93"/>
</g>
<!-- u27 -->
<g id="node8" class="node">
<title>u27</title>
<ellipse fill="#ffffbb" stroke="black" cx="3546.23" cy="-1674" rx="129.18" ry="18"/>
<text text-anchor="middle" x="3546.23" y="-1670.3" font-family="Times,serif" font-size="14.00">Drasil.DocLang.Notebook</text>
</g>
<!-- u26 -->
<g id="node9" class="node">
<title>u26</title>
<ellipse fill="#ffffbb" stroke="black" cx="2786.23" cy="-1036" rx="104.78" ry="18"/>
<text text-anchor="middle" x="2786.23" y="-1032.3" font-family="Times,serif" font-size="14.00">Drasil.DocLang.SRS</text>
</g>
<!-- u10 -->
<g id="node10" class="node">
<title>u10</title>
<ellipse fill="#bbbbff" stroke="black" cx="1782.23" cy="-80" rx="162.47" ry="18"/>
<text text-anchor="middle" x="1782.23" y="-76.3" font-family="Times,serif" font-size="14.00">Drasil.DocumentLanguage.Units</text>
</g>
<!-- u7 -->
<g id="node13" class="node">
<title>u7</title>
<ellipse fill="#bbbbff" stroke="black" cx="778.23" cy="-717" rx="223.66" ry="18"/>
<text text-anchor="middle" x="778.23" y="-713.3" font-family="Times,serif" font-size="14.00">Drasil.DocumentLanguage.TraceabilityMatrix</text>
</g>
<!-- u9&#45;&gt;u7 -->
<g id="edge14" class="edge">
<title>u9&#45;&gt;u7</title>
<path fill="none" stroke="black" d="M419.61,-1017.96C482.97,-964.96 676.68,-802.94 749.85,-741.74"/>
<polygon fill="black" stroke="black" points="752.33,-744.23 757.75,-735.13 747.84,-738.86 752.33,-744.23"/>
</g>
<!-- u8&#45;&gt;u26 -->
<g id="edge13" class="edge">
<title>u8&#45;&gt;u26</title>
<path fill="none" stroke="black" d="M2333.24,-1656.15C2403.75,-1616.29 2577.36,-1509.24 2672.23,-1373 2742.47,-1272.14 2772.47,-1124.4 2782.29,-1064.12"/>
<polygon fill="black" stroke="black" points="2785.75,-1064.66 2783.84,-1054.24 2778.83,-1063.57 2785.75,-1064.66"/>
</g>
<!-- u20 -->
<g id="node21" class="node">
<title>u20</title>
<ellipse fill="#bbffff" stroke="black" cx="1584.23" cy="-1036" rx="170.07" ry="18"/>
<text text-anchor="middle" x="1584.23" y="-1032.3" font-family="Times,serif" font-size="14.00">Drasil.Sections.ReferenceMaterial</text>
</g>
<!-- u8&#45;&gt;u20 -->
<g id="edge12" class="edge">
<title>u8&#45;&gt;u20</title>
<path fill="none" stroke="black" d="M2306.23,-1655.94C2317.63,-1602.83 2344.98,-1437.97 2272.23,-1337 2137.51,-1150.01 1860.55,-1078.2 1702.19,-1051.67"/>
<polygon fill="black" stroke="black" points="1702.37,-1048.16 1691.93,-1049.99 1701.24,-1055.06 1702.37,-1048.16"/>
</g>
<!-- u8&#45;&gt;u15 -->
<g id="edge11" class="edge">
<title>u8&#45;&gt;u15</title>
<path fill="none" stroke="black" d="M2290.62,-1655.96C2254.87,-1603.5 2146.34,-1444.21 2103.7,-1381.63"/>
<polygon fill="black" stroke="black" points="2106.43,-1379.42 2097.9,-1373.13 2100.64,-1383.36 2106.43,-1379.42"/>
</g>
<!-- u3 -->
<g id="node14" class="node">
<title>u3</title>
<ellipse fill="#bbbbff" stroke="black" cx="1782.23" cy="-399" rx="187.37" ry="18"/>
<text text-anchor="middle" x="1782.23" y="-395.3" font-family="Times,serif" font-size="14.00">Drasil.DocumentLanguage.Definitions</text>
</g>
<!-- u7&#45;&gt;u3 -->
<g id="edge10" class="edge">
<title>u7&#45;&gt;u3</title>
<path fill="none" stroke="black" d="M830.8,-699.46C1001.16,-645.84 1537.59,-477 1720.46,-419.44"/>
<polygon fill="black" stroke="black" points="1721.7,-422.72 1730.19,-416.38 1719.6,-416.04 1721.7,-422.72"/>
</g>
<!-- u3&#45;&gt;u10 -->
<g id="edge6" class="edge">
<title>u3&#45;&gt;u10</title>
<path fill="none" stroke="black" d="M1782.23,-380.96C1782.23,-328.93 1782.23,-171.82 1782.23,-108.19"/>
<polygon fill="black" stroke="black" points="1785.73,-108.13 1782.23,-98.13 1778.73,-108.13 1785.73,-108.13"/>
</g>
<!-- u6 -->
<g id="node15" class="node">
<title>u6</title>
<ellipse fill="#ffbbbb" stroke="black" cx="3949.23" cy="-1355" rx="206.06" ry="18"/>
<text text-anchor="middle" x="3949.23" y="-1351.3" font-family="Times,serif" font-size="14.00">Drasil.DocumentLanguage.Notebook.Core</text>
</g>
<!-- u5&#45;&gt;u27 -->
<g id="edge9" class="edge">
<title>u5&#45;&gt;u27</title>
<path fill="none" stroke="black" d="M3546.23,-1974.96C3546.23,-1922.93 3546.23,-1765.82 3546.23,-1702.19"/>
<polygon fill="black" stroke="black" points="3549.73,-1702.13 3546.23,-1692.13 3542.73,-1702.13 3549.73,-1702.13"/>
</g>
<!-- u4 -->
<g id="node17" class="node">
<title>u4</title>
<ellipse fill="#ffbbbb" stroke="black" cx="3937.23" cy="-1674" rx="221.76" ry="18"/>
<text text-anchor="middle" x="3937.23" y="-1670.3" font-family="Times,serif" font-size="14.00">Drasil.DocumentLanguage.Notebook.LsnDecl</text>
</g>
<!-- u5&#45;&gt;u4 -->
<g id="edge8" class="edge">
<title>u5&#45;&gt;u4</title>
<path fill="none" stroke="black" d="M3567.25,-1974.96C3632.62,-1921.96 3832.46,-1759.94 3907.95,-1698.74"/>
<polygon fill="black" stroke="black" points="3910.54,-1701.14 3916.11,-1692.13 3906.13,-1695.71 3910.54,-1701.14"/>
</g>
<!-- u4&#45;&gt;u6 -->
<g id="edge7" class="edge">
<title>u4&#45;&gt;u6</title>
<path fill="none" stroke="black" d="M3937.88,-1655.96C3939.85,-1603.93 3945.79,-1446.82 3948.2,-1383.19"/>
<polygon fill="black" stroke="black" points="3951.7,-1383.25 3948.58,-1373.13 3944.71,-1382.99 3951.7,-1383.25"/>
</g>
<!-- u23&#45;&gt;u20 -->
<g id="edge39" class="edge">
<title>u23&#45;&gt;u20</title>
<path fill="none" stroke="black" d="M1273.87,-1336.96C1328.59,-1284.07 1495.67,-1122.6 1559.28,-1061.12"/>
<polygon fill="black" stroke="black" points="1561.75,-1063.59 1566.51,-1054.13 1556.89,-1058.56 1561.75,-1063.59"/>
</g>
<!-- u22&#45;&gt;u9 -->
<g id="edge37" class="edge">
<title>u22&#45;&gt;u9</title>
<path fill="none" stroke="black" d="M246.89,-1336.96C273.42,-1284.71 353.77,-1126.52 385.82,-1063.41"/>
<polygon fill="black" stroke="black" points="389.13,-1064.63 390.53,-1054.13 382.88,-1061.46 389.13,-1064.63"/>
</g>
<!-- u22&#45;&gt;u20 -->
<g id="edge38" class="edge">
<title>u22&#45;&gt;u20</title>
<path fill="none" stroke="black" d="M302.7,-1338.82C526.16,-1286.19 1266.99,-1111.71 1507.85,-1054.99"/>
<polygon fill="black" stroke="black" points="1508.99,-1058.32 1517.92,-1052.62 1507.38,-1051.5 1508.99,-1058.32"/>
</g>
<!-- u21&#45;&gt;u26 -->
<g id="edge36" class="edge">
<title>u21&#45;&gt;u26</title>
<path fill="none" stroke="black" d="M2877.07,-1336.96C2861.28,-1284.82 2813.54,-1127.17 2794.35,-1063.8"/>
<polygon fill="black" stroke="black" points="2797.67,-1062.68 2791.42,-1054.13 2790.97,-1064.71 2797.67,-1062.68"/>
</g>
<!-- u21&#45;&gt;u20 -->
<g id="edge35" class="edge">
<title>u21&#45;&gt;u20</title>
<path fill="none" stroke="black" d="M2818.31,-1338.39C2600.98,-1285.31 1891.24,-1111.98 1658.72,-1055.19"/>
<polygon fill="black" stroke="black" points="1659.22,-1051.71 1648.67,-1052.74 1657.56,-1058.51 1659.22,-1051.71"/>
</g>
<!-- u19&#45;&gt;u26 -->
<g id="edge34" class="edge">
<title>u19&#45;&gt;u26</title>
<path fill="none" stroke="black" d="M2998.89,-1656C3026.13,-1605.71 3098.82,-1453.85 3054.23,-1337 3006.29,-1211.37 2878.87,-1105.02 2818.64,-1060.01"/>
<polygon fill="black" stroke="black" points="2820.38,-1056.95 2810.26,-1053.82 2816.22,-1062.58 2820.38,-1056.95"/>
</g>
<!-- u18&#45;&gt;u9 -->
<g id="edge32" class="edge">
<title>u18&#45;&gt;u9</title>
<path fill="none" stroke="black" d="M551.58,-1336.96C525.04,-1284.71 444.7,-1126.52 412.64,-1063.41"/>
<polygon fill="black" stroke="black" points="415.58,-1061.46 407.93,-1054.13 409.34,-1064.63 415.58,-1061.46"/>
</g>
<!-- u18&#45;&gt;u20 -->
<g id="edge33" class="edge">
<title>u18&#45;&gt;u20</title>
<path fill="none" stroke="black" d="M612.07,-1337.95C784.22,-1284.66 1336.52,-1113.68 1522.47,-1056.12"/>
<polygon fill="black" stroke="black" points="1523.58,-1059.44 1532.09,-1053.14 1521.5,-1052.75 1523.58,-1059.44"/>
</g>
<!-- u17&#45;&gt;u26 -->
<g id="edge31" class="edge">
<title>u17&#45;&gt;u26</title>
<path fill="none" stroke="black" d="M2507.09,-1336.96C2556.21,-1284.17 2705.97,-1123.25 2763.44,-1061.49"/>
<polygon fill="black" stroke="black" points="2766.04,-1063.83 2770.29,-1054.13 2760.92,-1059.06 2766.04,-1063.83"/>
</g>
<!-- u17&#45;&gt;u10 -->
<g id="edge29" class="edge">
<title>u17&#45;&gt;u10</title>
<path fill="none" stroke="black" d="M2482.87,-1336.71C2436.03,-1240.13 2200.29,-758.29 1978.23,-381 1916.91,-276.81 1835.74,-157.93 1800.2,-106.7"/>
<polygon fill="black" stroke="black" points="1802.88,-104.43 1794.3,-98.22 1797.14,-108.43 1802.88,-104.43"/>
</g>
<!-- u17&#45;&gt;u20 -->
<g id="edge30" class="edge">
<title>u17&#45;&gt;u20</title>
<path fill="none" stroke="black" d="M2444.38,-1337.62C2291.35,-1284.14 1806.58,-1114.71 1640.61,-1056.71"/>
<polygon fill="black" stroke="black" points="1641.67,-1053.37 1631.08,-1053.37 1639.36,-1059.98 1641.67,-1053.37"/>
</g>
<!-- u16&#45;&gt;u26 -->
<g id="edge28" class="edge">
<title>u16&#45;&gt;u26</title>
<path fill="none" stroke="black" d="M1740.21,-1337.62C1928.61,-1283.48 2530.5,-1110.5 2724.99,-1054.6"/>
<polygon fill="black" stroke="black" points="2726.12,-1057.92 2734.76,-1051.79 2724.19,-1051.19 2726.12,-1057.92"/>
</g>
<!-- u16&#45;&gt;u3 -->
<g id="edge26" class="edge">
<title>u16&#45;&gt;u3</title>
<path fill="none" stroke="black" d="M1689.36,-1336.71C1705.17,-1291.18 1747.21,-1163.88 1763.23,-1054 1798.36,-813.11 1787.99,-517.2 1783.68,-427.22"/>
<polygon fill="black" stroke="black" points="1787.17,-426.87 1783.18,-417.05 1780.17,-427.21 1787.17,-426.87"/>
</g>
<!-- u16&#45;&gt;u20 -->
<g id="edge27" class="edge">
<title>u16&#45;&gt;u20</title>
<path fill="none" stroke="black" d="M1677.91,-1336.96C1661.63,-1284.82 1612.39,-1127.17 1592.6,-1063.8"/>
<polygon fill="black" stroke="black" points="1595.9,-1062.63 1589.58,-1054.13 1589.22,-1064.72 1595.9,-1062.63"/>
</g>
<!-- u15&#45;&gt;u9 -->
<g id="edge25" class="edge">
<title>u15&#45;&gt;u9</title>
<path fill="none" stroke="black" d="M2006,-1338.92C1724.33,-1286 781.84,-1108.9 487.7,-1053.62"/>
<polygon fill="black" stroke="black" points="487.98,-1050.12 477.51,-1051.71 486.69,-1057 487.98,-1050.12"/>
</g>
<!-- u14&#45;&gt;u26 -->
<g id="edge24" class="edge">
<title>u14&#45;&gt;u26</title>
<path fill="none" stroke="black" d="M3236.98,-1337.18C3157.09,-1283.98 2909.84,-1119.32 2819.62,-1059.23"/>
<polygon fill="black" stroke="black" points="2821.4,-1056.22 2811.14,-1053.59 2817.52,-1062.04 2821.4,-1056.22"/>
</g>
<!-- u14&#45;&gt;u9 -->
<g id="edge23" class="edge">
<title>u14&#45;&gt;u9</title>
<path fill="none" stroke="black" d="M3152.19,-1341.82C2700.2,-1291.77 988.2,-1102.21 518.86,-1050.25"/>
<polygon fill="black" stroke="black" points="519,-1046.74 508.67,-1049.12 518.22,-1053.7 519,-1046.74"/>
</g>
<!-- u13&#45;&gt;u26 -->
<g id="edge22" class="edge">
<title>u13&#45;&gt;u26</title>
<path fill="none" stroke="black" d="M3542.34,-1337.73C3408.05,-1284.32 2980.91,-1114.43 2835.36,-1056.54"/>
<polygon fill="black" stroke="black" points="2836.37,-1053.17 2825.78,-1052.73 2833.78,-1059.68 2836.37,-1053.17"/>
</g>
<!-- u13&#45;&gt;u3 -->
<g id="edge20" class="edge">
<title>u13&#45;&gt;u3</title>
<path fill="none" stroke="black" d="M3551.97,-1337.44C3336.03,-1223.06 2067.18,-550.94 1822.91,-421.55"/>
<polygon fill="black" stroke="black" points="1824.47,-418.41 1814,-416.83 1821.2,-424.6 1824.47,-418.41"/>
</g>
<!-- u13&#45;&gt;u20 -->
<g id="edge21" class="edge">
<title>u13&#45;&gt;u20</title>
<path fill="none" stroke="black" d="M3498.3,-1340.53C3176.27,-1289.46 2031.31,-1107.9 1684.5,-1052.9"/>
<polygon fill="black" stroke="black" points="1684.9,-1049.42 1674.48,-1051.31 1683.81,-1056.33 1684.9,-1049.42"/>
</g>
<!-- u12&#45;&gt;u26 -->
<g id="edge19" class="edge">
<title>u12&#45;&gt;u26</title>
<path fill="none" stroke="black" d="M970.97,-1340.02C1285.29,-1287.55 2392.65,-1102.7 2704.15,-1050.7"/>
<polygon fill="black" stroke="black" points="2704.73,-1054.15 2714.02,-1049.05 2703.58,-1047.25 2704.73,-1054.15"/>
</g>
<!-- u12&#45;&gt;u10 -->
<g id="edge17" class="edge">
<title>u12&#45;&gt;u10</title>
<path fill="none" stroke="black" d="M899.21,-1336.97C995.81,-1199.57 1647.21,-273.05 1764.24,-106.59"/>
<polygon fill="black" stroke="black" points="1767.41,-108.17 1770.3,-97.97 1761.68,-104.14 1767.41,-108.17"/>
</g>
<!-- u12&#45;&gt;u20 -->
<g id="edge18" class="edge">
<title>u12&#45;&gt;u20</title>
<path fill="none" stroke="black" d="M923.72,-1337.4C1041.09,-1284.02 1408.73,-1116.82 1538.4,-1057.84"/>
<polygon fill="black" stroke="black" points="1540.03,-1060.95 1547.68,-1053.62 1537.13,-1054.58 1540.03,-1060.95"/>
</g>
</g>
</svg>
