<?xml version="1.0" encoding="UTF-8" standalone="no"?>
<!DOCTYPE svg PUBLIC "-//W3C//DTD SVG 1.1//EN"
 "http://www.w3.org/Graphics/SVG/1.1/DTD/svg11.dtd">
<!-- Generated by graphviz version 2.43.0 (0)
 -->
<!-- Title: G Pages: 1 -->
<svg width="430pt" height="288pt"
 viewBox="0.00 0.00 430.38 288.00" xmlns="http://www.w3.org/2000/svg" xmlns:xlink="http://www.w3.org/1999/xlink">
<g id="graph0" class="graph" transform="scale(2.05 2.05) rotate(0) translate(4 585.33)">
<title>G</title>
<polygon fill="white" stroke="transparent" points="-4,4 -4,-585.33 876.68,-585.33 876.68,4 -4,4"/>
<!-- u5 -->
<g id="node1" class="node">
<title>u5</title>
<ellipse fill="#bbffbb" stroke="black" cx="413.29" cy="-523" rx="63.89" ry="18"/>
<text text-anchor="middle" x="413.29" y="-519.3" font-family="Times,serif" font-size="14.00">Utils.Drasil</text>
</g>
<!-- u4 -->
<g id="node2" class="node">
<title>u4</title>
<ellipse fill="#ffffbb" stroke="black" cx="92.29" cy="-291" rx="92.08" ry="18"/>
<text text-anchor="middle" x="92.29" y="-287.3" font-family="Times,serif" font-size="14.00">Utils.Drasil.Maps</text>
</g>
<!-- u5&#45;&gt;u4 -->
<g id="edge5" class="edge">
<title>u5&#45;&gt;u4</title>
<path fill="none" stroke="black" d="M390.97,-506.01C334.91,-465.84 188.06,-360.62 123.5,-314.36"/>
<polygon fill="black" stroke="black" points="125.49,-311.48 115.32,-308.5 121.41,-317.17 125.49,-311.48"/>
</g>
<!-- u2 -->
<g id="node4" class="node">
<title>u2</title>
<ellipse fill="#ffffbb" stroke="black" cx="303.29" cy="-291" rx="100.98" ry="18"/>
<text text-anchor="middle" x="303.29" y="-287.3" font-family="Times,serif" font-size="14.00">Utils.Drasil.Strings</text>
</g>
<!-- u5&#45;&gt;u2 -->
<g id="edge4" class="edge">
<title>u5&#45;&gt;u2</title>
<path fill="none" stroke="black" d="M405.2,-505.09C386.22,-465.39 338.69,-366.02 315.89,-318.33"/>
<polygon fill="black" stroke="black" points="319.01,-316.76 311.54,-309.25 312.7,-319.78 319.01,-316.76"/>
</g>
<!-- u1 -->
<g id="node5" class="node">
<title>u1</title>
<ellipse fill="#ffffbb" stroke="black" cx="524.29" cy="-291" rx="102.08" ry="18"/>
<text text-anchor="middle" x="524.29" y="-287.3" font-family="Times,serif" font-size="14.00">Utils.Drasil.English</text>
</g>
<!-- u5&#45;&gt;u1 -->
<g id="edge3" class="edge">
<title>u5&#45;&gt;u1</title>
<path fill="none" stroke="black" d="M421.45,-505.09C440.61,-465.39 488.57,-366.02 511.58,-318.33"/>
<polygon fill="black" stroke="black" points="514.77,-319.78 515.97,-309.25 508.47,-316.73 514.77,-319.78"/>
</g>
<!-- u0 -->
<g id="node6" class="node">
<title>u0</title>
<ellipse fill="#ffffbb" stroke="black" cx="758.29" cy="-291" rx="114.28" ry="18"/>
<text text-anchor="middle" x="758.29" y="-287.3" font-family="Times,serif" font-size="14.00">Utils.Drasil.Document</text>
</g>
<!-- u5&#45;&gt;u0 -->
<g id="edge2" class="edge">
<title>u5&#45;&gt;u0</title>
<path fill="none" stroke="black" d="M437.01,-506.19C497.01,-466.19 655.03,-360.84 724.6,-314.46"/>
<polygon fill="black" stroke="black" points="726.64,-317.31 733.02,-308.85 722.76,-311.48 726.64,-317.31"/>
</g>
<!-- u3 -->
<g id="node3" class="node">
<title>u3</title>
<ellipse fill="#ffffbb" stroke="black" cx="303.29" cy="-58" rx="89.08" ry="18"/>
<text text-anchor="middle" x="303.29" y="-54.3" font-family="Times,serif" font-size="14.00">Utils.Drasil.Lists</text>
</g>
<!-- u2&#45;&gt;u3 -->
<g id="edge1" class="edge">
<title>u2&#45;&gt;u3</title>
<path fill="none" stroke="black" d="M303.29,-272.64C303.29,-232.82 303.29,-134.69 303.29,-86.54"/>
<polygon fill="black" stroke="black" points="306.79,-86.25 303.29,-76.25 299.79,-86.25 306.79,-86.25"/>
</g>
</g>
</svg>
