<?xml version="1.0" encoding="UTF-8" standalone="no"?>
<!DOCTYPE svg PUBLIC "-//W3C//DTD SVG 1.1//EN"
 "http://www.w3.org/Graphics/SVG/1.1/DTD/svg11.dtd">
<!-- Generated by graphviz version 2.43.0 (0)
 -->
<!-- Title: G Pages: 1 -->
<svg width="431pt" height="288pt"
 viewBox="0.00 0.00 431.32 288.00" xmlns="http://www.w3.org/2000/svg" xmlns:xlink="http://www.w3.org/1999/xlink">
<g id="graph0" class="graph" transform="scale(5.04 5.04) rotate(0) translate(4 1446.67)">
<title>G</title>
<polygon fill="white" stroke="transparent" points="-4,4 -4,-1446.67 2168.57,-1446.67 2168.57,4 -4,4"/>
<!-- u7 -->
<g id="node1" class="node">
<title>u7</title>
<ellipse fill="#bbffbb" stroke="black" cx="1682.18" cy="-721" rx="119.68" ry="18"/>
<text text-anchor="middle" x="1682.18" y="-717.3" font-family="Times,serif" font-size="14.00">Language.Drasil.Config</text>
</g>
<!-- u6 -->
<g id="node2" class="node">
<title>u6</title>
<ellipse fill="#bbffbb" stroke="black" cx="976.18" cy="-1408" rx="128.08" ry="18"/>
<text text-anchor="middle" x="976.18" y="-1404.3" font-family="Times,serif" font-size="14.00">Language.Drasil.Printers</text>
</g>
<!-- u4 -->
<g id="node3" class="node">
<title>u4</title>
<ellipse fill="#bbffbb" stroke="black" cx="535.18" cy="-1271" rx="123.48" ry="18"/>
<text text-anchor="middle" x="535.18" y="-1267.3" font-family="Times,serif" font-size="14.00">Language.Drasil.Format</text>
</g>
<!-- u6&#45;&gt;u4 -->
<g id="edge8" class="edge">
<title>u6&#45;&gt;u4</title>
<path fill="none" stroke="black" d="M925.16,-1391.38C843.3,-1366.32 682.94,-1317.23 595.52,-1290.47"/>
<polygon fill="black" stroke="black" points="596.33,-1287.06 585.74,-1287.48 594.28,-1293.75 596.33,-1287.06"/>
</g>
<!-- u9 -->
<g id="node4" class="node">
<title>u9</title>
<ellipse fill="#ffffbb" stroke="black" cx="812.18" cy="-1271" rx="135.68" ry="18"/>
<text text-anchor="middle" x="812.18" y="-1267.3" font-family="Times,serif" font-size="14.00">Language.Drasil.DOT.Print</text>
</g>
<!-- u6&#45;&gt;u9 -->
<g id="edge11" class="edge">
<title>u6&#45;&gt;u9</title>
<path fill="none" stroke="black" d="M955.74,-1390.18C926.69,-1366.26 873.35,-1322.35 840.5,-1295.31"/>
<polygon fill="black" stroke="black" points="842.57,-1292.48 832.62,-1288.82 838.12,-1297.88 842.57,-1292.48"/>
</g>
<!-- u1 -->
<g id="node7" class="node">
<title>u1</title>
<ellipse fill="#bbbbff" stroke="black" cx="1554.18" cy="-1271" rx="144.87" ry="18"/>
<text text-anchor="middle" x="1554.18" y="-1267.3" font-family="Times,serif" font-size="14.00">Language.Drasil.HTML.Print</text>
</g>
<!-- u6&#45;&gt;u1 -->
<g id="edge7" class="edge">
<title>u6&#45;&gt;u1</title>
<path fill="none" stroke="black" d="M1039.14,-1392.3C1146.46,-1367.23 1364.36,-1316.34 1479.31,-1289.49"/>
<polygon fill="black" stroke="black" points="1480.15,-1292.88 1489.09,-1287.2 1478.56,-1286.07 1480.15,-1292.88"/>
</g>
<!-- u8 -->
<g id="node9" class="node">
<title>u8</title>
<ellipse fill="#ffbbbb" stroke="black" cx="1192.18" cy="-1271" rx="188.47" ry="18"/>
<text text-anchor="middle" x="1192.18" y="-1267.3" font-family="Times,serif" font-size="14.00">Language.Drasil.Markdown.CreateMd</text>
</g>
<!-- u6&#45;&gt;u8 -->
<g id="edge10" class="edge">
<title>u6&#45;&gt;u8</title>
<path fill="none" stroke="black" d="M1003.1,-1390.18C1041.85,-1365.96 1113.41,-1321.23 1156.52,-1294.29"/>
<polygon fill="black" stroke="black" points="1158.64,-1297.09 1165.26,-1288.82 1154.93,-1291.16 1158.64,-1297.09"/>
</g>
<!-- u5 -->
<g id="node10" class="node">
<title>u5</title>
<ellipse fill="#bbffff" stroke="black" cx="964.18" cy="-1134" rx="139.98" ry="18"/>
<text text-anchor="middle" x="964.18" y="-1130.3" font-family="Times,serif" font-size="14.00">Language.Drasil.Plain.Print</text>
</g>
<!-- u6&#45;&gt;u5 -->
<g id="edge9" class="edge">
<title>u6&#45;&gt;u5</title>
<path fill="none" stroke="black" d="M975.43,-1389.99C973.41,-1344.19 967.85,-1218.03 965.38,-1162.19"/>
<polygon fill="black" stroke="black" points="968.87,-1161.84 964.93,-1152.01 961.88,-1162.15 968.87,-1161.84"/>
</g>
<!-- u3 -->
<g id="node5" class="node">
<title>u3</title>
<ellipse fill="#bbbbff" stroke="black" cx="1262.18" cy="-1134" rx="140.28" ry="18"/>
<text text-anchor="middle" x="1262.18" y="-1130.3" font-family="Times,serif" font-size="14.00">Language.Drasil.HTML.CSS</text>
</g>
<!-- u2 -->
<g id="node6" class="node">
<title>u2</title>
<ellipse fill="#bbbbff" stroke="black" cx="1760.18" cy="-447" rx="157.87" ry="18"/>
<text text-anchor="middle" x="1760.18" y="-443.3" font-family="Times,serif" font-size="14.00">Language.Drasil.HTML.Helpers</text>
</g>
<!-- u11 -->
<g id="node15" class="node">
<title>u11</title>
<ellipse fill="#ffbbff" stroke="black" cx="1201.18" cy="-34" rx="149.47" ry="18"/>
<text text-anchor="middle" x="1201.18" y="-30.3" font-family="Times,serif" font-size="14.00">Language.Drasil.Printing.AST</text>
</g>
<!-- u2&#45;&gt;u11 -->
<g id="edge5" class="edge">
<title>u2&#45;&gt;u11</title>
<path fill="none" stroke="black" d="M1737.23,-429.12C1649.19,-364.39 1333.04,-131.95 1232.27,-57.86"/>
<polygon fill="black" stroke="black" points="1234.15,-54.9 1224.02,-51.79 1230,-60.54 1234.15,-54.9"/>
</g>
<!-- u1&#45;&gt;u3 -->
<g id="edge3" class="edge">
<title>u1&#45;&gt;u3</title>
<path fill="none" stroke="black" d="M1518.38,-1253.45C1465.15,-1228.84 1365.19,-1182.62 1307.12,-1155.77"/>
<polygon fill="black" stroke="black" points="1308.37,-1152.5 1297.82,-1151.48 1305.43,-1158.85 1308.37,-1152.5"/>
</g>
<!-- u1&#45;&gt;u2 -->
<g id="edge2" class="edge">
<title>u1&#45;&gt;u2</title>
<path fill="none" stroke="black" d="M1593.14,-1253.54C1669.22,-1218.49 1830.18,-1128.76 1830.18,-997 1830.18,-997 1830.18,-997 1830.18,-720 1830.18,-627.36 1791.63,-522.42 1771.75,-474.45"/>
<polygon fill="black" stroke="black" points="1774.92,-472.96 1767.81,-465.11 1768.47,-475.68 1774.92,-472.96"/>
</g>
<!-- u0 -->
<g id="node8" class="node">
<title>u0</title>
<ellipse fill="#bbbbff" stroke="black" cx="2011.18" cy="-1134" rx="153.27" ry="18"/>
<text text-anchor="middle" x="2011.18" y="-1130.3" font-family="Times,serif" font-size="14.00">Language.Drasil.HTML.Monad</text>
</g>
<!-- u1&#45;&gt;u0 -->
<g id="edge1" class="edge">
<title>u1&#45;&gt;u0</title>
<path fill="none" stroke="black" d="M1607.5,-1254.25C1692.12,-1229.25 1856.86,-1180.59 1947.53,-1153.8"/>
<polygon fill="black" stroke="black" points="1948.54,-1157.15 1957.14,-1150.96 1946.56,-1150.44 1948.54,-1157.15"/>
</g>
<!-- u26 -->
<g id="node26" class="node">
<title>u26</title>
<ellipse fill="#ffff77" stroke="black" cx="1554.18" cy="-1134" rx="133.48" ry="18"/>
<text text-anchor="middle" x="1554.18" y="-1130.3" font-family="Times,serif" font-size="14.00">Language.Drasil.TeX.Print</text>
</g>
<!-- u1&#45;&gt;u26 -->
<g id="edge4" class="edge">
<title>u1&#45;&gt;u26</title>
<path fill="none" stroke="black" d="M1554.18,-1252.9C1554.18,-1230.1 1554.18,-1189.48 1554.18,-1162.39"/>
<polygon fill="black" stroke="black" points="1557.68,-1162.39 1554.18,-1152.39 1550.68,-1162.39 1557.68,-1162.39"/>
</g>
<!-- u13 -->
<g id="node13" class="node">
<title>u13</title>
<ellipse fill="#ffbbff" stroke="black" cx="964.18" cy="-996" rx="162.47" ry="18"/>
<text text-anchor="middle" x="964.18" y="-992.3" font-family="Times,serif" font-size="14.00">Language.Drasil.Printing.Import</text>
</g>
<!-- u5&#45;&gt;u13 -->
<g id="edge6" class="edge">
<title>u5&#45;&gt;u13</title>
<path fill="none" stroke="black" d="M964.18,-1115.78C964.18,-1092.68 964.18,-1051.43 964.18,-1024.14"/>
<polygon fill="black" stroke="black" points="967.68,-1024.08 964.18,-1014.08 960.68,-1024.08 967.68,-1024.08"/>
</g>
<!-- u23 -->
<g id="node11" class="node">
<title>u23</title>
<ellipse fill="#ffbbff" stroke="black" cx="1065.18" cy="-721" rx="178.97" ry="18"/>
<text text-anchor="middle" x="1065.18" y="-717.3" font-family="Times,serif" font-size="14.00">Language.Drasil.Printing.LayoutObj</text>
</g>
<!-- u10 -->
<g id="node16" class="node">
<title>u10</title>
<ellipse fill="#ffbbff" stroke="black" cx="1206.18" cy="-447" rx="167.87" ry="18"/>
<text text-anchor="middle" x="1206.18" y="-443.3" font-family="Times,serif" font-size="14.00">Language.Drasil.Printing.Citation</text>
</g>
<!-- u23&#45;&gt;u10 -->
<g id="edge28" class="edge">
<title>u23&#45;&gt;u10</title>
<path fill="none" stroke="black" d="M1074,-702.99C1097.89,-656.9 1163.96,-529.45 1192.62,-474.15"/>
<polygon fill="black" stroke="black" points="1195.87,-475.5 1197.37,-465.01 1189.66,-472.28 1195.87,-475.5"/>
</g>
<!-- u22 -->
<g id="node12" class="node">
<title>u22</title>
<ellipse fill="#ffbbff" stroke="black" cx="1403.18" cy="-584" rx="167.07" ry="18"/>
<text text-anchor="middle" x="1403.18" y="-580.3" font-family="Times,serif" font-size="14.00">Language.Drasil.Printing.Helpers</text>
</g>
<!-- u19 -->
<g id="node19" class="node">
<title>u19</title>
<ellipse fill="#77ff77" stroke="black" cx="964.18" cy="-859" rx="212.56" ry="18"/>
<text text-anchor="middle" x="964.18" y="-855.3" font-family="Times,serif" font-size="14.00">Language.Drasil.Printing.Import.Document</text>
</g>
<!-- u13&#45;&gt;u19 -->
<g id="edge14" class="edge">
<title>u13&#45;&gt;u19</title>
<path fill="none" stroke="black" d="M964.18,-977.9C964.18,-955.1 964.18,-914.48 964.18,-887.39"/>
<polygon fill="black" stroke="black" points="967.68,-887.39 964.18,-877.39 960.68,-887.39 967.68,-887.39"/>
</g>
<!-- u14 -->
<g id="node24" class="node">
<title>u14</title>
<ellipse fill="#77ff77" stroke="black" cx="334.18" cy="-309" rx="211.46" ry="18"/>
<text text-anchor="middle" x="334.18" y="-305.3" font-family="Times,serif" font-size="14.00">Language.Drasil.Printing.Import.CodeExpr</text>
</g>
<!-- u13&#45;&gt;u14 -->
<g id="edge13" class="edge">
<title>u13&#45;&gt;u14</title>
<path fill="none" stroke="black" d="M817.69,-988.15C645.29,-971.29 382.18,-914.1 382.18,-722 382.18,-722 382.18,-722 382.18,-583 382.18,-491.54 355.73,-385.41 342.1,-336.81"/>
<polygon fill="black" stroke="black" points="345.43,-335.72 339.32,-327.06 338.7,-337.64 345.43,-335.72"/>
</g>
<!-- u12 -->
<g id="node14" class="node">
<title>u12</title>
<ellipse fill="#ffbbff" stroke="black" cx="642.18" cy="-172" rx="223.66" ry="18"/>
<text text-anchor="middle" x="642.18" y="-168.3" font-family="Times,serif" font-size="14.00">Language.Drasil.Printing.PrintingInformation</text>
</g>
<!-- u10&#45;&gt;u11 -->
<g id="edge12" class="edge">
<title>u10&#45;&gt;u11</title>
<path fill="none" stroke="black" d="M1219.41,-428.74C1252.48,-383.37 1333.6,-257.14 1297.18,-154 1283.68,-115.77 1252.12,-80.8 1228.85,-58.81"/>
<polygon fill="black" stroke="black" points="1231.04,-56.06 1221.32,-51.86 1226.3,-61.21 1231.04,-56.06"/>
</g>
<!-- u21 -->
<g id="node17" class="node">
<title>u21</title>
<ellipse fill="#77ff77" stroke="black" cx="1086.18" cy="-172" rx="202.26" ry="18"/>
<text text-anchor="middle" x="1086.18" y="-168.3" font-family="Times,serif" font-size="14.00">Language.Drasil.Printing.Import.Helpers</text>
</g>
<!-- u21&#45;&gt;u11 -->
<g id="edge27" class="edge">
<title>u21&#45;&gt;u11</title>
<path fill="none" stroke="black" d="M1100.75,-153.78C1120.79,-130.07 1157.02,-87.23 1180.05,-60"/>
<polygon fill="black" stroke="black" points="1182.95,-61.98 1186.74,-52.08 1177.61,-57.46 1182.95,-61.98"/>
</g>
<!-- u20 -->
<g id="node18" class="node">
<title>u20</title>
<ellipse fill="#77ff77" stroke="black" cx="751.18" cy="-309" rx="187.67" ry="18"/>
<text text-anchor="middle" x="751.18" y="-305.3" font-family="Times,serif" font-size="14.00">Language.Drasil.Printing.Import.Expr</text>
</g>
<!-- u20&#45;&gt;u12 -->
<g id="edge24" class="edge">
<title>u20&#45;&gt;u12</title>
<path fill="none" stroke="black" d="M737.38,-290.9C718.48,-267.5 684.42,-225.31 662.58,-198.26"/>
<polygon fill="black" stroke="black" points="665.22,-195.97 656.22,-190.39 659.78,-200.36 665.22,-195.97"/>
</g>
<!-- u20&#45;&gt;u21 -->
<g id="edge26" class="edge">
<title>u20&#45;&gt;u21</title>
<path fill="none" stroke="black" d="M792.6,-291.31C854,-266.57 969.05,-220.2 1035.43,-193.45"/>
<polygon fill="black" stroke="black" points="1036.9,-196.64 1044.86,-189.65 1034.28,-190.14 1036.9,-196.64"/>
</g>
<!-- u16 -->
<g id="node22" class="node">
<title>u16</title>
<ellipse fill="#77ff77" stroke="black" cx="200.18" cy="-172" rx="200.36" ry="18"/>
<text text-anchor="middle" x="200.18" y="-168.3" font-family="Times,serif" font-size="14.00">Language.Drasil.Printing.Import.Symbol</text>
</g>
<!-- u20&#45;&gt;u16 -->
<g id="edge25" class="edge">
<title>u20&#45;&gt;u16</title>
<path fill="none" stroke="black" d="M686.08,-292.05C583.36,-266.88 384.18,-218.08 275.45,-191.44"/>
<polygon fill="black" stroke="black" points="276.09,-187.99 265.54,-189.01 274.42,-194.79 276.09,-187.99"/>
</g>
<!-- u19&#45;&gt;u23 -->
<g id="edge23" class="edge">
<title>u19&#45;&gt;u23</title>
<path fill="none" stroke="black" d="M976.97,-840.78C994.5,-817.17 1026.12,-774.6 1046.36,-747.35"/>
<polygon fill="black" stroke="black" points="1049.34,-749.2 1052.49,-739.08 1043.72,-745.03 1049.34,-749.2"/>
</g>
<!-- u18 -->
<g id="node20" class="node">
<title>u18</title>
<ellipse fill="#77ff77" stroke="black" cx="660.18" cy="-721" rx="207.96" ry="18"/>
<text text-anchor="middle" x="660.18" y="-717.3" font-family="Times,serif" font-size="14.00">Language.Drasil.Printing.Import.Sentence</text>
</g>
<!-- u19&#45;&gt;u18 -->
<g id="edge22" class="edge">
<title>u19&#45;&gt;u18</title>
<path fill="none" stroke="black" d="M926.6,-841.19C871.11,-816.36 767.33,-769.93 706.98,-742.93"/>
<polygon fill="black" stroke="black" points="708.24,-739.66 697.68,-738.77 705.38,-746.05 708.24,-739.66"/>
</g>
<!-- u15 -->
<g id="node23" class="node">
<title>u15</title>
<ellipse fill="#77ff77" stroke="black" cx="702.18" cy="-584" rx="222.06" ry="18"/>
<text text-anchor="middle" x="702.18" y="-580.3" font-family="Times,serif" font-size="14.00">Language.Drasil.Printing.Import.DisplayExpr</text>
</g>
<!-- u18&#45;&gt;u15 -->
<g id="edge21" class="edge">
<title>u18&#45;&gt;u15</title>
<path fill="none" stroke="black" d="M665.5,-702.9C672.63,-680 685.35,-639.12 693.77,-612.03"/>
<polygon fill="black" stroke="black" points="697.14,-612.97 696.77,-602.39 690.46,-610.89 697.14,-612.97"/>
</g>
<!-- u17 -->
<g id="node21" class="node">
<title>u17</title>
<ellipse fill="#77ff77" stroke="black" cx="726.18" cy="-447" rx="193.07" ry="18"/>
<text text-anchor="middle" x="726.18" y="-443.3" font-family="Times,serif" font-size="14.00">Language.Drasil.Printing.Import.Space</text>
</g>
<!-- u17&#45;&gt;u20 -->
<g id="edge20" class="edge">
<title>u17&#45;&gt;u20</title>
<path fill="none" stroke="black" d="M729.35,-428.78C733.59,-405.68 741.18,-364.43 746.19,-337.14"/>
<polygon fill="black" stroke="black" points="749.68,-337.55 748.04,-327.08 742.79,-336.29 749.68,-337.55"/>
</g>
<!-- u16&#45;&gt;u11 -->
<g id="edge19" class="edge">
<title>u16&#45;&gt;u11</title>
<path fill="none" stroke="black" d="M305.89,-156.64C498.32,-130.49 903.65,-75.42 1095.82,-49.31"/>
<polygon fill="black" stroke="black" points="1096.49,-52.76 1105.93,-47.94 1095.55,-45.82 1096.49,-52.76"/>
</g>
<!-- u15&#45;&gt;u17 -->
<g id="edge18" class="edge">
<title>u15&#45;&gt;u17</title>
<path fill="none" stroke="black" d="M705.22,-565.9C709.28,-543.1 716.5,-502.48 721.31,-475.39"/>
<polygon fill="black" stroke="black" points="724.79,-475.84 723.09,-465.39 717.9,-474.62 724.79,-475.84"/>
</g>
<!-- u14&#45;&gt;u12 -->
<g id="edge15" class="edge">
<title>u14&#45;&gt;u12</title>
<path fill="none" stroke="black" d="M372.57,-291.18C428.74,-266.55 533.29,-220.73 594.38,-193.95"/>
<polygon fill="black" stroke="black" points="596.04,-197.04 603.8,-189.82 593.23,-190.63 596.04,-197.04"/>
</g>
<!-- u14&#45;&gt;u21 -->
<g id="edge17" class="edge">
<title>u14&#45;&gt;u21</title>
<path fill="none" stroke="black" d="M420.45,-292.51C562.15,-267.07 843.17,-216.63 990.68,-190.14"/>
<polygon fill="black" stroke="black" points="991.41,-193.57 1000.64,-188.36 990.18,-186.68 991.41,-193.57"/>
</g>
<!-- u14&#45;&gt;u16 -->
<g id="edge16" class="edge">
<title>u14&#45;&gt;u16</title>
<path fill="none" stroke="black" d="M317.21,-290.9C293.65,-267.17 250.91,-224.11 224.12,-197.12"/>
<polygon fill="black" stroke="black" points="226.54,-194.59 217.02,-189.96 221.58,-199.52 226.54,-194.59"/>
</g>
<!-- u27 -->
<g id="node25" class="node">
<title>u27</title>
<ellipse fill="#ffff77" stroke="black" cx="1505.18" cy="-859" rx="146.47" ry="18"/>
<text text-anchor="middle" x="1505.18" y="-855.3" font-family="Times,serif" font-size="14.00">Language.Drasil.TeX.Helpers</text>
</g>
<!-- u27&#45;&gt;u7 -->
<g id="edge34" class="edge">
<title>u27&#45;&gt;u7</title>
<path fill="none" stroke="black" d="M1527.24,-841.05C1558.81,-816.79 1616.97,-772.11 1652.36,-744.92"/>
<polygon fill="black" stroke="black" points="1654.6,-747.6 1660.4,-738.74 1650.34,-742.05 1654.6,-747.6"/>
</g>
<!-- u25 -->
<g id="node27" class="node">
<title>u25</title>
<ellipse fill="#ffff77" stroke="black" cx="1403.18" cy="-721" rx="141.88" ry="18"/>
<text text-anchor="middle" x="1403.18" y="-717.3" font-family="Times,serif" font-size="14.00">Language.Drasil.TeX.Monad</text>
</g>
<!-- u27&#45;&gt;u25 -->
<g id="edge35" class="edge">
<title>u27&#45;&gt;u25</title>
<path fill="none" stroke="black" d="M1492.47,-841.05C1474.83,-817.53 1442.8,-774.82 1422.28,-747.46"/>
<polygon fill="black" stroke="black" points="1424.85,-745.06 1416.05,-739.16 1419.25,-749.26 1424.85,-745.06"/>
</g>
<!-- u26&#45;&gt;u13 -->
<g id="edge32" class="edge">
<title>u26&#45;&gt;u13</title>
<path fill="none" stroke="black" d="M1489.92,-1118.19C1380.51,-1092.97 1158.53,-1041.8 1041.07,-1014.72"/>
<polygon fill="black" stroke="black" points="1041.61,-1011.26 1031.08,-1012.42 1040.03,-1018.08 1041.61,-1011.26"/>
</g>
<!-- u24 -->
<g id="node28" class="node">
<title>u24</title>
<ellipse fill="#ffff77" stroke="black" cx="1505.18" cy="-996" rx="154.07" ry="18"/>
<text text-anchor="middle" x="1505.18" y="-992.3" font-family="Times,serif" font-size="14.00">Language.Drasil.TeX.Preamble</text>
</g>
<!-- u26&#45;&gt;u24 -->
<g id="edge33" class="edge">
<title>u26&#45;&gt;u24</title>
<path fill="none" stroke="black" d="M1547.98,-1115.78C1539.62,-1092.58 1524.66,-1051.07 1514.83,-1023.78"/>
<polygon fill="black" stroke="black" points="1518.02,-1022.31 1511.34,-1014.08 1511.43,-1024.68 1518.02,-1022.31"/>
</g>
<!-- u25&#45;&gt;u22 -->
<g id="edge31" class="edge">
<title>u25&#45;&gt;u22</title>
<path fill="none" stroke="black" d="M1403.18,-702.9C1403.18,-680.1 1403.18,-639.48 1403.18,-612.39"/>
<polygon fill="black" stroke="black" points="1406.68,-612.39 1403.18,-602.39 1399.68,-612.39 1406.68,-612.39"/>
</g>
<!-- u24&#45;&gt;u23 -->
<g id="edge29" class="edge">
<title>u24&#45;&gt;u23</title>
<path fill="none" stroke="black" d="M1477.99,-978.13C1401.9,-930.92 1186.78,-797.45 1101.08,-744.27"/>
<polygon fill="black" stroke="black" points="1102.82,-741.23 1092.47,-738.93 1099.13,-747.18 1102.82,-741.23"/>
</g>
<!-- u24&#45;&gt;u27 -->
<g id="edge30" class="edge">
<title>u24&#45;&gt;u27</title>
<path fill="none" stroke="black" d="M1505.18,-977.9C1505.18,-955.1 1505.18,-914.48 1505.18,-887.39"/>
<polygon fill="black" stroke="black" points="1508.68,-887.39 1505.18,-877.39 1501.68,-887.39 1508.68,-887.39"/>
</g>
</g>
</svg>
