<?xml version="1.0" encoding="UTF-8" standalone="no"?>
<!DOCTYPE svg PUBLIC "-//W3C//DTD SVG 1.1//EN"
 "http://www.w3.org/Graphics/SVG/1.1/DTD/svg11.dtd">
<!-- Generated by graphviz version 2.43.0 (0)
 -->
<!-- Title: G Pages: 1 -->
<svg width="432pt" height="287pt"
 viewBox="0.00 0.00 432.00 286.90" xmlns="http://www.w3.org/2000/svg" xmlns:xlink="http://www.w3.org/1999/xlink">
<g id="graph0" class="graph" transform="scale(0.07 0.07) rotate(0) translate(4 4242)">
<title>G</title>
<polygon fill="white" stroke="transparent" points="-4,4 -4,-4242 6389.39,-4242 6389.39,4 -4,4"/>
<!-- u4 -->
<g id="node1" class="node">
<title>u4</title>
<ellipse fill="#bbffbb" stroke="black" cx="62.39" cy="-3917" rx="62.29" ry="18"/>
<text text-anchor="middle" x="62.39" y="-3913.3" font-family="Times,serif" font-size="14.00">HelloWorld</text>
</g>
<!-- u1 -->
<g id="node4" class="node">
<title>u1</title>
<ellipse fill="#bbffbb" stroke="black" cx="62.39" cy="-3660" rx="42.49" ry="18"/>
<text text-anchor="middle" x="62.39" y="-3656.3" font-family="Times,serif" font-size="14.00">Helper</text>
</g>
<!-- u4&#45;&gt;u1 -->
<g id="edge1" class="edge">
<title>u4&#45;&gt;u1</title>
<path fill="none" stroke="black" d="M62.39,-3898.87C62.39,-3855.5 62.39,-3741.06 62.39,-3688.32"/>
<polygon fill="black" stroke="black" points="65.89,-3688.05 62.39,-3678.05 58.89,-3688.05 65.89,-3688.05"/>
</g>
<!-- u3 -->
<g id="node2" class="node">
<title>u3</title>
<ellipse fill="#bbffbb" stroke="black" cx="202.39" cy="-3917" rx="59.59" ry="18"/>
<text text-anchor="middle" x="202.39" y="-3913.3" font-family="Times,serif" font-size="14.00">VectorTest</text>
</g>
<!-- u2 -->
<g id="node3" class="node">
<title>u2</title>
<ellipse fill="#bbffbb" stroke="black" cx="356.39" cy="-3917" rx="76.09" ry="18"/>
<text text-anchor="middle" x="356.39" y="-3913.3" font-family="Times,serif" font-size="14.00">NameGenTest</text>
</g>
<!-- u0 -->
<g id="node5" class="node">
<title>u0</title>
<ellipse fill="#bbffbb" stroke="black" cx="503.39" cy="-3917" rx="52.79" ry="18"/>
<text text-anchor="middle" x="503.39" y="-3913.3" font-family="Times,serif" font-size="14.00">FileTests</text>
</g>
<!-- u8 -->
<g id="node6" class="node">
<title>u8</title>
<ellipse fill="#ffffbb" stroke="black" cx="5261.39" cy="-1605" rx="214.46" ry="18"/>
<text text-anchor="middle" x="5261.39" y="-1601.3" font-family="Times,serif" font-size="14.00">Data.Drasil.ExternalLibraries.ODELibraries</text>
</g>
<!-- u9 -->
<g id="node59" class="node">
<title>u9</title>
<ellipse fill="#ff77ff" stroke="black" cx="5259.39" cy="-1348" rx="172.77" ry="18"/>
<text text-anchor="middle" x="5259.39" y="-1344.3" font-family="Times,serif" font-size="14.00">Language.Drasil.Data.ODELibPckg</text>
</g>
<!-- u8&#45;&gt;u9 -->
<g id="edge10" class="edge">
<title>u8&#45;&gt;u9</title>
<path fill="none" stroke="black" d="M5261.26,-1586.87C5260.92,-1543.5 5260.02,-1429.06 5259.61,-1376.32"/>
<polygon fill="black" stroke="black" points="5263.11,-1376.02 5259.53,-1366.05 5256.11,-1376.08 5263.11,-1376.02"/>
</g>
<!-- u7 -->
<g id="node7" class="node">
<title>u7</title>
<ellipse fill="#bbbbff" stroke="black" cx="669.39" cy="-3917" rx="95.58" ry="18"/>
<text text-anchor="middle" x="669.39" y="-3913.3" font-family="Times,serif" font-size="14.00">GOOL.PatternTest</text>
</g>
<!-- u6 -->
<g id="node8" class="node">
<title>u6</title>
<ellipse fill="#bbbbff" stroke="black" cx="438.39" cy="-3660" rx="84.49" ry="18"/>
<text text-anchor="middle" x="438.39" y="-3656.3" font-family="Times,serif" font-size="14.00">GOOL.Observer</text>
</g>
<!-- u7&#45;&gt;u6 -->
<g id="edge9" class="edge">
<title>u7&#45;&gt;u6</title>
<path fill="none" stroke="black" d="M653.88,-3898.87C613.84,-3854.67 506.92,-3736.64 460.46,-3685.36"/>
<polygon fill="black" stroke="black" points="462.85,-3682.78 453.54,-3677.72 457.66,-3687.48 462.85,-3682.78"/>
</g>
<!-- u59 -->
<g id="node9" class="node">
<title>u59</title>
<ellipse fill="#ffbbbb" stroke="black" cx="896.39" cy="-3917" rx="113.18" ry="18"/>
<text text-anchor="middle" x="896.39" y="-3913.3" font-family="Times,serif" font-size="14.00">Language.Drasil.Code</text>
</g>
<!-- u51 -->
<g id="node31" class="node">
<title>u51</title>
<ellipse fill="#77ff77" stroke="black" cx="5335.39" cy="-3660" rx="217.16" ry="18"/>
<text text-anchor="middle" x="5335.39" y="-3656.3" font-family="Times,serif" font-size="14.00">Language.Drasil.Code.Imperative.Generator</text>
</g>
<!-- u59&#45;&gt;u51 -->
<g id="edge87" class="edge">
<title>u59&#45;&gt;u51</title>
<path fill="none" stroke="black" d="M1000.66,-3910.01C1579.97,-3876.73 4403.33,-3714.54 5152.57,-3671.5"/>
<polygon fill="black" stroke="black" points="5152.86,-3674.99 5162.64,-3670.92 5152.46,-3668 5152.86,-3674.99"/>
</g>
<!-- u35 -->
<g id="node36" class="node">
<title>u35</title>
<ellipse fill="#77ff77" stroke="black" cx="2198.39" cy="-1348" rx="217.96" ry="18"/>
<text text-anchor="middle" x="2198.39" y="-1344.3" font-family="Times,serif" font-size="14.00">Language.Drasil.Code.Imperative.ReadInput</text>
</g>
<!-- u59&#45;&gt;u35 -->
<g id="edge86" class="edge">
<title>u59&#45;&gt;u35</title>
<path fill="none" stroke="black" d="M873.42,-3899.18C796.15,-3840.44 550.39,-3635.46 550.39,-3404 550.39,-3404 550.39,-3404 550.39,-1861 550.39,-1548.38 1645.57,-1405.21 2050.35,-1362.96"/>
<polygon fill="black" stroke="black" points="2050.78,-1366.44 2060.37,-1361.93 2050.06,-1359.48 2050.78,-1366.44"/>
</g>
<!-- u58 -->
<g id="node10" class="node">
<title>u58</title>
<ellipse fill="#ffbbbb" stroke="black" cx="5119.39" cy="-1862" rx="126.18" ry="18"/>
<text text-anchor="middle" x="5119.39" y="-1858.3" font-family="Times,serif" font-size="14.00">Language.Drasil.Choices</text>
</g>
<!-- u58&#45;&gt;u8 -->
<g id="edge84" class="edge">
<title>u58&#45;&gt;u8</title>
<path fill="none" stroke="black" d="M5128.93,-1843.87C5153.28,-1800.14 5217.88,-1684.14 5246.91,-1632.01"/>
<polygon fill="black" stroke="black" points="5250.09,-1633.49 5251.9,-1623.05 5243.98,-1630.09 5250.09,-1633.49"/>
</g>
<!-- u54 -->
<g id="node22" class="node">
<title>u54</title>
<ellipse fill="#ffbbff" stroke="black" cx="4852.39" cy="-1605" rx="176.57" ry="18"/>
<text text-anchor="middle" x="4852.39" y="-1601.3" font-family="Times,serif" font-size="14.00">Language.Drasil.Code.PackageFiles</text>
</g>
<!-- u58&#45;&gt;u54 -->
<g id="edge85" class="edge">
<title>u58&#45;&gt;u54</title>
<path fill="none" stroke="black" d="M5101.46,-1843.87C5055.1,-1799.6 4931.18,-1681.24 4877.62,-1630.09"/>
<polygon fill="black" stroke="black" points="4879.9,-1627.43 4870.25,-1623.05 4875.06,-1632.49 4879.9,-1627.43"/>
</g>
<!-- u57 -->
<g id="node11" class="node">
<title>u57</title>
<ellipse fill="#ffbbbb" stroke="black" cx="2393.39" cy="-3403" rx="117.78" ry="18"/>
<text text-anchor="middle" x="2393.39" y="-3399.3" font-family="Times,serif" font-size="14.00">Language.Drasil.GOOL</text>
</g>
<!-- u48 -->
<g id="node52" class="node">
<title>u48</title>
<ellipse fill="#77ffff" stroke="black" cx="1663.39" cy="-3146" rx="358.54" ry="18"/>
<text text-anchor="middle" x="1663.39" y="-3142.3" font-family="Times,serif" font-size="14.00">Language.Drasil.Code.Imperative.GOOL.LanguageRenderer.SwiftRenderer</text>
</g>
<!-- u57&#45;&gt;u48 -->
<g id="edge83" class="edge">
<title>u57&#45;&gt;u48</title>
<path fill="none" stroke="black" d="M2348.55,-3386.34C2222.23,-3342.21 1863.42,-3216.87 1721.86,-3167.42"/>
<polygon fill="black" stroke="black" points="1722.64,-3163.99 1712.05,-3163.99 1720.33,-3170.6 1722.64,-3163.99"/>
</g>
<!-- u47 -->
<g id="node53" class="node">
<title>u47</title>
<ellipse fill="#77ffff" stroke="black" cx="2393.39" cy="-3146" rx="352.84" ry="18"/>
<text text-anchor="middle" x="2393.39" y="-3142.3" font-family="Times,serif" font-size="14.00">Language.Drasil.Code.Imperative.GOOL.LanguageRenderer.CppRenderer</text>
</g>
<!-- u57&#45;&gt;u47 -->
<g id="edge82" class="edge">
<title>u57&#45;&gt;u47</title>
<path fill="none" stroke="black" d="M2393.39,-3384.87C2393.39,-3341.5 2393.39,-3227.06 2393.39,-3174.32"/>
<polygon fill="black" stroke="black" points="2396.89,-3174.05 2393.39,-3164.05 2389.89,-3174.05 2396.89,-3174.05"/>
</g>
<!-- u46 -->
<g id="node54" class="node">
<title>u46</title>
<ellipse fill="#77ffff" stroke="black" cx="3133.39" cy="-3146" rx="369.33" ry="18"/>
<text text-anchor="middle" x="3133.39" y="-3142.3" font-family="Times,serif" font-size="14.00">Language.Drasil.Code.Imperative.GOOL.LanguageRenderer.CSharpRenderer</text>
</g>
<!-- u57&#45;&gt;u46 -->
<g id="edge81" class="edge">
<title>u57&#45;&gt;u46</title>
<path fill="none" stroke="black" d="M2438.85,-3386.34C2567.03,-3342.17 2931.36,-3216.62 3074.56,-3167.27"/>
<polygon fill="black" stroke="black" points="3075.76,-3170.56 3084.08,-3163.99 3073.48,-3163.94 3075.76,-3170.56"/>
</g>
<!-- u45 -->
<g id="node55" class="node">
<title>u45</title>
<ellipse fill="#77ffff" stroke="black" cx="3875.39" cy="-3146" rx="354.74" ry="18"/>
<text text-anchor="middle" x="3875.39" y="-3142.3" font-family="Times,serif" font-size="14.00">Language.Drasil.Code.Imperative.GOOL.LanguageRenderer.JuliaRenderer</text>
</g>
<!-- u57&#45;&gt;u45 -->
<g id="edge80" class="edge">
<title>u57&#45;&gt;u45</title>
<path fill="none" stroke="black" d="M2468.41,-3389.09C2712.94,-3347.02 3487.44,-3213.75 3770.49,-3165.05"/>
<polygon fill="black" stroke="black" points="3771.09,-3168.5 3780.36,-3163.35 3769.91,-3161.6 3771.09,-3168.5"/>
</g>
<!-- u44 -->
<g id="node56" class="node">
<title>u44</title>
<ellipse fill="#77ffff" stroke="black" cx="4615.39" cy="-3146" rx="367.43" ry="18"/>
<text text-anchor="middle" x="4615.39" y="-3142.3" font-family="Times,serif" font-size="14.00">Language.Drasil.Code.Imperative.GOOL.LanguageRenderer.PythonRenderer</text>
</g>
<!-- u57&#45;&gt;u44 -->
<g id="edge79" class="edge">
<title>u57&#45;&gt;u44</title>
<path fill="none" stroke="black" d="M2484.29,-3391.57C2827.16,-3352.22 4044.08,-3212.56 4468.27,-3163.88"/>
<polygon fill="black" stroke="black" points="4468.91,-3167.33 4478.45,-3162.72 4468.11,-3160.38 4468.91,-3167.33"/>
</g>
<!-- u43 -->
<g id="node57" class="node">
<title>u43</title>
<ellipse fill="#77ffff" stroke="black" cx="932.39" cy="-3146" rx="354.44" ry="18"/>
<text text-anchor="middle" x="932.39" y="-3142.3" font-family="Times,serif" font-size="14.00">Language.Drasil.Code.Imperative.GOOL.LanguageRenderer.JavaRenderer</text>
</g>
<!-- u57&#45;&gt;u43 -->
<g id="edge78" class="edge">
<title>u57&#45;&gt;u43</title>
<path fill="none" stroke="black" d="M2318.93,-3389C2077.55,-3346.87 1316.12,-3213.97 1036.61,-3165.19"/>
<polygon fill="black" stroke="black" points="1036.92,-3161.69 1026.47,-3163.42 1035.72,-3168.59 1036.92,-3161.69"/>
</g>
<!-- u56 -->
<g id="node12" class="node">
<title>u56</title>
<ellipse fill="#ffbbbb" stroke="black" cx="5111.39" cy="-2119" rx="135.68" ry="18"/>
<text text-anchor="middle" x="5111.39" y="-2115.3" font-family="Times,serif" font-size="14.00">Language.Drasil.CodeSpec</text>
</g>
<!-- u56&#45;&gt;u58 -->
<g id="edge77" class="edge">
<title>u56&#45;&gt;u58</title>
<path fill="none" stroke="black" d="M5111.93,-2100.87C5113.29,-2057.5 5116.88,-1943.06 5118.54,-1890.32"/>
<polygon fill="black" stroke="black" points="5122.04,-1890.16 5118.86,-1880.05 5115.05,-1889.94 5122.04,-1890.16"/>
</g>
<!-- u12 -->
<g id="node13" class="node">
<title>u12</title>
<ellipse fill="#ffbbbb" stroke="black" cx="5479.39" cy="-1862" rx="178.17" ry="18"/>
<text text-anchor="middle" x="5479.39" y="-1858.3" font-family="Times,serif" font-size="14.00">Language.Drasil.ICOSolutionSearch</text>
</g>
<!-- u56&#45;&gt;u12 -->
<g id="edge75" class="edge">
<title>u56&#45;&gt;u12</title>
<path fill="none" stroke="black" d="M5135.54,-2101.27C5199.46,-2056.98 5373.18,-1936.6 5446.28,-1885.95"/>
<polygon fill="black" stroke="black" points="5448.45,-1888.7 5454.68,-1880.13 5444.46,-1882.95 5448.45,-1888.7"/>
</g>
<!-- u14 -->
<g id="node19" class="node">
<title>u14</title>
<ellipse fill="#bbffff" stroke="black" cx="4783.39" cy="-1862" rx="192.27" ry="18"/>
<text text-anchor="middle" x="4783.39" y="-1858.3" font-family="Times,serif" font-size="14.00">Language.Drasil.Chunk.ConstraintMap</text>
</g>
<!-- u56&#45;&gt;u14 -->
<g id="edge76" class="edge">
<title>u56&#45;&gt;u14</title>
<path fill="none" stroke="black" d="M5089.62,-2101.07C5032.66,-2056.79 4879.12,-1937.42 4813.65,-1886.52"/>
<polygon fill="black" stroke="black" points="4815.42,-1883.46 4805.38,-1880.09 4811.12,-1888.99 4815.42,-1883.46"/>
</g>
<!-- u16 -->
<g id="node17" class="node">
<title>u16</title>
<ellipse fill="#bbffff" stroke="black" cx="5685.39" cy="-1605" rx="191.17" ry="18"/>
<text text-anchor="middle" x="5685.39" y="-1601.3" font-family="Times,serif" font-size="14.00">Language.Drasil.Chunk.CodeDefinition</text>
</g>
<!-- u12&#45;&gt;u16 -->
<g id="edge18" class="edge">
<title>u12&#45;&gt;u16</title>
<path fill="none" stroke="black" d="M5493.23,-1843.87C5528.78,-1799.87 5623.44,-1682.69 5665.16,-1631.05"/>
<polygon fill="black" stroke="black" points="5668.06,-1633.03 5671.62,-1623.05 5662.61,-1628.63 5668.06,-1633.03"/>
</g>
<!-- u11 -->
<g id="node14" class="node">
<title>u11</title>
<ellipse fill="#ffbbbb" stroke="black" cx="4832.39" cy="-835" rx="110.48" ry="18"/>
<text text-anchor="middle" x="4832.39" y="-831.3" font-family="Times,serif" font-size="14.00">Language.Drasil.Mod</text>
</g>
<!-- u13 -->
<g id="node20" class="node">
<title>u13</title>
<ellipse fill="#bbffff" stroke="black" cx="4832.39" cy="-578" rx="170.87" ry="18"/>
<text text-anchor="middle" x="4832.39" y="-574.3" font-family="Times,serif" font-size="14.00">Language.Drasil.Chunk.Parameter</text>
</g>
<!-- u11&#45;&gt;u13 -->
<g id="edge16" class="edge">
<title>u11&#45;&gt;u13</title>
<path fill="none" stroke="black" d="M4832.39,-816.87C4832.39,-773.5 4832.39,-659.06 4832.39,-606.32"/>
<polygon fill="black" stroke="black" points="4835.89,-606.05 4832.39,-596.05 4828.89,-606.05 4835.89,-606.05"/>
</g>
<!-- u22 -->
<g id="node26" class="node">
<title>u22</title>
<ellipse fill="#ffbbff" stroke="black" cx="4272.39" cy="-578" rx="160.57" ry="18"/>
<text text-anchor="middle" x="4272.39" y="-574.3" font-family="Times,serif" font-size="14.00">Language.Drasil.Code.DataDesc</text>
</g>
<!-- u11&#45;&gt;u22 -->
<g id="edge17" class="edge">
<title>u11&#45;&gt;u22</title>
<path fill="none" stroke="black" d="M4796.94,-817.86C4699.38,-773.43 4427.02,-649.41 4318.18,-599.85"/>
<polygon fill="black" stroke="black" points="4319.33,-596.53 4308.78,-595.57 4316.43,-602.9 4319.33,-596.53"/>
</g>
<!-- u18 -->
<g id="node15" class="node">
<title>u18</title>
<ellipse fill="#bbffff" stroke="black" cx="4832.39" cy="-64" rx="168.17" ry="18"/>
<text text-anchor="middle" x="4832.39" y="-60.3" font-family="Times,serif" font-size="14.00">Language.Drasil.Chunk.CodeBase</text>
</g>
<!-- u17 -->
<g id="node16" class="node">
<title>u17</title>
<ellipse fill="#bbffff" stroke="black" cx="4832.39" cy="-321" rx="145.67" ry="18"/>
<text text-anchor="middle" x="4832.39" y="-317.3" font-family="Times,serif" font-size="14.00">Language.Drasil.Chunk.Code</text>
</g>
<!-- u17&#45;&gt;u18 -->
<g id="edge21" class="edge">
<title>u17&#45;&gt;u18</title>
<path fill="none" stroke="black" d="M4832.39,-302.87C4832.39,-259.5 4832.39,-145.06 4832.39,-92.32"/>
<polygon fill="black" stroke="black" points="4835.89,-92.05 4832.39,-82.05 4828.89,-92.05 4835.89,-92.05"/>
</g>
<!-- u10 -->
<g id="node58" class="node">
<title>u10</title>
<ellipse fill="#ff77ff" stroke="black" cx="5570.39" cy="-1092" rx="154.07" ry="18"/>
<text text-anchor="middle" x="5570.39" y="-1088.3" font-family="Times,serif" font-size="14.00">Language.Drasil.Data.ODEInfo</text>
</g>
<!-- u16&#45;&gt;u10 -->
<g id="edge20" class="edge">
<title>u16&#45;&gt;u10</title>
<path fill="none" stroke="black" d="M5681.57,-1587C5664.74,-1512.2 5597.19,-1212.07 5576.47,-1120"/>
<polygon fill="black" stroke="black" points="5579.85,-1119.05 5574.24,-1110.07 5573.02,-1120.59 5579.85,-1119.05"/>
</g>
<!-- u15 -->
<g id="node18" class="node">
<title>u15</title>
<ellipse fill="#bbffff" stroke="black" cx="4501.39" cy="-835" rx="202.26" ry="18"/>
<text text-anchor="middle" x="4501.39" y="-831.3" font-family="Times,serif" font-size="14.00">Language.Drasil.Chunk.NamedArgument</text>
</g>
<!-- u13&#45;&gt;u17 -->
<g id="edge19" class="edge">
<title>u13&#45;&gt;u17</title>
<path fill="none" stroke="black" d="M4832.39,-559.87C4832.39,-516.5 4832.39,-402.06 4832.39,-349.32"/>
<polygon fill="black" stroke="black" points="4835.89,-349.05 4832.39,-339.05 4828.89,-349.05 4835.89,-349.05"/>
</g>
<!-- u55 -->
<g id="node21" class="node">
<title>u55</title>
<ellipse fill="#ffbbff" stroke="black" cx="4478.39" cy="-1092" rx="190.37" ry="18"/>
<text text-anchor="middle" x="4478.39" y="-1088.3" font-family="Times,serif" font-size="14.00">Language.Drasil.Code.ExternalLibrary</text>
</g>
<!-- u55&#45;&gt;u11 -->
<g id="edge73" class="edge">
<title>u55&#45;&gt;u11</title>
<path fill="none" stroke="black" d="M4501.9,-1074.07C4563.65,-1029.59 4730.55,-909.36 4800.68,-858.84"/>
<polygon fill="black" stroke="black" points="4803.06,-861.44 4809.13,-852.76 4798.97,-855.76 4803.06,-861.44"/>
</g>
<!-- u55&#45;&gt;u15 -->
<g id="edge74" class="edge">
<title>u55&#45;&gt;u15</title>
<path fill="none" stroke="black" d="M4479.94,-1073.87C4483.85,-1030.5 4494.17,-916.06 4498.93,-863.32"/>
<polygon fill="black" stroke="black" points="4502.44,-863.33 4499.86,-853.05 4495.47,-862.7 4502.44,-863.33"/>
</g>
<!-- u21 -->
<g id="node27" class="node">
<title>u21</title>
<ellipse fill="#ffbbff" stroke="black" cx="4852.39" cy="-1348" rx="155.17" ry="18"/>
<text text-anchor="middle" x="4852.39" y="-1344.3" font-family="Times,serif" font-size="14.00">Language.Drasil.Code.FileData</text>
</g>
<!-- u54&#45;&gt;u21 -->
<g id="edge72" class="edge">
<title>u54&#45;&gt;u21</title>
<path fill="none" stroke="black" d="M4852.39,-1586.87C4852.39,-1543.5 4852.39,-1429.06 4852.39,-1376.32"/>
<polygon fill="black" stroke="black" points="4855.89,-1376.05 4852.39,-1366.05 4848.89,-1376.05 4855.89,-1376.05"/>
</g>
<!-- u53 -->
<g id="node23" class="node">
<title>u53</title>
<ellipse fill="#ffbbff" stroke="black" cx="5259.39" cy="-1092" rx="139.18" ry="18"/>
<text text-anchor="middle" x="5259.39" y="-1088.3" font-family="Times,serif" font-size="14.00">Language.Drasil.Code.Lang</text>
</g>
<!-- u24 -->
<g id="node24" class="node">
<title>u24</title>
<ellipse fill="#ffbbff" stroke="black" cx="4894.39" cy="-1092" rx="207.96" ry="18"/>
<text text-anchor="middle" x="4894.39" y="-1088.3" font-family="Times,serif" font-size="14.00">Language.Drasil.Code.ExternalLibraryCall</text>
</g>
<!-- u24&#45;&gt;u11 -->
<g id="edge25" class="edge">
<title>u24&#45;&gt;u11</title>
<path fill="none" stroke="black" d="M4890.23,-1073.87C4879.66,-1030.41 4851.74,-915.58 4838.96,-862.99"/>
<polygon fill="black" stroke="black" points="4842.3,-861.94 4836.54,-853.05 4835.5,-863.6 4842.3,-861.94"/>
</g>
<!-- u24&#45;&gt;u15 -->
<g id="edge26" class="edge">
<title>u24&#45;&gt;u15</title>
<path fill="none" stroke="black" d="M4868.3,-1074.07C4799.55,-1029.46 4613.39,-908.67 4535.93,-858.41"/>
<polygon fill="black" stroke="black" points="4537.77,-855.43 4527.48,-852.92 4533.96,-861.3 4537.77,-855.43"/>
</g>
<!-- u23 -->
<g id="node25" class="node">
<title>u23</title>
<ellipse fill="#ffbbff" stroke="black" cx="4255.39" cy="-2119" rx="165.97" ry="18"/>
<text text-anchor="middle" x="4255.39" y="-2115.3" font-family="Times,serif" font-size="14.00">Language.Drasil.Code.FileNames</text>
</g>
<!-- u22&#45;&gt;u17 -->
<g id="edge24" class="edge">
<title>u22&#45;&gt;u17</title>
<path fill="none" stroke="black" d="M4308.71,-560.47C4407.05,-515.68 4678.42,-392.12 4786.81,-342.76"/>
<polygon fill="black" stroke="black" points="4788.51,-345.83 4796.17,-338.5 4785.61,-339.46 4788.51,-345.83"/>
</g>
<!-- u20 -->
<g id="node28" class="node">
<title>u20</title>
<ellipse fill="#ffbbff" stroke="black" cx="5949.39" cy="-2633" rx="204.16" ry="18"/>
<text text-anchor="middle" x="5949.39" y="-2629.3" font-family="Times,serif" font-size="14.00">Language.Drasil.Code.CodeQuantityDicts</text>
</g>
<!-- u19 -->
<g id="node29" class="node">
<title>u19</title>
<ellipse fill="#ffbbff" stroke="black" cx="4478.39" cy="-1605" rx="178.97" ry="18"/>
<text text-anchor="middle" x="4478.39" y="-1601.3" font-family="Times,serif" font-size="14.00">Language.Drasil.Code.ExtLibImport</text>
</g>
<!-- u19&#45;&gt;u55 -->
<g id="edge23" class="edge">
<title>u19&#45;&gt;u55</title>
<path fill="none" stroke="black" d="M4478.39,-1587C4478.39,-1512.28 4478.39,-1212.68 4478.39,-1120.28"/>
<polygon fill="black" stroke="black" points="4481.89,-1120.07 4478.39,-1110.07 4474.89,-1120.07 4481.89,-1120.07"/>
</g>
<!-- u19&#45;&gt;u24 -->
<g id="edge22" class="edge">
<title>u19&#45;&gt;u24</title>
<path fill="none" stroke="black" d="M4490.83,-1587.04C4522.77,-1543.62 4610.69,-1425.17 4688.39,-1330 4753.02,-1250.86 4833.43,-1160.57 4871.88,-1117.87"/>
<polygon fill="black" stroke="black" points="4874.68,-1120 4878.77,-1110.23 4869.48,-1115.31 4874.68,-1120"/>
</g>
<!-- u52 -->
<g id="node30" class="node">
<title>u52</title>
<ellipse fill="#77ff77" stroke="black" cx="5082.39" cy="-3403" rx="226.66" ry="18"/>
<text text-anchor="middle" x="5082.39" y="-3399.3" font-family="Times,serif" font-size="14.00">Language.Drasil.Code.Imperative.SpaceMatch</text>
</g>
<!-- u31 -->
<g id="node40" class="node">
<title>u31</title>
<ellipse fill="#77ff77" stroke="black" cx="5090.39" cy="-2376" rx="222.06" ry="18"/>
<text text-anchor="middle" x="5090.39" y="-2372.3" font-family="Times,serif" font-size="14.00">Language.Drasil.Code.Imperative.DrasilState</text>
</g>
<!-- u52&#45;&gt;u31 -->
<g id="edge71" class="edge">
<title>u52&#45;&gt;u31</title>
<path fill="none" stroke="black" d="M5080.05,-3384.81C5073.19,-3339.33 5049.79,-3213.46 4991.39,-3128 4798.17,-2845.24 4218.61,-2894.6 4416.39,-2615 4524.13,-2462.71 4737.74,-2407.2 4895.74,-2387.33"/>
<polygon fill="black" stroke="black" points="4896.56,-2390.76 4906.06,-2386.07 4895.71,-2383.81 4896.56,-2390.76"/>
</g>
<!-- u51&#45;&gt;u52 -->
<g id="edge70" class="edge">
<title>u51&#45;&gt;u52</title>
<path fill="none" stroke="black" d="M5318.4,-3641.87C5274.56,-3597.69 5157.53,-3479.72 5106.61,-3428.41"/>
<polygon fill="black" stroke="black" points="5108.84,-3425.69 5099.31,-3421.05 5103.87,-3430.62 5108.84,-3425.69"/>
</g>
<!-- u37 -->
<g id="node34" class="node">
<title>u37</title>
<ellipse fill="#77ff77" stroke="black" cx="5588.39" cy="-3403" rx="209.06" ry="18"/>
<text text-anchor="middle" x="5588.39" y="-3399.3" font-family="Times,serif" font-size="14.00">Language.Drasil.Code.Imperative.Modules</text>
</g>
<!-- u51&#45;&gt;u37 -->
<g id="edge69" class="edge">
<title>u51&#45;&gt;u37</title>
<path fill="none" stroke="black" d="M5352.39,-3641.87C5396.23,-3597.69 5513.26,-3479.72 5564.18,-3428.41"/>
<polygon fill="black" stroke="black" points="5566.92,-3430.62 5571.48,-3421.05 5561.95,-3425.69 5566.92,-3430.62"/>
</g>
<!-- u28 -->
<g id="node43" class="node">
<title>u28</title>
<ellipse fill="#77ff77" stroke="black" cx="5640.39" cy="-2119" rx="209.86" ry="18"/>
<text text-anchor="middle" x="5640.39" y="-2115.3" font-family="Times,serif" font-size="14.00">Language.Drasil.Code.Imperative.GenODE</text>
</g>
<!-- u51&#45;&gt;u28 -->
<g id="edge68" class="edge">
<title>u51&#45;&gt;u28</title>
<path fill="none" stroke="black" d="M5519.49,-3650.42C5820.63,-3625.42 6385.39,-3527.77 6385.39,-3147 6385.39,-3147 6385.39,-3147 6385.39,-2632 6385.39,-2318.32 5931.25,-2182.35 5732.12,-2137.81"/>
<polygon fill="black" stroke="black" points="5732.77,-2134.37 5722.25,-2135.63 5731.26,-2141.2 5732.77,-2134.37"/>
</g>
<!-- u50 -->
<g id="node32" class="node">
<title>u50</title>
<ellipse fill="#77ff77" stroke="black" cx="6129.39" cy="-2890" rx="228.26" ry="18"/>
<text text-anchor="middle" x="6129.39" y="-2886.3" font-family="Times,serif" font-size="14.00">Language.Drasil.Code.Imperative.Descriptions</text>
</g>
<!-- u50&#45;&gt;u31 -->
<g id="edge67" class="edge">
<title>u50&#45;&gt;u31</title>
<path fill="none" stroke="black" d="M6141.34,-2872.01C6172.55,-2825.39 6249.82,-2693.68 6186.39,-2615 6072.66,-2473.92 5544.89,-2412.17 5265.31,-2388.98"/>
<polygon fill="black" stroke="black" points="5265.31,-2385.47 5255.06,-2388.14 5264.74,-2392.44 5265.31,-2385.47"/>
</g>
<!-- u41 -->
<g id="node33" class="node">
<title>u41</title>
<ellipse fill="#77ff77" stroke="black" cx="5659.39" cy="-2890" rx="223.66" ry="18"/>
<text text-anchor="middle" x="5659.39" y="-2886.3" font-family="Times,serif" font-size="14.00">Language.Drasil.Code.Imperative.Parameters</text>
</g>
<!-- u41&#45;&gt;u20 -->
<g id="edge54" class="edge">
<title>u41&#45;&gt;u20</title>
<path fill="none" stroke="black" d="M5678.87,-2871.87C5729.33,-2827.51 5864.38,-2708.75 5922.35,-2657.78"/>
<polygon fill="black" stroke="black" points="5924.8,-2660.28 5930,-2651.05 5920.18,-2655.03 5924.8,-2660.28"/>
</g>
<!-- u41&#45;&gt;u31 -->
<g id="edge55" class="edge">
<title>u41&#45;&gt;u31</title>
<path fill="none" stroke="black" d="M5761.44,-2873.93C5940.54,-2843.27 6281.65,-2763.63 6162.39,-2615 6051.14,-2476.33 5533,-2413.39 5259.89,-2389.44"/>
<polygon fill="black" stroke="black" points="5260.15,-2385.95 5249.88,-2388.57 5259.54,-2392.92 5260.15,-2385.95"/>
</g>
<!-- u37&#45;&gt;u50 -->
<g id="edge50" class="edge">
<title>u37&#45;&gt;u50</title>
<path fill="none" stroke="black" d="M5606.39,-3385C5686.46,-3309.37 6010.46,-3003.34 6103.99,-2914.99"/>
<polygon fill="black" stroke="black" points="6106.46,-2917.48 6111.33,-2908.07 6101.65,-2912.39 6106.46,-2917.48"/>
</g>
<!-- u30 -->
<g id="node41" class="node">
<title>u30</title>
<ellipse fill="#77ff77" stroke="black" cx="5588.39" cy="-3146" rx="233.16" ry="18"/>
<text text-anchor="middle" x="5588.39" y="-3142.3" font-family="Times,serif" font-size="14.00">Language.Drasil.Code.Imperative.FunctionCalls</text>
</g>
<!-- u37&#45;&gt;u30 -->
<g id="edge49" class="edge">
<title>u37&#45;&gt;u30</title>
<path fill="none" stroke="black" d="M5588.39,-3384.87C5588.39,-3341.5 5588.39,-3227.06 5588.39,-3174.32"/>
<polygon fill="black" stroke="black" points="5591.89,-3174.05 5588.39,-3164.05 5584.89,-3174.05 5591.89,-3174.05"/>
</g>
<!-- u36 -->
<g id="node35" class="node">
<title>u36</title>
<ellipse fill="#77ff77" stroke="black" cx="4740.39" cy="-2119" rx="213.36" ry="18"/>
<text text-anchor="middle" x="4740.39" y="-2115.3" font-family="Times,serif" font-size="14.00">Language.Drasil.Code.Imperative.README</text>
</g>
<!-- u36&#45;&gt;u58 -->
<g id="edge48" class="edge">
<title>u36&#45;&gt;u58</title>
<path fill="none" stroke="black" d="M4765.56,-2101.07C4831.8,-2056.5 5011.09,-1935.87 5085.9,-1885.54"/>
<polygon fill="black" stroke="black" points="5088.15,-1888.24 5094.49,-1879.76 5084.24,-1882.43 5088.15,-1888.24"/>
</g>
<!-- u35&#45;&gt;u22 -->
<g id="edge47" class="edge">
<title>u35&#45;&gt;u22</title>
<path fill="none" stroke="black" d="M2243.64,-1330.24C2514.98,-1229.77 3924.54,-707.81 4218.6,-598.92"/>
<polygon fill="black" stroke="black" points="4220.02,-602.13 4228.18,-595.37 4217.59,-595.56 4220.02,-602.13"/>
</g>
<!-- u34 -->
<g id="node37" class="node">
<title>u34</title>
<ellipse fill="#77ff77" stroke="black" cx="5216.39" cy="-2890" rx="201.46" ry="18"/>
<text text-anchor="middle" x="5216.39" y="-2886.3" font-family="Times,serif" font-size="14.00">Language.Drasil.Code.Imperative.Import</text>
</g>
<!-- u34&#45;&gt;u20 -->
<g id="edge41" class="edge">
<title>u34&#45;&gt;u20</title>
<path fill="none" stroke="black" d="M5263.92,-2872.47C5393.27,-2827.47 5751.29,-2702.92 5891.76,-2654.05"/>
<polygon fill="black" stroke="black" points="5893.2,-2657.25 5901.5,-2650.66 5890.9,-2650.64 5893.2,-2657.25"/>
</g>
<!-- u33 -->
<g id="node38" class="node">
<title>u33</title>
<ellipse fill="#77ff77" stroke="black" cx="5090.39" cy="-2633" rx="207.16" ry="18"/>
<text text-anchor="middle" x="5090.39" y="-2629.3" font-family="Times,serif" font-size="14.00">Language.Drasil.Code.Imperative.Logging</text>
</g>
<!-- u34&#45;&gt;u33 -->
<g id="edge46" class="edge">
<title>u34&#45;&gt;u33</title>
<path fill="none" stroke="black" d="M5207.93,-2871.87C5186.37,-2828.23 5129.24,-2712.62 5103.41,-2660.34"/>
<polygon fill="black" stroke="black" points="5106.39,-2658.47 5098.82,-2651.05 5100.11,-2661.57 5106.39,-2658.47"/>
</g>
<!-- u32 -->
<g id="node39" class="node">
<title>u32</title>
<ellipse fill="#77ff77" stroke="black" cx="5521.39" cy="-2633" rx="206.06" ry="18"/>
<text text-anchor="middle" x="5521.39" y="-2629.3" font-family="Times,serif" font-size="14.00">Language.Drasil.Code.Imperative.Helpers</text>
</g>
<!-- u34&#45;&gt;u32 -->
<g id="edge45" class="edge">
<title>u34&#45;&gt;u32</title>
<path fill="none" stroke="black" d="M5236.88,-2871.87C5290.06,-2827.41 5432.56,-2708.27 5493.32,-2657.47"/>
<polygon fill="black" stroke="black" points="5495.57,-2660.15 5501,-2651.05 5491.08,-2654.78 5495.57,-2660.15"/>
</g>
<!-- u29 -->
<g id="node42" class="node">
<title>u29</title>
<ellipse fill="#77ff77" stroke="black" cx="5844.39" cy="-2376" rx="237.46" ry="18"/>
<text text-anchor="middle" x="5844.39" y="-2372.3" font-family="Times,serif" font-size="14.00">Language.Drasil.Code.Imperative.ConceptMatch</text>
</g>
<!-- u34&#45;&gt;u29 -->
<g id="edge44" class="edge">
<title>u34&#45;&gt;u29</title>
<path fill="none" stroke="black" d="M5344.09,-2876.01C5578.41,-2849.26 6062.24,-2779.47 6162.39,-2651 6249.79,-2538.89 6019.37,-2438.54 5904.72,-2397.13"/>
<polygon fill="black" stroke="black" points="5905.6,-2393.72 5895.01,-2393.66 5903.25,-2400.31 5905.6,-2393.72"/>
</g>
<!-- u27 -->
<g id="node44" class="node">
<title>u27</title>
<ellipse fill="#77ff77" stroke="black" cx="4645.39" cy="-2633" rx="219.86" ry="18"/>
<text text-anchor="middle" x="4645.39" y="-2629.3" font-family="Times,serif" font-size="14.00">Language.Drasil.Code.Imperative.Comments</text>
</g>
<!-- u34&#45;&gt;u27 -->
<g id="edge43" class="edge">
<title>u34&#45;&gt;u27</title>
<path fill="none" stroke="black" d="M5178.93,-2872.27C5078.4,-2827.37 4802.84,-2704.31 4692.24,-2654.92"/>
<polygon fill="black" stroke="black" points="4693.56,-2651.67 4683,-2650.79 4690.7,-2658.07 4693.56,-2651.67"/>
</g>
<!-- u26 -->
<g id="node45" class="node">
<title>u26</title>
<ellipse fill="#77ff77" stroke="black" cx="4129.39" cy="-2633" rx="240.46" ry="18"/>
<text text-anchor="middle" x="4129.39" y="-2629.3" font-family="Times,serif" font-size="14.00">Language.Drasil.Code.Imperative.GenerateGOOL</text>
</g>
<!-- u34&#45;&gt;u26 -->
<g id="edge42" class="edge">
<title>u34&#45;&gt;u26</title>
<path fill="none" stroke="black" d="M5148.4,-2873.05C4956.79,-2828.1 4413.11,-2700.56 4208.54,-2652.57"/>
<polygon fill="black" stroke="black" points="4209.3,-2649.15 4198.77,-2650.27 4207.7,-2655.97 4209.3,-2649.15"/>
</g>
<!-- u33&#45;&gt;u31 -->
<g id="edge40" class="edge">
<title>u33&#45;&gt;u31</title>
<path fill="none" stroke="black" d="M5090.39,-2614.87C5090.39,-2571.5 5090.39,-2457.06 5090.39,-2404.32"/>
<polygon fill="black" stroke="black" points="5093.89,-2404.05 5090.39,-2394.05 5086.89,-2404.05 5093.89,-2404.05"/>
</g>
<!-- u32&#45;&gt;u31 -->
<g id="edge39" class="edge">
<title>u32&#45;&gt;u31</title>
<path fill="none" stroke="black" d="M5492.78,-2615.07C5417.23,-2570.37 5212.39,-2449.18 5127.76,-2399.11"/>
<polygon fill="black" stroke="black" points="5129.39,-2396 5119,-2393.92 5125.82,-2402.03 5129.39,-2396"/>
</g>
<!-- u31&#45;&gt;u56 -->
<g id="edge38" class="edge">
<title>u31&#45;&gt;u56</title>
<path fill="none" stroke="black" d="M5091.8,-2357.87C5095.38,-2314.5 5104.8,-2200.06 5109.14,-2147.32"/>
<polygon fill="black" stroke="black" points="5112.66,-2147.31 5109.99,-2137.05 5105.68,-2146.73 5112.66,-2147.31"/>
</g>
<!-- u31&#45;&gt;u19 -->
<g id="edge37" class="edge">
<title>u31&#45;&gt;u19</title>
<path fill="none" stroke="black" d="M4966.49,-2361.04C4832.13,-2338.73 4622.91,-2281.6 4518.39,-2137 4403.36,-1977.84 4451.69,-1717.22 4471.47,-1633.09"/>
<polygon fill="black" stroke="black" points="4474.9,-1633.83 4473.84,-1623.29 4468.09,-1632.19 4474.9,-1633.83"/>
</g>
<!-- u30&#45;&gt;u41 -->
<g id="edge36" class="edge">
<title>u30&#45;&gt;u41</title>
<path fill="none" stroke="black" d="M5593.16,-3127.94C5605.23,-3084.75 5637.08,-2970.82 5651.77,-2918.26"/>
<polygon fill="black" stroke="black" points="5655.23,-2918.89 5654.55,-2908.32 5648.49,-2917.01 5655.23,-2918.89"/>
</g>
<!-- u30&#45;&gt;u34 -->
<g id="edge35" class="edge">
<title>u30&#45;&gt;u34</title>
<path fill="none" stroke="black" d="M5563.41,-3127.94C5498.29,-3083.48 5323.32,-2964.01 5249.73,-2913.76"/>
<polygon fill="black" stroke="black" points="5251.5,-2910.73 5241.27,-2907.99 5247.56,-2916.52 5251.5,-2910.73"/>
</g>
<!-- u29&#45;&gt;u58 -->
<g id="edge34" class="edge">
<title>u29&#45;&gt;u58</title>
<path fill="none" stroke="black" d="M5808.23,-2358.1C5733.05,-2322.24 5555.7,-2233.83 5421.39,-2137 5308.6,-2055.68 5191.11,-1937.85 5142.53,-1887.4"/>
<polygon fill="black" stroke="black" points="5145.05,-1884.98 5135.6,-1880.18 5140,-1889.82 5145.05,-1884.98"/>
</g>
<!-- u28&#45;&gt;u58 -->
<g id="edge33" class="edge">
<title>u28&#45;&gt;u58</title>
<path fill="none" stroke="black" d="M5605.81,-2101.07C5513.78,-2056.03 5263.06,-1933.32 5162.23,-1883.97"/>
<polygon fill="black" stroke="black" points="5163.47,-1880.68 5152.95,-1879.43 5160.4,-1886.97 5163.47,-1880.68"/>
</g>
<!-- u28&#45;&gt;u16 -->
<g id="edge31" class="edge">
<title>u28&#45;&gt;u16</title>
<path fill="none" stroke="black" d="M5642.49,-2101C5647.23,-2061.98 5658.99,-1963.01 5666.39,-1880 5674.45,-1789.7 5681.02,-1682.4 5683.87,-1633.16"/>
<polygon fill="black" stroke="black" points="5687.37,-1633.2 5684.45,-1623.01 5680.38,-1632.8 5687.37,-1633.2"/>
</g>
<!-- u28&#45;&gt;u19 -->
<g id="edge32" class="edge">
<title>u28&#45;&gt;u19</title>
<path fill="none" stroke="black" d="M5612.27,-2100.9C5551.67,-2063.62 5405.17,-1971.03 5292.39,-1880 5274.29,-1865.39 5274.49,-1855.72 5254.39,-1844 5033.74,-1715.31 4736.5,-1649.54 4581.76,-1622.1"/>
<polygon fill="black" stroke="black" points="4582.23,-1618.63 4571.77,-1620.35 4581.02,-1625.53 4582.23,-1618.63"/>
</g>
<!-- u27&#45;&gt;u31 -->
<g id="edge30" class="edge">
<title>u27&#45;&gt;u31</title>
<path fill="none" stroke="black" d="M4674.94,-2615.07C4753.02,-2570.32 4964.86,-2448.93 5052.08,-2398.95"/>
<polygon fill="black" stroke="black" points="5053.93,-2401.93 5060.86,-2393.92 5050.45,-2395.86 5053.93,-2401.93"/>
</g>
<!-- u26&#45;&gt;u31 -->
<g id="edge28" class="edge">
<title>u26&#45;&gt;u31</title>
<path fill="none" stroke="black" d="M4191.34,-2615.56C4361.92,-2570.3 4837.84,-2444.01 5019.08,-2395.92"/>
<polygon fill="black" stroke="black" points="5020.01,-2399.3 5028.78,-2393.35 5018.21,-2392.53 5020.01,-2399.3"/>
</g>
<!-- u42 -->
<g id="node50" class="node">
<title>u42</title>
<ellipse fill="#ff7777" stroke="black" cx="4087.39" cy="-2376" rx="267.25" ry="18"/>
<text text-anchor="middle" x="4087.39" y="-2372.3" font-family="Times,serif" font-size="14.00">Language.Drasil.Code.Imperative.GOOL.ClassInterface</text>
</g>
<!-- u26&#45;&gt;u42 -->
<g id="edge29" class="edge">
<title>u26&#45;&gt;u42</title>
<path fill="none" stroke="black" d="M4126.57,-2614.87C4119.42,-2571.41 4100.5,-2456.58 4091.84,-2403.99"/>
<polygon fill="black" stroke="black" points="4095.28,-2403.35 4090.2,-2394.05 4088.37,-2404.49 4095.28,-2403.35"/>
</g>
<!-- u25 -->
<g id="node46" class="node">
<title>u25</title>
<ellipse fill="#77ff77" stroke="black" cx="4061.39" cy="-835" rx="219.86" ry="18"/>
<text text-anchor="middle" x="4061.39" y="-831.3" font-family="Times,serif" font-size="14.00">Language.Drasil.Code.Imperative.WriteInput</text>
</g>
<!-- u25&#45;&gt;u22 -->
<g id="edge27" class="edge">
<title>u25&#45;&gt;u22</title>
<path fill="none" stroke="black" d="M4075.57,-816.87C4111.98,-772.87 4208.94,-655.69 4251.67,-604.05"/>
<polygon fill="black" stroke="black" points="4254.61,-605.99 4258.28,-596.05 4249.21,-601.53 4254.61,-605.99"/>
</g>
<!-- u40 -->
<g id="node47" class="node">
<title>u40</title>
<ellipse fill="#ffff77" stroke="black" cx="3133.39" cy="-2376" rx="215.56" ry="18"/>
<text text-anchor="middle" x="3133.39" y="-2372.3" font-family="Times,serif" font-size="14.00">Language.Drasil.Code.Imperative.Build.AST</text>
</g>
<!-- u39 -->
<g id="node48" class="node">
<title>u39</title>
<ellipse fill="#ffff77" stroke="black" cx="3133.39" cy="-2633" rx="228.56" ry="18"/>
<text text-anchor="middle" x="3133.39" y="-2629.3" font-family="Times,serif" font-size="14.00">Language.Drasil.Code.Imperative.Build.Import</text>
</g>
<!-- u39&#45;&gt;u40 -->
<g id="edge52" class="edge">
<title>u39&#45;&gt;u40</title>
<path fill="none" stroke="black" d="M3133.39,-2614.87C3133.39,-2571.5 3133.39,-2457.06 3133.39,-2404.32"/>
<polygon fill="black" stroke="black" points="3136.89,-2404.05 3133.39,-2394.05 3129.89,-2404.05 3136.89,-2404.05"/>
</g>
<!-- u39&#45;&gt;u42 -->
<g id="edge53" class="edge">
<title>u39&#45;&gt;u42</title>
<path fill="none" stroke="black" d="M3194.89,-2615.56C3363.94,-2570.38 3835.08,-2444.44 4015.68,-2396.17"/>
<polygon fill="black" stroke="black" points="4016.85,-2399.48 4025.61,-2393.52 4015.04,-2392.72 4016.85,-2399.48"/>
</g>
<!-- u38 -->
<g id="node49" class="node">
<title>u38</title>
<ellipse fill="#7777ff" stroke="black" cx="3625.39" cy="-2633" rx="245.06" ry="18"/>
<text text-anchor="middle" x="3625.39" y="-2629.3" font-family="Times,serif" font-size="14.00">Language.Drasil.Code.Imperative.Doxygen.Import</text>
</g>
<!-- u38&#45;&gt;u42 -->
<g id="edge51" class="edge">
<title>u38&#45;&gt;u42</title>
<path fill="none" stroke="black" d="M3656.07,-2615.07C3737.22,-2570.28 3957.51,-2448.69 4047.89,-2398.8"/>
<polygon fill="black" stroke="black" points="4049.67,-2401.82 4056.73,-2393.92 4046.29,-2395.69 4049.67,-2401.82"/>
</g>
<!-- u42&#45;&gt;u23 -->
<g id="edge56" class="edge">
<title>u42&#45;&gt;u23</title>
<path fill="none" stroke="black" d="M4098.68,-2357.87C4127.55,-2314.05 4204.23,-2197.66 4238.47,-2145.69"/>
<polygon fill="black" stroke="black" points="4241.58,-2147.33 4244.16,-2137.05 4235.74,-2143.48 4241.58,-2147.33"/>
</g>
<!-- u42&#45;&gt;u36 -->
<g id="edge58" class="edge">
<title>u42&#45;&gt;u36</title>
<path fill="none" stroke="black" d="M4130.49,-2358.17C4246.03,-2313.05 4562.43,-2189.49 4688.02,-2140.45"/>
<polygon fill="black" stroke="black" points="4689.4,-2143.67 4697.44,-2136.77 4686.85,-2137.15 4689.4,-2143.67"/>
</g>
<!-- u42&#45;&gt;u25 -->
<g id="edge57" class="edge">
<title>u42&#45;&gt;u25</title>
<path fill="none" stroke="black" d="M4085.88,-2357.78C4080.34,-2292.96 4061.39,-2057.47 4061.39,-1863 4061.39,-1863 4061.39,-1863 4061.39,-1347 4061.39,-1162.24 4061.39,-939.91 4061.39,-863.41"/>
<polygon fill="black" stroke="black" points="4064.89,-863.2 4061.39,-853.2 4057.89,-863.2 4064.89,-863.2"/>
</g>
<!-- u49 -->
<g id="node51" class="node">
<title>u49</title>
<ellipse fill="#77ffff" stroke="black" cx="3133.39" cy="-2890" rx="393.73" ry="18"/>
<text text-anchor="middle" x="3133.39" y="-2886.3" font-family="Times,serif" font-size="14.00">Language.Drasil.Code.Imperative.GOOL.LanguageRenderer.LanguagePolymorphic</text>
</g>
<!-- u49&#45;&gt;u39 -->
<g id="edge66" class="edge">
<title>u49&#45;&gt;u39</title>
<path fill="none" stroke="black" d="M3133.39,-2871.87C3133.39,-2828.5 3133.39,-2714.06 3133.39,-2661.32"/>
<polygon fill="black" stroke="black" points="3136.89,-2661.05 3133.39,-2651.05 3129.89,-2661.05 3136.89,-2661.05"/>
</g>
<!-- u49&#45;&gt;u38 -->
<g id="edge65" class="edge">
<title>u49&#45;&gt;u38</title>
<path fill="none" stroke="black" d="M3166.44,-2871.87C3253.28,-2826.86 3487.84,-2705.29 3583.71,-2655.61"/>
<polygon fill="black" stroke="black" points="3585.55,-2658.59 3592.81,-2650.89 3582.33,-2652.38 3585.55,-2658.59"/>
</g>
<!-- u48&#45;&gt;u49 -->
<g id="edge64" class="edge">
<title>u48&#45;&gt;u49</title>
<path fill="none" stroke="black" d="M1758.15,-3128.63C2020.16,-3083.35 2753.15,-2956.7 3027.74,-2909.26"/>
<polygon fill="black" stroke="black" points="3028.45,-2912.68 3037.71,-2907.53 3027.26,-2905.79 3028.45,-2912.68"/>
</g>
<!-- u47&#45;&gt;u49 -->
<g id="edge63" class="edge">
<title>u47&#45;&gt;u49</title>
<path fill="none" stroke="black" d="M2442.52,-3128.14C2573.66,-3083.12 2931.65,-2960.25 3073.93,-2911.41"/>
<polygon fill="black" stroke="black" points="3075.48,-2914.58 3083.8,-2908.02 3073.21,-2907.96 3075.48,-2914.58"/>
</g>
<!-- u46&#45;&gt;u49 -->
<g id="edge62" class="edge">
<title>u46&#45;&gt;u49</title>
<path fill="none" stroke="black" d="M3133.39,-3127.94C3133.39,-3084.84 3133.39,-2971.29 3133.39,-2918.59"/>
<polygon fill="black" stroke="black" points="3136.89,-2918.32 3133.39,-2908.32 3129.89,-2918.32 3136.89,-2918.32"/>
</g>
<!-- u45&#45;&gt;u49 -->
<g id="edge61" class="edge">
<title>u45&#45;&gt;u49</title>
<path fill="none" stroke="black" d="M3826.14,-3128.14C3694.51,-3083.08 3334.97,-2960 3192.59,-2911.26"/>
<polygon fill="black" stroke="black" points="3193.72,-2907.95 3183.12,-2908.02 3191.45,-2914.57 3193.72,-2907.95"/>
</g>
<!-- u44&#45;&gt;u49 -->
<g id="edge60" class="edge">
<title>u44&#45;&gt;u49</title>
<path fill="none" stroke="black" d="M4519.58,-3128.58C4255.17,-3083.26 3516.54,-2956.67 3239.85,-2909.25"/>
<polygon fill="black" stroke="black" points="3240.25,-2905.76 3229.81,-2907.52 3239.07,-2912.66 3240.25,-2905.76"/>
</g>
<!-- u43&#45;&gt;u49 -->
<g id="edge59" class="edge">
<title>u43&#45;&gt;u49</title>
<path fill="none" stroke="black" d="M1068,-3129.35C1458.09,-3084.33 2580.98,-2954.75 2985.73,-2908.04"/>
<polygon fill="black" stroke="black" points="2986.21,-2911.51 2995.74,-2906.89 2985.41,-2904.55 2986.21,-2911.51"/>
</g>
<!-- u10&#45;&gt;u17 -->
<g id="edge15" class="edge">
<title>u10&#45;&gt;u17</title>
<path fill="none" stroke="black" d="M5553.95,-1073.86C5457.9,-973.78 4969.88,-465.26 4856.12,-346.72"/>
<polygon fill="black" stroke="black" points="4858.33,-343.97 4848.88,-339.18 4853.28,-348.82 4858.33,-343.97"/>
</g>
<!-- u9&#45;&gt;u55 -->
<g id="edge14" class="edge">
<title>u9&#45;&gt;u55</title>
<path fill="none" stroke="black" d="M5209.35,-1330.72C5071.7,-1285.96 4687.78,-1161.1 4538.68,-1112.61"/>
<polygon fill="black" stroke="black" points="4539.37,-1109.15 4528.78,-1109.39 4537.21,-1115.81 4539.37,-1109.15"/>
</g>
<!-- u9&#45;&gt;u53 -->
<g id="edge13" class="edge">
<title>u9&#45;&gt;u53</title>
<path fill="none" stroke="black" d="M5259.39,-1329.94C5259.39,-1286.84 5259.39,-1173.29 5259.39,-1120.59"/>
<polygon fill="black" stroke="black" points="5262.89,-1120.32 5259.39,-1110.32 5255.89,-1120.32 5262.89,-1120.32"/>
</g>
<!-- u9&#45;&gt;u24 -->
<g id="edge12" class="edge">
<title>u9&#45;&gt;u24</title>
<path fill="none" stroke="black" d="M5235.16,-1330.14C5171.51,-1285.85 4999.53,-1166.16 4927.17,-1115.81"/>
<polygon fill="black" stroke="black" points="4929.06,-1112.86 4918.86,-1110.02 4925.07,-1118.61 4929.06,-1112.86"/>
</g>
<!-- u9&#45;&gt;u10 -->
<g id="edge11" class="edge">
<title>u9&#45;&gt;u10</title>
<path fill="none" stroke="black" d="M5280.28,-1329.94C5334.5,-1285.66 5479.82,-1166.98 5541.77,-1116.38"/>
<polygon fill="black" stroke="black" points="5544.07,-1119.02 5549.6,-1109.99 5539.64,-1113.6 5544.07,-1119.02"/>
</g>
<!-- u5 -->
<g id="node60" class="node">
<title>u5</title>
<ellipse fill="#33ff33" stroke="black" cx="503.39" cy="-4174" rx="108.58" ry="18"/>
<text text-anchor="middle" x="503.39" y="-4170.3" font-family="Times,serif" font-size="14.00">drasil&#45;code.test.Main</text>
</g>
<!-- u5&#45;&gt;u4 -->
<g id="edge5" class="edge">
<title>u5&#45;&gt;u4</title>
<path fill="none" stroke="black" d="M474.8,-4156.47C397.18,-4111.58 182.67,-3987.55 97.71,-3938.42"/>
<polygon fill="black" stroke="black" points="99.36,-3935.33 88.95,-3933.36 95.86,-3941.39 99.36,-3935.33"/>
</g>
<!-- u5&#45;&gt;u3 -->
<g id="edge4" class="edge">
<title>u5&#45;&gt;u3</title>
<path fill="none" stroke="black" d="M483.65,-4156.27C431.31,-4111.93 288.97,-3991.34 229.29,-3940.79"/>
<polygon fill="black" stroke="black" points="231.33,-3937.93 221.44,-3934.13 226.81,-3943.27 231.33,-3937.93"/>
</g>
<!-- u5&#45;&gt;u2 -->
<g id="edge3" class="edge">
<title>u5&#45;&gt;u2</title>
<path fill="none" stroke="black" d="M493.52,-4155.87C468.31,-4112.14 401.44,-3996.14 371.39,-3944.01"/>
<polygon fill="black" stroke="black" points="374.25,-3941.97 366.22,-3935.05 368.19,-3945.46 374.25,-3941.97"/>
</g>
<!-- u5&#45;&gt;u0 -->
<g id="edge2" class="edge">
<title>u5&#45;&gt;u0</title>
<path fill="none" stroke="black" d="M503.39,-4155.87C503.39,-4112.5 503.39,-3998.06 503.39,-3945.32"/>
<polygon fill="black" stroke="black" points="506.89,-3945.05 503.39,-3935.05 499.89,-3945.05 506.89,-3945.05"/>
</g>
<!-- u5&#45;&gt;u7 -->
<g id="edge6" class="edge">
<title>u5&#45;&gt;u7</title>
<path fill="none" stroke="black" d="M514.54,-4155.87C543.07,-4112.05 618.84,-3995.66 652.67,-3943.69"/>
<polygon fill="black" stroke="black" points="655.77,-3945.34 658.29,-3935.05 649.9,-3941.52 655.77,-3945.34"/>
</g>
<!-- u5&#45;&gt;u59 -->
<g id="edge8" class="edge">
<title>u5&#45;&gt;u59</title>
<path fill="none" stroke="black" d="M528.88,-4156.47C597.26,-4112.1 784.83,-3990.39 862.26,-3940.15"/>
<polygon fill="black" stroke="black" points="864.23,-3943.04 870.71,-3934.66 860.42,-3937.17 864.23,-3943.04"/>
</g>
<!-- u5&#45;&gt;u57 -->
<g id="edge7" class="edge">
<title>u5&#45;&gt;u57</title>
<path fill="none" stroke="black" d="M542.44,-4157.11C784.28,-4058.72 2076.42,-3532.97 2344.63,-3423.84"/>
<polygon fill="black" stroke="black" points="2346.15,-3427 2354.1,-3419.99 2343.51,-3420.52 2346.15,-3427"/>
</g>
</g>
</svg>
