<?xml version="1.0" encoding="UTF-8" standalone="no"?>
<!DOCTYPE svg PUBLIC "-//W3C//DTD SVG 1.1//EN"
 "http://www.w3.org/Graphics/SVG/1.1/DTD/svg11.dtd">
<!-- Generated by graphviz version 2.43.0 (0)
 -->
<!-- Title: G Pages: 1 -->
<svg width="432pt" height="288pt"
 viewBox="0.00 0.00 431.54 288.00" xmlns="http://www.w3.org/2000/svg" xmlns:xlink="http://www.w3.org/1999/xlink">
<g id="graph0" class="graph" transform="scale(0.15 0.15) rotate(0) translate(4 1897.33)">
<title>G</title>
<polygon fill="white" stroke="transparent" points="-4,4 -4,-1897.33 2844.97,-1897.33 2844.97,4 -4,4"/>
<!-- u34 -->
<g id="node1" class="node">
<title>u34</title>
<ellipse fill="#bbffbb" stroke="black" cx="355.39" cy="-1438" rx="123.48" ry="18"/>
<text text-anchor="middle" x="355.39" y="-1434.3" font-family="Times,serif" font-size="14.00">Language.Drasil.Format</text>
</g>
<!-- u1 -->
<g id="node2" class="node">
<title>u1</title>
<ellipse fill="#bbffbb" stroke="black" cx="1626.39" cy="-877" rx="119.68" ry="18"/>
<text text-anchor="middle" x="1626.39" y="-873.3" font-family="Times,serif" font-size="14.00">Language.Drasil.Config</text>
</g>
<!-- u0 -->
<g id="node3" class="node">
<title>u0</title>
<ellipse fill="#bbffbb" stroke="black" cx="1367.39" cy="-1858" rx="128.08" ry="18"/>
<text text-anchor="middle" x="1367.39" y="-1854.3" font-family="Times,serif" font-size="14.00">Language.Drasil.Printers</text>
</g>
<!-- u25 -->
<g id="node4" class="node">
<title>u25</title>
<ellipse fill="#ffffbb" stroke="black" cx="1841.39" cy="-1718" rx="135.68" ry="18"/>
<text text-anchor="middle" x="1841.39" y="-1714.3" font-family="Times,serif" font-size="14.00">Language.Drasil.DOT.Print</text>
</g>
<!-- u0&#45;&gt;u25 -->
<g id="edge3" class="edge">
<title>u0&#45;&gt;u25</title>
<path fill="none" stroke="black" d="M1420.38,-1841.57C1508.23,-1816 1683.65,-1764.92 1777.95,-1737.47"/>
<polygon fill="black" stroke="black" points="1779.02,-1740.8 1787.64,-1734.65 1777.06,-1734.08 1779.02,-1740.8"/>
</g>
<!-- u26 -->
<g id="node5" class="node">
<title>u26</title>
<ellipse fill="#bbbbff" stroke="black" cx="1541.39" cy="-1718" rx="146.47" ry="18"/>
<text text-anchor="middle" x="1541.39" y="-1714.3" font-family="Times,serif" font-size="14.00">Language.Drasil.Debug.Print</text>
</g>
<!-- u0&#45;&gt;u26 -->
<g id="edge4" class="edge">
<title>u0&#45;&gt;u26</title>
<path fill="none" stroke="black" d="M1388.72,-1840.08C1419.72,-1815.49 1477.32,-1769.81 1512.22,-1742.13"/>
<polygon fill="black" stroke="black" points="1514.49,-1744.8 1520.15,-1735.84 1510.14,-1739.32 1514.49,-1744.8"/>
</g>
<!-- u32 -->
<g id="node10" class="node">
<title>u32</title>
<ellipse fill="#bbffff" stroke="black" cx="728.39" cy="-1578" rx="140.28" ry="18"/>
<text text-anchor="middle" x="728.39" y="-1574.3" font-family="Times,serif" font-size="14.00">Language.Drasil.JSON.Print</text>
</g>
<!-- u0&#45;&gt;u32 -->
<g id="edge5" class="edge">
<title>u0&#45;&gt;u32</title>
<path fill="none" stroke="black" d="M1302.86,-1842.39C1224.12,-1823.34 1087.94,-1786.4 978.39,-1736 894.4,-1697.36 804.65,-1635.23 758.96,-1601.89"/>
<polygon fill="black" stroke="black" points="760.82,-1598.92 750.69,-1595.82 756.68,-1604.56 760.82,-1598.92"/>
</g>
<!-- u23 -->
<g id="node13" class="node">
<title>u23</title>
<ellipse fill="#ffbbff" stroke="black" cx="1371.39" cy="-1438" rx="188.47" ry="18"/>
<text text-anchor="middle" x="1371.39" y="-1434.3" font-family="Times,serif" font-size="14.00">Language.Drasil.Markdown.CreateMd</text>
</g>
<!-- u0&#45;&gt;u23 -->
<g id="edge2" class="edge">
<title>u0&#45;&gt;u23</title>
<path fill="none" stroke="black" d="M1367.55,-1839.83C1368.17,-1775.13 1370.37,-1545.63 1371.13,-1466.25"/>
<polygon fill="black" stroke="black" points="1374.63,-1466.11 1371.22,-1456.08 1367.63,-1466.04 1374.63,-1466.11"/>
</g>
<!-- u21 -->
<g id="node15" class="node">
<title>u21</title>
<ellipse fill="#ffbbff" stroke="black" cx="1159.39" cy="-1718" rx="171.67" ry="18"/>
<text text-anchor="middle" x="1159.39" y="-1714.3" font-family="Times,serif" font-size="14.00">Language.Drasil.Markdown.Config</text>
</g>
<!-- u0&#45;&gt;u21 -->
<g id="edge1" class="edge">
<title>u0&#45;&gt;u21</title>
<path fill="none" stroke="black" d="M1341.88,-1840.08C1304.51,-1815.28 1234.81,-1769.04 1193.2,-1741.44"/>
<polygon fill="black" stroke="black" points="1195.04,-1738.46 1184.77,-1735.84 1191.17,-1744.29 1195.04,-1738.46"/>
</g>
<!-- u33 -->
<g id="node16" class="node">
<title>u33</title>
<ellipse fill="#77ff77" stroke="black" cx="1633.39" cy="-1578" rx="139.98" ry="18"/>
<text text-anchor="middle" x="1633.39" y="-1574.3" font-family="Times,serif" font-size="14.00">Language.Drasil.Plain.Print</text>
</g>
<!-- u26&#45;&gt;u33 -->
<g id="edge36" class="edge">
<title>u26&#45;&gt;u33</title>
<path fill="none" stroke="black" d="M1552.85,-1699.8C1568.85,-1675.81 1597.97,-1632.12 1616.46,-1604.38"/>
<polygon fill="black" stroke="black" points="1619.43,-1606.24 1622.07,-1595.98 1613.61,-1602.36 1619.43,-1606.24"/>
</g>
<!-- u20 -->
<g id="node6" class="node">
<title>u20</title>
<ellipse fill="#ffbbbb" stroke="black" cx="641.39" cy="-1438" rx="144.87" ry="18"/>
<text text-anchor="middle" x="641.39" y="-1434.3" font-family="Times,serif" font-size="14.00">Language.Drasil.HTML.Print</text>
</g>
<!-- u19 -->
<g id="node7" class="node">
<title>u19</title>
<ellipse fill="#ffbbbb" stroke="black" cx="153.39" cy="-1297" rx="153.27" ry="18"/>
<text text-anchor="middle" x="153.39" y="-1293.3" font-family="Times,serif" font-size="14.00">Language.Drasil.HTML.Monad</text>
</g>
<!-- u20&#45;&gt;u19 -->
<g id="edge27" class="edge">
<title>u20&#45;&gt;u19</title>
<path fill="none" stroke="black" d="M586.36,-1421.33C495.74,-1395.52 315.54,-1344.19 218.65,-1316.59"/>
<polygon fill="black" stroke="black" points="219.54,-1313.2 208.97,-1313.83 217.62,-1319.94 219.54,-1313.2"/>
</g>
<!-- u18 -->
<g id="node8" class="node">
<title>u18</title>
<ellipse fill="#ffbbbb" stroke="black" cx="465.39" cy="-1297" rx="140.28" ry="18"/>
<text text-anchor="middle" x="465.39" y="-1293.3" font-family="Times,serif" font-size="14.00">Language.Drasil.HTML.CSS</text>
</g>
<!-- u20&#45;&gt;u18 -->
<g id="edge26" class="edge">
<title>u20&#45;&gt;u18</title>
<path fill="none" stroke="black" d="M619.81,-1419.96C588.45,-1395.19 530.19,-1349.18 494.89,-1321.3"/>
<polygon fill="black" stroke="black" points="496.89,-1318.42 486.87,-1314.97 492.55,-1323.91 496.89,-1318.42"/>
</g>
<!-- u17 -->
<g id="node9" class="node">
<title>u17</title>
<ellipse fill="#ffbbbb" stroke="black" cx="858.39" cy="-877" rx="157.87" ry="18"/>
<text text-anchor="middle" x="858.39" y="-873.3" font-family="Times,serif" font-size="14.00">Language.Drasil.HTML.Helpers</text>
</g>
<!-- u20&#45;&gt;u17 -->
<g id="edge25" class="edge">
<title>u20&#45;&gt;u17</title>
<path fill="none" stroke="black" d="M639.65,-1419.72C632.73,-1347.71 609.53,-1071.75 652.39,-999 682.88,-947.24 744.81,-915.31 792.85,-897.35"/>
<polygon fill="black" stroke="black" points="794.05,-900.64 802.26,-893.94 791.66,-894.06 794.05,-900.64"/>
</g>
<!-- u29 -->
<g id="node33" class="node">
<title>u29</title>
<ellipse fill="#ff7777" stroke="black" cx="1602.39" cy="-1297" rx="133.48" ry="18"/>
<text text-anchor="middle" x="1602.39" y="-1293.3" font-family="Times,serif" font-size="14.00">Language.Drasil.TeX.Print</text>
</g>
<!-- u20&#45;&gt;u29 -->
<g id="edge28" class="edge">
<title>u20&#45;&gt;u29</title>
<path fill="none" stroke="black" d="M731.79,-1423.92C912.79,-1397.74 1318.26,-1339.1 1504.92,-1312.1"/>
<polygon fill="black" stroke="black" points="1505.61,-1315.53 1515,-1310.64 1504.6,-1308.61 1505.61,-1315.53"/>
</g>
<!-- u14 -->
<g id="node19" class="node">
<title>u14</title>
<ellipse fill="#ffff77" stroke="black" cx="1924.39" cy="-35" rx="149.47" ry="18"/>
<text text-anchor="middle" x="1924.39" y="-31.3" font-family="Times,serif" font-size="14.00">Language.Drasil.Printing.AST</text>
</g>
<!-- u17&#45;&gt;u14 -->
<g id="edge24" class="edge">
<title>u17&#45;&gt;u14</title>
<path fill="none" stroke="black" d="M864.9,-858.99C880.82,-815.86 920.39,-698.47 920.39,-597 920.39,-597 920.39,-597 920.39,-315 920.39,-137.14 1512.72,-67.9 1787.45,-45.36"/>
<polygon fill="black" stroke="black" points="1787.8,-48.84 1797.48,-44.54 1787.23,-41.86 1787.8,-48.84"/>
</g>
<!-- u32&#45;&gt;u34 -->
<g id="edge48" class="edge">
<title>u32&#45;&gt;u34</title>
<path fill="none" stroke="black" d="M684.5,-1560.76C615.57,-1535.26 482.17,-1485.91 408.13,-1458.51"/>
<polygon fill="black" stroke="black" points="409.12,-1455.15 398.53,-1454.96 406.69,-1461.71 409.12,-1455.15"/>
</g>
<!-- u32&#45;&gt;u20 -->
<g id="edge46" class="edge">
<title>u32&#45;&gt;u20</title>
<path fill="none" stroke="black" d="M717.54,-1559.8C702.48,-1535.91 675.12,-1492.5 657.62,-1464.74"/>
<polygon fill="black" stroke="black" points="660.39,-1462.57 652.09,-1455.98 654.46,-1466.31 660.39,-1462.57"/>
</g>
<!-- u31 -->
<g id="node11" class="node">
<title>u31</title>
<ellipse fill="#bbffff" stroke="black" cx="814.39" cy="-1017" rx="153.27" ry="18"/>
<text text-anchor="middle" x="814.39" y="-1013.3" font-family="Times,serif" font-size="14.00">Language.Drasil.JSON.Helpers</text>
</g>
<!-- u32&#45;&gt;u31 -->
<g id="edge47" class="edge">
<title>u32&#45;&gt;u31</title>
<path fill="none" stroke="black" d="M741.4,-1559.7C757.49,-1537.19 784.13,-1495.99 795.39,-1456 837.69,-1305.79 824.42,-1115.23 817.46,-1045.31"/>
<polygon fill="black" stroke="black" points="820.92,-1044.73 816.4,-1035.15 813.95,-1045.46 820.92,-1044.73"/>
</g>
<!-- u31&#45;&gt;u17 -->
<g id="edge45" class="edge">
<title>u31&#45;&gt;u17</title>
<path fill="none" stroke="black" d="M819.87,-998.8C827.35,-975.35 840.82,-933.09 849.68,-905.29"/>
<polygon fill="black" stroke="black" points="853.13,-906.01 852.83,-895.42 846.46,-903.88 853.13,-906.01"/>
</g>
<!-- u13 -->
<g id="node20" class="node">
<title>u13</title>
<ellipse fill="#ffff77" stroke="black" cx="1177.39" cy="-736" rx="167.07" ry="18"/>
<text text-anchor="middle" x="1177.39" y="-732.3" font-family="Times,serif" font-size="14.00">Language.Drasil.Printing.Helpers</text>
</g>
<!-- u31&#45;&gt;u13 -->
<g id="edge44" class="edge">
<title>u31&#45;&gt;u13</title>
<path fill="none" stroke="black" d="M850.28,-999.35C893.88,-978.26 968.63,-939.3 1025.39,-895 1077.94,-853.98 1129.74,-795.13 1157.21,-762.05"/>
<polygon fill="black" stroke="black" points="1160,-764.16 1163.65,-754.22 1154.6,-759.71 1160,-764.16"/>
</g>
<!-- u24 -->
<g id="node12" class="node">
<title>u24</title>
<ellipse fill="#ffbbff" stroke="black" cx="1155.39" cy="-1578" rx="165.17" ry="18"/>
<text text-anchor="middle" x="1155.39" y="-1574.3" font-family="Times,serif" font-size="14.00">Language.Drasil.Markdown.Print</text>
</g>
<!-- u24&#45;&gt;u20 -->
<g id="edge34" class="edge">
<title>u24&#45;&gt;u20</title>
<path fill="none" stroke="black" d="M1096.42,-1561.17C1000.34,-1535.37 810.56,-1484.42 709.1,-1457.18"/>
<polygon fill="black" stroke="black" points="709.83,-1453.75 699.27,-1454.54 708.02,-1460.51 709.83,-1453.75"/>
</g>
<!-- u22 -->
<g id="node14" class="node">
<title>u22</title>
<ellipse fill="#ffbbff" stroke="black" cx="1164.39" cy="-1017" rx="178.97" ry="18"/>
<text text-anchor="middle" x="1164.39" y="-1013.3" font-family="Times,serif" font-size="14.00">Language.Drasil.Markdown.Helpers</text>
</g>
<!-- u24&#45;&gt;u22 -->
<g id="edge35" class="edge">
<title>u24&#45;&gt;u22</title>
<path fill="none" stroke="black" d="M1155.66,-1559.97C1156.94,-1480.25 1162.36,-1143.78 1163.95,-1045.23"/>
<polygon fill="black" stroke="black" points="1167.45,-1045.23 1164.11,-1035.18 1160.45,-1045.12 1167.45,-1045.23"/>
</g>
<!-- u23&#45;&gt;u13 -->
<g id="edge33" class="edge">
<title>u23&#45;&gt;u13</title>
<path fill="none" stroke="black" d="M1375.84,-1419.62C1390.74,-1357.56 1433.46,-1142.9 1352.39,-999 1311.48,-926.4 1240.03,-965.99 1196.39,-895 1171.69,-854.82 1171.48,-797.97 1174.08,-764.55"/>
<polygon fill="black" stroke="black" points="1177.61,-764.45 1175.04,-754.17 1170.64,-763.81 1177.61,-764.45"/>
</g>
<!-- u22&#45;&gt;u17 -->
<g id="edge32" class="edge">
<title>u22&#45;&gt;u17</title>
<path fill="none" stroke="black" d="M1127.48,-999.35C1071.65,-974.18 965.79,-926.44 904.81,-898.94"/>
<polygon fill="black" stroke="black" points="905.98,-895.63 895.43,-894.71 903.11,-902.01 905.98,-895.63"/>
</g>
<!-- u22&#45;&gt;u13 -->
<g id="edge31" class="edge">
<title>u22&#45;&gt;u13</title>
<path fill="none" stroke="black" d="M1163.55,-998.56C1162.33,-969.56 1160.49,-909.62 1163.39,-859 1165.25,-826.37 1169.9,-789.07 1173.34,-764.39"/>
<polygon fill="black" stroke="black" points="1176.83,-764.71 1174.77,-754.32 1169.9,-763.73 1176.83,-764.71"/>
</g>
<!-- u2 -->
<g id="node22" class="node">
<title>u2</title>
<ellipse fill="#ffff77" stroke="black" cx="1942.39" cy="-877" rx="178.97" ry="18"/>
<text text-anchor="middle" x="1942.39" y="-873.3" font-family="Times,serif" font-size="14.00">Language.Drasil.Printing.LayoutObj</text>
</g>
<!-- u22&#45;&gt;u2 -->
<g id="edge30" class="edge">
<title>u22&#45;&gt;u2</title>
<path fill="none" stroke="black" d="M1248.39,-1001.1C1394.68,-975.15 1695.2,-921.84 1848.28,-894.69"/>
<polygon fill="black" stroke="black" points="1848.91,-898.13 1858.15,-892.94 1847.69,-891.24 1848.91,-898.13"/>
</g>
<!-- u21&#45;&gt;u24 -->
<g id="edge29" class="edge">
<title>u21&#45;&gt;u24</title>
<path fill="none" stroke="black" d="M1158.89,-1699.8C1158.21,-1676.46 1156.99,-1634.47 1156.19,-1606.66"/>
<polygon fill="black" stroke="black" points="1159.68,-1606.31 1155.89,-1596.42 1152.68,-1606.51 1159.68,-1606.31"/>
</g>
<!-- u3 -->
<g id="node21" class="node">
<title>u3</title>
<ellipse fill="#ffff77" stroke="black" cx="1937.39" cy="-1157" rx="162.47" ry="18"/>
<text text-anchor="middle" x="1937.39" y="-1153.3" font-family="Times,serif" font-size="14.00">Language.Drasil.Printing.Import</text>
</g>
<!-- u33&#45;&gt;u3 -->
<g id="edge49" class="edge">
<title>u33&#45;&gt;u3</title>
<path fill="none" stroke="black" d="M1645.68,-1560.06C1692.85,-1495.04 1862.43,-1261.32 1918.92,-1183.45"/>
<polygon fill="black" stroke="black" points="1921.9,-1185.3 1924.94,-1175.16 1916.23,-1181.19 1921.9,-1185.3"/>
</g>
<!-- u16 -->
<g id="node17" class="node">
<title>u16</title>
<ellipse fill="#ffff77" stroke="black" cx="1905.39" cy="-596" rx="167.87" ry="18"/>
<text text-anchor="middle" x="1905.39" y="-592.3" font-family="Times,serif" font-size="14.00">Language.Drasil.Printing.Citation</text>
</g>
<!-- u16&#45;&gt;u14 -->
<g id="edge23" class="edge">
<title>u16&#45;&gt;u14</title>
<path fill="none" stroke="black" d="M1905.97,-577.97C1908.67,-498.25 1920.11,-161.78 1923.46,-63.23"/>
<polygon fill="black" stroke="black" points="1926.96,-63.29 1923.8,-53.18 1919.96,-63.05 1926.96,-63.29"/>
</g>
<!-- u15 -->
<g id="node18" class="node">
<title>u15</title>
<ellipse fill="#ffff77" stroke="black" cx="2617.39" cy="-175" rx="223.66" ry="18"/>
<text text-anchor="middle" x="2617.39" y="-171.3" font-family="Times,serif" font-size="14.00">Language.Drasil.Printing.PrintingInformation</text>
</g>
<!-- u13&#45;&gt;u16 -->
<g id="edge22" class="edge">
<title>u13&#45;&gt;u16</title>
<path fill="none" stroke="black" d="M1255.99,-720.1C1392.6,-694.2 1672.97,-641.06 1816.47,-613.85"/>
<polygon fill="black" stroke="black" points="1817.39,-617.24 1826.56,-611.94 1816.09,-610.37 1817.39,-617.24"/>
</g>
<!-- u5 -->
<g id="node30" class="node">
<title>u5</title>
<ellipse fill="#7777ff" stroke="black" cx="2194.39" cy="-1017" rx="212.56" ry="18"/>
<text text-anchor="middle" x="2194.39" y="-1013.3" font-family="Times,serif" font-size="14.00">Language.Drasil.Printing.Import.Document</text>
</g>
<!-- u3&#45;&gt;u5 -->
<g id="edge7" class="edge">
<title>u3&#45;&gt;u5</title>
<path fill="none" stroke="black" d="M1968.64,-1139.22C2015.21,-1114.21 2102.8,-1067.18 2154.11,-1039.63"/>
<polygon fill="black" stroke="black" points="2155.79,-1042.7 2162.95,-1034.88 2152.48,-1036.53 2155.79,-1042.7"/>
</g>
<!-- u2&#45;&gt;u16 -->
<g id="edge6" class="edge">
<title>u2&#45;&gt;u16</title>
<path fill="none" stroke="black" d="M1940.13,-858.97C1933.92,-812.17 1916.57,-681.35 1909,-624.24"/>
<polygon fill="black" stroke="black" points="1912.45,-623.62 1907.66,-614.16 1905.51,-624.54 1912.45,-623.62"/>
</g>
<!-- u12 -->
<g id="node23" class="node">
<title>u12</title>
<ellipse fill="#7777ff" stroke="black" cx="2347.39" cy="-877" rx="207.96" ry="18"/>
<text text-anchor="middle" x="2347.39" y="-873.3" font-family="Times,serif" font-size="14.00">Language.Drasil.Printing.Import.Sentence</text>
</g>
<!-- u9 -->
<g id="node26" class="node">
<title>u9</title>
<ellipse fill="#7777ff" stroke="black" cx="2328.39" cy="-736" rx="216.36" ry="18"/>
<text text-anchor="middle" x="2328.39" y="-732.3" font-family="Times,serif" font-size="14.00">Language.Drasil.Printing.Import.ModelExpr</text>
</g>
<!-- u12&#45;&gt;u9 -->
<g id="edge21" class="edge">
<title>u12&#45;&gt;u9</title>
<path fill="none" stroke="black" d="M2345.06,-858.96C2341.82,-835.3 2335.94,-792.26 2332.1,-764.15"/>
<polygon fill="black" stroke="black" points="2335.56,-763.62 2330.74,-754.18 2328.62,-764.57 2335.56,-763.62"/>
</g>
<!-- u11 -->
<g id="node24" class="node">
<title>u11</title>
<ellipse fill="#7777ff" stroke="black" cx="2582.39" cy="-316" rx="196.07" ry="18"/>
<text text-anchor="middle" x="2582.39" y="-312.3" font-family="Times,serif" font-size="14.00">Language.Drasil.Printing.Import.Literal</text>
</g>
<!-- u11&#45;&gt;u15 -->
<g id="edge20" class="edge">
<title>u11&#45;&gt;u15</title>
<path fill="none" stroke="black" d="M2586.68,-297.96C2592.63,-274.3 2603.47,-231.26 2610.55,-203.15"/>
<polygon fill="black" stroke="black" points="2614.01,-203.74 2613.06,-193.18 2607.22,-202.03 2614.01,-203.74"/>
</g>
<!-- u4 -->
<g id="node31" class="node">
<title>u4</title>
<ellipse fill="#7777ff" stroke="black" cx="2173.39" cy="-175" rx="202.26" ry="18"/>
<text text-anchor="middle" x="2173.39" y="-171.3" font-family="Times,serif" font-size="14.00">Language.Drasil.Printing.Import.Helpers</text>
</g>
<!-- u11&#45;&gt;u4 -->
<g id="edge19" class="edge">
<title>u11&#45;&gt;u4</title>
<path fill="none" stroke="black" d="M2533.86,-298.51C2458.32,-272.84 2312.88,-223.41 2231.73,-195.83"/>
<polygon fill="black" stroke="black" points="2232.76,-192.48 2222.16,-192.58 2230.51,-199.11 2232.76,-192.48"/>
</g>
<!-- u10 -->
<g id="node25" class="node">
<title>u10</title>
<ellipse fill="#7777ff" stroke="black" cx="2323.39" cy="-596" rx="193.07" ry="18"/>
<text text-anchor="middle" x="2323.39" y="-592.3" font-family="Times,serif" font-size="14.00">Language.Drasil.Printing.Import.Space</text>
</g>
<!-- u8 -->
<g id="node27" class="node">
<title>u8</title>
<ellipse fill="#7777ff" stroke="black" cx="2166.39" cy="-456" rx="187.67" ry="18"/>
<text text-anchor="middle" x="2166.39" y="-452.3" font-family="Times,serif" font-size="14.00">Language.Drasil.Printing.Import.Expr</text>
</g>
<!-- u10&#45;&gt;u8 -->
<g id="edge18" class="edge">
<title>u10&#45;&gt;u8</title>
<path fill="none" stroke="black" d="M2304.14,-578.08C2276.36,-553.66 2224.91,-508.44 2193.36,-480.71"/>
<polygon fill="black" stroke="black" points="2195.62,-478.03 2185.8,-474.06 2191,-483.29 2195.62,-478.03"/>
</g>
<!-- u9&#45;&gt;u10 -->
<g id="edge17" class="edge">
<title>u9&#45;&gt;u10</title>
<path fill="none" stroke="black" d="M2327.76,-717.8C2326.92,-694.46 2325.4,-652.47 2324.39,-624.66"/>
<polygon fill="black" stroke="black" points="2327.88,-624.28 2324.02,-614.42 2320.88,-624.54 2327.88,-624.28"/>
</g>
<!-- u8&#45;&gt;u11 -->
<g id="edge16" class="edge">
<title>u8&#45;&gt;u11</title>
<path fill="none" stroke="black" d="M2215.74,-438.63C2292.57,-413.14 2440.51,-364.07 2523.04,-336.69"/>
<polygon fill="black" stroke="black" points="2524.38,-339.93 2532.77,-333.46 2522.18,-333.28 2524.38,-339.93"/>
</g>
<!-- u6 -->
<g id="node29" class="node">
<title>u6</title>
<ellipse fill="#7777ff" stroke="black" cx="2166.39" cy="-316" rx="200.36" ry="18"/>
<text text-anchor="middle" x="2166.39" y="-312.3" font-family="Times,serif" font-size="14.00">Language.Drasil.Printing.Import.Symbol</text>
</g>
<!-- u8&#45;&gt;u6 -->
<g id="edge15" class="edge">
<title>u8&#45;&gt;u6</title>
<path fill="none" stroke="black" d="M2166.39,-437.8C2166.39,-414.46 2166.39,-372.47 2166.39,-344.66"/>
<polygon fill="black" stroke="black" points="2169.89,-344.42 2166.39,-334.42 2162.89,-344.42 2169.89,-344.42"/>
</g>
<!-- u7 -->
<g id="node28" class="node">
<title>u7</title>
<ellipse fill="#7777ff" stroke="black" cx="2583.39" cy="-456" rx="211.46" ry="18"/>
<text text-anchor="middle" x="2583.39" y="-452.3" font-family="Times,serif" font-size="14.00">Language.Drasil.Printing.Import.CodeExpr</text>
</g>
<!-- u7&#45;&gt;u11 -->
<g id="edge14" class="edge">
<title>u7&#45;&gt;u11</title>
<path fill="none" stroke="black" d="M2583.26,-437.8C2583.09,-414.46 2582.79,-372.47 2582.59,-344.66"/>
<polygon fill="black" stroke="black" points="2586.09,-344.39 2582.51,-334.42 2579.09,-344.44 2586.09,-344.39"/>
</g>
<!-- u7&#45;&gt;u6 -->
<g id="edge13" class="edge">
<title>u7&#45;&gt;u6</title>
<path fill="none" stroke="black" d="M2533.5,-438.49C2456.43,-412.99 2308.7,-364.1 2226.07,-336.75"/>
<polygon fill="black" stroke="black" points="2226.92,-333.35 2216.33,-333.53 2224.72,-339.99 2226.92,-333.35"/>
</g>
<!-- u6&#45;&gt;u14 -->
<g id="edge12" class="edge">
<title>u6&#45;&gt;u14</title>
<path fill="none" stroke="black" d="M2117.47,-298.48C2070.56,-280.1 2001.29,-245.84 1962.39,-193 1933.88,-154.28 1926.51,-97.01 1924.76,-63.4"/>
<polygon fill="black" stroke="black" points="1928.25,-63.22 1924.36,-53.37 1921.26,-63.5 1928.25,-63.22"/>
</g>
<!-- u5&#45;&gt;u2 -->
<g id="edge9" class="edge">
<title>u5&#45;&gt;u2</title>
<path fill="none" stroke="black" d="M2163.49,-999.08C2117.83,-974.08 2032.35,-927.27 1982.1,-899.75"/>
<polygon fill="black" stroke="black" points="1983.6,-896.58 1973.14,-894.84 1980.23,-902.72 1983.6,-896.58"/>
</g>
<!-- u5&#45;&gt;u12 -->
<g id="edge11" class="edge">
<title>u5&#45;&gt;u12</title>
<path fill="none" stroke="black" d="M2213.45,-998.8C2240.52,-974.39 2290.17,-929.61 2320.83,-901.96"/>
<polygon fill="black" stroke="black" points="2323.48,-904.28 2328.56,-894.98 2318.79,-899.08 2323.48,-904.28"/>
</g>
<!-- u5&#45;&gt;u7 -->
<g id="edge10" class="edge">
<title>u5&#45;&gt;u7</title>
<path fill="none" stroke="black" d="M2352.84,-1004.98C2429.24,-990.87 2514.86,-960.28 2564.39,-895 2659.98,-769.01 2612.91,-559 2591.79,-484.35"/>
<polygon fill="black" stroke="black" points="2595.04,-482.98 2588.88,-474.35 2588.31,-484.93 2595.04,-482.98"/>
</g>
<!-- u4&#45;&gt;u14 -->
<g id="edge8" class="edge">
<title>u4&#45;&gt;u14</title>
<path fill="none" stroke="black" d="M2142.85,-157.08C2097.74,-132.08 2013.28,-85.27 1963.63,-57.75"/>
<polygon fill="black" stroke="black" points="1965.22,-54.63 1954.78,-52.84 1961.83,-60.75 1965.22,-54.63"/>
</g>
<!-- u30 -->
<g id="node32" class="node">
<title>u30</title>
<ellipse fill="#ff7777" stroke="black" cx="1602.39" cy="-1157" rx="154.07" ry="18"/>
<text text-anchor="middle" x="1602.39" y="-1153.3" font-family="Times,serif" font-size="14.00">Language.Drasil.TeX.Preamble</text>
</g>
<!-- u30&#45;&gt;u2 -->
<g id="edge42" class="edge">
<title>u30&#45;&gt;u2</title>
<path fill="none" stroke="black" d="M1624.69,-1139.05C1655,-1115.9 1710.79,-1072.93 1757.39,-1035 1814.33,-988.64 1879.5,-932.62 1915.29,-901.59"/>
<polygon fill="black" stroke="black" points="1917.64,-904.19 1922.89,-895 1913.05,-898.91 1917.64,-904.19"/>
</g>
<!-- u27 -->
<g id="node35" class="node">
<title>u27</title>
<ellipse fill="#ff7777" stroke="black" cx="1602.39" cy="-1017" rx="146.47" ry="18"/>
<text text-anchor="middle" x="1602.39" y="-1013.3" font-family="Times,serif" font-size="14.00">Language.Drasil.TeX.Helpers</text>
</g>
<!-- u30&#45;&gt;u27 -->
<g id="edge43" class="edge">
<title>u30&#45;&gt;u27</title>
<path fill="none" stroke="black" d="M1602.39,-1138.8C1602.39,-1115.46 1602.39,-1073.47 1602.39,-1045.66"/>
<polygon fill="black" stroke="black" points="1605.89,-1045.42 1602.39,-1035.42 1598.89,-1045.42 1605.89,-1045.42"/>
</g>
<!-- u29&#45;&gt;u3 -->
<g id="edge40" class="edge">
<title>u29&#45;&gt;u3</title>
<path fill="none" stroke="black" d="M1641.8,-1279.76C1703.04,-1254.54 1820.95,-1205.97 1887.85,-1178.4"/>
<polygon fill="black" stroke="black" points="1889.43,-1181.54 1897.34,-1174.5 1886.76,-1175.07 1889.43,-1181.54"/>
</g>
<!-- u29&#45;&gt;u30 -->
<g id="edge41" class="edge">
<title>u29&#45;&gt;u30</title>
<path fill="none" stroke="black" d="M1602.39,-1278.8C1602.39,-1255.46 1602.39,-1213.47 1602.39,-1185.66"/>
<polygon fill="black" stroke="black" points="1605.89,-1185.42 1602.39,-1175.42 1598.89,-1185.42 1605.89,-1185.42"/>
</g>
<!-- u28 -->
<g id="node34" class="node">
<title>u28</title>
<ellipse fill="#ff7777" stroke="black" cx="1347.39" cy="-877" rx="141.88" ry="18"/>
<text text-anchor="middle" x="1347.39" y="-873.3" font-family="Times,serif" font-size="14.00">Language.Drasil.TeX.Monad</text>
</g>
<!-- u28&#45;&gt;u13 -->
<g id="edge39" class="edge">
<title>u28&#45;&gt;u13</title>
<path fill="none" stroke="black" d="M1326.54,-858.96C1296.25,-834.19 1239.98,-788.18 1205.88,-760.3"/>
<polygon fill="black" stroke="black" points="1208.09,-757.59 1198.14,-753.97 1203.66,-763.01 1208.09,-757.59"/>
</g>
<!-- u27&#45;&gt;u1 -->
<g id="edge37" class="edge">
<title>u27&#45;&gt;u1</title>
<path fill="none" stroke="black" d="M1605.38,-998.8C1609.46,-975.35 1616.8,-933.09 1621.64,-905.29"/>
<polygon fill="black" stroke="black" points="1625.09,-905.87 1623.36,-895.42 1618.2,-904.67 1625.09,-905.87"/>
</g>
<!-- u27&#45;&gt;u28 -->
<g id="edge38" class="edge">
<title>u27&#45;&gt;u28</title>
<path fill="none" stroke="black" d="M1571.63,-999.35C1525.49,-974.38 1438.34,-927.22 1387.34,-899.62"/>
<polygon fill="black" stroke="black" points="1388.72,-896.39 1378.25,-894.71 1385.38,-902.54 1388.72,-896.39"/>
</g>
</g>
</svg>
