<?xml version="1.0" encoding="UTF-8" standalone="no"?>
<!DOCTYPE svg PUBLIC "-//W3C//DTD SVG 1.1//EN"
 "http://www.w3.org/Graphics/SVG/1.1/DTD/svg11.dtd">
<!-- Generated by graphviz version 2.43.0 (0)
 -->
<!-- Title: G Pages: 1 -->
<svg width="430pt" height="288pt"
 viewBox="0.00 0.00 430.42 288.00" xmlns="http://www.w3.org/2000/svg" xmlns:xlink="http://www.w3.org/1999/xlink">
<g id="graph0" class="graph" transform="scale(0.4 0.4) rotate(0) translate(4 718.67)">
<title>G</title>
<polygon fill="white" stroke="transparent" points="-4,4 -4,-718.67 1076.03,-718.67 1076.03,4 -4,4"/>
<!-- u0 -->
<g id="node1" class="node">
<title>u0</title>
<ellipse fill="#bbffbb" stroke="black" cx="446.34" cy="-255" rx="141.88" ry="18"/>
<text text-anchor="middle" x="446.34" y="-251.3" font-family="Times,serif" font-size="14.00">Data.Drasil.TheoryConcepts</text>
</g>
<!-- u1 -->
<g id="node2" class="node">
<title>u1</title>
<ellipse fill="#ffffbb" stroke="black" cx="580.34" cy="-664" rx="72.29" ry="18"/>
<text text-anchor="middle" x="580.34" y="-660.3" font-family="Times,serif" font-size="14.00">Theory.Drasil</text>
</g>
<!-- u9 -->
<g id="node3" class="node">
<title>u9</title>
<ellipse fill="#bbbbff" stroke="black" cx="142.34" cy="-459" rx="142.17" ry="18"/>
<text text-anchor="middle" x="142.34" y="-455.3" font-family="Times,serif" font-size="14.00">Theory.Drasil.DataDefinition</text>
</g>
<!-- u1&#45;&gt;u9 -->
<g id="edge4" class="edge">
<title>u1&#45;&gt;u9</title>
<path fill="none" stroke="black" d="M547.77,-647.91C470.4,-612.05 275.41,-521.67 187.07,-480.73"/>
<polygon fill="black" stroke="black" points="188.39,-477.49 177.85,-476.46 185.45,-483.84 188.39,-477.49"/>
</g>
<!-- u8 -->
<g id="node4" class="node">
<title>u8</title>
<ellipse fill="#bbbbff" stroke="black" cx="715.34" cy="-459" rx="107.48" ry="18"/>
<text text-anchor="middle" x="715.34" y="-455.3" font-family="Times,serif" font-size="14.00">Theory.Drasil.Theory</text>
</g>
<!-- u1&#45;&gt;u8 -->
<g id="edge3" class="edge">
<title>u1&#45;&gt;u8</title>
<path fill="none" stroke="black" d="M591.62,-646.04C615.29,-610.44 670.29,-527.74 698.29,-485.63"/>
<polygon fill="black" stroke="black" points="701.37,-487.32 704,-477.05 695.54,-483.44 701.37,-487.32"/>
</g>
<!-- u5 -->
<g id="node7" class="node">
<title>u5</title>
<ellipse fill="#bbbbff" stroke="black" cx="956.34" cy="-459" rx="115.88" ry="18"/>
<text text-anchor="middle" x="956.34" y="-455.3" font-family="Times,serif" font-size="14.00">Theory.Drasil.GenDefn</text>
</g>
<!-- u1&#45;&gt;u5 -->
<g id="edge2" class="edge">
<title>u1&#45;&gt;u5</title>
<path fill="none" stroke="black" d="M609.22,-647.41C675.98,-611.37 841.07,-522.23 916.99,-481.24"/>
<polygon fill="black" stroke="black" points="918.66,-484.32 925.79,-476.49 915.33,-478.16 918.66,-484.32"/>
</g>
<!-- u3 -->
<g id="node9" class="node">
<title>u3</title>
<ellipse fill="#bbbbff" stroke="black" cx="446.34" cy="-459" rx="143.77" ry="18"/>
<text text-anchor="middle" x="446.34" y="-455.3" font-family="Times,serif" font-size="14.00">Theory.Drasil.InstanceModel</text>
</g>
<!-- u1&#45;&gt;u3 -->
<g id="edge1" class="edge">
<title>u1&#45;&gt;u3</title>
<path fill="none" stroke="black" d="M569.14,-646.04C545.64,-610.44 491.05,-527.74 463.26,-485.63"/>
<polygon fill="black" stroke="black" points="466.02,-483.47 457.59,-477.05 460.18,-487.33 466.02,-483.47"/>
</g>
<!-- u9&#45;&gt;u0 -->
<g id="edge14" class="edge">
<title>u9&#45;&gt;u0</title>
<path fill="none" stroke="black" d="M167.73,-441.13C222.27,-404.88 350.64,-319.59 412.22,-278.67"/>
<polygon fill="black" stroke="black" points="414.41,-281.42 420.8,-272.97 410.53,-275.59 414.41,-281.42"/>
</g>
<!-- u6 -->
<g id="node6" class="node">
<title>u6</title>
<ellipse fill="#bbbbff" stroke="black" cx="159.34" cy="-255" rx="110.48" ry="18"/>
<text text-anchor="middle" x="159.34" y="-251.3" font-family="Times,serif" font-size="14.00">Theory.Drasil.Classes</text>
</g>
<!-- u9&#45;&gt;u6 -->
<g id="edge15" class="edge">
<title>u9&#45;&gt;u6</title>
<path fill="none" stroke="black" d="M143.79,-440.78C146.74,-405.67 153.48,-325.59 157.04,-283.31"/>
<polygon fill="black" stroke="black" points="160.54,-283.44 157.89,-273.18 153.57,-282.85 160.54,-283.44"/>
</g>
<!-- u8&#45;&gt;u0 -->
<g id="edge12" class="edge">
<title>u8&#45;&gt;u0</title>
<path fill="none" stroke="black" d="M692.87,-441.13C644.8,-405.03 531.95,-320.29 477.2,-279.18"/>
<polygon fill="black" stroke="black" points="479.03,-276.18 468.93,-272.97 474.83,-281.77 479.03,-276.18"/>
</g>
<!-- u7 -->
<g id="node5" class="node">
<title>u7</title>
<ellipse fill="#bbbbff" stroke="black" cx="736.34" cy="-255" rx="129.98" ry="18"/>
<text text-anchor="middle" x="736.34" y="-251.3" font-family="Times,serif" font-size="14.00">Theory.Drasil.ModelKinds</text>
</g>
<!-- u8&#45;&gt;u7 -->
<g id="edge13" class="edge">
<title>u8&#45;&gt;u7</title>
<path fill="none" stroke="black" d="M717.13,-440.78C720.78,-405.67 729.1,-325.59 733.5,-283.31"/>
<polygon fill="black" stroke="black" points="737,-283.49 734.55,-273.18 730.04,-282.76 737,-283.49"/>
</g>
<!-- u4 -->
<g id="node8" class="node">
<title>u4</title>
<ellipse fill="#bbbbff" stroke="black" cx="596.34" cy="-51" rx="139.98" ry="18"/>
<text text-anchor="middle" x="596.34" y="-47.3" font-family="Times,serif" font-size="14.00">Theory.Drasil.ConstraintSet</text>
</g>
<!-- u7&#45;&gt;u4 -->
<g id="edge11" class="edge">
<title>u7&#45;&gt;u4</title>
<path fill="none" stroke="black" d="M724.4,-236.78C699.71,-201.15 642.91,-119.19 613.97,-77.45"/>
<polygon fill="black" stroke="black" points="616.82,-75.4 608.24,-69.18 611.06,-79.39 616.82,-75.4"/>
</g>
<!-- u2 -->
<g id="node10" class="node">
<title>u2</title>
<ellipse fill="#bbbbff" stroke="black" cx="876.34" cy="-51" rx="122.38" ry="18"/>
<text text-anchor="middle" x="876.34" y="-47.3" font-family="Times,serif" font-size="14.00">Theory.Drasil.MultiDefn</text>
</g>
<!-- u7&#45;&gt;u2 -->
<g id="edge10" class="edge">
<title>u7&#45;&gt;u2</title>
<path fill="none" stroke="black" d="M748.27,-236.78C772.97,-201.15 829.77,-119.19 858.7,-77.45"/>
<polygon fill="black" stroke="black" points="861.61,-79.39 864.43,-69.18 855.86,-75.4 861.61,-79.39"/>
</g>
<!-- u5&#45;&gt;u0 -->
<g id="edge8" class="edge">
<title>u5&#45;&gt;u0</title>
<path fill="none" stroke="black" d="M915.89,-441.98C823.69,-405.46 598.08,-316.1 496.89,-276.02"/>
<polygon fill="black" stroke="black" points="498.08,-272.73 487.5,-272.3 495.5,-279.24 498.08,-272.73"/>
</g>
<!-- u5&#45;&gt;u7 -->
<g id="edge9" class="edge">
<title>u5&#45;&gt;u7</title>
<path fill="none" stroke="black" d="M937.96,-441.13C898.89,-405.26 807.49,-321.33 762.42,-279.94"/>
<polygon fill="black" stroke="black" points="764.55,-277.15 754.82,-272.97 759.82,-282.31 764.55,-277.15"/>
</g>
<!-- u3&#45;&gt;u0 -->
<g id="edge5" class="edge">
<title>u3&#45;&gt;u0</title>
<path fill="none" stroke="black" d="M446.34,-440.78C446.34,-405.67 446.34,-325.59 446.34,-283.31"/>
<polygon fill="black" stroke="black" points="449.84,-283.18 446.34,-273.18 442.84,-283.18 449.84,-283.18"/>
</g>
<!-- u3&#45;&gt;u7 -->
<g id="edge7" class="edge">
<title>u3&#45;&gt;u7</title>
<path fill="none" stroke="black" d="M470.56,-441.13C522.49,-404.96 644.54,-319.94 703.43,-278.92"/>
<polygon fill="black" stroke="black" points="705.77,-281.56 711.98,-272.97 701.77,-275.81 705.77,-281.56"/>
</g>
<!-- u3&#45;&gt;u6 -->
<g id="edge6" class="edge">
<title>u3&#45;&gt;u6</title>
<path fill="none" stroke="black" d="M422.36,-441.13C370.85,-404.87 249.58,-319.51 191.47,-278.62"/>
<polygon fill="black" stroke="black" points="193.24,-275.58 183.04,-272.68 189.21,-281.3 193.24,-275.58"/>
</g>
</g>
</svg>
