<?xml version="1.0" encoding="UTF-8" standalone="no"?>
<!DOCTYPE svg PUBLIC "-//W3C//DTD SVG 1.1//EN"
 "http://www.w3.org/Graphics/SVG/1.1/DTD/svg11.dtd">
<!-- Generated by graphviz version 2.43.0 (0)
 -->
<!-- Title: G Pages: 1 -->
<svg width="430pt" height="288pt"
 viewBox="0.00 0.00 429.95 288.00" xmlns="http://www.w3.org/2000/svg" xmlns:xlink="http://www.w3.org/1999/xlink">
<g id="graph0" class="graph" transform="scale(1.72 1.72) rotate(0) translate(4 492)">
<title>G</title>
<polygon fill="white" stroke="transparent" points="-4,4 -4,-492 736.47,-492 736.47,4 -4,4"/>
<!-- u0 -->
<g id="node1" class="node">
<title>u0</title>
<ellipse fill="#bbffbb" stroke="black" cx="363.78" cy="-439" rx="85.29" ry="18"/>
<text text-anchor="middle" x="363.78" y="-435.3" font-family="Times,serif" font-size="14.00">Database.Drasil</text>
</g>
<!-- u3 -->
<g id="node2" class="node">
<title>u3</title>
<ellipse fill="#ffffbb" stroke="black" cx="176.78" cy="-244" rx="176.57" ry="18"/>
<text text-anchor="middle" x="176.78" y="-240.3" font-family="Times,serif" font-size="14.00">Database.Drasil.SystemInformation</text>
</g>
<!-- u0&#45;&gt;u3 -->
<g id="edge2" class="edge">
<title>u0&#45;&gt;u3</title>
<path fill="none" stroke="black" d="M347.52,-421.21C314.44,-387.08 239.24,-309.45 200.63,-269.61"/>
<polygon fill="black" stroke="black" points="202.89,-266.91 193.42,-262.17 197.86,-271.78 202.89,-266.91"/>
</g>
<!-- u1 -->
<g id="node4" class="node">
<title>u1</title>
<ellipse fill="#bbbbff" stroke="black" cx="551.78" cy="-244" rx="180.87" ry="18"/>
<text text-anchor="middle" x="551.78" y="-240.3" font-family="Times,serif" font-size="14.00">Database.Drasil.ChunkDB.GetChunk</text>
</g>
<!-- u0&#45;&gt;u1 -->
<g id="edge1" class="edge">
<title>u0&#45;&gt;u1</title>
<path fill="none" stroke="black" d="M380.14,-421.21C413.39,-387.08 489,-309.45 527.81,-269.61"/>
<polygon fill="black" stroke="black" points="530.59,-271.77 535.06,-262.17 525.58,-266.89 530.59,-271.77"/>
</g>
<!-- u2 -->
<g id="node3" class="node">
<title>u2</title>
<ellipse fill="#ffffbb" stroke="black" cx="363.78" cy="-49" rx="131.88" ry="18"/>
<text text-anchor="middle" x="363.78" y="-45.3" font-family="Times,serif" font-size="14.00">Database.Drasil.ChunkDB</text>
</g>
<!-- u3&#45;&gt;u2 -->
<g id="edge4" class="edge">
<title>u3&#45;&gt;u2</title>
<path fill="none" stroke="black" d="M193.38,-225.87C226.65,-191.54 301.6,-114.18 340.05,-74.5"/>
<polygon fill="black" stroke="black" points="342.78,-76.71 347.23,-67.09 337.75,-71.84 342.78,-76.71"/>
</g>
<!-- u1&#45;&gt;u2 -->
<g id="edge3" class="edge">
<title>u1&#45;&gt;u2</title>
<path fill="none" stroke="black" d="M535.1,-225.87C501.65,-191.54 426.31,-114.18 387.65,-74.5"/>
<polygon fill="black" stroke="black" points="389.92,-71.81 380.43,-67.09 384.9,-76.69 389.92,-71.81"/>
</g>
</g>
</svg>
