<?xml version="1.0" encoding="UTF-8" standalone="no"?>
<!DOCTYPE svg PUBLIC "-//W3C//DTD SVG 1.1//EN"
 "http://www.w3.org/Graphics/SVG/1.1/DTD/svg11.dtd">
<!-- Generated by graphviz version 2.43.0 (0)
 -->
<!-- Title: G Pages: 1 -->
<svg width="432pt" height="288pt"
 viewBox="0.00 0.00 431.64 288.00" xmlns="http://www.w3.org/2000/svg" xmlns:xlink="http://www.w3.org/1999/xlink">
<g id="graph0" class="graph" transform="scale(9.57 9.57) rotate(0) translate(4 2751.33)">
<title>G</title>
<polygon fill="white" stroke="transparent" points="-4,4 -4,-2751.33 4125.58,-2751.33 4125.58,4 -4,4"/>
<!-- u25 -->
<g id="node1" class="node">
<title>u25</title>
<ellipse fill="#bbffbb" stroke="black" cx="2515.29" cy="-2020" rx="133.78" ry="18"/>
<text text-anchor="middle" x="2515.29" y="-2016.3" font-family="Times,serif" font-size="14.00">Drasil.DocumentLanguage</text>
</g>
<!-- u12 -->
<g id="node2" class="node">
<title>u12</title>
<ellipse fill="#bbffbb" stroke="black" cx="92.29" cy="-1697" rx="92.08" ry="18"/>
<text text-anchor="middle" x="92.29" y="-1693.3" font-family="Times,serif" font-size="14.00">Drasil.TraceTable</text>
</g>
<!-- u25&#45;&gt;u12 -->
<g id="edge36" class="edge">
<title>u25&#45;&gt;u12</title>
<path fill="none" stroke="black" d="M2420.91,-2007.16C2106.42,-1967.59 1065.4,-1835.6 206.29,-1715 195.52,-1713.49 184.18,-1711.85 173.01,-1710.21"/>
<polygon fill="black" stroke="black" points="173.21,-1706.7 162.81,-1708.71 172.19,-1713.63 173.21,-1706.7"/>
</g>
<!-- u9 -->
<g id="node5" class="node">
<title>u9</title>
<ellipse fill="#bbffbb" stroke="black" cx="294.29" cy="-1697" rx="79.09" ry="18"/>
<text text-anchor="middle" x="294.29" y="-1693.3" font-family="Times,serif" font-size="14.00">Drasil.DocDecl</text>
</g>
<!-- u25&#45;&gt;u9 -->
<g id="edge35" class="edge">
<title>u25&#45;&gt;u9</title>
<path fill="none" stroke="black" d="M2427.54,-2006.32C2067.28,-1954.25 705.03,-1757.36 369.38,-1708.85"/>
<polygon fill="black" stroke="black" points="369.67,-1705.36 359.28,-1707.39 368.67,-1712.29 369.67,-1705.36"/>
</g>
<!-- u0 -->
<g id="node6" class="node">
<title>u0</title>
<ellipse fill="#bbffbb" stroke="black" cx="2035.29" cy="-1697" rx="116.18" ry="18"/>
<text text-anchor="middle" x="2035.29" y="-1693.3" font-family="Times,serif" font-size="14.00">Drasil.ExtractDocDesc</text>
</g>
<!-- u25&#45;&gt;u0 -->
<g id="edge33" class="edge">
<title>u25&#45;&gt;u0</title>
<path fill="none" stroke="black" d="M2490.16,-2002.19C2409.89,-1948.51 2159.61,-1781.14 2068.71,-1720.35"/>
<polygon fill="black" stroke="black" points="2070.43,-1717.29 2060.17,-1714.64 2066.54,-1723.11 2070.43,-1717.29"/>
</g>
<!-- u28 -->
<g id="node7" class="node">
<title>u28</title>
<ellipse fill="#ffffbb" stroke="black" cx="1505.29" cy="-1697" rx="136.48" ry="18"/>
<text text-anchor="middle" x="1505.29" y="-1693.3" font-family="Times,serif" font-size="14.00">Drasil.DocLang.References</text>
</g>
<!-- u25&#45;&gt;u28 -->
<g id="edge41" class="edge">
<title>u25&#45;&gt;u28</title>
<path fill="none" stroke="black" d="M2465.55,-2003.19C2296.93,-1949.6 1747.37,-1774.94 1564.83,-1716.92"/>
<polygon fill="black" stroke="black" points="1565.73,-1713.54 1555.14,-1713.84 1563.61,-1720.21 1565.73,-1713.54"/>
</g>
<!-- u5 -->
<g id="node13" class="node">
<title>u5</title>
<ellipse fill="#bbbbff" stroke="black" cx="2390.29" cy="-1697" rx="220.96" ry="18"/>
<text text-anchor="middle" x="2390.29" y="-1693.3" font-family="Times,serif" font-size="14.00">Drasil.DocumentLanguage.TraceabilityGraph</text>
</g>
<!-- u25&#45;&gt;u5 -->
<g id="edge34" class="edge">
<title>u25&#45;&gt;u5</title>
<path fill="none" stroke="black" d="M2508.57,-2001.74C2487.97,-1948.84 2425.59,-1788.65 2400.71,-1724.74"/>
<polygon fill="black" stroke="black" points="2403.94,-1723.39 2397.05,-1715.34 2397.41,-1725.93 2403.94,-1723.39"/>
</g>
<!-- u23 -->
<g id="node19" class="node">
<title>u23</title>
<ellipse fill="#bbffff" stroke="black" cx="3329.29" cy="-1374" rx="141.88" ry="18"/>
<text text-anchor="middle" x="3329.29" y="-1370.3" font-family="Times,serif" font-size="14.00">Drasil.Sections.Introduction</text>
</g>
<!-- u25&#45;&gt;u23 -->
<g id="edge40" class="edge">
<title>u25&#45;&gt;u23</title>
<path fill="none" stroke="black" d="M2635.67,-2012C2815.87,-1994.39 3151.48,-1932.5 3310.29,-1715 3380.32,-1619.09 3352.15,-1464.35 3336.77,-1402.16"/>
<polygon fill="black" stroke="black" points="3340.12,-1401.14 3334.25,-1392.33 3333.34,-1402.88 3340.12,-1401.14"/>
</g>
<!-- u19 -->
<g id="node23" class="node">
<title>u19</title>
<ellipse fill="#bbffff" stroke="black" cx="2894.29" cy="-1374" rx="161.37" ry="18"/>
<text text-anchor="middle" x="2894.29" y="-1370.3" font-family="Times,serif" font-size="14.00">Drasil.Sections.TableOfContents</text>
</g>
<!-- u25&#45;&gt;u19 -->
<g id="edge39" class="edge">
<title>u25&#45;&gt;u19</title>
<path fill="none" stroke="black" d="M2520.67,-2001.99C2537.17,-1950.98 2590.09,-1795.64 2658.29,-1679 2723.95,-1566.72 2826.21,-1449.42 2871.45,-1399.66"/>
<polygon fill="black" stroke="black" points="2874.29,-1401.73 2878.46,-1391.99 2869.13,-1397.01 2874.29,-1401.73"/>
</g>
<!-- u16 -->
<g id="node26" class="node">
<title>u16</title>
<ellipse fill="#bbffff" stroke="black" cx="2830.29" cy="-1697" rx="163.27" ry="18"/>
<text text-anchor="middle" x="2830.29" y="-1693.3" font-family="Times,serif" font-size="14.00">Drasil.Sections.GeneralSystDesc</text>
</g>
<!-- u25&#45;&gt;u16 -->
<g id="edge38" class="edge">
<title>u25&#45;&gt;u16</title>
<path fill="none" stroke="black" d="M2532.23,-2001.74C2584.8,-1948.17 2745.33,-1784.58 2806.38,-1722.36"/>
<polygon fill="black" stroke="black" points="2809.15,-1724.54 2813.65,-1714.95 2804.15,-1719.64 2809.15,-1724.54"/>
</g>
<!-- u14 -->
<g id="node28" class="node">
<title>u14</title>
<ellipse fill="#bbffff" stroke="black" cx="3156.29" cy="-1697" rx="144.87" ry="18"/>
<text text-anchor="middle" x="3156.29" y="-1693.3" font-family="Times,serif" font-size="14.00">Drasil.Sections.Stakeholders</text>
</g>
<!-- u25&#45;&gt;u14 -->
<g id="edge37" class="edge">
<title>u25&#45;&gt;u14</title>
<path fill="none" stroke="black" d="M2548.4,-2002.42C2655.74,-1948.67 2993.99,-1779.28 3113.75,-1719.3"/>
<polygon fill="black" stroke="black" points="3115.62,-1722.28 3122.99,-1714.68 3112.48,-1716.02 3115.62,-1722.28"/>
</g>
<!-- u8 -->
<g id="node10" class="node">
<title>u8</title>
<ellipse fill="#bbbbff" stroke="black" cx="1398.29" cy="-1050" rx="159.47" ry="18"/>
<text text-anchor="middle" x="1398.29" y="-1046.3" font-family="Times,serif" font-size="14.00">Drasil.DocumentLanguage.Core</text>
</g>
<!-- u12&#45;&gt;u8 -->
<g id="edge17" class="edge">
<title>u12&#45;&gt;u8</title>
<path fill="none" stroke="black" d="M87.17,-1678.98C71.94,-1624.52 32.83,-1452.5 114.29,-1356 262.91,-1179.95 970.47,-1092.27 1267.04,-1062.77"/>
<polygon fill="black" stroke="black" points="1267.8,-1066.21 1277.41,-1061.74 1267.12,-1059.24 1267.8,-1066.21"/>
</g>
<!-- u11 -->
<g id="node3" class="node">
<title>u11</title>
<ellipse fill="#bbffbb" stroke="black" cx="3486.29" cy="-2667" rx="108.58" ry="18"/>
<text text-anchor="middle" x="3486.29" y="-2663.3" font-family="Times,serif" font-size="14.00">Drasil.SRSDocument</text>
</g>
<!-- u10 -->
<g id="node4" class="node">
<title>u10</title>
<ellipse fill="#bbffbb" stroke="black" cx="3486.29" cy="-2343" rx="81.79" ry="18"/>
<text text-anchor="middle" x="3486.29" y="-2339.3" font-family="Times,serif" font-size="14.00">Drasil.DocLang</text>
</g>
<!-- u11&#45;&gt;u10 -->
<g id="edge16" class="edge">
<title>u11&#45;&gt;u10</title>
<path fill="none" stroke="black" d="M3486.29,-2648.69C3486.29,-2595.71 3486.29,-2435.5 3486.29,-2371.17"/>
<polygon fill="black" stroke="black" points="3489.79,-2371.01 3486.29,-2361.01 3482.79,-2371.01 3489.79,-2371.01"/>
</g>
<!-- u10&#45;&gt;u25 -->
<g id="edge15" class="edge">
<title>u10&#45;&gt;u25</title>
<path fill="none" stroke="black" d="M3443,-2327.69C3286.6,-2275.99 2750.71,-2098.83 2573.04,-2040.09"/>
<polygon fill="black" stroke="black" points="2573.95,-2036.7 2563.35,-2036.89 2571.75,-2043.35 2573.95,-2036.7"/>
</g>
<!-- u1 -->
<g id="node17" class="node">
<title>u1</title>
<ellipse fill="#ffbbbb" stroke="black" cx="3486.29" cy="-2020" rx="276.75" ry="18"/>
<text text-anchor="middle" x="3486.29" y="-2016.3" font-family="Times,serif" font-size="14.00">Drasil.DocumentLanguage.Notebook.DocumentLanguage</text>
</g>
<!-- u10&#45;&gt;u1 -->
<g id="edge13" class="edge">
<title>u10&#45;&gt;u1</title>
<path fill="none" stroke="black" d="M3486.29,-2324.74C3486.29,-2272.05 3486.29,-2112.96 3486.29,-2048.54"/>
<polygon fill="black" stroke="black" points="3489.79,-2048.34 3486.29,-2038.34 3482.79,-2048.34 3489.79,-2048.34"/>
</g>
<!-- u15 -->
<g id="node27" class="node">
<title>u15</title>
<ellipse fill="#bbffff" stroke="black" cx="3951.29" cy="-2020" rx="170.07" ry="18"/>
<text text-anchor="middle" x="3951.29" y="-2016.3" font-family="Times,serif" font-size="14.00">Drasil.Sections.ReferenceMaterial</text>
</g>
<!-- u10&#45;&gt;u15 -->
<g id="edge14" class="edge">
<title>u10&#45;&gt;u15</title>
<path fill="none" stroke="black" d="M3509.99,-2325.64C3586.92,-2272.54 3829.79,-2104.87 3918.47,-2043.66"/>
<polygon fill="black" stroke="black" points="3920.56,-2046.47 3926.8,-2037.91 3916.58,-2040.71 3920.56,-2046.47"/>
</g>
<!-- u9&#45;&gt;u8 -->
<g id="edge11" class="edge">
<title>u9&#45;&gt;u8</title>
<path fill="none" stroke="black" d="M274.75,-1679.3C216.09,-1627.21 50.74,-1464.69 136.29,-1356 276.18,-1178.28 972.28,-1091.76 1266.58,-1062.67"/>
<polygon fill="black" stroke="black" points="1267.27,-1066.12 1276.88,-1061.66 1266.58,-1059.16 1267.27,-1066.12"/>
</g>
<!-- u24 -->
<g id="node18" class="node">
<title>u24</title>
<ellipse fill="#bbffff" stroke="black" cx="294.29" cy="-1374" rx="149.47" ry="18"/>
<text text-anchor="middle" x="294.29" y="-1370.3" font-family="Times,serif" font-size="14.00">Drasil.Sections.Requirements</text>
</g>
<!-- u9&#45;&gt;u24 -->
<g id="edge12" class="edge">
<title>u9&#45;&gt;u24</title>
<path fill="none" stroke="black" d="M294.29,-1678.74C294.29,-1626.05 294.29,-1466.96 294.29,-1402.54"/>
<polygon fill="black" stroke="black" points="297.79,-1402.34 294.29,-1392.34 290.79,-1402.34 297.79,-1402.34"/>
</g>
<!-- u0&#45;&gt;u8 -->
<g id="edge1" class="edge">
<title>u0&#45;&gt;u8</title>
<path fill="none" stroke="black" d="M2031.85,-1678.85C2020.39,-1625.43 1979.13,-1459.46 1890.29,-1356 1764.52,-1209.53 1550.46,-1111.13 1451.44,-1071.14"/>
<polygon fill="black" stroke="black" points="1452.52,-1067.81 1441.94,-1067.34 1449.92,-1074.31 1452.52,-1067.81"/>
</g>
<!-- u17 -->
<g id="node25" class="node">
<title>u17</title>
<ellipse fill="#bbffff" stroke="black" cx="2507.29" cy="-1374" rx="207.96" ry="18"/>
<text text-anchor="middle" x="2507.29" y="-1370.3" font-family="Times,serif" font-size="14.00">Drasil.Sections.SpecificSystemDescription</text>
</g>
<!-- u0&#45;&gt;u17 -->
<g id="edge2" class="edge">
<title>u0&#45;&gt;u17</title>
<path fill="none" stroke="black" d="M2060,-1679.19C2138.76,-1625.64 2383.9,-1458.92 2473.8,-1397.78"/>
<polygon fill="black" stroke="black" points="2475.95,-1400.55 2482.25,-1392.03 2472.02,-1394.76 2475.95,-1400.55"/>
</g>
<!-- u28&#45;&gt;u24 -->
<g id="edge48" class="edge">
<title>u28&#45;&gt;u24</title>
<path fill="none" stroke="black" d="M1447.29,-1680.63C1246.31,-1627.35 580.16,-1450.77 363.23,-1393.27"/>
<polygon fill="black" stroke="black" points="363.8,-1389.8 353.24,-1390.63 362.01,-1396.57 363.8,-1389.8"/>
</g>
<!-- u22 -->
<g id="node20" class="node">
<title>u22</title>
<ellipse fill="#bbffff" stroke="black" cx="2109.29" cy="-1374" rx="172.47" ry="18"/>
<text text-anchor="middle" x="2109.29" y="-1370.3" font-family="Times,serif" font-size="14.00">Drasil.Sections.AuxiliaryConstants</text>
</g>
<!-- u28&#45;&gt;u22 -->
<g id="edge47" class="edge">
<title>u28&#45;&gt;u22</title>
<path fill="none" stroke="black" d="M1536.49,-1679.42C1637.41,-1625.79 1954.98,-1457.01 2068.47,-1396.69"/>
<polygon fill="black" stroke="black" points="2070.36,-1399.65 2077.55,-1391.87 2067.08,-1393.47 2070.36,-1399.65"/>
</g>
<!-- u21 -->
<g id="node21" class="node">
<title>u21</title>
<ellipse fill="#bbffff" stroke="black" cx="1307.29" cy="-1374" rx="201.46" ry="18"/>
<text text-anchor="middle" x="1307.29" y="-1370.3" font-family="Times,serif" font-size="14.00">Drasil.Sections.TableOfAbbAndAcronyms</text>
</g>
<!-- u28&#45;&gt;u21 -->
<g id="edge46" class="edge">
<title>u28&#45;&gt;u21</title>
<path fill="none" stroke="black" d="M1494.65,-1678.74C1461.88,-1625.62 1362.39,-1464.33 1323.3,-1400.96"/>
<polygon fill="black" stroke="black" points="1326.22,-1399.02 1317.99,-1392.34 1320.26,-1402.69 1326.22,-1399.02"/>
</g>
<!-- u20 -->
<g id="node22" class="node">
<title>u20</title>
<ellipse fill="#bbffff" stroke="black" cx="943.29" cy="-1374" rx="144.87" ry="18"/>
<text text-anchor="middle" x="943.29" y="-1370.3" font-family="Times,serif" font-size="14.00">Drasil.Sections.TableOfUnits</text>
</g>
<!-- u28&#45;&gt;u20 -->
<g id="edge45" class="edge">
<title>u28&#45;&gt;u20</title>
<path fill="none" stroke="black" d="M1475.87,-1679.19C1381.5,-1625.29 1086.48,-1456.79 981.14,-1396.62"/>
<polygon fill="black" stroke="black" points="982.84,-1393.56 972.42,-1391.64 979.37,-1399.64 982.84,-1393.56"/>
</g>
<!-- u18 -->
<g id="node24" class="node">
<title>u18</title>
<ellipse fill="#bbffff" stroke="black" cx="1704.29" cy="-1374" rx="177.37" ry="18"/>
<text text-anchor="middle" x="1704.29" y="-1370.3" font-family="Times,serif" font-size="14.00">Drasil.Sections.TraceabilityMandGs</text>
</g>
<!-- u28&#45;&gt;u18 -->
<g id="edge44" class="edge">
<title>u28&#45;&gt;u18</title>
<path fill="none" stroke="black" d="M1515.99,-1678.74C1548.92,-1625.62 1648.91,-1464.33 1688.2,-1400.96"/>
<polygon fill="black" stroke="black" points="1691.25,-1402.69 1693.54,-1392.34 1685.3,-1399 1691.25,-1402.69"/>
</g>
<!-- u28&#45;&gt;u17 -->
<g id="edge43" class="edge">
<title>u28&#45;&gt;u17</title>
<path fill="none" stroke="black" d="M1554.64,-1680.19C1721.25,-1626.82 2262.73,-1453.35 2446,-1394.63"/>
<polygon fill="black" stroke="black" points="2447.3,-1397.9 2455.75,-1391.51 2445.16,-1391.23 2447.3,-1397.9"/>
</g>
<!-- u13 -->
<g id="node29" class="node">
<title>u13</title>
<ellipse fill="#bbffff" stroke="black" cx="621.29" cy="-1374" rx="159.47" ry="18"/>
<text text-anchor="middle" x="621.29" y="-1370.3" font-family="Times,serif" font-size="14.00">Drasil.Sections.TableOfSymbols</text>
</g>
<!-- u28&#45;&gt;u13 -->
<g id="edge42" class="edge">
<title>u28&#45;&gt;u13</title>
<path fill="none" stroke="black" d="M1460.85,-1679.86C1313.04,-1626.19 838.2,-1453.76 676.11,-1394.91"/>
<polygon fill="black" stroke="black" points="676.94,-1391.49 666.35,-1391.36 674.56,-1398.06 676.94,-1391.49"/>
</g>
<!-- u27 -->
<g id="node8" class="node">
<title>u27</title>
<ellipse fill="#ffffbb" stroke="black" cx="2969.29" cy="-1050" rx="104.78" ry="18"/>
<text text-anchor="middle" x="2969.29" y="-1046.3" font-family="Times,serif" font-size="14.00">Drasil.DocLang.SRS</text>
</g>
<!-- u26 -->
<g id="node9" class="node">
<title>u26</title>
<ellipse fill="#ffffbb" stroke="black" cx="3486.29" cy="-1697" rx="129.18" ry="18"/>
<text text-anchor="middle" x="3486.29" y="-1693.3" font-family="Times,serif" font-size="14.00">Drasil.DocLang.Notebook</text>
</g>
<!-- u4 -->
<g id="node14" class="node">
<title>u4</title>
<ellipse fill="#bbbbff" stroke="black" cx="1781.29" cy="-727" rx="223.66" ry="18"/>
<text text-anchor="middle" x="1781.29" y="-723.3" font-family="Times,serif" font-size="14.00">Drasil.DocumentLanguage.TraceabilityMatrix</text>
</g>
<!-- u8&#45;&gt;u4 -->
<g id="edge10" class="edge">
<title>u8&#45;&gt;u4</title>
<path fill="none" stroke="black" d="M1418.61,-1031.97C1482.5,-978.43 1679.37,-813.42 1753.06,-751.66"/>
<polygon fill="black" stroke="black" points="1755.6,-754.1 1761.02,-744.99 1751.11,-748.73 1755.6,-754.1"/>
</g>
<!-- u7 -->
<g id="node11" class="node">
<title>u7</title>
<ellipse fill="#bbbbff" stroke="black" cx="2415.29" cy="-404" rx="187.37" ry="18"/>
<text text-anchor="middle" x="2415.29" y="-400.3" font-family="Times,serif" font-size="14.00">Drasil.DocumentLanguage.Definitions</text>
</g>
<!-- u6 -->
<g id="node12" class="node">
<title>u6</title>
<ellipse fill="#bbbbff" stroke="black" cx="2109.29" cy="-81" rx="162.47" ry="18"/>
<text text-anchor="middle" x="2109.29" y="-77.3" font-family="Times,serif" font-size="14.00">Drasil.DocumentLanguage.Units</text>
</g>
<!-- u7&#45;&gt;u6 -->
<g id="edge9" class="edge">
<title>u7&#45;&gt;u6</title>
<path fill="none" stroke="black" d="M2398.84,-385.74C2347.77,-332.17 2191.82,-168.58 2132.52,-106.36"/>
<polygon fill="black" stroke="black" points="2134.89,-103.78 2125.45,-98.95 2129.82,-108.61 2134.89,-103.78"/>
</g>
<!-- u5&#45;&gt;u27 -->
<g id="edge8" class="edge">
<title>u5&#45;&gt;u27</title>
<path fill="none" stroke="black" d="M2507.01,-1681.71C2664.84,-1655.42 2940.75,-1583.26 3064.29,-1392 3131.67,-1287.69 3033.5,-1135.6 2989.14,-1076.14"/>
<polygon fill="black" stroke="black" points="2991.84,-1073.91 2983.01,-1068.06 2986.26,-1078.14 2991.84,-1073.91"/>
</g>
<!-- u5&#45;&gt;u18 -->
<g id="edge7" class="edge">
<title>u5&#45;&gt;u18</title>
<path fill="none" stroke="black" d="M2354.38,-1679.19C2238.73,-1625.08 1876.18,-1455.43 1748.95,-1395.9"/>
<polygon fill="black" stroke="black" points="1750.39,-1392.71 1739.85,-1391.64 1747.43,-1399.05 1750.39,-1392.71"/>
</g>
<!-- u4&#45;&gt;u7 -->
<g id="edge6" class="edge">
<title>u4&#45;&gt;u7</title>
<path fill="none" stroke="black" d="M1814.49,-709.19C1921.03,-655.25 2254.32,-486.5 2372.89,-426.47"/>
<polygon fill="black" stroke="black" points="2374.7,-429.47 2382.04,-421.83 2371.54,-423.23 2374.7,-429.47"/>
</g>
<!-- u3 -->
<g id="node15" class="node">
<title>u3</title>
<ellipse fill="#ffbbbb" stroke="black" cx="3855.29" cy="-1374" rx="206.06" ry="18"/>
<text text-anchor="middle" x="3855.29" y="-1370.3" font-family="Times,serif" font-size="14.00">Drasil.DocumentLanguage.Notebook.Core</text>
</g>
<!-- u2 -->
<g id="node16" class="node">
<title>u2</title>
<ellipse fill="#ffbbbb" stroke="black" cx="3855.29" cy="-1697" rx="221.76" ry="18"/>
<text text-anchor="middle" x="3855.29" y="-1693.3" font-family="Times,serif" font-size="14.00">Drasil.DocumentLanguage.Notebook.LsnDecl</text>
</g>
<!-- u2&#45;&gt;u3 -->
<g id="edge5" class="edge">
<title>u2&#45;&gt;u3</title>
<path fill="none" stroke="black" d="M3855.29,-1678.74C3855.29,-1626.05 3855.29,-1466.96 3855.29,-1402.54"/>
<polygon fill="black" stroke="black" points="3858.79,-1402.34 3855.29,-1392.34 3851.79,-1402.34 3858.79,-1402.34"/>
</g>
<!-- u1&#45;&gt;u26 -->
<g id="edge4" class="edge">
<title>u1&#45;&gt;u26</title>
<path fill="none" stroke="black" d="M3486.29,-2001.74C3486.29,-1949.05 3486.29,-1789.96 3486.29,-1725.54"/>
<polygon fill="black" stroke="black" points="3489.79,-1725.34 3486.29,-1715.34 3482.79,-1725.34 3489.79,-1725.34"/>
</g>
<!-- u1&#45;&gt;u2 -->
<g id="edge3" class="edge">
<title>u1&#45;&gt;u2</title>
<path fill="none" stroke="black" d="M3505.87,-2001.97C3567.42,-1948.43 3757.1,-1783.42 3828.09,-1721.66"/>
<polygon fill="black" stroke="black" points="3830.51,-1724.19 3835.76,-1714.99 3825.92,-1718.91 3830.51,-1724.19"/>
</g>
<!-- u24&#45;&gt;u27 -->
<g id="edge32" class="edge">
<title>u24&#45;&gt;u27</title>
<path fill="none" stroke="black" d="M395.89,-1360.77C822.49,-1309.42 2465.74,-1111.61 2876.04,-1062.22"/>
<polygon fill="black" stroke="black" points="2876.58,-1065.69 2886.09,-1061.02 2875.74,-1058.74 2876.58,-1065.69"/>
</g>
<!-- u24&#45;&gt;u6 -->
<g id="edge31" class="edge">
<title>u24&#45;&gt;u6</title>
<path fill="none" stroke="black" d="M317.9,-1356.2C512.57,-1217.74 1850.85,-265.82 2076.9,-105.04"/>
<polygon fill="black" stroke="black" points="2079.24,-107.67 2085.36,-99.02 2075.18,-101.97 2079.24,-107.67"/>
</g>
<!-- u23&#45;&gt;u27 -->
<g id="edge30" class="edge">
<title>u23&#45;&gt;u27</title>
<path fill="none" stroke="black" d="M3310.44,-1356.14C3250.68,-1302.69 3065.29,-1136.86 2995.88,-1074.78"/>
<polygon fill="black" stroke="black" points="2998.17,-1072.14 2988.39,-1068.08 2993.51,-1077.36 2998.17,-1072.14"/>
</g>
<!-- u23&#45;&gt;u7 -->
<g id="edge29" class="edge">
<title>u23&#45;&gt;u7</title>
<path fill="none" stroke="black" d="M3318.59,-1355.82C3286.16,-1304.33 3184.97,-1147.7 3083.29,-1032 2857.56,-775.15 2539.86,-507.51 2443.86,-428.35"/>
<polygon fill="black" stroke="black" points="2445.98,-425.56 2436.03,-421.91 2441.53,-430.97 2445.98,-425.56"/>
</g>
<!-- u22&#45;&gt;u27 -->
<g id="edge28" class="edge">
<title>u22&#45;&gt;u27</title>
<path fill="none" stroke="black" d="M2153.12,-1356.59C2298.15,-1302.29 2762.07,-1128.59 2917.78,-1070.29"/>
<polygon fill="black" stroke="black" points="2919.44,-1073.4 2927.58,-1066.62 2916.99,-1066.85 2919.44,-1073.4"/>
</g>
<!-- u22&#45;&gt;u6 -->
<g id="edge27" class="edge">
<title>u22&#45;&gt;u6</title>
<path fill="none" stroke="black" d="M2109.29,-1355.73C2109.29,-1216.73 2109.29,-281.43 2109.29,-109.22"/>
<polygon fill="black" stroke="black" points="2112.79,-109.21 2109.29,-99.21 2105.79,-109.21 2112.79,-109.21"/>
</g>
<!-- u20&#45;&gt;u8 -->
<g id="edge26" class="edge">
<title>u20&#45;&gt;u8</title>
<path fill="none" stroke="black" d="M967.11,-1356.14C1043.04,-1302.41 1279.42,-1135.13 1366.05,-1073.82"/>
<polygon fill="black" stroke="black" points="1368.29,-1076.52 1374.43,-1067.89 1364.25,-1070.81 1368.29,-1076.52"/>
</g>
<!-- u19&#45;&gt;u27 -->
<g id="edge25" class="edge">
<title>u19&#45;&gt;u27</title>
<path fill="none" stroke="black" d="M2898.32,-1355.69C2910.69,-1302.6 2948.13,-1141.84 2963.06,-1077.77"/>
<polygon fill="black" stroke="black" points="2966.47,-1078.54 2965.33,-1068.01 2959.65,-1076.95 2966.47,-1078.54"/>
</g>
<!-- u19&#45;&gt;u8 -->
<g id="edge24" class="edge">
<title>u19&#45;&gt;u8</title>
<path fill="none" stroke="black" d="M2823.64,-1357.79C2575.19,-1304.32 1742.47,-1125.08 1478.96,-1068.36"/>
<polygon fill="black" stroke="black" points="1479.59,-1064.92 1469.08,-1066.24 1478.12,-1071.76 1479.59,-1064.92"/>
</g>
<!-- u18&#45;&gt;u8 -->
<g id="edge23" class="edge">
<title>u18&#45;&gt;u8</title>
<path fill="none" stroke="black" d="M1687.84,-1355.69C1636.77,-1301.95 1480.82,-1137.85 1421.52,-1075.44"/>
<polygon fill="black" stroke="black" points="1423.88,-1072.84 1414.45,-1068.01 1418.81,-1077.67 1423.88,-1072.84"/>
</g>
<!-- u17&#45;&gt;u27 -->
<g id="edge22" class="edge">
<title>u17&#45;&gt;u27</title>
<path fill="none" stroke="black" d="M2531.8,-1355.92C2609.36,-1301.86 2849.4,-1134.56 2936.93,-1073.56"/>
<polygon fill="black" stroke="black" points="2939.19,-1076.25 2945.39,-1067.66 2935.19,-1070.5 2939.19,-1076.25"/>
</g>
<!-- u17&#45;&gt;u7 -->
<g id="edge21" class="edge">
<title>u17&#45;&gt;u7</title>
<path fill="none" stroke="black" d="M2505.66,-1355.79C2494.66,-1240.09 2431.54,-575.97 2417.89,-432.37"/>
<polygon fill="black" stroke="black" points="2421.36,-431.85 2416.93,-422.23 2414.39,-432.51 2421.36,-431.85"/>
</g>
<!-- u16&#45;&gt;u27 -->
<g id="edge20" class="edge">
<title>u16&#45;&gt;u27</title>
<path fill="none" stroke="black" d="M2853.83,-1679.16C2909.27,-1637.85 3047.14,-1525.11 3097.29,-1392 3141.92,-1273.56 3038.51,-1131.87 2991.28,-1075.69"/>
<polygon fill="black" stroke="black" points="2993.9,-1073.37 2984.74,-1068.04 2988.57,-1077.91 2993.9,-1073.37"/>
</g>
<!-- u14&#45;&gt;u27 -->
<g id="edge19" class="edge">
<title>u14&#45;&gt;u27</title>
<path fill="none" stroke="black" d="M3156.18,-1678.98C3155.45,-1628.6 3150.27,-1476.17 3115.29,-1356 3083.48,-1246.69 3016.08,-1127.96 2985.27,-1076.82"/>
<polygon fill="black" stroke="black" points="2988.14,-1074.8 2979.96,-1068.07 2982.16,-1078.44 2988.14,-1074.8"/>
</g>
<!-- u13&#45;&gt;u8 -->
<g id="edge18" class="edge">
<title>u13&#45;&gt;u8</title>
<path fill="none" stroke="black" d="M661.16,-1356.48C791.62,-1302.41 1205.61,-1130.85 1348.91,-1071.47"/>
<polygon fill="black" stroke="black" points="1350.45,-1074.61 1358.35,-1067.55 1347.77,-1068.15 1350.45,-1074.61"/>
</g>
</g>
</svg>
