<?xml version="1.0" encoding="UTF-8" standalone="no"?>
<!DOCTYPE svg PUBLIC "-//W3C//DTD SVG 1.1//EN"
 "http://www.w3.org/Graphics/SVG/1.1/DTD/svg11.dtd">
<!-- Generated by graphviz version 2.43.0 (0)
 -->
<!-- Title: G Pages: 1 -->
<svg width="431pt" height="288pt"
 viewBox="0.00 0.00 431.19 288.00" xmlns="http://www.w3.org/2000/svg" xmlns:xlink="http://www.w3.org/1999/xlink">
<g id="graph0" class="graph" transform="scale(0.25 0.25) rotate(0) translate(4 1134)">
<title>G</title>
<polygon fill="white" stroke="transparent" points="-4,4 -4,-1134 1699.78,-1134 1699.78,4 -4,4"/>
<!-- u8 -->
<g id="node1" class="node">
<title>u8</title>
<ellipse fill="#bbffbb" stroke="black" cx="108.54" cy="-404" rx="108.58" ry="18"/>
<text text-anchor="middle" x="108.54" y="-400.3" font-family="Times,serif" font-size="14.00">Drasil.Website.About</text>
</g>
<!-- u7 -->
<g id="node2" class="node">
<title>u7</title>
<ellipse fill="#bbffbb" stroke="black" cx="984.54" cy="-81" rx="122.38" ry="18"/>
<text text-anchor="middle" x="984.54" y="-77.3" font-family="Times,serif" font-size="14.00">Drasil.Website.Example</text>
</g>
<!-- u6 -->
<g id="node3" class="node">
<title>u6</title>
<ellipse fill="#bbffbb" stroke="black" cx="387.54" cy="-404" rx="152.17" ry="18"/>
<text text-anchor="middle" x="387.54" y="-400.3" font-family="Times,serif" font-size="14.00">Drasil.Website.Documentation</text>
</g>
<!-- u5 -->
<g id="node4" class="node">
<title>u5</title>
<ellipse fill="#bbffbb" stroke="black" cx="696.54" cy="-404" rx="139.18" ry="18"/>
<text text-anchor="middle" x="696.54" y="-400.3" font-family="Times,serif" font-size="14.00">Drasil.Website.Introduction</text>
</g>
<!-- u4 -->
<g id="node5" class="node">
<title>u4</title>
<ellipse fill="#bbffbb" stroke="black" cx="984.54" cy="-404" rx="131.08" ry="18"/>
<text text-anchor="middle" x="984.54" y="-400.3" font-family="Times,serif" font-size="14.00">Drasil.Website.CaseStudy</text>
</g>
<!-- u4&#45;&gt;u7 -->
<g id="edge8" class="edge">
<title>u4&#45;&gt;u7</title>
<path fill="none" stroke="black" d="M984.54,-385.74C984.54,-333.05 984.54,-173.96 984.54,-109.54"/>
<polygon fill="black" stroke="black" points="988.04,-109.34 984.54,-99.34 981.04,-109.34 988.04,-109.34"/>
</g>
<!-- u3 -->
<g id="node6" class="node">
<title>u3</title>
<ellipse fill="#bbffbb" stroke="black" cx="1285.54" cy="-404" rx="151.37" ry="18"/>
<text text-anchor="middle" x="1285.54" y="-400.3" font-family="Times,serif" font-size="14.00">Drasil.Website.GettingStarted</text>
</g>
<!-- u2 -->
<g id="node7" class="node">
<title>u2</title>
<ellipse fill="#bbffbb" stroke="black" cx="1575.54" cy="-404" rx="120.48" ry="18"/>
<text text-anchor="middle" x="1575.54" y="-400.3" font-family="Times,serif" font-size="14.00">Drasil.Website.Analysis</text>
</g>
<!-- u1 -->
<g id="node8" class="node">
<title>u1</title>
<ellipse fill="#bbffbb" stroke="black" cx="840.54" cy="-726" rx="104.78" ry="18"/>
<text text-anchor="middle" x="840.54" y="-722.3" font-family="Times,serif" font-size="14.00">Drasil.Website.Body</text>
</g>
<!-- u1&#45;&gt;u8 -->
<g id="edge7" class="edge">
<title>u1&#45;&gt;u8</title>
<path fill="none" stroke="black" d="M803.99,-709.02C682.12,-655.75 289.78,-484.23 154.73,-425.19"/>
<polygon fill="black" stroke="black" points="156.02,-421.94 145.45,-421.14 153.22,-428.35 156.02,-421.94"/>
</g>
<!-- u1&#45;&gt;u6 -->
<g id="edge6" class="edge">
<title>u1&#45;&gt;u6</title>
<path fill="none" stroke="black" d="M816.82,-708.25C741.23,-654.85 505.89,-488.6 419.64,-427.68"/>
<polygon fill="black" stroke="black" points="421.48,-424.69 411.3,-421.78 417.44,-430.41 421.48,-424.69"/>
</g>
<!-- u1&#45;&gt;u5 -->
<g id="edge5" class="edge">
<title>u1&#45;&gt;u5</title>
<path fill="none" stroke="black" d="M832.8,-707.8C809.06,-655.05 737.2,-495.37 708.54,-431.66"/>
<polygon fill="black" stroke="black" points="711.62,-429.97 704.32,-422.29 705.23,-432.85 711.62,-429.97"/>
</g>
<!-- u1&#45;&gt;u4 -->
<g id="edge4" class="edge">
<title>u1&#45;&gt;u4</title>
<path fill="none" stroke="black" d="M848.28,-707.8C872.02,-655.05 943.88,-495.37 972.54,-431.66"/>
<polygon fill="black" stroke="black" points="975.85,-432.85 976.76,-422.29 969.46,-429.97 975.85,-432.85"/>
</g>
<!-- u1&#45;&gt;u3 -->
<g id="edge3" class="edge">
<title>u1&#45;&gt;u3</title>
<path fill="none" stroke="black" d="M863.84,-708.25C938.01,-654.91 1168.74,-488.99 1253.71,-427.89"/>
<polygon fill="black" stroke="black" points="1255.86,-430.65 1261.94,-421.97 1251.77,-424.97 1255.86,-430.65"/>
</g>
<!-- u1&#45;&gt;u2 -->
<g id="edge2" class="edge">
<title>u1&#45;&gt;u2</title>
<path fill="none" stroke="black" d="M877.24,-709.02C999.61,-655.75 1393.56,-484.23 1529.16,-425.19"/>
<polygon fill="black" stroke="black" points="1530.7,-428.34 1538.47,-421.14 1527.91,-421.92 1530.7,-428.34"/>
</g>
<!-- u0 -->
<g id="node9" class="node">
<title>u0</title>
<ellipse fill="#ffffbb" stroke="black" cx="840.54" cy="-1049" rx="122.38" ry="18"/>
<text text-anchor="middle" x="840.54" y="-1045.3" font-family="Times,serif" font-size="14.00">drasil&#45;website.app.Main</text>
</g>
<!-- u0&#45;&gt;u1 -->
<g id="edge1" class="edge">
<title>u0&#45;&gt;u1</title>
<path fill="none" stroke="black" d="M840.54,-1030.74C840.54,-978.05 840.54,-818.96 840.54,-754.54"/>
<polygon fill="black" stroke="black" points="844.04,-754.34 840.54,-744.34 837.04,-754.34 844.04,-754.34"/>
</g>
</g>
</svg>
