<?xml version="1.0" encoding="UTF-8" standalone="no"?>
<!DOCTYPE svg PUBLIC "-//W3C//DTD SVG 1.1//EN"
 "http://www.w3.org/Graphics/SVG/1.1/DTD/svg11.dtd">
<!-- Generated by graphviz version 2.43.0 (0)
 -->
<!-- Title: G Pages: 1 -->
<svg width="431pt" height="288pt"
 viewBox="0.00 0.00 430.53 288.00" xmlns="http://www.w3.org/2000/svg" xmlns:xlink="http://www.w3.org/1999/xlink">
<g id="graph0" class="graph" transform="scale(0.47 0.47) rotate(0) translate(4 609.33)">
<title>G</title>
<polygon fill="white" stroke="transparent" points="-4,4 -4,-609.33 912.88,-609.33 912.88,4 -4,4"/>
<!-- u5 -->
<g id="node1" class="node">
<title>u5</title>
<ellipse fill="#bbffbb" stroke="black" cx="458.39" cy="-545" rx="63.89" ry="18"/>
<text text-anchor="middle" x="458.39" y="-541.3" font-family="Times,serif" font-size="14.00">Utils.Drasil</text>
</g>
<!-- u4 -->
<g id="node2" class="node">
<title>u4</title>
<ellipse fill="#ffffbb" stroke="black" cx="114.39" cy="-303" rx="114.28" ry="18"/>
<text text-anchor="middle" x="114.39" y="-299.3" font-family="Times,serif" font-size="14.00">Utils.Drasil.Document</text>
</g>
<!-- u5&#45;&gt;u4 -->
<g id="edge5" class="edge">
<title>u5&#45;&gt;u4</title>
<path fill="none" stroke="black" d="M435.55,-528.07C375.98,-486.5 215.68,-374.67 146.69,-326.54"/>
<polygon fill="black" stroke="black" points="148.56,-323.57 138.36,-320.72 144.55,-329.31 148.56,-323.57"/>
</g>
<!-- u3 -->
<g id="node3" class="node">
<title>u3</title>
<ellipse fill="#ffffbb" stroke="black" cx="348.39" cy="-303" rx="102.08" ry="18"/>
<text text-anchor="middle" x="348.39" y="-299.3" font-family="Times,serif" font-size="14.00">Utils.Drasil.English</text>
</g>
<!-- u5&#45;&gt;u3 -->
<g id="edge4" class="edge">
<title>u5&#45;&gt;u3</title>
<path fill="none" stroke="black" d="M450.65,-527.12C431.77,-485.91 383.18,-379.9 360.45,-330.31"/>
<polygon fill="black" stroke="black" points="363.61,-328.81 356.26,-321.18 357.25,-331.73 363.61,-328.81"/>
</g>
<!-- u2 -->
<g id="node4" class="node">
<title>u2</title>
<ellipse fill="#ffffbb" stroke="black" cx="569.39" cy="-303" rx="100.98" ry="18"/>
<text text-anchor="middle" x="569.39" y="-299.3" font-family="Times,serif" font-size="14.00">Utils.Drasil.Strings</text>
</g>
<!-- u5&#45;&gt;u2 -->
<g id="edge3" class="edge">
<title>u5&#45;&gt;u2</title>
<path fill="none" stroke="black" d="M466.2,-527.12C485.26,-485.91 534.29,-379.9 557.22,-330.31"/>
<polygon fill="black" stroke="black" points="560.42,-331.72 561.44,-321.18 554.07,-328.79 560.42,-331.72"/>
</g>
<!-- u0 -->
<g id="node6" class="node">
<title>u0</title>
<ellipse fill="#ffffbb" stroke="black" cx="798.39" cy="-303" rx="110.48" ry="18"/>
<text text-anchor="middle" x="798.39" y="-299.3" font-family="Times,serif" font-size="14.00">Utils.Drasil.Directory</text>
</g>
<!-- u5&#45;&gt;u0 -->
<g id="edge2" class="edge">
<title>u5&#45;&gt;u0</title>
<path fill="none" stroke="black" d="M480.96,-528.07C539.85,-486.5 698.28,-374.67 766.46,-326.54"/>
<polygon fill="black" stroke="black" points="768.55,-329.35 774.7,-320.72 764.51,-323.63 768.55,-329.35"/>
</g>
<!-- u1 -->
<g id="node5" class="node">
<title>u1</title>
<ellipse fill="#ffffbb" stroke="black" cx="569.39" cy="-61" rx="89.08" ry="18"/>
<text text-anchor="middle" x="569.39" y="-57.3" font-family="Times,serif" font-size="14.00">Utils.Drasil.Lists</text>
</g>
<!-- u2&#45;&gt;u1 -->
<g id="edge1" class="edge">
<title>u2&#45;&gt;u1</title>
<path fill="none" stroke="black" d="M569.39,-284.74C569.39,-243.49 569.39,-138.9 569.39,-89.13"/>
<polygon fill="black" stroke="black" points="572.89,-89.1 569.39,-79.1 565.89,-89.1 572.89,-89.1"/>
</g>
</g>
</svg>
