<?xml version="1.0" encoding="UTF-8" standalone="no"?>
<!DOCTYPE svg PUBLIC "-//W3C//DTD SVG 1.1//EN"
 "http://www.w3.org/Graphics/SVG/1.1/DTD/svg11.dtd">
<!-- Generated by graphviz version 2.43.0 (0)
 -->
<!-- Title: G Pages: 1 -->
<svg width="432pt" height="288pt"
 viewBox="0.00 0.00 431.68 288.00" xmlns="http://www.w3.org/2000/svg" xmlns:xlink="http://www.w3.org/1999/xlink">
<g id="graph0" class="graph" transform="scale(0.1 0.1) rotate(0) translate(4 2792)">
<title>G</title>
<polygon fill="white" stroke="transparent" points="-4,4 -4,-2792 4186.87,-2792 4186.87,4 -4,4"/>
<!-- u28 -->
<g id="node1" class="node">
<title>u28</title>
<ellipse fill="#bbffbb" stroke="black" cx="2772.23" cy="-1722" rx="79.09" ry="18"/>
<text text-anchor="middle" x="2772.23" y="-1718.3" font-family="Times,serif" font-size="14.00">Drasil.DocDecl</text>
</g>
<!-- u11 -->
<g id="node10" class="node">
<title>u11</title>
<ellipse fill="#bbbbff" stroke="black" cx="3293.23" cy="-1066" rx="159.47" ry="18"/>
<text text-anchor="middle" x="3293.23" y="-1062.3" font-family="Times,serif" font-size="14.00">Drasil.DocumentLanguage.Core</text>
</g>
<!-- u28&#45;&gt;u11 -->
<g id="edge55" class="edge">
<title>u28&#45;&gt;u11</title>
<path fill="none" stroke="black" d="M2829.61,-1709.51C3007.51,-1672.62 3543.84,-1551.37 3642.23,-1412 3741.87,-1270.88 3464.75,-1136.88 3345.17,-1087.25"/>
<polygon fill="black" stroke="black" points="3346.39,-1083.97 3335.81,-1083.4 3343.73,-1090.44 3346.39,-1083.97"/>
</g>
<!-- u27 -->
<g id="node18" class="node">
<title>u27</title>
<ellipse fill="#bbffff" stroke="black" cx="1962.23" cy="-1394" rx="149.47" ry="18"/>
<text text-anchor="middle" x="1962.23" y="-1390.3" font-family="Times,serif" font-size="14.00">Drasil.Sections.Requirements</text>
</g>
<!-- u28&#45;&gt;u27 -->
<g id="edge56" class="edge">
<title>u28&#45;&gt;u27</title>
<path fill="none" stroke="black" d="M2735.06,-1706.04C2603.88,-1653.24 2162.51,-1475.61 2012.57,-1415.26"/>
<polygon fill="black" stroke="black" points="2013.71,-1411.94 2003.12,-1411.46 2011.09,-1418.44 2013.71,-1411.94"/>
</g>
<!-- u12 -->
<g id="node2" class="node">
<title>u12</title>
<ellipse fill="#bbffbb" stroke="black" cx="2935.23" cy="-2706" rx="108.58" ry="18"/>
<text text-anchor="middle" x="2935.23" y="-2702.3" font-family="Times,serif" font-size="14.00">Drasil.SRSDocument</text>
</g>
<!-- u2 -->
<g id="node4" class="node">
<title>u2</title>
<ellipse fill="#bbffbb" stroke="black" cx="2935.23" cy="-2378" rx="81.79" ry="18"/>
<text text-anchor="middle" x="2935.23" y="-2374.3" font-family="Times,serif" font-size="14.00">Drasil.DocLang</text>
</g>
<!-- u12&#45;&gt;u2 -->
<g id="edge24" class="edge">
<title>u12&#45;&gt;u2</title>
<path fill="none" stroke="black" d="M2935.23,-2687.93C2935.23,-2634.8 2935.23,-2472.02 2935.23,-2406.62"/>
<polygon fill="black" stroke="black" points="2938.73,-2406.29 2935.23,-2396.29 2931.73,-2406.29 2938.73,-2406.29"/>
</g>
<!-- u3 -->
<g id="node3" class="node">
<title>u3</title>
<ellipse fill="#bbffbb" stroke="black" cx="3292.23" cy="-1722" rx="92.08" ry="18"/>
<text text-anchor="middle" x="3292.23" y="-1718.3" font-family="Times,serif" font-size="14.00">Drasil.TraceTable</text>
</g>
<!-- u3&#45;&gt;u11 -->
<g id="edge14" class="edge">
<title>u3&#45;&gt;u11</title>
<path fill="none" stroke="black" d="M3333.43,-1705.8C3422.54,-1670.39 3631.71,-1572.96 3713.23,-1412 3797.97,-1244.71 3498.04,-1129.24 3359.61,-1085.96"/>
<polygon fill="black" stroke="black" points="3360.52,-1082.57 3349.93,-1082.96 3358.45,-1089.26 3360.52,-1082.57"/>
</g>
<!-- u0 -->
<g id="node6" class="node">
<title>u0</title>
<ellipse fill="#bbffbb" stroke="black" cx="2541.23" cy="-2050" rx="133.78" ry="18"/>
<text text-anchor="middle" x="2541.23" y="-2046.3" font-family="Times,serif" font-size="14.00">Drasil.DocumentLanguage</text>
</g>
<!-- u2&#45;&gt;u0 -->
<g id="edge12" class="edge">
<title>u2&#45;&gt;u0</title>
<path fill="none" stroke="black" d="M2915.15,-2360.39C2850.09,-2306.55 2644.95,-2136.82 2569.47,-2074.36"/>
<polygon fill="black" stroke="black" points="2571.68,-2071.65 2561.75,-2067.97 2567.22,-2077.04 2571.68,-2071.65"/>
</g>
<!-- u6 -->
<g id="node17" class="node">
<title>u6</title>
<ellipse fill="#ffbbbb" stroke="black" cx="3572.23" cy="-2050" rx="276.75" ry="18"/>
<text text-anchor="middle" x="3572.23" y="-2046.3" font-family="Times,serif" font-size="14.00">Drasil.DocumentLanguage.Notebook.DocumentLanguage</text>
</g>
<!-- u2&#45;&gt;u6 -->
<g id="edge13" class="edge">
<title>u2&#45;&gt;u6</title>
<path fill="none" stroke="black" d="M2965.96,-2361.28C3070.13,-2307.97 3410.06,-2134 3529.93,-2072.65"/>
<polygon fill="black" stroke="black" points="3531.86,-2075.59 3539.17,-2067.92 3528.68,-2069.36 3531.86,-2075.59"/>
</g>
<!-- u1 -->
<g id="node5" class="node">
<title>u1</title>
<ellipse fill="#bbffbb" stroke="black" cx="2986.23" cy="-1722" rx="116.18" ry="18"/>
<text text-anchor="middle" x="2986.23" y="-1718.3" font-family="Times,serif" font-size="14.00">Drasil.ExtractDocDesc</text>
</g>
<!-- u1&#45;&gt;u11 -->
<g id="edge10" class="edge">
<title>u1&#45;&gt;u11</title>
<path fill="none" stroke="black" d="M3078.2,-1710.92C3232.9,-1688.46 3541.37,-1618.74 3675.23,-1412 3773.1,-1260.85 3480.24,-1133.9 3351.11,-1086.7"/>
<polygon fill="black" stroke="black" points="3351.95,-1083.28 3341.36,-1083.17 3349.57,-1089.87 3351.95,-1083.28"/>
</g>
<!-- u23 -->
<g id="node22" class="node">
<title>u23</title>
<ellipse fill="#bbffff" stroke="black" cx="2712.23" cy="-1394" rx="207.96" ry="18"/>
<text text-anchor="middle" x="2712.23" y="-1390.3" font-family="Times,serif" font-size="14.00">Drasil.Sections.SpecificSystemDescription</text>
</g>
<!-- u1&#45;&gt;u23 -->
<g id="edge11" class="edge">
<title>u1&#45;&gt;u23</title>
<path fill="none" stroke="black" d="M2971.89,-1703.93C2926.68,-1650.14 2787.01,-1483.97 2733.45,-1420.24"/>
<polygon fill="black" stroke="black" points="2735.88,-1417.7 2726.77,-1412.29 2730.52,-1422.2 2735.88,-1417.7"/>
</g>
<!-- u0&#45;&gt;u28 -->
<g id="edge9" class="edge">
<title>u0&#45;&gt;u28</title>
<path fill="none" stroke="black" d="M2553.33,-2031.93C2591.45,-1978.13 2709.26,-1811.87 2754.39,-1748.18"/>
<polygon fill="black" stroke="black" points="2757.33,-1750.08 2760.26,-1739.9 2751.62,-1746.03 2757.33,-1750.08"/>
</g>
<!-- u0&#45;&gt;u3 -->
<g id="edge2" class="edge">
<title>u0&#45;&gt;u3</title>
<path fill="none" stroke="black" d="M2578.99,-2032.61C2704.91,-1977.95 3110.21,-1802.01 3246.81,-1742.72"/>
<polygon fill="black" stroke="black" points="3248.39,-1745.85 3256.17,-1738.66 3245.6,-1739.43 3248.39,-1745.85"/>
</g>
<!-- u0&#45;&gt;u1 -->
<g id="edge1" class="edge">
<title>u0&#45;&gt;u1</title>
<path fill="none" stroke="black" d="M2564.22,-2032.16C2638.3,-1977.89 2870.81,-1807.56 2955.22,-1745.72"/>
<polygon fill="black" stroke="black" points="2957.39,-1748.47 2963.38,-1739.74 2953.25,-1742.83 2957.39,-1748.47"/>
</g>
<!-- u15 -->
<g id="node7" class="node">
<title>u15</title>
<ellipse fill="#ffffbb" stroke="black" cx="1972.23" cy="-1722" rx="136.48" ry="18"/>
<text text-anchor="middle" x="1972.23" y="-1718.3" font-family="Times,serif" font-size="14.00">Drasil.DocLang.References</text>
</g>
<!-- u0&#45;&gt;u15 -->
<g id="edge4" class="edge">
<title>u0&#45;&gt;u15</title>
<path fill="none" stroke="black" d="M2512.24,-2032.39C2417.5,-1978.11 2117.11,-1806.01 2010.35,-1744.84"/>
<polygon fill="black" stroke="black" points="2011.93,-1741.71 2001.52,-1739.78 2008.45,-1747.78 2011.93,-1741.71"/>
</g>
<!-- u9 -->
<g id="node12" class="node">
<title>u9</title>
<ellipse fill="#bbbbff" stroke="black" cx="2416.23" cy="-1722" rx="220.96" ry="18"/>
<text text-anchor="middle" x="2416.23" y="-1718.3" font-family="Times,serif" font-size="14.00">Drasil.DocumentLanguage.TraceabilityGraph</text>
</g>
<!-- u0&#45;&gt;u9 -->
<g id="edge3" class="edge">
<title>u0&#45;&gt;u9</title>
<path fill="none" stroke="black" d="M2534.69,-2031.93C2514.23,-1978.58 2451.39,-1814.67 2426.52,-1749.82"/>
<polygon fill="black" stroke="black" points="2429.71,-1748.38 2422.87,-1740.29 2423.18,-1750.88 2429.71,-1748.38"/>
</g>
<!-- u22 -->
<g id="node23" class="node">
<title>u22</title>
<ellipse fill="#bbffff" stroke="black" cx="1556.23" cy="-1722" rx="144.87" ry="18"/>
<text text-anchor="middle" x="1556.23" y="-1718.3" font-family="Times,serif" font-size="14.00">Drasil.Sections.Stakeholders</text>
</g>
<!-- u0&#45;&gt;u22 -->
<g id="edge8" class="edge">
<title>u0&#45;&gt;u22</title>
<path fill="none" stroke="black" d="M2493.39,-2033.17C2329.76,-1979.01 1792.72,-1801.27 1614.38,-1742.25"/>
<polygon fill="black" stroke="black" points="1615.25,-1738.85 1604.66,-1739.03 1613.05,-1745.49 1615.25,-1738.85"/>
</g>
<!-- u20 -->
<g id="node25" class="node">
<title>u20</title>
<ellipse fill="#bbffff" stroke="black" cx="827.23" cy="-1394" rx="163.27" ry="18"/>
<text text-anchor="middle" x="827.23" y="-1390.3" font-family="Times,serif" font-size="14.00">Drasil.Sections.GeneralSystDesc</text>
</g>
<!-- u0&#45;&gt;u20 -->
<g id="edge7" class="edge">
<title>u0&#45;&gt;u20</title>
<path fill="none" stroke="black" d="M2462.46,-2035.39C2273.85,-2001.18 1783.72,-1902.49 1402.23,-1740 1180.86,-1645.71 942.14,-1478.79 858.38,-1417.98"/>
<polygon fill="black" stroke="black" points="860.22,-1414.99 850.08,-1411.93 856.1,-1420.65 860.22,-1414.99"/>
</g>
<!-- u19 -->
<g id="node26" class="node">
<title>u19</title>
<ellipse fill="#bbffff" stroke="black" cx="3472.23" cy="-1394" rx="161.37" ry="18"/>
<text text-anchor="middle" x="3472.23" y="-1390.3" font-family="Times,serif" font-size="14.00">Drasil.Sections.TableOfContents</text>
</g>
<!-- u0&#45;&gt;u19 -->
<g id="edge6" class="edge">
<title>u0&#45;&gt;u19</title>
<path fill="none" stroke="black" d="M2543.58,-2031.65C2551.96,-1976.14 2585.42,-1800.94 2684.23,-1704 2876.38,-1515.52 3196.96,-1438.56 3363.83,-1410.03"/>
<polygon fill="black" stroke="black" points="3364.83,-1413.42 3374.11,-1408.3 3363.67,-1406.51 3364.83,-1413.42"/>
</g>
<!-- u18 -->
<g id="node27" class="node">
<title>u18</title>
<ellipse fill="#bbffff" stroke="black" cx="504.23" cy="-1394" rx="141.88" ry="18"/>
<text text-anchor="middle" x="504.23" y="-1390.3" font-family="Times,serif" font-size="14.00">Drasil.Sections.Introduction</text>
</g>
<!-- u0&#45;&gt;u18 -->
<g id="edge5" class="edge">
<title>u0&#45;&gt;u18</title>
<path fill="none" stroke="black" d="M2470.3,-2034.66C2282.11,-1995.81 1755.59,-1881.86 1331.23,-1740 1024.18,-1637.35 669.81,-1473.59 547.99,-1415.92"/>
<polygon fill="black" stroke="black" points="549.14,-1412.6 538.61,-1411.47 546.14,-1418.92 549.14,-1412.6"/>
</g>
<!-- u15&#45;&gt;u27 -->
<g id="edge31" class="edge">
<title>u15&#45;&gt;u27</title>
<path fill="none" stroke="black" d="M1971.71,-1703.93C1970.08,-1650.8 1965.09,-1488.02 1963.08,-1422.62"/>
<polygon fill="black" stroke="black" points="1966.57,-1422.18 1962.77,-1412.29 1959.57,-1422.4 1966.57,-1422.18"/>
</g>
<!-- u26 -->
<g id="node19" class="node">
<title>u26</title>
<ellipse fill="#bbffff" stroke="black" cx="172.23" cy="-1394" rx="172.47" ry="18"/>
<text text-anchor="middle" x="172.23" y="-1390.3" font-family="Times,serif" font-size="14.00">Drasil.Sections.AuxiliaryConstants</text>
</g>
<!-- u15&#45;&gt;u26 -->
<g id="edge30" class="edge">
<title>u15&#45;&gt;u26</title>
<path fill="none" stroke="black" d="M1895.47,-1707.1C1605.62,-1654.6 578.39,-1468.56 264.21,-1411.66"/>
<polygon fill="black" stroke="black" points="264.69,-1408.19 254.23,-1409.85 263.45,-1415.08 264.69,-1408.19"/>
</g>
<!-- u25 -->
<g id="node20" class="node">
<title>u25</title>
<ellipse fill="#bbffff" stroke="black" cx="3115.23" cy="-1394" rx="177.37" ry="18"/>
<text text-anchor="middle" x="3115.23" y="-1390.3" font-family="Times,serif" font-size="14.00">Drasil.Sections.TraceabilityMandGs</text>
</g>
<!-- u15&#45;&gt;u25 -->
<g id="edge29" class="edge">
<title>u15&#45;&gt;u25</title>
<path fill="none" stroke="black" d="M2026.98,-1705.39C2216.25,-1651.4 2842.63,-1472.75 3048.8,-1413.95"/>
<polygon fill="black" stroke="black" points="3049.93,-1417.27 3058.58,-1411.16 3048.01,-1410.53 3049.93,-1417.27"/>
</g>
<!-- u15&#45;&gt;u23 -->
<g id="edge28" class="edge">
<title>u15&#45;&gt;u23</title>
<path fill="none" stroke="black" d="M2009.44,-1704.61C2132.65,-1650.33 2527.37,-1476.44 2664.64,-1415.97"/>
<polygon fill="black" stroke="black" points="2666.33,-1419.05 2674.07,-1411.81 2663.51,-1412.64 2666.33,-1419.05"/>
</g>
<!-- u21 -->
<g id="node24" class="node">
<title>u21</title>
<ellipse fill="#bbffff" stroke="black" cx="1612.23" cy="-1394" rx="144.87" ry="18"/>
<text text-anchor="middle" x="1612.23" y="-1390.3" font-family="Times,serif" font-size="14.00">Drasil.Sections.TableOfUnits</text>
</g>
<!-- u15&#45;&gt;u21 -->
<g id="edge27" class="edge">
<title>u15&#45;&gt;u21</title>
<path fill="none" stroke="black" d="M1953.64,-1704.16C1894.02,-1650.18 1707.56,-1481.32 1638.4,-1418.69"/>
<polygon fill="black" stroke="black" points="1640.7,-1416.05 1630.94,-1411.94 1636,-1421.24 1640.7,-1416.05"/>
</g>
<!-- u17 -->
<g id="node28" class="node">
<title>u17</title>
<ellipse fill="#bbffff" stroke="black" cx="2289.23" cy="-1394" rx="159.47" ry="18"/>
<text text-anchor="middle" x="2289.23" y="-1390.3" font-family="Times,serif" font-size="14.00">Drasil.Sections.TableOfSymbols</text>
</g>
<!-- u15&#45;&gt;u17 -->
<g id="edge26" class="edge">
<title>u15&#45;&gt;u17</title>
<path fill="none" stroke="black" d="M1988.83,-1703.93C2041.35,-1649.92 2204.04,-1482.61 2265.45,-1419.46"/>
<polygon fill="black" stroke="black" points="2267.96,-1421.9 2272.42,-1412.29 2262.94,-1417.02 2267.96,-1421.9"/>
</g>
<!-- u16 -->
<g id="node29" class="node">
<title>u16</title>
<ellipse fill="#bbffff" stroke="black" cx="1210.23" cy="-1394" rx="201.46" ry="18"/>
<text text-anchor="middle" x="1210.23" y="-1390.3" font-family="Times,serif" font-size="14.00">Drasil.Sections.TableOfAbbAndAcronyms</text>
</g>
<!-- u15&#45;&gt;u16 -->
<g id="edge25" class="edge">
<title>u15&#45;&gt;u16</title>
<path fill="none" stroke="black" d="M1933.92,-1704.61C1806.92,-1650.27 1399.79,-1476.09 1258.82,-1415.79"/>
<polygon fill="black" stroke="black" points="1260.1,-1412.53 1249.53,-1411.81 1257.35,-1418.96 1260.1,-1412.53"/>
</g>
<!-- u14 -->
<g id="node8" class="node">
<title>u14</title>
<ellipse fill="#ffffbb" stroke="black" cx="3572.23" cy="-1722" rx="129.18" ry="18"/>
<text text-anchor="middle" x="3572.23" y="-1718.3" font-family="Times,serif" font-size="14.00">Drasil.DocLang.Notebook</text>
</g>
<!-- u13 -->
<g id="node9" class="node">
<title>u13</title>
<ellipse fill="#ffffbb" stroke="black" cx="1867.23" cy="-1066" rx="104.78" ry="18"/>
<text text-anchor="middle" x="1867.23" y="-1062.3" font-family="Times,serif" font-size="14.00">Drasil.DocLang.SRS</text>
</g>
<!-- u10 -->
<g id="node11" class="node">
<title>u10</title>
<ellipse fill="#bbbbff" stroke="black" cx="3137.23" cy="-738" rx="223.66" ry="18"/>
<text text-anchor="middle" x="3137.23" y="-734.3" font-family="Times,serif" font-size="14.00">Drasil.DocumentLanguage.TraceabilityMatrix</text>
</g>
<!-- u11&#45;&gt;u10 -->
<g id="edge23" class="edge">
<title>u11&#45;&gt;u10</title>
<path fill="none" stroke="black" d="M3285.07,-1047.93C3259.49,-994.47 3180.78,-830 3149.88,-765.42"/>
<polygon fill="black" stroke="black" points="3152.98,-763.8 3145.51,-756.29 3146.67,-766.82 3152.98,-763.8"/>
</g>
<!-- u5 -->
<g id="node13" class="node">
<title>u5</title>
<ellipse fill="#bbbbff" stroke="black" cx="2386.23" cy="-410" rx="187.37" ry="18"/>
<text text-anchor="middle" x="2386.23" y="-406.3" font-family="Times,serif" font-size="14.00">Drasil.DocumentLanguage.Definitions</text>
</g>
<!-- u10&#45;&gt;u5 -->
<g id="edge22" class="edge">
<title>u10&#45;&gt;u5</title>
<path fill="none" stroke="black" d="M3098.44,-720.16C2972.17,-665.35 2573.07,-492.1 2434.33,-431.88"/>
<polygon fill="black" stroke="black" points="2435.37,-428.51 2424.8,-427.74 2432.58,-434.93 2435.37,-428.51"/>
</g>
<!-- u9&#45;&gt;u13 -->
<g id="edge19" class="edge">
<title>u9&#45;&gt;u13</title>
<path fill="none" stroke="black" d="M2425.13,-1704C2451.54,-1650.98 2523.59,-1485.66 2457.23,-1376 2344.93,-1190.4 2080.35,-1110.88 1947.01,-1081.64"/>
<polygon fill="black" stroke="black" points="1947.37,-1078.14 1936.86,-1079.45 1945.9,-1084.98 1947.37,-1078.14"/>
</g>
<!-- u9&#45;&gt;u25 -->
<g id="edge21" class="edge">
<title>u9&#45;&gt;u25</title>
<path fill="none" stroke="black" d="M2452.34,-1704.16C2569.76,-1649.4 2940.59,-1476.45 3070.08,-1416.06"/>
<polygon fill="black" stroke="black" points="3071.76,-1419.14 3079.34,-1411.74 3068.8,-1412.79 3071.76,-1419.14"/>
</g>
<!-- u24 -->
<g id="node21" class="node">
<title>u24</title>
<ellipse fill="#bbffff" stroke="black" cx="1574.23" cy="-1066" rx="170.07" ry="18"/>
<text text-anchor="middle" x="1574.23" y="-1062.3" font-family="Times,serif" font-size="14.00">Drasil.Sections.ReferenceMaterial</text>
</g>
<!-- u9&#45;&gt;u24 -->
<g id="edge20" class="edge">
<title>u9&#45;&gt;u24</title>
<path fill="none" stroke="black" d="M2362.53,-1704.39C2248.89,-1667.17 1980.16,-1567.92 1804.23,-1412 1695.31,-1315.47 1614.98,-1156.22 1586.01,-1093.53"/>
<polygon fill="black" stroke="black" points="1589.15,-1091.97 1581.81,-1084.32 1582.78,-1094.87 1589.15,-1091.97"/>
</g>
<!-- u4 -->
<g id="node14" class="node">
<title>u4</title>
<ellipse fill="#bbbbff" stroke="black" cx="2000.23" cy="-82" rx="162.47" ry="18"/>
<text text-anchor="middle" x="2000.23" y="-78.3" font-family="Times,serif" font-size="14.00">Drasil.DocumentLanguage.Units</text>
</g>
<!-- u5&#45;&gt;u4 -->
<g id="edge15" class="edge">
<title>u5&#45;&gt;u4</title>
<path fill="none" stroke="black" d="M2366.03,-391.93C2301.8,-337.69 2102.24,-169.15 2028.23,-106.64"/>
<polygon fill="black" stroke="black" points="2030.14,-103.68 2020.24,-99.9 2025.63,-109.03 2030.14,-103.68"/>
</g>
<!-- u8 -->
<g id="node15" class="node">
<title>u8</title>
<ellipse fill="#ffbbbb" stroke="black" cx="3971.23" cy="-1394" rx="206.06" ry="18"/>
<text text-anchor="middle" x="3971.23" y="-1390.3" font-family="Times,serif" font-size="14.00">Drasil.DocumentLanguage.Notebook.Core</text>
</g>
<!-- u7 -->
<g id="node16" class="node">
<title>u7</title>
<ellipse fill="#ffbbbb" stroke="black" cx="3961.23" cy="-1722" rx="221.76" ry="18"/>
<text text-anchor="middle" x="3961.23" y="-1718.3" font-family="Times,serif" font-size="14.00">Drasil.DocumentLanguage.Notebook.LsnDecl</text>
</g>
<!-- u7&#45;&gt;u8 -->
<g id="edge18" class="edge">
<title>u7&#45;&gt;u8</title>
<path fill="none" stroke="black" d="M3961.76,-1703.93C3963.39,-1650.8 3968.38,-1488.02 3970.39,-1422.62"/>
<polygon fill="black" stroke="black" points="3973.9,-1422.4 3970.7,-1412.29 3966.9,-1422.18 3973.9,-1422.4"/>
</g>
<!-- u6&#45;&gt;u14 -->
<g id="edge17" class="edge">
<title>u6&#45;&gt;u14</title>
<path fill="none" stroke="black" d="M3572.23,-2031.93C3572.23,-1978.8 3572.23,-1816.02 3572.23,-1750.62"/>
<polygon fill="black" stroke="black" points="3575.73,-1750.29 3572.23,-1740.29 3568.73,-1750.29 3575.73,-1750.29"/>
</g>
<!-- u6&#45;&gt;u7 -->
<g id="edge16" class="edge">
<title>u6&#45;&gt;u7</title>
<path fill="none" stroke="black" d="M3592.6,-2031.93C3657.18,-1977.81 3857.51,-1809.93 3932.5,-1747.08"/>
<polygon fill="black" stroke="black" points="3935.18,-1749.4 3940.6,-1740.29 3930.69,-1744.03 3935.18,-1749.4"/>
</g>
<!-- u27&#45;&gt;u13 -->
<g id="edge53" class="edge">
<title>u27&#45;&gt;u13</title>
<path fill="none" stroke="black" d="M1957.26,-1375.93C1941.75,-1322.69 1894.15,-1159.35 1875.17,-1094.22"/>
<polygon fill="black" stroke="black" points="1878.43,-1092.91 1872.27,-1084.29 1871.71,-1094.87 1878.43,-1092.91"/>
</g>
<!-- u27&#45;&gt;u4 -->
<g id="edge52" class="edge">
<title>u27&#45;&gt;u4</title>
<path fill="none" stroke="black" d="M1963.54,-1375.93C1967.05,-1329.23 1976.75,-1195.44 1981.23,-1084 1996.76,-697.87 1999.65,-227.43 2000.14,-110.36"/>
<polygon fill="black" stroke="black" points="2003.64,-110.16 2000.18,-100.14 1996.64,-110.13 2003.64,-110.16"/>
</g>
<!-- u27&#45;&gt;u24 -->
<g id="edge54" class="edge">
<title>u27&#45;&gt;u24</title>
<path fill="none" stroke="black" d="M1942.19,-1376.16C1877.94,-1322.18 1676.98,-1153.32 1602.43,-1090.69"/>
<polygon fill="black" stroke="black" points="1604.3,-1087.69 1594.39,-1083.94 1599.8,-1093.05 1604.3,-1087.69"/>
</g>
<!-- u26&#45;&gt;u13 -->
<g id="edge50" class="edge">
<title>u26&#45;&gt;u13</title>
<path fill="none" stroke="black" d="M250.59,-1377.93C534.53,-1323.32 1507.68,-1136.15 1789.93,-1081.87"/>
<polygon fill="black" stroke="black" points="1790.91,-1085.24 1800.07,-1079.92 1789.59,-1078.37 1790.91,-1085.24"/>
</g>
<!-- u26&#45;&gt;u4 -->
<g id="edge49" class="edge">
<title>u26&#45;&gt;u4</title>
<path fill="none" stroke="black" d="M196.02,-1375.96C392.28,-1235.31 1742.79,-267.49 1968.33,-105.87"/>
<polygon fill="black" stroke="black" points="1970.67,-108.49 1976.76,-99.82 1966.59,-102.8 1970.67,-108.49"/>
</g>
<!-- u26&#45;&gt;u24 -->
<g id="edge51" class="edge">
<title>u26&#45;&gt;u24</title>
<path fill="none" stroke="black" d="M239.38,-1377.39C472.93,-1323.08 1249.03,-1142.62 1497.21,-1084.91"/>
<polygon fill="black" stroke="black" points="1498.27,-1088.26 1507.22,-1082.58 1496.69,-1081.44 1498.27,-1088.26"/>
</g>
<!-- u25&#45;&gt;u11 -->
<g id="edge48" class="edge">
<title>u25&#45;&gt;u11</title>
<path fill="none" stroke="black" d="M3124.55,-1375.93C3153.74,-1322.47 3243.55,-1158 3278.81,-1093.42"/>
<polygon fill="black" stroke="black" points="3282.07,-1094.75 3283.79,-1084.29 3275.93,-1091.39 3282.07,-1094.75"/>
</g>
<!-- u23&#45;&gt;u13 -->
<g id="edge46" class="edge">
<title>u23&#45;&gt;u13</title>
<path fill="none" stroke="black" d="M2669.17,-1376.39C2526.51,-1321.35 2069.79,-1145.15 1917.32,-1086.32"/>
<polygon fill="black" stroke="black" points="1918.32,-1082.96 1907.73,-1082.62 1915.8,-1089.49 1918.32,-1082.96"/>
</g>
<!-- u23&#45;&gt;u5 -->
<g id="edge45" class="edge">
<title>u23&#45;&gt;u5</title>
<path fill="none" stroke="black" d="M2706.58,-1375.96C2667.93,-1259.55 2443,-581.99 2395.17,-437.92"/>
<polygon fill="black" stroke="black" points="2398.39,-436.52 2391.92,-428.13 2391.75,-438.72 2398.39,-436.52"/>
</g>
<!-- u23&#45;&gt;u24 -->
<g id="edge47" class="edge">
<title>u23&#45;&gt;u24</title>
<path fill="none" stroke="black" d="M2655.02,-1376.61C2463.23,-1321.67 1843.68,-1144.19 1639.89,-1085.81"/>
<polygon fill="black" stroke="black" points="1640.79,-1082.43 1630.22,-1083.04 1638.87,-1089.16 1640.79,-1082.43"/>
</g>
<!-- u22&#45;&gt;u13 -->
<g id="edge44" class="edge">
<title>u22&#45;&gt;u13</title>
<path fill="none" stroke="black" d="M1543.06,-1704.04C1504.72,-1652.47 1399.55,-1493.89 1458.23,-1376 1534.36,-1223.07 1726.28,-1125.75 1817.54,-1086.63"/>
<polygon fill="black" stroke="black" points="1819,-1089.81 1826.85,-1082.69 1816.27,-1083.37 1819,-1089.81"/>
</g>
<!-- u21&#45;&gt;u11 -->
<g id="edge42" class="edge">
<title>u21&#45;&gt;u11</title>
<path fill="none" stroke="black" d="M1686.91,-1378.52C1961.38,-1325.29 2913.65,-1140.61 3206.72,-1083.78"/>
<polygon fill="black" stroke="black" points="3207.72,-1087.15 3216.87,-1081.81 3206.38,-1080.28 3207.72,-1087.15"/>
</g>
<!-- u21&#45;&gt;u24 -->
<g id="edge43" class="edge">
<title>u21&#45;&gt;u24</title>
<path fill="none" stroke="black" d="M1610.25,-1375.93C1604.05,-1322.8 1585.08,-1160.02 1577.45,-1094.62"/>
<polygon fill="black" stroke="black" points="1580.88,-1093.82 1576.25,-1084.29 1573.93,-1094.63 1580.88,-1093.82"/>
</g>
<!-- u20&#45;&gt;u13 -->
<g id="edge40" class="edge">
<title>u20&#45;&gt;u13</title>
<path fill="none" stroke="black" d="M878.81,-1376.83C1053.98,-1321.92 1625.43,-1142.8 1809.52,-1085.09"/>
<polygon fill="black" stroke="black" points="1810.79,-1088.36 1819.29,-1082.03 1808.7,-1081.68 1810.79,-1088.36"/>
</g>
<!-- u20&#45;&gt;u24 -->
<g id="edge41" class="edge">
<title>u20&#45;&gt;u24</title>
<path fill="none" stroke="black" d="M865.31,-1376.39C990.44,-1321.77 1388.93,-1147.87 1526.77,-1087.71"/>
<polygon fill="black" stroke="black" points="1528.48,-1090.79 1536.24,-1083.58 1525.68,-1084.37 1528.48,-1090.79"/>
</g>
<!-- u19&#45;&gt;u13 -->
<g id="edge39" class="edge">
<title>u19&#45;&gt;u13</title>
<path fill="none" stroke="black" d="M3398.31,-1377.98C3130.38,-1323.56 2211.91,-1137.01 1942.25,-1082.24"/>
<polygon fill="black" stroke="black" points="1942.66,-1078.75 1932.17,-1080.19 1941.27,-1085.61 1942.66,-1078.75"/>
</g>
<!-- u19&#45;&gt;u11 -->
<g id="edge38" class="edge">
<title>u19&#45;&gt;u11</title>
<path fill="none" stroke="black" d="M3462.86,-1375.93C3433.51,-1322.47 3343.2,-1158 3307.74,-1093.42"/>
<polygon fill="black" stroke="black" points="3310.61,-1091.37 3302.73,-1084.29 3304.47,-1094.74 3310.61,-1091.37"/>
</g>
<!-- u18&#45;&gt;u13 -->
<g id="edge36" class="edge">
<title>u18&#45;&gt;u13</title>
<path fill="none" stroke="black" d="M567.69,-1377.82C794.62,-1323.55 1564.76,-1139.35 1799.05,-1083.31"/>
<polygon fill="black" stroke="black" points="1799.9,-1086.7 1808.81,-1080.97 1798.27,-1079.9 1799.9,-1086.7"/>
</g>
<!-- u18&#45;&gt;u5 -->
<g id="edge35" class="edge">
<title>u18&#45;&gt;u5</title>
<path fill="none" stroke="black" d="M536.11,-1376.37C759.77,-1259.66 2092.13,-564.46 2344.86,-432.59"/>
<polygon fill="black" stroke="black" points="2346.82,-435.51 2354.07,-427.78 2343.59,-429.31 2346.82,-435.51"/>
</g>
<!-- u18&#45;&gt;u24 -->
<g id="edge37" class="edge">
<title>u18&#45;&gt;u24</title>
<path fill="none" stroke="black" d="M556.2,-1377.17C734.12,-1322.96 1318.4,-1144.94 1511.6,-1086.08"/>
<polygon fill="black" stroke="black" points="1512.77,-1089.39 1521.32,-1083.12 1510.73,-1082.69 1512.77,-1089.39"/>
</g>
<!-- u17&#45;&gt;u11 -->
<g id="edge33" class="edge">
<title>u17&#45;&gt;u11</title>
<path fill="none" stroke="black" d="M2339.02,-1376.83C2506.96,-1322.3 3052.21,-1145.26 3233.79,-1086.3"/>
<polygon fill="black" stroke="black" points="3235.01,-1089.58 3243.44,-1083.17 3232.85,-1082.93 3235.01,-1089.58"/>
</g>
<!-- u17&#45;&gt;u24 -->
<g id="edge34" class="edge">
<title>u17&#45;&gt;u24</title>
<path fill="none" stroke="black" d="M2252.79,-1376.39C2133.28,-1321.89 1753.25,-1148.62 1620.52,-1088.1"/>
<polygon fill="black" stroke="black" points="1621.58,-1084.74 1611.03,-1083.78 1618.68,-1091.11 1621.58,-1084.74"/>
</g>
<!-- u16&#45;&gt;u24 -->
<g id="edge32" class="edge">
<title>u16&#45;&gt;u24</title>
<path fill="none" stroke="black" d="M1229.29,-1375.93C1289.86,-1321.69 1478.05,-1153.15 1547.84,-1090.64"/>
<polygon fill="black" stroke="black" points="1550.25,-1093.18 1555.37,-1083.9 1545.58,-1087.96 1550.25,-1093.18"/>
</g>
</g>
</svg>
