<?xml version="1.0" encoding="UTF-8" standalone="no"?>
<!DOCTYPE svg PUBLIC "-//W3C//DTD SVG 1.1//EN"
 "http://www.w3.org/Graphics/SVG/1.1/DTD/svg11.dtd">
<!-- Generated by graphviz version 2.43.0 (0)
 -->
<!-- Title: G Pages: 1 -->
<svg width="432pt" height="286pt"
 viewBox="0.00 0.00 432.00 286.29" xmlns="http://www.w3.org/2000/svg" xmlns:xlink="http://www.w3.org/1999/xlink">
<g id="graph0" class="graph" transform="scale(0.1 0.1) rotate(0) translate(4 2974)">
<title>G</title>
<polygon fill="white" stroke="transparent" points="-4,4 -4,-2974 4489.64,-2974 4489.64,4 -4,4"/>
<!-- u30 -->
<g id="node1" class="node">
<title>u30</title>
<ellipse fill="#bbffbb" stroke="black" cx="2437.01" cy="-2184" rx="133.78" ry="18"/>
<text text-anchor="middle" x="2437.01" y="-2180.3" font-family="Times,serif" font-size="14.00">Drasil.DocumentLanguage</text>
</g>
<!-- u21 -->
<g id="node2" class="node">
<title>u21</title>
<ellipse fill="#bbffbb" stroke="black" cx="109.01" cy="-1834" rx="79.09" ry="18"/>
<text text-anchor="middle" x="109.01" y="-1830.3" font-family="Times,serif" font-size="14.00">Drasil.DocDecl</text>
</g>
<!-- u30&#45;&gt;u21 -->
<g id="edge57" class="edge">
<title>u30&#45;&gt;u21</title>
<path fill="none" stroke="black" d="M2351.05,-2170.15C1981.27,-2114.87 529.19,-1897.81 183.27,-1846.1"/>
<polygon fill="black" stroke="black" points="183.77,-1842.64 173.36,-1844.62 182.73,-1849.56 183.77,-1842.64"/>
</g>
<!-- u20 -->
<g id="node3" class="node">
<title>u20</title>
<ellipse fill="#bbffbb" stroke="black" cx="568.01" cy="-1834" rx="92.08" ry="18"/>
<text text-anchor="middle" x="568.01" y="-1830.3" font-family="Times,serif" font-size="14.00">Drasil.TraceTable</text>
</g>
<!-- u30&#45;&gt;u20 -->
<g id="edge56" class="edge">
<title>u30&#45;&gt;u20</title>
<path fill="none" stroke="black" d="M2362.01,-2169.04C2060.88,-2112.97 941.58,-1904.56 642.1,-1848.8"/>
<polygon fill="black" stroke="black" points="642.69,-1845.34 632.22,-1846.96 641.41,-1852.23 642.69,-1845.34"/>
</g>
<!-- u0 -->
<g id="node7" class="node">
<title>u0</title>
<ellipse fill="#bbffbb" stroke="black" cx="930.01" cy="-1834" rx="116.18" ry="18"/>
<text text-anchor="middle" x="930.01" y="-1830.3" font-family="Times,serif" font-size="14.00">Drasil.ExtractDocDesc</text>
</g>
<!-- u30&#45;&gt;u0 -->
<g id="edge50" class="edge">
<title>u30&#45;&gt;u0</title>
<path fill="none" stroke="black" d="M2372.74,-2168.16C2128.53,-2111.76 1259.05,-1910.98 1002.05,-1851.64"/>
<polygon fill="black" stroke="black" points="1002.61,-1848.17 992.08,-1849.33 1001.04,-1854.99 1002.61,-1848.17"/>
</g>
<!-- u1 -->
<g id="node10" class="node">
<title>u1</title>
<ellipse fill="#ffffbb" stroke="black" cx="1556.01" cy="-1834" rx="136.48" ry="18"/>
<text text-anchor="middle" x="1556.01" y="-1830.3" font-family="Times,serif" font-size="14.00">Drasil.DocLang.References</text>
</g>
<!-- u30&#45;&gt;u1 -->
<g id="edge51" class="edge">
<title>u30&#45;&gt;u1</title>
<path fill="none" stroke="black" d="M2395.99,-2166.8C2251.34,-2109.66 1765.2,-1917.63 1606.55,-1854.96"/>
<polygon fill="black" stroke="black" points="1607.61,-1851.62 1597.02,-1851.2 1605.03,-1858.13 1607.61,-1851.62"/>
</g>
<!-- u28 -->
<g id="node13" class="node">
<title>u28</title>
<ellipse fill="#ffbbbb" stroke="black" cx="2251.01" cy="-1834" rx="220.96" ry="18"/>
<text text-anchor="middle" x="2251.01" y="-1830.3" font-family="Times,serif" font-size="14.00">Drasil.DocumentLanguage.TraceabilityGraph</text>
</g>
<!-- u30&#45;&gt;u28 -->
<g id="edge58" class="edge">
<title>u30&#45;&gt;u28</title>
<path fill="none" stroke="black" d="M2427.79,-2165.74C2397.6,-2109.27 2301.64,-1929.73 2265.22,-1861.58"/>
<polygon fill="black" stroke="black" points="2268.09,-1859.53 2260.29,-1852.36 2261.92,-1862.83 2268.09,-1859.53"/>
</g>
<!-- u14 -->
<g id="node24" class="node">
<title>u14</title>
<ellipse fill="#ffbbff" stroke="black" cx="3568.01" cy="-1485" rx="141.88" ry="18"/>
<text text-anchor="middle" x="3568.01" y="-1481.3" font-family="Times,serif" font-size="14.00">Drasil.Sections.Introduction</text>
</g>
<!-- u30&#45;&gt;u14 -->
<g id="edge55" class="edge">
<title>u30&#45;&gt;u14</title>
<path fill="none" stroke="black" d="M2521.45,-2170.02C2756,-2132.16 3406.81,-2014.15 3538.01,-1852 3619.49,-1751.29 3590.53,-1579.88 3575.11,-1513.44"/>
<polygon fill="black" stroke="black" points="3578.42,-1512.26 3572.68,-1503.35 3571.62,-1513.9 3578.42,-1512.26"/>
</g>
<!-- u13 -->
<g id="node25" class="node">
<title>u13</title>
<ellipse fill="#ffbbff" stroke="black" cx="2865.01" cy="-1485" rx="161.37" ry="18"/>
<text text-anchor="middle" x="2865.01" y="-1481.3" font-family="Times,serif" font-size="14.00">Drasil.Sections.TableOfContents</text>
</g>
<!-- u30&#45;&gt;u13 -->
<g id="edge54" class="edge">
<title>u30&#45;&gt;u13</title>
<path fill="none" stroke="black" d="M2447.59,-2165.77C2505.06,-2072.18 2779.68,-1624.95 2849.06,-1511.97"/>
<polygon fill="black" stroke="black" points="2852.17,-1513.6 2854.42,-1503.25 2846.2,-1509.94 2852.17,-1513.6"/>
</g>
<!-- u9 -->
<g id="node29" class="node">
<title>u9</title>
<ellipse fill="#ffbbff" stroke="black" cx="3207.01" cy="-1485" rx="163.27" ry="18"/>
<text text-anchor="middle" x="3207.01" y="-1481.3" font-family="Times,serif" font-size="14.00">Drasil.Sections.GeneralSystDesc</text>
</g>
<!-- u30&#45;&gt;u9 -->
<g id="edge53" class="edge">
<title>u30&#45;&gt;u9</title>
<path fill="none" stroke="black" d="M2455.66,-2166.12C2558.82,-2072.73 3059.26,-1619.74 3180.51,-1509.99"/>
<polygon fill="black" stroke="black" points="3183.19,-1512.28 3188.26,-1502.97 3178.5,-1507.09 3183.19,-1512.28"/>
</g>
<!-- u8 -->
<g id="node30" class="node">
<title>u8</title>
<ellipse fill="#ffbbff" stroke="black" cx="3384.01" cy="-1834" rx="144.87" ry="18"/>
<text text-anchor="middle" x="3384.01" y="-1830.3" font-family="Times,serif" font-size="14.00">Drasil.Sections.Stakeholders</text>
</g>
<!-- u30&#45;&gt;u8 -->
<g id="edge52" class="edge">
<title>u30&#45;&gt;u8</title>
<path fill="none" stroke="black" d="M2480.79,-2166.91C2636.1,-2109.84 3160.48,-1917.14 3330.39,-1854.7"/>
<polygon fill="black" stroke="black" points="3331.7,-1857.95 3339.88,-1851.22 3329.29,-1851.38 3331.7,-1857.95"/>
</g>
<!-- u29 -->
<g id="node12" class="node">
<title>u29</title>
<ellipse fill="#ffbbbb" stroke="black" cx="398.01" cy="-1136" rx="159.47" ry="18"/>
<text text-anchor="middle" x="398.01" y="-1132.3" font-family="Times,serif" font-size="14.00">Drasil.DocumentLanguage.Core</text>
</g>
<!-- u21&#45;&gt;u29 -->
<g id="edge37" class="edge">
<title>u21&#45;&gt;u29</title>
<path fill="none" stroke="black" d="M97.02,-1815.85C61.09,-1762.21 -39.72,-1593.6 18.01,-1467 88.42,-1312.59 270.71,-1202.53 354.6,-1158.4"/>
<polygon fill="black" stroke="black" points="356.35,-1161.44 363.61,-1153.72 353.12,-1155.23 356.35,-1161.44"/>
</g>
<!-- u20&#45;&gt;u29 -->
<g id="edge36" class="edge">
<title>u20&#45;&gt;u29</title>
<path fill="none" stroke="black" d="M515.43,-1819.07C402.99,-1786.09 140.91,-1691.52 36.01,-1503 -52.1,-1344.66 226.44,-1207.54 346.12,-1157.36"/>
<polygon fill="black" stroke="black" points="347.58,-1160.54 355.48,-1153.48 344.9,-1154.08 347.58,-1160.54"/>
</g>
<!-- u19 -->
<g id="node4" class="node">
<title>u19</title>
<ellipse fill="#bbffbb" stroke="black" cx="3119.01" cy="-87" rx="92.88" ry="18"/>
<text text-anchor="middle" x="3119.01" y="-83.3" font-family="Times,serif" font-size="14.00">Drasil.GetChunks</text>
</g>
<!-- u5 -->
<g id="node5" class="node">
<title>u5</title>
<ellipse fill="#bbffbb" stroke="black" cx="2873.01" cy="-2883" rx="108.58" ry="18"/>
<text text-anchor="middle" x="2873.01" y="-2879.3" font-family="Times,serif" font-size="14.00">Drasil.SRSDocument</text>
</g>
<!-- u4 -->
<g id="node6" class="node">
<title>u4</title>
<ellipse fill="#bbffbb" stroke="black" cx="2873.01" cy="-2533" rx="81.79" ry="18"/>
<text text-anchor="middle" x="2873.01" y="-2529.3" font-family="Times,serif" font-size="14.00">Drasil.DocLang</text>
</g>
<!-- u5&#45;&gt;u4 -->
<g id="edge12" class="edge">
<title>u5&#45;&gt;u4</title>
<path fill="none" stroke="black" d="M2873.01,-2864.74C2873.01,-2808.5 2873.01,-2630.2 2873.01,-2561.42"/>
<polygon fill="black" stroke="black" points="2876.51,-2561.36 2873.01,-2551.36 2869.51,-2561.36 2876.51,-2561.36"/>
</g>
<!-- u4&#45;&gt;u30 -->
<g id="edge11" class="edge">
<title>u4&#45;&gt;u30</title>
<path fill="none" stroke="black" d="M2852.27,-2515.5C2781.35,-2459.05 2548.29,-2273.56 2466.05,-2208.12"/>
<polygon fill="black" stroke="black" points="2468.13,-2205.3 2458.13,-2201.81 2463.77,-2210.77 2468.13,-2205.3"/>
</g>
<!-- u24 -->
<g id="node17" class="node">
<title>u24</title>
<ellipse fill="#bbffff" stroke="black" cx="3816.01" cy="-2184" rx="276.75" ry="18"/>
<text text-anchor="middle" x="3816.01" y="-2180.3" font-family="Times,serif" font-size="14.00">Drasil.DocumentLanguage.Notebook.DocumentLanguage</text>
</g>
<!-- u4&#45;&gt;u24 -->
<g id="edge10" class="edge">
<title>u4&#45;&gt;u24</title>
<path fill="none" stroke="black" d="M2913.23,-2517.2C3062.98,-2462.1 3588.46,-2268.73 3760.81,-2205.31"/>
<polygon fill="black" stroke="black" points="3762.26,-2208.51 3770.44,-2201.77 3759.84,-2201.94 3762.26,-2208.51"/>
</g>
<!-- u0&#45;&gt;u29 -->
<g id="edge2" class="edge">
<title>u0&#45;&gt;u29</title>
<path fill="none" stroke="black" d="M819.56,-1828.28C628.55,-1813.44 240.56,-1752.46 69.01,-1503 -30.11,-1358.86 239.76,-1211.17 351.8,-1157.81"/>
<polygon fill="black" stroke="black" points="353.32,-1160.96 360.87,-1153.53 350.33,-1154.63 353.32,-1160.96"/>
</g>
<!-- u18 -->
<g id="node20" class="node">
<title>u18</title>
<ellipse fill="#ffbbff" stroke="black" cx="930.01" cy="-1485" rx="207.96" ry="18"/>
<text text-anchor="middle" x="930.01" y="-1481.3" font-family="Times,serif" font-size="14.00">Drasil.Sections.SpecificSystemDescription</text>
</g>
<!-- u0&#45;&gt;u18 -->
<g id="edge1" class="edge">
<title>u0&#45;&gt;u18</title>
<path fill="none" stroke="black" d="M930.01,-1815.79C930.01,-1759.72 930.01,-1581.92 930.01,-1513.34"/>
<polygon fill="black" stroke="black" points="933.51,-1513.31 930.01,-1503.31 926.51,-1513.31 933.51,-1513.31"/>
</g>
<!-- u3 -->
<g id="node8" class="node">
<title>u3</title>
<ellipse fill="#ffffbb" stroke="black" cx="3895.01" cy="-1834" rx="129.18" ry="18"/>
<text text-anchor="middle" x="3895.01" y="-1830.3" font-family="Times,serif" font-size="14.00">Drasil.DocLang.Notebook</text>
</g>
<!-- u2 -->
<g id="node9" class="node">
<title>u2</title>
<ellipse fill="#ffffbb" stroke="black" cx="2770.01" cy="-1136" rx="104.78" ry="18"/>
<text text-anchor="middle" x="2770.01" y="-1132.3" font-family="Times,serif" font-size="14.00">Drasil.DocLang.SRS</text>
</g>
<!-- u1&#45;&gt;u18 -->
<g id="edge9" class="edge">
<title>u1&#45;&gt;u18</title>
<path fill="none" stroke="black" d="M1525.82,-1816.26C1422.85,-1759.19 1085.5,-1572.19 969.56,-1507.92"/>
<polygon fill="black" stroke="black" points="971.08,-1504.76 960.63,-1502.98 967.68,-1510.88 971.08,-1504.76"/>
</g>
<!-- u17 -->
<g id="node21" class="node">
<title>u17</title>
<ellipse fill="#ffbbff" stroke="black" cx="2136.01" cy="-1485" rx="149.47" ry="18"/>
<text text-anchor="middle" x="2136.01" y="-1481.3" font-family="Times,serif" font-size="14.00">Drasil.Sections.Requirements</text>
</g>
<!-- u1&#45;&gt;u17 -->
<g id="edge8" class="edge">
<title>u1&#45;&gt;u17</title>
<path fill="none" stroke="black" d="M1583.98,-1816.26C1679.3,-1759.24 1991.41,-1572.51 2099.09,-1508.09"/>
<polygon fill="black" stroke="black" points="2101.19,-1510.91 2107.98,-1502.77 2097.6,-1504.9 2101.19,-1510.91"/>
</g>
<!-- u16 -->
<g id="node22" class="node">
<title>u16</title>
<ellipse fill="#ffbbff" stroke="black" cx="1357.01" cy="-1485" rx="201.46" ry="18"/>
<text text-anchor="middle" x="1357.01" y="-1481.3" font-family="Times,serif" font-size="14.00">Drasil.Sections.TableOfAbbAndAcronyms</text>
</g>
<!-- u1&#45;&gt;u16 -->
<g id="edge7" class="edge">
<title>u1&#45;&gt;u16</title>
<path fill="none" stroke="black" d="M1546.14,-1815.79C1513.78,-1759.37 1410.76,-1579.72 1371.97,-1512.09"/>
<polygon fill="black" stroke="black" points="1374.95,-1510.25 1366.94,-1503.31 1368.88,-1513.73 1374.95,-1510.25"/>
</g>
<!-- u15 -->
<g id="node23" class="node">
<title>u15</title>
<ellipse fill="#ffbbff" stroke="black" cx="2476.01" cy="-1485" rx="172.47" ry="18"/>
<text text-anchor="middle" x="2476.01" y="-1481.3" font-family="Times,serif" font-size="14.00">Drasil.Sections.AuxiliaryConstants</text>
</g>
<!-- u1&#45;&gt;u15 -->
<g id="edge6" class="edge">
<title>u1&#45;&gt;u15</title>
<path fill="none" stroke="black" d="M1598.84,-1816.84C1749.79,-1759.91 2256.82,-1568.67 2422.87,-1506.04"/>
<polygon fill="black" stroke="black" points="2424.26,-1509.26 2432.38,-1502.45 2421.79,-1502.71 2424.26,-1509.26"/>
</g>
<!-- u12 -->
<g id="node26" class="node">
<title>u12</title>
<ellipse fill="#ffbbff" stroke="black" cx="237.01" cy="-1485" rx="159.47" ry="18"/>
<text text-anchor="middle" x="237.01" y="-1481.3" font-family="Times,serif" font-size="14.00">Drasil.Sections.TableOfSymbols</text>
</g>
<!-- u1&#45;&gt;u12 -->
<g id="edge5" class="edge">
<title>u1&#45;&gt;u12</title>
<path fill="none" stroke="black" d="M1497.63,-1817.64C1283.09,-1761.2 538.69,-1565.37 306.64,-1504.32"/>
<polygon fill="black" stroke="black" points="307.53,-1500.93 296.96,-1501.77 305.74,-1507.7 307.53,-1500.93"/>
</g>
<!-- u11 -->
<g id="node27" class="node">
<title>u11</title>
<ellipse fill="#ffbbff" stroke="black" cx="559.01" cy="-1485" rx="144.87" ry="18"/>
<text text-anchor="middle" x="559.01" y="-1481.3" font-family="Times,serif" font-size="14.00">Drasil.Sections.TableOfUnits</text>
</g>
<!-- u1&#45;&gt;u11 -->
<g id="edge4" class="edge">
<title>u1&#45;&gt;u11</title>
<path fill="none" stroke="black" d="M1509.92,-1816.96C1346.23,-1759.99 793.15,-1567.49 614.89,-1505.45"/>
<polygon fill="black" stroke="black" points="615.78,-1502.05 605.18,-1502.07 613.48,-1508.66 615.78,-1502.05"/>
</g>
<!-- u7 -->
<g id="node31" class="node">
<title>u7</title>
<ellipse fill="#ffbbff" stroke="black" cx="1754.01" cy="-1485" rx="177.37" ry="18"/>
<text text-anchor="middle" x="1754.01" y="-1481.3" font-family="Times,serif" font-size="14.00">Drasil.Sections.TraceabilityMandGs</text>
</g>
<!-- u1&#45;&gt;u7 -->
<g id="edge3" class="edge">
<title>u1&#45;&gt;u7</title>
<path fill="none" stroke="black" d="M1565.83,-1815.79C1598.02,-1759.37 1700.53,-1579.72 1739.12,-1512.09"/>
<polygon fill="black" stroke="black" points="1742.21,-1513.73 1744.13,-1503.31 1736.14,-1510.26 1742.21,-1513.73"/>
</g>
<!-- u6 -->
<g id="node11" class="node">
<title>u6</title>
<ellipse fill="#bbbbff" stroke="black" cx="1938.01" cy="-87" rx="133.78" ry="18"/>
<text text-anchor="middle" x="1938.01" y="-83.3" font-family="Times,serif" font-size="14.00">Drasil.Document.Contents</text>
</g>
<!-- u26 -->
<g id="node15" class="node">
<title>u26</title>
<ellipse fill="#ffbbbb" stroke="black" cx="1034.01" cy="-786" rx="223.66" ry="18"/>
<text text-anchor="middle" x="1034.01" y="-782.3" font-family="Times,serif" font-size="14.00">Drasil.DocumentLanguage.TraceabilityMatrix</text>
</g>
<!-- u29&#45;&gt;u26 -->
<g id="edge49" class="edge">
<title>u29&#45;&gt;u26</title>
<path fill="none" stroke="black" d="M428.68,-1118.22C533.29,-1060.98 876.04,-873.44 993.83,-808.98"/>
<polygon fill="black" stroke="black" points="995.8,-811.89 1002.9,-804.02 992.44,-805.75 995.8,-811.89"/>
</g>
<!-- u28&#45;&gt;u2 -->
<g id="edge46" class="edge">
<title>u28&#45;&gt;u2</title>
<path fill="none" stroke="black" d="M2282.74,-1816.07C2358.99,-1773.78 2553.83,-1655.82 2657.01,-1503 2732.11,-1391.77 2759.03,-1228.44 2767.06,-1164.29"/>
<polygon fill="black" stroke="black" points="2770.56,-1164.53 2768.27,-1154.18 2763.61,-1163.7 2770.56,-1164.53"/>
</g>
<!-- u10 -->
<g id="node28" class="node">
<title>u10</title>
<ellipse fill="#ffbbff" stroke="black" cx="1959.01" cy="-1136" rx="170.07" ry="18"/>
<text text-anchor="middle" x="1959.01" y="-1132.3" font-family="Times,serif" font-size="14.00">Drasil.Sections.ReferenceMaterial</text>
</g>
<!-- u28&#45;&gt;u10 -->
<g id="edge48" class="edge">
<title>u28&#45;&gt;u10</title>
<path fill="none" stroke="black" d="M2229.41,-1815.84C2175.12,-1771.2 2033.34,-1645.03 1978.01,-1503 1931.71,-1384.15 1946.27,-1227.01 1954.77,-1164.42"/>
<polygon fill="black" stroke="black" points="1958.28,-1164.59 1956.22,-1154.2 1951.35,-1163.61 1958.28,-1164.59"/>
</g>
<!-- u28&#45;&gt;u7 -->
<g id="edge47" class="edge">
<title>u28&#45;&gt;u7</title>
<path fill="none" stroke="black" d="M2226.7,-1816.03C2144.95,-1758.95 1879.88,-1573.88 1786.74,-1508.85"/>
<polygon fill="black" stroke="black" points="1788.47,-1505.79 1778.27,-1502.94 1784.47,-1511.53 1788.47,-1505.79"/>
</g>
<!-- u27 -->
<g id="node14" class="node">
<title>u27</title>
<ellipse fill="#ffbbbb" stroke="black" cx="2252.01" cy="-87" rx="162.47" ry="18"/>
<text text-anchor="middle" x="2252.01" y="-83.3" font-family="Times,serif" font-size="14.00">Drasil.DocumentLanguage.Units</text>
</g>
<!-- u25 -->
<g id="node16" class="node">
<title>u25</title>
<ellipse fill="#ffbbbb" stroke="black" cx="1987.01" cy="-437" rx="187.37" ry="18"/>
<text text-anchor="middle" x="1987.01" y="-433.3" font-family="Times,serif" font-size="14.00">Drasil.DocumentLanguage.Definitions</text>
</g>
<!-- u26&#45;&gt;u25 -->
<g id="edge45" class="edge">
<title>u26&#45;&gt;u25</title>
<path fill="none" stroke="black" d="M1079.97,-768.26C1238.36,-710.59 1761.05,-520.27 1932.22,-457.95"/>
<polygon fill="black" stroke="black" points="1933.58,-461.18 1941.78,-454.47 1931.19,-454.6 1933.58,-461.18"/>
</g>
<!-- u25&#45;&gt;u19 -->
<g id="edge43" class="edge">
<title>u25&#45;&gt;u19</title>
<path fill="none" stroke="black" d="M2040.09,-419.68C2228.92,-361.63 2867.17,-165.42 3062.03,-105.52"/>
<polygon fill="black" stroke="black" points="3063.26,-108.8 3071.79,-102.52 3061.2,-102.11 3063.26,-108.8"/>
</g>
<!-- u25&#45;&gt;u6 -->
<g id="edge42" class="edge">
<title>u25&#45;&gt;u6</title>
<path fill="none" stroke="black" d="M1984.58,-418.74C1976.66,-362.5 1951.55,-184.2 1941.87,-115.42"/>
<polygon fill="black" stroke="black" points="1945.31,-114.78 1940.45,-105.36 1938.38,-115.75 1945.31,-114.78"/>
</g>
<!-- u25&#45;&gt;u27 -->
<g id="edge44" class="edge">
<title>u25&#45;&gt;u27</title>
<path fill="none" stroke="black" d="M2000.15,-418.74C2043.43,-361.91 2181.64,-180.41 2232.76,-113.28"/>
<polygon fill="black" stroke="black" points="2235.83,-115.03 2239.1,-104.95 2230.26,-110.79 2235.83,-115.03"/>
</g>
<!-- u24&#45;&gt;u19 -->
<g id="edge40" class="edge">
<title>u24&#45;&gt;u19</title>
<path fill="none" stroke="black" d="M3812.18,-2165.88C3801.44,-2117.12 3770.9,-1973.2 3757.01,-1852 3738.46,-1690.17 3738.01,-1648.89 3738.01,-1486 3738.01,-1486 3738.01,-1486 3738.01,-785 3738.01,-436.16 3299.18,-180.63 3160.49,-108.58"/>
<polygon fill="black" stroke="black" points="3161.91,-105.37 3151.42,-103.91 3158.71,-111.6 3161.91,-105.37"/>
</g>
<!-- u24&#45;&gt;u3 -->
<g id="edge39" class="edge">
<title>u24&#45;&gt;u3</title>
<path fill="none" stroke="black" d="M3819.93,-2165.74C3832.69,-2109.5 3873.17,-1931.2 3888.78,-1862.42"/>
<polygon fill="black" stroke="black" points="3892.27,-1862.89 3891.07,-1852.36 3885.44,-1861.34 3892.27,-1862.89"/>
</g>
<!-- u23 -->
<g id="node18" class="node">
<title>u23</title>
<ellipse fill="#bbffff" stroke="black" cx="4264.01" cy="-1834" rx="221.76" ry="18"/>
<text text-anchor="middle" x="4264.01" y="-1830.3" font-family="Times,serif" font-size="14.00">Drasil.DocumentLanguage.Notebook.LsnDecl</text>
</g>
<!-- u24&#45;&gt;u23 -->
<g id="edge41" class="edge">
<title>u24&#45;&gt;u23</title>
<path fill="none" stroke="black" d="M3837.92,-2165.98C3911.46,-2108.85 4149.59,-1923.88 4234,-1858.31"/>
<polygon fill="black" stroke="black" points="4236.39,-1860.89 4242.14,-1851.99 4232.1,-1855.36 4236.39,-1860.89"/>
</g>
<!-- u22 -->
<g id="node19" class="node">
<title>u22</title>
<ellipse fill="#bbffff" stroke="black" cx="4264.01" cy="-1485" rx="206.06" ry="18"/>
<text text-anchor="middle" x="4264.01" y="-1481.3" font-family="Times,serif" font-size="14.00">Drasil.DocumentLanguage.Notebook.Core</text>
</g>
<!-- u23&#45;&gt;u22 -->
<g id="edge38" class="edge">
<title>u23&#45;&gt;u22</title>
<path fill="none" stroke="black" d="M4264.01,-1815.79C4264.01,-1759.72 4264.01,-1581.92 4264.01,-1513.34"/>
<polygon fill="black" stroke="black" points="4267.51,-1513.31 4264.01,-1503.31 4260.51,-1513.31 4267.51,-1513.31"/>
</g>
<!-- u18&#45;&gt;u2 -->
<g id="edge33" class="edge">
<title>u18&#45;&gt;u2</title>
<path fill="none" stroke="black" d="M1012.64,-1468.42C1319.81,-1410.49 2393.42,-1208.02 2692.28,-1151.66"/>
<polygon fill="black" stroke="black" points="2692.98,-1155.09 2702.16,-1149.8 2691.68,-1148.21 2692.98,-1155.09"/>
</g>
<!-- u18&#45;&gt;u25 -->
<g id="edge35" class="edge">
<title>u18&#45;&gt;u25</title>
<path fill="none" stroke="black" d="M947.47,-1466.72C1071.41,-1344.07 1817.26,-605.98 1962.51,-462.25"/>
<polygon fill="black" stroke="black" points="1965.07,-464.63 1969.72,-455.11 1960.15,-459.66 1965.07,-464.63"/>
</g>
<!-- u18&#45;&gt;u10 -->
<g id="edge34" class="edge">
<title>u18&#45;&gt;u10</title>
<path fill="none" stroke="black" d="M978.95,-1467.5C1149.54,-1409.97 1717.52,-1218.43 1901.18,-1156.5"/>
<polygon fill="black" stroke="black" points="1902.31,-1159.81 1910.67,-1153.3 1900.07,-1153.18 1902.31,-1159.81"/>
</g>
<!-- u17&#45;&gt;u2 -->
<g id="edge30" class="edge">
<title>u17&#45;&gt;u2</title>
<path fill="none" stroke="black" d="M2166.59,-1467.26C2271.23,-1409.99 2614.9,-1221.89 2731.17,-1158.26"/>
<polygon fill="black" stroke="black" points="2733.01,-1161.24 2740.11,-1153.37 2729.65,-1155.1 2733.01,-1161.24"/>
</g>
<!-- u17&#45;&gt;u27 -->
<g id="edge32" class="edge">
<title>u17&#45;&gt;u27</title>
<path fill="none" stroke="black" d="M2137.43,-1466.85C2149.51,-1321.49 2234.69,-296.47 2249.74,-115.32"/>
<polygon fill="black" stroke="black" points="2253.23,-115.55 2250.57,-105.29 2246.26,-114.97 2253.23,-115.55"/>
</g>
<!-- u17&#45;&gt;u10 -->
<g id="edge31" class="edge">
<title>u17&#45;&gt;u10</title>
<path fill="none" stroke="black" d="M2127.23,-1466.79C2098.51,-1410.48 2007.19,-1231.45 1972.53,-1163.5"/>
<polygon fill="black" stroke="black" points="1975.5,-1161.63 1967.84,-1154.31 1969.27,-1164.81 1975.5,-1161.63"/>
</g>
<!-- u16&#45;&gt;u10 -->
<g id="edge29" class="edge">
<title>u16&#45;&gt;u10</title>
<path fill="none" stroke="black" d="M1386.45,-1467.03C1485.87,-1409.72 1809.14,-1223.38 1920.72,-1159.07"/>
<polygon fill="black" stroke="black" points="1922.71,-1161.97 1929.62,-1153.94 1919.21,-1155.9 1922.71,-1161.97"/>
</g>
<!-- u15&#45;&gt;u2 -->
<g id="edge26" class="edge">
<title>u15&#45;&gt;u2</title>
<path fill="none" stroke="black" d="M2490.59,-1466.79C2538.7,-1410.01 2692.56,-1228.41 2749,-1161.8"/>
<polygon fill="black" stroke="black" points="2751.89,-1163.79 2755.69,-1153.9 2746.55,-1159.27 2751.89,-1163.79"/>
</g>
<!-- u15&#45;&gt;u27 -->
<g id="edge28" class="edge">
<title>u15&#45;&gt;u27</title>
<path fill="none" stroke="black" d="M2473.26,-1466.85C2449.93,-1321.49 2285.46,-296.47 2256.39,-115.32"/>
<polygon fill="black" stroke="black" points="2259.82,-114.61 2254.78,-105.29 2252.91,-115.72 2259.82,-114.61"/>
</g>
<!-- u15&#45;&gt;u10 -->
<g id="edge27" class="edge">
<title>u15&#45;&gt;u10</title>
<path fill="none" stroke="black" d="M2450.72,-1467.03C2365.6,-1409.89 2089.39,-1224.51 1992.76,-1159.65"/>
<polygon fill="black" stroke="black" points="1994.5,-1156.61 1984.25,-1153.94 1990.6,-1162.42 1994.5,-1156.61"/>
</g>
<!-- u14&#45;&gt;u2 -->
<g id="edge23" class="edge">
<title>u14&#45;&gt;u2</title>
<path fill="none" stroke="black" d="M3530.32,-1467.61C3398.8,-1410.42 2960.34,-1219.76 2816.3,-1157.13"/>
<polygon fill="black" stroke="black" points="2817.41,-1153.8 2806.85,-1153.02 2814.62,-1160.22 2817.41,-1153.8"/>
</g>
<!-- u14&#45;&gt;u25 -->
<g id="edge25" class="edge">
<title>u14&#45;&gt;u25</title>
<path fill="none" stroke="black" d="M3542.54,-1467.15C3358.41,-1345.33 2232.43,-600.37 2021.16,-460.59"/>
<polygon fill="black" stroke="black" points="2022.9,-457.55 2012.63,-454.95 2019.03,-463.39 2022.9,-457.55"/>
</g>
<!-- u14&#45;&gt;u10 -->
<g id="edge24" class="edge">
<title>u14&#45;&gt;u10</title>
<path fill="none" stroke="black" d="M3499.39,-1469.2C3240.02,-1413.26 2320.07,-1214.87 2040.31,-1154.53"/>
<polygon fill="black" stroke="black" points="2040.75,-1151.05 2030.23,-1152.36 2039.27,-1157.89 2040.75,-1151.05"/>
</g>
<!-- u13&#45;&gt;u2 -->
<g id="edge21" class="edge">
<title>u13&#45;&gt;u2</title>
<path fill="none" stroke="black" d="M2860.3,-1466.79C2844.95,-1410.72 2796.27,-1232.92 2777.5,-1164.34"/>
<polygon fill="black" stroke="black" points="2780.77,-1163.03 2774.75,-1154.31 2774.01,-1164.88 2780.77,-1163.03"/>
</g>
<!-- u13&#45;&gt;u29 -->
<g id="edge22" class="edge">
<title>u13&#45;&gt;u29</title>
<path fill="none" stroke="black" d="M2769.06,-1470.5C2378.64,-1415.59 910.93,-1209.15 503.49,-1151.84"/>
<polygon fill="black" stroke="black" points="503.88,-1148.36 493.49,-1150.43 502.9,-1155.29 503.88,-1148.36"/>
</g>
<!-- u12&#45;&gt;u29 -->
<g id="edge20" class="edge">
<title>u12&#45;&gt;u29</title>
<path fill="none" stroke="black" d="M244.99,-1466.79C271.12,-1410.48 354.18,-1231.45 385.71,-1163.5"/>
<polygon fill="black" stroke="black" points="388.94,-1164.86 389.98,-1154.31 382.59,-1161.91 388.94,-1164.86"/>
</g>
<!-- u12&#45;&gt;u10 -->
<g id="edge19" class="edge">
<title>u12&#45;&gt;u10</title>
<path fill="none" stroke="black" d="M311.28,-1469.03C590.46,-1412.78 1576.27,-1214.13 1873.53,-1154.22"/>
<polygon fill="black" stroke="black" points="1874.28,-1157.64 1883.39,-1152.24 1872.9,-1150.78 1874.28,-1157.64"/>
</g>
<!-- u11&#45;&gt;u29 -->
<g id="edge18" class="edge">
<title>u11&#45;&gt;u29</title>
<path fill="none" stroke="black" d="M551.03,-1466.79C524.9,-1410.48 441.83,-1231.45 410.31,-1163.5"/>
<polygon fill="black" stroke="black" points="413.43,-1161.91 406.04,-1154.31 407.08,-1164.86 413.43,-1161.91"/>
</g>
<!-- u11&#45;&gt;u10 -->
<g id="edge17" class="edge">
<title>u11&#45;&gt;u10</title>
<path fill="none" stroke="black" d="M620.97,-1468.64C848.8,-1412.17 1639.58,-1216.17 1885.46,-1155.23"/>
<polygon fill="black" stroke="black" points="1886.51,-1158.58 1895.37,-1152.77 1884.82,-1151.78 1886.51,-1158.58"/>
</g>
<!-- u9&#45;&gt;u2 -->
<g id="edge15" class="edge">
<title>u9&#45;&gt;u2</title>
<path fill="none" stroke="black" d="M3185.64,-1467.03C3113.82,-1410 2881.08,-1225.2 2799,-1160.02"/>
<polygon fill="black" stroke="black" points="2801.09,-1157.21 2791.09,-1153.74 2796.74,-1162.69 2801.09,-1157.21"/>
</g>
<!-- u9&#45;&gt;u10 -->
<g id="edge16" class="edge">
<title>u9&#45;&gt;u10</title>
<path fill="none" stroke="black" d="M3149.73,-1468.07C2944.55,-1411.02 2246.77,-1217.01 2026.33,-1155.72"/>
<polygon fill="black" stroke="black" points="2027.08,-1152.29 2016.51,-1152.99 2025.2,-1159.04 2027.08,-1152.29"/>
</g>
<!-- u8&#45;&gt;u2 -->
<g id="edge14" class="edge">
<title>u8&#45;&gt;u2</title>
<path fill="none" stroke="black" d="M3389.45,-1815.69C3405.8,-1760.11 3449.22,-1583.09 3379.01,-1467 3260.47,-1271 2981.16,-1183.97 2845.96,-1152.27"/>
<polygon fill="black" stroke="black" points="2846.62,-1148.83 2836.09,-1149.99 2845.05,-1155.65 2846.62,-1148.83"/>
</g>
<!-- u7&#45;&gt;u29 -->
<g id="edge13" class="edge">
<title>u7&#45;&gt;u29</title>
<path fill="none" stroke="black" d="M1691.77,-1468.07C1468.23,-1410.87 706.55,-1215.96 469.22,-1155.22"/>
<polygon fill="black" stroke="black" points="469.87,-1151.78 459.32,-1152.69 468.14,-1158.56 469.87,-1151.78"/>
</g>
</g>
</svg>
