<?xml version="1.0" encoding="UTF-8" standalone="no"?>
<!DOCTYPE svg PUBLIC "-//W3C//DTD SVG 1.1//EN"
 "http://www.w3.org/Graphics/SVG/1.1/DTD/svg11.dtd">
<!-- Generated by graphviz version 2.43.0 (0)
 -->
<!-- Title: G Pages: 1 -->
<svg width="432pt" height="285pt"
 viewBox="0.00 0.00 432.00 285.04" xmlns="http://www.w3.org/2000/svg" xmlns:xlink="http://www.w3.org/1999/xlink">
<g id="graph0" class="graph" transform="scale(11.73 11.73) rotate(0) translate(4 3339.33)">
<title>G</title>
<polygon fill="white" stroke="transparent" points="-4,4 -4,-3339.33 5063,-3339.33 5063,4 -4,4"/>
<!-- u54 -->
<g id="node1" class="node">
<title>u54</title>
<ellipse fill="#bbffbb" stroke="black" cx="2338" cy="-3278" rx="214.46" ry="18"/>
<text text-anchor="middle" x="2338" y="-3274.3" font-family="Times,serif" font-size="14.00">Data.Drasil.ExternalLibraries.ODELibraries</text>
</g>
<!-- u0 -->
<g id="node5" class="node">
<title>u0</title>
<ellipse fill="#ffffbb" stroke="black" cx="2338" cy="-3048" rx="113.18" ry="18"/>
<text text-anchor="middle" x="2338" y="-3044.3" font-family="Times,serif" font-size="14.00">Language.Drasil.Code</text>
</g>
<!-- u54&#45;&gt;u0 -->
<g id="edge86" class="edge">
<title>u54&#45;&gt;u0</title>
<path fill="none" stroke="black" d="M2338,-3259.86C2338,-3220.57 2338,-3123.7 2338,-3076.18"/>
<polygon fill="black" stroke="black" points="2341.5,-3076.02 2338,-3066.02 2334.5,-3076.02 2341.5,-3076.02"/>
</g>
<!-- u47 -->
<g id="node2" class="node">
<title>u47</title>
<ellipse fill="#ffffbb" stroke="black" cx="3297" cy="-1438" rx="135.68" ry="18"/>
<text text-anchor="middle" x="3297" y="-1434.3" font-family="Times,serif" font-size="14.00">Language.Drasil.CodeSpec</text>
</g>
<!-- u46 -->
<g id="node3" class="node">
<title>u46</title>
<ellipse fill="#ffffbb" stroke="black" cx="2773" cy="-1208" rx="126.18" ry="18"/>
<text text-anchor="middle" x="2773" y="-1204.3" font-family="Times,serif" font-size="14.00">Language.Drasil.Choices</text>
</g>
<!-- u47&#45;&gt;u46 -->
<g id="edge79" class="edge">
<title>u47&#45;&gt;u46</title>
<path fill="none" stroke="black" d="M3259.32,-1420.6C3165.56,-1379.81 2922,-1273.83 2819.52,-1229.24"/>
<polygon fill="black" stroke="black" points="2820.91,-1226.03 2810.34,-1225.25 2818.12,-1232.45 2820.91,-1226.03"/>
</g>
<!-- u42 -->
<g id="node6" class="node">
<title>u42</title>
<ellipse fill="#bbbbff" stroke="black" cx="2923" cy="-978" rx="191.17" ry="18"/>
<text text-anchor="middle" x="2923" y="-974.3" font-family="Times,serif" font-size="14.00">Language.Drasil.Chunk.CodeDefinition</text>
</g>
<!-- u47&#45;&gt;u42 -->
<g id="edge78" class="edge">
<title>u47&#45;&gt;u42</title>
<path fill="none" stroke="black" d="M3272.81,-1420.12C3226.65,-1387.01 3124.66,-1309.47 3058,-1226 3000.06,-1153.45 2953.77,-1052.55 2933.74,-1005.33"/>
<polygon fill="black" stroke="black" points="2936.97,-1003.97 2929.87,-996.1 2930.51,-1006.67 2936.97,-1003.97"/>
</g>
<!-- u41 -->
<g id="node7" class="node">
<title>u41</title>
<ellipse fill="#bbbbff" stroke="black" cx="3259" cy="-1208" rx="192.27" ry="18"/>
<text text-anchor="middle" x="3259" y="-1204.3" font-family="Times,serif" font-size="14.00">Language.Drasil.Chunk.ConstraintMap</text>
</g>
<!-- u47&#45;&gt;u41 -->
<g id="edge77" class="edge">
<title>u47&#45;&gt;u41</title>
<path fill="none" stroke="black" d="M3294.14,-1419.86C3287.59,-1380.57 3271.45,-1283.7 3263.53,-1236.18"/>
<polygon fill="black" stroke="black" points="3266.93,-1235.31 3261.84,-1226.02 3260.03,-1236.46 3266.93,-1235.31"/>
</g>
<!-- u1 -->
<g id="node17" class="node">
<title>u1</title>
<ellipse fill="#ffbbbb" stroke="black" cx="2459" cy="-978" rx="139.98" ry="18"/>
<text text-anchor="middle" x="2459" y="-974.3" font-family="Times,serif" font-size="14.00">Language.Drasil.Code.Code</text>
</g>
<!-- u46&#45;&gt;u1 -->
<g id="edge75" class="edge">
<title>u46&#45;&gt;u1</title>
<path fill="none" stroke="black" d="M2749.91,-1190.23C2694.45,-1149.96 2553.66,-1047.73 2490.5,-1001.87"/>
<polygon fill="black" stroke="black" points="2492.27,-998.83 2482.12,-995.79 2488.16,-1004.5 2492.27,-998.83"/>
</g>
<!-- u45 -->
<g id="node48" class="node">
<title>u45</title>
<ellipse fill="#77ffff" stroke="black" cx="3305" cy="-978" rx="172.77" ry="18"/>
<text text-anchor="middle" x="3305" y="-974.3" font-family="Times,serif" font-size="14.00">Language.Drasil.Data.ODELibPckg</text>
</g>
<!-- u46&#45;&gt;u45 -->
<g id="edge76" class="edge">
<title>u46&#45;&gt;u45</title>
<path fill="none" stroke="black" d="M2810.83,-1190.79C2905.44,-1150.24 3152.2,-1044.48 3256.91,-999.61"/>
<polygon fill="black" stroke="black" points="3258.47,-1002.75 3266.29,-995.59 3255.72,-996.31 3258.47,-1002.75"/>
</g>
<!-- u43 -->
<g id="node4" class="node">
<title>u43</title>
<ellipse fill="#ffffbb" stroke="black" cx="3185" cy="-518" rx="110.48" ry="18"/>
<text text-anchor="middle" x="3185" y="-514.3" font-family="Times,serif" font-size="14.00">Language.Drasil.Mod</text>
</g>
<!-- u40 -->
<g id="node8" class="node">
<title>u40</title>
<ellipse fill="#bbbbff" stroke="black" cx="2947" cy="-288" rx="170.87" ry="18"/>
<text text-anchor="middle" x="2947" y="-284.3" font-family="Times,serif" font-size="14.00">Language.Drasil.Chunk.Parameter</text>
</g>
<!-- u43&#45;&gt;u40 -->
<g id="edge69" class="edge">
<title>u43&#45;&gt;u40</title>
<path fill="none" stroke="black" d="M3167.11,-499.86C3125.14,-459.66 3020.26,-359.19 2972.01,-312.96"/>
<polygon fill="black" stroke="black" points="2974.41,-310.42 2964.77,-306.02 2969.57,-315.47 2974.41,-310.42"/>
</g>
<!-- u3 -->
<g id="node15" class="node">
<title>u3</title>
<ellipse fill="#ffbbbb" stroke="black" cx="2411" cy="-288" rx="160.57" ry="18"/>
<text text-anchor="middle" x="2411" y="-284.3" font-family="Times,serif" font-size="14.00">Language.Drasil.Code.DataDesc</text>
</g>
<!-- u43&#45;&gt;u3 -->
<g id="edge68" class="edge">
<title>u43&#45;&gt;u3</title>
<path fill="none" stroke="black" d="M3133.92,-501.95C2997.62,-461.8 2625.54,-352.2 2475.25,-307.92"/>
<polygon fill="black" stroke="black" points="2475.82,-304.45 2465.24,-304.98 2473.85,-311.16 2475.82,-304.45"/>
</g>
<!-- u37 -->
<g id="node19" class="node">
<title>u37</title>
<ellipse fill="#bbffff" stroke="black" cx="665" cy="-1438" rx="217.96" ry="18"/>
<text text-anchor="middle" x="665" y="-1434.3" font-family="Times,serif" font-size="14.00">Language.Drasil.Code.Imperative.ReadInput</text>
</g>
<!-- u0&#45;&gt;u37 -->
<g id="edge7" class="edge">
<title>u0&#45;&gt;u37</title>
<path fill="none" stroke="black" d="M2241.62,-3038.55C1801.04,-2998.65 0,-2821.34 0,-2589 0,-2589 0,-2589 0,-1897 0,-1621.35 392.33,-1498.95 574.3,-1457"/>
<polygon fill="black" stroke="black" points="575.15,-1460.39 584.12,-1454.76 573.6,-1453.57 575.15,-1460.39"/>
</g>
<!-- u9 -->
<g id="node34" class="node">
<title>u9</title>
<ellipse fill="#bbffff" stroke="black" cx="4122" cy="-2818" rx="217.16" ry="18"/>
<text text-anchor="middle" x="4122" y="-2814.3" font-family="Times,serif" font-size="14.00">Language.Drasil.Code.Imperative.Generator</text>
</g>
<!-- u0&#45;&gt;u9 -->
<g id="edge1" class="edge">
<title>u0&#45;&gt;u9</title>
<path fill="none" stroke="black" d="M2423.15,-3036.12C2712.55,-2999.13 3659.18,-2878.15 3999.09,-2834.71"/>
<polygon fill="black" stroke="black" points="3999.74,-2838.15 4009.22,-2833.41 3998.85,-2831.21 3999.74,-2838.15"/>
</g>
<!-- u27 -->
<g id="node41" class="node">
<title>u27</title>
<ellipse fill="#7777ff" stroke="black" cx="395" cy="-2588" rx="367.43" ry="18"/>
<text text-anchor="middle" x="395" y="-2584.3" font-family="Times,serif" font-size="14.00">Language.Drasil.Code.Imperative.GOOL.LanguageRenderer.PythonRenderer</text>
</g>
<!-- u0&#45;&gt;u27 -->
<g id="edge6" class="edge">
<title>u0&#45;&gt;u27</title>
<path fill="none" stroke="black" d="M2277.45,-3032.73C1993.96,-2965.9 798.09,-2684.01 475.48,-2607.97"/>
<polygon fill="black" stroke="black" points="476.27,-2604.56 465.73,-2605.67 474.66,-2611.37 476.27,-2604.56"/>
</g>
<!-- u26 -->
<g id="node42" class="node">
<title>u26</title>
<ellipse fill="#7777ff" stroke="black" cx="1134" cy="-2588" rx="354.44" ry="18"/>
<text text-anchor="middle" x="1134" y="-2584.3" font-family="Times,serif" font-size="14.00">Language.Drasil.Code.Imperative.GOOL.LanguageRenderer.JavaRenderer</text>
</g>
<!-- u0&#45;&gt;u26 -->
<g id="edge5" class="edge">
<title>u0&#45;&gt;u26</title>
<path fill="none" stroke="black" d="M2296.56,-3031.23C2115.31,-2962.29 1392.35,-2687.28 1188.03,-2609.55"/>
<polygon fill="black" stroke="black" points="1189.01,-2606.18 1178.42,-2605.9 1186.52,-2612.72 1189.01,-2606.18"/>
</g>
<!-- u25 -->
<g id="node43" class="node">
<title>u25</title>
<ellipse fill="#7777ff" stroke="black" cx="1875" cy="-2588" rx="369.33" ry="18"/>
<text text-anchor="middle" x="1875" y="-2584.3" font-family="Times,serif" font-size="14.00">Language.Drasil.Code.Imperative.GOOL.LanguageRenderer.CSharpRenderer</text>
</g>
<!-- u0&#45;&gt;u25 -->
<g id="edge4" class="edge">
<title>u0&#45;&gt;u25</title>
<path fill="none" stroke="black" d="M2320.97,-3030.16C2250.64,-2960.58 1982.58,-2695.42 1899.62,-2613.35"/>
<polygon fill="black" stroke="black" points="1901.75,-2610.54 1892.18,-2606 1896.83,-2615.52 1901.75,-2610.54"/>
</g>
<!-- u24 -->
<g id="node44" class="node">
<title>u24</title>
<ellipse fill="#7777ff" stroke="black" cx="2621" cy="-2588" rx="358.54" ry="18"/>
<text text-anchor="middle" x="2621" y="-2584.3" font-family="Times,serif" font-size="14.00">Language.Drasil.Code.Imperative.GOOL.LanguageRenderer.SwiftRenderer</text>
</g>
<!-- u0&#45;&gt;u24 -->
<g id="edge3" class="edge">
<title>u0&#45;&gt;u24</title>
<path fill="none" stroke="black" d="M2348.58,-3029.88C2391.52,-2960.38 2553,-2699.04 2604.86,-2615.12"/>
<polygon fill="black" stroke="black" points="2607.94,-2616.8 2610.22,-2606.45 2601.98,-2613.12 2607.94,-2616.8"/>
</g>
<!-- u22 -->
<g id="node46" class="node">
<title>u22</title>
<ellipse fill="#7777ff" stroke="black" cx="3351" cy="-2588" rx="352.84" ry="18"/>
<text text-anchor="middle" x="3351" y="-2584.3" font-family="Times,serif" font-size="14.00">Language.Drasil.Code.Imperative.GOOL.LanguageRenderer.CppRenderer</text>
</g>
<!-- u0&#45;&gt;u22 -->
<g id="edge2" class="edge">
<title>u0&#45;&gt;u22</title>
<path fill="none" stroke="black" d="M2373.76,-3030.83C2527.35,-2961.39 3131.21,-2688.37 3304.36,-2610.09"/>
<polygon fill="black" stroke="black" points="3305.81,-2613.27 3313.48,-2605.96 3302.92,-2606.9 3305.81,-2613.27"/>
</g>
<!-- u44 -->
<g id="node49" class="node">
<title>u44</title>
<ellipse fill="#77ffff" stroke="black" cx="2629" cy="-748" rx="154.07" ry="18"/>
<text text-anchor="middle" x="2629" y="-744.3" font-family="Times,serif" font-size="14.00">Language.Drasil.Data.ODEInfo</text>
</g>
<!-- u42&#45;&gt;u44 -->
<g id="edge67" class="edge">
<title>u42&#45;&gt;u44</title>
<path fill="none" stroke="black" d="M2900.9,-959.86C2848.84,-919.49 2718.44,-818.36 2659.16,-772.39"/>
<polygon fill="black" stroke="black" points="2661,-769.39 2650.95,-766.02 2656.71,-774.92 2661,-769.39"/>
</g>
<!-- u39 -->
<g id="node9" class="node">
<title>u39</title>
<ellipse fill="#bbbbff" stroke="black" cx="2629" cy="-58" rx="145.67" ry="18"/>
<text text-anchor="middle" x="2629" y="-54.3" font-family="Times,serif" font-size="14.00">Language.Drasil.Chunk.Code</text>
</g>
<!-- u40&#45;&gt;u39 -->
<g id="edge66" class="edge">
<title>u40&#45;&gt;u39</title>
<path fill="none" stroke="black" d="M2923.36,-270.05C2867.13,-229.74 2725.36,-128.09 2661.3,-82.16"/>
<polygon fill="black" stroke="black" points="2662.96,-79.04 2652.8,-76.06 2658.89,-84.73 2662.96,-79.04"/>
</g>
<!-- u8 -->
<g id="node10" class="node">
<title>u8</title>
<ellipse fill="#ffbbbb" stroke="black" cx="3913" cy="-2588" rx="191.17" ry="18"/>
<text text-anchor="middle" x="3913" y="-2584.3" font-family="Times,serif" font-size="14.00">Language.Drasil.Code.CodeGeneration</text>
</g>
<!-- u8&#45;&gt;u1 -->
<g id="edge13" class="edge">
<title>u8&#45;&gt;u1</title>
<path fill="none" stroke="black" d="M3888.16,-2569.91C3836.3,-2534.17 3712.78,-2448.82 3610,-2376 3445.04,-2259.12 3424.51,-2194.83 3241,-2110 2913.61,-1958.66 2704.53,-2174.5 2453,-1916 2323.91,-1783.34 2429.07,-1146.09 2454.02,-1006.19"/>
<polygon fill="black" stroke="black" points="2457.47,-1006.75 2455.8,-996.29 2450.58,-1005.51 2457.47,-1006.75"/>
</g>
<!-- u29 -->
<g id="node38" class="node">
<title>u29</title>
<ellipse fill="#ffff77" stroke="black" cx="2483" cy="-2358" rx="222.06" ry="18"/>
<text text-anchor="middle" x="2483" y="-2354.3" font-family="Times,serif" font-size="14.00">Language.Drasil.Code.Imperative.GOOL.Data</text>
</g>
<!-- u8&#45;&gt;u29 -->
<g id="edge14" class="edge">
<title>u8&#45;&gt;u29</title>
<path fill="none" stroke="black" d="M3820.28,-2572.22C3565.93,-2531.66 2858.32,-2418.84 2588.96,-2375.89"/>
<polygon fill="black" stroke="black" points="2589.21,-2372.39 2578.78,-2374.27 2588.11,-2379.3 2589.21,-2372.39"/>
</g>
<!-- u7 -->
<g id="node11" class="node">
<title>u7</title>
<ellipse fill="#ffbbbb" stroke="black" cx="3721" cy="-748" rx="190.37" ry="18"/>
<text text-anchor="middle" x="3721" y="-744.3" font-family="Times,serif" font-size="14.00">Language.Drasil.Code.ExternalLibrary</text>
</g>
<!-- u7&#45;&gt;u43 -->
<g id="edge12" class="edge">
<title>u7&#45;&gt;u43</title>
<path fill="none" stroke="black" d="M3681.59,-730.23C3584.88,-689.1 3336.17,-583.3 3232,-538.99"/>
<polygon fill="black" stroke="black" points="3233.25,-535.72 3222.67,-535.03 3230.51,-542.16 3233.25,-535.72"/>
</g>
<!-- u6 -->
<g id="node12" class="node">
<title>u6</title>
<ellipse fill="#ffbbbb" stroke="black" cx="4522" cy="-1898" rx="204.16" ry="18"/>
<text text-anchor="middle" x="4522" y="-1894.3" font-family="Times,serif" font-size="14.00">Language.Drasil.Code.CodeQuantityDicts</text>
</g>
<!-- u5 -->
<g id="node13" class="node">
<title>u5</title>
<ellipse fill="#ffbbbb" stroke="black" cx="3698" cy="-978" rx="178.97" ry="18"/>
<text text-anchor="middle" x="3698" y="-974.3" font-family="Times,serif" font-size="14.00">Language.Drasil.Code.ExtLibImport</text>
</g>
<!-- u5&#45;&gt;u7 -->
<g id="edge11" class="edge">
<title>u5&#45;&gt;u7</title>
<path fill="none" stroke="black" d="M3699.73,-959.86C3703.69,-920.57 3713.46,-823.7 3718.26,-776.18"/>
<polygon fill="black" stroke="black" points="3721.76,-776.33 3719.28,-766.02 3714.8,-775.62 3721.76,-776.33"/>
</g>
<!-- u2 -->
<g id="node16" class="node">
<title>u2</title>
<ellipse fill="#ffbbbb" stroke="black" cx="3305" cy="-748" rx="207.96" ry="18"/>
<text text-anchor="middle" x="3305" y="-744.3" font-family="Times,serif" font-size="14.00">Language.Drasil.Code.ExternalLibraryCall</text>
</g>
<!-- u5&#45;&gt;u2 -->
<g id="edge10" class="edge">
<title>u5&#45;&gt;u2</title>
<path fill="none" stroke="black" d="M3669.1,-960.23C3599.35,-919.77 3421.74,-816.73 3343.27,-771.2"/>
<polygon fill="black" stroke="black" points="3344.61,-767.94 3334.21,-765.94 3341.1,-773.99 3344.61,-767.94"/>
</g>
<!-- u4 -->
<g id="node14" class="node">
<title>u4</title>
<ellipse fill="#ffbbbb" stroke="black" cx="2940" cy="-748" rx="139.18" ry="18"/>
<text text-anchor="middle" x="2940" y="-744.3" font-family="Times,serif" font-size="14.00">Language.Drasil.Code.Lang</text>
</g>
<!-- u3&#45;&gt;u39 -->
<g id="edge9" class="edge">
<title>u3&#45;&gt;u39</title>
<path fill="none" stroke="black" d="M2427.39,-269.86C2465.67,-229.82 2561.1,-130.01 2605.54,-83.53"/>
<polygon fill="black" stroke="black" points="2608.34,-85.67 2612.72,-76.02 2603.28,-80.83 2608.34,-85.67"/>
</g>
<!-- u2&#45;&gt;u43 -->
<g id="edge8" class="edge">
<title>u2&#45;&gt;u43</title>
<path fill="none" stroke="black" d="M3295.98,-729.86C3275.12,-690.24 3223.46,-592.07 3198.68,-544.99"/>
<polygon fill="black" stroke="black" points="3201.72,-543.24 3193.96,-536.02 3195.52,-546.5 3201.72,-543.24"/>
</g>
<!-- u38 -->
<g id="node18" class="node">
<title>u38</title>
<ellipse fill="#bbffff" stroke="black" cx="3663" cy="-2128" rx="201.46" ry="18"/>
<text text-anchor="middle" x="3663" y="-2124.3" font-family="Times,serif" font-size="14.00">Language.Drasil.Code.Imperative.Import</text>
</g>
<!-- u38&#45;&gt;u6 -->
<g id="edge60" class="edge">
<title>u38&#45;&gt;u6</title>
<path fill="none" stroke="black" d="M3724.09,-2110.79C3878.86,-2069.71 4285.8,-1961.69 4450.89,-1917.87"/>
<polygon fill="black" stroke="black" points="4452.17,-1921.16 4460.94,-1915.21 4450.37,-1914.39 4452.17,-1921.16"/>
</g>
<!-- u36 -->
<g id="node20" class="node">
<title>u36</title>
<ellipse fill="#bbffff" stroke="black" cx="2906" cy="-1438" rx="237.46" ry="18"/>
<text text-anchor="middle" x="2906" y="-1434.3" font-family="Times,serif" font-size="14.00">Language.Drasil.Code.Imperative.ConceptMatch</text>
</g>
<!-- u38&#45;&gt;u36 -->
<g id="edge65" class="edge">
<title>u38&#45;&gt;u36</title>
<path fill="none" stroke="black" d="M3576.03,-2111.73C3411.71,-2081.05 3065.22,-2007 2989,-1916 2912.47,-1824.63 2976.06,-1767.31 2955,-1650 2943.01,-1583.23 2923.59,-1505.8 2913.16,-1465.88"/>
<polygon fill="black" stroke="black" points="2916.52,-1464.89 2910.59,-1456.11 2909.75,-1466.67 2916.52,-1464.89"/>
</g>
<!-- u32 -->
<g id="node22" class="node">
<title>u32</title>
<ellipse fill="#bbffff" stroke="black" cx="4094" cy="-1898" rx="206.06" ry="18"/>
<text text-anchor="middle" x="4094" y="-1894.3" font-family="Times,serif" font-size="14.00">Language.Drasil.Code.Imperative.Helpers</text>
</g>
<!-- u38&#45;&gt;u32 -->
<g id="edge64" class="edge">
<title>u38&#45;&gt;u32</title>
<path fill="none" stroke="black" d="M3695.04,-2110.05C3772.12,-2069.27 3967.82,-1965.75 4053.16,-1920.6"/>
<polygon fill="black" stroke="black" points="4054.84,-1923.68 4062.04,-1915.91 4051.56,-1917.49 4054.84,-1923.68"/>
</g>
<!-- u31 -->
<g id="node23" class="node">
<title>u31</title>
<ellipse fill="#bbffff" stroke="black" cx="2702" cy="-1898" rx="240.46" ry="18"/>
<text text-anchor="middle" x="2702" y="-1894.3" font-family="Times,serif" font-size="14.00">Language.Drasil.Code.Imperative.GenerateGOOL</text>
</g>
<!-- u38&#45;&gt;u31 -->
<g id="edge63" class="edge">
<title>u38&#45;&gt;u31</title>
<path fill="none" stroke="black" d="M3595.42,-2110.97C3422.58,-2069.96 2965.09,-1961.42 2780.68,-1917.67"/>
<polygon fill="black" stroke="black" points="2781.33,-1914.22 2770.79,-1915.32 2779.71,-1921.03 2781.33,-1914.22"/>
</g>
<!-- u14 -->
<g id="node29" class="node">
<title>u14</title>
<ellipse fill="#bbffff" stroke="black" cx="3218" cy="-1898" rx="219.86" ry="18"/>
<text text-anchor="middle" x="3218" y="-1894.3" font-family="Times,serif" font-size="14.00">Language.Drasil.Code.Imperative.Comments</text>
</g>
<!-- u38&#45;&gt;u14 -->
<g id="edge62" class="edge">
<title>u38&#45;&gt;u14</title>
<path fill="none" stroke="black" d="M3630.28,-2110.23C3550.89,-2069.56 3348.14,-1965.68 3259.99,-1920.51"/>
<polygon fill="black" stroke="black" points="3261.57,-1917.39 3251.07,-1915.94 3258.38,-1923.62 3261.57,-1917.39"/>
</g>
<!-- u10 -->
<g id="node33" class="node">
<title>u10</title>
<ellipse fill="#bbffff" stroke="black" cx="3663" cy="-1898" rx="207.16" ry="18"/>
<text text-anchor="middle" x="3663" y="-1894.3" font-family="Times,serif" font-size="14.00">Language.Drasil.Code.Imperative.Logging</text>
</g>
<!-- u38&#45;&gt;u10 -->
<g id="edge61" class="edge">
<title>u38&#45;&gt;u10</title>
<path fill="none" stroke="black" d="M3663,-2109.86C3663,-2070.57 3663,-1973.7 3663,-1926.18"/>
<polygon fill="black" stroke="black" points="3666.5,-1926.02 3663,-1916.02 3659.5,-1926.02 3666.5,-1926.02"/>
</g>
<!-- u37&#45;&gt;u3 -->
<g id="edge59" class="edge">
<title>u37&#45;&gt;u3</title>
<path fill="none" stroke="black" d="M785.41,-1422.97C1006.57,-1389.78 1455,-1284.77 1455,-979 1455,-979 1455,-979 1455,-747 1455,-398.42 1978.34,-314.93 2250.6,-295.09"/>
<polygon fill="black" stroke="black" points="2250.85,-298.58 2260.57,-294.38 2250.35,-291.6 2250.85,-298.58"/>
</g>
<!-- u36&#45;&gt;u46 -->
<g id="edge58" class="edge">
<title>u36&#45;&gt;u46</title>
<path fill="none" stroke="black" d="M2896,-1419.86C2872.84,-1380.15 2815.38,-1281.66 2787.99,-1234.7"/>
<polygon fill="black" stroke="black" points="2790.99,-1232.9 2782.93,-1226.02 2784.95,-1236.43 2790.99,-1232.9"/>
</g>
<!-- u33 -->
<g id="node21" class="node">
<title>u33</title>
<ellipse fill="#bbffff" stroke="black" cx="4331" cy="-2588" rx="209.06" ry="18"/>
<text text-anchor="middle" x="4331" y="-2584.3" font-family="Times,serif" font-size="14.00">Language.Drasil.Code.Imperative.Modules</text>
</g>
<!-- u13 -->
<g id="node30" class="node">
<title>u13</title>
<ellipse fill="#bbffff" stroke="black" cx="3852" cy="-2358" rx="233.16" ry="18"/>
<text text-anchor="middle" x="3852" y="-2354.3" font-family="Times,serif" font-size="14.00">Language.Drasil.Code.Imperative.FunctionCalls</text>
</g>
<!-- u33&#45;&gt;u13 -->
<g id="edge56" class="edge">
<title>u33&#45;&gt;u13</title>
<path fill="none" stroke="black" d="M4295.78,-2570.23C4210.24,-2529.52 3991.65,-2425.47 3896.91,-2380.38"/>
<polygon fill="black" stroke="black" points="3898.13,-2377.08 3887.6,-2375.94 3895.12,-2383.4 3898.13,-2377.08"/>
</g>
<!-- u11 -->
<g id="node32" class="node">
<title>u11</title>
<ellipse fill="#bbffff" stroke="black" cx="4331" cy="-2358" rx="228.26" ry="18"/>
<text text-anchor="middle" x="4331" y="-2354.3" font-family="Times,serif" font-size="14.00">Language.Drasil.Code.Imperative.Descriptions</text>
</g>
<!-- u33&#45;&gt;u11 -->
<g id="edge55" class="edge">
<title>u33&#45;&gt;u11</title>
<path fill="none" stroke="black" d="M4331,-2569.86C4331,-2530.57 4331,-2433.7 4331,-2386.18"/>
<polygon fill="black" stroke="black" points="4334.5,-2386.02 4331,-2376.02 4327.5,-2386.02 4334.5,-2386.02"/>
</g>
<!-- u19 -->
<g id="node24" class="node">
<title>u19</title>
<ellipse fill="#bbffff" stroke="black" cx="3917" cy="-1668" rx="222.06" ry="18"/>
<text text-anchor="middle" x="3917" y="-1664.3" font-family="Times,serif" font-size="14.00">Language.Drasil.Code.Imperative.DrasilState</text>
</g>
<!-- u32&#45;&gt;u19 -->
<g id="edge54" class="edge">
<title>u32&#45;&gt;u19</title>
<path fill="none" stroke="black" d="M4080.7,-1879.86C4049.74,-1839.99 3972.77,-1740.84 3936.5,-1694.11"/>
<polygon fill="black" stroke="black" points="3939.11,-1691.78 3930.22,-1686.02 3933.58,-1696.07 3939.11,-1691.78"/>
</g>
<!-- u31&#45;&gt;u19 -->
<g id="edge52" class="edge">
<title>u31&#45;&gt;u19</title>
<path fill="none" stroke="black" d="M2786.95,-1881.06C3006.89,-1839.79 3593.72,-1729.66 3823.18,-1686.6"/>
<polygon fill="black" stroke="black" points="3824,-1690.01 3833.18,-1684.73 3822.71,-1683.13 3824,-1690.01"/>
</g>
<!-- u21 -->
<g id="node40" class="node">
<title>u21</title>
<ellipse fill="#ffff77" stroke="black" cx="2679" cy="-1668" rx="267.25" ry="18"/>
<text text-anchor="middle" x="2679" y="-1664.3" font-family="Times,serif" font-size="14.00">Language.Drasil.Code.Imperative.GOOL.ClassInterface</text>
</g>
<!-- u31&#45;&gt;u21 -->
<g id="edge53" class="edge">
<title>u31&#45;&gt;u21</title>
<path fill="none" stroke="black" d="M2700.27,-1879.86C2696.31,-1840.57 2686.54,-1743.7 2681.74,-1696.18"/>
<polygon fill="black" stroke="black" points="2685.2,-1695.62 2680.72,-1686.02 2678.24,-1696.33 2685.2,-1695.62"/>
</g>
<!-- u19&#45;&gt;u47 -->
<g id="edge33" class="edge">
<title>u19&#45;&gt;u47</title>
<path fill="none" stroke="black" d="M3871.66,-1650.33C3759.79,-1609.19 3471.01,-1502.99 3350.77,-1458.77"/>
<polygon fill="black" stroke="black" points="3351.63,-1455.36 3341.04,-1455.2 3349.22,-1461.93 3351.63,-1455.36"/>
</g>
<!-- u19&#45;&gt;u5 -->
<g id="edge32" class="edge">
<title>u19&#45;&gt;u5</title>
<path fill="none" stroke="black" d="M3920.51,-1649.59C3932.63,-1585.32 3968.23,-1356.47 3898,-1190 3862.82,-1106.6 3778.78,-1036.5 3731.6,-1002"/>
<polygon fill="black" stroke="black" points="3733.4,-998.98 3723.24,-995.97 3729.31,-1004.66 3733.4,-998.98"/>
</g>
<!-- u18 -->
<g id="node25" class="node">
<title>u18</title>
<ellipse fill="#bbffff" stroke="black" cx="4804" cy="-2358" rx="226.66" ry="18"/>
<text text-anchor="middle" x="4804" y="-2354.3" font-family="Times,serif" font-size="14.00">Language.Drasil.Code.Imperative.SpaceMatch</text>
</g>
<!-- u18&#45;&gt;u19 -->
<g id="edge31" class="edge">
<title>u18&#45;&gt;u19</title>
<path fill="none" stroke="black" d="M4809.65,-2339.7C4830.63,-2271.85 4897.07,-2020.71 4781,-1880 4690.46,-1770.24 4282.52,-1709.16 4061.08,-1683.56"/>
<polygon fill="black" stroke="black" points="4061.34,-1680.06 4051.01,-1682.4 4060.54,-1687.02 4061.34,-1680.06"/>
</g>
<!-- u17 -->
<g id="node26" class="node">
<title>u17</title>
<ellipse fill="#bbffff" stroke="black" cx="3679" cy="-1208" rx="209.86" ry="18"/>
<text text-anchor="middle" x="3679" y="-1204.3" font-family="Times,serif" font-size="14.00">Language.Drasil.Code.Imperative.GenODE</text>
</g>
<!-- u17&#45;&gt;u42 -->
<g id="edge29" class="edge">
<title>u17&#45;&gt;u42</title>
<path fill="none" stroke="black" d="M3624.63,-1190.6C3488.36,-1149.5 3132.73,-1042.25 2986.85,-998.26"/>
<polygon fill="black" stroke="black" points="2987.71,-994.86 2977.13,-995.32 2985.69,-1001.56 2987.71,-994.86"/>
</g>
<!-- u17&#45;&gt;u5 -->
<g id="edge28" class="edge">
<title>u17&#45;&gt;u5</title>
<path fill="none" stroke="black" d="M3680.43,-1189.86C3683.7,-1150.57 3691.77,-1053.7 3695.73,-1006.18"/>
<polygon fill="black" stroke="black" points="3699.24,-1006.28 3696.58,-996.02 3692.26,-1005.7 3699.24,-1006.28"/>
</g>
<!-- u17&#45;&gt;u45 -->
<g id="edge30" class="edge">
<title>u17&#45;&gt;u45</title>
<path fill="none" stroke="black" d="M3651.19,-1190.05C3584.58,-1149.44 3415.87,-1046.59 3341.34,-1001.16"/>
<polygon fill="black" stroke="black" points="3343.09,-998.12 3332.73,-995.91 3339.45,-1004.1 3343.09,-998.12"/>
</g>
<!-- u16 -->
<g id="node27" class="node">
<title>u16</title>
<ellipse fill="#bbffff" stroke="black" cx="4522" cy="-2128" rx="223.66" ry="18"/>
<text text-anchor="middle" x="4522" y="-2124.3" font-family="Times,serif" font-size="14.00">Language.Drasil.Code.Imperative.Parameters</text>
</g>
<!-- u16&#45;&gt;u6 -->
<g id="edge26" class="edge">
<title>u16&#45;&gt;u6</title>
<path fill="none" stroke="black" d="M4522,-2109.86C4522,-2070.57 4522,-1973.7 4522,-1926.18"/>
<polygon fill="black" stroke="black" points="4525.5,-1926.02 4522,-1916.02 4518.5,-1926.02 4525.5,-1926.02"/>
</g>
<!-- u16&#45;&gt;u19 -->
<g id="edge27" class="edge">
<title>u16&#45;&gt;u19</title>
<path fill="none" stroke="black" d="M4556.92,-2110.15C4633.64,-2070.93 4804.71,-1969.97 4735,-1880 4652.09,-1772.99 4263.4,-1710.59 4053.05,-1684.11"/>
<polygon fill="black" stroke="black" points="4053.21,-1680.61 4042.86,-1682.84 4052.34,-1687.55 4053.21,-1680.61"/>
</g>
<!-- u15 -->
<g id="node28" class="node">
<title>u15</title>
<ellipse fill="#bbffff" stroke="black" cx="2137" cy="-518" rx="219.86" ry="18"/>
<text text-anchor="middle" x="2137" y="-514.3" font-family="Times,serif" font-size="14.00">Language.Drasil.Code.Imperative.WriteInput</text>
</g>
<!-- u15&#45;&gt;u3 -->
<g id="edge25" class="edge">
<title>u15&#45;&gt;u3</title>
<path fill="none" stroke="black" d="M2157.59,-499.86C2206.01,-459.57 2327.15,-358.77 2382.55,-312.68"/>
<polygon fill="black" stroke="black" points="2385.09,-315.11 2390.54,-306.02 2380.61,-309.73 2385.09,-315.11"/>
</g>
<!-- u14&#45;&gt;u19 -->
<g id="edge24" class="edge">
<title>u14&#45;&gt;u19</title>
<path fill="none" stroke="black" d="M3268.83,-1880.42C3394.65,-1839.38 3720.2,-1733.19 3856.05,-1688.88"/>
<polygon fill="black" stroke="black" points="3857.46,-1692.1 3865.89,-1685.67 3855.29,-1685.45 3857.46,-1692.1"/>
</g>
<!-- u13&#45;&gt;u38 -->
<g id="edge23" class="edge">
<title>u13&#45;&gt;u38</title>
<path fill="none" stroke="black" d="M3837.79,-2339.86C3804.67,-2299.9 3722.21,-2200.42 3683.58,-2153.82"/>
<polygon fill="black" stroke="black" points="3686.19,-2151.49 3677.11,-2146.02 3680.8,-2155.96 3686.19,-2151.49"/>
</g>
<!-- u13&#45;&gt;u16 -->
<g id="edge22" class="edge">
<title>u13&#45;&gt;u16</title>
<path fill="none" stroke="black" d="M3901,-2340.33C4021.69,-2299.26 4332.94,-2193.34 4463.25,-2148.99"/>
<polygon fill="black" stroke="black" points="4464.72,-2152.19 4473.06,-2145.65 4462.47,-2145.56 4464.72,-2152.19"/>
</g>
<!-- u12 -->
<g id="node31" class="node">
<title>u12</title>
<ellipse fill="#bbffff" stroke="black" cx="2397" cy="-2128" rx="233.16" ry="18"/>
<text text-anchor="middle" x="2397" y="-2124.3" font-family="Times,serif" font-size="14.00">Language.Drasil.Code.Imperative.WriteReadMe</text>
</g>
<!-- u12&#45;&gt;u21 -->
<g id="edge21" class="edge">
<title>u12&#45;&gt;u21</title>
<path fill="none" stroke="black" d="M2397.48,-2109.89C2399.34,-2067.9 2408.44,-1957.59 2453,-1880 2501.14,-1796.18 2593.39,-1725.87 2643.86,-1691.55"/>
<polygon fill="black" stroke="black" points="2645.84,-1694.44 2652.19,-1685.96 2641.94,-1688.63 2645.84,-1694.44"/>
</g>
<!-- u11&#45;&gt;u19 -->
<g id="edge20" class="edge">
<title>u11&#45;&gt;u19</title>
<path fill="none" stroke="black" d="M4419.19,-2341.33C4520.31,-2318.14 4681.58,-2263.97 4755,-2146 4817.47,-2045.63 4828.69,-1973.24 4756,-1880 4671,-1770.98 4274.44,-1709.65 4058.33,-1683.79"/>
<polygon fill="black" stroke="black" points="4058.52,-1680.29 4048.18,-1682.59 4057.7,-1687.24 4058.52,-1680.29"/>
</g>
<!-- u10&#45;&gt;u19 -->
<g id="edge19" class="edge">
<title>u10&#45;&gt;u19</title>
<path fill="none" stroke="black" d="M3682.09,-1879.86C3726.88,-1839.66 3838.81,-1739.19 3890.31,-1692.96"/>
<polygon fill="black" stroke="black" points="3892.93,-1695.31 3898.03,-1686.02 3888.25,-1690.1 3892.93,-1695.31"/>
</g>
<!-- u9&#45;&gt;u8 -->
<g id="edge15" class="edge">
<title>u9&#45;&gt;u8</title>
<path fill="none" stroke="black" d="M4106.29,-2799.86C4069.59,-2759.82 3978.09,-2660.01 3935.49,-2613.53"/>
<polygon fill="black" stroke="black" points="3937.94,-2611.03 3928.61,-2606.02 3932.78,-2615.76 3937.94,-2611.03"/>
</g>
<!-- u9&#45;&gt;u33 -->
<g id="edge18" class="edge">
<title>u9&#45;&gt;u33</title>
<path fill="none" stroke="black" d="M4137.71,-2799.86C4174.41,-2759.82 4265.91,-2660.01 4308.51,-2613.53"/>
<polygon fill="black" stroke="black" points="4311.22,-2615.76 4315.39,-2606.02 4306.06,-2611.03 4311.22,-2615.76"/>
</g>
<!-- u9&#45;&gt;u18 -->
<g id="edge17" class="edge">
<title>u9&#45;&gt;u18</title>
<path fill="none" stroke="black" d="M4166.59,-2800.34C4247.13,-2769.1 4420.44,-2696.66 4549,-2606 4646.37,-2537.33 4742.1,-2431.52 4783.14,-2383.82"/>
<polygon fill="black" stroke="black" points="4785.86,-2386.02 4789.7,-2376.15 4780.54,-2381.47 4785.86,-2386.02"/>
</g>
<!-- u9&#45;&gt;u17 -->
<g id="edge16" class="edge">
<title>u9&#45;&gt;u17</title>
<path fill="none" stroke="black" d="M4185.67,-2800.69C4396.56,-2744.84 5059,-2553.87 5059,-2359 5059,-2359 5059,-2359 5059,-1667 5059,-1405.31 4153.84,-1267.09 3809.67,-1223.99"/>
<polygon fill="black" stroke="black" points="3810.01,-1220.51 3799.65,-1222.75 3809.14,-1227.45 3810.01,-1220.51"/>
</g>
<!-- u35 -->
<g id="node35" class="node">
<title>u35</title>
<ellipse fill="#ffbbff" stroke="black" cx="1854" cy="-2128" rx="228.56" ry="18"/>
<text text-anchor="middle" x="1854" y="-2124.3" font-family="Times,serif" font-size="14.00">Language.Drasil.Code.Imperative.Build.Import</text>
</g>
<!-- u34 -->
<g id="node36" class="node">
<title>u34</title>
<ellipse fill="#ffbbff" stroke="black" cx="1854" cy="-1898" rx="215.56" ry="18"/>
<text text-anchor="middle" x="1854" y="-1894.3" font-family="Times,serif" font-size="14.00">Language.Drasil.Code.Imperative.Build.AST</text>
</g>
<!-- u35&#45;&gt;u34 -->
<g id="edge57" class="edge">
<title>u35&#45;&gt;u34</title>
<path fill="none" stroke="black" d="M1854,-2109.86C1854,-2070.57 1854,-1973.7 1854,-1926.18"/>
<polygon fill="black" stroke="black" points="1857.5,-1926.02 1854,-1916.02 1850.5,-1926.02 1857.5,-1926.02"/>
</g>
<!-- u20 -->
<g id="node37" class="node">
<title>u20</title>
<ellipse fill="#77ff77" stroke="black" cx="2111" cy="-1668" rx="245.06" ry="18"/>
<text text-anchor="middle" x="2111" y="-1664.3" font-family="Times,serif" font-size="14.00">Language.Drasil.Code.Imperative.Doxygen.Import</text>
</g>
<!-- u20&#45;&gt;u46 -->
<g id="edge34" class="edge">
<title>u20&#45;&gt;u46</title>
<path fill="none" stroke="black" d="M2135.74,-1649.88C2237.66,-1579.37 2625,-1311.39 2740.38,-1231.57"/>
<polygon fill="black" stroke="black" points="2742.6,-1234.29 2748.83,-1225.72 2738.62,-1228.53 2742.6,-1234.29"/>
</g>
<!-- u28 -->
<g id="node39" class="node">
<title>u28</title>
<ellipse fill="#ffff77" stroke="black" cx="2943" cy="-2128" rx="289.45" ry="18"/>
<text text-anchor="middle" x="2943" y="-2124.3" font-family="Times,serif" font-size="14.00">Language.Drasil.Code.Imperative.GOOL.LanguageRenderer</text>
</g>
<!-- u21&#45;&gt;u46 -->
<g id="edge35" class="edge">
<title>u21&#45;&gt;u46</title>
<path fill="none" stroke="black" d="M2674,-1649.91C2662.91,-1609.34 2638.86,-1504.27 2660,-1420 2678.21,-1347.43 2726.71,-1272.56 2753.88,-1234.52"/>
<polygon fill="black" stroke="black" points="2756.94,-1236.26 2759.97,-1226.11 2751.27,-1232.15 2756.94,-1236.26"/>
</g>
<!-- u27&#45;&gt;u29 -->
<g id="edge50" class="edge">
<title>u27&#45;&gt;u29</title>
<path fill="none" stroke="black" d="M538.11,-2571.37C921.79,-2529.48 1969.78,-2415.04 2346.15,-2373.94"/>
<polygon fill="black" stroke="black" points="2346.71,-2377.4 2356.27,-2372.84 2345.95,-2370.44 2346.71,-2377.4"/>
</g>
<!-- u23 -->
<g id="node45" class="node">
<title>u23</title>
<ellipse fill="#7777ff" stroke="black" cx="1849" cy="-2358" rx="393.73" ry="18"/>
<text text-anchor="middle" x="1849" y="-2354.3" font-family="Times,serif" font-size="14.00">Language.Drasil.Code.Imperative.GOOL.LanguageRenderer.LanguagePolymorphic</text>
</g>
<!-- u27&#45;&gt;u23 -->
<g id="edge49" class="edge">
<title>u27&#45;&gt;u23</title>
<path fill="none" stroke="black" d="M498.98,-2570.69C763.18,-2529.27 1458.77,-2420.19 1734.27,-2376.99"/>
<polygon fill="black" stroke="black" points="1734.95,-2380.43 1744.29,-2375.42 1733.87,-2373.51 1734.95,-2380.43"/>
</g>
<!-- u26&#45;&gt;u29 -->
<g id="edge48" class="edge">
<title>u26&#45;&gt;u29</title>
<path fill="none" stroke="black" d="M1230.75,-2570.65C1477.78,-2528.9 2130.07,-2418.65 2381.85,-2376.1"/>
<polygon fill="black" stroke="black" points="2382.44,-2379.54 2391.72,-2374.43 2381.28,-2372.64 2382.44,-2379.54"/>
</g>
<!-- u26&#45;&gt;u23 -->
<g id="edge47" class="edge">
<title>u26&#45;&gt;u23</title>
<path fill="none" stroke="black" d="M1186.87,-2570.14C1316.06,-2528.94 1647.38,-2423.29 1786.26,-2379.01"/>
<polygon fill="black" stroke="black" points="1787.46,-2382.3 1795.92,-2375.93 1785.33,-2375.63 1787.46,-2382.3"/>
</g>
<!-- u25&#45;&gt;u29 -->
<g id="edge46" class="edge">
<title>u25&#45;&gt;u29</title>
<path fill="none" stroke="black" d="M1920.2,-2570.05C2029.95,-2528.89 2310.16,-2423.81 2428.72,-2379.36"/>
<polygon fill="black" stroke="black" points="2430.19,-2382.54 2438.33,-2375.75 2427.73,-2375.99 2430.19,-2382.54"/>
</g>
<!-- u25&#45;&gt;u23 -->
<g id="edge45" class="edge">
<title>u25&#45;&gt;u23</title>
<path fill="none" stroke="black" d="M1873.05,-2569.86C1868.56,-2530.57 1857.52,-2433.7 1852.1,-2386.18"/>
<polygon fill="black" stroke="black" points="1855.55,-2385.56 1850.94,-2376.02 1848.6,-2386.36 1855.55,-2385.56"/>
</g>
<!-- u24&#45;&gt;u29 -->
<g id="edge44" class="edge">
<title>u24&#45;&gt;u29</title>
<path fill="none" stroke="black" d="M2610.63,-2569.86C2586.59,-2530.15 2526.98,-2431.66 2498.55,-2384.7"/>
<polygon fill="black" stroke="black" points="2501.48,-2382.77 2493.3,-2376.02 2495.49,-2386.39 2501.48,-2382.77"/>
</g>
<!-- u24&#45;&gt;u23 -->
<g id="edge43" class="edge">
<title>u24&#45;&gt;u23</title>
<path fill="none" stroke="black" d="M2563.92,-2570.14C2424.2,-2528.88 2065.54,-2422.95 1916.02,-2378.79"/>
<polygon fill="black" stroke="black" points="1916.63,-2375.32 1906.05,-2375.85 1914.65,-2382.04 1916.63,-2375.32"/>
</g>
<!-- u23&#45;&gt;u15 -->
<g id="edge39" class="edge">
<title>u23&#45;&gt;u15</title>
<path fill="none" stroke="black" d="M1818.39,-2339.99C1766.21,-2309.11 1661.29,-2238.37 1616,-2146 1567.53,-2047.14 1597,-2009.1 1597,-1899 1597,-1899 1597,-1899 1597,-977 1597,-729.45 1931.13,-587.96 2073.73,-538.85"/>
<polygon fill="black" stroke="black" points="2074.91,-542.14 2083.25,-535.61 2072.65,-535.52 2074.91,-542.14"/>
</g>
<!-- u23&#45;&gt;u12 -->
<g id="edge38" class="edge">
<title>u23&#45;&gt;u12</title>
<path fill="none" stroke="black" d="M1889.74,-2340.05C1988.46,-2298.98 2240.21,-2194.24 2347.43,-2149.62"/>
<polygon fill="black" stroke="black" points="2348.85,-2152.83 2356.73,-2145.75 2346.16,-2146.36 2348.85,-2152.83"/>
</g>
<!-- u23&#45;&gt;u35 -->
<g id="edge42" class="edge">
<title>u23&#45;&gt;u35</title>
<path fill="none" stroke="black" d="M1849.38,-2339.86C1850.24,-2300.57 1852.36,-2203.7 1853.4,-2156.18"/>
<polygon fill="black" stroke="black" points="1856.91,-2156.1 1853.63,-2146.02 1849.91,-2155.95 1856.91,-2156.1"/>
</g>
<!-- u23&#45;&gt;u20 -->
<g id="edge40" class="edge">
<title>u23&#45;&gt;u20</title>
<path fill="none" stroke="black" d="M1882.14,-2340.05C1937.37,-2309.72 2046.64,-2240.43 2092,-2146 2166.73,-1990.42 2132.45,-1772.29 2117.06,-1696.35"/>
<polygon fill="black" stroke="black" points="2120.41,-1695.27 2114.94,-1686.2 2113.56,-1696.7 2120.41,-1695.27"/>
</g>
<!-- u23&#45;&gt;u28 -->
<g id="edge41" class="edge">
<title>u23&#45;&gt;u28</title>
<path fill="none" stroke="black" d="M1929,-2340.33C2128.43,-2298.76 2646.51,-2190.79 2854.59,-2147.43"/>
<polygon fill="black" stroke="black" points="2855.48,-2150.81 2864.56,-2145.35 2854.06,-2143.96 2855.48,-2150.81"/>
</g>
<!-- u22&#45;&gt;u29 -->
<g id="edge37" class="edge">
<title>u22&#45;&gt;u29</title>
<path fill="none" stroke="black" d="M3287.17,-2570.23C3129.37,-2528.78 2721.65,-2421.69 2555.29,-2377.99"/>
<polygon fill="black" stroke="black" points="2555.73,-2374.49 2545.17,-2375.33 2553.95,-2381.26 2555.73,-2374.49"/>
</g>
<!-- u22&#45;&gt;u23 -->
<g id="edge36" class="edge">
<title>u22&#45;&gt;u23</title>
<path fill="none" stroke="black" d="M3244.48,-2570.83C2971.93,-2529.46 2250.73,-2419.98 1966.51,-2376.84"/>
<polygon fill="black" stroke="black" points="1967,-2373.37 1956.59,-2375.33 1965.95,-2380.29 1967,-2373.37"/>
</g>
<!-- u30 -->
<g id="node47" class="node">
<title>u30</title>
<ellipse fill="#ff7777" stroke="black" cx="2991" cy="-2358" rx="267.55" ry="18"/>
<text text-anchor="middle" x="2991" y="-2354.3" font-family="Times,serif" font-size="14.00">Language.Drasil.Code.Imperative.Parsers.ConfigParser</text>
</g>
<!-- u30&#45;&gt;u28 -->
<g id="edge51" class="edge">
<title>u30&#45;&gt;u28</title>
<path fill="none" stroke="black" d="M2987.39,-2339.86C2979.1,-2300.48 2958.64,-2203.3 2948.66,-2155.88"/>
<polygon fill="black" stroke="black" points="2952.07,-2155.09 2946.58,-2146.02 2945.22,-2156.53 2952.07,-2155.09"/>
</g>
<!-- u45&#45;&gt;u7 -->
<g id="edge73" class="edge">
<title>u45&#45;&gt;u7</title>
<path fill="none" stroke="black" d="M3335.59,-960.23C3409.74,-919.59 3599.03,-815.85 3681.55,-770.62"/>
<polygon fill="black" stroke="black" points="3683.28,-773.67 3690.37,-765.79 3679.91,-767.53 3683.28,-773.67"/>
</g>
<!-- u45&#45;&gt;u4 -->
<g id="edge72" class="edge">
<title>u45&#45;&gt;u4</title>
<path fill="none" stroke="black" d="M3277.86,-960.05C3212.9,-919.47 3048.47,-816.75 2975.65,-771.27"/>
<polygon fill="black" stroke="black" points="2977.16,-768.08 2966.82,-765.75 2973.45,-774.02 2977.16,-768.08"/>
</g>
<!-- u45&#45;&gt;u2 -->
<g id="edge71" class="edge">
<title>u45&#45;&gt;u2</title>
<path fill="none" stroke="black" d="M3305,-959.86C3305,-920.57 3305,-823.7 3305,-776.18"/>
<polygon fill="black" stroke="black" points="3308.5,-776.02 3305,-766.02 3301.5,-776.02 3308.5,-776.02"/>
</g>
<!-- u45&#45;&gt;u44 -->
<g id="edge74" class="edge">
<title>u45&#45;&gt;u44</title>
<path fill="none" stroke="black" d="M3256.66,-960.69C3135.17,-919.72 2817.48,-812.57 2686.62,-768.43"/>
<polygon fill="black" stroke="black" points="2687.37,-764.99 2676.78,-765.11 2685.13,-771.63 2687.37,-764.99"/>
</g>
<!-- u44&#45;&gt;u39 -->
<g id="edge70" class="edge">
<title>u44&#45;&gt;u39</title>
<path fill="none" stroke="black" d="M2629,-729.99C2629,-638.07 2629,-200.58 2629,-86.34"/>
<polygon fill="black" stroke="black" points="2632.5,-86.03 2629,-76.03 2625.5,-86.03 2632.5,-86.03"/>
</g>
<!-- u53 -->
<g id="node50" class="node">
<title>u53</title>
<ellipse fill="#ff77ff" stroke="black" cx="4607" cy="-3048" rx="85.29" ry="18"/>
<text text-anchor="middle" x="4607" y="-3044.3" font-family="Times,serif" font-size="14.00">Test.HelloWorld</text>
</g>
<!-- u51 -->
<g id="node52" class="node">
<title>u51</title>
<ellipse fill="#ff77ff" stroke="black" cx="4607" cy="-2818" rx="64.99" ry="18"/>
<text text-anchor="middle" x="4607" y="-2814.3" font-family="Times,serif" font-size="14.00">Test.Helper</text>
</g>
<!-- u53&#45;&gt;u51 -->
<g id="edge85" class="edge">
<title>u53&#45;&gt;u51</title>
<path fill="none" stroke="black" d="M4607,-3029.86C4607,-2990.57 4607,-2893.7 4607,-2846.18"/>
<polygon fill="black" stroke="black" points="4610.5,-2846.02 4607,-2836.02 4603.5,-2846.02 4610.5,-2846.02"/>
</g>
<!-- u52 -->
<g id="node51" class="node">
<title>u52</title>
<ellipse fill="#ff77ff" stroke="black" cx="4433" cy="-2818" rx="76.09" ry="18"/>
<text text-anchor="middle" x="4433" y="-2814.3" font-family="Times,serif" font-size="14.00">Test.Observer</text>
</g>
<!-- u50 -->
<g id="node53" class="node">
<title>u50</title>
<ellipse fill="#ff77ff" stroke="black" cx="4237" cy="-3048" rx="75.29" ry="18"/>
<text text-anchor="middle" x="4237" y="-3044.3" font-family="Times,serif" font-size="14.00">Test.FileTests</text>
</g>
<!-- u49 -->
<g id="node54" class="node">
<title>u49</title>
<ellipse fill="#ff77ff" stroke="black" cx="4327" cy="-3278" rx="56.59" ry="18"/>
<text text-anchor="middle" x="4327" y="-3274.3" font-family="Times,serif" font-size="14.00">Test.Main</text>
</g>
<!-- u49&#45;&gt;u0 -->
<g id="edge81" class="edge">
<title>u49&#45;&gt;u0</title>
<path fill="none" stroke="black" d="M4274.82,-3271.02C4007.85,-3240.42 2793.42,-3101.21 2436.76,-3060.32"/>
<polygon fill="black" stroke="black" points="2437.05,-3056.83 2426.72,-3059.17 2436.25,-3063.79 2437.05,-3056.83"/>
</g>
<!-- u49&#45;&gt;u53 -->
<g id="edge84" class="edge">
<title>u49&#45;&gt;u53</title>
<path fill="none" stroke="black" d="M4346.69,-3260.97C4395.45,-3221.26 4521.98,-3118.23 4578.73,-3072.02"/>
<polygon fill="black" stroke="black" points="4581.04,-3074.66 4586.58,-3065.63 4576.62,-3069.23 4581.04,-3074.66"/>
</g>
<!-- u49&#45;&gt;u50 -->
<g id="edge83" class="edge">
<title>u49&#45;&gt;u50</title>
<path fill="none" stroke="black" d="M4320.24,-3259.86C4304.66,-3220.4 4266.17,-3122.89 4247.49,-3075.58"/>
<polygon fill="black" stroke="black" points="4250.65,-3074.04 4243.72,-3066.02 4244.14,-3076.61 4250.65,-3074.04"/>
</g>
<!-- u48 -->
<g id="node55" class="node">
<title>u48</title>
<ellipse fill="#ff77ff" stroke="black" cx="4417" cy="-3048" rx="87.18" ry="18"/>
<text text-anchor="middle" x="4417" y="-3044.3" font-family="Times,serif" font-size="14.00">Test.PatternTest</text>
</g>
<!-- u49&#45;&gt;u48 -->
<g id="edge82" class="edge">
<title>u49&#45;&gt;u48</title>
<path fill="none" stroke="black" d="M4333.76,-3259.86C4349.34,-3220.4 4387.83,-3122.89 4406.51,-3075.58"/>
<polygon fill="black" stroke="black" points="4409.86,-3076.61 4410.28,-3066.02 4403.35,-3074.04 4409.86,-3076.61"/>
</g>
<!-- u48&#45;&gt;u52 -->
<g id="edge80" class="edge">
<title>u48&#45;&gt;u52</title>
<path fill="none" stroke="black" d="M4418.2,-3029.86C4420.96,-2990.57 4427.76,-2893.7 4431.09,-2846.18"/>
<polygon fill="black" stroke="black" points="4434.6,-2846.25 4431.81,-2836.02 4427.61,-2845.76 4434.6,-2846.25"/>
</g>
</g>
</svg>
