<?xml version="1.0" encoding="UTF-8" standalone="no"?>
<!DOCTYPE svg PUBLIC "-//W3C//DTD SVG 1.1//EN"
 "http://www.w3.org/Graphics/SVG/1.1/DTD/svg11.dtd">
<!-- Generated by graphviz version 2.43.0 (0)
 -->
<!-- Title: G Pages: 1 -->
<svg width="431pt" height="288pt"
 viewBox="0.00 0.00 431.30 288.00" xmlns="http://www.w3.org/2000/svg" xmlns:xlink="http://www.w3.org/1999/xlink">
<g id="graph0" class="graph" transform="scale(4.73 4.73) rotate(0) translate(4 1358.67)">
<title>G</title>
<polygon fill="white" stroke="transparent" points="-4,4 -4,-1358.67 2036.67,-1358.67 2036.67,4 -4,4"/>
<!-- u7 -->
<g id="node1" class="node">
<title>u7</title>
<ellipse fill="#bbffbb" stroke="black" cx="123.49" cy="-1207" rx="123.48" ry="18"/>
<text text-anchor="middle" x="123.49" y="-1203.3" font-family="Times,serif" font-size="14.00">Language.Drasil.Format</text>
</g>
<!-- u2 -->
<g id="node2" class="node">
<title>u2</title>
<ellipse fill="#bbffbb" stroke="black" cx="694.49" cy="-1325" rx="128.08" ry="18"/>
<text text-anchor="middle" x="694.49" y="-1321.3" font-family="Times,serif" font-size="14.00">Language.Drasil.Printers</text>
</g>
<!-- u2&#45;&gt;u7 -->
<g id="edge3" class="edge">
<title>u2&#45;&gt;u7</title>
<path fill="none" stroke="black" d="M624.76,-1309.83C517.91,-1288.13 314.3,-1246.76 202.26,-1224"/>
<polygon fill="black" stroke="black" points="202.87,-1220.55 192.37,-1221.99 201.48,-1227.41 202.87,-1220.55"/>
</g>
<!-- u8 -->
<g id="node4" class="node">
<title>u8</title>
<ellipse fill="#ffffbb" stroke="black" cx="400.49" cy="-1207" rx="135.68" ry="18"/>
<text text-anchor="middle" x="400.49" y="-1203.3" font-family="Times,serif" font-size="14.00">Language.Drasil.DOT.Print</text>
</g>
<!-- u2&#45;&gt;u8 -->
<g id="edge4" class="edge">
<title>u2&#45;&gt;u8</title>
<path fill="none" stroke="black" d="M653.61,-1307.87C600.66,-1286.98 508.38,-1250.57 451.07,-1227.96"/>
<polygon fill="black" stroke="black" points="452.08,-1224.59 441.49,-1224.18 449.51,-1231.1 452.08,-1224.59"/>
</g>
<!-- u29 -->
<g id="node9" class="node">
<title>u29</title>
<ellipse fill="#ffbbbb" stroke="black" cx="694.49" cy="-1207" rx="140.28" ry="18"/>
<text text-anchor="middle" x="694.49" y="-1203.3" font-family="Times,serif" font-size="14.00">Language.Drasil.JSON.Print</text>
</g>
<!-- u2&#45;&gt;u29 -->
<g id="edge6" class="edge">
<title>u2&#45;&gt;u29</title>
<path fill="none" stroke="black" d="M694.49,-1306.88C694.49,-1288.04 694.49,-1257.47 694.49,-1235.3"/>
<polygon fill="black" stroke="black" points="697.99,-1235.19 694.49,-1225.19 690.99,-1235.19 697.99,-1235.19"/>
</g>
<!-- u27 -->
<g id="node11" class="node">
<title>u27</title>
<ellipse fill="#bbffff" stroke="black" cx="1041.49" cy="-1207" rx="188.47" ry="18"/>
<text text-anchor="middle" x="1041.49" y="-1203.3" font-family="Times,serif" font-size="14.00">Language.Drasil.Markdown.CreateMd</text>
</g>
<!-- u2&#45;&gt;u27 -->
<g id="edge5" class="edge">
<title>u2&#45;&gt;u27</title>
<path fill="none" stroke="black" d="M741.65,-1308.24C804.26,-1287.3 914.81,-1250.35 982.77,-1227.63"/>
<polygon fill="black" stroke="black" points="984.1,-1230.88 992.47,-1224.39 981.88,-1224.24 984.1,-1230.88"/>
</g>
<!-- u1 -->
<g id="node12" class="node">
<title>u1</title>
<ellipse fill="#ffbbff" stroke="black" cx="1297.49" cy="-1090" rx="139.98" ry="18"/>
<text text-anchor="middle" x="1297.49" y="-1086.3" font-family="Times,serif" font-size="14.00">Language.Drasil.Plain.Print</text>
</g>
<!-- u2&#45;&gt;u1 -->
<g id="edge2" class="edge">
<title>u2&#45;&gt;u1</title>
<path fill="none" stroke="black" d="M805.7,-1315.98C944.85,-1303.92 1172.88,-1276.77 1238.49,-1225 1272.05,-1198.52 1286.98,-1149 1293.27,-1118.14"/>
<polygon fill="black" stroke="black" points="1296.76,-1118.55 1295.15,-1108.08 1289.87,-1117.26 1296.76,-1118.55"/>
</g>
<!-- u0 -->
<g id="node3" class="node">
<title>u0</title>
<ellipse fill="#bbffbb" stroke="black" cx="566.49" cy="-618" rx="119.68" ry="18"/>
<text text-anchor="middle" x="566.49" y="-614.3" font-family="Times,serif" font-size="14.00">Language.Drasil.Config</text>
</g>
<!-- u6 -->
<g id="node5" class="node">
<title>u6</title>
<ellipse fill="#bbbbff" stroke="black" cx="694.49" cy="-1090" rx="144.87" ry="18"/>
<text text-anchor="middle" x="694.49" y="-1086.3" font-family="Times,serif" font-size="14.00">Language.Drasil.HTML.Print</text>
</g>
<!-- u5 -->
<g id="node6" class="node">
<title>u5</title>
<ellipse fill="#bbbbff" stroke="black" cx="818.49" cy="-972" rx="140.28" ry="18"/>
<text text-anchor="middle" x="818.49" y="-968.3" font-family="Times,serif" font-size="14.00">Language.Drasil.HTML.CSS</text>
</g>
<!-- u6&#45;&gt;u5 -->
<g id="edge10" class="edge">
<title>u6&#45;&gt;u5</title>
<path fill="none" stroke="black" d="M712.52,-1072.13C733.73,-1052.29 769.1,-1019.21 793.08,-996.77"/>
<polygon fill="black" stroke="black" points="795.52,-999.28 800.44,-989.89 790.74,-994.16 795.52,-999.28"/>
</g>
<!-- u4 -->
<g id="node7" class="node">
<title>u4</title>
<ellipse fill="#bbbbff" stroke="black" cx="1130.49" cy="-972" rx="153.27" ry="18"/>
<text text-anchor="middle" x="1130.49" y="-968.3" font-family="Times,serif" font-size="14.00">Language.Drasil.HTML.Monad</text>
</g>
<!-- u6&#45;&gt;u4 -->
<g id="edge9" class="edge">
<title>u6&#45;&gt;u4</title>
<path fill="none" stroke="black" d="M752.84,-1073.48C832.86,-1052.19 976.4,-1014 1061.6,-991.33"/>
<polygon fill="black" stroke="black" points="1062.68,-994.66 1071.44,-988.71 1060.88,-987.9 1062.68,-994.66"/>
</g>
<!-- u3 -->
<g id="node8" class="node">
<title>u3</title>
<ellipse fill="#bbbbff" stroke="black" cx="217.49" cy="-972" rx="157.87" ry="18"/>
<text text-anchor="middle" x="217.49" y="-968.3" font-family="Times,serif" font-size="14.00">Language.Drasil.HTML.Helpers</text>
</g>
<!-- u6&#45;&gt;u3 -->
<g id="edge8" class="edge">
<title>u6&#45;&gt;u3</title>
<path fill="none" stroke="black" d="M631.64,-1073.72C543.77,-1052.35 384.52,-1013.62 291.17,-990.92"/>
<polygon fill="black" stroke="black" points="291.78,-987.47 281.24,-988.5 290.13,-994.27 291.78,-987.47"/>
</g>
<!-- u12 -->
<g id="node27" class="node">
<title>u12</title>
<ellipse fill="#7777ff" stroke="black" cx="526.49" cy="-972" rx="133.48" ry="18"/>
<text text-anchor="middle" x="526.49" y="-968.3" font-family="Times,serif" font-size="14.00">Language.Drasil.TeX.Print</text>
</g>
<!-- u6&#45;&gt;u12 -->
<g id="edge11" class="edge">
<title>u6&#45;&gt;u12</title>
<path fill="none" stroke="black" d="M670.06,-1072.13C640.82,-1051.94 591.74,-1018.06 559.24,-995.61"/>
<polygon fill="black" stroke="black" points="561.16,-992.69 550.95,-989.89 557.19,-998.45 561.16,-992.69"/>
</g>
<!-- u26 -->
<g id="node13" class="node">
<title>u26</title>
<ellipse fill="#77ff77" stroke="black" cx="831.49" cy="-29" rx="149.47" ry="18"/>
<text text-anchor="middle" x="831.49" y="-25.3" font-family="Times,serif" font-size="14.00">Language.Drasil.Printing.AST</text>
</g>
<!-- u3&#45;&gt;u26 -->
<g id="edge7" class="edge">
<title>u3&#45;&gt;u26</title>
<path fill="none" stroke="black" d="M204.42,-953.88C177.31,-916.62 117.49,-824.47 117.49,-737 117.49,-737 117.49,-737 117.49,-264 117.49,-139.17 516.58,-70.2 718.02,-43.34"/>
<polygon fill="black" stroke="black" points="718.59,-46.79 728.05,-42.01 717.68,-39.85 718.59,-46.79"/>
</g>
<!-- u29&#45;&gt;u6 -->
<g id="edge37" class="edge">
<title>u29&#45;&gt;u6</title>
<path fill="none" stroke="black" d="M694.49,-1188.53C694.49,-1169.94 694.49,-1140.24 694.49,-1118.5"/>
<polygon fill="black" stroke="black" points="697.99,-1118.25 694.49,-1108.25 690.99,-1118.25 697.99,-1118.25"/>
</g>
<!-- u28 -->
<g id="node10" class="node">
<title>u28</title>
<ellipse fill="#ffbbbb" stroke="black" cx="324.49" cy="-1090" rx="153.27" ry="18"/>
<text text-anchor="middle" x="324.49" y="-1086.3" font-family="Times,serif" font-size="14.00">Language.Drasil.JSON.Helpers</text>
</g>
<!-- u29&#45;&gt;u28 -->
<g id="edge38" class="edge">
<title>u29&#45;&gt;u28</title>
<path fill="none" stroke="black" d="M643.43,-1190.13C576.12,-1169.21 457.83,-1132.44 385.77,-1110.05"/>
<polygon fill="black" stroke="black" points="386.5,-1106.61 375.92,-1106.98 384.43,-1113.29 386.5,-1106.61"/>
</g>
<!-- u28&#45;&gt;u3 -->
<g id="edge36" class="edge">
<title>u28&#45;&gt;u3</title>
<path fill="none" stroke="black" d="M308.7,-1071.88C290.6,-1052.27 260.8,-1019.95 240.21,-997.63"/>
<polygon fill="black" stroke="black" points="242.69,-995.16 233.34,-990.19 237.55,-999.91 242.69,-995.16"/>
</g>
<!-- u21 -->
<g id="node18" class="node">
<title>u21</title>
<ellipse fill="#77ff77" stroke="black" cx="1303.49" cy="-854" rx="162.47" ry="18"/>
<text text-anchor="middle" x="1303.49" y="-850.3" font-family="Times,serif" font-size="14.00">Language.Drasil.Printing.Import</text>
</g>
<!-- u1&#45;&gt;u21 -->
<g id="edge1" class="edge">
<title>u1&#45;&gt;u21</title>
<path fill="none" stroke="black" d="M1297.93,-1071.79C1298.96,-1031.56 1301.54,-931.08 1302.79,-882.35"/>
<polygon fill="black" stroke="black" points="1306.29,-882.32 1303.05,-872.23 1299.29,-882.14 1306.29,-882.32"/>
</g>
<!-- u25 -->
<g id="node14" class="node">
<title>u25</title>
<ellipse fill="#77ff77" stroke="black" cx="861.49" cy="-383" rx="167.87" ry="18"/>
<text text-anchor="middle" x="861.49" y="-379.3" font-family="Times,serif" font-size="14.00">Language.Drasil.Printing.Citation</text>
</g>
<!-- u25&#45;&gt;u26 -->
<g id="edge35" class="edge">
<title>u25&#45;&gt;u26</title>
<path fill="none" stroke="black" d="M847.2,-364.88C819.12,-330 757.58,-247.03 735.49,-165 731.33,-149.55 729.48,-143.83 735.49,-129 748.14,-97.78 775.89,-70.97 798.32,-53.15"/>
<polygon fill="black" stroke="black" points="800.51,-55.88 806.3,-47 796.24,-50.33 800.51,-55.88"/>
</g>
<!-- u24 -->
<g id="node15" class="node">
<title>u24</title>
<ellipse fill="#77ff77" stroke="black" cx="1390.49" cy="-147" rx="223.66" ry="18"/>
<text text-anchor="middle" x="1390.49" y="-143.3" font-family="Times,serif" font-size="14.00">Language.Drasil.Printing.PrintingInformation</text>
</g>
<!-- u23 -->
<g id="node16" class="node">
<title>u23</title>
<ellipse fill="#77ff77" stroke="black" cx="882.49" cy="-618" rx="178.97" ry="18"/>
<text text-anchor="middle" x="882.49" y="-614.3" font-family="Times,serif" font-size="14.00">Language.Drasil.Printing.LayoutObj</text>
</g>
<!-- u23&#45;&gt;u25 -->
<g id="edge34" class="edge">
<title>u23&#45;&gt;u25</title>
<path fill="none" stroke="black" d="M880.94,-599.87C877.33,-559.81 868.32,-459.75 863.94,-411.23"/>
<polygon fill="black" stroke="black" points="867.42,-410.8 863.04,-401.16 860.45,-411.43 867.42,-410.8"/>
</g>
<!-- u22 -->
<g id="node17" class="node">
<title>u22</title>
<ellipse fill="#77ff77" stroke="black" cx="312.49" cy="-501" rx="167.07" ry="18"/>
<text text-anchor="middle" x="312.49" y="-497.3" font-family="Times,serif" font-size="14.00">Language.Drasil.Printing.Helpers</text>
</g>
<!-- u18 -->
<g id="node21" class="node">
<title>u18</title>
<ellipse fill="#ffff77" stroke="black" cx="1598.49" cy="-265" rx="211.46" ry="18"/>
<text text-anchor="middle" x="1598.49" y="-261.3" font-family="Times,serif" font-size="14.00">Language.Drasil.Printing.Import.CodeExpr</text>
</g>
<!-- u21&#45;&gt;u18 -->
<g id="edge33" class="edge">
<title>u21&#45;&gt;u18</title>
<path fill="none" stroke="black" d="M1372.54,-837.54C1418.56,-823.56 1476.45,-798.17 1509.49,-754 1545.9,-705.32 1531.49,-679.79 1531.49,-619 1531.49,-619 1531.49,-619 1531.49,-500 1531.49,-421.98 1566.33,-334.79 1585.77,-292.24"/>
<polygon fill="black" stroke="black" points="1588.96,-293.67 1590,-283.13 1582.61,-290.72 1588.96,-293.67"/>
</g>
<!-- u13 -->
<g id="node26" class="node">
<title>u13</title>
<ellipse fill="#ffff77" stroke="black" cx="1287.49" cy="-736" rx="212.56" ry="18"/>
<text text-anchor="middle" x="1287.49" y="-732.3" font-family="Times,serif" font-size="14.00">Language.Drasil.Printing.Import.Document</text>
</g>
<!-- u21&#45;&gt;u13 -->
<g id="edge32" class="edge">
<title>u21&#45;&gt;u13</title>
<path fill="none" stroke="black" d="M1301.13,-835.88C1298.53,-817.04 1294.31,-786.47 1291.26,-764.3"/>
<polygon fill="black" stroke="black" points="1294.69,-763.61 1289.86,-754.19 1287.76,-764.57 1294.69,-763.61"/>
</g>
<!-- u20 -->
<g id="node19" class="node">
<title>u20</title>
<ellipse fill="#ffff77" stroke="black" cx="1287.49" cy="-618" rx="207.96" ry="18"/>
<text text-anchor="middle" x="1287.49" y="-614.3" font-family="Times,serif" font-size="14.00">Language.Drasil.Printing.Import.Sentence</text>
</g>
<!-- u15 -->
<g id="node24" class="node">
<title>u15</title>
<ellipse fill="#ffff77" stroke="black" cx="1266.49" cy="-501" rx="222.06" ry="18"/>
<text text-anchor="middle" x="1266.49" y="-497.3" font-family="Times,serif" font-size="14.00">Language.Drasil.Printing.Import.DisplayExpr</text>
</g>
<!-- u20&#45;&gt;u15 -->
<g id="edge31" class="edge">
<title>u20&#45;&gt;u15</title>
<path fill="none" stroke="black" d="M1284.3,-599.53C1280.89,-580.85 1275.43,-550.97 1271.46,-529.2"/>
<polygon fill="black" stroke="black" points="1274.88,-528.46 1269.64,-519.25 1267.99,-529.72 1274.88,-528.46"/>
</g>
<!-- u19 -->
<g id="node20" class="node">
<title>u19</title>
<ellipse fill="#ffff77" stroke="black" cx="1248.49" cy="-383" rx="193.07" ry="18"/>
<text text-anchor="middle" x="1248.49" y="-379.3" font-family="Times,serif" font-size="14.00">Language.Drasil.Printing.Import.Space</text>
</g>
<!-- u16 -->
<g id="node23" class="node">
<title>u16</title>
<ellipse fill="#ffff77" stroke="black" cx="1181.49" cy="-265" rx="187.67" ry="18"/>
<text text-anchor="middle" x="1181.49" y="-261.3" font-family="Times,serif" font-size="14.00">Language.Drasil.Printing.Import.Expr</text>
</g>
<!-- u19&#45;&gt;u16 -->
<g id="edge30" class="edge">
<title>u19&#45;&gt;u16</title>
<path fill="none" stroke="black" d="M1238.6,-364.88C1227.52,-345.69 1209.42,-314.35 1196.57,-292.1"/>
<polygon fill="black" stroke="black" points="1199.45,-290.1 1191.42,-283.19 1193.39,-293.6 1199.45,-290.1"/>
</g>
<!-- u18&#45;&gt;u24 -->
<g id="edge29" class="edge">
<title>u18&#45;&gt;u24</title>
<path fill="none" stroke="black" d="M1568.24,-247.13C1531.58,-226.69 1469.72,-192.19 1429.5,-169.76"/>
<polygon fill="black" stroke="black" points="1431.21,-166.7 1420.77,-164.89 1427.8,-172.82 1431.21,-166.7"/>
</g>
<!-- u17 -->
<g id="node22" class="node">
<title>u17</title>
<ellipse fill="#ffff77" stroke="black" cx="1832.49" cy="-147" rx="200.36" ry="18"/>
<text text-anchor="middle" x="1832.49" y="-143.3" font-family="Times,serif" font-size="14.00">Language.Drasil.Printing.Import.Symbol</text>
</g>
<!-- u18&#45;&gt;u17 -->
<g id="edge28" class="edge">
<title>u18&#45;&gt;u17</title>
<path fill="none" stroke="black" d="M1632.51,-247.13C1674.02,-226.56 1744.23,-191.75 1789.45,-169.34"/>
<polygon fill="black" stroke="black" points="1791.02,-172.47 1798.42,-164.89 1787.91,-166.19 1791.02,-172.47"/>
</g>
<!-- u14 -->
<g id="node25" class="node">
<title>u14</title>
<ellipse fill="#ffff77" stroke="black" cx="946.49" cy="-147" rx="202.26" ry="18"/>
<text text-anchor="middle" x="946.49" y="-143.3" font-family="Times,serif" font-size="14.00">Language.Drasil.Printing.Import.Helpers</text>
</g>
<!-- u18&#45;&gt;u14 -->
<g id="edge27" class="edge">
<title>u18&#45;&gt;u14</title>
<path fill="none" stroke="black" d="M1511.57,-248.54C1389.8,-226.87 1169.17,-187.62 1042.62,-165.1"/>
<polygon fill="black" stroke="black" points="1043.01,-161.62 1032.55,-163.31 1041.78,-168.51 1043.01,-161.62"/>
</g>
<!-- u17&#45;&gt;u26 -->
<g id="edge26" class="edge">
<title>u17&#45;&gt;u26</title>
<path fill="none" stroke="black" d="M1715.21,-132.41C1521.34,-109.94 1136.45,-65.34 945.05,-43.16"/>
<polygon fill="black" stroke="black" points="945.3,-39.67 934.96,-41.99 944.49,-46.62 945.3,-39.67"/>
</g>
<!-- u16&#45;&gt;u24 -->
<g id="edge25" class="edge">
<title>u16&#45;&gt;u24</title>
<path fill="none" stroke="black" d="M1211.88,-247.13C1248.72,-226.69 1310.87,-192.19 1351.29,-169.76"/>
<polygon fill="black" stroke="black" points="1353.02,-172.8 1360.06,-164.89 1349.62,-166.68 1353.02,-172.8"/>
</g>
<!-- u16&#45;&gt;u17 -->
<g id="edge24" class="edge">
<title>u16&#45;&gt;u17</title>
<path fill="none" stroke="black" d="M1266.26,-248.89C1387.46,-227.3 1609.61,-187.71 1736.64,-165.08"/>
<polygon fill="black" stroke="black" points="1737.51,-168.48 1746.75,-163.28 1736.29,-161.59 1737.51,-168.48"/>
</g>
<!-- u16&#45;&gt;u14 -->
<g id="edge23" class="edge">
<title>u16&#45;&gt;u14</title>
<path fill="none" stroke="black" d="M1147.57,-247.26C1105.95,-226.71 1035.32,-191.85 989.81,-169.38"/>
<polygon fill="black" stroke="black" points="991.3,-166.21 980.78,-164.93 988.2,-172.49 991.3,-166.21"/>
</g>
<!-- u15&#45;&gt;u19 -->
<g id="edge22" class="edge">
<title>u15&#45;&gt;u19</title>
<path fill="none" stroke="black" d="M1263.83,-482.88C1260.91,-464.04 1256.17,-433.47 1252.73,-411.3"/>
<polygon fill="black" stroke="black" points="1256.15,-410.53 1251.16,-401.19 1249.23,-411.6 1256.15,-410.53"/>
</g>
<!-- u14&#45;&gt;u26 -->
<g id="edge21" class="edge">
<title>u14&#45;&gt;u26</title>
<path fill="none" stroke="black" d="M929.52,-128.88C909.99,-109.18 877.75,-76.67 855.62,-54.34"/>
<polygon fill="black" stroke="black" points="858.05,-51.82 848.53,-47.19 853.08,-56.75 858.05,-51.82"/>
</g>
<!-- u13&#45;&gt;u23 -->
<g id="edge20" class="edge">
<title>u13&#45;&gt;u23</title>
<path fill="none" stroke="black" d="M1230.32,-718.63C1156.09,-697.36 1026.79,-660.33 948.48,-637.9"/>
<polygon fill="black" stroke="black" points="949.29,-634.49 938.71,-635.1 947.36,-641.22 949.29,-634.49"/>
</g>
<!-- u13&#45;&gt;u20 -->
<g id="edge19" class="edge">
<title>u13&#45;&gt;u20</title>
<path fill="none" stroke="black" d="M1287.49,-717.88C1287.49,-699.04 1287.49,-668.47 1287.49,-646.3"/>
<polygon fill="black" stroke="black" points="1290.99,-646.19 1287.49,-636.19 1283.99,-646.19 1290.99,-646.19"/>
</g>
<!-- u12&#45;&gt;u21 -->
<g id="edge18" class="edge">
<title>u12&#45;&gt;u21</title>
<path fill="none" stroke="black" d="M612.24,-958.2C756.29,-936.69 1046.24,-893.41 1200.87,-870.32"/>
<polygon fill="black" stroke="black" points="1201.49,-873.77 1210.86,-868.83 1200.45,-866.84 1201.49,-873.77"/>
</g>
<!-- u11 -->
<g id="node28" class="node">
<title>u11</title>
<ellipse fill="#7777ff" stroke="black" cx="534.49" cy="-854" rx="154.07" ry="18"/>
<text text-anchor="middle" x="534.49" y="-850.3" font-family="Times,serif" font-size="14.00">Language.Drasil.TeX.Preamble</text>
</g>
<!-- u12&#45;&gt;u11 -->
<g id="edge17" class="edge">
<title>u12&#45;&gt;u11</title>
<path fill="none" stroke="black" d="M527.67,-953.88C528.97,-935.04 531.08,-904.47 532.61,-882.3"/>
<polygon fill="black" stroke="black" points="536.11,-882.4 533.3,-872.19 529.12,-881.92 536.11,-882.4"/>
</g>
<!-- u11&#45;&gt;u23 -->
<g id="edge16" class="edge">
<title>u11&#45;&gt;u23</title>
<path fill="none" stroke="black" d="M561.59,-836.17C592.71,-816.74 645.16,-783.64 689.49,-754 746.76,-715.7 812.25,-669.34 850.33,-642.11"/>
<polygon fill="black" stroke="black" points="852.85,-644.62 858.94,-635.95 848.77,-638.92 852.85,-644.62"/>
</g>
<!-- u9 -->
<g id="node30" class="node">
<title>u9</title>
<ellipse fill="#7777ff" stroke="black" cx="534.49" cy="-736" rx="146.47" ry="18"/>
<text text-anchor="middle" x="534.49" y="-732.3" font-family="Times,serif" font-size="14.00">Language.Drasil.TeX.Helpers</text>
</g>
<!-- u11&#45;&gt;u9 -->
<g id="edge15" class="edge">
<title>u11&#45;&gt;u9</title>
<path fill="none" stroke="black" d="M534.49,-835.88C534.49,-817.04 534.49,-786.47 534.49,-764.3"/>
<polygon fill="black" stroke="black" points="537.99,-764.19 534.49,-754.19 530.99,-764.19 537.99,-764.19"/>
</g>
<!-- u10 -->
<g id="node29" class="node">
<title>u10</title>
<ellipse fill="#7777ff" stroke="black" cx="287.49" cy="-618" rx="141.88" ry="18"/>
<text text-anchor="middle" x="287.49" y="-614.3" font-family="Times,serif" font-size="14.00">Language.Drasil.TeX.Monad</text>
</g>
<!-- u10&#45;&gt;u22 -->
<g id="edge14" class="edge">
<title>u10&#45;&gt;u22</title>
<path fill="none" stroke="black" d="M291.29,-599.53C295.35,-580.85 301.84,-550.97 306.58,-529.2"/>
<polygon fill="black" stroke="black" points="310.03,-529.77 308.74,-519.25 303.19,-528.28 310.03,-529.77"/>
</g>
<!-- u9&#45;&gt;u0 -->
<g id="edge12" class="edge">
<title>u9&#45;&gt;u0</title>
<path fill="none" stroke="black" d="M539.21,-717.88C544.43,-698.95 552.92,-668.19 559.04,-646"/>
<polygon fill="black" stroke="black" points="562.46,-646.76 561.75,-636.19 555.71,-644.9 562.46,-646.76"/>
</g>
<!-- u9&#45;&gt;u10 -->
<g id="edge13" class="edge">
<title>u9&#45;&gt;u10</title>
<path fill="none" stroke="black" d="M499.36,-718.5C455.41,-697.86 380.1,-662.49 332.11,-639.96"/>
<polygon fill="black" stroke="black" points="333.43,-636.71 322.89,-635.63 330.46,-643.05 333.43,-636.71"/>
</g>
</g>
</svg>
