<?xml version="1.0" encoding="UTF-8" standalone="no"?>
<!DOCTYPE svg PUBLIC "-//W3C//DTD SVG 1.1//EN"
 "http://www.w3.org/Graphics/SVG/1.1/DTD/svg11.dtd">
<!-- Generated by graphviz version 2.43.0 (0)
 -->
<!-- Title: G Pages: 1 -->
<svg width="432pt" height="287pt"
 viewBox="0.00 0.00 432.00 286.98" xmlns="http://www.w3.org/2000/svg" xmlns:xlink="http://www.w3.org/1999/xlink">
<g id="graph0" class="graph" transform="scale(0.06 0.06) rotate(0) translate(4 4602.67)">
<title>G</title>
<polygon fill="white" stroke="transparent" points="-4,4 -4,-4602.67 6930.65,-4602.67 6930.65,4 -4,4"/>
<!-- u7 -->
<g id="node1" class="node">
<title>u7</title>
<ellipse fill="#bbffbb" stroke="black" cx="704.65" cy="-4228" rx="59.59" ry="18"/>
<text text-anchor="middle" x="704.65" y="-4224.3" font-family="Times,serif" font-size="14.00">VectorTest</text>
</g>
<!-- u6 -->
<g id="node2" class="node">
<title>u6</title>
<ellipse fill="#bbffbb" stroke="black" cx="355.65" cy="-3931" rx="42.49" ry="18"/>
<text text-anchor="middle" x="355.65" y="-3927.3" font-family="Times,serif" font-size="14.00">Helper</text>
</g>
<!-- u3 -->
<g id="node3" class="node">
<title>u3</title>
<ellipse fill="#bbffbb" stroke="black" cx="52.65" cy="-4228" rx="52.79" ry="18"/>
<text text-anchor="middle" x="52.65" y="-4224.3" font-family="Times,serif" font-size="14.00">FileTests</text>
</g>
<!-- u2 -->
<g id="node4" class="node">
<title>u2</title>
<ellipse fill="#bbffbb" stroke="black" cx="199.65" cy="-4228" rx="76.09" ry="18"/>
<text text-anchor="middle" x="199.65" y="-4224.3" font-family="Times,serif" font-size="14.00">NameGenTest</text>
</g>
<!-- u0 -->
<g id="node5" class="node">
<title>u0</title>
<ellipse fill="#bbffbb" stroke="black" cx="355.65" cy="-4228" rx="62.29" ry="18"/>
<text text-anchor="middle" x="355.65" y="-4224.3" font-family="Times,serif" font-size="14.00">HelloWorld</text>
</g>
<!-- u0&#45;&gt;u6 -->
<g id="edge1" class="edge">
<title>u0&#45;&gt;u6</title>
<path fill="none" stroke="black" d="M355.65,-4209.86C355.65,-4160.78 355.65,-4019.35 355.65,-3959.39"/>
<polygon fill="black" stroke="black" points="359.15,-3959.18 355.65,-3949.18 352.15,-3959.18 359.15,-3959.18"/>
</g>
<!-- u8 -->
<g id="node6" class="node">
<title>u8</title>
<ellipse fill="#ffffbb" stroke="black" cx="2489.65" cy="-4524" rx="214.46" ry="18"/>
<text text-anchor="middle" x="2489.65" y="-4520.3" font-family="Times,serif" font-size="14.00">Data.Drasil.ExternalLibraries.ODELibraries</text>
</g>
<!-- u60 -->
<g id="node9" class="node">
<title>u60</title>
<ellipse fill="#ffbbbb" stroke="black" cx="2489.65" cy="-4228" rx="113.18" ry="18"/>
<text text-anchor="middle" x="2489.65" y="-4224.3" font-family="Times,serif" font-size="14.00">Language.Drasil.Code</text>
</g>
<!-- u8&#45;&gt;u60 -->
<g id="edge9" class="edge">
<title>u8&#45;&gt;u60</title>
<path fill="none" stroke="black" d="M2489.65,-4505.92C2489.65,-4457.01 2489.65,-4316.05 2489.65,-4256.3"/>
<polygon fill="black" stroke="black" points="2493.15,-4256.12 2489.65,-4246.12 2486.15,-4256.12 2493.15,-4256.12"/>
</g>
<!-- u5 -->
<g id="node7" class="node">
<title>u5</title>
<ellipse fill="#bbbbff" stroke="black" cx="515.65" cy="-3931" rx="84.49" ry="18"/>
<text text-anchor="middle" x="515.65" y="-3927.3" font-family="Times,serif" font-size="14.00">GOOL.Observer</text>
</g>
<!-- u4 -->
<g id="node8" class="node">
<title>u4</title>
<ellipse fill="#bbbbff" stroke="black" cx="531.65" cy="-4228" rx="95.58" ry="18"/>
<text text-anchor="middle" x="531.65" y="-4224.3" font-family="Times,serif" font-size="14.00">GOOL.PatternTest</text>
</g>
<!-- u4&#45;&gt;u5 -->
<g id="edge8" class="edge">
<title>u4&#45;&gt;u5</title>
<path fill="none" stroke="black" d="M530.72,-4209.86C528.05,-4160.78 520.38,-4019.35 517.13,-3959.39"/>
<polygon fill="black" stroke="black" points="520.61,-3958.98 516.58,-3949.18 513.62,-3959.36 520.61,-3958.98"/>
</g>
<!-- u47 -->
<g id="node31" class="node">
<title>u47</title>
<ellipse fill="#77ff77" stroke="black" cx="1800.65" cy="-2448" rx="217.96" ry="18"/>
<text text-anchor="middle" x="1800.65" y="-2444.3" font-family="Times,serif" font-size="14.00">Language.Drasil.Code.Imperative.ReadInput</text>
</g>
<!-- u60&#45;&gt;u47 -->
<g id="edge97" class="edge">
<title>u60&#45;&gt;u47</title>
<path fill="none" stroke="black" d="M2395.71,-4217.95C2017.66,-4178.97 627.65,-4010.14 627.65,-3635 627.65,-3635 627.65,-3635 627.65,-3040 627.65,-2603.42 1283.71,-2489.3 1614.54,-2459.5"/>
<polygon fill="black" stroke="black" points="1615.07,-2462.97 1624.72,-2458.61 1614.45,-2456 1615.07,-2462.97"/>
</g>
<!-- u25 -->
<g id="node40" class="node">
<title>u25</title>
<ellipse fill="#77ff77" stroke="black" cx="5605.65" cy="-3931" rx="217.16" ry="18"/>
<text text-anchor="middle" x="5605.65" y="-3927.3" font-family="Times,serif" font-size="14.00">Language.Drasil.Code.Imperative.Generator</text>
</g>
<!-- u60&#45;&gt;u25 -->
<g id="edge90" class="edge">
<title>u60&#45;&gt;u25</title>
<path fill="none" stroke="black" d="M2584.18,-4218.05C3028.93,-4175.94 4914.2,-3997.46 5458.16,-3945.96"/>
<polygon fill="black" stroke="black" points="5458.8,-3949.42 5468.42,-3944.99 5458.14,-3942.45 5458.8,-3949.42"/>
</g>
<!-- u34 -->
<g id="node50" class="node">
<title>u34</title>
<ellipse fill="#77ffff" stroke="black" cx="1008.65" cy="-3634" rx="352.84" ry="18"/>
<text text-anchor="middle" x="1008.65" y="-3630.3" font-family="Times,serif" font-size="14.00">Language.Drasil.Code.Imperative.GOOL.LanguageRenderer.CppRenderer</text>
</g>
<!-- u60&#45;&gt;u34 -->
<g id="edge96" class="edge">
<title>u60&#45;&gt;u34</title>
<path fill="none" stroke="black" d="M2449.65,-4211.01C2242.73,-4128.3 1294.39,-3749.22 1060.77,-3655.83"/>
<polygon fill="black" stroke="black" points="1061.73,-3652.45 1051.14,-3651.99 1059.13,-3658.95 1061.73,-3652.45"/>
</g>
<!-- u33 -->
<g id="node51" class="node">
<title>u33</title>
<ellipse fill="#77ffff" stroke="black" cx="1748.65" cy="-3634" rx="369.33" ry="18"/>
<text text-anchor="middle" x="1748.65" y="-3630.3" font-family="Times,serif" font-size="14.00">Language.Drasil.Code.Imperative.GOOL.LanguageRenderer.CSharpRenderer</text>
</g>
<!-- u60&#45;&gt;u33 -->
<g id="edge95" class="edge">
<title>u60&#45;&gt;u33</title>
<path fill="none" stroke="black" d="M2468.66,-4210.24C2364.14,-4126.73 1899.84,-3755.79 1778,-3658.45"/>
<polygon fill="black" stroke="black" points="1780.15,-3655.69 1770.15,-3652.18 1775.78,-3661.16 1780.15,-3655.69"/>
</g>
<!-- u32 -->
<g id="node52" class="node">
<title>u32</title>
<ellipse fill="#77ffff" stroke="black" cx="2489.65" cy="-3634" rx="354.44" ry="18"/>
<text text-anchor="middle" x="2489.65" y="-3630.3" font-family="Times,serif" font-size="14.00">Language.Drasil.Code.Imperative.GOOL.LanguageRenderer.JavaRenderer</text>
</g>
<!-- u60&#45;&gt;u32 -->
<g id="edge94" class="edge">
<title>u60&#45;&gt;u32</title>
<path fill="none" stroke="black" d="M2489.65,-4209.92C2489.65,-4126.88 2489.65,-3765.11 2489.65,-3662.33"/>
<polygon fill="black" stroke="black" points="2493.15,-3662.15 2489.65,-3652.15 2486.15,-3662.15 2493.15,-3662.15"/>
</g>
<!-- u31 -->
<g id="node53" class="node">
<title>u31</title>
<ellipse fill="#77ffff" stroke="black" cx="3220.65" cy="-3634" rx="358.54" ry="18"/>
<text text-anchor="middle" x="3220.65" y="-3630.3" font-family="Times,serif" font-size="14.00">Language.Drasil.Code.Imperative.GOOL.LanguageRenderer.SwiftRenderer</text>
</g>
<!-- u60&#45;&gt;u31 -->
<g id="edge93" class="edge">
<title>u60&#45;&gt;u31</title>
<path fill="none" stroke="black" d="M2510.35,-4210.24C2613.36,-4126.81 3070.58,-3756.53 3191.32,-3658.75"/>
<polygon fill="black" stroke="black" points="3193.86,-3661.2 3199.43,-3652.18 3189.45,-3655.76 3193.86,-3661.2"/>
</g>
<!-- u30 -->
<g id="node54" class="node">
<title>u30</title>
<ellipse fill="#77ffff" stroke="black" cx="3952.65" cy="-3634" rx="354.74" ry="18"/>
<text text-anchor="middle" x="3952.65" y="-3630.3" font-family="Times,serif" font-size="14.00">Language.Drasil.Code.Imperative.GOOL.LanguageRenderer.JuliaRenderer</text>
</g>
<!-- u60&#45;&gt;u30 -->
<g id="edge92" class="edge">
<title>u60&#45;&gt;u30</title>
<path fill="none" stroke="black" d="M2529.16,-4211.01C2733.56,-4128.3 3670.38,-3749.22 3901.16,-3655.83"/>
<polygon fill="black" stroke="black" points="3902.71,-3658.98 3910.66,-3651.99 3900.08,-3652.49 3902.71,-3658.98"/>
</g>
<!-- u28 -->
<g id="node56" class="node">
<title>u28</title>
<ellipse fill="#77ffff" stroke="black" cx="4692.65" cy="-3634" rx="367.43" ry="18"/>
<text text-anchor="middle" x="4692.65" y="-3630.3" font-family="Times,serif" font-size="14.00">Language.Drasil.Code.Imperative.GOOL.LanguageRenderer.PythonRenderer</text>
</g>
<!-- u60&#45;&gt;u28 -->
<g id="edge91" class="edge">
<title>u60&#45;&gt;u28</title>
<path fill="none" stroke="black" d="M2544.65,-4212.22C2844.5,-4131.64 4280.77,-3745.68 4620.5,-3654.39"/>
<polygon fill="black" stroke="black" points="4621.48,-3657.75 4630.23,-3651.77 4619.66,-3650.99 4621.48,-3657.75"/>
</g>
<!-- u59 -->
<g id="node10" class="node">
<title>u59</title>
<ellipse fill="#ffbbbb" stroke="black" cx="5105.65" cy="-2151" rx="135.68" ry="18"/>
<text text-anchor="middle" x="5105.65" y="-2147.3" font-family="Times,serif" font-size="14.00">Language.Drasil.CodeSpec</text>
</g>
<!-- u58 -->
<g id="node11" class="node">
<title>u58</title>
<ellipse fill="#ffbbbb" stroke="black" cx="4512.65" cy="-1854" rx="126.18" ry="18"/>
<text text-anchor="middle" x="4512.65" y="-1850.3" font-family="Times,serif" font-size="14.00">Language.Drasil.Choices</text>
</g>
<!-- u59&#45;&gt;u58 -->
<g id="edge89" class="edge">
<title>u59&#45;&gt;u58</title>
<path fill="none" stroke="black" d="M5072.49,-2133.51C4971.31,-2083.17 4666.56,-1931.57 4554.55,-1875.84"/>
<polygon fill="black" stroke="black" points="4556.08,-1872.7 4545.56,-1871.38 4552.96,-1878.96 4556.08,-1872.7"/>
</g>
<!-- u11 -->
<g id="node17" class="node">
<title>u11</title>
<ellipse fill="#bbffff" stroke="black" cx="5086.65" cy="-1854" rx="192.27" ry="18"/>
<text text-anchor="middle" x="5086.65" y="-1850.3" font-family="Times,serif" font-size="14.00">Language.Drasil.Chunk.ConstraintMap</text>
</g>
<!-- u59&#45;&gt;u11 -->
<g id="edge88" class="edge">
<title>u59&#45;&gt;u11</title>
<path fill="none" stroke="black" d="M5104.54,-2132.86C5101.38,-2083.78 5092.27,-1942.35 5088.41,-1882.39"/>
<polygon fill="black" stroke="black" points="5091.89,-1881.94 5087.75,-1872.18 5084.9,-1882.39 5091.89,-1881.94"/>
</g>
<!-- u10 -->
<g id="node18" class="node">
<title>u10</title>
<ellipse fill="#bbffff" stroke="black" cx="5525.65" cy="-1854" rx="191.17" ry="18"/>
<text text-anchor="middle" x="5525.65" y="-1850.3" font-family="Times,serif" font-size="14.00">Language.Drasil.Chunk.CodeDefinition</text>
</g>
<!-- u59&#45;&gt;u10 -->
<g id="edge87" class="edge">
<title>u59&#45;&gt;u10</title>
<path fill="none" stroke="black" d="M5129.73,-2133.08C5201.13,-2082.94 5411.65,-1935.07 5493.02,-1877.91"/>
<polygon fill="black" stroke="black" points="5495.22,-1880.65 5501.39,-1872.04 5491.2,-1874.92 5495.22,-1880.65"/>
</g>
<!-- u53 -->
<g id="node23" class="node">
<title>u53</title>
<ellipse fill="#ffbbff" stroke="black" cx="4031.65" cy="-1558" rx="139.98" ry="18"/>
<text text-anchor="middle" x="4031.65" y="-1554.3" font-family="Times,serif" font-size="14.00">Language.Drasil.Code.Code</text>
</g>
<!-- u58&#45;&gt;u53 -->
<g id="edge86" class="edge">
<title>u58&#45;&gt;u53</title>
<path fill="none" stroke="black" d="M4485.41,-1836.35C4403.67,-1786.39 4160.43,-1637.71 4067.91,-1581.17"/>
<polygon fill="black" stroke="black" points="4069.54,-1578.06 4059.18,-1575.83 4065.89,-1584.03 4069.54,-1578.06"/>
</g>
<!-- u16 -->
<g id="node60" class="node">
<title>u16</title>
<ellipse fill="#bbff77" stroke="black" cx="4504.65" cy="-1558" rx="172.77" ry="18"/>
<text text-anchor="middle" x="4504.65" y="-1554.3" font-family="Times,serif" font-size="14.00">Language.Drasil.Data.ODELibPckg</text>
</g>
<!-- u58&#45;&gt;u16 -->
<g id="edge85" class="edge">
<title>u58&#45;&gt;u16</title>
<path fill="none" stroke="black" d="M4512.18,-1835.92C4510.85,-1787.01 4507.01,-1646.05 4505.39,-1586.3"/>
<polygon fill="black" stroke="black" points="4508.88,-1586.03 4505.11,-1576.12 4501.88,-1586.22 4508.88,-1586.03"/>
</g>
<!-- u9 -->
<g id="node12" class="node">
<title>u9</title>
<ellipse fill="#ffbbbb" stroke="black" cx="4458.65" cy="-964" rx="110.48" ry="18"/>
<text text-anchor="middle" x="4458.65" y="-960.3" font-family="Times,serif" font-size="14.00">Language.Drasil.Mod</text>
</g>
<!-- u12 -->
<g id="node16" class="node">
<title>u12</title>
<ellipse fill="#bbffff" stroke="black" cx="4458.65" cy="-668" rx="170.87" ry="18"/>
<text text-anchor="middle" x="4458.65" y="-664.3" font-family="Times,serif" font-size="14.00">Language.Drasil.Chunk.Parameter</text>
</g>
<!-- u9&#45;&gt;u12 -->
<g id="edge10" class="edge">
<title>u9&#45;&gt;u12</title>
<path fill="none" stroke="black" d="M4458.65,-945.92C4458.65,-897.01 4458.65,-756.05 4458.65,-696.3"/>
<polygon fill="black" stroke="black" points="4462.15,-696.12 4458.65,-686.12 4455.15,-696.12 4462.15,-696.12"/>
</g>
<!-- u57 -->
<g id="node19" class="node">
<title>u57</title>
<ellipse fill="#ffbbff" stroke="black" cx="3883.65" cy="-668" rx="160.57" ry="18"/>
<text text-anchor="middle" x="3883.65" y="-664.3" font-family="Times,serif" font-size="14.00">Language.Drasil.Code.DataDesc</text>
</g>
<!-- u9&#45;&gt;u57 -->
<g id="edge11" class="edge">
<title>u9&#45;&gt;u57</title>
<path fill="none" stroke="black" d="M4426.5,-946.56C4328.71,-896.57 4034.87,-746.32 3925.37,-690.33"/>
<polygon fill="black" stroke="black" points="3926.77,-687.12 3916.28,-685.68 3923.59,-693.35 3926.77,-687.12"/>
</g>
<!-- u15 -->
<g id="node13" class="node">
<title>u15</title>
<ellipse fill="#bbffff" stroke="black" cx="4458.65" cy="-74" rx="168.17" ry="18"/>
<text text-anchor="middle" x="4458.65" y="-70.3" font-family="Times,serif" font-size="14.00">Language.Drasil.Chunk.CodeBase</text>
</g>
<!-- u14 -->
<g id="node14" class="node">
<title>u14</title>
<ellipse fill="#bbffff" stroke="black" cx="4458.65" cy="-371" rx="145.67" ry="18"/>
<text text-anchor="middle" x="4458.65" y="-367.3" font-family="Times,serif" font-size="14.00">Language.Drasil.Chunk.Code</text>
</g>
<!-- u14&#45;&gt;u15 -->
<g id="edge14" class="edge">
<title>u14&#45;&gt;u15</title>
<path fill="none" stroke="black" d="M4458.65,-352.86C4458.65,-303.78 4458.65,-162.35 4458.65,-102.39"/>
<polygon fill="black" stroke="black" points="4462.15,-102.18 4458.65,-92.18 4455.15,-102.18 4462.15,-102.18"/>
</g>
<!-- u13 -->
<g id="node15" class="node">
<title>u13</title>
<ellipse fill="#bbffff" stroke="black" cx="4831.65" cy="-964" rx="202.26" ry="18"/>
<text text-anchor="middle" x="4831.65" y="-960.3" font-family="Times,serif" font-size="14.00">Language.Drasil.Chunk.NamedArgument</text>
</g>
<!-- u12&#45;&gt;u14 -->
<g id="edge13" class="edge">
<title>u12&#45;&gt;u14</title>
<path fill="none" stroke="black" d="M4458.65,-649.86C4458.65,-600.78 4458.65,-459.35 4458.65,-399.39"/>
<polygon fill="black" stroke="black" points="4462.15,-399.18 4458.65,-389.18 4455.15,-399.18 4462.15,-399.18"/>
</g>
<!-- u17 -->
<g id="node59" class="node">
<title>u17</title>
<ellipse fill="#bbff77" stroke="black" cx="5254.65" cy="-1261" rx="154.07" ry="18"/>
<text text-anchor="middle" x="5254.65" y="-1257.3" font-family="Times,serif" font-size="14.00">Language.Drasil.Data.ODEInfo</text>
</g>
<!-- u10&#45;&gt;u17 -->
<g id="edge12" class="edge">
<title>u10&#45;&gt;u17</title>
<path fill="none" stroke="black" d="M5517.83,-1835.95C5479.7,-1752.8 5313.2,-1389.7 5266.73,-1288.35"/>
<polygon fill="black" stroke="black" points="5269.84,-1286.75 5262.5,-1279.12 5263.48,-1289.67 5269.84,-1286.75"/>
</g>
<!-- u57&#45;&gt;u14 -->
<g id="edge84" class="edge">
<title>u57&#45;&gt;u14</title>
<path fill="none" stroke="black" d="M3916.21,-650.29C4014.43,-599.9 4307.74,-449.42 4417.01,-393.36"/>
<polygon fill="black" stroke="black" points="4418.79,-396.38 4426.08,-388.7 4415.59,-390.16 4418.79,-396.38"/>
</g>
<!-- u56 -->
<g id="node20" class="node">
<title>u56</title>
<ellipse fill="#ffbbff" stroke="black" cx="4874.65" cy="-1261" rx="207.96" ry="18"/>
<text text-anchor="middle" x="4874.65" y="-1257.3" font-family="Times,serif" font-size="14.00">Language.Drasil.Code.ExternalLibraryCall</text>
</g>
<!-- u56&#45;&gt;u9 -->
<g id="edge82" class="edge">
<title>u56&#45;&gt;u9</title>
<path fill="none" stroke="black" d="M4850.79,-1243.08C4779.91,-1192.82 4570.57,-1044.37 4490.39,-987.51"/>
<polygon fill="black" stroke="black" points="4492.33,-984.6 4482.15,-981.67 4488.28,-990.31 4492.33,-984.6"/>
</g>
<!-- u56&#45;&gt;u13 -->
<g id="edge83" class="edge">
<title>u56&#45;&gt;u13</title>
<path fill="none" stroke="black" d="M4872.15,-1242.86C4864.99,-1193.78 4844.38,-1052.35 4835.64,-992.39"/>
<polygon fill="black" stroke="black" points="4839.06,-991.57 4834.15,-982.18 4832.13,-992.58 4839.06,-991.57"/>
</g>
<!-- u55 -->
<g id="node21" class="node">
<title>u55</title>
<ellipse fill="#ffbbff" stroke="black" cx="6618.65" cy="-2744" rx="204.16" ry="18"/>
<text text-anchor="middle" x="6618.65" y="-2740.3" font-family="Times,serif" font-size="14.00">Language.Drasil.Code.CodeQuantityDicts</text>
</g>
<!-- u54 -->
<g id="node22" class="node">
<title>u54</title>
<ellipse fill="#ffbbff" stroke="black" cx="5268.65" cy="-3634" rx="191.17" ry="18"/>
<text text-anchor="middle" x="5268.65" y="-3630.3" font-family="Times,serif" font-size="14.00">Language.Drasil.Code.CodeGeneration</text>
</g>
<!-- u54&#45;&gt;u53 -->
<g id="edge81" class="edge">
<title>u54&#45;&gt;u53</title>
<path fill="none" stroke="black" d="M5157.74,-3619.28C4898.76,-3581.17 4250.77,-3449.75 3914.65,-3059 3641.72,-2741.72 3647.21,-2540.25 3743.65,-2133 3797.95,-1903.7 3958.89,-1661.77 4013.38,-1584.36"/>
<polygon fill="black" stroke="black" points="4016.27,-1586.34 4019.19,-1576.16 4010.55,-1582.29 4016.27,-1586.34"/>
</g>
<!-- u27 -->
<g id="node49" class="node">
<title>u27</title>
<ellipse fill="#ff7777" stroke="black" cx="3854.65" cy="-3338" rx="222.06" ry="18"/>
<text text-anchor="middle" x="3854.65" y="-3334.3" font-family="Times,serif" font-size="14.00">Language.Drasil.Code.Imperative.GOOL.Data</text>
</g>
<!-- u54&#45;&gt;u27 -->
<g id="edge80" class="edge">
<title>u54&#45;&gt;u27</title>
<path fill="none" stroke="black" d="M5193.62,-3617.4C4952.48,-3567.26 4198.02,-3410.4 3941.23,-3357"/>
<polygon fill="black" stroke="black" points="3941.71,-3353.53 3931.21,-3354.92 3940.29,-3360.38 3941.71,-3353.53"/>
</g>
<!-- u52 -->
<g id="node24" class="node">
<title>u52</title>
<ellipse fill="#ffbbff" stroke="black" cx="4458.65" cy="-1261" rx="190.37" ry="18"/>
<text text-anchor="middle" x="4458.65" y="-1257.3" font-family="Times,serif" font-size="14.00">Language.Drasil.Code.ExternalLibrary</text>
</g>
<!-- u52&#45;&gt;u9 -->
<g id="edge78" class="edge">
<title>u52&#45;&gt;u9</title>
<path fill="none" stroke="black" d="M4458.65,-1242.86C4458.65,-1193.78 4458.65,-1052.35 4458.65,-992.39"/>
<polygon fill="black" stroke="black" points="4462.15,-992.18 4458.65,-982.18 4455.15,-992.18 4462.15,-992.18"/>
</g>
<!-- u52&#45;&gt;u13 -->
<g id="edge79" class="edge">
<title>u52&#45;&gt;u13</title>
<path fill="none" stroke="black" d="M4480.04,-1243.08C4543.24,-1193.1 4729.21,-1046.01 4801.98,-988.46"/>
<polygon fill="black" stroke="black" points="4804.2,-991.17 4809.87,-982.22 4799.86,-985.68 4804.2,-991.17"/>
</g>
<!-- u19 -->
<g id="node25" class="node">
<title>u19</title>
<ellipse fill="#ffbbff" stroke="black" cx="4110.65" cy="-1261" rx="139.18" ry="18"/>
<text text-anchor="middle" x="4110.65" y="-1257.3" font-family="Times,serif" font-size="14.00">Language.Drasil.Code.Lang</text>
</g>
<!-- u18 -->
<g id="node26" class="node">
<title>u18</title>
<ellipse fill="#ffbbff" stroke="black" cx="4874.65" cy="-1558" rx="178.97" ry="18"/>
<text text-anchor="middle" x="4874.65" y="-1554.3" font-family="Times,serif" font-size="14.00">Language.Drasil.Code.ExtLibImport</text>
</g>
<!-- u18&#45;&gt;u56 -->
<g id="edge21" class="edge">
<title>u18&#45;&gt;u56</title>
<path fill="none" stroke="black" d="M4874.65,-1539.86C4874.65,-1490.78 4874.65,-1349.35 4874.65,-1289.39"/>
<polygon fill="black" stroke="black" points="4878.15,-1289.18 4874.65,-1279.18 4871.15,-1289.18 4878.15,-1289.18"/>
</g>
<!-- u18&#45;&gt;u52 -->
<g id="edge20" class="edge">
<title>u18&#45;&gt;u52</title>
<path fill="none" stroke="black" d="M4850.79,-1540.08C4780.07,-1489.94 4571.55,-1342.07 4490.96,-1284.91"/>
<polygon fill="black" stroke="black" points="4492.85,-1281.96 4482.67,-1279.04 4488.8,-1287.68 4492.85,-1281.96"/>
</g>
<!-- u51 -->
<g id="node27" class="node">
<title>u51</title>
<ellipse fill="#77ff77" stroke="black" cx="5300.65" cy="-2744" rx="206.06" ry="18"/>
<text text-anchor="middle" x="5300.65" y="-2740.3" font-family="Times,serif" font-size="14.00">Language.Drasil.Code.Imperative.Helpers</text>
</g>
<!-- u40 -->
<g id="node36" class="node">
<title>u40</title>
<ellipse fill="#77ff77" stroke="black" cx="5522.65" cy="-2448" rx="222.06" ry="18"/>
<text text-anchor="middle" x="5522.65" y="-2444.3" font-family="Times,serif" font-size="14.00">Language.Drasil.Code.Imperative.DrasilState</text>
</g>
<!-- u51&#45;&gt;u40 -->
<g id="edge77" class="edge">
<title>u51&#45;&gt;u40</title>
<path fill="none" stroke="black" d="M5313.54,-2725.92C5350.86,-2676.5 5459.13,-2533.12 5503.42,-2474.46"/>
<polygon fill="black" stroke="black" points="5506.48,-2476.21 5509.71,-2466.12 5500.9,-2472 5506.48,-2476.21"/>
</g>
<!-- u50 -->
<g id="node28" class="node">
<title>u50</title>
<ellipse fill="#77ff77" stroke="black" cx="6193.65" cy="-3338" rx="233.16" ry="18"/>
<text text-anchor="middle" x="6193.65" y="-3334.3" font-family="Times,serif" font-size="14.00">Language.Drasil.Code.Imperative.FunctionCalls</text>
</g>
<!-- u46 -->
<g id="node32" class="node">
<title>u46</title>
<ellipse fill="#77ff77" stroke="black" cx="6618.65" cy="-3041" rx="223.66" ry="18"/>
<text text-anchor="middle" x="6618.65" y="-3037.3" font-family="Times,serif" font-size="14.00">Language.Drasil.Code.Imperative.Parameters</text>
</g>
<!-- u50&#45;&gt;u46 -->
<g id="edge76" class="edge">
<title>u50&#45;&gt;u46</title>
<path fill="none" stroke="black" d="M6218.02,-3320.08C6290.26,-3269.94 6503.29,-3122.07 6585.64,-3064.91"/>
<polygon fill="black" stroke="black" points="6587.88,-3067.61 6594.1,-3059.04 6583.89,-3061.86 6587.88,-3067.61"/>
</g>
<!-- u41 -->
<g id="node35" class="node">
<title>u41</title>
<ellipse fill="#77ff77" stroke="black" cx="5731.65" cy="-3041" rx="201.46" ry="18"/>
<text text-anchor="middle" x="5731.65" y="-3037.3" font-family="Times,serif" font-size="14.00">Language.Drasil.Code.Imperative.Import</text>
</g>
<!-- u50&#45;&gt;u41 -->
<g id="edge75" class="edge">
<title>u50&#45;&gt;u41</title>
<path fill="none" stroke="black" d="M6167.15,-3320.08C6088.36,-3269.78 5855.55,-3121.12 5766.67,-3064.37"/>
<polygon fill="black" stroke="black" points="5768.35,-3061.28 5758.04,-3058.85 5764.58,-3067.18 5768.35,-3061.28"/>
</g>
<!-- u49 -->
<g id="node29" class="node">
<title>u49</title>
<ellipse fill="#77ff77" stroke="black" cx="4835.65" cy="-2744" rx="240.46" ry="18"/>
<text text-anchor="middle" x="4835.65" y="-2740.3" font-family="Times,serif" font-size="14.00">Language.Drasil.Code.Imperative.GenerateGOOL</text>
</g>
<!-- u49&#45;&gt;u40 -->
<g id="edge74" class="edge">
<title>u49&#45;&gt;u40</title>
<path fill="none" stroke="black" d="M4875.05,-2726.14C4993.26,-2675.55 5344.71,-2525.15 5474.11,-2469.77"/>
<polygon fill="black" stroke="black" points="5475.58,-2472.95 5483.4,-2465.79 5472.83,-2466.51 5475.58,-2472.95"/>
</g>
<!-- u35 -->
<g id="node48" class="node">
<title>u35</title>
<ellipse fill="#ff7777" stroke="black" cx="4522.65" cy="-2448" rx="267.25" ry="18"/>
<text text-anchor="middle" x="4522.65" y="-2444.3" font-family="Times,serif" font-size="14.00">Language.Drasil.Code.Imperative.GOOL.ClassInterface</text>
</g>
<!-- u49&#45;&gt;u35 -->
<g id="edge73" class="edge">
<title>u49&#45;&gt;u35</title>
<path fill="none" stroke="black" d="M4817.46,-2725.92C4764.41,-2676.09 4609.69,-2530.76 4548.23,-2473.04"/>
<polygon fill="black" stroke="black" points="4550.56,-2470.42 4540.88,-2466.12 4545.77,-2475.52 4550.56,-2470.42"/>
</g>
<!-- u48 -->
<g id="node30" class="node">
<title>u48</title>
<ellipse fill="#77ff77" stroke="black" cx="5714.65" cy="-3338" rx="228.26" ry="18"/>
<text text-anchor="middle" x="5714.65" y="-3334.3" font-family="Times,serif" font-size="14.00">Language.Drasil.Code.Imperative.Descriptions</text>
</g>
<!-- u48&#45;&gt;u40 -->
<g id="edge72" class="edge">
<title>u48&#45;&gt;u40</title>
<path fill="none" stroke="black" d="M5616.64,-3321.66C5387.52,-3279.9 4818.75,-3140.84 4586.65,-2762 4496.18,-2614.34 5132.08,-2504.73 5403.72,-2465.13"/>
<polygon fill="black" stroke="black" points="5404.23,-2468.6 5413.62,-2463.7 5403.22,-2461.67 5404.23,-2468.6"/>
</g>
<!-- u47&#45;&gt;u57 -->
<g id="edge71" class="edge">
<title>u47&#45;&gt;u57</title>
<path fill="none" stroke="black" d="M1854.01,-2430.51C2016.09,-2376.77 2491.65,-2190.49 2491.65,-1855 2491.65,-1855 2491.65,-1855 2491.65,-1260 2491.65,-974.93 3493.29,-748.23 3797.24,-686"/>
<polygon fill="black" stroke="black" points="3798.22,-689.37 3807.32,-683.94 3796.82,-682.51 3798.22,-689.37"/>
</g>
<!-- u46&#45;&gt;u55 -->
<g id="edge70" class="edge">
<title>u46&#45;&gt;u55</title>
<path fill="none" stroke="black" d="M6618.65,-3022.86C6618.65,-2973.78 6618.65,-2832.35 6618.65,-2772.39"/>
<polygon fill="black" stroke="black" points="6622.15,-2772.18 6618.65,-2762.18 6615.15,-2772.18 6622.15,-2772.18"/>
</g>
<!-- u46&#45;&gt;u40 -->
<g id="edge69" class="edge">
<title>u46&#45;&gt;u40</title>
<path fill="none" stroke="black" d="M6646.04,-3023.12C6721.04,-2974.9 6918.44,-2833.08 6831.65,-2726 6691.86,-2553.53 6031.05,-2484.19 5705.2,-2460.12"/>
<polygon fill="black" stroke="black" points="5705.41,-2456.63 5695.18,-2459.39 5704.9,-2463.61 5705.41,-2456.63"/>
</g>
<!-- u43 -->
<g id="node33" class="node">
<title>u43</title>
<ellipse fill="#77ff77" stroke="black" cx="5044.65" cy="-2448" rx="237.46" ry="18"/>
<text text-anchor="middle" x="5044.65" y="-2444.3" font-family="Times,serif" font-size="14.00">Language.Drasil.Code.Imperative.ConceptMatch</text>
</g>
<!-- u43&#45;&gt;u58 -->
<g id="edge67" class="edge">
<title>u43&#45;&gt;u58</title>
<path fill="none" stroke="black" d="M5029.44,-2429.96C4987.29,-2382.73 4865.37,-2246.16 4763.65,-2133 4679.23,-2039.09 4578.46,-1927.69 4534.71,-1879.37"/>
<polygon fill="black" stroke="black" points="4537.26,-1876.96 4527.95,-1871.9 4532.07,-1881.66 4537.26,-1876.96"/>
</g>
<!-- u42 -->
<g id="node34" class="node">
<title>u42</title>
<ellipse fill="#77ff77" stroke="black" cx="3370.65" cy="-1558" rx="219.86" ry="18"/>
<text text-anchor="middle" x="3370.65" y="-1554.3" font-family="Times,serif" font-size="14.00">Language.Drasil.Code.Imperative.WriteInput</text>
</g>
<!-- u42&#45;&gt;u57 -->
<g id="edge66" class="edge">
<title>u42&#45;&gt;u57</title>
<path fill="none" stroke="black" d="M3380.66,-1539.66C3444.31,-1429.48 3792.18,-827.33 3868.74,-694.81"/>
<polygon fill="black" stroke="black" points="3871.8,-696.5 3873.77,-686.09 3865.74,-693 3871.8,-696.5"/>
</g>
<!-- u41&#45;&gt;u55 -->
<g id="edge65" class="edge">
<title>u41&#45;&gt;u55</title>
<path fill="none" stroke="black" d="M5781.23,-3023.51C5933.56,-2972.85 6394.3,-2819.61 6559.17,-2764.78"/>
<polygon fill="black" stroke="black" points="6560.75,-2767.94 6569.13,-2761.47 6558.54,-2761.3 6560.75,-2767.94"/>
</g>
<!-- u41&#45;&gt;u51 -->
<g id="edge64" class="edge">
<title>u41&#45;&gt;u51</title>
<path fill="none" stroke="black" d="M5706.92,-3023.08C5633.59,-2972.89 5417.19,-2824.77 5333.87,-2767.74"/>
<polygon fill="black" stroke="black" points="5335.76,-2764.8 5325.53,-2762.04 5331.81,-2770.57 5335.76,-2764.8"/>
</g>
<!-- u41&#45;&gt;u49 -->
<g id="edge63" class="edge">
<title>u41&#45;&gt;u49</title>
<path fill="none" stroke="black" d="M5681.55,-3023.51C5527.71,-2972.86 5062.44,-2819.67 4895.81,-2764.81"/>
<polygon fill="black" stroke="black" points="4896.81,-2761.45 4886.21,-2761.65 4894.62,-2768.1 4896.81,-2761.45"/>
</g>
<!-- u41&#45;&gt;u43 -->
<g id="edge62" class="edge">
<title>u41&#45;&gt;u43</title>
<path fill="none" stroke="black" d="M5596.28,-3027.67C5320.93,-2999.48 4711.07,-2920.24 4586.65,-2762 4469.6,-2613.13 4802.57,-2508.29 4963.29,-2467.67"/>
<polygon fill="black" stroke="black" points="4964.3,-2471.03 4973.16,-2465.21 4962.61,-2464.24 4964.3,-2471.03"/>
</g>
<!-- u24 -->
<g id="node41" class="node">
<title>u24</title>
<ellipse fill="#77ff77" stroke="black" cx="5731.65" cy="-2744" rx="207.16" ry="18"/>
<text text-anchor="middle" x="5731.65" y="-2740.3" font-family="Times,serif" font-size="14.00">Language.Drasil.Code.Imperative.Logging</text>
</g>
<!-- u41&#45;&gt;u24 -->
<g id="edge61" class="edge">
<title>u41&#45;&gt;u24</title>
<path fill="none" stroke="black" d="M5731.65,-3022.86C5731.65,-2973.78 5731.65,-2832.35 5731.65,-2772.39"/>
<polygon fill="black" stroke="black" points="5735.15,-2772.18 5731.65,-2762.18 5728.15,-2772.18 5735.15,-2772.18"/>
</g>
<!-- u21 -->
<g id="node43" class="node">
<title>u21</title>
<ellipse fill="#77ff77" stroke="black" cx="6176.65" cy="-2744" rx="219.86" ry="18"/>
<text text-anchor="middle" x="6176.65" y="-2740.3" font-family="Times,serif" font-size="14.00">Language.Drasil.Code.Imperative.Comments</text>
</g>
<!-- u41&#45;&gt;u21 -->
<g id="edge60" class="edge">
<title>u41&#45;&gt;u21</title>
<path fill="none" stroke="black" d="M5757.17,-3023.08C5832.96,-2972.83 6056.77,-2824.47 6142.6,-2767.57"/>
<polygon fill="black" stroke="black" points="6144.55,-2770.48 6150.95,-2762.04 6140.68,-2764.64 6144.55,-2770.48"/>
</g>
<!-- u40&#45;&gt;u59 -->
<g id="edge59" class="edge">
<title>u40&#45;&gt;u59</title>
<path fill="none" stroke="black" d="M5498.73,-2430.08C5427.76,-2379.88 5218.33,-2231.72 5137.75,-2174.71"/>
<polygon fill="black" stroke="black" points="5139.65,-2171.77 5129.47,-2168.85 5135.61,-2177.48 5139.65,-2171.77"/>
</g>
<!-- u40&#45;&gt;u18 -->
<g id="edge58" class="edge">
<title>u40&#45;&gt;u18</title>
<path fill="none" stroke="black" d="M5446.63,-2430.98C5324.97,-2401.28 5087.35,-2325.88 4960.65,-2169 4815.69,-1989.52 4853.96,-1679.41 4869.59,-1586.24"/>
<polygon fill="black" stroke="black" points="4873.07,-1586.66 4871.33,-1576.21 4866.18,-1585.47 4873.07,-1586.66"/>
</g>
<!-- u39 -->
<g id="node37" class="node">
<title>u39</title>
<ellipse fill="#77ff77" stroke="black" cx="5724.65" cy="-3634" rx="209.06" ry="18"/>
<text text-anchor="middle" x="5724.65" y="-3630.3" font-family="Times,serif" font-size="14.00">Language.Drasil.Code.Imperative.Modules</text>
</g>
<!-- u39&#45;&gt;u50 -->
<g id="edge57" class="edge">
<title>u39&#45;&gt;u50</title>
<path fill="none" stroke="black" d="M5751.55,-3616.14C5831.51,-3566.01 6067.78,-3417.9 6158.04,-3361.32"/>
<polygon fill="black" stroke="black" points="6159.95,-3364.25 6166.56,-3355.98 6156.23,-3358.32 6159.95,-3364.25"/>
</g>
<!-- u39&#45;&gt;u48 -->
<g id="edge56" class="edge">
<title>u39&#45;&gt;u48</title>
<path fill="none" stroke="black" d="M5724.06,-3615.92C5722.4,-3567.01 5717.61,-3426.05 5715.57,-3366.3"/>
<polygon fill="black" stroke="black" points="5719.07,-3366 5715.23,-3356.12 5712.07,-3366.24 5719.07,-3366"/>
</g>
<!-- u37 -->
<g id="node38" class="node">
<title>u37</title>
<ellipse fill="#77ff77" stroke="black" cx="5506.65" cy="-2151" rx="209.86" ry="18"/>
<text text-anchor="middle" x="5506.65" y="-2147.3" font-family="Times,serif" font-size="14.00">Language.Drasil.Code.Imperative.GenODE</text>
</g>
<!-- u37&#45;&gt;u58 -->
<g id="edge54" class="edge">
<title>u37&#45;&gt;u58</title>
<path fill="none" stroke="black" d="M5451.43,-2133.61C5279.49,-2082.59 4754.42,-1926.75 4574.16,-1873.26"/>
<polygon fill="black" stroke="black" points="4575.15,-1869.9 4564.56,-1870.41 4573.16,-1876.61 4575.15,-1869.9"/>
</g>
<!-- u37&#45;&gt;u10 -->
<g id="edge52" class="edge">
<title>u37&#45;&gt;u10</title>
<path fill="none" stroke="black" d="M5507.75,-2132.86C5510.91,-2083.78 5520.02,-1942.35 5523.88,-1882.39"/>
<polygon fill="black" stroke="black" points="5527.39,-1882.39 5524.54,-1872.18 5520.4,-1881.94 5527.39,-1882.39"/>
</g>
<!-- u37&#45;&gt;u18 -->
<g id="edge53" class="edge">
<title>u37&#45;&gt;u18</title>
<path fill="none" stroke="black" d="M5497.62,-2132.7C5470.8,-2082.44 5387.23,-1933.79 5287.65,-1836 5169.4,-1719.89 4996.29,-1622.17 4917.07,-1580.54"/>
<polygon fill="black" stroke="black" points="4918.36,-1577.27 4907.88,-1575.74 4915.12,-1583.47 4918.36,-1577.27"/>
</g>
<!-- u26 -->
<g id="node39" class="node">
<title>u26</title>
<ellipse fill="#77ff77" stroke="black" cx="6671.65" cy="-3338" rx="226.66" ry="18"/>
<text text-anchor="middle" x="6671.65" y="-3334.3" font-family="Times,serif" font-size="14.00">Language.Drasil.Code.Imperative.SpaceMatch</text>
</g>
<!-- u26&#45;&gt;u40 -->
<g id="edge32" class="edge">
<title>u26&#45;&gt;u40</title>
<path fill="none" stroke="black" d="M6686.58,-3320.02C6752.84,-3242.61 7010.26,-2918.56 6853.65,-2726 6711.45,-2551.17 6040.8,-2483.03 5709.2,-2459.7"/>
<polygon fill="black" stroke="black" points="5709.22,-2456.19 5699,-2458.99 5708.74,-2463.18 5709.22,-2456.19"/>
</g>
<!-- u25&#45;&gt;u54 -->
<g id="edge31" class="edge">
<title>u25&#45;&gt;u54</title>
<path fill="none" stroke="black" d="M5586.07,-3912.86C5528.95,-3862.86 5362.36,-3717.03 5296.2,-3659.12"/>
<polygon fill="black" stroke="black" points="5298.1,-3656.14 5288.27,-3652.18 5293.49,-3661.4 5298.1,-3656.14"/>
</g>
<!-- u25&#45;&gt;u39 -->
<g id="edge30" class="edge">
<title>u25&#45;&gt;u39</title>
<path fill="none" stroke="black" d="M5612.56,-3912.86C5632.44,-3863.58 5689.88,-3721.17 5713.9,-3661.65"/>
<polygon fill="black" stroke="black" points="5717.22,-3662.77 5717.71,-3652.18 5710.73,-3660.15 5717.22,-3662.77"/>
</g>
<!-- u25&#45;&gt;u37 -->
<g id="edge29" class="edge">
<title>u25&#45;&gt;u37</title>
<path fill="none" stroke="black" d="M5679.5,-3913.99C5957.69,-3851.58 6926.65,-3614.43 6926.65,-3339 6926.65,-3339 6926.65,-3339 6926.65,-2743 6926.65,-2454.49 5914.88,-2231.95 5599.42,-2169.58"/>
<polygon fill="black" stroke="black" points="5599.88,-2166.1 5589.39,-2167.6 5598.52,-2172.97 5599.88,-2166.1"/>
</g>
<!-- u25&#45;&gt;u26 -->
<g id="edge27" class="edge">
<title>u25&#45;&gt;u26</title>
<path fill="none" stroke="black" d="M5636.11,-3913.11C5787.9,-3828.96 6461.86,-3455.31 6632.35,-3360.78"/>
<polygon fill="black" stroke="black" points="6634.2,-3363.76 6641.25,-3355.85 6630.8,-3357.64 6634.2,-3363.76"/>
</g>
<!-- u36 -->
<g id="node47" class="node">
<title>u36</title>
<ellipse fill="#ff7777" stroke="black" cx="4212.65" cy="-3041" rx="289.45" ry="18"/>
<text text-anchor="middle" x="4212.65" y="-3037.3" font-family="Times,serif" font-size="14.00">Language.Drasil.Code.Imperative.GOOL.LanguageRenderer</text>
</g>
<!-- u25&#45;&gt;u36 -->
<g id="edge28" class="edge">
<title>u25&#45;&gt;u36</title>
<path fill="none" stroke="black" d="M5602.66,-3912.97C5592.81,-3861.51 5556.82,-3705.71 5468.65,-3616 5444.93,-3591.87 4486.27,-3163.91 4260.1,-3063.13"/>
<polygon fill="black" stroke="black" points="4261.37,-3059.86 4250.81,-3058.99 4258.52,-3066.26 4261.37,-3059.86"/>
</g>
<!-- u24&#45;&gt;u40 -->
<g id="edge26" class="edge">
<title>u24&#45;&gt;u40</title>
<path fill="none" stroke="black" d="M5719.51,-2725.92C5684.37,-2676.5 5582.44,-2533.12 5540.75,-2474.46"/>
<polygon fill="black" stroke="black" points="5543.47,-2472.25 5534.82,-2466.12 5537.76,-2476.3 5543.47,-2472.25"/>
</g>
<!-- u22 -->
<g id="node42" class="node">
<title>u22</title>
<ellipse fill="#77ff77" stroke="black" cx="4004.65" cy="-2448" rx="233.16" ry="18"/>
<text text-anchor="middle" x="4004.65" y="-2444.3" font-family="Times,serif" font-size="14.00">Language.Drasil.Code.Imperative.WriteReadMe</text>
</g>
<!-- u38 -->
<g id="node58" class="node">
<title>u38</title>
<ellipse fill="#33ff33" stroke="black" cx="4512.65" cy="-2151" rx="242.36" ry="18"/>
<text text-anchor="middle" x="4512.65" y="-2147.3" font-family="Times,serif" font-size="14.00">Language.Drasil.Code.Imperative.ReadMe.Import</text>
</g>
<!-- u22&#45;&gt;u38 -->
<g id="edge24" class="edge">
<title>u22&#45;&gt;u38</title>
<path fill="none" stroke="black" d="M4033.78,-2430.08C4120.48,-2379.73 4376.83,-2230.87 4474.38,-2174.22"/>
<polygon fill="black" stroke="black" points="4476.42,-2177.08 4483.31,-2169.04 4472.9,-2171.03 4476.42,-2177.08"/>
</g>
<!-- u21&#45;&gt;u40 -->
<g id="edge23" class="edge">
<title>u21&#45;&gt;u40</title>
<path fill="none" stroke="black" d="M6139.13,-2726.14C6026.71,-2675.6 5692.71,-2525.45 5569.22,-2469.94"/>
<polygon fill="black" stroke="black" points="5570.56,-2466.7 5560,-2465.79 5567.69,-2473.09 5570.56,-2466.7"/>
</g>
<!-- u45 -->
<g id="node44" class="node">
<title>u45</title>
<ellipse fill="#ffff77" stroke="black" cx="3477.65" cy="-3041" rx="228.56" ry="18"/>
<text text-anchor="middle" x="3477.65" y="-3037.3" font-family="Times,serif" font-size="14.00">Language.Drasil.Code.Imperative.Build.Import</text>
</g>
<!-- u44 -->
<g id="node45" class="node">
<title>u44</title>
<ellipse fill="#ffff77" stroke="black" cx="3477.65" cy="-2744" rx="215.56" ry="18"/>
<text text-anchor="middle" x="3477.65" y="-2740.3" font-family="Times,serif" font-size="14.00">Language.Drasil.Code.Imperative.Build.AST</text>
</g>
<!-- u45&#45;&gt;u44 -->
<g id="edge68" class="edge">
<title>u45&#45;&gt;u44</title>
<path fill="none" stroke="black" d="M3477.65,-3022.86C3477.65,-2973.78 3477.65,-2832.35 3477.65,-2772.39"/>
<polygon fill="black" stroke="black" points="3481.15,-2772.18 3477.65,-2762.18 3474.15,-2772.18 3481.15,-2772.18"/>
</g>
<!-- u23 -->
<g id="node46" class="node">
<title>u23</title>
<ellipse fill="#7777ff" stroke="black" cx="3997.65" cy="-2151" rx="245.06" ry="18"/>
<text text-anchor="middle" x="3997.65" y="-2147.3" font-family="Times,serif" font-size="14.00">Language.Drasil.Code.Imperative.Doxygen.Import</text>
</g>
<!-- u23&#45;&gt;u58 -->
<g id="edge25" class="edge">
<title>u23&#45;&gt;u58</title>
<path fill="none" stroke="black" d="M4027.18,-2133.08C4115.37,-2082.56 4376.71,-1932.86 4474.84,-1876.65"/>
<polygon fill="black" stroke="black" points="4476.61,-1879.68 4483.55,-1871.67 4473.13,-1873.6 4476.61,-1879.68"/>
</g>
<!-- u35&#45;&gt;u38 -->
<g id="edge51" class="edge">
<title>u35&#45;&gt;u38</title>
<path fill="none" stroke="black" d="M4522.06,-2429.86C4520.4,-2380.78 4515.61,-2239.35 4513.57,-2179.39"/>
<polygon fill="black" stroke="black" points="4517.06,-2179.06 4513.23,-2169.18 4510.07,-2179.3 4517.06,-2179.06"/>
</g>
<!-- u34&#45;&gt;u27 -->
<g id="edge49" class="edge">
<title>u34&#45;&gt;u27</title>
<path fill="none" stroke="black" d="M1157.15,-3617.66C1650.42,-3566.7 3230.26,-3403.5 3713.12,-3353.62"/>
<polygon fill="black" stroke="black" points="3713.69,-3357.08 3723.28,-3352.57 3712.97,-3350.12 3713.69,-3357.08"/>
</g>
<!-- u29 -->
<g id="node55" class="node">
<title>u29</title>
<ellipse fill="#77ffff" stroke="black" cx="3220.65" cy="-3338" rx="393.73" ry="18"/>
<text text-anchor="middle" x="3220.65" y="-3334.3" font-family="Times,serif" font-size="14.00">Language.Drasil.Code.Imperative.GOOL.LanguageRenderer.LanguagePolymorphic</text>
</g>
<!-- u34&#45;&gt;u29 -->
<g id="edge50" class="edge">
<title>u34&#45;&gt;u29</title>
<path fill="none" stroke="black" d="M1128.75,-3617.04C1510.2,-3566.34 2692.36,-3409.21 3089.21,-3356.47"/>
<polygon fill="black" stroke="black" points="3089.84,-3359.92 3099.3,-3355.13 3088.92,-3352.98 3089.84,-3359.92"/>
</g>
<!-- u33&#45;&gt;u27 -->
<g id="edge47" class="edge">
<title>u33&#45;&gt;u27</title>
<path fill="none" stroke="black" d="M1864.12,-3616.88C2231.38,-3565.61 3369.91,-3406.67 3738.34,-3355.24"/>
<polygon fill="black" stroke="black" points="3739.06,-3358.67 3748.48,-3353.82 3738.09,-3351.74 3739.06,-3358.67"/>
</g>
<!-- u33&#45;&gt;u29 -->
<g id="edge48" class="edge">
<title>u33&#45;&gt;u29</title>
<path fill="none" stroke="black" d="M1831.47,-3616.46C2086.4,-3565.54 2858.22,-3411.39 3127.08,-3357.69"/>
<polygon fill="black" stroke="black" points="3128.08,-3361.06 3137.2,-3355.67 3126.71,-3354.19 3128.08,-3361.06"/>
</g>
<!-- u32&#45;&gt;u27 -->
<g id="edge45" class="edge">
<title>u32&#45;&gt;u27</title>
<path fill="none" stroke="black" d="M2566.94,-3616.35C2804.61,-3565.16 3523.38,-3410.35 3770.29,-3357.17"/>
<polygon fill="black" stroke="black" points="3771.25,-3360.54 3780.29,-3355.02 3769.77,-3353.7 3771.25,-3360.54"/>
</g>
<!-- u32&#45;&gt;u29 -->
<g id="edge46" class="edge">
<title>u32&#45;&gt;u29</title>
<path fill="none" stroke="black" d="M2531.84,-3616.03C2657.88,-3565.34 3031.38,-3415.12 3168.98,-3359.78"/>
<polygon fill="black" stroke="black" points="3170.51,-3362.94 3178.48,-3355.96 3167.89,-3356.44 3170.51,-3362.94"/>
</g>
<!-- u31&#45;&gt;u27 -->
<g id="edge43" class="edge">
<title>u31&#45;&gt;u27</title>
<path fill="none" stroke="black" d="M3257.47,-3615.92C3366.7,-3565.27 3688.72,-3415.94 3808.81,-3360.26"/>
<polygon fill="black" stroke="black" points="3810.51,-3363.32 3818.11,-3355.94 3807.57,-3356.97 3810.51,-3363.32"/>
</g>
<!-- u31&#45;&gt;u29 -->
<g id="edge44" class="edge">
<title>u31&#45;&gt;u29</title>
<path fill="none" stroke="black" d="M3220.65,-3615.92C3220.65,-3567.01 3220.65,-3426.05 3220.65,-3366.3"/>
<polygon fill="black" stroke="black" points="3224.15,-3366.12 3220.65,-3356.12 3217.15,-3366.12 3224.15,-3366.12"/>
</g>
<!-- u30&#45;&gt;u27 -->
<g id="edge41" class="edge">
<title>u30&#45;&gt;u27</title>
<path fill="none" stroke="black" d="M3946.95,-3615.92C3930.61,-3566.9 3883.47,-3425.47 3863.62,-3365.93"/>
<polygon fill="black" stroke="black" points="3866.84,-3364.5 3860.35,-3356.12 3860.2,-3366.72 3866.84,-3364.5"/>
</g>
<!-- u30&#45;&gt;u29 -->
<g id="edge42" class="edge">
<title>u30&#45;&gt;u29</title>
<path fill="none" stroke="black" d="M3910.39,-3616.03C3784.18,-3565.34 3410.17,-3415.12 3272.38,-3359.78"/>
<polygon fill="black" stroke="black" points="3273.45,-3356.44 3262.87,-3355.96 3270.85,-3362.93 3273.45,-3356.44"/>
</g>
<!-- u29&#45;&gt;u42 -->
<g id="edge39" class="edge">
<title>u29&#45;&gt;u42</title>
<path fill="none" stroke="black" d="M3220.65,-3319.57C3220.65,-3248.3 3220.65,-2972.14 3220.65,-2745 3220.65,-2745 3220.65,-2745 3220.65,-2150 3220.65,-1925.42 3323.66,-1667.19 3358.95,-1585.31"/>
<polygon fill="black" stroke="black" points="3362.22,-1586.57 3363,-1576 3355.8,-1583.78 3362.22,-1586.57"/>
</g>
<!-- u29&#45;&gt;u22 -->
<g id="edge35" class="edge">
<title>u29&#45;&gt;u22</title>
<path fill="none" stroke="black" d="M3291.84,-3320.26C3407.61,-3289.26 3635.94,-3211.7 3757.65,-3059 3852.92,-2939.47 3785.59,-2867.4 3843.65,-2726 3883.94,-2627.87 3953.55,-2522.22 3986.43,-2474.71"/>
<polygon fill="black" stroke="black" points="3989.47,-2476.48 3992.32,-2466.27 3983.73,-2472.47 3989.47,-2476.48"/>
</g>
<!-- u29&#45;&gt;u45 -->
<g id="edge40" class="edge">
<title>u29&#45;&gt;u45</title>
<path fill="none" stroke="black" d="M3235.57,-3319.86C3278.96,-3270.07 3405.14,-3125.22 3456.01,-3066.83"/>
<polygon fill="black" stroke="black" points="3458.75,-3069.02 3462.68,-3059.18 3453.47,-3064.42 3458.75,-3069.02"/>
</g>
<!-- u29&#45;&gt;u23 -->
<g id="edge36" class="edge">
<title>u29&#45;&gt;u23</title>
<path fill="none" stroke="black" d="M3291.16,-3320.21C3402.83,-3289.51 3617.74,-3212.82 3715.65,-3059 3866.17,-2822.51 3656.54,-2689.48 3762.65,-2430 3808.17,-2318.67 3915.89,-2219.23 3968.17,-2175.52"/>
<polygon fill="black" stroke="black" points="3970.58,-2178.07 3976.06,-2169 3966.12,-2172.67 3970.58,-2178.07"/>
</g>
<!-- u29&#45;&gt;u36 -->
<g id="edge38" class="edge">
<title>u29&#45;&gt;u36</title>
<path fill="none" stroke="black" d="M3277.54,-3320.08C3449.55,-3268.93 3963.53,-3116.08 4146.82,-3061.58"/>
<polygon fill="black" stroke="black" points="4148.01,-3064.87 4156.59,-3058.67 4146.01,-3058.16 4148.01,-3064.87"/>
</g>
<!-- u29&#45;&gt;u35 -->
<g id="edge37" class="edge">
<title>u29&#45;&gt;u35</title>
<path fill="none" stroke="black" d="M3262.96,-3320.04C3359.06,-3280.69 3599.64,-3177.43 3782.65,-3059 4086.54,-2862.33 4407.99,-2559.74 4497.99,-2472.99"/>
<polygon fill="black" stroke="black" points="4500.5,-2475.43 4505.26,-2465.97 4495.64,-2470.4 4500.5,-2475.43"/>
</g>
<!-- u28&#45;&gt;u27 -->
<g id="edge33" class="edge">
<title>u28&#45;&gt;u27</title>
<path fill="none" stroke="black" d="M4644.58,-3616.14C4499.78,-3565.34 4068.1,-3413.89 3911.88,-3359.08"/>
<polygon fill="black" stroke="black" points="3912.59,-3355.62 3902,-3355.61 3910.27,-3362.23 3912.59,-3355.62"/>
</g>
<!-- u28&#45;&gt;u29 -->
<g id="edge34" class="edge">
<title>u28&#45;&gt;u29</title>
<path fill="none" stroke="black" d="M4609.82,-3616.46C4354.89,-3565.54 3583.07,-3411.39 3314.21,-3357.69"/>
<polygon fill="black" stroke="black" points="3314.58,-3354.19 3304.09,-3355.67 3313.21,-3361.06 3314.58,-3354.19"/>
</g>
<!-- u20 -->
<g id="node57" class="node">
<title>u20</title>
<ellipse fill="#ff77ff" stroke="black" cx="5200.65" cy="-3338" rx="267.55" ry="18"/>
<text text-anchor="middle" x="5200.65" y="-3334.3" font-family="Times,serif" font-size="14.00">Language.Drasil.Code.Imperative.Parsers.ConfigParser</text>
</g>
<!-- u20&#45;&gt;u36 -->
<g id="edge22" class="edge">
<title>u20&#45;&gt;u36</title>
<path fill="none" stroke="black" d="M5144.7,-3320.29C4974.14,-3269.37 4461.27,-3116.24 4278.35,-3061.62"/>
<polygon fill="black" stroke="black" points="4279.18,-3058.21 4268.59,-3058.7 4277.17,-3064.92 4279.18,-3058.21"/>
</g>
<!-- u38&#45;&gt;u58 -->
<g id="edge55" class="edge">
<title>u38&#45;&gt;u58</title>
<path fill="none" stroke="black" d="M4512.65,-2132.86C4512.65,-2083.78 4512.65,-1942.35 4512.65,-1882.39"/>
<polygon fill="black" stroke="black" points="4516.15,-1882.18 4512.65,-1872.18 4509.15,-1882.18 4516.15,-1882.18"/>
</g>
<!-- u17&#45;&gt;u14 -->
<g id="edge19" class="edge">
<title>u17&#45;&gt;u14</title>
<path fill="none" stroke="black" d="M5244.72,-1242.82C5216.23,-1194.09 5130.57,-1051.68 5042.65,-946 4849.11,-713.38 4573.67,-470.77 4486.33,-395.59"/>
<polygon fill="black" stroke="black" points="4488.57,-392.91 4478.7,-389.05 4484.01,-398.22 4488.57,-392.91"/>
</g>
<!-- u16&#45;&gt;u56 -->
<g id="edge18" class="edge">
<title>u16&#45;&gt;u56</title>
<path fill="none" stroke="black" d="M4525.87,-1540.08C4588.56,-1490.1 4773.04,-1343.01 4845.22,-1285.46"/>
<polygon fill="black" stroke="black" points="4847.41,-1288.19 4853.05,-1279.22 4843.05,-1282.72 4847.41,-1288.19"/>
</g>
<!-- u16&#45;&gt;u52 -->
<g id="edge17" class="edge">
<title>u16&#45;&gt;u52</title>
<path fill="none" stroke="black" d="M4501.97,-1539.86C4494.32,-1490.78 4472.27,-1349.35 4462.92,-1289.39"/>
<polygon fill="black" stroke="black" points="4466.32,-1288.52 4461.32,-1279.18 4459.41,-1289.6 4466.32,-1288.52"/>
</g>
<!-- u16&#45;&gt;u19 -->
<g id="edge16" class="edge">
<title>u16&#45;&gt;u19</title>
<path fill="none" stroke="black" d="M4482.05,-1540.08C4415.13,-1489.98 4217.92,-1342.32 4141.44,-1285.06"/>
<polygon fill="black" stroke="black" points="4143.25,-1282.04 4133.15,-1278.85 4139.06,-1287.65 4143.25,-1282.04"/>
</g>
<!-- u16&#45;&gt;u17 -->
<g id="edge15" class="edge">
<title>u16&#45;&gt;u17</title>
<path fill="none" stroke="black" d="M4546.58,-1540.51C4675.06,-1489.97 5063.07,-1337.35 5203.35,-1282.18"/>
<polygon fill="black" stroke="black" points="5204.99,-1285.29 5213.01,-1278.38 5202.42,-1278.78 5204.99,-1285.29"/>
</g>
<!-- u1 -->
<g id="node61" class="node">
<title>u1</title>
<ellipse fill="#3333ff" stroke="black" cx="443.65" cy="-4524" rx="108.58" ry="18"/>
<text text-anchor="middle" x="443.65" y="-4520.3" font-family="Times,serif" font-size="14.00">drasil&#45;code.test.Main</text>
</g>
<!-- u1&#45;&gt;u7 -->
<g id="edge6" class="edge">
<title>u1&#45;&gt;u7</title>
<path fill="none" stroke="black" d="M458.81,-4505.92C502.97,-4456.18 631.62,-4311.26 683.04,-4253.33"/>
<polygon fill="black" stroke="black" points="685.75,-4255.56 689.77,-4245.76 680.51,-4250.91 685.75,-4255.56"/>
</g>
<!-- u1&#45;&gt;u3 -->
<g id="edge4" class="edge">
<title>u1&#45;&gt;u3</title>
<path fill="none" stroke="black" d="M421.5,-4506.35C354.93,-4456.29 156.55,-4307.13 81.68,-4250.83"/>
<polygon fill="black" stroke="black" points="83.69,-4247.96 73.59,-4244.75 79.48,-4253.56 83.69,-4247.96"/>
</g>
<!-- u1&#45;&gt;u2 -->
<g id="edge3" class="edge">
<title>u1&#45;&gt;u2</title>
<path fill="none" stroke="black" d="M429.47,-4505.92C388.27,-4456.28 268.4,-4311.85 220.14,-4253.69"/>
<polygon fill="black" stroke="black" points="222.63,-4251.22 213.55,-4245.76 217.25,-4255.69 222.63,-4251.22"/>
</g>
<!-- u1&#45;&gt;u0 -->
<g id="edge2" class="edge">
<title>u1&#45;&gt;u0</title>
<path fill="none" stroke="black" d="M438.53,-4505.92C423.86,-4456.9 381.53,-4315.47 363.7,-4255.93"/>
<polygon fill="black" stroke="black" points="366.99,-4254.7 360.77,-4246.12 360.29,-4256.71 366.99,-4254.7"/>
</g>
<!-- u1&#45;&gt;u4 -->
<g id="edge5" class="edge">
<title>u1&#45;&gt;u4</title>
<path fill="none" stroke="black" d="M448.76,-4505.92C463.43,-4456.9 505.76,-4315.47 523.59,-4255.93"/>
<polygon fill="black" stroke="black" points="527.01,-4256.71 526.52,-4246.12 520.3,-4254.7 527.01,-4256.71"/>
</g>
<!-- u1&#45;&gt;u60 -->
<g id="edge7" class="edge">
<title>u1&#45;&gt;u60</title>
<path fill="none" stroke="black" d="M522.91,-4511.61C845.11,-4465.31 2055.73,-4291.35 2398.62,-4242.08"/>
<polygon fill="black" stroke="black" points="2399.36,-4245.51 2408.76,-4240.62 2398.36,-4238.58 2399.36,-4245.51"/>
</g>
</g>
</svg>
