<?xml version="1.0" encoding="UTF-8" standalone="no"?>
<!DOCTYPE svg PUBLIC "-//W3C//DTD SVG 1.1//EN"
 "http://www.w3.org/Graphics/SVG/1.1/DTD/svg11.dtd">
<!-- Generated by graphviz version 2.43.0 (0)
 -->
<!-- Title: G Pages: 1 -->
<svg width="430pt" height="288pt"
 viewBox="0.00 0.00 430.00 288.00" xmlns="http://www.w3.org/2000/svg" xmlns:xlink="http://www.w3.org/1999/xlink">
<g id="graph0" class="graph" transform="scale(0.52 0.52) rotate(0) translate(4 546)">
<title>G</title>
<polygon fill="white" stroke="transparent" points="-4,4 -4,-546 817.18,-546 817.18,4 -4,4"/>
<!-- u4 -->
<g id="node1" class="node">
<title>u4</title>
<ellipse fill="#bbffbb" stroke="black" cx="106.59" cy="-452" rx="106.68" ry="18"/>
<text text-anchor="middle" x="106.59" y="-448.3" font-family="Times,serif" font-size="14.00">Data.Drasil.Domains</text>
</g>
<!-- u2 -->
<g id="node2" class="node">
<title>u2</title>
<ellipse fill="#ffffbb" stroke="black" cx="316.59" cy="-452" rx="85.59" ry="18"/>
<text text-anchor="middle" x="316.59" y="-448.3" font-family="Times,serif" font-size="14.00">Drasil.Metadata</text>
</g>
<!-- u3 -->
<g id="node3" class="node">
<title>u3</title>
<ellipse fill="#bbbbff" stroke="black" cx="316.59" cy="-90" rx="179.27" ry="18"/>
<text text-anchor="middle" x="316.59" y="-86.3" font-family="Times,serif" font-size="14.00">Drasil.Metadata.SupportedSoftware</text>
</g>
<!-- u2&#45;&gt;u3 -->
<g id="edge2" class="edge">
<title>u2&#45;&gt;u3</title>
<path fill="none" stroke="black" d="M316.59,-433.64C316.59,-375.78 316.59,-189.2 316.59,-118.5"/>
<polygon fill="black" stroke="black" points="320.09,-118.19 316.59,-108.19 313.09,-118.19 320.09,-118.19"/>
</g>
<!-- u1 -->
<g id="node4" class="node">
<title>u1</title>
<ellipse fill="#ffbbbb" stroke="black" cx="654.59" cy="-452" rx="158.67" ry="18"/>
<text text-anchor="middle" x="654.59" y="-448.3" font-family="Times,serif" font-size="14.00">Metadata.Drasil.DrasilMetaCall</text>
</g>
<!-- u0 -->
<g id="node5" class="node">
<title>u0</title>
<ellipse fill="#ffbbbb" stroke="black" cx="654.59" cy="-90" rx="140.28" ry="18"/>
<text text-anchor="middle" x="654.59" y="-86.3" font-family="Times,serif" font-size="14.00">Metadata.Drasil.DrasilMeta</text>
</g>
<!-- u1&#45;&gt;u0 -->
<g id="edge1" class="edge">
<title>u1&#45;&gt;u0</title>
<path fill="none" stroke="black" d="M654.59,-433.64C654.59,-375.78 654.59,-189.2 654.59,-118.5"/>
<polygon fill="black" stroke="black" points="658.09,-118.19 654.59,-108.19 651.09,-118.19 658.09,-118.19"/>
</g>
</g>
</svg>
