<?xml version="1.0" encoding="UTF-8" standalone="no"?>
<!DOCTYPE svg PUBLIC "-//W3C//DTD SVG 1.1//EN"
 "http://www.w3.org/Graphics/SVG/1.1/DTD/svg11.dtd">
<!-- Generated by graphviz version 2.43.0 (0)
 -->
<!-- Title: G Pages: 1 -->
<svg width="432pt" height="287pt"
 viewBox="0.00 0.00 432.00 286.97" xmlns="http://www.w3.org/2000/svg" xmlns:xlink="http://www.w3.org/1999/xlink">
<g id="graph0" class="graph" transform="scale(0.06 0.06) rotate(0) translate(4 4584)">
<title>G</title>
<polygon fill="white" stroke="transparent" points="-4,4 -4,-4584 6902.65,-4584 6902.65,4 -4,4"/>
<!-- u60 -->
<g id="node1" class="node">
<title>u60</title>
<ellipse fill="#bbffbb" stroke="black" cx="688.65" cy="-4211" rx="76.09" ry="18"/>
<text text-anchor="middle" x="688.65" y="-4207.3" font-family="Times,serif" font-size="14.00">NameGenTest</text>
</g>
<!-- u59 -->
<g id="node2" class="node">
<title>u59</title>
<ellipse fill="#bbffbb" stroke="black" cx="52.65" cy="-4211" rx="52.79" ry="18"/>
<text text-anchor="middle" x="52.65" y="-4207.3" font-family="Times,serif" font-size="14.00">FileTests</text>
</g>
<!-- u57 -->
<g id="node3" class="node">
<title>u57</title>
<ellipse fill="#bbffbb" stroke="black" cx="182.65" cy="-4211" rx="59.59" ry="18"/>
<text text-anchor="middle" x="182.65" y="-4207.3" font-family="Times,serif" font-size="14.00">VectorTest</text>
</g>
<!-- u56 -->
<g id="node4" class="node">
<title>u56</title>
<ellipse fill="#bbffbb" stroke="black" cx="322.65" cy="-3915" rx="42.49" ry="18"/>
<text text-anchor="middle" x="322.65" y="-3911.3" font-family="Times,serif" font-size="14.00">Helper</text>
</g>
<!-- u53 -->
<g id="node5" class="node">
<title>u53</title>
<ellipse fill="#bbffbb" stroke="black" cx="322.65" cy="-4211" rx="62.29" ry="18"/>
<text text-anchor="middle" x="322.65" y="-4207.3" font-family="Times,serif" font-size="14.00">HelloWorld</text>
</g>
<!-- u53&#45;&gt;u56 -->
<g id="edge90" class="edge">
<title>u53&#45;&gt;u56</title>
<path fill="none" stroke="black" d="M322.65,-4192.92C322.65,-4144.01 322.65,-4003.05 322.65,-3943.3"/>
<polygon fill="black" stroke="black" points="326.15,-3943.12 322.65,-3933.12 319.15,-3943.12 326.15,-3943.12"/>
</g>
<!-- u0 -->
<g id="node6" class="node">
<title>u0</title>
<ellipse fill="#ffffbb" stroke="black" cx="2456.65" cy="-4506" rx="214.46" ry="18"/>
<text text-anchor="middle" x="2456.65" y="-4502.3" font-family="Times,serif" font-size="14.00">Data.Drasil.ExternalLibraries.ODELibraries</text>
</g>
<!-- u49 -->
<g id="node12" class="node">
<title>u49</title>
<ellipse fill="#ffbbbb" stroke="black" cx="2456.65" cy="-4211" rx="113.18" ry="18"/>
<text text-anchor="middle" x="2456.65" y="-4207.3" font-family="Times,serif" font-size="14.00">Language.Drasil.Code</text>
</g>
<!-- u0&#45;&gt;u49 -->
<g id="edge1" class="edge">
<title>u0&#45;&gt;u49</title>
<path fill="none" stroke="black" d="M2456.65,-4487.98C2456.65,-4439.23 2456.65,-4298.76 2456.65,-4239.2"/>
<polygon fill="black" stroke="black" points="2460.15,-4239.07 2456.65,-4229.07 2453.15,-4239.07 2460.15,-4239.07"/>
</g>
<!-- u55 -->
<g id="node7" class="node">
<title>u55</title>
<ellipse fill="#bbbbff" stroke="black" cx="498.65" cy="-4211" rx="95.58" ry="18"/>
<text text-anchor="middle" x="498.65" y="-4207.3" font-family="Times,serif" font-size="14.00">GOOL.PatternTest</text>
</g>
<!-- u54 -->
<g id="node8" class="node">
<title>u54</title>
<ellipse fill="#bbbbff" stroke="black" cx="482.65" cy="-3915" rx="84.49" ry="18"/>
<text text-anchor="middle" x="482.65" y="-3911.3" font-family="Times,serif" font-size="14.00">GOOL.Observer</text>
</g>
<!-- u55&#45;&gt;u54 -->
<g id="edge91" class="edge">
<title>u55&#45;&gt;u54</title>
<path fill="none" stroke="black" d="M497.72,-4192.92C495.05,-4144.01 487.38,-4003.05 484.13,-3943.3"/>
<polygon fill="black" stroke="black" points="487.62,-3942.92 483.58,-3933.12 480.63,-3943.3 487.62,-3942.92"/>
</g>
<!-- u52 -->
<g id="node9" class="node">
<title>u52</title>
<ellipse fill="#ffbbbb" stroke="black" cx="5121.65" cy="-2142" rx="135.68" ry="18"/>
<text text-anchor="middle" x="5121.65" y="-2138.3" font-family="Times,serif" font-size="14.00">Language.Drasil.CodeSpec</text>
</g>
<!-- u51 -->
<g id="node10" class="node">
<title>u51</title>
<ellipse fill="#ffbbbb" stroke="black" cx="4480.65" cy="-1847" rx="126.18" ry="18"/>
<text text-anchor="middle" x="4480.65" y="-1843.3" font-family="Times,serif" font-size="14.00">Language.Drasil.Choices</text>
</g>
<!-- u52&#45;&gt;u51 -->
<g id="edge89" class="edge">
<title>u52&#45;&gt;u51</title>
<path fill="none" stroke="black" d="M5085.81,-2124.62C4976.45,-2074.63 4647.14,-1924.1 4526,-1868.73"/>
<polygon fill="black" stroke="black" points="4527.17,-1865.42 4516.62,-1864.45 4524.26,-1871.79 4527.17,-1865.42"/>
</g>
<!-- u50 -->
<g id="node11" class="node">
<title>u50</title>
<ellipse fill="#ffbbbb" stroke="black" cx="5480.65" cy="-1847" rx="178.17" ry="18"/>
<text text-anchor="middle" x="5480.65" y="-1843.3" font-family="Times,serif" font-size="14.00">Language.Drasil.ICOSolutionSearch</text>
</g>
<!-- u52&#45;&gt;u50 -->
<g id="edge88" class="edge">
<title>u52&#45;&gt;u50</title>
<path fill="none" stroke="black" d="M5142.24,-2124.19C5202.94,-2074.65 5381.33,-1929.06 5451.66,-1871.65"/>
<polygon fill="black" stroke="black" points="5454.16,-1874.14 5459.69,-1865.1 5449.73,-1868.71 5454.16,-1874.14"/>
</g>
<!-- u4 -->
<g id="node17" class="node">
<title>u4</title>
<ellipse fill="#bbffff" stroke="black" cx="5054.65" cy="-1847" rx="192.27" ry="18"/>
<text text-anchor="middle" x="5054.65" y="-1843.3" font-family="Times,serif" font-size="14.00">Language.Drasil.Chunk.ConstraintMap</text>
</g>
<!-- u52&#45;&gt;u4 -->
<g id="edge87" class="edge">
<title>u52&#45;&gt;u4</title>
<path fill="none" stroke="black" d="M5117.75,-2123.98C5106.58,-2075.13 5074.35,-1934.17 5060.78,-1874.83"/>
<polygon fill="black" stroke="black" points="5064.19,-1874.03 5058.55,-1865.07 5057.37,-1875.59 5064.19,-1874.03"/>
</g>
<!-- u44 -->
<g id="node24" class="node">
<title>u44</title>
<ellipse fill="#ffbbff" stroke="black" cx="3907.65" cy="-1551" rx="139.98" ry="18"/>
<text text-anchor="middle" x="3907.65" y="-1547.3" font-family="Times,serif" font-size="14.00">Language.Drasil.Code.Code</text>
</g>
<!-- u51&#45;&gt;u44 -->
<g id="edge86" class="edge">
<title>u51&#45;&gt;u44</title>
<path fill="none" stroke="black" d="M4448.61,-1829.56C4351.17,-1779.57 4058.34,-1629.32 3949.23,-1573.33"/>
<polygon fill="black" stroke="black" points="3950.66,-1570.14 3940.16,-1568.68 3947.46,-1576.36 3950.66,-1570.14"/>
</g>
<!-- u9 -->
<g id="node59" class="node">
<title>u9</title>
<ellipse fill="#33ff33" stroke="black" cx="4472.65" cy="-1551" rx="172.77" ry="18"/>
<text text-anchor="middle" x="4472.65" y="-1547.3" font-family="Times,serif" font-size="14.00">Language.Drasil.Data.ODELibPckg</text>
</g>
<!-- u51&#45;&gt;u9 -->
<g id="edge85" class="edge">
<title>u51&#45;&gt;u9</title>
<path fill="none" stroke="black" d="M4480.18,-1828.92C4478.85,-1780.01 4475.01,-1639.05 4473.39,-1579.3"/>
<polygon fill="black" stroke="black" points="4476.88,-1579.03 4473.11,-1569.12 4469.88,-1579.22 4476.88,-1579.03"/>
</g>
<!-- u5 -->
<g id="node16" class="node">
<title>u5</title>
<ellipse fill="#bbffff" stroke="black" cx="5480.65" cy="-1551" rx="191.17" ry="18"/>
<text text-anchor="middle" x="5480.65" y="-1547.3" font-family="Times,serif" font-size="14.00">Language.Drasil.Chunk.CodeDefinition</text>
</g>
<!-- u50&#45;&gt;u5 -->
<g id="edge84" class="edge">
<title>u50&#45;&gt;u5</title>
<path fill="none" stroke="black" d="M5480.65,-1828.92C5480.65,-1780.01 5480.65,-1639.05 5480.65,-1579.3"/>
<polygon fill="black" stroke="black" points="5484.15,-1579.12 5480.65,-1569.12 5477.15,-1579.12 5484.15,-1579.12"/>
</g>
<!-- u37 -->
<g id="node33" class="node">
<title>u37</title>
<ellipse fill="#77ff77" stroke="black" cx="1768.65" cy="-2438" rx="217.96" ry="18"/>
<text text-anchor="middle" x="1768.65" y="-2434.3" font-family="Times,serif" font-size="14.00">Language.Drasil.Code.Imperative.ReadInput</text>
</g>
<!-- u49&#45;&gt;u37 -->
<g id="edge83" class="edge">
<title>u49&#45;&gt;u37</title>
<path fill="none" stroke="black" d="M2362.07,-4201.02C1983.09,-4162.49 594.65,-3995.76 594.65,-3621 594.65,-3621 594.65,-3621 594.65,-3028 594.65,-2592.13 1249.15,-2478.78 1580.78,-2449.33"/>
<polygon fill="black" stroke="black" points="1581.32,-2452.8 1590.98,-2448.44 1580.71,-2445.82 1581.32,-2452.8"/>
</g>
<!-- u27 -->
<g id="node40" class="node">
<title>u27</title>
<ellipse fill="#77ff77" stroke="black" cx="5572.65" cy="-3915" rx="217.16" ry="18"/>
<text text-anchor="middle" x="5572.65" y="-3911.3" font-family="Times,serif" font-size="14.00">Language.Drasil.Code.Imperative.Generator</text>
</g>
<!-- u49&#45;&gt;u27 -->
<g id="edge82" class="edge">
<title>u49&#45;&gt;u27</title>
<path fill="none" stroke="black" d="M2551.18,-4201.08C2995.8,-4159.13 4880.13,-3981.34 5424.7,-3929.96"/>
<polygon fill="black" stroke="black" points="5425.34,-3933.41 5434.97,-3928.99 5424.68,-3926.44 5425.34,-3933.41"/>
</g>
<!-- u20 -->
<g id="node52" class="node">
<title>u20</title>
<ellipse fill="#77ffff" stroke="black" cx="991.65" cy="-3620" rx="369.33" ry="18"/>
<text text-anchor="middle" x="991.65" y="-3616.3" font-family="Times,serif" font-size="14.00">Language.Drasil.Code.Imperative.GOOL.LanguageRenderer.CSharpRenderer</text>
</g>
<!-- u49&#45;&gt;u20 -->
<g id="edge81" class="edge">
<title>u49&#45;&gt;u20</title>
<path fill="none" stroke="black" d="M2417.08,-4194.09C2212.4,-4111.8 1274.3,-3734.64 1043.2,-3641.73"/>
<polygon fill="black" stroke="black" points="1044.27,-3638.39 1033.69,-3637.9 1041.66,-3644.88 1044.27,-3638.39"/>
</g>
<!-- u19 -->
<g id="node53" class="node">
<title>u19</title>
<ellipse fill="#77ffff" stroke="black" cx="1731.65" cy="-3620" rx="352.84" ry="18"/>
<text text-anchor="middle" x="1731.65" y="-3616.3" font-family="Times,serif" font-size="14.00">Language.Drasil.Code.Imperative.GOOL.LanguageRenderer.CppRenderer</text>
</g>
<!-- u49&#45;&gt;u19 -->
<g id="edge80" class="edge">
<title>u49&#45;&gt;u19</title>
<path fill="none" stroke="black" d="M2435.73,-4193.01C2332.79,-4109.38 1880.18,-3741.67 1760.67,-3644.58"/>
<polygon fill="black" stroke="black" points="1762.61,-3641.65 1752.65,-3638.06 1758.2,-3647.08 1762.61,-3641.65"/>
</g>
<!-- u18 -->
<g id="node54" class="node">
<title>u18</title>
<ellipse fill="#77ffff" stroke="black" cx="2456.65" cy="-3620" rx="354.44" ry="18"/>
<text text-anchor="middle" x="2456.65" y="-3616.3" font-family="Times,serif" font-size="14.00">Language.Drasil.Code.Imperative.GOOL.LanguageRenderer.JavaRenderer</text>
</g>
<!-- u49&#45;&gt;u18 -->
<g id="edge79" class="edge">
<title>u49&#45;&gt;u18</title>
<path fill="none" stroke="black" d="M2456.65,-4192.69C2456.65,-4109.46 2456.65,-3750.19 2456.65,-3648.13"/>
<polygon fill="black" stroke="black" points="2460.15,-3648.03 2456.65,-3638.03 2453.15,-3648.03 2460.15,-3648.03"/>
</g>
<!-- u17 -->
<g id="node55" class="node">
<title>u17</title>
<ellipse fill="#77ffff" stroke="black" cx="3187.65" cy="-3620" rx="358.54" ry="18"/>
<text text-anchor="middle" x="3187.65" y="-3616.3" font-family="Times,serif" font-size="14.00">Language.Drasil.Code.Imperative.GOOL.LanguageRenderer.SwiftRenderer</text>
</g>
<!-- u49&#45;&gt;u17 -->
<g id="edge78" class="edge">
<title>u49&#45;&gt;u17</title>
<path fill="none" stroke="black" d="M2477.73,-4193.01C2581.52,-4109.38 3037.89,-3741.67 3158.38,-3644.58"/>
<polygon fill="black" stroke="black" points="3160.88,-3647.06 3166.47,-3638.06 3156.49,-3641.61 3160.88,-3647.06"/>
</g>
<!-- u16 -->
<g id="node56" class="node">
<title>u16</title>
<ellipse fill="#77ffff" stroke="black" cx="3919.65" cy="-3620" rx="354.74" ry="18"/>
<text text-anchor="middle" x="3919.65" y="-3616.3" font-family="Times,serif" font-size="14.00">Language.Drasil.Code.Imperative.GOOL.LanguageRenderer.JuliaRenderer</text>
</g>
<!-- u49&#45;&gt;u16 -->
<g id="edge77" class="edge">
<title>u49&#45;&gt;u16</title>
<path fill="none" stroke="black" d="M2496.16,-4194.09C2700.56,-4111.8 3637.38,-3734.64 3868.16,-3641.73"/>
<polygon fill="black" stroke="black" points="3869.69,-3644.88 3877.66,-3637.9 3867.08,-3638.39 3869.69,-3644.88"/>
</g>
<!-- u15 -->
<g id="node57" class="node">
<title>u15</title>
<ellipse fill="#77ffff" stroke="black" cx="4659.65" cy="-3620" rx="367.43" ry="18"/>
<text text-anchor="middle" x="4659.65" y="-3616.3" font-family="Times,serif" font-size="14.00">Language.Drasil.Code.Imperative.GOOL.LanguageRenderer.PythonRenderer</text>
</g>
<!-- u49&#45;&gt;u15 -->
<g id="edge76" class="edge">
<title>u49&#45;&gt;u15</title>
<path fill="none" stroke="black" d="M2511.93,-4195.22C2812.31,-4114.91 4247.19,-3731.28 4587.26,-3640.35"/>
<polygon fill="black" stroke="black" points="4588.24,-3643.71 4596.99,-3637.75 4586.43,-3636.95 4588.24,-3643.71"/>
</g>
<!-- u1 -->
<g id="node13" class="node">
<title>u1</title>
<ellipse fill="#ffbbbb" stroke="black" cx="4426.65" cy="-960" rx="110.48" ry="18"/>
<text text-anchor="middle" x="4426.65" y="-956.3" font-family="Times,serif" font-size="14.00">Language.Drasil.Mod</text>
</g>
<!-- u6 -->
<g id="node15" class="node">
<title>u6</title>
<ellipse fill="#bbffff" stroke="black" cx="4426.65" cy="-665" rx="170.87" ry="18"/>
<text text-anchor="middle" x="4426.65" y="-661.3" font-family="Times,serif" font-size="14.00">Language.Drasil.Chunk.Parameter</text>
</g>
<!-- u1&#45;&gt;u6 -->
<g id="edge2" class="edge">
<title>u1&#45;&gt;u6</title>
<path fill="none" stroke="black" d="M4426.65,-941.98C4426.65,-893.23 4426.65,-752.76 4426.65,-693.2"/>
<polygon fill="black" stroke="black" points="4430.15,-693.07 4426.65,-683.07 4423.15,-693.07 4430.15,-693.07"/>
</g>
<!-- u11 -->
<g id="node26" class="node">
<title>u11</title>
<ellipse fill="#ffbbff" stroke="black" cx="3881.65" cy="-665" rx="160.57" ry="18"/>
<text text-anchor="middle" x="3881.65" y="-661.3" font-family="Times,serif" font-size="14.00">Language.Drasil.Code.DataDesc</text>
</g>
<!-- u1&#45;&gt;u11 -->
<g id="edge3" class="edge">
<title>u1&#45;&gt;u11</title>
<path fill="none" stroke="black" d="M4396.18,-942.62C4303.7,-892.9 4026.19,-743.71 3921.87,-687.63"/>
<polygon fill="black" stroke="black" points="3923.38,-684.46 3912.91,-682.81 3920.06,-690.63 3923.38,-684.46"/>
</g>
<!-- u7 -->
<g id="node14" class="node">
<title>u7</title>
<ellipse fill="#bbffff" stroke="black" cx="4426.65" cy="-369" rx="145.67" ry="18"/>
<text text-anchor="middle" x="4426.65" y="-365.3" font-family="Times,serif" font-size="14.00">Language.Drasil.Chunk.Code</text>
</g>
<!-- u2 -->
<g id="node19" class="node">
<title>u2</title>
<ellipse fill="#bbffff" stroke="black" cx="4426.65" cy="-74" rx="168.17" ry="18"/>
<text text-anchor="middle" x="4426.65" y="-70.3" font-family="Times,serif" font-size="14.00">Language.Drasil.Chunk.CodeBase</text>
</g>
<!-- u7&#45;&gt;u2 -->
<g id="edge6" class="edge">
<title>u7&#45;&gt;u2</title>
<path fill="none" stroke="black" d="M4426.65,-350.98C4426.65,-302.23 4426.65,-161.76 4426.65,-102.2"/>
<polygon fill="black" stroke="black" points="4430.15,-102.07 4426.65,-92.07 4423.15,-102.07 4430.15,-102.07"/>
</g>
<!-- u6&#45;&gt;u7 -->
<g id="edge5" class="edge">
<title>u6&#45;&gt;u7</title>
<path fill="none" stroke="black" d="M4426.65,-646.92C4426.65,-598.01 4426.65,-457.05 4426.65,-397.3"/>
<polygon fill="black" stroke="black" points="4430.15,-397.12 4426.65,-387.12 4423.15,-397.12 4430.15,-397.12"/>
</g>
<!-- u8 -->
<g id="node60" class="node">
<title>u8</title>
<ellipse fill="#33ff33" stroke="black" cx="5204.65" cy="-1256" rx="154.07" ry="18"/>
<text text-anchor="middle" x="5204.65" y="-1252.3" font-family="Times,serif" font-size="14.00">Language.Drasil.Data.ODEInfo</text>
</g>
<!-- u5&#45;&gt;u8 -->
<g id="edge4" class="edge">
<title>u5&#45;&gt;u8</title>
<path fill="none" stroke="black" d="M5464.61,-1532.98C5418.02,-1483.52 5282.51,-1339.66 5227.88,-1281.66"/>
<polygon fill="black" stroke="black" points="5230.13,-1278.95 5220.72,-1274.07 5225.03,-1283.75 5230.13,-1278.95"/>
</g>
<!-- u3 -->
<g id="node18" class="node">
<title>u3</title>
<ellipse fill="#bbffff" stroke="black" cx="4799.65" cy="-960" rx="202.26" ry="18"/>
<text text-anchor="middle" x="4799.65" y="-956.3" font-family="Times,serif" font-size="14.00">Language.Drasil.Chunk.NamedArgument</text>
</g>
<!-- u48 -->
<g id="node20" class="node">
<title>u48</title>
<ellipse fill="#ffbbff" stroke="black" cx="5235.65" cy="-3620" rx="191.17" ry="18"/>
<text text-anchor="middle" x="5235.65" y="-3616.3" font-family="Times,serif" font-size="14.00">Language.Drasil.Code.CodeGeneration</text>
</g>
<!-- u48&#45;&gt;u44 -->
<g id="edge75" class="edge">
<title>u48&#45;&gt;u44</title>
<path fill="none" stroke="black" d="M5124.37,-3605.33C4865.32,-3567.45 4218.52,-3436.76 3882.65,-3047 3610.29,-2730.96 3643.09,-2535.53 3711.65,-2124 3748.04,-1905.54 3857.57,-1658.66 3894.97,-1578.58"/>
<polygon fill="black" stroke="black" points="3898.27,-1579.78 3899.36,-1569.24 3891.94,-1576.8 3898.27,-1579.78"/>
</g>
<!-- u22 -->
<g id="node48" class="node">
<title>u22</title>
<ellipse fill="#ff7777" stroke="black" cx="3821.65" cy="-3324" rx="222.06" ry="18"/>
<text text-anchor="middle" x="3821.65" y="-3320.3" font-family="Times,serif" font-size="14.00">Language.Drasil.Code.Imperative.GOOL.Data</text>
</g>
<!-- u48&#45;&gt;u22 -->
<g id="edge74" class="edge">
<title>u48&#45;&gt;u22</title>
<path fill="none" stroke="black" d="M5160.62,-3603.4C4919.48,-3553.26 4165.02,-3396.4 3908.23,-3343"/>
<polygon fill="black" stroke="black" points="3908.71,-3339.53 3898.21,-3340.92 3907.29,-3346.38 3908.71,-3339.53"/>
</g>
<!-- u47 -->
<g id="node21" class="node">
<title>u47</title>
<ellipse fill="#ffbbff" stroke="black" cx="4842.65" cy="-1551" rx="178.97" ry="18"/>
<text text-anchor="middle" x="4842.65" y="-1547.3" font-family="Times,serif" font-size="14.00">Language.Drasil.Code.ExtLibImport</text>
</g>
<!-- u12 -->
<g id="node25" class="node">
<title>u12</title>
<ellipse fill="#ffbbff" stroke="black" cx="4842.65" cy="-1256" rx="190.37" ry="18"/>
<text text-anchor="middle" x="4842.65" y="-1252.3" font-family="Times,serif" font-size="14.00">Language.Drasil.Code.ExternalLibrary</text>
</g>
<!-- u47&#45;&gt;u12 -->
<g id="edge73" class="edge">
<title>u47&#45;&gt;u12</title>
<path fill="none" stroke="black" d="M4842.65,-1532.98C4842.65,-1484.23 4842.65,-1343.76 4842.65,-1284.2"/>
<polygon fill="black" stroke="black" points="4846.15,-1284.07 4842.65,-1274.07 4839.15,-1284.07 4846.15,-1284.07"/>
</g>
<!-- u10 -->
<g id="node27" class="node">
<title>u10</title>
<ellipse fill="#ffbbff" stroke="black" cx="4426.65" cy="-1256" rx="207.96" ry="18"/>
<text text-anchor="middle" x="4426.65" y="-1252.3" font-family="Times,serif" font-size="14.00">Language.Drasil.Code.ExternalLibraryCall</text>
</g>
<!-- u47&#45;&gt;u10 -->
<g id="edge72" class="edge">
<title>u47&#45;&gt;u10</title>
<path fill="none" stroke="black" d="M4818.48,-1532.98C4747.46,-1482.96 4539.32,-1336.36 4458.89,-1279.71"/>
<polygon fill="black" stroke="black" points="4460.81,-1276.78 4450.62,-1273.88 4456.78,-1282.5 4460.81,-1276.78"/>
</g>
<!-- u46 -->
<g id="node22" class="node">
<title>u46</title>
<ellipse fill="#ffbbff" stroke="black" cx="4061.65" cy="-1256" rx="139.18" ry="18"/>
<text text-anchor="middle" x="4061.65" y="-1252.3" font-family="Times,serif" font-size="14.00">Language.Drasil.Code.Lang</text>
</g>
<!-- u45 -->
<g id="node23" class="node">
<title>u45</title>
<ellipse fill="#ffbbff" stroke="black" cx="6585.65" cy="-2733" rx="204.16" ry="18"/>
<text text-anchor="middle" x="6585.65" y="-2729.3" font-family="Times,serif" font-size="14.00">Language.Drasil.Code.CodeQuantityDicts</text>
</g>
<!-- u12&#45;&gt;u1 -->
<g id="edge15" class="edge">
<title>u12&#45;&gt;u1</title>
<path fill="none" stroke="black" d="M4818.79,-1238.14C4747.91,-1188.05 4538.57,-1040.1 4458.39,-983.43"/>
<polygon fill="black" stroke="black" points="4460.34,-980.53 4450.15,-977.61 4456.3,-986.24 4460.34,-980.53"/>
</g>
<!-- u12&#45;&gt;u3 -->
<g id="edge16" class="edge">
<title>u12&#45;&gt;u3</title>
<path fill="none" stroke="black" d="M4840.15,-1237.92C4832.99,-1189.01 4812.38,-1048.05 4803.64,-988.3"/>
<polygon fill="black" stroke="black" points="4807.06,-987.51 4802.15,-978.12 4800.13,-988.53 4807.06,-987.51"/>
</g>
<!-- u11&#45;&gt;u7 -->
<g id="edge14" class="edge">
<title>u11&#45;&gt;u7</title>
<path fill="none" stroke="black" d="M3912.9,-647.14C4006.33,-596.74 4283.35,-447.3 4386.95,-391.41"/>
<polygon fill="black" stroke="black" points="4388.71,-394.44 4395.85,-386.61 4385.39,-388.28 4388.71,-394.44"/>
</g>
<!-- u10&#45;&gt;u1 -->
<g id="edge12" class="edge">
<title>u10&#45;&gt;u1</title>
<path fill="none" stroke="black" d="M4426.65,-1237.92C4426.65,-1189.01 4426.65,-1048.05 4426.65,-988.3"/>
<polygon fill="black" stroke="black" points="4430.15,-988.12 4426.65,-978.12 4423.15,-988.12 4430.15,-988.12"/>
</g>
<!-- u10&#45;&gt;u3 -->
<g id="edge13" class="edge">
<title>u10&#45;&gt;u3</title>
<path fill="none" stroke="black" d="M4448.31,-1237.92C4511.79,-1187.89 4697.42,-1041.57 4770.04,-984.33"/>
<polygon fill="black" stroke="black" points="4772.23,-987.06 4777.92,-978.12 4767.9,-981.57 4772.23,-987.06"/>
</g>
<!-- u43 -->
<g id="node28" class="node">
<title>u43</title>
<ellipse fill="#77ff77" stroke="black" cx="5281.65" cy="-2733" rx="219.86" ry="18"/>
<text text-anchor="middle" x="5281.65" y="-2729.3" font-family="Times,serif" font-size="14.00">Language.Drasil.Code.Imperative.Comments</text>
</g>
<!-- u30 -->
<g id="node38" class="node">
<title>u30</title>
<ellipse fill="#77ff77" stroke="black" cx="5490.65" cy="-2438" rx="222.06" ry="18"/>
<text text-anchor="middle" x="5490.65" y="-2434.3" font-family="Times,serif" font-size="14.00">Language.Drasil.Code.Imperative.DrasilState</text>
</g>
<!-- u43&#45;&gt;u30 -->
<g id="edge71" class="edge">
<title>u43&#45;&gt;u30</title>
<path fill="none" stroke="black" d="M5293.79,-2714.98C5328.92,-2665.72 5430.85,-2522.83 5472.54,-2464.38"/>
<polygon fill="black" stroke="black" points="5475.51,-2466.24 5478.47,-2456.07 5469.82,-2462.17 5475.51,-2466.24"/>
</g>
<!-- u41 -->
<g id="node29" class="node">
<title>u41</title>
<ellipse fill="#77ff77" stroke="black" cx="5691.65" cy="-3620" rx="209.06" ry="18"/>
<text text-anchor="middle" x="5691.65" y="-3616.3" font-family="Times,serif" font-size="14.00">Language.Drasil.Code.Imperative.Modules</text>
</g>
<!-- u34 -->
<g id="node36" class="node">
<title>u34</title>
<ellipse fill="#77ff77" stroke="black" cx="5686.65" cy="-3324" rx="228.26" ry="18"/>
<text text-anchor="middle" x="5686.65" y="-3320.3" font-family="Times,serif" font-size="14.00">Language.Drasil.Code.Imperative.Descriptions</text>
</g>
<!-- u41&#45;&gt;u34 -->
<g id="edge69" class="edge">
<title>u41&#45;&gt;u34</title>
<path fill="none" stroke="black" d="M5691.35,-3601.92C5690.52,-3553.01 5688.13,-3412.05 5687.11,-3352.3"/>
<polygon fill="black" stroke="black" points="5690.61,-3352.06 5686.94,-3342.12 5683.61,-3352.18 5690.61,-3352.06"/>
</g>
<!-- u31 -->
<g id="node37" class="node">
<title>u31</title>
<ellipse fill="#77ff77" stroke="black" cx="6165.65" cy="-3324" rx="233.16" ry="18"/>
<text text-anchor="middle" x="6165.65" y="-3320.3" font-family="Times,serif" font-size="14.00">Language.Drasil.Code.Imperative.FunctionCalls</text>
</g>
<!-- u41&#45;&gt;u31 -->
<g id="edge68" class="edge">
<title>u41&#45;&gt;u31</title>
<path fill="none" stroke="black" d="M5718.83,-3602.14C5799.65,-3552.01 6038.44,-3403.9 6129.66,-3347.32"/>
<polygon fill="black" stroke="black" points="6131.62,-3350.22 6138.27,-3341.98 6127.93,-3344.27 6131.62,-3350.22"/>
</g>
<!-- u40 -->
<g id="node30" class="node">
<title>u40</title>
<ellipse fill="#77ff77" stroke="black" cx="5012.65" cy="-2438" rx="237.46" ry="18"/>
<text text-anchor="middle" x="5012.65" y="-2434.3" font-family="Times,serif" font-size="14.00">Language.Drasil.Code.Imperative.ConceptMatch</text>
</g>
<!-- u40&#45;&gt;u51 -->
<g id="edge67" class="edge">
<title>u40&#45;&gt;u51</title>
<path fill="none" stroke="black" d="M4997.45,-2420C4955.34,-2372.89 4833.48,-2236.7 4731.65,-2124 4647.53,-2030.91 4546.99,-1920.66 4503.05,-1872.53"/>
<polygon fill="black" stroke="black" points="4505.58,-1870.11 4496.25,-1865.08 4500.41,-1874.83 4505.58,-1870.11"/>
</g>
<!-- u39 -->
<g id="node31" class="node">
<title>u39</title>
<ellipse fill="#77ff77" stroke="black" cx="5726.65" cy="-2733" rx="207.16" ry="18"/>
<text text-anchor="middle" x="5726.65" y="-2729.3" font-family="Times,serif" font-size="14.00">Language.Drasil.Code.Imperative.Logging</text>
</g>
<!-- u39&#45;&gt;u30 -->
<g id="edge66" class="edge">
<title>u39&#45;&gt;u30</title>
<path fill="none" stroke="black" d="M5712.94,-2714.98C5673.18,-2665.62 5557.7,-2522.24 5510.8,-2464.02"/>
<polygon fill="black" stroke="black" points="5513.39,-2461.66 5504.39,-2456.07 5507.94,-2466.05 5513.39,-2461.66"/>
</g>
<!-- u38 -->
<g id="node32" class="node">
<title>u38</title>
<ellipse fill="#77ff77" stroke="black" cx="6643.65" cy="-3324" rx="226.66" ry="18"/>
<text text-anchor="middle" x="6643.65" y="-3320.3" font-family="Times,serif" font-size="14.00">Language.Drasil.Code.Imperative.SpaceMatch</text>
</g>
<!-- u38&#45;&gt;u30 -->
<g id="edge65" class="edge">
<title>u38&#45;&gt;u30</title>
<path fill="none" stroke="black" d="M6658.54,-3305.83C6723.99,-3228.25 6976.08,-2906.01 6820.65,-2715 6678.62,-2540.47 6009.26,-2472.78 5677.7,-2449.62"/>
<polygon fill="black" stroke="black" points="5677.72,-2446.11 5667.5,-2448.91 5677.24,-2453.1 5677.72,-2446.11"/>
</g>
<!-- u37&#45;&gt;u11 -->
<g id="edge64" class="edge">
<title>u37&#45;&gt;u11</title>
<path fill="none" stroke="black" d="M1975.95,-2432.44C2337.58,-2412.29 3045.65,-2313.41 3045.65,-1848 3045.65,-1848 3045.65,-1848 3045.65,-1255 3045.65,-890.39 3583.64,-731.72 3796.47,-683.22"/>
<polygon fill="black" stroke="black" points="3797.36,-686.61 3806.35,-680.99 3795.83,-679.78 3797.36,-686.61"/>
</g>
<!-- u36 -->
<g id="node34" class="node">
<title>u36</title>
<ellipse fill="#77ff77" stroke="black" cx="3489.65" cy="-960" rx="219.86" ry="18"/>
<text text-anchor="middle" x="3489.65" y="-956.3" font-family="Times,serif" font-size="14.00">Language.Drasil.Code.Imperative.WriteInput</text>
</g>
<!-- u36&#45;&gt;u11 -->
<g id="edge63" class="edge">
<title>u36&#45;&gt;u11</title>
<path fill="none" stroke="black" d="M3512.42,-941.98C3579.13,-892.12 3774.22,-746.3 3850.53,-689.26"/>
<polygon fill="black" stroke="black" points="3852.9,-691.86 3858.81,-683.07 3848.71,-686.25 3852.9,-691.86"/>
</g>
<!-- u35 -->
<g id="node35" class="node">
<title>u35</title>
<ellipse fill="#77ff77" stroke="black" cx="6157.65" cy="-2733" rx="206.06" ry="18"/>
<text text-anchor="middle" x="6157.65" y="-2729.3" font-family="Times,serif" font-size="14.00">Language.Drasil.Code.Imperative.Helpers</text>
</g>
<!-- u35&#45;&gt;u30 -->
<g id="edge62" class="edge">
<title>u35&#45;&gt;u30</title>
<path fill="none" stroke="black" d="M6119.39,-2715.19C6004.73,-2664.83 5664.09,-2515.19 5538.15,-2459.87"/>
<polygon fill="black" stroke="black" points="5539.31,-2456.55 5528.75,-2455.74 5536.5,-2462.96 5539.31,-2456.55"/>
</g>
<!-- u34&#45;&gt;u30 -->
<g id="edge61" class="edge">
<title>u34&#45;&gt;u30</title>
<path fill="none" stroke="black" d="M5587.04,-3307.8C5356.35,-3266.63 4787.4,-3129.39 4554.65,-2751 4464,-2603.64 5099.2,-2494.57 5371.19,-2455.12"/>
<polygon fill="black" stroke="black" points="5371.71,-2458.58 5381.11,-2453.69 5370.71,-2451.65 5371.71,-2458.58"/>
</g>
<!-- u28 -->
<g id="node39" class="node">
<title>u28</title>
<ellipse fill="#77ff77" stroke="black" cx="5726.65" cy="-3029" rx="201.46" ry="18"/>
<text text-anchor="middle" x="5726.65" y="-3025.3" font-family="Times,serif" font-size="14.00">Language.Drasil.Code.Imperative.Import</text>
</g>
<!-- u31&#45;&gt;u28 -->
<g id="edge59" class="edge">
<title>u31&#45;&gt;u28</title>
<path fill="none" stroke="black" d="M6140.15,-3305.98C6065.12,-3255.91 5845.1,-3109.06 5760.41,-3052.54"/>
<polygon fill="black" stroke="black" points="5762.2,-3049.52 5751.94,-3046.88 5758.32,-3055.35 5762.2,-3049.52"/>
</g>
<!-- u23 -->
<g id="node44" class="node">
<title>u23</title>
<ellipse fill="#77ff77" stroke="black" cx="6585.65" cy="-3029" rx="223.66" ry="18"/>
<text text-anchor="middle" x="6585.65" y="-3025.3" font-family="Times,serif" font-size="14.00">Language.Drasil.Code.Imperative.Parameters</text>
</g>
<!-- u31&#45;&gt;u23 -->
<g id="edge58" class="edge">
<title>u31&#45;&gt;u23</title>
<path fill="none" stroke="black" d="M6190.04,-3305.98C6261.66,-3256.02 6471.39,-3109.7 6552.81,-3052.91"/>
<polygon fill="black" stroke="black" points="6554.98,-3055.66 6561.18,-3047.07 6550.98,-3049.92 6554.98,-3055.66"/>
</g>
<!-- u30&#45;&gt;u52 -->
<g id="edge57" class="edge">
<title>u30&#45;&gt;u52</title>
<path fill="none" stroke="black" d="M5469.21,-2419.92C5406.54,-2369.99 5223.51,-2224.16 5151.37,-2166.68"/>
<polygon fill="black" stroke="black" points="5153.14,-2163.62 5143.14,-2160.12 5148.78,-2169.09 5153.14,-2163.62"/>
</g>
<!-- u30&#45;&gt;u47 -->
<g id="edge56" class="edge">
<title>u30&#45;&gt;u47</title>
<path fill="none" stroke="black" d="M5434.01,-2420.51C5329.92,-2387.52 5106.93,-2303.91 4976.65,-2160 4819.99,-1986.96 4832.28,-1673.22 4839.96,-1579.28"/>
<polygon fill="black" stroke="black" points="4843.45,-1579.45 4840.84,-1569.18 4836.48,-1578.84 4843.45,-1579.45"/>
</g>
<!-- u28&#45;&gt;u45 -->
<g id="edge54" class="edge">
<title>u28&#45;&gt;u45</title>
<path fill="none" stroke="black" d="M5774.98,-3011.46C5922.65,-2960.91 6367.56,-2808.64 6527.55,-2753.88"/>
<polygon fill="black" stroke="black" points="6528.89,-2757.12 6537.22,-2750.58 6526.62,-2750.5 6528.89,-2757.12"/>
</g>
<!-- u28&#45;&gt;u43 -->
<g id="edge53" class="edge">
<title>u28&#45;&gt;u43</title>
<path fill="none" stroke="black" d="M5701.12,-3011.14C5625.33,-2961.06 5401.52,-2813.2 5315.69,-2756.49"/>
<polygon fill="black" stroke="black" points="5317.62,-2753.57 5307.34,-2750.98 5313.76,-2759.41 5317.62,-2753.57"/>
</g>
<!-- u28&#45;&gt;u40 -->
<g id="edge52" class="edge">
<title>u28&#45;&gt;u40</title>
<path fill="none" stroke="black" d="M5585.99,-3016.09C5303.22,-2988.94 4681.98,-2911.94 4554.65,-2751 4437.33,-2602.73 4770,-2498.25 4930.94,-2457.69"/>
<polygon fill="black" stroke="black" points="4931.96,-2461.05 4940.82,-2455.23 4930.27,-2454.25 4931.96,-2461.05"/>
</g>
<!-- u28&#45;&gt;u39 -->
<g id="edge51" class="edge">
<title>u28&#45;&gt;u39</title>
<path fill="none" stroke="black" d="M5726.65,-3010.92C5726.65,-2962.01 5726.65,-2821.05 5726.65,-2761.3"/>
<polygon fill="black" stroke="black" points="5730.15,-2761.12 5726.65,-2751.12 5723.15,-2761.12 5730.15,-2761.12"/>
</g>
<!-- u28&#45;&gt;u35 -->
<g id="edge50" class="edge">
<title>u28&#45;&gt;u35</title>
<path fill="none" stroke="black" d="M5751.68,-3010.92C5825.34,-2960.68 6041.35,-2813.33 6124.49,-2756.61"/>
<polygon fill="black" stroke="black" points="6126.52,-2759.47 6132.81,-2750.94 6122.58,-2753.68 6126.52,-2759.47"/>
</g>
<!-- u25 -->
<g id="node42" class="node">
<title>u25</title>
<ellipse fill="#77ff77" stroke="black" cx="4803.65" cy="-2733" rx="240.46" ry="18"/>
<text text-anchor="middle" x="4803.65" y="-2729.3" font-family="Times,serif" font-size="14.00">Language.Drasil.Code.Imperative.GenerateGOOL</text>
</g>
<!-- u28&#45;&gt;u25 -->
<g id="edge49" class="edge">
<title>u28&#45;&gt;u25</title>
<path fill="none" stroke="black" d="M5675.04,-3011.56C5516.49,-2961.06 5036.79,-2808.26 4865.37,-2753.66"/>
<polygon fill="black" stroke="black" points="4866.33,-2750.29 4855.74,-2750.59 4864.2,-2756.96 4866.33,-2750.29"/>
</g>
<!-- u27&#45;&gt;u48 -->
<g id="edge48" class="edge">
<title>u27&#45;&gt;u48</title>
<path fill="none" stroke="black" d="M5553.07,-3896.98C5495.95,-3847.32 5329.36,-3702.48 5263.2,-3644.95"/>
<polygon fill="black" stroke="black" points="5265.12,-3641.99 5255.27,-3638.07 5260.52,-3647.27 5265.12,-3641.99"/>
</g>
<!-- u27&#45;&gt;u41 -->
<g id="edge47" class="edge">
<title>u27&#45;&gt;u41</title>
<path fill="none" stroke="black" d="M5579.56,-3896.98C5599.44,-3848.03 5656.88,-3706.59 5680.9,-3647.47"/>
<polygon fill="black" stroke="black" points="5684.19,-3648.65 5684.71,-3638.07 5677.71,-3646.01 5684.19,-3648.65"/>
</g>
<!-- u27&#45;&gt;u38 -->
<g id="edge46" class="edge">
<title>u27&#45;&gt;u38</title>
<path fill="none" stroke="black" d="M5603.26,-3897.16C5755.67,-3813.35 6432.13,-3441.32 6603.89,-3346.87"/>
<polygon fill="black" stroke="black" points="6605.77,-3349.82 6612.85,-3341.94 6602.4,-3343.69 6605.77,-3349.82"/>
</g>
<!-- u26 -->
<g id="node41" class="node">
<title>u26</title>
<ellipse fill="#77ff77" stroke="black" cx="5619.65" cy="-2142" rx="209.86" ry="18"/>
<text text-anchor="middle" x="5619.65" y="-2138.3" font-family="Times,serif" font-size="14.00">Language.Drasil.Code.Imperative.GenODE</text>
</g>
<!-- u27&#45;&gt;u26 -->
<g id="edge45" class="edge">
<title>u27&#45;&gt;u26</title>
<path fill="none" stroke="black" d="M5647.26,-3898.04C5927.13,-3836.05 6898.65,-3600.99 6898.65,-3325 6898.65,-3325 6898.65,-3325 6898.65,-2732 6898.65,-2267.74 6194.79,-2168.15 5831.37,-2147.67"/>
<polygon fill="black" stroke="black" points="5831.42,-2144.17 5821.25,-2147.12 5831.04,-2151.16 5831.42,-2144.17"/>
</g>
<!-- u13 -->
<g id="node50" class="node">
<title>u13</title>
<ellipse fill="#ff7777" stroke="black" cx="4180.65" cy="-3029" rx="289.45" ry="18"/>
<text text-anchor="middle" x="4180.65" y="-3025.3" font-family="Times,serif" font-size="14.00">Language.Drasil.Code.Imperative.GOOL.LanguageRenderer</text>
</g>
<!-- u27&#45;&gt;u13 -->
<g id="edge44" class="edge">
<title>u27&#45;&gt;u13</title>
<path fill="none" stroke="black" d="M5569.56,-3896.71C5559.53,-3845.2 5523.29,-3690.88 5435.65,-3602 5093.33,-3254.89 4501.7,-3098.1 4273.84,-3048.46"/>
<polygon fill="black" stroke="black" points="4274.44,-3045.01 4263.92,-3046.31 4272.96,-3051.85 4274.44,-3045.01"/>
</g>
<!-- u26&#45;&gt;u51 -->
<g id="edge43" class="edge">
<title>u26&#45;&gt;u51</title>
<path fill="none" stroke="black" d="M5556.38,-2124.72C5358.62,-2073.85 4753.18,-1918.11 4548.83,-1865.54"/>
<polygon fill="black" stroke="black" points="4549.67,-1862.14 4539.12,-1863.04 4547.93,-1868.92 4549.67,-1862.14"/>
</g>
<!-- u26&#45;&gt;u5 -->
<g id="edge41" class="edge">
<title>u26&#45;&gt;u5</title>
<path fill="none" stroke="black" d="M5627.59,-2123.7C5648.46,-2075.85 5701,-1938 5667.65,-1829 5635.31,-1723.31 5547.56,-1621.55 5504.77,-1576.38"/>
<polygon fill="black" stroke="black" points="5507.26,-1573.92 5497.81,-1569.12 5502.2,-1578.76 5507.26,-1573.92"/>
</g>
<!-- u26&#45;&gt;u47 -->
<g id="edge42" class="edge">
<title>u26&#45;&gt;u47</title>
<path fill="none" stroke="black" d="M5598.71,-2123.96C5546.44,-2081.27 5406.33,-1965.94 5293.65,-1865 5276.32,-1849.48 5273.81,-1843.53 5255.65,-1829 5124.55,-1724.16 4954.35,-1618.78 4880.07,-1574.16"/>
<polygon fill="black" stroke="black" points="4881.45,-1570.91 4871.08,-1568.78 4877.86,-1576.92 4881.45,-1570.91"/>
</g>
<!-- u25&#45;&gt;u30 -->
<g id="edge40" class="edge">
<title>u25&#45;&gt;u30</title>
<path fill="none" stroke="black" d="M4843.05,-2715.19C4961.26,-2664.78 5312.71,-2514.89 5442.11,-2459.7"/>
<polygon fill="black" stroke="black" points="5443.58,-2462.88 5451.4,-2455.74 5440.83,-2456.44 5443.58,-2462.88"/>
</g>
<!-- u14 -->
<g id="node49" class="node">
<title>u14</title>
<ellipse fill="#ff7777" stroke="black" cx="4490.65" cy="-2438" rx="267.25" ry="18"/>
<text text-anchor="middle" x="4490.65" y="-2434.3" font-family="Times,serif" font-size="14.00">Language.Drasil.Code.Imperative.GOOL.ClassInterface</text>
</g>
<!-- u25&#45;&gt;u14 -->
<g id="edge39" class="edge">
<title>u25&#45;&gt;u14</title>
<path fill="none" stroke="black" d="M4785.46,-2714.98C4732.41,-2665.32 4577.69,-2520.48 4516.23,-2462.95"/>
<polygon fill="black" stroke="black" points="4518.57,-2460.35 4508.88,-2456.07 4513.79,-2465.46 4518.57,-2460.35"/>
</g>
<!-- u24 -->
<g id="node43" class="node">
<title>u24</title>
<ellipse fill="#77ff77" stroke="black" cx="3972.65" cy="-2438" rx="233.16" ry="18"/>
<text text-anchor="middle" x="3972.65" y="-2434.3" font-family="Times,serif" font-size="14.00">Language.Drasil.Code.Imperative.WriteReadMe</text>
</g>
<!-- u29 -->
<g id="node58" class="node">
<title>u29</title>
<ellipse fill="#ff77ff" stroke="black" cx="4480.65" cy="-2142" rx="242.36" ry="18"/>
<text text-anchor="middle" x="4480.65" y="-2138.3" font-family="Times,serif" font-size="14.00">Language.Drasil.Code.Imperative.ReadMe.Import</text>
</g>
<!-- u24&#45;&gt;u29 -->
<g id="edge38" class="edge">
<title>u24&#45;&gt;u29</title>
<path fill="none" stroke="black" d="M4001.78,-2420.14C4088.48,-2369.96 4344.83,-2221.6 4442.38,-2165.15"/>
<polygon fill="black" stroke="black" points="4444.41,-2168.02 4451.31,-2159.98 4440.9,-2161.96 4444.41,-2168.02"/>
</g>
<!-- u23&#45;&gt;u45 -->
<g id="edge37" class="edge">
<title>u23&#45;&gt;u45</title>
<path fill="none" stroke="black" d="M6585.65,-3010.92C6585.65,-2962.01 6585.65,-2821.05 6585.65,-2761.3"/>
<polygon fill="black" stroke="black" points="6589.15,-2761.12 6585.65,-2751.12 6582.15,-2761.12 6589.15,-2761.12"/>
</g>
<!-- u23&#45;&gt;u30 -->
<g id="edge36" class="edge">
<title>u23&#45;&gt;u30</title>
<path fill="none" stroke="black" d="M6613.3,-3011.01C6688.45,-2962.8 6885.18,-2821.7 6798.65,-2715 6659.02,-2542.84 5999.5,-2473.93 5673.69,-2450.04"/>
<polygon fill="black" stroke="black" points="5673.9,-2446.55 5663.67,-2449.31 5673.39,-2453.53 5673.9,-2446.55"/>
</g>
<!-- u33 -->
<g id="node45" class="node">
<title>u33</title>
<ellipse fill="#ffff77" stroke="black" cx="3444.65" cy="-3029" rx="228.56" ry="18"/>
<text text-anchor="middle" x="3444.65" y="-3025.3" font-family="Times,serif" font-size="14.00">Language.Drasil.Code.Imperative.Build.Import</text>
</g>
<!-- u32 -->
<g id="node46" class="node">
<title>u32</title>
<ellipse fill="#ffff77" stroke="black" cx="3444.65" cy="-2733" rx="215.56" ry="18"/>
<text text-anchor="middle" x="3444.65" y="-2729.3" font-family="Times,serif" font-size="14.00">Language.Drasil.Code.Imperative.Build.AST</text>
</g>
<!-- u33&#45;&gt;u32 -->
<g id="edge60" class="edge">
<title>u33&#45;&gt;u32</title>
<path fill="none" stroke="black" d="M3444.65,-3010.92C3444.65,-2962.01 3444.65,-2821.05 3444.65,-2761.3"/>
<polygon fill="black" stroke="black" points="3448.15,-2761.12 3444.65,-2751.12 3441.15,-2761.12 3448.15,-2761.12"/>
</g>
<!-- u42 -->
<g id="node47" class="node">
<title>u42</title>
<ellipse fill="#7777ff" stroke="black" cx="3965.65" cy="-2142" rx="245.06" ry="18"/>
<text text-anchor="middle" x="3965.65" y="-2138.3" font-family="Times,serif" font-size="14.00">Language.Drasil.Code.Imperative.Doxygen.Import</text>
</g>
<!-- u42&#45;&gt;u51 -->
<g id="edge70" class="edge">
<title>u42&#45;&gt;u51</title>
<path fill="none" stroke="black" d="M3995.56,-2123.98C4084.05,-2073.64 4344.47,-1925.47 4442.63,-1869.63"/>
<polygon fill="black" stroke="black" points="4444.65,-1872.51 4451.61,-1864.52 4441.19,-1866.42 4444.65,-1872.51"/>
</g>
<!-- u14&#45;&gt;u29 -->
<g id="edge17" class="edge">
<title>u14&#45;&gt;u29</title>
<path fill="none" stroke="black" d="M4490.06,-2419.92C4488.4,-2371.01 4483.61,-2230.05 4481.57,-2170.3"/>
<polygon fill="black" stroke="black" points="4485.07,-2170 4481.23,-2160.12 4478.07,-2170.24 4485.07,-2170"/>
</g>
<!-- u21 -->
<g id="node51" class="node">
<title>u21</title>
<ellipse fill="#77ffff" stroke="black" cx="3187.65" cy="-3324" rx="393.73" ry="18"/>
<text text-anchor="middle" x="3187.65" y="-3320.3" font-family="Times,serif" font-size="14.00">Language.Drasil.Code.Imperative.GOOL.LanguageRenderer.LanguagePolymorphic</text>
</g>
<!-- u21&#45;&gt;u36 -->
<g id="edge34" class="edge">
<title>u21&#45;&gt;u36</title>
<path fill="none" stroke="black" d="M3187.65,-3305.65C3187.65,-3234.75 3187.65,-2959.99 3187.65,-2734 3187.65,-2734 3187.65,-2734 3187.65,-1550 3187.65,-1306.63 3394.33,-1062.82 3465.73,-985.86"/>
<polygon fill="black" stroke="black" points="3468.7,-987.81 3472.98,-978.12 3463.59,-983.03 3468.7,-987.81"/>
</g>
<!-- u21&#45;&gt;u24 -->
<g id="edge32" class="edge">
<title>u21&#45;&gt;u24</title>
<path fill="none" stroke="black" d="M3260.36,-3306.19C3376.74,-3275.44 3604.1,-3198.81 3725.65,-3047 3820.91,-2928.01 3753.59,-2855.94 3811.65,-2715 3851.94,-2617.18 3921.55,-2511.94 3954.43,-2464.61"/>
<polygon fill="black" stroke="black" points="3957.45,-2466.4 3960.32,-2456.2 3951.72,-2462.39 3957.45,-2466.4"/>
</g>
<!-- u21&#45;&gt;u33 -->
<g id="edge33" class="edge">
<title>u21&#45;&gt;u33</title>
<path fill="none" stroke="black" d="M3202.57,-3305.98C3245.96,-3256.52 3372.14,-3112.66 3423.01,-3054.66"/>
<polygon fill="black" stroke="black" points="3425.71,-3056.89 3429.68,-3047.07 3420.45,-3052.28 3425.71,-3056.89"/>
</g>
<!-- u21&#45;&gt;u42 -->
<g id="edge35" class="edge">
<title>u21&#45;&gt;u42</title>
<path fill="none" stroke="black" d="M3259.02,-3306.22C3370.88,-3275.77 3584.79,-3199.91 3682.65,-3047 3833.29,-2811.6 3624.4,-2678.5 3730.65,-2420 3776.16,-2309.26 3883.41,-2210.43 3935.79,-2166.75"/>
<polygon fill="black" stroke="black" points="3938.23,-2169.28 3943.71,-2160.22 3933.77,-2163.88 3938.23,-2169.28"/>
</g>
<!-- u21&#45;&gt;u14 -->
<g id="edge31" class="edge">
<title>u21&#45;&gt;u14</title>
<path fill="none" stroke="black" d="M3230.4,-3306.07C3326.92,-3267 3567.56,-3164.81 3750.65,-3047 4054.3,-2851.59 4375.3,-2550.18 4465.69,-2463.23"/>
<polygon fill="black" stroke="black" points="4468.23,-2465.65 4473,-2456.19 4463.38,-2460.61 4468.23,-2465.65"/>
</g>
<!-- u21&#45;&gt;u13 -->
<g id="edge30" class="edge">
<title>u21&#45;&gt;u13</title>
<path fill="none" stroke="black" d="M3244.96,-3306.09C3417.32,-3255.23 3930.34,-3103.86 4114.17,-3049.61"/>
<polygon fill="black" stroke="black" points="4115.38,-3052.91 4123.98,-3046.72 4113.4,-3046.19 4115.38,-3052.91"/>
</g>
<!-- u20&#45;&gt;u22 -->
<g id="edge29" class="edge">
<title>u20&#45;&gt;u22</title>
<path fill="none" stroke="black" d="M1140.81,-3603.5C1632.91,-3552.38 3200.85,-3389.49 3680.73,-3339.64"/>
<polygon fill="black" stroke="black" points="3681.24,-3343.11 3690.82,-3338.59 3680.52,-3336.14 3681.24,-3343.11"/>
</g>
<!-- u20&#45;&gt;u21 -->
<g id="edge28" class="edge">
<title>u20&#45;&gt;u21</title>
<path fill="none" stroke="black" d="M1111.66,-3602.93C1491.12,-3552.13 2663.05,-3395.23 3056.96,-3342.5"/>
<polygon fill="black" stroke="black" points="3057.52,-3345.95 3066.97,-3341.16 3056.59,-3339.01 3057.52,-3345.95"/>
</g>
<!-- u19&#45;&gt;u22 -->
<g id="edge27" class="edge">
<title>u19&#45;&gt;u22</title>
<path fill="none" stroke="black" d="M1845.87,-3602.93C2209.81,-3551.74 3339.69,-3392.8 3705.84,-3341.29"/>
<polygon fill="black" stroke="black" points="3706.51,-3344.73 3715.92,-3339.87 3705.53,-3337.8 3706.51,-3344.73"/>
</g>
<!-- u19&#45;&gt;u21 -->
<g id="edge26" class="edge">
<title>u19&#45;&gt;u21</title>
<path fill="none" stroke="black" d="M1813.57,-3602.46C2065.73,-3551.54 2829.16,-3397.39 3095.1,-3343.69"/>
<polygon fill="black" stroke="black" points="3096,-3347.08 3105.11,-3341.67 3094.61,-3340.21 3096,-3347.08"/>
</g>
<!-- u18&#45;&gt;u22 -->
<g id="edge25" class="edge">
<title>u18&#45;&gt;u22</title>
<path fill="none" stroke="black" d="M2533.94,-3602.35C2771.61,-3551.16 3490.38,-3396.35 3737.29,-3343.17"/>
<polygon fill="black" stroke="black" points="3738.25,-3346.54 3747.29,-3341.02 3736.77,-3339.7 3738.25,-3346.54"/>
</g>
<!-- u18&#45;&gt;u21 -->
<g id="edge24" class="edge">
<title>u18&#45;&gt;u21</title>
<path fill="none" stroke="black" d="M2498.84,-3602.03C2624.88,-3551.34 2998.38,-3401.12 3135.98,-3345.78"/>
<polygon fill="black" stroke="black" points="3137.51,-3348.94 3145.48,-3341.96 3134.89,-3342.44 3137.51,-3348.94"/>
</g>
<!-- u17&#45;&gt;u22 -->
<g id="edge23" class="edge">
<title>u17&#45;&gt;u22</title>
<path fill="none" stroke="black" d="M3224.47,-3601.92C3333.7,-3551.27 3655.72,-3401.94 3775.81,-3346.26"/>
<polygon fill="black" stroke="black" points="3777.51,-3349.32 3785.11,-3341.94 3774.57,-3342.97 3777.51,-3349.32"/>
</g>
<!-- u17&#45;&gt;u21 -->
<g id="edge22" class="edge">
<title>u17&#45;&gt;u21</title>
<path fill="none" stroke="black" d="M3187.65,-3601.92C3187.65,-3553.01 3187.65,-3412.05 3187.65,-3352.3"/>
<polygon fill="black" stroke="black" points="3191.15,-3352.12 3187.65,-3342.12 3184.15,-3352.12 3191.15,-3352.12"/>
</g>
<!-- u16&#45;&gt;u22 -->
<g id="edge21" class="edge">
<title>u16&#45;&gt;u22</title>
<path fill="none" stroke="black" d="M3913.95,-3601.92C3897.61,-3552.9 3850.47,-3411.47 3830.62,-3351.93"/>
<polygon fill="black" stroke="black" points="3833.84,-3350.5 3827.35,-3342.12 3827.2,-3352.72 3833.84,-3350.5"/>
</g>
<!-- u16&#45;&gt;u21 -->
<g id="edge20" class="edge">
<title>u16&#45;&gt;u21</title>
<path fill="none" stroke="black" d="M3877.39,-3602.03C3751.18,-3551.34 3377.17,-3401.12 3239.38,-3345.78"/>
<polygon fill="black" stroke="black" points="3240.45,-3342.44 3229.87,-3341.96 3237.85,-3348.93 3240.45,-3342.44"/>
</g>
<!-- u15&#45;&gt;u22 -->
<g id="edge19" class="edge">
<title>u15&#45;&gt;u22</title>
<path fill="none" stroke="black" d="M4611.58,-3602.14C4466.78,-3551.34 4035.1,-3399.89 3878.88,-3345.08"/>
<polygon fill="black" stroke="black" points="3879.59,-3341.62 3869,-3341.61 3877.27,-3348.23 3879.59,-3341.62"/>
</g>
<!-- u15&#45;&gt;u21 -->
<g id="edge18" class="edge">
<title>u15&#45;&gt;u21</title>
<path fill="none" stroke="black" d="M4576.82,-3602.46C4321.89,-3551.54 3550.07,-3397.39 3281.21,-3343.69"/>
<polygon fill="black" stroke="black" points="3281.58,-3340.19 3271.09,-3341.67 3280.21,-3347.06 3281.58,-3340.19"/>
</g>
<!-- u29&#45;&gt;u51 -->
<g id="edge55" class="edge">
<title>u29&#45;&gt;u51</title>
<path fill="none" stroke="black" d="M4480.65,-2123.98C4480.65,-2075.23 4480.65,-1934.76 4480.65,-1875.2"/>
<polygon fill="black" stroke="black" points="4484.15,-1875.07 4480.65,-1865.07 4477.15,-1875.07 4484.15,-1875.07"/>
</g>
<!-- u9&#45;&gt;u46 -->
<g id="edge11" class="edge">
<title>u9&#45;&gt;u46</title>
<path fill="none" stroke="black" d="M4448.77,-1532.98C4378.6,-1482.96 4172.97,-1336.36 4093.5,-1279.71"/>
<polygon fill="black" stroke="black" points="4095.5,-1276.84 4085.33,-1273.88 4091.44,-1282.54 4095.5,-1276.84"/>
</g>
<!-- u9&#45;&gt;u12 -->
<g id="edge10" class="edge">
<title>u9&#45;&gt;u12</title>
<path fill="none" stroke="black" d="M4494.14,-1532.98C4556.98,-1483.22 4740.5,-1337.89 4812.84,-1280.6"/>
<polygon fill="black" stroke="black" points="4815.43,-1283.02 4821.09,-1274.07 4811.08,-1277.53 4815.43,-1283.02"/>
</g>
<!-- u9&#45;&gt;u10 -->
<g id="edge9" class="edge">
<title>u9&#45;&gt;u10</title>
<path fill="none" stroke="black" d="M4469.97,-1532.98C4462.32,-1484.23 4440.27,-1343.76 4430.92,-1284.2"/>
<polygon fill="black" stroke="black" points="4434.33,-1283.4 4429.32,-1274.07 4427.42,-1284.49 4434.33,-1283.4"/>
</g>
<!-- u9&#45;&gt;u8 -->
<g id="edge8" class="edge">
<title>u9&#45;&gt;u8</title>
<path fill="none" stroke="black" d="M4513.83,-1533.51C4639.37,-1483.26 5016.98,-1332.12 5154.15,-1277.21"/>
<polygon fill="black" stroke="black" points="5155.62,-1280.39 5163.6,-1273.43 5153.02,-1273.9 5155.62,-1280.39"/>
</g>
<!-- u8&#45;&gt;u7 -->
<g id="edge7" class="edge">
<title>u8&#45;&gt;u7</title>
<path fill="none" stroke="black" d="M5195.88,-1237.77C5170.62,-1188.91 5094.18,-1046.29 5010.65,-942 4822.01,-706.49 4543.89,-467.63 4455.03,-393.43"/>
<polygon fill="black" stroke="black" points="4457.19,-390.67 4447.27,-386.96 4452.71,-396.05 4457.19,-390.67"/>
</g>
<!-- u58 -->
<g id="node61" class="node">
<title>u58</title>
<ellipse fill="#bbff77" stroke="black" cx="410.65" cy="-4506" rx="108.58" ry="18"/>
<text text-anchor="middle" x="410.65" y="-4502.3" font-family="Times,serif" font-size="14.00">drasil&#45;code.test.Main</text>
</g>
<!-- u58&#45;&gt;u60 -->
<g id="edge97" class="edge">
<title>u58&#45;&gt;u60</title>
<path fill="none" stroke="black" d="M426.79,-4487.98C473.83,-4438.4 610.86,-4293.98 665.63,-4236.25"/>
<polygon fill="black" stroke="black" points="668.46,-4238.36 672.8,-4228.7 663.38,-4233.55 668.46,-4238.36"/>
</g>
<!-- u58&#45;&gt;u59 -->
<g id="edge96" class="edge">
<title>u58&#45;&gt;u59</title>
<path fill="none" stroke="black" d="M390.11,-4488.19C329.15,-4438.3 149.16,-4290.99 80.07,-4234.45"/>
<polygon fill="black" stroke="black" points="82.17,-4231.64 72.21,-4228.02 77.74,-4237.06 82.17,-4231.64"/>
</g>
<!-- u58&#45;&gt;u57 -->
<g id="edge95" class="edge">
<title>u58&#45;&gt;u57</title>
<path fill="none" stroke="black" d="M397.4,-4487.98C358.9,-4438.51 246.9,-4294.57 201.79,-4236.61"/>
<polygon fill="black" stroke="black" points="204.55,-4234.44 195.64,-4228.7 199.02,-4238.74 204.55,-4234.44"/>
</g>
<!-- u58&#45;&gt;u53 -->
<g id="edge93" class="edge">
<title>u58&#45;&gt;u53</title>
<path fill="none" stroke="black" d="M405.53,-4487.98C390.86,-4439.13 348.53,-4298.17 330.7,-4238.83"/>
<polygon fill="black" stroke="black" points="334,-4237.64 327.77,-4229.07 327.3,-4239.65 334,-4237.64"/>
</g>
<!-- u58&#45;&gt;u55 -->
<g id="edge94" class="edge">
<title>u58&#45;&gt;u55</title>
<path fill="none" stroke="black" d="M415.76,-4487.98C430.43,-4439.13 472.76,-4298.17 490.59,-4238.83"/>
<polygon fill="black" stroke="black" points="494,-4239.65 493.52,-4229.07 487.29,-4237.64 494,-4239.65"/>
</g>
<!-- u58&#45;&gt;u49 -->
<g id="edge92" class="edge">
<title>u58&#45;&gt;u49</title>
<path fill="none" stroke="black" d="M489.91,-4493.65C812.11,-4447.51 2022.73,-4274.14 2365.62,-4225.03"/>
<polygon fill="black" stroke="black" points="2366.35,-4228.47 2375.76,-4223.58 2365.36,-4221.54 2366.35,-4228.47"/>
</g>
</g>
</svg>
