<?xml version="1.0" encoding="UTF-8" standalone="no"?>
<!DOCTYPE svg PUBLIC "-//W3C//DTD SVG 1.1//EN"
 "http://www.w3.org/Graphics/SVG/1.1/DTD/svg11.dtd">
<!-- Generated by graphviz version 2.43.0 (0)
 -->
<!-- Title: G Pages: 1 -->
<svg width="431pt" height="288pt"
 viewBox="0.00 0.00 431.39 288.00" xmlns="http://www.w3.org/2000/svg" xmlns:xlink="http://www.w3.org/1999/xlink">
<g id="graph0" class="graph" transform="scale(5.43 5.43) rotate(0) translate(4 1558.67)">
<title>G</title>
<polygon fill="white" stroke="transparent" points="-4,4 -4,-1558.67 2336.71,-1558.67 2336.71,4 -4,4"/>
<!-- u29 -->
<g id="node1" class="node">
<title>u29</title>
<ellipse fill="#bbffbb" stroke="black" cx="1580.23" cy="-777" rx="119.68" ry="18"/>
<text text-anchor="middle" x="1580.23" y="-773.3" font-family="Times,serif" font-size="14.00">Language.Drasil.Config</text>
</g>
<!-- u8 -->
<g id="node2" class="node">
<title>u8</title>
<ellipse fill="#bbffbb" stroke="black" cx="1525.23" cy="-1524" rx="128.08" ry="18"/>
<text text-anchor="middle" x="1525.23" y="-1520.3" font-family="Times,serif" font-size="14.00">Language.Drasil.Printers</text>
</g>
<!-- u0 -->
<g id="node3" class="node">
<title>u0</title>
<ellipse fill="#bbffbb" stroke="black" cx="1525.23" cy="-1399" rx="123.48" ry="18"/>
<text text-anchor="middle" x="1525.23" y="-1395.3" font-family="Times,serif" font-size="14.00">Language.Drasil.Format</text>
</g>
<!-- u8&#45;&gt;u0 -->
<g id="edge9" class="edge">
<title>u8&#45;&gt;u0</title>
<path fill="none" stroke="black" d="M1525.23,-1505.9C1525.23,-1485.63 1525.23,-1451.6 1525.23,-1427.59"/>
<polygon fill="black" stroke="black" points="1528.73,-1427.35 1525.23,-1417.35 1521.73,-1427.35 1528.73,-1427.35"/>
</g>
<!-- u1 -->
<g id="node4" class="node">
<title>u1</title>
<ellipse fill="#ffffbb" stroke="black" cx="1802.23" cy="-1399" rx="135.68" ry="18"/>
<text text-anchor="middle" x="1802.23" y="-1395.3" font-family="Times,serif" font-size="14.00">Language.Drasil.DOT.Print</text>
</g>
<!-- u8&#45;&gt;u1 -->
<g id="edge10" class="edge">
<title>u8&#45;&gt;u1</title>
<path fill="none" stroke="black" d="M1562.01,-1506.67C1611.99,-1484.47 1701.36,-1444.79 1755.87,-1420.59"/>
<polygon fill="black" stroke="black" points="1757.58,-1423.66 1765.3,-1416.4 1754.74,-1417.26 1757.58,-1423.66"/>
</g>
<!-- u30 -->
<g id="node10" class="node">
<title>u30</title>
<ellipse fill="#ffbbbb" stroke="black" cx="1243.23" cy="-1399" rx="140.28" ry="18"/>
<text text-anchor="middle" x="1243.23" y="-1395.3" font-family="Times,serif" font-size="14.00">Language.Drasil.JSON.Print</text>
</g>
<!-- u8&#45;&gt;u30 -->
<g id="edge13" class="edge">
<title>u8&#45;&gt;u30</title>
<path fill="none" stroke="black" d="M1487.78,-1506.67C1436.8,-1484.43 1345.55,-1444.63 1290.09,-1420.44"/>
<polygon fill="black" stroke="black" points="1291.4,-1417.19 1280.83,-1416.4 1288.6,-1423.61 1291.4,-1417.19"/>
</g>
<!-- u2 -->
<g id="node11" class="node">
<title>u2</title>
<ellipse fill="#bbffff" stroke="black" cx="946.23" cy="-1399" rx="133.48" ry="18"/>
<text text-anchor="middle" x="946.23" y="-1395.3" font-family="Times,serif" font-size="14.00">Language.Drasil.Log.Print</text>
</g>
<!-- u8&#45;&gt;u2 -->
<g id="edge11" class="edge">
<title>u8&#45;&gt;u2</title>
<path fill="none" stroke="black" d="M1457.68,-1508.65C1349.82,-1485.74 1139.22,-1441 1024.79,-1416.69"/>
<polygon fill="black" stroke="black" points="1025.21,-1413.2 1014.7,-1414.54 1023.75,-1420.05 1025.21,-1413.2"/>
</g>
<!-- u3 -->
<g id="node12" class="node">
<title>u3</title>
<ellipse fill="#ffbbff" stroke="black" cx="2144.23" cy="-1399" rx="188.47" ry="18"/>
<text text-anchor="middle" x="2144.23" y="-1395.3" font-family="Times,serif" font-size="14.00">Language.Drasil.Markdown.CreateMd</text>
</g>
<!-- u8&#45;&gt;u3 -->
<g id="edge12" class="edge">
<title>u8&#45;&gt;u3</title>
<path fill="none" stroke="black" d="M1595.94,-1508.95C1709.6,-1486.37 1932.69,-1442.04 2056.39,-1417.45"/>
<polygon fill="black" stroke="black" points="2057.09,-1420.88 2066.22,-1415.5 2055.73,-1414.02 2057.09,-1420.88"/>
</g>
<!-- u27 -->
<g id="node5" class="node">
<title>u27</title>
<ellipse fill="#bbbbff" stroke="black" cx="1087.23" cy="-1150" rx="140.28" ry="18"/>
<text text-anchor="middle" x="1087.23" y="-1146.3" font-family="Times,serif" font-size="14.00">Language.Drasil.HTML.CSS</text>
</g>
<!-- u26 -->
<g id="node6" class="node">
<title>u26</title>
<ellipse fill="#bbbbff" stroke="black" cx="1728.23" cy="-1150" rx="157.87" ry="18"/>
<text text-anchor="middle" x="1728.23" y="-1146.3" font-family="Times,serif" font-size="14.00">Language.Drasil.HTML.Helpers</text>
</g>
<!-- u10 -->
<g id="node18" class="node">
<title>u10</title>
<ellipse fill="#ffff77" stroke="black" cx="790.23" cy="-31" rx="149.47" ry="18"/>
<text text-anchor="middle" x="790.23" y="-27.3" font-family="Times,serif" font-size="14.00">Language.Drasil.Printing.AST</text>
</g>
<!-- u26&#45;&gt;u10 -->
<g id="edge35" class="edge">
<title>u26&#45;&gt;u10</title>
<path fill="none" stroke="black" d="M1728.23,-1131.7C1728.23,-1091.54 1728.23,-988.84 1728.23,-903 1728.23,-903 1728.23,-903 1728.23,-279 1728.23,-116.58 1195.68,-58.69 933.12,-40.02"/>
<polygon fill="black" stroke="black" points="933.35,-36.53 923.13,-39.32 932.86,-43.51 933.35,-36.53"/>
</g>
<!-- u25 -->
<g id="node7" class="node">
<title>u25</title>
<ellipse fill="#bbbbff" stroke="black" cx="1243.23" cy="-1275" rx="144.87" ry="18"/>
<text text-anchor="middle" x="1243.23" y="-1271.3" font-family="Times,serif" font-size="14.00">Language.Drasil.HTML.Print</text>
</g>
<!-- u25&#45;&gt;u27 -->
<g id="edge34" class="edge">
<title>u25&#45;&gt;u27</title>
<path fill="none" stroke="black" d="M1221.87,-1257.16C1194.64,-1235.69 1147.43,-1198.46 1116.77,-1174.29"/>
<polygon fill="black" stroke="black" points="1118.61,-1171.28 1108.59,-1167.84 1114.27,-1176.78 1118.61,-1171.28"/>
</g>
<!-- u25&#45;&gt;u26 -->
<g id="edge33" class="edge">
<title>u25&#45;&gt;u26</title>
<path fill="none" stroke="black" d="M1304.17,-1258.55C1393.98,-1235.77 1561.53,-1193.28 1656.93,-1169.08"/>
<polygon fill="black" stroke="black" points="1657.95,-1172.43 1666.78,-1166.58 1656.23,-1165.65 1657.95,-1172.43"/>
</g>
<!-- u24 -->
<g id="node8" class="node">
<title>u24</title>
<ellipse fill="#bbbbff" stroke="black" cx="1399.23" cy="-1150" rx="153.27" ry="18"/>
<text text-anchor="middle" x="1399.23" y="-1146.3" font-family="Times,serif" font-size="14.00">Language.Drasil.HTML.Monad</text>
</g>
<!-- u25&#45;&gt;u24 -->
<g id="edge32" class="edge">
<title>u25&#45;&gt;u24</title>
<path fill="none" stroke="black" d="M1264.6,-1257.16C1291.83,-1235.69 1339.04,-1198.46 1369.7,-1174.29"/>
<polygon fill="black" stroke="black" points="1372.19,-1176.78 1377.88,-1167.84 1367.86,-1171.28 1372.19,-1176.78"/>
</g>
<!-- u6 -->
<g id="node30" class="node">
<title>u6</title>
<ellipse fill="#ff7777" stroke="black" cx="795.23" cy="-1150" rx="133.48" ry="18"/>
<text text-anchor="middle" x="795.23" y="-1146.3" font-family="Times,serif" font-size="14.00">Language.Drasil.TeX.Print</text>
</g>
<!-- u25&#45;&gt;u6 -->
<g id="edge31" class="edge">
<title>u25&#45;&gt;u6</title>
<path fill="none" stroke="black" d="M1186.49,-1258.42C1103.4,-1235.61 948.97,-1193.21 861.02,-1169.06"/>
<polygon fill="black" stroke="black" points="861.73,-1165.63 851.16,-1166.36 859.87,-1172.38 861.73,-1165.63"/>
</g>
<!-- u31 -->
<g id="node9" class="node">
<title>u31</title>
<ellipse fill="#ffbbbb" stroke="black" cx="1728.23" cy="-1275" rx="153.27" ry="18"/>
<text text-anchor="middle" x="1728.23" y="-1271.3" font-family="Times,serif" font-size="14.00">Language.Drasil.JSON.Helpers</text>
</g>
<!-- u31&#45;&gt;u26 -->
<g id="edge40" class="edge">
<title>u31&#45;&gt;u26</title>
<path fill="none" stroke="black" d="M1728.23,-1256.9C1728.23,-1236.63 1728.23,-1202.6 1728.23,-1178.59"/>
<polygon fill="black" stroke="black" points="1731.73,-1178.35 1728.23,-1168.35 1724.73,-1178.35 1731.73,-1178.35"/>
</g>
<!-- u22 -->
<g id="node15" class="node">
<title>u22</title>
<ellipse fill="#ffff77" stroke="black" cx="1923.23" cy="-653" rx="167.07" ry="18"/>
<text text-anchor="middle" x="1923.23" y="-649.3" font-family="Times,serif" font-size="14.00">Language.Drasil.Printing.Helpers</text>
</g>
<!-- u31&#45;&gt;u22 -->
<g id="edge39" class="edge">
<title>u31&#45;&gt;u22</title>
<path fill="none" stroke="black" d="M1773.07,-1257.74C1811.81,-1241.26 1866.04,-1211.89 1895.23,-1168 1930.43,-1115.07 1919.23,-1090.57 1919.23,-1027 1919.23,-1027 1919.23,-1027 1919.23,-901 1919.23,-821.16 1921.35,-726.83 1922.5,-681.3"/>
<polygon fill="black" stroke="black" points="1926.01,-681.15 1922.76,-671.07 1919.01,-680.97 1926.01,-681.15"/>
</g>
<!-- u30&#45;&gt;u25 -->
<g id="edge37" class="edge">
<title>u30&#45;&gt;u25</title>
<path fill="none" stroke="black" d="M1243.23,-1380.78C1243.23,-1360.62 1243.23,-1326.96 1243.23,-1303.25"/>
<polygon fill="black" stroke="black" points="1246.73,-1303.13 1243.23,-1293.13 1239.73,-1303.13 1246.73,-1303.13"/>
</g>
<!-- u30&#45;&gt;u31 -->
<g id="edge38" class="edge">
<title>u30&#45;&gt;u31</title>
<path fill="none" stroke="black" d="M1304.17,-1382.67C1393.85,-1360.11 1561.07,-1318.05 1656.54,-1294.03"/>
<polygon fill="black" stroke="black" points="1657.55,-1297.39 1666.4,-1291.55 1655.85,-1290.6 1657.55,-1297.39"/>
</g>
<!-- u28 -->
<g id="node13" class="node">
<title>u28</title>
<ellipse fill="#77ff77" stroke="black" cx="865.23" cy="-1275" rx="139.98" ry="18"/>
<text text-anchor="middle" x="865.23" y="-1271.3" font-family="Times,serif" font-size="14.00">Language.Drasil.Plain.Print</text>
</g>
<!-- u2&#45;&gt;u28 -->
<g id="edge1" class="edge">
<title>u2&#45;&gt;u28</title>
<path fill="none" stroke="black" d="M934.97,-1381.04C921.32,-1360.48 898.2,-1325.65 882.34,-1301.78"/>
<polygon fill="black" stroke="black" points="885.11,-1299.61 876.66,-1293.21 879.27,-1303.48 885.11,-1299.61"/>
</g>
<!-- u20 -->
<g id="node17" class="node">
<title>u20</title>
<ellipse fill="#ffff77" stroke="black" cx="630.23" cy="-1026" rx="162.47" ry="18"/>
<text text-anchor="middle" x="630.23" y="-1022.3" font-family="Times,serif" font-size="14.00">Language.Drasil.Printing.Import</text>
</g>
<!-- u28&#45;&gt;u20 -->
<g id="edge36" class="edge">
<title>u28&#45;&gt;u20</title>
<path fill="none" stroke="black" d="M801.17,-1258.91C752.79,-1244.06 688.84,-1216.39 653.23,-1168 628.75,-1134.73 626.39,-1085.07 627.73,-1054.43"/>
<polygon fill="black" stroke="black" points="631.24,-1054.26 628.35,-1044.07 624.25,-1053.84 631.24,-1054.26"/>
</g>
<!-- u23 -->
<g id="node14" class="node">
<title>u23</title>
<ellipse fill="#ffff77" stroke="black" cx="1038.23" cy="-529" rx="167.87" ry="18"/>
<text text-anchor="middle" x="1038.23" y="-525.3" font-family="Times,serif" font-size="14.00">Language.Drasil.Printing.Citation</text>
</g>
<!-- u23&#45;&gt;u10 -->
<g id="edge30" class="edge">
<title>u23&#45;&gt;u10</title>
<path fill="none" stroke="black" d="M1050.29,-510.8C1089.72,-452.24 1207.36,-257.63 1119.23,-137 1090.62,-97.84 966.8,-66.25 879.52,-48.29"/>
<polygon fill="black" stroke="black" points="880.1,-44.84 869.6,-46.28 878.7,-51.7 880.1,-44.84"/>
</g>
<!-- u21 -->
<g id="node16" class="node">
<title>u21</title>
<ellipse fill="#ffff77" stroke="black" cx="963.23" cy="-777" rx="178.97" ry="18"/>
<text text-anchor="middle" x="963.23" y="-773.3" font-family="Times,serif" font-size="14.00">Language.Drasil.Printing.LayoutObj</text>
</g>
<!-- u21&#45;&gt;u23 -->
<g id="edge29" class="edge">
<title>u21&#45;&gt;u23</title>
<path fill="none" stroke="black" d="M968.51,-758.7C981.39,-716.45 1014.54,-607.72 1030.03,-556.91"/>
<polygon fill="black" stroke="black" points="1033.39,-557.87 1032.96,-547.28 1026.7,-555.82 1033.39,-557.87"/>
</g>
<!-- u18 -->
<g id="node21" class="node">
<title>u18</title>
<ellipse fill="#7777ff" stroke="black" cx="630.23" cy="-902" rx="212.56" ry="18"/>
<text text-anchor="middle" x="630.23" y="-898.3" font-family="Times,serif" font-size="14.00">Language.Drasil.Printing.Import.Document</text>
</g>
<!-- u20&#45;&gt;u18 -->
<g id="edge28" class="edge">
<title>u20&#45;&gt;u18</title>
<path fill="none" stroke="black" d="M630.23,-1007.78C630.23,-987.62 630.23,-953.96 630.23,-930.25"/>
<polygon fill="black" stroke="black" points="633.73,-930.13 630.23,-920.13 626.73,-930.13 633.73,-930.13"/>
</g>
<!-- u13 -->
<g id="node26" class="node">
<title>u13</title>
<ellipse fill="#7777ff" stroke="black" cx="211.23" cy="-404" rx="211.46" ry="18"/>
<text text-anchor="middle" x="211.23" y="-400.3" font-family="Times,serif" font-size="14.00">Language.Drasil.Printing.Import.CodeExpr</text>
</g>
<!-- u20&#45;&gt;u13 -->
<g id="edge27" class="edge">
<title>u20&#45;&gt;u13</title>
<path fill="none" stroke="black" d="M567.6,-1009.27C471.13,-980.86 297.23,-911.16 297.23,-778 297.23,-778 297.23,-778 297.23,-652 297.23,-567.39 251.67,-475.1 226.87,-431.13"/>
<polygon fill="black" stroke="black" points="229.79,-429.18 221.78,-422.25 223.72,-432.67 229.79,-429.18"/>
</g>
<!-- u9 -->
<g id="node19" class="node">
<title>u9</title>
<ellipse fill="#ffff77" stroke="black" cx="886.23" cy="-155" rx="223.66" ry="18"/>
<text text-anchor="middle" x="886.23" y="-151.3" font-family="Times,serif" font-size="14.00">Language.Drasil.Printing.PrintingInformation</text>
</g>
<!-- u19 -->
<g id="node20" class="node">
<title>u19</title>
<ellipse fill="#7777ff" stroke="black" cx="606.23" cy="-529" rx="193.07" ry="18"/>
<text text-anchor="middle" x="606.23" y="-525.3" font-family="Times,serif" font-size="14.00">Language.Drasil.Printing.Import.Space</text>
</g>
<!-- u15 -->
<g id="node24" class="node">
<title>u15</title>
<ellipse fill="#7777ff" stroke="black" cx="628.23" cy="-404" rx="187.67" ry="18"/>
<text text-anchor="middle" x="628.23" y="-400.3" font-family="Times,serif" font-size="14.00">Language.Drasil.Printing.Import.Expr</text>
</g>
<!-- u19&#45;&gt;u15 -->
<g id="edge26" class="edge">
<title>u19&#45;&gt;u15</title>
<path fill="none" stroke="black" d="M609.29,-510.9C612.93,-490.54 619.06,-456.29 623.35,-432.27"/>
<polygon fill="black" stroke="black" points="626.81,-432.81 625.13,-422.35 619.92,-431.58 626.81,-432.81"/>
</g>
<!-- u18&#45;&gt;u21 -->
<g id="edge25" class="edge">
<title>u18&#45;&gt;u21</title>
<path fill="none" stroke="black" d="M675.49,-884.28C736.21,-861.85 843.93,-822.07 908.94,-798.05"/>
<polygon fill="black" stroke="black" points="910.44,-801.23 918.61,-794.48 908.01,-794.67 910.44,-801.23"/>
</g>
<!-- u16 -->
<g id="node23" class="node">
<title>u16</title>
<ellipse fill="#7777ff" stroke="black" cx="558.23" cy="-777" rx="207.96" ry="18"/>
<text text-anchor="middle" x="558.23" y="-773.3" font-family="Times,serif" font-size="14.00">Language.Drasil.Printing.Import.Sentence</text>
</g>
<!-- u18&#45;&gt;u16 -->
<g id="edge24" class="edge">
<title>u18&#45;&gt;u16</title>
<path fill="none" stroke="black" d="M620.22,-883.9C608.09,-863.18 587.53,-828.06 573.44,-803.99"/>
<polygon fill="black" stroke="black" points="576.46,-802.22 568.39,-795.35 570.42,-805.75 576.46,-802.22"/>
</g>
<!-- u17 -->
<g id="node22" class="node">
<title>u17</title>
<ellipse fill="#7777ff" stroke="black" cx="442.23" cy="-155" rx="202.26" ry="18"/>
<text text-anchor="middle" x="442.23" y="-151.3" font-family="Times,serif" font-size="14.00">Language.Drasil.Printing.Import.Helpers</text>
</g>
<!-- u17&#45;&gt;u10 -->
<g id="edge23" class="edge">
<title>u17&#45;&gt;u10</title>
<path fill="none" stroke="black" d="M489.53,-137.42C553.29,-115.06 666.64,-75.33 734.48,-51.54"/>
<polygon fill="black" stroke="black" points="735.87,-54.77 744.15,-48.16 733.55,-48.16 735.87,-54.77"/>
</g>
<!-- u11 -->
<g id="node28" class="node">
<title>u11</title>
<ellipse fill="#7777ff" stroke="black" cx="584.23" cy="-653" rx="216.36" ry="18"/>
<text text-anchor="middle" x="584.23" y="-649.3" font-family="Times,serif" font-size="14.00">Language.Drasil.Printing.Import.ModelExpr</text>
</g>
<!-- u16&#45;&gt;u11 -->
<g id="edge22" class="edge">
<title>u16&#45;&gt;u11</title>
<path fill="none" stroke="black" d="M561.9,-758.78C566.22,-738.52 573.43,-704.66 578.49,-680.93"/>
<polygon fill="black" stroke="black" points="581.92,-681.64 580.58,-671.13 575.07,-680.18 581.92,-681.64"/>
</g>
<!-- u14 -->
<g id="node25" class="node">
<title>u14</title>
<ellipse fill="#7777ff" stroke="black" cx="212.23" cy="-280" rx="200.36" ry="18"/>
<text text-anchor="middle" x="212.23" y="-276.3" font-family="Times,serif" font-size="14.00">Language.Drasil.Printing.Import.Symbol</text>
</g>
<!-- u15&#45;&gt;u14 -->
<g id="edge21" class="edge">
<title>u15&#45;&gt;u14</title>
<path fill="none" stroke="black" d="M572.56,-386.67C496.08,-364.24 358.76,-323.97 277.53,-300.15"/>
<polygon fill="black" stroke="black" points="278.49,-296.78 267.91,-297.33 276.52,-303.5 278.49,-296.78"/>
</g>
<!-- u12 -->
<g id="node27" class="node">
<title>u12</title>
<ellipse fill="#7777ff" stroke="black" cx="627.23" cy="-280" rx="196.07" ry="18"/>
<text text-anchor="middle" x="627.23" y="-276.3" font-family="Times,serif" font-size="14.00">Language.Drasil.Printing.Import.Literal</text>
</g>
<!-- u15&#45;&gt;u12 -->
<g id="edge20" class="edge">
<title>u15&#45;&gt;u12</title>
<path fill="none" stroke="black" d="M628.09,-385.78C627.92,-365.62 627.65,-331.96 627.45,-308.25"/>
<polygon fill="black" stroke="black" points="630.95,-308.1 627.37,-298.13 623.95,-308.16 630.95,-308.1"/>
</g>
<!-- u14&#45;&gt;u10 -->
<g id="edge19" class="edge">
<title>u14&#45;&gt;u10</title>
<path fill="none" stroke="black" d="M208.81,-261.92C203.94,-232.25 198.88,-171.1 231.23,-137 287.04,-78.18 501.29,-51.61 647.73,-40.13"/>
<polygon fill="black" stroke="black" points="648.02,-43.62 657.72,-39.36 647.48,-36.64 648.02,-43.62"/>
</g>
<!-- u13&#45;&gt;u14 -->
<g id="edge18" class="edge">
<title>u13&#45;&gt;u14</title>
<path fill="none" stroke="black" d="M211.37,-385.78C211.54,-365.62 211.81,-331.96 212.01,-308.25"/>
<polygon fill="black" stroke="black" points="215.51,-308.16 212.09,-298.13 208.51,-308.1 215.51,-308.16"/>
</g>
<!-- u13&#45;&gt;u12 -->
<g id="edge17" class="edge">
<title>u13&#45;&gt;u12</title>
<path fill="none" stroke="black" d="M267.33,-386.55C343.95,-364.08 481.02,-323.88 562.08,-300.11"/>
<polygon fill="black" stroke="black" points="563.07,-303.46 571.69,-297.29 561.1,-296.75 563.07,-303.46"/>
</g>
<!-- u12&#45;&gt;u9 -->
<g id="edge15" class="edge">
<title>u12&#45;&gt;u9</title>
<path fill="none" stroke="black" d="M662.43,-262.28C708.91,-240.21 790.8,-201.32 841.59,-177.2"/>
<polygon fill="black" stroke="black" points="843.16,-180.33 850.69,-172.88 840.16,-174.01 843.16,-180.33"/>
</g>
<!-- u12&#45;&gt;u17 -->
<g id="edge16" class="edge">
<title>u12&#45;&gt;u17</title>
<path fill="none" stroke="black" d="M601.51,-261.9C568.92,-240.23 512.67,-202.83 476.48,-178.77"/>
<polygon fill="black" stroke="black" points="478,-175.58 467.74,-172.96 474.13,-181.41 478,-175.58"/>
</g>
<!-- u11&#45;&gt;u19 -->
<g id="edge14" class="edge">
<title>u11&#45;&gt;u19</title>
<path fill="none" stroke="black" d="M587.34,-634.78C590.97,-614.62 597.04,-580.96 601.32,-557.25"/>
<polygon fill="black" stroke="black" points="604.81,-557.6 603.14,-547.13 597.92,-556.35 604.81,-557.6"/>
</g>
<!-- u7 -->
<g id="node29" class="node">
<title>u7</title>
<ellipse fill="#ff7777" stroke="black" cx="1301.23" cy="-902" rx="146.47" ry="18"/>
<text text-anchor="middle" x="1301.23" y="-898.3" font-family="Times,serif" font-size="14.00">Language.Drasil.TeX.Helpers</text>
</g>
<!-- u7&#45;&gt;u29 -->
<g id="edge8" class="edge">
<title>u7&#45;&gt;u29</title>
<path fill="none" stroke="black" d="M1338.57,-884.54C1389.14,-862.25 1479.35,-822.47 1534.1,-798.34"/>
<polygon fill="black" stroke="black" points="1535.82,-801.4 1543.56,-794.17 1533,-795 1535.82,-801.4"/>
</g>
<!-- u4 -->
<g id="node32" class="node">
<title>u4</title>
<ellipse fill="#ff7777" stroke="black" cx="1301.23" cy="-777" rx="141.88" ry="18"/>
<text text-anchor="middle" x="1301.23" y="-773.3" font-family="Times,serif" font-size="14.00">Language.Drasil.TeX.Monad</text>
</g>
<!-- u7&#45;&gt;u4 -->
<g id="edge7" class="edge">
<title>u7&#45;&gt;u4</title>
<path fill="none" stroke="black" d="M1301.23,-883.9C1301.23,-863.63 1301.23,-829.6 1301.23,-805.59"/>
<polygon fill="black" stroke="black" points="1304.73,-805.35 1301.23,-795.35 1297.73,-805.35 1304.73,-805.35"/>
</g>
<!-- u6&#45;&gt;u20 -->
<g id="edge6" class="edge">
<title>u6&#45;&gt;u20</title>
<path fill="none" stroke="black" d="M772.29,-1132.04C743.43,-1110.7 693.76,-1073.97 661.46,-1050.09"/>
<polygon fill="black" stroke="black" points="663.37,-1047.15 653.24,-1044.02 659.2,-1052.78 663.37,-1047.15"/>
</g>
<!-- u5 -->
<g id="node31" class="node">
<title>u5</title>
<ellipse fill="#ff7777" stroke="black" cx="965.23" cy="-1026" rx="154.07" ry="18"/>
<text text-anchor="middle" x="965.23" y="-1022.3" font-family="Times,serif" font-size="14.00">Language.Drasil.TeX.Preamble</text>
</g>
<!-- u6&#45;&gt;u5 -->
<g id="edge5" class="edge">
<title>u6&#45;&gt;u5</title>
<path fill="none" stroke="black" d="M818.87,-1132.04C848.68,-1110.64 900.07,-1073.77 933.34,-1049.89"/>
<polygon fill="black" stroke="black" points="935.71,-1052.49 941.79,-1043.82 931.63,-1046.81 935.71,-1052.49"/>
</g>
<!-- u5&#45;&gt;u21 -->
<g id="edge4" class="edge">
<title>u5&#45;&gt;u21</title>
<path fill="none" stroke="black" d="M965.09,-1007.63C964.75,-965.28 963.87,-856.42 963.45,-805.29"/>
<polygon fill="black" stroke="black" points="966.95,-804.99 963.37,-795.02 959.95,-805.05 966.95,-804.99"/>
</g>
<!-- u5&#45;&gt;u7 -->
<g id="edge3" class="edge">
<title>u5&#45;&gt;u7</title>
<path fill="none" stroke="black" d="M1010.2,-1008.67C1071.43,-986.44 1180.93,-946.68 1246.75,-922.78"/>
<polygon fill="black" stroke="black" points="1248.33,-925.93 1256.53,-919.23 1245.94,-919.35 1248.33,-925.93"/>
</g>
<!-- u4&#45;&gt;u22 -->
<g id="edge2" class="edge">
<title>u4&#45;&gt;u22</title>
<path fill="none" stroke="black" d="M1374.72,-761.59C1490.1,-738.96 1713.25,-695.19 1836.39,-671.03"/>
<polygon fill="black" stroke="black" points="1837.39,-674.4 1846.53,-669.04 1836.04,-667.53 1837.39,-674.4"/>
</g>
</g>
</svg>
