<?xml version="1.0" encoding="UTF-8" standalone="no"?>
<!DOCTYPE svg PUBLIC "-//W3C//DTD SVG 1.1//EN"
 "http://www.w3.org/Graphics/SVG/1.1/DTD/svg11.dtd">
<!-- Generated by graphviz version 2.43.0 (0)
 -->
<!-- Title: G Pages: 1 -->
<svg width="431pt" height="288pt"
 viewBox="0.00 0.00 430.96 288.00" xmlns="http://www.w3.org/2000/svg" xmlns:xlink="http://www.w3.org/1999/xlink">
<g id="graph0" class="graph" transform="scale(0.31 0.31) rotate(0) translate(4 919.33)">
<title>G</title>
<polygon fill="white" stroke="transparent" points="-4,4 -4,-919.33 1377.68,-919.33 1377.68,4 -4,4"/>
<!-- u8 -->
<g id="node1" class="node">
<title>u8</title>
<ellipse fill="#bbffbb" stroke="black" cx="715.39" cy="-824" rx="63.89" ry="18"/>
<text text-anchor="middle" x="715.39" y="-820.3" font-family="Times,serif" font-size="14.00">Utils.Drasil</text>
</g>
<!-- u7 -->
<g id="node2" class="node">
<title>u7</title>
<ellipse fill="#ffffbb" stroke="black" cx="114.39" cy="-458" rx="114.28" ry="18"/>
<text text-anchor="middle" x="114.39" y="-454.3" font-family="Times,serif" font-size="14.00">Utils.Drasil.Document</text>
</g>
<!-- u8&#45;&gt;u7 -->
<g id="edge8" class="edge">
<title>u8&#45;&gt;u7</title>
<path fill="none" stroke="black" d="M689.57,-807.36C594.18,-749.59 261.48,-548.09 150.64,-480.95"/>
<polygon fill="black" stroke="black" points="152.19,-477.8 141.82,-475.62 148.57,-483.79 152.19,-477.8"/>
</g>
<!-- u5 -->
<g id="node4" class="node">
<title>u5</title>
<ellipse fill="#ffffbb" stroke="black" cx="371.39" cy="-458" rx="124.28" ry="18"/>
<text text-anchor="middle" x="371.39" y="-454.3" font-family="Times,serif" font-size="14.00">Utils.Drasil.TypeClasses</text>
</g>
<!-- u8&#45;&gt;u5 -->
<g id="edge7" class="edge">
<title>u8&#45;&gt;u5</title>
<path fill="none" stroke="black" d="M699.71,-806.41C644.66,-748.16 459.95,-552.71 394.57,-483.53"/>
<polygon fill="black" stroke="black" points="396.97,-480.97 387.55,-476.1 391.88,-485.78 396.97,-480.97"/>
</g>
<!-- u4 -->
<g id="node5" class="node">
<title>u4</title>
<ellipse fill="#ffffbb" stroke="black" cx="608.39" cy="-458" rx="94.78" ry="18"/>
<text text-anchor="middle" x="608.39" y="-454.3" font-family="Times,serif" font-size="14.00">Utils.Drasil.FileIO</text>
</g>
<!-- u8&#45;&gt;u4 -->
<g id="edge6" class="edge">
<title>u8&#45;&gt;u4</title>
<path fill="none" stroke="black" d="M710.37,-805.93C693.28,-747.78 637.21,-557.05 616.32,-485.99"/>
<polygon fill="black" stroke="black" points="619.57,-484.64 613.4,-476.03 612.86,-486.61 619.57,-484.64"/>
</g>
<!-- u3 -->
<g id="node6" class="node">
<title>u3</title>
<ellipse fill="#ffffbb" stroke="black" cx="823.39" cy="-458" rx="102.08" ry="18"/>
<text text-anchor="middle" x="823.39" y="-454.3" font-family="Times,serif" font-size="14.00">Utils.Drasil.English</text>
</g>
<!-- u8&#45;&gt;u3 -->
<g id="edge5" class="edge">
<title>u8&#45;&gt;u3</title>
<path fill="none" stroke="black" d="M720.45,-805.93C737.71,-747.78 794.3,-557.05 815.38,-485.99"/>
<polygon fill="black" stroke="black" points="818.85,-486.61 818.34,-476.03 812.14,-484.62 818.85,-486.61"/>
</g>
<!-- u2 -->
<g id="node7" class="node">
<title>u2</title>
<ellipse fill="#ffffbb" stroke="black" cx="1044.39" cy="-458" rx="100.98" ry="18"/>
<text text-anchor="middle" x="1044.39" y="-454.3" font-family="Times,serif" font-size="14.00">Utils.Drasil.Strings</text>
</g>
<!-- u8&#45;&gt;u2 -->
<g id="edge4" class="edge">
<title>u8&#45;&gt;u2</title>
<path fill="none" stroke="black" d="M730.38,-806.41C783.03,-748.16 959.69,-552.71 1022.22,-483.53"/>
<polygon fill="black" stroke="black" points="1024.82,-485.87 1028.93,-476.1 1019.63,-481.18 1024.82,-485.87"/>
</g>
<!-- u1 -->
<g id="node8" class="node">
<title>u1</title>
<ellipse fill="#ffffbb" stroke="black" cx="1268.39" cy="-458" rx="105.08" ry="18"/>
<text text-anchor="middle" x="1268.39" y="-454.3" font-family="Times,serif" font-size="14.00">Utils.Drasil.FilePath</text>
</g>
<!-- u8&#45;&gt;u1 -->
<g id="edge3" class="edge">
<title>u8&#45;&gt;u1</title>
<path fill="none" stroke="black" d="M739.51,-807.13C827.68,-749.09 1132.71,-548.31 1234.8,-481.11"/>
<polygon fill="black" stroke="black" points="1236.77,-484 1243.2,-475.58 1232.92,-478.16 1236.77,-484"/>
</g>
<!-- u6 -->
<g id="node3" class="node">
<title>u6</title>
<ellipse fill="#ffffbb" stroke="black" cx="608.39" cy="-92" rx="110.48" ry="18"/>
<text text-anchor="middle" x="608.39" y="-88.3" font-family="Times,serif" font-size="14.00">Utils.Drasil.Directory</text>
</g>
<!-- u4&#45;&gt;u6 -->
<g id="edge2" class="edge">
<title>u4&#45;&gt;u6</title>
<path fill="none" stroke="black" d="M608.39,-439.93C608.39,-381.9 608.39,-191.83 608.39,-120.43"/>
<polygon fill="black" stroke="black" points="611.89,-120.03 608.39,-110.03 604.89,-120.03 611.89,-120.03"/>
</g>
<!-- u0 -->
<g id="node9" class="node">
<title>u0</title>
<ellipse fill="#ffffbb" stroke="black" cx="1044.39" cy="-92" rx="89.08" ry="18"/>
<text text-anchor="middle" x="1044.39" y="-88.3" font-family="Times,serif" font-size="14.00">Utils.Drasil.Lists</text>
</g>
<!-- u2&#45;&gt;u0 -->
<g id="edge1" class="edge">
<title>u2&#45;&gt;u0</title>
<path fill="none" stroke="black" d="M1044.39,-439.93C1044.39,-381.9 1044.39,-191.83 1044.39,-120.43"/>
<polygon fill="black" stroke="black" points="1047.89,-120.03 1044.39,-110.03 1040.89,-120.03 1047.89,-120.03"/>
</g>
</g>
</svg>
