<?xml version="1.0" encoding="UTF-8" standalone="no"?>
<!DOCTYPE svg PUBLIC "-//W3C//DTD SVG 1.1//EN"
 "http://www.w3.org/Graphics/SVG/1.1/DTD/svg11.dtd">
<!-- Generated by graphviz version 2.43.0 (0)
 -->
<!-- Title: G Pages: 1 -->
<svg width="430pt" height="288pt"
 viewBox="0.00 0.00 430.26 288.00" xmlns="http://www.w3.org/2000/svg" xmlns:xlink="http://www.w3.org/1999/xlink">
<g id="graph0" class="graph" transform="scale(2.05 2.05) rotate(0) translate(4 586)">
<title>G</title>
<polygon fill="white" stroke="transparent" points="-4,4 -4,-586 877.43,-586 877.43,4 -4,4"/>
<!-- u5 -->
<g id="node1" class="node">
<title>u5</title>
<ellipse fill="#bbffbb" stroke="black" cx="428.04" cy="-524" rx="63.89" ry="18"/>
<text text-anchor="middle" x="428.04" y="-520.3" font-family="Times,serif" font-size="14.00">Utils.Drasil</text>
</g>
<!-- u4 -->
<g id="node2" class="node">
<title>u4</title>
<ellipse fill="#ffffbb" stroke="black" cx="102.04" cy="-291" rx="102.08" ry="18"/>
<text text-anchor="middle" x="102.04" y="-287.3" font-family="Times,serif" font-size="14.00">Utils.Drasil.English</text>
</g>
<!-- u5&#45;&gt;u4 -->
<g id="edge5" class="edge">
<title>u5&#45;&gt;u4</title>
<path fill="none" stroke="black" d="M405.63,-507.12C348.91,-466.93 199.5,-361.06 133.8,-314.51"/>
<polygon fill="black" stroke="black" points="135.66,-311.53 125.48,-308.61 131.61,-317.24 135.66,-311.53"/>
</g>
<!-- u3 -->
<g id="node3" class="node">
<title>u3</title>
<ellipse fill="#ffffbb" stroke="black" cx="323.04" cy="-291" rx="100.98" ry="18"/>
<text text-anchor="middle" x="323.04" y="-287.3" font-family="Times,serif" font-size="14.00">Utils.Drasil.Strings</text>
</g>
<!-- u5&#45;&gt;u3 -->
<g id="edge4" class="edge">
<title>u5&#45;&gt;u3</title>
<path fill="none" stroke="black" d="M420.32,-506.01C402.19,-466.13 356.8,-366.27 335.04,-318.4"/>
<polygon fill="black" stroke="black" points="338.1,-316.67 330.77,-309.01 331.72,-319.56 338.1,-316.67"/>
</g>
<!-- u2 -->
<g id="node4" class="node">
<title>u2</title>
<ellipse fill="#ffffbb" stroke="black" cx="534.04" cy="-291" rx="92.08" ry="18"/>
<text text-anchor="middle" x="534.04" y="-287.3" font-family="Times,serif" font-size="14.00">Utils.Drasil.Maps</text>
</g>
<!-- u5&#45;&gt;u2 -->
<g id="edge3" class="edge">
<title>u5&#45;&gt;u2</title>
<path fill="none" stroke="black" d="M435.84,-506.01C454.14,-466.13 499.96,-366.27 521.93,-318.4"/>
<polygon fill="black" stroke="black" points="525.25,-319.56 526.24,-309.01 518.88,-316.64 525.25,-319.56"/>
</g>
<!-- u1 -->
<g id="node5" class="node">
<title>u1</title>
<ellipse fill="#ffffbb" stroke="black" cx="759.04" cy="-291" rx="114.28" ry="18"/>
<text text-anchor="middle" x="759.04" y="-287.3" font-family="Times,serif" font-size="14.00">Utils.Drasil.Document</text>
</g>
<!-- u5&#45;&gt;u1 -->
<g id="edge2" class="edge">
<title>u5&#45;&gt;u1</title>
<path fill="none" stroke="black" d="M450.79,-507.12C508.38,-466.93 660.08,-361.06 726.79,-314.51"/>
<polygon fill="black" stroke="black" points="729.05,-317.2 735.24,-308.61 725.04,-311.46 729.05,-317.2"/>
</g>
<!-- u0 -->
<g id="node6" class="node">
<title>u0</title>
<ellipse fill="#ffffbb" stroke="black" cx="323.04" cy="-58" rx="89.08" ry="18"/>
<text text-anchor="middle" x="323.04" y="-54.3" font-family="Times,serif" font-size="14.00">Utils.Drasil.Lists</text>
</g>
<!-- u3&#45;&gt;u0 -->
<g id="edge1" class="edge">
<title>u3&#45;&gt;u0</title>
<path fill="none" stroke="black" d="M323.04,-272.64C323.04,-232.82 323.04,-134.69 323.04,-86.54"/>
<polygon fill="black" stroke="black" points="326.54,-86.25 323.04,-76.25 319.54,-86.25 326.54,-86.25"/>
</g>
</g>
</svg>
