<?xml version="1.0" encoding="UTF-8" standalone="no"?>
<!DOCTYPE svg PUBLIC "-//W3C//DTD SVG 1.1//EN"
 "http://www.w3.org/Graphics/SVG/1.1/DTD/svg11.dtd">
<!-- Generated by graphviz version 2.43.0 (0)
 -->
<!-- Title: G Pages: 1 -->
<svg width="430pt" height="288pt"
 viewBox="0.00 0.00 430.42 288.00" xmlns="http://www.w3.org/2000/svg" xmlns:xlink="http://www.w3.org/1999/xlink">
<g id="graph0" class="graph" transform="scale(0.4 0.4) rotate(0) translate(4 718.67)">
<title>G</title>
<polygon fill="white" stroke="transparent" points="-4,4 -4,-718.67 1076.03,-718.67 1076.03,4 -4,4"/>
<!-- u8 -->
<g id="node1" class="node">
<title>u8</title>
<ellipse fill="#bbffbb" stroke="black" cx="490.69" cy="-664" rx="72.29" ry="18"/>
<text text-anchor="middle" x="490.69" y="-660.3" font-family="Times,serif" font-size="14.00">Theory.Drasil</text>
</g>
<!-- u7 -->
<g id="node2" class="node">
<title>u7</title>
<ellipse fill="#ffffbb" stroke="black" cx="115.69" cy="-459" rx="115.88" ry="18"/>
<text text-anchor="middle" x="115.69" y="-455.3" font-family="Times,serif" font-size="14.00">Theory.Drasil.GenDefn</text>
</g>
<!-- u8&#45;&gt;u7 -->
<g id="edge11" class="edge">
<title>u8&#45;&gt;u7</title>
<path fill="none" stroke="black" d="M461.89,-647.41C395.44,-611.44 231.32,-522.6 155.4,-481.5"/>
<polygon fill="black" stroke="black" points="156.61,-478.17 146.15,-476.49 153.28,-484.33 156.61,-478.17"/>
</g>
<!-- u6 -->
<g id="node3" class="node">
<title>u6</title>
<ellipse fill="#ffffbb" stroke="black" cx="356.69" cy="-459" rx="107.48" ry="18"/>
<text text-anchor="middle" x="356.69" y="-455.3" font-family="Times,serif" font-size="14.00">Theory.Drasil.Theory</text>
</g>
<!-- u8&#45;&gt;u6 -->
<g id="edge10" class="edge">
<title>u8&#45;&gt;u6</title>
<path fill="none" stroke="black" d="M479.5,-646.04C456,-610.44 401.41,-527.74 373.61,-485.63"/>
<polygon fill="black" stroke="black" points="376.38,-483.47 367.95,-477.05 370.53,-487.33 376.38,-483.47"/>
</g>
<!-- u1 -->
<g id="node8" class="node">
<title>u1</title>
<ellipse fill="#ffffbb" stroke="black" cx="929.69" cy="-459" rx="142.17" ry="18"/>
<text text-anchor="middle" x="929.69" y="-455.3" font-family="Times,serif" font-size="14.00">Theory.Drasil.DataDefinition</text>
</g>
<!-- u8&#45;&gt;u1 -->
<g id="edge9" class="edge">
<title>u8&#45;&gt;u1</title>
<path fill="none" stroke="black" d="M523.33,-647.91C600.88,-612.05 796.32,-521.67 884.86,-480.73"/>
<polygon fill="black" stroke="black" points="886.49,-483.83 894.1,-476.46 883.55,-477.48 886.49,-483.83"/>
</g>
<!-- u0 -->
<g id="node9" class="node">
<title>u0</title>
<ellipse fill="#ffffbb" stroke="black" cx="625.69" cy="-459" rx="143.77" ry="18"/>
<text text-anchor="middle" x="625.69" y="-455.3" font-family="Times,serif" font-size="14.00">Theory.Drasil.InstanceModel</text>
</g>
<!-- u8&#45;&gt;u0 -->
<g id="edge8" class="edge">
<title>u8&#45;&gt;u0</title>
<path fill="none" stroke="black" d="M501.97,-646.04C525.64,-610.44 580.64,-527.74 608.64,-485.63"/>
<polygon fill="black" stroke="black" points="611.73,-487.32 614.35,-477.05 605.9,-483.44 611.73,-487.32"/>
</g>
<!-- u2 -->
<g id="node7" class="node">
<title>u2</title>
<ellipse fill="#ffffbb" stroke="black" cx="356.69" cy="-255" rx="129.98" ry="18"/>
<text text-anchor="middle" x="356.69" y="-251.3" font-family="Times,serif" font-size="14.00">Theory.Drasil.ModelKinds</text>
</g>
<!-- u7&#45;&gt;u2 -->
<g id="edge7" class="edge">
<title>u7&#45;&gt;u2</title>
<path fill="none" stroke="black" d="M135.82,-441.13C178.8,-405.11 279.57,-320.64 328.73,-279.43"/>
<polygon fill="black" stroke="black" points="331.03,-282.08 336.44,-272.97 326.53,-276.71 331.03,-282.08"/>
</g>
<!-- u6&#45;&gt;u2 -->
<g id="edge6" class="edge">
<title>u6&#45;&gt;u2</title>
<path fill="none" stroke="black" d="M356.69,-440.78C356.69,-405.67 356.69,-325.59 356.69,-283.31"/>
<polygon fill="black" stroke="black" points="360.19,-283.18 356.69,-273.18 353.19,-283.18 360.19,-283.18"/>
</g>
<!-- u5 -->
<g id="node4" class="node">
<title>u5</title>
<ellipse fill="#ffffbb" stroke="black" cx="216.69" cy="-51" rx="139.98" ry="18"/>
<text text-anchor="middle" x="216.69" y="-47.3" font-family="Times,serif" font-size="14.00">Theory.Drasil.ConstraintSet</text>
</g>
<!-- u4 -->
<g id="node5" class="node">
<title>u4</title>
<ellipse fill="#ffffbb" stroke="black" cx="777.69" cy="-255" rx="110.48" ry="18"/>
<text text-anchor="middle" x="777.69" y="-251.3" font-family="Times,serif" font-size="14.00">Theory.Drasil.Classes</text>
</g>
<!-- u3 -->
<g id="node6" class="node">
<title>u3</title>
<ellipse fill="#ffffbb" stroke="black" cx="496.69" cy="-51" rx="122.38" ry="18"/>
<text text-anchor="middle" x="496.69" y="-47.3" font-family="Times,serif" font-size="14.00">Theory.Drasil.MultiDefn</text>
</g>
<!-- u2&#45;&gt;u5 -->
<g id="edge5" class="edge">
<title>u2&#45;&gt;u5</title>
<path fill="none" stroke="black" d="M344.75,-236.78C320.06,-201.15 263.26,-119.19 234.33,-77.45"/>
<polygon fill="black" stroke="black" points="237.17,-75.4 228.6,-69.18 231.42,-79.39 237.17,-75.4"/>
</g>
<!-- u2&#45;&gt;u3 -->
<g id="edge4" class="edge">
<title>u2&#45;&gt;u3</title>
<path fill="none" stroke="black" d="M368.63,-236.78C393.32,-201.15 450.12,-119.19 479.05,-77.45"/>
<polygon fill="black" stroke="black" points="481.96,-79.39 484.78,-69.18 476.21,-75.4 481.96,-79.39"/>
</g>
<!-- u1&#45;&gt;u4 -->
<g id="edge3" class="edge">
<title>u1&#45;&gt;u4</title>
<path fill="none" stroke="black" d="M916.73,-440.78C889.85,-405.06 827.94,-322.78 796.6,-281.13"/>
<polygon fill="black" stroke="black" points="799.21,-278.78 790.4,-272.89 793.62,-282.99 799.21,-278.78"/>
</g>
<!-- u0&#45;&gt;u4 -->
<g id="edge2" class="edge">
<title>u0&#45;&gt;u4</title>
<path fill="none" stroke="black" d="M638.65,-440.78C665.53,-405.06 727.44,-322.78 758.78,-281.13"/>
<polygon fill="black" stroke="black" points="761.76,-282.99 764.98,-272.89 756.17,-278.78 761.76,-282.99"/>
</g>
<!-- u0&#45;&gt;u2 -->
<g id="edge1" class="edge">
<title>u0&#45;&gt;u2</title>
<path fill="none" stroke="black" d="M603.22,-441.13C555.15,-405.03 442.3,-320.29 387.56,-279.18"/>
<polygon fill="black" stroke="black" points="389.39,-276.18 379.29,-272.97 385.18,-281.77 389.39,-276.18"/>
</g>
</g>
</svg>
