<?xml version="1.0" encoding="UTF-8" standalone="no"?>
<!DOCTYPE svg PUBLIC "-//W3C//DTD SVG 1.1//EN"
 "http://www.w3.org/Graphics/SVG/1.1/DTD/svg11.dtd">
<!-- Generated by graphviz version 2.43.0 (0)
 -->
<!-- Title: G Pages: 1 -->
<svg width="432pt" height="288pt"
 viewBox="0.00 0.00 431.67 288.00" xmlns="http://www.w3.org/2000/svg" xmlns:xlink="http://www.w3.org/1999/xlink">
<g id="graph0" class="graph" transform="scale(10.27 10.27) rotate(0) translate(4 2954)">
<title>G</title>
<polygon fill="white" stroke="transparent" points="-4,4 -4,-2954 4429.58,-2954 4429.58,4 -4,4"/>
<!-- u30 -->
<g id="node1" class="node">
<title>u30</title>
<ellipse fill="#bbffbb" stroke="black" cx="313.29" cy="-1822" rx="79.09" ry="18"/>
<text text-anchor="middle" x="313.29" y="-1818.3" font-family="Times,serif" font-size="14.00">Drasil.DocDecl</text>
</g>
<!-- u20 -->
<g id="node14" class="node">
<title>u20</title>
<ellipse fill="#bbbbff" stroke="black" cx="1073.29" cy="-1128" rx="159.47" ry="18"/>
<text text-anchor="middle" x="1073.29" y="-1124.3" font-family="Times,serif" font-size="14.00">Drasil.DocumentLanguage.Core</text>
</g>
<!-- u30&#45;&gt;u20 -->
<g id="edge51" class="edge">
<title>u30&#45;&gt;u20</title>
<path fill="none" stroke="black" d="M293.1,-1804.35C230.58,-1750.8 49.48,-1579.36 136.29,-1457 311.77,-1209.66 688.69,-1147.37 907.23,-1132.6"/>
<polygon fill="black" stroke="black" points="907.77,-1136.08 917.52,-1131.94 907.31,-1129.09 907.77,-1136.08"/>
</g>
<!-- u1 -->
<g id="node31" class="node">
<title>u1</title>
<ellipse fill="#ffbbff" stroke="black" cx="313.29" cy="-1475" rx="149.47" ry="18"/>
<text text-anchor="middle" x="313.29" y="-1471.3" font-family="Times,serif" font-size="14.00">Drasil.Sections.Requirements</text>
</g>
<!-- u30&#45;&gt;u1 -->
<g id="edge50" class="edge">
<title>u30&#45;&gt;u1</title>
<path fill="none" stroke="black" d="M313.29,-1803.89C313.29,-1748.25 313.29,-1572.09 313.29,-1503.61"/>
<polygon fill="black" stroke="black" points="316.79,-1503.21 313.29,-1493.21 309.79,-1503.21 316.79,-1503.21"/>
</g>
<!-- u29 -->
<g id="node2" class="node">
<title>u29</title>
<ellipse fill="#bbffbb" stroke="black" cx="2389.29" cy="-2169" rx="133.78" ry="18"/>
<text text-anchor="middle" x="2389.29" y="-2165.3" font-family="Times,serif" font-size="14.00">Drasil.DocumentLanguage</text>
</g>
<!-- u29&#45;&gt;u30 -->
<g id="edge49" class="edge">
<title>u29&#45;&gt;u30</title>
<path fill="none" stroke="black" d="M2308.55,-2154.58C1974.35,-2099.04 702.09,-1887.61 385.14,-1834.94"/>
<polygon fill="black" stroke="black" points="385.59,-1831.47 375.15,-1833.28 384.44,-1838.37 385.59,-1831.47"/>
</g>
<!-- u19 -->
<g id="node4" class="node">
<title>u19</title>
<ellipse fill="#bbffbb" stroke="black" cx="688.29" cy="-1822" rx="116.18" ry="18"/>
<text text-anchor="middle" x="688.29" y="-1818.3" font-family="Times,serif" font-size="14.00">Drasil.ExtractDocDesc</text>
</g>
<!-- u29&#45;&gt;u19 -->
<g id="edge47" class="edge">
<title>u29&#45;&gt;u19</title>
<path fill="none" stroke="black" d="M2318.64,-2153.67C2044.37,-2098.04 1051.38,-1896.64 765.68,-1838.7"/>
<polygon fill="black" stroke="black" points="766.32,-1835.25 755.82,-1836.7 764.92,-1842.11 766.32,-1835.25"/>
</g>
<!-- u13 -->
<g id="node5" class="node">
<title>u13</title>
<ellipse fill="#bbffbb" stroke="black" cx="92.29" cy="-1822" rx="92.08" ry="18"/>
<text text-anchor="middle" x="92.29" y="-1818.3" font-family="Times,serif" font-size="14.00">Drasil.TraceTable</text>
</g>
<!-- u29&#45;&gt;u13 -->
<g id="edge45" class="edge">
<title>u29&#45;&gt;u13</title>
<path fill="none" stroke="black" d="M2303.44,-2155.11C1939.52,-2100.45 526.72,-1888.25 172.96,-1835.12"/>
<polygon fill="black" stroke="black" points="173.46,-1831.65 163.05,-1833.63 172.42,-1838.57 173.46,-1831.65"/>
</g>
<!-- u14 -->
<g id="node9" class="node">
<title>u14</title>
<ellipse fill="#ffffbb" stroke="black" cx="1577.29" cy="-1822" rx="136.48" ry="18"/>
<text text-anchor="middle" x="1577.29" y="-1818.3" font-family="Times,serif" font-size="14.00">Drasil.DocLang.References</text>
</g>
<!-- u29&#45;&gt;u14 -->
<g id="edge46" class="edge">
<title>u29&#45;&gt;u14</title>
<path fill="none" stroke="black" d="M2350.95,-2151.71C2217.29,-2094.92 1772.13,-1905.78 1624.97,-1843.26"/>
<polygon fill="black" stroke="black" points="1626.29,-1840.01 1615.71,-1839.33 1623.55,-1846.46 1626.29,-1840.01"/>
</g>
<!-- u22 -->
<g id="node12" class="node">
<title>u22</title>
<ellipse fill="#bbbbff" stroke="black" cx="2264.29" cy="-1822" rx="220.96" ry="18"/>
<text text-anchor="middle" x="2264.29" y="-1818.3" font-family="Times,serif" font-size="14.00">Drasil.DocumentLanguage.TraceabilityGraph</text>
</g>
<!-- u29&#45;&gt;u22 -->
<g id="edge48" class="edge">
<title>u29&#45;&gt;u22</title>
<path fill="none" stroke="black" d="M2383.09,-2150.89C2362.85,-2095.02 2298.58,-1917.64 2273.99,-1849.77"/>
<polygon fill="black" stroke="black" points="2277.23,-1848.42 2270.53,-1840.21 2270.64,-1850.81 2277.23,-1848.42"/>
</g>
<!-- u10 -->
<g id="node22" class="node">
<title>u10</title>
<ellipse fill="#ffbbff" stroke="black" cx="2513.29" cy="-1475" rx="161.37" ry="18"/>
<text text-anchor="middle" x="2513.29" y="-1471.3" font-family="Times,serif" font-size="14.00">Drasil.Sections.TableOfContents</text>
</g>
<!-- u29&#45;&gt;u10 -->
<g id="edge44" class="edge">
<title>u29&#45;&gt;u10</title>
<path fill="none" stroke="black" d="M2396.48,-2150.98C2416.31,-2103.08 2471.85,-1962.63 2494.29,-1840 2516.97,-1716.06 2515.87,-1564.72 2514.25,-1503.58"/>
<polygon fill="black" stroke="black" points="2517.74,-1503.13 2513.95,-1493.24 2510.75,-1503.34 2517.74,-1503.13"/>
</g>
<!-- u9 -->
<g id="node23" class="node">
<title>u9</title>
<ellipse fill="#ffbbff" stroke="black" cx="3092.29" cy="-1822" rx="163.27" ry="18"/>
<text text-anchor="middle" x="3092.29" y="-1818.3" font-family="Times,serif" font-size="14.00">Drasil.Sections.GeneralSystDesc</text>
</g>
<!-- u29&#45;&gt;u9 -->
<g id="edge43" class="edge">
<title>u29&#45;&gt;u9</title>
<path fill="none" stroke="black" d="M2423.2,-2151.36C2539.19,-2094.44 2920.08,-1907.51 3049.11,-1844.19"/>
<polygon fill="black" stroke="black" points="3050.88,-1847.22 3058.31,-1839.67 3047.79,-1840.94 3050.88,-1847.22"/>
</g>
<!-- u7 -->
<g id="node25" class="node">
<title>u7</title>
<ellipse fill="#ffbbff" stroke="black" cx="2739.29" cy="-1822" rx="144.87" ry="18"/>
<text text-anchor="middle" x="2739.29" y="-1818.3" font-family="Times,serif" font-size="14.00">Drasil.Sections.Stakeholders</text>
</g>
<!-- u29&#45;&gt;u7 -->
<g id="edge42" class="edge">
<title>u29&#45;&gt;u7</title>
<path fill="none" stroke="black" d="M2406.65,-2150.89C2464.03,-2094.33 2647.74,-1913.25 2714.63,-1847.31"/>
<polygon fill="black" stroke="black" points="2717.17,-1849.72 2721.83,-1840.21 2712.25,-1844.74 2717.17,-1849.72"/>
</g>
<!-- u6 -->
<g id="node26" class="node">
<title>u6</title>
<ellipse fill="#ffbbff" stroke="black" cx="3310.29" cy="-1475" rx="141.88" ry="18"/>
<text text-anchor="middle" x="3310.29" y="-1471.3" font-family="Times,serif" font-size="14.00">Drasil.Sections.Introduction</text>
</g>
<!-- u29&#45;&gt;u6 -->
<g id="edge41" class="edge">
<title>u29&#45;&gt;u6</title>
<path fill="none" stroke="black" d="M2508.97,-2160.83C2701.57,-2142.34 3077.54,-2076.24 3264.29,-1840 3344.55,-1738.47 3326.39,-1568.8 3315.47,-1503.12"/>
<polygon fill="black" stroke="black" points="3318.9,-1502.4 3313.74,-1493.15 3312,-1503.6 3318.9,-1502.4"/>
</g>
<!-- u28 -->
<g id="node3" class="node">
<title>u28</title>
<ellipse fill="#bbffbb" stroke="black" cx="3790.29" cy="-2516" rx="81.79" ry="18"/>
<text text-anchor="middle" x="3790.29" y="-2512.3" font-family="Times,serif" font-size="14.00">Drasil.DocLang</text>
</g>
<!-- u28&#45;&gt;u29 -->
<g id="edge40" class="edge">
<title>u28&#45;&gt;u29</title>
<path fill="none" stroke="black" d="M3737.93,-2502.11C3522.83,-2449.14 2707,-2248.24 2460.35,-2187.5"/>
<polygon fill="black" stroke="black" points="2460.97,-2184.05 2450.42,-2185.05 2459.29,-2190.84 2460.97,-2184.05"/>
</g>
<!-- u25 -->
<g id="node15" class="node">
<title>u25</title>
<ellipse fill="#ffbbbb" stroke="black" cx="3790.29" cy="-2169" rx="276.75" ry="18"/>
<text text-anchor="middle" x="3790.29" y="-2165.3" font-family="Times,serif" font-size="14.00">Drasil.DocumentLanguage.Notebook.DocumentLanguage</text>
</g>
<!-- u28&#45;&gt;u25 -->
<g id="edge39" class="edge">
<title>u28&#45;&gt;u25</title>
<path fill="none" stroke="black" d="M3790.29,-2497.89C3790.29,-2442.25 3790.29,-2266.09 3790.29,-2197.61"/>
<polygon fill="black" stroke="black" points="3793.79,-2197.21 3790.29,-2187.21 3786.79,-2197.21 3793.79,-2197.21"/>
</g>
<!-- u8 -->
<g id="node24" class="node">
<title>u8</title>
<ellipse fill="#ffbbff" stroke="black" cx="4255.29" cy="-2169" rx="170.07" ry="18"/>
<text text-anchor="middle" x="4255.29" y="-2165.3" font-family="Times,serif" font-size="14.00">Drasil.Sections.ReferenceMaterial</text>
</g>
<!-- u28&#45;&gt;u8 -->
<g id="edge38" class="edge">
<title>u28&#45;&gt;u8</title>
<path fill="none" stroke="black" d="M3812.41,-2498.59C3888.04,-2442.48 4136.54,-2258.11 4224.28,-2193.01"/>
<polygon fill="black" stroke="black" points="4226.55,-2195.68 4232.5,-2186.91 4222.38,-2190.06 4226.55,-2195.68"/>
</g>
<!-- u19&#45;&gt;u20 -->
<g id="edge28" class="edge">
<title>u19&#45;&gt;u20</title>
<path fill="none" stroke="black" d="M623.12,-1807.08C453.68,-1767.87 21.53,-1646.84 155.29,-1457 326.7,-1213.74 695.72,-1149.91 910.03,-1133.78"/>
<polygon fill="black" stroke="black" points="910.4,-1137.27 920.12,-1133.05 909.89,-1130.28 910.4,-1137.27"/>
</g>
<!-- u11 -->
<g id="node21" class="node">
<title>u11</title>
<ellipse fill="#ffbbff" stroke="black" cx="688.29" cy="-1475" rx="207.96" ry="18"/>
<text text-anchor="middle" x="688.29" y="-1471.3" font-family="Times,serif" font-size="14.00">Drasil.Sections.SpecificSystemDescription</text>
</g>
<!-- u19&#45;&gt;u11 -->
<g id="edge27" class="edge">
<title>u19&#45;&gt;u11</title>
<path fill="none" stroke="black" d="M688.29,-1803.89C688.29,-1748.25 688.29,-1572.09 688.29,-1503.61"/>
<polygon fill="black" stroke="black" points="691.79,-1503.21 688.29,-1493.21 684.79,-1503.21 691.79,-1503.21"/>
</g>
<!-- u13&#45;&gt;u20 -->
<g id="edge17" class="edge">
<title>u13&#45;&gt;u20</title>
<path fill="none" stroke="black" d="M87.59,-1803.9C73.18,-1747.48 35.44,-1564.72 118.29,-1457 306.97,-1211.69 689.57,-1148.73 908.91,-1133.28"/>
<polygon fill="black" stroke="black" points="909.17,-1136.77 918.91,-1132.6 908.69,-1129.79 909.17,-1136.77"/>
</g>
<!-- u0 -->
<g id="node6" class="node">
<title>u0</title>
<ellipse fill="#bbffbb" stroke="black" cx="3790.29" cy="-2863" rx="108.58" ry="18"/>
<text text-anchor="middle" x="3790.29" y="-2859.3" font-family="Times,serif" font-size="14.00">Drasil.SRSDocument</text>
</g>
<!-- u0&#45;&gt;u28 -->
<g id="edge1" class="edge">
<title>u0&#45;&gt;u28</title>
<path fill="none" stroke="black" d="M3790.29,-2844.89C3790.29,-2789.25 3790.29,-2613.09 3790.29,-2544.61"/>
<polygon fill="black" stroke="black" points="3793.79,-2544.21 3790.29,-2534.21 3786.79,-2544.21 3793.79,-2544.21"/>
</g>
<!-- u16 -->
<g id="node7" class="node">
<title>u16</title>
<ellipse fill="#ffffbb" stroke="black" cx="4148.29" cy="-1475" rx="129.18" ry="18"/>
<text text-anchor="middle" x="4148.29" y="-1471.3" font-family="Times,serif" font-size="14.00">Drasil.DocLang.Notebook</text>
</g>
<!-- u15 -->
<g id="node8" class="node">
<title>u15</title>
<ellipse fill="#ffffbb" stroke="black" cx="2942.29" cy="-1128" rx="104.78" ry="18"/>
<text text-anchor="middle" x="2942.29" y="-1124.3" font-family="Times,serif" font-size="14.00">Drasil.DocLang.SRS</text>
</g>
<!-- u12 -->
<g id="node20" class="node">
<title>u12</title>
<ellipse fill="#ffbbff" stroke="black" cx="1759.29" cy="-1475" rx="201.46" ry="18"/>
<text text-anchor="middle" x="1759.29" y="-1471.3" font-family="Times,serif" font-size="14.00">Drasil.Sections.TableOfAbbAndAcronyms</text>
</g>
<!-- u14&#45;&gt;u12 -->
<g id="edge24" class="edge">
<title>u14&#45;&gt;u12</title>
<path fill="none" stroke="black" d="M1586.32,-1803.89C1615.85,-1747.91 1709.75,-1569.91 1745.39,-1502.35"/>
<polygon fill="black" stroke="black" points="1748.64,-1503.69 1750.21,-1493.21 1742.45,-1500.42 1748.64,-1503.69"/>
</g>
<!-- u14&#45;&gt;u11 -->
<g id="edge23" class="edge">
<title>u14&#45;&gt;u11</title>
<path fill="none" stroke="black" d="M1535.61,-1804.82C1389.76,-1748.22 902.53,-1559.14 740.9,-1496.42"/>
<polygon fill="black" stroke="black" points="741.77,-1493 731.18,-1492.64 739.24,-1499.53 741.77,-1493"/>
</g>
<!-- u5 -->
<g id="node27" class="node">
<title>u5</title>
<ellipse fill="#ffbbff" stroke="black" cx="1073.29" cy="-1475" rx="159.47" ry="18"/>
<text text-anchor="middle" x="1073.29" y="-1471.3" font-family="Times,serif" font-size="14.00">Drasil.Sections.TableOfSymbols</text>
</g>
<!-- u14&#45;&gt;u5 -->
<g id="edge22" class="edge">
<title>u14&#45;&gt;u5</title>
<path fill="none" stroke="black" d="M1552.64,-1804.13C1469.66,-1747.32 1200.39,-1563 1106.19,-1498.52"/>
<polygon fill="black" stroke="black" points="1108.12,-1495.6 1097.89,-1492.84 1104.17,-1501.38 1108.12,-1495.6"/>
</g>
<!-- u4 -->
<g id="node28" class="node">
<title>u4</title>
<ellipse fill="#ffbbff" stroke="black" cx="2156.29" cy="-1475" rx="177.37" ry="18"/>
<text text-anchor="middle" x="2156.29" y="-1471.3" font-family="Times,serif" font-size="14.00">Drasil.Sections.TraceabilityMandGs</text>
</g>
<!-- u14&#45;&gt;u4 -->
<g id="edge21" class="edge">
<title>u14&#45;&gt;u4</title>
<path fill="none" stroke="black" d="M1605.22,-1804.36C1700.26,-1747.73 2011.23,-1562.44 2119.07,-1498.18"/>
<polygon fill="black" stroke="black" points="2121.17,-1501 2127.97,-1492.88 2117.59,-1494.99 2121.17,-1501"/>
</g>
<!-- u3 -->
<g id="node29" class="node">
<title>u3</title>
<ellipse fill="#ffbbff" stroke="black" cx="1395.29" cy="-1475" rx="144.87" ry="18"/>
<text text-anchor="middle" x="1395.29" y="-1471.3" font-family="Times,serif" font-size="14.00">Drasil.Sections.TableOfUnits</text>
</g>
<!-- u14&#45;&gt;u3 -->
<g id="edge20" class="edge">
<title>u14&#45;&gt;u3</title>
<path fill="none" stroke="black" d="M1568.27,-1803.89C1538.73,-1747.91 1444.83,-1569.91 1409.19,-1502.35"/>
<polygon fill="black" stroke="black" points="1412.13,-1500.42 1404.37,-1493.21 1405.94,-1503.69 1412.13,-1500.42"/>
</g>
<!-- u2 -->
<g id="node30" class="node">
<title>u2</title>
<ellipse fill="#ffbbff" stroke="black" cx="2864.29" cy="-1475" rx="172.47" ry="18"/>
<text text-anchor="middle" x="2864.29" y="-1471.3" font-family="Times,serif" font-size="14.00">Drasil.Sections.AuxiliaryConstants</text>
</g>
<!-- u14&#45;&gt;u2 -->
<g id="edge19" class="edge">
<title>u14&#45;&gt;u2</title>
<path fill="none" stroke="black" d="M1634.67,-1805.62C1844.12,-1749.47 2567.02,-1555.69 2794.91,-1494.6"/>
<polygon fill="black" stroke="black" points="2795.99,-1497.93 2804.74,-1491.96 2794.18,-1491.17 2795.99,-1497.93"/>
</g>
<!-- u14&#45;&gt;u1 -->
<g id="edge18" class="edge">
<title>u14&#45;&gt;u1</title>
<path fill="none" stroke="black" d="M1520.52,-1805.51C1314.01,-1749.14 603.21,-1555.13 380.54,-1494.36"/>
<polygon fill="black" stroke="black" points="381.19,-1490.91 370.62,-1491.65 379.35,-1497.66 381.19,-1490.91"/>
</g>
<!-- u27 -->
<g id="node10" class="node">
<title>u27</title>
<ellipse fill="#bbbbff" stroke="black" cx="1073.29" cy="-434" rx="187.37" ry="18"/>
<text text-anchor="middle" x="1073.29" y="-430.3" font-family="Times,serif" font-size="14.00">Drasil.DocumentLanguage.Definitions</text>
</g>
<!-- u26 -->
<g id="node11" class="node">
<title>u26</title>
<ellipse fill="#bbbbff" stroke="black" cx="1073.29" cy="-87" rx="162.47" ry="18"/>
<text text-anchor="middle" x="1073.29" y="-83.3" font-family="Times,serif" font-size="14.00">Drasil.DocumentLanguage.Units</text>
</g>
<!-- u27&#45;&gt;u26 -->
<g id="edge37" class="edge">
<title>u27&#45;&gt;u26</title>
<path fill="none" stroke="black" d="M1073.29,-415.89C1073.29,-360.25 1073.29,-184.09 1073.29,-115.61"/>
<polygon fill="black" stroke="black" points="1076.79,-115.21 1073.29,-105.21 1069.79,-115.21 1076.79,-115.21"/>
</g>
<!-- u22&#45;&gt;u15 -->
<g id="edge32" class="edge">
<title>u22&#45;&gt;u15</title>
<path fill="none" stroke="black" d="M2403.85,-1808.02C2587.05,-1782.65 2902.12,-1708.41 3045.29,-1493 3119.42,-1381.47 3010.11,-1216.67 2962.56,-1154.23"/>
<polygon fill="black" stroke="black" points="2965.17,-1151.88 2956.28,-1146.11 2959.63,-1156.16 2965.17,-1151.88"/>
</g>
<!-- u22&#45;&gt;u4 -->
<g id="edge31" class="edge">
<title>u22&#45;&gt;u4</title>
<path fill="none" stroke="black" d="M2258.94,-1803.89C2241.45,-1748.02 2185.92,-1570.64 2164.67,-1502.77"/>
<polygon fill="black" stroke="black" points="2168.01,-1501.71 2161.68,-1493.21 2161.33,-1503.8 2168.01,-1501.71"/>
</g>
<!-- u21 -->
<g id="node13" class="node">
<title>u21</title>
<ellipse fill="#bbbbff" stroke="black" cx="1073.29" cy="-781" rx="223.66" ry="18"/>
<text text-anchor="middle" x="1073.29" y="-777.3" font-family="Times,serif" font-size="14.00">Drasil.DocumentLanguage.TraceabilityMatrix</text>
</g>
<!-- u21&#45;&gt;u27 -->
<g id="edge30" class="edge">
<title>u21&#45;&gt;u27</title>
<path fill="none" stroke="black" d="M1073.29,-762.89C1073.29,-707.25 1073.29,-531.09 1073.29,-462.61"/>
<polygon fill="black" stroke="black" points="1076.79,-462.21 1073.29,-452.21 1069.79,-462.21 1076.79,-462.21"/>
</g>
<!-- u20&#45;&gt;u21 -->
<g id="edge29" class="edge">
<title>u20&#45;&gt;u21</title>
<path fill="none" stroke="black" d="M1073.29,-1109.89C1073.29,-1054.25 1073.29,-878.09 1073.29,-809.61"/>
<polygon fill="black" stroke="black" points="1076.79,-809.21 1073.29,-799.21 1069.79,-809.21 1076.79,-809.21"/>
</g>
<!-- u24 -->
<g id="node16" class="node">
<title>u24</title>
<ellipse fill="#ffbbbb" stroke="black" cx="3610.29" cy="-1822" rx="219.86" ry="18"/>
<text text-anchor="middle" x="3610.29" y="-1818.3" font-family="Times,serif" font-size="14.00">Drasil.DocumentLanguage.Notebook.NBDecl</text>
</g>
<!-- u25&#45;&gt;u24 -->
<g id="edge36" class="edge">
<title>u25&#45;&gt;u24</title>
<path fill="none" stroke="black" d="M3781.37,-2150.89C3752.16,-2094.91 3659.29,-1916.91 3624.04,-1849.35"/>
<polygon fill="black" stroke="black" points="3627,-1847.46 3619.27,-1840.21 3620.79,-1850.7 3627,-1847.46"/>
</g>
<!-- u18 -->
<g id="node18" class="node">
<title>u18</title>
<ellipse fill="#bbffff" stroke="black" cx="3970.29" cy="-1822" rx="122.38" ry="18"/>
<text text-anchor="middle" x="3970.29" y="-1818.3" font-family="Times,serif" font-size="14.00">Drasil.NBSections.Body</text>
</g>
<!-- u25&#45;&gt;u18 -->
<g id="edge35" class="edge">
<title>u25&#45;&gt;u18</title>
<path fill="none" stroke="black" d="M3799.22,-2150.89C3828.43,-2094.91 3921.3,-1916.91 3956.54,-1849.35"/>
<polygon fill="black" stroke="black" points="3959.79,-1850.7 3961.31,-1840.21 3953.58,-1847.46 3959.79,-1850.7"/>
</g>
<!-- u17 -->
<g id="node19" class="node">
<title>u17</title>
<ellipse fill="#bbffff" stroke="black" cx="4266.29" cy="-1822" rx="155.97" ry="18"/>
<text text-anchor="middle" x="4266.29" y="-1818.3" font-family="Times,serif" font-size="14.00">Drasil.NBSections.Introduction</text>
</g>
<!-- u25&#45;&gt;u17 -->
<g id="edge34" class="edge">
<title>u25&#45;&gt;u17</title>
<path fill="none" stroke="black" d="M3813.9,-2150.89C3892.51,-2093.92 4145.48,-1910.56 4234.75,-1845.86"/>
<polygon fill="black" stroke="black" points="4237.06,-1848.51 4243.11,-1839.81 4232.95,-1842.84 4237.06,-1848.51"/>
</g>
<!-- u23 -->
<g id="node17" class="node">
<title>u23</title>
<ellipse fill="#ffbbbb" stroke="black" cx="3676.29" cy="-1475" rx="206.06" ry="18"/>
<text text-anchor="middle" x="3676.29" y="-1471.3" font-family="Times,serif" font-size="14.00">Drasil.DocumentLanguage.Notebook.Core</text>
</g>
<!-- u24&#45;&gt;u23 -->
<g id="edge33" class="edge">
<title>u24&#45;&gt;u23</title>
<path fill="none" stroke="black" d="M3613.56,-1803.89C3624.23,-1748.14 3658.05,-1571.37 3671.09,-1503.19"/>
<polygon fill="black" stroke="black" points="3674.56,-1503.69 3673,-1493.21 3667.68,-1502.38 3674.56,-1503.69"/>
</g>
<!-- u18&#45;&gt;u16 -->
<g id="edge26" class="edge">
<title>u18&#45;&gt;u16</title>
<path fill="none" stroke="black" d="M3979.12,-1803.89C4008,-1747.91 4099.84,-1569.91 4134.7,-1502.35"/>
<polygon fill="black" stroke="black" points="4137.94,-1503.7 4139.41,-1493.21 4131.72,-1500.49 4137.94,-1503.7"/>
</g>
<!-- u17&#45;&gt;u16 -->
<g id="edge25" class="edge">
<title>u17&#45;&gt;u16</title>
<path fill="none" stroke="black" d="M4260.44,-1803.89C4241.33,-1748.02 4180.66,-1570.64 4157.45,-1502.77"/>
<polygon fill="black" stroke="black" points="4160.73,-1501.54 4154.18,-1493.21 4154.1,-1503.81 4160.73,-1501.54"/>
</g>
<!-- u11&#45;&gt;u15 -->
<g id="edge15" class="edge">
<title>u11&#45;&gt;u15</title>
<path fill="none" stroke="black" d="M785.87,-1459.07C1160.61,-1401.71 2504.07,-1196.07 2856.92,-1142.07"/>
<polygon fill="black" stroke="black" points="2857.46,-1145.53 2866.81,-1140.55 2856.4,-1138.61 2857.46,-1145.53"/>
</g>
<!-- u11&#45;&gt;u27 -->
<g id="edge16" class="edge">
<title>u11&#45;&gt;u27</title>
<path fill="none" stroke="black" d="M689.39,-1456.96C695.13,-1375.98 725.88,-1023.29 840.29,-763 895.5,-637.4 1003.15,-511.45 1050.27,-459.62"/>
<polygon fill="black" stroke="black" points="1052.86,-461.98 1057.04,-452.24 1047.7,-457.25 1052.86,-461.98"/>
</g>
<!-- u10&#45;&gt;u15 -->
<g id="edge13" class="edge">
<title>u10&#45;&gt;u15</title>
<path fill="none" stroke="black" d="M2534.27,-1457.13C2604.7,-1400.49 2832.72,-1217.11 2913.56,-1152.11"/>
<polygon fill="black" stroke="black" points="2915.75,-1154.84 2921.35,-1145.84 2911.36,-1149.38 2915.75,-1154.84"/>
</g>
<!-- u10&#45;&gt;u20 -->
<g id="edge14" class="edge">
<title>u10&#45;&gt;u20</title>
<path fill="none" stroke="black" d="M2448.62,-1458.51C2212.75,-1402 1399.43,-1207.14 1147.97,-1146.89"/>
<polygon fill="black" stroke="black" points="1148.74,-1143.48 1138.2,-1144.55 1147.1,-1150.28 1148.74,-1143.48"/>
</g>
<!-- u9&#45;&gt;u15 -->
<g id="edge12" class="edge">
<title>u9&#45;&gt;u15</title>
<path fill="none" stroke="black" d="M3097.05,-1803.98C3110.98,-1751.42 3148.71,-1587.29 3116.29,-1457 3085.7,-1334.05 2999.51,-1206.54 2961.13,-1153.95"/>
<polygon fill="black" stroke="black" points="2963.93,-1151.86 2955.18,-1145.88 2958.3,-1156.01 2963.93,-1151.86"/>
</g>
<!-- u7&#45;&gt;u15 -->
<g id="edge11" class="edge">
<title>u7&#45;&gt;u15</title>
<path fill="none" stroke="black" d="M2768.52,-1804.33C2838.26,-1762.62 3013.41,-1646.06 3078.29,-1493 3131.6,-1367.24 3015.51,-1212.71 2964.63,-1153.59"/>
<polygon fill="black" stroke="black" points="2967.12,-1151.12 2957.91,-1145.89 2961.85,-1155.73 2967.12,-1151.12"/>
</g>
<!-- u6&#45;&gt;u15 -->
<g id="edge9" class="edge">
<title>u6&#45;&gt;u15</title>
<path fill="none" stroke="black" d="M3292.29,-1457.13C3232.13,-1400.72 3037.86,-1218.59 2967.79,-1152.9"/>
<polygon fill="black" stroke="black" points="2969.94,-1150.13 2960.26,-1145.84 2965.16,-1155.23 2969.94,-1150.13"/>
</g>
<!-- u6&#45;&gt;u27 -->
<g id="edge10" class="edge">
<title>u6&#45;&gt;u27</title>
<path fill="none" stroke="black" d="M3303.02,-1456.64C3277.86,-1398.64 3188.7,-1209.58 3056.29,-1110 2453.81,-656.9 1526.85,-495 1195.91,-449.8"/>
<polygon fill="black" stroke="black" points="1196.2,-446.31 1185.82,-448.43 1195.26,-453.24 1196.2,-446.31"/>
</g>
<!-- u5&#45;&gt;u20 -->
<g id="edge8" class="edge">
<title>u5&#45;&gt;u20</title>
<path fill="none" stroke="black" d="M1073.29,-1456.89C1073.29,-1401.25 1073.29,-1225.09 1073.29,-1156.61"/>
<polygon fill="black" stroke="black" points="1076.79,-1156.21 1073.29,-1146.21 1069.79,-1156.21 1076.79,-1156.21"/>
</g>
<!-- u4&#45;&gt;u20 -->
<g id="edge7" class="edge">
<title>u4&#45;&gt;u20</title>
<path fill="none" stroke="black" d="M2105.15,-1457.71C1925.88,-1400.6 1326.43,-1209.64 1133.6,-1148.21"/>
<polygon fill="black" stroke="black" points="1134.5,-1144.83 1123.91,-1145.13 1132.38,-1151.5 1134.5,-1144.83"/>
</g>
<!-- u3&#45;&gt;u20 -->
<g id="edge6" class="edge">
<title>u3&#45;&gt;u20</title>
<path fill="none" stroke="black" d="M1379.32,-1456.89C1326.64,-1400.45 1158.21,-1219.98 1096.36,-1153.71"/>
<polygon fill="black" stroke="black" points="1098.74,-1151.13 1089.36,-1146.21 1093.62,-1155.91 1098.74,-1151.13"/>
</g>
<!-- u2&#45;&gt;u15 -->
<g id="edge4" class="edge">
<title>u2&#45;&gt;u15</title>
<path fill="none" stroke="black" d="M2868.16,-1456.89C2880.77,-1401.14 2920.73,-1224.37 2936.15,-1156.19"/>
<polygon fill="black" stroke="black" points="2939.61,-1156.74 2938.4,-1146.21 2932.78,-1155.19 2939.61,-1156.74"/>
</g>
<!-- u2&#45;&gt;u26 -->
<g id="edge5" class="edge">
<title>u2&#45;&gt;u26</title>
<path fill="none" stroke="black" d="M2842.29,-1456.98C2654.39,-1311.57 1320.95,-279.65 1103.3,-111.22"/>
<polygon fill="black" stroke="black" points="1105.23,-108.29 1095.18,-104.94 1100.94,-113.82 1105.23,-108.29"/>
</g>
<!-- u1&#45;&gt;u15 -->
<g id="edge2" class="edge">
<title>u1&#45;&gt;u15</title>
<path fill="none" stroke="black" d="M410.37,-1461.26C825.59,-1406.77 2449.29,-1193.7 2851.69,-1140.89"/>
<polygon fill="black" stroke="black" points="2852.36,-1144.33 2861.82,-1139.56 2851.45,-1137.39 2852.36,-1144.33"/>
</g>
<!-- u1&#45;&gt;u26 -->
<g id="edge3" class="edge">
<title>u1&#45;&gt;u26</title>
<path fill="none" stroke="black" d="M322.11,-1456.71C373.63,-1355.81 641.57,-833.29 877.29,-416 941.6,-302.16 1023.07,-169.19 1057.15,-114.02"/>
<polygon fill="black" stroke="black" points="1060.29,-115.59 1062.58,-105.25 1054.34,-111.91 1060.29,-115.59"/>
</g>
</g>
</svg>
