<?xml version="1.0" encoding="UTF-8" standalone="no"?>
<!DOCTYPE svg PUBLIC "-//W3C//DTD SVG 1.1//EN"
 "http://www.w3.org/Graphics/SVG/1.1/DTD/svg11.dtd">
<!-- Generated by graphviz version 2.43.0 (0)
 -->
<!-- Title: G Pages: 1 -->
<svg width="431pt" height="288pt"
 viewBox="0.00 0.00 431.03 288.00" xmlns="http://www.w3.org/2000/svg" xmlns:xlink="http://www.w3.org/1999/xlink">
<g id="graph0" class="graph" transform="scale(3.21 3.21) rotate(0) translate(4 920.67)">
<title>G</title>
<polygon fill="white" stroke="transparent" points="-4,4 -4,-920.67 1379.88,-920.67 1379.88,4 -4,4"/>
<!-- u0 -->
<g id="node1" class="node">
<title>u0</title>
<ellipse fill="#bbffbb" stroke="black" cx="438.74" cy="-866" rx="63.89" ry="18"/>
<text text-anchor="middle" x="438.74" y="-862.3" font-family="Times,serif" font-size="14.00">Utils.Drasil</text>
</g>
<!-- u10 -->
<g id="node2" class="node">
<title>u10</title>
<ellipse fill="#ffffbb" stroke="black" cx="321.74" cy="-662" rx="114.28" ry="18"/>
<text text-anchor="middle" x="321.74" y="-658.3" font-family="Times,serif" font-size="14.00">Utils.Drasil.Document</text>
</g>
<!-- u0&#45;&gt;u10 -->
<g id="edge4" class="edge">
<title>u0&#45;&gt;u10</title>
<path fill="none" stroke="black" d="M428.97,-848.13C408.49,-812.78 360.99,-730.75 336.67,-688.77"/>
<polygon fill="black" stroke="black" points="339.61,-686.87 331.57,-679.97 333.55,-690.38 339.61,-686.87"/>
</g>
<!-- u9 -->
<g id="node3" class="node">
<title>u9</title>
<ellipse fill="#ffffbb" stroke="black" cx="100.74" cy="-662" rx="89.08" ry="18"/>
<text text-anchor="middle" x="100.74" y="-658.3" font-family="Times,serif" font-size="14.00">Utils.Drasil.Lists</text>
</g>
<!-- u0&#45;&gt;u9 -->
<g id="edge3" class="edge">
<title>u0&#45;&gt;u9</title>
<path fill="none" stroke="black" d="M412.78,-849.48C353.01,-813.77 205.57,-725.65 136.95,-684.64"/>
<polygon fill="black" stroke="black" points="138.58,-681.54 128.2,-679.41 134.99,-687.54 138.58,-681.54"/>
</g>
<!-- u8 -->
<g id="node4" class="node">
<title>u8</title>
<ellipse fill="#ffffbb" stroke="black" cx="555.74" cy="-662" rx="102.08" ry="18"/>
<text text-anchor="middle" x="555.74" y="-658.3" font-family="Times,serif" font-size="14.00">Utils.Drasil.English</text>
</g>
<!-- u0&#45;&gt;u8 -->
<g id="edge2" class="edge">
<title>u0&#45;&gt;u8</title>
<path fill="none" stroke="black" d="M448.52,-848.13C468.99,-812.78 516.5,-730.75 540.81,-688.77"/>
<polygon fill="black" stroke="black" points="543.93,-690.38 545.91,-679.97 537.87,-686.87 543.93,-690.38"/>
</g>
<!-- u6 -->
<g id="node6" class="node">
<title>u6</title>
<ellipse fill="#ffffbb" stroke="black" cx="784.74" cy="-662" rx="108.58" ry="18"/>
<text text-anchor="middle" x="784.74" y="-658.3" font-family="Times,serif" font-size="14.00">Utils.Drasil.Contents</text>
</g>
<!-- u0&#45;&gt;u6 -->
<g id="edge1" class="edge">
<title>u0&#45;&gt;u6</title>
<path fill="none" stroke="black" d="M465.32,-849.48C526.5,-813.77 677.43,-725.65 747.67,-684.64"/>
<polygon fill="black" stroke="black" points="749.76,-687.47 756.63,-679.41 746.23,-681.43 749.76,-687.47"/>
</g>
<!-- u7 -->
<g id="node5" class="node">
<title>u7</title>
<ellipse fill="#ffffbb" stroke="black" cx="999.74" cy="-51" rx="109.68" ry="18"/>
<text text-anchor="middle" x="999.74" y="-47.3" font-family="Times,serif" font-size="14.00">Utils.Drasil.Sentence</text>
</g>
<!-- u1 -->
<g id="node11" class="node">
<title>u1</title>
<ellipse fill="#ffffbb" stroke="black" cx="784.74" cy="-458" rx="89.08" ry="18"/>
<text text-anchor="middle" x="784.74" y="-454.3" font-family="Times,serif" font-size="14.00">Utils.Drasil.Misc</text>
</g>
<!-- u6&#45;&gt;u1 -->
<g id="edge10" class="edge">
<title>u6&#45;&gt;u1</title>
<path fill="none" stroke="black" d="M784.74,-643.78C784.74,-608.67 784.74,-528.59 784.74,-486.31"/>
<polygon fill="black" stroke="black" points="788.24,-486.18 784.74,-476.18 781.24,-486.18 788.24,-486.18"/>
</g>
<!-- u5 -->
<g id="node7" class="node">
<title>u5</title>
<ellipse fill="#ffffbb" stroke="black" cx="999.74" cy="-255" rx="109.68" ry="18"/>
<text text-anchor="middle" x="999.74" y="-251.3" font-family="Times,serif" font-size="14.00">Utils.Drasil.Concepts</text>
</g>
<!-- u5&#45;&gt;u7 -->
<g id="edge9" class="edge">
<title>u5&#45;&gt;u7</title>
<path fill="none" stroke="black" d="M999.74,-236.78C999.74,-201.67 999.74,-121.59 999.74,-79.31"/>
<polygon fill="black" stroke="black" points="1003.24,-79.18 999.74,-69.18 996.24,-79.18 1003.24,-79.18"/>
</g>
<!-- u4 -->
<g id="node8" class="node">
<title>u4</title>
<ellipse fill="#ffffbb" stroke="black" cx="100.74" cy="-866" rx="100.98" ry="18"/>
<text text-anchor="middle" x="100.74" y="-862.3" font-family="Times,serif" font-size="14.00">Utils.Drasil.Strings</text>
</g>
<!-- u4&#45;&gt;u9 -->
<g id="edge8" class="edge">
<title>u4&#45;&gt;u9</title>
<path fill="none" stroke="black" d="M100.74,-847.78C100.74,-812.67 100.74,-732.59 100.74,-690.31"/>
<polygon fill="black" stroke="black" points="104.24,-690.18 100.74,-680.18 97.24,-690.18 104.24,-690.18"/>
</g>
<!-- u3 -->
<g id="node9" class="node">
<title>u3</title>
<ellipse fill="#ffffbb" stroke="black" cx="1251.74" cy="-255" rx="124.28" ry="18"/>
<text text-anchor="middle" x="1251.74" y="-251.3" font-family="Times,serif" font-size="14.00">Utils.Drasil.NounPhrase</text>
</g>
<!-- u3&#45;&gt;u7 -->
<g id="edge7" class="edge">
<title>u3&#45;&gt;u7</title>
<path fill="none" stroke="black" d="M1230.69,-237.13C1185.64,-201.02 1079.85,-116.21 1028.59,-75.12"/>
<polygon fill="black" stroke="black" points="1030.55,-72.21 1020.56,-68.68 1026.17,-77.67 1030.55,-72.21"/>
</g>
<!-- u2 -->
<g id="node10" class="node">
<title>u2</title>
<ellipse fill="#ffffbb" stroke="black" cx="784.74" cy="-255" rx="87.18" ry="18"/>
<text text-anchor="middle" x="784.74" y="-251.3" font-family="Times,serif" font-size="14.00">Utils.Drasil.Fold</text>
</g>
<!-- u2&#45;&gt;u7 -->
<g id="edge6" class="edge">
<title>u2&#45;&gt;u7</title>
<path fill="none" stroke="black" d="M802.7,-237.13C840.88,-201.26 930.2,-117.33 974.26,-75.94"/>
<polygon fill="black" stroke="black" points="976.79,-78.37 981.68,-68.97 972,-73.27 976.79,-78.37"/>
</g>
<!-- u1&#45;&gt;u2 -->
<g id="edge5" class="edge">
<title>u1&#45;&gt;u2</title>
<path fill="none" stroke="black" d="M784.74,-439.86C784.74,-404.93 784.74,-325.24 784.74,-283.17"/>
<polygon fill="black" stroke="black" points="788.24,-283.09 784.74,-273.09 781.24,-283.09 788.24,-283.09"/>
</g>
</g>
</svg>
