<?xml version="1.0" encoding="UTF-8" standalone="no"?>
<!DOCTYPE svg PUBLIC "-//W3C//DTD SVG 1.1//EN"
 "http://www.w3.org/Graphics/SVG/1.1/DTD/svg11.dtd">
<!-- Generated by graphviz version 2.43.0 (0)
 -->
<!-- Title: G Pages: 1 -->
<svg width="430pt" height="288pt"
 viewBox="0.00 0.00 429.56 288.00" xmlns="http://www.w3.org/2000/svg" xmlns:xlink="http://www.w3.org/1999/xlink">
<g id="graph0" class="graph" transform="scale(0.77 0.77) rotate(0) translate(4 370)">
<title>G</title>
<polygon fill="white" stroke="transparent" points="-4,4 -4,-370 553.83,-370 553.83,4 -4,4"/>
<!-- u0 -->
<g id="node1" class="node">
<title>u0</title>
<ellipse fill="#bbffbb" stroke="black" cx="292.14" cy="-346" rx="85.29" ry="18"/>
<text text-anchor="middle" x="292.14" y="-342.3" font-family="Times,serif" font-size="14.00">Drasil.Database</text>
</g>
<!-- u3 -->
<g id="node4" class="node">
<title>u3</title>
<ellipse fill="#ffffbb" stroke="black" cx="150.14" cy="-264" rx="150.27" ry="18"/>
<text text-anchor="middle" x="150.14" y="-260.3" font-family="Times,serif" font-size="14.00">Drasil.Database.TypedUIDRef</text>
</g>
<!-- u0&#45;&gt;u3 -->
<g id="edge2" class="edge">
<title>u0&#45;&gt;u3</title>
<path fill="none" stroke="black" d="M263.74,-329C242.21,-316.87 212.39,-300.07 188.7,-286.73"/>
<polygon fill="black" stroke="black" points="190.38,-283.66 179.95,-281.8 186.95,-289.75 190.38,-283.66"/>
</g>
<!-- u1 -->
<g id="node6" class="node">
<title>u1</title>
<ellipse fill="#ffffbb" stroke="black" cx="434.14" cy="-264" rx="115.88" ry="18"/>
<text text-anchor="middle" x="434.14" y="-260.3" font-family="Times,serif" font-size="14.00">Drasil.Database.Dump</text>
</g>
<!-- u0&#45;&gt;u1 -->
<g id="edge1" class="edge">
<title>u0&#45;&gt;u1</title>
<path fill="none" stroke="black" d="M320.53,-329C342.2,-316.79 372.28,-299.85 396.05,-286.46"/>
<polygon fill="black" stroke="black" points="397.82,-289.48 404.82,-281.52 394.38,-283.38 397.82,-289.48"/>
</g>
<!-- u5 -->
<g id="node2" class="node">
<title>u5</title>
<ellipse fill="#ffffbb" stroke="black" cx="292.14" cy="-102" rx="117.78" ry="18"/>
<text text-anchor="middle" x="292.14" y="-98.3" font-family="Times,serif" font-size="14.00">Drasil.Database.Chunk</text>
</g>
<!-- u4 -->
<g id="node3" class="node">
<title>u4</title>
<ellipse fill="#ffffbb" stroke="black" cx="292.14" cy="-20" rx="106.68" ry="18"/>
<text text-anchor="middle" x="292.14" y="-16.3" font-family="Times,serif" font-size="14.00">Drasil.Database.UID</text>
</g>
<!-- u5&#45;&gt;u4 -->
<g id="edge6" class="edge">
<title>u5&#45;&gt;u4</title>
<path fill="none" stroke="black" d="M292.14,-83.64C292.14,-73.3 292.14,-59.94 292.14,-48.22"/>
<polygon fill="black" stroke="black" points="295.64,-48.05 292.14,-38.05 288.64,-48.05 295.64,-48.05"/>
</g>
<!-- u2 -->
<g id="node5" class="node">
<title>u2</title>
<ellipse fill="#ffffbb" stroke="black" cx="292.14" cy="-183" rx="131.88" ry="18"/>
<text text-anchor="middle" x="292.14" y="-179.3" font-family="Times,serif" font-size="14.00">Drasil.Database.ChunkDB</text>
</g>
<!-- u3&#45;&gt;u2 -->
<g id="edge5" class="edge">
<title>u3&#45;&gt;u2</title>
<path fill="none" stroke="black" d="M180.25,-246.25C201.53,-234.41 230.23,-218.44 253.24,-205.64"/>
<polygon fill="black" stroke="black" points="255.03,-208.65 262.07,-200.73 251.63,-202.53 255.03,-208.65"/>
</g>
<!-- u2&#45;&gt;u5 -->
<g id="edge4" class="edge">
<title>u2&#45;&gt;u5</title>
<path fill="none" stroke="black" d="M292.14,-164.86C292.14,-154.71 292.14,-141.63 292.14,-130.12"/>
<polygon fill="black" stroke="black" points="295.64,-130.11 292.14,-120.11 288.64,-130.11 295.64,-130.11"/>
</g>
<!-- u1&#45;&gt;u2 -->
<g id="edge3" class="edge">
<title>u1&#45;&gt;u2</title>
<path fill="none" stroke="black" d="M404.37,-246.44C382.97,-234.54 353.93,-218.38 330.75,-205.48"/>
<polygon fill="black" stroke="black" points="332.31,-202.34 321.87,-200.54 328.9,-208.46 332.31,-202.34"/>
</g>
</g>
</svg>
