<?xml version="1.0" encoding="UTF-8" standalone="no"?>
<!DOCTYPE svg PUBLIC "-//W3C//DTD SVG 1.1//EN"
 "http://www.w3.org/Graphics/SVG/1.1/DTD/svg11.dtd">
<!-- Generated by graphviz version 2.43.0 (0)
 -->
<!-- Title: G Pages: 1 -->
<svg width="432pt" height="287pt"
 viewBox="0.00 0.00 432.00 286.95" xmlns="http://www.w3.org/2000/svg" xmlns:xlink="http://www.w3.org/1999/xlink">
<g id="graph0" class="graph" transform="scale(0.06 0.06) rotate(0) translate(4 4506)">
<title>G</title>
<polygon fill="white" stroke="transparent" points="-4,4 -4,-4506 6785.79,-4506 6785.79,4 -4,4"/>
<!-- u58 -->
<g id="node1" class="node">
<title>u58</title>
<ellipse fill="#bbffbb" stroke="black" cx="545.79" cy="-4139" rx="76.09" ry="18"/>
<text text-anchor="middle" x="545.79" y="-4135.3" font-family="Times,serif" font-size="14.00">NameGenTest</text>
</g>
<!-- u57 -->
<g id="node2" class="node">
<title>u57</title>
<ellipse fill="#bbffbb" stroke="black" cx="701.79" cy="-4139" rx="62.29" ry="18"/>
<text text-anchor="middle" x="701.79" y="-4135.3" font-family="Times,serif" font-size="14.00">HelloWorld</text>
</g>
<!-- u54 -->
<g id="node4" class="node">
<title>u54</title>
<ellipse fill="#bbffbb" stroke="black" cx="600.79" cy="-3848" rx="42.49" ry="18"/>
<text text-anchor="middle" x="600.79" y="-3844.3" font-family="Times,serif" font-size="14.00">Helper</text>
</g>
<!-- u57&#45;&gt;u54 -->
<g id="edge96" class="edge">
<title>u57&#45;&gt;u54</title>
<path fill="none" stroke="black" d="M695.78,-4120.79C678.83,-4072.3 630.61,-3934.3 610.15,-3875.77"/>
<polygon fill="black" stroke="black" points="613.38,-3874.41 606.78,-3866.12 606.77,-3876.72 613.38,-3874.41"/>
</g>
<!-- u56 -->
<g id="node3" class="node">
<title>u56</title>
<ellipse fill="#bbffbb" stroke="black" cx="59.79" cy="-4139" rx="59.59" ry="18"/>
<text text-anchor="middle" x="59.79" y="-4135.3" font-family="Times,serif" font-size="14.00">VectorTest</text>
</g>
<!-- u53 -->
<g id="node5" class="node">
<title>u53</title>
<ellipse fill="#bbffbb" stroke="black" cx="189.79" cy="-4139" rx="52.79" ry="18"/>
<text text-anchor="middle" x="189.79" y="-4135.3" font-family="Times,serif" font-size="14.00">FileTests</text>
</g>
<!-- u0 -->
<g id="node6" class="node">
<title>u0</title>
<ellipse fill="#ffffbb" stroke="black" cx="2511.79" cy="-4429" rx="214.46" ry="18"/>
<text text-anchor="middle" x="2511.79" y="-4425.3" font-family="Times,serif" font-size="14.00">Data.Drasil.ExternalLibraries.ODELibraries</text>
</g>
<!-- u7 -->
<g id="node12" class="node">
<title>u7</title>
<ellipse fill="#ffbbbb" stroke="black" cx="2511.79" cy="-4139" rx="113.18" ry="18"/>
<text text-anchor="middle" x="2511.79" y="-4135.3" font-family="Times,serif" font-size="14.00">Language.Drasil.Code</text>
</g>
<!-- u0&#45;&gt;u7 -->
<g id="edge1" class="edge">
<title>u0&#45;&gt;u7</title>
<path fill="none" stroke="black" d="M2511.79,-4410.85C2511.79,-4362.72 2511.79,-4226.14 2511.79,-4167.41"/>
<polygon fill="black" stroke="black" points="2515.29,-4167.06 2511.79,-4157.06 2508.29,-4167.06 2515.29,-4167.06"/>
</g>
<!-- u60 -->
<g id="node7" class="node">
<title>u60</title>
<ellipse fill="#bbbbff" stroke="black" cx="355.79" cy="-3848" rx="84.49" ry="18"/>
<text text-anchor="middle" x="355.79" y="-3844.3" font-family="Times,serif" font-size="14.00">GOOL.Observer</text>
</g>
<!-- u59 -->
<g id="node8" class="node">
<title>u59</title>
<ellipse fill="#bbbbff" stroke="black" cx="355.79" cy="-4139" rx="95.58" ry="18"/>
<text text-anchor="middle" x="355.79" y="-4135.3" font-family="Times,serif" font-size="14.00">GOOL.PatternTest</text>
</g>
<!-- u59&#45;&gt;u60 -->
<g id="edge97" class="edge">
<title>u59&#45;&gt;u60</title>
<path fill="none" stroke="black" d="M355.79,-4120.79C355.79,-4072.4 355.79,-3934.87 355.79,-3876.13"/>
<polygon fill="black" stroke="black" points="359.29,-3876.12 355.79,-3866.12 352.29,-3876.12 359.29,-3876.12"/>
</g>
<!-- u52 -->
<g id="node9" class="node">
<title>u52</title>
<ellipse fill="#ffbbbb" stroke="black" cx="4651.79" cy="-1815" rx="126.18" ry="18"/>
<text text-anchor="middle" x="4651.79" y="-1811.3" font-family="Times,serif" font-size="14.00">Language.Drasil.Choices</text>
</g>
<!-- u46 -->
<g id="node23" class="node">
<title>u46</title>
<ellipse fill="#ffbbff" stroke="black" cx="4136.79" cy="-1525" rx="139.98" ry="18"/>
<text text-anchor="middle" x="4136.79" y="-1521.3" font-family="Times,serif" font-size="14.00">Language.Drasil.Code.Code</text>
</g>
<!-- u52&#45;&gt;u46 -->
<g id="edge89" class="edge">
<title>u52&#45;&gt;u46</title>
<path fill="none" stroke="black" d="M4622.26,-1797.48C4534.27,-1748.28 4273.96,-1602.7 4175.29,-1547.53"/>
<polygon fill="black" stroke="black" points="4176.97,-1544.46 4166.53,-1542.63 4173.55,-1550.57 4176.97,-1544.46"/>
</g>
<!-- u8 -->
<g id="node60" class="node">
<title>u8</title>
<ellipse fill="#bbff77" stroke="black" cx="4635.79" cy="-1525" rx="172.77" ry="18"/>
<text text-anchor="middle" x="4635.79" y="-1521.3" font-family="Times,serif" font-size="14.00">Language.Drasil.Data.ODELibPckg</text>
</g>
<!-- u52&#45;&gt;u8 -->
<g id="edge88" class="edge">
<title>u52&#45;&gt;u8</title>
<path fill="none" stroke="black" d="M4650.84,-1796.85C4648.17,-1748.72 4640.58,-1612.14 4637.32,-1553.41"/>
<polygon fill="black" stroke="black" points="4640.79,-1552.85 4636.74,-1543.06 4633.8,-1553.24 4640.79,-1552.85"/>
</g>
<!-- u51 -->
<g id="node10" class="node">
<title>u51</title>
<ellipse fill="#ffbbbb" stroke="black" cx="5229.79" cy="-2106" rx="135.68" ry="18"/>
<text text-anchor="middle" x="5229.79" y="-2102.3" font-family="Times,serif" font-size="14.00">Language.Drasil.CodeSpec</text>
</g>
<!-- u51&#45;&gt;u52 -->
<g id="edge87" class="edge">
<title>u51&#45;&gt;u52</title>
<path fill="none" stroke="black" d="M5196.64,-2088.42C5097.58,-2038.89 4803.87,-1892.04 4693.95,-1837.08"/>
<polygon fill="black" stroke="black" points="4695.32,-1833.85 4684.81,-1832.51 4692.19,-1840.11 4695.32,-1833.85"/>
</g>
<!-- u4 -->
<g id="node15" class="node">
<title>u4</title>
<ellipse fill="#bbffff" stroke="black" cx="5649.79" cy="-1815" rx="191.17" ry="18"/>
<text text-anchor="middle" x="5649.79" y="-1811.3" font-family="Times,serif" font-size="14.00">Language.Drasil.Chunk.CodeDefinition</text>
</g>
<!-- u51&#45;&gt;u4 -->
<g id="edge86" class="edge">
<title>u51&#45;&gt;u4</title>
<path fill="none" stroke="black" d="M5254.19,-2088.21C5325.73,-2038.99 5535.05,-1894.96 5616.67,-1838.8"/>
<polygon fill="black" stroke="black" points="5618.81,-1841.57 5625.07,-1833.01 5614.85,-1835.8 5618.81,-1841.57"/>
</g>
<!-- u1 -->
<g id="node18" class="node">
<title>u1</title>
<ellipse fill="#bbffff" stroke="black" cx="5210.79" cy="-1815" rx="192.27" ry="18"/>
<text text-anchor="middle" x="5210.79" y="-1811.3" font-family="Times,serif" font-size="14.00">Language.Drasil.Chunk.ConstraintMap</text>
</g>
<!-- u51&#45;&gt;u1 -->
<g id="edge85" class="edge">
<title>u51&#45;&gt;u1</title>
<path fill="none" stroke="black" d="M5228.66,-2087.79C5225.48,-2039.4 5216.44,-1901.87 5212.58,-1843.13"/>
<polygon fill="black" stroke="black" points="5216.07,-1842.87 5211.92,-1833.12 5209.08,-1843.33 5216.07,-1842.87"/>
</g>
<!-- u10 -->
<g id="node11" class="node">
<title>u10</title>
<ellipse fill="#ffbbbb" stroke="black" cx="4589.79" cy="-944" rx="110.48" ry="18"/>
<text text-anchor="middle" x="4589.79" y="-940.3" font-family="Times,serif" font-size="14.00">Language.Drasil.Mod</text>
</g>
<!-- u2 -->
<g id="node17" class="node">
<title>u2</title>
<ellipse fill="#bbffff" stroke="black" cx="4589.79" cy="-654" rx="170.87" ry="18"/>
<text text-anchor="middle" x="4589.79" y="-650.3" font-family="Times,serif" font-size="14.00">Language.Drasil.Chunk.Parameter</text>
</g>
<!-- u10&#45;&gt;u2 -->
<g id="edge18" class="edge">
<title>u10&#45;&gt;u2</title>
<path fill="none" stroke="black" d="M4589.79,-925.85C4589.79,-877.72 4589.79,-741.14 4589.79,-682.41"/>
<polygon fill="black" stroke="black" points="4593.29,-682.06 4589.79,-672.06 4586.29,-682.06 4593.29,-682.06"/>
</g>
<!-- u50 -->
<g id="node19" class="node">
<title>u50</title>
<ellipse fill="#ffbbff" stroke="black" cx="3990.79" cy="-654" rx="160.57" ry="18"/>
<text text-anchor="middle" x="3990.79" y="-650.3" font-family="Times,serif" font-size="14.00">Language.Drasil.Code.DataDesc</text>
</g>
<!-- u10&#45;&gt;u50 -->
<g id="edge19" class="edge">
<title>u10&#45;&gt;u50</title>
<path fill="none" stroke="black" d="M4555.87,-926.69C4453.69,-877.56 4148.83,-730.98 4034.63,-676.08"/>
<polygon fill="black" stroke="black" points="4035.99,-672.85 4025.46,-671.67 4032.96,-679.15 4035.99,-672.85"/>
</g>
<!-- u16 -->
<g id="node41" class="node">
<title>u16</title>
<ellipse fill="#77ff77" stroke="black" cx="1839.79" cy="-2396" rx="217.96" ry="18"/>
<text text-anchor="middle" x="1839.79" y="-2392.3" font-family="Times,serif" font-size="14.00">Language.Drasil.Code.Imperative.ReadInput</text>
</g>
<!-- u7&#45;&gt;u16 -->
<g id="edge6" class="edge">
<title>u7&#45;&gt;u16</title>
<path fill="none" stroke="black" d="M2417.01,-4129.16C2040.48,-4091.46 670.79,-3928.92 670.79,-3559 670.79,-3559 670.79,-3559 670.79,-2976 670.79,-2545.33 1315.78,-2435 1647.57,-2406.74"/>
<polygon fill="black" stroke="black" points="1648.11,-2410.2 1657.78,-2405.88 1647.52,-2403.23 1648.11,-2410.2"/>
</g>
<!-- u15 -->
<g id="node42" class="node">
<title>u15</title>
<ellipse fill="#77ff77" stroke="black" cx="5549.79" cy="-3848" rx="217.16" ry="18"/>
<text text-anchor="middle" x="5549.79" y="-3844.3" font-family="Times,serif" font-size="14.00">Language.Drasil.Code.Imperative.Generator</text>
</g>
<!-- u7&#45;&gt;u15 -->
<g id="edge5" class="edge">
<title>u7&#45;&gt;u15</title>
<path fill="none" stroke="black" d="M2606.05,-4129.03C3042.55,-4087.51 4869.03,-3913.76 5402.75,-3862.99"/>
<polygon fill="black" stroke="black" points="5403.19,-3866.46 5412.81,-3862.03 5402.53,-3859.49 5403.19,-3866.46"/>
</g>
<!-- u41 -->
<g id="node50" class="node">
<title>u41</title>
<ellipse fill="#77ffff" stroke="black" cx="4749.79" cy="-3558" rx="352.84" ry="18"/>
<text text-anchor="middle" x="4749.79" y="-3554.3" font-family="Times,serif" font-size="14.00">Language.Drasil.Code.Imperative.GOOL.LanguageRenderer.CppRenderer</text>
</g>
<!-- u7&#45;&gt;u41 -->
<g id="edge12" class="edge">
<title>u7&#45;&gt;u41</title>
<path fill="none" stroke="black" d="M2568.24,-4123.4C2873.75,-4044.36 4328.52,-3667.99 4675.41,-3578.25"/>
<polygon fill="black" stroke="black" points="4676.3,-3581.63 4685.1,-3575.74 4674.54,-3574.85 4676.3,-3581.63"/>
</g>
<!-- u40 -->
<g id="node51" class="node">
<title>u40</title>
<ellipse fill="#77ffff" stroke="black" cx="1053.79" cy="-3558" rx="354.74" ry="18"/>
<text text-anchor="middle" x="1053.79" y="-3554.3" font-family="Times,serif" font-size="14.00">Language.Drasil.Code.Imperative.GOOL.LanguageRenderer.JuliaRenderer</text>
</g>
<!-- u7&#45;&gt;u40 -->
<g id="edge11" class="edge">
<title>u7&#45;&gt;u40</title>
<path fill="none" stroke="black" d="M2471.66,-4122.06C2266.71,-4040.67 1337.6,-3671.7 1106.14,-3579.79"/>
<polygon fill="black" stroke="black" points="1107.19,-3576.44 1096.6,-3576 1104.61,-3582.94 1107.19,-3576.44"/>
</g>
<!-- u39 -->
<g id="node52" class="node">
<title>u39</title>
<ellipse fill="#77ffff" stroke="black" cx="1780.79" cy="-3558" rx="354.44" ry="18"/>
<text text-anchor="middle" x="1780.79" y="-3554.3" font-family="Times,serif" font-size="14.00">Language.Drasil.Code.Imperative.GOOL.LanguageRenderer.JavaRenderer</text>
</g>
<!-- u7&#45;&gt;u39 -->
<g id="edge10" class="edge">
<title>u7&#45;&gt;u39</title>
<path fill="none" stroke="black" d="M2490.71,-4121.3C2387.03,-4039.18 1931.56,-3678.41 1810.45,-3582.49"/>
<polygon fill="black" stroke="black" points="1812.33,-3579.52 1802.32,-3576.05 1807.99,-3585 1812.33,-3579.52"/>
</g>
<!-- u38 -->
<g id="node53" class="node">
<title>u38</title>
<ellipse fill="#77ffff" stroke="black" cx="2511.79" cy="-3558" rx="358.54" ry="18"/>
<text text-anchor="middle" x="2511.79" y="-3554.3" font-family="Times,serif" font-size="14.00">Language.Drasil.Code.Imperative.GOOL.LanguageRenderer.SwiftRenderer</text>
</g>
<!-- u7&#45;&gt;u38 -->
<g id="edge9" class="edge">
<title>u7&#45;&gt;u38</title>
<path fill="none" stroke="black" d="M2511.79,-4120.99C2511.79,-4039.34 2511.79,-3687.49 2511.79,-3586.31"/>
<polygon fill="black" stroke="black" points="2515.29,-3586.02 2511.79,-3576.02 2508.29,-3586.02 2515.29,-3586.02"/>
</g>
<!-- u37 -->
<g id="node54" class="node">
<title>u37</title>
<ellipse fill="#77ffff" stroke="black" cx="3255.79" cy="-3558" rx="367.43" ry="18"/>
<text text-anchor="middle" x="3255.79" y="-3554.3" font-family="Times,serif" font-size="14.00">Language.Drasil.Code.Imperative.GOOL.LanguageRenderer.PythonRenderer</text>
</g>
<!-- u7&#45;&gt;u37 -->
<g id="edge8" class="edge">
<title>u7&#45;&gt;u37</title>
<path fill="none" stroke="black" d="M2533.26,-4121.3C2638.88,-4039.1 3103.28,-3677.69 3225.98,-3582.21"/>
<polygon fill="black" stroke="black" points="3228.14,-3584.96 3233.88,-3576.05 3223.84,-3579.43 3228.14,-3584.96"/>
</g>
<!-- u35 -->
<g id="node56" class="node">
<title>u35</title>
<ellipse fill="#77ffff" stroke="black" cx="4009.79" cy="-3558" rx="369.33" ry="18"/>
<text text-anchor="middle" x="4009.79" y="-3554.3" font-family="Times,serif" font-size="14.00">Language.Drasil.Code.Imperative.GOOL.LanguageRenderer.CSharpRenderer</text>
</g>
<!-- u7&#45;&gt;u35 -->
<g id="edge7" class="edge">
<title>u7&#45;&gt;u35</title>
<path fill="none" stroke="black" d="M2552.64,-4122.21C2762.62,-4041.05 3719.91,-3671.05 3956.7,-3579.52"/>
<polygon fill="black" stroke="black" points="3958.06,-3582.75 3966.13,-3575.88 3955.54,-3576.22 3958.06,-3582.75"/>
</g>
<!-- u6 -->
<g id="node13" class="node">
<title>u6</title>
<ellipse fill="#bbffff" stroke="black" cx="4589.79" cy="-73" rx="168.17" ry="18"/>
<text text-anchor="middle" x="4589.79" y="-69.3" font-family="Times,serif" font-size="14.00">Language.Drasil.Chunk.CodeBase</text>
</g>
<!-- u5 -->
<g id="node14" class="node">
<title>u5</title>
<ellipse fill="#bbffff" stroke="black" cx="4962.79" cy="-944" rx="202.26" ry="18"/>
<text text-anchor="middle" x="4962.79" y="-940.3" font-family="Times,serif" font-size="14.00">Language.Drasil.Chunk.NamedArgument</text>
</g>
<!-- u9 -->
<g id="node59" class="node">
<title>u9</title>
<ellipse fill="#bbff77" stroke="black" cx="5367.79" cy="-1234" rx="154.07" ry="18"/>
<text text-anchor="middle" x="5367.79" y="-1230.3" font-family="Times,serif" font-size="14.00">Language.Drasil.Data.ODEInfo</text>
</g>
<!-- u4&#45;&gt;u9 -->
<g id="edge4" class="edge">
<title>u4&#45;&gt;u9</title>
<path fill="none" stroke="black" d="M5641.51,-1796.99C5601.58,-1715 5428.98,-1360.63 5380.5,-1261.09"/>
<polygon fill="black" stroke="black" points="5383.61,-1259.47 5376.08,-1252.02 5377.31,-1262.54 5383.61,-1259.47"/>
</g>
<!-- u3 -->
<g id="node16" class="node">
<title>u3</title>
<ellipse fill="#bbffff" stroke="black" cx="4589.79" cy="-363" rx="145.67" ry="18"/>
<text text-anchor="middle" x="4589.79" y="-359.3" font-family="Times,serif" font-size="14.00">Language.Drasil.Chunk.Code</text>
</g>
<!-- u3&#45;&gt;u6 -->
<g id="edge3" class="edge">
<title>u3&#45;&gt;u6</title>
<path fill="none" stroke="black" d="M4589.79,-344.85C4589.79,-296.72 4589.79,-160.14 4589.79,-101.41"/>
<polygon fill="black" stroke="black" points="4593.29,-101.06 4589.79,-91.06 4586.29,-101.06 4593.29,-101.06"/>
</g>
<!-- u2&#45;&gt;u3 -->
<g id="edge2" class="edge">
<title>u2&#45;&gt;u3</title>
<path fill="none" stroke="black" d="M4589.79,-635.79C4589.79,-587.4 4589.79,-449.87 4589.79,-391.13"/>
<polygon fill="black" stroke="black" points="4593.29,-391.12 4589.79,-381.12 4586.29,-391.12 4593.29,-391.12"/>
</g>
<!-- u50&#45;&gt;u3 -->
<g id="edge84" class="edge">
<title>u50&#45;&gt;u3</title>
<path fill="none" stroke="black" d="M4025.59,-636.21C4128.68,-586.47 4432.42,-439.93 4546.15,-385.06"/>
<polygon fill="black" stroke="black" points="4547.79,-388.15 4555.28,-380.65 4544.75,-381.85 4547.79,-388.15"/>
</g>
<!-- u49 -->
<g id="node20" class="node">
<title>u49</title>
<ellipse fill="#ffbbff" stroke="black" cx="5311.79" cy="-3558" rx="191.17" ry="18"/>
<text text-anchor="middle" x="5311.79" y="-3554.3" font-family="Times,serif" font-size="14.00">Language.Drasil.Code.CodeGeneration</text>
</g>
<!-- u49&#45;&gt;u46 -->
<g id="edge83" class="edge">
<title>u49&#45;&gt;u46</title>
<path fill="none" stroke="black" d="M5190.53,-3544.07C4927.15,-3509 4302.76,-3386.64 4006.79,-2995 3761.84,-2670.86 3810.17,-2485.79 3892.79,-2088 3938.42,-1868.33 4074.5,-1629.13 4121.01,-1551.7"/>
<polygon fill="black" stroke="black" points="4124.05,-1553.44 4126.22,-1543.07 4118.06,-1549.82 4124.05,-1553.44"/>
</g>
<!-- u42 -->
<g id="node47" class="node">
<title>u42</title>
<ellipse fill="#ff7777" stroke="black" cx="3889.79" cy="-3268" rx="222.06" ry="18"/>
<text text-anchor="middle" x="3889.79" y="-3264.3" font-family="Times,serif" font-size="14.00">Language.Drasil.Code.Imperative.GOOL.Data</text>
</g>
<!-- u49&#45;&gt;u42 -->
<g id="edge82" class="edge">
<title>u49&#45;&gt;u42</title>
<path fill="none" stroke="black" d="M5235.09,-3541.46C4991.72,-3492.18 4237.75,-3339.47 3978.45,-3286.96"/>
<polygon fill="black" stroke="black" points="3978.82,-3283.46 3968.33,-3284.91 3977.43,-3290.32 3978.82,-3283.46"/>
</g>
<!-- u48 -->
<g id="node21" class="node">
<title>u48</title>
<ellipse fill="#ffbbff" stroke="black" cx="5005.79" cy="-1525" rx="178.97" ry="18"/>
<text text-anchor="middle" x="5005.79" y="-1521.3" font-family="Times,serif" font-size="14.00">Language.Drasil.Code.ExtLibImport</text>
</g>
<!-- u12 -->
<g id="node25" class="node">
<title>u12</title>
<ellipse fill="#ffbbff" stroke="black" cx="4589.79" cy="-1234" rx="207.96" ry="18"/>
<text text-anchor="middle" x="4589.79" y="-1230.3" font-family="Times,serif" font-size="14.00">Language.Drasil.Code.ExternalLibraryCall</text>
</g>
<!-- u48&#45;&gt;u12 -->
<g id="edge81" class="edge">
<title>u48&#45;&gt;u12</title>
<path fill="none" stroke="black" d="M4981.33,-1507C4910.16,-1457.56 4703.21,-1313.79 4622.54,-1257.75"/>
<polygon fill="black" stroke="black" points="4624.44,-1254.81 4614.23,-1251.98 4620.45,-1260.56 4624.44,-1254.81"/>
</g>
<!-- u11 -->
<g id="node26" class="node">
<title>u11</title>
<ellipse fill="#ffbbff" stroke="black" cx="5005.79" cy="-1234" rx="190.37" ry="18"/>
<text text-anchor="middle" x="5005.79" y="-1230.3" font-family="Times,serif" font-size="14.00">Language.Drasil.Code.ExternalLibrary</text>
</g>
<!-- u48&#45;&gt;u11 -->
<g id="edge80" class="edge">
<title>u48&#45;&gt;u11</title>
<path fill="none" stroke="black" d="M5005.79,-1506.79C5005.79,-1458.4 5005.79,-1320.87 5005.79,-1262.13"/>
<polygon fill="black" stroke="black" points="5009.29,-1262.12 5005.79,-1252.12 5002.29,-1262.12 5009.29,-1262.12"/>
</g>
<!-- u47 -->
<g id="node22" class="node">
<title>u47</title>
<ellipse fill="#ffbbff" stroke="black" cx="4224.79" cy="-1234" rx="139.18" ry="18"/>
<text text-anchor="middle" x="4224.79" y="-1230.3" font-family="Times,serif" font-size="14.00">Language.Drasil.Code.Lang</text>
</g>
<!-- u13 -->
<g id="node24" class="node">
<title>u13</title>
<ellipse fill="#ffbbff" stroke="black" cx="6473.79" cy="-2687" rx="204.16" ry="18"/>
<text text-anchor="middle" x="6473.79" y="-2683.3" font-family="Times,serif" font-size="14.00">Language.Drasil.Code.CodeQuantityDicts</text>
</g>
<!-- u12&#45;&gt;u10 -->
<g id="edge23" class="edge">
<title>u12&#45;&gt;u10</title>
<path fill="none" stroke="black" d="M4589.79,-1215.85C4589.79,-1167.72 4589.79,-1031.14 4589.79,-972.41"/>
<polygon fill="black" stroke="black" points="4593.29,-972.06 4589.79,-962.06 4586.29,-972.06 4593.29,-972.06"/>
</g>
<!-- u12&#45;&gt;u5 -->
<g id="edge22" class="edge">
<title>u12&#45;&gt;u5</title>
<path fill="none" stroke="black" d="M4611.73,-1216.06C4675.21,-1167.05 4859.16,-1025.01 4932.29,-968.55"/>
<polygon fill="black" stroke="black" points="4934.87,-970.98 4940.65,-962.1 4930.59,-965.44 4934.87,-970.98"/>
</g>
<!-- u11&#45;&gt;u10 -->
<g id="edge21" class="edge">
<title>u11&#45;&gt;u10</title>
<path fill="none" stroke="black" d="M4981.33,-1216.06C4910.08,-1166.73 4702.72,-1023.18 4622.25,-967.47"/>
<polygon fill="black" stroke="black" points="4624.19,-964.55 4613.97,-961.74 4620.2,-970.31 4624.19,-964.55"/>
</g>
<!-- u11&#45;&gt;u5 -->
<g id="edge20" class="edge">
<title>u11&#45;&gt;u5</title>
<path fill="none" stroke="black" d="M5003.23,-1215.85C4996.03,-1167.62 4975.57,-1030.57 4966.83,-972.04"/>
<polygon fill="black" stroke="black" points="4970.28,-971.44 4965.34,-962.06 4963.36,-972.47 4970.28,-971.44"/>
</g>
<!-- u45 -->
<g id="node27" class="node">
<title>u45</title>
<ellipse fill="#77ff77" stroke="black" cx="5614.79" cy="-2687" rx="207.16" ry="18"/>
<text text-anchor="middle" x="5614.79" y="-2683.3" font-family="Times,serif" font-size="14.00">Language.Drasil.Code.Imperative.Logging</text>
</g>
<!-- u14 -->
<g id="node43" class="node">
<title>u14</title>
<ellipse fill="#77ff77" stroke="black" cx="5399.79" cy="-2396" rx="222.06" ry="18"/>
<text text-anchor="middle" x="5399.79" y="-2392.3" font-family="Times,serif" font-size="14.00">Language.Drasil.Code.Imperative.DrasilState</text>
</g>
<!-- u45&#45;&gt;u14 -->
<g id="edge79" class="edge">
<title>u45&#45;&gt;u14</title>
<path fill="none" stroke="black" d="M5601.99,-2668.79C5565.62,-2619.9 5461.55,-2480.01 5418.64,-2422.33"/>
<polygon fill="black" stroke="black" points="5421.31,-2420.06 5412.53,-2414.12 5415.69,-2424.23 5421.31,-2420.06"/>
</g>
<!-- u43 -->
<g id="node28" class="node">
<title>u43</title>
<ellipse fill="#77ff77" stroke="black" cx="4653.79" cy="-2687" rx="240.46" ry="18"/>
<text text-anchor="middle" x="4653.79" y="-2683.3" font-family="Times,serif" font-size="14.00">Language.Drasil.Code.Imperative.GenerateGOOL</text>
</g>
<!-- u43&#45;&gt;u14 -->
<g id="edge76" class="edge">
<title>u43&#45;&gt;u14</title>
<path fill="none" stroke="black" d="M4697.13,-2669.21C4825.89,-2619.33 5205.95,-2472.1 5346.63,-2417.59"/>
<polygon fill="black" stroke="black" points="5348.28,-2420.71 5356.34,-2413.83 5345.75,-2414.18 5348.28,-2420.71"/>
</g>
<!-- u33 -->
<g id="node49" class="node">
<title>u33</title>
<ellipse fill="#ff7777" stroke="black" cx="4399.79" cy="-2396" rx="267.25" ry="18"/>
<text text-anchor="middle" x="4399.79" y="-2392.3" font-family="Times,serif" font-size="14.00">Language.Drasil.Code.Imperative.GOOL.ClassInterface</text>
</g>
<!-- u43&#45;&gt;u33 -->
<g id="edge77" class="edge">
<title>u43&#45;&gt;u33</title>
<path fill="none" stroke="black" d="M4638.67,-2668.79C4595.61,-2619.8 4472.24,-2479.43 4421.75,-2421.98"/>
<polygon fill="black" stroke="black" points="4424.07,-2419.32 4414.84,-2414.12 4418.82,-2423.94 4424.07,-2419.32"/>
</g>
<!-- u32 -->
<g id="node29" class="node">
<title>u32</title>
<ellipse fill="#77ff77" stroke="black" cx="4921.79" cy="-2396" rx="237.46" ry="18"/>
<text text-anchor="middle" x="4921.79" y="-2392.3" font-family="Times,serif" font-size="14.00">Language.Drasil.Code.Imperative.ConceptMatch</text>
</g>
<!-- u32&#45;&gt;u52 -->
<g id="edge56" class="edge">
<title>u32&#45;&gt;u52</title>
<path fill="none" stroke="black" d="M4924.59,-2377.79C4931.62,-2329.64 4946.52,-2190.4 4902.79,-2088 4855.04,-1976.14 4740.68,-1881 4684.32,-1839"/>
<polygon fill="black" stroke="black" points="4686.24,-1836.07 4676.12,-1832.96 4682.09,-1841.71 4686.24,-1836.07"/>
</g>
<!-- u31 -->
<g id="node30" class="node">
<title>u31</title>
<ellipse fill="#77ff77" stroke="black" cx="6473.79" cy="-2977" rx="223.66" ry="18"/>
<text text-anchor="middle" x="6473.79" y="-2973.3" font-family="Times,serif" font-size="14.00">Language.Drasil.Code.Imperative.Parameters</text>
</g>
<!-- u31&#45;&gt;u13 -->
<g id="edge54" class="edge">
<title>u31&#45;&gt;u13</title>
<path fill="none" stroke="black" d="M6473.79,-2958.85C6473.79,-2910.72 6473.79,-2774.14 6473.79,-2715.41"/>
<polygon fill="black" stroke="black" points="6477.29,-2715.06 6473.79,-2705.06 6470.29,-2715.06 6477.29,-2715.06"/>
</g>
<!-- u31&#45;&gt;u14 -->
<g id="edge55" class="edge">
<title>u31&#45;&gt;u14</title>
<path fill="none" stroke="black" d="M6501.87,-2959.07C6577.11,-2911.63 6771.97,-2774.06 6686.79,-2669 6549.81,-2500.04 5904.06,-2431.92 5582.56,-2408.12"/>
<polygon fill="black" stroke="black" points="5582.44,-2404.61 5572.21,-2407.37 5581.92,-2411.59 5582.44,-2404.61"/>
</g>
<!-- u28 -->
<g id="node31" class="node">
<title>u28</title>
<ellipse fill="#77ff77" stroke="black" cx="3423.79" cy="-1525" rx="219.86" ry="18"/>
<text text-anchor="middle" x="3423.79" y="-1521.3" font-family="Times,serif" font-size="14.00">Language.Drasil.Code.Imperative.WriteInput</text>
</g>
<!-- u28&#45;&gt;u50 -->
<g id="edge52" class="edge">
<title>u28&#45;&gt;u50</title>
<path fill="none" stroke="black" d="M3435.12,-1506.64C3506.07,-1397.9 3889.08,-810.89 3974.08,-680.62"/>
<polygon fill="black" stroke="black" points="3977.14,-682.33 3979.67,-672.04 3971.28,-678.5 3977.14,-682.33"/>
</g>
<!-- u26 -->
<g id="node32" class="node">
<title>u26</title>
<ellipse fill="#77ff77" stroke="black" cx="3564.79" cy="-2396" rx="233.16" ry="18"/>
<text text-anchor="middle" x="3564.79" y="-2392.3" font-family="Times,serif" font-size="14.00">Language.Drasil.Code.Imperative.WriteReadMe</text>
</g>
<!-- u27 -->
<g id="node58" class="node">
<title>u27</title>
<ellipse fill="#33ff33" stroke="black" cx="4651.79" cy="-2106" rx="242.36" ry="18"/>
<text text-anchor="middle" x="4651.79" y="-2102.3" font-family="Times,serif" font-size="14.00">Language.Drasil.Code.Imperative.ReadMe.Import</text>
</g>
<!-- u26&#45;&gt;u27 -->
<g id="edge50" class="edge">
<title>u26&#45;&gt;u27</title>
<path fill="none" stroke="black" d="M3626.75,-2378.59C3814.87,-2328.74 4378.9,-2179.3 4579.77,-2126.08"/>
<polygon fill="black" stroke="black" points="4580.86,-2129.41 4589.63,-2123.47 4579.07,-2122.65 4580.86,-2129.41"/>
</g>
<!-- u25 -->
<g id="node33" class="node">
<title>u25</title>
<ellipse fill="#77ff77" stroke="black" cx="6045.79" cy="-2687" rx="206.06" ry="18"/>
<text text-anchor="middle" x="6045.79" y="-2683.3" font-family="Times,serif" font-size="14.00">Language.Drasil.Code.Imperative.Helpers</text>
</g>
<!-- u25&#45;&gt;u14 -->
<g id="edge49" class="edge">
<title>u25&#45;&gt;u14</title>
<path fill="none" stroke="black" d="M6008.27,-2669.21C5896.99,-2619.43 5568.97,-2472.69 5446.56,-2417.92"/>
<polygon fill="black" stroke="black" points="5447.98,-2414.72 5437.42,-2413.83 5445.12,-2421.11 5447.98,-2414.72"/>
</g>
<!-- u24 -->
<g id="node34" class="node">
<title>u24</title>
<ellipse fill="#77ff77" stroke="black" cx="5630.79" cy="-2106" rx="209.86" ry="18"/>
<text text-anchor="middle" x="5630.79" y="-2102.3" font-family="Times,serif" font-size="14.00">Language.Drasil.Code.Imperative.GenODE</text>
</g>
<!-- u24&#45;&gt;u52 -->
<g id="edge48" class="edge">
<title>u24&#45;&gt;u52</title>
<path fill="none" stroke="black" d="M5575.35,-2088.63C5405.34,-2038.45 4892.08,-1886.93 4713.69,-1834.27"/>
<polygon fill="black" stroke="black" points="4714.52,-1830.87 4703.94,-1831.39 4712.54,-1837.58 4714.52,-1830.87"/>
</g>
<!-- u24&#45;&gt;u4 -->
<g id="edge46" class="edge">
<title>u24&#45;&gt;u4</title>
<path fill="none" stroke="black" d="M5631.93,-2087.79C5635.11,-2039.4 5644.15,-1901.87 5648.01,-1843.13"/>
<polygon fill="black" stroke="black" points="5651.51,-1843.33 5648.67,-1833.12 5644.52,-1842.87 5651.51,-1843.33"/>
</g>
<!-- u24&#45;&gt;u48 -->
<g id="edge47" class="edge">
<title>u24&#45;&gt;u48</title>
<path fill="none" stroke="black" d="M5621.5,-2087.68C5594.29,-2038.06 5510.41,-1892.75 5411.79,-1797 5295.38,-1683.97 5125.99,-1588.42 5047.99,-1547.43"/>
<polygon fill="black" stroke="black" points="5049.43,-1544.23 5038.94,-1542.71 5046.19,-1550.44 5049.43,-1544.23"/>
</g>
<!-- u23 -->
<g id="node35" class="node">
<title>u23</title>
<ellipse fill="#77ff77" stroke="black" cx="6046.79" cy="-3558" rx="209.06" ry="18"/>
<text text-anchor="middle" x="6046.79" y="-3554.3" font-family="Times,serif" font-size="14.00">Language.Drasil.Code.Imperative.Modules</text>
</g>
<!-- u19 -->
<g id="node38" class="node">
<title>u19</title>
<ellipse fill="#77ff77" stroke="black" cx="6046.79" cy="-3268" rx="233.16" ry="18"/>
<text text-anchor="middle" x="6046.79" y="-3264.3" font-family="Times,serif" font-size="14.00">Language.Drasil.Code.Imperative.FunctionCalls</text>
</g>
<!-- u23&#45;&gt;u19 -->
<g id="edge45" class="edge">
<title>u23&#45;&gt;u19</title>
<path fill="none" stroke="black" d="M6046.79,-3539.85C6046.79,-3491.72 6046.79,-3355.14 6046.79,-3296.41"/>
<polygon fill="black" stroke="black" points="6050.29,-3296.06 6046.79,-3286.06 6043.29,-3296.06 6050.29,-3296.06"/>
</g>
<!-- u17 -->
<g id="node40" class="node">
<title>u17</title>
<ellipse fill="#77ff77" stroke="black" cx="6525.79" cy="-3268" rx="228.26" ry="18"/>
<text text-anchor="middle" x="6525.79" y="-3264.3" font-family="Times,serif" font-size="14.00">Language.Drasil.Code.Imperative.Descriptions</text>
</g>
<!-- u23&#45;&gt;u17 -->
<g id="edge44" class="edge">
<title>u23&#45;&gt;u17</title>
<path fill="none" stroke="black" d="M6074.97,-3540.06C6157.16,-3490.64 6396.65,-3346.65 6488.94,-3291.16"/>
<polygon fill="black" stroke="black" points="6490.89,-3294.07 6497.65,-3285.92 6487.28,-3288.07 6490.89,-3294.07"/>
</g>
<!-- u22 -->
<g id="node36" class="node">
<title>u22</title>
<ellipse fill="#77ff77" stroke="black" cx="5169.79" cy="-2687" rx="219.86" ry="18"/>
<text text-anchor="middle" x="5169.79" y="-2683.3" font-family="Times,serif" font-size="14.00">Language.Drasil.Code.Imperative.Comments</text>
</g>
<!-- u22&#45;&gt;u14 -->
<g id="edge43" class="edge">
<title>u22&#45;&gt;u14</title>
<path fill="none" stroke="black" d="M5183.49,-2668.79C5222.48,-2619.8 5334.19,-2479.43 5379.92,-2421.98"/>
<polygon fill="black" stroke="black" points="5382.68,-2424.13 5386.17,-2414.12 5377.2,-2419.77 5382.68,-2424.13"/>
</g>
<!-- u21 -->
<g id="node37" class="node">
<title>u21</title>
<ellipse fill="#77ff77" stroke="black" cx="5614.79" cy="-2977" rx="201.46" ry="18"/>
<text text-anchor="middle" x="5614.79" y="-2973.3" font-family="Times,serif" font-size="14.00">Language.Drasil.Code.Imperative.Import</text>
</g>
<!-- u21&#45;&gt;u13 -->
<g id="edge37" class="edge">
<title>u21&#45;&gt;u13</title>
<path fill="none" stroke="black" d="M5664.06,-2959.48C5812.38,-2909.75 6254.31,-2761.59 6414.76,-2707.79"/>
<polygon fill="black" stroke="black" points="6416.09,-2711.04 6424.46,-2704.54 6413.86,-2704.4 6416.09,-2711.04"/>
</g>
<!-- u21&#45;&gt;u45 -->
<g id="edge42" class="edge">
<title>u21&#45;&gt;u45</title>
<path fill="none" stroke="black" d="M5614.79,-2958.85C5614.79,-2910.72 5614.79,-2774.14 5614.79,-2715.41"/>
<polygon fill="black" stroke="black" points="5618.29,-2715.06 5614.79,-2705.06 5611.29,-2715.06 5618.29,-2715.06"/>
</g>
<!-- u21&#45;&gt;u43 -->
<g id="edge41" class="edge">
<title>u21&#45;&gt;u43</title>
<path fill="none" stroke="black" d="M5560.03,-2959.59C5394.13,-2909.87 4897.62,-2761.07 4718.84,-2707.49"/>
<polygon fill="black" stroke="black" points="4719.63,-2704.08 4709.05,-2704.56 4717.62,-2710.78 4719.63,-2704.08"/>
</g>
<!-- u21&#45;&gt;u32 -->
<g id="edge40" class="edge">
<title>u21&#45;&gt;u32</title>
<path fill="none" stroke="black" d="M5479.84,-2963.61C5321.93,-2941.23 5066.16,-2878.74 4940.79,-2705 4878.67,-2618.91 4901.34,-2481.54 4914.75,-2423.87"/>
<polygon fill="black" stroke="black" points="4918.18,-2424.61 4917.13,-2414.06 4911.37,-2422.96 4918.18,-2424.61"/>
</g>
<!-- u21&#45;&gt;u25 -->
<g id="edge39" class="edge">
<title>u21&#45;&gt;u25</title>
<path fill="none" stroke="black" d="M5640.15,-2959.06C5713.95,-2909.74 5928.72,-2766.23 6012.13,-2710.5"/>
<polygon fill="black" stroke="black" points="6014.1,-2713.39 6020.47,-2704.92 6010.22,-2707.57 6014.1,-2713.39"/>
</g>
<!-- u21&#45;&gt;u22 -->
<g id="edge38" class="edge">
<title>u21&#45;&gt;u22</title>
<path fill="none" stroke="black" d="M5588.62,-2959.06C5512.42,-2909.74 5290.67,-2766.23 5204.56,-2710.5"/>
<polygon fill="black" stroke="black" points="5206.23,-2707.41 5195.94,-2704.92 5202.43,-2713.29 5206.23,-2707.41"/>
</g>
<!-- u19&#45;&gt;u31 -->
<g id="edge35" class="edge">
<title>u19&#45;&gt;u31</title>
<path fill="none" stroke="black" d="M6071.91,-3250C6144.96,-3200.56 6357.38,-3056.79 6440.19,-3000.75"/>
<polygon fill="black" stroke="black" points="6442.39,-3003.48 6448.71,-2994.98 6438.47,-2997.68 6442.39,-3003.48"/>
</g>
<!-- u19&#45;&gt;u21 -->
<g id="edge34" class="edge">
<title>u19&#45;&gt;u21</title>
<path fill="none" stroke="black" d="M6021.38,-3250C5947.41,-3200.51 5732.14,-3056.5 5648.54,-3000.58"/>
<polygon fill="black" stroke="black" points="5650.43,-2997.63 5640.17,-2994.98 5646.54,-3003.45 5650.43,-2997.63"/>
</g>
<!-- u18 -->
<g id="node39" class="node">
<title>u18</title>
<ellipse fill="#77ff77" stroke="black" cx="5568.79" cy="-3268" rx="226.66" ry="18"/>
<text text-anchor="middle" x="5568.79" y="-3264.3" font-family="Times,serif" font-size="14.00">Language.Drasil.Code.Imperative.SpaceMatch</text>
</g>
<!-- u18&#45;&gt;u14 -->
<g id="edge33" class="edge">
<title>u18&#45;&gt;u14</title>
<path fill="none" stroke="black" d="M5457.59,-3252.22C5215.31,-3213.36 4642.49,-3083.71 4404.79,-2705 4308.28,-2551.22 4975.38,-2449.18 5267.53,-2412.33"/>
<polygon fill="black" stroke="black" points="5268.27,-2415.77 5277.76,-2411.05 5267.4,-2408.82 5268.27,-2415.77"/>
</g>
<!-- u17&#45;&gt;u14 -->
<g id="edge32" class="edge">
<title>u17&#45;&gt;u14</title>
<path fill="none" stroke="black" d="M6541.07,-3249.89C6607.63,-3173.3 6862.11,-2857.44 6708.79,-2669 6569.39,-2497.65 5913.64,-2430.73 5586.44,-2407.68"/>
<polygon fill="black" stroke="black" points="5586.6,-2404.19 5576.38,-2406.98 5586.11,-2411.17 5586.6,-2404.19"/>
</g>
<!-- u16&#45;&gt;u50 -->
<g id="edge31" class="edge">
<title>u16&#45;&gt;u50</title>
<path fill="none" stroke="black" d="M1895.01,-2378.55C2058.51,-2326.09 2528.79,-2146.46 2528.79,-1816 2528.79,-1816 2528.79,-1816 2528.79,-1233 2528.79,-937.94 3571.68,-728.98 3895.84,-671.16"/>
<polygon fill="black" stroke="black" points="3896.91,-674.53 3906.14,-669.33 3895.68,-667.63 3896.91,-674.53"/>
</g>
<!-- u15&#45;&gt;u49 -->
<g id="edge30" class="edge">
<title>u15&#45;&gt;u49</title>
<path fill="none" stroke="black" d="M5535.62,-3829.85C5495.27,-3781.02 5379.68,-3641.15 5332.36,-3583.89"/>
<polygon fill="black" stroke="black" points="5334.96,-3581.54 5325.9,-3576.06 5329.57,-3586 5334.96,-3581.54"/>
</g>
<!-- u15&#45;&gt;u24 -->
<g id="edge28" class="edge">
<title>u15&#45;&gt;u24</title>
<path fill="none" stroke="black" d="M5751.17,-3841.2C6100.48,-3819.24 6781.79,-3718.78 6781.79,-3269 6781.79,-3269 6781.79,-3269 6781.79,-2686 6781.79,-2257.61 6137.62,-2146.14 5813.09,-2117.16"/>
<polygon fill="black" stroke="black" points="5813.38,-2113.67 5803.11,-2116.29 5812.77,-2120.65 5813.38,-2113.67"/>
</g>
<!-- u15&#45;&gt;u23 -->
<g id="edge27" class="edge">
<title>u15&#45;&gt;u23</title>
<path fill="none" stroke="black" d="M5579.03,-3830.06C5664.4,-3780.59 5913.3,-3636.36 6008.84,-3580.99"/>
<polygon fill="black" stroke="black" points="6010.7,-3583.96 6017.6,-3575.92 6007.19,-3577.9 6010.7,-3583.96"/>
</g>
<!-- u15&#45;&gt;u18 -->
<g id="edge26" class="edge">
<title>u15&#45;&gt;u18</title>
<path fill="none" stroke="black" d="M5550.36,-3829.7C5553.06,-3747.6 5564.58,-3397.07 5567.9,-3296.23"/>
<polygon fill="black" stroke="black" points="5571.4,-3296.34 5568.23,-3286.23 5564.4,-3296.11 5571.4,-3296.34"/>
</g>
<!-- u34 -->
<g id="node48" class="node">
<title>u34</title>
<ellipse fill="#ff7777" stroke="black" cx="4304.79" cy="-2977" rx="289.45" ry="18"/>
<text text-anchor="middle" x="4304.79" y="-2973.3" font-family="Times,serif" font-size="14.00">Language.Drasil.Code.Imperative.GOOL.LanguageRenderer</text>
</g>
<!-- u15&#45;&gt;u34 -->
<g id="edge29" class="edge">
<title>u15&#45;&gt;u34</title>
<path fill="none" stroke="black" d="M5553.36,-3829.68C5562.76,-3778.81 5582.9,-3627.89 5511.79,-3540 5294.95,-3271.95 5088.51,-3437.49 4778.79,-3286 4600.47,-3198.78 4408.02,-3057.1 4335.1,-3001.48"/>
<polygon fill="black" stroke="black" points="4336.87,-2998.43 4326.81,-2995.13 4332.62,-3003.99 4336.87,-2998.43"/>
</g>
<!-- u14&#45;&gt;u51 -->
<g id="edge25" class="edge">
<title>u14&#45;&gt;u51</title>
<path fill="none" stroke="black" d="M5389.67,-2377.85C5361.03,-2329.32 5279.3,-2190.86 5245.12,-2132.96"/>
<polygon fill="black" stroke="black" points="5247.96,-2130.9 5239.87,-2124.06 5241.94,-2134.45 5247.96,-2130.9"/>
</g>
<!-- u14&#45;&gt;u48 -->
<g id="edge24" class="edge">
<title>u14&#45;&gt;u48</title>
<path fill="none" stroke="black" d="M5369.75,-2377.97C5306.66,-2340.59 5160.03,-2245 5084.79,-2124 4966.29,-1933.41 4990.83,-1642.83 5001.97,-1553.25"/>
<polygon fill="black" stroke="black" points="5005.47,-1553.48 5003.28,-1543.11 4998.53,-1552.58 5005.47,-1553.48"/>
</g>
<!-- u30 -->
<g id="node44" class="node">
<title>u30</title>
<ellipse fill="#ffff77" stroke="black" cx="3550.79" cy="-2977" rx="228.56" ry="18"/>
<text text-anchor="middle" x="3550.79" y="-2973.3" font-family="Times,serif" font-size="14.00">Language.Drasil.Code.Imperative.Build.Import</text>
</g>
<!-- u29 -->
<g id="node45" class="node">
<title>u29</title>
<ellipse fill="#ffff77" stroke="black" cx="3550.79" cy="-2687" rx="215.56" ry="18"/>
<text text-anchor="middle" x="3550.79" y="-2683.3" font-family="Times,serif" font-size="14.00">Language.Drasil.Code.Imperative.Build.AST</text>
</g>
<!-- u30&#45;&gt;u29 -->
<g id="edge53" class="edge">
<title>u30&#45;&gt;u29</title>
<path fill="none" stroke="black" d="M3550.79,-2958.85C3550.79,-2910.72 3550.79,-2774.14 3550.79,-2715.41"/>
<polygon fill="black" stroke="black" points="3554.29,-2715.06 3550.79,-2705.06 3547.29,-2715.06 3554.29,-2715.06"/>
</g>
<!-- u44 -->
<g id="node46" class="node">
<title>u44</title>
<ellipse fill="#7777ff" stroke="black" cx="4146.79" cy="-2106" rx="245.06" ry="18"/>
<text text-anchor="middle" x="4146.79" y="-2102.3" font-family="Times,serif" font-size="14.00">Language.Drasil.Code.Imperative.Doxygen.Import</text>
</g>
<!-- u44&#45;&gt;u52 -->
<g id="edge78" class="edge">
<title>u44&#45;&gt;u52</title>
<path fill="none" stroke="black" d="M4176.5,-2088C4263.44,-2038.24 4517.34,-1892.94 4613.91,-1837.68"/>
<polygon fill="black" stroke="black" points="4615.82,-1840.62 4622.76,-1832.62 4612.34,-1834.55 4615.82,-1840.62"/>
</g>
<!-- u33&#45;&gt;u27 -->
<g id="edge57" class="edge">
<title>u33&#45;&gt;u27</title>
<path fill="none" stroke="black" d="M4414.8,-2377.85C4457.52,-2329.02 4579.92,-2189.15 4630.02,-2131.89"/>
<polygon fill="black" stroke="black" points="4632.91,-2133.89 4636.86,-2124.06 4627.65,-2129.28 4632.91,-2133.89"/>
</g>
<!-- u41&#45;&gt;u42 -->
<g id="edge75" class="edge">
<title>u41&#45;&gt;u42</title>
<path fill="none" stroke="black" d="M4699.52,-3540.17C4550.14,-3490.14 4109.37,-3342.53 3949,-3288.83"/>
<polygon fill="black" stroke="black" points="3949.89,-3285.43 3939.3,-3285.58 3947.67,-3292.07 3949.89,-3285.43"/>
</g>
<!-- u36 -->
<g id="node55" class="node">
<title>u36</title>
<ellipse fill="#77ffff" stroke="black" cx="3255.79" cy="-3268" rx="393.73" ry="18"/>
<text text-anchor="middle" x="3255.79" y="-3264.3" font-family="Times,serif" font-size="14.00">Language.Drasil.Code.Imperative.GOOL.LanguageRenderer.LanguagePolymorphic</text>
</g>
<!-- u41&#45;&gt;u36 -->
<g id="edge74" class="edge">
<title>u41&#45;&gt;u36</title>
<path fill="none" stroke="black" d="M4664.38,-3540.53C4404.67,-3490.47 3625.58,-3340.28 3352.02,-3287.55"/>
<polygon fill="black" stroke="black" points="3352.6,-3284.1 3342.12,-3285.64 3351.27,-3290.97 3352.6,-3284.1"/>
</g>
<!-- u40&#45;&gt;u42 -->
<g id="edge73" class="edge">
<title>u40&#45;&gt;u42</title>
<path fill="none" stroke="black" d="M1204.52,-3541.69C1698.56,-3491.52 3264.89,-3332.46 3747.11,-3283.49"/>
<polygon fill="black" stroke="black" points="3747.66,-3286.95 3757.25,-3282.46 3746.95,-3279.99 3747.66,-3286.95"/>
</g>
<!-- u40&#45;&gt;u36 -->
<g id="edge72" class="edge">
<title>u40&#45;&gt;u36</title>
<path fill="none" stroke="black" d="M1175.71,-3541.05C1557.18,-3491.16 2726.06,-3338.28 3122.6,-3286.42"/>
<polygon fill="black" stroke="black" points="3123.22,-3289.87 3132.68,-3285.1 3122.31,-3282.93 3123.22,-3289.87"/>
</g>
<!-- u39&#45;&gt;u42 -->
<g id="edge71" class="edge">
<title>u39&#45;&gt;u42</title>
<path fill="none" stroke="black" d="M1897.94,-3541C2266.86,-3490.62 3401.99,-3335.61 3771.91,-3285.1"/>
<polygon fill="black" stroke="black" points="3772.4,-3288.56 3781.84,-3283.74 3771.46,-3281.63 3772.4,-3288.56"/>
</g>
<!-- u39&#45;&gt;u36 -->
<g id="edge70" class="edge">
<title>u39&#45;&gt;u36</title>
<path fill="none" stroke="black" d="M1865.39,-3540.48C2121.95,-3490.39 2890.15,-3340.39 3160.44,-3287.62"/>
<polygon fill="black" stroke="black" points="3161.47,-3290.98 3170.62,-3285.63 3160.13,-3284.11 3161.47,-3290.98"/>
</g>
<!-- u38&#45;&gt;u42 -->
<g id="edge69" class="edge">
<title>u38&#45;&gt;u42</title>
<path fill="none" stroke="black" d="M2591.08,-3540.43C2831.78,-3490.12 3552.87,-3339.42 3803.11,-3287.12"/>
<polygon fill="black" stroke="black" points="3804.17,-3290.47 3813.25,-3285 3802.74,-3283.62 3804.17,-3290.47"/>
</g>
<!-- u38&#45;&gt;u36 -->
<g id="edge68" class="edge">
<title>u38&#45;&gt;u36</title>
<path fill="none" stroke="black" d="M2555.56,-3540.06C2684.38,-3490.19 3061.98,-3344.03 3202.39,-3289.67"/>
<polygon fill="black" stroke="black" points="3204.02,-3292.79 3212.09,-3285.92 3201.5,-3286.27 3204.02,-3292.79"/>
</g>
<!-- u37&#45;&gt;u42 -->
<g id="edge67" class="edge">
<title>u37&#45;&gt;u42</title>
<path fill="none" stroke="black" d="M3293.09,-3540.06C3402.53,-3490.34 3722.7,-3344.9 3843.21,-3290.16"/>
<polygon fill="black" stroke="black" points="3844.89,-3293.24 3852.55,-3285.92 3842,-3286.87 3844.89,-3293.24"/>
</g>
<!-- u37&#45;&gt;u36 -->
<g id="edge66" class="edge">
<title>u37&#45;&gt;u36</title>
<path fill="none" stroke="black" d="M3255.79,-3539.85C3255.79,-3491.72 3255.79,-3355.14 3255.79,-3296.41"/>
<polygon fill="black" stroke="black" points="3259.29,-3296.06 3255.79,-3286.06 3252.29,-3296.06 3259.29,-3296.06"/>
</g>
<!-- u36&#45;&gt;u28 -->
<g id="edge61" class="edge">
<title>u36&#45;&gt;u28</title>
<path fill="none" stroke="black" d="M3255.79,-3249.95C3255.79,-3180.25 3255.79,-2910.15 3255.79,-2688 3255.79,-2688 3255.79,-2688 3255.79,-2105 3255.79,-1883.68 3370.42,-1632.94 3410.31,-1552.39"/>
<polygon fill="black" stroke="black" points="3413.66,-1553.51 3415,-1543 3407.4,-1550.38 3413.66,-1553.51"/>
</g>
<!-- u36&#45;&gt;u26 -->
<g id="edge60" class="edge">
<title>u36&#45;&gt;u26</title>
<path fill="none" stroke="black" d="M3256.43,-3249.89C3259.83,-3163.75 3277.56,-2777.39 3325.79,-2669 3374.2,-2560.24 3481.77,-2463.55 3534.49,-2420.58"/>
<polygon fill="black" stroke="black" points="3536.87,-2423.16 3542.46,-2414.16 3532.48,-2417.71 3536.87,-2423.16"/>
</g>
<!-- u36&#45;&gt;u30 -->
<g id="edge62" class="edge">
<title>u36&#45;&gt;u30</title>
<path fill="none" stroke="black" d="M3273.36,-3249.79C3323.58,-3200.59 3467.83,-3059.28 3526.02,-3002.28"/>
<polygon fill="black" stroke="black" points="3528.62,-3004.62 3533.32,-2995.12 3523.72,-2999.62 3528.62,-3004.62"/>
</g>
<!-- u36&#45;&gt;u44 -->
<g id="edge65" class="edge">
<title>u36&#45;&gt;u44</title>
<path fill="none" stroke="black" d="M3320.73,-3250.12C3431.3,-3218.24 3656.95,-3139.09 3788.79,-2995 4038.8,-2721.79 4124.8,-2251.55 4142.91,-2134.15"/>
<polygon fill="black" stroke="black" points="4146.38,-2134.62 4144.41,-2124.21 4139.45,-2133.57 4146.38,-2134.62"/>
</g>
<!-- u36&#45;&gt;u34 -->
<g id="edge64" class="edge">
<title>u36&#45;&gt;u34</title>
<path fill="none" stroke="black" d="M3316.73,-3250.21C3499.18,-3199.95 4040.45,-3050.83 4234.54,-2997.35"/>
<polygon fill="black" stroke="black" points="4235.64,-3000.68 4244.35,-2994.65 4233.78,-2993.93 4235.64,-3000.68"/>
</g>
<!-- u36&#45;&gt;u33 -->
<g id="edge63" class="edge">
<title>u36&#45;&gt;u33</title>
<path fill="none" stroke="black" d="M3329.66,-3250.29C3460.13,-3218.05 3735.55,-3137.57 3925.79,-2995 4155.41,-2822.94 4335.78,-2513.98 4385.87,-2422.93"/>
<polygon fill="black" stroke="black" points="4388.98,-2424.55 4390.7,-2414.09 4382.83,-2421.19 4388.98,-2424.55"/>
</g>
<!-- u35&#45;&gt;u42 -->
<g id="edge59" class="edge">
<title>u35&#45;&gt;u42</title>
<path fill="none" stroke="black" d="M4002.65,-3539.85C3982.47,-3491.42 3924.98,-3353.43 3900.76,-3295.32"/>
<polygon fill="black" stroke="black" points="3903.98,-3293.95 3896.9,-3286.06 3897.52,-3296.64 3903.98,-3293.95"/>
</g>
<!-- u35&#45;&gt;u36 -->
<g id="edge58" class="edge">
<title>u35&#45;&gt;u36</title>
<path fill="none" stroke="black" d="M3965.44,-3540.06C3834.76,-3490.14 3451.45,-3343.73 3309.49,-3289.51"/>
<polygon fill="black" stroke="black" points="3310.68,-3286.22 3300.09,-3285.92 3308.18,-3292.76 3310.68,-3286.22"/>
</g>
<!-- u20 -->
<g id="node57" class="node">
<title>u20</title>
<ellipse fill="#ff77ff" stroke="black" cx="5055.79" cy="-3268" rx="267.55" ry="18"/>
<text text-anchor="middle" x="5055.79" y="-3264.3" font-family="Times,serif" font-size="14.00">Language.Drasil.Code.Imperative.Parsers.ConfigParser</text>
</g>
<!-- u20&#45;&gt;u34 -->
<g id="edge36" class="edge">
<title>u20&#45;&gt;u34</title>
<path fill="none" stroke="black" d="M5012.17,-3250.21C4882.42,-3200.28 4499.18,-3052.8 4357.89,-2998.43"/>
<polygon fill="black" stroke="black" points="4359.13,-2995.16 4348.54,-2994.83 4356.61,-3001.69 4359.13,-2995.16"/>
</g>
<!-- u27&#45;&gt;u52 -->
<g id="edge51" class="edge">
<title>u27&#45;&gt;u52</title>
<path fill="none" stroke="black" d="M4651.79,-2087.79C4651.79,-2039.4 4651.79,-1901.87 4651.79,-1843.13"/>
<polygon fill="black" stroke="black" points="4655.29,-1843.12 4651.79,-1833.12 4648.29,-1843.12 4655.29,-1843.12"/>
</g>
<!-- u9&#45;&gt;u3 -->
<g id="edge17" class="edge">
<title>u9&#45;&gt;u3</title>
<path fill="none" stroke="black" d="M5358.82,-1215.74C5333.31,-1167.45 5256.87,-1027.88 5173.79,-926 4984.95,-694.41 4707.52,-460.3 4618.45,-387.23"/>
<polygon fill="black" stroke="black" points="4620.62,-384.48 4610.66,-380.86 4616.19,-389.9 4620.62,-384.48"/>
</g>
<!-- u8&#45;&gt;u47 -->
<g id="edge16" class="edge">
<title>u8&#45;&gt;u47</title>
<path fill="none" stroke="black" d="M4611.62,-1507C4541.37,-1457.6 4337.2,-1314.04 4257.35,-1257.89"/>
<polygon fill="black" stroke="black" points="4258.88,-1254.69 4248.68,-1251.8 4254.85,-1260.41 4258.88,-1254.69"/>
</g>
<!-- u8&#45;&gt;u12 -->
<g id="edge15" class="edge">
<title>u8&#45;&gt;u12</title>
<path fill="none" stroke="black" d="M4633.05,-1506.79C4625.35,-1458.4 4603.46,-1320.87 4594.11,-1262.13"/>
<polygon fill="black" stroke="black" points="4597.55,-1261.45 4592.52,-1252.12 4590.64,-1262.55 4597.55,-1261.45"/>
</g>
<!-- u8&#45;&gt;u11 -->
<g id="edge14" class="edge">
<title>u8&#45;&gt;u11</title>
<path fill="none" stroke="black" d="M4657.56,-1507C4720.52,-1457.82 4903,-1315.29 4975.54,-1258.63"/>
<polygon fill="black" stroke="black" points="4978.1,-1261.07 4983.83,-1252.16 4973.79,-1255.56 4978.1,-1261.07"/>
</g>
<!-- u8&#45;&gt;u9 -->
<g id="edge13" class="edge">
<title>u8&#45;&gt;u9</title>
<path fill="none" stroke="black" d="M4677.51,-1507.53C4803.47,-1457.8 5179.64,-1309.29 5316.92,-1255.08"/>
<polygon fill="black" stroke="black" points="5318.37,-1258.28 5326.39,-1251.35 5315.8,-1251.76 5318.37,-1258.28"/>
</g>
<!-- u55 -->
<g id="node61" class="node">
<title>u55</title>
<ellipse fill="#3333ff" stroke="black" cx="450.79" cy="-4429" rx="108.58" ry="18"/>
<text text-anchor="middle" x="450.79" y="-4425.3" font-family="Times,serif" font-size="14.00">drasil&#45;code.test.Main</text>
</g>
<!-- u55&#45;&gt;u58 -->
<g id="edge94" class="edge">
<title>u55&#45;&gt;u58</title>
<path fill="none" stroke="black" d="M456.45,-4410.85C472.39,-4362.52 517.75,-4225 537,-4166.68"/>
<polygon fill="black" stroke="black" points="540.36,-4167.66 540.17,-4157.06 533.71,-4165.46 540.36,-4167.66"/>
</g>
<!-- u55&#45;&gt;u57 -->
<g id="edge93" class="edge">
<title>u55&#45;&gt;u57</title>
<path fill="none" stroke="black" d="M465.74,-4410.85C508.39,-4361.91 630.78,-4221.49 680.45,-4164.49"/>
<polygon fill="black" stroke="black" points="683.31,-4166.54 687.24,-4156.7 678.03,-4161.94 683.31,-4166.54"/>
</g>
<!-- u55&#45;&gt;u56 -->
<g id="edge92" class="edge">
<title>u55&#45;&gt;u56</title>
<path fill="none" stroke="black" d="M428.08,-4411.27C361.23,-4362.03 165.11,-4217.57 89.76,-4162.07"/>
<polygon fill="black" stroke="black" points="91.73,-4159.17 81.6,-4156.06 87.58,-4164.81 91.73,-4159.17"/>
</g>
<!-- u55&#45;&gt;u53 -->
<g id="edge91" class="edge">
<title>u55&#45;&gt;u53</title>
<path fill="none" stroke="black" d="M435.25,-4410.85C390.8,-4361.79 263.04,-4220.82 211.62,-4164.08"/>
<polygon fill="black" stroke="black" points="213.92,-4161.4 204.61,-4156.35 208.73,-4166.11 213.92,-4161.4"/>
</g>
<!-- u55&#45;&gt;u59 -->
<g id="edge95" class="edge">
<title>u55&#45;&gt;u59</title>
<path fill="none" stroke="black" d="M445.14,-4410.85C429.2,-4362.52 383.83,-4225 364.59,-4166.68"/>
<polygon fill="black" stroke="black" points="367.88,-4165.46 361.42,-4157.06 361.23,-4167.66 367.88,-4165.46"/>
</g>
<!-- u55&#45;&gt;u7 -->
<g id="edge90" class="edge">
<title>u55&#45;&gt;u7</title>
<path fill="none" stroke="black" d="M530.96,-4416.8C855.9,-4371.39 2074.15,-4201.16 2419.82,-4152.85"/>
<polygon fill="black" stroke="black" points="2420.38,-4156.31 2429.8,-4151.46 2419.41,-4149.38 2420.38,-4156.31"/>
</g>
</g>
</svg>
