<?xml version="1.0" encoding="UTF-8" standalone="no"?>
<!DOCTYPE svg PUBLIC "-//W3C//DTD SVG 1.1//EN"
 "http://www.w3.org/Graphics/SVG/1.1/DTD/svg11.dtd">
<!-- Generated by graphviz version 2.43.0 (0)
 -->
<!-- Title: G Pages: 1 -->
<svg width="431pt" height="288pt"
 viewBox="0.00 0.00 430.64 288.00" xmlns="http://www.w3.org/2000/svg" xmlns:xlink="http://www.w3.org/1999/xlink">
<g id="graph0" class="graph" transform="scale(0.35 0.35) rotate(0) translate(4 829.33)">
<title>G</title>
<polygon fill="white" stroke="transparent" points="-4,4 -4,-829.33 1242.07,-829.33 1242.07,4 -4,4"/>
<!-- u10 -->
<g id="node1" class="node">
<title>u10</title>
<ellipse fill="#bbffbb" stroke="black" cx="652.74" cy="-766" rx="72.29" ry="18"/>
<text text-anchor="middle" x="652.74" y="-762.3" font-family="Times,serif" font-size="14.00">Theory.Drasil</text>
</g>
<!-- u9 -->
<g id="node2" class="node">
<title>u9</title>
<ellipse fill="#ffffbb" stroke="black" cx="273.74" cy="-531" rx="107.48" ry="18"/>
<text text-anchor="middle" x="273.74" y="-527.3" font-family="Times,serif" font-size="14.00">Theory.Drasil.Theory</text>
</g>
<!-- u10&#45;&gt;u9 -->
<g id="edge15" class="edge">
<title>u10&#45;&gt;u9</title>
<path fill="none" stroke="black" d="M626.99,-749.17C560.86,-708.52 385.01,-600.41 309.26,-553.84"/>
<polygon fill="black" stroke="black" points="310.89,-550.73 300.53,-548.47 307.22,-556.69 310.89,-550.73"/>
</g>
<!-- u8 -->
<g id="node3" class="node">
<title>u8</title>
<ellipse fill="#ffffbb" stroke="black" cx="514.74" cy="-531" rx="115.88" ry="18"/>
<text text-anchor="middle" x="514.74" y="-527.3" font-family="Times,serif" font-size="14.00">Theory.Drasil.GenDefn</text>
</g>
<!-- u10&#45;&gt;u8 -->
<g id="edge14" class="edge">
<title>u10&#45;&gt;u8</title>
<path fill="none" stroke="black" d="M642.59,-747.87C618.66,-707.47 558.6,-606.07 530.15,-558.02"/>
<polygon fill="black" stroke="black" points="533.01,-555.98 524.9,-549.16 526.98,-559.55 533.01,-555.98"/>
</g>
<!-- u5 -->
<g id="node6" class="node">
<title>u5</title>
<ellipse fill="#ffffbb" stroke="black" cx="791.74" cy="-531" rx="143.77" ry="18"/>
<text text-anchor="middle" x="791.74" y="-527.3" font-family="Times,serif" font-size="14.00">Theory.Drasil.InstanceModel</text>
</g>
<!-- u10&#45;&gt;u5 -->
<g id="edge13" class="edge">
<title>u10&#45;&gt;u5</title>
<path fill="none" stroke="black" d="M662.96,-747.87C687.06,-707.47 747.55,-606.07 776.21,-558.02"/>
<polygon fill="black" stroke="black" points="779.38,-559.54 781.5,-549.16 773.37,-555.95 779.38,-559.54"/>
</g>
<!-- u0 -->
<g id="node10" class="node">
<title>u0</title>
<ellipse fill="#ffffbb" stroke="black" cx="1095.74" cy="-531" rx="142.17" ry="18"/>
<text text-anchor="middle" x="1095.74" y="-527.3" font-family="Times,serif" font-size="14.00">Theory.Drasil.DataDefinition</text>
</g>
<!-- u10&#45;&gt;u0 -->
<g id="edge12" class="edge">
<title>u10&#45;&gt;u0</title>
<path fill="none" stroke="black" d="M682.15,-749.53C759.14,-709.04 966.73,-599.85 1055.06,-553.39"/>
<polygon fill="black" stroke="black" points="1056.76,-556.46 1063.98,-548.7 1053.5,-550.26 1056.76,-556.46"/>
</g>
<!-- u4 -->
<g id="node7" class="node">
<title>u4</title>
<ellipse fill="#ffffbb" stroke="black" cx="453.74" cy="-295" rx="129.98" ry="18"/>
<text text-anchor="middle" x="453.74" y="-291.3" font-family="Times,serif" font-size="14.00">Theory.Drasil.ModelKinds</text>
</g>
<!-- u9&#45;&gt;u4 -->
<g id="edge11" class="edge">
<title>u9&#45;&gt;u4</title>
<path fill="none" stroke="black" d="M286.97,-512.79C318.45,-471.87 397.89,-368.61 434.59,-320.89"/>
<polygon fill="black" stroke="black" points="437.4,-322.98 440.73,-312.92 431.85,-318.71 437.4,-322.98"/>
</g>
<!-- u8&#45;&gt;u4 -->
<g id="edge10" class="edge">
<title>u8&#45;&gt;u4</title>
<path fill="none" stroke="black" d="M510.25,-512.79C499.74,-472.48 473.46,-371.65 460.79,-323.04"/>
<polygon fill="black" stroke="black" points="464.14,-322.03 458.23,-313.23 457.37,-323.79 464.14,-322.03"/>
</g>
<!-- u1 -->
<g id="node11" class="node">
<title>u1</title>
<ellipse fill="#bbbbff" stroke="black" cx="786.74" cy="-295" rx="184.67" ry="18"/>
<text text-anchor="middle" x="786.74" y="-291.3" font-family="Times,serif" font-size="14.00">Theory.Drasil.Components.Derivation</text>
</g>
<!-- u8&#45;&gt;u1 -->
<g id="edge9" class="edge">
<title>u8&#45;&gt;u1</title>
<path fill="none" stroke="black" d="M534.3,-513.17C582.02,-472.12 704.49,-366.76 759.39,-319.52"/>
<polygon fill="black" stroke="black" points="761.69,-322.17 766.99,-312.99 757.12,-316.86 761.69,-322.17"/>
</g>
<!-- u7 -->
<g id="node4" class="node">
<title>u7</title>
<ellipse fill="#ffffbb" stroke="black" cx="139.74" cy="-59" rx="139.98" ry="18"/>
<text text-anchor="middle" x="139.74" y="-55.3" font-family="Times,serif" font-size="14.00">Theory.Drasil.ConstraintSet</text>
</g>
<!-- u6 -->
<g id="node5" class="node">
<title>u6</title>
<ellipse fill="#ffffbb" stroke="black" cx="1099.74" cy="-295" rx="110.48" ry="18"/>
<text text-anchor="middle" x="1099.74" y="-291.3" font-family="Times,serif" font-size="14.00">Theory.Drasil.Classes</text>
</g>
<!-- u5&#45;&gt;u6 -->
<g id="edge8" class="edge">
<title>u5&#45;&gt;u6</title>
<path fill="none" stroke="black" d="M813.89,-513.17C868.16,-471.94 1007.85,-365.81 1069.61,-318.89"/>
<polygon fill="black" stroke="black" points="1071.94,-321.51 1077.79,-312.68 1067.71,-315.94 1071.94,-321.51"/>
</g>
<!-- u5&#45;&gt;u4 -->
<g id="edge7" class="edge">
<title>u5&#45;&gt;u4</title>
<path fill="none" stroke="black" d="M767.43,-513.17C707.89,-471.95 554.69,-365.89 486.88,-318.95"/>
<polygon fill="black" stroke="black" points="488.49,-315.81 478.28,-312.99 484.51,-321.56 488.49,-315.81"/>
</g>
<!-- u5&#45;&gt;u1 -->
<g id="edge6" class="edge">
<title>u5&#45;&gt;u1</title>
<path fill="none" stroke="black" d="M791.37,-512.79C790.51,-472.56 788.36,-372.08 787.32,-323.35"/>
<polygon fill="black" stroke="black" points="790.82,-323.15 787.11,-313.23 783.82,-323.3 790.82,-323.15"/>
</g>
<!-- u4&#45;&gt;u7 -->
<g id="edge5" class="edge">
<title>u4&#45;&gt;u7</title>
<path fill="none" stroke="black" d="M431.16,-277.17C375.96,-236.04 234.1,-130.32 170.91,-83.23"/>
<polygon fill="black" stroke="black" points="172.65,-80.16 162.54,-76.99 168.46,-85.77 172.65,-80.16"/>
</g>
<!-- u3 -->
<g id="node8" class="node">
<title>u3</title>
<ellipse fill="#ffffbb" stroke="black" cx="453.74" cy="-59" rx="156.77" ry="18"/>
<text text-anchor="middle" x="453.74" y="-55.3" font-family="Times,serif" font-size="14.00">Theory.Drasil.DifferentialModel</text>
</g>
<!-- u4&#45;&gt;u3 -->
<g id="edge4" class="edge">
<title>u4&#45;&gt;u3</title>
<path fill="none" stroke="black" d="M453.74,-276.79C453.74,-236.56 453.74,-136.08 453.74,-87.35"/>
<polygon fill="black" stroke="black" points="457.24,-87.23 453.74,-77.23 450.24,-87.23 457.24,-87.23"/>
</g>
<!-- u2 -->
<g id="node9" class="node">
<title>u2</title>
<ellipse fill="#ffffbb" stroke="black" cx="750.74" cy="-59" rx="122.38" ry="18"/>
<text text-anchor="middle" x="750.74" y="-55.3" font-family="Times,serif" font-size="14.00">Theory.Drasil.MultiDefn</text>
</g>
<!-- u4&#45;&gt;u2 -->
<g id="edge3" class="edge">
<title>u4&#45;&gt;u2</title>
<path fill="none" stroke="black" d="M475.1,-277.17C527.31,-236.04 661.48,-130.32 721.25,-83.23"/>
<polygon fill="black" stroke="black" points="723.48,-85.93 729.17,-76.99 719.15,-80.43 723.48,-85.93"/>
</g>
<!-- u0&#45;&gt;u6 -->
<g id="edge2" class="edge">
<title>u0&#45;&gt;u6</title>
<path fill="none" stroke="black" d="M1096.03,-512.79C1096.72,-472.56 1098.44,-372.08 1099.27,-323.35"/>
<polygon fill="black" stroke="black" points="1102.77,-323.29 1099.44,-313.23 1095.77,-323.17 1102.77,-323.29"/>
</g>
<!-- u0&#45;&gt;u1 -->
<g id="edge1" class="edge">
<title>u0&#45;&gt;u1</title>
<path fill="none" stroke="black" d="M1073.52,-513.17C1019.2,-472.04 879.6,-366.32 817.42,-319.23"/>
<polygon fill="black" stroke="black" points="819.26,-316.24 809.17,-312.99 815.03,-321.82 819.26,-316.24"/>
</g>
</g>
</svg>
