<?xml version="1.0" encoding="UTF-8" standalone="no"?>
<!DOCTYPE svg PUBLIC "-//W3C//DTD SVG 1.1//EN"
 "http://www.w3.org/Graphics/SVG/1.1/DTD/svg11.dtd">
<!-- Generated by graphviz version 2.43.0 (0)
 -->
<!-- Title: G Pages: 1 -->
<svg width="431pt" height="288pt"
 viewBox="0.00 0.00 430.63 288.00" xmlns="http://www.w3.org/2000/svg" xmlns:xlink="http://www.w3.org/1999/xlink">
<g id="graph0" class="graph" transform="scale(0.4 0.4) rotate(0) translate(4 718)">
<title>G</title>
<polygon fill="white" stroke="transparent" points="-4,4 -4,-718 1075.58,-718 1075.58,4 -4,4"/>
<!-- u8 -->
<g id="node1" class="node">
<title>u8</title>
<ellipse fill="#bbffbb" stroke="black" cx="584.34" cy="-663" rx="72.29" ry="18"/>
<text text-anchor="middle" x="584.34" y="-659.3" font-family="Times,serif" font-size="14.00">Theory.Drasil</text>
</g>
<!-- u7 -->
<g id="node2" class="node">
<title>u7</title>
<ellipse fill="#ffffbb" stroke="black" cx="142.34" cy="-459" rx="142.17" ry="18"/>
<text text-anchor="middle" x="142.34" y="-455.3" font-family="Times,serif" font-size="14.00">Theory.Drasil.DataDefinition</text>
</g>
<!-- u8&#45;&gt;u7 -->
<g id="edge11" class="edge">
<title>u8&#45;&gt;u7</title>
<path fill="none" stroke="black" d="M551.12,-646.82C472.86,-611.05 276.83,-521.46 187.71,-480.73"/>
<polygon fill="black" stroke="black" points="188.95,-477.46 178.4,-476.48 186.04,-483.82 188.95,-477.46"/>
</g>
<!-- u6 -->
<g id="node3" class="node">
<title>u6</title>
<ellipse fill="#ffffbb" stroke="black" cx="723.34" cy="-459" rx="115.88" ry="18"/>
<text text-anchor="middle" x="723.34" y="-455.3" font-family="Times,serif" font-size="14.00">Theory.Drasil.GenDefn</text>
</g>
<!-- u8&#45;&gt;u6 -->
<g id="edge10" class="edge">
<title>u8&#45;&gt;u6</title>
<path fill="none" stroke="black" d="M595.95,-645.13C620.38,-609.63 677.19,-527.06 705.97,-485.24"/>
<polygon fill="black" stroke="black" points="708.88,-487.19 711.66,-476.97 703.11,-483.22 708.88,-487.19"/>
</g>
<!-- u5 -->
<g id="node4" class="node">
<title>u5</title>
<ellipse fill="#ffffbb" stroke="black" cx="446.34" cy="-459" rx="143.77" ry="18"/>
<text text-anchor="middle" x="446.34" y="-455.3" font-family="Times,serif" font-size="14.00">Theory.Drasil.InstanceModel</text>
</g>
<!-- u8&#45;&gt;u5 -->
<g id="edge9" class="edge">
<title>u8&#45;&gt;u5</title>
<path fill="none" stroke="black" d="M572.81,-645.13C548.56,-609.63 492.15,-527.06 463.58,-485.24"/>
<polygon fill="black" stroke="black" points="466.46,-483.25 457.93,-476.97 460.68,-487.2 466.46,-483.25"/>
</g>
<!-- u4 -->
<g id="node5" class="node">
<title>u4</title>
<ellipse fill="#ffffbb" stroke="black" cx="964.34" cy="-459" rx="107.48" ry="18"/>
<text text-anchor="middle" x="964.34" y="-455.3" font-family="Times,serif" font-size="14.00">Theory.Drasil.Theory</text>
</g>
<!-- u8&#45;&gt;u4 -->
<g id="edge8" class="edge">
<title>u8&#45;&gt;u4</title>
<path fill="none" stroke="black" d="M613.52,-646.48C681.08,-610.58 848.25,-521.71 924.85,-480.99"/>
<polygon fill="black" stroke="black" points="926.55,-484.05 933.73,-476.27 923.26,-477.87 926.55,-484.05"/>
</g>
<!-- u0 -->
<g id="node9" class="node">
<title>u0</title>
<ellipse fill="#ffffbb" stroke="black" cx="294.34" cy="-255" rx="110.48" ry="18"/>
<text text-anchor="middle" x="294.34" y="-251.3" font-family="Times,serif" font-size="14.00">Theory.Drasil.Classes</text>
</g>
<!-- u7&#45;&gt;u0 -->
<g id="edge7" class="edge">
<title>u7&#45;&gt;u0</title>
<path fill="none" stroke="black" d="M155.3,-440.78C182.17,-405.06 244.08,-322.78 275.42,-281.13"/>
<polygon fill="black" stroke="black" points="278.41,-282.99 281.63,-272.89 272.82,-278.78 278.41,-282.99"/>
</g>
<!-- u2 -->
<g id="node7" class="node">
<title>u2</title>
<ellipse fill="#ffffbb" stroke="black" cx="723.34" cy="-255" rx="129.98" ry="18"/>
<text text-anchor="middle" x="723.34" y="-251.3" font-family="Times,serif" font-size="14.00">Theory.Drasil.ModelKinds</text>
</g>
<!-- u6&#45;&gt;u2 -->
<g id="edge6" class="edge">
<title>u6&#45;&gt;u2</title>
<path fill="none" stroke="black" d="M723.34,-440.78C723.34,-405.67 723.34,-325.59 723.34,-283.31"/>
<polygon fill="black" stroke="black" points="726.84,-283.18 723.34,-273.18 719.84,-283.18 726.84,-283.18"/>
</g>
<!-- u5&#45;&gt;u2 -->
<g id="edge5" class="edge">
<title>u5&#45;&gt;u2</title>
<path fill="none" stroke="black" d="M469.48,-441.13C519.07,-404.96 635.66,-319.94 691.9,-278.92"/>
<polygon fill="black" stroke="black" points="694.05,-281.69 700.07,-272.97 689.93,-276.03 694.05,-281.69"/>
</g>
<!-- u5&#45;&gt;u0 -->
<g id="edge4" class="edge">
<title>u5&#45;&gt;u0</title>
<path fill="none" stroke="black" d="M433.38,-440.78C406.5,-405.06 344.59,-322.78 313.25,-281.13"/>
<polygon fill="black" stroke="black" points="315.86,-278.78 307.05,-272.89 310.27,-282.99 315.86,-278.78"/>
</g>
<!-- u4&#45;&gt;u2 -->
<g id="edge3" class="edge">
<title>u4&#45;&gt;u2</title>
<path fill="none" stroke="black" d="M944.2,-441.13C901.23,-405.11 800.45,-320.64 751.29,-279.43"/>
<polygon fill="black" stroke="black" points="753.49,-276.71 743.58,-272.97 749,-282.08 753.49,-276.71"/>
</g>
<!-- u3 -->
<g id="node6" class="node">
<title>u3</title>
<ellipse fill="#ffffbb" stroke="black" cx="583.34" cy="-51" rx="122.38" ry="18"/>
<text text-anchor="middle" x="583.34" y="-47.3" font-family="Times,serif" font-size="14.00">Theory.Drasil.MultiDefn</text>
</g>
<!-- u2&#45;&gt;u3 -->
<g id="edge2" class="edge">
<title>u2&#45;&gt;u3</title>
<path fill="none" stroke="black" d="M711.4,-236.78C686.71,-201.15 629.91,-119.19 600.97,-77.45"/>
<polygon fill="black" stroke="black" points="603.82,-75.4 595.24,-69.18 598.06,-79.39 603.82,-75.4"/>
</g>
<!-- u1 -->
<g id="node8" class="node">
<title>u1</title>
<ellipse fill="#ffffbb" stroke="black" cx="863.34" cy="-51" rx="139.98" ry="18"/>
<text text-anchor="middle" x="863.34" y="-47.3" font-family="Times,serif" font-size="14.00">Theory.Drasil.ConstraintSet</text>
</g>
<!-- u2&#45;&gt;u1 -->
<g id="edge1" class="edge">
<title>u2&#45;&gt;u1</title>
<path fill="none" stroke="black" d="M735.27,-236.78C759.97,-201.15 816.77,-119.19 845.7,-77.45"/>
<polygon fill="black" stroke="black" points="848.61,-79.39 851.43,-69.18 842.86,-75.4 848.61,-79.39"/>
</g>
</g>
</svg>
