<?xml version="1.0" encoding="UTF-8" standalone="no"?>
<!DOCTYPE svg PUBLIC "-//W3C//DTD SVG 1.1//EN"
 "http://www.w3.org/Graphics/SVG/1.1/DTD/svg11.dtd">
<!-- Generated by graphviz version 2.43.0 (0)
 -->
<!-- Title: G Pages: 1 -->
<svg width="431pt" height="288pt"
 viewBox="0.00 0.00 430.84 288.00" xmlns="http://www.w3.org/2000/svg" xmlns:xlink="http://www.w3.org/1999/xlink">
<g id="graph0" class="graph" transform="scale(0.3 0.3) rotate(0) translate(4 958.67)">
<title>G</title>
<polygon fill="white" stroke="transparent" points="-4,4 -4,-958.67 1436.12,-958.67 1436.12,4 -4,4"/>
<!-- u0 -->
<g id="node1" class="node">
<title>u0</title>
<ellipse fill="#bbffbb" stroke="black" cx="398.64" cy="-886" rx="89.08" ry="18"/>
<text text-anchor="middle" x="398.64" y="-882.3" font-family="Times,serif" font-size="14.00">Drasil.Generator</text>
</g>
<!-- u8 -->
<g id="node4" class="node">
<title>u8</title>
<ellipse fill="#ffffbb" stroke="black" cx="143.64" cy="-614" rx="143.77" ry="18"/>
<text text-anchor="middle" x="143.64" y="-610.3" font-family="Times,serif" font-size="14.00">Drasil.Generator.LessonPlan</text>
</g>
<!-- u0&#45;&gt;u8 -->
<g id="edge4" class="edge">
<title>u0&#45;&gt;u8</title>
<path fill="none" stroke="black" d="M382.69,-868.11C339.14,-822 218.09,-693.83 166.93,-639.67"/>
<polygon fill="black" stroke="black" points="169.32,-637.1 159.91,-632.23 164.23,-641.9 169.32,-637.1"/>
</g>
<!-- u7 -->
<g id="node5" class="node">
<title>u7</title>
<ellipse fill="#ffffbb" stroke="black" cx="222.64" cy="-341" rx="128.08" ry="18"/>
<text text-anchor="middle" x="222.64" y="-337.3" font-family="Times,serif" font-size="14.00">Drasil.Generator.Website</text>
</g>
<!-- u0&#45;&gt;u7 -->
<g id="edge3" class="edge">
<title>u0&#45;&gt;u7</title>
<path fill="none" stroke="black" d="M393.08,-867.85C367.65,-789.41 262.33,-464.47 231.29,-368.69"/>
<polygon fill="black" stroke="black" points="234.61,-367.59 228.2,-359.15 227.95,-369.74 234.61,-367.59"/>
</g>
<!-- u3 -->
<g id="node7" class="node">
<title>u3</title>
<ellipse fill="#ffffbb" stroke="black" cx="482.64" cy="-614" rx="139.18" ry="18"/>
<text text-anchor="middle" x="482.64" y="-610.3" font-family="Times,serif" font-size="14.00">Drasil.Generator.Composed</text>
</g>
<!-- u0&#45;&gt;u3 -->
<g id="edge2" class="edge">
<title>u0&#45;&gt;u3</title>
<path fill="none" stroke="black" d="M404.02,-867.7C418.27,-821.88 457.08,-697.15 474.26,-641.93"/>
<polygon fill="black" stroke="black" points="477.67,-642.74 477.3,-632.16 470.99,-640.67 477.67,-642.74"/>
</g>
<!-- u1 -->
<g id="node9" class="node">
<title>u1</title>
<ellipse fill="#ffffbb" stroke="black" cx="822.64" cy="-614" rx="182.77" ry="18"/>
<text text-anchor="middle" x="822.64" y="-610.3" font-family="Times,serif" font-size="14.00">Drasil.Generator.CommonKnowledge</text>
</g>
<!-- u0&#45;&gt;u1 -->
<g id="edge1" class="edge">
<title>u0&#45;&gt;u1</title>
<path fill="none" stroke="black" d="M424.21,-868.72C496.85,-822.46 704.55,-690.2 787.65,-637.28"/>
<polygon fill="black" stroke="black" points="789.67,-640.14 796.22,-631.82 785.91,-634.24 789.67,-640.14"/>
</g>
<!-- u10 -->
<g id="node2" class="node">
<title>u10</title>
<ellipse fill="#ffffbb" stroke="black" cx="482.64" cy="-341" rx="114.28" ry="18"/>
<text text-anchor="middle" x="482.64" y="-337.3" font-family="Times,serif" font-size="14.00">Drasil.Generator.Code</text>
</g>
<!-- u9 -->
<g id="node3" class="node">
<title>u9</title>
<ellipse fill="#ffffbb" stroke="black" cx="518.64" cy="-68" rx="148.37" ry="18"/>
<text text-anchor="middle" x="518.64" y="-64.3" font-family="Times,serif" font-size="14.00">Drasil.Generator.ChunkDump</text>
</g>
<!-- u6 -->
<g id="node6" class="node">
<title>u6</title>
<ellipse fill="#ffffbb" stroke="black" cx="222.64" cy="-68" rx="129.18" ry="18"/>
<text text-anchor="middle" x="222.64" y="-64.3" font-family="Times,serif" font-size="14.00">Drasil.Generator.Formats</text>
</g>
<!-- u7&#45;&gt;u6 -->
<g id="edge11" class="edge">
<title>u7&#45;&gt;u6</title>
<path fill="none" stroke="black" d="M222.64,-322.64C222.64,-276.75 222.64,-151.98 222.64,-96.37"/>
<polygon fill="black" stroke="black" points="226.14,-96.22 222.64,-86.22 219.14,-96.22 226.14,-96.22"/>
</g>
<!-- u3&#45;&gt;u10 -->
<g id="edge10" class="edge">
<title>u3&#45;&gt;u10</title>
<path fill="none" stroke="black" d="M482.64,-595.64C482.64,-549.75 482.64,-424.98 482.64,-369.37"/>
<polygon fill="black" stroke="black" points="486.14,-369.22 482.64,-359.22 479.14,-369.22 486.14,-369.22"/>
</g>
<!-- u2 -->
<g id="node8" class="node">
<title>u2</title>
<ellipse fill="#ffffbb" stroke="black" cx="725.64" cy="-341" rx="110.48" ry="18"/>
<text text-anchor="middle" x="725.64" y="-337.3" font-family="Times,serif" font-size="14.00">Drasil.Generator.SRS</text>
</g>
<!-- u3&#45;&gt;u2 -->
<g id="edge9" class="edge">
<title>u3&#45;&gt;u2</title>
<path fill="none" stroke="black" d="M497.84,-596.05C539.35,-549.76 654.77,-421.04 703.49,-366.7"/>
<polygon fill="black" stroke="black" points="706.37,-368.73 710.44,-358.95 701.16,-364.05 706.37,-368.73"/>
</g>
<!-- u2&#45;&gt;u9 -->
<g id="edge8" class="edge">
<title>u2&#45;&gt;u9</title>
<path fill="none" stroke="black" d="M712.69,-323.05C677.4,-276.85 579.41,-148.57 537.76,-94.04"/>
<polygon fill="black" stroke="black" points="540.43,-91.77 531.58,-85.95 534.87,-96.02 540.43,-91.77"/>
</g>
<!-- u2&#45;&gt;u6 -->
<g id="edge7" class="edge">
<title>u2&#45;&gt;u6</title>
<path fill="none" stroke="black" d="M695.31,-323.66C608.58,-276.93 359.55,-142.76 262.26,-90.35"/>
<polygon fill="black" stroke="black" points="263.79,-87.2 253.33,-85.54 260.47,-93.36 263.79,-87.2"/>
</g>
<!-- u5 -->
<g id="node10" class="node">
<title>u5</title>
<ellipse fill="#bbbbff" stroke="black" cx="847.64" cy="-68" rx="163.27" ry="18"/>
<text text-anchor="middle" x="847.64" y="-64.3" font-family="Times,serif" font-size="14.00">Drasil.Generator.SRS.TypeCheck</text>
</g>
<!-- u2&#45;&gt;u5 -->
<g id="edge6" class="edge">
<title>u2&#45;&gt;u5</title>
<path fill="none" stroke="black" d="M733.45,-322.64C754.24,-276.46 810.99,-150.41 835.78,-95.34"/>
<polygon fill="black" stroke="black" points="838.97,-96.78 839.89,-86.22 832.59,-93.9 838.97,-96.78"/>
</g>
<!-- u4 -->
<g id="node11" class="node">
<title>u4</title>
<ellipse fill="#bbbbff" stroke="black" cx="1230.64" cy="-68" rx="201.46" ry="18"/>
<text text-anchor="middle" x="1230.64" y="-64.3" font-family="Times,serif" font-size="14.00">Drasil.Generator.SRS.TraceabilityGraphs</text>
</g>
<!-- u2&#45;&gt;u4 -->
<g id="edge5" class="edge">
<title>u2&#45;&gt;u4</title>
<path fill="none" stroke="black" d="M756.09,-323.66C842.96,-277.04 1091.99,-143.4 1190.16,-90.72"/>
<polygon fill="black" stroke="black" points="1192.02,-93.69 1199.18,-85.88 1188.71,-87.53 1192.02,-93.69"/>
</g>
</g>
</svg>
