<?xml version="1.0" encoding="UTF-8" standalone="no"?>
<!DOCTYPE svg PUBLIC "-//W3C//DTD SVG 1.1//EN"
 "http://www.w3.org/Graphics/SVG/1.1/DTD/svg11.dtd">
<!-- Generated by graphviz version 2.43.0 (0)
 -->
<!-- Title: G Pages: 1 -->
<svg width="431pt" height="288pt"
 viewBox="0.00 0.00 431.10 288.00" xmlns="http://www.w3.org/2000/svg" xmlns:xlink="http://www.w3.org/1999/xlink">
<g id="graph0" class="graph" transform="scale(0.28 0.28) rotate(0) translate(4 1010)">
<title>G</title>
<polygon fill="white" stroke="transparent" points="-4,4 -4,-1010 1513.82,-1010 1513.82,4 -4,4"/>
<!-- u0 -->
<g id="node1" class="node">
<title>u0</title>
<ellipse fill="#bbffbb" stroke="black" cx="1032.19" cy="-934" rx="89.08" ry="18"/>
<text text-anchor="middle" x="1032.19" y="-930.3" font-family="Times,serif" font-size="14.00">Drasil.Generator</text>
</g>
<!-- u8 -->
<g id="node2" class="node">
<title>u8</title>
<ellipse fill="#ffffbb" stroke="black" cx="648.19" cy="-647" rx="143.77" ry="18"/>
<text text-anchor="middle" x="648.19" y="-643.3" font-family="Times,serif" font-size="14.00">Drasil.Generator.LessonPlan</text>
</g>
<!-- u0&#45;&gt;u8 -->
<g id="edge4" class="edge">
<title>u0&#45;&gt;u8</title>
<path fill="none" stroke="black" d="M1009.88,-916.45C944.69,-868.06 754.32,-726.77 679.2,-671.01"/>
<polygon fill="black" stroke="black" points="681.15,-668.11 671.04,-664.96 676.98,-673.73 681.15,-668.11"/>
</g>
<!-- u6 -->
<g id="node4" class="node">
<title>u6</title>
<ellipse fill="#ffffbb" stroke="black" cx="949.19" cy="-647" rx="139.18" ry="18"/>
<text text-anchor="middle" x="949.19" y="-643.3" font-family="Times,serif" font-size="14.00">Drasil.Generator.Composed</text>
</g>
<!-- u0&#45;&gt;u6 -->
<g id="edge3" class="edge">
<title>u0&#45;&gt;u6</title>
<path fill="none" stroke="black" d="M1027.24,-916.03C1013.38,-868.42 974.04,-733.32 957.1,-675.17"/>
<polygon fill="black" stroke="black" points="960.37,-673.87 954.21,-665.25 953.65,-675.83 960.37,-673.87"/>
</g>
<!-- u4 -->
<g id="node6" class="node">
<title>u4</title>
<ellipse fill="#ffffbb" stroke="black" cx="1209.19" cy="-359" rx="128.08" ry="18"/>
<text text-anchor="middle" x="1209.19" y="-355.3" font-family="Times,serif" font-size="14.00">Drasil.Generator.Website</text>
</g>
<!-- u0&#45;&gt;u4 -->
<g id="edge2" class="edge">
<title>u0&#45;&gt;u4</title>
<path fill="none" stroke="black" d="M1037.48,-915.85C1062.65,-834.38 1170.19,-486.26 1200.94,-386.7"/>
<polygon fill="black" stroke="black" points="1204.3,-387.67 1203.91,-377.08 1197.61,-385.6 1204.3,-387.67"/>
</g>
<!-- u2 -->
<g id="node8" class="node">
<title>u2</title>
<ellipse fill="#ffffbb" stroke="black" cx="1327.19" cy="-647" rx="182.77" ry="18"/>
<text text-anchor="middle" x="1327.19" y="-643.3" font-family="Times,serif" font-size="14.00">Drasil.Generator.CommonKnowledge</text>
</g>
<!-- u0&#45;&gt;u2 -->
<g id="edge1" class="edge">
<title>u0&#45;&gt;u2</title>
<path fill="none" stroke="black" d="M1049.76,-916.03C1099.85,-867.63 1243.54,-728.81 1301.99,-672.34"/>
<polygon fill="black" stroke="black" points="1304.58,-674.71 1309.34,-665.25 1299.71,-669.68 1304.58,-674.71"/>
</g>
<!-- u7 -->
<g id="node3" class="node">
<title>u7</title>
<ellipse fill="#ffffbb" stroke="black" cx="706.19" cy="-359" rx="110.48" ry="18"/>
<text text-anchor="middle" x="706.19" y="-355.3" font-family="Times,serif" font-size="14.00">Drasil.Generator.SRS</text>
</g>
<!-- u5 -->
<g id="node5" class="node">
<title>u5</title>
<ellipse fill="#ffffbb" stroke="black" cx="1209.19" cy="-72" rx="129.18" ry="18"/>
<text text-anchor="middle" x="1209.19" y="-68.3" font-family="Times,serif" font-size="14.00">Drasil.Generator.Formats</text>
</g>
<!-- u7&#45;&gt;u5 -->
<g id="edge9" class="edge">
<title>u7&#45;&gt;u5</title>
<path fill="none" stroke="black" d="M735.4,-341.45C821.53,-292.65 1074.39,-149.37 1171.03,-94.62"/>
<polygon fill="black" stroke="black" points="1172.91,-97.58 1179.89,-89.6 1169.46,-91.48 1172.91,-97.58"/>
</g>
<!-- u3 -->
<g id="node7" class="node">
<title>u3</title>
<ellipse fill="#ffffbb" stroke="black" cx="148.19" cy="-72" rx="148.37" ry="18"/>
<text text-anchor="middle" x="148.19" y="-68.3" font-family="Times,serif" font-size="14.00">Drasil.Generator.ChunkDump</text>
</g>
<!-- u7&#45;&gt;u3 -->
<g id="edge8" class="edge">
<title>u7&#45;&gt;u3</title>
<path fill="none" stroke="black" d="M674.18,-341.65C578.87,-292.97 296.9,-148.95 189.95,-94.33"/>
<polygon fill="black" stroke="black" points="191.26,-91.07 180.76,-89.64 188.07,-97.3 191.26,-91.07"/>
</g>
<!-- u10 -->
<g id="node10" class="node">
<title>u10</title>
<ellipse fill="#bbbbff" stroke="black" cx="516.19" cy="-72" rx="201.46" ry="18"/>
<text text-anchor="middle" x="516.19" y="-68.3" font-family="Times,serif" font-size="14.00">Drasil.Generator.SRS.TraceabilityGraphs</text>
</g>
<!-- u7&#45;&gt;u10 -->
<g id="edge11" class="edge">
<title>u7&#45;&gt;u10</title>
<path fill="none" stroke="black" d="M694.87,-341.03C662.87,-293.02 571.57,-156.07 533.35,-98.74"/>
<polygon fill="black" stroke="black" points="536.14,-96.62 527.68,-90.25 530.32,-100.51 536.14,-96.62"/>
</g>
<!-- u9 -->
<g id="node11" class="node">
<title>u9</title>
<ellipse fill="#bbbbff" stroke="black" cx="899.19" cy="-72" rx="163.27" ry="18"/>
<text text-anchor="middle" x="899.19" y="-68.3" font-family="Times,serif" font-size="14.00">Drasil.Generator.SRS.TypeCheck</text>
</g>
<!-- u7&#45;&gt;u9 -->
<g id="edge10" class="edge">
<title>u7&#45;&gt;u9</title>
<path fill="none" stroke="black" d="M717.68,-341.03C750.19,-293.02 842.93,-156.07 881.76,-98.74"/>
<polygon fill="black" stroke="black" points="884.8,-100.49 887.51,-90.25 879,-96.56 884.8,-100.49"/>
</g>
<!-- u6&#45;&gt;u7 -->
<g id="edge7" class="edge">
<title>u6&#45;&gt;u7</title>
<path fill="none" stroke="black" d="M934.71,-628.97C893.52,-580.48 775.5,-441.58 727.19,-384.72"/>
<polygon fill="black" stroke="black" points="729.73,-382.3 720.58,-376.94 724.39,-386.83 729.73,-382.3"/>
</g>
<!-- u1 -->
<g id="node9" class="node">
<title>u1</title>
<ellipse fill="#ffffbb" stroke="black" cx="949.19" cy="-359" rx="114.28" ry="18"/>
<text text-anchor="middle" x="949.19" y="-355.3" font-family="Times,serif" font-size="14.00">Drasil.Generator.Code</text>
</g>
<!-- u6&#45;&gt;u1 -->
<g id="edge6" class="edge">
<title>u6&#45;&gt;u1</title>
<path fill="none" stroke="black" d="M949.19,-628.97C949.19,-581.29 949.19,-446.18 949.19,-387.63"/>
<polygon fill="black" stroke="black" points="952.69,-387.31 949.19,-377.31 945.69,-387.31 952.69,-387.31"/>
</g>
<!-- u4&#45;&gt;u5 -->
<g id="edge5" class="edge">
<title>u4&#45;&gt;u5</title>
<path fill="none" stroke="black" d="M1209.19,-340.6C1209.19,-292.69 1209.19,-158.53 1209.19,-100.42"/>
<polygon fill="black" stroke="black" points="1212.69,-100.17 1209.19,-90.17 1205.69,-100.17 1212.69,-100.17"/>
</g>
</g>
</svg>
