<?xml version="1.0" encoding="UTF-8" standalone="no"?>
<!DOCTYPE svg PUBLIC "-//W3C//DTD SVG 1.1//EN"
 "http://www.w3.org/Graphics/SVG/1.1/DTD/svg11.dtd">
<!-- Generated by graphviz version 2.43.0 (0)
 -->
<!-- Title: G Pages: 1 -->
<svg width="431pt" height="288pt"
 viewBox="0.00 0.00 430.64 288.00" xmlns="http://www.w3.org/2000/svg" xmlns:xlink="http://www.w3.org/1999/xlink">
<g id="graph0" class="graph" transform="scale(2.66 2.66) rotate(0) translate(4 762.67)">
<title>G</title>
<polygon fill="white" stroke="transparent" points="-4,4 -4,-762.67 1142.37,-762.67 1142.37,4 -4,4"/>
<!-- u6 -->
<g id="node1" class="node">
<title>u6</title>
<ellipse fill="#bbffbb" stroke="black" cx="580.09" cy="-704" rx="34.39" ry="18"/>
<text text-anchor="middle" x="580.09" y="-700.3" font-family="Times,serif" font-size="14.00">Main</text>
</g>
<!-- u5 -->
<g id="node2" class="node">
<title>u5</title>
<ellipse fill="#ffffbb" stroke="black" cx="580.09" cy="-488" rx="104.78" ry="18"/>
<text text-anchor="middle" x="580.09" y="-484.3" font-family="Times,serif" font-size="14.00">Drasil.Website.Body</text>
</g>
<!-- u6&#45;&gt;u5 -->
<g id="edge6" class="edge">
<title>u6&#45;&gt;u5</title>
<path fill="none" stroke="black" d="M580.09,-685.85C580.09,-648.83 580.09,-561.18 580.09,-516.39"/>
<polygon fill="black" stroke="black" points="583.59,-516.23 580.09,-506.23 576.59,-516.23 583.59,-516.23"/>
</g>
<!-- u4 -->
<g id="node3" class="node">
<title>u4</title>
<ellipse fill="#ffffbb" stroke="black" cx="152.09" cy="-271" rx="152.17" ry="18"/>
<text text-anchor="middle" x="152.09" y="-267.3" font-family="Times,serif" font-size="14.00">Drasil.Website.Documentation</text>
</g>
<!-- u5&#45;&gt;u4 -->
<g id="edge5" class="edge">
<title>u5&#45;&gt;u4</title>
<path fill="none" stroke="black" d="M547.92,-470.84C471.65,-432.53 279.88,-336.19 194.37,-293.24"/>
<polygon fill="black" stroke="black" points="195.72,-290 185.22,-288.64 192.58,-296.26 195.72,-290"/>
</g>
<!-- u3 -->
<g id="node4" class="node">
<title>u3</title>
<ellipse fill="#ffffbb" stroke="black" cx="442.09" cy="-271" rx="120.48" ry="18"/>
<text text-anchor="middle" x="442.09" y="-267.3" font-family="Times,serif" font-size="14.00">Drasil.Website.Analysis</text>
</g>
<!-- u5&#45;&gt;u3 -->
<g id="edge4" class="edge">
<title>u5&#45;&gt;u3</title>
<path fill="none" stroke="black" d="M569.03,-469.77C544.79,-432.01 486.91,-341.83 458.45,-297.49"/>
<polygon fill="black" stroke="black" points="461.35,-295.54 453.01,-289.01 455.46,-299.32 461.35,-295.54"/>
</g>
<!-- u2 -->
<g id="node5" class="node">
<title>u2</title>
<ellipse fill="#ffffbb" stroke="black" cx="719.09" cy="-271" rx="139.18" ry="18"/>
<text text-anchor="middle" x="719.09" y="-267.3" font-family="Times,serif" font-size="14.00">Drasil.Website.Introduction</text>
</g>
<!-- u5&#45;&gt;u2 -->
<g id="edge3" class="edge">
<title>u5&#45;&gt;u2</title>
<path fill="none" stroke="black" d="M591.23,-469.77C615.64,-432.01 673.94,-341.83 702.6,-297.49"/>
<polygon fill="black" stroke="black" points="705.6,-299.31 708.09,-289.01 699.72,-295.51 705.6,-299.31"/>
</g>
<!-- u0 -->
<g id="node7" class="node">
<title>u0</title>
<ellipse fill="#ffffbb" stroke="black" cx="1007.09" cy="-271" rx="131.08" ry="18"/>
<text text-anchor="middle" x="1007.09" y="-267.3" font-family="Times,serif" font-size="14.00">Drasil.Website.CaseStudy</text>
</g>
<!-- u5&#45;&gt;u0 -->
<g id="edge2" class="edge">
<title>u5&#45;&gt;u0</title>
<path fill="none" stroke="black" d="M612.18,-470.84C688.36,-432.48 880.06,-335.96 965.21,-293.08"/>
<polygon fill="black" stroke="black" points="966.97,-296.12 974.33,-288.49 963.82,-289.87 966.97,-296.12"/>
</g>
<!-- u1 -->
<g id="node6" class="node">
<title>u1</title>
<ellipse fill="#ffffbb" stroke="black" cx="1007.09" cy="-54" rx="122.38" ry="18"/>
<text text-anchor="middle" x="1007.09" y="-50.3" font-family="Times,serif" font-size="14.00">Drasil.Website.Example</text>
</g>
<!-- u0&#45;&gt;u1 -->
<g id="edge1" class="edge">
<title>u0&#45;&gt;u1</title>
<path fill="none" stroke="black" d="M1007.09,-252.77C1007.09,-215.49 1007.09,-127.08 1007.09,-82.18"/>
<polygon fill="black" stroke="black" points="1010.59,-82.01 1007.09,-72.01 1003.59,-82.01 1010.59,-82.01"/>
</g>
</g>
</svg>
