<?xml version="1.0" encoding="UTF-8" standalone="no"?>
<!DOCTYPE svg PUBLIC "-//W3C//DTD SVG 1.1//EN"
 "http://www.w3.org/Graphics/SVG/1.1/DTD/svg11.dtd">
<!-- Generated by graphviz version 2.43.0 (0)
 -->
<!-- Title: G Pages: 1 -->
<svg width="432pt" height="287pt"
 viewBox="0.00 0.00 432.00 286.70" xmlns="http://www.w3.org/2000/svg" xmlns:xlink="http://www.w3.org/1999/xlink">
<g id="graph0" class="graph" transform="scale(12.51 12.51) rotate(0) translate(4 3581.33)">
<title>G</title>
<polygon fill="white" stroke="transparent" points="-4,4 -4,-3581.33 5398.39,-3581.33 5398.39,4 -4,4"/>
<!-- u5 -->
<g id="node1" class="node">
<title>u5</title>
<ellipse fill="#bbffbb" stroke="black" cx="62.39" cy="-3022" rx="42.49" ry="18"/>
<text text-anchor="middle" x="62.39" y="-3018.3" font-family="Times,serif" font-size="14.00">Helper</text>
</g>
<!-- u4 -->
<g id="node2" class="node">
<title>u4</title>
<ellipse fill="#bbffbb" stroke="black" cx="253.39" cy="-3022" rx="53.89" ry="18"/>
<text text-anchor="middle" x="253.39" y="-3018.3" font-family="Times,serif" font-size="14.00">Observer</text>
</g>
<!-- u3 -->
<g id="node3" class="node">
<title>u3</title>
<ellipse fill="#bbffbb" stroke="black" cx="195.39" cy="-3269" rx="52.79" ry="18"/>
<text text-anchor="middle" x="195.39" y="-3265.3" font-family="Times,serif" font-size="14.00">FileTests</text>
</g>
<!-- u2 -->
<g id="node4" class="node">
<title>u2</title>
<ellipse fill="#bbffbb" stroke="black" cx="263.39" cy="-3516" rx="34.39" ry="18"/>
<text text-anchor="middle" x="263.39" y="-3512.3" font-family="Times,serif" font-size="14.00">Main</text>
</g>
<!-- u2&#45;&gt;u3 -->
<g id="edge5" class="edge">
<title>u2&#45;&gt;u3</title>
<path fill="none" stroke="black" d="M258.72,-3498.16C247.12,-3456.37 216.95,-3347.65 202.85,-3296.87"/>
<polygon fill="black" stroke="black" points="206.15,-3295.66 200.1,-3286.96 199.4,-3297.53 206.15,-3295.66"/>
</g>
<!-- u1 -->
<g id="node5" class="node">
<title>u1</title>
<ellipse fill="#bbffbb" stroke="black" cx="331.39" cy="-3269" rx="64.99" ry="18"/>
<text text-anchor="middle" x="331.39" y="-3265.3" font-family="Times,serif" font-size="14.00">PatternTest</text>
</g>
<!-- u2&#45;&gt;u1 -->
<g id="edge4" class="edge">
<title>u2&#45;&gt;u1</title>
<path fill="none" stroke="black" d="M268.07,-3498.16C279.67,-3456.37 309.84,-3347.65 323.94,-3296.87"/>
<polygon fill="black" stroke="black" points="327.39,-3297.53 326.69,-3286.96 320.64,-3295.66 327.39,-3297.53"/>
</g>
<!-- u0 -->
<g id="node6" class="node">
<title>u0</title>
<ellipse fill="#bbffbb" stroke="black" cx="62.39" cy="-3269" rx="62.29" ry="18"/>
<text text-anchor="middle" x="62.39" y="-3265.3" font-family="Times,serif" font-size="14.00">HelloWorld</text>
</g>
<!-- u2&#45;&gt;u0 -->
<g id="edge3" class="edge">
<title>u2&#45;&gt;u0</title>
<path fill="none" stroke="black" d="M250.52,-3499.3C216.45,-3457.78 123.8,-3344.84 82.6,-3294.63"/>
<polygon fill="black" stroke="black" points="85.27,-3292.36 76.22,-3286.85 79.86,-3296.8 85.27,-3292.36"/>
</g>
<!-- u53 -->
<g id="node10" class="node">
<title>u53</title>
<ellipse fill="#bbbbff" stroke="black" cx="1749.39" cy="-3269" rx="113.18" ry="18"/>
<text text-anchor="middle" x="1749.39" y="-3265.3" font-family="Times,serif" font-size="14.00">Language.Drasil.Code</text>
</g>
<!-- u2&#45;&gt;u53 -->
<g id="edge6" class="edge">
<title>u2&#45;&gt;u53</title>
<path fill="none" stroke="black" d="M295.81,-3509.65C478.3,-3479.57 1379.27,-3331.02 1663.4,-3284.18"/>
<polygon fill="black" stroke="black" points="1664.35,-3287.57 1673.65,-3282.49 1663.22,-3280.66 1664.35,-3287.57"/>
</g>
<!-- u1&#45;&gt;u4 -->
<g id="edge2" class="edge">
<title>u1&#45;&gt;u4</title>
<path fill="none" stroke="black" d="M325.91,-3250.77C312.51,-3208.69 278.04,-3100.41 261.93,-3049.81"/>
<polygon fill="black" stroke="black" points="265.24,-3048.68 258.87,-3040.21 258.57,-3050.8 265.24,-3048.68"/>
</g>
<!-- u0&#45;&gt;u5 -->
<g id="edge1" class="edge">
<title>u0&#45;&gt;u5</title>
<path fill="none" stroke="black" d="M62.39,-3250.77C62.39,-3208.86 62.39,-3101.31 62.39,-3050.44"/>
<polygon fill="black" stroke="black" points="65.89,-3050.21 62.39,-3040.21 58.89,-3050.21 65.89,-3050.21"/>
</g>
<!-- u6 -->
<g id="node7" class="node">
<title>u6</title>
<ellipse fill="#ffffbb" stroke="black" cx="1749.39" cy="-3516" rx="214.46" ry="18"/>
<text text-anchor="middle" x="1749.39" y="-3512.3" font-family="Times,serif" font-size="14.00">Data.Drasil.ExternalLibraries.ODELibraries</text>
</g>
<!-- u6&#45;&gt;u53 -->
<g id="edge7" class="edge">
<title>u6&#45;&gt;u53</title>
<path fill="none" stroke="black" d="M1749.39,-3497.77C1749.39,-3455.86 1749.39,-3348.31 1749.39,-3297.44"/>
<polygon fill="black" stroke="black" points="1752.89,-3297.21 1749.39,-3287.21 1745.89,-3297.21 1752.89,-3297.21"/>
</g>
<!-- u55 -->
<g id="node8" class="node">
<title>u55</title>
<ellipse fill="#bbbbff" stroke="black" cx="3986.39" cy="-1542" rx="135.68" ry="18"/>
<text text-anchor="middle" x="3986.39" y="-1538.3" font-family="Times,serif" font-size="14.00">Language.Drasil.CodeSpec</text>
</g>
<!-- u52 -->
<g id="node11" class="node">
<title>u52</title>
<ellipse fill="#bbbbff" stroke="black" cx="3394.39" cy="-1295" rx="126.18" ry="18"/>
<text text-anchor="middle" x="3394.39" y="-1291.3" font-family="Times,serif" font-size="14.00">Language.Drasil.Choices</text>
</g>
<!-- u55&#45;&gt;u52 -->
<g id="edge88" class="edge">
<title>u55&#45;&gt;u52</title>
<path fill="none" stroke="black" d="M3947.09,-1524.74C3842.48,-1481.44 3557.4,-1363.46 3442.92,-1316.08"/>
<polygon fill="black" stroke="black" points="3444.26,-1312.85 3433.68,-1312.26 3441.58,-1319.32 3444.26,-1312.85"/>
</g>
<!-- u11 -->
<g id="node12" class="node">
<title>u11</title>
<ellipse fill="#ffbbbb" stroke="black" cx="3730.39" cy="-1295" rx="192.27" ry="18"/>
<text text-anchor="middle" x="3730.39" y="-1291.3" font-family="Times,serif" font-size="14.00">Language.Drasil.Chunk.ConstraintMap</text>
</g>
<!-- u55&#45;&gt;u11 -->
<g id="edge87" class="edge">
<title>u55&#45;&gt;u11</title>
<path fill="none" stroke="black" d="M3968.39,-1523.77C3923.68,-1480.98 3807.48,-1369.77 3755.81,-1320.32"/>
<polygon fill="black" stroke="black" points="3758.02,-1317.59 3748.38,-1313.21 3753.18,-1322.65 3758.02,-1317.59"/>
</g>
<!-- u9 -->
<g id="node14" class="node">
<title>u9</title>
<ellipse fill="#ffbbbb" stroke="black" cx="4131.39" cy="-1295" rx="191.17" ry="18"/>
<text text-anchor="middle" x="4131.39" y="-1291.3" font-family="Times,serif" font-size="14.00">Language.Drasil.Chunk.CodeDefinition</text>
</g>
<!-- u55&#45;&gt;u9 -->
<g id="edge86" class="edge">
<title>u55&#45;&gt;u9</title>
<path fill="none" stroke="black" d="M3996.59,-1523.77C4021.65,-1481.42 4086.39,-1372.05 4116.09,-1321.86"/>
<polygon fill="black" stroke="black" points="4119.13,-1323.6 4121.21,-1313.21 4113.1,-1320.03 4119.13,-1323.6"/>
</g>
<!-- u54 -->
<g id="node9" class="node">
<title>u54</title>
<ellipse fill="#bbbbff" stroke="black" cx="3955.39" cy="-555" rx="110.48" ry="18"/>
<text text-anchor="middle" x="3955.39" y="-551.3" font-family="Times,serif" font-size="14.00">Language.Drasil.Mod</text>
</g>
<!-- u7 -->
<g id="node16" class="node">
<title>u7</title>
<ellipse fill="#ffbbbb" stroke="black" cx="3560.39" cy="-308" rx="170.87" ry="18"/>
<text text-anchor="middle" x="3560.39" y="-304.3" font-family="Times,serif" font-size="14.00">Language.Drasil.Chunk.Parameter</text>
</g>
<!-- u54&#45;&gt;u7 -->
<g id="edge84" class="edge">
<title>u54&#45;&gt;u7</title>
<path fill="none" stroke="black" d="M3928.56,-537.35C3859.25,-494.37 3674.28,-379.64 3596.08,-331.14"/>
<polygon fill="black" stroke="black" points="3597.87,-328.13 3587.53,-325.83 3594.19,-334.08 3597.87,-328.13"/>
</g>
<!-- u19 -->
<g id="node19" class="node">
<title>u19</title>
<ellipse fill="#bbffff" stroke="black" cx="2685.39" cy="-308" rx="160.57" ry="18"/>
<text text-anchor="middle" x="2685.39" y="-304.3" font-family="Times,serif" font-size="14.00">Language.Drasil.Code.DataDesc</text>
</g>
<!-- u54&#45;&gt;u19 -->
<g id="edge85" class="edge">
<title>u54&#45;&gt;u19</title>
<path fill="none" stroke="black" d="M3887.11,-540.83C3672.39,-499.4 3010.99,-371.81 2772.37,-325.78"/>
<polygon fill="black" stroke="black" points="2772.84,-322.3 2762.36,-323.85 2771.51,-329.18 2772.84,-322.3"/>
</g>
<!-- u31 -->
<g id="node32" class="node">
<title>u31</title>
<ellipse fill="#ffbbff" stroke="black" cx="843.39" cy="-1789" rx="217.96" ry="18"/>
<text text-anchor="middle" x="843.39" y="-1785.3" font-family="Times,serif" font-size="14.00">Language.Drasil.Code.Imperative.ReadInput</text>
</g>
<!-- u53&#45;&gt;u31 -->
<g id="edge78" class="edge">
<title>u53&#45;&gt;u31</title>
<path fill="none" stroke="black" d="M1663.6,-3257.27C1357.24,-3216.6 335.39,-3059.77 335.39,-2777 335.39,-2777 335.39,-2777 335.39,-2281 335.39,-2029.41 661.52,-1865.77 791.16,-1810.66"/>
<polygon fill="black" stroke="black" points="792.66,-1813.83 800.52,-1806.73 789.95,-1807.38 792.66,-1813.83"/>
</g>
<!-- u26 -->
<g id="node37" class="node">
<title>u26</title>
<ellipse fill="#ffbbff" stroke="black" cx="4666.39" cy="-3022" rx="217.16" ry="18"/>
<text text-anchor="middle" x="4666.39" y="-3018.3" font-family="Times,serif" font-size="14.00">Language.Drasil.Code.Imperative.Generator</text>
</g>
<!-- u53&#45;&gt;u26 -->
<g id="edge77" class="edge">
<title>u53&#45;&gt;u26</title>
<path fill="none" stroke="black" d="M1846.86,-3259.81C2273.9,-3223.95 3981.82,-3080.5 4509.97,-3036.14"/>
<polygon fill="black" stroke="black" points="4510.27,-3039.63 4519.94,-3035.3 4509.68,-3032.65 4510.27,-3039.63"/>
</g>
<!-- u48 -->
<g id="node48" class="node">
<title>u48</title>
<ellipse fill="#ff7777" stroke="black" cx="2198.39" cy="-2776" rx="352.84" ry="18"/>
<text text-anchor="middle" x="2198.39" y="-2772.3" font-family="Times,serif" font-size="14.00">Language.Drasil.Code.Imperative.GOOL.LanguageRenderer.CppRenderer</text>
</g>
<!-- u53&#45;&gt;u48 -->
<g id="edge83" class="edge">
<title>u53&#45;&gt;u48</title>
<path fill="none" stroke="black" d="M1764.85,-3251.1C1831.77,-3177.92 2096.69,-2888.21 2175.91,-2801.59"/>
<polygon fill="black" stroke="black" points="2178.61,-2803.83 2182.77,-2794.08 2173.44,-2799.1 2178.61,-2803.83"/>
</g>
<!-- u47 -->
<g id="node49" class="node">
<title>u47</title>
<ellipse fill="#ff7777" stroke="black" cx="2928.39" cy="-2776" rx="358.54" ry="18"/>
<text text-anchor="middle" x="2928.39" y="-2772.3" font-family="Times,serif" font-size="14.00">Language.Drasil.Code.Imperative.GOOL.LanguageRenderer.SwiftRenderer</text>
</g>
<!-- u53&#45;&gt;u47 -->
<g id="edge82" class="edge">
<title>u53&#45;&gt;u47</title>
<path fill="none" stroke="black" d="M1787.95,-3251.94C1962.88,-3179.09 2681.86,-2879.67 2878.49,-2797.78"/>
<polygon fill="black" stroke="black" points="2879.84,-2801.01 2887.73,-2793.94 2877.15,-2794.55 2879.84,-2801.01"/>
</g>
<!-- u45 -->
<g id="node51" class="node">
<title>u45</title>
<ellipse fill="#ff7777" stroke="black" cx="3672.39" cy="-2776" rx="367.43" ry="18"/>
<text text-anchor="middle" x="3672.39" y="-2772.3" font-family="Times,serif" font-size="14.00">Language.Drasil.Code.Imperative.GOOL.LanguageRenderer.PythonRenderer</text>
</g>
<!-- u53&#45;&gt;u45 -->
<g id="edge81" class="edge">
<title>u53&#45;&gt;u45</title>
<path fill="none" stroke="black" d="M1806.42,-3253.44C2082.84,-3182.86 3282.71,-2876.5 3596.87,-2796.28"/>
<polygon fill="black" stroke="black" points="3597.97,-2799.62 3606.79,-2793.75 3596.24,-2792.83 3597.97,-2799.62"/>
</g>
<!-- u44 -->
<g id="node52" class="node">
<title>u44</title>
<ellipse fill="#ff7777" stroke="black" cx="717.39" cy="-2776" rx="354.44" ry="18"/>
<text text-anchor="middle" x="717.39" y="-2772.3" font-family="Times,serif" font-size="14.00">Language.Drasil.Code.Imperative.GOOL.LanguageRenderer.JavaRenderer</text>
</g>
<!-- u53&#45;&gt;u44 -->
<g id="edge80" class="edge">
<title>u53&#45;&gt;u44</title>
<path fill="none" stroke="black" d="M1715.35,-3251.8C1562.02,-3178.85 935.47,-2880.75 762.06,-2798.25"/>
<polygon fill="black" stroke="black" points="763.49,-2795.05 752.96,-2793.92 760.48,-2801.38 763.49,-2795.05"/>
</g>
<!-- u43 -->
<g id="node53" class="node">
<title>u43</title>
<ellipse fill="#ff7777" stroke="black" cx="1458.39" cy="-2776" rx="369.33" ry="18"/>
<text text-anchor="middle" x="1458.39" y="-2772.3" font-family="Times,serif" font-size="14.00">Language.Drasil.Code.Imperative.GOOL.LanguageRenderer.CSharpRenderer</text>
</g>
<!-- u53&#45;&gt;u43 -->
<g id="edge79" class="edge">
<title>u53&#45;&gt;u43</title>
<path fill="none" stroke="black" d="M1739.21,-3250.81C1695.77,-3177.53 1525.9,-2890.89 1473.72,-2802.86"/>
<polygon fill="black" stroke="black" points="1476.61,-2800.87 1468.5,-2794.05 1470.59,-2804.43 1476.61,-2800.87"/>
</g>
<!-- u18 -->
<g id="node20" class="node">
<title>u18</title>
<ellipse fill="#bbffff" stroke="black" cx="2925.39" cy="-1049" rx="139.98" ry="18"/>
<text text-anchor="middle" x="2925.39" y="-1045.3" font-family="Times,serif" font-size="14.00">Language.Drasil.Code.Code</text>
</g>
<!-- u52&#45;&gt;u18 -->
<g id="edge76" class="edge">
<title>u52&#45;&gt;u18</title>
<path fill="none" stroke="black" d="M3362.53,-1277.42C3279.81,-1234.39 3058.3,-1119.14 2966.31,-1071.29"/>
<polygon fill="black" stroke="black" points="2967.79,-1068.11 2957.31,-1066.6 2964.56,-1074.32 2967.79,-1068.11"/>
</g>
<!-- u12 -->
<g id="node56" class="node">
<title>u12</title>
<ellipse fill="#ff77ff" stroke="black" cx="3442.39" cy="-1049" rx="172.77" ry="18"/>
<text text-anchor="middle" x="3442.39" y="-1045.3" font-family="Times,serif" font-size="14.00">Language.Drasil.Data.ODELibPckg</text>
</g>
<!-- u52&#45;&gt;u12 -->
<g id="edge75" class="edge">
<title>u52&#45;&gt;u12</title>
<path fill="none" stroke="black" d="M3397.77,-1276.84C3406,-1235.02 3427.14,-1127.54 3437.08,-1077.01"/>
<polygon fill="black" stroke="black" points="3440.53,-1077.63 3439.02,-1067.14 3433.66,-1076.27 3440.53,-1077.63"/>
</g>
<!-- u10 -->
<g id="node13" class="node">
<title>u10</title>
<ellipse fill="#ffbbbb" stroke="black" cx="3131.39" cy="-62" rx="145.67" ry="18"/>
<text text-anchor="middle" x="3131.39" y="-58.3" font-family="Times,serif" font-size="14.00">Language.Drasil.Chunk.Code</text>
</g>
<!-- u13 -->
<g id="node55" class="node">
<title>u13</title>
<ellipse fill="#ff77ff" stroke="black" cx="3131.39" cy="-802" rx="154.07" ry="18"/>
<text text-anchor="middle" x="3131.39" y="-798.3" font-family="Times,serif" font-size="14.00">Language.Drasil.Data.ODEInfo</text>
</g>
<!-- u9&#45;&gt;u13 -->
<g id="edge9" class="edge">
<title>u9&#45;&gt;u13</title>
<path fill="none" stroke="black" d="M4035.59,-1279.35C3835.12,-1247.07 3380.06,-1164.89 3260.39,-1067 3183.4,-1004.02 3148.85,-883.81 3136.76,-830.1"/>
<polygon fill="black" stroke="black" points="3140.17,-829.31 3134.64,-820.28 3133.33,-830.79 3140.17,-829.31"/>
</g>
<!-- u8 -->
<g id="node15" class="node">
<title>u8</title>
<ellipse fill="#ffbbbb" stroke="black" cx="3624.39" cy="-555" rx="202.26" ry="18"/>
<text text-anchor="middle" x="3624.39" y="-551.3" font-family="Times,serif" font-size="14.00">Language.Drasil.Chunk.NamedArgument</text>
</g>
<!-- u7&#45;&gt;u10 -->
<g id="edge8" class="edge">
<title>u7&#45;&gt;u10</title>
<path fill="none" stroke="black" d="M3530.91,-290.23C3455.2,-247.17 3254.01,-132.74 3169.56,-84.71"/>
<polygon fill="black" stroke="black" points="3171.23,-81.63 3160.8,-79.73 3167.77,-87.71 3171.23,-81.63"/>
</g>
<!-- u21 -->
<g id="node17" class="node">
<title>u21</title>
<ellipse fill="#bbffff" stroke="black" cx="4206.39" cy="-802" rx="207.96" ry="18"/>
<text text-anchor="middle" x="4206.39" y="-798.3" font-family="Times,serif" font-size="14.00">Language.Drasil.Code.ExternalLibraryCall</text>
</g>
<!-- u21&#45;&gt;u54 -->
<g id="edge23" class="edge">
<title>u21&#45;&gt;u54</title>
<path fill="none" stroke="black" d="M4188.74,-783.77C4144.8,-740.88 4030.42,-629.23 3979.94,-579.96"/>
<polygon fill="black" stroke="black" points="3982.29,-577.36 3972.69,-572.88 3977.4,-582.37 3982.29,-577.36"/>
</g>
<!-- u21&#45;&gt;u8 -->
<g id="edge22" class="edge">
<title>u21&#45;&gt;u8</title>
<path fill="none" stroke="black" d="M4166.39,-784.16C4062.96,-740.62 3786.86,-624.39 3673.76,-576.78"/>
<polygon fill="black" stroke="black" points="3674.87,-573.45 3664.29,-572.8 3672.15,-579.9 3674.87,-573.45"/>
</g>
<!-- u20 -->
<g id="node18" class="node">
<title>u20</title>
<ellipse fill="#bbffff" stroke="black" cx="3229.39" cy="-2035" rx="204.16" ry="18"/>
<text text-anchor="middle" x="3229.39" y="-2031.3" font-family="Times,serif" font-size="14.00">Language.Drasil.Code.CodeQuantityDicts</text>
</g>
<!-- u19&#45;&gt;u10 -->
<g id="edge21" class="edge">
<title>u19&#45;&gt;u10</title>
<path fill="none" stroke="black" d="M2716.05,-290.23C2794.84,-247.13 3004.34,-132.51 3091.98,-84.56"/>
<polygon fill="black" stroke="black" points="3093.73,-87.6 3100.82,-79.73 3090.37,-81.46 3093.73,-87.6"/>
</g>
<!-- u17 -->
<g id="node21" class="node">
<title>u17</title>
<ellipse fill="#bbffff" stroke="black" cx="4248.39" cy="-2776" rx="191.17" ry="18"/>
<text text-anchor="middle" x="4248.39" y="-2772.3" font-family="Times,serif" font-size="14.00">Language.Drasil.Code.CodeGeneration</text>
</g>
<!-- u17&#45;&gt;u18 -->
<g id="edge19" class="edge">
<title>u17&#45;&gt;u18</title>
<path fill="none" stroke="black" d="M4172.23,-2759.41C3979.43,-2716.64 3464.45,-2581.44 3141.39,-2300 3048.01,-2218.64 2907.45,-1928.09 2881.39,-1807 2821.08,-1526.67 2895.25,-1175.36 2918.72,-1076.79"/>
<polygon fill="black" stroke="black" points="2922.13,-1077.58 2921.08,-1067.04 2915.33,-1075.94 2922.13,-1077.58"/>
</g>
<!-- u42 -->
<g id="node45" class="node">
<title>u42</title>
<ellipse fill="#7777ff" stroke="black" cx="2470.39" cy="-2529" rx="222.06" ry="18"/>
<text text-anchor="middle" x="2470.39" y="-2525.3" font-family="Times,serif" font-size="14.00">Language.Drasil.Code.Imperative.GOOL.Data</text>
</g>
<!-- u17&#45;&gt;u42 -->
<g id="edge20" class="edge">
<title>u17&#45;&gt;u42</title>
<path fill="none" stroke="black" d="M4145.44,-2760.81C3835.95,-2718.17 2915.17,-2591.29 2587.65,-2546.16"/>
<polygon fill="black" stroke="black" points="2588.04,-2542.68 2577.66,-2544.78 2587.09,-2549.61 2588.04,-2542.68"/>
</g>
<!-- u16 -->
<g id="node22" class="node">
<title>u16</title>
<ellipse fill="#bbffff" stroke="black" cx="4302.39" cy="-1049" rx="178.97" ry="18"/>
<text text-anchor="middle" x="4302.39" y="-1045.3" font-family="Times,serif" font-size="14.00">Language.Drasil.Code.ExtLibImport</text>
</g>
<!-- u16&#45;&gt;u21 -->
<g id="edge18" class="edge">
<title>u16&#45;&gt;u21</title>
<path fill="none" stroke="black" d="M4295.64,-1030.77C4279.15,-988.69 4236.72,-880.41 4216.9,-829.81"/>
<polygon fill="black" stroke="black" points="4220.04,-828.24 4213.14,-820.21 4213.53,-830.8 4220.04,-828.24"/>
</g>
<!-- u15 -->
<g id="node23" class="node">
<title>u15</title>
<ellipse fill="#bbffff" stroke="black" cx="3790.39" cy="-802" rx="190.37" ry="18"/>
<text text-anchor="middle" x="3790.39" y="-798.3" font-family="Times,serif" font-size="14.00">Language.Drasil.Code.ExternalLibrary</text>
</g>
<!-- u16&#45;&gt;u15 -->
<g id="edge17" class="edge">
<title>u16&#45;&gt;u15</title>
<path fill="none" stroke="black" d="M4267.2,-1031.16C4176.48,-987.75 3934.78,-872.09 3834.72,-824.21"/>
<polygon fill="black" stroke="black" points="3836.02,-820.95 3825.49,-819.8 3833,-827.27 3836.02,-820.95"/>
</g>
<!-- u15&#45;&gt;u54 -->
<g id="edge16" class="edge">
<title>u15&#45;&gt;u54</title>
<path fill="none" stroke="black" d="M3802,-783.77C3830.58,-741.34 3904.49,-631.59 3938.19,-581.55"/>
<polygon fill="black" stroke="black" points="3941.12,-583.46 3943.8,-573.21 3935.32,-579.55 3941.12,-583.46"/>
</g>
<!-- u15&#45;&gt;u8 -->
<g id="edge15" class="edge">
<title>u15&#45;&gt;u8</title>
<path fill="none" stroke="black" d="M3778.72,-783.77C3749.97,-741.34 3675.61,-631.59 3641.71,-581.55"/>
<polygon fill="black" stroke="black" points="3644.56,-579.52 3636.05,-573.21 3638.77,-583.45 3644.56,-579.52"/>
</g>
<!-- u14 -->
<g id="node24" class="node">
<title>u14</title>
<ellipse fill="#bbffff" stroke="black" cx="3442.39" cy="-802" rx="139.18" ry="18"/>
<text text-anchor="middle" x="3442.39" y="-798.3" font-family="Times,serif" font-size="14.00">Language.Drasil.Code.Lang</text>
</g>
<!-- u49 -->
<g id="node25" class="node">
<title>u49</title>
<ellipse fill="#ffbbff" stroke="black" cx="5139.39" cy="-2529" rx="226.66" ry="18"/>
<text text-anchor="middle" x="5139.39" y="-2525.3" font-family="Times,serif" font-size="14.00">Language.Drasil.Code.Imperative.SpaceMatch</text>
</g>
<!-- u33 -->
<g id="node30" class="node">
<title>u33</title>
<ellipse fill="#ffbbff" stroke="black" cx="4588.39" cy="-1789" rx="222.06" ry="18"/>
<text text-anchor="middle" x="4588.39" y="-1785.3" font-family="Times,serif" font-size="14.00">Language.Drasil.Code.Imperative.DrasilState</text>
</g>
<!-- u49&#45;&gt;u33 -->
<g id="edge73" class="edge">
<title>u49&#45;&gt;u33</title>
<path fill="none" stroke="black" d="M5155.97,-2510.88C5220.26,-2442.44 5443.5,-2184.07 5320.39,-2017 5245.31,-1915.11 4877.55,-1839.29 4693.59,-1807.07"/>
<polygon fill="black" stroke="black" points="4694.08,-1803.6 4683.63,-1805.33 4692.88,-1810.5 4694.08,-1803.6"/>
</g>
<!-- u39 -->
<g id="node26" class="node">
<title>u39</title>
<ellipse fill="#ffbbff" stroke="black" cx="4666.39" cy="-2776" rx="209.06" ry="18"/>
<text text-anchor="middle" x="4666.39" y="-2772.3" font-family="Times,serif" font-size="14.00">Language.Drasil.Code.Imperative.Modules</text>
</g>
<!-- u36 -->
<g id="node28" class="node">
<title>u36</title>
<ellipse fill="#ffbbff" stroke="black" cx="4074.39" cy="-2529" rx="233.16" ry="18"/>
<text text-anchor="middle" x="4074.39" y="-2525.3" font-family="Times,serif" font-size="14.00">Language.Drasil.Code.Imperative.FunctionCalls</text>
</g>
<!-- u39&#45;&gt;u36 -->
<g id="edge56" class="edge">
<title>u39&#45;&gt;u36</title>
<path fill="none" stroke="black" d="M4625.7,-2758.16C4520.38,-2714.57 4239.09,-2598.16 4124.26,-2550.64"/>
<polygon fill="black" stroke="black" points="4125.56,-2547.39 4114.98,-2546.8 4122.88,-2553.85 4125.56,-2547.39"/>
</g>
<!-- u27 -->
<g id="node36" class="node">
<title>u27</title>
<ellipse fill="#ffbbff" stroke="black" cx="4666.39" cy="-2529" rx="228.26" ry="18"/>
<text text-anchor="middle" x="4666.39" y="-2525.3" font-family="Times,serif" font-size="14.00">Language.Drasil.Code.Imperative.Descriptions</text>
</g>
<!-- u39&#45;&gt;u27 -->
<g id="edge55" class="edge">
<title>u39&#45;&gt;u27</title>
<path fill="none" stroke="black" d="M4666.39,-2757.77C4666.39,-2715.86 4666.39,-2608.31 4666.39,-2557.44"/>
<polygon fill="black" stroke="black" points="4669.89,-2557.21 4666.39,-2547.21 4662.89,-2557.21 4669.89,-2557.21"/>
</g>
<!-- u38 -->
<g id="node27" class="node">
<title>u38</title>
<ellipse fill="#ffbbff" stroke="black" cx="4350.39" cy="-1542" rx="209.86" ry="18"/>
<text text-anchor="middle" x="4350.39" y="-1538.3" font-family="Times,serif" font-size="14.00">Language.Drasil.Code.Imperative.GenODE</text>
</g>
<!-- u38&#45;&gt;u52 -->
<g id="edge54" class="edge">
<title>u38&#45;&gt;u52</title>
<path fill="none" stroke="black" d="M4287.3,-1524.83C4115.53,-1480.81 3640.53,-1359.08 3462.75,-1313.52"/>
<polygon fill="black" stroke="black" points="3463.54,-1310.11 3452.98,-1311.02 3461.8,-1316.89 3463.54,-1310.11"/>
</g>
<!-- u38&#45;&gt;u9 -->
<g id="edge52" class="edge">
<title>u38&#45;&gt;u9</title>
<path fill="none" stroke="black" d="M4334.99,-1523.77C4296.91,-1481.16 4198.15,-1370.68 4153.68,-1320.93"/>
<polygon fill="black" stroke="black" points="4156.05,-1318.33 4146.78,-1313.21 4150.83,-1323 4156.05,-1318.33"/>
</g>
<!-- u38&#45;&gt;u16 -->
<g id="edge53" class="edge">
<title>u38&#45;&gt;u16</title>
<path fill="none" stroke="black" d="M4349.5,-1523.99C4347.21,-1481.99 4340.68,-1370.05 4331.39,-1277 4324.17,-1204.63 4312.45,-1119.68 4306.36,-1077.15"/>
<polygon fill="black" stroke="black" points="4309.79,-1076.45 4304.9,-1067.05 4302.86,-1077.45 4309.79,-1076.45"/>
</g>
<!-- u35 -->
<g id="node29" class="node">
<title>u35</title>
<ellipse fill="#ffbbff" stroke="black" cx="4074.39" cy="-2282" rx="201.46" ry="18"/>
<text text-anchor="middle" x="4074.39" y="-2278.3" font-family="Times,serif" font-size="14.00">Language.Drasil.Code.Imperative.Import</text>
</g>
<!-- u36&#45;&gt;u35 -->
<g id="edge50" class="edge">
<title>u36&#45;&gt;u35</title>
<path fill="none" stroke="black" d="M4074.39,-2510.77C4074.39,-2468.86 4074.39,-2361.31 4074.39,-2310.44"/>
<polygon fill="black" stroke="black" points="4077.89,-2310.21 4074.39,-2300.21 4070.89,-2310.21 4077.89,-2310.21"/>
</g>
<!-- u25 -->
<g id="node38" class="node">
<title>u25</title>
<ellipse fill="#ffbbff" stroke="black" cx="3374.39" cy="-2282" rx="223.66" ry="18"/>
<text text-anchor="middle" x="3374.39" y="-2278.3" font-family="Times,serif" font-size="14.00">Language.Drasil.Code.Imperative.Parameters</text>
</g>
<!-- u36&#45;&gt;u25 -->
<g id="edge49" class="edge">
<title>u36&#45;&gt;u25</title>
<path fill="none" stroke="black" d="M4026.83,-2511.35C3902.25,-2467.75 3566.73,-2350.32 3431.77,-2303.08"/>
<polygon fill="black" stroke="black" points="3432.62,-2299.67 3422.02,-2299.67 3430.31,-2306.28 3432.62,-2299.67"/>
</g>
<!-- u35&#45;&gt;u20 -->
<g id="edge43" class="edge">
<title>u35&#45;&gt;u20</title>
<path fill="none" stroke="black" d="M4017.97,-2264.64C3867.39,-2220.98 3456.58,-2101.87 3295.47,-2055.16"/>
<polygon fill="black" stroke="black" points="3296.27,-2051.74 3285.69,-2052.32 3294.32,-2058.47 3296.27,-2051.74"/>
</g>
<!-- u30 -->
<g id="node33" class="node">
<title>u30</title>
<ellipse fill="#ffbbff" stroke="black" cx="4195.39" cy="-2035" rx="207.16" ry="18"/>
<text text-anchor="middle" x="4195.39" y="-2031.3" font-family="Times,serif" font-size="14.00">Language.Drasil.Code.Imperative.Logging</text>
</g>
<!-- u35&#45;&gt;u30 -->
<g id="edge48" class="edge">
<title>u35&#45;&gt;u30</title>
<path fill="none" stroke="black" d="M4082.9,-2263.77C4103.73,-2221.6 4157.39,-2112.95 4182.31,-2062.49"/>
<polygon fill="black" stroke="black" points="4185.61,-2063.72 4186.9,-2053.21 4179.33,-2060.63 4185.61,-2063.72"/>
</g>
<!-- u29 -->
<g id="node34" class="node">
<title>u29</title>
<ellipse fill="#ffbbff" stroke="black" cx="3595.39" cy="-1542" rx="237.46" ry="18"/>
<text text-anchor="middle" x="3595.39" y="-1538.3" font-family="Times,serif" font-size="14.00">Language.Drasil.Code.Imperative.ConceptMatch</text>
</g>
<!-- u35&#45;&gt;u29 -->
<g id="edge47" class="edge">
<title>u35&#45;&gt;u29</title>
<path fill="none" stroke="black" d="M4065.39,-2263.81C4046.28,-2226.53 4001.58,-2134.96 3979.39,-2053 3946.35,-1930.93 4008.68,-1878.08 3941.39,-1771 3873.16,-1662.42 3732.2,-1594.51 3652.87,-1563.27"/>
<polygon fill="black" stroke="black" points="3654.1,-1559.99 3643.51,-1559.64 3651.57,-1566.52 3654.1,-1559.99"/>
</g>
<!-- u28 -->
<g id="node35" class="node">
<title>u28</title>
<ellipse fill="#ffbbff" stroke="black" cx="4640.39" cy="-2035" rx="219.86" ry="18"/>
<text text-anchor="middle" x="4640.39" y="-2031.3" font-family="Times,serif" font-size="14.00">Language.Drasil.Code.Imperative.Comments</text>
</g>
<!-- u35&#45;&gt;u28 -->
<g id="edge46" class="edge">
<title>u35&#45;&gt;u28</title>
<path fill="none" stroke="black" d="M4113.3,-2264.16C4213.89,-2220.62 4482.39,-2104.39 4592.39,-2056.78"/>
<polygon fill="black" stroke="black" points="4593.81,-2059.98 4601.59,-2052.8 4591.03,-2053.56 4593.81,-2059.98"/>
</g>
<!-- u24 -->
<g id="node39" class="node">
<title>u24</title>
<ellipse fill="#ffbbff" stroke="black" cx="5084.39" cy="-2035" rx="206.06" ry="18"/>
<text text-anchor="middle" x="5084.39" y="-2031.3" font-family="Times,serif" font-size="14.00">Language.Drasil.Code.Imperative.Helpers</text>
</g>
<!-- u35&#45;&gt;u24 -->
<g id="edge45" class="edge">
<title>u35&#45;&gt;u24</title>
<path fill="none" stroke="black" d="M4140.66,-2264.92C4320.56,-2221.29 4817.32,-2100.79 5008.26,-2054.47"/>
<polygon fill="black" stroke="black" points="5009.32,-2057.81 5018.21,-2052.05 5007.67,-2051.01 5009.32,-2057.81"/>
</g>
<!-- u22 -->
<g id="node41" class="node">
<title>u22</title>
<ellipse fill="#ffbbff" stroke="black" cx="3692.39" cy="-2035" rx="240.46" ry="18"/>
<text text-anchor="middle" x="3692.39" y="-2031.3" font-family="Times,serif" font-size="14.00">Language.Drasil.Code.Imperative.GenerateGOOL</text>
</g>
<!-- u35&#45;&gt;u22 -->
<g id="edge44" class="edge">
<title>u35&#45;&gt;u22</title>
<path fill="none" stroke="black" d="M4047.84,-2263.97C3980.52,-2220.8 3803.22,-2107.08 3727.49,-2058.51"/>
<polygon fill="black" stroke="black" points="3729.08,-2055.37 3718.78,-2052.92 3725.3,-2061.27 3729.08,-2055.37"/>
</g>
<!-- u33&#45;&gt;u55 -->
<g id="edge41" class="edge">
<title>u33&#45;&gt;u55</title>
<path fill="none" stroke="black" d="M4547.02,-1771.16C4439.53,-1727.42 4151.8,-1610.32 4035.84,-1563.12"/>
<polygon fill="black" stroke="black" points="4037.06,-1559.84 4026.48,-1559.31 4034.42,-1566.32 4037.06,-1559.84"/>
</g>
<!-- u33&#45;&gt;u16 -->
<g id="edge40" class="edge">
<title>u33&#45;&gt;u16</title>
<path fill="none" stroke="black" d="M4589.71,-1770.86C4592.44,-1728.11 4596.42,-1613.76 4569.39,-1524 4513.13,-1337.1 4373.71,-1143.06 4322.05,-1075.21"/>
<polygon fill="black" stroke="black" points="4324.78,-1073.01 4315.92,-1067.2 4319.23,-1077.27 4324.78,-1073.01"/>
</g>
<!-- u32 -->
<g id="node31" class="node">
<title>u32</title>
<ellipse fill="#ffbbff" stroke="black" cx="2264.39" cy="-2282" rx="233.16" ry="18"/>
<text text-anchor="middle" x="2264.39" y="-2278.3" font-family="Times,serif" font-size="14.00">Language.Drasil.Code.Imperative.WriteReadMe</text>
</g>
<!-- u41 -->
<g id="node46" class="node">
<title>u41</title>
<ellipse fill="#7777ff" stroke="black" cx="3665.39" cy="-1789" rx="267.25" ry="18"/>
<text text-anchor="middle" x="3665.39" y="-1785.3" font-family="Times,serif" font-size="14.00">Language.Drasil.Code.Imperative.GOOL.ClassInterface</text>
</g>
<!-- u32&#45;&gt;u41 -->
<g id="edge39" class="edge">
<title>u32&#45;&gt;u41</title>
<path fill="none" stroke="black" d="M2309.42,-2264.27C2423.43,-2222 2732.89,-2107.81 2992.39,-2017 3217.67,-1938.17 3487.02,-1848.78 3605.02,-1809.86"/>
<polygon fill="black" stroke="black" points="3606.2,-1813.15 3614.61,-1806.7 3604.01,-1806.5 3606.2,-1813.15"/>
</g>
<!-- u31&#45;&gt;u19 -->
<g id="edge38" class="edge">
<title>u31&#45;&gt;u19</title>
<path fill="none" stroke="black" d="M1028.68,-1779.53C1321.5,-1755.11 1858.39,-1660.6 1858.39,-1296 1858.39,-1296 1858.39,-1296 1858.39,-801 1858.39,-473 2344.81,-358.72 2571.55,-323.27"/>
<polygon fill="black" stroke="black" points="2572.14,-326.72 2581.49,-321.74 2571.08,-319.8 2572.14,-326.72"/>
</g>
<!-- u30&#45;&gt;u33 -->
<g id="edge37" class="edge">
<title>u30&#45;&gt;u33</title>
<path fill="none" stroke="black" d="M4222.72,-2017.04C4292.02,-1974.01 4474.68,-1860.6 4552.48,-1812.3"/>
<polygon fill="black" stroke="black" points="4554.34,-1815.26 4560.99,-1807.01 4550.65,-1809.31 4554.34,-1815.26"/>
</g>
<!-- u29&#45;&gt;u52 -->
<g id="edge36" class="edge">
<title>u29&#45;&gt;u52</title>
<path fill="none" stroke="black" d="M3581.26,-1523.77C3546.37,-1481.25 3456.04,-1371.14 3415.1,-1321.24"/>
<polygon fill="black" stroke="black" points="3417.56,-1318.72 3408.51,-1313.21 3412.15,-1323.16 3417.56,-1318.72"/>
</g>
<!-- u28&#45;&gt;u33 -->
<g id="edge35" class="edge">
<title>u28&#45;&gt;u33</title>
<path fill="none" stroke="black" d="M4636.74,-2016.84C4627.82,-1975.02 4604.92,-1867.54 4594.15,-1817.01"/>
<polygon fill="black" stroke="black" points="4597.55,-1816.19 4592.05,-1807.14 4590.71,-1817.65 4597.55,-1816.19"/>
</g>
<!-- u27&#45;&gt;u33 -->
<g id="edge34" class="edge">
<title>u27&#45;&gt;u33</title>
<path fill="none" stroke="black" d="M4724.34,-2511.55C4911.61,-2455.52 5478.3,-2261.92 5299.39,-2017 5226.49,-1917.2 4867.42,-1840.08 4689.16,-1807.26"/>
<polygon fill="black" stroke="black" points="4689.71,-1803.81 4679.25,-1805.45 4688.45,-1810.69 4689.71,-1803.81"/>
</g>
<!-- u26&#45;&gt;u17 -->
<g id="edge30" class="edge">
<title>u26&#45;&gt;u17</title>
<path fill="none" stroke="black" d="M4637.33,-3004.04C4563.45,-2960.91 4368.48,-2847.1 4286.05,-2798.98"/>
<polygon fill="black" stroke="black" points="4287.66,-2795.87 4277.26,-2793.85 4284.13,-2801.92 4287.66,-2795.87"/>
</g>
<!-- u26&#45;&gt;u49 -->
<g id="edge33" class="edge">
<title>u26&#45;&gt;u49</title>
<path fill="none" stroke="black" d="M4682.95,-3003.81C4753.98,-2930.08 5033.04,-2640.4 5116.01,-2554.28"/>
<polygon fill="black" stroke="black" points="5118.55,-2556.68 5122.97,-2547.05 5113.51,-2551.82 5118.55,-2556.68"/>
</g>
<!-- u26&#45;&gt;u39 -->
<g id="edge32" class="edge">
<title>u26&#45;&gt;u39</title>
<path fill="none" stroke="black" d="M4666.39,-3003.84C4666.39,-2962.1 4666.39,-2854.99 4666.39,-2804.33"/>
<polygon fill="black" stroke="black" points="4669.89,-2804.14 4666.39,-2794.14 4662.89,-2804.14 4669.89,-2804.14"/>
</g>
<!-- u26&#45;&gt;u38 -->
<g id="edge31" class="edge">
<title>u26&#45;&gt;u38</title>
<path fill="none" stroke="black" d="M4751.69,-3005.41C4943.93,-2964.83 5394.39,-2836.99 5394.39,-2530 5394.39,-2530 5394.39,-2530 5394.39,-2034 5394.39,-1665.51 4855.22,-1573.07 4551.82,-1550.22"/>
<polygon fill="black" stroke="black" points="4551.81,-1546.71 4541.58,-1549.47 4551.29,-1553.69 4551.81,-1546.71"/>
</g>
<!-- u25&#45;&gt;u20 -->
<g id="edge28" class="edge">
<title>u25&#45;&gt;u20</title>
<path fill="none" stroke="black" d="M3364.2,-2263.77C3339.14,-2221.42 3274.4,-2112.05 3244.7,-2061.86"/>
<polygon fill="black" stroke="black" points="3247.68,-2060.03 3239.58,-2053.21 3241.66,-2063.6 3247.68,-2060.03"/>
</g>
<!-- u25&#45;&gt;u33 -->
<g id="edge29" class="edge">
<title>u25&#45;&gt;u33</title>
<path fill="none" stroke="black" d="M3313.14,-2264.57C3186.56,-2227.78 2916.05,-2132.88 3016.39,-2017 3107.31,-1912.01 4028.7,-1831.68 4417.14,-1802.22"/>
<polygon fill="black" stroke="black" points="4417.64,-1805.69 4427.35,-1801.45 4417.11,-1798.71 4417.64,-1805.69"/>
</g>
<!-- u24&#45;&gt;u33 -->
<g id="edge27" class="edge">
<title>u24&#45;&gt;u33</title>
<path fill="none" stroke="black" d="M5050.3,-2017.23C4962.61,-1974.09 4729.31,-1859.32 4631.98,-1811.44"/>
<polygon fill="black" stroke="black" points="4633.24,-1808.16 4622.73,-1806.89 4630.15,-1814.44 4633.24,-1808.16"/>
</g>
<!-- u23 -->
<g id="node40" class="node">
<title>u23</title>
<ellipse fill="#ffbbff" stroke="black" cx="2360.39" cy="-1542" rx="219.86" ry="18"/>
<text text-anchor="middle" x="2360.39" y="-1538.3" font-family="Times,serif" font-size="14.00">Language.Drasil.Code.Imperative.WriteInput</text>
</g>
<!-- u23&#45;&gt;u19 -->
<g id="edge26" class="edge">
<title>u23&#45;&gt;u19</title>
<path fill="none" stroke="black" d="M2373.15,-1523.76C2417.07,-1462.62 2559.39,-1249.13 2559.39,-1050 2559.39,-1050 2559.39,-1050 2559.39,-801 2559.39,-617.84 2642.36,-407.97 2673.64,-335.34"/>
<polygon fill="black" stroke="black" points="2676.92,-336.59 2677.7,-326.02 2670.5,-333.8 2676.92,-336.59"/>
</g>
<!-- u22&#45;&gt;u33 -->
<g id="edge24" class="edge">
<title>u22&#45;&gt;u33</title>
<path fill="none" stroke="black" d="M3752.92,-2017.52C3913.17,-1973.88 4347.83,-1855.51 4518.37,-1809.07"/>
<polygon fill="black" stroke="black" points="4519.52,-1812.38 4528.25,-1806.38 4517.68,-1805.63 4519.52,-1812.38"/>
</g>
<!-- u22&#45;&gt;u41 -->
<g id="edge25" class="edge">
<title>u22&#45;&gt;u41</title>
<path fill="none" stroke="black" d="M3690.5,-2016.84C3685.88,-1975.1 3674.02,-1867.99 3668.42,-1817.33"/>
<polygon fill="black" stroke="black" points="3671.87,-1816.69 3667.29,-1807.14 3664.91,-1817.46 3671.87,-1816.69"/>
</g>
<!-- u51 -->
<g id="node42" class="node">
<title>u51</title>
<ellipse fill="#77ff77" stroke="black" cx="1708.39" cy="-2282" rx="228.56" ry="18"/>
<text text-anchor="middle" x="1708.39" y="-2278.3" font-family="Times,serif" font-size="14.00">Language.Drasil.Code.Imperative.Build.Import</text>
</g>
<!-- u50 -->
<g id="node43" class="node">
<title>u50</title>
<ellipse fill="#77ff77" stroke="black" cx="1708.39" cy="-2035" rx="215.56" ry="18"/>
<text text-anchor="middle" x="1708.39" y="-2031.3" font-family="Times,serif" font-size="14.00">Language.Drasil.Code.Imperative.Build.AST</text>
</g>
<!-- u51&#45;&gt;u50 -->
<g id="edge74" class="edge">
<title>u51&#45;&gt;u50</title>
<path fill="none" stroke="black" d="M1708.39,-2263.77C1708.39,-2221.86 1708.39,-2114.31 1708.39,-2063.44"/>
<polygon fill="black" stroke="black" points="1711.89,-2063.21 1708.39,-2053.21 1704.89,-2063.21 1711.89,-2063.21"/>
</g>
<!-- u34 -->
<g id="node44" class="node">
<title>u34</title>
<ellipse fill="#ffff77" stroke="black" cx="3135.39" cy="-1789" rx="245.06" ry="18"/>
<text text-anchor="middle" x="3135.39" y="-1785.3" font-family="Times,serif" font-size="14.00">Language.Drasil.Code.Imperative.Doxygen.Import</text>
</g>
<!-- u34&#45;&gt;u52 -->
<g id="edge42" class="edge">
<title>u34&#45;&gt;u52</title>
<path fill="none" stroke="black" d="M3144.46,-1770.78C3183.08,-1697.42 3334.01,-1410.71 3380.61,-1322.18"/>
<polygon fill="black" stroke="black" points="3383.84,-1323.56 3385.4,-1313.08 3377.65,-1320.3 3383.84,-1323.56"/>
</g>
<!-- u41&#45;&gt;u52 -->
<g id="edge57" class="edge">
<title>u41&#45;&gt;u52</title>
<path fill="none" stroke="black" d="M3620,-1771.19C3547.17,-1741.43 3406.63,-1671.87 3349.39,-1560 3308.7,-1480.45 3354.47,-1371.55 3379.81,-1322.2"/>
<polygon fill="black" stroke="black" points="3383.02,-1323.63 3384.58,-1313.16 3376.82,-1320.37 3383.02,-1323.63"/>
</g>
<!-- u40 -->
<g id="node47" class="node">
<title>u40</title>
<ellipse fill="#7777ff" stroke="black" cx="2805.39" cy="-2282" rx="289.45" ry="18"/>
<text text-anchor="middle" x="2805.39" y="-2278.3" font-family="Times,serif" font-size="14.00">Language.Drasil.Code.Imperative.GOOL.LanguageRenderer</text>
</g>
<!-- u48&#45;&gt;u42 -->
<g id="edge71" class="edge">
<title>u48&#45;&gt;u42</title>
<path fill="none" stroke="black" d="M2217.52,-2757.77C2265.12,-2714.9 2389,-2603.31 2443.73,-2554.01"/>
<polygon fill="black" stroke="black" points="2446.2,-2556.5 2451.29,-2547.21 2441.52,-2551.3 2446.2,-2556.5"/>
</g>
<!-- u46 -->
<g id="node50" class="node">
<title>u46</title>
<ellipse fill="#ff7777" stroke="black" cx="1836.39" cy="-2529" rx="393.73" ry="18"/>
<text text-anchor="middle" x="1836.39" y="-2525.3" font-family="Times,serif" font-size="14.00">Language.Drasil.Code.Imperative.GOOL.LanguageRenderer.LanguagePolymorphic</text>
</g>
<!-- u48&#45;&gt;u46 -->
<g id="edge72" class="edge">
<title>u48&#45;&gt;u46</title>
<path fill="none" stroke="black" d="M2173.23,-2757.97C2109.59,-2714.9 1942.23,-2601.63 1870.18,-2552.86"/>
<polygon fill="black" stroke="black" points="1872.12,-2549.95 1861.88,-2547.25 1868.2,-2555.75 1872.12,-2549.95"/>
</g>
<!-- u47&#45;&gt;u42 -->
<g id="edge69" class="edge">
<title>u47&#45;&gt;u42</title>
<path fill="none" stroke="black" d="M2896.55,-2757.97C2815.44,-2714.58 2601.11,-2599.92 2511.1,-2551.78"/>
<polygon fill="black" stroke="black" points="2512.49,-2548.55 2502.03,-2546.92 2509.19,-2554.72 2512.49,-2548.55"/>
</g>
<!-- u47&#45;&gt;u46 -->
<g id="edge70" class="edge">
<title>u47&#45;&gt;u46</title>
<path fill="none" stroke="black" d="M2854.2,-2758.35C2658.31,-2714.4 2128.14,-2595.46 1920.97,-2548.98"/>
<polygon fill="black" stroke="black" points="1921.58,-2545.53 1911.06,-2546.75 1920.05,-2552.36 1921.58,-2545.53"/>
</g>
<!-- u46&#45;&gt;u32 -->
<g id="edge65" class="edge">
<title>u46&#45;&gt;u32</title>
<path fill="none" stroke="black" d="M1866.15,-2510.97C1941.87,-2467.62 2141.84,-2353.15 2226.1,-2304.92"/>
<polygon fill="black" stroke="black" points="2227.9,-2307.93 2234.84,-2299.92 2224.42,-2301.85 2227.9,-2307.93"/>
</g>
<!-- u46&#45;&gt;u23 -->
<g id="edge64" class="edge">
<title>u46&#45;&gt;u23</title>
<path fill="none" stroke="black" d="M1845.49,-2510.9C1907.73,-2393.91 2270.6,-1711.79 2346.49,-1569.15"/>
<polygon fill="black" stroke="black" points="2349.65,-1570.65 2351.25,-1560.18 2343.47,-1567.37 2349.65,-1570.65"/>
</g>
<!-- u46&#45;&gt;u51 -->
<g id="edge68" class="edge">
<title>u46&#45;&gt;u51</title>
<path fill="none" stroke="black" d="M1827.39,-2510.77C1805.31,-2468.51 1748.36,-2359.5 1722.07,-2309.17"/>
<polygon fill="black" stroke="black" points="1725.12,-2307.45 1717.39,-2300.21 1718.91,-2310.69 1725.12,-2307.45"/>
</g>
<!-- u46&#45;&gt;u34 -->
<g id="edge66" class="edge">
<title>u46&#45;&gt;u34</title>
<path fill="none" stroke="black" d="M1844.31,-2510.71C1866.23,-2464.54 1932.14,-2336.96 2022.39,-2264 2352.71,-1996.99 2855.72,-1856.04 3052.44,-1808.61"/>
<polygon fill="black" stroke="black" points="3053.51,-1811.95 3062.42,-1806.22 3051.88,-1805.14 3053.51,-1811.95"/>
</g>
<!-- u46&#45;&gt;u40 -->
<g id="edge67" class="edge">
<title>u46&#45;&gt;u40</title>
<path fill="none" stroke="black" d="M1903,-2511.16C2077.35,-2467.08 2546.32,-2348.5 2730.08,-2302.04"/>
<polygon fill="black" stroke="black" points="2731.09,-2305.4 2739.93,-2299.55 2729.37,-2298.61 2731.09,-2305.4"/>
</g>
<!-- u45&#45;&gt;u42 -->
<g id="edge62" class="edge">
<title>u45&#45;&gt;u42</title>
<path fill="none" stroke="black" d="M3590.72,-2758.35C3373.46,-2714.07 2782.6,-2593.64 2558.33,-2547.92"/>
<polygon fill="black" stroke="black" points="2558.75,-2544.44 2548.26,-2545.87 2557.36,-2551.3 2558.75,-2544.44"/>
</g>
<!-- u45&#45;&gt;u46 -->
<g id="edge63" class="edge">
<title>u45&#45;&gt;u46</title>
<path fill="none" stroke="black" d="M3552.28,-2758.97C3223.18,-2715.06 2308.84,-2593.04 1967.31,-2547.47"/>
<polygon fill="black" stroke="black" points="1967.74,-2544 1957.37,-2546.14 1966.82,-2550.94 1967.74,-2544"/>
</g>
<!-- u44&#45;&gt;u42 -->
<g id="edge60" class="edge">
<title>u44&#45;&gt;u42</title>
<path fill="none" stroke="black" d="M832.41,-2758.92C1149.74,-2714.57 2035.12,-2590.83 2354.04,-2546.26"/>
<polygon fill="black" stroke="black" points="2354.81,-2549.69 2364.22,-2544.84 2353.84,-2542.76 2354.81,-2549.69"/>
</g>
<!-- u44&#45;&gt;u46 -->
<g id="edge61" class="edge">
<title>u44&#45;&gt;u46</title>
<path fill="none" stroke="black" d="M793.43,-2758.35C994.38,-2714.36 1538.63,-2595.19 1750.42,-2548.82"/>
<polygon fill="black" stroke="black" points="1751.24,-2552.23 1760.26,-2546.67 1749.74,-2545.39 1751.24,-2552.23"/>
</g>
<!-- u43&#45;&gt;u42 -->
<g id="edge58" class="edge">
<title>u43&#45;&gt;u42</title>
<path fill="none" stroke="black" d="M1527.56,-2758.26C1709.93,-2714.1 2202.98,-2594.74 2393.66,-2548.58"/>
<polygon fill="black" stroke="black" points="2394.7,-2551.93 2403.6,-2546.17 2393.06,-2545.12 2394.7,-2551.93"/>
</g>
<!-- u43&#45;&gt;u46 -->
<g id="edge59" class="edge">
<title>u43&#45;&gt;u46</title>
<path fill="none" stroke="black" d="M1484.67,-2757.97C1551.2,-2714.85 1726.3,-2601.35 1801.39,-2552.69"/>
<polygon fill="black" stroke="black" points="1803.55,-2555.46 1810.04,-2547.08 1799.74,-2549.59 1803.55,-2555.46"/>
</g>
<!-- u37 -->
<g id="node54" class="node">
<title>u37</title>
<ellipse fill="#77ffff" stroke="black" cx="2978.39" cy="-2529" rx="267.55" ry="18"/>
<text text-anchor="middle" x="2978.39" y="-2525.3" font-family="Times,serif" font-size="14.00">Language.Drasil.Code.Imperative.Parsers.ConfigParser</text>
</g>
<!-- u37&#45;&gt;u40 -->
<g id="edge51" class="edge">
<title>u37&#45;&gt;u40</title>
<path fill="none" stroke="black" d="M2966.23,-2510.77C2936.26,-2468.34 2858.77,-2358.59 2823.44,-2308.55"/>
<polygon fill="black" stroke="black" points="2826.17,-2306.36 2817.55,-2300.21 2820.46,-2310.4 2826.17,-2306.36"/>
</g>
<!-- u13&#45;&gt;u10 -->
<g id="edge14" class="edge">
<title>u13&#45;&gt;u10</title>
<path fill="none" stroke="black" d="M3131.39,-783.84C3131.39,-687.09 3131.39,-209.75 3131.39,-90.19"/>
<polygon fill="black" stroke="black" points="3134.89,-90.06 3131.39,-80.06 3127.89,-90.06 3134.89,-90.06"/>
</g>
<!-- u12&#45;&gt;u21 -->
<g id="edge13" class="edge">
<title>u12&#45;&gt;u21</title>
<path fill="none" stroke="black" d="M3493.11,-1031.74C3628.56,-988.3 3998.4,-869.7 4145.18,-822.63"/>
<polygon fill="black" stroke="black" points="4146.49,-825.89 4154.94,-819.5 4144.35,-819.22 4146.49,-825.89"/>
</g>
<!-- u12&#45;&gt;u15 -->
<g id="edge12" class="edge">
<title>u12&#45;&gt;u15</title>
<path fill="none" stroke="black" d="M3466.31,-1031.16C3527.28,-988.24 3688.56,-874.69 3757.93,-825.86"/>
<polygon fill="black" stroke="black" points="3760.15,-828.58 3766.31,-819.96 3756.12,-822.85 3760.15,-828.58"/>
</g>
<!-- u12&#45;&gt;u14 -->
<g id="edge11" class="edge">
<title>u12&#45;&gt;u14</title>
<path fill="none" stroke="black" d="M3442.39,-1030.77C3442.39,-988.86 3442.39,-881.31 3442.39,-830.44"/>
<polygon fill="black" stroke="black" points="3445.89,-830.21 3442.39,-820.21 3438.89,-830.21 3445.89,-830.21"/>
</g>
<!-- u12&#45;&gt;u13 -->
<g id="edge10" class="edge">
<title>u12&#45;&gt;u13</title>
<path fill="none" stroke="black" d="M3420.53,-1030.77C3365.86,-987.7 3223.19,-875.31 3161.04,-826.36"/>
<polygon fill="black" stroke="black" points="3162.85,-823.32 3152.83,-819.88 3158.52,-828.82 3162.85,-823.32"/>
</g>
</g>
</svg>
