<?xml version="1.0" encoding="UTF-8" standalone="no"?>
<!DOCTYPE svg PUBLIC "-//W3C//DTD SVG 1.1//EN"
 "http://www.w3.org/Graphics/SVG/1.1/DTD/svg11.dtd">
<!-- Generated by graphviz version 2.43.0 (0)
 -->
<!-- Title: G Pages: 1 -->
<svg width="431pt" height="288pt"
 viewBox="0.00 0.00 431.39 288.00" xmlns="http://www.w3.org/2000/svg" xmlns:xlink="http://www.w3.org/1999/xlink">
<g id="graph0" class="graph" transform="scale(0.18 0.18) rotate(0) translate(4 1598)">
<title>G</title>
<polygon fill="white" stroke="transparent" points="-4,4 -4,-1598 2395.62,-1598 2395.62,4 -4,4"/>
<!-- u30 -->
<g id="node1" class="node">
<title>u30</title>
<ellipse fill="#bbffbb" stroke="black" cx="1162.39" cy="-1559" rx="128.08" ry="18"/>
<text text-anchor="middle" x="1162.39" y="-1555.3" font-family="Times,serif" font-size="14.00">Language.Drasil.Printers</text>
</g>
<!-- u34 -->
<g id="node4" class="node">
<title>u34</title>
<ellipse fill="#ffffbb" stroke="black" cx="798.39" cy="-1421" rx="135.68" ry="18"/>
<text text-anchor="middle" x="798.39" y="-1417.3" font-family="Times,serif" font-size="14.00">Language.Drasil.DOT.Print</text>
</g>
<!-- u30&#45;&gt;u34 -->
<g id="edge47" class="edge">
<title>u30&#45;&gt;u34</title>
<path fill="none" stroke="black" d="M1119.56,-1542C1052.65,-1517 923.51,-1468.75 851.02,-1441.67"/>
<polygon fill="black" stroke="black" points="852.21,-1438.37 841.61,-1438.15 849.76,-1444.93 852.21,-1438.37"/>
</g>
<!-- u33 -->
<g id="node5" class="node">
<title>u33</title>
<ellipse fill="#bbbbff" stroke="black" cx="1498.39" cy="-1421" rx="146.47" ry="18"/>
<text text-anchor="middle" x="1498.39" y="-1417.3" font-family="Times,serif" font-size="14.00">Language.Drasil.Debug.Print</text>
</g>
<!-- u30&#45;&gt;u33 -->
<g id="edge46" class="edge">
<title>u30&#45;&gt;u33</title>
<path fill="none" stroke="black" d="M1202.25,-1541.86C1263.72,-1516.98 1381.54,-1469.3 1448.55,-1442.17"/>
<polygon fill="black" stroke="black" points="1450.1,-1445.32 1458.05,-1438.33 1447.47,-1438.83 1450.1,-1445.32"/>
</g>
<!-- u31 -->
<g id="node11" class="node">
<title>u31</title>
<ellipse fill="#bbffff" stroke="black" cx="643.39" cy="-1282" rx="140.28" ry="18"/>
<text text-anchor="middle" x="643.39" y="-1278.3" font-family="Times,serif" font-size="14.00">Language.Drasil.JSON.Print</text>
</g>
<!-- u30&#45;&gt;u31 -->
<g id="edge45" class="edge">
<title>u30&#45;&gt;u31</title>
<path fill="none" stroke="black" d="M1133.73,-1541.32C1097.11,-1519.54 1032.38,-1479.4 981.39,-1439 963.15,-1424.55 962.98,-1415.54 943.39,-1403 869.06,-1355.42 772.78,-1320.99 709.6,-1301.53"/>
<polygon fill="black" stroke="black" points="710.34,-1298.1 699.76,-1298.54 708.3,-1304.79 710.34,-1298.1"/>
</g>
<!-- u29 -->
<g id="node12" class="node">
<title>u29</title>
<ellipse fill="#ffbbff" stroke="black" cx="1861.39" cy="-1144" rx="188.47" ry="18"/>
<text text-anchor="middle" x="1861.39" y="-1140.3" font-family="Times,serif" font-size="14.00">Language.Drasil.Markdown.CreateMd</text>
</g>
<!-- u30&#45;&gt;u29 -->
<g id="edge44" class="edge">
<title>u30&#45;&gt;u29</title>
<path fill="none" stroke="black" d="M1281.66,-1552.44C1387.4,-1542.39 1541.9,-1514.68 1653.39,-1439 1756.57,-1368.95 1825.23,-1229.58 1850.53,-1171.44"/>
<polygon fill="black" stroke="black" points="1853.77,-1172.76 1854.48,-1162.19 1847.33,-1170.01 1853.77,-1172.76"/>
</g>
<!-- u28 -->
<g id="node13" class="node">
<title>u28</title>
<ellipse fill="#ffbbff" stroke="black" cx="1162.39" cy="-1421" rx="171.67" ry="18"/>
<text text-anchor="middle" x="1162.39" y="-1417.3" font-family="Times,serif" font-size="14.00">Language.Drasil.Markdown.Config</text>
</g>
<!-- u30&#45;&gt;u28 -->
<g id="edge43" class="edge">
<title>u30&#45;&gt;u28</title>
<path fill="none" stroke="black" d="M1162.39,-1540.78C1162.39,-1517.68 1162.39,-1476.43 1162.39,-1449.14"/>
<polygon fill="black" stroke="black" points="1165.89,-1449.08 1162.39,-1439.08 1158.89,-1449.08 1165.89,-1449.08"/>
</g>
<!-- u10 -->
<g id="node2" class="node">
<title>u10</title>
<ellipse fill="#bbffbb" stroke="black" cx="936.39" cy="-589" rx="119.68" ry="18"/>
<text text-anchor="middle" x="936.39" y="-585.3" font-family="Times,serif" font-size="14.00">Language.Drasil.Config</text>
</g>
<!-- u0 -->
<g id="node3" class="node">
<title>u0</title>
<ellipse fill="#bbffbb" stroke="black" cx="500.39" cy="-1144" rx="123.48" ry="18"/>
<text text-anchor="middle" x="500.39" y="-1140.3" font-family="Times,serif" font-size="14.00">Language.Drasil.Format</text>
</g>
<!-- u5 -->
<g id="node16" class="node">
<title>u5</title>
<ellipse fill="#77ff77" stroke="black" cx="1498.39" cy="-1282" rx="139.98" ry="18"/>
<text text-anchor="middle" x="1498.39" y="-1278.3" font-family="Times,serif" font-size="14.00">Language.Drasil.Plain.Print</text>
</g>
<!-- u33&#45;&gt;u5 -->
<g id="edge53" class="edge">
<title>u33&#45;&gt;u5</title>
<path fill="none" stroke="black" d="M1498.39,-1402.93C1498.39,-1379.75 1498.39,-1338.06 1498.39,-1310.46"/>
<polygon fill="black" stroke="black" points="1501.89,-1310.29 1498.39,-1300.29 1494.89,-1310.29 1501.89,-1310.29"/>
</g>
<!-- u9 -->
<g id="node6" class="node">
<title>u9</title>
<ellipse fill="#ffbbbb" stroke="black" cx="293.39" cy="-1005" rx="140.28" ry="18"/>
<text text-anchor="middle" x="293.39" y="-1001.3" font-family="Times,serif" font-size="14.00">Language.Drasil.HTML.CSS</text>
</g>
<!-- u8 -->
<g id="node7" class="node">
<title>u8</title>
<ellipse fill="#ffbbbb" stroke="black" cx="605.39" cy="-1005" rx="153.27" ry="18"/>
<text text-anchor="middle" x="605.39" y="-1001.3" font-family="Times,serif" font-size="14.00">Language.Drasil.HTML.Monad</text>
</g>
<!-- u7 -->
<g id="node8" class="node">
<title>u7</title>
<ellipse fill="#ffbbbb" stroke="black" cx="339.39" cy="-589" rx="157.87" ry="18"/>
<text text-anchor="middle" x="339.39" y="-585.3" font-family="Times,serif" font-size="14.00">Language.Drasil.HTML.Helpers</text>
</g>
<!-- u11 -->
<g id="node22" class="node">
<title>u11</title>
<ellipse fill="#ffff77" stroke="black" cx="1131.39" cy="-35" rx="149.47" ry="18"/>
<text text-anchor="middle" x="1131.39" y="-31.3" font-family="Times,serif" font-size="14.00">Language.Drasil.Printing.AST</text>
</g>
<!-- u7&#45;&gt;u11 -->
<g id="edge13" class="edge">
<title>u7&#45;&gt;u11</title>
<path fill="none" stroke="black" d="M358.84,-570.91C428.88,-509.86 675.93,-298.55 901.39,-155 962.54,-116.06 1037.91,-78.96 1085.32,-56.84"/>
<polygon fill="black" stroke="black" points="1086.82,-60 1094.42,-52.61 1083.87,-53.65 1086.82,-60"/>
</g>
<!-- u6 -->
<g id="node9" class="node">
<title>u6</title>
<ellipse fill="#ffbbbb" stroke="black" cx="786.39" cy="-1144" rx="144.87" ry="18"/>
<text text-anchor="middle" x="786.39" y="-1140.3" font-family="Times,serif" font-size="14.00">Language.Drasil.HTML.Print</text>
</g>
<!-- u6&#45;&gt;u9 -->
<g id="edge12" class="edge">
<title>u6&#45;&gt;u9</title>
<path fill="none" stroke="black" d="M729.83,-1127.28C637.89,-1101.73 456.5,-1051.33 359.02,-1024.24"/>
<polygon fill="black" stroke="black" points="359.85,-1020.84 349.28,-1021.53 357.98,-1027.58 359.85,-1020.84"/>
</g>
<!-- u6&#45;&gt;u8 -->
<g id="edge11" class="edge">
<title>u6&#45;&gt;u8</title>
<path fill="none" stroke="black" d="M764.19,-1126.2C732.03,-1101.86 672.36,-1056.69 636.02,-1029.19"/>
<polygon fill="black" stroke="black" points="637.85,-1026.18 627.76,-1022.94 633.62,-1031.76 637.85,-1026.18"/>
</g>
<!-- u6&#45;&gt;u7 -->
<g id="edge10" class="edge">
<title>u6&#45;&gt;u7</title>
<path fill="none" stroke="black" d="M787.98,-1125.97C790.02,-1096.07 790.84,-1032.93 767.39,-987 674.8,-805.67 463.96,-664.46 377.48,-612.06"/>
<polygon fill="black" stroke="black" points="379.15,-608.98 368.77,-606.84 375.55,-614.98 379.15,-608.98"/>
</g>
<!-- u1 -->
<g id="node35" class="node">
<title>u1</title>
<ellipse fill="#ff7777" stroke="black" cx="975.39" cy="-1005" rx="133.48" ry="18"/>
<text text-anchor="middle" x="975.39" y="-1001.3" font-family="Times,serif" font-size="14.00">Language.Drasil.TeX.Print</text>
</g>
<!-- u6&#45;&gt;u1 -->
<g id="edge9" class="edge">
<title>u6&#45;&gt;u1</title>
<path fill="none" stroke="black" d="M809.56,-1126.2C843.29,-1101.76 905.98,-1056.31 943.87,-1028.84"/>
<polygon fill="black" stroke="black" points="945.98,-1031.64 952.02,-1022.94 941.87,-1025.97 945.98,-1031.64"/>
</g>
<!-- u32 -->
<g id="node10" class="node">
<title>u32</title>
<ellipse fill="#bbffff" stroke="black" cx="153.39" cy="-728" rx="153.27" ry="18"/>
<text text-anchor="middle" x="153.39" y="-724.3" font-family="Times,serif" font-size="14.00">Language.Drasil.JSON.Helpers</text>
</g>
<!-- u32&#45;&gt;u7 -->
<g id="edge51" class="edge">
<title>u32&#45;&gt;u7</title>
<path fill="none" stroke="black" d="M176.57,-709.93C209.74,-685.49 270.86,-640.47 308.04,-613.09"/>
<polygon fill="black" stroke="black" points="310.52,-615.61 316.5,-606.86 306.37,-609.97 310.52,-615.61"/>
</g>
<!-- u12 -->
<g id="node21" class="node">
<title>u12</title>
<ellipse fill="#ffff77" stroke="black" cx="901.39" cy="-450" rx="167.07" ry="18"/>
<text text-anchor="middle" x="901.39" y="-446.3" font-family="Times,serif" font-size="14.00">Language.Drasil.Printing.Helpers</text>
</g>
<!-- u32&#45;&gt;u12 -->
<g id="edge52" class="edge">
<title>u32&#45;&gt;u12</title>
<path fill="none" stroke="black" d="M149.56,-709.71C143.57,-677.65 136.13,-608.81 172.39,-571 247.39,-492.78 540.99,-465.54 731.94,-456.06"/>
<polygon fill="black" stroke="black" points="732.27,-459.54 742.09,-455.56 731.93,-452.55 732.27,-459.54"/>
</g>
<!-- u31&#45;&gt;u0 -->
<g id="edge48" class="edge">
<title>u31&#45;&gt;u0</title>
<path fill="none" stroke="black" d="M625.56,-1264.05C600.41,-1240.13 554.37,-1196.34 525.68,-1169.06"/>
<polygon fill="black" stroke="black" points="528.09,-1166.52 518.43,-1162.16 523.27,-1171.59 528.09,-1166.52"/>
</g>
<!-- u31&#45;&gt;u6 -->
<g id="edge49" class="edge">
<title>u31&#45;&gt;u6</title>
<path fill="none" stroke="black" d="M661.21,-1264.05C686.36,-1240.13 732.41,-1196.34 761.09,-1169.06"/>
<polygon fill="black" stroke="black" points="763.51,-1171.59 768.34,-1162.16 758.68,-1166.52 763.51,-1171.59"/>
</g>
<!-- u31&#45;&gt;u32 -->
<g id="edge50" class="edge">
<title>u31&#45;&gt;u32</title>
<path fill="none" stroke="black" d="M562.09,-1267.26C444.12,-1242.36 230.21,-1177.26 144.39,-1023 95.76,-935.59 126.81,-809.82 144.08,-755.57"/>
<polygon fill="black" stroke="black" points="147.43,-756.59 147.23,-746 140.78,-754.41 147.43,-756.59"/>
</g>
<!-- u29&#45;&gt;u12 -->
<g id="edge42" class="edge">
<title>u29&#45;&gt;u12</title>
<path fill="none" stroke="black" d="M1878.25,-1125.98C1916.86,-1085.11 2008.39,-976.66 2008.39,-867 2008.39,-867 2008.39,-867 2008.39,-727 2008.39,-653.18 2009.38,-616.67 1951.39,-571 1915.89,-543.04 1313.22,-487.05 1037.33,-462.73"/>
<polygon fill="black" stroke="black" points="1037.52,-459.23 1027.25,-461.84 1036.9,-466.2 1037.52,-459.23"/>
</g>
<!-- u26 -->
<g id="node15" class="node">
<title>u26</title>
<ellipse fill="#ffbbff" stroke="black" cx="1162.39" cy="-1282" rx="165.17" ry="18"/>
<text text-anchor="middle" x="1162.39" y="-1278.3" font-family="Times,serif" font-size="14.00">Language.Drasil.Markdown.Print</text>
</g>
<!-- u28&#45;&gt;u26 -->
<g id="edge41" class="edge">
<title>u28&#45;&gt;u26</title>
<path fill="none" stroke="black" d="M1162.39,-1402.93C1162.39,-1379.75 1162.39,-1338.06 1162.39,-1310.46"/>
<polygon fill="black" stroke="black" points="1165.89,-1310.29 1162.39,-1300.29 1158.89,-1310.29 1165.89,-1310.29"/>
</g>
<!-- u27 -->
<g id="node14" class="node">
<title>u27</title>
<ellipse fill="#ffbbff" stroke="black" cx="1230.39" cy="-728" rx="178.97" ry="18"/>
<text text-anchor="middle" x="1230.39" y="-724.3" font-family="Times,serif" font-size="14.00">Language.Drasil.Markdown.Helpers</text>
</g>
<!-- u27&#45;&gt;u7 -->
<g id="edge38" class="edge">
<title>u27&#45;&gt;u7</title>
<path fill="none" stroke="black" d="M1136.72,-712.6C967.65,-686.6 612.96,-632.07 439.38,-605.38"/>
<polygon fill="black" stroke="black" points="439.89,-601.91 429.48,-603.85 438.83,-608.83 439.89,-601.91"/>
</g>
<!-- u24 -->
<g id="node18" class="node">
<title>u24</title>
<ellipse fill="#ffff77" stroke="black" cx="1291.39" cy="-589" rx="178.97" ry="18"/>
<text text-anchor="middle" x="1291.39" y="-585.3" font-family="Times,serif" font-size="14.00">Language.Drasil.Printing.LayoutObj</text>
</g>
<!-- u27&#45;&gt;u24 -->
<g id="edge40" class="edge">
<title>u27&#45;&gt;u24</title>
<path fill="none" stroke="black" d="M1237.99,-709.93C1248.4,-686.54 1267.2,-644.33 1279.48,-616.73"/>
<polygon fill="black" stroke="black" points="1282.82,-617.85 1283.69,-607.29 1276.42,-615 1282.82,-617.85"/>
</g>
<!-- u27&#45;&gt;u12 -->
<g id="edge39" class="edge">
<title>u27&#45;&gt;u12</title>
<path fill="none" stroke="black" d="M1212.29,-709.92C1187.65,-686.65 1142.17,-643.69 1103.39,-607 1086.49,-591.01 1083.25,-585.9 1065.39,-571 1022.11,-534.91 968.99,-497.14 935.16,-473.84"/>
<polygon fill="black" stroke="black" points="936.8,-470.72 926.57,-467.95 932.84,-476.49 936.8,-470.72"/>
</g>
<!-- u26&#45;&gt;u6 -->
<g id="edge36" class="edge">
<title>u26&#45;&gt;u6</title>
<path fill="none" stroke="black" d="M1117.03,-1264.6C1047.59,-1239.48 915.15,-1191.57 840.69,-1164.64"/>
<polygon fill="black" stroke="black" points="841.62,-1161.26 831.02,-1161.15 839.24,-1167.84 841.62,-1161.26"/>
</g>
<!-- u26&#45;&gt;u27 -->
<g id="edge37" class="edge">
<title>u26&#45;&gt;u27</title>
<path fill="none" stroke="black" d="M1164.5,-1263.87C1174.25,-1184.68 1215.03,-853.69 1227.04,-756.16"/>
<polygon fill="black" stroke="black" points="1230.52,-756.55 1228.27,-746.2 1223.57,-755.7 1230.52,-756.55"/>
</g>
<!-- u22 -->
<g id="node20" class="node">
<title>u22</title>
<ellipse fill="#ffff77" stroke="black" cx="1498.39" cy="-866" rx="162.47" ry="18"/>
<text text-anchor="middle" x="1498.39" y="-862.3" font-family="Times,serif" font-size="14.00">Language.Drasil.Printing.Import</text>
</g>
<!-- u5&#45;&gt;u22 -->
<g id="edge8" class="edge">
<title>u5&#45;&gt;u22</title>
<path fill="none" stroke="black" d="M1498.39,-1264C1498.39,-1200.06 1498.39,-973.63 1498.39,-894.53"/>
<polygon fill="black" stroke="black" points="1501.89,-894.37 1498.39,-884.37 1494.89,-894.37 1501.89,-894.37"/>
</g>
<!-- u25 -->
<g id="node17" class="node">
<title>u25</title>
<ellipse fill="#ffff77" stroke="black" cx="901.39" cy="-312" rx="167.87" ry="18"/>
<text text-anchor="middle" x="901.39" y="-308.3" font-family="Times,serif" font-size="14.00">Language.Drasil.Printing.Citation</text>
</g>
<!-- u25&#45;&gt;u11 -->
<g id="edge35" class="edge">
<title>u25&#45;&gt;u11</title>
<path fill="none" stroke="black" d="M898.78,-293.83C895.07,-263.15 891.58,-198.1 920.39,-155 954.24,-104.36 1017.33,-72.93 1065.74,-55.18"/>
<polygon fill="black" stroke="black" points="1066.96,-58.46 1075.21,-51.81 1064.62,-51.86 1066.96,-58.46"/>
</g>
<!-- u24&#45;&gt;u25 -->
<g id="edge34" class="edge">
<title>u24&#45;&gt;u25</title>
<path fill="none" stroke="black" d="M1263.9,-571.19C1228.43,-549.07 1165.34,-508.27 1115.39,-468 1097.27,-453.4 1095.53,-446.56 1077.39,-432 1031.51,-395.17 974.49,-358.05 938.01,-335.29"/>
<polygon fill="black" stroke="black" points="939.54,-332.12 929.2,-329.82 935.85,-338.06 939.54,-332.12"/>
</g>
<!-- u23 -->
<g id="node19" class="node">
<title>u23</title>
<ellipse fill="#ffff77" stroke="black" cx="1575.39" cy="-173" rx="223.66" ry="18"/>
<text text-anchor="middle" x="1575.39" y="-169.3" font-family="Times,serif" font-size="14.00">Language.Drasil.Printing.PrintingInformation</text>
</g>
<!-- u20 -->
<g id="node24" class="node">
<title>u20</title>
<ellipse fill="#7777ff" stroke="black" cx="1312.39" cy="-450" rx="187.67" ry="18"/>
<text text-anchor="middle" x="1312.39" y="-446.3" font-family="Times,serif" font-size="14.00">Language.Drasil.Printing.Import.Expr</text>
</g>
<!-- u22&#45;&gt;u20 -->
<g id="edge33" class="edge">
<title>u22&#45;&gt;u20</title>
<path fill="none" stroke="black" d="M1502.07,-847.68C1511.27,-799.98 1530.96,-664.05 1479.39,-571 1453.67,-524.6 1401.54,-491.64 1362.33,-472.14"/>
<polygon fill="black" stroke="black" points="1363.7,-468.92 1353.17,-467.72 1360.65,-475.22 1363.7,-468.92"/>
</g>
<!-- u19 -->
<g id="node25" class="node">
<title>u19</title>
<ellipse fill="#7777ff" stroke="black" cx="1739.39" cy="-728" rx="212.56" ry="18"/>
<text text-anchor="middle" x="1739.39" y="-724.3" font-family="Times,serif" font-size="14.00">Language.Drasil.Printing.Import.Document</text>
</g>
<!-- u22&#45;&gt;u19 -->
<g id="edge32" class="edge">
<title>u22&#45;&gt;u19</title>
<path fill="none" stroke="black" d="M1528.42,-848.05C1571.93,-823.5 1652.5,-778.03 1700.5,-750.95"/>
<polygon fill="black" stroke="black" points="1702.36,-753.91 1709.35,-745.95 1698.92,-747.82 1702.36,-753.91"/>
</g>
<!-- u12&#45;&gt;u25 -->
<g id="edge14" class="edge">
<title>u12&#45;&gt;u25</title>
<path fill="none" stroke="black" d="M901.39,-431.78C901.39,-408.68 901.39,-367.43 901.39,-340.14"/>
<polygon fill="black" stroke="black" points="904.89,-340.08 901.39,-330.08 897.89,-340.08 904.89,-340.08"/>
</g>
<!-- u21 -->
<g id="node23" class="node">
<title>u21</title>
<ellipse fill="#7777ff" stroke="black" cx="2138.39" cy="-312" rx="200.36" ry="18"/>
<text text-anchor="middle" x="2138.39" y="-308.3" font-family="Times,serif" font-size="14.00">Language.Drasil.Printing.Import.Symbol</text>
</g>
<!-- u21&#45;&gt;u11 -->
<g id="edge31" class="edge">
<title>u21&#45;&gt;u11</title>
<path fill="none" stroke="black" d="M2111.78,-294.16C2059.57,-261.91 1939.14,-191.41 1828.39,-155 1636.92,-92.05 1404.35,-60.9 1262.16,-46.65"/>
<polygon fill="black" stroke="black" points="1262.38,-43.15 1252.08,-45.65 1261.69,-50.12 1262.38,-43.15"/>
</g>
<!-- u20&#45;&gt;u21 -->
<g id="edge30" class="edge">
<title>u20&#45;&gt;u21</title>
<path fill="none" stroke="black" d="M1402.36,-434.19C1557.47,-408.65 1874.23,-356.49 2036.94,-329.7"/>
<polygon fill="black" stroke="black" points="2037.66,-333.13 2046.96,-328.05 2036.52,-326.23 2037.66,-333.13"/>
</g>
<!-- u13 -->
<g id="node31" class="node">
<title>u13</title>
<ellipse fill="#7777ff" stroke="black" cx="1320.39" cy="-312" rx="196.07" ry="18"/>
<text text-anchor="middle" x="1320.39" y="-308.3" font-family="Times,serif" font-size="14.00">Language.Drasil.Printing.Import.Literal</text>
</g>
<!-- u20&#45;&gt;u13 -->
<g id="edge29" class="edge">
<title>u20&#45;&gt;u13</title>
<path fill="none" stroke="black" d="M1313.4,-431.78C1314.76,-408.68 1317.18,-367.43 1318.79,-340.14"/>
<polygon fill="black" stroke="black" points="1322.29,-340.27 1319.38,-330.08 1315.3,-339.86 1322.29,-340.27"/>
</g>
<!-- u19&#45;&gt;u24 -->
<g id="edge28" class="edge">
<title>u19&#45;&gt;u24</title>
<path fill="none" stroke="black" d="M1685.35,-710.47C1602.01,-684.99 1442.55,-636.23 1354.2,-609.21"/>
<polygon fill="black" stroke="black" points="1355.16,-605.84 1344.57,-606.26 1353.11,-612.54 1355.16,-605.84"/>
</g>
<!-- u18 -->
<g id="node26" class="node">
<title>u18</title>
<ellipse fill="#7777ff" stroke="black" cx="1734.39" cy="-589" rx="207.96" ry="18"/>
<text text-anchor="middle" x="1734.39" y="-585.3" font-family="Times,serif" font-size="14.00">Language.Drasil.Printing.Import.Sentence</text>
</g>
<!-- u19&#45;&gt;u18 -->
<g id="edge27" class="edge">
<title>u19&#45;&gt;u18</title>
<path fill="none" stroke="black" d="M1738.76,-709.93C1737.92,-686.75 1736.4,-645.06 1735.39,-617.46"/>
<polygon fill="black" stroke="black" points="1738.88,-617.15 1735.02,-607.29 1731.88,-617.41 1738.88,-617.15"/>
</g>
<!-- u15 -->
<g id="node29" class="node">
<title>u15</title>
<ellipse fill="#7777ff" stroke="black" cx="2180.39" cy="-450" rx="211.46" ry="18"/>
<text text-anchor="middle" x="2180.39" y="-446.3" font-family="Times,serif" font-size="14.00">Language.Drasil.Printing.Import.CodeExpr</text>
</g>
<!-- u19&#45;&gt;u15 -->
<g id="edge26" class="edge">
<title>u19&#45;&gt;u15</title>
<path fill="none" stroke="black" d="M1771.11,-710.11C1812.99,-687.58 1888.72,-645.99 1951.39,-607 2023.38,-562.21 2104.79,-505.15 2148.52,-473.95"/>
<polygon fill="black" stroke="black" points="2150.65,-476.72 2156.75,-468.06 2146.58,-471.03 2150.65,-476.72"/>
</g>
<!-- u17 -->
<g id="node27" class="node">
<title>u17</title>
<ellipse fill="#7777ff" stroke="black" cx="1734.39" cy="-450" rx="216.36" ry="18"/>
<text text-anchor="middle" x="1734.39" y="-446.3" font-family="Times,serif" font-size="14.00">Language.Drasil.Printing.Import.ModelExpr</text>
</g>
<!-- u18&#45;&gt;u17 -->
<g id="edge25" class="edge">
<title>u18&#45;&gt;u17</title>
<path fill="none" stroke="black" d="M1734.39,-570.93C1734.39,-547.75 1734.39,-506.06 1734.39,-478.46"/>
<polygon fill="black" stroke="black" points="1737.89,-478.29 1734.39,-468.29 1730.89,-478.29 1737.89,-478.29"/>
</g>
<!-- u17&#45;&gt;u21 -->
<g id="edge24" class="edge">
<title>u17&#45;&gt;u21</title>
<path fill="none" stroke="black" d="M1783.52,-432.46C1858.03,-407.38 1999.38,-359.79 2079.36,-332.87"/>
<polygon fill="black" stroke="black" points="2080.92,-336.04 2089.28,-329.53 2078.68,-329.4 2080.92,-336.04"/>
</g>
<!-- u14 -->
<g id="node30" class="node">
<title>u14</title>
<ellipse fill="#7777ff" stroke="black" cx="1727.39" cy="-312" rx="193.07" ry="18"/>
<text text-anchor="middle" x="1727.39" y="-308.3" font-family="Times,serif" font-size="14.00">Language.Drasil.Printing.Import.Space</text>
</g>
<!-- u17&#45;&gt;u14 -->
<g id="edge23" class="edge">
<title>u17&#45;&gt;u14</title>
<path fill="none" stroke="black" d="M1733.5,-431.78C1732.31,-408.68 1730.19,-367.43 1728.78,-340.14"/>
<polygon fill="black" stroke="black" points="1732.28,-339.89 1728.27,-330.08 1725.28,-340.25 1732.28,-339.89"/>
</g>
<!-- u17&#45;&gt;u13 -->
<g id="edge22" class="edge">
<title>u17&#45;&gt;u13</title>
<path fill="none" stroke="black" d="M1684.04,-432.46C1607.42,-407.29 1461.85,-359.47 1380.04,-332.6"/>
<polygon fill="black" stroke="black" points="1380.98,-329.22 1370.39,-329.43 1378.8,-335.87 1380.98,-329.22"/>
</g>
<!-- u16 -->
<g id="node28" class="node">
<title>u16</title>
<ellipse fill="#7777ff" stroke="black" cx="1131.39" cy="-173" rx="202.26" ry="18"/>
<text text-anchor="middle" x="1131.39" y="-169.3" font-family="Times,serif" font-size="14.00">Language.Drasil.Printing.Import.Helpers</text>
</g>
<!-- u16&#45;&gt;u11 -->
<g id="edge21" class="edge">
<title>u16&#45;&gt;u11</title>
<path fill="none" stroke="black" d="M1131.39,-154.78C1131.39,-131.68 1131.39,-90.43 1131.39,-63.14"/>
<polygon fill="black" stroke="black" points="1134.89,-63.08 1131.39,-53.08 1127.89,-63.08 1134.89,-63.08"/>
</g>
<!-- u15&#45;&gt;u21 -->
<g id="edge20" class="edge">
<title>u15&#45;&gt;u21</title>
<path fill="none" stroke="black" d="M2175.07,-431.78C2167.9,-408.58 2155.08,-367.07 2146.66,-339.78"/>
<polygon fill="black" stroke="black" points="2149.96,-338.61 2143.66,-330.08 2143.27,-340.67 2149.96,-338.61"/>
</g>
<!-- u15&#45;&gt;u13 -->
<g id="edge19" class="edge">
<title>u15&#45;&gt;u13</title>
<path fill="none" stroke="black" d="M2085.07,-433.93C1922.42,-408.21 1592.6,-356.05 1424.28,-329.43"/>
<polygon fill="black" stroke="black" points="1424.59,-325.94 1414.17,-327.83 1423.5,-332.85 1424.59,-325.94"/>
</g>
<!-- u14&#45;&gt;u23 -->
<g id="edge18" class="edge">
<title>u14&#45;&gt;u23</title>
<path fill="none" stroke="black" d="M1708.44,-293.93C1681.7,-269.83 1632.76,-225.71 1602.27,-198.23"/>
<polygon fill="black" stroke="black" points="1604.34,-195.38 1594.57,-191.29 1599.65,-200.58 1604.34,-195.38"/>
</g>
<!-- u14&#45;&gt;u11 -->
<g id="edge17" class="edge">
<title>u14&#45;&gt;u11</title>
<path fill="none" stroke="black" d="M1748.2,-294.09C1782.99,-263.83 1845.67,-199.41 1808.39,-155 1742.82,-76.9 1463.1,-50.04 1284.36,-40.82"/>
<polygon fill="black" stroke="black" points="1284.5,-37.32 1274.34,-40.31 1284.15,-44.31 1284.5,-37.32"/>
</g>
<!-- u13&#45;&gt;u23 -->
<g id="edge16" class="edge">
<title>u13&#45;&gt;u23</title>
<path fill="none" stroke="black" d="M1351.65,-294.2C1397.73,-269.45 1483.88,-223.16 1534.79,-195.81"/>
<polygon fill="black" stroke="black" points="1536.71,-198.75 1543.86,-190.94 1533.4,-192.59 1536.71,-198.75"/>
</g>
<!-- u13&#45;&gt;u16 -->
<g id="edge15" class="edge">
<title>u13&#45;&gt;u16</title>
<path fill="none" stroke="black" d="M1296.83,-293.93C1263.07,-269.45 1200.83,-224.34 1163.07,-196.96"/>
<polygon fill="black" stroke="black" points="1165.09,-194.11 1154.94,-191.07 1160.98,-199.78 1165.09,-194.11"/>
</g>
<!-- u4 -->
<g id="node32" class="node">
<title>u4</title>
<ellipse fill="#ff7777" stroke="black" cx="975.39" cy="-866" rx="154.07" ry="18"/>
<text text-anchor="middle" x="975.39" y="-862.3" font-family="Times,serif" font-size="14.00">Language.Drasil.TeX.Preamble</text>
</g>
<!-- u4&#45;&gt;u24 -->
<g id="edge7" class="edge">
<title>u4&#45;&gt;u24</title>
<path fill="none" stroke="black" d="M1075.51,-852.26C1192.94,-835.03 1376.92,-800.07 1418.39,-746 1455.78,-697.24 1381.79,-641.82 1331.85,-611.92"/>
<polygon fill="black" stroke="black" points="1333.55,-608.86 1323.15,-606.82 1330.01,-614.9 1333.55,-608.86"/>
</g>
<!-- u2 -->
<g id="node34" class="node">
<title>u2</title>
<ellipse fill="#ff7777" stroke="black" cx="887.39" cy="-728" rx="146.47" ry="18"/>
<text text-anchor="middle" x="887.39" y="-724.3" font-family="Times,serif" font-size="14.00">Language.Drasil.TeX.Helpers</text>
</g>
<!-- u4&#45;&gt;u2 -->
<g id="edge6" class="edge">
<title>u4&#45;&gt;u2</title>
<path fill="none" stroke="black" d="M964.24,-847.78C949.03,-824.27 921.66,-781.97 904.02,-754.7"/>
<polygon fill="black" stroke="black" points="906.81,-752.58 898.44,-746.08 900.94,-756.38 906.81,-752.58"/>
</g>
<!-- u3 -->
<g id="node33" class="node">
<title>u3</title>
<ellipse fill="#ff7777" stroke="black" cx="657.39" cy="-589" rx="141.88" ry="18"/>
<text text-anchor="middle" x="657.39" y="-585.3" font-family="Times,serif" font-size="14.00">Language.Drasil.TeX.Monad</text>
</g>
<!-- u3&#45;&gt;u12 -->
<g id="edge5" class="edge">
<title>u3&#45;&gt;u12</title>
<path fill="none" stroke="black" d="M687.31,-571.2C731.42,-546.43 813.94,-500.1 862.63,-472.76"/>
<polygon fill="black" stroke="black" points="864.6,-475.67 871.6,-467.72 861.17,-469.57 864.6,-475.67"/>
</g>
<!-- u2&#45;&gt;u10 -->
<g id="edge4" class="edge">
<title>u2&#45;&gt;u10</title>
<path fill="none" stroke="black" d="M893.49,-709.93C901.86,-686.54 916.96,-644.33 926.83,-616.73"/>
<polygon fill="black" stroke="black" points="930.13,-617.88 930.2,-607.29 923.54,-615.53 930.13,-617.88"/>
</g>
<!-- u2&#45;&gt;u3 -->
<g id="edge3" class="edge">
<title>u2&#45;&gt;u3</title>
<path fill="none" stroke="black" d="M859.18,-710.2C817.69,-685.48 740.14,-639.29 694.21,-611.93"/>
<polygon fill="black" stroke="black" points="695.84,-608.83 685.46,-606.72 692.26,-614.85 695.84,-608.83"/>
</g>
<!-- u1&#45;&gt;u22 -->
<g id="edge2" class="edge">
<title>u1&#45;&gt;u22</title>
<path fill="none" stroke="black" d="M1033.61,-988.75C1130.46,-963.38 1324.3,-912.6 1428.42,-885.33"/>
<polygon fill="black" stroke="black" points="1429.43,-888.68 1438.21,-882.76 1427.65,-881.91 1429.43,-888.68"/>
</g>
<!-- u1&#45;&gt;u4 -->
<g id="edge1" class="edge">
<title>u1&#45;&gt;u4</title>
<path fill="none" stroke="black" d="M975.39,-986.93C975.39,-963.75 975.39,-922.06 975.39,-894.46"/>
<polygon fill="black" stroke="black" points="978.89,-894.29 975.39,-884.29 971.89,-894.29 978.89,-894.29"/>
</g>
</g>
</svg>
