<?xml version="1.0" encoding="UTF-8" standalone="no"?>
<!DOCTYPE svg PUBLIC "-//W3C//DTD SVG 1.1//EN"
 "http://www.w3.org/Graphics/SVG/1.1/DTD/svg11.dtd">
<!-- Generated by graphviz version 2.43.0 (0)
 -->
<!-- Title: G Pages: 1 -->
<svg width="432pt" height="288pt"
 viewBox="0.00 0.00 431.81 288.00" xmlns="http://www.w3.org/2000/svg" xmlns:xlink="http://www.w3.org/1999/xlink">
<g id="graph0" class="graph" transform="scale(16.35 16.35) rotate(0) translate(4 4705.33)">
<title>G</title>
<polygon fill="white" stroke="transparent" points="-4,4 -4,-4705.33 7056.82,-4705.33 7056.82,4 -4,4"/>
<!-- u5 -->
<g id="node1" class="node">
<title>u5</title>
<ellipse fill="#bbffbb" stroke="black" cx="64.99" cy="-4322" rx="64.99" ry="18"/>
<text text-anchor="middle" x="64.99" y="-4318.3" font-family="Times,serif" font-size="14.00">PatternTest</text>
</g>
<!-- u2 -->
<g id="node4" class="node">
<title>u2</title>
<ellipse fill="#bbffbb" stroke="black" cx="64.99" cy="-4019" rx="53.89" ry="18"/>
<text text-anchor="middle" x="64.99" y="-4015.3" font-family="Times,serif" font-size="14.00">Observer</text>
</g>
<!-- u5&#45;&gt;u2 -->
<g id="edge6" class="edge">
<title>u5&#45;&gt;u2</title>
<path fill="none" stroke="black" d="M64.99,-4303.95C64.99,-4254.09 64.99,-4108.2 64.99,-4047.25"/>
<polygon fill="black" stroke="black" points="68.49,-4047.23 64.99,-4037.23 61.49,-4047.23 68.49,-4047.23"/>
</g>
<!-- u4 -->
<g id="node2" class="node">
<title>u4</title>
<ellipse fill="#bbffbb" stroke="black" cx="200.99" cy="-4322" rx="52.79" ry="18"/>
<text text-anchor="middle" x="200.99" y="-4318.3" font-family="Times,serif" font-size="14.00">FileTests</text>
</g>
<!-- u3 -->
<g id="node3" class="node">
<title>u3</title>
<ellipse fill="#bbffbb" stroke="black" cx="333.99" cy="-4322" rx="62.29" ry="18"/>
<text text-anchor="middle" x="333.99" y="-4318.3" font-family="Times,serif" font-size="14.00">HelloWorld</text>
</g>
<!-- u0 -->
<g id="node5" class="node">
<title>u0</title>
<ellipse fill="#bbffbb" stroke="black" cx="255.99" cy="-4019" rx="42.49" ry="18"/>
<text text-anchor="middle" x="255.99" y="-4015.3" font-family="Times,serif" font-size="14.00">Helper</text>
</g>
<!-- u3&#45;&gt;u0 -->
<g id="edge5" class="edge">
<title>u3&#45;&gt;u0</title>
<path fill="none" stroke="black" d="M329.58,-4303.95C316.66,-4254.09 278.85,-4108.2 263.06,-4047.25"/>
<polygon fill="black" stroke="black" points="266.36,-4046.03 260.46,-4037.23 259.58,-4047.79 266.36,-4046.03"/>
</g>
<!-- u6 -->
<g id="node6" class="node">
<title>u6</title>
<ellipse fill="#ffffbb" stroke="black" cx="1735.99" cy="-4626" rx="214.46" ry="18"/>
<text text-anchor="middle" x="1735.99" y="-4622.3" font-family="Times,serif" font-size="14.00">Data.Drasil.ExternalLibraries.ODELibraries</text>
</g>
<!-- u56 -->
<g id="node7" class="node">
<title>u56</title>
<ellipse fill="#bbbbff" stroke="black" cx="1735.99" cy="-4322" rx="113.18" ry="18"/>
<text text-anchor="middle" x="1735.99" y="-4318.3" font-family="Times,serif" font-size="14.00">Language.Drasil.Code</text>
</g>
<!-- u6&#45;&gt;u56 -->
<g id="edge7" class="edge">
<title>u6&#45;&gt;u56</title>
<path fill="none" stroke="black" d="M1735.99,-4607.9C1735.99,-4557.87 1735.99,-4411.5 1735.99,-4350.34"/>
<polygon fill="black" stroke="black" points="1739.49,-4350.29 1735.99,-4340.29 1732.49,-4350.29 1739.49,-4350.29"/>
</g>
<!-- u34 -->
<g id="node27" class="node">
<title>u34</title>
<ellipse fill="#ffbbff" stroke="black" cx="1034.99" cy="-2502" rx="217.96" ry="18"/>
<text text-anchor="middle" x="1034.99" y="-2498.3" font-family="Times,serif" font-size="14.00">Language.Drasil.Code.Imperative.ReadInput</text>
</g>
<!-- u56&#45;&gt;u34 -->
<g id="edge84" class="edge">
<title>u56&#45;&gt;u34</title>
<path fill="none" stroke="black" d="M1667.99,-4307.51C1386.33,-4249.74 325.99,-4012.6 325.99,-3717 325.99,-3717 325.99,-3717 325.99,-3108 325.99,-2770.13 797.66,-2580.93 971.58,-2522.66"/>
<polygon fill="black" stroke="black" points="972.73,-2525.96 981.12,-2519.49 970.53,-2519.32 972.73,-2525.96"/>
</g>
<!-- u20 -->
<g id="node38" class="node">
<title>u20</title>
<ellipse fill="#ffbbff" stroke="black" cx="4457.99" cy="-4019" rx="217.16" ry="18"/>
<text text-anchor="middle" x="4457.99" y="-4015.3" font-family="Times,serif" font-size="14.00">Language.Drasil.Code.Imperative.Generator</text>
</g>
<!-- u56&#45;&gt;u20 -->
<g id="edge83" class="edge">
<title>u56&#45;&gt;u20</title>
<path fill="none" stroke="black" d="M1826.17,-4311.03C2226.45,-4266.76 3843.81,-4087.92 4323.35,-4034.89"/>
<polygon fill="black" stroke="black" points="4323.88,-4038.35 4333.44,-4033.77 4323.11,-4031.39 4323.88,-4038.35"/>
</g>
<!-- u39 -->
<g id="node49" class="node">
<title>u39</title>
<ellipse fill="#ff7777" stroke="black" cx="2924.99" cy="-3716" rx="352.84" ry="18"/>
<text text-anchor="middle" x="2924.99" y="-3712.3" font-family="Times,serif" font-size="14.00">Language.Drasil.Code.Imperative.GOOL.LanguageRenderer.CppRenderer</text>
</g>
<!-- u56&#45;&gt;u39 -->
<g id="edge89" class="edge">
<title>u56&#45;&gt;u39</title>
<path fill="none" stroke="black" d="M1768.1,-4304.69C1934,-4220.42 2693.49,-3834.6 2882.37,-3738.65"/>
<polygon fill="black" stroke="black" points="2884.11,-3741.69 2891.44,-3734.04 2880.94,-3735.45 2884.11,-3741.69"/>
</g>
<!-- u38 -->
<g id="node50" class="node">
<title>u38</title>
<ellipse fill="#ff7777" stroke="black" cx="3662.99" cy="-3716" rx="367.43" ry="18"/>
<text text-anchor="middle" x="3662.99" y="-3712.3" font-family="Times,serif" font-size="14.00">Language.Drasil.Code.Imperative.GOOL.LanguageRenderer.PythonRenderer</text>
</g>
<!-- u56&#45;&gt;u38 -->
<g id="edge88" class="edge">
<title>u56&#45;&gt;u38</title>
<path fill="none" stroke="black" d="M1785.08,-4305.62C2049.33,-4222.79 3301.81,-3830.21 3599.43,-3736.92"/>
<polygon fill="black" stroke="black" points="3600.7,-3740.19 3609.2,-3733.86 3598.61,-3733.51 3600.7,-3740.19"/>
</g>
<!-- u37 -->
<g id="node51" class="node">
<title>u37</title>
<ellipse fill="#ff7777" stroke="black" cx="712.99" cy="-3716" rx="358.54" ry="18"/>
<text text-anchor="middle" x="712.99" y="-3712.3" font-family="Times,serif" font-size="14.00">Language.Drasil.Code.Imperative.GOOL.LanguageRenderer.SwiftRenderer</text>
</g>
<!-- u56&#45;&gt;u37 -->
<g id="edge87" class="edge">
<title>u56&#45;&gt;u37</title>
<path fill="none" stroke="black" d="M1708.1,-4304.53C1565.1,-4220.1 914.56,-3836.01 750.6,-3739.2"/>
<polygon fill="black" stroke="black" points="752.22,-3736.1 741.83,-3734.03 748.66,-3742.12 752.22,-3736.1"/>
</g>
<!-- u36 -->
<g id="node52" class="node">
<title>u36</title>
<ellipse fill="#ff7777" stroke="black" cx="1443.99" cy="-3716" rx="354.44" ry="18"/>
<text text-anchor="middle" x="1443.99" y="-3712.3" font-family="Times,serif" font-size="14.00">Language.Drasil.Code.Imperative.GOOL.LanguageRenderer.JavaRenderer</text>
</g>
<!-- u56&#45;&gt;u36 -->
<g id="edge86" class="edge">
<title>u56&#45;&gt;u36</title>
<path fill="none" stroke="black" d="M1727.73,-4303.9C1686.86,-4219.37 1506.45,-3846.2 1456.73,-3743.33"/>
<polygon fill="black" stroke="black" points="1459.83,-3741.72 1452.33,-3734.24 1453.53,-3744.77 1459.83,-3741.72"/>
</g>
<!-- u35 -->
<g id="node53" class="node">
<title>u35</title>
<ellipse fill="#ff7777" stroke="black" cx="2184.99" cy="-3716" rx="369.33" ry="18"/>
<text text-anchor="middle" x="2184.99" y="-3712.3" font-family="Times,serif" font-size="14.00">Language.Drasil.Code.Imperative.GOOL.LanguageRenderer.CSharpRenderer</text>
</g>
<!-- u56&#45;&gt;u35 -->
<g id="edge85" class="edge">
<title>u56&#45;&gt;u35</title>
<path fill="none" stroke="black" d="M1748.71,-4303.9C1811.73,-4219.11 2090.63,-3843.94 2166.11,-3742.41"/>
<polygon fill="black" stroke="black" points="2169.02,-3744.36 2172.18,-3734.24 2163.4,-3740.18 2169.02,-3744.36"/>
</g>
<!-- u55 -->
<g id="node8" class="node">
<title>u55</title>
<ellipse fill="#bbbbff" stroke="black" cx="4916.99" cy="-2199" rx="135.68" ry="18"/>
<text text-anchor="middle" x="4916.99" y="-2195.3" font-family="Times,serif" font-size="14.00">Language.Drasil.CodeSpec</text>
</g>
<!-- u7 -->
<g id="node10" class="node">
<title>u7</title>
<ellipse fill="#bbbbff" stroke="black" cx="3873.99" cy="-1896" rx="126.18" ry="18"/>
<text text-anchor="middle" x="3873.99" y="-1892.3" font-family="Times,serif" font-size="14.00">Language.Drasil.Choices</text>
</g>
<!-- u55&#45;&gt;u7 -->
<g id="edge80" class="edge">
<title>u55&#45;&gt;u7</title>
<path fill="none" stroke="black" d="M4863.11,-2182.45C4686.59,-2131.51 4126.16,-1969.77 3937.03,-1915.19"/>
<polygon fill="black" stroke="black" points="3937.82,-1911.78 3927.24,-1912.37 3935.88,-1918.5 3937.82,-1911.78"/>
</g>
<!-- u11 -->
<g id="node13" class="node">
<title>u11</title>
<ellipse fill="#ffbbbb" stroke="black" cx="4934.99" cy="-1896" rx="192.27" ry="18"/>
<text text-anchor="middle" x="4934.99" y="-1892.3" font-family="Times,serif" font-size="14.00">Language.Drasil.Chunk.ConstraintMap</text>
</g>
<!-- u55&#45;&gt;u11 -->
<g id="edge82" class="edge">
<title>u55&#45;&gt;u11</title>
<path fill="none" stroke="black" d="M4918.01,-2180.95C4921,-2131.09 4929.72,-1985.2 4933.36,-1924.25"/>
<polygon fill="black" stroke="black" points="4936.86,-1924.42 4933.96,-1914.23 4929.87,-1924 4936.86,-1924.42"/>
</g>
<!-- u8 -->
<g id="node16" class="node">
<title>u8</title>
<ellipse fill="#ffbbbb" stroke="black" cx="4533.99" cy="-1896" rx="191.17" ry="18"/>
<text text-anchor="middle" x="4533.99" y="-1892.3" font-family="Times,serif" font-size="14.00">Language.Drasil.Chunk.CodeDefinition</text>
</g>
<!-- u55&#45;&gt;u8 -->
<g id="edge81" class="edge">
<title>u55&#45;&gt;u8</title>
<path fill="none" stroke="black" d="M4895.58,-2181.17C4830.96,-2130.39 4637.8,-1978.58 4563.53,-1920.22"/>
<polygon fill="black" stroke="black" points="4565.52,-1917.32 4555.49,-1913.9 4561.19,-1922.83 4565.52,-1917.32"/>
</g>
<!-- u54 -->
<g id="node9" class="node">
<title>u54</title>
<ellipse fill="#bbbbff" stroke="black" cx="3755.99" cy="-986" rx="110.48" ry="18"/>
<text text-anchor="middle" x="3755.99" y="-982.3" font-family="Times,serif" font-size="14.00">Language.Drasil.Mod</text>
</g>
<!-- u10 -->
<g id="node14" class="node">
<title>u10</title>
<ellipse fill="#ffbbbb" stroke="black" cx="3755.99" cy="-682" rx="170.87" ry="18"/>
<text text-anchor="middle" x="3755.99" y="-678.3" font-family="Times,serif" font-size="14.00">Language.Drasil.Chunk.Parameter</text>
</g>
<!-- u54&#45;&gt;u10 -->
<g id="edge78" class="edge">
<title>u54&#45;&gt;u10</title>
<path fill="none" stroke="black" d="M3755.99,-967.9C3755.99,-917.87 3755.99,-771.5 3755.99,-710.34"/>
<polygon fill="black" stroke="black" points="3759.49,-710.29 3755.99,-700.29 3752.49,-710.29 3759.49,-710.29"/>
</g>
<!-- u48 -->
<g id="node22" class="node">
<title>u48</title>
<ellipse fill="#bbffff" stroke="black" cx="3044.99" cy="-682" rx="160.57" ry="18"/>
<text text-anchor="middle" x="3044.99" y="-678.3" font-family="Times,serif" font-size="14.00">Language.Drasil.Code.DataDesc</text>
</g>
<!-- u54&#45;&gt;u48 -->
<g id="edge79" class="edge">
<title>u54&#45;&gt;u48</title>
<path fill="none" stroke="black" d="M3718.27,-968.98C3598.54,-918.12 3227.13,-760.36 3093.51,-703.61"/>
<polygon fill="black" stroke="black" points="3094.5,-700.23 3083.93,-699.54 3091.76,-706.67 3094.5,-700.23"/>
</g>
<!-- u52 -->
<g id="node18" class="node">
<title>u52</title>
<ellipse fill="#bbffff" stroke="black" cx="3470.99" cy="-1592" rx="139.98" ry="18"/>
<text text-anchor="middle" x="3470.99" y="-1588.3" font-family="Times,serif" font-size="14.00">Language.Drasil.Code.Code</text>
</g>
<!-- u7&#45;&gt;u52 -->
<g id="edge9" class="edge">
<title>u7&#45;&gt;u52</title>
<path fill="none" stroke="black" d="M3851.46,-1878.12C3783.47,-1827.16 3580.22,-1674.85 3502.08,-1616.29"/>
<polygon fill="black" stroke="black" points="3503.72,-1613.15 3493.61,-1609.95 3499.52,-1618.75 3503.72,-1613.15"/>
</g>
<!-- u14 -->
<g id="node56" class="node">
<title>u14</title>
<ellipse fill="#ff77ff" stroke="black" cx="3873.99" cy="-1592" rx="172.77" ry="18"/>
<text text-anchor="middle" x="3873.99" y="-1588.3" font-family="Times,serif" font-size="14.00">Language.Drasil.Data.ODELibPckg</text>
</g>
<!-- u7&#45;&gt;u14 -->
<g id="edge8" class="edge">
<title>u7&#45;&gt;u14</title>
<path fill="none" stroke="black" d="M3873.99,-1877.9C3873.99,-1827.87 3873.99,-1681.5 3873.99,-1620.34"/>
<polygon fill="black" stroke="black" points="3877.49,-1620.29 3873.99,-1610.29 3870.49,-1620.29 3877.49,-1620.29"/>
</g>
<!-- u13 -->
<g id="node11" class="node">
<title>u13</title>
<ellipse fill="#ffbbbb" stroke="black" cx="3755.99" cy="-379" rx="145.67" ry="18"/>
<text text-anchor="middle" x="3755.99" y="-375.3" font-family="Times,serif" font-size="14.00">Language.Drasil.Chunk.Code</text>
</g>
<!-- u9 -->
<g id="node15" class="node">
<title>u9</title>
<ellipse fill="#ffbbbb" stroke="black" cx="3755.99" cy="-76" rx="168.17" ry="18"/>
<text text-anchor="middle" x="3755.99" y="-72.3" font-family="Times,serif" font-size="14.00">Language.Drasil.Chunk.CodeBase</text>
</g>
<!-- u13&#45;&gt;u9 -->
<g id="edge12" class="edge">
<title>u13&#45;&gt;u9</title>
<path fill="none" stroke="black" d="M3755.99,-360.95C3755.99,-311.09 3755.99,-165.2 3755.99,-104.25"/>
<polygon fill="black" stroke="black" points="3759.49,-104.23 3755.99,-94.23 3752.49,-104.23 3759.49,-104.23"/>
</g>
<!-- u12 -->
<g id="node12" class="node">
<title>u12</title>
<ellipse fill="#ffbbbb" stroke="black" cx="4128.99" cy="-986" rx="202.26" ry="18"/>
<text text-anchor="middle" x="4128.99" y="-982.3" font-family="Times,serif" font-size="14.00">Language.Drasil.Chunk.NamedArgument</text>
</g>
<!-- u10&#45;&gt;u13 -->
<g id="edge11" class="edge">
<title>u10&#45;&gt;u13</title>
<path fill="none" stroke="black" d="M3755.99,-663.95C3755.99,-614.09 3755.99,-468.2 3755.99,-407.25"/>
<polygon fill="black" stroke="black" points="3759.49,-407.23 3755.99,-397.23 3752.49,-407.23 3759.49,-407.23"/>
</g>
<!-- u15 -->
<g id="node55" class="node">
<title>u15</title>
<ellipse fill="#ff77ff" stroke="black" cx="4533.99" cy="-1289" rx="154.07" ry="18"/>
<text text-anchor="middle" x="4533.99" y="-1285.3" font-family="Times,serif" font-size="14.00">Language.Drasil.Data.ODEInfo</text>
</g>
<!-- u8&#45;&gt;u15 -->
<g id="edge10" class="edge">
<title>u8&#45;&gt;u15</title>
<path fill="none" stroke="black" d="M4533.99,-1877.87C4533.99,-1793.46 4533.99,-1421.67 4533.99,-1317.32"/>
<polygon fill="black" stroke="black" points="4537.49,-1317.27 4533.99,-1307.27 4530.49,-1317.27 4537.49,-1317.27"/>
</g>
<!-- u53 -->
<g id="node17" class="node">
<title>u53</title>
<ellipse fill="#bbffff" stroke="black" cx="6546.99" cy="-2806" rx="204.16" ry="18"/>
<text text-anchor="middle" x="6546.99" y="-2802.3" font-family="Times,serif" font-size="14.00">Language.Drasil.Code.CodeQuantityDicts</text>
</g>
<!-- u51 -->
<g id="node19" class="node">
<title>u51</title>
<ellipse fill="#bbffff" stroke="black" cx="4171.99" cy="-1289" rx="190.37" ry="18"/>
<text text-anchor="middle" x="4171.99" y="-1285.3" font-family="Times,serif" font-size="14.00">Language.Drasil.Code.ExternalLibrary</text>
</g>
<!-- u51&#45;&gt;u54 -->
<g id="edge77" class="edge">
<title>u51&#45;&gt;u54</title>
<path fill="none" stroke="black" d="M4148.44,-1270.95C4077.71,-1219.78 3867.17,-1067.44 3787.24,-1009.61"/>
<polygon fill="black" stroke="black" points="3789.19,-1006.7 3779.04,-1003.67 3785.09,-1012.37 3789.19,-1006.7"/>
</g>
<!-- u51&#45;&gt;u12 -->
<g id="edge76" class="edge">
<title>u51&#45;&gt;u12</title>
<path fill="none" stroke="black" d="M4169.56,-1270.95C4162.44,-1221.09 4141.59,-1075.2 4132.89,-1014.25"/>
<polygon fill="black" stroke="black" points="4136.34,-1013.64 4131.46,-1004.23 4129.41,-1014.63 4136.34,-1013.64"/>
</g>
<!-- u50 -->
<g id="node20" class="node">
<title>u50</title>
<ellipse fill="#bbffff" stroke="black" cx="4261.99" cy="-1592" rx="178.97" ry="18"/>
<text text-anchor="middle" x="4261.99" y="-1588.3" font-family="Times,serif" font-size="14.00">Language.Drasil.Code.ExtLibImport</text>
</g>
<!-- u50&#45;&gt;u51 -->
<g id="edge75" class="edge">
<title>u50&#45;&gt;u51</title>
<path fill="none" stroke="black" d="M4256.9,-1573.95C4241.96,-1523.99 4198.19,-1377.6 4180.03,-1316.88"/>
<polygon fill="black" stroke="black" points="4183.36,-1315.81 4177.15,-1307.23 4176.66,-1317.82 4183.36,-1315.81"/>
</g>
<!-- u46 -->
<g id="node24" class="node">
<title>u46</title>
<ellipse fill="#bbffff" stroke="black" cx="3755.99" cy="-1289" rx="207.96" ry="18"/>
<text text-anchor="middle" x="3755.99" y="-1285.3" font-family="Times,serif" font-size="14.00">Language.Drasil.Code.ExternalLibraryCall</text>
</g>
<!-- u50&#45;&gt;u46 -->
<g id="edge74" class="edge">
<title>u50&#45;&gt;u46</title>
<path fill="none" stroke="black" d="M4233.71,-1574.17C4147.81,-1523.08 3890.02,-1369.73 3793.25,-1312.16"/>
<polygon fill="black" stroke="black" points="3794.78,-1309 3784.4,-1306.9 3791.2,-1315.02 3794.78,-1309"/>
</g>
<!-- u49 -->
<g id="node21" class="node">
<title>u49</title>
<ellipse fill="#bbffff" stroke="black" cx="4238.99" cy="-3716" rx="191.17" ry="18"/>
<text text-anchor="middle" x="4238.99" y="-3712.3" font-family="Times,serif" font-size="14.00">Language.Drasil.Code.CodeGeneration</text>
</g>
<!-- u49&#45;&gt;u52 -->
<g id="edge73" class="edge">
<title>u49&#45;&gt;u52</title>
<path fill="none" stroke="black" d="M4220.94,-3697.97C4116.56,-3598.07 3589.04,-3073.68 3416.99,-2520 3310.87,-2178.47 3429.23,-1732.73 3462.7,-1619.86"/>
<polygon fill="black" stroke="black" points="3466.14,-1620.58 3465.66,-1610 3459.43,-1618.57 3466.14,-1620.58"/>
</g>
<!-- u42 -->
<g id="node46" class="node">
<title>u42</title>
<ellipse fill="#7777ff" stroke="black" cx="2818.99" cy="-3412" rx="222.06" ry="18"/>
<text text-anchor="middle" x="2818.99" y="-3408.3" font-family="Times,serif" font-size="14.00">Language.Drasil.Code.Imperative.GOOL.Data</text>
</g>
<!-- u49&#45;&gt;u42 -->
<g id="edge72" class="edge">
<title>u49&#45;&gt;u42</title>
<path fill="none" stroke="black" d="M4165.14,-3699.29C3924.14,-3648.04 3161.36,-3485.81 2904.42,-3431.17"/>
<polygon fill="black" stroke="black" points="2904.91,-3427.69 2894.4,-3429.04 2903.45,-3434.54 2904.91,-3427.69"/>
</g>
<!-- u48&#45;&gt;u13 -->
<g id="edge71" class="edge">
<title>u48&#45;&gt;u13</title>
<path fill="none" stroke="black" d="M3083.98,-664.5C3205.12,-613.21 3574.81,-456.7 3707.74,-400.43"/>
<polygon fill="black" stroke="black" points="3709.43,-403.52 3717.27,-396.39 3706.7,-397.07 3709.43,-403.52"/>
</g>
<!-- u47 -->
<g id="node23" class="node">
<title>u47</title>
<ellipse fill="#bbffff" stroke="black" cx="3390.99" cy="-1289" rx="139.18" ry="18"/>
<text text-anchor="middle" x="3390.99" y="-1285.3" font-family="Times,serif" font-size="14.00">Language.Drasil.Code.Lang</text>
</g>
<!-- u46&#45;&gt;u54 -->
<g id="edge70" class="edge">
<title>u46&#45;&gt;u54</title>
<path fill="none" stroke="black" d="M3755.99,-1270.95C3755.99,-1221.09 3755.99,-1075.2 3755.99,-1014.25"/>
<polygon fill="black" stroke="black" points="3759.49,-1014.23 3755.99,-1004.23 3752.49,-1014.23 3759.49,-1014.23"/>
</g>
<!-- u46&#45;&gt;u12 -->
<g id="edge69" class="edge">
<title>u46&#45;&gt;u12</title>
<path fill="none" stroke="black" d="M3777.12,-1270.95C3840.18,-1220.06 4027.23,-1069.12 4099.78,-1010.58"/>
<polygon fill="black" stroke="black" points="4102.06,-1013.24 4107.64,-1004.23 4097.66,-1007.79 4102.06,-1013.24"/>
</g>
<!-- u45 -->
<g id="node25" class="node">
<title>u45</title>
<ellipse fill="#ffbbff" stroke="black" cx="6825.99" cy="-3412" rx="226.66" ry="18"/>
<text text-anchor="middle" x="6825.99" y="-3408.3" font-family="Times,serif" font-size="14.00">Language.Drasil.Code.Imperative.SpaceMatch</text>
</g>
<!-- u44 -->
<g id="node26" class="node">
<title>u44</title>
<ellipse fill="#ffbbff" stroke="black" cx="5672.99" cy="-2502" rx="222.06" ry="18"/>
<text text-anchor="middle" x="5672.99" y="-2498.3" font-family="Times,serif" font-size="14.00">Language.Drasil.Code.Imperative.DrasilState</text>
</g>
<!-- u45&#45;&gt;u44 -->
<g id="edge68" class="edge">
<title>u45&#45;&gt;u44</title>
<path fill="none" stroke="black" d="M6832.06,-3393.89C6859.05,-3314.47 6960.31,-2977.58 6807.99,-2788 6684.07,-2633.75 6091.66,-2549.24 5815.41,-2517.64"/>
<polygon fill="black" stroke="black" points="5815.65,-2514.14 5805.32,-2516.49 5814.86,-2521.1 5815.65,-2514.14"/>
</g>
<!-- u44&#45;&gt;u55 -->
<g id="edge67" class="edge">
<title>u44&#45;&gt;u55</title>
<path fill="none" stroke="black" d="M5631,-2484.28C5501.48,-2432.71 5108.46,-2276.23 4967.77,-2220.22"/>
<polygon fill="black" stroke="black" points="4968.67,-2216.81 4958.08,-2216.36 4966.08,-2223.31 4968.67,-2216.81"/>
</g>
<!-- u44&#45;&gt;u50 -->
<g id="edge66" class="edge">
<title>u44&#45;&gt;u50</title>
<path fill="none" stroke="black" d="M5663.2,-2483.91C5616.06,-2403.14 5403.74,-2056.23 5135.99,-1878 4890,-1714.25 4542.65,-1638.28 4369.23,-1608.78"/>
<polygon fill="black" stroke="black" points="4369.77,-1605.32 4359.33,-1607.11 4368.61,-1612.22 4369.77,-1605.32"/>
</g>
<!-- u34&#45;&gt;u48 -->
<g id="edge49" class="edge">
<title>u34&#45;&gt;u48</title>
<path fill="none" stroke="black" d="M1062.81,-2484.13C1163.35,-2420.78 1501.99,-2185.96 1501.99,-1897 1501.99,-1897 1501.99,-1897 1501.99,-1288 1501.99,-975.62 2611.96,-757.92 2949.06,-699.01"/>
<polygon fill="black" stroke="black" points="2950.03,-702.39 2959.28,-697.23 2948.83,-695.49 2950.03,-702.39"/>
</g>
<!-- u33 -->
<g id="node28" class="node">
<title>u33</title>
<ellipse fill="#ffbbff" stroke="black" cx="5701.99" cy="-3412" rx="233.16" ry="18"/>
<text text-anchor="middle" x="5701.99" y="-3408.3" font-family="Times,serif" font-size="14.00">Language.Drasil.Code.Imperative.FunctionCalls</text>
</g>
<!-- u32 -->
<g id="node29" class="node">
<title>u32</title>
<ellipse fill="#ffbbff" stroke="black" cx="6546.99" cy="-3109" rx="223.66" ry="18"/>
<text text-anchor="middle" x="6546.99" y="-3105.3" font-family="Times,serif" font-size="14.00">Language.Drasil.Code.Imperative.Parameters</text>
</g>
<!-- u33&#45;&gt;u32 -->
<g id="edge48" class="edge">
<title>u33&#45;&gt;u32</title>
<path fill="none" stroke="black" d="M5748.93,-3394.28C5893.88,-3342.65 6334.08,-3185.84 6490.83,-3130.01"/>
<polygon fill="black" stroke="black" points="6492.05,-3133.29 6500.29,-3126.63 6489.7,-3126.69 6492.05,-3133.29"/>
</g>
<!-- u28 -->
<g id="node33" class="node">
<title>u28</title>
<ellipse fill="#ffbbff" stroke="black" cx="5672.99" cy="-3109" rx="201.46" ry="18"/>
<text text-anchor="middle" x="5672.99" y="-3105.3" font-family="Times,serif" font-size="14.00">Language.Drasil.Code.Imperative.Import</text>
</g>
<!-- u33&#45;&gt;u28 -->
<g id="edge47" class="edge">
<title>u33&#45;&gt;u28</title>
<path fill="none" stroke="black" d="M5700.35,-3393.95C5695.55,-3344.09 5681.49,-3198.2 5675.62,-3137.25"/>
<polygon fill="black" stroke="black" points="5679.1,-3136.85 5674.65,-3127.23 5672.13,-3137.52 5679.1,-3136.85"/>
</g>
<!-- u32&#45;&gt;u53 -->
<g id="edge46" class="edge">
<title>u32&#45;&gt;u53</title>
<path fill="none" stroke="black" d="M6546.99,-3090.95C6546.99,-3041.09 6546.99,-2895.2 6546.99,-2834.25"/>
<polygon fill="black" stroke="black" points="6550.49,-2834.23 6546.99,-2824.23 6543.49,-2834.23 6550.49,-2834.23"/>
</g>
<!-- u32&#45;&gt;u44 -->
<g id="edge45" class="edge">
<title>u32&#45;&gt;u44</title>
<path fill="none" stroke="black" d="M6573.98,-3091.12C6648.37,-3042.52 6845.41,-2898.69 6759.99,-2788 6643.72,-2637.31 6073.24,-2550.77 5808.47,-2518.12"/>
<polygon fill="black" stroke="black" points="5808.76,-2514.63 5798.41,-2516.89 5807.91,-2521.58 5808.76,-2514.63"/>
</g>
<!-- u31 -->
<g id="node30" class="node">
<title>u31</title>
<ellipse fill="#ffbbff" stroke="black" cx="5672.99" cy="-2806" rx="219.86" ry="18"/>
<text text-anchor="middle" x="5672.99" y="-2802.3" font-family="Times,serif" font-size="14.00">Language.Drasil.Code.Imperative.Comments</text>
</g>
<!-- u31&#45;&gt;u44 -->
<g id="edge44" class="edge">
<title>u31&#45;&gt;u44</title>
<path fill="none" stroke="black" d="M5672.99,-2787.9C5672.99,-2737.87 5672.99,-2591.5 5672.99,-2530.34"/>
<polygon fill="black" stroke="black" points="5676.49,-2530.29 5672.99,-2520.29 5669.49,-2530.29 5676.49,-2530.29"/>
</g>
<!-- u30 -->
<g id="node31" class="node">
<title>u30</title>
<ellipse fill="#ffbbff" stroke="black" cx="6295.99" cy="-3412" rx="228.26" ry="18"/>
<text text-anchor="middle" x="6295.99" y="-3408.3" font-family="Times,serif" font-size="14.00">Language.Drasil.Code.Imperative.Descriptions</text>
</g>
<!-- u30&#45;&gt;u44 -->
<g id="edge43" class="edge">
<title>u30&#45;&gt;u44</title>
<path fill="none" stroke="black" d="M6362.24,-3394.74C6472.07,-3363.81 6688.81,-3285.01 6779.99,-3127 6855.3,-2996.5 6874.33,-2907.06 6781.99,-2788 6663.37,-2635.04 6083.44,-2549.87 5812.71,-2517.87"/>
<polygon fill="black" stroke="black" points="5812.76,-2514.35 5802.42,-2516.66 5811.95,-2521.3 5812.76,-2514.35"/>
</g>
<!-- u29 -->
<g id="node32" class="node">
<title>u29</title>
<ellipse fill="#ffbbff" stroke="black" cx="5701.99" cy="-3716" rx="209.06" ry="18"/>
<text text-anchor="middle" x="5701.99" y="-3712.3" font-family="Times,serif" font-size="14.00">Language.Drasil.Code.Imperative.Modules</text>
</g>
<!-- u29&#45;&gt;u33 -->
<g id="edge42" class="edge">
<title>u29&#45;&gt;u33</title>
<path fill="none" stroke="black" d="M5701.99,-3697.9C5701.99,-3647.87 5701.99,-3501.5 5701.99,-3440.34"/>
<polygon fill="black" stroke="black" points="5705.49,-3440.29 5701.99,-3430.29 5698.49,-3440.29 5705.49,-3440.29"/>
</g>
<!-- u29&#45;&gt;u30 -->
<g id="edge41" class="edge">
<title>u29&#45;&gt;u30</title>
<path fill="none" stroke="black" d="M5735.2,-3698.12C5836.44,-3646.65 6141.1,-3491.75 6253.63,-3434.54"/>
<polygon fill="black" stroke="black" points="6255.33,-3437.6 6262.65,-3429.95 6252.15,-3431.36 6255.33,-3437.6"/>
</g>
<!-- u28&#45;&gt;u53 -->
<g id="edge40" class="edge">
<title>u28&#45;&gt;u53</title>
<path fill="none" stroke="black" d="M5720.92,-3091.5C5870.25,-3040.07 6326.84,-2882.82 6489.06,-2826.95"/>
<polygon fill="black" stroke="black" points="6490.54,-2830.14 6498.86,-2823.58 6488.26,-2823.53 6490.54,-2830.14"/>
</g>
<!-- u28&#45;&gt;u31 -->
<g id="edge39" class="edge">
<title>u28&#45;&gt;u31</title>
<path fill="none" stroke="black" d="M5672.99,-3090.95C5672.99,-3041.09 5672.99,-2895.2 5672.99,-2834.25"/>
<polygon fill="black" stroke="black" points="5676.49,-2834.23 5672.99,-2824.23 5669.49,-2834.23 5676.49,-2834.23"/>
</g>
<!-- u26 -->
<g id="node35" class="node">
<title>u26</title>
<ellipse fill="#ffbbff" stroke="black" cx="4068.99" cy="-2199" rx="237.46" ry="18"/>
<text text-anchor="middle" x="4068.99" y="-2195.3" font-family="Times,serif" font-size="14.00">Language.Drasil.Code.Imperative.ConceptMatch</text>
</g>
<!-- u28&#45;&gt;u26 -->
<g id="edge38" class="edge">
<title>u28&#45;&gt;u26</title>
<path fill="none" stroke="black" d="M5546.04,-3094.99C5274.48,-3064.41 4650.84,-2978.64 4514.99,-2824 4414.64,-2709.77 4554.78,-2614.65 4476.99,-2484 4394.38,-2345.23 4214.54,-2257.59 4123.76,-2220.48"/>
<polygon fill="black" stroke="black" points="4125.04,-2217.22 4114.46,-2216.72 4122.43,-2223.71 4125.04,-2217.22"/>
</g>
<!-- u25 -->
<g id="node36" class="node">
<title>u25</title>
<ellipse fill="#ffbbff" stroke="black" cx="6117.99" cy="-2806" rx="207.16" ry="18"/>
<text text-anchor="middle" x="6117.99" y="-2802.3" font-family="Times,serif" font-size="14.00">Language.Drasil.Code.Imperative.Logging</text>
</g>
<!-- u28&#45;&gt;u25 -->
<g id="edge37" class="edge">
<title>u28&#45;&gt;u25</title>
<path fill="none" stroke="black" d="M5698.19,-3090.95C5773.83,-3039.79 5998.93,-2887.54 6084.49,-2829.67"/>
<polygon fill="black" stroke="black" points="6086.47,-2832.55 6092.8,-2824.04 6082.55,-2826.75 6086.47,-2832.55"/>
</g>
<!-- u18 -->
<g id="node39" class="node">
<title>u18</title>
<ellipse fill="#ffbbff" stroke="black" cx="4763.99" cy="-2806" rx="240.46" ry="18"/>
<text text-anchor="middle" x="4763.99" y="-2802.3" font-family="Times,serif" font-size="14.00">Language.Drasil.Code.Imperative.GenerateGOOL</text>
</g>
<!-- u28&#45;&gt;u18 -->
<g id="edge36" class="edge">
<title>u28&#45;&gt;u18</title>
<path fill="none" stroke="black" d="M5623.15,-3091.5C5467.78,-3040.05 4992.57,-2882.69 4824.04,-2826.88"/>
<polygon fill="black" stroke="black" points="4824.93,-2823.49 4814.34,-2823.67 4822.73,-2830.14 4824.93,-2823.49"/>
</g>
<!-- u16 -->
<g id="node41" class="node">
<title>u16</title>
<ellipse fill="#ffbbff" stroke="black" cx="5228.99" cy="-2806" rx="206.06" ry="18"/>
<text text-anchor="middle" x="5228.99" y="-2802.3" font-family="Times,serif" font-size="14.00">Language.Drasil.Code.Imperative.Helpers</text>
</g>
<!-- u28&#45;&gt;u16 -->
<g id="edge35" class="edge">
<title>u28&#45;&gt;u16</title>
<path fill="none" stroke="black" d="M5647.85,-3090.95C5572.39,-3039.79 5347.79,-2887.54 5262.43,-2829.67"/>
<polygon fill="black" stroke="black" points="5264.38,-2826.76 5254.14,-2824.04 5260.45,-2832.55 5264.38,-2826.76"/>
</g>
<!-- u27 -->
<g id="node34" class="node">
<title>u27</title>
<ellipse fill="#ffbbff" stroke="black" cx="2764.99" cy="-3109" rx="233.16" ry="18"/>
<text text-anchor="middle" x="2764.99" y="-3105.3" font-family="Times,serif" font-size="14.00">Language.Drasil.Code.Imperative.WriteReadMe</text>
</g>
<!-- u43 -->
<g id="node45" class="node">
<title>u43</title>
<ellipse fill="#7777ff" stroke="black" cx="4200.99" cy="-2502" rx="267.25" ry="18"/>
<text text-anchor="middle" x="4200.99" y="-2498.3" font-family="Times,serif" font-size="14.00">Language.Drasil.Code.Imperative.GOOL.ClassInterface</text>
</g>
<!-- u27&#45;&gt;u43 -->
<g id="edge34" class="edge">
<title>u27&#45;&gt;u43</title>
<path fill="none" stroke="black" d="M2804.9,-3091.19C3008.1,-3005.58 3926.9,-2618.48 4151.39,-2523.9"/>
<polygon fill="black" stroke="black" points="4153.09,-2526.98 4160.94,-2519.87 4150.37,-2520.53 4153.09,-2526.98"/>
</g>
<!-- u26&#45;&gt;u7 -->
<g id="edge33" class="edge">
<title>u26&#45;&gt;u7</title>
<path fill="none" stroke="black" d="M4057.95,-2180.95C4025.38,-2130.68 3929.57,-1982.78 3890.68,-1922.76"/>
<polygon fill="black" stroke="black" points="3893.53,-1920.72 3885.16,-1914.23 3887.66,-1924.53 3893.53,-1920.72"/>
</g>
<!-- u25&#45;&gt;u44 -->
<g id="edge32" class="edge">
<title>u25&#45;&gt;u44</title>
<path fill="none" stroke="black" d="M6093.12,-2788.12C6017.73,-2736.96 5791.78,-2583.61 5706.27,-2525.58"/>
<polygon fill="black" stroke="black" points="5708.21,-2522.67 5697.97,-2519.95 5704.28,-2528.46 5708.21,-2522.67"/>
</g>
<!-- u24 -->
<g id="node37" class="node">
<title>u24</title>
<ellipse fill="#ffbbff" stroke="black" cx="2682.99" cy="-2199" rx="219.86" ry="18"/>
<text text-anchor="middle" x="2682.99" y="-2195.3" font-family="Times,serif" font-size="14.00">Language.Drasil.Code.Imperative.WriteInput</text>
</g>
<!-- u24&#45;&gt;u48 -->
<g id="edge31" class="edge">
<title>u24&#45;&gt;u48</title>
<path fill="none" stroke="black" d="M2692.22,-2180.75C2729.1,-2110.13 2863.99,-1835.29 2863.99,-1593 2863.99,-1593 2863.99,-1593 2863.99,-1288 2863.99,-1055.17 2988.55,-792.29 3031.01,-709.44"/>
<polygon fill="black" stroke="black" points="3034.28,-710.74 3035.77,-700.25 3028.07,-707.52 3034.28,-710.74"/>
</g>
<!-- u20&#45;&gt;u49 -->
<g id="edge28" class="edge">
<title>u20&#45;&gt;u49</title>
<path fill="none" stroke="black" d="M4445.59,-4000.95C4408.94,-3950.58 4300.96,-3802.17 4257.47,-3742.39"/>
<polygon fill="black" stroke="black" points="4260.25,-3740.26 4251.53,-3734.23 4254.58,-3744.38 4260.25,-3740.26"/>
</g>
<!-- u20&#45;&gt;u45 -->
<g id="edge27" class="edge">
<title>u20&#45;&gt;u45</title>
<path fill="none" stroke="black" d="M4562.46,-4003.17C4804.03,-3967.7 5418.9,-3870.63 5919.99,-3734 6253.7,-3643.01 6640.96,-3488.93 6776.29,-3433.57"/>
<polygon fill="black" stroke="black" points="6777.67,-3436.79 6785.6,-3429.76 6775.02,-3430.31 6777.67,-3436.79"/>
</g>
<!-- u20&#45;&gt;u29 -->
<g id="edge26" class="edge">
<title>u20&#45;&gt;u29</title>
<path fill="none" stroke="black" d="M4524.88,-4001.82C4737.96,-3950.26 5400.11,-3790.04 5625.77,-3735.44"/>
<polygon fill="black" stroke="black" points="5626.64,-3738.83 5635.54,-3733.08 5624.99,-3732.03 5626.64,-3738.83"/>
</g>
<!-- u17 -->
<g id="node40" class="node">
<title>u17</title>
<ellipse fill="#ffbbff" stroke="black" cx="4533.99" cy="-2199" rx="209.86" ry="18"/>
<text text-anchor="middle" x="4533.99" y="-2195.3" font-family="Times,serif" font-size="14.00">Language.Drasil.Code.Imperative.GenODE</text>
</g>
<!-- u20&#45;&gt;u17 -->
<g id="edge25" class="edge">
<title>u20&#45;&gt;u17</title>
<path fill="none" stroke="black" d="M4457.99,-4000.67C4457.99,-3928.63 4457.99,-3645.65 4457.99,-3413 4457.99,-3413 4457.99,-3413 4457.99,-3108 4457.99,-2758.95 4514.46,-2337.04 4530.05,-2227.19"/>
<polygon fill="black" stroke="black" points="4533.52,-2227.66 4531.47,-2217.27 4526.59,-2226.67 4533.52,-2227.66"/>
</g>
<!-- u18&#45;&gt;u44 -->
<g id="edge23" class="edge">
<title>u18&#45;&gt;u44</title>
<path fill="none" stroke="black" d="M4814.16,-2788.33C4969.98,-2736.56 5445.21,-2578.68 5613.31,-2522.83"/>
<polygon fill="black" stroke="black" points="5614.6,-2526.09 5622.98,-2519.62 5612.39,-2519.45 5614.6,-2526.09"/>
</g>
<!-- u18&#45;&gt;u43 -->
<g id="edge22" class="edge">
<title>u18&#45;&gt;u43</title>
<path fill="none" stroke="black" d="M4732.52,-2788.12C4636.66,-2736.7 4348.38,-2582.06 4241.47,-2524.71"/>
<polygon fill="black" stroke="black" points="4243.06,-2521.59 4232.6,-2519.95 4239.75,-2527.76 4243.06,-2521.59"/>
</g>
<!-- u17&#45;&gt;u7 -->
<g id="edge19" class="edge">
<title>u17&#45;&gt;u7</title>
<path fill="none" stroke="black" d="M4497.1,-2181.17C4383.99,-2129.59 4042.34,-1973.78 3919.01,-1917.53"/>
<polygon fill="black" stroke="black" points="3920.38,-1914.31 3909.82,-1913.34 3917.47,-1920.67 3920.38,-1914.31"/>
</g>
<!-- u17&#45;&gt;u8 -->
<g id="edge20" class="edge">
<title>u17&#45;&gt;u8</title>
<path fill="none" stroke="black" d="M4533.99,-2180.95C4533.99,-2131.09 4533.99,-1985.2 4533.99,-1924.25"/>
<polygon fill="black" stroke="black" points="4537.49,-1924.23 4533.99,-1914.23 4530.49,-1924.23 4537.49,-1924.23"/>
</g>
<!-- u17&#45;&gt;u50 -->
<g id="edge21" class="edge">
<title>u17&#45;&gt;u50</title>
<path fill="none" stroke="black" d="M4518.2,-2180.91C4480.29,-2138.92 4383.59,-2025.92 4333.99,-1914 4288.46,-1811.23 4270.38,-1676.75 4264.46,-1620.06"/>
<polygon fill="black" stroke="black" points="4267.94,-1619.7 4263.46,-1610.1 4260.97,-1620.4 4267.94,-1619.7"/>
</g>
<!-- u16&#45;&gt;u44 -->
<g id="edge18" class="edge">
<title>u16&#45;&gt;u44</title>
<path fill="none" stroke="black" d="M5253.82,-2788.12C5329.03,-2736.96 5554.48,-2583.61 5639.79,-2525.58"/>
<polygon fill="black" stroke="black" points="5641.77,-2528.47 5648.07,-2519.95 5637.84,-2522.68 5641.77,-2528.47"/>
</g>
<!-- u23 -->
<g id="node42" class="node">
<title>u23</title>
<ellipse fill="#77ff77" stroke="black" cx="2246.99" cy="-3109" rx="228.56" ry="18"/>
<text text-anchor="middle" x="2246.99" y="-3105.3" font-family="Times,serif" font-size="14.00">Language.Drasil.Code.Imperative.Build.Import</text>
</g>
<!-- u22 -->
<g id="node43" class="node">
<title>u22</title>
<ellipse fill="#77ff77" stroke="black" cx="2246.99" cy="-2806" rx="215.56" ry="18"/>
<text text-anchor="middle" x="2246.99" y="-2802.3" font-family="Times,serif" font-size="14.00">Language.Drasil.Code.Imperative.Build.AST</text>
</g>
<!-- u23&#45;&gt;u22 -->
<g id="edge30" class="edge">
<title>u23&#45;&gt;u22</title>
<path fill="none" stroke="black" d="M2246.99,-3090.95C2246.99,-3041.09 2246.99,-2895.2 2246.99,-2834.25"/>
<polygon fill="black" stroke="black" points="2250.49,-2834.23 2246.99,-2824.23 2243.49,-2834.23 2250.49,-2834.23"/>
</g>
<!-- u21 -->
<g id="node44" class="node">
<title>u21</title>
<ellipse fill="#ffff77" stroke="black" cx="3670.99" cy="-2502" rx="245.06" ry="18"/>
<text text-anchor="middle" x="3670.99" y="-2498.3" font-family="Times,serif" font-size="14.00">Language.Drasil.Code.Imperative.Doxygen.Import</text>
</g>
<!-- u21&#45;&gt;u7 -->
<g id="edge29" class="edge">
<title>u21&#45;&gt;u7</title>
<path fill="none" stroke="black" d="M3676.74,-2483.9C3705.09,-2399.54 3830.07,-2027.7 3864.93,-1923.96"/>
<polygon fill="black" stroke="black" points="3868.33,-1924.84 3868.2,-1914.24 3861.7,-1922.61 3868.33,-1924.84"/>
</g>
<!-- u43&#45;&gt;u7 -->
<g id="edge65" class="edge">
<title>u43&#45;&gt;u7</title>
<path fill="none" stroke="black" d="M4157.74,-2484.16C4074.54,-2449.1 3894.15,-2359.46 3822.99,-2217 3773.09,-2117.09 3831.25,-1979.71 3859.89,-1923.05"/>
<polygon fill="black" stroke="black" points="3863.06,-1924.54 3864.53,-1914.05 3856.84,-1921.33 3863.06,-1924.54"/>
</g>
<!-- u41 -->
<g id="node47" class="node">
<title>u41</title>
<ellipse fill="#7777ff" stroke="black" cx="3305.99" cy="-3109" rx="289.45" ry="18"/>
<text text-anchor="middle" x="3305.99" y="-3105.3" font-family="Times,serif" font-size="14.00">Language.Drasil.Code.Imperative.GOOL.LanguageRenderer</text>
</g>
<!-- u40 -->
<g id="node48" class="node">
<title>u40</title>
<ellipse fill="#ff7777" stroke="black" cx="2184.99" cy="-3412" rx="393.73" ry="18"/>
<text text-anchor="middle" x="2184.99" y="-3408.3" font-family="Times,serif" font-size="14.00">Language.Drasil.Code.Imperative.GOOL.LanguageRenderer.LanguagePolymorphic</text>
</g>
<!-- u40&#45;&gt;u27 -->
<g id="edge63" class="edge">
<title>u40&#45;&gt;u27</title>
<path fill="none" stroke="black" d="M2217.84,-3393.95C2317.03,-3342.48 2613.47,-3188.64 2723.38,-3131.59"/>
<polygon fill="black" stroke="black" points="2725.25,-3134.57 2732.51,-3126.86 2722.02,-3128.36 2725.25,-3134.57"/>
</g>
<!-- u40&#45;&gt;u24 -->
<g id="edge62" class="edge">
<title>u40&#45;&gt;u24</title>
<path fill="none" stroke="black" d="M2169.36,-3393.78C2132.56,-3351.92 2041.16,-3239.97 2008.99,-3127 1984.53,-3041.08 1833.91,-3184.09 2021.99,-2788 2160.53,-2496.26 2517.43,-2287.08 2640.52,-2221.66"/>
<polygon fill="black" stroke="black" points="2642.44,-2224.6 2649.65,-2216.84 2639.18,-2218.41 2642.44,-2224.6"/>
</g>
<!-- u40&#45;&gt;u23 -->
<g id="edge61" class="edge">
<title>u40&#45;&gt;u23</title>
<path fill="none" stroke="black" d="M2188.51,-3393.95C2198.78,-3344.09 2228.83,-3198.2 2241.38,-3137.25"/>
<polygon fill="black" stroke="black" points="2244.86,-3137.73 2243.44,-3127.23 2238,-3136.32 2244.86,-3137.73"/>
</g>
<!-- u40&#45;&gt;u21 -->
<g id="edge60" class="edge">
<title>u40&#45;&gt;u21</title>
<path fill="none" stroke="black" d="M2203.26,-3393.71C2250.08,-3349.4 2378.24,-3228.1 2484.99,-3127 2501.89,-3111 2504,-3104.44 2522.99,-3091 2912.98,-2815.01 3450.32,-2590.63 3618.51,-2523.54"/>
<polygon fill="black" stroke="black" points="3619.89,-2526.76 3627.89,-2519.81 3617.3,-2520.25 3619.89,-2526.76"/>
</g>
<!-- u40&#45;&gt;u41 -->
<g id="edge64" class="edge">
<title>u40&#45;&gt;u41</title>
<path fill="none" stroke="black" d="M2247.67,-3394.17C2441.26,-3342.19 3029.07,-3184.36 3234.33,-3129.24"/>
<polygon fill="black" stroke="black" points="3235.36,-3132.59 3244.11,-3126.62 3233.54,-3125.83 3235.36,-3132.59"/>
</g>
<!-- u39&#45;&gt;u42 -->
<g id="edge59" class="edge">
<title>u39&#45;&gt;u42</title>
<path fill="none" stroke="black" d="M2918.99,-3697.9C2901.4,-3647.77 2849.84,-3500.89 2828.46,-3439.96"/>
<polygon fill="black" stroke="black" points="2831.68,-3438.57 2825.06,-3430.29 2825.07,-3440.88 2831.68,-3438.57"/>
</g>
<!-- u39&#45;&gt;u40 -->
<g id="edge58" class="edge">
<title>u39&#45;&gt;u40</title>
<path fill="none" stroke="black" d="M2883.62,-3698.12C2757,-3646.44 2374.91,-3490.51 2236.1,-3433.86"/>
<polygon fill="black" stroke="black" points="2237.11,-3430.49 2226.53,-3429.95 2234.47,-3436.97 2237.11,-3430.49"/>
</g>
<!-- u38&#45;&gt;u42 -->
<g id="edge57" class="edge">
<title>u38&#45;&gt;u42</title>
<path fill="none" stroke="black" d="M3615.81,-3698.12C3470.7,-3646.19 3031.44,-3489.02 2875.03,-3433.05"/>
<polygon fill="black" stroke="black" points="2876.18,-3429.75 2865.59,-3429.67 2873.82,-3436.34 2876.18,-3429.75"/>
</g>
<!-- u38&#45;&gt;u40 -->
<g id="edge56" class="edge">
<title>u38&#45;&gt;u40</title>
<path fill="none" stroke="black" d="M3581.95,-3698.44C3327.41,-3646.43 2544.93,-3486.55 2276.5,-3431.7"/>
<polygon fill="black" stroke="black" points="2276.9,-3428.21 2266.4,-3429.63 2275.5,-3435.06 2276.9,-3428.21"/>
</g>
<!-- u37&#45;&gt;u42 -->
<g id="edge55" class="edge">
<title>u37&#45;&gt;u42</title>
<path fill="none" stroke="black" d="M825.48,-3698.87C1190.18,-3646.57 2337.53,-3482.04 2704.75,-3429.38"/>
<polygon fill="black" stroke="black" points="2705.45,-3432.82 2714.85,-3427.93 2704.46,-3425.89 2705.45,-3432.82"/>
</g>
<!-- u37&#45;&gt;u40 -->
<g id="edge54" class="edge">
<title>u37&#45;&gt;u40</title>
<path fill="none" stroke="black" d="M793.71,-3698.44C1047.21,-3646.43 1826.52,-3486.55 2093.86,-3431.7"/>
<polygon fill="black" stroke="black" points="2094.83,-3435.07 2103.92,-3429.63 2093.42,-3428.21 2094.83,-3435.07"/>
</g>
<!-- u36&#45;&gt;u42 -->
<g id="edge53" class="edge">
<title>u36&#45;&gt;u42</title>
<path fill="none" stroke="black" d="M1519.88,-3698.33C1757.82,-3646.07 2488.16,-3485.66 2735.84,-3431.26"/>
<polygon fill="black" stroke="black" points="2736.84,-3434.63 2745.86,-3429.06 2735.34,-3427.79 2736.84,-3434.63"/>
</g>
<!-- u36&#45;&gt;u40 -->
<g id="edge52" class="edge">
<title>u36&#45;&gt;u40</title>
<path fill="none" stroke="black" d="M1485.42,-3698.12C1612.22,-3646.44 1994.82,-3490.51 2133.82,-3433.86"/>
<polygon fill="black" stroke="black" points="2135.46,-3436.97 2143.4,-3429.95 2132.82,-3430.48 2135.46,-3436.97"/>
</g>
<!-- u35&#45;&gt;u42 -->
<g id="edge51" class="edge">
<title>u35&#45;&gt;u42</title>
<path fill="none" stroke="black" d="M2220.9,-3697.9C2329.55,-3646.14 2654.67,-3491.28 2774.23,-3434.32"/>
<polygon fill="black" stroke="black" points="2775.96,-3437.37 2783.48,-3429.91 2772.95,-3431.06 2775.96,-3437.37"/>
</g>
<!-- u35&#45;&gt;u40 -->
<g id="edge50" class="edge">
<title>u35&#45;&gt;u40</title>
<path fill="none" stroke="black" d="M2184.99,-3697.9C2184.99,-3647.87 2184.99,-3501.5 2184.99,-3440.34"/>
<polygon fill="black" stroke="black" points="2188.49,-3440.29 2184.99,-3430.29 2181.49,-3440.29 2188.49,-3440.29"/>
</g>
<!-- u19 -->
<g id="node54" class="node">
<title>u19</title>
<ellipse fill="#77ffff" stroke="black" cx="3326.99" cy="-3412" rx="267.55" ry="18"/>
<text text-anchor="middle" x="3326.99" y="-3408.3" font-family="Times,serif" font-size="14.00">Language.Drasil.Code.Imperative.Parsers.ConfigParser</text>
</g>
<!-- u19&#45;&gt;u41 -->
<g id="edge24" class="edge">
<title>u19&#45;&gt;u41</title>
<path fill="none" stroke="black" d="M3325.81,-3393.95C3322.33,-3344.09 3312.15,-3198.2 3307.9,-3137.25"/>
<polygon fill="black" stroke="black" points="3311.38,-3136.96 3307.2,-3127.23 3304.4,-3137.45 3311.38,-3136.96"/>
</g>
<!-- u15&#45;&gt;u13 -->
<g id="edge17" class="edge">
<title>u15&#45;&gt;u13</title>
<path fill="none" stroke="black" d="M4525.41,-1270.78C4500.37,-1221.26 4423.82,-1075.23 4339.99,-968 4151.17,-726.45 3872.05,-479.61 3783.79,-403.66"/>
<polygon fill="black" stroke="black" points="3785.96,-400.9 3776.09,-397.05 3781.4,-406.22 3785.96,-400.9"/>
</g>
<!-- u14&#45;&gt;u51 -->
<g id="edge16" class="edge">
<title>u14&#45;&gt;u51</title>
<path fill="none" stroke="black" d="M3890.87,-1573.95C3940.95,-1523.37 4088.88,-1373.96 4147.58,-1314.66"/>
<polygon fill="black" stroke="black" points="4150.39,-1316.8 4154.93,-1307.23 4145.41,-1311.88 4150.39,-1316.8"/>
</g>
<!-- u14&#45;&gt;u47 -->
<g id="edge15" class="edge">
<title>u14&#45;&gt;u47</title>
<path fill="none" stroke="black" d="M3846.99,-1574.17C3764.99,-1523.07 3518.85,-1369.68 3426.51,-1312.13"/>
<polygon fill="black" stroke="black" points="3428.15,-1309.03 3417.81,-1306.71 3424.44,-1314.97 3428.15,-1309.03"/>
</g>
<!-- u14&#45;&gt;u46 -->
<g id="edge14" class="edge">
<title>u14&#45;&gt;u46</title>
<path fill="none" stroke="black" d="M3867.31,-1573.95C3847.72,-1523.99 3790.34,-1377.6 3766.53,-1316.88"/>
<polygon fill="black" stroke="black" points="3769.66,-1315.26 3762.75,-1307.23 3763.14,-1317.82 3769.66,-1315.26"/>
</g>
<!-- u14&#45;&gt;u15 -->
<g id="edge13" class="edge">
<title>u14&#45;&gt;u15</title>
<path fill="none" stroke="black" d="M3910.42,-1574.39C4022.88,-1523.1 4364.49,-1367.3 4488.45,-1310.77"/>
<polygon fill="black" stroke="black" points="4490.04,-1313.89 4497.68,-1306.56 4487.13,-1307.53 4490.04,-1313.89"/>
</g>
<!-- u1 -->
<g id="node57" class="node">
<title>u1</title>
<ellipse fill="#33ff33" stroke="black" cx="267.99" cy="-4626" rx="108.58" ry="18"/>
<text text-anchor="middle" x="267.99" y="-4622.3" font-family="Times,serif" font-size="14.00">drasil&#45;code.test.Main</text>
</g>
<!-- u1&#45;&gt;u5 -->
<g id="edge3" class="edge">
<title>u1&#45;&gt;u5</title>
<path fill="none" stroke="black" d="M256.5,-4607.9C222.51,-4557.34 122.38,-4408.37 82.08,-4348.42"/>
<polygon fill="black" stroke="black" points="84.85,-4346.26 76.36,-4339.91 79.04,-4350.17 84.85,-4346.26"/>
</g>
<!-- u1&#45;&gt;u4 -->
<g id="edge2" class="edge">
<title>u1&#45;&gt;u4</title>
<path fill="none" stroke="black" d="M264.2,-4607.9C253.1,-4557.87 220.63,-4411.5 207.06,-4350.34"/>
<polygon fill="black" stroke="black" points="210.41,-4349.29 204.83,-4340.29 203.58,-4350.81 210.41,-4349.29"/>
</g>
<!-- u1&#45;&gt;u3 -->
<g id="edge1" class="edge">
<title>u1&#45;&gt;u3</title>
<path fill="none" stroke="black" d="M271.73,-4607.9C282.66,-4557.87 314.65,-4411.5 328.02,-4350.34"/>
<polygon fill="black" stroke="black" points="331.5,-4350.81 330.22,-4340.29 324.66,-4349.31 331.5,-4350.81"/>
</g>
<!-- u1&#45;&gt;u56 -->
<g id="edge4" class="edge">
<title>u1&#45;&gt;u56</title>
<path fill="none" stroke="black" d="M333.44,-4611.54C573.25,-4562.2 1403.17,-4391.47 1659.78,-4338.68"/>
<polygon fill="black" stroke="black" points="1660.67,-4342.07 1669.76,-4336.63 1659.26,-4335.21 1660.67,-4342.07"/>
</g>
</g>
</svg>
