<?xml version="1.0" encoding="UTF-8" standalone="no"?>
<!DOCTYPE svg PUBLIC "-//W3C//DTD SVG 1.1//EN"
 "http://www.w3.org/Graphics/SVG/1.1/DTD/svg11.dtd">
<!-- Generated by graphviz version 2.43.0 (0)
 -->
<!-- Title: G Pages: 1 -->
<svg width="432pt" height="288pt"
 viewBox="0.00 0.00 431.78 288.00" xmlns="http://www.w3.org/2000/svg" xmlns:xlink="http://www.w3.org/1999/xlink">
<g id="graph0" class="graph" transform="scale(13.6 13.6) rotate(0) translate(4 3914)">
<title>G</title>
<polygon fill="white" stroke="transparent" points="-4,4 -4,-3914 5869.95,-3914 5869.95,4 -4,4"/>
<!-- u57 -->
<g id="node1" class="node">
<title>u57</title>
<ellipse fill="#bbffbb" stroke="black" cx="2377.22" cy="-3595" rx="52.79" ry="18"/>
<text text-anchor="middle" x="2377.22" y="-3591.3" font-family="Times,serif" font-size="14.00">FileTests</text>
</g>
<!-- u56 -->
<g id="node2" class="node">
<title>u56</title>
<ellipse fill="#bbffbb" stroke="black" cx="1786.22" cy="-3595" rx="59.59" ry="18"/>
<text text-anchor="middle" x="1786.22" y="-3591.3" font-family="Times,serif" font-size="14.00">VectorTest</text>
</g>
<!-- u55 -->
<g id="node3" class="node">
<title>u55</title>
<ellipse fill="#bbffbb" stroke="black" cx="2241.22" cy="-3342" rx="53.89" ry="18"/>
<text text-anchor="middle" x="2241.22" y="-3338.3" font-family="Times,serif" font-size="14.00">Observer</text>
</g>
<!-- u54 -->
<g id="node4" class="node">
<title>u54</title>
<ellipse fill="#bbffbb" stroke="black" cx="1926.22" cy="-3595" rx="62.29" ry="18"/>
<text text-anchor="middle" x="1926.22" y="-3591.3" font-family="Times,serif" font-size="14.00">HelloWorld</text>
</g>
<!-- u53 -->
<g id="node5" class="node">
<title>u53</title>
<ellipse fill="#bbffbb" stroke="black" cx="1926.22" cy="-3342" rx="42.49" ry="18"/>
<text text-anchor="middle" x="1926.22" y="-3338.3" font-family="Times,serif" font-size="14.00">Helper</text>
</g>
<!-- u54&#45;&gt;u53 -->
<g id="edge86" class="edge">
<title>u54&#45;&gt;u53</title>
<path fill="none" stroke="black" d="M1926.22,-3576.75C1926.22,-3533.84 1926.22,-3422.02 1926.22,-3370.15"/>
<polygon fill="black" stroke="black" points="1929.72,-3370.04 1926.22,-3360.04 1922.72,-3370.04 1929.72,-3370.04"/>
</g>
<!-- u52 -->
<g id="node6" class="node">
<title>u52</title>
<ellipse fill="#bbffbb" stroke="black" cx="2082.22" cy="-3595" rx="76.09" ry="18"/>
<text text-anchor="middle" x="2082.22" y="-3591.3" font-family="Times,serif" font-size="14.00">NameGenTest</text>
</g>
<!-- u51 -->
<g id="node7" class="node">
<title>u51</title>
<ellipse fill="#bbffbb" stroke="black" cx="2241.22" cy="-3595" rx="64.99" ry="18"/>
<text text-anchor="middle" x="2241.22" y="-3591.3" font-family="Times,serif" font-size="14.00">PatternTest</text>
</g>
<!-- u51&#45;&gt;u55 -->
<g id="edge85" class="edge">
<title>u51&#45;&gt;u55</title>
<path fill="none" stroke="black" d="M2241.22,-3576.75C2241.22,-3533.84 2241.22,-3422.02 2241.22,-3370.15"/>
<polygon fill="black" stroke="black" points="2244.72,-3370.04 2241.22,-3360.04 2237.72,-3370.04 2244.72,-3370.04"/>
</g>
<!-- u50 -->
<g id="node8" class="node">
<title>u50</title>
<ellipse fill="#ffffbb" stroke="black" cx="2561.22" cy="-3847" rx="214.46" ry="18"/>
<text text-anchor="middle" x="2561.22" y="-3843.3" font-family="Times,serif" font-size="14.00">Data.Drasil.ExternalLibraries.ODELibraries</text>
</g>
<!-- u38 -->
<g id="node12" class="node">
<title>u38</title>
<ellipse fill="#bbbbff" stroke="black" cx="2561.22" cy="-3595" rx="113.18" ry="18"/>
<text text-anchor="middle" x="2561.22" y="-3591.3" font-family="Times,serif" font-size="14.00">Language.Drasil.Code</text>
</g>
<!-- u50&#45;&gt;u38 -->
<g id="edge84" class="edge">
<title>u50&#45;&gt;u38</title>
<path fill="none" stroke="black" d="M2561.22,-3828.82C2561.22,-3786.18 2561.22,-3675.24 2561.22,-3623.42"/>
<polygon fill="black" stroke="black" points="2564.72,-3623.3 2561.22,-3613.3 2557.72,-3623.3 2564.72,-3623.3"/>
</g>
<!-- u49 -->
<g id="node9" class="node">
<title>u49</title>
<ellipse fill="#bbbbff" stroke="black" cx="3227.22" cy="-820" rx="110.48" ry="18"/>
<text text-anchor="middle" x="3227.22" y="-816.3" font-family="Times,serif" font-size="14.00">Language.Drasil.Mod</text>
</g>
<!-- u45 -->
<g id="node15" class="node">
<title>u45</title>
<ellipse fill="#ffbbbb" stroke="black" cx="2878.22" cy="-568" rx="170.87" ry="18"/>
<text text-anchor="middle" x="2878.22" y="-564.3" font-family="Times,serif" font-size="14.00">Language.Drasil.Chunk.Parameter</text>
</g>
<!-- u49&#45;&gt;u45 -->
<g id="edge83" class="edge">
<title>u49&#45;&gt;u45</title>
<path fill="none" stroke="black" d="M3203.78,-802.21C3142.95,-758.64 2979.98,-641.9 2910.41,-592.06"/>
<polygon fill="black" stroke="black" points="2912.18,-589.03 2902.02,-586.05 2908.11,-594.72 2912.18,-589.03"/>
</g>
<!-- u32 -->
<g id="node24" class="node">
<title>u32</title>
<ellipse fill="#bbffff" stroke="black" cx="3227.22" cy="-568" rx="160.57" ry="18"/>
<text text-anchor="middle" x="3227.22" y="-564.3" font-family="Times,serif" font-size="14.00">Language.Drasil.Code.DataDesc</text>
</g>
<!-- u49&#45;&gt;u32 -->
<g id="edge82" class="edge">
<title>u49&#45;&gt;u32</title>
<path fill="none" stroke="black" d="M3227.22,-801.82C3227.22,-759.18 3227.22,-648.24 3227.22,-596.42"/>
<polygon fill="black" stroke="black" points="3230.72,-596.3 3227.22,-586.3 3223.72,-596.3 3230.72,-596.3"/>
</g>
<!-- u48 -->
<g id="node10" class="node">
<title>u48</title>
<ellipse fill="#bbbbff" stroke="black" cx="2690.22" cy="-1577" rx="126.18" ry="18"/>
<text text-anchor="middle" x="2690.22" y="-1573.3" font-family="Times,serif" font-size="14.00">Language.Drasil.Choices</text>
</g>
<!-- u0 -->
<g id="node26" class="node">
<title>u0</title>
<ellipse fill="#bbffff" stroke="black" cx="2480.22" cy="-1324" rx="139.98" ry="18"/>
<text text-anchor="middle" x="2480.22" y="-1320.3" font-family="Times,serif" font-size="14.00">Language.Drasil.Code.Code</text>
</g>
<!-- u48&#45;&gt;u0 -->
<g id="edge80" class="edge">
<title>u48&#45;&gt;u0</title>
<path fill="none" stroke="black" d="M2675.78,-1558.75C2639.35,-1515.21 2543.58,-1400.73 2501.06,-1349.91"/>
<polygon fill="black" stroke="black" points="2503.58,-1347.46 2494.47,-1342.04 2498.21,-1351.96 2503.58,-1347.46"/>
</g>
<!-- u39 -->
<g id="node58" class="node">
<title>u39</title>
<ellipse fill="#ff77ff" stroke="black" cx="2862.22" cy="-1324" rx="172.77" ry="18"/>
<text text-anchor="middle" x="2862.22" y="-1320.3" font-family="Times,serif" font-size="14.00">Language.Drasil.Data.ODELibPckg</text>
</g>
<!-- u48&#45;&gt;u39 -->
<g id="edge81" class="edge">
<title>u48&#45;&gt;u39</title>
<path fill="none" stroke="black" d="M2702.04,-1558.75C2731.75,-1515.39 2809.68,-1401.67 2844.71,-1350.54"/>
<polygon fill="black" stroke="black" points="2847.77,-1352.27 2850.54,-1342.04 2842,-1348.31 2847.77,-1352.27"/>
</g>
<!-- u41 -->
<g id="node11" class="node">
<title>u41</title>
<ellipse fill="#bbbbff" stroke="black" cx="3282.22" cy="-1829" rx="135.68" ry="18"/>
<text text-anchor="middle" x="3282.22" y="-1825.3" font-family="Times,serif" font-size="14.00">Language.Drasil.CodeSpec</text>
</g>
<!-- u41&#45;&gt;u48 -->
<g id="edge76" class="edge">
<title>u41&#45;&gt;u48</title>
<path fill="none" stroke="black" d="M3243.37,-1811.6C3139.02,-1767.53 2852.76,-1646.64 2738.37,-1598.34"/>
<polygon fill="black" stroke="black" points="2739.39,-1594.97 2728.82,-1594.3 2736.67,-1601.42 2739.39,-1594.97"/>
</g>
<!-- u44 -->
<g id="node16" class="node">
<title>u44</title>
<ellipse fill="#ffbbbb" stroke="black" cx="3026.22" cy="-1577" rx="192.27" ry="18"/>
<text text-anchor="middle" x="3026.22" y="-1573.3" font-family="Times,serif" font-size="14.00">Language.Drasil.Chunk.ConstraintMap</text>
</g>
<!-- u41&#45;&gt;u44 -->
<g id="edge75" class="edge">
<title>u41&#45;&gt;u44</title>
<path fill="none" stroke="black" d="M3264.62,-1810.82C3220.03,-1767.27 3102.49,-1652.49 3050.99,-1602.19"/>
<polygon fill="black" stroke="black" points="3053.2,-1599.46 3043.6,-1594.97 3048.31,-1604.46 3053.2,-1599.46"/>
</g>
<!-- u42 -->
<g id="node18" class="node">
<title>u42</title>
<ellipse fill="#ffbbbb" stroke="black" cx="3427.22" cy="-1577" rx="191.17" ry="18"/>
<text text-anchor="middle" x="3427.22" y="-1573.3" font-family="Times,serif" font-size="14.00">Language.Drasil.Chunk.CodeDefinition</text>
</g>
<!-- u41&#45;&gt;u42 -->
<g id="edge74" class="edge">
<title>u41&#45;&gt;u42</title>
<path fill="none" stroke="black" d="M3292.18,-1810.82C3317.12,-1767.82 3382.34,-1655.38 3412.06,-1604.13"/>
<polygon fill="black" stroke="black" points="3415.19,-1605.71 3417.18,-1595.3 3409.14,-1602.2 3415.19,-1605.71"/>
</g>
<!-- u8 -->
<g id="node38" class="node">
<title>u8</title>
<ellipse fill="#ffbbff" stroke="black" cx="4426.22" cy="-3342" rx="217.16" ry="18"/>
<text text-anchor="middle" x="4426.22" y="-3338.3" font-family="Times,serif" font-size="14.00">Language.Drasil.Code.Imperative.Generator</text>
</g>
<!-- u38&#45;&gt;u8 -->
<g id="edge63" class="edge">
<title>u38&#45;&gt;u8</title>
<path fill="none" stroke="black" d="M2644.67,-3582.77C2943.17,-3542.59 3958.59,-3405.94 4307.41,-3358.99"/>
<polygon fill="black" stroke="black" points="4308.09,-3362.43 4317.54,-3357.63 4307.16,-3355.49 4308.09,-3362.43"/>
</g>
<!-- u1 -->
<g id="node43" class="node">
<title>u1</title>
<ellipse fill="#ffbbff" stroke="black" cx="5648.22" cy="-2081" rx="217.96" ry="18"/>
<text text-anchor="middle" x="5648.22" y="-2077.3" font-family="Times,serif" font-size="14.00">Language.Drasil.Code.Imperative.ReadInput</text>
</g>
<!-- u38&#45;&gt;u1 -->
<g id="edge62" class="edge">
<title>u38&#45;&gt;u1</title>
<path fill="none" stroke="black" d="M2664.77,-3587.74C3191.02,-3554.56 5544.22,-3389.54 5544.22,-3091 5544.22,-3091 5544.22,-3091 5544.22,-2585 5544.22,-2399.33 5613.01,-2182.96 5638.7,-2108.63"/>
<polygon fill="black" stroke="black" points="5642.03,-2109.7 5642.02,-2099.11 5635.42,-2107.4 5642.03,-2109.7"/>
</g>
<!-- u27 -->
<g id="node50" class="node">
<title>u27</title>
<ellipse fill="#ff7777" stroke="black" cx="3307.22" cy="-3090" rx="369.33" ry="18"/>
<text text-anchor="middle" x="3307.22" y="-3086.3" font-family="Times,serif" font-size="14.00">Language.Drasil.Code.Imperative.GOOL.LanguageRenderer.CSharpRenderer</text>
</g>
<!-- u38&#45;&gt;u27 -->
<g id="edge68" class="edge">
<title>u38&#45;&gt;u27</title>
<path fill="none" stroke="black" d="M2586.04,-3577.26C2696.77,-3502.6 3145.8,-3199.84 3273.31,-3113.86"/>
<polygon fill="black" stroke="black" points="3275.59,-3116.55 3281.92,-3108.06 3271.67,-3110.74 3275.59,-3116.55"/>
</g>
<!-- u25 -->
<g id="node52" class="node">
<title>u25</title>
<ellipse fill="#ff7777" stroke="black" cx="367.22" cy="-3090" rx="367.43" ry="18"/>
<text text-anchor="middle" x="367.22" y="-3086.3" font-family="Times,serif" font-size="14.00">Language.Drasil.Code.Imperative.GOOL.LanguageRenderer.PythonRenderer</text>
</g>
<!-- u38&#45;&gt;u25 -->
<g id="edge67" class="edge">
<title>u38&#45;&gt;u25</title>
<path fill="none" stroke="black" d="M2551.07,-3576.88C2520.81,-3527.58 2425.7,-3384.93 2304.22,-3324 2150.05,-3246.68 1014.99,-3144.9 557.52,-3106.53"/>
<polygon fill="black" stroke="black" points="557.76,-3103.04 547.5,-3105.69 557.18,-3110.01 557.76,-3103.04"/>
</g>
<!-- u24 -->
<g id="node53" class="node">
<title>u24</title>
<ellipse fill="#ff7777" stroke="black" cx="1105.22" cy="-3090" rx="352.84" ry="18"/>
<text text-anchor="middle" x="1105.22" y="-3086.3" font-family="Times,serif" font-size="14.00">Language.Drasil.Code.Imperative.GOOL.LanguageRenderer.CppRenderer</text>
</g>
<!-- u38&#45;&gt;u24 -->
<g id="edge66" class="edge">
<title>u38&#45;&gt;u24</title>
<path fill="none" stroke="black" d="M2556.45,-3576.95C2541.95,-3528.46 2493.46,-3389.07 2399.22,-3324 2223.73,-3202.84 1615.08,-3134.42 1299.06,-3106.3"/>
<polygon fill="black" stroke="black" points="1299.14,-3102.79 1288.87,-3105.4 1298.52,-3109.76 1299.14,-3102.79"/>
</g>
<!-- u23 -->
<g id="node54" class="node">
<title>u23</title>
<ellipse fill="#ff7777" stroke="black" cx="1830.22" cy="-3090" rx="354.44" ry="18"/>
<text text-anchor="middle" x="1830.22" y="-3086.3" font-family="Times,serif" font-size="14.00">Language.Drasil.Code.Imperative.GOOL.LanguageRenderer.JavaRenderer</text>
</g>
<!-- u38&#45;&gt;u23 -->
<g id="edge65" class="edge">
<title>u38&#45;&gt;u23</title>
<path fill="none" stroke="black" d="M2559.1,-3576.82C2552.41,-3529.77 2527.5,-3397.4 2452.22,-3324 2317.17,-3192.32 2100.75,-3133.79 1962.09,-3108.69"/>
<polygon fill="black" stroke="black" points="1962.7,-3105.24 1952.25,-3106.94 1961.48,-3112.14 1962.7,-3105.24"/>
</g>
<!-- u22 -->
<g id="node55" class="node">
<title>u22</title>
<ellipse fill="#ff7777" stroke="black" cx="2561.22" cy="-3090" rx="358.54" ry="18"/>
<text text-anchor="middle" x="2561.22" y="-3086.3" font-family="Times,serif" font-size="14.00">Language.Drasil.Code.Imperative.GOOL.LanguageRenderer.SwiftRenderer</text>
</g>
<!-- u38&#45;&gt;u22 -->
<g id="edge64" class="edge">
<title>u38&#45;&gt;u22</title>
<path fill="none" stroke="black" d="M2561.22,-3576.98C2561.22,-3503.02 2561.22,-3209.23 2561.22,-3118.1"/>
<polygon fill="black" stroke="black" points="2564.72,-3118.02 2561.22,-3108.02 2557.72,-3118.02 2564.72,-3118.02"/>
</g>
<!-- u47 -->
<g id="node13" class="node">
<title>u47</title>
<ellipse fill="#ffbbbb" stroke="black" cx="3600.22" cy="-820" rx="202.26" ry="18"/>
<text text-anchor="middle" x="3600.22" y="-816.3" font-family="Times,serif" font-size="14.00">Language.Drasil.Chunk.NamedArgument</text>
</g>
<!-- u46 -->
<g id="node14" class="node">
<title>u46</title>
<ellipse fill="#ffbbbb" stroke="black" cx="2878.22" cy="-63" rx="168.17" ry="18"/>
<text text-anchor="middle" x="2878.22" y="-59.3" font-family="Times,serif" font-size="14.00">Language.Drasil.Chunk.CodeBase</text>
</g>
<!-- u43 -->
<g id="node17" class="node">
<title>u43</title>
<ellipse fill="#ffbbbb" stroke="black" cx="2878.22" cy="-315" rx="145.67" ry="18"/>
<text text-anchor="middle" x="2878.22" y="-311.3" font-family="Times,serif" font-size="14.00">Language.Drasil.Chunk.Code</text>
</g>
<!-- u45&#45;&gt;u43 -->
<g id="edge79" class="edge">
<title>u45&#45;&gt;u43</title>
<path fill="none" stroke="black" d="M2878.22,-549.75C2878.22,-506.84 2878.22,-395.02 2878.22,-343.15"/>
<polygon fill="black" stroke="black" points="2881.72,-343.04 2878.22,-333.04 2874.72,-343.04 2881.72,-343.04"/>
</g>
<!-- u43&#45;&gt;u46 -->
<g id="edge78" class="edge">
<title>u43&#45;&gt;u46</title>
<path fill="none" stroke="black" d="M2878.22,-296.82C2878.22,-254.18 2878.22,-143.24 2878.22,-91.42"/>
<polygon fill="black" stroke="black" points="2881.72,-91.3 2878.22,-81.3 2874.72,-91.3 2881.72,-91.3"/>
</g>
<!-- u40 -->
<g id="node57" class="node">
<title>u40</title>
<ellipse fill="#ff77ff" stroke="black" cx="2551.22" cy="-1072" rx="154.07" ry="18"/>
<text text-anchor="middle" x="2551.22" y="-1068.3" font-family="Times,serif" font-size="14.00">Language.Drasil.Data.ODEInfo</text>
</g>
<!-- u42&#45;&gt;u40 -->
<g id="edge77" class="edge">
<title>u42&#45;&gt;u40</title>
<path fill="none" stroke="black" d="M3284.28,-1565.04C3120.59,-1545.52 2852.82,-1491.45 2680.22,-1342 2603.68,-1275.73 2568.81,-1153.83 2556.61,-1099.89"/>
<polygon fill="black" stroke="black" points="2560.01,-1099.07 2554.46,-1090.05 2553.17,-1100.56 2560.01,-1099.07"/>
</g>
<!-- u37 -->
<g id="node19" class="node">
<title>u37</title>
<ellipse fill="#bbffff" stroke="black" cx="3644.22" cy="-1324" rx="178.97" ry="18"/>
<text text-anchor="middle" x="3644.22" y="-1320.3" font-family="Times,serif" font-size="14.00">Language.Drasil.Code.ExtLibImport</text>
</g>
<!-- u35 -->
<g id="node21" class="node">
<title>u35</title>
<ellipse fill="#bbffff" stroke="black" cx="3643.22" cy="-1072" rx="190.37" ry="18"/>
<text text-anchor="middle" x="3643.22" y="-1068.3" font-family="Times,serif" font-size="14.00">Language.Drasil.Code.ExternalLibrary</text>
</g>
<!-- u37&#45;&gt;u35 -->
<g id="edge61" class="edge">
<title>u37&#45;&gt;u35</title>
<path fill="none" stroke="black" d="M3644.15,-1305.82C3643.98,-1263.18 3643.53,-1152.24 3643.33,-1100.42"/>
<polygon fill="black" stroke="black" points="3646.83,-1100.29 3643.29,-1090.3 3639.83,-1100.32 3646.83,-1100.29"/>
</g>
<!-- u31 -->
<g id="node25" class="node">
<title>u31</title>
<ellipse fill="#bbffff" stroke="black" cx="3227.22" cy="-1072" rx="207.96" ry="18"/>
<text text-anchor="middle" x="3227.22" y="-1068.3" font-family="Times,serif" font-size="14.00">Language.Drasil.Code.ExternalLibraryCall</text>
</g>
<!-- u37&#45;&gt;u31 -->
<g id="edge60" class="edge">
<title>u37&#45;&gt;u31</title>
<path fill="none" stroke="black" d="M3616.21,-1306.21C3543.15,-1262.41 3346.75,-1144.66 3264.38,-1095.28"/>
<polygon fill="black" stroke="black" points="3265.75,-1092.02 3255.38,-1089.88 3262.15,-1098.03 3265.75,-1092.02"/>
</g>
<!-- u36 -->
<g id="node20" class="node">
<title>u36</title>
<ellipse fill="#bbffff" stroke="black" cx="4460.22" cy="-2333" rx="204.16" ry="18"/>
<text text-anchor="middle" x="4460.22" y="-2329.3" font-family="Times,serif" font-size="14.00">Language.Drasil.Code.CodeQuantityDicts</text>
</g>
<!-- u35&#45;&gt;u49 -->
<g id="edge59" class="edge">
<title>u35&#45;&gt;u49</title>
<path fill="none" stroke="black" d="M3614.95,-1054.01C3541.61,-1009.94 3345.27,-891.95 3263.62,-842.88"/>
<polygon fill="black" stroke="black" points="3265.08,-839.67 3254.7,-837.52 3261.47,-845.67 3265.08,-839.67"/>
</g>
<!-- u35&#45;&gt;u47 -->
<g id="edge58" class="edge">
<title>u35&#45;&gt;u47</title>
<path fill="none" stroke="black" d="M3640.26,-1053.82C3632.93,-1011.18 3613.85,-900.24 3604.93,-848.42"/>
<polygon fill="black" stroke="black" points="3608.34,-847.57 3603.19,-838.3 3601.44,-848.75 3608.34,-847.57"/>
</g>
<!-- u34 -->
<g id="node22" class="node">
<title>u34</title>
<ellipse fill="#bbffff" stroke="black" cx="3885.22" cy="-3090" rx="191.17" ry="18"/>
<text text-anchor="middle" x="3885.22" y="-3086.3" font-family="Times,serif" font-size="14.00">Language.Drasil.Code.CodeGeneration</text>
</g>
<!-- u34&#45;&gt;u0 -->
<g id="edge56" class="edge">
<title>u34&#45;&gt;u0</title>
<path fill="none" stroke="black" d="M3844.99,-3072.3C3756.56,-3035.32 3538.98,-2942.93 3361.22,-2856 2847.44,-2604.76 2333.22,-2653.91 2333.22,-2082 2333.22,-2082 2333.22,-2082 2333.22,-1828 2333.22,-1638.62 2430.4,-1424.66 2466.73,-1351.3"/>
<polygon fill="black" stroke="black" points="2469.9,-1352.79 2471.24,-1342.28 2463.64,-1349.66 2469.9,-1352.79"/>
</g>
<!-- u20 -->
<g id="node49" class="node">
<title>u20</title>
<ellipse fill="#7777ff" stroke="black" cx="2458.22" cy="-2838" rx="222.06" ry="18"/>
<text text-anchor="middle" x="2458.22" y="-2834.3" font-family="Times,serif" font-size="14.00">Language.Drasil.Code.Imperative.GOOL.Data</text>
</g>
<!-- u34&#45;&gt;u20 -->
<g id="edge57" class="edge">
<title>u34&#45;&gt;u20</title>
<path fill="none" stroke="black" d="M3799.17,-3073.92C3549,-3030.1 2822.86,-2902.88 2557.13,-2856.33"/>
<polygon fill="black" stroke="black" points="2557.57,-2852.85 2547.11,-2854.57 2556.36,-2859.75 2557.57,-2852.85"/>
</g>
<!-- u33 -->
<g id="node23" class="node">
<title>u33</title>
<ellipse fill="#bbffff" stroke="black" cx="2862.22" cy="-1072" rx="139.18" ry="18"/>
<text text-anchor="middle" x="2862.22" y="-1068.3" font-family="Times,serif" font-size="14.00">Language.Drasil.Code.Lang</text>
</g>
<!-- u32&#45;&gt;u43 -->
<g id="edge55" class="edge">
<title>u32&#45;&gt;u43</title>
<path fill="none" stroke="black" d="M3203.78,-550.14C3142.81,-506.29 2979.2,-388.62 2909.91,-338.8"/>
<polygon fill="black" stroke="black" points="2911.72,-335.78 2901.56,-332.79 2907.63,-341.47 2911.72,-335.78"/>
</g>
<!-- u31&#45;&gt;u49 -->
<g id="edge54" class="edge">
<title>u31&#45;&gt;u49</title>
<path fill="none" stroke="black" d="M3227.22,-1053.82C3227.22,-1011.18 3227.22,-900.24 3227.22,-848.42"/>
<polygon fill="black" stroke="black" points="3230.72,-848.3 3227.22,-838.3 3223.72,-848.3 3230.72,-848.3"/>
</g>
<!-- u31&#45;&gt;u47 -->
<g id="edge53" class="edge">
<title>u31&#45;&gt;u47</title>
<path fill="none" stroke="black" d="M3252.56,-1054.01C3317.95,-1010.19 3492.39,-893.27 3566.33,-843.71"/>
<polygon fill="black" stroke="black" points="3568.48,-846.49 3574.84,-838.01 3564.58,-840.67 3568.48,-846.49"/>
</g>
<!-- u30 -->
<g id="node27" class="node">
<title>u30</title>
<ellipse fill="#ffbbff" stroke="black" cx="3143.22" cy="-2333" rx="207.16" ry="18"/>
<text text-anchor="middle" x="3143.22" y="-2329.3" font-family="Times,serif" font-size="14.00">Language.Drasil.Code.Imperative.Logging</text>
</g>
<!-- u7 -->
<g id="node39" class="node">
<title>u7</title>
<ellipse fill="#ffbbff" stroke="black" cx="3884.22" cy="-2081" rx="222.06" ry="18"/>
<text text-anchor="middle" x="3884.22" y="-2077.3" font-family="Times,serif" font-size="14.00">Language.Drasil.Code.Imperative.DrasilState</text>
</g>
<!-- u30&#45;&gt;u7 -->
<g id="edge52" class="edge">
<title>u30&#45;&gt;u7</title>
<path fill="none" stroke="black" d="M3192.12,-2315.5C3323.34,-2271.23 3682.85,-2149.94 3825.13,-2101.94"/>
<polygon fill="black" stroke="black" points="3826.63,-2105.12 3834.99,-2098.61 3824.39,-2098.49 3826.63,-2105.12"/>
</g>
<!-- u29 -->
<g id="node28" class="node">
<title>u29</title>
<ellipse fill="#ffbbff" stroke="black" cx="4460.22" cy="-2586" rx="223.66" ry="18"/>
<text text-anchor="middle" x="4460.22" y="-2582.3" font-family="Times,serif" font-size="14.00">Language.Drasil.Code.Imperative.Parameters</text>
</g>
<!-- u29&#45;&gt;u36 -->
<g id="edge51" class="edge">
<title>u29&#45;&gt;u36</title>
<path fill="none" stroke="black" d="M4460.22,-2567.75C4460.22,-2524.84 4460.22,-2413.02 4460.22,-2361.15"/>
<polygon fill="black" stroke="black" points="4463.72,-2361.04 4460.22,-2351.04 4456.72,-2361.04 4463.72,-2361.04"/>
</g>
<!-- u29&#45;&gt;u7 -->
<g id="edge50" class="edge">
<title>u29&#45;&gt;u7</title>
<path fill="none" stroke="black" d="M4492.04,-2568.18C4567.58,-2526.09 4746.13,-2412.56 4673.22,-2315 4591.8,-2206.06 4194.89,-2130.26 3996.94,-2098.58"/>
<polygon fill="black" stroke="black" points="3997.22,-2095.08 3986.79,-2096.97 3996.12,-2102 3997.22,-2095.08"/>
</g>
<!-- u18 -->
<g id="node29" class="node">
<title>u18</title>
<ellipse fill="#ffbbff" stroke="black" cx="3603.22" cy="-2838" rx="233.16" ry="18"/>
<text text-anchor="middle" x="3603.22" y="-2834.3" font-family="Times,serif" font-size="14.00">Language.Drasil.Code.Imperative.FunctionCalls</text>
</g>
<!-- u18&#45;&gt;u29 -->
<g id="edge32" class="edge">
<title>u18&#45;&gt;u29</title>
<path fill="none" stroke="black" d="M3659.78,-2820.5C3812.18,-2776.04 4230.83,-2653.92 4393.94,-2606.33"/>
<polygon fill="black" stroke="black" points="4395.22,-2609.61 4403.84,-2603.45 4393.26,-2602.89 4395.22,-2609.61"/>
</g>
<!-- u2 -->
<g id="node42" class="node">
<title>u2</title>
<ellipse fill="#ffbbff" stroke="black" cx="3574.22" cy="-2586" rx="201.46" ry="18"/>
<text text-anchor="middle" x="3574.22" y="-2582.3" font-family="Times,serif" font-size="14.00">Language.Drasil.Code.Imperative.Import</text>
</g>
<!-- u18&#45;&gt;u2 -->
<g id="edge31" class="edge">
<title>u18&#45;&gt;u2</title>
<path fill="none" stroke="black" d="M3601.22,-2819.82C3596.28,-2777.18 3583.41,-2666.24 3577.4,-2614.42"/>
<polygon fill="black" stroke="black" points="3580.85,-2613.83 3576.22,-2604.3 3573.9,-2614.64 3580.85,-2613.83"/>
</g>
<!-- u17 -->
<g id="node30" class="node">
<title>u17</title>
<ellipse fill="#ffbbff" stroke="black" cx="3574.22" cy="-2333" rx="206.06" ry="18"/>
<text text-anchor="middle" x="3574.22" y="-2329.3" font-family="Times,serif" font-size="14.00">Language.Drasil.Code.Imperative.Helpers</text>
</g>
<!-- u17&#45;&gt;u7 -->
<g id="edge30" class="edge">
<title>u17&#45;&gt;u7</title>
<path fill="none" stroke="black" d="M3595.52,-2314.82C3649.85,-2271 3793.61,-2155.07 3855.36,-2105.27"/>
<polygon fill="black" stroke="black" points="3857.58,-2107.98 3863.17,-2098.97 3853.19,-2102.53 3857.58,-2107.98"/>
</g>
<!-- u16 -->
<g id="node31" class="node">
<title>u16</title>
<ellipse fill="#ffbbff" stroke="black" cx="2891.22" cy="-1829" rx="237.46" ry="18"/>
<text text-anchor="middle" x="2891.22" y="-1825.3" font-family="Times,serif" font-size="14.00">Language.Drasil.Code.Imperative.ConceptMatch</text>
</g>
<!-- u16&#45;&gt;u48 -->
<g id="edge29" class="edge">
<title>u16&#45;&gt;u48</title>
<path fill="none" stroke="black" d="M2877.4,-1810.82C2842.53,-1767.45 2750.86,-1653.43 2710.17,-1602.81"/>
<polygon fill="black" stroke="black" points="2712.86,-1600.57 2703.86,-1594.97 2707.4,-1604.96 2712.86,-1600.57"/>
</g>
<!-- u15 -->
<g id="node32" class="node">
<title>u15</title>
<ellipse fill="#ffbbff" stroke="black" cx="4082.22" cy="-2838" rx="228.26" ry="18"/>
<text text-anchor="middle" x="4082.22" y="-2834.3" font-family="Times,serif" font-size="14.00">Language.Drasil.Code.Imperative.Descriptions</text>
</g>
<!-- u15&#45;&gt;u7 -->
<g id="edge28" class="edge">
<title>u15&#45;&gt;u7</title>
<path fill="none" stroke="black" d="M4241.21,-2825.03C4385.97,-2804.74 4592.05,-2750.23 4693.22,-2604 4766.29,-2498.37 4771.47,-2417.61 4694.22,-2315 4610.64,-2203.99 4205.27,-2129.46 4001.56,-2098.37"/>
<polygon fill="black" stroke="black" points="4001.83,-2094.87 3991.42,-2096.83 4000.78,-2101.79 4001.83,-2094.87"/>
</g>
<!-- u14 -->
<g id="node33" class="node">
<title>u14</title>
<ellipse fill="#ffbbff" stroke="black" cx="4555.22" cy="-2838" rx="226.66" ry="18"/>
<text text-anchor="middle" x="4555.22" y="-2834.3" font-family="Times,serif" font-size="14.00">Language.Drasil.Code.Imperative.SpaceMatch</text>
</g>
<!-- u14&#45;&gt;u7 -->
<g id="edge27" class="edge">
<title>u14&#45;&gt;u7</title>
<path fill="none" stroke="black" d="M4573.06,-2819.8C4608.95,-2783.81 4688.96,-2696.23 4718.22,-2604 4757.06,-2481.57 4796.88,-2417.3 4719.22,-2315 4633.04,-2201.48 4217.33,-2128.4 4006.86,-2098.06"/>
<polygon fill="black" stroke="black" points="4007.08,-2094.55 3996.69,-2096.6 4006.09,-2101.48 4007.08,-2094.55"/>
</g>
<!-- u13 -->
<g id="node34" class="node">
<title>u13</title>
<ellipse fill="#ffbbff" stroke="black" cx="2677.22" cy="-2333" rx="240.46" ry="18"/>
<text text-anchor="middle" x="2677.22" y="-2329.3" font-family="Times,serif" font-size="14.00">Language.Drasil.Code.Imperative.GenerateGOOL</text>
</g>
<!-- u13&#45;&gt;u7 -->
<g id="edge25" class="edge">
<title>u13&#45;&gt;u7</title>
<path fill="none" stroke="black" d="M2755.02,-2315.89C2970.14,-2271.33 3571.9,-2146.69 3797.41,-2099.98"/>
<polygon fill="black" stroke="black" points="3798.13,-2103.4 3807.22,-2097.95 3796.71,-2096.55 3798.13,-2103.4"/>
</g>
<!-- u21 -->
<g id="node48" class="node">
<title>u21</title>
<ellipse fill="#7777ff" stroke="black" cx="2628.22" cy="-2081" rx="267.25" ry="18"/>
<text text-anchor="middle" x="2628.22" y="-2077.3" font-family="Times,serif" font-size="14.00">Language.Drasil.Code.Imperative.GOOL.ClassInterface</text>
</g>
<!-- u13&#45;&gt;u21 -->
<g id="edge26" class="edge">
<title>u13&#45;&gt;u21</title>
<path fill="none" stroke="black" d="M2673.85,-2314.82C2665.49,-2272.18 2643.75,-2161.24 2633.59,-2109.42"/>
<polygon fill="black" stroke="black" points="2636.97,-2108.44 2631.61,-2099.3 2630.1,-2109.79 2636.97,-2108.44"/>
</g>
<!-- u11 -->
<g id="node35" class="node">
<title>u11</title>
<ellipse fill="#ffbbff" stroke="black" cx="2357.22" cy="-2586" rx="233.16" ry="18"/>
<text text-anchor="middle" x="2357.22" y="-2582.3" font-family="Times,serif" font-size="14.00">Language.Drasil.Code.Imperative.WriteReadMe</text>
</g>
<!-- u11&#45;&gt;u21 -->
<g id="edge23" class="edge">
<title>u11&#45;&gt;u21</title>
<path fill="none" stroke="black" d="M2356,-2567.79C2353.6,-2523.33 2351.8,-2402.05 2395.22,-2315 2442.01,-2221.16 2541.25,-2142.25 2593.84,-2105"/>
<polygon fill="black" stroke="black" points="2595.98,-2107.77 2602.17,-2099.17 2591.97,-2102.03 2595.98,-2107.77"/>
</g>
<!-- u10 -->
<g id="node36" class="node">
<title>u10</title>
<ellipse fill="#ffbbff" stroke="black" cx="1816.22" cy="-1829" rx="219.86" ry="18"/>
<text text-anchor="middle" x="1816.22" y="-1825.3" font-family="Times,serif" font-size="14.00">Language.Drasil.Code.Imperative.WriteInput</text>
</g>
<!-- u10&#45;&gt;u32 -->
<g id="edge22" class="edge">
<title>u10&#45;&gt;u32</title>
<path fill="none" stroke="black" d="M1853.8,-1811.19C1966.72,-1757.83 2295.22,-1580.65 2295.22,-1325 2295.22,-1325 2295.22,-1325 2295.22,-1071 2295.22,-873.13 2954.62,-652.96 3164.13,-588"/>
<polygon fill="black" stroke="black" points="3165.24,-591.32 3173.76,-585.02 3163.17,-584.63 3165.24,-591.32"/>
</g>
<!-- u9 -->
<g id="node37" class="node">
<title>u9</title>
<ellipse fill="#ffbbff" stroke="black" cx="4303.22" cy="-3090" rx="209.06" ry="18"/>
<text text-anchor="middle" x="4303.22" y="-3086.3" font-family="Times,serif" font-size="14.00">Language.Drasil.Code.Imperative.Modules</text>
</g>
<!-- u9&#45;&gt;u18 -->
<g id="edge21" class="edge">
<title>u9&#45;&gt;u18</title>
<path fill="none" stroke="black" d="M4256.75,-3072.4C4132.82,-3028.14 3794.73,-2907.4 3659.87,-2859.23"/>
<polygon fill="black" stroke="black" points="3660.73,-2855.82 3650.13,-2855.75 3658.37,-2862.41 3660.73,-2855.82"/>
</g>
<!-- u9&#45;&gt;u15 -->
<g id="edge20" class="edge">
<title>u9&#45;&gt;u15</title>
<path fill="none" stroke="black" d="M4288.03,-3071.82C4249.61,-3028.36 4148.48,-2913.96 4103.88,-2863.5"/>
<polygon fill="black" stroke="black" points="4106.47,-2861.15 4097.22,-2855.97 4101.22,-2865.78 4106.47,-2861.15"/>
</g>
<!-- u8&#45;&gt;u34 -->
<g id="edge19" class="edge">
<title>u8&#45;&gt;u34</title>
<path fill="none" stroke="black" d="M4389.88,-3324.21C4294.21,-3280 4035.53,-3160.46 3930.48,-3111.92"/>
<polygon fill="black" stroke="black" points="3931.94,-3108.74 3921.4,-3107.72 3929.01,-3115.09 3931.94,-3108.74"/>
</g>
<!-- u8&#45;&gt;u14 -->
<g id="edge17" class="edge">
<title>u8&#45;&gt;u14</title>
<path fill="none" stroke="black" d="M4434.97,-3324C4453.99,-3286.24 4499.17,-3192.09 4521.22,-3108 4543.86,-3021.64 4551.61,-2915.6 4554.11,-2866.44"/>
<polygon fill="black" stroke="black" points="4557.62,-2866.44 4554.59,-2856.29 4550.62,-2866.11 4557.62,-2866.44"/>
</g>
<!-- u8&#45;&gt;u9 -->
<g id="edge16" class="edge">
<title>u8&#45;&gt;u9</title>
<path fill="none" stroke="black" d="M4417.76,-3323.82C4396.65,-3280.91 4341.52,-3168.84 4316.23,-3117.45"/>
<polygon fill="black" stroke="black" points="4319.29,-3115.73 4311.73,-3108.3 4313.01,-3118.82 4319.29,-3115.73"/>
</g>
<!-- u4 -->
<g id="node40" class="node">
<title>u4</title>
<ellipse fill="#ffbbff" stroke="black" cx="3646.22" cy="-1829" rx="209.86" ry="18"/>
<text text-anchor="middle" x="3646.22" y="-1825.3" font-family="Times,serif" font-size="14.00">Language.Drasil.Code.Imperative.GenODE</text>
</g>
<!-- u8&#45;&gt;u4 -->
<g id="edge15" class="edge">
<title>u8&#45;&gt;u4</title>
<path fill="none" stroke="black" d="M4589.3,-3330.1C4867.07,-3301.73 5402.22,-3200.2 5402.22,-2839 5402.22,-2839 5402.22,-2839 5402.22,-2332 5402.22,-2003.34 4250.71,-1877.78 3812.65,-1841.91"/>
<polygon fill="black" stroke="black" points="3812.69,-1838.4 3802.44,-1841.07 3812.12,-1845.37 3812.69,-1838.4"/>
</g>
<!-- u28 -->
<g id="node47" class="node">
<title>u28</title>
<ellipse fill="#7777ff" stroke="black" cx="5085.22" cy="-2586" rx="289.45" ry="18"/>
<text text-anchor="middle" x="5085.22" y="-2582.3" font-family="Times,serif" font-size="14.00">Language.Drasil.Code.Imperative.GOOL.LanguageRenderer</text>
</g>
<!-- u8&#45;&gt;u28 -->
<g id="edge18" class="edge">
<title>u8&#45;&gt;u28</title>
<path fill="none" stroke="black" d="M4513.95,-3325.52C4705.64,-3286.44 5159.49,-3164.02 5345.22,-2856 5410.15,-2748.32 5228.17,-2649.66 5135.6,-2607.96"/>
<polygon fill="black" stroke="black" points="5136.95,-2604.73 5126.39,-2603.87 5134.11,-2611.13 5136.95,-2604.73"/>
</g>
<!-- u7&#45;&gt;u41 -->
<g id="edge14" class="edge">
<title>u7&#45;&gt;u41</title>
<path fill="none" stroke="black" d="M3843.78,-2063.21C3736.86,-2018.8 3446.93,-1898.4 3331.04,-1850.28"/>
<polygon fill="black" stroke="black" points="3332.27,-1846.99 3321.69,-1846.39 3329.58,-1853.46 3332.27,-1846.99"/>
</g>
<!-- u7&#45;&gt;u37 -->
<g id="edge13" class="edge">
<title>u7&#45;&gt;u37</title>
<path fill="none" stroke="black" d="M3885.08,-2062.99C3886.82,-2019.99 3888.78,-1903.8 3865.22,-1811 3817.96,-1624.86 3702.43,-1421.66 3660.1,-1350.96"/>
<polygon fill="black" stroke="black" points="3663.01,-1349.01 3654.85,-1342.25 3657.01,-1352.62 3663.01,-1349.01"/>
</g>
<!-- u4&#45;&gt;u48 -->
<g id="edge11" class="edge">
<title>u4&#45;&gt;u48</title>
<path fill="none" stroke="black" d="M3584.23,-1811.79C3413.06,-1767.03 2934.87,-1641.98 2757.52,-1595.6"/>
<polygon fill="black" stroke="black" points="2758.35,-1592.2 2747.79,-1593.06 2756.58,-1598.97 2758.35,-1592.2"/>
</g>
<!-- u4&#45;&gt;u42 -->
<g id="edge10" class="edge">
<title>u4&#45;&gt;u42</title>
<path fill="none" stroke="black" d="M3631.16,-1810.82C3593.1,-1767.36 3492.88,-1652.96 3448.68,-1602.5"/>
<polygon fill="black" stroke="black" points="3451.31,-1600.19 3442.09,-1594.97 3446.04,-1604.8 3451.31,-1600.19"/>
</g>
<!-- u4&#45;&gt;u37 -->
<g id="edge9" class="edge">
<title>u4&#45;&gt;u37</title>
<path fill="none" stroke="black" d="M3646.15,-1810.98C3645.86,-1737.02 3644.69,-1443.23 3644.33,-1352.1"/>
<polygon fill="black" stroke="black" points="3647.82,-1352.01 3644.29,-1342.02 3640.82,-1352.03 3647.82,-1352.01"/>
</g>
<!-- u3 -->
<g id="node41" class="node">
<title>u3</title>
<ellipse fill="#ffbbff" stroke="black" cx="4018.22" cy="-2333" rx="219.86" ry="18"/>
<text text-anchor="middle" x="4018.22" y="-2329.3" font-family="Times,serif" font-size="14.00">Language.Drasil.Code.Imperative.Comments</text>
</g>
<!-- u3&#45;&gt;u7 -->
<g id="edge8" class="edge">
<title>u3&#45;&gt;u7</title>
<path fill="none" stroke="black" d="M4009.01,-2314.82C3985.96,-2271.82 3925.69,-2159.38 3898.22,-2108.13"/>
<polygon fill="black" stroke="black" points="3901.3,-2106.46 3893.49,-2099.3 3895.13,-2109.77 3901.3,-2106.46"/>
</g>
<!-- u2&#45;&gt;u36 -->
<g id="edge7" class="edge">
<title>u2&#45;&gt;u36</title>
<path fill="none" stroke="black" d="M3631.67,-2568.72C3788.73,-2524.23 4224.75,-2400.71 4392.88,-2353.08"/>
<polygon fill="black" stroke="black" points="4393.94,-2356.41 4402.61,-2350.32 4392.03,-2349.68 4393.94,-2356.41"/>
</g>
<!-- u2&#45;&gt;u30 -->
<g id="edge6" class="edge">
<title>u2&#45;&gt;u30</title>
<path fill="none" stroke="black" d="M3545.27,-2568.14C3469.6,-2524.08 3265.94,-2405.47 3181.11,-2356.07"/>
<polygon fill="black" stroke="black" points="3182.73,-2352.96 3172.32,-2350.95 3179.2,-2359.01 3182.73,-2352.96"/>
</g>
<!-- u2&#45;&gt;u17 -->
<g id="edge5" class="edge">
<title>u2&#45;&gt;u17</title>
<path fill="none" stroke="black" d="M3574.22,-2567.75C3574.22,-2524.84 3574.22,-2413.02 3574.22,-2361.15"/>
<polygon fill="black" stroke="black" points="3577.72,-2361.04 3574.22,-2351.04 3570.72,-2361.04 3577.72,-2361.04"/>
</g>
<!-- u2&#45;&gt;u16 -->
<g id="edge4" class="edge">
<title>u2&#45;&gt;u16</title>
<path fill="none" stroke="black" d="M3406.75,-2575.98C3119.01,-2556.61 2549.86,-2499.99 2428.22,-2351 2418.1,-2338.61 2419.55,-2328.45 2428.22,-2315 2554.05,-2119.71 2778.38,-2294.29 2904.22,-2099 2953.25,-2022.91 2920.69,-1908.07 2901.9,-1856.6"/>
<polygon fill="black" stroke="black" points="2905.15,-1855.31 2898.35,-1847.18 2898.6,-1857.77 2905.15,-1855.31"/>
</g>
<!-- u2&#45;&gt;u13 -->
<g id="edge3" class="edge">
<title>u2&#45;&gt;u13</title>
<path fill="none" stroke="black" d="M3516.05,-2568.72C3357.23,-2524.28 2916.67,-2401 2746,-2353.25"/>
<polygon fill="black" stroke="black" points="2746.7,-2349.81 2736.12,-2350.48 2744.81,-2356.55 2746.7,-2349.81"/>
</g>
<!-- u2&#45;&gt;u3 -->
<g id="edge2" class="edge">
<title>u2&#45;&gt;u3</title>
<path fill="none" stroke="black" d="M3604.04,-2568.14C3682.07,-2524.03 3892.22,-2405.23 3979.45,-2355.92"/>
<polygon fill="black" stroke="black" points="3981.25,-2358.92 3988.23,-2350.95 3977.81,-2352.82 3981.25,-2358.92"/>
</g>
<!-- u1&#45;&gt;u32 -->
<g id="edge1" class="edge">
<title>u1&#45;&gt;u32</title>
<path fill="none" stroke="black" d="M5526.86,-2065.98C5289.16,-2031.07 4785.22,-1917.08 4785.22,-1578 4785.22,-1578 4785.22,-1578 4785.22,-1071 4785.22,-770.19 3719.73,-623.59 3351.01,-581.87"/>
<polygon fill="black" stroke="black" points="3351.16,-578.36 3340.83,-580.72 3350.38,-585.32 3351.16,-578.36"/>
</g>
<!-- u6 -->
<g id="node44" class="node">
<title>u6</title>
<ellipse fill="#77ff77" stroke="black" cx="1824.22" cy="-2333" rx="215.56" ry="18"/>
<text text-anchor="middle" x="1824.22" y="-2329.3" font-family="Times,serif" font-size="14.00">Language.Drasil.Code.Imperative.Build.AST</text>
</g>
<!-- u5 -->
<g id="node45" class="node">
<title>u5</title>
<ellipse fill="#77ff77" stroke="black" cx="1824.22" cy="-2586" rx="228.56" ry="18"/>
<text text-anchor="middle" x="1824.22" y="-2582.3" font-family="Times,serif" font-size="14.00">Language.Drasil.Code.Imperative.Build.Import</text>
</g>
<!-- u5&#45;&gt;u6 -->
<g id="edge12" class="edge">
<title>u5&#45;&gt;u6</title>
<path fill="none" stroke="black" d="M1824.22,-2567.75C1824.22,-2524.84 1824.22,-2413.02 1824.22,-2361.15"/>
<polygon fill="black" stroke="black" points="1827.72,-2361.04 1824.22,-2351.04 1820.72,-2361.04 1827.72,-2361.04"/>
</g>
<!-- u19 -->
<g id="node46" class="node">
<title>u19</title>
<ellipse fill="#ffff77" stroke="black" cx="2060.22" cy="-2081" rx="245.06" ry="18"/>
<text text-anchor="middle" x="2060.22" y="-2077.3" font-family="Times,serif" font-size="14.00">Language.Drasil.Code.Imperative.Doxygen.Import</text>
</g>
<!-- u19&#45;&gt;u48 -->
<g id="edge33" class="edge">
<title>u19&#45;&gt;u48</title>
<path fill="none" stroke="black" d="M2081.54,-2063.01C2175.49,-1988.15 2552.67,-1687.6 2660.99,-1601.29"/>
<polygon fill="black" stroke="black" points="2663.26,-1603.95 2668.9,-1594.99 2658.9,-1598.48 2663.26,-1603.95"/>
</g>
<!-- u21&#45;&gt;u48 -->
<g id="edge34" class="edge">
<title>u21&#45;&gt;u48</title>
<path fill="none" stroke="black" d="M2628.54,-2062.93C2629.51,-2020.29 2633.13,-1905.69 2645.22,-1811 2654.83,-1735.68 2673.93,-1648.05 2683.87,-1604.87"/>
<polygon fill="black" stroke="black" points="2687.28,-1605.66 2686.13,-1595.12 2680.46,-1604.07 2687.28,-1605.66"/>
</g>
<!-- u27&#45;&gt;u20 -->
<g id="edge48" class="edge">
<title>u27&#45;&gt;u20</title>
<path fill="none" stroke="black" d="M3250.19,-3072.21C3098.43,-3027.52 2685.25,-2905.85 2523.96,-2858.36"/>
<polygon fill="black" stroke="black" points="2524.74,-2854.94 2514.16,-2855.47 2522.76,-2861.66 2524.74,-2854.94"/>
</g>
<!-- u26 -->
<g id="node51" class="node">
<title>u26</title>
<ellipse fill="#ff7777" stroke="black" cx="1824.22" cy="-2838" rx="393.73" ry="18"/>
<text text-anchor="middle" x="1824.22" y="-2834.3" font-family="Times,serif" font-size="14.00">Language.Drasil.Code.Imperative.GOOL.LanguageRenderer.LanguagePolymorphic</text>
</g>
<!-- u27&#45;&gt;u26 -->
<g id="edge49" class="edge">
<title>u27&#45;&gt;u26</title>
<path fill="none" stroke="black" d="M3209.91,-3072.6C2944.48,-3027.85 2209.26,-2903.91 1931.95,-2857.16"/>
<polygon fill="black" stroke="black" points="1932.32,-2853.67 1921.88,-2855.46 1931.16,-2860.58 1932.32,-2853.67"/>
</g>
<!-- u26&#45;&gt;u11 -->
<g id="edge45" class="edge">
<title>u26&#45;&gt;u11</title>
<path fill="none" stroke="black" d="M1860.43,-2820.01C1954.84,-2775.73 2208.32,-2656.84 2312.04,-2608.19"/>
<polygon fill="black" stroke="black" points="2313.74,-2611.26 2321.3,-2603.85 2310.76,-2604.92 2313.74,-2611.26"/>
</g>
<!-- u26&#45;&gt;u10 -->
<g id="edge44" class="edge">
<title>u26&#45;&gt;u10</title>
<path fill="none" stroke="black" d="M1795.51,-2820.04C1742.19,-2786.65 1629.36,-2706.61 1586.22,-2604 1466.89,-2320.19 1721.58,-1953.69 1796.38,-1855.25"/>
<polygon fill="black" stroke="black" points="1799.33,-1857.15 1802.64,-1847.08 1793.78,-1852.89 1799.33,-1857.15"/>
</g>
<!-- u26&#45;&gt;u5 -->
<g id="edge43" class="edge">
<title>u26&#45;&gt;u5</title>
<path fill="none" stroke="black" d="M1824.22,-2819.82C1824.22,-2777.18 1824.22,-2666.24 1824.22,-2614.42"/>
<polygon fill="black" stroke="black" points="1827.72,-2614.3 1824.22,-2604.3 1820.72,-2614.3 1827.72,-2614.3"/>
</g>
<!-- u26&#45;&gt;u19 -->
<g id="edge46" class="edge">
<title>u26&#45;&gt;u19</title>
<path fill="none" stroke="black" d="M1852.92,-2820.04C1906.24,-2786.65 2019.08,-2706.61 2062.22,-2604 2136.17,-2428.11 2087.13,-2188.45 2067.38,-2108.89"/>
<polygon fill="black" stroke="black" points="2070.76,-2107.99 2064.91,-2099.16 2063.98,-2109.72 2070.76,-2107.99"/>
</g>
<!-- u26&#45;&gt;u28 -->
<g id="edge47" class="edge">
<title>u26&#45;&gt;u28</title>
<path fill="none" stroke="black" d="M2016.33,-2822.27C2597.07,-2777.75 4329.32,-2644.95 4900.35,-2601.17"/>
<polygon fill="black" stroke="black" points="4901.04,-2604.63 4910.74,-2600.38 4900.5,-2597.65 4901.04,-2604.63"/>
</g>
<!-- u25&#45;&gt;u20 -->
<g id="edge41" class="edge">
<title>u25&#45;&gt;u20</title>
<path fill="none" stroke="black" d="M499.61,-3073.17C877.14,-3028.03 1955.86,-2899.06 2329.2,-2854.43"/>
<polygon fill="black" stroke="black" points="2329.71,-2857.89 2339.23,-2853.23 2328.88,-2850.94 2329.71,-2857.89"/>
</g>
<!-- u25&#45;&gt;u26 -->
<g id="edge42" class="edge">
<title>u25&#45;&gt;u26</title>
<path fill="none" stroke="black" d="M462.82,-3072.6C723.59,-3027.85 1445.92,-2903.91 1718.37,-2857.16"/>
<polygon fill="black" stroke="black" points="1719,-2860.6 1728.27,-2855.46 1717.82,-2853.71 1719,-2860.6"/>
</g>
<!-- u24&#45;&gt;u20 -->
<g id="edge39" class="edge">
<title>u24&#45;&gt;u20</title>
<path fill="none" stroke="black" d="M1194.25,-3072.55C1437.75,-3027.56 2113.16,-2902.76 2363.37,-2856.52"/>
<polygon fill="black" stroke="black" points="2364.33,-2859.91 2373.53,-2854.65 2363.06,-2853.02 2364.33,-2859.91"/>
</g>
<!-- u24&#45;&gt;u26 -->
<g id="edge40" class="edge">
<title>u24&#45;&gt;u26</title>
<path fill="none" stroke="black" d="M1153.79,-3072.11C1281.79,-3027.6 1627.98,-2907.23 1766.13,-2859.2"/>
<polygon fill="black" stroke="black" points="1767.42,-2862.45 1775.72,-2855.86 1765.12,-2855.84 1767.42,-2862.45"/>
</g>
<!-- u23&#45;&gt;u20 -->
<g id="edge37" class="edge">
<title>u23&#45;&gt;u20</title>
<path fill="none" stroke="black" d="M1872.89,-3072.01C1984.7,-3027.5 2285.91,-2907.59 2406.89,-2859.43"/>
<polygon fill="black" stroke="black" points="2408.32,-2862.63 2416.31,-2855.68 2405.73,-2856.13 2408.32,-2862.63"/>
</g>
<!-- u23&#45;&gt;u26 -->
<g id="edge38" class="edge">
<title>u23&#45;&gt;u26</title>
<path fill="none" stroke="black" d="M1829.81,-3071.82C1828.78,-3029.18 1826.12,-2918.24 1824.88,-2866.42"/>
<polygon fill="black" stroke="black" points="1828.37,-2866.22 1824.63,-2856.3 1821.37,-2866.38 1828.37,-2866.22"/>
</g>
<!-- u22&#45;&gt;u20 -->
<g id="edge35" class="edge">
<title>u22&#45;&gt;u20</title>
<path fill="none" stroke="black" d="M2554.14,-3071.82C2536.5,-3029 2490.48,-2917.31 2469.25,-2865.77"/>
<polygon fill="black" stroke="black" points="2472.39,-2864.22 2465.35,-2856.3 2465.92,-2866.88 2472.39,-2864.22"/>
</g>
<!-- u22&#45;&gt;u26 -->
<g id="edge36" class="edge">
<title>u22&#45;&gt;u26</title>
<path fill="none" stroke="black" d="M2511.43,-3072.11C2380.22,-3027.6 2025.37,-2907.23 1883.75,-2859.2"/>
<polygon fill="black" stroke="black" points="1884.53,-2855.76 1873.93,-2855.86 1882.28,-2862.39 1884.53,-2855.76"/>
</g>
<!-- u12 -->
<g id="node56" class="node">
<title>u12</title>
<ellipse fill="#77ffff" stroke="black" cx="5068.22" cy="-2838" rx="267.55" ry="18"/>
<text text-anchor="middle" x="5068.22" y="-2834.3" font-family="Times,serif" font-size="14.00">Language.Drasil.Code.Imperative.Parsers.ConfigParser</text>
</g>
<!-- u12&#45;&gt;u28 -->
<g id="edge24" class="edge">
<title>u12&#45;&gt;u28</title>
<path fill="none" stroke="black" d="M5069.39,-2819.82C5072.29,-2777.18 5079.83,-2666.24 5083.35,-2614.42"/>
<polygon fill="black" stroke="black" points="5086.85,-2614.52 5084.04,-2604.3 5079.87,-2614.04 5086.85,-2614.52"/>
</g>
<!-- u40&#45;&gt;u43 -->
<g id="edge73" class="edge">
<title>u40&#45;&gt;u43</title>
<path fill="none" stroke="black" d="M2553.62,-1053.95C2563.56,-986.74 2605.44,-734.78 2698.22,-550 2740.8,-465.19 2815.95,-380.65 2854.28,-340.36"/>
<polygon fill="black" stroke="black" points="2857.03,-342.54 2861.43,-332.9 2851.98,-337.69 2857.03,-342.54"/>
</g>
<!-- u39&#45;&gt;u35 -->
<g id="edge71" class="edge">
<title>u39&#45;&gt;u35</title>
<path fill="none" stroke="black" d="M2912.86,-1306.79C3050.73,-1262.66 3432.44,-1140.47 3581.99,-1092.6"/>
<polygon fill="black" stroke="black" points="3583.47,-1095.8 3591.93,-1089.42 3581.34,-1089.13 3583.47,-1095.8"/>
</g>
<!-- u39&#45;&gt;u33 -->
<g id="edge70" class="edge">
<title>u39&#45;&gt;u33</title>
<path fill="none" stroke="black" d="M2862.22,-1305.82C2862.22,-1263.18 2862.22,-1152.24 2862.22,-1100.42"/>
<polygon fill="black" stroke="black" points="2865.72,-1100.3 2862.22,-1090.3 2858.72,-1100.3 2865.72,-1100.3"/>
</g>
<!-- u39&#45;&gt;u31 -->
<g id="edge69" class="edge">
<title>u39&#45;&gt;u31</title>
<path fill="none" stroke="black" d="M2887.02,-1306.01C2951.01,-1262.19 3121.7,-1145.27 3194.06,-1095.71"/>
<polygon fill="black" stroke="black" points="3196.11,-1098.55 3202.38,-1090.01 3192.15,-1092.77 3196.11,-1098.55"/>
</g>
<!-- u39&#45;&gt;u40 -->
<g id="edge72" class="edge">
<title>u39&#45;&gt;u40</title>
<path fill="none" stroke="black" d="M2840.84,-1305.82C2786.34,-1262 2642.11,-1146.07 2580.16,-1096.27"/>
<polygon fill="black" stroke="black" points="2582.32,-1093.51 2572.33,-1089.97 2577.93,-1098.97 2582.32,-1093.51"/>
</g>
<!-- u58 -->
<g id="node59" class="node">
<title>u58</title>
<ellipse fill="#33ff33" stroke="black" cx="2151.22" cy="-3847" rx="108.58" ry="18"/>
<text text-anchor="middle" x="2151.22" y="-3843.3" font-family="Times,serif" font-size="14.00">drasil&#45;code.test.Main</text>
</g>
<!-- u58&#45;&gt;u57 -->
<g id="edge92" class="edge">
<title>u58&#45;&gt;u57</title>
<path fill="none" stroke="black" d="M2166.75,-3828.82C2206.23,-3785.15 2310.46,-3669.85 2355.72,-3619.78"/>
<polygon fill="black" stroke="black" points="2358.35,-3622.09 2362.46,-3612.32 2353.16,-3617.39 2358.35,-3622.09"/>
</g>
<!-- u58&#45;&gt;u56 -->
<g id="edge91" class="edge">
<title>u58&#45;&gt;u56</title>
<path fill="none" stroke="black" d="M2126.99,-3829.4C2063.01,-3785.58 1889.57,-3666.79 1817.88,-3617.69"/>
<polygon fill="black" stroke="black" points="1819.49,-3614.55 1809.26,-3611.78 1815.53,-3620.32 1819.49,-3614.55"/>
</g>
<!-- u58&#45;&gt;u54 -->
<g id="edge90" class="edge">
<title>u58&#45;&gt;u54</title>
<path fill="none" stroke="black" d="M2135.75,-3828.82C2096.55,-3785.26 1993.18,-3670.4 1947.94,-3620.14"/>
<polygon fill="black" stroke="black" points="1950.49,-3617.74 1941.2,-3612.65 1945.29,-3622.42 1950.49,-3617.74"/>
</g>
<!-- u58&#45;&gt;u52 -->
<g id="edge89" class="edge">
<title>u58&#45;&gt;u52</title>
<path fill="none" stroke="black" d="M2146.47,-3828.82C2134.65,-3785.99 2103.81,-3674.24 2089.59,-3622.72"/>
<polygon fill="black" stroke="black" points="2092.94,-3621.68 2086.9,-3612.97 2086.19,-3623.54 2092.94,-3621.68"/>
</g>
<!-- u58&#45;&gt;u51 -->
<g id="edge88" class="edge">
<title>u58&#45;&gt;u51</title>
<path fill="none" stroke="black" d="M2157.4,-3828.82C2172.85,-3785.9 2213.22,-3673.77 2231.71,-3622.4"/>
<polygon fill="black" stroke="black" points="2235.01,-3623.57 2235.11,-3612.97 2228.43,-3621.2 2235.01,-3623.57"/>
</g>
<!-- u58&#45;&gt;u38 -->
<g id="edge87" class="edge">
<title>u58&#45;&gt;u38</title>
<path fill="none" stroke="black" d="M2178.44,-3829.4C2250.16,-3785.67 2444.38,-3667.24 2525.18,-3617.97"/>
<polygon fill="black" stroke="black" points="2527.29,-3620.79 2534.01,-3612.59 2523.65,-3614.81 2527.29,-3620.79"/>
</g>
</g>
</svg>
