<?xml version="1.0" encoding="UTF-8" standalone="no"?>
<!DOCTYPE svg PUBLIC "-//W3C//DTD SVG 1.1//EN"
 "http://www.w3.org/Graphics/SVG/1.1/DTD/svg11.dtd">
<!-- Generated by graphviz version 2.43.0 (0)
 -->
<!-- Title: G Pages: 1 -->
<svg width="431pt" height="288pt"
 viewBox="0.00 0.00 430.97 288.00" xmlns="http://www.w3.org/2000/svg" xmlns:xlink="http://www.w3.org/1999/xlink">
<g id="graph0" class="graph" transform="scale(0.34 0.34) rotate(0) translate(4 840)">
<title>G</title>
<polygon fill="white" stroke="transparent" points="-4,4 -4,-840 1258.97,-840 1258.97,4 -4,4"/>
<!-- u11 -->
<g id="node1" class="node">
<title>u11</title>
<ellipse fill="#bbffbb" stroke="black" cx="552.64" cy="-776" rx="143.77" ry="18"/>
<text text-anchor="middle" x="552.64" y="-772.3" font-family="Times,serif" font-size="14.00">Drasil.Database.SearchTools</text>
</g>
<!-- u9 -->
<g id="node3" class="node">
<title>u9</title>
<ellipse fill="#bbbbff" stroke="black" cx="531.64" cy="-537" rx="115.88" ry="18"/>
<text text-anchor="middle" x="531.64" y="-533.3" font-family="Times,serif" font-size="14.00">Theory.Drasil.GenDefn</text>
</g>
<!-- u11&#45;&gt;u9 -->
<g id="edge19" class="edge">
<title>u11&#45;&gt;u9</title>
<path fill="none" stroke="black" d="M551.13,-757.96C547.53,-717.4 538.45,-614.87 534.07,-565.46"/>
<polygon fill="black" stroke="black" points="537.53,-564.86 533.16,-555.21 530.56,-565.48 537.53,-564.86"/>
</g>
<!-- u6 -->
<g id="node5" class="node">
<title>u6</title>
<ellipse fill="#bbbbff" stroke="black" cx="808.64" cy="-537" rx="143.77" ry="18"/>
<text text-anchor="middle" x="808.64" y="-533.3" font-family="Times,serif" font-size="14.00">Theory.Drasil.InstanceModel</text>
</g>
<!-- u11&#45;&gt;u6 -->
<g id="edge18" class="edge">
<title>u11&#45;&gt;u6</title>
<path fill="none" stroke="black" d="M571.05,-757.96C615.97,-716.36 731.31,-609.58 782.96,-561.77"/>
<polygon fill="black" stroke="black" points="785.43,-564.25 790.39,-554.89 780.68,-559.12 785.43,-564.25"/>
</g>
<!-- u1 -->
<g id="node10" class="node">
<title>u1</title>
<ellipse fill="#bbbbff" stroke="black" cx="290.64" cy="-537" rx="107.48" ry="18"/>
<text text-anchor="middle" x="290.64" y="-533.3" font-family="Times,serif" font-size="14.00">Theory.Drasil.Theory</text>
</g>
<!-- u11&#45;&gt;u1 -->
<g id="edge17" class="edge">
<title>u11&#45;&gt;u1</title>
<path fill="none" stroke="black" d="M533.79,-757.96C487.81,-716.36 369.77,-609.58 316.91,-561.77"/>
<polygon fill="black" stroke="black" points="319.07,-559 309.31,-554.89 314.38,-564.19 319.07,-559"/>
</g>
<!-- u0 -->
<g id="node11" class="node">
<title>u0</title>
<ellipse fill="#bbbbff" stroke="black" cx="1112.64" cy="-537" rx="142.17" ry="18"/>
<text text-anchor="middle" x="1112.64" y="-533.3" font-family="Times,serif" font-size="14.00">Theory.Drasil.DataDefinition</text>
</g>
<!-- u11&#45;&gt;u0 -->
<g id="edge16" class="edge">
<title>u11&#45;&gt;u0</title>
<path fill="none" stroke="black" d="M591.57,-758.52C691.25,-716.34 955.47,-604.52 1064.52,-558.36"/>
<polygon fill="black" stroke="black" points="1066.12,-561.49 1073.96,-554.37 1063.39,-555.04 1066.12,-561.49"/>
</g>
<!-- u10 -->
<g id="node2" class="node">
<title>u10</title>
<ellipse fill="#ffffbb" stroke="black" cx="797.64" cy="-776" rx="72.29" ry="18"/>
<text text-anchor="middle" x="797.64" y="-772.3" font-family="Times,serif" font-size="14.00">Theory.Drasil</text>
</g>
<!-- u10&#45;&gt;u9 -->
<g id="edge15" class="edge">
<title>u10&#45;&gt;u9</title>
<path fill="none" stroke="black" d="M778.93,-758.33C732.59,-717.04 612.31,-609.88 558.43,-561.87"/>
<polygon fill="black" stroke="black" points="560.47,-559 550.68,-554.96 555.81,-564.23 560.47,-559"/>
</g>
<!-- u10&#45;&gt;u6 -->
<g id="edge14" class="edge">
<title>u10&#45;&gt;u6</title>
<path fill="none" stroke="black" d="M798.43,-757.96C800.31,-717.4 805.07,-614.87 807.36,-565.46"/>
<polygon fill="black" stroke="black" points="810.87,-565.36 807.84,-555.21 803.88,-565.04 810.87,-565.36"/>
</g>
<!-- u10&#45;&gt;u1 -->
<g id="edge13" class="edge">
<title>u10&#45;&gt;u1</title>
<path fill="none" stroke="black" d="M765.15,-759.81C677.18,-718.69 434.25,-605.13 334.38,-558.45"/>
<polygon fill="black" stroke="black" points="335.71,-555.21 325.17,-554.14 332.75,-561.55 335.71,-555.21"/>
</g>
<!-- u10&#45;&gt;u0 -->
<g id="edge12" class="edge">
<title>u10&#45;&gt;u0</title>
<path fill="none" stroke="black" d="M819.29,-758.71C874.09,-717.47 1018.46,-608.85 1081.94,-561.09"/>
<polygon fill="black" stroke="black" points="1084.1,-563.85 1089.99,-555.04 1079.89,-558.25 1084.1,-563.85"/>
</g>
<!-- u5 -->
<g id="node6" class="node">
<title>u5</title>
<ellipse fill="#bbbbff" stroke="black" cx="470.64" cy="-299" rx="129.98" ry="18"/>
<text text-anchor="middle" x="470.64" y="-295.3" font-family="Times,serif" font-size="14.00">Theory.Drasil.ModelKinds</text>
</g>
<!-- u9&#45;&gt;u5 -->
<g id="edge10" class="edge">
<title>u9&#45;&gt;u5</title>
<path fill="none" stroke="black" d="M527.15,-518.65C516.62,-477.89 490.23,-375.8 477.59,-326.92"/>
<polygon fill="black" stroke="black" points="480.94,-325.87 475.05,-317.06 474.16,-327.62 480.94,-325.87"/>
</g>
<!-- u8 -->
<g id="node12" class="node">
<title>u8</title>
<ellipse fill="#ffbbbb" stroke="black" cx="803.64" cy="-299" rx="184.67" ry="18"/>
<text text-anchor="middle" x="803.64" y="-295.3" font-family="Times,serif" font-size="14.00">Theory.Drasil.Components.Derivation</text>
</g>
<!-- u9&#45;&gt;u8 -->
<g id="edge11" class="edge">
<title>u9&#45;&gt;u8</title>
<path fill="none" stroke="black" d="M551.2,-519.03C598.92,-477.63 721.39,-371.36 776.29,-323.72"/>
<polygon fill="black" stroke="black" points="778.63,-326.33 783.89,-317.14 774.04,-321.05 778.63,-326.33"/>
</g>
<!-- u7 -->
<g id="node4" class="node">
<title>u7</title>
<ellipse fill="#bbbbff" stroke="black" cx="156.64" cy="-60" rx="156.77" ry="18"/>
<text text-anchor="middle" x="156.64" y="-56.3" font-family="Times,serif" font-size="14.00">Theory.Drasil.DifferentialModel</text>
</g>
<!-- u6&#45;&gt;u5 -->
<g id="edge8" class="edge">
<title>u6&#45;&gt;u5</title>
<path fill="none" stroke="black" d="M784.6,-519.22C725.13,-477.7 571.05,-370.11 503.36,-322.85"/>
<polygon fill="black" stroke="black" points="504.98,-319.71 494.78,-316.86 500.97,-325.45 504.98,-319.71"/>
</g>
<!-- u4 -->
<g id="node7" class="node">
<title>u4</title>
<ellipse fill="#bbbbff" stroke="black" cx="1116.64" cy="-299" rx="110.48" ry="18"/>
<text text-anchor="middle" x="1116.64" y="-295.3" font-family="Times,serif" font-size="14.00">Theory.Drasil.Classes</text>
</g>
<!-- u6&#45;&gt;u4 -->
<g id="edge7" class="edge">
<title>u6&#45;&gt;u4</title>
<path fill="none" stroke="black" d="M830.79,-519.03C885.06,-477.44 1024.75,-370.41 1086.51,-323.09"/>
<polygon fill="black" stroke="black" points="1088.88,-325.68 1094.69,-316.82 1084.62,-320.12 1088.88,-325.68"/>
</g>
<!-- u6&#45;&gt;u8 -->
<g id="edge9" class="edge">
<title>u6&#45;&gt;u8</title>
<path fill="none" stroke="black" d="M808.27,-518.65C807.41,-477.97 805.25,-376.23 804.21,-327.23"/>
<polygon fill="black" stroke="black" points="807.71,-326.98 804,-317.06 800.71,-327.13 807.71,-326.98"/>
</g>
<!-- u5&#45;&gt;u7 -->
<g id="edge6" class="edge">
<title>u5&#45;&gt;u7</title>
<path fill="none" stroke="black" d="M448.05,-280.96C392.72,-239.19 250.31,-131.7 187.35,-84.18"/>
<polygon fill="black" stroke="black" points="189.1,-81.12 179.01,-77.89 184.89,-86.71 189.1,-81.12"/>
</g>
<!-- u3 -->
<g id="node8" class="node">
<title>u3</title>
<ellipse fill="#bbbbff" stroke="black" cx="470.64" cy="-60" rx="139.98" ry="18"/>
<text text-anchor="middle" x="470.64" y="-56.3" font-family="Times,serif" font-size="14.00">Theory.Drasil.ConstraintSet</text>
</g>
<!-- u5&#45;&gt;u3 -->
<g id="edge5" class="edge">
<title>u5&#45;&gt;u3</title>
<path fill="none" stroke="black" d="M470.64,-280.96C470.64,-240.4 470.64,-137.87 470.64,-88.46"/>
<polygon fill="black" stroke="black" points="474.14,-88.21 470.64,-78.21 467.14,-88.21 474.14,-88.21"/>
</g>
<!-- u2 -->
<g id="node9" class="node">
<title>u2</title>
<ellipse fill="#bbbbff" stroke="black" cx="750.64" cy="-60" rx="122.38" ry="18"/>
<text text-anchor="middle" x="750.64" y="-56.3" font-family="Times,serif" font-size="14.00">Theory.Drasil.MultiDefn</text>
</g>
<!-- u5&#45;&gt;u2 -->
<g id="edge4" class="edge">
<title>u5&#45;&gt;u2</title>
<path fill="none" stroke="black" d="M490.77,-280.96C540.01,-239.28 666.58,-132.14 722.9,-84.48"/>
<polygon fill="black" stroke="black" points="725.31,-87.02 730.68,-77.89 720.79,-81.68 725.31,-87.02"/>
</g>
<!-- u1&#45;&gt;u5 -->
<g id="edge3" class="edge">
<title>u1&#45;&gt;u5</title>
<path fill="none" stroke="black" d="M303.58,-519.03C334.84,-478.05 414.55,-373.53 451.41,-325.21"/>
<polygon fill="black" stroke="black" points="454.28,-327.21 457.57,-317.14 448.72,-322.96 454.28,-327.21"/>
</g>
<!-- u0&#45;&gt;u4 -->
<g id="edge1" class="edge">
<title>u0&#45;&gt;u4</title>
<path fill="none" stroke="black" d="M1112.93,-518.65C1113.62,-477.97 1115.34,-376.23 1116.17,-327.23"/>
<polygon fill="black" stroke="black" points="1119.68,-327.12 1116.35,-317.06 1112.68,-327 1119.68,-327.12"/>
</g>
<!-- u0&#45;&gt;u8 -->
<g id="edge2" class="edge">
<title>u0&#45;&gt;u8</title>
<path fill="none" stroke="black" d="M1090.41,-519.03C1036.09,-477.54 896.5,-370.93 834.32,-323.43"/>
<polygon fill="black" stroke="black" points="836.14,-320.42 826.07,-317.14 831.9,-325.99 836.14,-320.42"/>
</g>
</g>
</svg>
