<?xml version="1.0" encoding="UTF-8" standalone="no"?>
<!DOCTYPE svg PUBLIC "-//W3C//DTD SVG 1.1//EN"
 "http://www.w3.org/Graphics/SVG/1.1/DTD/svg11.dtd">
<!-- Generated by graphviz version 2.43.0 (0)
 -->
<!-- Title: G Pages: 1 -->
<svg width="431pt" height="288pt"
 viewBox="0.00 0.00 431.12 288.00" xmlns="http://www.w3.org/2000/svg" xmlns:xlink="http://www.w3.org/1999/xlink">
<g id="graph0" class="graph" transform="scale(3.95 3.95) rotate(0) translate(4 1134)">
<title>G</title>
<polygon fill="white" stroke="transparent" points="-4,4 -4,-1134 1699.52,-1134 1699.52,4 -4,4"/>
<!-- u7 -->
<g id="node1" class="node">
<title>u7</title>
<ellipse fill="#bbffbb" stroke="black" cx="1268.44" cy="-81" rx="122.38" ry="18"/>
<text text-anchor="middle" x="1268.44" y="-77.3" font-family="Times,serif" font-size="14.00">Drasil.Website.Example</text>
</g>
<!-- u6 -->
<g id="node2" class="node">
<title>u6</title>
<ellipse fill="#bbffbb" stroke="black" cx="151.44" cy="-404" rx="151.37" ry="18"/>
<text text-anchor="middle" x="151.44" y="-400.3" font-family="Times,serif" font-size="14.00">Drasil.Website.GettingStarted</text>
</g>
<!-- u5 -->
<g id="node3" class="node">
<title>u5</title>
<ellipse fill="#bbffbb" stroke="black" cx="441.44" cy="-404" rx="120.48" ry="18"/>
<text text-anchor="middle" x="441.44" y="-400.3" font-family="Times,serif" font-size="14.00">Drasil.Website.Analysis</text>
</g>
<!-- u4 -->
<g id="node4" class="node">
<title>u4</title>
<ellipse fill="#bbffbb" stroke="black" cx="688.44" cy="-404" rx="108.58" ry="18"/>
<text text-anchor="middle" x="688.44" y="-400.3" font-family="Times,serif" font-size="14.00">Drasil.Website.About</text>
</g>
<!-- u3 -->
<g id="node5" class="node">
<title>u3</title>
<ellipse fill="#bbffbb" stroke="black" cx="967.44" cy="-404" rx="152.17" ry="18"/>
<text text-anchor="middle" x="967.44" y="-400.3" font-family="Times,serif" font-size="14.00">Drasil.Website.Documentation</text>
</g>
<!-- u2 -->
<g id="node6" class="node">
<title>u2</title>
<ellipse fill="#bbffbb" stroke="black" cx="1268.44" cy="-404" rx="131.08" ry="18"/>
<text text-anchor="middle" x="1268.44" y="-400.3" font-family="Times,serif" font-size="14.00">Drasil.Website.CaseStudy</text>
</g>
<!-- u2&#45;&gt;u7 -->
<g id="edge7" class="edge">
<title>u2&#45;&gt;u7</title>
<path fill="none" stroke="black" d="M1268.44,-385.74C1268.44,-333.05 1268.44,-173.96 1268.44,-109.54"/>
<polygon fill="black" stroke="black" points="1271.94,-109.34 1268.44,-99.34 1264.94,-109.34 1271.94,-109.34"/>
</g>
<!-- u1 -->
<g id="node7" class="node">
<title>u1</title>
<ellipse fill="#bbffbb" stroke="black" cx="1556.44" cy="-404" rx="139.18" ry="18"/>
<text text-anchor="middle" x="1556.44" y="-400.3" font-family="Times,serif" font-size="14.00">Drasil.Website.Introduction</text>
</g>
<!-- u0 -->
<g id="node8" class="node">
<title>u0</title>
<ellipse fill="#bbffbb" stroke="black" cx="827.44" cy="-726" rx="104.78" ry="18"/>
<text text-anchor="middle" x="827.44" y="-722.3" font-family="Times,serif" font-size="14.00">Drasil.Website.Body</text>
</g>
<!-- u0&#45;&gt;u6 -->
<g id="edge6" class="edge">
<title>u0&#45;&gt;u6</title>
<path fill="none" stroke="black" d="M793.45,-708.91C681.25,-655.8 322.59,-486.02 196.11,-426.15"/>
<polygon fill="black" stroke="black" points="197.24,-422.81 186.71,-421.7 194.25,-429.14 197.24,-422.81"/>
</g>
<!-- u0&#45;&gt;u5 -->
<g id="edge5" class="edge">
<title>u0&#45;&gt;u5</title>
<path fill="none" stroke="black" d="M807.23,-708.25C743.15,-655.12 544.37,-490.33 469.95,-428.64"/>
<polygon fill="black" stroke="black" points="471.84,-425.66 461.91,-421.97 467.38,-431.05 471.84,-425.66"/>
</g>
<!-- u0&#45;&gt;u4 -->
<g id="edge4" class="edge">
<title>u0&#45;&gt;u4</title>
<path fill="none" stroke="black" d="M819.96,-707.8C797.05,-655.05 727.69,-495.37 700.02,-431.66"/>
<polygon fill="black" stroke="black" points="703.14,-430.07 695.95,-422.29 696.72,-432.86 703.14,-430.07"/>
</g>
<!-- u0&#45;&gt;u3 -->
<g id="edge3" class="edge">
<title>u0&#45;&gt;u3</title>
<path fill="none" stroke="black" d="M834.96,-707.8C858.04,-655.05 927.9,-495.37 955.77,-431.66"/>
<polygon fill="black" stroke="black" points="959.07,-432.85 959.87,-422.29 952.66,-430.05 959.07,-432.85"/>
</g>
<!-- u0&#45;&gt;u2 -->
<g id="edge2" class="edge">
<title>u0&#45;&gt;u2</title>
<path fill="none" stroke="black" d="M850.53,-708.25C924.12,-654.85 1153.22,-488.6 1237.19,-427.68"/>
<polygon fill="black" stroke="black" points="1239.27,-430.49 1245.31,-421.78 1235.16,-424.82 1239.27,-430.49"/>
</g>
<!-- u0&#45;&gt;u1 -->
<g id="edge1" class="edge">
<title>u0&#45;&gt;u1</title>
<path fill="none" stroke="black" d="M864.09,-708.91C985.47,-655.63 1374.32,-484.94 1509.55,-425.58"/>
<polygon fill="black" stroke="black" points="1511.09,-428.73 1518.84,-421.5 1508.28,-422.32 1511.09,-428.73"/>
</g>
<!-- u8 -->
<g id="node9" class="node">
<title>u8</title>
<ellipse fill="#ffffbb" stroke="black" cx="827.44" cy="-1049" rx="122.38" ry="18"/>
<text text-anchor="middle" x="827.44" y="-1045.3" font-family="Times,serif" font-size="14.00">drasil&#45;website.app.Main</text>
</g>
<!-- u8&#45;&gt;u0 -->
<g id="edge8" class="edge">
<title>u8&#45;&gt;u0</title>
<path fill="none" stroke="black" d="M827.44,-1030.74C827.44,-978.05 827.44,-818.96 827.44,-754.54"/>
<polygon fill="black" stroke="black" points="830.94,-754.34 827.44,-744.34 823.94,-754.34 830.94,-754.34"/>
</g>
</g>
</svg>
