<?xml version="1.0" encoding="UTF-8" standalone="no"?>
<!DOCTYPE svg PUBLIC "-//W3C//DTD SVG 1.1//EN"
 "http://www.w3.org/Graphics/SVG/1.1/DTD/svg11.dtd">
<!-- Generated by graphviz version 2.43.0 (0)
 -->
<!-- Title: G Pages: 1 -->
<svg width="430pt" height="288pt"
 viewBox="0.00 0.00 430.06 288.00" xmlns="http://www.w3.org/2000/svg" xmlns:xlink="http://www.w3.org/1999/xlink">
<g id="graph0" class="graph" transform="scale(2.05 2.05) rotate(0) translate(4 585.33)">
<title>G</title>
<polygon fill="white" stroke="transparent" points="-4,4 -4,-585.33 876.03,-585.33 876.03,4 -4,4"/>
<!-- u0 -->
<g id="node1" class="node">
<title>u0</title>
<ellipse fill="#bbffbb" stroke="black" cx="421.29" cy="-523" rx="63.89" ry="18"/>
<text text-anchor="middle" x="421.29" y="-519.3" font-family="Times,serif" font-size="14.00">Utils.Drasil</text>
</g>
<!-- u5 -->
<g id="node2" class="node">
<title>u5</title>
<ellipse fill="#ffffbb" stroke="black" cx="92.29" cy="-291" rx="92.08" ry="18"/>
<text text-anchor="middle" x="92.29" y="-287.3" font-family="Times,serif" font-size="14.00">Utils.Drasil.Maps</text>
</g>
<!-- u0&#45;&gt;u5 -->
<g id="edge4" class="edge">
<title>u0&#45;&gt;u5</title>
<path fill="none" stroke="black" d="M398.42,-506.01C340.96,-465.84 190.45,-360.62 124.28,-314.36"/>
<polygon fill="black" stroke="black" points="126.09,-311.36 115.89,-308.5 122.08,-317.1 126.09,-311.36"/>
</g>
<!-- u4 -->
<g id="node3" class="node">
<title>u4</title>
<ellipse fill="#ffffbb" stroke="black" cx="304.29" cy="-291" rx="102.08" ry="18"/>
<text text-anchor="middle" x="304.29" y="-287.3" font-family="Times,serif" font-size="14.00">Utils.Drasil.English</text>
</g>
<!-- u0&#45;&gt;u4 -->
<g id="edge3" class="edge">
<title>u0&#45;&gt;u4</title>
<path fill="none" stroke="black" d="M412.69,-505.09C392.45,-465.29 341.7,-365.53 317.51,-317.98"/>
<polygon fill="black" stroke="black" points="320.56,-316.26 312.91,-308.94 314.32,-319.44 320.56,-316.26"/>
</g>
<!-- u3 -->
<g id="node4" class="node">
<title>u3</title>
<ellipse fill="#ffffbb" stroke="black" cx="538.29" cy="-291" rx="114.28" ry="18"/>
<text text-anchor="middle" x="538.29" y="-287.3" font-family="Times,serif" font-size="14.00">Utils.Drasil.Document</text>
</g>
<!-- u0&#45;&gt;u3 -->
<g id="edge2" class="edge">
<title>u0&#45;&gt;u3</title>
<path fill="none" stroke="black" d="M429.9,-505.09C450.09,-465.39 500.64,-366.02 524.9,-318.33"/>
<polygon fill="black" stroke="black" points="528.1,-319.75 529.52,-309.25 521.86,-316.58 528.1,-319.75"/>
</g>
<!-- u2 -->
<g id="node5" class="node">
<title>u2</title>
<ellipse fill="#ffffbb" stroke="black" cx="771.29" cy="-291" rx="100.98" ry="18"/>
<text text-anchor="middle" x="771.29" y="-287.3" font-family="Times,serif" font-size="14.00">Utils.Drasil.Strings</text>
</g>
<!-- u0&#45;&gt;u2 -->
<g id="edge1" class="edge">
<title>u0&#45;&gt;u2</title>
<path fill="none" stroke="black" d="M445.35,-506.19C506.37,-466.09 667.31,-360.33 737.62,-314.13"/>
<polygon fill="black" stroke="black" points="739.69,-316.95 746.13,-308.54 735.85,-311.1 739.69,-316.95"/>
</g>
<!-- u1 -->
<g id="node6" class="node">
<title>u1</title>
<ellipse fill="#ffffbb" stroke="black" cx="771.29" cy="-58" rx="89.08" ry="18"/>
<text text-anchor="middle" x="771.29" y="-54.3" font-family="Times,serif" font-size="14.00">Utils.Drasil.Lists</text>
</g>
<!-- u2&#45;&gt;u1 -->
<g id="edge5" class="edge">
<title>u2&#45;&gt;u1</title>
<path fill="none" stroke="black" d="M771.29,-272.64C771.29,-232.82 771.29,-134.69 771.29,-86.54"/>
<polygon fill="black" stroke="black" points="774.79,-86.25 771.29,-76.25 767.79,-86.25 774.79,-86.25"/>
</g>
</g>
</svg>
