<?xml version="1.0" encoding="UTF-8" standalone="no"?>
<!DOCTYPE svg PUBLIC "-//W3C//DTD SVG 1.1//EN"
 "http://www.w3.org/Graphics/SVG/1.1/DTD/svg11.dtd">
<!-- Generated by graphviz version 2.43.0 (0)
 -->
<!-- Title: G Pages: 1 -->
<svg width="430pt" height="288pt"
 viewBox="0.00 0.00 430.43 288.00" xmlns="http://www.w3.org/2000/svg" xmlns:xlink="http://www.w3.org/1999/xlink">
<g id="graph0" class="graph" transform="scale(2.05 2.05) rotate(0) translate(4 585.33)">
<title>G</title>
<polygon fill="white" stroke="transparent" points="-4,4 -4,-585.33 876.78,-585.33 876.78,4 -4,4"/>
<!-- u0 -->
<g id="node1" class="node">
<title>u0</title>
<ellipse fill="#bbffbb" stroke="black" cx="426.04" cy="-523" rx="63.89" ry="18"/>
<text text-anchor="middle" x="426.04" y="-519.3" font-family="Times,serif" font-size="14.00">Utils.Drasil</text>
</g>
<!-- u5 -->
<g id="node2" class="node">
<title>u5</title>
<ellipse fill="#ffffbb" stroke="black" cx="102.04" cy="-291" rx="102.08" ry="18"/>
<text text-anchor="middle" x="102.04" y="-287.3" font-family="Times,serif" font-size="14.00">Utils.Drasil.English</text>
</g>
<!-- u0&#45;&gt;u5 -->
<g id="edge4" class="edge">
<title>u0&#45;&gt;u5</title>
<path fill="none" stroke="black" d="M403.52,-506.01C347.07,-465.94 199.42,-361.13 134.02,-314.7"/>
<polygon fill="black" stroke="black" points="135.9,-311.74 125.72,-308.81 131.85,-317.45 135.9,-311.74"/>
</g>
<!-- u4 -->
<g id="node3" class="node">
<title>u4</title>
<ellipse fill="#ffffbb" stroke="black" cx="314.04" cy="-291" rx="92.08" ry="18"/>
<text text-anchor="middle" x="314.04" y="-287.3" font-family="Times,serif" font-size="14.00">Utils.Drasil.Maps</text>
</g>
<!-- u0&#45;&gt;u4 -->
<g id="edge3" class="edge">
<title>u0&#45;&gt;u4</title>
<path fill="none" stroke="black" d="M417.81,-505.09C398.43,-465.29 349.85,-365.53 326.69,-317.98"/>
<polygon fill="black" stroke="black" points="329.81,-316.4 322.29,-308.94 323.52,-319.46 329.81,-316.4"/>
</g>
<!-- u3 -->
<g id="node4" class="node">
<title>u3</title>
<ellipse fill="#ffffbb" stroke="black" cx="539.04" cy="-291" rx="114.28" ry="18"/>
<text text-anchor="middle" x="539.04" y="-287.3" font-family="Times,serif" font-size="14.00">Utils.Drasil.Document</text>
</g>
<!-- u0&#45;&gt;u3 -->
<g id="edge2" class="edge">
<title>u0&#45;&gt;u3</title>
<path fill="none" stroke="black" d="M434.35,-505.09C453.85,-465.39 502.68,-366.02 526.1,-318.33"/>
<polygon fill="black" stroke="black" points="529.3,-319.77 530.57,-309.25 523.02,-316.68 529.3,-319.77"/>
</g>
<!-- u1 -->
<g id="node6" class="node">
<title>u1</title>
<ellipse fill="#ffffbb" stroke="black" cx="772.04" cy="-291" rx="100.98" ry="18"/>
<text text-anchor="middle" x="772.04" y="-287.3" font-family="Times,serif" font-size="14.00">Utils.Drasil.Strings</text>
</g>
<!-- u0&#45;&gt;u1 -->
<g id="edge1" class="edge">
<title>u0&#45;&gt;u1</title>
<path fill="none" stroke="black" d="M449.82,-506.19C510.15,-466.09 669.25,-360.33 738.75,-314.13"/>
<polygon fill="black" stroke="black" points="740.78,-316.99 747.17,-308.54 736.9,-311.16 740.78,-316.99"/>
</g>
<!-- u2 -->
<g id="node5" class="node">
<title>u2</title>
<ellipse fill="#ffffbb" stroke="black" cx="772.04" cy="-58" rx="89.08" ry="18"/>
<text text-anchor="middle" x="772.04" y="-54.3" font-family="Times,serif" font-size="14.00">Utils.Drasil.Lists</text>
</g>
<!-- u1&#45;&gt;u2 -->
<g id="edge5" class="edge">
<title>u1&#45;&gt;u2</title>
<path fill="none" stroke="black" d="M772.04,-272.64C772.04,-232.82 772.04,-134.69 772.04,-86.54"/>
<polygon fill="black" stroke="black" points="775.54,-86.25 772.04,-76.25 768.54,-86.25 775.54,-86.25"/>
</g>
</g>
</svg>
