<?xml version="1.0" encoding="UTF-8" standalone="no"?>
<!DOCTYPE svg PUBLIC "-//W3C//DTD SVG 1.1//EN"
 "http://www.w3.org/Graphics/SVG/1.1/DTD/svg11.dtd">
<!-- Generated by graphviz version 2.43.0 (0)
 -->
<!-- Title: G Pages: 1 -->
<svg width="431pt" height="288pt"
 viewBox="0.00 0.00 431.16 288.00" xmlns="http://www.w3.org/2000/svg" xmlns:xlink="http://www.w3.org/1999/xlink">
<g id="graph0" class="graph" transform="scale(3.95 3.95) rotate(0) translate(4 1134.67)">
<title>G</title>
<polygon fill="white" stroke="transparent" points="-4,4 -4,-1134.67 1700.68,-1134.67 1700.68,4 -4,4"/>
<!-- u8 -->
<g id="node1" class="node">
<title>u8</title>
<ellipse fill="#bbffbb" stroke="black" cx="787.24" cy="-1050" rx="34.39" ry="18"/>
<text text-anchor="middle" x="787.24" y="-1046.3" font-family="Times,serif" font-size="14.00">Main</text>
</g>
<!-- u0 -->
<g id="node9" class="node">
<title>u0</title>
<ellipse fill="#ffffbb" stroke="black" cx="787.24" cy="-727" rx="104.78" ry="18"/>
<text text-anchor="middle" x="787.24" y="-723.3" font-family="Times,serif" font-size="14.00">Drasil.Website.Body</text>
</g>
<!-- u8&#45;&gt;u0 -->
<g id="edge8" class="edge">
<title>u8&#45;&gt;u0</title>
<path fill="none" stroke="black" d="M787.24,-1031.74C787.24,-979.05 787.24,-819.96 787.24,-755.54"/>
<polygon fill="black" stroke="black" points="790.74,-755.34 787.24,-745.34 783.74,-755.34 790.74,-755.34"/>
</g>
<!-- u7 -->
<g id="node2" class="node">
<title>u7</title>
<ellipse fill="#ffffbb" stroke="black" cx="390.24" cy="-81" rx="122.38" ry="18"/>
<text text-anchor="middle" x="390.24" y="-77.3" font-family="Times,serif" font-size="14.00">Drasil.Website.Example</text>
</g>
<!-- u6 -->
<g id="node3" class="node">
<title>u6</title>
<ellipse fill="#ffffbb" stroke="black" cx="120.24" cy="-404" rx="120.48" ry="18"/>
<text text-anchor="middle" x="120.24" y="-400.3" font-family="Times,serif" font-size="14.00">Drasil.Website.Analysis</text>
</g>
<!-- u5 -->
<g id="node4" class="node">
<title>u5</title>
<ellipse fill="#ffffbb" stroke="black" cx="390.24" cy="-404" rx="131.08" ry="18"/>
<text text-anchor="middle" x="390.24" y="-400.3" font-family="Times,serif" font-size="14.00">Drasil.Website.CaseStudy</text>
</g>
<!-- u5&#45;&gt;u7 -->
<g id="edge7" class="edge">
<title>u5&#45;&gt;u7</title>
<path fill="none" stroke="black" d="M390.24,-385.74C390.24,-333.05 390.24,-173.96 390.24,-109.54"/>
<polygon fill="black" stroke="black" points="393.74,-109.34 390.24,-99.34 386.74,-109.34 393.74,-109.34"/>
</g>
<!-- u4 -->
<g id="node5" class="node">
<title>u4</title>
<ellipse fill="#ffffbb" stroke="black" cx="648.24" cy="-404" rx="108.58" ry="18"/>
<text text-anchor="middle" x="648.24" y="-400.3" font-family="Times,serif" font-size="14.00">Drasil.Website.About</text>
</g>
<!-- u3 -->
<g id="node6" class="node">
<title>u3</title>
<ellipse fill="#ffffbb" stroke="black" cx="927.24" cy="-404" rx="152.17" ry="18"/>
<text text-anchor="middle" x="927.24" y="-400.3" font-family="Times,serif" font-size="14.00">Drasil.Website.Documentation</text>
</g>
<!-- u2 -->
<g id="node7" class="node">
<title>u2</title>
<ellipse fill="#ffffbb" stroke="black" cx="1236.24" cy="-404" rx="139.18" ry="18"/>
<text text-anchor="middle" x="1236.24" y="-400.3" font-family="Times,serif" font-size="14.00">Drasil.Website.Introduction</text>
</g>
<!-- u1 -->
<g id="node8" class="node">
<title>u1</title>
<ellipse fill="#ffffbb" stroke="black" cx="1545.24" cy="-404" rx="151.37" ry="18"/>
<text text-anchor="middle" x="1545.24" y="-400.3" font-family="Times,serif" font-size="14.00">Drasil.Website.GettingStarted</text>
</g>
<!-- u0&#45;&gt;u6 -->
<g id="edge6" class="edge">
<title>u0&#45;&gt;u6</title>
<path fill="none" stroke="black" d="M753.71,-709.86C642.74,-656.46 287.47,-485.48 163.45,-425.8"/>
<polygon fill="black" stroke="black" points="164.77,-422.54 154.24,-421.36 161.73,-428.85 164.77,-422.54"/>
</g>
<!-- u0&#45;&gt;u5 -->
<g id="edge5" class="edge">
<title>u0&#45;&gt;u5</title>
<path fill="none" stroke="black" d="M766.45,-709.19C700.42,-655.8 495.27,-489.93 419.1,-428.33"/>
<polygon fill="black" stroke="black" points="421.27,-425.59 411.3,-422.03 416.87,-431.04 421.27,-425.59"/>
</g>
<!-- u0&#45;&gt;u4 -->
<g id="edge4" class="edge">
<title>u0&#45;&gt;u4</title>
<path fill="none" stroke="black" d="M779.77,-708.74C756.86,-655.84 687.49,-495.65 659.82,-431.74"/>
<polygon fill="black" stroke="black" points="662.94,-430.13 655.75,-422.34 656.51,-432.91 662.94,-430.13"/>
</g>
<!-- u0&#45;&gt;u3 -->
<g id="edge3" class="edge">
<title>u0&#45;&gt;u3</title>
<path fill="none" stroke="black" d="M794.77,-708.74C817.84,-655.84 887.7,-495.65 915.58,-431.74"/>
<polygon fill="black" stroke="black" points="918.89,-432.91 919.68,-422.34 912.47,-430.11 918.89,-432.91"/>
</g>
<!-- u0&#45;&gt;u2 -->
<g id="edge2" class="edge">
<title>u0&#45;&gt;u2</title>
<path fill="none" stroke="black" d="M810.43,-709.42C885,-656.11 1118.69,-489.04 1204.35,-427.8"/>
<polygon fill="black" stroke="black" points="1206.54,-430.53 1212.64,-421.87 1202.47,-424.84 1206.54,-430.53"/>
</g>
<!-- u0&#45;&gt;u1 -->
<g id="edge1" class="edge">
<title>u0&#45;&gt;u1</title>
<path fill="none" stroke="black" d="M824.83,-710.08C950.54,-656.84 1356.29,-485.02 1496.81,-425.51"/>
<polygon fill="black" stroke="black" points="1498.22,-428.71 1506.06,-421.59 1495.49,-422.27 1498.22,-428.71"/>
</g>
</g>
</svg>
