<?xml version="1.0" encoding="UTF-8" standalone="no"?>
<!DOCTYPE svg PUBLIC "-//W3C//DTD SVG 1.1//EN"
 "http://www.w3.org/Graphics/SVG/1.1/DTD/svg11.dtd">
<!-- Generated by graphviz version 2.43.0 (0)
 -->
<!-- Title: G Pages: 1 -->
<svg width="430pt" height="288pt"
 viewBox="0.00 0.00 429.83 288.00" xmlns="http://www.w3.org/2000/svg" xmlns:xlink="http://www.w3.org/1999/xlink">
<g id="graph0" class="graph" transform="scale(0.63 0.63) rotate(0) translate(4 456.67)">
<title>G</title>
<polygon fill="white" stroke="transparent" points="-4,4 -4,-456.67 683.53,-456.67 683.53,4 -4,4"/>
<!-- u0 -->
<g id="node1" class="node">
<title>u0</title>
<ellipse fill="#bbffbb" stroke="black" cx="434.14" cy="-428" rx="85.29" ry="18"/>
<text text-anchor="middle" x="434.14" y="-424.3" font-family="Times,serif" font-size="14.00">Drasil.Database</text>
</g>
<!-- u6 -->
<g id="node2" class="node">
<title>u6</title>
<ellipse fill="#ffffbb" stroke="black" cx="150.14" cy="-327" rx="150.27" ry="18"/>
<text text-anchor="middle" x="150.14" y="-323.3" font-family="Times,serif" font-size="14.00">Drasil.Database.TypedUIDRef</text>
</g>
<!-- u0&#45;&gt;u6 -->
<g id="edge3" class="edge">
<title>u0&#45;&gt;u6</title>
<path fill="none" stroke="black" d="M391.93,-412.29C342.66,-395.11 260.98,-366.64 206.37,-347.6"/>
<polygon fill="black" stroke="black" points="207.43,-344.27 196.84,-344.28 205.13,-350.88 207.43,-344.27"/>
</g>
<!-- u3 -->
<g id="node5" class="node">
<title>u3</title>
<ellipse fill="#ffffbb" stroke="black" cx="578.14" cy="-226" rx="101.28" ry="18"/>
<text text-anchor="middle" x="578.14" y="-222.3" font-family="Times,serif" font-size="14.00">Drasil.Database.TH</text>
</g>
<!-- u0&#45;&gt;u3 -->
<g id="edge2" class="edge">
<title>u0&#45;&gt;u3</title>
<path fill="none" stroke="black" d="M472.72,-411.93C501.29,-398.7 538.67,-376.58 559.14,-345 576.81,-317.73 579.97,-279.66 579.76,-254.21"/>
<polygon fill="black" stroke="black" points="583.26,-254.05 579.5,-244.14 576.26,-254.23 583.26,-254.05"/>
</g>
<!-- u2 -->
<g id="node6" class="node">
<title>u2</title>
<ellipse fill="#ffffbb" stroke="black" cx="434.14" cy="-327" rx="115.88" ry="18"/>
<text text-anchor="middle" x="434.14" y="-323.3" font-family="Times,serif" font-size="14.00">Drasil.Database.Dump</text>
</g>
<!-- u0&#45;&gt;u2 -->
<g id="edge1" class="edge">
<title>u0&#45;&gt;u2</title>
<path fill="none" stroke="black" d="M434.14,-409.76C434.14,-394.71 434.14,-372.62 434.14,-355.19"/>
<polygon fill="black" stroke="black" points="437.64,-355.05 434.14,-345.05 430.64,-355.05 437.64,-355.05"/>
</g>
<!-- u1 -->
<g id="node7" class="node">
<title>u1</title>
<ellipse fill="#ffffbb" stroke="black" cx="327.14" cy="-226" rx="131.88" ry="18"/>
<text text-anchor="middle" x="327.14" y="-222.3" font-family="Times,serif" font-size="14.00">Drasil.Database.ChunkDB</text>
</g>
<!-- u6&#45;&gt;u1 -->
<g id="edge8" class="edge">
<title>u6&#45;&gt;u1</title>
<path fill="none" stroke="black" d="M180.16,-309.21C210.09,-292.46 256.18,-266.69 288.75,-248.47"/>
<polygon fill="black" stroke="black" points="290.54,-251.48 297.55,-243.55 287.12,-245.37 290.54,-251.48"/>
</g>
<!-- u5 -->
<g id="node3" class="node">
<title>u5</title>
<ellipse fill="#ffffbb" stroke="black" cx="452.14" cy="-126" rx="117.78" ry="18"/>
<text text-anchor="middle" x="452.14" y="-122.3" font-family="Times,serif" font-size="14.00">Drasil.Database.Chunk</text>
</g>
<!-- u4 -->
<g id="node4" class="node">
<title>u4</title>
<ellipse fill="#ffffbb" stroke="black" cx="452.14" cy="-25" rx="106.68" ry="18"/>
<text text-anchor="middle" x="452.14" y="-21.3" font-family="Times,serif" font-size="14.00">Drasil.Database.UID</text>
</g>
<!-- u5&#45;&gt;u4 -->
<g id="edge7" class="edge">
<title>u5&#45;&gt;u4</title>
<path fill="none" stroke="black" d="M452.14,-107.76C452.14,-92.71 452.14,-70.62 452.14,-53.19"/>
<polygon fill="black" stroke="black" points="455.64,-53.05 452.14,-43.05 448.64,-53.05 455.64,-53.05"/>
</g>
<!-- u3&#45;&gt;u5 -->
<g id="edge6" class="edge">
<title>u3&#45;&gt;u5</title>
<path fill="none" stroke="black" d="M556.76,-208.38C536.13,-192.33 504.71,-167.89 481.68,-149.98"/>
<polygon fill="black" stroke="black" points="483.66,-147.08 473.62,-143.71 479.36,-152.61 483.66,-147.08"/>
</g>
<!-- u2&#45;&gt;u1 -->
<g id="edge5" class="edge">
<title>u2&#45;&gt;u1</title>
<path fill="none" stroke="black" d="M415.99,-309.21C398.62,-293.13 372.25,-268.74 352.74,-250.69"/>
<polygon fill="black" stroke="black" points="355.09,-248.1 345.38,-243.88 350.34,-253.24 355.09,-248.1"/>
</g>
<!-- u1&#45;&gt;u5 -->
<g id="edge4" class="edge">
<title>u1&#45;&gt;u5</title>
<path fill="none" stroke="black" d="M348.62,-208.15C369.02,-192.17 399.84,-168 422.55,-150.2"/>
<polygon fill="black" stroke="black" points="424.8,-152.88 430.51,-143.95 420.48,-147.37 424.8,-152.88"/>
</g>
</g>
</svg>
