<?xml version="1.0" encoding="UTF-8" standalone="no"?>
<!DOCTYPE svg PUBLIC "-//W3C//DTD SVG 1.1//EN"
 "http://www.w3.org/Graphics/SVG/1.1/DTD/svg11.dtd">
<!-- Generated by graphviz version 2.43.0 (0)
 -->
<!-- Title: G Pages: 1 -->
<svg width="432pt" height="282pt"
 viewBox="0.00 0.00 432.00 282.14" xmlns="http://www.w3.org/2000/svg" xmlns:xlink="http://www.w3.org/1999/xlink">
<g id="graph0" class="graph" transform="scale(0.1 0.1) rotate(0) translate(4 2869.33)">
<title>G</title>
<polygon fill="white" stroke="transparent" points="-4,4 -4,-2869.33 4395.55,-2869.33 4395.55,4 -4,4"/>
<!-- u28 -->
<g id="node1" class="node">
<title>u28</title>
<ellipse fill="#bbffbb" stroke="black" cx="2703.21" cy="-2781" rx="108.58" ry="18"/>
<text text-anchor="middle" x="2703.21" y="-2777.3" font-family="Times,serif" font-size="14.00">Drasil.SRSDocument</text>
</g>
<!-- u12 -->
<g id="node6" class="node">
<title>u12</title>
<ellipse fill="#bbffbb" stroke="black" cx="2703.21" cy="-2444" rx="81.79" ry="18"/>
<text text-anchor="middle" x="2703.21" y="-2440.3" font-family="Times,serif" font-size="14.00">Drasil.DocLang</text>
</g>
<!-- u28&#45;&gt;u12 -->
<g id="edge56" class="edge">
<title>u28&#45;&gt;u12</title>
<path fill="none" stroke="black" d="M2703.21,-2762.93C2703.21,-2708.49 2703.21,-2538.71 2703.21,-2472.16"/>
<polygon fill="black" stroke="black" points="2706.71,-2472.04 2703.21,-2462.04 2699.71,-2472.04 2706.71,-2472.04"/>
</g>
<!-- u27 -->
<g id="node2" class="node">
<title>u27</title>
<ellipse fill="#bbffbb" stroke="black" cx="1364.21" cy="-1770" rx="116.18" ry="18"/>
<text text-anchor="middle" x="1364.21" y="-1766.3" font-family="Times,serif" font-size="14.00">Drasil.ExtractDocDesc</text>
</g>
<!-- u19 -->
<g id="node12" class="node">
<title>u19</title>
<ellipse fill="#bbbbff" stroke="black" cx="399.21" cy="-1096" rx="159.47" ry="18"/>
<text text-anchor="middle" x="399.21" y="-1092.3" font-family="Times,serif" font-size="14.00">Drasil.DocumentLanguage.Core</text>
</g>
<!-- u27&#45;&gt;u19 -->
<g id="edge55" class="edge">
<title>u27&#45;&gt;u19</title>
<path fill="none" stroke="black" d="M1267,-1759.99C994.21,-1732.5 231.87,-1639.83 84.21,-1451 -19.44,-1318.45 243.63,-1171.73 353.58,-1118.09"/>
<polygon fill="black" stroke="black" points="355.31,-1121.15 362.79,-1113.64 352.26,-1114.84 355.31,-1121.15"/>
</g>
<!-- u7 -->
<g id="node22" class="node">
<title>u7</title>
<ellipse fill="#bbffff" stroke="black" cx="1635.21" cy="-1433" rx="207.96" ry="18"/>
<text text-anchor="middle" x="1635.21" y="-1429.3" font-family="Times,serif" font-size="14.00">Drasil.Sections.SpecificSystemDescription</text>
</g>
<!-- u27&#45;&gt;u7 -->
<g id="edge54" class="edge">
<title>u27&#45;&gt;u7</title>
<path fill="none" stroke="black" d="M1378.02,-1751.93C1422.51,-1696.93 1562.24,-1524.2 1614.88,-1459.13"/>
<polygon fill="black" stroke="black" points="1617.86,-1461.01 1621.43,-1451.04 1612.42,-1456.61 1617.86,-1461.01"/>
</g>
<!-- u26 -->
<g id="node3" class="node">
<title>u26</title>
<ellipse fill="#bbffbb" stroke="black" cx="887.21" cy="-1770" rx="79.09" ry="18"/>
<text text-anchor="middle" x="887.21" y="-1766.3" font-family="Times,serif" font-size="14.00">Drasil.DocDecl</text>
</g>
<!-- u26&#45;&gt;u19 -->
<g id="edge53" class="edge">
<title>u26&#45;&gt;u19</title>
<path fill="none" stroke="black" d="M809.04,-1766.66C637.05,-1756.76 227.18,-1706.2 51.21,-1451 -48.34,-1306.62 230.25,-1168.1 348.73,-1117.35"/>
<polygon fill="black" stroke="black" points="350.15,-1120.55 357.99,-1113.42 347.42,-1114.1 350.15,-1120.55"/>
</g>
<!-- u8 -->
<g id="node21" class="node">
<title>u8</title>
<ellipse fill="#bbffff" stroke="black" cx="887.21" cy="-1433" rx="149.47" ry="18"/>
<text text-anchor="middle" x="887.21" y="-1429.3" font-family="Times,serif" font-size="14.00">Drasil.Sections.Requirements</text>
</g>
<!-- u26&#45;&gt;u8 -->
<g id="edge52" class="edge">
<title>u26&#45;&gt;u8</title>
<path fill="none" stroke="black" d="M887.21,-1751.93C887.21,-1697.49 887.21,-1527.71 887.21,-1461.16"/>
<polygon fill="black" stroke="black" points="890.71,-1461.04 887.21,-1451.04 883.71,-1461.04 890.71,-1461.04"/>
</g>
<!-- u25 -->
<g id="node4" class="node">
<title>u25</title>
<ellipse fill="#bbffbb" stroke="black" cx="343.21" cy="-1770" rx="92.08" ry="18"/>
<text text-anchor="middle" x="343.21" y="-1766.3" font-family="Times,serif" font-size="14.00">Drasil.TraceTable</text>
</g>
<!-- u25&#45;&gt;u19 -->
<g id="edge51" class="edge">
<title>u25&#45;&gt;u19</title>
<path fill="none" stroke="black" d="M305.99,-1753.48C205.01,-1708.94 -61.63,-1573.62 13.21,-1415 84.54,-1263.81 266.91,-1160.17 352.95,-1118.07"/>
<polygon fill="black" stroke="black" points="354.73,-1121.1 362.21,-1113.59 351.69,-1114.79 354.73,-1121.1"/>
</g>
<!-- u13 -->
<g id="node5" class="node">
<title>u13</title>
<ellipse fill="#bbffbb" stroke="black" cx="2386.21" cy="-2107" rx="133.78" ry="18"/>
<text text-anchor="middle" x="2386.21" y="-2103.3" font-family="Times,serif" font-size="14.00">Drasil.DocumentLanguage</text>
</g>
<!-- u13&#45;&gt;u27 -->
<g id="edge34" class="edge">
<title>u13&#45;&gt;u27</title>
<path fill="none" stroke="black" d="M2337.95,-2090.18C2168.75,-2034.72 1602.92,-1849.25 1421.03,-1789.63"/>
<polygon fill="black" stroke="black" points="1421.98,-1786.25 1411.39,-1786.46 1419.8,-1792.91 1421.98,-1786.25"/>
</g>
<!-- u13&#45;&gt;u26 -->
<g id="edge33" class="edge">
<title>u13&#45;&gt;u26</title>
<path fill="none" stroke="black" d="M2320.35,-2091.28C2072.34,-2035.86 1196.35,-1840.09 951.32,-1785.33"/>
<polygon fill="black" stroke="black" points="952.02,-1781.9 941.5,-1783.13 950.49,-1788.73 952.02,-1781.9"/>
</g>
<!-- u13&#45;&gt;u25 -->
<g id="edge32" class="edge">
<title>u13&#45;&gt;u25</title>
<path fill="none" stroke="black" d="M2304.86,-2092.66C1975.77,-2038.7 745.29,-1836.93 421.62,-1783.86"/>
<polygon fill="black" stroke="black" points="421.84,-1780.35 411.4,-1782.18 420.7,-1787.25 421.84,-1780.35"/>
</g>
<!-- u15 -->
<g id="node8" class="node">
<title>u15</title>
<ellipse fill="#ffffbb" stroke="black" cx="1635.21" cy="-1770" rx="136.48" ry="18"/>
<text text-anchor="middle" x="1635.21" y="-1766.3" font-family="Times,serif" font-size="14.00">Drasil.DocLang.References</text>
</g>
<!-- u13&#45;&gt;u15 -->
<g id="edge30" class="edge">
<title>u13&#45;&gt;u15</title>
<path fill="none" stroke="black" d="M2349.48,-2089.62C2224.96,-2034.07 1818.93,-1852.95 1681.31,-1791.56"/>
<polygon fill="black" stroke="black" points="1682.43,-1788.23 1671.87,-1787.35 1679.58,-1794.62 1682.43,-1788.23"/>
</g>
<!-- u17 -->
<g id="node14" class="node">
<title>u17</title>
<ellipse fill="#bbbbff" stroke="black" cx="2261.21" cy="-1770" rx="220.96" ry="18"/>
<text text-anchor="middle" x="2261.21" y="-1766.3" font-family="Times,serif" font-size="14.00">Drasil.DocumentLanguage.TraceabilityGraph</text>
</g>
<!-- u13&#45;&gt;u17 -->
<g id="edge31" class="edge">
<title>u13&#45;&gt;u17</title>
<path fill="none" stroke="black" d="M2379.84,-2088.93C2359.49,-2034.38 2295.92,-1864.01 2271.19,-1797.75"/>
<polygon fill="black" stroke="black" points="2274.34,-1796.18 2267.57,-1788.04 2267.79,-1798.63 2274.34,-1796.18"/>
</g>
<!-- u11 -->
<g id="node18" class="node">
<title>u11</title>
<ellipse fill="#bbffff" stroke="black" cx="3545.21" cy="-1433" rx="141.88" ry="18"/>
<text text-anchor="middle" x="3545.21" y="-1429.3" font-family="Times,serif" font-size="14.00">Drasil.Sections.Introduction</text>
</g>
<!-- u13&#45;&gt;u11 -->
<g id="edge29" class="edge">
<title>u13&#45;&gt;u11</title>
<path fill="none" stroke="black" d="M2414.86,-2089.39C2572.13,-1998.2 3329.9,-1558.84 3507.78,-1455.7"/>
<polygon fill="black" stroke="black" points="3509.63,-1458.68 3516.53,-1450.63 3506.12,-1452.62 3509.63,-1458.68"/>
</g>
<!-- u9 -->
<g id="node20" class="node">
<title>u9</title>
<ellipse fill="#bbffff" stroke="black" cx="2480.21" cy="-1433" rx="161.37" ry="18"/>
<text text-anchor="middle" x="2480.21" y="-1429.3" font-family="Times,serif" font-size="14.00">Drasil.Sections.TableOfContents</text>
</g>
<!-- u13&#45;&gt;u9 -->
<g id="edge28" class="edge">
<title>u13&#45;&gt;u9</title>
<path fill="none" stroke="black" d="M2394.03,-2088.91C2414.97,-2042.05 2472.06,-1907.11 2491.21,-1788 2510.61,-1667.41 2493.28,-1520.83 2484.54,-1461.19"/>
<polygon fill="black" stroke="black" points="2487.97,-1460.46 2483.02,-1451.1 2481.05,-1461.51 2487.97,-1460.46"/>
</g>
<!-- u6 -->
<g id="node23" class="node">
<title>u6</title>
<ellipse fill="#bbffff" stroke="black" cx="2822.21" cy="-1433" rx="163.27" ry="18"/>
<text text-anchor="middle" x="2822.21" y="-1429.3" font-family="Times,serif" font-size="14.00">Drasil.Sections.GeneralSystDesc</text>
</g>
<!-- u13&#45;&gt;u6 -->
<g id="edge27" class="edge">
<title>u13&#45;&gt;u6</title>
<path fill="none" stroke="black" d="M2397.21,-2089.05C2456.11,-1998.27 2734.25,-1569.57 2805.53,-1459.7"/>
<polygon fill="black" stroke="black" points="2808.54,-1461.5 2811.05,-1451.21 2802.67,-1457.69 2808.54,-1461.5"/>
</g>
<!-- u2 -->
<g id="node27" class="node">
<title>u2</title>
<ellipse fill="#bbffff" stroke="black" cx="3423.21" cy="-1770" rx="144.87" ry="18"/>
<text text-anchor="middle" x="3423.21" y="-1766.3" font-family="Times,serif" font-size="14.00">Drasil.Sections.Stakeholders</text>
</g>
<!-- u13&#45;&gt;u2 -->
<g id="edge26" class="edge">
<title>u13&#45;&gt;u2</title>
<path fill="none" stroke="black" d="M2435.18,-2090.18C2606.46,-2034.85 3178.28,-1850.13 3364.23,-1790.05"/>
<polygon fill="black" stroke="black" points="3365.4,-1793.35 3373.84,-1786.95 3363.25,-1786.69 3365.4,-1793.35"/>
</g>
<!-- u12&#45;&gt;u13 -->
<g id="edge24" class="edge">
<title>u12&#45;&gt;u13</title>
<path fill="none" stroke="black" d="M2687.06,-2425.93C2634.8,-2370.71 2470.23,-2196.79 2409.24,-2132.34"/>
<polygon fill="black" stroke="black" points="2411.75,-2129.9 2402.34,-2125.04 2406.67,-2134.71 2411.75,-2129.9"/>
</g>
<!-- u22 -->
<g id="node16" class="node">
<title>u22</title>
<ellipse fill="#ffbbbb" stroke="black" cx="3893.21" cy="-2107" rx="276.75" ry="18"/>
<text text-anchor="middle" x="3893.21" y="-2103.3" font-family="Times,serif" font-size="14.00">Drasil.DocumentLanguage.Notebook.DocumentLanguage</text>
</g>
<!-- u12&#45;&gt;u22 -->
<g id="edge25" class="edge">
<title>u12&#45;&gt;u22</title>
<path fill="none" stroke="black" d="M2751.71,-2429.35C2937.89,-2376.93 3607.29,-2188.49 3824.58,-2127.32"/>
<polygon fill="black" stroke="black" points="3825.59,-2130.67 3834.27,-2124.59 3823.7,-2123.93 3825.59,-2130.67"/>
</g>
<!-- u16 -->
<g id="node7" class="node">
<title>u16</title>
<ellipse fill="#ffffbb" stroke="black" cx="2877.21" cy="-1096" rx="104.78" ry="18"/>
<text text-anchor="middle" x="2877.21" y="-1092.3" font-family="Times,serif" font-size="14.00">Drasil.DocLang.SRS</text>
</g>
<!-- u10 -->
<g id="node19" class="node">
<title>u10</title>
<ellipse fill="#bbffff" stroke="black" cx="3175.21" cy="-1433" rx="172.47" ry="18"/>
<text text-anchor="middle" x="3175.21" y="-1429.3" font-family="Times,serif" font-size="14.00">Drasil.Sections.AuxiliaryConstants</text>
</g>
<!-- u15&#45;&gt;u10 -->
<g id="edge41" class="edge">
<title>u15&#45;&gt;u10</title>
<path fill="none" stroke="black" d="M1702.87,-1754.28C1952.76,-1699.92 2823.2,-1510.57 3094.1,-1451.64"/>
<polygon fill="black" stroke="black" points="3095.22,-1454.98 3104.25,-1449.44 3093.73,-1448.14 3095.22,-1454.98"/>
</g>
<!-- u15&#45;&gt;u8 -->
<g id="edge40" class="edge">
<title>u15&#45;&gt;u8</title>
<path fill="none" stroke="black" d="M1598.63,-1752.62C1474.74,-1697.13 1071.13,-1516.37 933.6,-1454.78"/>
<polygon fill="black" stroke="black" points="934.72,-1451.44 924.17,-1450.55 931.86,-1457.83 934.72,-1451.44"/>
</g>
<!-- u15&#45;&gt;u7 -->
<g id="edge39" class="edge">
<title>u15&#45;&gt;u7</title>
<path fill="none" stroke="black" d="M1635.21,-1751.93C1635.21,-1697.49 1635.21,-1527.71 1635.21,-1461.16"/>
<polygon fill="black" stroke="black" points="1638.71,-1461.04 1635.21,-1451.04 1631.71,-1461.04 1638.71,-1461.04"/>
</g>
<!-- u5 -->
<g id="node24" class="node">
<title>u5</title>
<ellipse fill="#bbffff" stroke="black" cx="2062.21" cy="-1433" rx="201.46" ry="18"/>
<text text-anchor="middle" x="2062.21" y="-1429.3" font-family="Times,serif" font-size="14.00">Drasil.Sections.TableOfAbbAndAcronyms</text>
</g>
<!-- u15&#45;&gt;u5 -->
<g id="edge38" class="edge">
<title>u15&#45;&gt;u5</title>
<path fill="none" stroke="black" d="M1656.68,-1752.16C1727.01,-1696.98 1950.61,-1521.55 2032.12,-1457.61"/>
<polygon fill="black" stroke="black" points="2034.74,-1460 2040.45,-1451.08 2030.42,-1454.49 2034.74,-1460"/>
</g>
<!-- u3 -->
<g id="node26" class="node">
<title>u3</title>
<ellipse fill="#bbffff" stroke="black" cx="238.21" cy="-1433" rx="144.87" ry="18"/>
<text text-anchor="middle" x="238.21" y="-1429.3" font-family="Times,serif" font-size="14.00">Drasil.Sections.TableOfUnits</text>
</g>
<!-- u15&#45;&gt;u3 -->
<g id="edge37" class="edge">
<title>u15&#45;&gt;u3</title>
<path fill="none" stroke="black" d="M1572.47,-1753.95C1343.89,-1699.14 556.3,-1510.28 311.44,-1451.56"/>
<polygon fill="black" stroke="black" points="312.12,-1448.12 301.58,-1449.19 310.48,-1454.93 312.12,-1448.12"/>
</g>
<!-- u1 -->
<g id="node28" class="node">
<title>u1</title>
<ellipse fill="#bbffff" stroke="black" cx="1232.21" cy="-1433" rx="177.37" ry="18"/>
<text text-anchor="middle" x="1232.21" y="-1429.3" font-family="Times,serif" font-size="14.00">Drasil.Sections.TraceabilityMandGs</text>
</g>
<!-- u15&#45;&gt;u1 -->
<g id="edge36" class="edge">
<title>u15&#45;&gt;u1</title>
<path fill="none" stroke="black" d="M1614.95,-1752.16C1548.58,-1696.98 1337.54,-1521.55 1260.61,-1457.61"/>
<polygon fill="black" stroke="black" points="1262.68,-1454.78 1252.75,-1451.08 1258.21,-1460.16 1262.68,-1454.78"/>
</g>
<!-- u0 -->
<g id="node29" class="node">
<title>u0</title>
<ellipse fill="#bbffff" stroke="black" cx="560.21" cy="-1433" rx="159.47" ry="18"/>
<text text-anchor="middle" x="560.21" y="-1429.3" font-family="Times,serif" font-size="14.00">Drasil.Sections.TableOfSymbols</text>
</g>
<!-- u15&#45;&gt;u0 -->
<g id="edge35" class="edge">
<title>u15&#45;&gt;u0</title>
<path fill="none" stroke="black" d="M1584.45,-1753.18C1406.91,-1697.85 814.21,-1513.15 621.4,-1453.07"/>
<polygon fill="black" stroke="black" points="622.29,-1449.68 611.71,-1450.05 620.21,-1456.36 622.29,-1449.68"/>
</g>
<!-- u14 -->
<g id="node9" class="node">
<title>u14</title>
<ellipse fill="#ffffbb" stroke="black" cx="4262.21" cy="-1770" rx="129.18" ry="18"/>
<text text-anchor="middle" x="4262.21" y="-1766.3" font-family="Times,serif" font-size="14.00">Drasil.DocLang.Notebook</text>
</g>
<!-- u24 -->
<g id="node10" class="node">
<title>u24</title>
<ellipse fill="#bbbbff" stroke="black" cx="1635.21" cy="-421" rx="187.37" ry="18"/>
<text text-anchor="middle" x="1635.21" y="-417.3" font-family="Times,serif" font-size="14.00">Drasil.DocumentLanguage.Definitions</text>
</g>
<!-- u18 -->
<g id="node13" class="node">
<title>u18</title>
<ellipse fill="#bbbbff" stroke="black" cx="1635.21" cy="-84" rx="162.47" ry="18"/>
<text text-anchor="middle" x="1635.21" y="-80.3" font-family="Times,serif" font-size="14.00">Drasil.DocumentLanguage.Units</text>
</g>
<!-- u24&#45;&gt;u18 -->
<g id="edge50" class="edge">
<title>u24&#45;&gt;u18</title>
<path fill="none" stroke="black" d="M1635.21,-402.93C1635.21,-348.49 1635.21,-178.71 1635.21,-112.16"/>
<polygon fill="black" stroke="black" points="1638.71,-112.04 1635.21,-102.04 1631.71,-112.04 1638.71,-112.04"/>
</g>
<!-- u20 -->
<g id="node11" class="node">
<title>u20</title>
<ellipse fill="#bbbbff" stroke="black" cx="551.21" cy="-758" rx="223.66" ry="18"/>
<text text-anchor="middle" x="551.21" y="-754.3" font-family="Times,serif" font-size="14.00">Drasil.DocumentLanguage.TraceabilityMatrix</text>
</g>
<!-- u20&#45;&gt;u24 -->
<g id="edge46" class="edge">
<title>u20&#45;&gt;u24</title>
<path fill="none" stroke="black" d="M604.6,-740.5C785.96,-684.45 1377.94,-501.51 1572.57,-441.36"/>
<polygon fill="black" stroke="black" points="1573.83,-444.63 1582.35,-438.34 1571.77,-437.94 1573.83,-444.63"/>
</g>
<!-- u19&#45;&gt;u20 -->
<g id="edge45" class="edge">
<title>u19&#45;&gt;u20</title>
<path fill="none" stroke="black" d="M406.96,-1077.88C431.76,-1023.05 509.33,-851.59 539.26,-785.42"/>
<polygon fill="black" stroke="black" points="542.55,-786.64 543.48,-776.09 536.17,-783.76 542.55,-786.64"/>
</g>
<!-- u17&#45;&gt;u16 -->
<g id="edge44" class="edge">
<title>u17&#45;&gt;u16</title>
<path fill="none" stroke="black" d="M2368.46,-1754.21C2620,-1717.1 3235.78,-1611.38 3356.21,-1451 3483.09,-1282.03 3102.21,-1157.26 2943.34,-1113.78"/>
<polygon fill="black" stroke="black" points="2944.23,-1110.4 2933.66,-1111.16 2942.4,-1117.15 2944.23,-1110.4"/>
</g>
<!-- u4 -->
<g id="node25" class="node">
<title>u4</title>
<ellipse fill="#bbffff" stroke="black" cx="2062.21" cy="-1096" rx="170.07" ry="18"/>
<text text-anchor="middle" x="2062.21" y="-1092.3" font-family="Times,serif" font-size="14.00">Drasil.Sections.ReferenceMaterial</text>
</g>
<!-- u17&#45;&gt;u4 -->
<g id="edge43" class="edge">
<title>u17&#45;&gt;u4</title>
<path fill="none" stroke="black" d="M2265.48,-1751.92C2277.71,-1699.93 2309.63,-1539.55 2272.21,-1415 2235.08,-1291.4 2132.61,-1171.53 2085.93,-1121.47"/>
<polygon fill="black" stroke="black" points="2088.34,-1118.92 2078.94,-1114.04 2083.25,-1123.72 2088.34,-1118.92"/>
</g>
<!-- u17&#45;&gt;u1 -->
<g id="edge42" class="edge">
<title>u17&#45;&gt;u1</title>
<path fill="none" stroke="black" d="M2210.18,-1752.39C2037.68,-1696.23 1476.74,-1513.61 1291.89,-1453.43"/>
<polygon fill="black" stroke="black" points="1292.93,-1450.09 1282.33,-1450.32 1290.76,-1456.74 1292.93,-1450.09"/>
</g>
<!-- u23 -->
<g id="node15" class="node">
<title>u23</title>
<ellipse fill="#ffbbbb" stroke="black" cx="3949.21" cy="-1433" rx="206.06" ry="18"/>
<text text-anchor="middle" x="3949.21" y="-1429.3" font-family="Times,serif" font-size="14.00">Drasil.DocumentLanguage.Notebook.Core</text>
</g>
<!-- u22&#45;&gt;u14 -->
<g id="edge48" class="edge">
<title>u22&#45;&gt;u14</title>
<path fill="none" stroke="black" d="M3912.02,-2088.93C3972.97,-2033.59 4165.19,-1859.08 4235.83,-1794.95"/>
<polygon fill="black" stroke="black" points="4238.39,-1797.35 4243.44,-1788.04 4233.69,-1792.17 4238.39,-1797.35"/>
</g>
<!-- u21 -->
<g id="node17" class="node">
<title>u21</title>
<ellipse fill="#ffbbbb" stroke="black" cx="3893.21" cy="-1770" rx="221.76" ry="18"/>
<text text-anchor="middle" x="3893.21" y="-1766.3" font-family="Times,serif" font-size="14.00">Drasil.DocumentLanguage.Notebook.LsnDecl</text>
</g>
<!-- u22&#45;&gt;u21 -->
<g id="edge49" class="edge">
<title>u22&#45;&gt;u21</title>
<path fill="none" stroke="black" d="M3893.21,-2088.93C3893.21,-2034.49 3893.21,-1864.71 3893.21,-1798.16"/>
<polygon fill="black" stroke="black" points="3896.71,-1798.04 3893.21,-1788.04 3889.71,-1798.04 3896.71,-1798.04"/>
</g>
<!-- u21&#45;&gt;u23 -->
<g id="edge47" class="edge">
<title>u21&#45;&gt;u23</title>
<path fill="none" stroke="black" d="M3896.07,-1751.93C3905.17,-1697.49 3933.55,-1527.71 3944.67,-1461.16"/>
<polygon fill="black" stroke="black" points="3948.17,-1461.48 3946.36,-1451.04 3941.26,-1460.32 3948.17,-1461.48"/>
</g>
<!-- u11&#45;&gt;u16 -->
<g id="edge22" class="edge">
<title>u11&#45;&gt;u16</title>
<path fill="none" stroke="black" d="M3512.09,-1415.39C3400.99,-1359.67 3041.73,-1179.5 2918.86,-1117.89"/>
<polygon fill="black" stroke="black" points="2920.26,-1114.67 2909.75,-1113.32 2917.12,-1120.93 2920.26,-1114.67"/>
</g>
<!-- u11&#45;&gt;u24 -->
<g id="edge23" class="edge">
<title>u11&#45;&gt;u24</title>
<path fill="none" stroke="black" d="M3521.27,-1415.25C3445.46,-1362.52 3203.19,-1196.46 2991.21,-1078 2493.56,-799.9 1860.21,-519.76 1683.1,-442.7"/>
<polygon fill="black" stroke="black" points="1684.36,-439.43 1673.8,-438.65 1681.57,-445.85 1684.36,-439.43"/>
</g>
<!-- u11&#45;&gt;u4 -->
<g id="edge21" class="edge">
<title>u11&#45;&gt;u4</title>
<path fill="none" stroke="black" d="M3479.09,-1417.06C3237.27,-1362.44 2401.45,-1173.63 2140.6,-1114.71"/>
<polygon fill="black" stroke="black" points="2141.36,-1111.29 2130.83,-1112.5 2139.81,-1118.12 2141.36,-1111.29"/>
</g>
<!-- u10&#45;&gt;u16 -->
<g id="edge19" class="edge">
<title>u10&#45;&gt;u16</title>
<path fill="none" stroke="black" d="M3160.02,-1414.93C3111,-1359.82 2956.82,-1186.5 2899.21,-1121.73"/>
<polygon fill="black" stroke="black" points="2901.63,-1119.18 2892.37,-1114.04 2896.4,-1123.84 2901.63,-1119.18"/>
</g>
<!-- u10&#45;&gt;u18 -->
<g id="edge20" class="edge">
<title>u10&#45;&gt;u18</title>
<path fill="none" stroke="black" d="M3169.51,-1414.87C3150.86,-1360.68 3087.27,-1189.98 2991.21,-1078 2568.7,-585.47 1856.92,-199.28 1677.33,-106.38"/>
<polygon fill="black" stroke="black" points="1678.7,-103.15 1668.21,-101.67 1675.49,-109.37 1678.7,-103.15"/>
</g>
<!-- u10&#45;&gt;u4 -->
<g id="edge18" class="edge">
<title>u10&#45;&gt;u4</title>
<path fill="none" stroke="black" d="M3121.53,-1415.84C2936.31,-1360.09 2324.47,-1175.94 2125.4,-1116.02"/>
<polygon fill="black" stroke="black" points="2126.26,-1112.62 2115.68,-1113.09 2124.25,-1119.33 2126.26,-1112.62"/>
</g>
<!-- u9&#45;&gt;u16 -->
<g id="edge16" class="edge">
<title>u9&#45;&gt;u16</title>
<path fill="none" stroke="black" d="M2500.44,-1414.93C2566.15,-1359.48 2773.67,-1184.37 2849.29,-1120.56"/>
<polygon fill="black" stroke="black" points="2851.63,-1123.16 2857.02,-1114.04 2847.12,-1117.81 2851.63,-1123.16"/>
</g>
<!-- u9&#45;&gt;u19 -->
<g id="edge17" class="edge">
<title>u9&#45;&gt;u19</title>
<path fill="none" stroke="black" d="M2392.45,-1417.87C2055.97,-1363.71 849.47,-1169.48 496.72,-1112.7"/>
<polygon fill="black" stroke="black" points="497.22,-1109.23 486.79,-1111.1 496.11,-1116.14 497.22,-1109.23"/>
</g>
<!-- u8&#45;&gt;u16 -->
<g id="edge14" class="edge">
<title>u8&#45;&gt;u16</title>
<path fill="none" stroke="black" d="M970.5,-1417.98C1294.97,-1363.36 2472.31,-1165.16 2794.96,-1110.85"/>
<polygon fill="black" stroke="black" points="2795.88,-1114.24 2805.16,-1109.13 2794.72,-1107.34 2795.88,-1114.24"/>
</g>
<!-- u8&#45;&gt;u18 -->
<g id="edge15" class="edge">
<title>u8&#45;&gt;u18</title>
<path fill="none" stroke="black" d="M895.94,-1414.82C946.39,-1315.68 1206.57,-807.09 1439.21,-403 1502.83,-292.49 1584.35,-164.14 1618.74,-110.55"/>
<polygon fill="black" stroke="black" points="1621.76,-112.32 1624.22,-102.02 1615.87,-108.54 1621.76,-112.32"/>
</g>
<!-- u8&#45;&gt;u4 -->
<g id="edge13" class="edge">
<title>u8&#45;&gt;u4</title>
<path fill="none" stroke="black" d="M942.7,-1416.18C1137.04,-1360.77 1786.51,-1175.6 1996.27,-1115.8"/>
<polygon fill="black" stroke="black" points="1997.27,-1119.15 2005.93,-1113.05 1995.35,-1112.42 1997.27,-1119.15"/>
</g>
<!-- u7&#45;&gt;u16 -->
<g id="edge11" class="edge">
<title>u7&#45;&gt;u16</title>
<path fill="none" stroke="black" d="M1695.54,-1415.73C1904.87,-1359.27 2598.86,-1172.08 2813.43,-1114.2"/>
<polygon fill="black" stroke="black" points="2814.54,-1117.53 2823.28,-1111.55 2812.72,-1110.77 2814.54,-1117.53"/>
</g>
<!-- u7&#45;&gt;u24 -->
<g id="edge12" class="edge">
<title>u7&#45;&gt;u24</title>
<path fill="none" stroke="black" d="M1635.21,-1414.89C1635.21,-1296.29 1635.21,-596.73 1635.21,-449.28"/>
<polygon fill="black" stroke="black" points="1638.71,-449.26 1635.21,-439.26 1631.71,-449.26 1638.71,-449.26"/>
</g>
<!-- u7&#45;&gt;u4 -->
<g id="edge10" class="edge">
<title>u7&#45;&gt;u4</title>
<path fill="none" stroke="black" d="M1656.97,-1414.93C1727.65,-1359.48 1950.84,-1184.37 2032.18,-1120.56"/>
<polygon fill="black" stroke="black" points="2034.79,-1122.97 2040.49,-1114.04 2030.47,-1117.46 2034.79,-1122.97"/>
</g>
<!-- u6&#45;&gt;u16 -->
<g id="edge9" class="edge">
<title>u6&#45;&gt;u16</title>
<path fill="none" stroke="black" d="M2825.01,-1414.93C2833.95,-1360.49 2861.83,-1190.71 2872.75,-1124.16"/>
<polygon fill="black" stroke="black" points="2876.25,-1124.47 2874.41,-1114.04 2869.34,-1123.34 2876.25,-1124.47"/>
</g>
<!-- u6&#45;&gt;u4 -->
<g id="edge8" class="edge">
<title>u6&#45;&gt;u4</title>
<path fill="none" stroke="black" d="M2784.52,-1415.39C2658.04,-1359.63 2248.82,-1179.25 2109.31,-1117.76"/>
<polygon fill="black" stroke="black" points="2110.69,-1114.54 2100.13,-1113.71 2107.87,-1120.95 2110.69,-1114.54"/>
</g>
<!-- u5&#45;&gt;u4 -->
<g id="edge7" class="edge">
<title>u5&#45;&gt;u4</title>
<path fill="none" stroke="black" d="M2062.21,-1414.93C2062.21,-1360.49 2062.21,-1190.71 2062.21,-1124.16"/>
<polygon fill="black" stroke="black" points="2065.71,-1124.04 2062.21,-1114.04 2058.71,-1124.04 2065.71,-1124.04"/>
</g>
<!-- u3&#45;&gt;u19 -->
<g id="edge6" class="edge">
<title>u3&#45;&gt;u19</title>
<path fill="none" stroke="black" d="M246.42,-1414.93C272.69,-1360.27 354.85,-1189.31 386.55,-1123.34"/>
<polygon fill="black" stroke="black" points="389.85,-1124.57 391.02,-1114.04 383.54,-1121.54 389.85,-1124.57"/>
</g>
<!-- u3&#45;&gt;u4 -->
<g id="edge5" class="edge">
<title>u3&#45;&gt;u4</title>
<path fill="none" stroke="black" d="M315.71,-1417.77C609.68,-1363.78 1655.2,-1171.75 1971.14,-1113.73"/>
<polygon fill="black" stroke="black" points="1971.97,-1117.13 1981.17,-1111.88 1970.7,-1110.25 1971.97,-1117.13"/>
</g>
<!-- u2&#45;&gt;u16 -->
<g id="edge4" class="edge">
<title>u2&#45;&gt;u16</title>
<path fill="none" stroke="black" d="M3454.44,-1752.38C3543.85,-1702.63 3788.6,-1549.98 3696.21,-1415 3534.71,-1179.05 3170.59,-1118.14 2987.18,-1102.44"/>
<polygon fill="black" stroke="black" points="2987.23,-1098.93 2976.97,-1101.6 2986.65,-1105.91 2987.23,-1098.93"/>
</g>
<!-- u1&#45;&gt;u19 -->
<g id="edge3" class="edge">
<title>u1&#45;&gt;u19</title>
<path fill="none" stroke="black" d="M1190.9,-1415.39C1051.97,-1359.51 601.81,-1178.48 449.85,-1117.36"/>
<polygon fill="black" stroke="black" points="450.86,-1114 440.28,-1113.51 448.25,-1120.49 450.86,-1114"/>
</g>
<!-- u0&#45;&gt;u19 -->
<g id="edge2" class="edge">
<title>u0&#45;&gt;u19</title>
<path fill="none" stroke="black" d="M552.01,-1414.93C525.74,-1360.27 443.58,-1189.31 411.87,-1123.34"/>
<polygon fill="black" stroke="black" points="414.89,-1121.54 407.4,-1114.04 408.58,-1124.57 414.89,-1121.54"/>
</g>
<!-- u0&#45;&gt;u4 -->
<g id="edge1" class="edge">
<title>u0&#45;&gt;u4</title>
<path fill="none" stroke="black" d="M628.65,-1416.74C875.55,-1361.67 1719.7,-1173.39 1983.07,-1114.65"/>
<polygon fill="black" stroke="black" points="1983.94,-1118.04 1992.94,-1112.45 1982.41,-1111.21 1983.94,-1118.04"/>
</g>
</g>
</svg>
