<?xml version="1.0" encoding="UTF-8" standalone="no"?>
<!DOCTYPE svg PUBLIC "-//W3C//DTD SVG 1.1//EN"
 "http://www.w3.org/Graphics/SVG/1.1/DTD/svg11.dtd">
<!-- Generated by graphviz version 2.43.0 (0)
 -->
<!-- Title: G Pages: 1 -->
<svg width="431pt" height="288pt"
 viewBox="0.00 0.00 431.37 288.00" xmlns="http://www.w3.org/2000/svg" xmlns:xlink="http://www.w3.org/1999/xlink">
<g id="graph0" class="graph" transform="scale(0.17 0.17) rotate(0) translate(4 1670.67)">
<title>G</title>
<polygon fill="white" stroke="transparent" points="-4,4 -4,-1670.67 2504.32,-1670.67 2504.32,4 -4,4"/>
<!-- u19 -->
<g id="node1" class="node">
<title>u19</title>
<ellipse fill="#bbffbb" stroke="black" cx="1245.83" cy="-1196" rx="123.48" ry="18"/>
<text text-anchor="middle" x="1245.83" y="-1192.3" font-family="Times,serif" font-size="14.00">Language.Drasil.Format</text>
</g>
<!-- u18 -->
<g id="node2" class="node">
<title>u18</title>
<ellipse fill="#bbffbb" stroke="black" cx="1354.83" cy="-616" rx="119.68" ry="18"/>
<text text-anchor="middle" x="1354.83" y="-612.3" font-family="Times,serif" font-size="14.00">Language.Drasil.Config</text>
</g>
<!-- u5 -->
<g id="node3" class="node">
<title>u5</title>
<ellipse fill="#bbffbb" stroke="black" cx="1715.83" cy="-1630" rx="128.08" ry="18"/>
<text text-anchor="middle" x="1715.83" y="-1626.3" font-family="Times,serif" font-size="14.00">Language.Drasil.Printers</text>
</g>
<!-- u0 -->
<g id="node4" class="node">
<title>u0</title>
<ellipse fill="#ffffbb" stroke="black" cx="2079.83" cy="-1486" rx="135.68" ry="18"/>
<text text-anchor="middle" x="2079.83" y="-1482.3" font-family="Times,serif" font-size="14.00">Language.Drasil.DOT.Print</text>
</g>
<!-- u5&#45;&gt;u0 -->
<g id="edge8" class="edge">
<title>u5&#45;&gt;u0</title>
<path fill="none" stroke="black" d="M1757.23,-1612.85C1824.2,-1586.73 1956.09,-1535.28 2028.77,-1506.92"/>
<polygon fill="black" stroke="black" points="2030.15,-1510.14 2038.19,-1503.25 2027.6,-1503.62 2030.15,-1510.14"/>
</g>
<!-- u17 -->
<g id="node5" class="node">
<title>u17</title>
<ellipse fill="#bbbbff" stroke="black" cx="1163.83" cy="-1486" rx="146.47" ry="18"/>
<text text-anchor="middle" x="1163.83" y="-1482.3" font-family="Times,serif" font-size="14.00">Language.Drasil.Debug.Print</text>
</g>
<!-- u5&#45;&gt;u17 -->
<g id="edge12" class="edge">
<title>u5&#45;&gt;u17</title>
<path fill="none" stroke="black" d="M1657.28,-1613.94C1554.9,-1587.6 1343.81,-1533.3 1233.87,-1505.02"/>
<polygon fill="black" stroke="black" points="1234.43,-1501.55 1223.87,-1502.44 1232.68,-1508.33 1234.43,-1501.55"/>
</g>
<!-- u12 -->
<g id="node10" class="node">
<title>u12</title>
<ellipse fill="#bbffff" stroke="black" cx="1396.83" cy="-1341" rx="140.28" ry="18"/>
<text text-anchor="middle" x="1396.83" y="-1337.3" font-family="Times,serif" font-size="14.00">Language.Drasil.JSON.Print</text>
</g>
<!-- u5&#45;&gt;u12 -->
<g id="edge9" class="edge">
<title>u5&#45;&gt;u12</title>
<path fill="none" stroke="black" d="M1687.19,-1612.45C1650.03,-1590.29 1584.14,-1548.55 1534.83,-1504 1487.02,-1460.8 1440.3,-1401.27 1415.38,-1367.71"/>
<polygon fill="black" stroke="black" points="1417.98,-1365.34 1409.24,-1359.37 1412.35,-1369.49 1417.98,-1365.34"/>
</g>
<!-- u16 -->
<g id="node12" class="node">
<title>u16</title>
<ellipse fill="#ffbbff" stroke="black" cx="1715.83" cy="-1486" rx="171.67" ry="18"/>
<text text-anchor="middle" x="1715.83" y="-1482.3" font-family="Times,serif" font-size="14.00">Language.Drasil.Markdown.Config</text>
</g>
<!-- u5&#45;&gt;u16 -->
<g id="edge11" class="edge">
<title>u5&#45;&gt;u16</title>
<path fill="none" stroke="black" d="M1715.83,-1611.87C1715.83,-1587.67 1715.83,-1543.21 1715.83,-1514.39"/>
<polygon fill="black" stroke="black" points="1719.33,-1514.19 1715.83,-1504.19 1712.33,-1514.19 1719.33,-1514.19"/>
</g>
<!-- u13 -->
<g id="node15" class="node">
<title>u13</title>
<ellipse fill="#ffbbff" stroke="black" cx="2311.83" cy="-1196" rx="188.47" ry="18"/>
<text text-anchor="middle" x="2311.83" y="-1192.3" font-family="Times,serif" font-size="14.00">Language.Drasil.Markdown.CreateMd</text>
</g>
<!-- u5&#45;&gt;u13 -->
<g id="edge10" class="edge">
<title>u5&#45;&gt;u13</title>
<path fill="none" stroke="black" d="M1742.83,-1612.22C1779.03,-1589.3 1844.78,-1546.21 1896.83,-1504 1914.9,-1489.35 1916.9,-1482.82 1934.83,-1468 2055.23,-1368.47 2209.4,-1264.32 2277.2,-1219.59"/>
<polygon fill="black" stroke="black" points="2279.37,-1222.35 2285.8,-1213.93 2275.53,-1216.51 2279.37,-1222.35"/>
</g>
<!-- u6 -->
<g id="node16" class="node">
<title>u6</title>
<ellipse fill="#77ff77" stroke="black" cx="1060.83" cy="-1341" rx="139.98" ry="18"/>
<text text-anchor="middle" x="1060.83" y="-1337.3" font-family="Times,serif" font-size="14.00">Language.Drasil.Plain.Print</text>
</g>
<!-- u17&#45;&gt;u6 -->
<g id="edge31" class="edge">
<title>u17&#45;&gt;u6</title>
<path fill="none" stroke="black" d="M1151.61,-1468.03C1133.65,-1443.09 1099.98,-1396.35 1079.08,-1367.34"/>
<polygon fill="black" stroke="black" points="1081.72,-1365.01 1073.04,-1358.94 1076.04,-1369.1 1081.72,-1365.01"/>
</g>
<!-- u10 -->
<g id="node6" class="node">
<title>u10</title>
<ellipse fill="#ffbbbb" stroke="black" cx="1889.83" cy="-1051" rx="140.28" ry="18"/>
<text text-anchor="middle" x="1889.83" y="-1047.3" font-family="Times,serif" font-size="14.00">Language.Drasil.HTML.CSS</text>
</g>
<!-- u9 -->
<g id="node7" class="node">
<title>u9</title>
<ellipse fill="#ffbbbb" stroke="black" cx="1577.83" cy="-1051" rx="153.27" ry="18"/>
<text text-anchor="middle" x="1577.83" y="-1047.3" font-family="Times,serif" font-size="14.00">Language.Drasil.HTML.Monad</text>
</g>
<!-- u8 -->
<g id="node8" class="node">
<title>u8</title>
<ellipse fill="#ffbbbb" stroke="black" cx="1648.83" cy="-1196" rx="144.87" ry="18"/>
<text text-anchor="middle" x="1648.83" y="-1192.3" font-family="Times,serif" font-size="14.00">Language.Drasil.HTML.Print</text>
</g>
<!-- u8&#45;&gt;u10 -->
<g id="edge18" class="edge">
<title>u8&#45;&gt;u10</title>
<path fill="none" stroke="black" d="M1676.95,-1178.32C1720.55,-1152.45 1804.48,-1102.65 1852.91,-1073.91"/>
<polygon fill="black" stroke="black" points="1854.71,-1076.91 1861.52,-1068.8 1851.14,-1070.89 1854.71,-1076.91"/>
</g>
<!-- u8&#45;&gt;u9 -->
<g id="edge17" class="edge">
<title>u8&#45;&gt;u9</title>
<path fill="none" stroke="black" d="M1640.27,-1177.75C1628.01,-1153.06 1605.35,-1107.42 1590.96,-1078.44"/>
<polygon fill="black" stroke="black" points="1594.01,-1076.71 1586.43,-1069.31 1587.74,-1079.82 1594.01,-1076.71"/>
</g>
<!-- u7 -->
<g id="node9" class="node">
<title>u7</title>
<ellipse fill="#ffbbbb" stroke="black" cx="2027.83" cy="-616" rx="157.87" ry="18"/>
<text text-anchor="middle" x="2027.83" y="-612.3" font-family="Times,serif" font-size="14.00">Language.Drasil.HTML.Helpers</text>
</g>
<!-- u8&#45;&gt;u7 -->
<g id="edge16" class="edge">
<title>u8&#45;&gt;u7</title>
<path fill="none" stroke="black" d="M1727.62,-1180.78C1830.5,-1160.43 2001.88,-1119.77 2038.83,-1069 2135.23,-936.56 2067.16,-719.68 2038.7,-644.04"/>
<polygon fill="black" stroke="black" points="2041.82,-642.41 2034.97,-634.33 2035.29,-644.92 2041.82,-642.41"/>
</g>
<!-- u3 -->
<g id="node33" class="node">
<title>u3</title>
<ellipse fill="#ff7777" stroke="black" cx="1096.83" cy="-1051" rx="133.48" ry="18"/>
<text text-anchor="middle" x="1096.83" y="-1047.3" font-family="Times,serif" font-size="14.00">Language.Drasil.TeX.Print</text>
</g>
<!-- u8&#45;&gt;u3 -->
<g id="edge15" class="edge">
<title>u8&#45;&gt;u3</title>
<path fill="none" stroke="black" d="M1589.24,-1179.56C1486.1,-1152.84 1274.93,-1098.14 1165.69,-1069.84"/>
<polygon fill="black" stroke="black" points="1166.32,-1066.39 1155.77,-1067.27 1164.57,-1073.16 1166.32,-1066.39"/>
</g>
<!-- u33 -->
<g id="node18" class="node">
<title>u33</title>
<ellipse fill="#ffff77" stroke="black" cx="1592.83" cy="-36" rx="149.47" ry="18"/>
<text text-anchor="middle" x="1592.83" y="-32.3" font-family="Times,serif" font-size="14.00">Language.Drasil.Printing.AST</text>
</g>
<!-- u7&#45;&gt;u33 -->
<g id="edge14" class="edge">
<title>u7&#45;&gt;u33</title>
<path fill="none" stroke="black" d="M2024.17,-597.99C2017.4,-567.98 2001.63,-503.98 1979.83,-453 1950.65,-384.72 1943.6,-365.68 1896.83,-308 1811.52,-202.79 1683.65,-103.28 1624.69,-59.86"/>
<polygon fill="black" stroke="black" points="1626.64,-56.95 1616.51,-53.87 1622.51,-62.6 1626.64,-56.95"/>
</g>
<!-- u12&#45;&gt;u19 -->
<g id="edge23" class="edge">
<title>u12&#45;&gt;u19</title>
<path fill="none" stroke="black" d="M1378.92,-1323.03C1352.13,-1297.66 1301.52,-1249.74 1271.02,-1220.85"/>
<polygon fill="black" stroke="black" points="1273.39,-1218.28 1263.72,-1213.94 1268.58,-1223.36 1273.39,-1218.28"/>
</g>
<!-- u12&#45;&gt;u8 -->
<g id="edge21" class="edge">
<title>u12&#45;&gt;u8</title>
<path fill="none" stroke="black" d="M1426.23,-1323.32C1471.82,-1297.45 1559.58,-1247.65 1610.22,-1218.91"/>
<polygon fill="black" stroke="black" points="1612.26,-1221.78 1619.23,-1213.8 1608.81,-1215.69 1612.26,-1221.78"/>
</g>
<!-- u11 -->
<g id="node11" class="node">
<title>u11</title>
<ellipse fill="#bbffff" stroke="black" cx="1876.83" cy="-761" rx="153.27" ry="18"/>
<text text-anchor="middle" x="1876.83" y="-757.3" font-family="Times,serif" font-size="14.00">Language.Drasil.JSON.Helpers</text>
</g>
<!-- u12&#45;&gt;u11 -->
<g id="edge22" class="edge">
<title>u12&#45;&gt;u11</title>
<path fill="none" stroke="black" d="M1392.69,-1322.73C1381.85,-1273.24 1357.3,-1128.34 1415.83,-1033 1504.5,-888.57 1701.13,-812.32 1806.66,-780.46"/>
<polygon fill="black" stroke="black" points="1807.68,-783.8 1816.27,-777.6 1805.69,-777.09 1807.68,-783.8"/>
</g>
<!-- u11&#45;&gt;u7 -->
<g id="edge19" class="edge">
<title>u11&#45;&gt;u7</title>
<path fill="none" stroke="black" d="M1894.75,-743.03C1921.54,-717.66 1972.15,-669.74 2002.65,-640.85"/>
<polygon fill="black" stroke="black" points="2005.09,-643.36 2009.94,-633.94 2000.27,-638.28 2005.09,-643.36"/>
</g>
<!-- u31 -->
<g id="node20" class="node">
<title>u31</title>
<ellipse fill="#ffff77" stroke="black" cx="1803.83" cy="-471" rx="167.07" ry="18"/>
<text text-anchor="middle" x="1803.83" y="-467.3" font-family="Times,serif" font-size="14.00">Language.Drasil.Printing.Helpers</text>
</g>
<!-- u11&#45;&gt;u31 -->
<g id="edge20" class="edge">
<title>u11&#45;&gt;u31</title>
<path fill="none" stroke="black" d="M1872.49,-742.85C1860.26,-694.62 1825.52,-557.57 1810.69,-499.04"/>
<polygon fill="black" stroke="black" points="1814.01,-497.9 1808.16,-489.06 1807.22,-499.62 1814.01,-497.9"/>
</g>
<!-- u15 -->
<g id="node13" class="node">
<title>u15</title>
<ellipse fill="#ffbbff" stroke="black" cx="1719.83" cy="-1341" rx="165.17" ry="18"/>
<text text-anchor="middle" x="1719.83" y="-1337.3" font-family="Times,serif" font-size="14.00">Language.Drasil.Markdown.Print</text>
</g>
<!-- u16&#45;&gt;u15 -->
<g id="edge30" class="edge">
<title>u16&#45;&gt;u15</title>
<path fill="none" stroke="black" d="M1716.32,-1467.75C1717,-1443.38 1718.25,-1398.61 1719.06,-1369.59"/>
<polygon fill="black" stroke="black" points="1722.57,-1369.4 1719.35,-1359.31 1715.57,-1369.21 1722.57,-1369.4"/>
</g>
<!-- u15&#45;&gt;u8 -->
<g id="edge28" class="edge">
<title>u15&#45;&gt;u8</title>
<path fill="none" stroke="black" d="M1711.27,-1322.75C1699.01,-1298.06 1676.35,-1252.42 1661.96,-1223.44"/>
<polygon fill="black" stroke="black" points="1665.01,-1221.71 1657.43,-1214.31 1658.74,-1224.82 1665.01,-1221.71"/>
</g>
<!-- u14 -->
<g id="node14" class="node">
<title>u14</title>
<ellipse fill="#ffbbff" stroke="black" cx="1526.83" cy="-761" rx="178.97" ry="18"/>
<text text-anchor="middle" x="1526.83" y="-757.3" font-family="Times,serif" font-size="14.00">Language.Drasil.Markdown.Helpers</text>
</g>
<!-- u15&#45;&gt;u14 -->
<g id="edge29" class="edge">
<title>u15&#45;&gt;u14</title>
<path fill="none" stroke="black" d="M1764.37,-1323.62C1869.74,-1282.24 2119.62,-1167.16 2038.83,-1033 1946.62,-879.85 1735.62,-808.72 1615.25,-779.55"/>
<polygon fill="black" stroke="black" points="1615.85,-776.1 1605.31,-777.19 1614.23,-782.91 1615.85,-776.1"/>
</g>
<!-- u14&#45;&gt;u7 -->
<g id="edge25" class="edge">
<title>u14&#45;&gt;u7</title>
<path fill="none" stroke="black" d="M1583.33,-743.87C1676.73,-717.22 1862.83,-664.1 1962.02,-635.78"/>
<polygon fill="black" stroke="black" points="1963.27,-639.07 1971.93,-632.96 1961.35,-632.34 1963.27,-639.07"/>
</g>
<!-- u32 -->
<g id="node19" class="node">
<title>u32</title>
<ellipse fill="#ffff77" stroke="black" cx="1038.83" cy="-616" rx="178.97" ry="18"/>
<text text-anchor="middle" x="1038.83" y="-612.3" font-family="Times,serif" font-size="14.00">Language.Drasil.Printing.LayoutObj</text>
</g>
<!-- u14&#45;&gt;u32 -->
<g id="edge27" class="edge">
<title>u14&#45;&gt;u32</title>
<path fill="none" stroke="black" d="M1471.8,-743.87C1381.07,-717.29 1200.51,-664.38 1103.71,-636.01"/>
<polygon fill="black" stroke="black" points="1104.62,-632.63 1094.04,-633.18 1102.65,-639.35 1104.62,-632.63"/>
</g>
<!-- u14&#45;&gt;u31 -->
<g id="edge26" class="edge">
<title>u14&#45;&gt;u31</title>
<path fill="none" stroke="black" d="M1600.36,-744.54C1660.18,-727.88 1741.52,-695.1 1784.83,-634 1813.13,-594.08 1811.88,-534.24 1808.08,-499.56"/>
<polygon fill="black" stroke="black" points="1811.51,-498.73 1806.79,-489.24 1804.56,-499.6 1811.51,-498.73"/>
</g>
<!-- u13&#45;&gt;u31 -->
<g id="edge24" class="edge">
<title>u13&#45;&gt;u31</title>
<path fill="none" stroke="black" d="M2306.87,-1177.97C2294.41,-1133.7 2262.83,-1011.23 2262.83,-907 2262.83,-907 2262.83,-907 2262.83,-760 2262.83,-681.91 2252.36,-650.8 2194.83,-598 2122.88,-531.96 2016.03,-500.52 1932.21,-485.56"/>
<polygon fill="black" stroke="black" points="1932.55,-482.07 1922.1,-483.82 1931.36,-488.97 1932.55,-482.07"/>
</g>
<!-- u20 -->
<g id="node22" class="node">
<title>u20</title>
<ellipse fill="#ffff77" stroke="black" cx="683.83" cy="-906" rx="162.47" ry="18"/>
<text text-anchor="middle" x="683.83" y="-902.3" font-family="Times,serif" font-size="14.00">Language.Drasil.Printing.Import</text>
</g>
<!-- u6&#45;&gt;u20 -->
<g id="edge13" class="edge">
<title>u6&#45;&gt;u20</title>
<path fill="none" stroke="black" d="M1046.05,-1323.03C987.88,-1256.21 774.49,-1011.13 705.5,-931.89"/>
<polygon fill="black" stroke="black" points="708.13,-929.57 698.92,-924.33 702.85,-934.17 708.13,-929.57"/>
</g>
<!-- u34 -->
<g id="node17" class="node">
<title>u34</title>
<ellipse fill="#ffff77" stroke="black" cx="1340.83" cy="-181" rx="223.66" ry="18"/>
<text text-anchor="middle" x="1340.83" y="-177.3" font-family="Times,serif" font-size="14.00">Language.Drasil.Printing.PrintingInformation</text>
</g>
<!-- u30 -->
<g id="node21" class="node">
<title>u30</title>
<ellipse fill="#ffff77" stroke="black" cx="1719.83" cy="-326" rx="167.87" ry="18"/>
<text text-anchor="middle" x="1719.83" y="-322.3" font-family="Times,serif" font-size="14.00">Language.Drasil.Printing.Citation</text>
</g>
<!-- u32&#45;&gt;u30 -->
<g id="edge53" class="edge">
<title>u32&#45;&gt;u30</title>
<path fill="none" stroke="black" d="M1078.39,-598.27C1195.95,-548.55 1543,-401.78 1671.37,-347.49"/>
<polygon fill="black" stroke="black" points="1672.75,-350.71 1680.59,-343.6 1670.02,-344.27 1672.75,-350.71"/>
</g>
<!-- u31&#45;&gt;u30 -->
<g id="edge52" class="edge">
<title>u31&#45;&gt;u30</title>
<path fill="none" stroke="black" d="M1793.7,-452.75C1779.13,-427.95 1752.15,-382.02 1735.15,-353.07"/>
<polygon fill="black" stroke="black" points="1738.08,-351.16 1730,-344.31 1732.05,-354.71 1738.08,-351.16"/>
</g>
<!-- u30&#45;&gt;u33 -->
<g id="edge51" class="edge">
<title>u30&#45;&gt;u33</title>
<path fill="none" stroke="black" d="M1712.27,-307.85C1690.92,-259.42 1630.07,-121.43 1604.44,-63.32"/>
<polygon fill="black" stroke="black" points="1607.6,-61.8 1600.36,-54.06 1601.19,-64.63 1607.6,-61.8"/>
</g>
<!-- u29 -->
<g id="node23" class="node">
<title>u29</title>
<ellipse fill="#7777ff" stroke="black" cx="187.83" cy="-471" rx="187.67" ry="18"/>
<text text-anchor="middle" x="187.83" y="-467.3" font-family="Times,serif" font-size="14.00">Language.Drasil.Printing.Import.Expr</text>
</g>
<!-- u20&#45;&gt;u29 -->
<g id="edge33" class="edge">
<title>u20&#45;&gt;u29</title>
<path fill="none" stroke="black" d="M638.62,-888.61C586.42,-868.25 499.69,-829.89 436.83,-779 330.48,-692.9 238.74,-554.67 203.37,-497.76"/>
<polygon fill="black" stroke="black" points="206.22,-495.71 197.99,-489.03 200.26,-499.38 206.22,-495.71"/>
</g>
<!-- u23 -->
<g id="node29" class="node">
<title>u23</title>
<ellipse fill="#7777ff" stroke="black" cx="658.83" cy="-761" rx="212.56" ry="18"/>
<text text-anchor="middle" x="658.83" y="-757.3" font-family="Times,serif" font-size="14.00">Language.Drasil.Printing.Import.Document</text>
</g>
<!-- u20&#45;&gt;u23 -->
<g id="edge32" class="edge">
<title>u20&#45;&gt;u23</title>
<path fill="none" stroke="black" d="M680.82,-887.75C676.54,-863.27 668.66,-818.21 663.59,-789.2"/>
<polygon fill="black" stroke="black" points="667.03,-788.56 661.86,-779.31 660.13,-789.76 667.03,-788.56"/>
</g>
<!-- u26 -->
<g id="node26" class="node">
<title>u26</title>
<ellipse fill="#7777ff" stroke="black" cx="519.83" cy="-326" rx="200.36" ry="18"/>
<text text-anchor="middle" x="519.83" y="-322.3" font-family="Times,serif" font-size="14.00">Language.Drasil.Printing.Import.Symbol</text>
</g>
<!-- u29&#45;&gt;u26 -->
<g id="edge50" class="edge">
<title>u29&#45;&gt;u26</title>
<path fill="none" stroke="black" d="M226.57,-453.32C287.46,-427.09 405.45,-376.27 471.7,-347.73"/>
<polygon fill="black" stroke="black" points="473.29,-350.86 481.09,-343.69 470.52,-344.43 473.29,-350.86"/>
</g>
<!-- u24 -->
<g id="node28" class="node">
<title>u24</title>
<ellipse fill="#7777ff" stroke="black" cx="933.83" cy="-326" rx="196.07" ry="18"/>
<text text-anchor="middle" x="933.83" y="-322.3" font-family="Times,serif" font-size="14.00">Language.Drasil.Printing.Import.Literal</text>
</g>
<!-- u29&#45;&gt;u24 -->
<g id="edge49" class="edge">
<title>u29&#45;&gt;u24</title>
<path fill="none" stroke="black" d="M267.67,-454.7C407.57,-427.88 696.11,-372.57 843.25,-344.36"/>
<polygon fill="black" stroke="black" points="844,-347.78 853.16,-342.46 842.68,-340.91 844,-347.78"/>
</g>
<!-- u28 -->
<g id="node24" class="node">
<title>u28</title>
<ellipse fill="#7777ff" stroke="black" cx="896.83" cy="-181" rx="202.26" ry="18"/>
<text text-anchor="middle" x="896.83" y="-177.3" font-family="Times,serif" font-size="14.00">Language.Drasil.Printing.Import.Helpers</text>
</g>
<!-- u28&#45;&gt;u33 -->
<g id="edge48" class="edge">
<title>u28&#45;&gt;u33</title>
<path fill="none" stroke="black" d="M973.31,-164.29C1105.34,-137.16 1374.92,-81.77 1510.74,-53.87"/>
<polygon fill="black" stroke="black" points="1511.59,-57.26 1520.68,-51.82 1510.18,-50.41 1511.59,-57.26"/>
</g>
<!-- u27 -->
<g id="node25" class="node">
<title>u27</title>
<ellipse fill="#7777ff" stroke="black" cx="604.83" cy="-471" rx="211.46" ry="18"/>
<text text-anchor="middle" x="604.83" y="-467.3" font-family="Times,serif" font-size="14.00">Language.Drasil.Printing.Import.CodeExpr</text>
</g>
<!-- u27&#45;&gt;u26 -->
<g id="edge47" class="edge">
<title>u27&#45;&gt;u26</title>
<path fill="none" stroke="black" d="M594.58,-452.75C579.84,-427.95 552.54,-382.02 535.33,-353.07"/>
<polygon fill="black" stroke="black" points="538.24,-351.12 530.12,-344.31 532.22,-354.69 538.24,-351.12"/>
</g>
<!-- u27&#45;&gt;u24 -->
<g id="edge46" class="edge">
<title>u27&#45;&gt;u24</title>
<path fill="none" stroke="black" d="M643.54,-453.18C703.93,-426.93 820.42,-376.3 885.98,-347.8"/>
<polygon fill="black" stroke="black" points="887.5,-350.96 895.27,-343.76 884.71,-344.54 887.5,-350.96"/>
</g>
<!-- u26&#45;&gt;u33 -->
<g id="edge45" class="edge">
<title>u26&#45;&gt;u33</title>
<path fill="none" stroke="black" d="M531.42,-307.94C555.61,-273.85 615.14,-197.64 685.83,-163 818,-98.24 1233.44,-61.25 1453.26,-45.73"/>
<polygon fill="black" stroke="black" points="1453.52,-49.22 1463.25,-45.03 1453.03,-42.24 1453.52,-49.22"/>
</g>
<!-- u25 -->
<g id="node27" class="node">
<title>u25</title>
<ellipse fill="#7777ff" stroke="black" cx="1050.83" cy="-471" rx="216.36" ry="18"/>
<text text-anchor="middle" x="1050.83" y="-467.3" font-family="Times,serif" font-size="14.00">Language.Drasil.Printing.Import.ModelExpr</text>
</g>
<!-- u25&#45;&gt;u26 -->
<g id="edge44" class="edge">
<title>u25&#45;&gt;u26</title>
<path fill="none" stroke="black" d="M990.18,-453.67C891.06,-426.97 694.92,-374.15 589.97,-345.89"/>
<polygon fill="black" stroke="black" points="590.67,-342.45 580.1,-343.23 588.85,-349.21 590.67,-342.45"/>
</g>
<!-- u25&#45;&gt;u24 -->
<g id="edge43" class="edge">
<title>u25&#45;&gt;u24</title>
<path fill="none" stroke="black" d="M1036.95,-453.03C1016.57,-428.12 978.39,-381.46 954.64,-352.43"/>
<polygon fill="black" stroke="black" points="957.1,-349.91 948.06,-344.39 951.68,-354.35 957.1,-349.91"/>
</g>
<!-- u22 -->
<g id="node30" class="node">
<title>u22</title>
<ellipse fill="#7777ff" stroke="black" cx="1340.83" cy="-326" rx="193.07" ry="18"/>
<text text-anchor="middle" x="1340.83" y="-322.3" font-family="Times,serif" font-size="14.00">Language.Drasil.Printing.Import.Space</text>
</g>
<!-- u25&#45;&gt;u22 -->
<g id="edge42" class="edge">
<title>u25&#45;&gt;u22</title>
<path fill="none" stroke="black" d="M1084.95,-453.18C1137.86,-427.09 1239.6,-376.92 1297.58,-348.33"/>
<polygon fill="black" stroke="black" points="1299.42,-351.32 1306.84,-343.76 1296.33,-345.04 1299.42,-351.32"/>
</g>
<!-- u24&#45;&gt;u34 -->
<g id="edge41" class="edge">
<title>u24&#45;&gt;u34</title>
<path fill="none" stroke="black" d="M980.92,-308.46C1056.12,-282.03 1203.08,-230.4 1284.01,-201.96"/>
<polygon fill="black" stroke="black" points="1285.27,-205.23 1293.54,-198.62 1282.95,-198.63 1285.27,-205.23"/>
</g>
<!-- u24&#45;&gt;u28 -->
<g id="edge40" class="edge">
<title>u24&#45;&gt;u28</title>
<path fill="none" stroke="black" d="M929.37,-307.75C923.04,-283.27 911.38,-238.21 903.87,-209.2"/>
<polygon fill="black" stroke="black" points="907.21,-208.11 901.31,-199.31 900.43,-209.87 907.21,-208.11"/>
</g>
<!-- u23&#45;&gt;u32 -->
<g id="edge39" class="edge">
<title>u23&#45;&gt;u32</title>
<path fill="none" stroke="black" d="M703.17,-743.32C773.34,-716.91 909.75,-665.58 985.28,-637.15"/>
<polygon fill="black" stroke="black" points="986.95,-640.27 995.07,-633.47 984.48,-633.71 986.95,-640.27"/>
</g>
<!-- u23&#45;&gt;u27 -->
<g id="edge38" class="edge">
<title>u23&#45;&gt;u27</title>
<path fill="none" stroke="black" d="M586.53,-743.99C529.42,-727.12 453.44,-694.34 416.83,-634 378.25,-570.41 477.19,-518.92 545.73,-492.12"/>
<polygon fill="black" stroke="black" points="547.09,-495.35 555.18,-488.51 544.59,-488.81 547.09,-495.35"/>
</g>
<!-- u21 -->
<g id="node31" class="node">
<title>u21</title>
<ellipse fill="#7777ff" stroke="black" cx="633.83" cy="-616" rx="207.96" ry="18"/>
<text text-anchor="middle" x="633.83" y="-612.3" font-family="Times,serif" font-size="14.00">Language.Drasil.Printing.Import.Sentence</text>
</g>
<!-- u23&#45;&gt;u21 -->
<g id="edge37" class="edge">
<title>u23&#45;&gt;u21</title>
<path fill="none" stroke="black" d="M655.82,-742.75C651.54,-718.27 643.66,-673.21 638.59,-644.2"/>
<polygon fill="black" stroke="black" points="642.03,-643.56 636.86,-634.31 635.13,-644.76 642.03,-643.56"/>
</g>
<!-- u22&#45;&gt;u34 -->
<g id="edge36" class="edge">
<title>u22&#45;&gt;u34</title>
<path fill="none" stroke="black" d="M1340.83,-307.75C1340.83,-283.38 1340.83,-238.61 1340.83,-209.59"/>
<polygon fill="black" stroke="black" points="1344.33,-209.31 1340.83,-199.31 1337.33,-209.31 1344.33,-209.31"/>
</g>
<!-- u22&#45;&gt;u33 -->
<g id="edge35" class="edge">
<title>u22&#45;&gt;u33</title>
<path fill="none" stroke="black" d="M1403.13,-308.93C1457.59,-291.41 1534.02,-257.71 1573.83,-199 1601.3,-158.5 1600.34,-98.87 1596.82,-64.38"/>
<polygon fill="black" stroke="black" points="1600.26,-63.65 1595.62,-54.12 1593.31,-64.46 1600.26,-63.65"/>
</g>
<!-- u21&#45;&gt;u25 -->
<g id="edge34" class="edge">
<title>u21&#45;&gt;u25</title>
<path fill="none" stroke="black" d="M682.08,-598.46C759.2,-572.01 910,-520.29 992.87,-491.88"/>
<polygon fill="black" stroke="black" points="994.06,-495.17 1002.38,-488.62 991.79,-488.55 994.06,-495.17"/>
</g>
<!-- u4 -->
<g id="node32" class="node">
<title>u4</title>
<ellipse fill="#ff7777" stroke="black" cx="1633.83" cy="-616" rx="141.88" ry="18"/>
<text text-anchor="middle" x="1633.83" y="-612.3" font-family="Times,serif" font-size="14.00">Language.Drasil.TeX.Monad</text>
</g>
<!-- u4&#45;&gt;u31 -->
<g id="edge7" class="edge">
<title>u4&#45;&gt;u31</title>
<path fill="none" stroke="black" d="M1654,-598.03C1684.29,-572.56 1741.62,-524.33 1775.91,-495.49"/>
<polygon fill="black" stroke="black" points="1778.29,-498.06 1783.69,-488.94 1773.79,-492.7 1778.29,-498.06"/>
</g>
<!-- u3&#45;&gt;u20 -->
<g id="edge6" class="edge">
<title>u3&#45;&gt;u20</title>
<path fill="none" stroke="black" d="M1050.66,-1034.01C974.53,-1007.65 822.91,-955.15 740.44,-926.6"/>
<polygon fill="black" stroke="black" points="741.57,-923.29 730.98,-923.32 739.28,-929.9 741.57,-923.29"/>
</g>
<!-- u1 -->
<g id="node35" class="node">
<title>u1</title>
<ellipse fill="#ff7777" stroke="black" cx="1096.83" cy="-906" rx="154.07" ry="18"/>
<text text-anchor="middle" x="1096.83" y="-902.3" font-family="Times,serif" font-size="14.00">Language.Drasil.TeX.Preamble</text>
</g>
<!-- u3&#45;&gt;u1 -->
<g id="edge5" class="edge">
<title>u3&#45;&gt;u1</title>
<path fill="none" stroke="black" d="M1096.83,-1032.75C1096.83,-1008.38 1096.83,-963.61 1096.83,-934.59"/>
<polygon fill="black" stroke="black" points="1100.33,-934.31 1096.83,-924.31 1093.33,-934.31 1100.33,-934.31"/>
</g>
<!-- u2 -->
<g id="node34" class="node">
<title>u2</title>
<ellipse fill="#ff7777" stroke="black" cx="1183.83" cy="-761" rx="146.47" ry="18"/>
<text text-anchor="middle" x="1183.83" y="-757.3" font-family="Times,serif" font-size="14.00">Language.Drasil.TeX.Helpers</text>
</g>
<!-- u2&#45;&gt;u18 -->
<g id="edge4" class="edge">
<title>u2&#45;&gt;u18</title>
<path fill="none" stroke="black" d="M1204.12,-743.03C1234.59,-717.56 1292.26,-669.33 1326.75,-640.49"/>
<polygon fill="black" stroke="black" points="1329.15,-643.04 1334.57,-633.94 1324.66,-637.67 1329.15,-643.04"/>
</g>
<!-- u2&#45;&gt;u4 -->
<g id="edge3" class="edge">
<title>u2&#45;&gt;u4</title>
<path fill="none" stroke="black" d="M1234.14,-744.01C1317.71,-717.46 1484.74,-664.38 1574.13,-635.97"/>
<polygon fill="black" stroke="black" points="1575.38,-639.25 1583.85,-632.88 1573.26,-632.58 1575.38,-639.25"/>
</g>
<!-- u1&#45;&gt;u32 -->
<g id="edge2" class="edge">
<title>u1&#45;&gt;u32</title>
<path fill="none" stroke="black" d="M1083.92,-887.81C1067.35,-864.57 1039.49,-821.18 1028.83,-779 1017.18,-732.85 1025.25,-677.08 1032.1,-644.47"/>
<polygon fill="black" stroke="black" points="1035.6,-644.87 1034.35,-634.35 1028.76,-643.35 1035.6,-644.87"/>
</g>
<!-- u1&#45;&gt;u2 -->
<g id="edge1" class="edge">
<title>u1&#45;&gt;u2</title>
<path fill="none" stroke="black" d="M1107.16,-888.03C1122.18,-863.33 1150.22,-817.26 1167.9,-788.18"/>
<polygon fill="black" stroke="black" points="1171.05,-789.75 1173.25,-779.39 1165.07,-786.11 1171.05,-789.75"/>
</g>
</g>
</svg>
