<?xml version="1.0" encoding="UTF-8" standalone="no"?>
<!DOCTYPE svg PUBLIC "-//W3C//DTD SVG 1.1//EN"
 "http://www.w3.org/Graphics/SVG/1.1/DTD/svg11.dtd">
<!-- Generated by graphviz version 2.43.0 (0)
 -->
<!-- Title: G Pages: 1 -->
<svg width="431pt" height="288pt"
 viewBox="0.00 0.00 431.29 288.00" xmlns="http://www.w3.org/2000/svg" xmlns:xlink="http://www.w3.org/1999/xlink">
<g id="graph0" class="graph" transform="scale(4.65 4.65) rotate(0) translate(4 1334.67)">
<title>G</title>
<polygon fill="white" stroke="transparent" points="-4,4 -4,-1334.67 2000.72,-1334.67 2000.72,4 -4,4"/>
<!-- u25 -->
<g id="node1" class="node">
<title>u25</title>
<ellipse fill="#bbffbb" stroke="black" cx="1873.23" cy="-1091" rx="123.48" ry="18"/>
<text text-anchor="middle" x="1873.23" y="-1087.3" font-family="Times,serif" font-size="14.00">Language.Drasil.Format</text>
</g>
<!-- u9 -->
<g id="node2" class="node">
<title>u9</title>
<ellipse fill="#bbffbb" stroke="black" cx="1274.23" cy="-1304" rx="128.08" ry="18"/>
<text text-anchor="middle" x="1274.23" y="-1300.3" font-family="Times,serif" font-size="14.00">Language.Drasil.Printers</text>
</g>
<!-- u7 -->
<g id="node4" class="node">
<title>u7</title>
<ellipse fill="#ffffbb" stroke="black" cx="841.23" cy="-1198" rx="135.68" ry="18"/>
<text text-anchor="middle" x="841.23" y="-1194.3" font-family="Times,serif" font-size="14.00">Language.Drasil.DOT.Print</text>
</g>
<!-- u9&#45;&gt;u7 -->
<g id="edge12" class="edge">
<title>u9&#45;&gt;u7</title>
<path fill="none" stroke="black" d="M1212.65,-1288.21C1133.79,-1269.27 997.33,-1236.49 913.59,-1216.38"/>
<polygon fill="black" stroke="black" points="914.19,-1212.92 903.65,-1213.99 912.56,-1219.73 914.19,-1212.92"/>
</g>
<!-- u5 -->
<g id="node10" class="node">
<title>u5</title>
<ellipse fill="#ffbbbb" stroke="black" cx="1420.23" cy="-1198" rx="140.28" ry="18"/>
<text text-anchor="middle" x="1420.23" y="-1194.3" font-family="Times,serif" font-size="14.00">Language.Drasil.JSON.Print</text>
</g>
<!-- u9&#45;&gt;u5 -->
<g id="edge11" class="edge">
<title>u9&#45;&gt;u5</title>
<path fill="none" stroke="black" d="M1297.69,-1286.29C1322.13,-1268.88 1360.59,-1241.48 1387.9,-1222.03"/>
<polygon fill="black" stroke="black" points="1390.23,-1224.67 1396.35,-1216.01 1386.17,-1218.96 1390.23,-1224.67"/>
</g>
<!-- u26 -->
<g id="node11" class="node">
<title>u26</title>
<ellipse fill="#bbffff" stroke="black" cx="1128.23" cy="-1198" rx="133.48" ry="18"/>
<text text-anchor="middle" x="1128.23" y="-1194.3" font-family="Times,serif" font-size="14.00">Language.Drasil.Log.Print</text>
</g>
<!-- u9&#45;&gt;u26 -->
<g id="edge14" class="edge">
<title>u9&#45;&gt;u26</title>
<path fill="none" stroke="black" d="M1250.77,-1286.29C1226.33,-1268.88 1187.87,-1241.48 1160.56,-1222.03"/>
<polygon fill="black" stroke="black" points="1162.29,-1218.96 1152.12,-1216.01 1158.23,-1224.67 1162.29,-1218.96"/>
</g>
<!-- u8 -->
<g id="node12" class="node">
<title>u8</title>
<ellipse fill="#ffbbff" stroke="black" cx="1767.23" cy="-1198" rx="188.47" ry="18"/>
<text text-anchor="middle" x="1767.23" y="-1194.3" font-family="Times,serif" font-size="14.00">Language.Drasil.Markdown.CreateMd</text>
</g>
<!-- u9&#45;&gt;u8 -->
<g id="edge13" class="edge">
<title>u9&#45;&gt;u8</title>
<path fill="none" stroke="black" d="M1342,-1288.7C1430.97,-1269.94 1587.09,-1237 1683.39,-1216.69"/>
<polygon fill="black" stroke="black" points="1684.32,-1220.07 1693.39,-1214.58 1682.88,-1213.22 1684.32,-1220.07"/>
</g>
<!-- u4 -->
<g id="node3" class="node">
<title>u4</title>
<ellipse fill="#bbffbb" stroke="black" cx="1168.23" cy="-665" rx="119.68" ry="18"/>
<text text-anchor="middle" x="1168.23" y="-661.3" font-family="Times,serif" font-size="14.00">Language.Drasil.Config</text>
</g>
<!-- u3 -->
<g id="node5" class="node">
<title>u3</title>
<ellipse fill="#bbbbff" stroke="black" cx="1262.23" cy="-985" rx="140.28" ry="18"/>
<text text-anchor="middle" x="1262.23" y="-981.3" font-family="Times,serif" font-size="14.00">Language.Drasil.HTML.CSS</text>
</g>
<!-- u2 -->
<g id="node6" class="node">
<title>u2</title>
<ellipse fill="#bbbbff" stroke="black" cx="950.23" cy="-985" rx="153.27" ry="18"/>
<text text-anchor="middle" x="950.23" y="-981.3" font-family="Times,serif" font-size="14.00">Language.Drasil.HTML.Monad</text>
</g>
<!-- u1 -->
<g id="node7" class="node">
<title>u1</title>
<ellipse fill="#bbbbff" stroke="black" cx="1578.23" cy="-985" rx="157.87" ry="18"/>
<text text-anchor="middle" x="1578.23" y="-981.3" font-family="Times,serif" font-size="14.00">Language.Drasil.HTML.Helpers</text>
</g>
<!-- u14 -->
<g id="node15" class="node">
<title>u14</title>
<ellipse fill="#ffff77" stroke="black" cx="1150.23" cy="-27" rx="149.47" ry="18"/>
<text text-anchor="middle" x="1150.23" y="-23.3" font-family="Times,serif" font-size="14.00">Language.Drasil.Printing.AST</text>
</g>
<!-- u1&#45;&gt;u14 -->
<g id="edge5" class="edge">
<title>u1&#45;&gt;u14</title>
<path fill="none" stroke="black" d="M1583.57,-966.97C1594.25,-931.34 1617.23,-846.2 1617.23,-773 1617.23,-773 1617.23,-773 1617.23,-239 1617.23,-97.09 1435.93,-50.11 1299.26,-34.85"/>
<polygon fill="black" stroke="black" points="1299.4,-31.34 1289.08,-33.76 1298.65,-38.3 1299.4,-31.34"/>
</g>
<!-- u0 -->
<g id="node8" class="node">
<title>u0</title>
<ellipse fill="#bbbbff" stroke="black" cx="1262.23" cy="-1091" rx="144.87" ry="18"/>
<text text-anchor="middle" x="1262.23" y="-1087.3" font-family="Times,serif" font-size="14.00">Language.Drasil.HTML.Print</text>
</g>
<!-- u0&#45;&gt;u3 -->
<g id="edge3" class="edge">
<title>u0&#45;&gt;u3</title>
<path fill="none" stroke="black" d="M1262.23,-1072.83C1262.23,-1056.64 1262.23,-1032.13 1262.23,-1013.27"/>
<polygon fill="black" stroke="black" points="1265.73,-1013.2 1262.23,-1003.2 1258.73,-1013.2 1265.73,-1013.2"/>
</g>
<!-- u0&#45;&gt;u2 -->
<g id="edge2" class="edge">
<title>u0&#45;&gt;u2</title>
<path fill="none" stroke="black" d="M1214.17,-1073.98C1158.71,-1055.49 1067.55,-1025.11 1008.21,-1005.33"/>
<polygon fill="black" stroke="black" points="1009.2,-1001.97 998.61,-1002.13 1006.99,-1008.61 1009.2,-1001.97"/>
</g>
<!-- u0&#45;&gt;u1 -->
<g id="edge1" class="edge">
<title>u0&#45;&gt;u1</title>
<path fill="none" stroke="black" d="M1310.91,-1073.98C1367.08,-1055.49 1459.4,-1025.11 1519.51,-1005.33"/>
<polygon fill="black" stroke="black" points="1520.83,-1008.58 1529.23,-1002.13 1518.64,-1001.93 1520.83,-1008.58"/>
</g>
<!-- u28 -->
<g id="node32" class="node">
<title>u28</title>
<ellipse fill="#ff7777" stroke="black" cx="645.23" cy="-985" rx="133.48" ry="18"/>
<text text-anchor="middle" x="645.23" y="-981.3" font-family="Times,serif" font-size="14.00">Language.Drasil.TeX.Print</text>
</g>
<!-- u0&#45;&gt;u28 -->
<g id="edge4" class="edge">
<title>u0&#45;&gt;u28</title>
<path fill="none" stroke="black" d="M1179.98,-1076.14C1064.3,-1056.64 854.35,-1021.25 734.82,-1001.1"/>
<polygon fill="black" stroke="black" points="735.41,-997.65 724.96,-999.44 734.24,-1004.55 735.41,-997.65"/>
</g>
<!-- u6 -->
<g id="node9" class="node">
<title>u6</title>
<ellipse fill="#ffbbbb" stroke="black" cx="1578.23" cy="-1091" rx="153.27" ry="18"/>
<text text-anchor="middle" x="1578.23" y="-1087.3" font-family="Times,serif" font-size="14.00">Language.Drasil.JSON.Helpers</text>
</g>
<!-- u6&#45;&gt;u1 -->
<g id="edge9" class="edge">
<title>u6&#45;&gt;u1</title>
<path fill="none" stroke="black" d="M1578.23,-1072.83C1578.23,-1056.64 1578.23,-1032.13 1578.23,-1013.27"/>
<polygon fill="black" stroke="black" points="1581.73,-1013.2 1578.23,-1003.2 1574.73,-1013.2 1581.73,-1013.2"/>
</g>
<!-- u11 -->
<g id="node18" class="node">
<title>u11</title>
<ellipse fill="#ffff77" stroke="black" cx="1422.23" cy="-559" rx="167.07" ry="18"/>
<text text-anchor="middle" x="1422.23" y="-555.3" font-family="Times,serif" font-size="14.00">Language.Drasil.Printing.Helpers</text>
</g>
<!-- u6&#45;&gt;u11 -->
<g id="edge10" class="edge">
<title>u6&#45;&gt;u11</title>
<path fill="none" stroke="black" d="M1637.26,-1074.26C1674.17,-1061.28 1719.45,-1039.02 1745.23,-1003 1777.68,-957.66 1764.23,-934.75 1764.23,-879 1764.23,-879 1764.23,-879 1764.23,-771 1764.23,-654.87 1619.64,-600.55 1518.49,-576.76"/>
<polygon fill="black" stroke="black" points="1519.06,-573.3 1508.53,-574.49 1517.5,-580.13 1519.06,-573.3"/>
</g>
<!-- u5&#45;&gt;u25 -->
<g id="edge8" class="edge">
<title>u5&#45;&gt;u25</title>
<path fill="none" stroke="black" d="M1485.14,-1181.96C1568.64,-1162.6 1713.3,-1129.07 1800.46,-1108.87"/>
<polygon fill="black" stroke="black" points="1801.32,-1112.26 1810.27,-1106.59 1799.74,-1105.44 1801.32,-1112.26"/>
</g>
<!-- u5&#45;&gt;u0 -->
<g id="edge6" class="edge">
<title>u5&#45;&gt;u0</title>
<path fill="none" stroke="black" d="M1394.85,-1180.13C1368.01,-1162.3 1325.55,-1134.08 1295.92,-1114.39"/>
<polygon fill="black" stroke="black" points="1297.82,-1111.45 1287.55,-1108.83 1293.95,-1117.28 1297.82,-1111.45"/>
</g>
<!-- u5&#45;&gt;u6 -->
<g id="edge7" class="edge">
<title>u5&#45;&gt;u6</title>
<path fill="none" stroke="black" d="M1445.62,-1180.13C1472.45,-1162.3 1514.92,-1134.08 1544.54,-1114.39"/>
<polygon fill="black" stroke="black" points="1546.52,-1117.28 1552.91,-1108.83 1542.64,-1111.45 1546.52,-1117.28"/>
</g>
<!-- u27 -->
<g id="node13" class="node">
<title>u27</title>
<ellipse fill="#77ff77" stroke="black" cx="722.23" cy="-1091" rx="139.98" ry="18"/>
<text text-anchor="middle" x="722.23" y="-1087.3" font-family="Times,serif" font-size="14.00">Language.Drasil.Plain.Print</text>
</g>
<!-- u26&#45;&gt;u27 -->
<g id="edge33" class="edge">
<title>u26&#45;&gt;u27</title>
<path fill="none" stroke="black" d="M1069.2,-1181.73C995.48,-1162.67 869.59,-1130.11 791.43,-1109.9"/>
<polygon fill="black" stroke="black" points="792.23,-1106.49 781.67,-1107.37 790.47,-1113.26 792.23,-1106.49"/>
</g>
<!-- u12 -->
<g id="node17" class="node">
<title>u12</title>
<ellipse fill="#ffff77" stroke="black" cx="484.23" cy="-878" rx="162.47" ry="18"/>
<text text-anchor="middle" x="484.23" y="-874.3" font-family="Times,serif" font-size="14.00">Language.Drasil.Printing.Import</text>
</g>
<!-- u27&#45;&gt;u12 -->
<g id="edge34" class="edge">
<title>u27&#45;&gt;u12</title>
<path fill="none" stroke="black" d="M635.55,-1076.82C589.32,-1065.21 535.46,-1043.49 503.23,-1003 481.44,-975.62 479.52,-933.77 481.11,-906.39"/>
<polygon fill="black" stroke="black" points="484.6,-906.56 481.89,-896.32 477.62,-906.02 484.6,-906.56"/>
</g>
<!-- u24 -->
<g id="node14" class="node">
<title>u24</title>
<ellipse fill="#ffff77" stroke="black" cx="852.23" cy="-665" rx="178.97" ry="18"/>
<text text-anchor="middle" x="852.23" y="-661.3" font-family="Times,serif" font-size="14.00">Language.Drasil.Printing.LayoutObj</text>
</g>
<!-- u10 -->
<g id="node19" class="node">
<title>u10</title>
<ellipse fill="#ffff77" stroke="black" cx="1265.23" cy="-452" rx="167.87" ry="18"/>
<text text-anchor="middle" x="1265.23" y="-448.3" font-family="Times,serif" font-size="14.00">Language.Drasil.Printing.Citation</text>
</g>
<!-- u24&#45;&gt;u10 -->
<g id="edge32" class="edge">
<title>u24&#45;&gt;u10</title>
<path fill="none" stroke="black" d="M884.98,-647.27C959.39,-609.26 1141.04,-516.45 1223.41,-474.37"/>
<polygon fill="black" stroke="black" points="1225.16,-477.4 1232.48,-469.73 1221.98,-471.17 1225.16,-477.4"/>
</g>
<!-- u13 -->
<g id="node16" class="node">
<title>u13</title>
<ellipse fill="#ffff77" stroke="black" cx="591.23" cy="-133" rx="223.66" ry="18"/>
<text text-anchor="middle" x="591.23" y="-129.3" font-family="Times,serif" font-size="14.00">Language.Drasil.Printing.PrintingInformation</text>
</g>
<!-- u19 -->
<g id="node24" class="node">
<title>u19</title>
<ellipse fill="#7777ff" stroke="black" cx="211.23" cy="-346" rx="211.46" ry="18"/>
<text text-anchor="middle" x="211.23" y="-342.3" font-family="Times,serif" font-size="14.00">Language.Drasil.Printing.Import.CodeExpr</text>
</g>
<!-- u12&#45;&gt;u19 -->
<g id="edge18" class="edge">
<title>u12&#45;&gt;u19</title>
<path fill="none" stroke="black" d="M404.79,-862.23C358.12,-849.91 300.9,-828.02 262.23,-790 219.74,-748.22 211.23,-725.59 211.23,-666 211.23,-666 211.23,-666 211.23,-558 211.23,-492.06 211.23,-414.54 211.23,-374.32"/>
<polygon fill="black" stroke="black" points="214.73,-374.23 211.23,-364.23 207.73,-374.23 214.73,-374.23"/>
</g>
<!-- u17 -->
<g id="node26" class="node">
<title>u17</title>
<ellipse fill="#7777ff" stroke="black" cx="484.23" cy="-772" rx="212.56" ry="18"/>
<text text-anchor="middle" x="484.23" y="-768.3" font-family="Times,serif" font-size="14.00">Language.Drasil.Printing.Import.Document</text>
</g>
<!-- u12&#45;&gt;u17 -->
<g id="edge17" class="edge">
<title>u12&#45;&gt;u17</title>
<path fill="none" stroke="black" d="M484.23,-859.83C484.23,-843.64 484.23,-819.13 484.23,-800.27"/>
<polygon fill="black" stroke="black" points="487.73,-800.2 484.23,-790.2 480.73,-800.2 487.73,-800.2"/>
</g>
<!-- u11&#45;&gt;u10 -->
<g id="edge16" class="edge">
<title>u11&#45;&gt;u10</title>
<path fill="none" stroke="black" d="M1397.01,-541.13C1370.34,-523.3 1328.15,-495.08 1298.71,-475.39"/>
<polygon fill="black" stroke="black" points="1300.65,-472.48 1290.39,-469.83 1296.76,-478.3 1300.65,-472.48"/>
</g>
<!-- u10&#45;&gt;u14 -->
<g id="edge15" class="edge">
<title>u10&#45;&gt;u14</title>
<path fill="none" stroke="black" d="M1268.6,-433.82C1277.82,-382.37 1299.36,-226.25 1246.23,-115 1233.4,-88.12 1208.15,-65.77 1186.77,-50.46"/>
<polygon fill="black" stroke="black" points="1188.72,-47.55 1178.5,-44.74 1184.73,-53.3 1188.72,-47.55"/>
</g>
<!-- u23 -->
<g id="node20" class="node">
<title>u23</title>
<ellipse fill="#7777ff" stroke="black" cx="628.23" cy="-240" rx="196.07" ry="18"/>
<text text-anchor="middle" x="628.23" y="-236.3" font-family="Times,serif" font-size="14.00">Language.Drasil.Printing.Import.Literal</text>
</g>
<!-- u23&#45;&gt;u13 -->
<g id="edge30" class="edge">
<title>u23&#45;&gt;u13</title>
<path fill="none" stroke="black" d="M622.12,-221.66C616.28,-205.07 607.37,-179.81 600.63,-160.66"/>
<polygon fill="black" stroke="black" points="603.85,-159.28 597.23,-151.02 597.25,-161.61 603.85,-159.28"/>
</g>
<!-- u18 -->
<g id="node25" class="node">
<title>u18</title>
<ellipse fill="#7777ff" stroke="black" cx="1035.23" cy="-133" rx="202.26" ry="18"/>
<text text-anchor="middle" x="1035.23" y="-129.3" font-family="Times,serif" font-size="14.00">Language.Drasil.Printing.Import.Helpers</text>
</g>
<!-- u23&#45;&gt;u18 -->
<g id="edge31" class="edge">
<title>u23&#45;&gt;u18</title>
<path fill="none" stroke="black" d="M690.93,-222.82C764.13,-203.94 884.99,-172.76 962.32,-152.81"/>
<polygon fill="black" stroke="black" points="963.65,-156.08 972.46,-150.19 961.9,-149.3 963.65,-156.08"/>
</g>
<!-- u22 -->
<g id="node21" class="node">
<title>u22</title>
<ellipse fill="#7777ff" stroke="black" cx="499.23" cy="-559" rx="216.36" ry="18"/>
<text text-anchor="middle" x="499.23" y="-555.3" font-family="Times,serif" font-size="14.00">Language.Drasil.Printing.Import.ModelExpr</text>
</g>
<!-- u16 -->
<g id="node27" class="node">
<title>u16</title>
<ellipse fill="#7777ff" stroke="black" cx="542.23" cy="-452" rx="193.07" ry="18"/>
<text text-anchor="middle" x="542.23" y="-448.3" font-family="Times,serif" font-size="14.00">Language.Drasil.Printing.Import.Space</text>
</g>
<!-- u22&#45;&gt;u16 -->
<g id="edge29" class="edge">
<title>u22&#45;&gt;u16</title>
<path fill="none" stroke="black" d="M506.33,-540.66C513.16,-524 523.57,-498.58 531.42,-479.4"/>
<polygon fill="black" stroke="black" points="534.71,-480.6 535.26,-470.02 528.23,-477.94 534.71,-480.6"/>
</g>
<!-- u21 -->
<g id="node22" class="node">
<title>u21</title>
<ellipse fill="#7777ff" stroke="black" cx="628.23" cy="-346" rx="187.67" ry="18"/>
<text text-anchor="middle" x="628.23" y="-342.3" font-family="Times,serif" font-size="14.00">Language.Drasil.Printing.Import.Expr</text>
</g>
<!-- u21&#45;&gt;u23 -->
<g id="edge28" class="edge">
<title>u21&#45;&gt;u23</title>
<path fill="none" stroke="black" d="M628.23,-327.83C628.23,-311.64 628.23,-287.13 628.23,-268.27"/>
<polygon fill="black" stroke="black" points="631.73,-268.2 628.23,-258.2 624.73,-268.2 631.73,-268.2"/>
</g>
<!-- u20 -->
<g id="node23" class="node">
<title>u20</title>
<ellipse fill="#7777ff" stroke="black" cx="214.23" cy="-240" rx="200.36" ry="18"/>
<text text-anchor="middle" x="214.23" y="-236.3" font-family="Times,serif" font-size="14.00">Language.Drasil.Printing.Import.Symbol</text>
</g>
<!-- u21&#45;&gt;u20 -->
<g id="edge27" class="edge">
<title>u21&#45;&gt;u20</title>
<path fill="none" stroke="black" d="M564.45,-328.98C489.95,-310.26 366.91,-279.35 288.26,-259.6"/>
<polygon fill="black" stroke="black" points="288.98,-256.17 278.42,-257.13 287.27,-262.96 288.98,-256.17"/>
</g>
<!-- u20&#45;&gt;u14 -->
<g id="edge26" class="edge">
<title>u20&#45;&gt;u14</title>
<path fill="none" stroke="black" d="M228.02,-221.75C251.44,-193.84 301.96,-139.47 358.23,-115 470.06,-66.37 803.51,-43.46 1000.28,-33.91"/>
<polygon fill="black" stroke="black" points="1000.6,-37.4 1010.42,-33.42 1000.26,-30.4 1000.6,-37.4"/>
</g>
<!-- u19&#45;&gt;u23 -->
<g id="edge25" class="edge">
<title>u19&#45;&gt;u23</title>
<path fill="none" stroke="black" d="M275.93,-328.86C351.07,-310.12 474.79,-279.27 553.83,-259.55"/>
<polygon fill="black" stroke="black" points="554.87,-262.9 563.72,-257.09 553.17,-256.11 554.87,-262.9"/>
</g>
<!-- u19&#45;&gt;u20 -->
<g id="edge24" class="edge">
<title>u19&#45;&gt;u20</title>
<path fill="none" stroke="black" d="M211.73,-327.83C212.19,-311.64 212.9,-287.13 213.44,-268.27"/>
<polygon fill="black" stroke="black" points="216.95,-268.3 213.74,-258.2 209.95,-268.09 216.95,-268.3"/>
</g>
<!-- u18&#45;&gt;u14 -->
<g id="edge23" class="edge">
<title>u18&#45;&gt;u14</title>
<path fill="none" stroke="black" d="M1053.96,-115.06C1073.01,-97.83 1102.68,-71 1124.05,-51.68"/>
<polygon fill="black" stroke="black" points="1126.44,-54.24 1131.51,-44.93 1121.74,-49.05 1126.44,-54.24"/>
</g>
<!-- u17&#45;&gt;u24 -->
<g id="edge22" class="edge">
<title>u17&#45;&gt;u24</title>
<path fill="none" stroke="black" d="M541.73,-754.59C607.82,-735.74 716.1,-704.84 785.75,-684.97"/>
<polygon fill="black" stroke="black" points="787.08,-688.23 795.74,-682.12 785.16,-681.5 787.08,-688.23"/>
</g>
<!-- u15 -->
<g id="node28" class="node">
<title>u15</title>
<ellipse fill="#7777ff" stroke="black" cx="447.23" cy="-665" rx="207.96" ry="18"/>
<text text-anchor="middle" x="447.23" y="-661.3" font-family="Times,serif" font-size="14.00">Language.Drasil.Printing.Import.Sentence</text>
</g>
<!-- u17&#45;&gt;u15 -->
<g id="edge21" class="edge">
<title>u17&#45;&gt;u15</title>
<path fill="none" stroke="black" d="M478.12,-753.66C472.28,-737.07 463.37,-711.81 456.63,-692.66"/>
<polygon fill="black" stroke="black" points="459.85,-691.28 453.23,-683.02 453.25,-693.61 459.85,-691.28"/>
</g>
<!-- u16&#45;&gt;u21 -->
<g id="edge20" class="edge">
<title>u16&#45;&gt;u21</title>
<path fill="none" stroke="black" d="M556.43,-433.83C570.38,-416.97 591.79,-391.06 607.61,-371.94"/>
<polygon fill="black" stroke="black" points="610.33,-374.14 614.01,-364.2 604.94,-369.68 610.33,-374.14"/>
</g>
<!-- u15&#45;&gt;u22 -->
<g id="edge19" class="edge">
<title>u15&#45;&gt;u22</title>
<path fill="none" stroke="black" d="M455.82,-646.83C464.06,-630.34 476.62,-605.22 486.12,-586.23"/>
<polygon fill="black" stroke="black" points="489.29,-587.71 490.63,-577.2 483.03,-584.58 489.29,-587.71"/>
</g>
<!-- u31 -->
<g id="node29" class="node">
<title>u31</title>
<ellipse fill="#ff7777" stroke="black" cx="852.23" cy="-878" rx="154.07" ry="18"/>
<text text-anchor="middle" x="852.23" y="-874.3" font-family="Times,serif" font-size="14.00">Language.Drasil.TeX.Preamble</text>
</g>
<!-- u31&#45;&gt;u24 -->
<g id="edge40" class="edge">
<title>u31&#45;&gt;u24</title>
<path fill="none" stroke="black" d="M852.23,-859.73C852.23,-823.09 852.23,-737.3 852.23,-693.21"/>
<polygon fill="black" stroke="black" points="855.73,-693.21 852.23,-683.21 848.73,-693.21 855.73,-693.21"/>
</g>
<!-- u29 -->
<g id="node31" class="node">
<title>u29</title>
<ellipse fill="#ff7777" stroke="black" cx="1168.23" cy="-772" rx="146.47" ry="18"/>
<text text-anchor="middle" x="1168.23" y="-768.3" font-family="Times,serif" font-size="14.00">Language.Drasil.TeX.Helpers</text>
</g>
<!-- u31&#45;&gt;u29 -->
<g id="edge41" class="edge">
<title>u31&#45;&gt;u29</title>
<path fill="none" stroke="black" d="M901.26,-860.86C957.59,-842.33 1049.94,-811.93 1109.9,-792.2"/>
<polygon fill="black" stroke="black" points="1111.2,-795.45 1119.61,-789 1109.01,-788.8 1111.2,-795.45"/>
</g>
<!-- u30 -->
<g id="node30" class="node">
<title>u30</title>
<ellipse fill="#ff7777" stroke="black" cx="1447.23" cy="-665" rx="141.88" ry="18"/>
<text text-anchor="middle" x="1447.23" y="-661.3" font-family="Times,serif" font-size="14.00">Language.Drasil.TeX.Monad</text>
</g>
<!-- u30&#45;&gt;u11 -->
<g id="edge39" class="edge">
<title>u30&#45;&gt;u11</title>
<path fill="none" stroke="black" d="M1443.1,-646.83C1439.19,-630.57 1433.27,-605.9 1428.72,-587.01"/>
<polygon fill="black" stroke="black" points="1432.11,-586.1 1426.37,-577.2 1425.3,-587.74 1432.11,-586.1"/>
</g>
<!-- u29&#45;&gt;u4 -->
<g id="edge37" class="edge">
<title>u29&#45;&gt;u4</title>
<path fill="none" stroke="black" d="M1168.23,-753.66C1168.23,-737.22 1168.23,-712.28 1168.23,-693.19"/>
<polygon fill="black" stroke="black" points="1171.73,-693.02 1168.23,-683.02 1164.73,-693.02 1171.73,-693.02"/>
</g>
<!-- u29&#45;&gt;u30 -->
<g id="edge38" class="edge">
<title>u29&#45;&gt;u30</title>
<path fill="none" stroke="black" d="M1211.52,-754.71C1260.94,-736.11 1341.78,-705.69 1394.75,-685.75"/>
<polygon fill="black" stroke="black" points="1396.17,-688.95 1404.3,-682.16 1393.71,-682.4 1396.17,-688.95"/>
</g>
<!-- u28&#45;&gt;u12 -->
<g id="edge35" class="edge">
<title>u28&#45;&gt;u12</title>
<path fill="none" stroke="black" d="M619.36,-967.13C592.02,-949.3 548.75,-921.08 518.56,-901.39"/>
<polygon fill="black" stroke="black" points="520.32,-898.36 510.03,-895.83 516.5,-904.22 520.32,-898.36"/>
</g>
<!-- u28&#45;&gt;u31 -->
<g id="edge36" class="edge">
<title>u28&#45;&gt;u31</title>
<path fill="none" stroke="black" d="M678.03,-967.36C713.81,-949.21 771.18,-920.11 810.23,-900.31"/>
<polygon fill="black" stroke="black" points="811.91,-903.38 819.24,-895.73 808.74,-897.14 811.91,-903.38"/>
</g>
</g>
</svg>
