<?xml version="1.0" encoding="UTF-8" standalone="no"?>
<!DOCTYPE svg PUBLIC "-//W3C//DTD SVG 1.1//EN"
 "http://www.w3.org/Graphics/SVG/1.1/DTD/svg11.dtd">
<!-- Generated by graphviz version 2.43.0 (0)
 -->
<!-- Title: G Pages: 1 -->
<svg width="431pt" height="288pt"
 viewBox="0.00 0.00 430.63 288.00" xmlns="http://www.w3.org/2000/svg" xmlns:xlink="http://www.w3.org/1999/xlink">
<g id="graph0" class="graph" transform="scale(0.4 0.4) rotate(0) translate(4 718)">
<title>G</title>
<polygon fill="white" stroke="transparent" points="-4,4 -4,-718 1075.58,-718 1075.58,4 -4,4"/>
<!-- u9 -->
<g id="node1" class="node">
<title>u9</title>
<ellipse fill="#bbffbb" stroke="black" cx="625.24" cy="-255" rx="141.88" ry="18"/>
<text text-anchor="middle" x="625.24" y="-251.3" font-family="Times,serif" font-size="14.00">Data.Drasil.TheoryConcepts</text>
</g>
<!-- u0 -->
<g id="node2" class="node">
<title>u0</title>
<ellipse fill="#ffffbb" stroke="black" cx="486.24" cy="-663" rx="72.29" ry="18"/>
<text text-anchor="middle" x="486.24" y="-659.3" font-family="Times,serif" font-size="14.00">Theory.Drasil</text>
</g>
<!-- u7 -->
<g id="node4" class="node">
<title>u7</title>
<ellipse fill="#bbbbff" stroke="black" cx="107.24" cy="-459" rx="107.48" ry="18"/>
<text text-anchor="middle" x="107.24" y="-455.3" font-family="Times,serif" font-size="14.00">Theory.Drasil.Theory</text>
</g>
<!-- u0&#45;&gt;u7 -->
<g id="edge4" class="edge">
<title>u0&#45;&gt;u7</title>
<path fill="none" stroke="black" d="M457.13,-646.48C389.76,-610.58 223.02,-521.71 146.62,-480.99"/>
<polygon fill="black" stroke="black" points="148.24,-477.88 137.76,-476.27 144.94,-484.06 148.24,-477.88"/>
</g>
<!-- u6 -->
<g id="node5" class="node">
<title>u6</title>
<ellipse fill="#bbbbff" stroke="black" cx="625.24" cy="-459" rx="143.77" ry="18"/>
<text text-anchor="middle" x="625.24" y="-455.3" font-family="Times,serif" font-size="14.00">Theory.Drasil.InstanceModel</text>
</g>
<!-- u0&#45;&gt;u6 -->
<g id="edge3" class="edge">
<title>u0&#45;&gt;u6</title>
<path fill="none" stroke="black" d="M497.85,-645.13C522.28,-609.63 579.09,-527.06 607.87,-485.24"/>
<polygon fill="black" stroke="black" points="610.78,-487.19 613.56,-476.97 605.01,-483.22 610.78,-487.19"/>
</g>
<!-- u5 -->
<g id="node6" class="node">
<title>u5</title>
<ellipse fill="#bbbbff" stroke="black" cx="348.24" cy="-459" rx="115.88" ry="18"/>
<text text-anchor="middle" x="348.24" y="-455.3" font-family="Times,serif" font-size="14.00">Theory.Drasil.GenDefn</text>
</g>
<!-- u0&#45;&gt;u5 -->
<g id="edge2" class="edge">
<title>u0&#45;&gt;u5</title>
<path fill="none" stroke="black" d="M474.71,-645.13C450.46,-609.63 394.06,-527.06 365.49,-485.24"/>
<polygon fill="black" stroke="black" points="368.36,-483.25 359.83,-476.97 362.58,-487.2 368.36,-483.25"/>
</g>
<!-- u1 -->
<g id="node10" class="node">
<title>u1</title>
<ellipse fill="#bbbbff" stroke="black" cx="929.24" cy="-459" rx="142.17" ry="18"/>
<text text-anchor="middle" x="929.24" y="-455.3" font-family="Times,serif" font-size="14.00">Theory.Drasil.DataDefinition</text>
</g>
<!-- u0&#45;&gt;u1 -->
<g id="edge1" class="edge">
<title>u0&#45;&gt;u1</title>
<path fill="none" stroke="black" d="M519.18,-646.98C597.34,-611.34 794.16,-521.59 883.67,-480.78"/>
<polygon fill="black" stroke="black" points="885.37,-483.85 893.01,-476.52 882.46,-477.48 885.37,-483.85"/>
</g>
<!-- u8 -->
<g id="node3" class="node">
<title>u8</title>
<ellipse fill="#bbbbff" stroke="black" cx="335.24" cy="-255" rx="129.98" ry="18"/>
<text text-anchor="middle" x="335.24" y="-251.3" font-family="Times,serif" font-size="14.00">Theory.Drasil.ModelKinds</text>
</g>
<!-- u4 -->
<g id="node7" class="node">
<title>u4</title>
<ellipse fill="#bbbbff" stroke="black" cx="195.24" cy="-51" rx="139.98" ry="18"/>
<text text-anchor="middle" x="195.24" y="-47.3" font-family="Times,serif" font-size="14.00">Theory.Drasil.ConstraintSet</text>
</g>
<!-- u8&#45;&gt;u4 -->
<g id="edge15" class="edge">
<title>u8&#45;&gt;u4</title>
<path fill="none" stroke="black" d="M323.3,-236.78C298.61,-201.15 241.81,-119.19 212.88,-77.45"/>
<polygon fill="black" stroke="black" points="215.72,-75.4 207.15,-69.18 209.97,-79.39 215.72,-75.4"/>
</g>
<!-- u2 -->
<g id="node9" class="node">
<title>u2</title>
<ellipse fill="#bbbbff" stroke="black" cx="475.24" cy="-51" rx="122.38" ry="18"/>
<text text-anchor="middle" x="475.24" y="-47.3" font-family="Times,serif" font-size="14.00">Theory.Drasil.MultiDefn</text>
</g>
<!-- u8&#45;&gt;u2 -->
<g id="edge14" class="edge">
<title>u8&#45;&gt;u2</title>
<path fill="none" stroke="black" d="M347.18,-236.78C371.87,-201.15 428.67,-119.19 457.6,-77.45"/>
<polygon fill="black" stroke="black" points="460.51,-79.39 463.33,-69.18 454.76,-75.4 460.51,-79.39"/>
</g>
<!-- u7&#45;&gt;u9 -->
<g id="edge13" class="edge">
<title>u7&#45;&gt;u9</title>
<path fill="none" stroke="black" d="M147.89,-442.15C241.23,-405.75 470.79,-316.23 573.78,-276.07"/>
<polygon fill="black" stroke="black" points="575.3,-279.23 583.34,-272.34 572.76,-272.71 575.3,-279.23"/>
</g>
<!-- u7&#45;&gt;u8 -->
<g id="edge12" class="edge">
<title>u7&#45;&gt;u8</title>
<path fill="none" stroke="black" d="M126.29,-441.13C166.86,-405.18 261.89,-320.98 308.5,-279.69"/>
<polygon fill="black" stroke="black" points="310.92,-282.22 316.09,-272.97 306.28,-276.98 310.92,-282.22"/>
</g>
<!-- u6&#45;&gt;u9 -->
<g id="edge11" class="edge">
<title>u6&#45;&gt;u9</title>
<path fill="none" stroke="black" d="M625.24,-440.78C625.24,-405.67 625.24,-325.59 625.24,-283.31"/>
<polygon fill="black" stroke="black" points="628.74,-283.18 625.24,-273.18 621.74,-283.18 628.74,-283.18"/>
</g>
<!-- u6&#45;&gt;u8 -->
<g id="edge10" class="edge">
<title>u6&#45;&gt;u8</title>
<path fill="none" stroke="black" d="M601.01,-441.13C549.09,-404.96 427.03,-319.94 368.15,-278.92"/>
<polygon fill="black" stroke="black" points="369.81,-275.81 359.6,-272.97 365.81,-281.56 369.81,-275.81"/>
</g>
<!-- u3 -->
<g id="node8" class="node">
<title>u3</title>
<ellipse fill="#bbbbff" stroke="black" cx="912.24" cy="-255" rx="110.48" ry="18"/>
<text text-anchor="middle" x="912.24" y="-251.3" font-family="Times,serif" font-size="14.00">Theory.Drasil.Classes</text>
</g>
<!-- u6&#45;&gt;u3 -->
<g id="edge9" class="edge">
<title>u6&#45;&gt;u3</title>
<path fill="none" stroke="black" d="M649.22,-441.13C700.73,-404.87 822,-319.51 880.1,-278.62"/>
<polygon fill="black" stroke="black" points="882.37,-281.3 888.53,-272.68 878.34,-275.58 882.37,-281.3"/>
</g>
<!-- u5&#45;&gt;u9 -->
<g id="edge8" class="edge">
<title>u5&#45;&gt;u9</title>
<path fill="none" stroke="black" d="M371.38,-441.13C420.98,-404.96 537.56,-319.94 593.8,-278.92"/>
<polygon fill="black" stroke="black" points="595.95,-281.69 601.97,-272.97 591.83,-276.03 595.95,-281.69"/>
</g>
<!-- u5&#45;&gt;u8 -->
<g id="edge7" class="edge">
<title>u5&#45;&gt;u8</title>
<path fill="none" stroke="black" d="M347.13,-440.78C344.87,-405.67 339.72,-325.59 337,-283.31"/>
<polygon fill="black" stroke="black" points="340.48,-282.93 336.35,-273.18 333.5,-283.38 340.48,-282.93"/>
</g>
<!-- u1&#45;&gt;u9 -->
<g id="edge6" class="edge">
<title>u1&#45;&gt;u9</title>
<path fill="none" stroke="black" d="M903.84,-441.13C849.3,-404.88 720.94,-319.59 659.36,-278.67"/>
<polygon fill="black" stroke="black" points="661.04,-275.59 650.78,-272.97 657.17,-281.42 661.04,-275.59"/>
</g>
<!-- u1&#45;&gt;u3 -->
<g id="edge5" class="edge">
<title>u1&#45;&gt;u3</title>
<path fill="none" stroke="black" d="M927.79,-440.78C924.84,-405.67 918.1,-325.59 914.54,-283.31"/>
<polygon fill="black" stroke="black" points="918.01,-282.85 913.69,-273.18 911.04,-283.44 918.01,-282.85"/>
</g>
</g>
</svg>
