<?xml version="1.0" encoding="UTF-8" standalone="no"?>
<!DOCTYPE svg PUBLIC "-//W3C//DTD SVG 1.1//EN"
 "http://www.w3.org/Graphics/SVG/1.1/DTD/svg11.dtd">
<!-- Generated by graphviz version 2.43.0 (0)
 -->
<!-- Title: G Pages: 1 -->
<svg width="431pt" height="288pt"
 viewBox="0.00 0.00 431.12 288.00" xmlns="http://www.w3.org/2000/svg" xmlns:xlink="http://www.w3.org/1999/xlink">
<g id="graph0" class="graph" transform="scale(3.95 3.95) rotate(0) translate(4 1134.67)">
<title>G</title>
<polygon fill="white" stroke="transparent" points="-4,4 -4,-1134.67 1700.53,-1134.67 1700.53,4 -4,4"/>
<!-- u8 -->
<g id="node1" class="node">
<title>u8</title>
<ellipse fill="#bbffbb" stroke="black" cx="131.29" cy="-404" rx="131.08" ry="18"/>
<text text-anchor="middle" x="131.29" y="-400.3" font-family="Times,serif" font-size="14.00">Drasil.Website.CaseStudy</text>
</g>
<!-- u2 -->
<g id="node7" class="node">
<title>u2</title>
<ellipse fill="#bbffbb" stroke="black" cx="131.29" cy="-81" rx="122.38" ry="18"/>
<text text-anchor="middle" x="131.29" y="-77.3" font-family="Times,serif" font-size="14.00">Drasil.Website.Example</text>
</g>
<!-- u8&#45;&gt;u2 -->
<g id="edge8" class="edge">
<title>u8&#45;&gt;u2</title>
<path fill="none" stroke="black" d="M131.29,-385.74C131.29,-333.05 131.29,-173.96 131.29,-109.54"/>
<polygon fill="black" stroke="black" points="134.79,-109.34 131.29,-99.34 127.79,-109.34 134.79,-109.34"/>
</g>
<!-- u7 -->
<g id="node2" class="node">
<title>u7</title>
<ellipse fill="#bbffbb" stroke="black" cx="432.29" cy="-404" rx="152.17" ry="18"/>
<text text-anchor="middle" x="432.29" y="-400.3" font-family="Times,serif" font-size="14.00">Drasil.Website.Documentation</text>
</g>
<!-- u6 -->
<g id="node3" class="node">
<title>u6</title>
<ellipse fill="#bbffbb" stroke="black" cx="754.29" cy="-404" rx="151.37" ry="18"/>
<text text-anchor="middle" x="754.29" y="-400.3" font-family="Times,serif" font-size="14.00">Drasil.Website.GettingStarted</text>
</g>
<!-- u5 -->
<g id="node4" class="node">
<title>u5</title>
<ellipse fill="#bbffbb" stroke="black" cx="908.29" cy="-727" rx="104.78" ry="18"/>
<text text-anchor="middle" x="908.29" y="-723.3" font-family="Times,serif" font-size="14.00">Drasil.Website.Body</text>
</g>
<!-- u5&#45;&gt;u8 -->
<g id="edge7" class="edge">
<title>u5&#45;&gt;u8</title>
<path fill="none" stroke="black" d="M870.02,-710.19C741.18,-656.96 323.24,-484.3 179.99,-425.12"/>
<polygon fill="black" stroke="black" points="181.14,-421.81 170.56,-421.22 178.46,-428.28 181.14,-421.81"/>
</g>
<!-- u5&#45;&gt;u7 -->
<g id="edge6" class="edge">
<title>u5&#45;&gt;u7</title>
<path fill="none" stroke="black" d="M883.7,-709.42C804.57,-656.05 556.41,-488.7 465.82,-427.61"/>
<polygon fill="black" stroke="black" points="467.55,-424.56 457.3,-421.87 463.64,-430.36 467.55,-424.56"/>
</g>
<!-- u5&#45;&gt;u6 -->
<g id="edge5" class="edge">
<title>u5&#45;&gt;u6</title>
<path fill="none" stroke="black" d="M900.01,-708.74C874.63,-655.84 797.78,-495.65 767.12,-431.74"/>
<polygon fill="black" stroke="black" points="770.09,-429.85 762.61,-422.34 763.78,-432.87 770.09,-429.85"/>
</g>
<!-- u4 -->
<g id="node5" class="node">
<title>u4</title>
<ellipse fill="#bbffbb" stroke="black" cx="1063.29" cy="-404" rx="139.18" ry="18"/>
<text text-anchor="middle" x="1063.29" y="-400.3" font-family="Times,serif" font-size="14.00">Drasil.Website.Introduction</text>
</g>
<!-- u5&#45;&gt;u4 -->
<g id="edge4" class="edge">
<title>u5&#45;&gt;u4</title>
<path fill="none" stroke="black" d="M916.62,-708.74C942.22,-655.73 1019.84,-494.99 1050.57,-431.35"/>
<polygon fill="black" stroke="black" points="1053.72,-432.87 1054.91,-422.34 1047.41,-429.83 1053.72,-432.87"/>
</g>
<!-- u3 -->
<g id="node6" class="node">
<title>u3</title>
<ellipse fill="#bbffbb" stroke="black" cx="1329.29" cy="-404" rx="108.58" ry="18"/>
<text text-anchor="middle" x="1329.29" y="-400.3" font-family="Times,serif" font-size="14.00">Drasil.Website.About</text>
</g>
<!-- u5&#45;&gt;u3 -->
<g id="edge3" class="edge">
<title>u5&#45;&gt;u3</title>
<path fill="none" stroke="black" d="M930.33,-709.19C1000.52,-655.67 1218.92,-489.15 1299.25,-427.91"/>
<polygon fill="black" stroke="black" points="1301.63,-430.49 1307.46,-421.64 1297.39,-424.92 1301.63,-430.49"/>
</g>
<!-- u1 -->
<g id="node8" class="node">
<title>u1</title>
<ellipse fill="#bbffbb" stroke="black" cx="1576.29" cy="-404" rx="120.48" ry="18"/>
<text text-anchor="middle" x="1576.29" y="-400.3" font-family="Times,serif" font-size="14.00">Drasil.Website.Analysis</text>
</g>
<!-- u5&#45;&gt;u1 -->
<g id="edge2" class="edge">
<title>u5&#45;&gt;u1</title>
<path fill="none" stroke="black" d="M941.87,-709.86C1053.01,-656.46 1408.81,-485.48 1533.01,-425.8"/>
<polygon fill="black" stroke="black" points="1534.74,-428.85 1542.24,-421.36 1531.71,-422.54 1534.74,-428.85"/>
</g>
<!-- u0 -->
<g id="node9" class="node">
<title>u0</title>
<ellipse fill="#ffffbb" stroke="black" cx="908.29" cy="-1050" rx="122.38" ry="18"/>
<text text-anchor="middle" x="908.29" y="-1046.3" font-family="Times,serif" font-size="14.00">drasil&#45;website.app.Main</text>
</g>
<!-- u0&#45;&gt;u5 -->
<g id="edge1" class="edge">
<title>u0&#45;&gt;u5</title>
<path fill="none" stroke="black" d="M908.29,-1031.74C908.29,-979.05 908.29,-819.96 908.29,-755.54"/>
<polygon fill="black" stroke="black" points="911.79,-755.34 908.29,-745.34 904.79,-755.34 911.79,-755.34"/>
</g>
</g>
</svg>
