<?xml version="1.0" encoding="UTF-8" standalone="no"?>
<!DOCTYPE svg PUBLIC "-//W3C//DTD SVG 1.1//EN"
 "http://www.w3.org/Graphics/SVG/1.1/DTD/svg11.dtd">
<!-- Generated by graphviz version 2.43.0 (0)
 -->
<!-- Title: G Pages: 1 -->
<svg width="432pt" height="287pt"
 viewBox="0.00 0.00 432.00 286.93" xmlns="http://www.w3.org/2000/svg" xmlns:xlink="http://www.w3.org/1999/xlink">
<g id="graph0" class="graph" transform="scale(0.09 0.09) rotate(0) translate(4 3134.67)">
<title>G</title>
<polygon fill="white" stroke="transparent" points="-4,4 -4,-3134.67 4721.6,-3134.67 4721.6,4 -4,4"/>
<!-- u32 -->
<g id="node1" class="node">
<title>u32</title>
<ellipse fill="#bbffbb" stroke="black" cx="2618.67" cy="-2302" rx="133.78" ry="18"/>
<text text-anchor="middle" x="2618.67" y="-2298.3" font-family="Times,serif" font-size="14.00">Drasil.DocumentLanguage</text>
</g>
<!-- u12 -->
<g id="node5" class="node">
<title>u12</title>
<ellipse fill="#bbffbb" stroke="black" cx="1815.67" cy="-1934" rx="92.08" ry="18"/>
<text text-anchor="middle" x="1815.67" y="-1930.3" font-family="Times,serif" font-size="14.00">Drasil.TraceTable</text>
</g>
<!-- u32&#45;&gt;u12 -->
<g id="edge60" class="edge">
<title>u32&#45;&gt;u12</title>
<path fill="none" stroke="black" d="M2582.6,-2284.56C2451.79,-2224.94 2002.45,-2020.14 1859.62,-1955.03"/>
<polygon fill="black" stroke="black" points="1860.82,-1951.73 1850.27,-1950.77 1857.92,-1958.1 1860.82,-1951.73"/>
</g>
<!-- u8 -->
<g id="node8" class="node">
<title>u8</title>
<ellipse fill="#bbffbb" stroke="black" cx="933.67" cy="-1934" rx="116.18" ry="18"/>
<text text-anchor="middle" x="933.67" y="-1930.3" font-family="Times,serif" font-size="14.00">Drasil.ExtractDocDesc</text>
</g>
<!-- u32&#45;&gt;u8 -->
<g id="edge59" class="edge">
<title>u32&#45;&gt;u8</title>
<path fill="none" stroke="black" d="M2551.31,-2286.37C2282.77,-2228.04 1289.47,-2012.29 1008.28,-1951.21"/>
<polygon fill="black" stroke="black" points="1008.7,-1947.72 998.19,-1949.01 1007.22,-1954.56 1008.7,-1947.72"/>
</g>
<!-- u0 -->
<g id="node9" class="node">
<title>u0</title>
<ellipse fill="#bbffbb" stroke="black" cx="1466.67" cy="-1934" rx="79.09" ry="18"/>
<text text-anchor="middle" x="1466.67" y="-1930.3" font-family="Times,serif" font-size="14.00">Drasil.DocDecl</text>
</g>
<!-- u32&#45;&gt;u0 -->
<g id="edge57" class="edge">
<title>u32&#45;&gt;u0</title>
<path fill="none" stroke="black" d="M2569.17,-2285.27C2381.64,-2225.7 1715.68,-2014.11 1520.68,-1952.16"/>
<polygon fill="black" stroke="black" points="1521.54,-1948.76 1510.95,-1949.07 1519.42,-1955.43 1521.54,-1948.76"/>
</g>
<!-- u27 -->
<g id="node12" class="node">
<title>u27</title>
<ellipse fill="#ffffbb" stroke="black" cx="2142.67" cy="-1934" rx="136.48" ry="18"/>
<text text-anchor="middle" x="2142.67" y="-1930.3" font-family="Times,serif" font-size="14.00">Drasil.DocLang.References</text>
</g>
<!-- u32&#45;&gt;u27 -->
<g id="edge65" class="edge">
<title>u32&#45;&gt;u27</title>
<path fill="none" stroke="black" d="M2596.66,-2284.08C2519.52,-2224.77 2261.25,-2026.18 2172.74,-1958.12"/>
<polygon fill="black" stroke="black" points="2174.77,-1955.27 2164.71,-1951.95 2170.51,-1960.82 2174.77,-1955.27"/>
</g>
<!-- u1 -->
<g id="node19" class="node">
<title>u1</title>
<ellipse fill="#ffbbbb" stroke="black" cx="2618.67" cy="-1934" rx="220.96" ry="18"/>
<text text-anchor="middle" x="2618.67" y="-1930.3" font-family="Times,serif" font-size="14.00">Drasil.DocumentLanguage.TraceabilityGraph</text>
</g>
<!-- u32&#45;&gt;u1 -->
<g id="edge58" class="edge">
<title>u32&#45;&gt;u1</title>
<path fill="none" stroke="black" d="M2618.67,-2283.84C2618.67,-2225.36 2618.67,-2033.58 2618.67,-1962.14"/>
<polygon fill="black" stroke="black" points="2622.17,-1962.12 2618.67,-1952.12 2615.17,-1962.12 2622.17,-1962.12"/>
</g>
<!-- u24 -->
<g id="node21" class="node">
<title>u24</title>
<ellipse fill="#ffbbff" stroke="black" cx="3542.67" cy="-1565" rx="161.37" ry="18"/>
<text text-anchor="middle" x="3542.67" y="-1561.3" font-family="Times,serif" font-size="14.00">Drasil.Sections.TableOfContents</text>
</g>
<!-- u32&#45;&gt;u24 -->
<g id="edge64" class="edge">
<title>u32&#45;&gt;u24</title>
<path fill="none" stroke="black" d="M2640.15,-2283.91C2762.62,-2186.49 3372.23,-1701.58 3513.43,-1589.26"/>
<polygon fill="black" stroke="black" points="3515.66,-1591.96 3521.3,-1582.99 3511.3,-1586.48 3515.66,-1591.96"/>
</g>
<!-- u21 -->
<g id="node24" class="node">
<title>u21</title>
<ellipse fill="#ffbbff" stroke="black" cx="2867.67" cy="-1565" rx="141.88" ry="18"/>
<text text-anchor="middle" x="2867.67" y="-1561.3" font-family="Times,serif" font-size="14.00">Drasil.Sections.Introduction</text>
</g>
<!-- u32&#45;&gt;u21 -->
<g id="edge63" class="edge">
<title>u32&#45;&gt;u21</title>
<path fill="none" stroke="black" d="M2634.95,-2283.92C2679.24,-2236.19 2801.77,-2095.46 2848.67,-1952 2890.74,-1823.29 2878.28,-1657.61 2871.13,-1593.25"/>
<polygon fill="black" stroke="black" points="2874.58,-1592.65 2869.95,-1583.13 2867.63,-1593.46 2874.58,-1592.65"/>
</g>
<!-- u17 -->
<g id="node28" class="node">
<title>u17</title>
<ellipse fill="#ffbbff" stroke="black" cx="4246.67" cy="-1565" rx="163.27" ry="18"/>
<text text-anchor="middle" x="4246.67" y="-1561.3" font-family="Times,serif" font-size="14.00">Drasil.Sections.GeneralSystDesc</text>
</g>
<!-- u32&#45;&gt;u17 -->
<g id="edge62" class="edge">
<title>u32&#45;&gt;u17</title>
<path fill="none" stroke="black" d="M2654.95,-2284.62C2868.62,-2188.15 3961.62,-1694.69 4200.5,-1586.84"/>
<polygon fill="black" stroke="black" points="4202.27,-1589.89 4209.94,-1582.58 4199.39,-1583.51 4202.27,-1589.89"/>
</g>
<!-- u15 -->
<g id="node30" class="node">
<title>u15</title>
<ellipse fill="#ffbbff" stroke="black" cx="4572.67" cy="-1565" rx="144.87" ry="18"/>
<text text-anchor="middle" x="4572.67" y="-1561.3" font-family="Times,serif" font-size="14.00">Drasil.Sections.Stakeholders</text>
</g>
<!-- u32&#45;&gt;u15 -->
<g id="edge61" class="edge">
<title>u32&#45;&gt;u15</title>
<path fill="none" stroke="black" d="M2661.76,-2284.79C2917.86,-2188.46 4238.25,-1691.79 4519.81,-1585.88"/>
<polygon fill="black" stroke="black" points="4521.26,-1589.08 4529.39,-1582.28 4518.8,-1582.52 4521.26,-1589.08"/>
</g>
<!-- u31 -->
<g id="node2" class="node">
<title>u31</title>
<ellipse fill="#bbffbb" stroke="black" cx="567.67" cy="-1565" rx="116.98" ry="18"/>
<text text-anchor="middle" x="567.67" y="-1561.3" font-family="Times,serif" font-size="14.00">Drasil.ExtractCommon</text>
</g>
<!-- u30 -->
<g id="node3" class="node">
<title>u30</title>
<ellipse fill="#bbffbb" stroke="black" cx="2618.67" cy="-2670" rx="81.79" ry="18"/>
<text text-anchor="middle" x="2618.67" y="-2666.3" font-family="Times,serif" font-size="14.00">Drasil.DocLang</text>
</g>
<!-- u30&#45;&gt;u32 -->
<g id="edge56" class="edge">
<title>u30&#45;&gt;u32</title>
<path fill="none" stroke="black" d="M2618.67,-2651.84C2618.67,-2593.36 2618.67,-2401.58 2618.67,-2330.14"/>
<polygon fill="black" stroke="black" points="2622.17,-2330.12 2618.67,-2320.12 2615.17,-2330.12 2622.17,-2330.12"/>
</g>
<!-- u25 -->
<g id="node4" class="node">
<title>u25</title>
<ellipse fill="#bbffbb" stroke="black" cx="226.67" cy="-1934" rx="115.08" ry="18"/>
<text text-anchor="middle" x="226.67" y="-1930.3" font-family="Times,serif" font-size="14.00">Drasil.ExtractLsnDesc</text>
</g>
<!-- u25&#45;&gt;u31 -->
<g id="edge48" class="edge">
<title>u25&#45;&gt;u31</title>
<path fill="none" stroke="black" d="M242.66,-1915.79C297.81,-1856.43 480.24,-1660.09 544.79,-1590.62"/>
<polygon fill="black" stroke="black" points="547.47,-1592.88 551.71,-1583.17 542.34,-1588.12 547.47,-1592.88"/>
</g>
<!-- u9 -->
<g id="node7" class="node">
<title>u9</title>
<ellipse fill="#bbffbb" stroke="black" cx="1016.67" cy="-460" rx="92.88" ry="18"/>
<text text-anchor="middle" x="1016.67" y="-456.3" font-family="Times,serif" font-size="14.00">Drasil.GetChunks</text>
</g>
<!-- u25&#45;&gt;u9 -->
<g id="edge47" class="edge">
<title>u25&#45;&gt;u9</title>
<path fill="none" stroke="black" d="M204.54,-1916.13C138.72,-1863.77 -47.65,-1698.42 11.67,-1547 221.12,-1012.3 831.11,-583.32 982.41,-483.15"/>
<polygon fill="black" stroke="black" points="984.47,-485.99 990.9,-477.56 980.62,-480.14 984.47,-485.99"/>
</g>
<!-- u4 -->
<g id="node20" class="node">
<title>u4</title>
<ellipse fill="#bbffff" stroke="black" cx="226.67" cy="-1565" rx="206.06" ry="18"/>
<text text-anchor="middle" x="226.67" y="-1561.3" font-family="Times,serif" font-size="14.00">Drasil.DocumentLanguage.Notebook.Core</text>
</g>
<!-- u25&#45;&gt;u4 -->
<g id="edge46" class="edge">
<title>u25&#45;&gt;u4</title>
<path fill="none" stroke="black" d="M226.67,-1915.79C226.67,-1857.16 226.67,-1664.85 226.67,-1593.22"/>
<polygon fill="black" stroke="black" points="230.17,-1593.17 226.67,-1583.17 223.17,-1593.17 230.17,-1593.17"/>
</g>
<!-- u3 -->
<g id="node17" class="node">
<title>u3</title>
<ellipse fill="#ffbbbb" stroke="black" cx="1394.67" cy="-1197" rx="159.47" ry="18"/>
<text text-anchor="middle" x="1394.67" y="-1193.3" font-family="Times,serif" font-size="14.00">Drasil.DocumentLanguage.Core</text>
</g>
<!-- u12&#45;&gt;u3 -->
<g id="edge17" class="edge">
<title>u12&#45;&gt;u3</title>
<path fill="none" stroke="black" d="M1752.45,-1920.87C1549.75,-1880.58 922.56,-1744.52 807.67,-1583 664.63,-1381.92 1115.07,-1258.07 1309.67,-1215.08"/>
<polygon fill="black" stroke="black" points="1310.56,-1218.47 1319.58,-1212.91 1309.07,-1211.63 1310.56,-1218.47"/>
</g>
<!-- u10 -->
<g id="node6" class="node">
<title>u10</title>
<ellipse fill="#bbffbb" stroke="black" cx="2618.67" cy="-3039" rx="108.58" ry="18"/>
<text text-anchor="middle" x="2618.67" y="-3035.3" font-family="Times,serif" font-size="14.00">Drasil.SRSDocument</text>
</g>
<!-- u10&#45;&gt;u30 -->
<g id="edge15" class="edge">
<title>u10&#45;&gt;u30</title>
<path fill="none" stroke="black" d="M2618.67,-3020.79C2618.67,-2962.16 2618.67,-2769.85 2618.67,-2698.22"/>
<polygon fill="black" stroke="black" points="2622.17,-2698.17 2618.67,-2688.17 2615.17,-2698.17 2622.17,-2698.17"/>
</g>
<!-- u8&#45;&gt;u31 -->
<g id="edge14" class="edge">
<title>u8&#45;&gt;u31</title>
<path fill="none" stroke="black" d="M916.5,-1915.79C857.31,-1856.43 661.51,-1660.09 592.22,-1590.62"/>
<polygon fill="black" stroke="black" points="594.33,-1587.78 584.79,-1583.17 589.38,-1592.72 594.33,-1587.78"/>
</g>
<!-- u8&#45;&gt;u3 -->
<g id="edge12" class="edge">
<title>u8&#45;&gt;u3</title>
<path fill="none" stroke="black" d="M914.36,-1916.21C853.61,-1861.3 675.09,-1682.82 755.67,-1547 877.15,-1342.23 1165.78,-1249.86 1309.84,-1215.33"/>
<polygon fill="black" stroke="black" points="1311.03,-1218.65 1319.96,-1212.95 1309.42,-1211.84 1311.03,-1218.65"/>
</g>
<!-- u19 -->
<g id="node26" class="node">
<title>u19</title>
<ellipse fill="#ffbbff" stroke="black" cx="2041.67" cy="-1565" rx="207.96" ry="18"/>
<text text-anchor="middle" x="2041.67" y="-1561.3" font-family="Times,serif" font-size="14.00">Drasil.Sections.SpecificSystemDescription</text>
</g>
<!-- u8&#45;&gt;u19 -->
<g id="edge13" class="edge">
<title>u8&#45;&gt;u19</title>
<path fill="none" stroke="black" d="M980.57,-1917.46C1157.58,-1858.83 1784.99,-1651.02 1982.01,-1585.76"/>
<polygon fill="black" stroke="black" points="1983.23,-1589.04 1991.62,-1582.58 1981.03,-1582.4 1983.23,-1589.04"/>
</g>
<!-- u0&#45;&gt;u3 -->
<g id="edge1" class="edge">
<title>u0&#45;&gt;u3</title>
<path fill="none" stroke="black" d="M1403.13,-1923.21C1260.45,-1897.4 916.05,-1812.95 774.67,-1583 641.88,-1367.03 1095.46,-1253.46 1299.89,-1214.16"/>
<polygon fill="black" stroke="black" points="1300.56,-1217.6 1309.73,-1212.29 1299.25,-1210.72 1300.56,-1217.6"/>
</g>
<!-- u29 -->
<g id="node10" class="node">
<title>u29</title>
<ellipse fill="#ffffbb" stroke="black" cx="3521.67" cy="-1197" rx="104.78" ry="18"/>
<text text-anchor="middle" x="3521.67" y="-1193.3" font-family="Times,serif" font-size="14.00">Drasil.DocLang.SRS</text>
</g>
<!-- u28 -->
<g id="node11" class="node">
<title>u28</title>
<ellipse fill="#ffffbb" stroke="black" cx="488.67" cy="-1934" rx="129.18" ry="18"/>
<text text-anchor="middle" x="488.67" y="-1930.3" font-family="Times,serif" font-size="14.00">Drasil.DocLang.Notebook</text>
</g>
<!-- u23 -->
<g id="node22" class="node">
<title>u23</title>
<ellipse fill="#ffbbff" stroke="black" cx="1348.67" cy="-1565" rx="159.47" ry="18"/>
<text text-anchor="middle" x="1348.67" y="-1561.3" font-family="Times,serif" font-size="14.00">Drasil.Sections.TableOfSymbols</text>
</g>
<!-- u27&#45;&gt;u23 -->
<g id="edge55" class="edge">
<title>u27&#45;&gt;u23</title>
<path fill="none" stroke="black" d="M2107.01,-1916.52C1978.25,-1857 1537.41,-1653.24 1394.08,-1586.99"/>
<polygon fill="black" stroke="black" points="1395.23,-1583.66 1384.68,-1582.65 1392.29,-1590.02 1395.23,-1583.66"/>
</g>
<!-- u20 -->
<g id="node25" class="node">
<title>u20</title>
<ellipse fill="#ffbbff" stroke="black" cx="2468.67" cy="-1565" rx="201.46" ry="18"/>
<text text-anchor="middle" x="2468.67" y="-1561.3" font-family="Times,serif" font-size="14.00">Drasil.Sections.TableOfAbbAndAcronyms</text>
</g>
<!-- u27&#45;&gt;u20 -->
<g id="edge54" class="edge">
<title>u27&#45;&gt;u20</title>
<path fill="none" stroke="black" d="M2157.95,-1915.79C2210.57,-1856.55 2384.38,-1660.89 2446.42,-1591.05"/>
<polygon fill="black" stroke="black" points="2449.39,-1592.97 2453.41,-1583.17 2444.16,-1588.32 2449.39,-1592.97"/>
</g>
<!-- u27&#45;&gt;u19 -->
<g id="edge53" class="edge">
<title>u27&#45;&gt;u19</title>
<path fill="none" stroke="black" d="M2137.93,-1915.79C2121.79,-1857.16 2068.87,-1664.85 2049.16,-1593.22"/>
<polygon fill="black" stroke="black" points="2052.42,-1591.88 2046.39,-1583.17 2045.67,-1593.74 2052.42,-1591.88"/>
</g>
<!-- u18 -->
<g id="node27" class="node">
<title>u18</title>
<ellipse fill="#ffbbff" stroke="black" cx="993.67" cy="-1565" rx="177.37" ry="18"/>
<text text-anchor="middle" x="993.67" y="-1561.3" font-family="Times,serif" font-size="14.00">Drasil.Sections.TraceabilityMandGs</text>
</g>
<!-- u27&#45;&gt;u18 -->
<g id="edge52" class="edge">
<title>u27&#45;&gt;u18</title>
<path fill="none" stroke="black" d="M2092.93,-1917.11C1907.52,-1857.89 1256.89,-1650.08 1054.33,-1585.38"/>
<polygon fill="black" stroke="black" points="1055.34,-1582.02 1044.75,-1582.32 1053.21,-1588.69 1055.34,-1582.02"/>
</g>
<!-- u16 -->
<g id="node29" class="node">
<title>u16</title>
<ellipse fill="#ffbbff" stroke="black" cx="1670.67" cy="-1565" rx="144.87" ry="18"/>
<text text-anchor="middle" x="1670.67" y="-1561.3" font-family="Times,serif" font-size="14.00">Drasil.Sections.TableOfUnits</text>
</g>
<!-- u27&#45;&gt;u16 -->
<g id="edge51" class="edge">
<title>u27&#45;&gt;u16</title>
<path fill="none" stroke="black" d="M2120.85,-1916.03C2044.36,-1856.56 1788.26,-1657.43 1700.48,-1589.18"/>
<polygon fill="black" stroke="black" points="1702.57,-1586.37 1692.53,-1583 1698.27,-1591.9 1702.57,-1586.37"/>
</g>
<!-- u14 -->
<g id="node31" class="node">
<title>u14</title>
<ellipse fill="#ffbbff" stroke="black" cx="3893.67" cy="-1565" rx="172.47" ry="18"/>
<text text-anchor="middle" x="3893.67" y="-1561.3" font-family="Times,serif" font-size="14.00">Drasil.Sections.AuxiliaryConstants</text>
</g>
<!-- u27&#45;&gt;u14 -->
<g id="edge50" class="edge">
<title>u27&#45;&gt;u14</title>
<path fill="none" stroke="black" d="M2212.12,-1918.44C2488.59,-1860.5 3510.46,-1646.32 3810.39,-1583.45"/>
<polygon fill="black" stroke="black" points="3811.26,-1586.85 3820.33,-1581.37 3809.82,-1580 3811.26,-1586.85"/>
</g>
<!-- u13 -->
<g id="node32" class="node">
<title>u13</title>
<ellipse fill="#ffbbff" stroke="black" cx="3176.67" cy="-1565" rx="149.47" ry="18"/>
<text text-anchor="middle" x="3176.67" y="-1561.3" font-family="Times,serif" font-size="14.00">Drasil.Sections.Requirements</text>
</g>
<!-- u27&#45;&gt;u13 -->
<g id="edge49" class="edge">
<title>u27&#45;&gt;u13</title>
<path fill="none" stroke="black" d="M2187.76,-1916.99C2354.84,-1857.69 2938.38,-1650.58 3121.35,-1585.63"/>
<polygon fill="black" stroke="black" points="3122.79,-1588.84 3131.04,-1582.19 3120.45,-1582.24 3122.79,-1588.84"/>
</g>
<!-- u11 -->
<g id="node13" class="node">
<title>u11</title>
<ellipse fill="#bbbbff" stroke="black" cx="3893.67" cy="-460" rx="133.78" ry="18"/>
<text text-anchor="middle" x="3893.67" y="-456.3" font-family="Times,serif" font-size="14.00">Drasil.Document.Contents</text>
</g>
<!-- u26 -->
<g id="node33" class="node">
<title>u26</title>
<ellipse fill="#77ff77" stroke="black" cx="3635.67" cy="-92" rx="146.77" ry="18"/>
<text text-anchor="middle" x="3635.67" y="-88.3" font-family="Times,serif" font-size="14.00">Drasil.Sentence.Combinators</text>
</g>
<!-- u11&#45;&gt;u26 -->
<g id="edge16" class="edge">
<title>u11&#45;&gt;u26</title>
<path fill="none" stroke="black" d="M3881.57,-441.84C3840.01,-382.88 3702.93,-188.42 3653.58,-118.41"/>
<polygon fill="black" stroke="black" points="3656.36,-116.28 3647.74,-110.12 3650.64,-120.31 3656.36,-116.28"/>
</g>
<!-- u7 -->
<g id="node14" class="node">
<title>u7</title>
<ellipse fill="#ffbbbb" stroke="black" cx="993.67" cy="-1197" rx="223.66" ry="18"/>
<text text-anchor="middle" x="993.67" y="-1193.3" font-family="Times,serif" font-size="14.00">Drasil.DocumentLanguage.TraceabilityMatrix</text>
</g>
<!-- u5 -->
<g id="node16" class="node">
<title>u5</title>
<ellipse fill="#ffbbbb" stroke="black" cx="1717.67" cy="-829" rx="187.37" ry="18"/>
<text text-anchor="middle" x="1717.67" y="-825.3" font-family="Times,serif" font-size="14.00">Drasil.DocumentLanguage.Definitions</text>
</g>
<!-- u7&#45;&gt;u5 -->
<g id="edge11" class="edge">
<title>u7&#45;&gt;u5</title>
<path fill="none" stroke="black" d="M1027.14,-1179.08C1145.55,-1119.22 1544.56,-917.51 1675.59,-851.27"/>
<polygon fill="black" stroke="black" points="1677.21,-854.37 1684.55,-846.74 1674.05,-848.13 1677.21,-854.37"/>
</g>
<!-- u6 -->
<g id="node15" class="node">
<title>u6</title>
<ellipse fill="#ffbbbb" stroke="black" cx="3176.67" cy="-460" rx="162.47" ry="18"/>
<text text-anchor="middle" x="3176.67" y="-456.3" font-family="Times,serif" font-size="14.00">Drasil.DocumentLanguage.Units</text>
</g>
<!-- u5&#45;&gt;u9 -->
<g id="edge9" class="edge">
<title>u5&#45;&gt;u9</title>
<path fill="none" stroke="black" d="M1685.26,-811.03C1570.33,-750.87 1182.39,-547.76 1056.48,-481.85"/>
<polygon fill="black" stroke="black" points="1058.02,-478.7 1047.53,-477.16 1054.77,-484.9 1058.02,-478.7"/>
</g>
<!-- u5&#45;&gt;u11 -->
<g id="edge10" class="edge">
<title>u5&#45;&gt;u11</title>
<path fill="none" stroke="black" d="M1806,-813.1C2156.87,-753.92 3450.08,-535.81 3803.76,-476.16"/>
<polygon fill="black" stroke="black" points="3804.41,-479.6 3813.69,-474.49 3803.25,-472.7 3804.41,-479.6"/>
</g>
<!-- u5&#45;&gt;u6 -->
<g id="edge8" class="edge">
<title>u5&#45;&gt;u6</title>
<path fill="none" stroke="black" d="M1781.3,-811.99C2018.9,-752.23 2853.39,-542.32 3104.59,-479.13"/>
<polygon fill="black" stroke="black" points="3105.5,-482.51 3114.34,-476.68 3103.79,-475.72 3105.5,-482.51"/>
</g>
<!-- u3&#45;&gt;u5 -->
<g id="edge7" class="edge">
<title>u3&#45;&gt;u5</title>
<path fill="none" stroke="black" d="M1409.81,-1178.84C1461.95,-1119.76 1634.15,-924.63 1695.62,-854.98"/>
<polygon fill="black" stroke="black" points="1698.56,-856.94 1702.55,-847.12 1693.31,-852.31 1698.56,-856.94"/>
</g>
<!-- u2 -->
<g id="node18" class="node">
<title>u2</title>
<ellipse fill="#ffbbbb" stroke="black" cx="357.67" cy="-2302" rx="181.17" ry="18"/>
<text text-anchor="middle" x="357.67" y="-2298.3" font-family="Times,serif" font-size="14.00">Drasil.DocumentLanguage.Notebook</text>
</g>
<!-- u2&#45;&gt;u25 -->
<g id="edge5" class="edge">
<title>u2&#45;&gt;u25</title>
<path fill="none" stroke="black" d="M351.52,-2283.84C330.55,-2225.24 261.67,-2032.8 236.22,-1961.7"/>
<polygon fill="black" stroke="black" points="239.46,-1960.36 232.8,-1952.12 232.87,-1962.72 239.46,-1960.36"/>
</g>
<!-- u2&#45;&gt;u28 -->
<g id="edge6" class="edge">
<title>u2&#45;&gt;u28</title>
<path fill="none" stroke="black" d="M363.81,-2283.84C384.78,-2225.24 453.66,-2032.8 479.11,-1961.7"/>
<polygon fill="black" stroke="black" points="482.46,-1962.72 482.54,-1952.12 475.87,-1960.36 482.46,-1962.72"/>
</g>
<!-- u1&#45;&gt;u29 -->
<g id="edge4" class="edge">
<title>u1&#45;&gt;u29</title>
<path fill="none" stroke="black" d="M2683.77,-1916.76C2820.72,-1879.61 3141.8,-1776.35 3334.67,-1583 3442.01,-1475.38 3497.21,-1293.93 3515.05,-1225.35"/>
<polygon fill="black" stroke="black" points="3518.52,-1225.9 3517.6,-1215.35 3511.74,-1224.17 3518.52,-1225.9"/>
</g>
<!-- u22 -->
<g id="node23" class="node">
<title>u22</title>
<ellipse fill="#ffbbff" stroke="black" cx="2697.67" cy="-1197" rx="170.07" ry="18"/>
<text text-anchor="middle" x="2697.67" y="-1193.3" font-family="Times,serif" font-size="14.00">Drasil.Sections.ReferenceMaterial</text>
</g>
<!-- u1&#45;&gt;u22 -->
<g id="edge3" class="edge">
<title>u1&#45;&gt;u22</title>
<path fill="none" stroke="black" d="M2622.33,-1915.99C2633.06,-1865.5 2664.48,-1712 2678.67,-1583 2693.33,-1449.65 2696.68,-1289.07 2697.44,-1225.67"/>
<polygon fill="black" stroke="black" points="2700.95,-1225.36 2697.55,-1215.33 2693.95,-1225.29 2700.95,-1225.36"/>
</g>
<!-- u1&#45;&gt;u18 -->
<g id="edge2" class="edge">
<title>u1&#45;&gt;u18</title>
<path fill="none" stroke="black" d="M2547.54,-1916.94C2282.27,-1857.03 1351.7,-1646.86 1073.07,-1583.93"/>
<polygon fill="black" stroke="black" points="1073.57,-1580.46 1063.05,-1581.67 1072.03,-1587.29 1073.57,-1580.46"/>
</g>
<!-- u24&#45;&gt;u29 -->
<g id="edge45" class="edge">
<title>u24&#45;&gt;u29</title>
<path fill="none" stroke="black" d="M3541.68,-1546.84C3538.33,-1488.36 3527.32,-1296.58 3523.22,-1225.14"/>
<polygon fill="black" stroke="black" points="3526.72,-1224.91 3522.65,-1215.12 3519.73,-1225.31 3526.72,-1224.91"/>
</g>
<!-- u24&#45;&gt;u3 -->
<g id="edge44" class="edge">
<title>u24&#45;&gt;u3</title>
<path fill="none" stroke="black" d="M3458.13,-1549.6C3117.47,-1491.55 1846.59,-1275 1488.89,-1214.05"/>
<polygon fill="black" stroke="black" points="1489.27,-1210.57 1478.83,-1212.34 1488.1,-1217.47 1489.27,-1210.57"/>
</g>
<!-- u23&#45;&gt;u3 -->
<g id="edge42" class="edge">
<title>u23&#45;&gt;u3</title>
<path fill="none" stroke="black" d="M1350.82,-1546.84C1358.17,-1488.36 1382.28,-1296.58 1391.26,-1225.14"/>
<polygon fill="black" stroke="black" points="1394.74,-1225.48 1392.51,-1215.12 1387.79,-1224.61 1394.74,-1225.48"/>
</g>
<!-- u23&#45;&gt;u22 -->
<g id="edge43" class="edge">
<title>u23&#45;&gt;u22</title>
<path fill="none" stroke="black" d="M1407.06,-1548.16C1625.56,-1488.88 2394.29,-1280.31 2629.06,-1216.61"/>
<polygon fill="black" stroke="black" points="2630.11,-1219.96 2638.84,-1213.96 2628.28,-1213.2 2630.11,-1219.96"/>
</g>
<!-- u21&#45;&gt;u29 -->
<g id="edge41" class="edge">
<title>u21&#45;&gt;u29</title>
<path fill="none" stroke="black" d="M2897.47,-1547.32C3003.89,-1487.76 3365.18,-1285.57 3483.68,-1219.26"/>
<polygon fill="black" stroke="black" points="3485.42,-1222.29 3492.44,-1214.36 3482,-1216.19 3485.42,-1222.29"/>
</g>
<!-- u21&#45;&gt;u3 -->
<g id="edge39" class="edge">
<title>u21&#45;&gt;u3</title>
<path fill="none" stroke="black" d="M2806.25,-1548.74C2570.24,-1490.1 1722.12,-1279.36 1467.47,-1216.09"/>
<polygon fill="black" stroke="black" points="1468.13,-1212.65 1457.58,-1213.63 1466.44,-1219.44 1468.13,-1212.65"/>
</g>
<!-- u21&#45;&gt;u22 -->
<g id="edge40" class="edge">
<title>u21&#45;&gt;u22</title>
<path fill="none" stroke="black" d="M2859.7,-1546.84C2832.42,-1488.12 2742.72,-1295.01 2709.87,-1224.27"/>
<polygon fill="black" stroke="black" points="2713.01,-1222.72 2705.62,-1215.12 2706.66,-1225.67 2713.01,-1222.72"/>
</g>
<!-- u20&#45;&gt;u22 -->
<g id="edge38" class="edge">
<title>u20&#45;&gt;u22</title>
<path fill="none" stroke="black" d="M2479.41,-1546.84C2516.22,-1488 2637.47,-1294.22 2681.5,-1223.84"/>
<polygon fill="black" stroke="black" points="2684.62,-1225.46 2686.95,-1215.12 2678.68,-1221.75 2684.62,-1225.46"/>
</g>
<!-- u19&#45;&gt;u29 -->
<g id="edge37" class="edge">
<title>u19&#45;&gt;u29</title>
<path fill="none" stroke="black" d="M2107.17,-1547.8C2351.47,-1487.39 3208.05,-1275.56 3454.73,-1214.55"/>
<polygon fill="black" stroke="black" points="3455.76,-1217.9 3464.63,-1212.1 3454.08,-1211.11 3455.76,-1217.9"/>
</g>
<!-- u19&#45;&gt;u5 -->
<g id="edge35" class="edge">
<title>u19&#45;&gt;u5</title>
<path fill="none" stroke="black" d="M2034.14,-1546.94C1991.62,-1450.62 1781.71,-975.08 1729.46,-856.71"/>
<polygon fill="black" stroke="black" points="1732.54,-855.03 1725.3,-847.29 1726.14,-857.85 1732.54,-855.03"/>
</g>
<!-- u19&#45;&gt;u22 -->
<g id="edge36" class="edge">
<title>u19&#45;&gt;u22</title>
<path fill="none" stroke="black" d="M2071.99,-1547.08C2179.07,-1487.34 2539.38,-1286.31 2658.83,-1219.67"/>
<polygon fill="black" stroke="black" points="2660.64,-1222.67 2667.66,-1214.74 2657.23,-1216.56 2660.64,-1222.67"/>
</g>
<!-- u18&#45;&gt;u7 -->
<g id="edge34" class="edge">
<title>u18&#45;&gt;u7</title>
<path fill="none" stroke="black" d="M993.67,-1546.84C993.67,-1488.36 993.67,-1296.58 993.67,-1225.14"/>
<polygon fill="black" stroke="black" points="997.17,-1225.12 993.67,-1215.12 990.17,-1225.12 997.17,-1225.12"/>
</g>
<!-- u18&#45;&gt;u3 -->
<g id="edge33" class="edge">
<title>u18&#45;&gt;u3</title>
<path fill="none" stroke="black" d="M1012.2,-1547.08C1076.85,-1488.08 1292.52,-1291.23 1368.17,-1222.19"/>
<polygon fill="black" stroke="black" points="1370.84,-1224.49 1375.86,-1215.16 1366.12,-1219.32 1370.84,-1224.49"/>
</g>
<!-- u17&#45;&gt;u29 -->
<g id="edge32" class="edge">
<title>u17&#45;&gt;u29</title>
<path fill="none" stroke="black" d="M4213.63,-1547.32C4095.4,-1487.63 3693.42,-1284.7 3562.93,-1218.83"/>
<polygon fill="black" stroke="black" points="3564.16,-1215.53 3553.66,-1214.15 3561.01,-1221.78 3564.16,-1215.53"/>
</g>
<!-- u17&#45;&gt;u11 -->
<g id="edge30" class="edge">
<title>u17&#45;&gt;u11</title>
<path fill="none" stroke="black" d="M4241.12,-1546.67C4200.74,-1420.49 3952.01,-643.3 3902.31,-487.99"/>
<polygon fill="black" stroke="black" points="3905.58,-486.74 3899.2,-478.29 3898.91,-488.88 3905.58,-486.74"/>
</g>
<!-- u17&#45;&gt;u22 -->
<g id="edge31" class="edge">
<title>u17&#45;&gt;u22</title>
<path fill="none" stroke="black" d="M4181.1,-1548.51C3931.37,-1489.5 3040.42,-1278.99 2773.66,-1215.96"/>
<polygon fill="black" stroke="black" points="2774.22,-1212.49 2763.69,-1213.6 2772.61,-1219.3 2774.22,-1212.49"/>
</g>
<!-- u16&#45;&gt;u3 -->
<g id="edge28" class="edge">
<title>u16&#45;&gt;u3</title>
<path fill="none" stroke="black" d="M1657.73,-1546.84C1613.27,-1487.88 1466.63,-1293.42 1413.83,-1223.41"/>
<polygon fill="black" stroke="black" points="1416.4,-1221 1407.58,-1215.12 1410.81,-1225.22 1416.4,-1221"/>
</g>
<!-- u16&#45;&gt;u22 -->
<g id="edge29" class="edge">
<title>u16&#45;&gt;u22</title>
<path fill="none" stroke="black" d="M1716.12,-1547.8C1882.7,-1488.44 2459.5,-1282.88 2641.91,-1217.87"/>
<polygon fill="black" stroke="black" points="2643.33,-1221.08 2651.57,-1214.43 2640.98,-1214.49 2643.33,-1221.08"/>
</g>
<!-- u15&#45;&gt;u29 -->
<g id="edge27" class="edge">
<title>u15&#45;&gt;u29</title>
<path fill="none" stroke="black" d="M4526.49,-1547.92C4355.52,-1488.38 3758.88,-1280.61 3575.62,-1216.79"/>
<polygon fill="black" stroke="black" points="3576.53,-1213.4 3565.93,-1213.41 3574.22,-1220.01 3576.53,-1213.4"/>
</g>
<!-- u15&#45;&gt;u11 -->
<g id="edge26" class="edge">
<title>u15&#45;&gt;u11</title>
<path fill="none" stroke="black" d="M4562,-1546.67C4484.17,-1420.23 4003.98,-640.19 3909.71,-487.07"/>
<polygon fill="black" stroke="black" points="3912.53,-484.97 3904.31,-478.29 3906.57,-488.64 3912.53,-484.97"/>
</g>
<!-- u14&#45;&gt;u29 -->
<g id="edge25" class="edge">
<title>u14&#45;&gt;u29</title>
<path fill="none" stroke="black" d="M3876.22,-1546.84C3816.06,-1487.64 3617.04,-1291.84 3546.63,-1222.56"/>
<polygon fill="black" stroke="black" points="3548.66,-1219.64 3539.07,-1215.12 3543.75,-1224.63 3548.66,-1219.64"/>
</g>
<!-- u14&#45;&gt;u11 -->
<g id="edge23" class="edge">
<title>u14&#45;&gt;u11</title>
<path fill="none" stroke="black" d="M3893.67,-1546.67C3893.67,-1420.61 3893.67,-644.85 3893.67,-488.46"/>
<polygon fill="black" stroke="black" points="3897.17,-488.29 3893.67,-478.29 3890.17,-488.29 3897.17,-488.29"/>
</g>
<!-- u14&#45;&gt;u6 -->
<g id="edge22" class="edge">
<title>u14&#45;&gt;u6</title>
<path fill="none" stroke="black" d="M3882.4,-1546.67C3800.21,-1420.23 3293.15,-640.19 3193.61,-487.07"/>
<polygon fill="black" stroke="black" points="3196.29,-484.76 3187.9,-478.29 3190.42,-488.58 3196.29,-484.76"/>
</g>
<!-- u14&#45;&gt;u22 -->
<g id="edge24" class="edge">
<title>u14&#45;&gt;u22</title>
<path fill="none" stroke="black" d="M3840.73,-1547.8C3646.04,-1488.22 2970.14,-1281.38 2760.3,-1217.17"/>
<polygon fill="black" stroke="black" points="2761.25,-1213.8 2750.67,-1214.22 2759.2,-1220.49 2761.25,-1213.8"/>
</g>
<!-- u13&#45;&gt;u29 -->
<g id="edge21" class="edge">
<title>u13&#45;&gt;u29</title>
<path fill="none" stroke="black" d="M3192.84,-1546.84C3248.64,-1487.64 3433.21,-1291.84 3498.52,-1222.56"/>
<polygon fill="black" stroke="black" points="3501.21,-1224.8 3505.52,-1215.12 3496.12,-1220 3501.21,-1224.8"/>
</g>
<!-- u13&#45;&gt;u6 -->
<g id="edge18" class="edge">
<title>u13&#45;&gt;u6</title>
<path fill="none" stroke="black" d="M3176.67,-1546.67C3176.67,-1420.61 3176.67,-644.85 3176.67,-488.46"/>
<polygon fill="black" stroke="black" points="3180.17,-488.29 3176.67,-478.29 3173.17,-488.29 3180.17,-488.29"/>
</g>
<!-- u13&#45;&gt;u22 -->
<g id="edge19" class="edge">
<title>u13&#45;&gt;u22</title>
<path fill="none" stroke="black" d="M3154.52,-1547.08C3076.9,-1487.77 2817,-1289.18 2727.93,-1221.12"/>
<polygon fill="black" stroke="black" points="2729.92,-1218.24 2719.85,-1214.95 2725.67,-1223.8 2729.92,-1218.24"/>
</g>
<!-- u13&#45;&gt;u26 -->
<g id="edge20" class="edge">
<title>u13&#45;&gt;u26</title>
<path fill="none" stroke="black" d="M3181.98,-1546.97C3228.71,-1397.21 3569.29,-305.73 3627.28,-119.87"/>
<polygon fill="black" stroke="black" points="3630.63,-120.9 3630.26,-110.32 3623.94,-118.82 3630.63,-120.9"/>
</g>
</g>
</svg>
