<?xml version="1.0" encoding="UTF-8" standalone="no"?>
<!DOCTYPE svg PUBLIC "-//W3C//DTD SVG 1.1//EN"
 "http://www.w3.org/Graphics/SVG/1.1/DTD/svg11.dtd">
<!-- Generated by graphviz version 2.43.0 (0)
 -->
<!-- Title: G Pages: 1 -->
<svg width="432pt" height="288pt"
 viewBox="0.00 0.00 431.67 288.00" xmlns="http://www.w3.org/2000/svg" xmlns:xlink="http://www.w3.org/1999/xlink">
<g id="graph0" class="graph" transform="scale(10.31 10.31) rotate(0) translate(4 2965.33)">
<title>G</title>
<polygon fill="white" stroke="transparent" points="-4,4 -4,-2965.33 4446.58,-2965.33 4446.58,4 -4,4"/>
<!-- u18 -->
<g id="node1" class="node">
<title>u18</title>
<ellipse fill="#bbffbb" stroke="black" cx="2063.29" cy="-1829" rx="79.09" ry="18"/>
<text text-anchor="middle" x="2063.29" y="-1825.3" font-family="Times,serif" font-size="14.00">Drasil.DocDecl</text>
</g>
<!-- u5 -->
<g id="node13" class="node">
<title>u5</title>
<ellipse fill="#bbbbff" stroke="black" cx="1548.29" cy="-1132" rx="159.47" ry="18"/>
<text text-anchor="middle" x="1548.29" y="-1128.3" font-family="Times,serif" font-size="14.00">Drasil.DocumentLanguage.Core</text>
</g>
<!-- u18&#45;&gt;u5 -->
<g id="edge35" class="edge">
<title>u18&#45;&gt;u5</title>
<path fill="none" stroke="black" d="M2033.8,-1812.14C1959.71,-1770.8 1764.36,-1652.21 1661.29,-1499 1586.37,-1387.64 1559.35,-1224.38 1551.27,-1160.27"/>
<polygon fill="black" stroke="black" points="1554.72,-1159.68 1550.05,-1150.17 1547.77,-1160.52 1554.72,-1159.68"/>
</g>
<!-- u28 -->
<g id="node22" class="node">
<title>u28</title>
<ellipse fill="#ffbbff" stroke="black" cx="2555.29" cy="-1481" rx="149.47" ry="18"/>
<text text-anchor="middle" x="2555.29" y="-1477.3" font-family="Times,serif" font-size="14.00">Drasil.Sections.Requirements</text>
</g>
<!-- u18&#45;&gt;u28 -->
<g id="edge36" class="edge">
<title>u18&#45;&gt;u28</title>
<path fill="none" stroke="black" d="M2086.36,-1811.78C2166.15,-1755.67 2430.53,-1569.74 2523.01,-1504.7"/>
<polygon fill="black" stroke="black" points="2525.24,-1507.41 2531.41,-1498.79 2521.22,-1501.68 2525.24,-1507.41"/>
</g>
<!-- u12 -->
<g id="node2" class="node">
<title>u12</title>
<ellipse fill="#bbffbb" stroke="black" cx="92.29" cy="-1829" rx="92.08" ry="18"/>
<text text-anchor="middle" x="92.29" y="-1825.3" font-family="Times,serif" font-size="14.00">Drasil.TraceTable</text>
</g>
<!-- u12&#45;&gt;u5 -->
<g id="edge25" class="edge">
<title>u12&#45;&gt;u5</title>
<path fill="none" stroke="black" d="M86.5,-1811C68.3,-1754.1 18.43,-1568.07 105.29,-1463 271.61,-1261.81 1082.62,-1172.12 1410.43,-1143.66"/>
<polygon fill="black" stroke="black" points="1410.8,-1147.15 1420.46,-1142.8 1410.19,-1140.17 1410.8,-1147.15"/>
</g>
<!-- u11 -->
<g id="node3" class="node">
<title>u11</title>
<ellipse fill="#bbffbb" stroke="black" cx="2295.29" cy="-2177" rx="133.78" ry="18"/>
<text text-anchor="middle" x="2295.29" y="-2173.3" font-family="Times,serif" font-size="14.00">Drasil.DocumentLanguage</text>
</g>
<!-- u11&#45;&gt;u18 -->
<g id="edge20" class="edge">
<title>u11&#45;&gt;u18</title>
<path fill="none" stroke="black" d="M2283.79,-2158.84C2245.98,-2102.45 2125.39,-1922.62 2080.42,-1855.55"/>
<polygon fill="black" stroke="black" points="2083.07,-1853.21 2074.59,-1846.85 2077.25,-1857.11 2083.07,-1853.21"/>
</g>
<!-- u11&#45;&gt;u12 -->
<g id="edge18" class="edge">
<title>u11&#45;&gt;u12</title>
<path fill="none" stroke="black" d="M2211.96,-2162.91C1862.06,-2107.96 514.12,-1896.25 171.74,-1842.48"/>
<polygon fill="black" stroke="black" points="172.08,-1838.99 161.66,-1840.9 171,-1845.9 172.08,-1838.99"/>
</g>
<!-- u0 -->
<g id="node6" class="node">
<title>u0</title>
<ellipse fill="#bbffbb" stroke="black" cx="342.29" cy="-1829" rx="116.18" ry="18"/>
<text text-anchor="middle" x="342.29" y="-1825.3" font-family="Times,serif" font-size="14.00">Drasil.ExtractDocDesc</text>
</g>
<!-- u11&#45;&gt;u0 -->
<g id="edge16" class="edge">
<title>u11&#45;&gt;u0</title>
<path fill="none" stroke="black" d="M2217.83,-2162.28C1906.51,-2107.12 747.79,-1901.84 425.78,-1844.79"/>
<polygon fill="black" stroke="black" points="426.05,-1841.28 415.59,-1842.99 424.83,-1848.18 426.05,-1841.28"/>
</g>
<!-- u15 -->
<g id="node7" class="node">
<title>u15</title>
<ellipse fill="#ffffbb" stroke="black" cx="1641.29" cy="-1829" rx="136.48" ry="18"/>
<text text-anchor="middle" x="1641.29" y="-1825.3" font-family="Times,serif" font-size="14.00">Drasil.DocLang.References</text>
</g>
<!-- u11&#45;&gt;u15 -->
<g id="edge19" class="edge">
<title>u11&#45;&gt;u15</title>
<path fill="none" stroke="black" d="M2263.75,-2159.31C2155.95,-2102.28 1802.21,-1915.13 1681.83,-1851.44"/>
<polygon fill="black" stroke="black" points="1683.38,-1848.31 1672.9,-1846.72 1680.1,-1854.49 1683.38,-1848.31"/>
</g>
<!-- u7 -->
<g id="node11" class="node">
<title>u7</title>
<ellipse fill="#bbbbff" stroke="black" cx="2419.29" cy="-1829" rx="220.96" ry="18"/>
<text text-anchor="middle" x="2419.29" y="-1825.3" font-family="Times,serif" font-size="14.00">Drasil.DocumentLanguage.TraceabilityGraph</text>
</g>
<!-- u11&#45;&gt;u7 -->
<g id="edge17" class="edge">
<title>u11&#45;&gt;u7</title>
<path fill="none" stroke="black" d="M2301.44,-2158.84C2321.52,-2102.81 2385.28,-1924.91 2409.67,-1856.84"/>
<polygon fill="black" stroke="black" points="2413.03,-1857.86 2413.11,-1847.26 2406.44,-1855.49 2413.03,-1857.86"/>
</g>
<!-- u26 -->
<g id="node24" class="node">
<title>u26</title>
<ellipse fill="#ffbbff" stroke="black" cx="2821.29" cy="-1829" rx="163.27" ry="18"/>
<text text-anchor="middle" x="2821.29" y="-1825.3" font-family="Times,serif" font-size="14.00">Drasil.Sections.GeneralSystDesc</text>
</g>
<!-- u11&#45;&gt;u26 -->
<g id="edge24" class="edge">
<title>u11&#45;&gt;u26</title>
<path fill="none" stroke="black" d="M2320.66,-2159.31C2406.92,-2102.57 2688.94,-1917.06 2787.18,-1852.44"/>
<polygon fill="black" stroke="black" points="2789.13,-1855.35 2795.56,-1846.93 2785.28,-1849.5 2789.13,-1855.35"/>
</g>
<!-- u25 -->
<g id="node25" class="node">
<title>u25</title>
<ellipse fill="#ffbbff" stroke="black" cx="2884.29" cy="-1481" rx="161.37" ry="18"/>
<text text-anchor="middle" x="2884.29" y="-1477.3" font-family="Times,serif" font-size="14.00">Drasil.Sections.TableOfContents</text>
</g>
<!-- u11&#45;&gt;u25 -->
<g id="edge23" class="edge">
<title>u11&#45;&gt;u25</title>
<path fill="none" stroke="black" d="M2281.27,-2159C2238,-2104.39 2113.94,-1930.04 2189.29,-1811 2319.29,-1605.64 2615.9,-1525.97 2776.39,-1497.09"/>
<polygon fill="black" stroke="black" points="2777.05,-1500.53 2786.29,-1495.34 2775.83,-1493.63 2777.05,-1500.53"/>
</g>
<!-- u20 -->
<g id="node30" class="node">
<title>u20</title>
<ellipse fill="#ffbbff" stroke="black" cx="3147.29" cy="-1829" rx="144.87" ry="18"/>
<text text-anchor="middle" x="3147.29" y="-1825.3" font-family="Times,serif" font-size="14.00">Drasil.Sections.Stakeholders</text>
</g>
<!-- u11&#45;&gt;u20 -->
<g id="edge22" class="edge">
<title>u11&#45;&gt;u20</title>
<path fill="none" stroke="black" d="M2335.24,-2159.78C2475.12,-2102.97 2942.65,-1913.11 3097.21,-1850.34"/>
<polygon fill="black" stroke="black" points="3098.98,-1853.4 3106.93,-1846.39 3096.35,-1846.91 3098.98,-1853.4"/>
</g>
<!-- u19 -->
<g id="node31" class="node">
<title>u19</title>
<ellipse fill="#ffbbff" stroke="black" cx="3319.29" cy="-1481" rx="141.88" ry="18"/>
<text text-anchor="middle" x="3319.29" y="-1477.3" font-family="Times,serif" font-size="14.00">Drasil.Sections.Introduction</text>
</g>
<!-- u11&#45;&gt;u19 -->
<g id="edge21" class="edge">
<title>u11&#45;&gt;u19</title>
<path fill="none" stroke="black" d="M2372.79,-2162.24C2587.99,-2122.33 3184.78,-1999.63 3301.29,-1847 3379.51,-1744.53 3344.9,-1574.78 3327.3,-1509.11"/>
<polygon fill="black" stroke="black" points="3330.58,-1507.84 3324.54,-1499.14 3323.83,-1509.71 3330.58,-1507.84"/>
</g>
<!-- u10 -->
<g id="node4" class="node">
<title>u10</title>
<ellipse fill="#bbffbb" stroke="black" cx="3807.29" cy="-2526" rx="81.79" ry="18"/>
<text text-anchor="middle" x="3807.29" y="-2522.3" font-family="Times,serif" font-size="14.00">Drasil.DocLang</text>
</g>
<!-- u10&#45;&gt;u11 -->
<g id="edge14" class="edge">
<title>u10&#45;&gt;u11</title>
<path fill="none" stroke="black" d="M3752.59,-2512.45C3522.59,-2459.66 2633.79,-2255.68 2369.7,-2195.08"/>
<polygon fill="black" stroke="black" points="2370.35,-2191.64 2359.82,-2192.81 2368.79,-2198.46 2370.35,-2191.64"/>
</g>
<!-- u2 -->
<g id="node16" class="node">
<title>u2</title>
<ellipse fill="#ffbbbb" stroke="black" cx="3807.29" cy="-2177" rx="276.75" ry="18"/>
<text text-anchor="middle" x="3807.29" y="-2173.3" font-family="Times,serif" font-size="14.00">Drasil.DocumentLanguage.Notebook.DocumentLanguage</text>
</g>
<!-- u10&#45;&gt;u2 -->
<g id="edge13" class="edge">
<title>u10&#45;&gt;u2</title>
<path fill="none" stroke="black" d="M3807.29,-2507.79C3807.29,-2451.72 3807.29,-2273.92 3807.29,-2205.34"/>
<polygon fill="black" stroke="black" points="3810.79,-2205.31 3807.29,-2195.31 3803.79,-2205.31 3810.79,-2205.31"/>
</g>
<!-- u29 -->
<g id="node21" class="node">
<title>u29</title>
<ellipse fill="#ffbbff" stroke="black" cx="4272.29" cy="-2177" rx="170.07" ry="18"/>
<text text-anchor="middle" x="4272.29" y="-2173.3" font-family="Times,serif" font-size="14.00">Drasil.Sections.ReferenceMaterial</text>
</g>
<!-- u10&#45;&gt;u29 -->
<g id="edge15" class="edge">
<title>u10&#45;&gt;u29</title>
<path fill="none" stroke="black" d="M3829.41,-2508.5C3905.04,-2452.06 4153.54,-2266.62 4241.28,-2201.14"/>
<polygon fill="black" stroke="black" points="4243.57,-2203.8 4249.5,-2195.01 4239.39,-2198.19 4243.57,-2203.8"/>
</g>
<!-- u9 -->
<g id="node5" class="node">
<title>u9</title>
<ellipse fill="#bbffbb" stroke="black" cx="3807.29" cy="-2874" rx="108.58" ry="18"/>
<text text-anchor="middle" x="3807.29" y="-2870.3" font-family="Times,serif" font-size="14.00">Drasil.SRSDocument</text>
</g>
<!-- u9&#45;&gt;u10 -->
<g id="edge12" class="edge">
<title>u9&#45;&gt;u10</title>
<path fill="none" stroke="black" d="M3807.29,-2855.84C3807.29,-2799.93 3807.29,-2622.64 3807.29,-2554.27"/>
<polygon fill="black" stroke="black" points="3810.79,-2554.26 3807.29,-2544.26 3803.79,-2554.26 3810.79,-2554.26"/>
</g>
<!-- u0&#45;&gt;u5 -->
<g id="edge1" class="edge">
<title>u0&#45;&gt;u5</title>
<path fill="none" stroke="black" d="M318.24,-1811.35C243.71,-1757.78 27.37,-1586.23 125.29,-1463 285.32,-1261.61 1085.28,-1172.17 1410.49,-1143.72"/>
<polygon fill="black" stroke="black" points="1411.25,-1147.17 1420.91,-1142.82 1410.65,-1140.19 1411.25,-1147.17"/>
</g>
<!-- u23 -->
<g id="node27" class="node">
<title>u23</title>
<ellipse fill="#ffbbff" stroke="black" cx="342.29" cy="-1481" rx="207.96" ry="18"/>
<text text-anchor="middle" x="342.29" y="-1477.3" font-family="Times,serif" font-size="14.00">Drasil.Sections.SpecificSystemDescription</text>
</g>
<!-- u0&#45;&gt;u23 -->
<g id="edge2" class="edge">
<title>u0&#45;&gt;u23</title>
<path fill="none" stroke="black" d="M342.29,-1810.84C342.29,-1754.93 342.29,-1577.64 342.29,-1509.27"/>
<polygon fill="black" stroke="black" points="345.79,-1509.26 342.29,-1499.26 338.79,-1509.26 345.79,-1509.26"/>
</g>
<!-- u30 -->
<g id="node20" class="node">
<title>u30</title>
<ellipse fill="#ffbbff" stroke="black" cx="1133.29" cy="-1481" rx="144.87" ry="18"/>
<text text-anchor="middle" x="1133.29" y="-1477.3" font-family="Times,serif" font-size="14.00">Drasil.Sections.TableOfUnits</text>
</g>
<!-- u15&#45;&gt;u30 -->
<g id="edge32" class="edge">
<title>u15&#45;&gt;u30</title>
<path fill="none" stroke="black" d="M1616.45,-1811.08C1532.8,-1754.11 1261.4,-1569.25 1166.45,-1504.59"/>
<polygon fill="black" stroke="black" points="1168.33,-1501.63 1158.09,-1498.89 1164.38,-1507.41 1168.33,-1501.63"/>
</g>
<!-- u15&#45;&gt;u28 -->
<g id="edge31" class="edge">
<title>u15&#45;&gt;u28</title>
<path fill="none" stroke="black" d="M1683.85,-1811.89C1833.89,-1755.09 2338.12,-1564.21 2502.78,-1501.88"/>
<polygon fill="black" stroke="black" points="2504.1,-1505.12 2512.22,-1498.31 2501.62,-1498.57 2504.1,-1505.12"/>
</g>
<!-- u27 -->
<g id="node23" class="node">
<title>u27</title>
<ellipse fill="#ffbbff" stroke="black" cx="1455.29" cy="-1481" rx="159.47" ry="18"/>
<text text-anchor="middle" x="1455.29" y="-1477.3" font-family="Times,serif" font-size="14.00">Drasil.Sections.TableOfSymbols</text>
</g>
<!-- u15&#45;&gt;u27 -->
<g id="edge30" class="edge">
<title>u15&#45;&gt;u27</title>
<path fill="none" stroke="black" d="M1632.07,-1810.84C1601.89,-1754.7 1505.92,-1576.18 1469.5,-1508.43"/>
<polygon fill="black" stroke="black" points="1472.39,-1506.41 1464.57,-1499.26 1466.22,-1509.73 1472.39,-1506.41"/>
</g>
<!-- u24 -->
<g id="node26" class="node">
<title>u24</title>
<ellipse fill="#ffbbff" stroke="black" cx="769.29" cy="-1481" rx="201.46" ry="18"/>
<text text-anchor="middle" x="769.29" y="-1477.3" font-family="Times,serif" font-size="14.00">Drasil.Sections.TableOfAbbAndAcronyms</text>
</g>
<!-- u15&#45;&gt;u24 -->
<g id="edge29" class="edge">
<title>u15&#45;&gt;u24</title>
<path fill="none" stroke="black" d="M1600.4,-1811.78C1457.35,-1755.01 979.44,-1565.38 820.89,-1502.48"/>
<polygon fill="black" stroke="black" points="821.95,-1499.13 811.36,-1498.69 819.37,-1505.63 821.95,-1499.13"/>
</g>
<!-- u15&#45;&gt;u23 -->
<g id="edge28" class="edge">
<title>u15&#45;&gt;u23</title>
<path fill="none" stroke="black" d="M1583.38,-1812.57C1372.34,-1756.36 644.84,-1562.59 413.51,-1500.97"/>
<polygon fill="black" stroke="black" points="414.09,-1497.5 403.53,-1498.31 412.29,-1504.27 414.09,-1497.5"/>
</g>
<!-- u22 -->
<g id="node28" class="node">
<title>u22</title>
<ellipse fill="#ffbbff" stroke="black" cx="1847.29" cy="-1481" rx="177.37" ry="18"/>
<text text-anchor="middle" x="1847.29" y="-1477.3" font-family="Times,serif" font-size="14.00">Drasil.Sections.TraceabilityMandGs</text>
</g>
<!-- u15&#45;&gt;u22 -->
<g id="edge27" class="edge">
<title>u15&#45;&gt;u22</title>
<path fill="none" stroke="black" d="M1651.51,-1810.84C1685,-1754.58 1791.65,-1575.45 1831.81,-1508.01"/>
<polygon fill="black" stroke="black" points="1834.91,-1509.64 1837.01,-1499.26 1828.89,-1506.06 1834.91,-1509.64"/>
</g>
<!-- u21 -->
<g id="node29" class="node">
<title>u21</title>
<ellipse fill="#ffbbff" stroke="black" cx="2215.29" cy="-1481" rx="172.47" ry="18"/>
<text text-anchor="middle" x="2215.29" y="-1477.3" font-family="Times,serif" font-size="14.00">Drasil.Sections.AuxiliaryConstants</text>
</g>
<!-- u15&#45;&gt;u21 -->
<g id="edge26" class="edge">
<title>u15&#45;&gt;u21</title>
<path fill="none" stroke="black" d="M1668.98,-1811.31C1763.2,-1754.52 2071.48,-1568.69 2178.39,-1504.25"/>
<polygon fill="black" stroke="black" points="2180.45,-1507.09 2187.21,-1498.93 2176.84,-1501.09 2180.45,-1507.09"/>
</g>
<!-- u14 -->
<g id="node8" class="node">
<title>u14</title>
<ellipse fill="#ffffbb" stroke="black" cx="4161.29" cy="-1481" rx="129.18" ry="18"/>
<text text-anchor="middle" x="4161.29" y="-1477.3" font-family="Times,serif" font-size="14.00">Drasil.DocLang.Notebook</text>
</g>
<!-- u13 -->
<g id="node9" class="node">
<title>u13</title>
<ellipse fill="#ffffbb" stroke="black" cx="2688.29" cy="-1132" rx="104.78" ry="18"/>
<text text-anchor="middle" x="2688.29" y="-1128.3" font-family="Times,serif" font-size="14.00">Drasil.DocLang.SRS</text>
</g>
<!-- u8 -->
<g id="node10" class="node">
<title>u8</title>
<ellipse fill="#bbbbff" stroke="black" cx="1841.29" cy="-784" rx="223.66" ry="18"/>
<text text-anchor="middle" x="1841.29" y="-780.3" font-family="Times,serif" font-size="14.00">Drasil.DocumentLanguage.TraceabilityMatrix</text>
</g>
<!-- u6 -->
<g id="node12" class="node">
<title>u6</title>
<ellipse fill="#bbbbff" stroke="black" cx="2072.29" cy="-435" rx="187.37" ry="18"/>
<text text-anchor="middle" x="2072.29" y="-431.3" font-family="Times,serif" font-size="14.00">Drasil.DocumentLanguage.Definitions</text>
</g>
<!-- u8&#45;&gt;u6 -->
<g id="edge11" class="edge">
<title>u8&#45;&gt;u6</title>
<path fill="none" stroke="black" d="M1852.75,-765.79C1890.39,-709.25 2010.39,-528.98 2055.2,-461.67"/>
<polygon fill="black" stroke="black" points="2058.14,-463.58 2060.77,-453.31 2052.31,-459.7 2058.14,-463.58"/>
</g>
<!-- u7&#45;&gt;u13 -->
<g id="edge9" class="edge">
<title>u7&#45;&gt;u13</title>
<path fill="none" stroke="black" d="M2506.52,-1812.42C2650.43,-1781.49 2933.65,-1697.38 3054.29,-1499 3149.76,-1342.02 2859.26,-1202.32 2738.43,-1152.44"/>
<polygon fill="black" stroke="black" points="2739.58,-1149.13 2728.99,-1148.59 2736.93,-1155.61 2739.58,-1149.13"/>
</g>
<!-- u7&#45;&gt;u22 -->
<g id="edge10" class="edge">
<title>u7&#45;&gt;u22</title>
<path fill="none" stroke="black" d="M2391.32,-1811.08C2296.95,-1753.99 1990.31,-1568.51 1883.99,-1504.2"/>
<polygon fill="black" stroke="black" points="1885.58,-1501.07 1875.21,-1498.89 1881.96,-1507.06 1885.58,-1501.07"/>
</g>
<!-- u4 -->
<g id="node14" class="node">
<title>u4</title>
<ellipse fill="#bbbbff" stroke="black" cx="2517.29" cy="-87" rx="162.47" ry="18"/>
<text text-anchor="middle" x="2517.29" y="-83.3" font-family="Times,serif" font-size="14.00">Drasil.DocumentLanguage.Units</text>
</g>
<!-- u6&#45;&gt;u4 -->
<g id="edge8" class="edge">
<title>u6&#45;&gt;u4</title>
<path fill="none" stroke="black" d="M2094.06,-417.08C2167.1,-360.28 2403.64,-176.37 2487.48,-111.18"/>
<polygon fill="black" stroke="black" points="2489.82,-113.79 2495.57,-104.89 2485.53,-108.27 2489.82,-113.79"/>
</g>
<!-- u5&#45;&gt;u8 -->
<g id="edge7" class="edge">
<title>u5&#45;&gt;u8</title>
<path fill="none" stroke="black" d="M1562.82,-1113.84C1610.66,-1057.35 1763.4,-876.98 1819.96,-810.19"/>
<polygon fill="black" stroke="black" points="1822.88,-812.15 1826.67,-802.26 1817.54,-807.63 1822.88,-812.15"/>
</g>
<!-- u3 -->
<g id="node15" class="node">
<title>u3</title>
<ellipse fill="#ffbbbb" stroke="black" cx="3627.29" cy="-1829" rx="219.86" ry="18"/>
<text text-anchor="middle" x="3627.29" y="-1825.3" font-family="Times,serif" font-size="14.00">Drasil.DocumentLanguage.Notebook.NBDecl</text>
</g>
<!-- u1 -->
<g id="node17" class="node">
<title>u1</title>
<ellipse fill="#ffbbbb" stroke="black" cx="3685.29" cy="-1481" rx="206.06" ry="18"/>
<text text-anchor="middle" x="3685.29" y="-1477.3" font-family="Times,serif" font-size="14.00">Drasil.DocumentLanguage.Notebook.Core</text>
</g>
<!-- u3&#45;&gt;u1 -->
<g id="edge6" class="edge">
<title>u3&#45;&gt;u1</title>
<path fill="none" stroke="black" d="M3630.17,-1810.84C3639.54,-1754.93 3669.26,-1577.64 3680.72,-1509.27"/>
<polygon fill="black" stroke="black" points="3684.2,-1509.7 3682.4,-1499.26 3677.29,-1508.55 3684.2,-1509.7"/>
</g>
<!-- u2&#45;&gt;u3 -->
<g id="edge3" class="edge">
<title>u2&#45;&gt;u3</title>
<path fill="none" stroke="black" d="M3798.37,-2158.84C3769.16,-2102.7 3676.29,-1924.18 3641.04,-1856.43"/>
<polygon fill="black" stroke="black" points="3643.99,-1854.52 3636.27,-1847.26 3637.78,-1857.75 3643.99,-1854.52"/>
</g>
<!-- u17 -->
<g id="node18" class="node">
<title>u17</title>
<ellipse fill="#bbffff" stroke="black" cx="3987.29" cy="-1829" rx="122.38" ry="18"/>
<text text-anchor="middle" x="3987.29" y="-1825.3" font-family="Times,serif" font-size="14.00">Drasil.NBSections.Body</text>
</g>
<!-- u2&#45;&gt;u17 -->
<g id="edge5" class="edge">
<title>u2&#45;&gt;u17</title>
<path fill="none" stroke="black" d="M3816.22,-2158.84C3845.43,-2102.7 3938.3,-1924.18 3973.54,-1856.43"/>
<polygon fill="black" stroke="black" points="3976.8,-1857.75 3978.31,-1847.26 3970.59,-1854.52 3976.8,-1857.75"/>
</g>
<!-- u16 -->
<g id="node19" class="node">
<title>u16</title>
<ellipse fill="#bbffff" stroke="black" cx="4283.29" cy="-1829" rx="155.97" ry="18"/>
<text text-anchor="middle" x="4283.29" y="-1825.3" font-family="Times,serif" font-size="14.00">Drasil.NBSections.Introduction</text>
</g>
<!-- u2&#45;&gt;u16 -->
<g id="edge4" class="edge">
<title>u2&#45;&gt;u16</title>
<path fill="none" stroke="black" d="M3830.9,-2158.84C3909.59,-2101.64 4162.99,-1917.45 4252.02,-1852.73"/>
<polygon fill="black" stroke="black" points="4254.07,-1855.56 4260.11,-1846.85 4249.96,-1849.9 4254.07,-1855.56"/>
</g>
<!-- u17&#45;&gt;u14 -->
<g id="edge34" class="edge">
<title>u17&#45;&gt;u14</title>
<path fill="none" stroke="black" d="M3995.92,-1810.84C4024.16,-1754.7 4113.93,-1576.18 4148,-1508.43"/>
<polygon fill="black" stroke="black" points="4151.25,-1509.77 4152.61,-1499.26 4144.99,-1506.62 4151.25,-1509.77"/>
</g>
<!-- u16&#45;&gt;u14 -->
<g id="edge33" class="edge">
<title>u16&#45;&gt;u14</title>
<path fill="none" stroke="black" d="M4277.24,-1810.84C4257.49,-1754.81 4194.76,-1576.91 4170.76,-1508.84"/>
<polygon fill="black" stroke="black" points="4174,-1507.53 4167.38,-1499.26 4167.4,-1509.86 4174,-1507.53"/>
</g>
<!-- u30&#45;&gt;u5 -->
<g id="edge51" class="edge">
<title>u30&#45;&gt;u5</title>
<path fill="none" stroke="black" d="M1153.59,-1463.03C1221.58,-1406.18 1441.41,-1222.37 1520.02,-1156.64"/>
<polygon fill="black" stroke="black" points="1522.61,-1159.04 1528.03,-1149.94 1518.12,-1153.67 1522.61,-1159.04"/>
</g>
<!-- u28&#45;&gt;u13 -->
<g id="edge50" class="edge">
<title>u28&#45;&gt;u13</title>
<path fill="none" stroke="black" d="M2561.89,-1462.79C2583.43,-1406.6 2651.81,-1228.19 2677.97,-1159.92"/>
<polygon fill="black" stroke="black" points="2681.35,-1160.9 2681.66,-1150.31 2674.81,-1158.4 2681.35,-1160.9"/>
</g>
<!-- u28&#45;&gt;u4 -->
<g id="edge49" class="edge">
<title>u28&#45;&gt;u4</title>
<path fill="none" stroke="black" d="M2555.03,-1462.79C2553.49,-1362.37 2545.12,-841.81 2531.29,-417 2527.65,-305.04 2521.38,-171.73 2518.64,-115.34"/>
<polygon fill="black" stroke="black" points="2522.12,-114.94 2518.14,-105.12 2515.13,-115.28 2522.12,-114.94"/>
</g>
<!-- u27&#45;&gt;u5 -->
<g id="edge48" class="edge">
<title>u27&#45;&gt;u5</title>
<path fill="none" stroke="black" d="M1459.9,-1462.79C1474.93,-1406.72 1522.58,-1228.92 1540.96,-1160.34"/>
<polygon fill="black" stroke="black" points="1544.44,-1160.88 1543.65,-1150.31 1537.68,-1159.06 1544.44,-1160.88"/>
</g>
<!-- u26&#45;&gt;u13 -->
<g id="edge47" class="edge">
<title>u26&#45;&gt;u13</title>
<path fill="none" stroke="black" d="M2851.06,-1811.14C2934.03,-1761.8 3157.33,-1611.81 3087.29,-1463 3012.78,-1304.67 2820.89,-1196.33 2733.21,-1153.49"/>
<polygon fill="black" stroke="black" points="2734.57,-1150.27 2724.05,-1149.07 2731.53,-1156.57 2734.57,-1150.27"/>
</g>
<!-- u25&#45;&gt;u13 -->
<g id="edge46" class="edge">
<title>u25&#45;&gt;u13</title>
<path fill="none" stroke="black" d="M2874.57,-1462.79C2842.7,-1406.37 2741.23,-1226.72 2703.03,-1159.09"/>
<polygon fill="black" stroke="black" points="2706.04,-1157.3 2698.07,-1150.31 2699.94,-1160.74 2706.04,-1157.3"/>
</g>
<!-- u25&#45;&gt;u5 -->
<g id="edge45" class="edge">
<title>u25&#45;&gt;u5</title>
<path fill="none" stroke="black" d="M2823.85,-1464.3C2604.78,-1407.4 1852.92,-1212.12 1618.6,-1151.26"/>
<polygon fill="black" stroke="black" points="1619.38,-1147.85 1608.83,-1148.72 1617.62,-1154.62 1619.38,-1147.85"/>
</g>
<!-- u23&#45;&gt;u13 -->
<g id="edge44" class="edge">
<title>u23&#45;&gt;u13</title>
<path fill="none" stroke="black" d="M442.35,-1465.2C831.06,-1407.71 2237.4,-1199.69 2601.66,-1145.81"/>
<polygon fill="black" stroke="black" points="2602.23,-1149.27 2611.61,-1144.34 2601.21,-1142.34 2602.23,-1149.27"/>
</g>
<!-- u23&#45;&gt;u6 -->
<g id="edge43" class="edge">
<title>u23&#45;&gt;u6</title>
<path fill="none" stroke="black" d="M370.52,-1462.97C573.3,-1340.6 1806.45,-596.43 2035.65,-458.11"/>
<polygon fill="black" stroke="black" points="2037.54,-461.06 2044.29,-452.9 2033.92,-455.07 2037.54,-461.06"/>
</g>
<!-- u22&#45;&gt;u5 -->
<g id="edge42" class="edge">
<title>u22&#45;&gt;u5</title>
<path fill="none" stroke="black" d="M1832.46,-1462.79C1783.65,-1406.14 1627.78,-1225.25 1570.06,-1158.26"/>
<polygon fill="black" stroke="black" points="1572.39,-1155.6 1563.21,-1150.31 1567.08,-1160.17 1572.39,-1155.6"/>
</g>
<!-- u21&#45;&gt;u13 -->
<g id="edge41" class="edge">
<title>u21&#45;&gt;u13</title>
<path fill="none" stroke="black" d="M2238.43,-1463.03C2316.24,-1405.94 2568.58,-1220.83 2657.18,-1155.82"/>
<polygon fill="black" stroke="black" points="2659.49,-1158.47 2665.48,-1149.74 2655.35,-1152.83 2659.49,-1158.47"/>
</g>
<!-- u21&#45;&gt;u4 -->
<g id="edge40" class="edge">
<title>u21&#45;&gt;u4</title>
<path fill="none" stroke="black" d="M2219,-1462.9C2250.45,-1317.95 2472.19,-295.87 2511.38,-115.24"/>
<polygon fill="black" stroke="black" points="2514.85,-115.76 2513.55,-105.24 2508.01,-114.27 2514.85,-115.76"/>
</g>
<!-- u20&#45;&gt;u13 -->
<g id="edge39" class="edge">
<title>u20&#45;&gt;u13</title>
<path fill="none" stroke="black" d="M3149.74,-1811C3156.76,-1756.38 3172.42,-1582 3106.29,-1463 3018.77,-1305.48 2822.23,-1196.54 2733.4,-1153.5"/>
<polygon fill="black" stroke="black" points="2734.66,-1150.23 2724.13,-1149.06 2731.64,-1156.54 2734.66,-1150.23"/>
</g>
<!-- u19&#45;&gt;u13 -->
<g id="edge38" class="edge">
<title>u19&#45;&gt;u13</title>
<path fill="none" stroke="black" d="M3288.86,-1463.26C3184.71,-1405.99 2842.66,-1217.89 2726.95,-1154.26"/>
<polygon fill="black" stroke="black" points="2728.5,-1151.12 2718.05,-1149.37 2725.13,-1157.25 2728.5,-1151.12"/>
</g>
<!-- u19&#45;&gt;u6 -->
<g id="edge37" class="edge">
<title>u19&#45;&gt;u6</title>
<path fill="none" stroke="black" d="M3299.2,-1463.18C3154.34,-1341.9 2270.32,-601.79 2100.5,-459.61"/>
<polygon fill="black" stroke="black" points="2102.65,-456.85 2092.73,-453.11 2098.15,-462.22 2102.65,-456.85"/>
</g>
</g>
</svg>
