<?xml version="1.0" encoding="UTF-8" standalone="no"?>
<!DOCTYPE svg PUBLIC "-//W3C//DTD SVG 1.1//EN"
 "http://www.w3.org/Graphics/SVG/1.1/DTD/svg11.dtd">
<!-- Generated by graphviz version 2.43.0 (0)
 -->
<!-- Title: G Pages: 1 -->
<svg width="432pt" height="287pt"
 viewBox="0.00 0.00 432.00 286.87" xmlns="http://www.w3.org/2000/svg" xmlns:xlink="http://www.w3.org/1999/xlink">
<g id="graph0" class="graph" transform="scale(14.56 14.56) rotate(0) translate(4 4173.33)">
<title>G</title>
<polygon fill="white" stroke="transparent" points="-4,4 -4,-4173.33 6286.65,-4173.33 6286.65,4 -4,4"/>
<!-- u58 -->
<g id="node1" class="node">
<title>u58</title>
<ellipse fill="#bbffbb" stroke="black" cx="495.65" cy="-3564" rx="53.89" ry="18"/>
<text text-anchor="middle" x="495.65" y="-3560.3" font-family="Times,serif" font-size="14.00">Observer</text>
</g>
<!-- u57 -->
<g id="node2" class="node">
<title>u57</title>
<ellipse fill="#bbffbb" stroke="black" cx="640.65" cy="-3833" rx="62.29" ry="18"/>
<text text-anchor="middle" x="640.65" y="-3829.3" font-family="Times,serif" font-size="14.00">HelloWorld</text>
</g>
<!-- u51 -->
<g id="node7" class="node">
<title>u51</title>
<ellipse fill="#bbffbb" stroke="black" cx="624.65" cy="-3564" rx="42.49" ry="18"/>
<text text-anchor="middle" x="624.65" y="-3560.3" font-family="Times,serif" font-size="14.00">Helper</text>
</g>
<!-- u57&#45;&gt;u51 -->
<g id="edge92" class="edge">
<title>u57&#45;&gt;u51</title>
<path fill="none" stroke="black" d="M639.62,-3814.89C636.92,-3769.79 629.58,-3647.34 626.29,-3592.36"/>
<polygon fill="black" stroke="black" points="629.77,-3592.08 625.68,-3582.31 622.79,-3592.5 629.77,-3592.08"/>
</g>
<!-- u56 -->
<g id="node3" class="node">
<title>u56</title>
<ellipse fill="#bbffbb" stroke="black" cx="52.65" cy="-3833" rx="52.79" ry="18"/>
<text text-anchor="middle" x="52.65" y="-3829.3" font-family="Times,serif" font-size="14.00">FileTests</text>
</g>
<!-- u55 -->
<g id="node4" class="node">
<title>u55</title>
<ellipse fill="#bbffbb" stroke="black" cx="182.65" cy="-3833" rx="59.59" ry="18"/>
<text text-anchor="middle" x="182.65" y="-3829.3" font-family="Times,serif" font-size="14.00">VectorTest</text>
</g>
<!-- u54 -->
<g id="node5" class="node">
<title>u54</title>
<ellipse fill="#bbffbb" stroke="black" cx="495.65" cy="-3833" rx="64.99" ry="18"/>
<text text-anchor="middle" x="495.65" y="-3829.3" font-family="Times,serif" font-size="14.00">PatternTest</text>
</g>
<!-- u54&#45;&gt;u58 -->
<g id="edge91" class="edge">
<title>u54&#45;&gt;u58</title>
<path fill="none" stroke="black" d="M495.65,-3814.89C495.65,-3769.79 495.65,-3647.34 495.65,-3592.36"/>
<polygon fill="black" stroke="black" points="499.15,-3592.31 495.65,-3582.31 492.15,-3592.31 499.15,-3592.31"/>
</g>
<!-- u52 -->
<g id="node6" class="node">
<title>u52</title>
<ellipse fill="#bbffbb" stroke="black" cx="336.65" cy="-3833" rx="76.09" ry="18"/>
<text text-anchor="middle" x="336.65" y="-3829.3" font-family="Times,serif" font-size="14.00">NameGenTest</text>
</g>
<!-- u50 -->
<g id="node8" class="node">
<title>u50</title>
<ellipse fill="#ffffbb" stroke="black" cx="2125.65" cy="-4102" rx="214.46" ry="18"/>
<text text-anchor="middle" x="2125.65" y="-4098.3" font-family="Times,serif" font-size="14.00">Data.Drasil.ExternalLibraries.ODELibraries</text>
</g>
<!-- u40 -->
<g id="node10" class="node">
<title>u40</title>
<ellipse fill="#bbbbff" stroke="black" cx="2125.65" cy="-3833" rx="113.18" ry="18"/>
<text text-anchor="middle" x="2125.65" y="-3829.3" font-family="Times,serif" font-size="14.00">Language.Drasil.Code</text>
</g>
<!-- u50&#45;&gt;u40 -->
<g id="edge84" class="edge">
<title>u50&#45;&gt;u40</title>
<path fill="none" stroke="black" d="M2125.65,-4083.89C2125.65,-4038.79 2125.65,-3916.34 2125.65,-3861.36"/>
<polygon fill="black" stroke="black" points="2129.15,-3861.31 2125.65,-3851.31 2122.15,-3861.31 2129.15,-3861.31"/>
</g>
<!-- u41 -->
<g id="node9" class="node">
<title>u41</title>
<ellipse fill="#bbbbff" stroke="black" cx="4573.65" cy="-874" rx="110.48" ry="18"/>
<text text-anchor="middle" x="4573.65" y="-870.3" font-family="Times,serif" font-size="14.00">Language.Drasil.Mod</text>
</g>
<!-- u44 -->
<g id="node16" class="node">
<title>u44</title>
<ellipse fill="#ffbbbb" stroke="black" cx="4169.65" cy="-605" rx="170.87" ry="18"/>
<text text-anchor="middle" x="4169.65" y="-601.3" font-family="Times,serif" font-size="14.00">Language.Drasil.Chunk.Parameter</text>
</g>
<!-- u41&#45;&gt;u44 -->
<g id="edge75" class="edge">
<title>u41&#45;&gt;u44</title>
<path fill="none" stroke="black" d="M4548.37,-856.3C4478.6,-810.18 4283.19,-681.04 4203.81,-628.58"/>
<polygon fill="black" stroke="black" points="4205.44,-625.46 4195.17,-622.87 4201.58,-631.3 4205.44,-625.46"/>
</g>
<!-- u5 -->
<g id="node23" class="node">
<title>u5</title>
<ellipse fill="#bbffff" stroke="black" cx="3328.65" cy="-605" rx="160.57" ry="18"/>
<text text-anchor="middle" x="3328.65" y="-601.3" font-family="Times,serif" font-size="14.00">Language.Drasil.Code.DataDesc</text>
</g>
<!-- u41&#45;&gt;u5 -->
<g id="edge74" class="edge">
<title>u41&#45;&gt;u5</title>
<path fill="none" stroke="black" d="M4509.76,-859.3C4301.26,-814.58 3640.76,-672.93 3409.54,-623.35"/>
<polygon fill="black" stroke="black" points="3410.02,-619.87 3399.51,-621.2 3408.55,-626.72 3410.02,-619.87"/>
</g>
<!-- u35 -->
<g id="node27" class="node">
<title>u35</title>
<ellipse fill="#ffbbff" stroke="black" cx="1635.65" cy="-2219" rx="217.96" ry="18"/>
<text text-anchor="middle" x="1635.65" y="-2215.3" font-family="Times,serif" font-size="14.00">Language.Drasil.Code.Imperative.ReadInput</text>
</g>
<!-- u40&#45;&gt;u35 -->
<g id="edge73" class="edge">
<title>u40&#45;&gt;u35</title>
<path fill="none" stroke="black" d="M2046.41,-3820.14C1746.08,-3772.97 694.65,-3587.08 694.65,-3296 694.65,-3296 694.65,-3296 694.65,-2756 694.65,-2391.25 1235.07,-2271.51 1496.82,-2234.9"/>
<polygon fill="black" stroke="black" points="1497.35,-2238.36 1506.78,-2233.53 1496.39,-2231.43 1497.35,-2238.36"/>
</g>
<!-- u33 -->
<g id="node29" class="node">
<title>u33</title>
<ellipse fill="#ffbbff" stroke="black" cx="4950.65" cy="-3564" rx="217.16" ry="18"/>
<text text-anchor="middle" x="4950.65" y="-3560.3" font-family="Times,serif" font-size="14.00">Language.Drasil.Code.Imperative.Generator</text>
</g>
<!-- u40&#45;&gt;u33 -->
<g id="edge72" class="edge">
<title>u40&#45;&gt;u33</title>
<path fill="none" stroke="black" d="M2220.04,-3823.08C2634.71,-3783.89 4296.53,-3626.82 4803.23,-3578.93"/>
<polygon fill="black" stroke="black" points="4803.9,-3582.38 4813.53,-3577.96 4803.24,-3575.42 4803.9,-3582.38"/>
</g>
<!-- u17 -->
<g id="node50" class="node">
<title>u17</title>
<ellipse fill="#ff7777" stroke="black" cx="2568.65" cy="-3295" rx="354.44" ry="18"/>
<text text-anchor="middle" x="2568.65" y="-3291.3" font-family="Times,serif" font-size="14.00">Language.Drasil.Code.Imperative.GOOL.LanguageRenderer.JavaRenderer</text>
</g>
<!-- u40&#45;&gt;u17 -->
<g id="edge71" class="edge">
<title>u40&#45;&gt;u17</title>
<path fill="none" stroke="black" d="M2139.64,-3815.07C2203.95,-3737.26 2471.36,-3413.71 2548.02,-3320.95"/>
<polygon fill="black" stroke="black" points="2550.76,-3323.14 2554.43,-3313.2 2545.36,-3318.68 2550.76,-3323.14"/>
</g>
<!-- u16 -->
<g id="node51" class="node">
<title>u16</title>
<ellipse fill="#ff7777" stroke="black" cx="3293.65" cy="-3295" rx="352.84" ry="18"/>
<text text-anchor="middle" x="3293.65" y="-3291.3" font-family="Times,serif" font-size="14.00">Language.Drasil.Code.Imperative.GOOL.LanguageRenderer.CppRenderer</text>
</g>
<!-- u40&#45;&gt;u16 -->
<g id="edge70" class="edge">
<title>u40&#45;&gt;u16</title>
<path fill="none" stroke="black" d="M2160.92,-3815.81C2329.87,-3738.28 3056.08,-3405.02 3247.33,-3317.25"/>
<polygon fill="black" stroke="black" points="3248.93,-3320.37 3256.56,-3313.02 3246.01,-3314.01 3248.93,-3320.37"/>
</g>
<!-- u15 -->
<g id="node52" class="node">
<title>u15</title>
<ellipse fill="#ff7777" stroke="black" cx="4031.65" cy="-3295" rx="367.43" ry="18"/>
<text text-anchor="middle" x="4031.65" y="-3291.3" font-family="Times,serif" font-size="14.00">Language.Drasil.Code.Imperative.GOOL.LanguageRenderer.PythonRenderer</text>
</g>
<!-- u40&#45;&gt;u15 -->
<g id="edge69" class="edge">
<title>u40&#45;&gt;u15</title>
<path fill="none" stroke="black" d="M2178.86,-3817.03C2447.93,-3741.37 3657.69,-3401.16 3962,-3315.58"/>
<polygon fill="black" stroke="black" points="3963.34,-3318.84 3972.02,-3312.77 3961.44,-3312.11 3963.34,-3318.84"/>
</g>
<!-- u13 -->
<g id="node54" class="node">
<title>u13</title>
<ellipse fill="#ff7777" stroke="black" cx="1091.65" cy="-3295" rx="369.33" ry="18"/>
<text text-anchor="middle" x="1091.65" y="-3291.3" font-family="Times,serif" font-size="14.00">Language.Drasil.Code.Imperative.GOOL.LanguageRenderer.CSharpRenderer</text>
</g>
<!-- u40&#45;&gt;u13 -->
<g id="edge68" class="edge">
<title>u40&#45;&gt;u13</title>
<path fill="none" stroke="black" d="M2094.14,-3815.67C1944.25,-3737.97 1303.66,-3405.9 1133.36,-3317.62"/>
<polygon fill="black" stroke="black" points="1134.93,-3314.5 1124.44,-3313 1131.71,-3320.71 1134.93,-3314.5"/>
</g>
<!-- u12 -->
<g id="node55" class="node">
<title>u12</title>
<ellipse fill="#ff7777" stroke="black" cx="1837.65" cy="-3295" rx="358.54" ry="18"/>
<text text-anchor="middle" x="1837.65" y="-3291.3" font-family="Times,serif" font-size="14.00">Language.Drasil.Code.Imperative.GOOL.LanguageRenderer.SwiftRenderer</text>
</g>
<!-- u40&#45;&gt;u12 -->
<g id="edge67" class="edge">
<title>u40&#45;&gt;u12</title>
<path fill="none" stroke="black" d="M2116.39,-3814.77C2074.46,-3736.73 1902.16,-3416.06 1851.63,-3322.03"/>
<polygon fill="black" stroke="black" points="1854.68,-3320.31 1846.87,-3313.16 1848.52,-3323.63 1854.68,-3320.31"/>
</g>
<!-- u1 -->
<g id="node11" class="node">
<title>u1</title>
<ellipse fill="#bbbbff" stroke="black" cx="4591.65" cy="-1950" rx="135.68" ry="18"/>
<text text-anchor="middle" x="4591.65" y="-1946.3" font-family="Times,serif" font-size="14.00">Language.Drasil.CodeSpec</text>
</g>
<!-- u0 -->
<g id="node12" class="node">
<title>u0</title>
<ellipse fill="#bbbbff" stroke="black" cx="3999.65" cy="-1681" rx="126.18" ry="18"/>
<text text-anchor="middle" x="3999.65" y="-1677.3" font-family="Times,serif" font-size="14.00">Language.Drasil.Choices</text>
</g>
<!-- u1&#45;&gt;u0 -->
<g id="edge3" class="edge">
<title>u1&#45;&gt;u0</title>
<path fill="none" stroke="black" d="M4555.06,-1932.5C4451.83,-1885.94 4158.45,-1753.62 4045.11,-1702.51"/>
<polygon fill="black" stroke="black" points="4046.54,-1699.31 4035.99,-1698.39 4043.66,-1705.69 4046.54,-1699.31"/>
</g>
<!-- u47 -->
<g id="node13" class="node">
<title>u47</title>
<ellipse fill="#ffbbbb" stroke="black" cx="4335.65" cy="-1681" rx="192.27" ry="18"/>
<text text-anchor="middle" x="4335.65" y="-1677.3" font-family="Times,serif" font-size="14.00">Language.Drasil.Chunk.ConstraintMap</text>
</g>
<!-- u1&#45;&gt;u47 -->
<g id="edge5" class="edge">
<title>u1&#45;&gt;u47</title>
<path fill="none" stroke="black" d="M4575.24,-1931.89C4531.17,-1885.93 4410.08,-1759.63 4358.93,-1706.29"/>
<polygon fill="black" stroke="black" points="4361.36,-1703.76 4351.91,-1698.97 4356.31,-1708.61 4361.36,-1703.76"/>
</g>
<!-- u46 -->
<g id="node14" class="node">
<title>u46</title>
<ellipse fill="#ffbbbb" stroke="black" cx="4736.65" cy="-1681" rx="191.17" ry="18"/>
<text text-anchor="middle" x="4736.65" y="-1677.3" font-family="Times,serif" font-size="14.00">Language.Drasil.Chunk.CodeDefinition</text>
</g>
<!-- u1&#45;&gt;u46 -->
<g id="edge4" class="edge">
<title>u1&#45;&gt;u46</title>
<path fill="none" stroke="black" d="M4600.94,-1931.89C4625.58,-1886.51 4692.76,-1762.81 4722.34,-1708.34"/>
<polygon fill="black" stroke="black" points="4725.55,-1709.77 4727.24,-1699.31 4719.4,-1706.43 4725.55,-1709.77"/>
</g>
<!-- u36 -->
<g id="node22" class="node">
<title>u36</title>
<ellipse fill="#bbffff" stroke="black" cx="3374.65" cy="-1412" rx="139.98" ry="18"/>
<text text-anchor="middle" x="3374.65" y="-1408.3" font-family="Times,serif" font-size="14.00">Language.Drasil.Code.Code</text>
</g>
<!-- u0&#45;&gt;u36 -->
<g id="edge1" class="edge">
<title>u0&#45;&gt;u36</title>
<path fill="none" stroke="black" d="M3961.49,-1663.7C3852.85,-1617.29 3542.03,-1484.51 3422.39,-1433.4"/>
<polygon fill="black" stroke="black" points="3423.67,-1430.14 3413.1,-1429.43 3420.92,-1436.57 3423.67,-1430.14"/>
</g>
<!-- u49 -->
<g id="node57" class="node">
<title>u49</title>
<ellipse fill="#ff77ff" stroke="black" cx="4043.65" cy="-1412" rx="172.77" ry="18"/>
<text text-anchor="middle" x="4043.65" y="-1408.3" font-family="Times,serif" font-size="14.00">Language.Drasil.Data.ODELibPckg</text>
</g>
<!-- u0&#45;&gt;u49 -->
<g id="edge2" class="edge">
<title>u0&#45;&gt;u49</title>
<path fill="none" stroke="black" d="M4002.46,-1662.89C4009.9,-1617.79 4030.08,-1495.34 4039.14,-1440.36"/>
<polygon fill="black" stroke="black" points="4042.62,-1440.75 4040.79,-1430.31 4035.71,-1439.61 4042.62,-1440.75"/>
</g>
<!-- u48 -->
<g id="node58" class="node">
<title>u48</title>
<ellipse fill="#ff77ff" stroke="black" cx="3732.65" cy="-1143" rx="154.07" ry="18"/>
<text text-anchor="middle" x="3732.65" y="-1139.3" font-family="Times,serif" font-size="14.00">Language.Drasil.Data.ODEInfo</text>
</g>
<!-- u46&#45;&gt;u48 -->
<g id="edge78" class="edge">
<title>u46&#45;&gt;u48</title>
<path fill="none" stroke="black" d="M4650.57,-1664.92C4454.43,-1629.08 3982,-1534.01 3861.65,-1430 3780.34,-1359.73 3747.74,-1227.91 3737.06,-1171.14"/>
<polygon fill="black" stroke="black" points="3740.47,-1170.36 3735.26,-1161.14 3733.59,-1171.6 3740.47,-1170.36"/>
</g>
<!-- u45 -->
<g id="node15" class="node">
<title>u45</title>
<ellipse fill="#ffbbbb" stroke="black" cx="3732.65" cy="-336" rx="145.67" ry="18"/>
<text text-anchor="middle" x="3732.65" y="-332.3" font-family="Times,serif" font-size="14.00">Language.Drasil.Chunk.Code</text>
</g>
<!-- u42 -->
<g id="node18" class="node">
<title>u42</title>
<ellipse fill="#ffbbbb" stroke="black" cx="3732.65" cy="-67" rx="168.17" ry="18"/>
<text text-anchor="middle" x="3732.65" y="-63.3" font-family="Times,serif" font-size="14.00">Language.Drasil.Chunk.CodeBase</text>
</g>
<!-- u45&#45;&gt;u42 -->
<g id="edge77" class="edge">
<title>u45&#45;&gt;u42</title>
<path fill="none" stroke="black" d="M3732.65,-317.89C3732.65,-272.79 3732.65,-150.34 3732.65,-95.36"/>
<polygon fill="black" stroke="black" points="3736.15,-95.31 3732.65,-85.31 3729.15,-95.31 3736.15,-95.31"/>
</g>
<!-- u44&#45;&gt;u45 -->
<g id="edge76" class="edge">
<title>u44&#45;&gt;u45</title>
<path fill="none" stroke="black" d="M4141.98,-587.1C4065.96,-540.65 3853.93,-411.1 3768.75,-359.06"/>
<polygon fill="black" stroke="black" points="3770.55,-356.06 3760.19,-353.83 3766.9,-362.03 3770.55,-356.06"/>
</g>
<!-- u43 -->
<g id="node17" class="node">
<title>u43</title>
<ellipse fill="#ffbbbb" stroke="black" cx="4242.65" cy="-874" rx="202.26" ry="18"/>
<text text-anchor="middle" x="4242.65" y="-870.3" font-family="Times,serif" font-size="14.00">Language.Drasil.Chunk.NamedArgument</text>
</g>
<!-- u39 -->
<g id="node19" class="node">
<title>u39</title>
<ellipse fill="#bbffff" stroke="black" cx="4408.65" cy="-1143" rx="207.96" ry="18"/>
<text text-anchor="middle" x="4408.65" y="-1139.3" font-family="Times,serif" font-size="14.00">Language.Drasil.Code.ExternalLibraryCall</text>
</g>
<!-- u39&#45;&gt;u41 -->
<g id="edge65" class="edge">
<title>u39&#45;&gt;u41</title>
<path fill="none" stroke="black" d="M4419.22,-1124.89C4447.39,-1079.3 4524.39,-954.7 4557.82,-900.62"/>
<polygon fill="black" stroke="black" points="4560.88,-902.31 4563.16,-891.97 4554.93,-898.63 4560.88,-902.31"/>
</g>
<!-- u39&#45;&gt;u43 -->
<g id="edge66" class="edge">
<title>u39&#45;&gt;u43</title>
<path fill="none" stroke="black" d="M4398.01,-1124.89C4369.73,-1079.41 4292.57,-955.29 4258.81,-901"/>
<polygon fill="black" stroke="black" points="4261.66,-898.96 4253.41,-892.31 4255.72,-902.65 4261.66,-898.96"/>
</g>
<!-- u38 -->
<g id="node20" class="node">
<title>u38</title>
<ellipse fill="#bbffff" stroke="black" cx="4043.65" cy="-1143" rx="139.18" ry="18"/>
<text text-anchor="middle" x="4043.65" y="-1139.3" font-family="Times,serif" font-size="14.00">Language.Drasil.Code.Lang</text>
</g>
<!-- u37 -->
<g id="node21" class="node">
<title>u37</title>
<ellipse fill="#bbffff" stroke="black" cx="4607.65" cy="-3295" rx="191.17" ry="18"/>
<text text-anchor="middle" x="4607.65" y="-3291.3" font-family="Times,serif" font-size="14.00">Language.Drasil.Code.CodeGeneration</text>
</g>
<!-- u37&#45;&gt;u36 -->
<g id="edge64" class="edge">
<title>u37&#45;&gt;u36</title>
<path fill="none" stroke="black" d="M4537.55,-3278.19C4282.96,-3219.18 3414.46,-3003.46 3266.65,-2775 3197.45,-2668.04 3247.65,-2616.39 3247.65,-2489 3247.65,-2489 3247.65,-2489 3247.65,-1949 3247.65,-1748.57 3332.77,-1517.05 3363.64,-1439.7"/>
<polygon fill="black" stroke="black" points="3366.96,-1440.81 3367.45,-1430.23 3360.47,-1438.2 3366.96,-1440.81"/>
</g>
<!-- u19 -->
<g id="node48" class="node">
<title>u19</title>
<ellipse fill="#7777ff" stroke="black" cx="3218.65" cy="-3026" rx="222.06" ry="18"/>
<text text-anchor="middle" x="3218.65" y="-3022.3" font-family="Times,serif" font-size="14.00">Language.Drasil.Code.Imperative.GOOL.Data</text>
</g>
<!-- u37&#45;&gt;u19 -->
<g id="edge63" class="edge">
<title>u37&#45;&gt;u19</title>
<path fill="none" stroke="black" d="M4527.72,-3278.64C4286.55,-3232.28 3566.91,-3093.95 3310.58,-3044.67"/>
<polygon fill="black" stroke="black" points="3311.04,-3041.2 3300.55,-3042.74 3309.71,-3048.07 3311.04,-3041.2"/>
</g>
<!-- u5&#45;&gt;u45 -->
<g id="edge10" class="edge">
<title>u5&#45;&gt;u45</title>
<path fill="none" stroke="black" d="M3354.22,-587.1C3424.29,-540.79 3619.33,-411.89 3698.55,-359.53"/>
<polygon fill="black" stroke="black" points="3700.77,-362.26 3707.18,-353.83 3696.91,-356.42 3700.77,-362.26"/>
</g>
<!-- u4 -->
<g id="node24" class="node">
<title>u4</title>
<ellipse fill="#bbffff" stroke="black" cx="4824.65" cy="-1143" rx="190.37" ry="18"/>
<text text-anchor="middle" x="4824.65" y="-1139.3" font-family="Times,serif" font-size="14.00">Language.Drasil.Code.ExternalLibrary</text>
</g>
<!-- u4&#45;&gt;u41 -->
<g id="edge8" class="edge">
<title>u4&#45;&gt;u41</title>
<path fill="none" stroke="black" d="M4808.56,-1124.89C4765.35,-1078.93 4646.63,-952.63 4596.48,-899.29"/>
<polygon fill="black" stroke="black" points="4598.99,-896.85 4589.59,-891.97 4593.89,-901.65 4598.99,-896.85"/>
</g>
<!-- u4&#45;&gt;u43 -->
<g id="edge9" class="edge">
<title>u4&#45;&gt;u43</title>
<path fill="none" stroke="black" d="M4788.24,-1125.3C4686.8,-1078.76 4401.07,-947.68 4288.78,-896.16"/>
<polygon fill="black" stroke="black" points="4289.96,-892.86 4279.41,-891.87 4287.04,-899.22 4289.96,-892.86"/>
</g>
<!-- u3 -->
<g id="node25" class="node">
<title>u3</title>
<ellipse fill="#bbffff" stroke="black" cx="4113.65" cy="-2488" rx="204.16" ry="18"/>
<text text-anchor="middle" x="4113.65" y="-2484.3" font-family="Times,serif" font-size="14.00">Language.Drasil.Code.CodeQuantityDicts</text>
</g>
<!-- u2 -->
<g id="node26" class="node">
<title>u2</title>
<ellipse fill="#bbffff" stroke="black" cx="4911.65" cy="-1412" rx="178.97" ry="18"/>
<text text-anchor="middle" x="4911.65" y="-1408.3" font-family="Times,serif" font-size="14.00">Language.Drasil.Code.ExtLibImport</text>
</g>
<!-- u2&#45;&gt;u39 -->
<g id="edge7" class="edge">
<title>u2&#45;&gt;u39</title>
<path fill="none" stroke="black" d="M4879.8,-1394.1C4792.04,-1347.51 4546.76,-1217.31 4449.31,-1165.59"/>
<polygon fill="black" stroke="black" points="4450.83,-1162.43 4440.35,-1160.83 4447.54,-1168.61 4450.83,-1162.43"/>
</g>
<!-- u2&#45;&gt;u4 -->
<g id="edge6" class="edge">
<title>u2&#45;&gt;u4</title>
<path fill="none" stroke="black" d="M4906.07,-1393.89C4891.34,-1348.69 4851.31,-1225.83 4833.45,-1171.02"/>
<polygon fill="black" stroke="black" points="4836.71,-1169.73 4830.29,-1161.31 4830.06,-1171.9 4836.71,-1169.73"/>
</g>
<!-- u35&#45;&gt;u5 -->
<g id="edge62" class="edge">
<title>u35&#45;&gt;u5</title>
<path fill="none" stroke="black" d="M1676.3,-2201.22C1801.15,-2146.7 2170.65,-1961.72 2170.65,-1682 2170.65,-1682 2170.65,-1682 2170.65,-1142 2170.65,-710.68 2840.46,-625.4 3161.24,-609.29"/>
<polygon fill="black" stroke="black" points="3161.75,-612.77 3171.57,-608.79 3161.41,-605.78 3161.75,-612.77"/>
</g>
<!-- u34 -->
<g id="node28" class="node">
<title>u34</title>
<ellipse fill="#ffbbff" stroke="black" cx="5554.65" cy="-3026" rx="228.26" ry="18"/>
<text text-anchor="middle" x="5554.65" y="-3022.3" font-family="Times,serif" font-size="14.00">Language.Drasil.Code.Imperative.Descriptions</text>
</g>
<!-- u27 -->
<g id="node34" class="node">
<title>u27</title>
<ellipse fill="#ffbbff" stroke="black" cx="5193.65" cy="-2219" rx="222.06" ry="18"/>
<text text-anchor="middle" x="5193.65" y="-2215.3" font-family="Times,serif" font-size="14.00">Language.Drasil.Code.Imperative.DrasilState</text>
</g>
<!-- u34&#45;&gt;u27 -->
<g id="edge61" class="edge">
<title>u34&#45;&gt;u27</title>
<path fill="none" stroke="black" d="M5605.31,-3008.39C5786.12,-2946.56 6378.62,-2720.33 6183.65,-2470 6080.03,-2336.97 5583.71,-2263.6 5335.56,-2234.68"/>
<polygon fill="black" stroke="black" points="5335.72,-2231.18 5325.38,-2233.5 5334.91,-2238.13 5335.72,-2231.18"/>
</g>
<!-- u33&#45;&gt;u37 -->
<g id="edge60" class="edge">
<title>u33&#45;&gt;u37</title>
<path fill="none" stroke="black" d="M4928.67,-3545.89C4869.26,-3499.64 4705.38,-3372.08 4637.59,-3319.31"/>
<polygon fill="black" stroke="black" points="4639.48,-3316.35 4629.44,-3312.97 4635.18,-3321.87 4639.48,-3316.35"/>
</g>
<!-- u31 -->
<g id="node31" class="node">
<title>u31</title>
<ellipse fill="#ffbbff" stroke="black" cx="4955.65" cy="-1950" rx="209.86" ry="18"/>
<text text-anchor="middle" x="4955.65" y="-1946.3" font-family="Times,serif" font-size="14.00">Language.Drasil.Code.Imperative.GenODE</text>
</g>
<!-- u33&#45;&gt;u31 -->
<g id="edge59" class="edge">
<title>u33&#45;&gt;u31</title>
<path fill="none" stroke="black" d="M5038.3,-3547.5C5334.92,-3492.6 6282.65,-3296.13 6282.65,-3027 6282.65,-3027 6282.65,-3027 6282.65,-2487 6282.65,-2221.52 5357.97,-2025.77 5052.37,-1968.32"/>
<polygon fill="black" stroke="black" points="5052.67,-1964.82 5042.2,-1966.42 5051.39,-1971.7 5052.67,-1964.82"/>
</g>
<!-- u29 -->
<g id="node32" class="node">
<title>u29</title>
<ellipse fill="#ffbbff" stroke="black" cx="5075.65" cy="-3295" rx="209.06" ry="18"/>
<text text-anchor="middle" x="5075.65" y="-3291.3" font-family="Times,serif" font-size="14.00">Language.Drasil.Code.Imperative.Modules</text>
</g>
<!-- u33&#45;&gt;u29 -->
<g id="edge58" class="edge">
<title>u33&#45;&gt;u29</title>
<path fill="none" stroke="black" d="M4958.65,-3545.89C4979.86,-3500.6 5037.58,-3377.32 5063.15,-3322.68"/>
<polygon fill="black" stroke="black" points="5066.47,-3323.85 5067.54,-3313.31 5060.13,-3320.88 5066.47,-3323.85"/>
</g>
<!-- u11 -->
<g id="node38" class="node">
<title>u11</title>
<ellipse fill="#ffbbff" stroke="black" cx="6027.65" cy="-3026" rx="226.66" ry="18"/>
<text text-anchor="middle" x="6027.65" y="-3022.3" font-family="Times,serif" font-size="14.00">Language.Drasil.Code.Imperative.SpaceMatch</text>
</g>
<!-- u33&#45;&gt;u11 -->
<g id="edge56" class="edge">
<title>u33&#45;&gt;u11</title>
<path fill="none" stroke="black" d="M4984.66,-3546.07C5143.08,-3467.23 5808.38,-3136.12 5984.64,-3048.4"/>
<polygon fill="black" stroke="black" points="5986.23,-3051.52 5993.63,-3043.93 5983.11,-3045.25 5986.23,-3051.52"/>
</g>
<!-- u18 -->
<g id="node49" class="node">
<title>u18</title>
<ellipse fill="#7777ff" stroke="black" cx="4049.65" cy="-2757" rx="289.45" ry="18"/>
<text text-anchor="middle" x="4049.65" y="-2753.3" font-family="Times,serif" font-size="14.00">Language.Drasil.Code.Imperative.GOOL.LanguageRenderer</text>
</g>
<!-- u33&#45;&gt;u18 -->
<g id="edge57" class="edge">
<title>u33&#45;&gt;u18</title>
<path fill="none" stroke="black" d="M4945.45,-3545.79C4930.5,-3498.44 4883.53,-3364.04 4807.65,-3277 4589.34,-3026.6 4224.49,-2840.1 4096.07,-2779.27"/>
<polygon fill="black" stroke="black" points="4097.42,-2776.04 4086.88,-2774.94 4094.44,-2782.37 4097.42,-2776.04"/>
</g>
<!-- u32 -->
<g id="node30" class="node">
<title>u32</title>
<ellipse fill="#ffbbff" stroke="black" cx="2937.65" cy="-1950" rx="219.86" ry="18"/>
<text text-anchor="middle" x="2937.65" y="-1946.3" font-family="Times,serif" font-size="14.00">Language.Drasil.Code.Imperative.WriteInput</text>
</g>
<!-- u32&#45;&gt;u5 -->
<g id="edge55" class="edge">
<title>u32&#45;&gt;u5</title>
<path fill="none" stroke="black" d="M2945.8,-1931.87C2976.26,-1866.26 3081.65,-1624.02 3081.65,-1413 3081.65,-1413 3081.65,-1413 3081.65,-1142 3081.65,-926.92 3247.71,-704.18 3307.51,-630.95"/>
<polygon fill="black" stroke="black" points="3310.27,-633.1 3313.93,-623.16 3304.87,-628.65 3310.27,-633.1"/>
</g>
<!-- u31&#45;&gt;u0 -->
<g id="edge52" class="edge">
<title>u31&#45;&gt;u0</title>
<path fill="none" stroke="black" d="M4897.28,-1932.7C4728.39,-1885.53 4240,-1749.13 4063.9,-1699.95"/>
<polygon fill="black" stroke="black" points="4064.83,-1696.57 4054.26,-1697.25 4062.95,-1703.31 4064.83,-1696.57"/>
</g>
<!-- u31&#45;&gt;u46 -->
<g id="edge54" class="edge">
<title>u31&#45;&gt;u46</title>
<path fill="none" stroke="black" d="M4941.61,-1931.89C4904.07,-1886.12 4801.17,-1760.67 4757.11,-1706.95"/>
<polygon fill="black" stroke="black" points="4759.61,-1704.48 4750.56,-1698.97 4754.2,-1708.92 4759.61,-1704.48"/>
</g>
<!-- u31&#45;&gt;u2 -->
<g id="edge53" class="edge">
<title>u31&#45;&gt;u2</title>
<path fill="none" stroke="black" d="M4954.71,-1931.9C4952.23,-1887.5 4945.12,-1764.91 4936.65,-1663 4929.9,-1581.91 4919.71,-1486.25 4914.68,-1440.31"/>
<polygon fill="black" stroke="black" points="4918.14,-1439.82 4913.57,-1430.26 4911.19,-1440.58 4918.14,-1439.82"/>
</g>
<!-- u29&#45;&gt;u34 -->
<g id="edge50" class="edge">
<title>u29&#45;&gt;u34</title>
<path fill="none" stroke="black" d="M5105.97,-3277.1C5189.36,-3230.61 5422.09,-3100.89 5515.31,-3048.93"/>
<polygon fill="black" stroke="black" points="5517.11,-3051.93 5524.14,-3044 5513.7,-3045.81 5517.11,-3051.93"/>
</g>
<!-- u26 -->
<g id="node35" class="node">
<title>u26</title>
<ellipse fill="#ffbbff" stroke="black" cx="5075.65" cy="-3026" rx="233.16" ry="18"/>
<text text-anchor="middle" x="5075.65" y="-3022.3" font-family="Times,serif" font-size="14.00">Language.Drasil.Code.Imperative.FunctionCalls</text>
</g>
<!-- u29&#45;&gt;u26 -->
<g id="edge49" class="edge">
<title>u29&#45;&gt;u26</title>
<path fill="none" stroke="black" d="M5075.65,-3276.89C5075.65,-3231.79 5075.65,-3109.34 5075.65,-3054.36"/>
<polygon fill="black" stroke="black" points="5079.15,-3054.31 5075.65,-3044.31 5072.15,-3054.31 5079.15,-3054.31"/>
</g>
<!-- u28 -->
<g id="node33" class="node">
<title>u28</title>
<ellipse fill="#ffbbff" stroke="black" cx="5075.65" cy="-2757" rx="201.46" ry="18"/>
<text text-anchor="middle" x="5075.65" y="-2753.3" font-family="Times,serif" font-size="14.00">Language.Drasil.Code.Imperative.Import</text>
</g>
<!-- u28&#45;&gt;u3 -->
<g id="edge43" class="edge">
<title>u28&#45;&gt;u3</title>
<path fill="none" stroke="black" d="M5016.92,-2739.7C4848.16,-2692.86 4362.44,-2558.05 4182.11,-2508"/>
<polygon fill="black" stroke="black" points="4182.79,-2504.56 4172.22,-2505.26 4180.92,-2511.3 4182.79,-2504.56"/>
</g>
<!-- u22 -->
<g id="node36" class="node">
<title>u22</title>
<ellipse fill="#ffbbff" stroke="black" cx="4200.65" cy="-1950" rx="237.46" ry="18"/>
<text text-anchor="middle" x="4200.65" y="-1946.3" font-family="Times,serif" font-size="14.00">Language.Drasil.Code.Imperative.ConceptMatch</text>
</g>
<!-- u28&#45;&gt;u22 -->
<g id="edge48" class="edge">
<title>u28&#45;&gt;u22</title>
<path fill="none" stroke="black" d="M4912.26,-2746.39C4747.04,-2727.32 4497.65,-2671.05 4364.65,-2506 4278.93,-2399.64 4366.41,-2331.69 4326.65,-2201 4300.16,-2113.96 4245.04,-2020.55 4217.32,-1976.61"/>
<polygon fill="black" stroke="black" points="4220.17,-1974.57 4211.84,-1968.01 4214.26,-1978.33 4220.17,-1974.57"/>
</g>
<!-- u21 -->
<g id="node37" class="node">
<title>u21</title>
<ellipse fill="#ffbbff" stroke="black" cx="4613.65" cy="-2488" rx="240.46" ry="18"/>
<text text-anchor="middle" x="4613.65" y="-2484.3" font-family="Times,serif" font-size="14.00">Language.Drasil.Code.Imperative.GenerateGOOL</text>
</g>
<!-- u28&#45;&gt;u21 -->
<g id="edge47" class="edge">
<title>u28&#45;&gt;u21</title>
<path fill="none" stroke="black" d="M5046.39,-2739.1C4966.04,-2692.66 4741.95,-2563.15 4651.86,-2511.09"/>
<polygon fill="black" stroke="black" points="4653.48,-2507.98 4643.07,-2506 4649.97,-2514.04 4653.48,-2507.98"/>
</g>
<!-- u9 -->
<g id="node40" class="node">
<title>u9</title>
<ellipse fill="#ffbbff" stroke="black" cx="5954.65" cy="-2488" rx="219.86" ry="18"/>
<text text-anchor="middle" x="5954.65" y="-2484.3" font-family="Times,serif" font-size="14.00">Language.Drasil.Code.Imperative.Comments</text>
</g>
<!-- u28&#45;&gt;u9 -->
<g id="edge46" class="edge">
<title>u28&#45;&gt;u9</title>
<path fill="none" stroke="black" d="M5129.64,-2739.6C5283.73,-2692.79 5725.1,-2558.73 5890.78,-2508.4"/>
<polygon fill="black" stroke="black" points="5891.8,-2511.75 5900.35,-2505.49 5889.76,-2505.05 5891.8,-2511.75"/>
</g>
<!-- u8 -->
<g id="node41" class="node">
<title>u8</title>
<ellipse fill="#ffbbff" stroke="black" cx="5078.65" cy="-2488" rx="206.06" ry="18"/>
<text text-anchor="middle" x="5078.65" y="-2484.3" font-family="Times,serif" font-size="14.00">Language.Drasil.Code.Imperative.Helpers</text>
</g>
<!-- u28&#45;&gt;u8 -->
<g id="edge45" class="edge">
<title>u28&#45;&gt;u8</title>
<path fill="none" stroke="black" d="M5075.84,-2738.89C5076.34,-2693.79 5077.72,-2571.34 5078.34,-2516.36"/>
<polygon fill="black" stroke="black" points="5081.84,-2516.35 5078.45,-2506.31 5074.84,-2516.27 5081.84,-2516.35"/>
</g>
<!-- u6 -->
<g id="node43" class="node">
<title>u6</title>
<ellipse fill="#ffbbff" stroke="black" cx="5509.65" cy="-2488" rx="207.16" ry="18"/>
<text text-anchor="middle" x="5509.65" y="-2484.3" font-family="Times,serif" font-size="14.00">Language.Drasil.Code.Imperative.Logging</text>
</g>
<!-- u28&#45;&gt;u6 -->
<g id="edge44" class="edge">
<title>u28&#45;&gt;u6</title>
<path fill="none" stroke="black" d="M5103.12,-2739.1C5178.53,-2692.71 5388.69,-2563.41 5473.49,-2511.24"/>
<polygon fill="black" stroke="black" points="5475.32,-2514.22 5482.01,-2506 5471.66,-2508.26 5475.32,-2514.22"/>
</g>
<!-- u27&#45;&gt;u1 -->
<g id="edge41" class="edge">
<title>u27&#45;&gt;u1</title>
<path fill="none" stroke="black" d="M5155.53,-2201.1C5049.82,-2154.21 4753.17,-2022.64 4638.09,-1971.6"/>
<polygon fill="black" stroke="black" points="4639.38,-1968.34 4628.82,-1967.49 4636.54,-1974.74 4639.38,-1968.34"/>
</g>
<!-- u27&#45;&gt;u2 -->
<g id="edge42" class="edge">
<title>u27&#45;&gt;u2</title>
<path fill="none" stroke="black" d="M5194.86,-2200.85C5197.54,-2155.81 5201.76,-2030.86 5174.65,-1932 5118.92,-1728.81 4979.41,-1512.19 4929.64,-1438.91"/>
<polygon fill="black" stroke="black" points="4932.29,-1436.59 4923.76,-1430.31 4926.51,-1440.54 4932.29,-1436.59"/>
</g>
<!-- u26&#45;&gt;u28 -->
<g id="edge40" class="edge">
<title>u26&#45;&gt;u28</title>
<path fill="none" stroke="black" d="M5075.65,-3007.89C5075.65,-2962.79 5075.65,-2840.34 5075.65,-2785.36"/>
<polygon fill="black" stroke="black" points="5079.15,-2785.31 5075.65,-2775.31 5072.15,-2785.31 5079.15,-2785.31"/>
</g>
<!-- u10 -->
<g id="node39" class="node">
<title>u10</title>
<ellipse fill="#ffbbff" stroke="black" cx="4580.65" cy="-2757" rx="223.66" ry="18"/>
<text text-anchor="middle" x="4580.65" y="-2753.3" font-family="Times,serif" font-size="14.00">Language.Drasil.Code.Imperative.Parameters</text>
</g>
<!-- u26&#45;&gt;u10 -->
<g id="edge39" class="edge">
<title>u26&#45;&gt;u10</title>
<path fill="none" stroke="black" d="M5044.31,-3008.1C4957.94,-2961.51 4716.57,-2831.31 4620.66,-2779.59"/>
<polygon fill="black" stroke="black" points="4622.31,-2776.5 4611.85,-2774.83 4618.99,-2782.66 4622.31,-2776.5"/>
</g>
<!-- u22&#45;&gt;u0 -->
<g id="edge36" class="edge">
<title>u22&#45;&gt;u0</title>
<path fill="none" stroke="black" d="M4187.77,-1931.89C4153.38,-1886.21 4059.26,-1761.18 4018.68,-1707.28"/>
<polygon fill="black" stroke="black" points="4021.23,-1704.85 4012.42,-1698.97 4015.64,-1709.06 4021.23,-1704.85"/>
</g>
<!-- u21&#45;&gt;u27 -->
<g id="edge35" class="edge">
<title>u21&#45;&gt;u27</title>
<path fill="none" stroke="black" d="M4650.37,-2470.1C4751.87,-2423.37 5036.1,-2292.53 5147.77,-2241.12"/>
<polygon fill="black" stroke="black" points="5149.46,-2244.19 5157.08,-2236.83 5146.54,-2237.83 5149.46,-2244.19"/>
</g>
<!-- u20 -->
<g id="node47" class="node">
<title>u20</title>
<ellipse fill="#7777ff" stroke="black" cx="4050.65" cy="-2219" rx="267.25" ry="18"/>
<text text-anchor="middle" x="4050.65" y="-2215.3" font-family="Times,serif" font-size="14.00">Language.Drasil.Code.Imperative.GOOL.ClassInterface</text>
</g>
<!-- u21&#45;&gt;u20 -->
<g id="edge34" class="edge">
<title>u21&#45;&gt;u20</title>
<path fill="none" stroke="black" d="M4578,-2470.1C4479.59,-2423.42 4204.23,-2292.84 4095.57,-2241.3"/>
<polygon fill="black" stroke="black" points="4097.03,-2238.13 4086.5,-2237 4094.03,-2244.45 4097.03,-2238.13"/>
</g>
<!-- u11&#45;&gt;u27 -->
<g id="edge17" class="edge">
<title>u11&#45;&gt;u27</title>
<path fill="none" stroke="black" d="M6043.56,-3007.59C6108.57,-2934.35 6344.14,-2646.87 6205.65,-2470 6099.74,-2334.75 5594.4,-2262.61 5340.27,-2234.36"/>
<polygon fill="black" stroke="black" points="5340.54,-2230.87 5330.22,-2233.25 5339.77,-2237.83 5340.54,-2230.87"/>
</g>
<!-- u10&#45;&gt;u3 -->
<g id="edge15" class="edge">
<title>u10&#45;&gt;u3</title>
<path fill="none" stroke="black" d="M4551.08,-2739.1C4469.76,-2692.6 4242.79,-2562.84 4151.95,-2510.9"/>
<polygon fill="black" stroke="black" points="4153.5,-2507.76 4143.08,-2505.83 4150.03,-2513.83 4153.5,-2507.76"/>
</g>
<!-- u10&#45;&gt;u27 -->
<g id="edge16" class="edge">
<title>u10&#45;&gt;u27</title>
<path fill="none" stroke="black" d="M4419.44,-2744.52C4173.83,-2721 3749.54,-2653.12 3900.65,-2470 4036.71,-2305.11 4663.92,-2247.72 4992.14,-2228.76"/>
<polygon fill="black" stroke="black" points="4992.46,-2232.25 5002.24,-2228.18 4992.06,-2225.26 4992.46,-2232.25"/>
</g>
<!-- u9&#45;&gt;u27 -->
<g id="edge14" class="edge">
<title>u9&#45;&gt;u27</title>
<path fill="none" stroke="black" d="M5907.33,-2470.4C5774.01,-2423.62 5395.59,-2290.85 5250.88,-2240.08"/>
<polygon fill="black" stroke="black" points="5251.88,-2236.72 5241.28,-2236.71 5249.56,-2243.33 5251.88,-2236.72"/>
</g>
<!-- u8&#45;&gt;u27 -->
<g id="edge13" class="edge">
<title>u8&#45;&gt;u27</title>
<path fill="none" stroke="black" d="M5086.01,-2469.89C5105.52,-2424.6 5158.62,-2301.32 5182.15,-2246.68"/>
<polygon fill="black" stroke="black" points="5185.45,-2247.88 5186.19,-2237.31 5179.02,-2245.11 5185.45,-2247.88"/>
</g>
<!-- u7 -->
<g id="node42" class="node">
<title>u7</title>
<ellipse fill="#ffbbff" stroke="black" cx="3508.65" cy="-2757" rx="233.16" ry="18"/>
<text text-anchor="middle" x="3508.65" y="-2753.3" font-family="Times,serif" font-size="14.00">Language.Drasil.Code.Imperative.WriteReadMe</text>
</g>
<!-- u7&#45;&gt;u20 -->
<g id="edge12" class="edge">
<title>u7&#45;&gt;u20</title>
<path fill="none" stroke="black" d="M3526.06,-2738.77C3605.46,-2660.26 3933.18,-2336.17 4026.03,-2244.35"/>
<polygon fill="black" stroke="black" points="4028.64,-2246.68 4033.29,-2237.16 4023.72,-2241.71 4028.64,-2246.68"/>
</g>
<!-- u6&#45;&gt;u27 -->
<g id="edge11" class="edge">
<title>u6&#45;&gt;u27</title>
<path fill="none" stroke="black" d="M5489.4,-2469.89C5434.77,-2423.74 5284.3,-2296.6 5221.62,-2243.64"/>
<polygon fill="black" stroke="black" points="5223.62,-2240.75 5213.72,-2236.97 5219.1,-2246.09 5223.62,-2240.75"/>
</g>
<!-- u24 -->
<g id="node44" class="node">
<title>u24</title>
<ellipse fill="#77ff77" stroke="black" cx="2584.65" cy="-2488" rx="215.56" ry="18"/>
<text text-anchor="middle" x="2584.65" y="-2484.3" font-family="Times,serif" font-size="14.00">Language.Drasil.Code.Imperative.Build.AST</text>
</g>
<!-- u23 -->
<g id="node45" class="node">
<title>u23</title>
<ellipse fill="#77ff77" stroke="black" cx="2584.65" cy="-2757" rx="228.56" ry="18"/>
<text text-anchor="middle" x="2584.65" y="-2753.3" font-family="Times,serif" font-size="14.00">Language.Drasil.Code.Imperative.Build.Import</text>
</g>
<!-- u23&#45;&gt;u24 -->
<g id="edge37" class="edge">
<title>u23&#45;&gt;u24</title>
<path fill="none" stroke="black" d="M2584.65,-2738.89C2584.65,-2693.79 2584.65,-2571.34 2584.65,-2516.36"/>
<polygon fill="black" stroke="black" points="2588.15,-2516.31 2584.65,-2506.31 2581.15,-2516.31 2588.15,-2516.31"/>
</g>
<!-- u30 -->
<g id="node46" class="node">
<title>u30</title>
<ellipse fill="#ffff77" stroke="black" cx="3520.65" cy="-2219" rx="245.06" ry="18"/>
<text text-anchor="middle" x="3520.65" y="-2215.3" font-family="Times,serif" font-size="14.00">Language.Drasil.Code.Imperative.Doxygen.Import</text>
</g>
<!-- u30&#45;&gt;u0 -->
<g id="edge51" class="edge">
<title>u30&#45;&gt;u0</title>
<path fill="none" stroke="black" d="M3536.04,-2200.77C3606.14,-2122.33 3895.31,-1798.75 3977.67,-1706.59"/>
<polygon fill="black" stroke="black" points="3980.49,-1708.68 3984.55,-1698.9 3975.27,-1704.02 3980.49,-1708.68"/>
</g>
<!-- u20&#45;&gt;u0 -->
<g id="edge33" class="edge">
<title>u20&#45;&gt;u0</title>
<path fill="none" stroke="black" d="M4041.46,-2200.77C4020.9,-2161.09 3971.64,-2059.66 3954.65,-1968 3937.03,-1872.98 3971.25,-1759.38 3989.39,-1708.69"/>
<polygon fill="black" stroke="black" points="3992.73,-1709.73 3992.88,-1699.14 3986.16,-1707.33 3992.73,-1709.73"/>
</g>
<!-- u17&#45;&gt;u19 -->
<g id="edge32" class="edge">
<title>u17&#45;&gt;u19</title>
<path fill="none" stroke="black" d="M2609.8,-3277.1C2723.9,-3230.23 3044.01,-3098.74 3168.36,-3047.66"/>
<polygon fill="black" stroke="black" points="3169.75,-3050.87 3177.67,-3043.83 3167.09,-3044.39 3169.75,-3050.87"/>
</g>
<!-- u14 -->
<g id="node53" class="node">
<title>u14</title>
<ellipse fill="#ff7777" stroke="black" cx="2584.65" cy="-3026" rx="393.73" ry="18"/>
<text text-anchor="middle" x="2584.65" y="-3022.3" font-family="Times,serif" font-size="14.00">Language.Drasil.Code.Imperative.GOOL.LanguageRenderer.LanguagePolymorphic</text>
</g>
<!-- u17&#45;&gt;u14 -->
<g id="edge31" class="edge">
<title>u17&#45;&gt;u14</title>
<path fill="none" stroke="black" d="M2569.67,-3276.89C2572.37,-3231.79 2579.71,-3109.34 2583.01,-3054.36"/>
<polygon fill="black" stroke="black" points="2586.5,-3054.5 2583.61,-3044.31 2579.52,-3054.08 2586.5,-3054.5"/>
</g>
<!-- u16&#45;&gt;u19 -->
<g id="edge30" class="edge">
<title>u16&#45;&gt;u19</title>
<path fill="none" stroke="black" d="M3288.84,-3276.89C3276.14,-3231.69 3241.63,-3108.83 3226.24,-3054.02"/>
<polygon fill="black" stroke="black" points="3229.58,-3052.99 3223.51,-3044.31 3222.84,-3054.89 3229.58,-3052.99"/>
</g>
<!-- u16&#45;&gt;u14 -->
<g id="edge29" class="edge">
<title>u16&#45;&gt;u14</title>
<path fill="none" stroke="black" d="M3248.76,-3277.1C3124.2,-3230.19 2774.57,-3098.52 2639.17,-3047.53"/>
<polygon fill="black" stroke="black" points="2640.39,-3044.25 2629.79,-3044 2637.92,-3050.8 2640.39,-3044.25"/>
</g>
<!-- u15&#45;&gt;u19 -->
<g id="edge28" class="edge">
<title>u15&#45;&gt;u19</title>
<path fill="none" stroke="black" d="M3980.17,-3277.1C3836.63,-3229.96 3432.42,-3097.21 3278.86,-3046.78"/>
<polygon fill="black" stroke="black" points="3279.71,-3043.37 3269.11,-3043.57 3277.52,-3050.02 3279.71,-3043.37"/>
</g>
<!-- u15&#45;&gt;u14 -->
<g id="edge27" class="edge">
<title>u15&#45;&gt;u14</title>
<path fill="none" stroke="black" d="M3942.22,-3277.5C3686.41,-3230.3 2952.85,-3094.94 2684.51,-3045.43"/>
<polygon fill="black" stroke="black" points="2684.87,-3041.93 2674.4,-3043.56 2683.6,-3048.82 2684.87,-3041.93"/>
</g>
<!-- u14&#45;&gt;u32 -->
<g id="edge26" class="edge">
<title>u14&#45;&gt;u32</title>
<path fill="none" stroke="black" d="M2608.94,-3007.95C2658.63,-2971.59 2771.45,-2881.04 2822.65,-2775 2960.91,-2488.58 2946.4,-2085.28 2939.64,-1978.05"/>
<polygon fill="black" stroke="black" points="2943.13,-1977.81 2938.98,-1968.07 2936.15,-1978.28 2943.13,-1977.81"/>
</g>
<!-- u14&#45;&gt;u7 -->
<g id="edge22" class="edge">
<title>u14&#45;&gt;u7</title>
<path fill="none" stroke="black" d="M2642.8,-3008.2C2806.1,-2961.01 3268.27,-2827.46 3441.75,-2777.33"/>
<polygon fill="black" stroke="black" points="3442.88,-2780.65 3451.52,-2774.51 3440.94,-2773.92 3442.88,-2780.65"/>
</g>
<!-- u14&#45;&gt;u23 -->
<g id="edge24" class="edge">
<title>u14&#45;&gt;u23</title>
<path fill="none" stroke="black" d="M2584.65,-3007.89C2584.65,-2962.79 2584.65,-2840.34 2584.65,-2785.36"/>
<polygon fill="black" stroke="black" points="2588.15,-2785.31 2584.65,-2775.31 2581.15,-2785.31 2588.15,-2785.31"/>
</g>
<!-- u14&#45;&gt;u30 -->
<g id="edge25" class="edge">
<title>u14&#45;&gt;u30</title>
<path fill="none" stroke="black" d="M2609.19,-3007.94C2665.35,-2968.61 2806.98,-2867.85 2918.65,-2775 3152.65,-2580.42 3416.3,-2323.13 3496.34,-2244.1"/>
<polygon fill="black" stroke="black" points="3498.86,-2246.54 3503.51,-2237.02 3493.94,-2241.56 3498.86,-2246.54"/>
</g>
<!-- u14&#45;&gt;u18 -->
<g id="edge23" class="edge">
<title>u14&#45;&gt;u18</title>
<path fill="none" stroke="black" d="M2675.46,-3008.45C2935.33,-2961.09 3680.59,-2825.26 3950.52,-2776.07"/>
<polygon fill="black" stroke="black" points="3951.48,-2779.45 3960.69,-2774.21 3950.23,-2772.56 3951.48,-2779.45"/>
</g>
<!-- u13&#45;&gt;u19 -->
<g id="edge21" class="edge">
<title>u13&#45;&gt;u19</title>
<path fill="none" stroke="black" d="M1218.72,-3278.05C1597.67,-3230.48 2716.86,-3089.99 3093.41,-3042.72"/>
<polygon fill="black" stroke="black" points="3094.03,-3046.17 3103.52,-3041.45 3093.16,-3039.22 3094.03,-3046.17"/>
</g>
<!-- u13&#45;&gt;u14 -->
<g id="edge20" class="edge">
<title>u13&#45;&gt;u14</title>
<path fill="none" stroke="black" d="M1183.63,-3277.55C1447.43,-3230.37 2205.28,-3094.84 2481.96,-3045.36"/>
<polygon fill="black" stroke="black" points="2482.76,-3048.78 2491.99,-3043.57 2481.53,-3041.88 2482.76,-3048.78"/>
</g>
<!-- u12&#45;&gt;u19 -->
<g id="edge19" class="edge">
<title>u12&#45;&gt;u19</title>
<path fill="none" stroke="black" d="M1922.99,-3277.5C2168.32,-3230.07 2874.04,-3093.63 3127.03,-3044.71"/>
<polygon fill="black" stroke="black" points="3127.77,-3048.13 3136.92,-3042.8 3126.44,-3041.26 3127.77,-3048.13"/>
</g>
<!-- u12&#45;&gt;u14 -->
<g id="edge18" class="edge">
<title>u12&#45;&gt;u14</title>
<path fill="none" stroke="black" d="M1884.94,-3277.1C2016.3,-3230.14 2385.28,-3098.26 2527.63,-3047.38"/>
<polygon fill="black" stroke="black" points="2528.84,-3050.66 2537.08,-3044 2526.48,-3044.07 2528.84,-3050.66"/>
</g>
<!-- u25 -->
<g id="node56" class="node">
<title>u25</title>
<ellipse fill="#77ffff" stroke="black" cx="4049.65" cy="-3026" rx="267.55" ry="18"/>
<text text-anchor="middle" x="4049.65" y="-3022.3" font-family="Times,serif" font-size="14.00">Language.Drasil.Code.Imperative.Parsers.ConfigParser</text>
</g>
<!-- u25&#45;&gt;u18 -->
<g id="edge38" class="edge">
<title>u25&#45;&gt;u18</title>
<path fill="none" stroke="black" d="M4049.65,-3007.89C4049.65,-2962.79 4049.65,-2840.34 4049.65,-2785.36"/>
<polygon fill="black" stroke="black" points="4053.15,-2785.31 4049.65,-2775.31 4046.15,-2785.31 4053.15,-2785.31"/>
</g>
<!-- u49&#45;&gt;u39 -->
<g id="edge82" class="edge">
<title>u49&#45;&gt;u39</title>
<path fill="none" stroke="black" d="M4066.75,-1394.1C4129.85,-1347.94 4305.14,-1219.72 4377.15,-1167.04"/>
<polygon fill="black" stroke="black" points="4379.4,-1169.73 4385.4,-1161 4375.26,-1164.08 4379.4,-1169.73"/>
</g>
<!-- u49&#45;&gt;u38 -->
<g id="edge81" class="edge">
<title>u49&#45;&gt;u38</title>
<path fill="none" stroke="black" d="M4043.65,-1393.89C4043.65,-1348.79 4043.65,-1226.34 4043.65,-1171.36"/>
<polygon fill="black" stroke="black" points="4047.15,-1171.31 4043.65,-1161.31 4040.15,-1171.31 4047.15,-1171.31"/>
</g>
<!-- u49&#45;&gt;u4 -->
<g id="edge80" class="edge">
<title>u49&#45;&gt;u4</title>
<path fill="none" stroke="black" d="M4091.62,-1394.6C4228.04,-1347.96 4617.89,-1214.68 4766.31,-1163.94"/>
<polygon fill="black" stroke="black" points="4767.82,-1167.13 4776.15,-1160.58 4765.56,-1160.5 4767.82,-1167.13"/>
</g>
<!-- u49&#45;&gt;u48 -->
<g id="edge83" class="edge">
<title>u49&#45;&gt;u48</title>
<path fill="none" stroke="black" d="M4023.72,-1393.89C3969.96,-1347.74 3821.86,-1220.6 3760.18,-1167.64"/>
<polygon fill="black" stroke="black" points="3762.27,-1164.82 3752.41,-1160.97 3757.71,-1170.14 3762.27,-1164.82"/>
</g>
<!-- u48&#45;&gt;u45 -->
<g id="edge79" class="edge">
<title>u48&#45;&gt;u45</title>
<path fill="none" stroke="black" d="M3732.65,-1124.81C3732.65,-1022.19 3732.65,-490.53 3732.65,-364.03"/>
<polygon fill="black" stroke="black" points="3736.15,-364.03 3732.65,-354.03 3729.15,-364.03 3736.15,-364.03"/>
</g>
<!-- u53 -->
<g id="node59" class="node">
<title>u53</title>
<ellipse fill="#33ff33" stroke="black" cx="416.65" cy="-4102" rx="108.58" ry="18"/>
<text text-anchor="middle" x="416.65" y="-4098.3" font-family="Times,serif" font-size="14.00">drasil&#45;code.test.Main</text>
</g>
<!-- u53&#45;&gt;u57 -->
<g id="edge90" class="edge">
<title>u53&#45;&gt;u57</title>
<path fill="none" stroke="black" d="M431,-4083.89C469.49,-4038.01 575.15,-3912.07 620.04,-3858.56"/>
<polygon fill="black" stroke="black" points="622.95,-3860.53 626.7,-3850.62 617.59,-3856.03 622.95,-3860.53"/>
</g>
<!-- u53&#45;&gt;u56 -->
<g id="edge89" class="edge">
<title>u53&#45;&gt;u56</title>
<path fill="none" stroke="black" d="M393.88,-4084.3C330.61,-4037.89 152.73,-3907.41 82.09,-3855.6"/>
<polygon fill="black" stroke="black" points="84.16,-3852.77 74.02,-3849.68 80.02,-3858.42 84.16,-3852.77"/>
</g>
<!-- u53&#45;&gt;u55 -->
<g id="edge88" class="edge">
<title>u53&#45;&gt;u55</title>
<path fill="none" stroke="black" d="M401.65,-4083.89C361.35,-4037.91 250.61,-3911.55 203.89,-3858.24"/>
<polygon fill="black" stroke="black" points="206.44,-3855.84 197.21,-3850.62 201.17,-3860.45 206.44,-3855.84"/>
</g>
<!-- u53&#45;&gt;u54 -->
<g id="edge87" class="edge">
<title>u53&#45;&gt;u54</title>
<path fill="none" stroke="black" d="M421.71,-4083.89C435.11,-4038.59 471.61,-3915.24 487.77,-3860.63"/>
<polygon fill="black" stroke="black" points="491.14,-3861.55 490.63,-3850.97 484.43,-3859.56 491.14,-3861.55"/>
</g>
<!-- u53&#45;&gt;u52 -->
<g id="edge86" class="edge">
<title>u53&#45;&gt;u52</title>
<path fill="none" stroke="black" d="M411.52,-4083.89C397.94,-4038.59 360.99,-3915.24 344.62,-3860.63"/>
<polygon fill="black" stroke="black" points="347.95,-3859.54 341.73,-3850.97 341.25,-3861.55 347.95,-3859.54"/>
</g>
<!-- u53&#45;&gt;u40 -->
<g id="edge85" class="edge">
<title>u53&#45;&gt;u40</title>
<path fill="none" stroke="black" d="M492.84,-4089.1C772.27,-4045.44 1739.94,-3894.26 2037.74,-3847.73"/>
<polygon fill="black" stroke="black" points="2038.71,-3851.13 2048.05,-3846.12 2037.63,-3844.21 2038.71,-3851.13"/>
</g>
</g>
</svg>
