<?xml version="1.0" encoding="UTF-8" standalone="no"?>
<!DOCTYPE svg PUBLIC "-//W3C//DTD SVG 1.1//EN"
 "http://www.w3.org/Graphics/SVG/1.1/DTD/svg11.dtd">
<!-- Generated by graphviz version 2.43.0 (0)
 -->
<!-- Title: G Pages: 1 -->
<svg width="432pt" height="280pt"
 viewBox="0.00 0.00 432.00 279.97" xmlns="http://www.w3.org/2000/svg" xmlns:xlink="http://www.w3.org/1999/xlink">
<g id="graph0" class="graph" transform="scale(0.14 0.14) rotate(0) translate(4 1935.33)">
<title>G</title>
<polygon fill="white" stroke="transparent" points="-4,4 -4,-1935.33 2988.38,-1935.33 2988.38,4 -4,4"/>
<!-- u28 -->
<g id="node1" class="node">
<title>u28</title>
<ellipse fill="#bbffbb" stroke="black" cx="572" cy="-1893" rx="69.59" ry="18"/>
<text text-anchor="middle" x="572" y="-1889.3" font-family="Times,serif" font-size="14.00">Drasil.GProc</text>
</g>
<!-- u9 -->
<g id="node9" class="node">
<title>u9</title>
<ellipse fill="#ffffbb" stroke="black" cx="292" cy="-811" rx="134.58" ry="18"/>
<text text-anchor="middle" x="292" y="-807.3" font-family="Times,serif" font-size="14.00">Drasil.GOOL.CodeInfoProc</text>
</g>
<!-- u28&#45;&gt;u9 -->
<g id="edge49" class="edge">
<title>u28&#45;&gt;u9</title>
<path fill="none" stroke="black" d="M506.11,-1887.14C355.7,-1872.12 0,-1812.52 0,-1585 0,-1585 0,-1585 0,-1119 0,-977.17 165.65,-874.83 247.42,-832.95"/>
<polygon fill="black" stroke="black" points="249.13,-836.01 256.49,-828.38 245.98,-829.76 249.13,-836.01"/>
</g>
<!-- u25 -->
<g id="node20" class="node">
<title>u25</title>
<ellipse fill="#bbbbff" stroke="black" cx="2187" cy="-1738" rx="226.66" ry="18"/>
<text text-anchor="middle" x="2187" y="-1734.3" font-family="Times,serif" font-size="14.00">Drasil.GOOL.LanguageRenderer.JuliaRenderer</text>
</g>
<!-- u28&#45;&gt;u25 -->
<g id="edge50" class="edge">
<title>u28&#45;&gt;u25</title>
<path fill="none" stroke="black" d="M636.31,-1885.91C872.54,-1863.53 1696.37,-1785.48 2037.41,-1753.17"/>
<polygon fill="black" stroke="black" points="2037.98,-1756.63 2047.61,-1752.21 2037.32,-1749.66 2037.98,-1756.63"/>
</g>
<!-- u0 -->
<g id="node2" class="node">
<title>u0</title>
<ellipse fill="#bbffbb" stroke="black" cx="1076" cy="-1738" rx="69.59" ry="18"/>
<text text-anchor="middle" x="1076" y="-1734.3" font-family="Times,serif" font-size="14.00">Drasil.GOOL</text>
</g>
<!-- u3 -->
<g id="node15" class="node">
<title>u3</title>
<ellipse fill="#ffffbb" stroke="black" cx="264" cy="-1275" rx="128.08" ry="18"/>
<text text-anchor="middle" x="264" y="-1271.3" font-family="Times,serif" font-size="14.00">Drasil.GOOL.CodeInfoOO</text>
</g>
<!-- u0&#45;&gt;u3 -->
<g id="edge1" class="edge">
<title>u0&#45;&gt;u3</title>
<path fill="none" stroke="black" d="M1008.94,-1733.16C792.06,-1720.06 120.03,-1673.93 57,-1602 -32.77,-1499.55 150.33,-1354.39 229.72,-1298.83"/>
<polygon fill="black" stroke="black" points="232.19,-1301.38 238.42,-1292.82 228.2,-1295.63 232.19,-1301.38"/>
</g>
<!-- u26 -->
<g id="node19" class="node">
<title>u26</title>
<ellipse fill="#bbbbff" stroke="black" cx="305" cy="-1584" rx="239.36" ry="18"/>
<text text-anchor="middle" x="305" y="-1580.3" font-family="Times,serif" font-size="14.00">Drasil.GOOL.LanguageRenderer.PythonRenderer</text>
</g>
<!-- u0&#45;&gt;u26 -->
<g id="edge6" class="edge">
<title>u0&#45;&gt;u26</title>
<path fill="none" stroke="black" d="M1022.4,-1726.43C892.2,-1700.76 558.09,-1634.9 395.97,-1602.93"/>
<polygon fill="black" stroke="black" points="396.5,-1599.47 386.01,-1600.97 395.15,-1606.34 396.5,-1599.47"/>
</g>
<!-- u23 -->
<g id="node22" class="node">
<title>u23</title>
<ellipse fill="#bbbbff" stroke="black" cx="1806" cy="-1584" rx="225.56" ry="18"/>
<text text-anchor="middle" x="1806" y="-1580.3" font-family="Times,serif" font-size="14.00">Drasil.GOOL.LanguageRenderer.JavaRenderer</text>
</g>
<!-- u0&#45;&gt;u23 -->
<g id="edge5" class="edge">
<title>u0&#45;&gt;u23</title>
<path fill="none" stroke="black" d="M1128.5,-1726.07C1252.86,-1700.17 1566.41,-1634.89 1719.38,-1603.04"/>
<polygon fill="black" stroke="black" points="1720.14,-1606.45 1729.22,-1600.99 1718.71,-1599.6 1720.14,-1606.45"/>
</g>
<!-- u21 -->
<g id="node24" class="node">
<title>u21</title>
<ellipse fill="#bbbbff" stroke="black" cx="831" cy="-1584" rx="230.96" ry="18"/>
<text text-anchor="middle" x="831" y="-1580.3" font-family="Times,serif" font-size="14.00">Drasil.GOOL.LanguageRenderer.SwiftRenderer</text>
</g>
<!-- u0&#45;&gt;u21 -->
<g id="edge4" class="edge">
<title>u0&#45;&gt;u21</title>
<path fill="none" stroke="black" d="M1050.24,-1721.02C1006.32,-1693.77 916.83,-1638.25 866.83,-1607.23"/>
<polygon fill="black" stroke="black" points="868.61,-1604.22 858.27,-1601.92 864.92,-1610.16 868.61,-1604.22"/>
</g>
<!-- u18 -->
<g id="node27" class="node">
<title>u18</title>
<ellipse fill="#bbbbff" stroke="black" cx="1321" cy="-1584" rx="241.26" ry="18"/>
<text text-anchor="middle" x="1321" y="-1580.3" font-family="Times,serif" font-size="14.00">Drasil.GOOL.LanguageRenderer.CSharpRenderer</text>
</g>
<!-- u0&#45;&gt;u18 -->
<g id="edge3" class="edge">
<title>u0&#45;&gt;u18</title>
<path fill="none" stroke="black" d="M1101.76,-1721.02C1145.68,-1693.77 1235.17,-1638.25 1285.17,-1607.23"/>
<polygon fill="black" stroke="black" points="1287.08,-1610.16 1293.73,-1601.92 1283.39,-1604.22 1287.08,-1610.16"/>
</g>
<!-- u16 -->
<g id="node29" class="node">
<title>u16</title>
<ellipse fill="#bbbbff" stroke="black" cx="2274" cy="-1584" rx="224.76" ry="18"/>
<text text-anchor="middle" x="2274" y="-1580.3" font-family="Times,serif" font-size="14.00">Drasil.GOOL.LanguageRenderer.CppRenderer</text>
</g>
<!-- u0&#45;&gt;u16 -->
<g id="edge2" class="edge">
<title>u0&#45;&gt;u16</title>
<path fill="none" stroke="black" d="M1137.06,-1729.25C1324.68,-1705.45 1895.45,-1633.03 2149.62,-1600.78"/>
<polygon fill="black" stroke="black" points="2150.16,-1604.24 2159.64,-1599.51 2149.28,-1597.3 2150.16,-1604.24"/>
</g>
<!-- u15 -->
<g id="node3" class="node">
<title>u15</title>
<ellipse fill="#ffffbb" stroke="black" cx="843" cy="-811" rx="165.17" ry="18"/>
<text text-anchor="middle" x="843" y="-807.3" font-family="Times,serif" font-size="14.00">Drasil.GOOL.RendererClassesOO</text>
</g>
<!-- u13 -->
<g id="node5" class="node">
<title>u13</title>
<ellipse fill="#ffffbb" stroke="black" cx="1102" cy="-657" rx="191.97" ry="18"/>
<text text-anchor="middle" x="1102" y="-653.3" font-family="Times,serif" font-size="14.00">Drasil.GOOL.RendererClassesCommon</text>
</g>
<!-- u15&#45;&gt;u13 -->
<g id="edge23" class="edge">
<title>u15&#45;&gt;u13</title>
<path fill="none" stroke="black" d="M871.71,-793.15C918.77,-765.53 1012.31,-710.64 1064.53,-679.99"/>
<polygon fill="black" stroke="black" points="1066.31,-683 1073.16,-674.92 1062.77,-676.97 1066.31,-683"/>
</g>
<!-- u5 -->
<g id="node13" class="node">
<title>u5</title>
<ellipse fill="#ffffbb" stroke="black" cx="462" cy="-657" rx="141.88" ry="18"/>
<text text-anchor="middle" x="462" y="-653.3" font-family="Times,serif" font-size="14.00">Drasil.GOOL.InterfaceGOOL</text>
</g>
<!-- u15&#45;&gt;u5 -->
<g id="edge22" class="edge">
<title>u15&#45;&gt;u5</title>
<path fill="none" stroke="black" d="M801.5,-793.44C731.03,-765.33 588.25,-708.37 512.25,-678.05"/>
<polygon fill="black" stroke="black" points="513.46,-674.76 502.87,-674.31 510.86,-681.26 513.46,-674.76"/>
</g>
<!-- u14 -->
<g id="node4" class="node">
<title>u14</title>
<ellipse fill="#ffffbb" stroke="black" cx="757" cy="-348" rx="96.68" ry="18"/>
<text text-anchor="middle" x="757" y="-344.3" font-family="Times,serif" font-size="14.00">Drasil.GOOL.State</text>
</g>
<!-- u12 -->
<g id="node6" class="node">
<title>u12</title>
<ellipse fill="#ffffbb" stroke="black" cx="812" cy="-193" rx="90.98" ry="18"/>
<text text-anchor="middle" x="812" y="-189.3" font-family="Times,serif" font-size="14.00">Drasil.GOOL.AST</text>
</g>
<!-- u14&#45;&gt;u12 -->
<g id="edge21" class="edge">
<title>u14&#45;&gt;u12</title>
<path fill="none" stroke="black" d="M763.2,-329.75C772.73,-303.23 791.06,-252.25 802.34,-220.87"/>
<polygon fill="black" stroke="black" points="805.65,-222.02 805.74,-211.43 799.06,-219.65 805.65,-222.02"/>
</g>
<!-- u2 -->
<g id="node16" class="node">
<title>u2</title>
<ellipse fill="#ffffbb" stroke="black" cx="569" cy="-193" rx="133.78" ry="18"/>
<text text-anchor="middle" x="569" y="-189.3" font-family="Times,serif" font-size="14.00">Drasil.GOOL.CodeAnalysis</text>
</g>
<!-- u14&#45;&gt;u2 -->
<g id="edge20" class="edge">
<title>u14&#45;&gt;u2</title>
<path fill="none" stroke="black" d="M736.52,-330.34C702.99,-303.05 636.27,-248.75 597.93,-217.54"/>
<polygon fill="black" stroke="black" points="599.7,-214.47 589.74,-210.88 595.28,-219.9 599.7,-214.47"/>
</g>
<!-- u7 -->
<g id="node11" class="node">
<title>u7</title>
<ellipse fill="#ffffbb" stroke="black" cx="757" cy="-502" rx="155.17" ry="18"/>
<text text-anchor="middle" x="757" y="-498.3" font-family="Times,serif" font-size="14.00">Drasil.GOOL.InterfaceCommon</text>
</g>
<!-- u13&#45;&gt;u7 -->
<g id="edge19" class="edge">
<title>u13&#45;&gt;u7</title>
<path fill="none" stroke="black" d="M1064.42,-639.34C1000.96,-611.19 872.71,-554.31 803.61,-523.67"/>
<polygon fill="black" stroke="black" points="804.83,-520.38 794.27,-519.53 801.99,-526.78 804.83,-520.38"/>
</g>
<!-- u1 -->
<g id="node17" class="node">
<title>u1</title>
<ellipse fill="#ffffbb" stroke="black" cx="609" cy="-39" rx="118.08" ry="18"/>
<text text-anchor="middle" x="609" y="-35.3" font-family="Times,serif" font-size="14.00">Drasil.GOOL.CodeType</text>
</g>
<!-- u12&#45;&gt;u1 -->
<g id="edge18" class="edge">
<title>u12&#45;&gt;u1</title>
<path fill="none" stroke="black" d="M789.89,-175.44C753.45,-148.16 680.73,-93.71 639.45,-62.8"/>
<polygon fill="black" stroke="black" points="641.5,-59.96 631.39,-56.77 637.3,-65.56 641.5,-59.96"/>
</g>
<!-- u11 -->
<g id="node7" class="node">
<title>u11</title>
<ellipse fill="#ffffbb" stroke="black" cx="1198" cy="-811" rx="171.67" ry="18"/>
<text text-anchor="middle" x="1198" y="-807.3" font-family="Times,serif" font-size="14.00">Drasil.GOOL.RendererClassesProc</text>
</g>
<!-- u11&#45;&gt;u13 -->
<g id="edge17" class="edge">
<title>u11&#45;&gt;u13</title>
<path fill="none" stroke="black" d="M1187.17,-792.86C1170.39,-766.29 1137.99,-714.99 1118.35,-683.89"/>
<polygon fill="black" stroke="black" points="1121.23,-681.9 1112.93,-675.31 1115.31,-685.64 1121.23,-681.9"/>
</g>
<!-- u10 -->
<g id="node8" class="node">
<title>u10</title>
<ellipse fill="#ffffbb" stroke="black" cx="757" cy="-657" rx="135.38" ry="18"/>
<text text-anchor="middle" x="757" y="-653.3" font-family="Times,serif" font-size="14.00">Drasil.GOOL.InterfaceProc</text>
</g>
<!-- u11&#45;&gt;u10 -->
<g id="edge16" class="edge">
<title>u11&#45;&gt;u10</title>
<path fill="none" stroke="black" d="M1150.39,-793.59C1068.27,-765.29 900.44,-707.44 812.91,-677.27"/>
<polygon fill="black" stroke="black" points="814.01,-673.95 803.42,-674 811.73,-680.57 814.01,-673.95"/>
</g>
<!-- u10&#45;&gt;u7 -->
<g id="edge15" class="edge">
<title>u10&#45;&gt;u7</title>
<path fill="none" stroke="black" d="M757,-638.75C757,-612.46 757,-562.13 757,-530.69"/>
<polygon fill="black" stroke="black" points="760.5,-530.43 757,-520.43 753.5,-530.43 760.5,-530.43"/>
</g>
<!-- u9&#45;&gt;u10 -->
<g id="edge14" class="edge">
<title>u9&#45;&gt;u10</title>
<path fill="none" stroke="black" d="M340.45,-794.16C426.61,-766 606.1,-707.32 698.8,-677.02"/>
<polygon fill="black" stroke="black" points="699.9,-680.35 708.31,-673.91 697.72,-673.7 699.9,-680.35"/>
</g>
<!-- u8 -->
<g id="node10" class="node">
<title>u8</title>
<ellipse fill="#ffffbb" stroke="black" cx="407" cy="-502" rx="108.58" ry="18"/>
<text text-anchor="middle" x="407" y="-498.3" font-family="Times,serif" font-size="14.00">Drasil.GOOL.Helpers</text>
</g>
<!-- u9&#45;&gt;u8 -->
<g id="edge13" class="edge">
<title>u9&#45;&gt;u8</title>
<path fill="none" stroke="black" d="M291.14,-792.84C290.15,-761.28 290.76,-692.34 311,-639 327.38,-595.84 360.68,-553.6 383.42,-527.93"/>
<polygon fill="black" stroke="black" points="386.3,-529.97 390.4,-520.2 381.1,-525.28 386.3,-529.97"/>
</g>
<!-- u8&#45;&gt;u1 -->
<g id="edge12" class="edge">
<title>u8&#45;&gt;u1</title>
<path fill="none" stroke="black" d="M403.2,-483.71C392.94,-432.71 369.13,-279.92 426,-175 455.6,-120.4 517.92,-81.93 561.57,-60.38"/>
<polygon fill="black" stroke="black" points="563.1,-63.53 570.59,-56.04 560.06,-57.22 563.1,-63.53"/>
</g>
<!-- u7&#45;&gt;u14 -->
<g id="edge11" class="edge">
<title>u7&#45;&gt;u14</title>
<path fill="none" stroke="black" d="M757,-483.86C757,-457.75 757,-407.74 757,-376.51"/>
<polygon fill="black" stroke="black" points="760.5,-376.31 757,-366.31 753.5,-376.31 760.5,-376.31"/>
</g>
<!-- u6 -->
<g id="node12" class="node">
<title>u6</title>
<ellipse fill="#ffffbb" stroke="black" cx="1177" cy="-966" rx="161.37" ry="18"/>
<text text-anchor="middle" x="1177" y="-962.3" font-family="Times,serif" font-size="14.00">Drasil.GOOL.LanguageRenderer</text>
</g>
<!-- u6&#45;&gt;u15 -->
<g id="edge10" class="edge">
<title>u6&#45;&gt;u15</title>
<path fill="none" stroke="black" d="M1140.62,-948.34C1079.38,-920.28 955.85,-863.7 888.8,-832.98"/>
<polygon fill="black" stroke="black" points="889.88,-829.63 879.33,-828.64 886.97,-835.99 889.88,-829.63"/>
</g>
<!-- u5&#45;&gt;u8 -->
<g id="edge9" class="edge">
<title>u5&#45;&gt;u8</title>
<path fill="none" stroke="black" d="M455.8,-638.75C446.27,-612.23 427.94,-561.25 416.66,-529.87"/>
<polygon fill="black" stroke="black" points="419.94,-528.65 413.26,-520.43 413.35,-531.02 419.94,-528.65"/>
</g>
<!-- u5&#45;&gt;u7 -->
<g id="edge8" class="edge">
<title>u5&#45;&gt;u7</title>
<path fill="none" stroke="black" d="M494.13,-639.34C548,-611.4 656.43,-555.16 715.81,-524.36"/>
<polygon fill="black" stroke="black" points="717.64,-527.36 724.91,-519.64 714.42,-521.14 717.64,-527.36"/>
</g>
<!-- u4 -->
<g id="node14" class="node">
<title>u4</title>
<ellipse fill="#ffffbb" stroke="black" cx="2274" cy="-1429" rx="107.48" ry="18"/>
<text text-anchor="middle" x="2274" y="-1425.3" font-family="Times,serif" font-size="14.00">Drasil.GOOL.Classes</text>
</g>
<!-- u3&#45;&gt;u5 -->
<g id="edge7" class="edge">
<title>u3&#45;&gt;u5</title>
<path fill="none" stroke="black" d="M272.3,-1256.66C300.03,-1198 390.24,-1001.1 436,-829 449.23,-779.25 456.4,-719.44 459.69,-685.36"/>
<polygon fill="black" stroke="black" points="463.19,-685.52 460.63,-675.24 456.22,-684.88 463.19,-685.52"/>
</g>
<!-- u27 -->
<g id="node18" class="node">
<title>u27</title>
<ellipse fill="#bbbbff" stroke="black" cx="1327" cy="-1429" rx="251.56" ry="18"/>
<text text-anchor="middle" x="1327" y="-1425.3" font-family="Times,serif" font-size="14.00">Drasil.GOOL.LanguageRenderer.CommonPseudoOO</text>
</g>
<!-- u22 -->
<g id="node23" class="node">
<title>u22</title>
<ellipse fill="#bbbbff" stroke="black" cx="1327" cy="-1275" rx="265.65" ry="18"/>
<text text-anchor="middle" x="1327" y="-1271.3" font-family="Times,serif" font-size="14.00">Drasil.GOOL.LanguageRenderer.LanguagePolymorphic</text>
</g>
<!-- u27&#45;&gt;u22 -->
<g id="edge48" class="edge">
<title>u27&#45;&gt;u22</title>
<path fill="none" stroke="black" d="M1327,-1410.86C1327,-1384.75 1327,-1334.74 1327,-1303.51"/>
<polygon fill="black" stroke="black" points="1330.5,-1303.31 1327,-1293.31 1323.5,-1303.31 1330.5,-1303.31"/>
</g>
<!-- u26&#45;&gt;u27 -->
<g id="edge47" class="edge">
<title>u26&#45;&gt;u27</title>
<path fill="none" stroke="black" d="M407.2,-1567.7C599.47,-1538.92 1013.64,-1476.91 1213.94,-1446.93"/>
<polygon fill="black" stroke="black" points="1214.53,-1450.38 1223.9,-1445.43 1213.49,-1443.45 1214.53,-1450.38"/>
</g>
<!-- u17 -->
<g id="node28" class="node">
<title>u17</title>
<ellipse fill="#bbbbff" stroke="black" cx="843" cy="-1429" rx="196.87" ry="18"/>
<text text-anchor="middle" x="843" y="-1425.3" font-family="Times,serif" font-size="14.00">Drasil.GOOL.LanguageRenderer.Macros</text>
</g>
<!-- u26&#45;&gt;u17 -->
<g id="edge46" class="edge">
<title>u26&#45;&gt;u17</title>
<path fill="none" stroke="black" d="M363.09,-1566.48C463.61,-1537.89 669.42,-1479.36 775.89,-1449.09"/>
<polygon fill="black" stroke="black" points="776.9,-1452.44 785.56,-1446.33 774.99,-1445.7 776.9,-1452.44"/>
</g>
<!-- u24 -->
<g id="node21" class="node">
<title>u24</title>
<ellipse fill="#bbbbff" stroke="black" cx="1793" cy="-1429" rx="189.27" ry="18"/>
<text text-anchor="middle" x="1793" y="-1425.3" font-family="Times,serif" font-size="14.00">Drasil.GOOL.LanguageRenderer.CLike</text>
</g>
<!-- u25&#45;&gt;u24 -->
<g id="edge45" class="edge">
<title>u25&#45;&gt;u24</title>
<path fill="none" stroke="black" d="M2362.24,-1726.54C2618.94,-1707.88 3058.11,-1661.48 2973,-1566 2907.59,-1492.62 2284.97,-1453.1 1971.49,-1437.71"/>
<polygon fill="black" stroke="black" points="1971.55,-1434.21 1961.39,-1437.22 1971.21,-1441.2 1971.55,-1434.21"/>
</g>
<!-- u19 -->
<g id="node26" class="node">
<title>u19</title>
<ellipse fill="#bbbbff" stroke="black" cx="2740" cy="-1584" rx="223.66" ry="18"/>
<text text-anchor="middle" x="2740" y="-1580.3" font-family="Times,serif" font-size="14.00">Drasil.GOOL.LanguageRenderer.AbstractProc</text>
</g>
<!-- u25&#45;&gt;u19 -->
<g id="edge44" class="edge">
<title>u25&#45;&gt;u19</title>
<path fill="none" stroke="black" d="M2246.71,-1720.59C2349.76,-1692.26 2560.47,-1634.35 2670.15,-1604.2"/>
<polygon fill="black" stroke="black" points="2671.41,-1607.48 2680.12,-1601.46 2669.55,-1600.73 2671.41,-1607.48"/>
</g>
<!-- u25&#45;&gt;u17 -->
<g id="edge43" class="edge">
<title>u25&#45;&gt;u17</title>
<path fill="none" stroke="black" d="M1964.34,-1734.5C1547.28,-1727.49 682.02,-1701.05 591,-1602 527.24,-1532.62 673.77,-1476.61 769.13,-1448.89"/>
<polygon fill="black" stroke="black" points="770.11,-1452.25 778.76,-1446.13 768.18,-1445.52 770.11,-1452.25"/>
</g>
<!-- u20 -->
<g id="node25" class="node">
<title>u20</title>
<ellipse fill="#bbbbff" stroke="black" cx="1327" cy="-1120" rx="223.66" ry="18"/>
<text text-anchor="middle" x="1327" y="-1116.3" font-family="Times,serif" font-size="14.00">Drasil.GOOL.LanguageRenderer.Constructors</text>
</g>
<!-- u24&#45;&gt;u20 -->
<g id="edge42" class="edge">
<title>u24&#45;&gt;u20</title>
<path fill="none" stroke="black" d="M1777.16,-1411.03C1745.95,-1378.26 1673.33,-1305.25 1602,-1257 1529.23,-1207.77 1436.06,-1165.52 1378.99,-1141.69"/>
<polygon fill="black" stroke="black" points="1380.04,-1138.34 1369.46,-1137.74 1377.36,-1144.8 1380.04,-1138.34"/>
</g>
<!-- u23&#45;&gt;u27 -->
<g id="edge41" class="edge">
<title>u23&#45;&gt;u27</title>
<path fill="none" stroke="black" d="M1753.83,-1566.34C1664.84,-1537.91 1484.11,-1480.18 1388.89,-1449.77"/>
<polygon fill="black" stroke="black" points="1389.7,-1446.35 1379.11,-1446.64 1387.57,-1453.02 1389.7,-1446.35"/>
</g>
<!-- u23&#45;&gt;u24 -->
<g id="edge40" class="edge">
<title>u23&#45;&gt;u24</title>
<path fill="none" stroke="black" d="M1804.53,-1565.75C1802.3,-1539.46 1798.02,-1489.13 1795.35,-1457.69"/>
<polygon fill="black" stroke="black" points="1798.81,-1457.09 1794.48,-1447.43 1791.84,-1457.69 1798.81,-1457.09"/>
</g>
<!-- u23&#45;&gt;u17 -->
<g id="edge39" class="edge">
<title>u23&#45;&gt;u17</title>
<path fill="none" stroke="black" d="M1709.7,-1567.7C1527.63,-1538.77 1134.39,-1476.3 946.74,-1446.48"/>
<polygon fill="black" stroke="black" points="947.01,-1442.98 936.59,-1444.87 945.92,-1449.9 947.01,-1442.98"/>
</g>
<!-- u22&#45;&gt;u20 -->
<g id="edge38" class="edge">
<title>u22&#45;&gt;u20</title>
<path fill="none" stroke="black" d="M1327,-1256.75C1327,-1230.46 1327,-1180.13 1327,-1148.69"/>
<polygon fill="black" stroke="black" points="1330.5,-1148.43 1327,-1138.43 1323.5,-1148.43 1330.5,-1148.43"/>
</g>
<!-- u21&#45;&gt;u27 -->
<g id="edge37" class="edge">
<title>u21&#45;&gt;u27</title>
<path fill="none" stroke="black" d="M884.55,-1566.48C976.58,-1538.09 1164.34,-1480.17 1263.07,-1449.72"/>
<polygon fill="black" stroke="black" points="1264.4,-1452.97 1272.92,-1446.68 1262.33,-1446.29 1264.4,-1452.97"/>
</g>
<!-- u21&#45;&gt;u24 -->
<g id="edge36" class="edge">
<title>u21&#45;&gt;u24</title>
<path fill="none" stroke="black" d="M927.64,-1567.63C1109.99,-1538.63 1503.23,-1476.09 1690.21,-1446.35"/>
<polygon fill="black" stroke="black" points="1690.99,-1449.77 1700.32,-1444.74 1689.89,-1442.85 1690.99,-1449.77"/>
</g>
<!-- u21&#45;&gt;u17 -->
<g id="edge35" class="edge">
<title>u21&#45;&gt;u17</title>
<path fill="none" stroke="black" d="M832.35,-1565.75C834.41,-1539.46 838.36,-1489.13 840.83,-1457.69"/>
<polygon fill="black" stroke="black" points="844.34,-1457.67 841.63,-1447.43 837.36,-1457.12 844.34,-1457.67"/>
</g>
<!-- u20&#45;&gt;u6 -->
<g id="edge34" class="edge">
<title>u20&#45;&gt;u6</title>
<path fill="none" stroke="black" d="M1310.08,-1101.86C1283.53,-1074.95 1231.93,-1022.66 1201.37,-991.7"/>
<polygon fill="black" stroke="black" points="1203.6,-988.97 1194.08,-984.31 1198.62,-993.89 1203.6,-988.97"/>
</g>
<!-- u19&#45;&gt;u11 -->
<g id="edge32" class="edge">
<title>u19&#45;&gt;u11</title>
<path fill="none" stroke="black" d="M2722.55,-1565.77C2679.93,-1521.76 2574,-1399.91 2574,-1276 2574,-1276 2574,-1276 2574,-1119 2574,-876.37 1748.75,-825.42 1376.45,-814.78"/>
<polygon fill="black" stroke="black" points="1376.47,-811.28 1366.38,-814.5 1376.28,-818.28 1376.47,-811.28"/>
</g>
<!-- u19&#45;&gt;u27 -->
<g id="edge33" class="edge">
<title>u19&#45;&gt;u27</title>
<path fill="none" stroke="black" d="M2612.43,-1569.19C2348.73,-1540.63 1745.25,-1475.29 1469.36,-1445.41"/>
<polygon fill="black" stroke="black" points="1469.6,-1441.92 1459.28,-1444.32 1468.85,-1448.88 1469.6,-1441.92"/>
</g>
<!-- u18&#45;&gt;u27 -->
<g id="edge31" class="edge">
<title>u18&#45;&gt;u27</title>
<path fill="none" stroke="black" d="M1321.68,-1565.75C1322.71,-1539.46 1324.68,-1489.13 1325.91,-1457.69"/>
<polygon fill="black" stroke="black" points="1329.42,-1457.55 1326.32,-1447.43 1322.43,-1457.28 1329.42,-1457.55"/>
</g>
<!-- u18&#45;&gt;u24 -->
<g id="edge30" class="edge">
<title>u18&#45;&gt;u24</title>
<path fill="none" stroke="black" d="M1372.41,-1566.34C1460.33,-1537.84 1639.12,-1479.88 1732.75,-1449.53"/>
<polygon fill="black" stroke="black" points="1733.93,-1452.83 1742.37,-1446.41 1731.78,-1446.17 1733.93,-1452.83"/>
</g>
<!-- u18&#45;&gt;u17 -->
<g id="edge29" class="edge">
<title>u18&#45;&gt;u17</title>
<path fill="none" stroke="black" d="M1268.94,-1566.34C1179.9,-1537.84 998.83,-1479.88 904.01,-1449.53"/>
<polygon fill="black" stroke="black" points="904.87,-1446.13 894.28,-1446.41 902.73,-1452.79 904.87,-1446.13"/>
</g>
<!-- u17&#45;&gt;u15 -->
<g id="edge28" class="edge">
<title>u17&#45;&gt;u15</title>
<path fill="none" stroke="black" d="M843,-1410.88C843,-1325.4 843,-944.67 843,-839.18"/>
<polygon fill="black" stroke="black" points="846.5,-839.04 843,-829.04 839.5,-839.04 846.5,-839.04"/>
</g>
<!-- u16&#45;&gt;u4 -->
<g id="edge24" class="edge">
<title>u16&#45;&gt;u4</title>
<path fill="none" stroke="black" d="M2274,-1565.75C2274,-1539.46 2274,-1489.13 2274,-1457.69"/>
<polygon fill="black" stroke="black" points="2277.5,-1457.43 2274,-1447.43 2270.5,-1457.43 2277.5,-1457.43"/>
</g>
<!-- u16&#45;&gt;u27 -->
<g id="edge27" class="edge">
<title>u16&#45;&gt;u27</title>
<path fill="none" stroke="black" d="M2178.86,-1567.63C2001.2,-1538.93 1620.17,-1477.37 1433.92,-1447.27"/>
<polygon fill="black" stroke="black" points="1434.27,-1443.79 1423.84,-1445.65 1433.15,-1450.7 1434.27,-1443.79"/>
</g>
<!-- u16&#45;&gt;u24 -->
<g id="edge26" class="edge">
<title>u16&#45;&gt;u24</title>
<path fill="none" stroke="black" d="M2222.07,-1566.48C2132.56,-1538.01 1949.67,-1479.83 1854.16,-1449.45"/>
<polygon fill="black" stroke="black" points="1854.94,-1446.03 1844.35,-1446.33 1852.82,-1452.7 1854.94,-1446.03"/>
</g>
<!-- u16&#45;&gt;u17 -->
<g id="edge25" class="edge">
<title>u16&#45;&gt;u17</title>
<path fill="none" stroke="black" d="M2145.12,-1569.22C1874.52,-1540.29 1249.64,-1473.48 975.72,-1444.19"/>
<polygon fill="black" stroke="black" points="976.04,-1440.71 965.73,-1443.12 975.3,-1447.67 976.04,-1440.71"/>
</g>
</g>
</svg>
