<?xml version="1.0" encoding="UTF-8" standalone="no"?>
<!DOCTYPE svg PUBLIC "-//W3C//DTD SVG 1.1//EN"
 "http://www.w3.org/Graphics/SVG/1.1/DTD/svg11.dtd">
<!-- Generated by graphviz version 2.43.0 (0)
 -->
<!-- Title: G Pages: 1 -->
<svg width="432pt" height="288pt"
 viewBox="0.00 0.00 431.71 288.00" xmlns="http://www.w3.org/2000/svg" xmlns:xlink="http://www.w3.org/1999/xlink">
<g id="graph0" class="graph" transform="scale(10.37 10.37) rotate(0) translate(4 2981.33)">
<title>G</title>
<polygon fill="white" stroke="transparent" points="-4,4 -4,-2981.33 4470.97,-2981.33 4470.97,4 -4,4"/>
<!-- u25 -->
<g id="node1" class="node">
<title>u25</title>
<ellipse fill="#bbffbb" stroke="black" cx="3831.69" cy="-2890" rx="108.58" ry="18"/>
<text text-anchor="middle" x="3831.69" y="-2886.3" font-family="Times,serif" font-size="14.00">Drasil.SRSDocument</text>
</g>
<!-- u0 -->
<g id="node6" class="node">
<title>u0</title>
<ellipse fill="#bbffbb" stroke="black" cx="3831.69" cy="-2539" rx="81.79" ry="18"/>
<text text-anchor="middle" x="3831.69" y="-2535.3" font-family="Times,serif" font-size="14.00">Drasil.DocLang</text>
</g>
<!-- u25&#45;&gt;u0 -->
<g id="edge42" class="edge">
<title>u25&#45;&gt;u0</title>
<path fill="none" stroke="black" d="M3831.69,-2871.69C3831.69,-2815.29 3831.69,-2636.47 3831.69,-2567.5"/>
<polygon fill="black" stroke="black" points="3835.19,-2567.41 3831.69,-2557.41 3828.19,-2567.41 3835.19,-2567.41"/>
</g>
<!-- u24 -->
<g id="node2" class="node">
<title>u24</title>
<ellipse fill="#bbffbb" stroke="black" cx="1444.69" cy="-1839" rx="79.09" ry="18"/>
<text text-anchor="middle" x="1444.69" y="-1835.3" font-family="Times,serif" font-size="14.00">Drasil.DocDecl</text>
</g>
<!-- u17 -->
<g id="node12" class="node">
<title>u17</title>
<ellipse fill="#bbbbff" stroke="black" cx="1827.69" cy="-1138" rx="159.47" ry="18"/>
<text text-anchor="middle" x="1827.69" y="-1134.3" font-family="Times,serif" font-size="14.00">Drasil.DocumentLanguage.Core</text>
</g>
<!-- u24&#45;&gt;u17 -->
<g id="edge41" class="edge">
<title>u24&#45;&gt;u17</title>
<path fill="none" stroke="black" d="M1441.27,-1820.81C1431.3,-1766.33 1406.52,-1593.84 1464.69,-1471 1535.89,-1320.61 1708.97,-1206.84 1787.61,-1161.05"/>
<polygon fill="black" stroke="black" points="1789.8,-1163.83 1796.72,-1155.8 1786.31,-1157.76 1789.8,-1163.83"/>
</g>
<!-- u10 -->
<g id="node23" class="node">
<title>u10</title>
<ellipse fill="#ffbbff" stroke="black" cx="905.69" cy="-1489" rx="149.47" ry="18"/>
<text text-anchor="middle" x="905.69" y="-1485.3" font-family="Times,serif" font-size="14.00">Drasil.Sections.Requirements</text>
</g>
<!-- u24&#45;&gt;u10 -->
<g id="edge40" class="edge">
<title>u24&#45;&gt;u10</title>
<path fill="none" stroke="black" d="M1419.41,-1821.68C1331.83,-1765.14 1041.2,-1577.49 940.44,-1512.44"/>
<polygon fill="black" stroke="black" points="942.15,-1509.38 931.85,-1506.89 938.35,-1515.26 942.15,-1509.38"/>
</g>
<!-- u23 -->
<g id="node3" class="node">
<title>u23</title>
<ellipse fill="#bbffbb" stroke="black" cx="3321.69" cy="-1839" rx="92.08" ry="18"/>
<text text-anchor="middle" x="3321.69" y="-1835.3" font-family="Times,serif" font-size="14.00">Drasil.TraceTable</text>
</g>
<!-- u23&#45;&gt;u17 -->
<g id="edge39" class="edge">
<title>u23&#45;&gt;u17</title>
<path fill="none" stroke="black" d="M3330.95,-1821.02C3360.58,-1764.2 3446.14,-1578.2 3359.69,-1471 3186.12,-1255.79 2323,-1173.06 1974.25,-1148.08"/>
<polygon fill="black" stroke="black" points="1974.3,-1144.58 1964.08,-1147.36 1973.81,-1151.56 1974.3,-1144.58"/>
</g>
<!-- u14 -->
<g id="node4" class="node">
<title>u14</title>
<ellipse fill="#bbffbb" stroke="black" cx="1285.69" cy="-2189" rx="133.78" ry="18"/>
<text text-anchor="middle" x="1285.69" y="-2185.3" font-family="Times,serif" font-size="14.00">Drasil.DocumentLanguage</text>
</g>
<!-- u14&#45;&gt;u24 -->
<g id="edge28" class="edge">
<title>u14&#45;&gt;u24</title>
<path fill="none" stroke="black" d="M1293.57,-2170.74C1319.43,-2114.14 1401.79,-1933.89 1432.76,-1866.11"/>
<polygon fill="black" stroke="black" points="1435.97,-1867.5 1436.94,-1856.95 1429.6,-1864.59 1435.97,-1867.5"/>
</g>
<!-- u14&#45;&gt;u23 -->
<g id="edge27" class="edge">
<title>u14&#45;&gt;u23</title>
<path fill="none" stroke="black" d="M1364.88,-2174.46C1690.37,-2118.83 2923.17,-1908.12 3244.64,-1853.17"/>
<polygon fill="black" stroke="black" points="3245.52,-1856.57 3254.79,-1851.43 3244.35,-1849.67 3245.52,-1856.57"/>
</g>
<!-- u1 -->
<g id="node5" class="node">
<title>u1</title>
<ellipse fill="#bbffbb" stroke="black" cx="3094.69" cy="-1839" rx="116.18" ry="18"/>
<text text-anchor="middle" x="3094.69" y="-1835.3" font-family="Times,serif" font-size="14.00">Drasil.ExtractDocDesc</text>
</g>
<!-- u14&#45;&gt;u1 -->
<g id="edge21" class="edge">
<title>u14&#45;&gt;u1</title>
<path fill="none" stroke="black" d="M1359.13,-2173.87C1649.08,-2118.09 2713.19,-1913.39 3014.62,-1855.4"/>
<polygon fill="black" stroke="black" points="3015.44,-1858.81 3024.6,-1853.48 3014.12,-1851.94 3015.44,-1858.81"/>
</g>
<!-- u28 -->
<g id="node7" class="node">
<title>u28</title>
<ellipse fill="#ffffbb" stroke="black" cx="1842.69" cy="-1839" rx="136.48" ry="18"/>
<text text-anchor="middle" x="1842.69" y="-1835.3" font-family="Times,serif" font-size="14.00">Drasil.DocLang.References</text>
</g>
<!-- u14&#45;&gt;u28 -->
<g id="edge29" class="edge">
<title>u14&#45;&gt;u28</title>
<path fill="none" stroke="black" d="M1312.55,-2171.22C1404.09,-2114.03 1703.83,-1926.76 1807.23,-1862.15"/>
<polygon fill="black" stroke="black" points="1809.14,-1865.09 1815.77,-1856.82 1805.43,-1859.15 1809.14,-1865.09"/>
</g>
<!-- u15 -->
<g id="node14" class="node">
<title>u15</title>
<ellipse fill="#bbbbff" stroke="black" cx="1126.69" cy="-1839" rx="220.96" ry="18"/>
<text text-anchor="middle" x="1126.69" y="-1835.3" font-family="Times,serif" font-size="14.00">Drasil.DocumentLanguage.TraceabilityGraph</text>
</g>
<!-- u14&#45;&gt;u15 -->
<g id="edge26" class="edge">
<title>u14&#45;&gt;u15</title>
<path fill="none" stroke="black" d="M1277.8,-2170.74C1252,-2114.27 1169.97,-1934.73 1138.83,-1866.58"/>
<polygon fill="black" stroke="black" points="1141.96,-1865 1134.62,-1857.36 1135.59,-1867.91 1141.96,-1865"/>
</g>
<!-- u13 -->
<g id="node20" class="node">
<title>u13</title>
<ellipse fill="#ffbbff" stroke="black" cx="357.69" cy="-1839" rx="163.27" ry="18"/>
<text text-anchor="middle" x="357.69" y="-1835.3" font-family="Times,serif" font-size="14.00">Drasil.Sections.GeneralSystDesc</text>
</g>
<!-- u14&#45;&gt;u13 -->
<g id="edge25" class="edge">
<title>u14&#45;&gt;u13</title>
<path fill="none" stroke="black" d="M1242.79,-2171.91C1090.84,-2114.93 578.42,-1922.77 411.06,-1860.01"/>
<polygon fill="black" stroke="black" points="412.06,-1856.65 401.47,-1856.42 409.6,-1863.21 412.06,-1856.65"/>
</g>
<!-- u12 -->
<g id="node21" class="node">
<title>u12</title>
<ellipse fill="#ffbbff" stroke="black" cx="695.69" cy="-1839" rx="144.87" ry="18"/>
<text text-anchor="middle" x="695.69" y="-1835.3" font-family="Times,serif" font-size="14.00">Drasil.Sections.Stakeholders</text>
</g>
<!-- u14&#45;&gt;u12 -->
<g id="edge24" class="edge">
<title>u14&#45;&gt;u12</title>
<path fill="none" stroke="black" d="M1257.23,-2171.22C1160.17,-2113.97 842.14,-1926.38 732.91,-1861.96"/>
<polygon fill="black" stroke="black" points="734.59,-1858.89 724.2,-1856.82 731.04,-1864.91 734.59,-1858.89"/>
</g>
<!-- u6 -->
<g id="node27" class="node">
<title>u6</title>
<ellipse fill="#ffbbff" stroke="black" cx="141.69" cy="-1489" rx="141.88" ry="18"/>
<text text-anchor="middle" x="141.69" y="-1485.3" font-family="Times,serif" font-size="14.00">Drasil.Sections.Introduction</text>
</g>
<!-- u14&#45;&gt;u6 -->
<g id="edge23" class="edge">
<title>u14&#45;&gt;u6</title>
<path fill="none" stroke="black" d="M1202.46,-2174.9C969.64,-2136.49 319.93,-2016.73 185.69,-1857 101.6,-1756.95 123.46,-1583.81 135.91,-1517.2"/>
<polygon fill="black" stroke="black" points="139.4,-1517.58 137.88,-1507.1 132.53,-1516.24 139.4,-1517.58"/>
</g>
<!-- u2 -->
<g id="node31" class="node">
<title>u2</title>
<ellipse fill="#ffbbff" stroke="black" cx="576.69" cy="-1489" rx="161.37" ry="18"/>
<text text-anchor="middle" x="576.69" y="-1485.3" font-family="Times,serif" font-size="14.00">Drasil.Sections.TableOfContents</text>
</g>
<!-- u14&#45;&gt;u2 -->
<g id="edge22" class="edge">
<title>u14&#45;&gt;u2</title>
<path fill="none" stroke="black" d="M1263.63,-2171.13C1202.69,-2124.12 1027.89,-1986.63 896.69,-1857 774.64,-1736.42 644.98,-1576.36 596.49,-1515.21"/>
<polygon fill="black" stroke="black" points="599.15,-1512.92 590.2,-1507.25 593.66,-1517.27 599.15,-1512.92"/>
</g>
<!-- u1&#45;&gt;u17 -->
<g id="edge5" class="edge">
<title>u1&#45;&gt;u17</title>
<path fill="none" stroke="black" d="M3121.21,-1821.33C3202.82,-1768.03 3438.66,-1597.85 3336.69,-1471 3165.94,-1258.61 2315.66,-1174.22 1972.07,-1148.44"/>
<polygon fill="black" stroke="black" points="1972.29,-1144.95 1962.06,-1147.7 1971.77,-1151.93 1972.29,-1144.95"/>
</g>
<!-- u8 -->
<g id="node25" class="node">
<title>u8</title>
<ellipse fill="#ffbbff" stroke="black" cx="3119.69" cy="-1489" rx="207.96" ry="18"/>
<text text-anchor="middle" x="3119.69" y="-1485.3" font-family="Times,serif" font-size="14.00">Drasil.Sections.SpecificSystemDescription</text>
</g>
<!-- u1&#45;&gt;u8 -->
<g id="edge4" class="edge">
<title>u1&#45;&gt;u8</title>
<path fill="none" stroke="black" d="M3095.93,-1820.74C3099.97,-1764.5 3112.78,-1586.2 3117.72,-1517.42"/>
<polygon fill="black" stroke="black" points="3121.21,-1517.59 3118.44,-1507.36 3114.23,-1517.09 3121.21,-1517.59"/>
</g>
<!-- u0&#45;&gt;u14 -->
<g id="edge2" class="edge">
<title>u0&#45;&gt;u14</title>
<path fill="none" stroke="black" d="M3764.24,-2528.78C3414.3,-2480.95 1805.51,-2261.05 1385.97,-2203.71"/>
<polygon fill="black" stroke="black" points="1386.37,-2200.23 1375.98,-2202.34 1385.42,-2207.16 1386.37,-2200.23"/>
</g>
<!-- u18 -->
<g id="node17" class="node">
<title>u18</title>
<ellipse fill="#ffbbbb" stroke="black" cx="3831.69" cy="-2189" rx="276.75" ry="18"/>
<text text-anchor="middle" x="3831.69" y="-2185.3" font-family="Times,serif" font-size="14.00">Drasil.DocumentLanguage.Notebook.DocumentLanguage</text>
</g>
<!-- u0&#45;&gt;u18 -->
<g id="edge3" class="edge">
<title>u0&#45;&gt;u18</title>
<path fill="none" stroke="black" d="M3831.69,-2520.74C3831.69,-2464.5 3831.69,-2286.2 3831.69,-2217.42"/>
<polygon fill="black" stroke="black" points="3835.19,-2217.36 3831.69,-2207.36 3828.19,-2217.36 3835.19,-2217.36"/>
</g>
<!-- u9 -->
<g id="node24" class="node">
<title>u9</title>
<ellipse fill="#ffbbff" stroke="black" cx="4296.69" cy="-2189" rx="170.07" ry="18"/>
<text text-anchor="middle" x="4296.69" y="-2185.3" font-family="Times,serif" font-size="14.00">Drasil.Sections.ReferenceMaterial</text>
</g>
<!-- u0&#45;&gt;u9 -->
<g id="edge1" class="edge">
<title>u0&#45;&gt;u9</title>
<path fill="none" stroke="black" d="M3853.8,-2521.45C3929.52,-2464.78 4178.51,-2278.44 4265.98,-2212.98"/>
<polygon fill="black" stroke="black" points="4268.26,-2215.65 4274.16,-2206.86 4264.06,-2210.05 4268.26,-2215.65"/>
</g>
<!-- u11 -->
<g id="node22" class="node">
<title>u11</title>
<ellipse fill="#ffbbff" stroke="black" cx="1650.69" cy="-1489" rx="177.37" ry="18"/>
<text text-anchor="middle" x="1650.69" y="-1485.3" font-family="Times,serif" font-size="14.00">Drasil.Sections.TraceabilityMandGs</text>
</g>
<!-- u28&#45;&gt;u11 -->
<g id="edge49" class="edge">
<title>u28&#45;&gt;u11</title>
<path fill="none" stroke="black" d="M1833.17,-1820.74C1801.95,-1764.16 1702.54,-1583.99 1665.12,-1516.16"/>
<polygon fill="black" stroke="black" points="1668.16,-1514.43 1660.27,-1507.36 1662.03,-1517.81 1668.16,-1514.43"/>
</g>
<!-- u28&#45;&gt;u10 -->
<g id="edge48" class="edge">
<title>u28&#45;&gt;u10</title>
<path fill="none" stroke="black" d="M1799.37,-1821.91C1645.78,-1764.87 1127.37,-1572.33 958.99,-1509.8"/>
<polygon fill="black" stroke="black" points="959.94,-1506.42 949.35,-1506.22 957.51,-1512.98 959.94,-1506.42"/>
</g>
<!-- u28&#45;&gt;u8 -->
<g id="edge47" class="edge">
<title>u28&#45;&gt;u8</title>
<path fill="none" stroke="black" d="M1899.21,-1822.6C2106.22,-1766.18 2822.78,-1570.91 3049.99,-1508.99"/>
<polygon fill="black" stroke="black" points="3051.07,-1512.33 3059.8,-1506.32 3049.23,-1505.57 3051.07,-1512.33"/>
</g>
<!-- u7 -->
<g id="node26" class="node">
<title>u7</title>
<ellipse fill="#ffbbff" stroke="black" cx="2384.69" cy="-1489" rx="201.46" ry="18"/>
<text text-anchor="middle" x="2384.69" y="-1485.3" font-family="Times,serif" font-size="14.00">Drasil.Sections.TableOfAbbAndAcronyms</text>
</g>
<!-- u28&#45;&gt;u7 -->
<g id="edge46" class="edge">
<title>u28&#45;&gt;u7</title>
<path fill="none" stroke="black" d="M1868.83,-1821.22C1957.71,-1764.15 2248.31,-1577.56 2349.54,-1512.57"/>
<polygon fill="black" stroke="black" points="2351.65,-1515.37 2358.17,-1507.02 2347.87,-1509.48 2351.65,-1515.37"/>
</g>
<!-- u5 -->
<g id="node28" class="node">
<title>u5</title>
<ellipse fill="#ffbbff" stroke="black" cx="2005.69" cy="-1489" rx="159.47" ry="18"/>
<text text-anchor="middle" x="2005.69" y="-1485.3" font-family="Times,serif" font-size="14.00">Drasil.Sections.TableOfSymbols</text>
</g>
<!-- u28&#45;&gt;u5 -->
<g id="edge45" class="edge">
<title>u28&#45;&gt;u5</title>
<path fill="none" stroke="black" d="M1850.77,-1820.74C1877.22,-1764.27 1961.32,-1584.73 1993.24,-1516.58"/>
<polygon fill="black" stroke="black" points="1996.48,-1517.9 1997.56,-1507.36 1990.14,-1514.93 1996.48,-1517.9"/>
</g>
<!-- u4 -->
<g id="node29" class="node">
<title>u4</title>
<ellipse fill="#ffbbff" stroke="black" cx="1245.69" cy="-1489" rx="172.47" ry="18"/>
<text text-anchor="middle" x="1245.69" y="-1485.3" font-family="Times,serif" font-size="14.00">Drasil.Sections.AuxiliaryConstants</text>
</g>
<!-- u28&#45;&gt;u4 -->
<g id="edge44" class="edge">
<title>u28&#45;&gt;u4</title>
<path fill="none" stroke="black" d="M1813.89,-1821.22C1715.68,-1763.97 1393.87,-1576.38 1283.35,-1511.96"/>
<polygon fill="black" stroke="black" points="1284.94,-1508.83 1274.54,-1506.82 1281.42,-1514.88 1284.94,-1508.83"/>
</g>
<!-- u3 -->
<g id="node30" class="node">
<title>u3</title>
<ellipse fill="#ffbbff" stroke="black" cx="2748.69" cy="-1489" rx="144.87" ry="18"/>
<text text-anchor="middle" x="2748.69" y="-1485.3" font-family="Times,serif" font-size="14.00">Drasil.Sections.TableOfUnits</text>
</g>
<!-- u28&#45;&gt;u3 -->
<g id="edge43" class="edge">
<title>u28&#45;&gt;u3</title>
<path fill="none" stroke="black" d="M1884.87,-1821.8C2033.54,-1764.69 2532.99,-1572.85 2696.43,-1510.07"/>
<polygon fill="black" stroke="black" points="2698.17,-1513.15 2706.25,-1506.3 2695.66,-1506.62 2698.17,-1513.15"/>
</g>
<!-- u27 -->
<g id="node8" class="node">
<title>u27</title>
<ellipse fill="#ffffbb" stroke="black" cx="674.69" cy="-1138" rx="104.78" ry="18"/>
<text text-anchor="middle" x="674.69" y="-1134.3" font-family="Times,serif" font-size="14.00">Drasil.DocLang.SRS</text>
</g>
<!-- u26 -->
<g id="node9" class="node">
<title>u26</title>
<ellipse fill="#ffffbb" stroke="black" cx="4159.69" cy="-1489" rx="129.18" ry="18"/>
<text text-anchor="middle" x="4159.69" y="-1485.3" font-family="Times,serif" font-size="14.00">Drasil.DocLang.Notebook</text>
</g>
<!-- u22 -->
<g id="node10" class="node">
<title>u22</title>
<ellipse fill="#bbbbff" stroke="black" cx="1245.69" cy="-88" rx="162.47" ry="18"/>
<text text-anchor="middle" x="1245.69" y="-84.3" font-family="Times,serif" font-size="14.00">Drasil.DocumentLanguage.Units</text>
</g>
<!-- u21 -->
<g id="node11" class="node">
<title>u21</title>
<ellipse fill="#bbbbff" stroke="black" cx="1508.69" cy="-438" rx="187.37" ry="18"/>
<text text-anchor="middle" x="1508.69" y="-434.3" font-family="Times,serif" font-size="14.00">Drasil.DocumentLanguage.Definitions</text>
</g>
<!-- u21&#45;&gt;u22 -->
<g id="edge38" class="edge">
<title>u21&#45;&gt;u22</title>
<path fill="none" stroke="black" d="M1495.65,-419.74C1452.69,-362.91 1315.53,-181.41 1264.79,-114.28"/>
<polygon fill="black" stroke="black" points="1267.32,-111.82 1258.5,-105.95 1261.74,-116.04 1267.32,-111.82"/>
</g>
<!-- u16 -->
<g id="node13" class="node">
<title>u16</title>
<ellipse fill="#bbbbff" stroke="black" cx="1734.69" cy="-788" rx="223.66" ry="18"/>
<text text-anchor="middle" x="1734.69" y="-784.3" font-family="Times,serif" font-size="14.00">Drasil.DocumentLanguage.TraceabilityMatrix</text>
</g>
<!-- u17&#45;&gt;u16 -->
<g id="edge33" class="edge">
<title>u17&#45;&gt;u16</title>
<path fill="none" stroke="black" d="M1823.08,-1119.74C1808.05,-1063.5 1760.39,-885.2 1742.02,-816.42"/>
<polygon fill="black" stroke="black" points="1745.29,-815.12 1739.33,-806.36 1738.53,-816.93 1745.29,-815.12"/>
</g>
<!-- u16&#45;&gt;u21 -->
<g id="edge32" class="edge">
<title>u16&#45;&gt;u21</title>
<path fill="none" stroke="black" d="M1723.48,-769.74C1686.73,-713.16 1569.73,-532.99 1525.68,-465.16"/>
<polygon fill="black" stroke="black" points="1528.34,-462.84 1519.96,-456.36 1522.47,-466.65 1528.34,-462.84"/>
</g>
<!-- u15&#45;&gt;u27 -->
<g id="edge31" class="edge">
<title>u15&#45;&gt;u27</title>
<path fill="none" stroke="black" d="M1012.79,-1823.52C846.18,-1795.52 541.24,-1716.94 406.69,-1507 319.19,-1370.48 544.08,-1216.42 636.84,-1160.62"/>
<polygon fill="black" stroke="black" points="638.84,-1163.5 645.65,-1155.37 635.26,-1157.48 638.84,-1163.5"/>
</g>
<!-- u15&#45;&gt;u11 -->
<g id="edge30" class="edge">
<title>u15&#45;&gt;u11</title>
<path fill="none" stroke="black" d="M1152.32,-1820.98C1238.68,-1763.62 1519.11,-1577.38 1616.78,-1512.52"/>
<polygon fill="black" stroke="black" points="1618.71,-1515.44 1625.11,-1506.99 1614.84,-1509.6 1618.71,-1515.44"/>
</g>
<!-- u20 -->
<g id="node15" class="node">
<title>u20</title>
<ellipse fill="#ffbbbb" stroke="black" cx="3651.69" cy="-1839" rx="219.86" ry="18"/>
<text text-anchor="middle" x="3651.69" y="-1835.3" font-family="Times,serif" font-size="14.00">Drasil.DocumentLanguage.Notebook.NBDecl</text>
</g>
<!-- u19 -->
<g id="node16" class="node">
<title>u19</title>
<ellipse fill="#ffbbbb" stroke="black" cx="3651.69" cy="-1489" rx="206.06" ry="18"/>
<text text-anchor="middle" x="3651.69" y="-1485.3" font-family="Times,serif" font-size="14.00">Drasil.DocumentLanguage.Notebook.Core</text>
</g>
<!-- u20&#45;&gt;u19 -->
<g id="edge37" class="edge">
<title>u20&#45;&gt;u19</title>
<path fill="none" stroke="black" d="M3651.69,-1820.74C3651.69,-1764.5 3651.69,-1586.2 3651.69,-1517.42"/>
<polygon fill="black" stroke="black" points="3655.19,-1517.36 3651.69,-1507.36 3648.19,-1517.36 3655.19,-1517.36"/>
</g>
<!-- u18&#45;&gt;u20 -->
<g id="edge34" class="edge">
<title>u18&#45;&gt;u20</title>
<path fill="none" stroke="black" d="M3822.76,-2170.74C3793.55,-2114.27 3700.68,-1934.73 3665.44,-1866.58"/>
<polygon fill="black" stroke="black" points="3668.37,-1864.64 3660.67,-1857.36 3662.15,-1867.85 3668.37,-1864.64"/>
</g>
<!-- u30 -->
<g id="node18" class="node">
<title>u30</title>
<ellipse fill="#bbffff" stroke="black" cx="4011.69" cy="-1839" rx="122.38" ry="18"/>
<text text-anchor="middle" x="4011.69" y="-1835.3" font-family="Times,serif" font-size="14.00">Drasil.NBSections.Body</text>
</g>
<!-- u18&#45;&gt;u30 -->
<g id="edge36" class="edge">
<title>u18&#45;&gt;u30</title>
<path fill="none" stroke="black" d="M3840.61,-2170.74C3869.82,-2114.27 3962.69,-1934.73 3997.94,-1866.58"/>
<polygon fill="black" stroke="black" points="4001.22,-1867.85 4002.71,-1857.36 3995,-1864.64 4001.22,-1867.85"/>
</g>
<!-- u29 -->
<g id="node19" class="node">
<title>u29</title>
<ellipse fill="#bbffff" stroke="black" cx="4307.69" cy="-1839" rx="155.97" ry="18"/>
<text text-anchor="middle" x="4307.69" y="-1835.3" font-family="Times,serif" font-size="14.00">Drasil.NBSections.Introduction</text>
</g>
<!-- u18&#45;&gt;u29 -->
<g id="edge35" class="edge">
<title>u18&#45;&gt;u29</title>
<path fill="none" stroke="black" d="M3854.97,-2170.98C3933.26,-2113.74 4187.14,-1928.13 4276.34,-1862.91"/>
<polygon fill="black" stroke="black" points="4278.44,-1865.71 4284.45,-1856.99 4274.31,-1860.06 4278.44,-1865.71"/>
</g>
<!-- u30&#45;&gt;u26 -->
<g id="edge51" class="edge">
<title>u30&#45;&gt;u26</title>
<path fill="none" stroke="black" d="M4019.03,-1820.74C4043.04,-1764.27 4119.4,-1584.73 4148.38,-1516.58"/>
<polygon fill="black" stroke="black" points="4151.61,-1517.93 4152.3,-1507.36 4145.17,-1515.19 4151.61,-1517.93"/>
</g>
<!-- u29&#45;&gt;u26 -->
<g id="edge50" class="edge">
<title>u29&#45;&gt;u26</title>
<path fill="none" stroke="black" d="M4300.35,-1820.74C4276.33,-1764.27 4199.97,-1584.73 4170.99,-1516.58"/>
<polygon fill="black" stroke="black" points="4174.21,-1515.19 4167.07,-1507.36 4167.76,-1517.93 4174.21,-1515.19"/>
</g>
<!-- u13&#45;&gt;u27 -->
<g id="edge20" class="edge">
<title>u13&#45;&gt;u27</title>
<path fill="none" stroke="black" d="M353.54,-1820.69C341.43,-1766.56 310.11,-1596.6 360.69,-1471 418.81,-1326.68 572.15,-1208.64 640.72,-1161.31"/>
<polygon fill="black" stroke="black" points="642.75,-1164.16 649.04,-1155.63 638.8,-1158.38 642.75,-1164.16"/>
</g>
<!-- u12&#45;&gt;u27 -->
<g id="edge19" class="edge">
<title>u12&#45;&gt;u27</title>
<path fill="none" stroke="black" d="M668.36,-1821.02C602.34,-1778.16 435.08,-1658.16 373.69,-1507 310.65,-1351.8 536.74,-1211.39 633.15,-1159.86"/>
<polygon fill="black" stroke="black" points="634.85,-1162.92 642.06,-1155.16 631.58,-1156.73 634.85,-1162.92"/>
</g>
<!-- u11&#45;&gt;u17 -->
<g id="edge18" class="edge">
<title>u11&#45;&gt;u17</title>
<path fill="none" stroke="black" d="M1659.46,-1470.69C1688.25,-1413.93 1779.93,-1233.16 1814.41,-1165.18"/>
<polygon fill="black" stroke="black" points="1817.66,-1166.5 1819.07,-1156 1811.42,-1163.34 1817.66,-1166.5"/>
</g>
<!-- u10&#45;&gt;u27 -->
<g id="edge17" class="edge">
<title>u10&#45;&gt;u27</title>
<path fill="none" stroke="black" d="M894.23,-1470.69C856.51,-1413.7 736.03,-1231.68 691.47,-1164.35"/>
<polygon fill="black" stroke="black" points="694.38,-1162.41 685.94,-1156 688.54,-1166.27 694.38,-1162.41"/>
</g>
<!-- u10&#45;&gt;u22 -->
<g id="edge16" class="edge">
<title>u10&#45;&gt;u22</title>
<path fill="none" stroke="black" d="M909.86,-1470.82C945.29,-1325.06 1195.16,-296.89 1239.1,-116.11"/>
<polygon fill="black" stroke="black" points="1242.52,-116.87 1241.48,-106.33 1235.71,-115.22 1242.52,-116.87"/>
</g>
<!-- u8&#45;&gt;u27 -->
<g id="edge15" class="edge">
<title>u8&#45;&gt;u27</title>
<path fill="none" stroke="black" d="M3016.97,-1473.34C2613.13,-1415.69 1138.31,-1205.18 762.37,-1151.52"/>
<polygon fill="black" stroke="black" points="762.76,-1148.04 752.36,-1150.09 761.77,-1154.97 762.76,-1148.04"/>
</g>
<!-- u8&#45;&gt;u21 -->
<g id="edge14" class="edge">
<title>u8&#45;&gt;u21</title>
<path fill="none" stroke="black" d="M3093.73,-1471.1C2906.11,-1348.93 1758.77,-601.84 1543.48,-461.66"/>
<polygon fill="black" stroke="black" points="1545.08,-458.52 1534.79,-456 1541.26,-464.39 1545.08,-458.52"/>
</g>
<!-- u6&#45;&gt;u27 -->
<g id="edge13" class="edge">
<title>u6&#45;&gt;u27</title>
<path fill="none" stroke="black" d="M167.4,-1471.17C255,-1413.8 541.89,-1225.95 640.81,-1161.18"/>
<polygon fill="black" stroke="black" points="642.79,-1164.07 649.24,-1155.66 638.95,-1158.21 642.79,-1164.07"/>
</g>
<!-- u6&#45;&gt;u21 -->
<g id="edge12" class="edge">
<title>u6&#45;&gt;u21</title>
<path fill="none" stroke="black" d="M159.92,-1470.83C217.26,-1417.08 399.66,-1248.05 560.69,-1120 906.1,-845.33 1349.87,-545.16 1474.69,-461.65"/>
<polygon fill="black" stroke="black" points="1476.75,-464.48 1483.12,-456.01 1472.86,-458.66 1476.75,-464.48"/>
</g>
<!-- u5&#45;&gt;u17 -->
<g id="edge11" class="edge">
<title>u5&#45;&gt;u17</title>
<path fill="none" stroke="black" d="M1996.86,-1470.69C1967.91,-1413.93 1875.71,-1233.16 1841.04,-1165.18"/>
<polygon fill="black" stroke="black" points="1844.02,-1163.32 1836.36,-1156 1837.78,-1166.5 1844.02,-1163.32"/>
</g>
<!-- u4&#45;&gt;u27 -->
<g id="edge10" class="edge">
<title>u4&#45;&gt;u27</title>
<path fill="none" stroke="black" d="M1218.15,-1471.17C1124.09,-1413.68 815.62,-1225.14 710.3,-1160.77"/>
<polygon fill="black" stroke="black" points="711.98,-1157.69 701.62,-1155.46 708.33,-1163.66 711.98,-1157.69"/>
</g>
<!-- u4&#45;&gt;u22 -->
<g id="edge9" class="edge">
<title>u4&#45;&gt;u22</title>
<path fill="none" stroke="black" d="M1245.69,-1470.82C1245.69,-1325.14 1245.69,-297.92 1245.69,-116.38"/>
<polygon fill="black" stroke="black" points="1249.19,-116.33 1245.69,-106.33 1242.19,-116.33 1249.19,-116.33"/>
</g>
<!-- u3&#45;&gt;u17 -->
<g id="edge8" class="edge">
<title>u3&#45;&gt;u17</title>
<path fill="none" stroke="black" d="M2705.81,-1471.75C2554.52,-1414.42 2045.94,-1221.7 1880.31,-1158.94"/>
<polygon fill="black" stroke="black" points="1881.42,-1155.62 1870.83,-1155.35 1878.94,-1162.16 1881.42,-1155.62"/>
</g>
<!-- u2&#45;&gt;u27 -->
<g id="edge7" class="edge">
<title>u2&#45;&gt;u27</title>
<path fill="none" stroke="black" d="M581.55,-1470.69C597.42,-1414.16 647.83,-1234.64 667.1,-1166.02"/>
<polygon fill="black" stroke="black" points="670.58,-1166.57 669.91,-1156 663.84,-1164.68 670.58,-1166.57"/>
</g>
<!-- u2&#45;&gt;u17 -->
<g id="edge6" class="edge">
<title>u2&#45;&gt;u17</title>
<path fill="none" stroke="black" d="M633.69,-1472.1C839.06,-1414.8 1540.54,-1219.11 1760.89,-1157.63"/>
<polygon fill="black" stroke="black" points="1762.02,-1160.95 1770.71,-1154.9 1760.14,-1154.21 1762.02,-1160.95"/>
</g>
</g>
</svg>
