<?xml version="1.0" encoding="UTF-8" standalone="no"?>
<!DOCTYPE svg PUBLIC "-//W3C//DTD SVG 1.1//EN"
 "http://www.w3.org/Graphics/SVG/1.1/DTD/svg11.dtd">
<!-- Generated by graphviz version 2.43.0 (0)
 -->
<!-- Title: G Pages: 1 -->
<svg width="432pt" height="288pt"
 viewBox="0.00 0.00 431.60 288.00" xmlns="http://www.w3.org/2000/svg" xmlns:xlink="http://www.w3.org/1999/xlink">
<g id="graph0" class="graph" transform="scale(0.11 0.11) rotate(0) translate(4 2676)">
<title>G</title>
<polygon fill="white" stroke="transparent" points="-4,4 -4,-2676 4012.28,-2676 4012.28,4 -4,4"/>
<!-- u30 -->
<g id="node1" class="node">
<title>u30</title>
<ellipse fill="#bbffbb" stroke="black" cx="2304.34" cy="-1965" rx="133.78" ry="18"/>
<text text-anchor="middle" x="2304.34" y="-1961.3" font-family="Times,serif" font-size="14.00">Drasil.DocumentLanguage</text>
</g>
<!-- u21 -->
<g id="node2" class="node">
<title>u21</title>
<ellipse fill="#bbffbb" stroke="black" cx="921.34" cy="-1650" rx="79.09" ry="18"/>
<text text-anchor="middle" x="921.34" y="-1646.3" font-family="Times,serif" font-size="14.00">Drasil.DocDecl</text>
</g>
<!-- u30&#45;&gt;u21 -->
<g id="edge61" class="edge">
<title>u30&#45;&gt;u21</title>
<path fill="none" stroke="black" d="M2239.03,-1949.22C2005.97,-1896.47 1216.81,-1717.87 985.53,-1665.53"/>
<polygon fill="black" stroke="black" points="986.12,-1662.07 975.59,-1663.28 984.57,-1668.9 986.12,-1662.07"/>
</g>
<!-- u20 -->
<g id="node3" class="node">
<title>u20</title>
<ellipse fill="#bbffbb" stroke="black" cx="246.34" cy="-1650" rx="92.08" ry="18"/>
<text text-anchor="middle" x="246.34" y="-1646.3" font-family="Times,serif" font-size="14.00">Drasil.TraceTable</text>
</g>
<!-- u30&#45;&gt;u20 -->
<g id="edge60" class="edge">
<title>u30&#45;&gt;u20</title>
<path fill="none" stroke="black" d="M2219.18,-1951.05C1883.56,-1900 654.76,-1713.12 327.09,-1663.28"/>
<polygon fill="black" stroke="black" points="327.15,-1659.75 316.74,-1661.71 326.1,-1666.67 327.15,-1659.75"/>
</g>
<!-- u0 -->
<g id="node7" class="node">
<title>u0</title>
<ellipse fill="#bbffbb" stroke="black" cx="1377.34" cy="-1650" rx="116.18" ry="18"/>
<text text-anchor="middle" x="1377.34" y="-1646.3" font-family="Times,serif" font-size="14.00">Drasil.ExtractDocDesc</text>
</g>
<!-- u30&#45;&gt;u0 -->
<g id="edge54" class="edge">
<title>u30&#45;&gt;u0</title>
<path fill="none" stroke="black" d="M2257.09,-1948.05C2100.82,-1895.28 1601.02,-1726.53 1433.03,-1669.8"/>
<polygon fill="black" stroke="black" points="1433.98,-1666.43 1423.39,-1666.55 1431.74,-1673.06 1433.98,-1666.43"/>
</g>
<!-- u1 -->
<g id="node10" class="node">
<title>u1</title>
<ellipse fill="#ffffbb" stroke="black" cx="1648.34" cy="-1650" rx="136.48" ry="18"/>
<text text-anchor="middle" x="1648.34" y="-1646.3" font-family="Times,serif" font-size="14.00">Drasil.DocLang.References</text>
</g>
<!-- u30&#45;&gt;u1 -->
<g id="edge55" class="edge">
<title>u30&#45;&gt;u1</title>
<path fill="none" stroke="black" d="M2269.53,-1947.39C2158.78,-1894.55 1814.66,-1730.36 1692.17,-1671.92"/>
<polygon fill="black" stroke="black" points="1693.59,-1668.71 1683.06,-1667.57 1690.58,-1675.03 1693.59,-1668.71"/>
</g>
<!-- u27 -->
<g id="node14" class="node">
<title>u27</title>
<ellipse fill="#ffbbbb" stroke="black" cx="2304.34" cy="-1650" rx="220.96" ry="18"/>
<text text-anchor="middle" x="2304.34" y="-1646.3" font-family="Times,serif" font-size="14.00">Drasil.DocumentLanguage.TraceabilityGraph</text>
</g>
<!-- u30&#45;&gt;u27 -->
<g id="edge62" class="edge">
<title>u30&#45;&gt;u27</title>
<path fill="none" stroke="black" d="M2304.34,-1946.73C2304.34,-1895.1 2304.34,-1741.66 2304.34,-1678.57"/>
<polygon fill="black" stroke="black" points="2307.84,-1678.22 2304.34,-1668.22 2300.84,-1678.22 2307.84,-1678.22"/>
</g>
<!-- u14 -->
<g id="node23" class="node">
<title>u14</title>
<ellipse fill="#ffbbff" stroke="black" cx="3214.34" cy="-1336" rx="141.88" ry="18"/>
<text text-anchor="middle" x="3214.34" y="-1332.3" font-family="Times,serif" font-size="14.00">Drasil.Sections.Introduction</text>
</g>
<!-- u30&#45;&gt;u14 -->
<g id="edge59" class="edge">
<title>u30&#45;&gt;u14</title>
<path fill="none" stroke="black" d="M2328.68,-1947.23C2455.06,-1860.15 3036.18,-1459.76 3181.38,-1359.71"/>
<polygon fill="black" stroke="black" points="3183.67,-1362.38 3189.92,-1353.82 3179.7,-1356.61 3183.67,-1362.38"/>
</g>
<!-- u13 -->
<g id="node24" class="node">
<title>u13</title>
<ellipse fill="#ffbbff" stroke="black" cx="2855.34" cy="-1336" rx="161.37" ry="18"/>
<text text-anchor="middle" x="2855.34" y="-1332.3" font-family="Times,serif" font-size="14.00">Drasil.Sections.TableOfContents</text>
</g>
<!-- u30&#45;&gt;u13 -->
<g id="edge58" class="edge">
<title>u30&#45;&gt;u13</title>
<path fill="none" stroke="black" d="M2319.36,-1946.9C2395.94,-1859.77 2742.73,-1465.14 2833.53,-1361.82"/>
<polygon fill="black" stroke="black" points="2836.36,-1363.9 2840.33,-1354.08 2831.1,-1359.28 2836.36,-1363.9"/>
</g>
<!-- u9 -->
<g id="node28" class="node">
<title>u9</title>
<ellipse fill="#ffbbff" stroke="black" cx="3537.34" cy="-1336" rx="163.27" ry="18"/>
<text text-anchor="middle" x="3537.34" y="-1332.3" font-family="Times,serif" font-size="14.00">Drasil.Sections.GeneralSystDesc</text>
</g>
<!-- u30&#45;&gt;u9 -->
<g id="edge57" class="edge">
<title>u30&#45;&gt;u9</title>
<path fill="none" stroke="black" d="M2337,-1947.39C2508.43,-1860.22 3303.65,-1455.84 3495.57,-1358.24"/>
<polygon fill="black" stroke="black" points="3497.18,-1361.35 3504.51,-1353.69 3494.01,-1355.11 3497.18,-1361.35"/>
</g>
<!-- u8 -->
<g id="node29" class="node">
<title>u8</title>
<ellipse fill="#ffbbff" stroke="black" cx="3863.34" cy="-1336" rx="144.87" ry="18"/>
<text text-anchor="middle" x="3863.34" y="-1332.3" font-family="Times,serif" font-size="14.00">Drasil.Sections.Stakeholders</text>
</g>
<!-- u30&#45;&gt;u8 -->
<g id="edge56" class="edge">
<title>u30&#45;&gt;u8</title>
<path fill="none" stroke="black" d="M2344.84,-1947.71C2560.77,-1860.87 3575.59,-1452.73 3813.39,-1357.09"/>
<polygon fill="black" stroke="black" points="3814.85,-1360.27 3822.83,-1353.29 3812.24,-1353.78 3814.85,-1360.27"/>
</g>
<!-- u28 -->
<g id="node13" class="node">
<title>u28</title>
<ellipse fill="#ffbbbb" stroke="black" cx="941.34" cy="-1022" rx="159.47" ry="18"/>
<text text-anchor="middle" x="941.34" y="-1018.3" font-family="Times,serif" font-size="14.00">Drasil.DocumentLanguage.Core</text>
</g>
<!-- u21&#45;&gt;u28 -->
<g id="edge42" class="edge">
<title>u21&#45;&gt;u28</title>
<path fill="none" stroke="black" d="M842.42,-1647.52C595.66,-1640.01 -133.26,-1594.44 65.34,-1318 159.66,-1186.71 648.09,-1079.36 851.88,-1039.58"/>
<polygon fill="black" stroke="black" points="852.81,-1042.97 861.96,-1037.62 851.47,-1036.09 852.81,-1042.97"/>
</g>
<!-- u20&#45;&gt;u28 -->
<g id="edge41" class="edge">
<title>u20&#45;&gt;u28</title>
<path fill="none" stroke="black" d="M222.56,-1632.51C154.12,-1583.07 -33.3,-1432.37 49.34,-1318 145.5,-1184.91 642.1,-1078.7 849.82,-1039.41"/>
<polygon fill="black" stroke="black" points="850.61,-1042.82 859.79,-1037.53 849.32,-1035.94 850.61,-1042.82"/>
</g>
<!-- u19 -->
<g id="node4" class="node">
<title>u19</title>
<ellipse fill="#bbffbb" stroke="black" cx="1027.34" cy="-393" rx="92.88" ry="18"/>
<text text-anchor="middle" x="1027.34" y="-389.3" font-family="Times,serif" font-size="14.00">Drasil.GetChunks</text>
</g>
<!-- u5 -->
<g id="node5" class="node">
<title>u5</title>
<ellipse fill="#bbffbb" stroke="black" cx="2304.34" cy="-2593" rx="108.58" ry="18"/>
<text text-anchor="middle" x="2304.34" y="-2589.3" font-family="Times,serif" font-size="14.00">Drasil.SRSDocument</text>
</g>
<!-- u4 -->
<g id="node6" class="node">
<title>u4</title>
<ellipse fill="#bbffbb" stroke="black" cx="2304.34" cy="-2279" rx="81.79" ry="18"/>
<text text-anchor="middle" x="2304.34" y="-2275.3" font-family="Times,serif" font-size="14.00">Drasil.DocLang</text>
</g>
<!-- u5&#45;&gt;u4 -->
<g id="edge11" class="edge">
<title>u5&#45;&gt;u4</title>
<path fill="none" stroke="black" d="M2304.34,-2574.78C2304.34,-2523.32 2304.34,-2370.37 2304.34,-2307.48"/>
<polygon fill="black" stroke="black" points="2307.84,-2307.17 2304.34,-2297.17 2300.84,-2307.17 2307.84,-2307.17"/>
</g>
<!-- u4&#45;&gt;u30 -->
<g id="edge10" class="edge">
<title>u4&#45;&gt;u30</title>
<path fill="none" stroke="black" d="M2304.34,-2260.78C2304.34,-2209.32 2304.34,-2056.37 2304.34,-1993.48"/>
<polygon fill="black" stroke="black" points="2307.84,-1993.17 2304.34,-1983.17 2300.84,-1993.17 2307.84,-1993.17"/>
</g>
<!-- u0&#45;&gt;u28 -->
<g id="edge2" class="edge">
<title>u0&#45;&gt;u28</title>
<path fill="none" stroke="black" d="M1274.87,-1641.34C998.01,-1618.29 245.89,-1539.46 98.34,-1354 -91.83,-1114.98 492.02,-1048.12 784.71,-1029.76"/>
<polygon fill="black" stroke="black" points="785.23,-1033.24 794.99,-1029.13 784.8,-1026.25 785.23,-1033.24"/>
</g>
<!-- u18 -->
<g id="node19" class="node">
<title>u18</title>
<ellipse fill="#ffbbff" stroke="black" cx="1648.34" cy="-1336" rx="207.96" ry="18"/>
<text text-anchor="middle" x="1648.34" y="-1332.3" font-family="Times,serif" font-size="14.00">Drasil.Sections.SpecificSystemDescription</text>
</g>
<!-- u0&#45;&gt;u18 -->
<g id="edge1" class="edge">
<title>u0&#45;&gt;u18</title>
<path fill="none" stroke="black" d="M1392.29,-1631.78C1437.64,-1579.58 1573.71,-1422.92 1626.8,-1361.8"/>
<polygon fill="black" stroke="black" points="1629.51,-1364.01 1633.43,-1354.17 1624.23,-1359.42 1629.51,-1364.01"/>
</g>
<!-- u3 -->
<g id="node8" class="node">
<title>u3</title>
<ellipse fill="#ffffbb" stroke="black" cx="129.34" cy="-393" rx="129.18" ry="18"/>
<text text-anchor="middle" x="129.34" y="-389.3" font-family="Times,serif" font-size="14.00">Drasil.DocLang.Notebook</text>
</g>
<!-- u2 -->
<g id="node9" class="node">
<title>u2</title>
<ellipse fill="#ffffbb" stroke="black" cx="2911.34" cy="-1022" rx="104.78" ry="18"/>
<text text-anchor="middle" x="2911.34" y="-1018.3" font-family="Times,serif" font-size="14.00">Drasil.DocLang.SRS</text>
</g>
<!-- u1&#45;&gt;u18 -->
<g id="edge9" class="edge">
<title>u1&#45;&gt;u18</title>
<path fill="none" stroke="black" d="M1648.34,-1631.78C1648.34,-1580.32 1648.34,-1427.37 1648.34,-1364.48"/>
<polygon fill="black" stroke="black" points="1651.84,-1364.17 1648.34,-1354.17 1644.84,-1364.17 1651.84,-1364.17"/>
</g>
<!-- u17 -->
<g id="node20" class="node">
<title>u17</title>
<ellipse fill="#ffbbff" stroke="black" cx="256.34" cy="-1336" rx="149.47" ry="18"/>
<text text-anchor="middle" x="256.34" y="-1332.3" font-family="Times,serif" font-size="14.00">Drasil.Sections.Requirements</text>
</g>
<!-- u1&#45;&gt;u17 -->
<g id="edge8" class="edge">
<title>u1&#45;&gt;u17</title>
<path fill="none" stroke="black" d="M1582.14,-1634.16C1351.12,-1582.38 581.34,-1409.84 333.75,-1354.35"/>
<polygon fill="black" stroke="black" points="334.28,-1350.88 323.76,-1352.11 332.75,-1357.71 334.28,-1350.88"/>
</g>
<!-- u16 -->
<g id="node21" class="node">
<title>u16</title>
<ellipse fill="#ffbbff" stroke="black" cx="2075.34" cy="-1336" rx="201.46" ry="18"/>
<text text-anchor="middle" x="2075.34" y="-1332.3" font-family="Times,serif" font-size="14.00">Drasil.Sections.TableOfAbbAndAcronyms</text>
</g>
<!-- u1&#45;&gt;u16 -->
<g id="edge7" class="edge">
<title>u1&#45;&gt;u16</title>
<path fill="none" stroke="black" d="M1671.3,-1632.23C1742.75,-1580.02 1961.3,-1420.33 2043.57,-1360.21"/>
<polygon fill="black" stroke="black" points="2046,-1362.77 2052.01,-1354.05 2041.87,-1357.12 2046,-1362.77"/>
</g>
<!-- u15 -->
<g id="node22" class="node">
<title>u15</title>
<ellipse fill="#ffbbff" stroke="black" cx="2504.34" cy="-1336" rx="172.47" ry="18"/>
<text text-anchor="middle" x="2504.34" y="-1332.3" font-family="Times,serif" font-size="14.00">Drasil.Sections.AuxiliaryConstants</text>
</g>
<!-- u1&#45;&gt;u15 -->
<g id="edge6" class="edge">
<title>u1&#45;&gt;u15</title>
<path fill="none" stroke="black" d="M1692.56,-1632.88C1836.58,-1580.39 2291.99,-1414.4 2449.84,-1356.87"/>
<polygon fill="black" stroke="black" points="2451.16,-1360.11 2459.35,-1353.4 2448.76,-1353.53 2451.16,-1360.11"/>
</g>
<!-- u12 -->
<g id="node25" class="node">
<title>u12</title>
<ellipse fill="#ffbbff" stroke="black" cx="1263.34" cy="-1336" rx="159.47" ry="18"/>
<text text-anchor="middle" x="1263.34" y="-1332.3" font-family="Times,serif" font-size="14.00">Drasil.Sections.TableOfSymbols</text>
</g>
<!-- u1&#45;&gt;u12 -->
<g id="edge5" class="edge">
<title>u1&#45;&gt;u12</title>
<path fill="none" stroke="black" d="M1627.37,-1632C1562.85,-1579.72 1367.2,-1421.17 1292.63,-1360.74"/>
<polygon fill="black" stroke="black" points="1294.54,-1357.78 1284.57,-1354.2 1290.13,-1363.22 1294.54,-1357.78"/>
</g>
<!-- u11 -->
<g id="node26" class="node">
<title>u11</title>
<ellipse fill="#ffbbff" stroke="black" cx="941.34" cy="-1336" rx="144.87" ry="18"/>
<text text-anchor="middle" x="941.34" y="-1332.3" font-family="Times,serif" font-size="14.00">Drasil.Sections.TableOfUnits</text>
</g>
<!-- u1&#45;&gt;u11 -->
<g id="edge4" class="edge">
<title>u1&#45;&gt;u11</title>
<path fill="none" stroke="black" d="M1611.32,-1632.66C1492.41,-1580.19 1120.22,-1415.94 988.29,-1357.72"/>
<polygon fill="black" stroke="black" points="989.4,-1354.39 978.84,-1353.55 986.58,-1360.79 989.4,-1354.39"/>
</g>
<!-- u7 -->
<g id="node30" class="node">
<title>u7</title>
<ellipse fill="#ffbbff" stroke="black" cx="601.34" cy="-1336" rx="177.37" ry="18"/>
<text text-anchor="middle" x="601.34" y="-1332.3" font-family="Times,serif" font-size="14.00">Drasil.Sections.TraceabilityMandGs</text>
</g>
<!-- u1&#45;&gt;u7 -->
<g id="edge3" class="edge">
<title>u1&#45;&gt;u7</title>
<path fill="none" stroke="black" d="M1595.7,-1633.31C1420.34,-1581.06 856.28,-1412.97 665.27,-1356.05"/>
<polygon fill="black" stroke="black" points="666.23,-1352.69 655.65,-1353.18 664.23,-1359.39 666.23,-1352.69"/>
</g>
<!-- u6 -->
<g id="node11" class="node">
<title>u6</title>
<ellipse fill="#bbbbff" stroke="black" cx="2504.34" cy="-393" rx="133.78" ry="18"/>
<text text-anchor="middle" x="2504.34" y="-389.3" font-family="Times,serif" font-size="14.00">Drasil.Document.Contents</text>
</g>
<!-- u22 -->
<g id="node31" class="node">
<title>u22</title>
<ellipse fill="#77ff77" stroke="black" cx="1610.34" cy="-79" rx="146.77" ry="18"/>
<text text-anchor="middle" x="1610.34" y="-75.3" font-family="Times,serif" font-size="14.00">Drasil.Sentence.Combinators</text>
</g>
<!-- u6&#45;&gt;u22 -->
<g id="edge12" class="edge">
<title>u6&#45;&gt;u22</title>
<path fill="none" stroke="black" d="M2458.47,-375.99C2308.15,-323.53 1830.68,-156.9 1666.46,-99.59"/>
<polygon fill="black" stroke="black" points="1667.16,-96.12 1656.56,-96.13 1664.85,-102.73 1667.16,-96.12"/>
</g>
<!-- u29 -->
<g id="node12" class="node">
<title>u29</title>
<ellipse fill="#ffbbbb" stroke="black" cx="482.34" cy="-707" rx="181.17" ry="18"/>
<text text-anchor="middle" x="482.34" y="-703.3" font-family="Times,serif" font-size="14.00">Drasil.DocumentLanguage.Notebook</text>
</g>
<!-- u29&#45;&gt;u19 -->
<g id="edge52" class="edge">
<title>u29&#45;&gt;u19</title>
<path fill="none" stroke="black" d="M511.64,-689.23C603.82,-636.45 887.82,-473.87 990.13,-415.3"/>
<polygon fill="black" stroke="black" points="991.94,-418.3 998.88,-410.29 988.46,-412.22 991.94,-418.3"/>
</g>
<!-- u29&#45;&gt;u3 -->
<g id="edge51" class="edge">
<title>u29&#45;&gt;u3</title>
<path fill="none" stroke="black" d="M463.11,-689C403.94,-636.7 224.46,-478.07 156.14,-417.68"/>
<polygon fill="black" stroke="black" points="158.18,-414.82 148.37,-410.82 153.55,-420.07 158.18,-414.82"/>
</g>
<!-- u23 -->
<g id="node18" class="node">
<title>u23</title>
<ellipse fill="#bbffff" stroke="black" cx="482.34" cy="-393" rx="206.06" ry="18"/>
<text text-anchor="middle" x="482.34" y="-389.3" font-family="Times,serif" font-size="14.00">Drasil.DocumentLanguage.Notebook.Core</text>
</g>
<!-- u29&#45;&gt;u23 -->
<g id="edge53" class="edge">
<title>u29&#45;&gt;u23</title>
<path fill="none" stroke="black" d="M482.34,-688.78C482.34,-637.32 482.34,-484.37 482.34,-421.48"/>
<polygon fill="black" stroke="black" points="485.84,-421.17 482.34,-411.17 478.84,-421.17 485.84,-421.17"/>
</g>
<!-- u24 -->
<g id="node17" class="node">
<title>u24</title>
<ellipse fill="#ffbbbb" stroke="black" cx="1489.34" cy="-707" rx="187.37" ry="18"/>
<text text-anchor="middle" x="1489.34" y="-703.3" font-family="Times,serif" font-size="14.00">Drasil.DocumentLanguage.Definitions</text>
</g>
<!-- u28&#45;&gt;u24 -->
<g id="edge50" class="edge">
<title>u28&#45;&gt;u24</title>
<path fill="none" stroke="black" d="M970.8,-1004.17C1063.16,-951.42 1347.06,-789.26 1450.84,-729.99"/>
<polygon fill="black" stroke="black" points="1452.78,-732.91 1459.73,-724.91 1449.31,-726.83 1452.78,-732.91"/>
</g>
<!-- u27&#45;&gt;u2 -->
<g id="edge47" class="edge">
<title>u27&#45;&gt;u2</title>
<path fill="none" stroke="black" d="M2448.88,-1636.33C2619.67,-1612.74 2896.81,-1545.45 3025.34,-1354 3093.63,-1252.28 2983.68,-1105.51 2933.86,-1047.72"/>
<polygon fill="black" stroke="black" points="2936.19,-1045.07 2926.97,-1039.85 2930.92,-1049.68 2936.19,-1045.07"/>
</g>
<!-- u10 -->
<g id="node27" class="node">
<title>u10</title>
<ellipse fill="#ffbbff" stroke="black" cx="2075.34" cy="-1022" rx="170.07" ry="18"/>
<text text-anchor="middle" x="2075.34" y="-1018.3" font-family="Times,serif" font-size="14.00">Drasil.Sections.ReferenceMaterial</text>
</g>
<!-- u27&#45;&gt;u10 -->
<g id="edge49" class="edge">
<title>u27&#45;&gt;u10</title>
<path fill="none" stroke="black" d="M2306.6,-1631.83C2312.53,-1581.72 2325.42,-1432.04 2285.34,-1318 2245.25,-1203.95 2146.9,-1094.79 2100.43,-1047.52"/>
<polygon fill="black" stroke="black" points="2102.7,-1044.84 2093.17,-1040.22 2097.74,-1049.78 2102.7,-1044.84"/>
</g>
<!-- u27&#45;&gt;u7 -->
<g id="edge48" class="edge">
<title>u27&#45;&gt;u7</title>
<path fill="none" stroke="black" d="M2219.01,-1633.37C1930.26,-1580.47 991.22,-1408.43 693.07,-1353.81"/>
<polygon fill="black" stroke="black" points="693.63,-1350.35 683.16,-1351.99 692.37,-1357.24 693.63,-1350.35"/>
</g>
<!-- u26 -->
<g id="node15" class="node">
<title>u26</title>
<ellipse fill="#ffbbbb" stroke="black" cx="1489.34" cy="-393" rx="162.47" ry="18"/>
<text text-anchor="middle" x="1489.34" y="-389.3" font-family="Times,serif" font-size="14.00">Drasil.DocumentLanguage.Units</text>
</g>
<!-- u25 -->
<g id="node16" class="node">
<title>u25</title>
<ellipse fill="#ffbbbb" stroke="black" cx="1356.34" cy="-1022" rx="223.66" ry="18"/>
<text text-anchor="middle" x="1356.34" y="-1018.3" font-family="Times,serif" font-size="14.00">Drasil.DocumentLanguage.TraceabilityMatrix</text>
</g>
<!-- u25&#45;&gt;u24 -->
<g id="edge46" class="edge">
<title>u25&#45;&gt;u24</title>
<path fill="none" stroke="black" d="M1363.68,-1003.73C1385.71,-951.89 1451.35,-797.39 1477.96,-734.79"/>
<polygon fill="black" stroke="black" points="1481.33,-735.79 1482.02,-725.22 1474.89,-733.06 1481.33,-735.79"/>
</g>
<!-- u24&#45;&gt;u19 -->
<g id="edge44" class="edge">
<title>u24&#45;&gt;u19</title>
<path fill="none" stroke="black" d="M1464.17,-689C1386.07,-636.26 1147.85,-475.38 1060.18,-416.18"/>
<polygon fill="black" stroke="black" points="1061.93,-413.14 1051.69,-410.44 1058.02,-418.94 1061.93,-413.14"/>
</g>
<!-- u24&#45;&gt;u6 -->
<g id="edge43" class="edge">
<title>u24&#45;&gt;u6</title>
<path fill="none" stroke="black" d="M1542.48,-689.66C1715.21,-636.57 2260.17,-469.05 2443.49,-412.7"/>
<polygon fill="black" stroke="black" points="2444.71,-415.99 2453.24,-409.71 2442.65,-409.3 2444.71,-415.99"/>
</g>
<!-- u24&#45;&gt;u26 -->
<g id="edge45" class="edge">
<title>u24&#45;&gt;u26</title>
<path fill="none" stroke="black" d="M1489.34,-688.78C1489.34,-637.32 1489.34,-484.37 1489.34,-421.48"/>
<polygon fill="black" stroke="black" points="1492.84,-421.17 1489.34,-411.17 1485.84,-421.17 1492.84,-421.17"/>
</g>
<!-- u18&#45;&gt;u2 -->
<g id="edge38" class="edge">
<title>u18&#45;&gt;u2</title>
<path fill="none" stroke="black" d="M1713.58,-1318.88C1930.36,-1265.33 2625.24,-1093.68 2844.44,-1039.53"/>
<polygon fill="black" stroke="black" points="2845.33,-1042.91 2854.2,-1037.11 2843.65,-1036.11 2845.33,-1042.91"/>
</g>
<!-- u18&#45;&gt;u24 -->
<g id="edge40" class="edge">
<title>u18&#45;&gt;u24</title>
<path fill="none" stroke="black" d="M1646.21,-1317.93C1639.89,-1268.71 1619.72,-1122.45 1589.34,-1004 1563.31,-902.53 1519.64,-785.7 1499.76,-734.43"/>
<polygon fill="black" stroke="black" points="1503.01,-733.12 1496.12,-725.08 1496.49,-735.67 1503.01,-733.12"/>
</g>
<!-- u18&#45;&gt;u10 -->
<g id="edge39" class="edge">
<title>u18&#45;&gt;u10</title>
<path fill="none" stroke="black" d="M1671.6,-1318C1743.38,-1265.55 1961.54,-1106.15 2043.64,-1046.16"/>
<polygon fill="black" stroke="black" points="2046.05,-1048.74 2052.06,-1040.01 2041.92,-1043.09 2046.05,-1048.74"/>
</g>
<!-- u17&#45;&gt;u2 -->
<g id="edge34" class="edge">
<title>u17&#45;&gt;u2</title>
<path fill="none" stroke="black" d="M359.2,-1322.91C785.36,-1272.83 2409.24,-1082 2817.68,-1034.01"/>
<polygon fill="black" stroke="black" points="2818.15,-1037.47 2827.68,-1032.83 2817.34,-1030.52 2818.15,-1037.47"/>
</g>
<!-- u17&#45;&gt;u26 -->
<g id="edge37" class="edge">
<title>u17&#45;&gt;u26</title>
<path fill="none" stroke="black" d="M286.46,-1318.34C362.96,-1275.58 570.09,-1157.07 730.34,-1040 740.22,-1032.78 1325.54,-533.69 1461.39,-417.83"/>
<polygon fill="black" stroke="black" points="1463.99,-420.22 1469.33,-411.07 1459.45,-414.89 1463.99,-420.22"/>
</g>
<!-- u17&#45;&gt;u10 -->
<g id="edge35" class="edge">
<title>u17&#45;&gt;u10</title>
<path fill="none" stroke="black" d="M338.33,-1320.94C636.39,-1269.81 1661.59,-1093.97 1980.13,-1039.33"/>
<polygon fill="black" stroke="black" points="1980.99,-1042.73 1990.26,-1037.59 1979.81,-1035.83 1980.99,-1042.73"/>
</g>
<!-- u17&#45;&gt;u22 -->
<g id="edge36" class="edge">
<title>u17&#45;&gt;u22</title>
<path fill="none" stroke="black" d="M268.08,-1317.88C355.48,-1190.43 902.17,-393.9 925.34,-375 1116.07,-219.37 1401.3,-132.2 1535.48,-97.63"/>
<polygon fill="black" stroke="black" points="1536.44,-101 1545.27,-95.14 1534.71,-94.22 1536.44,-101"/>
</g>
<!-- u16&#45;&gt;u10 -->
<g id="edge33" class="edge">
<title>u16&#45;&gt;u10</title>
<path fill="none" stroke="black" d="M2075.34,-1317.78C2075.34,-1266.32 2075.34,-1113.37 2075.34,-1050.48"/>
<polygon fill="black" stroke="black" points="2078.84,-1050.17 2075.34,-1040.17 2071.84,-1050.17 2078.84,-1050.17"/>
</g>
<!-- u15&#45;&gt;u2 -->
<g id="edge29" class="edge">
<title>u15&#45;&gt;u2</title>
<path fill="none" stroke="black" d="M2526.51,-1318C2595.01,-1265.49 2803.35,-1105.78 2881.4,-1045.95"/>
<polygon fill="black" stroke="black" points="2883.59,-1048.68 2889.4,-1039.82 2879.33,-1043.13 2883.59,-1048.68"/>
</g>
<!-- u15&#45;&gt;u6 -->
<g id="edge30" class="edge">
<title>u15&#45;&gt;u6</title>
<path fill="none" stroke="black" d="M2504.34,-1317.86C2504.34,-1204.48 2504.34,-562.53 2504.34,-421.43"/>
<polygon fill="black" stroke="black" points="2507.84,-421.08 2504.34,-411.08 2500.84,-421.08 2507.84,-421.08"/>
</g>
<!-- u15&#45;&gt;u26 -->
<g id="edge32" class="edge">
<title>u15&#45;&gt;u26</title>
<path fill="none" stroke="black" d="M2493.71,-1318C2461.45,-1267.13 2360.36,-1112.85 2254.34,-1004 2000.46,-743.36 1635.86,-491.83 1523.56,-416.63"/>
<polygon fill="black" stroke="black" points="1525.26,-413.56 1515,-410.91 1521.37,-419.38 1525.26,-413.56"/>
</g>
<!-- u15&#45;&gt;u10 -->
<g id="edge31" class="edge">
<title>u15&#45;&gt;u10</title>
<path fill="none" stroke="black" d="M2480.97,-1318C2408.85,-1265.55 2189.67,-1106.15 2107.19,-1046.16"/>
<polygon fill="black" stroke="black" points="2108.88,-1043.06 2098.73,-1040.01 2104.76,-1048.72 2108.88,-1043.06"/>
</g>
<!-- u14&#45;&gt;u2 -->
<g id="edge26" class="edge">
<title>u14&#45;&gt;u2</title>
<path fill="none" stroke="black" d="M3197.62,-1317.78C3146.69,-1265.35 2993.44,-1107.54 2934.65,-1047"/>
<polygon fill="black" stroke="black" points="2937.12,-1044.52 2927.64,-1039.78 2932.1,-1049.4 2937.12,-1044.52"/>
</g>
<!-- u14&#45;&gt;u24 -->
<g id="edge28" class="edge">
<title>u14&#45;&gt;u24</title>
<path fill="none" stroke="black" d="M3210.05,-1317.85C3195.2,-1262.34 3140.5,-1086.42 3025.34,-1004 2801.92,-844.11 1972.2,-752.06 1634.11,-720.49"/>
<polygon fill="black" stroke="black" points="1634.29,-716.99 1624.01,-719.55 1633.64,-723.96 1634.29,-716.99"/>
</g>
<!-- u14&#45;&gt;u10 -->
<g id="edge27" class="edge">
<title>u14&#45;&gt;u10</title>
<path fill="none" stroke="black" d="M3157.47,-1319.42C2966.64,-1267.15 2349.6,-1098.13 2143.26,-1041.61"/>
<polygon fill="black" stroke="black" points="2144.03,-1038.19 2133.46,-1038.92 2142.18,-1044.94 2144.03,-1038.19"/>
</g>
<!-- u13&#45;&gt;u2 -->
<g id="edge24" class="edge">
<title>u13&#45;&gt;u2</title>
<path fill="none" stroke="black" d="M2858.43,-1317.78C2867.68,-1266.22 2895.23,-1112.74 2906.48,-1050.09"/>
<polygon fill="black" stroke="black" points="2909.94,-1050.63 2908.26,-1040.17 2903.05,-1049.39 2909.94,-1050.63"/>
</g>
<!-- u13&#45;&gt;u28 -->
<g id="edge25" class="edge">
<title>u13&#45;&gt;u28</title>
<path fill="none" stroke="black" d="M2768.44,-1320.83C2452.91,-1269.4 1368.98,-1092.71 1038.06,-1038.77"/>
<polygon fill="black" stroke="black" points="1038.45,-1035.28 1028.01,-1037.13 1037.32,-1042.19 1038.45,-1035.28"/>
</g>
<!-- u12&#45;&gt;u28 -->
<g id="edge23" class="edge">
<title>u12&#45;&gt;u28</title>
<path fill="none" stroke="black" d="M1245.57,-1317.78C1191.58,-1265.47 1029.35,-1108.28 966.55,-1047.43"/>
<polygon fill="black" stroke="black" points="968.67,-1044.61 959.05,-1040.17 963.8,-1049.64 968.67,-1044.61"/>
</g>
<!-- u12&#45;&gt;u10 -->
<g id="edge22" class="edge">
<title>u12&#45;&gt;u10</title>
<path fill="none" stroke="black" d="M1306.14,-1318.56C1443.45,-1265.8 1872.67,-1100.87 2022.83,-1043.18"/>
<polygon fill="black" stroke="black" points="2024.23,-1046.39 2032.31,-1039.53 2021.72,-1039.85 2024.23,-1046.39"/>
</g>
<!-- u11&#45;&gt;u28 -->
<g id="edge21" class="edge">
<title>u11&#45;&gt;u28</title>
<path fill="none" stroke="black" d="M941.34,-1317.78C941.34,-1266.32 941.34,-1113.37 941.34,-1050.48"/>
<polygon fill="black" stroke="black" points="944.84,-1050.17 941.34,-1040.17 937.84,-1050.17 944.84,-1050.17"/>
</g>
<!-- u11&#45;&gt;u10 -->
<g id="edge20" class="edge">
<title>u11&#45;&gt;u10</title>
<path fill="none" stroke="black" d="M997.96,-1319.42C1187.84,-1267.18 1801.56,-1098.32 2007.36,-1041.7"/>
<polygon fill="black" stroke="black" points="2008.42,-1045.04 2017.13,-1039.01 2006.56,-1038.29 2008.42,-1045.04"/>
</g>
<!-- u9&#45;&gt;u2 -->
<g id="edge17" class="edge">
<title>u9&#45;&gt;u2</title>
<path fill="none" stroke="black" d="M3503.68,-1318.23C3397.48,-1265.3 3069.62,-1101.89 2953.02,-1043.78"/>
<polygon fill="black" stroke="black" points="2954.54,-1040.62 2944.02,-1039.29 2951.41,-1046.88 2954.54,-1040.62"/>
</g>
<!-- u9&#45;&gt;u6 -->
<g id="edge18" class="edge">
<title>u9&#45;&gt;u6</title>
<path fill="none" stroke="black" d="M3518.53,-1317.86C3393.06,-1203.57 2678,-552.19 2530.82,-418.13"/>
<polygon fill="black" stroke="black" points="2532.84,-415.23 2523.09,-411.08 2528.13,-420.41 2532.84,-415.23"/>
</g>
<!-- u9&#45;&gt;u10 -->
<g id="edge19" class="edge">
<title>u9&#45;&gt;u10</title>
<path fill="none" stroke="black" d="M3465.83,-1319.74C3221.01,-1267.49 2417.25,-1095.97 2157.26,-1040.48"/>
<polygon fill="black" stroke="black" points="2157.65,-1036.99 2147.14,-1038.32 2156.19,-1043.83 2157.65,-1036.99"/>
</g>
<!-- u8&#45;&gt;u2 -->
<g id="edge15" class="edge">
<title>u8&#45;&gt;u2</title>
<path fill="none" stroke="black" d="M3814.49,-1318.99C3653.25,-1266.15 3138.52,-1097.46 2967.32,-1041.35"/>
<polygon fill="black" stroke="black" points="2968.33,-1038 2957.74,-1038.21 2966.15,-1044.65 2968.33,-1038"/>
</g>
<!-- u8&#45;&gt;u6 -->
<g id="edge16" class="edge">
<title>u8&#45;&gt;u6</title>
<path fill="none" stroke="black" d="M3838.88,-1318.07C3673.99,-1203.89 2725.38,-547.05 2536.9,-416.54"/>
<polygon fill="black" stroke="black" points="2538.71,-413.55 2528.5,-410.73 2534.73,-419.3 2538.71,-413.55"/>
</g>
<!-- u7&#45;&gt;u28 -->
<g id="edge14" class="edge">
<title>u7&#45;&gt;u28</title>
<path fill="none" stroke="black" d="M620.1,-1317.78C677.22,-1265.36 849.11,-1107.64 915.12,-1047.06"/>
<polygon fill="black" stroke="black" points="917.63,-1049.51 922.63,-1040.17 912.9,-1044.35 917.63,-1049.51"/>
</g>
<!-- u7&#45;&gt;u25 -->
<g id="edge13" class="edge">
<title>u7&#45;&gt;u25</title>
<path fill="none" stroke="black" d="M641.4,-1318.45C769.09,-1265.68 1166.37,-1101.5 1306.66,-1043.53"/>
<polygon fill="black" stroke="black" points="1308.01,-1046.76 1315.92,-1039.7 1305.34,-1040.29 1308.01,-1046.76"/>
</g>
</g>
</svg>
