<?xml version="1.0" encoding="UTF-8" standalone="no"?>
<!DOCTYPE svg PUBLIC "-//W3C//DTD SVG 1.1//EN"
 "http://www.w3.org/Graphics/SVG/1.1/DTD/svg11.dtd">
<!-- Generated by graphviz version 2.43.0 (0)
 -->
<!-- Title: G Pages: 1 -->
<svg width="431pt" height="288pt"
 viewBox="0.00 0.00 431.08 288.00" xmlns="http://www.w3.org/2000/svg" xmlns:xlink="http://www.w3.org/1999/xlink">
<g id="graph0" class="graph" transform="scale(0.25 0.25) rotate(0) translate(4 1134.67)">
<title>G</title>
<polygon fill="white" stroke="transparent" points="-4,4 -4,-1134.67 1700.37,-1134.67 1700.37,4 -4,4"/>
<!-- u7 -->
<g id="node1" class="node">
<title>u7</title>
<ellipse fill="#bbffbb" stroke="black" cx="152.09" cy="-404" rx="152.17" ry="18"/>
<text text-anchor="middle" x="152.09" y="-400.3" font-family="Times,serif" font-size="14.00">Drasil.Website.Documentation</text>
</g>
<!-- u6 -->
<g id="node2" class="node">
<title>u6</title>
<ellipse fill="#bbffbb" stroke="black" cx="461.09" cy="-404" rx="139.18" ry="18"/>
<text text-anchor="middle" x="461.09" y="-400.3" font-family="Times,serif" font-size="14.00">Drasil.Website.Introduction</text>
</g>
<!-- u5 -->
<g id="node3" class="node">
<title>u5</title>
<ellipse fill="#bbffbb" stroke="black" cx="909.09" cy="-727" rx="104.78" ry="18"/>
<text text-anchor="middle" x="909.09" y="-723.3" font-family="Times,serif" font-size="14.00">Drasil.Website.Body</text>
</g>
<!-- u5&#45;&gt;u7 -->
<g id="edge7" class="edge">
<title>u5&#45;&gt;u7</title>
<path fill="none" stroke="black" d="M871.55,-710.08C746,-656.84 340.78,-485.02 200.46,-425.51"/>
<polygon fill="black" stroke="black" points="201.78,-422.27 191.21,-421.59 199.05,-428.72 201.78,-422.27"/>
</g>
<!-- u5&#45;&gt;u6 -->
<g id="edge6" class="edge">
<title>u5&#45;&gt;u6</title>
<path fill="none" stroke="black" d="M885.94,-709.42C811.54,-656.11 578.37,-489.04 492.9,-427.8"/>
<polygon fill="black" stroke="black" points="494.8,-424.85 484.63,-421.87 490.72,-430.54 494.8,-424.85"/>
</g>
<!-- u4 -->
<g id="node4" class="node">
<title>u4</title>
<ellipse fill="#bbffbb" stroke="black" cx="770.09" cy="-404" rx="151.37" ry="18"/>
<text text-anchor="middle" x="770.09" y="-400.3" font-family="Times,serif" font-size="14.00">Drasil.Website.GettingStarted</text>
</g>
<!-- u5&#45;&gt;u4 -->
<g id="edge5" class="edge">
<title>u5&#45;&gt;u4</title>
<path fill="none" stroke="black" d="M901.61,-708.74C878.7,-655.84 809.34,-495.65 781.67,-431.74"/>
<polygon fill="black" stroke="black" points="784.78,-430.13 777.6,-422.34 778.36,-432.91 784.78,-430.13"/>
</g>
<!-- u2 -->
<g id="node6" class="node">
<title>u2</title>
<ellipse fill="#bbffbb" stroke="black" cx="1048.09" cy="-404" rx="108.58" ry="18"/>
<text text-anchor="middle" x="1048.09" y="-400.3" font-family="Times,serif" font-size="14.00">Drasil.Website.About</text>
</g>
<!-- u5&#45;&gt;u2 -->
<g id="edge4" class="edge">
<title>u5&#45;&gt;u2</title>
<path fill="none" stroke="black" d="M916.56,-708.74C939.47,-655.84 1008.83,-495.65 1036.51,-431.74"/>
<polygon fill="black" stroke="black" points="1039.81,-432.91 1040.58,-422.34 1033.39,-430.13 1039.81,-432.91"/>
</g>
<!-- u1 -->
<g id="node7" class="node">
<title>u1</title>
<ellipse fill="#bbffbb" stroke="black" cx="1295.09" cy="-404" rx="120.48" ry="18"/>
<text text-anchor="middle" x="1295.09" y="-400.3" font-family="Times,serif" font-size="14.00">Drasil.Website.Analysis</text>
</g>
<!-- u5&#45;&gt;u1 -->
<g id="edge3" class="edge">
<title>u5&#45;&gt;u1</title>
<path fill="none" stroke="black" d="M929.3,-709.19C993.37,-655.91 1192.16,-490.6 1266.58,-428.71"/>
<polygon fill="black" stroke="black" points="1269.16,-431.11 1274.61,-422.03 1264.68,-425.73 1269.16,-431.11"/>
</g>
<!-- u0 -->
<g id="node8" class="node">
<title>u0</title>
<ellipse fill="#bbffbb" stroke="black" cx="1565.09" cy="-404" rx="131.08" ry="18"/>
<text text-anchor="middle" x="1565.09" y="-400.3" font-family="Times,serif" font-size="14.00">Drasil.Website.CaseStudy</text>
</g>
<!-- u5&#45;&gt;u0 -->
<g id="edge2" class="edge">
<title>u5&#45;&gt;u0</title>
<path fill="none" stroke="black" d="M942.07,-709.86C1051.08,-656.52 1399.8,-485.88 1522.16,-426"/>
<polygon fill="black" stroke="black" points="1523.81,-429.09 1531.26,-421.55 1520.74,-422.81 1523.81,-429.09"/>
</g>
<!-- u3 -->
<g id="node5" class="node">
<title>u3</title>
<ellipse fill="#bbffbb" stroke="black" cx="1565.09" cy="-81" rx="122.38" ry="18"/>
<text text-anchor="middle" x="1565.09" y="-77.3" font-family="Times,serif" font-size="14.00">Drasil.Website.Example</text>
</g>
<!-- u0&#45;&gt;u3 -->
<g id="edge1" class="edge">
<title>u0&#45;&gt;u3</title>
<path fill="none" stroke="black" d="M1565.09,-385.74C1565.09,-333.05 1565.09,-173.96 1565.09,-109.54"/>
<polygon fill="black" stroke="black" points="1568.59,-109.34 1565.09,-99.34 1561.59,-109.34 1568.59,-109.34"/>
</g>
<!-- u8 -->
<g id="node9" class="node">
<title>u8</title>
<ellipse fill="#ffffbb" stroke="black" cx="909.09" cy="-1050" rx="122.38" ry="18"/>
<text text-anchor="middle" x="909.09" y="-1046.3" font-family="Times,serif" font-size="14.00">drasil&#45;website.app.Main</text>
</g>
<!-- u8&#45;&gt;u5 -->
<g id="edge8" class="edge">
<title>u8&#45;&gt;u5</title>
<path fill="none" stroke="black" d="M909.09,-1031.74C909.09,-979.05 909.09,-819.96 909.09,-755.54"/>
<polygon fill="black" stroke="black" points="912.59,-755.34 909.09,-745.34 905.59,-755.34 912.59,-755.34"/>
</g>
</g>
</svg>
