<?xml version="1.0" encoding="UTF-8" standalone="no"?>
<!DOCTYPE svg PUBLIC "-//W3C//DTD SVG 1.1//EN"
 "http://www.w3.org/Graphics/SVG/1.1/DTD/svg11.dtd">
<!-- Generated by graphviz version 2.43.0 (0)
 -->
<!-- Title: G Pages: 1 -->
<svg width="431pt" height="288pt"
 viewBox="0.00 0.00 431.35 288.00" xmlns="http://www.w3.org/2000/svg" xmlns:xlink="http://www.w3.org/1999/xlink">
<g id="graph0" class="graph" transform="scale(4.74 4.74) rotate(0) translate(4 1361.33)">
<title>G</title>
<polygon fill="white" stroke="transparent" points="-4,4 -4,-1361.33 2040.92,-1361.33 2040.92,4 -4,4"/>
<!-- u25 -->
<g id="node1" class="node">
<title>u25</title>
<ellipse fill="#bbffbb" stroke="black" cx="1452.04" cy="-464" rx="105.88" ry="18"/>
<text text-anchor="middle" x="1452.04" y="-460.3" font-family="Times,serif" font-size="14.00">Data.Drasil.SI_Units</text>
</g>
<!-- u19 -->
<g id="node2" class="node">
<title>u19</title>
<ellipse fill="#bbffbb" stroke="black" cx="1211.04" cy="-179" rx="108.58" ry="18"/>
<text text-anchor="middle" x="1211.04" y="-175.3" font-family="Times,serif" font-size="14.00">Data.Drasil.Citations</text>
</g>
<!-- u4 -->
<g id="node4" class="node">
<title>u4</title>
<ellipse fill="#bbffbb" stroke="black" cx="1211.04" cy="-36" rx="96.68" ry="18"/>
<text text-anchor="middle" x="1211.04" y="-32.3" font-family="Times,serif" font-size="14.00">Data.Drasil.People</text>
</g>
<!-- u19&#45;&gt;u4 -->
<g id="edge21" class="edge">
<title>u19&#45;&gt;u4</title>
<path fill="none" stroke="black" d="M1211.04,-160.99C1211.04,-136.96 1211.04,-92.81 1211.04,-64.2"/>
<polygon fill="black" stroke="black" points="1214.54,-64.07 1211.04,-54.07 1207.54,-64.07 1214.54,-64.07"/>
</g>
<!-- u18 -->
<g id="node3" class="node">
<title>u18</title>
<ellipse fill="#bbffbb" stroke="black" cx="1896.04" cy="-1322" rx="120.48" ry="18"/>
<text text-anchor="middle" x="1896.04" y="-1318.3" font-family="Times,serif" font-size="14.00">Data.Drasil.Constraints</text>
</g>
<!-- u14 -->
<g id="node5" class="node">
<title>u14</title>
<ellipse fill="#ffffbb" stroke="black" cx="154.04" cy="-750" rx="154.07" ry="18"/>
<text text-anchor="middle" x="154.04" y="-746.3" font-family="Times,serif" font-size="14.00">Data.Drasil.Concepts.Software</text>
</g>
<!-- u10 -->
<g id="node9" class="node">
<title>u10</title>
<ellipse fill="#ffffbb" stroke="black" cx="221.04" cy="-607" rx="172.47" ry="18"/>
<text text-anchor="middle" x="221.04" y="-603.3" font-family="Times,serif" font-size="14.00">Data.Drasil.Concepts.Computation</text>
</g>
<!-- u14&#45;&gt;u10 -->
<g id="edge15" class="edge">
<title>u14&#45;&gt;u10</title>
<path fill="none" stroke="black" d="M162.12,-731.99C173.64,-707.75 194.88,-663.04 208.47,-634.45"/>
<polygon fill="black" stroke="black" points="211.8,-635.6 212.93,-625.07 205.47,-632.6 211.8,-635.6"/>
</g>
<!-- u13 -->
<g id="node6" class="node">
<title>u13</title>
<ellipse fill="#ffffbb" stroke="black" cx="994.04" cy="-1036" rx="191.97" ry="18"/>
<text text-anchor="middle" x="994.04" y="-1032.3" font-family="Times,serif" font-size="14.00">Data.Drasil.Concepts.Thermodynamics</text>
</g>
<!-- u12 -->
<g id="node7" class="node">
<title>u12</title>
<ellipse fill="#ffffbb" stroke="black" cx="874.04" cy="-893" rx="147.57" ry="18"/>
<text text-anchor="middle" x="874.04" y="-889.3" font-family="Times,serif" font-size="14.00">Data.Drasil.Concepts.Physics</text>
</g>
<!-- u13&#45;&gt;u12 -->
<g id="edge14" class="edge">
<title>u13&#45;&gt;u12</title>
<path fill="none" stroke="black" d="M979.56,-1017.99C958.57,-993.33 919.54,-947.47 895.28,-918.96"/>
<polygon fill="black" stroke="black" points="897.71,-916.42 888.56,-911.07 892.38,-920.95 897.71,-916.42"/>
</g>
<!-- u6 -->
<g id="node13" class="node">
<title>u6</title>
<ellipse fill="#ffffbb" stroke="black" cx="837.04" cy="-750" rx="159.47" ry="18"/>
<text text-anchor="middle" x="837.04" y="-746.3" font-family="Times,serif" font-size="14.00">Data.Drasil.Concepts.Education</text>
</g>
<!-- u12&#45;&gt;u6 -->
<g id="edge12" class="edge">
<title>u12&#45;&gt;u6</title>
<path fill="none" stroke="black" d="M869.57,-874.99C863.24,-850.86 851.58,-806.43 844.07,-777.82"/>
<polygon fill="black" stroke="black" points="847.44,-776.85 841.52,-768.07 840.67,-778.63 847.44,-776.85"/>
</g>
<!-- u21 -->
<g id="node19" class="node">
<title>u21</title>
<ellipse fill="#ffbbbb" stroke="black" cx="1219.04" cy="-750" rx="204.96" ry="18"/>
<text text-anchor="middle" x="1219.04" y="-746.3" font-family="Times,serif" font-size="14.00">Data.Drasil.Quantities.PhysicalProperties</text>
</g>
<!-- u12&#45;&gt;u21 -->
<g id="edge13" class="edge">
<title>u12&#45;&gt;u21</title>
<path fill="none" stroke="black" d="M914.29,-875.55C977.52,-849.7 1100.02,-799.64 1168.89,-771.49"/>
<polygon fill="black" stroke="black" points="1170.31,-774.7 1178.24,-767.67 1167.66,-768.22 1170.31,-774.7"/>
</g>
<!-- u11 -->
<g id="node8" class="node">
<title>u11</title>
<ellipse fill="#ffffbb" stroke="black" cx="600.04" cy="-1036" rx="184.67" ry="18"/>
<text text-anchor="middle" x="600.04" y="-1032.3" font-family="Times,serif" font-size="14.00">Data.Drasil.Concepts.SolidMechanics</text>
</g>
<!-- u11&#45;&gt;u12 -->
<g id="edge11" class="edge">
<title>u11&#45;&gt;u12</title>
<path fill="none" stroke="black" d="M632.54,-1018.27C682.39,-992.62 777.69,-943.58 832.48,-915.38"/>
<polygon fill="black" stroke="black" points="834.28,-918.39 841.57,-910.71 831.08,-912.17 834.28,-918.39"/>
</g>
<!-- u9 -->
<g id="node10" class="node">
<title>u9</title>
<ellipse fill="#ffffbb" stroke="black" cx="839.04" cy="-464" rx="182.77" ry="18"/>
<text text-anchor="middle" x="839.04" y="-460.3" font-family="Times,serif" font-size="14.00">Data.Drasil.Concepts.Documentation</text>
</g>
<!-- u10&#45;&gt;u9 -->
<g id="edge10" class="edge">
<title>u10&#45;&gt;u9</title>
<path fill="none" stroke="black" d="M289.24,-590.44C404.65,-564.11 637.82,-510.91 760.11,-483.01"/>
<polygon fill="black" stroke="black" points="761.18,-486.35 770.15,-480.72 759.63,-479.53 761.18,-486.35"/>
</g>
<!-- u7 -->
<g id="node12" class="node">
<title>u7</title>
<ellipse fill="#ffffbb" stroke="black" cx="1211.04" cy="-321" rx="136.48" ry="18"/>
<text text-anchor="middle" x="1211.04" y="-317.3" font-family="Times,serif" font-size="14.00">Data.Drasil.Concepts.Math</text>
</g>
<!-- u9&#45;&gt;u7 -->
<g id="edge9" class="edge">
<title>u9&#45;&gt;u7</title>
<path fill="none" stroke="black" d="M882.8,-446.41C951.64,-420.32 1084.94,-369.79 1158.73,-341.83"/>
<polygon fill="black" stroke="black" points="1160.19,-345.02 1168.3,-338.2 1157.7,-338.47 1160.19,-345.02"/>
</g>
<!-- u8 -->
<g id="node11" class="node">
<title>u8</title>
<ellipse fill="#ffffbb" stroke="black" cx="839.04" cy="-607" rx="199.56" ry="18"/>
<text text-anchor="middle" x="839.04" y="-603.3" font-family="Times,serif" font-size="14.00">Data.Drasil.Concepts.PhysicalProperties</text>
</g>
<!-- u8&#45;&gt;u9 -->
<g id="edge8" class="edge">
<title>u8&#45;&gt;u9</title>
<path fill="none" stroke="black" d="M839.04,-588.99C839.04,-564.96 839.04,-520.81 839.04,-492.2"/>
<polygon fill="black" stroke="black" points="842.54,-492.07 839.04,-482.07 835.54,-492.07 842.54,-492.07"/>
</g>
<!-- u7&#45;&gt;u19 -->
<g id="edge7" class="edge">
<title>u7&#45;&gt;u19</title>
<path fill="none" stroke="black" d="M1211.04,-302.83C1211.04,-279.01 1211.04,-235.66 1211.04,-207.35"/>
<polygon fill="black" stroke="black" points="1214.54,-207.31 1211.04,-197.31 1207.54,-207.31 1214.54,-207.31"/>
</g>
<!-- u6&#45;&gt;u8 -->
<g id="edge6" class="edge">
<title>u6&#45;&gt;u8</title>
<path fill="none" stroke="black" d="M837.28,-731.99C837.62,-707.96 838.24,-663.81 838.65,-635.2"/>
<polygon fill="black" stroke="black" points="842.15,-635.12 838.79,-625.07 835.15,-635.02 842.15,-635.12"/>
</g>
<!-- u16 -->
<g id="node14" class="node">
<title>u16</title>
<ellipse fill="#bbbbff" stroke="black" cx="1825.04" cy="-1179" rx="211.76" ry="18"/>
<text text-anchor="middle" x="1825.04" y="-1175.3" font-family="Times,serif" font-size="14.00">Data.Drasil.Equations.Defining.Derivations</text>
</g>
<!-- u23 -->
<g id="node17" class="node">
<title>u23</title>
<ellipse fill="#ffbbbb" stroke="black" cx="1494.04" cy="-1036" rx="152.97" ry="18"/>
<text text-anchor="middle" x="1494.04" y="-1032.3" font-family="Times,serif" font-size="14.00">Data.Drasil.Quantities.Physics</text>
</g>
<!-- u16&#45;&gt;u23 -->
<g id="edge18" class="edge">
<title>u16&#45;&gt;u23</title>
<path fill="none" stroke="black" d="M1785.77,-1161.27C1724.89,-1135.34 1607.9,-1085.5 1542.07,-1057.46"/>
<polygon fill="black" stroke="black" points="1543.31,-1054.19 1532.74,-1053.49 1540.57,-1060.63 1543.31,-1054.19"/>
</g>
<!-- u20 -->
<g id="node20" class="node">
<title>u20</title>
<ellipse fill="#ffbbbb" stroke="black" cx="1660.04" cy="-607" rx="141.88" ry="18"/>
<text text-anchor="middle" x="1660.04" y="-603.3" font-family="Times,serif" font-size="14.00">Data.Drasil.Quantities.Math</text>
</g>
<!-- u16&#45;&gt;u20 -->
<g id="edge17" class="edge">
<title>u16&#45;&gt;u20</title>
<path fill="none" stroke="black" d="M1820.1,-1160.94C1796.66,-1079.98 1696.6,-734.3 1667.81,-634.86"/>
<polygon fill="black" stroke="black" points="1671.1,-633.62 1664.96,-624.99 1664.37,-635.57 1671.1,-633.62"/>
</g>
<!-- u15 -->
<g id="node15" class="node">
<title>u15</title>
<ellipse fill="#bbbbff" stroke="black" cx="1402.04" cy="-1179" rx="193.07" ry="18"/>
<text text-anchor="middle" x="1402.04" y="-1175.3" font-family="Times,serif" font-size="14.00">Data.Drasil.Equations.Defining.Physics</text>
</g>
<!-- u15&#45;&gt;u23 -->
<g id="edge16" class="edge">
<title>u15&#45;&gt;u23</title>
<path fill="none" stroke="black" d="M1413.13,-1160.99C1429.09,-1136.54 1458.64,-1091.25 1477.27,-1062.7"/>
<polygon fill="black" stroke="black" points="1480.37,-1064.36 1482.9,-1054.07 1474.5,-1060.53 1480.37,-1064.36"/>
</g>
<!-- u24 -->
<g id="node16" class="node">
<title>u24</title>
<ellipse fill="#ffbbbb" stroke="black" cx="994.04" cy="-1179" rx="196.87" ry="18"/>
<text text-anchor="middle" x="994.04" y="-1175.3" font-family="Times,serif" font-size="14.00">Data.Drasil.Quantities.Thermodynamics</text>
</g>
<!-- u24&#45;&gt;u13 -->
<g id="edge31" class="edge">
<title>u24&#45;&gt;u13</title>
<path fill="none" stroke="black" d="M994.04,-1160.99C994.04,-1136.96 994.04,-1092.81 994.04,-1064.2"/>
<polygon fill="black" stroke="black" points="997.54,-1064.07 994.04,-1054.07 990.54,-1064.07 997.54,-1064.07"/>
</g>
<!-- u3 -->
<g id="node23" class="node">
<title>u3</title>
<ellipse fill="#77ff77" stroke="black" cx="1214.04" cy="-893" rx="174.37" ry="18"/>
<text text-anchor="middle" x="1214.04" y="-889.3" font-family="Times,serif" font-size="14.00">Data.Drasil.Units.Thermodynamics</text>
</g>
<!-- u24&#45;&gt;u3 -->
<g id="edge30" class="edge">
<title>u24&#45;&gt;u3</title>
<path fill="none" stroke="black" d="M1044.08,-1161.58C1091.35,-1143.26 1160.07,-1108.78 1195.04,-1054 1220.84,-1013.58 1220.6,-955.53 1217.63,-921.6"/>
<polygon fill="black" stroke="black" points="1221.1,-921.08 1216.6,-911.49 1214.13,-921.79 1221.1,-921.08"/>
</g>
<!-- u23&#45;&gt;u12 -->
<g id="edge29" class="edge">
<title>u23&#45;&gt;u12</title>
<path fill="none" stroke="black" d="M1427.1,-1019.78C1311.06,-993.39 1073.26,-939.31 950.75,-911.45"/>
<polygon fill="black" stroke="black" points="951.22,-907.96 940.7,-909.16 949.67,-914.79 951.22,-907.96"/>
</g>
<!-- u2 -->
<g id="node24" class="node">
<title>u2</title>
<ellipse fill="#77ff77" stroke="black" cx="1536.04" cy="-893" rx="129.98" ry="18"/>
<text text-anchor="middle" x="1536.04" y="-889.3" font-family="Times,serif" font-size="14.00">Data.Drasil.Units.Physics</text>
</g>
<!-- u23&#45;&gt;u2 -->
<g id="edge28" class="edge">
<title>u23&#45;&gt;u2</title>
<path fill="none" stroke="black" d="M1499.1,-1017.99C1506.29,-993.86 1519.53,-949.43 1528.05,-920.82"/>
<polygon fill="black" stroke="black" points="1531.45,-921.65 1530.95,-911.07 1524.74,-919.65 1531.45,-921.65"/>
</g>
<!-- u22 -->
<g id="node18" class="node">
<title>u22</title>
<ellipse fill="#ffbbbb" stroke="black" cx="488.04" cy="-1179" rx="190.37" ry="18"/>
<text text-anchor="middle" x="488.04" y="-1175.3" font-family="Times,serif" font-size="14.00">Data.Drasil.Quantities.SolidMechanics</text>
</g>
<!-- u22&#45;&gt;u11 -->
<g id="edge27" class="edge">
<title>u22&#45;&gt;u11</title>
<path fill="none" stroke="black" d="M501.55,-1160.99C521.14,-1136.33 557.57,-1090.47 580.21,-1061.96"/>
<polygon fill="black" stroke="black" points="583,-1064.08 586.48,-1054.07 577.52,-1059.72 583,-1064.08"/>
</g>
<!-- u1 -->
<g id="node25" class="node">
<title>u1</title>
<ellipse fill="#77ff77" stroke="black" cx="493.04" cy="-750" rx="167.07" ry="18"/>
<text text-anchor="middle" x="493.04" y="-746.3" font-family="Times,serif" font-size="14.00">Data.Drasil.Units.SolidMechanics</text>
</g>
<!-- u22&#45;&gt;u1 -->
<g id="edge26" class="edge">
<title>u22&#45;&gt;u1</title>
<path fill="none" stroke="black" d="M471.82,-1160.83C451.82,-1138.35 418.9,-1096.76 406.04,-1054 375.26,-951.65 442.06,-829.14 475.48,-776.78"/>
<polygon fill="black" stroke="black" points="478.59,-778.42 481.11,-768.13 472.72,-774.6 478.59,-778.42"/>
</g>
<!-- u21&#45;&gt;u8 -->
<g id="edge25" class="edge">
<title>u21&#45;&gt;u8</title>
<path fill="none" stroke="black" d="M1174.33,-732.41C1104.39,-706.46 969.29,-656.33 893.68,-628.28"/>
<polygon fill="black" stroke="black" points="894.46,-624.83 883.87,-624.64 892.03,-631.4 894.46,-624.83"/>
</g>
<!-- u0 -->
<g id="node26" class="node">
<title>u0</title>
<ellipse fill="#77ff77" stroke="black" cx="1241.04" cy="-607" rx="181.97" ry="18"/>
<text text-anchor="middle" x="1241.04" y="-603.3" font-family="Times,serif" font-size="14.00">Data.Drasil.Units.PhysicalProperties</text>
</g>
<!-- u21&#45;&gt;u0 -->
<g id="edge24" class="edge">
<title>u21&#45;&gt;u0</title>
<path fill="none" stroke="black" d="M1221.69,-731.99C1225.44,-707.96 1232.33,-663.81 1236.79,-635.2"/>
<polygon fill="black" stroke="black" points="1240.29,-635.49 1238.37,-625.07 1233.37,-634.41 1240.29,-635.49"/>
</g>
<!-- u20&#45;&gt;u25 -->
<g id="edge23" class="edge">
<title>u20&#45;&gt;u25</title>
<path fill="none" stroke="black" d="M1635.36,-589.27C1597.99,-563.94 1526.97,-515.79 1485.14,-487.44"/>
<polygon fill="black" stroke="black" points="1486.92,-484.42 1476.68,-481.71 1482.99,-490.21 1486.92,-484.42"/>
</g>
<!-- u20&#45;&gt;u7 -->
<g id="edge22" class="edge">
<title>u20&#45;&gt;u7</title>
<path fill="none" stroke="black" d="M1654.6,-588.87C1643.44,-556.36 1614.87,-485.46 1567.04,-446 1492.63,-384.62 1385.9,-352.82 1308.73,-336.88"/>
<polygon fill="black" stroke="black" points="1309.01,-333.36 1298.52,-334.82 1307.63,-340.23 1309.01,-333.36"/>
</g>
<!-- u5 -->
<g id="node21" class="node">
<title>u5</title>
<ellipse fill="#bbffff" stroke="black" cx="154.04" cy="-893" rx="152.97" ry="18"/>
<text text-anchor="middle" x="154.04" y="-889.3" font-family="Times,serif" font-size="14.00">Data.Drasil.Software.Products</text>
</g>
<!-- u5&#45;&gt;u14 -->
<g id="edge5" class="edge">
<title>u5&#45;&gt;u14</title>
<path fill="none" stroke="black" d="M154.04,-874.99C154.04,-850.96 154.04,-806.81 154.04,-778.2"/>
<polygon fill="black" stroke="black" points="157.54,-778.07 154.04,-768.07 150.54,-778.07 157.54,-778.07"/>
</g>
<!-- u17 -->
<g id="node22" class="node">
<title>u17</title>
<ellipse fill="#ffbbff" stroke="black" cx="1613.04" cy="-1322" rx="144.07" ry="18"/>
<text text-anchor="middle" x="1613.04" y="-1318.3" font-family="Times,serif" font-size="14.00">Data.Drasil.Theories.Physics</text>
</g>
<!-- u17&#45;&gt;u16 -->
<g id="edge20" class="edge">
<title>u17&#45;&gt;u16</title>
<path fill="none" stroke="black" d="M1638.19,-1304.27C1676.26,-1278.95 1748.58,-1230.85 1791.22,-1202.49"/>
<polygon fill="black" stroke="black" points="1793.2,-1205.38 1799.59,-1196.93 1789.32,-1199.55 1793.2,-1205.38"/>
</g>
<!-- u17&#45;&gt;u15 -->
<g id="edge19" class="edge">
<title>u17&#45;&gt;u15</title>
<path fill="none" stroke="black" d="M1588,-1304.27C1550.11,-1278.95 1478.13,-1230.85 1435.69,-1202.49"/>
<polygon fill="black" stroke="black" points="1437.62,-1199.57 1427.36,-1196.93 1433.73,-1205.39 1437.62,-1199.57"/>
</g>
<!-- u3&#45;&gt;u25 -->
<g id="edge4" class="edge">
<title>u3&#45;&gt;u25</title>
<path fill="none" stroke="black" d="M1272.88,-876.05C1324.64,-858.65 1397.17,-825.32 1433.04,-768 1488.06,-680.06 1469.71,-548.24 1458.28,-492"/>
<polygon fill="black" stroke="black" points="1461.68,-491.15 1456.18,-482.09 1454.83,-492.6 1461.68,-491.15"/>
</g>
<!-- u2&#45;&gt;u25 -->
<g id="edge3" class="edge">
<title>u2&#45;&gt;u25</title>
<path fill="none" stroke="black" d="M1532.69,-875C1519.78,-809.38 1473.15,-572.33 1457.33,-491.91"/>
<polygon fill="black" stroke="black" points="1460.76,-491.19 1455.39,-482.05 1453.89,-492.54 1460.76,-491.19"/>
</g>
<!-- u1&#45;&gt;u25 -->
<g id="edge2" class="edge">
<title>u1&#45;&gt;u25</title>
<path fill="none" stroke="black" d="M502.04,-731.97C520.82,-698.31 567.67,-623.58 630.04,-589 750.86,-522.02 1150.7,-485.87 1344.65,-471.9"/>
<polygon fill="black" stroke="black" points="1345.14,-475.37 1354.86,-471.17 1344.64,-468.39 1345.14,-475.37"/>
</g>
<!-- u0&#45;&gt;u25 -->
<g id="edge1" class="edge">
<title>u0&#45;&gt;u25</title>
<path fill="none" stroke="black" d="M1266.49,-588.99C1304.55,-563.55 1376.35,-515.58 1418.6,-487.34"/>
<polygon fill="black" stroke="black" points="1420.78,-490.1 1427.15,-481.63 1416.89,-484.28 1420.78,-490.1"/>
</g>
</g>
</svg>
