<?xml version="1.0" encoding="UTF-8" standalone="no"?>
<!DOCTYPE svg PUBLIC "-//W3C//DTD SVG 1.1//EN"
 "http://www.w3.org/Graphics/SVG/1.1/DTD/svg11.dtd">
<!-- Generated by graphviz version 2.43.0 (0)
 -->
<!-- Title: G Pages: 1 -->
<svg width="432pt" height="287pt"
 viewBox="0.00 0.00 432.00 286.91" xmlns="http://www.w3.org/2000/svg" xmlns:xlink="http://www.w3.org/1999/xlink">
<g id="graph0" class="graph" transform="scale(0.07 0.07) rotate(0) translate(4 4290)">
<title>G</title>
<polygon fill="white" stroke="transparent" points="-4,4 -4,-4290 6461.54,-4290 6461.54,4 -4,4"/>
<!-- u59 -->
<g id="node1" class="node">
<title>u59</title>
<ellipse fill="#bbffbb" stroke="black" cx="261.54" cy="-3940" rx="52.79" ry="18"/>
<text text-anchor="middle" x="261.54" y="-3936.3" font-family="Times,serif" font-size="14.00">FileTests</text>
</g>
<!-- u58 -->
<g id="node2" class="node">
<title>u58</title>
<ellipse fill="#bbffbb" stroke="black" cx="471.54" cy="-3664" rx="42.49" ry="18"/>
<text text-anchor="middle" x="471.54" y="-3660.3" font-family="Times,serif" font-size="14.00">Helper</text>
</g>
<!-- u57 -->
<g id="node3" class="node">
<title>u57</title>
<ellipse fill="#bbffbb" stroke="black" cx="408.54" cy="-3940" rx="76.09" ry="18"/>
<text text-anchor="middle" x="408.54" y="-3936.3" font-family="Times,serif" font-size="14.00">NameGenTest</text>
</g>
<!-- u54 -->
<g id="node4" class="node">
<title>u54</title>
<ellipse fill="#bbffbb" stroke="black" cx="562.54" cy="-3940" rx="59.59" ry="18"/>
<text text-anchor="middle" x="562.54" y="-3936.3" font-family="Times,serif" font-size="14.00">VectorTest</text>
</g>
<!-- u53 -->
<g id="node5" class="node">
<title>u53</title>
<ellipse fill="#bbffbb" stroke="black" cx="702.54" cy="-3940" rx="62.29" ry="18"/>
<text text-anchor="middle" x="702.54" y="-3936.3" font-family="Times,serif" font-size="14.00">HelloWorld</text>
</g>
<!-- u53&#45;&gt;u58 -->
<g id="edge90" class="edge">
<title>u53&#45;&gt;u58</title>
<path fill="none" stroke="black" d="M688.44,-3922.27C649.03,-3875.52 537.62,-3743.37 491.7,-3688.91"/>
<polygon fill="black" stroke="black" points="494.29,-3686.55 485.17,-3681.16 488.94,-3691.07 494.29,-3686.55"/>
</g>
<!-- u52 -->
<g id="node6" class="node">
<title>u52</title>
<ellipse fill="#ffffbb" stroke="black" cx="2402.54" cy="-4217" rx="214.46" ry="18"/>
<text text-anchor="middle" x="2402.54" y="-4213.3" font-family="Times,serif" font-size="14.00">Data.Drasil.ExternalLibraries.ODELibraries</text>
</g>
<!-- u2 -->
<g id="node12" class="node">
<title>u2</title>
<ellipse fill="#ffbbbb" stroke="black" cx="2402.54" cy="-3940" rx="113.18" ry="18"/>
<text text-anchor="middle" x="2402.54" y="-3936.3" font-family="Times,serif" font-size="14.00">Language.Drasil.Code</text>
</g>
<!-- u52&#45;&gt;u2 -->
<g id="edge89" class="edge">
<title>u52&#45;&gt;u2</title>
<path fill="none" stroke="black" d="M2402.54,-4198.8C2402.54,-4152.5 2402.54,-4024.94 2402.54,-3968.49"/>
<polygon fill="black" stroke="black" points="2406.04,-3968.2 2402.54,-3958.2 2399.04,-3968.2 2406.04,-3968.2"/>
</g>
<!-- u56 -->
<g id="node7" class="node">
<title>u56</title>
<ellipse fill="#bbbbff" stroke="black" cx="95.54" cy="-3664" rx="84.49" ry="18"/>
<text text-anchor="middle" x="95.54" y="-3660.3" font-family="Times,serif" font-size="14.00">GOOL.Observer</text>
</g>
<!-- u55 -->
<g id="node8" class="node">
<title>u55</title>
<ellipse fill="#bbbbff" stroke="black" cx="95.54" cy="-3940" rx="95.58" ry="18"/>
<text text-anchor="middle" x="95.54" y="-3936.3" font-family="Times,serif" font-size="14.00">GOOL.PatternTest</text>
</g>
<!-- u55&#45;&gt;u56 -->
<g id="edge91" class="edge">
<title>u55&#45;&gt;u56</title>
<path fill="none" stroke="black" d="M95.54,-3921.86C95.54,-3875.73 95.54,-3748.64 95.54,-3692.39"/>
<polygon fill="black" stroke="black" points="99.04,-3692.13 95.54,-3682.13 92.04,-3692.13 99.04,-3692.13"/>
</g>
<!-- u51 -->
<g id="node9" class="node">
<title>u51</title>
<ellipse fill="#ffbbbb" stroke="black" cx="5021.54" cy="-2005" rx="135.68" ry="18"/>
<text text-anchor="middle" x="5021.54" y="-2001.3" font-family="Times,serif" font-size="14.00">Language.Drasil.CodeSpec</text>
</g>
<!-- u3 -->
<g id="node11" class="node">
<title>u3</title>
<ellipse fill="#ffbbbb" stroke="black" cx="4587.54" cy="-1728" rx="126.18" ry="18"/>
<text text-anchor="middle" x="4587.54" y="-1724.3" font-family="Times,serif" font-size="14.00">Language.Drasil.Choices</text>
</g>
<!-- u51&#45;&gt;u3 -->
<g id="edge86" class="edge">
<title>u51&#45;&gt;u3</title>
<path fill="none" stroke="black" d="M4995.05,-1987.21C4920.13,-1939.74 4706.72,-1804.52 4622.42,-1751.1"/>
<polygon fill="black" stroke="black" points="4624.29,-1748.14 4613.97,-1745.74 4620.54,-1754.05 4624.29,-1748.14"/>
</g>
<!-- u48 -->
<g id="node15" class="node">
<title>u48</title>
<ellipse fill="#bbffff" stroke="black" cx="5324.54" cy="-1728" rx="191.17" ry="18"/>
<text text-anchor="middle" x="5324.54" y="-1724.3" font-family="Times,serif" font-size="14.00">Language.Drasil.Chunk.CodeDefinition</text>
</g>
<!-- u51&#45;&gt;u48 -->
<g id="edge88" class="edge">
<title>u51&#45;&gt;u48</title>
<path fill="none" stroke="black" d="M5040.5,-1986.8C5092.57,-1939.53 5237.95,-1807.59 5298.03,-1753.06"/>
<polygon fill="black" stroke="black" points="5300.54,-1755.51 5305.59,-1746.2 5295.84,-1750.32 5300.54,-1755.51"/>
</g>
<!-- u47 -->
<g id="node16" class="node">
<title>u47</title>
<ellipse fill="#bbffff" stroke="black" cx="4923.54" cy="-1728" rx="192.27" ry="18"/>
<text text-anchor="middle" x="4923.54" y="-1724.3" font-family="Times,serif" font-size="14.00">Language.Drasil.Chunk.ConstraintMap</text>
</g>
<!-- u51&#45;&gt;u47 -->
<g id="edge87" class="edge">
<title>u51&#45;&gt;u47</title>
<path fill="none" stroke="black" d="M5015.41,-1986.8C4998.84,-1940.3 4953.08,-1811.88 4933.09,-1755.79"/>
<polygon fill="black" stroke="black" points="4936.32,-1754.44 4929.67,-1746.2 4929.73,-1756.79 4936.32,-1754.44"/>
</g>
<!-- u44 -->
<g id="node10" class="node">
<title>u44</title>
<ellipse fill="#ffbbbb" stroke="black" cx="5196.54" cy="-899" rx="110.48" ry="18"/>
<text text-anchor="middle" x="5196.54" y="-895.3" font-family="Times,serif" font-size="14.00">Language.Drasil.Mod</text>
</g>
<!-- u50 -->
<g id="node13" class="node">
<title>u50</title>
<ellipse fill="#bbffff" stroke="black" cx="4801.54" cy="-622" rx="170.87" ry="18"/>
<text text-anchor="middle" x="4801.54" y="-618.3" font-family="Times,serif" font-size="14.00">Language.Drasil.Chunk.Parameter</text>
</g>
<!-- u44&#45;&gt;u50 -->
<g id="edge82" class="edge">
<title>u44&#45;&gt;u50</title>
<path fill="none" stroke="black" d="M5172.72,-881.42C5105.11,-834.34 4911.88,-699.82 4834.33,-645.83"/>
<polygon fill="black" stroke="black" points="4836.1,-642.8 4825.89,-639.95 4832.1,-648.54 4836.1,-642.8"/>
</g>
<!-- u5 -->
<g id="node25" class="node">
<title>u5</title>
<ellipse fill="#ffbbff" stroke="black" cx="4113.54" cy="-622" rx="160.57" ry="18"/>
<text text-anchor="middle" x="4113.54" y="-618.3" font-family="Times,serif" font-size="14.00">Language.Drasil.Code.DataDesc</text>
</g>
<!-- u44&#45;&gt;u5 -->
<g id="edge81" class="edge">
<title>u44&#45;&gt;u5</title>
<path fill="none" stroke="black" d="M5139.46,-883.51C4956.8,-837.13 4386.85,-692.4 4185.16,-641.18"/>
<polygon fill="black" stroke="black" points="4185.81,-637.74 4175.26,-638.67 4184.09,-644.53 4185.81,-637.74"/>
</g>
<!-- u4 -->
<g id="node26" class="node">
<title>u4</title>
<ellipse fill="#ffbbff" stroke="black" cx="4302.54" cy="-1452" rx="139.98" ry="18"/>
<text text-anchor="middle" x="4302.54" y="-1448.3" font-family="Times,serif" font-size="14.00">Language.Drasil.Code.Code</text>
</g>
<!-- u3&#45;&gt;u4 -->
<g id="edge15" class="edge">
<title>u3&#45;&gt;u4</title>
<path fill="none" stroke="black" d="M4569.71,-1709.86C4520.83,-1662.86 4384.55,-1531.84 4327.82,-1477.3"/>
<polygon fill="black" stroke="black" points="4330,-1474.54 4320.36,-1470.13 4325.15,-1479.59 4330,-1474.54"/>
</g>
<!-- u0 -->
<g id="node60" class="node">
<title>u0</title>
<ellipse fill="#bbff77" stroke="black" cx="4683.54" cy="-1452" rx="172.77" ry="18"/>
<text text-anchor="middle" x="4683.54" y="-1448.3" font-family="Times,serif" font-size="14.00">Language.Drasil.Data.ODELibPckg</text>
</g>
<!-- u3&#45;&gt;u0 -->
<g id="edge14" class="edge">
<title>u3&#45;&gt;u0</title>
<path fill="none" stroke="black" d="M4593.55,-1709.86C4609.78,-1663.54 4654.61,-1535.58 4674.19,-1479.69"/>
<polygon fill="black" stroke="black" points="4677.54,-1480.73 4677.54,-1470.13 4670.93,-1478.41 4677.54,-1480.73"/>
</g>
<!-- u38 -->
<g id="node31" class="node">
<title>u38</title>
<ellipse fill="#77ff77" stroke="black" cx="5519.54" cy="-3664" rx="217.16" ry="18"/>
<text text-anchor="middle" x="5519.54" y="-3660.3" font-family="Times,serif" font-size="14.00">Language.Drasil.Code.Imperative.Generator</text>
</g>
<!-- u2&#45;&gt;u38 -->
<g id="edge13" class="edge">
<title>u2&#45;&gt;u38</title>
<path fill="none" stroke="black" d="M2498.81,-3930.54C2945.35,-3891.28 4816.3,-3726.82 5366.65,-3678.44"/>
<polygon fill="black" stroke="black" points="5366.98,-3681.92 5376.63,-3677.56 5366.37,-3674.95 5366.98,-3681.92"/>
</g>
<!-- u22 -->
<g id="node36" class="node">
<title>u22</title>
<ellipse fill="#77ff77" stroke="black" cx="3351.54" cy="-2281" rx="217.96" ry="18"/>
<text text-anchor="middle" x="3351.54" y="-2277.3" font-family="Times,serif" font-size="14.00">Language.Drasil.Code.Imperative.ReadInput</text>
</g>
<!-- u2&#45;&gt;u22 -->
<g id="edge6" class="edge">
<title>u2&#45;&gt;u22</title>
<path fill="none" stroke="black" d="M2302.82,-3931.39C1916.72,-3899.25 541.54,-3758.75 541.54,-3388 541.54,-3388 541.54,-3388 541.54,-2833 541.54,-2559.86 2612.41,-2349.62 3198.61,-2295.57"/>
<polygon fill="black" stroke="black" points="3199.18,-2299.04 3208.82,-2294.63 3198.54,-2292.07 3199.18,-2299.04"/>
</g>
<!-- u35 -->
<g id="node50" class="node">
<title>u35</title>
<ellipse fill="#77ffff" stroke="black" cx="3128.54" cy="-3387" rx="352.84" ry="18"/>
<text text-anchor="middle" x="3128.54" y="-3383.3" font-family="Times,serif" font-size="14.00">Language.Drasil.Code.Imperative.GOOL.LanguageRenderer.CppRenderer</text>
</g>
<!-- u2&#45;&gt;u35 -->
<g id="edge12" class="edge">
<title>u2&#45;&gt;u35</title>
<path fill="none" stroke="black" d="M2424.67,-3922.21C2529.45,-3842.69 2975.76,-3503.95 3097.67,-3411.43"/>
<polygon fill="black" stroke="black" points="3100.02,-3414.04 3105.87,-3405.2 3095.79,-3408.46 3100.02,-3414.04"/>
</g>
<!-- u34 -->
<g id="node51" class="node">
<title>u34</title>
<ellipse fill="#77ffff" stroke="black" cx="3858.54" cy="-3387" rx="358.54" ry="18"/>
<text text-anchor="middle" x="3858.54" y="-3383.3" font-family="Times,serif" font-size="14.00">Language.Drasil.Code.Imperative.GOOL.LanguageRenderer.SwiftRenderer</text>
</g>
<!-- u2&#45;&gt;u34 -->
<g id="edge11" class="edge">
<title>u2&#45;&gt;u34</title>
<path fill="none" stroke="black" d="M2444.16,-3923.25C2651.26,-3844.87 3570.18,-3497.13 3804.18,-3408.57"/>
<polygon fill="black" stroke="black" points="3805.72,-3411.73 3813.83,-3404.92 3803.24,-3405.18 3805.72,-3411.73"/>
</g>
<!-- u33 -->
<g id="node52" class="node">
<title>u33</title>
<ellipse fill="#77ffff" stroke="black" cx="4604.54" cy="-3387" rx="369.33" ry="18"/>
<text text-anchor="middle" x="4604.54" y="-3383.3" font-family="Times,serif" font-size="14.00">Language.Drasil.Code.Imperative.GOOL.LanguageRenderer.CSharpRenderer</text>
</g>
<!-- u2&#45;&gt;u33 -->
<g id="edge10" class="edge">
<title>u2&#45;&gt;u33</title>
<path fill="none" stroke="black" d="M2460.59,-3924.47C2765.5,-3848.18 4181.06,-3493.97 4527.75,-3407.22"/>
<polygon fill="black" stroke="black" points="4528.84,-3410.55 4537.69,-3404.73 4527.14,-3403.76 4528.84,-3410.55"/>
</g>
<!-- u32 -->
<g id="node53" class="node">
<title>u32</title>
<ellipse fill="#77ffff" stroke="black" cx="923.54" cy="-3387" rx="354.44" ry="18"/>
<text text-anchor="middle" x="923.54" y="-3383.3" font-family="Times,serif" font-size="14.00">Language.Drasil.Code.Imperative.GOOL.LanguageRenderer.JavaRenderer</text>
</g>
<!-- u2&#45;&gt;u32 -->
<g id="edge9" class="edge">
<title>u2&#45;&gt;u32</title>
<path fill="none" stroke="black" d="M2360.27,-3923.25C2149.78,-3844.84 1215.54,-3496.78 978.41,-3408.44"/>
<polygon fill="black" stroke="black" points="979.55,-3405.13 968.96,-3404.92 977.1,-3411.69 979.55,-3405.13"/>
</g>
<!-- u31 -->
<g id="node54" class="node">
<title>u31</title>
<ellipse fill="#77ffff" stroke="black" cx="1662.54" cy="-3387" rx="367.43" ry="18"/>
<text text-anchor="middle" x="1662.54" y="-3383.3" font-family="Times,serif" font-size="14.00">Language.Drasil.Code.Imperative.GOOL.LanguageRenderer.PythonRenderer</text>
</g>
<!-- u2&#45;&gt;u31 -->
<g id="edge8" class="edge">
<title>u2&#45;&gt;u31</title>
<path fill="none" stroke="black" d="M2379.99,-3922.21C2273.19,-3842.69 1818.27,-3503.95 1694.01,-3411.43"/>
<polygon fill="black" stroke="black" points="1695.76,-3408.37 1685.65,-3405.2 1691.58,-3413.98 1695.76,-3408.37"/>
</g>
<!-- u30 -->
<g id="node55" class="node">
<title>u30</title>
<ellipse fill="#77ffff" stroke="black" cx="2402.54" cy="-3387" rx="354.74" ry="18"/>
<text text-anchor="middle" x="2402.54" y="-3383.3" font-family="Times,serif" font-size="14.00">Language.Drasil.Code.Imperative.GOOL.LanguageRenderer.JuliaRenderer</text>
</g>
<!-- u2&#45;&gt;u30 -->
<g id="edge7" class="edge">
<title>u2&#45;&gt;u30</title>
<path fill="none" stroke="black" d="M2402.54,-3921.91C2402.54,-3842.94 2402.54,-3513.13 2402.54,-3415.4"/>
<polygon fill="black" stroke="black" points="2406.04,-3415.17 2402.54,-3405.17 2399.04,-3415.17 2406.04,-3415.17"/>
</g>
<!-- u46 -->
<g id="node17" class="node">
<title>u46</title>
<ellipse fill="#bbffff" stroke="black" cx="4372.54" cy="-346" rx="145.67" ry="18"/>
<text text-anchor="middle" x="4372.54" y="-342.3" font-family="Times,serif" font-size="14.00">Language.Drasil.Chunk.Code</text>
</g>
<!-- u50&#45;&gt;u46 -->
<g id="edge85" class="edge">
<title>u50&#45;&gt;u46</title>
<path fill="none" stroke="black" d="M4775.03,-604.07C4700.83,-556.67 4491.03,-422.68 4407.49,-369.32"/>
<polygon fill="black" stroke="black" points="4409.19,-366.25 4398.88,-363.82 4405.42,-372.15 4409.19,-366.25"/>
</g>
<!-- u49 -->
<g id="node14" class="node">
<title>u49</title>
<ellipse fill="#bbffff" stroke="black" cx="4865.54" cy="-899" rx="202.26" ry="18"/>
<text text-anchor="middle" x="4865.54" y="-895.3" font-family="Times,serif" font-size="14.00">Language.Drasil.Chunk.NamedArgument</text>
</g>
<!-- u1 -->
<g id="node59" class="node">
<title>u1</title>
<ellipse fill="#bbff77" stroke="black" cx="4372.54" cy="-1175" rx="154.07" ry="18"/>
<text text-anchor="middle" x="4372.54" y="-1171.3" font-family="Times,serif" font-size="14.00">Language.Drasil.Data.ODEInfo</text>
</g>
<!-- u48&#45;&gt;u1 -->
<g id="edge84" class="edge">
<title>u48&#45;&gt;u1</title>
<path fill="none" stroke="black" d="M5247.54,-1711.47C5065.37,-1673.43 4614.69,-1571.26 4501.54,-1470 4419.4,-1396.49 4387.19,-1261.11 4376.78,-1203.32"/>
<polygon fill="black" stroke="black" points="4380.18,-1202.41 4375.03,-1193.15 4373.28,-1203.59 4380.18,-1202.41"/>
</g>
<!-- u45 -->
<g id="node18" class="node">
<title>u45</title>
<ellipse fill="#bbffff" stroke="black" cx="4372.54" cy="-69" rx="168.17" ry="18"/>
<text text-anchor="middle" x="4372.54" y="-65.3" font-family="Times,serif" font-size="14.00">Language.Drasil.Chunk.CodeBase</text>
</g>
<!-- u46&#45;&gt;u45 -->
<g id="edge83" class="edge">
<title>u46&#45;&gt;u45</title>
<path fill="none" stroke="black" d="M4372.54,-327.8C4372.54,-281.5 4372.54,-153.94 4372.54,-97.49"/>
<polygon fill="black" stroke="black" points="4376.04,-97.2 4372.54,-87.2 4369.04,-97.2 4376.04,-97.2"/>
</g>
<!-- u11 -->
<g id="node19" class="node">
<title>u11</title>
<ellipse fill="#ffbbff" stroke="black" cx="5031.54" cy="-1175" rx="190.37" ry="18"/>
<text text-anchor="middle" x="5031.54" y="-1171.3" font-family="Times,serif" font-size="14.00">Language.Drasil.Code.ExternalLibrary</text>
</g>
<!-- u11&#45;&gt;u44 -->
<g id="edge23" class="edge">
<title>u11&#45;&gt;u44</title>
<path fill="none" stroke="black" d="M5041.86,-1156.86C5069.87,-1110.34 5147.45,-981.51 5180.88,-926"/>
<polygon fill="black" stroke="black" points="5184.06,-927.51 5186.22,-917.13 5178.07,-923.89 5184.06,-927.51"/>
</g>
<!-- u11&#45;&gt;u49 -->
<g id="edge24" class="edge">
<title>u11&#45;&gt;u49</title>
<path fill="none" stroke="black" d="M5021.16,-1156.86C4992.98,-1110.34 4914.93,-981.51 4881.29,-926"/>
<polygon fill="black" stroke="black" points="4884.1,-923.87 4875.92,-917.13 4878.11,-927.5 4884.1,-923.87"/>
</g>
<!-- u10 -->
<g id="node20" class="node">
<title>u10</title>
<ellipse fill="#ffbbff" stroke="black" cx="4285.54" cy="-2558" rx="204.16" ry="18"/>
<text text-anchor="middle" x="4285.54" y="-2554.3" font-family="Times,serif" font-size="14.00">Language.Drasil.Code.CodeQuantityDicts</text>
</g>
<!-- u9 -->
<g id="node21" class="node">
<title>u9</title>
<ellipse fill="#ffbbff" stroke="black" cx="5495.54" cy="-1452" rx="178.97" ry="18"/>
<text text-anchor="middle" x="5495.54" y="-1448.3" font-family="Times,serif" font-size="14.00">Language.Drasil.Code.ExtLibImport</text>
</g>
<!-- u9&#45;&gt;u11 -->
<g id="edge22" class="edge">
<title>u9&#45;&gt;u11</title>
<path fill="none" stroke="black" d="M5467.21,-1434.21C5387.13,-1386.75 5159.04,-1251.57 5068.88,-1198.13"/>
<polygon fill="black" stroke="black" points="5070.47,-1195.01 5060.09,-1192.92 5066.91,-1201.03 5070.47,-1195.01"/>
</g>
<!-- u7 -->
<g id="node23" class="node">
<title>u7</title>
<ellipse fill="#ffbbff" stroke="black" cx="5447.54" cy="-1175" rx="207.96" ry="18"/>
<text text-anchor="middle" x="5447.54" y="-1171.3" font-family="Times,serif" font-size="14.00">Language.Drasil.Code.ExternalLibraryCall</text>
</g>
<!-- u9&#45;&gt;u7 -->
<g id="edge21" class="edge">
<title>u9&#45;&gt;u7</title>
<path fill="none" stroke="black" d="M5492.54,-1433.8C5484.44,-1387.4 5462.1,-1259.41 5452.28,-1203.14"/>
<polygon fill="black" stroke="black" points="5455.71,-1202.45 5450.54,-1193.2 5448.81,-1203.65 5455.71,-1202.45"/>
</g>
<!-- u8 -->
<g id="node22" class="node">
<title>u8</title>
<ellipse fill="#ffbbff" stroke="black" cx="4683.54" cy="-1175" rx="139.18" ry="18"/>
<text text-anchor="middle" x="4683.54" y="-1171.3" font-family="Times,serif" font-size="14.00">Language.Drasil.Code.Lang</text>
</g>
<!-- u7&#45;&gt;u44 -->
<g id="edge19" class="edge">
<title>u7&#45;&gt;u44</title>
<path fill="none" stroke="black" d="M5431.84,-1156.86C5388.88,-1109.96 5269.26,-979.38 5219.11,-924.64"/>
<polygon fill="black" stroke="black" points="5221.57,-922.14 5212.24,-917.13 5216.41,-926.87 5221.57,-922.14"/>
</g>
<!-- u7&#45;&gt;u49 -->
<g id="edge20" class="edge">
<title>u7&#45;&gt;u49</title>
<path fill="none" stroke="black" d="M5411.57,-1157.07C5310.19,-1109.34 5022.25,-973.77 4910.57,-921.2"/>
<polygon fill="black" stroke="black" points="4911.81,-917.91 4901.27,-916.82 4908.83,-924.25 4911.81,-917.91"/>
</g>
<!-- u6 -->
<g id="node24" class="node">
<title>u6</title>
<ellipse fill="#ffbbff" stroke="black" cx="5182.54" cy="-3387" rx="191.17" ry="18"/>
<text text-anchor="middle" x="5182.54" y="-3383.3" font-family="Times,serif" font-size="14.00">Language.Drasil.Code.CodeGeneration</text>
</g>
<!-- u6&#45;&gt;u4 -->
<g id="edge17" class="edge">
<title>u6&#45;&gt;u4</title>
<path fill="none" stroke="black" d="M5070.34,-3372.34C4827.34,-3336.32 4252.32,-3215.11 3978.54,-2852 3819.31,-2640.81 3807.54,-2546.49 3807.54,-2282 3807.54,-2282 3807.54,-2282 3807.54,-2004 3807.54,-1734.55 4139.18,-1537.04 4259.55,-1474.23"/>
<polygon fill="black" stroke="black" points="4261.24,-1477.3 4268.52,-1469.6 4258.03,-1471.08 4261.24,-1477.3"/>
</g>
<!-- u36 -->
<g id="node48" class="node">
<title>u36</title>
<ellipse fill="#ff7777" stroke="black" cx="3762.54" cy="-3111" rx="222.06" ry="18"/>
<text text-anchor="middle" x="3762.54" y="-3107.3" font-family="Times,serif" font-size="14.00">Language.Drasil.Code.Imperative.GOOL.Data</text>
</g>
<!-- u6&#45;&gt;u36 -->
<g id="edge18" class="edge">
<title>u6&#45;&gt;u36</title>
<path fill="none" stroke="black" d="M5102.9,-3370.63C4857.81,-3323.34 4115.71,-3180.15 3854.61,-3129.77"/>
<polygon fill="black" stroke="black" points="3854.89,-3126.26 3844.41,-3127.8 3853.56,-3133.13 3854.89,-3126.26"/>
</g>
<!-- u5&#45;&gt;u46 -->
<g id="edge16" class="edge">
<title>u5&#45;&gt;u46</title>
<path fill="none" stroke="black" d="M4129.74,-603.86C4174.08,-556.96 4297.51,-426.38 4349.25,-371.64"/>
<polygon fill="black" stroke="black" points="4352.02,-373.8 4356.35,-364.13 4346.93,-369 4352.02,-373.8"/>
</g>
<!-- u42 -->
<g id="node27" class="node">
<title>u42</title>
<ellipse fill="#77ff77" stroke="black" cx="3650.54" cy="-1452" rx="219.86" ry="18"/>
<text text-anchor="middle" x="3650.54" y="-1448.3" font-family="Times,serif" font-size="14.00">Language.Drasil.Code.Imperative.WriteInput</text>
</g>
<!-- u42&#45;&gt;u5 -->
<g id="edge79" class="edge">
<title>u42&#45;&gt;u5</title>
<path fill="none" stroke="black" d="M3660.21,-1433.71C3718.94,-1328.69 4027.57,-776.74 4098.85,-649.28"/>
<polygon fill="black" stroke="black" points="4102.1,-650.64 4103.92,-640.2 4095.99,-647.22 4102.1,-650.64"/>
</g>
<!-- u41 -->
<g id="node28" class="node">
<title>u41</title>
<ellipse fill="#77ff77" stroke="black" cx="5638.54" cy="-3387" rx="209.06" ry="18"/>
<text text-anchor="middle" x="5638.54" y="-3383.3" font-family="Times,serif" font-size="14.00">Language.Drasil.Code.Imperative.Modules</text>
</g>
<!-- u21 -->
<g id="node37" class="node">
<title>u21</title>
<ellipse fill="#77ff77" stroke="black" cx="5729.54" cy="-3111" rx="228.26" ry="18"/>
<text text-anchor="middle" x="5729.54" y="-3107.3" font-family="Times,serif" font-size="14.00">Language.Drasil.Code.Imperative.Descriptions</text>
</g>
<!-- u41&#45;&gt;u21 -->
<g id="edge78" class="edge">
<title>u41&#45;&gt;u21</title>
<path fill="none" stroke="black" d="M5644.23,-3368.86C5659.62,-3322.54 5702.12,-3194.58 5720.68,-3138.69"/>
<polygon fill="black" stroke="black" points="5724.02,-3139.73 5723.85,-3129.13 5717.38,-3137.52 5724.02,-3139.73"/>
</g>
<!-- u18 -->
<g id="node39" class="node">
<title>u18</title>
<ellipse fill="#77ff77" stroke="black" cx="5250.54" cy="-3111" rx="233.16" ry="18"/>
<text text-anchor="middle" x="5250.54" y="-3107.3" font-family="Times,serif" font-size="14.00">Language.Drasil.Code.Imperative.FunctionCalls</text>
</g>
<!-- u41&#45;&gt;u18 -->
<g id="edge77" class="edge">
<title>u41&#45;&gt;u18</title>
<path fill="none" stroke="black" d="M5614.56,-3369.07C5547.75,-3321.88 5359.37,-3188.85 5283.16,-3135.03"/>
<polygon fill="black" stroke="black" points="5285.04,-3132.08 5274.86,-3129.17 5281.01,-3137.8 5285.04,-3132.08"/>
</g>
<!-- u40 -->
<g id="node29" class="node">
<title>u40</title>
<ellipse fill="#77ff77" stroke="black" cx="5624.54" cy="-2281" rx="222.06" ry="18"/>
<text text-anchor="middle" x="5624.54" y="-2277.3" font-family="Times,serif" font-size="14.00">Language.Drasil.Code.Imperative.DrasilState</text>
</g>
<!-- u40&#45;&gt;u51 -->
<g id="edge76" class="edge">
<title>u40&#45;&gt;u51</title>
<path fill="none" stroke="black" d="M5587.28,-2263.07C5481.88,-2215.18 5181.88,-2078.86 5067.03,-2026.67"/>
<polygon fill="black" stroke="black" points="5068.35,-2023.42 5057.79,-2022.47 5065.45,-2029.8 5068.35,-2023.42"/>
</g>
<!-- u40&#45;&gt;u9 -->
<g id="edge75" class="edge">
<title>u40&#45;&gt;u9</title>
<path fill="none" stroke="black" d="M5624.17,-2262.75C5623,-2217.38 5618.65,-2091.08 5604.54,-1987 5577.95,-1790.89 5522.05,-1558.76 5502.48,-1480.39"/>
<polygon fill="black" stroke="black" points="5505.8,-1479.22 5499.97,-1470.37 5499.01,-1480.92 5505.8,-1479.22"/>
</g>
<!-- u39 -->
<g id="node30" class="node">
<title>u39</title>
<ellipse fill="#77ff77" stroke="black" cx="5250.54" cy="-2834" rx="201.46" ry="18"/>
<text text-anchor="middle" x="5250.54" y="-2830.3" font-family="Times,serif" font-size="14.00">Language.Drasil.Code.Imperative.Import</text>
</g>
<!-- u39&#45;&gt;u10 -->
<g id="edge69" class="edge">
<title>u39&#45;&gt;u10</title>
<path fill="none" stroke="black" d="M5193.07,-2816.68C5024.63,-2768.86 4532.77,-2629.2 4352.64,-2578.05"/>
<polygon fill="black" stroke="black" points="4353.6,-2574.68 4343.02,-2575.32 4351.68,-2581.42 4353.6,-2574.68"/>
</g>
<!-- u27 -->
<g id="node32" class="node">
<title>u27</title>
<ellipse fill="#77ff77" stroke="black" cx="5681.54" cy="-2558" rx="207.16" ry="18"/>
<text text-anchor="middle" x="5681.54" y="-2554.3" font-family="Times,serif" font-size="14.00">Language.Drasil.Code.Imperative.Logging</text>
</g>
<!-- u39&#45;&gt;u27 -->
<g id="edge74" class="edge">
<title>u39&#45;&gt;u27</title>
<path fill="none" stroke="black" d="M5277.18,-2816.07C5351.64,-2768.73 5562,-2635 5646.13,-2581.51"/>
<polygon fill="black" stroke="black" points="5648.25,-2584.31 5654.81,-2576 5644.49,-2578.41 5648.25,-2584.31"/>
</g>
<!-- u26 -->
<g id="node33" class="node">
<title>u26</title>
<ellipse fill="#77ff77" stroke="black" cx="4748.54" cy="-2558" rx="240.46" ry="18"/>
<text text-anchor="middle" x="4748.54" y="-2554.3" font-family="Times,serif" font-size="14.00">Language.Drasil.Code.Imperative.GenerateGOOL</text>
</g>
<!-- u39&#45;&gt;u26 -->
<g id="edge73" class="edge">
<title>u39&#45;&gt;u26</title>
<path fill="none" stroke="black" d="M5219.52,-2816.07C5132.44,-2768.54 4885.79,-2633.91 4788.61,-2580.87"/>
<polygon fill="black" stroke="black" points="4790.13,-2577.71 4779.68,-2576 4786.78,-2583.86 4790.13,-2577.71"/>
</g>
<!-- u25 -->
<g id="node34" class="node">
<title>u25</title>
<ellipse fill="#77ff77" stroke="black" cx="6126.54" cy="-2558" rx="219.86" ry="18"/>
<text text-anchor="middle" x="6126.54" y="-2554.3" font-family="Times,serif" font-size="14.00">Language.Drasil.Code.Imperative.Comments</text>
</g>
<!-- u39&#45;&gt;u25 -->
<g id="edge72" class="edge">
<title>u39&#45;&gt;u25</title>
<path fill="none" stroke="black" d="M5303.04,-2816.58C5455.71,-2768.83 5899.09,-2630.14 6063.89,-2578.6"/>
<polygon fill="black" stroke="black" points="6065.37,-2581.8 6073.87,-2575.48 6063.28,-2575.12 6065.37,-2581.8"/>
</g>
<!-- u23 -->
<g id="node35" class="node">
<title>u23</title>
<ellipse fill="#77ff77" stroke="black" cx="5146.54" cy="-2281" rx="237.46" ry="18"/>
<text text-anchor="middle" x="5146.54" y="-2277.3" font-family="Times,serif" font-size="14.00">Language.Drasil.Code.Imperative.ConceptMatch</text>
</g>
<!-- u39&#45;&gt;u23 -->
<g id="edge71" class="edge">
<title>u39&#45;&gt;u23</title>
<path fill="none" stroke="black" d="M5228.49,-2816.07C5181.97,-2778.8 5074.86,-2684.26 5035.54,-2576 4999.2,-2475.93 5082.76,-2357.59 5124.54,-2306.98"/>
<polygon fill="black" stroke="black" points="5127.35,-2309.08 5131.1,-2299.18 5121.99,-2304.58 5127.35,-2309.08"/>
</g>
<!-- u14 -->
<g id="node43" class="node">
<title>u14</title>
<ellipse fill="#77ff77" stroke="black" cx="5250.54" cy="-2558" rx="206.06" ry="18"/>
<text text-anchor="middle" x="5250.54" y="-2554.3" font-family="Times,serif" font-size="14.00">Language.Drasil.Code.Imperative.Helpers</text>
</g>
<!-- u39&#45;&gt;u14 -->
<g id="edge70" class="edge">
<title>u39&#45;&gt;u14</title>
<path fill="none" stroke="black" d="M5250.54,-2815.86C5250.54,-2769.73 5250.54,-2642.64 5250.54,-2586.39"/>
<polygon fill="black" stroke="black" points="5254.04,-2586.13 5250.54,-2576.13 5247.04,-2586.13 5254.04,-2586.13"/>
</g>
<!-- u38&#45;&gt;u6 -->
<g id="edge64" class="edge">
<title>u38&#45;&gt;u6</title>
<path fill="none" stroke="black" d="M5498.71,-3646.01C5440.92,-3598.84 5278.39,-3466.22 5211.68,-3411.78"/>
<polygon fill="black" stroke="black" points="5213.62,-3408.84 5203.66,-3405.23 5209.2,-3414.27 5213.62,-3408.84"/>
</g>
<!-- u38&#45;&gt;u41 -->
<g id="edge68" class="edge">
<title>u38&#45;&gt;u41</title>
<path fill="none" stroke="black" d="M5526.99,-3645.8C5547.15,-3599.21 5602.91,-3470.35 5627.1,-3414.44"/>
<polygon fill="black" stroke="black" points="5630.34,-3415.76 5631.1,-3405.2 5623.92,-3412.98 5630.34,-3415.76"/>
</g>
<!-- u17 -->
<g id="node40" class="node">
<title>u17</title>
<ellipse fill="#77ff77" stroke="black" cx="6202.54" cy="-3111" rx="226.66" ry="18"/>
<text text-anchor="middle" x="6202.54" y="-3107.3" font-family="Times,serif" font-size="14.00">Language.Drasil.Code.Imperative.SpaceMatch</text>
</g>
<!-- u38&#45;&gt;u17 -->
<g id="edge66" class="edge">
<title>u38&#45;&gt;u17</title>
<path fill="none" stroke="black" d="M5542.73,-3645.87C5597.81,-3605.02 5740.62,-3498.36 5856.54,-3405 5977.45,-3307.62 6117.42,-3186.38 6175.32,-3135.84"/>
<polygon fill="black" stroke="black" points="6177.71,-3138.41 6182.93,-3129.19 6173.1,-3133.13 6177.71,-3138.41"/>
</g>
<!-- u16 -->
<g id="node41" class="node">
<title>u16</title>
<ellipse fill="#77ff77" stroke="black" cx="5385.54" cy="-2005" rx="209.86" ry="18"/>
<text text-anchor="middle" x="5385.54" y="-2001.3" font-family="Times,serif" font-size="14.00">Language.Drasil.Code.Imperative.GenODE</text>
</g>
<!-- u38&#45;&gt;u16 -->
<g id="edge65" class="edge">
<title>u38&#45;&gt;u16</title>
<path fill="none" stroke="black" d="M5639.29,-3648.97C5892.17,-3612 6457.54,-3487.37 6457.54,-3112 6457.54,-3112 6457.54,-3112 6457.54,-2557 6457.54,-2157.8 5862.24,-2047.59 5558.87,-2017.34"/>
<polygon fill="black" stroke="black" points="5558.94,-2013.83 5548.65,-2016.34 5558.26,-2020.79 5558.94,-2013.83"/>
</g>
<!-- u37 -->
<g id="node47" class="node">
<title>u37</title>
<ellipse fill="#ff7777" stroke="black" cx="4276.54" cy="-2834" rx="289.45" ry="18"/>
<text text-anchor="middle" x="4276.54" y="-2830.3" font-family="Times,serif" font-size="14.00">Language.Drasil.Code.Imperative.GOOL.LanguageRenderer</text>
</g>
<!-- u38&#45;&gt;u37 -->
<g id="edge67" class="edge">
<title>u38&#45;&gt;u37</title>
<path fill="none" stroke="black" d="M5516.8,-3645.98C5507.72,-3595.44 5473.88,-3444.99 5382.54,-3369 5055.04,-3096.55 4796.31,-3383.32 4454.54,-3129 4359.26,-3058.1 4304.54,-2919.71 4284.9,-2861.65"/>
<polygon fill="black" stroke="black" points="4288.21,-2860.49 4281.75,-2852.09 4281.56,-2862.69 4288.21,-2860.49"/>
</g>
<!-- u27&#45;&gt;u40 -->
<g id="edge44" class="edge">
<title>u27&#45;&gt;u40</title>
<path fill="none" stroke="black" d="M5677.98,-2539.8C5668.36,-2493.4 5641.83,-2365.41 5630.17,-2309.14"/>
<polygon fill="black" stroke="black" points="5633.56,-2308.28 5628.11,-2299.2 5626.71,-2309.7 5633.56,-2308.28"/>
</g>
<!-- u26&#45;&gt;u40 -->
<g id="edge43" class="edge">
<title>u26&#45;&gt;u40</title>
<path fill="none" stroke="black" d="M4801.37,-2540.42C4954.36,-2492.39 5397.33,-2353.33 5561.96,-2301.65"/>
<polygon fill="black" stroke="black" points="5563.43,-2304.85 5571.93,-2298.52 5561.34,-2298.17 5563.43,-2304.85"/>
</g>
<!-- u28 -->
<g id="node49" class="node">
<title>u28</title>
<ellipse fill="#ff7777" stroke="black" cx="4624.54" cy="-2281" rx="267.25" ry="18"/>
<text text-anchor="middle" x="4624.54" y="-2277.3" font-family="Times,serif" font-size="14.00">Language.Drasil.Code.Imperative.GOOL.ClassInterface</text>
</g>
<!-- u26&#45;&gt;u28 -->
<g id="edge42" class="edge">
<title>u26&#45;&gt;u28</title>
<path fill="none" stroke="black" d="M4740.78,-2539.8C4719.78,-2493.21 4661.67,-2364.35 4636.46,-2308.44"/>
<polygon fill="black" stroke="black" points="4639.6,-2306.87 4632.3,-2299.2 4633.22,-2309.75 4639.6,-2306.87"/>
</g>
<!-- u25&#45;&gt;u40 -->
<g id="edge41" class="edge">
<title>u25&#45;&gt;u40</title>
<path fill="none" stroke="black" d="M6095.52,-2540.01C6008.34,-2492.25 5761.2,-2356.86 5664.26,-2303.76"/>
<polygon fill="black" stroke="black" points="5665.81,-2300.62 5655.36,-2298.88 5662.45,-2306.76 5665.81,-2300.62"/>
</g>
<!-- u23&#45;&gt;u3 -->
<g id="edge39" class="edge">
<title>u23&#45;&gt;u3</title>
<path fill="none" stroke="black" d="M5128.01,-2262.76C5083.96,-2221.69 4969.72,-2114.69 4876.54,-2023 4776.34,-1924.4 4659.77,-1804.03 4610.94,-1753.34"/>
<polygon fill="black" stroke="black" points="4613.42,-1750.87 4603.96,-1746.1 4608.38,-1755.73 4613.42,-1750.87"/>
</g>
<!-- u22&#45;&gt;u5 -->
<g id="edge38" class="edge">
<title>u22&#45;&gt;u5</title>
<path fill="none" stroke="black" d="M3353.37,-2262.88C3360.43,-2195.23 3385.54,-1939.85 3385.54,-1729 3385.54,-1729 3385.54,-1729 3385.54,-1174 3385.54,-848.74 3853.3,-690.89 4038.93,-641.05"/>
<polygon fill="black" stroke="black" points="4039.85,-644.43 4048.62,-638.48 4038.05,-637.66 4039.85,-644.43"/>
</g>
<!-- u21&#45;&gt;u40 -->
<g id="edge37" class="edge">
<title>u21&#45;&gt;u40</title>
<path fill="none" stroke="black" d="M5779.06,-3093.34C5956.53,-3031 6540.61,-2801.58 6355.54,-2540 6235.83,-2370.8 5995.59,-2311.8 5823.16,-2291.65"/>
<polygon fill="black" stroke="black" points="5823.53,-2288.17 5813.2,-2290.52 5822.74,-2295.13 5823.53,-2288.17"/>
</g>
<!-- u19 -->
<g id="node38" class="node">
<title>u19</title>
<ellipse fill="#77ff77" stroke="black" cx="4106.54" cy="-2281" rx="233.16" ry="18"/>
<text text-anchor="middle" x="4106.54" y="-2277.3" font-family="Times,serif" font-size="14.00">Language.Drasil.Code.Imperative.WriteReadMe</text>
</g>
<!-- u20 -->
<g id="node58" class="node">
<title>u20</title>
<ellipse fill="#33ff33" stroke="black" cx="4587.54" cy="-2005" rx="242.36" ry="18"/>
<text text-anchor="middle" x="4587.54" y="-2001.3" font-family="Times,serif" font-size="14.00">Language.Drasil.Code.Imperative.ReadMe.Import</text>
</g>
<!-- u19&#45;&gt;u20 -->
<g id="edge35" class="edge">
<title>u19&#45;&gt;u20</title>
<path fill="none" stroke="black" d="M4136.27,-2263.07C4219.62,-2215.59 4455.56,-2081.18 4548.87,-2028.03"/>
<polygon fill="black" stroke="black" points="4550.75,-2030.99 4557.71,-2023 4547.29,-2024.9 4550.75,-2030.99"/>
</g>
<!-- u18&#45;&gt;u39 -->
<g id="edge34" class="edge">
<title>u18&#45;&gt;u39</title>
<path fill="none" stroke="black" d="M5250.54,-3092.8C5250.54,-3046.5 5250.54,-2918.94 5250.54,-2862.49"/>
<polygon fill="black" stroke="black" points="5254.04,-2862.2 5250.54,-2852.2 5247.04,-2862.2 5254.04,-2862.2"/>
</g>
<!-- u15 -->
<g id="node42" class="node">
<title>u15</title>
<ellipse fill="#77ff77" stroke="black" cx="4807.54" cy="-2834" rx="223.66" ry="18"/>
<text text-anchor="middle" x="4807.54" y="-2830.3" font-family="Times,serif" font-size="14.00">Language.Drasil.Code.Imperative.Parameters</text>
</g>
<!-- u18&#45;&gt;u15 -->
<g id="edge33" class="edge">
<title>u18&#45;&gt;u15</title>
<path fill="none" stroke="black" d="M5223.16,-3093.01C5146.46,-3045.39 4929.46,-2910.68 4843.37,-2857.24"/>
<polygon fill="black" stroke="black" points="4845.08,-2854.18 4834.74,-2851.88 4841.39,-2860.13 4845.08,-2854.18"/>
</g>
<!-- u17&#45;&gt;u40 -->
<g id="edge32" class="edge">
<title>u17&#45;&gt;u40</title>
<path fill="none" stroke="black" d="M6217.63,-3092.9C6280.39,-3019.63 6511.43,-2727.41 6377.54,-2540 6254.74,-2368.12 6010.12,-2309.52 5832.94,-2290.19"/>
<polygon fill="black" stroke="black" points="5833.27,-2286.71 5822.96,-2289.14 5832.54,-2293.67 5833.27,-2286.71"/>
</g>
<!-- u16&#45;&gt;u3 -->
<g id="edge29" class="edge">
<title>u16&#45;&gt;u3</title>
<path fill="none" stroke="black" d="M5337.42,-1987.42C5197.75,-1939.29 4792.8,-1799.73 4643.59,-1748.32"/>
<polygon fill="black" stroke="black" points="4644.32,-1744.86 4633.72,-1744.91 4642.04,-1751.48 4644.32,-1744.86"/>
</g>
<!-- u16&#45;&gt;u48 -->
<g id="edge31" class="edge">
<title>u16&#45;&gt;u48</title>
<path fill="none" stroke="black" d="M5381.73,-1986.8C5371.43,-1940.4 5343.04,-1812.41 5330.56,-1756.14"/>
<polygon fill="black" stroke="black" points="5333.94,-1755.2 5328.36,-1746.2 5327.1,-1756.72 5333.94,-1755.2"/>
</g>
<!-- u16&#45;&gt;u9 -->
<g id="edge30" class="edge">
<title>u16&#45;&gt;u9</title>
<path fill="none" stroke="black" d="M5398.79,-1986.83C5428.46,-1947.15 5499.59,-1844.91 5524.54,-1746 5548.69,-1650.25 5519.88,-1532.15 5504.28,-1479.97"/>
<polygon fill="black" stroke="black" points="5507.55,-1478.68 5501.27,-1470.15 5500.86,-1480.73 5507.55,-1478.68"/>
</g>
<!-- u15&#45;&gt;u10 -->
<g id="edge27" class="edge">
<title>u15&#45;&gt;u10</title>
<path fill="none" stroke="black" d="M4775.28,-2816.07C4684.53,-2768.43 4427.13,-2633.32 4326.54,-2580.52"/>
<polygon fill="black" stroke="black" points="4328.07,-2577.37 4317.59,-2575.82 4324.81,-2583.57 4328.07,-2577.37"/>
</g>
<!-- u15&#45;&gt;u40 -->
<g id="edge28" class="edge">
<title>u15&#45;&gt;u40</title>
<path fill="none" stroke="black" d="M4728.47,-2817.14C4520.51,-2773.69 3980.4,-2648.73 4072.54,-2540 4162.99,-2433.27 5102.74,-2332.12 5474.43,-2295.99"/>
<polygon fill="black" stroke="black" points="5474.84,-2299.46 5484.45,-2295.01 5474.16,-2292.5 5474.84,-2299.46"/>
</g>
<!-- u14&#45;&gt;u40 -->
<g id="edge26" class="edge">
<title>u14&#45;&gt;u40</title>
<path fill="none" stroke="black" d="M5273.65,-2540.01C5337.93,-2492.74 5518.9,-2359.68 5592.66,-2305.44"/>
<polygon fill="black" stroke="black" points="5595.12,-2307.98 5601.1,-2299.23 5590.97,-2302.34 5595.12,-2307.98"/>
</g>
<!-- u13 -->
<g id="node44" class="node">
<title>u13</title>
<ellipse fill="#ffff77" stroke="black" cx="3128.54" cy="-2834" rx="228.56" ry="18"/>
<text text-anchor="middle" x="3128.54" y="-2830.3" font-family="Times,serif" font-size="14.00">Language.Drasil.Code.Imperative.Build.Import</text>
</g>
<!-- u12 -->
<g id="node45" class="node">
<title>u12</title>
<ellipse fill="#ffff77" stroke="black" cx="3128.54" cy="-2558" rx="215.56" ry="18"/>
<text text-anchor="middle" x="3128.54" y="-2554.3" font-family="Times,serif" font-size="14.00">Language.Drasil.Code.Imperative.Build.AST</text>
</g>
<!-- u13&#45;&gt;u12 -->
<g id="edge25" class="edge">
<title>u13&#45;&gt;u12</title>
<path fill="none" stroke="black" d="M3128.54,-2815.86C3128.54,-2769.73 3128.54,-2642.64 3128.54,-2586.39"/>
<polygon fill="black" stroke="black" points="3132.04,-2586.13 3128.54,-2576.13 3125.04,-2586.13 3132.04,-2586.13"/>
</g>
<!-- u24 -->
<g id="node46" class="node">
<title>u24</title>
<ellipse fill="#7777ff" stroke="black" cx="4081.54" cy="-2005" rx="245.06" ry="18"/>
<text text-anchor="middle" x="4081.54" y="-2001.3" font-family="Times,serif" font-size="14.00">Language.Drasil.Code.Imperative.Doxygen.Import</text>
</g>
<!-- u24&#45;&gt;u3 -->
<g id="edge40" class="edge">
<title>u24&#45;&gt;u3</title>
<path fill="none" stroke="black" d="M4112.81,-1987.01C4200.9,-1939.13 4450.98,-1803.22 4548.2,-1750.38"/>
<polygon fill="black" stroke="black" points="4550.01,-1753.38 4557.12,-1745.53 4546.66,-1747.23 4550.01,-1753.38"/>
</g>
<!-- u28&#45;&gt;u20 -->
<g id="edge45" class="edge">
<title>u28&#45;&gt;u20</title>
<path fill="none" stroke="black" d="M4622.23,-2262.86C4616,-2216.73 4598.84,-2089.64 4591.24,-2033.39"/>
<polygon fill="black" stroke="black" points="4594.66,-2032.58 4589.86,-2023.13 4587.72,-2033.51 4594.66,-2032.58"/>
</g>
<!-- u35&#45;&gt;u36 -->
<g id="edge63" class="edge">
<title>u35&#45;&gt;u36</title>
<path fill="none" stroke="black" d="M3167.72,-3369.07C3278.38,-3321.24 3593.1,-3185.23 3714.22,-3132.89"/>
<polygon fill="black" stroke="black" points="3715.83,-3136 3723.62,-3128.82 3713.05,-3129.57 3715.83,-3136"/>
</g>
<!-- u29 -->
<g id="node56" class="node">
<title>u29</title>
<ellipse fill="#77ffff" stroke="black" cx="3128.54" cy="-3111" rx="393.73" ry="18"/>
<text text-anchor="middle" x="3128.54" y="-3107.3" font-family="Times,serif" font-size="14.00">Language.Drasil.Code.Imperative.GOOL.LanguageRenderer.LanguagePolymorphic</text>
</g>
<!-- u35&#45;&gt;u29 -->
<g id="edge62" class="edge">
<title>u35&#45;&gt;u29</title>
<path fill="none" stroke="black" d="M3128.54,-3368.86C3128.54,-3322.73 3128.54,-3195.64 3128.54,-3139.39"/>
<polygon fill="black" stroke="black" points="3132.04,-3139.13 3128.54,-3129.13 3125.04,-3139.13 3132.04,-3139.13"/>
</g>
<!-- u34&#45;&gt;u36 -->
<g id="edge61" class="edge">
<title>u34&#45;&gt;u36</title>
<path fill="none" stroke="black" d="M3852.54,-3368.86C3836.31,-3322.54 3791.47,-3194.58 3771.89,-3138.69"/>
<polygon fill="black" stroke="black" points="3775.15,-3137.41 3768.54,-3129.13 3768.55,-3139.73 3775.15,-3137.41"/>
</g>
<!-- u34&#45;&gt;u29 -->
<g id="edge60" class="edge">
<title>u34&#45;&gt;u29</title>
<path fill="none" stroke="black" d="M3813.43,-3369.07C3685.78,-3321.15 3322.32,-3184.73 3183.43,-3132.6"/>
<polygon fill="black" stroke="black" points="3184.41,-3129.23 3173.82,-3129 3181.95,-3135.79 3184.41,-3129.23"/>
</g>
<!-- u33&#45;&gt;u36 -->
<g id="edge59" class="edge">
<title>u33&#45;&gt;u36</title>
<path fill="none" stroke="black" d="M4552.82,-3369.17C4405.02,-3321.07 3981.26,-3183.17 3823.07,-3131.7"/>
<polygon fill="black" stroke="black" points="3824.08,-3128.34 3813.48,-3128.58 3821.91,-3135 3824.08,-3128.34"/>
</g>
<!-- u33&#45;&gt;u29 -->
<g id="edge58" class="edge">
<title>u33&#45;&gt;u29</title>
<path fill="none" stroke="black" d="M4515.54,-3369.48C4255.73,-3321.25 3499.6,-3180.88 3227.53,-3130.38"/>
<polygon fill="black" stroke="black" points="3228.13,-3126.93 3217.66,-3128.54 3226.86,-3133.81 3228.13,-3126.93"/>
</g>
<!-- u32&#45;&gt;u36 -->
<g id="edge57" class="edge">
<title>u32&#45;&gt;u36</title>
<path fill="none" stroke="black" d="M1080.48,-3370.85C1580.24,-3322.62 3130.17,-3173.03 3615.62,-3126.18"/>
<polygon fill="black" stroke="black" points="3616.22,-3129.64 3625.84,-3125.19 3615.55,-3122.67 3616.22,-3129.64"/>
</g>
<!-- u32&#45;&gt;u29 -->
<g id="edge56" class="edge">
<title>u32&#45;&gt;u29</title>
<path fill="none" stroke="black" d="M1050.82,-3370.18C1436.24,-3322.29 2588.76,-3179.07 2989.43,-3129.29"/>
<polygon fill="black" stroke="black" points="2990.13,-3132.73 2999.62,-3128.02 2989.27,-3125.78 2990.13,-3132.73"/>
</g>
<!-- u31&#45;&gt;u36 -->
<g id="edge55" class="edge">
<title>u31&#45;&gt;u36</title>
<path fill="none" stroke="black" d="M1785.29,-3369.98C2157.38,-3321.44 3269.84,-3176.29 3640.71,-3127.9"/>
<polygon fill="black" stroke="black" points="3641.2,-3131.36 3650.66,-3126.6 3640.29,-3124.42 3641.2,-3131.36"/>
</g>
<!-- u31&#45;&gt;u29 -->
<g id="edge54" class="edge">
<title>u31&#45;&gt;u29</title>
<path fill="none" stroke="black" d="M1750.94,-3369.48C2008.87,-3321.27 2759.26,-3181.02 3029.83,-3130.45"/>
<polygon fill="black" stroke="black" points="3030.84,-3133.82 3040.02,-3128.54 3029.55,-3126.94 3030.84,-3133.82"/>
</g>
<!-- u30&#45;&gt;u36 -->
<g id="edge53" class="edge">
<title>u30&#45;&gt;u36</title>
<path fill="none" stroke="black" d="M2484.55,-3369.48C2724.72,-3321.09 3425.18,-3179.97 3673.77,-3129.89"/>
<polygon fill="black" stroke="black" points="3674.73,-3133.26 3683.84,-3127.86 3673.34,-3126.4 3674.73,-3133.26"/>
</g>
<!-- u30&#45;&gt;u29 -->
<g id="edge52" class="edge">
<title>u30&#45;&gt;u29</title>
<path fill="none" stroke="black" d="M2447.41,-3369.07C2574.36,-3321.15 2935.82,-3184.73 3073.96,-3132.6"/>
<polygon fill="black" stroke="black" points="3075.39,-3135.8 3083.51,-3129 3072.92,-3129.25 3075.39,-3135.8"/>
</g>
<!-- u29&#45;&gt;u42 -->
<g id="edge51" class="edge">
<title>u29&#45;&gt;u42</title>
<path fill="none" stroke="black" d="M3163.35,-3093C3276.02,-3035.27 3623.54,-2834.83 3623.54,-2559 3623.54,-2559 3623.54,-2559 3623.54,-2004 3623.54,-1802.76 3641.73,-1560.68 3648.25,-1480.36"/>
<polygon fill="black" stroke="black" points="3651.76,-1480.38 3649.09,-1470.12 3644.78,-1479.8 3651.76,-1480.38"/>
</g>
<!-- u29&#45;&gt;u19 -->
<g id="edge47" class="edge">
<title>u29&#45;&gt;u19</title>
<path fill="none" stroke="black" d="M3298.68,-3094.71C3464.66,-3070.73 3712.96,-3009.28 3859.54,-2852 3957.61,-2746.78 3887.75,-2671.72 3945.54,-2540 3985.51,-2448.89 4053.87,-2352.12 4087.17,-2307.39"/>
<polygon fill="black" stroke="black" points="4090.15,-2309.25 4093.34,-2299.15 4084.55,-2305.05 4090.15,-2309.25"/>
</g>
<!-- u29&#45;&gt;u13 -->
<g id="edge46" class="edge">
<title>u29&#45;&gt;u13</title>
<path fill="none" stroke="black" d="M3128.54,-3092.8C3128.54,-3046.5 3128.54,-2918.94 3128.54,-2862.49"/>
<polygon fill="black" stroke="black" points="3132.04,-2862.2 3128.54,-2852.2 3125.04,-2862.2 3132.04,-2862.2"/>
</g>
<!-- u29&#45;&gt;u24 -->
<g id="edge48" class="edge">
<title>u29&#45;&gt;u24</title>
<path fill="none" stroke="black" d="M3194.62,-3093.23C3301.86,-3062.77 3514.17,-2988.55 3637.54,-2852 3825.62,-2643.84 3721.62,-2504.41 3864.54,-2263 3920.67,-2168.19 4011.93,-2073.54 4056.05,-2030.31"/>
<polygon fill="black" stroke="black" points="4058.75,-2032.57 4063.47,-2023.09 4053.87,-2027.55 4058.75,-2032.57"/>
</g>
<!-- u29&#45;&gt;u37 -->
<g id="edge50" class="edge">
<title>u29&#45;&gt;u37</title>
<path fill="none" stroke="black" d="M3198.63,-3093.21C3400.85,-3044.77 3984.49,-2904.96 4197.51,-2853.93"/>
<polygon fill="black" stroke="black" points="4198.46,-2857.3 4207.37,-2851.57 4196.83,-2850.49 4198.46,-2857.3"/>
</g>
<!-- u29&#45;&gt;u28 -->
<g id="edge49" class="edge">
<title>u29&#45;&gt;u28</title>
<path fill="none" stroke="black" d="M3263.91,-3094.07C3427.88,-3068.56 3704.67,-3004.8 3886.54,-2852 4007.61,-2750.28 3941.65,-2647.58 4057.54,-2540 4201.32,-2406.53 4426.03,-2332.67 4544.79,-2300.96"/>
<polygon fill="black" stroke="black" points="4545.77,-2304.32 4554.55,-2298.38 4543.99,-2297.55 4545.77,-2304.32"/>
</g>
<!-- u43 -->
<g id="node57" class="node">
<title>u43</title>
<ellipse fill="#ff77ff" stroke="black" cx="4731.54" cy="-3111" rx="267.55" ry="18"/>
<text text-anchor="middle" x="4731.54" y="-3107.3" font-family="Times,serif" font-size="14.00">Language.Drasil.Code.Imperative.Parsers.ConfigParser</text>
</g>
<!-- u43&#45;&gt;u37 -->
<g id="edge80" class="edge">
<title>u43&#45;&gt;u37</title>
<path fill="none" stroke="black" d="M4703.42,-3093.01C4624.66,-3045.4 4401.84,-2910.73 4313.39,-2857.27"/>
<polygon fill="black" stroke="black" points="4315.13,-2854.23 4304.76,-2852.06 4311.51,-2860.23 4315.13,-2854.23"/>
</g>
<!-- u20&#45;&gt;u3 -->
<g id="edge36" class="edge">
<title>u20&#45;&gt;u3</title>
<path fill="none" stroke="black" d="M4587.54,-1986.8C4587.54,-1940.5 4587.54,-1812.94 4587.54,-1756.49"/>
<polygon fill="black" stroke="black" points="4591.04,-1756.2 4587.54,-1746.2 4584.04,-1756.2 4591.04,-1756.2"/>
</g>
<!-- u1&#45;&gt;u46 -->
<g id="edge5" class="edge">
<title>u1&#45;&gt;u46</title>
<path fill="none" stroke="black" d="M4372.54,-1156.73C4372.54,-1052.15 4372.54,-503.86 4372.54,-374.41"/>
<polygon fill="black" stroke="black" points="4376.04,-374.18 4372.54,-364.18 4369.04,-374.18 4376.04,-374.18"/>
</g>
<!-- u0&#45;&gt;u11 -->
<g id="edge4" class="edge">
<title>u0&#45;&gt;u11</title>
<path fill="none" stroke="black" d="M4705.05,-1434.01C4764.86,-1386.74 4933.25,-1253.68 5001.87,-1199.44"/>
<polygon fill="black" stroke="black" points="5004.06,-1202.18 5009.73,-1193.23 4999.72,-1196.69 5004.06,-1202.18"/>
</g>
<!-- u0&#45;&gt;u8 -->
<g id="edge3" class="edge">
<title>u0&#45;&gt;u8</title>
<path fill="none" stroke="black" d="M4683.54,-1433.8C4683.54,-1387.5 4683.54,-1259.94 4683.54,-1203.49"/>
<polygon fill="black" stroke="black" points="4687.04,-1203.2 4683.54,-1193.2 4680.04,-1203.2 4687.04,-1203.2"/>
</g>
<!-- u0&#45;&gt;u7 -->
<g id="edge2" class="edge">
<title>u0&#45;&gt;u7</title>
<path fill="none" stroke="black" d="M4729.05,-1434.62C4861.56,-1386.92 5246.96,-1248.2 5391.72,-1196.09"/>
<polygon fill="black" stroke="black" points="5393.09,-1199.32 5401.31,-1192.64 5390.72,-1192.73 5393.09,-1199.32"/>
</g>
<!-- u0&#45;&gt;u1 -->
<g id="edge1" class="edge">
<title>u0&#45;&gt;u1</title>
<path fill="none" stroke="black" d="M4664.09,-1433.8C4610.64,-1386.53 4461.42,-1254.59 4399.75,-1200.06"/>
<polygon fill="black" stroke="black" points="4401.8,-1197.2 4391.99,-1193.2 4397.16,-1202.44 4401.8,-1197.2"/>
</g>
<!-- u60 -->
<g id="node61" class="node">
<title>u60</title>
<ellipse fill="#3333ff" stroke="black" cx="485.54" cy="-4217" rx="108.58" ry="18"/>
<text text-anchor="middle" x="485.54" y="-4213.3" font-family="Times,serif" font-size="14.00">drasil&#45;code.test.Main</text>
</g>
<!-- u60&#45;&gt;u59 -->
<g id="edge97" class="edge">
<title>u60&#45;&gt;u59</title>
<path fill="none" stroke="black" d="M471.53,-4198.8C433.08,-4151.6 325.86,-4019.96 281.32,-3965.29"/>
<polygon fill="black" stroke="black" points="284.01,-3963.04 274.98,-3957.5 278.58,-3967.46 284.01,-3963.04"/>
</g>
<!-- u60&#45;&gt;u57 -->
<g id="edge96" class="edge">
<title>u60&#45;&gt;u57</title>
<path fill="none" stroke="black" d="M480.72,-4198.8C467.73,-4152.4 431.9,-4024.41 416.14,-3968.14"/>
<polygon fill="black" stroke="black" points="419.42,-3966.88 413.36,-3958.2 412.68,-3968.77 419.42,-3966.88"/>
</g>
<!-- u60&#45;&gt;u54 -->
<g id="edge94" class="edge">
<title>u60&#45;&gt;u54</title>
<path fill="none" stroke="black" d="M490.36,-4198.8C503.35,-4152.4 539.19,-4024.41 554.94,-3968.14"/>
<polygon fill="black" stroke="black" points="558.4,-3968.77 557.73,-3958.2 551.66,-3966.88 558.4,-3968.77"/>
</g>
<!-- u60&#45;&gt;u53 -->
<g id="edge93" class="edge">
<title>u60&#45;&gt;u53</title>
<path fill="none" stroke="black" d="M499.12,-4198.8C536.2,-4151.81 639.32,-4021.12 682.8,-3966.02"/>
<polygon fill="black" stroke="black" points="685.8,-3967.86 689.25,-3957.84 680.31,-3963.53 685.8,-3967.86"/>
</g>
<!-- u60&#45;&gt;u55 -->
<g id="edge95" class="edge">
<title>u60&#45;&gt;u55</title>
<path fill="none" stroke="black" d="M462.02,-4199.42C395.11,-4152.23 203.57,-4017.18 127.37,-3963.45"/>
<polygon fill="black" stroke="black" points="129.28,-3960.51 119.09,-3957.6 125.25,-3966.23 129.28,-3960.51"/>
</g>
<!-- u60&#45;&gt;u2 -->
<g id="edge92" class="edge">
<title>u60&#45;&gt;u2</title>
<path fill="none" stroke="black" d="M564.87,-4204.62C872.4,-4160.5 1985.05,-4000.89 2311.75,-3954.02"/>
<polygon fill="black" stroke="black" points="2312.25,-3957.49 2321.65,-3952.6 2311.25,-3950.56 2312.25,-3957.49"/>
</g>
</g>
</svg>
