<?xml version="1.0" encoding="UTF-8" standalone="no"?>
<!DOCTYPE svg PUBLIC "-//W3C//DTD SVG 1.1//EN"
 "http://www.w3.org/Graphics/SVG/1.1/DTD/svg11.dtd">
<!-- Generated by graphviz version 2.43.0 (0)
 -->
<!-- Title: G Pages: 1 -->
<svg width="432pt" height="283pt"
 viewBox="0.00 0.00 432.00 283.38" xmlns="http://www.w3.org/2000/svg" xmlns:xlink="http://www.w3.org/1999/xlink">
<g id="graph0" class="graph" transform="scale(9.61 9.61) rotate(0) translate(4 2718)">
<title>G</title>
<polygon fill="white" stroke="transparent" points="-4,4 -4,-2718 4145.55,-2718 4145.55,4 -4,4"/>
<!-- u28 -->
<g id="node1" class="node">
<title>u28</title>
<ellipse fill="#bbffbb" stroke="black" cx="198.92" cy="-1676" rx="79.09" ry="18"/>
<text text-anchor="middle" x="198.92" y="-1672.3" font-family="Times,serif" font-size="14.00">Drasil.DocDecl</text>
</g>
<!-- u20 -->
<g id="node14" class="node">
<title>u20</title>
<ellipse fill="#bbbbff" stroke="black" cx="997.92" cy="-1038" rx="159.47" ry="18"/>
<text text-anchor="middle" x="997.92" y="-1034.3" font-family="Times,serif" font-size="14.00">Drasil.DocumentLanguage.Core</text>
</g>
<!-- u28&#45;&gt;u20 -->
<g id="edge56" class="edge">
<title>u28&#45;&gt;u20</title>
<path fill="none" stroke="black" d="M177.67,-1658.6C114.76,-1608.07 -61.14,-1451.42 21.92,-1339 127.98,-1195.44 671.14,-1092.1 898.08,-1054.54"/>
<polygon fill="black" stroke="black" points="898.69,-1057.98 907.99,-1052.9 897.55,-1051.08 898.69,-1057.98"/>
</g>
<!-- u7 -->
<g id="node26" class="node">
<title>u7</title>
<ellipse fill="#bbffff" stroke="black" cx="219.92" cy="-1357" rx="149.47" ry="18"/>
<text text-anchor="middle" x="219.92" y="-1353.3" font-family="Times,serif" font-size="14.00">Drasil.Sections.Requirements</text>
</g>
<!-- u28&#45;&gt;u7 -->
<g id="edge55" class="edge">
<title>u28&#45;&gt;u7</title>
<path fill="none" stroke="black" d="M200.05,-1657.96C203.5,-1605.93 213.9,-1448.82 218.12,-1385.19"/>
<polygon fill="black" stroke="black" points="221.62,-1385.34 218.79,-1375.13 214.63,-1384.87 221.62,-1385.34"/>
</g>
<!-- u16 -->
<g id="node2" class="node">
<title>u16</title>
<ellipse fill="#bbffbb" stroke="black" cx="2567.92" cy="-1996" rx="133.78" ry="18"/>
<text text-anchor="middle" x="2567.92" y="-1992.3" font-family="Times,serif" font-size="14.00">Drasil.DocumentLanguage</text>
</g>
<!-- u16&#45;&gt;u28 -->
<g id="edge38" class="edge">
<title>u16&#45;&gt;u28</title>
<path fill="none" stroke="black" d="M2468.45,-1983.94C2150.15,-1948.1 1128.24,-1829.61 287.92,-1694 280.87,-1692.86 273.53,-1691.59 266.21,-1690.28"/>
<polygon fill="black" stroke="black" points="266.75,-1686.82 256.29,-1688.46 265.49,-1693.7 266.75,-1686.82"/>
</g>
<!-- u3 -->
<g id="node3" class="node">
<title>u3</title>
<ellipse fill="#bbffbb" stroke="black" cx="388.92" cy="-1676" rx="92.08" ry="18"/>
<text text-anchor="middle" x="388.92" y="-1672.3" font-family="Times,serif" font-size="14.00">Drasil.TraceTable</text>
</g>
<!-- u16&#45;&gt;u3 -->
<g id="edge31" class="edge">
<title>u16&#45;&gt;u3</title>
<path fill="none" stroke="black" d="M2477.99,-1982.66C2189.11,-1942.88 1258.88,-1813.63 490.92,-1694 482.91,-1692.75 474.56,-1691.42 466.23,-1690.06"/>
<polygon fill="black" stroke="black" points="466.53,-1686.57 456.1,-1688.4 465.4,-1693.47 466.53,-1686.57"/>
</g>
<!-- u0 -->
<g id="node6" class="node">
<title>u0</title>
<ellipse fill="#bbffbb" stroke="black" cx="615.92" cy="-1676" rx="116.18" ry="18"/>
<text text-anchor="middle" x="615.92" y="-1672.3" font-family="Times,serif" font-size="14.00">Drasil.ExtractDocDesc</text>
</g>
<!-- u16&#45;&gt;u0 -->
<g id="edge30" class="edge">
<title>u16&#45;&gt;u0</title>
<path fill="none" stroke="black" d="M2486.22,-1981.69C2170.1,-1930.19 1028.62,-1744.23 703.12,-1691.2"/>
<polygon fill="black" stroke="black" points="703.24,-1687.68 692.8,-1689.52 702.11,-1694.59 703.24,-1687.68"/>
</g>
<!-- u19 -->
<g id="node7" class="node">
<title>u19</title>
<ellipse fill="#ffffbb" stroke="black" cx="1498.92" cy="-1676" rx="136.48" ry="18"/>
<text text-anchor="middle" x="1498.92" y="-1672.3" font-family="Times,serif" font-size="14.00">Drasil.DocLang.References</text>
</g>
<!-- u16&#45;&gt;u19 -->
<g id="edge36" class="edge">
<title>u16&#45;&gt;u19</title>
<path fill="none" stroke="black" d="M2515.27,-1979.34C2336.63,-1926.2 1753.98,-1752.87 1561.37,-1695.58"/>
<polygon fill="black" stroke="black" points="1562.26,-1692.19 1551.68,-1692.69 1560.26,-1698.9 1562.26,-1692.19"/>
</g>
<!-- u23 -->
<g id="node11" class="node">
<title>u23</title>
<ellipse fill="#bbbbff" stroke="black" cx="2272.92" cy="-1676" rx="220.96" ry="18"/>
<text text-anchor="middle" x="2272.92" y="-1672.3" font-family="Times,serif" font-size="14.00">Drasil.DocumentLanguage.TraceabilityGraph</text>
</g>
<!-- u16&#45;&gt;u23 -->
<g id="edge37" class="edge">
<title>u16&#45;&gt;u23</title>
<path fill="none" stroke="black" d="M2552.06,-1977.9C2502.94,-1924.95 2353.19,-1763.52 2295.71,-1701.57"/>
<polygon fill="black" stroke="black" points="2298.23,-1699.13 2288.86,-1694.18 2293.1,-1703.89 2298.23,-1699.13"/>
</g>
<!-- u14 -->
<g id="node19" class="node">
<title>u14</title>
<ellipse fill="#bbffff" stroke="black" cx="3198.92" cy="-1357" rx="163.27" ry="18"/>
<text text-anchor="middle" x="3198.92" y="-1353.3" font-family="Times,serif" font-size="14.00">Drasil.Sections.GeneralSystDesc</text>
</g>
<!-- u16&#45;&gt;u14 -->
<g id="edge35" class="edge">
<title>u16&#45;&gt;u14</title>
<path fill="none" stroke="black" d="M2584.8,-1977.96C2672.08,-1889.85 3072.17,-1485.95 3174.85,-1382.3"/>
<polygon fill="black" stroke="black" points="3177.44,-1384.66 3181.99,-1375.09 3172.47,-1379.73 3177.44,-1384.66"/>
</g>
<!-- u11 -->
<g id="node22" class="node">
<title>u11</title>
<ellipse fill="#bbffff" stroke="black" cx="2856.92" cy="-1357" rx="161.37" ry="18"/>
<text text-anchor="middle" x="2856.92" y="-1353.3" font-family="Times,serif" font-size="14.00">Drasil.Sections.TableOfContents</text>
</g>
<!-- u16&#45;&gt;u11 -->
<g id="edge34" class="edge">
<title>u16&#45;&gt;u11</title>
<path fill="none" stroke="black" d="M2575.65,-1977.96C2615.39,-1890.38 2796.67,-1490.79 2845.04,-1384.2"/>
<polygon fill="black" stroke="black" points="2848.22,-1385.64 2849.17,-1375.09 2841.85,-1382.75 2848.22,-1385.64"/>
</g>
<!-- u6 -->
<g id="node27" class="node">
<title>u6</title>
<ellipse fill="#bbffff" stroke="black" cx="3559.92" cy="-1357" rx="141.88" ry="18"/>
<text text-anchor="middle" x="3559.92" y="-1353.3" font-family="Times,serif" font-size="14.00">Drasil.Sections.Introduction</text>
</g>
<!-- u16&#45;&gt;u6 -->
<g id="edge33" class="edge">
<title>u16&#45;&gt;u6</title>
<path fill="none" stroke="black" d="M2634.23,-1980.34C2770.67,-1947.67 3088.03,-1858.47 3302.92,-1694 3420.83,-1603.75 3512.8,-1446.48 3546.26,-1384.34"/>
<polygon fill="black" stroke="black" points="3549.51,-1385.68 3551.12,-1375.21 3543.33,-1382.39 3549.51,-1385.68"/>
</g>
<!-- u5 -->
<g id="node28" class="node">
<title>u5</title>
<ellipse fill="#bbffff" stroke="black" cx="3148.92" cy="-1676" rx="144.87" ry="18"/>
<text text-anchor="middle" x="3148.92" y="-1672.3" font-family="Times,serif" font-size="14.00">Drasil.Sections.Stakeholders</text>
</g>
<!-- u16&#45;&gt;u5 -->
<g id="edge32" class="edge">
<title>u16&#45;&gt;u5</title>
<path fill="none" stroke="black" d="M2598.34,-1978.35C2695.78,-1925.02 3000.18,-1758.41 3109.41,-1698.63"/>
<polygon fill="black" stroke="black" points="3111.36,-1701.55 3118.45,-1693.68 3108,-1695.41 3111.36,-1701.55"/>
</g>
<!-- u3&#45;&gt;u20 -->
<g id="edge6" class="edge">
<title>u3&#45;&gt;u20</title>
<path fill="none" stroke="black" d="M348.44,-1659.79C236.54,-1615.47 -62.06,-1480.61 41.92,-1339 145.66,-1197.72 678.51,-1092.96 900.58,-1054.78"/>
<polygon fill="black" stroke="black" points="901.33,-1058.2 910.6,-1053.06 900.15,-1051.3 901.33,-1058.2"/>
</g>
<!-- u2 -->
<g id="node4" class="node">
<title>u2</title>
<ellipse fill="#bbffbb" stroke="black" cx="2899.92" cy="-2315" rx="81.79" ry="18"/>
<text text-anchor="middle" x="2899.92" y="-2311.3" font-family="Times,serif" font-size="14.00">Drasil.DocLang</text>
</g>
<!-- u2&#45;&gt;u16 -->
<g id="edge4" class="edge">
<title>u2&#45;&gt;u16</title>
<path fill="none" stroke="black" d="M2882.54,-2297.4C2827.67,-2245.01 2657.94,-2082.95 2593.29,-2021.22"/>
<polygon fill="black" stroke="black" points="2595.59,-2018.58 2585.94,-2014.2 2590.75,-2023.64 2595.59,-2018.58"/>
</g>
<!-- u26 -->
<g id="node15" class="node">
<title>u26</title>
<ellipse fill="#ffbbbb" stroke="black" cx="3540.92" cy="-1996" rx="276.75" ry="18"/>
<text text-anchor="middle" x="3540.92" y="-1992.3" font-family="Times,serif" font-size="14.00">Drasil.DocumentLanguage.Notebook.DocumentLanguage</text>
</g>
<!-- u2&#45;&gt;u26 -->
<g id="edge5" class="edge">
<title>u2&#45;&gt;u26</title>
<path fill="none" stroke="black" d="M2931.71,-2298.28C3037.33,-2246.05 3376.71,-2078.21 3497.63,-2018.41"/>
<polygon fill="black" stroke="black" points="3499.21,-2021.53 3506.63,-2013.96 3496.11,-2015.26 3499.21,-2021.53"/>
</g>
<!-- u1 -->
<g id="node5" class="node">
<title>u1</title>
<ellipse fill="#bbffbb" stroke="black" cx="2899.92" cy="-2634" rx="108.58" ry="18"/>
<text text-anchor="middle" x="2899.92" y="-2630.3" font-family="Times,serif" font-size="14.00">Drasil.SRSDocument</text>
</g>
<!-- u1&#45;&gt;u2 -->
<g id="edge3" class="edge">
<title>u1&#45;&gt;u2</title>
<path fill="none" stroke="black" d="M2899.92,-2615.96C2899.92,-2563.93 2899.92,-2406.82 2899.92,-2343.19"/>
<polygon fill="black" stroke="black" points="2903.42,-2343.13 2899.92,-2333.13 2896.42,-2343.13 2903.42,-2343.13"/>
</g>
<!-- u0&#45;&gt;u20 -->
<g id="edge2" class="edge">
<title>u0&#45;&gt;u20</title>
<path fill="none" stroke="black" d="M540.89,-1662.18C360.36,-1628.05 -73.58,-1524.72 61.92,-1339 163.28,-1200.08 685.22,-1093.95 902.66,-1055.09"/>
<polygon fill="black" stroke="black" points="903.55,-1058.48 912.78,-1053.29 902.32,-1051.59 903.55,-1058.48"/>
</g>
<!-- u4 -->
<g id="node29" class="node">
<title>u4</title>
<ellipse fill="#bbffff" stroke="black" cx="594.92" cy="-1357" rx="207.96" ry="18"/>
<text text-anchor="middle" x="594.92" y="-1353.3" font-family="Times,serif" font-size="14.00">Drasil.Sections.SpecificSystemDescription</text>
</g>
<!-- u0&#45;&gt;u4 -->
<g id="edge1" class="edge">
<title>u0&#45;&gt;u4</title>
<path fill="none" stroke="black" d="M614.79,-1657.96C611.35,-1605.93 600.94,-1448.82 596.72,-1385.19"/>
<polygon fill="black" stroke="black" points="600.21,-1384.87 596.06,-1375.13 593.22,-1385.34 600.21,-1384.87"/>
</g>
<!-- u15 -->
<g id="node18" class="node">
<title>u15</title>
<ellipse fill="#bbffff" stroke="black" cx="997.92" cy="-1357" rx="177.37" ry="18"/>
<text text-anchor="middle" x="997.92" y="-1353.3" font-family="Times,serif" font-size="14.00">Drasil.Sections.TraceabilityMandGs</text>
</g>
<!-- u19&#45;&gt;u15 -->
<g id="edge45" class="edge">
<title>u19&#45;&gt;u15</title>
<path fill="none" stroke="black" d="M1472.34,-1658.18C1388.36,-1605.05 1128.71,-1440.75 1033.44,-1380.47"/>
<polygon fill="black" stroke="black" points="1035.07,-1377.36 1024.74,-1374.97 1031.32,-1383.28 1035.07,-1377.36"/>
</g>
<!-- u13 -->
<g id="node20" class="node">
<title>u13</title>
<ellipse fill="#bbffff" stroke="black" cx="1337.92" cy="-1357" rx="144.87" ry="18"/>
<text text-anchor="middle" x="1337.92" y="-1353.3" font-family="Times,serif" font-size="14.00">Drasil.Sections.TableOfUnits</text>
</g>
<!-- u19&#45;&gt;u13 -->
<g id="edge44" class="edge">
<title>u19&#45;&gt;u13</title>
<path fill="none" stroke="black" d="M1490.27,-1657.96C1463.73,-1605.71 1383.39,-1447.52 1351.33,-1384.41"/>
<polygon fill="black" stroke="black" points="1354.27,-1382.46 1346.62,-1375.13 1348.03,-1385.63 1354.27,-1382.46"/>
</g>
<!-- u12 -->
<g id="node21" class="node">
<title>u12</title>
<ellipse fill="#bbffff" stroke="black" cx="2467.92" cy="-1357" rx="172.47" ry="18"/>
<text text-anchor="middle" x="2467.92" y="-1353.3" font-family="Times,serif" font-size="14.00">Drasil.Sections.AuxiliaryConstants</text>
</g>
<!-- u19&#45;&gt;u12 -->
<g id="edge43" class="edge">
<title>u19&#45;&gt;u12</title>
<path fill="none" stroke="black" d="M1547.64,-1659.06C1709.89,-1605.98 2231.63,-1435.3 2408.58,-1377.41"/>
<polygon fill="black" stroke="black" points="2409.82,-1380.69 2418.24,-1374.25 2407.65,-1374.04 2409.82,-1380.69"/>
</g>
<!-- u10 -->
<g id="node23" class="node">
<title>u10</title>
<ellipse fill="#bbffff" stroke="black" cx="1659.92" cy="-1357" rx="159.47" ry="18"/>
<text text-anchor="middle" x="1659.92" y="-1353.3" font-family="Times,serif" font-size="14.00">Drasil.Sections.TableOfSymbols</text>
</g>
<!-- u19&#45;&gt;u10 -->
<g id="edge42" class="edge">
<title>u19&#45;&gt;u10</title>
<path fill="none" stroke="black" d="M1507.58,-1657.96C1534.11,-1605.71 1614.46,-1447.52 1646.51,-1384.41"/>
<polygon fill="black" stroke="black" points="1649.81,-1385.63 1651.22,-1375.13 1643.57,-1382.46 1649.81,-1385.63"/>
</g>
<!-- u8 -->
<g id="node25" class="node">
<title>u8</title>
<ellipse fill="#bbffff" stroke="black" cx="2038.92" cy="-1357" rx="201.46" ry="18"/>
<text text-anchor="middle" x="2038.92" y="-1353.3" font-family="Times,serif" font-size="14.00">Drasil.Sections.TableOfAbbAndAcronyms</text>
</g>
<!-- u19&#45;&gt;u8 -->
<g id="edge41" class="edge">
<title>u19&#45;&gt;u8</title>
<path fill="none" stroke="black" d="M1527.57,-1658.18C1618.27,-1604.94 1899.08,-1440.09 2001.26,-1380.11"/>
<polygon fill="black" stroke="black" points="2003.16,-1383.05 2010.01,-1374.97 1999.62,-1377.02 2003.16,-1383.05"/>
</g>
<!-- u19&#45;&gt;u7 -->
<g id="edge40" class="edge">
<title>u19&#45;&gt;u7</title>
<path fill="none" stroke="black" d="M1437.66,-1659.82C1225.19,-1607.15 520.44,-1432.48 292.05,-1375.88"/>
<polygon fill="black" stroke="black" points="292.73,-1372.44 282.18,-1373.43 291.04,-1379.23 292.73,-1372.44"/>
</g>
<!-- u19&#45;&gt;u4 -->
<g id="edge39" class="edge">
<title>u19&#45;&gt;u4</title>
<path fill="none" stroke="black" d="M1453.16,-1658.95C1301.93,-1605.92 818.36,-1436.35 651.87,-1377.97"/>
<polygon fill="black" stroke="black" points="652.9,-1374.62 642.31,-1374.62 650.59,-1381.23 652.9,-1374.62"/>
</g>
<!-- u18 -->
<g id="node8" class="node">
<title>u18</title>
<ellipse fill="#ffffbb" stroke="black" cx="3540.92" cy="-1676" rx="129.18" ry="18"/>
<text text-anchor="middle" x="3540.92" y="-1672.3" font-family="Times,serif" font-size="14.00">Drasil.DocLang.Notebook</text>
</g>
<!-- u17 -->
<g id="node9" class="node">
<title>u17</title>
<ellipse fill="#ffffbb" stroke="black" cx="2761.92" cy="-1038" rx="104.78" ry="18"/>
<text text-anchor="middle" x="2761.92" y="-1034.3" font-family="Times,serif" font-size="14.00">Drasil.DocLang.SRS</text>
</g>
<!-- u27 -->
<g id="node10" class="node">
<title>u27</title>
<ellipse fill="#bbbbff" stroke="black" cx="1464.92" cy="-399" rx="187.37" ry="18"/>
<text text-anchor="middle" x="1464.92" y="-395.3" font-family="Times,serif" font-size="14.00">Drasil.DocumentLanguage.Definitions</text>
</g>
<!-- u22 -->
<g id="node12" class="node">
<title>u22</title>
<ellipse fill="#bbbbff" stroke="black" cx="1464.92" cy="-80" rx="162.47" ry="18"/>
<text text-anchor="middle" x="1464.92" y="-76.3" font-family="Times,serif" font-size="14.00">Drasil.DocumentLanguage.Units</text>
</g>
<!-- u27&#45;&gt;u22 -->
<g id="edge54" class="edge">
<title>u27&#45;&gt;u22</title>
<path fill="none" stroke="black" d="M1464.92,-380.96C1464.92,-328.93 1464.92,-171.82 1464.92,-108.19"/>
<polygon fill="black" stroke="black" points="1468.42,-108.13 1464.92,-98.13 1461.42,-108.13 1468.42,-108.13"/>
</g>
<!-- u23&#45;&gt;u17 -->
<g id="edge50" class="edge">
<title>u23&#45;&gt;u17</title>
<path fill="none" stroke="black" d="M2304.73,-1658.15C2376.64,-1618.49 2552.88,-1512.15 2648.92,-1375 2719.35,-1274.42 2748.64,-1126.52 2758.13,-1066.16"/>
<polygon fill="black" stroke="black" points="2761.59,-1066.67 2759.63,-1056.26 2754.67,-1065.63 2761.59,-1066.67"/>
</g>
<!-- u23&#45;&gt;u15 -->
<g id="edge49" class="edge">
<title>u23&#45;&gt;u15</title>
<path fill="none" stroke="black" d="M2207.5,-1658.73C1991.09,-1604.93 1299.21,-1432.91 1071.41,-1376.27"/>
<polygon fill="black" stroke="black" points="1072.12,-1372.84 1061.57,-1373.82 1070.43,-1379.63 1072.12,-1372.84"/>
</g>
<!-- u9 -->
<g id="node24" class="node">
<title>u9</title>
<ellipse fill="#bbffff" stroke="black" cx="2038.92" cy="-1038" rx="170.07" ry="18"/>
<text text-anchor="middle" x="2038.92" y="-1034.3" font-family="Times,serif" font-size="14.00">Drasil.Sections.ReferenceMaterial</text>
</g>
<!-- u23&#45;&gt;u9 -->
<g id="edge48" class="edge">
<title>u23&#45;&gt;u9</title>
<path fill="none" stroke="black" d="M2274.82,-1657.93C2279.78,-1607.42 2290.09,-1455.02 2248.92,-1339 2207.83,-1223.22 2109.12,-1111.29 2063.19,-1063.37"/>
<polygon fill="black" stroke="black" points="2065.5,-1060.73 2056.03,-1055.98 2060.47,-1065.6 2065.5,-1060.73"/>
</g>
<!-- u21 -->
<g id="node13" class="node">
<title>u21</title>
<ellipse fill="#bbbbff" stroke="black" cx="997.92" cy="-718" rx="223.66" ry="18"/>
<text text-anchor="middle" x="997.92" y="-714.3" font-family="Times,serif" font-size="14.00">Drasil.DocumentLanguage.TraceabilityMatrix</text>
</g>
<!-- u21&#45;&gt;u27 -->
<g id="edge47" class="edge">
<title>u21&#45;&gt;u27</title>
<path fill="none" stroke="black" d="M1023.03,-699.96C1101.59,-646.63 1342.78,-482.91 1431.62,-422.61"/>
<polygon fill="black" stroke="black" points="1433.67,-425.45 1439.97,-416.93 1429.73,-419.66 1433.67,-425.45"/>
</g>
<!-- u20&#45;&gt;u21 -->
<g id="edge46" class="edge">
<title>u20&#45;&gt;u21</title>
<path fill="none" stroke="black" d="M997.92,-1019.9C997.92,-967.71 997.92,-810.1 997.92,-746.28"/>
<polygon fill="black" stroke="black" points="1001.42,-746.18 997.92,-736.18 994.42,-746.18 1001.42,-746.18"/>
</g>
<!-- u26&#45;&gt;u18 -->
<g id="edge52" class="edge">
<title>u26&#45;&gt;u18</title>
<path fill="none" stroke="black" d="M3540.92,-1977.9C3540.92,-1925.71 3540.92,-1768.1 3540.92,-1704.28"/>
<polygon fill="black" stroke="black" points="3544.42,-1704.18 3540.92,-1694.18 3537.42,-1704.18 3544.42,-1704.18"/>
</g>
<!-- u25 -->
<g id="node16" class="node">
<title>u25</title>
<ellipse fill="#ffbbbb" stroke="black" cx="3919.92" cy="-1676" rx="221.76" ry="18"/>
<text text-anchor="middle" x="3919.92" y="-1672.3" font-family="Times,serif" font-size="14.00">Drasil.DocumentLanguage.Notebook.LsnDecl</text>
</g>
<!-- u26&#45;&gt;u25 -->
<g id="edge53" class="edge">
<title>u26&#45;&gt;u25</title>
<path fill="none" stroke="black" d="M3561.3,-1977.9C3624.66,-1924.74 3818.37,-1762.21 3891.54,-1700.82"/>
<polygon fill="black" stroke="black" points="3894.03,-1703.29 3899.44,-1694.18 3889.53,-1697.93 3894.03,-1703.29"/>
</g>
<!-- u24 -->
<g id="node17" class="node">
<title>u24</title>
<ellipse fill="#ffbbbb" stroke="black" cx="3925.92" cy="-1357" rx="206.06" ry="18"/>
<text text-anchor="middle" x="3925.92" y="-1353.3" font-family="Times,serif" font-size="14.00">Drasil.DocumentLanguage.Notebook.Core</text>
</g>
<!-- u25&#45;&gt;u24 -->
<g id="edge51" class="edge">
<title>u25&#45;&gt;u24</title>
<path fill="none" stroke="black" d="M3920.24,-1657.96C3921.23,-1605.93 3924.2,-1448.82 3925.41,-1385.19"/>
<polygon fill="black" stroke="black" points="3928.91,-1385.19 3925.6,-1375.13 3921.91,-1385.06 3928.91,-1385.19"/>
</g>
<!-- u15&#45;&gt;u20 -->
<g id="edge29" class="edge">
<title>u15&#45;&gt;u20</title>
<path fill="none" stroke="black" d="M997.92,-1338.96C997.92,-1286.93 997.92,-1129.82 997.92,-1066.19"/>
<polygon fill="black" stroke="black" points="1001.42,-1066.13 997.92,-1056.13 994.42,-1066.13 1001.42,-1066.13"/>
</g>
<!-- u14&#45;&gt;u17 -->
<g id="edge28" class="edge">
<title>u14&#45;&gt;u17</title>
<path fill="none" stroke="black" d="M3175.73,-1339.18C3102.54,-1286.08 2876.32,-1121.98 2793.08,-1061.6"/>
<polygon fill="black" stroke="black" points="2794.94,-1058.63 2784.79,-1055.59 2790.83,-1064.29 2794.94,-1058.63"/>
</g>
<!-- u14&#45;&gt;u9 -->
<g id="edge27" class="edge">
<title>u14&#45;&gt;u9</title>
<path fill="none" stroke="black" d="M3141,-1340.17C2946.43,-1287 2316.79,-1114.93 2107.37,-1057.7"/>
<polygon fill="black" stroke="black" points="2107.99,-1054.25 2097.42,-1054.99 2106.14,-1061 2107.99,-1054.25"/>
</g>
<!-- u13&#45;&gt;u20 -->
<g id="edge26" class="edge">
<title>u13&#45;&gt;u20</title>
<path fill="none" stroke="black" d="M1319.64,-1338.96C1262.91,-1286.07 1089.73,-1124.6 1023.79,-1063.12"/>
<polygon fill="black" stroke="black" points="1025.99,-1060.39 1016.29,-1056.13 1021.22,-1065.51 1025.99,-1060.39"/>
</g>
<!-- u13&#45;&gt;u9 -->
<g id="edge25" class="edge">
<title>u13&#45;&gt;u9</title>
<path fill="none" stroke="black" d="M1374.62,-1339.4C1492.66,-1286.02 1862.42,-1118.82 1992.83,-1059.84"/>
<polygon fill="black" stroke="black" points="1994.49,-1062.93 2002.16,-1055.62 1991.61,-1056.55 1994.49,-1062.93"/>
</g>
<!-- u12&#45;&gt;u17 -->
<g id="edge23" class="edge">
<title>u12&#45;&gt;u17</title>
<path fill="none" stroke="black" d="M2483.73,-1338.96C2532.68,-1286.17 2681.93,-1125.25 2739.21,-1063.49"/>
<polygon fill="black" stroke="black" points="2741.8,-1065.84 2746.04,-1056.13 2736.67,-1061.08 2741.8,-1065.84"/>
</g>
<!-- u12&#45;&gt;u22 -->
<g id="edge24" class="edge">
<title>u12&#45;&gt;u22</title>
<path fill="none" stroke="black" d="M2455.39,-1338.7C2419.18,-1288.81 2311.05,-1140.54 2217.92,-1020 1933.41,-651.74 1574.07,-213.6 1485.39,-105.84"/>
<polygon fill="black" stroke="black" points="1488.07,-103.59 1479.02,-98.1 1482.67,-108.04 1488.07,-103.59"/>
</g>
<!-- u12&#45;&gt;u9 -->
<g id="edge22" class="edge">
<title>u12&#45;&gt;u9</title>
<path fill="none" stroke="black" d="M2444.86,-1338.96C2372.9,-1285.79 2152.47,-1122.9 2070.26,-1062.16"/>
<polygon fill="black" stroke="black" points="2071.96,-1059.06 2061.84,-1055.93 2067.8,-1064.69 2071.96,-1059.06"/>
</g>
<!-- u11&#45;&gt;u17 -->
<g id="edge20" class="edge">
<title>u11&#45;&gt;u17</title>
<path fill="none" stroke="black" d="M2851.81,-1338.96C2836.19,-1286.82 2788.94,-1129.17 2769.95,-1065.8"/>
<polygon fill="black" stroke="black" points="2773.28,-1064.7 2767.05,-1056.13 2766.57,-1066.71 2773.28,-1064.7"/>
</g>
<!-- u11&#45;&gt;u20 -->
<g id="edge21" class="edge">
<title>u11&#45;&gt;u20</title>
<path fill="none" stroke="black" d="M2772.52,-1341.61C2466.12,-1289.36 1413.71,-1109.9 1092.06,-1055.05"/>
<polygon fill="black" stroke="black" points="1092.29,-1051.54 1081.84,-1053.31 1091.11,-1058.44 1092.29,-1051.54"/>
</g>
<!-- u10&#45;&gt;u20 -->
<g id="edge19" class="edge">
<title>u10&#45;&gt;u20</title>
<path fill="none" stroke="black" d="M1625.26,-1339.4C1513.9,-1286.08 1165.3,-1119.15 1041.82,-1060.02"/>
<polygon fill="black" stroke="black" points="1043.17,-1056.79 1032.64,-1055.62 1040.14,-1063.1 1043.17,-1056.79"/>
</g>
<!-- u10&#45;&gt;u9 -->
<g id="edge18" class="edge">
<title>u10&#45;&gt;u9</title>
<path fill="none" stroke="black" d="M1680.3,-1338.96C1743.66,-1285.96 1937.37,-1123.94 2010.54,-1062.74"/>
<polygon fill="black" stroke="black" points="2013.02,-1065.23 2018.44,-1056.13 2008.53,-1059.86 2013.02,-1065.23"/>
</g>
<!-- u8&#45;&gt;u9 -->
<g id="edge17" class="edge">
<title>u8&#45;&gt;u9</title>
<path fill="none" stroke="black" d="M2038.92,-1338.96C2038.92,-1286.93 2038.92,-1129.82 2038.92,-1066.19"/>
<polygon fill="black" stroke="black" points="2042.42,-1066.13 2038.92,-1056.13 2035.42,-1066.13 2042.42,-1066.13"/>
</g>
<!-- u7&#45;&gt;u17 -->
<g id="edge15" class="edge">
<title>u7&#45;&gt;u17</title>
<path fill="none" stroke="black" d="M319.57,-1343.57C728.54,-1292.57 2275.16,-1099.7 2669.81,-1050.49"/>
<polygon fill="black" stroke="black" points="2670.26,-1053.96 2679.75,-1049.25 2669.4,-1047.01 2670.26,-1053.96"/>
</g>
<!-- u7&#45;&gt;u22 -->
<g id="edge16" class="edge">
<title>u7&#45;&gt;u22</title>
<path fill="none" stroke="black" d="M298.64,-1341.6C503.75,-1302.51 1046.94,-1188.4 1165.92,-1056 1368.76,-830.28 1166.95,-666.83 1268.92,-381 1309.33,-267.72 1400.48,-154.45 1442.69,-105.78"/>
<polygon fill="black" stroke="black" points="1445.55,-107.82 1449.51,-97.99 1440.29,-103.21 1445.55,-107.82"/>
</g>
<!-- u7&#45;&gt;u9 -->
<g id="edge14" class="edge">
<title>u7&#45;&gt;u9</title>
<path fill="none" stroke="black" d="M301.02,-1341.87C598.21,-1290.07 1626.88,-1110.81 1944.66,-1055.43"/>
<polygon fill="black" stroke="black" points="1945.51,-1058.83 1954.76,-1053.67 1944.3,-1051.94 1945.51,-1058.83"/>
</g>
<!-- u6&#45;&gt;u17 -->
<g id="edge12" class="edge">
<title>u6&#45;&gt;u17</title>
<path fill="none" stroke="black" d="M3518.97,-1339.73C3384.52,-1286.32 2956.84,-1116.43 2811.11,-1058.54"/>
<polygon fill="black" stroke="black" points="2812.11,-1055.17 2801.52,-1054.73 2809.52,-1061.67 2812.11,-1055.17"/>
</g>
<!-- u6&#45;&gt;u27 -->
<g id="edge13" class="edge">
<title>u6&#45;&gt;u27</title>
<path fill="none" stroke="black" d="M3527.41,-1339.42C3429.58,-1289.64 3129.05,-1137.72 2875.92,-1020 2346.78,-773.92 1695.12,-497.13 1513.76,-420.57"/>
<polygon fill="black" stroke="black" points="1515.05,-417.31 1504.47,-416.65 1512.33,-423.76 1515.05,-417.31"/>
</g>
<!-- u6&#45;&gt;u9 -->
<g id="edge11" class="edge">
<title>u6&#45;&gt;u9</title>
<path fill="none" stroke="black" d="M3489.61,-1341.35C3239.41,-1289.2 2392.87,-1112.77 2122.6,-1056.44"/>
<polygon fill="black" stroke="black" points="2122.96,-1052.94 2112.46,-1054.33 2121.54,-1059.79 2122.96,-1052.94"/>
</g>
<!-- u5&#45;&gt;u17 -->
<g id="edge10" class="edge">
<title>u5&#45;&gt;u17</title>
<path fill="none" stroke="black" d="M3175.63,-1658.25C3249.88,-1609.55 3448.39,-1463.52 3370.92,-1339 3255.21,-1153.01 2986.54,-1078.96 2847.98,-1052.34"/>
<polygon fill="black" stroke="black" points="2848.3,-1048.84 2837.83,-1050.43 2847.01,-1055.72 2848.3,-1048.84"/>
</g>
<!-- u4&#45;&gt;u17 -->
<g id="edge8" class="edge">
<title>u4&#45;&gt;u17</title>
<path fill="none" stroke="black" d="M695.81,-1341.24C1063.88,-1287.4 2330.85,-1102.06 2675.04,-1051.71"/>
<polygon fill="black" stroke="black" points="2675.56,-1055.17 2684.95,-1050.26 2674.55,-1048.24 2675.56,-1055.17"/>
</g>
<!-- u4&#45;&gt;u27 -->
<g id="edge9" class="edge">
<title>u4&#45;&gt;u27</title>
<path fill="none" stroke="black" d="M683.05,-1340.67C825.82,-1311.22 1107.43,-1233.24 1263.92,-1056 1435.1,-862.12 1460.5,-525.2 1464.27,-427.37"/>
<polygon fill="black" stroke="black" points="1467.77,-427.25 1464.61,-417.14 1460.78,-427.02 1467.77,-427.25"/>
</g>
<!-- u4&#45;&gt;u9 -->
<g id="edge7" class="edge">
<title>u4&#45;&gt;u9</title>
<path fill="none" stroke="black" d="M667.52,-1340.06C911.89,-1286.42 1703.53,-1112.63 1958.79,-1056.59"/>
<polygon fill="black" stroke="black" points="1959.72,-1059.97 1968.73,-1054.41 1958.22,-1053.13 1959.72,-1059.97"/>
</g>
</g>
</svg>
