<?xml version="1.0" encoding="UTF-8" standalone="no"?>
<!DOCTYPE svg PUBLIC "-//W3C//DTD SVG 1.1//EN"
 "http://www.w3.org/Graphics/SVG/1.1/DTD/svg11.dtd">
<!-- Generated by graphviz version 2.43.0 (0)
 -->
<!-- Title: G Pages: 1 -->
<svg width="432pt" height="288pt"
 viewBox="0.00 0.00 431.81 288.00" xmlns="http://www.w3.org/2000/svg" xmlns:xlink="http://www.w3.org/1999/xlink">
<g id="graph0" class="graph" transform="scale(0.06 0.06) rotate(0) translate(4 4736)">
<title>G</title>
<polygon fill="white" stroke="transparent" points="-4,4 -4,-4736 7102.95,-4736 7102.95,4 -4,4"/>
<!-- u4 -->
<g id="node1" class="node">
<title>u4</title>
<ellipse fill="#bbffbb" stroke="black" cx="840.73" cy="-4350" rx="62.29" ry="18"/>
<text text-anchor="middle" x="840.73" y="-4346.3" font-family="Times,serif" font-size="14.00">HelloWorld</text>
</g>
<!-- u1 -->
<g id="node4" class="node">
<title>u1</title>
<ellipse fill="#bbffbb" stroke="black" cx="840.73" cy="-4045" rx="42.49" ry="18"/>
<text text-anchor="middle" x="840.73" y="-4041.3" font-family="Times,serif" font-size="14.00">Helper</text>
</g>
<!-- u4&#45;&gt;u1 -->
<g id="edge1" class="edge">
<title>u4&#45;&gt;u1</title>
<path fill="none" stroke="black" d="M840.73,-4331.84C840.73,-4281.65 840.73,-4134.79 840.73,-4073.43"/>
<polygon fill="black" stroke="black" points="844.23,-4073.35 840.73,-4063.35 837.23,-4073.35 844.23,-4073.35"/>
</g>
<!-- u3 -->
<g id="node2" class="node">
<title>u3</title>
<ellipse fill="#bbffbb" stroke="black" cx="980.73" cy="-4350" rx="59.59" ry="18"/>
<text text-anchor="middle" x="980.73" y="-4346.3" font-family="Times,serif" font-size="14.00">VectorTest</text>
</g>
<!-- u2 -->
<g id="node3" class="node">
<title>u2</title>
<ellipse fill="#bbffbb" stroke="black" cx="1134.73" cy="-4350" rx="76.09" ry="18"/>
<text text-anchor="middle" x="1134.73" y="-4346.3" font-family="Times,serif" font-size="14.00">NameGenTest</text>
</g>
<!-- u0 -->
<g id="node5" class="node">
<title>u0</title>
<ellipse fill="#bbffbb" stroke="black" cx="1281.73" cy="-4350" rx="52.79" ry="18"/>
<text text-anchor="middle" x="1281.73" y="-4346.3" font-family="Times,serif" font-size="14.00">FileTests</text>
</g>
<!-- u8 -->
<g id="node6" class="node">
<title>u8</title>
<ellipse fill="#ffffbb" stroke="black" cx="1570.73" cy="-1908" rx="214.46" ry="18"/>
<text text-anchor="middle" x="1570.73" y="-1904.3" font-family="Times,serif" font-size="14.00">Data.Drasil.ExternalLibraries.ODELibraries</text>
</g>
<!-- u9 -->
<g id="node59" class="node">
<title>u9</title>
<ellipse fill="#ff77ff" stroke="black" cx="1570.73" cy="-1603" rx="172.77" ry="18"/>
<text text-anchor="middle" x="1570.73" y="-1599.3" font-family="Times,serif" font-size="14.00">Language.Drasil.Data.ODELibPckg</text>
</g>
<!-- u8&#45;&gt;u9 -->
<g id="edge10" class="edge">
<title>u8&#45;&gt;u9</title>
<path fill="none" stroke="black" d="M1570.73,-1889.84C1570.73,-1839.65 1570.73,-1692.79 1570.73,-1631.43"/>
<polygon fill="black" stroke="black" points="1574.23,-1631.35 1570.73,-1621.35 1567.23,-1631.35 1574.23,-1631.35"/>
</g>
<!-- u7 -->
<g id="node7" class="node">
<title>u7</title>
<ellipse fill="#bbbbff" stroke="black" cx="1447.73" cy="-4350" rx="95.58" ry="18"/>
<text text-anchor="middle" x="1447.73" y="-4346.3" font-family="Times,serif" font-size="14.00">GOOL.PatternTest</text>
</g>
<!-- u6 -->
<g id="node8" class="node">
<title>u6</title>
<ellipse fill="#bbbbff" stroke="black" cx="1382.73" cy="-4045" rx="84.49" ry="18"/>
<text text-anchor="middle" x="1382.73" y="-4041.3" font-family="Times,serif" font-size="14.00">GOOL.Observer</text>
</g>
<!-- u7&#45;&gt;u6 -->
<g id="edge9" class="edge">
<title>u7&#45;&gt;u6</title>
<path fill="none" stroke="black" d="M1444.05,-4331.84C1433.28,-4281.65 1401.78,-4134.79 1388.62,-4073.43"/>
<polygon fill="black" stroke="black" points="1391.97,-4072.39 1386.45,-4063.35 1385.13,-4073.86 1391.97,-4072.39"/>
</g>
<!-- u59 -->
<g id="node9" class="node">
<title>u59</title>
<ellipse fill="#ffbbbb" stroke="black" cx="1674.73" cy="-4350" rx="113.18" ry="18"/>
<text text-anchor="middle" x="1674.73" y="-4346.3" font-family="Times,serif" font-size="14.00">Language.Drasil.Code</text>
</g>
<!-- u51 -->
<g id="node30" class="node">
<title>u51</title>
<ellipse fill="#77ff77" stroke="black" cx="1739.73" cy="-4045" rx="217.16" ry="18"/>
<text text-anchor="middle" x="1739.73" y="-4041.3" font-family="Times,serif" font-size="14.00">Language.Drasil.Code.Imperative.Generator</text>
</g>
<!-- u59&#45;&gt;u51 -->
<g id="edge88" class="edge">
<title>u59&#45;&gt;u51</title>
<path fill="none" stroke="black" d="M1678.41,-4331.84C1689.18,-4281.65 1720.68,-4134.79 1733.85,-4073.43"/>
<polygon fill="black" stroke="black" points="1737.33,-4073.86 1736.01,-4063.35 1730.49,-4072.39 1737.33,-4073.86"/>
</g>
<!-- u34 -->
<g id="node35" class="node">
<title>u34</title>
<ellipse fill="#77ff77" stroke="black" cx="217.73" cy="-3740" rx="217.96" ry="18"/>
<text text-anchor="middle" x="217.73" y="-3736.3" font-family="Times,serif" font-size="14.00">Language.Drasil.Code.Imperative.ReadInput</text>
</g>
<!-- u59&#45;&gt;u34 -->
<g id="edge87" class="edge">
<title>u59&#45;&gt;u34</title>
<path fill="none" stroke="black" d="M1666.32,-4331.74C1636.39,-4270.99 1533.75,-4068.45 1475.73,-4027 1292.51,-3896.09 621,-3794.38 341.29,-3756.77"/>
<polygon fill="black" stroke="black" points="341.48,-3753.26 331.11,-3755.4 340.55,-3760.2 341.48,-3753.26"/>
</g>
<!-- u58 -->
<g id="node10" class="node">
<title>u58</title>
<ellipse fill="#ffbbbb" stroke="black" cx="1999.73" cy="-1908" rx="126.18" ry="18"/>
<text text-anchor="middle" x="1999.73" y="-1904.3" font-family="Times,serif" font-size="14.00">Language.Drasil.Choices</text>
</g>
<!-- u53 -->
<g id="node23" class="node">
<title>u53</title>
<ellipse fill="#ffbbff" stroke="black" cx="2301.73" cy="-1603" rx="139.98" ry="18"/>
<text text-anchor="middle" x="2301.73" y="-1599.3" font-family="Times,serif" font-size="14.00">Language.Drasil.Code.Code</text>
</g>
<!-- u58&#45;&gt;u53 -->
<g id="edge86" class="edge">
<title>u58&#45;&gt;u53</title>
<path fill="none" stroke="black" d="M2016.83,-1889.84C2067.7,-1838.8 2218.2,-1687.8 2277.41,-1628.4"/>
<polygon fill="black" stroke="black" points="2280.24,-1630.52 2284.82,-1620.97 2275.28,-1625.58 2280.24,-1630.52"/>
</g>
<!-- u58&#45;&gt;u9 -->
<g id="edge85" class="edge">
<title>u58&#45;&gt;u9</title>
<path fill="none" stroke="black" d="M1976.05,-1890.28C1903.7,-1839.17 1685.41,-1685 1602.84,-1626.68"/>
<polygon fill="black" stroke="black" points="1604.78,-1623.77 1594.6,-1620.86 1600.75,-1629.48 1604.78,-1623.77"/>
</g>
<!-- u57 -->
<g id="node11" class="node">
<title>u57</title>
<ellipse fill="#ffbbbb" stroke="black" cx="4523.73" cy="-3435" rx="117.78" ry="18"/>
<text text-anchor="middle" x="4523.73" y="-3431.3" font-family="Times,serif" font-size="14.00">Language.Drasil.GOOL</text>
</g>
<!-- u47 -->
<g id="node52" class="node">
<title>u47</title>
<ellipse fill="#77ffff" stroke="black" cx="3053.73" cy="-3129" rx="358.54" ry="18"/>
<text text-anchor="middle" x="3053.73" y="-3125.3" font-family="Times,serif" font-size="14.00">Language.Drasil.Code.Imperative.GOOL.LanguageRenderer.SwiftRenderer</text>
</g>
<!-- u57&#45;&gt;u47 -->
<g id="edge84" class="edge">
<title>u57&#45;&gt;u47</title>
<path fill="none" stroke="black" d="M4456.75,-3420.15C4218.87,-3370.95 3414.55,-3204.62 3143.64,-3148.59"/>
<polygon fill="black" stroke="black" points="3144.35,-3145.17 3133.85,-3146.57 3142.93,-3152.02 3144.35,-3145.17"/>
</g>
<!-- u46 -->
<g id="node53" class="node">
<title>u46</title>
<ellipse fill="#77ffff" stroke="black" cx="3783.73" cy="-3129" rx="352.84" ry="18"/>
<text text-anchor="middle" x="3783.73" y="-3125.3" font-family="Times,serif" font-size="14.00">Language.Drasil.Code.Imperative.GOOL.LanguageRenderer.CppRenderer</text>
</g>
<!-- u57&#45;&gt;u46 -->
<g id="edge83" class="edge">
<title>u57&#45;&gt;u46</title>
<path fill="none" stroke="black" d="M4484.73,-3417.98C4360.57,-3366.97 3974.52,-3208.38 3834.84,-3150.99"/>
<polygon fill="black" stroke="black" points="3835.79,-3147.6 3825.21,-3147.04 3833.13,-3154.08 3835.79,-3147.6"/>
</g>
<!-- u45 -->
<g id="node54" class="node">
<title>u45</title>
<ellipse fill="#77ffff" stroke="black" cx="4523.73" cy="-3129" rx="369.33" ry="18"/>
<text text-anchor="middle" x="4523.73" y="-3125.3" font-family="Times,serif" font-size="14.00">Language.Drasil.Code.Imperative.GOOL.LanguageRenderer.CSharpRenderer</text>
</g>
<!-- u57&#45;&gt;u45 -->
<g id="edge82" class="edge">
<title>u57&#45;&gt;u45</title>
<path fill="none" stroke="black" d="M4523.73,-3416.78C4523.73,-3366.31 4523.73,-3218.39 4523.73,-3157.09"/>
<polygon fill="black" stroke="black" points="4527.23,-3157.03 4523.73,-3147.03 4520.23,-3157.03 4527.23,-3157.03"/>
</g>
<!-- u44 -->
<g id="node55" class="node">
<title>u44</title>
<ellipse fill="#77ffff" stroke="black" cx="5265.73" cy="-3129" rx="354.74" ry="18"/>
<text text-anchor="middle" x="5265.73" y="-3125.3" font-family="Times,serif" font-size="14.00">Language.Drasil.Code.Imperative.GOOL.LanguageRenderer.JuliaRenderer</text>
</g>
<!-- u57&#45;&gt;u44 -->
<g id="edge81" class="edge">
<title>u57&#45;&gt;u44</title>
<path fill="none" stroke="black" d="M4562.84,-3417.98C4687.33,-3366.97 5074.42,-3208.38 5214.49,-3150.99"/>
<polygon fill="black" stroke="black" points="5216.21,-3154.07 5224.14,-3147.04 5213.56,-3147.59 5216.21,-3154.07"/>
</g>
<!-- u43 -->
<g id="node56" class="node">
<title>u43</title>
<ellipse fill="#77ffff" stroke="black" cx="6005.73" cy="-3129" rx="367.43" ry="18"/>
<text text-anchor="middle" x="6005.73" y="-3125.3" font-family="Times,serif" font-size="14.00">Language.Drasil.Code.Imperative.GOOL.LanguageRenderer.PythonRenderer</text>
</g>
<!-- u57&#45;&gt;u43 -->
<g id="edge80" class="edge">
<title>u57&#45;&gt;u43</title>
<path fill="none" stroke="black" d="M4591.26,-3420.15C4831.08,-3370.95 5641.97,-3204.62 5915.08,-3148.59"/>
<polygon fill="black" stroke="black" points="5915.87,-3152.01 5924.96,-3146.57 5914.46,-3145.15 5915.87,-3152.01"/>
</g>
<!-- u42 -->
<g id="node57" class="node">
<title>u42</title>
<ellipse fill="#77ffff" stroke="black" cx="6744.73" cy="-3129" rx="354.44" ry="18"/>
<text text-anchor="middle" x="6744.73" y="-3125.3" font-family="Times,serif" font-size="14.00">Language.Drasil.Code.Imperative.GOOL.LanguageRenderer.JavaRenderer</text>
</g>
<!-- u57&#45;&gt;u42 -->
<g id="edge79" class="edge">
<title>u57&#45;&gt;u42</title>
<path fill="none" stroke="black" d="M4608.42,-3422.41C4947.81,-3375.95 6210.76,-3203.09 6617.58,-3147.4"/>
<polygon fill="black" stroke="black" points="6618.18,-3150.85 6627.61,-3146.03 6617.23,-3143.92 6618.18,-3150.85"/>
</g>
<!-- u56 -->
<g id="node12" class="node">
<title>u56</title>
<ellipse fill="#ffbbbb" stroke="black" cx="2409.73" cy="-2213" rx="135.68" ry="18"/>
<text text-anchor="middle" x="2409.73" y="-2209.3" font-family="Times,serif" font-size="14.00">Language.Drasil.CodeSpec</text>
</g>
<!-- u56&#45;&gt;u58 -->
<g id="edge78" class="edge">
<title>u56&#45;&gt;u58</title>
<path fill="none" stroke="black" d="M2386.81,-2195.06C2317.41,-2143.77 2109.53,-1990.14 2030.59,-1931.81"/>
<polygon fill="black" stroke="black" points="2032.61,-1928.95 2022.49,-1925.82 2028.45,-1934.58 2032.61,-1928.95"/>
</g>
<!-- u12 -->
<g id="node13" class="node">
<title>u12</title>
<ellipse fill="#ffbbbb" stroke="black" cx="2723.73" cy="-1908" rx="178.17" ry="18"/>
<text text-anchor="middle" x="2723.73" y="-1904.3" font-family="Times,serif" font-size="14.00">Language.Drasil.ICOSolutionSearch</text>
</g>
<!-- u56&#45;&gt;u12 -->
<g id="edge76" class="edge">
<title>u56&#45;&gt;u12</title>
<path fill="none" stroke="black" d="M2427.51,-2194.84C2480.51,-2143.7 2637.52,-1992.19 2698.82,-1933.04"/>
<polygon fill="black" stroke="black" points="2701.38,-1935.43 2706.14,-1925.97 2696.52,-1930.4 2701.38,-1935.43"/>
</g>
<!-- u14 -->
<g id="node19" class="node">
<title>u14</title>
<ellipse fill="#bbffff" stroke="black" cx="2335.73" cy="-1908" rx="192.27" ry="18"/>
<text text-anchor="middle" x="2335.73" y="-1904.3" font-family="Times,serif" font-size="14.00">Language.Drasil.Chunk.ConstraintMap</text>
</g>
<!-- u56&#45;&gt;u14 -->
<g id="edge77" class="edge">
<title>u56&#45;&gt;u14</title>
<path fill="none" stroke="black" d="M2405.54,-2194.84C2393.28,-2144.65 2357.42,-1997.79 2342.43,-1936.43"/>
<polygon fill="black" stroke="black" points="2345.74,-1935.23 2339.97,-1926.35 2338.94,-1936.89 2345.74,-1935.23"/>
</g>
<!-- u16 -->
<g id="node17" class="node">
<title>u16</title>
<ellipse fill="#bbffff" stroke="black" cx="1952.73" cy="-1603" rx="191.17" ry="18"/>
<text text-anchor="middle" x="1952.73" y="-1599.3" font-family="Times,serif" font-size="14.00">Language.Drasil.Chunk.CodeDefinition</text>
</g>
<!-- u12&#45;&gt;u16 -->
<g id="edge18" class="edge">
<title>u12&#45;&gt;u16</title>
<path fill="none" stroke="black" d="M2681.73,-1890.49C2550.56,-1838.95 2148.75,-1681.03 2004.75,-1624.44"/>
<polygon fill="black" stroke="black" points="2005.83,-1621.11 1995.24,-1620.71 2003.27,-1627.62 2005.83,-1621.11"/>
</g>
<!-- u11 -->
<g id="node14" class="node">
<title>u11</title>
<ellipse fill="#ffbbbb" stroke="black" cx="933.73" cy="-992" rx="110.48" ry="18"/>
<text text-anchor="middle" x="933.73" y="-988.3" font-family="Times,serif" font-size="14.00">Language.Drasil.Mod</text>
</g>
<!-- u13 -->
<g id="node20" class="node">
<title>u13</title>
<ellipse fill="#bbffff" stroke="black" cx="933.73" cy="-687" rx="170.87" ry="18"/>
<text text-anchor="middle" x="933.73" y="-683.3" font-family="Times,serif" font-size="14.00">Language.Drasil.Chunk.Parameter</text>
</g>
<!-- u11&#45;&gt;u13 -->
<g id="edge16" class="edge">
<title>u11&#45;&gt;u13</title>
<path fill="none" stroke="black" d="M933.73,-973.84C933.73,-923.65 933.73,-776.79 933.73,-715.43"/>
<polygon fill="black" stroke="black" points="937.23,-715.35 933.73,-705.35 930.23,-715.35 937.23,-715.35"/>
</g>
<!-- u22 -->
<g id="node25" class="node">
<title>u22</title>
<ellipse fill="#ffbbff" stroke="black" cx="1282.73" cy="-687" rx="160.57" ry="18"/>
<text text-anchor="middle" x="1282.73" y="-683.3" font-family="Times,serif" font-size="14.00">Language.Drasil.Code.DataDesc</text>
</g>
<!-- u11&#45;&gt;u22 -->
<g id="edge17" class="edge">
<title>u11&#45;&gt;u22</title>
<path fill="none" stroke="black" d="M953.24,-974.06C1012.01,-923.04 1187.43,-770.74 1255.4,-711.73"/>
<polygon fill="black" stroke="black" points="1257.88,-714.21 1263.14,-705.01 1253.3,-708.92 1257.88,-714.21"/>
</g>
<!-- u18 -->
<g id="node15" class="node">
<title>u18</title>
<ellipse fill="#bbffff" stroke="black" cx="1282.73" cy="-76" rx="168.17" ry="18"/>
<text text-anchor="middle" x="1282.73" y="-72.3" font-family="Times,serif" font-size="14.00">Language.Drasil.Chunk.CodeBase</text>
</g>
<!-- u17 -->
<g id="node16" class="node">
<title>u17</title>
<ellipse fill="#bbffff" stroke="black" cx="1282.73" cy="-382" rx="145.67" ry="18"/>
<text text-anchor="middle" x="1282.73" y="-378.3" font-family="Times,serif" font-size="14.00">Language.Drasil.Chunk.Code</text>
</g>
<!-- u17&#45;&gt;u18 -->
<g id="edge21" class="edge">
<title>u17&#45;&gt;u18</title>
<path fill="none" stroke="black" d="M1282.73,-363.78C1282.73,-313.31 1282.73,-165.39 1282.73,-104.09"/>
<polygon fill="black" stroke="black" points="1286.23,-104.03 1282.73,-94.03 1279.23,-104.03 1286.23,-104.03"/>
</g>
<!-- u10 -->
<g id="node58" class="node">
<title>u10</title>
<ellipse fill="#ff77ff" stroke="black" cx="1952.73" cy="-1297" rx="154.07" ry="18"/>
<text text-anchor="middle" x="1952.73" y="-1293.3" font-family="Times,serif" font-size="14.00">Language.Drasil.Data.ODEInfo</text>
</g>
<!-- u16&#45;&gt;u10 -->
<g id="edge20" class="edge">
<title>u16&#45;&gt;u10</title>
<path fill="none" stroke="black" d="M1952.73,-1584.78C1952.73,-1534.31 1952.73,-1386.39 1952.73,-1325.09"/>
<polygon fill="black" stroke="black" points="1956.23,-1325.03 1952.73,-1315.03 1949.23,-1325.03 1956.23,-1325.03"/>
</g>
<!-- u15 -->
<g id="node18" class="node">
<title>u15</title>
<ellipse fill="#bbffff" stroke="black" cx="1264.73" cy="-992" rx="202.26" ry="18"/>
<text text-anchor="middle" x="1264.73" y="-988.3" font-family="Times,serif" font-size="14.00">Language.Drasil.Chunk.NamedArgument</text>
</g>
<!-- u13&#45;&gt;u17 -->
<g id="edge19" class="edge">
<title>u13&#45;&gt;u17</title>
<path fill="none" stroke="black" d="M953.24,-669.06C1012.01,-618.04 1187.43,-465.74 1255.4,-406.73"/>
<polygon fill="black" stroke="black" points="1257.88,-409.21 1263.14,-400.01 1253.3,-403.92 1257.88,-409.21"/>
</g>
<!-- u55 -->
<g id="node21" class="node">
<title>u55</title>
<ellipse fill="#ffbbff" stroke="black" cx="1293.73" cy="-1297" rx="190.37" ry="18"/>
<text text-anchor="middle" x="1293.73" y="-1293.3" font-family="Times,serif" font-size="14.00">Language.Drasil.Code.ExternalLibrary</text>
</g>
<!-- u55&#45;&gt;u11 -->
<g id="edge74" class="edge">
<title>u55&#45;&gt;u11</title>
<path fill="none" stroke="black" d="M1273.6,-1279.06C1212.99,-1228.04 1032.04,-1075.74 961.92,-1016.73"/>
<polygon fill="black" stroke="black" points="963.84,-1013.77 953.94,-1010.01 959.33,-1019.12 963.84,-1013.77"/>
</g>
<!-- u55&#45;&gt;u15 -->
<g id="edge75" class="edge">
<title>u55&#45;&gt;u15</title>
<path fill="none" stroke="black" d="M1292.09,-1278.84C1287.28,-1228.65 1273.23,-1081.79 1267.36,-1020.43"/>
<polygon fill="black" stroke="black" points="1270.83,-1019.97 1266.39,-1010.35 1263.86,-1020.63 1270.83,-1019.97"/>
</g>
<!-- u54 -->
<g id="node22" class="node">
<title>u54</title>
<ellipse fill="#ffbbff" stroke="black" cx="1641.73" cy="-1297" rx="139.18" ry="18"/>
<text text-anchor="middle" x="1641.73" y="-1293.3" font-family="Times,serif" font-size="14.00">Language.Drasil.Code.Lang</text>
</g>
<!-- u21 -->
<g id="node26" class="node">
<title>u21</title>
<ellipse fill="#ffbbff" stroke="black" cx="2301.73" cy="-1297" rx="155.17" ry="18"/>
<text text-anchor="middle" x="2301.73" y="-1293.3" font-family="Times,serif" font-size="14.00">Language.Drasil.Code.FileData</text>
</g>
<!-- u53&#45;&gt;u21 -->
<g id="edge73" class="edge">
<title>u53&#45;&gt;u21</title>
<path fill="none" stroke="black" d="M2301.73,-1584.78C2301.73,-1534.31 2301.73,-1386.39 2301.73,-1325.09"/>
<polygon fill="black" stroke="black" points="2305.23,-1325.03 2301.73,-1315.03 2298.23,-1325.03 2305.23,-1325.03"/>
</g>
<!-- u23 -->
<g id="node24" class="node">
<title>u23</title>
<ellipse fill="#ffbbff" stroke="black" cx="877.73" cy="-1297" rx="207.96" ry="18"/>
<text text-anchor="middle" x="877.73" y="-1293.3" font-family="Times,serif" font-size="14.00">Language.Drasil.Code.ExternalLibraryCall</text>
</g>
<!-- u23&#45;&gt;u11 -->
<g id="edge25" class="edge">
<title>u23&#45;&gt;u11</title>
<path fill="none" stroke="black" d="M880.9,-1278.84C890.18,-1228.65 917.32,-1081.79 928.66,-1020.43"/>
<polygon fill="black" stroke="black" points="932.15,-1020.82 930.52,-1010.35 925.27,-1019.54 932.15,-1020.82"/>
</g>
<!-- u23&#45;&gt;u15 -->
<g id="edge26" class="edge">
<title>u23&#45;&gt;u15</title>
<path fill="none" stroke="black" d="M899.37,-1279.06C964.66,-1227.94 1159.84,-1075.12 1234.88,-1016.37"/>
<polygon fill="black" stroke="black" points="1237.29,-1018.93 1243.01,-1010.01 1232.98,-1013.42 1237.29,-1018.93"/>
</g>
<!-- u22&#45;&gt;u17 -->
<g id="edge24" class="edge">
<title>u22&#45;&gt;u17</title>
<path fill="none" stroke="black" d="M1282.73,-668.84C1282.73,-618.65 1282.73,-471.79 1282.73,-410.43"/>
<polygon fill="black" stroke="black" points="1286.23,-410.35 1282.73,-400.35 1279.23,-410.35 1286.23,-410.35"/>
</g>
<!-- u20 -->
<g id="node27" class="node">
<title>u20</title>
<ellipse fill="#ffbbff" stroke="black" cx="771.73" cy="-2824" rx="204.16" ry="18"/>
<text text-anchor="middle" x="771.73" y="-2820.3" font-family="Times,serif" font-size="14.00">Language.Drasil.Code.CodeQuantityDicts</text>
</g>
<!-- u19 -->
<g id="node28" class="node">
<title>u19</title>
<ellipse fill="#ffbbff" stroke="black" cx="925.73" cy="-1603" rx="178.97" ry="18"/>
<text text-anchor="middle" x="925.73" y="-1599.3" font-family="Times,serif" font-size="14.00">Language.Drasil.Code.ExtLibImport</text>
</g>
<!-- u19&#45;&gt;u55 -->
<g id="edge23" class="edge">
<title>u19&#45;&gt;u55</title>
<path fill="none" stroke="black" d="M946.3,-1585C1008.39,-1533.71 1193.99,-1380.39 1265.35,-1321.45"/>
<polygon fill="black" stroke="black" points="1267.59,-1324.13 1273.07,-1315.06 1263.14,-1318.73 1267.59,-1324.13"/>
</g>
<!-- u19&#45;&gt;u23 -->
<g id="edge22" class="edge">
<title>u19&#45;&gt;u23</title>
<path fill="none" stroke="black" d="M923.01,-1584.78C915.04,-1534.31 891.69,-1386.39 882.01,-1325.09"/>
<polygon fill="black" stroke="black" points="885.44,-1324.36 880.42,-1315.03 878.52,-1325.45 885.44,-1324.36"/>
</g>
<!-- u52 -->
<g id="node29" class="node">
<title>u52</title>
<ellipse fill="#77ff77" stroke="black" cx="2253.73" cy="-3740" rx="226.66" ry="18"/>
<text text-anchor="middle" x="2253.73" y="-3736.3" font-family="Times,serif" font-size="14.00">Language.Drasil.Code.Imperative.SpaceMatch</text>
</g>
<!-- u30 -->
<g id="node39" class="node">
<title>u30</title>
<ellipse fill="#77ff77" stroke="black" cx="1696.73" cy="-2519" rx="222.06" ry="18"/>
<text text-anchor="middle" x="1696.73" y="-2515.3" font-family="Times,serif" font-size="14.00">Language.Drasil.Code.Imperative.DrasilState</text>
</g>
<!-- u52&#45;&gt;u30 -->
<g id="edge72" class="edge">
<title>u52&#45;&gt;u30</title>
<path fill="none" stroke="black" d="M2262.62,-3721.79C2312.36,-3622.82 2546.89,-3119.65 2342.73,-2806 2228.81,-2630.98 1980.67,-2562.26 1827.24,-2535.86"/>
<polygon fill="black" stroke="black" points="1827.72,-2532.39 1817.27,-2534.18 1826.55,-2539.29 1827.72,-2532.39"/>
</g>
<!-- u51&#45;&gt;u52 -->
<g id="edge71" class="edge">
<title>u51&#45;&gt;u52</title>
<path fill="none" stroke="black" d="M1768.47,-4027.06C1855.8,-3975.58 2118.11,-3820.95 2216.19,-3763.13"/>
<polygon fill="black" stroke="black" points="2218.04,-3766.1 2224.88,-3758.01 2214.49,-3760.07 2218.04,-3766.1"/>
</g>
<!-- u36 -->
<g id="node33" class="node">
<title>u36</title>
<ellipse fill="#77ff77" stroke="black" cx="1225.73" cy="-3740" rx="209.06" ry="18"/>
<text text-anchor="middle" x="1225.73" y="-3736.3" font-family="Times,serif" font-size="14.00">Language.Drasil.Code.Imperative.Modules</text>
</g>
<!-- u51&#45;&gt;u36 -->
<g id="edge69" class="edge">
<title>u51&#45;&gt;u36</title>
<path fill="none" stroke="black" d="M1710.99,-4027.06C1623.66,-3975.58 1361.35,-3820.95 1263.28,-3763.13"/>
<polygon fill="black" stroke="black" points="1264.97,-3760.07 1254.58,-3758.01 1261.42,-3766.1 1264.97,-3760.07"/>
</g>
<!-- u27 -->
<g id="node42" class="node">
<title>u27</title>
<ellipse fill="#77ff77" stroke="black" cx="1071.73" cy="-2213" rx="209.86" ry="18"/>
<text text-anchor="middle" x="1071.73" y="-2209.3" font-family="Times,serif" font-size="14.00">Language.Drasil.Code.Imperative.GenODE</text>
</g>
<!-- u51&#45;&gt;u27 -->
<g id="edge68" class="edge">
<title>u51&#45;&gt;u27</title>
<path fill="none" stroke="black" d="M1672.92,-4027.77C1410.38,-3962.1 463.73,-3706.54 463.73,-3436 463.73,-3436 463.73,-3436 463.73,-2823 463.73,-2507.96 876.26,-2298.72 1021.71,-2234.73"/>
<polygon fill="black" stroke="black" points="1023.13,-2237.93 1030.89,-2230.73 1020.33,-2231.52 1023.13,-2237.93"/>
</g>
<!-- u49 -->
<g id="node49" class="node">
<title>u49</title>
<ellipse fill="#ff7777" stroke="black" cx="2897.73" cy="-2519" rx="289.45" ry="18"/>
<text text-anchor="middle" x="2897.73" y="-2515.3" font-family="Times,serif" font-size="14.00">Language.Drasil.Code.Imperative.GOOL.LanguageRenderer</text>
</g>
<!-- u51&#45;&gt;u49 -->
<g id="edge70" class="edge">
<title>u51&#45;&gt;u49</title>
<path fill="none" stroke="black" d="M1864.69,-4030.23C2030.71,-4005.31 2322.49,-3937.4 2489.73,-3758 2694.61,-3538.22 2552.81,-3380.46 2685.73,-3111 2750.82,-2979.04 2829.57,-2980.69 2878.73,-2842 2915.55,-2738.12 2906.99,-2603.64 2901.06,-2547.02"/>
<polygon fill="black" stroke="black" points="2904.54,-2546.62 2899.96,-2537.07 2897.58,-2547.39 2904.54,-2546.62"/>
</g>
<!-- u50 -->
<g id="node31" class="node">
<title>u50</title>
<ellipse fill="#77ff77" stroke="black" cx="733.73" cy="-3435" rx="228.26" ry="18"/>
<text text-anchor="middle" x="733.73" y="-3431.3" font-family="Times,serif" font-size="14.00">Language.Drasil.Code.Imperative.Descriptions</text>
</g>
<!-- u50&#45;&gt;u30 -->
<g id="edge67" class="edge">
<title>u50&#45;&gt;u30</title>
<path fill="none" stroke="black" d="M718.38,-3416.98C649.55,-3338.64 379.62,-3007.86 537.73,-2806 661.9,-2647.47 1265.36,-2564.82 1548.94,-2534.2"/>
<polygon fill="black" stroke="black" points="1549.32,-2537.68 1558.89,-2533.13 1548.57,-2530.72 1549.32,-2537.68"/>
</g>
<!-- u40 -->
<g id="node32" class="node">
<title>u40</title>
<ellipse fill="#77ff77" stroke="black" cx="771.73" cy="-3129" rx="223.66" ry="18"/>
<text text-anchor="middle" x="771.73" y="-3125.3" font-family="Times,serif" font-size="14.00">Language.Drasil.Code.Imperative.Parameters</text>
</g>
<!-- u40&#45;&gt;u20 -->
<g id="edge53" class="edge">
<title>u40&#45;&gt;u20</title>
<path fill="none" stroke="black" d="M771.73,-3110.84C771.73,-3060.65 771.73,-2913.79 771.73,-2852.43"/>
<polygon fill="black" stroke="black" points="775.23,-2852.35 771.73,-2842.35 768.23,-2852.35 775.23,-2852.35"/>
</g>
<!-- u40&#45;&gt;u30 -->
<g id="edge54" class="edge">
<title>u40&#45;&gt;u30</title>
<path fill="none" stroke="black" d="M744.92,-3111.12C670.48,-3062.22 472.28,-2916.87 558.73,-2806 680.57,-2649.75 1274.37,-2565.82 1552.49,-2534.52"/>
<polygon fill="black" stroke="black" points="1553.11,-2537.97 1562.66,-2533.39 1552.33,-2531.02 1553.11,-2537.97"/>
</g>
<!-- u36&#45;&gt;u50 -->
<g id="edge50" class="edge">
<title>u36&#45;&gt;u50</title>
<path fill="none" stroke="black" d="M1198.22,-3722.06C1114.71,-3670.63 864.05,-3516.26 769.95,-3458.31"/>
<polygon fill="black" stroke="black" points="771.7,-3455.27 761.35,-3453.01 768.03,-3461.23 771.7,-3455.27"/>
</g>
<!-- u29 -->
<g id="node40" class="node">
<title>u29</title>
<ellipse fill="#77ff77" stroke="black" cx="1225.73" cy="-3435" rx="233.16" ry="18"/>
<text text-anchor="middle" x="1225.73" y="-3431.3" font-family="Times,serif" font-size="14.00">Language.Drasil.Code.Imperative.FunctionCalls</text>
</g>
<!-- u36&#45;&gt;u29 -->
<g id="edge49" class="edge">
<title>u36&#45;&gt;u29</title>
<path fill="none" stroke="black" d="M1225.73,-3721.84C1225.73,-3671.65 1225.73,-3524.79 1225.73,-3463.43"/>
<polygon fill="black" stroke="black" points="1229.23,-3463.35 1225.73,-3453.35 1222.23,-3463.35 1229.23,-3463.35"/>
</g>
<!-- u35 -->
<g id="node34" class="node">
<title>u35</title>
<ellipse fill="#77ff77" stroke="black" cx="2004.73" cy="-2213" rx="213.36" ry="18"/>
<text text-anchor="middle" x="2004.73" y="-2209.3" font-family="Times,serif" font-size="14.00">Language.Drasil.Code.Imperative.README</text>
</g>
<!-- u35&#45;&gt;u58 -->
<g id="edge48" class="edge">
<title>u35&#45;&gt;u58</title>
<path fill="none" stroke="black" d="M2004.45,-2194.84C2003.62,-2144.65 2001.2,-1997.79 2000.18,-1936.43"/>
<polygon fill="black" stroke="black" points="2003.68,-1936.29 2000.02,-1926.35 1996.68,-1936.4 2003.68,-1936.29"/>
</g>
<!-- u34&#45;&gt;u22 -->
<g id="edge47" class="edge">
<title>u34&#45;&gt;u22</title>
<path fill="none" stroke="black" d="M222.89,-3721.74C243.87,-3649.95 321.73,-3367.58 321.73,-3130 321.73,-3130 321.73,-3130 321.73,-1296 321.73,-893.89 930.04,-746.76 1178.71,-703.42"/>
<polygon fill="black" stroke="black" points="1179.57,-706.82 1188.84,-701.68 1178.39,-699.92 1179.57,-706.82"/>
</g>
<!-- u33 -->
<g id="node36" class="node">
<title>u33</title>
<ellipse fill="#77ff77" stroke="black" cx="1251.73" cy="-3129" rx="201.46" ry="18"/>
<text text-anchor="middle" x="1251.73" y="-3125.3" font-family="Times,serif" font-size="14.00">Language.Drasil.Code.Imperative.Import</text>
</g>
<!-- u33&#45;&gt;u20 -->
<g id="edge41" class="edge">
<title>u33&#45;&gt;u20</title>
<path fill="none" stroke="black" d="M1224.9,-3111.06C1143.5,-3059.68 899.37,-2905.57 807.35,-2847.48"/>
<polygon fill="black" stroke="black" points="809,-2844.39 798.67,-2842.01 805.26,-2850.3 809,-2844.39"/>
</g>
<!-- u32 -->
<g id="node37" class="node">
<title>u32</title>
<ellipse fill="#77ff77" stroke="black" cx="1696.73" cy="-2824" rx="207.16" ry="18"/>
<text text-anchor="middle" x="1696.73" y="-2820.3" font-family="Times,serif" font-size="14.00">Language.Drasil.Code.Imperative.Logging</text>
</g>
<!-- u33&#45;&gt;u32 -->
<g id="edge46" class="edge">
<title>u33&#45;&gt;u32</title>
<path fill="none" stroke="black" d="M1276.61,-3111.06C1351.99,-3059.73 1577.95,-2905.88 1663.45,-2847.66"/>
<polygon fill="black" stroke="black" points="1665.46,-2850.53 1671.75,-2842.01 1661.52,-2844.74 1665.46,-2850.53"/>
</g>
<!-- u31 -->
<g id="node38" class="node">
<title>u31</title>
<ellipse fill="#77ff77" stroke="black" cx="2127.73" cy="-2824" rx="206.06" ry="18"/>
<text text-anchor="middle" x="2127.73" y="-2820.3" font-family="Times,serif" font-size="14.00">Language.Drasil.Code.Imperative.Helpers</text>
</g>
<!-- u33&#45;&gt;u31 -->
<g id="edge45" class="edge">
<title>u33&#45;&gt;u31</title>
<path fill="none" stroke="black" d="M1299.45,-3111.49C1448.95,-3059.78 1907.92,-2901.03 2070.17,-2844.91"/>
<polygon fill="black" stroke="black" points="2071.66,-2848.1 2079.97,-2841.52 2069.37,-2841.48 2071.66,-2848.1"/>
</g>
<!-- u28 -->
<g id="node41" class="node">
<title>u28</title>
<ellipse fill="#77ff77" stroke="black" cx="1536.73" cy="-2213" rx="237.46" ry="18"/>
<text text-anchor="middle" x="1536.73" y="-2209.3" font-family="Times,serif" font-size="14.00">Language.Drasil.Code.Imperative.ConceptMatch</text>
</g>
<!-- u33&#45;&gt;u28 -->
<g id="edge44" class="edge">
<title>u33&#45;&gt;u28</title>
<path fill="none" stroke="black" d="M1223.28,-3111.1C1151.7,-3066.21 973.28,-2938.38 1022.73,-2806 1123.41,-2536.49 1408.24,-2308.45 1504.49,-2237.13"/>
<polygon fill="black" stroke="black" points="1506.7,-2239.85 1512.68,-2231.1 1502.55,-2234.21 1506.7,-2239.85"/>
</g>
<!-- u26 -->
<g id="node43" class="node">
<title>u26</title>
<ellipse fill="#77ff77" stroke="black" cx="1251.73" cy="-2824" rx="219.86" ry="18"/>
<text text-anchor="middle" x="1251.73" y="-2820.3" font-family="Times,serif" font-size="14.00">Language.Drasil.Code.Imperative.Comments</text>
</g>
<!-- u33&#45;&gt;u26 -->
<g id="edge43" class="edge">
<title>u33&#45;&gt;u26</title>
<path fill="none" stroke="black" d="M1251.73,-3110.84C1251.73,-3060.65 1251.73,-2913.79 1251.73,-2852.43"/>
<polygon fill="black" stroke="black" points="1255.23,-2852.35 1251.73,-2842.35 1248.23,-2852.35 1255.23,-2852.35"/>
</g>
<!-- u25 -->
<g id="node44" class="node">
<title>u25</title>
<ellipse fill="#77ff77" stroke="black" cx="2629.73" cy="-2824" rx="240.46" ry="18"/>
<text text-anchor="middle" x="2629.73" y="-2820.3" font-family="Times,serif" font-size="14.00">Language.Drasil.Code.Imperative.GenerateGOOL</text>
</g>
<!-- u33&#45;&gt;u25 -->
<g id="edge42" class="edge">
<title>u33&#45;&gt;u25</title>
<path fill="none" stroke="black" d="M1323.88,-3112.14C1558.06,-3060.64 2296.25,-2898.33 2546.11,-2843.39"/>
<polygon fill="black" stroke="black" points="2547.2,-2846.73 2556.22,-2841.16 2545.7,-2839.89 2547.2,-2846.73"/>
</g>
<!-- u32&#45;&gt;u30 -->
<g id="edge40" class="edge">
<title>u32&#45;&gt;u30</title>
<path fill="none" stroke="black" d="M1696.73,-2805.84C1696.73,-2755.65 1696.73,-2608.79 1696.73,-2547.43"/>
<polygon fill="black" stroke="black" points="1700.23,-2547.35 1696.73,-2537.35 1693.23,-2547.35 1700.23,-2547.35"/>
</g>
<!-- u31&#45;&gt;u30 -->
<g id="edge39" class="edge">
<title>u31&#45;&gt;u30</title>
<path fill="none" stroke="black" d="M2103.63,-2806.06C2030.7,-2754.78 1812.22,-2601.19 1729.21,-2542.84"/>
<polygon fill="black" stroke="black" points="1731.12,-2539.9 1720.92,-2537.01 1727.09,-2545.62 1731.12,-2539.9"/>
</g>
<!-- u30&#45;&gt;u56 -->
<g id="edge38" class="edge">
<title>u30&#45;&gt;u56</title>
<path fill="none" stroke="black" d="M1736.08,-2501.22C1857.98,-2449.25 2229.09,-2291.02 2361.86,-2234.41"/>
<polygon fill="black" stroke="black" points="2363.55,-2237.5 2371.37,-2230.35 2360.8,-2231.06 2363.55,-2237.5"/>
</g>
<!-- u30&#45;&gt;u19 -->
<g id="edge37" class="edge">
<title>u30&#45;&gt;u19</title>
<path fill="none" stroke="black" d="M1613.15,-2502.26C1418.38,-2463.7 943.92,-2358.32 852.73,-2231 714.37,-2037.82 862.76,-1722.08 911.41,-1629.98"/>
<polygon fill="black" stroke="black" points="914.55,-1631.53 916.18,-1621.06 908.38,-1628.22 914.55,-1631.53"/>
</g>
<!-- u29&#45;&gt;u40 -->
<g id="edge36" class="edge">
<title>u29&#45;&gt;u40</title>
<path fill="none" stroke="black" d="M1200.35,-3417C1123.44,-3365.51 892.92,-3211.15 805.68,-3152.73"/>
<polygon fill="black" stroke="black" points="807.47,-3149.72 797.21,-3147.06 803.58,-3155.54 807.47,-3149.72"/>
</g>
<!-- u29&#45;&gt;u33 -->
<g id="edge35" class="edge">
<title>u29&#45;&gt;u33</title>
<path fill="none" stroke="black" d="M1227.2,-3416.78C1231.52,-3366.31 1244.17,-3218.39 1249.41,-3157.09"/>
<polygon fill="black" stroke="black" points="1252.91,-3157.29 1250.27,-3147.03 1245.93,-3156.69 1252.91,-3157.29"/>
</g>
<!-- u28&#45;&gt;u58 -->
<g id="edge34" class="edge">
<title>u28&#45;&gt;u58</title>
<path fill="none" stroke="black" d="M1562.62,-2195.06C1641.23,-2143.61 1877.25,-1989.16 1965.73,-1931.25"/>
<polygon fill="black" stroke="black" points="1967.86,-1934.04 1974.31,-1925.63 1964.03,-1928.18 1967.86,-1934.04"/>
</g>
<!-- u27&#45;&gt;u58 -->
<g id="edge33" class="edge">
<title>u27&#45;&gt;u58</title>
<path fill="none" stroke="black" d="M1122.28,-2195.49C1281.65,-2143.46 1772.98,-1983.04 1941.95,-1927.87"/>
<polygon fill="black" stroke="black" points="1943.24,-1931.13 1951.66,-1924.7 1941.07,-1924.47 1943.24,-1931.13"/>
</g>
<!-- u27&#45;&gt;u16 -->
<g id="edge31" class="edge">
<title>u27&#45;&gt;u16</title>
<path fill="none" stroke="black" d="M1166.73,-2196.93C1316.94,-2168.62 1610.94,-2094.47 1793.73,-1926 1885.42,-1841.5 1930.89,-1692.51 1946.39,-1631.36"/>
<polygon fill="black" stroke="black" points="1949.87,-1631.88 1948.87,-1621.33 1943.08,-1630.2 1949.87,-1631.88"/>
</g>
<!-- u27&#45;&gt;u19 -->
<g id="edge32" class="edge">
<title>u27&#45;&gt;u19</title>
<path fill="none" stroke="black" d="M1067.6,-2194.78C1047.18,-2109.77 957.13,-1734.74 932.16,-1630.79"/>
<polygon fill="black" stroke="black" points="935.57,-1629.97 929.83,-1621.07 928.76,-1631.61 935.57,-1629.97"/>
</g>
<!-- u26&#45;&gt;u30 -->
<g id="edge30" class="edge">
<title>u26&#45;&gt;u30</title>
<path fill="none" stroke="black" d="M1276.61,-2806.06C1351.99,-2754.73 1577.95,-2600.88 1663.45,-2542.66"/>
<polygon fill="black" stroke="black" points="1665.46,-2545.53 1671.75,-2537.01 1661.52,-2539.74 1665.46,-2545.53"/>
</g>
<!-- u25&#45;&gt;u30 -->
<g id="edge28" class="edge">
<title>u25&#45;&gt;u30</title>
<path fill="none" stroke="black" d="M2578.57,-2806.39C2418.83,-2754.51 1929.71,-2595.66 1757.5,-2539.73"/>
<polygon fill="black" stroke="black" points="1758.42,-2536.36 1747.83,-2536.6 1756.26,-2543.01 1758.42,-2536.36"/>
</g>
<!-- u41 -->
<g id="node50" class="node">
<title>u41</title>
<ellipse fill="#ff7777" stroke="black" cx="2323.73" cy="-2519" rx="267.25" ry="18"/>
<text text-anchor="middle" x="2323.73" y="-2515.3" font-family="Times,serif" font-size="14.00">Language.Drasil.Code.Imperative.GOOL.ClassInterface</text>
</g>
<!-- u25&#45;&gt;u41 -->
<g id="edge29" class="edge">
<title>u25&#45;&gt;u41</title>
<path fill="none" stroke="black" d="M2612.4,-2805.84C2560.75,-2754.7 2407.74,-2603.19 2348.01,-2544.04"/>
<polygon fill="black" stroke="black" points="2350.44,-2541.52 2340.87,-2536.97 2345.51,-2546.49 2350.44,-2541.52"/>
</g>
<!-- u24 -->
<g id="node45" class="node">
<title>u24</title>
<ellipse fill="#77ff77" stroke="black" cx="1704.73" cy="-992" rx="219.86" ry="18"/>
<text text-anchor="middle" x="1704.73" y="-988.3" font-family="Times,serif" font-size="14.00">Language.Drasil.Code.Imperative.WriteInput</text>
</g>
<!-- u24&#45;&gt;u22 -->
<g id="edge27" class="edge">
<title>u24&#45;&gt;u22</title>
<path fill="none" stroke="black" d="M1681.14,-974.06C1609.71,-922.77 1395.74,-769.14 1314.5,-710.81"/>
<polygon fill="black" stroke="black" points="1316.32,-707.81 1306.16,-704.82 1312.24,-713.5 1316.32,-707.81"/>
</g>
<!-- u39 -->
<g id="node46" class="node">
<title>u39</title>
<ellipse fill="#ffff77" stroke="black" cx="3941.73" cy="-2213" rx="215.56" ry="18"/>
<text text-anchor="middle" x="3941.73" y="-2209.3" font-family="Times,serif" font-size="14.00">Language.Drasil.Code.Imperative.Build.AST</text>
</g>
<!-- u38 -->
<g id="node47" class="node">
<title>u38</title>
<ellipse fill="#ffff77" stroke="black" cx="3941.73" cy="-2519" rx="228.56" ry="18"/>
<text text-anchor="middle" x="3941.73" y="-2515.3" font-family="Times,serif" font-size="14.00">Language.Drasil.Code.Imperative.Build.Import</text>
</g>
<!-- u38&#45;&gt;u39 -->
<g id="edge52" class="edge">
<title>u38&#45;&gt;u39</title>
<path fill="none" stroke="black" d="M3941.73,-2500.78C3941.73,-2450.31 3941.73,-2302.39 3941.73,-2241.09"/>
<polygon fill="black" stroke="black" points="3945.23,-2241.03 3941.73,-2231.03 3938.23,-2241.03 3945.23,-2241.03"/>
</g>
<!-- u37 -->
<g id="node48" class="node">
<title>u37</title>
<ellipse fill="#7777ff" stroke="black" cx="3449.73" cy="-2519" rx="245.06" ry="18"/>
<text text-anchor="middle" x="3449.73" y="-2515.3" font-family="Times,serif" font-size="14.00">Language.Drasil.Code.Imperative.Doxygen.Import</text>
</g>
<!-- u37&#45;&gt;u58 -->
<g id="edge51" class="edge">
<title>u37&#45;&gt;u58</title>
<path fill="none" stroke="black" d="M3351.56,-2502.46C3101.82,-2461.65 2449.13,-2346.59 2264.73,-2231 2232.46,-2210.77 2074.17,-2006.2 2018.85,-1934.04"/>
<polygon fill="black" stroke="black" points="2021.49,-1931.73 2012.63,-1925.92 2015.93,-1935.98 2021.49,-1931.73"/>
</g>
<!-- u41&#45;&gt;u35 -->
<g id="edge55" class="edge">
<title>u41&#45;&gt;u35</title>
<path fill="none" stroke="black" d="M2305.67,-2500.78C2251.82,-2449.47 2092.31,-2297.46 2030.04,-2238.12"/>
<polygon fill="black" stroke="black" points="2032.25,-2235.39 2022.6,-2231.03 2027.42,-2240.46 2032.25,-2235.39"/>
</g>
<!-- u48 -->
<g id="node51" class="node">
<title>u48</title>
<ellipse fill="#77ffff" stroke="black" cx="3941.73" cy="-2824" rx="393.73" ry="18"/>
<text text-anchor="middle" x="3941.73" y="-2820.3" font-family="Times,serif" font-size="14.00">Language.Drasil.Code.Imperative.GOOL.LanguageRenderer.LanguagePolymorphic</text>
</g>
<!-- u48&#45;&gt;u24 -->
<g id="edge62" class="edge">
<title>u48&#45;&gt;u24</title>
<path fill="none" stroke="black" d="M3963.36,-2805.79C4012.5,-2765.19 4132,-2657.75 4179.73,-2537 4232.59,-2403.26 4198.73,-2357.8 4198.73,-2214 4198.73,-2214 4198.73,-2214 4198.73,-1602 4198.73,-1133.8 2518.97,-1023.91 1916.55,-999.56"/>
<polygon fill="black" stroke="black" points="1916.58,-996.06 1906.45,-999.15 1916.3,-1003.05 1916.58,-996.06"/>
</g>
<!-- u48&#45;&gt;u38 -->
<g id="edge64" class="edge">
<title>u48&#45;&gt;u38</title>
<path fill="none" stroke="black" d="M3941.73,-2805.84C3941.73,-2755.65 3941.73,-2608.79 3941.73,-2547.43"/>
<polygon fill="black" stroke="black" points="3945.23,-2547.35 3941.73,-2537.35 3938.23,-2547.35 3945.23,-2547.35"/>
</g>
<!-- u48&#45;&gt;u37 -->
<g id="edge63" class="edge">
<title>u48&#45;&gt;u37</title>
<path fill="none" stroke="black" d="M3913.87,-2805.84C3829.98,-2754.18 3579.78,-2600.09 3485.88,-2542.26"/>
<polygon fill="black" stroke="black" points="3487.64,-2539.23 3477.29,-2536.97 3483.97,-2545.19 3487.64,-2539.23"/>
</g>
<!-- u48&#45;&gt;u49 -->
<g id="edge66" class="edge">
<title>u48&#45;&gt;u49</title>
<path fill="none" stroke="black" d="M3883.74,-2806.17C3703.92,-2753.98 3156.35,-2595.06 2964.77,-2539.46"/>
<polygon fill="black" stroke="black" points="2965.69,-2536.08 2955.11,-2536.65 2963.74,-2542.8 2965.69,-2536.08"/>
</g>
<!-- u48&#45;&gt;u41 -->
<g id="edge65" class="edge">
<title>u48&#45;&gt;u41</title>
<path fill="none" stroke="black" d="M3853.3,-2806.44C3573.55,-2754.05 2709.23,-2592.19 2419.51,-2537.94"/>
<polygon fill="black" stroke="black" points="2419.92,-2534.45 2409.45,-2536.05 2418.63,-2541.33 2419.92,-2534.45"/>
</g>
<!-- u47&#45;&gt;u48 -->
<g id="edge61" class="edge">
<title>u47&#45;&gt;u48</title>
<path fill="none" stroke="black" d="M3103.06,-3111.17C3255.36,-3059.2 3717.82,-2901.4 3882.62,-2845.17"/>
<polygon fill="black" stroke="black" points="3883.77,-2848.47 3892.11,-2841.93 3881.51,-2841.85 3883.77,-2848.47"/>
</g>
<!-- u46&#45;&gt;u48 -->
<g id="edge60" class="edge">
<title>u46&#45;&gt;u48</title>
<path fill="none" stroke="black" d="M3792.68,-3110.84C3819.01,-3060.34 3896.38,-2911.96 3928.02,-2851.3"/>
<polygon fill="black" stroke="black" points="3931.17,-2852.83 3932.69,-2842.35 3924.96,-2849.59 3931.17,-2852.83"/>
</g>
<!-- u45&#45;&gt;u48 -->
<g id="edge59" class="edge">
<title>u45&#45;&gt;u48</title>
<path fill="none" stroke="black" d="M4491.19,-3111.06C4392.1,-3059.47 4094.1,-2904.32 3983.57,-2846.78"/>
<polygon fill="black" stroke="black" points="3984.88,-2843.52 3974.4,-2842.01 3981.65,-2849.73 3984.88,-2843.52"/>
</g>
<!-- u44&#45;&gt;u48 -->
<g id="edge58" class="edge">
<title>u44&#45;&gt;u48</title>
<path fill="none" stroke="black" d="M5192.66,-3111.28C4964.48,-3059.06 4266.03,-2899.22 4024.75,-2844"/>
<polygon fill="black" stroke="black" points="4025.51,-2840.58 4014.98,-2841.76 4023.95,-2847.41 4025.51,-2840.58"/>
</g>
<!-- u43&#45;&gt;u48 -->
<g id="edge57" class="edge">
<title>u43&#45;&gt;u48</title>
<path fill="none" stroke="black" d="M5895.49,-3111.82C5540.97,-3059.77 4431.87,-2896.95 4062.65,-2842.75"/>
<polygon fill="black" stroke="black" points="4063.14,-2839.29 4052.74,-2841.3 4062.13,-2846.21 4063.14,-2839.29"/>
</g>
<!-- u42&#45;&gt;u48 -->
<g id="edge56" class="edge">
<title>u42&#45;&gt;u48</title>
<path fill="none" stroke="black" d="M6601.39,-3112.51C6124.37,-3060.94 4592.72,-2895.37 4097.66,-2841.86"/>
<polygon fill="black" stroke="black" points="4097.9,-2838.36 4087.58,-2840.77 4097.15,-2845.32 4097.9,-2838.36"/>
</g>
<!-- u10&#45;&gt;u17 -->
<g id="edge15" class="edge">
<title>u10&#45;&gt;u17</title>
<path fill="none" stroke="black" d="M1956.03,-1278.82C1964.76,-1228.8 1984.49,-1080.08 1933.73,-974 1794.71,-683.46 1442.6,-470.36 1323.11,-404.43"/>
<polygon fill="black" stroke="black" points="1324.71,-401.31 1314.26,-399.58 1321.34,-407.45 1324.71,-401.31"/>
</g>
<!-- u9&#45;&gt;u55 -->
<g id="edge14" class="edge">
<title>u9&#45;&gt;u55</title>
<path fill="none" stroke="black" d="M1555.04,-1584.78C1508.38,-1533.58 1370.34,-1382.08 1316.04,-1322.48"/>
<polygon fill="black" stroke="black" points="1318.57,-1320.06 1309.25,-1315.03 1313.39,-1324.78 1318.57,-1320.06"/>
</g>
<!-- u9&#45;&gt;u54 -->
<g id="edge13" class="edge">
<title>u9&#45;&gt;u54</title>
<path fill="none" stroke="black" d="M1574.75,-1584.78C1586.54,-1534.31 1621.09,-1386.39 1635.4,-1325.09"/>
<polygon fill="black" stroke="black" points="1638.89,-1325.56 1637.75,-1315.03 1632.07,-1323.97 1638.89,-1325.56"/>
</g>
<!-- u9&#45;&gt;u23 -->
<g id="edge12" class="edge">
<title>u9&#45;&gt;u23</title>
<path fill="none" stroke="black" d="M1532.48,-1585.22C1414.28,-1533.37 1054.99,-1375.76 925.17,-1318.81"/>
<polygon fill="black" stroke="black" points="926.42,-1315.54 915.86,-1314.73 923.61,-1321.95 926.42,-1315.54"/>
</g>
<!-- u9&#45;&gt;u10 -->
<g id="edge11" class="edge">
<title>u9&#45;&gt;u10</title>
<path fill="none" stroke="black" d="M1592.09,-1585C1656.54,-1533.71 1849.2,-1380.39 1923.27,-1321.45"/>
<polygon fill="black" stroke="black" points="1925.64,-1324.03 1931.29,-1315.06 1921.29,-1318.55 1925.64,-1324.03"/>
</g>
<!-- u5 -->
<g id="node60" class="node">
<title>u5</title>
<ellipse fill="#33ff33" stroke="black" cx="1281.73" cy="-4656" rx="108.58" ry="18"/>
<text text-anchor="middle" x="1281.73" y="-4652.3" font-family="Times,serif" font-size="14.00">drasil&#45;code.test.Main</text>
</g>
<!-- u5&#45;&gt;u4 -->
<g id="edge5" class="edge">
<title>u5&#45;&gt;u4</title>
<path fill="none" stroke="black" d="M1257.71,-4638.44C1183.15,-4587.04 955.69,-4430.25 872.04,-4372.58"/>
<polygon fill="black" stroke="black" points="873.93,-4369.63 863.71,-4366.84 869.95,-4375.4 873.93,-4369.63"/>
</g>
<!-- u5&#45;&gt;u3 -->
<g id="edge4" class="edge">
<title>u5&#45;&gt;u3</title>
<path fill="none" stroke="black" d="M1264.69,-4637.78C1213.86,-4586.46 1063.28,-4434.37 1004.56,-4375.06"/>
<polygon fill="black" stroke="black" points="1006.74,-4372.3 997.22,-4367.65 1001.77,-4377.22 1006.74,-4372.3"/>
</g>
<!-- u5&#45;&gt;u2 -->
<g id="edge3" class="edge">
<title>u5&#45;&gt;u2</title>
<path fill="none" stroke="black" d="M1273.41,-4637.78C1248.9,-4587.1 1176.88,-4438.16 1147.46,-4377.33"/>
<polygon fill="black" stroke="black" points="1150.47,-4375.51 1142.96,-4368.03 1144.17,-4378.55 1150.47,-4375.51"/>
</g>
<!-- u5&#45;&gt;u0 -->
<g id="edge2" class="edge">
<title>u5&#45;&gt;u0</title>
<path fill="none" stroke="black" d="M1281.73,-4637.78C1281.73,-4587.31 1281.73,-4439.39 1281.73,-4378.09"/>
<polygon fill="black" stroke="black" points="1285.23,-4378.03 1281.73,-4368.03 1278.23,-4378.03 1285.23,-4378.03"/>
</g>
<!-- u5&#45;&gt;u7 -->
<g id="edge6" class="edge">
<title>u5&#45;&gt;u7</title>
<path fill="none" stroke="black" d="M1291.13,-4637.78C1318.87,-4586.99 1400.47,-4437.55 1433.56,-4376.96"/>
<polygon fill="black" stroke="black" points="1436.71,-4378.48 1438.43,-4368.03 1430.57,-4375.13 1436.71,-4378.48"/>
</g>
<!-- u5&#45;&gt;u59 -->
<g id="edge8" class="edge">
<title>u5&#45;&gt;u59</title>
<path fill="none" stroke="black" d="M1303.42,-4638.22C1369.58,-4587.04 1568.93,-4432.84 1644.89,-4374.08"/>
<polygon fill="black" stroke="black" points="1647.34,-4376.61 1653.11,-4367.73 1643.06,-4371.08 1647.34,-4376.61"/>
</g>
<!-- u5&#45;&gt;u57 -->
<g id="edge7" class="edge">
<title>u5&#45;&gt;u57</title>
<path fill="none" stroke="black" d="M1323.31,-4639.37C1670.68,-4508.75 4086.72,-3600.32 4471.99,-3455.46"/>
<polygon fill="black" stroke="black" points="4473.37,-3458.68 4481.49,-3451.88 4470.9,-3452.12 4473.37,-3458.68"/>
</g>
</g>
</svg>
