<?xml version="1.0" encoding="UTF-8" standalone="no"?>
<!DOCTYPE svg PUBLIC "-//W3C//DTD SVG 1.1//EN"
 "http://www.w3.org/Graphics/SVG/1.1/DTD/svg11.dtd">
<!-- Generated by graphviz version 2.43.0 (0)
 -->
<!-- Title: G Pages: 1 -->
<svg width="431pt" height="288pt"
 viewBox="0.00 0.00 430.84 288.00" xmlns="http://www.w3.org/2000/svg" xmlns:xlink="http://www.w3.org/1999/xlink">
<g id="graph0" class="graph" transform="scale(0.33 0.33) rotate(0) translate(4 872)">
<title>G</title>
<polygon fill="white" stroke="transparent" points="-4,4 -4,-872 1306.48,-872 1306.48,4 -4,4"/>
<!-- u7 -->
<g id="node1" class="node">
<title>u7</title>
<ellipse fill="#bbffbb" stroke="black" cx="683.04" cy="-781" rx="63.89" ry="18"/>
<text text-anchor="middle" x="683.04" y="-777.3" font-family="Times,serif" font-size="14.00">Utils.Drasil</text>
</g>
<!-- u6 -->
<g id="node2" class="node">
<title>u6</title>
<ellipse fill="#ffffbb" stroke="black" cx="102.04" cy="-434" rx="102.08" ry="18"/>
<text text-anchor="middle" x="102.04" y="-430.3" font-family="Times,serif" font-size="14.00">Utils.Drasil.English</text>
</g>
<!-- u7&#45;&gt;u6 -->
<g id="edge7" class="edge">
<title>u7&#45;&gt;u6</title>
<path fill="none" stroke="black" d="M656.95,-764.51C563.63,-709.09 246.29,-520.66 138.34,-456.55"/>
<polygon fill="black" stroke="black" points="140.12,-453.54 129.74,-451.45 136.55,-459.56 140.12,-453.54"/>
</g>
<!-- u5 -->
<g id="node3" class="node">
<title>u5</title>
<ellipse fill="#ffffbb" stroke="black" cx="336.04" cy="-434" rx="114.28" ry="18"/>
<text text-anchor="middle" x="336.04" y="-430.3" font-family="Times,serif" font-size="14.00">Utils.Drasil.Document</text>
</g>
<!-- u7&#45;&gt;u5 -->
<g id="edge6" class="edge">
<title>u7&#45;&gt;u5</title>
<path fill="none" stroke="black" d="M666.3,-763.36C609.86,-707.24 426.34,-524.78 360.13,-458.95"/>
<polygon fill="black" stroke="black" points="362.58,-456.45 353.02,-451.88 357.64,-461.41 362.58,-456.45"/>
</g>
<!-- u3 -->
<g id="node5" class="node">
<title>u3</title>
<ellipse fill="#ffffbb" stroke="black" cx="569.04" cy="-434" rx="100.98" ry="18"/>
<text text-anchor="middle" x="569.04" y="-430.3" font-family="Times,serif" font-size="14.00">Utils.Drasil.Strings</text>
</g>
<!-- u7&#45;&gt;u3 -->
<g id="edge5" class="edge">
<title>u7&#45;&gt;u3</title>
<path fill="none" stroke="black" d="M677.39,-762.89C658.93,-707.02 600.31,-529.64 577.89,-461.77"/>
<polygon fill="black" stroke="black" points="581.19,-460.61 574.73,-452.21 574.54,-462.81 581.19,-460.61"/>
</g>
<!-- u2 -->
<g id="node6" class="node">
<title>u2</title>
<ellipse fill="#ffffbb" stroke="black" cx="798.04" cy="-434" rx="110.48" ry="18"/>
<text text-anchor="middle" x="798.04" y="-430.3" font-family="Times,serif" font-size="14.00">Utils.Drasil.Directory</text>
</g>
<!-- u7&#45;&gt;u2 -->
<g id="edge4" class="edge">
<title>u7&#45;&gt;u2</title>
<path fill="none" stroke="black" d="M688.74,-762.89C707.37,-707.02 766.49,-529.64 789.12,-461.77"/>
<polygon fill="black" stroke="black" points="792.46,-462.81 792.3,-452.21 785.82,-460.59 792.46,-462.81"/>
</g>
<!-- u1 -->
<g id="node7" class="node">
<title>u1</title>
<ellipse fill="#ffffbb" stroke="black" cx="1019.04" cy="-434" rx="92.08" ry="18"/>
<text text-anchor="middle" x="1019.04" y="-430.3" font-family="Times,serif" font-size="14.00">Utils.Drasil.Maps</text>
</g>
<!-- u7&#45;&gt;u1 -->
<g id="edge3" class="edge">
<title>u7&#45;&gt;u1</title>
<path fill="none" stroke="black" d="M699.25,-763.36C753.79,-707.35 930.88,-525.52 995.32,-459.36"/>
<polygon fill="black" stroke="black" points="998.13,-461.48 1002.6,-451.88 993.12,-456.6 998.13,-461.48"/>
</g>
<!-- u0 -->
<g id="node8" class="node">
<title>u0</title>
<ellipse fill="#ffffbb" stroke="black" cx="1216.04" cy="-434" rx="86.38" ry="18"/>
<text text-anchor="middle" x="1216.04" y="-430.3" font-family="Times,serif" font-size="14.00">Utils.Drasil.CSV</text>
</g>
<!-- u7&#45;&gt;u0 -->
<g id="edge2" class="edge">
<title>u7&#45;&gt;u0</title>
<path fill="none" stroke="black" d="M707.33,-764.28C793.22,-708.68 1082.81,-521.24 1182.22,-456.89"/>
<polygon fill="black" stroke="black" points="1184.19,-459.78 1190.68,-451.41 1180.39,-453.91 1184.19,-459.78"/>
</g>
<!-- u4 -->
<g id="node4" class="node">
<title>u4</title>
<ellipse fill="#ffffbb" stroke="black" cx="569.04" cy="-87" rx="89.08" ry="18"/>
<text text-anchor="middle" x="569.04" y="-83.3" font-family="Times,serif" font-size="14.00">Utils.Drasil.Lists</text>
</g>
<!-- u3&#45;&gt;u4 -->
<g id="edge1" class="edge">
<title>u3&#45;&gt;u4</title>
<path fill="none" stroke="black" d="M569.04,-415.89C569.04,-360.25 569.04,-184.09 569.04,-115.61"/>
<polygon fill="black" stroke="black" points="572.54,-115.21 569.04,-105.21 565.54,-115.21 572.54,-115.21"/>
</g>
</g>
</svg>
