<?xml version="1.0" encoding="UTF-8" standalone="no"?>
<!DOCTYPE svg PUBLIC "-//W3C//DTD SVG 1.1//EN"
 "http://www.w3.org/Graphics/SVG/1.1/DTD/svg11.dtd">
<!-- Generated by graphviz version 2.43.0 (0)
 -->
<!-- Title: G Pages: 1 -->
<svg width="431pt" height="288pt"
 viewBox="0.00 0.00 430.86 288.00" xmlns="http://www.w3.org/2000/svg" xmlns:xlink="http://www.w3.org/1999/xlink">
<g id="graph0" class="graph" transform="scale(0.33 0.33) rotate(0) translate(4 872)">
<title>G</title>
<polygon fill="white" stroke="transparent" points="-4,4 -4,-872 1306.53,-872 1306.53,4 -4,4"/>
<!-- u7 -->
<g id="node1" class="node">
<title>u7</title>
<ellipse fill="#bbffbb" stroke="black" cx="684.49" cy="-781" rx="63.89" ry="18"/>
<text text-anchor="middle" x="684.49" y="-777.3" font-family="Times,serif" font-size="14.00">Utils.Drasil</text>
</g>
<!-- u6 -->
<g id="node2" class="node">
<title>u6</title>
<ellipse fill="#ffffbb" stroke="black" cx="110.49" cy="-434" rx="110.48" ry="18"/>
<text text-anchor="middle" x="110.49" y="-430.3" font-family="Times,serif" font-size="14.00">Utils.Drasil.Directory</text>
</g>
<!-- u7&#45;&gt;u6 -->
<g id="edge7" class="edge">
<title>u7&#45;&gt;u6</title>
<path fill="none" stroke="black" d="M658.71,-764.51C566.61,-709.15 253.63,-521.03 146.67,-456.75"/>
<polygon fill="black" stroke="black" points="148.23,-453.6 137.86,-451.45 144.62,-459.6 148.23,-453.6"/>
</g>
<!-- u5 -->
<g id="node3" class="node">
<title>u5</title>
<ellipse fill="#ffffbb" stroke="black" cx="339.49" cy="-434" rx="100.98" ry="18"/>
<text text-anchor="middle" x="339.49" y="-430.3" font-family="Times,serif" font-size="14.00">Utils.Drasil.Strings</text>
</g>
<!-- u7&#45;&gt;u5 -->
<g id="edge6" class="edge">
<title>u7&#45;&gt;u5</title>
<path fill="none" stroke="black" d="M667.85,-763.36C611.73,-707.24 429.27,-524.78 363.44,-458.95"/>
<polygon fill="black" stroke="black" points="365.91,-456.47 356.37,-451.88 360.96,-461.42 365.91,-456.47"/>
</g>
<!-- u4 -->
<g id="node4" class="node">
<title>u4</title>
<ellipse fill="#ffffbb" stroke="black" cx="572.49" cy="-434" rx="114.28" ry="18"/>
<text text-anchor="middle" x="572.49" y="-430.3" font-family="Times,serif" font-size="14.00">Utils.Drasil.Document</text>
</g>
<!-- u7&#45;&gt;u4 -->
<g id="edge5" class="edge">
<title>u7&#45;&gt;u4</title>
<path fill="none" stroke="black" d="M678.94,-762.89C660.8,-707.02 603.21,-529.64 581.18,-461.77"/>
<polygon fill="black" stroke="black" points="584.49,-460.64 578.08,-452.21 577.84,-462.8 584.49,-460.64"/>
</g>
<!-- u3 -->
<g id="node5" class="node">
<title>u3</title>
<ellipse fill="#ffffbb" stroke="black" cx="797.49" cy="-434" rx="92.08" ry="18"/>
<text text-anchor="middle" x="797.49" y="-430.3" font-family="Times,serif" font-size="14.00">Utils.Drasil.Maps</text>
</g>
<!-- u7&#45;&gt;u3 -->
<g id="edge4" class="edge">
<title>u7&#45;&gt;u3</title>
<path fill="none" stroke="black" d="M690.09,-762.89C708.39,-707.02 766.49,-529.64 788.72,-461.77"/>
<polygon fill="black" stroke="black" points="792.07,-462.8 791.85,-452.21 785.41,-460.63 792.07,-462.8"/>
</g>
<!-- u2 -->
<g id="node6" class="node">
<title>u2</title>
<ellipse fill="#ffffbb" stroke="black" cx="994.49" cy="-434" rx="86.38" ry="18"/>
<text text-anchor="middle" x="994.49" y="-430.3" font-family="Times,serif" font-size="14.00">Utils.Drasil.CSV</text>
</g>
<!-- u7&#45;&gt;u2 -->
<g id="edge3" class="edge">
<title>u7&#45;&gt;u2</title>
<path fill="none" stroke="black" d="M699.44,-763.36C749.77,-707.35 913.15,-525.52 972.6,-459.36"/>
<polygon fill="black" stroke="black" points="975.24,-461.65 979.33,-451.88 970.04,-456.98 975.24,-461.65"/>
</g>
<!-- u0 -->
<g id="node8" class="node">
<title>u0</title>
<ellipse fill="#ffffbb" stroke="black" cx="1200.49" cy="-434" rx="102.08" ry="18"/>
<text text-anchor="middle" x="1200.49" y="-430.3" font-family="Times,serif" font-size="14.00">Utils.Drasil.English</text>
</g>
<!-- u7&#45;&gt;u0 -->
<g id="edge2" class="edge">
<title>u7&#45;&gt;u0</title>
<path fill="none" stroke="black" d="M708.34,-764.05C791.76,-708.28 1070.57,-521.86 1167.19,-457.27"/>
<polygon fill="black" stroke="black" points="1169.33,-460.05 1175.69,-451.58 1165.44,-454.23 1169.33,-460.05"/>
</g>
<!-- u1 -->
<g id="node7" class="node">
<title>u1</title>
<ellipse fill="#ffffbb" stroke="black" cx="339.49" cy="-87" rx="89.08" ry="18"/>
<text text-anchor="middle" x="339.49" y="-83.3" font-family="Times,serif" font-size="14.00">Utils.Drasil.Lists</text>
</g>
<!-- u5&#45;&gt;u1 -->
<g id="edge1" class="edge">
<title>u5&#45;&gt;u1</title>
<path fill="none" stroke="black" d="M339.49,-415.89C339.49,-360.25 339.49,-184.09 339.49,-115.61"/>
<polygon fill="black" stroke="black" points="342.99,-115.21 339.49,-105.21 335.99,-115.21 342.99,-115.21"/>
</g>
</g>
</svg>
