<?xml version="1.0" encoding="UTF-8" standalone="no"?>
<!DOCTYPE svg PUBLIC "-//W3C//DTD SVG 1.1//EN"
 "http://www.w3.org/Graphics/SVG/1.1/DTD/svg11.dtd">
<!-- Generated by graphviz version 2.43.0 (0)
 -->
<!-- Title: G Pages: 1 -->
<svg width="431pt" height="288pt"
 viewBox="0.00 0.00 430.79 288.00" xmlns="http://www.w3.org/2000/svg" xmlns:xlink="http://www.w3.org/1999/xlink">
<g id="graph0" class="graph" transform="scale(2.51 2.51) rotate(0) translate(4 718)">
<title>G</title>
<polygon fill="white" stroke="transparent" points="-4,4 -4,-718 1075.97,-718 1075.97,4 -4,4"/>
<!-- u9 -->
<g id="node1" class="node">
<title>u9</title>
<ellipse fill="#bbffbb" stroke="black" cx="395.34" cy="-255" rx="141.88" ry="18"/>
<text text-anchor="middle" x="395.34" y="-251.3" font-family="Times,serif" font-size="14.00">Data.Drasil.TheoryConcepts</text>
</g>
<!-- u0 -->
<g id="node2" class="node">
<title>u0</title>
<ellipse fill="#ffffbb" stroke="black" cx="530.34" cy="-663" rx="72.29" ry="18"/>
<text text-anchor="middle" x="530.34" y="-659.3" font-family="Times,serif" font-size="14.00">Theory.Drasil</text>
</g>
<!-- u8 -->
<g id="node3" class="node">
<title>u8</title>
<ellipse fill="#bbbbff" stroke="black" cx="410.34" cy="-459" rx="107.48" ry="18"/>
<text text-anchor="middle" x="410.34" y="-455.3" font-family="Times,serif" font-size="14.00">Theory.Drasil.Theory</text>
</g>
<!-- u0&#45;&gt;u8 -->
<g id="edge4" class="edge">
<title>u0&#45;&gt;u8</title>
<path fill="none" stroke="black" d="M520.31,-645.13C499.31,-609.78 450.59,-527.75 425.65,-485.77"/>
<polygon fill="black" stroke="black" points="428.53,-483.78 420.42,-476.97 422.52,-487.35 428.53,-483.78"/>
</g>
<!-- u7 -->
<g id="node4" class="node">
<title>u7</title>
<ellipse fill="#bbbbff" stroke="black" cx="142.34" cy="-459" rx="142.17" ry="18"/>
<text text-anchor="middle" x="142.34" y="-455.3" font-family="Times,serif" font-size="14.00">Theory.Drasil.DataDefinition</text>
</g>
<!-- u0&#45;&gt;u7 -->
<g id="edge3" class="edge">
<title>u0&#45;&gt;u7</title>
<path fill="none" stroke="black" d="M500.54,-646.48C431.73,-610.66 261.71,-522.15 183.23,-481.29"/>
<polygon fill="black" stroke="black" points="184.62,-478.07 174.13,-476.55 181.38,-484.27 184.62,-478.07"/>
</g>
<!-- u3 -->
<g id="node8" class="node">
<title>u3</title>
<ellipse fill="#bbbbff" stroke="black" cx="928.34" cy="-459" rx="143.77" ry="18"/>
<text text-anchor="middle" x="928.34" y="-455.3" font-family="Times,serif" font-size="14.00">Theory.Drasil.InstanceModel</text>
</g>
<!-- u0&#45;&gt;u3 -->
<g id="edge2" class="edge">
<title>u0&#45;&gt;u3</title>
<path fill="none" stroke="black" d="M560.58,-646.65C630.92,-610.95 805.63,-522.28 886.3,-481.34"/>
<polygon fill="black" stroke="black" points="888.32,-484.24 895.65,-476.59 885.15,-477.99 888.32,-484.24"/>
</g>
<!-- u1 -->
<g id="node10" class="node">
<title>u1</title>
<ellipse fill="#bbbbff" stroke="black" cx="651.34" cy="-459" rx="115.88" ry="18"/>
<text text-anchor="middle" x="651.34" y="-455.3" font-family="Times,serif" font-size="14.00">Theory.Drasil.GenDefn</text>
</g>
<!-- u0&#45;&gt;u1 -->
<g id="edge1" class="edge">
<title>u0&#45;&gt;u1</title>
<path fill="none" stroke="black" d="M540.45,-645.13C561.62,-609.78 610.75,-527.75 635.9,-485.77"/>
<polygon fill="black" stroke="black" points="639.04,-487.35 641.17,-476.97 633.03,-483.75 639.04,-487.35"/>
</g>
<!-- u8&#45;&gt;u9 -->
<g id="edge14" class="edge">
<title>u8&#45;&gt;u9</title>
<path fill="none" stroke="black" d="M409.06,-440.78C406.45,-405.67 400.5,-325.59 397.37,-283.31"/>
<polygon fill="black" stroke="black" points="400.84,-282.89 396.61,-273.18 393.86,-283.41 400.84,-282.89"/>
</g>
<!-- u4 -->
<g id="node7" class="node">
<title>u4</title>
<ellipse fill="#bbbbff" stroke="black" cx="685.34" cy="-255" rx="129.98" ry="18"/>
<text text-anchor="middle" x="685.34" y="-251.3" font-family="Times,serif" font-size="14.00">Theory.Drasil.ModelKinds</text>
</g>
<!-- u8&#45;&gt;u4 -->
<g id="edge13" class="edge">
<title>u8&#45;&gt;u4</title>
<path fill="none" stroke="black" d="M433.31,-441.13C482.55,-404.96 598.29,-319.94 654.13,-278.92"/>
<polygon fill="black" stroke="black" points="656.25,-281.71 662.24,-272.97 652.1,-276.07 656.25,-281.71"/>
</g>
<!-- u7&#45;&gt;u9 -->
<g id="edge12" class="edge">
<title>u7&#45;&gt;u9</title>
<path fill="none" stroke="black" d="M163.47,-441.13C208.58,-405.11 314.38,-320.64 365.99,-279.43"/>
<polygon fill="black" stroke="black" points="368.45,-281.94 374.08,-272.97 364.09,-276.47 368.45,-281.94"/>
</g>
<!-- u6 -->
<g id="node5" class="node">
<title>u6</title>
<ellipse fill="#bbbbff" stroke="black" cx="943.34" cy="-255" rx="110.48" ry="18"/>
<text text-anchor="middle" x="943.34" y="-251.3" font-family="Times,serif" font-size="14.00">Theory.Drasil.Classes</text>
</g>
<!-- u5 -->
<g id="node6" class="node">
<title>u5</title>
<ellipse fill="#bbbbff" stroke="black" cx="545.34" cy="-51" rx="122.38" ry="18"/>
<text text-anchor="middle" x="545.34" y="-47.3" font-family="Times,serif" font-size="14.00">Theory.Drasil.MultiDefn</text>
</g>
<!-- u4&#45;&gt;u5 -->
<g id="edge11" class="edge">
<title>u4&#45;&gt;u5</title>
<path fill="none" stroke="black" d="M673.4,-236.78C648.71,-201.15 591.91,-119.19 562.97,-77.45"/>
<polygon fill="black" stroke="black" points="565.82,-75.4 557.24,-69.18 560.06,-79.39 565.82,-75.4"/>
</g>
<!-- u2 -->
<g id="node9" class="node">
<title>u2</title>
<ellipse fill="#bbbbff" stroke="black" cx="825.34" cy="-51" rx="139.98" ry="18"/>
<text text-anchor="middle" x="825.34" y="-47.3" font-family="Times,serif" font-size="14.00">Theory.Drasil.ConstraintSet</text>
</g>
<!-- u4&#45;&gt;u2 -->
<g id="edge10" class="edge">
<title>u4&#45;&gt;u2</title>
<path fill="none" stroke="black" d="M697.27,-236.78C721.97,-201.15 778.77,-119.19 807.7,-77.45"/>
<polygon fill="black" stroke="black" points="810.61,-79.39 813.43,-69.18 804.86,-75.4 810.61,-79.39"/>
</g>
<!-- u3&#45;&gt;u9 -->
<g id="edge9" class="edge">
<title>u3&#45;&gt;u9</title>
<path fill="none" stroke="black" d="M885.62,-441.81C788.84,-405.13 553.11,-315.79 447.74,-275.86"/>
<polygon fill="black" stroke="black" points="448.85,-272.54 438.26,-272.27 446.37,-279.08 448.85,-272.54"/>
</g>
<!-- u3&#45;&gt;u6 -->
<g id="edge8" class="edge">
<title>u3&#45;&gt;u6</title>
<path fill="none" stroke="black" d="M929.62,-440.78C932.22,-405.67 938.17,-325.59 941.31,-283.31"/>
<polygon fill="black" stroke="black" points="944.81,-283.41 942.06,-273.18 937.83,-282.89 944.81,-283.41"/>
</g>
<!-- u3&#45;&gt;u4 -->
<g id="edge7" class="edge">
<title>u3&#45;&gt;u4</title>
<path fill="none" stroke="black" d="M908.04,-441.13C864.71,-405.11 763.09,-320.64 713.53,-279.43"/>
<polygon fill="black" stroke="black" points="715.68,-276.67 705.75,-272.97 711.2,-282.05 715.68,-276.67"/>
</g>
<!-- u1&#45;&gt;u9 -->
<g id="edge6" class="edge">
<title>u1&#45;&gt;u9</title>
<path fill="none" stroke="black" d="M629.95,-441.13C584.21,-405.03 476.81,-320.29 424.71,-279.18"/>
<polygon fill="black" stroke="black" points="426.86,-276.42 416.84,-272.97 422.52,-281.91 426.86,-276.42"/>
</g>
<!-- u1&#45;&gt;u4 -->
<g id="edge5" class="edge">
<title>u1&#45;&gt;u4</title>
<path fill="none" stroke="black" d="M654.24,-440.78C660.15,-405.67 673.63,-325.59 680.74,-283.31"/>
<polygon fill="black" stroke="black" points="684.24,-283.62 682.45,-273.18 677.33,-282.46 684.24,-283.62"/>
</g>
</g>
</svg>
