<?xml version="1.0" encoding="UTF-8" standalone="no"?>
<!DOCTYPE svg PUBLIC "-//W3C//DTD SVG 1.1//EN"
 "http://www.w3.org/Graphics/SVG/1.1/DTD/svg11.dtd">
<!-- Generated by graphviz version 2.43.0 (0)
 -->
<!-- Title: G Pages: 1 -->
<svg width="431pt" height="288pt"
 viewBox="0.00 0.00 431.12 288.00" xmlns="http://www.w3.org/2000/svg" xmlns:xlink="http://www.w3.org/1999/xlink">
<g id="graph0" class="graph" transform="scale(0.25 0.25) rotate(0) translate(4 1134)">
<title>G</title>
<polygon fill="white" stroke="transparent" points="-4,4 -4,-1134 1699.52,-1134 1699.52,4 -4,4"/>
<!-- u7 -->
<g id="node1" class="node">
<title>u7</title>
<ellipse fill="#bbffbb" stroke="black" cx="861.09" cy="-726" rx="104.78" ry="18"/>
<text text-anchor="middle" x="861.09" y="-722.3" font-family="Times,serif" font-size="14.00">Drasil.Website.Body</text>
</g>
<!-- u6 -->
<g id="node2" class="node">
<title>u6</title>
<ellipse fill="#bbffbb" stroke="black" cx="152.09" cy="-404" rx="152.17" ry="18"/>
<text text-anchor="middle" x="152.09" y="-400.3" font-family="Times,serif" font-size="14.00">Drasil.Website.Documentation</text>
</g>
<!-- u7&#45;&gt;u6 -->
<g id="edge7" class="edge">
<title>u7&#45;&gt;u6</title>
<path fill="none" stroke="black" d="M825.44,-708.91C707.51,-655.68 329.97,-485.28 198.08,-425.76"/>
<polygon fill="black" stroke="black" points="199.2,-422.43 188.65,-421.5 196.33,-428.81 199.2,-422.43"/>
</g>
<!-- u5 -->
<g id="node3" class="node">
<title>u5</title>
<ellipse fill="#bbffbb" stroke="black" cx="461.09" cy="-404" rx="139.18" ry="18"/>
<text text-anchor="middle" x="461.09" y="-400.3" font-family="Times,serif" font-size="14.00">Drasil.Website.Introduction</text>
</g>
<!-- u7&#45;&gt;u5 -->
<g id="edge6" class="edge">
<title>u7&#45;&gt;u5</title>
<path fill="none" stroke="black" d="M840.14,-708.25C773.61,-655.02 566.91,-489.66 490.16,-428.26"/>
<polygon fill="black" stroke="black" points="492.3,-425.49 482.3,-421.97 487.93,-430.95 492.3,-425.49"/>
</g>
<!-- u4 -->
<g id="node4" class="node">
<title>u4</title>
<ellipse fill="#bbffbb" stroke="black" cx="738.09" cy="-404" rx="120.48" ry="18"/>
<text text-anchor="middle" x="738.09" y="-400.3" font-family="Times,serif" font-size="14.00">Drasil.Website.Analysis</text>
</g>
<!-- u7&#45;&gt;u4 -->
<g id="edge5" class="edge">
<title>u7&#45;&gt;u4</title>
<path fill="none" stroke="black" d="M854.47,-707.8C834.2,-655.05 772.82,-495.37 748.33,-431.66"/>
<polygon fill="black" stroke="black" points="751.59,-430.37 744.73,-422.29 745.05,-432.88 751.59,-430.37"/>
</g>
<!-- u3 -->
<g id="node5" class="node">
<title>u3</title>
<ellipse fill="#bbffbb" stroke="black" cx="985.09" cy="-404" rx="108.58" ry="18"/>
<text text-anchor="middle" x="985.09" y="-400.3" font-family="Times,serif" font-size="14.00">Drasil.Website.About</text>
</g>
<!-- u7&#45;&gt;u3 -->
<g id="edge4" class="edge">
<title>u7&#45;&gt;u3</title>
<path fill="none" stroke="black" d="M867.75,-707.8C888.19,-655.05 950.07,-495.37 974.76,-431.66"/>
<polygon fill="black" stroke="black" points="978.04,-432.88 978.39,-422.29 971.51,-430.35 978.04,-432.88"/>
</g>
<!-- u2 -->
<g id="node6" class="node">
<title>u2</title>
<ellipse fill="#bbffbb" stroke="black" cx="1243.09" cy="-404" rx="131.08" ry="18"/>
<text text-anchor="middle" x="1243.09" y="-400.3" font-family="Times,serif" font-size="14.00">Drasil.Website.CaseStudy</text>
</g>
<!-- u7&#45;&gt;u2 -->
<g id="edge3" class="edge">
<title>u7&#45;&gt;u2</title>
<path fill="none" stroke="black" d="M881.09,-708.25C944.5,-655.12 1141.22,-490.33 1214.87,-428.64"/>
<polygon fill="black" stroke="black" points="1217.41,-431.08 1222.82,-421.97 1212.91,-425.71 1217.41,-431.08"/>
</g>
<!-- u1 -->
<g id="node7" class="node">
<title>u1</title>
<ellipse fill="#bbffbb" stroke="black" cx="1544.09" cy="-404" rx="151.37" ry="18"/>
<text text-anchor="middle" x="1544.09" y="-400.3" font-family="Times,serif" font-size="14.00">Drasil.Website.GettingStarted</text>
</g>
<!-- u7&#45;&gt;u1 -->
<g id="edge2" class="edge">
<title>u7&#45;&gt;u1</title>
<path fill="none" stroke="black" d="M895.42,-708.91C1008.9,-655.74 1371.89,-485.68 1499.33,-425.97"/>
<polygon fill="black" stroke="black" points="1500.88,-429.11 1508.45,-421.7 1497.91,-422.77 1500.88,-429.11"/>
</g>
<!-- u0 -->
<g id="node8" class="node">
<title>u0</title>
<ellipse fill="#bbffbb" stroke="black" cx="1243.09" cy="-81" rx="122.38" ry="18"/>
<text text-anchor="middle" x="1243.09" y="-77.3" font-family="Times,serif" font-size="14.00">Drasil.Website.Example</text>
</g>
<!-- u2&#45;&gt;u0 -->
<g id="edge1" class="edge">
<title>u2&#45;&gt;u0</title>
<path fill="none" stroke="black" d="M1243.09,-385.74C1243.09,-333.05 1243.09,-173.96 1243.09,-109.54"/>
<polygon fill="black" stroke="black" points="1246.59,-109.34 1243.09,-99.34 1239.59,-109.34 1246.59,-109.34"/>
</g>
<!-- u8 -->
<g id="node9" class="node">
<title>u8</title>
<ellipse fill="#ffffbb" stroke="black" cx="861.09" cy="-1049" rx="122.38" ry="18"/>
<text text-anchor="middle" x="861.09" y="-1045.3" font-family="Times,serif" font-size="14.00">drasil&#45;website.app.Main</text>
</g>
<!-- u8&#45;&gt;u7 -->
<g id="edge8" class="edge">
<title>u8&#45;&gt;u7</title>
<path fill="none" stroke="black" d="M861.09,-1030.74C861.09,-978.05 861.09,-818.96 861.09,-754.54"/>
<polygon fill="black" stroke="black" points="864.59,-754.34 861.09,-744.34 857.59,-754.34 864.59,-754.34"/>
</g>
</g>
</svg>
