<?xml version="1.0" encoding="UTF-8" standalone="no"?>
<!DOCTYPE svg PUBLIC "-//W3C//DTD SVG 1.1//EN"
 "http://www.w3.org/Graphics/SVG/1.1/DTD/svg11.dtd">
<!-- Generated by graphviz version 2.43.0 (0)
 -->
<!-- Title: G Pages: 1 -->
<svg width="431pt" height="288pt"
 viewBox="0.00 0.00 431.20 288.00" xmlns="http://www.w3.org/2000/svg" xmlns:xlink="http://www.w3.org/1999/xlink">
<g id="graph0" class="graph" transform="scale(3.95 3.95) rotate(0) translate(4 1134)">
<title>G</title>
<polygon fill="white" stroke="transparent" points="-4,4 -4,-1134 1699.83,-1134 1699.83,4 -4,4"/>
<!-- u8 -->
<g id="node1" class="node">
<title>u8</title>
<ellipse fill="#bbffbb" stroke="black" cx="108.54" cy="-404" rx="108.58" ry="18"/>
<text text-anchor="middle" x="108.54" y="-400.3" font-family="Times,serif" font-size="14.00">Drasil.Website.About</text>
</g>
<!-- u7 -->
<g id="node2" class="node">
<title>u7</title>
<ellipse fill="#bbffbb" stroke="black" cx="374.54" cy="-404" rx="139.18" ry="18"/>
<text text-anchor="middle" x="374.54" y="-400.3" font-family="Times,serif" font-size="14.00">Drasil.Website.Introduction</text>
</g>
<!-- u6 -->
<g id="node3" class="node">
<title>u6</title>
<ellipse fill="#bbffbb" stroke="black" cx="683.54" cy="-404" rx="152.17" ry="18"/>
<text text-anchor="middle" x="683.54" y="-400.3" font-family="Times,serif" font-size="14.00">Drasil.Website.Documentation</text>
</g>
<!-- u5 -->
<g id="node4" class="node">
<title>u5</title>
<ellipse fill="#bbffbb" stroke="black" cx="1564.54" cy="-81" rx="122.38" ry="18"/>
<text text-anchor="middle" x="1564.54" y="-77.3" font-family="Times,serif" font-size="14.00">Drasil.Website.Example</text>
</g>
<!-- u4 -->
<g id="node5" class="node">
<title>u4</title>
<ellipse fill="#bbffbb" stroke="black" cx="973.54" cy="-404" rx="120.48" ry="18"/>
<text text-anchor="middle" x="973.54" y="-400.3" font-family="Times,serif" font-size="14.00">Drasil.Website.Analysis</text>
</g>
<!-- u3 -->
<g id="node6" class="node">
<title>u3</title>
<ellipse fill="#bbffbb" stroke="black" cx="828.54" cy="-726" rx="104.78" ry="18"/>
<text text-anchor="middle" x="828.54" y="-722.3" font-family="Times,serif" font-size="14.00">Drasil.Website.Body</text>
</g>
<!-- u3&#45;&gt;u8 -->
<g id="edge8" class="edge">
<title>u3&#45;&gt;u8</title>
<path fill="none" stroke="black" d="M792.34,-708.91C672.3,-655.56 287.4,-484.49 154.32,-425.35"/>
<polygon fill="black" stroke="black" points="155.37,-421.98 144.81,-421.12 152.53,-428.38 155.37,-421.98"/>
</g>
<!-- u3&#45;&gt;u7 -->
<g id="edge7" class="edge">
<title>u3&#45;&gt;u7</title>
<path fill="none" stroke="black" d="M804.77,-708.25C729.01,-654.85 493.15,-488.6 406.71,-427.68"/>
<polygon fill="black" stroke="black" points="408.54,-424.68 398.35,-421.78 404.51,-430.4 408.54,-424.68"/>
</g>
<!-- u3&#45;&gt;u6 -->
<g id="edge6" class="edge">
<title>u3&#45;&gt;u6</title>
<path fill="none" stroke="black" d="M820.74,-707.8C796.85,-655.05 724.49,-495.37 695.62,-431.66"/>
<polygon fill="black" stroke="black" points="698.69,-429.95 691.37,-422.29 692.31,-432.84 698.69,-429.95"/>
</g>
<!-- u3&#45;&gt;u4 -->
<g id="edge5" class="edge">
<title>u3&#45;&gt;u4</title>
<path fill="none" stroke="black" d="M836.34,-707.8C860.23,-655.05 932.59,-495.37 961.46,-431.66"/>
<polygon fill="black" stroke="black" points="964.77,-432.84 965.71,-422.29 958.39,-429.95 964.77,-432.84"/>
</g>
<!-- u2 -->
<g id="node7" class="node">
<title>u2</title>
<ellipse fill="#bbffbb" stroke="black" cx="1263.54" cy="-404" rx="151.37" ry="18"/>
<text text-anchor="middle" x="1263.54" y="-400.3" font-family="Times,serif" font-size="14.00">Drasil.Website.GettingStarted</text>
</g>
<!-- u3&#45;&gt;u2 -->
<g id="edge4" class="edge">
<title>u3&#45;&gt;u2</title>
<path fill="none" stroke="black" d="M851.32,-708.25C923.75,-654.96 1148.91,-489.33 1232.17,-428.08"/>
<polygon fill="black" stroke="black" points="1234.48,-430.72 1240.47,-421.97 1230.34,-425.08 1234.48,-430.72"/>
</g>
<!-- u1 -->
<g id="node8" class="node">
<title>u1</title>
<ellipse fill="#bbffbb" stroke="black" cx="1564.54" cy="-404" rx="131.08" ry="18"/>
<text text-anchor="middle" x="1564.54" y="-400.3" font-family="Times,serif" font-size="14.00">Drasil.Website.CaseStudy</text>
</g>
<!-- u3&#45;&gt;u1 -->
<g id="edge3" class="edge">
<title>u3&#45;&gt;u1</title>
<path fill="none" stroke="black" d="M865.29,-709.02C987.68,-655.81 1381.39,-484.63 1517.63,-425.4"/>
<polygon fill="black" stroke="black" points="1519.21,-428.53 1526.98,-421.33 1516.42,-422.11 1519.21,-428.53"/>
</g>
<!-- u1&#45;&gt;u5 -->
<g id="edge2" class="edge">
<title>u1&#45;&gt;u5</title>
<path fill="none" stroke="black" d="M1564.54,-385.74C1564.54,-333.05 1564.54,-173.96 1564.54,-109.54"/>
<polygon fill="black" stroke="black" points="1568.04,-109.34 1564.54,-99.34 1561.04,-109.34 1568.04,-109.34"/>
</g>
<!-- u0 -->
<g id="node9" class="node">
<title>u0</title>
<ellipse fill="#ffffbb" stroke="black" cx="828.54" cy="-1049" rx="122.38" ry="18"/>
<text text-anchor="middle" x="828.54" y="-1045.3" font-family="Times,serif" font-size="14.00">drasil&#45;website.app.Main</text>
</g>
<!-- u0&#45;&gt;u3 -->
<g id="edge1" class="edge">
<title>u0&#45;&gt;u3</title>
<path fill="none" stroke="black" d="M828.54,-1030.74C828.54,-978.05 828.54,-818.96 828.54,-754.54"/>
<polygon fill="black" stroke="black" points="832.04,-754.34 828.54,-744.34 825.04,-754.34 832.04,-754.34"/>
</g>
</g>
</svg>
