<?xml version="1.0" encoding="UTF-8" standalone="no"?>
<!DOCTYPE svg PUBLIC "-//W3C//DTD SVG 1.1//EN"
 "http://www.w3.org/Graphics/SVG/1.1/DTD/svg11.dtd">
<!-- Generated by graphviz version 2.43.0 (0)
 -->
<!-- Title: G Pages: 1 -->
<svg width="432pt" height="288pt"
 viewBox="0.00 0.00 431.76 288.00" xmlns="http://www.w3.org/2000/svg" xmlns:xlink="http://www.w3.org/1999/xlink">
<g id="graph0" class="graph" transform="scale(0.07 0.07) rotate(0) translate(4 4082)">
<title>G</title>
<polygon fill="white" stroke="transparent" points="-4,4 -4,-4082 6121.61,-4082 6121.61,4 -4,4"/>
<!-- u4 -->
<g id="node1" class="node">
<title>u4</title>
<ellipse fill="#bbffbb" stroke="black" cx="62.39" cy="-3769" rx="62.29" ry="18"/>
<text text-anchor="middle" x="62.39" y="-3765.3" font-family="Times,serif" font-size="14.00">HelloWorld</text>
</g>
<!-- u1 -->
<g id="node4" class="node">
<title>u1</title>
<ellipse fill="#bbffbb" stroke="black" cx="62.39" cy="-3522" rx="42.49" ry="18"/>
<text text-anchor="middle" x="62.39" y="-3518.3" font-family="Times,serif" font-size="14.00">Helper</text>
</g>
<!-- u4&#45;&gt;u1 -->
<g id="edge1" class="edge">
<title>u4&#45;&gt;u1</title>
<path fill="none" stroke="black" d="M62.39,-3750.77C62.39,-3708.86 62.39,-3601.31 62.39,-3550.44"/>
<polygon fill="black" stroke="black" points="65.89,-3550.21 62.39,-3540.21 58.89,-3550.21 65.89,-3550.21"/>
</g>
<!-- u3 -->
<g id="node2" class="node">
<title>u3</title>
<ellipse fill="#bbffbb" stroke="black" cx="202.39" cy="-3769" rx="59.59" ry="18"/>
<text text-anchor="middle" x="202.39" y="-3765.3" font-family="Times,serif" font-size="14.00">VectorTest</text>
</g>
<!-- u2 -->
<g id="node3" class="node">
<title>u2</title>
<ellipse fill="#bbffbb" stroke="black" cx="356.39" cy="-3769" rx="76.09" ry="18"/>
<text text-anchor="middle" x="356.39" y="-3765.3" font-family="Times,serif" font-size="14.00">NameGenTest</text>
</g>
<!-- u0 -->
<g id="node5" class="node">
<title>u0</title>
<ellipse fill="#bbffbb" stroke="black" cx="503.39" cy="-3769" rx="52.79" ry="18"/>
<text text-anchor="middle" x="503.39" y="-3765.3" font-family="Times,serif" font-size="14.00">FileTests</text>
</g>
<!-- u8 -->
<g id="node6" class="node">
<title>u8</title>
<ellipse fill="#ffffbb" stroke="black" cx="1678.39" cy="-1545" rx="214.46" ry="18"/>
<text text-anchor="middle" x="1678.39" y="-1541.3" font-family="Times,serif" font-size="14.00">Data.Drasil.ExternalLibraries.ODELibraries</text>
</g>
<!-- u9 -->
<g id="node59" class="node">
<title>u9</title>
<ellipse fill="#ff77ff" stroke="black" cx="1597.39" cy="-1298" rx="172.77" ry="18"/>
<text text-anchor="middle" x="1597.39" y="-1294.3" font-family="Times,serif" font-size="14.00">Language.Drasil.Data.ODELibPckg</text>
</g>
<!-- u8&#45;&gt;u9 -->
<g id="edge10" class="edge">
<title>u8&#45;&gt;u9</title>
<path fill="none" stroke="black" d="M1672.7,-1526.77C1658.78,-1484.69 1622.99,-1376.41 1606.26,-1325.81"/>
<polygon fill="black" stroke="black" points="1609.55,-1324.6 1603.08,-1316.21 1602.9,-1326.8 1609.55,-1324.6"/>
</g>
<!-- u7 -->
<g id="node7" class="node">
<title>u7</title>
<ellipse fill="#bbbbff" stroke="black" cx="669.39" cy="-3769" rx="95.58" ry="18"/>
<text text-anchor="middle" x="669.39" y="-3765.3" font-family="Times,serif" font-size="14.00">GOOL.PatternTest</text>
</g>
<!-- u6 -->
<g id="node8" class="node">
<title>u6</title>
<ellipse fill="#bbbbff" stroke="black" cx="604.39" cy="-3522" rx="84.49" ry="18"/>
<text text-anchor="middle" x="604.39" y="-3518.3" font-family="Times,serif" font-size="14.00">GOOL.Observer</text>
</g>
<!-- u7&#45;&gt;u6 -->
<g id="edge9" class="edge">
<title>u7&#45;&gt;u6</title>
<path fill="none" stroke="black" d="M664.82,-3750.77C653.68,-3708.78 625.05,-3600.86 611.59,-3550.12"/>
<polygon fill="black" stroke="black" points="614.91,-3548.98 608.96,-3540.21 608.14,-3550.77 614.91,-3548.98"/>
</g>
<!-- u59 -->
<g id="node9" class="node">
<title>u59</title>
<ellipse fill="#ffbbbb" stroke="black" cx="896.39" cy="-3769" rx="113.18" ry="18"/>
<text text-anchor="middle" x="896.39" y="-3765.3" font-family="Times,serif" font-size="14.00">Language.Drasil.Code</text>
</g>
<!-- u51 -->
<g id="node31" class="node">
<title>u51</title>
<ellipse fill="#77ff77" stroke="black" cx="961.39" cy="-3522" rx="217.16" ry="18"/>
<text text-anchor="middle" x="961.39" y="-3518.3" font-family="Times,serif" font-size="14.00">Language.Drasil.Code.Imperative.Generator</text>
</g>
<!-- u59&#45;&gt;u51 -->
<g id="edge87" class="edge">
<title>u59&#45;&gt;u51</title>
<path fill="none" stroke="black" d="M900.97,-3750.77C912.11,-3708.78 940.74,-3600.86 954.2,-3550.12"/>
<polygon fill="black" stroke="black" points="957.65,-3550.77 956.83,-3540.21 950.88,-3548.98 957.65,-3550.77"/>
</g>
<!-- u35 -->
<g id="node36" class="node">
<title>u35</title>
<ellipse fill="#77ff77" stroke="black" cx="460.39" cy="-3275" rx="217.96" ry="18"/>
<text text-anchor="middle" x="460.39" y="-3271.3" font-family="Times,serif" font-size="14.00">Language.Drasil.Code.Imperative.ReadInput</text>
</g>
<!-- u59&#45;&gt;u35 -->
<g id="edge86" class="edge">
<title>u59&#45;&gt;u35</title>
<path fill="none" stroke="black" d="M884.93,-3750.91C855.71,-3707.8 775.26,-3591.83 697.39,-3504 626.83,-3424.4 533.44,-3339.9 487.83,-3299.79"/>
<polygon fill="black" stroke="black" points="489.98,-3297.02 480.15,-3293.06 485.36,-3302.28 489.98,-3297.02"/>
</g>
<!-- u58 -->
<g id="node10" class="node">
<title>u58</title>
<ellipse fill="#ffbbbb" stroke="black" cx="1885.39" cy="-1792" rx="126.18" ry="18"/>
<text text-anchor="middle" x="1885.39" y="-1788.3" font-family="Times,serif" font-size="14.00">Language.Drasil.Choices</text>
</g>
<!-- u58&#45;&gt;u8 -->
<g id="edge84" class="edge">
<title>u58&#45;&gt;u8</title>
<path fill="none" stroke="black" d="M1870.84,-1773.77C1834.84,-1731.16 1741.49,-1620.68 1699.46,-1570.93"/>
<polygon fill="black" stroke="black" points="1702.06,-1568.59 1692.93,-1563.21 1696.71,-1573.11 1702.06,-1568.59"/>
</g>
<!-- u53 -->
<g id="node23" class="node">
<title>u53</title>
<ellipse fill="#ffbbff" stroke="black" cx="2050.39" cy="-1545" rx="139.98" ry="18"/>
<text text-anchor="middle" x="2050.39" y="-1541.3" font-family="Times,serif" font-size="14.00">Language.Drasil.Code.Code</text>
</g>
<!-- u58&#45;&gt;u53 -->
<g id="edge85" class="edge">
<title>u58&#45;&gt;u53</title>
<path fill="none" stroke="black" d="M1897,-1773.77C1925.58,-1731.34 1999.49,-1621.59 2033.19,-1571.55"/>
<polygon fill="black" stroke="black" points="2036.12,-1573.46 2038.8,-1563.21 2030.32,-1569.55 2036.12,-1573.46"/>
</g>
<!-- u57 -->
<g id="node11" class="node">
<title>u57</title>
<ellipse fill="#ffbbbb" stroke="black" cx="3542.39" cy="-3028" rx="117.78" ry="18"/>
<text text-anchor="middle" x="3542.39" y="-3024.3" font-family="Times,serif" font-size="14.00">Language.Drasil.GOOL</text>
</g>
<!-- u48 -->
<g id="node52" class="node">
<title>u48</title>
<ellipse fill="#77ffff" stroke="black" cx="2072.39" cy="-2780" rx="358.54" ry="18"/>
<text text-anchor="middle" x="2072.39" y="-2776.3" font-family="Times,serif" font-size="14.00">Language.Drasil.Code.Imperative.GOOL.LanguageRenderer.SwiftRenderer</text>
</g>
<!-- u57&#45;&gt;u48 -->
<g id="edge83" class="edge">
<title>u57&#45;&gt;u48</title>
<path fill="none" stroke="black" d="M3466.2,-3014.25C3222.75,-2973.51 2463.09,-2846.38 2180.08,-2799.02"/>
<polygon fill="black" stroke="black" points="2180.66,-2795.57 2170.22,-2797.37 2179.5,-2802.47 2180.66,-2795.57"/>
</g>
<!-- u47 -->
<g id="node53" class="node">
<title>u47</title>
<ellipse fill="#77ffff" stroke="black" cx="2802.39" cy="-2780" rx="352.84" ry="18"/>
<text text-anchor="middle" x="2802.39" y="-2776.3" font-family="Times,serif" font-size="14.00">Language.Drasil.Code.Imperative.GOOL.LanguageRenderer.CppRenderer</text>
</g>
<!-- u57&#45;&gt;u47 -->
<g id="edge82" class="edge">
<title>u57&#45;&gt;u47</title>
<path fill="none" stroke="black" d="M3495.54,-3011.42C3366.65,-2968.58 3006.85,-2848.97 2862.98,-2801.14"/>
<polygon fill="black" stroke="black" points="2864,-2797.79 2853.41,-2797.96 2861.79,-2804.43 2864,-2797.79"/>
</g>
<!-- u46 -->
<g id="node54" class="node">
<title>u46</title>
<ellipse fill="#77ffff" stroke="black" cx="3542.39" cy="-2780" rx="369.33" ry="18"/>
<text text-anchor="middle" x="3542.39" y="-2776.3" font-family="Times,serif" font-size="14.00">Language.Drasil.Code.Imperative.GOOL.LanguageRenderer.CSharpRenderer</text>
</g>
<!-- u57&#45;&gt;u46 -->
<g id="edge81" class="edge">
<title>u57&#45;&gt;u46</title>
<path fill="none" stroke="black" d="M3542.39,-3009.7C3542.39,-2967.62 3542.39,-2859.63 3542.39,-2808.55"/>
<polygon fill="black" stroke="black" points="3545.89,-2808.28 3542.39,-2798.28 3538.89,-2808.28 3545.89,-2808.28"/>
</g>
<!-- u45 -->
<g id="node55" class="node">
<title>u45</title>
<ellipse fill="#77ffff" stroke="black" cx="4284.39" cy="-2780" rx="354.74" ry="18"/>
<text text-anchor="middle" x="4284.39" y="-2776.3" font-family="Times,serif" font-size="14.00">Language.Drasil.Code.Imperative.GOOL.LanguageRenderer.JuliaRenderer</text>
</g>
<!-- u57&#45;&gt;u45 -->
<g id="edge80" class="edge">
<title>u57&#45;&gt;u45</title>
<path fill="none" stroke="black" d="M3589.37,-3011.42C3718.61,-2968.58 4079.38,-2848.97 4223.65,-2801.14"/>
<polygon fill="black" stroke="black" points="4224.85,-2804.43 4233.24,-2797.96 4222.65,-2797.78 4224.85,-2804.43"/>
</g>
<!-- u44 -->
<g id="node56" class="node">
<title>u44</title>
<ellipse fill="#77ffff" stroke="black" cx="5024.39" cy="-2780" rx="367.43" ry="18"/>
<text text-anchor="middle" x="5024.39" y="-2776.3" font-family="Times,serif" font-size="14.00">Language.Drasil.Code.Imperative.GOOL.LanguageRenderer.PythonRenderer</text>
</g>
<!-- u57&#45;&gt;u44 -->
<g id="edge79" class="edge">
<title>u57&#45;&gt;u44</title>
<path fill="none" stroke="black" d="M3618.95,-3014.29C3864.1,-2973.6 4630.3,-2846.42 4915.77,-2799.03"/>
<polygon fill="black" stroke="black" points="4916.43,-2802.47 4925.72,-2797.38 4915.28,-2795.56 4916.43,-2802.47"/>
</g>
<!-- u43 -->
<g id="node57" class="node">
<title>u43</title>
<ellipse fill="#77ffff" stroke="black" cx="5763.39" cy="-2780" rx="354.44" ry="18"/>
<text text-anchor="middle" x="5763.39" y="-2776.3" font-family="Times,serif" font-size="14.00">Language.Drasil.Code.Imperative.GOOL.LanguageRenderer.JavaRenderer</text>
</g>
<!-- u57&#45;&gt;u43 -->
<g id="edge78" class="edge">
<title>u57&#45;&gt;u43</title>
<path fill="none" stroke="black" d="M3634.65,-3016.78C3978.33,-2978.72 5186.35,-2844.91 5612.88,-2797.67"/>
<polygon fill="black" stroke="black" points="5613.56,-2801.12 5623.12,-2796.54 5612.79,-2794.16 5613.56,-2801.12"/>
</g>
<!-- u56 -->
<g id="node12" class="node">
<title>u56</title>
<ellipse fill="#ffbbbb" stroke="black" cx="1507.39" cy="-2039" rx="135.68" ry="18"/>
<text text-anchor="middle" x="1507.39" y="-2035.3" font-family="Times,serif" font-size="14.00">Language.Drasil.CodeSpec</text>
</g>
<!-- u56&#45;&gt;u58 -->
<g id="edge77" class="edge">
<title>u56&#45;&gt;u58</title>
<path fill="none" stroke="black" d="M1533.38,-2021.16C1599.89,-1978.05 1776.35,-1863.68 1851.13,-1815.21"/>
<polygon fill="black" stroke="black" points="1853.24,-1818.01 1859.73,-1809.63 1849.44,-1812.14 1853.24,-1818.01"/>
</g>
<!-- u12 -->
<g id="node13" class="node">
<title>u12</title>
<ellipse fill="#ffbbbb" stroke="black" cx="1119.39" cy="-1792" rx="178.17" ry="18"/>
<text text-anchor="middle" x="1119.39" y="-1788.3" font-family="Times,serif" font-size="14.00">Language.Drasil.ICOSolutionSearch</text>
</g>
<!-- u56&#45;&gt;u12 -->
<g id="edge75" class="edge">
<title>u56&#45;&gt;u12</title>
<path fill="none" stroke="black" d="M1480.73,-2021.16C1412.61,-1978.15 1232.2,-1864.23 1155.12,-1815.56"/>
<polygon fill="black" stroke="black" points="1156.57,-1812.34 1146.25,-1809.96 1152.84,-1818.26 1156.57,-1812.34"/>
</g>
<!-- u14 -->
<g id="node19" class="node">
<title>u14</title>
<ellipse fill="#bbffff" stroke="black" cx="1507.39" cy="-1792" rx="192.27" ry="18"/>
<text text-anchor="middle" x="1507.39" y="-1788.3" font-family="Times,serif" font-size="14.00">Language.Drasil.Chunk.ConstraintMap</text>
</g>
<!-- u56&#45;&gt;u14 -->
<g id="edge76" class="edge">
<title>u56&#45;&gt;u14</title>
<path fill="none" stroke="black" d="M1507.39,-2020.77C1507.39,-1978.86 1507.39,-1871.31 1507.39,-1820.44"/>
<polygon fill="black" stroke="black" points="1510.89,-1820.21 1507.39,-1810.21 1503.89,-1820.21 1510.89,-1820.21"/>
</g>
<!-- u16 -->
<g id="node17" class="node">
<title>u16</title>
<ellipse fill="#bbffff" stroke="black" cx="879.39" cy="-1545" rx="191.17" ry="18"/>
<text text-anchor="middle" x="879.39" y="-1541.3" font-family="Times,serif" font-size="14.00">Language.Drasil.Chunk.CodeDefinition</text>
</g>
<!-- u12&#45;&gt;u16 -->
<g id="edge18" class="edge">
<title>u12&#45;&gt;u16</title>
<path fill="none" stroke="black" d="M1102.52,-1773.77C1060.69,-1731.07 952.11,-1620.23 903.52,-1570.62"/>
<polygon fill="black" stroke="black" points="905.75,-1567.9 896.25,-1563.21 900.75,-1572.8 905.75,-1567.9"/>
</g>
<!-- u11 -->
<g id="node14" class="node">
<title>u11</title>
<ellipse fill="#ffbbbb" stroke="black" cx="1563.39" cy="-803" rx="110.48" ry="18"/>
<text text-anchor="middle" x="1563.39" y="-799.3" font-family="Times,serif" font-size="14.00">Language.Drasil.Mod</text>
</g>
<!-- u13 -->
<g id="node20" class="node">
<title>u13</title>
<ellipse fill="#bbffff" stroke="black" cx="1214.39" cy="-556" rx="170.87" ry="18"/>
<text text-anchor="middle" x="1214.39" y="-552.3" font-family="Times,serif" font-size="14.00">Language.Drasil.Chunk.Parameter</text>
</g>
<!-- u11&#45;&gt;u13 -->
<g id="edge16" class="edge">
<title>u11&#45;&gt;u13</title>
<path fill="none" stroke="black" d="M1539.68,-785.35C1478.77,-742.59 1316.73,-628.84 1247.03,-579.91"/>
<polygon fill="black" stroke="black" points="1248.8,-576.88 1238.6,-573.99 1244.78,-582.61 1248.8,-576.88"/>
</g>
<!-- u22 -->
<g id="node26" class="node">
<title>u22</title>
<ellipse fill="#ffbbff" stroke="black" cx="1563.39" cy="-556" rx="160.57" ry="18"/>
<text text-anchor="middle" x="1563.39" y="-552.3" font-family="Times,serif" font-size="14.00">Language.Drasil.Code.DataDesc</text>
</g>
<!-- u11&#45;&gt;u22 -->
<g id="edge17" class="edge">
<title>u11&#45;&gt;u22</title>
<path fill="none" stroke="black" d="M1563.39,-784.77C1563.39,-742.86 1563.39,-635.31 1563.39,-584.44"/>
<polygon fill="black" stroke="black" points="1566.89,-584.21 1563.39,-574.21 1559.89,-584.21 1566.89,-584.21"/>
</g>
<!-- u18 -->
<g id="node15" class="node">
<title>u18</title>
<ellipse fill="#bbffff" stroke="black" cx="1214.39" cy="-62" rx="168.17" ry="18"/>
<text text-anchor="middle" x="1214.39" y="-58.3" font-family="Times,serif" font-size="14.00">Language.Drasil.Chunk.CodeBase</text>
</g>
<!-- u17 -->
<g id="node16" class="node">
<title>u17</title>
<ellipse fill="#bbffff" stroke="black" cx="1214.39" cy="-309" rx="145.67" ry="18"/>
<text text-anchor="middle" x="1214.39" y="-305.3" font-family="Times,serif" font-size="14.00">Language.Drasil.Chunk.Code</text>
</g>
<!-- u17&#45;&gt;u18 -->
<g id="edge21" class="edge">
<title>u17&#45;&gt;u18</title>
<path fill="none" stroke="black" d="M1214.39,-290.77C1214.39,-248.86 1214.39,-141.31 1214.39,-90.44"/>
<polygon fill="black" stroke="black" points="1217.89,-90.21 1214.39,-80.21 1210.89,-90.21 1217.89,-90.21"/>
</g>
<!-- u10 -->
<g id="node58" class="node">
<title>u10</title>
<ellipse fill="#ff77ff" stroke="black" cx="852.39" cy="-1050" rx="154.07" ry="18"/>
<text text-anchor="middle" x="852.39" y="-1046.3" font-family="Times,serif" font-size="14.00">Language.Drasil.Data.ODEInfo</text>
</g>
<!-- u16&#45;&gt;u10 -->
<g id="edge20" class="edge">
<title>u16&#45;&gt;u10</title>
<path fill="none" stroke="black" d="M878.45,-1526.74C874.44,-1453.53 858.82,-1168.26 853.89,-1078.32"/>
<polygon fill="black" stroke="black" points="857.37,-1077.91 853.33,-1068.12 850.38,-1078.29 857.37,-1077.91"/>
</g>
<!-- u15 -->
<g id="node18" class="node">
<title>u15</title>
<ellipse fill="#bbffff" stroke="black" cx="1232.39" cy="-803" rx="202.26" ry="18"/>
<text text-anchor="middle" x="1232.39" y="-799.3" font-family="Times,serif" font-size="14.00">Language.Drasil.Chunk.NamedArgument</text>
</g>
<!-- u13&#45;&gt;u17 -->
<g id="edge19" class="edge">
<title>u13&#45;&gt;u17</title>
<path fill="none" stroke="black" d="M1214.39,-537.77C1214.39,-495.86 1214.39,-388.31 1214.39,-337.44"/>
<polygon fill="black" stroke="black" points="1217.89,-337.21 1214.39,-327.21 1210.89,-337.21 1217.89,-337.21"/>
</g>
<!-- u55 -->
<g id="node21" class="node">
<title>u55</title>
<ellipse fill="#ffbbff" stroke="black" cx="1945.39" cy="-1050" rx="190.37" ry="18"/>
<text text-anchor="middle" x="1945.39" y="-1046.3" font-family="Times,serif" font-size="14.00">Language.Drasil.Code.ExternalLibrary</text>
</g>
<!-- u55&#45;&gt;u11 -->
<g id="edge73" class="edge">
<title>u55&#45;&gt;u11</title>
<path fill="none" stroke="black" d="M1919.14,-1032.16C1851.92,-989.05 1673.59,-874.68 1598.02,-826.21"/>
<polygon fill="black" stroke="black" points="1599.64,-823.09 1589.33,-820.63 1595.86,-828.98 1599.64,-823.09"/>
</g>
<!-- u55&#45;&gt;u15 -->
<g id="edge74" class="edge">
<title>u55&#45;&gt;u15</title>
<path fill="none" stroke="black" d="M1897.51,-1032.54C1770.81,-989.01 1427.2,-870.94 1290.06,-823.81"/>
<polygon fill="black" stroke="black" points="1291.14,-820.48 1280.54,-820.54 1288.86,-827.1 1291.14,-820.48"/>
</g>
<!-- u54 -->
<g id="node22" class="node">
<title>u54</title>
<ellipse fill="#ffbbff" stroke="black" cx="1597.39" cy="-1050" rx="139.18" ry="18"/>
<text text-anchor="middle" x="1597.39" y="-1046.3" font-family="Times,serif" font-size="14.00">Language.Drasil.Code.Lang</text>
</g>
<!-- u21 -->
<g id="node27" class="node">
<title>u21</title>
<ellipse fill="#ffbbff" stroke="black" cx="2050.39" cy="-1298" rx="155.17" ry="18"/>
<text text-anchor="middle" x="2050.39" y="-1294.3" font-family="Times,serif" font-size="14.00">Language.Drasil.Code.FileData</text>
</g>
<!-- u53&#45;&gt;u21 -->
<g id="edge72" class="edge">
<title>u53&#45;&gt;u21</title>
<path fill="none" stroke="black" d="M2050.39,-1526.77C2050.39,-1484.86 2050.39,-1377.31 2050.39,-1326.44"/>
<polygon fill="black" stroke="black" points="2053.89,-1326.21 2050.39,-1316.21 2046.89,-1326.21 2053.89,-1326.21"/>
</g>
<!-- u24 -->
<g id="node24" class="node">
<title>u24</title>
<ellipse fill="#ffbbff" stroke="black" cx="1232.39" cy="-1050" rx="207.96" ry="18"/>
<text text-anchor="middle" x="1232.39" y="-1046.3" font-family="Times,serif" font-size="14.00">Language.Drasil.Code.ExternalLibraryCall</text>
</g>
<!-- u24&#45;&gt;u11 -->
<g id="edge25" class="edge">
<title>u24&#45;&gt;u11</title>
<path fill="none" stroke="black" d="M1255.41,-1031.97C1313.49,-988.97 1466.12,-876 1532.18,-827.11"/>
<polygon fill="black" stroke="black" points="1534.58,-829.68 1540.53,-820.92 1530.41,-824.06 1534.58,-829.68"/>
</g>
<!-- u24&#45;&gt;u15 -->
<g id="edge26" class="edge">
<title>u24&#45;&gt;u15</title>
<path fill="none" stroke="black" d="M1232.39,-1031.77C1232.39,-989.86 1232.39,-882.31 1232.39,-831.44"/>
<polygon fill="black" stroke="black" points="1235.89,-831.21 1232.39,-821.21 1228.89,-831.21 1235.89,-831.21"/>
</g>
<!-- u23 -->
<g id="node25" class="node">
<title>u23</title>
<ellipse fill="#ffbbff" stroke="black" cx="2523.39" cy="-2039" rx="165.97" ry="18"/>
<text text-anchor="middle" x="2523.39" y="-2035.3" font-family="Times,serif" font-size="14.00">Language.Drasil.Code.FileNames</text>
</g>
<!-- u22&#45;&gt;u17 -->
<g id="edge24" class="edge">
<title>u22&#45;&gt;u17</title>
<path fill="none" stroke="black" d="M1539.41,-538.16C1478.26,-495.24 1316.52,-381.69 1246.96,-332.86"/>
<polygon fill="black" stroke="black" points="1248.75,-329.84 1238.55,-326.96 1244.72,-335.57 1248.75,-329.84"/>
</g>
<!-- u20 -->
<g id="node28" class="node">
<title>u20</title>
<ellipse fill="#ffbbff" stroke="black" cx="1052.39" cy="-2533" rx="204.16" ry="18"/>
<text text-anchor="middle" x="1052.39" y="-2529.3" font-family="Times,serif" font-size="14.00">Language.Drasil.Code.CodeQuantityDicts</text>
</g>
<!-- u19 -->
<g id="node29" class="node">
<title>u19</title>
<ellipse fill="#ffbbff" stroke="black" cx="1267.39" cy="-1545" rx="178.97" ry="18"/>
<text text-anchor="middle" x="1267.39" y="-1541.3" font-family="Times,serif" font-size="14.00">Language.Drasil.Code.ExtLibImport</text>
</g>
<!-- u19&#45;&gt;u55 -->
<g id="edge23" class="edge">
<title>u19&#45;&gt;u55</title>
<path fill="none" stroke="black" d="M1332.76,-1528.24C1437.18,-1500.36 1643.66,-1433.87 1779.39,-1316 1858.94,-1246.92 1913.28,-1130.29 1934.91,-1077.9"/>
<polygon fill="black" stroke="black" points="1938.29,-1078.89 1938.8,-1068.31 1931.8,-1076.26 1938.29,-1078.89"/>
</g>
<!-- u19&#45;&gt;u24 -->
<g id="edge22" class="edge">
<title>u19&#45;&gt;u24</title>
<path fill="none" stroke="black" d="M1266.17,-1526.74C1260.97,-1453.53 1240.72,-1168.26 1234.33,-1078.32"/>
<polygon fill="black" stroke="black" points="1237.81,-1077.84 1233.61,-1068.12 1230.83,-1078.34 1237.81,-1077.84"/>
</g>
<!-- u52 -->
<g id="node30" class="node">
<title>u52</title>
<ellipse fill="#77ff77" stroke="black" cx="961.39" cy="-3275" rx="226.66" ry="18"/>
<text text-anchor="middle" x="961.39" y="-3271.3" font-family="Times,serif" font-size="14.00">Language.Drasil.Code.Imperative.SpaceMatch</text>
</g>
<!-- u31 -->
<g id="node40" class="node">
<title>u31</title>
<ellipse fill="#77ff77" stroke="black" cx="1507.39" cy="-2286" rx="222.06" ry="18"/>
<text text-anchor="middle" x="1507.39" y="-2282.3" font-family="Times,serif" font-size="14.00">Language.Drasil.Code.Imperative.DrasilState</text>
</g>
<!-- u52&#45;&gt;u31 -->
<g id="edge71" class="edge">
<title>u52&#45;&gt;u31</title>
<path fill="none" stroke="black" d="M938.1,-3256.86C893.85,-3222.66 798.9,-3141.03 763.39,-3046 756.31,-3027.04 706.73,-2631.87 798.39,-2515 874.86,-2417.51 1234.21,-2338.2 1410.03,-2304.49"/>
<polygon fill="black" stroke="black" points="1410.89,-2307.89 1420.06,-2302.58 1409.58,-2301.02 1410.89,-2307.89"/>
</g>
<!-- u51&#45;&gt;u52 -->
<g id="edge70" class="edge">
<title>u51&#45;&gt;u52</title>
<path fill="none" stroke="black" d="M961.39,-3503.77C961.39,-3461.86 961.39,-3354.31 961.39,-3303.44"/>
<polygon fill="black" stroke="black" points="964.89,-3303.21 961.39,-3293.21 957.89,-3303.21 964.89,-3303.21"/>
</g>
<!-- u37 -->
<g id="node34" class="node">
<title>u37</title>
<ellipse fill="#77ff77" stroke="black" cx="1415.39" cy="-3275" rx="209.06" ry="18"/>
<text text-anchor="middle" x="1415.39" y="-3271.3" font-family="Times,serif" font-size="14.00">Language.Drasil.Code.Imperative.Modules</text>
</g>
<!-- u51&#45;&gt;u37 -->
<g id="edge69" class="edge">
<title>u51&#45;&gt;u37</title>
<path fill="none" stroke="black" d="M992.6,-3504.16C1072.7,-3460.93 1285.55,-3346.07 1374.95,-3297.82"/>
<polygon fill="black" stroke="black" points="1376.83,-3300.79 1383.97,-3292.96 1373.51,-3294.63 1376.83,-3300.79"/>
</g>
<!-- u28 -->
<g id="node43" class="node">
<title>u28</title>
<ellipse fill="#77ff77" stroke="black" cx="900.39" cy="-2039" rx="209.86" ry="18"/>
<text text-anchor="middle" x="900.39" y="-2035.3" font-family="Times,serif" font-size="14.00">Language.Drasil.Code.Imperative.GenODE</text>
</g>
<!-- u51&#45;&gt;u28 -->
<g id="edge68" class="edge">
<title>u51&#45;&gt;u28</title>
<path fill="none" stroke="black" d="M933.2,-3503.95C881.3,-3470.8 771.71,-3392.09 725.39,-3293 675.58,-3186.43 706.39,-3146.64 706.39,-3029 706.39,-3029 706.39,-3029 706.39,-2532 706.39,-2341.37 834,-2136.34 882.23,-2065.65"/>
<polygon fill="black" stroke="black" points="885.17,-2067.55 887.96,-2057.33 879.41,-2063.57 885.17,-2067.55"/>
</g>
<!-- u50 -->
<g id="node32" class="node">
<title>u50</title>
<ellipse fill="#77ff77" stroke="black" cx="1000.39" cy="-3028" rx="228.26" ry="18"/>
<text text-anchor="middle" x="1000.39" y="-3024.3" font-family="Times,serif" font-size="14.00">Language.Drasil.Code.Imperative.Descriptions</text>
</g>
<!-- u50&#45;&gt;u31 -->
<g id="edge67" class="edge">
<title>u50&#45;&gt;u31</title>
<path fill="none" stroke="black" d="M979.56,-3009.85C939.09,-2975 850.94,-2891.26 818.39,-2798 792.72,-2724.43 651.8,-2747.58 822.39,-2515 893.4,-2418.2 1241.68,-2338.6 1412.53,-2304.67"/>
<polygon fill="black" stroke="black" points="1413.39,-2308.06 1422.52,-2302.69 1412.04,-2301.2 1413.39,-2308.06"/>
</g>
<!-- u41 -->
<g id="node33" class="node">
<title>u41</title>
<ellipse fill="#77ff77" stroke="black" cx="1051.39" cy="-2780" rx="223.66" ry="18"/>
<text text-anchor="middle" x="1051.39" y="-2776.3" font-family="Times,serif" font-size="14.00">Language.Drasil.Code.Imperative.Parameters</text>
</g>
<!-- u41&#45;&gt;u20 -->
<g id="edge53" class="edge">
<title>u41&#45;&gt;u20</title>
<path fill="none" stroke="black" d="M1051.46,-2761.77C1051.64,-2719.86 1052.07,-2612.31 1052.28,-2561.44"/>
<polygon fill="black" stroke="black" points="1055.78,-2561.22 1052.32,-2551.21 1048.78,-2561.19 1055.78,-2561.22"/>
</g>
<!-- u41&#45;&gt;u31 -->
<g id="edge54" class="edge">
<title>u41&#45;&gt;u31</title>
<path fill="none" stroke="black" d="M1018.69,-2762.07C943.53,-2720.92 770.06,-2611.93 839.39,-2515 944.13,-2368.59 1148.62,-2315.13 1303.9,-2296.16"/>
<polygon fill="black" stroke="black" points="1304.53,-2299.61 1314.05,-2294.96 1303.71,-2292.66 1304.53,-2299.61"/>
</g>
<!-- u37&#45;&gt;u50 -->
<g id="edge50" class="edge">
<title>u37&#45;&gt;u50</title>
<path fill="none" stroke="black" d="M1386.87,-3257.16C1313.87,-3214.06 1120.26,-3099.77 1038.11,-3051.26"/>
<polygon fill="black" stroke="black" points="1039.51,-3048.03 1029.12,-3045.96 1035.95,-3054.06 1039.51,-3048.03"/>
</g>
<!-- u30 -->
<g id="node41" class="node">
<title>u30</title>
<ellipse fill="#77ff77" stroke="black" cx="1479.39" cy="-3028" rx="233.16" ry="18"/>
<text text-anchor="middle" x="1479.39" y="-3024.3" font-family="Times,serif" font-size="14.00">Language.Drasil.Code.Imperative.FunctionCalls</text>
</g>
<!-- u37&#45;&gt;u30 -->
<g id="edge49" class="edge">
<title>u37&#45;&gt;u30</title>
<path fill="none" stroke="black" d="M1419.89,-3256.77C1430.87,-3214.78 1459.06,-3106.86 1472.31,-3056.12"/>
<polygon fill="black" stroke="black" points="1475.76,-3056.77 1474.9,-3046.21 1468.99,-3055 1475.76,-3056.77"/>
</g>
<!-- u36 -->
<g id="node35" class="node">
<title>u36</title>
<ellipse fill="#77ff77" stroke="black" cx="2126.39" cy="-2039" rx="213.36" ry="18"/>
<text text-anchor="middle" x="2126.39" y="-2035.3" font-family="Times,serif" font-size="14.00">Language.Drasil.Code.Imperative.README</text>
</g>
<!-- u36&#45;&gt;u58 -->
<g id="edge48" class="edge">
<title>u36&#45;&gt;u58</title>
<path fill="none" stroke="black" d="M2109.45,-2020.77C2067.34,-1977.97 1957.88,-1866.69 1909.26,-1817.26"/>
<polygon fill="black" stroke="black" points="1911.51,-1814.56 1902,-1809.88 1906.52,-1819.47 1911.51,-1814.56"/>
</g>
<!-- u35&#45;&gt;u22 -->
<g id="edge47" class="edge">
<title>u35&#45;&gt;u22</title>
<path fill="none" stroke="black" d="M473.21,-3256.69C517.35,-3195.31 660.39,-2980.97 660.39,-2781 660.39,-2781 660.39,-2781 660.39,-1049 660.39,-857.1 1297.19,-640.54 1501.27,-576.07"/>
<polygon fill="black" stroke="black" points="1502.45,-579.36 1510.94,-573.02 1500.35,-572.69 1502.45,-579.36"/>
</g>
<!-- u34 -->
<g id="node37" class="node">
<title>u34</title>
<ellipse fill="#77ff77" stroke="black" cx="1494.39" cy="-2780" rx="201.46" ry="18"/>
<text text-anchor="middle" x="1494.39" y="-2776.3" font-family="Times,serif" font-size="14.00">Language.Drasil.Code.Imperative.Import</text>
</g>
<!-- u34&#45;&gt;u20 -->
<g id="edge41" class="edge">
<title>u34&#45;&gt;u20</title>
<path fill="none" stroke="black" d="M1464.01,-2762.16C1386.03,-2718.93 1178.81,-2604.07 1091.77,-2555.82"/>
<polygon fill="black" stroke="black" points="1093.43,-2552.74 1082.99,-2550.96 1090.04,-2558.87 1093.43,-2552.74"/>
</g>
<!-- u33 -->
<g id="node38" class="node">
<title>u33</title>
<ellipse fill="#77ff77" stroke="black" cx="1939.39" cy="-2533" rx="207.16" ry="18"/>
<text text-anchor="middle" x="1939.39" y="-2529.3" font-family="Times,serif" font-size="14.00">Language.Drasil.Code.Imperative.Logging</text>
</g>
<!-- u34&#45;&gt;u33 -->
<g id="edge46" class="edge">
<title>u34&#45;&gt;u33</title>
<path fill="none" stroke="black" d="M1524.98,-2762.16C1603.5,-2718.93 1812.13,-2604.07 1899.76,-2555.82"/>
<polygon fill="black" stroke="black" points="1901.52,-2558.85 1908.59,-2550.96 1898.15,-2552.71 1901.52,-2558.85"/>
</g>
<!-- u32 -->
<g id="node39" class="node">
<title>u32</title>
<ellipse fill="#77ff77" stroke="black" cx="2370.39" cy="-2533" rx="206.06" ry="18"/>
<text text-anchor="middle" x="2370.39" y="-2529.3" font-family="Times,serif" font-size="14.00">Language.Drasil.Code.Imperative.Helpers</text>
</g>
<!-- u34&#45;&gt;u32 -->
<g id="edge45" class="edge">
<title>u34&#45;&gt;u32</title>
<path fill="none" stroke="black" d="M1552.55,-2762.74C1708.5,-2719.12 2135.48,-2599.7 2302.32,-2553.04"/>
<polygon fill="black" stroke="black" points="2303.29,-2556.4 2311.97,-2550.34 2301.4,-2549.66 2303.29,-2556.4"/>
</g>
<!-- u29 -->
<g id="node42" class="node">
<title>u29</title>
<ellipse fill="#77ff77" stroke="black" cx="1994.39" cy="-2286" rx="237.46" ry="18"/>
<text text-anchor="middle" x="1994.39" y="-2282.3" font-family="Times,serif" font-size="14.00">Language.Drasil.Code.Imperative.ConceptMatch</text>
</g>
<!-- u34&#45;&gt;u29 -->
<g id="edge44" class="edge">
<title>u34&#45;&gt;u29</title>
<path fill="none" stroke="black" d="M1617.77,-2765.74C1982.96,-2725.92 3036.12,-2606.69 3084.39,-2551 3209.31,-2406.89 2504.8,-2328.75 2167.1,-2299.99"/>
<polygon fill="black" stroke="black" points="2167.23,-2296.49 2156.97,-2299.14 2166.64,-2303.47 2167.23,-2296.49"/>
</g>
<!-- u27 -->
<g id="node44" class="node">
<title>u27</title>
<ellipse fill="#77ff77" stroke="black" cx="1494.39" cy="-2533" rx="219.86" ry="18"/>
<text text-anchor="middle" x="1494.39" y="-2529.3" font-family="Times,serif" font-size="14.00">Language.Drasil.Code.Imperative.Comments</text>
</g>
<!-- u34&#45;&gt;u27 -->
<g id="edge43" class="edge">
<title>u34&#45;&gt;u27</title>
<path fill="none" stroke="black" d="M1494.39,-2761.77C1494.39,-2719.86 1494.39,-2612.31 1494.39,-2561.44"/>
<polygon fill="black" stroke="black" points="1497.89,-2561.21 1494.39,-2551.21 1490.89,-2561.21 1497.89,-2561.21"/>
</g>
<!-- u26 -->
<g id="node45" class="node">
<title>u26</title>
<ellipse fill="#77ff77" stroke="black" cx="2835.39" cy="-2533" rx="240.46" ry="18"/>
<text text-anchor="middle" x="2835.39" y="-2529.3" font-family="Times,serif" font-size="14.00">Language.Drasil.Code.Imperative.GenerateGOOL</text>
</g>
<!-- u34&#45;&gt;u26 -->
<g id="edge42" class="edge">
<title>u34&#45;&gt;u26</title>
<path fill="none" stroke="black" d="M1578.53,-2763.63C1815.44,-2720.35 2487.15,-2597.62 2738.7,-2551.67"/>
<polygon fill="black" stroke="black" points="2739.35,-2555.11 2748.55,-2549.87 2738.09,-2548.22 2739.35,-2555.11"/>
</g>
<!-- u33&#45;&gt;u31 -->
<g id="edge40" class="edge">
<title>u33&#45;&gt;u31</title>
<path fill="none" stroke="black" d="M1909.7,-2515.16C1833.56,-2471.98 1631.35,-2357.3 1546.13,-2308.97"/>
<polygon fill="black" stroke="black" points="1547.72,-2305.85 1537.3,-2303.96 1544.27,-2311.94 1547.72,-2305.85"/>
</g>
<!-- u32&#45;&gt;u31 -->
<g id="edge39" class="edge">
<title>u32&#45;&gt;u31</title>
<path fill="none" stroke="black" d="M2312.77,-2515.64C2159.07,-2472.01 1739.92,-2353.01 1575.18,-2306.24"/>
<polygon fill="black" stroke="black" points="1575.74,-2302.77 1565.17,-2303.4 1573.83,-2309.5 1575.74,-2302.77"/>
</g>
<!-- u31&#45;&gt;u56 -->
<g id="edge38" class="edge">
<title>u31&#45;&gt;u56</title>
<path fill="none" stroke="black" d="M1507.39,-2267.77C1507.39,-2225.86 1507.39,-2118.31 1507.39,-2067.44"/>
<polygon fill="black" stroke="black" points="1510.89,-2067.21 1507.39,-2057.21 1503.89,-2067.21 1510.89,-2067.21"/>
</g>
<!-- u31&#45;&gt;u19 -->
<g id="edge37" class="edge">
<title>u31&#45;&gt;u19</title>
<path fill="none" stroke="black" d="M1525.12,-2267.7C1591.65,-2200.64 1817.2,-1952.74 1708.39,-1774 1632.2,-1648.83 1462.7,-1589.36 1357.44,-1563.52"/>
<polygon fill="black" stroke="black" points="1358,-1560.06 1347.46,-1561.13 1356.36,-1566.87 1358,-1560.06"/>
</g>
<!-- u30&#45;&gt;u41 -->
<g id="edge36" class="edge">
<title>u30&#45;&gt;u41</title>
<path fill="none" stroke="black" d="M1449.98,-3010.09C1374.45,-2966.68 1173.72,-2851.31 1089.47,-2802.88"/>
<polygon fill="black" stroke="black" points="1091.15,-2799.81 1080.73,-2797.86 1087.66,-2805.88 1091.15,-2799.81"/>
</g>
<!-- u30&#45;&gt;u34 -->
<g id="edge35" class="edge">
<title>u30&#45;&gt;u34</title>
<path fill="none" stroke="black" d="M1480.45,-3009.7C1483.02,-2967.62 1489.6,-2859.63 1492.71,-2808.55"/>
<polygon fill="black" stroke="black" points="1496.23,-2808.47 1493.34,-2798.28 1489.24,-2808.05 1496.23,-2808.47"/>
</g>
<!-- u29&#45;&gt;u58 -->
<g id="edge34" class="edge">
<title>u29&#45;&gt;u58</title>
<path fill="none" stroke="black" d="M1985.51,-2267.84C1966.71,-2230.62 1923.1,-2139.16 1904.39,-2057 1885.13,-1972.41 1883.95,-1869 1884.65,-1820.54"/>
<polygon fill="black" stroke="black" points="1888.16,-1820.31 1884.84,-1810.25 1881.16,-1820.18 1888.16,-1820.31"/>
</g>
<!-- u28&#45;&gt;u58 -->
<g id="edge33" class="edge">
<title>u28&#45;&gt;u58</title>
<path fill="none" stroke="black" d="M965.4,-2021.83C1142.68,-1977.74 1633.44,-1855.67 1815.89,-1810.29"/>
<polygon fill="black" stroke="black" points="1816.79,-1813.67 1825.65,-1807.86 1815.1,-1806.88 1816.79,-1813.67"/>
</g>
<!-- u28&#45;&gt;u16 -->
<g id="edge31" class="edge">
<title>u28&#45;&gt;u16</title>
<path fill="none" stroke="black" d="M899.66,-2020.78C896.54,-1947.71 884.39,-1663.03 880.56,-1573.27"/>
<polygon fill="black" stroke="black" points="884.05,-1572.92 880.12,-1563.08 877.05,-1573.22 884.05,-1572.92"/>
</g>
<!-- u28&#45;&gt;u19 -->
<g id="edge32" class="edge">
<title>u28&#45;&gt;u19</title>
<path fill="none" stroke="black" d="M897.88,-2020.69C892.31,-1976.09 883.05,-1855.04 932.39,-1774 997.83,-1666.53 1135.35,-1597.94 1212.29,-1566.36"/>
<polygon fill="black" stroke="black" points="1213.85,-1569.5 1221.82,-1562.51 1211.23,-1563.01 1213.85,-1569.5"/>
</g>
<!-- u27&#45;&gt;u31 -->
<g id="edge30" class="edge">
<title>u27&#45;&gt;u31</title>
<path fill="none" stroke="black" d="M1495.31,-2514.77C1497.53,-2472.86 1503.24,-2365.31 1505.94,-2314.44"/>
<polygon fill="black" stroke="black" points="1509.45,-2314.38 1506.48,-2304.21 1502.46,-2314.01 1509.45,-2314.38"/>
</g>
<!-- u26&#45;&gt;u31 -->
<g id="edge28" class="edge">
<title>u26&#45;&gt;u31</title>
<path fill="none" stroke="black" d="M2749.54,-2516.16C2512.53,-2472.43 1850.32,-2350.27 1602.56,-2304.56"/>
<polygon fill="black" stroke="black" points="1602.97,-2301.07 1592.5,-2302.7 1601.7,-2307.96 1602.97,-2301.07"/>
</g>
<!-- u42 -->
<g id="node50" class="node">
<title>u42</title>
<ellipse fill="#ff7777" stroke="black" cx="2524.39" cy="-2286" rx="267.25" ry="18"/>
<text text-anchor="middle" x="2524.39" y="-2282.3" font-family="Times,serif" font-size="14.00">Language.Drasil.Code.Imperative.GOOL.ClassInterface</text>
</g>
<!-- u26&#45;&gt;u42 -->
<g id="edge29" class="edge">
<title>u26&#45;&gt;u42</title>
<path fill="none" stroke="black" d="M2813.53,-2514.77C2758.88,-2471.72 2616.29,-2359.4 2554.11,-2310.41"/>
<polygon fill="black" stroke="black" points="2556.26,-2307.65 2546.24,-2304.21 2551.93,-2313.15 2556.26,-2307.65"/>
</g>
<!-- u25 -->
<g id="node46" class="node">
<title>u25</title>
<ellipse fill="#77ff77" stroke="black" cx="2574.39" cy="-1298" rx="219.86" ry="18"/>
<text text-anchor="middle" x="2574.39" y="-1294.3" font-family="Times,serif" font-size="14.00">Language.Drasil.Code.Imperative.WriteInput</text>
</g>
<!-- u25&#45;&gt;u22 -->
<g id="edge27" class="edge">
<title>u25&#45;&gt;u22</title>
<path fill="none" stroke="black" d="M2550.89,-1279.8C2416.75,-1181.61 1748.55,-692.53 1594.92,-580.08"/>
<polygon fill="black" stroke="black" points="1596.9,-577.19 1586.77,-574.11 1592.77,-582.84 1596.9,-577.19"/>
</g>
<!-- u40 -->
<g id="node47" class="node">
<title>u40</title>
<ellipse fill="#ffff77" stroke="black" cx="3546.39" cy="-2039" rx="215.56" ry="18"/>
<text text-anchor="middle" x="3546.39" y="-2035.3" font-family="Times,serif" font-size="14.00">Language.Drasil.Code.Imperative.Build.AST</text>
</g>
<!-- u39 -->
<g id="node48" class="node">
<title>u39</title>
<ellipse fill="#ffff77" stroke="black" cx="3546.39" cy="-2286" rx="228.56" ry="18"/>
<text text-anchor="middle" x="3546.39" y="-2282.3" font-family="Times,serif" font-size="14.00">Language.Drasil.Code.Imperative.Build.Import</text>
</g>
<!-- u39&#45;&gt;u40 -->
<g id="edge52" class="edge">
<title>u39&#45;&gt;u40</title>
<path fill="none" stroke="black" d="M3546.39,-2267.77C3546.39,-2225.86 3546.39,-2118.31 3546.39,-2067.44"/>
<polygon fill="black" stroke="black" points="3549.89,-2067.21 3546.39,-2057.21 3542.89,-2067.21 3549.89,-2067.21"/>
</g>
<!-- u38 -->
<g id="node49" class="node">
<title>u38</title>
<ellipse fill="#7777ff" stroke="black" cx="3054.39" cy="-2286" rx="245.06" ry="18"/>
<text text-anchor="middle" x="3054.39" y="-2282.3" font-family="Times,serif" font-size="14.00">Language.Drasil.Code.Imperative.Doxygen.Import</text>
</g>
<!-- u38&#45;&gt;u58 -->
<g id="edge51" class="edge">
<title>u38&#45;&gt;u58</title>
<path fill="none" stroke="black" d="M3036.34,-2267.73C2986.6,-2221.07 2841.76,-2091.27 2698.39,-2021 2452.22,-1900.33 2131.84,-1834.29 1977.05,-1807.46"/>
<polygon fill="black" stroke="black" points="1977.55,-1803.99 1967.1,-1805.75 1976.36,-1810.89 1977.55,-1803.99"/>
</g>
<!-- u42&#45;&gt;u23 -->
<g id="edge55" class="edge">
<title>u42&#45;&gt;u23</title>
<path fill="none" stroke="black" d="M2524.32,-2267.77C2524.15,-2225.86 2523.71,-2118.31 2523.51,-2067.44"/>
<polygon fill="black" stroke="black" points="2527.01,-2067.19 2523.46,-2057.21 2520.01,-2067.22 2527.01,-2067.19"/>
</g>
<!-- u42&#45;&gt;u36 -->
<g id="edge57" class="edge">
<title>u42&#45;&gt;u36</title>
<path fill="none" stroke="black" d="M2496.72,-2267.97C2426.45,-2224.71 2241.11,-2110.62 2162.48,-2062.22"/>
<polygon fill="black" stroke="black" points="2164.23,-2059.18 2153.88,-2056.92 2160.56,-2065.14 2164.23,-2059.18"/>
</g>
<!-- u42&#45;&gt;u25 -->
<g id="edge56" class="edge">
<title>u42&#45;&gt;u25</title>
<path fill="none" stroke="black" d="M2544.03,-2268C2582.62,-2233.13 2667.3,-2148.99 2698.39,-2057 2791.69,-1780.98 2635.4,-1423.95 2587.61,-1325.27"/>
<polygon fill="black" stroke="black" points="2590.62,-1323.47 2583.08,-1316.03 2584.34,-1326.55 2590.62,-1323.47"/>
</g>
<!-- u49 -->
<g id="node51" class="node">
<title>u49</title>
<ellipse fill="#77ffff" stroke="black" cx="3542.39" cy="-2533" rx="393.73" ry="18"/>
<text text-anchor="middle" x="3542.39" y="-2529.3" font-family="Times,serif" font-size="14.00">Language.Drasil.Code.Imperative.GOOL.LanguageRenderer.LanguagePolymorphic</text>
</g>
<!-- u49&#45;&gt;u39 -->
<g id="edge65" class="edge">
<title>u49&#45;&gt;u39</title>
<path fill="none" stroke="black" d="M3542.68,-2514.77C3543.36,-2472.86 3545.12,-2365.31 3545.95,-2314.44"/>
<polygon fill="black" stroke="black" points="3549.45,-2314.26 3546.11,-2304.21 3542.45,-2314.15 3549.45,-2314.26"/>
</g>
<!-- u49&#45;&gt;u38 -->
<g id="edge64" class="edge">
<title>u49&#45;&gt;u38</title>
<path fill="none" stroke="black" d="M3508.47,-2514.97C3421.87,-2471.49 3192.74,-2356.46 3097.19,-2308.48"/>
<polygon fill="black" stroke="black" points="3098.6,-2305.28 3088.1,-2303.92 3095.46,-2311.54 3098.6,-2305.28"/>
</g>
<!-- u49&#45;&gt;u42 -->
<g id="edge66" class="edge">
<title>u49&#45;&gt;u42</title>
<path fill="none" stroke="black" d="M3472.82,-2515.26C3289.6,-2471.16 2794.68,-2352.05 2602.34,-2305.76"/>
<polygon fill="black" stroke="black" points="2603.12,-2302.35 2592.58,-2303.41 2601.49,-2309.15 2603.12,-2302.35"/>
</g>
<!-- u48&#45;&gt;u49 -->
<g id="edge63" class="edge">
<title>u48&#45;&gt;u49</title>
<path fill="none" stroke="black" d="M2170.56,-2762.64C2434.41,-2718.66 3157.58,-2598.14 3433.48,-2552.15"/>
<polygon fill="black" stroke="black" points="3434.21,-2555.58 3443.5,-2550.48 3433.06,-2548.67 3434.21,-2555.58"/>
</g>
<!-- u47&#45;&gt;u49 -->
<g id="edge62" class="edge">
<title>u47&#45;&gt;u49</title>
<path fill="none" stroke="black" d="M2853.26,-2762.16C2985.28,-2718.45 3338.5,-2601.51 3481.27,-2554.24"/>
<polygon fill="black" stroke="black" points="3482.78,-2557.42 3491.18,-2550.96 3480.58,-2550.78 3482.78,-2557.42"/>
</g>
<!-- u46&#45;&gt;u49 -->
<g id="edge61" class="edge">
<title>u46&#45;&gt;u49</title>
<path fill="none" stroke="black" d="M3542.39,-2761.77C3542.39,-2719.86 3542.39,-2612.31 3542.39,-2561.44"/>
<polygon fill="black" stroke="black" points="3545.89,-2561.21 3542.39,-2551.21 3538.89,-2561.21 3545.89,-2561.21"/>
</g>
<!-- u45&#45;&gt;u49 -->
<g id="edge60" class="edge">
<title>u45&#45;&gt;u49</title>
<path fill="none" stroke="black" d="M4233.39,-2762.16C4100.89,-2718.41 3746.13,-2601.27 3603.26,-2554.1"/>
<polygon fill="black" stroke="black" points="3604.35,-2550.77 3593.75,-2550.96 3602.15,-2557.42 3604.35,-2550.77"/>
</g>
<!-- u44&#45;&gt;u49 -->
<g id="edge59" class="edge">
<title>u44&#45;&gt;u49</title>
<path fill="none" stroke="black" d="M4925.43,-2762.64C4659.42,-2718.66 3930.35,-2598.14 3652.2,-2552.15"/>
<polygon fill="black" stroke="black" points="3652.53,-2548.66 3642.1,-2550.48 3651.39,-2555.57 3652.53,-2548.66"/>
</g>
<!-- u43&#45;&gt;u49 -->
<g id="edge58" class="edge">
<title>u43&#45;&gt;u49</title>
<path fill="none" stroke="black" d="M5622.35,-2763.44C5226.32,-2719.75 4106.28,-2596.2 3695.71,-2550.91"/>
<polygon fill="black" stroke="black" points="3695.87,-2547.41 3685.55,-2549.79 3695.1,-2554.37 3695.87,-2547.41"/>
</g>
<!-- u10&#45;&gt;u17 -->
<g id="edge15" class="edge">
<title>u10&#45;&gt;u17</title>
<path fill="none" stroke="black" d="M856.34,-1031.83C872.06,-965.25 934.35,-718.89 1034.39,-538 1079.48,-456.49 1153.19,-373.92 1190.77,-334.25"/>
<polygon fill="black" stroke="black" points="1193.41,-336.55 1197.78,-326.9 1188.35,-331.71 1193.41,-336.55"/>
</g>
<!-- u9&#45;&gt;u55 -->
<g id="edge14" class="edge">
<title>u9&#45;&gt;u55</title>
<path fill="none" stroke="black" d="M1621.31,-1280.09C1682.28,-1236.99 1843.56,-1122.98 1912.93,-1073.95"/>
<polygon fill="black" stroke="black" points="1915.16,-1076.66 1921.31,-1068.03 1911.12,-1070.94 1915.16,-1076.66"/>
</g>
<!-- u9&#45;&gt;u54 -->
<g id="edge13" class="edge">
<title>u9&#45;&gt;u54</title>
<path fill="none" stroke="black" d="M1597.39,-1279.7C1597.39,-1237.62 1597.39,-1129.63 1597.39,-1078.55"/>
<polygon fill="black" stroke="black" points="1600.89,-1078.28 1597.39,-1068.28 1593.89,-1078.28 1600.89,-1078.28"/>
</g>
<!-- u9&#45;&gt;u24 -->
<g id="edge12" class="edge">
<title>u9&#45;&gt;u24</title>
<path fill="none" stroke="black" d="M1572.31,-1280.09C1508.23,-1236.91 1338.51,-1122.52 1266,-1073.65"/>
<polygon fill="black" stroke="black" points="1267.91,-1070.71 1257.66,-1068.03 1263.99,-1076.52 1267.91,-1070.71"/>
</g>
<!-- u9&#45;&gt;u10 -->
<g id="edge11" class="edge">
<title>u9&#45;&gt;u10</title>
<path fill="none" stroke="black" d="M1547.94,-1280.67C1415.59,-1236.97 1053.77,-1117.49 911.23,-1070.43"/>
<polygon fill="black" stroke="black" points="911.94,-1066.98 901.35,-1067.16 909.75,-1073.62 911.94,-1066.98"/>
</g>
<!-- u5 -->
<g id="node60" class="node">
<title>u5</title>
<ellipse fill="#33ff33" stroke="black" cx="503.39" cy="-4016" rx="108.58" ry="18"/>
<text text-anchor="middle" x="503.39" y="-4012.3" font-family="Times,serif" font-size="14.00">drasil&#45;code.test.Main</text>
</g>
<!-- u5&#45;&gt;u4 -->
<g id="edge5" class="edge">
<title>u5&#45;&gt;u4</title>
<path fill="none" stroke="black" d="M473.77,-3998.54C395.61,-3955.12 183.94,-3837.53 98.69,-3790.17"/>
<polygon fill="black" stroke="black" points="100.33,-3787.07 89.89,-3785.28 96.93,-3793.19 100.33,-3787.07"/>
</g>
<!-- u5&#45;&gt;u3 -->
<g id="edge4" class="edge">
<title>u5&#45;&gt;u3</title>
<path fill="none" stroke="black" d="M482.71,-3998.16C429.93,-3955.21 290.27,-3841.52 230.34,-3792.75"/>
<polygon fill="black" stroke="black" points="232.4,-3789.91 222.44,-3786.31 227.98,-3795.34 232.4,-3789.91"/>
</g>
<!-- u5&#45;&gt;u2 -->
<g id="edge3" class="edge">
<title>u5&#45;&gt;u2</title>
<path fill="none" stroke="black" d="M493.06,-3997.77C467.59,-3955.32 401.7,-3845.52 371.69,-3795.5"/>
<polygon fill="black" stroke="black" points="374.67,-3793.66 366.52,-3786.88 368.67,-3797.26 374.67,-3793.66"/>
</g>
<!-- u5&#45;&gt;u0 -->
<g id="edge2" class="edge">
<title>u5&#45;&gt;u0</title>
<path fill="none" stroke="black" d="M503.39,-3997.77C503.39,-3955.86 503.39,-3848.31 503.39,-3797.44"/>
<polygon fill="black" stroke="black" points="506.89,-3797.21 503.39,-3787.21 499.89,-3797.21 506.89,-3797.21"/>
</g>
<!-- u5&#45;&gt;u7 -->
<g id="edge6" class="edge">
<title>u5&#45;&gt;u7</title>
<path fill="none" stroke="black" d="M515.07,-3997.77C543.89,-3955.23 618.54,-3845.06 652.33,-3795.19"/>
<polygon fill="black" stroke="black" points="655.24,-3797.13 657.95,-3786.88 649.45,-3793.2 655.24,-3797.13"/>
</g>
<!-- u5&#45;&gt;u59 -->
<g id="edge8" class="edge">
<title>u5&#45;&gt;u59</title>
<path fill="none" stroke="black" d="M530.1,-3998.35C599.08,-3955.35 783.23,-3840.55 860.97,-3792.08"/>
<polygon fill="black" stroke="black" points="863.28,-3794.77 869.91,-3786.51 859.58,-3788.83 863.28,-3794.77"/>
</g>
<!-- u5&#45;&gt;u57 -->
<g id="edge7" class="edge">
<title>u5&#45;&gt;u57</title>
<path fill="none" stroke="black" d="M550.52,-3999.71C901.2,-3885.93 3101,-3172.21 3485.19,-3047.56"/>
<polygon fill="black" stroke="black" points="3486.28,-3050.88 3494.72,-3044.47 3484.12,-3044.23 3486.28,-3050.88"/>
</g>
</g>
</svg>
