<?xml version="1.0" encoding="UTF-8" standalone="no"?>
<!DOCTYPE svg PUBLIC "-//W3C//DTD SVG 1.1//EN"
 "http://www.w3.org/Graphics/SVG/1.1/DTD/svg11.dtd">
<!-- Generated by graphviz version 2.43.0 (0)
 -->
<!-- Title: G Pages: 1 -->
<svg width="431pt" height="288pt"
 viewBox="0.00 0.00 431.16 288.00" xmlns="http://www.w3.org/2000/svg" xmlns:xlink="http://www.w3.org/1999/xlink">
<g id="graph0" class="graph" transform="scale(0.25 0.25) rotate(0) translate(4 1134)">
<title>G</title>
<polygon fill="white" stroke="transparent" points="-4,4 -4,-1134 1699.68,-1134 1699.68,4 -4,4"/>
<!-- u8 -->
<g id="node1" class="node">
<title>u8</title>
<ellipse fill="#bbffbb" stroke="black" cx="120.24" cy="-404" rx="120.48" ry="18"/>
<text text-anchor="middle" x="120.24" y="-400.3" font-family="Times,serif" font-size="14.00">Drasil.Website.Analysis</text>
</g>
<!-- u7 -->
<g id="node2" class="node">
<title>u7</title>
<ellipse fill="#bbffbb" stroke="black" cx="397.24" cy="-404" rx="139.18" ry="18"/>
<text text-anchor="middle" x="397.24" y="-400.3" font-family="Times,serif" font-size="14.00">Drasil.Website.Introduction</text>
</g>
<!-- u6 -->
<g id="node3" class="node">
<title>u6</title>
<ellipse fill="#bbffbb" stroke="black" cx="663.24" cy="-404" rx="108.58" ry="18"/>
<text text-anchor="middle" x="663.24" y="-400.3" font-family="Times,serif" font-size="14.00">Drasil.Website.About</text>
</g>
<!-- u5 -->
<g id="node4" class="node">
<title>u5</title>
<ellipse fill="#bbffbb" stroke="black" cx="942.24" cy="-404" rx="152.17" ry="18"/>
<text text-anchor="middle" x="942.24" y="-400.3" font-family="Times,serif" font-size="14.00">Drasil.Website.Documentation</text>
</g>
<!-- u4 -->
<g id="node5" class="node">
<title>u4</title>
<ellipse fill="#bbffbb" stroke="black" cx="802.24" cy="-726" rx="104.78" ry="18"/>
<text text-anchor="middle" x="802.24" y="-722.3" font-family="Times,serif" font-size="14.00">Drasil.Website.Body</text>
</g>
<!-- u4&#45;&gt;u8 -->
<g id="edge8" class="edge">
<title>u4&#45;&gt;u8</title>
<path fill="none" stroke="black" d="M767.95,-708.91C654.49,-655.67 291.23,-485.23 164.42,-425.73"/>
<polygon fill="black" stroke="black" points="165.54,-422.39 155,-421.31 162.57,-428.73 165.54,-422.39"/>
</g>
<!-- u4&#45;&gt;u7 -->
<g id="edge7" class="edge">
<title>u4&#45;&gt;u7</title>
<path fill="none" stroke="black" d="M781.03,-708.25C713.67,-655.02 504.39,-489.66 426.68,-428.26"/>
<polygon fill="black" stroke="black" points="428.74,-425.43 418.72,-421.97 424.4,-430.92 428.74,-425.43"/>
</g>
<!-- u4&#45;&gt;u6 -->
<g id="edge6" class="edge">
<title>u4&#45;&gt;u6</title>
<path fill="none" stroke="black" d="M794.77,-707.8C771.86,-655.05 702.49,-495.37 674.82,-431.66"/>
<polygon fill="black" stroke="black" points="677.94,-430.07 670.75,-422.29 671.52,-432.86 677.94,-430.07"/>
</g>
<!-- u4&#45;&gt;u5 -->
<g id="edge5" class="edge">
<title>u4&#45;&gt;u5</title>
<path fill="none" stroke="black" d="M809.77,-707.8C832.84,-655.05 902.7,-495.37 930.58,-431.66"/>
<polygon fill="black" stroke="black" points="933.87,-432.85 934.68,-422.29 927.46,-430.05 933.87,-432.85"/>
</g>
<!-- u2 -->
<g id="node7" class="node">
<title>u2</title>
<ellipse fill="#bbffbb" stroke="black" cx="1243.24" cy="-404" rx="131.08" ry="18"/>
<text text-anchor="middle" x="1243.24" y="-400.3" font-family="Times,serif" font-size="14.00">Drasil.Website.CaseStudy</text>
</g>
<!-- u4&#45;&gt;u2 -->
<g id="edge4" class="edge">
<title>u4&#45;&gt;u2</title>
<path fill="none" stroke="black" d="M825.33,-708.25C898.92,-654.85 1128.02,-488.6 1211.99,-427.68"/>
<polygon fill="black" stroke="black" points="1214.08,-430.49 1220.11,-421.78 1209.96,-424.82 1214.08,-430.49"/>
</g>
<!-- u1 -->
<g id="node8" class="node">
<title>u1</title>
<ellipse fill="#bbffbb" stroke="black" cx="1544.24" cy="-404" rx="151.37" ry="18"/>
<text text-anchor="middle" x="1544.24" y="-400.3" font-family="Times,serif" font-size="14.00">Drasil.Website.GettingStarted</text>
</g>
<!-- u4&#45;&gt;u1 -->
<g id="edge3" class="edge">
<title>u4&#45;&gt;u1</title>
<path fill="none" stroke="black" d="M839.04,-709.13C961.97,-656.11 1358.49,-485.11 1496.41,-425.63"/>
<polygon fill="black" stroke="black" points="1498.1,-428.71 1505.89,-421.54 1495.32,-422.28 1498.1,-428.71"/>
</g>
<!-- u3 -->
<g id="node6" class="node">
<title>u3</title>
<ellipse fill="#bbffbb" stroke="black" cx="1243.24" cy="-81" rx="122.38" ry="18"/>
<text text-anchor="middle" x="1243.24" y="-77.3" font-family="Times,serif" font-size="14.00">Drasil.Website.Example</text>
</g>
<!-- u2&#45;&gt;u3 -->
<g id="edge2" class="edge">
<title>u2&#45;&gt;u3</title>
<path fill="none" stroke="black" d="M1243.24,-385.74C1243.24,-333.05 1243.24,-173.96 1243.24,-109.54"/>
<polygon fill="black" stroke="black" points="1246.74,-109.34 1243.24,-99.34 1239.74,-109.34 1246.74,-109.34"/>
</g>
<!-- u0 -->
<g id="node9" class="node">
<title>u0</title>
<ellipse fill="#ffffbb" stroke="black" cx="802.24" cy="-1049" rx="122.38" ry="18"/>
<text text-anchor="middle" x="802.24" y="-1045.3" font-family="Times,serif" font-size="14.00">drasil&#45;website.app.Main</text>
</g>
<!-- u0&#45;&gt;u4 -->
<g id="edge1" class="edge">
<title>u0&#45;&gt;u4</title>
<path fill="none" stroke="black" d="M802.24,-1030.74C802.24,-978.05 802.24,-818.96 802.24,-754.54"/>
<polygon fill="black" stroke="black" points="805.74,-754.34 802.24,-744.34 798.74,-754.34 805.74,-754.34"/>
</g>
</g>
</svg>
