<?xml version="1.0" encoding="UTF-8" standalone="no"?>
<!DOCTYPE svg PUBLIC "-//W3C//DTD SVG 1.1//EN"
 "http://www.w3.org/Graphics/SVG/1.1/DTD/svg11.dtd">
<!-- Generated by graphviz version 2.43.0 (0)
 -->
<!-- Title: G Pages: 1 -->
<svg width="431pt" height="288pt"
 viewBox="0.00 0.00 431.23 288.00" xmlns="http://www.w3.org/2000/svg" xmlns:xlink="http://www.w3.org/1999/xlink">
<g id="graph0" class="graph" transform="scale(3.95 3.95) rotate(0) translate(4 1134)">
<title>G</title>
<polygon fill="white" stroke="transparent" points="-4,4 -4,-1134 1699.98,-1134 1699.98,4 -4,4"/>
<!-- u8 -->
<g id="node1" class="node">
<title>u8</title>
<ellipse fill="#bbffbb" stroke="black" cx="151.44" cy="-404" rx="151.37" ry="18"/>
<text text-anchor="middle" x="151.44" y="-400.3" font-family="Times,serif" font-size="14.00">Drasil.Website.GettingStarted</text>
</g>
<!-- u7 -->
<g id="node2" class="node">
<title>u7</title>
<ellipse fill="#bbffbb" stroke="black" cx="473.44" cy="-404" rx="152.17" ry="18"/>
<text text-anchor="middle" x="473.44" y="-400.3" font-family="Times,serif" font-size="14.00">Drasil.Website.Documentation</text>
</g>
<!-- u6 -->
<g id="node3" class="node">
<title>u6</title>
<ellipse fill="#bbffbb" stroke="black" cx="782.44" cy="-404" rx="139.18" ry="18"/>
<text text-anchor="middle" x="782.44" y="-400.3" font-family="Times,serif" font-size="14.00">Drasil.Website.Introduction</text>
</g>
<!-- u5 -->
<g id="node4" class="node">
<title>u5</title>
<ellipse fill="#bbffbb" stroke="black" cx="1059.44" cy="-404" rx="120.48" ry="18"/>
<text text-anchor="middle" x="1059.44" y="-400.3" font-family="Times,serif" font-size="14.00">Drasil.Website.Analysis</text>
</g>
<!-- u4 -->
<g id="node5" class="node">
<title>u4</title>
<ellipse fill="#bbffbb" stroke="black" cx="920.44" cy="-726" rx="104.78" ry="18"/>
<text text-anchor="middle" x="920.44" y="-722.3" font-family="Times,serif" font-size="14.00">Drasil.Website.Body</text>
</g>
<!-- u4&#45;&gt;u8 -->
<g id="edge8" class="edge">
<title>u4&#45;&gt;u8</title>
<path fill="none" stroke="black" d="M882.3,-709.13C754.76,-656.06 343.13,-484.77 200.57,-425.45"/>
<polygon fill="black" stroke="black" points="201.76,-422.15 191.18,-421.54 199.07,-428.61 201.76,-422.15"/>
</g>
<!-- u4&#45;&gt;u7 -->
<g id="edge7" class="edge">
<title>u4&#45;&gt;u7</title>
<path fill="none" stroke="black" d="M897.03,-708.25C822.53,-654.91 590.76,-488.99 505.41,-427.89"/>
<polygon fill="black" stroke="black" points="507.32,-424.95 497.15,-421.97 503.24,-430.64 507.32,-424.95"/>
</g>
<!-- u4&#45;&gt;u6 -->
<g id="edge6" class="edge">
<title>u4&#45;&gt;u6</title>
<path fill="none" stroke="black" d="M913.02,-707.8C890.27,-655.05 821.41,-495.37 793.93,-431.66"/>
<polygon fill="black" stroke="black" points="797.07,-430.09 789.89,-422.29 790.64,-432.86 797.07,-430.09"/>
</g>
<!-- u4&#45;&gt;u5 -->
<g id="edge5" class="edge">
<title>u4&#45;&gt;u5</title>
<path fill="none" stroke="black" d="M927.91,-707.8C950.82,-655.05 1020.18,-495.37 1047.86,-431.66"/>
<polygon fill="black" stroke="black" points="1051.15,-432.86 1051.93,-422.29 1044.73,-430.07 1051.15,-432.86"/>
</g>
<!-- u3 -->
<g id="node6" class="node">
<title>u3</title>
<ellipse fill="#bbffbb" stroke="black" cx="1329.44" cy="-404" rx="131.08" ry="18"/>
<text text-anchor="middle" x="1329.44" y="-400.3" font-family="Times,serif" font-size="14.00">Drasil.Website.CaseStudy</text>
</g>
<!-- u4&#45;&gt;u3 -->
<g id="edge4" class="edge">
<title>u4&#45;&gt;u3</title>
<path fill="none" stroke="black" d="M941.85,-708.25C1009.88,-655.02 1221.23,-489.66 1299.71,-428.26"/>
<polygon fill="black" stroke="black" points="1302.02,-430.89 1307.74,-421.97 1297.71,-425.38 1302.02,-430.89"/>
</g>
<!-- u1 -->
<g id="node8" class="node">
<title>u1</title>
<ellipse fill="#bbffbb" stroke="black" cx="1587.44" cy="-404" rx="108.58" ry="18"/>
<text text-anchor="middle" x="1587.44" y="-400.3" font-family="Times,serif" font-size="14.00">Drasil.Website.About</text>
</g>
<!-- u4&#45;&gt;u1 -->
<g id="edge3" class="edge">
<title>u4&#45;&gt;u1</title>
<path fill="none" stroke="black" d="M953.97,-708.91C1065.07,-655.61 1421.03,-484.83 1544.66,-425.52"/>
<polygon fill="black" stroke="black" points="1546.33,-428.6 1553.84,-421.12 1543.31,-422.29 1546.33,-428.6"/>
</g>
<!-- u2 -->
<g id="node7" class="node">
<title>u2</title>
<ellipse fill="#bbffbb" stroke="black" cx="1329.44" cy="-81" rx="122.38" ry="18"/>
<text text-anchor="middle" x="1329.44" y="-77.3" font-family="Times,serif" font-size="14.00">Drasil.Website.Example</text>
</g>
<!-- u3&#45;&gt;u2 -->
<g id="edge2" class="edge">
<title>u3&#45;&gt;u2</title>
<path fill="none" stroke="black" d="M1329.44,-385.74C1329.44,-333.05 1329.44,-173.96 1329.44,-109.54"/>
<polygon fill="black" stroke="black" points="1332.94,-109.34 1329.44,-99.34 1325.94,-109.34 1332.94,-109.34"/>
</g>
<!-- u0 -->
<g id="node9" class="node">
<title>u0</title>
<ellipse fill="#ffffbb" stroke="black" cx="920.44" cy="-1049" rx="122.38" ry="18"/>
<text text-anchor="middle" x="920.44" y="-1045.3" font-family="Times,serif" font-size="14.00">drasil&#45;website.app.Main</text>
</g>
<!-- u0&#45;&gt;u4 -->
<g id="edge1" class="edge">
<title>u0&#45;&gt;u4</title>
<path fill="none" stroke="black" d="M920.44,-1030.74C920.44,-978.05 920.44,-818.96 920.44,-754.54"/>
<polygon fill="black" stroke="black" points="923.94,-754.34 920.44,-744.34 916.94,-754.34 923.94,-754.34"/>
</g>
</g>
</svg>
