<?xml version="1.0" encoding="UTF-8" standalone="no"?>
<!DOCTYPE svg PUBLIC "-//W3C//DTD SVG 1.1//EN"
 "http://www.w3.org/Graphics/SVG/1.1/DTD/svg11.dtd">
<!-- Generated by graphviz version 2.43.0 (0)
 -->
<!-- Title: G Pages: 1 -->
<svg width="432pt" height="282pt"
 viewBox="0.00 0.00 432.00 282.23" xmlns="http://www.w3.org/2000/svg" xmlns:xlink="http://www.w3.org/1999/xlink">
<g id="graph0" class="graph" transform="scale(0.17 0.17) rotate(0) translate(4 1630)">
<title>G</title>
<polygon fill="white" stroke="transparent" points="-4,4 -4,-1630 2497.13,-1630 2497.13,4 -4,4"/>
<!-- u13 -->
<g id="node1" class="node">
<title>u13</title>
<ellipse fill="#bbffbb" stroke="black" cx="1697.65" cy="-601" rx="119.68" ry="18"/>
<text text-anchor="middle" x="1697.65" y="-597.3" font-family="Times,serif" font-size="14.00">Language.Drasil.Config</text>
</g>
<!-- u6 -->
<g id="node2" class="node">
<title>u6</title>
<ellipse fill="#bbffbb" stroke="black" cx="1694.65" cy="-1166" rx="123.48" ry="18"/>
<text text-anchor="middle" x="1694.65" y="-1162.3" font-family="Times,serif" font-size="14.00">Language.Drasil.Format</text>
</g>
<!-- u1 -->
<g id="node3" class="node">
<title>u1</title>
<ellipse fill="#bbffbb" stroke="black" cx="1407.65" cy="-1591" rx="128.08" ry="18"/>
<text text-anchor="middle" x="1407.65" y="-1587.3" font-family="Times,serif" font-size="14.00">Language.Drasil.Printers</text>
</g>
<!-- u0 -->
<g id="node4" class="node">
<title>u0</title>
<ellipse fill="#ffffbb" stroke="black" cx="771.65" cy="-1449" rx="135.68" ry="18"/>
<text text-anchor="middle" x="771.65" y="-1445.3" font-family="Times,serif" font-size="14.00">Language.Drasil.DOT.Print</text>
</g>
<!-- u1&#45;&gt;u0 -->
<g id="edge1" class="edge">
<title>u1&#45;&gt;u0</title>
<path fill="none" stroke="black" d="M1341.98,-1575.54C1223.47,-1549.46 974.49,-1494.65 848.36,-1466.89"/>
<polygon fill="black" stroke="black" points="848.91,-1463.42 838.39,-1464.69 847.4,-1470.26 848.91,-1463.42"/>
</g>
<!-- u29 -->
<g id="node5" class="node">
<title>u29</title>
<ellipse fill="#bbbbff" stroke="black" cx="1071.65" cy="-1449" rx="146.47" ry="18"/>
<text text-anchor="middle" x="1071.65" y="-1445.3" font-family="Times,serif" font-size="14.00">Language.Drasil.Debug.Print</text>
</g>
<!-- u1&#45;&gt;u29 -->
<g id="edge3" class="edge">
<title>u1&#45;&gt;u29</title>
<path fill="none" stroke="black" d="M1368.78,-1573.8C1307.28,-1548.18 1187.66,-1498.34 1120.47,-1470.34"/>
<polygon fill="black" stroke="black" points="1121.52,-1466.99 1110.95,-1466.38 1118.83,-1473.45 1121.52,-1466.99"/>
</g>
<!-- u12 -->
<g id="node10" class="node">
<title>u12</title>
<ellipse fill="#bbffff" stroke="black" cx="1694.65" cy="-1308" rx="140.28" ry="18"/>
<text text-anchor="middle" x="1694.65" y="-1304.3" font-family="Times,serif" font-size="14.00">Language.Drasil.JSON.Print</text>
</g>
<!-- u1&#45;&gt;u12 -->
<g id="edge2" class="edge">
<title>u1&#45;&gt;u12</title>
<path fill="none" stroke="black" d="M1439.45,-1573.38C1477.85,-1552.25 1542.98,-1512.94 1588.65,-1467 1628.92,-1426.49 1663.15,-1368.61 1681.13,-1335.32"/>
<polygon fill="black" stroke="black" points="1684.36,-1336.69 1685.97,-1326.22 1678.18,-1333.4 1684.36,-1336.69"/>
</g>
<!-- u33 -->
<g id="node12" class="node">
<title>u33</title>
<ellipse fill="#ffbbff" stroke="black" cx="2304.65" cy="-1166" rx="188.47" ry="18"/>
<text text-anchor="middle" x="2304.65" y="-1162.3" font-family="Times,serif" font-size="14.00">Language.Drasil.Markdown.CreateMd</text>
</g>
<!-- u1&#45;&gt;u33 -->
<g id="edge5" class="edge">
<title>u1&#45;&gt;u33</title>
<path fill="none" stroke="black" d="M1442.53,-1573.55C1582.51,-1507.54 2103.3,-1261.95 2259.86,-1188.12"/>
<polygon fill="black" stroke="black" points="2261.65,-1191.15 2269.2,-1183.71 2258.67,-1184.81 2261.65,-1191.15"/>
</g>
<!-- u32 -->
<g id="node13" class="node">
<title>u32</title>
<ellipse fill="#ffbbff" stroke="black" cx="1407.65" cy="-1449" rx="171.67" ry="18"/>
<text text-anchor="middle" x="1407.65" y="-1445.3" font-family="Times,serif" font-size="14.00">Language.Drasil.Markdown.Config</text>
</g>
<!-- u1&#45;&gt;u32 -->
<g id="edge4" class="edge">
<title>u1&#45;&gt;u32</title>
<path fill="none" stroke="black" d="M1407.65,-1572.83C1407.65,-1549.01 1407.65,-1505.66 1407.65,-1477.35"/>
<polygon fill="black" stroke="black" points="1411.15,-1477.31 1407.65,-1467.31 1404.15,-1477.31 1411.15,-1477.31"/>
</g>
<!-- u34 -->
<g id="node16" class="node">
<title>u34</title>
<ellipse fill="#77ff77" stroke="black" cx="1042.65" cy="-1308" rx="139.98" ry="18"/>
<text text-anchor="middle" x="1042.65" y="-1304.3" font-family="Times,serif" font-size="14.00">Language.Drasil.Plain.Print</text>
</g>
<!-- u29&#45;&gt;u34 -->
<g id="edge45" class="edge">
<title>u29&#45;&gt;u34</title>
<path fill="none" stroke="black" d="M1068.09,-1430.96C1063.16,-1407.3 1054.18,-1364.26 1048.31,-1336.15"/>
<polygon fill="black" stroke="black" points="1051.7,-1335.26 1046.23,-1326.18 1044.85,-1336.69 1051.7,-1335.26"/>
</g>
<!-- u5 -->
<g id="node6" class="node">
<title>u5</title>
<ellipse fill="#ffbbbb" stroke="black" cx="1323.65" cy="-1025" rx="153.27" ry="18"/>
<text text-anchor="middle" x="1323.65" y="-1021.3" font-family="Times,serif" font-size="14.00">Language.Drasil.HTML.Monad</text>
</g>
<!-- u4 -->
<g id="node7" class="node">
<title>u4</title>
<ellipse fill="#ffbbbb" stroke="black" cx="1389.65" cy="-1166" rx="144.87" ry="18"/>
<text text-anchor="middle" x="1389.65" y="-1162.3" font-family="Times,serif" font-size="14.00">Language.Drasil.HTML.Print</text>
</g>
<!-- u4&#45;&gt;u5 -->
<g id="edge9" class="edge">
<title>u4&#45;&gt;u5</title>
<path fill="none" stroke="black" d="M1381.55,-1147.96C1370.22,-1124.09 1349.52,-1080.5 1336.19,-1052.41"/>
<polygon fill="black" stroke="black" points="1339.26,-1050.72 1331.81,-1043.18 1332.93,-1053.72 1339.26,-1050.72"/>
</g>
<!-- u3 -->
<g id="node8" class="node">
<title>u3</title>
<ellipse fill="#ffbbbb" stroke="black" cx="1635.65" cy="-1025" rx="140.28" ry="18"/>
<text text-anchor="middle" x="1635.65" y="-1021.3" font-family="Times,serif" font-size="14.00">Language.Drasil.HTML.CSS</text>
</g>
<!-- u4&#45;&gt;u3 -->
<g id="edge8" class="edge">
<title>u4&#45;&gt;u3</title>
<path fill="none" stroke="black" d="M1419.32,-1148.23C1463.95,-1123.01 1548.36,-1075.32 1597.5,-1047.55"/>
<polygon fill="black" stroke="black" points="1599.27,-1050.58 1606.25,-1042.61 1595.82,-1044.48 1599.27,-1050.58"/>
</g>
<!-- u2 -->
<g id="node9" class="node">
<title>u2</title>
<ellipse fill="#ffbbbb" stroke="black" cx="1401.65" cy="-601" rx="157.87" ry="18"/>
<text text-anchor="middle" x="1401.65" y="-597.3" font-family="Times,serif" font-size="14.00">Language.Drasil.HTML.Helpers</text>
</g>
<!-- u4&#45;&gt;u2 -->
<g id="edge7" class="edge">
<title>u4&#45;&gt;u2</title>
<path fill="none" stroke="black" d="M1321.76,-1150.04C1247.02,-1129.47 1140.07,-1085.73 1161.65,-1007 1184.43,-923.87 1332.6,-702.79 1384.06,-627.51"/>
<polygon fill="black" stroke="black" points="1387.08,-629.3 1389.85,-619.08 1381.31,-625.35 1387.08,-629.3"/>
</g>
<!-- u9 -->
<g id="node33" class="node">
<title>u9</title>
<ellipse fill="#ff7777" stroke="black" cx="1927.65" cy="-1025" rx="133.48" ry="18"/>
<text text-anchor="middle" x="1927.65" y="-1021.3" font-family="Times,serif" font-size="14.00">Language.Drasil.TeX.Print</text>
</g>
<!-- u4&#45;&gt;u9 -->
<g id="edge10" class="edge">
<title>u4&#45;&gt;u9</title>
<path fill="none" stroke="black" d="M1449.28,-1149.59C1549.73,-1123.64 1752.11,-1071.35 1858.57,-1043.85"/>
<polygon fill="black" stroke="black" points="1859.76,-1047.15 1868.57,-1041.26 1858.01,-1040.38 1859.76,-1047.15"/>
</g>
<!-- u14 -->
<g id="node22" class="node">
<title>u14</title>
<ellipse fill="#ffff77" stroke="black" cx="848.65" cy="-35" rx="149.47" ry="18"/>
<text text-anchor="middle" x="848.65" y="-31.3" font-family="Times,serif" font-size="14.00">Language.Drasil.Printing.AST</text>
</g>
<!-- u2&#45;&gt;u14 -->
<g id="edge6" class="edge">
<title>u2&#45;&gt;u14</title>
<path fill="none" stroke="black" d="M1279.37,-589.55C946.72,-561.04 49.85,-483.69 44.65,-478 -56.74,-367.09 29.54,-239.14 156.65,-159 248.6,-101.02 547.74,-64.17 721.14,-47.12"/>
<polygon fill="black" stroke="black" points="721.48,-50.6 731.09,-46.15 720.8,-43.63 721.48,-50.6"/>
</g>
<!-- u12&#45;&gt;u6 -->
<g id="edge21" class="edge">
<title>u12&#45;&gt;u6</title>
<path fill="none" stroke="black" d="M1694.65,-1289.83C1694.65,-1266.01 1694.65,-1222.66 1694.65,-1194.35"/>
<polygon fill="black" stroke="black" points="1698.15,-1194.31 1694.65,-1184.31 1691.15,-1194.31 1698.15,-1194.31"/>
</g>
<!-- u12&#45;&gt;u4 -->
<g id="edge20" class="edge">
<title>u12&#45;&gt;u4</title>
<path fill="none" stroke="black" d="M1658.76,-1290.53C1603.16,-1265.01 1496.25,-1215.93 1435.25,-1187.93"/>
<polygon fill="black" stroke="black" points="1436.42,-1184.62 1425.87,-1183.63 1433.5,-1190.98 1436.42,-1184.62"/>
</g>
<!-- u11 -->
<g id="node11" class="node">
<title>u11</title>
<ellipse fill="#bbffff" stroke="black" cx="2088.65" cy="-742" rx="153.27" ry="18"/>
<text text-anchor="middle" x="2088.65" y="-738.3" font-family="Times,serif" font-size="14.00">Language.Drasil.JSON.Helpers</text>
</g>
<!-- u12&#45;&gt;u11 -->
<g id="edge22" class="edge">
<title>u12&#45;&gt;u11</title>
<path fill="none" stroke="black" d="M1738.92,-1290.89C1820.92,-1258.41 1994.88,-1176.57 2069.65,-1043 2119.59,-953.77 2104.21,-825.39 2094.25,-770.06"/>
<polygon fill="black" stroke="black" points="2097.64,-769.18 2092.35,-760 2090.77,-770.47 2097.64,-769.18"/>
</g>
<!-- u11&#45;&gt;u2 -->
<g id="edge18" class="edge">
<title>u11&#45;&gt;u2</title>
<path fill="none" stroke="black" d="M2015.13,-726.12C1886.38,-700.08 1620.94,-646.37 1485.35,-618.94"/>
<polygon fill="black" stroke="black" points="1485.91,-615.48 1475.42,-616.93 1484.52,-622.34 1485.91,-615.48"/>
</g>
<!-- u18 -->
<g id="node18" class="node">
<title>u18</title>
<ellipse fill="#ffff77" stroke="black" cx="1976.65" cy="-460" rx="167.07" ry="18"/>
<text text-anchor="middle" x="1976.65" y="-456.3" font-family="Times,serif" font-size="14.00">Language.Drasil.Printing.Helpers</text>
</g>
<!-- u11&#45;&gt;u18 -->
<g id="edge19" class="edge">
<title>u11&#45;&gt;u18</title>
<path fill="none" stroke="black" d="M2100.29,-723.62C2118.78,-693.67 2150.54,-630.93 2127.65,-583 2105.69,-537.02 2057,-502.8 2020.81,-482.48"/>
<polygon fill="black" stroke="black" points="2022.36,-479.34 2011.9,-477.62 2019,-485.49 2022.36,-479.34"/>
</g>
<!-- u33&#45;&gt;u18 -->
<g id="edge52" class="edge">
<title>u33&#45;&gt;u18</title>
<path fill="none" stroke="black" d="M2302.89,-1147.98C2298.55,-1104.33 2287.65,-984.84 2287.65,-885 2287.65,-885 2287.65,-885 2287.65,-741 2287.65,-604.84 2120.95,-517.97 2031.64,-481.2"/>
<polygon fill="black" stroke="black" points="2032.78,-477.89 2022.2,-477.38 2030.16,-484.38 2032.78,-477.89"/>
</g>
<!-- u31 -->
<g id="node14" class="node">
<title>u31</title>
<ellipse fill="#ffbbff" stroke="black" cx="1371.65" cy="-1308" rx="165.17" ry="18"/>
<text text-anchor="middle" x="1371.65" y="-1304.3" font-family="Times,serif" font-size="14.00">Language.Drasil.Markdown.Print</text>
</g>
<!-- u32&#45;&gt;u31 -->
<g id="edge51" class="edge">
<title>u32&#45;&gt;u31</title>
<path fill="none" stroke="black" d="M1403.23,-1430.96C1397.11,-1407.3 1385.96,-1364.26 1378.68,-1336.15"/>
<polygon fill="black" stroke="black" points="1381.99,-1334.99 1376.1,-1326.18 1375.22,-1336.74 1381.99,-1334.99"/>
</g>
<!-- u31&#45;&gt;u4 -->
<g id="edge49" class="edge">
<title>u31&#45;&gt;u4</title>
<path fill="none" stroke="black" d="M1373.85,-1289.83C1376.92,-1266.01 1382.49,-1222.66 1386.13,-1194.35"/>
<polygon fill="black" stroke="black" points="1389.62,-1194.67 1387.42,-1184.31 1382.67,-1193.78 1389.62,-1194.67"/>
</g>
<!-- u30 -->
<g id="node15" class="node">
<title>u30</title>
<ellipse fill="#ffbbff" stroke="black" cx="1104.65" cy="-742" rx="178.97" ry="18"/>
<text text-anchor="middle" x="1104.65" y="-738.3" font-family="Times,serif" font-size="14.00">Language.Drasil.Markdown.Helpers</text>
</g>
<!-- u31&#45;&gt;u30 -->
<g id="edge50" class="edge">
<title>u31&#45;&gt;u30</title>
<path fill="none" stroke="black" d="M1348.93,-1290.12C1320.17,-1267.97 1270.21,-1226.88 1235.65,-1184 1190.29,-1127.74 1178.97,-1111.05 1154.65,-1043 1120.15,-946.48 1109.22,-823.83 1105.95,-770.19"/>
<polygon fill="black" stroke="black" points="1109.44,-769.9 1105.38,-760.11 1102.45,-770.3 1109.44,-769.9"/>
</g>
<!-- u30&#45;&gt;u2 -->
<g id="edge46" class="edge">
<title>u30&#45;&gt;u2</title>
<path fill="none" stroke="black" d="M1140.47,-724.23C1194.8,-698.81 1297.95,-650.53 1357.06,-622.87"/>
<polygon fill="black" stroke="black" points="1358.58,-626.02 1366.16,-618.61 1355.62,-619.68 1358.58,-626.02"/>
</g>
<!-- u19 -->
<g id="node17" class="node">
<title>u19</title>
<ellipse fill="#ffff77" stroke="black" cx="1008.65" cy="-601" rx="178.97" ry="18"/>
<text text-anchor="middle" x="1008.65" y="-597.3" font-family="Times,serif" font-size="14.00">Language.Drasil.Printing.LayoutObj</text>
</g>
<!-- u30&#45;&gt;u19 -->
<g id="edge48" class="edge">
<title>u30&#45;&gt;u19</title>
<path fill="none" stroke="black" d="M1092.88,-723.96C1076.25,-699.88 1045.76,-655.74 1026.38,-627.68"/>
<polygon fill="black" stroke="black" points="1029.08,-625.42 1020.51,-619.18 1023.32,-629.4 1029.08,-625.42"/>
</g>
<!-- u30&#45;&gt;u18 -->
<g id="edge47" class="edge">
<title>u30&#45;&gt;u18</title>
<path fill="none" stroke="black" d="M1117.71,-723.78C1147.5,-684.69 1219.14,-591.93 1234.65,-583 1334.69,-525.37 1650.68,-489.14 1836.47,-472.24"/>
<polygon fill="black" stroke="black" points="1836.95,-475.72 1846.59,-471.33 1836.32,-468.74 1836.95,-475.72"/>
</g>
<!-- u17 -->
<g id="node19" class="node">
<title>u17</title>
<ellipse fill="#ffff77" stroke="black" cx="887.65" cy="-884" rx="162.47" ry="18"/>
<text text-anchor="middle" x="887.65" y="-880.3" font-family="Times,serif" font-size="14.00">Language.Drasil.Printing.Import</text>
</g>
<!-- u34&#45;&gt;u17 -->
<g id="edge53" class="edge">
<title>u34&#45;&gt;u17</title>
<path fill="none" stroke="black" d="M1036.38,-1289.93C1012.48,-1224.85 926.92,-991.91 897.59,-912.08"/>
<polygon fill="black" stroke="black" points="900.73,-910.46 893.99,-902.28 894.16,-912.87 900.73,-910.46"/>
</g>
<!-- u16 -->
<g id="node20" class="node">
<title>u16</title>
<ellipse fill="#ffff77" stroke="black" cx="1464.65" cy="-318" rx="167.87" ry="18"/>
<text text-anchor="middle" x="1464.65" y="-314.3" font-family="Times,serif" font-size="14.00">Language.Drasil.Printing.Citation</text>
</g>
<!-- u19&#45;&gt;u16 -->
<g id="edge27" class="edge">
<title>u19&#45;&gt;u16</title>
<path fill="none" stroke="black" d="M1078.31,-584.37C1146.82,-566.62 1252.1,-532.78 1329.65,-478 1381.78,-441.18 1426.12,-379.69 1448.68,-344.96"/>
<polygon fill="black" stroke="black" points="1451.76,-346.63 1454.2,-336.32 1445.87,-342.86 1451.76,-346.63"/>
</g>
<!-- u18&#45;&gt;u16 -->
<g id="edge26" class="edge">
<title>u18&#45;&gt;u16</title>
<path fill="none" stroke="black" d="M1918.41,-443.08C1823.04,-417 1634.03,-365.32 1532.66,-337.6"/>
<polygon fill="black" stroke="black" points="1533.4,-334.17 1522.83,-334.91 1531.55,-340.92 1533.4,-334.17"/>
</g>
<!-- u26 -->
<g id="node25" class="node">
<title>u26</title>
<ellipse fill="#7777ff" stroke="black" cx="560.65" cy="-742" rx="212.56" ry="18"/>
<text text-anchor="middle" x="560.65" y="-738.3" font-family="Times,serif" font-size="14.00">Language.Drasil.Printing.Import.Document</text>
</g>
<!-- u17&#45;&gt;u26 -->
<g id="edge25" class="edge">
<title>u17&#45;&gt;u26</title>
<path fill="none" stroke="black" d="M848.85,-866.39C788.95,-840.74 674.06,-791.56 608.89,-763.65"/>
<polygon fill="black" stroke="black" points="610.22,-760.42 599.65,-759.7 607.46,-766.85 610.22,-760.42"/>
</g>
<!-- u23 -->
<g id="node28" class="node">
<title>u23</title>
<ellipse fill="#7777ff" stroke="black" cx="1132.65" cy="-460" rx="187.67" ry="18"/>
<text text-anchor="middle" x="1132.65" y="-456.3" font-family="Times,serif" font-size="14.00">Language.Drasil.Printing.Import.Expr</text>
</g>
<!-- u17&#45;&gt;u23 -->
<g id="edge24" class="edge">
<title>u17&#45;&gt;u23</title>
<path fill="none" stroke="black" d="M875.58,-866.04C842.62,-817.46 757.61,-675.34 820.65,-583 862.22,-522.11 939.12,-491.61 1006.17,-476.33"/>
<polygon fill="black" stroke="black" points="1006.97,-479.74 1015.99,-474.18 1005.47,-472.9 1006.97,-479.74"/>
</g>
<!-- u16&#45;&gt;u14 -->
<g id="edge23" class="edge">
<title>u16&#45;&gt;u14</title>
<path fill="none" stroke="black" d="M1427.96,-300.26C1321.27,-251.59 1011.28,-110.19 894.17,-56.77"/>
<polygon fill="black" stroke="black" points="895.31,-53.44 884.76,-52.47 892.4,-59.81 895.31,-53.44"/>
</g>
<!-- u15 -->
<g id="node21" class="node">
<title>u15</title>
<ellipse fill="#ffff77" stroke="black" cx="404.65" cy="-177" rx="223.66" ry="18"/>
<text text-anchor="middle" x="404.65" y="-173.3" font-family="Times,serif" font-size="14.00">Language.Drasil.Printing.PrintingInformation</text>
</g>
<!-- u28 -->
<g id="node23" class="node">
<title>u28</title>
<ellipse fill="#7777ff" stroke="black" cx="1078.65" cy="-318" rx="200.36" ry="18"/>
<text text-anchor="middle" x="1078.65" y="-314.3" font-family="Times,serif" font-size="14.00">Language.Drasil.Printing.Import.Symbol</text>
</g>
<!-- u28&#45;&gt;u14 -->
<g id="edge44" class="edge">
<title>u28&#45;&gt;u14</title>
<path fill="none" stroke="black" d="M1081.26,-299.66C1084.98,-268.65 1088.47,-202.87 1059.65,-159 1025.27,-106.68 960.35,-73.79 911.56,-55.33"/>
<polygon fill="black" stroke="black" points="912.63,-51.99 902.03,-51.83 910.21,-58.56 912.63,-51.99"/>
</g>
<!-- u27 -->
<g id="node24" class="node">
<title>u27</title>
<ellipse fill="#7777ff" stroke="black" cx="269.65" cy="-460" rx="216.36" ry="18"/>
<text text-anchor="middle" x="269.65" y="-456.3" font-family="Times,serif" font-size="14.00">Language.Drasil.Printing.Import.ModelExpr</text>
</g>
<!-- u27&#45;&gt;u28 -->
<g id="edge43" class="edge">
<title>u27&#45;&gt;u28</title>
<path fill="none" stroke="black" d="M358.93,-443.55C511.62,-417.13 821.78,-363.45 980.4,-336"/>
<polygon fill="black" stroke="black" points="981.37,-339.39 990.63,-334.23 980.18,-332.49 981.37,-339.39"/>
</g>
<!-- u21 -->
<g id="node30" class="node">
<title>u21</title>
<ellipse fill="#7777ff" stroke="black" cx="664.65" cy="-318" rx="196.07" ry="18"/>
<text text-anchor="middle" x="664.65" y="-314.3" font-family="Times,serif" font-size="14.00">Language.Drasil.Printing.Import.Literal</text>
</g>
<!-- u27&#45;&gt;u21 -->
<g id="edge42" class="edge">
<title>u27&#45;&gt;u21</title>
<path fill="none" stroke="black" d="M316.51,-442.39C389.41,-416.55 529.74,-366.82 608.14,-339.03"/>
<polygon fill="black" stroke="black" points="609.59,-342.23 617.84,-335.59 607.25,-335.63 609.59,-342.23"/>
</g>
<!-- u20 -->
<g id="node31" class="node">
<title>u20</title>
<ellipse fill="#7777ff" stroke="black" cx="257.65" cy="-318" rx="193.07" ry="18"/>
<text text-anchor="middle" x="257.65" y="-314.3" font-family="Times,serif" font-size="14.00">Language.Drasil.Printing.Import.Space</text>
</g>
<!-- u27&#45;&gt;u20 -->
<g id="edge41" class="edge">
<title>u27&#45;&gt;u20</title>
<path fill="none" stroke="black" d="M268.18,-441.83C266.13,-418.01 262.42,-374.66 259.99,-346.35"/>
<polygon fill="black" stroke="black" points="263.47,-345.97 259.13,-336.31 256.5,-346.57 263.47,-345.97"/>
</g>
<!-- u26&#45;&gt;u19 -->
<g id="edge38" class="edge">
<title>u26&#45;&gt;u19</title>
<path fill="none" stroke="black" d="M613.8,-724.51C697.13,-698.65 858.12,-648.7 946.62,-621.25"/>
<polygon fill="black" stroke="black" points="947.74,-624.56 956.26,-618.25 945.67,-617.88 947.74,-624.56"/>
</g>
<!-- u25 -->
<g id="node26" class="node">
<title>u25</title>
<ellipse fill="#7777ff" stroke="black" cx="715.65" cy="-460" rx="211.46" ry="18"/>
<text text-anchor="middle" x="715.65" y="-456.3" font-family="Times,serif" font-size="14.00">Language.Drasil.Printing.Import.CodeExpr</text>
</g>
<!-- u26&#45;&gt;u25 -->
<g id="edge40" class="edge">
<title>u26&#45;&gt;u25</title>
<path fill="none" stroke="black" d="M570.11,-723.91C596.27,-676.65 669.69,-544.01 701.1,-487.28"/>
<polygon fill="black" stroke="black" points="704.33,-488.67 706.11,-478.23 698.21,-485.28 704.33,-488.67"/>
</g>
<!-- u24 -->
<g id="node27" class="node">
<title>u24</title>
<ellipse fill="#7777ff" stroke="black" cx="374.65" cy="-601" rx="207.96" ry="18"/>
<text text-anchor="middle" x="374.65" y="-597.3" font-family="Times,serif" font-size="14.00">Language.Drasil.Printing.Import.Sentence</text>
</g>
<!-- u26&#45;&gt;u24 -->
<g id="edge39" class="edge">
<title>u26&#45;&gt;u24</title>
<path fill="none" stroke="black" d="M537.84,-723.96C504.7,-699.19 443.13,-653.18 405.83,-625.3"/>
<polygon fill="black" stroke="black" points="407.45,-622.15 397.35,-618.97 403.26,-627.76 407.45,-622.15"/>
</g>
<!-- u25&#45;&gt;u28 -->
<g id="edge37" class="edge">
<title>u25&#45;&gt;u28</title>
<path fill="none" stroke="black" d="M759.07,-442.25C825.98,-416.45 954.06,-367.05 1026.1,-339.27"/>
<polygon fill="black" stroke="black" points="1027.38,-342.52 1035.45,-335.66 1024.86,-335.99 1027.38,-342.52"/>
</g>
<!-- u25&#45;&gt;u21 -->
<g id="edge36" class="edge">
<title>u25&#45;&gt;u21</title>
<path fill="none" stroke="black" d="M709.39,-441.83C700.68,-417.9 684.78,-374.28 674.47,-345.98"/>
<polygon fill="black" stroke="black" points="677.66,-344.51 670.95,-336.31 671.09,-346.9 677.66,-344.51"/>
</g>
<!-- u24&#45;&gt;u27 -->
<g id="edge35" class="edge">
<title>u24&#45;&gt;u27</title>
<path fill="none" stroke="black" d="M361.77,-582.96C343.51,-558.78 309.95,-514.35 288.77,-486.32"/>
<polygon fill="black" stroke="black" points="291.45,-484.05 282.63,-478.18 285.86,-488.27 291.45,-484.05"/>
</g>
<!-- u23&#45;&gt;u28 -->
<g id="edge34" class="edge">
<title>u23&#45;&gt;u28</title>
<path fill="none" stroke="black" d="M1126.03,-441.83C1116.79,-417.9 1099.97,-374.28 1089.05,-345.98"/>
<polygon fill="black" stroke="black" points="1092.19,-344.38 1085.32,-336.31 1085.66,-346.9 1092.19,-344.38"/>
</g>
<!-- u23&#45;&gt;u21 -->
<g id="edge33" class="edge">
<title>u23&#45;&gt;u21</title>
<path fill="none" stroke="black" d="M1078.05,-442.67C991.15,-416.67 821.78,-366.01 729.08,-338.28"/>
<polygon fill="black" stroke="black" points="729.85,-334.85 719.26,-335.34 727.84,-341.56 729.85,-334.85"/>
</g>
<!-- u22 -->
<g id="node29" class="node">
<title>u22</title>
<ellipse fill="#7777ff" stroke="black" cx="848.65" cy="-177" rx="202.26" ry="18"/>
<text text-anchor="middle" x="848.65" y="-173.3" font-family="Times,serif" font-size="14.00">Language.Drasil.Printing.Import.Helpers</text>
</g>
<!-- u22&#45;&gt;u14 -->
<g id="edge32" class="edge">
<title>u22&#45;&gt;u14</title>
<path fill="none" stroke="black" d="M848.65,-158.83C848.65,-135.01 848.65,-91.66 848.65,-63.35"/>
<polygon fill="black" stroke="black" points="852.15,-63.31 848.65,-53.31 845.15,-63.31 852.15,-63.31"/>
</g>
<!-- u21&#45;&gt;u15 -->
<g id="edge30" class="edge">
<title>u21&#45;&gt;u15</title>
<path fill="none" stroke="black" d="M633.03,-300.09C585.92,-274.91 497.3,-227.53 445.39,-199.78"/>
<polygon fill="black" stroke="black" points="446.92,-196.63 436.45,-195 443.62,-202.81 446.92,-196.63"/>
</g>
<!-- u21&#45;&gt;u22 -->
<g id="edge31" class="edge">
<title>u21&#45;&gt;u22</title>
<path fill="none" stroke="black" d="M687.21,-299.96C719.99,-275.19 780.9,-229.18 817.8,-201.3"/>
<polygon fill="black" stroke="black" points="820.32,-203.79 826.19,-194.97 816.1,-198.2 820.32,-203.79"/>
</g>
<!-- u20&#45;&gt;u15 -->
<g id="edge29" class="edge">
<title>u20&#45;&gt;u15</title>
<path fill="none" stroke="black" d="M275.67,-299.96C301.57,-275.47 349.44,-230.2 379.01,-202.24"/>
<polygon fill="black" stroke="black" points="381.61,-204.6 386.47,-195.18 376.8,-199.51 381.61,-204.6"/>
</g>
<!-- u20&#45;&gt;u14 -->
<g id="edge28" class="edge">
<title>u20&#45;&gt;u14</title>
<path fill="none" stroke="black" d="M235.86,-299.99C199.41,-269.52 133.62,-204.55 171.65,-159 237.29,-80.36 518.84,-51.88 697.54,-41.65"/>
<polygon fill="black" stroke="black" points="697.77,-45.14 707.56,-41.09 697.38,-38.15 697.77,-45.14"/>
</g>
<!-- u10 -->
<g id="node32" class="node">
<title>u10</title>
<ellipse fill="#ff7777" stroke="black" cx="1976.65" cy="-601" rx="141.88" ry="18"/>
<text text-anchor="middle" x="1976.65" y="-597.3" font-family="Times,serif" font-size="14.00">Language.Drasil.TeX.Monad</text>
</g>
<!-- u10&#45;&gt;u18 -->
<g id="edge17" class="edge">
<title>u10&#45;&gt;u18</title>
<path fill="none" stroke="black" d="M1976.65,-582.96C1976.65,-559.4 1976.65,-516.64 1976.65,-488.53"/>
<polygon fill="black" stroke="black" points="1980.15,-488.18 1976.65,-478.18 1973.15,-488.18 1980.15,-488.18"/>
</g>
<!-- u9&#45;&gt;u17 -->
<g id="edge16" class="edge">
<title>u9&#45;&gt;u17</title>
<path fill="none" stroke="black" d="M1836.27,-1011.79C1644.97,-986.22 1203.09,-927.16 997.07,-899.63"/>
<polygon fill="black" stroke="black" points="997.52,-896.15 987.14,-898.3 996.59,-903.09 997.52,-896.15"/>
</g>
<!-- u8 -->
<g id="node34" class="node">
<title>u8</title>
<ellipse fill="#ff7777" stroke="black" cx="1733.65" cy="-884" rx="154.07" ry="18"/>
<text text-anchor="middle" x="1733.65" y="-880.3" font-family="Times,serif" font-size="14.00">Language.Drasil.TeX.Preamble</text>
</g>
<!-- u9&#45;&gt;u8 -->
<g id="edge15" class="edge">
<title>u9&#45;&gt;u8</title>
<path fill="none" stroke="black" d="M1904.25,-1007.23C1869.58,-982.4 1804.49,-935.76 1765.5,-907.83"/>
<polygon fill="black" stroke="black" points="1767.3,-904.81 1757.13,-901.83 1763.22,-910.5 1767.3,-904.81"/>
</g>
<!-- u8&#45;&gt;u19 -->
<g id="edge14" class="edge">
<title>u8&#45;&gt;u19</title>
<path fill="none" stroke="black" d="M1579.99,-882.74C1367.49,-878.73 1000.51,-857.44 916.65,-760 879.92,-717.33 938.26,-657.93 977.55,-625.48"/>
<polygon fill="black" stroke="black" points="980.03,-627.98 985.61,-618.98 975.63,-622.53 980.03,-627.98"/>
</g>
<!-- u7 -->
<g id="node35" class="node">
<title>u7</title>
<ellipse fill="#ff7777" stroke="black" cx="1733.65" cy="-742" rx="146.47" ry="18"/>
<text text-anchor="middle" x="1733.65" y="-738.3" font-family="Times,serif" font-size="14.00">Language.Drasil.TeX.Helpers</text>
</g>
<!-- u8&#45;&gt;u7 -->
<g id="edge13" class="edge">
<title>u8&#45;&gt;u7</title>
<path fill="none" stroke="black" d="M1733.65,-865.83C1733.65,-842.01 1733.65,-798.66 1733.65,-770.35"/>
<polygon fill="black" stroke="black" points="1737.15,-770.31 1733.65,-760.31 1730.15,-770.31 1737.15,-770.31"/>
</g>
<!-- u7&#45;&gt;u13 -->
<g id="edge12" class="edge">
<title>u7&#45;&gt;u13</title>
<path fill="none" stroke="black" d="M1729.23,-723.96C1723.11,-700.3 1711.96,-657.26 1704.68,-629.15"/>
<polygon fill="black" stroke="black" points="1707.99,-627.99 1702.1,-619.18 1701.22,-629.74 1707.99,-627.99"/>
</g>
<!-- u7&#45;&gt;u10 -->
<g id="edge11" class="edge">
<title>u7&#45;&gt;u10</title>
<path fill="none" stroke="black" d="M1762.96,-724.23C1806.84,-699.13 1889.63,-651.78 1938.27,-623.95"/>
<polygon fill="black" stroke="black" points="1940.29,-626.83 1947.23,-618.83 1936.81,-620.75 1940.29,-626.83"/>
</g>
</g>
</svg>
