<?xml version="1.0" encoding="UTF-8" standalone="no"?>
<!DOCTYPE svg PUBLIC "-//W3C//DTD SVG 1.1//EN"
 "http://www.w3.org/Graphics/SVG/1.1/DTD/svg11.dtd">
<!-- Generated by graphviz version 2.43.0 (0)
 -->
<!-- Title: G Pages: 1 -->
<svg width="430pt" height="288pt"
 viewBox="0.00 0.00 430.42 288.00" xmlns="http://www.w3.org/2000/svg" xmlns:xlink="http://www.w3.org/1999/xlink">
<g id="graph0" class="graph" transform="scale(0.4 0.4) rotate(0) translate(4 718.67)">
<title>G</title>
<polygon fill="white" stroke="transparent" points="-4,4 -4,-718.67 1076.03,-718.67 1076.03,4 -4,4"/>
<!-- u9 -->
<g id="node1" class="node">
<title>u9</title>
<ellipse fill="#bbffbb" stroke="black" cx="625.69" cy="-255" rx="141.88" ry="18"/>
<text text-anchor="middle" x="625.69" y="-251.3" font-family="Times,serif" font-size="14.00">Data.Drasil.TheoryConcepts</text>
</g>
<!-- u0 -->
<g id="node2" class="node">
<title>u0</title>
<ellipse fill="#ffffbb" stroke="black" cx="490.69" cy="-664" rx="72.29" ry="18"/>
<text text-anchor="middle" x="490.69" y="-660.3" font-family="Times,serif" font-size="14.00">Theory.Drasil</text>
</g>
<!-- u7 -->
<g id="node4" class="node">
<title>u7</title>
<ellipse fill="#bbbbff" stroke="black" cx="625.69" cy="-459" rx="143.77" ry="18"/>
<text text-anchor="middle" x="625.69" y="-455.3" font-family="Times,serif" font-size="14.00">Theory.Drasil.InstanceModel</text>
</g>
<!-- u0&#45;&gt;u7 -->
<g id="edge4" class="edge">
<title>u0&#45;&gt;u7</title>
<path fill="none" stroke="black" d="M501.97,-646.04C525.64,-610.44 580.64,-527.74 608.64,-485.63"/>
<polygon fill="black" stroke="black" points="611.73,-487.32 614.35,-477.05 605.9,-483.44 611.73,-487.32"/>
</g>
<!-- u5 -->
<g id="node6" class="node">
<title>u5</title>
<ellipse fill="#bbbbff" stroke="black" cx="115.69" cy="-459" rx="115.88" ry="18"/>
<text text-anchor="middle" x="115.69" y="-455.3" font-family="Times,serif" font-size="14.00">Theory.Drasil.GenDefn</text>
</g>
<!-- u0&#45;&gt;u5 -->
<g id="edge3" class="edge">
<title>u0&#45;&gt;u5</title>
<path fill="none" stroke="black" d="M461.89,-647.41C395.44,-611.44 231.32,-522.6 155.4,-481.5"/>
<polygon fill="black" stroke="black" points="156.61,-478.17 146.15,-476.49 153.28,-484.33 156.61,-478.17"/>
</g>
<!-- u4 -->
<g id="node7" class="node">
<title>u4</title>
<ellipse fill="#bbbbff" stroke="black" cx="356.69" cy="-459" rx="107.48" ry="18"/>
<text text-anchor="middle" x="356.69" y="-455.3" font-family="Times,serif" font-size="14.00">Theory.Drasil.Theory</text>
</g>
<!-- u0&#45;&gt;u4 -->
<g id="edge2" class="edge">
<title>u0&#45;&gt;u4</title>
<path fill="none" stroke="black" d="M479.5,-646.04C456,-610.44 401.41,-527.74 373.61,-485.63"/>
<polygon fill="black" stroke="black" points="376.38,-483.47 367.95,-477.05 370.53,-487.33 376.38,-483.47"/>
</g>
<!-- u2 -->
<g id="node9" class="node">
<title>u2</title>
<ellipse fill="#bbbbff" stroke="black" cx="929.69" cy="-459" rx="142.17" ry="18"/>
<text text-anchor="middle" x="929.69" y="-455.3" font-family="Times,serif" font-size="14.00">Theory.Drasil.DataDefinition</text>
</g>
<!-- u0&#45;&gt;u2 -->
<g id="edge1" class="edge">
<title>u0&#45;&gt;u2</title>
<path fill="none" stroke="black" d="M523.33,-647.91C600.88,-612.05 796.32,-521.67 884.86,-480.73"/>
<polygon fill="black" stroke="black" points="886.49,-483.83 894.1,-476.46 883.55,-477.48 886.49,-483.83"/>
</g>
<!-- u8 -->
<g id="node3" class="node">
<title>u8</title>
<ellipse fill="#bbbbff" stroke="black" cx="335.69" cy="-255" rx="129.98" ry="18"/>
<text text-anchor="middle" x="335.69" y="-251.3" font-family="Times,serif" font-size="14.00">Theory.Drasil.ModelKinds</text>
</g>
<!-- u3 -->
<g id="node8" class="node">
<title>u3</title>
<ellipse fill="#bbbbff" stroke="black" cx="195.69" cy="-51" rx="122.38" ry="18"/>
<text text-anchor="middle" x="195.69" y="-47.3" font-family="Times,serif" font-size="14.00">Theory.Drasil.MultiDefn</text>
</g>
<!-- u8&#45;&gt;u3 -->
<g id="edge15" class="edge">
<title>u8&#45;&gt;u3</title>
<path fill="none" stroke="black" d="M323.75,-236.78C299.06,-201.15 242.26,-119.19 213.33,-77.45"/>
<polygon fill="black" stroke="black" points="216.17,-75.4 207.6,-69.18 210.42,-79.39 216.17,-75.4"/>
</g>
<!-- u1 -->
<g id="node10" class="node">
<title>u1</title>
<ellipse fill="#bbbbff" stroke="black" cx="475.69" cy="-51" rx="139.98" ry="18"/>
<text text-anchor="middle" x="475.69" y="-47.3" font-family="Times,serif" font-size="14.00">Theory.Drasil.ConstraintSet</text>
</g>
<!-- u8&#45;&gt;u1 -->
<g id="edge14" class="edge">
<title>u8&#45;&gt;u1</title>
<path fill="none" stroke="black" d="M347.63,-236.78C372.32,-201.15 429.12,-119.19 458.05,-77.45"/>
<polygon fill="black" stroke="black" points="460.96,-79.39 463.78,-69.18 455.21,-75.4 460.96,-79.39"/>
</g>
<!-- u7&#45;&gt;u9 -->
<g id="edge13" class="edge">
<title>u7&#45;&gt;u9</title>
<path fill="none" stroke="black" d="M625.69,-440.78C625.69,-405.67 625.69,-325.59 625.69,-283.31"/>
<polygon fill="black" stroke="black" points="629.19,-283.18 625.69,-273.18 622.19,-283.18 629.19,-283.18"/>
</g>
<!-- u7&#45;&gt;u8 -->
<g id="edge12" class="edge">
<title>u7&#45;&gt;u8</title>
<path fill="none" stroke="black" d="M601.46,-441.13C549.54,-404.96 427.48,-319.94 368.6,-278.92"/>
<polygon fill="black" stroke="black" points="370.26,-275.81 360.05,-272.97 366.26,-281.56 370.26,-275.81"/>
</g>
<!-- u6 -->
<g id="node5" class="node">
<title>u6</title>
<ellipse fill="#bbbbff" stroke="black" cx="912.69" cy="-255" rx="110.48" ry="18"/>
<text text-anchor="middle" x="912.69" y="-251.3" font-family="Times,serif" font-size="14.00">Theory.Drasil.Classes</text>
</g>
<!-- u7&#45;&gt;u6 -->
<g id="edge11" class="edge">
<title>u7&#45;&gt;u6</title>
<path fill="none" stroke="black" d="M649.67,-441.13C701.18,-404.87 822.45,-319.51 880.55,-278.62"/>
<polygon fill="black" stroke="black" points="882.82,-281.3 888.98,-272.68 878.79,-275.58 882.82,-281.3"/>
</g>
<!-- u5&#45;&gt;u9 -->
<g id="edge10" class="edge">
<title>u5&#45;&gt;u9</title>
<path fill="none" stroke="black" d="M156.13,-441.98C248.34,-405.46 473.95,-316.1 575.14,-276.02"/>
<polygon fill="black" stroke="black" points="576.52,-279.24 584.53,-272.3 573.94,-272.73 576.52,-279.24"/>
</g>
<!-- u5&#45;&gt;u8 -->
<g id="edge9" class="edge">
<title>u5&#45;&gt;u8</title>
<path fill="none" stroke="black" d="M134.07,-441.13C173.13,-405.26 264.54,-321.33 309.61,-279.94"/>
<polygon fill="black" stroke="black" points="312.21,-282.31 317.21,-272.97 307.48,-277.15 312.21,-282.31"/>
</g>
<!-- u4&#45;&gt;u9 -->
<g id="edge8" class="edge">
<title>u4&#45;&gt;u9</title>
<path fill="none" stroke="black" d="M379.16,-441.13C427.23,-405.03 540.08,-320.29 594.82,-279.18"/>
<polygon fill="black" stroke="black" points="597.2,-281.77 603.09,-272.97 592.99,-276.18 597.2,-281.77"/>
</g>
<!-- u4&#45;&gt;u8 -->
<g id="edge7" class="edge">
<title>u4&#45;&gt;u8</title>
<path fill="none" stroke="black" d="M354.9,-440.78C351.25,-405.67 342.92,-325.59 338.53,-283.31"/>
<polygon fill="black" stroke="black" points="341.99,-282.76 337.48,-273.18 335.03,-283.49 341.99,-282.76"/>
</g>
<!-- u2&#45;&gt;u9 -->
<g id="edge6" class="edge">
<title>u2&#45;&gt;u9</title>
<path fill="none" stroke="black" d="M904.29,-441.13C849.75,-404.88 721.39,-319.59 659.81,-278.67"/>
<polygon fill="black" stroke="black" points="661.49,-275.59 651.23,-272.97 657.62,-281.42 661.49,-275.59"/>
</g>
<!-- u2&#45;&gt;u6 -->
<g id="edge5" class="edge">
<title>u2&#45;&gt;u6</title>
<path fill="none" stroke="black" d="M928.24,-440.78C925.29,-405.67 918.55,-325.59 914.99,-283.31"/>
<polygon fill="black" stroke="black" points="918.46,-282.85 914.14,-273.18 911.49,-283.44 918.46,-282.85"/>
</g>
</g>
</svg>
