<?xml version="1.0" encoding="UTF-8" standalone="no"?>
<!DOCTYPE svg PUBLIC "-//W3C//DTD SVG 1.1//EN"
 "http://www.w3.org/Graphics/SVG/1.1/DTD/svg11.dtd">
<!-- Generated by graphviz version 2.43.0 (0)
 -->
<!-- Title: G Pages: 1 -->
<svg width="431pt" height="288pt"
 viewBox="0.00 0.00 431.12 288.00" xmlns="http://www.w3.org/2000/svg" xmlns:xlink="http://www.w3.org/1999/xlink">
<g id="graph0" class="graph" transform="scale(0.25 0.25) rotate(0) translate(4 1134.67)">
<title>G</title>
<polygon fill="white" stroke="transparent" points="-4,4 -4,-1134.67 1700.52,-1134.67 1700.52,4 -4,4"/>
<!-- u8 -->
<g id="node1" class="node">
<title>u8</title>
<ellipse fill="#bbffbb" stroke="black" cx="856.09" cy="-727" rx="104.78" ry="18"/>
<text text-anchor="middle" x="856.09" y="-723.3" font-family="Times,serif" font-size="14.00">Drasil.Website.Body</text>
</g>
<!-- u7 -->
<g id="node2" class="node">
<title>u7</title>
<ellipse fill="#bbffbb" stroke="black" cx="139.09" cy="-404" rx="139.18" ry="18"/>
<text text-anchor="middle" x="139.09" y="-400.3" font-family="Times,serif" font-size="14.00">Drasil.Website.Introduction</text>
</g>
<!-- u8&#45;&gt;u7 -->
<g id="edge8" class="edge">
<title>u8&#45;&gt;u7</title>
<path fill="none" stroke="black" d="M820.04,-709.86C700.65,-656.41 318.21,-485.19 185.2,-425.65"/>
<polygon fill="black" stroke="black" points="186.62,-422.45 176.06,-421.55 183.76,-428.83 186.62,-422.45"/>
</g>
<!-- u6 -->
<g id="node3" class="node">
<title>u6</title>
<ellipse fill="#bbffbb" stroke="black" cx="448.09" cy="-404" rx="152.17" ry="18"/>
<text text-anchor="middle" x="448.09" y="-400.3" font-family="Times,serif" font-size="14.00">Drasil.Website.Documentation</text>
</g>
<!-- u8&#45;&gt;u6 -->
<g id="edge7" class="edge">
<title>u8&#45;&gt;u6</title>
<path fill="none" stroke="black" d="M834.73,-709.19C766.86,-655.8 556.03,-489.93 477.75,-428.33"/>
<polygon fill="black" stroke="black" points="479.75,-425.46 469.73,-422.03 475.42,-430.96 479.75,-425.46"/>
</g>
<!-- u5 -->
<g id="node4" class="node">
<title>u5</title>
<ellipse fill="#bbffbb" stroke="black" cx="727.09" cy="-404" rx="108.58" ry="18"/>
<text text-anchor="middle" x="727.09" y="-400.3" font-family="Times,serif" font-size="14.00">Drasil.Website.About</text>
</g>
<!-- u8&#45;&gt;u5 -->
<g id="edge6" class="edge">
<title>u8&#45;&gt;u5</title>
<path fill="none" stroke="black" d="M849.15,-708.74C827.89,-655.84 763.52,-495.65 737.83,-431.74"/>
<polygon fill="black" stroke="black" points="741.03,-430.32 734.06,-422.34 734.54,-432.93 741.03,-430.32"/>
</g>
<!-- u4 -->
<g id="node5" class="node">
<title>u4</title>
<ellipse fill="#bbffbb" stroke="black" cx="985.09" cy="-404" rx="131.08" ry="18"/>
<text text-anchor="middle" x="985.09" y="-400.3" font-family="Times,serif" font-size="14.00">Drasil.Website.CaseStudy</text>
</g>
<!-- u8&#45;&gt;u4 -->
<g id="edge5" class="edge">
<title>u8&#45;&gt;u4</title>
<path fill="none" stroke="black" d="M863.02,-708.74C884.28,-655.84 948.66,-495.65 974.34,-431.74"/>
<polygon fill="black" stroke="black" points="977.64,-432.93 978.12,-422.34 971.14,-430.32 977.64,-432.93"/>
</g>
<!-- u3 -->
<g id="node6" class="node">
<title>u3</title>
<ellipse fill="#bbffbb" stroke="black" cx="1255.09" cy="-404" rx="120.48" ry="18"/>
<text text-anchor="middle" x="1255.09" y="-400.3" font-family="Times,serif" font-size="14.00">Drasil.Website.Analysis</text>
</g>
<!-- u8&#45;&gt;u3 -->
<g id="edge4" class="edge">
<title>u8&#45;&gt;u3</title>
<path fill="none" stroke="black" d="M876.98,-709.19C943.35,-655.8 1149.53,-489.93 1226.08,-428.33"/>
<polygon fill="black" stroke="black" points="1228.33,-431.02 1233.92,-422.03 1223.94,-425.57 1228.33,-431.02"/>
</g>
<!-- u2 -->
<g id="node7" class="node">
<title>u2</title>
<ellipse fill="#bbffbb" stroke="black" cx="1545.09" cy="-404" rx="151.37" ry="18"/>
<text text-anchor="middle" x="1545.09" y="-400.3" font-family="Times,serif" font-size="14.00">Drasil.Website.GettingStarted</text>
</g>
<!-- u8&#45;&gt;u2 -->
<g id="edge3" class="edge">
<title>u8&#45;&gt;u2</title>
<path fill="none" stroke="black" d="M890.73,-709.86C1005.34,-656.47 1372.23,-485.54 1500.39,-425.82"/>
<polygon fill="black" stroke="black" points="1501.97,-428.95 1509.56,-421.55 1499.01,-422.6 1501.97,-428.95"/>
</g>
<!-- u1 -->
<g id="node8" class="node">
<title>u1</title>
<ellipse fill="#bbffbb" stroke="black" cx="985.09" cy="-81" rx="122.38" ry="18"/>
<text text-anchor="middle" x="985.09" y="-77.3" font-family="Times,serif" font-size="14.00">Drasil.Website.Example</text>
</g>
<!-- u4&#45;&gt;u1 -->
<g id="edge2" class="edge">
<title>u4&#45;&gt;u1</title>
<path fill="none" stroke="black" d="M985.09,-385.74C985.09,-333.05 985.09,-173.96 985.09,-109.54"/>
<polygon fill="black" stroke="black" points="988.59,-109.34 985.09,-99.34 981.59,-109.34 988.59,-109.34"/>
</g>
<!-- u0 -->
<g id="node9" class="node">
<title>u0</title>
<ellipse fill="#ffffbb" stroke="black" cx="856.09" cy="-1050" rx="122.38" ry="18"/>
<text text-anchor="middle" x="856.09" y="-1046.3" font-family="Times,serif" font-size="14.00">drasil&#45;website.app.Main</text>
</g>
<!-- u0&#45;&gt;u8 -->
<g id="edge1" class="edge">
<title>u0&#45;&gt;u8</title>
<path fill="none" stroke="black" d="M856.09,-1031.74C856.09,-979.05 856.09,-819.96 856.09,-755.54"/>
<polygon fill="black" stroke="black" points="859.59,-755.34 856.09,-745.34 852.59,-755.34 859.59,-755.34"/>
</g>
</g>
</svg>
