<?xml version="1.0" encoding="UTF-8" standalone="no"?>
<!DOCTYPE svg PUBLIC "-//W3C//DTD SVG 1.1//EN"
 "http://www.w3.org/Graphics/SVG/1.1/DTD/svg11.dtd">
<!-- Generated by graphviz version 2.43.0 (0)
 -->
<!-- Title: G Pages: 1 -->
<svg width="431pt" height="288pt"
 viewBox="0.00 0.00 431.12 288.00" xmlns="http://www.w3.org/2000/svg" xmlns:xlink="http://www.w3.org/1999/xlink">
<g id="graph0" class="graph" transform="scale(0.25 0.25) rotate(0) translate(4 1134)">
<title>G</title>
<polygon fill="white" stroke="transparent" points="-4,4 -4,-1134 1699.53,-1134 1699.53,4 -4,4"/>
<!-- u8 -->
<g id="node1" class="node">
<title>u8</title>
<ellipse fill="#bbffbb" stroke="black" cx="131.29" cy="-404" rx="131.08" ry="18"/>
<text text-anchor="middle" x="131.29" y="-400.3" font-family="Times,serif" font-size="14.00">Drasil.Website.CaseStudy</text>
</g>
<!-- u1 -->
<g id="node8" class="node">
<title>u1</title>
<ellipse fill="#bbffbb" stroke="black" cx="131.29" cy="-81" rx="122.38" ry="18"/>
<text text-anchor="middle" x="131.29" y="-77.3" font-family="Times,serif" font-size="14.00">Drasil.Website.Example</text>
</g>
<!-- u8&#45;&gt;u1 -->
<g id="edge8" class="edge">
<title>u8&#45;&gt;u1</title>
<path fill="none" stroke="black" d="M131.29,-385.74C131.29,-333.05 131.29,-173.96 131.29,-109.54"/>
<polygon fill="black" stroke="black" points="134.79,-109.34 131.29,-99.34 127.79,-109.34 134.79,-109.34"/>
</g>
<!-- u7 -->
<g id="node2" class="node">
<title>u7</title>
<ellipse fill="#bbffbb" stroke="black" cx="419.29" cy="-404" rx="139.18" ry="18"/>
<text text-anchor="middle" x="419.29" y="-400.3" font-family="Times,serif" font-size="14.00">Drasil.Website.Introduction</text>
</g>
<!-- u6 -->
<g id="node3" class="node">
<title>u6</title>
<ellipse fill="#bbffbb" stroke="black" cx="728.29" cy="-404" rx="151.37" ry="18"/>
<text text-anchor="middle" x="728.29" y="-400.3" font-family="Times,serif" font-size="14.00">Drasil.Website.GettingStarted</text>
</g>
<!-- u5 -->
<g id="node4" class="node">
<title>u5</title>
<ellipse fill="#bbffbb" stroke="black" cx="1006.29" cy="-404" rx="108.58" ry="18"/>
<text text-anchor="middle" x="1006.29" y="-400.3" font-family="Times,serif" font-size="14.00">Drasil.Website.About</text>
</g>
<!-- u4 -->
<g id="node5" class="node">
<title>u4</title>
<ellipse fill="#bbffbb" stroke="black" cx="1285.29" cy="-404" rx="152.17" ry="18"/>
<text text-anchor="middle" x="1285.29" y="-400.3" font-family="Times,serif" font-size="14.00">Drasil.Website.Documentation</text>
</g>
<!-- u3 -->
<g id="node6" class="node">
<title>u3</title>
<ellipse fill="#bbffbb" stroke="black" cx="867.29" cy="-726" rx="104.78" ry="18"/>
<text text-anchor="middle" x="867.29" y="-722.3" font-family="Times,serif" font-size="14.00">Drasil.Website.Body</text>
</g>
<!-- u3&#45;&gt;u8 -->
<g id="edge7" class="edge">
<title>u3&#45;&gt;u8</title>
<path fill="none" stroke="black" d="M830.54,-709.02C708.15,-655.81 314.43,-484.63 178.2,-425.4"/>
<polygon fill="black" stroke="black" points="179.41,-422.11 168.84,-421.33 176.62,-428.53 179.41,-422.11"/>
</g>
<!-- u3&#45;&gt;u7 -->
<g id="edge6" class="edge">
<title>u3&#45;&gt;u7</title>
<path fill="none" stroke="black" d="M843.83,-708.25C769.07,-654.85 536.33,-488.6 451.04,-427.68"/>
<polygon fill="black" stroke="black" points="452.95,-424.75 442.78,-421.78 448.88,-430.44 452.95,-424.75"/>
</g>
<!-- u3&#45;&gt;u6 -->
<g id="edge5" class="edge">
<title>u3&#45;&gt;u6</title>
<path fill="none" stroke="black" d="M859.82,-707.8C836.91,-655.05 767.54,-495.37 739.87,-431.66"/>
<polygon fill="black" stroke="black" points="742.99,-430.07 735.8,-422.29 736.57,-432.86 742.99,-430.07"/>
</g>
<!-- u3&#45;&gt;u5 -->
<g id="edge4" class="edge">
<title>u3&#45;&gt;u5</title>
<path fill="none" stroke="black" d="M874.76,-707.8C897.67,-655.05 967.04,-495.37 994.71,-431.66"/>
<polygon fill="black" stroke="black" points="998,-432.86 998.78,-422.29 991.58,-430.07 998,-432.86"/>
</g>
<!-- u3&#45;&gt;u4 -->
<g id="edge3" class="edge">
<title>u3&#45;&gt;u4</title>
<path fill="none" stroke="black" d="M889.17,-708.25C958.7,-655.02 1174.7,-489.66 1254.9,-428.26"/>
<polygon fill="black" stroke="black" points="1257.3,-430.83 1263.12,-421.97 1253.05,-425.27 1257.3,-430.83"/>
</g>
<!-- u2 -->
<g id="node7" class="node">
<title>u2</title>
<ellipse fill="#bbffbb" stroke="black" cx="1575.29" cy="-404" rx="120.48" ry="18"/>
<text text-anchor="middle" x="1575.29" y="-400.3" font-family="Times,serif" font-size="14.00">Drasil.Website.Analysis</text>
</g>
<!-- u3&#45;&gt;u2 -->
<g id="edge2" class="edge">
<title>u3&#45;&gt;u2</title>
<path fill="none" stroke="black" d="M902.88,-708.91C1020.79,-655.62 1398.54,-484.89 1529.82,-425.55"/>
<polygon fill="black" stroke="black" points="1531.53,-428.62 1539.2,-421.31 1528.65,-422.24 1531.53,-428.62"/>
</g>
<!-- u0 -->
<g id="node9" class="node">
<title>u0</title>
<ellipse fill="#ffffbb" stroke="black" cx="867.29" cy="-1049" rx="122.38" ry="18"/>
<text text-anchor="middle" x="867.29" y="-1045.3" font-family="Times,serif" font-size="14.00">drasil&#45;website.app.Main</text>
</g>
<!-- u0&#45;&gt;u3 -->
<g id="edge1" class="edge">
<title>u0&#45;&gt;u3</title>
<path fill="none" stroke="black" d="M867.29,-1030.74C867.29,-978.05 867.29,-818.96 867.29,-754.54"/>
<polygon fill="black" stroke="black" points="870.79,-754.34 867.29,-744.34 863.79,-754.34 870.79,-754.34"/>
</g>
</g>
</svg>
