<?xml version="1.0" encoding="UTF-8" standalone="no"?>
<!DOCTYPE svg PUBLIC "-//W3C//DTD SVG 1.1//EN"
 "http://www.w3.org/Graphics/SVG/1.1/DTD/svg11.dtd">
<!-- Generated by graphviz version 2.43.0 (0)
 -->
<!-- Title: G Pages: 1 -->
<svg width="432pt" height="287pt"
 viewBox="0.00 0.00 432.00 286.65" xmlns="http://www.w3.org/2000/svg" xmlns:xlink="http://www.w3.org/1999/xlink">
<g id="graph0" class="graph" transform="scale(12.34 12.34) rotate(0) translate(4 3533.33)">
<title>G</title>
<polygon fill="white" stroke="transparent" points="-4,4 -4,-3533.33 5326.99,-3533.33 5326.99,4 -4,4"/>
<!-- u55 -->
<g id="node1" class="node">
<title>u55</title>
<ellipse fill="#bbffbb" stroke="black" cx="209.99" cy="-3225" rx="62.29" ry="18"/>
<text text-anchor="middle" x="209.99" y="-3221.3" font-family="Times,serif" font-size="14.00">HelloWorld</text>
</g>
<!-- u51 -->
<g id="node5" class="node">
<title>u51</title>
<ellipse fill="#bbffbb" stroke="black" cx="193.99" cy="-2982" rx="42.49" ry="18"/>
<text text-anchor="middle" x="193.99" y="-2978.3" font-family="Times,serif" font-size="14.00">Helper</text>
</g>
<!-- u55&#45;&gt;u51 -->
<g id="edge88" class="edge">
<title>u55&#45;&gt;u51</title>
<path fill="none" stroke="black" d="M208.84,-3206.67C206.09,-3165.24 199.12,-3060.22 195.8,-3010.24"/>
<polygon fill="black" stroke="black" points="199.29,-3009.92 195.13,-3000.18 192.3,-3010.39 199.29,-3009.92"/>
</g>
<!-- u54 -->
<g id="node2" class="node">
<title>u54</title>
<ellipse fill="#bbffbb" stroke="black" cx="276.99" cy="-3468" rx="34.39" ry="18"/>
<text text-anchor="middle" x="276.99" y="-3464.3" font-family="Times,serif" font-size="14.00">Main</text>
</g>
<!-- u54&#45;&gt;u55 -->
<g id="edge87" class="edge">
<title>u54&#45;&gt;u55</title>
<path fill="none" stroke="black" d="M272.28,-3450.05C260.83,-3408.84 231.43,-3303.1 217.51,-3253.04"/>
<polygon fill="black" stroke="black" points="220.84,-3251.95 214.79,-3243.25 214.1,-3253.82 220.84,-3251.95"/>
</g>
<!-- u53 -->
<g id="node3" class="node">
<title>u53</title>
<ellipse fill="#bbffbb" stroke="black" cx="342.99" cy="-3225" rx="52.79" ry="18"/>
<text text-anchor="middle" x="342.99" y="-3221.3" font-family="Times,serif" font-size="14.00">FileTests</text>
</g>
<!-- u54&#45;&gt;u53 -->
<g id="edge86" class="edge">
<title>u54&#45;&gt;u53</title>
<path fill="none" stroke="black" d="M281.64,-3450.05C292.92,-3408.84 321.88,-3303.1 335.59,-3253.04"/>
<polygon fill="black" stroke="black" points="339,-3253.82 338.27,-3243.25 332.25,-3251.97 339,-3253.82"/>
</g>
<!-- u52 -->
<g id="node4" class="node">
<title>u52</title>
<ellipse fill="#bbffbb" stroke="black" cx="64.99" cy="-3225" rx="64.99" ry="18"/>
<text text-anchor="middle" x="64.99" y="-3221.3" font-family="Times,serif" font-size="14.00">PatternTest</text>
</g>
<!-- u54&#45;&gt;u52 -->
<g id="edge85" class="edge">
<title>u54&#45;&gt;u52</title>
<path fill="none" stroke="black" d="M263.08,-3451.19C226.96,-3410.12 129.96,-3299.85 86.53,-3250.48"/>
<polygon fill="black" stroke="black" points="89.03,-3248.02 79.8,-3242.83 83.77,-3252.65 89.03,-3248.02"/>
</g>
<!-- u45 -->
<g id="node9" class="node">
<title>u45</title>
<ellipse fill="#bbbbff" stroke="black" cx="1677.99" cy="-3225" rx="113.18" ry="18"/>
<text text-anchor="middle" x="1677.99" y="-3221.3" font-family="Times,serif" font-size="14.00">Language.Drasil.Code</text>
</g>
<!-- u54&#45;&gt;u45 -->
<g id="edge84" class="edge">
<title>u54&#45;&gt;u45</title>
<path fill="none" stroke="black" d="M309.22,-3461.46C484.41,-3431.32 1324.11,-3286.87 1594.15,-3240.42"/>
<polygon fill="black" stroke="black" points="1595.02,-3243.82 1604.29,-3238.68 1593.84,-3236.93 1595.02,-3243.82"/>
</g>
<!-- u50 -->
<g id="node6" class="node">
<title>u50</title>
<ellipse fill="#bbffbb" stroke="black" cx="64.99" cy="-2982" rx="53.89" ry="18"/>
<text text-anchor="middle" x="64.99" y="-2978.3" font-family="Times,serif" font-size="14.00">Observer</text>
</g>
<!-- u52&#45;&gt;u50 -->
<g id="edge83" class="edge">
<title>u52&#45;&gt;u50</title>
<path fill="none" stroke="black" d="M64.99,-3206.67C64.99,-3165.24 64.99,-3060.22 64.99,-3010.24"/>
<polygon fill="black" stroke="black" points="68.49,-3010.18 64.99,-3000.18 61.49,-3010.18 68.49,-3010.18"/>
</g>
<!-- u49 -->
<g id="node7" class="node">
<title>u49</title>
<ellipse fill="#ffffbb" stroke="black" cx="1677.99" cy="-3468" rx="214.46" ry="18"/>
<text text-anchor="middle" x="1677.99" y="-3464.3" font-family="Times,serif" font-size="14.00">Data.Drasil.ExternalLibraries.ODELibraries</text>
</g>
<!-- u49&#45;&gt;u45 -->
<g id="edge82" class="edge">
<title>u49&#45;&gt;u45</title>
<path fill="none" stroke="black" d="M1677.99,-3449.67C1677.99,-3408.24 1677.99,-3303.22 1677.99,-3253.24"/>
<polygon fill="black" stroke="black" points="1681.49,-3253.18 1677.99,-3243.18 1674.49,-3253.18 1681.49,-3253.18"/>
</g>
<!-- u48 -->
<g id="node8" class="node">
<title>u48</title>
<ellipse fill="#bbbbff" stroke="black" cx="3903.99" cy="-1521" rx="135.68" ry="18"/>
<text text-anchor="middle" x="3903.99" y="-1517.3" font-family="Times,serif" font-size="14.00">Language.Drasil.CodeSpec</text>
</g>
<!-- u43 -->
<g id="node11" class="node">
<title>u43</title>
<ellipse fill="#bbbbff" stroke="black" cx="3311.99" cy="-1278" rx="126.18" ry="18"/>
<text text-anchor="middle" x="3311.99" y="-1274.3" font-family="Times,serif" font-size="14.00">Language.Drasil.Choices</text>
</g>
<!-- u48&#45;&gt;u43 -->
<g id="edge81" class="edge">
<title>u48&#45;&gt;u43</title>
<path fill="none" stroke="black" d="M3863.77,-1503.62C3758.7,-1460.85 3476.24,-1345.86 3361.48,-1299.15"/>
<polygon fill="black" stroke="black" points="3362.47,-1295.77 3351.88,-1295.24 3359.83,-1302.25 3362.47,-1295.77"/>
</g>
<!-- u42 -->
<g id="node12" class="node">
<title>u42</title>
<ellipse fill="#ffbbbb" stroke="black" cx="4048.99" cy="-1278" rx="191.17" ry="18"/>
<text text-anchor="middle" x="4048.99" y="-1274.3" font-family="Times,serif" font-size="14.00">Language.Drasil.Chunk.CodeDefinition</text>
</g>
<!-- u48&#45;&gt;u42 -->
<g id="edge80" class="edge">
<title>u48&#45;&gt;u42</title>
<path fill="none" stroke="black" d="M3914.42,-1502.67C3939.56,-1460.89 4003.6,-1354.46 4033.35,-1305"/>
<polygon fill="black" stroke="black" points="4036.5,-1306.55 4038.66,-1296.18 4030.51,-1302.94 4036.5,-1306.55"/>
</g>
<!-- u39 -->
<g id="node15" class="node">
<title>u39</title>
<ellipse fill="#ffbbbb" stroke="black" cx="3647.99" cy="-1278" rx="192.27" ry="18"/>
<text text-anchor="middle" x="3647.99" y="-1274.3" font-family="Times,serif" font-size="14.00">Language.Drasil.Chunk.ConstraintMap</text>
</g>
<!-- u48&#45;&gt;u39 -->
<g id="edge79" class="edge">
<title>u48&#45;&gt;u39</title>
<path fill="none" stroke="black" d="M3885.99,-1503.05C3841.28,-1460.96 3725.08,-1351.57 3673.4,-1302.92"/>
<polygon fill="black" stroke="black" points="3675.66,-1300.23 3665.98,-1295.93 3670.86,-1305.33 3675.66,-1300.23"/>
</g>
<!-- u22 -->
<g id="node30" class="node">
<title>u22</title>
<ellipse fill="#ffbbff" stroke="black" cx="771.99" cy="-1765" rx="217.96" ry="18"/>
<text text-anchor="middle" x="771.99" y="-1761.3" font-family="Times,serif" font-size="14.00">Language.Drasil.Code.Imperative.ReadInput</text>
</g>
<!-- u45&#45;&gt;u22 -->
<g id="edge68" class="edge">
<title>u45&#45;&gt;u22</title>
<path fill="none" stroke="black" d="M1590.88,-3213.44C1282.91,-3173.72 263.99,-3020.99 263.99,-2739 263.99,-2739 263.99,-2739 263.99,-2250 263.99,-2000.73 588.57,-1840.72 718.84,-1786.53"/>
<polygon fill="black" stroke="black" points="720.33,-1789.71 728.24,-1782.67 717.66,-1783.23 720.33,-1789.71"/>
</g>
<!-- u13 -->
<g id="node39" class="node">
<title>u13</title>
<ellipse fill="#ffbbff" stroke="black" cx="4594.99" cy="-2982" rx="217.16" ry="18"/>
<text text-anchor="middle" x="4594.99" y="-2978.3" font-family="Times,serif" font-size="14.00">Language.Drasil.Code.Imperative.Generator</text>
</g>
<!-- u45&#45;&gt;u13 -->
<g id="edge67" class="edge">
<title>u45&#45;&gt;u13</title>
<path fill="none" stroke="black" d="M1775.88,-3215.91C2203.26,-3180.6 3907.82,-3039.77 4437.28,-2996.03"/>
<polygon fill="black" stroke="black" points="4437.6,-2999.52 4447.28,-2995.2 4437.02,-2992.54 4437.6,-2999.52"/>
</g>
<!-- u30 -->
<g id="node48" class="node">
<title>u30</title>
<ellipse fill="#ff7777" stroke="black" cx="645.99" cy="-2738" rx="354.44" ry="18"/>
<text text-anchor="middle" x="645.99" y="-2734.3" font-family="Times,serif" font-size="14.00">Language.Drasil.Code.Imperative.GOOL.LanguageRenderer.JavaRenderer</text>
</g>
<!-- u45&#45;&gt;u30 -->
<g id="edge73" class="edge">
<title>u45&#45;&gt;u30</title>
<path fill="none" stroke="black" d="M1643.36,-3207.72C1489.16,-3135.26 865.02,-2841.93 691.15,-2760.22"/>
<polygon fill="black" stroke="black" points="692.55,-2757.01 682.01,-2755.93 689.58,-2763.35 692.55,-2757.01"/>
</g>
<!-- u29 -->
<g id="node49" class="node">
<title>u29</title>
<ellipse fill="#ff7777" stroke="black" cx="1386.99" cy="-2738" rx="369.33" ry="18"/>
<text text-anchor="middle" x="1386.99" y="-2734.3" font-family="Times,serif" font-size="14.00">Language.Drasil.Code.Imperative.GOOL.LanguageRenderer.CSharpRenderer</text>
</g>
<!-- u45&#45;&gt;u29 -->
<g id="edge72" class="edge">
<title>u45&#45;&gt;u29</title>
<path fill="none" stroke="black" d="M1667.81,-3207.02C1624.42,-3134.71 1454.87,-2852.13 1402.5,-2764.84"/>
<polygon fill="black" stroke="black" points="1405.39,-2762.86 1397.25,-2756.09 1399.39,-2766.47 1405.39,-2762.86"/>
</g>
<!-- u28 -->
<g id="node50" class="node">
<title>u28</title>
<ellipse fill="#ff7777" stroke="black" cx="2126.99" cy="-2738" rx="352.84" ry="18"/>
<text text-anchor="middle" x="2126.99" y="-2734.3" font-family="Times,serif" font-size="14.00">Language.Drasil.Code.Imperative.GOOL.LanguageRenderer.CppRenderer</text>
</g>
<!-- u45&#45;&gt;u28 -->
<g id="edge71" class="edge">
<title>u45&#45;&gt;u28</title>
<path fill="none" stroke="black" d="M1693.71,-3207.02C1760.99,-3134.35 2024.91,-2849.27 2104.29,-2763.53"/>
<polygon fill="black" stroke="black" points="2106.95,-2765.81 2111.17,-2756.09 2101.81,-2761.05 2106.95,-2765.81"/>
</g>
<!-- u27 -->
<g id="node51" class="node">
<title>u27</title>
<ellipse fill="#ff7777" stroke="black" cx="2856.99" cy="-2738" rx="358.54" ry="18"/>
<text text-anchor="middle" x="2856.99" y="-2734.3" font-family="Times,serif" font-size="14.00">Language.Drasil.Code.Imperative.GOOL.LanguageRenderer.SwiftRenderer</text>
</g>
<!-- u45&#45;&gt;u27 -->
<g id="edge70" class="edge">
<title>u45&#45;&gt;u27</title>
<path fill="none" stroke="black" d="M1716.89,-3208C1892.21,-3135.88 2609.11,-2840.97 2806.48,-2759.78"/>
<polygon fill="black" stroke="black" points="2807.84,-2763.01 2815.76,-2755.96 2805.18,-2756.53 2807.84,-2763.01"/>
</g>
<!-- u25 -->
<g id="node53" class="node">
<title>u25</title>
<ellipse fill="#ff7777" stroke="black" cx="3600.99" cy="-2738" rx="367.43" ry="18"/>
<text text-anchor="middle" x="3600.99" y="-2734.3" font-family="Times,serif" font-size="14.00">Language.Drasil.Code.Imperative.GOOL.LanguageRenderer.PythonRenderer</text>
</g>
<!-- u45&#45;&gt;u25 -->
<g id="edge69" class="edge">
<title>u45&#45;&gt;u25</title>
<path fill="none" stroke="black" d="M1735.55,-3209.48C2012.66,-3139.59 3209.04,-2837.85 3524.5,-2758.29"/>
<polygon fill="black" stroke="black" points="3525.62,-2761.62 3534.46,-2755.78 3523.91,-2754.83 3525.62,-2761.62"/>
</g>
<!-- u44 -->
<g id="node10" class="node">
<title>u44</title>
<ellipse fill="#bbbbff" stroke="black" cx="3872.99" cy="-548" rx="110.48" ry="18"/>
<text text-anchor="middle" x="3872.99" y="-544.3" font-family="Times,serif" font-size="14.00">Language.Drasil.Mod</text>
</g>
<!-- u38 -->
<g id="node16" class="node">
<title>u38</title>
<ellipse fill="#ffbbbb" stroke="black" cx="3477.99" cy="-304" rx="170.87" ry="18"/>
<text text-anchor="middle" x="3477.99" y="-300.3" font-family="Times,serif" font-size="14.00">Language.Drasil.Chunk.Parameter</text>
</g>
<!-- u44&#45;&gt;u38 -->
<g id="edge66" class="edge">
<title>u44&#45;&gt;u38</title>
<path fill="none" stroke="black" d="M3845.84,-530.37C3776.45,-487.85 3592.53,-375.17 3514.17,-327.17"/>
<polygon fill="black" stroke="black" points="3515.95,-324.15 3505.6,-321.91 3512.3,-330.12 3515.95,-324.15"/>
</g>
<!-- u2 -->
<g id="node22" class="node">
<title>u2</title>
<ellipse fill="#bbffff" stroke="black" cx="2674.99" cy="-304" rx="160.57" ry="18"/>
<text text-anchor="middle" x="2674.99" y="-300.3" font-family="Times,serif" font-size="14.00">Language.Drasil.Code.DataDesc</text>
</g>
<!-- u44&#45;&gt;u2 -->
<g id="edge65" class="edge">
<title>u44&#45;&gt;u2</title>
<path fill="none" stroke="black" d="M3806.45,-533.56C3602.26,-492.31 2984.82,-367.59 2758.94,-321.96"/>
<polygon fill="black" stroke="black" points="2759.62,-318.52 2749.13,-319.97 2758.23,-325.39 2759.62,-318.52"/>
</g>
<!-- u5 -->
<g id="node19" class="node">
<title>u5</title>
<ellipse fill="#bbffff" stroke="black" cx="2855.99" cy="-1034" rx="139.98" ry="18"/>
<text text-anchor="middle" x="2855.99" y="-1030.3" font-family="Times,serif" font-size="14.00">Language.Drasil.Code.Code</text>
</g>
<!-- u43&#45;&gt;u5 -->
<g id="edge63" class="edge">
<title>u43&#45;&gt;u5</title>
<path fill="none" stroke="black" d="M3280.65,-1260.37C3200.1,-1217.62 2985.89,-1103.94 2896.29,-1056.38"/>
<polygon fill="black" stroke="black" points="2897.73,-1053.19 2887.25,-1051.59 2894.45,-1059.37 2897.73,-1053.19"/>
</g>
<!-- u47 -->
<g id="node55" class="node">
<title>u47</title>
<ellipse fill="#ff77ff" stroke="black" cx="3359.99" cy="-1034" rx="172.77" ry="18"/>
<text text-anchor="middle" x="3359.99" y="-1030.3" font-family="Times,serif" font-size="14.00">Language.Drasil.Data.ODELibPckg</text>
</g>
<!-- u43&#45;&gt;u47 -->
<g id="edge64" class="edge">
<title>u43&#45;&gt;u47</title>
<path fill="none" stroke="black" d="M3315.37,-1259.98C3323.58,-1218.59 3344.65,-1112.35 3354.62,-1062.11"/>
<polygon fill="black" stroke="black" points="3358.11,-1062.49 3356.62,-1052 3351.24,-1061.13 3358.11,-1062.49"/>
</g>
<!-- u46 -->
<g id="node56" class="node">
<title>u46</title>
<ellipse fill="#ff77ff" stroke="black" cx="3048.99" cy="-791" rx="154.07" ry="18"/>
<text text-anchor="middle" x="3048.99" y="-787.3" font-family="Times,serif" font-size="14.00">Language.Drasil.Data.ODEInfo</text>
</g>
<!-- u42&#45;&gt;u46 -->
<g id="edge62" class="edge">
<title>u42&#45;&gt;u46</title>
<path fill="none" stroke="black" d="M3952.48,-1262.4C3751.72,-1230.42 3297.85,-1149.22 3177.99,-1052 3101.84,-990.23 3066.93,-872.14 3054.56,-819.04"/>
<polygon fill="black" stroke="black" points="3057.92,-818.02 3052.31,-809.03 3051.08,-819.55 3057.92,-818.02"/>
</g>
<!-- u41 -->
<g id="node13" class="node">
<title>u41</title>
<ellipse fill="#ffbbbb" stroke="black" cx="3541.99" cy="-548" rx="202.26" ry="18"/>
<text text-anchor="middle" x="3541.99" y="-544.3" font-family="Times,serif" font-size="14.00">Language.Drasil.Chunk.NamedArgument</text>
</g>
<!-- u40 -->
<g id="node14" class="node">
<title>u40</title>
<ellipse fill="#ffbbbb" stroke="black" cx="3048.99" cy="-61" rx="145.67" ry="18"/>
<text text-anchor="middle" x="3048.99" y="-57.3" font-family="Times,serif" font-size="14.00">Language.Drasil.Chunk.Code</text>
</g>
<!-- u38&#45;&gt;u40 -->
<g id="edge61" class="edge">
<title>u38&#45;&gt;u40</title>
<path fill="none" stroke="black" d="M3448.17,-286.24C3372.27,-243.61 3171.84,-131.01 3087.38,-83.56"/>
<polygon fill="black" stroke="black" points="3089.06,-80.49 3078.62,-78.64 3085.63,-86.59 3089.06,-80.49"/>
</g>
<!-- u7 -->
<g id="node17" class="node">
<title>u7</title>
<ellipse fill="#bbffff" stroke="black" cx="3157.99" cy="-2008" rx="204.16" ry="18"/>
<text text-anchor="middle" x="3157.99" y="-2004.3" font-family="Times,serif" font-size="14.00">Language.Drasil.Code.CodeQuantityDicts</text>
</g>
<!-- u6 -->
<g id="node18" class="node">
<title>u6</title>
<ellipse fill="#bbffff" stroke="black" cx="4219.99" cy="-1034" rx="178.97" ry="18"/>
<text text-anchor="middle" x="4219.99" y="-1030.3" font-family="Times,serif" font-size="14.00">Language.Drasil.Code.ExtLibImport</text>
</g>
<!-- u4 -->
<g id="node20" class="node">
<title>u4</title>
<ellipse fill="#bbffff" stroke="black" cx="3707.99" cy="-791" rx="190.37" ry="18"/>
<text text-anchor="middle" x="3707.99" y="-787.3" font-family="Times,serif" font-size="14.00">Language.Drasil.Code.ExternalLibrary</text>
</g>
<!-- u6&#45;&gt;u4 -->
<g id="edge9" class="edge">
<title>u6&#45;&gt;u4</title>
<path fill="none" stroke="black" d="M4184.4,-1016.24C4093.56,-973.48 3853.24,-860.37 3752.95,-813.16"/>
<polygon fill="black" stroke="black" points="3754.23,-809.9 3743.69,-808.8 3751.25,-816.23 3754.23,-809.9"/>
</g>
<!-- u0 -->
<g id="node24" class="node">
<title>u0</title>
<ellipse fill="#bbffff" stroke="black" cx="4123.99" cy="-791" rx="207.96" ry="18"/>
<text text-anchor="middle" x="4123.99" y="-787.3" font-family="Times,serif" font-size="14.00">Language.Drasil.Code.ExternalLibraryCall</text>
</g>
<!-- u6&#45;&gt;u0 -->
<g id="edge8" class="edge">
<title>u6&#45;&gt;u0</title>
<path fill="none" stroke="black" d="M4213.09,-1015.67C4196.52,-974.07 4154.4,-868.34 4134.6,-818.62"/>
<polygon fill="black" stroke="black" points="4137.79,-817.17 4130.84,-809.18 4131.28,-819.76 4137.79,-817.17"/>
</g>
<!-- u4&#45;&gt;u44 -->
<g id="edge7" class="edge">
<title>u4&#45;&gt;u44</title>
<path fill="none" stroke="black" d="M3719.86,-772.67C3748.52,-730.81 3821.64,-624.01 3855.41,-574.69"/>
<polygon fill="black" stroke="black" points="3858.47,-576.4 3861.24,-566.18 3852.7,-572.45 3858.47,-576.4"/>
</g>
<!-- u4&#45;&gt;u41 -->
<g id="edge6" class="edge">
<title>u4&#45;&gt;u41</title>
<path fill="none" stroke="black" d="M3696.06,-772.67C3667.22,-730.81 3593.66,-624.01 3559.69,-574.69"/>
<polygon fill="black" stroke="black" points="3562.38,-572.43 3553.82,-566.18 3556.61,-576.4 3562.38,-572.43"/>
</g>
<!-- u3 -->
<g id="node21" class="node">
<title>u3</title>
<ellipse fill="#bbffff" stroke="black" cx="3359.99" cy="-791" rx="139.18" ry="18"/>
<text text-anchor="middle" x="3359.99" y="-787.3" font-family="Times,serif" font-size="14.00">Language.Drasil.Code.Lang</text>
</g>
<!-- u2&#45;&gt;u40 -->
<g id="edge5" class="edge">
<title>u2&#45;&gt;u40</title>
<path fill="none" stroke="black" d="M2701.29,-286.05C2767.28,-243.53 2939.88,-132.31 3014.17,-84.44"/>
<polygon fill="black" stroke="black" points="3016.21,-87.29 3022.72,-78.93 3012.42,-81.4 3016.21,-87.29"/>
</g>
<!-- u1 -->
<g id="node23" class="node">
<title>u1</title>
<ellipse fill="#bbffff" stroke="black" cx="4176.99" cy="-2738" rx="191.17" ry="18"/>
<text text-anchor="middle" x="4176.99" y="-2734.3" font-family="Times,serif" font-size="14.00">Language.Drasil.Code.CodeGeneration</text>
</g>
<!-- u1&#45;&gt;u5 -->
<g id="edge3" class="edge">
<title>u1&#45;&gt;u5</title>
<path fill="none" stroke="black" d="M4117.44,-2720.87C3948.93,-2673.17 3459.41,-2520.2 3125.99,-2269 3097.84,-2247.79 2940.87,-2055.77 2921.99,-2026 2858.31,-1925.57 2835.47,-1899.16 2809.99,-1783 2749.4,-1506.78 2824.86,-1160.4 2849.02,-1062.11"/>
<polygon fill="black" stroke="black" points="2852.49,-1062.67 2851.51,-1052.12 2845.7,-1060.98 2852.49,-1062.67"/>
</g>
<!-- u24 -->
<g id="node47" class="node">
<title>u24</title>
<ellipse fill="#7777ff" stroke="black" cx="2454.99" cy="-2495" rx="222.06" ry="18"/>
<text text-anchor="middle" x="2454.99" y="-2491.3" font-family="Times,serif" font-size="14.00">Language.Drasil.Code.Imperative.GOOL.Data</text>
</g>
<!-- u1&#45;&gt;u24 -->
<g id="edge4" class="edge">
<title>u1&#45;&gt;u24</title>
<path fill="none" stroke="black" d="M4075.07,-2722.74C3773.99,-2680.6 2889.78,-2556.85 2571.14,-2512.25"/>
<polygon fill="black" stroke="black" points="2571.35,-2508.75 2560.96,-2510.83 2570.38,-2515.68 2571.35,-2508.75"/>
</g>
<!-- u0&#45;&gt;u44 -->
<g id="edge2" class="edge">
<title>u0&#45;&gt;u44</title>
<path fill="none" stroke="black" d="M4106.34,-773.05C4062.51,-730.96 3948.57,-621.57 3897.91,-572.92"/>
<polygon fill="black" stroke="black" points="3900.26,-570.33 3890.62,-565.93 3895.41,-575.38 3900.26,-570.33"/>
</g>
<!-- u0&#45;&gt;u41 -->
<g id="edge1" class="edge">
<title>u0&#45;&gt;u41</title>
<path fill="none" stroke="black" d="M4083.53,-773.24C3979.83,-730.3 3704.79,-616.41 3591.66,-569.57"/>
<polygon fill="black" stroke="black" points="3592.77,-566.24 3582.19,-565.64 3590.09,-572.7 3592.77,-566.24"/>
</g>
<!-- u37 -->
<g id="node25" class="node">
<title>u37</title>
<ellipse fill="#ffbbff" stroke="black" cx="5067.99" cy="-2495" rx="226.66" ry="18"/>
<text text-anchor="middle" x="5067.99" y="-2491.3" font-family="Times,serif" font-size="14.00">Language.Drasil.Code.Imperative.SpaceMatch</text>
</g>
<!-- u36 -->
<g id="node26" class="node">
<title>u36</title>
<ellipse fill="#ffbbff" stroke="black" cx="4505.99" cy="-1765" rx="222.06" ry="18"/>
<text text-anchor="middle" x="4505.99" y="-1761.3" font-family="Times,serif" font-size="14.00">Language.Drasil.Code.Imperative.DrasilState</text>
</g>
<!-- u37&#45;&gt;u36 -->
<g id="edge60" class="edge">
<title>u37&#45;&gt;u36</title>
<path fill="none" stroke="black" d="M5084.96,-2476.64C5149.63,-2408.39 5370.98,-2154.18 5248.99,-1990 5172.87,-1887.54 4802.38,-1814.04 4614.99,-1782.76"/>
<polygon fill="black" stroke="black" points="4615.55,-1779.3 4605.11,-1781.12 4614.4,-1786.21 4615.55,-1779.3"/>
</g>
<!-- u36&#45;&gt;u48 -->
<g id="edge59" class="edge">
<title>u36&#45;&gt;u48</title>
<path fill="none" stroke="black" d="M4464.14,-1747.18C4356.38,-1703.86 4069.74,-1588.63 3953.75,-1542"/>
<polygon fill="black" stroke="black" points="3954.97,-1538.72 3944.38,-1538.24 3952.35,-1545.21 3954.97,-1538.72"/>
</g>
<!-- u36&#45;&gt;u6 -->
<g id="edge58" class="edge">
<title>u36&#45;&gt;u6</title>
<path fill="none" stroke="black" d="M4507.32,-1746.73C4510.05,-1704.2 4513.92,-1591.45 4486.99,-1503 4430.8,-1318.44 4291.86,-1127.51 4239.97,-1060.25"/>
<polygon fill="black" stroke="black" points="4242.42,-1057.7 4233.52,-1051.95 4236.89,-1062 4242.42,-1057.7"/>
</g>
<!-- u34 -->
<g id="node27" class="node">
<title>u34</title>
<ellipse fill="#ffbbff" stroke="black" cx="2288.99" cy="-1521" rx="219.86" ry="18"/>
<text text-anchor="middle" x="2288.99" y="-1517.3" font-family="Times,serif" font-size="14.00">Language.Drasil.Code.Imperative.WriteInput</text>
</g>
<!-- u34&#45;&gt;u2 -->
<g id="edge56" class="edge">
<title>u34&#45;&gt;u2</title>
<path fill="none" stroke="black" d="M2301.81,-1503.01C2345.95,-1442.73 2488.99,-1232.19 2488.99,-1035 2488.99,-1035 2488.99,-1035 2488.99,-790 2488.99,-603.15 2610.84,-401.05 2657.29,-330.79"/>
<polygon fill="black" stroke="black" points="2660.43,-332.39 2663.08,-322.13 2654.61,-328.5 2660.43,-332.39"/>
</g>
<!-- u33 -->
<g id="node28" class="node">
<title>u33</title>
<ellipse fill="#ffbbff" stroke="black" cx="4001.99" cy="-2251" rx="201.46" ry="18"/>
<text text-anchor="middle" x="4001.99" y="-2247.3" font-family="Times,serif" font-size="14.00">Language.Drasil.Code.Imperative.Import</text>
</g>
<!-- u33&#45;&gt;u7 -->
<g id="edge50" class="edge">
<title>u33&#45;&gt;u7</title>
<path fill="none" stroke="black" d="M3944.98,-2233.72C3794.36,-2190.71 3386.4,-2074.22 3225.01,-2028.14"/>
<polygon fill="black" stroke="black" points="3225.78,-2024.72 3215.21,-2025.34 3223.86,-2031.45 3225.78,-2024.72"/>
</g>
<!-- u23 -->
<g id="node29" class="node">
<title>u23</title>
<ellipse fill="#ffbbff" stroke="black" cx="3512.99" cy="-1521" rx="237.46" ry="18"/>
<text text-anchor="middle" x="3512.99" y="-1517.3" font-family="Times,serif" font-size="14.00">Language.Drasil.Code.Imperative.ConceptMatch</text>
</g>
<!-- u33&#45;&gt;u23 -->
<g id="edge55" class="edge">
<title>u33&#45;&gt;u23</title>
<path fill="none" stroke="black" d="M3992.95,-2232.84C3973.96,-2196.05 3929.92,-2106.36 3907.99,-2026 3875.06,-1905.27 3937.73,-1852.23 3869.99,-1747 3799.98,-1638.22 3656.71,-1572.46 3574.55,-1542.12"/>
<polygon fill="black" stroke="black" points="3575.43,-1538.72 3564.84,-1538.6 3573.05,-1545.3 3575.43,-1538.72"/>
</g>
<!-- u21 -->
<g id="node31" class="node">
<title>u21</title>
<ellipse fill="#ffbbff" stroke="black" cx="3620.99" cy="-2008" rx="240.46" ry="18"/>
<text text-anchor="middle" x="3620.99" y="-2004.3" font-family="Times,serif" font-size="14.00">Language.Drasil.Code.Imperative.GenerateGOOL</text>
</g>
<!-- u33&#45;&gt;u21 -->
<g id="edge54" class="edge">
<title>u33&#45;&gt;u21</title>
<path fill="none" stroke="black" d="M3975.2,-2233.05C3907.98,-2190.53 3732.15,-2079.31 3656.47,-2031.44"/>
<polygon fill="black" stroke="black" points="3658.08,-2028.32 3647.76,-2025.93 3654.34,-2034.23 3658.08,-2028.32"/>
</g>
<!-- u20 -->
<g id="node32" class="node">
<title>u20</title>
<ellipse fill="#ffbbff" stroke="black" cx="4998.99" cy="-2008" rx="219.86" ry="18"/>
<text text-anchor="middle" x="4998.99" y="-2004.3" font-family="Times,serif" font-size="14.00">Language.Drasil.Code.Imperative.Comments</text>
</g>
<!-- u33&#45;&gt;u20 -->
<g id="edge53" class="edge">
<title>u33&#45;&gt;u20</title>
<path fill="none" stroke="black" d="M4068.57,-2233.91C4246.55,-2190.88 4732.68,-2073.38 4922.04,-2027.6"/>
<polygon fill="black" stroke="black" points="4923.02,-2030.96 4931.92,-2025.21 4921.38,-2024.16 4923.02,-2030.96"/>
</g>
<!-- u19 -->
<g id="node33" class="node">
<title>u19</title>
<ellipse fill="#ffbbff" stroke="black" cx="4122.99" cy="-2008" rx="206.06" ry="18"/>
<text text-anchor="middle" x="4122.99" y="-2004.3" font-family="Times,serif" font-size="14.00">Language.Drasil.Code.Imperative.Helpers</text>
</g>
<!-- u33&#45;&gt;u19 -->
<g id="edge52" class="edge">
<title>u33&#45;&gt;u19</title>
<path fill="none" stroke="black" d="M4010.7,-2232.67C4031.63,-2190.98 4084.89,-2084.9 4109.79,-2035.3"/>
<polygon fill="black" stroke="black" points="4113.01,-2036.68 4114.37,-2026.18 4106.76,-2033.54 4113.01,-2036.68"/>
</g>
<!-- u8 -->
<g id="node41" class="node">
<title>u8</title>
<ellipse fill="#ffbbff" stroke="black" cx="4553.99" cy="-2008" rx="207.16" ry="18"/>
<text text-anchor="middle" x="4553.99" y="-2004.3" font-family="Times,serif" font-size="14.00">Language.Drasil.Code.Imperative.Logging</text>
</g>
<!-- u33&#45;&gt;u8 -->
<g id="edge51" class="edge">
<title>u33&#45;&gt;u8</title>
<path fill="none" stroke="black" d="M4040.37,-2233.24C4138.51,-2190.4 4398.44,-2076.91 4506.17,-2029.88"/>
<polygon fill="black" stroke="black" points="4507.74,-2033.01 4515.5,-2025.8 4504.94,-2026.6 4507.74,-2033.01"/>
</g>
<!-- u23&#45;&gt;u43 -->
<g id="edge33" class="edge">
<title>u23&#45;&gt;u43</title>
<path fill="none" stroke="black" d="M3498.54,-1502.67C3463.48,-1460.63 3373.82,-1353.13 3332.91,-1304.08"/>
<polygon fill="black" stroke="black" points="3335.41,-1301.61 3326.32,-1296.18 3330.04,-1306.1 3335.41,-1301.61"/>
</g>
<!-- u22&#45;&gt;u2 -->
<g id="edge32" class="edge">
<title>u22&#45;&gt;u2</title>
<path fill="none" stroke="black" d="M962.31,-1756.2C1256.21,-1732.82 1786.99,-1640.55 1786.99,-1279 1786.99,-1279 1786.99,-1279 1786.99,-790 1786.99,-450.19 2294.03,-347 2541.83,-316.86"/>
<polygon fill="black" stroke="black" points="2542.47,-320.3 2551.99,-315.64 2541.64,-313.35 2542.47,-320.3"/>
</g>
<!-- u21&#45;&gt;u36 -->
<g id="edge31" class="edge">
<title>u21&#45;&gt;u36</title>
<path fill="none" stroke="black" d="M3681.48,-1990.53C3840.08,-1947.34 4267.34,-1830.99 4436.07,-1785.04"/>
<polygon fill="black" stroke="black" points="4437.11,-1788.38 4445.84,-1782.38 4435.28,-1781.63 4437.11,-1788.38"/>
</g>
<!-- u32 -->
<g id="node45" class="node">
<title>u32</title>
<ellipse fill="#7777ff" stroke="black" cx="3593.99" cy="-1765" rx="267.25" ry="18"/>
<text text-anchor="middle" x="3593.99" y="-1761.3" font-family="Times,serif" font-size="14.00">Language.Drasil.Code.Imperative.GOOL.ClassInterface</text>
</g>
<!-- u21&#45;&gt;u32 -->
<g id="edge30" class="edge">
<title>u21&#45;&gt;u32</title>
<path fill="none" stroke="black" d="M3619.05,-1989.67C3614.41,-1948.24 3602.65,-1843.22 3597.05,-1793.24"/>
<polygon fill="black" stroke="black" points="3600.51,-1792.72 3595.92,-1783.18 3593.55,-1793.5 3600.51,-1792.72"/>
</g>
<!-- u20&#45;&gt;u36 -->
<g id="edge29" class="edge">
<title>u20&#45;&gt;u36</title>
<path fill="none" stroke="black" d="M4964.33,-1990.05C4876.73,-1947.23 4646.58,-1834.73 4549.83,-1787.43"/>
<polygon fill="black" stroke="black" points="4551.14,-1784.18 4540.62,-1782.93 4548.07,-1790.46 4551.14,-1784.18"/>
</g>
<!-- u19&#45;&gt;u36 -->
<g id="edge28" class="edge">
<title>u19&#45;&gt;u36</title>
<path fill="none" stroke="black" d="M4149.93,-1990.05C4217.5,-1947.53 4394.25,-1836.31 4470.33,-1788.44"/>
<polygon fill="black" stroke="black" points="4472.49,-1791.22 4479.09,-1782.93 4468.76,-1785.29 4472.49,-1791.22"/>
</g>
<!-- u18 -->
<g id="node34" class="node">
<title>u18</title>
<ellipse fill="#ffbbff" stroke="black" cx="4594.99" cy="-2495" rx="228.26" ry="18"/>
<text text-anchor="middle" x="4594.99" y="-2491.3" font-family="Times,serif" font-size="14.00">Language.Drasil.Code.Imperative.Descriptions</text>
</g>
<!-- u18&#45;&gt;u36 -->
<g id="edge27" class="edge">
<title>u18&#45;&gt;u36</title>
<path fill="none" stroke="black" d="M4653.93,-2477.59C4842.2,-2422.27 5406.62,-2232.45 5227.99,-1990 5154.12,-1889.74 4792.96,-1815.02 4611.08,-1783.08"/>
<polygon fill="black" stroke="black" points="4611.42,-1779.59 4600.96,-1781.32 4610.21,-1786.48 4611.42,-1779.59"/>
</g>
<!-- u17 -->
<g id="node35" class="node">
<title>u17</title>
<ellipse fill="#ffbbff" stroke="black" cx="4594.99" cy="-2738" rx="209.06" ry="18"/>
<text text-anchor="middle" x="4594.99" y="-2734.3" font-family="Times,serif" font-size="14.00">Language.Drasil.Code.Imperative.Modules</text>
</g>
<!-- u17&#45;&gt;u18 -->
<g id="edge26" class="edge">
<title>u17&#45;&gt;u18</title>
<path fill="none" stroke="black" d="M4594.99,-2719.67C4594.99,-2678.24 4594.99,-2573.22 4594.99,-2523.24"/>
<polygon fill="black" stroke="black" points="4598.49,-2523.18 4594.99,-2513.18 4591.49,-2523.18 4598.49,-2523.18"/>
</g>
<!-- u15 -->
<g id="node37" class="node">
<title>u15</title>
<ellipse fill="#ffbbff" stroke="black" cx="4001.99" cy="-2495" rx="233.16" ry="18"/>
<text text-anchor="middle" x="4001.99" y="-2491.3" font-family="Times,serif" font-size="14.00">Language.Drasil.Code.Imperative.FunctionCalls</text>
</g>
<!-- u17&#45;&gt;u15 -->
<g id="edge25" class="edge">
<title>u17&#45;&gt;u15</title>
<path fill="none" stroke="black" d="M4553.77,-2720.24C4448.13,-2677.31 4167.98,-2563.46 4052.67,-2516.59"/>
<polygon fill="black" stroke="black" points="4053.92,-2513.33 4043.34,-2512.8 4051.29,-2519.81 4053.92,-2513.33"/>
</g>
<!-- u16 -->
<g id="node36" class="node">
<title>u16</title>
<ellipse fill="#ffbbff" stroke="black" cx="4267.99" cy="-1521" rx="209.86" ry="18"/>
<text text-anchor="middle" x="4267.99" y="-1517.3" font-family="Times,serif" font-size="14.00">Language.Drasil.Code.Imperative.GenODE</text>
</g>
<!-- u16&#45;&gt;u43 -->
<g id="edge24" class="edge">
<title>u16&#45;&gt;u43</title>
<path fill="none" stroke="black" d="M4203.78,-1503.81C4031.32,-1460.34 3559.04,-1341.28 3381.07,-1296.41"/>
<polygon fill="black" stroke="black" points="3381.85,-1293 3371.3,-1293.95 3380.14,-1299.79 3381.85,-1293"/>
</g>
<!-- u16&#45;&gt;u42 -->
<g id="edge23" class="edge">
<title>u16&#45;&gt;u42</title>
<path fill="none" stroke="black" d="M4252.24,-1502.67C4213.97,-1460.55 4115.95,-1352.68 4071.51,-1303.77"/>
<polygon fill="black" stroke="black" points="4073.92,-1301.22 4064.6,-1296.18 4068.74,-1305.93 4073.92,-1301.22"/>
</g>
<!-- u16&#45;&gt;u6 -->
<g id="edge22" class="edge">
<title>u16&#45;&gt;u6</title>
<path fill="none" stroke="black" d="M4267.07,-1502.94C4264.76,-1461.34 4258.22,-1351.41 4248.99,-1260 4241.77,-1188.44 4230.1,-1104.49 4224,-1062.23"/>
<polygon fill="black" stroke="black" points="4227.44,-1061.57 4222.54,-1052.18 4220.51,-1062.58 4227.44,-1061.57"/>
</g>
<!-- u15&#45;&gt;u33 -->
<g id="edge21" class="edge">
<title>u15&#45;&gt;u33</title>
<path fill="none" stroke="black" d="M4001.99,-2476.98C4001.99,-2435.69 4001.99,-2329.86 4001.99,-2279.47"/>
<polygon fill="black" stroke="black" points="4005.49,-2279.32 4001.99,-2269.32 3998.49,-2279.32 4005.49,-2279.32"/>
</g>
<!-- u14 -->
<g id="node38" class="node">
<title>u14</title>
<ellipse fill="#ffbbff" stroke="black" cx="3358.99" cy="-2251" rx="223.66" ry="18"/>
<text text-anchor="middle" x="3358.99" y="-2247.3" font-family="Times,serif" font-size="14.00">Language.Drasil.Code.Imperative.Parameters</text>
</g>
<!-- u15&#45;&gt;u14 -->
<g id="edge20" class="edge">
<title>u15&#45;&gt;u14</title>
<path fill="none" stroke="black" d="M3957.54,-2477.27C3842.96,-2434.15 3537.81,-2319.3 3413.17,-2272.39"/>
<polygon fill="black" stroke="black" points="3414.04,-2268.98 3403.45,-2268.73 3411.58,-2275.53 3414.04,-2268.98"/>
</g>
<!-- u14&#45;&gt;u7 -->
<g id="edge18" class="edge">
<title>u14&#45;&gt;u7</title>
<path fill="none" stroke="black" d="M3344.54,-2232.67C3309.48,-2190.63 3219.82,-2083.13 3178.91,-2034.08"/>
<polygon fill="black" stroke="black" points="3181.41,-2031.61 3172.32,-2026.18 3176.04,-2036.1 3181.41,-2031.61"/>
</g>
<!-- u14&#45;&gt;u36 -->
<g id="edge19" class="edge">
<title>u14&#45;&gt;u36</title>
<path fill="none" stroke="black" d="M3281.5,-2234.12C3133.93,-2200.57 2836.53,-2115.14 2944.99,-1990 3035.14,-1885.99 3946.86,-1807.17 4333.81,-1778.14"/>
<polygon fill="black" stroke="black" points="4334.26,-1781.62 4343.97,-1777.38 4333.74,-1774.63 4334.26,-1781.62"/>
</g>
<!-- u13&#45;&gt;u1 -->
<g id="edge14" class="edge">
<title>u13&#45;&gt;u1</title>
<path fill="none" stroke="black" d="M4565.6,-2963.98C4491.54,-2921.1 4297.3,-2808.65 4214.86,-2760.92"/>
<polygon fill="black" stroke="black" points="4216.48,-2757.82 4206.08,-2755.84 4212.98,-2763.88 4216.48,-2757.82"/>
</g>
<!-- u13&#45;&gt;u37 -->
<g id="edge17" class="edge">
<title>u13&#45;&gt;u37</title>
<path fill="none" stroke="black" d="M4611.55,-2964.02C4682.5,-2891.27 4961.01,-2605.69 5044.33,-2520.27"/>
<polygon fill="black" stroke="black" points="5046.85,-2522.69 5051.33,-2513.09 5041.84,-2517.81 5046.85,-2522.69"/>
</g>
<!-- u13&#45;&gt;u17 -->
<g id="edge16" class="edge">
<title>u13&#45;&gt;u17</title>
<path fill="none" stroke="black" d="M4594.99,-2963.98C4594.99,-2922.69 4594.99,-2816.86 4594.99,-2766.47"/>
<polygon fill="black" stroke="black" points="4598.49,-2766.32 4594.99,-2756.32 4591.49,-2766.32 4598.49,-2766.32"/>
</g>
<!-- u13&#45;&gt;u16 -->
<g id="edge15" class="edge">
<title>u13&#45;&gt;u16</title>
<path fill="none" stroke="black" d="M4682.45,-2965.51C4875.88,-2925.69 5322.99,-2800.69 5322.99,-2496 5322.99,-2496 5322.99,-2496 5322.99,-2007 5322.99,-1637.88 4783.25,-1548.67 4475.89,-1527.79"/>
<polygon fill="black" stroke="black" points="4475.71,-1524.27 4465.5,-1527.11 4475.25,-1531.26 4475.71,-1524.27"/>
</g>
<!-- u9 -->
<g id="node40" class="node">
<title>u9</title>
<ellipse fill="#ffbbff" stroke="black" cx="2248.99" cy="-2251" rx="233.16" ry="18"/>
<text text-anchor="middle" x="2248.99" y="-2247.3" font-family="Times,serif" font-size="14.00">Language.Drasil.Code.Imperative.WriteReadMe</text>
</g>
<!-- u9&#45;&gt;u32 -->
<g id="edge11" class="edge">
<title>u9&#45;&gt;u32</title>
<path fill="none" stroke="black" d="M2290.48,-2233.19C2395.56,-2190.79 2680.96,-2076.68 2921.99,-1990 3144.58,-1909.96 3412.04,-1823.74 3531.29,-1785.82"/>
<polygon fill="black" stroke="black" points="3532.52,-1789.1 3541,-1782.73 3530.4,-1782.43 3532.52,-1789.1"/>
</g>
<!-- u8&#45;&gt;u36 -->
<g id="edge10" class="edge">
<title>u8&#45;&gt;u36</title>
<path fill="none" stroke="black" d="M4550.54,-1989.67C4542.29,-1948.24 4521.37,-1843.22 4511.42,-1793.24"/>
<polygon fill="black" stroke="black" points="4514.8,-1792.3 4509.41,-1783.18 4507.94,-1793.67 4514.8,-1792.3"/>
</g>
<!-- u12 -->
<g id="node42" class="node">
<title>u12</title>
<ellipse fill="#77ff77" stroke="black" cx="1692.99" cy="-2251" rx="228.56" ry="18"/>
<text text-anchor="middle" x="1692.99" y="-2247.3" font-family="Times,serif" font-size="14.00">Language.Drasil.Code.Imperative.Build.Import</text>
</g>
<!-- u11 -->
<g id="node43" class="node">
<title>u11</title>
<ellipse fill="#77ff77" stroke="black" cx="1692.99" cy="-2008" rx="215.56" ry="18"/>
<text text-anchor="middle" x="1692.99" y="-2004.3" font-family="Times,serif" font-size="14.00">Language.Drasil.Code.Imperative.Build.AST</text>
</g>
<!-- u12&#45;&gt;u11 -->
<g id="edge13" class="edge">
<title>u12&#45;&gt;u11</title>
<path fill="none" stroke="black" d="M1692.99,-2232.67C1692.99,-2191.24 1692.99,-2086.22 1692.99,-2036.24"/>
<polygon fill="black" stroke="black" points="1696.49,-2036.18 1692.99,-2026.18 1689.49,-2036.18 1696.49,-2036.18"/>
</g>
<!-- u10 -->
<g id="node44" class="node">
<title>u10</title>
<ellipse fill="#ffff77" stroke="black" cx="3063.99" cy="-1765" rx="245.06" ry="18"/>
<text text-anchor="middle" x="3063.99" y="-1761.3" font-family="Times,serif" font-size="14.00">Language.Drasil.Code.Imperative.Doxygen.Import</text>
</g>
<!-- u10&#45;&gt;u43 -->
<g id="edge12" class="edge">
<title>u10&#45;&gt;u43</title>
<path fill="none" stroke="black" d="M3072.82,-1746.74C3110,-1674.03 3253.97,-1392.47 3298.68,-1305.05"/>
<polygon fill="black" stroke="black" points="3301.84,-1306.55 3303.27,-1296.05 3295.6,-1303.36 3301.84,-1306.55"/>
</g>
<!-- u32&#45;&gt;u43 -->
<g id="edge49" class="edge">
<title>u32&#45;&gt;u43</title>
<path fill="none" stroke="black" d="M3544.95,-1747.25C3469.12,-1718.36 3326,-1651.23 3266.99,-1539 3226.02,-1461.07 3271.93,-1353.62 3297.36,-1304.89"/>
<polygon fill="black" stroke="black" points="3300.51,-1306.42 3302.14,-1295.95 3294.34,-1303.11 3300.51,-1306.42"/>
</g>
<!-- u31 -->
<g id="node46" class="node">
<title>u31</title>
<ellipse fill="#7777ff" stroke="black" cx="2789.99" cy="-2251" rx="289.45" ry="18"/>
<text text-anchor="middle" x="2789.99" y="-2247.3" font-family="Times,serif" font-size="14.00">Language.Drasil.Code.Imperative.GOOL.LanguageRenderer</text>
</g>
<!-- u30&#45;&gt;u24 -->
<g id="edge47" class="edge">
<title>u30&#45;&gt;u24</title>
<path fill="none" stroke="black" d="M765.74,-2721.05C1094.14,-2677.3 2006.34,-2555.77 2335.02,-2511.98"/>
<polygon fill="black" stroke="black" points="2335.59,-2515.44 2345.04,-2510.65 2334.67,-2508.5 2335.59,-2515.44"/>
</g>
<!-- u26 -->
<g id="node52" class="node">
<title>u26</title>
<ellipse fill="#ff7777" stroke="black" cx="1820.99" cy="-2495" rx="393.73" ry="18"/>
<text text-anchor="middle" x="1820.99" y="-2491.3" font-family="Times,serif" font-size="14.00">Language.Drasil.Code.Imperative.GOOL.LanguageRenderer.LanguagePolymorphic</text>
</g>
<!-- u30&#45;&gt;u26 -->
<g id="edge48" class="edge">
<title>u30&#45;&gt;u26</title>
<path fill="none" stroke="black" d="M726.76,-2720.44C938.16,-2677.07 1506.8,-2560.44 1729.64,-2514.74"/>
<polygon fill="black" stroke="black" points="1730.57,-2518.12 1739.67,-2512.68 1729.17,-2511.26 1730.57,-2518.12"/>
</g>
<!-- u29&#45;&gt;u24 -->
<g id="edge45" class="edge">
<title>u29&#45;&gt;u24</title>
<path fill="none" stroke="black" d="M1460.82,-2720.34C1653.87,-2676.78 2172.54,-2559.74 2373.7,-2514.34"/>
<polygon fill="black" stroke="black" points="2374.63,-2517.72 2383.61,-2512.11 2373.09,-2510.89 2374.63,-2517.72"/>
</g>
<!-- u29&#45;&gt;u26 -->
<g id="edge46" class="edge">
<title>u29&#45;&gt;u26</title>
<path fill="none" stroke="black" d="M1417.51,-2720.05C1494.3,-2677.41 1695.52,-2565.68 1781.31,-2518.04"/>
<polygon fill="black" stroke="black" points="1783.18,-2521 1790.22,-2513.09 1779.78,-2514.88 1783.18,-2521"/>
</g>
<!-- u28&#45;&gt;u24 -->
<g id="edge43" class="edge">
<title>u28&#45;&gt;u24</title>
<path fill="none" stroke="black" d="M2150.32,-2719.86C2208.03,-2677.46 2357.55,-2567.6 2423.24,-2519.33"/>
<polygon fill="black" stroke="black" points="2425.58,-2521.95 2431.57,-2513.21 2421.44,-2516.31 2425.58,-2521.95"/>
</g>
<!-- u28&#45;&gt;u26 -->
<g id="edge44" class="edge">
<title>u28&#45;&gt;u26</title>
<path fill="none" stroke="black" d="M2104.99,-2719.67C2051.06,-2677.2 1912.28,-2567.9 1850.93,-2519.58"/>
<polygon fill="black" stroke="black" points="1852.82,-2516.61 1842.8,-2513.18 1848.49,-2522.11 1852.82,-2516.61"/>
</g>
<!-- u27&#45;&gt;u24 -->
<g id="edge41" class="edge">
<title>u27&#45;&gt;u24</title>
<path fill="none" stroke="black" d="M2828.73,-2720.05C2757.65,-2677.45 2571.52,-2565.86 2491.94,-2518.15"/>
<polygon fill="black" stroke="black" points="2493.61,-2515.07 2483.23,-2512.93 2490.01,-2521.07 2493.61,-2515.07"/>
</g>
<!-- u27&#45;&gt;u26 -->
<g id="edge42" class="edge">
<title>u27&#45;&gt;u26</title>
<path fill="none" stroke="black" d="M2785.38,-2720.34C2599.11,-2677.01 2100.31,-2560.98 1902.98,-2515.07"/>
<polygon fill="black" stroke="black" points="1903.5,-2511.6 1892.97,-2512.74 1901.91,-2518.42 1903.5,-2511.6"/>
</g>
<!-- u26&#45;&gt;u34 -->
<g id="edge40" class="edge">
<title>u26&#45;&gt;u34</title>
<path fill="none" stroke="black" d="M1829.46,-2476.8C1847.97,-2439.18 1893.39,-2346.69 1930.99,-2269 2067.31,-1987.39 2230.48,-1644.95 2276.42,-1548.43"/>
<polygon fill="black" stroke="black" points="2279.71,-1549.66 2280.85,-1539.12 2273.39,-1546.65 2279.71,-1549.66"/>
</g>
<!-- u26&#45;&gt;u9 -->
<g id="edge36" class="edge">
<title>u26&#45;&gt;u9</title>
<path fill="none" stroke="black" d="M1851.09,-2476.98C1926.91,-2434.11 2125.73,-2321.7 2210.17,-2273.95"/>
<polygon fill="black" stroke="black" points="2211.95,-2276.97 2218.93,-2269 2208.5,-2270.87 2211.95,-2276.97"/>
</g>
<!-- u26&#45;&gt;u12 -->
<g id="edge38" class="edge">
<title>u26&#45;&gt;u12</title>
<path fill="none" stroke="black" d="M1811.99,-2476.98C1789.91,-2435.24 1732.96,-2327.56 1706.67,-2277.85"/>
<polygon fill="black" stroke="black" points="1709.75,-2276.2 1701.98,-2269 1703.57,-2279.47 1709.75,-2276.2"/>
</g>
<!-- u26&#45;&gt;u10 -->
<g id="edge37" class="edge">
<title>u26&#45;&gt;u10</title>
<path fill="none" stroke="black" d="M1829.02,-2476.97C1851.21,-2431.5 1917.71,-2305.77 2006.99,-2233 2322.13,-1976.16 2800.68,-1833.31 2986.46,-1784.93"/>
<polygon fill="black" stroke="black" points="2987.61,-1788.25 2996.42,-1782.35 2985.86,-1781.47 2987.61,-1788.25"/>
</g>
<!-- u26&#45;&gt;u31 -->
<g id="edge39" class="edge">
<title>u26&#45;&gt;u31</title>
<path fill="none" stroke="black" d="M1888.36,-2477.18C2063.05,-2433.55 2529.78,-2316.99 2713.84,-2271.02"/>
<polygon fill="black" stroke="black" points="2714.86,-2274.37 2723.71,-2268.55 2713.16,-2267.58 2714.86,-2274.37"/>
</g>
<!-- u25&#45;&gt;u24 -->
<g id="edge34" class="edge">
<title>u25&#45;&gt;u24</title>
<path fill="none" stroke="black" d="M3521.77,-2720.34C3314.18,-2676.68 2755.63,-2559.22 2540.81,-2514.05"/>
<polygon fill="black" stroke="black" points="2541.35,-2510.58 2530.84,-2511.95 2539.91,-2517.43 2541.35,-2510.58"/>
</g>
<!-- u25&#45;&gt;u26 -->
<g id="edge35" class="edge">
<title>u25&#45;&gt;u26</title>
<path fill="none" stroke="black" d="M3482.48,-2720.95C3162.56,-2677.64 2283.21,-2558.58 1950.67,-2513.56"/>
<polygon fill="black" stroke="black" points="1950.9,-2510.06 1940.52,-2512.18 1949.96,-2516.99 1950.9,-2510.06"/>
</g>
<!-- u35 -->
<g id="node54" class="node">
<title>u35</title>
<ellipse fill="#77ffff" stroke="black" cx="2962.99" cy="-2495" rx="267.55" ry="18"/>
<text text-anchor="middle" x="2962.99" y="-2491.3" font-family="Times,serif" font-size="14.00">Language.Drasil.Code.Imperative.Parsers.ConfigParser</text>
</g>
<!-- u35&#45;&gt;u31 -->
<g id="edge57" class="edge">
<title>u35&#45;&gt;u31</title>
<path fill="none" stroke="black" d="M2950.83,-2476.98C2920.86,-2435.07 2843.37,-2326.67 2808.04,-2277.24"/>
<polygon fill="black" stroke="black" points="2810.81,-2275.1 2802.15,-2269 2805.11,-2279.17 2810.81,-2275.1"/>
</g>
<!-- u47&#45;&gt;u4 -->
<g id="edge77" class="edge">
<title>u47&#45;&gt;u4</title>
<path fill="none" stroke="black" d="M3384.46,-1016.05C3445.74,-973.62 3605.81,-862.76 3675.16,-814.74"/>
<polygon fill="black" stroke="black" points="3677.32,-817.5 3683.55,-808.93 3673.34,-811.74 3677.32,-817.5"/>
</g>
<!-- u47&#45;&gt;u3 -->
<g id="edge76" class="edge">
<title>u47&#45;&gt;u3</title>
<path fill="none" stroke="black" d="M3359.99,-1015.67C3359.99,-974.24 3359.99,-869.22 3359.99,-819.24"/>
<polygon fill="black" stroke="black" points="3363.49,-819.18 3359.99,-809.18 3356.49,-819.18 3363.49,-819.18"/>
</g>
<!-- u47&#45;&gt;u0 -->
<g id="edge75" class="edge">
<title>u47&#45;&gt;u0</title>
<path fill="none" stroke="black" d="M3411.61,-1016.72C3547.51,-973.85 3914.88,-857.96 4061.92,-811.58"/>
<polygon fill="black" stroke="black" points="4063.22,-814.84 4071.7,-808.5 4061.11,-808.17 4063.22,-814.84"/>
</g>
<!-- u47&#45;&gt;u46 -->
<g id="edge78" class="edge">
<title>u47&#45;&gt;u46</title>
<path fill="none" stroke="black" d="M3338.13,-1016.05C3283.59,-973.79 3141.48,-863.67 3079.09,-815.33"/>
<polygon fill="black" stroke="black" points="3080.89,-812.29 3070.84,-808.93 3076.6,-817.82 3080.89,-812.29"/>
</g>
<!-- u46&#45;&gt;u40 -->
<g id="edge74" class="edge">
<title>u46&#45;&gt;u40</title>
<path fill="none" stroke="black" d="M3048.99,-772.72C3048.99,-676.57 3048.99,-207.49 3048.99,-89.15"/>
<polygon fill="black" stroke="black" points="3052.49,-89.12 3048.99,-79.12 3045.49,-89.12 3052.49,-89.12"/>
</g>
</g>
</svg>
