<?xml version="1.0" encoding="UTF-8" standalone="no"?>
<!DOCTYPE svg PUBLIC "-//W3C//DTD SVG 1.1//EN"
 "http://www.w3.org/Graphics/SVG/1.1/DTD/svg11.dtd">
<!-- Generated by graphviz version 2.43.0 (0)
 -->
<!-- Title: G Pages: 1 -->
<svg width="430pt" height="288pt"
 viewBox="0.00 0.00 430.27 288.00" xmlns="http://www.w3.org/2000/svg" xmlns:xlink="http://www.w3.org/1999/xlink">
<g id="graph0" class="graph" transform="scale(0.45 0.45) rotate(0) translate(4 640.67)">
<title>G</title>
<polygon fill="white" stroke="transparent" points="-4,4 -4,-640.67 959.13,-640.67 959.13,4 -4,4"/>
<!-- u4 -->
<g id="node1" class="node">
<title>u4</title>
<ellipse fill="#bbffbb" stroke="black" cx="524.79" cy="-573" rx="85.59" ry="18"/>
<text text-anchor="middle" x="524.79" y="-569.3" font-family="Times,serif" font-size="14.00">Drasil.Metadata</text>
</g>
<!-- u2 -->
<g id="node3" class="node">
<title>u2</title>
<ellipse fill="#ffffbb" stroke="black" cx="163.79" cy="-318" rx="163.57" ry="18"/>
<text text-anchor="middle" x="163.79" y="-314.3" font-family="Times,serif" font-size="14.00">Drasil.Metadata.TheoryConcepts</text>
</g>
<!-- u4&#45;&gt;u2 -->
<g id="edge4" class="edge">
<title>u4&#45;&gt;u2</title>
<path fill="none" stroke="black" d="M501.38,-555.59C438.92,-511.82 268.2,-392.18 196.34,-341.82"/>
<polygon fill="black" stroke="black" points="198.28,-338.9 188.09,-336.03 194.27,-344.64 198.28,-338.9"/>
</g>
<!-- u1 -->
<g id="node4" class="node">
<title>u1</title>
<ellipse fill="#ffffbb" stroke="black" cx="524.79" cy="-318" rx="179.27" ry="18"/>
<text text-anchor="middle" x="524.79" y="-314.3" font-family="Times,serif" font-size="14.00">Drasil.Metadata.SupportedSoftware</text>
</g>
<!-- u4&#45;&gt;u1 -->
<g id="edge3" class="edge">
<title>u4&#45;&gt;u1</title>
<path fill="none" stroke="black" d="M524.79,-554.61C524.79,-511.36 524.79,-398.65 524.79,-346.37"/>
<polygon fill="black" stroke="black" points="528.29,-346.18 524.79,-336.18 521.29,-346.18 528.29,-346.18"/>
</g>
<!-- u0 -->
<g id="node5" class="node">
<title>u0</title>
<ellipse fill="#ffffbb" stroke="black" cx="838.79" cy="-318" rx="116.18" ry="18"/>
<text text-anchor="middle" x="838.79" y="-314.3" font-family="Times,serif" font-size="14.00">Drasil.Metadata.Drasil</text>
</g>
<!-- u4&#45;&gt;u0 -->
<g id="edge2" class="edge">
<title>u4&#45;&gt;u0</title>
<path fill="none" stroke="black" d="M545.39,-555.4C599.71,-511.63 746.95,-392.99 809.76,-342.39"/>
<polygon fill="black" stroke="black" points="812.1,-344.99 817.7,-335.99 807.71,-339.54 812.1,-344.99"/>
</g>
<!-- u3 -->
<g id="node2" class="node">
<title>u3</title>
<ellipse fill="#ffffbb" stroke="black" cx="163.79" cy="-64" rx="129.18" ry="18"/>
<text text-anchor="middle" x="163.79" y="-60.3" font-family="Times,serif" font-size="14.00">Drasil.Metadata.Domains</text>
</g>
<!-- u2&#45;&gt;u3 -->
<g id="edge1" class="edge">
<title>u2&#45;&gt;u3</title>
<path fill="none" stroke="black" d="M163.79,-299.68C163.79,-256.6 163.79,-144.33 163.79,-92.26"/>
<polygon fill="black" stroke="black" points="167.29,-92.11 163.79,-82.11 160.29,-92.11 167.29,-92.11"/>
</g>
</g>
</svg>
