<?xml version="1.0" encoding="UTF-8" standalone="no"?>
<!DOCTYPE svg PUBLIC "-//W3C//DTD SVG 1.1//EN"
 "http://www.w3.org/Graphics/SVG/1.1/DTD/svg11.dtd">
<!-- Generated by graphviz version 2.43.0 (0)
 -->
<!-- Title: G Pages: 1 -->
<svg width="432pt" height="288pt"
 viewBox="0.00 0.00 431.63 288.00" xmlns="http://www.w3.org/2000/svg" xmlns:xlink="http://www.w3.org/1999/xlink">
<g id="graph0" class="graph" transform="scale(10.04 10.04) rotate(0) translate(4 2888.67)">
<title>G</title>
<polygon fill="white" stroke="transparent" points="-4,4 -4,-2888.67 4331.28,-2888.67 4331.28,4 -4,4"/>
<!-- u28 -->
<g id="node1" class="node">
<title>u28</title>
<ellipse fill="#bbffbb" stroke="black" cx="2576.94" cy="-2800" rx="108.58" ry="18"/>
<text text-anchor="middle" x="2576.94" y="-2796.3" font-family="Times,serif" font-size="14.00">Drasil.SRSDocument</text>
</g>
<!-- u1 -->
<g id="node5" class="node">
<title>u1</title>
<ellipse fill="#bbffbb" stroke="black" cx="2576.94" cy="-2460" rx="81.79" ry="18"/>
<text text-anchor="middle" x="2576.94" y="-2456.3" font-family="Times,serif" font-size="14.00">Drasil.DocLang</text>
</g>
<!-- u28&#45;&gt;u1 -->
<g id="edge56" class="edge">
<title>u28&#45;&gt;u1</title>
<path fill="none" stroke="black" d="M2576.94,-2781.77C2576.94,-2726.85 2576.94,-2555.55 2576.94,-2488.4"/>
<polygon fill="black" stroke="black" points="2580.44,-2488.19 2576.94,-2478.19 2573.44,-2488.19 2580.44,-2488.19"/>
</g>
<!-- u27 -->
<g id="node2" class="node">
<title>u27</title>
<ellipse fill="#bbffbb" stroke="black" cx="2502.94" cy="-1782" rx="116.18" ry="18"/>
<text text-anchor="middle" x="2502.94" y="-1778.3" font-family="Times,serif" font-size="14.00">Drasil.ExtractDocDesc</text>
</g>
<!-- u21 -->
<g id="node11" class="node">
<title>u21</title>
<ellipse fill="#bbbbff" stroke="black" cx="3366.94" cy="-1103" rx="159.47" ry="18"/>
<text text-anchor="middle" x="3366.94" y="-1099.3" font-family="Times,serif" font-size="14.00">Drasil.DocumentLanguage.Core</text>
</g>
<!-- u27&#45;&gt;u21 -->
<g id="edge55" class="edge">
<title>u27&#45;&gt;u21</title>
<path fill="none" stroke="black" d="M2595.07,-1770.91C2853.59,-1740.5 3575.95,-1640.58 3714.94,-1460 3822.72,-1319.96 3536.35,-1176.52 3416.67,-1124.45"/>
<polygon fill="black" stroke="black" points="3417.9,-1121.16 3407.33,-1120.42 3415.13,-1127.59 3417.9,-1121.16"/>
</g>
<!-- u7 -->
<g id="node24" class="node">
<title>u7</title>
<ellipse fill="#bbffff" stroke="black" cx="2480.94" cy="-1442" rx="207.96" ry="18"/>
<text text-anchor="middle" x="2480.94" y="-1438.3" font-family="Times,serif" font-size="14.00">Drasil.Sections.SpecificSystemDescription</text>
</g>
<!-- u27&#45;&gt;u7 -->
<g id="edge54" class="edge">
<title>u27&#45;&gt;u7</title>
<path fill="none" stroke="black" d="M2501.82,-1763.77C2498.24,-1708.85 2487.09,-1537.55 2482.72,-1470.4"/>
<polygon fill="black" stroke="black" points="2486.2,-1469.94 2482.06,-1460.19 2479.21,-1470.4 2486.2,-1469.94"/>
</g>
<!-- u23 -->
<g id="node3" class="node">
<title>u23</title>
<ellipse fill="#bbffbb" stroke="black" cx="2171.94" cy="-2121" rx="133.78" ry="18"/>
<text text-anchor="middle" x="2171.94" y="-2117.3" font-family="Times,serif" font-size="14.00">Drasil.DocumentLanguage</text>
</g>
<!-- u23&#45;&gt;u27 -->
<g id="edge46" class="edge">
<title>u23&#45;&gt;u27</title>
<path fill="none" stroke="black" d="M2188.81,-2102.82C2243.37,-2047.27 2415.21,-1872.32 2478.89,-1807.49"/>
<polygon fill="black" stroke="black" points="2481.59,-1809.73 2486.1,-1800.14 2476.6,-1804.82 2481.59,-1809.73"/>
</g>
<!-- u14 -->
<g id="node4" class="node">
<title>u14</title>
<ellipse fill="#bbffbb" stroke="black" cx="2288.94" cy="-1782" rx="79.09" ry="18"/>
<text text-anchor="middle" x="2288.94" y="-1778.3" font-family="Times,serif" font-size="14.00">Drasil.DocDecl</text>
</g>
<!-- u23&#45;&gt;u14 -->
<g id="edge43" class="edge">
<title>u23&#45;&gt;u14</title>
<path fill="none" stroke="black" d="M2177.9,-2102.82C2196.95,-2047.95 2256.45,-1876.57 2279.6,-1809.91"/>
<polygon fill="black" stroke="black" points="2283.01,-1810.74 2282.99,-1800.14 2276.4,-1808.44 2283.01,-1810.74"/>
</g>
<!-- u0 -->
<g id="node6" class="node">
<title>u0</title>
<ellipse fill="#bbffbb" stroke="black" cx="3293.94" cy="-1782" rx="92.08" ry="18"/>
<text text-anchor="middle" x="3293.94" y="-1778.3" font-family="Times,serif" font-size="14.00">Drasil.TraceTable</text>
</g>
<!-- u23&#45;&gt;u0 -->
<g id="edge38" class="edge">
<title>u23&#45;&gt;u0</title>
<path fill="none" stroke="black" d="M2224.18,-2104.31C2410.42,-2048.37 3041.18,-1858.92 3236.08,-1800.38"/>
<polygon fill="black" stroke="black" points="3237.27,-1803.67 3245.84,-1797.44 3235.26,-1796.97 3237.27,-1803.67"/>
</g>
<!-- u24 -->
<g id="node9" class="node">
<title>u24</title>
<ellipse fill="#ffffbb" stroke="black" cx="2054.94" cy="-1782" rx="136.48" ry="18"/>
<text text-anchor="middle" x="2054.94" y="-1778.3" font-family="Times,serif" font-size="14.00">Drasil.DocLang.References</text>
</g>
<!-- u23&#45;&gt;u24 -->
<g id="edge45" class="edge">
<title>u23&#45;&gt;u24</title>
<path fill="none" stroke="black" d="M2165.97,-2102.82C2146.92,-2047.95 2087.42,-1876.57 2064.28,-1809.91"/>
<polygon fill="black" stroke="black" points="2067.47,-1808.44 2060.89,-1800.14 2060.86,-1810.74 2067.47,-1808.44"/>
</g>
<!-- u20 -->
<g id="node12" class="node">
<title>u20</title>
<ellipse fill="#bbbbff" stroke="black" cx="1607.94" cy="-1782" rx="220.96" ry="18"/>
<text text-anchor="middle" x="1607.94" y="-1778.3" font-family="Times,serif" font-size="14.00">Drasil.DocumentLanguage.TraceabilityGraph</text>
</g>
<!-- u23&#45;&gt;u20 -->
<g id="edge44" class="edge">
<title>u23&#45;&gt;u20</title>
<path fill="none" stroke="black" d="M2143.97,-2103.29C2050.77,-2047.6 1750.75,-1868.33 1645.14,-1805.23"/>
<polygon fill="black" stroke="black" points="1646.79,-1802.14 1636.41,-1800.01 1643.2,-1808.15 1646.79,-1802.14"/>
</g>
<!-- u11 -->
<g id="node20" class="node">
<title>u11</title>
<ellipse fill="#bbffff" stroke="black" cx="2867.94" cy="-1442" rx="161.37" ry="18"/>
<text text-anchor="middle" x="2867.94" y="-1438.3" font-family="Times,serif" font-size="14.00">Drasil.Sections.TableOfContents</text>
</g>
<!-- u23&#45;&gt;u11 -->
<g id="edge42" class="edge">
<title>u23&#45;&gt;u11</title>
<path fill="none" stroke="black" d="M2203.35,-2103.35C2281.76,-2060.74 2489.66,-1941.07 2627.94,-1800 2733.63,-1692.17 2822.08,-1531.98 2854.59,-1469.4"/>
<polygon fill="black" stroke="black" points="2857.85,-1470.71 2859.32,-1460.22 2851.63,-1467.5 2857.85,-1470.71"/>
</g>
<!-- u6 -->
<g id="node25" class="node">
<title>u6</title>
<ellipse fill="#bbffff" stroke="black" cx="220.94" cy="-1442" rx="141.88" ry="18"/>
<text text-anchor="middle" x="220.94" y="-1438.3" font-family="Times,serif" font-size="14.00">Drasil.Sections.Introduction</text>
</g>
<!-- u23&#45;&gt;u6 -->
<g id="edge41" class="edge">
<title>u23&#45;&gt;u6</title>
<path fill="none" stroke="black" d="M2125.63,-2103.93C1863.16,-2012.85 563.78,-1561.97 277.01,-1462.46"/>
<polygon fill="black" stroke="black" points="277.83,-1459.04 267.24,-1459.07 275.54,-1465.65 277.83,-1459.04"/>
</g>
<!-- u5 -->
<g id="node26" class="node">
<title>u5</title>
<ellipse fill="#bbffff" stroke="black" cx="144.94" cy="-1782" rx="144.87" ry="18"/>
<text text-anchor="middle" x="144.94" y="-1778.3" font-family="Times,serif" font-size="14.00">Drasil.Sections.Stakeholders</text>
</g>
<!-- u23&#45;&gt;u5 -->
<g id="edge40" class="edge">
<title>u23&#45;&gt;u5</title>
<path fill="none" stroke="black" d="M2091.23,-2106.58C1769.59,-2053.11 580.1,-1855.35 237.71,-1798.42"/>
<polygon fill="black" stroke="black" points="238.26,-1794.97 227.83,-1796.78 237.12,-1801.87 238.26,-1794.97"/>
</g>
<!-- u3 -->
<g id="node28" class="node">
<title>u3</title>
<ellipse fill="#bbffff" stroke="black" cx="581.94" cy="-1442" rx="163.27" ry="18"/>
<text text-anchor="middle" x="581.94" y="-1438.3" font-family="Times,serif" font-size="14.00">Drasil.Sections.GeneralSystDesc</text>
</g>
<!-- u23&#45;&gt;u3 -->
<g id="edge39" class="edge">
<title>u23&#45;&gt;u3</title>
<path fill="none" stroke="black" d="M2129.95,-2103.74C2011.27,-2057.62 1663.41,-1921.49 1377.94,-1800 1089.94,-1677.44 748.21,-1520.12 627.16,-1464.02"/>
<polygon fill="black" stroke="black" points="628.36,-1460.72 617.82,-1459.69 625.42,-1467.07 628.36,-1460.72"/>
</g>
<!-- u14&#45;&gt;u21 -->
<g id="edge28" class="edge">
<title>u14&#45;&gt;u21</title>
<path fill="none" stroke="black" d="M2347.2,-1769.67C2605.76,-1719.13 3638.69,-1514.34 3681.94,-1460 3787.17,-1327.76 3522.48,-1179.29 3412.36,-1125.17"/>
<polygon fill="black" stroke="black" points="3413.66,-1121.91 3403.13,-1120.68 3410.59,-1128.2 3413.66,-1121.91"/>
</g>
<!-- u12 -->
<g id="node19" class="node">
<title>u12</title>
<ellipse fill="#bbffff" stroke="black" cx="1732.94" cy="-1442" rx="149.47" ry="18"/>
<text text-anchor="middle" x="1732.94" y="-1438.3" font-family="Times,serif" font-size="14.00">Drasil.Sections.Requirements</text>
</g>
<!-- u14&#45;&gt;u12 -->
<g id="edge27" class="edge">
<title>u14&#45;&gt;u12</title>
<path fill="none" stroke="black" d="M2262.49,-1764.92C2171.8,-1709.79 1873.22,-1528.28 1769.12,-1465"/>
<polygon fill="black" stroke="black" points="1770.89,-1461.97 1760.52,-1459.77 1767.25,-1467.96 1770.89,-1461.97"/>
</g>
<!-- u1&#45;&gt;u23 -->
<g id="edge3" class="edge">
<title>u1&#45;&gt;u23</title>
<path fill="none" stroke="black" d="M2557.13,-2442.52C2490.93,-2387.44 2277.23,-2209.62 2200.06,-2145.4"/>
<polygon fill="black" stroke="black" points="2202.11,-2142.55 2192.19,-2138.85 2197.63,-2147.94 2202.11,-2142.55"/>
</g>
<!-- u19 -->
<g id="node15" class="node">
<title>u19</title>
<ellipse fill="#ffbbbb" stroke="black" cx="3828.94" cy="-2121" rx="276.75" ry="18"/>
<text text-anchor="middle" x="3828.94" y="-2117.3" font-family="Times,serif" font-size="14.00">Drasil.DocumentLanguage.Notebook.DocumentLanguage</text>
</g>
<!-- u1&#45;&gt;u19 -->
<g id="edge2" class="edge">
<title>u1&#45;&gt;u19</title>
<path fill="none" stroke="black" d="M2626.79,-2445.58C2821.17,-2393.26 3528.71,-2202.81 3757.23,-2141.3"/>
<polygon fill="black" stroke="black" points="3758.36,-2144.62 3767.11,-2138.64 3756.54,-2137.86 3758.36,-2144.62"/>
</g>
<!-- u0&#45;&gt;u21 -->
<g id="edge1" class="edge">
<title>u0&#45;&gt;u21</title>
<path fill="none" stroke="black" d="M3338.04,-1766.14C3434.62,-1730.89 3663.31,-1632.05 3752.94,-1460 3837.6,-1297.48 3551.32,-1170.69 3424.43,-1123.72"/>
<polygon fill="black" stroke="black" points="3425.44,-1120.37 3414.85,-1120.22 3423.03,-1126.94 3425.44,-1120.37"/>
</g>
<!-- u26 -->
<g id="node7" class="node">
<title>u26</title>
<ellipse fill="#ffffbb" stroke="black" cx="983.94" cy="-1103" rx="104.78" ry="18"/>
<text text-anchor="middle" x="983.94" y="-1099.3" font-family="Times,serif" font-size="14.00">Drasil.DocLang.SRS</text>
</g>
<!-- u25 -->
<g id="node8" class="node">
<title>u25</title>
<ellipse fill="#ffffbb" stroke="black" cx="4197.94" cy="-1782" rx="129.18" ry="18"/>
<text text-anchor="middle" x="4197.94" y="-1778.3" font-family="Times,serif" font-size="14.00">Drasil.DocLang.Notebook</text>
</g>
<!-- u13 -->
<g id="node18" class="node">
<title>u13</title>
<ellipse fill="#bbffff" stroke="black" cx="934.94" cy="-1442" rx="172.47" ry="18"/>
<text text-anchor="middle" x="934.94" y="-1438.3" font-family="Times,serif" font-size="14.00">Drasil.Sections.AuxiliaryConstants</text>
</g>
<!-- u24&#45;&gt;u13 -->
<g id="edge53" class="edge">
<title>u24&#45;&gt;u13</title>
<path fill="none" stroke="black" d="M2002.79,-1765.26C1818.59,-1709.67 1198.79,-1522.63 998.17,-1462.08"/>
<polygon fill="black" stroke="black" points="998.96,-1458.67 988.37,-1459.13 996.94,-1465.37 998.96,-1458.67"/>
</g>
<!-- u24&#45;&gt;u12 -->
<g id="edge52" class="edge">
<title>u24&#45;&gt;u12</title>
<path fill="none" stroke="black" d="M2038.53,-1763.77C1985.45,-1708.06 1818.28,-1532.58 1756.33,-1467.56"/>
<polygon fill="black" stroke="black" points="1758.75,-1465.02 1749.31,-1460.19 1753.68,-1469.85 1758.75,-1465.02"/>
</g>
<!-- u9 -->
<g id="node22" class="node">
<title>u9</title>
<ellipse fill="#bbffff" stroke="black" cx="2077.94" cy="-1442" rx="177.37" ry="18"/>
<text text-anchor="middle" x="2077.94" y="-1438.3" font-family="Times,serif" font-size="14.00">Drasil.Sections.TraceabilityMandGs</text>
</g>
<!-- u24&#45;&gt;u9 -->
<g id="edge51" class="edge">
<title>u24&#45;&gt;u9</title>
<path fill="none" stroke="black" d="M2056.11,-1763.77C2059.85,-1708.85 2071.5,-1537.55 2076.07,-1470.4"/>
<polygon fill="black" stroke="black" points="2079.58,-1470.41 2076.77,-1460.19 2072.6,-1469.93 2079.58,-1470.41"/>
</g>
<!-- u8 -->
<g id="node23" class="node">
<title>u8</title>
<ellipse fill="#bbffff" stroke="black" cx="1363.94" cy="-1442" rx="201.46" ry="18"/>
<text text-anchor="middle" x="1363.94" y="-1438.3" font-family="Times,serif" font-size="14.00">Drasil.Sections.TableOfAbbAndAcronyms</text>
</g>
<!-- u24&#45;&gt;u8 -->
<g id="edge50" class="edge">
<title>u24&#45;&gt;u8</title>
<path fill="none" stroke="black" d="M2021.14,-1764.47C1906.94,-1708.61 1535.44,-1526.89 1407.62,-1464.37"/>
<polygon fill="black" stroke="black" points="1409.01,-1461.15 1398.48,-1459.9 1405.93,-1467.44 1409.01,-1461.15"/>
</g>
<!-- u24&#45;&gt;u7 -->
<g id="edge49" class="edge">
<title>u24&#45;&gt;u7</title>
<path fill="none" stroke="black" d="M2076.35,-1764.01C2146.6,-1708.27 2370.12,-1530.93 2451.2,-1466.6"/>
<polygon fill="black" stroke="black" points="2453.82,-1468.98 2459.48,-1460.03 2449.47,-1463.5 2453.82,-1468.98"/>
</g>
<!-- u4 -->
<g id="node27" class="node">
<title>u4</title>
<ellipse fill="#bbffff" stroke="black" cx="3205.94" cy="-1442" rx="159.47" ry="18"/>
<text text-anchor="middle" x="3205.94" y="-1438.3" font-family="Times,serif" font-size="14.00">Drasil.Sections.TableOfSymbols</text>
</g>
<!-- u24&#45;&gt;u4 -->
<g id="edge48" class="edge">
<title>u24&#45;&gt;u4</title>
<path fill="none" stroke="black" d="M2108.14,-1765.38C2297.26,-1709.84 2936.6,-1522.09 3141.9,-1461.81"/>
<polygon fill="black" stroke="black" points="3143.02,-1465.12 3151.63,-1458.95 3141.05,-1458.41 3143.02,-1465.12"/>
</g>
<!-- u2 -->
<g id="node29" class="node">
<title>u2</title>
<ellipse fill="#bbffff" stroke="black" cx="3527.94" cy="-1442" rx="144.87" ry="18"/>
<text text-anchor="middle" x="3527.94" y="-1438.3" font-family="Times,serif" font-size="14.00">Drasil.Sections.TableOfUnits</text>
</g>
<!-- u24&#45;&gt;u2 -->
<g id="edge47" class="edge">
<title>u24&#45;&gt;u2</title>
<path fill="none" stroke="black" d="M2119.65,-1766.15C2359.24,-1711.17 3195.2,-1519.35 3452.19,-1460.38"/>
<polygon fill="black" stroke="black" points="3453.21,-1463.74 3462.17,-1458.09 3451.65,-1456.92 3453.21,-1463.74"/>
</g>
<!-- u22 -->
<g id="node10" class="node">
<title>u22</title>
<ellipse fill="#bbbbff" stroke="black" cx="3070.94" cy="-764" rx="223.66" ry="18"/>
<text text-anchor="middle" x="3070.94" y="-760.3" font-family="Times,serif" font-size="14.00">Drasil.DocumentLanguage.TraceabilityMatrix</text>
</g>
<!-- u16 -->
<g id="node13" class="node">
<title>u16</title>
<ellipse fill="#bbbbff" stroke="black" cx="2046.94" cy="-424" rx="187.37" ry="18"/>
<text text-anchor="middle" x="2046.94" y="-420.3" font-family="Times,serif" font-size="14.00">Drasil.DocumentLanguage.Definitions</text>
</g>
<!-- u22&#45;&gt;u16 -->
<g id="edge37" class="edge">
<title>u22&#45;&gt;u16</title>
<path fill="none" stroke="black" d="M3020.51,-746.35C2849.17,-689.8 2289.88,-505.19 2106.07,-444.52"/>
<polygon fill="black" stroke="black" points="2107.16,-441.19 2096.57,-441.38 2104.97,-447.84 2107.16,-441.19"/>
</g>
<!-- u21&#45;&gt;u22 -->
<g id="edge36" class="edge">
<title>u21&#45;&gt;u22</title>
<path fill="none" stroke="black" d="M3351.85,-1084.82C3303.16,-1029.39 3150.01,-855.03 3092.79,-789.88"/>
<polygon fill="black" stroke="black" points="3095.22,-787.34 3085.99,-782.14 3089.96,-791.96 3095.22,-787.34"/>
</g>
<!-- u20&#45;&gt;u26 -->
<g id="edge35" class="edge">
<title>u20&#45;&gt;u26</title>
<path fill="none" stroke="black" d="M1486.12,-1766.95C1208.38,-1732.15 542,-1632.11 409.94,-1460 264.24,-1270.13 715.71,-1156.73 904.76,-1118.55"/>
<polygon fill="black" stroke="black" points="905.53,-1121.97 914.65,-1116.57 904.16,-1115.1 905.53,-1121.97"/>
</g>
<!-- u10 -->
<g id="node21" class="node">
<title>u10</title>
<ellipse fill="#bbffff" stroke="black" cx="1314.94" cy="-1103" rx="170.07" ry="18"/>
<text text-anchor="middle" x="1314.94" y="-1099.3" font-family="Times,serif" font-size="14.00">Drasil.Sections.ReferenceMaterial</text>
</g>
<!-- u20&#45;&gt;u10 -->
<g id="edge34" class="edge">
<title>u20&#45;&gt;u10</title>
<path fill="none" stroke="black" d="M1559.89,-1764.34C1461.96,-1727.43 1241.14,-1628.45 1153.94,-1460 1090.69,-1337.82 1228.72,-1185.78 1288.8,-1127.88"/>
<polygon fill="black" stroke="black" points="1291.22,-1130.41 1296.06,-1120.98 1286.4,-1125.34 1291.22,-1130.41"/>
</g>
<!-- u20&#45;&gt;u9 -->
<g id="edge33" class="edge">
<title>u20&#45;&gt;u9</title>
<path fill="none" stroke="black" d="M1631.57,-1764.01C1709.3,-1708.1 1957.17,-1529.85 2045.93,-1466.01"/>
<polygon fill="black" stroke="black" points="2048.19,-1468.71 2054.26,-1460.03 2044.1,-1463.02 2048.19,-1468.71"/>
</g>
<!-- u15 -->
<g id="node14" class="node">
<title>u15</title>
<ellipse fill="#bbbbff" stroke="black" cx="1512.94" cy="-85" rx="162.47" ry="18"/>
<text text-anchor="middle" x="1512.94" y="-81.3" font-family="Times,serif" font-size="14.00">Drasil.DocumentLanguage.Units</text>
</g>
<!-- u16&#45;&gt;u15 -->
<g id="edge29" class="edge">
<title>u16&#45;&gt;u15</title>
<path fill="none" stroke="black" d="M2020.09,-406.06C1931.4,-350.09 1647.79,-171.1 1548.04,-108.15"/>
<polygon fill="black" stroke="black" points="1549.85,-105.15 1539.52,-102.78 1546.11,-111.07 1549.85,-105.15"/>
</g>
<!-- u19&#45;&gt;u25 -->
<g id="edge32" class="edge">
<title>u19&#45;&gt;u25</title>
<path fill="none" stroke="black" d="M3847.74,-2102.82C3908.69,-2047.16 4100.92,-1871.61 4171.56,-1807.09"/>
<polygon fill="black" stroke="black" points="4174.15,-1809.47 4179.17,-1800.14 4169.42,-1804.3 4174.15,-1809.47"/>
</g>
<!-- u17 -->
<g id="node17" class="node">
<title>u17</title>
<ellipse fill="#ffbbbb" stroke="black" cx="3828.94" cy="-1782" rx="221.76" ry="18"/>
<text text-anchor="middle" x="3828.94" y="-1778.3" font-family="Times,serif" font-size="14.00">Drasil.DocumentLanguage.Notebook.LsnDecl</text>
</g>
<!-- u19&#45;&gt;u17 -->
<g id="edge31" class="edge">
<title>u19&#45;&gt;u17</title>
<path fill="none" stroke="black" d="M3828.94,-2102.82C3828.94,-2048.06 3828.94,-1877.27 3828.94,-1810.32"/>
<polygon fill="black" stroke="black" points="3832.44,-1810.14 3828.94,-1800.14 3825.44,-1810.14 3832.44,-1810.14"/>
</g>
<!-- u18 -->
<g id="node16" class="node">
<title>u18</title>
<ellipse fill="#ffbbbb" stroke="black" cx="4010.94" cy="-1442" rx="206.06" ry="18"/>
<text text-anchor="middle" x="4010.94" y="-1438.3" font-family="Times,serif" font-size="14.00">Drasil.DocumentLanguage.Notebook.Core</text>
</g>
<!-- u17&#45;&gt;u18 -->
<g id="edge30" class="edge">
<title>u17&#45;&gt;u18</title>
<path fill="none" stroke="black" d="M3838.21,-1763.77C3867.97,-1708.51 3961.17,-1535.43 3996.85,-1469.17"/>
<polygon fill="black" stroke="black" points="4000.02,-1470.66 4001.68,-1460.19 3993.86,-1467.34 4000.02,-1470.66"/>
</g>
<!-- u13&#45;&gt;u26 -->
<g id="edge26" class="edge">
<title>u13&#45;&gt;u26</title>
<path fill="none" stroke="black" d="M937.43,-1423.82C945.4,-1369.06 970.23,-1198.27 979.96,-1131.32"/>
<polygon fill="black" stroke="black" points="983.47,-1131.54 981.44,-1121.14 976.54,-1130.53 983.47,-1131.54"/>
</g>
<!-- u13&#45;&gt;u15 -->
<g id="edge25" class="edge">
<title>u13&#45;&gt;u15</title>
<path fill="none" stroke="black" d="M944.32,-1423.92C970.23,-1376.53 1044.32,-1239.08 1097.94,-1121 1277.01,-726.63 1460.05,-231.06 1503.35,-112.39"/>
<polygon fill="black" stroke="black" points="1506.64,-113.58 1506.78,-102.99 1500.07,-111.19 1506.64,-113.58"/>
</g>
<!-- u13&#45;&gt;u10 -->
<g id="edge24" class="edge">
<title>u13&#45;&gt;u10</title>
<path fill="none" stroke="black" d="M954.04,-1424.06C1016.5,-1368.67 1214.82,-1192.79 1287.71,-1128.14"/>
<polygon fill="black" stroke="black" points="1290.41,-1130.43 1295.57,-1121.18 1285.76,-1125.19 1290.41,-1130.43"/>
</g>
<!-- u12&#45;&gt;u26 -->
<g id="edge23" class="edge">
<title>u12&#45;&gt;u26</title>
<path fill="none" stroke="black" d="M1696.3,-1424.52C1571.82,-1368.51 1165.29,-1185.6 1028.96,-1124.26"/>
<polygon fill="black" stroke="black" points="1030.18,-1120.97 1019.62,-1120.06 1027.31,-1127.35 1030.18,-1120.97"/>
</g>
<!-- u12&#45;&gt;u15 -->
<g id="edge22" class="edge">
<title>u12&#45;&gt;u15</title>
<path fill="none" stroke="black" d="M1730.16,-1423.87C1706.99,-1281.18 1546.22,-291.02 1517.37,-113.29"/>
<polygon fill="black" stroke="black" points="1520.79,-112.52 1515.73,-103.21 1513.88,-113.64 1520.79,-112.52"/>
</g>
<!-- u12&#45;&gt;u10 -->
<g id="edge21" class="edge">
<title>u12&#45;&gt;u10</title>
<path fill="none" stroke="black" d="M1711.92,-1424.06C1643,-1368.49 1423.68,-1191.67 1344.12,-1127.53"/>
<polygon fill="black" stroke="black" points="1345.98,-1124.53 1335.99,-1120.98 1341.58,-1129.98 1345.98,-1124.53"/>
</g>
<!-- u11&#45;&gt;u26 -->
<g id="edge20" class="edge">
<title>u11&#45;&gt;u26</title>
<path fill="none" stroke="black" d="M2786.38,-1426.41C2476.14,-1370.92 1371.55,-1173.33 1063.95,-1118.31"/>
<polygon fill="black" stroke="black" points="1064.24,-1114.81 1053.78,-1116.49 1063.01,-1121.7 1064.24,-1114.81"/>
</g>
<!-- u11&#45;&gt;u21 -->
<g id="edge19" class="edge">
<title>u11&#45;&gt;u21</title>
<path fill="none" stroke="black" d="M2893.02,-1424.06C2975.64,-1368.26 3239.25,-1190.23 3333.24,-1126.75"/>
<polygon fill="black" stroke="black" points="3335.47,-1129.47 3341.8,-1120.98 3331.55,-1123.67 3335.47,-1129.47"/>
</g>
<!-- u9&#45;&gt;u21 -->
<g id="edge18" class="edge">
<title>u9&#45;&gt;u21</title>
<path fill="none" stroke="black" d="M2138.81,-1425.09C2352.71,-1369.16 3069.2,-1181.84 3296.86,-1122.32"/>
<polygon fill="black" stroke="black" points="3297.9,-1125.67 3306.69,-1119.75 3296.13,-1118.89 3297.9,-1125.67"/>
</g>
<!-- u8&#45;&gt;u10 -->
<g id="edge17" class="edge">
<title>u8&#45;&gt;u10</title>
<path fill="none" stroke="black" d="M1361.44,-1423.82C1353.48,-1369.06 1328.64,-1198.27 1318.91,-1131.32"/>
<polygon fill="black" stroke="black" points="1322.33,-1130.53 1317.43,-1121.14 1315.4,-1131.54 1322.33,-1130.53"/>
</g>
<!-- u7&#45;&gt;u26 -->
<g id="edge16" class="edge">
<title>u7&#45;&gt;u26</title>
<path fill="none" stroke="black" d="M2409.99,-1425.03C2157.86,-1368.27 1306.73,-1176.67 1054.77,-1119.95"/>
<polygon fill="black" stroke="black" points="1055.17,-1116.45 1044.65,-1117.67 1053.63,-1123.28 1055.17,-1116.45"/>
</g>
<!-- u7&#45;&gt;u16 -->
<g id="edge15" class="edge">
<title>u7&#45;&gt;u16</title>
<path fill="none" stroke="black" d="M2473.59,-1423.79C2422.57,-1304.36 2121.42,-599.36 2058.47,-451.99"/>
<polygon fill="black" stroke="black" points="2061.5,-450.18 2054.35,-442.36 2055.06,-452.93 2061.5,-450.18"/>
</g>
<!-- u7&#45;&gt;u10 -->
<g id="edge14" class="edge">
<title>u7&#45;&gt;u10</title>
<path fill="none" stroke="black" d="M2424.3,-1424.63C2229.56,-1368.35 1588.03,-1182.93 1380.4,-1122.92"/>
<polygon fill="black" stroke="black" points="1381.13,-1119.49 1370.55,-1120.07 1379.19,-1126.21 1381.13,-1119.49"/>
</g>
<!-- u6&#45;&gt;u26 -->
<g id="edge13" class="edge">
<title>u6&#45;&gt;u26</title>
<path fill="none" stroke="black" d="M258.25,-1424.52C385.06,-1368.51 799.19,-1185.6 938.07,-1124.26"/>
<polygon fill="black" stroke="black" points="939.85,-1127.3 947.58,-1120.06 937.02,-1120.9 939.85,-1127.3"/>
</g>
<!-- u6&#45;&gt;u16 -->
<g id="edge12" class="edge">
<title>u6&#45;&gt;u16</title>
<path fill="none" stroke="black" d="M251.11,-1424.21C466.17,-1304.55 1765.15,-581.79 2007.88,-446.73"/>
<polygon fill="black" stroke="black" points="2009.68,-449.73 2016.72,-441.81 2006.28,-443.62 2009.68,-449.73"/>
</g>
<!-- u6&#45;&gt;u10 -->
<g id="edge11" class="edge">
<title>u6&#45;&gt;u10</title>
<path fill="none" stroke="black" d="M272.24,-1425.2C452.53,-1369.66 1056.78,-1183.52 1252.9,-1123.11"/>
<polygon fill="black" stroke="black" points="1253.95,-1126.45 1262.48,-1120.16 1251.89,-1119.76 1253.95,-1126.45"/>
</g>
<!-- u5&#45;&gt;u26 -->
<g id="edge10" class="edge">
<title>u5&#45;&gt;u26</title>
<path fill="none" stroke="black" d="M132.95,-1763.87C96.13,-1708.92 -8.3,-1534.28 69.94,-1424 254.68,-1163.57 668.35,-1113.43 869.61,-1104.9"/>
<polygon fill="black" stroke="black" points="869.76,-1108.4 879.61,-1104.5 869.48,-1101.4 869.76,-1108.4"/>
</g>
<!-- u4&#45;&gt;u21 -->
<g id="edge9" class="edge">
<title>u4&#45;&gt;u21</title>
<path fill="none" stroke="black" d="M3214.14,-1423.82C3240.41,-1368.84 3322.57,-1196.86 3354.28,-1130.5"/>
<polygon fill="black" stroke="black" points="3357.6,-1131.67 3358.75,-1121.14 3351.28,-1128.65 3357.6,-1131.67"/>
</g>
<!-- u4&#45;&gt;u10 -->
<g id="edge8" class="edge">
<title>u4&#45;&gt;u10</title>
<path fill="none" stroke="black" d="M3124.68,-1426.52C2818.13,-1371.89 1732.7,-1178.45 1407.61,-1120.52"/>
<polygon fill="black" stroke="black" points="1408.21,-1117.07 1397.75,-1118.76 1406.98,-1123.96 1408.21,-1117.07"/>
</g>
<!-- u3&#45;&gt;u26 -->
<g id="edge7" class="edge">
<title>u3&#45;&gt;u26</title>
<path fill="none" stroke="black" d="M602.15,-1424.06C668.51,-1368.42 879.85,-1191.26 956.14,-1127.31"/>
<polygon fill="black" stroke="black" points="958.51,-1129.88 963.92,-1120.78 954.01,-1124.52 958.51,-1129.88"/>
</g>
<!-- u3&#45;&gt;u10 -->
<g id="edge6" class="edge">
<title>u3&#45;&gt;u10</title>
<path fill="none" stroke="black" d="M618.29,-1424.29C740.3,-1368.19 1135.08,-1186.69 1269.58,-1124.86"/>
<polygon fill="black" stroke="black" points="1271.18,-1127.97 1278.8,-1120.61 1268.25,-1121.61 1271.18,-1127.97"/>
</g>
<!-- u2&#45;&gt;u21 -->
<g id="edge5" class="edge">
<title>u2&#45;&gt;u21</title>
<path fill="none" stroke="black" d="M3519.73,-1423.82C3493.46,-1368.84 3411.3,-1196.86 3379.6,-1130.5"/>
<polygon fill="black" stroke="black" points="3382.59,-1128.65 3375.13,-1121.14 3376.28,-1131.67 3382.59,-1128.65"/>
</g>
<!-- u2&#45;&gt;u10 -->
<g id="edge4" class="edge">
<title>u2&#45;&gt;u10</title>
<path fill="none" stroke="black" d="M3440.16,-1427.63C3089.96,-1374.3 1793.51,-1176.88 1417.67,-1119.65"/>
<polygon fill="black" stroke="black" points="1418.04,-1116.16 1407.63,-1118.12 1416.99,-1123.08 1418.04,-1116.16"/>
</g>
</g>
</svg>
