<?xml version="1.0" encoding="UTF-8" standalone="no"?>
<!DOCTYPE svg PUBLIC "-//W3C//DTD SVG 1.1//EN"
 "http://www.w3.org/Graphics/SVG/1.1/DTD/svg11.dtd">
<!-- Generated by graphviz version 2.43.0 (0)
 -->
<!-- Title: G Pages: 1 -->
<svg width="432pt" height="281pt"
 viewBox="0.00 0.00 432.00 281.16" xmlns="http://www.w3.org/2000/svg" xmlns:xlink="http://www.w3.org/1999/xlink">
<g id="graph0" class="graph" transform="scale(9.68 9.68) rotate(0) translate(4 2718)">
<title>G</title>
<polygon fill="white" stroke="transparent" points="-4,4 -4,-2718 4178.37,-2718 4178.37,4 -4,4"/>
<!-- u25 -->
<g id="node1" class="node">
<title>u25</title>
<ellipse fill="#bbffbb" stroke="black" cx="2870.73" cy="-2634" rx="108.58" ry="18"/>
<text text-anchor="middle" x="2870.73" y="-2630.3" font-family="Times,serif" font-size="14.00">Drasil.SRSDocument</text>
</g>
<!-- u10 -->
<g id="node4" class="node">
<title>u10</title>
<ellipse fill="#bbffbb" stroke="black" cx="2870.73" cy="-2315" rx="81.79" ry="18"/>
<text text-anchor="middle" x="2870.73" y="-2311.3" font-family="Times,serif" font-size="14.00">Drasil.DocLang</text>
</g>
<!-- u25&#45;&gt;u10 -->
<g id="edge49" class="edge">
<title>u25&#45;&gt;u10</title>
<path fill="none" stroke="black" d="M2870.73,-2615.96C2870.73,-2563.93 2870.73,-2406.82 2870.73,-2343.19"/>
<polygon fill="black" stroke="black" points="2874.24,-2343.13 2870.73,-2333.13 2867.24,-2343.13 2874.24,-2343.13"/>
</g>
<!-- u24 -->
<g id="node2" class="node">
<title>u24</title>
<ellipse fill="#bbffbb" stroke="black" cx="2600.73" cy="-1996" rx="133.78" ry="18"/>
<text text-anchor="middle" x="2600.73" y="-1992.3" font-family="Times,serif" font-size="14.00">Drasil.DocumentLanguage</text>
</g>
<!-- u23 -->
<g id="node3" class="node">
<title>u23</title>
<ellipse fill="#bbffbb" stroke="black" cx="954.73" cy="-1676" rx="116.18" ry="18"/>
<text text-anchor="middle" x="954.73" y="-1672.3" font-family="Times,serif" font-size="14.00">Drasil.ExtractDocDesc</text>
</g>
<!-- u24&#45;&gt;u23 -->
<g id="edge47" class="edge">
<title>u24&#45;&gt;u23</title>
<path fill="none" stroke="black" d="M2527.62,-1980.87C2257.3,-1928.65 1315.57,-1746.71 1034.52,-1692.41"/>
<polygon fill="black" stroke="black" points="1034.89,-1688.92 1024.4,-1690.46 1033.56,-1695.79 1034.89,-1688.92"/>
</g>
<!-- u9 -->
<g id="node5" class="node">
<title>u9</title>
<ellipse fill="#bbffbb" stroke="black" cx="1254.73" cy="-1676" rx="92.08" ry="18"/>
<text text-anchor="middle" x="1254.73" y="-1672.3" font-family="Times,serif" font-size="14.00">Drasil.TraceTable</text>
</g>
<!-- u24&#45;&gt;u9 -->
<g id="edge42" class="edge">
<title>u24&#45;&gt;u9</title>
<path fill="none" stroke="black" d="M2537.62,-1980.09C2312.67,-1926.94 1551.28,-1747.06 1321.16,-1692.69"/>
<polygon fill="black" stroke="black" points="1321.79,-1689.24 1311.25,-1690.35 1320.18,-1696.06 1321.79,-1689.24"/>
</g>
<!-- u8 -->
<g id="node6" class="node">
<title>u8</title>
<ellipse fill="#bbffbb" stroke="black" cx="1516.73" cy="-1676" rx="79.09" ry="18"/>
<text text-anchor="middle" x="1516.73" y="-1672.3" font-family="Times,serif" font-size="14.00">Drasil.DocDecl</text>
</g>
<!-- u24&#45;&gt;u8 -->
<g id="edge41" class="edge">
<title>u24&#45;&gt;u8</title>
<path fill="none" stroke="black" d="M2547.72,-1979.45C2364.71,-1925.76 1760.45,-1748.5 1572.82,-1693.45"/>
<polygon fill="black" stroke="black" points="1573.73,-1690.07 1563.15,-1690.62 1571.76,-1696.79 1573.73,-1690.07"/>
</g>
<!-- u27 -->
<g id="node8" class="node">
<title>u27</title>
<ellipse fill="#ffffbb" stroke="black" cx="1750.73" cy="-1676" rx="136.48" ry="18"/>
<text text-anchor="middle" x="1750.73" y="-1672.3" font-family="Times,serif" font-size="14.00">Drasil.DocLang.References</text>
</g>
<!-- u24&#45;&gt;u27 -->
<g id="edge48" class="edge">
<title>u24&#45;&gt;u27</title>
<path fill="none" stroke="black" d="M2557.71,-1978.9C2415.3,-1925.62 1959.47,-1755.09 1803.59,-1696.77"/>
<polygon fill="black" stroke="black" points="1804.35,-1693.32 1793.76,-1693.1 1801.9,-1699.88 1804.35,-1693.32"/>
</g>
<!-- u5 -->
<g id="node12" class="node">
<title>u5</title>
<ellipse fill="#bbbbff" stroke="black" cx="2305.73" cy="-1676" rx="220.96" ry="18"/>
<text text-anchor="middle" x="2305.73" y="-1672.3" font-family="Times,serif" font-size="14.00">Drasil.DocumentLanguage.TraceabilityGraph</text>
</g>
<!-- u24&#45;&gt;u5 -->
<g id="edge40" class="edge">
<title>u24&#45;&gt;u5</title>
<path fill="none" stroke="black" d="M2584.87,-1977.9C2535.75,-1924.95 2386,-1763.52 2328.53,-1701.57"/>
<polygon fill="black" stroke="black" points="2331.04,-1699.13 2321.67,-1694.18 2325.91,-1703.89 2331.04,-1699.13"/>
</g>
<!-- u22 -->
<g id="node18" class="node">
<title>u22</title>
<ellipse fill="#bbffff" stroke="black" cx="3231.73" cy="-1357" rx="163.27" ry="18"/>
<text text-anchor="middle" x="3231.73" y="-1353.3" font-family="Times,serif" font-size="14.00">Drasil.Sections.GeneralSystDesc</text>
</g>
<!-- u24&#45;&gt;u22 -->
<g id="edge46" class="edge">
<title>u24&#45;&gt;u22</title>
<path fill="none" stroke="black" d="M2617.61,-1977.96C2704.9,-1889.85 3104.99,-1485.95 3207.66,-1382.3"/>
<polygon fill="black" stroke="black" points="3210.25,-1384.66 3214.81,-1375.09 3205.28,-1379.73 3210.25,-1384.66"/>
</g>
<!-- u20 -->
<g id="node20" class="node">
<title>u20</title>
<ellipse fill="#bbffff" stroke="black" cx="2889.73" cy="-1357" rx="161.37" ry="18"/>
<text text-anchor="middle" x="2889.73" y="-1353.3" font-family="Times,serif" font-size="14.00">Drasil.Sections.TableOfContents</text>
</g>
<!-- u24&#45;&gt;u20 -->
<g id="edge45" class="edge">
<title>u24&#45;&gt;u20</title>
<path fill="none" stroke="black" d="M2608.47,-1977.96C2648.2,-1890.38 2829.49,-1490.79 2877.85,-1384.2"/>
<polygon fill="black" stroke="black" points="2881.04,-1385.64 2881.98,-1375.09 2874.66,-1382.75 2881.04,-1385.64"/>
</g>
<!-- u13 -->
<g id="node27" class="node">
<title>u13</title>
<ellipse fill="#bbffff" stroke="black" cx="3592.73" cy="-1357" rx="141.88" ry="18"/>
<text text-anchor="middle" x="3592.73" y="-1353.3" font-family="Times,serif" font-size="14.00">Drasil.Sections.Introduction</text>
</g>
<!-- u24&#45;&gt;u13 -->
<g id="edge44" class="edge">
<title>u24&#45;&gt;u13</title>
<path fill="none" stroke="black" d="M2667.04,-1980.34C2803.48,-1947.67 3120.84,-1858.47 3335.73,-1694 3453.65,-1603.75 3545.61,-1446.48 3579.07,-1384.34"/>
<polygon fill="black" stroke="black" points="3582.32,-1385.68 3583.93,-1375.21 3576.14,-1382.39 3582.32,-1385.68"/>
</g>
<!-- u12 -->
<g id="node28" class="node">
<title>u12</title>
<ellipse fill="#bbffff" stroke="black" cx="3181.73" cy="-1676" rx="144.87" ry="18"/>
<text text-anchor="middle" x="3181.73" y="-1672.3" font-family="Times,serif" font-size="14.00">Drasil.Sections.Stakeholders</text>
</g>
<!-- u24&#45;&gt;u12 -->
<g id="edge43" class="edge">
<title>u24&#45;&gt;u12</title>
<path fill="none" stroke="black" d="M2631.15,-1978.35C2728.6,-1925.02 3032.99,-1758.41 3142.22,-1698.63"/>
<polygon fill="black" stroke="black" points="3144.18,-1701.55 3151.27,-1693.68 3140.81,-1695.41 3144.18,-1701.55"/>
</g>
<!-- u7 -->
<g id="node10" class="node">
<title>u7</title>
<ellipse fill="#bbbbff" stroke="black" cx="422.73" cy="-1038" rx="159.47" ry="18"/>
<text text-anchor="middle" x="422.73" y="-1034.3" font-family="Times,serif" font-size="14.00">Drasil.DocumentLanguage.Core</text>
</g>
<!-- u23&#45;&gt;u7 -->
<g id="edge38" class="edge">
<title>u23&#45;&gt;u7</title>
<path fill="none" stroke="black" d="M878.97,-1662.25C675.72,-1626.36 126.72,-1517.7 22.73,-1375 -84.71,-1227.54 223.72,-1104.35 360.77,-1058.34"/>
<polygon fill="black" stroke="black" points="361.94,-1061.64 370.33,-1055.17 359.73,-1055 361.94,-1061.64"/>
</g>
<!-- u19 -->
<g id="node21" class="node">
<title>u19</title>
<ellipse fill="#bbffff" stroke="black" cx="954.73" cy="-1357" rx="207.96" ry="18"/>
<text text-anchor="middle" x="954.73" y="-1353.3" font-family="Times,serif" font-size="14.00">Drasil.Sections.SpecificSystemDescription</text>
</g>
<!-- u23&#45;&gt;u19 -->
<g id="edge39" class="edge">
<title>u23&#45;&gt;u19</title>
<path fill="none" stroke="black" d="M954.73,-1657.96C954.73,-1605.93 954.73,-1448.82 954.73,-1385.19"/>
<polygon fill="black" stroke="black" points="958.24,-1385.13 954.73,-1375.13 951.24,-1385.13 958.24,-1385.13"/>
</g>
<!-- u10&#45;&gt;u24 -->
<g id="edge14" class="edge">
<title>u10&#45;&gt;u24</title>
<path fill="none" stroke="black" d="M2856.22,-2296.96C2811.35,-2244.28 2674.76,-2083.91 2621.92,-2021.87"/>
<polygon fill="black" stroke="black" points="2624.47,-2019.47 2615.32,-2014.13 2619.14,-2024.01 2624.47,-2019.47"/>
</g>
<!-- u1 -->
<g id="node16" class="node">
<title>u1</title>
<ellipse fill="#ffbbbb" stroke="black" cx="3573.73" cy="-1996" rx="276.75" ry="18"/>
<text text-anchor="middle" x="3573.73" y="-1992.3" font-family="Times,serif" font-size="14.00">Drasil.DocumentLanguage.Notebook.DocumentLanguage</text>
</g>
<!-- u10&#45;&gt;u1 -->
<g id="edge13" class="edge">
<title>u10&#45;&gt;u1</title>
<path fill="none" stroke="black" d="M2905.12,-2298.5C3020.49,-2246.47 3394.01,-2078.04 3526.55,-2018.28"/>
<polygon fill="black" stroke="black" points="3528.37,-2021.3 3536.04,-2014 3525.49,-2014.92 3528.37,-2021.3"/>
</g>
<!-- u9&#45;&gt;u7 -->
<g id="edge12" class="edge">
<title>u9&#45;&gt;u7</title>
<path fill="none" stroke="black" d="M1173.83,-1667.34C928.32,-1642.26 200.14,-1553.76 60.73,-1375 -46.03,-1238.09 242.54,-1107.56 367.88,-1058.97"/>
<polygon fill="black" stroke="black" points="369.25,-1062.19 377.33,-1055.34 366.74,-1055.66 369.25,-1062.19"/>
</g>
<!-- u8&#45;&gt;u7 -->
<g id="edge10" class="edge">
<title>u8&#45;&gt;u7</title>
<path fill="none" stroke="black" d="M1450.51,-1665.98C1181.65,-1628.69 181.76,-1483.52 93.73,-1375 -10.69,-1246.26 257.49,-1110.37 372.92,-1059.66"/>
<polygon fill="black" stroke="black" points="374.5,-1062.79 382.28,-1055.59 371.71,-1056.37 374.5,-1062.79"/>
</g>
<!-- u21 -->
<g id="node19" class="node">
<title>u21</title>
<ellipse fill="#bbffff" stroke="black" cx="1750.73" cy="-1357" rx="149.47" ry="18"/>
<text text-anchor="middle" x="1750.73" y="-1353.3" font-family="Times,serif" font-size="14.00">Drasil.Sections.Requirements</text>
</g>
<!-- u8&#45;&gt;u21 -->
<g id="edge11" class="edge">
<title>u8&#45;&gt;u21</title>
<path fill="none" stroke="black" d="M1529.32,-1657.96C1568.12,-1605.39 1686.1,-1445.56 1732.1,-1383.25"/>
<polygon fill="black" stroke="black" points="1734.97,-1385.25 1738.09,-1375.13 1729.34,-1381.09 1734.97,-1385.25"/>
</g>
<!-- u28 -->
<g id="node7" class="node">
<title>u28</title>
<ellipse fill="#ffffbb" stroke="black" cx="2794.73" cy="-1038" rx="104.78" ry="18"/>
<text text-anchor="middle" x="2794.73" y="-1034.3" font-family="Times,serif" font-size="14.00">Drasil.DocLang.SRS</text>
</g>
<!-- u27&#45;&gt;u21 -->
<g id="edge56" class="edge">
<title>u27&#45;&gt;u21</title>
<path fill="none" stroke="black" d="M1750.73,-1657.96C1750.73,-1605.93 1750.73,-1448.82 1750.73,-1385.19"/>
<polygon fill="black" stroke="black" points="1754.24,-1385.13 1750.73,-1375.13 1747.24,-1385.13 1754.24,-1385.13"/>
</g>
<!-- u27&#45;&gt;u19 -->
<g id="edge55" class="edge">
<title>u27&#45;&gt;u19</title>
<path fill="none" stroke="black" d="M1709.89,-1658.73C1576.42,-1605.58 1153.25,-1437.06 1005.91,-1378.38"/>
<polygon fill="black" stroke="black" points="1007.2,-1375.13 996.61,-1374.68 1004.61,-1381.63 1007.2,-1375.13"/>
</g>
<!-- u18 -->
<g id="node22" class="node">
<title>u18</title>
<ellipse fill="#bbffff" stroke="black" cx="261.73" cy="-1357" rx="159.47" ry="18"/>
<text text-anchor="middle" x="261.73" y="-1353.3" font-family="Times,serif" font-size="14.00">Drasil.Sections.TableOfSymbols</text>
</g>
<!-- u27&#45;&gt;u18 -->
<g id="edge54" class="edge">
<title>u27&#45;&gt;u18</title>
<path fill="none" stroke="black" d="M1681.9,-1660.35C1436.69,-1608.14 606.32,-1431.36 342.74,-1375.25"/>
<polygon fill="black" stroke="black" points="343.36,-1371.8 332.85,-1373.14 341.91,-1378.65 343.36,-1371.8"/>
</g>
<!-- u17 -->
<g id="node23" class="node">
<title>u17</title>
<ellipse fill="#bbffff" stroke="black" cx="1381.73" cy="-1357" rx="201.46" ry="18"/>
<text text-anchor="middle" x="1381.73" y="-1353.3" font-family="Times,serif" font-size="14.00">Drasil.Sections.TableOfAbbAndAcronyms</text>
</g>
<!-- u27&#45;&gt;u17 -->
<g id="edge53" class="edge">
<title>u27&#45;&gt;u17</title>
<path fill="none" stroke="black" d="M1731.16,-1658.18C1669.75,-1605.43 1480.81,-1443.11 1409.43,-1381.79"/>
<polygon fill="black" stroke="black" points="1411.58,-1379.03 1401.72,-1375.16 1407.02,-1384.34 1411.58,-1379.03"/>
</g>
<!-- u15 -->
<g id="node25" class="node">
<title>u15</title>
<ellipse fill="#bbffff" stroke="black" cx="2500.73" cy="-1357" rx="172.47" ry="18"/>
<text text-anchor="middle" x="2500.73" y="-1353.3" font-family="Times,serif" font-size="14.00">Drasil.Sections.AuxiliaryConstants</text>
</g>
<!-- u27&#45;&gt;u15 -->
<g id="edge52" class="edge">
<title>u27&#45;&gt;u15</title>
<path fill="none" stroke="black" d="M1789.48,-1658.62C1915.29,-1605.45 2312.29,-1437.65 2451.73,-1378.71"/>
<polygon fill="black" stroke="black" points="2453.47,-1381.78 2461.32,-1374.66 2450.75,-1375.33 2453.47,-1381.78"/>
</g>
<!-- u14 -->
<g id="node26" class="node">
<title>u14</title>
<ellipse fill="#bbffff" stroke="black" cx="583.73" cy="-1357" rx="144.87" ry="18"/>
<text text-anchor="middle" x="583.73" y="-1353.3" font-family="Times,serif" font-size="14.00">Drasil.Sections.TableOfUnits</text>
</g>
<!-- u27&#45;&gt;u14 -->
<g id="edge51" class="edge">
<title>u27&#45;&gt;u14</title>
<path fill="none" stroke="black" d="M1694.05,-1659.6C1499.7,-1606.81 860.75,-1433.25 651.06,-1376.29"/>
<polygon fill="black" stroke="black" points="651.67,-1372.83 641.11,-1373.58 649.84,-1379.58 651.67,-1372.83"/>
</g>
<!-- u11 -->
<g id="node29" class="node">
<title>u11</title>
<ellipse fill="#bbffff" stroke="black" cx="2095.73" cy="-1357" rx="177.37" ry="18"/>
<text text-anchor="middle" x="2095.73" y="-1353.3" font-family="Times,serif" font-size="14.00">Drasil.Sections.TraceabilityMandGs</text>
</g>
<!-- u27&#45;&gt;u11 -->
<g id="edge50" class="edge">
<title>u27&#45;&gt;u11</title>
<path fill="none" stroke="black" d="M1769.28,-1657.96C1826.85,-1605.07 2002.58,-1443.6 2069.49,-1382.12"/>
<polygon fill="black" stroke="black" points="2072.1,-1384.47 2077.09,-1375.13 2067.36,-1379.32 2072.1,-1384.47"/>
</g>
<!-- u26 -->
<g id="node9" class="node">
<title>u26</title>
<ellipse fill="#ffffbb" stroke="black" cx="3573.73" cy="-1676" rx="129.18" ry="18"/>
<text text-anchor="middle" x="3573.73" y="-1672.3" font-family="Times,serif" font-size="14.00">Drasil.DocLang.Notebook</text>
</g>
<!-- u3 -->
<g id="node14" class="node">
<title>u3</title>
<ellipse fill="#bbbbff" stroke="black" cx="838.73" cy="-718" rx="223.66" ry="18"/>
<text text-anchor="middle" x="838.73" y="-714.3" font-family="Times,serif" font-size="14.00">Drasil.DocumentLanguage.TraceabilityMatrix</text>
</g>
<!-- u7&#45;&gt;u3 -->
<g id="edge9" class="edge">
<title>u7&#45;&gt;u3</title>
<path fill="none" stroke="black" d="M444.81,-1020.13C514.25,-967.04 728.4,-803.34 808.28,-742.28"/>
<polygon fill="black" stroke="black" points="810.64,-744.88 816.46,-736.02 806.39,-739.32 810.64,-744.88"/>
</g>
<!-- u6 -->
<g id="node11" class="node">
<title>u6</title>
<ellipse fill="#bbbbff" stroke="black" cx="1344.73" cy="-399" rx="187.37" ry="18"/>
<text text-anchor="middle" x="1344.73" y="-395.3" font-family="Times,serif" font-size="14.00">Drasil.DocumentLanguage.Definitions</text>
</g>
<!-- u4 -->
<g id="node13" class="node">
<title>u4</title>
<ellipse fill="#bbbbff" stroke="black" cx="1849.73" cy="-80" rx="162.47" ry="18"/>
<text text-anchor="middle" x="1849.73" y="-76.3" font-family="Times,serif" font-size="14.00">Drasil.DocumentLanguage.Units</text>
</g>
<!-- u6&#45;&gt;u4 -->
<g id="edge8" class="edge">
<title>u6&#45;&gt;u4</title>
<path fill="none" stroke="black" d="M1371.53,-381.18C1456.27,-327.98 1718.52,-163.37 1814.27,-103.26"/>
<polygon fill="black" stroke="black" points="1816.4,-106.06 1823.01,-97.78 1812.67,-100.13 1816.4,-106.06"/>
</g>
<!-- u5&#45;&gt;u28 -->
<g id="edge7" class="edge">
<title>u5&#45;&gt;u28</title>
<path fill="none" stroke="black" d="M2337.55,-1658.15C2409.45,-1618.49 2585.69,-1512.15 2681.73,-1375 2752.17,-1274.42 2781.45,-1126.52 2790.95,-1066.16"/>
<polygon fill="black" stroke="black" points="2794.41,-1066.67 2792.45,-1056.26 2787.49,-1065.63 2794.41,-1066.67"/>
</g>
<!-- u16 -->
<g id="node24" class="node">
<title>u16</title>
<ellipse fill="#bbffff" stroke="black" cx="1651.73" cy="-1038" rx="170.07" ry="18"/>
<text text-anchor="middle" x="1651.73" y="-1034.3" font-family="Times,serif" font-size="14.00">Drasil.Sections.ReferenceMaterial</text>
</g>
<!-- u5&#45;&gt;u16 -->
<g id="edge6" class="edge">
<title>u5&#45;&gt;u16</title>
<path fill="none" stroke="black" d="M2310.05,-1657.71C2322.22,-1604.63 2351.62,-1441.41 2281.73,-1339 2159.12,-1159.32 1898.55,-1084.11 1753.89,-1055.21"/>
<polygon fill="black" stroke="black" points="1754.17,-1051.7 1743.68,-1053.21 1752.82,-1058.57 1754.17,-1051.7"/>
</g>
<!-- u5&#45;&gt;u11 -->
<g id="edge5" class="edge">
<title>u5&#45;&gt;u11</title>
<path fill="none" stroke="black" d="M2294.44,-1657.96C2259.69,-1605.5 2154.17,-1446.21 2112.72,-1383.63"/>
<polygon fill="black" stroke="black" points="2115.52,-1381.53 2107.08,-1375.13 2109.69,-1385.4 2115.52,-1381.53"/>
</g>
<!-- u3&#45;&gt;u6 -->
<g id="edge4" class="edge">
<title>u3&#45;&gt;u6</title>
<path fill="none" stroke="black" d="M865.94,-699.96C951.15,-646.57 1212.92,-482.58 1308.94,-422.42"/>
<polygon fill="black" stroke="black" points="1311.09,-425.21 1317.7,-416.93 1307.37,-419.28 1311.09,-425.21"/>
</g>
<!-- u2 -->
<g id="node15" class="node">
<title>u2</title>
<ellipse fill="#ffbbbb" stroke="black" cx="3958.73" cy="-1357" rx="206.06" ry="18"/>
<text text-anchor="middle" x="3958.73" y="-1353.3" font-family="Times,serif" font-size="14.00">Drasil.DocumentLanguage.Notebook.Core</text>
</g>
<!-- u1&#45;&gt;u26 -->
<g id="edge3" class="edge">
<title>u1&#45;&gt;u26</title>
<path fill="none" stroke="black" d="M3573.73,-1977.9C3573.73,-1925.71 3573.73,-1768.1 3573.73,-1704.28"/>
<polygon fill="black" stroke="black" points="3577.24,-1704.18 3573.73,-1694.18 3570.24,-1704.18 3577.24,-1704.18"/>
</g>
<!-- u0 -->
<g id="node17" class="node">
<title>u0</title>
<ellipse fill="#ffbbbb" stroke="black" cx="3952.73" cy="-1676" rx="221.76" ry="18"/>
<text text-anchor="middle" x="3952.73" y="-1672.3" font-family="Times,serif" font-size="14.00">Drasil.DocumentLanguage.Notebook.LsnDecl</text>
</g>
<!-- u1&#45;&gt;u0 -->
<g id="edge2" class="edge">
<title>u1&#45;&gt;u0</title>
<path fill="none" stroke="black" d="M3594.11,-1977.9C3657.48,-1924.74 3851.18,-1762.21 3924.35,-1700.82"/>
<polygon fill="black" stroke="black" points="3926.85,-1703.29 3932.26,-1694.18 3922.35,-1697.93 3926.85,-1703.29"/>
</g>
<!-- u0&#45;&gt;u2 -->
<g id="edge1" class="edge">
<title>u0&#45;&gt;u2</title>
<path fill="none" stroke="black" d="M3953.06,-1657.96C3954.04,-1605.93 3957.02,-1448.82 3958.22,-1385.19"/>
<polygon fill="black" stroke="black" points="3961.72,-1385.19 3958.41,-1375.13 3954.72,-1385.06 3961.72,-1385.19"/>
</g>
<!-- u22&#45;&gt;u28 -->
<g id="edge37" class="edge">
<title>u22&#45;&gt;u28</title>
<path fill="none" stroke="black" d="M3208.55,-1339.18C3135.35,-1286.08 2909.13,-1121.98 2825.89,-1061.6"/>
<polygon fill="black" stroke="black" points="2827.75,-1058.63 2817.6,-1055.59 2823.64,-1064.29 2827.75,-1058.63"/>
</g>
<!-- u22&#45;&gt;u16 -->
<g id="edge36" class="edge">
<title>u22&#45;&gt;u16</title>
<path fill="none" stroke="black" d="M3156.86,-1340.98C2894.28,-1288.3 2016.2,-1112.12 1737.44,-1056.19"/>
<polygon fill="black" stroke="black" points="1737.87,-1052.71 1727.38,-1054.18 1736.5,-1059.58 1737.87,-1052.71"/>
</g>
<!-- u21&#45;&gt;u28 -->
<g id="edge35" class="edge">
<title>u21&#45;&gt;u28</title>
<path fill="none" stroke="black" d="M1803.22,-1340.06C1979.62,-1286.5 2550.45,-1113.18 2735.93,-1056.86"/>
<polygon fill="black" stroke="black" points="2736.96,-1060.2 2745.51,-1053.95 2734.92,-1053.5 2736.96,-1060.2"/>
</g>
<!-- u21&#45;&gt;u4 -->
<g id="edge33" class="edge">
<title>u21&#45;&gt;u4</title>
<path fill="none" stroke="black" d="M1756.92,-1338.72C1772.88,-1293.21 1815.24,-1165.95 1830.73,-1056 1883.22,-683.68 1858.94,-223.57 1851.59,-108.2"/>
<polygon fill="black" stroke="black" points="1855.07,-107.87 1850.93,-98.12 1848.09,-108.33 1855.07,-107.87"/>
</g>
<!-- u21&#45;&gt;u16 -->
<g id="edge34" class="edge">
<title>u21&#45;&gt;u16</title>
<path fill="none" stroke="black" d="M1745.41,-1338.96C1729.13,-1286.82 1679.89,-1129.17 1660.1,-1065.8"/>
<polygon fill="black" stroke="black" points="1663.41,-1064.63 1657.08,-1056.13 1656.72,-1066.72 1663.41,-1064.63"/>
</g>
<!-- u20&#45;&gt;u28 -->
<g id="edge32" class="edge">
<title>u20&#45;&gt;u28</title>
<path fill="none" stroke="black" d="M2884.63,-1338.96C2869,-1286.82 2821.76,-1129.17 2802.77,-1065.8"/>
<polygon fill="black" stroke="black" points="2806.09,-1064.7 2799.87,-1056.13 2799.39,-1066.71 2806.09,-1064.7"/>
</g>
<!-- u20&#45;&gt;u7 -->
<g id="edge31" class="edge">
<title>u20&#45;&gt;u7</title>
<path fill="none" stroke="black" d="M2788.43,-1342.98C2391.9,-1292.03 946.72,-1106.33 533.68,-1053.26"/>
<polygon fill="black" stroke="black" points="533.89,-1049.75 523.53,-1051.95 533,-1056.7 533.89,-1049.75"/>
</g>
<!-- u19&#45;&gt;u28 -->
<g id="edge30" class="edge">
<title>u19&#45;&gt;u28</title>
<path fill="none" stroke="black" d="M1043.48,-1340.71C1357.39,-1286.63 2412.52,-1104.85 2713.79,-1052.95"/>
<polygon fill="black" stroke="black" points="2714.5,-1056.37 2723.76,-1051.23 2713.31,-1049.48 2714.5,-1056.37"/>
</g>
<!-- u19&#45;&gt;u6 -->
<g id="edge28" class="edge">
<title>u19&#45;&gt;u6</title>
<path fill="none" stroke="black" d="M961.67,-1339C1008.33,-1224.62 1276.39,-567.53 1333.88,-426.61"/>
<polygon fill="black" stroke="black" points="1337.26,-427.6 1337.79,-417.01 1330.78,-424.95 1337.26,-427.6"/>
</g>
<!-- u19&#45;&gt;u16 -->
<g id="edge29" class="edge">
<title>u19&#45;&gt;u16</title>
<path fill="none" stroke="black" d="M991.72,-1339.18C1109.64,-1285.55 1476.6,-1118.65 1606,-1059.8"/>
<polygon fill="black" stroke="black" points="1607.61,-1062.91 1615.26,-1055.59 1604.71,-1056.54 1607.61,-1062.91"/>
</g>
<!-- u18&#45;&gt;u7 -->
<g id="edge26" class="edge">
<title>u18&#45;&gt;u7</title>
<path fill="none" stroke="black" d="M270.39,-1338.96C296.93,-1286.71 377.27,-1128.52 409.32,-1065.41"/>
<polygon fill="black" stroke="black" points="412.63,-1066.63 414.04,-1056.13 406.39,-1063.46 412.63,-1066.63"/>
</g>
<!-- u18&#45;&gt;u16 -->
<g id="edge27" class="edge">
<title>u18&#45;&gt;u16</title>
<path fill="none" stroke="black" d="M329.25,-1340.6C561.31,-1287.68 1325.56,-1113.39 1573.39,-1056.87"/>
<polygon fill="black" stroke="black" points="1574.43,-1060.22 1583.4,-1054.58 1572.87,-1053.4 1574.43,-1060.22"/>
</g>
<!-- u17&#45;&gt;u16 -->
<g id="edge25" class="edge">
<title>u17&#45;&gt;u16</title>
<path fill="none" stroke="black" d="M1396.25,-1338.96C1441.12,-1286.28 1577.71,-1125.91 1630.55,-1063.87"/>
<polygon fill="black" stroke="black" points="1633.33,-1066.01 1637.15,-1056.13 1628,-1061.47 1633.33,-1066.01"/>
</g>
<!-- u15&#45;&gt;u28 -->
<g id="edge24" class="edge">
<title>u15&#45;&gt;u28</title>
<path fill="none" stroke="black" d="M2516.54,-1338.96C2565.5,-1286.17 2714.74,-1125.25 2772.02,-1063.49"/>
<polygon fill="black" stroke="black" points="2774.62,-1065.84 2778.85,-1056.13 2769.48,-1061.08 2774.62,-1065.84"/>
</g>
<!-- u15&#45;&gt;u4 -->
<g id="edge22" class="edge">
<title>u15&#45;&gt;u4</title>
<path fill="none" stroke="black" d="M2492.02,-1338.94C2421.83,-1201.46 1948.89,-275.2 1863.08,-107.13"/>
<polygon fill="black" stroke="black" points="1866.08,-105.31 1858.41,-98 1859.84,-108.5 1866.08,-105.31"/>
</g>
<!-- u15&#45;&gt;u16 -->
<g id="edge23" class="edge">
<title>u15&#45;&gt;u16</title>
<path fill="none" stroke="black" d="M2456.58,-1339.51C2313.22,-1285.99 1861.08,-1117.17 1705.19,-1058.96"/>
<polygon fill="black" stroke="black" points="1706.39,-1055.67 1695.79,-1055.45 1703.94,-1062.23 1706.39,-1055.67"/>
</g>
<!-- u14&#45;&gt;u7 -->
<g id="edge20" class="edge">
<title>u14&#45;&gt;u7</title>
<path fill="none" stroke="black" d="M575.08,-1338.96C548.54,-1286.71 468.2,-1128.52 436.15,-1065.41"/>
<polygon fill="black" stroke="black" points="439.08,-1063.46 431.43,-1056.13 432.84,-1066.63 439.08,-1063.46"/>
</g>
<!-- u14&#45;&gt;u16 -->
<g id="edge21" class="edge">
<title>u14&#45;&gt;u16</title>
<path fill="none" stroke="black" d="M637.06,-1340.17C815.92,-1287.08 1394.09,-1115.47 1587.81,-1057.98"/>
<polygon fill="black" stroke="black" points="1588.97,-1061.28 1597.56,-1055.08 1586.98,-1054.57 1588.97,-1061.28"/>
</g>
<!-- u13&#45;&gt;u28 -->
<g id="edge19" class="edge">
<title>u13&#45;&gt;u28</title>
<path fill="none" stroke="black" d="M3551.79,-1339.73C3417.34,-1286.32 2989.66,-1116.43 2843.93,-1058.54"/>
<polygon fill="black" stroke="black" points="2844.92,-1055.17 2834.33,-1054.73 2842.33,-1061.67 2844.92,-1055.17"/>
</g>
<!-- u13&#45;&gt;u6 -->
<g id="edge17" class="edge">
<title>u13&#45;&gt;u6</title>
<path fill="none" stroke="black" d="M3561.11,-1339.35C3464.55,-1288.74 3164.58,-1133.34 2908.73,-1020 2326.74,-762.18 1602.21,-494.01 1399.6,-419.95"/>
<polygon fill="black" stroke="black" points="1400.66,-416.61 1390.06,-416.47 1398.26,-423.19 1400.66,-416.61"/>
</g>
<!-- u13&#45;&gt;u16 -->
<g id="edge18" class="edge">
<title>u13&#45;&gt;u16</title>
<path fill="none" stroke="black" d="M3509.33,-1342.38C3195.68,-1291.15 2087.62,-1110.19 1750.06,-1055.06"/>
<polygon fill="black" stroke="black" points="1750.49,-1051.58 1740.06,-1053.43 1749.36,-1058.49 1750.49,-1051.58"/>
</g>
<!-- u12&#45;&gt;u28 -->
<g id="edge16" class="edge">
<title>u12&#45;&gt;u28</title>
<path fill="none" stroke="black" d="M3208.44,-1658.25C3282.69,-1609.55 3481.2,-1463.52 3403.73,-1339 3288.02,-1153.01 3019.35,-1078.96 2880.8,-1052.34"/>
<polygon fill="black" stroke="black" points="2881.12,-1048.84 2870.64,-1050.43 2879.82,-1055.72 2881.12,-1048.84"/>
</g>
<!-- u11&#45;&gt;u7 -->
<g id="edge15" class="edge">
<title>u11&#45;&gt;u7</title>
<path fill="none" stroke="black" d="M2015.89,-1340.87C1736.36,-1287.91 803.05,-1111.06 510.92,-1055.71"/>
<polygon fill="black" stroke="black" points="511.28,-1052.22 500.8,-1053.79 509.98,-1059.09 511.28,-1052.22"/>
</g>
</g>
</svg>
