<?xml version="1.0" encoding="UTF-8" standalone="no"?>
<!DOCTYPE svg PUBLIC "-//W3C//DTD SVG 1.1//EN"
 "http://www.w3.org/Graphics/SVG/1.1/DTD/svg11.dtd">
<!-- Generated by graphviz version 2.43.0 (0)
 -->
<!-- Title: G Pages: 1 -->
<svg width="432pt" height="284pt"
 viewBox="0.00 0.00 432.00 284.37" xmlns="http://www.w3.org/2000/svg" xmlns:xlink="http://www.w3.org/1999/xlink">
<g id="graph0" class="graph" transform="scale(5.64 5.64) rotate(0) translate(4 1600.67)">
<title>G</title>
<polygon fill="white" stroke="transparent" points="-4,4 -4,-1600.67 2433.76,-1600.67 2433.76,4 -4,4"/>
<!-- u0 -->
<g id="node1" class="node">
<title>u0</title>
<ellipse fill="#bbffbb" stroke="black" cx="1006.88" cy="-1559" rx="69.59" ry="18"/>
<text text-anchor="middle" x="1006.88" y="-1555.3" font-family="Times,serif" font-size="14.00">GOOL.Drasil</text>
</g>
<!-- u1 -->
<g id="node11" class="node">
<title>u1</title>
<ellipse fill="#ffffbb" stroke="black" cx="156.88" cy="-1102" rx="113.98" ry="18"/>
<text text-anchor="middle" x="156.88" y="-1098.3" font-family="Times,serif" font-size="14.00">GOOL.Drasil.CodeInfo</text>
</g>
<!-- u0&#45;&gt;u1 -->
<g id="edge1" class="edge">
<title>u0&#45;&gt;u1</title>
<path fill="none" stroke="black" d="M940.11,-1553.96C728.99,-1540.5 86.27,-1494.13 25.88,-1425 -54.49,-1333 74.13,-1185.18 131.5,-1127.33"/>
<polygon fill="black" stroke="black" points="134.15,-1129.63 138.77,-1120.09 129.21,-1124.67 134.15,-1129.63"/>
</g>
<!-- u17 -->
<g id="node13" class="node">
<title>u17</title>
<ellipse fill="#bbbbff" stroke="black" cx="1251.88" cy="-1407" rx="241.26" ry="18"/>
<text text-anchor="middle" x="1251.88" y="-1403.3" font-family="Times,serif" font-size="14.00">GOOL.Drasil.LanguageRenderer.CSharpRenderer</text>
</g>
<!-- u0&#45;&gt;u17 -->
<g id="edge6" class="edge">
<title>u0&#45;&gt;u17</title>
<path fill="none" stroke="black" d="M1032.64,-1542.23C1076.45,-1515.41 1165.58,-1460.84 1215.66,-1430.18"/>
<polygon fill="black" stroke="black" points="1217.53,-1433.13 1224.23,-1424.93 1213.88,-1427.16 1217.53,-1433.13"/>
</g>
<!-- u16 -->
<g id="node14" class="node">
<title>u16</title>
<ellipse fill="#bbbbff" stroke="black" cx="273.88" cy="-1407" rx="239.36" ry="18"/>
<text text-anchor="middle" x="273.88" y="-1403.3" font-family="Times,serif" font-size="14.00">GOOL.Drasil.LanguageRenderer.PythonRenderer</text>
</g>
<!-- u0&#45;&gt;u16 -->
<g id="edge5" class="edge">
<title>u0&#45;&gt;u16</title>
<path fill="none" stroke="black" d="M954.17,-1547.21C829.62,-1521.72 516.08,-1457.56 362.05,-1426.04"/>
<polygon fill="black" stroke="black" points="362.64,-1422.59 352.14,-1424.01 361.23,-1429.45 362.64,-1422.59"/>
</g>
<!-- u13 -->
<g id="node17" class="node">
<title>u13</title>
<ellipse fill="#bbbbff" stroke="black" cx="1736.88" cy="-1407" rx="225.56" ry="18"/>
<text text-anchor="middle" x="1736.88" y="-1403.3" font-family="Times,serif" font-size="14.00">GOOL.Drasil.LanguageRenderer.JavaRenderer</text>
</g>
<!-- u0&#45;&gt;u13 -->
<g id="edge4" class="edge">
<title>u0&#45;&gt;u13</title>
<path fill="none" stroke="black" d="M1059.68,-1547.15C1184.02,-1521.6 1496.33,-1457.43 1649.47,-1425.96"/>
<polygon fill="black" stroke="black" points="1650.23,-1429.38 1659.32,-1423.94 1648.82,-1422.52 1650.23,-1429.38"/>
</g>
<!-- u11 -->
<g id="node19" class="node">
<title>u11</title>
<ellipse fill="#bbbbff" stroke="black" cx="2204.88" cy="-1407" rx="224.76" ry="18"/>
<text text-anchor="middle" x="2204.88" y="-1403.3" font-family="Times,serif" font-size="14.00">GOOL.Drasil.LanguageRenderer.CppRenderer</text>
</g>
<!-- u0&#45;&gt;u11 -->
<g id="edge3" class="edge">
<title>u0&#45;&gt;u11</title>
<path fill="none" stroke="black" d="M1067.94,-1550.36C1255.21,-1526.91 1824.19,-1455.67 2079.07,-1423.75"/>
<polygon fill="black" stroke="black" points="2079.63,-1427.21 2089.11,-1422.5 2078.76,-1420.27 2079.63,-1427.21"/>
</g>
<!-- u9 -->
<g id="node21" class="node">
<title>u9</title>
<ellipse fill="#bbbbff" stroke="black" cx="761.88" cy="-1407" rx="230.96" ry="18"/>
<text text-anchor="middle" x="761.88" y="-1403.3" font-family="Times,serif" font-size="14.00">GOOL.Drasil.LanguageRenderer.SwiftRenderer</text>
</g>
<!-- u0&#45;&gt;u9 -->
<g id="edge2" class="edge">
<title>u0&#45;&gt;u9</title>
<path fill="none" stroke="black" d="M981.13,-1542.23C937.32,-1515.41 848.18,-1460.84 798.11,-1430.18"/>
<polygon fill="black" stroke="black" points="799.89,-1427.16 789.53,-1424.93 796.23,-1433.13 799.89,-1427.16"/>
</g>
<!-- u20 -->
<g id="node2" class="node">
<title>u20</title>
<ellipse fill="#ffffbb" stroke="black" cx="785.88" cy="-646" rx="150.57" ry="18"/>
<text text-anchor="middle" x="785.88" y="-642.3" font-family="Times,serif" font-size="14.00">GOOL.Drasil.RendererClasses</text>
</g>
<!-- u3 -->
<g id="node9" class="node">
<title>u3</title>
<ellipse fill="#ffffbb" stroke="black" cx="545.88" cy="-494" rx="139.18" ry="18"/>
<text text-anchor="middle" x="545.88" y="-490.3" font-family="Times,serif" font-size="14.00">GOOL.Drasil.ClassInterface</text>
</g>
<!-- u20&#45;&gt;u3 -->
<g id="edge35" class="edge">
<title>u20&#45;&gt;u3</title>
<path fill="none" stroke="black" d="M758.82,-628.08C715.31,-600.89 629.8,-547.45 581.43,-517.22"/>
<polygon fill="black" stroke="black" points="583.18,-514.19 572.85,-511.85 579.47,-520.12 583.18,-514.19"/>
</g>
<!-- u19 -->
<g id="node3" class="node">
<title>u19</title>
<ellipse fill="#ffffbb" stroke="black" cx="1112.88" cy="-798" rx="161.37" ry="18"/>
<text text-anchor="middle" x="1112.88" y="-794.3" font-family="Times,serif" font-size="14.00">GOOL.Drasil.LanguageRenderer</text>
</g>
<!-- u19&#45;&gt;u20 -->
<g id="edge34" class="edge">
<title>u19&#45;&gt;u20</title>
<path fill="none" stroke="black" d="M1076.64,-780.37C1016.73,-752.89 897.16,-698.05 831.56,-667.95"/>
<polygon fill="black" stroke="black" points="832.84,-664.69 822.29,-663.7 829.92,-671.05 832.84,-664.69"/>
</g>
<!-- u8 -->
<g id="node4" class="node">
<title>u8</title>
<ellipse fill="#ffffbb" stroke="black" cx="2204.88" cy="-1255" rx="107.48" ry="18"/>
<text text-anchor="middle" x="2204.88" y="-1251.3" font-family="Times,serif" font-size="14.00">GOOL.Drasil.Classes</text>
</g>
<!-- u7 -->
<g id="node5" class="node">
<title>u7</title>
<ellipse fill="#ffffbb" stroke="black" cx="495.88" cy="-190" rx="133.78" ry="18"/>
<text text-anchor="middle" x="495.88" y="-186.3" font-family="Times,serif" font-size="14.00">GOOL.Drasil.CodeAnalysis</text>
</g>
<!-- u6 -->
<g id="node6" class="node">
<title>u6</title>
<ellipse fill="#ffffbb" stroke="black" cx="434.88" cy="-342" rx="96.68" ry="18"/>
<text text-anchor="middle" x="434.88" y="-338.3" font-family="Times,serif" font-size="14.00">GOOL.Drasil.State</text>
</g>
<!-- u6&#45;&gt;u7 -->
<g id="edge13" class="edge">
<title>u6&#45;&gt;u7</title>
<path fill="none" stroke="black" d="M441.88,-323.79C452.45,-297.8 472.58,-248.3 485.06,-217.63"/>
<polygon fill="black" stroke="black" points="488.44,-218.59 488.97,-208.01 481.96,-215.95 488.44,-218.59"/>
</g>
<!-- u5 -->
<g id="node7" class="node">
<title>u5</title>
<ellipse fill="#ffffbb" stroke="black" cx="252.88" cy="-190" rx="90.98" ry="18"/>
<text text-anchor="middle" x="252.88" y="-186.3" font-family="Times,serif" font-size="14.00">GOOL.Drasil.AST</text>
</g>
<!-- u6&#45;&gt;u5 -->
<g id="edge12" class="edge">
<title>u6&#45;&gt;u5</title>
<path fill="none" stroke="black" d="M414.71,-324.37C382.19,-297.57 318.07,-244.73 281.05,-214.22"/>
<polygon fill="black" stroke="black" points="283.09,-211.36 273.15,-207.7 278.64,-216.76 283.09,-211.36"/>
</g>
<!-- u4 -->
<g id="node8" class="node">
<title>u4</title>
<ellipse fill="#ffffbb" stroke="black" cx="454.88" cy="-38" rx="118.08" ry="18"/>
<text text-anchor="middle" x="454.88" y="-34.3" font-family="Times,serif" font-size="14.00">GOOL.Drasil.CodeType</text>
</g>
<!-- u5&#45;&gt;u4 -->
<g id="edge11" class="edge">
<title>u5&#45;&gt;u4</title>
<path fill="none" stroke="black" d="M275.27,-172.37C311.52,-145.46 383.13,-92.28 424.13,-61.83"/>
<polygon fill="black" stroke="black" points="426.45,-64.47 432.39,-55.7 422.28,-58.85 426.45,-64.47"/>
</g>
<!-- u3&#45;&gt;u6 -->
<g id="edge10" class="edge">
<title>u3&#45;&gt;u6</title>
<path fill="none" stroke="black" d="M533.15,-475.79C513.66,-449.46 476.32,-399 453.7,-368.43"/>
<polygon fill="black" stroke="black" points="456.23,-365.96 447.47,-360.01 450.6,-370.13 456.23,-365.96"/>
</g>
<!-- u2 -->
<g id="node10" class="node">
<title>u2</title>
<ellipse fill="#ffffbb" stroke="black" cx="657.88" cy="-342" rx="108.58" ry="18"/>
<text text-anchor="middle" x="657.88" y="-338.3" font-family="Times,serif" font-size="14.00">GOOL.Drasil.Helpers</text>
</g>
<!-- u3&#45;&gt;u2 -->
<g id="edge9" class="edge">
<title>u3&#45;&gt;u2</title>
<path fill="none" stroke="black" d="M558.73,-475.79C578.48,-449.35 616.39,-398.57 639.19,-368.04"/>
<polygon fill="black" stroke="black" points="642.01,-370.11 645.19,-360.01 636.4,-365.93 642.01,-370.11"/>
</g>
<!-- u2&#45;&gt;u4 -->
<g id="edge8" class="edge">
<title>u2&#45;&gt;u4</title>
<path fill="none" stroke="black" d="M660.27,-323.77C663.86,-291.54 667.46,-220.96 638.88,-172 607.78,-118.72 545.93,-80.88 502.56,-59.51"/>
<polygon fill="black" stroke="black" points="503.86,-56.25 493.33,-55.07 500.82,-62.56 503.86,-56.25"/>
</g>
<!-- u1&#45;&gt;u3 -->
<g id="edge7" class="edge">
<title>u1&#45;&gt;u3</title>
<path fill="none" stroke="black" d="M167.9,-1083.84C222.51,-998.77 464.18,-622.29 529.54,-520.46"/>
<polygon fill="black" stroke="black" points="532.51,-522.32 534.96,-512.01 526.62,-518.54 532.51,-522.32"/>
</g>
<!-- u18 -->
<g id="node12" class="node">
<title>u18</title>
<ellipse fill="#bbbbff" stroke="black" cx="1710.88" cy="-1255" rx="189.27" ry="18"/>
<text text-anchor="middle" x="1710.88" y="-1251.3" font-family="Times,serif" font-size="14.00">GOOL.Drasil.LanguageRenderer.CLike</text>
</g>
<!-- u10 -->
<g id="node20" class="node">
<title>u10</title>
<ellipse fill="#bbbbff" stroke="black" cx="1251.88" cy="-950" rx="223.66" ry="18"/>
<text text-anchor="middle" x="1251.88" y="-946.3" font-family="Times,serif" font-size="14.00">GOOL.Drasil.LanguageRenderer.Constructors</text>
</g>
<!-- u18&#45;&gt;u10 -->
<g id="edge33" class="edge">
<title>u18&#45;&gt;u10</title>
<path fill="none" stroke="black" d="M1695.77,-1237.02C1665.96,-1204.27 1596.43,-1131.39 1526.88,-1084 1455.42,-1035.3 1363.42,-994.68 1306.04,-971.6"/>
<polygon fill="black" stroke="black" points="1307.02,-968.23 1296.44,-967.78 1304.43,-974.73 1307.02,-968.23"/>
</g>
<!-- u17&#45;&gt;u18 -->
<g id="edge32" class="edge">
<title>u17&#45;&gt;u18</title>
<path fill="none" stroke="black" d="M1302.76,-1389.37C1388.11,-1361.48 1559.73,-1305.4 1650.85,-1275.62"/>
<polygon fill="black" stroke="black" points="1652.06,-1278.9 1660.48,-1272.47 1649.89,-1272.25 1652.06,-1278.9"/>
</g>
<!-- u14 -->
<g id="node16" class="node">
<title>u14</title>
<ellipse fill="#bbbbff" stroke="black" cx="785.88" cy="-1255" rx="196.87" ry="18"/>
<text text-anchor="middle" x="785.88" y="-1251.3" font-family="Times,serif" font-size="14.00">GOOL.Drasil.LanguageRenderer.Macros</text>
</g>
<!-- u17&#45;&gt;u14 -->
<g id="edge31" class="edge">
<title>u17&#45;&gt;u14</title>
<path fill="none" stroke="black" d="M1200.23,-1389.37C1113.58,-1361.48 939.34,-1305.4 846.83,-1275.62"/>
<polygon fill="black" stroke="black" points="847.65,-1272.2 837.05,-1272.47 845.5,-1278.87 847.65,-1272.2"/>
</g>
<!-- u12 -->
<g id="node18" class="node">
<title>u12</title>
<ellipse fill="#bbbbff" stroke="black" cx="1251.88" cy="-1255" rx="251.56" ry="18"/>
<text text-anchor="middle" x="1251.88" y="-1251.3" font-family="Times,serif" font-size="14.00">GOOL.Drasil.LanguageRenderer.CommonPseudoOO</text>
</g>
<!-- u17&#45;&gt;u12 -->
<g id="edge30" class="edge">
<title>u17&#45;&gt;u12</title>
<path fill="none" stroke="black" d="M1251.88,-1388.79C1251.88,-1362.91 1251.88,-1313.73 1251.88,-1283.03"/>
<polygon fill="black" stroke="black" points="1255.38,-1283.01 1251.88,-1273.01 1248.38,-1283.01 1255.38,-1283.01"/>
</g>
<!-- u16&#45;&gt;u14 -->
<g id="edge29" class="edge">
<title>u16&#45;&gt;u14</title>
<path fill="none" stroke="black" d="M330.63,-1389.37C426.26,-1361.36 618.94,-1304.91 720.24,-1275.23"/>
<polygon fill="black" stroke="black" points="721.44,-1278.53 730.05,-1272.36 719.47,-1271.81 721.44,-1278.53"/>
</g>
<!-- u16&#45;&gt;u12 -->
<g id="edge28" class="edge">
<title>u16&#45;&gt;u12</title>
<path fill="none" stroke="black" d="M374.41,-1390.58C558.53,-1362.34 948.59,-1302.52 1140.5,-1273.08"/>
<polygon fill="black" stroke="black" points="1141.25,-1276.51 1150.61,-1271.53 1140.19,-1269.59 1141.25,-1276.51"/>
</g>
<!-- u15 -->
<g id="node15" class="node">
<title>u15</title>
<ellipse fill="#bbbbff" stroke="black" cx="1251.88" cy="-1102" rx="265.65" ry="18"/>
<text text-anchor="middle" x="1251.88" y="-1098.3" font-family="Times,serif" font-size="14.00">GOOL.Drasil.LanguageRenderer.LanguagePolymorphic</text>
</g>
<!-- u15&#45;&gt;u10 -->
<g id="edge27" class="edge">
<title>u15&#45;&gt;u10</title>
<path fill="none" stroke="black" d="M1251.88,-1083.79C1251.88,-1057.91 1251.88,-1008.73 1251.88,-978.03"/>
<polygon fill="black" stroke="black" points="1255.38,-978.01 1251.88,-968.01 1248.38,-978.01 1255.38,-978.01"/>
</g>
<!-- u14&#45;&gt;u20 -->
<g id="edge26" class="edge">
<title>u14&#45;&gt;u20</title>
<path fill="none" stroke="black" d="M785.88,-1236.81C785.88,-1152.03 785.88,-778.28 785.88,-674.07"/>
<polygon fill="black" stroke="black" points="789.38,-674.04 785.88,-664.04 782.38,-674.04 789.38,-674.04"/>
</g>
<!-- u13&#45;&gt;u18 -->
<g id="edge25" class="edge">
<title>u13&#45;&gt;u18</title>
<path fill="none" stroke="black" d="M1733.9,-1388.79C1729.41,-1362.91 1720.89,-1313.73 1715.57,-1283.03"/>
<polygon fill="black" stroke="black" points="1718.99,-1282.26 1713.83,-1273.01 1712.09,-1283.46 1718.99,-1282.26"/>
</g>
<!-- u13&#45;&gt;u14 -->
<g id="edge24" class="edge">
<title>u13&#45;&gt;u14</title>
<path fill="none" stroke="black" d="M1640.02,-1390.72C1460,-1362.33 1075.38,-1301.66 890.01,-1272.42"/>
<polygon fill="black" stroke="black" points="890.41,-1268.94 879.98,-1270.84 889.32,-1275.86 890.41,-1268.94"/>
</g>
<!-- u13&#45;&gt;u12 -->
<g id="edge23" class="edge">
<title>u13&#45;&gt;u12</title>
<path fill="none" stroke="black" d="M1683.13,-1389.37C1593,-1361.5 1411.83,-1305.47 1315.5,-1275.67"/>
<polygon fill="black" stroke="black" points="1316.47,-1272.31 1305.88,-1272.7 1314.4,-1279 1316.47,-1272.31"/>
</g>
<!-- u12&#45;&gt;u15 -->
<g id="edge22" class="edge">
<title>u12&#45;&gt;u15</title>
<path fill="none" stroke="black" d="M1251.88,-1236.97C1251.88,-1211.03 1251.88,-1161.36 1251.88,-1130.33"/>
<polygon fill="black" stroke="black" points="1255.38,-1130.2 1251.88,-1120.2 1248.38,-1130.2 1255.38,-1130.2"/>
</g>
<!-- u11&#45;&gt;u8 -->
<g id="edge18" class="edge">
<title>u11&#45;&gt;u8</title>
<path fill="none" stroke="black" d="M2204.88,-1388.79C2204.88,-1362.91 2204.88,-1313.73 2204.88,-1283.03"/>
<polygon fill="black" stroke="black" points="2208.38,-1283.01 2204.88,-1273.01 2201.38,-1283.01 2208.38,-1283.01"/>
</g>
<!-- u11&#45;&gt;u18 -->
<g id="edge21" class="edge">
<title>u11&#45;&gt;u18</title>
<path fill="none" stroke="black" d="M2150.6,-1389.52C2058.52,-1361.56 1872.19,-1304.98 1774.27,-1275.25"/>
<polygon fill="black" stroke="black" points="1775.09,-1271.84 1764.5,-1272.28 1773.05,-1278.54 1775.09,-1271.84"/>
</g>
<!-- u11&#45;&gt;u14 -->
<g id="edge20" class="edge">
<title>u11&#45;&gt;u14</title>
<path fill="none" stroke="black" d="M2075.19,-1392.29C1806.6,-1363.9 1191.9,-1298.92 919.76,-1270.15"/>
<polygon fill="black" stroke="black" points="919.74,-1266.63 909.43,-1269.06 919.01,-1273.59 919.74,-1266.63"/>
</g>
<!-- u11&#45;&gt;u12 -->
<g id="edge19" class="edge">
<title>u11&#45;&gt;u12</title>
<path fill="none" stroke="black" d="M2107.82,-1390.72C1928.93,-1362.57 1548.44,-1302.68 1360.94,-1273.17"/>
<polygon fill="black" stroke="black" points="1361.21,-1269.67 1350.79,-1271.57 1360.13,-1276.58 1361.21,-1269.67"/>
</g>
<!-- u10&#45;&gt;u19 -->
<g id="edge17" class="edge">
<title>u10&#45;&gt;u19</title>
<path fill="none" stroke="black" d="M1235.94,-931.79C1211.32,-905.23 1163.97,-854.13 1135.73,-823.65"/>
<polygon fill="black" stroke="black" points="1138.01,-820.96 1128.64,-816.01 1132.87,-825.72 1138.01,-820.96"/>
</g>
<!-- u9&#45;&gt;u18 -->
<g id="edge16" class="edge">
<title>u9&#45;&gt;u18</title>
<path fill="none" stroke="black" d="M858.98,-1390.65C1039.08,-1362.19 1423.29,-1301.46 1607.8,-1272.29"/>
<polygon fill="black" stroke="black" points="1608.45,-1275.73 1617.78,-1270.72 1607.36,-1268.82 1608.45,-1275.73"/>
</g>
<!-- u9&#45;&gt;u14 -->
<g id="edge15" class="edge">
<title>u9&#45;&gt;u14</title>
<path fill="none" stroke="black" d="M764.64,-1388.79C768.78,-1362.91 776.65,-1313.73 781.56,-1283.03"/>
<polygon fill="black" stroke="black" points="785.04,-1283.43 783.16,-1273.01 778.13,-1282.33 785.04,-1283.43"/>
</g>
<!-- u9&#45;&gt;u12 -->
<g id="edge14" class="edge">
<title>u9&#45;&gt;u12</title>
<path fill="none" stroke="black" d="M816.19,-1389.37C907.38,-1361.46 1090.78,-1305.32 1188,-1275.56"/>
<polygon fill="black" stroke="black" points="1189.17,-1278.86 1197.7,-1272.59 1187.12,-1272.17 1189.17,-1278.86"/>
</g>
</g>
</svg>
