<?xml version="1.0" encoding="UTF-8" standalone="no"?>
<!DOCTYPE svg PUBLIC "-//W3C//DTD SVG 1.1//EN"
 "http://www.w3.org/Graphics/SVG/1.1/DTD/svg11.dtd">
<!-- Generated by graphviz version 2.43.0 (0)
 -->
<!-- Title: G Pages: 1 -->
<svg width="431pt" height="288pt"
 viewBox="0.00 0.00 430.59 288.00" xmlns="http://www.w3.org/2000/svg" xmlns:xlink="http://www.w3.org/1999/xlink">
<g id="graph0" class="graph" transform="scale(0.47 0.47) rotate(0) translate(4 614)">
<title>G</title>
<polygon fill="white" stroke="transparent" points="-4,4 -4,-614 919.97,-614 919.97,4 -4,4"/>
<!-- u0 -->
<g id="node1" class="node">
<title>u0</title>
<ellipse fill="#bbffbb" stroke="black" cx="311.29" cy="-549" rx="89.08" ry="18"/>
<text text-anchor="middle" x="311.29" y="-545.3" font-family="Times,serif" font-size="14.00">Drasil.Generator</text>
</g>
<!-- u5 -->
<g id="node2" class="node">
<title>u5</title>
<ellipse fill="#ffffbb" stroke="black" cx="157.29" cy="-305" rx="157.07" ry="18"/>
<text text-anchor="middle" x="157.29" y="-301.3" font-family="Times,serif" font-size="14.00">Drasil.Generator.BaseChunkDB</text>
</g>
<!-- u0&#45;&gt;u5 -->
<g id="edge2" class="edge">
<title>u0&#45;&gt;u5</title>
<path fill="none" stroke="black" d="M300.46,-530.98C273.84,-489.15 205.09,-381.12 173.54,-331.54"/>
<polygon fill="black" stroke="black" points="176.42,-329.56 168.1,-323 170.52,-333.31 176.42,-329.56"/>
</g>
<!-- u2 -->
<g id="node5" class="node">
<title>u2</title>
<ellipse fill="#ffffbb" stroke="black" cx="466.29" cy="-305" rx="133.78" ry="18"/>
<text text-anchor="middle" x="466.29" y="-301.3" font-family="Times,serif" font-size="14.00">Drasil.Generator.Generate</text>
</g>
<!-- u0&#45;&gt;u2 -->
<g id="edge1" class="edge">
<title>u0&#45;&gt;u2</title>
<path fill="none" stroke="black" d="M322.19,-530.98C348.98,-489.15 418.17,-381.12 449.92,-331.54"/>
<polygon fill="black" stroke="black" points="452.95,-333.31 455.4,-323 447.06,-329.53 452.95,-333.31"/>
</g>
<!-- u4 -->
<g id="node3" class="node">
<title>u4</title>
<ellipse fill="#ffffbb" stroke="black" cx="170.29" cy="-61" rx="129.18" ry="18"/>
<text text-anchor="middle" x="170.29" y="-57.3" font-family="Times,serif" font-size="14.00">Drasil.Generator.Formats</text>
</g>
<!-- u3 -->
<g id="node4" class="node">
<title>u3</title>
<ellipse fill="#ffffbb" stroke="black" cx="466.29" cy="-61" rx="148.37" ry="18"/>
<text text-anchor="middle" x="466.29" y="-57.3" font-family="Times,serif" font-size="14.00">Drasil.Generator.ChunkDump</text>
</g>
<!-- u2&#45;&gt;u4 -->
<g id="edge5" class="edge">
<title>u2&#45;&gt;u4</title>
<path fill="none" stroke="black" d="M445.47,-286.98C393.57,-244.55 258.31,-133.96 198.93,-85.42"/>
<polygon fill="black" stroke="black" points="201.03,-82.62 191.08,-79 196.6,-88.04 201.03,-82.62"/>
</g>
<!-- u2&#45;&gt;u3 -->
<g id="edge4" class="edge">
<title>u2&#45;&gt;u3</title>
<path fill="none" stroke="black" d="M466.29,-286.98C466.29,-245.69 466.29,-139.86 466.29,-89.47"/>
<polygon fill="black" stroke="black" points="469.79,-89.32 466.29,-79.32 462.79,-89.32 469.79,-89.32"/>
</g>
<!-- u1 -->
<g id="node6" class="node">
<title>u1</title>
<ellipse fill="#ffffbb" stroke="black" cx="774.29" cy="-61" rx="141.88" ry="18"/>
<text text-anchor="middle" x="774.29" y="-57.3" font-family="Times,serif" font-size="14.00">Drasil.Generator.TypeCheck</text>
</g>
<!-- u2&#45;&gt;u1 -->
<g id="edge3" class="edge">
<title>u2&#45;&gt;u1</title>
<path fill="none" stroke="black" d="M487.94,-286.98C541.96,-244.55 682.7,-133.96 744.48,-85.42"/>
<polygon fill="black" stroke="black" points="746.95,-87.93 752.65,-79 742.63,-82.42 746.95,-87.93"/>
</g>
</g>
</svg>
