<?xml version="1.0" encoding="UTF-8" standalone="no"?>
<!DOCTYPE svg PUBLIC "-//W3C//DTD SVG 1.1//EN"
 "http://www.w3.org/Graphics/SVG/1.1/DTD/svg11.dtd">
<!-- Generated by graphviz version 2.43.0 (0)
 -->
<!-- Title: G Pages: 1 -->
<svg width="432pt" height="284pt"
 viewBox="0.00 0.00 432.00 283.53" xmlns="http://www.w3.org/2000/svg" xmlns:xlink="http://www.w3.org/1999/xlink">
<g id="graph0" class="graph" transform="scale(0.1 0.1) rotate(0) translate(4 2942)">
<title>G</title>
<polygon fill="white" stroke="transparent" points="-4,4 -4,-2942 4484.68,-2942 4484.68,4 -4,4"/>
<!-- u29 -->
<g id="node1" class="node">
<title>u29</title>
<ellipse fill="#bbffbb" stroke="black" cx="202.05" cy="-1815" rx="79.09" ry="18"/>
<text text-anchor="middle" x="202.05" y="-1811.3" font-family="Times,serif" font-size="14.00">Drasil.DocDecl</text>
</g>
<!-- u20 -->
<g id="node11" class="node">
<title>u20</title>
<ellipse fill="#bbbbff" stroke="black" cx="1095.05" cy="-1123" rx="159.47" ry="18"/>
<text text-anchor="middle" x="1095.05" y="-1119.3" font-family="Times,serif" font-size="14.00">Drasil.DocumentLanguage.Core</text>
</g>
<!-- u29&#45;&gt;u20 -->
<g id="edge58" class="edge">
<title>u29&#45;&gt;u20</title>
<path fill="none" stroke="black" d="M181.58,-1797.27C118.25,-1743.47 -65.11,-1571.45 24.05,-1451 141.84,-1291.87 750.14,-1178.96 993.88,-1139.45"/>
<polygon fill="black" stroke="black" points="994.48,-1142.9 1003.8,-1137.85 993.37,-1135.99 994.48,-1142.9"/>
</g>
<!-- u5 -->
<g id="node26" class="node">
<title>u5</title>
<ellipse fill="#bbffff" stroke="black" cx="223.05" cy="-1469" rx="149.47" ry="18"/>
<text text-anchor="middle" x="223.05" y="-1465.3" font-family="Times,serif" font-size="14.00">Drasil.Sections.Requirements</text>
</g>
<!-- u29&#45;&gt;u5 -->
<g id="edge57" class="edge">
<title>u29&#45;&gt;u5</title>
<path fill="none" stroke="black" d="M203.09,-1796.94C206.47,-1741.46 217.2,-1565.81 221.36,-1497.53"/>
<polygon fill="black" stroke="black" points="224.88,-1497.36 222,-1487.16 217.89,-1496.93 224.88,-1497.36"/>
</g>
<!-- u25 -->
<g id="node2" class="node">
<title>u25</title>
<ellipse fill="#bbffbb" stroke="black" cx="3131.05" cy="-86" rx="92.88" ry="18"/>
<text text-anchor="middle" x="3131.05" y="-82.3" font-family="Times,serif" font-size="14.00">Drasil.GetChunks</text>
</g>
<!-- u24 -->
<g id="node3" class="node">
<title>u24</title>
<ellipse fill="#bbffbb" stroke="black" cx="2491.05" cy="-2160" rx="133.78" ry="18"/>
<text text-anchor="middle" x="2491.05" y="-2156.3" font-family="Times,serif" font-size="14.00">Drasil.DocumentLanguage</text>
</g>
<!-- u24&#45;&gt;u29 -->
<g id="edge49" class="edge">
<title>u24&#45;&gt;u29</title>
<path fill="none" stroke="black" d="M2399.41,-2146.81C2097.43,-2106.36 1106.42,-1971.22 291.05,-1833 284.27,-1831.85 277.22,-1830.6 270.18,-1829.31"/>
<polygon fill="black" stroke="black" points="270.38,-1825.79 259.91,-1827.41 269.11,-1832.68 270.38,-1825.79"/>
</g>
<!-- u23 -->
<g id="node4" class="node">
<title>u23</title>
<ellipse fill="#bbffbb" stroke="black" cx="392.05" cy="-1815" rx="92.08" ry="18"/>
<text text-anchor="middle" x="392.05" y="-1811.3" font-family="Times,serif" font-size="14.00">Drasil.TraceTable</text>
</g>
<!-- u24&#45;&gt;u23 -->
<g id="edge47" class="edge">
<title>u24&#45;&gt;u23</title>
<path fill="none" stroke="black" d="M2409.23,-2145.75C2137.11,-2101.63 1237.52,-1955.64 494.05,-1833 486.17,-1831.7 477.96,-1830.34 469.77,-1828.98"/>
<polygon fill="black" stroke="black" points="470.24,-1825.51 459.8,-1827.32 469.09,-1832.42 470.24,-1825.51"/>
</g>
<!-- u0 -->
<g id="node7" class="node">
<title>u0</title>
<ellipse fill="#bbffbb" stroke="black" cx="619.05" cy="-1815" rx="116.18" ry="18"/>
<text text-anchor="middle" x="619.05" y="-1811.3" font-family="Times,serif" font-size="14.00">Drasil.ExtractDocDesc</text>
</g>
<!-- u24&#45;&gt;u0 -->
<g id="edge41" class="edge">
<title>u24&#45;&gt;u0</title>
<path fill="none" stroke="black" d="M2415.34,-2145.13C2115.4,-2090.17 1011.7,-1887.95 700.95,-1831.01"/>
<polygon fill="black" stroke="black" points="701.58,-1827.56 691.11,-1829.2 700.32,-1834.45 701.58,-1827.56"/>
</g>
<!-- u28 -->
<g id="node8" class="node">
<title>u28</title>
<ellipse fill="#ffffbb" stroke="black" cx="1517.05" cy="-1815" rx="136.48" ry="18"/>
<text text-anchor="middle" x="1517.05" y="-1811.3" font-family="Times,serif" font-size="14.00">Drasil.DocLang.References</text>
</g>
<!-- u24&#45;&gt;u28 -->
<g id="edge48" class="edge">
<title>u24&#45;&gt;u28</title>
<path fill="none" stroke="black" d="M2445.7,-2143.03C2285.55,-2086.63 1746.79,-1896.91 1572.17,-1835.41"/>
<polygon fill="black" stroke="black" points="1573.26,-1832.09 1562.67,-1832.07 1570.94,-1838.69 1573.26,-1832.09"/>
</g>
<!-- u15 -->
<g id="node13" class="node">
<title>u15</title>
<ellipse fill="#bbbbff" stroke="black" cx="2285.05" cy="-1815" rx="220.96" ry="18"/>
<text text-anchor="middle" x="2285.05" y="-1811.3" font-family="Times,serif" font-size="14.00">Drasil.DocumentLanguage.TraceabilityGraph</text>
</g>
<!-- u24&#45;&gt;u15 -->
<g id="edge46" class="edge">
<title>u24&#45;&gt;u15</title>
<path fill="none" stroke="black" d="M2480.83,-2141.99C2447.33,-2086.22 2340.68,-1908.64 2300.53,-1841.79"/>
<polygon fill="black" stroke="black" points="2303.47,-1839.88 2295.32,-1833.11 2297.47,-1843.49 2303.47,-1839.88"/>
</g>
<!-- u11 -->
<g id="node20" class="node">
<title>u11</title>
<ellipse fill="#bbffff" stroke="black" cx="2696.05" cy="-1815" rx="144.87" ry="18"/>
<text text-anchor="middle" x="2696.05" y="-1811.3" font-family="Times,serif" font-size="14.00">Drasil.Sections.Stakeholders</text>
</g>
<!-- u24&#45;&gt;u11 -->
<g id="edge45" class="edge">
<title>u24&#45;&gt;u11</title>
<path fill="none" stroke="black" d="M2501.21,-2141.99C2534.55,-2086.22 2640.68,-1908.64 2680.63,-1841.79"/>
<polygon fill="black" stroke="black" points="2683.69,-1843.49 2685.82,-1833.11 2677.68,-1839.9 2683.69,-1843.49"/>
</g>
<!-- u10 -->
<g id="node21" class="node">
<title>u10</title>
<ellipse fill="#bbffff" stroke="black" cx="2898.05" cy="-1469" rx="161.37" ry="18"/>
<text text-anchor="middle" x="2898.05" y="-1465.3" font-family="Times,serif" font-size="14.00">Drasil.Sections.TableOfContents</text>
</g>
<!-- u24&#45;&gt;u10 -->
<g id="edge44" class="edge">
<title>u24&#45;&gt;u10</title>
<path fill="none" stroke="black" d="M2520.64,-2142.33C2591.47,-2100.67 2770.75,-1984.39 2850.05,-1833 2909.31,-1719.85 2905.11,-1560.69 2900.56,-1497.45"/>
<polygon fill="black" stroke="black" points="2904.03,-1496.83 2899.76,-1487.13 2897.05,-1497.37 2904.03,-1496.83"/>
</g>
<!-- u9 -->
<g id="node22" class="node">
<title>u9</title>
<ellipse fill="#bbffff" stroke="black" cx="3240.05" cy="-1469" rx="163.27" ry="18"/>
<text text-anchor="middle" x="3240.05" y="-1465.3" font-family="Times,serif" font-size="14.00">Drasil.Sections.GeneralSystDesc</text>
</g>
<!-- u24&#45;&gt;u9 -->
<g id="edge43" class="edge">
<title>u24&#45;&gt;u9</title>
<path fill="none" stroke="black" d="M2511.79,-2142.2C2569.98,-2094.89 2739.2,-1956 2873.05,-1833 3006.93,-1709.97 3159.12,-1553.94 3216.5,-1494.5"/>
<polygon fill="black" stroke="black" points="3219.22,-1496.72 3223.65,-1487.09 3214.18,-1491.86 3219.22,-1496.72"/>
</g>
<!-- u1 -->
<g id="node30" class="node">
<title>u1</title>
<ellipse fill="#bbffff" stroke="black" cx="3563.05" cy="-1469" rx="141.88" ry="18"/>
<text text-anchor="middle" x="3563.05" y="-1465.3" font-family="Times,serif" font-size="14.00">Drasil.Sections.Introduction</text>
</g>
<!-- u24&#45;&gt;u1 -->
<g id="edge42" class="edge">
<title>u24&#45;&gt;u1</title>
<path fill="none" stroke="black" d="M2517.01,-2142.31C2661.21,-2049.63 3362.92,-1598.62 3528.15,-1492.43"/>
<polygon fill="black" stroke="black" points="3530.42,-1495.13 3536.94,-1486.78 3526.64,-1489.24 3530.42,-1495.13"/>
</g>
<!-- u23&#45;&gt;u20 -->
<g id="edge40" class="edge">
<title>u23&#45;&gt;u20</title>
<path fill="none" stroke="black" d="M354.33,-1798.37C243.9,-1750.4 -64.25,-1599.51 45.05,-1451 160.38,-1294.29 757.66,-1179.83 996.34,-1139.68"/>
<polygon fill="black" stroke="black" points="997.12,-1143.1 1006.4,-1138 995.96,-1136.2 997.12,-1143.1"/>
</g>
<!-- u22 -->
<g id="node5" class="node">
<title>u22</title>
<ellipse fill="#bbffbb" stroke="black" cx="3003.05" cy="-2852" rx="108.58" ry="18"/>
<text text-anchor="middle" x="3003.05" y="-2848.3" font-family="Times,serif" font-size="14.00">Drasil.SRSDocument</text>
</g>
<!-- u21 -->
<g id="node6" class="node">
<title>u21</title>
<ellipse fill="#bbffbb" stroke="black" cx="3003.05" cy="-2506" rx="81.79" ry="18"/>
<text text-anchor="middle" x="3003.05" y="-2502.3" font-family="Times,serif" font-size="14.00">Drasil.DocLang</text>
</g>
<!-- u22&#45;&gt;u21 -->
<g id="edge39" class="edge">
<title>u22&#45;&gt;u21</title>
<path fill="none" stroke="black" d="M3003.05,-2833.94C3003.05,-2778.46 3003.05,-2602.81 3003.05,-2534.53"/>
<polygon fill="black" stroke="black" points="3006.55,-2534.16 3003.05,-2524.16 2999.55,-2534.16 3006.55,-2534.16"/>
</g>
<!-- u21&#45;&gt;u24 -->
<g id="edge38" class="edge">
<title>u21&#45;&gt;u24</title>
<path fill="none" stroke="black" d="M2978.7,-2488.64C2895.25,-2432.57 2620.7,-2248.11 2524.61,-2183.55"/>
<polygon fill="black" stroke="black" points="2526.4,-2180.54 2516.15,-2177.86 2522.49,-2186.35 2526.4,-2180.54"/>
</g>
<!-- u19 -->
<g id="node16" class="node">
<title>u19</title>
<ellipse fill="#ffbbbb" stroke="black" cx="3811.05" cy="-2160" rx="276.75" ry="18"/>
<text text-anchor="middle" x="3811.05" y="-2156.3" font-family="Times,serif" font-size="14.00">Drasil.DocumentLanguage.Notebook.DocumentLanguage</text>
</g>
<!-- u21&#45;&gt;u19 -->
<g id="edge37" class="edge">
<title>u21&#45;&gt;u19</title>
<path fill="none" stroke="black" d="M3038.81,-2489.77C3168.36,-2434.62 3613.31,-2245.19 3762.12,-2181.83"/>
<polygon fill="black" stroke="black" points="3763.66,-2184.98 3771.49,-2177.84 3760.92,-2178.54 3763.66,-2184.98"/>
</g>
<!-- u0&#45;&gt;u20 -->
<g id="edge2" class="edge">
<title>u0&#45;&gt;u20</title>
<path fill="none" stroke="black" d="M550.8,-1800.38C374,-1762.02 -75.6,-1643.21 65.05,-1451 178.02,-1296.6 764.7,-1180.67 998.62,-1139.91"/>
<polygon fill="black" stroke="black" points="999.22,-1143.36 1008.48,-1138.2 998.03,-1136.46 999.22,-1143.36"/>
</g>
<!-- u2 -->
<g id="node29" class="node">
<title>u2</title>
<ellipse fill="#bbffff" stroke="black" cx="598.05" cy="-1469" rx="207.96" ry="18"/>
<text text-anchor="middle" x="598.05" y="-1465.3" font-family="Times,serif" font-size="14.00">Drasil.Sections.SpecificSystemDescription</text>
</g>
<!-- u0&#45;&gt;u2 -->
<g id="edge1" class="edge">
<title>u0&#45;&gt;u2</title>
<path fill="none" stroke="black" d="M618,-1796.94C614.62,-1741.46 603.89,-1565.81 599.73,-1497.53"/>
<polygon fill="black" stroke="black" points="603.2,-1496.93 599.09,-1487.16 596.21,-1497.36 603.2,-1496.93"/>
</g>
<!-- u12 -->
<g id="node19" class="node">
<title>u12</title>
<ellipse fill="#bbffff" stroke="black" cx="1001.05" cy="-1469" rx="177.37" ry="18"/>
<text text-anchor="middle" x="1001.05" y="-1465.3" font-family="Times,serif" font-size="14.00">Drasil.Sections.TraceabilityMandGs</text>
</g>
<!-- u28&#45;&gt;u12 -->
<g id="edge56" class="edge">
<title>u28&#45;&gt;u12</title>
<path fill="none" stroke="black" d="M1491.81,-1797.18C1406.95,-1740.6 1131.81,-1557.17 1035.07,-1492.68"/>
<polygon fill="black" stroke="black" points="1036.8,-1489.63 1026.54,-1487 1032.92,-1495.45 1036.8,-1489.63"/>
</g>
<!-- u8 -->
<g id="node23" class="node">
<title>u8</title>
<ellipse fill="#bbffff" stroke="black" cx="2471.05" cy="-1469" rx="172.47" ry="18"/>
<text text-anchor="middle" x="2471.05" y="-1465.3" font-family="Times,serif" font-size="14.00">Drasil.Sections.AuxiliaryConstants</text>
</g>
<!-- u28&#45;&gt;u8 -->
<g id="edge55" class="edge">
<title>u28&#45;&gt;u8</title>
<path fill="none" stroke="black" d="M1561.78,-1797.87C1718.7,-1741.29 2243.91,-1551.9 2415.96,-1489.86"/>
<polygon fill="black" stroke="black" points="2417.36,-1493.08 2425.58,-1486.4 2414.98,-1486.5 2417.36,-1493.08"/>
</g>
<!-- u7 -->
<g id="node24" class="node">
<title>u7</title>
<ellipse fill="#bbffff" stroke="black" cx="2042.05" cy="-1469" rx="201.46" ry="18"/>
<text text-anchor="middle" x="2042.05" y="-1465.3" font-family="Times,serif" font-size="14.00">Drasil.Sections.TableOfAbbAndAcronyms</text>
</g>
<!-- u28&#45;&gt;u7 -->
<g id="edge54" class="edge">
<title>u28&#45;&gt;u7</title>
<path fill="none" stroke="black" d="M1542.72,-1797.18C1629.15,-1740.54 1909.57,-1556.8 2007.73,-1492.49"/>
<polygon fill="black" stroke="black" points="2009.66,-1495.4 2016.11,-1487 2005.83,-1489.55 2009.66,-1495.4"/>
</g>
<!-- u6 -->
<g id="node25" class="node">
<title>u6</title>
<ellipse fill="#bbffff" stroke="black" cx="1356.05" cy="-1469" rx="159.47" ry="18"/>
<text text-anchor="middle" x="1356.05" y="-1465.3" font-family="Times,serif" font-size="14.00">Drasil.Sections.TableOfSymbols</text>
</g>
<!-- u28&#45;&gt;u6 -->
<g id="edge53" class="edge">
<title>u28&#45;&gt;u6</title>
<path fill="none" stroke="black" d="M1509.06,-1796.94C1482.94,-1741.12 1399.87,-1563.64 1368.34,-1496.27"/>
<polygon fill="black" stroke="black" points="1371.49,-1494.74 1364.08,-1487.16 1365.15,-1497.7 1371.49,-1494.74"/>
</g>
<!-- u28&#45;&gt;u5 -->
<g id="edge52" class="edge">
<title>u28&#45;&gt;u5</title>
<path fill="none" stroke="black" d="M1459.35,-1798.66C1248.41,-1742.58 519.43,-1548.79 291.63,-1488.23"/>
<polygon fill="black" stroke="black" points="292.36,-1484.81 281.8,-1485.62 290.57,-1491.57 292.36,-1484.81"/>
</g>
<!-- u4 -->
<g id="node27" class="node">
<title>u4</title>
<ellipse fill="#bbffff" stroke="black" cx="1678.05" cy="-1469" rx="144.87" ry="18"/>
<text text-anchor="middle" x="1678.05" y="-1465.3" font-family="Times,serif" font-size="14.00">Drasil.Sections.TableOfUnits</text>
</g>
<!-- u28&#45;&gt;u4 -->
<g id="edge51" class="edge">
<title>u28&#45;&gt;u4</title>
<path fill="none" stroke="black" d="M1525.03,-1796.94C1551.16,-1741.12 1634.22,-1563.64 1665.75,-1496.27"/>
<polygon fill="black" stroke="black" points="1668.94,-1497.7 1670.01,-1487.16 1662.6,-1494.74 1668.94,-1497.7"/>
</g>
<!-- u28&#45;&gt;u2 -->
<g id="edge50" class="edge">
<title>u28&#45;&gt;u2</title>
<path fill="none" stroke="black" d="M1473.95,-1797.87C1323.04,-1741.38 818.51,-1552.53 651.93,-1490.17"/>
<polygon fill="black" stroke="black" points="652.98,-1486.82 642.38,-1486.6 650.52,-1493.38 652.98,-1486.82"/>
</g>
<!-- u27 -->
<g id="node9" class="node">
<title>u27</title>
<ellipse fill="#ffffbb" stroke="black" cx="2690.05" cy="-1123" rx="104.78" ry="18"/>
<text text-anchor="middle" x="2690.05" y="-1119.3" font-family="Times,serif" font-size="14.00">Drasil.DocLang.SRS</text>
</g>
<!-- u26 -->
<g id="node10" class="node">
<title>u26</title>
<ellipse fill="#ffffbb" stroke="black" cx="3890.05" cy="-1815" rx="129.18" ry="18"/>
<text text-anchor="middle" x="3890.05" y="-1811.3" font-family="Times,serif" font-size="14.00">Drasil.DocLang.Notebook</text>
</g>
<!-- u14 -->
<g id="node14" class="node">
<title>u14</title>
<ellipse fill="#bbbbff" stroke="black" cx="1143.05" cy="-778" rx="223.66" ry="18"/>
<text text-anchor="middle" x="1143.05" y="-774.3" font-family="Times,serif" font-size="14.00">Drasil.DocumentLanguage.TraceabilityMatrix</text>
</g>
<!-- u20&#45;&gt;u14 -->
<g id="edge36" class="edge">
<title>u20&#45;&gt;u14</title>
<path fill="none" stroke="black" d="M1097.43,-1104.99C1105.18,-1049.56 1129.78,-873.81 1139.26,-806.03"/>
<polygon fill="black" stroke="black" points="1142.73,-806.5 1140.65,-796.11 1135.8,-805.53 1142.73,-806.5"/>
</g>
<!-- u16 -->
<g id="node12" class="node">
<title>u16</title>
<ellipse fill="#bbbbff" stroke="black" cx="2071.05" cy="-86" rx="162.47" ry="18"/>
<text text-anchor="middle" x="2071.05" y="-82.3" font-family="Times,serif" font-size="14.00">Drasil.DocumentLanguage.Units</text>
</g>
<!-- u15&#45;&gt;u27 -->
<g id="edge31" class="edge">
<title>u15&#45;&gt;u27</title>
<path fill="none" stroke="black" d="M2316.38,-1797.12C2389.92,-1755.6 2573.32,-1640.6 2652.05,-1487 2710.12,-1373.69 2700.44,-1214.62 2693.59,-1151.43"/>
<polygon fill="black" stroke="black" points="2697.02,-1150.65 2692.4,-1141.12 2690.07,-1151.45 2697.02,-1150.65"/>
</g>
<!-- u15&#45;&gt;u12 -->
<g id="edge30" class="edge">
<title>u15&#45;&gt;u12</title>
<path fill="none" stroke="black" d="M2223.98,-1797.64C2010.24,-1740.38 1296.5,-1549.16 1070.38,-1488.58"/>
<polygon fill="black" stroke="black" points="1071.19,-1485.17 1060.62,-1485.96 1069.38,-1491.93 1071.19,-1485.17"/>
</g>
<!-- u3 -->
<g id="node28" class="node">
<title>u3</title>
<ellipse fill="#bbffff" stroke="black" cx="2042.05" cy="-1123" rx="170.07" ry="18"/>
<text text-anchor="middle" x="2042.05" y="-1119.3" font-family="Times,serif" font-size="14.00">Drasil.Sections.ReferenceMaterial</text>
</g>
<!-- u15&#45;&gt;u3 -->
<g id="edge29" class="edge">
<title>u15&#45;&gt;u3</title>
<path fill="none" stroke="black" d="M2286.32,-1796.76C2289.65,-1743.56 2295.61,-1577.88 2252.05,-1451 2209.09,-1325.92 2108.8,-1200.67 2064.16,-1148.85"/>
<polygon fill="black" stroke="black" points="2066.69,-1146.42 2057.49,-1141.17 2061.41,-1151.01 2066.69,-1146.42"/>
</g>
<!-- u13 -->
<g id="node15" class="node">
<title>u13</title>
<ellipse fill="#bbbbff" stroke="black" cx="2071.05" cy="-432" rx="187.37" ry="18"/>
<text text-anchor="middle" x="2071.05" y="-428.3" font-family="Times,serif" font-size="14.00">Drasil.DocumentLanguage.Definitions</text>
</g>
<!-- u14&#45;&gt;u13 -->
<g id="edge28" class="edge">
<title>u14&#45;&gt;u13</title>
<path fill="none" stroke="black" d="M1188.12,-760.29C1342.48,-703.07 1849.57,-515.1 2016.92,-453.06"/>
<polygon fill="black" stroke="black" points="2018.35,-456.27 2026.51,-449.51 2015.92,-449.7 2018.35,-456.27"/>
</g>
<!-- u13&#45;&gt;u25 -->
<g id="edge27" class="edge">
<title>u13&#45;&gt;u25</title>
<path fill="none" stroke="black" d="M2121.46,-414.64C2298.51,-357.18 2891.14,-164.86 3075.69,-104.96"/>
<polygon fill="black" stroke="black" points="3077.03,-108.21 3085.46,-101.79 3074.87,-101.55 3077.03,-108.21"/>
</g>
<!-- u13&#45;&gt;u16 -->
<g id="edge26" class="edge">
<title>u13&#45;&gt;u16</title>
<path fill="none" stroke="black" d="M2071.05,-413.94C2071.05,-358.46 2071.05,-182.81 2071.05,-114.53"/>
<polygon fill="black" stroke="black" points="2074.55,-114.16 2071.05,-104.16 2067.55,-114.16 2074.55,-114.16"/>
</g>
<!-- u19&#45;&gt;u25 -->
<g id="edge34" class="edge">
<title>u19&#45;&gt;u25</title>
<path fill="none" stroke="black" d="M3807.13,-2141.8C3796.32,-2093.45 3765.89,-1952.12 3752.05,-1833 3733.4,-1672.53 3733.05,-1631.55 3733.05,-1470 3733.05,-1470 3733.05,-1470 3733.05,-777 3733.05,-434.72 3307.23,-180.12 3171.85,-107.82"/>
<polygon fill="black" stroke="black" points="3173.46,-104.71 3162.99,-103.13 3170.19,-110.9 3173.46,-104.71"/>
</g>
<!-- u19&#45;&gt;u26 -->
<g id="edge35" class="edge">
<title>u19&#45;&gt;u26</title>
<path fill="none" stroke="black" d="M3814.96,-2141.99C3827.73,-2086.56 3868.21,-1910.81 3883.82,-1843.03"/>
<polygon fill="black" stroke="black" points="3887.27,-1843.64 3886.1,-1833.11 3880.45,-1842.07 3887.27,-1843.64"/>
</g>
<!-- u17 -->
<g id="node18" class="node">
<title>u17</title>
<ellipse fill="#ffbbbb" stroke="black" cx="4259.05" cy="-1815" rx="221.76" ry="18"/>
<text text-anchor="middle" x="4259.05" y="-1811.3" font-family="Times,serif" font-size="14.00">Drasil.DocumentLanguage.Notebook.LsnDecl</text>
</g>
<!-- u19&#45;&gt;u17 -->
<g id="edge33" class="edge">
<title>u19&#45;&gt;u17</title>
<path fill="none" stroke="black" d="M3833.26,-2141.99C3907,-2085.53 4143.76,-1904.26 4228.51,-1839.38"/>
<polygon fill="black" stroke="black" points="4230.88,-1841.97 4236.69,-1833.11 4226.63,-1836.41 4230.88,-1841.97"/>
</g>
<!-- u18 -->
<g id="node17" class="node">
<title>u18</title>
<ellipse fill="#ffbbbb" stroke="black" cx="4259.05" cy="-1469" rx="206.06" ry="18"/>
<text text-anchor="middle" x="4259.05" y="-1465.3" font-family="Times,serif" font-size="14.00">Drasil.DocumentLanguage.Notebook.Core</text>
</g>
<!-- u17&#45;&gt;u18 -->
<g id="edge32" class="edge">
<title>u17&#45;&gt;u18</title>
<path fill="none" stroke="black" d="M4259.05,-1796.94C4259.05,-1741.46 4259.05,-1565.81 4259.05,-1497.53"/>
<polygon fill="black" stroke="black" points="4262.55,-1497.16 4259.05,-1487.16 4255.55,-1497.16 4262.55,-1497.16"/>
</g>
<!-- u12&#45;&gt;u20 -->
<g id="edge25" class="edge">
<title>u12&#45;&gt;u20</title>
<path fill="none" stroke="black" d="M1005.71,-1450.94C1020.9,-1395.35 1069.06,-1219.09 1087.64,-1151.11"/>
<polygon fill="black" stroke="black" points="1091.1,-1151.73 1090.36,-1141.16 1084.34,-1149.89 1091.1,-1151.73"/>
</g>
<!-- u11&#45;&gt;u27 -->
<g id="edge24" class="edge">
<title>u11&#45;&gt;u27</title>
<path fill="none" stroke="black" d="M2695.9,-1796.94C2695.1,-1704.76 2691.28,-1265.99 2690.28,-1151.42"/>
<polygon fill="black" stroke="black" points="2693.78,-1151.05 2690.19,-1141.08 2686.78,-1151.11 2693.78,-1151.05"/>
</g>
<!-- u10&#45;&gt;u27 -->
<g id="edge23" class="edge">
<title>u10&#45;&gt;u27</title>
<path fill="none" stroke="black" d="M2887.73,-1450.94C2853.91,-1395.01 2746.22,-1216.91 2705.68,-1149.86"/>
<polygon fill="black" stroke="black" points="2708.59,-1147.91 2700.42,-1141.16 2702.6,-1151.53 2708.59,-1147.91"/>
</g>
<!-- u10&#45;&gt;u20 -->
<g id="edge22" class="edge">
<title>u10&#45;&gt;u20</title>
<path fill="none" stroke="black" d="M2820.28,-1453.16C2527.38,-1397.28 1491.67,-1199.67 1182.69,-1140.72"/>
<polygon fill="black" stroke="black" points="1182.92,-1137.2 1172.44,-1138.77 1181.61,-1144.08 1182.92,-1137.2"/>
</g>
<!-- u9&#45;&gt;u27 -->
<g id="edge21" class="edge">
<title>u9&#45;&gt;u27</title>
<path fill="none" stroke="black" d="M3213.15,-1451.18C3122.39,-1394.41 2827.47,-1209.95 2725.29,-1146.04"/>
<polygon fill="black" stroke="black" points="2726.91,-1142.93 2716.57,-1140.59 2723.19,-1148.86 2726.91,-1142.93"/>
</g>
<!-- u9&#45;&gt;u3 -->
<g id="edge20" class="edge">
<title>u9&#45;&gt;u3</title>
<path fill="none" stroke="black" d="M3184.27,-1451.98C2986.59,-1395.22 2319.9,-1203.78 2107.58,-1142.82"/>
<polygon fill="black" stroke="black" points="2108.39,-1139.41 2097.81,-1140.01 2106.46,-1146.14 2108.39,-1139.41"/>
</g>
<!-- u8&#45;&gt;u27 -->
<g id="edge19" class="edge">
<title>u8&#45;&gt;u27</title>
<path fill="none" stroke="black" d="M2481.91,-1450.94C2517.52,-1395.01 2630.9,-1216.91 2673.58,-1149.86"/>
<polygon fill="black" stroke="black" points="2676.7,-1151.48 2679.12,-1141.16 2670.8,-1147.72 2676.7,-1151.48"/>
</g>
<!-- u8&#45;&gt;u16 -->
<g id="edge18" class="edge">
<title>u8&#45;&gt;u16</title>
<path fill="none" stroke="black" d="M2469.97,-1450.98C2463.12,-1349.57 2420.79,-815.66 2267.05,-414 2220.54,-292.5 2129.9,-164.8 2090.32,-112.05"/>
<polygon fill="black" stroke="black" points="2093.02,-109.82 2084.2,-103.95 2087.43,-114.04 2093.02,-109.82"/>
</g>
<!-- u8&#45;&gt;u3 -->
<g id="edge17" class="edge">
<title>u8&#45;&gt;u3</title>
<path fill="none" stroke="black" d="M2449.77,-1450.94C2379.08,-1394.25 2151.91,-1212.1 2071,-1147.22"/>
<polygon fill="black" stroke="black" points="2073.19,-1144.48 2063.19,-1140.96 2068.81,-1149.95 2073.19,-1144.48"/>
</g>
<!-- u7&#45;&gt;u3 -->
<g id="edge16" class="edge">
<title>u7&#45;&gt;u3</title>
<path fill="none" stroke="black" d="M2042.05,-1450.94C2042.05,-1395.46 2042.05,-1219.81 2042.05,-1151.53"/>
<polygon fill="black" stroke="black" points="2045.55,-1151.16 2042.05,-1141.16 2038.55,-1151.16 2045.55,-1151.16"/>
</g>
<!-- u6&#45;&gt;u20 -->
<g id="edge15" class="edge">
<title>u6&#45;&gt;u20</title>
<path fill="none" stroke="black" d="M1343.1,-1450.94C1300.58,-1394.89 1164.98,-1216.18 1114.36,-1149.45"/>
<polygon fill="black" stroke="black" points="1116.9,-1147.01 1108.07,-1141.16 1111.32,-1151.24 1116.9,-1147.01"/>
</g>
<!-- u6&#45;&gt;u3 -->
<g id="edge14" class="edge">
<title>u6&#45;&gt;u3</title>
<path fill="none" stroke="black" d="M1389.6,-1451.18C1503.23,-1394.19 1873.49,-1208.52 1999.56,-1145.3"/>
<polygon fill="black" stroke="black" points="2001.19,-1148.4 2008.56,-1140.79 1998.05,-1142.15 2001.19,-1148.4"/>
</g>
<!-- u5&#45;&gt;u27 -->
<g id="edge13" class="edge">
<title>u5&#45;&gt;u27</title>
<path fill="none" stroke="black" d="M316.74,-1454.93C709.32,-1400.19 2219.12,-1189.67 2601.59,-1136.33"/>
<polygon fill="black" stroke="black" points="2602.07,-1139.8 2611.49,-1134.95 2601.11,-1132.87 2602.07,-1139.8"/>
</g>
<!-- u5&#45;&gt;u16 -->
<g id="edge12" class="edge">
<title>u5&#45;&gt;u16</title>
<path fill="none" stroke="black" d="M328.17,-1456.19C526.92,-1429.55 964.56,-1349.93 1263.05,-1141 1480.23,-988.98 1959.18,-259.65 2054.4,-112.8"/>
<polygon fill="black" stroke="black" points="2057.61,-114.27 2060.11,-103.98 2051.73,-110.47 2057.61,-114.27"/>
</g>
<!-- u5&#45;&gt;u3 -->
<g id="edge11" class="edge">
<title>u5&#45;&gt;u3</title>
<path fill="none" stroke="black" d="M299.75,-1453.49C592.67,-1398.1 1639.9,-1200.05 1953.01,-1140.84"/>
<polygon fill="black" stroke="black" points="1953.77,-1144.26 1962.94,-1138.96 1952.47,-1137.38 1953.77,-1144.26"/>
</g>
<!-- u4&#45;&gt;u20 -->
<g id="edge10" class="edge">
<title>u4&#45;&gt;u20</title>
<path fill="none" stroke="black" d="M1649.53,-1451.18C1553.25,-1394.36 1240.18,-1209.64 1132.12,-1145.88"/>
<polygon fill="black" stroke="black" points="1133.9,-1142.86 1123.5,-1140.79 1130.34,-1148.89 1133.9,-1142.86"/>
</g>
<!-- u4&#45;&gt;u3 -->
<g id="edge9" class="edge">
<title>u4&#45;&gt;u3</title>
<path fill="none" stroke="black" d="M1696.1,-1450.94C1755.77,-1394.55 1946.83,-1213.99 2016.4,-1148.24"/>
<polygon fill="black" stroke="black" points="2019.02,-1150.57 2023.89,-1141.16 2014.21,-1145.49 2019.02,-1150.57"/>
</g>
<!-- u2&#45;&gt;u27 -->
<g id="edge8" class="edge">
<title>u2&#45;&gt;u27</title>
<path fill="none" stroke="black" d="M690.3,-1452.83C1039.17,-1395.46 2274.93,-1192.26 2607.25,-1137.62"/>
<polygon fill="black" stroke="black" points="2607.98,-1141.04 2617.28,-1135.97 2606.85,-1134.13 2607.98,-1141.04"/>
</g>
<!-- u2&#45;&gt;u13 -->
<g id="edge7" class="edge">
<title>u2&#45;&gt;u13</title>
<path fill="none" stroke="black" d="M677.14,-1452.35C899.59,-1407.1 1524.88,-1271.03 1685.05,-1141 1923.84,-947.13 2037.06,-564.55 2064.37,-459.97"/>
<polygon fill="black" stroke="black" points="2067.78,-460.75 2066.88,-450.2 2061,-459.01 2067.78,-460.75"/>
</g>
<!-- u2&#45;&gt;u3 -->
<g id="edge6" class="edge">
<title>u2&#45;&gt;u3</title>
<path fill="none" stroke="black" d="M665.76,-1451.87C905.66,-1394.72 1714.25,-1202.09 1966.34,-1142.03"/>
<polygon fill="black" stroke="black" points="1967.23,-1145.42 1976.14,-1139.7 1965.6,-1138.61 1967.23,-1145.42"/>
</g>
<!-- u1&#45;&gt;u27 -->
<g id="edge5" class="edge">
<title>u1&#45;&gt;u27</title>
<path fill="none" stroke="black" d="M3521.82,-1451.75C3377.48,-1394.88 2895.25,-1204.86 2739.21,-1143.37"/>
<polygon fill="black" stroke="black" points="2740.43,-1140.09 2729.85,-1139.68 2737.87,-1146.61 2740.43,-1140.09"/>
</g>
<!-- u1&#45;&gt;u13 -->
<g id="edge4" class="edge">
<title>u1&#45;&gt;u13</title>
<path fill="none" stroke="black" d="M3538.7,-1451.11C3364.17,-1330.04 2304.6,-595.01 2103.86,-455.76"/>
<polygon fill="black" stroke="black" points="2105.69,-452.77 2095.48,-449.95 2101.7,-458.52 2105.69,-452.77"/>
</g>
<!-- u1&#45;&gt;u3 -->
<g id="edge3" class="edge">
<title>u1&#45;&gt;u3</title>
<path fill="none" stroke="black" d="M3496.71,-1453C3250.16,-1397.24 2387.11,-1202.04 2120.86,-1141.83"/>
<polygon fill="black" stroke="black" points="2121.42,-1138.36 2110.89,-1139.57 2119.87,-1145.19 2121.42,-1138.36"/>
</g>
</g>
</svg>
