<?xml version="1.0" encoding="UTF-8" standalone="no"?>
<!DOCTYPE svg PUBLIC "-//W3C//DTD SVG 1.1//EN"
 "http://www.w3.org/Graphics/SVG/1.1/DTD/svg11.dtd">
<!-- Generated by graphviz version 2.43.0 (0)
 -->
<!-- Title: G Pages: 1 -->
<svg width="431pt" height="288pt"
 viewBox="0.00 0.00 431.08 288.00" xmlns="http://www.w3.org/2000/svg" xmlns:xlink="http://www.w3.org/1999/xlink">
<g id="graph0" class="graph" transform="scale(0.25 0.25) rotate(0) translate(4 1134.67)">
<title>G</title>
<polygon fill="white" stroke="transparent" points="-4,4 -4,-1134.67 1700.37,-1134.67 1700.37,4 -4,4"/>
<!-- u7 -->
<g id="node1" class="node">
<title>u7</title>
<ellipse fill="#bbffbb" stroke="black" cx="152.09" cy="-404" rx="152.17" ry="18"/>
<text text-anchor="middle" x="152.09" y="-400.3" font-family="Times,serif" font-size="14.00">Drasil.Website.Documentation</text>
</g>
<!-- u6 -->
<g id="node2" class="node">
<title>u6</title>
<ellipse fill="#bbffbb" stroke="black" cx="431.09" cy="-404" rx="108.58" ry="18"/>
<text text-anchor="middle" x="431.09" y="-400.3" font-family="Times,serif" font-size="14.00">Drasil.Website.About</text>
</g>
<!-- u5 -->
<g id="node3" class="node">
<title>u5</title>
<ellipse fill="#bbffbb" stroke="black" cx="678.09" cy="-404" rx="120.48" ry="18"/>
<text text-anchor="middle" x="678.09" y="-400.3" font-family="Times,serif" font-size="14.00">Drasil.Website.Analysis</text>
</g>
<!-- u4 -->
<g id="node4" class="node">
<title>u4</title>
<ellipse fill="#bbffbb" stroke="black" cx="1565.09" cy="-81" rx="122.38" ry="18"/>
<text text-anchor="middle" x="1565.09" y="-77.3" font-family="Times,serif" font-size="14.00">Drasil.Website.Example</text>
</g>
<!-- u3 -->
<g id="node5" class="node">
<title>u3</title>
<ellipse fill="#bbffbb" stroke="black" cx="968.09" cy="-404" rx="151.37" ry="18"/>
<text text-anchor="middle" x="968.09" y="-400.3" font-family="Times,serif" font-size="14.00">Drasil.Website.GettingStarted</text>
</g>
<!-- u2 -->
<g id="node6" class="node">
<title>u2</title>
<ellipse fill="#bbffbb" stroke="black" cx="1277.09" cy="-404" rx="139.18" ry="18"/>
<text text-anchor="middle" x="1277.09" y="-400.3" font-family="Times,serif" font-size="14.00">Drasil.Website.Introduction</text>
</g>
<!-- u1 -->
<g id="node7" class="node">
<title>u1</title>
<ellipse fill="#bbffbb" stroke="black" cx="1565.09" cy="-404" rx="131.08" ry="18"/>
<text text-anchor="middle" x="1565.09" y="-400.3" font-family="Times,serif" font-size="14.00">Drasil.Website.CaseStudy</text>
</g>
<!-- u1&#45;&gt;u4 -->
<g id="edge7" class="edge">
<title>u1&#45;&gt;u4</title>
<path fill="none" stroke="black" d="M1565.09,-385.74C1565.09,-333.05 1565.09,-173.96 1565.09,-109.54"/>
<polygon fill="black" stroke="black" points="1568.59,-109.34 1565.09,-99.34 1561.59,-109.34 1568.59,-109.34"/>
</g>
<!-- u0 -->
<g id="node8" class="node">
<title>u0</title>
<ellipse fill="#bbffbb" stroke="black" cx="823.09" cy="-727" rx="104.78" ry="18"/>
<text text-anchor="middle" x="823.09" y="-723.3" font-family="Times,serif" font-size="14.00">Drasil.Website.Body</text>
</g>
<!-- u0&#45;&gt;u7 -->
<g id="edge6" class="edge">
<title>u0&#45;&gt;u7</title>
<path fill="none" stroke="black" d="M789.35,-709.86C677.85,-656.52 321.15,-485.88 195.99,-426"/>
<polygon fill="black" stroke="black" points="197.22,-422.71 186.69,-421.55 194.2,-429.03 197.22,-422.71"/>
</g>
<!-- u0&#45;&gt;u6 -->
<g id="edge5" class="edge">
<title>u0&#45;&gt;u6</title>
<path fill="none" stroke="black" d="M802.56,-709.19C737.49,-655.91 535.62,-490.6 460.04,-428.71"/>
<polygon fill="black" stroke="black" points="461.83,-425.66 451.88,-422.03 457.4,-431.07 461.83,-425.66"/>
</g>
<!-- u0&#45;&gt;u5 -->
<g id="edge4" class="edge">
<title>u0&#45;&gt;u5</title>
<path fill="none" stroke="black" d="M815.29,-708.74C791.39,-655.84 719.03,-495.65 690.17,-431.74"/>
<polygon fill="black" stroke="black" points="693.23,-430.02 685.92,-422.34 686.85,-432.9 693.23,-430.02"/>
</g>
<!-- u0&#45;&gt;u3 -->
<g id="edge3" class="edge">
<title>u0&#45;&gt;u3</title>
<path fill="none" stroke="black" d="M830.88,-708.74C854.78,-655.84 927.14,-495.65 956.01,-431.74"/>
<polygon fill="black" stroke="black" points="959.33,-432.9 960.25,-422.34 952.95,-430.02 959.33,-432.9"/>
</g>
<!-- u0&#45;&gt;u2 -->
<g id="edge2" class="edge">
<title>u0&#45;&gt;u2</title>
<path fill="none" stroke="black" d="M846.54,-709.42C921.94,-656.11 1158.23,-489.04 1244.85,-427.8"/>
<polygon fill="black" stroke="black" points="1247.08,-430.5 1253.23,-421.87 1243.04,-424.78 1247.08,-430.5"/>
</g>
<!-- u0&#45;&gt;u1 -->
<g id="edge1" class="edge">
<title>u0&#45;&gt;u1</title>
<path fill="none" stroke="black" d="M859.88,-710.08C982.96,-656.84 1380.26,-484.96 1517.74,-425.48"/>
<polygon fill="black" stroke="black" points="1519.4,-428.58 1527.18,-421.4 1516.62,-422.16 1519.4,-428.58"/>
</g>
<!-- u8 -->
<g id="node9" class="node">
<title>u8</title>
<ellipse fill="#ffffbb" stroke="black" cx="823.09" cy="-1050" rx="122.38" ry="18"/>
<text text-anchor="middle" x="823.09" y="-1046.3" font-family="Times,serif" font-size="14.00">drasil&#45;website.app.Main</text>
</g>
<!-- u8&#45;&gt;u0 -->
<g id="edge8" class="edge">
<title>u8&#45;&gt;u0</title>
<path fill="none" stroke="black" d="M823.09,-1031.74C823.09,-979.05 823.09,-819.96 823.09,-755.54"/>
<polygon fill="black" stroke="black" points="826.59,-755.34 823.09,-745.34 819.59,-755.34 826.59,-755.34"/>
</g>
</g>
</svg>
