<?xml version="1.0" encoding="UTF-8" standalone="no"?>
<!DOCTYPE svg PUBLIC "-//W3C//DTD SVG 1.1//EN"
 "http://www.w3.org/Graphics/SVG/1.1/DTD/svg11.dtd">
<!-- Generated by graphviz version 2.43.0 (0)
 -->
<!-- Title: G Pages: 1 -->
<svg width="430pt" height="288pt"
 viewBox="0.00 0.00 430.27 288.00" xmlns="http://www.w3.org/2000/svg" xmlns:xlink="http://www.w3.org/1999/xlink">
<g id="graph0" class="graph" transform="scale(0.45 0.45) rotate(0) translate(4 640.67)">
<title>G</title>
<polygon fill="white" stroke="transparent" points="-4,4 -4,-640.67 959.13,-640.67 959.13,4 -4,4"/>
<!-- u0 -->
<g id="node1" class="node">
<title>u0</title>
<ellipse fill="#bbffbb" stroke="black" cx="430.34" cy="-573" rx="85.59" ry="18"/>
<text text-anchor="middle" x="430.34" y="-569.3" font-family="Times,serif" font-size="14.00">Drasil.Metadata</text>
</g>
<!-- u4 -->
<g id="node2" class="node">
<title>u4</title>
<ellipse fill="#ffffbb" stroke="black" cx="116.34" cy="-318" rx="116.18" ry="18"/>
<text text-anchor="middle" x="116.34" y="-314.3" font-family="Times,serif" font-size="14.00">Drasil.Metadata.Drasil</text>
</g>
<!-- u0&#45;&gt;u4 -->
<g id="edge3" class="edge">
<title>u0&#45;&gt;u4</title>
<path fill="none" stroke="black" d="M409.74,-555.4C355.42,-511.63 208.17,-392.99 145.36,-342.39"/>
<polygon fill="black" stroke="black" points="147.41,-339.54 137.43,-335.99 143.02,-344.99 147.41,-339.54"/>
</g>
<!-- u3 -->
<g id="node3" class="node">
<title>u3</title>
<ellipse fill="#ffffbb" stroke="black" cx="430.34" cy="-318" rx="179.27" ry="18"/>
<text text-anchor="middle" x="430.34" y="-314.3" font-family="Times,serif" font-size="14.00">Drasil.Metadata.SupportedSoftware</text>
</g>
<!-- u0&#45;&gt;u3 -->
<g id="edge2" class="edge">
<title>u0&#45;&gt;u3</title>
<path fill="none" stroke="black" d="M430.34,-554.61C430.34,-511.36 430.34,-398.65 430.34,-346.37"/>
<polygon fill="black" stroke="black" points="433.84,-346.18 430.34,-336.18 426.84,-346.18 433.84,-346.18"/>
</g>
<!-- u1 -->
<g id="node5" class="node">
<title>u1</title>
<ellipse fill="#ffffbb" stroke="black" cx="791.34" cy="-318" rx="163.57" ry="18"/>
<text text-anchor="middle" x="791.34" y="-314.3" font-family="Times,serif" font-size="14.00">Drasil.Metadata.TheoryConcepts</text>
</g>
<!-- u0&#45;&gt;u1 -->
<g id="edge1" class="edge">
<title>u0&#45;&gt;u1</title>
<path fill="none" stroke="black" d="M453.75,-555.59C516.21,-511.82 686.93,-392.18 758.78,-341.82"/>
<polygon fill="black" stroke="black" points="760.86,-344.64 767.04,-336.03 756.84,-338.9 760.86,-344.64"/>
</g>
<!-- u2 -->
<g id="node4" class="node">
<title>u2</title>
<ellipse fill="#ffffbb" stroke="black" cx="791.34" cy="-64" rx="129.18" ry="18"/>
<text text-anchor="middle" x="791.34" y="-60.3" font-family="Times,serif" font-size="14.00">Drasil.Metadata.Domains</text>
</g>
<!-- u1&#45;&gt;u2 -->
<g id="edge4" class="edge">
<title>u1&#45;&gt;u2</title>
<path fill="none" stroke="black" d="M791.34,-299.68C791.34,-256.6 791.34,-144.33 791.34,-92.26"/>
<polygon fill="black" stroke="black" points="794.84,-92.11 791.34,-82.11 787.84,-92.11 794.84,-92.11"/>
</g>
</g>
</svg>
