<?xml version="1.0" encoding="UTF-8" standalone="no"?>
<!DOCTYPE svg PUBLIC "-//W3C//DTD SVG 1.1//EN"
 "http://www.w3.org/Graphics/SVG/1.1/DTD/svg11.dtd">
<!-- Generated by graphviz version 2.43.0 (0)
 -->
<!-- Title: G Pages: 1 -->
<svg width="431pt" height="288pt"
 viewBox="0.00 0.00 430.59 288.00" xmlns="http://www.w3.org/2000/svg" xmlns:xlink="http://www.w3.org/1999/xlink">
<g id="graph0" class="graph" transform="scale(2.64 2.64) rotate(0) translate(4 756.67)">
<title>G</title>
<polygon fill="white" stroke="transparent" points="-4,4 -4,-756.67 1133.27,-756.67 1133.27,4 -4,4"/>
<!-- u0 -->
<g id="node1" class="node">
<title>u0</title>
<ellipse fill="#bbffbb" stroke="black" cx="566.43" cy="-699" rx="135.68" ry="18"/>
<text text-anchor="middle" x="566.43" y="-695.3" font-family="Times,serif" font-size="14.00">Language.Drasil.CodeExpr</text>
</g>
<!-- u1 -->
<g id="node2" class="node">
<title>u1</title>
<ellipse fill="#ffffbb" stroke="black" cx="954.43" cy="-484" rx="168.17" ry="18"/>
<text text-anchor="middle" x="954.43" y="-480.3" font-family="Times,serif" font-size="14.00">Language.Drasil.Chunk.CodeBase</text>
</g>
<!-- u0&#45;&gt;u1 -->
<g id="edge1" class="edge">
<title>u0&#45;&gt;u1</title>
<path fill="none" stroke="black" d="M596.88,-681.29C666.49,-643.07 837.24,-549.33 914.87,-506.72"/>
<polygon fill="black" stroke="black" points="916.78,-509.66 923.86,-501.78 913.41,-503.53 916.78,-509.66"/>
</g>
<!-- u3 -->
<g id="node6" class="node">
<title>u3</title>
<ellipse fill="#ffbbbb" stroke="black" cx="177.43" cy="-269" rx="177.37" ry="18"/>
<text text-anchor="middle" x="177.43" y="-265.3" font-family="Times,serif" font-size="14.00">Language.Drasil.Code.Expr.Convert</text>
</g>
<!-- u0&#45;&gt;u3 -->
<g id="edge2" class="edge">
<title>u0&#45;&gt;u3</title>
<path fill="none" stroke="black" d="M546.19,-681.2C507.33,-648.53 420.38,-573.37 355.43,-502 291.18,-431.4 225.28,-339.34 194.82,-295.44"/>
<polygon fill="black" stroke="black" points="197.61,-293.31 189.04,-287.07 191.85,-297.29 197.61,-293.31"/>
</g>
<!-- u5 -->
<g id="node4" class="node">
<title>u5</title>
<ellipse fill="#ffbbbb" stroke="black" cx="954.43" cy="-269" rx="174.67" ry="18"/>
<text text-anchor="middle" x="954.43" y="-265.3" font-family="Times,serif" font-size="14.00">Language.Drasil.Code.Expr.Extract</text>
</g>
<!-- u1&#45;&gt;u5 -->
<g id="edge3" class="edge">
<title>u1&#45;&gt;u5</title>
<path fill="none" stroke="black" d="M954.43,-465.93C954.43,-429.08 954.43,-341.84 954.43,-297.26"/>
<polygon fill="black" stroke="black" points="957.93,-297.15 954.43,-287.15 950.93,-297.15 957.93,-297.15"/>
</g>
<!-- u6 -->
<g id="node3" class="node">
<title>u6</title>
<ellipse fill="#bbbbff" stroke="black" cx="567.43" cy="-54" rx="138.38" ry="18"/>
<text text-anchor="middle" x="567.43" y="-50.3" font-family="Times,serif" font-size="14.00">Language.Drasil.Code.Expr</text>
</g>
<!-- u5&#45;&gt;u6 -->
<g id="edge9" class="edge">
<title>u5&#45;&gt;u6</title>
<path fill="none" stroke="black" d="M923.74,-251.11C854,-212.72 683.66,-118.97 606.53,-76.52"/>
<polygon fill="black" stroke="black" points="608.04,-73.36 597.59,-71.6 604.67,-79.49 608.04,-73.36"/>
</g>
<!-- u4 -->
<g id="node5" class="node">
<title>u4</title>
<ellipse fill="#ffbbbb" stroke="black" cx="567.43" cy="-269" rx="194.17" ry="18"/>
<text text-anchor="middle" x="567.43" y="-265.3" font-family="Times,serif" font-size="14.00">Language.Drasil.Code.Expr.Precedence</text>
</g>
<!-- u4&#45;&gt;u6 -->
<g id="edge8" class="edge">
<title>u4&#45;&gt;u6</title>
<path fill="none" stroke="black" d="M567.43,-250.93C567.43,-214.08 567.43,-126.84 567.43,-82.26"/>
<polygon fill="black" stroke="black" points="570.93,-82.15 567.43,-72.15 563.93,-82.15 570.93,-82.15"/>
</g>
<!-- u3&#45;&gt;u6 -->
<g id="edge7" class="edge">
<title>u3&#45;&gt;u6</title>
<path fill="none" stroke="black" d="M208.36,-251.11C278.65,-212.72 450.31,-118.97 528.04,-76.52"/>
<polygon fill="black" stroke="black" points="529.94,-79.46 537.04,-71.6 526.59,-73.32 529.94,-79.46"/>
</g>
<!-- u2 -->
<g id="node7" class="node">
<title>u2</title>
<ellipse fill="#ffbbbb" stroke="black" cx="566.43" cy="-484" rx="202.26" ry="18"/>
<text text-anchor="middle" x="566.43" y="-480.3" font-family="Times,serif" font-size="14.00">Language.Drasil.Code.Expr.Development</text>
</g>
<!-- u2&#45;&gt;u5 -->
<g id="edge6" class="edge">
<title>u2&#45;&gt;u5</title>
<path fill="none" stroke="black" d="M597.2,-466.11C667.05,-427.77 837.49,-334.2 914.96,-291.67"/>
<polygon fill="black" stroke="black" points="916.85,-294.63 923.93,-286.75 913.48,-288.49 916.85,-294.63"/>
</g>
<!-- u2&#45;&gt;u4 -->
<g id="edge5" class="edge">
<title>u2&#45;&gt;u4</title>
<path fill="none" stroke="black" d="M566.51,-465.93C566.69,-429.08 567.1,-341.84 567.31,-297.26"/>
<polygon fill="black" stroke="black" points="570.81,-297.17 567.35,-287.15 563.81,-297.14 570.81,-297.17"/>
</g>
<!-- u2&#45;&gt;u3 -->
<g id="edge4" class="edge">
<title>u2&#45;&gt;u3</title>
<path fill="none" stroke="black" d="M535.58,-466.11C465.56,-427.77 294.68,-334.2 217.01,-291.67"/>
<polygon fill="black" stroke="black" points="218.47,-288.48 208.02,-286.75 215.11,-294.62 218.47,-288.48"/>
</g>
</g>
</svg>
