<?xml version="1.0" encoding="UTF-8" standalone="no"?>
<!DOCTYPE svg PUBLIC "-//W3C//DTD SVG 1.1//EN"
 "http://www.w3.org/Graphics/SVG/1.1/DTD/svg11.dtd">
<!-- Generated by graphviz version 2.43.0 (0)
 -->
<!-- Title: G Pages: 1 -->
<svg width="432pt" height="287pt"
 viewBox="0.00 0.00 432.00 286.67" xmlns="http://www.w3.org/2000/svg" xmlns:xlink="http://www.w3.org/1999/xlink">
<g id="graph0" class="graph" transform="scale(12.48 12.48) rotate(0) translate(4 3574.67)">
<title>G</title>
<polygon fill="white" stroke="transparent" points="-4,4 -4,-3574.67 5388.99,-3574.67 5388.99,4 -4,4"/>
<!-- u55 -->
<g id="node1" class="node">
<title>u55</title>
<ellipse fill="#bbffbb" stroke="black" cx="200.99" cy="-3263" rx="52.79" ry="18"/>
<text text-anchor="middle" x="200.99" y="-3259.3" font-family="Times,serif" font-size="14.00">FileTests</text>
</g>
<!-- u54 -->
<g id="node2" class="node">
<title>u54</title>
<ellipse fill="#bbffbb" stroke="black" cx="255.99" cy="-3017" rx="42.49" ry="18"/>
<text text-anchor="middle" x="255.99" y="-3013.3" font-family="Times,serif" font-size="14.00">Helper</text>
</g>
<!-- u53 -->
<g id="node3" class="node">
<title>u53</title>
<ellipse fill="#bbffbb" stroke="black" cx="64.99" cy="-3017" rx="53.89" ry="18"/>
<text text-anchor="middle" x="64.99" y="-3013.3" font-family="Times,serif" font-size="14.00">Observer</text>
</g>
<!-- u52 -->
<g id="node4" class="node">
<title>u52</title>
<ellipse fill="#bbffbb" stroke="black" cx="333.99" cy="-3263" rx="62.29" ry="18"/>
<text text-anchor="middle" x="333.99" y="-3259.3" font-family="Times,serif" font-size="14.00">HelloWorld</text>
</g>
<!-- u52&#45;&gt;u54 -->
<g id="edge88" class="edge">
<title>u52&#45;&gt;u54</title>
<path fill="none" stroke="black" d="M328.51,-3244.84C315.11,-3202.93 280.64,-3095.09 264.53,-3044.7"/>
<polygon fill="black" stroke="black" points="267.85,-3043.6 261.47,-3035.14 261.18,-3045.73 267.85,-3043.6"/>
</g>
<!-- u51 -->
<g id="node5" class="node">
<title>u51</title>
<ellipse fill="#bbffbb" stroke="black" cx="64.99" cy="-3263" rx="64.99" ry="18"/>
<text text-anchor="middle" x="64.99" y="-3259.3" font-family="Times,serif" font-size="14.00">PatternTest</text>
</g>
<!-- u51&#45;&gt;u53 -->
<g id="edge87" class="edge">
<title>u51&#45;&gt;u53</title>
<path fill="none" stroke="black" d="M64.99,-3244.84C64.99,-3203.1 64.99,-3095.99 64.99,-3045.33"/>
<polygon fill="black" stroke="black" points="68.49,-3045.14 64.99,-3035.14 61.49,-3045.14 68.49,-3045.14"/>
</g>
<!-- u50 -->
<g id="node6" class="node">
<title>u50</title>
<ellipse fill="#bbffbb" stroke="black" cx="267.99" cy="-3509" rx="34.39" ry="18"/>
<text text-anchor="middle" x="267.99" y="-3505.3" font-family="Times,serif" font-size="14.00">Main</text>
</g>
<!-- u50&#45;&gt;u55 -->
<g id="edge86" class="edge">
<title>u50&#45;&gt;u55</title>
<path fill="none" stroke="black" d="M263.28,-3490.84C251.8,-3449.02 222.29,-3341.54 208.41,-3291.01"/>
<polygon fill="black" stroke="black" points="211.72,-3289.85 205.7,-3281.14 204.97,-3291.71 211.72,-3289.85"/>
</g>
<!-- u50&#45;&gt;u52 -->
<g id="edge85" class="edge">
<title>u50&#45;&gt;u52</title>
<path fill="none" stroke="black" d="M272.64,-3490.84C283.95,-3449.02 313.02,-3341.54 326.69,-3291.01"/>
<polygon fill="black" stroke="black" points="330.13,-3291.71 329.36,-3281.14 323.37,-3289.88 330.13,-3291.71"/>
</g>
<!-- u50&#45;&gt;u51 -->
<g id="edge84" class="edge">
<title>u50&#45;&gt;u51</title>
<path fill="none" stroke="black" d="M254.67,-3491.99C220,-3450.31 126.75,-3338.23 85.32,-3288.43"/>
<polygon fill="black" stroke="black" points="87.98,-3286.16 78.9,-3280.71 82.6,-3290.64 87.98,-3286.16"/>
</g>
<!-- u1 -->
<g id="node11" class="node">
<title>u1</title>
<ellipse fill="#bbbbff" stroke="black" cx="1724.99" cy="-3263" rx="113.18" ry="18"/>
<text text-anchor="middle" x="1724.99" y="-3259.3" font-family="Times,serif" font-size="14.00">Language.Drasil.Code</text>
</g>
<!-- u50&#45;&gt;u1 -->
<g id="edge83" class="edge">
<title>u50&#45;&gt;u1</title>
<path fill="none" stroke="black" d="M300.47,-3502.56C480.78,-3472.36 1360.79,-3324.99 1639.89,-3278.25"/>
<polygon fill="black" stroke="black" points="1640.68,-3281.67 1649.96,-3276.57 1639.52,-3274.77 1640.68,-3281.67"/>
</g>
<!-- u0 -->
<g id="node7" class="node">
<title>u0</title>
<ellipse fill="#ffffbb" stroke="black" cx="1724.99" cy="-3509" rx="214.46" ry="18"/>
<text text-anchor="middle" x="1724.99" y="-3505.3" font-family="Times,serif" font-size="14.00">Data.Drasil.ExternalLibraries.ODELibraries</text>
</g>
<!-- u0&#45;&gt;u1 -->
<g id="edge1" class="edge">
<title>u0&#45;&gt;u1</title>
<path fill="none" stroke="black" d="M1724.99,-3490.84C1724.99,-3449.1 1724.99,-3341.99 1724.99,-3291.33"/>
<polygon fill="black" stroke="black" points="1728.49,-3291.14 1724.99,-3281.14 1721.49,-3291.14 1728.49,-3291.14"/>
</g>
<!-- u49 -->
<g id="node8" class="node">
<title>u49</title>
<ellipse fill="#bbbbff" stroke="black" cx="3967.99" cy="-554" rx="110.48" ry="18"/>
<text text-anchor="middle" x="3967.99" y="-550.3" font-family="Times,serif" font-size="14.00">Language.Drasil.Mod</text>
</g>
<!-- u6 -->
<g id="node13" class="node">
<title>u6</title>
<ellipse fill="#ffbbbb" stroke="black" cx="3563.99" cy="-308" rx="170.87" ry="18"/>
<text text-anchor="middle" x="3563.99" y="-304.3" font-family="Times,serif" font-size="14.00">Language.Drasil.Chunk.Parameter</text>
</g>
<!-- u49&#45;&gt;u6 -->
<g id="edge81" class="edge">
<title>u49&#45;&gt;u6</title>
<path fill="none" stroke="black" d="M3940.54,-536.42C3869.66,-493.61 3680.47,-379.35 3600.5,-331.05"/>
<polygon fill="black" stroke="black" points="3602.12,-327.94 3591.75,-325.76 3598.5,-333.93 3602.12,-327.94"/>
</g>
<!-- u12 -->
<g id="node23" class="node">
<title>u12</title>
<ellipse fill="#bbffff" stroke="black" cx="2512.99" cy="-308" rx="160.57" ry="18"/>
<text text-anchor="middle" x="2512.99" y="-304.3" font-family="Times,serif" font-size="14.00">Language.Drasil.Code.DataDesc</text>
</g>
<!-- u49&#45;&gt;u12 -->
<g id="edge82" class="edge">
<title>u49&#45;&gt;u12</title>
<path fill="none" stroke="black" d="M3894.09,-540.61C3651.54,-499.93 2879.8,-370.51 2608.46,-325.01"/>
<polygon fill="black" stroke="black" points="2608.68,-321.5 2598.24,-323.3 2607.53,-328.4 2608.68,-321.5"/>
</g>
<!-- u8 -->
<g id="node9" class="node">
<title>u8</title>
<ellipse fill="#bbbbff" stroke="black" cx="3393.99" cy="-1293" rx="126.18" ry="18"/>
<text text-anchor="middle" x="3393.99" y="-1289.3" font-family="Times,serif" font-size="14.00">Language.Drasil.Choices</text>
</g>
<!-- u13 -->
<g id="node22" class="node">
<title>u13</title>
<ellipse fill="#bbffff" stroke="black" cx="2955.99" cy="-1047" rx="139.98" ry="18"/>
<text text-anchor="middle" x="2955.99" y="-1043.3" font-family="Times,serif" font-size="14.00">Language.Drasil.Code.Code</text>
</g>
<!-- u8&#45;&gt;u13 -->
<g id="edge15" class="edge">
<title>u8&#45;&gt;u13</title>
<path fill="none" stroke="black" d="M3364.23,-1275.42C3287.14,-1232.47 3080.95,-1117.61 2994.73,-1069.58"/>
<polygon fill="black" stroke="black" points="2996.24,-1066.41 2985.8,-1064.6 2992.83,-1072.53 2996.24,-1066.41"/>
</g>
<!-- u10 -->
<g id="node55" class="node">
<title>u10</title>
<ellipse fill="#ff77ff" stroke="black" cx="3437.99" cy="-1047" rx="172.77" ry="18"/>
<text text-anchor="middle" x="3437.99" y="-1043.3" font-family="Times,serif" font-size="14.00">Language.Drasil.Data.ODELibPckg</text>
</g>
<!-- u8&#45;&gt;u10 -->
<g id="edge14" class="edge">
<title>u8&#45;&gt;u10</title>
<path fill="none" stroke="black" d="M3397.09,-1274.84C3404.63,-1233.02 3424.01,-1125.54 3433.12,-1075.01"/>
<polygon fill="black" stroke="black" points="3436.57,-1075.6 3434.9,-1065.14 3429.68,-1074.36 3436.57,-1075.6"/>
</g>
<!-- u2 -->
<g id="node10" class="node">
<title>u2</title>
<ellipse fill="#bbbbff" stroke="black" cx="3985.99" cy="-1539" rx="135.68" ry="18"/>
<text text-anchor="middle" x="3985.99" y="-1535.3" font-family="Times,serif" font-size="14.00">Language.Drasil.CodeSpec</text>
</g>
<!-- u2&#45;&gt;u8 -->
<g id="edge11" class="edge">
<title>u2&#45;&gt;u8</title>
<path fill="none" stroke="black" d="M3946.23,-1521.61C3841.31,-1478.37 3557.22,-1361.28 3442.76,-1314.1"/>
<polygon fill="black" stroke="black" points="3443.78,-1310.73 3433.2,-1310.16 3441.11,-1317.2 3443.78,-1310.73"/>
</g>
<!-- u7 -->
<g id="node12" class="node">
<title>u7</title>
<ellipse fill="#ffbbbb" stroke="black" cx="3729.99" cy="-1293" rx="192.27" ry="18"/>
<text text-anchor="middle" x="3729.99" y="-1289.3" font-family="Times,serif" font-size="14.00">Language.Drasil.Chunk.ConstraintMap</text>
</g>
<!-- u2&#45;&gt;u7 -->
<g id="edge10" class="edge">
<title>u2&#45;&gt;u7</title>
<path fill="none" stroke="black" d="M3967.99,-1520.84C3923.28,-1478.23 3807.08,-1367.47 3755.4,-1318.22"/>
<polygon fill="black" stroke="black" points="3757.63,-1315.5 3747.98,-1311.14 3752.8,-1320.57 3757.63,-1315.5"/>
</g>
<!-- u5 -->
<g id="node14" class="node">
<title>u5</title>
<ellipse fill="#ffbbbb" stroke="black" cx="4130.99" cy="-1293" rx="191.17" ry="18"/>
<text text-anchor="middle" x="4130.99" y="-1289.3" font-family="Times,serif" font-size="14.00">Language.Drasil.Chunk.CodeDefinition</text>
</g>
<!-- u2&#45;&gt;u5 -->
<g id="edge9" class="edge">
<title>u2&#45;&gt;u5</title>
<path fill="none" stroke="black" d="M3996.19,-1520.84C4021.25,-1478.67 4085.99,-1369.74 4115.69,-1319.76"/>
<polygon fill="black" stroke="black" points="4118.71,-1321.52 4120.81,-1311.14 4112.69,-1317.95 4118.71,-1321.52"/>
</g>
<!-- u22 -->
<g id="node38" class="node">
<title>u22</title>
<ellipse fill="#ffbbff" stroke="black" cx="708.99" cy="-1785" rx="217.96" ry="18"/>
<text text-anchor="middle" x="708.99" y="-1781.3" font-family="Times,serif" font-size="14.00">Language.Drasil.Code.Imperative.ReadInput</text>
</g>
<!-- u1&#45;&gt;u22 -->
<g id="edge3" class="edge">
<title>u1&#45;&gt;u22</title>
<path fill="none" stroke="black" d="M1640.11,-3251.09C1337,-3209.8 325.99,-3051.09 325.99,-2771 325.99,-2771 325.99,-2771 325.99,-2277 325.99,-2053.17 576.5,-1870.24 672.32,-1808.45"/>
<polygon fill="black" stroke="black" points="674.28,-1811.35 680.83,-1803.02 670.52,-1805.45 674.28,-1811.35"/>
</g>
<!-- u18 -->
<g id="node41" class="node">
<title>u18</title>
<ellipse fill="#ffbbff" stroke="black" cx="4656.99" cy="-3017" rx="217.16" ry="18"/>
<text text-anchor="middle" x="4656.99" y="-3013.3" font-family="Times,serif" font-size="14.00">Language.Drasil.Code.Imperative.Generator</text>
</g>
<!-- u1&#45;&gt;u18 -->
<g id="edge2" class="edge">
<title>u1&#45;&gt;u18</title>
<path fill="none" stroke="black" d="M1822.55,-3253.88C2251.05,-3218.22 3968.56,-3075.29 4499.68,-3031.09"/>
<polygon fill="black" stroke="black" points="4500.04,-3034.57 4509.71,-3030.26 4499.46,-3027.6 4500.04,-3034.57"/>
</g>
<!-- u32 -->
<g id="node48" class="node">
<title>u32</title>
<ellipse fill="#ff7777" stroke="black" cx="1436.99" cy="-2770" rx="358.54" ry="18"/>
<text text-anchor="middle" x="1436.99" y="-2766.3" font-family="Times,serif" font-size="14.00">Language.Drasil.Code.Imperative.GOOL.LanguageRenderer.SwiftRenderer</text>
</g>
<!-- u1&#45;&gt;u32 -->
<g id="edge8" class="edge">
<title>u1&#45;&gt;u32</title>
<path fill="none" stroke="black" d="M1714.91,-3244.81C1671.93,-3171.53 1503.8,-2884.89 1452.16,-2796.86"/>
<polygon fill="black" stroke="black" points="1455.07,-2794.9 1446.99,-2788.05 1449.03,-2798.44 1455.07,-2794.9"/>
</g>
<!-- u31 -->
<g id="node49" class="node">
<title>u31</title>
<ellipse fill="#ff7777" stroke="black" cx="2167.99" cy="-2770" rx="354.44" ry="18"/>
<text text-anchor="middle" x="2167.99" y="-2766.3" font-family="Times,serif" font-size="14.00">Language.Drasil.Code.Imperative.GOOL.LanguageRenderer.JavaRenderer</text>
</g>
<!-- u1&#45;&gt;u31 -->
<g id="edge7" class="edge">
<title>u1&#45;&gt;u31</title>
<path fill="none" stroke="black" d="M1740.24,-3245.1C1806.27,-3171.92 2067.65,-2882.21 2145.81,-2795.59"/>
<polygon fill="black" stroke="black" points="2148.48,-2797.85 2152.58,-2788.08 2143.28,-2793.16 2148.48,-2797.85"/>
</g>
<!-- u30 -->
<g id="node50" class="node">
<title>u30</title>
<ellipse fill="#ff7777" stroke="black" cx="2908.99" cy="-2770" rx="369.33" ry="18"/>
<text text-anchor="middle" x="2908.99" y="-2766.3" font-family="Times,serif" font-size="14.00">Language.Drasil.Code.Imperative.GOOL.LanguageRenderer.CSharpRenderer</text>
</g>
<!-- u1&#45;&gt;u30 -->
<g id="edge6" class="edge">
<title>u1&#45;&gt;u30</title>
<path fill="none" stroke="black" d="M1763.71,-3245.94C1939.39,-3173.09 2661.41,-2873.67 2858.88,-2791.78"/>
<polygon fill="black" stroke="black" points="2860.26,-2795 2868.15,-2787.94 2857.57,-2788.53 2860.26,-2795"/>
</g>
<!-- u28 -->
<g id="node52" class="node">
<title>u28</title>
<ellipse fill="#ff7777" stroke="black" cx="3662.99" cy="-2770" rx="367.43" ry="18"/>
<text text-anchor="middle" x="3662.99" y="-2766.3" font-family="Times,serif" font-size="14.00">Language.Drasil.Code.Imperative.GOOL.LanguageRenderer.PythonRenderer</text>
</g>
<!-- u1&#45;&gt;u28 -->
<g id="edge5" class="edge">
<title>u1&#45;&gt;u28</title>
<path fill="none" stroke="black" d="M1782.47,-3247.44C2061.04,-3176.86 3270.27,-2870.5 3586.89,-2790.28"/>
<polygon fill="black" stroke="black" points="3588.05,-2793.6 3596.88,-2787.75 3586.33,-2786.81 3588.05,-2793.6"/>
</g>
<!-- u27 -->
<g id="node53" class="node">
<title>u27</title>
<ellipse fill="#ff7777" stroke="black" cx="706.99" cy="-2770" rx="352.84" ry="18"/>
<text text-anchor="middle" x="706.99" y="-2766.3" font-family="Times,serif" font-size="14.00">Language.Drasil.Code.Imperative.GOOL.LanguageRenderer.CppRenderer</text>
</g>
<!-- u1&#45;&gt;u27 -->
<g id="edge4" class="edge">
<title>u1&#45;&gt;u27</title>
<path fill="none" stroke="black" d="M1691.41,-3245.8C1540.23,-3172.89 922.72,-2875.05 751.31,-2792.37"/>
<polygon fill="black" stroke="black" points="752.6,-2789.11 742.07,-2787.92 749.56,-2795.42 752.6,-2789.11"/>
</g>
<!-- u4 -->
<g id="node15" class="node">
<title>u4</title>
<ellipse fill="#ffbbbb" stroke="black" cx="3126.99" cy="-62" rx="145.67" ry="18"/>
<text text-anchor="middle" x="3126.99" y="-58.3" font-family="Times,serif" font-size="14.00">Language.Drasil.Chunk.Code</text>
</g>
<!-- u6&#45;&gt;u4 -->
<g id="edge13" class="edge">
<title>u6&#45;&gt;u4</title>
<path fill="none" stroke="black" d="M3533.96,-290.23C3456.84,-247.17 3251.9,-132.74 3165.87,-84.71"/>
<polygon fill="black" stroke="black" points="3167.39,-81.55 3156.95,-79.73 3163.98,-87.66 3167.39,-81.55"/>
</g>
<!-- u9 -->
<g id="node56" class="node">
<title>u9</title>
<ellipse fill="#ff77ff" stroke="black" cx="3126.99" cy="-800" rx="154.07" ry="18"/>
<text text-anchor="middle" x="3126.99" y="-796.3" font-family="Times,serif" font-size="14.00">Language.Drasil.Data.ODEInfo</text>
</g>
<!-- u5&#45;&gt;u9 -->
<g id="edge12" class="edge">
<title>u5&#45;&gt;u9</title>
<path fill="none" stroke="black" d="M4034.75,-1277.4C3833.36,-1245.23 3376.23,-1163.24 3255.99,-1065 3178.96,-1002.06 3144.44,-881.83 3132.36,-828.1"/>
<polygon fill="black" stroke="black" points="3135.77,-827.32 3130.23,-818.28 3128.92,-828.8 3135.77,-827.32"/>
</g>
<!-- u3 -->
<g id="node16" class="node">
<title>u3</title>
<ellipse fill="#ffbbbb" stroke="black" cx="3636.99" cy="-554" rx="202.26" ry="18"/>
<text text-anchor="middle" x="3636.99" y="-550.3" font-family="Times,serif" font-size="14.00">Language.Drasil.Chunk.NamedArgument</text>
</g>
<!-- u48 -->
<g id="node17" class="node">
<title>u48</title>
<ellipse fill="#bbffff" stroke="black" cx="4218.99" cy="-800" rx="190.37" ry="18"/>
<text text-anchor="middle" x="4218.99" y="-796.3" font-family="Times,serif" font-size="14.00">Language.Drasil.Code.ExternalLibrary</text>
</g>
<!-- u48&#45;&gt;u49 -->
<g id="edge80" class="edge">
<title>u48&#45;&gt;u49</title>
<path fill="none" stroke="black" d="M4201.34,-781.84C4157.4,-739.13 4043.02,-627.93 3992.54,-578.86"/>
<polygon fill="black" stroke="black" points="3994.9,-576.28 3985.29,-571.81 3990.02,-581.29 3994.9,-576.28"/>
</g>
<!-- u48&#45;&gt;u3 -->
<g id="edge79" class="edge">
<title>u48&#45;&gt;u3</title>
<path fill="none" stroke="black" d="M4178.99,-782.23C4075.56,-738.86 3799.46,-623.11 3686.36,-575.7"/>
<polygon fill="black" stroke="black" points="3687.47,-572.37 3676.89,-571.73 3684.76,-578.82 3687.47,-572.37"/>
</g>
<!-- u17 -->
<g id="node18" class="node">
<title>u17</title>
<ellipse fill="#bbffff" stroke="black" cx="4238.99" cy="-2770" rx="191.17" ry="18"/>
<text text-anchor="middle" x="4238.99" y="-2766.3" font-family="Times,serif" font-size="14.00">Language.Drasil.Code.CodeGeneration</text>
</g>
<!-- u17&#45;&gt;u13 -->
<g id="edge26" class="edge">
<title>u17&#45;&gt;u13</title>
<path fill="none" stroke="black" d="M4098.32,-2757.78C3838.45,-2729.25 3282.9,-2630.41 2988.99,-2296 2661.67,-1923.58 2892.99,-1220.2 2945.92,-1074.73"/>
<polygon fill="black" stroke="black" points="2949.24,-1075.83 2949.41,-1065.24 2942.67,-1073.41 2949.24,-1075.83"/>
</g>
<!-- u26 -->
<g id="node45" class="node">
<title>u26</title>
<ellipse fill="#7777ff" stroke="black" cx="2197.99" cy="-2524" rx="222.06" ry="18"/>
<text text-anchor="middle" x="2197.99" y="-2520.3" font-family="Times,serif" font-size="14.00">Language.Drasil.Code.Imperative.GOOL.Data</text>
</g>
<!-- u17&#45;&gt;u26 -->
<g id="edge27" class="edge">
<title>u17&#45;&gt;u26</title>
<path fill="none" stroke="black" d="M4125.62,-2755.45C3773.48,-2713.35 2699.94,-2585.01 2327.15,-2540.44"/>
<polygon fill="black" stroke="black" points="2327.48,-2536.96 2317.14,-2539.24 2326.65,-2543.91 2327.48,-2536.96"/>
</g>
<!-- u16 -->
<g id="node19" class="node">
<title>u16</title>
<ellipse fill="#bbffff" stroke="black" cx="3219.99" cy="-2032" rx="204.16" ry="18"/>
<text text-anchor="middle" x="3219.99" y="-2028.3" font-family="Times,serif" font-size="14.00">Language.Drasil.Code.CodeQuantityDicts</text>
</g>
<!-- u15 -->
<g id="node20" class="node">
<title>u15</title>
<ellipse fill="#bbffff" stroke="black" cx="3802.99" cy="-800" rx="207.96" ry="18"/>
<text text-anchor="middle" x="3802.99" y="-796.3" font-family="Times,serif" font-size="14.00">Language.Drasil.Code.ExternalLibraryCall</text>
</g>
<!-- u15&#45;&gt;u49 -->
<g id="edge25" class="edge">
<title>u15&#45;&gt;u49</title>
<path fill="none" stroke="black" d="M3814.6,-781.84C3843.18,-739.58 3917.08,-630.28 3950.79,-580.45"/>
<polygon fill="black" stroke="black" points="3953.7,-582.38 3956.4,-572.14 3947.9,-578.46 3953.7,-582.38"/>
</g>
<!-- u15&#45;&gt;u3 -->
<g id="edge24" class="edge">
<title>u15&#45;&gt;u3</title>
<path fill="none" stroke="black" d="M3791.32,-781.84C3762.57,-739.58 3688.21,-630.28 3654.31,-580.45"/>
<polygon fill="black" stroke="black" points="3657.17,-578.44 3648.65,-572.14 3651.39,-582.38 3657.17,-578.44"/>
</g>
<!-- u14 -->
<g id="node21" class="node">
<title>u14</title>
<ellipse fill="#bbffff" stroke="black" cx="4305.99" cy="-1047" rx="178.97" ry="18"/>
<text text-anchor="middle" x="4305.99" y="-1043.3" font-family="Times,serif" font-size="14.00">Language.Drasil.Code.ExtLibImport</text>
</g>
<!-- u14&#45;&gt;u48 -->
<g id="edge23" class="edge">
<title>u14&#45;&gt;u48</title>
<path fill="none" stroke="black" d="M4299.88,-1028.77C4284.93,-986.69 4246.48,-878.41 4228.51,-827.81"/>
<polygon fill="black" stroke="black" points="4231.75,-826.46 4225.11,-818.21 4225.15,-828.8 4231.75,-826.46"/>
</g>
<!-- u14&#45;&gt;u15 -->
<g id="edge22" class="edge">
<title>u14&#45;&gt;u15</title>
<path fill="none" stroke="black" d="M4271.42,-1029.16C4182.29,-985.75 3944.85,-870.09 3846.55,-822.21"/>
<polygon fill="black" stroke="black" points="3848,-819.03 3837.48,-817.8 3844.93,-825.32 3848,-819.03"/>
</g>
<!-- u12&#45;&gt;u4 -->
<g id="edge21" class="edge">
<title>u12&#45;&gt;u4</title>
<path fill="none" stroke="black" d="M2554.71,-290.42C2663.93,-247.02 2957.94,-130.18 3076.45,-83.08"/>
<polygon fill="black" stroke="black" points="3078.02,-86.23 3086.02,-79.28 3075.44,-79.72 3078.02,-86.23"/>
</g>
<!-- u11 -->
<g id="node24" class="node">
<title>u11</title>
<ellipse fill="#bbffff" stroke="black" cx="3437.99" cy="-800" rx="139.18" ry="18"/>
<text text-anchor="middle" x="3437.99" y="-796.3" font-family="Times,serif" font-size="14.00">Language.Drasil.Code.Lang</text>
</g>
<!-- u47 -->
<g id="node25" class="node">
<title>u47</title>
<ellipse fill="#ffbbff" stroke="black" cx="4642.99" cy="-2032" rx="206.06" ry="18"/>
<text text-anchor="middle" x="4642.99" y="-2028.3" font-family="Times,serif" font-size="14.00">Language.Drasil.Code.Imperative.Helpers</text>
</g>
<!-- u37 -->
<g id="node33" class="node">
<title>u37</title>
<ellipse fill="#ffbbff" stroke="black" cx="4587.99" cy="-1785" rx="222.06" ry="18"/>
<text text-anchor="middle" x="4587.99" y="-1781.3" font-family="Times,serif" font-size="14.00">Language.Drasil.Code.Imperative.DrasilState</text>
</g>
<!-- u47&#45;&gt;u37 -->
<g id="edge78" class="edge">
<title>u47&#45;&gt;u37</title>
<path fill="none" stroke="black" d="M4639.13,-2013.77C4629.7,-1971.78 4605.47,-1863.86 4594.08,-1813.12"/>
<polygon fill="black" stroke="black" points="4597.46,-1812.2 4591.86,-1803.21 4590.63,-1813.73 4597.46,-1812.2"/>
</g>
<!-- u46 -->
<g id="node26" class="node">
<title>u46</title>
<ellipse fill="#ffbbff" stroke="black" cx="4656.99" cy="-2524" rx="228.26" ry="18"/>
<text text-anchor="middle" x="4656.99" y="-2520.3" font-family="Times,serif" font-size="14.00">Language.Drasil.Code.Imperative.Descriptions</text>
</g>
<!-- u46&#45;&gt;u37 -->
<g id="edge77" class="edge">
<title>u46&#45;&gt;u37</title>
<path fill="none" stroke="black" d="M4715.52,-2506.5C4903.24,-2450.69 5467.8,-2258.7 5289.99,-2014 5218.04,-1914.98 4862.54,-1836.78 4686.76,-1803.46"/>
<polygon fill="black" stroke="black" points="4687.2,-1799.99 4676.72,-1801.57 4685.9,-1806.86 4687.2,-1799.99"/>
</g>
<!-- u45 -->
<g id="node27" class="node">
<title>u45</title>
<ellipse fill="#ffbbff" stroke="black" cx="2097.99" cy="-1539" rx="219.86" ry="18"/>
<text text-anchor="middle" x="2097.99" y="-1535.3" font-family="Times,serif" font-size="14.00">Language.Drasil.Code.Imperative.WriteInput</text>
</g>
<!-- u45&#45;&gt;u12 -->
<g id="edge76" class="edge">
<title>u45&#45;&gt;u12</title>
<path fill="none" stroke="black" d="M2111.64,-1520.95C2158.65,-1460.43 2310.99,-1248.82 2310.99,-1048 2310.99,-1048 2310.99,-1048 2310.99,-799 2310.99,-607.96 2443.86,-404.5 2494.08,-334.42"/>
<polygon fill="black" stroke="black" points="2497.02,-336.32 2500.05,-326.17 2491.35,-332.22 2497.02,-336.32"/>
</g>
<!-- u44 -->
<g id="node28" class="node">
<title>u44</title>
<ellipse fill="#ffbbff" stroke="black" cx="5073.99" cy="-2032" rx="207.16" ry="18"/>
<text text-anchor="middle" x="5073.99" y="-2028.3" font-family="Times,serif" font-size="14.00">Language.Drasil.Code.Imperative.Logging</text>
</g>
<!-- u44&#45;&gt;u37 -->
<g id="edge75" class="edge">
<title>u44&#45;&gt;u37</title>
<path fill="none" stroke="black" d="M5040.59,-2014.16C4954.67,-1970.84 4726.07,-1855.6 4630.71,-1807.53"/>
<polygon fill="black" stroke="black" points="4632.14,-1804.33 4621.63,-1802.96 4628.99,-1810.58 4632.14,-1804.33"/>
</g>
<!-- u41 -->
<g id="node29" class="node">
<title>u41</title>
<ellipse fill="#ffbbff" stroke="black" cx="3594.99" cy="-1539" rx="237.46" ry="18"/>
<text text-anchor="middle" x="3594.99" y="-1535.3" font-family="Times,serif" font-size="14.00">Language.Drasil.Code.Imperative.ConceptMatch</text>
</g>
<!-- u41&#45;&gt;u8 -->
<g id="edge73" class="edge">
<title>u41&#45;&gt;u8</title>
<path fill="none" stroke="black" d="M3580.86,-1520.84C3545.97,-1478.49 3455.64,-1368.83 3414.7,-1319.14"/>
<polygon fill="black" stroke="black" points="3417.17,-1316.63 3408.11,-1311.14 3411.77,-1321.08 3417.17,-1316.63"/>
</g>
<!-- u40 -->
<g id="node30" class="node">
<title>u40</title>
<ellipse fill="#ffbbff" stroke="black" cx="3682.99" cy="-2032" rx="240.46" ry="18"/>
<text text-anchor="middle" x="3682.99" y="-2028.3" font-family="Times,serif" font-size="14.00">Language.Drasil.Code.Imperative.GenerateGOOL</text>
</g>
<!-- u40&#45;&gt;u37 -->
<g id="edge72" class="edge">
<title>u40&#45;&gt;u37</title>
<path fill="none" stroke="black" d="M3743.78,-2014.54C3905.51,-1970.76 4345.72,-1851.59 4517.76,-1805.01"/>
<polygon fill="black" stroke="black" points="4518.74,-1808.38 4527.47,-1802.38 4516.91,-1801.62 4518.74,-1808.38"/>
</g>
<!-- u24 -->
<g id="node47" class="node">
<title>u24</title>
<ellipse fill="#7777ff" stroke="black" cx="3655.99" cy="-1785" rx="267.25" ry="18"/>
<text text-anchor="middle" x="3655.99" y="-1781.3" font-family="Times,serif" font-size="14.00">Language.Drasil.Code.Imperative.GOOL.ClassInterface</text>
</g>
<!-- u40&#45;&gt;u24 -->
<g id="edge71" class="edge">
<title>u40&#45;&gt;u24</title>
<path fill="none" stroke="black" d="M3681.1,-2013.77C3676.48,-1971.86 3664.62,-1864.31 3659.02,-1813.44"/>
<polygon fill="black" stroke="black" points="3662.47,-1812.77 3657.89,-1803.21 3655.51,-1813.53 3662.47,-1812.77"/>
</g>
<!-- u39 -->
<g id="node31" class="node">
<title>u39</title>
<ellipse fill="#ffbbff" stroke="black" cx="5129.99" cy="-2524" rx="226.66" ry="18"/>
<text text-anchor="middle" x="5129.99" y="-2520.3" font-family="Times,serif" font-size="14.00">Language.Drasil.Code.Imperative.SpaceMatch</text>
</g>
<!-- u39&#45;&gt;u37 -->
<g id="edge70" class="edge">
<title>u39&#45;&gt;u37</title>
<path fill="none" stroke="black" d="M5146.53,-2505.97C5210.63,-2437.88 5433.28,-2180.78 5310.99,-2014 5236.81,-1912.82 4872.15,-1835.89 4690.79,-1803.21"/>
<polygon fill="black" stroke="black" points="4691.17,-1799.72 4680.71,-1801.4 4689.93,-1806.61 4691.17,-1799.72"/>
</g>
<!-- u38 -->
<g id="node32" class="node">
<title>u38</title>
<ellipse fill="#ffbbff" stroke="black" cx="3221.99" cy="-2278" rx="223.66" ry="18"/>
<text text-anchor="middle" x="3221.99" y="-2274.3" font-family="Times,serif" font-size="14.00">Language.Drasil.Code.Imperative.Parameters</text>
</g>
<!-- u38&#45;&gt;u16 -->
<g id="edge68" class="edge">
<title>u38&#45;&gt;u16</title>
<path fill="none" stroke="black" d="M3221.85,-2259.84C3221.51,-2218.1 3220.63,-2110.99 3220.22,-2060.33"/>
<polygon fill="black" stroke="black" points="3223.72,-2060.11 3220.13,-2050.14 3216.72,-2060.17 3223.72,-2060.11"/>
</g>
<!-- u38&#45;&gt;u37 -->
<g id="edge69" class="edge">
<title>u38&#45;&gt;u37</title>
<path fill="none" stroke="black" d="M3189.24,-2260.11C3111.52,-2217.95 2928.23,-2104.94 3006.99,-2014 3098.5,-1908.36 4026.24,-1827.71 4416.48,-1798.2"/>
<polygon fill="black" stroke="black" points="4417.03,-1801.67 4426.74,-1797.43 4416.5,-1794.69 4417.03,-1801.67"/>
</g>
<!-- u37&#45;&gt;u2 -->
<g id="edge66" class="edge">
<title>u37&#45;&gt;u2</title>
<path fill="none" stroke="black" d="M4546.62,-1767.23C4439.13,-1723.66 4151.4,-1607.04 4035.44,-1560.04"/>
<polygon fill="black" stroke="black" points="4036.66,-1556.76 4026.08,-1556.25 4034.03,-1563.25 4036.66,-1556.76"/>
</g>
<!-- u37&#45;&gt;u14 -->
<g id="edge67" class="edge">
<title>u37&#45;&gt;u14</title>
<path fill="none" stroke="black" d="M4589.26,-1766.93C4591.9,-1724.36 4595.68,-1610.49 4568.99,-1521 4513.51,-1334.92 4376.21,-1141.03 4325.35,-1073.2"/>
<polygon fill="black" stroke="black" points="4328.13,-1071.07 4319.31,-1065.2 4322.55,-1075.29 4328.13,-1071.07"/>
</g>
<!-- u36 -->
<g id="node34" class="node">
<title>u36</title>
<ellipse fill="#ffbbff" stroke="black" cx="2111.99" cy="-2278" rx="233.16" ry="18"/>
<text text-anchor="middle" x="2111.99" y="-2274.3" font-family="Times,serif" font-size="14.00">Language.Drasil.Code.Imperative.WriteReadMe</text>
</g>
<!-- u36&#45;&gt;u24 -->
<g id="edge65" class="edge">
<title>u36&#45;&gt;u24</title>
<path fill="none" stroke="black" d="M2164.25,-2260.38C2397.26,-2186.28 3341.1,-1886.14 3593.61,-1805.84"/>
<polygon fill="black" stroke="black" points="3594.89,-1809.11 3603.36,-1802.74 3592.76,-1802.43 3594.89,-1809.11"/>
</g>
<!-- u34 -->
<g id="node35" class="node">
<title>u34</title>
<ellipse fill="#ffbbff" stroke="black" cx="4656.99" cy="-2770" rx="209.06" ry="18"/>
<text text-anchor="middle" x="4656.99" y="-2766.3" font-family="Times,serif" font-size="14.00">Language.Drasil.Code.Imperative.Modules</text>
</g>
<!-- u34&#45;&gt;u46 -->
<g id="edge63" class="edge">
<title>u34&#45;&gt;u46</title>
<path fill="none" stroke="black" d="M4656.99,-2751.84C4656.99,-2710.1 4656.99,-2602.99 4656.99,-2552.33"/>
<polygon fill="black" stroke="black" points="4660.49,-2552.14 4656.99,-2542.14 4653.49,-2552.14 4660.49,-2552.14"/>
</g>
<!-- u23 -->
<g id="node37" class="node">
<title>u23</title>
<ellipse fill="#ffbbff" stroke="black" cx="4063.99" cy="-2524" rx="233.16" ry="18"/>
<text text-anchor="middle" x="4063.99" y="-2520.3" font-family="Times,serif" font-size="14.00">Language.Drasil.Code.Imperative.FunctionCalls</text>
</g>
<!-- u34&#45;&gt;u23 -->
<g id="edge62" class="edge">
<title>u34&#45;&gt;u23</title>
<path fill="none" stroke="black" d="M4616.23,-2752.23C4510.74,-2708.82 4228.97,-2592.88 4113.94,-2545.55"/>
<polygon fill="black" stroke="black" points="4115.23,-2542.3 4104.65,-2541.73 4112.56,-2548.77 4115.23,-2542.3"/>
</g>
<!-- u33 -->
<g id="node36" class="node">
<title>u33</title>
<ellipse fill="#ffbbff" stroke="black" cx="4349.99" cy="-1539" rx="209.86" ry="18"/>
<text text-anchor="middle" x="4349.99" y="-1535.3" font-family="Times,serif" font-size="14.00">Language.Drasil.Code.Imperative.GenODE</text>
</g>
<!-- u33&#45;&gt;u8 -->
<g id="edge60" class="edge">
<title>u33&#45;&gt;u8</title>
<path fill="none" stroke="black" d="M4286.53,-1521.8C4114.52,-1477.9 3640.44,-1356.9 3462.59,-1311.51"/>
<polygon fill="black" stroke="black" points="3463.38,-1308.1 3452.82,-1309.01 3461.65,-1314.88 3463.38,-1308.1"/>
</g>
<!-- u33&#45;&gt;u5 -->
<g id="edge59" class="edge">
<title>u33&#45;&gt;u5</title>
<path fill="none" stroke="black" d="M4334.59,-1520.84C4296.5,-1478.4 4197.75,-1368.38 4153.28,-1318.83"/>
<polygon fill="black" stroke="black" points="4155.66,-1316.24 4146.38,-1311.14 4150.45,-1320.92 4155.66,-1316.24"/>
</g>
<!-- u33&#45;&gt;u14 -->
<g id="edge61" class="edge">
<title>u33&#45;&gt;u14</title>
<path fill="none" stroke="black" d="M4348.97,-1520.75C4346.43,-1478.69 4339.43,-1367.55 4330.99,-1275 4324.41,-1202.72 4314.46,-1117.73 4309.32,-1075.18"/>
<polygon fill="black" stroke="black" points="4312.77,-1074.57 4308.1,-1065.06 4305.82,-1075.41 4312.77,-1074.57"/>
</g>
<!-- u23&#45;&gt;u38 -->
<g id="edge42" class="edge">
<title>u23&#45;&gt;u38</title>
<path fill="none" stroke="black" d="M4007.11,-2506.52C3856.76,-2462.95 3449.37,-2344.89 3288.56,-2298.29"/>
<polygon fill="black" stroke="black" points="3289.37,-2294.88 3278.79,-2295.46 3287.42,-2301.6 3289.37,-2294.88"/>
</g>
<!-- u20 -->
<g id="node40" class="node">
<title>u20</title>
<ellipse fill="#ffbbff" stroke="black" cx="4063.99" cy="-2278" rx="201.46" ry="18"/>
<text text-anchor="middle" x="4063.99" y="-2274.3" font-family="Times,serif" font-size="14.00">Language.Drasil.Code.Imperative.Import</text>
</g>
<!-- u23&#45;&gt;u20 -->
<g id="edge41" class="edge">
<title>u23&#45;&gt;u20</title>
<path fill="none" stroke="black" d="M4063.99,-2505.84C4063.99,-2464.1 4063.99,-2356.99 4063.99,-2306.33"/>
<polygon fill="black" stroke="black" points="4067.49,-2306.14 4063.99,-2296.14 4060.49,-2306.14 4067.49,-2306.14"/>
</g>
<!-- u22&#45;&gt;u12 -->
<g id="edge40" class="edge">
<title>u22&#45;&gt;u12</title>
<path fill="none" stroke="black" d="M772.98,-1767.78C933.96,-1722.71 1342.99,-1580.05 1342.99,-1294 1342.99,-1294 1342.99,-1294 1342.99,-799 1342.99,-564.2 2154.78,-380.58 2425.97,-325.79"/>
<polygon fill="black" stroke="black" points="2426.66,-329.22 2435.77,-323.82 2425.28,-322.36 2426.66,-329.22"/>
</g>
<!-- u21 -->
<g id="node39" class="node">
<title>u21</title>
<ellipse fill="#ffbbff" stroke="black" cx="4198.99" cy="-2032" rx="219.86" ry="18"/>
<text text-anchor="middle" x="4198.99" y="-2028.3" font-family="Times,serif" font-size="14.00">Language.Drasil.Code.Imperative.Comments</text>
</g>
<!-- u21&#45;&gt;u37 -->
<g id="edge39" class="edge">
<title>u21&#45;&gt;u37</title>
<path fill="none" stroke="black" d="M4226.04,-2013.97C4294.58,-1970.8 4475.14,-1857.08 4552.25,-1808.51"/>
<polygon fill="black" stroke="black" points="4554.53,-1811.21 4561.13,-1802.92 4550.8,-1805.29 4554.53,-1811.21"/>
</g>
<!-- u20&#45;&gt;u16 -->
<g id="edge33" class="edge">
<title>u20&#45;&gt;u16</title>
<path fill="none" stroke="black" d="M4007.64,-2260.71C3857.33,-2217.25 3447.4,-2098.74 3286.29,-2052.16"/>
<polygon fill="black" stroke="black" points="3287.08,-2048.75 3276.5,-2049.33 3285.13,-2055.47 3287.08,-2048.75"/>
</g>
<!-- u20&#45;&gt;u47 -->
<g id="edge38" class="edge">
<title>u20&#45;&gt;u47</title>
<path fill="none" stroke="black" d="M4103.79,-2260.23C4206.69,-2216.86 4481.36,-2101.11 4593.89,-2053.7"/>
<polygon fill="black" stroke="black" points="4595.45,-2056.84 4603.3,-2049.73 4592.73,-2050.38 4595.45,-2056.84"/>
</g>
<!-- u20&#45;&gt;u44 -->
<g id="edge37" class="edge">
<title>u20&#45;&gt;u44</title>
<path fill="none" stroke="black" d="M4130.26,-2260.99C4310.05,-2217.56 4806.32,-2097.66 4997.52,-2051.48"/>
<polygon fill="black" stroke="black" points="4998.58,-2054.82 5007.48,-2049.07 4996.94,-2048.01 4998.58,-2054.82"/>
</g>
<!-- u20&#45;&gt;u41 -->
<g id="edge36" class="edge">
<title>u20&#45;&gt;u41</title>
<path fill="none" stroke="black" d="M4055.09,-2259.88C4036.18,-2222.75 3991.95,-2131.55 3969.99,-2050 3937,-1927.46 3998.95,-1874.81 3931.99,-1767 3865.7,-1660.25 3728.5,-1592.15 3651.16,-1560.6"/>
<polygon fill="black" stroke="black" points="3652.17,-1557.23 3641.58,-1556.75 3649.56,-1563.73 3652.17,-1557.23"/>
</g>
<!-- u20&#45;&gt;u40 -->
<g id="edge35" class="edge">
<title>u20&#45;&gt;u40</title>
<path fill="none" stroke="black" d="M4037.51,-2260.04C3970.45,-2217.09 3793.96,-2104.06 3718.28,-2055.6"/>
<polygon fill="black" stroke="black" points="3719.87,-2052.46 3709.56,-2050.01 3716.09,-2058.35 3719.87,-2052.46"/>
</g>
<!-- u20&#45;&gt;u21 -->
<g id="edge34" class="edge">
<title>u20&#45;&gt;u21</title>
<path fill="none" stroke="black" d="M4073.49,-2259.84C4096.77,-2217.75 4156.84,-2109.19 4184.57,-2059.07"/>
<polygon fill="black" stroke="black" points="4187.73,-2060.58 4189.51,-2050.14 4181.61,-2057.19 4187.73,-2060.58"/>
</g>
<!-- u18&#45;&gt;u17 -->
<g id="edge28" class="edge">
<title>u18&#45;&gt;u17</title>
<path fill="none" stroke="black" d="M4627.93,-2998.97C4554.05,-2955.66 4359.08,-2841.39 4276.65,-2793.07"/>
<polygon fill="black" stroke="black" points="4278.26,-2789.96 4267.86,-2787.92 4274.72,-2796 4278.26,-2789.96"/>
</g>
<!-- u18&#45;&gt;u39 -->
<g id="edge31" class="edge">
<title>u18&#45;&gt;u39</title>
<path fill="none" stroke="black" d="M4673.55,-2998.81C4744.58,-2925.08 5023.64,-2635.4 5106.61,-2549.28"/>
<polygon fill="black" stroke="black" points="5109.15,-2551.68 5113.57,-2542.05 5104.11,-2546.82 5109.15,-2551.68"/>
</g>
<!-- u18&#45;&gt;u34 -->
<g id="edge30" class="edge">
<title>u18&#45;&gt;u34</title>
<path fill="none" stroke="black" d="M4656.99,-2998.77C4656.99,-2956.86 4656.99,-2849.31 4656.99,-2798.44"/>
<polygon fill="black" stroke="black" points="4660.49,-2798.21 4656.99,-2788.21 4653.49,-2798.21 4660.49,-2798.21"/>
</g>
<!-- u18&#45;&gt;u33 -->
<g id="edge29" class="edge">
<title>u18&#45;&gt;u33</title>
<path fill="none" stroke="black" d="M4742.29,-3000.41C4934.53,-2959.83 5384.99,-2831.99 5384.99,-2525 5384.99,-2525 5384.99,-2525 5384.99,-2031 5384.99,-1664.62 4849.03,-1571.28 4548.47,-1547.75"/>
<polygon fill="black" stroke="black" points="4548.56,-1544.24 4538.33,-1546.97 4548.03,-1551.22 4548.56,-1544.24"/>
</g>
<!-- u43 -->
<g id="node42" class="node">
<title>u43</title>
<ellipse fill="#77ff77" stroke="black" cx="1593.99" cy="-2278" rx="228.56" ry="18"/>
<text text-anchor="middle" x="1593.99" y="-2274.3" font-family="Times,serif" font-size="14.00">Language.Drasil.Code.Imperative.Build.Import</text>
</g>
<!-- u42 -->
<g id="node43" class="node">
<title>u42</title>
<ellipse fill="#77ff77" stroke="black" cx="1593.99" cy="-2032" rx="215.56" ry="18"/>
<text text-anchor="middle" x="1593.99" y="-2028.3" font-family="Times,serif" font-size="14.00">Language.Drasil.Code.Imperative.Build.AST</text>
</g>
<!-- u43&#45;&gt;u42 -->
<g id="edge74" class="edge">
<title>u43&#45;&gt;u42</title>
<path fill="none" stroke="black" d="M1593.99,-2259.84C1593.99,-2218.1 1593.99,-2110.99 1593.99,-2060.33"/>
<polygon fill="black" stroke="black" points="1597.49,-2060.14 1593.99,-2050.14 1590.49,-2060.14 1597.49,-2060.14"/>
</g>
<!-- u19 -->
<g id="node44" class="node">
<title>u19</title>
<ellipse fill="#ffff77" stroke="black" cx="3125.99" cy="-1785" rx="245.06" ry="18"/>
<text text-anchor="middle" x="3125.99" y="-1781.3" font-family="Times,serif" font-size="14.00">Language.Drasil.Code.Imperative.Doxygen.Import</text>
</g>
<!-- u19&#45;&gt;u8 -->
<g id="edge32" class="edge">
<title>u19&#45;&gt;u8</title>
<path fill="none" stroke="black" d="M3135.38,-1766.85C3175.38,-1693.71 3331.83,-1407.66 3379.88,-1319.81"/>
<polygon fill="black" stroke="black" points="3382.96,-1321.47 3384.69,-1311.01 3376.82,-1318.11 3382.96,-1321.47"/>
</g>
<!-- u25 -->
<g id="node46" class="node">
<title>u25</title>
<ellipse fill="#7777ff" stroke="black" cx="2652.99" cy="-2278" rx="289.45" ry="18"/>
<text text-anchor="middle" x="2652.99" y="-2274.3" font-family="Times,serif" font-size="14.00">Language.Drasil.Code.Imperative.GOOL.LanguageRenderer</text>
</g>
<!-- u24&#45;&gt;u8 -->
<g id="edge43" class="edge">
<title>u24&#45;&gt;u8</title>
<path fill="none" stroke="black" d="M3612.42,-1767.18C3541.78,-1737.22 3404.58,-1667.24 3348.99,-1557 3308.91,-1477.51 3354.37,-1369.14 3379.53,-1320.06"/>
<polygon fill="black" stroke="black" points="3382.7,-1321.54 3384.26,-1311.06 3376.51,-1318.28 3382.7,-1321.54"/>
</g>
<!-- u32&#45;&gt;u26 -->
<g id="edge57" class="edge">
<title>u32&#45;&gt;u26</title>
<path fill="none" stroke="black" d="M1489.6,-2752.13C1626.09,-2708.37 1991.02,-2591.36 2136.7,-2544.65"/>
<polygon fill="black" stroke="black" points="2137.93,-2547.93 2146.38,-2541.55 2135.79,-2541.27 2137.93,-2547.93"/>
</g>
<!-- u29 -->
<g id="node51" class="node">
<title>u29</title>
<ellipse fill="#ff7777" stroke="black" cx="1563.99" cy="-2524" rx="393.73" ry="18"/>
<text text-anchor="middle" x="1563.99" y="-2520.3" font-family="Times,serif" font-size="14.00">Language.Drasil.Code.Imperative.GOOL.LanguageRenderer.LanguagePolymorphic</text>
</g>
<!-- u32&#45;&gt;u29 -->
<g id="edge58" class="edge">
<title>u32&#45;&gt;u29</title>
<path fill="none" stroke="black" d="M1445.92,-2751.84C1467.83,-2709.75 1524.34,-2601.19 1550.43,-2551.07"/>
<polygon fill="black" stroke="black" points="1553.56,-2552.62 1555.07,-2542.14 1547.35,-2549.39 1553.56,-2552.62"/>
</g>
<!-- u31&#45;&gt;u26 -->
<g id="edge55" class="edge">
<title>u31&#45;&gt;u26</title>
<path fill="none" stroke="black" d="M2170.1,-2751.84C2175.24,-2710.1 2188.41,-2602.99 2194.63,-2552.33"/>
<polygon fill="black" stroke="black" points="2198.14,-2552.49 2195.89,-2542.14 2191.19,-2551.64 2198.14,-2552.49"/>
</g>
<!-- u31&#45;&gt;u29 -->
<g id="edge56" class="edge">
<title>u31&#45;&gt;u29</title>
<path fill="none" stroke="black" d="M2126,-2752.04C2018.4,-2708.57 1733.06,-2593.3 1615.61,-2545.85"/>
<polygon fill="black" stroke="black" points="1616.69,-2542.51 1606.11,-2542.01 1614.07,-2549 1616.69,-2542.51"/>
</g>
<!-- u30&#45;&gt;u26 -->
<g id="edge53" class="edge">
<title>u30&#45;&gt;u26</title>
<path fill="none" stroke="black" d="M2859.84,-2752.13C2732.61,-2708.47 2392.87,-2591.88 2256.17,-2544.96"/>
<polygon fill="black" stroke="black" points="2257.28,-2541.64 2246.68,-2541.71 2255,-2548.27 2257.28,-2541.64"/>
</g>
<!-- u30&#45;&gt;u29 -->
<g id="edge54" class="edge">
<title>u30&#45;&gt;u29</title>
<path fill="none" stroke="black" d="M2818.13,-2752.52C2576.31,-2708.65 1918.23,-2589.26 1665.09,-2543.34"/>
<polygon fill="black" stroke="black" points="1665.63,-2539.88 1655.17,-2541.54 1664.38,-2546.77 1665.63,-2539.88"/>
</g>
<!-- u29&#45;&gt;u45 -->
<g id="edge52" class="edge">
<title>u29&#45;&gt;u45</title>
<path fill="none" stroke="black" d="M1539.2,-2505.99C1492.62,-2472.34 1393.38,-2392.15 1355.99,-2296 1330.01,-2229.19 1209.39,-2290.49 1368.99,-2014 1520.89,-1750.88 1884.49,-1608.52 2033.07,-1559.66"/>
<polygon fill="black" stroke="black" points="2034.54,-1562.86 2042.96,-1556.44 2032.37,-1556.21 2034.54,-1562.86"/>
</g>
<!-- u29&#45;&gt;u36 -->
<g id="edge50" class="edge">
<title>u29&#45;&gt;u36</title>
<path fill="none" stroke="black" d="M1602.09,-2506.04C1699.64,-2462.6 1958.19,-2347.48 2064.91,-2299.97"/>
<polygon fill="black" stroke="black" points="2066.44,-2303.12 2074.15,-2295.85 2063.59,-2296.72 2066.44,-2303.12"/>
</g>
<!-- u29&#45;&gt;u43 -->
<g id="edge51" class="edge">
<title>u29&#45;&gt;u43</title>
<path fill="none" stroke="black" d="M1566.1,-2505.84C1571.24,-2464.1 1584.41,-2356.99 1590.63,-2306.33"/>
<polygon fill="black" stroke="black" points="1594.14,-2306.49 1591.89,-2296.14 1587.19,-2305.64 1594.14,-2306.49"/>
</g>
<!-- u29&#45;&gt;u19 -->
<g id="edge48" class="edge">
<title>u29&#45;&gt;u19</title>
<path fill="none" stroke="black" d="M1584.84,-2506.01C1630.37,-2468.76 1741.85,-2376.77 1831.99,-2296 1849.32,-2280.48 1850.28,-2272.35 1869.99,-2260 2275.18,-2006.19 2837.5,-1854.78 3044.95,-1804.64"/>
<polygon fill="black" stroke="black" points="3045.95,-1808 3054.85,-1802.26 3044.31,-1801.19 3045.95,-1808"/>
</g>
<!-- u29&#45;&gt;u25 -->
<g id="edge49" class="edge">
<title>u29&#45;&gt;u25</title>
<path fill="none" stroke="black" d="M1638.85,-2506.23C1835.17,-2462.24 2363.94,-2343.77 2569.58,-2297.69"/>
<polygon fill="black" stroke="black" points="2570.42,-2301.09 2579.42,-2295.49 2568.89,-2294.26 2570.42,-2301.09"/>
</g>
<!-- u28&#45;&gt;u26 -->
<g id="edge46" class="edge">
<title>u28&#45;&gt;u26</title>
<path fill="none" stroke="black" d="M3564.6,-2752.61C3299.36,-2708.44 2571.4,-2587.19 2300.95,-2542.15"/>
<polygon fill="black" stroke="black" points="2301.18,-2538.64 2290.74,-2540.45 2300.03,-2545.54 2301.18,-2538.64"/>
</g>
<!-- u28&#45;&gt;u29 -->
<g id="edge47" class="edge">
<title>u28&#45;&gt;u29</title>
<path fill="none" stroke="black" d="M3527.29,-2753.23C3151.61,-2709.55 2100.04,-2587.31 1711.08,-2542.1"/>
<polygon fill="black" stroke="black" points="1711.22,-2538.59 1700.89,-2540.91 1710.42,-2545.54 1711.22,-2538.59"/>
</g>
<!-- u27&#45;&gt;u26 -->
<g id="edge44" class="edge">
<title>u27&#45;&gt;u26</title>
<path fill="none" stroke="black" d="M806.56,-2752.71C1076.27,-2708.57 1819.18,-2586.99 2094,-2542.02"/>
<polygon fill="black" stroke="black" points="2094.67,-2545.46 2103.97,-2540.39 2093.54,-2538.55 2094.67,-2545.46"/>
</g>
<!-- u27&#45;&gt;u29 -->
<g id="edge45" class="edge">
<title>u27&#45;&gt;u29</title>
<path fill="none" stroke="black" d="M765.9,-2752.23C919.34,-2708.54 1330.82,-2591.39 1494.98,-2544.65"/>
<polygon fill="black" stroke="black" points="1496.3,-2547.91 1504.96,-2541.81 1494.38,-2541.18 1496.3,-2547.91"/>
</g>
<!-- u35 -->
<g id="node54" class="node">
<title>u35</title>
<ellipse fill="#77ffff" stroke="black" cx="2705.99" cy="-2524" rx="267.55" ry="18"/>
<text text-anchor="middle" x="2705.99" y="-2520.3" font-family="Times,serif" font-size="14.00">Language.Drasil.Code.Imperative.Parsers.ConfigParser</text>
</g>
<!-- u35&#45;&gt;u25 -->
<g id="edge64" class="edge">
<title>u35&#45;&gt;u25</title>
<path fill="none" stroke="black" d="M2702.27,-2505.84C2693.18,-2464.02 2669.84,-2356.54 2658.86,-2306.01"/>
<polygon fill="black" stroke="black" points="2662.26,-2305.17 2656.72,-2296.14 2655.42,-2306.65 2662.26,-2305.17"/>
</g>
<!-- u10&#45;&gt;u48 -->
<g id="edge20" class="edge">
<title>u10&#45;&gt;u48</title>
<path fill="none" stroke="black" d="M3489.84,-1029.74C3628.47,-986.25 4007.28,-867.41 4156.96,-820.46"/>
<polygon fill="black" stroke="black" points="4158.41,-823.67 4166.91,-817.34 4156.32,-816.99 4158.41,-823.67"/>
</g>
<!-- u10&#45;&gt;u15 -->
<g id="edge19" class="edge">
<title>u10&#45;&gt;u15</title>
<path fill="none" stroke="black" d="M3463.08,-1029.16C3527.16,-986.15 3696.88,-872.23 3769.38,-823.56"/>
<polygon fill="black" stroke="black" points="3771.38,-826.44 3777.73,-817.96 3767.48,-820.62 3771.38,-826.44"/>
</g>
<!-- u10&#45;&gt;u11 -->
<g id="edge18" class="edge">
<title>u10&#45;&gt;u11</title>
<path fill="none" stroke="black" d="M3437.99,-1028.77C3437.99,-986.86 3437.99,-879.31 3437.99,-828.44"/>
<polygon fill="black" stroke="black" points="3441.49,-828.21 3437.99,-818.21 3434.49,-828.21 3441.49,-828.21"/>
</g>
<!-- u10&#45;&gt;u9 -->
<g id="edge17" class="edge">
<title>u10&#45;&gt;u9</title>
<path fill="none" stroke="black" d="M3416.13,-1028.77C3361.46,-985.7 3218.79,-873.31 3156.64,-824.36"/>
<polygon fill="black" stroke="black" points="3158.45,-821.32 3148.43,-817.88 3154.12,-826.82 3158.45,-821.32"/>
</g>
<!-- u9&#45;&gt;u4 -->
<g id="edge16" class="edge">
<title>u9&#45;&gt;u4</title>
<path fill="none" stroke="black" d="M3126.99,-781.89C3126.99,-685.4 3126.99,-209.35 3126.99,-90.12"/>
<polygon fill="black" stroke="black" points="3130.49,-90.02 3126.99,-80.02 3123.49,-90.02 3130.49,-90.02"/>
</g>
</g>
</svg>
