<?xml version="1.0" encoding="UTF-8" standalone="no"?>
<!DOCTYPE svg PUBLIC "-//W3C//DTD SVG 1.1//EN"
 "http://www.w3.org/Graphics/SVG/1.1/DTD/svg11.dtd">
<!-- Generated by graphviz version 2.43.0 (0)
 -->
<!-- Title: G Pages: 1 -->
<svg width="432pt" height="287pt"
 viewBox="0.00 0.00 432.00 286.88" xmlns="http://www.w3.org/2000/svg" xmlns:xlink="http://www.w3.org/1999/xlink">
<g id="graph0" class="graph" transform="scale(0.07 0.07) rotate(0) translate(4 4235.33)">
<title>G</title>
<polygon fill="white" stroke="transparent" points="-4,4 -4,-4235.33 6379.83,-4235.33 6379.83,4 -4,4"/>
<!-- u7 -->
<g id="node1" class="node">
<title>u7</title>
<ellipse fill="#bbffbb" stroke="black" cx="1530.83" cy="-3890" rx="52.79" ry="18"/>
<text text-anchor="middle" x="1530.83" y="-3886.3" font-family="Times,serif" font-size="14.00">FileTests</text>
</g>
<!-- u6 -->
<g id="node2" class="node">
<title>u6</title>
<ellipse fill="#bbffbb" stroke="black" cx="881.83" cy="-3890" rx="62.29" ry="18"/>
<text text-anchor="middle" x="881.83" y="-3886.3" font-family="Times,serif" font-size="14.00">HelloWorld</text>
</g>
<!-- u2 -->
<g id="node3" class="node">
<title>u2</title>
<ellipse fill="#bbffbb" stroke="black" cx="881.83" cy="-3617" rx="42.49" ry="18"/>
<text text-anchor="middle" x="881.83" y="-3613.3" font-family="Times,serif" font-size="14.00">Helper</text>
</g>
<!-- u6&#45;&gt;u2 -->
<g id="edge8" class="edge">
<title>u6&#45;&gt;u2</title>
<path fill="none" stroke="black" d="M881.83,-3871.64C881.83,-3825.75 881.83,-3700.98 881.83,-3645.37"/>
<polygon fill="black" stroke="black" points="885.33,-3645.22 881.83,-3635.22 878.33,-3645.22 885.33,-3645.22"/>
</g>
<!-- u1 -->
<g id="node4" class="node">
<title>u1</title>
<ellipse fill="#bbffbb" stroke="black" cx="1037.83" cy="-3890" rx="76.09" ry="18"/>
<text text-anchor="middle" x="1037.83" y="-3886.3" font-family="Times,serif" font-size="14.00">NameGenTest</text>
</g>
<!-- u0 -->
<g id="node5" class="node">
<title>u0</title>
<ellipse fill="#bbffbb" stroke="black" cx="1191.83" cy="-3890" rx="59.59" ry="18"/>
<text text-anchor="middle" x="1191.83" y="-3886.3" font-family="Times,serif" font-size="14.00">VectorTest</text>
</g>
<!-- u60 -->
<g id="node6" class="node">
<title>u60</title>
<ellipse fill="#ffffbb" stroke="black" cx="3758.83" cy="-4163" rx="214.46" ry="18"/>
<text text-anchor="middle" x="3758.83" y="-4159.3" font-family="Times,serif" font-size="14.00">Data.Drasil.ExternalLibraries.ODELibraries</text>
</g>
<!-- u9 -->
<g id="node11" class="node">
<title>u9</title>
<ellipse fill="#ffbbbb" stroke="black" cx="3758.83" cy="-3890" rx="113.18" ry="18"/>
<text text-anchor="middle" x="3758.83" y="-3886.3" font-family="Times,serif" font-size="14.00">Language.Drasil.Code</text>
</g>
<!-- u60&#45;&gt;u9 -->
<g id="edge97" class="edge">
<title>u60&#45;&gt;u9</title>
<path fill="none" stroke="black" d="M3758.83,-4144.64C3758.83,-4098.75 3758.83,-3973.98 3758.83,-3918.37"/>
<polygon fill="black" stroke="black" points="3762.33,-3918.22 3758.83,-3908.22 3755.33,-3918.22 3762.33,-3918.22"/>
</g>
<!-- u5 -->
<g id="node7" class="node">
<title>u5</title>
<ellipse fill="#bbbbff" stroke="black" cx="1195.83" cy="-3617" rx="84.49" ry="18"/>
<text text-anchor="middle" x="1195.83" y="-3613.3" font-family="Times,serif" font-size="14.00">GOOL.Observer</text>
</g>
<!-- u4 -->
<g id="node8" class="node">
<title>u4</title>
<ellipse fill="#bbbbff" stroke="black" cx="1364.83" cy="-3890" rx="95.58" ry="18"/>
<text text-anchor="middle" x="1364.83" y="-3886.3" font-family="Times,serif" font-size="14.00">GOOL.PatternTest</text>
</g>
<!-- u4&#45;&gt;u5 -->
<g id="edge7" class="edge">
<title>u4&#45;&gt;u5</title>
<path fill="none" stroke="black" d="M1354.26,-3872.05C1325.57,-3826.04 1246.11,-3698.62 1211.87,-3643.72"/>
<polygon fill="black" stroke="black" points="1214.66,-3641.58 1206.4,-3634.95 1208.72,-3645.28 1214.66,-3641.58"/>
</g>
<!-- u57 -->
<g id="node9" class="node">
<title>u57</title>
<ellipse fill="#ffbbbb" stroke="black" cx="3098.83" cy="-887" rx="110.48" ry="18"/>
<text text-anchor="middle" x="3098.83" y="-883.3" font-family="Times,serif" font-size="14.00">Language.Drasil.Mod</text>
</g>
<!-- u12 -->
<g id="node16" class="node">
<title>u12</title>
<ellipse fill="#bbffff" stroke="black" cx="3098.83" cy="-614" rx="170.87" ry="18"/>
<text text-anchor="middle" x="3098.83" y="-610.3" font-family="Times,serif" font-size="14.00">Language.Drasil.Chunk.Parameter</text>
</g>
<!-- u57&#45;&gt;u12 -->
<g id="edge90" class="edge">
<title>u57&#45;&gt;u12</title>
<path fill="none" stroke="black" d="M3098.83,-868.64C3098.83,-822.75 3098.83,-697.98 3098.83,-642.37"/>
<polygon fill="black" stroke="black" points="3102.33,-642.22 3098.83,-632.22 3095.33,-642.22 3102.33,-642.22"/>
</g>
<!-- u17 -->
<g id="node25" class="node">
<title>u17</title>
<ellipse fill="#ffbbff" stroke="black" cx="3801.83" cy="-614" rx="160.57" ry="18"/>
<text text-anchor="middle" x="3801.83" y="-610.3" font-family="Times,serif" font-size="14.00">Language.Drasil.Code.DataDesc</text>
</g>
<!-- u57&#45;&gt;u17 -->
<g id="edge91" class="edge">
<title>u57&#45;&gt;u17</title>
<path fill="none" stroke="black" d="M3139.66,-870.26C3260.31,-823.75 3615.07,-686.99 3749.44,-635.2"/>
<polygon fill="black" stroke="black" points="3751.03,-638.33 3759.11,-631.47 3748.52,-631.8 3751.03,-638.33"/>
</g>
<!-- u56 -->
<g id="node10" class="node">
<title>u56</title>
<ellipse fill="#ffbbbb" stroke="black" cx="2696.83" cy="-1706" rx="126.18" ry="18"/>
<text text-anchor="middle" x="2696.83" y="-1702.3" font-family="Times,serif" font-size="14.00">Language.Drasil.Choices</text>
</g>
<!-- u16 -->
<g id="node26" class="node">
<title>u16</title>
<ellipse fill="#ffbbff" stroke="black" cx="1434.83" cy="-1433" rx="139.98" ry="18"/>
<text text-anchor="middle" x="1434.83" y="-1429.3" font-family="Times,serif" font-size="14.00">Language.Drasil.Code.Code</text>
</g>
<!-- u56&#45;&gt;u16 -->
<g id="edge88" class="edge">
<title>u56&#45;&gt;u16</title>
<path fill="none" stroke="black" d="M2629.87,-1690.62C2415.09,-1644.5 1744.08,-1500.41 1513.54,-1450.9"/>
<polygon fill="black" stroke="black" points="1514.06,-1447.43 1503.55,-1448.76 1512.59,-1454.28 1514.06,-1447.43"/>
</g>
<!-- u58 -->
<g id="node60" class="node">
<title>u58</title>
<ellipse fill="#bbff77" stroke="black" cx="2665.83" cy="-1433" rx="172.77" ry="18"/>
<text text-anchor="middle" x="2665.83" y="-1429.3" font-family="Times,serif" font-size="14.00">Language.Drasil.Data.ODELibPckg</text>
</g>
<!-- u56&#45;&gt;u58 -->
<g id="edge89" class="edge">
<title>u56&#45;&gt;u58</title>
<path fill="none" stroke="black" d="M2694.84,-1687.64C2689.59,-1641.75 2675.32,-1516.98 2668.96,-1461.37"/>
<polygon fill="black" stroke="black" points="2672.41,-1460.76 2667.8,-1451.22 2665.46,-1461.55 2672.41,-1460.76"/>
</g>
<!-- u25 -->
<g id="node37" class="node">
<title>u25</title>
<ellipse fill="#77ff77" stroke="black" cx="1515.83" cy="-3617" rx="217.16" ry="18"/>
<text text-anchor="middle" x="1515.83" y="-3613.3" font-family="Times,serif" font-size="14.00">Language.Drasil.Code.Imperative.Generator</text>
</g>
<!-- u9&#45;&gt;u25 -->
<g id="edge13" class="edge">
<title>u9&#45;&gt;u25</title>
<path fill="none" stroke="black" d="M3671.59,-3878.46C3326.03,-3836.71 2052.24,-3682.81 1643.19,-3633.39"/>
<polygon fill="black" stroke="black" points="1643.45,-3629.89 1633.1,-3632.17 1642.61,-3636.84 1643.45,-3629.89"/>
</g>
<!-- u20 -->
<g id="node41" class="node">
<title>u20</title>
<ellipse fill="#77ff77" stroke="black" cx="5393.83" cy="-2252" rx="217.96" ry="18"/>
<text text-anchor="middle" x="5393.83" y="-2248.3" font-family="Times,serif" font-size="14.00">Language.Drasil.Code.Imperative.ReadInput</text>
</g>
<!-- u9&#45;&gt;u20 -->
<g id="edge12" class="edge">
<title>u9&#45;&gt;u20</title>
<path fill="none" stroke="black" d="M3851.97,-3879.78C4318.16,-3832.4 6375.83,-3608.35 6375.83,-3345 6375.83,-3345 6375.83,-3345 6375.83,-2797 6375.83,-2420.51 5816.67,-2302.45 5542.23,-2267.18"/>
<polygon fill="black" stroke="black" points="5542.54,-2263.7 5532.18,-2265.91 5541.67,-2270.64 5542.54,-2263.7"/>
</g>
<!-- u43 -->
<g id="node50" class="node">
<title>u43</title>
<ellipse fill="#77ffff" stroke="black" cx="5250.83" cy="-3344" rx="369.33" ry="18"/>
<text text-anchor="middle" x="5250.83" y="-3340.3" font-family="Times,serif" font-size="14.00">Language.Drasil.Code.Imperative.GOOL.LanguageRenderer.CSharpRenderer</text>
</g>
<!-- u9&#45;&gt;u43 -->
<g id="edge19" class="edge">
<title>u9&#45;&gt;u43</title>
<path fill="none" stroke="black" d="M3801.87,-3873.31C4014.76,-3795.68 4954.49,-3453.05 5194.74,-3365.45"/>
<polygon fill="black" stroke="black" points="5196.13,-3368.67 5204.33,-3361.96 5193.73,-3362.09 5196.13,-3368.67"/>
</g>
<!-- u42 -->
<g id="node51" class="node">
<title>u42</title>
<ellipse fill="#77ffff" stroke="black" cx="5992.83" cy="-3344" rx="354.74" ry="18"/>
<text text-anchor="middle" x="5992.83" y="-3340.3" font-family="Times,serif" font-size="14.00">Language.Drasil.Code.Imperative.GOOL.LanguageRenderer.JuliaRenderer</text>
</g>
<!-- u9&#45;&gt;u42 -->
<g id="edge18" class="edge">
<title>u9&#45;&gt;u42</title>
<path fill="none" stroke="black" d="M3818.01,-3874.59C4127.78,-3799.16 5561.74,-3449.97 5914.35,-3364.11"/>
<polygon fill="black" stroke="black" points="5915.33,-3367.48 5924.21,-3361.71 5913.67,-3360.67 5915.33,-3367.48"/>
</g>
<!-- u40 -->
<g id="node53" class="node">
<title>u40</title>
<ellipse fill="#77ffff" stroke="black" cx="2302.83" cy="-3344" rx="358.54" ry="18"/>
<text text-anchor="middle" x="2302.83" y="-3340.3" font-family="Times,serif" font-size="14.00">Language.Drasil.Code.Imperative.GOOL.LanguageRenderer.SwiftRenderer</text>
</g>
<!-- u9&#45;&gt;u40 -->
<g id="edge17" class="edge">
<title>u9&#45;&gt;u40</title>
<path fill="none" stroke="black" d="M3716.43,-3873.16C3508.01,-3795.29 2592.63,-3453.28 2357.86,-3365.56"/>
<polygon fill="black" stroke="black" points="2358.76,-3362.16 2348.17,-3361.94 2356.31,-3368.72 2358.76,-3362.16"/>
</g>
<!-- u39 -->
<g id="node54" class="node">
<title>u39</title>
<ellipse fill="#77ffff" stroke="black" cx="3033.83" cy="-3344" rx="354.44" ry="18"/>
<text text-anchor="middle" x="3033.83" y="-3340.3" font-family="Times,serif" font-size="14.00">Language.Drasil.Code.Imperative.GOOL.LanguageRenderer.JavaRenderer</text>
</g>
<!-- u9&#45;&gt;u39 -->
<g id="edge16" class="edge">
<title>u9&#45;&gt;u39</title>
<path fill="none" stroke="black" d="M3736.34,-3872.12C3631.07,-3793.14 3187.07,-3459.99 3065,-3368.39"/>
<polygon fill="black" stroke="black" points="3066.88,-3365.42 3056.78,-3362.22 3062.68,-3371.02 3066.88,-3365.42"/>
</g>
<!-- u38 -->
<g id="node55" class="node">
<title>u38</title>
<ellipse fill="#77ffff" stroke="black" cx="3758.83" cy="-3344" rx="352.84" ry="18"/>
<text text-anchor="middle" x="3758.83" y="-3340.3" font-family="Times,serif" font-size="14.00">Language.Drasil.Code.Imperative.GOOL.LanguageRenderer.CppRenderer</text>
</g>
<!-- u9&#45;&gt;u38 -->
<g id="edge15" class="edge">
<title>u9&#45;&gt;u38</title>
<path fill="none" stroke="black" d="M3758.83,-3871.82C3758.83,-3793.39 3758.83,-3469.01 3758.83,-3372.32"/>
<polygon fill="black" stroke="black" points="3762.33,-3372.18 3758.83,-3362.18 3755.33,-3372.18 3762.33,-3372.18"/>
</g>
<!-- u37 -->
<g id="node56" class="node">
<title>u37</title>
<ellipse fill="#77ffff" stroke="black" cx="4496.83" cy="-3344" rx="367.43" ry="18"/>
<text text-anchor="middle" x="4496.83" y="-3340.3" font-family="Times,serif" font-size="14.00">Language.Drasil.Code.Imperative.GOOL.LanguageRenderer.PythonRenderer</text>
</g>
<!-- u9&#45;&gt;u37 -->
<g id="edge14" class="edge">
<title>u9&#45;&gt;u37</title>
<path fill="none" stroke="black" d="M3781.73,-3872.12C3888.88,-3793.14 4340.84,-3459.99 4465.1,-3368.39"/>
<polygon fill="black" stroke="black" points="4467.5,-3370.97 4473.47,-3362.22 4463.34,-3365.34 4467.5,-3370.97"/>
</g>
<!-- u8 -->
<g id="node12" class="node">
<title>u8</title>
<ellipse fill="#ffbbbb" stroke="black" cx="2122.83" cy="-1979" rx="135.68" ry="18"/>
<text text-anchor="middle" x="2122.83" y="-1975.3" font-family="Times,serif" font-size="14.00">Language.Drasil.CodeSpec</text>
</g>
<!-- u8&#45;&gt;u56 -->
<g id="edge11" class="edge">
<title>u8&#45;&gt;u56</title>
<path fill="none" stroke="black" d="M2157.87,-1961.46C2257.68,-1914.33 2543.31,-1779.48 2653.1,-1727.64"/>
<polygon fill="black" stroke="black" points="2654.7,-1730.76 2662.25,-1723.33 2651.71,-1724.43 2654.7,-1730.76"/>
</g>
<!-- u15 -->
<g id="node13" class="node">
<title>u15</title>
<ellipse fill="#bbffff" stroke="black" cx="1922.83" cy="-1706" rx="192.27" ry="18"/>
<text text-anchor="middle" x="1922.83" y="-1702.3" font-family="Times,serif" font-size="14.00">Language.Drasil.Chunk.ConstraintMap</text>
</g>
<!-- u8&#45;&gt;u15 -->
<g id="edge10" class="edge">
<title>u8&#45;&gt;u15</title>
<path fill="none" stroke="black" d="M2110.32,-1961.05C2076.31,-1914.96 1982,-1787.18 1941.6,-1732.43"/>
<polygon fill="black" stroke="black" points="1944.35,-1730.26 1935.59,-1724.29 1938.72,-1734.42 1944.35,-1730.26"/>
</g>
<!-- u13 -->
<g id="node15" class="node">
<title>u13</title>
<ellipse fill="#bbffff" stroke="black" cx="2323.83" cy="-1706" rx="191.17" ry="18"/>
<text text-anchor="middle" x="2323.83" y="-1702.3" font-family="Times,serif" font-size="14.00">Language.Drasil.Chunk.CodeDefinition</text>
</g>
<!-- u8&#45;&gt;u13 -->
<g id="edge9" class="edge">
<title>u8&#45;&gt;u13</title>
<path fill="none" stroke="black" d="M2135.4,-1961.05C2169.59,-1914.96 2264.36,-1787.18 2304.97,-1732.43"/>
<polygon fill="black" stroke="black" points="2307.86,-1734.41 2311,-1724.29 2302.23,-1730.24 2307.86,-1734.41"/>
</g>
<!-- u14 -->
<g id="node14" class="node">
<title>u14</title>
<ellipse fill="#bbffff" stroke="black" cx="3098.83" cy="-68" rx="168.17" ry="18"/>
<text text-anchor="middle" x="3098.83" y="-64.3" font-family="Times,serif" font-size="14.00">Language.Drasil.Chunk.CodeBase</text>
</g>
<!-- u59 -->
<g id="node59" class="node">
<title>u59</title>
<ellipse fill="#bbff77" stroke="black" cx="2354.83" cy="-1160" rx="154.07" ry="18"/>
<text text-anchor="middle" x="2354.83" y="-1156.3" font-family="Times,serif" font-size="14.00">Language.Drasil.Data.ODEInfo</text>
</g>
<!-- u13&#45;&gt;u59 -->
<g id="edge22" class="edge">
<title>u13&#45;&gt;u59</title>
<path fill="none" stroke="black" d="M2324.81,-1687.82C2329.28,-1609.39 2347.76,-1285.01 2353.27,-1188.32"/>
<polygon fill="black" stroke="black" points="2356.78,-1188.37 2353.85,-1178.18 2349.79,-1187.97 2356.78,-1188.37"/>
</g>
<!-- u11 -->
<g id="node17" class="node">
<title>u11</title>
<ellipse fill="#bbffff" stroke="black" cx="3098.83" cy="-341" rx="145.67" ry="18"/>
<text text-anchor="middle" x="3098.83" y="-337.3" font-family="Times,serif" font-size="14.00">Language.Drasil.Chunk.Code</text>
</g>
<!-- u12&#45;&gt;u11 -->
<g id="edge21" class="edge">
<title>u12&#45;&gt;u11</title>
<path fill="none" stroke="black" d="M3098.83,-595.64C3098.83,-549.75 3098.83,-424.98 3098.83,-369.37"/>
<polygon fill="black" stroke="black" points="3102.33,-369.22 3098.83,-359.22 3095.33,-369.22 3102.33,-369.22"/>
</g>
<!-- u11&#45;&gt;u14 -->
<g id="edge20" class="edge">
<title>u11&#45;&gt;u14</title>
<path fill="none" stroke="black" d="M3098.83,-322.64C3098.83,-276.75 3098.83,-151.98 3098.83,-96.37"/>
<polygon fill="black" stroke="black" points="3102.33,-96.22 3098.83,-86.22 3095.33,-96.22 3102.33,-96.22"/>
</g>
<!-- u10 -->
<g id="node18" class="node">
<title>u10</title>
<ellipse fill="#bbffff" stroke="black" cx="3429.83" cy="-887" rx="202.26" ry="18"/>
<text text-anchor="middle" x="3429.83" y="-883.3" font-family="Times,serif" font-size="14.00">Language.Drasil.Chunk.NamedArgument</text>
</g>
<!-- u55 -->
<g id="node19" class="node">
<title>u55</title>
<ellipse fill="#ffbbff" stroke="black" cx="3035.83" cy="-1433" rx="178.97" ry="18"/>
<text text-anchor="middle" x="3035.83" y="-1429.3" font-family="Times,serif" font-size="14.00">Language.Drasil.Code.ExtLibImport</text>
</g>
<!-- u54 -->
<g id="node20" class="node">
<title>u54</title>
<ellipse fill="#ffbbff" stroke="black" cx="3013.83" cy="-1160" rx="190.37" ry="18"/>
<text text-anchor="middle" x="3013.83" y="-1156.3" font-family="Times,serif" font-size="14.00">Language.Drasil.Code.ExternalLibrary</text>
</g>
<!-- u55&#45;&gt;u54 -->
<g id="edge87" class="edge">
<title>u55&#45;&gt;u54</title>
<path fill="none" stroke="black" d="M3034.42,-1414.64C3030.69,-1368.75 3020.57,-1243.98 3016.05,-1188.37"/>
<polygon fill="black" stroke="black" points="3019.53,-1187.9 3015.23,-1178.22 3012.55,-1188.47 3019.53,-1187.9"/>
</g>
<!-- u52 -->
<g id="node22" class="node">
<title>u52</title>
<ellipse fill="#ffbbff" stroke="black" cx="3429.83" cy="-1160" rx="207.96" ry="18"/>
<text text-anchor="middle" x="3429.83" y="-1156.3" font-family="Times,serif" font-size="14.00">Language.Drasil.Code.ExternalLibraryCall</text>
</g>
<!-- u55&#45;&gt;u52 -->
<g id="edge86" class="edge">
<title>u55&#45;&gt;u52</title>
<path fill="none" stroke="black" d="M3060.48,-1415.05C3128.61,-1368.19 3319.55,-1236.85 3396.78,-1183.73"/>
<polygon fill="black" stroke="black" points="3398.94,-1186.5 3405.19,-1177.95 3394.97,-1180.73 3398.94,-1186.5"/>
</g>
<!-- u54&#45;&gt;u57 -->
<g id="edge85" class="edge">
<title>u54&#45;&gt;u57</title>
<path fill="none" stroke="black" d="M3019.28,-1141.64C3033.7,-1095.65 3072.97,-970.46 3090.35,-915.03"/>
<polygon fill="black" stroke="black" points="3093.78,-915.81 3093.43,-905.22 3087.1,-913.71 3093.78,-915.81"/>
</g>
<!-- u54&#45;&gt;u10 -->
<g id="edge84" class="edge">
<title>u54&#45;&gt;u10</title>
<path fill="none" stroke="black" d="M3039.85,-1142.05C3111.93,-1095.09 3314.21,-963.32 3395.43,-910.41"/>
<polygon fill="black" stroke="black" points="3397.35,-913.34 3403.82,-904.95 3393.53,-907.47 3397.35,-913.34"/>
</g>
<!-- u53 -->
<g id="node21" class="node">
<title>u53</title>
<ellipse fill="#ffbbff" stroke="black" cx="2665.83" cy="-1160" rx="139.18" ry="18"/>
<text text-anchor="middle" x="2665.83" y="-1156.3" font-family="Times,serif" font-size="14.00">Language.Drasil.Code.Lang</text>
</g>
<!-- u52&#45;&gt;u57 -->
<g id="edge83" class="edge">
<title>u52&#45;&gt;u57</title>
<path fill="none" stroke="black" d="M3409.12,-1142.05C3352.12,-1095.38 3192.78,-964.92 3127.39,-911.38"/>
<polygon fill="black" stroke="black" points="3129.48,-908.57 3119.53,-904.95 3125.05,-913.99 3129.48,-908.57"/>
</g>
<!-- u52&#45;&gt;u10 -->
<g id="edge82" class="edge">
<title>u52&#45;&gt;u10</title>
<path fill="none" stroke="black" d="M3429.83,-1141.64C3429.83,-1095.75 3429.83,-970.98 3429.83,-915.37"/>
<polygon fill="black" stroke="black" points="3433.33,-915.22 3429.83,-905.22 3426.33,-915.22 3433.33,-915.22"/>
</g>
<!-- u51 -->
<g id="node23" class="node">
<title>u51</title>
<ellipse fill="#ffbbff" stroke="black" cx="827.83" cy="-2525" rx="204.16" ry="18"/>
<text text-anchor="middle" x="827.83" y="-2521.3" font-family="Times,serif" font-size="14.00">Language.Drasil.Code.CodeQuantityDicts</text>
</g>
<!-- u50 -->
<g id="node24" class="node">
<title>u50</title>
<ellipse fill="#ffbbff" stroke="black" cx="1734.83" cy="-3344" rx="191.17" ry="18"/>
<text text-anchor="middle" x="1734.83" y="-3340.3" font-family="Times,serif" font-size="14.00">Language.Drasil.Code.CodeGeneration</text>
</g>
<!-- u50&#45;&gt;u16 -->
<g id="edge80" class="edge">
<title>u50&#45;&gt;u16</title>
<path fill="none" stroke="black" d="M1577.85,-3333.71C1277.81,-3312.44 640.28,-3249.08 500.83,-3089 415.99,-2991.6 481.83,-2928.17 481.83,-2799 481.83,-2799 481.83,-2799 481.83,-1978 481.83,-1596.83 1063.94,-1479.18 1318.27,-1445.97"/>
<polygon fill="black" stroke="black" points="1318.81,-1449.43 1328.28,-1444.68 1317.92,-1442.49 1318.81,-1449.43"/>
</g>
<!-- u36 -->
<g id="node48" class="node">
<title>u36</title>
<ellipse fill="#ff7777" stroke="black" cx="3124.83" cy="-3071" rx="222.06" ry="18"/>
<text text-anchor="middle" x="3124.83" y="-3067.3" font-family="Times,serif" font-size="14.00">Language.Drasil.Code.Imperative.GOOL.Data</text>
</g>
<!-- u50&#45;&gt;u36 -->
<g id="edge81" class="edge">
<title>u50&#45;&gt;u36</title>
<path fill="none" stroke="black" d="M1813.8,-3327.6C2054.36,-3280.7 2777.29,-3139.76 3033.54,-3089.8"/>
<polygon fill="black" stroke="black" points="3034.41,-3093.19 3043.56,-3087.84 3033.07,-3086.32 3034.41,-3093.19"/>
</g>
<!-- u17&#45;&gt;u11 -->
<g id="edge23" class="edge">
<title>u17&#45;&gt;u11</title>
<path fill="none" stroke="black" d="M3759.18,-596.56C3636.7,-549.34 3284.23,-413.47 3150.83,-362.04"/>
<polygon fill="black" stroke="black" points="3151.82,-358.68 3141.23,-358.35 3149.3,-365.21 3151.82,-358.68"/>
</g>
<!-- u48 -->
<g id="node27" class="node">
<title>u48</title>
<ellipse fill="#77ff77" stroke="black" cx="2647.83" cy="-2525" rx="240.46" ry="18"/>
<text text-anchor="middle" x="2647.83" y="-2521.3" font-family="Times,serif" font-size="14.00">Language.Drasil.Code.Imperative.GenerateGOOL</text>
</g>
<!-- u34 -->
<g id="node30" class="node">
<title>u34</title>
<ellipse fill="#77ff77" stroke="black" cx="1714.83" cy="-2252" rx="222.06" ry="18"/>
<text text-anchor="middle" x="1714.83" y="-2248.3" font-family="Times,serif" font-size="14.00">Language.Drasil.Code.Imperative.DrasilState</text>
</g>
<!-- u48&#45;&gt;u34 -->
<g id="edge77" class="edge">
<title>u48&#45;&gt;u34</title>
<path fill="none" stroke="black" d="M2590.87,-2507.46C2427.19,-2459.91 1956.03,-2323.06 1781.18,-2272.27"/>
<polygon fill="black" stroke="black" points="1781.92,-2268.84 1771.34,-2269.41 1779.97,-2275.56 1781.92,-2268.84"/>
</g>
<!-- u35 -->
<g id="node49" class="node">
<title>u35</title>
<ellipse fill="#ff7777" stroke="black" cx="3619.83" cy="-2252" rx="267.25" ry="18"/>
<text text-anchor="middle" x="3619.83" y="-2248.3" font-family="Times,serif" font-size="14.00">Language.Drasil.Code.Imperative.GOOL.ClassInterface</text>
</g>
<!-- u48&#45;&gt;u35 -->
<g id="edge78" class="edge">
<title>u48&#45;&gt;u35</title>
<path fill="none" stroke="black" d="M2707.17,-2507.46C2877.66,-2459.92 3368.36,-2323.11 3550.6,-2272.3"/>
<polygon fill="black" stroke="black" points="3551.65,-2275.64 3560.34,-2269.59 3549.77,-2268.9 3551.65,-2275.64"/>
</g>
<!-- u46 -->
<g id="node28" class="node">
<title>u46</title>
<ellipse fill="#77ff77" stroke="black" cx="4137.83" cy="-2252" rx="233.16" ry="18"/>
<text text-anchor="middle" x="4137.83" y="-2248.3" font-family="Times,serif" font-size="14.00">Language.Drasil.Code.Imperative.WriteReadMe</text>
</g>
<!-- u49 -->
<g id="node58" class="node">
<title>u49</title>
<ellipse fill="#33ff33" stroke="black" cx="3796.83" cy="-1979" rx="242.36" ry="18"/>
<text text-anchor="middle" x="3796.83" y="-1975.3" font-family="Times,serif" font-size="14.00">Language.Drasil.Code.Imperative.ReadMe.Import</text>
</g>
<!-- u46&#45;&gt;u49 -->
<g id="edge75" class="edge">
<title>u46&#45;&gt;u49</title>
<path fill="none" stroke="black" d="M4116.5,-2234.05C4057.77,-2187.38 3893.62,-2056.92 3826.25,-2003.38"/>
<polygon fill="black" stroke="black" points="3828.16,-2000.43 3818.15,-1996.95 3823.8,-2005.91 3828.16,-2000.43"/>
</g>
<!-- u45 -->
<g id="node29" class="node">
<title>u45</title>
<ellipse fill="#77ff77" stroke="black" cx="1216.83" cy="-3344" rx="209.06" ry="18"/>
<text text-anchor="middle" x="1216.83" y="-3340.3" font-family="Times,serif" font-size="14.00">Language.Drasil.Code.Imperative.Modules</text>
</g>
<!-- u33 -->
<g id="node31" class="node">
<title>u33</title>
<ellipse fill="#77ff77" stroke="black" cx="737.83" cy="-3071" rx="228.26" ry="18"/>
<text text-anchor="middle" x="737.83" y="-3067.3" font-family="Times,serif" font-size="14.00">Language.Drasil.Code.Imperative.Descriptions</text>
</g>
<!-- u45&#45;&gt;u33 -->
<g id="edge74" class="edge">
<title>u45&#45;&gt;u33</title>
<path fill="none" stroke="black" d="M1186.87,-3326.05C1103.62,-3278.95 869.55,-3146.52 776.59,-3093.93"/>
<polygon fill="black" stroke="black" points="778.21,-3090.82 767.78,-3088.95 774.76,-3096.92 778.21,-3090.82"/>
</g>
<!-- u21 -->
<g id="node40" class="node">
<title>u21</title>
<ellipse fill="#77ff77" stroke="black" cx="1216.83" cy="-3071" rx="233.16" ry="18"/>
<text text-anchor="middle" x="1216.83" y="-3067.3" font-family="Times,serif" font-size="14.00">Language.Drasil.Code.Imperative.FunctionCalls</text>
</g>
<!-- u45&#45;&gt;u21 -->
<g id="edge73" class="edge">
<title>u45&#45;&gt;u21</title>
<path fill="none" stroke="black" d="M1216.83,-3325.64C1216.83,-3279.75 1216.83,-3154.98 1216.83,-3099.37"/>
<polygon fill="black" stroke="black" points="1220.33,-3099.22 1216.83,-3089.22 1213.33,-3099.22 1220.33,-3099.22"/>
</g>
<!-- u34&#45;&gt;u8 -->
<g id="edge52" class="edge">
<title>u34&#45;&gt;u8</title>
<path fill="none" stroke="black" d="M1740.35,-2234.05C1810.99,-2187.13 2009.1,-2055.54 2088.89,-2002.54"/>
<polygon fill="black" stroke="black" points="2091.18,-2005.22 2097.58,-1996.77 2087.31,-1999.39 2091.18,-2005.22"/>
</g>
<!-- u34&#45;&gt;u55 -->
<g id="edge53" class="edge">
<title>u34&#45;&gt;u55</title>
<path fill="none" stroke="black" d="M1767.08,-2234.49C1869.48,-2200.58 2101.07,-2116.16 2267.83,-1997 2306.39,-1969.45 2524.13,-1716.72 2561.83,-1688 2702.8,-1580.59 2895.34,-1492.81 2985.46,-1454.61"/>
<polygon fill="black" stroke="black" points="2987.04,-1457.74 2994.89,-1450.63 2984.32,-1451.29 2987.04,-1457.74"/>
</g>
<!-- u33&#45;&gt;u34 -->
<g id="edge51" class="edge">
<title>u33&#45;&gt;u34</title>
<path fill="none" stroke="black" d="M723.93,-3052.61C666.21,-2978.18 454.81,-2682.33 594.83,-2507 712.43,-2359.74 1267.07,-2291.46 1549.17,-2265.82"/>
<polygon fill="black" stroke="black" points="1549.86,-2269.27 1559.5,-2264.89 1549.23,-2262.3 1549.86,-2269.27"/>
</g>
<!-- u32 -->
<g id="node32" class="node">
<title>u32</title>
<ellipse fill="#77ff77" stroke="black" cx="2513.83" cy="-2252" rx="237.46" ry="18"/>
<text text-anchor="middle" x="2513.83" y="-2248.3" font-family="Times,serif" font-size="14.00">Language.Drasil.Code.Imperative.ConceptMatch</text>
</g>
<!-- u32&#45;&gt;u56 -->
<g id="edge50" class="edge">
<title>u32&#45;&gt;u56</title>
<path fill="none" stroke="black" d="M2518.42,-2233.86C2530.59,-2188.81 2565.13,-2063.46 2599.83,-1961 2628.27,-1877.04 2667.18,-1779.57 2685.9,-1733.6"/>
<polygon fill="black" stroke="black" points="2689.25,-1734.66 2689.79,-1724.08 2682.76,-1732.02 2689.25,-1734.66"/>
</g>
<!-- u31 -->
<g id="node33" class="node">
<title>u31</title>
<ellipse fill="#77ff77" stroke="black" cx="1714.83" cy="-2798" rx="201.46" ry="18"/>
<text text-anchor="middle" x="1714.83" y="-2794.3" font-family="Times,serif" font-size="14.00">Language.Drasil.Code.Imperative.Import</text>
</g>
<!-- u31&#45;&gt;u51 -->
<g id="edge49" class="edge">
<title>u31&#45;&gt;u51</title>
<path fill="none" stroke="black" d="M1661.01,-2780.56C1505.8,-2733.14 1057.83,-2596.27 891.23,-2545.37"/>
<polygon fill="black" stroke="black" points="892.2,-2542.01 881.61,-2542.43 890.15,-2548.7 892.2,-2542.01"/>
</g>
<!-- u31&#45;&gt;u48 -->
<g id="edge48" class="edge">
<title>u31&#45;&gt;u48</title>
<path fill="none" stroke="black" d="M1771.09,-2780.66C1934.07,-2733.32 2406.03,-2596.23 2581.28,-2545.33"/>
<polygon fill="black" stroke="black" points="2582.27,-2548.69 2590.9,-2542.54 2580.32,-2541.96 2582.27,-2548.69"/>
</g>
<!-- u31&#45;&gt;u32 -->
<g id="edge47" class="edge">
<title>u31&#45;&gt;u32</title>
<path fill="none" stroke="black" d="M1806.27,-2781.93C1941.95,-2755.39 2198.06,-2688.66 2360.83,-2543 2444.52,-2468.11 2490.08,-2336.42 2506.58,-2279.95"/>
<polygon fill="black" stroke="black" points="2510.04,-2280.58 2509.41,-2270 2503.31,-2278.66 2510.04,-2280.58"/>
</g>
<!-- u28 -->
<g id="node34" class="node">
<title>u28</title>
<ellipse fill="#77ff77" stroke="black" cx="2145.83" cy="-2525" rx="206.06" ry="18"/>
<text text-anchor="middle" x="2145.83" y="-2521.3" font-family="Times,serif" font-size="14.00">Language.Drasil.Code.Imperative.Helpers</text>
</g>
<!-- u31&#45;&gt;u28 -->
<g id="edge46" class="edge">
<title>u31&#45;&gt;u28</title>
<path fill="none" stroke="black" d="M1741.79,-2780.05C1816.47,-2733.09 2026.04,-2601.32 2110.19,-2548.41"/>
<polygon fill="black" stroke="black" points="2112.28,-2551.23 2118.88,-2542.95 2108.55,-2545.31 2112.28,-2551.23"/>
</g>
<!-- u23 -->
<g id="node39" class="node">
<title>u23</title>
<ellipse fill="#77ff77" stroke="black" cx="1269.83" cy="-2525" rx="219.86" ry="18"/>
<text text-anchor="middle" x="1269.83" y="-2521.3" font-family="Times,serif" font-size="14.00">Language.Drasil.Code.Imperative.Comments</text>
</g>
<!-- u31&#45;&gt;u23 -->
<g id="edge45" class="edge">
<title>u31&#45;&gt;u23</title>
<path fill="none" stroke="black" d="M1686.99,-2780.05C1609.81,-2733.04 1393.07,-2601.05 1306.36,-2548.25"/>
<polygon fill="black" stroke="black" points="1308.02,-2545.16 1297.66,-2542.95 1304.38,-2551.14 1308.02,-2545.16"/>
</g>
<!-- u18 -->
<g id="node43" class="node">
<title>u18</title>
<ellipse fill="#77ff77" stroke="black" cx="1714.83" cy="-2525" rx="207.16" ry="18"/>
<text text-anchor="middle" x="1714.83" y="-2521.3" font-family="Times,serif" font-size="14.00">Language.Drasil.Code.Imperative.Logging</text>
</g>
<!-- u31&#45;&gt;u18 -->
<g id="edge44" class="edge">
<title>u31&#45;&gt;u18</title>
<path fill="none" stroke="black" d="M1714.83,-2779.64C1714.83,-2733.75 1714.83,-2608.98 1714.83,-2553.37"/>
<polygon fill="black" stroke="black" points="1718.33,-2553.22 1714.83,-2543.22 1711.33,-2553.22 1718.33,-2553.22"/>
</g>
<!-- u28&#45;&gt;u34 -->
<g id="edge42" class="edge">
<title>u28&#45;&gt;u34</title>
<path fill="none" stroke="black" d="M2118.87,-2507.05C2044.19,-2460.09 1834.62,-2328.32 1750.47,-2275.41"/>
<polygon fill="black" stroke="black" points="1752.11,-2272.31 1741.78,-2269.95 1748.38,-2278.23 1752.11,-2272.31"/>
</g>
<!-- u27 -->
<g id="node35" class="node">
<title>u27</title>
<ellipse fill="#77ff77" stroke="black" cx="4064.83" cy="-1433" rx="219.86" ry="18"/>
<text text-anchor="middle" x="4064.83" y="-1429.3" font-family="Times,serif" font-size="14.00">Language.Drasil.Code.Imperative.WriteInput</text>
</g>
<!-- u27&#45;&gt;u17 -->
<g id="edge41" class="edge">
<title>u27&#45;&gt;u17</title>
<path fill="none" stroke="black" d="M4059.34,-1414.94C4026.08,-1311.63 3851.74,-770.05 3810.56,-642.11"/>
<polygon fill="black" stroke="black" points="3813.8,-640.76 3807.4,-632.31 3807.14,-642.91 3813.8,-640.76"/>
</g>
<!-- u26 -->
<g id="node36" class="node">
<title>u26</title>
<ellipse fill="#77ff77" stroke="black" cx="827.83" cy="-2798" rx="223.66" ry="18"/>
<text text-anchor="middle" x="827.83" y="-2794.3" font-family="Times,serif" font-size="14.00">Language.Drasil.Code.Imperative.Parameters</text>
</g>
<!-- u26&#45;&gt;u51 -->
<g id="edge40" class="edge">
<title>u26&#45;&gt;u51</title>
<path fill="none" stroke="black" d="M827.83,-2779.64C827.83,-2733.75 827.83,-2608.98 827.83,-2553.37"/>
<polygon fill="black" stroke="black" points="831.33,-2553.22 827.83,-2543.22 824.33,-2553.22 831.33,-2553.22"/>
</g>
<!-- u26&#45;&gt;u34 -->
<g id="edge39" class="edge">
<title>u26&#45;&gt;u34</title>
<path fill="none" stroke="black" d="M798.29,-2780.15C722.82,-2735.04 534.43,-2608.08 614.83,-2507 730.34,-2361.78 1276.75,-2292.43 1553.45,-2266.16"/>
<polygon fill="black" stroke="black" points="1553.95,-2269.62 1563.58,-2265.2 1553.3,-2262.65 1553.95,-2269.62"/>
</g>
<!-- u25&#45;&gt;u50 -->
<g id="edge38" class="edge">
<title>u25&#45;&gt;u50</title>
<path fill="none" stroke="black" d="M1529.86,-3598.64C1567.41,-3552.17 1670.31,-3424.85 1714.37,-3370.32"/>
<polygon fill="black" stroke="black" points="1717.35,-3372.2 1720.91,-3362.22 1711.91,-3367.8 1717.35,-3372.2"/>
</g>
<!-- u25&#45;&gt;u45 -->
<g id="edge37" class="edge">
<title>u25&#45;&gt;u45</title>
<path fill="none" stroke="black" d="M1497.13,-3599.05C1445.74,-3552.47 1302.28,-3422.45 1242.99,-3368.71"/>
<polygon fill="black" stroke="black" points="1245.29,-3366.07 1235.53,-3361.95 1240.59,-3371.25 1245.29,-3366.07"/>
</g>
<!-- u24 -->
<g id="node38" class="node">
<title>u24</title>
<ellipse fill="#77ff77" stroke="black" cx="2818.83" cy="-1979" rx="209.86" ry="18"/>
<text text-anchor="middle" x="2818.83" y="-1975.3" font-family="Times,serif" font-size="14.00">Language.Drasil.Code.Imperative.GenODE</text>
</g>
<!-- u25&#45;&gt;u24 -->
<g id="edge35" class="edge">
<title>u25&#45;&gt;u24</title>
<path fill="none" stroke="black" d="M1511.39,-3598.83C1500.36,-3552.67 1475.22,-3422.8 1513.83,-3326 1575.8,-3170.65 1642.52,-3157.84 1772.83,-3053 1955.68,-2905.88 2012.62,-2880.22 2224.83,-2780 2511.2,-2644.76 2713.88,-2801.51 2896.83,-2543 3019.08,-2370.26 2881.76,-2091.83 2833.98,-2006.02"/>
<polygon fill="black" stroke="black" points="2836.97,-2004.18 2829,-1997.19 2830.87,-2007.62 2836.97,-2004.18"/>
</g>
<!-- u19 -->
<g id="node42" class="node">
<title>u19</title>
<ellipse fill="#77ff77" stroke="black" cx="226.83" cy="-3071" rx="226.66" ry="18"/>
<text text-anchor="middle" x="226.83" y="-3067.3" font-family="Times,serif" font-size="14.00">Language.Drasil.Code.Imperative.SpaceMatch</text>
</g>
<!-- u25&#45;&gt;u19 -->
<g id="edge34" class="edge">
<title>u25&#45;&gt;u19</title>
<path fill="none" stroke="black" d="M1476.19,-3599.27C1287.9,-3519.8 484.22,-3180.63 276.17,-3092.82"/>
<polygon fill="black" stroke="black" points="277.29,-3089.5 266.71,-3088.83 274.57,-3095.95 277.29,-3089.5"/>
</g>
<!-- u44 -->
<g id="node47" class="node">
<title>u44</title>
<ellipse fill="#ff7777" stroke="black" cx="2522.83" cy="-2798" rx="289.45" ry="18"/>
<text text-anchor="middle" x="2522.83" y="-2794.3" font-family="Times,serif" font-size="14.00">Language.Drasil.Code.Imperative.GOOL.LanguageRenderer</text>
</g>
<!-- u25&#45;&gt;u44 -->
<g id="edge36" class="edge">
<title>u25&#45;&gt;u44</title>
<path fill="none" stroke="black" d="M1511.66,-3598.88C1501.06,-3551.17 1477.79,-3414.39 1534.83,-3326 1744.59,-3000.96 2225.21,-2862.82 2428.87,-2817.41"/>
<polygon fill="black" stroke="black" points="2429.64,-2820.82 2438.65,-2815.25 2428.13,-2813.99 2429.64,-2820.82"/>
</g>
<!-- u24&#45;&gt;u56 -->
<g id="edge33" class="edge">
<title>u24&#45;&gt;u56</title>
<path fill="none" stroke="black" d="M2811.01,-1960.64C2790.23,-1914.46 2733.48,-1788.41 2708.69,-1733.34"/>
<polygon fill="black" stroke="black" points="2711.88,-1731.9 2704.58,-1724.22 2705.5,-1734.78 2711.88,-1731.9"/>
</g>
<!-- u24&#45;&gt;u13 -->
<g id="edge31" class="edge">
<title>u24&#45;&gt;u13</title>
<path fill="none" stroke="black" d="M2787.87,-1961.05C2701.65,-1913.84 2458.88,-1780.94 2363.25,-1728.58"/>
<polygon fill="black" stroke="black" points="2364.92,-1725.5 2354.47,-1723.77 2361.56,-1731.64 2364.92,-1725.5"/>
</g>
<!-- u24&#45;&gt;u55 -->
<g id="edge32" class="edge">
<title>u24&#45;&gt;u55</title>
<path fill="none" stroke="black" d="M2825.68,-1960.82C2857.03,-1882.23 2986.89,-1556.7 3025.17,-1460.74"/>
<polygon fill="black" stroke="black" points="3028.52,-1461.77 3028.98,-1451.18 3022.02,-1459.17 3028.52,-1461.77"/>
</g>
<!-- u23&#45;&gt;u34 -->
<g id="edge30" class="edge">
<title>u23&#45;&gt;u34</title>
<path fill="none" stroke="black" d="M1297.67,-2507.05C1374.85,-2460.04 1591.59,-2328.05 1678.3,-2275.25"/>
<polygon fill="black" stroke="black" points="1680.28,-2278.14 1687,-2269.95 1676.64,-2272.16 1680.28,-2278.14"/>
</g>
<!-- u21&#45;&gt;u31 -->
<g id="edge28" class="edge">
<title>u21&#45;&gt;u31</title>
<path fill="none" stroke="black" d="M1247.98,-3053.05C1334.62,-3005.9 1578.38,-2873.25 1674.83,-2820.77"/>
<polygon fill="black" stroke="black" points="1676.58,-2823.8 1683.69,-2815.95 1673.23,-2817.65 1676.58,-2823.8"/>
</g>
<!-- u21&#45;&gt;u26 -->
<g id="edge27" class="edge">
<title>u21&#45;&gt;u26</title>
<path fill="none" stroke="black" d="M1192.5,-3053.05C1125.23,-3006.19 936.71,-2874.85 860.46,-2821.73"/>
<polygon fill="black" stroke="black" points="862.36,-2818.79 852.15,-2815.95 858.36,-2824.53 862.36,-2818.79"/>
</g>
<!-- u20&#45;&gt;u17 -->
<g id="edge26" class="edge">
<title>u20&#45;&gt;u17</title>
<path fill="none" stroke="black" d="M5295.68,-2235.84C5071.65,-2195.1 4541.83,-2061.28 4541.83,-1707 4541.83,-1707 4541.83,-1707 4541.83,-1159 4541.83,-833.37 4070.9,-681.08 3880.4,-632.8"/>
<polygon fill="black" stroke="black" points="3881,-629.34 3870.45,-630.31 3879.3,-636.13 3881,-629.34"/>
</g>
<!-- u19&#45;&gt;u34 -->
<g id="edge25" class="edge">
<title>u19&#45;&gt;u34</title>
<path fill="none" stroke="black" d="M231.89,-3052.8C255.61,-2975.34 363.57,-2656.17 572.83,-2507 735.92,-2390.75 1325.47,-2302.87 1587.63,-2268.64"/>
<polygon fill="black" stroke="black" points="1588.11,-2272.11 1597.58,-2267.35 1587.21,-2265.16 1588.11,-2272.11"/>
</g>
<!-- u18&#45;&gt;u34 -->
<g id="edge24" class="edge">
<title>u18&#45;&gt;u34</title>
<path fill="none" stroke="black" d="M1714.83,-2506.64C1714.83,-2460.75 1714.83,-2335.98 1714.83,-2280.37"/>
<polygon fill="black" stroke="black" points="1718.33,-2280.22 1714.83,-2270.22 1711.33,-2280.22 1718.33,-2280.22"/>
</g>
<!-- u30 -->
<g id="node44" class="node">
<title>u30</title>
<ellipse fill="#ffff77" stroke="black" cx="3146.83" cy="-2798" rx="228.56" ry="18"/>
<text text-anchor="middle" x="3146.83" y="-2794.3" font-family="Times,serif" font-size="14.00">Language.Drasil.Code.Imperative.Build.Import</text>
</g>
<!-- u29 -->
<g id="node45" class="node">
<title>u29</title>
<ellipse fill="#ffff77" stroke="black" cx="3159.83" cy="-2525" rx="215.56" ry="18"/>
<text text-anchor="middle" x="3159.83" y="-2521.3" font-family="Times,serif" font-size="14.00">Language.Drasil.Code.Imperative.Build.AST</text>
</g>
<!-- u30&#45;&gt;u29 -->
<g id="edge43" class="edge">
<title>u30&#45;&gt;u29</title>
<path fill="none" stroke="black" d="M3147.66,-2779.64C3149.86,-2733.75 3155.85,-2608.98 3158.52,-2553.37"/>
<polygon fill="black" stroke="black" points="3162.02,-2553.38 3159,-2543.22 3155.03,-2553.04 3162.02,-2553.38"/>
</g>
<!-- u22 -->
<g id="node46" class="node">
<title>u22</title>
<ellipse fill="#7777ff" stroke="black" cx="3291.83" cy="-1979" rx="245.06" ry="18"/>
<text text-anchor="middle" x="3291.83" y="-1975.3" font-family="Times,serif" font-size="14.00">Language.Drasil.Code.Imperative.Doxygen.Import</text>
</g>
<!-- u22&#45;&gt;u56 -->
<g id="edge29" class="edge">
<title>u22&#45;&gt;u56</title>
<path fill="none" stroke="black" d="M3254.61,-1961.05C3150.31,-1913.54 2855.41,-1779.23 2742.02,-1727.58"/>
<polygon fill="black" stroke="black" points="2743.45,-1724.39 2732.9,-1723.43 2740.55,-1730.76 2743.45,-1724.39"/>
</g>
<!-- u35&#45;&gt;u49 -->
<g id="edge54" class="edge">
<title>u35&#45;&gt;u49</title>
<path fill="none" stroke="black" d="M3631.17,-2233.64C3661.46,-2187.27 3744.34,-2060.37 3780.07,-2005.66"/>
<polygon fill="black" stroke="black" points="3783.04,-2007.51 3785.58,-1997.22 3777.18,-2003.68 3783.04,-2007.51"/>
</g>
<!-- u43&#45;&gt;u36 -->
<g id="edge71" class="edge">
<title>u43&#45;&gt;u36</title>
<path fill="none" stroke="black" d="M5125.78,-3327.06C4748.48,-3278.97 3624.42,-3135.68 3248.7,-3087.79"/>
<polygon fill="black" stroke="black" points="3248.97,-3084.3 3238.61,-3086.5 3248.09,-3091.24 3248.97,-3084.3"/>
</g>
<!-- u41 -->
<g id="node52" class="node">
<title>u41</title>
<ellipse fill="#77ffff" stroke="black" cx="3758.83" cy="-3071" rx="393.73" ry="18"/>
<text text-anchor="middle" x="3758.83" y="-3067.3" font-family="Times,serif" font-size="14.00">Language.Drasil.Code.Imperative.GOOL.LanguageRenderer.LanguagePolymorphic</text>
</g>
<!-- u43&#45;&gt;u41 -->
<g id="edge72" class="edge">
<title>u43&#45;&gt;u41</title>
<path fill="none" stroke="black" d="M5160.02,-3326.51C4897.03,-3278.74 4136.03,-3140.51 3860.19,-3090.41"/>
<polygon fill="black" stroke="black" points="3860.66,-3086.94 3850.19,-3088.59 3859.41,-3093.83 3860.66,-3086.94"/>
</g>
<!-- u42&#45;&gt;u36 -->
<g id="edge69" class="edge">
<title>u42&#45;&gt;u36</title>
<path fill="none" stroke="black" d="M5833.26,-3327.92C5327.41,-3280.12 3764.02,-3132.4 3273.58,-3086.06"/>
<polygon fill="black" stroke="black" points="3273.9,-3082.57 3263.61,-3085.11 3273.24,-3089.54 3273.9,-3082.57"/>
</g>
<!-- u42&#45;&gt;u41 -->
<g id="edge70" class="edge">
<title>u42&#45;&gt;u41</title>
<path fill="none" stroke="black" d="M5862.66,-3327.21C5471.24,-3279.73 4307.03,-3138.5 3900.68,-3089.21"/>
<polygon fill="black" stroke="black" points="3900.98,-3085.72 3890.64,-3087.99 3900.14,-3092.67 3900.98,-3085.72"/>
</g>
<!-- u41&#45;&gt;u46 -->
<g id="edge68" class="edge">
<title>u41&#45;&gt;u46</title>
<path fill="none" stroke="black" d="M3766.75,-3052.94C3814.72,-2949.53 4066.41,-2406.96 4125.43,-2279.72"/>
<polygon fill="black" stroke="black" points="4128.76,-2280.86 4129.8,-2270.31 4122.41,-2277.91 4128.76,-2280.86"/>
</g>
<!-- u41&#45;&gt;u27 -->
<g id="edge64" class="edge">
<title>u41&#45;&gt;u27</title>
<path fill="none" stroke="black" d="M3813.95,-3053.1C3969.19,-3001.71 4398.83,-2831.87 4398.83,-2526 4398.83,-2526 4398.83,-2526 4398.83,-1978 4398.83,-1745.23 4174,-1528.22 4093.26,-1457.8"/>
<polygon fill="black" stroke="black" points="4095.33,-1454.96 4085.47,-1451.07 4090.75,-1460.26 4095.33,-1454.96"/>
</g>
<!-- u41&#45;&gt;u30 -->
<g id="edge65" class="edge">
<title>u41&#45;&gt;u30</title>
<path fill="none" stroke="black" d="M3720.55,-3053.05C3613.52,-3005.65 3311.38,-2871.86 3194.15,-2819.95"/>
<polygon fill="black" stroke="black" points="3195.27,-2816.62 3184.71,-2815.77 3192.43,-2823.02 3195.27,-2816.62"/>
</g>
<!-- u41&#45;&gt;u22 -->
<g id="edge63" class="edge">
<title>u41&#45;&gt;u22</title>
<path fill="none" stroke="black" d="M3747.4,-3052.86C3692.92,-2970.32 3457.49,-2604.02 3343.83,-2270 3312.06,-2176.65 3298.65,-2059.43 3293.97,-2007.24"/>
<polygon fill="black" stroke="black" points="3297.44,-2006.78 3293.09,-1997.12 3290.46,-2007.38 3297.44,-2006.78"/>
</g>
<!-- u41&#45;&gt;u44 -->
<g id="edge67" class="edge">
<title>u41&#45;&gt;u44</title>
<path fill="none" stroke="black" d="M3682.45,-3053.25C3463.85,-3005.32 2836.85,-2867.85 2607.87,-2817.64"/>
<polygon fill="black" stroke="black" points="2608.44,-2814.19 2597.92,-2815.46 2606.94,-2821.02 2608.44,-2814.19"/>
</g>
<!-- u41&#45;&gt;u35 -->
<g id="edge66" class="edge">
<title>u41&#45;&gt;u35</title>
<path fill="none" stroke="black" d="M3755.93,-3052.94C3738.37,-2949.73 3646.39,-2409.13 3624.51,-2280.49"/>
<polygon fill="black" stroke="black" points="3627.9,-2279.59 3622.78,-2270.31 3621,-2280.76 3627.9,-2279.59"/>
</g>
<!-- u40&#45;&gt;u36 -->
<g id="edge61" class="edge">
<title>u40&#45;&gt;u36</title>
<path fill="none" stroke="black" d="M2353.94,-3326.15C2498.43,-3278.51 2909.47,-3143 3064.58,-3091.86"/>
<polygon fill="black" stroke="black" points="3066.02,-3095.07 3074.42,-3088.62 3063.83,-3088.43 3066.02,-3095.07"/>
</g>
<!-- u40&#45;&gt;u41 -->
<g id="edge62" class="edge">
<title>u40&#45;&gt;u41</title>
<path fill="none" stroke="black" d="M2391.45,-3326.51C2647.96,-3278.76 3390,-3140.65 3659.51,-3090.49"/>
<polygon fill="black" stroke="black" points="3660.48,-3093.87 3669.67,-3088.59 3659.2,-3086.98 3660.48,-3093.87"/>
</g>
<!-- u39&#45;&gt;u36 -->
<g id="edge59" class="edge">
<title>u39&#45;&gt;u36</title>
<path fill="none" stroke="black" d="M3039.66,-3325.64C3055.1,-3279.65 3097.14,-3154.46 3115.75,-3099.03"/>
<polygon fill="black" stroke="black" points="3119.18,-3099.81 3119.05,-3089.22 3112.55,-3097.59 3119.18,-3099.81"/>
</g>
<!-- u39&#45;&gt;u41 -->
<g id="edge60" class="edge">
<title>u39&#45;&gt;u41</title>
<path fill="none" stroke="black" d="M3079.18,-3326.05C3206.33,-3278.52 3565.92,-3144.11 3703.95,-3092.52"/>
<polygon fill="black" stroke="black" points="3705.35,-3095.73 3713.5,-3088.95 3702.9,-3089.17 3705.35,-3095.73"/>
</g>
<!-- u38&#45;&gt;u36 -->
<g id="edge57" class="edge">
<title>u38&#45;&gt;u36</title>
<path fill="none" stroke="black" d="M3719.17,-3326.05C3608.18,-3278.61 3294.66,-3144.59 3173.48,-3092.8"/>
<polygon fill="black" stroke="black" points="3174.64,-3089.48 3164.07,-3088.77 3171.89,-3095.92 3174.64,-3089.48"/>
</g>
<!-- u38&#45;&gt;u41 -->
<g id="edge58" class="edge">
<title>u38&#45;&gt;u41</title>
<path fill="none" stroke="black" d="M3758.83,-3325.64C3758.83,-3279.75 3758.83,-3154.98 3758.83,-3099.37"/>
<polygon fill="black" stroke="black" points="3762.33,-3099.22 3758.83,-3089.22 3755.33,-3099.22 3762.33,-3099.22"/>
</g>
<!-- u37&#45;&gt;u36 -->
<g id="edge55" class="edge">
<title>u37&#45;&gt;u36</title>
<path fill="none" stroke="black" d="M4413.07,-3326.46C4170.05,-3278.45 3466.11,-3139.41 3215.08,-3089.83"/>
<polygon fill="black" stroke="black" points="3215.4,-3086.32 3204.91,-3087.82 3214.04,-3093.19 3215.4,-3086.32"/>
</g>
<!-- u37&#45;&gt;u41 -->
<g id="edge56" class="edge">
<title>u37&#45;&gt;u41</title>
<path fill="none" stroke="black" d="M4450.66,-3326.05C4321.24,-3278.52 3955.2,-3144.11 3814.7,-3092.52"/>
<polygon fill="black" stroke="black" points="3815.57,-3089.11 3804.98,-3088.95 3813.16,-3095.68 3815.57,-3089.11"/>
</g>
<!-- u47 -->
<g id="node57" class="node">
<title>u47</title>
<ellipse fill="#ff77ff" stroke="black" cx="2522.83" cy="-3071" rx="267.55" ry="18"/>
<text text-anchor="middle" x="2522.83" y="-3067.3" font-family="Times,serif" font-size="14.00">Language.Drasil.Code.Imperative.Parsers.ConfigParser</text>
</g>
<!-- u47&#45;&gt;u44 -->
<g id="edge76" class="edge">
<title>u47&#45;&gt;u44</title>
<path fill="none" stroke="black" d="M2522.83,-3052.64C2522.83,-3006.75 2522.83,-2881.98 2522.83,-2826.37"/>
<polygon fill="black" stroke="black" points="2526.33,-2826.22 2522.83,-2816.22 2519.33,-2826.22 2526.33,-2826.22"/>
</g>
<!-- u49&#45;&gt;u56 -->
<g id="edge79" class="edge">
<title>u49&#45;&gt;u56</title>
<path fill="none" stroke="black" d="M3730.5,-1961.66C3535.68,-1913.66 2966.4,-1773.41 2766.89,-1724.26"/>
<polygon fill="black" stroke="black" points="2767.65,-1720.84 2757.1,-1721.85 2765.98,-1727.64 2767.65,-1720.84"/>
</g>
<!-- u59&#45;&gt;u11 -->
<g id="edge96" class="edge">
<title>u59&#45;&gt;u11</title>
<path fill="none" stroke="black" d="M2370.37,-1141.94C2465.11,-1037.9 2964.67,-489.32 3076.57,-366.44"/>
<polygon fill="black" stroke="black" points="3079.23,-368.72 3083.38,-358.97 3074.06,-364.01 3079.23,-368.72"/>
</g>
<!-- u58&#45;&gt;u54 -->
<g id="edge94" class="edge">
<title>u58&#45;&gt;u54</title>
<path fill="none" stroke="black" d="M2687.6,-1415.05C2747.53,-1368.38 2915.06,-1237.92 2983.81,-1184.38"/>
<polygon fill="black" stroke="black" points="2986.33,-1186.85 2992.07,-1177.95 2982.03,-1181.33 2986.33,-1186.85"/>
</g>
<!-- u58&#45;&gt;u53 -->
<g id="edge93" class="edge">
<title>u58&#45;&gt;u53</title>
<path fill="none" stroke="black" d="M2665.83,-1414.64C2665.83,-1368.75 2665.83,-1243.98 2665.83,-1188.37"/>
<polygon fill="black" stroke="black" points="2669.33,-1188.22 2665.83,-1178.22 2662.33,-1188.22 2669.33,-1188.22"/>
</g>
<!-- u58&#45;&gt;u52 -->
<g id="edge92" class="edge">
<title>u58&#45;&gt;u52</title>
<path fill="none" stroke="black" d="M2712.19,-1415.56C2845.24,-1368.36 3228.06,-1232.57 3373.16,-1181.1"/>
<polygon fill="black" stroke="black" points="3374.52,-1184.33 3382.78,-1177.69 3372.18,-1177.73 3374.52,-1184.33"/>
</g>
<!-- u58&#45;&gt;u59 -->
<g id="edge95" class="edge">
<title>u58&#45;&gt;u59</title>
<path fill="none" stroke="black" d="M2646.38,-1415.05C2592.92,-1368.47 2443.71,-1238.45 2382.04,-1184.71"/>
<polygon fill="black" stroke="black" points="2384.12,-1181.88 2374.28,-1177.95 2379.52,-1187.15 2384.12,-1181.88"/>
</g>
<!-- u3 -->
<g id="node61" class="node">
<title>u3</title>
<ellipse fill="#3333ff" stroke="black" cx="1278.83" cy="-4163" rx="108.58" ry="18"/>
<text text-anchor="middle" x="1278.83" y="-4159.3" font-family="Times,serif" font-size="14.00">drasil&#45;code.test.Main</text>
</g>
<!-- u3&#45;&gt;u7 -->
<g id="edge5" class="edge">
<title>u3&#45;&gt;u7</title>
<path fill="none" stroke="black" d="M1294.59,-4145.05C1337.93,-4098.44 1458.97,-3968.28 1508.88,-3914.6"/>
<polygon fill="black" stroke="black" points="1511.47,-3916.96 1515.71,-3907.26 1506.34,-3912.2 1511.47,-3916.96"/>
</g>
<!-- u3&#45;&gt;u6 -->
<g id="edge4" class="edge">
<title>u3&#45;&gt;u6</title>
<path fill="none" stroke="black" d="M1254.3,-4145.25C1185.44,-4098.25 990.42,-3965.13 913.55,-3912.65"/>
<polygon fill="black" stroke="black" points="915.43,-3909.7 905.2,-3906.95 911.48,-3915.48 915.43,-3909.7"/>
</g>
<!-- u3&#45;&gt;u1 -->
<g id="edge2" class="edge">
<title>u3&#45;&gt;u1</title>
<path fill="none" stroke="black" d="M1263.75,-4145.05C1222.59,-4098.76 1108.12,-3970.04 1059.8,-3915.7"/>
<polygon fill="black" stroke="black" points="1062.16,-3913.09 1052.9,-3907.95 1056.93,-3917.74 1062.16,-3913.09"/>
</g>
<!-- u3&#45;&gt;u0 -->
<g id="edge1" class="edge">
<title>u3&#45;&gt;u0</title>
<path fill="none" stroke="black" d="M1273.26,-4144.64C1258.49,-4098.65 1218.3,-3973.46 1200.51,-3918.03"/>
<polygon fill="black" stroke="black" points="1203.75,-3916.67 1197.36,-3908.22 1197.08,-3918.81 1203.75,-3916.67"/>
</g>
<!-- u3&#45;&gt;u4 -->
<g id="edge3" class="edge">
<title>u3&#45;&gt;u4</title>
<path fill="none" stroke="black" d="M1284.34,-4144.64C1298.93,-4098.65 1338.66,-3973.46 1356.25,-3918.03"/>
<polygon fill="black" stroke="black" points="1359.68,-3918.81 1359.37,-3908.22 1353,-3916.69 1359.68,-3918.81"/>
</g>
<!-- u3&#45;&gt;u9 -->
<g id="edge6" class="edge">
<title>u3&#45;&gt;u9</title>
<path fill="none" stroke="black" d="M1366.73,-4152.39C1747.45,-4110.79 3253.17,-3946.26 3658.11,-3902.01"/>
<polygon fill="black" stroke="black" points="3658.77,-3905.45 3668.33,-3900.89 3658.01,-3898.5 3658.77,-3905.45"/>
</g>
</g>
</svg>
