<?xml version="1.0" encoding="UTF-8" standalone="no"?>
<!DOCTYPE svg PUBLIC "-//W3C//DTD SVG 1.1//EN"
 "http://www.w3.org/Graphics/SVG/1.1/DTD/svg11.dtd">
<!-- Generated by graphviz version 2.43.0 (0)
 -->
<!-- Title: G Pages: 1 -->
<svg width="431pt" height="288pt"
 viewBox="0.00 0.00 431.38 288.00" xmlns="http://www.w3.org/2000/svg" xmlns:xlink="http://www.w3.org/1999/xlink">
<g id="graph0" class="graph" transform="scale(0.2 0.2) rotate(0) translate(4 1469.33)">
<title>G</title>
<polygon fill="white" stroke="transparent" points="-4,4 -4,-1469.33 2202.82,-1469.33 2202.82,4 -4,4"/>
<!-- u32 -->
<g id="node1" class="node">
<title>u32</title>
<ellipse fill="#bbffbb" stroke="black" cx="1293.39" cy="-1433" rx="128.08" ry="18"/>
<text text-anchor="middle" x="1293.39" y="-1429.3" font-family="Times,serif" font-size="14.00">Language.Drasil.Printers</text>
</g>
<!-- u27 -->
<g id="node4" class="node">
<title>u27</title>
<ellipse fill="#ffffbb" stroke="black" cx="929.39" cy="-1306" rx="135.68" ry="18"/>
<text text-anchor="middle" x="929.39" y="-1302.3" font-family="Times,serif" font-size="14.00">Language.Drasil.DOT.Print</text>
</g>
<!-- u32&#45;&gt;u27 -->
<g id="edge45" class="edge">
<title>u32&#45;&gt;u27</title>
<path fill="none" stroke="black" d="M1247.29,-1416.17C1180.69,-1393.3 1057.69,-1351.06 985.77,-1326.36"/>
<polygon fill="black" stroke="black" points="986.57,-1322.94 975.97,-1323 984.3,-1329.56 986.57,-1322.94"/>
</g>
<!-- u22 -->
<g id="node5" class="node">
<title>u22</title>
<ellipse fill="#bbbbff" stroke="black" cx="1925.39" cy="-1306" rx="146.47" ry="18"/>
<text text-anchor="middle" x="1925.39" y="-1302.3" font-family="Times,serif" font-size="14.00">Language.Drasil.Debug.Print</text>
</g>
<!-- u32&#45;&gt;u22 -->
<g id="edge44" class="edge">
<title>u32&#45;&gt;u22</title>
<path fill="none" stroke="black" d="M1364.35,-1417.96C1481.77,-1394.74 1715.95,-1348.42 1841.42,-1323.61"/>
<polygon fill="black" stroke="black" points="1842.24,-1327.01 1851.37,-1321.64 1840.88,-1320.15 1842.24,-1327.01"/>
</g>
<!-- u33 -->
<g id="node11" class="node">
<title>u33</title>
<ellipse fill="#bbffff" stroke="black" cx="643.39" cy="-1179" rx="140.28" ry="18"/>
<text text-anchor="middle" x="643.39" y="-1175.3" font-family="Times,serif" font-size="14.00">Language.Drasil.JSON.Print</text>
</g>
<!-- u32&#45;&gt;u33 -->
<g id="edge48" class="edge">
<title>u32&#45;&gt;u33</title>
<path fill="none" stroke="black" d="M1260.97,-1415.47C1223.66,-1395.82 1161.25,-1361 1112.39,-1324 1093.84,-1309.95 1094.78,-1299.19 1074.39,-1288 975.31,-1233.62 848.47,-1206.11 758.1,-1192.53"/>
<polygon fill="black" stroke="black" points="758.5,-1189.05 748.09,-1191.06 757.48,-1195.97 758.5,-1189.05"/>
</g>
<!-- u30 -->
<g id="node13" class="node">
<title>u30</title>
<ellipse fill="#ffbbff" stroke="black" cx="1650.39" cy="-1051" rx="188.47" ry="18"/>
<text text-anchor="middle" x="1650.39" y="-1047.3" font-family="Times,serif" font-size="14.00">Language.Drasil.Markdown.CreateMd</text>
</g>
<!-- u32&#45;&gt;u30 -->
<g id="edge47" class="edge">
<title>u32&#45;&gt;u30</title>
<path fill="none" stroke="black" d="M1331.42,-1415.65C1370.57,-1397.47 1431.71,-1365.15 1474.39,-1324 1553.12,-1248.07 1613.8,-1130.54 1638.42,-1078.43"/>
<polygon fill="black" stroke="black" points="1641.67,-1079.74 1642.72,-1069.2 1635.32,-1076.78 1641.67,-1079.74"/>
</g>
<!-- u29 -->
<g id="node14" class="node">
<title>u29</title>
<ellipse fill="#ffbbff" stroke="black" cx="1293.39" cy="-1306" rx="171.67" ry="18"/>
<text text-anchor="middle" x="1293.39" y="-1302.3" font-family="Times,serif" font-size="14.00">Language.Drasil.Markdown.Config</text>
</g>
<!-- u32&#45;&gt;u29 -->
<g id="edge46" class="edge">
<title>u32&#45;&gt;u29</title>
<path fill="none" stroke="black" d="M1293.39,-1414.88C1293.39,-1394.15 1293.39,-1358.95 1293.39,-1334.42"/>
<polygon fill="black" stroke="black" points="1296.89,-1334.31 1293.39,-1324.31 1289.89,-1334.31 1296.89,-1334.31"/>
</g>
<!-- u16 -->
<g id="node2" class="node">
<title>u16</title>
<ellipse fill="#bbffbb" stroke="black" cx="936.39" cy="-542" rx="119.68" ry="18"/>
<text text-anchor="middle" x="936.39" y="-538.3" font-family="Times,serif" font-size="14.00">Language.Drasil.Config</text>
</g>
<!-- u0 -->
<g id="node3" class="node">
<title>u0</title>
<ellipse fill="#bbffbb" stroke="black" cx="500.39" cy="-1051" rx="123.48" ry="18"/>
<text text-anchor="middle" x="500.39" y="-1047.3" font-family="Times,serif" font-size="14.00">Language.Drasil.Format</text>
</g>
<!-- u17 -->
<g id="node16" class="node">
<title>u17</title>
<ellipse fill="#77ff77" stroke="black" cx="2005.39" cy="-1179" rx="139.98" ry="18"/>
<text text-anchor="middle" x="2005.39" y="-1175.3" font-family="Times,serif" font-size="14.00">Language.Drasil.Plain.Print</text>
</g>
<!-- u22&#45;&gt;u17 -->
<g id="edge31" class="edge">
<title>u22&#45;&gt;u17</title>
<path fill="none" stroke="black" d="M1936.34,-1287.88C1949.91,-1266.68 1973.15,-1230.37 1988.88,-1205.79"/>
<polygon fill="black" stroke="black" points="1991.86,-1207.62 1994.31,-1197.31 1985.97,-1203.85 1991.86,-1207.62"/>
</g>
<!-- u26 -->
<g id="node6" class="node">
<title>u26</title>
<ellipse fill="#ffbbbb" stroke="black" cx="339.39" cy="-542" rx="157.87" ry="18"/>
<text text-anchor="middle" x="339.39" y="-538.3" font-family="Times,serif" font-size="14.00">Language.Drasil.HTML.Helpers</text>
</g>
<!-- u13 -->
<g id="node19" class="node">
<title>u13</title>
<ellipse fill="#ffff77" stroke="black" cx="1046.39" cy="-32" rx="149.47" ry="18"/>
<text text-anchor="middle" x="1046.39" y="-28.3" font-family="Times,serif" font-size="14.00">Language.Drasil.Printing.AST</text>
</g>
<!-- u26&#45;&gt;u13 -->
<g id="edge36" class="edge">
<title>u26&#45;&gt;u13</title>
<path fill="none" stroke="black" d="M350.14,-523.93C379.99,-477.67 468.34,-348.1 569.39,-269 704.65,-163.12 895.03,-86.55 989.13,-52.57"/>
<polygon fill="black" stroke="black" points="990.52,-55.79 998.75,-49.12 988.16,-49.2 990.52,-55.79"/>
</g>
<!-- u25 -->
<g id="node7" class="node">
<title>u25</title>
<ellipse fill="#ffbbbb" stroke="black" cx="786.39" cy="-1051" rx="144.87" ry="18"/>
<text text-anchor="middle" x="786.39" y="-1047.3" font-family="Times,serif" font-size="14.00">Language.Drasil.HTML.Print</text>
</g>
<!-- u25&#45;&gt;u26 -->
<g id="edge35" class="edge">
<title>u25&#45;&gt;u26</title>
<path fill="none" stroke="black" d="M787.94,-1032.82C789.7,-1004.54 789.84,-947.18 767.39,-906 675.13,-736.85 470.02,-612.42 381.45,-564.56"/>
<polygon fill="black" stroke="black" points="382.96,-561.4 372.49,-559.76 379.66,-567.57 382.96,-561.4"/>
</g>
<!-- u24 -->
<g id="node8" class="node">
<title>u24</title>
<ellipse fill="#ffbbbb" stroke="black" cx="306.39" cy="-924" rx="153.27" ry="18"/>
<text text-anchor="middle" x="306.39" y="-920.3" font-family="Times,serif" font-size="14.00">Language.Drasil.HTML.Monad</text>
</g>
<!-- u25&#45;&gt;u24 -->
<g id="edge34" class="edge">
<title>u25&#45;&gt;u24</title>
<path fill="none" stroke="black" d="M727.05,-1034.55C638.14,-1011.39 470.72,-967.8 376.11,-943.16"/>
<polygon fill="black" stroke="black" points="376.9,-939.75 366.34,-940.61 375.14,-946.52 376.9,-939.75"/>
</g>
<!-- u23 -->
<g id="node9" class="node">
<title>u23</title>
<ellipse fill="#ffbbbb" stroke="black" cx="618.39" cy="-924" rx="140.28" ry="18"/>
<text text-anchor="middle" x="618.39" y="-920.3" font-family="Times,serif" font-size="14.00">Language.Drasil.HTML.CSS</text>
</g>
<!-- u25&#45;&gt;u23 -->
<g id="edge33" class="edge">
<title>u25&#45;&gt;u23</title>
<path fill="none" stroke="black" d="M763.73,-1033.14C734.21,-1011.18 682.48,-972.69 649.36,-948.04"/>
<polygon fill="black" stroke="black" points="651.06,-944.95 640.95,-941.79 646.89,-950.57 651.06,-944.95"/>
</g>
<!-- u20 -->
<g id="node33" class="node">
<title>u20</title>
<ellipse fill="#ff7777" stroke="black" cx="1009.39" cy="-924" rx="133.48" ry="18"/>
<text text-anchor="middle" x="1009.39" y="-920.3" font-family="Times,serif" font-size="14.00">Language.Drasil.TeX.Print</text>
</g>
<!-- u25&#45;&gt;u20 -->
<g id="edge32" class="edge">
<title>u25&#45;&gt;u20</title>
<path fill="none" stroke="black" d="M816.46,-1033.14C856.42,-1010.74 927.05,-971.15 970.87,-946.59"/>
<polygon fill="black" stroke="black" points="972.78,-949.53 979.79,-941.59 969.35,-943.43 972.78,-949.53"/>
</g>
<!-- u34 -->
<g id="node10" class="node">
<title>u34</title>
<ellipse fill="#bbffff" stroke="black" cx="153.39" cy="-669" rx="153.27" ry="18"/>
<text text-anchor="middle" x="153.39" y="-665.3" font-family="Times,serif" font-size="14.00">Language.Drasil.JSON.Helpers</text>
</g>
<!-- u34&#45;&gt;u26 -->
<g id="edge53" class="edge">
<title>u34&#45;&gt;u26</title>
<path fill="none" stroke="black" d="M178.47,-651.14C211.43,-628.99 269.4,-590.03 306.03,-565.42"/>
<polygon fill="black" stroke="black" points="308.06,-568.27 314.4,-559.79 304.15,-562.46 308.06,-568.27"/>
</g>
<!-- u12 -->
<g id="node20" class="node">
<title>u12</title>
<ellipse fill="#ffff77" stroke="black" cx="708.39" cy="-414" rx="167.07" ry="18"/>
<text text-anchor="middle" x="708.39" y="-410.3" font-family="Times,serif" font-size="14.00">Language.Drasil.Printing.Helpers</text>
</g>
<!-- u34&#45;&gt;u12 -->
<g id="edge52" class="edge">
<title>u34&#45;&gt;u12</title>
<path fill="none" stroke="black" d="M149.93,-650.73C145.01,-620.73 139.88,-558.85 172.39,-524 224.65,-467.97 424.02,-439.27 564.26,-425.7"/>
<polygon fill="black" stroke="black" points="564.63,-429.18 574.25,-424.75 563.96,-422.21 564.63,-429.18"/>
</g>
<!-- u33&#45;&gt;u0 -->
<g id="edge49" class="edge">
<title>u33&#45;&gt;u0</title>
<path fill="none" stroke="black" d="M624.1,-1161.01C599.15,-1139.03 555.56,-1100.61 527.35,-1075.75"/>
<polygon fill="black" stroke="black" points="529.64,-1073.11 519.82,-1069.13 525.01,-1078.36 529.64,-1073.11"/>
</g>
<!-- u33&#45;&gt;u25 -->
<g id="edge50" class="edge">
<title>u33&#45;&gt;u25</title>
<path fill="none" stroke="black" d="M662.67,-1161.01C687.62,-1139.03 731.21,-1100.61 759.43,-1075.75"/>
<polygon fill="black" stroke="black" points="761.76,-1078.36 766.95,-1069.13 757.13,-1073.11 761.76,-1078.36"/>
</g>
<!-- u33&#45;&gt;u34 -->
<g id="edge51" class="edge">
<title>u33&#45;&gt;u34</title>
<path fill="none" stroke="black" d="M549.97,-1165.5C430.41,-1143.82 228.69,-1086.7 144.39,-942 98.44,-863.13 126.97,-748.4 143.73,-696.84"/>
<polygon fill="black" stroke="black" points="147.13,-697.71 147,-687.12 140.49,-695.48 147.13,-697.71"/>
</g>
<!-- u31 -->
<g id="node12" class="node">
<title>u31</title>
<ellipse fill="#ffbbff" stroke="black" cx="1253.39" cy="-669" rx="178.97" ry="18"/>
<text text-anchor="middle" x="1253.39" y="-665.3" font-family="Times,serif" font-size="14.00">Language.Drasil.Markdown.Helpers</text>
</g>
<!-- u31&#45;&gt;u26 -->
<g id="edge43" class="edge">
<title>u31&#45;&gt;u26</title>
<path fill="none" stroke="black" d="M1152.08,-654.15C978.14,-630.36 624.29,-581.96 446.46,-557.64"/>
<polygon fill="black" stroke="black" points="446.69,-554.14 436.3,-556.25 445.74,-561.08 446.69,-554.14"/>
</g>
<!-- u31&#45;&gt;u12 -->
<g id="edge42" class="edge">
<title>u31&#45;&gt;u12</title>
<path fill="none" stroke="black" d="M1227.67,-651.04C1197.16,-630.56 1145.17,-594.57 1103.39,-560 1085.46,-545.17 1085.49,-535.71 1065.39,-524 983.39,-476.25 878.4,-447.46 803.54,-431.57"/>
<polygon fill="black" stroke="black" points="804.15,-428.12 793.65,-429.5 802.72,-434.97 804.15,-428.12"/>
</g>
<!-- u2 -->
<g id="node21" class="node">
<title>u2</title>
<ellipse fill="#ffff77" stroke="black" cx="1291.39" cy="-542" rx="178.97" ry="18"/>
<text text-anchor="middle" x="1291.39" y="-538.3" font-family="Times,serif" font-size="14.00">Language.Drasil.Printing.LayoutObj</text>
</g>
<!-- u31&#45;&gt;u2 -->
<g id="edge41" class="edge">
<title>u31&#45;&gt;u2</title>
<path fill="none" stroke="black" d="M1258.59,-650.88C1264.92,-630.05 1275.69,-594.64 1283.15,-570.09"/>
<polygon fill="black" stroke="black" points="1286.56,-570.9 1286.12,-560.31 1279.87,-568.86 1286.56,-570.9"/>
</g>
<!-- u30&#45;&gt;u12 -->
<g id="edge40" class="edge">
<title>u30&#45;&gt;u12</title>
<path fill="none" stroke="black" d="M1720.26,-1034.22C1824.45,-1006.09 2008.39,-936.66 2008.39,-797 2008.39,-797 2008.39,-797 2008.39,-668 2008.39,-603.45 2036.08,-568.58 1989.39,-524 1984.25,-519.1 1178.18,-453.14 847.49,-426.27"/>
<polygon fill="black" stroke="black" points="847.61,-422.77 837.36,-425.45 847.05,-429.75 847.61,-422.77"/>
</g>
<!-- u28 -->
<g id="node15" class="node">
<title>u28</title>
<ellipse fill="#ffbbff" stroke="black" cx="1253.39" cy="-1179" rx="165.17" ry="18"/>
<text text-anchor="middle" x="1253.39" y="-1175.3" font-family="Times,serif" font-size="14.00">Language.Drasil.Markdown.Print</text>
</g>
<!-- u29&#45;&gt;u28 -->
<g id="edge39" class="edge">
<title>u29&#45;&gt;u28</title>
<path fill="none" stroke="black" d="M1287.91,-1287.88C1281.24,-1267.05 1269.91,-1231.64 1262.06,-1207.09"/>
<polygon fill="black" stroke="black" points="1265.31,-1205.77 1258.93,-1197.31 1258.64,-1207.9 1265.31,-1205.77"/>
</g>
<!-- u28&#45;&gt;u25 -->
<g id="edge37" class="edge">
<title>u28&#45;&gt;u25</title>
<path fill="none" stroke="black" d="M1194.71,-1162.17C1107.85,-1138.73 945.46,-1094.92 853.82,-1070.19"/>
<polygon fill="black" stroke="black" points="854.65,-1066.79 844.09,-1067.57 852.83,-1073.55 854.65,-1066.79"/>
</g>
<!-- u28&#45;&gt;u31 -->
<g id="edge38" class="edge">
<title>u28&#45;&gt;u31</title>
<path fill="none" stroke="black" d="M1253.39,-1160.81C1253.39,-1086.11 1253.39,-789.4 1253.39,-697.37"/>
<polygon fill="black" stroke="black" points="1256.89,-697.19 1253.39,-687.19 1249.89,-697.19 1256.89,-697.19"/>
</g>
<!-- u14 -->
<g id="node18" class="node">
<title>u14</title>
<ellipse fill="#ffff77" stroke="black" cx="1619.39" cy="-796" rx="162.47" ry="18"/>
<text text-anchor="middle" x="1619.39" y="-792.3" font-family="Times,serif" font-size="14.00">Language.Drasil.Printing.Import</text>
</g>
<!-- u17&#45;&gt;u14 -->
<g id="edge23" class="edge">
<title>u17&#45;&gt;u14</title>
<path fill="none" stroke="black" d="M1988.05,-1160.89C1926.2,-1099.84 1716.2,-892.56 1644,-821.3"/>
<polygon fill="black" stroke="black" points="1646.25,-818.6 1636.67,-814.06 1641.33,-823.58 1646.25,-818.6"/>
</g>
<!-- u15 -->
<g id="node17" class="node">
<title>u15</title>
<ellipse fill="#ffff77" stroke="black" cx="746.39" cy="-287" rx="167.87" ry="18"/>
<text text-anchor="middle" x="746.39" y="-283.3" font-family="Times,serif" font-size="14.00">Language.Drasil.Printing.Citation</text>
</g>
<!-- u15&#45;&gt;u13 -->
<g id="edge22" class="edge">
<title>u15&#45;&gt;u13</title>
<path fill="none" stroke="black" d="M766.54,-269.01C818.73,-224.99 958.44,-107.17 1018.41,-56.59"/>
<polygon fill="black" stroke="black" points="1020.94,-59.04 1026.32,-49.92 1016.42,-53.69 1020.94,-59.04"/>
</g>
<!-- u7 -->
<g id="node27" class="node">
<title>u7</title>
<ellipse fill="#7777ff" stroke="black" cx="1119.39" cy="-414" rx="187.67" ry="18"/>
<text text-anchor="middle" x="1119.39" y="-410.3" font-family="Times,serif" font-size="14.00">Language.Drasil.Printing.Import.Expr</text>
</g>
<!-- u14&#45;&gt;u7 -->
<g id="edge21" class="edge">
<title>u14&#45;&gt;u7</title>
<path fill="none" stroke="black" d="M1597.52,-777.97C1574.08,-758.52 1537.52,-724.49 1517.39,-687 1482.19,-621.47 1530.25,-578.28 1479.39,-524 1427.04,-468.14 1347.14,-440.58 1275.9,-427.12"/>
<polygon fill="black" stroke="black" points="1276.37,-423.65 1265.91,-425.31 1275.12,-430.53 1276.37,-423.65"/>
</g>
<!-- u3 -->
<g id="node31" class="node">
<title>u3</title>
<ellipse fill="#7777ff" stroke="black" cx="1739.39" cy="-669" rx="212.56" ry="18"/>
<text text-anchor="middle" x="1739.39" y="-665.3" font-family="Times,serif" font-size="14.00">Language.Drasil.Printing.Import.Document</text>
</g>
<!-- u14&#45;&gt;u3 -->
<g id="edge20" class="edge">
<title>u14&#45;&gt;u3</title>
<path fill="none" stroke="black" d="M1635.82,-777.88C1656.44,-756.4 1691.95,-719.41 1715.56,-694.82"/>
<polygon fill="black" stroke="black" points="1718.37,-696.95 1722.77,-687.31 1713.32,-692.1 1718.37,-696.95"/>
</g>
<!-- u12&#45;&gt;u15 -->
<g id="edge19" class="edge">
<title>u12&#45;&gt;u15</title>
<path fill="none" stroke="black" d="M713.59,-395.88C719.92,-375.05 730.69,-339.64 738.15,-315.09"/>
<polygon fill="black" stroke="black" points="741.56,-315.9 741.12,-305.31 734.87,-313.86 741.56,-315.9"/>
</g>
<!-- u2&#45;&gt;u15 -->
<g id="edge1" class="edge">
<title>u2&#45;&gt;u15</title>
<path fill="none" stroke="black" d="M1200.19,-526.45C1122.46,-511.24 1009.78,-482.36 922.39,-432 902.23,-420.38 902.01,-411.19 884.39,-396 848.88,-365.41 806.13,-332.52 777.71,-311.18"/>
<polygon fill="black" stroke="black" points="779.48,-308.13 769.38,-304.95 775.29,-313.74 779.48,-308.13"/>
</g>
<!-- u1 -->
<g id="node22" class="node">
<title>u1</title>
<ellipse fill="#ffff77" stroke="black" cx="1720.39" cy="-159" rx="223.66" ry="18"/>
<text text-anchor="middle" x="1720.39" y="-155.3" font-family="Times,serif" font-size="14.00">Language.Drasil.Printing.PrintingInformation</text>
</g>
<!-- u11 -->
<g id="node23" class="node">
<title>u11</title>
<ellipse fill="#7777ff" stroke="black" cx="1772.39" cy="-542" rx="207.96" ry="18"/>
<text text-anchor="middle" x="1772.39" y="-538.3" font-family="Times,serif" font-size="14.00">Language.Drasil.Printing.Import.Sentence</text>
</g>
<!-- u10 -->
<g id="node24" class="node">
<title>u10</title>
<ellipse fill="#7777ff" stroke="black" cx="1982.39" cy="-414" rx="216.36" ry="18"/>
<text text-anchor="middle" x="1982.39" y="-410.3" font-family="Times,serif" font-size="14.00">Language.Drasil.Printing.Import.ModelExpr</text>
</g>
<!-- u11&#45;&gt;u10 -->
<g id="edge18" class="edge">
<title>u11&#45;&gt;u10</title>
<path fill="none" stroke="black" d="M1800.71,-524.01C1838.15,-501.54 1904.2,-461.91 1945.51,-437.13"/>
<polygon fill="black" stroke="black" points="1947.4,-440.07 1954.18,-431.92 1943.8,-434.07 1947.4,-440.07"/>
</g>
<!-- u8 -->
<g id="node26" class="node">
<title>u8</title>
<ellipse fill="#7777ff" stroke="black" cx="1132.39" cy="-287" rx="200.36" ry="18"/>
<text text-anchor="middle" x="1132.39" y="-283.3" font-family="Times,serif" font-size="14.00">Language.Drasil.Printing.Import.Symbol</text>
</g>
<!-- u10&#45;&gt;u8 -->
<g id="edge17" class="edge">
<title>u10&#45;&gt;u8</title>
<path fill="none" stroke="black" d="M1880.7,-398.05C1719.81,-374.39 1407.86,-328.51 1242.1,-304.13"/>
<polygon fill="black" stroke="black" points="1242.29,-300.62 1231.88,-302.63 1241.27,-307.55 1242.29,-300.62"/>
</g>
<!-- u5 -->
<g id="node29" class="node">
<title>u5</title>
<ellipse fill="#7777ff" stroke="black" cx="1546.39" cy="-287" rx="196.07" ry="18"/>
<text text-anchor="middle" x="1546.39" y="-283.3" font-family="Times,serif" font-size="14.00">Language.Drasil.Printing.Import.Literal</text>
</g>
<!-- u10&#45;&gt;u5 -->
<g id="edge16" class="edge">
<title>u10&#45;&gt;u5</title>
<path fill="none" stroke="black" d="M1924.94,-396.53C1844.42,-373.45 1698.33,-331.56 1613.1,-307.13"/>
<polygon fill="black" stroke="black" points="1613.85,-303.7 1603.27,-304.31 1611.92,-310.43 1613.85,-303.7"/>
</g>
<!-- u4 -->
<g id="node30" class="node">
<title>u4</title>
<ellipse fill="#7777ff" stroke="black" cx="1972.39" cy="-287" rx="193.07" ry="18"/>
<text text-anchor="middle" x="1972.39" y="-283.3" font-family="Times,serif" font-size="14.00">Language.Drasil.Printing.Import.Space</text>
</g>
<!-- u10&#45;&gt;u4 -->
<g id="edge15" class="edge">
<title>u10&#45;&gt;u4</title>
<path fill="none" stroke="black" d="M1981.02,-395.88C1979.36,-375.15 1976.54,-339.95 1974.58,-315.42"/>
<polygon fill="black" stroke="black" points="1978.06,-315 1973.77,-305.31 1971.08,-315.56 1978.06,-315"/>
</g>
<!-- u9 -->
<g id="node25" class="node">
<title>u9</title>
<ellipse fill="#7777ff" stroke="black" cx="1276.39" cy="-159" rx="202.26" ry="18"/>
<text text-anchor="middle" x="1276.39" y="-155.3" font-family="Times,serif" font-size="14.00">Language.Drasil.Printing.Import.Helpers</text>
</g>
<!-- u9&#45;&gt;u13 -->
<g id="edge14" class="edge">
<title>u9&#45;&gt;u13</title>
<path fill="none" stroke="black" d="M1245.37,-141.14C1204.19,-118.76 1131.41,-79.21 1086.21,-54.64"/>
<polygon fill="black" stroke="black" points="1087.74,-51.49 1077.28,-49.79 1084.4,-57.64 1087.74,-51.49"/>
</g>
<!-- u8&#45;&gt;u13 -->
<g id="edge13" class="edge">
<title>u8&#45;&gt;u13</title>
<path fill="none" stroke="black" d="M1118.5,-268.68C1102.82,-248.12 1077.87,-212.17 1065.39,-177 1051.56,-138.06 1047.65,-89.96 1046.63,-60.39"/>
<polygon fill="black" stroke="black" points="1050.12,-60.29 1046.37,-50.39 1043.13,-60.48 1050.12,-60.29"/>
</g>
<!-- u7&#45;&gt;u8 -->
<g id="edge12" class="edge">
<title>u7&#45;&gt;u8</title>
<path fill="none" stroke="black" d="M1121.17,-395.88C1123.32,-375.15 1126.98,-339.95 1129.53,-315.42"/>
<polygon fill="black" stroke="black" points="1133.03,-315.62 1130.59,-305.31 1126.07,-314.9 1133.03,-315.62"/>
</g>
<!-- u7&#45;&gt;u5 -->
<g id="edge11" class="edge">
<title>u7&#45;&gt;u5</title>
<path fill="none" stroke="black" d="M1174.77,-396.79C1253.46,-373.75 1397.33,-331.64 1481.1,-307.11"/>
<polygon fill="black" stroke="black" points="1482.15,-310.45 1490.76,-304.28 1480.18,-303.73 1482.15,-310.45"/>
</g>
<!-- u6 -->
<g id="node28" class="node">
<title>u6</title>
<ellipse fill="#7777ff" stroke="black" cx="1536.39" cy="-414" rx="211.46" ry="18"/>
<text text-anchor="middle" x="1536.39" y="-410.3" font-family="Times,serif" font-size="14.00">Language.Drasil.Printing.Import.CodeExpr</text>
</g>
<!-- u6&#45;&gt;u8 -->
<g id="edge10" class="edge">
<title>u6&#45;&gt;u8</title>
<path fill="none" stroke="black" d="M1483.16,-396.53C1408.88,-373.55 1274.37,-331.93 1195.25,-307.45"/>
<polygon fill="black" stroke="black" points="1196,-304.02 1185.41,-304.41 1193.93,-310.71 1196,-304.02"/>
</g>
<!-- u6&#45;&gt;u5 -->
<g id="edge9" class="edge">
<title>u6&#45;&gt;u5</title>
<path fill="none" stroke="black" d="M1537.76,-395.88C1539.41,-375.15 1542.23,-339.95 1544.19,-315.42"/>
<polygon fill="black" stroke="black" points="1547.69,-315.56 1545,-305.31 1540.71,-315 1547.69,-315.56"/>
</g>
<!-- u5&#45;&gt;u1 -->
<g id="edge7" class="edge">
<title>u5&#45;&gt;u1</title>
<path fill="none" stroke="black" d="M1569.85,-269.01C1600.55,-246.78 1654.46,-207.74 1688.75,-182.91"/>
<polygon fill="black" stroke="black" points="1690.97,-185.62 1697.01,-176.92 1686.86,-179.95 1690.97,-185.62"/>
</g>
<!-- u5&#45;&gt;u9 -->
<g id="edge8" class="edge">
<title>u5&#45;&gt;u9</title>
<path fill="none" stroke="black" d="M1510.53,-269.27C1461.82,-246.53 1374.71,-205.88 1321.58,-181.09"/>
<polygon fill="black" stroke="black" points="1322.93,-177.86 1312.39,-176.8 1319.97,-184.2 1322.93,-177.86"/>
</g>
<!-- u4&#45;&gt;u13 -->
<g id="edge6" class="edge">
<title>u4&#45;&gt;u13</title>
<path fill="none" stroke="black" d="M1976.09,-268.82C1981.54,-238.36 1987.7,-174.91 1953.39,-141 1900.22,-88.46 1433.39,-54.73 1191.06,-40.6"/>
<polygon fill="black" stroke="black" points="1190.94,-37.09 1180.76,-40 1190.54,-44.08 1190.94,-37.09"/>
</g>
<!-- u4&#45;&gt;u1 -->
<g id="edge5" class="edge">
<title>u4&#45;&gt;u1</title>
<path fill="none" stroke="black" d="M1938.92,-269.27C1893.64,-246.63 1812.83,-206.22 1763.18,-181.4"/>
<polygon fill="black" stroke="black" points="1764.5,-178.14 1753.99,-176.8 1761.37,-184.4 1764.5,-178.14"/>
</g>
<!-- u3&#45;&gt;u2 -->
<g id="edge2" class="edge">
<title>u3&#45;&gt;u2</title>
<path fill="none" stroke="black" d="M1680.82,-651.66C1597.8,-628.5 1446.3,-586.22 1358.74,-561.79"/>
<polygon fill="black" stroke="black" points="1359.48,-558.37 1348.91,-559.05 1357.6,-565.11 1359.48,-558.37"/>
</g>
<!-- u3&#45;&gt;u11 -->
<g id="edge4" class="edge">
<title>u3&#45;&gt;u11</title>
<path fill="none" stroke="black" d="M1743.91,-650.88C1749.4,-630.05 1758.75,-594.64 1765.23,-570.09"/>
<polygon fill="black" stroke="black" points="1768.65,-570.88 1767.82,-560.31 1761.88,-569.09 1768.65,-570.88"/>
</g>
<!-- u3&#45;&gt;u6 -->
<g id="edge3" class="edge">
<title>u3&#45;&gt;u6</title>
<path fill="none" stroke="black" d="M1686.23,-651.45C1643.59,-635.24 1585.97,-606.16 1555.39,-560 1531.93,-524.6 1531.01,-473.55 1533.2,-442.42"/>
<polygon fill="black" stroke="black" points="1536.7,-442.56 1534.07,-432.3 1529.72,-441.96 1536.7,-442.56"/>
</g>
<!-- u21 -->
<g id="node32" class="node">
<title>u21</title>
<ellipse fill="#ff7777" stroke="black" cx="910.39" cy="-669" rx="146.47" ry="18"/>
<text text-anchor="middle" x="910.39" y="-665.3" font-family="Times,serif" font-size="14.00">Language.Drasil.TeX.Helpers</text>
</g>
<!-- u21&#45;&gt;u16 -->
<g id="edge29" class="edge">
<title>u21&#45;&gt;u16</title>
<path fill="none" stroke="black" d="M913.95,-650.88C918.26,-630.15 925.58,-594.95 930.68,-570.42"/>
<polygon fill="black" stroke="black" points="934.18,-570.82 932.79,-560.31 927.32,-569.39 934.18,-570.82"/>
</g>
<!-- u18 -->
<g id="node35" class="node">
<title>u18</title>
<ellipse fill="#ff7777" stroke="black" cx="657.39" cy="-542" rx="141.88" ry="18"/>
<text text-anchor="middle" x="657.39" y="-538.3" font-family="Times,serif" font-size="14.00">Language.Drasil.TeX.Monad</text>
</g>
<!-- u21&#45;&gt;u18 -->
<g id="edge30" class="edge">
<title>u21&#45;&gt;u18</title>
<path fill="none" stroke="black" d="M876.79,-651.4C831.33,-628.94 750.2,-588.85 700.35,-564.23"/>
<polygon fill="black" stroke="black" points="701.64,-560.96 691.12,-559.67 698.54,-567.24 701.64,-560.96"/>
</g>
<!-- u20&#45;&gt;u14 -->
<g id="edge27" class="edge">
<title>u20&#45;&gt;u14</title>
<path fill="none" stroke="black" d="M1079.06,-908.61C1192.17,-885.24 1415.26,-839.16 1536.4,-814.14"/>
<polygon fill="black" stroke="black" points="1537.28,-817.53 1546.37,-812.08 1535.87,-810.68 1537.28,-817.53"/>
</g>
<!-- u19 -->
<g id="node34" class="node">
<title>u19</title>
<ellipse fill="#ff7777" stroke="black" cx="1009.39" cy="-796" rx="154.07" ry="18"/>
<text text-anchor="middle" x="1009.39" y="-792.3" font-family="Times,serif" font-size="14.00">Language.Drasil.TeX.Preamble</text>
</g>
<!-- u20&#45;&gt;u19 -->
<g id="edge28" class="edge">
<title>u20&#45;&gt;u19</title>
<path fill="none" stroke="black" d="M1009.39,-905.74C1009.39,-884.73 1009.39,-848.97 1009.39,-824.23"/>
<polygon fill="black" stroke="black" points="1012.89,-824.05 1009.39,-814.05 1005.89,-824.05 1012.89,-824.05"/>
</g>
<!-- u19&#45;&gt;u2 -->
<g id="edge25" class="edge">
<title>u19&#45;&gt;u2</title>
<path fill="none" stroke="black" d="M1117.12,-783.13C1231.72,-768.02 1401.87,-737.61 1441.39,-687 1479.48,-638.21 1399.26,-590.18 1342.12,-563.78"/>
<polygon fill="black" stroke="black" points="1343.37,-560.51 1332.82,-559.58 1340.49,-566.88 1343.37,-560.51"/>
</g>
<!-- u19&#45;&gt;u21 -->
<g id="edge26" class="edge">
<title>u19&#45;&gt;u21</title>
<path fill="none" stroke="black" d="M995.83,-777.88C978.96,-756.59 950.02,-720.05 930.55,-695.47"/>
<polygon fill="black" stroke="black" points="933.05,-692.98 924.1,-687.31 927.56,-697.33 933.05,-692.98"/>
</g>
<!-- u18&#45;&gt;u12 -->
<g id="edge24" class="edge">
<title>u18&#45;&gt;u12</title>
<path fill="none" stroke="black" d="M664.26,-524.01C672.82,-502.87 687.52,-466.54 697.59,-441.68"/>
<polygon fill="black" stroke="black" points="700.95,-442.71 701.45,-432.13 694.46,-440.08 700.95,-442.71"/>
</g>
</g>
</svg>
