<?xml version="1.0" encoding="UTF-8" standalone="no"?>
<!DOCTYPE svg PUBLIC "-//W3C//DTD SVG 1.1//EN"
 "http://www.w3.org/Graphics/SVG/1.1/DTD/svg11.dtd">
<!-- Generated by graphviz version 2.43.0 (0)
 -->
<!-- Title: G Pages: 1 -->
<svg width="431pt" height="288pt"
 viewBox="0.00 0.00 431.15 288.00" xmlns="http://www.w3.org/2000/svg" xmlns:xlink="http://www.w3.org/1999/xlink">
<g id="graph0" class="graph" transform="scale(0.25 0.25) rotate(0) translate(4 1134)">
<title>G</title>
<polygon fill="white" stroke="transparent" points="-4,4 -4,-1134 1699.63,-1134 1699.63,4 -4,4"/>
<!-- u7 -->
<g id="node1" class="node">
<title>u7</title>
<ellipse fill="#bbffbb" stroke="black" cx="946.54" cy="-81" rx="122.38" ry="18"/>
<text text-anchor="middle" x="946.54" y="-77.3" font-family="Times,serif" font-size="14.00">Drasil.Website.Example</text>
</g>
<!-- u6 -->
<g id="node2" class="node">
<title>u6</title>
<ellipse fill="#bbffbb" stroke="black" cx="108.54" cy="-404" rx="108.58" ry="18"/>
<text text-anchor="middle" x="108.54" y="-400.3" font-family="Times,serif" font-size="14.00">Drasil.Website.About</text>
</g>
<!-- u5 -->
<g id="node3" class="node">
<title>u5</title>
<ellipse fill="#bbffbb" stroke="black" cx="355.54" cy="-404" rx="120.48" ry="18"/>
<text text-anchor="middle" x="355.54" y="-400.3" font-family="Times,serif" font-size="14.00">Drasil.Website.Analysis</text>
</g>
<!-- u4 -->
<g id="node4" class="node">
<title>u4</title>
<ellipse fill="#bbffbb" stroke="black" cx="795.54" cy="-726" rx="104.78" ry="18"/>
<text text-anchor="middle" x="795.54" y="-722.3" font-family="Times,serif" font-size="14.00">Drasil.Website.Body</text>
</g>
<!-- u4&#45;&gt;u6 -->
<g id="edge7" class="edge">
<title>u4&#45;&gt;u6</title>
<path fill="none" stroke="black" d="M761,-708.91C646.46,-655.56 279.2,-484.49 152.22,-425.35"/>
<polygon fill="black" stroke="black" points="153.69,-422.17 143.15,-421.12 150.74,-428.52 153.69,-422.17"/>
</g>
<!-- u4&#45;&gt;u5 -->
<g id="edge6" class="edge">
<title>u4&#45;&gt;u5</title>
<path fill="none" stroke="black" d="M772.5,-708.25C699.08,-654.85 470.5,-488.6 386.72,-427.68"/>
<polygon fill="black" stroke="black" points="388.76,-424.83 378.61,-421.78 384.64,-430.49 388.76,-424.83"/>
</g>
<!-- u3 -->
<g id="node5" class="node">
<title>u3</title>
<ellipse fill="#bbffbb" stroke="black" cx="645.54" cy="-404" rx="151.37" ry="18"/>
<text text-anchor="middle" x="645.54" y="-400.3" font-family="Times,serif" font-size="14.00">Drasil.Website.GettingStarted</text>
</g>
<!-- u4&#45;&gt;u3 -->
<g id="edge5" class="edge">
<title>u4&#45;&gt;u3</title>
<path fill="none" stroke="black" d="M787.48,-707.8C762.75,-655.05 687.9,-495.37 658.04,-431.66"/>
<polygon fill="black" stroke="black" points="661.06,-429.86 653.64,-422.29 654.72,-432.83 661.06,-429.86"/>
</g>
<!-- u2 -->
<g id="node6" class="node">
<title>u2</title>
<ellipse fill="#bbffbb" stroke="black" cx="946.54" cy="-404" rx="131.08" ry="18"/>
<text text-anchor="middle" x="946.54" y="-400.3" font-family="Times,serif" font-size="14.00">Drasil.Website.CaseStudy</text>
</g>
<!-- u4&#45;&gt;u2 -->
<g id="edge4" class="edge">
<title>u4&#45;&gt;u2</title>
<path fill="none" stroke="black" d="M803.66,-707.8C828.55,-655.05 903.9,-495.37 933.96,-431.66"/>
<polygon fill="black" stroke="black" points="937.28,-432.83 938.38,-422.29 930.95,-429.84 937.28,-432.83"/>
</g>
<!-- u1 -->
<g id="node7" class="node">
<title>u1</title>
<ellipse fill="#bbffbb" stroke="black" cx="1247.54" cy="-404" rx="152.17" ry="18"/>
<text text-anchor="middle" x="1247.54" y="-400.3" font-family="Times,serif" font-size="14.00">Drasil.Website.Documentation</text>
</g>
<!-- u4&#45;&gt;u1 -->
<g id="edge3" class="edge">
<title>u4&#45;&gt;u1</title>
<path fill="none" stroke="black" d="M819.21,-708.25C894.63,-654.85 1129.45,-488.6 1215.51,-427.68"/>
<polygon fill="black" stroke="black" points="1217.7,-430.42 1223.84,-421.78 1213.65,-424.7 1217.7,-430.42"/>
</g>
<!-- u0 -->
<g id="node8" class="node">
<title>u0</title>
<ellipse fill="#bbffbb" stroke="black" cx="1556.54" cy="-404" rx="139.18" ry="18"/>
<text text-anchor="middle" x="1556.54" y="-400.3" font-family="Times,serif" font-size="14.00">Drasil.Website.Introduction</text>
</g>
<!-- u4&#45;&gt;u0 -->
<g id="edge2" class="edge">
<title>u4&#45;&gt;u0</title>
<path fill="none" stroke="black" d="M833.28,-709.13C959.64,-656 1367.79,-484.37 1508.41,-425.24"/>
<polygon fill="black" stroke="black" points="1509.81,-428.45 1517.67,-421.35 1507.09,-422 1509.81,-428.45"/>
</g>
<!-- u2&#45;&gt;u7 -->
<g id="edge1" class="edge">
<title>u2&#45;&gt;u7</title>
<path fill="none" stroke="black" d="M946.54,-385.74C946.54,-333.05 946.54,-173.96 946.54,-109.54"/>
<polygon fill="black" stroke="black" points="950.04,-109.34 946.54,-99.34 943.04,-109.34 950.04,-109.34"/>
</g>
<!-- u8 -->
<g id="node9" class="node">
<title>u8</title>
<ellipse fill="#ffffbb" stroke="black" cx="795.54" cy="-1049" rx="122.38" ry="18"/>
<text text-anchor="middle" x="795.54" y="-1045.3" font-family="Times,serif" font-size="14.00">drasil&#45;website.app.Main</text>
</g>
<!-- u8&#45;&gt;u4 -->
<g id="edge8" class="edge">
<title>u8&#45;&gt;u4</title>
<path fill="none" stroke="black" d="M795.54,-1030.74C795.54,-978.05 795.54,-818.96 795.54,-754.54"/>
<polygon fill="black" stroke="black" points="799.04,-754.34 795.54,-744.34 792.04,-754.34 799.04,-754.34"/>
</g>
</g>
</svg>
