<?xml version="1.0" encoding="UTF-8" standalone="no"?>
<!DOCTYPE svg PUBLIC "-//W3C//DTD SVG 1.1//EN"
 "http://www.w3.org/Graphics/SVG/1.1/DTD/svg11.dtd">
<!-- Generated by graphviz version 2.43.0 (0)
 -->
<!-- Title: G Pages: 1 -->
<svg width="432pt" height="280pt"
 viewBox="0.00 0.00 432.00 279.98" xmlns="http://www.w3.org/2000/svg" xmlns:xlink="http://www.w3.org/1999/xlink">
<g id="graph0" class="graph" transform="scale(0.14 0.14) rotate(0) translate(4 1934.67)">
<title>G</title>
<polygon fill="white" stroke="transparent" points="-4,4 -4,-1934.67 2987.31,-1934.67 2987.31,4 -4,4"/>
<!-- u28 -->
<g id="node1" class="node">
<title>u28</title>
<ellipse fill="#bbffbb" stroke="black" cx="577" cy="-1892" rx="69.59" ry="18"/>
<text text-anchor="middle" x="577" y="-1888.3" font-family="Times,serif" font-size="14.00">Drasil.GProc</text>
</g>
<!-- u24 -->
<g id="node5" class="node">
<title>u24</title>
<ellipse fill="#ffffbb" stroke="black" cx="294" cy="-811" rx="134.58" ry="18"/>
<text text-anchor="middle" x="294" y="-807.3" font-family="Times,serif" font-size="14.00">Drasil.GOOL.CodeInfoProc</text>
</g>
<!-- u28&#45;&gt;u24 -->
<g id="edge50" class="edge">
<title>u28&#45;&gt;u24</title>
<path fill="none" stroke="black" d="M510.81,-1886.38C359.25,-1871.84 0,-1813.21 0,-1584 0,-1584 0,-1584 0,-1119 0,-976.88 166.37,-874.85 248.81,-833.02"/>
<polygon fill="black" stroke="black" points="250.57,-836.06 257.95,-828.46 247.44,-829.79 250.57,-836.06"/>
</g>
<!-- u8 -->
<g id="node26" class="node">
<title>u8</title>
<ellipse fill="#bbbbff" stroke="black" cx="2192" cy="-1738" rx="226.66" ry="18"/>
<text text-anchor="middle" x="2192" y="-1734.3" font-family="Times,serif" font-size="14.00">Drasil.GOOL.LanguageRenderer.JuliaRenderer</text>
</g>
<!-- u28&#45;&gt;u8 -->
<g id="edge49" class="edge">
<title>u28&#45;&gt;u8</title>
<path fill="none" stroke="black" d="M641.31,-1884.95C877.4,-1862.73 1700.36,-1785.27 2041.78,-1753.14"/>
<polygon fill="black" stroke="black" points="2042.36,-1756.6 2051.99,-1752.18 2041.71,-1749.63 2042.36,-1756.6"/>
</g>
<!-- u27 -->
<g id="node2" class="node">
<title>u27</title>
<ellipse fill="#bbffbb" stroke="black" cx="1086" cy="-1738" rx="69.59" ry="18"/>
<text text-anchor="middle" x="1086" y="-1734.3" font-family="Times,serif" font-size="14.00">Drasil.GOOL</text>
</g>
<!-- u18 -->
<g id="node11" class="node">
<title>u18</title>
<ellipse fill="#ffffbb" stroke="black" cx="261" cy="-1274" rx="128.08" ry="18"/>
<text text-anchor="middle" x="261" y="-1270.3" font-family="Times,serif" font-size="14.00">Drasil.GOOL.CodeInfoOO</text>
</g>
<!-- u27&#45;&gt;u18 -->
<g id="edge48" class="edge">
<title>u27&#45;&gt;u18</title>
<path fill="none" stroke="black" d="M1018.66,-1733.17C800.07,-1720.04 120.7,-1673.67 57,-1601 -32.52,-1498.87 149.02,-1353.22 227.38,-1297.69"/>
<polygon fill="black" stroke="black" points="229.78,-1300.28 235.96,-1291.68 225.76,-1294.55 229.78,-1300.28"/>
</g>
<!-- u16 -->
<g id="node18" class="node">
<title>u16</title>
<ellipse fill="#bbbbff" stroke="black" cx="1805" cy="-1583" rx="225.56" ry="18"/>
<text text-anchor="middle" x="1805" y="-1579.3" font-family="Times,serif" font-size="14.00">Drasil.GOOL.LanguageRenderer.JavaRenderer</text>
</g>
<!-- u27&#45;&gt;u16 -->
<g id="edge47" class="edge">
<title>u27&#45;&gt;u16</title>
<path fill="none" stroke="black" d="M1138,-1725.94C1260.66,-1699.83 1569.04,-1634.21 1719.61,-1602.17"/>
<polygon fill="black" stroke="black" points="1720.69,-1605.52 1729.74,-1600.02 1719.23,-1598.67 1720.69,-1605.52"/>
</g>
<!-- u13 -->
<g id="node21" class="node">
<title>u13</title>
<ellipse fill="#bbbbff" stroke="black" cx="841" cy="-1583" rx="241.26" ry="18"/>
<text text-anchor="middle" x="841" y="-1579.3" font-family="Times,serif" font-size="14.00">Drasil.GOOL.LanguageRenderer.CSharpRenderer</text>
</g>
<!-- u27&#45;&gt;u13 -->
<g id="edge46" class="edge">
<title>u27&#45;&gt;u13</title>
<path fill="none" stroke="black" d="M1060.7,-1721.2C1016.99,-1693.9 927.19,-1637.83 876.99,-1606.48"/>
<polygon fill="black" stroke="black" points="878.73,-1603.44 868.39,-1601.11 875.02,-1609.37 878.73,-1603.44"/>
</g>
<!-- u10 -->
<g id="node24" class="node">
<title>u10</title>
<ellipse fill="#bbbbff" stroke="black" cx="2273" cy="-1583" rx="224.76" ry="18"/>
<text text-anchor="middle" x="2273" y="-1579.3" font-family="Times,serif" font-size="14.00">Drasil.GOOL.LanguageRenderer.CppRenderer</text>
</g>
<!-- u27&#45;&gt;u10 -->
<g id="edge45" class="edge">
<title>u27&#45;&gt;u10</title>
<path fill="none" stroke="black" d="M1146.91,-1729.15C1333.17,-1705.14 1897.75,-1632.37 2149.52,-1599.92"/>
<polygon fill="black" stroke="black" points="2150.34,-1603.34 2159.81,-1598.59 2149.44,-1596.4 2150.34,-1603.34"/>
</g>
<!-- u6 -->
<g id="node28" class="node">
<title>u6</title>
<ellipse fill="#bbbbff" stroke="black" cx="1331" cy="-1583" rx="230.96" ry="18"/>
<text text-anchor="middle" x="1331" y="-1579.3" font-family="Times,serif" font-size="14.00">Drasil.GOOL.LanguageRenderer.SwiftRenderer</text>
</g>
<!-- u27&#45;&gt;u6 -->
<g id="edge44" class="edge">
<title>u27&#45;&gt;u6</title>
<path fill="none" stroke="black" d="M1111.3,-1721.2C1155.01,-1693.9 1244.81,-1637.83 1295.01,-1606.48"/>
<polygon fill="black" stroke="black" points="1296.98,-1609.37 1303.61,-1601.11 1293.27,-1603.44 1296.98,-1609.37"/>
</g>
<!-- u5 -->
<g id="node29" class="node">
<title>u5</title>
<ellipse fill="#bbbbff" stroke="black" cx="305" cy="-1583" rx="239.36" ry="18"/>
<text text-anchor="middle" x="305" y="-1579.3" font-family="Times,serif" font-size="14.00">Drasil.GOOL.LanguageRenderer.PythonRenderer</text>
</g>
<!-- u27&#45;&gt;u5 -->
<g id="edge43" class="edge">
<title>u27&#45;&gt;u5</title>
<path fill="none" stroke="black" d="M1032.32,-1726.48C900.67,-1700.69 560.6,-1634.07 396.39,-1601.9"/>
<polygon fill="black" stroke="black" points="396.8,-1598.42 386.31,-1599.93 395.45,-1605.29 396.8,-1598.42"/>
</g>
<!-- u26 -->
<g id="node3" class="node">
<title>u26</title>
<ellipse fill="#ffffbb" stroke="black" cx="2273" cy="-1429" rx="107.48" ry="18"/>
<text text-anchor="middle" x="2273" y="-1425.3" font-family="Times,serif" font-size="14.00">Drasil.GOOL.Classes</text>
</g>
<!-- u25 -->
<g id="node4" class="node">
<title>u25</title>
<ellipse fill="#ffffbb" stroke="black" cx="611" cy="-39" rx="118.08" ry="18"/>
<text text-anchor="middle" x="611" y="-35.3" font-family="Times,serif" font-size="14.00">Drasil.GOOL.CodeType</text>
</g>
<!-- u20 -->
<g id="node9" class="node">
<title>u20</title>
<ellipse fill="#ffffbb" stroke="black" cx="409" cy="-502" rx="108.58" ry="18"/>
<text text-anchor="middle" x="409" y="-498.3" font-family="Times,serif" font-size="14.00">Drasil.GOOL.Helpers</text>
</g>
<!-- u24&#45;&gt;u20 -->
<g id="edge42" class="edge">
<title>u24&#45;&gt;u20</title>
<path fill="none" stroke="black" d="M293.11,-792.98C292.04,-761.34 292.51,-691.76 313,-638 329.36,-595.08 362.67,-553.17 385.42,-527.71"/>
<polygon fill="black" stroke="black" points="388.25,-529.8 392.39,-520.04 383.07,-525.08 388.25,-529.8"/>
</g>
<!-- u19 -->
<g id="node10" class="node">
<title>u19</title>
<ellipse fill="#ffffbb" stroke="black" cx="759" cy="-656" rx="135.38" ry="18"/>
<text text-anchor="middle" x="759" y="-652.3" font-family="Times,serif" font-size="14.00">Drasil.GOOL.InterfaceProc</text>
</g>
<!-- u24&#45;&gt;u19 -->
<g id="edge41" class="edge">
<title>u24&#45;&gt;u19</title>
<path fill="none" stroke="black" d="M342.45,-794.06C428.63,-765.7 608.21,-706.62 700.89,-676.12"/>
<polygon fill="black" stroke="black" points="702.26,-679.36 710.66,-672.9 700.07,-672.71 702.26,-679.36"/>
</g>
<!-- u23 -->
<g id="node6" class="node">
<title>u23</title>
<ellipse fill="#ffffbb" stroke="black" cx="571" cy="-193" rx="133.78" ry="18"/>
<text text-anchor="middle" x="571" y="-189.3" font-family="Times,serif" font-size="14.00">Drasil.GOOL.CodeAnalysis</text>
</g>
<!-- u22 -->
<g id="node7" class="node">
<title>u22</title>
<ellipse fill="#ffffbb" stroke="black" cx="1104" cy="-656" rx="191.97" ry="18"/>
<text text-anchor="middle" x="1104" y="-652.3" font-family="Times,serif" font-size="14.00">Drasil.GOOL.RendererClassesCommon</text>
</g>
<!-- u4 -->
<g id="node13" class="node">
<title>u4</title>
<ellipse fill="#ffffbb" stroke="black" cx="759" cy="-502" rx="155.17" ry="18"/>
<text text-anchor="middle" x="759" y="-498.3" font-family="Times,serif" font-size="14.00">Drasil.GOOL.InterfaceCommon</text>
</g>
<!-- u22&#45;&gt;u4 -->
<g id="edge40" class="edge">
<title>u22&#45;&gt;u4</title>
<path fill="none" stroke="black" d="M1066.09,-638.3C1002.56,-610.31 874.8,-554.02 805.78,-523.61"/>
<polygon fill="black" stroke="black" points="807.01,-520.33 796.45,-519.5 804.19,-526.73 807.01,-520.33"/>
</g>
<!-- u21 -->
<g id="node8" class="node">
<title>u21</title>
<ellipse fill="#ffffbb" stroke="black" cx="814" cy="-193" rx="90.98" ry="18"/>
<text text-anchor="middle" x="814" y="-189.3" font-family="Times,serif" font-size="14.00">Drasil.GOOL.AST</text>
</g>
<!-- u21&#45;&gt;u25 -->
<g id="edge39" class="edge">
<title>u21&#45;&gt;u25</title>
<path fill="none" stroke="black" d="M791.89,-175.44C755.45,-148.16 682.73,-93.71 641.45,-62.8"/>
<polygon fill="black" stroke="black" points="643.5,-59.96 633.39,-56.77 639.3,-65.56 643.5,-59.96"/>
</g>
<!-- u20&#45;&gt;u25 -->
<g id="edge38" class="edge">
<title>u20&#45;&gt;u25</title>
<path fill="none" stroke="black" d="M405.2,-483.71C394.94,-432.71 371.13,-279.92 428,-175 457.6,-120.4 519.92,-81.93 563.57,-60.38"/>
<polygon fill="black" stroke="black" points="565.1,-63.53 572.59,-56.04 562.06,-57.22 565.1,-63.53"/>
</g>
<!-- u19&#45;&gt;u4 -->
<g id="edge37" class="edge">
<title>u19&#45;&gt;u4</title>
<path fill="none" stroke="black" d="M759,-637.86C759,-611.75 759,-561.74 759,-530.51"/>
<polygon fill="black" stroke="black" points="762.5,-530.31 759,-520.31 755.5,-530.31 762.5,-530.31"/>
</g>
<!-- u2 -->
<g id="node15" class="node">
<title>u2</title>
<ellipse fill="#ffffbb" stroke="black" cx="464" cy="-656" rx="141.88" ry="18"/>
<text text-anchor="middle" x="464" y="-652.3" font-family="Times,serif" font-size="14.00">Drasil.GOOL.InterfaceGOOL</text>
</g>
<!-- u18&#45;&gt;u2 -->
<g id="edge36" class="edge">
<title>u18&#45;&gt;u2</title>
<path fill="none" stroke="black" d="M269.57,-1255.73C298.21,-1197.33 391.33,-1001.2 438,-829 451.55,-779.03 458.61,-718.84 461.8,-684.54"/>
<polygon fill="black" stroke="black" points="465.3,-684.63 462.7,-674.36 458.33,-684.01 465.3,-684.63"/>
</g>
<!-- u17 -->
<g id="node12" class="node">
<title>u17</title>
<ellipse fill="#ffffbb" stroke="black" cx="1185" cy="-965" rx="161.37" ry="18"/>
<text text-anchor="middle" x="1185" y="-961.3" font-family="Times,serif" font-size="14.00">Drasil.GOOL.LanguageRenderer</text>
</g>
<!-- u1 -->
<g id="node16" class="node">
<title>u1</title>
<ellipse fill="#ffffbb" stroke="black" cx="853" cy="-811" rx="165.17" ry="18"/>
<text text-anchor="middle" x="853" y="-807.3" font-family="Times,serif" font-size="14.00">Drasil.GOOL.RendererClassesOO</text>
</g>
<!-- u17&#45;&gt;u1 -->
<g id="edge35" class="edge">
<title>u17&#45;&gt;u1</title>
<path fill="none" stroke="black" d="M1148.84,-947.44C1088.05,-919.61 965.5,-863.51 898.79,-832.97"/>
<polygon fill="black" stroke="black" points="899.92,-829.63 889.37,-828.65 897,-836 899.92,-829.63"/>
</g>
<!-- u3 -->
<g id="node14" class="node">
<title>u3</title>
<ellipse fill="#ffffbb" stroke="black" cx="759" cy="-348" rx="96.68" ry="18"/>
<text text-anchor="middle" x="759" y="-344.3" font-family="Times,serif" font-size="14.00">Drasil.GOOL.State</text>
</g>
<!-- u4&#45;&gt;u3 -->
<g id="edge9" class="edge">
<title>u4&#45;&gt;u3</title>
<path fill="none" stroke="black" d="M759,-483.86C759,-457.75 759,-407.74 759,-376.51"/>
<polygon fill="black" stroke="black" points="762.5,-376.31 759,-366.31 755.5,-376.31 762.5,-376.31"/>
</g>
<!-- u3&#45;&gt;u23 -->
<g id="edge8" class="edge">
<title>u3&#45;&gt;u23</title>
<path fill="none" stroke="black" d="M738.52,-330.34C704.99,-303.05 638.27,-248.75 599.93,-217.54"/>
<polygon fill="black" stroke="black" points="601.7,-214.47 591.74,-210.88 597.28,-219.9 601.7,-214.47"/>
</g>
<!-- u3&#45;&gt;u21 -->
<g id="edge7" class="edge">
<title>u3&#45;&gt;u21</title>
<path fill="none" stroke="black" d="M765.2,-329.75C774.73,-303.23 793.06,-252.25 804.34,-220.87"/>
<polygon fill="black" stroke="black" points="807.65,-222.02 807.74,-211.43 801.06,-219.65 807.65,-222.02"/>
</g>
<!-- u2&#45;&gt;u20 -->
<g id="edge6" class="edge">
<title>u2&#45;&gt;u20</title>
<path fill="none" stroke="black" d="M457.8,-637.86C448.31,-611.63 430.1,-561.31 418.81,-530.1"/>
<polygon fill="black" stroke="black" points="421.96,-528.52 415.26,-520.31 415.38,-530.91 421.96,-528.52"/>
</g>
<!-- u2&#45;&gt;u4 -->
<g id="edge5" class="edge">
<title>u2&#45;&gt;u4</title>
<path fill="none" stroke="black" d="M496.13,-638.44C549.85,-610.76 657.86,-555.11 717.34,-524.46"/>
<polygon fill="black" stroke="black" points="719.17,-527.46 726.46,-519.77 715.97,-521.24 719.17,-527.46"/>
</g>
<!-- u1&#45;&gt;u22 -->
<g id="edge4" class="edge">
<title>u1&#45;&gt;u22</title>
<path fill="none" stroke="black" d="M880.82,-793.04C926.34,-765.3 1016.71,-710.21 1067.38,-679.32"/>
<polygon fill="black" stroke="black" points="1069.34,-682.23 1076.05,-674.03 1065.69,-676.25 1069.34,-682.23"/>
</g>
<!-- u1&#45;&gt;u2 -->
<g id="edge3" class="edge">
<title>u1&#45;&gt;u2</title>
<path fill="none" stroke="black" d="M811,-793.48C739.13,-765.21 592.79,-707.66 515.11,-677.1"/>
<polygon fill="black" stroke="black" points="516.12,-673.74 505.53,-673.33 513.56,-680.25 516.12,-673.74"/>
</g>
<!-- u0 -->
<g id="node17" class="node">
<title>u0</title>
<ellipse fill="#ffffbb" stroke="black" cx="1208" cy="-811" rx="171.67" ry="18"/>
<text text-anchor="middle" x="1208" y="-807.3" font-family="Times,serif" font-size="14.00">Drasil.GOOL.RendererClassesProc</text>
</g>
<!-- u0&#45;&gt;u22 -->
<g id="edge2" class="edge">
<title>u0&#45;&gt;u22</title>
<path fill="none" stroke="black" d="M1196.27,-792.75C1178.09,-766 1142.99,-714.36 1121.71,-683.06"/>
<polygon fill="black" stroke="black" points="1124.36,-680.73 1115.84,-674.43 1118.57,-684.66 1124.36,-680.73"/>
</g>
<!-- u0&#45;&gt;u19 -->
<g id="edge1" class="edge">
<title>u0&#45;&gt;u19</title>
<path fill="none" stroke="black" d="M1159.95,-793.63C1076.32,-765.13 904.46,-706.57 815.36,-676.2"/>
<polygon fill="black" stroke="black" points="816.29,-672.82 805.69,-672.91 814.03,-679.45 816.29,-672.82"/>
</g>
<!-- u15 -->
<g id="node19" class="node">
<title>u15</title>
<ellipse fill="#bbbbff" stroke="black" cx="1335" cy="-1429" rx="251.56" ry="18"/>
<text text-anchor="middle" x="1335" y="-1425.3" font-family="Times,serif" font-size="14.00">Drasil.GOOL.LanguageRenderer.CommonPseudoOO</text>
</g>
<!-- u16&#45;&gt;u15 -->
<g id="edge34" class="edge">
<title>u16&#45;&gt;u15</title>
<path fill="none" stroke="black" d="M1753.81,-1565.44C1666.6,-1537.24 1489.62,-1480.01 1396.1,-1449.76"/>
<polygon fill="black" stroke="black" points="1397.08,-1446.4 1386.49,-1446.65 1394.92,-1453.06 1397.08,-1446.4"/>
</g>
<!-- u14 -->
<g id="node20" class="node">
<title>u14</title>
<ellipse fill="#bbbbff" stroke="black" cx="1798" cy="-1429" rx="189.27" ry="18"/>
<text text-anchor="middle" x="1798" y="-1425.3" font-family="Times,serif" font-size="14.00">Drasil.GOOL.LanguageRenderer.CLike</text>
</g>
<!-- u16&#45;&gt;u14 -->
<g id="edge33" class="edge">
<title>u16&#45;&gt;u14</title>
<path fill="none" stroke="black" d="M1804.21,-1564.86C1803.01,-1538.75 1800.71,-1488.74 1799.27,-1457.51"/>
<polygon fill="black" stroke="black" points="1802.75,-1457.14 1798.8,-1447.31 1795.76,-1457.46 1802.75,-1457.14"/>
</g>
<!-- u12 -->
<g id="node22" class="node">
<title>u12</title>
<ellipse fill="#bbbbff" stroke="black" cx="853" cy="-1429" rx="196.87" ry="18"/>
<text text-anchor="middle" x="853" y="-1425.3" font-family="Times,serif" font-size="14.00">Drasil.GOOL.LanguageRenderer.Macros</text>
</g>
<!-- u16&#45;&gt;u12 -->
<g id="edge32" class="edge">
<title>u16&#45;&gt;u12</title>
<path fill="none" stroke="black" d="M1708.92,-1566.66C1528.82,-1537.9 1141.94,-1476.13 956.39,-1446.51"/>
<polygon fill="black" stroke="black" points="956.79,-1443.03 946.36,-1444.91 955.68,-1449.94 956.79,-1443.03"/>
</g>
<!-- u11 -->
<g id="node23" class="node">
<title>u11</title>
<ellipse fill="#bbbbff" stroke="black" cx="1335" cy="-1274" rx="265.65" ry="18"/>
<text text-anchor="middle" x="1335" y="-1270.3" font-family="Times,serif" font-size="14.00">Drasil.GOOL.LanguageRenderer.LanguagePolymorphic</text>
</g>
<!-- u15&#45;&gt;u11 -->
<g id="edge31" class="edge">
<title>u15&#45;&gt;u11</title>
<path fill="none" stroke="black" d="M1335,-1410.75C1335,-1384.46 1335,-1334.13 1335,-1302.69"/>
<polygon fill="black" stroke="black" points="1338.5,-1302.43 1335,-1292.43 1331.5,-1302.43 1338.5,-1302.43"/>
</g>
<!-- u7 -->
<g id="node27" class="node">
<title>u7</title>
<ellipse fill="#bbbbff" stroke="black" cx="1335" cy="-1120" rx="223.66" ry="18"/>
<text text-anchor="middle" x="1335" y="-1116.3" font-family="Times,serif" font-size="14.00">Drasil.GOOL.LanguageRenderer.Constructors</text>
</g>
<!-- u14&#45;&gt;u7 -->
<g id="edge30" class="edge">
<title>u14&#45;&gt;u7</title>
<path fill="none" stroke="black" d="M1782.5,-1410.88C1751.94,-1377.82 1680.71,-1304.24 1610,-1256 1537.94,-1206.84 1445.34,-1165.26 1388.09,-1141.72"/>
<polygon fill="black" stroke="black" points="1389.1,-1138.36 1378.52,-1137.82 1386.46,-1144.84 1389.1,-1138.36"/>
</g>
<!-- u13&#45;&gt;u15 -->
<g id="edge29" class="edge">
<title>u13&#45;&gt;u15</title>
<path fill="none" stroke="black" d="M894.81,-1565.44C986.56,-1537.21 1172.86,-1479.89 1271.08,-1449.67"/>
<polygon fill="black" stroke="black" points="1272.36,-1452.94 1280.88,-1446.65 1270.3,-1446.25 1272.36,-1452.94"/>
</g>
<!-- u13&#45;&gt;u14 -->
<g id="edge28" class="edge">
<title>u13&#45;&gt;u14</title>
<path fill="none" stroke="black" d="M938.47,-1566.52C1120.33,-1537.63 1509.67,-1475.79 1695.37,-1446.3"/>
<polygon fill="black" stroke="black" points="1696.08,-1449.73 1705.41,-1444.71 1694.99,-1442.82 1696.08,-1449.73"/>
</g>
<!-- u13&#45;&gt;u12 -->
<g id="edge27" class="edge">
<title>u13&#45;&gt;u12</title>
<path fill="none" stroke="black" d="M842.35,-1564.86C844.41,-1538.75 848.36,-1488.74 850.83,-1457.51"/>
<polygon fill="black" stroke="black" points="854.34,-1457.56 851.63,-1447.31 847.36,-1457 854.34,-1457.56"/>
</g>
<!-- u12&#45;&gt;u1 -->
<g id="edge26" class="edge">
<title>u12&#45;&gt;u1</title>
<path fill="none" stroke="black" d="M853,-1410.88C853,-1325.4 853,-944.67 853,-839.18"/>
<polygon fill="black" stroke="black" points="856.5,-839.04 853,-829.04 849.5,-839.04 856.5,-839.04"/>
</g>
<!-- u11&#45;&gt;u7 -->
<g id="edge25" class="edge">
<title>u11&#45;&gt;u7</title>
<path fill="none" stroke="black" d="M1335,-1255.86C1335,-1229.75 1335,-1179.74 1335,-1148.51"/>
<polygon fill="black" stroke="black" points="1338.5,-1148.31 1335,-1138.31 1331.5,-1148.31 1338.5,-1148.31"/>
</g>
<!-- u10&#45;&gt;u26 -->
<g id="edge24" class="edge">
<title>u10&#45;&gt;u26</title>
<path fill="none" stroke="black" d="M2273,-1564.86C2273,-1538.75 2273,-1488.74 2273,-1457.51"/>
<polygon fill="black" stroke="black" points="2276.5,-1457.31 2273,-1447.31 2269.5,-1457.31 2276.5,-1457.31"/>
</g>
<!-- u10&#45;&gt;u15 -->
<g id="edge23" class="edge">
<title>u10&#45;&gt;u15</title>
<path fill="none" stroke="black" d="M2178.33,-1566.66C2002.36,-1538.14 1626.05,-1477.16 1441.5,-1447.26"/>
<polygon fill="black" stroke="black" points="1441.95,-1443.78 1431.51,-1445.64 1440.83,-1450.69 1441.95,-1443.78"/>
</g>
<!-- u10&#45;&gt;u14 -->
<g id="edge22" class="edge">
<title>u10&#45;&gt;u14</title>
<path fill="none" stroke="black" d="M2221.26,-1565.44C2132.9,-1537.17 1953.33,-1479.7 1859,-1449.52"/>
<polygon fill="black" stroke="black" points="1859.9,-1446.13 1849.31,-1446.42 1857.77,-1452.8 1859.9,-1446.13"/>
</g>
<!-- u10&#45;&gt;u12 -->
<g id="edge21" class="edge">
<title>u10&#45;&gt;u12</title>
<path fill="none" stroke="black" d="M2144.17,-1568.21C1875.54,-1539.45 1258.02,-1473.35 985.91,-1444.23"/>
<polygon fill="black" stroke="black" points="985.9,-1440.71 975.58,-1443.12 985.15,-1447.67 985.9,-1440.71"/>
</g>
<!-- u9 -->
<g id="node25" class="node">
<title>u9</title>
<ellipse fill="#bbbbff" stroke="black" cx="2739" cy="-1583" rx="223.66" ry="18"/>
<text text-anchor="middle" x="2739" y="-1579.3" font-family="Times,serif" font-size="14.00">Drasil.GOOL.LanguageRenderer.AbstractProc</text>
</g>
<!-- u9&#45;&gt;u0 -->
<g id="edge19" class="edge">
<title>u9&#45;&gt;u0</title>
<path fill="none" stroke="black" d="M2721.55,-1564.77C2678.93,-1520.76 2573,-1398.91 2573,-1275 2573,-1275 2573,-1275 2573,-1119 2573,-878.45 1755.88,-826.35 1386.06,-815.09"/>
<polygon fill="black" stroke="black" points="1386.16,-811.59 1376.06,-814.79 1385.95,-818.59 1386.16,-811.59"/>
</g>
<!-- u9&#45;&gt;u15 -->
<g id="edge20" class="edge">
<title>u9&#45;&gt;u15</title>
<path fill="none" stroke="black" d="M2611.31,-1568.18C2349.06,-1539.78 1751.44,-1475.09 1477.27,-1445.4"/>
<polygon fill="black" stroke="black" points="1477.57,-1441.91 1467.25,-1444.32 1476.82,-1448.87 1477.57,-1441.91"/>
</g>
<!-- u8&#45;&gt;u14 -->
<g id="edge18" class="edge">
<title>u8&#45;&gt;u14</title>
<path fill="none" stroke="black" d="M2364.36,-1726.3C2618.9,-1707.19 3056.7,-1660 2972,-1565 2907,-1492.1 2289.07,-1452.95 1976.8,-1437.68"/>
<polygon fill="black" stroke="black" points="1976.89,-1434.18 1966.74,-1437.19 1976.55,-1441.18 1976.89,-1434.18"/>
</g>
<!-- u8&#45;&gt;u12 -->
<g id="edge17" class="edge">
<title>u8&#45;&gt;u12</title>
<path fill="none" stroke="black" d="M1969.45,-1734.42C1551.39,-1727.26 682.35,-1700.44 591,-1601 525.92,-1530.16 676.28,-1475.49 775.14,-1448.53"/>
<polygon fill="black" stroke="black" points="776.08,-1451.9 784.83,-1445.93 774.27,-1445.14 776.08,-1451.9"/>
</g>
<!-- u8&#45;&gt;u9 -->
<g id="edge16" class="edge">
<title>u8&#45;&gt;u9</title>
<path fill="none" stroke="black" d="M2250.8,-1720.55C2352.75,-1692.04 2561.78,-1633.57 2670.26,-1603.23"/>
<polygon fill="black" stroke="black" points="2671.43,-1606.53 2680.12,-1600.47 2669.55,-1599.79 2671.43,-1606.53"/>
</g>
<!-- u7&#45;&gt;u17 -->
<g id="edge15" class="edge">
<title>u7&#45;&gt;u17</title>
<path fill="none" stroke="black" d="M1318.37,-1102.04C1291.79,-1074.93 1239.61,-1021.71 1208.99,-990.47"/>
<polygon fill="black" stroke="black" points="1211.2,-987.72 1201.7,-983.03 1206.2,-992.63 1211.2,-987.72"/>
</g>
<!-- u6&#45;&gt;u15 -->
<g id="edge14" class="edge">
<title>u6&#45;&gt;u15</title>
<path fill="none" stroke="black" d="M1331.45,-1564.86C1332.14,-1538.75 1333.45,-1488.74 1334.28,-1457.51"/>
<polygon fill="black" stroke="black" points="1337.78,-1457.4 1334.54,-1447.31 1330.78,-1457.22 1337.78,-1457.4"/>
</g>
<!-- u6&#45;&gt;u14 -->
<g id="edge13" class="edge">
<title>u6&#45;&gt;u14</title>
<path fill="none" stroke="black" d="M1382.31,-1565.3C1469.3,-1536.99 1645.26,-1479.71 1737.88,-1449.57"/>
<polygon fill="black" stroke="black" points="1739.24,-1452.81 1747.66,-1446.38 1737.07,-1446.15 1739.24,-1452.81"/>
</g>
<!-- u6&#45;&gt;u12 -->
<g id="edge12" class="edge">
<title>u6&#45;&gt;u12</title>
<path fill="none" stroke="black" d="M1278.94,-1565.44C1190.01,-1537.17 1009.31,-1479.7 914.39,-1449.52"/>
<polygon fill="black" stroke="black" points="915.23,-1446.12 904.64,-1446.42 913.11,-1452.79 915.23,-1446.12"/>
</g>
<!-- u5&#45;&gt;u15 -->
<g id="edge11" class="edge">
<title>u5&#45;&gt;u15</title>
<path fill="none" stroke="black" d="M408.48,-1566.73C602.25,-1538.13 1018.45,-1476.71 1220.4,-1446.91"/>
<polygon fill="black" stroke="black" points="1221.06,-1450.35 1230.44,-1445.43 1220.04,-1443.43 1221.06,-1450.35"/>
</g>
<!-- u5&#45;&gt;u12 -->
<g id="edge10" class="edge">
<title>u5&#45;&gt;u12</title>
<path fill="none" stroke="black" d="M364.43,-1565.52C466.93,-1537.08 676.39,-1478.99 784.72,-1448.94"/>
<polygon fill="black" stroke="black" points="785.86,-1452.25 794.56,-1446.21 783.99,-1445.51 785.86,-1452.25"/>
</g>
</g>
</svg>
