<?xml version="1.0" encoding="UTF-8" standalone="no"?>
<!DOCTYPE svg PUBLIC "-//W3C//DTD SVG 1.1//EN"
 "http://www.w3.org/Graphics/SVG/1.1/DTD/svg11.dtd">
<!-- Generated by graphviz version 2.43.0 (0)
 -->
<!-- Title: G Pages: 1 -->
<svg width="431pt" height="288pt"
 viewBox="0.00 0.00 430.86 288.00" xmlns="http://www.w3.org/2000/svg" xmlns:xlink="http://www.w3.org/1999/xlink">
<g id="graph0" class="graph" transform="scale(0.33 0.33) rotate(0) translate(4 864.67)">
<title>G</title>
<polygon fill="white" stroke="transparent" points="-4,4 -4,-864.67 1295.58,-864.67 1295.58,4 -4,4"/>
<!-- u0 -->
<g id="node1" class="node">
<title>u0</title>
<ellipse fill="#bbffbb" stroke="black" cx="610.34" cy="-775" rx="85.59" ry="18"/>
<text text-anchor="middle" x="610.34" y="-771.3" font-family="Times,serif" font-size="14.00">Drasil.Metadata</text>
</g>
<!-- u5 -->
<g id="node2" class="node">
<title>u5</title>
<ellipse fill="#ffffbb" stroke="black" cx="116.34" cy="-430" rx="116.18" ry="18"/>
<text text-anchor="middle" x="116.34" y="-426.3" font-family="Times,serif" font-size="14.00">Drasil.Metadata.Drasil</text>
</g>
<!-- u0&#45;&gt;u5 -->
<g id="edge4" class="edge">
<title>u0&#45;&gt;u5</title>
<path fill="none" stroke="black" d="M586.85,-757.69C506.41,-701.84 241.96,-518.23 149.01,-453.68"/>
<polygon fill="black" stroke="black" points="150.77,-450.64 140.56,-447.82 146.78,-456.39 150.77,-450.64"/>
</g>
<!-- u4 -->
<g id="node3" class="node">
<title>u4</title>
<ellipse fill="#ffffbb" stroke="black" cx="430.34" cy="-430" rx="179.27" ry="18"/>
<text text-anchor="middle" x="430.34" y="-426.3" font-family="Times,serif" font-size="14.00">Drasil.Metadata.SupportedSoftware</text>
</g>
<!-- u0&#45;&gt;u4 -->
<g id="edge3" class="edge">
<title>u0&#45;&gt;u4</title>
<path fill="none" stroke="black" d="M601.41,-756.99C572.2,-701.33 479.34,-524.36 444.09,-457.2"/>
<polygon fill="black" stroke="black" points="447.07,-455.34 439.32,-448.11 440.87,-458.59 447.07,-455.34"/>
</g>
<!-- u2 -->
<g id="node5" class="node">
<title>u2</title>
<ellipse fill="#ffffbb" stroke="black" cx="791.34" cy="-430" rx="163.57" ry="18"/>
<text text-anchor="middle" x="791.34" y="-426.3" font-family="Times,serif" font-size="14.00">Drasil.Metadata.TheoryConcepts</text>
</g>
<!-- u0&#45;&gt;u2 -->
<g id="edge2" class="edge">
<title>u0&#45;&gt;u2</title>
<path fill="none" stroke="black" d="M619.32,-756.99C648.69,-701.33 742.07,-524.36 777.52,-457.2"/>
<polygon fill="black" stroke="black" points="780.74,-458.59 782.31,-448.11 774.55,-455.32 780.74,-458.59"/>
</g>
<!-- u1 -->
<g id="node6" class="node">
<title>u1</title>
<ellipse fill="#ffffbb" stroke="black" cx="1132.34" cy="-430" rx="159.47" ry="18"/>
<text text-anchor="middle" x="1132.34" y="-426.3" font-family="Times,serif" font-size="14.00">Drasil.Metadata.Documentation</text>
</g>
<!-- u0&#45;&gt;u1 -->
<g id="edge1" class="edge">
<title>u0&#45;&gt;u1</title>
<path fill="none" stroke="black" d="M635.17,-757.69C720.24,-701.78 1000.16,-517.86 1098.12,-453.49"/>
<polygon fill="black" stroke="black" points="1100.31,-456.23 1106.75,-447.82 1096.47,-450.38 1100.31,-456.23"/>
</g>
<!-- u3 -->
<g id="node4" class="node">
<title>u3</title>
<ellipse fill="#ffffbb" stroke="black" cx="961.34" cy="-86" rx="129.18" ry="18"/>
<text text-anchor="middle" x="961.34" y="-82.3" font-family="Times,serif" font-size="14.00">Drasil.Metadata.Domains</text>
</g>
<!-- u2&#45;&gt;u3 -->
<g id="edge6" class="edge">
<title>u2&#45;&gt;u3</title>
<path fill="none" stroke="black" d="M800,-411.57C827.86,-355.52 915.26,-179.71 948.41,-113.01"/>
<polygon fill="black" stroke="black" points="951.58,-114.5 952.89,-103.99 945.31,-111.39 951.58,-114.5"/>
</g>
<!-- u1&#45;&gt;u3 -->
<g id="edge5" class="edge">
<title>u1&#45;&gt;u3</title>
<path fill="none" stroke="black" d="M1123.62,-411.57C1095.6,-355.52 1007.7,-179.71 974.35,-113.01"/>
<polygon fill="black" stroke="black" points="977.44,-111.37 969.83,-103.99 971.18,-114.5 977.44,-111.37"/>
</g>
</g>
</svg>
