<?xml version="1.0" encoding="UTF-8" standalone="no"?>
<!DOCTYPE svg PUBLIC "-//W3C//DTD SVG 1.1//EN"
 "http://www.w3.org/Graphics/SVG/1.1/DTD/svg11.dtd">
<!-- Generated by graphviz version 2.43.0 (0)
 -->
<!-- Title: G Pages: 1 -->
<svg width="432pt" height="285pt"
 viewBox="0.00 0.00 432.00 285.15" xmlns="http://www.w3.org/2000/svg" xmlns:xlink="http://www.w3.org/1999/xlink">
<g id="graph0" class="graph" transform="scale(0.1 0.1) rotate(0) translate(4 2902)">
<title>G</title>
<polygon fill="white" stroke="transparent" points="-4,4 -4,-2902 4398.52,-2902 4398.52,4 -4,4"/>
<!-- u28 -->
<g id="node1" class="node">
<title>u28</title>
<ellipse fill="#bbffbb" stroke="black" cx="2958.18" cy="-2472" rx="81.79" ry="18"/>
<text text-anchor="middle" x="2958.18" y="-2468.3" font-family="Times,serif" font-size="14.00">Drasil.DocLang</text>
</g>
<!-- u27 -->
<g id="node2" class="node">
<title>u27</title>
<ellipse fill="#bbffbb" stroke="black" cx="2641.18" cy="-2131" rx="133.78" ry="18"/>
<text text-anchor="middle" x="2641.18" y="-2127.3" font-family="Times,serif" font-size="14.00">Drasil.DocumentLanguage</text>
</g>
<!-- u28&#45;&gt;u27 -->
<g id="edge56" class="edge">
<title>u28&#45;&gt;u27</title>
<path fill="none" stroke="black" d="M2942.46,-2454.19C2890.6,-2398.73 2724.78,-2221.4 2663.89,-2156.28"/>
<polygon fill="black" stroke="black" points="2666.38,-2153.83 2657,-2148.91 2661.27,-2158.61 2666.38,-2153.83"/>
</g>
<!-- u17 -->
<g id="node16" class="node">
<title>u17</title>
<ellipse fill="#ffbbbb" stroke="black" cx="3896.18" cy="-2131" rx="276.75" ry="18"/>
<text text-anchor="middle" x="3896.18" y="-2127.3" font-family="Times,serif" font-size="14.00">Drasil.DocumentLanguage.Notebook.DocumentLanguage</text>
</g>
<!-- u28&#45;&gt;u17 -->
<g id="edge55" class="edge">
<title>u28&#45;&gt;u17</title>
<path fill="none" stroke="black" d="M2998.79,-2456.32C3148.24,-2402.31 3667.91,-2214.5 3840.2,-2152.23"/>
<polygon fill="black" stroke="black" points="3841.62,-2155.44 3849.84,-2148.75 3839.24,-2148.86 3841.62,-2155.44"/>
</g>
<!-- u26 -->
<g id="node3" class="node">
<title>u26</title>
<ellipse fill="#bbffbb" stroke="black" cx="2448.18" cy="-1790" rx="116.18" ry="18"/>
<text text-anchor="middle" x="2448.18" y="-1786.3" font-family="Times,serif" font-size="14.00">Drasil.ExtractDocDesc</text>
</g>
<!-- u27&#45;&gt;u26 -->
<g id="edge54" class="edge">
<title>u27&#45;&gt;u26</title>
<path fill="none" stroke="black" d="M2631.35,-2112.72C2599.79,-2057.3 2500.96,-1883.7 2463.12,-1817.24"/>
<polygon fill="black" stroke="black" points="2465.99,-1815.2 2458,-1808.24 2459.91,-1818.66 2465.99,-1815.2"/>
</g>
<!-- u25 -->
<g id="node4" class="node">
<title>u25</title>
<ellipse fill="#bbffbb" stroke="black" cx="841.18" cy="-1790" rx="79.09" ry="18"/>
<text text-anchor="middle" x="841.18" y="-1786.3" font-family="Times,serif" font-size="14.00">Drasil.DocDecl</text>
</g>
<!-- u27&#45;&gt;u25 -->
<g id="edge53" class="edge">
<title>u27&#45;&gt;u25</title>
<path fill="none" stroke="black" d="M2566.7,-2115.97C2272.61,-2060.58 1194.38,-1857.52 910.21,-1804"/>
<polygon fill="black" stroke="black" points="910.52,-1800.5 900.04,-1802.09 909.22,-1807.38 910.52,-1800.5"/>
</g>
<!-- u20 -->
<g id="node6" class="node">
<title>u20</title>
<ellipse fill="#bbffbb" stroke="black" cx="316.18" cy="-1790" rx="92.08" ry="18"/>
<text text-anchor="middle" x="316.18" y="-1786.3" font-family="Times,serif" font-size="14.00">Drasil.TraceTable</text>
</g>
<!-- u27&#45;&gt;u20 -->
<g id="edge51" class="edge">
<title>u27&#45;&gt;u20</title>
<path fill="none" stroke="black" d="M2553.93,-2117.28C2185.01,-2063.49 755.68,-1855.08 397.79,-1802.9"/>
<polygon fill="black" stroke="black" points="398.17,-1799.42 387.77,-1801.44 397.16,-1806.34 398.17,-1799.42"/>
</g>
<!-- u23 -->
<g id="node7" class="node">
<title>u23</title>
<ellipse fill="#ffffbb" stroke="black" cx="1403.18" cy="-1790" rx="136.48" ry="18"/>
<text text-anchor="middle" x="1403.18" y="-1786.3" font-family="Times,serif" font-size="14.00">Drasil.DocLang.References</text>
</g>
<!-- u27&#45;&gt;u23 -->
<g id="edge52" class="edge">
<title>u27&#45;&gt;u23</title>
<path fill="none" stroke="black" d="M2584.77,-2114.55C2381.54,-2058.9 1687.34,-1868.81 1469.28,-1809.1"/>
<polygon fill="black" stroke="black" points="1470.14,-1805.71 1459.57,-1806.44 1468.29,-1812.46 1470.14,-1805.71"/>
</g>
<!-- u12 -->
<g id="node14" class="node">
<title>u12</title>
<ellipse fill="#bbbbff" stroke="black" cx="1971.18" cy="-1790" rx="220.96" ry="18"/>
<text text-anchor="middle" x="1971.18" y="-1786.3" font-family="Times,serif" font-size="14.00">Drasil.DocumentLanguage.TraceabilityGraph</text>
</g>
<!-- u27&#45;&gt;u12 -->
<g id="edge50" class="edge">
<title>u27&#45;&gt;u12</title>
<path fill="none" stroke="black" d="M2608.41,-2113.42C2497.8,-2057.45 2138.2,-1875.5 2013.91,-1812.62"/>
<polygon fill="black" stroke="black" points="2015.18,-1809.34 2004.68,-1807.95 2012.02,-1815.59 2015.18,-1809.34"/>
</g>
<!-- u7 -->
<g id="node22" class="node">
<title>u7</title>
<ellipse fill="#bbffff" stroke="black" cx="3538.18" cy="-1449" rx="141.88" ry="18"/>
<text text-anchor="middle" x="3538.18" y="-1445.3" font-family="Times,serif" font-size="14.00">Drasil.Sections.Introduction</text>
</g>
<!-- u27&#45;&gt;u7 -->
<g id="edge49" class="edge">
<title>u27&#45;&gt;u7</title>
<path fill="none" stroke="black" d="M2663.36,-2113.19C2784.65,-2021.24 3367.47,-1579.41 3507.76,-1473.06"/>
<polygon fill="black" stroke="black" points="3510.13,-1475.66 3515.98,-1466.83 3505.9,-1470.08 3510.13,-1475.66"/>
</g>
<!-- u5 -->
<g id="node24" class="node">
<title>u5</title>
<ellipse fill="#bbffff" stroke="black" cx="3466.18" cy="-1790" rx="144.87" ry="18"/>
<text text-anchor="middle" x="3466.18" y="-1786.3" font-family="Times,serif" font-size="14.00">Drasil.Sections.Stakeholders</text>
</g>
<!-- u27&#45;&gt;u5 -->
<g id="edge48" class="edge">
<title>u27&#45;&gt;u5</title>
<path fill="none" stroke="black" d="M2680.7,-2113.76C2816.88,-2057.8 3266.56,-1873.03 3416.81,-1811.29"/>
<polygon fill="black" stroke="black" points="3418.35,-1814.44 3426.27,-1807.4 3415.69,-1807.97 3418.35,-1814.44"/>
</g>
<!-- u4 -->
<g id="node25" class="node">
<title>u4</title>
<ellipse fill="#bbffff" stroke="black" cx="3215.18" cy="-1449" rx="163.27" ry="18"/>
<text text-anchor="middle" x="3215.18" y="-1445.3" font-family="Times,serif" font-size="14.00">Drasil.Sections.GeneralSystDesc</text>
</g>
<!-- u27&#45;&gt;u4 -->
<g id="edge47" class="edge">
<title>u27&#45;&gt;u4</title>
<path fill="none" stroke="black" d="M2655.66,-2112.85C2733.44,-2020.71 3101.66,-1584.49 3194.09,-1474.98"/>
<polygon fill="black" stroke="black" points="3196.97,-1477 3200.75,-1467.1 3191.62,-1472.49 3196.97,-1477"/>
</g>
<!-- u1 -->
<g id="node28" class="node">
<title>u1</title>
<ellipse fill="#bbffff" stroke="black" cx="2835.18" cy="-1449" rx="161.37" ry="18"/>
<text text-anchor="middle" x="2835.18" y="-1445.3" font-family="Times,serif" font-size="14.00">Drasil.Sections.TableOfContents</text>
</g>
<!-- u27&#45;&gt;u1 -->
<g id="edge46" class="edge">
<title>u27&#45;&gt;u1</title>
<path fill="none" stroke="black" d="M2646.08,-2112.85C2672.21,-2021.26 2795.32,-1589.72 2827.48,-1476.99"/>
<polygon fill="black" stroke="black" points="2830.93,-1477.68 2830.3,-1467.1 2824.19,-1475.76 2830.93,-1477.68"/>
</g>
<!-- u19 -->
<g id="node10" class="node">
<title>u19</title>
<ellipse fill="#bbbbff" stroke="black" cx="620.18" cy="-1108" rx="159.47" ry="18"/>
<text text-anchor="middle" x="620.18" y="-1104.3" font-family="Times,serif" font-size="14.00">Drasil.DocumentLanguage.Core</text>
</g>
<!-- u26&#45;&gt;u19 -->
<g id="edge45" class="edge">
<title>u26&#45;&gt;u19</title>
<path fill="none" stroke="black" d="M2418.93,-1772.49C2300.47,-1705.7 1859.64,-1457.86 1793.18,-1431 1401.55,-1272.73 905.81,-1165.21 707.73,-1125.75"/>
<polygon fill="black" stroke="black" points="708.17,-1122.27 697.68,-1123.76 706.8,-1129.14 708.17,-1122.27"/>
</g>
<!-- u3 -->
<g id="node26" class="node">
<title>u3</title>
<ellipse fill="#bbffff" stroke="black" cx="2448.18" cy="-1449" rx="207.96" ry="18"/>
<text text-anchor="middle" x="2448.18" y="-1445.3" font-family="Times,serif" font-size="14.00">Drasil.Sections.SpecificSystemDescription</text>
</g>
<!-- u26&#45;&gt;u3 -->
<g id="edge44" class="edge">
<title>u26&#45;&gt;u3</title>
<path fill="none" stroke="black" d="M2448.18,-1771.72C2448.18,-1716.64 2448.18,-1544.83 2448.18,-1477.48"/>
<polygon fill="black" stroke="black" points="2451.68,-1477.24 2448.18,-1467.24 2444.68,-1477.24 2451.68,-1477.24"/>
</g>
<!-- u25&#45;&gt;u19 -->
<g id="edge43" class="edge">
<title>u25&#45;&gt;u19</title>
<path fill="none" stroke="black" d="M764.7,-1785.07C598.47,-1771.9 205.75,-1714.74 38.18,-1467 -94.02,-1271.55 330.61,-1163.69 526.55,-1125.31"/>
<polygon fill="black" stroke="black" points="527.41,-1128.71 536.56,-1123.37 526.08,-1121.83 527.41,-1128.71"/>
</g>
<!-- u2 -->
<g id="node27" class="node">
<title>u2</title>
<ellipse fill="#bbffff" stroke="black" cx="841.18" cy="-1449" rx="149.47" ry="18"/>
<text text-anchor="middle" x="841.18" y="-1445.3" font-family="Times,serif" font-size="14.00">Drasil.Sections.Requirements</text>
</g>
<!-- u25&#45;&gt;u2 -->
<g id="edge42" class="edge">
<title>u25&#45;&gt;u2</title>
<path fill="none" stroke="black" d="M841.18,-1771.72C841.18,-1716.64 841.18,-1544.83 841.18,-1477.48"/>
<polygon fill="black" stroke="black" points="844.68,-1477.24 841.18,-1467.24 837.68,-1477.24 844.68,-1477.24"/>
</g>
<!-- u24 -->
<g id="node5" class="node">
<title>u24</title>
<ellipse fill="#bbffbb" stroke="black" cx="2958.18" cy="-2813" rx="108.58" ry="18"/>
<text text-anchor="middle" x="2958.18" y="-2809.3" font-family="Times,serif" font-size="14.00">Drasil.SRSDocument</text>
</g>
<!-- u24&#45;&gt;u28 -->
<g id="edge41" class="edge">
<title>u24&#45;&gt;u28</title>
<path fill="none" stroke="black" d="M2958.18,-2794.72C2958.18,-2739.64 2958.18,-2567.83 2958.18,-2500.48"/>
<polygon fill="black" stroke="black" points="2961.68,-2500.24 2958.18,-2490.24 2954.68,-2500.24 2961.68,-2500.24"/>
</g>
<!-- u20&#45;&gt;u19 -->
<g id="edge33" class="edge">
<title>u20&#45;&gt;u19</title>
<path fill="none" stroke="black" d="M283.33,-1773.1C189.18,-1725.31 -69.41,-1577.19 18.18,-1431 130.96,-1242.79 395.42,-1158.4 533.22,-1126.1"/>
<polygon fill="black" stroke="black" points="534.36,-1129.43 543.32,-1123.77 532.79,-1122.61 534.36,-1129.43"/>
</g>
<!-- u11 -->
<g id="node18" class="node">
<title>u11</title>
<ellipse fill="#bbffff" stroke="black" cx="514.18" cy="-1449" rx="159.47" ry="18"/>
<text text-anchor="middle" x="514.18" y="-1445.3" font-family="Times,serif" font-size="14.00">Drasil.Sections.TableOfSymbols</text>
</g>
<!-- u23&#45;&gt;u11 -->
<g id="edge40" class="edge">
<title>u23&#45;&gt;u11</title>
<path fill="none" stroke="black" d="M1360.9,-1772.88C1214.39,-1717.01 728.54,-1531.74 566.96,-1470.13"/>
<polygon fill="black" stroke="black" points="567.83,-1466.71 557.24,-1466.42 565.34,-1473.25 567.83,-1466.71"/>
</g>
<!-- u10 -->
<g id="node19" class="node">
<title>u10</title>
<ellipse fill="#bbffff" stroke="black" cx="192.18" cy="-1449" rx="144.87" ry="18"/>
<text text-anchor="middle" x="192.18" y="-1445.3" font-family="Times,serif" font-size="14.00">Drasil.Sections.TableOfUnits</text>
</g>
<!-- u23&#45;&gt;u10 -->
<g id="edge39" class="edge">
<title>u23&#45;&gt;u10</title>
<path fill="none" stroke="black" d="M1347.6,-1773.44C1148.6,-1717.73 472.08,-1528.35 257.83,-1468.38"/>
<polygon fill="black" stroke="black" points="258.55,-1464.94 247.98,-1465.62 256.66,-1471.68 258.55,-1464.94"/>
</g>
<!-- u8 -->
<g id="node21" class="node">
<title>u8</title>
<ellipse fill="#bbffff" stroke="black" cx="2050.18" cy="-1449" rx="172.47" ry="18"/>
<text text-anchor="middle" x="2050.18" y="-1445.3" font-family="Times,serif" font-size="14.00">Drasil.Sections.AuxiliaryConstants</text>
</g>
<!-- u23&#45;&gt;u8 -->
<g id="edge38" class="edge">
<title>u23&#45;&gt;u8</title>
<path fill="none" stroke="black" d="M1434.83,-1772.42C1541.77,-1716.39 1889.71,-1534.08 2009.34,-1471.4"/>
<polygon fill="black" stroke="black" points="2010.98,-1474.49 2018.22,-1466.75 2007.74,-1468.29 2010.98,-1474.49"/>
</g>
<!-- u6 -->
<g id="node23" class="node">
<title>u6</title>
<ellipse fill="#bbffff" stroke="black" cx="1210.18" cy="-1449" rx="201.46" ry="18"/>
<text text-anchor="middle" x="1210.18" y="-1445.3" font-family="Times,serif" font-size="14.00">Drasil.Sections.TableOfAbbAndAcronyms</text>
</g>
<!-- u23&#45;&gt;u6 -->
<g id="edge37" class="edge">
<title>u23&#45;&gt;u6</title>
<path fill="none" stroke="black" d="M1393.35,-1771.72C1361.79,-1716.3 1262.96,-1542.7 1225.12,-1476.24"/>
<polygon fill="black" stroke="black" points="1227.99,-1474.2 1220,-1467.24 1221.91,-1477.66 1227.99,-1474.2"/>
</g>
<!-- u23&#45;&gt;u3 -->
<g id="edge36" class="edge">
<title>u23&#45;&gt;u3</title>
<path fill="none" stroke="black" d="M1452.18,-1773.1C1623.93,-1717.39 2198.45,-1531.01 2387.38,-1469.72"/>
<polygon fill="black" stroke="black" points="2388.72,-1472.97 2397.15,-1466.55 2386.56,-1466.31 2388.72,-1472.97"/>
</g>
<!-- u23&#45;&gt;u2 -->
<g id="edge35" class="edge">
<title>u23&#45;&gt;u2</title>
<path fill="none" stroke="black" d="M1375.31,-1772.19C1282.23,-1716.04 982.1,-1535 877.52,-1471.92"/>
<polygon fill="black" stroke="black" points="879.26,-1468.88 868.89,-1466.71 875.64,-1474.87 879.26,-1468.88"/>
</g>
<!-- u0 -->
<g id="node29" class="node">
<title>u0</title>
<ellipse fill="#bbffff" stroke="black" cx="1607.18" cy="-1449" rx="177.37" ry="18"/>
<text text-anchor="middle" x="1607.18" y="-1445.3" font-family="Times,serif" font-size="14.00">Drasil.Sections.TraceabilityMandGs</text>
</g>
<!-- u23&#45;&gt;u0 -->
<g id="edge34" class="edge">
<title>u23&#45;&gt;u0</title>
<path fill="none" stroke="black" d="M1413.58,-1771.72C1447,-1716.18 1551.82,-1541.99 1591.64,-1475.84"/>
<polygon fill="black" stroke="black" points="1594.65,-1477.62 1596.81,-1467.24 1588.65,-1474.01 1594.65,-1477.62"/>
</g>
<!-- u22 -->
<g id="node8" class="node">
<title>u22</title>
<ellipse fill="#ffffbb" stroke="black" cx="4265.18" cy="-1790" rx="129.18" ry="18"/>
<text text-anchor="middle" x="4265.18" y="-1786.3" font-family="Times,serif" font-size="14.00">Drasil.DocLang.Notebook</text>
</g>
<!-- u21 -->
<g id="node9" class="node">
<title>u21</title>
<ellipse fill="#ffffbb" stroke="black" cx="2929.18" cy="-1108" rx="104.78" ry="18"/>
<text text-anchor="middle" x="2929.18" y="-1104.3" font-family="Times,serif" font-size="14.00">Drasil.DocLang.SRS</text>
</g>
<!-- u13 -->
<g id="node13" class="node">
<title>u13</title>
<ellipse fill="#bbbbff" stroke="black" cx="1692.18" cy="-767" rx="223.66" ry="18"/>
<text text-anchor="middle" x="1692.18" y="-763.3" font-family="Times,serif" font-size="14.00">Drasil.DocumentLanguage.TraceabilityMatrix</text>
</g>
<!-- u19&#45;&gt;u13 -->
<g id="edge32" class="edge">
<title>u19&#45;&gt;u13</title>
<path fill="none" stroke="black" d="M671.17,-1090.88C848.36,-1034.84 1437.11,-848.66 1630.23,-787.59"/>
<polygon fill="black" stroke="black" points="1631.47,-790.87 1639.94,-784.52 1629.35,-784.2 1631.47,-790.87"/>
</g>
<!-- u15 -->
<g id="node11" class="node">
<title>u15</title>
<ellipse fill="#bbbbff" stroke="black" cx="2050.18" cy="-85" rx="162.47" ry="18"/>
<text text-anchor="middle" x="2050.18" y="-81.3" font-family="Times,serif" font-size="14.00">Drasil.DocumentLanguage.Units</text>
</g>
<!-- u14 -->
<g id="node12" class="node">
<title>u14</title>
<ellipse fill="#bbbbff" stroke="black" cx="2356.18" cy="-426" rx="187.37" ry="18"/>
<text text-anchor="middle" x="2356.18" y="-422.3" font-family="Times,serif" font-size="14.00">Drasil.DocumentLanguage.Definitions</text>
</g>
<!-- u14&#45;&gt;u15 -->
<g id="edge28" class="edge">
<title>u14&#45;&gt;u15</title>
<path fill="none" stroke="black" d="M2340.59,-407.72C2290.25,-351.96 2131.93,-176.56 2072.78,-111.03"/>
<polygon fill="black" stroke="black" points="2075.05,-108.32 2065.75,-103.24 2069.85,-113.01 2075.05,-108.32"/>
</g>
<!-- u13&#45;&gt;u14 -->
<g id="edge27" class="edge">
<title>u13&#45;&gt;u14</title>
<path fill="none" stroke="black" d="M1725.11,-749.19C1835.29,-692.94 2191.01,-511.33 2313.93,-448.57"/>
<polygon fill="black" stroke="black" points="2315.74,-451.58 2323.06,-443.91 2312.56,-445.34 2315.74,-451.58"/>
</g>
<!-- u12&#45;&gt;u21 -->
<g id="edge26" class="edge">
<title>u12&#45;&gt;u21</title>
<path fill="none" stroke="black" d="M2067.34,-1773.73C2301.68,-1734.36 2891.44,-1621.55 3005.18,-1467 3082,-1362.62 2988.16,-1197.31 2946.84,-1134.42"/>
<polygon fill="black" stroke="black" points="2949.62,-1132.27 2941.16,-1125.9 2943.8,-1136.16 2949.62,-1132.27"/>
</g>
<!-- u9 -->
<g id="node20" class="node">
<title>u9</title>
<ellipse fill="#bbffff" stroke="black" cx="1850.18" cy="-1108" rx="170.07" ry="18"/>
<text text-anchor="middle" x="1850.18" y="-1104.3" font-family="Times,serif" font-size="14.00">Drasil.Sections.ReferenceMaterial</text>
</g>
<!-- u12&#45;&gt;u9 -->
<g id="edge25" class="edge">
<title>u12&#45;&gt;u9</title>
<path fill="none" stroke="black" d="M1964.07,-1771.94C1944.7,-1724.57 1891.01,-1587 1869.18,-1467 1847.06,-1345.36 1847.83,-1196.95 1849.29,-1136.55"/>
<polygon fill="black" stroke="black" points="1852.79,-1136.41 1849.56,-1126.32 1845.79,-1136.22 1852.79,-1136.41"/>
</g>
<!-- u12&#45;&gt;u0 -->
<g id="edge24" class="edge">
<title>u12&#45;&gt;u0</title>
<path fill="none" stroke="black" d="M1952.88,-1771.96C1893.05,-1716.24 1703.09,-1539.32 1633.26,-1474.29"/>
<polygon fill="black" stroke="black" points="1635.44,-1471.53 1625.74,-1467.28 1630.67,-1476.66 1635.44,-1471.53"/>
</g>
<!-- u18 -->
<g id="node15" class="node">
<title>u18</title>
<ellipse fill="#ffbbbb" stroke="black" cx="3942.18" cy="-1449" rx="206.06" ry="18"/>
<text text-anchor="middle" x="3942.18" y="-1445.3" font-family="Times,serif" font-size="14.00">Drasil.DocumentLanguage.Notebook.Core</text>
</g>
<!-- u17&#45;&gt;u22 -->
<g id="edge31" class="edge">
<title>u17&#45;&gt;u22</title>
<path fill="none" stroke="black" d="M3914.73,-2112.96C3975.53,-2057.11 4168.85,-1879.5 4239.24,-1814.84"/>
<polygon fill="black" stroke="black" points="4241.82,-1817.22 4246.81,-1807.88 4237.08,-1812.06 4241.82,-1817.22"/>
</g>
<!-- u16 -->
<g id="node17" class="node">
<title>u16</title>
<ellipse fill="#ffbbbb" stroke="black" cx="3896.18" cy="-1790" rx="221.76" ry="18"/>
<text text-anchor="middle" x="3896.18" y="-1786.3" font-family="Times,serif" font-size="14.00">Drasil.DocumentLanguage.Notebook.LsnDecl</text>
</g>
<!-- u17&#45;&gt;u16 -->
<g id="edge30" class="edge">
<title>u17&#45;&gt;u16</title>
<path fill="none" stroke="black" d="M3896.18,-2112.72C3896.18,-2057.64 3896.18,-1885.83 3896.18,-1818.48"/>
<polygon fill="black" stroke="black" points="3899.68,-1818.24 3896.18,-1808.24 3892.68,-1818.24 3899.68,-1818.24"/>
</g>
<!-- u16&#45;&gt;u18 -->
<g id="edge29" class="edge">
<title>u16&#45;&gt;u18</title>
<path fill="none" stroke="black" d="M3898.53,-1771.72C3906,-1716.64 3929.31,-1544.83 3938.45,-1477.48"/>
<polygon fill="black" stroke="black" points="3941.97,-1477.62 3939.84,-1467.24 3935.03,-1476.68 3941.97,-1477.62"/>
</g>
<!-- u11&#45;&gt;u19 -->
<g id="edge23" class="edge">
<title>u11&#45;&gt;u19</title>
<path fill="none" stroke="black" d="M519.58,-1430.72C536.85,-1375.52 590.75,-1203.12 611.72,-1136.07"/>
<polygon fill="black" stroke="black" points="615.15,-1136.83 614.79,-1126.24 608.47,-1134.74 615.15,-1136.83"/>
</g>
<!-- u11&#45;&gt;u9 -->
<g id="edge22" class="edge">
<title>u11&#45;&gt;u9</title>
<path fill="none" stroke="black" d="M575.94,-1432.33C796.14,-1376.45 1542.22,-1187.14 1778.08,-1127.3"/>
<polygon fill="black" stroke="black" points="1779.09,-1130.65 1787.93,-1124.8 1777.37,-1123.86 1779.09,-1130.65"/>
</g>
<!-- u10&#45;&gt;u19 -->
<g id="edge21" class="edge">
<title>u10&#45;&gt;u19</title>
<path fill="none" stroke="black" d="M213.41,-1431.19C283.71,-1375.5 509.13,-1196.96 590.52,-1132.49"/>
<polygon fill="black" stroke="black" points="593.16,-1134.87 598.83,-1125.91 588.82,-1129.38 593.16,-1134.87"/>
</g>
<!-- u10&#45;&gt;u9 -->
<g id="edge20" class="edge">
<title>u10&#45;&gt;u9</title>
<path fill="none" stroke="black" d="M263.96,-1433.32C532.39,-1378.44 1476.59,-1185.39 1765.53,-1126.31"/>
<polygon fill="black" stroke="black" points="1766.43,-1129.7 1775.53,-1124.26 1765.03,-1122.84 1766.43,-1129.7"/>
</g>
<!-- u8&#45;&gt;u21 -->
<g id="edge19" class="edge">
<title>u8&#45;&gt;u21</title>
<path fill="none" stroke="black" d="M2092.88,-1431.53C2239.45,-1375.01 2721.77,-1188.99 2879.08,-1128.32"/>
<polygon fill="black" stroke="black" points="2880.46,-1131.54 2888.53,-1124.68 2877.94,-1125.01 2880.46,-1131.54"/>
</g>
<!-- u8&#45;&gt;u15 -->
<g id="edge18" class="edge">
<title>u8&#45;&gt;u15</title>
<path fill="none" stroke="black" d="M2050.18,-1430.78C2050.18,-1287.36 2050.18,-292.08 2050.18,-113.43"/>
<polygon fill="black" stroke="black" points="2053.68,-113.3 2050.18,-103.3 2046.68,-113.3 2053.68,-113.3"/>
</g>
<!-- u8&#45;&gt;u9 -->
<g id="edge17" class="edge">
<title>u8&#45;&gt;u9</title>
<path fill="none" stroke="black" d="M2039.99,-1430.72C2007.29,-1375.3 1904.88,-1201.7 1865.67,-1135.24"/>
<polygon fill="black" stroke="black" points="1868.45,-1133.08 1860.36,-1126.24 1862.42,-1136.63 1868.45,-1133.08"/>
</g>
<!-- u7&#45;&gt;u21 -->
<g id="edge16" class="edge">
<title>u7&#45;&gt;u21</title>
<path fill="none" stroke="black" d="M3507.98,-1431.19C3406.78,-1374.86 3079.72,-1192.8 2967.44,-1130.3"/>
<polygon fill="black" stroke="black" points="2968.93,-1127.12 2958.49,-1125.31 2965.53,-1133.24 2968.93,-1127.12"/>
</g>
<!-- u7&#45;&gt;u14 -->
<g id="edge15" class="edge">
<title>u7&#45;&gt;u14</title>
<path fill="none" stroke="black" d="M3518.65,-1431.13C3380.07,-1311.42 2546.12,-591.07 2383.62,-450.7"/>
<polygon fill="black" stroke="black" points="2385.82,-447.98 2375.97,-444.09 2381.25,-453.28 2385.82,-447.98"/>
</g>
<!-- u7&#45;&gt;u9 -->
<g id="edge14" class="edge">
<title>u7&#45;&gt;u9</title>
<path fill="none" stroke="black" d="M3465.92,-1433.49C3193.61,-1378.8 2230.02,-1185.28 1936,-1126.23"/>
<polygon fill="black" stroke="black" points="1936.32,-1122.73 1925.83,-1124.19 1934.94,-1129.59 1936.32,-1122.73"/>
</g>
<!-- u6&#45;&gt;u9 -->
<g id="edge13" class="edge">
<title>u6&#45;&gt;u9</title>
<path fill="none" stroke="black" d="M1241.92,-1431.19C1348.13,-1374.93 1691.08,-1193.27 1809.51,-1130.54"/>
<polygon fill="black" stroke="black" points="1811.43,-1133.49 1818.63,-1125.71 1808.16,-1127.3 1811.43,-1133.49"/>
</g>
<!-- u5&#45;&gt;u21 -->
<g id="edge12" class="edge">
<title>u5&#45;&gt;u21</title>
<path fill="none" stroke="black" d="M3491.54,-1772.2C3566.21,-1720.62 3774.81,-1560.27 3689.18,-1431 3540.8,-1206.98 3202.03,-1138.38 3031.4,-1117.71"/>
<polygon fill="black" stroke="black" points="3031.74,-1114.22 3021.4,-1116.53 3030.92,-1121.18 3031.74,-1114.22"/>
</g>
<!-- u4&#45;&gt;u21 -->
<g id="edge11" class="edge">
<title>u4&#45;&gt;u21</title>
<path fill="none" stroke="black" d="M3200.61,-1430.72C3153.45,-1374.83 3004.9,-1198.75 2949.92,-1133.58"/>
<polygon fill="black" stroke="black" points="2952.51,-1131.23 2943.39,-1125.84 2947.16,-1135.74 2952.51,-1131.23"/>
</g>
<!-- u4&#45;&gt;u9 -->
<g id="edge10" class="edge">
<title>u4&#45;&gt;u9</title>
<path fill="none" stroke="black" d="M3152.08,-1432.33C2927.1,-1376.45 2164.83,-1187.14 1923.85,-1127.3"/>
<polygon fill="black" stroke="black" points="1924.34,-1123.81 1913.79,-1124.8 1922.65,-1130.6 1924.34,-1123.81"/>
</g>
<!-- u3&#45;&gt;u21 -->
<g id="edge9" class="edge">
<title>u3&#45;&gt;u21</title>
<path fill="none" stroke="black" d="M2472.37,-1430.96C2552.18,-1374.7 2807.28,-1194.91 2897.33,-1131.45"/>
<polygon fill="black" stroke="black" points="2899.36,-1134.3 2905.52,-1125.68 2895.33,-1128.58 2899.36,-1134.3"/>
</g>
<!-- u3&#45;&gt;u14 -->
<g id="edge8" class="edge">
<title>u3&#45;&gt;u14</title>
<path fill="none" stroke="black" d="M2446.62,-1430.71C2435.81,-1310.68 2371.96,-602.12 2358.62,-454.1"/>
<polygon fill="black" stroke="black" points="2362.1,-453.7 2357.72,-444.06 2355.13,-454.33 2362.1,-453.7"/>
</g>
<!-- u3&#45;&gt;u9 -->
<g id="edge7" class="edge">
<title>u3&#45;&gt;u9</title>
<path fill="none" stroke="black" d="M2418.12,-1430.96C2318.6,-1374.54 1999.91,-1193.88 1888.82,-1130.9"/>
<polygon fill="black" stroke="black" points="1890.38,-1127.76 1879.95,-1125.88 1886.93,-1133.85 1890.38,-1127.76"/>
</g>
<!-- u2&#45;&gt;u21 -->
<g id="edge6" class="edge">
<title>u2&#45;&gt;u21</title>
<path fill="none" stroke="black" d="M926.27,-1434.19C1264.42,-1379.28 2510.99,-1176.9 2845.89,-1122.52"/>
<polygon fill="black" stroke="black" points="2846.7,-1125.94 2856.01,-1120.88 2845.57,-1119.03 2846.7,-1125.94"/>
</g>
<!-- u2&#45;&gt;u15 -->
<g id="edge5" class="edge">
<title>u2&#45;&gt;u15</title>
<path fill="none" stroke="black" d="M856.21,-1430.95C925.15,-1352.75 1218.03,-1020.65 1459.18,-749 1680.8,-499.36 1950.25,-197.8 2028.13,-110.66"/>
<polygon fill="black" stroke="black" points="2030.81,-112.92 2034.86,-103.14 2025.59,-108.26 2030.81,-112.92"/>
</g>
<!-- u2&#45;&gt;u9 -->
<g id="edge4" class="edge">
<title>u2&#45;&gt;u9</title>
<path fill="none" stroke="black" d="M889.17,-1431.88C1055.98,-1375.83 1610.28,-1189.6 1791.96,-1128.56"/>
<polygon fill="black" stroke="black" points="1793.24,-1131.82 1801.61,-1125.32 1791.01,-1125.19 1793.24,-1131.82"/>
</g>
<!-- u1&#45;&gt;u21 -->
<g id="edge3" class="edge">
<title>u1&#45;&gt;u21</title>
<path fill="none" stroke="black" d="M2839.97,-1430.72C2855.28,-1375.52 2903.08,-1203.12 2921.68,-1136.07"/>
<polygon fill="black" stroke="black" points="2925.1,-1136.81 2924.4,-1126.24 2918.36,-1134.94 2925.1,-1136.81"/>
</g>
<!-- u1&#45;&gt;u19 -->
<g id="edge2" class="edge">
<title>u1&#45;&gt;u19</title>
<path fill="none" stroke="black" d="M2744.22,-1434.08C2388.46,-1379.63 1092.56,-1181.3 720.62,-1124.37"/>
<polygon fill="black" stroke="black" points="721.09,-1120.9 710.68,-1122.85 720.03,-1127.82 721.09,-1120.9"/>
</g>
<!-- u0&#45;&gt;u19 -->
<g id="edge1" class="edge">
<title>u0&#45;&gt;u19</title>
<path fill="none" stroke="black" d="M1559.58,-1431.65C1395.65,-1375.35 854.91,-1189.62 677.28,-1128.61"/>
<polygon fill="black" stroke="black" points="678.19,-1125.22 667.6,-1125.29 675.92,-1131.84 678.19,-1125.22"/>
</g>
</g>
</svg>
