<?xml version="1.0" encoding="UTF-8" standalone="no"?>
<!DOCTYPE svg PUBLIC "-//W3C//DTD SVG 1.1//EN"
 "http://www.w3.org/Graphics/SVG/1.1/DTD/svg11.dtd">
<!-- Generated by graphviz version 2.43.0 (0)
 -->
<!-- Title: G Pages: 1 -->
<svg width="430pt" height="288pt"
 viewBox="0.00 0.00 429.55 288.00" xmlns="http://www.w3.org/2000/svg" xmlns:xlink="http://www.w3.org/1999/xlink">
<g id="graph0" class="graph" transform="scale(0.63 0.63) rotate(0) translate(4 456.67)">
<title>G</title>
<polygon fill="white" stroke="transparent" points="-4,4 -4,-456.67 683.08,-456.67 683.08,4 -4,4"/>
<!-- u0 -->
<g id="node1" class="node">
<title>u0</title>
<ellipse fill="#bbffbb" stroke="black" cx="279.39" cy="-428" rx="85.29" ry="18"/>
<text text-anchor="middle" x="279.39" y="-424.3" font-family="Times,serif" font-size="14.00">Drasil.Database</text>
</g>
<!-- u4 -->
<g id="node4" class="node">
<title>u4</title>
<ellipse fill="#ffffbb" stroke="black" cx="101.39" cy="-226" rx="101.28" ry="18"/>
<text text-anchor="middle" x="101.39" y="-222.3" font-family="Times,serif" font-size="14.00">Drasil.Database.TH</text>
</g>
<!-- u0&#45;&gt;u4 -->
<g id="edge3" class="edge">
<title>u0&#45;&gt;u4</title>
<path fill="none" stroke="black" d="M227.52,-413.69C191.71,-401.73 146.09,-380.46 120.39,-345 101.21,-318.54 98.44,-279.97 99.15,-254.21"/>
<polygon fill="black" stroke="black" points="102.65,-254.18 99.63,-244.03 95.66,-253.85 102.65,-254.18"/>
</g>
<!-- u3 -->
<g id="node5" class="node">
<title>u3</title>
<ellipse fill="#ffffbb" stroke="black" cx="279.39" cy="-327" rx="150.27" ry="18"/>
<text text-anchor="middle" x="279.39" y="-323.3" font-family="Times,serif" font-size="14.00">Drasil.Database.TypedUIDRef</text>
</g>
<!-- u0&#45;&gt;u3 -->
<g id="edge2" class="edge">
<title>u0&#45;&gt;u3</title>
<path fill="none" stroke="black" d="M279.39,-409.76C279.39,-394.71 279.39,-372.62 279.39,-355.19"/>
<polygon fill="black" stroke="black" points="282.89,-355.05 279.39,-345.05 275.89,-355.05 282.89,-355.05"/>
</g>
<!-- u1 -->
<g id="node7" class="node">
<title>u1</title>
<ellipse fill="#ffffbb" stroke="black" cx="563.39" cy="-327" rx="115.88" ry="18"/>
<text text-anchor="middle" x="563.39" y="-323.3" font-family="Times,serif" font-size="14.00">Drasil.Database.Dump</text>
</g>
<!-- u0&#45;&gt;u1 -->
<g id="edge1" class="edge">
<title>u0&#45;&gt;u1</title>
<path fill="none" stroke="black" d="M321.6,-412.29C371.45,-394.91 454.49,-365.96 509.09,-346.93"/>
<polygon fill="black" stroke="black" points="510.31,-350.21 518.6,-343.61 508.01,-343.6 510.31,-350.21"/>
</g>
<!-- u6 -->
<g id="node2" class="node">
<title>u6</title>
<ellipse fill="#ffffbb" stroke="black" cx="226.39" cy="-126" rx="117.78" ry="18"/>
<text text-anchor="middle" x="226.39" y="-122.3" font-family="Times,serif" font-size="14.00">Drasil.Database.Chunk</text>
</g>
<!-- u5 -->
<g id="node3" class="node">
<title>u5</title>
<ellipse fill="#ffffbb" stroke="black" cx="226.39" cy="-25" rx="106.68" ry="18"/>
<text text-anchor="middle" x="226.39" y="-21.3" font-family="Times,serif" font-size="14.00">Drasil.Database.UID</text>
</g>
<!-- u6&#45;&gt;u5 -->
<g id="edge8" class="edge">
<title>u6&#45;&gt;u5</title>
<path fill="none" stroke="black" d="M226.39,-107.76C226.39,-92.71 226.39,-70.62 226.39,-53.19"/>
<polygon fill="black" stroke="black" points="229.89,-53.05 226.39,-43.05 222.89,-53.05 229.89,-53.05"/>
</g>
<!-- u4&#45;&gt;u6 -->
<g id="edge7" class="edge">
<title>u4&#45;&gt;u6</title>
<path fill="none" stroke="black" d="M122.6,-208.38C143.07,-192.33 174.24,-167.89 197.08,-149.98"/>
<polygon fill="black" stroke="black" points="199.37,-152.63 205.08,-143.71 195.05,-147.12 199.37,-152.63"/>
</g>
<!-- u2 -->
<g id="node6" class="node">
<title>u2</title>
<ellipse fill="#ffffbb" stroke="black" cx="352.39" cy="-226" rx="131.88" ry="18"/>
<text text-anchor="middle" x="352.39" y="-222.3" font-family="Times,serif" font-size="14.00">Drasil.Database.ChunkDB</text>
</g>
<!-- u3&#45;&gt;u2 -->
<g id="edge6" class="edge">
<title>u3&#45;&gt;u2</title>
<path fill="none" stroke="black" d="M292.11,-308.76C303.62,-293.14 320.73,-269.94 333.78,-252.24"/>
<polygon fill="black" stroke="black" points="336.7,-254.17 339.82,-244.05 331.07,-250.02 336.7,-254.17"/>
</g>
<!-- u2&#45;&gt;u6 -->
<g id="edge5" class="edge">
<title>u2&#45;&gt;u6</title>
<path fill="none" stroke="black" d="M330.73,-208.15C310.18,-192.17 279.11,-168 256.22,-150.2"/>
<polygon fill="black" stroke="black" points="258.23,-147.33 248.19,-143.95 253.93,-152.86 258.23,-147.33"/>
</g>
<!-- u1&#45;&gt;u2 -->
<g id="edge4" class="edge">
<title>u1&#45;&gt;u2</title>
<path fill="none" stroke="black" d="M528.55,-309.65C492.36,-292.67 435.63,-266.05 396.37,-247.63"/>
<polygon fill="black" stroke="black" points="397.82,-244.45 387.29,-243.37 394.85,-250.79 397.82,-244.45"/>
</g>
</g>
</svg>
