<?xml version="1.0" encoding="UTF-8" standalone="no"?>
<!DOCTYPE svg PUBLIC "-//W3C//DTD SVG 1.1//EN"
 "http://www.w3.org/Graphics/SVG/1.1/DTD/svg11.dtd">
<!-- Generated by graphviz version 2.43.0 (0)
 -->
<!-- Title: G Pages: 1 -->
<svg width="432pt" height="281pt"
 viewBox="0.00 0.00 432.00 280.50" xmlns="http://www.w3.org/2000/svg" xmlns:xlink="http://www.w3.org/1999/xlink">
<g id="graph0" class="graph" transform="scale(0.14 0.14) rotate(0) translate(4 1949.33)">
<title>G</title>
<polygon fill="white" stroke="transparent" points="-4,4 -4,-1949.33 3004.3,-1949.33 3004.3,4 -4,4"/>
<!-- u28 -->
<g id="node1" class="node">
<title>u28</title>
<ellipse fill="#bbffbb" stroke="black" cx="1967" cy="-1751" rx="69.59" ry="18"/>
<text text-anchor="middle" x="1967" y="-1747.3" font-family="Times,serif" font-size="14.00">Drasil.GOOL</text>
</g>
<!-- u14 -->
<g id="node15" class="node">
<title>u14</title>
<ellipse fill="#ffffbb" stroke="black" cx="2549" cy="-1284" rx="128.08" ry="18"/>
<text text-anchor="middle" x="2549" y="-1280.3" font-family="Times,serif" font-size="14.00">Drasil.GOOL.CodeInfoOO</text>
</g>
<!-- u28&#45;&gt;u14 -->
<g id="edge50" class="edge">
<title>u28&#45;&gt;u14</title>
<path fill="none" stroke="black" d="M2033.96,-1745.91C2248.89,-1732.1 2910.94,-1684.08 2973,-1613 3097,-1470.97 2759.19,-1348.32 2612.85,-1303.32"/>
<polygon fill="black" stroke="black" points="2613.66,-1299.91 2603.07,-1300.35 2611.62,-1306.61 2613.66,-1299.91"/>
</g>
<!-- u9 -->
<g id="node20" class="node">
<title>u9</title>
<ellipse fill="#bbbbff" stroke="black" cx="756" cy="-1595" rx="224.76" ry="18"/>
<text text-anchor="middle" x="756" y="-1591.3" font-family="Times,serif" font-size="14.00">Drasil.GOOL.LanguageRenderer.CppRenderer</text>
</g>
<!-- u28&#45;&gt;u9 -->
<g id="edge49" class="edge">
<title>u28&#45;&gt;u9</title>
<path fill="none" stroke="black" d="M1906.12,-1742.26C1717.03,-1718.21 1137.25,-1644.48 880.54,-1611.84"/>
<polygon fill="black" stroke="black" points="880.79,-1608.34 870.43,-1610.55 879.91,-1615.29 880.79,-1608.34"/>
</g>
<!-- u8 -->
<g id="node21" class="node">
<title>u8</title>
<ellipse fill="#bbbbff" stroke="black" cx="1240" cy="-1595" rx="241.26" ry="18"/>
<text text-anchor="middle" x="1240" y="-1591.3" font-family="Times,serif" font-size="14.00">Drasil.GOOL.LanguageRenderer.CSharpRenderer</text>
</g>
<!-- u28&#45;&gt;u8 -->
<g id="edge48" class="edge">
<title>u28&#45;&gt;u8</title>
<path fill="none" stroke="black" d="M1915.01,-1738.99C1791.22,-1712.77 1478.05,-1646.43 1325.77,-1614.17"/>
<polygon fill="black" stroke="black" points="1326.49,-1610.74 1315.98,-1612.09 1325.04,-1617.59 1326.49,-1610.74"/>
</g>
<!-- u7 -->
<g id="node22" class="node">
<title>u7</title>
<ellipse fill="#bbbbff" stroke="black" cx="2204" cy="-1595" rx="225.56" ry="18"/>
<text text-anchor="middle" x="2204" y="-1591.3" font-family="Times,serif" font-size="14.00">Drasil.GOOL.LanguageRenderer.JavaRenderer</text>
</g>
<!-- u28&#45;&gt;u7 -->
<g id="edge47" class="edge">
<title>u28&#45;&gt;u7</title>
<path fill="none" stroke="black" d="M1991.47,-1734.1C2033.78,-1706.61 2120.72,-1650.12 2169.27,-1618.57"/>
<polygon fill="black" stroke="black" points="2171.39,-1621.36 2177.87,-1612.98 2167.57,-1615.5 2171.39,-1621.36"/>
</g>
<!-- u4 -->
<g id="node25" class="node">
<title>u4</title>
<ellipse fill="#bbbbff" stroke="black" cx="1730" cy="-1595" rx="230.96" ry="18"/>
<text text-anchor="middle" x="1730" y="-1591.3" font-family="Times,serif" font-size="14.00">Drasil.GOOL.LanguageRenderer.SwiftRenderer</text>
</g>
<!-- u28&#45;&gt;u4 -->
<g id="edge46" class="edge">
<title>u28&#45;&gt;u4</title>
<path fill="none" stroke="black" d="M1942.53,-1734.1C1900.22,-1706.61 1813.28,-1650.12 1764.73,-1618.57"/>
<polygon fill="black" stroke="black" points="1766.43,-1615.5 1756.13,-1612.98 1762.61,-1621.36 1766.43,-1615.5"/>
</g>
<!-- u0 -->
<g id="node29" class="node">
<title>u0</title>
<ellipse fill="#bbbbff" stroke="black" cx="2725" cy="-1595" rx="239.36" ry="18"/>
<text text-anchor="middle" x="2725" y="-1591.3" font-family="Times,serif" font-size="14.00">Drasil.GOOL.LanguageRenderer.PythonRenderer</text>
</g>
<!-- u28&#45;&gt;u0 -->
<g id="edge45" class="edge">
<title>u28&#45;&gt;u0</title>
<path fill="none" stroke="black" d="M2020,-1739.23C2148.28,-1713.17 2476.62,-1646.46 2635.8,-1614.12"/>
<polygon fill="black" stroke="black" points="2636.93,-1617.46 2646.04,-1612.04 2635.54,-1610.6 2636.93,-1617.46"/>
</g>
<!-- u27 -->
<g id="node2" class="node">
<title>u27</title>
<ellipse fill="#bbffbb" stroke="black" cx="145" cy="-1906" rx="69.59" ry="18"/>
<text text-anchor="middle" x="145" y="-1902.3" font-family="Times,serif" font-size="14.00">Drasil.GProc</text>
</g>
<!-- u15 -->
<g id="node14" class="node">
<title>u15</title>
<ellipse fill="#ffffbb" stroke="black" cx="391" cy="-817" rx="134.58" ry="18"/>
<text text-anchor="middle" x="391" y="-813.3" font-family="Times,serif" font-size="14.00">Drasil.GOOL.CodeInfoProc</text>
</g>
<!-- u27&#45;&gt;u15 -->
<g id="edge44" class="edge">
<title>u27&#45;&gt;u15</title>
<path fill="none" stroke="black" d="M127.41,-1888.33C103.17,-1864.33 59.9,-1817.53 37,-1769 3.44,-1697.89 0,-1674.63 0,-1596 0,-1596 0,-1596 0,-1127 0,-963.02 214.31,-872.48 325.61,-836.51"/>
<polygon fill="black" stroke="black" points="326.92,-839.77 335.39,-833.4 324.8,-833.1 326.92,-839.77"/>
</g>
<!-- u2 -->
<g id="node27" class="node">
<title>u2</title>
<ellipse fill="#bbbbff" stroke="black" cx="273" cy="-1751" rx="226.66" ry="18"/>
<text text-anchor="middle" x="273" y="-1747.3" font-family="Times,serif" font-size="14.00">Drasil.GOOL.LanguageRenderer.JuliaRenderer</text>
</g>
<!-- u27&#45;&gt;u2 -->
<g id="edge43" class="edge">
<title>u27&#45;&gt;u2</title>
<path fill="none" stroke="black" d="M158.94,-1888.34C181.43,-1861.46 225.82,-1808.39 252.1,-1776.98"/>
<polygon fill="black" stroke="black" points="254.95,-1779.03 258.68,-1769.11 249.58,-1774.54 254.95,-1779.03"/>
</g>
<!-- u26 -->
<g id="node3" class="node">
<title>u26</title>
<ellipse fill="#ffffbb" stroke="black" cx="1020" cy="-195" rx="133.78" ry="18"/>
<text text-anchor="middle" x="1020" y="-191.3" font-family="Times,serif" font-size="14.00">Drasil.GOOL.CodeAnalysis</text>
</g>
<!-- u25 -->
<g id="node4" class="node">
<title>u25</title>
<ellipse fill="#ffffbb" stroke="black" cx="658" cy="-506" rx="108.58" ry="18"/>
<text text-anchor="middle" x="658" y="-502.3" font-family="Times,serif" font-size="14.00">Drasil.GOOL.Helpers</text>
</g>
<!-- u22 -->
<g id="node7" class="node">
<title>u22</title>
<ellipse fill="#ffffbb" stroke="black" cx="717" cy="-39" rx="118.08" ry="18"/>
<text text-anchor="middle" x="717" y="-35.3" font-family="Times,serif" font-size="14.00">Drasil.GOOL.CodeType</text>
</g>
<!-- u25&#45;&gt;u22 -->
<g id="edge42" class="edge">
<title>u25&#45;&gt;u22</title>
<path fill="none" stroke="black" d="M657.64,-487.77C656.89,-438.75 656.72,-294.48 677,-177 683.77,-137.81 697.77,-93.91 707.28,-66.61"/>
<polygon fill="black" stroke="black" points="710.64,-67.6 710.68,-57.01 704.04,-65.27 710.64,-67.6"/>
</g>
<!-- u24 -->
<g id="node5" class="node">
<title>u24</title>
<ellipse fill="#ffffbb" stroke="black" cx="1331" cy="-661" rx="141.88" ry="18"/>
<text text-anchor="middle" x="1331" y="-657.3" font-family="Times,serif" font-size="14.00">Drasil.GOOL.InterfaceGOOL</text>
</g>
<!-- u24&#45;&gt;u25 -->
<g id="edge41" class="edge">
<title>u24&#45;&gt;u25</title>
<path fill="none" stroke="black" d="M1265.24,-645.05C1138.24,-616.18 860.17,-552.96 729.07,-523.16"/>
<polygon fill="black" stroke="black" points="729.66,-519.7 719.13,-520.9 728.11,-526.53 729.66,-519.7"/>
</g>
<!-- u23 -->
<g id="node6" class="node">
<title>u23</title>
<ellipse fill="#ffffbb" stroke="black" cx="980" cy="-506" rx="155.17" ry="18"/>
<text text-anchor="middle" x="980" y="-502.3" font-family="Times,serif" font-size="14.00">Drasil.GOOL.InterfaceCommon</text>
</g>
<!-- u24&#45;&gt;u23 -->
<g id="edge40" class="edge">
<title>u24&#45;&gt;u23</title>
<path fill="none" stroke="black" d="M1293.44,-643.63C1229.08,-615.57 1097.88,-558.38 1027.36,-527.64"/>
<polygon fill="black" stroke="black" points="1028.39,-524.27 1017.82,-523.49 1025.59,-530.69 1028.39,-524.27"/>
</g>
<!-- u19 -->
<g id="node10" class="node">
<title>u19</title>
<ellipse fill="#ffffbb" stroke="black" cx="980" cy="-350" rx="96.68" ry="18"/>
<text text-anchor="middle" x="980" y="-346.3" font-family="Times,serif" font-size="14.00">Drasil.GOOL.State</text>
</g>
<!-- u23&#45;&gt;u19 -->
<g id="edge39" class="edge">
<title>u23&#45;&gt;u19</title>
<path fill="none" stroke="black" d="M980,-487.93C980,-461.45 980,-410.22 980,-378.49"/>
<polygon fill="black" stroke="black" points="983.5,-378.15 980,-368.15 976.5,-378.15 983.5,-378.15"/>
</g>
<!-- u21 -->
<g id="node8" class="node">
<title>u21</title>
<ellipse fill="#ffffbb" stroke="black" cx="1331" cy="-973" rx="161.37" ry="18"/>
<text text-anchor="middle" x="1331" y="-969.3" font-family="Times,serif" font-size="14.00">Drasil.GOOL.LanguageRenderer</text>
</g>
<!-- u16 -->
<g id="node13" class="node">
<title>u16</title>
<ellipse fill="#ffffbb" stroke="black" cx="1331" cy="-817" rx="165.17" ry="18"/>
<text text-anchor="middle" x="1331" y="-813.3" font-family="Times,serif" font-size="14.00">Drasil.GOOL.RendererClassesOO</text>
</g>
<!-- u21&#45;&gt;u16 -->
<g id="edge38" class="edge">
<title>u21&#45;&gt;u16</title>
<path fill="none" stroke="black" d="M1331,-954.93C1331,-928.45 1331,-877.22 1331,-845.49"/>
<polygon fill="black" stroke="black" points="1334.5,-845.15 1331,-835.15 1327.5,-845.15 1334.5,-845.15"/>
</g>
<!-- u20 -->
<g id="node9" class="node">
<title>u20</title>
<ellipse fill="#ffffbb" stroke="black" cx="756" cy="-1440" rx="107.48" ry="18"/>
<text text-anchor="middle" x="756" y="-1436.3" font-family="Times,serif" font-size="14.00">Drasil.GOOL.Classes</text>
</g>
<!-- u19&#45;&gt;u26 -->
<g id="edge37" class="edge">
<title>u19&#45;&gt;u26</title>
<path fill="none" stroke="black" d="M984.51,-331.75C991.41,-305.35 1004.66,-254.69 1012.87,-223.28"/>
<polygon fill="black" stroke="black" points="1016.3,-223.99 1015.44,-213.43 1009.53,-222.21 1016.3,-223.99"/>
</g>
<!-- u13 -->
<g id="node16" class="node">
<title>u13</title>
<ellipse fill="#ffffbb" stroke="black" cx="777" cy="-195" rx="90.98" ry="18"/>
<text text-anchor="middle" x="777" y="-191.3" font-family="Times,serif" font-size="14.00">Drasil.GOOL.AST</text>
</g>
<!-- u19&#45;&gt;u13 -->
<g id="edge36" class="edge">
<title>u19&#45;&gt;u13</title>
<path fill="none" stroke="black" d="M957.89,-332.34C921.36,-304.8 848.35,-249.77 807.13,-218.71"/>
<polygon fill="black" stroke="black" points="809.18,-215.87 799.08,-212.64 804.96,-221.46 809.18,-215.87"/>
</g>
<!-- u18 -->
<g id="node11" class="node">
<title>u18</title>
<ellipse fill="#ffffbb" stroke="black" cx="635" cy="-661" rx="135.38" ry="18"/>
<text text-anchor="middle" x="635" y="-657.3" font-family="Times,serif" font-size="14.00">Drasil.GOOL.InterfaceProc</text>
</g>
<!-- u18&#45;&gt;u23 -->
<g id="edge35" class="edge">
<title>u18&#45;&gt;u23</title>
<path fill="none" stroke="black" d="M671.92,-643.63C735.17,-615.57 864.13,-558.38 933.45,-527.64"/>
<polygon fill="black" stroke="black" points="935.1,-530.74 942.82,-523.49 932.26,-524.34 935.1,-530.74"/>
</g>
<!-- u17 -->
<g id="node12" class="node">
<title>u17</title>
<ellipse fill="#ffffbb" stroke="black" cx="715" cy="-817" rx="171.67" ry="18"/>
<text text-anchor="middle" x="715" y="-813.3" font-family="Times,serif" font-size="14.00">Drasil.GOOL.RendererClassesProc</text>
</g>
<!-- u17&#45;&gt;u18 -->
<g id="edge34" class="edge">
<title>u17&#45;&gt;u18</title>
<path fill="none" stroke="black" d="M706.13,-798.93C692.2,-772.1 665.07,-719.88 648.64,-688.25"/>
<polygon fill="black" stroke="black" points="651.62,-686.41 643.91,-679.15 645.41,-689.63 651.62,-686.41"/>
</g>
<!-- u12 -->
<g id="node17" class="node">
<title>u12</title>
<ellipse fill="#ffffbb" stroke="black" cx="980" cy="-661" rx="191.97" ry="18"/>
<text text-anchor="middle" x="980" y="-657.3" font-family="Times,serif" font-size="14.00">Drasil.GOOL.RendererClassesCommon</text>
</g>
<!-- u17&#45;&gt;u12 -->
<g id="edge33" class="edge">
<title>u17&#45;&gt;u12</title>
<path fill="none" stroke="black" d="M743.86,-799.23C791.92,-771.3 888.35,-715.26 941.92,-684.13"/>
<polygon fill="black" stroke="black" points="943.88,-687.04 950.77,-678.99 940.36,-680.99 943.88,-687.04"/>
</g>
<!-- u16&#45;&gt;u24 -->
<g id="edge32" class="edge">
<title>u16&#45;&gt;u24</title>
<path fill="none" stroke="black" d="M1331,-798.93C1331,-772.45 1331,-721.22 1331,-689.49"/>
<polygon fill="black" stroke="black" points="1334.5,-689.15 1331,-679.15 1327.5,-689.15 1334.5,-689.15"/>
</g>
<!-- u16&#45;&gt;u12 -->
<g id="edge31" class="edge">
<title>u16&#45;&gt;u12</title>
<path fill="none" stroke="black" d="M1293.1,-799.37C1228.68,-771.11 1097.97,-713.76 1027.53,-682.85"/>
<polygon fill="black" stroke="black" points="1028.57,-679.49 1018,-678.67 1025.76,-685.9 1028.57,-679.49"/>
</g>
<!-- u15&#45;&gt;u25 -->
<g id="edge30" class="edge">
<title>u15&#45;&gt;u25</title>
<path fill="none" stroke="black" d="M398.3,-798.98C412.79,-766.41 447.57,-693.96 491,-643 530.46,-596.69 587.22,-554.31 623.35,-529.57"/>
<polygon fill="black" stroke="black" points="625.75,-532.17 632.07,-523.67 621.83,-526.38 625.75,-532.17"/>
</g>
<!-- u15&#45;&gt;u18 -->
<g id="edge29" class="edge">
<title>u15&#45;&gt;u18</title>
<path fill="none" stroke="black" d="M417.58,-799.23C461.76,-771.34 550.34,-715.43 599.71,-684.27"/>
<polygon fill="black" stroke="black" points="601.87,-687.05 608.46,-678.75 598.13,-681.13 601.87,-687.05"/>
</g>
<!-- u14&#45;&gt;u24 -->
<g id="edge28" class="edge">
<title>u14&#45;&gt;u24</title>
<path fill="none" stroke="black" d="M2516.74,-1266.55C2347.48,-1180.25 1562.63,-780.1 1372.54,-683.18"/>
<polygon fill="black" stroke="black" points="1373.93,-679.96 1363.43,-678.53 1370.75,-686.19 1373.93,-679.96"/>
</g>
<!-- u13&#45;&gt;u22 -->
<g id="edge27" class="edge">
<title>u13&#45;&gt;u22</title>
<path fill="none" stroke="black" d="M770.35,-176.93C759.94,-150.22 739.73,-98.33 727.39,-66.66"/>
<polygon fill="black" stroke="black" points="730.57,-65.19 723.68,-57.15 724.05,-67.73 730.57,-65.19"/>
</g>
<!-- u12&#45;&gt;u23 -->
<g id="edge26" class="edge">
<title>u12&#45;&gt;u23</title>
<path fill="none" stroke="black" d="M980,-642.75C980,-616.46 980,-566.13 980,-534.69"/>
<polygon fill="black" stroke="black" points="983.5,-534.43 980,-524.43 976.5,-534.43 983.5,-534.43"/>
</g>
<!-- u11 -->
<g id="node18" class="node">
<title>u11</title>
<ellipse fill="#bbbbff" stroke="black" cx="2037" cy="-1440" rx="196.87" ry="18"/>
<text text-anchor="middle" x="2037" y="-1436.3" font-family="Times,serif" font-size="14.00">Drasil.GOOL.LanguageRenderer.Macros</text>
</g>
<!-- u11&#45;&gt;u16 -->
<g id="edge25" class="edge">
<title>u11&#45;&gt;u16</title>
<path fill="none" stroke="black" d="M2018.82,-1421.9C1951.41,-1358.65 1708.92,-1132.41 1501,-955 1452.89,-913.95 1395.27,-868.21 1360.98,-841.33"/>
<polygon fill="black" stroke="black" points="1362.82,-838.33 1352.79,-834.92 1358.5,-843.84 1362.82,-838.33"/>
</g>
<!-- u10 -->
<g id="node19" class="node">
<title>u10</title>
<ellipse fill="#bbbbff" stroke="black" cx="1112" cy="-1440" rx="189.27" ry="18"/>
<text text-anchor="middle" x="1112" y="-1436.3" font-family="Times,serif" font-size="14.00">Drasil.GOOL.LanguageRenderer.CLike</text>
</g>
<!-- u5 -->
<g id="node24" class="node">
<title>u5</title>
<ellipse fill="#bbbbff" stroke="black" cx="1331" cy="-1128" rx="223.66" ry="18"/>
<text text-anchor="middle" x="1331" y="-1124.3" font-family="Times,serif" font-size="14.00">Drasil.GOOL.LanguageRenderer.Constructors</text>
</g>
<!-- u10&#45;&gt;u5 -->
<g id="edge24" class="edge">
<title>u10&#45;&gt;u5</title>
<path fill="none" stroke="black" d="M1124.11,-1421.8C1146.02,-1390.7 1193.7,-1323.03 1234,-1266 1261.47,-1227.13 1293.37,-1182.09 1312.87,-1154.58"/>
<polygon fill="black" stroke="black" points="1315.81,-1156.48 1318.74,-1146.29 1310.1,-1152.43 1315.81,-1156.48"/>
</g>
<!-- u9&#45;&gt;u20 -->
<g id="edge23" class="edge">
<title>u9&#45;&gt;u20</title>
<path fill="none" stroke="black" d="M756,-1576.75C756,-1550.46 756,-1500.13 756,-1468.69"/>
<polygon fill="black" stroke="black" points="759.5,-1468.43 756,-1458.43 752.5,-1468.43 759.5,-1468.43"/>
</g>
<!-- u9&#45;&gt;u11 -->
<g id="edge22" class="edge">
<title>u9&#45;&gt;u11</title>
<path fill="none" stroke="black" d="M875.36,-1579.74C1117.81,-1550.79 1665.75,-1485.34 1912.47,-1455.87"/>
<polygon fill="black" stroke="black" points="1913.04,-1459.33 1922.55,-1454.67 1912.21,-1452.38 1913.04,-1459.33"/>
</g>
<!-- u9&#45;&gt;u10 -->
<g id="edge21" class="edge">
<title>u9&#45;&gt;u10</title>
<path fill="none" stroke="black" d="M795.12,-1577.19C860.72,-1548.99 992.7,-1492.27 1063.88,-1461.68"/>
<polygon fill="black" stroke="black" points="1065.28,-1464.89 1073.09,-1457.72 1062.52,-1458.46 1065.28,-1464.89"/>
</g>
<!-- u3 -->
<g id="node26" class="node">
<title>u3</title>
<ellipse fill="#bbbbff" stroke="black" cx="1571" cy="-1440" rx="251.56" ry="18"/>
<text text-anchor="middle" x="1571" y="-1436.3" font-family="Times,serif" font-size="14.00">Drasil.GOOL.LanguageRenderer.CommonPseudoOO</text>
</g>
<!-- u9&#45;&gt;u3 -->
<g id="edge20" class="edge">
<title>u9&#45;&gt;u3</title>
<path fill="none" stroke="black" d="M839.77,-1578.27C992.55,-1549.59 1315.48,-1488.97 1476.12,-1458.81"/>
<polygon fill="black" stroke="black" points="1476.81,-1462.24 1485.99,-1456.96 1475.52,-1455.36 1476.81,-1462.24"/>
</g>
<!-- u8&#45;&gt;u11 -->
<g id="edge19" class="edge">
<title>u8&#45;&gt;u11</title>
<path fill="none" stroke="black" d="M1323.04,-1578.06C1473.63,-1549.15 1790.58,-1488.3 1946.49,-1458.37"/>
<polygon fill="black" stroke="black" points="1947.36,-1461.77 1956.53,-1456.45 1946.04,-1454.9 1947.36,-1461.77"/>
</g>
<!-- u8&#45;&gt;u10 -->
<g id="edge18" class="edge">
<title>u8&#45;&gt;u10</title>
<path fill="none" stroke="black" d="M1225.57,-1576.75C1202.88,-1549.63 1158.78,-1496.92 1132.71,-1465.76"/>
<polygon fill="black" stroke="black" points="1135.29,-1463.38 1126.19,-1457.96 1129.92,-1467.87 1135.29,-1463.38"/>
</g>
<!-- u8&#45;&gt;u3 -->
<g id="edge17" class="edge">
<title>u8&#45;&gt;u3</title>
<path fill="none" stroke="black" d="M1276.37,-1577.19C1337.03,-1549.15 1458.76,-1492.88 1525.18,-1462.18"/>
<polygon fill="black" stroke="black" points="1526.96,-1465.21 1534.57,-1457.84 1524.02,-1458.86 1526.96,-1465.21"/>
</g>
<!-- u7&#45;&gt;u11 -->
<g id="edge16" class="edge">
<title>u7&#45;&gt;u11</title>
<path fill="none" stroke="black" d="M2185.49,-1577.04C2155.77,-1549.81 2097.31,-1496.25 2063.28,-1465.08"/>
<polygon fill="black" stroke="black" points="2065.33,-1462.21 2055.59,-1458.03 2060.6,-1467.37 2065.33,-1462.21"/>
</g>
<!-- u7&#45;&gt;u10 -->
<g id="edge15" class="edge">
<title>u7&#45;&gt;u10</title>
<path fill="none" stroke="black" d="M2097.31,-1579.05C1890.06,-1550.01 1434.91,-1486.24 1223.72,-1456.65"/>
<polygon fill="black" stroke="black" points="1223.93,-1453.15 1213.54,-1455.23 1222.96,-1460.08 1223.93,-1453.15"/>
</g>
<!-- u7&#45;&gt;u3 -->
<g id="edge14" class="edge">
<title>u7&#45;&gt;u3</title>
<path fill="none" stroke="black" d="M2136.86,-1577.77C2018.67,-1549.2 1774.15,-1490.1 1648.8,-1459.81"/>
<polygon fill="black" stroke="black" points="1649.43,-1456.36 1638.89,-1457.41 1647.78,-1463.16 1649.43,-1456.36"/>
</g>
<!-- u6 -->
<g id="node23" class="node">
<title>u6</title>
<ellipse fill="#bbbbff" stroke="black" cx="290" cy="-1595" rx="223.66" ry="18"/>
<text text-anchor="middle" x="290" y="-1591.3" font-family="Times,serif" font-size="14.00">Drasil.GOOL.LanguageRenderer.AbstractProc</text>
</g>
<!-- u6&#45;&gt;u17 -->
<g id="edge13" class="edge">
<title>u6&#45;&gt;u17</title>
<path fill="none" stroke="black" d="M318.45,-1577.1C383.59,-1536.01 538,-1423.95 538,-1285 538,-1285 538,-1285 538,-1127 538,-1006.99 639.77,-891.32 688.97,-842.4"/>
<polygon fill="black" stroke="black" points="691.7,-844.63 696.39,-835.13 686.8,-839.63 691.7,-844.63"/>
</g>
<!-- u6&#45;&gt;u3 -->
<g id="edge12" class="edge">
<title>u6&#45;&gt;u3</title>
<path fill="none" stroke="black" d="M409.36,-1579.74C648.9,-1551.13 1186.64,-1486.91 1437.46,-1456.95"/>
<polygon fill="black" stroke="black" points="1438.21,-1460.39 1447.72,-1455.72 1437.38,-1453.43 1438.21,-1460.39"/>
</g>
<!-- u5&#45;&gt;u21 -->
<g id="edge11" class="edge">
<title>u5&#45;&gt;u21</title>
<path fill="none" stroke="black" d="M1331,-1109.75C1331,-1083.46 1331,-1033.13 1331,-1001.69"/>
<polygon fill="black" stroke="black" points="1334.5,-1001.43 1331,-991.43 1327.5,-1001.43 1334.5,-1001.43"/>
</g>
<!-- u4&#45;&gt;u11 -->
<g id="edge10" class="edge">
<title>u4&#45;&gt;u11</title>
<path fill="none" stroke="black" d="M1763.73,-1577.19C1819.88,-1549.2 1932.43,-1493.11 1994.13,-1462.37"/>
<polygon fill="black" stroke="black" points="1995.82,-1465.43 2003.21,-1457.84 1992.7,-1459.17 1995.82,-1465.43"/>
</g>
<!-- u4&#45;&gt;u10 -->
<g id="edge9" class="edge">
<title>u4&#45;&gt;u10</title>
<path fill="none" stroke="black" d="M1664.16,-1577.7C1548.14,-1548.98 1308.1,-1489.55 1186.33,-1459.4"/>
<polygon fill="black" stroke="black" points="1186.89,-1455.94 1176.34,-1456.93 1185.21,-1462.73 1186.89,-1455.94"/>
</g>
<!-- u4&#45;&gt;u3 -->
<g id="edge8" class="edge">
<title>u4&#45;&gt;u3</title>
<path fill="none" stroke="black" d="M1712.38,-1577.04C1684.08,-1549.81 1628.42,-1496.25 1596.02,-1465.08"/>
<polygon fill="black" stroke="black" points="1598.33,-1462.45 1588.7,-1458.03 1593.48,-1467.49 1598.33,-1462.45"/>
</g>
<!-- u1 -->
<g id="node28" class="node">
<title>u1</title>
<ellipse fill="#bbbbff" stroke="black" cx="1509" cy="-1284" rx="265.65" ry="18"/>
<text text-anchor="middle" x="1509" y="-1280.3" font-family="Times,serif" font-size="14.00">Drasil.GOOL.LanguageRenderer.LanguagePolymorphic</text>
</g>
<!-- u3&#45;&gt;u1 -->
<g id="edge7" class="edge">
<title>u3&#45;&gt;u1</title>
<path fill="none" stroke="black" d="M1564.13,-1421.93C1553.37,-1395.22 1532.48,-1343.33 1519.73,-1311.66"/>
<polygon fill="black" stroke="black" points="1522.88,-1310.11 1515.9,-1302.15 1516.39,-1312.73 1522.88,-1310.11"/>
</g>
<!-- u2&#45;&gt;u11 -->
<g id="edge6" class="edge">
<title>u2&#45;&gt;u11</title>
<path fill="none" stroke="black" d="M484.39,-1744.36C1016.31,-1729.15 2372.74,-1683.59 2439,-1613 2526.48,-1519.81 2324.97,-1474.8 2176.78,-1454.9"/>
<polygon fill="black" stroke="black" points="2177.03,-1451.41 2166.66,-1453.57 2176.12,-1458.35 2177.03,-1451.41"/>
</g>
<!-- u2&#45;&gt;u10 -->
<g id="edge5" class="edge">
<title>u2&#45;&gt;u10</title>
<path fill="none" stroke="black" d="M220.47,-1733.44C139.13,-1705.19 -2.09,-1644.2 57,-1577 86.95,-1542.95 692.18,-1481.07 972.15,-1454.13"/>
<polygon fill="black" stroke="black" points="972.76,-1457.58 982.38,-1453.14 972.09,-1450.62 972.76,-1457.58"/>
</g>
<!-- u2&#45;&gt;u6 -->
<g id="edge4" class="edge">
<title>u2&#45;&gt;u6</title>
<path fill="none" stroke="black" d="M274.88,-1732.93C277.81,-1706.45 283.46,-1655.22 286.97,-1623.49"/>
<polygon fill="black" stroke="black" points="290.49,-1623.47 288.11,-1613.15 283.53,-1622.7 290.49,-1623.47"/>
</g>
<!-- u1&#45;&gt;u5 -->
<g id="edge3" class="edge">
<title>u1&#45;&gt;u5</title>
<path fill="none" stroke="black" d="M1489.27,-1265.93C1457.46,-1238.41 1394.76,-1184.16 1358.55,-1152.84"/>
<polygon fill="black" stroke="black" points="1360.67,-1150.04 1350.82,-1146.15 1356.09,-1155.34 1360.67,-1150.04"/>
</g>
<!-- u0&#45;&gt;u11 -->
<g id="edge2" class="edge">
<title>u0&#45;&gt;u11</title>
<path fill="none" stroke="black" d="M2652.35,-1577.84C2522.86,-1549.05 2253.12,-1489.06 2117.91,-1458.99"/>
<polygon fill="black" stroke="black" points="2118.54,-1455.55 2108.02,-1456.79 2117.02,-1462.38 2118.54,-1455.55"/>
</g>
<!-- u0&#45;&gt;u3 -->
<g id="edge1" class="edge">
<title>u0&#45;&gt;u3</title>
<path fill="none" stroke="black" d="M2612.51,-1579.09C2395.52,-1550.32 1920.66,-1487.36 1694.93,-1457.43"/>
<polygon fill="black" stroke="black" points="1695.07,-1453.92 1684.7,-1456.07 1694.15,-1460.86 1695.07,-1453.92"/>
</g>
</g>
</svg>
