<?xml version="1.0" encoding="UTF-8" standalone="no"?>
<!DOCTYPE svg PUBLIC "-//W3C//DTD SVG 1.1//EN"
 "http://www.w3.org/Graphics/SVG/1.1/DTD/svg11.dtd">
<!-- Generated by graphviz version 2.43.0 (0)
 -->
<!-- Title: G Pages: 1 -->
<svg width="432pt" height="288pt"
 viewBox="0.00 0.00 431.67 288.00" xmlns="http://www.w3.org/2000/svg" xmlns:xlink="http://www.w3.org/1999/xlink">
<g id="graph0" class="graph" transform="scale(10.33 10.33) rotate(0) translate(4 2972)">
<title>G</title>
<polygon fill="white" stroke="transparent" points="-4,4 -4,-2972 4456.58,-2972 4456.58,4 -4,4"/>
<!-- u30 -->
<g id="node1" class="node">
<title>u30</title>
<ellipse fill="#bbffbb" stroke="black" cx="2073.29" cy="-1833" rx="79.09" ry="18"/>
<text text-anchor="middle" x="2073.29" y="-1829.3" font-family="Times,serif" font-size="14.00">Drasil.DocDecl</text>
</g>
<!-- u8 -->
<g id="node10" class="node">
<title>u8</title>
<ellipse fill="#bbbbff" stroke="black" cx="1556.29" cy="-1135" rx="159.47" ry="18"/>
<text text-anchor="middle" x="1556.29" y="-1131.3" font-family="Times,serif" font-size="14.00">Drasil.DocumentLanguage.Core</text>
</g>
<!-- u30&#45;&gt;u8 -->
<g id="edge50" class="edge">
<title>u30&#45;&gt;u8</title>
<path fill="none" stroke="black" d="M2042.97,-1816.36C1966.82,-1775.51 1766.24,-1657.89 1662.29,-1502 1588.22,-1390.92 1565.06,-1227.5 1558.57,-1163.31"/>
<polygon fill="black" stroke="black" points="1562.04,-1162.82 1557.61,-1153.2 1555.07,-1163.48 1562.04,-1162.82"/>
</g>
<!-- u13 -->
<g id="node31" class="node">
<title>u13</title>
<ellipse fill="#ffbbff" stroke="black" cx="2556.29" cy="-1484" rx="149.47" ry="18"/>
<text text-anchor="middle" x="2556.29" y="-1480.3" font-family="Times,serif" font-size="14.00">Drasil.Sections.Requirements</text>
</g>
<!-- u30&#45;&gt;u13 -->
<g id="edge51" class="edge">
<title>u30&#45;&gt;u13</title>
<path fill="none" stroke="black" d="M2095.94,-1815.73C2174.26,-1759.46 2433.81,-1572.99 2524.6,-1507.77"/>
<polygon fill="black" stroke="black" points="2526.77,-1510.52 2532.85,-1501.84 2522.68,-1504.84 2526.77,-1510.52"/>
</g>
<!-- u12 -->
<g id="node2" class="node">
<title>u12</title>
<ellipse fill="#bbffbb" stroke="black" cx="3817.29" cy="-2881" rx="108.58" ry="18"/>
<text text-anchor="middle" x="3817.29" y="-2877.3" font-family="Times,serif" font-size="14.00">Drasil.SRSDocument</text>
</g>
<!-- u10 -->
<g id="node4" class="node">
<title>u10</title>
<ellipse fill="#bbffbb" stroke="black" cx="3817.29" cy="-2532" rx="81.79" ry="18"/>
<text text-anchor="middle" x="3817.29" y="-2528.3" font-family="Times,serif" font-size="14.00">Drasil.DocLang</text>
</g>
<!-- u12&#45;&gt;u10 -->
<g id="edge25" class="edge">
<title>u12&#45;&gt;u10</title>
<path fill="none" stroke="black" d="M3817.29,-2862.79C3817.29,-2806.72 3817.29,-2628.92 3817.29,-2560.34"/>
<polygon fill="black" stroke="black" points="3820.79,-2560.31 3817.29,-2550.31 3813.79,-2560.31 3820.79,-2560.31"/>
</g>
<!-- u11 -->
<g id="node3" class="node">
<title>u11</title>
<ellipse fill="#bbffbb" stroke="black" cx="2305.29" cy="-2182" rx="133.78" ry="18"/>
<text text-anchor="middle" x="2305.29" y="-2178.3" font-family="Times,serif" font-size="14.00">Drasil.DocumentLanguage</text>
</g>
<!-- u11&#45;&gt;u30 -->
<g id="edge24" class="edge">
<title>u11&#45;&gt;u30</title>
<path fill="none" stroke="black" d="M2293.79,-2163.79C2255.98,-2107.24 2135.39,-1926.89 2090.42,-1859.62"/>
<polygon fill="black" stroke="black" points="2093.06,-1857.27 2084.59,-1850.9 2087.24,-1861.16 2093.06,-1857.27"/>
</g>
<!-- u9 -->
<g id="node5" class="node">
<title>u9</title>
<ellipse fill="#bbffbb" stroke="black" cx="92.29" cy="-1833" rx="92.08" ry="18"/>
<text text-anchor="middle" x="92.29" y="-1829.3" font-family="Times,serif" font-size="14.00">Drasil.TraceTable</text>
</g>
<!-- u11&#45;&gt;u9 -->
<g id="edge18" class="edge">
<title>u11&#45;&gt;u9</title>
<path fill="none" stroke="black" d="M2221.58,-2167.87C1870,-2112.75 515.28,-1900.32 171.81,-1846.47"/>
<polygon fill="black" stroke="black" points="172.13,-1842.98 161.7,-1844.88 171.04,-1849.89 172.13,-1842.98"/>
</g>
<!-- u0 -->
<g id="node6" class="node">
<title>u0</title>
<ellipse fill="#bbffbb" stroke="black" cx="342.29" cy="-1833" rx="116.18" ry="18"/>
<text text-anchor="middle" x="342.29" y="-1829.3" font-family="Times,serif" font-size="14.00">Drasil.ExtractDocDesc</text>
</g>
<!-- u11&#45;&gt;u0 -->
<g id="edge16" class="edge">
<title>u11&#45;&gt;u0</title>
<path fill="none" stroke="black" d="M2227.74,-2167.29C1915.19,-2112.04 749.42,-1905.97 425.98,-1848.79"/>
<polygon fill="black" stroke="black" points="426.2,-1845.28 415.74,-1846.98 424.98,-1852.17 426.2,-1845.28"/>
</g>
<!-- u29 -->
<g id="node7" class="node">
<title>u29</title>
<ellipse fill="#ffffbb" stroke="black" cx="1649.29" cy="-1833" rx="136.48" ry="18"/>
<text text-anchor="middle" x="1649.29" y="-1829.3" font-family="Times,serif" font-size="14.00">Drasil.DocLang.References</text>
</g>
<!-- u11&#45;&gt;u29 -->
<g id="edge23" class="edge">
<title>u11&#45;&gt;u29</title>
<path fill="none" stroke="black" d="M2273.65,-2164.26C2165.4,-2107 1809.88,-1918.95 1689.53,-1855.29"/>
<polygon fill="black" stroke="black" points="1691.09,-1852.15 1680.61,-1850.57 1687.82,-1858.34 1691.09,-1852.15"/>
</g>
<!-- u6 -->
<g id="node12" class="node">
<title>u6</title>
<ellipse fill="#bbbbff" stroke="black" cx="2429.29" cy="-1833" rx="220.96" ry="18"/>
<text text-anchor="middle" x="2429.29" y="-1829.3" font-family="Times,serif" font-size="14.00">Drasil.DocumentLanguage.TraceabilityGraph</text>
</g>
<!-- u11&#45;&gt;u6 -->
<g id="edge17" class="edge">
<title>u11&#45;&gt;u6</title>
<path fill="none" stroke="black" d="M2311.44,-2163.79C2331.52,-2107.6 2395.28,-1929.19 2419.67,-1860.92"/>
<polygon fill="black" stroke="black" points="2423.04,-1861.91 2423.11,-1851.31 2416.44,-1859.55 2423.04,-1861.91"/>
</g>
<!-- u22 -->
<g id="node22" class="node">
<title>u22</title>
<ellipse fill="#ffbbff" stroke="black" cx="2813.29" cy="-1833" rx="144.87" ry="18"/>
<text text-anchor="middle" x="2813.29" y="-1829.3" font-family="Times,serif" font-size="14.00">Drasil.Sections.Stakeholders</text>
</g>
<!-- u11&#45;&gt;u22 -->
<g id="edge22" class="edge">
<title>u11&#45;&gt;u22</title>
<path fill="none" stroke="black" d="M2329.79,-2164.26C2413.11,-2107.35 2685.55,-1921.26 2780.39,-1856.48"/>
<polygon fill="black" stroke="black" points="2782.46,-1859.3 2788.74,-1850.77 2778.51,-1853.52 2782.46,-1859.3"/>
</g>
<!-- u21 -->
<g id="node23" class="node">
<title>u21</title>
<ellipse fill="#ffbbff" stroke="black" cx="2885.29" cy="-1484" rx="161.37" ry="18"/>
<text text-anchor="middle" x="2885.29" y="-1480.3" font-family="Times,serif" font-size="14.00">Drasil.Sections.TableOfContents</text>
</g>
<!-- u11&#45;&gt;u21 -->
<g id="edge21" class="edge">
<title>u11&#45;&gt;u21</title>
<path fill="none" stroke="black" d="M2291.28,-2163.97C2248.06,-2109.27 2124.12,-1934.57 2199.29,-1815 2327.74,-1610.67 2622.01,-1529.93 2780.16,-1500.43"/>
<polygon fill="black" stroke="black" points="2781.17,-1503.81 2790.38,-1498.56 2779.91,-1496.92 2781.17,-1503.81"/>
</g>
<!-- u18 -->
<g id="node26" class="node">
<title>u18</title>
<ellipse fill="#ffbbff" stroke="black" cx="3320.29" cy="-1484" rx="141.88" ry="18"/>
<text text-anchor="middle" x="3320.29" y="-1480.3" font-family="Times,serif" font-size="14.00">Drasil.Sections.Introduction</text>
</g>
<!-- u11&#45;&gt;u18 -->
<g id="edge20" class="edge">
<title>u11&#45;&gt;u18</title>
<path fill="none" stroke="black" d="M2382.98,-2167.3C2598.7,-2127.56 3196.7,-2005.16 3311.29,-1851 3388.34,-1747.35 3348.75,-1577.67 3329.14,-1512.07"/>
<polygon fill="black" stroke="black" points="3332.36,-1510.64 3326.07,-1502.11 3325.67,-1512.7 3332.36,-1510.64"/>
</g>
<!-- u16 -->
<g id="node28" class="node">
<title>u16</title>
<ellipse fill="#ffbbff" stroke="black" cx="3139.29" cy="-1833" rx="163.27" ry="18"/>
<text text-anchor="middle" x="3139.29" y="-1829.3" font-family="Times,serif" font-size="14.00">Drasil.Sections.GeneralSystDesc</text>
</g>
<!-- u11&#45;&gt;u16 -->
<g id="edge19" class="edge">
<title>u11&#45;&gt;u16</title>
<path fill="none" stroke="black" d="M2344.4,-2164.73C2481.16,-2107.83 2937.92,-1917.78 3089.75,-1854.61"/>
<polygon fill="black" stroke="black" points="3091.41,-1857.71 3099.3,-1850.64 3088.72,-1851.25 3091.41,-1857.71"/>
</g>
<!-- u10&#45;&gt;u11 -->
<g id="edge14" class="edge">
<title>u10&#45;&gt;u11</title>
<path fill="none" stroke="black" d="M3763.03,-2518.51C3533.77,-2465.74 2644.13,-2260.99 2379.77,-2200.14"/>
<polygon fill="black" stroke="black" points="2380.42,-2196.7 2369.89,-2197.87 2378.85,-2203.52 2380.42,-2196.7"/>
</g>
<!-- u3 -->
<g id="node17" class="node">
<title>u3</title>
<ellipse fill="#ffbbbb" stroke="black" cx="3817.29" cy="-2182" rx="276.75" ry="18"/>
<text text-anchor="middle" x="3817.29" y="-2178.3" font-family="Times,serif" font-size="14.00">Drasil.DocumentLanguage.Notebook.DocumentLanguage</text>
</g>
<!-- u10&#45;&gt;u3 -->
<g id="edge13" class="edge">
<title>u10&#45;&gt;u3</title>
<path fill="none" stroke="black" d="M3817.29,-2513.74C3817.29,-2457.5 3817.29,-2279.2 3817.29,-2210.42"/>
<polygon fill="black" stroke="black" points="3820.79,-2210.36 3817.29,-2200.36 3813.79,-2210.36 3820.79,-2210.36"/>
</g>
<!-- u14 -->
<g id="node30" class="node">
<title>u14</title>
<ellipse fill="#ffbbff" stroke="black" cx="4282.29" cy="-2182" rx="170.07" ry="18"/>
<text text-anchor="middle" x="4282.29" y="-2178.3" font-family="Times,serif" font-size="14.00">Drasil.Sections.ReferenceMaterial</text>
</g>
<!-- u10&#45;&gt;u14 -->
<g id="edge15" class="edge">
<title>u10&#45;&gt;u14</title>
<path fill="none" stroke="black" d="M3839.41,-2514.45C3915.13,-2457.78 4164.11,-2271.44 4251.58,-2205.98"/>
<polygon fill="black" stroke="black" points="4253.86,-2208.65 4259.77,-2199.86 4249.67,-2203.05 4253.86,-2208.65"/>
</g>
<!-- u9&#45;&gt;u8 -->
<g id="edge12" class="edge">
<title>u9&#45;&gt;u8</title>
<path fill="none" stroke="black" d="M86.48,-1814.95C68.21,-1757.89 18.14,-1571.31 105.29,-1466 272.59,-1263.84 1088.07,-1174.72 1417.67,-1146.54"/>
<polygon fill="black" stroke="black" points="1418.09,-1150.02 1427.76,-1145.68 1417.5,-1143.04 1418.09,-1150.02"/>
</g>
<!-- u0&#45;&gt;u8 -->
<g id="edge1" class="edge">
<title>u0&#45;&gt;u8</title>
<path fill="none" stroke="black" d="M318.22,-1815.29C243.62,-1761.54 27.1,-1589.42 125.29,-1466 286.38,-1263.53 1091.5,-1174.68 1418.21,-1146.55"/>
<polygon fill="black" stroke="black" points="1418.54,-1150.04 1428.2,-1145.7 1417.94,-1143.06 1418.54,-1150.04"/>
</g>
<!-- u19 -->
<g id="node25" class="node">
<title>u19</title>
<ellipse fill="#ffbbff" stroke="black" cx="342.29" cy="-1484" rx="207.96" ry="18"/>
<text text-anchor="middle" x="342.29" y="-1480.3" font-family="Times,serif" font-size="14.00">Drasil.Sections.SpecificSystemDescription</text>
</g>
<!-- u0&#45;&gt;u19 -->
<g id="edge2" class="edge">
<title>u0&#45;&gt;u19</title>
<path fill="none" stroke="black" d="M342.29,-1814.79C342.29,-1758.72 342.29,-1580.92 342.29,-1512.34"/>
<polygon fill="black" stroke="black" points="345.79,-1512.31 342.29,-1502.31 338.79,-1512.31 345.79,-1512.31"/>
</g>
<!-- u24 -->
<g id="node20" class="node">
<title>u24</title>
<ellipse fill="#ffbbff" stroke="black" cx="1148.29" cy="-1484" rx="159.47" ry="18"/>
<text text-anchor="middle" x="1148.29" y="-1480.3" font-family="Times,serif" font-size="14.00">Drasil.Sections.TableOfSymbols</text>
</g>
<!-- u29&#45;&gt;u24 -->
<g id="edge49" class="edge">
<title>u29&#45;&gt;u24</title>
<path fill="none" stroke="black" d="M1625.13,-1815.26C1543.05,-1758.42 1274.89,-1572.69 1181.07,-1507.7"/>
<polygon fill="black" stroke="black" points="1183.01,-1504.79 1172.8,-1501.98 1179.03,-1510.55 1183.01,-1504.79"/>
</g>
<!-- u23 -->
<g id="node21" class="node">
<title>u23</title>
<ellipse fill="#ffbbff" stroke="black" cx="1470.29" cy="-1484" rx="144.87" ry="18"/>
<text text-anchor="middle" x="1470.29" y="-1480.3" font-family="Times,serif" font-size="14.00">Drasil.Sections.TableOfUnits</text>
</g>
<!-- u29&#45;&gt;u23 -->
<g id="edge48" class="edge">
<title>u29&#45;&gt;u23</title>
<path fill="none" stroke="black" d="M1640.42,-1814.79C1611.37,-1758.48 1519.02,-1579.45 1483.96,-1511.5"/>
<polygon fill="black" stroke="black" points="1486.92,-1509.59 1479.22,-1502.31 1480.7,-1512.8 1486.92,-1509.59"/>
</g>
<!-- u20 -->
<g id="node24" class="node">
<title>u20</title>
<ellipse fill="#ffbbff" stroke="black" cx="2216.29" cy="-1484" rx="172.47" ry="18"/>
<text text-anchor="middle" x="2216.29" y="-1480.3" font-family="Times,serif" font-size="14.00">Drasil.Sections.AuxiliaryConstants</text>
</g>
<!-- u29&#45;&gt;u20 -->
<g id="edge47" class="edge">
<title>u29&#45;&gt;u20</title>
<path fill="none" stroke="black" d="M1676.64,-1815.26C1769.82,-1758.24 2074.94,-1571.51 2180.2,-1507.09"/>
<polygon fill="black" stroke="black" points="2182.18,-1509.98 2188.89,-1501.77 2178.53,-1504.01 2182.18,-1509.98"/>
</g>
<!-- u29&#45;&gt;u19 -->
<g id="edge46" class="edge">
<title>u29&#45;&gt;u19</title>
<path fill="none" stroke="black" d="M1591.45,-1816.64C1379.46,-1760.36 645.45,-1565.49 413.28,-1503.85"/>
<polygon fill="black" stroke="black" points="414.15,-1500.46 403.59,-1501.27 412.36,-1507.22 414.15,-1500.46"/>
</g>
<!-- u17 -->
<g id="node27" class="node">
<title>u17</title>
<ellipse fill="#ffbbff" stroke="black" cx="1848.29" cy="-1484" rx="177.37" ry="18"/>
<text text-anchor="middle" x="1848.29" y="-1480.3" font-family="Times,serif" font-size="14.00">Drasil.Sections.TraceabilityMandGs</text>
</g>
<!-- u29&#45;&gt;u17 -->
<g id="edge45" class="edge">
<title>u29&#45;&gt;u17</title>
<path fill="none" stroke="black" d="M1659.16,-1814.79C1691.52,-1758.37 1794.55,-1578.72 1833.33,-1511.09"/>
<polygon fill="black" stroke="black" points="1836.43,-1512.73 1838.36,-1502.31 1830.35,-1509.25 1836.43,-1512.73"/>
</g>
<!-- u15 -->
<g id="node29" class="node">
<title>u15</title>
<ellipse fill="#ffbbff" stroke="black" cx="769.29" cy="-1484" rx="201.46" ry="18"/>
<text text-anchor="middle" x="769.29" y="-1480.3" font-family="Times,serif" font-size="14.00">Drasil.Sections.TableOfAbbAndAcronyms</text>
</g>
<!-- u29&#45;&gt;u15 -->
<g id="edge44" class="edge">
<title>u29&#45;&gt;u15</title>
<path fill="none" stroke="black" d="M1608.03,-1815.73C1463.58,-1758.77 980.81,-1568.4 821.09,-1505.43"/>
<polygon fill="black" stroke="black" points="822.08,-1502.05 811.49,-1501.64 819.51,-1508.56 822.08,-1502.05"/>
</g>
<!-- u29&#45;&gt;u13 -->
<g id="edge43" class="edge">
<title>u29&#45;&gt;u13</title>
<path fill="none" stroke="black" d="M1691.52,-1815.84C1840.42,-1758.88 2340.78,-1567.45 2504.19,-1504.93"/>
<polygon fill="black" stroke="black" points="2505.46,-1508.2 2513.55,-1501.35 2502.95,-1501.66 2505.46,-1508.2"/>
</g>
<!-- u28 -->
<g id="node8" class="node">
<title>u28</title>
<ellipse fill="#ffffbb" stroke="black" cx="4166.29" cy="-1484" rx="129.18" ry="18"/>
<text text-anchor="middle" x="4166.29" y="-1480.3" font-family="Times,serif" font-size="14.00">Drasil.DocLang.Notebook</text>
</g>
<!-- u27 -->
<g id="node9" class="node">
<title>u27</title>
<ellipse fill="#ffffbb" stroke="black" cx="2689.29" cy="-1135" rx="104.78" ry="18"/>
<text text-anchor="middle" x="2689.29" y="-1131.3" font-family="Times,serif" font-size="14.00">Drasil.DocLang.SRS</text>
</g>
<!-- u2 -->
<g id="node13" class="node">
<title>u2</title>
<ellipse fill="#bbbbff" stroke="black" cx="1849.29" cy="-786" rx="223.66" ry="18"/>
<text text-anchor="middle" x="1849.29" y="-782.3" font-family="Times,serif" font-size="14.00">Drasil.DocumentLanguage.TraceabilityMatrix</text>
</g>
<!-- u8&#45;&gt;u2 -->
<g id="edge11" class="edge">
<title>u8&#45;&gt;u2</title>
<path fill="none" stroke="black" d="M1570.82,-1116.79C1618.66,-1060.14 1771.4,-879.25 1827.96,-812.26"/>
<polygon fill="black" stroke="black" points="1830.9,-814.21 1834.67,-804.31 1825.55,-809.69 1830.9,-814.21"/>
</g>
<!-- u7 -->
<g id="node11" class="node">
<title>u7</title>
<ellipse fill="#bbbbff" stroke="black" cx="2518.29" cy="-87" rx="162.47" ry="18"/>
<text text-anchor="middle" x="2518.29" y="-83.3" font-family="Times,serif" font-size="14.00">Drasil.DocumentLanguage.Units</text>
</g>
<!-- u6&#45;&gt;u27 -->
<g id="edge10" class="edge">
<title>u6&#45;&gt;u27</title>
<path fill="none" stroke="black" d="M2513.36,-1816.32C2654.68,-1784.92 2936.06,-1699.64 3055.29,-1502 3150.09,-1344.87 2860.73,-1205.52 2739.79,-1155.58"/>
<polygon fill="black" stroke="black" points="2740.93,-1152.26 2730.35,-1151.72 2738.28,-1158.74 2740.93,-1152.26"/>
</g>
<!-- u6&#45;&gt;u17 -->
<g id="edge9" class="edge">
<title>u6&#45;&gt;u17</title>
<path fill="none" stroke="black" d="M2400.88,-1815.03C2304.92,-1757.72 1992.93,-1571.38 1885.24,-1507.07"/>
<polygon fill="black" stroke="black" points="1887.03,-1504.06 1876.65,-1501.94 1883.44,-1510.07 1887.03,-1504.06"/>
</g>
<!-- u1 -->
<g id="node14" class="node">
<title>u1</title>
<ellipse fill="#bbbbff" stroke="black" cx="2076.29" cy="-436" rx="187.37" ry="18"/>
<text text-anchor="middle" x="2076.29" y="-432.3" font-family="Times,serif" font-size="14.00">Drasil.DocumentLanguage.Definitions</text>
</g>
<!-- u2&#45;&gt;u1 -->
<g id="edge4" class="edge">
<title>u2&#45;&gt;u1</title>
<path fill="none" stroke="black" d="M1860.55,-767.74C1897.54,-711.04 2015.46,-530.25 2059.5,-462.75"/>
<polygon fill="black" stroke="black" points="2062.43,-464.65 2064.97,-454.36 2056.57,-460.82 2062.43,-464.65"/>
</g>
<!-- u1&#45;&gt;u7 -->
<g id="edge3" class="edge">
<title>u1&#45;&gt;u7</title>
<path fill="none" stroke="black" d="M2097.91,-418.03C2170.47,-361.07 2405.4,-176.63 2488.68,-111.24"/>
<polygon fill="black" stroke="black" points="2491.01,-113.87 2496.72,-104.94 2486.69,-108.36 2491.01,-113.87"/>
</g>
<!-- u5 -->
<g id="node15" class="node">
<title>u5</title>
<ellipse fill="#ffbbbb" stroke="black" cx="3686.29" cy="-1484" rx="206.06" ry="18"/>
<text text-anchor="middle" x="3686.29" y="-1480.3" font-family="Times,serif" font-size="14.00">Drasil.DocumentLanguage.Notebook.Core</text>
</g>
<!-- u4 -->
<g id="node16" class="node">
<title>u4</title>
<ellipse fill="#ffbbbb" stroke="black" cx="3637.29" cy="-1833" rx="219.86" ry="18"/>
<text text-anchor="middle" x="3637.29" y="-1829.3" font-family="Times,serif" font-size="14.00">Drasil.DocumentLanguage.Notebook.NBDecl</text>
</g>
<!-- u4&#45;&gt;u5 -->
<g id="edge8" class="edge">
<title>u4&#45;&gt;u5</title>
<path fill="none" stroke="black" d="M3639.72,-1814.79C3647.64,-1758.72 3672.75,-1580.92 3682.43,-1512.34"/>
<polygon fill="black" stroke="black" points="3685.91,-1512.7 3683.85,-1502.31 3678.98,-1511.72 3685.91,-1512.7"/>
</g>
<!-- u3&#45;&gt;u4 -->
<g id="edge5" class="edge">
<title>u3&#45;&gt;u4</title>
<path fill="none" stroke="black" d="M3808.37,-2163.79C3779.16,-2107.48 3686.29,-1928.45 3651.04,-1860.5"/>
<polygon fill="black" stroke="black" points="3653.98,-1858.58 3646.27,-1851.31 3647.77,-1861.8 3653.98,-1858.58"/>
</g>
<!-- u26 -->
<g id="node18" class="node">
<title>u26</title>
<ellipse fill="#bbffff" stroke="black" cx="3997.29" cy="-1833" rx="122.38" ry="18"/>
<text text-anchor="middle" x="3997.29" y="-1829.3" font-family="Times,serif" font-size="14.00">Drasil.NBSections.Body</text>
</g>
<!-- u3&#45;&gt;u26 -->
<g id="edge7" class="edge">
<title>u3&#45;&gt;u26</title>
<path fill="none" stroke="black" d="M3826.22,-2163.79C3855.43,-2107.48 3948.3,-1928.45 3983.54,-1860.5"/>
<polygon fill="black" stroke="black" points="3986.81,-1861.8 3988.31,-1851.31 3980.6,-1858.58 3986.81,-1861.8"/>
</g>
<!-- u25 -->
<g id="node19" class="node">
<title>u25</title>
<ellipse fill="#bbffff" stroke="black" cx="4293.29" cy="-1833" rx="155.97" ry="18"/>
<text text-anchor="middle" x="4293.29" y="-1829.3" font-family="Times,serif" font-size="14.00">Drasil.NBSections.Introduction</text>
</g>
<!-- u3&#45;&gt;u25 -->
<g id="edge6" class="edge">
<title>u3&#45;&gt;u25</title>
<path fill="none" stroke="black" d="M3840.57,-2164.03C3918.87,-2106.95 4172.74,-1921.88 4261.95,-1856.85"/>
<polygon fill="black" stroke="black" points="4264.04,-1859.66 4270.06,-1850.94 4259.91,-1854 4264.04,-1859.66"/>
</g>
<!-- u26&#45;&gt;u28 -->
<g id="edge42" class="edge">
<title>u26&#45;&gt;u28</title>
<path fill="none" stroke="black" d="M4005.67,-1814.79C4033.1,-1758.48 4120.29,-1579.45 4153.38,-1511.5"/>
<polygon fill="black" stroke="black" points="4156.63,-1512.83 4157.86,-1502.31 4150.34,-1509.77 4156.63,-1512.83"/>
</g>
<!-- u25&#45;&gt;u28 -->
<g id="edge41" class="edge">
<title>u25&#45;&gt;u28</title>
<path fill="none" stroke="black" d="M4286.99,-1814.79C4266.43,-1758.6 4201.13,-1580.19 4176.15,-1511.92"/>
<polygon fill="black" stroke="black" points="4179.35,-1510.5 4172.63,-1502.31 4172.78,-1512.91 4179.35,-1510.5"/>
</g>
<!-- u24&#45;&gt;u8 -->
<g id="edge40" class="edge">
<title>u24&#45;&gt;u8</title>
<path fill="none" stroke="black" d="M1168.25,-1466.03C1235.09,-1409.18 1451.21,-1225.37 1528.49,-1159.64"/>
<polygon fill="black" stroke="black" points="1531.03,-1162.08 1536.38,-1152.94 1526.49,-1156.75 1531.03,-1162.08"/>
</g>
<!-- u23&#45;&gt;u8 -->
<g id="edge39" class="edge">
<title>u23&#45;&gt;u8</title>
<path fill="none" stroke="black" d="M1474.56,-1465.79C1488.45,-1409.72 1532.52,-1231.92 1549.51,-1163.34"/>
<polygon fill="black" stroke="black" points="1552.99,-1163.86 1552,-1153.31 1546.2,-1162.18 1552.99,-1163.86"/>
</g>
<!-- u22&#45;&gt;u27 -->
<g id="edge38" class="edge">
<title>u22&#45;&gt;u27</title>
<path fill="none" stroke="black" d="M2843.93,-1815.25C2929.33,-1766.2 3159.28,-1616.84 3088.29,-1466 3013.78,-1307.67 2821.89,-1199.33 2734.21,-1156.49"/>
<polygon fill="black" stroke="black" points="2735.57,-1153.27 2725.05,-1152.07 2732.53,-1159.57 2735.57,-1153.27"/>
</g>
<!-- u21&#45;&gt;u27 -->
<g id="edge37" class="edge">
<title>u21&#45;&gt;u27</title>
<path fill="none" stroke="black" d="M2875.57,-1465.79C2843.7,-1409.37 2742.23,-1229.72 2704.03,-1162.09"/>
<polygon fill="black" stroke="black" points="2707.04,-1160.3 2699.07,-1153.31 2700.94,-1163.74 2707.04,-1160.3"/>
</g>
<!-- u21&#45;&gt;u8 -->
<g id="edge36" class="edge">
<title>u21&#45;&gt;u8</title>
<path fill="none" stroke="black" d="M2824.73,-1467.19C2606.22,-1410.13 1859.01,-1215.04 1626.16,-1154.24"/>
<polygon fill="black" stroke="black" points="1627,-1150.85 1616.44,-1151.71 1625.24,-1157.62 1627,-1150.85"/>
</g>
<!-- u20&#45;&gt;u27 -->
<g id="edge35" class="edge">
<title>u20&#45;&gt;u27</title>
<path fill="none" stroke="black" d="M2239.43,-1466.03C2317.24,-1408.94 2569.58,-1223.83 2658.18,-1158.82"/>
<polygon fill="black" stroke="black" points="2660.49,-1161.47 2666.48,-1152.74 2656.35,-1155.83 2660.49,-1161.47"/>
</g>
<!-- u20&#45;&gt;u7 -->
<g id="edge34" class="edge">
<title>u20&#45;&gt;u7</title>
<path fill="none" stroke="black" d="M2220,-1465.87C2251.45,-1320.6 2473.19,-296.32 2512.38,-115.3"/>
<polygon fill="black" stroke="black" points="2515.86,-115.79 2514.55,-105.28 2509.01,-114.31 2515.86,-115.79"/>
</g>
<!-- u19&#45;&gt;u27 -->
<g id="edge33" class="edge">
<title>u19&#45;&gt;u27</title>
<path fill="none" stroke="black" d="M442.39,-1468.2C831.38,-1410.69 2239,-1202.58 2602.92,-1148.77"/>
<polygon fill="black" stroke="black" points="2603.49,-1152.22 2612.87,-1147.3 2602.47,-1145.3 2603.49,-1152.22"/>
</g>
<!-- u19&#45;&gt;u1 -->
<g id="edge32" class="edge">
<title>u19&#45;&gt;u1</title>
<path fill="none" stroke="black" d="M370.23,-1466.15C572.38,-1344.21 1809.57,-597.9 2039.52,-459.18"/>
<polygon fill="black" stroke="black" points="2041.44,-462.11 2048.2,-453.95 2037.83,-456.12 2041.44,-462.11"/>
</g>
<!-- u18&#45;&gt;u27 -->
<g id="edge31" class="edge">
<title>u18&#45;&gt;u27</title>
<path fill="none" stroke="black" d="M3289.86,-1466.26C3185.71,-1408.99 2843.66,-1220.89 2727.95,-1157.26"/>
<polygon fill="black" stroke="black" points="2729.5,-1154.12 2719.05,-1152.37 2726.13,-1160.25 2729.5,-1154.12"/>
</g>
<!-- u18&#45;&gt;u1 -->
<g id="edge30" class="edge">
<title>u18&#45;&gt;u1</title>
<path fill="none" stroke="black" d="M3300.25,-1466.15C3155.73,-1344.63 2273.85,-603.11 2104.43,-460.66"/>
<polygon fill="black" stroke="black" points="2106.59,-457.9 2096.68,-454.15 2102.09,-463.26 2106.59,-457.9"/>
</g>
<!-- u17&#45;&gt;u8 -->
<g id="edge29" class="edge">
<title>u17&#45;&gt;u8</title>
<path fill="none" stroke="black" d="M1833.81,-1465.79C1786.14,-1409.14 1633.92,-1228.25 1577.55,-1161.26"/>
<polygon fill="black" stroke="black" points="1579.98,-1158.71 1570.86,-1153.31 1574.62,-1163.22 1579.98,-1158.71"/>
</g>
<!-- u16&#45;&gt;u27 -->
<g id="edge28" class="edge">
<title>u16&#45;&gt;u27</title>
<path fill="none" stroke="black" d="M3142.29,-1815C3151.02,-1760.36 3171.96,-1585.84 3107.29,-1466 3021.63,-1307.26 2823.76,-1198.81 2734.46,-1156.19"/>
<polygon fill="black" stroke="black" points="2735.94,-1153.02 2725.4,-1151.92 2732.95,-1159.35 2735.94,-1153.02"/>
</g>
<!-- u13&#45;&gt;u27 -->
<g id="edge27" class="edge">
<title>u13&#45;&gt;u27</title>
<path fill="none" stroke="black" d="M2562.89,-1465.79C2584.43,-1409.6 2652.81,-1231.19 2678.97,-1162.92"/>
<polygon fill="black" stroke="black" points="2682.35,-1163.9 2682.66,-1153.31 2675.81,-1161.4 2682.35,-1163.9"/>
</g>
<!-- u13&#45;&gt;u7 -->
<g id="edge26" class="edge">
<title>u13&#45;&gt;u7</title>
<path fill="none" stroke="black" d="M2556.03,-1465.76C2554.49,-1365.15 2546.11,-843.61 2532.29,-418 2528.64,-305.7 2522.38,-171.99 2519.64,-115.43"/>
<polygon fill="black" stroke="black" points="2523.12,-114.99 2519.14,-105.17 2516.13,-115.33 2523.12,-114.99"/>
</g>
</g>
</svg>
