<?xml version="1.0" encoding="UTF-8" standalone="no"?>
<!DOCTYPE svg PUBLIC "-//W3C//DTD SVG 1.1//EN"
 "http://www.w3.org/Graphics/SVG/1.1/DTD/svg11.dtd">
<!-- Generated by graphviz version 2.43.0 (0)
 -->
<!-- Title: G Pages: 1 -->
<svg width="432pt" height="279pt"
 viewBox="0.00 0.00 432.00 279.13" xmlns="http://www.w3.org/2000/svg" xmlns:xlink="http://www.w3.org/1999/xlink">
<g id="graph0" class="graph" transform="scale(0.14 0.14) rotate(0) translate(4 1924)">
<title>G</title>
<polygon fill="white" stroke="transparent" points="-4,4 -4,-1924 2979.85,-1924 2979.85,4 -4,4"/>
<!-- u28 -->
<g id="node1" class="node">
<title>u28</title>
<ellipse fill="#bbffbb" stroke="black" cx="1000.85" cy="-1728" rx="69.59" ry="18"/>
<text text-anchor="middle" x="1000.85" y="-1724.3" font-family="Times,serif" font-size="14.00">Drasil.GOOL</text>
</g>
<!-- u2 -->
<g id="node16" class="node">
<title>u2</title>
<ellipse fill="#ffffbb" stroke="black" cx="402.85" cy="-1267" rx="128.08" ry="18"/>
<text text-anchor="middle" x="402.85" y="-1263.3" font-family="Times,serif" font-size="14.00">Drasil.GOOL.CodeInfoOO</text>
</g>
<!-- u28&#45;&gt;u2 -->
<g id="edge45" class="edge">
<title>u28&#45;&gt;u2</title>
<path fill="none" stroke="black" d="M934.11,-1722.76C723.89,-1708.73 85.76,-1660.78 25.85,-1592 -89.03,-1460.11 214.3,-1333.97 345.65,-1287.15"/>
<polygon fill="black" stroke="black" points="346.91,-1290.41 355.18,-1283.78 344.58,-1283.81 346.91,-1290.41"/>
</g>
<!-- u13 -->
<g id="node20" class="node">
<title>u13</title>
<ellipse fill="#bbbbff" stroke="black" cx="1242.85" cy="-1574" rx="225.56" ry="18"/>
<text text-anchor="middle" x="1242.85" y="-1570.3" font-family="Times,serif" font-size="14.00">Drasil.GOOL.LanguageRenderer.JavaRenderer</text>
</g>
<!-- u28&#45;&gt;u13 -->
<g id="edge50" class="edge">
<title>u28&#45;&gt;u13</title>
<path fill="none" stroke="black" d="M1026.29,-1711.02C1069.59,-1683.83 1157.71,-1628.48 1207.15,-1597.42"/>
<polygon fill="black" stroke="black" points="1209.31,-1600.2 1215.92,-1591.92 1205.59,-1594.27 1209.31,-1600.2"/>
</g>
<!-- u11 -->
<g id="node22" class="node">
<title>u11</title>
<ellipse fill="#bbbbff" stroke="black" cx="2204.85" cy="-1574" rx="239.36" ry="18"/>
<text text-anchor="middle" x="2204.85" y="-1570.3" font-family="Times,serif" font-size="14.00">Drasil.GOOL.LanguageRenderer.PythonRenderer</text>
</g>
<!-- u28&#45;&gt;u11 -->
<g id="edge49" class="edge">
<title>u28&#45;&gt;u11</title>
<path fill="none" stroke="black" d="M1061.8,-1719.31C1249.43,-1695.62 1821.15,-1623.44 2077.79,-1591.04"/>
<polygon fill="black" stroke="black" points="2078.43,-1594.49 2087.91,-1589.76 2077.55,-1587.54 2078.43,-1594.49"/>
</g>
<!-- u10 -->
<g id="node23" class="node">
<title>u10</title>
<ellipse fill="#bbbbff" stroke="black" cx="1716.85" cy="-1574" rx="230.96" ry="18"/>
<text text-anchor="middle" x="1716.85" y="-1570.3" font-family="Times,serif" font-size="14.00">Drasil.GOOL.LanguageRenderer.SwiftRenderer</text>
</g>
<!-- u28&#45;&gt;u10 -->
<g id="edge48" class="edge">
<title>u28&#45;&gt;u10</title>
<path fill="none" stroke="black" d="M1052.92,-1715.95C1175.14,-1690 1481.33,-1625 1631.34,-1593.15"/>
<polygon fill="black" stroke="black" points="1632.37,-1596.51 1641.42,-1591.01 1630.92,-1589.67 1632.37,-1596.51"/>
</g>
<!-- u7 -->
<g id="node26" class="node">
<title>u7</title>
<ellipse fill="#bbbbff" stroke="black" cx="757.85" cy="-1574" rx="241.26" ry="18"/>
<text text-anchor="middle" x="757.85" y="-1570.3" font-family="Times,serif" font-size="14.00">Drasil.GOOL.LanguageRenderer.CSharpRenderer</text>
</g>
<!-- u28&#45;&gt;u7 -->
<g id="edge47" class="edge">
<title>u28&#45;&gt;u7</title>
<path fill="none" stroke="black" d="M975.31,-1711.02C931.74,-1683.77 842.98,-1628.25 793.39,-1597.23"/>
<polygon fill="black" stroke="black" points="795.24,-1594.25 784.9,-1591.92 791.52,-1600.19 795.24,-1594.25"/>
</g>
<!-- u4 -->
<g id="node29" class="node">
<title>u4</title>
<ellipse fill="#bbbbff" stroke="black" cx="273.85" cy="-1574" rx="224.76" ry="18"/>
<text text-anchor="middle" x="273.85" y="-1570.3" font-family="Times,serif" font-size="14.00">Drasil.GOOL.LanguageRenderer.CppRenderer</text>
</g>
<!-- u28&#45;&gt;u4 -->
<g id="edge46" class="edge">
<title>u28&#45;&gt;u4</title>
<path fill="none" stroke="black" d="M948.57,-1716.07C824.72,-1690.17 512.46,-1624.89 360.12,-1593.04"/>
<polygon fill="black" stroke="black" points="360.83,-1589.61 350.32,-1590.99 359.39,-1596.46 360.83,-1589.61"/>
</g>
<!-- u0 -->
<g id="node2" class="node">
<title>u0</title>
<ellipse fill="#bbffbb" stroke="black" cx="2847.85" cy="-1882" rx="69.59" ry="18"/>
<text text-anchor="middle" x="2847.85" y="-1878.3" font-family="Times,serif" font-size="14.00">Drasil.GProc</text>
</g>
<!-- u1 -->
<g id="node17" class="node">
<title>u1</title>
<ellipse fill="#ffffbb" stroke="black" cx="2652.85" cy="-806" rx="134.58" ry="18"/>
<text text-anchor="middle" x="2652.85" y="-802.3" font-family="Times,serif" font-size="14.00">Drasil.GOOL.CodeInfoProc</text>
</g>
<!-- u0&#45;&gt;u1 -->
<g id="edge1" class="edge">
<title>u0&#45;&gt;u1</title>
<path fill="none" stroke="black" d="M2862.21,-1864.34C2882.42,-1840 2919.01,-1792.54 2938.85,-1746 2969.36,-1674.47 2975.85,-1652.76 2975.85,-1575 2975.85,-1575 2975.85,-1575 2975.85,-1113 2975.85,-964.91 2794.7,-867.01 2703.73,-827.18"/>
<polygon fill="black" stroke="black" points="2704.99,-823.91 2694.42,-823.17 2702.22,-830.34 2704.99,-823.91"/>
</g>
<!-- u8 -->
<g id="node25" class="node">
<title>u8</title>
<ellipse fill="#bbbbff" stroke="black" cx="2702.85" cy="-1728" rx="226.66" ry="18"/>
<text text-anchor="middle" x="2702.85" y="-1724.3" font-family="Times,serif" font-size="14.00">Drasil.GOOL.LanguageRenderer.JuliaRenderer</text>
</g>
<!-- u0&#45;&gt;u8 -->
<g id="edge2" class="edge">
<title>u0&#45;&gt;u8</title>
<path fill="none" stroke="black" d="M2832.06,-1864.44C2806.48,-1837.63 2755.87,-1784.58 2726.15,-1753.42"/>
<polygon fill="black" stroke="black" points="2728.51,-1750.82 2719.07,-1746 2723.44,-1755.65 2728.51,-1750.82"/>
</g>
<!-- u27 -->
<g id="node3" class="node">
<title>u27</title>
<ellipse fill="#ffffbb" stroke="black" cx="273.85" cy="-1421" rx="107.48" ry="18"/>
<text text-anchor="middle" x="273.85" y="-1417.3" font-family="Times,serif" font-size="14.00">Drasil.GOOL.Classes</text>
</g>
<!-- u26 -->
<g id="node4" class="node">
<title>u26</title>
<ellipse fill="#ffffbb" stroke="black" cx="2023.85" cy="-192" rx="133.78" ry="18"/>
<text text-anchor="middle" x="2023.85" y="-188.3" font-family="Times,serif" font-size="14.00">Drasil.GOOL.CodeAnalysis</text>
</g>
<!-- u25 -->
<g id="node5" class="node">
<title>u25</title>
<ellipse fill="#ffffbb" stroke="black" cx="2063.85" cy="-499" rx="155.17" ry="18"/>
<text text-anchor="middle" x="2063.85" y="-495.3" font-family="Times,serif" font-size="14.00">Drasil.GOOL.InterfaceCommon</text>
</g>
<!-- u24 -->
<g id="node6" class="node">
<title>u24</title>
<ellipse fill="#ffffbb" stroke="black" cx="2063.85" cy="-346" rx="96.68" ry="18"/>
<text text-anchor="middle" x="2063.85" y="-342.3" font-family="Times,serif" font-size="14.00">Drasil.GOOL.State</text>
</g>
<!-- u25&#45;&gt;u24 -->
<g id="edge44" class="edge">
<title>u25&#45;&gt;u24</title>
<path fill="none" stroke="black" d="M2063.85,-480.97C2063.85,-455.03 2063.85,-405.36 2063.85,-374.33"/>
<polygon fill="black" stroke="black" points="2067.35,-374.2 2063.85,-364.2 2060.35,-374.2 2067.35,-374.2"/>
</g>
<!-- u24&#45;&gt;u26 -->
<g id="edge43" class="edge">
<title>u24&#45;&gt;u26</title>
<path fill="none" stroke="black" d="M2059.34,-327.86C2052.44,-301.63 2039.2,-251.31 2030.99,-220.1"/>
<polygon fill="black" stroke="black" points="2034.34,-219.09 2028.41,-210.31 2027.57,-220.87 2034.34,-219.09"/>
</g>
<!-- u3 -->
<g id="node15" class="node">
<title>u3</title>
<ellipse fill="#ffffbb" stroke="black" cx="2266.85" cy="-192" rx="90.98" ry="18"/>
<text text-anchor="middle" x="2266.85" y="-188.3" font-family="Times,serif" font-size="14.00">Drasil.GOOL.AST</text>
</g>
<!-- u24&#45;&gt;u3 -->
<g id="edge42" class="edge">
<title>u24&#45;&gt;u3</title>
<path fill="none" stroke="black" d="M2085.96,-328.44C2122.5,-301.09 2195.51,-246.42 2236.73,-215.56"/>
<polygon fill="black" stroke="black" points="2238.86,-218.33 2244.77,-209.54 2234.67,-212.73 2238.86,-218.33"/>
</g>
<!-- u23 -->
<g id="node7" class="node">
<title>u23</title>
<ellipse fill="#ffffbb" stroke="black" cx="1712.85" cy="-653" rx="141.88" ry="18"/>
<text text-anchor="middle" x="1712.85" y="-649.3" font-family="Times,serif" font-size="14.00">Drasil.GOOL.InterfaceGOOL</text>
</g>
<!-- u23&#45;&gt;u25 -->
<g id="edge41" class="edge">
<title>u23&#45;&gt;u25</title>
<path fill="none" stroke="black" d="M1750.75,-635.59C1815.17,-607.69 1945.88,-551.09 2016.32,-520.58"/>
<polygon fill="black" stroke="black" points="2018.06,-523.64 2025.85,-516.46 2015.28,-517.22 2018.06,-523.64"/>
</g>
<!-- u17 -->
<g id="node13" class="node">
<title>u17</title>
<ellipse fill="#ffffbb" stroke="black" cx="2385.85" cy="-499" rx="108.58" ry="18"/>
<text text-anchor="middle" x="2385.85" y="-495.3" font-family="Times,serif" font-size="14.00">Drasil.GOOL.Helpers</text>
</g>
<!-- u23&#45;&gt;u17 -->
<g id="edge40" class="edge">
<title>u23&#45;&gt;u17</title>
<path fill="none" stroke="black" d="M1779.23,-637.01C1906.4,-608.29 2183.41,-545.72 2314.44,-516.13"/>
<polygon fill="black" stroke="black" points="2315.4,-519.5 2324.38,-513.88 2313.85,-512.67 2315.4,-519.5"/>
</g>
<!-- u22 -->
<g id="node8" class="node">
<title>u22</title>
<ellipse fill="#ffffbb" stroke="black" cx="2328.85" cy="-806" rx="171.67" ry="18"/>
<text text-anchor="middle" x="2328.85" y="-802.3" font-family="Times,serif" font-size="14.00">Drasil.GOOL.RendererClassesProc</text>
</g>
<!-- u21 -->
<g id="node9" class="node">
<title>u21</title>
<ellipse fill="#ffffbb" stroke="black" cx="2063.85" cy="-653" rx="191.97" ry="18"/>
<text text-anchor="middle" x="2063.85" y="-649.3" font-family="Times,serif" font-size="14.00">Drasil.GOOL.RendererClassesCommon</text>
</g>
<!-- u22&#45;&gt;u21 -->
<g id="edge39" class="edge">
<title>u22&#45;&gt;u21</title>
<path fill="none" stroke="black" d="M2299.48,-788.26C2251.33,-760.83 2155.62,-706.29 2102.19,-675.84"/>
<polygon fill="black" stroke="black" points="2103.78,-672.72 2093.36,-670.81 2100.31,-678.8 2103.78,-672.72"/>
</g>
<!-- u16 -->
<g id="node14" class="node">
<title>u16</title>
<ellipse fill="#ffffbb" stroke="black" cx="2408.85" cy="-653" rx="135.38" ry="18"/>
<text text-anchor="middle" x="2408.85" y="-649.3" font-family="Times,serif" font-size="14.00">Drasil.GOOL.InterfaceProc</text>
</g>
<!-- u22&#45;&gt;u16 -->
<g id="edge38" class="edge">
<title>u22&#45;&gt;u16</title>
<path fill="none" stroke="black" d="M2337.88,-787.97C2351.8,-761.69 2378.63,-711.05 2395.02,-680.12"/>
<polygon fill="black" stroke="black" points="2398.15,-681.67 2399.74,-671.2 2391.97,-678.4 2398.15,-681.67"/>
</g>
<!-- u21&#45;&gt;u25 -->
<g id="edge37" class="edge">
<title>u21&#45;&gt;u25</title>
<path fill="none" stroke="black" d="M2063.85,-634.86C2063.85,-608.75 2063.85,-558.74 2063.85,-527.51"/>
<polygon fill="black" stroke="black" points="2067.35,-527.31 2063.85,-517.31 2060.35,-527.31 2067.35,-527.31"/>
</g>
<!-- u20 -->
<g id="node10" class="node">
<title>u20</title>
<ellipse fill="#ffffbb" stroke="black" cx="1384.85" cy="-960" rx="161.37" ry="18"/>
<text text-anchor="middle" x="1384.85" y="-956.3" font-family="Times,serif" font-size="14.00">Drasil.GOOL.LanguageRenderer</text>
</g>
<!-- u19 -->
<g id="node11" class="node">
<title>u19</title>
<ellipse fill="#ffffbb" stroke="black" cx="1712.85" cy="-806" rx="165.17" ry="18"/>
<text text-anchor="middle" x="1712.85" y="-802.3" font-family="Times,serif" font-size="14.00">Drasil.GOOL.RendererClassesOO</text>
</g>
<!-- u20&#45;&gt;u19 -->
<g id="edge36" class="edge">
<title>u20&#45;&gt;u19</title>
<path fill="none" stroke="black" d="M1420.58,-942.44C1480.64,-914.61 1601.71,-858.51 1667.61,-827.97"/>
<polygon fill="black" stroke="black" points="1669.32,-831.03 1676.92,-823.65 1666.38,-824.68 1669.32,-831.03"/>
</g>
<!-- u19&#45;&gt;u23 -->
<g id="edge35" class="edge">
<title>u19&#45;&gt;u23</title>
<path fill="none" stroke="black" d="M1712.85,-787.97C1712.85,-762.03 1712.85,-712.36 1712.85,-681.33"/>
<polygon fill="black" stroke="black" points="1716.35,-681.2 1712.85,-671.2 1709.35,-681.2 1716.35,-681.2"/>
</g>
<!-- u19&#45;&gt;u21 -->
<g id="edge34" class="edge">
<title>u19&#45;&gt;u21</title>
<path fill="none" stroke="black" d="M1751.42,-788.41C1815.8,-760.71 1945.02,-705.12 2015.42,-674.83"/>
<polygon fill="black" stroke="black" points="2017.15,-677.9 2024.96,-670.73 2014.39,-671.47 2017.15,-677.9"/>
</g>
<!-- u18 -->
<g id="node12" class="node">
<title>u18</title>
<ellipse fill="#ffffbb" stroke="black" cx="2325.85" cy="-38" rx="118.08" ry="18"/>
<text text-anchor="middle" x="2325.85" y="-34.3" font-family="Times,serif" font-size="14.00">Drasil.GOOL.CodeType</text>
</g>
<!-- u17&#45;&gt;u18 -->
<g id="edge33" class="edge">
<title>u17&#45;&gt;u18</title>
<path fill="none" stroke="black" d="M2386.26,-480.97C2387.12,-432.52 2387.56,-289.93 2366.85,-174 2359.98,-135.51 2345.74,-92.54 2335.99,-65.64"/>
<polygon fill="black" stroke="black" points="2339.24,-64.33 2332.5,-56.15 2332.67,-66.75 2339.24,-64.33"/>
</g>
<!-- u16&#45;&gt;u25 -->
<g id="edge32" class="edge">
<title>u16&#45;&gt;u25</title>
<path fill="none" stroke="black" d="M2371.61,-635.59C2308.37,-607.73 2180.15,-551.24 2110.85,-520.7"/>
<polygon fill="black" stroke="black" points="2112.03,-517.4 2101.47,-516.57 2109.21,-523.81 2112.03,-517.4"/>
</g>
<!-- u3&#45;&gt;u18 -->
<g id="edge6" class="edge">
<title>u3&#45;&gt;u18</title>
<path fill="none" stroke="black" d="M2273.51,-173.86C2283.73,-147.52 2303.39,-96.87 2315.49,-65.69"/>
<polygon fill="black" stroke="black" points="2318.78,-66.9 2319.13,-56.31 2312.25,-64.37 2318.78,-66.9"/>
</g>
<!-- u2&#45;&gt;u23 -->
<g id="edge5" class="edge">
<title>u2&#45;&gt;u23</title>
<path fill="none" stroke="black" d="M437.89,-1249.63C620.64,-1164.26 1463.81,-770.35 1668.16,-674.88"/>
<polygon fill="black" stroke="black" points="1669.82,-677.97 1677.4,-670.56 1666.86,-671.62 1669.82,-677.97"/>
</g>
<!-- u1&#45;&gt;u17 -->
<g id="edge4" class="edge">
<title>u1&#45;&gt;u17</title>
<path fill="none" stroke="black" d="M2645.28,-787.77C2630.56,-755.52 2595.77,-684.8 2552.85,-635 2513.25,-589.05 2456.53,-546.97 2420.44,-522.41"/>
<polygon fill="black" stroke="black" points="2421.99,-519.23 2411.74,-516.55 2418.08,-525.04 2421.99,-519.23"/>
</g>
<!-- u1&#45;&gt;u16 -->
<g id="edge3" class="edge">
<title>u1&#45;&gt;u16</title>
<path fill="none" stroke="black" d="M2625.81,-788.26C2581.66,-760.94 2494.08,-706.74 2444.76,-676.22"/>
<polygon fill="black" stroke="black" points="2446.36,-673.1 2436.02,-670.81 2442.68,-679.05 2446.36,-673.1"/>
</g>
<!-- u15 -->
<g id="node18" class="node">
<title>u15</title>
<ellipse fill="#bbbbff" stroke="black" cx="1244.85" cy="-1421" rx="251.56" ry="18"/>
<text text-anchor="middle" x="1244.85" y="-1417.3" font-family="Times,serif" font-size="14.00">Drasil.GOOL.LanguageRenderer.CommonPseudoOO</text>
</g>
<!-- u14 -->
<g id="node19" class="node">
<title>u14</title>
<ellipse fill="#bbbbff" stroke="black" cx="1244.85" cy="-1267" rx="265.65" ry="18"/>
<text text-anchor="middle" x="1244.85" y="-1263.3" font-family="Times,serif" font-size="14.00">Drasil.GOOL.LanguageRenderer.LanguagePolymorphic</text>
</g>
<!-- u15&#45;&gt;u14 -->
<g id="edge31" class="edge">
<title>u15&#45;&gt;u14</title>
<path fill="none" stroke="black" d="M1244.85,-1402.86C1244.85,-1376.75 1244.85,-1326.74 1244.85,-1295.51"/>
<polygon fill="black" stroke="black" points="1248.35,-1295.31 1244.85,-1285.31 1241.35,-1295.31 1248.35,-1295.31"/>
</g>
<!-- u5 -->
<g id="node28" class="node">
<title>u5</title>
<ellipse fill="#bbbbff" stroke="black" cx="1244.85" cy="-1114" rx="223.66" ry="18"/>
<text text-anchor="middle" x="1244.85" y="-1110.3" font-family="Times,serif" font-size="14.00">Drasil.GOOL.LanguageRenderer.Constructors</text>
</g>
<!-- u14&#45;&gt;u5 -->
<g id="edge30" class="edge">
<title>u14&#45;&gt;u5</title>
<path fill="none" stroke="black" d="M1244.85,-1248.97C1244.85,-1223.03 1244.85,-1173.36 1244.85,-1142.33"/>
<polygon fill="black" stroke="black" points="1248.35,-1142.2 1244.85,-1132.2 1241.35,-1142.2 1248.35,-1142.2"/>
</g>
<!-- u13&#45;&gt;u15 -->
<g id="edge29" class="edge">
<title>u13&#45;&gt;u15</title>
<path fill="none" stroke="black" d="M1243.08,-1555.97C1243.42,-1530.03 1244.08,-1480.36 1244.49,-1449.33"/>
<polygon fill="black" stroke="black" points="1247.99,-1449.24 1244.63,-1439.2 1240.99,-1449.15 1247.99,-1449.24"/>
</g>
<!-- u12 -->
<g id="node21" class="node">
<title>u12</title>
<ellipse fill="#bbbbff" stroke="black" cx="1712.85" cy="-1421" rx="196.87" ry="18"/>
<text text-anchor="middle" x="1712.85" y="-1417.3" font-family="Times,serif" font-size="14.00">Drasil.GOOL.LanguageRenderer.Macros</text>
</g>
<!-- u13&#45;&gt;u12 -->
<g id="edge28" class="edge">
<title>u13&#45;&gt;u12</title>
<path fill="none" stroke="black" d="M1294.5,-1556.41C1382.02,-1528.29 1559.03,-1471.42 1652.26,-1441.47"/>
<polygon fill="black" stroke="black" points="1653.39,-1444.78 1661.84,-1438.39 1651.25,-1438.12 1653.39,-1444.78"/>
</g>
<!-- u6 -->
<g id="node27" class="node">
<title>u6</title>
<ellipse fill="#bbbbff" stroke="black" cx="771.85" cy="-1421" rx="189.27" ry="18"/>
<text text-anchor="middle" x="771.85" y="-1417.3" font-family="Times,serif" font-size="14.00">Drasil.GOOL.LanguageRenderer.CLike</text>
</g>
<!-- u13&#45;&gt;u6 -->
<g id="edge27" class="edge">
<title>u13&#45;&gt;u6</title>
<path fill="none" stroke="black" d="M1191.1,-1556.41C1103.4,-1528.29 926.01,-1471.42 832.57,-1441.47"/>
<polygon fill="black" stroke="black" points="833.57,-1438.11 822.98,-1438.39 831.43,-1444.78 833.57,-1438.11"/>
</g>
<!-- u12&#45;&gt;u19 -->
<g id="edge26" class="edge">
<title>u12&#45;&gt;u19</title>
<path fill="none" stroke="black" d="M1712.85,-1402.97C1712.85,-1317.99 1712.85,-939.85 1712.85,-834.39"/>
<polygon fill="black" stroke="black" points="1716.35,-834.24 1712.85,-824.24 1709.35,-834.24 1716.35,-834.24"/>
</g>
<!-- u11&#45;&gt;u15 -->
<g id="edge25" class="edge">
<title>u11&#45;&gt;u15</title>
<path fill="none" stroke="black" d="M2106.63,-1557.55C1926,-1529.14 1542.39,-1468.8 1353.94,-1439.16"/>
<polygon fill="black" stroke="black" points="1354.44,-1435.69 1344.02,-1437.6 1353.35,-1442.61 1354.44,-1435.69"/>
</g>
<!-- u11&#45;&gt;u12 -->
<g id="edge24" class="edge">
<title>u11&#45;&gt;u12</title>
<path fill="none" stroke="black" d="M2150.79,-1556.41C2059.09,-1528.26 1873.5,-1471.31 1775.98,-1441.38"/>
<polygon fill="black" stroke="black" points="1776.84,-1437.98 1766.26,-1438.39 1774.79,-1444.67 1776.84,-1437.98"/>
</g>
<!-- u10&#45;&gt;u15 -->
<g id="edge23" class="edge">
<title>u10&#45;&gt;u15</title>
<path fill="none" stroke="black" d="M1664.99,-1556.41C1577.33,-1528.36 1400.27,-1471.72 1306.44,-1441.7"/>
<polygon fill="black" stroke="black" points="1307.39,-1438.33 1296.8,-1438.62 1305.26,-1445 1307.39,-1438.33"/>
</g>
<!-- u10&#45;&gt;u12 -->
<g id="edge22" class="edge">
<title>u10&#45;&gt;u12</title>
<path fill="none" stroke="black" d="M1716.4,-1555.97C1715.72,-1530.03 1714.4,-1480.36 1713.58,-1449.33"/>
<polygon fill="black" stroke="black" points="1717.07,-1449.1 1713.31,-1439.2 1710.08,-1449.29 1717.07,-1449.1"/>
</g>
<!-- u10&#45;&gt;u6 -->
<g id="edge21" class="edge">
<title>u10&#45;&gt;u6</title>
<path fill="none" stroke="black" d="M1620.6,-1557.62C1441.38,-1528.98 1058.05,-1467.73 874.26,-1438.36"/>
<polygon fill="black" stroke="black" points="874.75,-1434.9 864.32,-1436.77 873.64,-1441.81 874.75,-1434.9"/>
</g>
<!-- u9 -->
<g id="node24" class="node">
<title>u9</title>
<ellipse fill="#bbbbff" stroke="black" cx="2685.85" cy="-1574" rx="223.66" ry="18"/>
<text text-anchor="middle" x="2685.85" y="-1570.3" font-family="Times,serif" font-size="14.00">Drasil.GOOL.LanguageRenderer.AbstractProc</text>
</g>
<!-- u9&#45;&gt;u22 -->
<g id="edge20" class="edge">
<title>u9&#45;&gt;u22</title>
<path fill="none" stroke="black" d="M2666.8,-1555.84C2620.89,-1512.49 2507.85,-1393.07 2507.85,-1268 2507.85,-1268 2507.85,-1268 2507.85,-1113 2507.85,-993.82 2405.44,-879.86 2355.54,-831.41"/>
<polygon fill="black" stroke="black" points="2357.66,-828.59 2348.01,-824.21 2352.82,-833.65 2357.66,-828.59"/>
</g>
<!-- u9&#45;&gt;u15 -->
<g id="edge19" class="edge">
<title>u9&#45;&gt;u15</title>
<path fill="none" stroke="black" d="M2555.43,-1559.33C2286.49,-1531.15 1671.95,-1466.75 1390.49,-1437.26"/>
<polygon fill="black" stroke="black" points="1390.52,-1433.75 1380.21,-1436.18 1389.79,-1440.71 1390.52,-1433.75"/>
</g>
<!-- u8&#45;&gt;u12 -->
<g id="edge18" class="edge">
<title>u8&#45;&gt;u12</title>
<path fill="none" stroke="black" d="M2756.11,-1710.39C2837.65,-1682.36 2978.1,-1622.2 2918.85,-1556 2852.25,-1481.58 2222.6,-1443.89 1900.58,-1429.34"/>
<polygon fill="black" stroke="black" points="1900.35,-1425.83 1890.2,-1428.88 1900.04,-1432.82 1900.35,-1425.83"/>
</g>
<!-- u8&#45;&gt;u9 -->
<g id="edge17" class="edge">
<title>u8&#45;&gt;u9</title>
<path fill="none" stroke="black" d="M2700.94,-1709.86C2698.02,-1683.75 2692.42,-1633.74 2688.93,-1602.51"/>
<polygon fill="black" stroke="black" points="2692.38,-1601.86 2687.79,-1592.31 2685.42,-1602.64 2692.38,-1601.86"/>
</g>
<!-- u8&#45;&gt;u6 -->
<g id="edge16" class="edge">
<title>u8&#45;&gt;u6</title>
<path fill="none" stroke="black" d="M2481.69,-1723.99C1857.77,-1714.41 123.48,-1679.97 39.85,-1592 -43.61,-1504.2 379.22,-1454.32 617.72,-1433.55"/>
<polygon fill="black" stroke="black" points="618.22,-1437.02 627.88,-1432.68 617.61,-1430.05 618.22,-1437.02"/>
</g>
<!-- u7&#45;&gt;u15 -->
<g id="edge15" class="edge">
<title>u7&#45;&gt;u15</title>
<path fill="none" stroke="black" d="M811.36,-1556.41C901.9,-1528.34 1084.87,-1471.61 1181.6,-1441.61"/>
<polygon fill="black" stroke="black" points="1182.74,-1444.92 1191.25,-1438.62 1180.67,-1438.24 1182.74,-1444.92"/>
</g>
<!-- u7&#45;&gt;u12 -->
<g id="edge14" class="edge">
<title>u7&#45;&gt;u12</title>
<path fill="none" stroke="black" d="M856.01,-1557.48C1037.36,-1528.81 1423.26,-1467.79 1608.88,-1438.44"/>
<polygon fill="black" stroke="black" points="1609.59,-1441.87 1618.92,-1436.85 1608.5,-1434.96 1609.59,-1441.87"/>
</g>
<!-- u7&#45;&gt;u6 -->
<g id="edge13" class="edge">
<title>u7&#45;&gt;u6</title>
<path fill="none" stroke="black" d="M759.43,-1555.97C761.84,-1530.03 766.44,-1480.36 769.32,-1449.33"/>
<polygon fill="black" stroke="black" points="772.82,-1449.48 770.26,-1439.2 765.85,-1448.83 772.82,-1449.48"/>
</g>
<!-- u6&#45;&gt;u5 -->
<g id="edge12" class="edge">
<title>u6&#45;&gt;u5</title>
<path fill="none" stroke="black" d="M788.38,-1403.05C820.9,-1370.32 896.48,-1297.38 969.85,-1249 1042.79,-1200.92 1135.53,-1159.3 1192.51,-1135.7"/>
<polygon fill="black" stroke="black" points="1194.11,-1138.82 1202.03,-1131.78 1191.45,-1132.35 1194.11,-1138.82"/>
</g>
<!-- u5&#45;&gt;u20 -->
<g id="edge11" class="edge">
<title>u5&#45;&gt;u20</title>
<path fill="none" stroke="black" d="M1260.64,-1095.86C1285.43,-1068.95 1333.58,-1016.66 1362.11,-985.7"/>
<polygon fill="black" stroke="black" points="1364.71,-988.04 1368.91,-978.31 1359.56,-983.3 1364.71,-988.04"/>
</g>
<!-- u4&#45;&gt;u27 -->
<g id="edge10" class="edge">
<title>u4&#45;&gt;u27</title>
<path fill="none" stroke="black" d="M273.85,-1555.97C273.85,-1530.03 273.85,-1480.36 273.85,-1449.33"/>
<polygon fill="black" stroke="black" points="277.35,-1449.2 273.85,-1439.2 270.35,-1449.2 277.35,-1449.2"/>
</g>
<!-- u4&#45;&gt;u15 -->
<g id="edge9" class="edge">
<title>u4&#45;&gt;u15</title>
<path fill="none" stroke="black" d="M371.85,-1557.76C554.1,-1529.42 943.95,-1468.79 1134.89,-1439.1"/>
<polygon fill="black" stroke="black" points="1135.6,-1442.53 1144.94,-1437.54 1134.53,-1435.62 1135.6,-1442.53"/>
</g>
<!-- u4&#45;&gt;u12 -->
<g id="edge8" class="edge">
<title>u4&#45;&gt;u12</title>
<path fill="none" stroke="black" d="M404.41,-1559.3C676.86,-1530.71 1303.42,-1464.96 1578.84,-1436.06"/>
<polygon fill="black" stroke="black" points="1579.3,-1439.53 1588.88,-1435.01 1578.57,-1432.57 1579.3,-1439.53"/>
</g>
<!-- u4&#45;&gt;u6 -->
<g id="edge7" class="edge">
<title>u4&#45;&gt;u6</title>
<path fill="none" stroke="black" d="M328.57,-1556.41C421.52,-1528.23 609.74,-1471.16 708.34,-1441.26"/>
<polygon fill="black" stroke="black" points="709.62,-1444.53 718.18,-1438.28 707.59,-1437.83 709.62,-1444.53"/>
</g>
</g>
</svg>
