<?xml version="1.0" encoding="UTF-8" standalone="no"?>
<!DOCTYPE svg PUBLIC "-//W3C//DTD SVG 1.1//EN"
 "http://www.w3.org/Graphics/SVG/1.1/DTD/svg11.dtd">
<!-- Generated by graphviz version 2.43.0 (0)
 -->
<!-- Title: G Pages: 1 -->
<svg width="431pt" height="288pt"
 viewBox="0.00 0.00 431.07 288.00" xmlns="http://www.w3.org/2000/svg" xmlns:xlink="http://www.w3.org/1999/xlink">
<g id="graph0" class="graph" transform="scale(0.25 0.25) rotate(0) translate(4 1134.67)">
<title>G</title>
<polygon fill="white" stroke="transparent" points="-4,4 -4,-1134.67 1700.33,-1134.67 1700.33,4 -4,4"/>
<!-- u8 -->
<g id="node1" class="node">
<title>u8</title>
<ellipse fill="#bbffbb" stroke="black" cx="120.24" cy="-404" rx="120.48" ry="18"/>
<text text-anchor="middle" x="120.24" y="-400.3" font-family="Times,serif" font-size="14.00">Drasil.Website.Analysis</text>
</g>
<!-- u7 -->
<g id="node2" class="node">
<title>u7</title>
<ellipse fill="#bbffbb" stroke="black" cx="947.24" cy="-81" rx="122.38" ry="18"/>
<text text-anchor="middle" x="947.24" y="-77.3" font-family="Times,serif" font-size="14.00">Drasil.Website.Example</text>
</g>
<!-- u6 -->
<g id="node3" class="node">
<title>u6</title>
<ellipse fill="#bbffbb" stroke="black" cx="367.24" cy="-404" rx="108.58" ry="18"/>
<text text-anchor="middle" x="367.24" y="-400.3" font-family="Times,serif" font-size="14.00">Drasil.Website.About</text>
</g>
<!-- u5 -->
<g id="node4" class="node">
<title>u5</title>
<ellipse fill="#bbffbb" stroke="black" cx="646.24" cy="-404" rx="152.17" ry="18"/>
<text text-anchor="middle" x="646.24" y="-400.3" font-family="Times,serif" font-size="14.00">Drasil.Website.Documentation</text>
</g>
<!-- u4 -->
<g id="node5" class="node">
<title>u4</title>
<ellipse fill="#bbffbb" stroke="black" cx="796.24" cy="-727" rx="104.78" ry="18"/>
<text text-anchor="middle" x="796.24" y="-723.3" font-family="Times,serif" font-size="14.00">Drasil.Website.Body</text>
</g>
<!-- u4&#45;&gt;u8 -->
<g id="edge8" class="edge">
<title>u4&#45;&gt;u8</title>
<path fill="none" stroke="black" d="M762.25,-709.86C649.79,-656.46 289.73,-485.48 164.03,-425.8"/>
<polygon fill="black" stroke="black" points="165.23,-422.49 154.7,-421.36 162.23,-428.81 165.23,-422.49"/>
</g>
<!-- u4&#45;&gt;u6 -->
<g id="edge7" class="edge">
<title>u4&#45;&gt;u6</title>
<path fill="none" stroke="black" d="M773.78,-709.19C702.25,-655.67 479.7,-489.15 397.85,-427.91"/>
<polygon fill="black" stroke="black" points="399.58,-424.83 389.48,-421.64 395.39,-430.43 399.58,-424.83"/>
</g>
<!-- u4&#45;&gt;u5 -->
<g id="edge6" class="edge">
<title>u4&#45;&gt;u5</title>
<path fill="none" stroke="black" d="M788.17,-708.74C763.45,-655.84 688.6,-495.65 658.74,-431.74"/>
<polygon fill="black" stroke="black" points="661.75,-429.92 654.34,-422.34 655.41,-432.89 661.75,-429.92"/>
</g>
<!-- u3 -->
<g id="node6" class="node">
<title>u3</title>
<ellipse fill="#bbffbb" stroke="black" cx="947.24" cy="-404" rx="131.08" ry="18"/>
<text text-anchor="middle" x="947.24" y="-400.3" font-family="Times,serif" font-size="14.00">Drasil.Website.CaseStudy</text>
</g>
<!-- u4&#45;&gt;u3 -->
<g id="edge5" class="edge">
<title>u4&#45;&gt;u3</title>
<path fill="none" stroke="black" d="M804.36,-708.74C829.24,-655.84 904.6,-495.65 934.66,-431.74"/>
<polygon fill="black" stroke="black" points="937.99,-432.88 939.08,-422.34 931.66,-429.9 937.99,-432.88"/>
</g>
<!-- u2 -->
<g id="node7" class="node">
<title>u2</title>
<ellipse fill="#bbffbb" stroke="black" cx="1248.24" cy="-404" rx="151.37" ry="18"/>
<text text-anchor="middle" x="1248.24" y="-400.3" font-family="Times,serif" font-size="14.00">Drasil.Website.GettingStarted</text>
</g>
<!-- u4&#45;&gt;u2 -->
<g id="edge4" class="edge">
<title>u4&#45;&gt;u2</title>
<path fill="none" stroke="black" d="M819.59,-709.42C894.65,-656.11 1129.9,-489.04 1216.14,-427.8"/>
<polygon fill="black" stroke="black" points="1218.36,-430.51 1224.49,-421.87 1214.31,-424.81 1218.36,-430.51"/>
</g>
<!-- u1 -->
<g id="node8" class="node">
<title>u1</title>
<ellipse fill="#bbffbb" stroke="black" cx="1557.24" cy="-404" rx="139.18" ry="18"/>
<text text-anchor="middle" x="1557.24" y="-400.3" font-family="Times,serif" font-size="14.00">Drasil.Website.Introduction</text>
</g>
<!-- u4&#45;&gt;u1 -->
<g id="edge3" class="edge">
<title>u4&#45;&gt;u1</title>
<path fill="none" stroke="black" d="M833.72,-710.19C959.76,-657.02 1368.3,-484.7 1509.05,-425.33"/>
<polygon fill="black" stroke="black" points="1510.47,-428.53 1518.32,-421.41 1507.75,-422.08 1510.47,-428.53"/>
</g>
<!-- u3&#45;&gt;u7 -->
<g id="edge2" class="edge">
<title>u3&#45;&gt;u7</title>
<path fill="none" stroke="black" d="M947.24,-385.74C947.24,-333.05 947.24,-173.96 947.24,-109.54"/>
<polygon fill="black" stroke="black" points="950.74,-109.34 947.24,-99.34 943.74,-109.34 950.74,-109.34"/>
</g>
<!-- u0 -->
<g id="node9" class="node">
<title>u0</title>
<ellipse fill="#ffffbb" stroke="black" cx="796.24" cy="-1050" rx="122.38" ry="18"/>
<text text-anchor="middle" x="796.24" y="-1046.3" font-family="Times,serif" font-size="14.00">drasil&#45;website.app.Main</text>
</g>
<!-- u0&#45;&gt;u4 -->
<g id="edge1" class="edge">
<title>u0&#45;&gt;u4</title>
<path fill="none" stroke="black" d="M796.24,-1031.74C796.24,-979.05 796.24,-819.96 796.24,-755.54"/>
<polygon fill="black" stroke="black" points="799.74,-755.34 796.24,-745.34 792.74,-755.34 799.74,-755.34"/>
</g>
</g>
</svg>
