<?xml version="1.0" encoding="UTF-8" standalone="no"?>
<!DOCTYPE svg PUBLIC "-//W3C//DTD SVG 1.1//EN"
 "http://www.w3.org/Graphics/SVG/1.1/DTD/svg11.dtd">
<!-- Generated by graphviz version 2.43.0 (0)
 -->
<!-- Title: G Pages: 1 -->
<svg width="432pt" height="282pt"
 viewBox="0.00 0.00 432.00 282.11" xmlns="http://www.w3.org/2000/svg" xmlns:xlink="http://www.w3.org/1999/xlink">
<g id="graph0" class="graph" transform="scale(10.18 10.18) rotate(0) translate(4 2868.67)">
<title>G</title>
<polygon fill="white" stroke="transparent" points="-4,4 -4,-2868.67 4394.91,-2868.67 4394.91,4 -4,4"/>
<!-- u28 -->
<g id="node1" class="node">
<title>u28</title>
<ellipse fill="#bbffbb" stroke="black" cx="2702.58" cy="-2780" rx="108.58" ry="18"/>
<text text-anchor="middle" x="2702.58" y="-2776.3" font-family="Times,serif" font-size="14.00">Drasil.SRSDocument</text>
</g>
<!-- u15 -->
<g id="node2" class="node">
<title>u15</title>
<ellipse fill="#bbffbb" stroke="black" cx="2702.58" cy="-2443" rx="81.79" ry="18"/>
<text text-anchor="middle" x="2702.58" y="-2439.3" font-family="Times,serif" font-size="14.00">Drasil.DocLang</text>
</g>
<!-- u28&#45;&gt;u15 -->
<g id="edge56" class="edge">
<title>u28&#45;&gt;u15</title>
<path fill="none" stroke="black" d="M2702.58,-2761.93C2702.58,-2707.49 2702.58,-2537.71 2702.58,-2471.16"/>
<polygon fill="black" stroke="black" points="2706.08,-2471.04 2702.58,-2461.04 2699.08,-2471.04 2706.08,-2471.04"/>
</g>
<!-- u1 -->
<g id="node5" class="node">
<title>u1</title>
<ellipse fill="#bbffbb" stroke="black" cx="2385.58" cy="-2106" rx="133.78" ry="18"/>
<text text-anchor="middle" x="2385.58" y="-2102.3" font-family="Times,serif" font-size="14.00">Drasil.DocumentLanguage</text>
</g>
<!-- u15&#45;&gt;u1 -->
<g id="edge31" class="edge">
<title>u15&#45;&gt;u1</title>
<path fill="none" stroke="black" d="M2686.42,-2424.93C2634.16,-2369.71 2469.59,-2195.79 2408.61,-2131.34"/>
<polygon fill="black" stroke="black" points="2411.11,-2128.9 2401.7,-2124.04 2406.03,-2133.71 2411.11,-2128.9"/>
</g>
<!-- u6 -->
<g id="node16" class="node">
<title>u6</title>
<ellipse fill="#ffbbbb" stroke="black" cx="3892.58" cy="-2106" rx="276.75" ry="18"/>
<text text-anchor="middle" x="3892.58" y="-2102.3" font-family="Times,serif" font-size="14.00">Drasil.DocumentLanguage.Notebook.DocumentLanguage</text>
</g>
<!-- u15&#45;&gt;u6 -->
<g id="edge32" class="edge">
<title>u15&#45;&gt;u6</title>
<path fill="none" stroke="black" d="M2751.07,-2428.35C2937.25,-2375.93 3606.66,-2187.49 3823.94,-2126.32"/>
<polygon fill="black" stroke="black" points="3824.96,-2129.67 3833.63,-2123.59 3823.06,-2122.93 3824.96,-2129.67"/>
</g>
<!-- u14 -->
<g id="node3" class="node">
<title>u14</title>
<ellipse fill="#bbffbb" stroke="black" cx="1363.58" cy="-1769" rx="116.18" ry="18"/>
<text text-anchor="middle" x="1363.58" y="-1765.3" font-family="Times,serif" font-size="14.00">Drasil.ExtractDocDesc</text>
</g>
<!-- u9 -->
<g id="node10" class="node">
<title>u9</title>
<ellipse fill="#bbbbff" stroke="black" cx="413.58" cy="-1095" rx="159.47" ry="18"/>
<text text-anchor="middle" x="413.58" y="-1091.3" font-family="Times,serif" font-size="14.00">Drasil.DocumentLanguage.Core</text>
</g>
<!-- u14&#45;&gt;u9 -->
<g id="edge29" class="edge">
<title>u14&#45;&gt;u9</title>
<path fill="none" stroke="black" d="M1266.43,-1758.98C993.86,-1731.45 232.11,-1638.71 84.58,-1450 -21.11,-1314.83 252,-1169.72 366.16,-1116.8"/>
<polygon fill="black" stroke="black" points="367.77,-1119.91 375.4,-1112.56 364.85,-1113.55 367.77,-1119.91"/>
</g>
<!-- u23 -->
<g id="node22" class="node">
<title>u23</title>
<ellipse fill="#bbffff" stroke="black" cx="1634.58" cy="-1432" rx="207.96" ry="18"/>
<text text-anchor="middle" x="1634.58" y="-1428.3" font-family="Times,serif" font-size="14.00">Drasil.Sections.SpecificSystemDescription</text>
</g>
<!-- u14&#45;&gt;u23 -->
<g id="edge30" class="edge">
<title>u14&#45;&gt;u23</title>
<path fill="none" stroke="black" d="M1377.39,-1750.93C1421.88,-1695.93 1561.61,-1523.2 1614.24,-1458.13"/>
<polygon fill="black" stroke="black" points="1617.22,-1460.01 1620.79,-1450.04 1611.78,-1455.61 1617.22,-1460.01"/>
</g>
<!-- u10 -->
<g id="node4" class="node">
<title>u10</title>
<ellipse fill="#bbffbb" stroke="black" cx="886.58" cy="-1769" rx="79.09" ry="18"/>
<text text-anchor="middle" x="886.58" y="-1765.3" font-family="Times,serif" font-size="14.00">Drasil.DocDecl</text>
</g>
<!-- u10&#45;&gt;u9 -->
<g id="edge20" class="edge">
<title>u10&#45;&gt;u9</title>
<path fill="none" stroke="black" d="M808.5,-1765.62C636.71,-1755.66 227.31,-1704.97 51.58,-1450 -49.69,-1303.07 237.28,-1166.57 360.43,-1116.34"/>
<polygon fill="black" stroke="black" points="362.11,-1119.44 370.07,-1112.45 359.49,-1112.95 362.11,-1119.44"/>
</g>
<!-- u17 -->
<g id="node28" class="node">
<title>u17</title>
<ellipse fill="#bbffff" stroke="black" cx="886.58" cy="-1432" rx="149.47" ry="18"/>
<text text-anchor="middle" x="886.58" y="-1428.3" font-family="Times,serif" font-size="14.00">Drasil.Sections.Requirements</text>
</g>
<!-- u10&#45;&gt;u17 -->
<g id="edge21" class="edge">
<title>u10&#45;&gt;u17</title>
<path fill="none" stroke="black" d="M886.58,-1750.93C886.58,-1696.49 886.58,-1526.71 886.58,-1460.16"/>
<polygon fill="black" stroke="black" points="890.08,-1460.04 886.58,-1450.04 883.08,-1460.04 890.08,-1460.04"/>
</g>
<!-- u1&#45;&gt;u14 -->
<g id="edge6" class="edge">
<title>u1&#45;&gt;u14</title>
<path fill="none" stroke="black" d="M2337.31,-2089.18C2168.11,-2033.72 1602.28,-1848.25 1420.4,-1788.63"/>
<polygon fill="black" stroke="black" points="1421.35,-1785.25 1410.75,-1785.46 1419.17,-1791.91 1421.35,-1785.25"/>
</g>
<!-- u1&#45;&gt;u10 -->
<g id="edge4" class="edge">
<title>u1&#45;&gt;u10</title>
<path fill="none" stroke="black" d="M2319.72,-2090.28C2071.7,-2034.86 1195.71,-1839.09 950.68,-1784.33"/>
<polygon fill="black" stroke="black" points="951.38,-1780.9 940.86,-1782.13 949.85,-1787.73 951.38,-1780.9"/>
</g>
<!-- u0 -->
<g id="node6" class="node">
<title>u0</title>
<ellipse fill="#bbffbb" stroke="black" cx="343.58" cy="-1769" rx="92.08" ry="18"/>
<text text-anchor="middle" x="343.58" y="-1765.3" font-family="Times,serif" font-size="14.00">Drasil.TraceTable</text>
</g>
<!-- u1&#45;&gt;u0 -->
<g id="edge2" class="edge">
<title>u1&#45;&gt;u0</title>
<path fill="none" stroke="black" d="M2304.27,-2091.66C1975.34,-2037.7 745.45,-1835.93 421.95,-1782.86"/>
<polygon fill="black" stroke="black" points="422.17,-1779.35 411.73,-1781.18 421.03,-1786.25 422.17,-1779.35"/>
</g>
<!-- u11 -->
<g id="node9" class="node">
<title>u11</title>
<ellipse fill="#ffffbb" stroke="black" cx="1634.58" cy="-1769" rx="136.48" ry="18"/>
<text text-anchor="middle" x="1634.58" y="-1765.3" font-family="Times,serif" font-size="14.00">Drasil.DocLang.References</text>
</g>
<!-- u1&#45;&gt;u11 -->
<g id="edge5" class="edge">
<title>u1&#45;&gt;u11</title>
<path fill="none" stroke="black" d="M2348.84,-2088.62C2224.32,-2033.07 1818.29,-1851.95 1680.67,-1790.56"/>
<polygon fill="black" stroke="black" points="1681.79,-1787.23 1671.24,-1786.35 1678.94,-1793.62 1681.79,-1787.23"/>
</g>
<!-- u3 -->
<g id="node13" class="node">
<title>u3</title>
<ellipse fill="#bbbbff" stroke="black" cx="2260.58" cy="-1769" rx="220.96" ry="18"/>
<text text-anchor="middle" x="2260.58" y="-1765.3" font-family="Times,serif" font-size="14.00">Drasil.DocumentLanguage.TraceabilityGraph</text>
</g>
<!-- u1&#45;&gt;u3 -->
<g id="edge3" class="edge">
<title>u1&#45;&gt;u3</title>
<path fill="none" stroke="black" d="M2379.2,-2087.93C2358.85,-2033.38 2295.28,-1863.01 2270.56,-1796.75"/>
<polygon fill="black" stroke="black" points="2273.71,-1795.18 2266.93,-1787.04 2267.15,-1797.63 2273.71,-1795.18"/>
</g>
<!-- u27 -->
<g id="node18" class="node">
<title>u27</title>
<ellipse fill="#bbffff" stroke="black" cx="2479.58" cy="-1432" rx="161.37" ry="18"/>
<text text-anchor="middle" x="2479.58" y="-1428.3" font-family="Times,serif" font-size="14.00">Drasil.Sections.TableOfContents</text>
</g>
<!-- u1&#45;&gt;u27 -->
<g id="edge10" class="edge">
<title>u1&#45;&gt;u27</title>
<path fill="none" stroke="black" d="M2393.39,-2087.91C2414.33,-2041.05 2471.42,-1906.11 2490.58,-1787 2509.97,-1666.41 2492.64,-1519.83 2483.91,-1460.19"/>
<polygon fill="black" stroke="black" points="2487.34,-1459.46 2482.38,-1450.1 2480.41,-1460.51 2487.34,-1459.46"/>
</g>
<!-- u22 -->
<g id="node23" class="node">
<title>u22</title>
<ellipse fill="#bbffff" stroke="black" cx="2821.58" cy="-1432" rx="163.27" ry="18"/>
<text text-anchor="middle" x="2821.58" y="-1428.3" font-family="Times,serif" font-size="14.00">Drasil.Sections.GeneralSystDesc</text>
</g>
<!-- u1&#45;&gt;u22 -->
<g id="edge9" class="edge">
<title>u1&#45;&gt;u22</title>
<path fill="none" stroke="black" d="M2396.57,-2088.05C2455.47,-1997.27 2733.61,-1568.57 2804.9,-1458.7"/>
<polygon fill="black" stroke="black" points="2807.9,-1460.5 2810.41,-1450.21 2802.03,-1456.69 2807.9,-1460.5"/>
</g>
<!-- u21 -->
<g id="node24" class="node">
<title>u21</title>
<ellipse fill="#bbffff" stroke="black" cx="3544.58" cy="-1432" rx="141.88" ry="18"/>
<text text-anchor="middle" x="3544.58" y="-1428.3" font-family="Times,serif" font-size="14.00">Drasil.Sections.Introduction</text>
</g>
<!-- u1&#45;&gt;u21 -->
<g id="edge8" class="edge">
<title>u1&#45;&gt;u21</title>
<path fill="none" stroke="black" d="M2414.22,-2088.39C2571.49,-1997.2 3329.26,-1557.84 3507.14,-1454.7"/>
<polygon fill="black" stroke="black" points="3508.99,-1457.68 3515.89,-1449.63 3505.48,-1451.62 3508.99,-1457.68"/>
</g>
<!-- u16 -->
<g id="node29" class="node">
<title>u16</title>
<ellipse fill="#bbffff" stroke="black" cx="3422.58" cy="-1769" rx="144.87" ry="18"/>
<text text-anchor="middle" x="3422.58" y="-1765.3" font-family="Times,serif" font-size="14.00">Drasil.Sections.Stakeholders</text>
</g>
<!-- u1&#45;&gt;u16 -->
<g id="edge7" class="edge">
<title>u1&#45;&gt;u16</title>
<path fill="none" stroke="black" d="M2434.55,-2089.18C2605.82,-2033.85 3177.64,-1849.13 3363.6,-1789.05"/>
<polygon fill="black" stroke="black" points="3364.76,-1792.35 3373.2,-1785.95 3362.61,-1785.69 3364.76,-1792.35"/>
</g>
<!-- u0&#45;&gt;u9 -->
<g id="edge1" class="edge">
<title>u0&#45;&gt;u9</title>
<path fill="none" stroke="black" d="M306.21,-1752.42C204.86,-1707.7 -62.64,-1571.97 13.58,-1414 87.69,-1260.39 276.07,-1158.16 365.3,-1116.76"/>
<polygon fill="black" stroke="black" points="367.01,-1119.83 374.64,-1112.48 364.1,-1113.46 367.01,-1119.83"/>
</g>
<!-- u13 -->
<g id="node7" class="node">
<title>u13</title>
<ellipse fill="#ffffbb" stroke="black" cx="2876.58" cy="-1095" rx="104.78" ry="18"/>
<text text-anchor="middle" x="2876.58" y="-1091.3" font-family="Times,serif" font-size="14.00">Drasil.DocLang.SRS</text>
</g>
<!-- u12 -->
<g id="node8" class="node">
<title>u12</title>
<ellipse fill="#ffffbb" stroke="black" cx="4261.58" cy="-1769" rx="129.18" ry="18"/>
<text text-anchor="middle" x="4261.58" y="-1765.3" font-family="Times,serif" font-size="14.00">Drasil.DocLang.Notebook</text>
</g>
<!-- u26 -->
<g id="node19" class="node">
<title>u26</title>
<ellipse fill="#bbffff" stroke="black" cx="3174.58" cy="-1432" rx="172.47" ry="18"/>
<text text-anchor="middle" x="3174.58" y="-1428.3" font-family="Times,serif" font-size="14.00">Drasil.Sections.AuxiliaryConstants</text>
</g>
<!-- u11&#45;&gt;u26 -->
<g id="edge28" class="edge">
<title>u11&#45;&gt;u26</title>
<path fill="none" stroke="black" d="M1702.23,-1753.28C1952.12,-1698.92 2822.57,-1509.57 3093.46,-1450.64"/>
<polygon fill="black" stroke="black" points="3094.59,-1453.98 3103.61,-1448.44 3093.1,-1447.14 3094.59,-1453.98"/>
</g>
<!-- u25 -->
<g id="node20" class="node">
<title>u25</title>
<ellipse fill="#bbffff" stroke="black" cx="1231.58" cy="-1432" rx="177.37" ry="18"/>
<text text-anchor="middle" x="1231.58" y="-1428.3" font-family="Times,serif" font-size="14.00">Drasil.Sections.TraceabilityMandGs</text>
</g>
<!-- u11&#45;&gt;u25 -->
<g id="edge27" class="edge">
<title>u11&#45;&gt;u25</title>
<path fill="none" stroke="black" d="M1614.31,-1751.16C1547.94,-1695.98 1336.9,-1520.55 1259.98,-1456.61"/>
<polygon fill="black" stroke="black" points="1262.04,-1453.78 1252.12,-1450.08 1257.57,-1459.16 1262.04,-1453.78"/>
</g>
<!-- u11&#45;&gt;u23 -->
<g id="edge26" class="edge">
<title>u11&#45;&gt;u23</title>
<path fill="none" stroke="black" d="M1634.58,-1750.93C1634.58,-1696.49 1634.58,-1526.71 1634.58,-1460.16"/>
<polygon fill="black" stroke="black" points="1638.08,-1460.04 1634.58,-1450.04 1631.08,-1460.04 1638.08,-1460.04"/>
</g>
<!-- u20 -->
<g id="node25" class="node">
<title>u20</title>
<ellipse fill="#bbffff" stroke="black" cx="574.58" cy="-1432" rx="144.87" ry="18"/>
<text text-anchor="middle" x="574.58" y="-1428.3" font-family="Times,serif" font-size="14.00">Drasil.Sections.TableOfUnits</text>
</g>
<!-- u11&#45;&gt;u20 -->
<g id="edge25" class="edge">
<title>u11&#45;&gt;u20</title>
<path fill="none" stroke="black" d="M1584.52,-1752.18C1409.36,-1696.82 824.36,-1511.94 634.58,-1451.96"/>
<polygon fill="black" stroke="black" points="635.63,-1448.63 625.04,-1448.95 633.52,-1455.3 635.63,-1448.63"/>
</g>
<!-- u19 -->
<g id="node26" class="node">
<title>u19</title>
<ellipse fill="#bbffff" stroke="black" cx="252.58" cy="-1432" rx="159.47" ry="18"/>
<text text-anchor="middle" x="252.58" y="-1428.3" font-family="Times,serif" font-size="14.00">Drasil.Sections.TableOfSymbols</text>
</g>
<!-- u11&#45;&gt;u19 -->
<g id="edge24" class="edge">
<title>u11&#45;&gt;u19</title>
<path fill="none" stroke="black" d="M1572.51,-1752.95C1346.9,-1698.27 570.81,-1510.14 326.69,-1450.97"/>
<polygon fill="black" stroke="black" points="327.39,-1447.54 316.85,-1448.58 325.75,-1454.34 327.39,-1447.54"/>
</g>
<!-- u18 -->
<g id="node27" class="node">
<title>u18</title>
<ellipse fill="#bbffff" stroke="black" cx="2061.58" cy="-1432" rx="201.46" ry="18"/>
<text text-anchor="middle" x="2061.58" y="-1428.3" font-family="Times,serif" font-size="14.00">Drasil.Sections.TableOfAbbAndAcronyms</text>
</g>
<!-- u11&#45;&gt;u18 -->
<g id="edge23" class="edge">
<title>u11&#45;&gt;u18</title>
<path fill="none" stroke="black" d="M1656.04,-1751.16C1726.37,-1695.98 1949.98,-1520.55 2031.48,-1456.61"/>
<polygon fill="black" stroke="black" points="2034.1,-1459 2039.81,-1450.08 2029.78,-1453.49 2034.1,-1459"/>
</g>
<!-- u11&#45;&gt;u17 -->
<g id="edge22" class="edge">
<title>u11&#45;&gt;u17</title>
<path fill="none" stroke="black" d="M1597.99,-1751.62C1474.11,-1696.13 1070.49,-1515.37 932.96,-1453.78"/>
<polygon fill="black" stroke="black" points="934.09,-1450.44 923.53,-1449.55 931.23,-1456.83 934.09,-1450.44"/>
</g>
<!-- u8 -->
<g id="node11" class="node">
<title>u8</title>
<ellipse fill="#bbbbff" stroke="black" cx="562.58" cy="-758" rx="223.66" ry="18"/>
<text text-anchor="middle" x="562.58" y="-754.3" font-family="Times,serif" font-size="14.00">Drasil.DocumentLanguage.TraceabilityMatrix</text>
</g>
<!-- u9&#45;&gt;u8 -->
<g id="edge19" class="edge">
<title>u9&#45;&gt;u8</title>
<path fill="none" stroke="black" d="M421.17,-1076.93C445.48,-1022.27 521.52,-851.31 550.86,-785.34"/>
<polygon fill="black" stroke="black" points="554.13,-786.6 555,-776.04 547.73,-783.75 554.13,-786.6"/>
</g>
<!-- u4 -->
<g id="node12" class="node">
<title>u4</title>
<ellipse fill="#bbbbff" stroke="black" cx="1634.58" cy="-421" rx="187.37" ry="18"/>
<text text-anchor="middle" x="1634.58" y="-417.3" font-family="Times,serif" font-size="14.00">Drasil.DocumentLanguage.Definitions</text>
</g>
<!-- u8&#45;&gt;u4 -->
<g id="edge18" class="edge">
<title>u8&#45;&gt;u4</title>
<path fill="none" stroke="black" d="M615.37,-740.5C794.73,-684.45 1380.15,-501.51 1572.62,-441.36"/>
<polygon fill="black" stroke="black" points="1573.8,-444.66 1582.3,-438.34 1571.71,-437.98 1573.8,-444.66"/>
</g>
<!-- u2 -->
<g id="node14" class="node">
<title>u2</title>
<ellipse fill="#bbbbff" stroke="black" cx="1634.58" cy="-84" rx="162.47" ry="18"/>
<text text-anchor="middle" x="1634.58" y="-80.3" font-family="Times,serif" font-size="14.00">Drasil.DocumentLanguage.Units</text>
</g>
<!-- u4&#45;&gt;u2 -->
<g id="edge14" class="edge">
<title>u4&#45;&gt;u2</title>
<path fill="none" stroke="black" d="M1634.58,-402.93C1634.58,-348.49 1634.58,-178.71 1634.58,-112.16"/>
<polygon fill="black" stroke="black" points="1638.08,-112.04 1634.58,-102.04 1631.08,-112.04 1638.08,-112.04"/>
</g>
<!-- u3&#45;&gt;u13 -->
<g id="edge11" class="edge">
<title>u3&#45;&gt;u13</title>
<path fill="none" stroke="black" d="M2367.82,-1753.21C2619.36,-1716.1 3235.15,-1610.38 3355.58,-1450 3482.46,-1281.03 3101.57,-1156.26 2942.7,-1112.78"/>
<polygon fill="black" stroke="black" points="2943.59,-1109.4 2933.02,-1110.16 2941.76,-1116.15 2943.59,-1109.4"/>
</g>
<!-- u3&#45;&gt;u25 -->
<g id="edge13" class="edge">
<title>u3&#45;&gt;u25</title>
<path fill="none" stroke="black" d="M2209.55,-1751.39C2037.04,-1695.23 1476.1,-1512.61 1291.25,-1452.43"/>
<polygon fill="black" stroke="black" points="1292.29,-1449.09 1281.7,-1449.32 1290.12,-1455.74 1292.29,-1449.09"/>
</g>
<!-- u24 -->
<g id="node21" class="node">
<title>u24</title>
<ellipse fill="#bbffff" stroke="black" cx="2061.58" cy="-1095" rx="170.07" ry="18"/>
<text text-anchor="middle" x="2061.58" y="-1091.3" font-family="Times,serif" font-size="14.00">Drasil.Sections.ReferenceMaterial</text>
</g>
<!-- u3&#45;&gt;u24 -->
<g id="edge12" class="edge">
<title>u3&#45;&gt;u24</title>
<path fill="none" stroke="black" d="M2264.85,-1750.92C2277.07,-1698.93 2308.99,-1538.55 2271.58,-1414 2234.45,-1290.4 2131.97,-1170.53 2085.29,-1120.47"/>
<polygon fill="black" stroke="black" points="2087.7,-1117.92 2078.3,-1113.04 2082.61,-1122.72 2087.7,-1117.92"/>
</g>
<!-- u7 -->
<g id="node15" class="node">
<title>u7</title>
<ellipse fill="#ffbbbb" stroke="black" cx="3948.58" cy="-1432" rx="206.06" ry="18"/>
<text text-anchor="middle" x="3948.58" y="-1428.3" font-family="Times,serif" font-size="14.00">Drasil.DocumentLanguage.Notebook.Core</text>
</g>
<!-- u6&#45;&gt;u12 -->
<g id="edge17" class="edge">
<title>u6&#45;&gt;u12</title>
<path fill="none" stroke="black" d="M3911.38,-2087.93C3972.33,-2032.59 4164.55,-1858.08 4235.2,-1793.95"/>
<polygon fill="black" stroke="black" points="4237.76,-1796.35 4242.81,-1787.04 4233.05,-1791.17 4237.76,-1796.35"/>
</g>
<!-- u5 -->
<g id="node17" class="node">
<title>u5</title>
<ellipse fill="#ffbbbb" stroke="black" cx="3892.58" cy="-1769" rx="221.76" ry="18"/>
<text text-anchor="middle" x="3892.58" y="-1765.3" font-family="Times,serif" font-size="14.00">Drasil.DocumentLanguage.Notebook.LsnDecl</text>
</g>
<!-- u6&#45;&gt;u5 -->
<g id="edge16" class="edge">
<title>u6&#45;&gt;u5</title>
<path fill="none" stroke="black" d="M3892.58,-2087.93C3892.58,-2033.49 3892.58,-1863.71 3892.58,-1797.16"/>
<polygon fill="black" stroke="black" points="3896.08,-1797.04 3892.58,-1787.04 3889.08,-1797.04 3896.08,-1797.04"/>
</g>
<!-- u5&#45;&gt;u7 -->
<g id="edge15" class="edge">
<title>u5&#45;&gt;u7</title>
<path fill="none" stroke="black" d="M3895.43,-1750.93C3904.53,-1696.49 3932.91,-1526.71 3944.04,-1460.16"/>
<polygon fill="black" stroke="black" points="3947.53,-1460.48 3945.73,-1450.04 3940.63,-1459.32 3947.53,-1460.48"/>
</g>
<!-- u27&#45;&gt;u13 -->
<g id="edge55" class="edge">
<title>u27&#45;&gt;u13</title>
<path fill="none" stroke="black" d="M2499.81,-1413.93C2565.52,-1358.48 2773.03,-1183.37 2848.65,-1119.56"/>
<polygon fill="black" stroke="black" points="2851,-1122.16 2856.38,-1113.04 2846.48,-1116.81 2851,-1122.16"/>
</g>
<!-- u27&#45;&gt;u9 -->
<g id="edge54" class="edge">
<title>u27&#45;&gt;u9</title>
<path fill="none" stroke="black" d="M2392.12,-1416.82C2057.68,-1362.59 860.94,-1168.54 510.59,-1111.73"/>
<polygon fill="black" stroke="black" points="510.91,-1108.24 500.48,-1110.09 509.79,-1115.15 510.91,-1108.24"/>
</g>
<!-- u26&#45;&gt;u13 -->
<g id="edge52" class="edge">
<title>u26&#45;&gt;u13</title>
<path fill="none" stroke="black" d="M3159.39,-1413.93C3110.36,-1358.82 2956.19,-1185.5 2898.58,-1120.73"/>
<polygon fill="black" stroke="black" points="2900.99,-1118.18 2891.73,-1113.04 2895.76,-1122.84 2900.99,-1118.18"/>
</g>
<!-- u26&#45;&gt;u2 -->
<g id="edge51" class="edge">
<title>u26&#45;&gt;u2</title>
<path fill="none" stroke="black" d="M3168.88,-1413.87C3150.23,-1359.68 3086.66,-1188.95 2990.58,-1077 2568.09,-584.74 1856.29,-199.11 1676.7,-106.35"/>
<polygon fill="black" stroke="black" points="1678.07,-103.11 1667.57,-101.65 1674.86,-109.34 1678.07,-103.11"/>
</g>
<!-- u26&#45;&gt;u24 -->
<g id="edge53" class="edge">
<title>u26&#45;&gt;u24</title>
<path fill="none" stroke="black" d="M3120.89,-1414.84C2935.67,-1359.09 2323.84,-1174.94 2124.77,-1115.02"/>
<polygon fill="black" stroke="black" points="2125.63,-1111.62 2115.04,-1112.09 2123.61,-1118.33 2125.63,-1111.62"/>
</g>
<!-- u25&#45;&gt;u9 -->
<g id="edge50" class="edge">
<title>u25&#45;&gt;u9</title>
<path fill="none" stroke="black" d="M1191.01,-1414.39C1054.58,-1358.51 612.52,-1177.48 463.3,-1116.36"/>
<polygon fill="black" stroke="black" points="464.48,-1113.07 453.9,-1112.51 461.83,-1119.54 464.48,-1113.07"/>
</g>
<!-- u23&#45;&gt;u13 -->
<g id="edge48" class="edge">
<title>u23&#45;&gt;u13</title>
<path fill="none" stroke="black" d="M1694.9,-1414.73C1904.23,-1358.27 2598.22,-1171.08 2812.79,-1113.2"/>
<polygon fill="black" stroke="black" points="2813.9,-1116.53 2822.65,-1110.55 2812.08,-1109.77 2813.9,-1116.53"/>
</g>
<!-- u23&#45;&gt;u4 -->
<g id="edge47" class="edge">
<title>u23&#45;&gt;u4</title>
<path fill="none" stroke="black" d="M1634.58,-1413.91C1634.58,-1295.42 1634.58,-596.55 1634.58,-449.25"/>
<polygon fill="black" stroke="black" points="1638.08,-449.24 1634.58,-439.24 1631.08,-449.24 1638.08,-449.24"/>
</g>
<!-- u23&#45;&gt;u24 -->
<g id="edge49" class="edge">
<title>u23&#45;&gt;u24</title>
<path fill="none" stroke="black" d="M1656.34,-1413.93C1727.01,-1358.48 1950.21,-1183.37 2031.54,-1119.56"/>
<polygon fill="black" stroke="black" points="2034.15,-1121.97 2039.86,-1113.04 2029.83,-1116.46 2034.15,-1121.97"/>
</g>
<!-- u22&#45;&gt;u13 -->
<g id="edge45" class="edge">
<title>u22&#45;&gt;u13</title>
<path fill="none" stroke="black" d="M2824.38,-1413.93C2833.32,-1359.49 2861.19,-1189.71 2872.12,-1123.16"/>
<polygon fill="black" stroke="black" points="2875.61,-1123.47 2873.78,-1113.04 2868.7,-1122.34 2875.61,-1123.47"/>
</g>
<!-- u22&#45;&gt;u24 -->
<g id="edge46" class="edge">
<title>u22&#45;&gt;u24</title>
<path fill="none" stroke="black" d="M2783.89,-1414.39C2657.4,-1358.63 2248.18,-1178.25 2108.67,-1116.76"/>
<polygon fill="black" stroke="black" points="2110.05,-1113.54 2099.49,-1112.71 2107.23,-1119.95 2110.05,-1113.54"/>
</g>
<!-- u21&#45;&gt;u13 -->
<g id="edge43" class="edge">
<title>u21&#45;&gt;u13</title>
<path fill="none" stroke="black" d="M3511.45,-1414.39C3400.35,-1358.67 3041.09,-1178.5 2918.23,-1116.89"/>
<polygon fill="black" stroke="black" points="2919.62,-1113.67 2909.11,-1112.32 2916.48,-1119.93 2919.62,-1113.67"/>
</g>
<!-- u21&#45;&gt;u4 -->
<g id="edge42" class="edge">
<title>u21&#45;&gt;u4</title>
<path fill="none" stroke="black" d="M3520.63,-1414.24C3444.83,-1361.5 3202.59,-1195.39 2990.58,-1077 2492.99,-799.13 1859.59,-519.55 1682.47,-442.65"/>
<polygon fill="black" stroke="black" points="1683.73,-439.39 1673.16,-438.62 1680.94,-445.81 1683.73,-439.39"/>
</g>
<!-- u21&#45;&gt;u24 -->
<g id="edge44" class="edge">
<title>u21&#45;&gt;u24</title>
<path fill="none" stroke="black" d="M3478.46,-1416.06C3236.64,-1361.44 2400.81,-1172.63 2139.97,-1113.71"/>
<polygon fill="black" stroke="black" points="2140.72,-1110.29 2130.19,-1111.5 2139.18,-1117.12 2140.72,-1110.29"/>
</g>
<!-- u20&#45;&gt;u9 -->
<g id="edge40" class="edge">
<title>u20&#45;&gt;u9</title>
<path fill="none" stroke="black" d="M566.37,-1413.93C540.1,-1359.27 457.94,-1188.31 426.23,-1122.34"/>
<polygon fill="black" stroke="black" points="429.25,-1120.54 421.76,-1113.04 422.94,-1123.57 429.25,-1120.54"/>
</g>
<!-- u20&#45;&gt;u24 -->
<g id="edge41" class="edge">
<title>u20&#45;&gt;u24</title>
<path fill="none" stroke="black" d="M641.36,-1415.95C884.48,-1361.18 1721.78,-1172.55 1983.05,-1113.69"/>
<polygon fill="black" stroke="black" points="1983.86,-1117.1 1992.85,-1111.48 1982.32,-1110.27 1983.86,-1117.1"/>
</g>
<!-- u19&#45;&gt;u9 -->
<g id="edge38" class="edge">
<title>u19&#45;&gt;u9</title>
<path fill="none" stroke="black" d="M260.78,-1413.93C287.05,-1359.27 369.21,-1188.31 400.92,-1122.34"/>
<polygon fill="black" stroke="black" points="404.21,-1123.57 405.39,-1113.04 397.9,-1120.54 404.21,-1123.57"/>
</g>
<!-- u19&#45;&gt;u24 -->
<g id="edge39" class="edge">
<title>u19&#45;&gt;u24</title>
<path fill="none" stroke="black" d="M331.76,-1416.34C626.4,-1361.77 1658.4,-1170.66 1971.1,-1112.76"/>
<polygon fill="black" stroke="black" points="1971.83,-1116.18 1981.03,-1110.92 1970.56,-1109.3 1971.83,-1116.18"/>
</g>
<!-- u18&#45;&gt;u24 -->
<g id="edge37" class="edge">
<title>u18&#45;&gt;u24</title>
<path fill="none" stroke="black" d="M2061.58,-1413.93C2061.58,-1359.49 2061.58,-1189.71 2061.58,-1123.16"/>
<polygon fill="black" stroke="black" points="2065.08,-1123.04 2061.58,-1113.04 2058.08,-1123.04 2065.08,-1123.04"/>
</g>
<!-- u17&#45;&gt;u13 -->
<g id="edge35" class="edge">
<title>u17&#45;&gt;u13</title>
<path fill="none" stroke="black" d="M969.86,-1416.98C1294.33,-1362.36 2471.67,-1164.16 2794.32,-1109.85"/>
<polygon fill="black" stroke="black" points="2795.25,-1113.24 2804.53,-1108.13 2794.08,-1106.34 2795.25,-1113.24"/>
</g>
<!-- u17&#45;&gt;u2 -->
<g id="edge34" class="edge">
<title>u17&#45;&gt;u2</title>
<path fill="none" stroke="black" d="M895.3,-1413.84C945.77,-1314.8 1206.03,-806.74 1438.58,-403 1502.22,-292.5 1583.72,-164.15 1618.11,-110.55"/>
<polygon fill="black" stroke="black" points="1621.13,-112.32 1623.59,-102.02 1615.24,-108.54 1621.13,-112.32"/>
</g>
<!-- u17&#45;&gt;u24 -->
<g id="edge36" class="edge">
<title>u17&#45;&gt;u24</title>
<path fill="none" stroke="black" d="M942.06,-1415.18C1136.4,-1359.77 1785.88,-1174.6 1995.64,-1114.8"/>
<polygon fill="black" stroke="black" points="1996.63,-1118.15 2005.29,-1112.05 1994.71,-1111.42 1996.63,-1118.15"/>
</g>
<!-- u16&#45;&gt;u13 -->
<g id="edge33" class="edge">
<title>u16&#45;&gt;u13</title>
<path fill="none" stroke="black" d="M3453.81,-1751.38C3543.22,-1701.63 3787.96,-1548.98 3695.58,-1414 3534.08,-1178.05 3169.95,-1117.14 2986.54,-1101.44"/>
<polygon fill="black" stroke="black" points="2986.59,-1097.93 2976.34,-1100.6 2986.01,-1104.91 2986.59,-1097.93"/>
</g>
</g>
</svg>
