<?xml version="1.0" encoding="UTF-8" standalone="no"?>
<!DOCTYPE svg PUBLIC "-//W3C//DTD SVG 1.1//EN"
 "http://www.w3.org/Graphics/SVG/1.1/DTD/svg11.dtd">
<!-- Generated by graphviz version 2.43.0 (0)
 -->
<!-- Title: G Pages: 1 -->
<svg width="431pt" height="288pt"
 viewBox="0.00 0.00 430.89 288.00" xmlns="http://www.w3.org/2000/svg" xmlns:xlink="http://www.w3.org/1999/xlink">
<g id="graph0" class="graph" transform="scale(0.32 0.32) rotate(0) translate(4 896)">
<title>G</title>
<polygon fill="white" stroke="transparent" points="-4,4 -4,-896 1342.53,-896 1342.53,4 -4,4"/>
<!-- u0 -->
<g id="node1" class="node">
<title>u0</title>
<ellipse fill="#bbffbb" stroke="black" cx="798.19" cy="-828" rx="89.08" ry="18"/>
<text text-anchor="middle" x="798.19" y="-824.3" font-family="Times,serif" font-size="14.00">Drasil.Generator</text>
</g>
<!-- u10 -->
<g id="node2" class="node">
<title>u10</title>
<ellipse fill="#ffffbb" stroke="black" cx="329.19" cy="-573" rx="157.07" ry="18"/>
<text text-anchor="middle" x="329.19" y="-569.3" font-family="Times,serif" font-size="14.00">Drasil.Generator.BaseChunkDB</text>
</g>
<!-- u0&#45;&gt;u10 -->
<g id="edge4" class="edge">
<title>u0&#45;&gt;u10</title>
<path fill="none" stroke="black" d="M768.49,-810.98C687.31,-767.19 461.6,-645.43 369.3,-595.64"/>
<polygon fill="black" stroke="black" points="370.74,-592.44 360.27,-590.77 367.41,-598.6 370.74,-592.44"/>
</g>
<!-- u7 -->
<g id="node3" class="node">
<title>u7</title>
<ellipse fill="#ffffbb" stroke="black" cx="648.19" cy="-573" rx="143.77" ry="18"/>
<text text-anchor="middle" x="648.19" y="-569.3" font-family="Times,serif" font-size="14.00">Drasil.Generator.LessonPlan</text>
</g>
<!-- u0&#45;&gt;u7 -->
<g id="edge3" class="edge">
<title>u0&#45;&gt;u7</title>
<path fill="none" stroke="black" d="M788.11,-810.01C762.4,-766.63 694.2,-651.6 663.52,-599.86"/>
<polygon fill="black" stroke="black" points="666.53,-598.07 658.42,-591.25 660.5,-601.64 666.53,-598.07"/>
</g>
<!-- u5 -->
<g id="node5" class="node">
<title>u5</title>
<ellipse fill="#ffffbb" stroke="black" cx="949.19" cy="-573" rx="139.18" ry="18"/>
<text text-anchor="middle" x="949.19" y="-569.3" font-family="Times,serif" font-size="14.00">Drasil.Generator.Composed</text>
</g>
<!-- u0&#45;&gt;u5 -->
<g id="edge2" class="edge">
<title>u0&#45;&gt;u5</title>
<path fill="none" stroke="black" d="M808.33,-810.01C834.22,-766.63 902.87,-651.6 933.75,-599.86"/>
<polygon fill="black" stroke="black" points="936.77,-601.63 938.89,-591.25 930.76,-598.05 936.77,-601.63"/>
</g>
<!-- u3 -->
<g id="node7" class="node">
<title>u3</title>
<ellipse fill="#ffffbb" stroke="black" cx="1209.19" cy="-319" rx="128.08" ry="18"/>
<text text-anchor="middle" x="1209.19" y="-315.3" font-family="Times,serif" font-size="14.00">Drasil.Generator.Website</text>
</g>
<!-- u0&#45;&gt;u3 -->
<g id="edge1" class="edge">
<title>u0&#45;&gt;u3</title>
<path fill="none" stroke="black" d="M827.33,-810.97C885.96,-777.38 1019.23,-694.14 1097.19,-591 1156.37,-512.71 1189.93,-398.64 1202.9,-347.09"/>
<polygon fill="black" stroke="black" points="1206.37,-347.62 1205.35,-337.07 1199.57,-345.95 1206.37,-347.62"/>
</g>
<!-- u6 -->
<g id="node4" class="node">
<title>u6</title>
<ellipse fill="#ffffbb" stroke="black" cx="706.19" cy="-319" rx="110.48" ry="18"/>
<text text-anchor="middle" x="706.19" y="-315.3" font-family="Times,serif" font-size="14.00">Drasil.Generator.SRS</text>
</g>
<!-- u4 -->
<g id="node6" class="node">
<title>u4</title>
<ellipse fill="#ffffbb" stroke="black" cx="1209.19" cy="-64" rx="129.18" ry="18"/>
<text text-anchor="middle" x="1209.19" y="-60.3" font-family="Times,serif" font-size="14.00">Drasil.Generator.Formats</text>
</g>
<!-- u6&#45;&gt;u4 -->
<g id="edge9" class="edge">
<title>u6&#45;&gt;u4</title>
<path fill="none" stroke="black" d="M738.8,-301.59C826.85,-257.31 1069.32,-135.35 1167.3,-86.07"/>
<polygon fill="black" stroke="black" points="1168.96,-89.15 1176.32,-81.53 1165.81,-82.9 1168.96,-89.15"/>
</g>
<!-- u2 -->
<g id="node8" class="node">
<title>u2</title>
<ellipse fill="#ffffbb" stroke="black" cx="148.19" cy="-64" rx="148.37" ry="18"/>
<text text-anchor="middle" x="148.19" y="-60.3" font-family="Times,serif" font-size="14.00">Drasil.Generator.ChunkDump</text>
</g>
<!-- u6&#45;&gt;u2 -->
<g id="edge8" class="edge">
<title>u6&#45;&gt;u2</title>
<path fill="none" stroke="black" d="M670.43,-301.79C572.95,-257.59 302.58,-135 194.1,-85.82"/>
<polygon fill="black" stroke="black" points="195.28,-82.51 184.73,-81.57 192.39,-88.89 195.28,-82.51"/>
</g>
<!-- u9 -->
<g id="node10" class="node">
<title>u9</title>
<ellipse fill="#bbbbff" stroke="black" cx="516.19" cy="-64" rx="201.46" ry="18"/>
<text text-anchor="middle" x="516.19" y="-60.3" font-family="Times,serif" font-size="14.00">Drasil.Generator.SRS.TraceabilityGraphs</text>
</g>
<!-- u6&#45;&gt;u9 -->
<g id="edge11" class="edge">
<title>u6&#45;&gt;u9</title>
<path fill="none" stroke="black" d="M693.43,-301.01C660.78,-257.54 574.11,-142.13 535.37,-90.54"/>
<polygon fill="black" stroke="black" points="537.95,-88.15 529.14,-82.25 532.35,-92.35 537.95,-88.15"/>
</g>
<!-- u8 -->
<g id="node11" class="node">
<title>u8</title>
<ellipse fill="#bbbbff" stroke="black" cx="899.19" cy="-64" rx="163.27" ry="18"/>
<text text-anchor="middle" x="899.19" y="-60.3" font-family="Times,serif" font-size="14.00">Drasil.Generator.SRS.TypeCheck</text>
</g>
<!-- u6&#45;&gt;u8 -->
<g id="edge10" class="edge">
<title>u6&#45;&gt;u8</title>
<path fill="none" stroke="black" d="M719.15,-301.01C752.37,-257.45 840.72,-141.65 879.95,-90.22"/>
<polygon fill="black" stroke="black" points="882.74,-92.33 886.03,-82.25 877.18,-88.08 882.74,-92.33"/>
</g>
<!-- u5&#45;&gt;u6 -->
<g id="edge7" class="edge">
<title>u5&#45;&gt;u6</title>
<path fill="none" stroke="black" d="M932.87,-555.07C890.76,-511.41 778.35,-394.83 729.45,-344.12"/>
<polygon fill="black" stroke="black" points="731.9,-341.62 722.44,-336.85 726.86,-346.48 731.9,-341.62"/>
</g>
<!-- u1 -->
<g id="node9" class="node">
<title>u1</title>
<ellipse fill="#ffffbb" stroke="black" cx="949.19" cy="-319" rx="114.28" ry="18"/>
<text text-anchor="middle" x="949.19" y="-315.3" font-family="Times,serif" font-size="14.00">Drasil.Generator.Code</text>
</g>
<!-- u5&#45;&gt;u1 -->
<g id="edge6" class="edge">
<title>u5&#45;&gt;u1</title>
<path fill="none" stroke="black" d="M949.19,-554.68C949.19,-511.6 949.19,-399.33 949.19,-347.26"/>
<polygon fill="black" stroke="black" points="952.69,-347.11 949.19,-337.11 945.69,-347.11 952.69,-347.11"/>
</g>
<!-- u3&#45;&gt;u4 -->
<g id="edge5" class="edge">
<title>u3&#45;&gt;u4</title>
<path fill="none" stroke="black" d="M1209.19,-300.61C1209.19,-257.36 1209.19,-144.65 1209.19,-92.37"/>
<polygon fill="black" stroke="black" points="1212.69,-92.18 1209.19,-82.18 1205.69,-92.18 1212.69,-92.18"/>
</g>
</g>
</svg>
