<?xml version="1.0" encoding="UTF-8" standalone="no"?>
<!DOCTYPE svg PUBLIC "-//W3C//DTD SVG 1.1//EN"
 "http://www.w3.org/Graphics/SVG/1.1/DTD/svg11.dtd">
<!-- Generated by graphviz version 2.43.0 (0)
 -->
<!-- Title: G Pages: 1 -->
<svg width="432pt" height="282pt"
 viewBox="0.00 0.00 432.00 281.97" xmlns="http://www.w3.org/2000/svg" xmlns:xlink="http://www.w3.org/1999/xlink">
<g id="graph0" class="graph" transform="scale(0.1 0.1) rotate(0) translate(4 2711.33)">
<title>G</title>
<polygon fill="white" stroke="transparent" points="-4,4 -4,-2711.33 4156.12,-2711.33 4156.12,4 -4,4"/>
<!-- u28 -->
<g id="node1" class="node">
<title>u28</title>
<ellipse fill="#bbffbb" stroke="black" cx="2506.09" cy="-1991" rx="133.78" ry="18"/>
<text text-anchor="middle" x="2506.09" y="-1987.3" font-family="Times,serif" font-size="14.00">Drasil.DocumentLanguage</text>
</g>
<!-- u27 -->
<g id="node2" class="node">
<title>u27</title>
<ellipse fill="#bbffbb" stroke="black" cx="187.09" cy="-1672" rx="92.08" ry="18"/>
<text text-anchor="middle" x="187.09" y="-1668.3" font-family="Times,serif" font-size="14.00">Drasil.TraceTable</text>
</g>
<!-- u28&#45;&gt;u27 -->
<g id="edge56" class="edge">
<title>u28&#45;&gt;u27</title>
<path fill="none" stroke="black" d="M2415.9,-1977.67C2043.67,-1926.79 629.69,-1733.5 270.48,-1684.4"/>
<polygon fill="black" stroke="black" points="270.79,-1680.91 260.41,-1683.02 269.84,-1687.84 270.79,-1680.91"/>
</g>
<!-- u25 -->
<g id="node4" class="node">
<title>u25</title>
<ellipse fill="#bbffbb" stroke="black" cx="577.09" cy="-1672" rx="79.09" ry="18"/>
<text text-anchor="middle" x="577.09" y="-1668.3" font-family="Times,serif" font-size="14.00">Drasil.DocDecl</text>
</g>
<!-- u28&#45;&gt;u25 -->
<g id="edge55" class="edge">
<title>u28&#45;&gt;u25</title>
<path fill="none" stroke="black" d="M2424.74,-1976.63C2106.83,-1924.39 951.05,-1734.45 649.47,-1684.89"/>
<polygon fill="black" stroke="black" points="649.96,-1681.43 639.53,-1683.26 648.83,-1688.34 649.96,-1681.43"/>
</g>
<!-- u24 -->
<g id="node5" class="node">
<title>u24</title>
<ellipse fill="#bbffbb" stroke="black" cx="952.09" cy="-1672" rx="116.18" ry="18"/>
<text text-anchor="middle" x="952.09" y="-1668.3" font-family="Times,serif" font-size="14.00">Drasil.ExtractDocDesc</text>
</g>
<!-- u28&#45;&gt;u24 -->
<g id="edge54" class="edge">
<title>u28&#45;&gt;u24</title>
<path fill="none" stroke="black" d="M2435.79,-1975.66C2179.56,-1923.39 1296.78,-1743.31 1029.43,-1688.78"/>
<polygon fill="black" stroke="black" points="1029.92,-1685.3 1019.42,-1686.73 1028.52,-1692.16 1029.92,-1685.3"/>
</g>
<!-- u1 -->
<g id="node8" class="node">
<title>u1</title>
<ellipse fill="#ffffbb" stroke="black" cx="1525.09" cy="-1672" rx="136.48" ry="18"/>
<text text-anchor="middle" x="1525.09" y="-1668.3" font-family="Times,serif" font-size="14.00">Drasil.DocLang.References</text>
</g>
<!-- u28&#45;&gt;u1 -->
<g id="edge48" class="edge">
<title>u28&#45;&gt;u1</title>
<path fill="none" stroke="black" d="M2457.11,-1974.17C2292.88,-1921.1 1762.1,-1749.59 1583.99,-1692.03"/>
<polygon fill="black" stroke="black" points="1584.86,-1688.64 1574.27,-1688.89 1582.71,-1695.3 1584.86,-1688.64"/>
</g>
<!-- u3 -->
<g id="node14" class="node">
<title>u3</title>
<ellipse fill="#bbbbff" stroke="black" cx="2301.09" cy="-1672" rx="220.96" ry="18"/>
<text text-anchor="middle" x="2301.09" y="-1668.3" font-family="Times,serif" font-size="14.00">Drasil.DocumentLanguage.TraceabilityGraph</text>
</g>
<!-- u28&#45;&gt;u3 -->
<g id="edge49" class="edge">
<title>u28&#45;&gt;u3</title>
<path fill="none" stroke="black" d="M2495.07,-1972.96C2461.14,-1920.5 2358.14,-1761.21 2317.67,-1698.63"/>
<polygon fill="black" stroke="black" points="2320.54,-1696.62 2312.17,-1690.13 2314.66,-1700.43 2320.54,-1696.62"/>
</g>
<!-- u19 -->
<g id="node22" class="node">
<title>u19</title>
<ellipse fill="#bbffff" stroke="black" cx="2712.09" cy="-1672" rx="144.87" ry="18"/>
<text text-anchor="middle" x="2712.09" y="-1668.3" font-family="Times,serif" font-size="14.00">Drasil.Sections.Stakeholders</text>
</g>
<!-- u28&#45;&gt;u19 -->
<g id="edge53" class="edge">
<title>u28&#45;&gt;u19</title>
<path fill="none" stroke="black" d="M2517.17,-1972.96C2551.26,-1920.5 2654.77,-1761.21 2695.43,-1698.63"/>
<polygon fill="black" stroke="black" points="2698.45,-1700.42 2700.96,-1690.13 2692.58,-1696.61 2698.45,-1700.42"/>
</g>
<!-- u17 -->
<g id="node24" class="node">
<title>u17</title>
<ellipse fill="#bbffff" stroke="black" cx="2915.09" cy="-1354" rx="161.37" ry="18"/>
<text text-anchor="middle" x="2915.09" y="-1350.3" font-family="Times,serif" font-size="14.00">Drasil.Sections.TableOfContents</text>
</g>
<!-- u28&#45;&gt;u17 -->
<g id="edge52" class="edge">
<title>u28&#45;&gt;u17</title>
<path fill="none" stroke="black" d="M2539.09,-1973.45C2612.01,-1934.95 2786.67,-1831.78 2866.09,-1690 2923.29,-1587.9 2921.16,-1441.97 2917.38,-1382.15"/>
<polygon fill="black" stroke="black" points="2920.86,-1381.75 2916.67,-1372.02 2913.88,-1382.24 2920.86,-1381.75"/>
</g>
<!-- u16 -->
<g id="node25" class="node">
<title>u16</title>
<ellipse fill="#bbffff" stroke="black" cx="3580.09" cy="-1354" rx="141.88" ry="18"/>
<text text-anchor="middle" x="3580.09" y="-1350.3" font-family="Times,serif" font-size="14.00">Drasil.Sections.Introduction</text>
</g>
<!-- u28&#45;&gt;u16 -->
<g id="edge51" class="edge">
<title>u28&#45;&gt;u16</title>
<path fill="none" stroke="black" d="M2528.65,-1973.25C2597.58,-1922.38 2812.28,-1766.29 3001.09,-1654 3194.67,-1538.88 3437.32,-1421.99 3535.66,-1375.7"/>
<polygon fill="black" stroke="black" points="3537.15,-1378.86 3544.71,-1371.44 3534.18,-1372.53 3537.15,-1378.86"/>
</g>
<!-- u15 -->
<g id="node26" class="node">
<title>u15</title>
<ellipse fill="#bbffff" stroke="black" cx="3257.09" cy="-1354" rx="163.27" ry="18"/>
<text text-anchor="middle" x="3257.09" y="-1350.3" font-family="Times,serif" font-size="14.00">Drasil.Sections.GeneralSystDesc</text>
</g>
<!-- u28&#45;&gt;u15 -->
<g id="edge50" class="edge">
<title>u28&#45;&gt;u15</title>
<path fill="none" stroke="black" d="M2528.93,-1972.97C2588.9,-1928.05 2755.39,-1802.1 2888.09,-1690 3020.93,-1577.78 3172.62,-1435.29 3231.69,-1379.22"/>
<polygon fill="black" stroke="black" points="3234.24,-1381.63 3239.08,-1372.2 3229.42,-1376.56 3234.24,-1381.63"/>
</g>
<!-- u7 -->
<g id="node10" class="node">
<title>u7</title>
<ellipse fill="#bbbbff" stroke="black" cx="309.09" cy="-1035" rx="159.47" ry="18"/>
<text text-anchor="middle" x="309.09" y="-1031.3" font-family="Times,serif" font-size="14.00">Drasil.DocumentLanguage.Core</text>
</g>
<!-- u27&#45;&gt;u7 -->
<g id="edge47" class="edge">
<title>u27&#45;&gt;u7</title>
<path fill="none" stroke="black" d="M166.18,-1654.11C109.18,-1605.9 -41.24,-1462.94 11.09,-1336 64.78,-1205.77 205.41,-1102.22 272.48,-1058.52"/>
<polygon fill="black" stroke="black" points="274.54,-1061.36 281.06,-1053 270.75,-1055.47 274.54,-1061.36"/>
</g>
<!-- u26 -->
<g id="node3" class="node">
<title>u26</title>
<ellipse fill="#bbffbb" stroke="black" cx="2720.09" cy="-2628" rx="108.58" ry="18"/>
<text text-anchor="middle" x="2720.09" y="-2624.3" font-family="Times,serif" font-size="14.00">Drasil.SRSDocument</text>
</g>
<!-- u11 -->
<g id="node6" class="node">
<title>u11</title>
<ellipse fill="#bbffbb" stroke="black" cx="2720.09" cy="-2309" rx="81.79" ry="18"/>
<text text-anchor="middle" x="2720.09" y="-2305.3" font-family="Times,serif" font-size="14.00">Drasil.DocLang</text>
</g>
<!-- u26&#45;&gt;u11 -->
<g id="edge46" class="edge">
<title>u26&#45;&gt;u11</title>
<path fill="none" stroke="black" d="M2720.09,-2609.96C2720.09,-2557.93 2720.09,-2400.82 2720.09,-2337.19"/>
<polygon fill="black" stroke="black" points="2723.59,-2337.13 2720.09,-2327.13 2716.59,-2337.13 2723.59,-2337.13"/>
</g>
<!-- u25&#45;&gt;u7 -->
<g id="edge44" class="edge">
<title>u25&#45;&gt;u7</title>
<path fill="none" stroke="black" d="M521.68,-1659.03C408.63,-1631.29 153.34,-1550.84 49.09,-1372 -25.78,-1243.55 178.46,-1109.06 268.68,-1057.68"/>
<polygon fill="black" stroke="black" points="270.56,-1060.64 277.56,-1052.69 267.13,-1054.54 270.56,-1060.64"/>
</g>
<!-- u23 -->
<g id="node18" class="node">
<title>u23</title>
<ellipse fill="#bbffff" stroke="black" cx="577.09" cy="-1354" rx="149.47" ry="18"/>
<text text-anchor="middle" x="577.09" y="-1350.3" font-family="Times,serif" font-size="14.00">Drasil.Sections.Requirements</text>
</g>
<!-- u25&#45;&gt;u23 -->
<g id="edge45" class="edge">
<title>u25&#45;&gt;u23</title>
<path fill="none" stroke="black" d="M577.09,-1653.56C577.09,-1601.32 577.09,-1445.81 577.09,-1382.39"/>
<polygon fill="black" stroke="black" points="580.59,-1382 577.09,-1372 573.59,-1382 580.59,-1382"/>
</g>
<!-- u24&#45;&gt;u7 -->
<g id="edge42" class="edge">
<title>u24&#45;&gt;u7</title>
<path fill="none" stroke="black" d="M881.64,-1657.6C692,-1619.95 178.53,-1507.12 82.09,-1372 -0.87,-1255.76 190.19,-1112.76 273.08,-1058.4"/>
<polygon fill="black" stroke="black" points="275.21,-1061.19 281.69,-1052.81 271.4,-1055.32 275.21,-1061.19"/>
</g>
<!-- u12 -->
<g id="node29" class="node">
<title>u12</title>
<ellipse fill="#bbffff" stroke="black" cx="952.09" cy="-1354" rx="207.96" ry="18"/>
<text text-anchor="middle" x="952.09" y="-1350.3" font-family="Times,serif" font-size="14.00">Drasil.Sections.SpecificSystemDescription</text>
</g>
<!-- u24&#45;&gt;u12 -->
<g id="edge43" class="edge">
<title>u24&#45;&gt;u12</title>
<path fill="none" stroke="black" d="M952.09,-1653.56C952.09,-1601.32 952.09,-1445.81 952.09,-1382.39"/>
<polygon fill="black" stroke="black" points="955.59,-1382 952.09,-1372 948.59,-1382 955.59,-1382"/>
</g>
<!-- u11&#45;&gt;u28 -->
<g id="edge18" class="edge">
<title>u11&#45;&gt;u28</title>
<path fill="none" stroke="black" d="M2708.59,-2291.01C2673.17,-2238.71 2565.64,-2079.94 2523.4,-2017.55"/>
<polygon fill="black" stroke="black" points="2526.16,-2015.39 2517.65,-2009.07 2520.36,-2019.32 2526.16,-2015.39"/>
</g>
<!-- u10 -->
<g id="node15" class="node">
<title>u10</title>
<ellipse fill="#ffbbbb" stroke="black" cx="3139.09" cy="-1991" rx="276.75" ry="18"/>
<text text-anchor="middle" x="3139.09" y="-1987.3" font-family="Times,serif" font-size="14.00">Drasil.DocumentLanguage.Notebook.DocumentLanguage</text>
</g>
<!-- u11&#45;&gt;u10 -->
<g id="edge17" class="edge">
<title>u11&#45;&gt;u10</title>
<path fill="none" stroke="black" d="M2742.03,-2291.46C2811.64,-2238.95 3027.73,-2075.98 3108.35,-2015.18"/>
<polygon fill="black" stroke="black" points="3110.73,-2017.77 3116.61,-2008.95 3106.52,-2012.18 3110.73,-2017.77"/>
</g>
<!-- u2 -->
<g id="node7" class="node">
<title>u2</title>
<ellipse fill="#ffffbb" stroke="black" cx="3139.09" cy="-1672" rx="129.18" ry="18"/>
<text text-anchor="middle" x="3139.09" y="-1668.3" font-family="Times,serif" font-size="14.00">Drasil.DocLang.Notebook</text>
</g>
<!-- u1&#45;&gt;u23 -->
<g id="edge7" class="edge">
<title>u1&#45;&gt;u23</title>
<path fill="none" stroke="black" d="M1477.43,-1655.11C1318.69,-1602.2 808.18,-1432.03 635.11,-1374.34"/>
<polygon fill="black" stroke="black" points="636.01,-1370.95 625.41,-1371.11 633.79,-1377.59 636.01,-1370.95"/>
</g>
<!-- u22 -->
<g id="node19" class="node">
<title>u22</title>
<ellipse fill="#bbffff" stroke="black" cx="250.09" cy="-1354" rx="159.47" ry="18"/>
<text text-anchor="middle" x="250.09" y="-1350.3" font-family="Times,serif" font-size="14.00">Drasil.Sections.TableOfSymbols</text>
</g>
<!-- u1&#45;&gt;u22 -->
<g id="edge6" class="edge">
<title>u1&#45;&gt;u22</title>
<path fill="none" stroke="black" d="M1464.02,-1655.87C1252.46,-1603.43 551.29,-1429.65 322.78,-1373.02"/>
<polygon fill="black" stroke="black" points="323.46,-1369.58 312.91,-1370.57 321.77,-1376.37 323.46,-1369.58"/>
</g>
<!-- u21 -->
<g id="node20" class="node">
<title>u21</title>
<ellipse fill="#bbffff" stroke="black" cx="1355.09" cy="-1354" rx="177.37" ry="18"/>
<text text-anchor="middle" x="1355.09" y="-1350.3" font-family="Times,serif" font-size="14.00">Drasil.Sections.TraceabilityMandGs</text>
</g>
<!-- u1&#45;&gt;u21 -->
<g id="edge5" class="edge">
<title>u1&#45;&gt;u21</title>
<path fill="none" stroke="black" d="M1515.95,-1654.01C1487.87,-1601.82 1402.75,-1443.59 1369.05,-1380.94"/>
<polygon fill="black" stroke="black" points="1372.1,-1379.22 1364.28,-1372.07 1365.93,-1382.54 1372.1,-1379.22"/>
</g>
<!-- u18 -->
<g id="node23" class="node">
<title>u18</title>
<ellipse fill="#bbffff" stroke="black" cx="1695.09" cy="-1354" rx="144.87" ry="18"/>
<text text-anchor="middle" x="1695.09" y="-1350.3" font-family="Times,serif" font-size="14.00">Drasil.Sections.TableOfUnits</text>
</g>
<!-- u1&#45;&gt;u18 -->
<g id="edge4" class="edge">
<title>u1&#45;&gt;u18</title>
<path fill="none" stroke="black" d="M1534.23,-1654.01C1562.31,-1601.82 1647.43,-1443.59 1681.14,-1380.94"/>
<polygon fill="black" stroke="black" points="1684.25,-1382.54 1685.91,-1372.07 1678.09,-1379.22 1684.25,-1382.54"/>
</g>
<!-- u14 -->
<g id="node27" class="node">
<title>u14</title>
<ellipse fill="#bbffff" stroke="black" cx="2488.09" cy="-1354" rx="172.47" ry="18"/>
<text text-anchor="middle" x="2488.09" y="-1350.3" font-family="Times,serif" font-size="14.00">Drasil.Sections.AuxiliaryConstants</text>
</g>
<!-- u1&#45;&gt;u14 -->
<g id="edge3" class="edge">
<title>u1&#45;&gt;u14</title>
<path fill="none" stroke="black" d="M1573.51,-1655.11C1734.66,-1602.23 2252.66,-1432.26 2428.81,-1374.45"/>
<polygon fill="black" stroke="black" points="2430.02,-1377.74 2438.43,-1371.3 2427.84,-1371.09 2430.02,-1377.74"/>
</g>
<!-- u13 -->
<g id="node28" class="node">
<title>u13</title>
<ellipse fill="#bbffff" stroke="black" cx="2059.09" cy="-1354" rx="201.46" ry="18"/>
<text text-anchor="middle" x="2059.09" y="-1350.3" font-family="Times,serif" font-size="14.00">Drasil.Sections.TableOfAbbAndAcronyms</text>
</g>
<!-- u1&#45;&gt;u13 -->
<g id="edge2" class="edge">
<title>u1&#45;&gt;u13</title>
<path fill="none" stroke="black" d="M1553.42,-1654.23C1643.11,-1601.16 1920.81,-1436.83 2021.85,-1377.04"/>
<polygon fill="black" stroke="black" points="2023.68,-1380.02 2030.5,-1371.92 2020.11,-1374 2023.68,-1380.02"/>
</g>
<!-- u1&#45;&gt;u12 -->
<g id="edge1" class="edge">
<title>u1&#45;&gt;u12</title>
<path fill="none" stroke="black" d="M1494.69,-1654.23C1398.36,-1601.11 1099.87,-1436.5 991.73,-1376.86"/>
<polygon fill="black" stroke="black" points="993.21,-1373.68 982.77,-1371.92 989.83,-1379.81 993.21,-1373.68"/>
</g>
<!-- u0 -->
<g id="node9" class="node">
<title>u0</title>
<ellipse fill="#ffffbb" stroke="black" cx="2707.09" cy="-1035" rx="104.78" ry="18"/>
<text text-anchor="middle" x="2707.09" y="-1031.3" font-family="Times,serif" font-size="14.00">Drasil.DocLang.SRS</text>
</g>
<!-- u5 -->
<g id="node12" class="node">
<title>u5</title>
<ellipse fill="#bbbbff" stroke="black" cx="339.09" cy="-717" rx="223.66" ry="18"/>
<text text-anchor="middle" x="339.09" y="-713.3" font-family="Times,serif" font-size="14.00">Drasil.DocumentLanguage.TraceabilityMatrix</text>
</g>
<!-- u7&#45;&gt;u5 -->
<g id="edge13" class="edge">
<title>u7&#45;&gt;u5</title>
<path fill="none" stroke="black" d="M310.75,-1016.56C315.72,-964.21 330.53,-808.16 336.53,-744.99"/>
<polygon fill="black" stroke="black" points="340.02,-745.29 337.48,-735 333.05,-744.62 340.02,-745.29"/>
</g>
<!-- u6 -->
<g id="node11" class="node">
<title>u6</title>
<ellipse fill="#bbbbff" stroke="black" cx="952.09" cy="-398" rx="187.37" ry="18"/>
<text text-anchor="middle" x="952.09" y="-394.3" font-family="Times,serif" font-size="14.00">Drasil.DocumentLanguage.Definitions</text>
</g>
<!-- u4 -->
<g id="node13" class="node">
<title>u4</title>
<ellipse fill="#bbbbff" stroke="black" cx="952.09" cy="-80" rx="162.47" ry="18"/>
<text text-anchor="middle" x="952.09" y="-76.3" font-family="Times,serif" font-size="14.00">Drasil.DocumentLanguage.Units</text>
</g>
<!-- u6&#45;&gt;u4 -->
<g id="edge12" class="edge">
<title>u6&#45;&gt;u4</title>
<path fill="none" stroke="black" d="M952.09,-379.56C952.09,-327.32 952.09,-171.81 952.09,-108.39"/>
<polygon fill="black" stroke="black" points="955.59,-108 952.09,-98 948.59,-108 955.59,-108"/>
</g>
<!-- u5&#45;&gt;u6 -->
<g id="edge11" class="edge">
<title>u5&#45;&gt;u6</title>
<path fill="none" stroke="black" d="M371.62,-699.18C474.9,-645.77 795.38,-480.04 910.44,-420.54"/>
<polygon fill="black" stroke="black" points="912.37,-423.48 919.64,-415.78 909.15,-417.26 912.37,-423.48"/>
</g>
<!-- u3&#45;&gt;u0 -->
<g id="edge8" class="edge">
<title>u3&#45;&gt;u0</title>
<path fill="none" stroke="black" d="M2336.58,-1654.22C2412.61,-1616.17 2590.67,-1515.36 2669.09,-1372 2725.19,-1269.45 2717.01,-1123.17 2710.61,-1063.21"/>
<polygon fill="black" stroke="black" points="2714.06,-1062.59 2709.45,-1053.05 2707.1,-1063.39 2714.06,-1062.59"/>
</g>
<!-- u3&#45;&gt;u21 -->
<g id="edge10" class="edge">
<title>u3&#45;&gt;u21</title>
<path fill="none" stroke="black" d="M2251.56,-1654.46C2091.2,-1600.89 1586.61,-1432.33 1413.81,-1374.62"/>
<polygon fill="black" stroke="black" points="1414.72,-1371.23 1404.13,-1371.38 1412.51,-1377.87 1414.72,-1371.23"/>
</g>
<!-- u20 -->
<g id="node21" class="node">
<title>u20</title>
<ellipse fill="#bbffff" stroke="black" cx="2059.09" cy="-1035" rx="170.07" ry="18"/>
<text text-anchor="middle" x="2059.09" y="-1031.3" font-family="Times,serif" font-size="14.00">Drasil.Sections.ReferenceMaterial</text>
</g>
<!-- u3&#45;&gt;u20 -->
<g id="edge9" class="edge">
<title>u3&#45;&gt;u20</title>
<path fill="none" stroke="black" d="M2302.45,-1653.95C2305.84,-1603.52 2311.61,-1451.4 2269.09,-1336 2226.62,-1220.72 2128.61,-1108.54 2083.11,-1060.46"/>
<polygon fill="black" stroke="black" points="2085.45,-1057.85 2076.02,-1053.04 2080.39,-1062.69 2085.45,-1057.85"/>
</g>
<!-- u10&#45;&gt;u2 -->
<g id="edge15" class="edge">
<title>u10&#45;&gt;u2</title>
<path fill="none" stroke="black" d="M3139.09,-1972.96C3139.09,-1920.93 3139.09,-1763.82 3139.09,-1700.19"/>
<polygon fill="black" stroke="black" points="3142.59,-1700.13 3139.09,-1690.13 3135.59,-1700.13 3142.59,-1700.13"/>
</g>
<!-- u8 -->
<g id="node17" class="node">
<title>u8</title>
<ellipse fill="#ffbbbb" stroke="black" cx="3733.09" cy="-1672" rx="221.76" ry="18"/>
<text text-anchor="middle" x="3733.09" y="-1668.3" font-family="Times,serif" font-size="14.00">Drasil.DocumentLanguage.Notebook.LsnDecl</text>
</g>
<!-- u10&#45;&gt;u8 -->
<g id="edge16" class="edge">
<title>u10&#45;&gt;u8</title>
<path fill="none" stroke="black" d="M3171.03,-1972.96C3271.46,-1919.36 3580.83,-1754.26 3692.43,-1694.7"/>
<polygon fill="black" stroke="black" points="3694.18,-1697.73 3701.36,-1689.93 3690.89,-1691.56 3694.18,-1697.73"/>
</g>
<!-- u9 -->
<g id="node16" class="node">
<title>u9</title>
<ellipse fill="#ffbbbb" stroke="black" cx="3946.09" cy="-1354" rx="206.06" ry="18"/>
<text text-anchor="middle" x="3946.09" y="-1350.3" font-family="Times,serif" font-size="14.00">Drasil.DocumentLanguage.Notebook.Core</text>
</g>
<!-- u8&#45;&gt;u9 -->
<g id="edge14" class="edge">
<title>u8&#45;&gt;u9</title>
<path fill="none" stroke="black" d="M3744.54,-1654.01C3779.79,-1601.71 3886.82,-1442.94 3928.87,-1380.55"/>
<polygon fill="black" stroke="black" points="3931.9,-1382.32 3934.58,-1372.07 3926.09,-1378.41 3931.9,-1382.32"/>
</g>
<!-- u23&#45;&gt;u0 -->
<g id="edge39" class="edge">
<title>u23&#45;&gt;u0</title>
<path fill="none" stroke="black" d="M667.25,-1339.58C1016.48,-1287.61 2277.66,-1099.91 2620.53,-1048.88"/>
<polygon fill="black" stroke="black" points="2621.27,-1052.31 2630.65,-1047.38 2620.24,-1045.39 2621.27,-1052.31"/>
</g>
<!-- u23&#45;&gt;u4 -->
<g id="edge40" class="edge">
<title>u23&#45;&gt;u4</title>
<path fill="none" stroke="black" d="M577.72,-1335.96C581.82,-1238.81 609.32,-746.31 756.09,-380 800.72,-268.62 889.71,-154.95 930.62,-105.97"/>
<polygon fill="black" stroke="black" points="933.46,-108.03 937.22,-98.13 928.1,-103.52 933.46,-108.03"/>
</g>
<!-- u23&#45;&gt;u20 -->
<g id="edge41" class="edge">
<title>u23&#45;&gt;u20</title>
<path fill="none" stroke="black" d="M647.08,-1338.03C892.64,-1285.5 1714.34,-1109.74 1977.37,-1053.48"/>
<polygon fill="black" stroke="black" points="1978.19,-1056.88 1987.23,-1051.37 1976.72,-1050.04 1978.19,-1056.88"/>
</g>
<!-- u22&#45;&gt;u7 -->
<g id="edge37" class="edge">
<title>u22&#45;&gt;u7</title>
<path fill="none" stroke="black" d="M253.26,-1335.96C262.95,-1283.93 292.19,-1126.82 304.03,-1063.19"/>
<polygon fill="black" stroke="black" points="307.51,-1063.6 305.9,-1053.13 300.63,-1062.32 307.51,-1063.6"/>
</g>
<!-- u22&#45;&gt;u20 -->
<g id="edge38" class="edge">
<title>u22&#45;&gt;u20</title>
<path fill="none" stroke="black" d="M332.52,-1338.56C630.3,-1286.37 1649.42,-1107.79 1965.1,-1052.47"/>
<polygon fill="black" stroke="black" points="1965.89,-1055.89 1975.13,-1050.71 1964.68,-1048.99 1965.89,-1055.89"/>
</g>
<!-- u21&#45;&gt;u7 -->
<g id="edge36" class="edge">
<title>u21&#45;&gt;u7</title>
<path fill="none" stroke="black" d="M1301.42,-1336.73C1124.61,-1283.15 560.94,-1112.33 371.72,-1054.98"/>
<polygon fill="black" stroke="black" points="372.51,-1051.56 361.92,-1052.01 370.48,-1058.26 372.51,-1051.56"/>
</g>
<!-- u19&#45;&gt;u0 -->
<g id="edge35" class="edge">
<title>u19&#45;&gt;u0</title>
<path fill="none" stroke="black" d="M2711.95,-1653.69C2711.26,-1565.96 2708.15,-1170.51 2707.3,-1063.03"/>
<polygon fill="black" stroke="black" points="2710.8,-1062.97 2707.23,-1053 2703.8,-1063.03 2710.8,-1062.97"/>
</g>
<!-- u18&#45;&gt;u7 -->
<g id="edge33" class="edge">
<title>u18&#45;&gt;u7</title>
<path fill="none" stroke="black" d="M1629.17,-1337.92C1399.15,-1285.31 632.69,-1110.01 386.17,-1053.63"/>
<polygon fill="black" stroke="black" points="386.75,-1050.17 376.22,-1051.35 385.19,-1057 386.75,-1050.17"/>
</g>
<!-- u18&#45;&gt;u20 -->
<g id="edge34" class="edge">
<title>u18&#45;&gt;u20</title>
<path fill="none" stroke="black" d="M1714.66,-1335.96C1775.52,-1282.96 1961.56,-1120.94 2031.83,-1059.74"/>
<polygon fill="black" stroke="black" points="2034.18,-1062.33 2039.42,-1053.13 2029.58,-1057.06 2034.18,-1062.33"/>
</g>
<!-- u17&#45;&gt;u0 -->
<g id="edge31" class="edge">
<title>u17&#45;&gt;u0</title>
<path fill="none" stroke="black" d="M2903.91,-1335.96C2869.49,-1283.5 2764.97,-1124.21 2723.91,-1061.63"/>
<polygon fill="black" stroke="black" points="2726.74,-1059.57 2718.33,-1053.13 2720.89,-1063.41 2726.74,-1059.57"/>
</g>
<!-- u17&#45;&gt;u7 -->
<g id="edge32" class="edge">
<title>u17&#45;&gt;u7</title>
<path fill="none" stroke="black" d="M2810.52,-1340.28C2394.14,-1289.63 855.86,-1102.51 423.06,-1049.86"/>
<polygon fill="black" stroke="black" points="423.39,-1046.38 413.04,-1048.65 422.55,-1053.33 423.39,-1046.38"/>
</g>
<!-- u16&#45;&gt;u0 -->
<g id="edge28" class="edge">
<title>u16&#45;&gt;u0</title>
<path fill="none" stroke="black" d="M3535.6,-1336.84C3388.32,-1283.36 2917.05,-1112.24 2759.19,-1054.92"/>
<polygon fill="black" stroke="black" points="2760.28,-1051.59 2749.69,-1051.47 2757.89,-1058.17 2760.28,-1051.59"/>
</g>
<!-- u16&#45;&gt;u6 -->
<g id="edge29" class="edge">
<title>u16&#45;&gt;u6</title>
<path fill="none" stroke="black" d="M3545.8,-1336.38C3439.59,-1285.21 3106.14,-1126.92 2821.09,-1017 2126.02,-748.97 1259.57,-489.32 1017.53,-418.11"/>
<polygon fill="black" stroke="black" points="1018.41,-414.72 1007.83,-415.26 1016.43,-421.44 1018.41,-414.72"/>
</g>
<!-- u16&#45;&gt;u20 -->
<g id="edge30" class="edge">
<title>u16&#45;&gt;u20</title>
<path fill="none" stroke="black" d="M3509.78,-1338.35C3259.58,-1286.2 2413.04,-1109.77 2142.77,-1053.44"/>
<polygon fill="black" stroke="black" points="2143.13,-1049.94 2132.63,-1051.33 2141.71,-1056.79 2143.13,-1049.94"/>
</g>
<!-- u15&#45;&gt;u0 -->
<g id="edge26" class="edge">
<title>u15&#45;&gt;u0</title>
<path fill="none" stroke="black" d="M3227.91,-1336.18C3135.21,-1282.75 2847.51,-1116.93 2744.37,-1057.48"/>
<polygon fill="black" stroke="black" points="2745.95,-1054.36 2735.54,-1052.4 2742.46,-1060.42 2745.95,-1054.36"/>
</g>
<!-- u15&#45;&gt;u20 -->
<g id="edge27" class="edge">
<title>u15&#45;&gt;u20</title>
<path fill="none" stroke="black" d="M3197.27,-1337.17C2996.11,-1283.94 2344.66,-1111.56 2129.08,-1054.52"/>
<polygon fill="black" stroke="black" points="2129.71,-1051.07 2119.15,-1051.89 2127.92,-1057.83 2129.71,-1051.07"/>
</g>
<!-- u14&#45;&gt;u0 -->
<g id="edge23" class="edge">
<title>u14&#45;&gt;u0</title>
<path fill="none" stroke="black" d="M2499.87,-1335.96C2536.11,-1283.5 2646.15,-1124.21 2689.38,-1061.63"/>
<polygon fill="black" stroke="black" points="2692.45,-1063.34 2695.26,-1053.13 2686.69,-1059.37 2692.45,-1063.34"/>
</g>
<!-- u14&#45;&gt;u4 -->
<g id="edge24" class="edge">
<title>u14&#45;&gt;u4</title>
<path fill="none" stroke="black" d="M2477.96,-1335.88C2446.73,-1283.94 2347.4,-1125.17 2238.09,-1017 1801.76,-585.23 1153.52,-197.54 990.4,-102.95"/>
<polygon fill="black" stroke="black" points="992.08,-99.88 981.67,-97.9 988.58,-105.93 992.08,-99.88"/>
</g>
<!-- u14&#45;&gt;u20 -->
<g id="edge25" class="edge">
<title>u14&#45;&gt;u20</title>
<path fill="none" stroke="black" d="M2465.03,-1335.96C2393.07,-1282.79 2172.64,-1119.9 2090.43,-1059.16"/>
<polygon fill="black" stroke="black" points="2092.13,-1056.06 2082.01,-1052.93 2087.97,-1061.69 2092.13,-1056.06"/>
</g>
<!-- u13&#45;&gt;u20 -->
<g id="edge22" class="edge">
<title>u13&#45;&gt;u20</title>
<path fill="none" stroke="black" d="M2059.09,-1335.96C2059.09,-1283.93 2059.09,-1126.82 2059.09,-1063.19"/>
<polygon fill="black" stroke="black" points="2062.59,-1063.13 2059.09,-1053.13 2055.59,-1063.13 2062.59,-1063.13"/>
</g>
<!-- u12&#45;&gt;u0 -->
<g id="edge19" class="edge">
<title>u12&#45;&gt;u0</title>
<path fill="none" stroke="black" d="M1037.63,-1337.55C1337.35,-1283.41 2337.58,-1102.74 2627.62,-1050.35"/>
<polygon fill="black" stroke="black" points="2628.42,-1053.77 2637.64,-1048.54 2627.18,-1046.88 2628.42,-1053.77"/>
</g>
<!-- u12&#45;&gt;u6 -->
<g id="edge20" class="edge">
<title>u12&#45;&gt;u6</title>
<path fill="none" stroke="black" d="M952.09,-1335.63C952.09,-1220.56 952.09,-568.55 952.09,-426.38"/>
<polygon fill="black" stroke="black" points="955.59,-426.32 952.09,-416.32 948.59,-426.32 955.59,-426.32"/>
</g>
<!-- u12&#45;&gt;u20 -->
<g id="edge21" class="edge">
<title>u12&#45;&gt;u20</title>
<path fill="none" stroke="black" d="M1009.28,-1336.62C1196.93,-1282.89 1793.32,-1112.11 1993.13,-1054.89"/>
<polygon fill="black" stroke="black" points="1994.26,-1058.21 2002.91,-1052.09 1992.33,-1051.48 1994.26,-1058.21"/>
</g>
</g>
</svg>
