<?xml version="1.0" encoding="UTF-8" standalone="no"?>
<!DOCTYPE svg PUBLIC "-//W3C//DTD SVG 1.1//EN"
 "http://www.w3.org/Graphics/SVG/1.1/DTD/svg11.dtd">
<!-- Generated by graphviz version 2.43.0 (0)
 -->
<!-- Title: G Pages: 1 -->
<svg width="431pt" height="288pt"
 viewBox="0.00 0.00 430.89 288.00" xmlns="http://www.w3.org/2000/svg" xmlns:xlink="http://www.w3.org/1999/xlink">
<g id="graph0" class="graph" transform="scale(0.31 0.31) rotate(0) translate(4 919.33)">
<title>G</title>
<polygon fill="white" stroke="transparent" points="-4,4 -4,-919.33 1377.43,-919.33 1377.43,4 -4,4"/>
<!-- u9 -->
<g id="node1" class="node">
<title>u9</title>
<ellipse fill="#bbffbb" stroke="black" cx="715.14" cy="-824" rx="63.89" ry="18"/>
<text text-anchor="middle" x="715.14" y="-820.3" font-family="Times,serif" font-size="14.00">Utils.Drasil</text>
</g>
<!-- u8 -->
<g id="node2" class="node">
<title>u8</title>
<ellipse fill="#ffffbb" stroke="black" cx="381.14" cy="-458" rx="114.28" ry="18"/>
<text text-anchor="middle" x="381.14" y="-454.3" font-family="Times,serif" font-size="14.00">Utils.Drasil.Document</text>
</g>
<!-- u9&#45;&gt;u8 -->
<g id="edge9" class="edge">
<title>u9&#45;&gt;u8</title>
<path fill="none" stroke="black" d="M699.92,-806.41C646.47,-748.16 467.13,-552.71 403.64,-483.53"/>
<polygon fill="black" stroke="black" points="406.17,-481.11 396.83,-476.1 401.02,-485.84 406.17,-481.11"/>
</g>
<!-- u6 -->
<g id="node4" class="node">
<title>u6</title>
<ellipse fill="#ffffbb" stroke="black" cx="124.14" cy="-458" rx="124.28" ry="18"/>
<text text-anchor="middle" x="124.14" y="-454.3" font-family="Times,serif" font-size="14.00">Utils.Drasil.TypeClasses</text>
</g>
<!-- u9&#45;&gt;u6 -->
<g id="edge8" class="edge">
<title>u9&#45;&gt;u6</title>
<path fill="none" stroke="black" d="M689.74,-807.36C595.94,-749.59 268.79,-548.09 159.78,-480.95"/>
<polygon fill="black" stroke="black" points="161.47,-477.88 151.12,-475.62 157.8,-483.84 161.47,-477.88"/>
</g>
<!-- u5 -->
<g id="node5" class="node">
<title>u5</title>
<ellipse fill="#ffffbb" stroke="black" cx="608.14" cy="-458" rx="94.78" ry="18"/>
<text text-anchor="middle" x="608.14" y="-454.3" font-family="Times,serif" font-size="14.00">Utils.Drasil.FileIO</text>
</g>
<!-- u9&#45;&gt;u5 -->
<g id="edge7" class="edge">
<title>u9&#45;&gt;u5</title>
<path fill="none" stroke="black" d="M710.12,-805.93C693.03,-747.78 636.96,-557.05 616.07,-485.99"/>
<polygon fill="black" stroke="black" points="619.32,-484.64 613.15,-476.03 612.61,-486.61 619.32,-484.64"/>
</g>
<!-- u4 -->
<g id="node6" class="node">
<title>u4</title>
<ellipse fill="#ffffbb" stroke="black" cx="823.14" cy="-458" rx="102.08" ry="18"/>
<text text-anchor="middle" x="823.14" y="-454.3" font-family="Times,serif" font-size="14.00">Utils.Drasil.English</text>
</g>
<!-- u9&#45;&gt;u4 -->
<g id="edge6" class="edge">
<title>u9&#45;&gt;u4</title>
<path fill="none" stroke="black" d="M720.2,-805.93C737.46,-747.78 794.05,-557.05 815.13,-485.99"/>
<polygon fill="black" stroke="black" points="818.6,-486.61 818.09,-476.03 811.89,-484.62 818.6,-486.61"/>
</g>
<!-- u3 -->
<g id="node7" class="node">
<title>u3</title>
<ellipse fill="#ffffbb" stroke="black" cx="1044.14" cy="-458" rx="100.98" ry="18"/>
<text text-anchor="middle" x="1044.14" y="-454.3" font-family="Times,serif" font-size="14.00">Utils.Drasil.Strings</text>
</g>
<!-- u9&#45;&gt;u3 -->
<g id="edge5" class="edge">
<title>u9&#45;&gt;u3</title>
<path fill="none" stroke="black" d="M730.13,-806.41C782.78,-748.16 959.44,-552.71 1021.97,-483.53"/>
<polygon fill="black" stroke="black" points="1024.57,-485.87 1028.68,-476.1 1019.38,-481.18 1024.57,-485.87"/>
</g>
<!-- u1 -->
<g id="node9" class="node">
<title>u1</title>
<ellipse fill="#ffffbb" stroke="black" cx="1268.14" cy="-458" rx="105.08" ry="18"/>
<text text-anchor="middle" x="1268.14" y="-454.3" font-family="Times,serif" font-size="14.00">Utils.Drasil.FilePath</text>
</g>
<!-- u9&#45;&gt;u1 -->
<g id="edge4" class="edge">
<title>u9&#45;&gt;u1</title>
<path fill="none" stroke="black" d="M739.26,-807.13C827.43,-749.09 1132.46,-548.31 1234.55,-481.11"/>
<polygon fill="black" stroke="black" points="1236.52,-484 1242.95,-475.58 1232.67,-478.16 1236.52,-484"/>
</g>
<!-- u7 -->
<g id="node3" class="node">
<title>u7</title>
<ellipse fill="#ffffbb" stroke="black" cx="608.14" cy="-92" rx="110.48" ry="18"/>
<text text-anchor="middle" x="608.14" y="-88.3" font-family="Times,serif" font-size="14.00">Utils.Drasil.Directory</text>
</g>
<!-- u5&#45;&gt;u7 -->
<g id="edge3" class="edge">
<title>u5&#45;&gt;u7</title>
<path fill="none" stroke="black" d="M608.14,-439.93C608.14,-381.9 608.14,-191.83 608.14,-120.43"/>
<polygon fill="black" stroke="black" points="611.64,-120.03 608.14,-110.03 604.64,-120.03 611.64,-120.03"/>
</g>
<!-- u0 -->
<g id="node10" class="node">
<title>u0</title>
<ellipse fill="#ffffbb" stroke="black" cx="1044.14" cy="-92" rx="89.08" ry="18"/>
<text text-anchor="middle" x="1044.14" y="-88.3" font-family="Times,serif" font-size="14.00">Utils.Drasil.Lists</text>
</g>
<!-- u3&#45;&gt;u0 -->
<g id="edge2" class="edge">
<title>u3&#45;&gt;u0</title>
<path fill="none" stroke="black" d="M1044.14,-439.93C1044.14,-381.9 1044.14,-191.83 1044.14,-120.43"/>
<polygon fill="black" stroke="black" points="1047.64,-120.03 1044.14,-110.03 1040.64,-120.03 1047.64,-120.03"/>
</g>
<!-- u2 -->
<g id="node8" class="node">
<title>u2</title>
<ellipse fill="#ffffbb" stroke="black" cx="124.14" cy="-824" rx="106.68" ry="18"/>
<text text-anchor="middle" x="124.14" y="-820.3" font-family="Times,serif" font-size="14.00">Utils.Drasil.FileData</text>
</g>
<!-- u2&#45;&gt;u6 -->
<g id="edge1" class="edge">
<title>u2&#45;&gt;u6</title>
<path fill="none" stroke="black" d="M124.14,-805.93C124.14,-747.9 124.14,-557.83 124.14,-486.43"/>
<polygon fill="black" stroke="black" points="127.64,-486.03 124.14,-476.03 120.64,-486.03 127.64,-486.03"/>
</g>
</g>
</svg>
