<?xml version="1.0" encoding="UTF-8" standalone="no"?>
<!DOCTYPE svg PUBLIC "-//W3C//DTD SVG 1.1//EN"
 "http://www.w3.org/Graphics/SVG/1.1/DTD/svg11.dtd">
<!-- Generated by graphviz version 2.43.0 (0)
 -->
<!-- Title: G Pages: 1 -->
<svg width="432pt" height="282pt"
 viewBox="0.00 0.00 432.00 281.54" xmlns="http://www.w3.org/2000/svg" xmlns:xlink="http://www.w3.org/1999/xlink">
<g id="graph0" class="graph" transform="scale(9.65 9.65) rotate(0) translate(4 2713.33)">
<title>G</title>
<polygon fill="white" stroke="transparent" points="-4,4 -4,-2713.33 4165.52,-2713.33 4165.52,4 -4,4"/>
<!-- u28 -->
<g id="node1" class="node">
<title>u28</title>
<ellipse fill="#bbffbb" stroke="black" cx="2784.89" cy="-2311" rx="81.79" ry="18"/>
<text text-anchor="middle" x="2784.89" y="-2307.3" font-family="Times,serif" font-size="14.00">Drasil.DocLang</text>
</g>
<!-- u18 -->
<g id="node3" class="node">
<title>u18</title>
<ellipse fill="#bbffbb" stroke="black" cx="2514.89" cy="-1992" rx="133.78" ry="18"/>
<text text-anchor="middle" x="2514.89" y="-1988.3" font-family="Times,serif" font-size="14.00">Drasil.DocumentLanguage</text>
</g>
<!-- u28&#45;&gt;u18 -->
<g id="edge55" class="edge">
<title>u28&#45;&gt;u18</title>
<path fill="none" stroke="black" d="M2770.37,-2292.96C2725.51,-2240.28 2588.91,-2079.91 2536.07,-2017.87"/>
<polygon fill="black" stroke="black" points="2538.63,-2015.47 2529.48,-2010.13 2533.3,-2020.01 2538.63,-2015.47"/>
</g>
<!-- u25 -->
<g id="node16" class="node">
<title>u25</title>
<ellipse fill="#ffbbbb" stroke="black" cx="3547.89" cy="-1992" rx="276.75" ry="18"/>
<text text-anchor="middle" x="3547.89" y="-1988.3" font-family="Times,serif" font-size="14.00">Drasil.DocumentLanguage.Notebook.DocumentLanguage</text>
</g>
<!-- u28&#45;&gt;u25 -->
<g id="edge56" class="edge">
<title>u28&#45;&gt;u25</title>
<path fill="none" stroke="black" d="M2821.43,-2294.82C2946.1,-2243.02 3354.8,-2073.22 3497.88,-2013.78"/>
<polygon fill="black" stroke="black" points="3499.42,-2016.93 3507.32,-2009.86 3496.74,-2010.46 3499.42,-2016.93"/>
</g>
<!-- u27 -->
<g id="node2" class="node">
<title>u27</title>
<ellipse fill="#bbffbb" stroke="black" cx="2784.89" cy="-2630" rx="108.58" ry="18"/>
<text text-anchor="middle" x="2784.89" y="-2626.3" font-family="Times,serif" font-size="14.00">Drasil.SRSDocument</text>
</g>
<!-- u27&#45;&gt;u28 -->
<g id="edge54" class="edge">
<title>u27&#45;&gt;u28</title>
<path fill="none" stroke="black" d="M2784.89,-2611.96C2784.89,-2559.93 2784.89,-2402.82 2784.89,-2339.19"/>
<polygon fill="black" stroke="black" points="2788.39,-2339.13 2784.89,-2329.13 2781.39,-2339.13 2788.39,-2339.13"/>
</g>
<!-- u17 -->
<g id="node4" class="node">
<title>u17</title>
<ellipse fill="#bbffbb" stroke="black" cx="561.89" cy="-1673" rx="79.09" ry="18"/>
<text text-anchor="middle" x="561.89" y="-1669.3" font-family="Times,serif" font-size="14.00">Drasil.DocDecl</text>
</g>
<!-- u18&#45;&gt;u17 -->
<g id="edge43" class="edge">
<title>u18&#45;&gt;u17</title>
<path fill="none" stroke="black" d="M2429.28,-1978.13C2164.46,-1938.13 1335.26,-1811.41 650.89,-1691 644.12,-1689.81 637.08,-1688.53 630.04,-1687.23"/>
<polygon fill="black" stroke="black" points="630.25,-1683.71 619.77,-1685.31 628.96,-1690.59 630.25,-1683.71"/>
</g>
<!-- u16 -->
<g id="node5" class="node">
<title>u16</title>
<ellipse fill="#bbffbb" stroke="black" cx="751.89" cy="-1673" rx="92.08" ry="18"/>
<text text-anchor="middle" x="751.89" y="-1669.3" font-family="Times,serif" font-size="14.00">Drasil.TraceTable</text>
</g>
<!-- u18&#45;&gt;u16 -->
<g id="edge42" class="edge">
<title>u18&#45;&gt;u16</title>
<path fill="none" stroke="black" d="M2438.29,-1977.23C2147.71,-1924.98 1115.44,-1739.37 827.15,-1687.53"/>
<polygon fill="black" stroke="black" points="827.68,-1684.07 817.21,-1685.75 826.44,-1690.96 827.68,-1684.07"/>
</g>
<!-- u12 -->
<g id="node6" class="node">
<title>u12</title>
<ellipse fill="#bbffbb" stroke="black" cx="978.89" cy="-1673" rx="116.18" ry="18"/>
<text text-anchor="middle" x="978.89" y="-1669.3" font-family="Times,serif" font-size="14.00">Drasil.ExtractDocDesc</text>
</g>
<!-- u18&#45;&gt;u12 -->
<g id="edge40" class="edge">
<title>u18&#45;&gt;u12</title>
<path fill="none" stroke="black" d="M2445.15,-1976.61C2191.7,-1924.3 1320.4,-1744.48 1055.74,-1689.86"/>
<polygon fill="black" stroke="black" points="1056.34,-1686.41 1045.83,-1687.82 1054.92,-1693.27 1056.34,-1686.41"/>
</g>
<!-- u15 -->
<g id="node7" class="node">
<title>u15</title>
<ellipse fill="#ffffbb" stroke="black" cx="1530.89" cy="-1673" rx="136.48" ry="18"/>
<text text-anchor="middle" x="1530.89" y="-1669.3" font-family="Times,serif" font-size="14.00">Drasil.DocLang.References</text>
</g>
<!-- u18&#45;&gt;u15 -->
<g id="edge41" class="edge">
<title>u18&#45;&gt;u15</title>
<path fill="none" stroke="black" d="M2465.76,-1975.17C2301.02,-1922.1 1768.63,-1750.59 1589.97,-1693.03"/>
<polygon fill="black" stroke="black" points="1590.81,-1689.63 1580.22,-1689.89 1588.66,-1696.29 1590.81,-1689.63"/>
</g>
<!-- u19 -->
<g id="node14" class="node">
<title>u19</title>
<ellipse fill="#bbbbff" stroke="black" cx="2304.89" cy="-1673" rx="220.96" ry="18"/>
<text text-anchor="middle" x="2304.89" y="-1669.3" font-family="Times,serif" font-size="14.00">Drasil.DocumentLanguage.TraceabilityGraph</text>
</g>
<!-- u18&#45;&gt;u19 -->
<g id="edge44" class="edge">
<title>u18&#45;&gt;u19</title>
<path fill="none" stroke="black" d="M2503.6,-1973.96C2468.84,-1921.5 2363.33,-1762.21 2321.87,-1699.63"/>
<polygon fill="black" stroke="black" points="2324.68,-1697.53 2316.24,-1691.13 2318.84,-1701.4 2324.68,-1697.53"/>
</g>
<!-- u10 -->
<g id="node19" class="node">
<title>u10</title>
<ellipse fill="#bbffff" stroke="black" cx="2882.89" cy="-1355" rx="161.37" ry="18"/>
<text text-anchor="middle" x="2882.89" y="-1351.3" font-family="Times,serif" font-size="14.00">Drasil.Sections.TableOfContents</text>
</g>
<!-- u18&#45;&gt;u10 -->
<g id="edge39" class="edge">
<title>u18&#45;&gt;u10</title>
<path fill="none" stroke="black" d="M2524.73,-1974.02C2575.38,-1886.62 2806.64,-1487.57 2867.94,-1381.8"/>
<polygon fill="black" stroke="black" points="2871.03,-1383.44 2873.02,-1373.04 2864.97,-1379.93 2871.03,-1383.44"/>
</g>
<!-- u9 -->
<g id="node20" class="node">
<title>u9</title>
<ellipse fill="#bbffff" stroke="black" cx="3585.89" cy="-1355" rx="141.88" ry="18"/>
<text text-anchor="middle" x="3585.89" y="-1351.3" font-family="Times,serif" font-size="14.00">Drasil.Sections.Introduction</text>
</g>
<!-- u18&#45;&gt;u9 -->
<g id="edge38" class="edge">
<title>u18&#45;&gt;u9</title>
<path fill="none" stroke="black" d="M2559.72,-1974.92C2668.6,-1934.92 2953.93,-1824.52 3169.89,-1691 3330.24,-1591.86 3498.27,-1438.91 3560.65,-1380.14"/>
<polygon fill="black" stroke="black" points="3563.2,-1382.54 3568.06,-1373.13 3558.39,-1377.45 3563.2,-1382.54"/>
</g>
<!-- u7 -->
<g id="node22" class="node">
<title>u7</title>
<ellipse fill="#bbffff" stroke="black" cx="2989.89" cy="-1673" rx="144.87" ry="18"/>
<text text-anchor="middle" x="2989.89" y="-1669.3" font-family="Times,serif" font-size="14.00">Drasil.Sections.Stakeholders</text>
</g>
<!-- u18&#45;&gt;u7 -->
<g id="edge37" class="edge">
<title>u18&#45;&gt;u7</title>
<path fill="none" stroke="black" d="M2540.09,-1974.18C2619.72,-1921.04 2865.97,-1756.7 2956.26,-1696.44"/>
<polygon fill="black" stroke="black" points="2958.37,-1699.24 2964.75,-1690.78 2954.49,-1693.42 2958.37,-1699.24"/>
</g>
<!-- u0 -->
<g id="node29" class="node">
<title>u0</title>
<ellipse fill="#bbffff" stroke="black" cx="3262.89" cy="-1355" rx="163.27" ry="18"/>
<text text-anchor="middle" x="3262.89" y="-1351.3" font-family="Times,serif" font-size="14.00">Drasil.Sections.GeneralSystDesc</text>
</g>
<!-- u18&#45;&gt;u0 -->
<g id="edge36" class="edge">
<title>u18&#45;&gt;u0</title>
<path fill="none" stroke="black" d="M2584.01,-1976.48C2712.32,-1946.02 2988.37,-1863.55 3143.89,-1691 3226.72,-1599.09 3252.8,-1445.71 3260.21,-1383.48"/>
<polygon fill="black" stroke="black" points="3263.72,-1383.62 3261.35,-1373.29 3256.76,-1382.84 3263.72,-1383.62"/>
</g>
<!-- u21 -->
<g id="node12" class="node">
<title>u21</title>
<ellipse fill="#bbbbff" stroke="black" cx="314.89" cy="-1036" rx="159.47" ry="18"/>
<text text-anchor="middle" x="314.89" y="-1032.3" font-family="Times,serif" font-size="14.00">Drasil.DocumentLanguage.Core</text>
</g>
<!-- u17&#45;&gt;u21 -->
<g id="edge35" class="edge">
<title>u17&#45;&gt;u21</title>
<path fill="none" stroke="black" d="M504.31,-1660.52C387.54,-1633.79 124.78,-1555.26 16.89,-1373 -63.03,-1237.99 166.79,-1107.63 268.81,-1058.03"/>
<polygon fill="black" stroke="black" points="270.48,-1061.11 277.98,-1053.62 267.45,-1054.8 270.48,-1061.11"/>
</g>
<!-- u1 -->
<g id="node28" class="node">
<title>u1</title>
<ellipse fill="#bbffff" stroke="black" cx="582.89" cy="-1355" rx="149.47" ry="18"/>
<text text-anchor="middle" x="582.89" y="-1351.3" font-family="Times,serif" font-size="14.00">Drasil.Sections.Requirements</text>
</g>
<!-- u17&#45;&gt;u1 -->
<g id="edge34" class="edge">
<title>u17&#45;&gt;u1</title>
<path fill="none" stroke="black" d="M563.05,-1654.56C566.53,-1602.21 576.9,-1446.16 581.1,-1382.99"/>
<polygon fill="black" stroke="black" points="584.59,-1383.21 581.76,-1373 577.6,-1382.75 584.59,-1383.21"/>
</g>
<!-- u16&#45;&gt;u21 -->
<g id="edge33" class="edge">
<title>u16&#45;&gt;u21</title>
<path fill="none" stroke="black" d="M700.89,-1657.99C553.26,-1616.29 131.16,-1488.71 54.89,-1373 -27.22,-1248.44 182.73,-1110.96 274.48,-1058.73"/>
<polygon fill="black" stroke="black" points="276.24,-1061.76 283.24,-1053.8 272.81,-1055.66 276.24,-1061.76"/>
</g>
<!-- u12&#45;&gt;u21 -->
<g id="edge25" class="edge">
<title>u12&#45;&gt;u21</title>
<path fill="none" stroke="black" d="M906.76,-1658.87C712.61,-1621.91 186.91,-1510.68 87.89,-1373 4.5,-1257.06 195.81,-1113.88 278.83,-1059.44"/>
<polygon fill="black" stroke="black" points="280.96,-1062.22 287.45,-1053.84 277.16,-1056.35 280.96,-1062.22"/>
</g>
<!-- u6 -->
<g id="node23" class="node">
<title>u6</title>
<ellipse fill="#bbffff" stroke="black" cx="957.89" cy="-1355" rx="207.96" ry="18"/>
<text text-anchor="middle" x="957.89" y="-1351.3" font-family="Times,serif" font-size="14.00">Drasil.Sections.SpecificSystemDescription</text>
</g>
<!-- u12&#45;&gt;u6 -->
<g id="edge24" class="edge">
<title>u12&#45;&gt;u6</title>
<path fill="none" stroke="black" d="M977.73,-1654.56C974.25,-1602.21 963.88,-1446.16 959.68,-1382.99"/>
<polygon fill="black" stroke="black" points="963.17,-1382.75 959.02,-1373 956.19,-1383.21 963.17,-1382.75"/>
</g>
<!-- u11 -->
<g id="node18" class="node">
<title>u11</title>
<ellipse fill="#bbffff" stroke="black" cx="255.89" cy="-1355" rx="159.47" ry="18"/>
<text text-anchor="middle" x="255.89" y="-1351.3" font-family="Times,serif" font-size="14.00">Drasil.Sections.TableOfSymbols</text>
</g>
<!-- u15&#45;&gt;u11 -->
<g id="edge32" class="edge">
<title>u15&#45;&gt;u11</title>
<path fill="none" stroke="black" d="M1469.82,-1656.87C1258.25,-1604.43 557.09,-1430.65 328.58,-1374.02"/>
<polygon fill="black" stroke="black" points="329.25,-1370.58 318.7,-1371.57 327.57,-1377.37 329.25,-1370.58"/>
</g>
<!-- u8 -->
<g id="node21" class="node">
<title>u8</title>
<ellipse fill="#bbffff" stroke="black" cx="1360.89" cy="-1355" rx="177.37" ry="18"/>
<text text-anchor="middle" x="1360.89" y="-1351.3" font-family="Times,serif" font-size="14.00">Drasil.Sections.TraceabilityMandGs</text>
</g>
<!-- u15&#45;&gt;u8 -->
<g id="edge31" class="edge">
<title>u15&#45;&gt;u8</title>
<path fill="none" stroke="black" d="M1521.75,-1655.01C1493.67,-1602.82 1408.55,-1444.59 1374.84,-1381.94"/>
<polygon fill="black" stroke="black" points="1377.89,-1380.22 1370.07,-1373.07 1371.73,-1383.54 1377.89,-1380.22"/>
</g>
<!-- u15&#45;&gt;u6 -->
<g id="edge30" class="edge">
<title>u15&#45;&gt;u6</title>
<path fill="none" stroke="black" d="M1500.49,-1655.23C1404.15,-1602.11 1105.67,-1437.5 997.53,-1377.86"/>
<polygon fill="black" stroke="black" points="999.01,-1374.68 988.57,-1372.92 995.63,-1380.81 999.01,-1374.68"/>
</g>
<!-- u5 -->
<g id="node24" class="node">
<title>u5</title>
<ellipse fill="#bbffff" stroke="black" cx="2064.89" cy="-1355" rx="201.46" ry="18"/>
<text text-anchor="middle" x="2064.89" y="-1351.3" font-family="Times,serif" font-size="14.00">Drasil.Sections.TableOfAbbAndAcronyms</text>
</g>
<!-- u15&#45;&gt;u5 -->
<g id="edge29" class="edge">
<title>u15&#45;&gt;u5</title>
<path fill="none" stroke="black" d="M1559.22,-1655.23C1648.91,-1602.16 1926.61,-1437.83 2027.64,-1378.04"/>
<polygon fill="black" stroke="black" points="2029.48,-1381.02 2036.3,-1372.92 2025.91,-1375 2029.48,-1381.02"/>
</g>
<!-- u4 -->
<g id="node25" class="node">
<title>u4</title>
<ellipse fill="#bbffff" stroke="black" cx="1700.89" cy="-1355" rx="144.87" ry="18"/>
<text text-anchor="middle" x="1700.89" y="-1351.3" font-family="Times,serif" font-size="14.00">Drasil.Sections.TableOfUnits</text>
</g>
<!-- u15&#45;&gt;u4 -->
<g id="edge28" class="edge">
<title>u15&#45;&gt;u4</title>
<path fill="none" stroke="black" d="M1540.03,-1655.01C1568.11,-1602.82 1653.23,-1444.59 1686.93,-1381.94"/>
<polygon fill="black" stroke="black" points="1690.05,-1383.54 1691.7,-1373.07 1683.88,-1380.22 1690.05,-1383.54"/>
</g>
<!-- u3 -->
<g id="node26" class="node">
<title>u3</title>
<ellipse fill="#bbffff" stroke="black" cx="2493.89" cy="-1355" rx="172.47" ry="18"/>
<text text-anchor="middle" x="2493.89" y="-1351.3" font-family="Times,serif" font-size="14.00">Drasil.Sections.AuxiliaryConstants</text>
</g>
<!-- u15&#45;&gt;u3 -->
<g id="edge27" class="edge">
<title>u15&#45;&gt;u3</title>
<path fill="none" stroke="black" d="M1579.3,-1656.11C1740.45,-1603.23 2258.46,-1433.26 2434.61,-1375.45"/>
<polygon fill="black" stroke="black" points="2435.82,-1378.74 2444.23,-1372.3 2433.63,-1372.09 2435.82,-1378.74"/>
</g>
<!-- u15&#45;&gt;u1 -->
<g id="edge26" class="edge">
<title>u15&#45;&gt;u1</title>
<path fill="none" stroke="black" d="M1483.23,-1656.11C1324.48,-1603.2 813.98,-1433.03 640.9,-1375.34"/>
<polygon fill="black" stroke="black" points="641.8,-1371.95 631.21,-1372.11 639.59,-1378.59 641.8,-1371.95"/>
</g>
<!-- u14 -->
<g id="node8" class="node">
<title>u14</title>
<ellipse fill="#ffffbb" stroke="black" cx="3547.89" cy="-1673" rx="129.18" ry="18"/>
<text text-anchor="middle" x="3547.89" y="-1669.3" font-family="Times,serif" font-size="14.00">Drasil.DocLang.Notebook</text>
</g>
<!-- u13 -->
<g id="node9" class="node">
<title>u13</title>
<ellipse fill="#ffffbb" stroke="black" cx="2787.89" cy="-1036" rx="104.78" ry="18"/>
<text text-anchor="middle" x="2787.89" y="-1032.3" font-family="Times,serif" font-size="14.00">Drasil.DocLang.SRS</text>
</g>
<!-- u23 -->
<g id="node10" class="node">
<title>u23</title>
<ellipse fill="#bbbbff" stroke="black" cx="957.89" cy="-398" rx="187.37" ry="18"/>
<text text-anchor="middle" x="957.89" y="-394.3" font-family="Times,serif" font-size="14.00">Drasil.DocumentLanguage.Definitions</text>
</g>
<!-- u22 -->
<g id="node11" class="node">
<title>u22</title>
<ellipse fill="#bbbbff" stroke="black" cx="957.89" cy="-80" rx="162.47" ry="18"/>
<text text-anchor="middle" x="957.89" y="-76.3" font-family="Times,serif" font-size="14.00">Drasil.DocumentLanguage.Units</text>
</g>
<!-- u23&#45;&gt;u22 -->
<g id="edge50" class="edge">
<title>u23&#45;&gt;u22</title>
<path fill="none" stroke="black" d="M957.89,-379.56C957.89,-327.32 957.89,-171.81 957.89,-108.39"/>
<polygon fill="black" stroke="black" points="961.39,-108 957.89,-98 954.39,-108 961.39,-108"/>
</g>
<!-- u20 -->
<g id="node13" class="node">
<title>u20</title>
<ellipse fill="#bbbbff" stroke="black" cx="344.89" cy="-717" rx="223.66" ry="18"/>
<text text-anchor="middle" x="344.89" y="-713.3" font-family="Times,serif" font-size="14.00">Drasil.DocumentLanguage.TraceabilityMatrix</text>
</g>
<!-- u21&#45;&gt;u20 -->
<g id="edge49" class="edge">
<title>u21&#45;&gt;u20</title>
<path fill="none" stroke="black" d="M316.5,-1017.96C321.43,-965.93 336.29,-808.82 342.32,-745.19"/>
<polygon fill="black" stroke="black" points="345.81,-745.41 343.27,-735.13 338.84,-744.75 345.81,-745.41"/>
</g>
<!-- u20&#45;&gt;u23 -->
<g id="edge48" class="edge">
<title>u20&#45;&gt;u23</title>
<path fill="none" stroke="black" d="M377.41,-699.18C480.7,-645.77 801.18,-480.04 916.24,-420.54"/>
<polygon fill="black" stroke="black" points="918.17,-423.48 925.44,-415.78 914.95,-417.26 918.17,-423.48"/>
</g>
<!-- u19&#45;&gt;u13 -->
<g id="edge47" class="edge">
<title>u19&#45;&gt;u13</title>
<path fill="none" stroke="black" d="M2336.19,-1655.1C2406.93,-1615.35 2580.33,-1508.94 2674.89,-1373 2745.01,-1272.2 2774.47,-1124.43 2784.05,-1064.13"/>
<polygon fill="black" stroke="black" points="2787.51,-1064.66 2785.57,-1054.24 2780.59,-1063.6 2787.51,-1064.66"/>
</g>
<!-- u19&#45;&gt;u8 -->
<g id="edge46" class="edge">
<title>u19&#45;&gt;u8</title>
<path fill="none" stroke="black" d="M2255.46,-1655.46C2095.44,-1601.89 1591.91,-1433.33 1419.49,-1375.62"/>
<polygon fill="black" stroke="black" points="1420.42,-1372.24 1409.82,-1372.38 1418.2,-1378.87 1420.42,-1372.24"/>
</g>
<!-- u2 -->
<g id="node27" class="node">
<title>u2</title>
<ellipse fill="#bbffff" stroke="black" cx="2064.89" cy="-1036" rx="170.07" ry="18"/>
<text text-anchor="middle" x="2064.89" y="-1032.3" font-family="Times,serif" font-size="14.00">Drasil.Sections.ReferenceMaterial</text>
</g>
<!-- u19&#45;&gt;u2 -->
<g id="edge45" class="edge">
<title>u19&#45;&gt;u2</title>
<path fill="none" stroke="black" d="M2306.38,-1654.96C2310.16,-1604.54 2317.04,-1452.46 2274.89,-1337 2232.76,-1221.59 2134.57,-1109.48 2088.97,-1061.44"/>
<polygon fill="black" stroke="black" points="2091.3,-1058.82 2081.86,-1054.03 2086.25,-1063.67 2091.3,-1058.82"/>
</g>
<!-- u26 -->
<g id="node15" class="node">
<title>u26</title>
<ellipse fill="#ffbbbb" stroke="black" cx="3939.89" cy="-1673" rx="221.76" ry="18"/>
<text text-anchor="middle" x="3939.89" y="-1669.3" font-family="Times,serif" font-size="14.00">Drasil.DocumentLanguage.Notebook.LsnDecl</text>
</g>
<!-- u24 -->
<g id="node17" class="node">
<title>u24</title>
<ellipse fill="#ffbbbb" stroke="black" cx="3951.89" cy="-1355" rx="206.06" ry="18"/>
<text text-anchor="middle" x="3951.89" y="-1351.3" font-family="Times,serif" font-size="14.00">Drasil.DocumentLanguage.Notebook.Core</text>
</g>
<!-- u26&#45;&gt;u24 -->
<g id="edge53" class="edge">
<title>u26&#45;&gt;u24</title>
<path fill="none" stroke="black" d="M3940.55,-1654.56C3942.53,-1602.32 3948.44,-1446.81 3950.85,-1383.39"/>
<polygon fill="black" stroke="black" points="3954.36,-1383.13 3951.24,-1373 3947.37,-1382.86 3954.36,-1383.13"/>
</g>
<!-- u25&#45;&gt;u14 -->
<g id="edge51" class="edge">
<title>u25&#45;&gt;u14</title>
<path fill="none" stroke="black" d="M3547.89,-1973.96C3547.89,-1921.93 3547.89,-1764.82 3547.89,-1701.19"/>
<polygon fill="black" stroke="black" points="3551.39,-1701.13 3547.89,-1691.13 3544.39,-1701.13 3551.39,-1701.13"/>
</g>
<!-- u25&#45;&gt;u26 -->
<g id="edge52" class="edge">
<title>u25&#45;&gt;u26</title>
<path fill="none" stroke="black" d="M3568.96,-1973.96C3634.5,-1920.96 3834.85,-1758.94 3910.53,-1697.74"/>
<polygon fill="black" stroke="black" points="3913.13,-1700.14 3918.71,-1691.13 3908.73,-1694.69 3913.13,-1700.14"/>
</g>
<!-- u11&#45;&gt;u21 -->
<g id="edge23" class="edge">
<title>u11&#45;&gt;u21</title>
<path fill="none" stroke="black" d="M259.06,-1336.96C268.75,-1284.93 297.99,-1127.82 309.83,-1064.19"/>
<polygon fill="black" stroke="black" points="313.31,-1064.6 311.7,-1054.13 306.43,-1063.32 313.31,-1064.6"/>
</g>
<!-- u11&#45;&gt;u2 -->
<g id="edge22" class="edge">
<title>u11&#45;&gt;u2</title>
<path fill="none" stroke="black" d="M338.32,-1339.56C636.1,-1287.37 1655.22,-1108.79 1970.9,-1053.47"/>
<polygon fill="black" stroke="black" points="1971.69,-1056.89 1980.93,-1051.71 1970.48,-1049.99 1971.69,-1056.89"/>
</g>
<!-- u10&#45;&gt;u13 -->
<g id="edge20" class="edge">
<title>u10&#45;&gt;u13</title>
<path fill="none" stroke="black" d="M2877.78,-1336.96C2862.16,-1284.82 2814.91,-1127.17 2795.92,-1063.8"/>
<polygon fill="black" stroke="black" points="2799.25,-1062.7 2793.02,-1054.13 2792.54,-1064.71 2799.25,-1062.7"/>
</g>
<!-- u10&#45;&gt;u21 -->
<g id="edge21" class="edge">
<title>u10&#45;&gt;u21</title>
<path fill="none" stroke="black" d="M2779.04,-1341.18C2367.98,-1290.44 856.44,-1103.85 428.48,-1051.02"/>
<polygon fill="black" stroke="black" points="428.62,-1047.51 418.27,-1049.76 427.76,-1054.46 428.62,-1047.51"/>
</g>
<!-- u9&#45;&gt;u13 -->
<g id="edge18" class="edge">
<title>u9&#45;&gt;u13</title>
<path fill="none" stroke="black" d="M3544.94,-1337.73C3410.49,-1284.32 2982.81,-1114.43 2837.08,-1056.54"/>
<polygon fill="black" stroke="black" points="2838.07,-1053.17 2827.49,-1052.73 2835.49,-1059.67 2838.07,-1053.17"/>
</g>
<!-- u9&#45;&gt;u23 -->
<g id="edge19" class="edge">
<title>u9&#45;&gt;u23</title>
<path fill="none" stroke="black" d="M3555.95,-1337.28C3461.83,-1285.17 3162.72,-1122.92 2901.89,-1018 2188.48,-731.04 1286.99,-485.62 1029.49,-417.66"/>
<polygon fill="black" stroke="black" points="1030.08,-414.19 1019.52,-415.03 1028.3,-420.96 1030.08,-414.19"/>
</g>
<!-- u9&#45;&gt;u2 -->
<g id="edge17" class="edge">
<title>u9&#45;&gt;u2</title>
<path fill="none" stroke="black" d="M3515.58,-1339.35C3265.38,-1287.2 2418.84,-1110.77 2148.57,-1054.44"/>
<polygon fill="black" stroke="black" points="2148.93,-1050.94 2138.43,-1052.33 2147.5,-1057.79 2148.93,-1050.94"/>
</g>
<!-- u8&#45;&gt;u21 -->
<g id="edge16" class="edge">
<title>u8&#45;&gt;u21</title>
<path fill="none" stroke="black" d="M1307.22,-1337.73C1130.41,-1284.15 566.74,-1113.33 377.52,-1055.98"/>
<polygon fill="black" stroke="black" points="378.31,-1052.56 367.72,-1053.01 376.28,-1059.26 378.31,-1052.56"/>
</g>
<!-- u7&#45;&gt;u13 -->
<g id="edge15" class="edge">
<title>u7&#45;&gt;u13</title>
<path fill="none" stroke="black" d="M2999.52,-1654.7C3026.3,-1604.2 3096.87,-1453.23 3052.89,-1337 3005.42,-1211.55 2878.9,-1104.74 2819.5,-1059.77"/>
<polygon fill="black" stroke="black" points="2821.35,-1056.78 2811.25,-1053.59 2817.16,-1062.38 2821.35,-1056.78"/>
</g>
<!-- u6&#45;&gt;u13 -->
<g id="edge13" class="edge">
<title>u6&#45;&gt;u13</title>
<path fill="none" stroke="black" d="M1046.46,-1338.66C1358.89,-1284.54 2406.77,-1103.02 2706.92,-1051.03"/>
<polygon fill="black" stroke="black" points="2707.6,-1054.46 2716.86,-1049.3 2706.41,-1047.56 2707.6,-1054.46"/>
</g>
<!-- u6&#45;&gt;u23 -->
<g id="edge14" class="edge">
<title>u6&#45;&gt;u23</title>
<path fill="none" stroke="black" d="M957.89,-1336.61C957.89,-1221.43 957.89,-568.73 957.89,-426.4"/>
<polygon fill="black" stroke="black" points="961.39,-426.34 957.89,-416.34 954.39,-426.34 961.39,-426.34"/>
</g>
<!-- u6&#45;&gt;u2 -->
<g id="edge12" class="edge">
<title>u6&#45;&gt;u2</title>
<path fill="none" stroke="black" d="M1015.07,-1337.62C1202.73,-1283.89 1799.12,-1113.11 1998.93,-1055.89"/>
<polygon fill="black" stroke="black" points="2000.06,-1059.21 2008.71,-1053.09 1998.13,-1052.48 2000.06,-1059.21"/>
</g>
<!-- u5&#45;&gt;u2 -->
<g id="edge11" class="edge">
<title>u5&#45;&gt;u2</title>
<path fill="none" stroke="black" d="M2064.89,-1336.96C2064.89,-1284.93 2064.89,-1127.82 2064.89,-1064.19"/>
<polygon fill="black" stroke="black" points="2068.39,-1064.13 2064.89,-1054.13 2061.39,-1064.13 2068.39,-1064.13"/>
</g>
<!-- u4&#45;&gt;u21 -->
<g id="edge10" class="edge">
<title>u4&#45;&gt;u21</title>
<path fill="none" stroke="black" d="M1634.97,-1338.92C1404.95,-1286.31 638.49,-1111.01 391.97,-1054.63"/>
<polygon fill="black" stroke="black" points="392.55,-1051.17 382.02,-1052.35 390.99,-1058 392.55,-1051.17"/>
</g>
<!-- u4&#45;&gt;u2 -->
<g id="edge9" class="edge">
<title>u4&#45;&gt;u2</title>
<path fill="none" stroke="black" d="M1720.46,-1336.96C1781.32,-1283.96 1967.36,-1121.94 2037.63,-1060.74"/>
<polygon fill="black" stroke="black" points="2039.98,-1063.33 2045.22,-1054.13 2035.38,-1058.06 2039.98,-1063.33"/>
</g>
<!-- u3&#45;&gt;u13 -->
<g id="edge7" class="edge">
<title>u3&#45;&gt;u13</title>
<path fill="none" stroke="black" d="M2509.7,-1336.96C2558.65,-1284.17 2707.89,-1123.25 2765.17,-1061.49"/>
<polygon fill="black" stroke="black" points="2767.77,-1063.84 2772,-1054.13 2762.64,-1059.08 2767.77,-1063.84"/>
</g>
<!-- u3&#45;&gt;u22 -->
<g id="edge8" class="edge">
<title>u3&#45;&gt;u22</title>
<path fill="none" stroke="black" d="M2483.76,-1336.88C2452.52,-1284.95 2353.17,-1126.19 2243.89,-1018 1807.5,-585.96 1159.3,-197.72 996.2,-102.98"/>
<polygon fill="black" stroke="black" points="997.88,-99.91 987.47,-97.92 994.37,-105.97 997.88,-99.91"/>
</g>
<!-- u3&#45;&gt;u2 -->
<g id="edge6" class="edge">
<title>u3&#45;&gt;u2</title>
<path fill="none" stroke="black" d="M2470.82,-1336.96C2398.87,-1283.79 2178.43,-1120.9 2096.23,-1060.16"/>
<polygon fill="black" stroke="black" points="2097.93,-1057.06 2087.81,-1053.93 2093.77,-1062.69 2097.93,-1057.06"/>
</g>
<!-- u1&#45;&gt;u13 -->
<g id="edge4" class="edge">
<title>u1&#45;&gt;u13</title>
<path fill="none" stroke="black" d="M674.83,-1340.78C1035,-1289 2347.46,-1100.32 2700.14,-1049.62"/>
<polygon fill="black" stroke="black" points="2700.89,-1053.04 2710.29,-1048.16 2699.9,-1046.11 2700.89,-1053.04"/>
</g>
<!-- u1&#45;&gt;u22 -->
<g id="edge5" class="edge">
<title>u1&#45;&gt;u22</title>
<path fill="none" stroke="black" d="M583.52,-1336.94C587.59,-1239.69 615.01,-746.68 761.89,-380 806.51,-268.62 895.51,-154.95 936.42,-105.97"/>
<polygon fill="black" stroke="black" points="939.25,-108.03 943.01,-98.13 933.9,-103.52 939.25,-108.03"/>
</g>
<!-- u1&#45;&gt;u2 -->
<g id="edge3" class="edge">
<title>u1&#45;&gt;u2</title>
<path fill="none" stroke="black" d="M652.88,-1339.03C898.44,-1286.5 1720.14,-1110.74 1983.16,-1054.48"/>
<polygon fill="black" stroke="black" points="1983.98,-1057.88 1993.03,-1052.37 1982.52,-1051.04 1983.98,-1057.88"/>
</g>
<!-- u0&#45;&gt;u13 -->
<g id="edge2" class="edge">
<title>u0&#45;&gt;u13</title>
<path fill="none" stroke="black" d="M3237.69,-1337.18C3157.96,-1283.98 2911.23,-1119.32 2821.2,-1059.23"/>
<polygon fill="black" stroke="black" points="2823,-1056.23 2812.74,-1053.59 2819.12,-1062.05 2823,-1056.23"/>
</g>
<!-- u0&#45;&gt;u2 -->
<g id="edge1" class="edge">
<title>u0&#45;&gt;u2</title>
<path fill="none" stroke="black" d="M3203.07,-1338.17C3001.91,-1284.94 2350.46,-1112.56 2134.88,-1055.52"/>
<polygon fill="black" stroke="black" points="2135.51,-1052.07 2124.95,-1052.89 2133.72,-1058.83 2135.51,-1052.07"/>
</g>
</g>
</svg>
