<?xml version="1.0" encoding="UTF-8" standalone="no"?>
<!DOCTYPE svg PUBLIC "-//W3C//DTD SVG 1.1//EN"
 "http://www.w3.org/Graphics/SVG/1.1/DTD/svg11.dtd">
<!-- Generated by graphviz version 2.43.0 (0)
 -->
<!-- Title: G Pages: 1 -->
<svg width="431pt" height="288pt"
 viewBox="0.00 0.00 431.19 288.00" xmlns="http://www.w3.org/2000/svg" xmlns:xlink="http://www.w3.org/1999/xlink">
<g id="graph0" class="graph" transform="scale(3.95 3.95) rotate(0) translate(4 1134)">
<title>G</title>
<polygon fill="white" stroke="transparent" points="-4,4 -4,-1134 1699.78,-1134 1699.78,4 -4,4"/>
<!-- u7 -->
<g id="node1" class="node">
<title>u7</title>
<ellipse fill="#bbffbb" stroke="black" cx="120.24" cy="-404" rx="120.48" ry="18"/>
<text text-anchor="middle" x="120.24" y="-400.3" font-family="Times,serif" font-size="14.00">Drasil.Website.Analysis</text>
</g>
<!-- u6 -->
<g id="node2" class="node">
<title>u6</title>
<ellipse fill="#bbffbb" stroke="black" cx="390.24" cy="-404" rx="131.08" ry="18"/>
<text text-anchor="middle" x="390.24" y="-400.3" font-family="Times,serif" font-size="14.00">Drasil.Website.CaseStudy</text>
</g>
<!-- u4 -->
<g id="node4" class="node">
<title>u4</title>
<ellipse fill="#bbffbb" stroke="black" cx="390.24" cy="-81" rx="122.38" ry="18"/>
<text text-anchor="middle" x="390.24" y="-77.3" font-family="Times,serif" font-size="14.00">Drasil.Website.Example</text>
</g>
<!-- u6&#45;&gt;u4 -->
<g id="edge7" class="edge">
<title>u6&#45;&gt;u4</title>
<path fill="none" stroke="black" d="M390.24,-385.74C390.24,-333.05 390.24,-173.96 390.24,-109.54"/>
<polygon fill="black" stroke="black" points="393.74,-109.34 390.24,-99.34 386.74,-109.34 393.74,-109.34"/>
</g>
<!-- u5 -->
<g id="node3" class="node">
<title>u5</title>
<ellipse fill="#bbffbb" stroke="black" cx="845.24" cy="-726" rx="104.78" ry="18"/>
<text text-anchor="middle" x="845.24" y="-722.3" font-family="Times,serif" font-size="14.00">Drasil.Website.Body</text>
</g>
<!-- u5&#45;&gt;u7 -->
<g id="edge6" class="edge">
<title>u5&#45;&gt;u7</title>
<path fill="none" stroke="black" d="M808.79,-708.91C687.93,-655.57 300.46,-484.55 166.4,-425.37"/>
<polygon fill="black" stroke="black" points="167.76,-422.15 157.19,-421.31 164.93,-428.55 167.76,-422.15"/>
</g>
<!-- u5&#45;&gt;u6 -->
<g id="edge5" class="edge">
<title>u5&#45;&gt;u6</title>
<path fill="none" stroke="black" d="M821.42,-708.25C745.49,-654.85 509.11,-488.6 422.48,-427.68"/>
<polygon fill="black" stroke="black" points="424.29,-424.67 414.1,-421.78 420.27,-430.4 424.29,-424.67"/>
</g>
<!-- u3 -->
<g id="node5" class="node">
<title>u3</title>
<ellipse fill="#bbffbb" stroke="black" cx="691.24" cy="-404" rx="152.17" ry="18"/>
<text text-anchor="middle" x="691.24" y="-400.3" font-family="Times,serif" font-size="14.00">Drasil.Website.Documentation</text>
</g>
<!-- u5&#45;&gt;u3 -->
<g id="edge4" class="edge">
<title>u5&#45;&gt;u3</title>
<path fill="none" stroke="black" d="M836.96,-707.8C811.58,-655.05 734.73,-495.37 704.07,-431.66"/>
<polygon fill="black" stroke="black" points="707.05,-429.78 699.56,-422.29 700.74,-432.82 707.05,-429.78"/>
</g>
<!-- u2 -->
<g id="node6" class="node">
<title>u2</title>
<ellipse fill="#bbffbb" stroke="black" cx="1000.24" cy="-404" rx="139.18" ry="18"/>
<text text-anchor="middle" x="1000.24" y="-400.3" font-family="Times,serif" font-size="14.00">Drasil.Website.Introduction</text>
</g>
<!-- u5&#45;&gt;u2 -->
<g id="edge3" class="edge">
<title>u5&#45;&gt;u2</title>
<path fill="none" stroke="black" d="M853.57,-707.8C879.12,-655.05 956.47,-495.37 987.33,-431.66"/>
<polygon fill="black" stroke="black" points="990.66,-432.82 991.86,-422.29 984.36,-429.76 990.66,-432.82"/>
</g>
<!-- u1 -->
<g id="node7" class="node">
<title>u1</title>
<ellipse fill="#bbffbb" stroke="black" cx="1309.24" cy="-404" rx="151.37" ry="18"/>
<text text-anchor="middle" x="1309.24" y="-400.3" font-family="Times,serif" font-size="14.00">Drasil.Website.GettingStarted</text>
</g>
<!-- u5&#45;&gt;u1 -->
<g id="edge2" class="edge">
<title>u5&#45;&gt;u1</title>
<path fill="none" stroke="black" d="M869.21,-708.47C946.34,-655.27 1188.25,-488.44 1276.56,-427.54"/>
<polygon fill="black" stroke="black" points="1278.61,-430.38 1284.85,-421.82 1274.64,-424.61 1278.61,-430.38"/>
</g>
<!-- u0 -->
<g id="node8" class="node">
<title>u0</title>
<ellipse fill="#bbffbb" stroke="black" cx="1587.24" cy="-404" rx="108.58" ry="18"/>
<text text-anchor="middle" x="1587.24" y="-400.3" font-family="Times,serif" font-size="14.00">Drasil.Website.About</text>
</g>
<!-- u5&#45;&gt;u0 -->
<g id="edge1" class="edge">
<title>u5&#45;&gt;u0</title>
<path fill="none" stroke="black" d="M882.04,-709.13C1005.4,-655.93 1404.25,-483.92 1540.85,-425.01"/>
<polygon fill="black" stroke="black" points="1542.42,-428.14 1550.22,-420.96 1539.65,-421.71 1542.42,-428.14"/>
</g>
<!-- u8 -->
<g id="node9" class="node">
<title>u8</title>
<ellipse fill="#ffffbb" stroke="black" cx="845.24" cy="-1049" rx="122.38" ry="18"/>
<text text-anchor="middle" x="845.24" y="-1045.3" font-family="Times,serif" font-size="14.00">drasil&#45;website.app.Main</text>
</g>
<!-- u8&#45;&gt;u5 -->
<g id="edge8" class="edge">
<title>u8&#45;&gt;u5</title>
<path fill="none" stroke="black" d="M845.24,-1030.74C845.24,-978.05 845.24,-818.96 845.24,-754.54"/>
<polygon fill="black" stroke="black" points="848.74,-754.34 845.24,-744.34 841.74,-754.34 848.74,-754.34"/>
</g>
</g>
</svg>
