<?xml version="1.0" encoding="UTF-8" standalone="no"?>
<!DOCTYPE svg PUBLIC "-//W3C//DTD SVG 1.1//EN"
 "http://www.w3.org/Graphics/SVG/1.1/DTD/svg11.dtd">
<!-- Generated by graphviz version 2.43.0 (0)
 -->
<!-- Title: G Pages: 1 -->
<svg width="432pt" height="284pt"
 viewBox="0.00 0.00 432.00 283.85" xmlns="http://www.w3.org/2000/svg" xmlns:xlink="http://www.w3.org/1999/xlink">
<g id="graph0" class="graph" transform="scale(13.09 13.09) rotate(0) translate(4 3711.33)">
<title>G</title>
<polygon fill="white" stroke="transparent" points="-4,4 -4,-3711.33 5650.39,-3711.33 5650.39,4 -4,4"/>
<!-- u5 -->
<g id="node1" class="node">
<title>u5</title>
<ellipse fill="#bbffbb" stroke="black" cx="62.39" cy="-3169" rx="42.49" ry="18"/>
<text text-anchor="middle" x="62.39" y="-3165.3" font-family="Times,serif" font-size="14.00">Helper</text>
</g>
<!-- u4 -->
<g id="node2" class="node">
<title>u4</title>
<ellipse fill="#bbffbb" stroke="black" cx="62.39" cy="-3408" rx="62.29" ry="18"/>
<text text-anchor="middle" x="62.39" y="-3404.3" font-family="Times,serif" font-size="14.00">HelloWorld</text>
</g>
<!-- u4&#45;&gt;u5 -->
<g id="edge6" class="edge">
<title>u4&#45;&gt;u5</title>
<path fill="none" stroke="black" d="M62.39,-3389.96C62.39,-3349.4 62.39,-3246.87 62.39,-3197.46"/>
<polygon fill="black" stroke="black" points="65.89,-3197.21 62.39,-3187.21 58.89,-3197.21 65.89,-3197.21"/>
</g>
<!-- u2 -->
<g id="node3" class="node">
<title>u2</title>
<ellipse fill="#bbffbb" stroke="black" cx="207.39" cy="-3408" rx="64.99" ry="18"/>
<text text-anchor="middle" x="207.39" y="-3404.3" font-family="Times,serif" font-size="14.00">PatternTest</text>
</g>
<!-- u0 -->
<g id="node5" class="node">
<title>u0</title>
<ellipse fill="#bbffbb" stroke="black" cx="191.39" cy="-3169" rx="53.89" ry="18"/>
<text text-anchor="middle" x="191.39" y="-3165.3" font-family="Times,serif" font-size="14.00">Observer</text>
</g>
<!-- u2&#45;&gt;u0 -->
<g id="edge1" class="edge">
<title>u2&#45;&gt;u0</title>
<path fill="none" stroke="black" d="M206.24,-3389.96C203.51,-3349.4 196.58,-3246.87 193.25,-3197.46"/>
<polygon fill="black" stroke="black" points="196.72,-3196.95 192.56,-3187.21 189.74,-3197.42 196.72,-3196.95"/>
</g>
<!-- u1 -->
<g id="node4" class="node">
<title>u1</title>
<ellipse fill="#bbffbb" stroke="black" cx="343.39" cy="-3408" rx="52.79" ry="18"/>
<text text-anchor="middle" x="343.39" y="-3404.3" font-family="Times,serif" font-size="14.00">FileTests</text>
</g>
<!-- u6 -->
<g id="node6" class="node">
<title>u6</title>
<ellipse fill="#ffffbb" stroke="black" cx="1787.39" cy="-3648" rx="214.46" ry="18"/>
<text text-anchor="middle" x="1787.39" y="-3644.3" font-family="Times,serif" font-size="14.00">Data.Drasil.ExternalLibraries.ODELibraries</text>
</g>
<!-- u7 -->
<g id="node10" class="node">
<title>u7</title>
<ellipse fill="#bbbbff" stroke="black" cx="1787.39" cy="-3408" rx="113.18" ry="18"/>
<text text-anchor="middle" x="1787.39" y="-3404.3" font-family="Times,serif" font-size="14.00">Language.Drasil.Code</text>
</g>
<!-- u6&#45;&gt;u7 -->
<g id="edge7" class="edge">
<title>u6&#45;&gt;u7</title>
<path fill="none" stroke="black" d="M1787.39,-3629.88C1787.39,-3589.16 1787.39,-3486.2 1787.39,-3436.57"/>
<polygon fill="black" stroke="black" points="1790.89,-3436.28 1787.39,-3426.28 1783.89,-3436.28 1790.89,-3436.28"/>
</g>
<!-- u56 -->
<g id="node7" class="node">
<title>u56</title>
<ellipse fill="#bbbbff" stroke="black" cx="3552.39" cy="-777" rx="110.48" ry="18"/>
<text text-anchor="middle" x="3552.39" y="-773.3" font-family="Times,serif" font-size="14.00">Language.Drasil.Mod</text>
</g>
<!-- u13 -->
<g id="node14" class="node">
<title>u13</title>
<ellipse fill="#ffbbbb" stroke="black" cx="3148.39" cy="-538" rx="170.87" ry="18"/>
<text text-anchor="middle" x="3148.39" y="-534.3" font-family="Times,serif" font-size="14.00">Language.Drasil.Chunk.Parameter</text>
</g>
<!-- u56&#45;&gt;u13 -->
<g id="edge88" class="edge">
<title>u56&#45;&gt;u13</title>
<path fill="none" stroke="black" d="M3524.31,-759.52C3453.23,-717.83 3266.2,-608.11 3185.9,-561"/>
<polygon fill="black" stroke="black" points="3187.5,-557.88 3177.1,-555.84 3183.96,-563.92 3187.5,-557.88"/>
</g>
<!-- u54 -->
<g id="node17" class="node">
<title>u54</title>
<ellipse fill="#bbffff" stroke="black" cx="2504.39" cy="-538" rx="160.57" ry="18"/>
<text text-anchor="middle" x="2504.39" y="-534.3" font-family="Times,serif" font-size="14.00">Language.Drasil.Code.DataDesc</text>
</g>
<!-- u56&#45;&gt;u54 -->
<g id="edge89" class="edge">
<title>u56&#45;&gt;u54</title>
<path fill="none" stroke="black" d="M3490.75,-762.06C3310.07,-721.2 2781.97,-601.77 2582.18,-556.59"/>
<polygon fill="black" stroke="black" points="2582.87,-553.16 2572.35,-554.37 2581.33,-559.99 2582.87,-553.16"/>
</g>
<!-- u55 -->
<g id="node8" class="node">
<title>u55</title>
<ellipse fill="#bbbbff" stroke="black" cx="2935.39" cy="-1495" rx="126.18" ry="18"/>
<text text-anchor="middle" x="2935.39" y="-1491.3" font-family="Times,serif" font-size="14.00">Language.Drasil.Choices</text>
</g>
<!-- u17 -->
<g id="node24" class="node">
<title>u17</title>
<ellipse fill="#bbffff" stroke="black" cx="2223.39" cy="-1256" rx="139.98" ry="18"/>
<text text-anchor="middle" x="2223.39" y="-1252.3" font-family="Times,serif" font-size="14.00">Language.Drasil.Code.Code</text>
</g>
<!-- u55&#45;&gt;u17 -->
<g id="edge87" class="edge">
<title>u55&#45;&gt;u17</title>
<path fill="none" stroke="black" d="M2888.13,-1478.27C2762.1,-1436.32 2418.33,-1321.89 2281.1,-1276.21"/>
<polygon fill="black" stroke="black" points="2282.17,-1272.88 2271.58,-1273.04 2279.96,-1279.52 2282.17,-1272.88"/>
</g>
<!-- u10 -->
<g id="node55" class="node">
<title>u10</title>
<ellipse fill="#ff77ff" stroke="black" cx="3022.39" cy="-1256" rx="172.77" ry="18"/>
<text text-anchor="middle" x="3022.39" y="-1252.3" font-family="Times,serif" font-size="14.00">Language.Drasil.Data.ODELibPckg</text>
</g>
<!-- u55&#45;&gt;u10 -->
<g id="edge86" class="edge">
<title>u55&#45;&gt;u10</title>
<path fill="none" stroke="black" d="M2941.65,-1476.96C2956.6,-1436.23 2994.49,-1333.01 3012.54,-1283.84"/>
<polygon fill="black" stroke="black" points="3015.92,-1284.8 3016.08,-1274.21 3009.35,-1282.39 3015.92,-1284.8"/>
</g>
<!-- u8 -->
<g id="node9" class="node">
<title>u8</title>
<ellipse fill="#bbbbff" stroke="black" cx="3527.39" cy="-1734" rx="135.68" ry="18"/>
<text text-anchor="middle" x="3527.39" y="-1730.3" font-family="Times,serif" font-size="14.00">Language.Drasil.CodeSpec</text>
</g>
<!-- u8&#45;&gt;u55 -->
<g id="edge17" class="edge">
<title>u8&#45;&gt;u55</title>
<path fill="none" stroke="black" d="M3486.7,-1716.71C3381.36,-1674.54 3099.98,-1561.89 2985.19,-1515.94"/>
<polygon fill="black" stroke="black" points="2986.17,-1512.56 2975.59,-1512.09 2983.57,-1519.06 2986.17,-1512.56"/>
</g>
<!-- u15 -->
<g id="node12" class="node">
<title>u15</title>
<ellipse fill="#ffbbbb" stroke="black" cx="3271.39" cy="-1495" rx="192.27" ry="18"/>
<text text-anchor="middle" x="3271.39" y="-1491.3" font-family="Times,serif" font-size="14.00">Language.Drasil.Chunk.ConstraintMap</text>
</g>
<!-- u8&#45;&gt;u15 -->
<g id="edge16" class="edge">
<title>u8&#45;&gt;u15</title>
<path fill="none" stroke="black" d="M3508.98,-1715.96C3464.17,-1674.46 3349.28,-1568.1 3297.45,-1520.12"/>
<polygon fill="black" stroke="black" points="3299.7,-1517.43 3289.98,-1513.21 3294.94,-1522.57 3299.7,-1517.43"/>
</g>
<!-- u12 -->
<g id="node15" class="node">
<title>u12</title>
<ellipse fill="#ffbbbb" stroke="black" cx="3672.39" cy="-1495" rx="191.17" ry="18"/>
<text text-anchor="middle" x="3672.39" y="-1491.3" font-family="Times,serif" font-size="14.00">Language.Drasil.Chunk.CodeDefinition</text>
</g>
<!-- u8&#45;&gt;u12 -->
<g id="edge15" class="edge">
<title>u8&#45;&gt;u12</title>
<path fill="none" stroke="black" d="M3537.82,-1715.96C3562.9,-1674.97 3626.68,-1570.71 3656.54,-1521.92"/>
<polygon fill="black" stroke="black" points="3659.63,-1523.57 3661.87,-1513.21 3653.66,-1519.91 3659.63,-1523.57"/>
</g>
<!-- u50 -->
<g id="node27" class="node">
<title>u50</title>
<ellipse fill="#ffbbff" stroke="black" cx="4604.39" cy="-3169" rx="217.16" ry="18"/>
<text text-anchor="middle" x="4604.39" y="-3165.3" font-family="Times,serif" font-size="14.00">Language.Drasil.Code.Imperative.Generator</text>
</g>
<!-- u7&#45;&gt;u50 -->
<g id="edge14" class="edge">
<title>u7&#45;&gt;u50</title>
<path fill="none" stroke="black" d="M1884.77,-3398.81C2301,-3363.79 3932.88,-3226.5 4447.82,-3183.17"/>
<polygon fill="black" stroke="black" points="4448.25,-3186.65 4457.93,-3182.32 4447.67,-3179.67 4448.25,-3186.65"/>
</g>
<!-- u28 -->
<g id="node37" class="node">
<title>u28</title>
<ellipse fill="#ffbbff" stroke="black" cx="715.39" cy="-1973" rx="217.96" ry="18"/>
<text text-anchor="middle" x="715.39" y="-1969.3" font-family="Times,serif" font-size="14.00">Language.Drasil.Code.Imperative.ReadInput</text>
</g>
<!-- u7&#45;&gt;u28 -->
<g id="edge8" class="edge">
<title>u7&#45;&gt;u28</title>
<path fill="none" stroke="black" d="M1692.97,-3398.07C1361.86,-3364.18 273.39,-3230.04 273.39,-2931 273.39,-2931 273.39,-2931 273.39,-2451 273.39,-2219.02 558.14,-2052.14 670.54,-1995.3"/>
<polygon fill="black" stroke="black" points="672.22,-1998.37 679.6,-1990.77 669.09,-1992.11 672.22,-1998.37"/>
</g>
<!-- u38 -->
<g id="node48" class="node">
<title>u38</title>
<ellipse fill="#ff7777" stroke="black" cx="2160.39" cy="-2930" rx="367.43" ry="18"/>
<text text-anchor="middle" x="2160.39" y="-2926.3" font-family="Times,serif" font-size="14.00">Language.Drasil.Code.Imperative.GOOL.LanguageRenderer.PythonRenderer</text>
</g>
<!-- u7&#45;&gt;u38 -->
<g id="edge13" class="edge">
<title>u7&#45;&gt;u38</title>
<path fill="none" stroke="black" d="M1800.67,-3390.06C1856.63,-3318.65 2073.47,-3041.93 2140.52,-2956.36"/>
<polygon fill="black" stroke="black" points="2143.48,-2958.27 2146.89,-2948.24 2137.97,-2953.95 2143.48,-2958.27"/>
</g>
<!-- u37 -->
<g id="node49" class="node">
<title>u37</title>
<ellipse fill="#ff7777" stroke="black" cx="2898.39" cy="-2930" rx="352.84" ry="18"/>
<text text-anchor="middle" x="2898.39" y="-2926.3" font-family="Times,serif" font-size="14.00">Language.Drasil.Code.Imperative.GOOL.LanguageRenderer.CppRenderer</text>
</g>
<!-- u7&#45;&gt;u37 -->
<g id="edge12" class="edge">
<title>u7&#45;&gt;u37</title>
<path fill="none" stroke="black" d="M1825,-3390.89C1991.44,-3319.58 2661.93,-3032.31 2849.45,-2951.97"/>
<polygon fill="black" stroke="black" points="2850.98,-2955.12 2858.79,-2947.97 2848.22,-2948.69 2850.98,-2955.12"/>
</g>
<!-- u36 -->
<g id="node50" class="node">
<title>u36</title>
<ellipse fill="#ff7777" stroke="black" cx="3623.39" cy="-2930" rx="354.44" ry="18"/>
<text text-anchor="middle" x="3623.39" y="-2926.3" font-family="Times,serif" font-size="14.00">Language.Drasil.Code.Imperative.GOOL.LanguageRenderer.JavaRenderer</text>
</g>
<!-- u7&#45;&gt;u36 -->
<g id="edge11" class="edge">
<title>u7&#45;&gt;u36</title>
<path fill="none" stroke="black" d="M1843.85,-3392.36C2110.72,-3323.18 3245.39,-3029 3548.63,-2950.38"/>
<polygon fill="black" stroke="black" points="3549.83,-2953.69 3558.64,-2947.79 3548.08,-2946.91 3549.83,-2953.69"/>
</g>
<!-- u35 -->
<g id="node51" class="node">
<title>u35</title>
<ellipse fill="#ff7777" stroke="black" cx="670.39" cy="-2930" rx="369.33" ry="18"/>
<text text-anchor="middle" x="670.39" y="-2926.3" font-family="Times,serif" font-size="14.00">Language.Drasil.Code.Imperative.GOOL.LanguageRenderer.CSharpRenderer</text>
</g>
<!-- u7&#45;&gt;u35 -->
<g id="edge10" class="edge">
<title>u7&#45;&gt;u35</title>
<path fill="none" stroke="black" d="M1749.59,-3390.89C1582.25,-3319.58 908.14,-3032.31 719.6,-2951.97"/>
<polygon fill="black" stroke="black" points="720.79,-2948.67 710.21,-2947.97 718.04,-2955.11 720.79,-2948.67"/>
</g>
<!-- u34 -->
<g id="node52" class="node">
<title>u34</title>
<ellipse fill="#ff7777" stroke="black" cx="1416.39" cy="-2930" rx="358.54" ry="18"/>
<text text-anchor="middle" x="1416.39" y="-2926.3" font-family="Times,serif" font-size="14.00">Language.Drasil.Code.Imperative.GOOL.LanguageRenderer.SwiftRenderer</text>
</g>
<!-- u7&#45;&gt;u34 -->
<g id="edge9" class="edge">
<title>u7&#45;&gt;u34</title>
<path fill="none" stroke="black" d="M1774.19,-3390.06C1718.53,-3318.65 1502.85,-3041.93 1436.16,-2956.36"/>
<polygon fill="black" stroke="black" points="1438.74,-2953.97 1429.83,-2948.24 1433.21,-2958.27 1438.74,-2953.97"/>
</g>
<!-- u16 -->
<g id="node11" class="node">
<title>u16</title>
<ellipse fill="#ffbbbb" stroke="black" cx="3221.39" cy="-777" rx="202.26" ry="18"/>
<text text-anchor="middle" x="3221.39" y="-773.3" font-family="Times,serif" font-size="14.00">Language.Drasil.Chunk.NamedArgument</text>
</g>
<!-- u14 -->
<g id="node13" class="node">
<title>u14</title>
<ellipse fill="#ffbbbb" stroke="black" cx="2711.39" cy="-60" rx="168.17" ry="18"/>
<text text-anchor="middle" x="2711.39" y="-56.3" font-family="Times,serif" font-size="14.00">Language.Drasil.Chunk.CodeBase</text>
</g>
<!-- u11 -->
<g id="node16" class="node">
<title>u11</title>
<ellipse fill="#ffbbbb" stroke="black" cx="2711.39" cy="-299" rx="145.67" ry="18"/>
<text text-anchor="middle" x="2711.39" y="-295.3" font-family="Times,serif" font-size="14.00">Language.Drasil.Chunk.Code</text>
</g>
<!-- u13&#45;&gt;u11 -->
<g id="edge25" class="edge">
<title>u13&#45;&gt;u11</title>
<path fill="none" stroke="black" d="M3117.32,-520.15C3039.62,-478.01 2836.98,-368.11 2750.95,-321.45"/>
<polygon fill="black" stroke="black" points="2752.48,-318.3 2742.02,-316.61 2749.14,-324.45 2752.48,-318.3"/>
</g>
<!-- u9 -->
<g id="node56" class="node">
<title>u9</title>
<ellipse fill="#ff77ff" stroke="black" cx="2711.39" cy="-1017" rx="154.07" ry="18"/>
<text text-anchor="middle" x="2711.39" y="-1013.3" font-family="Times,serif" font-size="14.00">Language.Drasil.Data.ODEInfo</text>
</g>
<!-- u12&#45;&gt;u9 -->
<g id="edge24" class="edge">
<title>u12&#45;&gt;u9</title>
<path fill="none" stroke="black" d="M3579.14,-1479.22C3386.87,-1447.2 2954.86,-1366.8 2840.39,-1274 2765.35,-1213.16 2729.94,-1097.38 2717.21,-1044.97"/>
<polygon fill="black" stroke="black" points="2720.58,-1044.02 2714.89,-1035.08 2713.76,-1045.62 2720.58,-1044.02"/>
</g>
<!-- u11&#45;&gt;u14 -->
<g id="edge23" class="edge">
<title>u11&#45;&gt;u14</title>
<path fill="none" stroke="black" d="M2711.39,-280.96C2711.39,-240.4 2711.39,-137.87 2711.39,-88.46"/>
<polygon fill="black" stroke="black" points="2714.89,-88.21 2711.39,-78.21 2707.89,-88.21 2714.89,-88.21"/>
</g>
<!-- u54&#45;&gt;u11 -->
<g id="edge85" class="edge">
<title>u54&#45;&gt;u11</title>
<path fill="none" stroke="black" d="M2519.28,-519.96C2555.3,-478.72 2647.28,-373.41 2689.55,-325.01"/>
<polygon fill="black" stroke="black" points="2692.42,-327.04 2696.36,-317.21 2687.15,-322.44 2692.42,-327.04"/>
</g>
<!-- u53 -->
<g id="node18" class="node">
<title>u53</title>
<ellipse fill="#bbffff" stroke="black" cx="3387.39" cy="-1017" rx="207.96" ry="18"/>
<text text-anchor="middle" x="3387.39" y="-1013.3" font-family="Times,serif" font-size="14.00">Language.Drasil.Code.ExternalLibraryCall</text>
</g>
<!-- u53&#45;&gt;u56 -->
<g id="edge84" class="edge">
<title>u53&#45;&gt;u56</title>
<path fill="none" stroke="black" d="M3399.26,-998.88C3427.92,-957.54 3501.04,-852.08 3534.81,-803.37"/>
<polygon fill="black" stroke="black" points="3537.81,-805.17 3540.64,-794.96 3532.06,-801.19 3537.81,-805.17"/>
</g>
<!-- u53&#45;&gt;u16 -->
<g id="edge83" class="edge">
<title>u53&#45;&gt;u16</title>
<path fill="none" stroke="black" d="M3375.46,-998.88C3346.69,-957.64 3273.42,-852.59 3239.34,-803.72"/>
<polygon fill="black" stroke="black" points="3242.04,-801.48 3233.45,-795.28 3236.3,-805.49 3242.04,-801.48"/>
</g>
<!-- u22 -->
<g id="node19" class="node">
<title>u22</title>
<ellipse fill="#bbffff" stroke="black" cx="3847.39" cy="-1256" rx="178.97" ry="18"/>
<text text-anchor="middle" x="3847.39" y="-1252.3" font-family="Times,serif" font-size="14.00">Language.Drasil.Code.ExtLibImport</text>
</g>
<!-- u22&#45;&gt;u53 -->
<g id="edge31" class="edge">
<title>u22&#45;&gt;u53</title>
<path fill="none" stroke="black" d="M3814.68,-1238.15C3732.92,-1196.02 3519.77,-1086.2 3429.14,-1039.51"/>
<polygon fill="black" stroke="black" points="3430.74,-1036.4 3420.25,-1034.93 3427.54,-1042.62 3430.74,-1036.4"/>
</g>
<!-- u19 -->
<g id="node22" class="node">
<title>u19</title>
<ellipse fill="#bbffff" stroke="black" cx="3803.39" cy="-1017" rx="190.37" ry="18"/>
<text text-anchor="middle" x="3803.39" y="-1013.3" font-family="Times,serif" font-size="14.00">Language.Drasil.Code.ExternalLibrary</text>
</g>
<!-- u22&#45;&gt;u19 -->
<g id="edge30" class="edge">
<title>u22&#45;&gt;u19</title>
<path fill="none" stroke="black" d="M3844.23,-1237.96C3836.69,-1197.32 3817.59,-1094.44 3808.43,-1045.15"/>
<polygon fill="black" stroke="black" points="3811.86,-1044.4 3806.59,-1035.21 3804.97,-1045.68 3811.86,-1044.4"/>
</g>
<!-- u21 -->
<g id="node20" class="node">
<title>u21</title>
<ellipse fill="#bbffff" stroke="black" cx="4186.39" cy="-2930" rx="191.17" ry="18"/>
<text text-anchor="middle" x="4186.39" y="-2926.3" font-family="Times,serif" font-size="14.00">Language.Drasil.Code.CodeGeneration</text>
</g>
<!-- u21&#45;&gt;u17 -->
<g id="edge28" class="edge">
<title>u21&#45;&gt;u17</title>
<path fill="none" stroke="black" d="M4091.53,-2914.31C3949.63,-2889.22 3677.3,-2828.76 3476.39,-2709 3326.29,-2619.53 3340.35,-2531.59 3195.39,-2434 2786.08,-2158.44 2447.88,-2403.69 2177.39,-1991 2099.26,-1871.78 2192.41,-1402.16 2217.5,-1284.06"/>
<polygon fill="black" stroke="black" points="2220.97,-1284.56 2219.65,-1274.05 2214.13,-1283.1 2220.97,-1284.56"/>
</g>
<!-- u31 -->
<g id="node47" class="node">
<title>u31</title>
<ellipse fill="#7777ff" stroke="black" cx="2489.39" cy="-2691" rx="222.06" ry="18"/>
<text text-anchor="middle" x="2489.39" y="-2687.3" font-family="Times,serif" font-size="14.00">Language.Drasil.Code.Imperative.GOOL.Data</text>
</g>
<!-- u21&#45;&gt;u31 -->
<g id="edge29" class="edge">
<title>u21&#45;&gt;u31</title>
<path fill="none" stroke="black" d="M4084.38,-2914.75C3786.78,-2873.19 2920.87,-2752.26 2605.78,-2708.25"/>
<polygon fill="black" stroke="black" points="2606.1,-2704.77 2595.71,-2706.85 2605.13,-2711.7 2606.1,-2704.77"/>
</g>
<!-- u20 -->
<g id="node21" class="node">
<title>u20</title>
<ellipse fill="#bbffff" stroke="black" cx="3022.39" cy="-1017" rx="139.18" ry="18"/>
<text text-anchor="middle" x="3022.39" y="-1013.3" font-family="Times,serif" font-size="14.00">Language.Drasil.Code.Lang</text>
</g>
<!-- u19&#45;&gt;u56 -->
<g id="edge27" class="edge">
<title>u19&#45;&gt;u56</title>
<path fill="none" stroke="black" d="M3785.34,-998.88C3741.29,-957.12 3628.21,-849.88 3577.57,-801.87"/>
<polygon fill="black" stroke="black" points="3579.95,-799.3 3570.28,-794.96 3575.13,-804.38 3579.95,-799.3"/>
</g>
<!-- u19&#45;&gt;u16 -->
<g id="edge26" class="edge">
<title>u19&#45;&gt;u16</title>
<path fill="none" stroke="black" d="M3762.47,-999.26C3658.64,-956.8 3385.17,-844.97 3271.77,-798.6"/>
<polygon fill="black" stroke="black" points="3272.86,-795.26 3262.27,-794.72 3270.21,-801.74 3272.86,-795.26"/>
</g>
<!-- u18 -->
<g id="node23" class="node">
<title>u18</title>
<ellipse fill="#bbffff" stroke="black" cx="5338.39" cy="-2212" rx="204.16" ry="18"/>
<text text-anchor="middle" x="5338.39" y="-2208.3" font-family="Times,serif" font-size="14.00">Language.Drasil.Code.CodeQuantityDicts</text>
</g>
<!-- u52 -->
<g id="node25" class="node">
<title>u52</title>
<ellipse fill="#ffbbff" stroke="black" cx="4478.39" cy="-2452" rx="201.46" ry="18"/>
<text text-anchor="middle" x="4478.39" y="-2448.3" font-family="Times,serif" font-size="14.00">Language.Drasil.Code.Imperative.Import</text>
</g>
<!-- u52&#45;&gt;u18 -->
<g id="edge77" class="edge">
<title>u52&#45;&gt;u18</title>
<path fill="none" stroke="black" d="M4537.17,-2434.73C4691.04,-2392.15 5105.15,-2277.55 5269.66,-2232.02"/>
<polygon fill="black" stroke="black" points="5270.95,-2235.3 5279.66,-2229.25 5269.09,-2228.55 5270.95,-2235.3"/>
</g>
<!-- u49 -->
<g id="node28" class="node">
<title>u49</title>
<ellipse fill="#ffbbff" stroke="black" cx="3556.39" cy="-2212" rx="240.46" ry="18"/>
<text text-anchor="middle" x="3556.39" y="-2208.3" font-family="Times,serif" font-size="14.00">Language.Drasil.Code.Imperative.GenerateGOOL</text>
</g>
<!-- u52&#45;&gt;u49 -->
<g id="edge82" class="edge">
<title>u52&#45;&gt;u49</title>
<path fill="none" stroke="black" d="M4415.75,-2434.83C4250.96,-2392.29 3806.02,-2277.44 3629.75,-2231.94"/>
<polygon fill="black" stroke="black" points="3630.6,-2228.54 3620.04,-2229.43 3628.85,-2235.32 3630.6,-2228.54"/>
</g>
<!-- u46 -->
<g id="node29" class="node">
<title>u46</title>
<ellipse fill="#ffbbff" stroke="black" cx="4909.39" cy="-2212" rx="207.16" ry="18"/>
<text text-anchor="middle" x="4909.39" y="-2208.3" font-family="Times,serif" font-size="14.00">Language.Drasil.Code.Imperative.Logging</text>
</g>
<!-- u52&#45;&gt;u46 -->
<g id="edge81" class="edge">
<title>u52&#45;&gt;u46</title>
<path fill="none" stroke="black" d="M4509.05,-2434.07C4585.59,-2391.81 4785.04,-2281.67 4870.07,-2234.71"/>
<polygon fill="black" stroke="black" points="4871.84,-2237.74 4878.9,-2229.84 4868.45,-2231.61 4871.84,-2237.74"/>
</g>
<!-- u30 -->
<g id="node35" class="node">
<title>u30</title>
<ellipse fill="#ffbbff" stroke="black" cx="4034.39" cy="-2212" rx="219.86" ry="18"/>
<text text-anchor="middle" x="4034.39" y="-2208.3" font-family="Times,serif" font-size="14.00">Language.Drasil.Code.Imperative.Comments</text>
</g>
<!-- u52&#45;&gt;u30 -->
<g id="edge80" class="edge">
<title>u52&#45;&gt;u30</title>
<path fill="none" stroke="black" d="M4446.82,-2434.07C4367.89,-2391.77 4162.08,-2281.44 4074.64,-2234.57"/>
<polygon fill="black" stroke="black" points="4076.28,-2231.48 4065.81,-2229.84 4072.97,-2237.65 4076.28,-2231.48"/>
</g>
<!-- u29 -->
<g id="node36" class="node">
<title>u29</title>
<ellipse fill="#ffbbff" stroke="black" cx="4478.39" cy="-2212" rx="206.06" ry="18"/>
<text text-anchor="middle" x="4478.39" y="-2208.3" font-family="Times,serif" font-size="14.00">Language.Drasil.Code.Imperative.Helpers</text>
</g>
<!-- u52&#45;&gt;u29 -->
<g id="edge79" class="edge">
<title>u52&#45;&gt;u29</title>
<path fill="none" stroke="black" d="M4478.39,-2433.88C4478.39,-2393.16 4478.39,-2290.2 4478.39,-2240.57"/>
<polygon fill="black" stroke="black" points="4481.89,-2240.28 4478.39,-2230.28 4474.89,-2240.28 4481.89,-2240.28"/>
</g>
<!-- u24 -->
<g id="node40" class="node">
<title>u24</title>
<ellipse fill="#ffbbff" stroke="black" cx="3136.39" cy="-1734" rx="237.46" ry="18"/>
<text text-anchor="middle" x="3136.39" y="-1730.3" font-family="Times,serif" font-size="14.00">Language.Drasil.Code.Imperative.ConceptMatch</text>
</g>
<!-- u52&#45;&gt;u24 -->
<g id="edge78" class="edge">
<title>u52&#45;&gt;u24</title>
<path fill="none" stroke="black" d="M4315.01,-2441.44C4028.2,-2421.3 3450.9,-2364.77 3307.39,-2230 3215.46,-2143.66 3279.43,-2073.91 3237.39,-1955 3211.85,-1882.73 3171.44,-1801.78 3150.31,-1761.19"/>
<polygon fill="black" stroke="black" points="3153.36,-1759.47 3145.62,-1752.23 3147.16,-1762.71 3153.36,-1759.47"/>
</g>
<!-- u51 -->
<g id="node26" class="node">
<title>u51</title>
<ellipse fill="#ffbbff" stroke="black" cx="5338.39" cy="-2452" rx="223.66" ry="18"/>
<text text-anchor="middle" x="5338.39" y="-2448.3" font-family="Times,serif" font-size="14.00">Language.Drasil.Code.Imperative.Parameters</text>
</g>
<!-- u51&#45;&gt;u18 -->
<g id="edge75" class="edge">
<title>u51&#45;&gt;u18</title>
<path fill="none" stroke="black" d="M5338.39,-2433.88C5338.39,-2393.16 5338.39,-2290.2 5338.39,-2240.57"/>
<polygon fill="black" stroke="black" points="5341.89,-2240.28 5338.39,-2230.28 5334.89,-2240.28 5341.89,-2240.28"/>
</g>
<!-- u23 -->
<g id="node41" class="node">
<title>u23</title>
<ellipse fill="#ffbbff" stroke="black" cx="4129.39" cy="-1973" rx="222.06" ry="18"/>
<text text-anchor="middle" x="4129.39" y="-1969.3" font-family="Times,serif" font-size="14.00">Language.Drasil.Code.Imperative.DrasilState</text>
</g>
<!-- u51&#45;&gt;u23 -->
<g id="edge76" class="edge">
<title>u51&#45;&gt;u23</title>
<path fill="none" stroke="black" d="M5371.56,-2434.15C5448.72,-2392.85 5628.05,-2283.43 5551.39,-2194 5400.84,-2018.36 4723.88,-1981.71 4360.96,-1974.87"/>
<polygon fill="black" stroke="black" points="4360.91,-1971.37 4350.85,-1974.69 4360.79,-1978.37 4360.91,-1971.37"/>
</g>
<!-- u50&#45;&gt;u21 -->
<g id="edge71" class="edge">
<title>u50&#45;&gt;u21</title>
<path fill="none" stroke="black" d="M4574.67,-3151.15C4500.6,-3109.15 4307.85,-2999.87 4225.08,-2952.94"/>
<polygon fill="black" stroke="black" points="4226.67,-2949.81 4216.25,-2947.93 4223.22,-2955.9 4226.67,-2949.81"/>
</g>
<!-- u44 -->
<g id="node31" class="node">
<title>u44</title>
<ellipse fill="#ffbbff" stroke="black" cx="4604.39" cy="-2930" rx="209.06" ry="18"/>
<text text-anchor="middle" x="4604.39" y="-2926.3" font-family="Times,serif" font-size="14.00">Language.Drasil.Code.Imperative.Modules</text>
</g>
<!-- u50&#45;&gt;u44 -->
<g id="edge74" class="edge">
<title>u50&#45;&gt;u44</title>
<path fill="none" stroke="black" d="M4604.39,-3150.96C4604.39,-3110.4 4604.39,-3007.87 4604.39,-2958.46"/>
<polygon fill="black" stroke="black" points="4607.89,-2958.21 4604.39,-2948.21 4600.89,-2958.21 4607.89,-2958.21"/>
</g>
<!-- u41 -->
<g id="node33" class="node">
<title>u41</title>
<ellipse fill="#ffbbff" stroke="black" cx="5288.39" cy="-2691" rx="226.66" ry="18"/>
<text text-anchor="middle" x="5288.39" y="-2687.3" font-family="Times,serif" font-size="14.00">Language.Drasil.Code.Imperative.SpaceMatch</text>
</g>
<!-- u50&#45;&gt;u41 -->
<g id="edge73" class="edge">
<title>u50&#45;&gt;u41</title>
<path fill="none" stroke="black" d="M4628.74,-3151.06C4732.4,-3078.92 5137.15,-2797.25 5255.64,-2714.8"/>
<polygon fill="black" stroke="black" points="5257.78,-2717.57 5263.99,-2708.99 5253.78,-2711.83 5257.78,-2717.57"/>
</g>
<!-- u40 -->
<g id="node34" class="node">
<title>u40</title>
<ellipse fill="#ffbbff" stroke="black" cx="3891.39" cy="-1734" rx="209.86" ry="18"/>
<text text-anchor="middle" x="3891.39" y="-1730.3" font-family="Times,serif" font-size="14.00">Language.Drasil.Code.Imperative.GenODE</text>
</g>
<!-- u50&#45;&gt;u40 -->
<g id="edge72" class="edge">
<title>u50&#45;&gt;u40</title>
<path fill="none" stroke="black" d="M4808.71,-3162.84C5112.11,-3143.1 5646.39,-3056.58 5646.39,-2692 5646.39,-2692 5646.39,-2692 5646.39,-2211 5646.39,-1886.83 4516.92,-1776.44 4070.17,-1745.45"/>
<polygon fill="black" stroke="black" points="4070.29,-1741.95 4060.07,-1744.76 4069.81,-1748.93 4070.29,-1741.95"/>
</g>
<!-- u49&#45;&gt;u23 -->
<g id="edge69" class="edge">
<title>u49&#45;&gt;u23</title>
<path fill="none" stroke="black" d="M3597.14,-2194.15C3699.62,-2151.76 3967.84,-2040.82 4079.5,-1994.64"/>
<polygon fill="black" stroke="black" points="4080.95,-1997.82 4088.85,-1990.77 4078.27,-1991.36 4080.95,-1997.82"/>
</g>
<!-- u39 -->
<g id="node45" class="node">
<title>u39</title>
<ellipse fill="#7777ff" stroke="black" cx="2961.39" cy="-1973" rx="267.25" ry="18"/>
<text text-anchor="middle" x="2961.39" y="-1969.3" font-family="Times,serif" font-size="14.00">Language.Drasil.Code.Imperative.GOOL.ClassInterface</text>
</g>
<!-- u49&#45;&gt;u39 -->
<g id="edge70" class="edge">
<title>u49&#45;&gt;u39</title>
<path fill="none" stroke="black" d="M3514.08,-2194.15C3407.69,-2151.77 3129.27,-2040.87 3013.28,-1994.67"/>
<polygon fill="black" stroke="black" points="3014.48,-1991.38 3003.89,-1990.93 3011.89,-1997.88 3014.48,-1991.38"/>
</g>
<!-- u46&#45;&gt;u23 -->
<g id="edge67" class="edge">
<title>u46&#45;&gt;u23</title>
<path fill="none" stroke="black" d="M4855.47,-2194.62C4716,-2152.24 4343.79,-2039.14 4193.58,-1993.5"/>
<polygon fill="black" stroke="black" points="4194.17,-1990.02 4183.58,-1990.46 4192.13,-1996.72 4194.17,-1990.02"/>
</g>
<!-- u45 -->
<g id="node30" class="node">
<title>u45</title>
<ellipse fill="#ffbbff" stroke="black" cx="1910.39" cy="-1734" rx="219.86" ry="18"/>
<text text-anchor="middle" x="1910.39" y="-1730.3" font-family="Times,serif" font-size="14.00">Language.Drasil.Code.Imperative.WriteInput</text>
</g>
<!-- u45&#45;&gt;u54 -->
<g id="edge66" class="edge">
<title>u45&#45;&gt;u54</title>
<path fill="none" stroke="black" d="M1919.69,-1715.86C1951.69,-1655.16 2055.39,-1444.03 2055.39,-1257 2055.39,-1257 2055.39,-1257 2055.39,-1016 2055.39,-782.32 2344.65,-616.46 2458.83,-560.1"/>
<polygon fill="black" stroke="black" points="2460.58,-563.14 2468.03,-555.61 2457.51,-556.85 2460.58,-563.14"/>
</g>
<!-- u43 -->
<g id="node32" class="node">
<title>u43</title>
<ellipse fill="#ffbbff" stroke="black" cx="4604.39" cy="-2691" rx="233.16" ry="18"/>
<text text-anchor="middle" x="4604.39" y="-2687.3" font-family="Times,serif" font-size="14.00">Language.Drasil.Code.Imperative.FunctionCalls</text>
</g>
<!-- u44&#45;&gt;u43 -->
<g id="edge65" class="edge">
<title>u44&#45;&gt;u43</title>
<path fill="none" stroke="black" d="M4604.39,-2911.96C4604.39,-2871.4 4604.39,-2768.87 4604.39,-2719.46"/>
<polygon fill="black" stroke="black" points="4607.89,-2719.21 4604.39,-2709.21 4600.89,-2719.21 4607.89,-2719.21"/>
</g>
<!-- u25 -->
<g id="node39" class="node">
<title>u25</title>
<ellipse fill="#ffbbff" stroke="black" cx="3713.39" cy="-2691" rx="228.26" ry="18"/>
<text text-anchor="middle" x="3713.39" y="-2687.3" font-family="Times,serif" font-size="14.00">Language.Drasil.Code.Imperative.Descriptions</text>
</g>
<!-- u44&#45;&gt;u25 -->
<g id="edge64" class="edge">
<title>u44&#45;&gt;u25</title>
<path fill="none" stroke="black" d="M4543.15,-2912.71C4383.56,-2870.26 3955.49,-2756.39 3784.95,-2711.03"/>
<polygon fill="black" stroke="black" points="3785.63,-2707.59 3775.07,-2708.4 3783.83,-2714.36 3785.63,-2707.59"/>
</g>
<!-- u43&#45;&gt;u52 -->
<g id="edge63" class="edge">
<title>u43&#45;&gt;u52</title>
<path fill="none" stroke="black" d="M4595.33,-2672.96C4573.59,-2632.06 4518.35,-2528.15 4492.34,-2479.22"/>
<polygon fill="black" stroke="black" points="4495.33,-2477.4 4487.54,-2470.21 4489.15,-2480.68 4495.33,-2477.4"/>
</g>
<!-- u43&#45;&gt;u51 -->
<g id="edge62" class="edge">
<title>u43&#45;&gt;u51</title>
<path fill="none" stroke="black" d="M4655.72,-2673.43C4787.08,-2631.01 5135.11,-2518.64 5276.93,-2472.85"/>
<polygon fill="black" stroke="black" points="5278.34,-2476.07 5286.78,-2469.67 5276.19,-2469.41 5278.34,-2476.07"/>
</g>
<!-- u41&#45;&gt;u23 -->
<g id="edge60" class="edge">
<title>u41&#45;&gt;u23</title>
<path fill="none" stroke="black" d="M5328.27,-2673.16C5393.27,-2643.25 5519.96,-2574.04 5571.39,-2470 5625.76,-2360.04 5653.34,-2287.04 5573.39,-2194 5419.95,-2015.41 4729.31,-1980.15 4361.56,-1974.26"/>
<polygon fill="black" stroke="black" points="4361.37,-1970.75 4351.32,-1974.1 4361.26,-1977.75 4361.37,-1970.75"/>
</g>
<!-- u40&#45;&gt;u55 -->
<g id="edge59" class="edge">
<title>u40&#45;&gt;u55</title>
<path fill="none" stroke="black" d="M3826.06,-1716.8C3652.91,-1673.88 3183.34,-1557.47 3005.2,-1513.31"/>
<polygon fill="black" stroke="black" points="3005.96,-1509.89 2995.41,-1510.88 3004.28,-1516.68 3005.96,-1509.89"/>
</g>
<!-- u40&#45;&gt;u12 -->
<g id="edge57" class="edge">
<title>u40&#45;&gt;u12</title>
<path fill="none" stroke="black" d="M3875.64,-1715.96C3837.46,-1674.63 3739.83,-1568.97 3695.23,-1520.71"/>
<polygon fill="black" stroke="black" points="3697.65,-1518.18 3688.3,-1513.21 3692.51,-1522.93 3697.65,-1518.18"/>
</g>
<!-- u40&#45;&gt;u22 -->
<g id="edge58" class="edge">
<title>u40&#45;&gt;u22</title>
<path fill="none" stroke="black" d="M3890.36,-1715.9C3887.81,-1674.74 3880.83,-1566.85 3872.39,-1477 3865.86,-1407.44 3856,-1325.75 3850.83,-1284.23"/>
<polygon fill="black" stroke="black" points="3854.28,-1283.58 3849.57,-1274.09 3847.34,-1284.45 3854.28,-1283.58"/>
</g>
<!-- u30&#45;&gt;u23 -->
<g id="edge40" class="edge">
<title>u30&#45;&gt;u23</title>
<path fill="none" stroke="black" d="M4041.23,-2193.96C4057.59,-2153.14 4099.1,-2049.58 4118.76,-2000.53"/>
<polygon fill="black" stroke="black" points="4122.02,-2001.79 4122.5,-1991.21 4115.53,-1999.19 4122.02,-2001.79"/>
</g>
<!-- u29&#45;&gt;u23 -->
<g id="edge39" class="edge">
<title>u29&#45;&gt;u23</title>
<path fill="none" stroke="black" d="M4453.3,-2193.96C4391.54,-2152.02 4232.22,-2043.82 4162.68,-1996.6"/>
<polygon fill="black" stroke="black" points="4164.51,-1993.61 4154.27,-1990.89 4160.57,-1999.4 4164.51,-1993.61"/>
</g>
<!-- u28&#45;&gt;u54 -->
<g id="edge38" class="edge">
<title>u28&#45;&gt;u54</title>
<path fill="none" stroke="black" d="M782.33,-1955.87C944.72,-1912.32 1346.39,-1776.28 1346.39,-1496 1346.39,-1496 1346.39,-1496 1346.39,-1016 1346.39,-785.1 2143.49,-609 2415.04,-555.71"/>
<polygon fill="black" stroke="black" points="2416.11,-559.06 2425.26,-553.71 2414.77,-552.19 2416.11,-559.06"/>
</g>
<!-- u27 -->
<g id="node38" class="node">
<title>u27</title>
<ellipse fill="#ffbbff" stroke="black" cx="2309.39" cy="-2452" rx="233.16" ry="18"/>
<text text-anchor="middle" x="2309.39" y="-2448.3" font-family="Times,serif" font-size="14.00">Language.Drasil.Code.Imperative.WriteReadMe</text>
</g>
<!-- u27&#45;&gt;u39 -->
<g id="edge37" class="edge">
<title>u27&#45;&gt;u39</title>
<path fill="none" stroke="black" d="M2332.6,-2434.02C2431.32,-2361.8 2816.46,-2080.04 2929.83,-1997.09"/>
<polygon fill="black" stroke="black" points="2932.12,-1999.75 2938.13,-1991.02 2927.99,-1994.1 2932.12,-1999.75"/>
</g>
<!-- u25&#45;&gt;u23 -->
<g id="edge35" class="edge">
<title>u25&#45;&gt;u23</title>
<path fill="none" stroke="black" d="M3679.45,-2673.18C3557.96,-2610.81 3159.69,-2386.44 3307.39,-2194 3391.36,-2084.61 3790.02,-2017.76 3999.73,-1989.59"/>
<polygon fill="black" stroke="black" points="4000.43,-1993.03 4009.88,-1988.24 3999.51,-1986.09 4000.43,-1993.03"/>
</g>
<!-- u24&#45;&gt;u55 -->
<g id="edge34" class="edge">
<title>u24&#45;&gt;u55</title>
<path fill="none" stroke="black" d="M3121.94,-1715.96C3086.88,-1674.62 2997.22,-1568.9 2956.31,-1520.66"/>
<polygon fill="black" stroke="black" points="2958.86,-1518.25 2949.72,-1512.89 2953.52,-1522.78 2958.86,-1518.25"/>
</g>
<!-- u23&#45;&gt;u8 -->
<g id="edge32" class="edge">
<title>u23&#45;&gt;u8</title>
<path fill="none" stroke="black" d="M4086.58,-1955.15C3978.42,-1912.56 3694.5,-1800.79 3578.19,-1755"/>
<polygon fill="black" stroke="black" points="3579.38,-1751.7 3568.79,-1751.3 3576.81,-1758.22 3579.38,-1751.7"/>
</g>
<!-- u23&#45;&gt;u22 -->
<g id="edge33" class="edge">
<title>u23&#45;&gt;u22</title>
<path fill="none" stroke="black" d="M4130.7,-1954.75C4133.31,-1912.79 4136.89,-1802.5 4110.39,-1716 4055.05,-1535.31 3918.77,-1348.56 3867.41,-1282.22"/>
<polygon fill="black" stroke="black" points="3869.93,-1279.76 3861.02,-1274.02 3864.41,-1284.06 3869.93,-1279.76"/>
</g>
<!-- u48 -->
<g id="node42" class="node">
<title>u48</title>
<ellipse fill="#77ff77" stroke="black" cx="1653.39" cy="-2452" rx="228.56" ry="18"/>
<text text-anchor="middle" x="1653.39" y="-2448.3" font-family="Times,serif" font-size="14.00">Language.Drasil.Code.Imperative.Build.Import</text>
</g>
<!-- u47 -->
<g id="node43" class="node">
<title>u47</title>
<ellipse fill="#77ff77" stroke="black" cx="1653.39" cy="-2212" rx="215.56" ry="18"/>
<text text-anchor="middle" x="1653.39" y="-2208.3" font-family="Times,serif" font-size="14.00">Language.Drasil.Code.Imperative.Build.AST</text>
</g>
<!-- u48&#45;&gt;u47 -->
<g id="edge68" class="edge">
<title>u48&#45;&gt;u47</title>
<path fill="none" stroke="black" d="M1653.39,-2433.88C1653.39,-2393.16 1653.39,-2290.2 1653.39,-2240.57"/>
<polygon fill="black" stroke="black" points="1656.89,-2240.28 1653.39,-2230.28 1649.89,-2240.28 1656.89,-2240.28"/>
</g>
<!-- u42 -->
<g id="node44" class="node">
<title>u42</title>
<ellipse fill="#ffff77" stroke="black" cx="2431.39" cy="-1973" rx="245.06" ry="18"/>
<text text-anchor="middle" x="2431.39" y="-1969.3" font-family="Times,serif" font-size="14.00">Language.Drasil.Code.Imperative.Doxygen.Import</text>
</g>
<!-- u42&#45;&gt;u55 -->
<g id="edge61" class="edge">
<title>u42&#45;&gt;u55</title>
<path fill="none" stroke="black" d="M2449.63,-1954.78C2526.12,-1882.54 2821.21,-1603.84 2909.98,-1520"/>
<polygon fill="black" stroke="black" points="2912.58,-1522.36 2917.45,-1512.95 2907.77,-1517.27 2912.58,-1522.36"/>
</g>
<!-- u39&#45;&gt;u55 -->
<g id="edge56" class="edge">
<title>u39&#45;&gt;u55</title>
<path fill="none" stroke="black" d="M2953.78,-1954.78C2938.1,-1918.28 2902.69,-1830.1 2890.39,-1752 2877.19,-1668.08 2907.74,-1569.14 2924.84,-1522.66"/>
<polygon fill="black" stroke="black" points="2928.21,-1523.63 2928.46,-1513.04 2921.66,-1521.17 2928.21,-1523.63"/>
</g>
<!-- u32 -->
<g id="node46" class="node">
<title>u32</title>
<ellipse fill="#7777ff" stroke="black" cx="2897.39" cy="-2452" rx="289.45" ry="18"/>
<text text-anchor="middle" x="2897.39" y="-2448.3" font-family="Times,serif" font-size="14.00">Language.Drasil.Code.Imperative.GOOL.LanguageRenderer</text>
</g>
<!-- u38&#45;&gt;u31 -->
<g id="edge54" class="edge">
<title>u38&#45;&gt;u31</title>
<path fill="none" stroke="black" d="M2184.06,-2911.96C2242.01,-2870.21 2391.13,-2762.79 2457.13,-2715.24"/>
<polygon fill="black" stroke="black" points="2459.44,-2717.89 2465.51,-2709.21 2455.35,-2712.21 2459.44,-2717.89"/>
</g>
<!-- u33 -->
<g id="node53" class="node">
<title>u33</title>
<ellipse fill="#ff7777" stroke="black" cx="1855.39" cy="-2691" rx="393.73" ry="18"/>
<text text-anchor="middle" x="1855.39" y="-2687.3" font-family="Times,serif" font-size="14.00">Language.Drasil.Code.Imperative.GOOL.LanguageRenderer.LanguagePolymorphic</text>
</g>
<!-- u38&#45;&gt;u33 -->
<g id="edge55" class="edge">
<title>u38&#45;&gt;u33</title>
<path fill="none" stroke="black" d="M2138.46,-2911.96C2084.84,-2870.29 1947.06,-2763.23 1885.68,-2715.53"/>
<polygon fill="black" stroke="black" points="1887.58,-2712.58 1877.54,-2709.21 1883.29,-2718.11 1887.58,-2712.58"/>
</g>
<!-- u37&#45;&gt;u31 -->
<g id="edge52" class="edge">
<title>u37&#45;&gt;u31</title>
<path fill="none" stroke="black" d="M2868.98,-2911.96C2796.32,-2869.85 2608.37,-2760.94 2527.41,-2714.03"/>
<polygon fill="black" stroke="black" points="2528.95,-2710.88 2518.54,-2708.89 2525.44,-2716.93 2528.95,-2710.88"/>
</g>
<!-- u37&#45;&gt;u33 -->
<g id="edge53" class="edge">
<title>u37&#45;&gt;u33</title>
<path fill="none" stroke="black" d="M2825.05,-2912.33C2636.84,-2869.57 2137.63,-2756.13 1938.81,-2710.96"/>
<polygon fill="black" stroke="black" points="1939.53,-2707.53 1929,-2708.73 1937.98,-2714.35 1939.53,-2707.53"/>
</g>
<!-- u36&#45;&gt;u31 -->
<g id="edge50" class="edge">
<title>u36&#45;&gt;u31</title>
<path fill="none" stroke="black" d="M3544.1,-2912.43C3338.41,-2869.44 2788.9,-2754.59 2575.66,-2710.03"/>
<polygon fill="black" stroke="black" points="2576.27,-2706.58 2565.76,-2707.96 2574.83,-2713.43 2576.27,-2706.58"/>
</g>
<!-- u36&#45;&gt;u33 -->
<g id="edge51" class="edge">
<title>u36&#45;&gt;u33</title>
<path fill="none" stroke="black" d="M3504.3,-2913.04C3185.98,-2870.36 2317.19,-2753.9 1986.01,-2709.51"/>
<polygon fill="black" stroke="black" points="1986.27,-2706.01 1975.89,-2708.15 1985.34,-2712.95 1986.27,-2706.01"/>
</g>
<!-- u35&#45;&gt;u31 -->
<g id="edge48" class="edge">
<title>u35&#45;&gt;u31</title>
<path fill="none" stroke="black" d="M793.28,-2912.99C1125.14,-2869.75 2036.68,-2750.98 2367.45,-2707.89"/>
<polygon fill="black" stroke="black" points="2368.08,-2711.34 2377.54,-2706.57 2367.17,-2704.39 2368.08,-2711.34"/>
</g>
<!-- u35&#45;&gt;u33 -->
<g id="edge49" class="edge">
<title>u35&#45;&gt;u33</title>
<path fill="none" stroke="black" d="M753.25,-2912.43C967.14,-2869.65 1536.77,-2755.72 1761.93,-2710.69"/>
<polygon fill="black" stroke="black" points="1762.95,-2714.06 1772.07,-2708.67 1761.58,-2707.19 1762.95,-2714.06"/>
</g>
<!-- u34&#45;&gt;u31 -->
<g id="edge46" class="edge">
<title>u34&#45;&gt;u31</title>
<path fill="none" stroke="black" d="M1491.85,-2912.33C1686.53,-2869.33 2204.65,-2754.89 2406.89,-2710.22"/>
<polygon fill="black" stroke="black" points="2407.85,-2713.59 2416.86,-2708.02 2406.34,-2706.76 2407.85,-2713.59"/>
</g>
<!-- u34&#45;&gt;u33 -->
<g id="edge47" class="edge">
<title>u34&#45;&gt;u33</title>
<path fill="none" stroke="black" d="M1447.97,-2911.96C1526.02,-2869.82 1728.02,-2760.76 1814.8,-2713.92"/>
<polygon fill="black" stroke="black" points="1816.68,-2716.88 1823.81,-2709.05 1813.35,-2710.72 1816.68,-2716.88"/>
</g>
<!-- u33&#45;&gt;u45 -->
<g id="edge44" class="edge">
<title>u33&#45;&gt;u45</title>
<path fill="none" stroke="black" d="M1858.99,-2672.99C1866.6,-2636.18 1884.2,-2546.29 1891.39,-2470 1917.36,-2194.67 1912.98,-1858.95 1911.03,-1762.24"/>
<polygon fill="black" stroke="black" points="1914.52,-1762.07 1910.81,-1752.14 1907.52,-1762.22 1914.52,-1762.07"/>
</g>
<!-- u33&#45;&gt;u27 -->
<g id="edge41" class="edge">
<title>u33&#45;&gt;u27</title>
<path fill="none" stroke="black" d="M1888.05,-2672.96C1968.95,-2630.72 2178.6,-2521.28 2268.01,-2474.6"/>
<polygon fill="black" stroke="black" points="2269.79,-2477.62 2277.04,-2469.89 2266.56,-2471.42 2269.79,-2477.62"/>
</g>
<!-- u33&#45;&gt;u48 -->
<g id="edge45" class="edge">
<title>u33&#45;&gt;u48</title>
<path fill="none" stroke="black" d="M1840.87,-2672.96C1805.72,-2631.72 1715.96,-2526.41 1674.71,-2478.01"/>
<polygon fill="black" stroke="black" points="1677.21,-2475.55 1668.06,-2470.21 1671.88,-2480.09 1677.21,-2475.55"/>
</g>
<!-- u33&#45;&gt;u42 -->
<g id="edge43" class="edge">
<title>u33&#45;&gt;u42</title>
<path fill="none" stroke="black" d="M1869.06,-2673.01C1945.52,-2577.97 2319.96,-2112.52 2411.28,-1999"/>
<polygon fill="black" stroke="black" points="2414.06,-2001.14 2417.6,-1991.15 2408.6,-1996.75 2414.06,-2001.14"/>
</g>
<!-- u33&#45;&gt;u32 -->
<g id="edge42" class="edge">
<title>u33&#45;&gt;u32</title>
<path fill="none" stroke="black" d="M1929.08,-2673.24C2117.71,-2630.34 2617.04,-2516.77 2814.93,-2471.76"/>
<polygon fill="black" stroke="black" points="2816,-2475.1 2824.98,-2469.47 2814.45,-2468.28 2816,-2475.1"/>
</g>
<!-- u26 -->
<g id="node54" class="node">
<title>u26</title>
<ellipse fill="#77ffff" stroke="black" cx="2997.39" cy="-2691" rx="267.55" ry="18"/>
<text text-anchor="middle" x="2997.39" y="-2687.3" font-family="Times,serif" font-size="14.00">Language.Drasil.Code.Imperative.Parsers.ConfigParser</text>
</g>
<!-- u26&#45;&gt;u32 -->
<g id="edge36" class="edge">
<title>u26&#45;&gt;u32</title>
<path fill="none" stroke="black" d="M2990.2,-2672.96C2972.98,-2632.14 2929.28,-2528.58 2908.59,-2479.53"/>
<polygon fill="black" stroke="black" points="2911.77,-2478.06 2904.66,-2470.21 2905.32,-2480.78 2911.77,-2478.06"/>
</g>
<!-- u10&#45;&gt;u53 -->
<g id="edge22" class="edge">
<title>u10&#45;&gt;u53</title>
<path fill="none" stroke="black" d="M3048.35,-1238.15C3112.7,-1196.36 3279.63,-1087.97 3352.51,-1040.65"/>
<polygon fill="black" stroke="black" points="3354.84,-1043.31 3361.33,-1034.93 3351.03,-1037.44 3354.84,-1043.31"/>
</g>
<!-- u10&#45;&gt;u20 -->
<g id="edge21" class="edge">
<title>u10&#45;&gt;u20</title>
<path fill="none" stroke="black" d="M3022.39,-1237.96C3022.39,-1197.4 3022.39,-1094.87 3022.39,-1045.46"/>
<polygon fill="black" stroke="black" points="3025.89,-1045.21 3022.39,-1035.21 3018.89,-1045.21 3025.89,-1045.21"/>
</g>
<!-- u10&#45;&gt;u19 -->
<g id="edge20" class="edge">
<title>u10&#45;&gt;u19</title>
<path fill="none" stroke="black" d="M3075.77,-1238.8C3215.06,-1196.53 3589.18,-1083.01 3739.53,-1037.38"/>
<polygon fill="black" stroke="black" points="3740.98,-1040.6 3749.54,-1034.34 3738.95,-1033.9 3740.98,-1040.6"/>
</g>
<!-- u10&#45;&gt;u9 -->
<g id="edge19" class="edge">
<title>u10&#45;&gt;u9</title>
<path fill="none" stroke="black" d="M3000.03,-1237.96C2945.22,-1196.19 2804.18,-1088.7 2741.82,-1041.18"/>
<polygon fill="black" stroke="black" points="2743.63,-1038.17 2733.56,-1034.89 2739.39,-1043.74 2743.63,-1038.17"/>
</g>
<!-- u9&#45;&gt;u11 -->
<g id="edge18" class="edge">
<title>u9&#45;&gt;u11</title>
<path fill="none" stroke="black" d="M2711.39,-998.66C2711.39,-903.49 2711.39,-444.73 2711.39,-327.38"/>
<polygon fill="black" stroke="black" points="2714.89,-327.12 2711.39,-317.12 2707.89,-327.12 2714.89,-327.12"/>
</g>
<!-- u3 -->
<g id="node57" class="node">
<title>u3</title>
<ellipse fill="#33ff33" stroke="black" cx="275.39" cy="-3648" rx="108.58" ry="18"/>
<text text-anchor="middle" x="275.39" y="-3644.3" font-family="Times,serif" font-size="14.00">drasil&#45;code.test.Main</text>
</g>
<!-- u3&#45;&gt;u4 -->
<g id="edge4" class="edge">
<title>u3&#45;&gt;u4</title>
<path fill="none" stroke="black" d="M260.08,-3629.88C222.76,-3588.19 127.05,-3481.25 83.98,-3433.11"/>
<polygon fill="black" stroke="black" points="86.57,-3430.76 77.29,-3425.64 81.35,-3435.43 86.57,-3430.76"/>
</g>
<!-- u3&#45;&gt;u2 -->
<g id="edge3" class="edge">
<title>u3&#45;&gt;u2</title>
<path fill="none" stroke="black" d="M270.5,-3629.88C258.79,-3588.89 229.06,-3484.83 214.99,-3435.59"/>
<polygon fill="black" stroke="black" points="218.35,-3434.61 212.24,-3425.96 211.62,-3436.54 218.35,-3434.61"/>
</g>
<!-- u3&#45;&gt;u1 -->
<g id="edge2" class="edge">
<title>u3&#45;&gt;u1</title>
<path fill="none" stroke="black" d="M280.28,-3629.88C292,-3588.89 321.73,-3484.83 335.8,-3435.59"/>
<polygon fill="black" stroke="black" points="339.17,-3436.54 338.55,-3425.96 332.44,-3434.61 339.17,-3436.54"/>
</g>
<!-- u3&#45;&gt;u7 -->
<g id="edge5" class="edge">
<title>u3&#45;&gt;u7</title>
<path fill="none" stroke="black" d="M351.15,-3635.08C605.51,-3595.04 1428.24,-3465.53 1699.64,-3422.81"/>
<polygon fill="black" stroke="black" points="1700.5,-3426.22 1709.83,-3421.21 1699.41,-3419.31 1700.5,-3426.22"/>
</g>
</g>
</svg>
