<?xml version="1.0" encoding="UTF-8" standalone="no"?>
<!DOCTYPE svg PUBLIC "-//W3C//DTD SVG 1.1//EN"
 "http://www.w3.org/Graphics/SVG/1.1/DTD/svg11.dtd">
<!-- Generated by graphviz version 2.43.0 (0)
 -->
<!-- Title: G Pages: 1 -->
<svg width="430pt" height="288pt"
 viewBox="0.00 0.00 430.06 288.00" xmlns="http://www.w3.org/2000/svg" xmlns:xlink="http://www.w3.org/1999/xlink">
<g id="graph0" class="graph" transform="scale(2.05 2.05) rotate(0) translate(4 586)">
<title>G</title>
<polygon fill="white" stroke="transparent" points="-4,4 -4,-586 877.03,-586 877.03,4 -4,4"/>
<!-- u5 -->
<g id="node1" class="node">
<title>u5</title>
<ellipse fill="#bbffbb" stroke="black" cx="434.29" cy="-524" rx="63.89" ry="18"/>
<text text-anchor="middle" x="434.29" y="-520.3" font-family="Times,serif" font-size="14.00">Utils.Drasil</text>
</g>
<!-- u4 -->
<g id="node2" class="node">
<title>u4</title>
<ellipse fill="#ffffbb" stroke="black" cx="92.29" cy="-291" rx="92.08" ry="18"/>
<text text-anchor="middle" x="92.29" y="-287.3" font-family="Times,serif" font-size="14.00">Utils.Drasil.Maps</text>
</g>
<!-- u5&#45;&gt;u4 -->
<g id="edge5" class="edge">
<title>u5&#45;&gt;u4</title>
<path fill="none" stroke="black" d="M410.78,-507.12C351.16,-466.85 193.9,-360.63 125.19,-314.22"/>
<polygon fill="black" stroke="black" points="127.12,-311.3 116.88,-308.61 123.21,-317.1 127.12,-311.3"/>
</g>
<!-- u3 -->
<g id="node3" class="node">
<title>u3</title>
<ellipse fill="#ffffbb" stroke="black" cx="317.29" cy="-291" rx="114.28" ry="18"/>
<text text-anchor="middle" x="317.29" y="-287.3" font-family="Times,serif" font-size="14.00">Utils.Drasil.Document</text>
</g>
<!-- u5&#45;&gt;u3 -->
<g id="edge4" class="edge">
<title>u5&#45;&gt;u3</title>
<path fill="none" stroke="black" d="M425.69,-506.01C405.45,-466.05 354.7,-365.85 330.51,-318.1"/>
<polygon fill="black" stroke="black" points="333.55,-316.35 325.91,-309.01 327.3,-319.51 333.55,-316.35"/>
</g>
<!-- u1 -->
<g id="node5" class="node">
<title>u1</title>
<ellipse fill="#ffffbb" stroke="black" cx="551.29" cy="-291" rx="102.08" ry="18"/>
<text text-anchor="middle" x="551.29" y="-287.3" font-family="Times,serif" font-size="14.00">Utils.Drasil.English</text>
</g>
<!-- u5&#45;&gt;u1 -->
<g id="edge3" class="edge">
<title>u5&#45;&gt;u1</title>
<path fill="none" stroke="black" d="M442.9,-506.01C463.14,-466.05 513.89,-365.85 538.07,-318.1"/>
<polygon fill="black" stroke="black" points="541.28,-319.51 542.68,-309.01 535.04,-316.35 541.28,-319.51"/>
</g>
<!-- u0 -->
<g id="node6" class="node">
<title>u0</title>
<ellipse fill="#ffffbb" stroke="black" cx="772.29" cy="-291" rx="100.98" ry="18"/>
<text text-anchor="middle" x="772.29" y="-287.3" font-family="Times,serif" font-size="14.00">Utils.Drasil.Strings</text>
</g>
<!-- u5&#45;&gt;u0 -->
<g id="edge2" class="edge">
<title>u5&#45;&gt;u0</title>
<path fill="none" stroke="black" d="M457.52,-507.12C516.33,-466.93 671.24,-361.06 739.36,-314.51"/>
<polygon fill="black" stroke="black" points="741.71,-317.14 747.99,-308.61 737.76,-311.36 741.71,-317.14"/>
</g>
<!-- u2 -->
<g id="node4" class="node">
<title>u2</title>
<ellipse fill="#ffffbb" stroke="black" cx="772.29" cy="-58" rx="89.08" ry="18"/>
<text text-anchor="middle" x="772.29" y="-54.3" font-family="Times,serif" font-size="14.00">Utils.Drasil.Lists</text>
</g>
<!-- u0&#45;&gt;u2 -->
<g id="edge1" class="edge">
<title>u0&#45;&gt;u2</title>
<path fill="none" stroke="black" d="M772.29,-272.64C772.29,-232.82 772.29,-134.69 772.29,-86.54"/>
<polygon fill="black" stroke="black" points="775.79,-86.25 772.29,-76.25 768.79,-86.25 775.79,-86.25"/>
</g>
</g>
</svg>
