<?xml version="1.0" encoding="UTF-8" standalone="no"?>
<!DOCTYPE svg PUBLIC "-//W3C//DTD SVG 1.1//EN"
 "http://www.w3.org/Graphics/SVG/1.1/DTD/svg11.dtd">
<!-- Generated by graphviz version 2.43.0 (0)
 -->
<!-- Title: G Pages: 1 -->
<svg width="431pt" height="288pt"
 viewBox="0.00 0.00 431.12 288.00" xmlns="http://www.w3.org/2000/svg" xmlns:xlink="http://www.w3.org/1999/xlink">
<g id="graph0" class="graph" transform="scale(0.25 0.25) rotate(0) translate(4 1134.67)">
<title>G</title>
<polygon fill="white" stroke="transparent" points="-4,4 -4,-1134.67 1700.53,-1134.67 1700.53,4 -4,4"/>
<!-- u8 -->
<g id="node1" class="node">
<title>u8</title>
<ellipse fill="#bbffbb" stroke="black" cx="120.24" cy="-404" rx="120.48" ry="18"/>
<text text-anchor="middle" x="120.24" y="-400.3" font-family="Times,serif" font-size="14.00">Drasil.Website.Analysis</text>
</g>
<!-- u7 -->
<g id="node2" class="node">
<title>u7</title>
<ellipse fill="#bbffbb" stroke="black" cx="410.24" cy="-404" rx="151.37" ry="18"/>
<text text-anchor="middle" x="410.24" y="-400.3" font-family="Times,serif" font-size="14.00">Drasil.Website.GettingStarted</text>
</g>
<!-- u6 -->
<g id="node3" class="node">
<title>u6</title>
<ellipse fill="#bbffbb" stroke="black" cx="732.24" cy="-404" rx="152.17" ry="18"/>
<text text-anchor="middle" x="732.24" y="-400.3" font-family="Times,serif" font-size="14.00">Drasil.Website.Documentation</text>
</g>
<!-- u5 -->
<g id="node4" class="node">
<title>u5</title>
<ellipse fill="#bbffbb" stroke="black" cx="1041.24" cy="-404" rx="139.18" ry="18"/>
<text text-anchor="middle" x="1041.24" y="-400.3" font-family="Times,serif" font-size="14.00">Drasil.Website.Introduction</text>
</g>
<!-- u4 -->
<g id="node5" class="node">
<title>u4</title>
<ellipse fill="#bbffbb" stroke="black" cx="886.24" cy="-727" rx="104.78" ry="18"/>
<text text-anchor="middle" x="886.24" y="-723.3" font-family="Times,serif" font-size="14.00">Drasil.Website.Body</text>
</g>
<!-- u4&#45;&gt;u8 -->
<g id="edge8" class="edge">
<title>u4&#45;&gt;u8</title>
<path fill="none" stroke="black" d="M848.51,-710.19C721.5,-656.96 309.47,-484.3 168.25,-425.12"/>
<polygon fill="black" stroke="black" points="169.53,-421.86 158.95,-421.22 166.82,-428.32 169.53,-421.86"/>
</g>
<!-- u4&#45;&gt;u7 -->
<g id="edge7" class="edge">
<title>u4&#45;&gt;u7</title>
<path fill="none" stroke="black" d="M861.65,-709.42C782.52,-656.05 534.36,-488.7 443.77,-427.61"/>
<polygon fill="black" stroke="black" points="445.5,-424.56 435.25,-421.87 441.59,-430.36 445.5,-424.56"/>
</g>
<!-- u4&#45;&gt;u6 -->
<g id="edge6" class="edge">
<title>u4&#45;&gt;u6</title>
<path fill="none" stroke="black" d="M877.96,-708.74C852.58,-655.84 775.73,-495.65 745.07,-431.74"/>
<polygon fill="black" stroke="black" points="748.04,-429.85 740.56,-422.34 741.73,-432.87 748.04,-429.85"/>
</g>
<!-- u4&#45;&gt;u5 -->
<g id="edge5" class="edge">
<title>u4&#45;&gt;u5</title>
<path fill="none" stroke="black" d="M894.57,-708.74C920.17,-655.73 997.79,-494.99 1028.52,-431.35"/>
<polygon fill="black" stroke="black" points="1031.67,-432.87 1032.86,-422.34 1025.36,-429.83 1031.67,-432.87"/>
</g>
<!-- u2 -->
<g id="node7" class="node">
<title>u2</title>
<ellipse fill="#bbffbb" stroke="black" cx="1307.24" cy="-404" rx="108.58" ry="18"/>
<text text-anchor="middle" x="1307.24" y="-400.3" font-family="Times,serif" font-size="14.00">Drasil.Website.About</text>
</g>
<!-- u4&#45;&gt;u2 -->
<g id="edge4" class="edge">
<title>u4&#45;&gt;u2</title>
<path fill="none" stroke="black" d="M908.28,-709.19C978.47,-655.67 1196.87,-489.15 1277.2,-427.91"/>
<polygon fill="black" stroke="black" points="1279.59,-430.49 1285.42,-421.64 1275.34,-424.92 1279.59,-430.49"/>
</g>
<!-- u1 -->
<g id="node8" class="node">
<title>u1</title>
<ellipse fill="#bbffbb" stroke="black" cx="1565.24" cy="-404" rx="131.08" ry="18"/>
<text text-anchor="middle" x="1565.24" y="-400.3" font-family="Times,serif" font-size="14.00">Drasil.Website.CaseStudy</text>
</g>
<!-- u4&#45;&gt;u1 -->
<g id="edge3" class="edge">
<title>u4&#45;&gt;u1</title>
<path fill="none" stroke="black" d="M920.38,-709.86C1033.21,-656.52 1394.16,-485.88 1520.81,-426"/>
<polygon fill="black" stroke="black" points="1522.68,-428.99 1530.22,-421.55 1519.69,-422.66 1522.68,-428.99"/>
</g>
<!-- u3 -->
<g id="node6" class="node">
<title>u3</title>
<ellipse fill="#bbffbb" stroke="black" cx="1565.24" cy="-81" rx="122.38" ry="18"/>
<text text-anchor="middle" x="1565.24" y="-77.3" font-family="Times,serif" font-size="14.00">Drasil.Website.Example</text>
</g>
<!-- u1&#45;&gt;u3 -->
<g id="edge2" class="edge">
<title>u1&#45;&gt;u3</title>
<path fill="none" stroke="black" d="M1565.24,-385.74C1565.24,-333.05 1565.24,-173.96 1565.24,-109.54"/>
<polygon fill="black" stroke="black" points="1568.74,-109.34 1565.24,-99.34 1561.74,-109.34 1568.74,-109.34"/>
</g>
<!-- u0 -->
<g id="node9" class="node">
<title>u0</title>
<ellipse fill="#ffffbb" stroke="black" cx="886.24" cy="-1050" rx="122.38" ry="18"/>
<text text-anchor="middle" x="886.24" y="-1046.3" font-family="Times,serif" font-size="14.00">drasil&#45;website.app.Main</text>
</g>
<!-- u0&#45;&gt;u4 -->
<g id="edge1" class="edge">
<title>u0&#45;&gt;u4</title>
<path fill="none" stroke="black" d="M886.24,-1031.74C886.24,-979.05 886.24,-819.96 886.24,-755.54"/>
<polygon fill="black" stroke="black" points="889.74,-755.34 886.24,-745.34 882.74,-755.34 889.74,-755.34"/>
</g>
</g>
</svg>
