<?xml version="1.0" encoding="UTF-8" standalone="no"?>
<!DOCTYPE svg PUBLIC "-//W3C//DTD SVG 1.1//EN"
 "http://www.w3.org/Graphics/SVG/1.1/DTD/svg11.dtd">
<!-- Generated by graphviz version 2.43.0 (0)
 -->
<!-- Title: G Pages: 1 -->
<svg width="432pt" height="284pt"
 viewBox="0.00 0.00 432.00 283.85" xmlns="http://www.w3.org/2000/svg" xmlns:xlink="http://www.w3.org/1999/xlink">
<g id="graph0" class="graph" transform="scale(13.09 13.09) rotate(0) translate(4 3711.33)">
<title>G</title>
<polygon fill="white" stroke="transparent" points="-4,4 -4,-3711.33 5650.39,-3711.33 5650.39,4 -4,4"/>
<!-- u5 -->
<g id="node1" class="node">
<title>u5</title>
<ellipse fill="#bbffbb" stroke="black" cx="62.39" cy="-3132" rx="42.49" ry="18"/>
<text text-anchor="middle" x="62.39" y="-3128.3" font-family="Times,serif" font-size="14.00">Helper</text>
</g>
<!-- u4 -->
<g id="node2" class="node">
<title>u4</title>
<ellipse fill="#bbffbb" stroke="black" cx="62.39" cy="-3388" rx="62.29" ry="18"/>
<text text-anchor="middle" x="62.39" y="-3384.3" font-family="Times,serif" font-size="14.00">HelloWorld</text>
</g>
<!-- u4&#45;&gt;u5 -->
<g id="edge6" class="edge">
<title>u4&#45;&gt;u5</title>
<path fill="none" stroke="black" d="M62.39,-3369.94C62.39,-3326.84 62.39,-3213.29 62.39,-3160.59"/>
<polygon fill="black" stroke="black" points="65.89,-3160.32 62.39,-3150.32 58.89,-3160.32 65.89,-3160.32"/>
</g>
<!-- u2 -->
<g id="node3" class="node">
<title>u2</title>
<ellipse fill="#bbffbb" stroke="black" cx="207.39" cy="-3388" rx="64.99" ry="18"/>
<text text-anchor="middle" x="207.39" y="-3384.3" font-family="Times,serif" font-size="14.00">PatternTest</text>
</g>
<!-- u0 -->
<g id="node5" class="node">
<title>u0</title>
<ellipse fill="#bbffbb" stroke="black" cx="191.39" cy="-3132" rx="53.89" ry="18"/>
<text text-anchor="middle" x="191.39" y="-3128.3" font-family="Times,serif" font-size="14.00">Observer</text>
</g>
<!-- u2&#45;&gt;u0 -->
<g id="edge1" class="edge">
<title>u2&#45;&gt;u0</title>
<path fill="none" stroke="black" d="M206.32,-3369.94C203.61,-3326.84 196.45,-3213.29 193.13,-3160.59"/>
<polygon fill="black" stroke="black" points="196.61,-3160.08 192.49,-3150.32 189.62,-3160.52 196.61,-3160.08"/>
</g>
<!-- u1 -->
<g id="node4" class="node">
<title>u1</title>
<ellipse fill="#bbffbb" stroke="black" cx="343.39" cy="-3388" rx="52.79" ry="18"/>
<text text-anchor="middle" x="343.39" y="-3384.3" font-family="Times,serif" font-size="14.00">FileTests</text>
</g>
<!-- u6 -->
<g id="node6" class="node">
<title>u6</title>
<ellipse fill="#ffffbb" stroke="black" cx="1787.39" cy="-3643" rx="214.46" ry="18"/>
<text text-anchor="middle" x="1787.39" y="-3639.3" font-family="Times,serif" font-size="14.00">Data.Drasil.ExternalLibraries.ODELibraries</text>
</g>
<!-- u7 -->
<g id="node10" class="node">
<title>u7</title>
<ellipse fill="#bbbbff" stroke="black" cx="1787.39" cy="-3388" rx="113.18" ry="18"/>
<text text-anchor="middle" x="1787.39" y="-3384.3" font-family="Times,serif" font-size="14.00">Language.Drasil.Code</text>
</g>
<!-- u6&#45;&gt;u7 -->
<g id="edge7" class="edge">
<title>u6&#45;&gt;u7</title>
<path fill="none" stroke="black" d="M1787.39,-3624.61C1787.39,-3581.36 1787.39,-3468.65 1787.39,-3416.37"/>
<polygon fill="black" stroke="black" points="1790.89,-3416.18 1787.39,-3406.18 1783.89,-3416.18 1790.89,-3416.18"/>
</g>
<!-- u55 -->
<g id="node7" class="node">
<title>u55</title>
<ellipse fill="#bbbbff" stroke="black" cx="3552.39" cy="-575" rx="110.48" ry="18"/>
<text text-anchor="middle" x="3552.39" y="-571.3" font-family="Times,serif" font-size="14.00">Language.Drasil.Mod</text>
</g>
<!-- u13 -->
<g id="node13" class="node">
<title>u13</title>
<ellipse fill="#ffbbbb" stroke="black" cx="3148.39" cy="-320" rx="170.87" ry="18"/>
<text text-anchor="middle" x="3148.39" y="-316.3" font-family="Times,serif" font-size="14.00">Language.Drasil.Chunk.Parameter</text>
</g>
<!-- u55&#45;&gt;u13 -->
<g id="edge87" class="edge">
<title>u55&#45;&gt;u13</title>
<path fill="none" stroke="black" d="M3525.89,-557.4C3455.49,-513.31 3263.77,-393.25 3183.98,-343.28"/>
<polygon fill="black" stroke="black" points="3185.6,-340.17 3175.26,-337.83 3181.88,-346.1 3185.6,-340.17"/>
</g>
<!-- u53 -->
<g id="node16" class="node">
<title>u53</title>
<ellipse fill="#bbffff" stroke="black" cx="2504.39" cy="-320" rx="160.57" ry="18"/>
<text text-anchor="middle" x="2504.39" y="-316.3" font-family="Times,serif" font-size="14.00">Language.Drasil.Code.DataDesc</text>
</g>
<!-- u55&#45;&gt;u53 -->
<g id="edge88" class="edge">
<title>u55&#45;&gt;u53</title>
<path fill="none" stroke="black" d="M3493.43,-559.76C3314.24,-516.51 2776.36,-386.66 2578.49,-338.89"/>
<polygon fill="black" stroke="black" points="2579.31,-335.48 2568.77,-336.54 2577.67,-342.29 2579.31,-335.48"/>
</g>
<!-- u54 -->
<g id="node8" class="node">
<title>u54</title>
<ellipse fill="#bbbbff" stroke="black" cx="2935.39" cy="-1342" rx="126.18" ry="18"/>
<text text-anchor="middle" x="2935.39" y="-1338.3" font-family="Times,serif" font-size="14.00">Language.Drasil.Choices</text>
</g>
<!-- u16 -->
<g id="node23" class="node">
<title>u16</title>
<ellipse fill="#bbffff" stroke="black" cx="2223.39" cy="-1087" rx="139.98" ry="18"/>
<text text-anchor="middle" x="2223.39" y="-1083.3" font-family="Times,serif" font-size="14.00">Language.Drasil.Code.Code</text>
</g>
<!-- u54&#45;&gt;u16 -->
<g id="edge86" class="edge">
<title>u54&#45;&gt;u16</title>
<path fill="none" stroke="black" d="M2890.59,-1325.08C2765.88,-1280.77 2415.03,-1156.09 2278.62,-1107.62"/>
<polygon fill="black" stroke="black" points="2279.38,-1104.18 2268.78,-1104.13 2277.04,-1110.78 2279.38,-1104.18"/>
</g>
<!-- u10 -->
<g id="node54" class="node">
<title>u10</title>
<ellipse fill="#ff77ff" stroke="black" cx="3022.39" cy="-1087" rx="172.77" ry="18"/>
<text text-anchor="middle" x="3022.39" y="-1083.3" font-family="Times,serif" font-size="14.00">Language.Drasil.Data.ODELibPckg</text>
</g>
<!-- u54&#45;&gt;u10 -->
<g id="edge85" class="edge">
<title>u54&#45;&gt;u10</title>
<path fill="none" stroke="black" d="M2941.24,-1324.01C2956.06,-1280.9 2995.22,-1167.03 3013.17,-1114.83"/>
<polygon fill="black" stroke="black" points="3016.52,-1115.85 3016.46,-1105.25 3009.9,-1113.57 3016.52,-1115.85"/>
</g>
<!-- u8 -->
<g id="node9" class="node">
<title>u8</title>
<ellipse fill="#bbbbff" stroke="black" cx="3527.39" cy="-1598" rx="135.68" ry="18"/>
<text text-anchor="middle" x="3527.39" y="-1594.3" font-family="Times,serif" font-size="14.00">Language.Drasil.CodeSpec</text>
</g>
<!-- u8&#45;&gt;u54 -->
<g id="edge17" class="edge">
<title>u8&#45;&gt;u54</title>
<path fill="none" stroke="black" d="M3489.01,-1580.53C3384.82,-1535.83 3096.91,-1412.3 2982.83,-1363.35"/>
<polygon fill="black" stroke="black" points="2983.88,-1359.99 2973.31,-1359.27 2981.12,-1366.43 2983.88,-1359.99"/>
</g>
<!-- u14 -->
<g id="node12" class="node">
<title>u14</title>
<ellipse fill="#ffbbbb" stroke="black" cx="3271.39" cy="-1342" rx="192.27" ry="18"/>
<text text-anchor="middle" x="3271.39" y="-1338.3" font-family="Times,serif" font-size="14.00">Language.Drasil.Chunk.ConstraintMap</text>
</g>
<!-- u8&#45;&gt;u14 -->
<g id="edge16" class="edge">
<title>u8&#45;&gt;u14</title>
<path fill="none" stroke="black" d="M3510.2,-1579.94C3465.84,-1535.93 3347.42,-1418.43 3295.9,-1367.31"/>
<polygon fill="black" stroke="black" points="3298.08,-1364.54 3288.51,-1359.99 3293.15,-1369.51 3298.08,-1364.54"/>
</g>
<!-- u12 -->
<g id="node14" class="node">
<title>u12</title>
<ellipse fill="#ffbbbb" stroke="black" cx="3672.39" cy="-1342" rx="191.17" ry="18"/>
<text text-anchor="middle" x="3672.39" y="-1338.3" font-family="Times,serif" font-size="14.00">Language.Drasil.Chunk.CodeDefinition</text>
</g>
<!-- u8&#45;&gt;u12 -->
<g id="edge15" class="edge">
<title>u8&#45;&gt;u12</title>
<path fill="none" stroke="black" d="M3537.13,-1579.94C3562,-1536.38 3627.96,-1420.83 3657.6,-1368.91"/>
<polygon fill="black" stroke="black" points="3660.78,-1370.41 3662.7,-1359.99 3654.7,-1366.94 3660.78,-1370.41"/>
</g>
<!-- u49 -->
<g id="node26" class="node">
<title>u49</title>
<ellipse fill="#ffbbff" stroke="black" cx="4604.39" cy="-3132" rx="217.16" ry="18"/>
<text text-anchor="middle" x="4604.39" y="-3128.3" font-family="Times,serif" font-size="14.00">Language.Drasil.Code.Imperative.Generator</text>
</g>
<!-- u7&#45;&gt;u49 -->
<g id="edge14" class="edge">
<title>u7&#45;&gt;u49</title>
<path fill="none" stroke="black" d="M1883.14,-3378.37C2298.19,-3340.94 3943.83,-3192.56 4453.27,-3146.63"/>
<polygon fill="black" stroke="black" points="4453.61,-3150.11 4463.26,-3145.73 4452.98,-3143.14 4453.61,-3150.11"/>
</g>
<!-- u27 -->
<g id="node36" class="node">
<title>u27</title>
<ellipse fill="#ffbbff" stroke="black" cx="715.39" cy="-1854" rx="217.96" ry="18"/>
<text text-anchor="middle" x="715.39" y="-1850.3" font-family="Times,serif" font-size="14.00">Language.Drasil.Code.Imperative.ReadInput</text>
</g>
<!-- u7&#45;&gt;u27 -->
<g id="edge8" class="edge">
<title>u7&#45;&gt;u27</title>
<path fill="none" stroke="black" d="M1698.62,-3376.78C1374.43,-3337.03 273.39,-3179.76 273.39,-2877 273.39,-2877 273.39,-2877 273.39,-2364 273.39,-2121.25 563.56,-1937.72 673.68,-1876.81"/>
<polygon fill="black" stroke="black" points="675.44,-1879.83 682.53,-1871.96 672.08,-1873.69 675.44,-1879.83"/>
</g>
<!-- u37 -->
<g id="node47" class="node">
<title>u37</title>
<ellipse fill="#ff7777" stroke="black" cx="2160.39" cy="-2876" rx="367.43" ry="18"/>
<text text-anchor="middle" x="2160.39" y="-2872.3" font-family="Times,serif" font-size="14.00">Language.Drasil.Code.Imperative.GOOL.LanguageRenderer.PythonRenderer</text>
</g>
<!-- u7&#45;&gt;u37 -->
<g id="edge13" class="edge">
<title>u7&#45;&gt;u37</title>
<path fill="none" stroke="black" d="M1799.8,-3370.03C1854.73,-3294.93 2076.15,-2992.18 2141.9,-2902.29"/>
<polygon fill="black" stroke="black" points="2144.86,-2904.17 2147.94,-2894.03 2139.21,-2900.04 2144.86,-2904.17"/>
</g>
<!-- u36 -->
<g id="node48" class="node">
<title>u36</title>
<ellipse fill="#ff7777" stroke="black" cx="2898.39" cy="-2876" rx="352.84" ry="18"/>
<text text-anchor="middle" x="2898.39" y="-2872.3" font-family="Times,serif" font-size="14.00">Language.Drasil.Code.Imperative.GOOL.LanguageRenderer.CppRenderer</text>
</g>
<!-- u7&#45;&gt;u36 -->
<g id="edge12" class="edge">
<title>u7&#45;&gt;u36</title>
<path fill="none" stroke="black" d="M1822.79,-3370.75C1986.23,-3295.73 2667.8,-2982.85 2852.22,-2898.2"/>
<polygon fill="black" stroke="black" points="2853.75,-2901.34 2861.38,-2893.99 2850.83,-2894.98 2853.75,-2901.34"/>
</g>
<!-- u35 -->
<g id="node49" class="node">
<title>u35</title>
<ellipse fill="#ff7777" stroke="black" cx="3623.39" cy="-2876" rx="354.44" ry="18"/>
<text text-anchor="middle" x="3623.39" y="-2872.3" font-family="Times,serif" font-size="14.00">Language.Drasil.Code.Imperative.GOOL.LanguageRenderer.JavaRenderer</text>
</g>
<!-- u7&#45;&gt;u35 -->
<g id="edge11" class="edge">
<title>u7&#45;&gt;u35</title>
<path fill="none" stroke="black" d="M1841.35,-3372.01C2104.9,-3298.8 3256.22,-2978.99 3553.27,-2896.48"/>
<polygon fill="black" stroke="black" points="3554.36,-2899.81 3563.05,-2893.76 3552.48,-2893.07 3554.36,-2899.81"/>
</g>
<!-- u34 -->
<g id="node50" class="node">
<title>u34</title>
<ellipse fill="#ff7777" stroke="black" cx="670.39" cy="-2876" rx="369.33" ry="18"/>
<text text-anchor="middle" x="670.39" y="-2872.3" font-family="Times,serif" font-size="14.00">Language.Drasil.Code.Imperative.GOOL.LanguageRenderer.CSharpRenderer</text>
</g>
<!-- u7&#45;&gt;u34 -->
<g id="edge10" class="edge">
<title>u7&#45;&gt;u34</title>
<path fill="none" stroke="black" d="M1752.12,-3370.89C1588.37,-3296.13 902.47,-2982.96 716.87,-2898.22"/>
<polygon fill="black" stroke="black" points="718.2,-2894.98 707.65,-2894.01 715.29,-2901.35 718.2,-2894.98"/>
</g>
<!-- u33 -->
<g id="node51" class="node">
<title>u33</title>
<ellipse fill="#ff7777" stroke="black" cx="1416.39" cy="-2876" rx="358.54" ry="18"/>
<text text-anchor="middle" x="1416.39" y="-2872.3" font-family="Times,serif" font-size="14.00">Language.Drasil.Code.Imperative.GOOL.LanguageRenderer.SwiftRenderer</text>
</g>
<!-- u7&#45;&gt;u33 -->
<g id="edge9" class="edge">
<title>u7&#45;&gt;u33</title>
<path fill="none" stroke="black" d="M1775.05,-3370.03C1720.42,-3294.93 1500.19,-2992.18 1434.79,-2902.29"/>
<polygon fill="black" stroke="black" points="1437.5,-2900.06 1428.78,-2894.03 1431.84,-2904.18 1437.5,-2900.06"/>
</g>
<!-- u15 -->
<g id="node11" class="node">
<title>u15</title>
<ellipse fill="#ffbbbb" stroke="black" cx="3221.39" cy="-575" rx="202.26" ry="18"/>
<text text-anchor="middle" x="3221.39" y="-571.3" font-family="Times,serif" font-size="14.00">Language.Drasil.Chunk.NamedArgument</text>
</g>
<!-- u11 -->
<g id="node15" class="node">
<title>u11</title>
<ellipse fill="#ffbbbb" stroke="black" cx="2711.39" cy="-64" rx="145.67" ry="18"/>
<text text-anchor="middle" x="2711.39" y="-60.3" font-family="Times,serif" font-size="14.00">Language.Drasil.Chunk.Code</text>
</g>
<!-- u13&#45;&gt;u11 -->
<g id="edge24" class="edge">
<title>u13&#45;&gt;u11</title>
<path fill="none" stroke="black" d="M3119.38,-302.14C3042.69,-257.56 2834.59,-136.61 2748.97,-86.84"/>
<polygon fill="black" stroke="black" points="2750.51,-83.69 2740.11,-81.69 2747,-89.74 2750.51,-83.69"/>
</g>
<!-- u9 -->
<g id="node55" class="node">
<title>u9</title>
<ellipse fill="#ff77ff" stroke="black" cx="2711.39" cy="-831" rx="154.07" ry="18"/>
<text text-anchor="middle" x="2711.39" y="-827.3" font-family="Times,serif" font-size="14.00">Language.Drasil.Data.ODEInfo</text>
</g>
<!-- u12&#45;&gt;u9 -->
<g id="edge23" class="edge">
<title>u12&#45;&gt;u9</title>
<path fill="none" stroke="black" d="M3586.11,-1325.86C3397.22,-1291.28 2954.81,-1201.93 2840.39,-1105 2762.03,-1038.61 2728.05,-913.92 2716.42,-859.07"/>
<polygon fill="black" stroke="black" points="2719.81,-858.17 2714.39,-849.07 2712.95,-859.56 2719.81,-858.17"/>
</g>
<!-- u53&#45;&gt;u11 -->
<g id="edge84" class="edge">
<title>u53&#45;&gt;u11</title>
<path fill="none" stroke="black" d="M2518.3,-301.94C2554.02,-258.11 2649.14,-141.39 2691.06,-89.95"/>
<polygon fill="black" stroke="black" points="2693.95,-91.95 2697.55,-81.99 2688.52,-87.53 2693.95,-91.95"/>
</g>
<!-- u52 -->
<g id="node17" class="node">
<title>u52</title>
<ellipse fill="#bbffff" stroke="black" cx="3387.39" cy="-831" rx="207.96" ry="18"/>
<text text-anchor="middle" x="3387.39" y="-827.3" font-family="Times,serif" font-size="14.00">Language.Drasil.Code.ExternalLibraryCall</text>
</g>
<!-- u52&#45;&gt;u55 -->
<g id="edge83" class="edge">
<title>u52&#45;&gt;u55</title>
<path fill="none" stroke="black" d="M3398.48,-812.94C3426.83,-769.29 3502.15,-653.35 3535.77,-601.59"/>
<polygon fill="black" stroke="black" points="3538.85,-603.28 3541.36,-592.99 3532.98,-599.47 3538.85,-603.28"/>
</g>
<!-- u52&#45;&gt;u15 -->
<g id="edge82" class="edge">
<title>u52&#45;&gt;u15</title>
<path fill="none" stroke="black" d="M3376.24,-812.94C3347.72,-769.29 3271.95,-653.35 3238.12,-601.59"/>
<polygon fill="black" stroke="black" points="3240.9,-599.44 3232.5,-592.99 3235.04,-603.27 3240.9,-599.44"/>
</g>
<!-- u21 -->
<g id="node18" class="node">
<title>u21</title>
<ellipse fill="#bbffff" stroke="black" cx="3847.39" cy="-1087" rx="178.97" ry="18"/>
<text text-anchor="middle" x="3847.39" y="-1083.3" font-family="Times,serif" font-size="14.00">Language.Drasil.Code.ExtLibImport</text>
</g>
<!-- u21&#45;&gt;u52 -->
<g id="edge30" class="edge">
<title>u21&#45;&gt;u52</title>
<path fill="none" stroke="black" d="M3816.86,-1069.14C3736.06,-1024.52 3516.71,-903.41 3426.72,-853.72"/>
<polygon fill="black" stroke="black" points="3428.37,-850.63 3417.92,-848.86 3424.98,-856.75 3428.37,-850.63"/>
</g>
<!-- u18 -->
<g id="node21" class="node">
<title>u18</title>
<ellipse fill="#bbffff" stroke="black" cx="3803.39" cy="-831" rx="190.37" ry="18"/>
<text text-anchor="middle" x="3803.39" y="-827.3" font-family="Times,serif" font-size="14.00">Language.Drasil.Code.ExternalLibrary</text>
</g>
<!-- u21&#45;&gt;u18 -->
<g id="edge29" class="edge">
<title>u21&#45;&gt;u18</title>
<path fill="none" stroke="black" d="M3844.44,-1068.94C3836.96,-1025.75 3817.22,-911.82 3808.12,-859.26"/>
<polygon fill="black" stroke="black" points="3811.55,-858.58 3806.39,-849.32 3804.65,-859.77 3811.55,-858.58"/>
</g>
<!-- u20 -->
<g id="node19" class="node">
<title>u20</title>
<ellipse fill="#bbffff" stroke="black" cx="4186.39" cy="-2876" rx="191.17" ry="18"/>
<text text-anchor="middle" x="4186.39" y="-2872.3" font-family="Times,serif" font-size="14.00">Language.Drasil.Code.CodeGeneration</text>
</g>
<!-- u20&#45;&gt;u16 -->
<g id="edge27" class="edge">
<title>u20&#45;&gt;u16</title>
<path fill="none" stroke="black" d="M4098.61,-2859.98C3958.4,-2833 3679.09,-2766.86 3476.39,-2639 3324.06,-2542.91 3341.92,-2451.74 3195.39,-2347 2789.22,-2056.67 2445.6,-2293.12 2177.39,-1872 2095.28,-1743.07 2192.31,-1238.5 2217.65,-1115.27"/>
<polygon fill="black" stroke="black" points="2221.14,-1115.67 2219.74,-1105.17 2214.29,-1114.25 2221.14,-1115.67"/>
</g>
<!-- u30 -->
<g id="node46" class="node">
<title>u30</title>
<ellipse fill="#7777ff" stroke="black" cx="2489.39" cy="-2621" rx="222.06" ry="18"/>
<text text-anchor="middle" x="2489.39" y="-2617.3" font-family="Times,serif" font-size="14.00">Language.Drasil.Code.Imperative.GOOL.Data</text>
</g>
<!-- u20&#45;&gt;u30 -->
<g id="edge28" class="edge">
<title>u20&#45;&gt;u30</title>
<path fill="none" stroke="black" d="M4089.06,-2860.49C3794.26,-2816.54 2912.32,-2685.05 2600.29,-2638.53"/>
<polygon fill="black" stroke="black" points="2600.73,-2635.06 2590.32,-2637.05 2599.7,-2641.98 2600.73,-2635.06"/>
</g>
<!-- u19 -->
<g id="node20" class="node">
<title>u19</title>
<ellipse fill="#bbffff" stroke="black" cx="3022.39" cy="-831" rx="139.18" ry="18"/>
<text text-anchor="middle" x="3022.39" y="-827.3" font-family="Times,serif" font-size="14.00">Language.Drasil.Code.Lang</text>
</g>
<!-- u18&#45;&gt;u55 -->
<g id="edge26" class="edge">
<title>u18&#45;&gt;u55</title>
<path fill="none" stroke="black" d="M3786.54,-812.94C3743.04,-768.93 3626.93,-651.43 3576.42,-600.31"/>
<polygon fill="black" stroke="black" points="3578.7,-597.64 3569.18,-592.99 3573.72,-602.56 3578.7,-597.64"/>
</g>
<!-- u18&#45;&gt;u15 -->
<g id="edge25" class="edge">
<title>u18&#45;&gt;u15</title>
<path fill="none" stroke="black" d="M3765.21,-813.33C3662.74,-768.61 3381.87,-646.03 3269.14,-596.84"/>
<polygon fill="black" stroke="black" points="3270.29,-593.52 3259.72,-592.73 3267.49,-599.93 3270.29,-593.52"/>
</g>
<!-- u17 -->
<g id="node22" class="node">
<title>u17</title>
<ellipse fill="#bbffff" stroke="black" cx="5338.39" cy="-2109" rx="204.16" ry="18"/>
<text text-anchor="middle" x="5338.39" y="-2105.3" font-family="Times,serif" font-size="14.00">Language.Drasil.Code.CodeQuantityDicts</text>
</g>
<!-- u51 -->
<g id="node24" class="node">
<title>u51</title>
<ellipse fill="#ffbbff" stroke="black" cx="4478.39" cy="-2365" rx="201.46" ry="18"/>
<text text-anchor="middle" x="4478.39" y="-2361.3" font-family="Times,serif" font-size="14.00">Language.Drasil.Code.Imperative.Import</text>
</g>
<!-- u51&#45;&gt;u17 -->
<g id="edge76" class="edge">
<title>u51&#45;&gt;u17</title>
<path fill="none" stroke="black" d="M4533.83,-2347.63C4686.01,-2302.68 5109.76,-2177.53 5273.06,-2129.3"/>
<polygon fill="black" stroke="black" points="5274.38,-2132.56 5282.97,-2126.37 5272.39,-2125.84 5274.38,-2132.56"/>
</g>
<!-- u48 -->
<g id="node27" class="node">
<title>u48</title>
<ellipse fill="#ffbbff" stroke="black" cx="3556.39" cy="-2109" rx="240.46" ry="18"/>
<text text-anchor="middle" x="3556.39" y="-2105.3" font-family="Times,serif" font-size="14.00">Language.Drasil.Code.Imperative.GenerateGOOL</text>
</g>
<!-- u51&#45;&gt;u48 -->
<g id="edge81" class="edge">
<title>u51&#45;&gt;u48</title>
<path fill="none" stroke="black" d="M4419.32,-2347.72C4256.35,-2302.83 3800.95,-2177.37 3626.04,-2129.19"/>
<polygon fill="black" stroke="black" points="3626.74,-2125.75 3616.17,-2126.47 3624.88,-2132.5 3626.74,-2125.75"/>
</g>
<!-- u45 -->
<g id="node28" class="node">
<title>u45</title>
<ellipse fill="#ffbbff" stroke="black" cx="4909.39" cy="-2109" rx="207.16" ry="18"/>
<text text-anchor="middle" x="4909.39" y="-2105.3" font-family="Times,serif" font-size="14.00">Language.Drasil.Code.Imperative.Logging</text>
</g>
<!-- u51&#45;&gt;u45 -->
<g id="edge80" class="edge">
<title>u51&#45;&gt;u45</title>
<path fill="none" stroke="black" d="M4507.01,-2347.14C4582.56,-2302.61 4787.4,-2181.9 4872.03,-2132.02"/>
<polygon fill="black" stroke="black" points="4873.95,-2134.95 4880.79,-2126.86 4870.4,-2128.92 4873.95,-2134.95"/>
</g>
<!-- u29 -->
<g id="node34" class="node">
<title>u29</title>
<ellipse fill="#ffbbff" stroke="black" cx="4034.39" cy="-2109" rx="219.86" ry="18"/>
<text text-anchor="middle" x="4034.39" y="-2105.3" font-family="Times,serif" font-size="14.00">Language.Drasil.Code.Imperative.Comments</text>
</g>
<!-- u51&#45;&gt;u29 -->
<g id="edge79" class="edge">
<title>u51&#45;&gt;u29</title>
<path fill="none" stroke="black" d="M4448.92,-2347.14C4371.01,-2302.57 4159.64,-2181.65 4072.62,-2131.87"/>
<polygon fill="black" stroke="black" points="4074.28,-2128.78 4063.86,-2126.86 4070.8,-2134.86 4074.28,-2128.78"/>
</g>
<!-- u28 -->
<g id="node35" class="node">
<title>u28</title>
<ellipse fill="#ffbbff" stroke="black" cx="4478.39" cy="-2109" rx="206.06" ry="18"/>
<text text-anchor="middle" x="4478.39" y="-2105.3" font-family="Times,serif" font-size="14.00">Language.Drasil.Code.Imperative.Helpers</text>
</g>
<!-- u51&#45;&gt;u28 -->
<g id="edge78" class="edge">
<title>u51&#45;&gt;u28</title>
<path fill="none" stroke="black" d="M4478.39,-2346.94C4478.39,-2303.84 4478.39,-2190.29 4478.39,-2137.59"/>
<polygon fill="black" stroke="black" points="4481.89,-2137.32 4478.39,-2127.32 4474.89,-2137.32 4481.89,-2137.32"/>
</g>
<!-- u23 -->
<g id="node39" class="node">
<title>u23</title>
<ellipse fill="#ffbbff" stroke="black" cx="3136.39" cy="-1598" rx="237.46" ry="18"/>
<text text-anchor="middle" x="3136.39" y="-1594.3" font-family="Times,serif" font-size="14.00">Language.Drasil.Code.Imperative.ConceptMatch</text>
</g>
<!-- u51&#45;&gt;u23 -->
<g id="edge77" class="edge">
<title>u51&#45;&gt;u23</title>
<path fill="none" stroke="black" d="M4326.17,-2353.2C4043.11,-2330.01 3451.39,-2265.85 3307.39,-2127 3211.64,-2034.66 3279.17,-1962.29 3237.39,-1836 3211.4,-1757.41 3170.2,-1668.58 3149.37,-1625.39"/>
<polygon fill="black" stroke="black" points="3152.4,-1623.63 3144.89,-1616.16 3146.1,-1626.68 3152.4,-1623.63"/>
</g>
<!-- u50 -->
<g id="node25" class="node">
<title>u50</title>
<ellipse fill="#ffbbff" stroke="black" cx="5338.39" cy="-2365" rx="223.66" ry="18"/>
<text text-anchor="middle" x="5338.39" y="-2361.3" font-family="Times,serif" font-size="14.00">Language.Drasil.Code.Imperative.Parameters</text>
</g>
<!-- u50&#45;&gt;u17 -->
<g id="edge74" class="edge">
<title>u50&#45;&gt;u17</title>
<path fill="none" stroke="black" d="M5338.39,-2346.94C5338.39,-2303.84 5338.39,-2190.29 5338.39,-2137.59"/>
<polygon fill="black" stroke="black" points="5341.89,-2137.32 5338.39,-2127.32 5334.89,-2137.32 5341.89,-2137.32"/>
</g>
<!-- u22 -->
<g id="node40" class="node">
<title>u22</title>
<ellipse fill="#ffbbff" stroke="black" cx="4129.39" cy="-1854" rx="222.06" ry="18"/>
<text text-anchor="middle" x="4129.39" y="-1850.3" font-family="Times,serif" font-size="14.00">Language.Drasil.Code.Imperative.DrasilState</text>
</g>
<!-- u50&#45;&gt;u22 -->
<g id="edge75" class="edge">
<title>u50&#45;&gt;u22</title>
<path fill="none" stroke="black" d="M5369.59,-2347.16C5446.11,-2303.81 5631.18,-2185.12 5551.39,-2091 5400.84,-1913.4 4717.91,-1869.3 4356.05,-1858.45"/>
<polygon fill="black" stroke="black" points="4356.06,-1854.95 4345.96,-1858.16 4355.86,-1861.95 4356.06,-1854.95"/>
</g>
<!-- u49&#45;&gt;u20 -->
<g id="edge70" class="edge">
<title>u49&#45;&gt;u20</title>
<path fill="none" stroke="black" d="M4576.64,-3114.14C4503.52,-3069.7 4305.52,-2949.38 4223.13,-2899.32"/>
<polygon fill="black" stroke="black" points="4224.5,-2896.06 4214.13,-2893.86 4220.86,-2902.04 4224.5,-2896.06"/>
</g>
<!-- u43 -->
<g id="node30" class="node">
<title>u43</title>
<ellipse fill="#ffbbff" stroke="black" cx="4604.39" cy="-2876" rx="209.06" ry="18"/>
<text text-anchor="middle" x="4604.39" y="-2872.3" font-family="Times,serif" font-size="14.00">Language.Drasil.Code.Imperative.Modules</text>
</g>
<!-- u49&#45;&gt;u43 -->
<g id="edge73" class="edge">
<title>u49&#45;&gt;u43</title>
<path fill="none" stroke="black" d="M4604.39,-3113.94C4604.39,-3070.84 4604.39,-2957.29 4604.39,-2904.59"/>
<polygon fill="black" stroke="black" points="4607.89,-2904.32 4604.39,-2894.32 4600.89,-2904.32 4607.89,-2904.32"/>
</g>
<!-- u40 -->
<g id="node32" class="node">
<title>u40</title>
<ellipse fill="#ffbbff" stroke="black" cx="5288.39" cy="-2621" rx="226.66" ry="18"/>
<text text-anchor="middle" x="5288.39" y="-2617.3" font-family="Times,serif" font-size="14.00">Language.Drasil.Code.Imperative.SpaceMatch</text>
</g>
<!-- u49&#45;&gt;u40 -->
<g id="edge72" class="edge">
<title>u49&#45;&gt;u40</title>
<path fill="none" stroke="black" d="M4627.15,-3114.06C4728.69,-3038.5 5140.49,-2732.07 5257.34,-2645.11"/>
<polygon fill="black" stroke="black" points="5259.62,-2647.78 5265.55,-2639 5255.44,-2642.16 5259.62,-2647.78"/>
</g>
<!-- u39 -->
<g id="node33" class="node">
<title>u39</title>
<ellipse fill="#ffbbff" stroke="black" cx="3891.39" cy="-1598" rx="209.86" ry="18"/>
<text text-anchor="middle" x="3891.39" y="-1594.3" font-family="Times,serif" font-size="14.00">Language.Drasil.Code.Imperative.GenODE</text>
</g>
<!-- u49&#45;&gt;u39 -->
<g id="edge71" class="edge">
<title>u49&#45;&gt;u39</title>
<path fill="none" stroke="black" d="M4787.69,-3122.31C5086.68,-3097.2 5646.39,-2999.75 5646.39,-2622 5646.39,-2622 5646.39,-2622 5646.39,-2108 5646.39,-1778.28 4489.34,-1648.43 4054.21,-1611.25"/>
<polygon fill="black" stroke="black" points="4054.33,-1607.75 4044.07,-1610.39 4053.74,-1614.72 4054.33,-1607.75"/>
</g>
<!-- u48&#45;&gt;u22 -->
<g id="edge68" class="edge">
<title>u48&#45;&gt;u22</title>
<path fill="none" stroke="black" d="M3594.43,-2091.2C3695.59,-2046.54 3971.07,-1924.91 4082.09,-1875.89"/>
<polygon fill="black" stroke="black" points="4083.63,-1879.03 4091.37,-1871.79 4080.81,-1872.63 4083.63,-1879.03"/>
</g>
<!-- u38 -->
<g id="node44" class="node">
<title>u38</title>
<ellipse fill="#7777ff" stroke="black" cx="2961.39" cy="-1854" rx="267.25" ry="18"/>
<text text-anchor="middle" x="2961.39" y="-1850.3" font-family="Times,serif" font-size="14.00">Language.Drasil.Code.Imperative.GOOL.ClassInterface</text>
</g>
<!-- u48&#45;&gt;u38 -->
<g id="edge69" class="edge">
<title>u48&#45;&gt;u38</title>
<path fill="none" stroke="black" d="M3516.89,-2091.2C3411.87,-2046.55 3125.91,-1924.95 3010.58,-1875.92"/>
<polygon fill="black" stroke="black" points="3011.84,-1872.65 3001.27,-1871.96 3009.1,-1879.09 3011.84,-1872.65"/>
</g>
<!-- u45&#45;&gt;u22 -->
<g id="edge66" class="edge">
<title>u45&#45;&gt;u22</title>
<path fill="none" stroke="black" d="M4858.52,-2091.5C4720.55,-2046.75 4339.68,-1923.21 4190.47,-1874.81"/>
<polygon fill="black" stroke="black" points="4191.15,-1871.35 4180.56,-1871.6 4188.99,-1878.01 4191.15,-1871.35"/>
</g>
<!-- u44 -->
<g id="node29" class="node">
<title>u44</title>
<ellipse fill="#ffbbff" stroke="black" cx="1910.39" cy="-1598" rx="219.86" ry="18"/>
<text text-anchor="middle" x="1910.39" y="-1594.3" font-family="Times,serif" font-size="14.00">Language.Drasil.Code.Imperative.WriteInput</text>
</g>
<!-- u44&#45;&gt;u53 -->
<g id="edge65" class="edge">
<title>u44&#45;&gt;u53</title>
<path fill="none" stroke="black" d="M1919.03,-1579.92C1950.25,-1516.57 2055.39,-1288.31 2055.39,-1088 2055.39,-1088 2055.39,-1088 2055.39,-830 2055.39,-585.3 2350.84,-402.66 2462.42,-342.42"/>
<polygon fill="black" stroke="black" points="2464.21,-345.43 2471.38,-337.63 2460.91,-339.25 2464.21,-345.43"/>
</g>
<!-- u42 -->
<g id="node31" class="node">
<title>u42</title>
<ellipse fill="#ffbbff" stroke="black" cx="4604.39" cy="-2621" rx="233.16" ry="18"/>
<text text-anchor="middle" x="4604.39" y="-2617.3" font-family="Times,serif" font-size="14.00">Language.Drasil.Code.Imperative.FunctionCalls</text>
</g>
<!-- u43&#45;&gt;u42 -->
<g id="edge64" class="edge">
<title>u43&#45;&gt;u42</title>
<path fill="none" stroke="black" d="M4604.39,-2857.61C4604.39,-2814.36 4604.39,-2701.65 4604.39,-2649.37"/>
<polygon fill="black" stroke="black" points="4607.89,-2649.18 4604.39,-2639.18 4600.89,-2649.18 4607.89,-2649.18"/>
</g>
<!-- u24 -->
<g id="node38" class="node">
<title>u24</title>
<ellipse fill="#ffbbff" stroke="black" cx="3713.39" cy="-2621" rx="228.26" ry="18"/>
<text text-anchor="middle" x="3713.39" y="-2617.3" font-family="Times,serif" font-size="14.00">Language.Drasil.Code.Imperative.Descriptions</text>
</g>
<!-- u43&#45;&gt;u24 -->
<g id="edge63" class="edge">
<title>u43&#45;&gt;u24</title>
<path fill="none" stroke="black" d="M4546.62,-2858.59C4388.67,-2813.75 3950.19,-2689.24 3781.11,-2641.23"/>
<polygon fill="black" stroke="black" points="3781.9,-2637.81 3771.33,-2638.45 3779.99,-2644.55 3781.9,-2637.81"/>
</g>
<!-- u42&#45;&gt;u51 -->
<g id="edge62" class="edge">
<title>u42&#45;&gt;u51</title>
<path fill="none" stroke="black" d="M4595.93,-2602.94C4574.37,-2559.47 4517.24,-2444.31 4491.41,-2392.23"/>
<polygon fill="black" stroke="black" points="4494.4,-2390.39 4486.82,-2382.99 4488.13,-2393.5 4494.4,-2390.39"/>
</g>
<!-- u42&#45;&gt;u50 -->
<g id="edge61" class="edge">
<title>u42&#45;&gt;u50</title>
<path fill="none" stroke="black" d="M4652.55,-2603.33C4782.43,-2558.39 5139.58,-2434.8 5280.3,-2386.1"/>
<polygon fill="black" stroke="black" points="5281.75,-2389.3 5290.06,-2382.73 5279.46,-2382.69 5281.75,-2389.3"/>
</g>
<!-- u40&#45;&gt;u22 -->
<g id="edge59" class="edge">
<title>u40&#45;&gt;u22</title>
<path fill="none" stroke="black" d="M5324.01,-2603.21C5387.69,-2570.94 5519.25,-2493.56 5571.39,-2383 5626.76,-2265.62 5657.44,-2189.89 5573.39,-2091 5420.1,-1910.62 4724.62,-1867.8 4357.69,-1857.85"/>
<polygon fill="black" stroke="black" points="4357.55,-1854.34 4347.46,-1857.58 4357.37,-1861.34 4357.55,-1854.34"/>
</g>
<!-- u39&#45;&gt;u54 -->
<g id="edge58" class="edge">
<title>u39&#45;&gt;u54</title>
<path fill="none" stroke="black" d="M3830.14,-1580.72C3659.35,-1535.35 3178.86,-1407.69 3001.9,-1360.67"/>
<polygon fill="black" stroke="black" points="3002.76,-1357.28 2992.19,-1358.09 3000.96,-1364.04 3002.76,-1357.28"/>
</g>
<!-- u39&#45;&gt;u12 -->
<g id="edge56" class="edge">
<title>u39&#45;&gt;u12</title>
<path fill="none" stroke="black" d="M3876.69,-1579.94C3838.82,-1536.02 3737.84,-1418.91 3693.63,-1367.63"/>
<polygon fill="black" stroke="black" points="3696.22,-1365.27 3687.04,-1359.99 3690.92,-1369.84 3696.22,-1365.27"/>
</g>
<!-- u39&#45;&gt;u21 -->
<g id="edge57" class="edge">
<title>u39&#45;&gt;u21</title>
<path fill="none" stroke="black" d="M3890.41,-1579.74C3887.9,-1536.58 3880.87,-1420.55 3872.39,-1324 3865.76,-1248.33 3855.71,-1159.24 3850.61,-1115.31"/>
<polygon fill="black" stroke="black" points="3854.06,-1114.68 3849.43,-1105.15 3847.11,-1115.49 3854.06,-1114.68"/>
</g>
<!-- u29&#45;&gt;u22 -->
<g id="edge39" class="edge">
<title>u29&#45;&gt;u22</title>
<path fill="none" stroke="black" d="M4040.78,-2091.01C4056.96,-2047.9 4099.72,-1934.03 4119.32,-1881.83"/>
<polygon fill="black" stroke="black" points="4122.68,-1882.84 4122.92,-1872.25 4116.12,-1880.38 4122.68,-1882.84"/>
</g>
<!-- u28&#45;&gt;u22 -->
<g id="edge38" class="edge">
<title>u28&#45;&gt;u22</title>
<path fill="none" stroke="black" d="M4454.95,-2091.01C4393.98,-2046.81 4230.37,-1928.2 4161.09,-1877.98"/>
<polygon fill="black" stroke="black" points="4162.88,-1874.95 4152.73,-1871.92 4158.78,-1880.62 4162.88,-1874.95"/>
</g>
<!-- u27&#45;&gt;u53 -->
<g id="edge37" class="edge">
<title>u27&#45;&gt;u53</title>
<path fill="none" stroke="black" d="M774.19,-1836.66C930.84,-1789.18 1346.39,-1635.63 1346.39,-1343 1346.39,-1343 1346.39,-1343 1346.39,-830 1346.39,-594.62 2158.38,-396.53 2422.48,-338.33"/>
<polygon fill="black" stroke="black" points="2423.38,-341.72 2432.39,-336.15 2421.88,-334.88 2423.38,-341.72"/>
</g>
<!-- u26 -->
<g id="node37" class="node">
<title>u26</title>
<ellipse fill="#ffbbff" stroke="black" cx="2309.39" cy="-2365" rx="233.16" ry="18"/>
<text text-anchor="middle" x="2309.39" y="-2361.3" font-family="Times,serif" font-size="14.00">Language.Drasil.Code.Imperative.WriteReadMe</text>
</g>
<!-- u26&#45;&gt;u38 -->
<g id="edge36" class="edge">
<title>u26&#45;&gt;u38</title>
<path fill="none" stroke="black" d="M2331.09,-2347.06C2427.78,-2271.58 2819.62,-1965.68 2931.46,-1878.37"/>
<polygon fill="black" stroke="black" points="2933.89,-1880.91 2939.62,-1872 2929.58,-1875.39 2933.89,-1880.91"/>
</g>
<!-- u24&#45;&gt;u22 -->
<g id="edge34" class="edge">
<title>u24&#45;&gt;u22</title>
<path fill="none" stroke="black" d="M3681.25,-2602.96C3561.35,-2537.23 3154.67,-2293.74 3307.39,-2091 3392.43,-1978.11 3805.6,-1902.61 4011.82,-1871.32"/>
<polygon fill="black" stroke="black" points="4012.42,-1874.77 4021.79,-1869.82 4011.38,-1867.84 4012.42,-1874.77"/>
</g>
<!-- u23&#45;&gt;u54 -->
<g id="edge33" class="edge">
<title>u23&#45;&gt;u54</title>
<path fill="none" stroke="black" d="M3122.89,-1579.94C3088.21,-1536.11 2995.85,-1419.39 2955.14,-1367.95"/>
<polygon fill="black" stroke="black" points="2957.79,-1365.66 2948.84,-1359.99 2952.3,-1370 2957.79,-1365.66"/>
</g>
<!-- u22&#45;&gt;u8 -->
<g id="edge31" class="edge">
<title>u22&#45;&gt;u8</title>
<path fill="none" stroke="black" d="M4089.43,-1836.14C3982.66,-1791.09 3691.06,-1668.05 3575.49,-1619.29"/>
<polygon fill="black" stroke="black" points="3576.75,-1616.02 3566.17,-1615.36 3574.02,-1622.47 3576.75,-1616.02"/>
</g>
<!-- u22&#45;&gt;u21 -->
<g id="edge32" class="edge">
<title>u22&#45;&gt;u21</title>
<path fill="none" stroke="black" d="M4130.64,-1835.96C4133.31,-1792.35 4137.33,-1673.6 4110.39,-1580 4054.78,-1386.75 3916.39,-1183.35 3866.06,-1113.37"/>
<polygon fill="black" stroke="black" points="3868.8,-1111.18 3860.1,-1105.13 3863.13,-1115.29 3868.8,-1111.18"/>
</g>
<!-- u47 -->
<g id="node41" class="node">
<title>u47</title>
<ellipse fill="#77ff77" stroke="black" cx="1653.39" cy="-2365" rx="228.56" ry="18"/>
<text text-anchor="middle" x="1653.39" y="-2361.3" font-family="Times,serif" font-size="14.00">Language.Drasil.Code.Imperative.Build.Import</text>
</g>
<!-- u46 -->
<g id="node42" class="node">
<title>u46</title>
<ellipse fill="#77ff77" stroke="black" cx="1653.39" cy="-2109" rx="215.56" ry="18"/>
<text text-anchor="middle" x="1653.39" y="-2105.3" font-family="Times,serif" font-size="14.00">Language.Drasil.Code.Imperative.Build.AST</text>
</g>
<!-- u47&#45;&gt;u46 -->
<g id="edge67" class="edge">
<title>u47&#45;&gt;u46</title>
<path fill="none" stroke="black" d="M1653.39,-2346.94C1653.39,-2303.84 1653.39,-2190.29 1653.39,-2137.59"/>
<polygon fill="black" stroke="black" points="1656.89,-2137.32 1653.39,-2127.32 1649.89,-2137.32 1656.89,-2137.32"/>
</g>
<!-- u41 -->
<g id="node43" class="node">
<title>u41</title>
<ellipse fill="#ffff77" stroke="black" cx="2431.39" cy="-1854" rx="245.06" ry="18"/>
<text text-anchor="middle" x="2431.39" y="-1850.3" font-family="Times,serif" font-size="14.00">Language.Drasil.Code.Imperative.Doxygen.Import</text>
</g>
<!-- u41&#45;&gt;u54 -->
<g id="edge60" class="edge">
<title>u41&#45;&gt;u54</title>
<path fill="none" stroke="black" d="M2448.16,-1836.03C2522.68,-1760.63 2823.98,-1455.74 2911.47,-1367.21"/>
<polygon fill="black" stroke="black" points="2914.02,-1369.61 2918.56,-1360.03 2909.04,-1364.68 2914.02,-1369.61"/>
</g>
<!-- u38&#45;&gt;u54 -->
<g id="edge55" class="edge">
<title>u38&#45;&gt;u54</title>
<path fill="none" stroke="black" d="M2954.36,-1835.85C2939,-1797.36 2902.82,-1700.78 2890.39,-1616 2877.13,-1525.48 2908.51,-1418.55 2925.45,-1369.72"/>
<polygon fill="black" stroke="black" points="2928.77,-1370.81 2928.82,-1360.21 2922.18,-1368.47 2928.77,-1370.81"/>
</g>
<!-- u31 -->
<g id="node45" class="node">
<title>u31</title>
<ellipse fill="#7777ff" stroke="black" cx="2897.39" cy="-2365" rx="289.45" ry="18"/>
<text text-anchor="middle" x="2897.39" y="-2361.3" font-family="Times,serif" font-size="14.00">Language.Drasil.Code.Imperative.GOOL.LanguageRenderer</text>
</g>
<!-- u37&#45;&gt;u30 -->
<g id="edge53" class="edge">
<title>u37&#45;&gt;u30</title>
<path fill="none" stroke="black" d="M2182.49,-2858.01C2239.85,-2813.9 2393.57,-2695.69 2459.12,-2645.28"/>
<polygon fill="black" stroke="black" points="2461.6,-2647.79 2467.39,-2638.92 2457.33,-2642.24 2461.6,-2647.79"/>
</g>
<!-- u32 -->
<g id="node52" class="node">
<title>u32</title>
<ellipse fill="#ff7777" stroke="black" cx="1855.39" cy="-2621" rx="393.73" ry="18"/>
<text text-anchor="middle" x="1855.39" y="-2617.3" font-family="Times,serif" font-size="14.00">Language.Drasil.Code.Imperative.GOOL.LanguageRenderer.LanguagePolymorphic</text>
</g>
<!-- u37&#45;&gt;u32 -->
<g id="edge54" class="edge">
<title>u37&#45;&gt;u32</title>
<path fill="none" stroke="black" d="M2139.91,-2858.01C2086.86,-2814 1944.91,-2696.25 1883.9,-2645.65"/>
<polygon fill="black" stroke="black" points="1886.12,-2642.94 1876.19,-2639.25 1881.65,-2648.33 1886.12,-2642.94"/>
</g>
<!-- u36&#45;&gt;u30 -->
<g id="edge51" class="edge">
<title>u36&#45;&gt;u30</title>
<path fill="none" stroke="black" d="M2870.92,-2858.01C2799.18,-2813.63 2606.17,-2694.24 2525.55,-2644.37"/>
<polygon fill="black" stroke="black" points="2527.09,-2641.2 2516.75,-2638.92 2523.41,-2647.16 2527.09,-2641.2"/>
</g>
<!-- u36&#45;&gt;u32 -->
<g id="edge52" class="edge">
<title>u36&#45;&gt;u32</title>
<path fill="none" stroke="black" d="M2829.56,-2858.3C2643.55,-2813.18 2131.62,-2689.01 1934.35,-2641.15"/>
<polygon fill="black" stroke="black" points="1934.89,-2637.68 1924.35,-2638.73 1933.24,-2644.48 1934.89,-2637.68"/>
</g>
<!-- u35&#45;&gt;u30 -->
<g id="edge49" class="edge">
<title>u35&#45;&gt;u30</title>
<path fill="none" stroke="black" d="M3548.99,-2858.4C3345.88,-2813.08 2783.01,-2687.51 2571.31,-2640.28"/>
<polygon fill="black" stroke="black" points="2572.02,-2636.85 2561.5,-2638.09 2570.5,-2643.68 2572.02,-2636.85"/>
</g>
<!-- u35&#45;&gt;u32 -->
<g id="edge50" class="edge">
<title>u35&#45;&gt;u32</title>
<path fill="none" stroke="black" d="M3510.78,-2858.89C3195.73,-2813.8 2307.01,-2686.63 1979.01,-2639.69"/>
<polygon fill="black" stroke="black" points="1979.4,-2636.21 1969,-2638.26 1978.41,-2643.14 1979.4,-2636.21"/>
</g>
<!-- u34&#45;&gt;u30 -->
<g id="edge47" class="edge">
<title>u34&#45;&gt;u30</title>
<path fill="none" stroke="black" d="M786.25,-2858.89C1113.88,-2813.32 2044.48,-2683.88 2372.89,-2638.2"/>
<polygon fill="black" stroke="black" points="2373.48,-2641.66 2382.9,-2636.81 2372.52,-2634.72 2373.48,-2641.66"/>
</g>
<!-- u34&#45;&gt;u32 -->
<g id="edge48" class="edge">
<title>u34&#45;&gt;u32</title>
<path fill="none" stroke="black" d="M748.15,-2858.4C959.61,-2813.25 1544.24,-2688.43 1767.33,-2640.8"/>
<polygon fill="black" stroke="black" points="1768.31,-2644.17 1777.36,-2638.66 1766.85,-2637.33 1768.31,-2644.17"/>
</g>
<!-- u33&#45;&gt;u30 -->
<g id="edge45" class="edge">
<title>u33&#45;&gt;u30</title>
<path fill="none" stroke="black" d="M1487.21,-2858.3C1679.47,-2812.97 2210.17,-2687.84 2411.01,-2640.48"/>
<polygon fill="black" stroke="black" points="2411.97,-2643.85 2420.9,-2638.15 2410.36,-2637.04 2411.97,-2643.85"/>
</g>
<!-- u33&#45;&gt;u32 -->
<g id="edge46" class="edge">
<title>u33&#45;&gt;u32</title>
<path fill="none" stroke="black" d="M1445.88,-2858.01C1523.03,-2813.55 1730.81,-2693.8 1817.06,-2644.09"/>
<polygon fill="black" stroke="black" points="1818.83,-2647.11 1825.75,-2639.09 1815.34,-2641.05 1818.83,-2647.11"/>
</g>
<!-- u32&#45;&gt;u44 -->
<g id="edge43" class="edge">
<title>u32&#45;&gt;u44</title>
<path fill="none" stroke="black" d="M1858.76,-2602.84C1866.24,-2563.93 1884.12,-2465.92 1891.39,-2383 1917.31,-2087.55 1912.88,-1727.25 1910.98,-1626.38"/>
<polygon fill="black" stroke="black" points="1914.48,-1626.08 1910.78,-1616.15 1907.48,-1626.21 1914.48,-1626.08"/>
</g>
<!-- u32&#45;&gt;u26 -->
<g id="edge40" class="edge">
<title>u32&#45;&gt;u26</title>
<path fill="none" stroke="black" d="M1885.89,-2602.94C1965.77,-2558.25 2181.07,-2437.79 2270.07,-2388"/>
<polygon fill="black" stroke="black" points="2272.02,-2390.92 2279.03,-2382.99 2268.6,-2384.81 2272.02,-2390.92"/>
</g>
<!-- u32&#45;&gt;u47 -->
<g id="edge44" class="edge">
<title>u32&#45;&gt;u47</title>
<path fill="none" stroke="black" d="M1841.83,-2602.94C1806.97,-2559.11 1714.15,-2442.39 1673.23,-2390.95"/>
<polygon fill="black" stroke="black" points="1675.87,-2388.63 1666.9,-2382.99 1670.39,-2392.99 1675.87,-2388.63"/>
</g>
<!-- u32&#45;&gt;u41 -->
<g id="edge42" class="edge">
<title>u32&#45;&gt;u41</title>
<path fill="none" stroke="black" d="M1868.23,-2602.95C1943.05,-2503.58 2322.57,-1999.54 2412.34,-1880.31"/>
<polygon fill="black" stroke="black" points="2415.31,-1882.19 2418.53,-1872.09 2409.71,-1877.98 2415.31,-1882.19"/>
</g>
<!-- u32&#45;&gt;u31 -->
<g id="edge41" class="edge">
<title>u32&#45;&gt;u31</title>
<path fill="none" stroke="black" d="M1924.17,-2603.24C2110.33,-2557.86 2623.27,-2432.82 2819.58,-2384.97"/>
<polygon fill="black" stroke="black" points="2820.64,-2388.31 2829.53,-2382.54 2818.98,-2381.51 2820.64,-2388.31"/>
</g>
<!-- u25 -->
<g id="node53" class="node">
<title>u25</title>
<ellipse fill="#77ffff" stroke="black" cx="2997.39" cy="-2621" rx="267.55" ry="18"/>
<text text-anchor="middle" x="2997.39" y="-2617.3" font-family="Times,serif" font-size="14.00">Language.Drasil.Code.Imperative.Parsers.ConfigParser</text>
</g>
<!-- u25&#45;&gt;u31 -->
<g id="edge35" class="edge">
<title>u25&#45;&gt;u31</title>
<path fill="none" stroke="black" d="M2990.68,-2602.94C2973.64,-2559.66 2928.63,-2445.34 2908,-2392.94"/>
<polygon fill="black" stroke="black" points="2911.13,-2391.34 2904.21,-2383.32 2904.62,-2393.91 2911.13,-2391.34"/>
</g>
<!-- u10&#45;&gt;u52 -->
<g id="edge22" class="edge">
<title>u10&#45;&gt;u52</title>
<path fill="none" stroke="black" d="M3046.63,-1069.14C3110.27,-1024.85 3282.26,-905.16 3354.62,-854.81"/>
<polygon fill="black" stroke="black" points="3356.72,-857.61 3362.93,-849.02 3352.73,-851.86 3356.72,-857.61"/>
</g>
<!-- u10&#45;&gt;u19 -->
<g id="edge21" class="edge">
<title>u10&#45;&gt;u19</title>
<path fill="none" stroke="black" d="M3022.39,-1068.94C3022.39,-1025.84 3022.39,-912.29 3022.39,-859.59"/>
<polygon fill="black" stroke="black" points="3025.89,-859.32 3022.39,-849.32 3018.89,-859.32 3025.89,-859.32"/>
</g>
<!-- u10&#45;&gt;u18 -->
<g id="edge20" class="edge">
<title>u10&#45;&gt;u18</title>
<path fill="none" stroke="black" d="M3072.44,-1069.72C3210.09,-1024.96 3594.01,-900.1 3743.11,-851.61"/>
<polygon fill="black" stroke="black" points="3744.58,-854.81 3753.01,-848.39 3742.42,-848.15 3744.58,-854.81"/>
</g>
<!-- u10&#45;&gt;u9 -->
<g id="edge19" class="edge">
<title>u10&#45;&gt;u9</title>
<path fill="none" stroke="black" d="M3001.51,-1068.94C2947.28,-1024.66 2801.97,-905.98 2740.02,-855.38"/>
<polygon fill="black" stroke="black" points="2742.15,-852.6 2732.19,-848.99 2737.72,-858.02 2742.15,-852.6"/>
</g>
<!-- u9&#45;&gt;u11 -->
<g id="edge18" class="edge">
<title>u9&#45;&gt;u11</title>
<path fill="none" stroke="black" d="M2711.39,-812.95C2711.39,-714.08 2711.39,-214.57 2711.39,-92.13"/>
<polygon fill="black" stroke="black" points="2714.89,-92.09 2711.39,-82.09 2707.89,-92.09 2714.89,-92.09"/>
</g>
<!-- u3 -->
<g id="node56" class="node">
<title>u3</title>
<ellipse fill="#33ff33" stroke="black" cx="275.39" cy="-3643" rx="108.58" ry="18"/>
<text text-anchor="middle" x="275.39" y="-3639.3" font-family="Times,serif" font-size="14.00">drasil&#45;code.test.Main</text>
</g>
<!-- u3&#45;&gt;u4 -->
<g id="edge4" class="edge">
<title>u3&#45;&gt;u4</title>
<path fill="none" stroke="black" d="M261.09,-3625.01C224.24,-3581.24 125.98,-3464.53 83,-3413.48"/>
<polygon fill="black" stroke="black" points="85.48,-3410.98 76.36,-3405.59 80.12,-3415.49 85.48,-3410.98"/>
</g>
<!-- u3&#45;&gt;u2 -->
<g id="edge3" class="edge">
<title>u3&#45;&gt;u2</title>
<path fill="none" stroke="black" d="M270.83,-3625.01C259.27,-3581.99 228.76,-3468.5 214.69,-3416.16"/>
<polygon fill="black" stroke="black" points="218.01,-3415 212.03,-3406.25 211.25,-3416.82 218.01,-3415"/>
</g>
<!-- u3&#45;&gt;u1 -->
<g id="edge2" class="edge">
<title>u3&#45;&gt;u1</title>
<path fill="none" stroke="black" d="M279.96,-3625.01C291.52,-3581.99 322.03,-3468.5 336.1,-3416.16"/>
<polygon fill="black" stroke="black" points="339.54,-3416.82 338.76,-3406.25 332.78,-3415 339.54,-3416.82"/>
</g>
<!-- u3&#45;&gt;u7 -->
<g id="edge5" class="edge">
<title>u3&#45;&gt;u7</title>
<path fill="none" stroke="black" d="M348.83,-3629.71C601.37,-3587.46 1433.28,-3448.25 1702.51,-3403.2"/>
<polygon fill="black" stroke="black" points="1703.33,-3406.62 1712.62,-3401.51 1702.17,-3399.71 1703.33,-3406.62"/>
</g>
</g>
</svg>
