<?xml version="1.0" encoding="UTF-8" standalone="no"?>
<!DOCTYPE svg PUBLIC "-//W3C//DTD SVG 1.1//EN"
 "http://www.w3.org/Graphics/SVG/1.1/DTD/svg11.dtd">
<!-- Generated by graphviz version 2.43.0 (0)
 -->
<!-- Title: G Pages: 1 -->
<svg width="429pt" height="288pt"
 viewBox="0.00 0.00 429.33 288.00" xmlns="http://www.w3.org/2000/svg" xmlns:xlink="http://www.w3.org/1999/xlink">
<g id="graph0" class="graph" transform="scale(0.68 0.68) rotate(0) translate(4 419.33)">
<title>G</title>
<polygon fill="white" stroke="transparent" points="-4,4 -4,-419.33 627.08,-419.33 627.08,4 -4,4"/>
<!-- u0 -->
<g id="node1" class="node">
<title>u0</title>
<ellipse fill="#bbffbb" stroke="black" cx="251.39" cy="-392" rx="85.29" ry="18"/>
<text text-anchor="middle" x="251.39" y="-388.3" font-family="Times,serif" font-size="14.00">Drasil.Database</text>
</g>
<!-- u4 -->
<g id="node4" class="node">
<title>u4</title>
<ellipse fill="#ffffbb" stroke="black" cx="101.39" cy="-208" rx="101.28" ry="18"/>
<text text-anchor="middle" x="101.39" y="-204.3" font-family="Times,serif" font-size="14.00">Drasil.Database.TH</text>
</g>
<!-- u0&#45;&gt;u4 -->
<g id="edge3" class="edge">
<title>u0&#45;&gt;u4</title>
<path fill="none" stroke="black" d="M205.22,-376.82C176.32,-365.53 140.82,-346.76 120.39,-318 103.42,-294.1 99.93,-259.95 99.88,-236.27"/>
<polygon fill="black" stroke="black" points="103.38,-236.27 100.06,-226.21 96.38,-236.14 103.38,-236.27"/>
</g>
<!-- u3 -->
<g id="node5" class="node">
<title>u3</title>
<ellipse fill="#ffffbb" stroke="black" cx="251.39" cy="-300" rx="122.38" ry="18"/>
<text text-anchor="middle" x="251.39" y="-296.3" font-family="Times,serif" font-size="14.00">Drasil.Database.UIDRef</text>
</g>
<!-- u0&#45;&gt;u3 -->
<g id="edge2" class="edge">
<title>u0&#45;&gt;u3</title>
<path fill="none" stroke="black" d="M251.39,-373.65C251.39,-360.82 251.39,-343.11 251.39,-328.38"/>
<polygon fill="black" stroke="black" points="254.89,-328.3 251.39,-318.3 247.89,-328.3 254.89,-328.3"/>
</g>
<!-- u2 -->
<g id="node6" class="node">
<title>u2</title>
<ellipse fill="#ffffbb" stroke="black" cx="507.39" cy="-300" rx="115.88" ry="18"/>
<text text-anchor="middle" x="507.39" y="-296.3" font-family="Times,serif" font-size="14.00">Drasil.Database.Dump</text>
</g>
<!-- u0&#45;&gt;u2 -->
<g id="edge1" class="edge">
<title>u0&#45;&gt;u2</title>
<path fill="none" stroke="black" d="M293.38,-376.24C337.04,-360.89 405.55,-336.8 453.25,-320.03"/>
<polygon fill="black" stroke="black" points="454.53,-323.3 462.8,-316.68 452.2,-316.69 454.53,-323.3"/>
</g>
<!-- u6 -->
<g id="node2" class="node">
<title>u6</title>
<ellipse fill="#ffffbb" stroke="black" cx="226.39" cy="-115" rx="117.78" ry="18"/>
<text text-anchor="middle" x="226.39" y="-111.3" font-family="Times,serif" font-size="14.00">Drasil.Database.Chunk</text>
</g>
<!-- u5 -->
<g id="node3" class="node">
<title>u5</title>
<ellipse fill="#ffffbb" stroke="black" cx="226.39" cy="-23" rx="106.68" ry="18"/>
<text text-anchor="middle" x="226.39" y="-19.3" font-family="Times,serif" font-size="14.00">Drasil.Database.UID</text>
</g>
<!-- u6&#45;&gt;u5 -->
<g id="edge8" class="edge">
<title>u6&#45;&gt;u5</title>
<path fill="none" stroke="black" d="M226.39,-96.65C226.39,-83.82 226.39,-66.11 226.39,-51.38"/>
<polygon fill="black" stroke="black" points="229.89,-51.3 226.39,-41.3 222.89,-51.3 229.89,-51.3"/>
</g>
<!-- u4&#45;&gt;u6 -->
<g id="edge7" class="edge">
<title>u4&#45;&gt;u6</title>
<path fill="none" stroke="black" d="M124.32,-190.31C144.1,-175.9 172.88,-154.96 194.84,-138.97"/>
<polygon fill="black" stroke="black" points="197.16,-141.61 203.19,-132.89 193.04,-135.95 197.16,-141.61"/>
</g>
<!-- u1 -->
<g id="node7" class="node">
<title>u1</title>
<ellipse fill="#ffffbb" stroke="black" cx="352.39" cy="-208" rx="131.88" ry="18"/>
<text text-anchor="middle" x="352.39" y="-204.3" font-family="Times,serif" font-size="14.00">Drasil.Database.ChunkDB</text>
</g>
<!-- u3&#45;&gt;u1 -->
<g id="edge6" class="edge">
<title>u3&#45;&gt;u1</title>
<path fill="none" stroke="black" d="M270.39,-282.07C286.05,-268.12 308.43,-248.17 325.86,-232.64"/>
<polygon fill="black" stroke="black" points="328.34,-235.12 333.48,-225.85 323.68,-229.89 328.34,-235.12"/>
</g>
<!-- u2&#45;&gt;u1 -->
<g id="edge5" class="edge">
<title>u2&#45;&gt;u1</title>
<path fill="none" stroke="black" d="M478.96,-282.49C453.99,-267.99 417.48,-246.79 390.08,-230.88"/>
<polygon fill="black" stroke="black" points="391.57,-227.7 381.17,-225.71 388.06,-233.76 391.57,-227.7"/>
</g>
<!-- u1&#45;&gt;u6 -->
<g id="edge4" class="edge">
<title>u1&#45;&gt;u6</title>
<path fill="none" stroke="black" d="M328.99,-190.1C309.01,-175.67 280.09,-154.78 258.05,-138.86"/>
<polygon fill="black" stroke="black" points="259.83,-135.83 249.67,-132.81 255.73,-141.5 259.83,-135.83"/>
</g>
</g>
</svg>
