<?xml version="1.0" encoding="UTF-8" standalone="no"?>
<!DOCTYPE svg PUBLIC "-//W3C//DTD SVG 1.1//EN"
 "http://www.w3.org/Graphics/SVG/1.1/DTD/svg11.dtd">
<!-- Generated by graphviz version 2.43.0 (0)
 -->
<!-- Title: G Pages: 1 -->
<svg width="431pt" height="288pt"
 viewBox="0.00 0.00 431.17 288.00" xmlns="http://www.w3.org/2000/svg" xmlns:xlink="http://www.w3.org/1999/xlink">
<g id="graph0" class="graph" transform="scale(3.95 3.95) rotate(0) translate(4 1134)">
<title>G</title>
<polygon fill="white" stroke="transparent" points="-4,4 -4,-1134 1699.72,-1134 1699.72,4 -4,4"/>
<!-- u8 -->
<g id="node1" class="node">
<title>u8</title>
<ellipse fill="#bbffbb" stroke="black" cx="151.44" cy="-404" rx="151.37" ry="18"/>
<text text-anchor="middle" x="151.44" y="-400.3" font-family="Times,serif" font-size="14.00">Drasil.Website.GettingStarted</text>
</g>
<!-- u7 -->
<g id="node2" class="node">
<title>u7</title>
<ellipse fill="#bbffbb" stroke="black" cx="1564.44" cy="-81" rx="122.38" ry="18"/>
<text text-anchor="middle" x="1564.44" y="-77.3" font-family="Times,serif" font-size="14.00">Drasil.Website.Example</text>
</g>
<!-- u6 -->
<g id="node3" class="node">
<title>u6</title>
<ellipse fill="#bbffbb" stroke="black" cx="875.44" cy="-726" rx="104.78" ry="18"/>
<text text-anchor="middle" x="875.44" y="-722.3" font-family="Times,serif" font-size="14.00">Drasil.Website.Body</text>
</g>
<!-- u6&#45;&gt;u8 -->
<g id="edge8" class="edge">
<title>u6&#45;&gt;u8</title>
<path fill="none" stroke="black" d="M839.04,-708.91C718.49,-655.63 332.31,-484.94 198,-425.58"/>
<polygon fill="black" stroke="black" points="199.34,-422.34 188.77,-421.5 196.51,-428.75 199.34,-422.34"/>
</g>
<!-- u5 -->
<g id="node4" class="node">
<title>u5</title>
<ellipse fill="#bbffbb" stroke="black" cx="473.44" cy="-404" rx="152.17" ry="18"/>
<text text-anchor="middle" x="473.44" y="-400.3" font-family="Times,serif" font-size="14.00">Drasil.Website.Documentation</text>
</g>
<!-- u6&#45;&gt;u5 -->
<g id="edge7" class="edge">
<title>u6&#45;&gt;u5</title>
<path fill="none" stroke="black" d="M854.39,-708.25C787.52,-655.02 579.79,-489.66 502.66,-428.26"/>
<polygon fill="black" stroke="black" points="504.76,-425.46 494.76,-421.97 500.4,-430.94 504.76,-425.46"/>
</g>
<!-- u4 -->
<g id="node5" class="node">
<title>u4</title>
<ellipse fill="#bbffbb" stroke="black" cx="752.44" cy="-404" rx="108.58" ry="18"/>
<text text-anchor="middle" x="752.44" y="-400.3" font-family="Times,serif" font-size="14.00">Drasil.Website.About</text>
</g>
<!-- u6&#45;&gt;u4 -->
<g id="edge6" class="edge">
<title>u6&#45;&gt;u4</title>
<path fill="none" stroke="black" d="M868.82,-707.8C848.55,-655.05 787.17,-495.37 762.68,-431.66"/>
<polygon fill="black" stroke="black" points="765.94,-430.37 759.08,-422.29 759.4,-432.88 765.94,-430.37"/>
</g>
<!-- u3 -->
<g id="node6" class="node">
<title>u3</title>
<ellipse fill="#bbffbb" stroke="black" cx="999.44" cy="-404" rx="120.48" ry="18"/>
<text text-anchor="middle" x="999.44" y="-400.3" font-family="Times,serif" font-size="14.00">Drasil.Website.Analysis</text>
</g>
<!-- u6&#45;&gt;u3 -->
<g id="edge5" class="edge">
<title>u6&#45;&gt;u3</title>
<path fill="none" stroke="black" d="M882.1,-707.8C902.54,-655.05 964.42,-495.37 989.11,-431.66"/>
<polygon fill="black" stroke="black" points="992.39,-432.88 992.74,-422.29 985.86,-430.35 992.39,-432.88"/>
</g>
<!-- u2 -->
<g id="node7" class="node">
<title>u2</title>
<ellipse fill="#bbffbb" stroke="black" cx="1276.44" cy="-404" rx="139.18" ry="18"/>
<text text-anchor="middle" x="1276.44" y="-400.3" font-family="Times,serif" font-size="14.00">Drasil.Website.Introduction</text>
</g>
<!-- u6&#45;&gt;u2 -->
<g id="edge4" class="edge">
<title>u6&#45;&gt;u2</title>
<path fill="none" stroke="black" d="M896.43,-708.25C963.13,-655.02 1170.35,-489.66 1247.29,-428.26"/>
<polygon fill="black" stroke="black" points="1249.53,-430.95 1255.17,-421.97 1245.17,-425.48 1249.53,-430.95"/>
</g>
<!-- u1 -->
<g id="node8" class="node">
<title>u1</title>
<ellipse fill="#bbffbb" stroke="black" cx="1564.44" cy="-404" rx="131.08" ry="18"/>
<text text-anchor="middle" x="1564.44" y="-400.3" font-family="Times,serif" font-size="14.00">Drasil.Website.CaseStudy</text>
</g>
<!-- u6&#45;&gt;u1 -->
<g id="edge3" class="edge">
<title>u6&#45;&gt;u1</title>
<path fill="none" stroke="black" d="M910.08,-708.91C1024.69,-655.68 1391.57,-485.28 1519.74,-425.76"/>
<polygon fill="black" stroke="black" points="1521.31,-428.89 1528.9,-421.5 1518.36,-422.54 1521.31,-428.89"/>
</g>
<!-- u1&#45;&gt;u7 -->
<g id="edge2" class="edge">
<title>u1&#45;&gt;u7</title>
<path fill="none" stroke="black" d="M1564.44,-385.74C1564.44,-333.05 1564.44,-173.96 1564.44,-109.54"/>
<polygon fill="black" stroke="black" points="1567.94,-109.34 1564.44,-99.34 1560.94,-109.34 1567.94,-109.34"/>
</g>
<!-- u0 -->
<g id="node9" class="node">
<title>u0</title>
<ellipse fill="#ffffbb" stroke="black" cx="875.44" cy="-1049" rx="122.38" ry="18"/>
<text text-anchor="middle" x="875.44" y="-1045.3" font-family="Times,serif" font-size="14.00">drasil&#45;website.app.Main</text>
</g>
<!-- u0&#45;&gt;u6 -->
<g id="edge1" class="edge">
<title>u0&#45;&gt;u6</title>
<path fill="none" stroke="black" d="M875.44,-1030.74C875.44,-978.05 875.44,-818.96 875.44,-754.54"/>
<polygon fill="black" stroke="black" points="878.94,-754.34 875.44,-744.34 871.94,-754.34 878.94,-754.34"/>
</g>
</g>
</svg>
