<?xml version="1.0" encoding="UTF-8" standalone="no"?>
<!DOCTYPE svg PUBLIC "-//W3C//DTD SVG 1.1//EN"
 "http://www.w3.org/Graphics/SVG/1.1/DTD/svg11.dtd">
<!-- Generated by graphviz version 2.43.0 (0)
 -->
<!-- Title: G Pages: 1 -->
<svg width="430pt" height="288pt"
 viewBox="0.00 0.00 430.21 288.00" xmlns="http://www.w3.org/2000/svg" xmlns:xlink="http://www.w3.org/1999/xlink">
<g id="graph0" class="graph" transform="scale(2.05 2.05) rotate(0) translate(4 585.33)">
<title>G</title>
<polygon fill="white" stroke="transparent" points="-4,4 -4,-585.33 876.33,-585.33 876.33,4 -4,4"/>
<!-- u5 -->
<g id="node1" class="node">
<title>u5</title>
<ellipse fill="#bbffbb" stroke="black" cx="452.04" cy="-523" rx="63.89" ry="18"/>
<text text-anchor="middle" x="452.04" y="-519.3" font-family="Times,serif" font-size="14.00">Utils.Drasil</text>
</g>
<!-- u3 -->
<g id="node3" class="node">
<title>u3</title>
<ellipse fill="#ffffbb" stroke="black" cx="102.04" cy="-291" rx="102.08" ry="18"/>
<text text-anchor="middle" x="102.04" y="-287.3" font-family="Times,serif" font-size="14.00">Utils.Drasil.English</text>
</g>
<!-- u5&#45;&gt;u3 -->
<g id="edge5" class="edge">
<title>u5&#45;&gt;u3</title>
<path fill="none" stroke="black" d="M427.98,-506.19C366.96,-466.09 206.02,-360.33 135.71,-314.13"/>
<polygon fill="black" stroke="black" points="137.48,-311.1 127.2,-308.54 133.64,-316.95 137.48,-311.1"/>
</g>
<!-- u2 -->
<g id="node4" class="node">
<title>u2</title>
<ellipse fill="#ffffbb" stroke="black" cx="336.04" cy="-291" rx="114.28" ry="18"/>
<text text-anchor="middle" x="336.04" y="-287.3" font-family="Times,serif" font-size="14.00">Utils.Drasil.Document</text>
</g>
<!-- u5&#45;&gt;u2 -->
<g id="edge4" class="edge">
<title>u5&#45;&gt;u2</title>
<path fill="none" stroke="black" d="M443.51,-505.09C423.49,-465.39 373.37,-366.02 349.32,-318.33"/>
<polygon fill="black" stroke="black" points="352.37,-316.6 344.74,-309.25 346.12,-319.75 352.37,-316.6"/>
</g>
<!-- u1 -->
<g id="node5" class="node">
<title>u1</title>
<ellipse fill="#ffffbb" stroke="black" cx="569.04" cy="-291" rx="100.98" ry="18"/>
<text text-anchor="middle" x="569.04" y="-287.3" font-family="Times,serif" font-size="14.00">Utils.Drasil.Strings</text>
</g>
<!-- u5&#45;&gt;u1 -->
<g id="edge3" class="edge">
<title>u5&#45;&gt;u1</title>
<path fill="none" stroke="black" d="M460.64,-505.09C480.89,-465.29 531.64,-365.53 555.82,-317.98"/>
<polygon fill="black" stroke="black" points="559.01,-319.44 560.43,-308.94 552.77,-316.26 559.01,-319.44"/>
</g>
<!-- u0 -->
<g id="node6" class="node">
<title>u0</title>
<ellipse fill="#ffffbb" stroke="black" cx="780.04" cy="-291" rx="92.08" ry="18"/>
<text text-anchor="middle" x="780.04" y="-287.3" font-family="Times,serif" font-size="14.00">Utils.Drasil.Maps</text>
</g>
<!-- u5&#45;&gt;u0 -->
<g id="edge2" class="edge">
<title>u5&#45;&gt;u0</title>
<path fill="none" stroke="black" d="M474.84,-506.01C532.13,-465.84 682.19,-360.62 748.15,-314.36"/>
<polygon fill="black" stroke="black" points="750.33,-317.11 756.51,-308.5 746.31,-311.37 750.33,-317.11"/>
</g>
<!-- u4 -->
<g id="node2" class="node">
<title>u4</title>
<ellipse fill="#ffffbb" stroke="black" cx="569.04" cy="-58" rx="89.08" ry="18"/>
<text text-anchor="middle" x="569.04" y="-54.3" font-family="Times,serif" font-size="14.00">Utils.Drasil.Lists</text>
</g>
<!-- u1&#45;&gt;u4 -->
<g id="edge1" class="edge">
<title>u1&#45;&gt;u4</title>
<path fill="none" stroke="black" d="M569.04,-272.64C569.04,-232.82 569.04,-134.69 569.04,-86.54"/>
<polygon fill="black" stroke="black" points="572.54,-86.25 569.04,-76.25 565.54,-86.25 572.54,-86.25"/>
</g>
</g>
</svg>
