<?xml version="1.0" encoding="UTF-8" standalone="no"?>
<!DOCTYPE svg PUBLIC "-//W3C//DTD SVG 1.1//EN"
 "http://www.w3.org/Graphics/SVG/1.1/DTD/svg11.dtd">
<!-- Generated by graphviz version 2.43.0 (0)
 -->
<!-- Title: G Pages: 1 -->
<svg width="431pt" height="288pt"
 viewBox="0.00 0.00 431.23 288.00" xmlns="http://www.w3.org/2000/svg" xmlns:xlink="http://www.w3.org/1999/xlink">
<g id="graph0" class="graph" transform="scale(3.95 3.95) rotate(0) translate(4 1133.33)">
<title>G</title>
<polygon fill="white" stroke="transparent" points="-4,4 -4,-1133.33 1698.98,-1133.33 1698.98,4 -4,4"/>
<!-- u7 -->
<g id="node1" class="node">
<title>u7</title>
<ellipse fill="#bbffbb" stroke="black" cx="151.44" cy="-403" rx="151.37" ry="18"/>
<text text-anchor="middle" x="151.44" y="-399.3" font-family="Times,serif" font-size="14.00">Drasil.Website.GettingStarted</text>
</g>
<!-- u6 -->
<g id="node2" class="node">
<title>u6</title>
<ellipse fill="#bbffbb" stroke="black" cx="1328.44" cy="-81" rx="122.38" ry="18"/>
<text text-anchor="middle" x="1328.44" y="-77.3" font-family="Times,serif" font-size="14.00">Drasil.Website.Example</text>
</g>
<!-- u5 -->
<g id="node3" class="node">
<title>u5</title>
<ellipse fill="#bbffbb" stroke="black" cx="473.44" cy="-403" rx="152.17" ry="18"/>
<text text-anchor="middle" x="473.44" y="-399.3" font-family="Times,serif" font-size="14.00">Drasil.Website.Documentation</text>
</g>
<!-- u4 -->
<g id="node4" class="node">
<title>u4</title>
<ellipse fill="#bbffbb" stroke="black" cx="901.44" cy="-726" rx="104.78" ry="18"/>
<text text-anchor="middle" x="901.44" y="-722.3" font-family="Times,serif" font-size="14.00">Drasil.Website.Body</text>
</g>
<!-- u4&#45;&gt;u7 -->
<g id="edge7" class="edge">
<title>u4&#45;&gt;u7</title>
<path fill="none" stroke="black" d="M864.24,-709.08C739.98,-655.9 339.19,-484.36 199.78,-424.69"/>
<polygon fill="black" stroke="black" points="200.77,-421.31 190.2,-420.59 198.01,-427.74 200.77,-421.31"/>
</g>
<!-- u4&#45;&gt;u5 -->
<g id="edge6" class="edge">
<title>u4&#45;&gt;u5</title>
<path fill="none" stroke="black" d="M879.03,-708.19C807.75,-654.74 586.16,-488.54 504.26,-427.12"/>
<polygon fill="black" stroke="black" points="505.98,-424.03 495.88,-420.83 501.78,-429.63 505.98,-424.03"/>
</g>
<!-- u3 -->
<g id="node5" class="node">
<title>u3</title>
<ellipse fill="#bbffbb" stroke="black" cx="763.44" cy="-403" rx="120.48" ry="18"/>
<text text-anchor="middle" x="763.44" y="-399.3" font-family="Times,serif" font-size="14.00">Drasil.Website.Analysis</text>
</g>
<!-- u4&#45;&gt;u3 -->
<g id="edge5" class="edge">
<title>u4&#45;&gt;u3</title>
<path fill="none" stroke="black" d="M894.02,-707.74C871.27,-654.84 802.41,-494.65 774.93,-430.74"/>
<polygon fill="black" stroke="black" points="778.06,-429.15 770.89,-421.34 771.63,-431.91 778.06,-429.15"/>
</g>
<!-- u2 -->
<g id="node6" class="node">
<title>u2</title>
<ellipse fill="#bbffbb" stroke="black" cx="1040.44" cy="-403" rx="139.18" ry="18"/>
<text text-anchor="middle" x="1040.44" y="-399.3" font-family="Times,serif" font-size="14.00">Drasil.Website.Introduction</text>
</g>
<!-- u4&#45;&gt;u2 -->
<g id="edge4" class="edge">
<title>u4&#45;&gt;u2</title>
<path fill="none" stroke="black" d="M908.91,-707.74C931.82,-654.84 1001.18,-494.65 1028.86,-430.74"/>
<polygon fill="black" stroke="black" points="1032.16,-431.91 1032.93,-421.34 1025.74,-429.13 1032.16,-431.91"/>
</g>
<!-- u1 -->
<g id="node7" class="node">
<title>u1</title>
<ellipse fill="#bbffbb" stroke="black" cx="1328.44" cy="-403" rx="131.08" ry="18"/>
<text text-anchor="middle" x="1328.44" y="-399.3" font-family="Times,serif" font-size="14.00">Drasil.Website.CaseStudy</text>
</g>
<!-- u4&#45;&gt;u1 -->
<g id="edge3" class="edge">
<title>u4&#45;&gt;u1</title>
<path fill="none" stroke="black" d="M923.79,-708.19C994.9,-654.74 1215.98,-488.54 1297.68,-427.12"/>
<polygon fill="black" stroke="black" points="1300.15,-429.64 1306.04,-420.83 1295.95,-424.04 1300.15,-429.64"/>
</g>
<!-- u0 -->
<g id="node8" class="node">
<title>u0</title>
<ellipse fill="#bbffbb" stroke="black" cx="1586.44" cy="-403" rx="108.58" ry="18"/>
<text text-anchor="middle" x="1586.44" y="-399.3" font-family="Times,serif" font-size="14.00">Drasil.Website.About</text>
</g>
<!-- u4&#45;&gt;u0 -->
<g id="edge2" class="edge">
<title>u4&#45;&gt;u0</title>
<path fill="none" stroke="black" d="M935.88,-708.86C1049.97,-655.4 1415.54,-484.08 1542.5,-424.59"/>
<polygon fill="black" stroke="black" points="1544.36,-427.58 1551.93,-420.17 1541.39,-421.24 1544.36,-427.58"/>
</g>
<!-- u1&#45;&gt;u6 -->
<g id="edge1" class="edge">
<title>u1&#45;&gt;u6</title>
<path fill="none" stroke="black" d="M1328.44,-384.8C1328.44,-332.27 1328.44,-173.68 1328.44,-109.45"/>
<polygon fill="black" stroke="black" points="1331.94,-109.29 1328.44,-99.29 1324.94,-109.29 1331.94,-109.29"/>
</g>
<!-- u8 -->
<g id="node9" class="node">
<title>u8</title>
<ellipse fill="#ffffbb" stroke="black" cx="901.44" cy="-1049" rx="122.38" ry="18"/>
<text text-anchor="middle" x="901.44" y="-1045.3" font-family="Times,serif" font-size="14.00">drasil&#45;website.app.Main</text>
</g>
<!-- u8&#45;&gt;u4 -->
<g id="edge8" class="edge">
<title>u8&#45;&gt;u4</title>
<path fill="none" stroke="black" d="M901.44,-1030.74C901.44,-978.05 901.44,-818.96 901.44,-754.54"/>
<polygon fill="black" stroke="black" points="904.94,-754.34 901.44,-744.34 897.94,-754.34 904.94,-754.34"/>
</g>
</g>
</svg>
