<?xml version="1.0" encoding="UTF-8" standalone="no"?>
<!DOCTYPE svg PUBLIC "-//W3C//DTD SVG 1.1//EN"
 "http://www.w3.org/Graphics/SVG/1.1/DTD/svg11.dtd">
<!-- Generated by graphviz version 2.43.0 (0)
 -->
<!-- Title: G Pages: 1 -->
<svg width="432pt" height="288pt"
 viewBox="0.00 0.00 431.55 288.00" xmlns="http://www.w3.org/2000/svg" xmlns:xlink="http://www.w3.org/1999/xlink">
<g id="graph0" class="graph" transform="scale(6.9 6.9) rotate(0) translate(4 1982.67)">
<title>G</title>
<polygon fill="white" stroke="transparent" points="-4,4 -4,-1982.67 2972.93,-1982.67 2972.93,4 -4,4"/>
<!-- u0 -->
<g id="node1" class="node">
<title>u0</title>
<ellipse fill="#bbffbb" stroke="black" cx="1261.59" cy="-1958" rx="87.18" ry="18"/>
<text text-anchor="middle" x="1261.59" y="-1954.3" font-family="Times,serif" font-size="14.00">Language.Drasil</text>
</g>
<!-- u18 -->
<g id="node18" class="node">
<title>u18</title>
<ellipse fill="#ffffbb" stroke="black" cx="145.59" cy="-1797" rx="145.67" ry="18"/>
<text text-anchor="middle" x="145.59" y="-1793.3" font-family="Times,serif" font-size="14.00">Language.Drasil.Uncertainty</text>
</g>
<!-- u0&#45;&gt;u18 -->
<g id="edge4" class="edge">
<title>u0&#45;&gt;u18</title>
<path fill="none" stroke="black" d="M1179.84,-1951.74C1059.54,-1943.41 827.92,-1925.05 632.59,-1896 485.32,-1874.1 315.2,-1837.17 220.02,-1815.44"/>
<polygon fill="black" stroke="black" points="220.73,-1812.01 210.21,-1813.19 219.17,-1818.83 220.73,-1812.01"/>
</g>
<!-- u7 -->
<g id="node23" class="node">
<title>u7</title>
<ellipse fill="#ffffbb" stroke="black" cx="1935.59" cy="-1878" rx="137.28" ry="18"/>
<text text-anchor="middle" x="1935.59" y="-1874.3" font-family="Times,serif" font-size="14.00">Language.Drasil.Document</text>
</g>
<!-- u0&#45;&gt;u7 -->
<g id="edge2" class="edge">
<title>u0&#45;&gt;u7</title>
<path fill="none" stroke="black" d="M1335.64,-1948.43C1454.41,-1934.68 1688.11,-1907.64 1826.16,-1891.66"/>
<polygon fill="black" stroke="black" points="1826.81,-1895.11 1836.35,-1890.48 1826.01,-1888.16 1826.81,-1895.11"/>
</g>
<!-- u59 -->
<g id="node26" class="node">
<title>u59</title>
<ellipse fill="#bbbbff" stroke="black" cx="511.59" cy="-1797" rx="202.26" ry="18"/>
<text text-anchor="middle" x="511.59" y="-1793.3" font-family="Times,serif" font-size="14.00">Language.Drasil.Chunk.NamedArgument</text>
</g>
<!-- u0&#45;&gt;u59 -->
<g id="edge10" class="edge">
<title>u0&#45;&gt;u59</title>
<path fill="none" stroke="black" d="M1175.4,-1955.38C1068.52,-1951.5 881.6,-1938.6 727.59,-1896 662.32,-1877.95 591.78,-1842.65 549.67,-1819.72"/>
<polygon fill="black" stroke="black" points="551.32,-1816.63 540.87,-1814.88 547.95,-1822.76 551.32,-1816.63"/>
</g>
<!-- u58 -->
<g id="node27" class="node">
<title>u58</title>
<ellipse fill="#bbbbff" stroke="black" cx="978.59" cy="-1878" rx="209.06" ry="18"/>
<text text-anchor="middle" x="978.59" y="-1874.3" font-family="Times,serif" font-size="14.00">Language.Drasil.Chunk.UncertainQuantity</text>
</g>
<!-- u0&#45;&gt;u58 -->
<g id="edge9" class="edge">
<title>u0&#45;&gt;u58</title>
<path fill="none" stroke="black" d="M1211.64,-1943.23C1166.12,-1930.69 1098.45,-1912.04 1047.73,-1898.06"/>
<polygon fill="black" stroke="black" points="1048.4,-1894.61 1037.83,-1895.33 1046.54,-1901.36 1048.4,-1894.61"/>
</g>
<!-- u53 -->
<g id="node31" class="node">
<title>u53</title>
<ellipse fill="#bbbbff" stroke="black" cx="672.59" cy="-1635" rx="135.38" ry="18"/>
<text text-anchor="middle" x="672.59" y="-1631.3" font-family="Times,serif" font-size="14.00">Language.Drasil.Chunk.Eq</text>
</g>
<!-- u0&#45;&gt;u53 -->
<g id="edge8" class="edge">
<title>u0&#45;&gt;u53</title>
<path fill="none" stroke="black" d="M1174.33,-1957.35C1047.83,-1956.07 821.92,-1946.52 760.59,-1896 718.38,-1861.24 740.06,-1830.81 722.59,-1779 708.89,-1738.38 692.37,-1691.52 682.17,-1662.83"/>
<polygon fill="black" stroke="black" points="685.37,-1661.37 678.71,-1653.13 678.77,-1663.72 685.37,-1661.37"/>
</g>
<!-- u47 -->
<g id="node37" class="node">
<title>u47</title>
<ellipse fill="#bbbbff" stroke="black" cx="1397.59" cy="-1716" rx="161.37" ry="18"/>
<text text-anchor="middle" x="1397.59" y="-1712.3" font-family="Times,serif" font-size="14.00">Language.Drasil.Chunk.Relation</text>
</g>
<!-- u0&#45;&gt;u47 -->
<g id="edge7" class="edge">
<title>u0&#45;&gt;u47</title>
<path fill="none" stroke="black" d="M1271.37,-1939.74C1294.94,-1898.14 1355.01,-1792.14 1382.92,-1742.89"/>
<polygon fill="black" stroke="black" points="1386.01,-1744.53 1387.89,-1734.1 1379.92,-1741.08 1386.01,-1744.53"/>
</g>
<!-- u1 -->
<g id="node44" class="node">
<title>u1</title>
<ellipse fill="#bbffff" stroke="black" cx="1751.59" cy="-1716" rx="174.67" ry="18"/>
<text text-anchor="middle" x="1751.59" y="-1712.3" font-family="Times,serif" font-size="14.00">Language.Drasil.Classes.Document</text>
</g>
<!-- u0&#45;&gt;u1 -->
<g id="edge1" class="edge">
<title>u0&#45;&gt;u1</title>
<path fill="none" stroke="black" d="M1293.74,-1941.25C1379.04,-1899.47 1611.21,-1785.76 1708.15,-1738.28"/>
<polygon fill="black" stroke="black" points="1709.93,-1741.3 1717.37,-1733.76 1706.85,-1735.01 1709.93,-1741.3"/>
</g>
<!-- u33 -->
<g id="node47" class="node">
<title>u33</title>
<ellipse fill="#77ff77" stroke="black" cx="603.59" cy="-1151" rx="196.87" ry="18"/>
<text text-anchor="middle" x="603.59" y="-1147.3" font-family="Times,serif" font-size="14.00">Language.Drasil.Development.Sentence</text>
</g>
<!-- u0&#45;&gt;u33 -->
<g id="edge6" class="edge">
<title>u0&#45;&gt;u33</title>
<path fill="none" stroke="black" d="M1259.04,-1939.55C1248.87,-1870.44 1210.73,-1615.77 1189.59,-1537 1179.63,-1499.92 1184.69,-1485.05 1159.59,-1456 1023.83,-1298.87 786.01,-1208.19 670.43,-1171.39"/>
<polygon fill="black" stroke="black" points="671.23,-1167.97 660.64,-1168.3 669.13,-1174.65 671.23,-1167.97"/>
</g>
<!-- u10 -->
<g id="node59" class="node">
<title>u10</title>
<ellipse fill="#33ff33" stroke="black" cx="2390.59" cy="-1070" rx="170.07" ry="18"/>
<text text-anchor="middle" x="2390.59" y="-1066.3" font-family="Times,serif" font-size="14.00">Language.Drasil.Sentence.Extract</text>
</g>
<!-- u0&#45;&gt;u10 -->
<g id="edge3" class="edge">
<title>u0&#45;&gt;u10</title>
<path fill="none" stroke="black" d="M1347.5,-1954.95C1528.9,-1949.91 1945.49,-1934.43 2081.59,-1896 2173.03,-1870.18 2271.59,-1893.02 2271.59,-1798 2271.59,-1798 2271.59,-1798 2271.59,-1231 2271.59,-1172.99 2322.57,-1122.37 2357.8,-1094.32"/>
<polygon fill="black" stroke="black" points="2360.17,-1096.91 2365.93,-1088.02 2355.88,-1091.38 2360.17,-1096.91"/>
</g>
<!-- u22 -->
<g id="node60" class="node">
<title>u22</title>
<ellipse fill="#bbff77" stroke="black" cx="2546.59" cy="-1878" rx="163.57" ry="18"/>
<text text-anchor="middle" x="2546.59" y="-1874.3" font-family="Times,serif" font-size="14.00">Language.Drasil.Symbol.Helpers</text>
</g>
<!-- u0&#45;&gt;u22 -->
<g id="edge5" class="edge">
<title>u0&#45;&gt;u22</title>
<path fill="none" stroke="black" d="M1344.22,-1952.23C1518.32,-1942.16 1935.65,-1917.82 2285.59,-1896 2322.66,-1893.69 2362.7,-1891.12 2400.01,-1888.69"/>
<polygon fill="black" stroke="black" points="2400.71,-1892.15 2410.46,-1888.01 2400.25,-1885.17 2400.71,-1892.15"/>
</g>
<!-- u62 -->
<g id="node2" class="node">
<title>u62</title>
<ellipse fill="#ffffbb" stroke="black" cx="1512.59" cy="-666" rx="132.68" ry="18"/>
<text text-anchor="middle" x="1512.59" y="-662.3" font-family="Times,serif" font-size="14.00">Language.Drasil.Sentence</text>
</g>
<!-- u24 -->
<g id="node13" class="node">
<title>u24</title>
<ellipse fill="#ffffbb" stroke="black" cx="1961.59" cy="-343" rx="133.48" ry="18"/>
<text text-anchor="middle" x="1961.59" y="-339.3" font-family="Times,serif" font-size="14.00">Language.Drasil.UnitLang</text>
</g>
<!-- u62&#45;&gt;u24 -->
<g id="edge92" class="edge">
<title>u62&#45;&gt;u24</title>
<path fill="none" stroke="black" d="M1524.62,-647.88C1532.99,-635.78 1544.28,-619.1 1553.59,-604 1584.93,-553.19 1571.27,-522.06 1619.59,-487 1701.77,-427.36 1751.96,-485.77 1843.59,-442 1881.37,-423.95 1917.25,-391.11 1939.32,-368.45"/>
<polygon fill="black" stroke="black" points="1941.87,-370.84 1946.25,-361.19 1936.81,-366 1941.87,-370.84"/>
</g>
<!-- u17 -->
<g id="node19" class="node">
<title>u17</title>
<ellipse fill="#ffffbb" stroke="black" cx="1396.59" cy="-586" rx="147.57" ry="18"/>
<text text-anchor="middle" x="1396.59" y="-582.3" font-family="Times,serif" font-size="14.00">Language.Drasil.ExprClasses</text>
</g>
<!-- u62&#45;&gt;u17 -->
<g id="edge91" class="edge">
<title>u62&#45;&gt;u17</title>
<path fill="none" stroke="black" d="M1487.7,-648.27C1471,-637.03 1448.78,-622.1 1430.47,-609.78"/>
<polygon fill="black" stroke="black" points="1432.08,-606.65 1421.83,-603.97 1428.18,-612.46 1432.08,-606.65"/>
</g>
<!-- u2 -->
<g id="node43" class="node">
<title>u2</title>
<ellipse fill="#bbffff" stroke="black" cx="1838.59" cy="-586" rx="149.47" ry="18"/>
<text text-anchor="middle" x="1838.59" y="-582.3" font-family="Times,serif" font-size="14.00">Language.Drasil.Classes.Core</text>
</g>
<!-- u62&#45;&gt;u2 -->
<g id="edge90" class="edge">
<title>u62&#45;&gt;u2</title>
<path fill="none" stroke="black" d="M1575.06,-650.05C1629.12,-637.12 1707.4,-618.39 1764.59,-604.7"/>
<polygon fill="black" stroke="black" points="1765.75,-608.03 1774.66,-602.3 1764.12,-601.22 1765.75,-608.03"/>
</g>
<!-- u44 -->
<g id="node3" class="node">
<title>u44</title>
<ellipse fill="#ffffbb" stroke="black" cx="1750.59" cy="-505" rx="121.58" ry="18"/>
<text text-anchor="middle" x="1750.59" y="-501.3" font-family="Times,serif" font-size="14.00">Language.Drasil.Stages</text>
</g>
<!-- u43 -->
<g id="node4" class="node">
<title>u43</title>
<ellipse fill="#ffffbb" stroke="black" cx="1024.59" cy="-343" rx="141.07" ry="18"/>
<text text-anchor="middle" x="1024.59" y="-339.3" font-family="Times,serif" font-size="14.00">Language.Drasil.ModelExpr</text>
</g>
<!-- u19 -->
<g id="node17" class="node">
<title>u19</title>
<ellipse fill="#ffffbb" stroke="black" cx="920.59" cy="-262" rx="112.38" ry="18"/>
<text text-anchor="middle" x="920.59" y="-258.3" font-family="Times,serif" font-size="14.00">Language.Drasil.Expr</text>
</g>
<!-- u43&#45;&gt;u19 -->
<g id="edge61" class="edge">
<title>u43&#45;&gt;u19</title>
<path fill="none" stroke="black" d="M1002.28,-325.05C987.33,-313.7 967.47,-298.61 951.08,-286.16"/>
<polygon fill="black" stroke="black" points="952.94,-283.18 942.86,-279.92 948.71,-288.76 952.94,-283.18"/>
</g>
<!-- u42 -->
<g id="node5" class="node">
<title>u42</title>
<ellipse fill="#ffffbb" stroke="black" cx="312.59" cy="-747" rx="139.18" ry="18"/>
<text text-anchor="middle" x="312.59" y="-743.3" font-family="Times,serif" font-size="14.00">Language.Drasil.Constraint</text>
</g>
<!-- u42&#45;&gt;u19 -->
<g id="edge60" class="edge">
<title>u42&#45;&gt;u19</title>
<path fill="none" stroke="black" d="M342.53,-729.26C383.12,-704.09 450.59,-652.43 450.59,-587 450.59,-587 450.59,-587 450.59,-423 450.59,-344.37 689.28,-296.56 826.46,-275.57"/>
<polygon fill="black" stroke="black" points="827.2,-278.99 836.56,-274.04 826.15,-272.07 827.2,-278.99"/>
</g>
<!-- u41 -->
<g id="node6" class="node">
<title>u41</title>
<ellipse fill="#ffffbb" stroke="black" cx="511.59" cy="-1070" rx="124.58" ry="18"/>
<text text-anchor="middle" x="511.59" y="-1066.3" font-family="Times,serif" font-size="14.00">Language.Drasil.Classes</text>
</g>
<!-- u41&#45;&gt;u42 -->
<g id="edge58" class="edge">
<title>u41&#45;&gt;u42</title>
<path fill="none" stroke="black" d="M422.75,-1057.28C363.08,-1047.38 292.09,-1030.94 273.59,-1007 219.64,-937.2 269.85,-824.46 297.34,-773.94"/>
<polygon fill="black" stroke="black" points="300.52,-775.41 302.34,-764.97 294.41,-772 300.52,-775.41"/>
</g>
<!-- u38 -->
<g id="node8" class="node">
<title>u38</title>
<ellipse fill="#ffffbb" stroke="black" cx="672.59" cy="-909" rx="138.38" ry="18"/>
<text text-anchor="middle" x="672.59" y="-905.3" font-family="Times,serif" font-size="14.00">Language.Drasil.Derivation</text>
</g>
<!-- u41&#45;&gt;u38 -->
<g id="edge56" class="edge">
<title>u41&#45;&gt;u38</title>
<path fill="none" stroke="black" d="M557.71,-1053.26C581.68,-1043.16 609.98,-1027.95 629.59,-1007 648.19,-987.12 659.65,-957.86 666.01,-936.68"/>
<polygon fill="black" stroke="black" points="669.39,-937.58 668.73,-927 662.65,-935.68 669.39,-937.58"/>
</g>
<!-- u11 -->
<g id="node22" class="node">
<title>u11</title>
<ellipse fill="#ffffbb" stroke="black" cx="1261.59" cy="-989" rx="184.67" ry="18"/>
<text text-anchor="middle" x="1261.59" y="-985.3" font-family="Times,serif" font-size="14.00">Language.Drasil.DecoratedReference</text>
</g>
<!-- u41&#45;&gt;u11 -->
<g id="edge55" class="edge">
<title>u41&#45;&gt;u11</title>
<path fill="none" stroke="black" d="M609.25,-1058.71C742.75,-1044.65 982.57,-1019.39 1131.27,-1003.73"/>
<polygon fill="black" stroke="black" points="1131.8,-1007.19 1141.38,-1002.66 1131.06,-1000.23 1131.8,-1007.19"/>
</g>
<!-- u61 -->
<g id="node58" class="node">
<title>u61</title>
<ellipse fill="#ff77ff" stroke="black" cx="848.59" cy="-989" rx="171.67" ry="18"/>
<text text-anchor="middle" x="848.59" y="-985.3" font-family="Times,serif" font-size="14.00">Language.Drasil.NounPhrase.Core</text>
</g>
<!-- u41&#45;&gt;u61 -->
<g id="edge59" class="edge">
<title>u41&#45;&gt;u61</title>
<path fill="none" stroke="black" d="M574.18,-1054.33C630.17,-1041.2 712.39,-1021.93 772.22,-1007.9"/>
<polygon fill="black" stroke="black" points="773.06,-1011.3 782,-1005.61 771.46,-1004.48 773.06,-1011.3"/>
</g>
<!-- u39 -->
<g id="node63" class="node">
<title>u39</title>
<ellipse fill="#77bbff" stroke="black" cx="451.59" cy="-989" rx="168.97" ry="18"/>
<text text-anchor="middle" x="451.59" y="-985.3" font-family="Times,serif" font-size="14.00">Language.Drasil.Uncertainty.Core</text>
</g>
<!-- u41&#45;&gt;u39 -->
<g id="edge57" class="edge">
<title>u41&#45;&gt;u39</title>
<path fill="none" stroke="black" d="M498.57,-1051.86C490.47,-1041.2 479.91,-1027.29 470.85,-1015.37"/>
<polygon fill="black" stroke="black" points="473.42,-1012.96 464.58,-1007.11 467.84,-1017.19 473.42,-1012.96"/>
</g>
<!-- u40 -->
<g id="node7" class="node">
<title>u40</title>
<ellipse fill="#ffffbb" stroke="black" cx="1074.59" cy="-182" rx="117.78" ry="18"/>
<text text-anchor="middle" x="1074.59" y="-178.3" font-family="Times,serif" font-size="14.00">Language.Drasil.Space</text>
</g>
<!-- u25 -->
<g id="node12" class="node">
<title>u25</title>
<ellipse fill="#ffffbb" stroke="black" cx="1751.59" cy="-101" rx="124.28" ry="18"/>
<text text-anchor="middle" x="1751.59" y="-97.3" font-family="Times,serif" font-size="14.00">Language.Drasil.Symbol</text>
</g>
<!-- u40&#45;&gt;u25 -->
<g id="edge54" class="edge">
<title>u40&#45;&gt;u25</title>
<path fill="none" stroke="black" d="M1165.19,-170.43C1290.55,-155.8 1516.33,-129.45 1648.16,-114.07"/>
<polygon fill="black" stroke="black" points="1648.74,-117.53 1658.27,-112.89 1647.93,-110.57 1648.74,-117.53"/>
</g>
<!-- u38&#45;&gt;u62 -->
<g id="edge53" class="edge">
<title>u38&#45;&gt;u62</title>
<path fill="none" stroke="black" d="M775.41,-896.93C885.31,-884.51 1052.02,-863.75 1113.59,-846 1252.17,-806.05 1404.8,-726.82 1474.31,-688.61"/>
<polygon fill="black" stroke="black" points="1476.1,-691.62 1483.16,-683.72 1472.71,-685.49 1476.1,-691.62"/>
</g>
<!-- u37 -->
<g id="node9" class="node">
<title>u37</title>
<ellipse fill="#ffffbb" stroke="black" cx="2546.59" cy="-1958" rx="145.67" ry="18"/>
<text text-anchor="middle" x="2546.59" y="-1954.3" font-family="Times,serif" font-size="14.00">Language.Drasil.ShortHands</text>
</g>
<!-- u37&#45;&gt;u22 -->
<g id="edge52" class="edge">
<title>u37&#45;&gt;u22</title>
<path fill="none" stroke="black" d="M2546.59,-1939.69C2546.59,-1929.89 2546.59,-1917.42 2546.59,-1906.33"/>
<polygon fill="black" stroke="black" points="2550.09,-1906.26 2546.59,-1896.26 2543.09,-1906.26 2550.09,-1906.26"/>
</g>
<!-- u32 -->
<g id="node10" class="node">
<title>u32</title>
<ellipse fill="#ffffbb" stroke="black" cx="1850.59" cy="-747" rx="142.97" ry="18"/>
<text text-anchor="middle" x="1850.59" y="-743.3" font-family="Times,serif" font-size="14.00">Language.Drasil.ShortName</text>
</g>
<!-- u32&#45;&gt;u62 -->
<g id="edge46" class="edge">
<title>u32&#45;&gt;u62</title>
<path fill="none" stroke="black" d="M1785.82,-730.86C1728.74,-717.52 1645.63,-698.1 1586.08,-684.18"/>
<polygon fill="black" stroke="black" points="1586.53,-680.69 1575.99,-681.82 1584.93,-687.5 1586.53,-680.69"/>
</g>
<!-- u31 -->
<g id="node11" class="node">
<title>u31</title>
<ellipse fill="#ffffbb" stroke="black" cx="861.59" cy="-1070" rx="146.77" ry="18"/>
<text text-anchor="middle" x="861.59" y="-1066.3" font-family="Times,serif" font-size="14.00">Language.Drasil.NounPhrase</text>
</g>
<!-- u31&#45;&gt;u61 -->
<g id="edge45" class="edge">
<title>u31&#45;&gt;u61</title>
<path fill="none" stroke="black" d="M858.77,-1051.86C857.1,-1041.71 854.94,-1028.63 853.05,-1017.12"/>
<polygon fill="black" stroke="black" points="856.48,-1016.41 851.4,-1007.11 849.57,-1017.54 856.48,-1016.41"/>
</g>
<!-- u6 -->
<g id="node24" class="node">
<title>u6</title>
<ellipse fill="#ffffbb" stroke="black" cx="1751.59" cy="-20" rx="128.08" ry="18"/>
<text text-anchor="middle" x="1751.59" y="-16.3" font-family="Times,serif" font-size="14.00">Language.Drasil.Unicode</text>
</g>
<!-- u25&#45;&gt;u6 -->
<g id="edge37" class="edge">
<title>u25&#45;&gt;u6</title>
<path fill="none" stroke="black" d="M1751.59,-82.86C1751.59,-72.71 1751.59,-59.63 1751.59,-48.12"/>
<polygon fill="black" stroke="black" points="1755.09,-48.11 1751.59,-38.11 1748.09,-48.11 1755.09,-48.11"/>
</g>
<!-- u24&#45;&gt;u25 -->
<g id="edge36" class="edge">
<title>u24&#45;&gt;u25</title>
<path fill="none" stroke="black" d="M1961.97,-324.85C1961.78,-289.61 1956.19,-208.6 1911.59,-164 1890.11,-142.52 1860.35,-128.31 1832.32,-119"/>
<polygon fill="black" stroke="black" points="1833.08,-115.57 1822.49,-115.9 1830.98,-122.24 1833.08,-115.57"/>
</g>
<!-- u23 -->
<g id="node14" class="node">
<title>u23</title>
<ellipse fill="#ffffbb" stroke="black" cx="1298.59" cy="-1151" rx="111.58" ry="18"/>
<text text-anchor="middle" x="1298.59" y="-1147.3" font-family="Times,serif" font-size="14.00">Language.Drasil.Misc</text>
</g>
<!-- u21 -->
<g id="node15" class="node">
<title>u21</title>
<ellipse fill="#ffffbb" stroke="black" cx="1542.59" cy="-182" rx="124.28" ry="18"/>
<text text-anchor="middle" x="1542.59" y="-178.3" font-family="Times,serif" font-size="14.00">Language.Drasil.Display</text>
</g>
<!-- u21&#45;&gt;u25 -->
<g id="edge34" class="edge">
<title>u21&#45;&gt;u25</title>
<path fill="none" stroke="black" d="M1584.88,-165.01C1618.03,-152.48 1664.3,-134.99 1699.68,-121.62"/>
<polygon fill="black" stroke="black" points="1701.24,-124.77 1709.36,-117.96 1698.76,-118.22 1701.24,-124.77"/>
</g>
<!-- u20 -->
<g id="node16" class="node">
<title>u20</title>
<ellipse fill="#ffffbb" stroke="black" cx="2150.59" cy="-989" rx="120.48" ry="18"/>
<text text-anchor="middle" x="2150.59" y="-985.3" font-family="Times,serif" font-size="14.00">Language.Drasil.People</text>
</g>
<!-- u19&#45;&gt;u40 -->
<g id="edge33" class="edge">
<title>u19&#45;&gt;u40</title>
<path fill="none" stroke="black" d="M952.87,-244.65C976.28,-232.79 1008.13,-216.66 1033.37,-203.88"/>
<polygon fill="black" stroke="black" points="1035.01,-206.97 1042.35,-199.33 1031.84,-200.73 1035.01,-206.97"/>
</g>
<!-- u12 -->
<g id="node21" class="node">
<title>u12</title>
<ellipse fill="#ffffbb" stroke="black" cx="1793.59" cy="-182" rx="108.58" ry="18"/>
<text text-anchor="middle" x="1793.59" y="-178.3" font-family="Times,serif" font-size="14.00">Language.Drasil.UID</text>
</g>
<!-- u19&#45;&gt;u12 -->
<g id="edge32" class="edge">
<title>u19&#45;&gt;u12</title>
<path fill="none" stroke="black" d="M1023.67,-254.72C1169.21,-245.39 1443.14,-226.11 1675.59,-200 1685.72,-198.86 1696.32,-197.53 1706.84,-196.13"/>
<polygon fill="black" stroke="black" points="1707.44,-199.58 1716.87,-194.76 1706.49,-192.64 1707.44,-199.58"/>
</g>
<!-- u18&#45;&gt;u41 -->
<g id="edge31" class="edge">
<title>u18&#45;&gt;u41</title>
<path fill="none" stroke="black" d="M145.59,-1778.72C145.59,-1749.37 145.59,-1687.94 145.59,-1636 145.59,-1636 145.59,-1636 145.59,-1231 145.59,-1124.77 276.63,-1088.38 381.9,-1076.29"/>
<polygon fill="black" stroke="black" points="382.43,-1079.75 392,-1075.19 381.68,-1072.79 382.43,-1079.75"/>
</g>
<!-- u26 -->
<g id="node57" class="node">
<title>u26</title>
<ellipse fill="#77ffff" stroke="black" cx="1307.59" cy="-505" rx="204.16" ry="18"/>
<text text-anchor="middle" x="1307.59" y="-501.3" font-family="Times,serif" font-size="14.00">Language.Drasil.ModelExpr.Development</text>
</g>
<!-- u17&#45;&gt;u26 -->
<g id="edge30" class="edge">
<title>u17&#45;&gt;u26</title>
<path fill="none" stroke="black" d="M1377.28,-567.86C1364.8,-556.78 1348.38,-542.21 1334.61,-529.99"/>
<polygon fill="black" stroke="black" points="1336.66,-527.13 1326.86,-523.11 1332.02,-532.36 1336.66,-527.13"/>
</g>
<!-- u13 -->
<g id="node20" class="node">
<title>u13</title>
<ellipse fill="#ffffbb" stroke="black" cx="1579.59" cy="-1151" rx="151.37" ry="18"/>
<text text-anchor="middle" x="1579.59" y="-1147.3" font-family="Times,serif" font-size="14.00">Language.Drasil.Development</text>
</g>
<!-- u13&#45;&gt;u31 -->
<g id="edge26" class="edge">
<title>u13&#45;&gt;u31</title>
<path fill="none" stroke="black" d="M1472.48,-1138.22C1339.57,-1123.59 1113.8,-1098.75 977.1,-1083.71"/>
<polygon fill="black" stroke="black" points="977.33,-1080.21 967.01,-1082.6 976.57,-1087.17 977.33,-1080.21"/>
</g>
<!-- u15 -->
<g id="node50" class="node">
<title>u15</title>
<ellipse fill="#7777ff" stroke="black" cx="1001.59" cy="-909" rx="148.67" ry="18"/>
<text text-anchor="middle" x="1001.59" y="-905.3" font-family="Times,serif" font-size="14.00">Language.Drasil.Expr.Extract</text>
</g>
<!-- u13&#45;&gt;u15 -->
<g id="edge25" class="edge">
<title>u13&#45;&gt;u15</title>
<path fill="none" stroke="black" d="M1503.33,-1135.41C1378.56,-1110.44 1137.68,-1057.34 1067.59,-1007 1042.51,-988.99 1023.99,-958.3 1013.06,-936.26"/>
<polygon fill="black" stroke="black" points="1016.16,-934.64 1008.7,-927.12 1009.84,-937.65 1016.16,-934.64"/>
</g>
<!-- u14 -->
<g id="node51" class="node">
<title>u14</title>
<ellipse fill="#7777ff" stroke="black" cx="936.59" cy="-828" rx="167.87" ry="18"/>
<text text-anchor="middle" x="936.59" y="-824.3" font-family="Times,serif" font-size="14.00">Language.Drasil.Expr.Precedence</text>
</g>
<!-- u13&#45;&gt;u14 -->
<g id="edge24" class="edge">
<title>u13&#45;&gt;u14</title>
<path fill="none" stroke="black" d="M1547,-1133.28C1528.97,-1122.54 1507.47,-1107.04 1493.59,-1088 1461.37,-1043.83 1495.14,-1008.74 1455.59,-971 1395.77,-913.93 1170.53,-867.89 1037.24,-844.91"/>
<polygon fill="black" stroke="black" points="1037.46,-841.4 1027.01,-843.16 1036.28,-848.3 1037.46,-841.4"/>
</g>
<!-- u13&#45;&gt;u10 -->
<g id="edge23" class="edge">
<title>u13&#45;&gt;u10</title>
<path fill="none" stroke="black" d="M1692.78,-1138.97C1841.64,-1124.47 2102.67,-1099.05 2259.8,-1083.74"/>
<polygon fill="black" stroke="black" points="2260.39,-1087.2 2270,-1082.75 2259.71,-1080.23 2260.39,-1087.2"/>
</g>
<!-- u9 -->
<g id="node61" class="node">
<title>u9</title>
<ellipse fill="#3333ff" stroke="black" cx="1635.59" cy="-1070" rx="132.68" ry="18"/>
<text text-anchor="middle" x="1635.59" y="-1066.3" font-family="Times,serif" font-size="14.00">Language.Drasil.UID.Core</text>
</g>
<!-- u13&#45;&gt;u9 -->
<g id="edge22" class="edge">
<title>u13&#45;&gt;u9</title>
<path fill="none" stroke="black" d="M1591.74,-1132.86C1599.3,-1122.2 1609.15,-1108.29 1617.61,-1096.37"/>
<polygon fill="black" stroke="black" points="1620.53,-1098.29 1623.46,-1088.11 1614.82,-1094.24 1620.53,-1098.29"/>
</g>
<!-- u5 -->
<g id="node25" class="node">
<title>u5</title>
<ellipse fill="#ffffbb" stroke="black" cx="1875.59" cy="-909" rx="136.48" ry="18"/>
<text text-anchor="middle" x="1875.59" y="-905.3" font-family="Times,serif" font-size="14.00">Language.Drasil.Reference</text>
</g>
<!-- u11&#45;&gt;u5 -->
<g id="edge21" class="edge">
<title>u11&#45;&gt;u5</title>
<path fill="none" stroke="black" d="M1369.24,-974.32C1482.25,-959.97 1658.75,-937.55 1770.71,-923.32"/>
<polygon fill="black" stroke="black" points="1771.19,-926.79 1780.67,-922.06 1770.31,-919.85 1771.19,-926.79"/>
</g>
<!-- u60 -->
<g id="node48" class="node">
<title>u60</title>
<ellipse fill="#ffff77" stroke="black" cx="1954.59" cy="-1312" rx="161.67" ry="18"/>
<text text-anchor="middle" x="1954.59" y="-1308.3" font-family="Times,serif" font-size="14.00">Language.Drasil.Document.Core</text>
</g>
<!-- u7&#45;&gt;u60 -->
<g id="edge18" class="edge">
<title>u7&#45;&gt;u60</title>
<path fill="none" stroke="black" d="M1938.98,-1859.8C1944.45,-1830.57 1954.59,-1769.31 1954.59,-1717 1954.59,-1717 1954.59,-1717 1954.59,-1473 1954.59,-1426.53 1954.59,-1372.48 1954.59,-1340.59"/>
<polygon fill="black" stroke="black" points="1958.09,-1340.28 1954.59,-1330.28 1951.09,-1340.28 1958.09,-1340.28"/>
</g>
<!-- u4 -->
<g id="node41" class="node">
<title>u4</title>
<ellipse fill="#bbffff" stroke="black" cx="1856.59" cy="-828" rx="155.17" ry="18"/>
<text text-anchor="middle" x="1856.59" y="-824.3" font-family="Times,serif" font-size="14.00">Language.Drasil.Classes.Core2</text>
</g>
<!-- u5&#45;&gt;u4 -->
<g id="edge17" class="edge">
<title>u5&#45;&gt;u4</title>
<path fill="none" stroke="black" d="M1871.46,-890.86C1869.02,-880.71 1865.88,-867.63 1863.11,-856.12"/>
<polygon fill="black" stroke="black" points="1866.44,-855.01 1860.7,-846.11 1859.64,-856.65 1866.44,-855.01"/>
</g>
<!-- u52 -->
<g id="node32" class="node">
<title>u52</title>
<ellipse fill="#bbbbff" stroke="black" cx="603.59" cy="-1555" rx="163.27" ry="18"/>
<text text-anchor="middle" x="603.59" y="-1551.3" font-family="Times,serif" font-size="14.00">Language.Drasil.Chunk.Quantity</text>
</g>
<!-- u59&#45;&gt;u52 -->
<g id="edge86" class="edge">
<title>u59&#45;&gt;u52</title>
<path fill="none" stroke="black" d="M509.07,-1778.98C504.98,-1745.66 500.02,-1670.4 528.59,-1617 536.85,-1601.56 550.84,-1588.57 564.51,-1578.6"/>
<polygon fill="black" stroke="black" points="566.69,-1581.35 572.93,-1572.79 562.71,-1575.59 566.69,-1581.35"/>
</g>
<!-- u49 -->
<g id="node35" class="node">
<title>u49</title>
<ellipse fill="#bbbbff" stroke="black" cx="981.59" cy="-1797" rx="178.97" ry="18"/>
<text text-anchor="middle" x="981.59" y="-1793.3" font-family="Times,serif" font-size="14.00">Language.Drasil.Chunk.Constrained</text>
</g>
<!-- u58&#45;&gt;u49 -->
<g id="edge85" class="edge">
<title>u58&#45;&gt;u49</title>
<path fill="none" stroke="black" d="M979.24,-1859.86C979.62,-1849.71 980.12,-1836.63 980.56,-1825.12"/>
<polygon fill="black" stroke="black" points="984.06,-1825.23 980.94,-1815.11 977.06,-1824.97 984.06,-1825.23"/>
</g>
<!-- u57 -->
<g id="node28" class="node">
<title>u57</title>
<ellipse fill="#bbbbff" stroke="black" cx="1404.59" cy="-1232" rx="183.07" ry="18"/>
<text text-anchor="middle" x="1404.59" y="-1228.3" font-family="Times,serif" font-size="14.00">Language.Drasil.Chunk.CommonIdea</text>
</g>
<!-- u57&#45;&gt;u23 -->
<g id="edge83" class="edge">
<title>u57&#45;&gt;u23</title>
<path fill="none" stroke="black" d="M1381.85,-1214.05C1366.51,-1202.62 1346.1,-1187.41 1329.32,-1174.91"/>
<polygon fill="black" stroke="black" points="1331.03,-1171.82 1320.93,-1168.65 1326.85,-1177.43 1331.03,-1171.82"/>
</g>
<!-- u51 -->
<g id="node33" class="node">
<title>u51</title>
<ellipse fill="#bbbbff" stroke="black" cx="993.59" cy="-1151" rx="175.47" ry="18"/>
<text text-anchor="middle" x="993.59" y="-1147.3" font-family="Times,serif" font-size="14.00">Language.Drasil.Chunk.NamedIdea</text>
</g>
<!-- u57&#45;&gt;u51 -->
<g id="edge84" class="edge">
<title>u57&#45;&gt;u51</title>
<path fill="none" stroke="black" d="M1325.34,-1215.77C1255.72,-1202.39 1154.53,-1182.94 1082.24,-1169.04"/>
<polygon fill="black" stroke="black" points="1082.72,-1165.57 1072.24,-1167.12 1081.4,-1172.44 1082.72,-1165.57"/>
</g>
<!-- u56 -->
<g id="node29" class="node">
<title>u56</title>
<ellipse fill="#bbbbff" stroke="black" cx="983.59" cy="-1716" rx="151.37" ry="18"/>
<text text-anchor="middle" x="983.59" y="-1712.3" font-family="Times,serif" font-size="14.00">Language.Drasil.Chunk.Unital</text>
</g>
<!-- u50 -->
<g id="node34" class="node">
<title>u50</title>
<ellipse fill="#bbbbff" stroke="black" cx="983.59" cy="-1635" rx="157.87" ry="18"/>
<text text-anchor="middle" x="983.59" y="-1631.3" font-family="Times,serif" font-size="14.00">Language.Drasil.Chunk.Unitary</text>
</g>
<!-- u56&#45;&gt;u50 -->
<g id="edge82" class="edge">
<title>u56&#45;&gt;u50</title>
<path fill="none" stroke="black" d="M983.59,-1697.86C983.59,-1687.71 983.59,-1674.63 983.59,-1663.12"/>
<polygon fill="black" stroke="black" points="987.09,-1663.11 983.59,-1653.11 980.09,-1663.11 987.09,-1663.11"/>
</g>
<!-- u45 -->
<g id="node39" class="node">
<title>u45</title>
<ellipse fill="#bbbbff" stroke="black" cx="982.59" cy="-1555" rx="198.47" ry="18"/>
<text text-anchor="middle" x="982.59" y="-1551.3" font-family="Times,serif" font-size="14.00">Language.Drasil.Chunk.DefinedQuantity</text>
</g>
<!-- u56&#45;&gt;u45 -->
<g id="edge81" class="edge">
<title>u56&#45;&gt;u45</title>
<path fill="none" stroke="black" d="M1058.4,-1700.34C1115.54,-1685.55 1179.91,-1658.84 1150.59,-1617 1136.42,-1596.79 1114.84,-1583.25 1091.82,-1574.18"/>
<polygon fill="black" stroke="black" points="1092.83,-1570.83 1082.24,-1570.69 1090.43,-1577.4 1092.83,-1570.83"/>
</g>
<!-- u55 -->
<g id="node30" class="node">
<title>u55</title>
<ellipse fill="#bbbbff" stroke="black" cx="1777.59" cy="-1232" rx="159.47" ry="18"/>
<text text-anchor="middle" x="1777.59" y="-1228.3" font-family="Times,serif" font-size="14.00">Language.Drasil.Chunk.Citation</text>
</g>
<!-- u55&#45;&gt;u23 -->
<g id="edge80" class="edge">
<title>u55&#45;&gt;u23</title>
<path fill="none" stroke="black" d="M1691.68,-1216.83C1604.53,-1202.46 1470.47,-1180.35 1383.63,-1166.03"/>
<polygon fill="black" stroke="black" points="1383.98,-1162.54 1373.55,-1164.36 1382.85,-1169.44 1383.98,-1162.54"/>
</g>
<!-- u55&#45;&gt;u4 -->
<g id="edge78" class="edge">
<title>u55&#45;&gt;u4</title>
<path fill="none" stroke="black" d="M1781.87,-1213.84C1789.18,-1180.89 1801.14,-1107.16 1777.59,-1052 1766.23,-1025.4 1741.94,-1033.6 1730.59,-1007 1710.34,-959.59 1703.34,-934.77 1730.59,-891 1742.82,-871.35 1763.31,-857.74 1784.25,-848.41"/>
<polygon fill="black" stroke="black" points="1785.67,-851.61 1793.55,-844.54 1782.98,-845.15 1785.67,-851.61"/>
</g>
<!-- u3 -->
<g id="node42" class="node">
<title>u3</title>
<ellipse fill="#bbffff" stroke="black" cx="1994.59" cy="-1151" rx="169.77" ry="18"/>
<text text-anchor="middle" x="1994.59" y="-1147.3" font-family="Times,serif" font-size="14.00">Language.Drasil.Classes.Citations</text>
</g>
<!-- u55&#45;&gt;u3 -->
<g id="edge77" class="edge">
<title>u55&#45;&gt;u3</title>
<path fill="none" stroke="black" d="M1822.55,-1214.63C1856.62,-1202.23 1903.6,-1185.12 1939.86,-1171.92"/>
<polygon fill="black" stroke="black" points="1941.11,-1175.19 1949.31,-1168.48 1938.72,-1168.62 1941.11,-1175.19"/>
</g>
<!-- u55&#45;&gt;u9 -->
<g id="edge79" class="edge">
<title>u55&#45;&gt;u9</title>
<path fill="none" stroke="black" d="M1774.46,-1213.65C1769.92,-1192.55 1759.73,-1156.84 1739.59,-1133 1724.89,-1115.6 1704,-1101.83 1684.8,-1091.72"/>
<polygon fill="black" stroke="black" points="1686.34,-1088.58 1675.84,-1087.2 1683.19,-1094.83 1686.34,-1088.58"/>
</g>
<!-- u53&#45;&gt;u45 -->
<g id="edge75" class="edge">
<title>u53&#45;&gt;u45</title>
<path fill="none" stroke="black" d="M732.73,-1618.87C783.03,-1606.21 855,-1588.1 908.79,-1574.57"/>
<polygon fill="black" stroke="black" points="909.77,-1577.93 918.61,-1572.1 908.06,-1571.14 909.77,-1577.93"/>
</g>
<!-- u30 -->
<g id="node53" class="node">
<title>u30</title>
<ellipse fill="#77ffff" stroke="black" cx="340.59" cy="-1474" rx="167.07" ry="18"/>
<text text-anchor="middle" x="340.59" y="-1470.3" font-family="Times,serif" font-size="14.00">Language.Drasil.ModelExpr.Math</text>
</g>
<!-- u53&#45;&gt;u30 -->
<g id="edge74" class="edge">
<title>u53&#45;&gt;u30</title>
<path fill="none" stroke="black" d="M575.3,-1622.41C529.33,-1613.77 475.12,-1598.81 431.59,-1573 400.73,-1554.71 373.98,-1522.8 357.61,-1500.38"/>
<polygon fill="black" stroke="black" points="360.3,-1498.12 351.66,-1492 354.6,-1502.18 360.3,-1498.12"/>
</g>
<!-- u48 -->
<g id="node36" class="node">
<title>u48</title>
<ellipse fill="#bbbbff" stroke="black" cx="985.59" cy="-1474" rx="165.17" ry="18"/>
<text text-anchor="middle" x="985.59" y="-1470.3" font-family="Times,serif" font-size="14.00">Language.Drasil.Chunk.UnitDefn</text>
</g>
<!-- u52&#45;&gt;u48 -->
<g id="edge73" class="edge">
<title>u52&#45;&gt;u48</title>
<path fill="none" stroke="black" d="M676.79,-1538.86C741.18,-1525.54 834.89,-1506.17 902.16,-1492.25"/>
<polygon fill="black" stroke="black" points="903.22,-1495.61 912.31,-1490.15 901.81,-1488.75 903.22,-1495.61"/>
</g>
<!-- u16 -->
<g id="node49" class="node">
<title>u16</title>
<ellipse fill="#7777ff" stroke="black" cx="663.59" cy="-1474" rx="138.38" ry="18"/>
<text text-anchor="middle" x="663.59" y="-1470.3" font-family="Times,serif" font-size="14.00">Language.Drasil.Expr.Math</text>
</g>
<!-- u52&#45;&gt;u16 -->
<g id="edge72" class="edge">
<title>u52&#45;&gt;u16</title>
<path fill="none" stroke="black" d="M616.61,-1536.86C624.7,-1526.2 635.26,-1512.29 644.32,-1500.37"/>
<polygon fill="black" stroke="black" points="647.33,-1502.19 650.59,-1492.11 641.76,-1497.96 647.33,-1502.19"/>
</g>
<!-- u51&#45;&gt;u41 -->
<g id="edge71" class="edge">
<title>u51&#45;&gt;u41</title>
<path fill="none" stroke="black" d="M904.9,-1135.46C818.33,-1121.28 687.33,-1099.8 600.64,-1085.6"/>
<polygon fill="black" stroke="black" points="600.99,-1082.11 590.55,-1083.94 599.86,-1089.01 600.99,-1082.11"/>
</g>
<!-- u51&#45;&gt;u31 -->
<g id="edge70" class="edge">
<title>u51&#45;&gt;u31</title>
<path fill="none" stroke="black" d="M965.27,-1133.05C945.78,-1121.39 919.7,-1105.78 898.58,-1093.14"/>
<polygon fill="black" stroke="black" points="900.24,-1090.05 889.86,-1087.92 896.64,-1096.06 900.24,-1090.05"/>
</g>
<!-- u51&#45;&gt;u9 -->
<g id="edge69" class="edge">
<title>u51&#45;&gt;u9</title>
<path fill="none" stroke="black" d="M1101.41,-1136.73C1220.96,-1122.02 1412.52,-1098.45 1530.83,-1083.89"/>
<polygon fill="black" stroke="black" points="1531.49,-1087.34 1540.99,-1082.64 1530.63,-1080.39 1531.49,-1087.34"/>
</g>
<!-- u50&#45;&gt;u52 -->
<g id="edge68" class="edge">
<title>u50&#45;&gt;u52</title>
<path fill="none" stroke="black" d="M910.32,-1618.96C846.52,-1605.87 754.05,-1586.89 687.34,-1573.19"/>
<polygon fill="black" stroke="black" points="687.78,-1569.71 677.28,-1571.13 686.37,-1576.57 687.78,-1569.71"/>
</g>
<!-- u49&#45;&gt;u56 -->
<g id="edge67" class="edge">
<title>u49&#45;&gt;u56</title>
<path fill="none" stroke="black" d="M982.02,-1778.86C982.28,-1768.71 982.61,-1755.63 982.9,-1744.12"/>
<polygon fill="black" stroke="black" points="986.4,-1744.19 983.15,-1734.11 979.4,-1744.02 986.4,-1744.19"/>
</g>
<!-- u46 -->
<g id="node38" class="node">
<title>u46</title>
<ellipse fill="#bbbbff" stroke="black" cx="1397.59" cy="-1393" rx="160.57" ry="18"/>
<text text-anchor="middle" x="1397.59" y="-1389.3" font-family="Times,serif" font-size="14.00">Language.Drasil.Chunk.Concept</text>
</g>
<!-- u48&#45;&gt;u46 -->
<g id="edge66" class="edge">
<title>u48&#45;&gt;u46</title>
<path fill="none" stroke="black" d="M1063.57,-1458.05C1133.86,-1444.57 1237.11,-1424.77 1310.17,-1410.76"/>
<polygon fill="black" stroke="black" points="1311.11,-1414.14 1320.28,-1408.82 1309.8,-1407.27 1311.11,-1414.14"/>
</g>
<!-- u47&#45;&gt;u46 -->
<g id="edge65" class="edge">
<title>u47&#45;&gt;u46</title>
<path fill="none" stroke="black" d="M1397.59,-1697.74C1397.59,-1645.05 1397.59,-1485.96 1397.59,-1421.54"/>
<polygon fill="black" stroke="black" points="1401.09,-1421.34 1397.59,-1411.34 1394.09,-1421.34 1401.09,-1421.34"/>
</g>
<!-- u54 -->
<g id="node40" class="node">
<title>u54</title>
<ellipse fill="#ffbbbb" stroke="black" cx="1406.59" cy="-1312" rx="185.47" ry="18"/>
<text text-anchor="middle" x="1406.59" y="-1308.3" font-family="Times,serif" font-size="14.00">Language.Drasil.Chunk.Concept.Core</text>
</g>
<!-- u46&#45;&gt;u54 -->
<g id="edge64" class="edge">
<title>u46&#45;&gt;u54</title>
<path fill="none" stroke="black" d="M1399.54,-1374.86C1400.7,-1364.71 1402.19,-1351.63 1403.5,-1340.12"/>
<polygon fill="black" stroke="black" points="1406.98,-1340.44 1404.64,-1330.11 1400.03,-1339.65 1406.98,-1340.44"/>
</g>
<!-- u45&#45;&gt;u48 -->
<g id="edge63" class="edge">
<title>u45&#45;&gt;u48</title>
<path fill="none" stroke="black" d="M983.24,-1536.86C983.62,-1526.71 984.12,-1513.63 984.56,-1502.12"/>
<polygon fill="black" stroke="black" points="988.06,-1502.23 984.94,-1492.11 981.06,-1501.97 988.06,-1502.23"/>
</g>
<!-- u45&#45;&gt;u16 -->
<g id="edge62" class="edge">
<title>u45&#45;&gt;u16</title>
<path fill="none" stroke="black" d="M917.65,-1537.92C864.57,-1524.77 789.63,-1506.21 734.89,-1492.66"/>
<polygon fill="black" stroke="black" points="735.47,-1489.2 724.92,-1490.19 733.78,-1495.99 735.47,-1489.2"/>
</g>
<!-- u54&#45;&gt;u57 -->
<g id="edge76" class="edge">
<title>u54&#45;&gt;u57</title>
<path fill="none" stroke="black" d="M1406.14,-1293.69C1405.89,-1283.89 1405.57,-1271.42 1405.29,-1260.33"/>
<polygon fill="black" stroke="black" points="1408.78,-1260.17 1405.03,-1250.26 1401.79,-1260.35 1408.78,-1260.17"/>
</g>
<!-- u4&#45;&gt;u32 -->
<g id="edge16" class="edge">
<title>u4&#45;&gt;u32</title>
<path fill="none" stroke="black" d="M1855.29,-809.86C1854.51,-799.71 1853.52,-786.63 1852.65,-775.12"/>
<polygon fill="black" stroke="black" points="1856.13,-774.81 1851.89,-765.11 1849.15,-775.34 1856.13,-774.81"/>
</g>
<!-- u36 -->
<g id="node45" class="node">
<title>u36</title>
<ellipse fill="#ffbbff" stroke="black" cx="1994.59" cy="-1070" rx="151.37" ry="18"/>
<text text-anchor="middle" x="1994.59" y="-1066.3" font-family="Times,serif" font-size="14.00">Language.Drasil.Data.Citation</text>
</g>
<!-- u3&#45;&gt;u36 -->
<g id="edge15" class="edge">
<title>u3&#45;&gt;u36</title>
<path fill="none" stroke="black" d="M1994.59,-1132.86C1994.59,-1122.71 1994.59,-1109.63 1994.59,-1098.12"/>
<polygon fill="black" stroke="black" points="1998.09,-1098.11 1994.59,-1088.11 1991.09,-1098.11 1998.09,-1098.11"/>
</g>
<!-- u2&#45;&gt;u44 -->
<g id="edge14" class="edge">
<title>u2&#45;&gt;u44</title>
<path fill="none" stroke="black" d="M1819.49,-567.86C1807.07,-556.71 1790.7,-542.01 1777.03,-529.74"/>
<polygon fill="black" stroke="black" points="1779.12,-526.91 1769.34,-522.84 1774.45,-532.12 1779.12,-526.91"/>
</g>
<!-- u2&#45;&gt;u25 -->
<g id="edge12" class="edge">
<title>u2&#45;&gt;u25</title>
<path fill="none" stroke="black" d="M1931.97,-571.84C2014.75,-554.28 2122.59,-514.27 2122.59,-425 2122.59,-425 2122.59,-425 2122.59,-261 2122.59,-153.49 1989.33,-117.73 1882.54,-106.34"/>
<polygon fill="black" stroke="black" points="1882.6,-102.83 1872.3,-105.31 1881.9,-109.79 1882.6,-102.83"/>
</g>
<!-- u34 -->
<g id="node52" class="node">
<title>u34</title>
<ellipse fill="#ff7777" stroke="black" cx="1793.59" cy="-262" rx="140.28" ry="18"/>
<text text-anchor="middle" x="1793.59" y="-258.3" font-family="Times,serif" font-size="14.00">Language.Drasil.Label.Type</text>
</g>
<!-- u2&#45;&gt;u34 -->
<g id="edge13" class="edge">
<title>u2&#45;&gt;u34</title>
<path fill="none" stroke="black" d="M1854.79,-567.85C1864.64,-556.2 1876.31,-539.88 1881.59,-523 1886.36,-507.73 1885.07,-502.62 1881.59,-487 1872.94,-448.19 1861.39,-441.55 1843.59,-406 1833.44,-385.73 1827.88,-382.09 1819.59,-361 1810.41,-337.67 1803.4,-309.97 1798.98,-289.98"/>
<polygon fill="black" stroke="black" points="1802.37,-289.07 1796.86,-280.02 1795.52,-290.53 1802.37,-289.07"/>
</g>
<!-- u1&#45;&gt;u55 -->
<g id="edge11" class="edge">
<title>u1&#45;&gt;u55</title>
<path fill="none" stroke="black" d="M1752.66,-1697.83C1754.39,-1668.69 1757.59,-1607.66 1757.59,-1556 1757.59,-1556 1757.59,-1556 1757.59,-1392 1757.59,-1345.46 1766.13,-1291.85 1772.05,-1260.29"/>
<polygon fill="black" stroke="black" points="1775.56,-1260.57 1774.01,-1250.09 1768.68,-1259.24 1775.56,-1260.57"/>
</g>
<!-- u36&#45;&gt;u20 -->
<g id="edge50" class="edge">
<title>u36&#45;&gt;u20</title>
<path fill="none" stroke="black" d="M2027.67,-1052.25C2051.41,-1040.23 2083.56,-1023.94 2109.03,-1011.04"/>
<polygon fill="black" stroke="black" points="2110.75,-1014.1 2118.09,-1006.46 2107.58,-1007.85 2110.75,-1014.1"/>
</g>
<!-- u35 -->
<g id="node46" class="node">
<title>u35</title>
<ellipse fill="#ffbbff" stroke="black" cx="1875.59" cy="-989" rx="136.48" ry="18"/>
<text text-anchor="middle" x="1875.59" y="-985.3" font-family="Times,serif" font-size="14.00">Language.Drasil.Data.Date</text>
</g>
<!-- u36&#45;&gt;u35 -->
<g id="edge51" class="edge">
<title>u36&#45;&gt;u35</title>
<path fill="none" stroke="black" d="M1969.35,-1052.25C1951.84,-1040.62 1928.32,-1025.01 1909.22,-1012.32"/>
<polygon fill="black" stroke="black" points="1911.05,-1009.34 1900.79,-1006.73 1907.18,-1015.18 1911.05,-1009.34"/>
</g>
<!-- u33&#45;&gt;u41 -->
<g id="edge48" class="edge">
<title>u33&#45;&gt;u41</title>
<path fill="none" stroke="black" d="M583.62,-1132.86C570.51,-1121.6 553.2,-1106.73 538.83,-1094.39"/>
<polygon fill="black" stroke="black" points="541.06,-1091.7 531.19,-1087.84 536.5,-1097.01 541.06,-1091.7"/>
</g>
<!-- u33&#45;&gt;u31 -->
<g id="edge47" class="edge">
<title>u33&#45;&gt;u31</title>
<path fill="none" stroke="black" d="M657.04,-1133.63C698.62,-1120.9 756.36,-1103.22 799.9,-1089.89"/>
<polygon fill="black" stroke="black" points="800.98,-1093.22 809.52,-1086.94 798.93,-1086.52 800.98,-1093.22"/>
</g>
<!-- u60&#45;&gt;u5 -->
<g id="edge87" class="edge">
<title>u60&#45;&gt;u5</title>
<path fill="none" stroke="black" d="M1995.81,-1294.57C2045.02,-1272.92 2126.54,-1230.28 2173.59,-1169 2206.88,-1125.63 2178.49,-1095.52 2211.59,-1052 2233.52,-1023.15 2262.43,-1038.92 2279.59,-1007 2287.16,-992.91 2290.02,-983.13 2279.59,-971 2246.23,-932.23 2122.27,-917.78 2020.36,-912.56"/>
<polygon fill="black" stroke="black" points="2020.42,-909.06 2010.26,-912.07 2020.08,-916.05 2020.42,-909.06"/>
</g>
<!-- u60&#45;&gt;u55 -->
<g id="edge88" class="edge">
<title>u60&#45;&gt;u55</title>
<path fill="none" stroke="black" d="M1917.05,-1294.46C1890.06,-1282.57 1853.49,-1266.45 1824.56,-1253.7"/>
<polygon fill="black" stroke="black" points="1825.63,-1250.35 1815.07,-1249.52 1822.81,-1256.75 1825.63,-1250.35"/>
</g>
<!-- u16&#45;&gt;u41 -->
<g id="edge29" class="edge">
<title>u16&#45;&gt;u41</title>
<path fill="none" stroke="black" d="M572.24,-1460.43C488.87,-1443.22 378.59,-1403.36 378.59,-1313 378.59,-1313 378.59,-1313 378.59,-1231 378.59,-1186.63 371.37,-1168.79 397.59,-1133 411.38,-1114.16 432.69,-1100.42 453.16,-1090.73"/>
<polygon fill="black" stroke="black" points="454.79,-1093.84 462.48,-1086.56 451.93,-1087.45 454.79,-1093.84"/>
</g>
<!-- u15&#45;&gt;u19 -->
<g id="edge28" class="edge">
<title>u15&#45;&gt;u19</title>
<path fill="none" stroke="black" d="M915.7,-894.27C868.16,-884.66 808.9,-869.29 759.59,-846 692.87,-814.5 625.59,-821.78 625.59,-748 625.59,-748 625.59,-748 625.59,-423 625.59,-372.83 641.73,-355.47 681.59,-325 719.02,-296.38 768.38,-280.9 812.52,-272.57"/>
<polygon fill="black" stroke="black" points="813.21,-276 822.44,-270.79 811.98,-269.11 813.21,-276"/>
</g>
<!-- u14&#45;&gt;u19 -->
<g id="edge27" class="edge">
<title>u14&#45;&gt;u19</title>
<path fill="none" stroke="black" d="M847.2,-812.77C767.58,-794.4 663.59,-753.8 663.59,-667 663.59,-667 663.59,-667 663.59,-423 663.59,-339.25 763.16,-297.77 838.35,-278.39"/>
<polygon fill="black" stroke="black" points="839.45,-281.72 848.31,-275.91 837.77,-274.92 839.45,-281.72"/>
</g>
<!-- u34&#45;&gt;u12 -->
<g id="edge49" class="edge">
<title>u34&#45;&gt;u12</title>
<path fill="none" stroke="black" d="M1793.59,-243.69C1793.59,-233.89 1793.59,-221.42 1793.59,-210.33"/>
<polygon fill="black" stroke="black" points="1797.09,-210.26 1793.59,-200.26 1790.09,-210.26 1797.09,-210.26"/>
</g>
<!-- u30&#45;&gt;u41 -->
<g id="edge44" class="edge">
<title>u30&#45;&gt;u41</title>
<path fill="none" stroke="black" d="M340.59,-1455.72C340.59,-1426.37 340.59,-1364.94 340.59,-1313 340.59,-1313 340.59,-1313 340.59,-1231 340.59,-1184.6 345.09,-1167.07 376.59,-1133 394.9,-1113.19 420.79,-1099.21 445.01,-1089.62"/>
<polygon fill="black" stroke="black" points="446.42,-1092.83 454.54,-1086.02 443.95,-1086.28 446.42,-1092.83"/>
</g>
<!-- u29 -->
<g id="node54" class="node">
<title>u29</title>
<ellipse fill="#77ffff" stroke="black" cx="1246.59" cy="-424" rx="177.37" ry="18"/>
<text text-anchor="middle" x="1246.59" y="-420.3" font-family="Times,serif" font-size="14.00">Language.Drasil.ModelExpr.Extract</text>
</g>
<!-- u29&#45;&gt;u43 -->
<g id="edge43" class="edge">
<title>u29&#45;&gt;u43</title>
<path fill="none" stroke="black" d="M1200.32,-406.54C1165.21,-394.04 1116.81,-376.82 1079.7,-363.61"/>
<polygon fill="black" stroke="black" points="1080.63,-360.23 1070.04,-360.17 1078.28,-366.82 1080.63,-360.23"/>
</g>
<!-- u28 -->
<g id="node55" class="node">
<title>u28</title>
<ellipse fill="#77ffff" stroke="black" cx="1638.59" cy="-424" rx="196.07" ry="18"/>
<text text-anchor="middle" x="1638.59" y="-420.3" font-family="Times,serif" font-size="14.00">Language.Drasil.ModelExpr.Precedence</text>
</g>
<!-- u28&#45;&gt;u43 -->
<g id="edge42" class="edge">
<title>u28&#45;&gt;u43</title>
<path fill="none" stroke="black" d="M1529.52,-408.97C1416.63,-394.44 1241.47,-371.91 1129.96,-357.56"/>
<polygon fill="black" stroke="black" points="1130.4,-354.09 1120.04,-356.28 1129.51,-361.03 1130.4,-354.09"/>
</g>
<!-- u27 -->
<g id="node56" class="node">
<title>u27</title>
<ellipse fill="#77ffff" stroke="black" cx="871.59" cy="-424" rx="180.07" ry="18"/>
<text text-anchor="middle" x="871.59" y="-420.3" font-family="Times,serif" font-size="14.00">Language.Drasil.ModelExpr.Convert</text>
</g>
<!-- u27&#45;&gt;u43 -->
<g id="edge41" class="edge">
<title>u27&#45;&gt;u43</title>
<path fill="none" stroke="black" d="M904.03,-406.25C927.14,-394.32 958.37,-378.19 983.25,-365.34"/>
<polygon fill="black" stroke="black" points="985.17,-368.29 992.45,-360.59 981.96,-362.07 985.17,-368.29"/>
</g>
<!-- u26&#45;&gt;u29 -->
<g id="edge40" class="edge">
<title>u26&#45;&gt;u29</title>
<path fill="none" stroke="black" d="M1294.35,-486.86C1286.12,-476.2 1275.38,-462.29 1266.17,-450.37"/>
<polygon fill="black" stroke="black" points="1268.68,-447.88 1259.8,-442.11 1263.14,-452.16 1268.68,-447.88"/>
</g>
<!-- u26&#45;&gt;u28 -->
<g id="edge39" class="edge">
<title>u26&#45;&gt;u28</title>
<path fill="none" stroke="black" d="M1374.97,-487.92C1429.09,-475 1505.11,-456.86 1561.62,-443.37"/>
<polygon fill="black" stroke="black" points="1562.67,-446.72 1571.58,-440.99 1561.04,-439.91 1562.67,-446.72"/>
</g>
<!-- u26&#45;&gt;u27 -->
<g id="edge38" class="edge">
<title>u26&#45;&gt;u27</title>
<path fill="none" stroke="black" d="M1222.75,-488.63C1148.54,-475.18 1040.96,-455.69 964.46,-441.83"/>
<polygon fill="black" stroke="black" points="964.82,-438.34 954.35,-440 963.57,-445.22 964.82,-438.34"/>
</g>
<!-- u61&#45;&gt;u62 -->
<g id="edge89" class="edge">
<title>u61&#45;&gt;u62</title>
<path fill="none" stroke="black" d="M972.34,-976.44C1030.93,-967.82 1100.78,-952.86 1159.59,-927 1298.05,-866.12 1434.26,-743.08 1488.28,-691.08"/>
<polygon fill="black" stroke="black" points="1490.9,-693.41 1495.64,-683.93 1486.03,-688.38 1490.9,-693.41"/>
</g>
<!-- u10&#45;&gt;u62 -->
<g id="edge20" class="edge">
<title>u10&#45;&gt;u62</title>
<path fill="none" stroke="black" d="M2385.76,-1051.99C2377.99,-1023.06 2363.59,-962.36 2363.59,-910 2363.59,-910 2363.59,-910 2363.59,-827 2363.59,-753.44 1866.19,-698.84 1631.94,-677.2"/>
<polygon fill="black" stroke="black" points="1631.94,-673.69 1621.66,-676.26 1631.3,-680.66 1631.94,-673.69"/>
</g>
<!-- u22&#45;&gt;u2 -->
<g id="edge35" class="edge">
<title>u22&#45;&gt;u2</title>
<path fill="none" stroke="black" d="M2554.29,-1859.64C2566.42,-1830.68 2588.59,-1770.42 2588.59,-1717 2588.59,-1717 2588.59,-1717 2588.59,-746 2588.59,-626.05 2216.85,-596.19 1996.8,-589.02"/>
<polygon fill="black" stroke="black" points="1996.87,-585.52 1986.76,-588.7 1996.65,-592.52 1996.87,-585.52"/>
</g>
<!-- u9&#45;&gt;u2 -->
<g id="edge19" class="edge">
<title>u9&#45;&gt;u2</title>
<path fill="none" stroke="black" d="M1642.56,-1051.68C1653.53,-1022.8 1673.59,-962.79 1673.59,-910 1673.59,-910 1673.59,-910 1673.59,-746 1673.59,-680.41 1742.03,-633.35 1790.75,-608.16"/>
<polygon fill="black" stroke="black" points="1792.54,-611.18 1799.9,-603.57 1789.39,-604.93 1792.54,-611.18"/>
</g>
<!-- u8 -->
<g id="node62" class="node">
<title>u8</title>
<ellipse fill="#ff3333" stroke="black" cx="2839.59" cy="-1958" rx="129.18" ry="18"/>
<text text-anchor="middle" x="2839.59" y="-1954.3" font-family="Times,serif" font-size="14.00">Language.Drasil.URI.AST</text>
</g>
</g>
</svg>
