<?xml version="1.0" encoding="UTF-8" standalone="no"?>
<!DOCTYPE svg PUBLIC "-//W3C//DTD SVG 1.1//EN"
 "http://www.w3.org/Graphics/SVG/1.1/DTD/svg11.dtd">
<!-- Generated by graphviz version 2.43.0 (0)
 -->
<!-- Title: G Pages: 1 -->
<svg width="431pt" height="288pt"
 viewBox="0.00 0.00 430.93 288.00" xmlns="http://www.w3.org/2000/svg" xmlns:xlink="http://www.w3.org/1999/xlink">
<g id="graph0" class="graph" transform="scale(0.35 0.35) rotate(0) translate(4 814)">
<title>G</title>
<polygon fill="white" stroke="transparent" points="-4,4 -4,-814 1219.97,-814 1219.97,4 -4,4"/>
<!-- u5 -->
<g id="node1" class="node">
<title>u5</title>
<ellipse fill="#bbffbb" stroke="black" cx="616.29" cy="-729" rx="89.08" ry="18"/>
<text text-anchor="middle" x="616.29" y="-725.3" font-family="Times,serif" font-size="14.00">Drasil.Generator</text>
</g>
<!-- u3 -->
<g id="node3" class="node">
<title>u3</title>
<ellipse fill="#ffffbb" stroke="black" cx="157.29" cy="-405" rx="157.07" ry="18"/>
<text text-anchor="middle" x="157.29" y="-401.3" font-family="Times,serif" font-size="14.00">Drasil.Generator.BaseChunkDB</text>
</g>
<!-- u5&#45;&gt;u3 -->
<g id="edge5" class="edge">
<title>u5&#45;&gt;u3</title>
<path fill="none" stroke="black" d="M592.89,-711.59C516.96,-658.32 277.22,-490.14 189.69,-428.73"/>
<polygon fill="black" stroke="black" points="191.66,-425.84 181.46,-422.96 187.64,-431.57 191.66,-425.84"/>
</g>
<!-- u2 -->
<g id="node4" class="node">
<title>u2</title>
<ellipse fill="#ffffbb" stroke="black" cx="466.29" cy="-405" rx="133.78" ry="18"/>
<text text-anchor="middle" x="466.29" y="-401.3" font-family="Times,serif" font-size="14.00">Drasil.Generator.Generate</text>
</g>
<!-- u5&#45;&gt;u2 -->
<g id="edge4" class="edge">
<title>u5&#45;&gt;u2</title>
<path fill="none" stroke="black" d="M608.22,-710.69C583.44,-657.49 508.29,-496.18 478.57,-432.38"/>
<polygon fill="black" stroke="black" points="481.6,-430.59 474.21,-423.01 475.26,-433.55 481.6,-430.59"/>
</g>
<!-- u1 -->
<g id="node5" class="node">
<title>u1</title>
<ellipse fill="#ffffbb" stroke="black" cx="766.29" cy="-405" rx="148.37" ry="18"/>
<text text-anchor="middle" x="766.29" y="-401.3" font-family="Times,serif" font-size="14.00">Drasil.Generator.ChunkDump</text>
</g>
<!-- u5&#45;&gt;u1 -->
<g id="edge3" class="edge">
<title>u5&#45;&gt;u1</title>
<path fill="none" stroke="black" d="M624.35,-710.69C649.13,-657.49 724.28,-496.18 754,-432.38"/>
<polygon fill="black" stroke="black" points="757.31,-433.55 758.36,-423.01 750.97,-430.59 757.31,-433.55"/>
</g>
<!-- u0 -->
<g id="node6" class="node">
<title>u0</title>
<ellipse fill="#ffffbb" stroke="black" cx="1074.29" cy="-405" rx="141.88" ry="18"/>
<text text-anchor="middle" x="1074.29" y="-401.3" font-family="Times,serif" font-size="14.00">Drasil.Generator.TypeCheck</text>
</g>
<!-- u5&#45;&gt;u0 -->
<g id="edge2" class="edge">
<title>u5&#45;&gt;u0</title>
<path fill="none" stroke="black" d="M639.63,-711.59C715.49,-658.26 955.17,-489.74 1042.26,-428.52"/>
<polygon fill="black" stroke="black" points="1044.27,-431.38 1050.44,-422.76 1040.25,-425.65 1044.27,-431.38"/>
</g>
<!-- u4 -->
<g id="node2" class="node">
<title>u4</title>
<ellipse fill="#ffffbb" stroke="black" cx="466.29" cy="-81" rx="129.18" ry="18"/>
<text text-anchor="middle" x="466.29" y="-77.3" font-family="Times,serif" font-size="14.00">Drasil.Generator.Formats</text>
</g>
<!-- u2&#45;&gt;u4 -->
<g id="edge1" class="edge">
<title>u2&#45;&gt;u4</title>
<path fill="none" stroke="black" d="M466.29,-386.69C466.29,-333.71 466.29,-173.5 466.29,-109.17"/>
<polygon fill="black" stroke="black" points="469.79,-109.01 466.29,-99.01 462.79,-109.01 469.79,-109.01"/>
</g>
</g>
</svg>
