<?xml version="1.0" encoding="UTF-8" standalone="no"?>
<!DOCTYPE svg PUBLIC "-//W3C//DTD SVG 1.1//EN"
 "http://www.w3.org/Graphics/SVG/1.1/DTD/svg11.dtd">
<!-- Generated by graphviz version 2.43.0 (0)
 -->
<!-- Title: G Pages: 1 -->
<svg width="432pt" height="282pt"
 viewBox="0.00 0.00 432.00 281.55" xmlns="http://www.w3.org/2000/svg" xmlns:xlink="http://www.w3.org/1999/xlink">
<g id="graph0" class="graph" transform="scale(0.14 0.14) rotate(0) translate(4 1948)">
<title>G</title>
<polygon fill="white" stroke="transparent" points="-4,4 -4,-1948 2991.11,-1948 2991.11,4 -4,4"/>
<!-- u28 -->
<g id="node1" class="node">
<title>u28</title>
<ellipse fill="#bbffbb" stroke="black" cx="1919.11" cy="-1750" rx="69.59" ry="18"/>
<text text-anchor="middle" x="1919.11" y="-1746.3" font-family="Times,serif" font-size="14.00">Drasil.GOOL</text>
</g>
<!-- u17 -->
<g id="node12" class="node">
<title>u17</title>
<ellipse fill="#ffffbb" stroke="black" cx="2812.11" cy="-1283" rx="128.08" ry="18"/>
<text text-anchor="middle" x="2812.11" y="-1279.3" font-family="Times,serif" font-size="14.00">Drasil.GOOL.CodeInfoOO</text>
</g>
<!-- u28&#45;&gt;u17 -->
<g id="edge50" class="edge">
<title>u28&#45;&gt;u17</title>
<path fill="none" stroke="black" d="M1985.89,-1744.79C2198.62,-1730.69 2850.04,-1682.08 2911.11,-1612 2990.42,-1520.99 2881.76,-1368.13 2833.32,-1308.69"/>
<polygon fill="black" stroke="black" points="2835.98,-1306.41 2826.91,-1300.94 2830.58,-1310.88 2835.98,-1306.41"/>
</g>
<!-- u9 -->
<g id="node20" class="node">
<title>u9</title>
<ellipse fill="#bbbbff" stroke="black" cx="2156.11" cy="-1594" rx="230.96" ry="18"/>
<text text-anchor="middle" x="2156.11" y="-1590.3" font-family="Times,serif" font-size="14.00">Drasil.GOOL.LanguageRenderer.SwiftRenderer</text>
</g>
<!-- u28&#45;&gt;u9 -->
<g id="edge49" class="edge">
<title>u28&#45;&gt;u9</title>
<path fill="none" stroke="black" d="M1943.58,-1733.1C1985.89,-1705.61 2072.83,-1649.12 2121.38,-1617.57"/>
<polygon fill="black" stroke="black" points="2123.5,-1620.36 2129.98,-1611.98 2119.69,-1614.5 2123.5,-1620.36"/>
</g>
<!-- u7 -->
<g id="node22" class="node">
<title>u7</title>
<ellipse fill="#bbbbff" stroke="black" cx="1682.11" cy="-1594" rx="225.56" ry="18"/>
<text text-anchor="middle" x="1682.11" y="-1590.3" font-family="Times,serif" font-size="14.00">Drasil.GOOL.LanguageRenderer.JavaRenderer</text>
</g>
<!-- u28&#45;&gt;u7 -->
<g id="edge48" class="edge">
<title>u28&#45;&gt;u7</title>
<path fill="none" stroke="black" d="M1894.64,-1733.1C1852.33,-1705.61 1765.39,-1649.12 1716.84,-1617.57"/>
<polygon fill="black" stroke="black" points="1718.54,-1614.5 1708.24,-1611.98 1714.72,-1620.36 1718.54,-1614.5"/>
</g>
<!-- u5 -->
<g id="node24" class="node">
<title>u5</title>
<ellipse fill="#bbbbff" stroke="black" cx="713.11" cy="-1594" rx="224.76" ry="18"/>
<text text-anchor="middle" x="713.11" y="-1590.3" font-family="Times,serif" font-size="14.00">Drasil.GOOL.LanguageRenderer.CppRenderer</text>
</g>
<!-- u28&#45;&gt;u5 -->
<g id="edge47" class="edge">
<title>u28&#45;&gt;u5</title>
<path fill="none" stroke="black" d="M1858.06,-1741.2C1669.3,-1717.1 1092.41,-1643.43 837.01,-1610.82"/>
<polygon fill="black" stroke="black" points="837.31,-1607.33 826.95,-1609.54 836.42,-1614.27 837.31,-1607.33"/>
</g>
<!-- u4 -->
<g id="node25" class="node">
<title>u4</title>
<ellipse fill="#bbbbff" stroke="black" cx="1197.11" cy="-1594" rx="241.26" ry="18"/>
<text text-anchor="middle" x="1197.11" y="-1590.3" font-family="Times,serif" font-size="14.00">Drasil.GOOL.LanguageRenderer.CSharpRenderer</text>
</g>
<!-- u28&#45;&gt;u4 -->
<g id="edge46" class="edge">
<title>u28&#45;&gt;u4</title>
<path fill="none" stroke="black" d="M1867.19,-1737.92C1744.23,-1711.7 1434.3,-1645.59 1282.95,-1613.31"/>
<polygon fill="black" stroke="black" points="1283.28,-1609.8 1272.77,-1611.14 1281.82,-1616.65 1283.28,-1609.8"/>
</g>
<!-- u3 -->
<g id="node26" class="node">
<title>u3</title>
<ellipse fill="#bbbbff" stroke="black" cx="2644.11" cy="-1594" rx="239.36" ry="18"/>
<text text-anchor="middle" x="2644.11" y="-1590.3" font-family="Times,serif" font-size="14.00">Drasil.GOOL.LanguageRenderer.PythonRenderer</text>
</g>
<!-- u28&#45;&gt;u3 -->
<g id="edge45" class="edge">
<title>u28&#45;&gt;u3</title>
<path fill="none" stroke="black" d="M1970.96,-1737.99C2094.28,-1711.79 2406.09,-1645.56 2558.12,-1613.27"/>
<polygon fill="black" stroke="black" points="2559.29,-1616.6 2568.34,-1611.09 2557.83,-1609.75 2559.29,-1616.6"/>
</g>
<!-- u27 -->
<g id="node2" class="node">
<title>u27</title>
<ellipse fill="#bbffbb" stroke="black" cx="1854.11" cy="-1905" rx="69.59" ry="18"/>
<text text-anchor="middle" x="1854.11" y="-1901.3" font-family="Times,serif" font-size="14.00">Drasil.GProc</text>
</g>
<!-- u24 -->
<g id="node5" class="node">
<title>u24</title>
<ellipse fill="#ffffbb" stroke="black" cx="2785.11" cy="-816" rx="134.58" ry="18"/>
<text text-anchor="middle" x="2785.11" y="-812.3" font-family="Times,serif" font-size="14.00">Drasil.GOOL.CodeInfoProc</text>
</g>
<!-- u27&#45;&gt;u24 -->
<g id="edge44" class="edge">
<title>u27&#45;&gt;u24</title>
<path fill="none" stroke="black" d="M1921.59,-1900.29C2165.51,-1885.05 2987.11,-1817.24 2987.11,-1595 2987.11,-1595 2987.11,-1595 2987.11,-1127 2987.11,-1002.1 2870.58,-888.1 2814.54,-840.49"/>
<polygon fill="black" stroke="black" points="2816.64,-837.69 2806.73,-833.95 2812.15,-843.06 2816.64,-837.69"/>
</g>
<!-- u10 -->
<g id="node19" class="node">
<title>u10</title>
<ellipse fill="#bbbbff" stroke="black" cx="1045.11" cy="-1750" rx="226.66" ry="18"/>
<text text-anchor="middle" x="1045.11" y="-1746.3" font-family="Times,serif" font-size="14.00">Drasil.GOOL.LanguageRenderer.JuliaRenderer</text>
</g>
<!-- u27&#45;&gt;u10 -->
<g id="edge43" class="edge">
<title>u27&#45;&gt;u10</title>
<path fill="none" stroke="black" d="M1799.77,-1893.72C1663.96,-1868.04 1308.44,-1800.8 1138.37,-1768.64"/>
<polygon fill="black" stroke="black" points="1138.9,-1765.18 1128.43,-1766.76 1137.6,-1772.05 1138.9,-1765.18"/>
</g>
<!-- u26 -->
<g id="node3" class="node">
<title>u26</title>
<ellipse fill="#ffffbb" stroke="black" cx="1816.11" cy="-972" rx="161.37" ry="18"/>
<text text-anchor="middle" x="1816.11" y="-968.3" font-family="Times,serif" font-size="14.00">Drasil.GOOL.LanguageRenderer</text>
</g>
<!-- u18 -->
<g id="node11" class="node">
<title>u18</title>
<ellipse fill="#ffffbb" stroke="black" cx="2152.11" cy="-816" rx="165.17" ry="18"/>
<text text-anchor="middle" x="2152.11" y="-812.3" font-family="Times,serif" font-size="14.00">Drasil.GOOL.RendererClassesOO</text>
</g>
<!-- u26&#45;&gt;u18 -->
<g id="edge42" class="edge">
<title>u26&#45;&gt;u18</title>
<path fill="none" stroke="black" d="M1852.39,-954.37C1914.06,-926.11 2039.18,-868.76 2106.61,-837.85"/>
<polygon fill="black" stroke="black" points="2108.1,-841.02 2115.73,-833.67 2105.18,-834.66 2108.1,-841.02"/>
</g>
<!-- u25 -->
<g id="node4" class="node">
<title>u25</title>
<ellipse fill="#ffffbb" stroke="black" cx="713.11" cy="-1439" rx="107.48" ry="18"/>
<text text-anchor="middle" x="713.11" y="-1435.3" font-family="Times,serif" font-size="14.00">Drasil.GOOL.Classes</text>
</g>
<!-- u19 -->
<g id="node10" class="node">
<title>u19</title>
<ellipse fill="#ffffbb" stroke="black" cx="2320.11" cy="-661" rx="135.38" ry="18"/>
<text text-anchor="middle" x="2320.11" y="-657.3" font-family="Times,serif" font-size="14.00">Drasil.GOOL.InterfaceProc</text>
</g>
<!-- u24&#45;&gt;u19 -->
<g id="edge41" class="edge">
<title>u24&#45;&gt;u19</title>
<path fill="none" stroke="black" d="M2736.66,-799.06C2650.48,-770.7 2470.9,-711.62 2378.23,-681.12"/>
<polygon fill="black" stroke="black" points="2379.04,-677.71 2368.45,-677.9 2376.85,-684.36 2379.04,-677.71"/>
</g>
<!-- u15 -->
<g id="node14" class="node">
<title>u15</title>
<ellipse fill="#ffffbb" stroke="black" cx="2648.11" cy="-505" rx="108.58" ry="18"/>
<text text-anchor="middle" x="2648.11" y="-501.3" font-family="Times,serif" font-size="14.00">Drasil.GOOL.Helpers</text>
</g>
<!-- u24&#45;&gt;u15 -->
<g id="edge40" class="edge">
<title>u24&#45;&gt;u15</title>
<path fill="none" stroke="black" d="M2786.47,-797.79C2788.31,-765.83 2789.07,-695.75 2766.11,-643 2746.04,-596.89 2704.89,-554.85 2676.89,-529.83"/>
<polygon fill="black" stroke="black" points="2678.85,-526.89 2669.02,-522.93 2674.24,-532.16 2678.85,-526.89"/>
</g>
<!-- u23 -->
<g id="node6" class="node">
<title>u23</title>
<ellipse fill="#ffffbb" stroke="black" cx="2615.11" cy="-661" rx="141.88" ry="18"/>
<text text-anchor="middle" x="2615.11" y="-657.3" font-family="Times,serif" font-size="14.00">Drasil.GOOL.InterfaceGOOL</text>
</g>
<!-- u20 -->
<g id="node9" class="node">
<title>u20</title>
<ellipse fill="#ffffbb" stroke="black" cx="2320.11" cy="-505" rx="155.17" ry="18"/>
<text text-anchor="middle" x="2320.11" y="-501.3" font-family="Times,serif" font-size="14.00">Drasil.GOOL.InterfaceCommon</text>
</g>
<!-- u23&#45;&gt;u20 -->
<g id="edge39" class="edge">
<title>u23&#45;&gt;u20</title>
<path fill="none" stroke="black" d="M2583.26,-643.37C2529.52,-615.32 2420.89,-558.61 2361.39,-527.55"/>
<polygon fill="black" stroke="black" points="2362.76,-524.32 2352.28,-522.79 2359.52,-530.52 2362.76,-524.32"/>
</g>
<!-- u23&#45;&gt;u15 -->
<g id="edge38" class="edge">
<title>u23&#45;&gt;u15</title>
<path fill="none" stroke="black" d="M2618.77,-642.93C2624.47,-616.34 2635.52,-564.78 2642.31,-533.07"/>
<polygon fill="black" stroke="black" points="2645.76,-533.66 2644.44,-523.15 2638.92,-532.19 2645.76,-533.66"/>
</g>
<!-- u22 -->
<g id="node7" class="node">
<title>u22</title>
<ellipse fill="#ffffbb" stroke="black" cx="1975.11" cy="-661" rx="191.97" ry="18"/>
<text text-anchor="middle" x="1975.11" y="-657.3" font-family="Times,serif" font-size="14.00">Drasil.GOOL.RendererClassesCommon</text>
</g>
<!-- u22&#45;&gt;u20 -->
<g id="edge37" class="edge">
<title>u22&#45;&gt;u20</title>
<path fill="none" stroke="black" d="M2012.69,-643.23C2076.24,-614.86 2204.74,-557.5 2273.77,-526.69"/>
<polygon fill="black" stroke="black" points="2275.4,-529.79 2283.1,-522.52 2272.54,-523.4 2275.4,-529.79"/>
</g>
<!-- u21 -->
<g id="node8" class="node">
<title>u21</title>
<ellipse fill="#ffffbb" stroke="black" cx="2320.11" cy="-350" rx="96.68" ry="18"/>
<text text-anchor="middle" x="2320.11" y="-346.3" font-family="Times,serif" font-size="14.00">Drasil.GOOL.State</text>
</g>
<!-- u16 -->
<g id="node13" class="node">
<title>u16</title>
<ellipse fill="#ffffbb" stroke="black" cx="2286.11" cy="-194" rx="133.78" ry="18"/>
<text text-anchor="middle" x="2286.11" y="-190.3" font-family="Times,serif" font-size="14.00">Drasil.GOOL.CodeAnalysis</text>
</g>
<!-- u21&#45;&gt;u16 -->
<g id="edge36" class="edge">
<title>u21&#45;&gt;u16</title>
<path fill="none" stroke="black" d="M2316.34,-331.93C2310.47,-305.34 2299.09,-253.78 2292.09,-222.07"/>
<polygon fill="black" stroke="black" points="2295.47,-221.16 2289.9,-212.15 2288.64,-222.66 2295.47,-221.16"/>
</g>
<!-- u13 -->
<g id="node16" class="node">
<title>u13</title>
<ellipse fill="#ffffbb" stroke="black" cx="2529.11" cy="-194" rx="90.98" ry="18"/>
<text text-anchor="middle" x="2529.11" y="-190.3" font-family="Times,serif" font-size="14.00">Drasil.GOOL.AST</text>
</g>
<!-- u21&#45;&gt;u13 -->
<g id="edge35" class="edge">
<title>u21&#45;&gt;u13</title>
<path fill="none" stroke="black" d="M2342.88,-332.23C2380.59,-304.44 2456.05,-248.83 2498.43,-217.61"/>
<polygon fill="black" stroke="black" points="2500.72,-220.27 2506.69,-211.52 2496.56,-214.63 2500.72,-220.27"/>
</g>
<!-- u20&#45;&gt;u21 -->
<g id="edge34" class="edge">
<title>u20&#45;&gt;u21</title>
<path fill="none" stroke="black" d="M2320.11,-486.75C2320.11,-460.46 2320.11,-410.13 2320.11,-378.69"/>
<polygon fill="black" stroke="black" points="2323.61,-378.43 2320.11,-368.43 2316.61,-378.43 2323.61,-378.43"/>
</g>
<!-- u19&#45;&gt;u20 -->
<g id="edge33" class="edge">
<title>u19&#45;&gt;u20</title>
<path fill="none" stroke="black" d="M2320.11,-642.93C2320.11,-616.45 2320.11,-565.22 2320.11,-533.49"/>
<polygon fill="black" stroke="black" points="2323.61,-533.15 2320.11,-523.15 2316.61,-533.15 2323.61,-533.15"/>
</g>
<!-- u18&#45;&gt;u23 -->
<g id="edge32" class="edge">
<title>u18&#45;&gt;u23</title>
<path fill="none" stroke="black" d="M2201.22,-798.77C2287.34,-770.31 2465.15,-711.56 2557.15,-681.15"/>
<polygon fill="black" stroke="black" points="2558.45,-684.41 2566.85,-677.95 2556.26,-677.76 2558.45,-684.41"/>
</g>
<!-- u18&#45;&gt;u22 -->
<g id="edge31" class="edge">
<title>u18&#45;&gt;u22</title>
<path fill="none" stroke="black" d="M2132.49,-798.04C2100.86,-770.7 2038.51,-716.8 2002.51,-685.68"/>
<polygon fill="black" stroke="black" points="2004.67,-682.93 1994.82,-679.03 2000.09,-688.22 2004.67,-682.93"/>
</g>
<!-- u17&#45;&gt;u23 -->
<g id="edge30" class="edge">
<title>u17&#45;&gt;u23</title>
<path fill="none" stroke="black" d="M2804.05,-1264.94C2776.73,-1206.36 2686.77,-1007.5 2641.11,-834 2627.93,-783.93 2620.75,-723.78 2617.43,-689.51"/>
<polygon fill="black" stroke="black" points="2620.9,-688.97 2616.49,-679.34 2613.93,-689.62 2620.9,-688.97"/>
</g>
<!-- u14 -->
<g id="node15" class="node">
<title>u14</title>
<ellipse fill="#ffffbb" stroke="black" cx="2588.11" cy="-39" rx="118.08" ry="18"/>
<text text-anchor="middle" x="2588.11" y="-35.3" font-family="Times,serif" font-size="14.00">Drasil.GOOL.CodeType</text>
</g>
<!-- u15&#45;&gt;u14 -->
<g id="edge29" class="edge">
<title>u15&#45;&gt;u14</title>
<path fill="none" stroke="black" d="M2648.53,-486.76C2649.41,-437.72 2649.91,-293.39 2629.11,-176 2622.25,-137.24 2608,-93.95 2598.25,-66.84"/>
<polygon fill="black" stroke="black" points="2601.48,-65.48 2594.76,-57.29 2594.91,-67.88 2601.48,-65.48"/>
</g>
<!-- u13&#45;&gt;u14 -->
<g id="edge28" class="edge">
<title>u13&#45;&gt;u14</title>
<path fill="none" stroke="black" d="M2535.65,-176.04C2545.88,-149.5 2565.77,-97.95 2577.9,-66.49"/>
<polygon fill="black" stroke="black" points="2581.21,-67.62 2581.54,-57.03 2574.68,-65.11 2581.21,-67.62"/>
</g>
<!-- u12 -->
<g id="node17" class="node">
<title>u12</title>
<ellipse fill="#ffffbb" stroke="black" cx="1797.11" cy="-816" rx="171.67" ry="18"/>
<text text-anchor="middle" x="1797.11" y="-812.3" font-family="Times,serif" font-size="14.00">Drasil.GOOL.RendererClassesProc</text>
</g>
<!-- u12&#45;&gt;u22 -->
<g id="edge27" class="edge">
<title>u12&#45;&gt;u22</title>
<path fill="none" stroke="black" d="M1816.84,-798.04C1848.65,-770.7 1911.36,-716.8 1947.56,-685.68"/>
<polygon fill="black" stroke="black" points="1949.99,-688.21 1955.29,-679.03 1945.43,-682.9 1949.99,-688.21"/>
</g>
<!-- u12&#45;&gt;u19 -->
<g id="edge26" class="edge">
<title>u12&#45;&gt;u19</title>
<path fill="none" stroke="black" d="M1852.09,-798.92C1949.91,-770.3 2153.57,-710.72 2256.96,-680.47"/>
<polygon fill="black" stroke="black" points="2258.03,-683.81 2266.65,-677.64 2256.07,-677.09 2258.03,-683.81"/>
</g>
<!-- u11 -->
<g id="node18" class="node">
<title>u11</title>
<ellipse fill="#bbbbff" stroke="black" cx="1676.11" cy="-1283" rx="265.65" ry="18"/>
<text text-anchor="middle" x="1676.11" y="-1279.3" font-family="Times,serif" font-size="14.00">Drasil.GOOL.LanguageRenderer.LanguagePolymorphic</text>
</g>
<!-- u6 -->
<g id="node23" class="node">
<title>u6</title>
<ellipse fill="#bbbbff" stroke="black" cx="1676.11" cy="-1128" rx="223.66" ry="18"/>
<text text-anchor="middle" x="1676.11" y="-1124.3" font-family="Times,serif" font-size="14.00">Drasil.GOOL.LanguageRenderer.Constructors</text>
</g>
<!-- u11&#45;&gt;u6 -->
<g id="edge25" class="edge">
<title>u11&#45;&gt;u6</title>
<path fill="none" stroke="black" d="M1676.11,-1264.75C1676.11,-1238.46 1676.11,-1188.13 1676.11,-1156.69"/>
<polygon fill="black" stroke="black" points="1679.61,-1156.43 1676.11,-1146.43 1672.61,-1156.43 1679.61,-1156.43"/>
</g>
<!-- u8 -->
<g id="node21" class="node">
<title>u8</title>
<ellipse fill="#bbbbff" stroke="black" cx="1204.11" cy="-1439" rx="189.27" ry="18"/>
<text text-anchor="middle" x="1204.11" y="-1435.3" font-family="Times,serif" font-size="14.00">Drasil.GOOL.LanguageRenderer.CLike</text>
</g>
<!-- u10&#45;&gt;u8 -->
<g id="edge24" class="edge">
<title>u10&#45;&gt;u8</title>
<path fill="none" stroke="black" d="M825.74,-1745.38C490.93,-1735.86 -97.7,-1701.31 14.11,-1576 80.15,-1501.99 708.8,-1462.75 1024.73,-1447.57"/>
<polygon fill="black" stroke="black" points="1025.08,-1451.06 1034.91,-1447.08 1024.75,-1444.06 1025.08,-1451.06"/>
</g>
<!-- u2 -->
<g id="node27" class="node">
<title>u2</title>
<ellipse fill="#bbbbff" stroke="black" cx="247.11" cy="-1594" rx="223.66" ry="18"/>
<text text-anchor="middle" x="247.11" y="-1590.3" font-family="Times,serif" font-size="14.00">Drasil.GOOL.LanguageRenderer.AbstractProc</text>
</g>
<!-- u10&#45;&gt;u2 -->
<g id="edge23" class="edge">
<title>u10&#45;&gt;u2</title>
<path fill="none" stroke="black" d="M963.09,-1733.17C813.16,-1704.24 495.87,-1643.01 338.95,-1612.72"/>
<polygon fill="black" stroke="black" points="339.33,-1609.23 328.85,-1610.77 338.01,-1616.11 339.33,-1609.23"/>
</g>
<!-- u1 -->
<g id="node28" class="node">
<title>u1</title>
<ellipse fill="#bbbbff" stroke="black" cx="2152.11" cy="-1439" rx="196.87" ry="18"/>
<text text-anchor="middle" x="2152.11" y="-1435.3" font-family="Times,serif" font-size="14.00">Drasil.GOOL.LanguageRenderer.Macros</text>
</g>
<!-- u10&#45;&gt;u1 -->
<g id="edge22" class="edge">
<title>u10&#45;&gt;u1</title>
<path fill="none" stroke="black" d="M1244.84,-1741.42C1711.2,-1722.74 2836.68,-1671.7 2892.11,-1612 2975.06,-1522.67 2552.42,-1472.67 2311.06,-1451.77"/>
<polygon fill="black" stroke="black" points="2311.04,-1448.26 2300.78,-1450.89 2310.44,-1455.23 2311.04,-1448.26"/>
</g>
<!-- u9&#45;&gt;u8 -->
<g id="edge21" class="edge">
<title>u9&#45;&gt;u8</title>
<path fill="none" stroke="black" d="M2060.03,-1577.56C1879.47,-1548.54 1491.06,-1486.12 1306.08,-1456.39"/>
<polygon fill="black" stroke="black" points="1306.5,-1452.91 1296.08,-1454.78 1305.39,-1459.82 1306.5,-1452.91"/>
</g>
<!-- u9&#45;&gt;u1 -->
<g id="edge20" class="edge">
<title>u9&#45;&gt;u1</title>
<path fill="none" stroke="black" d="M2155.66,-1575.75C2154.97,-1549.46 2153.66,-1499.13 2152.84,-1467.69"/>
<polygon fill="black" stroke="black" points="2156.33,-1467.33 2152.57,-1457.43 2149.33,-1467.51 2156.33,-1467.33"/>
</g>
<!-- u0 -->
<g id="node29" class="node">
<title>u0</title>
<ellipse fill="#bbbbff" stroke="black" cx="1676.11" cy="-1439" rx="251.56" ry="18"/>
<text text-anchor="middle" x="1676.11" y="-1435.3" font-family="Times,serif" font-size="14.00">Drasil.GOOL.LanguageRenderer.CommonPseudoOO</text>
</g>
<!-- u9&#45;&gt;u0 -->
<g id="edge19" class="edge">
<title>u9&#45;&gt;u0</title>
<path fill="none" stroke="black" d="M2103.83,-1576.34C2014.65,-1547.91 1833.55,-1490.18 1738.13,-1459.77"/>
<polygon fill="black" stroke="black" points="1738.92,-1456.35 1728.33,-1456.64 1736.79,-1463.02 1738.92,-1456.35"/>
</g>
<!-- u8&#45;&gt;u6 -->
<g id="edge18" class="edge">
<title>u8&#45;&gt;u6</title>
<path fill="none" stroke="black" d="M1220.52,-1420.86C1252.82,-1387.76 1327.92,-1314 1401.11,-1265 1474.12,-1216.12 1567.22,-1173.77 1624.21,-1149.82"/>
<polygon fill="black" stroke="black" points="1625.84,-1152.93 1633.73,-1145.85 1623.15,-1146.47 1625.84,-1152.93"/>
</g>
<!-- u7&#45;&gt;u8 -->
<g id="edge17" class="edge">
<title>u7&#45;&gt;u8</title>
<path fill="none" stroke="black" d="M1630.05,-1576.34C1541.01,-1547.84 1359.94,-1489.88 1265.12,-1459.53"/>
<polygon fill="black" stroke="black" points="1265.98,-1456.13 1255.39,-1456.41 1263.85,-1462.79 1265.98,-1456.13"/>
</g>
<!-- u7&#45;&gt;u1 -->
<g id="edge16" class="edge">
<title>u7&#45;&gt;u1</title>
<path fill="none" stroke="black" d="M1733.3,-1576.34C1820.85,-1547.84 1998.89,-1489.88 2092.12,-1459.53"/>
<polygon fill="black" stroke="black" points="2093.27,-1462.84 2101.69,-1456.41 2091.1,-1456.18 2093.27,-1462.84"/>
</g>
<!-- u7&#45;&gt;u0 -->
<g id="edge15" class="edge">
<title>u7&#45;&gt;u0</title>
<path fill="none" stroke="black" d="M1681.43,-1575.75C1680.4,-1549.46 1678.43,-1499.13 1677.2,-1467.69"/>
<polygon fill="black" stroke="black" points="1680.68,-1467.28 1676.79,-1457.43 1673.69,-1467.55 1680.68,-1467.28"/>
</g>
<!-- u6&#45;&gt;u26 -->
<g id="edge14" class="edge">
<title>u6&#45;&gt;u26</title>
<path fill="none" stroke="black" d="M1691.63,-1109.93C1716.44,-1082.64 1765.14,-1029.07 1793.72,-997.63"/>
<polygon fill="black" stroke="black" points="1796.39,-999.9 1800.52,-990.15 1791.21,-995.19 1796.39,-999.9"/>
</g>
<!-- u5&#45;&gt;u25 -->
<g id="edge13" class="edge">
<title>u5&#45;&gt;u25</title>
<path fill="none" stroke="black" d="M713.11,-1575.75C713.11,-1549.46 713.11,-1499.13 713.11,-1467.69"/>
<polygon fill="black" stroke="black" points="716.61,-1467.43 713.11,-1457.43 709.61,-1467.43 716.61,-1467.43"/>
</g>
<!-- u5&#45;&gt;u8 -->
<g id="edge12" class="edge">
<title>u5&#45;&gt;u8</title>
<path fill="none" stroke="black" d="M766.12,-1576.48C857.58,-1547.98 1044.56,-1489.72 1141.98,-1459.36"/>
<polygon fill="black" stroke="black" points="1143.19,-1462.65 1151.69,-1456.33 1141.1,-1455.97 1143.19,-1462.65"/>
</g>
<!-- u5&#45;&gt;u1 -->
<g id="edge11" class="edge">
<title>u5&#45;&gt;u1</title>
<path fill="none" stroke="black" d="M842.4,-1579.25C1114.48,-1550.32 1743.77,-1483.42 2019.09,-1454.14"/>
<polygon fill="black" stroke="black" points="2019.56,-1457.61 2029.13,-1453.08 2018.82,-1450.65 2019.56,-1457.61"/>
</g>
<!-- u5&#45;&gt;u0 -->
<g id="edge10" class="edge">
<title>u5&#45;&gt;u0</title>
<path fill="none" stroke="black" d="M809.41,-1577.7C990.05,-1549 1378.55,-1487.28 1567.91,-1457.19"/>
<polygon fill="black" stroke="black" points="1568.56,-1460.63 1577.89,-1455.61 1567.46,-1453.72 1568.56,-1460.63"/>
</g>
<!-- u4&#45;&gt;u8 -->
<g id="edge9" class="edge">
<title>u4&#45;&gt;u8</title>
<path fill="none" stroke="black" d="M1197.9,-1575.75C1199.1,-1549.46 1201.41,-1499.13 1202.84,-1467.69"/>
<polygon fill="black" stroke="black" points="1206.35,-1467.57 1203.31,-1457.43 1199.36,-1467.25 1206.35,-1467.57"/>
</g>
<!-- u4&#45;&gt;u1 -->
<g id="edge8" class="edge">
<title>u4&#45;&gt;u1</title>
<path fill="none" stroke="black" d="M1293.94,-1577.49C1475.07,-1548.47 1863.58,-1486.23 2049.22,-1456.48"/>
<polygon fill="black" stroke="black" points="2049.94,-1459.91 2059.26,-1454.88 2048.84,-1453 2049.94,-1459.91"/>
</g>
<!-- u4&#45;&gt;u0 -->
<g id="edge7" class="edge">
<title>u4&#45;&gt;u0</title>
<path fill="none" stroke="black" d="M1249.28,-1576.34C1338.28,-1547.91 1519,-1490.18 1614.22,-1459.77"/>
<polygon fill="black" stroke="black" points="1615.54,-1463.02 1624,-1456.64 1613.41,-1456.35 1615.54,-1463.02"/>
</g>
<!-- u3&#45;&gt;u1 -->
<g id="edge6" class="edge">
<title>u3&#45;&gt;u1</title>
<path fill="none" stroke="black" d="M2590.52,-1576.34C2498.78,-1547.81 2312.13,-1489.76 2214.61,-1459.44"/>
<polygon fill="black" stroke="black" points="2215.48,-1456.04 2204.89,-1456.41 2213.4,-1462.72 2215.48,-1456.04"/>
</g>
<!-- u3&#45;&gt;u0 -->
<g id="edge5" class="edge">
<title>u3&#45;&gt;u0</title>
<path fill="none" stroke="black" d="M2546.42,-1577.56C2364.38,-1548.79 1974.57,-1487.17 1784.63,-1457.15"/>
<polygon fill="black" stroke="black" points="1785.05,-1453.68 1774.63,-1455.57 1783.96,-1460.59 1785.05,-1453.68"/>
</g>
<!-- u2&#45;&gt;u12 -->
<g id="edge4" class="edge">
<title>u2&#45;&gt;u12</title>
<path fill="none" stroke="black" d="M264.25,-1575.96C306.66,-1531.89 413.11,-1408.84 413.11,-1284 413.11,-1284 413.11,-1284 413.11,-1127 413.11,-882.69 1244.72,-830.87 1618.68,-819.92"/>
<polygon fill="black" stroke="black" points="1618.89,-823.41 1628.79,-819.63 1618.69,-816.41 1618.89,-823.41"/>
</g>
<!-- u2&#45;&gt;u0 -->
<g id="edge3" class="edge">
<title>u2&#45;&gt;u0</title>
<path fill="none" stroke="black" d="M375.5,-1579.25C641.97,-1550.72 1253.45,-1485.25 1532.51,-1455.38"/>
<polygon fill="black" stroke="black" points="1533.13,-1458.83 1542.7,-1454.28 1532.39,-1451.87 1533.13,-1458.83"/>
</g>
<!-- u1&#45;&gt;u18 -->
<g id="edge2" class="edge">
<title>u1&#45;&gt;u18</title>
<path fill="none" stroke="black" d="M2152.11,-1420.74C2152.11,-1334.56 2152.11,-950.74 2152.11,-844.4"/>
<polygon fill="black" stroke="black" points="2155.61,-844.17 2152.11,-834.17 2148.61,-844.17 2155.61,-844.17"/>
</g>
<!-- u0&#45;&gt;u11 -->
<g id="edge1" class="edge">
<title>u0&#45;&gt;u11</title>
<path fill="none" stroke="black" d="M1676.11,-1420.93C1676.11,-1394.45 1676.11,-1343.22 1676.11,-1311.49"/>
<polygon fill="black" stroke="black" points="1679.61,-1311.15 1676.11,-1301.15 1672.61,-1311.15 1679.61,-1311.15"/>
</g>
</g>
</svg>
