<?xml version="1.0" encoding="UTF-8" standalone="no"?>
<!DOCTYPE svg PUBLIC "-//W3C//DTD SVG 1.1//EN"
 "http://www.w3.org/Graphics/SVG/1.1/DTD/svg11.dtd">
<!-- Generated by graphviz version 2.43.0 (0)
 -->
<!-- Title: G Pages: 1 -->
<svg width="432pt" height="287pt"
 viewBox="0.00 0.00 432.00 286.61" xmlns="http://www.w3.org/2000/svg" xmlns:xlink="http://www.w3.org/1999/xlink">
<g id="graph0" class="graph" transform="scale(14.69 14.69) rotate(0) translate(4 4206.67)">
<title>G</title>
<polygon fill="white" stroke="transparent" points="-4,4 -4,-4206.67 6342.7,-4206.67 6342.7,4 -4,4"/>
<!-- u58 -->
<g id="node1" class="node">
<title>u58</title>
<ellipse fill="#bbffbb" stroke="black" cx="2244.22" cy="-3864" rx="76.09" ry="18"/>
<text text-anchor="middle" x="2244.22" y="-3860.3" font-family="Times,serif" font-size="14.00">NameGenTest</text>
</g>
<!-- u57 -->
<g id="node2" class="node">
<title>u57</title>
<ellipse fill="#bbffbb" stroke="black" cx="2400.22" cy="-3593" rx="42.49" ry="18"/>
<text text-anchor="middle" x="2400.22" y="-3589.3" font-family="Times,serif" font-size="14.00">Helper</text>
</g>
<!-- u56 -->
<g id="node3" class="node">
<title>u56</title>
<ellipse fill="#bbffbb" stroke="black" cx="2400.22" cy="-3864" rx="62.29" ry="18"/>
<text text-anchor="middle" x="2400.22" y="-3860.3" font-family="Times,serif" font-size="14.00">HelloWorld</text>
</g>
<!-- u56&#45;&gt;u57 -->
<g id="edge92" class="edge">
<title>u56&#45;&gt;u57</title>
<path fill="none" stroke="black" d="M2400.22,-3845.76C2400.22,-3800.21 2400.22,-3676.36 2400.22,-3621.17"/>
<polygon fill="black" stroke="black" points="2403.72,-3621.09 2400.22,-3611.09 2396.72,-3621.09 2403.72,-3621.09"/>
</g>
<!-- u55 -->
<g id="node4" class="node">
<title>u55</title>
<ellipse fill="#bbffbb" stroke="black" cx="1811.22" cy="-3864" rx="52.79" ry="18"/>
<text text-anchor="middle" x="1811.22" y="-3860.3" font-family="Times,serif" font-size="14.00">FileTests</text>
</g>
<!-- u54 -->
<g id="node5" class="node">
<title>u54</title>
<ellipse fill="#bbffbb" stroke="black" cx="1947.22" cy="-3593" rx="53.89" ry="18"/>
<text text-anchor="middle" x="1947.22" y="-3589.3" font-family="Times,serif" font-size="14.00">Observer</text>
</g>
<!-- u53 -->
<g id="node6" class="node">
<title>u53</title>
<ellipse fill="#bbffbb" stroke="black" cx="1947.22" cy="-3864" rx="64.99" ry="18"/>
<text text-anchor="middle" x="1947.22" y="-3860.3" font-family="Times,serif" font-size="14.00">PatternTest</text>
</g>
<!-- u53&#45;&gt;u54 -->
<g id="edge91" class="edge">
<title>u53&#45;&gt;u54</title>
<path fill="none" stroke="black" d="M1947.22,-3845.76C1947.22,-3800.21 1947.22,-3676.36 1947.22,-3621.17"/>
<polygon fill="black" stroke="black" points="1950.72,-3621.09 1947.22,-3611.09 1943.72,-3621.09 1950.72,-3621.09"/>
</g>
<!-- u52 -->
<g id="node7" class="node">
<title>u52</title>
<ellipse fill="#bbffbb" stroke="black" cx="2090.22" cy="-3864" rx="59.59" ry="18"/>
<text text-anchor="middle" x="2090.22" y="-3860.3" font-family="Times,serif" font-size="14.00">VectorTest</text>
</g>
<!-- u50 -->
<g id="node8" class="node">
<title>u50</title>
<ellipse fill="#ffffbb" stroke="black" cx="2593.22" cy="-4135" rx="214.46" ry="18"/>
<text text-anchor="middle" x="2593.22" y="-4131.3" font-family="Times,serif" font-size="14.00">Data.Drasil.ExternalLibraries.ODELibraries</text>
</g>
<!-- u38 -->
<g id="node12" class="node">
<title>u38</title>
<ellipse fill="#bbbbff" stroke="black" cx="2593.22" cy="-3864" rx="113.18" ry="18"/>
<text text-anchor="middle" x="2593.22" y="-3860.3" font-family="Times,serif" font-size="14.00">Language.Drasil.Code</text>
</g>
<!-- u50&#45;&gt;u38 -->
<g id="edge84" class="edge">
<title>u50&#45;&gt;u38</title>
<path fill="none" stroke="black" d="M2593.22,-4116.76C2593.22,-4071.21 2593.22,-3947.36 2593.22,-3892.17"/>
<polygon fill="black" stroke="black" points="2596.72,-3892.09 2593.22,-3882.09 2589.72,-3892.09 2596.72,-3892.09"/>
</g>
<!-- u49 -->
<g id="node9" class="node">
<title>u49</title>
<ellipse fill="#bbbbff" stroke="black" cx="4321.22" cy="-881" rx="110.48" ry="18"/>
<text text-anchor="middle" x="4321.22" y="-877.3" font-family="Times,serif" font-size="14.00">Language.Drasil.Mod</text>
</g>
<!-- u41 -->
<g id="node17" class="node">
<title>u41</title>
<ellipse fill="#ffbbbb" stroke="black" cx="3972.22" cy="-610" rx="170.87" ry="18"/>
<text text-anchor="middle" x="3972.22" y="-606.3" font-family="Times,serif" font-size="14.00">Language.Drasil.Chunk.Parameter</text>
</g>
<!-- u49&#45;&gt;u41 -->
<g id="edge83" class="edge">
<title>u49&#45;&gt;u41</title>
<path fill="none" stroke="black" d="M4299.39,-863.17C4239.43,-816.96 4072.08,-687.97 4002.82,-634.59"/>
<polygon fill="black" stroke="black" points="4004.55,-631.5 3994.49,-628.17 4000.28,-637.04 4004.55,-631.5"/>
</g>
<!-- u34 -->
<g id="node22" class="node">
<title>u34</title>
<ellipse fill="#bbffff" stroke="black" cx="4321.22" cy="-610" rx="160.57" ry="18"/>
<text text-anchor="middle" x="4321.22" y="-606.3" font-family="Times,serif" font-size="14.00">Language.Drasil.Code.DataDesc</text>
</g>
<!-- u49&#45;&gt;u34 -->
<g id="edge82" class="edge">
<title>u49&#45;&gt;u34</title>
<path fill="none" stroke="black" d="M4321.22,-862.76C4321.22,-817.21 4321.22,-693.36 4321.22,-638.17"/>
<polygon fill="black" stroke="black" points="4324.72,-638.09 4321.22,-628.09 4317.72,-638.09 4324.72,-638.09"/>
</g>
<!-- u46 -->
<g id="node10" class="node">
<title>u46</title>
<ellipse fill="#bbbbff" stroke="black" cx="4786.22" cy="-1966" rx="135.68" ry="18"/>
<text text-anchor="middle" x="4786.22" y="-1962.3" font-family="Times,serif" font-size="14.00">Language.Drasil.CodeSpec</text>
</g>
<!-- u39 -->
<g id="node11" class="node">
<title>u39</title>
<ellipse fill="#bbbbff" stroke="black" cx="3911.22" cy="-1695" rx="126.18" ry="18"/>
<text text-anchor="middle" x="3911.22" y="-1691.3" font-family="Times,serif" font-size="14.00">Language.Drasil.Choices</text>
</g>
<!-- u46&#45;&gt;u39 -->
<g id="edge74" class="edge">
<title>u46&#45;&gt;u39</title>
<path fill="none" stroke="black" d="M4735.07,-1949.28C4583.17,-1902.58 4135.15,-1764.84 3971.74,-1714.61"/>
<polygon fill="black" stroke="black" points="3972.44,-1711.16 3961.86,-1711.57 3970.39,-1717.85 3972.44,-1711.16"/>
</g>
<!-- u42 -->
<g id="node16" class="node">
<title>u42</title>
<ellipse fill="#ffbbbb" stroke="black" cx="4804.22" cy="-1695" rx="192.27" ry="18"/>
<text text-anchor="middle" x="4804.22" y="-1691.3" font-family="Times,serif" font-size="14.00">Language.Drasil.Chunk.ConstraintMap</text>
</g>
<!-- u46&#45;&gt;u42 -->
<g id="edge76" class="edge">
<title>u46&#45;&gt;u42</title>
<path fill="none" stroke="black" d="M4787.37,-1947.76C4790.42,-1902.21 4798.71,-1778.36 4802.4,-1723.17"/>
<polygon fill="black" stroke="black" points="4805.9,-1723.3 4803.07,-1713.09 4798.91,-1722.84 4805.9,-1723.3"/>
</g>
<!-- u40 -->
<g id="node18" class="node">
<title>u40</title>
<ellipse fill="#ffbbbb" stroke="black" cx="4403.22" cy="-1695" rx="191.17" ry="18"/>
<text text-anchor="middle" x="4403.22" y="-1691.3" font-family="Times,serif" font-size="14.00">Language.Drasil.Chunk.CodeDefinition</text>
</g>
<!-- u46&#45;&gt;u40 -->
<g id="edge75" class="edge">
<title>u46&#45;&gt;u40</title>
<path fill="none" stroke="black" d="M4762.26,-1948.17C4696.19,-1901.77 4511.31,-1771.91 4435.88,-1718.94"/>
<polygon fill="black" stroke="black" points="4437.86,-1716.05 4427.66,-1713.17 4433.83,-1721.78 4437.86,-1716.05"/>
</g>
<!-- u33 -->
<g id="node23" class="node">
<title>u33</title>
<ellipse fill="#bbffff" stroke="black" cx="3234.22" cy="-1423" rx="139.98" ry="18"/>
<text text-anchor="middle" x="3234.22" y="-1419.3" font-family="Times,serif" font-size="14.00">Language.Drasil.Code.Code</text>
</g>
<!-- u39&#45;&gt;u33 -->
<g id="edge69" class="edge">
<title>u39&#45;&gt;u33</title>
<path fill="none" stroke="black" d="M3870.9,-1677.92C3753.82,-1631.23 3414,-1495.7 3284.84,-1444.19"/>
<polygon fill="black" stroke="black" points="3285.77,-1440.79 3275.19,-1440.34 3283.18,-1447.29 3285.77,-1440.79"/>
</g>
<!-- u47 -->
<g id="node58" class="node">
<title>u47</title>
<ellipse fill="#ff77ff" stroke="black" cx="3973.22" cy="-1423" rx="172.77" ry="18"/>
<text text-anchor="middle" x="3973.22" y="-1419.3" font-family="Times,serif" font-size="14.00">Language.Drasil.Data.ODELibPckg</text>
</g>
<!-- u39&#45;&gt;u47 -->
<g id="edge70" class="edge">
<title>u39&#45;&gt;u47</title>
<path fill="none" stroke="black" d="M3915.19,-1676.7C3925.71,-1630.88 3954.35,-1506.15 3967.04,-1450.93"/>
<polygon fill="black" stroke="black" points="3970.45,-1451.69 3969.28,-1441.16 3963.63,-1450.12 3970.45,-1451.69"/>
</g>
<!-- u5 -->
<g id="node38" class="node">
<title>u5</title>
<ellipse fill="#ffbbff" stroke="black" cx="5951.22" cy="-2237" rx="217.96" ry="18"/>
<text text-anchor="middle" x="5951.22" y="-2233.3" font-family="Times,serif" font-size="14.00">Language.Drasil.Code.Imperative.ReadInput</text>
</g>
<!-- u38&#45;&gt;u5 -->
<g id="edge63" class="edge">
<title>u38&#45;&gt;u5</title>
<path fill="none" stroke="black" d="M2702.01,-3859.05C3317.76,-3835.31 6338.22,-3699.58 6338.22,-3322 6338.22,-3322 6338.22,-3322 6338.22,-2778 6338.22,-2647.07 6345.95,-2600.82 6276.22,-2490 6205.8,-2378.09 6067.2,-2296.22 5995.9,-2259.49"/>
<polygon fill="black" stroke="black" points="5997.22,-2256.23 5986.72,-2254.82 5994.04,-2262.47 5997.22,-2256.23"/>
</g>
<!-- u0 -->
<g id="node43" class="node">
<title>u0</title>
<ellipse fill="#ffbbff" stroke="black" cx="4123.22" cy="-3593" rx="217.16" ry="18"/>
<text text-anchor="middle" x="4123.22" y="-3589.3" font-family="Times,serif" font-size="14.00">Language.Drasil.Code.Imperative.Generator</text>
</g>
<!-- u38&#45;&gt;u0 -->
<g id="edge62" class="edge">
<title>u38&#45;&gt;u0</title>
<path fill="none" stroke="black" d="M2665.98,-3850.21C2916.01,-3806.25 3740.15,-3661.35 4025.19,-3611.23"/>
<polygon fill="black" stroke="black" points="4025.86,-3614.67 4035.1,-3609.49 4024.65,-3607.78 4025.86,-3614.67"/>
</g>
<!-- u16 -->
<g id="node50" class="node">
<title>u16</title>
<ellipse fill="#ff7777" stroke="black" cx="1093.22" cy="-3321" rx="367.43" ry="18"/>
<text text-anchor="middle" x="1093.22" y="-3317.3" font-family="Times,serif" font-size="14.00">Language.Drasil.Code.Imperative.GOOL.LanguageRenderer.PythonRenderer</text>
</g>
<!-- u38&#45;&gt;u16 -->
<g id="edge68" class="edge">
<title>u38&#45;&gt;u16</title>
<path fill="none" stroke="black" d="M2592.56,-3845.78C2589.66,-3795.39 2573.88,-3647.2 2488.22,-3575 2315.2,-3429.18 1671.16,-3362.32 1321.91,-3336.21"/>
<polygon fill="black" stroke="black" points="1322.15,-3332.72 1311.92,-3335.47 1321.63,-3339.7 1322.15,-3332.72"/>
</g>
<!-- u14 -->
<g id="node52" class="node">
<title>u14</title>
<ellipse fill="#ff7777" stroke="black" cx="1847.22" cy="-3321" rx="369.33" ry="18"/>
<text text-anchor="middle" x="1847.22" y="-3317.3" font-family="Times,serif" font-size="14.00">Language.Drasil.Code.Imperative.GOOL.LanguageRenderer.CSharpRenderer</text>
</g>
<!-- u38&#45;&gt;u14 -->
<g id="edge67" class="edge">
<title>u38&#45;&gt;u14</title>
<path fill="none" stroke="black" d="M2594.56,-3845.95C2597.43,-3797.24 2598.91,-3655.84 2528.22,-3575 2397.12,-3425.08 2168.64,-3363.85 2012.8,-3338.94"/>
<polygon fill="black" stroke="black" points="2013.07,-3335.43 2002.65,-3337.35 2011.99,-3342.35 2013.07,-3335.43"/>
</g>
<!-- u13 -->
<g id="node53" class="node">
<title>u13</title>
<ellipse fill="#ff7777" stroke="black" cx="2593.22" cy="-3321" rx="358.54" ry="18"/>
<text text-anchor="middle" x="2593.22" y="-3317.3" font-family="Times,serif" font-size="14.00">Language.Drasil.Code.Imperative.GOOL.LanguageRenderer.SwiftRenderer</text>
</g>
<!-- u38&#45;&gt;u13 -->
<g id="edge66" class="edge">
<title>u38&#45;&gt;u13</title>
<path fill="none" stroke="black" d="M2593.22,-3845.92C2593.22,-3767.92 2593.22,-3445.33 2593.22,-3349.17"/>
<polygon fill="black" stroke="black" points="2596.72,-3349.09 2593.22,-3339.09 2589.72,-3349.09 2596.72,-3349.09"/>
</g>
<!-- u12 -->
<g id="node54" class="node">
<title>u12</title>
<ellipse fill="#ff7777" stroke="black" cx="3323.22" cy="-3321" rx="352.84" ry="18"/>
<text text-anchor="middle" x="3323.22" y="-3317.3" font-family="Times,serif" font-size="14.00">Language.Drasil.Code.Imperative.GOOL.LanguageRenderer.CppRenderer</text>
</g>
<!-- u38&#45;&gt;u12 -->
<g id="edge65" class="edge">
<title>u38&#45;&gt;u12</title>
<path fill="none" stroke="black" d="M2615.87,-3846.22C2721.86,-3767.67 3168.92,-3436.35 3291.83,-3345.26"/>
<polygon fill="black" stroke="black" points="3294.16,-3347.89 3300.11,-3339.12 3289.99,-3342.27 3294.16,-3347.89"/>
</g>
<!-- u11 -->
<g id="node55" class="node">
<title>u11</title>
<ellipse fill="#ff7777" stroke="black" cx="354.22" cy="-3321" rx="354.44" ry="18"/>
<text text-anchor="middle" x="354.22" y="-3317.3" font-family="Times,serif" font-size="14.00">Language.Drasil.Code.Imperative.GOOL.LanguageRenderer.JavaRenderer</text>
</g>
<!-- u38&#45;&gt;u11 -->
<g id="edge64" class="edge">
<title>u38&#45;&gt;u11</title>
<path fill="none" stroke="black" d="M2587.22,-3845.87C2567.04,-3789.23 2500.12,-3609.64 2451.22,-3575 2299.66,-3467.62 1074.52,-3371.74 570.06,-3336.41"/>
<polygon fill="black" stroke="black" points="569.97,-3332.9 559.75,-3335.69 569.48,-3339.88 569.97,-3332.9"/>
</g>
<!-- u45 -->
<g id="node13" class="node">
<title>u45</title>
<ellipse fill="#ffbbbb" stroke="black" cx="3972.22" cy="-68" rx="168.17" ry="18"/>
<text text-anchor="middle" x="3972.22" y="-64.3" font-family="Times,serif" font-size="14.00">Language.Drasil.Chunk.CodeBase</text>
</g>
<!-- u44 -->
<g id="node14" class="node">
<title>u44</title>
<ellipse fill="#ffbbbb" stroke="black" cx="4695.22" cy="-881" rx="202.26" ry="18"/>
<text text-anchor="middle" x="4695.22" y="-877.3" font-family="Times,serif" font-size="14.00">Language.Drasil.Chunk.NamedArgument</text>
</g>
<!-- u43 -->
<g id="node15" class="node">
<title>u43</title>
<ellipse fill="#ffbbbb" stroke="black" cx="3972.22" cy="-339" rx="145.67" ry="18"/>
<text text-anchor="middle" x="3972.22" y="-335.3" font-family="Times,serif" font-size="14.00">Language.Drasil.Chunk.Code</text>
</g>
<!-- u43&#45;&gt;u45 -->
<g id="edge73" class="edge">
<title>u43&#45;&gt;u45</title>
<path fill="none" stroke="black" d="M3972.22,-320.76C3972.22,-275.21 3972.22,-151.36 3972.22,-96.17"/>
<polygon fill="black" stroke="black" points="3975.72,-96.09 3972.22,-86.09 3968.72,-96.09 3975.72,-96.09"/>
</g>
<!-- u41&#45;&gt;u43 -->
<g id="edge72" class="edge">
<title>u41&#45;&gt;u43</title>
<path fill="none" stroke="black" d="M3972.22,-591.76C3972.22,-546.21 3972.22,-422.36 3972.22,-367.17"/>
<polygon fill="black" stroke="black" points="3975.72,-367.09 3972.22,-357.09 3968.72,-367.09 3975.72,-367.09"/>
</g>
<!-- u48 -->
<g id="node57" class="node">
<title>u48</title>
<ellipse fill="#ff77ff" stroke="black" cx="3662.22" cy="-1152" rx="154.07" ry="18"/>
<text text-anchor="middle" x="3662.22" y="-1148.3" font-family="Times,serif" font-size="14.00">Language.Drasil.Data.ODEInfo</text>
</g>
<!-- u40&#45;&gt;u48 -->
<g id="edge71" class="edge">
<title>u40&#45;&gt;u48</title>
<path fill="none" stroke="black" d="M4315.12,-1678.97C4184.96,-1652.52 3940.6,-1586.09 3791.22,-1441 3713.87,-1365.87 3679.21,-1236.03 3667.31,-1180.02"/>
<polygon fill="black" stroke="black" points="3670.73,-1179.23 3665.29,-1170.14 3663.87,-1180.64 3670.73,-1179.23"/>
</g>
<!-- u37 -->
<g id="node19" class="node">
<title>u37</title>
<ellipse fill="#bbffff" stroke="black" cx="4321.22" cy="-1152" rx="190.37" ry="18"/>
<text text-anchor="middle" x="4321.22" y="-1148.3" font-family="Times,serif" font-size="14.00">Language.Drasil.Code.ExternalLibrary</text>
</g>
<!-- u37&#45;&gt;u49 -->
<g id="edge61" class="edge">
<title>u37&#45;&gt;u49</title>
<path fill="none" stroke="black" d="M4321.22,-1133.76C4321.22,-1088.21 4321.22,-964.36 4321.22,-909.17"/>
<polygon fill="black" stroke="black" points="4324.72,-909.09 4321.22,-899.09 4317.72,-909.09 4324.72,-909.09"/>
</g>
<!-- u37&#45;&gt;u44 -->
<g id="edge60" class="edge">
<title>u37&#45;&gt;u44</title>
<path fill="none" stroke="black" d="M4344.9,-1133.97C4409.55,-1087.47 4589.16,-958.28 4662.94,-905.21"/>
<polygon fill="black" stroke="black" points="4665.33,-907.81 4671.4,-899.13 4661.24,-902.13 4665.33,-907.81"/>
</g>
<!-- u36 -->
<g id="node20" class="node">
<title>u36</title>
<ellipse fill="#bbffff" stroke="black" cx="3885.22" cy="-3321" rx="191.17" ry="18"/>
<text text-anchor="middle" x="3885.22" y="-3317.3" font-family="Times,serif" font-size="14.00">Language.Drasil.Code.CodeGeneration</text>
</g>
<!-- u36&#45;&gt;u33 -->
<g id="edge59" class="edge">
<title>u36&#45;&gt;u33</title>
<path fill="none" stroke="black" d="M3827.34,-3303.73C3608.4,-3240.49 2843.22,-3003.49 2843.22,-2780 2843.22,-2780 2843.22,-2780 2843.22,-1965 2843.22,-1721.7 3106.19,-1513.6 3200.81,-1446.6"/>
<polygon fill="black" stroke="black" points="3202.99,-1449.35 3209.16,-1440.75 3198.97,-1443.62 3202.99,-1449.35"/>
</g>
<!-- u18 -->
<g id="node47" class="node">
<title>u18</title>
<ellipse fill="#7777ff" stroke="black" cx="2593.22" cy="-3050" rx="222.06" ry="18"/>
<text text-anchor="middle" x="2593.22" y="-3046.3" font-family="Times,serif" font-size="14.00">Language.Drasil.Code.Imperative.GOOL.Data</text>
</g>
<!-- u36&#45;&gt;u18 -->
<g id="edge58" class="edge">
<title>u36&#45;&gt;u18</title>
<path fill="none" stroke="black" d="M3810.17,-3304.37C3585.45,-3257.59 2918.76,-3118.78 2679.72,-3069.01"/>
<polygon fill="black" stroke="black" points="2680.19,-3065.53 2669.69,-3066.92 2678.77,-3072.39 2680.19,-3065.53"/>
</g>
<!-- u35 -->
<g id="node21" class="node">
<title>u35</title>
<ellipse fill="#bbffff" stroke="black" cx="3973.22" cy="-1152" rx="139.18" ry="18"/>
<text text-anchor="middle" x="3973.22" y="-1148.3" font-family="Times,serif" font-size="14.00">Language.Drasil.Code.Lang</text>
</g>
<!-- u34&#45;&gt;u43 -->
<g id="edge57" class="edge">
<title>u34&#45;&gt;u43</title>
<path fill="none" stroke="black" d="M4299.12,-591.97C4238.92,-545.56 4071.87,-416.81 4002.76,-363.54"/>
<polygon fill="black" stroke="black" points="4004.5,-360.46 3994.44,-357.13 4000.23,-366.01 4004.5,-360.46"/>
</g>
<!-- u32 -->
<g id="node24" class="node">
<title>u32</title>
<ellipse fill="#bbffff" stroke="black" cx="4737.22" cy="-1152" rx="207.96" ry="18"/>
<text text-anchor="middle" x="4737.22" y="-1148.3" font-family="Times,serif" font-size="14.00">Language.Drasil.Code.ExternalLibraryCall</text>
</g>
<!-- u32&#45;&gt;u49 -->
<g id="edge56" class="edge">
<title>u32&#45;&gt;u49</title>
<path fill="none" stroke="black" d="M4710.88,-1133.97C4638.56,-1087.21 4436.94,-956.83 4355.75,-904.33"/>
<polygon fill="black" stroke="black" points="4357.21,-901.1 4346.91,-898.61 4353.41,-906.98 4357.21,-901.1"/>
</g>
<!-- u32&#45;&gt;u44 -->
<g id="edge55" class="edge">
<title>u32&#45;&gt;u44</title>
<path fill="none" stroke="black" d="M4734.53,-1133.76C4727.42,-1088.21 4708.08,-964.36 4699.46,-909.17"/>
<polygon fill="black" stroke="black" points="4702.89,-908.43 4697.89,-899.09 4695.97,-909.51 4702.89,-908.43"/>
</g>
<!-- u31 -->
<g id="node25" class="node">
<title>u31</title>
<ellipse fill="#bbffff" stroke="black" cx="5992.22" cy="-2508" rx="204.16" ry="18"/>
<text text-anchor="middle" x="5992.22" y="-2504.3" font-family="Times,serif" font-size="14.00">Language.Drasil.Code.CodeQuantityDicts</text>
</g>
<!-- u30 -->
<g id="node26" class="node">
<title>u30</title>
<ellipse fill="#bbffff" stroke="black" cx="4540.22" cy="-1423" rx="178.97" ry="18"/>
<text text-anchor="middle" x="4540.22" y="-1419.3" font-family="Times,serif" font-size="14.00">Language.Drasil.Code.ExtLibImport</text>
</g>
<!-- u30&#45;&gt;u37 -->
<g id="edge54" class="edge">
<title>u30&#45;&gt;u37</title>
<path fill="none" stroke="black" d="M4526.19,-1404.76C4488.64,-1358.64 4385.74,-1232.26 4341.68,-1178.14"/>
<polygon fill="black" stroke="black" points="4344.16,-1175.64 4335.13,-1170.09 4338.73,-1180.06 4344.16,-1175.64"/>
</g>
<!-- u30&#45;&gt;u32 -->
<g id="edge53" class="edge">
<title>u30&#45;&gt;u32</title>
<path fill="none" stroke="black" d="M4552.84,-1404.76C4586.55,-1358.74 4678.8,-1232.78 4718.57,-1178.47"/>
<polygon fill="black" stroke="black" points="4721.62,-1180.23 4724.7,-1170.09 4715.97,-1176.09 4721.62,-1180.23"/>
</g>
<!-- u27 -->
<g id="node27" class="node">
<title>u27</title>
<ellipse fill="#ffbbff" stroke="black" cx="5106.22" cy="-2508" rx="206.06" ry="18"/>
<text text-anchor="middle" x="5106.22" y="-2504.3" font-family="Times,serif" font-size="14.00">Language.Drasil.Code.Imperative.Helpers</text>
</g>
<!-- u8 -->
<g id="node36" class="node">
<title>u8</title>
<ellipse fill="#ffbbff" stroke="black" cx="5106.22" cy="-2237" rx="222.06" ry="18"/>
<text text-anchor="middle" x="5106.22" y="-2233.3" font-family="Times,serif" font-size="14.00">Language.Drasil.Code.Imperative.DrasilState</text>
</g>
<!-- u27&#45;&gt;u8 -->
<g id="edge51" class="edge">
<title>u27&#45;&gt;u8</title>
<path fill="none" stroke="black" d="M5106.22,-2489.76C5106.22,-2444.21 5106.22,-2320.36 5106.22,-2265.17"/>
<polygon fill="black" stroke="black" points="5109.72,-2265.09 5106.22,-2255.09 5102.72,-2265.09 5109.72,-2265.09"/>
</g>
<!-- u26 -->
<g id="node28" class="node">
<title>u26</title>
<ellipse fill="#ffbbff" stroke="black" cx="3911.22" cy="-1966" rx="237.46" ry="18"/>
<text text-anchor="middle" x="3911.22" y="-1962.3" font-family="Times,serif" font-size="14.00">Language.Drasil.Code.Imperative.ConceptMatch</text>
</g>
<!-- u26&#45;&gt;u39 -->
<g id="edge50" class="edge">
<title>u26&#45;&gt;u39</title>
<path fill="none" stroke="black" d="M3911.22,-1947.76C3911.22,-1902.21 3911.22,-1778.36 3911.22,-1723.17"/>
<polygon fill="black" stroke="black" points="3914.72,-1723.09 3911.22,-1713.09 3907.72,-1723.09 3914.72,-1723.09"/>
</g>
<!-- u25 -->
<g id="node29" class="node">
<title>u25</title>
<ellipse fill="#ffbbff" stroke="black" cx="5592.22" cy="-3050" rx="228.26" ry="18"/>
<text text-anchor="middle" x="5592.22" y="-3046.3" font-family="Times,serif" font-size="14.00">Language.Drasil.Code.Imperative.Descriptions</text>
</g>
<!-- u25&#45;&gt;u8 -->
<g id="edge49" class="edge">
<title>u25&#45;&gt;u8</title>
<path fill="none" stroke="black" d="M5740.1,-3036.26C5890.58,-3014.54 6116.66,-2955.8 6225.22,-2797 6302.22,-2684.36 6312.47,-2596.54 6227.22,-2490 6109.69,-2343.12 5556.87,-2275.88 5273.95,-2250.66"/>
<polygon fill="black" stroke="black" points="5273.85,-2247.14 5263.58,-2249.74 5273.24,-2254.11 5273.85,-2247.14"/>
</g>
<!-- u24 -->
<g id="node30" class="node">
<title>u24</title>
<ellipse fill="#ffbbff" stroke="black" cx="4209.22" cy="-2508" rx="240.46" ry="18"/>
<text text-anchor="middle" x="4209.22" y="-2504.3" font-family="Times,serif" font-size="14.00">Language.Drasil.Code.Imperative.GenerateGOOL</text>
</g>
<!-- u24&#45;&gt;u8 -->
<g id="edge47" class="edge">
<title>u24&#45;&gt;u8</title>
<path fill="none" stroke="black" d="M4264.32,-2490.48C4421.75,-2443.26 4873.04,-2307.93 5041.65,-2257.36"/>
<polygon fill="black" stroke="black" points="5042.81,-2260.67 5051.38,-2254.45 5040.8,-2253.97 5042.81,-2260.67"/>
</g>
<!-- u17 -->
<g id="node48" class="node">
<title>u17</title>
<ellipse fill="#7777ff" stroke="black" cx="3646.22" cy="-2237" rx="267.25" ry="18"/>
<text text-anchor="middle" x="3646.22" y="-2233.3" font-family="Times,serif" font-size="14.00">Language.Drasil.Code.Imperative.GOOL.ClassInterface</text>
</g>
<!-- u24&#45;&gt;u17 -->
<g id="edge48" class="edge">
<title>u24&#45;&gt;u17</title>
<path fill="none" stroke="black" d="M4174,-2490.17C4075.87,-2443.29 3799.47,-2311.22 3690.85,-2259.32"/>
<polygon fill="black" stroke="black" points="3692.32,-2256.15 3681.79,-2254.99 3689.3,-2262.46 3692.32,-2256.15"/>
</g>
<!-- u22 -->
<g id="node31" class="node">
<title>u22</title>
<ellipse fill="#ffbbff" stroke="black" cx="5106.22" cy="-2779" rx="201.46" ry="18"/>
<text text-anchor="middle" x="5106.22" y="-2775.3" font-family="Times,serif" font-size="14.00">Language.Drasil.Code.Imperative.Import</text>
</g>
<!-- u22&#45;&gt;u31 -->
<g id="edge45" class="edge">
<title>u22&#45;&gt;u31</title>
<path fill="none" stroke="black" d="M5160.31,-2761.58C5315.58,-2714.44 5762.19,-2578.84 5928.66,-2528.3"/>
<polygon fill="black" stroke="black" points="5929.72,-2531.63 5938.28,-2525.38 5927.69,-2524.93 5929.72,-2531.63"/>
</g>
<!-- u22&#45;&gt;u27 -->
<g id="edge44" class="edge">
<title>u22&#45;&gt;u27</title>
<path fill="none" stroke="black" d="M5106.22,-2760.76C5106.22,-2715.21 5106.22,-2591.36 5106.22,-2536.17"/>
<polygon fill="black" stroke="black" points="5109.72,-2536.09 5106.22,-2526.09 5102.72,-2536.09 5109.72,-2536.09"/>
</g>
<!-- u22&#45;&gt;u26 -->
<g id="edge43" class="edge">
<title>u22&#45;&gt;u26</title>
<path fill="none" stroke="black" d="M4958.18,-2766.77C4678.86,-2742.31 4090.35,-2674.11 3960.22,-2526 3942.46,-2505.79 3918.86,-2104.19 3912.73,-1994.49"/>
<polygon fill="black" stroke="black" points="3916.21,-1994.03 3912.16,-1984.24 3909.22,-1994.42 3916.21,-1994.03"/>
</g>
<!-- u22&#45;&gt;u24 -->
<g id="edge42" class="edge">
<title>u22&#45;&gt;u24</title>
<path fill="none" stroke="black" d="M5051.46,-2761.58C4894.45,-2714.49 4443.17,-2579.16 4274.16,-2528.48"/>
<polygon fill="black" stroke="black" points="4274.99,-2525.07 4264.4,-2525.55 4272.98,-2531.77 4274.99,-2525.07"/>
</g>
<!-- u20 -->
<g id="node33" class="node">
<title>u20</title>
<ellipse fill="#ffbbff" stroke="black" cx="5550.22" cy="-2508" rx="219.86" ry="18"/>
<text text-anchor="middle" x="5550.22" y="-2504.3" font-family="Times,serif" font-size="14.00">Language.Drasil.Code.Imperative.Comments</text>
</g>
<!-- u22&#45;&gt;u20 -->
<g id="edge41" class="edge">
<title>u22&#45;&gt;u20</title>
<path fill="none" stroke="black" d="M5134.33,-2760.97C5211.56,-2714.18 5426.99,-2583.66 5513.54,-2531.22"/>
<polygon fill="black" stroke="black" points="5515.49,-2534.13 5522.23,-2525.96 5511.86,-2528.15 5515.49,-2534.13"/>
</g>
<!-- u9 -->
<g id="node35" class="node">
<title>u9</title>
<ellipse fill="#ffbbff" stroke="black" cx="4675.22" cy="-2508" rx="207.16" ry="18"/>
<text text-anchor="middle" x="4675.22" y="-2504.3" font-family="Times,serif" font-size="14.00">Language.Drasil.Code.Imperative.Logging</text>
</g>
<!-- u22&#45;&gt;u9 -->
<g id="edge40" class="edge">
<title>u22&#45;&gt;u9</title>
<path fill="none" stroke="black" d="M5078.93,-2760.97C5004.03,-2714.22 4795.26,-2583.92 4711.08,-2531.38"/>
<polygon fill="black" stroke="black" points="4712.72,-2528.28 4702.39,-2525.96 4709.02,-2534.22 4712.72,-2528.28"/>
</g>
<!-- u21 -->
<g id="node32" class="node">
<title>u21</title>
<ellipse fill="#ffbbff" stroke="black" cx="2277.22" cy="-1966" rx="219.86" ry="18"/>
<text text-anchor="middle" x="2277.22" y="-1962.3" font-family="Times,serif" font-size="14.00">Language.Drasil.Code.Imperative.WriteInput</text>
</g>
<!-- u21&#45;&gt;u34 -->
<g id="edge39" class="edge">
<title>u21&#45;&gt;u34</title>
<path fill="none" stroke="black" d="M2305.63,-1947.95C2400.47,-1888.66 2700.22,-1680.93 2700.22,-1424 2700.22,-1424 2700.22,-1424 2700.22,-1151 2700.22,-834.27 3828.24,-670.19 4202.3,-624.49"/>
<polygon fill="black" stroke="black" points="4202.84,-627.95 4212.34,-623.27 4201.99,-621 4202.84,-627.95"/>
</g>
<!-- u20&#45;&gt;u8 -->
<g id="edge38" class="edge">
<title>u20&#45;&gt;u8</title>
<path fill="none" stroke="black" d="M5522.11,-2489.97C5444.87,-2443.18 5229.44,-2312.66 5142.9,-2260.22"/>
<polygon fill="black" stroke="black" points="5144.57,-2257.15 5134.21,-2254.96 5140.95,-2263.13 5144.57,-2257.15"/>
</g>
<!-- u19 -->
<g id="node34" class="node">
<title>u19</title>
<ellipse fill="#ffbbff" stroke="black" cx="5109.22" cy="-3050" rx="233.16" ry="18"/>
<text text-anchor="middle" x="5109.22" y="-3046.3" font-family="Times,serif" font-size="14.00">Language.Drasil.Code.Imperative.FunctionCalls</text>
</g>
<!-- u19&#45;&gt;u22 -->
<g id="edge37" class="edge">
<title>u19&#45;&gt;u22</title>
<path fill="none" stroke="black" d="M5109.03,-3031.76C5108.52,-2986.21 5107.14,-2862.36 5106.52,-2807.17"/>
<polygon fill="black" stroke="black" points="5110.02,-2807.05 5106.41,-2797.09 5103.02,-2807.13 5110.02,-2807.05"/>
</g>
<!-- u1 -->
<g id="node42" class="node">
<title>u1</title>
<ellipse fill="#ffbbff" stroke="black" cx="5992.22" cy="-2779" rx="223.66" ry="18"/>
<text text-anchor="middle" x="5992.22" y="-2775.3" font-family="Times,serif" font-size="14.00">Language.Drasil.Code.Imperative.Parameters</text>
</g>
<!-- u19&#45;&gt;u1 -->
<g id="edge36" class="edge">
<title>u19&#45;&gt;u1</title>
<path fill="none" stroke="black" d="M5163.46,-3032.48C5318.34,-2985.29 5762.16,-2850.09 5928.36,-2799.45"/>
<polygon fill="black" stroke="black" points="5929.41,-2802.79 5937.95,-2796.53 5927.37,-2796.1 5929.41,-2802.79"/>
</g>
<!-- u9&#45;&gt;u8 -->
<g id="edge19" class="edge">
<title>u9&#45;&gt;u8</title>
<path fill="none" stroke="black" d="M4702.51,-2489.97C4777.4,-2443.22 4986.18,-2312.92 5070.36,-2260.38"/>
<polygon fill="black" stroke="black" points="5072.42,-2263.22 5079.05,-2254.96 5068.71,-2257.28 5072.42,-2263.22"/>
</g>
<!-- u8&#45;&gt;u46 -->
<g id="edge18" class="edge">
<title>u8&#45;&gt;u46</title>
<path fill="none" stroke="black" d="M5085.71,-2218.76C5030.4,-2172.26 4878.02,-2044.17 4814.55,-1990.81"/>
<polygon fill="black" stroke="black" points="4816.46,-1987.85 4806.55,-1984.09 4811.95,-1993.21 4816.46,-1987.85"/>
</g>
<!-- u8&#45;&gt;u30 -->
<g id="edge17" class="edge">
<title>u8&#45;&gt;u30</title>
<path fill="none" stroke="black" d="M5108.08,-2218.93C5115.15,-2145.82 5133.72,-1854.87 5005.22,-1677 4908.89,-1543.67 4719.97,-1473.11 4615.01,-1442.72"/>
<polygon fill="black" stroke="black" points="4615.7,-1439.27 4605.12,-1439.9 4613.78,-1446.01 4615.7,-1439.27"/>
</g>
<!-- u6 -->
<g id="node37" class="node">
<title>u6</title>
<ellipse fill="#ffbbff" stroke="black" cx="3104.22" cy="-2779" rx="233.16" ry="18"/>
<text text-anchor="middle" x="3104.22" y="-2775.3" font-family="Times,serif" font-size="14.00">Language.Drasil.Code.Imperative.WriteReadMe</text>
</g>
<!-- u6&#45;&gt;u17 -->
<g id="edge15" class="edge">
<title>u6&#45;&gt;u17</title>
<path fill="none" stroke="black" d="M3121.33,-2760.95C3200.27,-2682.3 3529.24,-2354.54 3621.86,-2262.27"/>
<polygon fill="black" stroke="black" points="3624.48,-2264.59 3629.1,-2255.06 3619.54,-2259.64 3624.48,-2264.59"/>
</g>
<!-- u5&#45;&gt;u34 -->
<g id="edge14" class="edge">
<title>u5&#45;&gt;u34</title>
<path fill="none" stroke="black" d="M5902.79,-2219.36C5760.43,-2167.02 5353.22,-1991.5 5353.22,-1696 5353.22,-1696 5353.22,-1696 5353.22,-1151 5353.22,-755.06 4749.49,-648.89 4465.57,-620.85"/>
<polygon fill="black" stroke="black" points="4465.9,-617.37 4455.61,-619.89 4465.22,-624.34 4465.9,-617.37"/>
</g>
<!-- u4 -->
<g id="node39" class="node">
<title>u4</title>
<ellipse fill="#ffbbff" stroke="black" cx="6077.22" cy="-3050" rx="226.66" ry="18"/>
<text text-anchor="middle" x="6077.22" y="-3046.3" font-family="Times,serif" font-size="14.00">Language.Drasil.Code.Imperative.SpaceMatch</text>
</g>
<!-- u4&#45;&gt;u8 -->
<g id="edge13" class="edge">
<title>u4&#45;&gt;u8</title>
<path fill="none" stroke="black" d="M6092.76,-3031.85C6157.4,-2958.44 6395.08,-2666.42 6253.22,-2490 6132.91,-2340.39 5568.86,-2274.52 5279.07,-2250.15"/>
<polygon fill="black" stroke="black" points="5279.13,-2246.65 5268.87,-2249.3 5278.55,-2253.62 5279.13,-2246.65"/>
</g>
<!-- u3 -->
<g id="node40" class="node">
<title>u3</title>
<ellipse fill="#ffbbff" stroke="black" cx="5109.22" cy="-3321" rx="209.06" ry="18"/>
<text text-anchor="middle" x="5109.22" y="-3317.3" font-family="Times,serif" font-size="14.00">Language.Drasil.Code.Imperative.Modules</text>
</g>
<!-- u3&#45;&gt;u25 -->
<g id="edge12" class="edge">
<title>u3&#45;&gt;u25</title>
<path fill="none" stroke="black" d="M5139.43,-3303.17C5223.28,-3256.48 5458.84,-3125.28 5552.8,-3072.95"/>
<polygon fill="black" stroke="black" points="5554.67,-3075.92 5561.71,-3067.99 5551.27,-3069.8 5554.67,-3075.92"/>
</g>
<!-- u3&#45;&gt;u19 -->
<g id="edge11" class="edge">
<title>u3&#45;&gt;u19</title>
<path fill="none" stroke="black" d="M5109.22,-3302.76C5109.22,-3257.21 5109.22,-3133.36 5109.22,-3078.17"/>
<polygon fill="black" stroke="black" points="5112.72,-3078.09 5109.22,-3068.09 5105.72,-3078.09 5112.72,-3078.09"/>
</g>
<!-- u2 -->
<g id="node41" class="node">
<title>u2</title>
<ellipse fill="#ffbbff" stroke="black" cx="4376.22" cy="-1966" rx="209.86" ry="18"/>
<text text-anchor="middle" x="4376.22" y="-1962.3" font-family="Times,serif" font-size="14.00">Language.Drasil.Code.Imperative.GenODE</text>
</g>
<!-- u2&#45;&gt;u39 -->
<g id="edge9" class="edge">
<title>u2&#45;&gt;u39</title>
<path fill="none" stroke="black" d="M4347.13,-1948.17C4266.3,-1901.41 4039,-1769.92 3948.8,-1717.74"/>
<polygon fill="black" stroke="black" points="3950.41,-1714.63 3940,-1712.65 3946.9,-1720.69 3950.41,-1714.63"/>
</g>
<!-- u2&#45;&gt;u40 -->
<g id="edge10" class="edge">
<title>u2&#45;&gt;u40</title>
<path fill="none" stroke="black" d="M4377.95,-1947.76C4382.52,-1902.21 4394.95,-1778.36 4400.49,-1723.17"/>
<polygon fill="black" stroke="black" points="4403.99,-1723.39 4401.5,-1713.09 4397.02,-1722.69 4403.99,-1723.39"/>
</g>
<!-- u2&#45;&gt;u30 -->
<g id="edge8" class="edge">
<title>u2&#45;&gt;u30</title>
<path fill="none" stroke="black" d="M4351.99,-1948C4292.86,-1904.3 4149.77,-1783.96 4203.22,-1677 4263.16,-1557.04 4410.04,-1479.16 4488.62,-1444.6"/>
<polygon fill="black" stroke="black" points="4490.07,-1447.79 4497.86,-1440.6 4487.29,-1441.36 4490.07,-1447.79"/>
</g>
<!-- u1&#45;&gt;u31 -->
<g id="edge7" class="edge">
<title>u1&#45;&gt;u31</title>
<path fill="none" stroke="black" d="M5992.22,-2760.76C5992.22,-2715.21 5992.22,-2591.36 5992.22,-2536.17"/>
<polygon fill="black" stroke="black" points="5995.72,-2536.09 5992.22,-2526.09 5988.72,-2536.09 5995.72,-2536.09"/>
</g>
<!-- u1&#45;&gt;u8 -->
<g id="edge6" class="edge">
<title>u1&#45;&gt;u8</title>
<path fill="none" stroke="black" d="M6022,-2761.13C6097.57,-2716.24 6285.24,-2590.44 6205.22,-2490 6089.97,-2345.33 5546,-2276.93 5269.06,-2251.03"/>
<polygon fill="black" stroke="black" points="5269.2,-2247.52 5258.92,-2250.09 5268.55,-2254.49 5269.2,-2247.52"/>
</g>
<!-- u0&#45;&gt;u36 -->
<g id="edge5" class="edge">
<title>u0&#45;&gt;u36</title>
<path fill="none" stroke="black" d="M4107.97,-3574.7C4067.08,-3528.31 3954.88,-3401.03 3907.16,-3346.89"/>
<polygon fill="black" stroke="black" points="3909.58,-3344.34 3900.34,-3339.16 3904.33,-3348.97 3909.58,-3344.34"/>
</g>
<!-- u0&#45;&gt;u4 -->
<g id="edge3" class="edge">
<title>u0&#45;&gt;u4</title>
<path fill="none" stroke="black" d="M4220.89,-3576.91C4427.58,-3543.81 4923.38,-3458.14 5327.22,-3339 5599.82,-3258.58 5913.64,-3123.71 6030.34,-3072.03"/>
<polygon fill="black" stroke="black" points="6031.99,-3075.13 6039.71,-3067.87 6029.15,-3068.73 6031.99,-3075.13"/>
</g>
<!-- u0&#45;&gt;u3 -->
<g id="edge2" class="edge">
<title>u0&#45;&gt;u3</title>
<path fill="none" stroke="black" d="M4183.04,-3575.62C4355.94,-3528.27 4855.63,-3391.44 5039.9,-3340.98"/>
<polygon fill="black" stroke="black" points="5041.03,-3344.3 5049.75,-3338.29 5039.18,-3337.55 5041.03,-3344.3"/>
</g>
<!-- u0&#45;&gt;u2 -->
<g id="edge1" class="edge">
<title>u0&#45;&gt;u2</title>
<path fill="none" stroke="black" d="M4125.14,-3574.9C4132.45,-3506.19 4156.49,-3243.78 4123.22,-3032 4084.18,-2783.5 3877.29,-2727.48 3960.22,-2490 4040.09,-2261.26 4266.47,-2057.69 4347.19,-1990.43"/>
<polygon fill="black" stroke="black" points="4349.5,-1993.06 4354.97,-1983.99 4345.04,-1987.66 4349.5,-1993.06"/>
</g>
<!-- u10 -->
<g id="node49" class="node">
<title>u10</title>
<ellipse fill="#7777ff" stroke="black" cx="3645.22" cy="-2779" rx="289.45" ry="18"/>
<text text-anchor="middle" x="3645.22" y="-2775.3" font-family="Times,serif" font-size="14.00">Language.Drasil.Code.Imperative.GOOL.LanguageRenderer</text>
</g>
<!-- u0&#45;&gt;u10 -->
<g id="edge4" class="edge">
<title>u0&#45;&gt;u10</title>
<path fill="none" stroke="black" d="M4126.21,-3574.95C4133.65,-3526.84 4148.13,-3388.02 4085.22,-3303 3935.32,-3100.44 3705.57,-3279.92 3569.22,-3068 3514.09,-2982.31 3588.84,-2857.92 3626.2,-2805.16"/>
<polygon fill="black" stroke="black" points="3629.05,-2807.2 3632.07,-2797.04 3623.38,-2803.1 3629.05,-2807.2"/>
</g>
<!-- u29 -->
<g id="node44" class="node">
<title>u29</title>
<ellipse fill="#77ff77" stroke="black" cx="2216.22" cy="-2779" rx="228.56" ry="18"/>
<text text-anchor="middle" x="2216.22" y="-2775.3" font-family="Times,serif" font-size="14.00">Language.Drasil.Code.Imperative.Build.Import</text>
</g>
<!-- u28 -->
<g id="node45" class="node">
<title>u28</title>
<ellipse fill="#77ff77" stroke="black" cx="2216.22" cy="-2508" rx="215.56" ry="18"/>
<text text-anchor="middle" x="2216.22" y="-2504.3" font-family="Times,serif" font-size="14.00">Language.Drasil.Code.Imperative.Build.AST</text>
</g>
<!-- u29&#45;&gt;u28 -->
<g id="edge52" class="edge">
<title>u29&#45;&gt;u28</title>
<path fill="none" stroke="black" d="M2216.22,-2760.76C2216.22,-2715.21 2216.22,-2591.36 2216.22,-2536.17"/>
<polygon fill="black" stroke="black" points="2219.72,-2536.09 2216.22,-2526.09 2212.72,-2536.09 2219.72,-2536.09"/>
</g>
<!-- u7 -->
<g id="node46" class="node">
<title>u7</title>
<ellipse fill="#ffff77" stroke="black" cx="3116.22" cy="-2237" rx="245.06" ry="18"/>
<text text-anchor="middle" x="3116.22" y="-2233.3" font-family="Times,serif" font-size="14.00">Language.Drasil.Code.Imperative.Doxygen.Import</text>
</g>
<!-- u7&#45;&gt;u39 -->
<g id="edge16" class="edge">
<title>u7&#45;&gt;u39</title>
<path fill="none" stroke="black" d="M3141.32,-2218.95C3257.81,-2139.82 3745.57,-1808.51 3877.95,-1718.6"/>
<polygon fill="black" stroke="black" points="3880.2,-1721.3 3886.5,-1712.79 3876.26,-1715.51 3880.2,-1721.3"/>
</g>
<!-- u17&#45;&gt;u39 -->
<g id="edge35" class="edge">
<title>u17&#45;&gt;u39</title>
<path fill="none" stroke="black" d="M3643.4,-2218.8C3636.62,-2172.56 3622.96,-2042.73 3665.22,-1948 3711.68,-1843.85 3821.03,-1757.69 3876.96,-1718.6"/>
<polygon fill="black" stroke="black" points="3879.22,-1721.29 3885.46,-1712.73 3875.24,-1715.53 3879.22,-1721.29"/>
</g>
<!-- u16&#45;&gt;u18 -->
<g id="edge34" class="edge">
<title>u16&#45;&gt;u18</title>
<path fill="none" stroke="black" d="M1185.07,-3303.53C1451.6,-3255.73 2223.49,-3117.31 2496.3,-3068.38"/>
<polygon fill="black" stroke="black" points="2496.96,-3071.82 2506.18,-3066.61 2495.72,-3064.93 2496.96,-3071.82"/>
</g>
<!-- u15 -->
<g id="node51" class="node">
<title>u15</title>
<ellipse fill="#ff7777" stroke="black" cx="1959.22" cy="-3050" rx="393.73" ry="18"/>
<text text-anchor="middle" x="1959.22" y="-3046.3" font-family="Times,serif" font-size="14.00">Language.Drasil.Code.Imperative.GOOL.LanguageRenderer.LanguagePolymorphic</text>
</g>
<!-- u16&#45;&gt;u15 -->
<g id="edge33" class="edge">
<title>u16&#45;&gt;u15</title>
<path fill="none" stroke="black" d="M1147.39,-3303.17C1299.63,-3255.88 1730.86,-3121.93 1894.85,-3071"/>
<polygon fill="black" stroke="black" points="1896.28,-3074.22 1904.79,-3067.91 1894.2,-3067.53 1896.28,-3074.22"/>
</g>
<!-- u15&#45;&gt;u21 -->
<g id="edge31" class="edge">
<title>u15&#45;&gt;u21</title>
<path fill="none" stroke="black" d="M1957.49,-3031.62C1951.12,-2961.87 1932.23,-2696.07 1991.22,-2490 2050.74,-2282.06 2203.71,-2065.05 2257.86,-1992.38"/>
<polygon fill="black" stroke="black" points="2260.76,-1994.35 2263.96,-1984.25 2255.16,-1990.15 2260.76,-1994.35"/>
</g>
<!-- u15&#45;&gt;u6 -->
<g id="edge28" class="edge">
<title>u15&#45;&gt;u6</title>
<path fill="none" stroke="black" d="M2030.41,-3032.27C2233.25,-2984.62 2813.16,-2848.38 3025.28,-2798.55"/>
<polygon fill="black" stroke="black" points="3026.16,-2801.93 3035.1,-2796.24 3024.56,-2795.12 3026.16,-2801.93"/>
</g>
<!-- u15&#45;&gt;u29 -->
<g id="edge32" class="edge">
<title>u15&#45;&gt;u29</title>
<path fill="none" stroke="black" d="M1975.69,-3031.76C2019.93,-2985.45 2141.49,-2858.21 2192.84,-2804.47"/>
<polygon fill="black" stroke="black" points="2195.51,-2806.74 2199.89,-2797.09 2190.45,-2801.91 2195.51,-2806.74"/>
</g>
<!-- u15&#45;&gt;u7 -->
<g id="edge29" class="edge">
<title>u15&#45;&gt;u7</title>
<path fill="none" stroke="black" d="M2000.09,-3032.04C2087.08,-2995.13 2295.55,-2902.34 2454.22,-2797 2724.01,-2617.89 3008.19,-2344.71 3091.78,-2262.34"/>
<polygon fill="black" stroke="black" points="3094.36,-2264.71 3099.01,-2255.19 3089.44,-2259.73 3094.36,-2264.71"/>
</g>
<!-- u15&#45;&gt;u10 -->
<g id="edge30" class="edge">
<title>u15&#45;&gt;u10</title>
<path fill="none" stroke="black" d="M2062.15,-3032.58C2361.09,-2984.88 3227.55,-2846.64 3535.23,-2797.55"/>
<polygon fill="black" stroke="black" points="3536.17,-2800.94 3545.5,-2795.91 3535.07,-2794.03 3536.17,-2800.94"/>
</g>
<!-- u14&#45;&gt;u18 -->
<g id="edge27" class="edge">
<title>u14&#45;&gt;u18</title>
<path fill="none" stroke="black" d="M1894.17,-3303.07C2025.42,-3255.74 2395.81,-3122.18 2537.31,-3071.16"/>
<polygon fill="black" stroke="black" points="2538.88,-3074.32 2547.1,-3067.63 2536.5,-3067.73 2538.88,-3074.32"/>
</g>
<!-- u14&#45;&gt;u15 -->
<g id="edge26" class="edge">
<title>u14&#45;&gt;u15</title>
<path fill="none" stroke="black" d="M1854.4,-3302.76C1873.44,-3257.02 1925.36,-3132.33 1948.19,-3077.49"/>
<polygon fill="black" stroke="black" points="1951.49,-3078.67 1952.1,-3068.09 1945.03,-3075.98 1951.49,-3078.67"/>
</g>
<!-- u13&#45;&gt;u18 -->
<g id="edge25" class="edge">
<title>u13&#45;&gt;u18</title>
<path fill="none" stroke="black" d="M2593.22,-3302.76C2593.22,-3257.21 2593.22,-3133.36 2593.22,-3078.17"/>
<polygon fill="black" stroke="black" points="2596.72,-3078.09 2593.22,-3068.09 2589.72,-3078.09 2596.72,-3078.09"/>
</g>
<!-- u13&#45;&gt;u15 -->
<g id="edge24" class="edge">
<title>u13&#45;&gt;u15</title>
<path fill="none" stroke="black" d="M2553.08,-3302.97C2441.9,-3255.8 2130.18,-3123.54 2008.63,-3071.97"/>
<polygon fill="black" stroke="black" points="2009.76,-3068.64 1999.18,-3067.96 2007.02,-3075.08 2009.76,-3068.64"/>
</g>
<!-- u12&#45;&gt;u18 -->
<g id="edge23" class="edge">
<title>u12&#45;&gt;u18</title>
<path fill="none" stroke="black" d="M3277.28,-3303.07C3148.84,-3255.74 2786.39,-3122.18 2647.93,-3071.16"/>
<polygon fill="black" stroke="black" points="2648.94,-3067.8 2638.35,-3067.63 2646.52,-3074.37 2648.94,-3067.8"/>
</g>
<!-- u12&#45;&gt;u15 -->
<g id="edge22" class="edge">
<title>u12&#45;&gt;u15</title>
<path fill="none" stroke="black" d="M3239.44,-3303.48C2998.78,-3256.02 2306.53,-3119.49 2053.39,-3069.57"/>
<polygon fill="black" stroke="black" points="2053.97,-3066.12 2043.48,-3067.62 2052.61,-3072.99 2053.97,-3066.12"/>
</g>
<!-- u11&#45;&gt;u18 -->
<g id="edge21" class="edge">
<title>u11&#45;&gt;u18</title>
<path fill="none" stroke="black" d="M485.51,-3304.23C883.08,-3256.46 2070.74,-3113.77 2464.66,-3066.44"/>
<polygon fill="black" stroke="black" points="2465.16,-3069.91 2474.67,-3065.24 2464.33,-3062.96 2465.16,-3069.91"/>
</g>
<!-- u11&#45;&gt;u15 -->
<g id="edge20" class="edge">
<title>u11&#45;&gt;u15</title>
<path fill="none" stroke="black" d="M451.6,-3303.68C734.58,-3256.25 1555.35,-3118.69 1851.26,-3069.09"/>
<polygon fill="black" stroke="black" points="1851.85,-3072.54 1861.14,-3067.44 1850.7,-3065.64 1851.85,-3072.54"/>
</g>
<!-- u23 -->
<g id="node56" class="node">
<title>u23</title>
<ellipse fill="#77ffff" stroke="black" cx="3846.22" cy="-3050" rx="267.55" ry="18"/>
<text text-anchor="middle" x="3846.22" y="-3046.3" font-family="Times,serif" font-size="14.00">Language.Drasil.Code.Imperative.Parsers.ConfigParser</text>
</g>
<!-- u23&#45;&gt;u10 -->
<g id="edge46" class="edge">
<title>u23&#45;&gt;u10</title>
<path fill="none" stroke="black" d="M3833.34,-3031.76C3798.88,-2985.64 3704.44,-2859.26 3664,-2805.14"/>
<polygon fill="black" stroke="black" points="3666.78,-2803.01 3657.99,-2797.09 3661.17,-2807.2 3666.78,-2803.01"/>
</g>
<!-- u48&#45;&gt;u43 -->
<g id="edge81" class="edge">
<title>u48&#45;&gt;u43</title>
<path fill="none" stroke="black" d="M3663.76,-1133.76C3670.54,-1063.47 3701.55,-792.67 3792.22,-592 3833.71,-500.17 3910.93,-407.73 3949.32,-364.79"/>
<polygon fill="black" stroke="black" points="3952.14,-366.89 3956.24,-357.12 3946.94,-362.2 3952.14,-366.89"/>
</g>
<!-- u47&#45;&gt;u37 -->
<g id="edge79" class="edge">
<title>u47&#45;&gt;u37</title>
<path fill="none" stroke="black" d="M3995.25,-1404.97C4055.29,-1358.56 4221.85,-1229.81 4290.77,-1176.54"/>
<polygon fill="black" stroke="black" points="4293.29,-1179.02 4299.06,-1170.13 4289.01,-1173.48 4293.29,-1179.02"/>
</g>
<!-- u47&#45;&gt;u35 -->
<g id="edge78" class="edge">
<title>u47&#45;&gt;u35</title>
<path fill="none" stroke="black" d="M3973.22,-1404.76C3973.22,-1359.21 3973.22,-1235.36 3973.22,-1180.17"/>
<polygon fill="black" stroke="black" points="3976.72,-1180.09 3973.22,-1170.09 3969.72,-1180.09 3976.72,-1180.09"/>
</g>
<!-- u47&#45;&gt;u32 -->
<g id="edge77" class="edge">
<title>u47&#45;&gt;u32</title>
<path fill="none" stroke="black" d="M4019.86,-1405.58C4153.19,-1358.63 4535.66,-1223.97 4680.61,-1172.93"/>
<polygon fill="black" stroke="black" points="4681.95,-1176.17 4690.22,-1169.55 4679.62,-1169.57 4681.95,-1176.17"/>
</g>
<!-- u47&#45;&gt;u48 -->
<g id="edge80" class="edge">
<title>u47&#45;&gt;u48</title>
<path fill="none" stroke="black" d="M3953.29,-1404.76C3899.53,-1358.26 3751.44,-1230.17 3689.75,-1176.81"/>
<polygon fill="black" stroke="black" points="3691.83,-1173.99 3681.98,-1170.09 3687.25,-1179.28 3691.83,-1173.99"/>
</g>
<!-- u51 -->
<g id="node59" class="node">
<title>u51</title>
<ellipse fill="#33ff33" stroke="black" cx="2167.22" cy="-4135" rx="108.58" ry="18"/>
<text text-anchor="middle" x="2167.22" y="-4131.3" font-family="Times,serif" font-size="14.00">drasil&#45;code.test.Main</text>
</g>
<!-- u51&#45;&gt;u58 -->
<g id="edge90" class="edge">
<title>u51&#45;&gt;u58</title>
<path fill="none" stroke="black" d="M2172.15,-4116.76C2185.22,-4071.12 2220.79,-3946.85 2236.54,-3891.83"/>
<polygon fill="black" stroke="black" points="2239.94,-3892.67 2239.33,-3882.09 2233.21,-3890.74 2239.94,-3892.67"/>
</g>
<!-- u51&#45;&gt;u56 -->
<g id="edge89" class="edge">
<title>u51&#45;&gt;u56</title>
<path fill="none" stroke="black" d="M2182.15,-4116.76C2222.27,-4070.44 2332.54,-3943.13 2379.07,-3889.42"/>
<polygon fill="black" stroke="black" points="2381.81,-3891.6 2385.71,-3881.75 2376.52,-3887.01 2381.81,-3891.6"/>
</g>
<!-- u51&#45;&gt;u55 -->
<g id="edge88" class="edge">
<title>u51&#45;&gt;u55</title>
<path fill="none" stroke="black" d="M2144.95,-4117.17C2083.2,-4070.51 1909.81,-3939.5 1840.44,-3887.08"/>
<polygon fill="black" stroke="black" points="1842.22,-3884.04 1832.13,-3880.8 1838,-3889.62 1842.22,-3884.04"/>
</g>
<!-- u51&#45;&gt;u53 -->
<g id="edge87" class="edge">
<title>u51&#45;&gt;u53</title>
<path fill="none" stroke="black" d="M2153.12,-4116.76C2115.31,-4070.53 2011.54,-3943.65 1967.46,-3889.75"/>
<polygon fill="black" stroke="black" points="1969.96,-3887.27 1960.92,-3881.75 1964.54,-3891.7 1969.96,-3887.27"/>
</g>
<!-- u51&#45;&gt;u52 -->
<g id="edge86" class="edge">
<title>u51&#45;&gt;u52</title>
<path fill="none" stroke="black" d="M2162.28,-4116.76C2149.22,-4071.12 2113.65,-3946.85 2097.9,-3891.83"/>
<polygon fill="black" stroke="black" points="2101.23,-3890.74 2095.11,-3882.09 2094.5,-3892.67 2101.23,-3890.74"/>
</g>
<!-- u51&#45;&gt;u38 -->
<g id="edge85" class="edge">
<title>u51&#45;&gt;u38</title>
<path fill="none" stroke="black" d="M2193.55,-4117.38C2267.23,-4070.85 2475.56,-3939.3 2558.51,-3886.92"/>
<polygon fill="black" stroke="black" points="2560.48,-3889.81 2567.07,-3881.51 2556.74,-3883.89 2560.48,-3889.81"/>
</g>
</g>
</svg>
