<?xml version="1.0" encoding="UTF-8" standalone="no"?>
<!DOCTYPE svg PUBLIC "-//W3C//DTD SVG 1.1//EN"
 "http://www.w3.org/Graphics/SVG/1.1/DTD/svg11.dtd">
<!-- Generated by graphviz version 2.43.0 (0)
 -->
<!-- Title: G Pages: 1 -->
<svg width="431pt" height="288pt"
 viewBox="0.00 0.00 431.20 288.00" xmlns="http://www.w3.org/2000/svg" xmlns:xlink="http://www.w3.org/1999/xlink">
<g id="graph0" class="graph" transform="scale(0.25 0.25) rotate(0) translate(4 1134)">
<title>G</title>
<polygon fill="white" stroke="transparent" points="-4,4 -4,-1134 1699.83,-1134 1699.83,4 -4,4"/>
<!-- u7 -->
<g id="node1" class="node">
<title>u7</title>
<ellipse fill="#bbffbb" stroke="black" cx="131.29" cy="-81" rx="122.38" ry="18"/>
<text text-anchor="middle" x="131.29" y="-77.3" font-family="Times,serif" font-size="14.00">Drasil.Website.Example</text>
</g>
<!-- u6 -->
<g id="node2" class="node">
<title>u6</title>
<ellipse fill="#bbffbb" stroke="black" cx="131.29" cy="-404" rx="131.08" ry="18"/>
<text text-anchor="middle" x="131.29" y="-400.3" font-family="Times,serif" font-size="14.00">Drasil.Website.CaseStudy</text>
</g>
<!-- u6&#45;&gt;u7 -->
<g id="edge7" class="edge">
<title>u6&#45;&gt;u7</title>
<path fill="none" stroke="black" d="M131.29,-385.74C131.29,-333.05 131.29,-173.96 131.29,-109.54"/>
<polygon fill="black" stroke="black" points="134.79,-109.34 131.29,-99.34 127.79,-109.34 134.79,-109.34"/>
</g>
<!-- u5 -->
<g id="node3" class="node">
<title>u5</title>
<ellipse fill="#bbffbb" stroke="black" cx="432.29" cy="-404" rx="152.17" ry="18"/>
<text text-anchor="middle" x="432.29" y="-400.3" font-family="Times,serif" font-size="14.00">Drasil.Website.Documentation</text>
</g>
<!-- u4 -->
<g id="node4" class="node">
<title>u4</title>
<ellipse fill="#bbffbb" stroke="black" cx="722.29" cy="-404" rx="120.48" ry="18"/>
<text text-anchor="middle" x="722.29" y="-400.3" font-family="Times,serif" font-size="14.00">Drasil.Website.Analysis</text>
</g>
<!-- u3 -->
<g id="node5" class="node">
<title>u3</title>
<ellipse fill="#bbffbb" stroke="black" cx="1012.29" cy="-404" rx="151.37" ry="18"/>
<text text-anchor="middle" x="1012.29" y="-400.3" font-family="Times,serif" font-size="14.00">Drasil.Website.GettingStarted</text>
</g>
<!-- u2 -->
<g id="node6" class="node">
<title>u2</title>
<ellipse fill="#bbffbb" stroke="black" cx="867.29" cy="-726" rx="104.78" ry="18"/>
<text text-anchor="middle" x="867.29" y="-722.3" font-family="Times,serif" font-size="14.00">Drasil.Website.Body</text>
</g>
<!-- u2&#45;&gt;u6 -->
<g id="edge6" class="edge">
<title>u2&#45;&gt;u6</title>
<path fill="none" stroke="black" d="M830.54,-709.02C708.15,-655.81 314.43,-484.63 178.2,-425.4"/>
<polygon fill="black" stroke="black" points="179.41,-422.11 168.84,-421.33 176.62,-428.53 179.41,-422.11"/>
</g>
<!-- u2&#45;&gt;u5 -->
<g id="edge5" class="edge">
<title>u2&#45;&gt;u5</title>
<path fill="none" stroke="black" d="M844.51,-708.25C772.08,-654.96 546.92,-489.33 463.66,-428.08"/>
<polygon fill="black" stroke="black" points="465.49,-425.08 455.36,-421.97 461.34,-430.72 465.49,-425.08"/>
</g>
<!-- u2&#45;&gt;u4 -->
<g id="edge4" class="edge">
<title>u2&#45;&gt;u4</title>
<path fill="none" stroke="black" d="M859.49,-707.8C835.59,-655.05 763.24,-495.37 734.37,-431.66"/>
<polygon fill="black" stroke="black" points="737.44,-429.95 730.12,-422.29 731.06,-432.84 737.44,-429.95"/>
</g>
<!-- u2&#45;&gt;u3 -->
<g id="edge3" class="edge">
<title>u2&#45;&gt;u3</title>
<path fill="none" stroke="black" d="M875.08,-707.8C898.98,-655.05 971.34,-495.37 1000.21,-431.66"/>
<polygon fill="black" stroke="black" points="1003.51,-432.84 1004.45,-422.29 997.14,-429.95 1003.51,-432.84"/>
</g>
<!-- u1 -->
<g id="node7" class="node">
<title>u1</title>
<ellipse fill="#bbffbb" stroke="black" cx="1321.29" cy="-404" rx="139.18" ry="18"/>
<text text-anchor="middle" x="1321.29" y="-400.3" font-family="Times,serif" font-size="14.00">Drasil.Website.Introduction</text>
</g>
<!-- u2&#45;&gt;u1 -->
<g id="edge2" class="edge">
<title>u2&#45;&gt;u1</title>
<path fill="none" stroke="black" d="M891.06,-708.25C966.82,-654.85 1202.67,-488.6 1289.12,-427.68"/>
<polygon fill="black" stroke="black" points="1291.32,-430.4 1297.48,-421.78 1287.29,-424.68 1291.32,-430.4"/>
</g>
<!-- u0 -->
<g id="node8" class="node">
<title>u0</title>
<ellipse fill="#bbffbb" stroke="black" cx="1587.29" cy="-404" rx="108.58" ry="18"/>
<text text-anchor="middle" x="1587.29" y="-400.3" font-family="Times,serif" font-size="14.00">Drasil.Website.About</text>
</g>
<!-- u2&#45;&gt;u0 -->
<g id="edge1" class="edge">
<title>u2&#45;&gt;u0</title>
<path fill="none" stroke="black" d="M903.49,-708.91C1023.53,-655.56 1408.43,-484.49 1541.51,-425.35"/>
<polygon fill="black" stroke="black" points="1543.3,-428.38 1551.02,-421.12 1540.46,-421.98 1543.3,-428.38"/>
</g>
<!-- u8 -->
<g id="node9" class="node">
<title>u8</title>
<ellipse fill="#ffffbb" stroke="black" cx="867.29" cy="-1049" rx="122.38" ry="18"/>
<text text-anchor="middle" x="867.29" y="-1045.3" font-family="Times,serif" font-size="14.00">drasil&#45;website.app.Main</text>
</g>
<!-- u8&#45;&gt;u2 -->
<g id="edge8" class="edge">
<title>u8&#45;&gt;u2</title>
<path fill="none" stroke="black" d="M867.29,-1030.74C867.29,-978.05 867.29,-818.96 867.29,-754.54"/>
<polygon fill="black" stroke="black" points="870.79,-754.34 867.29,-744.34 863.79,-754.34 870.79,-754.34"/>
</g>
</g>
</svg>
