<?xml version="1.0" encoding="UTF-8" standalone="no"?>
<!DOCTYPE svg PUBLIC "-//W3C//DTD SVG 1.1//EN"
 "http://www.w3.org/Graphics/SVG/1.1/DTD/svg11.dtd">
<!-- Generated by graphviz version 2.43.0 (0)
 -->
<!-- Title: G Pages: 1 -->
<svg width="431pt" height="288pt"
 viewBox="0.00 0.00 431.23 288.00" xmlns="http://www.w3.org/2000/svg" xmlns:xlink="http://www.w3.org/1999/xlink">
<g id="graph0" class="graph" transform="scale(3.95 3.95) rotate(0) translate(4 1134)">
<title>G</title>
<polygon fill="white" stroke="transparent" points="-4,4 -4,-1134 1699.98,-1134 1699.98,4 -4,4"/>
<!-- u7 -->
<g id="node1" class="node">
<title>u7</title>
<ellipse fill="#bbffbb" stroke="black" cx="108.54" cy="-404" rx="108.58" ry="18"/>
<text text-anchor="middle" x="108.54" y="-400.3" font-family="Times,serif" font-size="14.00">Drasil.Website.About</text>
</g>
<!-- u6 -->
<g id="node2" class="node">
<title>u6</title>
<ellipse fill="#bbffbb" stroke="black" cx="387.54" cy="-404" rx="152.17" ry="18"/>
<text text-anchor="middle" x="387.54" y="-400.3" font-family="Times,serif" font-size="14.00">Drasil.Website.Documentation</text>
</g>
<!-- u5 -->
<g id="node3" class="node">
<title>u5</title>
<ellipse fill="#bbffbb" stroke="black" cx="688.54" cy="-404" rx="131.08" ry="18"/>
<text text-anchor="middle" x="688.54" y="-400.3" font-family="Times,serif" font-size="14.00">Drasil.Website.CaseStudy</text>
</g>
<!-- u2 -->
<g id="node6" class="node">
<title>u2</title>
<ellipse fill="#bbffbb" stroke="black" cx="688.54" cy="-81" rx="122.38" ry="18"/>
<text text-anchor="middle" x="688.54" y="-77.3" font-family="Times,serif" font-size="14.00">Drasil.Website.Example</text>
</g>
<!-- u5&#45;&gt;u2 -->
<g id="edge7" class="edge">
<title>u5&#45;&gt;u2</title>
<path fill="none" stroke="black" d="M688.54,-385.74C688.54,-333.05 688.54,-173.96 688.54,-109.54"/>
<polygon fill="black" stroke="black" points="692.04,-109.34 688.54,-99.34 685.04,-109.34 692.04,-109.34"/>
</g>
<!-- u4 -->
<g id="node4" class="node">
<title>u4</title>
<ellipse fill="#bbffbb" stroke="black" cx="958.54" cy="-404" rx="120.48" ry="18"/>
<text text-anchor="middle" x="958.54" y="-400.3" font-family="Times,serif" font-size="14.00">Drasil.Website.Analysis</text>
</g>
<!-- u3 -->
<g id="node5" class="node">
<title>u3</title>
<ellipse fill="#bbffbb" stroke="black" cx="1235.54" cy="-404" rx="139.18" ry="18"/>
<text text-anchor="middle" x="1235.54" y="-400.3" font-family="Times,serif" font-size="14.00">Drasil.Website.Introduction</text>
</g>
<!-- u1 -->
<g id="node7" class="node">
<title>u1</title>
<ellipse fill="#bbffbb" stroke="black" cx="823.54" cy="-726" rx="104.78" ry="18"/>
<text text-anchor="middle" x="823.54" y="-722.3" font-family="Times,serif" font-size="14.00">Drasil.Website.Body</text>
</g>
<!-- u1&#45;&gt;u7 -->
<g id="edge6" class="edge">
<title>u1&#45;&gt;u7</title>
<path fill="none" stroke="black" d="M787.59,-708.91C668.38,-655.56 286.16,-484.49 154,-425.35"/>
<polygon fill="black" stroke="black" points="155.12,-422.01 144.56,-421.12 152.26,-428.4 155.12,-422.01"/>
</g>
<!-- u1&#45;&gt;u6 -->
<g id="edge5" class="edge">
<title>u1&#45;&gt;u6</title>
<path fill="none" stroke="black" d="M800.71,-708.25C728.11,-654.96 502.44,-489.33 418.98,-428.08"/>
<polygon fill="black" stroke="black" points="420.8,-425.07 410.67,-421.97 416.66,-430.71 420.8,-425.07"/>
</g>
<!-- u1&#45;&gt;u5 -->
<g id="edge4" class="edge">
<title>u1&#45;&gt;u5</title>
<path fill="none" stroke="black" d="M816.28,-707.8C794.03,-655.05 726.66,-495.37 699.79,-431.66"/>
<polygon fill="black" stroke="black" points="702.95,-430.14 695.83,-422.29 696.5,-432.86 702.95,-430.14"/>
</g>
<!-- u1&#45;&gt;u4 -->
<g id="edge3" class="edge">
<title>u1&#45;&gt;u4</title>
<path fill="none" stroke="black" d="M830.8,-707.8C853.05,-655.05 920.42,-495.37 947.29,-431.66"/>
<polygon fill="black" stroke="black" points="950.58,-432.86 951.25,-422.29 944.13,-430.14 950.58,-432.86"/>
</g>
<!-- u1&#45;&gt;u3 -->
<g id="edge2" class="edge">
<title>u1&#45;&gt;u3</title>
<path fill="none" stroke="black" d="M845.11,-708.25C913.64,-655.02 1126.54,-489.66 1205.59,-428.26"/>
<polygon fill="black" stroke="black" points="1207.94,-430.87 1213.69,-421.97 1203.64,-425.34 1207.94,-430.87"/>
</g>
<!-- u0 -->
<g id="node8" class="node">
<title>u0</title>
<ellipse fill="#bbffbb" stroke="black" cx="1544.54" cy="-404" rx="151.37" ry="18"/>
<text text-anchor="middle" x="1544.54" y="-400.3" font-family="Times,serif" font-size="14.00">Drasil.Website.GettingStarted</text>
</g>
<!-- u1&#45;&gt;u0 -->
<g id="edge1" class="edge">
<title>u1&#45;&gt;u0</title>
<path fill="none" stroke="black" d="M859.79,-708.91C979.84,-655.63 1364.42,-484.94 1498.17,-425.58"/>
<polygon fill="black" stroke="black" points="1499.64,-428.76 1507.36,-421.5 1496.8,-422.36 1499.64,-428.76"/>
</g>
<!-- u8 -->
<g id="node9" class="node">
<title>u8</title>
<ellipse fill="#ffffbb" stroke="black" cx="823.54" cy="-1049" rx="122.38" ry="18"/>
<text text-anchor="middle" x="823.54" y="-1045.3" font-family="Times,serif" font-size="14.00">drasil&#45;website.app.Main</text>
</g>
<!-- u8&#45;&gt;u1 -->
<g id="edge8" class="edge">
<title>u8&#45;&gt;u1</title>
<path fill="none" stroke="black" d="M823.54,-1030.74C823.54,-978.05 823.54,-818.96 823.54,-754.54"/>
<polygon fill="black" stroke="black" points="827.04,-754.34 823.54,-744.34 820.04,-754.34 827.04,-754.34"/>
</g>
</g>
</svg>
