<?xml version="1.0" encoding="UTF-8" standalone="no"?>
<!DOCTYPE svg PUBLIC "-//W3C//DTD SVG 1.1//EN"
 "http://www.w3.org/Graphics/SVG/1.1/DTD/svg11.dtd">
<!-- Generated by graphviz version 2.43.0 (0)
 -->
<!-- Title: G Pages: 1 -->
<svg width="431pt" height="288pt"
 viewBox="0.00 0.00 431.03 288.00" xmlns="http://www.w3.org/2000/svg" xmlns:xlink="http://www.w3.org/1999/xlink">
<g id="graph0" class="graph" transform="scale(3.95 3.95) rotate(0) translate(4 1134)">
<title>G</title>
<polygon fill="white" stroke="transparent" points="-4,4 -4,-1134 1699.17,-1134 1699.17,4 -4,4"/>
<!-- u8 -->
<g id="node1" class="node">
<title>u8</title>
<ellipse fill="#bbffbb" stroke="black" cx="152.09" cy="-404" rx="152.17" ry="18"/>
<text text-anchor="middle" x="152.09" y="-400.3" font-family="Times,serif" font-size="14.00">Drasil.Website.Documentation</text>
</g>
<!-- u7 -->
<g id="node2" class="node">
<title>u7</title>
<ellipse fill="#bbffbb" stroke="black" cx="442.09" cy="-404" rx="120.48" ry="18"/>
<text text-anchor="middle" x="442.09" y="-400.3" font-family="Times,serif" font-size="14.00">Drasil.Website.Analysis</text>
</g>
<!-- u6 -->
<g id="node3" class="node">
<title>u6</title>
<ellipse fill="#bbffbb" stroke="black" cx="732.09" cy="-404" rx="151.37" ry="18"/>
<text text-anchor="middle" x="732.09" y="-400.3" font-family="Times,serif" font-size="14.00">Drasil.Website.GettingStarted</text>
</g>
<!-- u5 -->
<g id="node4" class="node">
<title>u5</title>
<ellipse fill="#bbffbb" stroke="black" cx="1010.09" cy="-404" rx="108.58" ry="18"/>
<text text-anchor="middle" x="1010.09" y="-400.3" font-family="Times,serif" font-size="14.00">Drasil.Website.About</text>
</g>
<!-- u4 -->
<g id="node5" class="node">
<title>u4</title>
<ellipse fill="#bbffbb" stroke="black" cx="871.09" cy="-726" rx="104.78" ry="18"/>
<text text-anchor="middle" x="871.09" y="-722.3" font-family="Times,serif" font-size="14.00">Drasil.Website.Body</text>
</g>
<!-- u4&#45;&gt;u8 -->
<g id="edge8" class="edge">
<title>u4&#45;&gt;u8</title>
<path fill="none" stroke="black" d="M834.94,-708.91C715.22,-655.63 331.71,-484.94 198.33,-425.58"/>
<polygon fill="black" stroke="black" points="199.73,-422.37 189.17,-421.5 196.88,-428.77 199.73,-422.37"/>
</g>
<!-- u4&#45;&gt;u7 -->
<g id="edge7" class="edge">
<title>u4&#45;&gt;u7</title>
<path fill="none" stroke="black" d="M848.63,-708.25C777.18,-654.95 555.07,-489.28 472.98,-428.05"/>
<polygon fill="black" stroke="black" points="474.69,-424.95 464.58,-421.78 470.51,-430.57 474.69,-424.95"/>
</g>
<!-- u4&#45;&gt;u6 -->
<g id="edge6" class="edge">
<title>u4&#45;&gt;u6</title>
<path fill="none" stroke="black" d="M863.61,-707.8C840.7,-655.05 771.34,-495.37 743.67,-431.66"/>
<polygon fill="black" stroke="black" points="746.79,-430.07 739.6,-422.29 740.37,-432.86 746.79,-430.07"/>
</g>
<!-- u4&#45;&gt;u5 -->
<g id="edge5" class="edge">
<title>u4&#45;&gt;u5</title>
<path fill="none" stroke="black" d="M878.56,-707.8C901.47,-655.05 970.83,-495.37 998.51,-431.66"/>
<polygon fill="black" stroke="black" points="1001.8,-432.86 1002.58,-422.29 995.38,-430.07 1001.8,-432.86"/>
</g>
<!-- u3 -->
<g id="node6" class="node">
<title>u3</title>
<ellipse fill="#bbffbb" stroke="black" cx="1268.09" cy="-404" rx="131.08" ry="18"/>
<text text-anchor="middle" x="1268.09" y="-400.3" font-family="Times,serif" font-size="14.00">Drasil.Website.CaseStudy</text>
</g>
<!-- u4&#45;&gt;u3 -->
<g id="edge4" class="edge">
<title>u4&#45;&gt;u3</title>
<path fill="none" stroke="black" d="M891.87,-708.25C957.91,-655.02 1163.05,-489.66 1239.23,-428.26"/>
<polygon fill="black" stroke="black" points="1241.44,-430.97 1247.03,-421.97 1237.05,-425.52 1241.44,-430.97"/>
</g>
<!-- u1 -->
<g id="node8" class="node">
<title>u1</title>
<ellipse fill="#bbffbb" stroke="black" cx="1556.09" cy="-404" rx="139.18" ry="18"/>
<text text-anchor="middle" x="1556.09" y="-400.3" font-family="Times,serif" font-size="14.00">Drasil.Website.Introduction</text>
</g>
<!-- u4&#45;&gt;u1 -->
<g id="edge3" class="edge">
<title>u4&#45;&gt;u1</title>
<path fill="none" stroke="black" d="M905.53,-708.91C1019.47,-655.68 1384.23,-485.28 1511.65,-425.76"/>
<polygon fill="black" stroke="black" points="1513.18,-428.91 1520.76,-421.5 1510.22,-422.56 1513.18,-428.91"/>
</g>
<!-- u2 -->
<g id="node7" class="node">
<title>u2</title>
<ellipse fill="#bbffbb" stroke="black" cx="1268.09" cy="-81" rx="122.38" ry="18"/>
<text text-anchor="middle" x="1268.09" y="-77.3" font-family="Times,serif" font-size="14.00">Drasil.Website.Example</text>
</g>
<!-- u3&#45;&gt;u2 -->
<g id="edge2" class="edge">
<title>u3&#45;&gt;u2</title>
<path fill="none" stroke="black" d="M1268.09,-385.74C1268.09,-333.05 1268.09,-173.96 1268.09,-109.54"/>
<polygon fill="black" stroke="black" points="1271.59,-109.34 1268.09,-99.34 1264.59,-109.34 1271.59,-109.34"/>
</g>
<!-- u0 -->
<g id="node9" class="node">
<title>u0</title>
<ellipse fill="#ffffbb" stroke="black" cx="871.09" cy="-1049" rx="122.38" ry="18"/>
<text text-anchor="middle" x="871.09" y="-1045.3" font-family="Times,serif" font-size="14.00">drasil&#45;website.app.Main</text>
</g>
<!-- u0&#45;&gt;u4 -->
<g id="edge1" class="edge">
<title>u0&#45;&gt;u4</title>
<path fill="none" stroke="black" d="M871.09,-1030.74C871.09,-978.05 871.09,-818.96 871.09,-754.54"/>
<polygon fill="black" stroke="black" points="874.59,-754.34 871.09,-744.34 867.59,-754.34 874.59,-754.34"/>
</g>
</g>
</svg>
