<?xml version="1.0" encoding="UTF-8" standalone="no"?>
<!DOCTYPE svg PUBLIC "-//W3C//DTD SVG 1.1//EN"
 "http://www.w3.org/Graphics/SVG/1.1/DTD/svg11.dtd">
<!-- Generated by graphviz version 2.43.0 (0)
 -->
<!-- Title: G Pages: 1 -->
<svg width="432pt" height="282pt"
 viewBox="0.00 0.00 432.00 281.72" xmlns="http://www.w3.org/2000/svg" xmlns:xlink="http://www.w3.org/1999/xlink">
<g id="graph0" class="graph" transform="scale(0.14 0.14) rotate(0) translate(4 1962)">
<title>G</title>
<polygon fill="white" stroke="transparent" points="-4,4 -4,-1962 3010.78,-1962 3010.78,4 -4,4"/>
<!-- u1 -->
<g id="node1" class="node">
<title>u1</title>
<ellipse fill="#bbffbb" stroke="black" cx="1022.78" cy="-1762" rx="69.59" ry="18"/>
<text text-anchor="middle" x="1022.78" y="-1758.3" font-family="Times,serif" font-size="14.00">Drasil.GOOL</text>
</g>
<!-- u25 -->
<g id="node6" class="node">
<title>u25</title>
<ellipse fill="#ffffbb" stroke="black" cx="602.78" cy="-1292" rx="128.08" ry="18"/>
<text text-anchor="middle" x="602.78" y="-1288.3" font-family="Times,serif" font-size="14.00">Drasil.GOOL.CodeInfoOO</text>
</g>
<!-- u1&#45;&gt;u25 -->
<g id="edge8" class="edge">
<title>u1&#45;&gt;u25</title>
<path fill="none" stroke="black" d="M956.07,-1756.78C743.55,-1742.67 92.79,-1694.02 31.78,-1624 -119.61,-1450.24 319.33,-1345.2 514.46,-1308.15"/>
<polygon fill="black" stroke="black" points="515.23,-1311.57 524.41,-1306.28 513.94,-1304.69 515.23,-1311.57"/>
</g>
<!-- u17 -->
<g id="node18" class="node">
<title>u17</title>
<ellipse fill="#bbbbff" stroke="black" cx="265.78" cy="-1606" rx="224.76" ry="18"/>
<text text-anchor="middle" x="265.78" y="-1602.3" font-family="Times,serif" font-size="14.00">Drasil.GOOL.LanguageRenderer.CppRenderer</text>
</g>
<!-- u1&#45;&gt;u17 -->
<g id="edge7" class="edge">
<title>u1&#45;&gt;u17</title>
<path fill="none" stroke="black" d="M969.85,-1750.23C841.58,-1724.14 512.99,-1657.29 354.25,-1625"/>
<polygon fill="black" stroke="black" points="354.54,-1621.49 344.05,-1622.92 353.15,-1628.34 354.54,-1621.49"/>
</g>
<!-- u15 -->
<g id="node20" class="node">
<title>u15</title>
<ellipse fill="#bbbbff" stroke="black" cx="1752.78" cy="-1606" rx="225.56" ry="18"/>
<text text-anchor="middle" x="1752.78" y="-1602.3" font-family="Times,serif" font-size="14.00">Drasil.GOOL.LanguageRenderer.JavaRenderer</text>
</g>
<!-- u1&#45;&gt;u15 -->
<g id="edge6" class="edge">
<title>u1&#45;&gt;u15</title>
<path fill="none" stroke="black" d="M1074.99,-1749.99C1199.44,-1723.73 1514.56,-1657.26 1667.24,-1625.04"/>
<polygon fill="black" stroke="black" points="1668,-1628.46 1677.06,-1622.97 1666.56,-1621.61 1668,-1628.46"/>
</g>
<!-- u12 -->
<g id="node23" class="node">
<title>u12</title>
<ellipse fill="#bbbbff" stroke="black" cx="777.78" cy="-1606" rx="230.96" ry="18"/>
<text text-anchor="middle" x="777.78" y="-1602.3" font-family="Times,serif" font-size="14.00">Drasil.GOOL.LanguageRenderer.SwiftRenderer</text>
</g>
<!-- u1&#45;&gt;u12 -->
<g id="edge5" class="edge">
<title>u1&#45;&gt;u12</title>
<path fill="none" stroke="black" d="M997.48,-1745.1C953.66,-1717.55 863.5,-1660.88 813.37,-1629.37"/>
<polygon fill="black" stroke="black" points="815.13,-1626.34 804.8,-1623.98 811.4,-1632.27 815.13,-1626.34"/>
</g>
<!-- u11 -->
<g id="node24" class="node">
<title>u11</title>
<ellipse fill="#bbbbff" stroke="black" cx="2235.78" cy="-1606" rx="239.36" ry="18"/>
<text text-anchor="middle" x="2235.78" y="-1602.3" font-family="Times,serif" font-size="14.00">Drasil.GOOL.LanguageRenderer.PythonRenderer</text>
</g>
<!-- u1&#45;&gt;u11 -->
<g id="edge4" class="edge">
<title>u1&#45;&gt;u11</title>
<path fill="none" stroke="black" d="M1083.77,-1753.26C1272.69,-1729.27 1851,-1655.85 2109.1,-1623.08"/>
<polygon fill="black" stroke="black" points="2109.79,-1626.52 2119.27,-1621.79 2108.91,-1619.58 2109.79,-1626.52"/>
</g>
<!-- u7 -->
<g id="node28" class="node">
<title>u7</title>
<ellipse fill="#bbbbff" stroke="black" cx="1267.78" cy="-1606" rx="241.26" ry="18"/>
<text text-anchor="middle" x="1267.78" y="-1602.3" font-family="Times,serif" font-size="14.00">Drasil.GOOL.LanguageRenderer.CSharpRenderer</text>
</g>
<!-- u1&#45;&gt;u7 -->
<g id="edge3" class="edge">
<title>u1&#45;&gt;u7</title>
<path fill="none" stroke="black" d="M1048.08,-1745.1C1091.91,-1717.55 1182.06,-1660.88 1232.19,-1629.37"/>
<polygon fill="black" stroke="black" points="1234.16,-1632.27 1240.77,-1623.98 1230.44,-1626.34 1234.16,-1632.27"/>
</g>
<!-- u0 -->
<g id="node2" class="node">
<title>u0</title>
<ellipse fill="#bbffbb" stroke="black" cx="2878.78" cy="-1919" rx="69.59" ry="18"/>
<text text-anchor="middle" x="2878.78" y="-1915.3" font-family="Times,serif" font-size="14.00">Drasil.GProc</text>
</g>
<!-- u26 -->
<g id="node5" class="node">
<title>u26</title>
<ellipse fill="#ffffbb" stroke="black" cx="2532.78" cy="-822" rx="134.58" ry="18"/>
<text text-anchor="middle" x="2532.78" y="-818.3" font-family="Times,serif" font-size="14.00">Drasil.GOOL.CodeInfoProc</text>
</g>
<!-- u0&#45;&gt;u26 -->
<g id="edge2" class="edge">
<title>u0&#45;&gt;u26</title>
<path fill="none" stroke="black" d="M2891.29,-1901.14C2923.5,-1855.98 3006.78,-1727.57 3006.78,-1607 3006.78,-1607 3006.78,-1607 3006.78,-1135 3006.78,-951.66 2756.31,-870 2619.52,-839.08"/>
<polygon fill="black" stroke="black" points="2619.98,-835.6 2609.46,-836.85 2618.47,-842.43 2619.98,-835.6"/>
</g>
<!-- u16 -->
<g id="node19" class="node">
<title>u16</title>
<ellipse fill="#bbbbff" stroke="black" cx="2626.78" cy="-1762" rx="226.66" ry="18"/>
<text text-anchor="middle" x="2626.78" y="-1758.3" font-family="Times,serif" font-size="14.00">Drasil.GOOL.LanguageRenderer.JuliaRenderer</text>
</g>
<!-- u0&#45;&gt;u16 -->
<g id="edge1" class="edge">
<title>u0&#45;&gt;u16</title>
<path fill="none" stroke="black" d="M2852.76,-1902C2807.68,-1874.27 2714.95,-1817.23 2663.39,-1785.52"/>
<polygon fill="black" stroke="black" points="2664.92,-1782.35 2654.57,-1780.09 2661.25,-1788.31 2664.92,-1782.35"/>
</g>
<!-- u28 -->
<g id="node3" class="node">
<title>u28</title>
<ellipse fill="#ffffbb" stroke="black" cx="2288.78" cy="-666" rx="135.38" ry="18"/>
<text text-anchor="middle" x="2288.78" y="-662.3" font-family="Times,serif" font-size="14.00">Drasil.GOOL.InterfaceProc</text>
</g>
<!-- u5 -->
<g id="node14" class="node">
<title>u5</title>
<ellipse fill="#ffffbb" stroke="black" cx="1943.78" cy="-509" rx="155.17" ry="18"/>
<text text-anchor="middle" x="1943.78" y="-505.3" font-family="Times,serif" font-size="14.00">Drasil.GOOL.InterfaceCommon</text>
</g>
<!-- u28&#45;&gt;u5 -->
<g id="edge50" class="edge">
<title>u28&#45;&gt;u5</title>
<path fill="none" stroke="black" d="M2252.19,-648.56C2188.92,-620.13 2059.22,-561.86 1989.89,-530.71"/>
<polygon fill="black" stroke="black" points="1991.08,-527.41 1980.52,-526.51 1988.21,-533.8 1991.08,-527.41"/>
</g>
<!-- u27 -->
<g id="node4" class="node">
<title>u27</title>
<ellipse fill="#ffffbb" stroke="black" cx="1592.78" cy="-822" rx="165.17" ry="18"/>
<text text-anchor="middle" x="1592.78" y="-818.3" font-family="Times,serif" font-size="14.00">Drasil.GOOL.RendererClassesOO</text>
</g>
<!-- u21 -->
<g id="node10" class="node">
<title>u21</title>
<ellipse fill="#ffffbb" stroke="black" cx="1592.78" cy="-666" rx="141.88" ry="18"/>
<text text-anchor="middle" x="1592.78" y="-662.3" font-family="Times,serif" font-size="14.00">Drasil.GOOL.InterfaceGOOL</text>
</g>
<!-- u27&#45;&gt;u21 -->
<g id="edge49" class="edge">
<title>u27&#45;&gt;u21</title>
<path fill="none" stroke="black" d="M1592.78,-803.93C1592.78,-777.45 1592.78,-726.22 1592.78,-694.49"/>
<polygon fill="black" stroke="black" points="1596.28,-694.15 1592.78,-684.15 1589.28,-694.15 1596.28,-694.15"/>
</g>
<!-- u18 -->
<g id="node13" class="node">
<title>u18</title>
<ellipse fill="#ffffbb" stroke="black" cx="1943.78" cy="-666" rx="191.97" ry="18"/>
<text text-anchor="middle" x="1943.78" y="-662.3" font-family="Times,serif" font-size="14.00">Drasil.GOOL.RendererClassesCommon</text>
</g>
<!-- u27&#45;&gt;u18 -->
<g id="edge48" class="edge">
<title>u27&#45;&gt;u18</title>
<path fill="none" stroke="black" d="M1630.68,-804.37C1695.1,-776.11 1825.81,-718.76 1896.25,-687.85"/>
<polygon fill="black" stroke="black" points="1898.03,-690.9 1905.78,-683.67 1895.21,-684.49 1898.03,-690.9"/>
</g>
<!-- u26&#45;&gt;u28 -->
<g id="edge47" class="edge">
<title>u26&#45;&gt;u28</title>
<path fill="none" stroke="black" d="M2506.2,-804.23C2462.02,-776.34 2373.44,-720.43 2324.07,-689.27"/>
<polygon fill="black" stroke="black" points="2325.65,-686.13 2315.33,-683.75 2321.91,-692.05 2325.65,-686.13"/>
</g>
<!-- u22 -->
<g id="node9" class="node">
<title>u22</title>
<ellipse fill="#ffffbb" stroke="black" cx="2286.78" cy="-509" rx="108.58" ry="18"/>
<text text-anchor="middle" x="2286.78" y="-505.3" font-family="Times,serif" font-size="14.00">Drasil.GOOL.Helpers</text>
</g>
<!-- u26&#45;&gt;u22 -->
<g id="edge46" class="edge">
<title>u26&#45;&gt;u22</title>
<path fill="none" stroke="black" d="M2524.9,-803.77C2509.68,-771.44 2474.08,-700.26 2432.78,-648 2397.34,-603.16 2347.46,-559.19 2316.14,-533.34"/>
<polygon fill="black" stroke="black" points="2318.16,-530.48 2308.21,-526.86 2313.73,-535.9 2318.16,-530.48"/>
</g>
<!-- u25&#45;&gt;u21 -->
<g id="edge45" class="edge">
<title>u25&#45;&gt;u21</title>
<path fill="none" stroke="black" d="M629.26,-1274.31C766.89,-1187.56 1400.22,-788.37 1557.4,-689.3"/>
<polygon fill="black" stroke="black" points="1559.63,-692.04 1566.22,-683.74 1555.89,-686.11 1559.63,-692.04"/>
</g>
<!-- u24 -->
<g id="node7" class="node">
<title>u24</title>
<ellipse fill="#ffffbb" stroke="black" cx="2208.78" cy="-822" rx="171.67" ry="18"/>
<text text-anchor="middle" x="2208.78" y="-818.3" font-family="Times,serif" font-size="14.00">Drasil.GOOL.RendererClassesProc</text>
</g>
<!-- u24&#45;&gt;u28 -->
<g id="edge44" class="edge">
<title>u24&#45;&gt;u28</title>
<path fill="none" stroke="black" d="M2217.65,-803.93C2231.58,-777.1 2258.71,-724.88 2275.15,-693.25"/>
<polygon fill="black" stroke="black" points="2278.37,-694.63 2279.87,-684.15 2272.16,-691.41 2278.37,-694.63"/>
</g>
<!-- u24&#45;&gt;u18 -->
<g id="edge43" class="edge">
<title>u24&#45;&gt;u18</title>
<path fill="none" stroke="black" d="M2179.92,-804.23C2131.86,-776.3 2035.43,-720.26 1981.86,-689.13"/>
<polygon fill="black" stroke="black" points="1983.42,-685.99 1973.01,-683.99 1979.9,-692.04 1983.42,-685.99"/>
</g>
<!-- u23 -->
<g id="node8" class="node">
<title>u23</title>
<ellipse fill="#ffffbb" stroke="black" cx="265.78" cy="-1449" rx="107.48" ry="18"/>
<text text-anchor="middle" x="265.78" y="-1445.3" font-family="Times,serif" font-size="14.00">Drasil.GOOL.Classes</text>
</g>
<!-- u20 -->
<g id="node11" class="node">
<title>u20</title>
<ellipse fill="#ffffbb" stroke="black" cx="2083.78" cy="-39" rx="118.08" ry="18"/>
<text text-anchor="middle" x="2083.78" y="-35.3" font-family="Times,serif" font-size="14.00">Drasil.GOOL.CodeType</text>
</g>
<!-- u22&#45;&gt;u20 -->
<g id="edge42" class="edge">
<title>u22&#45;&gt;u20</title>
<path fill="none" stroke="black" d="M2290.53,-490.89C2300.81,-439.69 2325.02,-284.7 2267.78,-178 2237.91,-122.32 2174.66,-82.75 2130.71,-60.64"/>
<polygon fill="black" stroke="black" points="2132.17,-57.46 2121.65,-56.19 2129.08,-63.74 2132.17,-57.46"/>
</g>
<!-- u21&#45;&gt;u22 -->
<g id="edge41" class="edge">
<title>u21&#45;&gt;u22</title>
<path fill="none" stroke="black" d="M1659.64,-650.07C1790.55,-620.83 2079.67,-556.26 2214.68,-526.1"/>
<polygon fill="black" stroke="black" points="2215.53,-529.5 2224.52,-523.9 2214,-522.67 2215.53,-529.5"/>
</g>
<!-- u21&#45;&gt;u5 -->
<g id="edge40" class="edge">
<title>u21&#45;&gt;u5</title>
<path fill="none" stroke="black" d="M1630.01,-648.56C1694.38,-620.13 1826.34,-561.86 1896.87,-530.71"/>
<polygon fill="black" stroke="black" points="1898.67,-533.75 1906.4,-526.51 1895.84,-527.34 1898.67,-533.75"/>
</g>
<!-- u19 -->
<g id="node12" class="node">
<title>u19</title>
<ellipse fill="#ffffbb" stroke="black" cx="1943.78" cy="-352" rx="96.68" ry="18"/>
<text text-anchor="middle" x="1943.78" y="-348.3" font-family="Times,serif" font-size="14.00">Drasil.GOOL.State</text>
</g>
<!-- u3 -->
<g id="node16" class="node">
<title>u3</title>
<ellipse fill="#ffffbb" stroke="black" cx="1881.78" cy="-196" rx="90.98" ry="18"/>
<text text-anchor="middle" x="1881.78" y="-192.3" font-family="Times,serif" font-size="14.00">Drasil.GOOL.AST</text>
</g>
<!-- u19&#45;&gt;u3 -->
<g id="edge39" class="edge">
<title>u19&#45;&gt;u3</title>
<path fill="none" stroke="black" d="M1936.91,-333.93C1926.16,-307.22 1905.26,-255.33 1892.51,-223.66"/>
<polygon fill="black" stroke="black" points="1895.67,-222.11 1888.68,-214.15 1889.17,-224.73 1895.67,-222.11"/>
</g>
<!-- u2 -->
<g id="node17" class="node">
<title>u2</title>
<ellipse fill="#ffffbb" stroke="black" cx="2124.78" cy="-196" rx="133.78" ry="18"/>
<text text-anchor="middle" x="2124.78" y="-192.3" font-family="Times,serif" font-size="14.00">Drasil.GOOL.CodeAnalysis</text>
</g>
<!-- u19&#45;&gt;u2 -->
<g id="edge38" class="edge">
<title>u19&#45;&gt;u2</title>
<path fill="none" stroke="black" d="M1963.5,-334.23C1995.78,-306.76 2060.01,-252.11 2096.93,-220.69"/>
<polygon fill="black" stroke="black" points="2099.47,-223.13 2104.82,-213.99 2094.93,-217.8 2099.47,-223.13"/>
</g>
<!-- u18&#45;&gt;u5 -->
<g id="edge37" class="edge">
<title>u18&#45;&gt;u5</title>
<path fill="none" stroke="black" d="M1943.78,-647.82C1943.78,-621.17 1943.78,-569.61 1943.78,-537.66"/>
<polygon fill="black" stroke="black" points="1947.28,-537.26 1943.78,-527.26 1940.28,-537.26 1947.28,-537.26"/>
</g>
<!-- u5&#45;&gt;u19 -->
<g id="edge11" class="edge">
<title>u5&#45;&gt;u19</title>
<path fill="none" stroke="black" d="M1943.78,-490.82C1943.78,-464.17 1943.78,-412.61 1943.78,-380.66"/>
<polygon fill="black" stroke="black" points="1947.28,-380.26 1943.78,-370.26 1940.28,-380.26 1947.28,-380.26"/>
</g>
<!-- u4 -->
<g id="node15" class="node">
<title>u4</title>
<ellipse fill="#ffffbb" stroke="black" cx="1592.78" cy="-979" rx="161.37" ry="18"/>
<text text-anchor="middle" x="1592.78" y="-975.3" font-family="Times,serif" font-size="14.00">Drasil.GOOL.LanguageRenderer</text>
</g>
<!-- u4&#45;&gt;u27 -->
<g id="edge10" class="edge">
<title>u4&#45;&gt;u27</title>
<path fill="none" stroke="black" d="M1592.78,-960.82C1592.78,-934.17 1592.78,-882.61 1592.78,-850.66"/>
<polygon fill="black" stroke="black" points="1596.28,-850.26 1592.78,-840.26 1589.28,-850.26 1596.28,-850.26"/>
</g>
<!-- u3&#45;&gt;u20 -->
<g id="edge9" class="edge">
<title>u3&#45;&gt;u20</title>
<path fill="none" stroke="black" d="M1903.4,-178.41C1939.68,-150.58 2012.87,-94.41 2053.99,-62.86"/>
<polygon fill="black" stroke="black" points="2056.21,-65.57 2062.01,-56.7 2051.95,-60.01 2056.21,-65.57"/>
</g>
<!-- u17&#45;&gt;u23 -->
<g id="edge36" class="edge">
<title>u17&#45;&gt;u23</title>
<path fill="none" stroke="black" d="M265.78,-1587.82C265.78,-1561.17 265.78,-1509.61 265.78,-1477.66"/>
<polygon fill="black" stroke="black" points="269.28,-1477.26 265.78,-1467.26 262.28,-1477.26 269.28,-1477.26"/>
</g>
<!-- u10 -->
<g id="node25" class="node">
<title>u10</title>
<ellipse fill="#bbbbff" stroke="black" cx="1742.78" cy="-1449" rx="251.56" ry="18"/>
<text text-anchor="middle" x="1742.78" y="-1445.3" font-family="Times,serif" font-size="14.00">Drasil.GOOL.LanguageRenderer.CommonPseudoOO</text>
</g>
<!-- u17&#45;&gt;u10 -->
<g id="edge35" class="edge">
<title>u17&#45;&gt;u10</title>
<path fill="none" stroke="black" d="M396.21,-1591.31C671.41,-1562.43 1309.75,-1495.44 1597.5,-1465.25"/>
<polygon fill="black" stroke="black" points="1598.01,-1468.71 1607.59,-1464.19 1597.28,-1461.75 1598.01,-1468.71"/>
</g>
<!-- u9 -->
<g id="node26" class="node">
<title>u9</title>
<ellipse fill="#bbbbff" stroke="black" cx="1276.78" cy="-1449" rx="196.87" ry="18"/>
<text text-anchor="middle" x="1276.78" y="-1445.3" font-family="Times,serif" font-size="14.00">Drasil.GOOL.LanguageRenderer.Macros</text>
</g>
<!-- u17&#45;&gt;u9 -->
<g id="edge34" class="edge">
<title>u17&#45;&gt;u9</title>
<path fill="none" stroke="black" d="M365.02,-1589.78C556.23,-1560.47 974.1,-1496.4 1170.63,-1466.27"/>
<polygon fill="black" stroke="black" points="1171.32,-1469.71 1180.68,-1464.73 1170.26,-1462.79 1171.32,-1469.71"/>
</g>
<!-- u6 -->
<g id="node29" class="node">
<title>u6</title>
<ellipse fill="#bbbbff" stroke="black" cx="820.78" cy="-1449" rx="189.27" ry="18"/>
<text text-anchor="middle" x="820.78" y="-1445.3" font-family="Times,serif" font-size="14.00">Drasil.GOOL.LanguageRenderer.CLike</text>
</g>
<!-- u17&#45;&gt;u6 -->
<g id="edge33" class="edge">
<title>u17&#45;&gt;u6</title>
<path fill="none" stroke="black" d="M324.65,-1588.56C428.5,-1559.56 643.61,-1499.48 753.3,-1468.85"/>
<polygon fill="black" stroke="black" points="754.24,-1472.22 762.93,-1466.16 752.36,-1465.47 754.24,-1472.22"/>
</g>
<!-- u13 -->
<g id="node22" class="node">
<title>u13</title>
<ellipse fill="#bbbbff" stroke="black" cx="2754.78" cy="-1606" rx="223.66" ry="18"/>
<text text-anchor="middle" x="2754.78" y="-1602.3" font-family="Times,serif" font-size="14.00">Drasil.GOOL.LanguageRenderer.AbstractProc</text>
</g>
<!-- u16&#45;&gt;u13 -->
<g id="edge32" class="edge">
<title>u16&#45;&gt;u13</title>
<path fill="none" stroke="black" d="M2640.97,-1743.93C2663.55,-1716.76 2707.8,-1663.52 2733.98,-1632.03"/>
<polygon fill="black" stroke="black" points="2736.83,-1634.07 2740.53,-1624.15 2731.45,-1629.6 2736.83,-1634.07"/>
</g>
<!-- u16&#45;&gt;u9 -->
<g id="edge31" class="edge">
<title>u16&#45;&gt;u9</title>
<path fill="none" stroke="black" d="M2613.87,-1743.97C2582.08,-1702.22 2501.29,-1597.5 2483.78,-1588 2437.46,-1562.88 1727.84,-1492.88 1418.8,-1463.38"/>
<polygon fill="black" stroke="black" points="1418.71,-1459.85 1408.43,-1462.39 1418.05,-1466.82 1418.71,-1459.85"/>
</g>
<!-- u16&#45;&gt;u6 -->
<g id="edge30" class="edge">
<title>u16&#45;&gt;u6</title>
<path fill="none" stroke="black" d="M2417.73,-1754.92C1901.13,-1738.88 601.41,-1691.94 537.78,-1624 467.91,-1549.4 630.4,-1494.7 737.02,-1468.1"/>
<polygon fill="black" stroke="black" points="737.96,-1471.47 746.83,-1465.69 736.29,-1464.67 737.96,-1471.47"/>
</g>
<!-- u15&#45;&gt;u10 -->
<g id="edge29" class="edge">
<title>u15&#45;&gt;u10</title>
<path fill="none" stroke="black" d="M1751.67,-1587.82C1749.95,-1561.05 1746.6,-1509.16 1744.54,-1477.25"/>
<polygon fill="black" stroke="black" points="1748.03,-1477.01 1743.89,-1467.26 1741.05,-1477.46 1748.03,-1477.01"/>
</g>
<!-- u15&#45;&gt;u9 -->
<g id="edge28" class="edge">
<title>u15&#45;&gt;u9</title>
<path fill="none" stroke="black" d="M1701.84,-1588.41C1613.36,-1559.6 1431.68,-1500.44 1337.07,-1469.63"/>
<polygon fill="black" stroke="black" points="1337.95,-1466.24 1327.36,-1466.47 1335.78,-1472.89 1337.95,-1466.24"/>
</g>
<!-- u15&#45;&gt;u6 -->
<g id="edge27" class="edge">
<title>u15&#45;&gt;u6</title>
<path fill="none" stroke="black" d="M1660.01,-1589.57C1483.78,-1560.26 1102.01,-1496.77 920.51,-1466.59"/>
<polygon fill="black" stroke="black" points="920.87,-1463.1 910.44,-1464.91 919.73,-1470 920.87,-1463.1"/>
</g>
<!-- u14 -->
<g id="node21" class="node">
<title>u14</title>
<ellipse fill="#bbbbff" stroke="black" cx="1592.78" cy="-1136" rx="223.66" ry="18"/>
<text text-anchor="middle" x="1592.78" y="-1132.3" font-family="Times,serif" font-size="14.00">Drasil.GOOL.LanguageRenderer.Constructors</text>
</g>
<!-- u14&#45;&gt;u4 -->
<g id="edge26" class="edge">
<title>u14&#45;&gt;u4</title>
<path fill="none" stroke="black" d="M1592.78,-1117.82C1592.78,-1091.17 1592.78,-1039.61 1592.78,-1007.66"/>
<polygon fill="black" stroke="black" points="1596.28,-1007.26 1592.78,-997.26 1589.28,-1007.26 1596.28,-1007.26"/>
</g>
<!-- u13&#45;&gt;u24 -->
<g id="edge25" class="edge">
<title>u13&#45;&gt;u24</title>
<path fill="none" stroke="black" d="M2721.92,-1588.15C2648.54,-1547.9 2477.78,-1438.59 2477.78,-1293 2477.78,-1293 2477.78,-1293 2477.78,-1135 2477.78,-996.52 2323.89,-889.03 2248.9,-844.88"/>
<polygon fill="black" stroke="black" points="2250.57,-841.8 2240.17,-839.81 2247.06,-847.85 2250.57,-841.8"/>
</g>
<!-- u13&#45;&gt;u10 -->
<g id="edge24" class="edge">
<title>u13&#45;&gt;u10</title>
<path fill="none" stroke="black" d="M2655.9,-1589.86C2466.35,-1560.82 2053.03,-1497.52 1854.11,-1467.05"/>
<polygon fill="black" stroke="black" points="1854.35,-1463.55 1843.94,-1465.49 1853.29,-1470.47 1854.35,-1463.55"/>
</g>
<!-- u12&#45;&gt;u10 -->
<g id="edge23" class="edge">
<title>u12&#45;&gt;u10</title>
<path fill="none" stroke="black" d="M873.84,-1589.57C1054.97,-1560.48 1445.8,-1497.7 1635.34,-1467.26"/>
<polygon fill="black" stroke="black" points="1636,-1470.7 1645.32,-1465.65 1634.89,-1463.78 1636,-1470.7"/>
</g>
<!-- u12&#45;&gt;u9 -->
<g id="edge22" class="edge">
<title>u12&#45;&gt;u9</title>
<path fill="none" stroke="black" d="M831.18,-1588.41C924.25,-1559.5 1115.67,-1500.05 1214.57,-1469.32"/>
<polygon fill="black" stroke="black" points="1215.63,-1472.66 1224.14,-1466.35 1213.55,-1465.98 1215.63,-1472.66"/>
</g>
<!-- u12&#45;&gt;u6 -->
<g id="edge21" class="edge">
<title>u12&#45;&gt;u6</title>
<path fill="none" stroke="black" d="M782.55,-1587.82C789.97,-1561.05 804.37,-1509.16 813.22,-1477.25"/>
<polygon fill="black" stroke="black" points="816.69,-1477.83 815.99,-1467.26 809.95,-1475.96 816.69,-1477.83"/>
</g>
<!-- u11&#45;&gt;u10 -->
<g id="edge20" class="edge">
<title>u11&#45;&gt;u10</title>
<path fill="none" stroke="black" d="M2183.02,-1588.41C2091.52,-1559.65 1903.82,-1500.63 1805.69,-1469.78"/>
<polygon fill="black" stroke="black" points="1806.5,-1466.36 1795.91,-1466.7 1804.4,-1473.04 1806.5,-1466.36"/>
</g>
<!-- u11&#45;&gt;u9 -->
<g id="edge19" class="edge">
<title>u11&#45;&gt;u9</title>
<path fill="none" stroke="black" d="M2139.88,-1589.5C1958.33,-1560.16 1565.96,-1496.74 1379.37,-1466.58"/>
<polygon fill="black" stroke="black" points="1379.71,-1463.09 1369.28,-1464.95 1378.59,-1470 1379.71,-1463.09"/>
</g>
<!-- u8 -->
<g id="node27" class="node">
<title>u8</title>
<ellipse fill="#bbbbff" stroke="black" cx="1656.78" cy="-1292" rx="265.65" ry="18"/>
<text text-anchor="middle" x="1656.78" y="-1288.3" font-family="Times,serif" font-size="14.00">Drasil.GOOL.LanguageRenderer.LanguagePolymorphic</text>
</g>
<!-- u10&#45;&gt;u8 -->
<g id="edge18" class="edge">
<title>u10&#45;&gt;u8</title>
<path fill="none" stroke="black" d="M1733.25,-1430.82C1718.2,-1403.7 1688.85,-1350.8 1671.21,-1319.01"/>
<polygon fill="black" stroke="black" points="1674.27,-1317.3 1666.36,-1310.26 1668.15,-1320.7 1674.27,-1317.3"/>
</g>
<!-- u9&#45;&gt;u27 -->
<g id="edge17" class="edge">
<title>u9&#45;&gt;u27</title>
<path fill="none" stroke="black" d="M1277.83,-1430.63C1282.66,-1363.5 1307.82,-1116.95 1422.78,-961 1459.22,-911.57 1517.37,-869.57 1555.32,-845.31"/>
<polygon fill="black" stroke="black" points="1557.43,-848.11 1564.03,-839.82 1553.7,-842.19 1557.43,-848.11"/>
</g>
<!-- u8&#45;&gt;u14 -->
<g id="edge16" class="edge">
<title>u8&#45;&gt;u14</title>
<path fill="none" stroke="black" d="M1649.69,-1273.93C1638.59,-1247.22 1617.02,-1195.33 1603.86,-1163.66"/>
<polygon fill="black" stroke="black" points="1606.98,-1162.04 1599.91,-1154.15 1600.51,-1164.72 1606.98,-1162.04"/>
</g>
<!-- u7&#45;&gt;u10 -->
<g id="edge15" class="edge">
<title>u7&#45;&gt;u10</title>
<path fill="none" stroke="black" d="M1319.07,-1588.27C1407.34,-1559.46 1587.59,-1500.64 1682.02,-1469.83"/>
<polygon fill="black" stroke="black" points="1683.29,-1473.09 1691.71,-1466.67 1681.12,-1466.44 1683.29,-1473.09"/>
</g>
<!-- u7&#45;&gt;u9 -->
<g id="edge14" class="edge">
<title>u7&#45;&gt;u9</title>
<path fill="none" stroke="black" d="M1268.78,-1587.82C1270.33,-1561.05 1273.35,-1509.16 1275.2,-1477.25"/>
<polygon fill="black" stroke="black" points="1278.69,-1477.44 1275.78,-1467.26 1271.71,-1477.04 1278.69,-1477.44"/>
</g>
<!-- u7&#45;&gt;u6 -->
<g id="edge13" class="edge">
<title>u7&#45;&gt;u6</title>
<path fill="none" stroke="black" d="M1219.52,-1588.27C1136.4,-1559.44 966.62,-1500.57 877.8,-1469.77"/>
<polygon fill="black" stroke="black" points="878.76,-1466.4 868.17,-1466.43 876.47,-1473.01 878.76,-1466.4"/>
</g>
<!-- u6&#45;&gt;u14 -->
<g id="edge12" class="edge">
<title>u6&#45;&gt;u14</title>
<path fill="none" stroke="black" d="M862.01,-1431.39C992.74,-1378.73 1397.79,-1215.55 1541.54,-1157.64"/>
<polygon fill="black" stroke="black" points="1543.06,-1160.8 1551.03,-1153.82 1540.44,-1154.31 1543.06,-1160.8"/>
</g>
</g>
</svg>
