<?xml version="1.0" encoding="UTF-8" standalone="no"?>
<!DOCTYPE svg PUBLIC "-//W3C//DTD SVG 1.1//EN"
 "http://www.w3.org/Graphics/SVG/1.1/DTD/svg11.dtd">
<!-- Generated by graphviz version 2.43.0 (0)
 -->
<!-- Title: G Pages: 1 -->
<svg width="431pt" height="288pt"
 viewBox="0.00 0.00 431.03 288.00" xmlns="http://www.w3.org/2000/svg" xmlns:xlink="http://www.w3.org/1999/xlink">
<g id="graph0" class="graph" transform="scale(0.25 0.25) rotate(0) translate(4 1135.33)">
<title>G</title>
<polygon fill="white" stroke="transparent" points="-4,4 -4,-1135.33 1701.17,-1135.33 1701.17,4 -4,4"/>
<!-- u7 -->
<g id="node1" class="node">
<title>u7</title>
<ellipse fill="#bbffbb" stroke="black" cx="152.09" cy="-404" rx="152.17" ry="18"/>
<text text-anchor="middle" x="152.09" y="-400.3" font-family="Times,serif" font-size="14.00">Drasil.Website.Documentation</text>
</g>
<!-- u6 -->
<g id="node2" class="node">
<title>u6</title>
<ellipse fill="#bbffbb" stroke="black" cx="431.09" cy="-404" rx="108.58" ry="18"/>
<text text-anchor="middle" x="431.09" y="-400.3" font-family="Times,serif" font-size="14.00">Drasil.Website.About</text>
</g>
<!-- u5 -->
<g id="node3" class="node">
<title>u5</title>
<ellipse fill="#bbffbb" stroke="black" cx="689.09" cy="-404" rx="131.08" ry="18"/>
<text text-anchor="middle" x="689.09" y="-400.3" font-family="Times,serif" font-size="14.00">Drasil.Website.CaseStudy</text>
</g>
<!-- u2 -->
<g id="node6" class="node">
<title>u2</title>
<ellipse fill="#bbffbb" stroke="black" cx="689.09" cy="-81" rx="122.38" ry="18"/>
<text text-anchor="middle" x="689.09" y="-77.3" font-family="Times,serif" font-size="14.00">Drasil.Website.Example</text>
</g>
<!-- u5&#45;&gt;u2 -->
<g id="edge7" class="edge">
<title>u5&#45;&gt;u2</title>
<path fill="none" stroke="black" d="M689.09,-385.74C689.09,-333.05 689.09,-173.96 689.09,-109.54"/>
<polygon fill="black" stroke="black" points="692.59,-109.34 689.09,-99.34 685.59,-109.34 692.59,-109.34"/>
</g>
<!-- u4 -->
<g id="node4" class="node">
<title>u4</title>
<ellipse fill="#bbffbb" stroke="black" cx="959.09" cy="-404" rx="120.48" ry="18"/>
<text text-anchor="middle" x="959.09" y="-400.3" font-family="Times,serif" font-size="14.00">Drasil.Website.Analysis</text>
</g>
<!-- u3 -->
<g id="node5" class="node">
<title>u3</title>
<ellipse fill="#bbffbb" stroke="black" cx="1249.09" cy="-404" rx="151.37" ry="18"/>
<text text-anchor="middle" x="1249.09" y="-400.3" font-family="Times,serif" font-size="14.00">Drasil.Website.GettingStarted</text>
</g>
<!-- u1 -->
<g id="node7" class="node">
<title>u1</title>
<ellipse fill="#bbffbb" stroke="black" cx="824.09" cy="-727" rx="104.78" ry="18"/>
<text text-anchor="middle" x="824.09" y="-723.3" font-family="Times,serif" font-size="14.00">Drasil.Website.Body</text>
</g>
<!-- u1&#45;&gt;u7 -->
<g id="edge6" class="edge">
<title>u1&#45;&gt;u7</title>
<path fill="none" stroke="black" d="M790.3,-709.86C678.63,-656.52 321.4,-485.88 196.06,-426"/>
<polygon fill="black" stroke="black" points="197.27,-422.71 186.74,-421.55 194.26,-429.02 197.27,-422.71"/>
</g>
<!-- u1&#45;&gt;u6 -->
<g id="edge5" class="edge">
<title>u1&#45;&gt;u6</title>
<path fill="none" stroke="black" d="M803.51,-709.19C738.27,-655.91 535.88,-490.6 460.11,-428.71"/>
<polygon fill="black" stroke="black" points="461.89,-425.64 451.93,-422.03 457.46,-431.06 461.89,-425.64"/>
</g>
<!-- u1&#45;&gt;u5 -->
<g id="edge4" class="edge">
<title>u1&#45;&gt;u5</title>
<path fill="none" stroke="black" d="M816.83,-708.74C794.58,-655.84 727.21,-495.65 700.33,-431.74"/>
<polygon fill="black" stroke="black" points="703.48,-430.2 696.38,-422.34 697.03,-432.92 703.48,-430.2"/>
</g>
<!-- u1&#45;&gt;u4 -->
<g id="edge3" class="edge">
<title>u1&#45;&gt;u4</title>
<path fill="none" stroke="black" d="M831.34,-708.74C853.59,-655.84 920.96,-495.65 947.84,-431.74"/>
<polygon fill="black" stroke="black" points="951.14,-432.92 951.79,-422.34 944.69,-430.2 951.14,-432.92"/>
</g>
<!-- u1&#45;&gt;u3 -->
<g id="edge2" class="edge">
<title>u1&#45;&gt;u3</title>
<path fill="none" stroke="black" d="M846.34,-709.19C917.12,-655.74 1137.16,-489.54 1218.48,-428.12"/>
<polygon fill="black" stroke="black" points="1220.93,-430.65 1226.8,-421.83 1216.71,-425.07 1220.93,-430.65"/>
</g>
<!-- u0 -->
<g id="node8" class="node">
<title>u0</title>
<ellipse fill="#bbffbb" stroke="black" cx="1558.09" cy="-404" rx="139.18" ry="18"/>
<text text-anchor="middle" x="1558.09" y="-400.3" font-family="Times,serif" font-size="14.00">Drasil.Website.Introduction</text>
</g>
<!-- u1&#45;&gt;u0 -->
<g id="edge1" class="edge">
<title>u1&#45;&gt;u0</title>
<path fill="none" stroke="black" d="M860.49,-710.08C982.24,-656.84 1375.25,-484.96 1511.25,-425.48"/>
<polygon fill="black" stroke="black" points="1512.83,-428.61 1520.59,-421.4 1510.03,-422.2 1512.83,-428.61"/>
</g>
<!-- u8 -->
<g id="node9" class="node">
<title>u8</title>
<ellipse fill="#ffffbb" stroke="black" cx="824.09" cy="-1051" rx="122.38" ry="18"/>
<text text-anchor="middle" x="824.09" y="-1047.3" font-family="Times,serif" font-size="14.00">drasil&#45;website.app.Main</text>
</g>
<!-- u8&#45;&gt;u1 -->
<g id="edge8" class="edge">
<title>u8&#45;&gt;u1</title>
<path fill="none" stroke="black" d="M824.09,-1032.69C824.09,-979.71 824.09,-819.5 824.09,-755.17"/>
<polygon fill="black" stroke="black" points="827.59,-755.01 824.09,-745.01 820.59,-755.01 827.59,-755.01"/>
</g>
</g>
</svg>
