<?xml version="1.0" encoding="UTF-8" standalone="no"?>
<!DOCTYPE svg PUBLIC "-//W3C//DTD SVG 1.1//EN"
 "http://www.w3.org/Graphics/SVG/1.1/DTD/svg11.dtd">
<!-- Generated by graphviz version 2.43.0 (0)
 -->
<!-- Title: G Pages: 1 -->
<svg width="431pt" height="288pt"
 viewBox="0.00 0.00 431.22 288.00" xmlns="http://www.w3.org/2000/svg" xmlns:xlink="http://www.w3.org/1999/xlink">
<g id="graph0" class="graph" transform="scale(5.04 5.04) rotate(0) translate(4 1448)">
<title>G</title>
<polygon fill="white" stroke="transparent" points="-4,4 -4,-1448 2170.07,-1448 2170.07,4 -4,4"/>
<!-- u27 -->
<g id="node1" class="node">
<title>u27</title>
<ellipse fill="#bbffbb" stroke="black" cx="383.84" cy="-1415" rx="128.08" ry="18"/>
<text text-anchor="middle" x="383.84" y="-1411.3" font-family="Times,serif" font-size="14.00">Language.Drasil.Printers</text>
</g>
<!-- u22 -->
<g id="node4" class="node">
<title>u22</title>
<ellipse fill="#ffffbb" stroke="black" cx="135.84" cy="-1300" rx="135.68" ry="18"/>
<text text-anchor="middle" x="135.84" y="-1296.3" font-family="Times,serif" font-size="14.00">Language.Drasil.DOT.Print</text>
</g>
<!-- u27&#45;&gt;u22 -->
<g id="edge34" class="edge">
<title>u27&#45;&gt;u22</title>
<path fill="none" stroke="black" d="M348.04,-1397.69C304.03,-1377.63 229.27,-1343.57 181.26,-1321.69"/>
<polygon fill="black" stroke="black" points="182.58,-1318.45 172.03,-1317.49 179.68,-1324.82 182.58,-1318.45"/>
</g>
<!-- u21 -->
<g id="node9" class="node">
<title>u21</title>
<ellipse fill="#ffbbbb" stroke="black" cx="606.84" cy="-1300" rx="140.28" ry="18"/>
<text text-anchor="middle" x="606.84" y="-1296.3" font-family="Times,serif" font-size="14.00">Language.Drasil.JSON.Print</text>
</g>
<!-- u27&#45;&gt;u21 -->
<g id="edge33" class="edge">
<title>u27&#45;&gt;u21</title>
<path fill="none" stroke="black" d="M416.26,-1397.57C455.54,-1377.67 521.79,-1344.1 564.91,-1322.25"/>
<polygon fill="black" stroke="black" points="566.67,-1325.28 574.01,-1317.64 563.51,-1319.03 566.67,-1325.28"/>
</g>
<!-- u0 -->
<g id="node11" class="node">
<title>u0</title>
<ellipse fill="#bbffff" stroke="black" cx="1248.84" cy="-1300" rx="133.48" ry="18"/>
<text text-anchor="middle" x="1248.84" y="-1296.3" font-family="Times,serif" font-size="14.00">Language.Drasil.Log.Print</text>
</g>
<!-- u27&#45;&gt;u0 -->
<g id="edge32" class="edge">
<title>u27&#45;&gt;u0</title>
<path fill="none" stroke="black" d="M474.37,-1402.17C636.74,-1380.96 976.38,-1336.59 1146.76,-1314.33"/>
<polygon fill="black" stroke="black" points="1147.28,-1317.8 1156.74,-1313.03 1146.37,-1310.86 1147.28,-1317.8"/>
</g>
<!-- u26 -->
<g id="node12" class="node">
<title>u26</title>
<ellipse fill="#ffbbff" stroke="black" cx="316.84" cy="-953" rx="188.47" ry="18"/>
<text text-anchor="middle" x="316.84" y="-949.3" font-family="Times,serif" font-size="14.00">Language.Drasil.Markdown.CreateMd</text>
</g>
<!-- u27&#45;&gt;u26 -->
<g id="edge35" class="edge">
<title>u27&#45;&gt;u26</title>
<path fill="none" stroke="black" d="M376.69,-1396.81C362.32,-1361.23 330.32,-1276.57 318.84,-1202 306.61,-1122.62 311.14,-1027.24 314.5,-981.33"/>
<polygon fill="black" stroke="black" points="318,-981.51 315.28,-971.28 311.02,-980.98 318,-981.51"/>
</g>
<!-- u25 -->
<g id="node2" class="node">
<title>u25</title>
<ellipse fill="#bbffbb" stroke="black" cx="1024.84" cy="-722" rx="119.68" ry="18"/>
<text text-anchor="middle" x="1024.84" y="-718.3" font-family="Times,serif" font-size="14.00">Language.Drasil.Config</text>
</g>
<!-- u23 -->
<g id="node3" class="node">
<title>u23</title>
<ellipse fill="#bbffbb" stroke="black" cx="450.84" cy="-1184" rx="123.48" ry="18"/>
<text text-anchor="middle" x="450.84" y="-1180.3" font-family="Times,serif" font-size="14.00">Language.Drasil.Format</text>
</g>
<!-- u19 -->
<g id="node5" class="node">
<title>u19</title>
<ellipse fill="#bbbbff" stroke="black" cx="1653.84" cy="-1069" rx="153.27" ry="18"/>
<text text-anchor="middle" x="1653.84" y="-1065.3" font-family="Times,serif" font-size="14.00">Language.Drasil.HTML.Monad</text>
</g>
<!-- u18 -->
<g id="node6" class="node">
<title>u18</title>
<ellipse fill="#bbbbff" stroke="black" cx="1056.84" cy="-1069" rx="140.28" ry="18"/>
<text text-anchor="middle" x="1056.84" y="-1065.3" font-family="Times,serif" font-size="14.00">Language.Drasil.HTML.CSS</text>
</g>
<!-- u17 -->
<g id="node7" class="node">
<title>u17</title>
<ellipse fill="#bbbbff" stroke="black" cx="1061.84" cy="-1184" rx="144.87" ry="18"/>
<text text-anchor="middle" x="1061.84" y="-1180.3" font-family="Times,serif" font-size="14.00">Language.Drasil.HTML.Print</text>
</g>
<!-- u17&#45;&gt;u19 -->
<g id="edge23" class="edge">
<title>u17&#45;&gt;u19</title>
<path fill="none" stroke="black" d="M1137.42,-1168.57C1247.51,-1147.56 1451.47,-1108.63 1567.4,-1086.5"/>
<polygon fill="black" stroke="black" points="1568.14,-1089.92 1577.3,-1084.61 1566.83,-1083.05 1568.14,-1089.92"/>
</g>
<!-- u17&#45;&gt;u18 -->
<g id="edge22" class="edge">
<title>u17&#45;&gt;u18</title>
<path fill="none" stroke="black" d="M1061.08,-1165.84C1060.27,-1147.67 1058.99,-1118.72 1058.05,-1097.39"/>
<polygon fill="black" stroke="black" points="1061.54,-1097.16 1057.6,-1087.32 1054.55,-1097.47 1061.54,-1097.16"/>
</g>
<!-- u16 -->
<g id="node8" class="node">
<title>u16</title>
<ellipse fill="#bbbbff" stroke="black" cx="740.84" cy="-1069" rx="157.87" ry="18"/>
<text text-anchor="middle" x="740.84" y="-1065.3" font-family="Times,serif" font-size="14.00">Language.Drasil.HTML.Helpers</text>
</g>
<!-- u17&#45;&gt;u16 -->
<g id="edge21" class="edge">
<title>u17&#45;&gt;u16</title>
<path fill="none" stroke="black" d="M1015.85,-1166.81C958.01,-1146.45 858.76,-1111.51 796.64,-1089.64"/>
<polygon fill="black" stroke="black" points="797.6,-1086.27 787,-1086.25 795.27,-1092.87 797.6,-1086.27"/>
</g>
<!-- u30 -->
<g id="node30" class="node">
<title>u30</title>
<ellipse fill="#ff7777" stroke="black" cx="1348.84" cy="-1069" rx="133.48" ry="18"/>
<text text-anchor="middle" x="1348.84" y="-1065.3" font-family="Times,serif" font-size="14.00">Language.Drasil.TeX.Print</text>
</g>
<!-- u17&#45;&gt;u30 -->
<g id="edge24" class="edge">
<title>u17&#45;&gt;u30</title>
<path fill="none" stroke="black" d="M1103.26,-1166.69C1154.66,-1146.45 1242.29,-1111.95 1297.79,-1090.1"/>
<polygon fill="black" stroke="black" points="1299.4,-1093.23 1307.42,-1086.31 1296.84,-1086.71 1299.4,-1093.23"/>
</g>
<!-- u3 -->
<g id="node17" class="node">
<title>u3</title>
<ellipse fill="#ffff77" stroke="black" cx="1090.84" cy="-29" rx="149.47" ry="18"/>
<text text-anchor="middle" x="1090.84" y="-25.3" font-family="Times,serif" font-size="14.00">Language.Drasil.Printing.AST</text>
</g>
<!-- u16&#45;&gt;u3 -->
<g id="edge20" class="edge">
<title>u16&#45;&gt;u3</title>
<path fill="none" stroke="black" d="M759.75,-1051.09C797.12,-1015.72 876.84,-929.63 876.84,-839 876.84,-839 876.84,-839 876.84,-259 876.84,-159.94 985.06,-85.96 1047.58,-51.49"/>
<polygon fill="black" stroke="black" points="1049.32,-54.53 1056.46,-46.69 1045.99,-48.37 1049.32,-54.53"/>
</g>
<!-- u21&#45;&gt;u23 -->
<g id="edge29" class="edge">
<title>u21&#45;&gt;u23</title>
<path fill="none" stroke="black" d="M583.82,-1282.18C556.9,-1262.51 512.2,-1229.84 482.14,-1207.87"/>
<polygon fill="black" stroke="black" points="483.84,-1204.78 473.7,-1201.7 479.71,-1210.43 483.84,-1204.78"/>
</g>
<!-- u21&#45;&gt;u17 -->
<g id="edge27" class="edge">
<title>u21&#45;&gt;u17</title>
<path fill="none" stroke="black" d="M667.73,-1283.74C751.52,-1262.75 902.07,-1225.03 990.86,-1202.78"/>
<polygon fill="black" stroke="black" points="991.73,-1206.17 1000.58,-1200.35 990.03,-1199.38 991.73,-1206.17"/>
</g>
<!-- u20 -->
<g id="node10" class="node">
<title>u20</title>
<ellipse fill="#ffbbbb" stroke="black" cx="745.84" cy="-1184" rx="153.27" ry="18"/>
<text text-anchor="middle" x="745.84" y="-1180.3" font-family="Times,serif" font-size="14.00">Language.Drasil.JSON.Helpers</text>
</g>
<!-- u21&#45;&gt;u20 -->
<g id="edge28" class="edge">
<title>u21&#45;&gt;u20</title>
<path fill="none" stroke="black" d="M627.35,-1282.18C651.16,-1262.65 690.6,-1230.31 717.37,-1208.35"/>
<polygon fill="black" stroke="black" points="719.73,-1210.94 725.24,-1201.89 715.29,-1205.53 719.73,-1210.94"/>
</g>
<!-- u20&#45;&gt;u16 -->
<g id="edge26" class="edge">
<title>u20&#45;&gt;u16</title>
<path fill="none" stroke="black" d="M745.08,-1165.84C744.27,-1147.67 742.99,-1118.72 742.05,-1097.39"/>
<polygon fill="black" stroke="black" points="745.54,-1097.16 741.6,-1087.32 738.55,-1097.47 745.54,-1097.16"/>
</g>
<!-- u1 -->
<g id="node19" class="node">
<title>u1</title>
<ellipse fill="#ffff77" stroke="black" cx="563.84" cy="-606" rx="167.07" ry="18"/>
<text text-anchor="middle" x="563.84" y="-602.3" font-family="Times,serif" font-size="14.00">Language.Drasil.Printing.Helpers</text>
</g>
<!-- u20&#45;&gt;u1 -->
<g id="edge25" class="edge">
<title>u20&#45;&gt;u1</title>
<path fill="none" stroke="black" d="M695.35,-1166.95C656.66,-1152.12 604.81,-1126.38 573.84,-1087 535.9,-1038.78 536.84,-1015.36 536.84,-954 536.84,-954 536.84,-954 536.84,-837 536.84,-763.24 550.7,-677.08 558.56,-634.17"/>
<polygon fill="black" stroke="black" points="562.02,-634.7 560.42,-624.23 555.14,-633.42 562.02,-634.7"/>
</g>
<!-- u24 -->
<g id="node13" class="node">
<title>u24</title>
<ellipse fill="#77ff77" stroke="black" cx="1599.84" cy="-1184" rx="139.98" ry="18"/>
<text text-anchor="middle" x="1599.84" y="-1180.3" font-family="Times,serif" font-size="14.00">Language.Drasil.Plain.Print</text>
</g>
<!-- u0&#45;&gt;u24 -->
<g id="edge1" class="edge">
<title>u0&#45;&gt;u24</title>
<path fill="none" stroke="black" d="M1297.64,-1283.15C1361.38,-1262.45 1472.85,-1226.24 1541.13,-1204.07"/>
<polygon fill="black" stroke="black" points="1542.45,-1207.32 1550.88,-1200.9 1540.29,-1200.66 1542.45,-1207.32"/>
</g>
<!-- u26&#45;&gt;u1 -->
<g id="edge31" class="edge">
<title>u26&#45;&gt;u1</title>
<path fill="none" stroke="black" d="M329.09,-934.89C369.33,-878.68 497.65,-699.45 545.56,-632.53"/>
<polygon fill="black" stroke="black" points="548.54,-634.38 551.52,-624.21 542.85,-630.31 548.54,-634.38"/>
</g>
<!-- u15 -->
<g id="node14" class="node">
<title>u15</title>
<ellipse fill="#ffff77" stroke="black" cx="1745.84" cy="-953" rx="162.47" ry="18"/>
<text text-anchor="middle" x="1745.84" y="-949.3" font-family="Times,serif" font-size="14.00">Language.Drasil.Printing.Import</text>
</g>
<!-- u24&#45;&gt;u15 -->
<g id="edge30" class="edge">
<title>u24&#45;&gt;u15</title>
<path fill="none" stroke="black" d="M1681.46,-1169.36C1729.39,-1156.71 1786.21,-1132.59 1815.84,-1087 1839.59,-1050.45 1802.53,-1004.96 1773.91,-977.77"/>
<polygon fill="black" stroke="black" points="1776.22,-975.13 1766.49,-970.93 1771.48,-980.28 1776.22,-975.13"/>
</g>
<!-- u13 -->
<g id="node21" class="node">
<title>u13</title>
<ellipse fill="#7777ff" stroke="black" cx="1745.84" cy="-838" rx="212.56" ry="18"/>
<text text-anchor="middle" x="1745.84" y="-834.3" font-family="Times,serif" font-size="14.00">Language.Drasil.Printing.Import.Document</text>
</g>
<!-- u15&#45;&gt;u13 -->
<g id="edge19" class="edge">
<title>u15&#45;&gt;u13</title>
<path fill="none" stroke="black" d="M1745.84,-934.84C1745.84,-916.67 1745.84,-887.72 1745.84,-866.39"/>
<polygon fill="black" stroke="black" points="1749.34,-866.32 1745.84,-856.32 1742.34,-866.32 1749.34,-866.32"/>
</g>
<!-- u5 -->
<g id="node15" class="node">
<title>u5</title>
<ellipse fill="#ffff77" stroke="black" cx="680.84" cy="-491" rx="167.87" ry="18"/>
<text text-anchor="middle" x="680.84" y="-487.3" font-family="Times,serif" font-size="14.00">Language.Drasil.Printing.Citation</text>
</g>
<!-- u5&#45;&gt;u3 -->
<g id="edge4" class="edge">
<title>u5&#45;&gt;u3</title>
<path fill="none" stroke="black" d="M684.82,-472.97C698.96,-416.01 751.98,-229.86 862.84,-126 904.77,-86.71 965.14,-62.27 1013.23,-47.89"/>
<polygon fill="black" stroke="black" points="1014.36,-51.21 1022.98,-45.06 1012.4,-44.48 1014.36,-51.21"/>
</g>
<!-- u4 -->
<g id="node16" class="node">
<title>u4</title>
<ellipse fill="#ffff77" stroke="black" cx="1938.84" cy="-144" rx="223.66" ry="18"/>
<text text-anchor="middle" x="1938.84" y="-140.3" font-family="Times,serif" font-size="14.00">Language.Drasil.Printing.PrintingInformation</text>
</g>
<!-- u2 -->
<g id="node18" class="node">
<title>u2</title>
<ellipse fill="#ffff77" stroke="black" cx="1340.84" cy="-722" rx="178.97" ry="18"/>
<text text-anchor="middle" x="1340.84" y="-718.3" font-family="Times,serif" font-size="14.00">Language.Drasil.Printing.LayoutObj</text>
</g>
<!-- u2&#45;&gt;u5 -->
<g id="edge3" class="edge">
<title>u2&#45;&gt;u5</title>
<path fill="none" stroke="black" d="M1293.64,-704.62C1175.17,-663.52 865.61,-556.11 737.56,-511.68"/>
<polygon fill="black" stroke="black" points="738.52,-508.31 727.93,-508.34 736.23,-514.92 738.52,-508.31"/>
</g>
<!-- u1&#45;&gt;u5 -->
<g id="edge2" class="edge">
<title>u1&#45;&gt;u5</title>
<path fill="none" stroke="black" d="M581.35,-588.08C601.08,-569.03 633.31,-537.9 655.72,-516.26"/>
<polygon fill="black" stroke="black" points="658.44,-518.5 663.2,-509.03 653.58,-513.46 658.44,-518.5"/>
</g>
<!-- u14 -->
<g id="node20" class="node">
<title>u14</title>
<ellipse fill="#7777ff" stroke="black" cx="1608.84" cy="-491" rx="193.07" ry="18"/>
<text text-anchor="middle" x="1608.84" y="-487.3" font-family="Times,serif" font-size="14.00">Language.Drasil.Printing.Import.Space</text>
</g>
<!-- u10 -->
<g id="node24" class="node">
<title>u10</title>
<ellipse fill="#7777ff" stroke="black" cx="1537.84" cy="-375" rx="187.67" ry="18"/>
<text text-anchor="middle" x="1537.84" y="-371.3" font-family="Times,serif" font-size="14.00">Language.Drasil.Printing.Import.Expr</text>
</g>
<!-- u14&#45;&gt;u10 -->
<g id="edge18" class="edge">
<title>u14&#45;&gt;u10</title>
<path fill="none" stroke="black" d="M1598.05,-472.69C1586.31,-453.83 1567.4,-423.47 1553.91,-401.8"/>
<polygon fill="black" stroke="black" points="1556.75,-399.74 1548.49,-393.1 1550.81,-403.44 1556.75,-399.74"/>
</g>
<!-- u13&#45;&gt;u2 -->
<g id="edge15" class="edge">
<title>u13&#45;&gt;u2</title>
<path fill="none" stroke="black" d="M1687.81,-820.67C1613.77,-799.83 1485.96,-763.85 1407.84,-741.86"/>
<polygon fill="black" stroke="black" points="1408.68,-738.46 1398.1,-739.12 1406.78,-745.2 1408.68,-738.46"/>
</g>
<!-- u12 -->
<g id="node22" class="node">
<title>u12</title>
<ellipse fill="#7777ff" stroke="black" cx="1954.84" cy="-375" rx="211.46" ry="18"/>
<text text-anchor="middle" x="1954.84" y="-371.3" font-family="Times,serif" font-size="14.00">Language.Drasil.Printing.Import.CodeExpr</text>
</g>
<!-- u13&#45;&gt;u12 -->
<g id="edge17" class="edge">
<title>u13&#45;&gt;u12</title>
<path fill="none" stroke="black" d="M1833.34,-821.59C1880.28,-808.38 1934.21,-784.15 1962.84,-740 2032.55,-632.48 1986.84,-467 1964.79,-402.77"/>
<polygon fill="black" stroke="black" points="1967.98,-401.28 1961.36,-393.01 1961.38,-403.61 1967.98,-401.28"/>
</g>
<!-- u7 -->
<g id="node27" class="node">
<title>u7</title>
<ellipse fill="#7777ff" stroke="black" cx="1745.84" cy="-722" rx="207.96" ry="18"/>
<text text-anchor="middle" x="1745.84" y="-718.3" font-family="Times,serif" font-size="14.00">Language.Drasil.Printing.Import.Sentence</text>
</g>
<!-- u13&#45;&gt;u7 -->
<g id="edge16" class="edge">
<title>u13&#45;&gt;u7</title>
<path fill="none" stroke="black" d="M1745.84,-819.69C1745.84,-801.25 1745.84,-771.82 1745.84,-750.26"/>
<polygon fill="black" stroke="black" points="1749.34,-750.1 1745.84,-740.1 1742.34,-750.1 1749.34,-750.1"/>
</g>
<!-- u9 -->
<g id="node25" class="node">
<title>u9</title>
<ellipse fill="#7777ff" stroke="black" cx="1938.84" cy="-260" rx="196.07" ry="18"/>
<text text-anchor="middle" x="1938.84" y="-256.3" font-family="Times,serif" font-size="14.00">Language.Drasil.Printing.Import.Literal</text>
</g>
<!-- u12&#45;&gt;u9 -->
<g id="edge14" class="edge">
<title>u12&#45;&gt;u9</title>
<path fill="none" stroke="black" d="M1952.41,-356.84C1949.84,-338.67 1945.74,-309.72 1942.72,-288.39"/>
<polygon fill="black" stroke="black" points="1946.16,-287.73 1941.29,-278.32 1939.23,-288.72 1946.16,-287.73"/>
</g>
<!-- u6 -->
<g id="node28" class="node">
<title>u6</title>
<ellipse fill="#7777ff" stroke="black" cx="1524.84" cy="-260" rx="200.36" ry="18"/>
<text text-anchor="middle" x="1524.84" y="-256.3" font-family="Times,serif" font-size="14.00">Language.Drasil.Printing.Import.Symbol</text>
</g>
<!-- u12&#45;&gt;u6 -->
<g id="edge13" class="edge">
<title>u12&#45;&gt;u6</title>
<path fill="none" stroke="black" d="M1892.77,-357.69C1814.21,-337.05 1679.18,-301.56 1596.37,-279.8"/>
<polygon fill="black" stroke="black" points="1597.1,-276.37 1586.54,-277.21 1595.32,-283.14 1597.1,-276.37"/>
</g>
<!-- u11 -->
<g id="node23" class="node">
<title>u11</title>
<ellipse fill="#7777ff" stroke="black" cx="1694.84" cy="-606" rx="216.36" ry="18"/>
<text text-anchor="middle" x="1694.84" y="-602.3" font-family="Times,serif" font-size="14.00">Language.Drasil.Printing.Import.ModelExpr</text>
</g>
<!-- u11&#45;&gt;u14 -->
<g id="edge12" class="edge">
<title>u11&#45;&gt;u14</title>
<path fill="none" stroke="black" d="M1681.78,-587.84C1667.51,-569.09 1644.5,-538.86 1628.15,-517.37"/>
<polygon fill="black" stroke="black" points="1630.86,-515.16 1622.02,-509.32 1625.29,-519.4 1630.86,-515.16"/>
</g>
<!-- u10&#45;&gt;u9 -->
<g id="edge11" class="edge">
<title>u10&#45;&gt;u9</title>
<path fill="none" stroke="black" d="M1595.29,-357.81C1668.29,-337.24 1794.08,-301.79 1871.5,-279.97"/>
<polygon fill="black" stroke="black" points="1872.49,-283.33 1881.17,-277.25 1870.59,-276.6 1872.49,-283.33"/>
</g>
<!-- u10&#45;&gt;u6 -->
<g id="edge10" class="edge">
<title>u10&#45;&gt;u6</title>
<path fill="none" stroke="black" d="M1535.86,-356.84C1533.77,-338.67 1530.44,-309.72 1527.99,-288.39"/>
<polygon fill="black" stroke="black" points="1531.45,-287.86 1526.83,-278.32 1524.5,-288.66 1531.45,-287.86"/>
</g>
<!-- u9&#45;&gt;u4 -->
<g id="edge8" class="edge">
<title>u9&#45;&gt;u4</title>
<path fill="none" stroke="black" d="M1938.84,-241.69C1938.84,-223.25 1938.84,-193.82 1938.84,-172.26"/>
<polygon fill="black" stroke="black" points="1942.34,-172.1 1938.84,-162.1 1935.34,-172.1 1942.34,-172.1"/>
</g>
<!-- u8 -->
<g id="node26" class="node">
<title>u8</title>
<ellipse fill="#7777ff" stroke="black" cx="1441.84" cy="-144" rx="202.26" ry="18"/>
<text text-anchor="middle" x="1441.84" y="-140.3" font-family="Times,serif" font-size="14.00">Language.Drasil.Printing.Import.Helpers</text>
</g>
<!-- u9&#45;&gt;u8 -->
<g id="edge9" class="edge">
<title>u9&#45;&gt;u8</title>
<path fill="none" stroke="black" d="M1869.73,-243.15C1778.41,-222.2 1617.88,-185.38 1521.54,-163.28"/>
<polygon fill="black" stroke="black" points="1522.09,-159.82 1511.56,-160.99 1520.52,-166.64 1522.09,-159.82"/>
</g>
<!-- u8&#45;&gt;u3 -->
<g id="edge7" class="edge">
<title>u8&#45;&gt;u3</title>
<path fill="none" stroke="black" d="M1390.8,-126.57C1326.92,-106 1217.71,-70.85 1150.17,-49.1"/>
<polygon fill="black" stroke="black" points="1151.11,-45.73 1140.52,-45.99 1148.97,-52.39 1151.11,-45.73"/>
</g>
<!-- u7&#45;&gt;u11 -->
<g id="edge6" class="edge">
<title>u7&#45;&gt;u11</title>
<path fill="none" stroke="black" d="M1738.09,-703.69C1729.73,-685 1716.31,-655.01 1706.64,-633.38"/>
<polygon fill="black" stroke="black" points="1709.77,-631.8 1702.49,-624.1 1703.38,-634.66 1709.77,-631.8"/>
</g>
<!-- u6&#45;&gt;u3 -->
<g id="edge5" class="edge">
<title>u6&#45;&gt;u3</title>
<path fill="none" stroke="black" d="M1447.87,-243.36C1386.17,-228.6 1298.94,-202.58 1230.84,-162 1182.05,-132.93 1136.31,-84.25 1111.1,-54.83"/>
<polygon fill="black" stroke="black" points="1113.67,-52.46 1104.54,-47.08 1108.32,-56.97 1113.67,-52.46"/>
</g>
<!-- u31 -->
<g id="node29" class="node">
<title>u31</title>
<ellipse fill="#ff7777" stroke="black" cx="706.84" cy="-722" rx="141.88" ry="18"/>
<text text-anchor="middle" x="706.84" y="-718.3" font-family="Times,serif" font-size="14.00">Language.Drasil.TeX.Monad</text>
</g>
<!-- u31&#45;&gt;u1 -->
<g id="edge42" class="edge">
<title>u31&#45;&gt;u1</title>
<path fill="none" stroke="black" d="M685.74,-704.18C661.24,-684.65 620.67,-652.31 593.12,-630.35"/>
<polygon fill="black" stroke="black" points="595.03,-627.39 585.02,-623.89 590.66,-632.86 595.03,-627.39"/>
</g>
<!-- u30&#45;&gt;u15 -->
<g id="edge40" class="edge">
<title>u30&#45;&gt;u15</title>
<path fill="none" stroke="black" d="M1402.79,-1052.51C1474.97,-1031.78 1602.83,-995.07 1680.41,-972.79"/>
<polygon fill="black" stroke="black" points="1681.44,-976.13 1690.08,-970.01 1679.5,-969.41 1681.44,-976.13"/>
</g>
<!-- u28 -->
<g id="node32" class="node">
<title>u28</title>
<ellipse fill="#ff7777" stroke="black" cx="1340.84" cy="-953" rx="154.07" ry="18"/>
<text text-anchor="middle" x="1340.84" y="-949.3" font-family="Times,serif" font-size="14.00">Language.Drasil.TeX.Preamble</text>
</g>
<!-- u30&#45;&gt;u28 -->
<g id="edge41" class="edge">
<title>u30&#45;&gt;u28</title>
<path fill="none" stroke="black" d="M1347.62,-1050.69C1346.33,-1032.25 1344.26,-1002.82 1342.75,-981.26"/>
<polygon fill="black" stroke="black" points="1346.23,-980.83 1342.04,-971.1 1339.25,-981.32 1346.23,-980.83"/>
</g>
<!-- u29 -->
<g id="node31" class="node">
<title>u29</title>
<ellipse fill="#ff7777" stroke="black" cx="1050.84" cy="-838" rx="146.47" ry="18"/>
<text text-anchor="middle" x="1050.84" y="-834.3" font-family="Times,serif" font-size="14.00">Language.Drasil.TeX.Helpers</text>
</g>
<!-- u29&#45;&gt;u25 -->
<g id="edge38" class="edge">
<title>u29&#45;&gt;u25</title>
<path fill="none" stroke="black" d="M1046.89,-819.69C1042.67,-801.17 1035.91,-771.55 1030.99,-749.97"/>
<polygon fill="black" stroke="black" points="1034.37,-749.07 1028.74,-740.1 1027.55,-750.63 1034.37,-749.07"/>
</g>
<!-- u29&#45;&gt;u31 -->
<g id="edge39" class="edge">
<title>u29&#45;&gt;u31</title>
<path fill="none" stroke="black" d="M1002.28,-820.91C939.79,-800.2 831.36,-764.27 764.67,-742.17"/>
<polygon fill="black" stroke="black" points="765.74,-738.83 755.15,-739.01 763.54,-745.48 765.74,-738.83"/>
</g>
<!-- u28&#45;&gt;u2 -->
<g id="edge36" class="edge">
<title>u28&#45;&gt;u2</title>
<path fill="none" stroke="black" d="M1340.84,-934.79C1340.84,-895.32 1340.84,-798.03 1340.84,-750.3"/>
<polygon fill="black" stroke="black" points="1344.34,-750.1 1340.84,-740.1 1337.34,-750.1 1344.34,-750.1"/>
</g>
<!-- u28&#45;&gt;u29 -->
<g id="edge37" class="edge">
<title>u28&#45;&gt;u29</title>
<path fill="none" stroke="black" d="M1298.67,-935.57C1246.55,-915.26 1157.9,-880.72 1101.95,-858.92"/>
<polygon fill="black" stroke="black" points="1103.18,-855.64 1092.59,-855.27 1100.63,-862.16 1103.18,-855.64"/>
</g>
</g>
</svg>
