<?xml version="1.0" encoding="UTF-8" standalone="no"?>
<!DOCTYPE svg PUBLIC "-//W3C//DTD SVG 1.1//EN"
 "http://www.w3.org/Graphics/SVG/1.1/DTD/svg11.dtd">
<!-- Generated by graphviz version 2.43.0 (0)
 -->
<!-- Title: G Pages: 1 -->
<svg width="431pt" height="288pt"
 viewBox="0.00 0.00 431.45 288.00" xmlns="http://www.w3.org/2000/svg" xmlns:xlink="http://www.w3.org/1999/xlink">
<g id="graph0" class="graph" transform="scale(6.73 6.73) rotate(0) translate(4 1934)">
<title>G</title>
<polygon fill="white" stroke="transparent" points="-4,4 -4,-1934 2899.32,-1934 2899.32,4 -4,4"/>
<!-- u0 -->
<g id="node1" class="node">
<title>u0</title>
<ellipse fill="#bbffbb" stroke="black" cx="1632.49" cy="-1910" rx="87.18" ry="18"/>
<text text-anchor="middle" x="1632.49" y="-1906.3" font-family="Times,serif" font-size="14.00">Language.Drasil</text>
</g>
<!-- u17 -->
<g id="node18" class="node">
<title>u17</title>
<ellipse fill="#ffffbb" stroke="black" cx="1033.49" cy="-1753" rx="145.67" ry="18"/>
<text text-anchor="middle" x="1033.49" y="-1749.3" font-family="Times,serif" font-size="14.00">Language.Drasil.Uncertainty</text>
</g>
<!-- u0&#45;&gt;u17 -->
<g id="edge4" class="edge">
<title>u0&#45;&gt;u17</title>
<path fill="none" stroke="black" d="M1549.09,-1904.8C1465.38,-1898.77 1333.56,-1884.3 1224.49,-1850 1167.21,-1831.99 1106.04,-1798.4 1068.78,-1776.12"/>
<polygon fill="black" stroke="black" points="1070.21,-1772.89 1059.84,-1770.71 1066.59,-1778.88 1070.21,-1772.89"/>
</g>
<!-- u7 -->
<g id="node23" class="node">
<title>u7</title>
<ellipse fill="#ffffbb" stroke="black" cx="579.49" cy="-1832" rx="137.28" ry="18"/>
<text text-anchor="middle" x="579.49" y="-1828.3" font-family="Times,serif" font-size="14.00">Language.Drasil.Document</text>
</g>
<!-- u0&#45;&gt;u7 -->
<g id="edge2" class="edge">
<title>u0&#45;&gt;u7</title>
<path fill="none" stroke="black" d="M1551.61,-1903.16C1369.57,-1890.02 926.46,-1858.04 706.99,-1842.2"/>
<polygon fill="black" stroke="black" points="706.93,-1838.69 696.71,-1841.46 706.43,-1845.67 706.93,-1838.69"/>
</g>
<!-- u58 -->
<g id="node26" class="node">
<title>u58</title>
<ellipse fill="#bbbbff" stroke="black" cx="1199.49" cy="-1674" rx="202.26" ry="18"/>
<text text-anchor="middle" x="1199.49" y="-1670.3" font-family="Times,serif" font-size="14.00">Language.Drasil.Chunk.NamedArgument</text>
</g>
<!-- u0&#45;&gt;u58 -->
<g id="edge10" class="edge">
<title>u0&#45;&gt;u58</title>
<path fill="none" stroke="black" d="M1552.07,-1902.93C1465.77,-1895.03 1335.64,-1878.74 1295.49,-1850 1244.4,-1813.44 1217.52,-1740.89 1206.19,-1701.67"/>
<polygon fill="black" stroke="black" points="1209.56,-1700.7 1203.52,-1692 1202.81,-1702.57 1209.56,-1700.7"/>
</g>
<!-- u57 -->
<g id="node27" class="node">
<title>u57</title>
<ellipse fill="#bbbbff" stroke="black" cx="1513.49" cy="-1832" rx="209.06" ry="18"/>
<text text-anchor="middle" x="1513.49" y="-1828.3" font-family="Times,serif" font-size="14.00">Language.Drasil.Chunk.UncertainQuantity</text>
</g>
<!-- u0&#45;&gt;u57 -->
<g id="edge9" class="edge">
<title>u0&#45;&gt;u57</title>
<path fill="none" stroke="black" d="M1606.96,-1892.7C1589.98,-1881.85 1567.45,-1867.46 1548.76,-1855.53"/>
<polygon fill="black" stroke="black" points="1550.52,-1852.5 1540.21,-1850.07 1546.76,-1858.4 1550.52,-1852.5"/>
</g>
<!-- u52 -->
<g id="node31" class="node">
<title>u52</title>
<ellipse fill="#bbbbff" stroke="black" cx="1750.49" cy="-1595" rx="135.38" ry="18"/>
<text text-anchor="middle" x="1750.49" y="-1591.3" font-family="Times,serif" font-size="14.00">Language.Drasil.Chunk.Eq</text>
</g>
<!-- u0&#45;&gt;u52 -->
<g id="edge8" class="edge">
<title>u0&#45;&gt;u52</title>
<path fill="none" stroke="black" d="M1675.42,-1894.26C1695.94,-1884.9 1718.75,-1870.59 1731.49,-1850 1775.92,-1778.18 1764.63,-1672.15 1756.03,-1622.93"/>
<polygon fill="black" stroke="black" points="1759.46,-1622.24 1754.2,-1613.05 1752.58,-1623.52 1759.46,-1622.24"/>
</g>
<!-- u46 -->
<g id="node37" class="node">
<title>u46</title>
<ellipse fill="#bbbbff" stroke="black" cx="1939.49" cy="-1753" rx="161.37" ry="18"/>
<text text-anchor="middle" x="1939.49" y="-1749.3" font-family="Times,serif" font-size="14.00">Language.Drasil.Chunk.Relation</text>
</g>
<!-- u0&#45;&gt;u46 -->
<g id="edge7" class="edge">
<title>u0&#45;&gt;u46</title>
<path fill="none" stroke="black" d="M1668.99,-1893.63C1695.7,-1882.16 1732.68,-1865.8 1764.49,-1850 1812.49,-1826.15 1866.37,-1796.08 1901.51,-1776"/>
<polygon fill="black" stroke="black" points="1903.52,-1778.88 1910.46,-1770.87 1900.04,-1772.81 1903.52,-1778.88"/>
</g>
<!-- u1 -->
<g id="node44" class="node">
<title>u1</title>
<ellipse fill="#bbffff" stroke="black" cx="766.49" cy="-1674" rx="174.67" ry="18"/>
<text text-anchor="middle" x="766.49" y="-1670.3" font-family="Times,serif" font-size="14.00">Language.Drasil.Classes.Document</text>
</g>
<!-- u0&#45;&gt;u1 -->
<g id="edge1" class="edge">
<title>u0&#45;&gt;u1</title>
<path fill="none" stroke="black" d="M1550.5,-1903.92C1451.01,-1896.7 1278.56,-1880.78 1133.49,-1850 1017.42,-1825.38 982.35,-1828.35 878.49,-1771 843.79,-1751.84 810.12,-1720.77 788.91,-1699.18"/>
<polygon fill="black" stroke="black" points="791.41,-1696.73 781.94,-1691.98 786.38,-1701.6 791.41,-1696.73"/>
</g>
<!-- u32 -->
<g id="node47" class="node">
<title>u32</title>
<ellipse fill="#77ff77" stroke="black" cx="1938.49" cy="-1123" rx="196.87" ry="18"/>
<text text-anchor="middle" x="1938.49" y="-1119.3" font-family="Times,serif" font-size="14.00">Language.Drasil.Development.Sentence</text>
</g>
<!-- u0&#45;&gt;u32 -->
<g id="edge6" class="edge">
<title>u0&#45;&gt;u32</title>
<path fill="none" stroke="black" d="M1708.63,-1901.18C1847.67,-1884.78 2128.49,-1840.89 2128.49,-1754 2128.49,-1754 2128.49,-1754 2128.49,-1279 2128.49,-1210.79 2054.06,-1167.24 1998.36,-1144.21"/>
<polygon fill="black" stroke="black" points="1999.49,-1140.89 1988.91,-1140.42 1996.88,-1147.39 1999.49,-1140.89"/>
</g>
<!-- u9 -->
<g id="node59" class="node">
<title>u9</title>
<ellipse fill="#33ff33" stroke="black" cx="2166.49" cy="-1044" rx="170.07" ry="18"/>
<text text-anchor="middle" x="2166.49" y="-1040.3" font-family="Times,serif" font-size="14.00">Language.Drasil.Sentence.Extract</text>
</g>
<!-- u0&#45;&gt;u9 -->
<g id="edge3" class="edge">
<title>u0&#45;&gt;u9</title>
<path fill="none" stroke="black" d="M1712.83,-1902.82C1816.56,-1893.95 1990.74,-1875.8 2049.49,-1850 2111.07,-1822.95 2166.49,-1821.26 2166.49,-1754 2166.49,-1754 2166.49,-1754 2166.49,-1200 2166.49,-1155.23 2166.49,-1103.18 2166.49,-1072.23"/>
<polygon fill="black" stroke="black" points="2169.99,-1072.2 2166.49,-1062.2 2162.99,-1072.2 2169.99,-1072.2"/>
</g>
<!-- u21 -->
<g id="node60" class="node">
<title>u21</title>
<ellipse fill="#bbff77" stroke="black" cx="2361.49" cy="-1832" rx="163.57" ry="18"/>
<text text-anchor="middle" x="2361.49" y="-1828.3" font-family="Times,serif" font-size="14.00">Language.Drasil.Symbol.Helpers</text>
</g>
<!-- u0&#45;&gt;u21 -->
<g id="edge5" class="edge">
<title>u0&#45;&gt;u21</title>
<path fill="none" stroke="black" d="M1708.44,-1901.08C1833.75,-1888.02 2084.98,-1861.83 2236.69,-1846.01"/>
<polygon fill="black" stroke="black" points="2237.41,-1849.45 2246.99,-1844.94 2236.68,-1842.49 2237.41,-1849.45"/>
</g>
<!-- u61 -->
<g id="node2" class="node">
<title>u61</title>
<ellipse fill="#ffffbb" stroke="black" cx="1631.49" cy="-650" rx="132.68" ry="18"/>
<text text-anchor="middle" x="1631.49" y="-646.3" font-family="Times,serif" font-size="14.00">Language.Drasil.Sentence</text>
</g>
<!-- u23 -->
<g id="node13" class="node">
<title>u23</title>
<ellipse fill="#ffffbb" stroke="black" cx="943.49" cy="-335" rx="133.48" ry="18"/>
<text text-anchor="middle" x="943.49" y="-331.3" font-family="Times,serif" font-size="14.00">Language.Drasil.UnitLang</text>
</g>
<!-- u61&#45;&gt;u23 -->
<g id="edge88" class="edge">
<title>u61&#45;&gt;u23</title>
<path fill="none" stroke="black" d="M1539.49,-637.01C1478.38,-627.56 1396.92,-612.06 1327.49,-589 1250.33,-563.37 1231.42,-553.12 1162.49,-510 1087.92,-463.36 1009.25,-395.62 969.6,-359.98"/>
<polygon fill="black" stroke="black" points="971.51,-356.99 961.75,-352.88 966.82,-362.19 971.51,-356.99"/>
</g>
<!-- u16 -->
<g id="node19" class="node">
<title>u16</title>
<ellipse fill="#ffffbb" stroke="black" cx="1484.49" cy="-571" rx="147.57" ry="18"/>
<text text-anchor="middle" x="1484.49" y="-567.3" font-family="Times,serif" font-size="14.00">Language.Drasil.ExprClasses</text>
</g>
<!-- u61&#45;&gt;u16 -->
<g id="edge87" class="edge">
<title>u61&#45;&gt;u16</title>
<path fill="none" stroke="black" d="M1599.95,-632.48C1578.13,-621.05 1548.89,-605.73 1525.29,-593.37"/>
<polygon fill="black" stroke="black" points="1526.71,-590.16 1516.22,-588.62 1523.46,-596.36 1526.71,-590.16"/>
</g>
<!-- u2 -->
<g id="node43" class="node">
<title>u2</title>
<ellipse fill="#bbffff" stroke="black" cx="1799.49" cy="-571" rx="149.47" ry="18"/>
<text text-anchor="middle" x="1799.49" y="-567.3" font-family="Times,serif" font-size="14.00">Language.Drasil.Classes.Core</text>
</g>
<!-- u61&#45;&gt;u2 -->
<g id="edge86" class="edge">
<title>u61&#45;&gt;u2</title>
<path fill="none" stroke="black" d="M1667.53,-632.48C1692.88,-620.86 1727.01,-605.22 1754.2,-592.76"/>
<polygon fill="black" stroke="black" points="1755.87,-595.84 1763.51,-588.49 1752.96,-589.48 1755.87,-595.84"/>
</g>
<!-- u43 -->
<g id="node3" class="node">
<title>u43</title>
<ellipse fill="#ffffbb" stroke="black" cx="1828.49" cy="-492" rx="121.58" ry="18"/>
<text text-anchor="middle" x="1828.49" y="-488.3" font-family="Times,serif" font-size="14.00">Language.Drasil.Stages</text>
</g>
<!-- u42 -->
<g id="node4" class="node">
<title>u42</title>
<ellipse fill="#ffffbb" stroke="black" cx="1961.49" cy="-335" rx="141.07" ry="18"/>
<text text-anchor="middle" x="1961.49" y="-331.3" font-family="Times,serif" font-size="14.00">Language.Drasil.ModelExpr</text>
</g>
<!-- u18 -->
<g id="node17" class="node">
<title>u18</title>
<ellipse fill="#ffffbb" stroke="black" cx="2262.49" cy="-256" rx="112.38" ry="18"/>
<text text-anchor="middle" x="2262.49" y="-252.3" font-family="Times,serif" font-size="14.00">Language.Drasil.Expr</text>
</g>
<!-- u42&#45;&gt;u18 -->
<g id="edge59" class="edge">
<title>u42&#45;&gt;u18</title>
<path fill="none" stroke="black" d="M2021.32,-318.7C2071.65,-305.82 2143.55,-287.43 2195.74,-274.07"/>
<polygon fill="black" stroke="black" points="2196.76,-277.43 2205.58,-271.56 2195.02,-270.65 2196.76,-277.43"/>
</g>
<!-- u41 -->
<g id="node5" class="node">
<title>u41</title>
<ellipse fill="#ffffbb" stroke="black" cx="2198.49" cy="-729" rx="139.18" ry="18"/>
<text text-anchor="middle" x="2198.49" y="-725.3" font-family="Times,serif" font-size="14.00">Language.Drasil.Constraint</text>
</g>
<!-- u41&#45;&gt;u18 -->
<g id="edge58" class="edge">
<title>u41&#45;&gt;u18</title>
<path fill="none" stroke="black" d="M2215.27,-710.91C2255.8,-668.3 2358.33,-552.1 2394.49,-432 2413.76,-367.98 2344.42,-309.42 2299.01,-278.97"/>
<polygon fill="black" stroke="black" points="2300.84,-275.98 2290.56,-273.44 2297.01,-281.84 2300.84,-275.98"/>
</g>
<!-- u40 -->
<g id="node6" class="node">
<title>u40</title>
<ellipse fill="#ffffbb" stroke="black" cx="1527.49" cy="-1044" rx="124.58" ry="18"/>
<text text-anchor="middle" x="1527.49" y="-1040.3" font-family="Times,serif" font-size="14.00">Language.Drasil.Classes</text>
</g>
<!-- u40&#45;&gt;u41 -->
<g id="edge56" class="edge">
<title>u40&#45;&gt;u41</title>
<path fill="none" stroke="black" d="M1620.57,-1031.95C1760.24,-1015.3 2008.28,-985.46 2012.49,-983 2104.4,-929.15 2164.37,-810.1 2187.61,-756.76"/>
<polygon fill="black" stroke="black" points="2190.94,-757.87 2191.64,-747.3 2184.5,-755.13 2190.94,-757.87"/>
</g>
<!-- u37 -->
<g id="node8" class="node">
<title>u37</title>
<ellipse fill="#ffffbb" stroke="black" cx="1631.49" cy="-886" rx="138.38" ry="18"/>
<text text-anchor="middle" x="1631.49" y="-882.3" font-family="Times,serif" font-size="14.00">Language.Drasil.Derivation</text>
</g>
<!-- u40&#45;&gt;u37 -->
<g id="edge54" class="edge">
<title>u40&#45;&gt;u37</title>
<path fill="none" stroke="black" d="M1562.25,-1026.58C1579.97,-1016.45 1600.29,-1001.79 1612.49,-983 1625.82,-962.46 1630.16,-934.63 1631.41,-914.22"/>
<polygon fill="black" stroke="black" points="1634.92,-914.15 1631.82,-904.02 1627.92,-913.87 1634.92,-914.15"/>
</g>
<!-- u10 -->
<g id="node22" class="node">
<title>u10</title>
<ellipse fill="#ffffbb" stroke="black" cx="1062.49" cy="-965" rx="184.67" ry="18"/>
<text text-anchor="middle" x="1062.49" y="-961.3" font-family="Times,serif" font-size="14.00">Language.Drasil.DecoratedReference</text>
</g>
<!-- u40&#45;&gt;u10 -->
<g id="edge53" class="edge">
<title>u40&#45;&gt;u10</title>
<path fill="none" stroke="black" d="M1448.87,-1029.98C1369.78,-1016.88 1247.56,-996.65 1161.81,-982.45"/>
<polygon fill="black" stroke="black" points="1162.24,-978.97 1151.8,-980.79 1161.1,-985.88 1162.24,-978.97"/>
</g>
<!-- u60 -->
<g id="node58" class="node">
<title>u60</title>
<ellipse fill="#ff77ff" stroke="black" cx="1831.49" cy="-965" rx="171.67" ry="18"/>
<text text-anchor="middle" x="1831.49" y="-961.3" font-family="Times,serif" font-size="14.00">Language.Drasil.NounPhrase.Core</text>
</g>
<!-- u40&#45;&gt;u60 -->
<g id="edge57" class="edge">
<title>u40&#45;&gt;u60</title>
<path fill="none" stroke="black" d="M1586.46,-1028.06C1635.77,-1015.57 1706.31,-997.71 1759.05,-984.35"/>
<polygon fill="black" stroke="black" points="1760.18,-987.67 1769.02,-981.82 1758.46,-980.89 1760.18,-987.67"/>
</g>
<!-- u38 -->
<g id="node62" class="node">
<title>u38</title>
<ellipse fill="#ff3333" stroke="black" cx="1434.49" cy="-965" rx="168.97" ry="18"/>
<text text-anchor="middle" x="1434.49" y="-961.3" font-family="Times,serif" font-size="14.00">Language.Drasil.Uncertainty.Core</text>
</g>
<!-- u40&#45;&gt;u38 -->
<g id="edge55" class="edge">
<title>u40&#45;&gt;u38</title>
<path fill="none" stroke="black" d="M1506.85,-1025.91C1493.96,-1015.24 1477.2,-1001.36 1463.05,-989.65"/>
<polygon fill="black" stroke="black" points="1465,-986.72 1455.07,-983.04 1460.54,-992.11 1465,-986.72"/>
</g>
<!-- u39 -->
<g id="node7" class="node">
<title>u39</title>
<ellipse fill="#ffffbb" stroke="black" cx="2175.49" cy="-177" rx="117.78" ry="18"/>
<text text-anchor="middle" x="2175.49" y="-173.3" font-family="Times,serif" font-size="14.00">Language.Drasil.Space</text>
</g>
<!-- u24 -->
<g id="node12" class="node">
<title>u24</title>
<ellipse fill="#ffffbb" stroke="black" cx="1100.49" cy="-98" rx="124.28" ry="18"/>
<text text-anchor="middle" x="1100.49" y="-94.3" font-family="Times,serif" font-size="14.00">Language.Drasil.Symbol</text>
</g>
<!-- u39&#45;&gt;u24 -->
<g id="edge52" class="edge">
<title>u39&#45;&gt;u24</title>
<path fill="none" stroke="black" d="M2071.44,-168.55C1870.67,-154.17 1431.02,-122.68 1219.2,-107.5"/>
<polygon fill="black" stroke="black" points="1219.21,-103.99 1208.98,-106.77 1218.71,-110.98 1219.21,-103.99"/>
</g>
<!-- u37&#45;&gt;u61 -->
<g id="edge51" class="edge">
<title>u37&#45;&gt;u61</title>
<path fill="none" stroke="black" d="M1631.49,-867.79C1631.49,-827.56 1631.49,-727.08 1631.49,-678.35"/>
<polygon fill="black" stroke="black" points="1634.99,-678.23 1631.49,-668.23 1627.99,-678.23 1634.99,-678.23"/>
</g>
<!-- u36 -->
<g id="node9" class="node">
<title>u36</title>
<ellipse fill="#ffffbb" stroke="black" cx="2361.49" cy="-1910" rx="145.67" ry="18"/>
<text text-anchor="middle" x="2361.49" y="-1906.3" font-family="Times,serif" font-size="14.00">Language.Drasil.ShortHands</text>
</g>
<!-- u36&#45;&gt;u21 -->
<g id="edge50" class="edge">
<title>u36&#45;&gt;u21</title>
<path fill="none" stroke="black" d="M2361.49,-1891.75C2361.49,-1882.52 2361.49,-1870.93 2361.49,-1860.49"/>
<polygon fill="black" stroke="black" points="2364.99,-1860.18 2361.49,-1850.18 2357.99,-1860.18 2364.99,-1860.18"/>
</g>
<!-- u31 -->
<g id="node10" class="node">
<title>u31</title>
<ellipse fill="#ffffbb" stroke="black" cx="880.49" cy="-729" rx="142.97" ry="18"/>
<text text-anchor="middle" x="880.49" y="-725.3" font-family="Times,serif" font-size="14.00">Language.Drasil.ShortName</text>
</g>
<!-- u31&#45;&gt;u61 -->
<g id="edge44" class="edge">
<title>u31&#45;&gt;u61</title>
<path fill="none" stroke="black" d="M987.69,-717.01C1128.68,-702.55 1375.32,-677.27 1518.93,-662.54"/>
<polygon fill="black" stroke="black" points="1519.5,-666 1529.09,-661.5 1518.78,-659.04 1519.5,-666"/>
</g>
<!-- u30 -->
<g id="node11" class="node">
<title>u30</title>
<ellipse fill="#ffffbb" stroke="black" cx="1831.49" cy="-1044" rx="146.77" ry="18"/>
<text text-anchor="middle" x="1831.49" y="-1040.3" font-family="Times,serif" font-size="14.00">Language.Drasil.NounPhrase</text>
</g>
<!-- u30&#45;&gt;u60 -->
<g id="edge43" class="edge">
<title>u30&#45;&gt;u60</title>
<path fill="none" stroke="black" d="M1831.49,-1025.91C1831.49,-1016.34 1831.49,-1004.18 1831.49,-993.32"/>
<polygon fill="black" stroke="black" points="1834.99,-993.04 1831.49,-983.04 1827.99,-993.04 1834.99,-993.04"/>
</g>
<!-- u6 -->
<g id="node24" class="node">
<title>u6</title>
<ellipse fill="#ffffbb" stroke="black" cx="1100.49" cy="-20" rx="128.08" ry="18"/>
<text text-anchor="middle" x="1100.49" y="-16.3" font-family="Times,serif" font-size="14.00">Language.Drasil.Unicode</text>
</g>
<!-- u24&#45;&gt;u6 -->
<g id="edge35" class="edge">
<title>u24&#45;&gt;u6</title>
<path fill="none" stroke="black" d="M1100.49,-79.75C1100.49,-70.52 1100.49,-58.93 1100.49,-48.49"/>
<polygon fill="black" stroke="black" points="1103.99,-48.18 1100.49,-38.18 1096.99,-48.18 1103.99,-48.18"/>
</g>
<!-- u23&#45;&gt;u24 -->
<g id="edge34" class="edge">
<title>u23&#45;&gt;u24</title>
<path fill="none" stroke="black" d="M929.5,-317.08C903.68,-283.68 854.4,-208.24 891.49,-159 906.39,-139.21 960.95,-123.94 1010.59,-113.76"/>
<polygon fill="black" stroke="black" points="1011.31,-117.18 1020.43,-111.79 1009.94,-110.32 1011.31,-117.18"/>
</g>
<!-- u22 -->
<g id="node14" class="node">
<title>u22</title>
<ellipse fill="#ffffbb" stroke="black" cx="1114.49" cy="-1123" rx="111.58" ry="18"/>
<text text-anchor="middle" x="1114.49" y="-1119.3" font-family="Times,serif" font-size="14.00">Language.Drasil.Misc</text>
</g>
<!-- u20 -->
<g id="node15" class="node">
<title>u20</title>
<ellipse fill="#ffffbb" stroke="black" cx="1024.49" cy="-177" rx="124.28" ry="18"/>
<text text-anchor="middle" x="1024.49" y="-173.3" font-family="Times,serif" font-size="14.00">Language.Drasil.Display</text>
</g>
<!-- u20&#45;&gt;u24 -->
<g id="edge32" class="edge">
<title>u20&#45;&gt;u24</title>
<path fill="none" stroke="black" d="M1041.35,-158.91C1051.69,-148.44 1065.07,-134.88 1076.5,-123.31"/>
<polygon fill="black" stroke="black" points="1079.13,-125.62 1083.67,-116.04 1074.15,-120.7 1079.13,-125.62"/>
</g>
<!-- u19 -->
<g id="node16" class="node">
<title>u19</title>
<ellipse fill="#ffffbb" stroke="black" cx="448.49" cy="-965" rx="120.48" ry="18"/>
<text text-anchor="middle" x="448.49" y="-961.3" font-family="Times,serif" font-size="14.00">Language.Drasil.People</text>
</g>
<!-- u18&#45;&gt;u39 -->
<g id="edge31" class="edge">
<title>u18&#45;&gt;u39</title>
<path fill="none" stroke="black" d="M2243.18,-237.91C2231.04,-227.17 2215.22,-213.17 2201.93,-201.4"/>
<polygon fill="black" stroke="black" points="2204.25,-198.78 2194.44,-194.78 2199.61,-204.02 2204.25,-198.78"/>
</g>
<!-- u11 -->
<g id="node21" class="node">
<title>u11</title>
<ellipse fill="#ffffbb" stroke="black" cx="1756.49" cy="-177" rx="108.58" ry="18"/>
<text text-anchor="middle" x="1756.49" y="-173.3" font-family="Times,serif" font-size="14.00">Language.Drasil.UID</text>
</g>
<!-- u18&#45;&gt;u11 -->
<g id="edge30" class="edge">
<title>u18&#45;&gt;u11</title>
<path fill="none" stroke="black" d="M2183.98,-243.05C2091.75,-229.02 1939.21,-205.81 1843.47,-191.24"/>
<polygon fill="black" stroke="black" points="1843.93,-187.77 1833.52,-189.72 1842.88,-194.69 1843.93,-187.77"/>
</g>
<!-- u17&#45;&gt;u40 -->
<g id="edge29" class="edge">
<title>u17&#45;&gt;u40</title>
<path fill="none" stroke="black" d="M1017.41,-1734.97C1007.59,-1723.63 995.59,-1707.94 988.49,-1692 970.77,-1652.28 969.49,-1639.49 969.49,-1596 969.49,-1596 969.49,-1596 969.49,-1200 969.49,-1156.45 960.68,-1133.64 993.49,-1105 1023.7,-1078.63 1254.18,-1060.62 1402.3,-1051.63"/>
<polygon fill="black" stroke="black" points="1402.61,-1055.12 1412.38,-1051.03 1402.19,-1048.13 1402.61,-1055.12"/>
</g>
<!-- u25 -->
<g id="node57" class="node">
<title>u25</title>
<ellipse fill="#77ffff" stroke="black" cx="1484.49" cy="-492" rx="204.16" ry="18"/>
<text text-anchor="middle" x="1484.49" y="-488.3" font-family="Times,serif" font-size="14.00">Language.Drasil.ModelExpr.Development</text>
</g>
<!-- u16&#45;&gt;u25 -->
<g id="edge28" class="edge">
<title>u16&#45;&gt;u25</title>
<path fill="none" stroke="black" d="M1484.49,-552.91C1484.49,-543.34 1484.49,-531.18 1484.49,-520.32"/>
<polygon fill="black" stroke="black" points="1487.99,-520.04 1484.49,-510.04 1480.99,-520.04 1487.99,-520.04"/>
</g>
<!-- u12 -->
<g id="node20" class="node">
<title>u12</title>
<ellipse fill="#ffffbb" stroke="black" cx="2551.49" cy="-1123" rx="151.37" ry="18"/>
<text text-anchor="middle" x="2551.49" y="-1119.3" font-family="Times,serif" font-size="14.00">Language.Drasil.Development</text>
</g>
<!-- u12&#45;&gt;u30 -->
<g id="edge24" class="edge">
<title>u12&#45;&gt;u30</title>
<path fill="none" stroke="black" d="M2442.3,-1110.47C2328.68,-1098.45 2145.6,-1079.03 1987.49,-1062 1974.54,-1060.61 1960.98,-1059.14 1947.5,-1057.68"/>
<polygon fill="black" stroke="black" points="1947.54,-1054.16 1937.22,-1056.56 1946.78,-1061.12 1947.54,-1054.16"/>
</g>
<!-- u14 -->
<g id="node50" class="node">
<title>u14</title>
<ellipse fill="#7777ff" stroke="black" cx="2746.49" cy="-886" rx="148.67" ry="18"/>
<text text-anchor="middle" x="2746.49" y="-882.3" font-family="Times,serif" font-size="14.00">Language.Drasil.Expr.Extract</text>
</g>
<!-- u12&#45;&gt;u14 -->
<g id="edge23" class="edge">
<title>u12&#45;&gt;u14</title>
<path fill="none" stroke="black" d="M2565.83,-1104.72C2600,-1063.54 2686.34,-959.49 2726,-911.7"/>
<polygon fill="black" stroke="black" points="2728.7,-913.92 2732.39,-903.99 2723.31,-909.45 2728.7,-913.92"/>
</g>
<!-- u13 -->
<g id="node51" class="node">
<title>u13</title>
<ellipse fill="#7777ff" stroke="black" cx="2560.49" cy="-807" rx="167.87" ry="18"/>
<text text-anchor="middle" x="2560.49" y="-803.3" font-family="Times,serif" font-size="14.00">Language.Drasil.Expr.Precedence</text>
</g>
<!-- u12&#45;&gt;u13 -->
<g id="edge22" class="edge">
<title>u12&#45;&gt;u13</title>
<path fill="none" stroke="black" d="M2551.98,-1104.67C2553.47,-1052.88 2557.88,-898.95 2559.7,-835.66"/>
<polygon fill="black" stroke="black" points="2563.2,-835.37 2559.99,-825.28 2556.21,-835.17 2563.2,-835.37"/>
</g>
<!-- u12&#45;&gt;u9 -->
<g id="edge21" class="edge">
<title>u12&#45;&gt;u9</title>
<path fill="none" stroke="black" d="M2477.71,-1107.24C2413.43,-1094.39 2320.18,-1075.74 2252.53,-1062.21"/>
<polygon fill="black" stroke="black" points="2252.81,-1058.69 2242.32,-1060.17 2251.44,-1065.56 2252.81,-1058.69"/>
</g>
<!-- u5 -->
<g id="node25" class="node">
<title>u5</title>
<ellipse fill="#ffffbb" stroke="black" cx="136.49" cy="-886" rx="136.48" ry="18"/>
<text text-anchor="middle" x="136.49" y="-882.3" font-family="Times,serif" font-size="14.00">Language.Drasil.Reference</text>
</g>
<!-- u10&#45;&gt;u5 -->
<g id="edge20" class="edge">
<title>u10&#45;&gt;u5</title>
<path fill="none" stroke="black" d="M930.75,-952.36C909.92,-950.54 888.62,-948.71 868.49,-947 654.61,-928.86 405.5,-908.64 259.97,-896.91"/>
<polygon fill="black" stroke="black" points="259.93,-893.39 249.68,-896.08 259.36,-900.37 259.93,-893.39"/>
</g>
<!-- u59 -->
<g id="node48" class="node">
<title>u59</title>
<ellipse fill="#ffff77" stroke="black" cx="563.49" cy="-1280" rx="161.67" ry="18"/>
<text text-anchor="middle" x="563.49" y="-1276.3" font-family="Times,serif" font-size="14.00">Language.Drasil.Document.Core</text>
</g>
<!-- u7&#45;&gt;u59 -->
<g id="edge18" class="edge">
<title>u7&#45;&gt;u59</title>
<path fill="none" stroke="black" d="M576.55,-1813.75C571.93,-1785.04 563.49,-1725.64 563.49,-1675 563.49,-1675 563.49,-1675 563.49,-1437 563.49,-1391.94 563.49,-1339.55 563.49,-1308.4"/>
<polygon fill="black" stroke="black" points="566.99,-1308.31 563.49,-1298.31 559.99,-1308.31 566.99,-1308.31"/>
</g>
<!-- u4 -->
<g id="node41" class="node">
<title>u4</title>
<ellipse fill="#bbffff" stroke="black" cx="300.49" cy="-807" rx="155.17" ry="18"/>
<text text-anchor="middle" x="300.49" y="-803.3" font-family="Times,serif" font-size="14.00">Language.Drasil.Classes.Core2</text>
</g>
<!-- u5&#45;&gt;u4 -->
<g id="edge17" class="edge">
<title>u5&#45;&gt;u4</title>
<path fill="none" stroke="black" d="M171.67,-868.48C196.34,-856.9 229.51,-841.33 256.01,-828.88"/>
<polygon fill="black" stroke="black" points="257.52,-832.04 265.08,-824.62 254.54,-825.71 257.52,-832.04"/>
</g>
<!-- u51 -->
<g id="node32" class="node">
<title>u51</title>
<ellipse fill="#bbbbff" stroke="black" cx="1196.49" cy="-1516" rx="163.27" ry="18"/>
<text text-anchor="middle" x="1196.49" y="-1512.3" font-family="Times,serif" font-size="14.00">Language.Drasil.Chunk.Quantity</text>
</g>
<!-- u58&#45;&gt;u51 -->
<g id="edge82" class="edge">
<title>u58&#45;&gt;u51</title>
<path fill="none" stroke="black" d="M1199.16,-1655.71C1198.64,-1628.77 1197.63,-1576.54 1197.02,-1544.42"/>
<polygon fill="black" stroke="black" points="1200.51,-1544.3 1196.82,-1534.37 1193.51,-1544.43 1200.51,-1544.3"/>
</g>
<!-- u48 -->
<g id="node35" class="node">
<title>u48</title>
<ellipse fill="#bbbbff" stroke="black" cx="1528.49" cy="-1753" rx="178.97" ry="18"/>
<text text-anchor="middle" x="1528.49" y="-1749.3" font-family="Times,serif" font-size="14.00">Language.Drasil.Chunk.Constrained</text>
</g>
<!-- u57&#45;&gt;u48 -->
<g id="edge81" class="edge">
<title>u57&#45;&gt;u48</title>
<path fill="none" stroke="black" d="M1516.82,-1813.91C1518.7,-1804.24 1521.1,-1791.93 1523.23,-1780.98"/>
<polygon fill="black" stroke="black" points="1526.69,-1781.53 1525.17,-1771.04 1519.82,-1780.19 1526.69,-1781.53"/>
</g>
<!-- u56 -->
<g id="node28" class="node">
<title>u56</title>
<ellipse fill="#bbbbff" stroke="black" cx="1497.49" cy="-1201" rx="183.07" ry="18"/>
<text text-anchor="middle" x="1497.49" y="-1197.3" font-family="Times,serif" font-size="14.00">Language.Drasil.Chunk.CommonIdea</text>
</g>
<!-- u56&#45;&gt;u22 -->
<g id="edge79" class="edge">
<title>u56&#45;&gt;u22</title>
<path fill="none" stroke="black" d="M1419.98,-1184.62C1353.56,-1171.44 1258.36,-1152.55 1191.94,-1139.37"/>
<polygon fill="black" stroke="black" points="1192.44,-1135.9 1181.95,-1137.39 1191.08,-1142.77 1192.44,-1135.9"/>
</g>
<!-- u50 -->
<g id="node33" class="node">
<title>u50</title>
<ellipse fill="#bbbbff" stroke="black" cx="1510.49" cy="-1123" rx="175.47" ry="18"/>
<text text-anchor="middle" x="1510.49" y="-1119.3" font-family="Times,serif" font-size="14.00">Language.Drasil.Chunk.NamedIdea</text>
</g>
<!-- u56&#45;&gt;u50 -->
<g id="edge80" class="edge">
<title>u56&#45;&gt;u50</title>
<path fill="none" stroke="black" d="M1500.44,-1182.75C1502.03,-1173.43 1504.04,-1161.69 1505.84,-1151.17"/>
<polygon fill="black" stroke="black" points="1509.31,-1151.62 1507.55,-1141.18 1502.41,-1150.44 1509.31,-1151.62"/>
</g>
<!-- u55 -->
<g id="node29" class="node">
<title>u55</title>
<ellipse fill="#bbbbff" stroke="black" cx="1571.49" cy="-1674" rx="151.37" ry="18"/>
<text text-anchor="middle" x="1571.49" y="-1670.3" font-family="Times,serif" font-size="14.00">Language.Drasil.Chunk.Unital</text>
</g>
<!-- u49 -->
<g id="node34" class="node">
<title>u49</title>
<ellipse fill="#bbbbff" stroke="black" cx="1384.49" cy="-1595" rx="157.87" ry="18"/>
<text text-anchor="middle" x="1384.49" y="-1591.3" font-family="Times,serif" font-size="14.00">Language.Drasil.Chunk.Unitary</text>
</g>
<!-- u55&#45;&gt;u49 -->
<g id="edge78" class="edge">
<title>u55&#45;&gt;u49</title>
<path fill="none" stroke="black" d="M1531.37,-1656.48C1502.9,-1644.76 1464.5,-1628.95 1434.1,-1616.43"/>
<polygon fill="black" stroke="black" points="1435.12,-1613.06 1424.54,-1612.49 1432.45,-1619.54 1435.12,-1613.06"/>
</g>
<!-- u44 -->
<g id="node39" class="node">
<title>u44</title>
<ellipse fill="#bbbbff" stroke="black" cx="1575.49" cy="-1516" rx="198.47" ry="18"/>
<text text-anchor="middle" x="1575.49" y="-1512.3" font-family="Times,serif" font-size="14.00">Language.Drasil.Chunk.DefinedQuantity</text>
</g>
<!-- u55&#45;&gt;u44 -->
<g id="edge77" class="edge">
<title>u55&#45;&gt;u44</title>
<path fill="none" stroke="black" d="M1571.93,-1655.71C1572.62,-1628.77 1573.96,-1576.54 1574.78,-1544.42"/>
<polygon fill="black" stroke="black" points="1578.28,-1544.45 1575.04,-1534.37 1571.29,-1544.28 1578.28,-1544.45"/>
</g>
<!-- u54 -->
<g id="node30" class="node">
<title>u54</title>
<ellipse fill="#bbbbff" stroke="black" cx="643.49" cy="-1201" rx="159.47" ry="18"/>
<text text-anchor="middle" x="643.49" y="-1197.3" font-family="Times,serif" font-size="14.00">Language.Drasil.Chunk.Citation</text>
</g>
<!-- u54&#45;&gt;u22 -->
<g id="edge76" class="edge">
<title>u54&#45;&gt;u22</title>
<path fill="none" stroke="black" d="M730.7,-1185.93C815.67,-1172.22 944.05,-1151.5 1028.57,-1137.86"/>
<polygon fill="black" stroke="black" points="1029.34,-1141.29 1038.65,-1136.24 1028.22,-1134.37 1029.34,-1141.29"/>
</g>
<!-- u54&#45;&gt;u4 -->
<g id="edge75" class="edge">
<title>u54&#45;&gt;u4</title>
<path fill="none" stroke="black" d="M507.43,-1191.51C411.67,-1177.28 300.49,-1140.24 300.49,-1045 300.49,-1045 300.49,-1045 300.49,-964 300.49,-918.94 300.49,-866.55 300.49,-835.4"/>
<polygon fill="black" stroke="black" points="303.99,-835.31 300.49,-825.31 296.99,-835.31 303.99,-835.31"/>
</g>
<!-- u3 -->
<g id="node42" class="node">
<title>u3</title>
<ellipse fill="#bbffff" stroke="black" cx="643.49" cy="-1123" rx="169.77" ry="18"/>
<text text-anchor="middle" x="643.49" y="-1119.3" font-family="Times,serif" font-size="14.00">Language.Drasil.Classes.Citations</text>
</g>
<!-- u54&#45;&gt;u3 -->
<g id="edge74" class="edge">
<title>u54&#45;&gt;u3</title>
<path fill="none" stroke="black" d="M643.49,-1182.75C643.49,-1173.52 643.49,-1161.93 643.49,-1151.49"/>
<polygon fill="black" stroke="black" points="646.99,-1151.18 643.49,-1141.18 639.99,-1151.18 646.99,-1151.18"/>
</g>
<!-- u52&#45;&gt;u44 -->
<g id="edge72" class="edge">
<title>u52&#45;&gt;u44</title>
<path fill="none" stroke="black" d="M1713.37,-1577.67C1686.96,-1566.05 1651.26,-1550.34 1622.8,-1537.82"/>
<polygon fill="black" stroke="black" points="1624.02,-1534.53 1613.45,-1533.7 1621.2,-1540.94 1624.02,-1534.53"/>
</g>
<!-- u29 -->
<g id="node53" class="node">
<title>u29</title>
<ellipse fill="#77ffff" stroke="black" cx="1809.49" cy="-1438" rx="167.07" ry="18"/>
<text text-anchor="middle" x="1809.49" y="-1434.3" font-family="Times,serif" font-size="14.00">Language.Drasil.ModelExpr.Math</text>
</g>
<!-- u52&#45;&gt;u29 -->
<g id="edge71" class="edge">
<title>u52&#45;&gt;u29</title>
<path fill="none" stroke="black" d="M1760.88,-1576.88C1767.7,-1565.13 1776.44,-1549 1782.49,-1534 1791.47,-1511.73 1798.71,-1485.39 1803.42,-1466.1"/>
<polygon fill="black" stroke="black" points="1806.87,-1466.72 1805.77,-1456.18 1800.06,-1465.1 1806.87,-1466.72"/>
</g>
<!-- u47 -->
<g id="node36" class="node">
<title>u47</title>
<ellipse fill="#bbbbff" stroke="black" cx="1459.49" cy="-1438" rx="165.17" ry="18"/>
<text text-anchor="middle" x="1459.49" y="-1434.3" font-family="Times,serif" font-size="14.00">Language.Drasil.Chunk.UnitDefn</text>
</g>
<!-- u51&#45;&gt;u47 -->
<g id="edge70" class="edge">
<title>u51&#45;&gt;u47</title>
<path fill="none" stroke="black" d="M1251.94,-1498.98C1293.55,-1486.95 1350.65,-1470.45 1394.42,-1457.8"/>
<polygon fill="black" stroke="black" points="1395.47,-1461.14 1404.11,-1455 1393.53,-1454.42 1395.47,-1461.14"/>
</g>
<!-- u15 -->
<g id="node49" class="node">
<title>u15</title>
<ellipse fill="#7777ff" stroke="black" cx="1137.49" cy="-1438" rx="138.38" ry="18"/>
<text text-anchor="middle" x="1137.49" y="-1434.3" font-family="Times,serif" font-size="14.00">Language.Drasil.Expr.Math</text>
</g>
<!-- u51&#45;&gt;u15 -->
<g id="edge69" class="edge">
<title>u51&#45;&gt;u15</title>
<path fill="none" stroke="black" d="M1183.1,-1497.75C1175.41,-1487.84 1165.6,-1475.21 1157.06,-1464.21"/>
<polygon fill="black" stroke="black" points="1159.72,-1461.93 1150.82,-1456.18 1154.19,-1466.22 1159.72,-1461.93"/>
</g>
<!-- u50&#45;&gt;u40 -->
<g id="edge68" class="edge">
<title>u50&#45;&gt;u40</title>
<path fill="none" stroke="black" d="M1514.26,-1104.91C1516.4,-1095.24 1519.11,-1082.93 1521.53,-1071.98"/>
<polygon fill="black" stroke="black" points="1524.99,-1072.56 1523.73,-1062.04 1518.15,-1071.05 1524.99,-1072.56"/>
</g>
<!-- u50&#45;&gt;u30 -->
<g id="edge67" class="edge">
<title>u50&#45;&gt;u30</title>
<path fill="none" stroke="black" d="M1576.22,-1106.23C1628.97,-1093.58 1703.01,-1075.82 1757.77,-1062.68"/>
<polygon fill="black" stroke="black" points="1758.85,-1066.02 1767.76,-1060.29 1757.22,-1059.22 1758.85,-1066.02"/>
</g>
<!-- u49&#45;&gt;u51 -->
<g id="edge66" class="edge">
<title>u49&#45;&gt;u51</title>
<path fill="none" stroke="black" d="M1344.16,-1577.48C1315.53,-1565.76 1276.93,-1549.95 1246.37,-1537.43"/>
<polygon fill="black" stroke="black" points="1247.33,-1534.04 1236.75,-1533.49 1244.68,-1540.52 1247.33,-1534.04"/>
</g>
<!-- u48&#45;&gt;u55 -->
<g id="edge65" class="edge">
<title>u48&#45;&gt;u55</title>
<path fill="none" stroke="black" d="M1538.03,-1734.91C1543.6,-1724.94 1550.73,-1712.17 1556.98,-1700.97"/>
<polygon fill="black" stroke="black" points="1560.15,-1702.48 1561.97,-1692.04 1554.04,-1699.07 1560.15,-1702.48"/>
</g>
<!-- u45 -->
<g id="node38" class="node">
<title>u45</title>
<ellipse fill="#bbbbff" stroke="black" cx="1497.49" cy="-1359" rx="160.57" ry="18"/>
<text text-anchor="middle" x="1497.49" y="-1355.3" font-family="Times,serif" font-size="14.00">Language.Drasil.Chunk.Concept</text>
</g>
<!-- u47&#45;&gt;u45 -->
<g id="edge64" class="edge">
<title>u47&#45;&gt;u45</title>
<path fill="none" stroke="black" d="M1467.92,-1419.91C1472.79,-1410.04 1479.02,-1397.42 1484.5,-1386.31"/>
<polygon fill="black" stroke="black" points="1487.79,-1387.56 1489.08,-1377.04 1481.51,-1384.46 1487.79,-1387.56"/>
</g>
<!-- u46&#45;&gt;u45 -->
<g id="edge63" class="edge">
<title>u46&#45;&gt;u45</title>
<path fill="none" stroke="black" d="M1952.02,-1734.73C1970.91,-1706.96 2004.49,-1649.99 2004.49,-1596 2004.49,-1596 2004.49,-1596 2004.49,-1515 2004.49,-1471.94 2017.06,-1449.28 1985.49,-1420 1960.59,-1396.9 1778.06,-1379.34 1643.5,-1369.35"/>
<polygon fill="black" stroke="black" points="1643.73,-1365.86 1633.5,-1368.61 1643.21,-1372.84 1643.73,-1365.86"/>
</g>
<!-- u53 -->
<g id="node40" class="node">
<title>u53</title>
<ellipse fill="#ffbbbb" stroke="black" cx="1497.49" cy="-1280" rx="185.47" ry="18"/>
<text text-anchor="middle" x="1497.49" y="-1276.3" font-family="Times,serif" font-size="14.00">Language.Drasil.Chunk.Concept.Core</text>
</g>
<!-- u45&#45;&gt;u53 -->
<g id="edge62" class="edge">
<title>u45&#45;&gt;u53</title>
<path fill="none" stroke="black" d="M1497.49,-1340.91C1497.49,-1331.34 1497.49,-1319.18 1497.49,-1308.32"/>
<polygon fill="black" stroke="black" points="1500.99,-1308.04 1497.49,-1298.04 1493.99,-1308.04 1500.99,-1308.04"/>
</g>
<!-- u44&#45;&gt;u47 -->
<g id="edge61" class="edge">
<title>u44&#45;&gt;u47</title>
<path fill="none" stroke="black" d="M1549.74,-1498.13C1533.22,-1487.31 1511.58,-1473.13 1493.64,-1461.37"/>
<polygon fill="black" stroke="black" points="1495.44,-1458.37 1485.16,-1455.82 1491.61,-1464.23 1495.44,-1458.37"/>
</g>
<!-- u44&#45;&gt;u15 -->
<g id="edge60" class="edge">
<title>u44&#45;&gt;u15</title>
<path fill="none" stroke="black" d="M1487.9,-1499.8C1412.17,-1486.66 1303.15,-1467.75 1226.89,-1454.51"/>
<polygon fill="black" stroke="black" points="1227.27,-1451.03 1216.82,-1452.77 1226.07,-1457.92 1227.27,-1451.03"/>
</g>
<!-- u53&#45;&gt;u56 -->
<g id="edge73" class="edge">
<title>u53&#45;&gt;u56</title>
<path fill="none" stroke="black" d="M1497.49,-1261.91C1497.49,-1252.34 1497.49,-1240.18 1497.49,-1229.32"/>
<polygon fill="black" stroke="black" points="1500.99,-1229.04 1497.49,-1219.04 1493.99,-1229.04 1500.99,-1229.04"/>
</g>
<!-- u4&#45;&gt;u31 -->
<g id="edge16" class="edge">
<title>u4&#45;&gt;u31</title>
<path fill="none" stroke="black" d="M399.21,-793.06C503.68,-779.37 667.94,-757.85 774.94,-743.83"/>
<polygon fill="black" stroke="black" points="775.65,-747.27 785.11,-742.5 774.74,-740.33 775.65,-747.27"/>
</g>
<!-- u35 -->
<g id="node45" class="node">
<title>u35</title>
<ellipse fill="#ffbbff" stroke="black" cx="643.49" cy="-1044" rx="151.37" ry="18"/>
<text text-anchor="middle" x="643.49" y="-1040.3" font-family="Times,serif" font-size="14.00">Language.Drasil.Data.Citation</text>
</g>
<!-- u3&#45;&gt;u35 -->
<g id="edge15" class="edge">
<title>u3&#45;&gt;u35</title>
<path fill="none" stroke="black" d="M643.49,-1104.91C643.49,-1095.34 643.49,-1083.18 643.49,-1072.32"/>
<polygon fill="black" stroke="black" points="646.99,-1072.04 643.49,-1062.04 639.99,-1072.04 646.99,-1072.04"/>
</g>
<!-- u2&#45;&gt;u43 -->
<g id="edge14" class="edge">
<title>u2&#45;&gt;u43</title>
<path fill="none" stroke="black" d="M1805.92,-552.91C1809.6,-543.14 1814.3,-530.68 1818.45,-519.65"/>
<polygon fill="black" stroke="black" points="1821.82,-520.63 1822.07,-510.04 1815.27,-518.17 1821.82,-520.63"/>
</g>
<!-- u2&#45;&gt;u24 -->
<g id="edge12" class="edge">
<title>u2&#45;&gt;u24</title>
<path fill="none" stroke="black" d="M1691.98,-558.42C1675.08,-556.6 1657.81,-554.75 1641.49,-553 1551.94,-543.4 1315.3,-557.03 1238.49,-510 1195.49,-483.67 1176.49,-465.42 1176.49,-415 1176.49,-415 1176.49,-415 1176.49,-255 1176.49,-211.51 1177.48,-197.63 1157.49,-159 1150.53,-145.55 1139.63,-133 1129.23,-122.9"/>
<polygon fill="black" stroke="black" points="1131.51,-120.23 1121.8,-115.99 1126.74,-125.36 1131.51,-120.23"/>
</g>
<!-- u33 -->
<g id="node52" class="node">
<title>u33</title>
<ellipse fill="#ff7777" stroke="black" cx="1668.49" cy="-256" rx="140.28" ry="18"/>
<text text-anchor="middle" x="1668.49" y="-252.3" font-family="Times,serif" font-size="14.00">Language.Drasil.Label.Type</text>
</g>
<!-- u2&#45;&gt;u33 -->
<g id="edge13" class="edge">
<title>u2&#45;&gt;u33</title>
<path fill="none" stroke="black" d="M1692.13,-558.45C1539.02,-541.88 1275.76,-513.02 1271.49,-510 1240,-487.74 1242.15,-469.58 1233.49,-432 1229.89,-416.41 1224.05,-408.92 1233.49,-396 1274.6,-339.7 1464.54,-295.15 1579.4,-272.78"/>
<polygon fill="black" stroke="black" points="1580.1,-276.21 1589.25,-270.88 1578.77,-269.34 1580.1,-276.21"/>
</g>
<!-- u1&#45;&gt;u54 -->
<g id="edge11" class="edge">
<title>u1&#45;&gt;u54</title>
<path fill="none" stroke="black" d="M765.2,-1655.7C763.18,-1626.93 759.49,-1567.43 759.49,-1517 759.49,-1517 759.49,-1517 759.49,-1358 759.49,-1313.91 760.15,-1297.85 734.49,-1262 723.15,-1246.16 706.22,-1233.36 690.02,-1223.71"/>
<polygon fill="black" stroke="black" points="691.56,-1220.56 681.14,-1218.68 688.11,-1226.65 691.56,-1220.56"/>
</g>
<!-- u35&#45;&gt;u19 -->
<g id="edge48" class="edge">
<title>u35&#45;&gt;u19</title>
<path fill="none" stroke="black" d="M602.13,-1026.67C571.94,-1014.75 530.85,-998.52 498.76,-985.85"/>
<polygon fill="black" stroke="black" points="499.7,-982.46 489.11,-982.04 497.13,-988.97 499.7,-982.46"/>
</g>
<!-- u34 -->
<g id="node46" class="node">
<title>u34</title>
<ellipse fill="#ffbbff" stroke="black" cx="723.49" cy="-965" rx="136.48" ry="18"/>
<text text-anchor="middle" x="723.49" y="-961.3" font-family="Times,serif" font-size="14.00">Language.Drasil.Data.Date</text>
</g>
<!-- u35&#45;&gt;u34 -->
<g id="edge49" class="edge">
<title>u35&#45;&gt;u34</title>
<path fill="none" stroke="black" d="M661.24,-1025.91C672.22,-1015.34 686.48,-1001.62 698.58,-989.98"/>
<polygon fill="black" stroke="black" points="701.01,-992.5 705.78,-983.04 696.15,-987.45 701.01,-992.5"/>
</g>
<!-- u32&#45;&gt;u40 -->
<g id="edge46" class="edge">
<title>u32&#45;&gt;u40</title>
<path fill="none" stroke="black" d="M1856.3,-1106.6C1784.82,-1093.21 1681.75,-1073.9 1610.13,-1060.48"/>
<polygon fill="black" stroke="black" points="1610.71,-1057.03 1600.24,-1058.63 1609.42,-1063.91 1610.71,-1057.03"/>
</g>
<!-- u32&#45;&gt;u30 -->
<g id="edge45" class="edge">
<title>u32&#45;&gt;u30</title>
<path fill="none" stroke="black" d="M1915.01,-1105.1C1899.81,-1094.17 1879.85,-1079.8 1863.25,-1067.85"/>
<polygon fill="black" stroke="black" points="1865.08,-1064.86 1854.91,-1061.86 1860.99,-1070.54 1865.08,-1064.86"/>
</g>
<!-- u59&#45;&gt;u5 -->
<g id="edge83" class="edge">
<title>u59&#45;&gt;u5</title>
<path fill="none" stroke="black" d="M415.17,-1272.72C314.46,-1259.52 199.49,-1222.82 199.49,-1124 199.49,-1124 199.49,-1124 199.49,-1043 199.49,-994.29 172.76,-942.85 154.12,-912.9"/>
<polygon fill="black" stroke="black" points="156.97,-910.86 148.63,-904.32 151.07,-914.64 156.97,-910.86"/>
</g>
<!-- u59&#45;&gt;u54 -->
<g id="edge84" class="edge">
<title>u59&#45;&gt;u54</title>
<path fill="none" stroke="black" d="M581.24,-1261.91C592.22,-1251.34 606.48,-1237.62 618.58,-1225.98"/>
<polygon fill="black" stroke="black" points="621.01,-1228.5 625.78,-1219.04 616.15,-1223.45 621.01,-1228.5"/>
</g>
<!-- u15&#45;&gt;u40 -->
<g id="edge27" class="edge">
<title>u15&#45;&gt;u40</title>
<path fill="none" stroke="black" d="M1164.73,-1420.33C1202.05,-1395.16 1264.49,-1343.69 1264.49,-1281 1264.49,-1281 1264.49,-1281 1264.49,-1200 1264.49,-1118.08 1360.36,-1078.58 1436.33,-1060.14"/>
<polygon fill="black" stroke="black" points="1437.49,-1063.46 1446.43,-1057.78 1435.9,-1056.64 1437.49,-1063.46"/>
</g>
<!-- u14&#45;&gt;u18 -->
<g id="edge26" class="edge">
<title>u14&#45;&gt;u18</title>
<path fill="none" stroke="black" d="M2748.32,-867.82C2751.21,-839.25 2756.49,-780.16 2756.49,-730 2756.49,-730 2756.49,-730 2756.49,-413 2756.49,-331.26 2507.46,-286.95 2363.02,-268.13"/>
<polygon fill="black" stroke="black" points="2363.17,-264.62 2352.81,-266.81 2362.28,-271.56 2363.17,-264.62"/>
</g>
<!-- u13&#45;&gt;u18 -->
<g id="edge25" class="edge">
<title>u13&#45;&gt;u18</title>
<path fill="none" stroke="black" d="M2558.29,-788.83C2554.82,-760.28 2548.49,-701.2 2548.49,-651 2548.49,-651 2548.49,-651 2548.49,-413 2548.49,-324.82 2442.4,-286.18 2359.45,-269.45"/>
<polygon fill="black" stroke="black" points="2359.95,-265.98 2349.46,-267.52 2358.62,-272.86 2359.95,-265.98"/>
</g>
<!-- u33&#45;&gt;u11 -->
<g id="edge47" class="edge">
<title>u33&#45;&gt;u11</title>
<path fill="none" stroke="black" d="M1688.02,-237.91C1700.29,-227.17 1716.29,-213.17 1729.74,-201.4"/>
<polygon fill="black" stroke="black" points="1732.09,-204 1737.32,-194.78 1727.48,-198.73 1732.09,-204"/>
</g>
<!-- u29&#45;&gt;u40 -->
<g id="edge42" class="edge">
<title>u29&#45;&gt;u40</title>
<path fill="none" stroke="black" d="M1790.06,-1419.94C1762.01,-1393.31 1713.49,-1338.88 1713.49,-1281 1713.49,-1281 1713.49,-1281 1713.49,-1200 1713.49,-1156.94 1722.61,-1137.61 1694.49,-1105 1675.59,-1083.09 1648.08,-1069.18 1620.82,-1060.35"/>
<polygon fill="black" stroke="black" points="1621.79,-1056.98 1611.2,-1057.43 1619.76,-1063.68 1621.79,-1056.98"/>
</g>
<!-- u28 -->
<g id="node54" class="node">
<title>u28</title>
<ellipse fill="#77ffff" stroke="black" cx="1419.49" cy="-414" rx="177.37" ry="18"/>
<text text-anchor="middle" x="1419.49" y="-410.3" font-family="Times,serif" font-size="14.00">Language.Drasil.ModelExpr.Extract</text>
</g>
<!-- u28&#45;&gt;u42 -->
<g id="edge41" class="edge">
<title>u28&#45;&gt;u42</title>
<path fill="none" stroke="black" d="M1517.95,-399.01C1615.18,-385.2 1763.12,-364.18 1861.03,-350.27"/>
<polygon fill="black" stroke="black" points="1861.53,-353.74 1870.93,-348.86 1860.54,-346.81 1861.53,-353.74"/>
</g>
<!-- u27 -->
<g id="node55" class="node">
<title>u27</title>
<ellipse fill="#77ffff" stroke="black" cx="1811.49" cy="-414" rx="196.07" ry="18"/>
<text text-anchor="middle" x="1811.49" y="-410.3" font-family="Times,serif" font-size="14.00">Language.Drasil.ModelExpr.Precedence</text>
</g>
<!-- u27&#45;&gt;u42 -->
<g id="edge40" class="edge">
<title>u27&#45;&gt;u42</title>
<path fill="none" stroke="black" d="M1844.41,-396.1C1866.64,-384.69 1896.16,-369.53 1920,-357.3"/>
<polygon fill="black" stroke="black" points="1921.86,-360.27 1929.16,-352.59 1918.67,-354.05 1921.86,-360.27"/>
</g>
<!-- u26 -->
<g id="node56" class="node">
<title>u26</title>
<ellipse fill="#77ffff" stroke="black" cx="2205.49" cy="-414" rx="180.07" ry="18"/>
<text text-anchor="middle" x="2205.49" y="-410.3" font-family="Times,serif" font-size="14.00">Language.Drasil.ModelExpr.Convert</text>
</g>
<!-- u26&#45;&gt;u42 -->
<g id="edge39" class="edge">
<title>u26&#45;&gt;u42</title>
<path fill="none" stroke="black" d="M2153.74,-396.67C2115.1,-384.48 2062.2,-367.78 2021.66,-354.99"/>
<polygon fill="black" stroke="black" points="2022.5,-351.58 2011.91,-351.91 2020.39,-358.26 2022.5,-351.58"/>
</g>
<!-- u25&#45;&gt;u28 -->
<g id="edge38" class="edge">
<title>u25&#45;&gt;u28</title>
<path fill="none" stroke="black" d="M1469.74,-473.75C1461.18,-463.75 1450.25,-450.97 1440.77,-439.88"/>
<polygon fill="black" stroke="black" points="1443.34,-437.5 1434.18,-432.18 1438.02,-442.05 1443.34,-437.5"/>
</g>
<!-- u25&#45;&gt;u27 -->
<g id="edge37" class="edge">
<title>u25&#45;&gt;u27</title>
<path fill="none" stroke="black" d="M1553.44,-474.98C1605.92,-462.78 1678.2,-445.98 1732.91,-433.26"/>
<polygon fill="black" stroke="black" points="1733.97,-436.61 1742.91,-430.94 1732.38,-429.79 1733.97,-436.61"/>
</g>
<!-- u25&#45;&gt;u26 -->
<g id="edge36" class="edge">
<title>u25&#45;&gt;u26</title>
<path fill="none" stroke="black" d="M1610.08,-477.76C1740.72,-463.99 1944.27,-442.53 2076.26,-428.62"/>
<polygon fill="black" stroke="black" points="2076.85,-432.08 2086.42,-427.55 2076.11,-425.12 2076.85,-432.08"/>
</g>
<!-- u60&#45;&gt;u61 -->
<g id="edge85" class="edge">
<title>u60&#45;&gt;u61</title>
<path fill="none" stroke="black" d="M1822.57,-946.74C1812.39,-927.31 1795,-894.94 1778.49,-868 1734.93,-796.95 1678.46,-716.49 1649.84,-676.46"/>
<polygon fill="black" stroke="black" points="1652.52,-674.18 1643.85,-668.09 1646.83,-678.25 1652.52,-674.18"/>
</g>
<!-- u9&#45;&gt;u61 -->
<g id="edge19" class="edge">
<title>u9&#45;&gt;u61</title>
<path fill="none" stroke="black" d="M2136.53,-1026.13C2096.75,-1001.27 2031.49,-950.75 2031.49,-887 2031.49,-887 2031.49,-887 2031.49,-806 2031.49,-739.51 1836.92,-690.37 1719.18,-666.72"/>
<polygon fill="black" stroke="black" points="1719.58,-663.23 1709.09,-664.72 1718.21,-670.1 1719.58,-663.23"/>
</g>
<!-- u21&#45;&gt;u2 -->
<g id="edge33" class="edge">
<title>u21&#45;&gt;u2</title>
<path fill="none" stroke="black" d="M2362.04,-1813.69C2362.9,-1784.91 2364.49,-1725.38 2364.49,-1675 2364.49,-1675 2364.49,-1675 2364.49,-885 2364.49,-807.25 2397.31,-769.83 2346.49,-711 2290.46,-646.15 2055.6,-605.02 1912.47,-585.48"/>
<polygon fill="black" stroke="black" points="1912.7,-581.98 1902.32,-584.11 1911.76,-588.92 1912.7,-581.98"/>
</g>
<!-- u8 -->
<g id="node61" class="node">
<title>u8</title>
<ellipse fill="#3333ff" stroke="black" cx="2654.49" cy="-1910" rx="129.18" ry="18"/>
<text text-anchor="middle" x="2654.49" y="-1906.3" font-family="Times,serif" font-size="14.00">Language.Drasil.URI.AST</text>
</g>
</g>
</svg>
