<?xml version="1.0" encoding="UTF-8" standalone="no"?>
<!DOCTYPE svg PUBLIC "-//W3C//DTD SVG 1.1//EN"
 "http://www.w3.org/Graphics/SVG/1.1/DTD/svg11.dtd">
<!-- Generated by graphviz version 2.43.0 (0)
 -->
<!-- Title: G Pages: 1 -->
<svg width="432pt" height="284pt"
 viewBox="0.00 0.00 432.00 284.47" xmlns="http://www.w3.org/2000/svg" xmlns:xlink="http://www.w3.org/1999/xlink">
<g id="graph0" class="graph" transform="scale(0.06 0.06) rotate(0) translate(4 4855.33)">
<title>G</title>
<polygon fill="white" stroke="transparent" points="-4,4 -4,-4855.33 7375.55,-4855.33 7375.55,4 -4,4"/>
<!-- u58 -->
<g id="node1" class="node">
<title>u58</title>
<ellipse fill="#bbffbb" stroke="black" cx="2878.87" cy="-4484" rx="62.29" ry="18"/>
<text text-anchor="middle" x="2878.87" y="-4480.3" font-family="Times,serif" font-size="14.00">HelloWorld</text>
</g>
<!-- u57 -->
<g id="node2" class="node">
<title>u57</title>
<ellipse fill="#bbffbb" stroke="black" cx="2878.87" cy="-4190" rx="42.49" ry="18"/>
<text text-anchor="middle" x="2878.87" y="-4186.3" font-family="Times,serif" font-size="14.00">Helper</text>
</g>
<!-- u58&#45;&gt;u57 -->
<g id="edge82" class="edge">
<title>u58&#45;&gt;u57</title>
<path fill="none" stroke="black" d="M2878.87,-4465.61C2878.87,-4416.72 2878.87,-4277.76 2878.87,-4218.42"/>
<polygon fill="black" stroke="black" points="2882.37,-4218.3 2878.87,-4208.3 2875.37,-4218.3 2882.37,-4218.3"/>
</g>
<!-- u56 -->
<g id="node3" class="node">
<title>u56</title>
<ellipse fill="#bbffbb" stroke="black" cx="3018.87" cy="-4484" rx="59.59" ry="18"/>
<text text-anchor="middle" x="3018.87" y="-4480.3" font-family="Times,serif" font-size="14.00">VectorTest</text>
</g>
<!-- u53 -->
<g id="node4" class="node">
<title>u53</title>
<ellipse fill="#bbffbb" stroke="black" cx="3172.87" cy="-4484" rx="76.09" ry="18"/>
<text text-anchor="middle" x="3172.87" y="-4480.3" font-family="Times,serif" font-size="14.00">NameGenTest</text>
</g>
<!-- u52 -->
<g id="node5" class="node">
<title>u52</title>
<ellipse fill="#bbffbb" stroke="black" cx="3319.87" cy="-4484" rx="52.79" ry="18"/>
<text text-anchor="middle" x="3319.87" y="-4480.3" font-family="Times,serif" font-size="14.00">FileTests</text>
</g>
<!-- u0 -->
<g id="node6" class="node">
<title>u0</title>
<ellipse fill="#ffffbb" stroke="black" cx="5455.87" cy="-1838" rx="214.46" ry="18"/>
<text text-anchor="middle" x="5455.87" y="-1834.3" font-family="Times,serif" font-size="14.00">Data.Drasil.ExternalLibraries.ODELibraries</text>
</g>
<!-- u2 -->
<g id="node58" class="node">
<title>u2</title>
<ellipse fill="#ff77ff" stroke="black" cx="5403.87" cy="-1544" rx="172.77" ry="18"/>
<text text-anchor="middle" x="5403.87" y="-1540.3" font-family="Times,serif" font-size="14.00">Language.Drasil.Data.ODELibPckg</text>
</g>
<!-- u0&#45;&gt;u2 -->
<g id="edge1" class="edge">
<title>u0&#45;&gt;u2</title>
<path fill="none" stroke="black" d="M5452.77,-1819.61C5444.06,-1770.72 5419.32,-1631.76 5408.75,-1572.42"/>
<polygon fill="black" stroke="black" points="5412.15,-1571.53 5406.95,-1562.3 5405.26,-1572.76 5412.15,-1571.53"/>
</g>
<!-- u55 -->
<g id="node7" class="node">
<title>u55</title>
<ellipse fill="#bbbbff" stroke="black" cx="3485.87" cy="-4484" rx="95.58" ry="18"/>
<text text-anchor="middle" x="3485.87" y="-4480.3" font-family="Times,serif" font-size="14.00">GOOL.PatternTest</text>
</g>
<!-- u54 -->
<g id="node8" class="node">
<title>u54</title>
<ellipse fill="#bbbbff" stroke="black" cx="3485.87" cy="-4190" rx="84.49" ry="18"/>
<text text-anchor="middle" x="3485.87" y="-4186.3" font-family="Times,serif" font-size="14.00">GOOL.Observer</text>
</g>
<!-- u55&#45;&gt;u54 -->
<g id="edge81" class="edge">
<title>u55&#45;&gt;u54</title>
<path fill="none" stroke="black" d="M3485.87,-4465.61C3485.87,-4416.72 3485.87,-4277.76 3485.87,-4218.42"/>
<polygon fill="black" stroke="black" points="3489.37,-4218.3 3485.87,-4208.3 3482.37,-4218.3 3489.37,-4218.3"/>
</g>
<!-- u14 -->
<g id="node9" class="node">
<title>u14</title>
<ellipse fill="#ffbbbb" stroke="black" cx="5688.87" cy="-956" rx="110.48" ry="18"/>
<text text-anchor="middle" x="5688.87" y="-952.3" font-family="Times,serif" font-size="14.00">Language.Drasil.Mod</text>
</g>
<!-- u10 -->
<g id="node18" class="node">
<title>u10</title>
<ellipse fill="#bbffff" stroke="black" cx="5688.87" cy="-662" rx="170.87" ry="18"/>
<text text-anchor="middle" x="5688.87" y="-658.3" font-family="Times,serif" font-size="14.00">Language.Drasil.Chunk.Parameter</text>
</g>
<!-- u14&#45;&gt;u10 -->
<g id="edge24" class="edge">
<title>u14&#45;&gt;u10</title>
<path fill="none" stroke="black" d="M5688.87,-937.61C5688.87,-888.72 5688.87,-749.76 5688.87,-690.42"/>
<polygon fill="black" stroke="black" points="5692.37,-690.3 5688.87,-680.3 5685.37,-690.3 5692.37,-690.3"/>
</g>
<!-- u45 -->
<g id="node27" class="node">
<title>u45</title>
<ellipse fill="#ffbbff" stroke="black" cx="5052.87" cy="-662" rx="160.57" ry="18"/>
<text text-anchor="middle" x="5052.87" y="-658.3" font-family="Times,serif" font-size="14.00">Language.Drasil.Code.DataDesc</text>
</g>
<!-- u14&#45;&gt;u45 -->
<g id="edge25" class="edge">
<title>u14&#45;&gt;u45</title>
<path fill="none" stroke="black" d="M5653.77,-938.88C5545.89,-889.35 5219.17,-739.35 5098.39,-683.9"/>
<polygon fill="black" stroke="black" points="5099.59,-680.6 5089.04,-679.61 5096.67,-686.96 5099.59,-680.6"/>
</g>
<!-- u7 -->
<g id="node10" class="node">
<title>u7</title>
<ellipse fill="#ffbbbb" stroke="black" cx="6604.87" cy="-2132" rx="178.17" ry="18"/>
<text text-anchor="middle" x="6604.87" y="-2128.3" font-family="Times,serif" font-size="14.00">Language.Drasil.ICOSolutionSearch</text>
</g>
<!-- u12 -->
<g id="node16" class="node">
<title>u12</title>
<ellipse fill="#bbffff" stroke="black" cx="6177.87" cy="-1838" rx="191.17" ry="18"/>
<text text-anchor="middle" x="6177.87" y="-1834.3" font-family="Times,serif" font-size="14.00">Language.Drasil.Chunk.CodeDefinition</text>
</g>
<!-- u7&#45;&gt;u12 -->
<g id="edge20" class="edge">
<title>u7&#45;&gt;u12</title>
<path fill="none" stroke="black" d="M6580.07,-2114.04C6507.18,-2064.19 6293.59,-1918.14 6211,-1861.66"/>
<polygon fill="black" stroke="black" points="6212.97,-1858.76 6202.74,-1856.01 6209.02,-1864.54 6212.97,-1858.76"/>
</g>
<!-- u6 -->
<g id="node11" class="node">
<title>u6</title>
<ellipse fill="#ffbbbb" stroke="black" cx="2927.87" cy="-3896" rx="117.78" ry="18"/>
<text text-anchor="middle" x="2927.87" y="-3892.3" font-family="Times,serif" font-size="14.00">Language.Drasil.GOOL</text>
</g>
<!-- u47 -->
<g id="node25" class="node">
<title>u47</title>
<ellipse fill="#ffbbff" stroke="black" cx="4742.87" cy="-3602" rx="176.27" ry="18"/>
<text text-anchor="middle" x="4742.87" y="-3598.3" font-family="Times,serif" font-size="14.00">Language.Drasil.Code.PackageData</text>
</g>
<!-- u6&#45;&gt;u47 -->
<g id="edge19" class="edge">
<title>u6&#45;&gt;u47</title>
<path fill="none" stroke="black" d="M3005.86,-3882.45C3296.58,-3835.68 4317.2,-3671.48 4642.48,-3619.15"/>
<polygon fill="black" stroke="black" points="4643.51,-3622.53 4652.82,-3617.49 4642.39,-3615.62 4643.51,-3622.53"/>
</g>
<!-- u25 -->
<g id="node51" class="node">
<title>u25</title>
<ellipse fill="#77ffff" stroke="black" cx="2562.87" cy="-3602" rx="358.54" ry="18"/>
<text text-anchor="middle" x="2562.87" y="-3598.3" font-family="Times,serif" font-size="14.00">Language.Drasil.Code.Imperative.GOOL.LanguageRenderer.SwiftRenderer</text>
</g>
<!-- u6&#45;&gt;u25 -->
<g id="edge18" class="edge">
<title>u6&#45;&gt;u25</title>
<path fill="none" stroke="black" d="M2906.93,-3878.25C2845.21,-3828.88 2663.84,-3683.78 2592.33,-3626.57"/>
<polygon fill="black" stroke="black" points="2594.17,-3623.56 2584.17,-3620.04 2589.8,-3629.02 2594.17,-3623.56"/>
</g>
<!-- u24 -->
<g id="node52" class="node">
<title>u24</title>
<ellipse fill="#77ffff" stroke="black" cx="3293.87" cy="-3602" rx="354.44" ry="18"/>
<text text-anchor="middle" x="3293.87" y="-3598.3" font-family="Times,serif" font-size="14.00">Language.Drasil.Code.Imperative.GOOL.LanguageRenderer.JavaRenderer</text>
</g>
<!-- u6&#45;&gt;u24 -->
<g id="edge17" class="edge">
<title>u6&#45;&gt;u24</title>
<path fill="none" stroke="black" d="M2948.86,-3878.25C3010.75,-3828.88 3192.62,-3683.78 3264.32,-3626.57"/>
<polygon fill="black" stroke="black" points="3266.87,-3629.02 3272.5,-3620.04 3262.5,-3623.55 3266.87,-3629.02"/>
</g>
<!-- u23 -->
<g id="node53" class="node">
<title>u23</title>
<ellipse fill="#77ffff" stroke="black" cx="4034.87" cy="-3602" rx="369.33" ry="18"/>
<text text-anchor="middle" x="4034.87" y="-3598.3" font-family="Times,serif" font-size="14.00">Language.Drasil.Code.Imperative.GOOL.LanguageRenderer.CSharpRenderer</text>
</g>
<!-- u6&#45;&gt;u23 -->
<g id="edge16" class="edge">
<title>u6&#45;&gt;u23</title>
<path fill="none" stroke="black" d="M2984.29,-3880.12C3168.74,-3831.46 3753.94,-3677.1 3961.22,-3622.43"/>
<polygon fill="black" stroke="black" points="3962.32,-3625.76 3971.09,-3619.82 3960.53,-3618.99 3962.32,-3625.76"/>
</g>
<!-- u21 -->
<g id="node55" class="node">
<title>u21</title>
<ellipse fill="#77ffff" stroke="black" cx="354.87" cy="-3602" rx="354.74" ry="18"/>
<text text-anchor="middle" x="354.87" y="-3598.3" font-family="Times,serif" font-size="14.00">Language.Drasil.Code.Imperative.GOOL.LanguageRenderer.JuliaRenderer</text>
</g>
<!-- u6&#45;&gt;u21 -->
<g id="edge15" class="edge">
<title>u6&#45;&gt;u21</title>
<path fill="none" stroke="black" d="M2836.29,-3884.61C2453.19,-3841.13 976.93,-3673.6 502.56,-3619.76"/>
<polygon fill="black" stroke="black" points="502.9,-3616.28 492.56,-3618.63 502.11,-3623.23 502.9,-3616.28"/>
</g>
<!-- u20 -->
<g id="node56" class="node">
<title>u20</title>
<ellipse fill="#77ffff" stroke="black" cx="1080.87" cy="-3602" rx="352.84" ry="18"/>
<text text-anchor="middle" x="1080.87" y="-3598.3" font-family="Times,serif" font-size="14.00">Language.Drasil.Code.Imperative.GOOL.LanguageRenderer.CppRenderer</text>
</g>
<!-- u6&#45;&gt;u20 -->
<g id="edge14" class="edge">
<title>u6&#45;&gt;u20</title>
<path fill="none" stroke="black" d="M2849.1,-3882.55C2557.1,-3836.38 1535.78,-3674.92 1193.58,-3620.82"/>
<polygon fill="black" stroke="black" points="1194.08,-3617.35 1183.66,-3619.25 1192.99,-3624.27 1194.08,-3617.35"/>
</g>
<!-- u19 -->
<g id="node57" class="node">
<title>u19</title>
<ellipse fill="#77ffff" stroke="black" cx="1818.87" cy="-3602" rx="367.43" ry="18"/>
<text text-anchor="middle" x="1818.87" y="-3598.3" font-family="Times,serif" font-size="14.00">Language.Drasil.Code.Imperative.GOOL.LanguageRenderer.PythonRenderer</text>
</g>
<!-- u6&#45;&gt;u19 -->
<g id="edge13" class="edge">
<title>u6&#45;&gt;u19</title>
<path fill="none" stroke="black" d="M2871.35,-3880.12C2686.45,-3831.44 2099.61,-3676.92 1892.29,-3622.33"/>
<polygon fill="black" stroke="black" points="1892.97,-3618.89 1882.41,-3619.73 1891.19,-3625.66 1892.97,-3618.89"/>
</g>
<!-- u5 -->
<g id="node12" class="node">
<title>u5</title>
<ellipse fill="#ffbbbb" stroke="black" cx="5517.87" cy="-2132" rx="126.18" ry="18"/>
<text text-anchor="middle" x="5517.87" y="-2128.3" font-family="Times,serif" font-size="14.00">Language.Drasil.Choices</text>
</g>
<!-- u5&#45;&gt;u0 -->
<g id="edge12" class="edge">
<title>u5&#45;&gt;u0</title>
<path fill="none" stroke="black" d="M5514.18,-2113.61C5503.79,-2064.72 5474.29,-1925.76 5461.69,-1866.42"/>
<polygon fill="black" stroke="black" points="5465.04,-1865.36 5459.54,-1856.3 5458.2,-1866.81 5465.04,-1865.36"/>
</g>
<!-- u4 -->
<g id="node13" class="node">
<title>u4</title>
<ellipse fill="#ffbbbb" stroke="black" cx="6216.87" cy="-2426" rx="135.68" ry="18"/>
<text text-anchor="middle" x="6216.87" y="-2422.3" font-family="Times,serif" font-size="14.00">Language.Drasil.CodeSpec</text>
</g>
<!-- u4&#45;&gt;u7 -->
<g id="edge10" class="edge">
<title>u4&#45;&gt;u7</title>
<path fill="none" stroke="black" d="M6239.41,-2408.04C6305.44,-2358.35 6498.54,-2213.02 6574.07,-2156.18"/>
<polygon fill="black" stroke="black" points="6576.38,-2158.82 6582.27,-2150.01 6572.17,-2153.22 6576.38,-2158.82"/>
</g>
<!-- u4&#45;&gt;u5 -->
<g id="edge9" class="edge">
<title>u4&#45;&gt;u5</title>
<path fill="none" stroke="black" d="M6177.79,-2408.68C6058.16,-2358.7 5697.14,-2207.89 5566.07,-2153.14"/>
<polygon fill="black" stroke="black" points="5567.25,-2149.83 5556.67,-2149.21 5564.55,-2156.29 5567.25,-2149.83"/>
</g>
<!-- u13 -->
<g id="node15" class="node">
<title>u13</title>
<ellipse fill="#bbffff" stroke="black" cx="6216.87" cy="-2132" rx="192.27" ry="18"/>
<text text-anchor="middle" x="6216.87" y="-2128.3" font-family="Times,serif" font-size="14.00">Language.Drasil.Chunk.ConstraintMap</text>
</g>
<!-- u4&#45;&gt;u13 -->
<g id="edge11" class="edge">
<title>u4&#45;&gt;u13</title>
<path fill="none" stroke="black" d="M6216.87,-2407.61C6216.87,-2358.72 6216.87,-2219.76 6216.87,-2160.42"/>
<polygon fill="black" stroke="black" points="6220.37,-2160.3 6216.87,-2150.3 6213.37,-2160.3 6220.37,-2160.3"/>
</g>
<!-- u3 -->
<g id="node14" class="node">
<title>u3</title>
<ellipse fill="#ffbbbb" stroke="black" cx="4431.87" cy="-4484" rx="113.18" ry="18"/>
<text text-anchor="middle" x="4431.87" y="-4480.3" font-family="Times,serif" font-size="14.00">Language.Drasil.Code</text>
</g>
<!-- u29 -->
<g id="node42" class="node">
<title>u29</title>
<ellipse fill="#77ff77" stroke="black" cx="4946.87" cy="-4190" rx="217.16" ry="18"/>
<text text-anchor="middle" x="4946.87" y="-4186.3" font-family="Times,serif" font-size="14.00">Language.Drasil.Code.Imperative.Generator</text>
</g>
<!-- u3&#45;&gt;u29 -->
<g id="edge8" class="edge">
<title>u3&#45;&gt;u29</title>
<path fill="none" stroke="black" d="M4461.03,-4466.46C4548.62,-4416.8 4809.42,-4268.93 4908.29,-4212.87"/>
<polygon fill="black" stroke="black" points="4910.09,-4215.88 4917.06,-4207.9 4906.64,-4209.79 4910.09,-4215.88"/>
</g>
<!-- u28 -->
<g id="node43" class="node">
<title>u28</title>
<ellipse fill="#77ff77" stroke="black" cx="4397.87" cy="-1544" rx="217.96" ry="18"/>
<text text-anchor="middle" x="4397.87" y="-1540.3" font-family="Times,serif" font-size="14.00">Language.Drasil.Code.Imperative.ReadInput</text>
</g>
<!-- u3&#45;&gt;u28 -->
<g id="edge7" class="edge">
<title>u3&#45;&gt;u28</title>
<path fill="none" stroke="black" d="M4432.11,-4465.83C4433.25,-4374.78 4437.15,-3939.1 4412.87,-3584 4396.02,-3337.6 4369.22,-3278.14 4348.87,-3032 4326.69,-2763.7 4318.87,-2696.22 4318.87,-2427 4318.87,-2427 4318.87,-2427 4318.87,-2131 4318.87,-1913.66 4372.9,-1655 4391.6,-1572.02"/>
<polygon fill="black" stroke="black" points="4395.04,-1572.67 4393.84,-1562.14 4388.21,-1571.12 4395.04,-1572.67"/>
</g>
<!-- u1 -->
<g id="node59" class="node">
<title>u1</title>
<ellipse fill="#ff77ff" stroke="black" cx="6135.87" cy="-1250" rx="154.07" ry="18"/>
<text text-anchor="middle" x="6135.87" y="-1246.3" font-family="Times,serif" font-size="14.00">Language.Drasil.Data.ODEInfo</text>
</g>
<!-- u12&#45;&gt;u1 -->
<g id="edge23" class="edge">
<title>u12&#45;&gt;u1</title>
<path fill="none" stroke="black" d="M6176.63,-1819.78C6170.71,-1737.06 6145.14,-1380.32 6137.83,-1278.33"/>
<polygon fill="black" stroke="black" points="6141.31,-1277.95 6137.1,-1268.22 6134.33,-1278.45 6141.31,-1277.95"/>
</g>
<!-- u11 -->
<g id="node17" class="node">
<title>u11</title>
<ellipse fill="#bbffff" stroke="black" cx="5357.87" cy="-956" rx="202.26" ry="18"/>
<text text-anchor="middle" x="5357.87" y="-952.3" font-family="Times,serif" font-size="14.00">Language.Drasil.Chunk.NamedArgument</text>
</g>
<!-- u8 -->
<g id="node20" class="node">
<title>u8</title>
<ellipse fill="#bbffff" stroke="black" cx="5688.87" cy="-368" rx="145.67" ry="18"/>
<text text-anchor="middle" x="5688.87" y="-364.3" font-family="Times,serif" font-size="14.00">Language.Drasil.Chunk.Code</text>
</g>
<!-- u10&#45;&gt;u8 -->
<g id="edge22" class="edge">
<title>u10&#45;&gt;u8</title>
<path fill="none" stroke="black" d="M5688.87,-643.61C5688.87,-594.72 5688.87,-455.76 5688.87,-396.42"/>
<polygon fill="black" stroke="black" points="5692.37,-396.3 5688.87,-386.3 5685.37,-396.3 5692.37,-396.3"/>
</g>
<!-- u9 -->
<g id="node19" class="node">
<title>u9</title>
<ellipse fill="#bbffff" stroke="black" cx="5688.87" cy="-74" rx="168.17" ry="18"/>
<text text-anchor="middle" x="5688.87" y="-70.3" font-family="Times,serif" font-size="14.00">Language.Drasil.Chunk.CodeBase</text>
</g>
<!-- u8&#45;&gt;u9 -->
<g id="edge21" class="edge">
<title>u8&#45;&gt;u9</title>
<path fill="none" stroke="black" d="M5688.87,-349.61C5688.87,-300.72 5688.87,-161.76 5688.87,-102.42"/>
<polygon fill="black" stroke="black" points="5692.37,-102.3 5688.87,-92.3 5685.37,-102.3 5692.37,-102.3"/>
</g>
<!-- u51 -->
<g id="node21" class="node">
<title>u51</title>
<ellipse fill="#ffbbff" stroke="black" cx="4550.87" cy="-2426" rx="165.97" ry="18"/>
<text text-anchor="middle" x="4550.87" y="-2422.3" font-family="Times,serif" font-size="14.00">Language.Drasil.Code.FileNames</text>
</g>
<!-- u50 -->
<g id="node22" class="node">
<title>u50</title>
<ellipse fill="#ffbbff" stroke="black" cx="5216.87" cy="-3014" rx="204.16" ry="18"/>
<text text-anchor="middle" x="5216.87" y="-3010.3" font-family="Times,serif" font-size="14.00">Language.Drasil.Code.CodeQuantityDicts</text>
</g>
<!-- u49 -->
<g id="node23" class="node">
<title>u49</title>
<ellipse fill="#ffbbff" stroke="black" cx="5357.87" cy="-1250" rx="207.96" ry="18"/>
<text text-anchor="middle" x="5357.87" y="-1246.3" font-family="Times,serif" font-size="14.00">Language.Drasil.Code.ExternalLibraryCall</text>
</g>
<!-- u49&#45;&gt;u14 -->
<g id="edge80" class="edge">
<title>u49&#45;&gt;u14</title>
<path fill="none" stroke="black" d="M5377.1,-1232.04C5433.2,-1182.55 5596.82,-1038.2 5661.81,-980.87"/>
<polygon fill="black" stroke="black" points="5664.41,-983.25 5669.59,-974.01 5659.77,-978 5664.41,-983.25"/>
</g>
<!-- u49&#45;&gt;u11 -->
<g id="edge79" class="edge">
<title>u49&#45;&gt;u11</title>
<path fill="none" stroke="black" d="M5357.87,-1231.61C5357.87,-1182.72 5357.87,-1043.76 5357.87,-984.42"/>
<polygon fill="black" stroke="black" points="5361.37,-984.3 5357.87,-974.3 5354.37,-984.3 5361.37,-984.3"/>
</g>
<!-- u48 -->
<g id="node24" class="node">
<title>u48</title>
<ellipse fill="#ffbbff" stroke="black" cx="5773.87" cy="-1250" rx="190.37" ry="18"/>
<text text-anchor="middle" x="5773.87" y="-1246.3" font-family="Times,serif" font-size="14.00">Language.Drasil.Code.ExternalLibrary</text>
</g>
<!-- u48&#45;&gt;u14 -->
<g id="edge78" class="edge">
<title>u48&#45;&gt;u14</title>
<path fill="none" stroke="black" d="M5768.81,-1231.61C5754.54,-1182.62 5713.96,-1043.19 5696.74,-984.05"/>
<polygon fill="black" stroke="black" points="5700.06,-982.92 5693.9,-974.3 5693.34,-984.88 5700.06,-982.92"/>
</g>
<!-- u48&#45;&gt;u11 -->
<g id="edge77" class="edge">
<title>u48&#45;&gt;u11</title>
<path fill="none" stroke="black" d="M5749.7,-1232.04C5678.76,-1182.24 5471.03,-1036.43 5390.39,-979.83"/>
<polygon fill="black" stroke="black" points="5392.3,-976.89 5382.1,-974.01 5388.27,-982.62 5392.3,-976.89"/>
</g>
<!-- u16 -->
<g id="node28" class="node">
<title>u16</title>
<ellipse fill="#ffbbff" stroke="black" cx="5334.87" cy="-2426" rx="155.17" ry="18"/>
<text text-anchor="middle" x="5334.87" y="-2422.3" font-family="Times,serif" font-size="14.00">Language.Drasil.Code.FileData</text>
</g>
<!-- u47&#45;&gt;u16 -->
<g id="edge76" class="edge">
<title>u47&#45;&gt;u16</title>
<path fill="none" stroke="black" d="M4746.31,-3583.85C4770.94,-3461.18 4919.86,-2721.45 4932.87,-2702 5021.01,-2570.24 5195.64,-2483.98 5282.82,-2447.24"/>
<polygon fill="black" stroke="black" points="5284.36,-2450.39 5292.25,-2443.32 5281.67,-2443.93 5284.36,-2450.39"/>
</g>
<!-- u46 -->
<g id="node26" class="node">
<title>u46</title>
<ellipse fill="#ffbbff" stroke="black" cx="4992.87" cy="-1250" rx="139.18" ry="18"/>
<text text-anchor="middle" x="4992.87" y="-1246.3" font-family="Times,serif" font-size="14.00">Language.Drasil.Code.Lang</text>
</g>
<!-- u45&#45;&gt;u8 -->
<g id="edge75" class="edge">
<title>u45&#45;&gt;u8</title>
<path fill="none" stroke="black" d="M5089.35,-644.25C5198.7,-594.05 5523.6,-444.88 5643.64,-389.77"/>
<polygon fill="black" stroke="black" points="5645.3,-392.85 5652.93,-385.5 5642.38,-386.49 5645.3,-392.85"/>
</g>
<!-- u15 -->
<g id="node29" class="node">
<title>u15</title>
<ellipse fill="#ffbbff" stroke="black" cx="5773.87" cy="-1544" rx="178.97" ry="18"/>
<text text-anchor="middle" x="5773.87" y="-1540.3" font-family="Times,serif" font-size="14.00">Language.Drasil.Code.ExtLibImport</text>
</g>
<!-- u15&#45;&gt;u49 -->
<g id="edge27" class="edge">
<title>u15&#45;&gt;u49</title>
<path fill="none" stroke="black" d="M5749.7,-1526.04C5678.76,-1476.24 5471.03,-1330.43 5390.39,-1273.83"/>
<polygon fill="black" stroke="black" points="5392.3,-1270.89 5382.1,-1268.01 5388.27,-1276.62 5392.3,-1270.89"/>
</g>
<!-- u15&#45;&gt;u48 -->
<g id="edge26" class="edge">
<title>u15&#45;&gt;u48</title>
<path fill="none" stroke="black" d="M5773.87,-1525.61C5773.87,-1476.72 5773.87,-1337.76 5773.87,-1278.42"/>
<polygon fill="black" stroke="black" points="5777.37,-1278.3 5773.87,-1268.3 5770.37,-1278.3 5777.37,-1278.3"/>
</g>
<!-- u44 -->
<g id="node30" class="node">
<title>u44</title>
<ellipse fill="#77ff77" stroke="black" cx="5645.87" cy="-2720" rx="237.46" ry="18"/>
<text text-anchor="middle" x="5645.87" y="-2716.3" font-family="Times,serif" font-size="14.00">Language.Drasil.Code.Imperative.ConceptMatch</text>
</g>
<!-- u44&#45;&gt;u5 -->
<g id="edge74" class="edge">
<title>u44&#45;&gt;u5</title>
<path fill="none" stroke="black" d="M5636.86,-2701.92C5615.07,-2659.61 5559.59,-2546.01 5536.87,-2444 5513.98,-2341.26 5514.91,-2215.01 5516.67,-2160.36"/>
<polygon fill="black" stroke="black" points="5520.18,-2160.24 5517.04,-2150.12 5513.18,-2159.99 5520.18,-2160.24"/>
</g>
<!-- u43 -->
<g id="node31" class="node">
<title>u43</title>
<ellipse fill="#77ff77" stroke="black" cx="6612.87" cy="-3014" rx="207.16" ry="18"/>
<text text-anchor="middle" x="6612.87" y="-3010.3" font-family="Times,serif" font-size="14.00">Language.Drasil.Code.Imperative.Logging</text>
</g>
<!-- u27 -->
<g id="node44" class="node">
<title>u27</title>
<ellipse fill="#77ff77" stroke="black" cx="6216.87" cy="-2720" rx="222.06" ry="18"/>
<text text-anchor="middle" x="6216.87" y="-2716.3" font-family="Times,serif" font-size="14.00">Language.Drasil.Code.Imperative.DrasilState</text>
</g>
<!-- u43&#45;&gt;u27 -->
<g id="edge73" class="edge">
<title>u43&#45;&gt;u27</title>
<path fill="none" stroke="black" d="M6589.87,-2996.04C6522.47,-2946.35 6325.39,-2801.02 6248.3,-2744.18"/>
<polygon fill="black" stroke="black" points="6250.06,-2741.13 6239.93,-2738.01 6245.91,-2746.76 6250.06,-2741.13"/>
</g>
<!-- u42 -->
<g id="node32" class="node">
<title>u42</title>
<ellipse fill="#77ff77" stroke="black" cx="5947.87" cy="-3308" rx="201.46" ry="18"/>
<text text-anchor="middle" x="5947.87" y="-3304.3" font-family="Times,serif" font-size="14.00">Language.Drasil.Code.Imperative.Import</text>
</g>
<!-- u42&#45;&gt;u50 -->
<g id="edge72" class="edge">
<title>u42&#45;&gt;u50</title>
<path fill="none" stroke="black" d="M5906.21,-3290.36C5780.57,-3240.17 5405.65,-3090.41 5268.15,-3035.49"/>
<polygon fill="black" stroke="black" points="5269.26,-3032.16 5258.67,-3031.7 5266.66,-3038.66 5269.26,-3032.16"/>
</g>
<!-- u42&#45;&gt;u44 -->
<g id="edge71" class="edge">
<title>u42&#45;&gt;u44</title>
<path fill="none" stroke="black" d="M5950.95,-3289.79C5958.85,-3241.01 5976.04,-3098.75 5928.87,-2996 5874.82,-2878.26 5746.2,-2784.41 5682.67,-2743.4"/>
<polygon fill="black" stroke="black" points="5684.46,-2740.39 5674.15,-2737.97 5680.7,-2746.3 5684.46,-2740.39"/>
</g>
<!-- u42&#45;&gt;u43 -->
<g id="edge70" class="edge">
<title>u42&#45;&gt;u43</title>
<path fill="none" stroke="black" d="M5986.01,-3290.25C6100.19,-3240.12 6439.15,-3091.28 6565.07,-3035.99"/>
<polygon fill="black" stroke="black" points="6566.72,-3039.09 6574.47,-3031.86 6563.9,-3032.68 6566.72,-3039.09"/>
</g>
<!-- u32 -->
<g id="node39" class="node">
<title>u32</title>
<ellipse fill="#77ff77" stroke="black" cx="7057.87" cy="-3014" rx="219.86" ry="18"/>
<text text-anchor="middle" x="7057.87" y="-3010.3" font-family="Times,serif" font-size="14.00">Language.Drasil.Code.Imperative.Comments</text>
</g>
<!-- u42&#45;&gt;u32 -->
<g id="edge69" class="edge">
<title>u42&#45;&gt;u32</title>
<path fill="none" stroke="black" d="M6009.53,-3290.78C6200.57,-3240.52 6782.01,-3087.57 6986.12,-3033.87"/>
<polygon fill="black" stroke="black" points="6987.06,-3037.25 6995.84,-3031.32 6985.28,-3030.48 6987.06,-3037.25"/>
</g>
<!-- u31 -->
<g id="node40" class="node">
<title>u31</title>
<ellipse fill="#77ff77" stroke="black" cx="6181.87" cy="-3014" rx="206.06" ry="18"/>
<text text-anchor="middle" x="6181.87" y="-3010.3" font-family="Times,serif" font-size="14.00">Language.Drasil.Code.Imperative.Helpers</text>
</g>
<!-- u42&#45;&gt;u31 -->
<g id="edge68" class="edge">
<title>u42&#45;&gt;u31</title>
<path fill="none" stroke="black" d="M5961.46,-3290.04C6000.88,-3240.85 6115.39,-3097.96 6161.89,-3039.93"/>
<polygon fill="black" stroke="black" points="6164.72,-3042 6168.24,-3032.01 6159.25,-3037.62 6164.72,-3042"/>
</g>
<!-- u30 -->
<g id="node41" class="node">
<title>u30</title>
<ellipse fill="#77ff77" stroke="black" cx="5679.87" cy="-3014" rx="240.46" ry="18"/>
<text text-anchor="middle" x="5679.87" y="-3010.3" font-family="Times,serif" font-size="14.00">Language.Drasil.Code.Imperative.GenerateGOOL</text>
</g>
<!-- u42&#45;&gt;u30 -->
<g id="edge67" class="edge">
<title>u42&#45;&gt;u30</title>
<path fill="none" stroke="black" d="M5932.3,-3290.04C5887.06,-3240.75 5755.47,-3097.37 5702.43,-3039.58"/>
<polygon fill="black" stroke="black" points="5704.82,-3037.01 5695.48,-3032.01 5699.66,-3041.74 5704.82,-3037.01"/>
</g>
<!-- u41 -->
<g id="node33" class="node">
<title>u41</title>
<ellipse fill="#77ff77" stroke="black" cx="5581.87" cy="-3896" rx="209.06" ry="18"/>
<text text-anchor="middle" x="5581.87" y="-3892.3" font-family="Times,serif" font-size="14.00">Language.Drasil.Code.Imperative.Modules</text>
</g>
<!-- u40 -->
<g id="node34" class="node">
<title>u40</title>
<ellipse fill="#77ff77" stroke="black" cx="6741.87" cy="-3308" rx="228.26" ry="18"/>
<text text-anchor="middle" x="6741.87" y="-3304.3" font-family="Times,serif" font-size="14.00">Language.Drasil.Code.Imperative.Descriptions</text>
</g>
<!-- u41&#45;&gt;u40 -->
<g id="edge66" class="edge">
<title>u41&#45;&gt;u40</title>
<path fill="none" stroke="black" d="M5615.33,-3878.09C5781.19,-3794.31 6514.47,-3423.88 6699.4,-3330.45"/>
<polygon fill="black" stroke="black" points="6701.2,-3333.47 6708.55,-3325.83 6698.04,-3327.22 6701.2,-3333.47"/>
</g>
<!-- u18 -->
<g id="node45" class="node">
<title>u18</title>
<ellipse fill="#77ff77" stroke="black" cx="5581.87" cy="-3602" rx="233.16" ry="18"/>
<text text-anchor="middle" x="5581.87" y="-3598.3" font-family="Times,serif" font-size="14.00">Language.Drasil.Code.Imperative.FunctionCalls</text>
</g>
<!-- u41&#45;&gt;u18 -->
<g id="edge65" class="edge">
<title>u41&#45;&gt;u18</title>
<path fill="none" stroke="black" d="M5581.87,-3877.61C5581.87,-3828.72 5581.87,-3689.76 5581.87,-3630.42"/>
<polygon fill="black" stroke="black" points="5585.37,-3630.3 5581.87,-3620.3 5578.37,-3630.3 5585.37,-3630.3"/>
</g>
<!-- u40&#45;&gt;u27 -->
<g id="edge64" class="edge">
<title>u40&#45;&gt;u27</title>
<path fill="none" stroke="black" d="M6838.49,-3291.69C7027.74,-3257.63 7417.88,-3164.95 7286.87,-2996 7173.07,-2849.26 6619.25,-2767.17 6356.17,-2735.88"/>
<polygon fill="black" stroke="black" points="6356.51,-2732.4 6346.17,-2734.7 6355.69,-2739.35 6356.51,-2732.4"/>
</g>
<!-- u38 -->
<g id="node35" class="node">
<title>u38</title>
<ellipse fill="#77ff77" stroke="black" cx="5755.87" cy="-2426" rx="209.86" ry="18"/>
<text text-anchor="middle" x="5755.87" y="-2422.3" font-family="Times,serif" font-size="14.00">Language.Drasil.Code.Imperative.GenODE</text>
</g>
<!-- u38&#45;&gt;u5 -->
<g id="edge60" class="edge">
<title>u38&#45;&gt;u5</title>
<path fill="none" stroke="black" d="M5742.04,-2408.04C5701.95,-2358.85 5585.49,-2215.96 5538.19,-2157.93"/>
<polygon fill="black" stroke="black" points="5540.76,-2155.55 5531.73,-2150.01 5535.34,-2159.97 5540.76,-2155.55"/>
</g>
<!-- u38&#45;&gt;u12 -->
<g id="edge61" class="edge">
<title>u38&#45;&gt;u12</title>
<path fill="none" stroke="black" d="M5768.27,-2407.78C5828.2,-2324.56 6087.87,-1963.98 6159.51,-1864.5"/>
<polygon fill="black" stroke="black" points="6162.46,-1866.38 6165.47,-1856.22 6156.78,-1862.29 6162.46,-1866.38"/>
</g>
<!-- u38&#45;&gt;u15 -->
<g id="edge62" class="edge">
<title>u38&#45;&gt;u15</title>
<path fill="none" stroke="black" d="M5756.22,-2407.82C5758.44,-2299.18 5770.54,-1707.94 5773.3,-1572.61"/>
<polygon fill="black" stroke="black" points="5776.81,-1572.36 5773.51,-1562.29 5769.81,-1572.22 5776.81,-1572.36"/>
</g>
<!-- u37 -->
<g id="node36" class="node">
<title>u37</title>
<ellipse fill="#77ff77" stroke="black" cx="6871.87" cy="-3896" rx="226.66" ry="18"/>
<text text-anchor="middle" x="6871.87" y="-3892.3" font-family="Times,serif" font-size="14.00">Language.Drasil.Code.Imperative.SpaceMatch</text>
</g>
<!-- u37&#45;&gt;u27 -->
<g id="edge59" class="edge">
<title>u37&#45;&gt;u27</title>
<path fill="none" stroke="black" d="M6893.2,-3877.88C7009.53,-3782.52 7553.43,-3309.79 7308.87,-2996 7192.7,-2846.95 6629.22,-2766.19 6360.28,-2735.58"/>
<polygon fill="black" stroke="black" points="6360.39,-2732.07 6350.06,-2734.42 6359.6,-2739.02 6360.39,-2732.07"/>
</g>
<!-- u36 -->
<g id="node37" class="node">
<title>u36</title>
<ellipse fill="#77ff77" stroke="black" cx="4674.87" cy="-1838" rx="219.86" ry="18"/>
<text text-anchor="middle" x="4674.87" y="-1834.3" font-family="Times,serif" font-size="14.00">Language.Drasil.Code.Imperative.WriteInput</text>
</g>
<!-- u36&#45;&gt;u45 -->
<g id="edge58" class="edge">
<title>u36&#45;&gt;u45</title>
<path fill="none" stroke="black" d="M4679.25,-1819.53C4697.6,-1746.91 4770.64,-1461.98 4844.87,-1232 4913.18,-1020.35 5010.55,-770.13 5042.37,-689.46"/>
<polygon fill="black" stroke="black" points="5045.67,-690.64 5046.09,-680.06 5039.16,-688.07 5045.67,-690.64"/>
</g>
<!-- u33 -->
<g id="node38" class="node">
<title>u33</title>
<ellipse fill="#77ff77" stroke="black" cx="4947.87" cy="-2426" rx="213.36" ry="18"/>
<text text-anchor="middle" x="4947.87" y="-2422.3" font-family="Times,serif" font-size="14.00">Language.Drasil.Code.Imperative.README</text>
</g>
<!-- u33&#45;&gt;u5 -->
<g id="edge55" class="edge">
<title>u33&#45;&gt;u5</title>
<path fill="none" stroke="black" d="M4980.98,-2408.04C5079.21,-2357.71 5368.89,-2209.32 5476.77,-2154.05"/>
<polygon fill="black" stroke="black" points="5478.43,-2157.14 5485.73,-2149.46 5475.23,-2150.91 5478.43,-2157.14"/>
</g>
<!-- u32&#45;&gt;u27 -->
<g id="edge54" class="edge">
<title>u32&#45;&gt;u27</title>
<path fill="none" stroke="black" d="M7009.94,-2996.36C6864.88,-2945.99 6430.96,-2795.33 6274.18,-2740.9"/>
<polygon fill="black" stroke="black" points="6275.3,-2737.58 6264.7,-2737.61 6273,-2744.19 6275.3,-2737.58"/>
</g>
<!-- u31&#45;&gt;u27 -->
<g id="edge53" class="edge">
<title>u31&#45;&gt;u27</title>
<path fill="none" stroke="black" d="M6183.95,-2995.61C6189.81,-2946.72 6206.47,-2807.76 6213.58,-2748.42"/>
<polygon fill="black" stroke="black" points="6217.08,-2748.65 6214.79,-2738.3 6210.13,-2747.81 6217.08,-2748.65"/>
</g>
<!-- u30&#45;&gt;u27 -->
<g id="edge52" class="edge">
<title>u30&#45;&gt;u27</title>
<path fill="none" stroke="black" d="M5711.06,-2996.04C5803.3,-2945.88 6074.69,-2798.31 6177.12,-2742.61"/>
<polygon fill="black" stroke="black" points="6178.81,-2745.68 6185.93,-2737.83 6175.47,-2739.53 6178.81,-2745.68"/>
</g>
<!-- u26 -->
<g id="node50" class="node">
<title>u26</title>
<ellipse fill="#ff7777" stroke="black" cx="4613.87" cy="-2720" rx="267.25" ry="18"/>
<text text-anchor="middle" x="4613.87" y="-2716.3" font-family="Times,serif" font-size="14.00">Language.Drasil.Code.Imperative.GOOL.ClassInterface</text>
</g>
<!-- u30&#45;&gt;u26 -->
<g id="edge51" class="edge">
<title>u30&#45;&gt;u26</title>
<path fill="none" stroke="black" d="M5619.5,-2996.46C5435.21,-2945.98 4880.47,-2794.03 4683.88,-2740.18"/>
<polygon fill="black" stroke="black" points="4684.8,-2736.8 4674.23,-2737.53 4682.95,-2743.55 4684.8,-2736.8"/>
</g>
<!-- u29&#45;&gt;u47 -->
<g id="edge50" class="edge">
<title>u29&#45;&gt;u47</title>
<path fill="none" stroke="black" d="M4940.87,-4171.78C4912.02,-4088.89 4787.38,-3730.87 4752.17,-3629.71"/>
<polygon fill="black" stroke="black" points="4755.46,-3628.51 4748.86,-3620.22 4748.85,-3630.82 4755.46,-3628.51"/>
</g>
<!-- u29&#45;&gt;u41 -->
<g id="edge49" class="edge">
<title>u29&#45;&gt;u41</title>
<path fill="none" stroke="black" d="M4983.29,-4172.25C5092.21,-4122.17 5415.34,-3973.58 5535.86,-3918.16"/>
<polygon fill="black" stroke="black" points="5537.58,-3921.22 5545.2,-3913.86 5534.65,-3914.86 5537.58,-3921.22"/>
</g>
<!-- u29&#45;&gt;u38 -->
<g id="edge48" class="edge">
<title>u29&#45;&gt;u38</title>
<path fill="none" stroke="black" d="M4946.87,-4171.74C4946.87,-4101.2 4946.87,-3827.84 4946.87,-3603 4946.87,-3603 4946.87,-3603 4946.87,-3013 4946.87,-2657.66 5465.11,-2495.74 5672.02,-2445.25"/>
<polygon fill="black" stroke="black" points="5673.03,-2448.61 5681.93,-2442.86 5671.39,-2441.8 5673.03,-2448.61"/>
</g>
<!-- u29&#45;&gt;u37 -->
<g id="edge47" class="edge">
<title>u29&#45;&gt;u37</title>
<path fill="none" stroke="black" d="M5045.98,-4173.97C5373.4,-4124.3 6419.07,-3965.68 6761.88,-3913.68"/>
<polygon fill="black" stroke="black" points="6762.45,-3917.14 6771.81,-3912.18 6761.4,-3910.22 6762.45,-3917.14"/>
</g>
<!-- u28&#45;&gt;u45 -->
<g id="edge46" class="edge">
<title>u28&#45;&gt;u45</title>
<path fill="none" stroke="black" d="M4405.45,-1525.94C4439.04,-1451.43 4580.32,-1148.84 4750.87,-938 4836.52,-832.12 4963.63,-730.33 5021.79,-686.08"/>
<polygon fill="black" stroke="black" points="5023.99,-688.8 5029.85,-679.98 5019.77,-683.22 5023.99,-688.8"/>
</g>
<!-- u27&#45;&gt;u4 -->
<g id="edge44" class="edge">
<title>u27&#45;&gt;u4</title>
<path fill="none" stroke="black" d="M6216.87,-2701.61C6216.87,-2652.72 6216.87,-2513.76 6216.87,-2454.42"/>
<polygon fill="black" stroke="black" points="6220.37,-2454.3 6216.87,-2444.3 6213.37,-2454.3 6220.37,-2454.3"/>
</g>
<!-- u27&#45;&gt;u15 -->
<g id="edge45" class="edge">
<title>u27&#45;&gt;u15</title>
<path fill="none" stroke="black" d="M6206.51,-2701.8C6181.15,-2659.22 6114.91,-2545.05 6071.87,-2444 5929.4,-2109.5 5810.72,-1682.15 5781.02,-1571.89"/>
<polygon fill="black" stroke="black" points="5784.4,-1570.98 5778.43,-1562.23 5777.64,-1572.79 5784.4,-1570.98"/>
</g>
<!-- u18&#45;&gt;u42 -->
<g id="edge31" class="edge">
<title>u18&#45;&gt;u42</title>
<path fill="none" stroke="black" d="M5603.13,-3584.04C5665.29,-3534.45 5846.83,-3389.61 5918.38,-3332.52"/>
<polygon fill="black" stroke="black" points="5920.92,-3334.98 5926.55,-3326.01 5916.55,-3329.51 5920.92,-3334.98"/>
</g>
<!-- u17 -->
<g id="node46" class="node">
<title>u17</title>
<ellipse fill="#77ff77" stroke="black" cx="5216.87" cy="-3308" rx="223.66" ry="18"/>
<text text-anchor="middle" x="5216.87" y="-3304.3" font-family="Times,serif" font-size="14.00">Language.Drasil.Code.Imperative.Parameters</text>
</g>
<!-- u18&#45;&gt;u17 -->
<g id="edge30" class="edge">
<title>u18&#45;&gt;u17</title>
<path fill="none" stroke="black" d="M5560.67,-3584.04C5498.68,-3534.45 5317.63,-3389.61 5246.27,-3332.52"/>
<polygon fill="black" stroke="black" points="5248.12,-3329.52 5238.13,-3326.01 5243.75,-3334.99 5248.12,-3329.52"/>
</g>
<!-- u17&#45;&gt;u50 -->
<g id="edge29" class="edge">
<title>u17&#45;&gt;u50</title>
<path fill="none" stroke="black" d="M5216.87,-3289.61C5216.87,-3240.72 5216.87,-3101.76 5216.87,-3042.42"/>
<polygon fill="black" stroke="black" points="5220.37,-3042.3 5216.87,-3032.3 5213.37,-3042.3 5220.37,-3042.3"/>
</g>
<!-- u17&#45;&gt;u27 -->
<g id="edge28" class="edge">
<title>u17&#45;&gt;u27</title>
<path fill="none" stroke="black" d="M5189.07,-3290.04C5114.03,-3242.2 4918.62,-3102.74 5003.87,-2996 5133.07,-2834.23 5749.32,-2760.51 6050.46,-2733.7"/>
<polygon fill="black" stroke="black" points="6050.95,-2737.17 6060.6,-2732.8 6050.33,-2730.2 6050.95,-2737.17"/>
</g>
<!-- u35 -->
<g id="node47" class="node">
<title>u35</title>
<ellipse fill="#ffff77" stroke="black" cx="3372.87" cy="-3014" rx="228.56" ry="18"/>
<text text-anchor="middle" x="3372.87" y="-3010.3" font-family="Times,serif" font-size="14.00">Language.Drasil.Code.Imperative.Build.Import</text>
</g>
<!-- u34 -->
<g id="node48" class="node">
<title>u34</title>
<ellipse fill="#ffff77" stroke="black" cx="3372.87" cy="-2720" rx="215.56" ry="18"/>
<text text-anchor="middle" x="3372.87" y="-2716.3" font-family="Times,serif" font-size="14.00">Language.Drasil.Code.Imperative.Build.AST</text>
</g>
<!-- u35&#45;&gt;u34 -->
<g id="edge57" class="edge">
<title>u35&#45;&gt;u34</title>
<path fill="none" stroke="black" d="M3372.87,-2995.61C3372.87,-2946.72 3372.87,-2807.76 3372.87,-2748.42"/>
<polygon fill="black" stroke="black" points="3376.37,-2748.3 3372.87,-2738.3 3369.37,-2748.3 3376.37,-2748.3"/>
</g>
<!-- u35&#45;&gt;u26 -->
<g id="edge56" class="edge">
<title>u35&#45;&gt;u26</title>
<path fill="none" stroke="black" d="M3441.8,-2996.78C3655.58,-2946.48 4306.63,-2793.29 4534.27,-2739.73"/>
<polygon fill="black" stroke="black" points="4535.2,-2743.1 4544.14,-2737.41 4533.6,-2736.29 4535.2,-2743.1"/>
</g>
<!-- u39 -->
<g id="node49" class="node">
<title>u39</title>
<ellipse fill="#7777ff" stroke="black" cx="4602.87" cy="-3014" rx="245.06" ry="18"/>
<text text-anchor="middle" x="4602.87" y="-3010.3" font-family="Times,serif" font-size="14.00">Language.Drasil.Code.Imperative.Doxygen.Import</text>
</g>
<!-- u39&#45;&gt;u26 -->
<g id="edge63" class="edge">
<title>u39&#45;&gt;u26</title>
<path fill="none" stroke="black" d="M4603.52,-2995.61C4605.37,-2946.72 4610.6,-2807.76 4612.84,-2748.42"/>
<polygon fill="black" stroke="black" points="4616.34,-2748.43 4613.22,-2738.3 4609.34,-2748.16 4616.34,-2748.43"/>
</g>
<!-- u26&#45;&gt;u51 -->
<g id="edge43" class="edge">
<title>u26&#45;&gt;u51</title>
<path fill="none" stroke="black" d="M4610.12,-2701.61C4599.57,-2652.72 4569.59,-2513.76 4556.78,-2454.42"/>
<polygon fill="black" stroke="black" points="4560.13,-2453.34 4554.6,-2444.3 4553.29,-2454.81 4560.13,-2453.34"/>
</g>
<!-- u26&#45;&gt;u16 -->
<g id="edge40" class="edge">
<title>u26&#45;&gt;u16</title>
<path fill="none" stroke="black" d="M4655.49,-2702.15C4780.1,-2651.68 5149.92,-2501.9 5284.87,-2447.25"/>
<polygon fill="black" stroke="black" points="5286.22,-2450.48 5294.17,-2443.48 5283.59,-2443.99 5286.22,-2450.48"/>
</g>
<!-- u26&#45;&gt;u36 -->
<g id="edge42" class="edge">
<title>u26&#45;&gt;u36</title>
<path fill="none" stroke="black" d="M4583.76,-2702.07C4512.67,-2659.62 4342.72,-2542.33 4375.87,-2408 4432.24,-2179.53 4598.62,-1941.38 4655.53,-1864.51"/>
<polygon fill="black" stroke="black" points="4658.44,-1866.46 4661.61,-1856.35 4652.82,-1862.28 4658.44,-1866.46"/>
</g>
<!-- u26&#45;&gt;u33 -->
<g id="edge41" class="edge">
<title>u26&#45;&gt;u33</title>
<path fill="none" stroke="black" d="M4633.27,-2702.04C4689.88,-2652.55 4854.99,-2508.2 4920.56,-2450.87"/>
<polygon fill="black" stroke="black" points="4923.19,-2453.22 4928.41,-2444.01 4918.58,-2447.95 4923.19,-2453.22"/>
</g>
<!-- u22 -->
<g id="node54" class="node">
<title>u22</title>
<ellipse fill="#77ffff" stroke="black" cx="2913.87" cy="-3308" rx="393.73" ry="18"/>
<text text-anchor="middle" x="2913.87" y="-3304.3" font-family="Times,serif" font-size="14.00">Language.Drasil.Code.Imperative.GOOL.LanguageRenderer.LanguagePolymorphic</text>
</g>
<!-- u25&#45;&gt;u22 -->
<g id="edge39" class="edge">
<title>u25&#45;&gt;u22</title>
<path fill="none" stroke="black" d="M2583.51,-3583.82C2643.25,-3534.13 2816.35,-3390.13 2885.17,-3332.88"/>
<polygon fill="black" stroke="black" points="2887.58,-3335.42 2893.03,-3326.34 2883.1,-3330.04 2887.58,-3335.42"/>
</g>
<!-- u24&#45;&gt;u22 -->
<g id="edge38" class="edge">
<title>u24&#45;&gt;u22</title>
<path fill="none" stroke="black" d="M3271.52,-3583.82C3206.72,-3534.03 3018.68,-3389.54 2944.49,-3332.53"/>
<polygon fill="black" stroke="black" points="2946.49,-3329.66 2936.43,-3326.34 2942.23,-3335.21 2946.49,-3329.66"/>
</g>
<!-- u23&#45;&gt;u22 -->
<g id="edge37" class="edge">
<title>u23&#45;&gt;u22</title>
<path fill="none" stroke="black" d="M3970.57,-3584.25C3776.15,-3533.61 3195.12,-3382.26 2988.12,-3328.34"/>
<polygon fill="black" stroke="black" points="2988.81,-3324.9 2978.25,-3325.77 2987.05,-3331.68 2988.81,-3324.9"/>
</g>
<!-- u22&#45;&gt;u35 -->
<g id="edge35" class="edge">
<title>u22&#45;&gt;u35</title>
<path fill="none" stroke="black" d="M2940.53,-3290.04C3018.96,-3240.14 3248.94,-3093.84 3337.52,-3037.49"/>
<polygon fill="black" stroke="black" points="3339.57,-3040.33 3346.13,-3032.01 3335.82,-3034.42 3339.57,-3040.33"/>
</g>
<!-- u22&#45;&gt;u39 -->
<g id="edge36" class="edge">
<title>u22&#45;&gt;u39</title>
<path fill="none" stroke="black" d="M3009.21,-3290.52C3304.03,-3239.55 4199.26,-3084.78 4501.76,-3032.48"/>
<polygon fill="black" stroke="black" points="4502.58,-3035.89 4511.84,-3030.74 4501.39,-3028.99 4502.58,-3035.89"/>
</g>
<!-- u21&#45;&gt;u22 -->
<g id="edge34" class="edge">
<title>u21&#45;&gt;u22</title>
<path fill="none" stroke="black" d="M492,-3585.35C932.3,-3535.11 2308.02,-3378.13 2764.79,-3326.01"/>
<polygon fill="black" stroke="black" points="2765.21,-3329.49 2774.75,-3324.87 2764.42,-3322.53 2765.21,-3329.49"/>
</g>
<!-- u20&#45;&gt;u22 -->
<g id="edge33" class="edge">
<title>u20&#45;&gt;u22</title>
<path fill="none" stroke="black" d="M1183.02,-3584.73C1500.54,-3534.15 2468.88,-3379.89 2800.82,-3327.01"/>
<polygon fill="black" stroke="black" points="2801.6,-3330.43 2810.93,-3325.4 2800.5,-3323.52 2801.6,-3330.43"/>
</g>
<!-- u19&#45;&gt;u22 -->
<g id="edge32" class="edge">
<title>u19&#45;&gt;u22</title>
<path fill="none" stroke="black" d="M1881.67,-3584.25C2071.49,-3533.63 2638.58,-3382.41 2841.04,-3328.42"/>
<polygon fill="black" stroke="black" points="2842.22,-3331.73 2850.98,-3325.77 2840.41,-3324.97 2842.22,-3331.73"/>
</g>
<!-- u2&#45;&gt;u49 -->
<g id="edge6" class="edge">
<title>u2&#45;&gt;u49</title>
<path fill="none" stroke="black" d="M5401.13,-1525.61C5393.43,-1476.72 5371.54,-1337.76 5362.19,-1278.42"/>
<polygon fill="black" stroke="black" points="5365.61,-1277.63 5360.59,-1268.3 5358.69,-1278.72 5365.61,-1277.63"/>
</g>
<!-- u2&#45;&gt;u48 -->
<g id="edge5" class="edge">
<title>u2&#45;&gt;u48</title>
<path fill="none" stroke="black" d="M5425.36,-1526.04C5488.2,-1476.45 5671.72,-1331.61 5744.06,-1274.52"/>
<polygon fill="black" stroke="black" points="5746.64,-1276.95 5752.32,-1268.01 5742.3,-1271.46 5746.64,-1276.95"/>
</g>
<!-- u2&#45;&gt;u46 -->
<g id="edge4" class="edge">
<title>u2&#45;&gt;u46</title>
<path fill="none" stroke="black" d="M5379.99,-1526.04C5309.83,-1476.19 5104.19,-1330.09 5024.72,-1273.63"/>
<polygon fill="black" stroke="black" points="5026.73,-1270.76 5016.55,-1267.83 5022.68,-1276.47 5026.73,-1270.76"/>
</g>
<!-- u2&#45;&gt;u1 -->
<g id="edge3" class="edge">
<title>u2&#45;&gt;u1</title>
<path fill="none" stroke="black" d="M5445.32,-1526.46C5571.14,-1476.27 5948.4,-1325.78 6085.43,-1271.12"/>
<polygon fill="black" stroke="black" points="6086.88,-1274.31 6094.87,-1267.35 6084.29,-1267.81 6086.88,-1274.31"/>
</g>
<!-- u1&#45;&gt;u8 -->
<g id="edge2" class="edge">
<title>u1&#45;&gt;u8</title>
<path fill="none" stroke="black" d="M6129.43,-1231.67C6101.97,-1158.46 5990.52,-867.97 5868.87,-644 5816.69,-547.94 5741.8,-441.65 5707.42,-394.23"/>
<polygon fill="black" stroke="black" points="5710.2,-392.1 5701.48,-386.08 5704.54,-396.22 5710.2,-392.1"/>
</g>
<!-- u59 -->
<g id="node60" class="node">
<title>u59</title>
<ellipse fill="#33ff33" stroke="black" cx="3319.87" cy="-4778" rx="108.58" ry="18"/>
<text text-anchor="middle" x="3319.87" y="-4774.3" font-family="Times,serif" font-size="14.00">drasil&#45;code.test.Main</text>
</g>
<!-- u59&#45;&gt;u58 -->
<g id="edge89" class="edge">
<title>u59&#45;&gt;u58</title>
<path fill="none" stroke="black" d="M3294.89,-4760.46C3219.66,-4710.65 2995.22,-4562.04 2911.14,-4506.37"/>
<polygon fill="black" stroke="black" points="2913.03,-4503.42 2902.76,-4500.82 2909.16,-4509.26 2913.03,-4503.42"/>
</g>
<!-- u59&#45;&gt;u56 -->
<g id="edge88" class="edge">
<title>u59&#45;&gt;u56</title>
<path fill="none" stroke="black" d="M3302.38,-4760.04C3251.23,-4710.41 3101.78,-4565.43 3043,-4508.41"/>
<polygon fill="black" stroke="black" points="3045.27,-4505.73 3035.65,-4501.28 3040.39,-4510.76 3045.27,-4505.73"/>
</g>
<!-- u59&#45;&gt;u53 -->
<g id="edge86" class="edge">
<title>u59&#45;&gt;u53</title>
<path fill="none" stroke="black" d="M3311.33,-4760.04C3286.72,-4711.15 3215.52,-4569.71 3185.96,-4511.01"/>
<polygon fill="black" stroke="black" points="3189.05,-4509.37 3181.43,-4502.01 3182.8,-4512.51 3189.05,-4509.37"/>
</g>
<!-- u59&#45;&gt;u52 -->
<g id="edge85" class="edge">
<title>u59&#45;&gt;u52</title>
<path fill="none" stroke="black" d="M3319.87,-4759.61C3319.87,-4710.72 3319.87,-4571.76 3319.87,-4512.42"/>
<polygon fill="black" stroke="black" points="3323.37,-4512.3 3319.87,-4502.3 3316.37,-4512.3 3323.37,-4512.3"/>
</g>
<!-- u59&#45;&gt;u55 -->
<g id="edge87" class="edge">
<title>u59&#45;&gt;u55</title>
<path fill="none" stroke="black" d="M3329.51,-4760.04C3357.3,-4711.15 3437.71,-4569.71 3471.08,-4511.01"/>
<polygon fill="black" stroke="black" points="3474.3,-4512.43 3476.2,-4502.01 3468.21,-4508.97 3474.3,-4512.43"/>
</g>
<!-- u59&#45;&gt;u6 -->
<g id="edge84" class="edge">
<title>u59&#45;&gt;u6</title>
<path fill="none" stroke="black" d="M3346.67,-4760.53C3404.58,-4723.13 3540.27,-4625.42 3590.87,-4502 3624.81,-4419.19 3839.67,-4548.39 3578.87,-4172 3453.69,-3991.35 3184.94,-3928.86 3034.84,-3907.63"/>
<polygon fill="black" stroke="black" points="3035.07,-3904.13 3024.68,-3906.23 3034.11,-3911.06 3035.07,-3904.13"/>
</g>
<!-- u59&#45;&gt;u3 -->
<g id="edge83" class="edge">
<title>u59&#45;&gt;u3</title>
<path fill="none" stroke="black" d="M3375.39,-4762.42C3561.82,-4713.47 4164.9,-4555.1 4365.96,-4502.31"/>
<polygon fill="black" stroke="black" points="4367.01,-4505.65 4375.79,-4499.73 4365.23,-4498.88 4367.01,-4505.65"/>
</g>
</g>
</svg>
