<?xml version="1.0" encoding="UTF-8" standalone="no"?>
<!DOCTYPE svg PUBLIC "-//W3C//DTD SVG 1.1//EN"
 "http://www.w3.org/Graphics/SVG/1.1/DTD/svg11.dtd">
<!-- Generated by graphviz version 2.43.0 (0)
 -->
<!-- Title: G Pages: 1 -->
<svg width="431pt" height="288pt"
 viewBox="0.00 0.00 431.00 288.00" xmlns="http://www.w3.org/2000/svg" xmlns:xlink="http://www.w3.org/1999/xlink">
<g id="graph0" class="graph" transform="scale(0.31 0.31) rotate(0) translate(4 920.67)">
<title>G</title>
<polygon fill="white" stroke="transparent" points="-4,4 -4,-920.67 1379.77,-920.67 1379.77,4 -4,4"/>
<!-- u0 -->
<g id="node1" class="node">
<title>u0</title>
<ellipse fill="#bbffbb" stroke="black" cx="673.44" cy="-851" rx="143.77" ry="18"/>
<text text-anchor="middle" x="673.44" y="-847.3" font-family="Times,serif" font-size="14.00">Drasil.Database.SearchTools</text>
</g>
<!-- u11 -->
<g id="node3" class="node">
<title>u11</title>
<ellipse fill="#bbbbff" stroke="black" cx="411.44" cy="-589" rx="107.48" ry="18"/>
<text text-anchor="middle" x="411.44" y="-585.3" font-family="Times,serif" font-size="14.00">Theory.Drasil.Theory</text>
</g>
<!-- u0&#45;&gt;u11 -->
<g id="edge4" class="edge">
<title>u0&#45;&gt;u11</title>
<path fill="none" stroke="black" d="M656.25,-832.94C610.89,-787.93 487.89,-665.87 435.54,-613.92"/>
<polygon fill="black" stroke="black" points="437.91,-611.34 428.35,-606.78 432.98,-616.31 437.91,-611.34"/>
</g>
<!-- u7 -->
<g id="node7" class="node">
<title>u7</title>
<ellipse fill="#bbbbff" stroke="black" cx="929.44" cy="-589" rx="143.77" ry="18"/>
<text text-anchor="middle" x="929.44" y="-585.3" font-family="Times,serif" font-size="14.00">Theory.Drasil.InstanceModel</text>
</g>
<!-- u0&#45;&gt;u7 -->
<g id="edge3" class="edge">
<title>u0&#45;&gt;u7</title>
<path fill="none" stroke="black" d="M690.23,-832.94C734.44,-788.04 854.16,-666.45 905.51,-614.3"/>
<polygon fill="black" stroke="black" points="908.06,-616.7 912.58,-607.12 903.07,-611.79 908.06,-616.7"/>
</g>
<!-- u2 -->
<g id="node11" class="node">
<title>u2</title>
<ellipse fill="#bbbbff" stroke="black" cx="652.44" cy="-589" rx="115.88" ry="18"/>
<text text-anchor="middle" x="652.44" y="-585.3" font-family="Times,serif" font-size="14.00">Theory.Drasil.GenDefn</text>
</g>
<!-- u0&#45;&gt;u2 -->
<g id="edge2" class="edge">
<title>u0&#45;&gt;u2</title>
<path fill="none" stroke="black" d="M672.06,-832.94C668.5,-788.87 658.97,-670.91 654.64,-617.25"/>
<polygon fill="black" stroke="black" points="658.11,-616.81 653.82,-607.12 651.14,-617.37 658.11,-616.81"/>
</g>
<!-- u1 -->
<g id="node12" class="node">
<title>u1</title>
<ellipse fill="#bbbbff" stroke="black" cx="1233.44" cy="-589" rx="142.17" ry="18"/>
<text text-anchor="middle" x="1233.44" y="-585.3" font-family="Times,serif" font-size="14.00">Theory.Drasil.DataDefinition</text>
</g>
<!-- u0&#45;&gt;u1 -->
<g id="edge1" class="edge">
<title>u0&#45;&gt;u1</title>
<path fill="none" stroke="black" d="M708.89,-833.54C806.68,-788.14 1080.12,-661.18 1188.43,-610.9"/>
<polygon fill="black" stroke="black" points="1190.18,-613.94 1197.78,-606.56 1187.23,-607.59 1190.18,-613.94"/>
</g>
<!-- u12 -->
<g id="node2" class="node">
<title>u12</title>
<ellipse fill="#ffffbb" stroke="black" cx="918.44" cy="-851" rx="72.29" ry="18"/>
<text text-anchor="middle" x="918.44" y="-847.3" font-family="Times,serif" font-size="14.00">Theory.Drasil</text>
</g>
<!-- u12&#45;&gt;u11 -->
<g id="edge20" class="edge">
<title>u12&#45;&gt;u11</title>
<path fill="none" stroke="black" d="M888.24,-834.51C801.4,-789.98 550.92,-661.53 452.16,-610.88"/>
<polygon fill="black" stroke="black" points="453.58,-607.68 443.09,-606.23 450.39,-613.91 453.58,-607.68"/>
</g>
<!-- u12&#45;&gt;u7 -->
<g id="edge19" class="edge">
<title>u12&#45;&gt;u7</title>
<path fill="none" stroke="black" d="M919.16,-832.94C921.02,-788.87 926.01,-670.91 928.28,-617.25"/>
<polygon fill="black" stroke="black" points="931.79,-617.26 928.71,-607.12 924.79,-616.97 931.79,-617.26"/>
</g>
<!-- u12&#45;&gt;u2 -->
<g id="edge18" class="edge">
<title>u12&#45;&gt;u2</title>
<path fill="none" stroke="black" d="M901.39,-833.34C855.71,-788.69 730.38,-666.18 677.02,-614.03"/>
<polygon fill="black" stroke="black" points="679.28,-611.34 669.68,-606.86 674.39,-616.35 679.28,-611.34"/>
</g>
<!-- u12&#45;&gt;u1 -->
<g id="edge17" class="edge">
<title>u12&#45;&gt;u1</title>
<path fill="none" stroke="black" d="M938.62,-833.34C992.94,-788.5 1142.35,-665.18 1205.1,-613.39"/>
<polygon fill="black" stroke="black" points="1207.53,-615.92 1213.01,-606.86 1203.07,-610.52 1207.53,-615.92"/>
</g>
<!-- u9 -->
<g id="node5" class="node">
<title>u9</title>
<ellipse fill="#bbbbff" stroke="black" cx="591.44" cy="-327" rx="129.98" ry="18"/>
<text text-anchor="middle" x="591.44" y="-323.3" font-family="Times,serif" font-size="14.00">Theory.Drasil.ModelKinds</text>
</g>
<!-- u11&#45;&gt;u9 -->
<g id="edge16" class="edge">
<title>u11&#45;&gt;u9</title>
<path fill="none" stroke="black" d="M423.25,-570.94C454.08,-526.41 537.13,-406.44 573.72,-353.59"/>
<polygon fill="black" stroke="black" points="576.77,-355.34 579.58,-345.12 571.01,-351.35 576.77,-355.34"/>
</g>
<!-- u10 -->
<g id="node4" class="node">
<title>u10</title>
<ellipse fill="#bbbbff" stroke="black" cx="1237.44" cy="-327" rx="110.48" ry="18"/>
<text text-anchor="middle" x="1237.44" y="-323.3" font-family="Times,serif" font-size="14.00">Theory.Drasil.Classes</text>
</g>
<!-- u8 -->
<g id="node6" class="node">
<title>u8</title>
<ellipse fill="#bbbbff" stroke="black" cx="151.44" cy="-65" rx="151.37" ry="18"/>
<text text-anchor="middle" x="151.44" y="-61.3" font-family="Times,serif" font-size="14.00">Theory.Drasil.RelationConcept</text>
</g>
<!-- u9&#45;&gt;u8 -->
<g id="edge15" class="edge">
<title>u9&#45;&gt;u8</title>
<path fill="none" stroke="black" d="M563.24,-309.34C486.58,-264.04 274.31,-138.61 188.32,-87.8"/>
<polygon fill="black" stroke="black" points="190.07,-84.76 179.68,-82.69 186.51,-90.79 190.07,-84.76"/>
</g>
<!-- u6 -->
<g id="node8" class="node">
<title>u6</title>
<ellipse fill="#bbbbff" stroke="black" cx="443.44" cy="-65" rx="122.38" ry="18"/>
<text text-anchor="middle" x="443.44" y="-61.3" font-family="Times,serif" font-size="14.00">Theory.Drasil.MultiDefn</text>
</g>
<!-- u9&#45;&gt;u6 -->
<g id="edge14" class="edge">
<title>u9&#45;&gt;u6</title>
<path fill="none" stroke="black" d="M581.73,-308.94C556.43,-264.5 488.37,-144.94 458.19,-91.92"/>
<polygon fill="black" stroke="black" points="461.17,-90.08 453.18,-83.12 455.09,-93.54 461.17,-90.08"/>
</g>
<!-- u5 -->
<g id="node9" class="node">
<title>u5</title>
<ellipse fill="#bbbbff" stroke="black" cx="740.44" cy="-65" rx="156.77" ry="18"/>
<text text-anchor="middle" x="740.44" y="-61.3" font-family="Times,serif" font-size="14.00">Theory.Drasil.DifferentialModel</text>
</g>
<!-- u9&#45;&gt;u5 -->
<g id="edge13" class="edge">
<title>u9&#45;&gt;u5</title>
<path fill="none" stroke="black" d="M601.21,-308.94C626.68,-264.5 695.2,-144.94 725.58,-91.92"/>
<polygon fill="black" stroke="black" points="728.69,-93.54 730.62,-83.12 722.62,-90.06 728.69,-93.54"/>
</g>
<!-- u3 -->
<g id="node10" class="node">
<title>u3</title>
<ellipse fill="#bbbbff" stroke="black" cx="1054.44" cy="-65" rx="139.98" ry="18"/>
<text text-anchor="middle" x="1054.44" y="-61.3" font-family="Times,serif" font-size="14.00">Theory.Drasil.ConstraintSet</text>
</g>
<!-- u9&#45;&gt;u3 -->
<g id="edge12" class="edge">
<title>u9&#45;&gt;u3</title>
<path fill="none" stroke="black" d="M621.1,-309.34C701.86,-263.99 925.59,-138.35 1015.9,-87.64"/>
<polygon fill="black" stroke="black" points="1017.71,-90.64 1024.72,-82.69 1014.28,-84.53 1017.71,-90.64"/>
</g>
<!-- u7&#45;&gt;u10 -->
<g id="edge11" class="edge">
<title>u7&#45;&gt;u10</title>
<path fill="none" stroke="black" d="M949.65,-570.94C1003.18,-525.75 1148.75,-402.87 1209.85,-351.29"/>
<polygon fill="black" stroke="black" points="1212.17,-353.91 1217.55,-344.78 1207.65,-348.56 1212.17,-353.91"/>
</g>
<!-- u7&#45;&gt;u9 -->
<g id="edge10" class="edge">
<title>u7&#45;&gt;u9</title>
<path fill="none" stroke="black" d="M907.52,-571.14C848.88,-526.03 688.31,-402.52 621.36,-351.02"/>
<polygon fill="black" stroke="black" points="623.36,-348.14 613.3,-344.82 619.1,-353.69 623.36,-348.14"/>
</g>
<!-- u4 -->
<g id="node13" class="node">
<title>u4</title>
<ellipse fill="#ffbbbb" stroke="black" cx="924.44" cy="-327" rx="184.67" ry="18"/>
<text text-anchor="middle" x="924.44" y="-323.3" font-family="Times,serif" font-size="14.00">Theory.Drasil.Components.Derivation</text>
</g>
<!-- u7&#45;&gt;u4 -->
<g id="edge9" class="edge">
<title>u7&#45;&gt;u4</title>
<path fill="none" stroke="black" d="M929.11,-570.94C928.26,-526.87 925.99,-408.91 924.96,-355.25"/>
<polygon fill="black" stroke="black" points="928.46,-355.05 924.77,-345.12 921.46,-355.19 928.46,-355.05"/>
</g>
<!-- u2&#45;&gt;u9 -->
<g id="edge8" class="edge">
<title>u2&#45;&gt;u9</title>
<path fill="none" stroke="black" d="M648.43,-570.94C638.07,-526.77 610.3,-408.42 597.75,-354.92"/>
<polygon fill="black" stroke="black" points="601.15,-354.06 595.45,-345.12 594.33,-355.66 601.15,-354.06"/>
</g>
<!-- u2&#45;&gt;u4 -->
<g id="edge7" class="edge">
<title>u2&#45;&gt;u4</title>
<path fill="none" stroke="black" d="M670.28,-570.94C717.26,-526.04 844.46,-404.45 899.02,-352.3"/>
<polygon fill="black" stroke="black" points="901.71,-354.56 906.52,-345.12 896.88,-349.5 901.71,-354.56"/>
</g>
<!-- u1&#45;&gt;u10 -->
<g id="edge6" class="edge">
<title>u1&#45;&gt;u10</title>
<path fill="none" stroke="black" d="M1233.7,-570.94C1234.38,-526.87 1236.19,-408.91 1237.02,-355.25"/>
<polygon fill="black" stroke="black" points="1240.52,-355.17 1237.17,-345.12 1233.52,-355.07 1240.52,-355.17"/>
</g>
<!-- u1&#45;&gt;u4 -->
<g id="edge5" class="edge">
<title>u1&#45;&gt;u4</title>
<path fill="none" stroke="black" d="M1213.16,-570.94C1159.58,-525.85 1014.11,-403.45 952.55,-351.66"/>
<polygon fill="black" stroke="black" points="954.69,-348.88 944.79,-345.12 950.18,-354.24 954.69,-348.88"/>
</g>
</g>
</svg>
