<?xml version="1.0" encoding="UTF-8" standalone="no"?>
<!DOCTYPE svg PUBLIC "-//W3C//DTD SVG 1.1//EN"
 "http://www.w3.org/Graphics/SVG/1.1/DTD/svg11.dtd">
<!-- Generated by graphviz version 2.43.0 (0)
 -->
<!-- Title: G Pages: 1 -->
<svg width="430pt" height="288pt"
 viewBox="0.00 0.00 429.55 288.00" xmlns="http://www.w3.org/2000/svg" xmlns:xlink="http://www.w3.org/1999/xlink">
<g id="graph0" class="graph" transform="scale(1.58 1.58) rotate(0) translate(4 450.67)">
<title>G</title>
<polygon fill="white" stroke="transparent" points="-4,4 -4,-450.67 674.13,-450.67 674.13,4 -4,4"/>
<!-- u4 -->
<g id="node1" class="node">
<title>u4</title>
<ellipse fill="#bbffbb" stroke="black" cx="348.39" cy="-402" rx="63.89" ry="18"/>
<text text-anchor="middle" x="348.39" y="-398.3" font-family="Times,serif" font-size="14.00">Utils.Drasil</text>
</g>
<!-- u3 -->
<g id="node2" class="node">
<title>u3</title>
<ellipse fill="#ffffbb" stroke="black" cx="114.39" cy="-223" rx="114.28" ry="18"/>
<text text-anchor="middle" x="114.39" y="-219.3" font-family="Times,serif" font-size="14.00">Utils.Drasil.Document</text>
</g>
<!-- u4&#45;&gt;u3 -->
<g id="edge4" class="edge">
<title>u4&#45;&gt;u3</title>
<path fill="none" stroke="black" d="M327.21,-384.98C285.61,-353.51 193.08,-283.52 144.89,-247.07"/>
<polygon fill="black" stroke="black" points="146.8,-244.13 136.71,-240.89 142.58,-249.71 146.8,-244.13"/>
</g>
<!-- u2 -->
<g id="node3" class="node">
<title>u2</title>
<ellipse fill="#ffffbb" stroke="black" cx="348.39" cy="-223" rx="102.08" ry="18"/>
<text text-anchor="middle" x="348.39" y="-219.3" font-family="Times,serif" font-size="14.00">Utils.Drasil.English</text>
</g>
<!-- u4&#45;&gt;u2 -->
<g id="edge3" class="edge">
<title>u4&#45;&gt;u2</title>
<path fill="none" stroke="black" d="M348.39,-383.71C348.39,-352.83 348.39,-288 348.39,-251.14"/>
<polygon fill="black" stroke="black" points="351.89,-251.1 348.39,-241.1 344.89,-251.1 351.89,-251.1"/>
</g>
<!-- u0 -->
<g id="node5" class="node">
<title>u0</title>
<ellipse fill="#ffffbb" stroke="black" cx="569.39" cy="-223" rx="100.98" ry="18"/>
<text text-anchor="middle" x="569.39" y="-219.3" font-family="Times,serif" font-size="14.00">Utils.Drasil.Strings</text>
</g>
<!-- u4&#45;&gt;u0 -->
<g id="edge2" class="edge">
<title>u4&#45;&gt;u0</title>
<path fill="none" stroke="black" d="M368.78,-384.67C408.22,-353.08 495.02,-283.56 540.42,-247.2"/>
<polygon fill="black" stroke="black" points="542.78,-249.79 548.4,-240.81 538.41,-244.33 542.78,-249.79"/>
</g>
<!-- u1 -->
<g id="node4" class="node">
<title>u1</title>
<ellipse fill="#ffffbb" stroke="black" cx="569.39" cy="-45" rx="89.08" ry="18"/>
<text text-anchor="middle" x="569.39" y="-41.3" font-family="Times,serif" font-size="14.00">Utils.Drasil.Lists</text>
</g>
<!-- u0&#45;&gt;u1 -->
<g id="edge1" class="edge">
<title>u0&#45;&gt;u1</title>
<path fill="none" stroke="black" d="M569.39,-204.8C569.39,-174.23 569.39,-110.19 569.39,-73.46"/>
<polygon fill="black" stroke="black" points="572.89,-73.01 569.39,-63.01 565.89,-73.01 572.89,-73.01"/>
</g>
</g>
</svg>
