<?xml version="1.0" encoding="UTF-8" standalone="no"?>
<!DOCTYPE svg PUBLIC "-//W3C//DTD SVG 1.1//EN"
 "http://www.w3.org/Graphics/SVG/1.1/DTD/svg11.dtd">
<!-- Generated by graphviz version 2.43.0 (0)
 -->
<!-- Title: G Pages: 1 -->
<svg width="432pt" height="284pt"
 viewBox="0.00 0.00 432.00 284.47" xmlns="http://www.w3.org/2000/svg" xmlns:xlink="http://www.w3.org/1999/xlink">
<g id="graph0" class="graph" transform="scale(0.06 0.06) rotate(0) translate(4 4854.67)">
<title>G</title>
<polygon fill="white" stroke="transparent" points="-4,4 -4,-4854.67 7374.54,-4854.67 7374.54,4 -4,4"/>
<!-- u58 -->
<g id="node1" class="node">
<title>u58</title>
<ellipse fill="#bbffbb" stroke="black" cx="2878.87" cy="-4483" rx="62.29" ry="18"/>
<text text-anchor="middle" x="2878.87" y="-4479.3" font-family="Times,serif" font-size="14.00">HelloWorld</text>
</g>
<!-- u57 -->
<g id="node2" class="node">
<title>u57</title>
<ellipse fill="#bbffbb" stroke="black" cx="2878.87" cy="-4189" rx="42.49" ry="18"/>
<text text-anchor="middle" x="2878.87" y="-4185.3" font-family="Times,serif" font-size="14.00">Helper</text>
</g>
<!-- u58&#45;&gt;u57 -->
<g id="edge82" class="edge">
<title>u58&#45;&gt;u57</title>
<path fill="none" stroke="black" d="M2878.87,-4464.61C2878.87,-4415.72 2878.87,-4276.76 2878.87,-4217.42"/>
<polygon fill="black" stroke="black" points="2882.37,-4217.3 2878.87,-4207.3 2875.37,-4217.3 2882.37,-4217.3"/>
</g>
<!-- u56 -->
<g id="node3" class="node">
<title>u56</title>
<ellipse fill="#bbffbb" stroke="black" cx="3018.87" cy="-4483" rx="59.59" ry="18"/>
<text text-anchor="middle" x="3018.87" y="-4479.3" font-family="Times,serif" font-size="14.00">VectorTest</text>
</g>
<!-- u53 -->
<g id="node4" class="node">
<title>u53</title>
<ellipse fill="#bbffbb" stroke="black" cx="3172.87" cy="-4483" rx="76.09" ry="18"/>
<text text-anchor="middle" x="3172.87" y="-4479.3" font-family="Times,serif" font-size="14.00">NameGenTest</text>
</g>
<!-- u52 -->
<g id="node5" class="node">
<title>u52</title>
<ellipse fill="#bbffbb" stroke="black" cx="3319.87" cy="-4483" rx="52.79" ry="18"/>
<text text-anchor="middle" x="3319.87" y="-4479.3" font-family="Times,serif" font-size="14.00">FileTests</text>
</g>
<!-- u0 -->
<g id="node6" class="node">
<title>u0</title>
<ellipse fill="#ffffbb" stroke="black" cx="5456.87" cy="-1837" rx="214.46" ry="18"/>
<text text-anchor="middle" x="5456.87" y="-1833.3" font-family="Times,serif" font-size="14.00">Data.Drasil.ExternalLibraries.ODELibraries</text>
</g>
<!-- u2 -->
<g id="node57" class="node">
<title>u2</title>
<ellipse fill="#77ffff" stroke="black" cx="5403.87" cy="-1543" rx="172.77" ry="18"/>
<text text-anchor="middle" x="5403.87" y="-1539.3" font-family="Times,serif" font-size="14.00">Language.Drasil.Data.ODELibPckg</text>
</g>
<!-- u0&#45;&gt;u2 -->
<g id="edge1" class="edge">
<title>u0&#45;&gt;u2</title>
<path fill="none" stroke="black" d="M5453.71,-1818.61C5444.84,-1769.72 5419.62,-1630.76 5408.84,-1571.42"/>
<polygon fill="black" stroke="black" points="5412.24,-1570.51 5407.01,-1561.3 5405.35,-1571.76 5412.24,-1570.51"/>
</g>
<!-- u55 -->
<g id="node7" class="node">
<title>u55</title>
<ellipse fill="#bbbbff" stroke="black" cx="3485.87" cy="-4483" rx="95.58" ry="18"/>
<text text-anchor="middle" x="3485.87" y="-4479.3" font-family="Times,serif" font-size="14.00">GOOL.PatternTest</text>
</g>
<!-- u54 -->
<g id="node8" class="node">
<title>u54</title>
<ellipse fill="#bbbbff" stroke="black" cx="3485.87" cy="-4189" rx="84.49" ry="18"/>
<text text-anchor="middle" x="3485.87" y="-4185.3" font-family="Times,serif" font-size="14.00">GOOL.Observer</text>
</g>
<!-- u55&#45;&gt;u54 -->
<g id="edge81" class="edge">
<title>u55&#45;&gt;u54</title>
<path fill="none" stroke="black" d="M3485.87,-4464.61C3485.87,-4415.72 3485.87,-4276.76 3485.87,-4217.42"/>
<polygon fill="black" stroke="black" points="3489.37,-4217.3 3485.87,-4207.3 3482.37,-4217.3 3489.37,-4217.3"/>
</g>
<!-- u15 -->
<g id="node9" class="node">
<title>u15</title>
<ellipse fill="#ffbbbb" stroke="black" cx="5688.87" cy="-955" rx="110.48" ry="18"/>
<text text-anchor="middle" x="5688.87" y="-951.3" font-family="Times,serif" font-size="14.00">Language.Drasil.Mod</text>
</g>
<!-- u11 -->
<g id="node18" class="node">
<title>u11</title>
<ellipse fill="#bbffff" stroke="black" cx="5688.87" cy="-661" rx="170.87" ry="18"/>
<text text-anchor="middle" x="5688.87" y="-657.3" font-family="Times,serif" font-size="14.00">Language.Drasil.Chunk.Parameter</text>
</g>
<!-- u15&#45;&gt;u11 -->
<g id="edge28" class="edge">
<title>u15&#45;&gt;u11</title>
<path fill="none" stroke="black" d="M5688.87,-936.61C5688.87,-887.72 5688.87,-748.76 5688.87,-689.42"/>
<polygon fill="black" stroke="black" points="5692.37,-689.3 5688.87,-679.3 5685.37,-689.3 5692.37,-689.3"/>
</g>
<!-- u45 -->
<g id="node27" class="node">
<title>u45</title>
<ellipse fill="#ffbbff" stroke="black" cx="5052.87" cy="-661" rx="160.57" ry="18"/>
<text text-anchor="middle" x="5052.87" y="-657.3" font-family="Times,serif" font-size="14.00">Language.Drasil.Code.DataDesc</text>
</g>
<!-- u15&#45;&gt;u45 -->
<g id="edge29" class="edge">
<title>u15&#45;&gt;u45</title>
<path fill="none" stroke="black" d="M5653.77,-937.88C5545.89,-888.35 5219.17,-738.35 5098.39,-682.9"/>
<polygon fill="black" stroke="black" points="5099.59,-679.6 5089.04,-678.61 5096.67,-685.96 5099.59,-679.6"/>
</g>
<!-- u8 -->
<g id="node10" class="node">
<title>u8</title>
<ellipse fill="#ffbbbb" stroke="black" cx="6604.87" cy="-2131" rx="178.17" ry="18"/>
<text text-anchor="middle" x="6604.87" y="-2127.3" font-family="Times,serif" font-size="14.00">Language.Drasil.ICOSolutionSearch</text>
</g>
<!-- u13 -->
<g id="node16" class="node">
<title>u13</title>
<ellipse fill="#bbffff" stroke="black" cx="6177.87" cy="-1837" rx="191.17" ry="18"/>
<text text-anchor="middle" x="6177.87" y="-1833.3" font-family="Times,serif" font-size="14.00">Language.Drasil.Chunk.CodeDefinition</text>
</g>
<!-- u8&#45;&gt;u13 -->
<g id="edge24" class="edge">
<title>u8&#45;&gt;u13</title>
<path fill="none" stroke="black" d="M6580.07,-2113.04C6507.18,-2063.19 6293.59,-1917.14 6211,-1860.66"/>
<polygon fill="black" stroke="black" points="6212.97,-1857.76 6202.74,-1855.01 6209.02,-1863.54 6212.97,-1857.76"/>
</g>
<!-- u7 -->
<g id="node11" class="node">
<title>u7</title>
<ellipse fill="#ffbbbb" stroke="black" cx="2927.87" cy="-3895" rx="117.78" ry="18"/>
<text text-anchor="middle" x="2927.87" y="-3891.3" font-family="Times,serif" font-size="14.00">Language.Drasil.GOOL</text>
</g>
<!-- u47 -->
<g id="node25" class="node">
<title>u47</title>
<ellipse fill="#ffbbff" stroke="black" cx="4741.87" cy="-3601" rx="176.27" ry="18"/>
<text text-anchor="middle" x="4741.87" y="-3597.3" font-family="Times,serif" font-size="14.00">Language.Drasil.Code.PackageData</text>
</g>
<!-- u7&#45;&gt;u47 -->
<g id="edge23" class="edge">
<title>u7&#45;&gt;u47</title>
<path fill="none" stroke="black" d="M3005.81,-3881.45C3296.38,-3834.68 4316.44,-3670.48 4641.53,-3618.15"/>
<polygon fill="black" stroke="black" points="4642.56,-3621.53 4651.87,-3616.49 4641.44,-3614.62 4642.56,-3621.53"/>
</g>
<!-- u26 -->
<g id="node50" class="node">
<title>u26</title>
<ellipse fill="#ff7777" stroke="black" cx="2562.87" cy="-3601" rx="358.54" ry="18"/>
<text text-anchor="middle" x="2562.87" y="-3597.3" font-family="Times,serif" font-size="14.00">Language.Drasil.Code.Imperative.GOOL.LanguageRenderer.SwiftRenderer</text>
</g>
<!-- u7&#45;&gt;u26 -->
<g id="edge22" class="edge">
<title>u7&#45;&gt;u26</title>
<path fill="none" stroke="black" d="M2906.93,-3877.25C2845.21,-3827.88 2663.84,-3682.78 2592.33,-3625.57"/>
<polygon fill="black" stroke="black" points="2594.17,-3622.56 2584.17,-3619.04 2589.8,-3628.02 2594.17,-3622.56"/>
</g>
<!-- u25 -->
<g id="node51" class="node">
<title>u25</title>
<ellipse fill="#ff7777" stroke="black" cx="3293.87" cy="-3601" rx="354.44" ry="18"/>
<text text-anchor="middle" x="3293.87" y="-3597.3" font-family="Times,serif" font-size="14.00">Language.Drasil.Code.Imperative.GOOL.LanguageRenderer.JavaRenderer</text>
</g>
<!-- u7&#45;&gt;u25 -->
<g id="edge21" class="edge">
<title>u7&#45;&gt;u25</title>
<path fill="none" stroke="black" d="M2948.86,-3877.25C3010.75,-3827.88 3192.62,-3682.78 3264.32,-3625.57"/>
<polygon fill="black" stroke="black" points="3266.87,-3628.02 3272.5,-3619.04 3262.5,-3622.55 3266.87,-3628.02"/>
</g>
<!-- u24 -->
<g id="node52" class="node">
<title>u24</title>
<ellipse fill="#ff7777" stroke="black" cx="4034.87" cy="-3601" rx="369.33" ry="18"/>
<text text-anchor="middle" x="4034.87" y="-3597.3" font-family="Times,serif" font-size="14.00">Language.Drasil.Code.Imperative.GOOL.LanguageRenderer.CSharpRenderer</text>
</g>
<!-- u7&#45;&gt;u24 -->
<g id="edge20" class="edge">
<title>u7&#45;&gt;u24</title>
<path fill="none" stroke="black" d="M2984.29,-3879.12C3168.74,-3830.46 3753.94,-3676.1 3961.22,-3621.43"/>
<polygon fill="black" stroke="black" points="3962.32,-3624.76 3971.09,-3618.82 3960.53,-3617.99 3962.32,-3624.76"/>
</g>
<!-- u22 -->
<g id="node54" class="node">
<title>u22</title>
<ellipse fill="#ff7777" stroke="black" cx="354.87" cy="-3601" rx="354.74" ry="18"/>
<text text-anchor="middle" x="354.87" y="-3597.3" font-family="Times,serif" font-size="14.00">Language.Drasil.Code.Imperative.GOOL.LanguageRenderer.JuliaRenderer</text>
</g>
<!-- u7&#45;&gt;u22 -->
<g id="edge19" class="edge">
<title>u7&#45;&gt;u22</title>
<path fill="none" stroke="black" d="M2836.29,-3883.61C2453.19,-3840.13 976.93,-3672.6 502.56,-3618.76"/>
<polygon fill="black" stroke="black" points="502.9,-3615.28 492.56,-3617.63 502.11,-3622.23 502.9,-3615.28"/>
</g>
<!-- u21 -->
<g id="node55" class="node">
<title>u21</title>
<ellipse fill="#ff7777" stroke="black" cx="1080.87" cy="-3601" rx="352.84" ry="18"/>
<text text-anchor="middle" x="1080.87" y="-3597.3" font-family="Times,serif" font-size="14.00">Language.Drasil.Code.Imperative.GOOL.LanguageRenderer.CppRenderer</text>
</g>
<!-- u7&#45;&gt;u21 -->
<g id="edge18" class="edge">
<title>u7&#45;&gt;u21</title>
<path fill="none" stroke="black" d="M2849.1,-3881.55C2557.1,-3835.38 1535.78,-3673.92 1193.58,-3619.82"/>
<polygon fill="black" stroke="black" points="1194.08,-3616.35 1183.66,-3618.25 1192.99,-3623.27 1194.08,-3616.35"/>
</g>
<!-- u20 -->
<g id="node56" class="node">
<title>u20</title>
<ellipse fill="#ff7777" stroke="black" cx="1818.87" cy="-3601" rx="367.43" ry="18"/>
<text text-anchor="middle" x="1818.87" y="-3597.3" font-family="Times,serif" font-size="14.00">Language.Drasil.Code.Imperative.GOOL.LanguageRenderer.PythonRenderer</text>
</g>
<!-- u7&#45;&gt;u20 -->
<g id="edge17" class="edge">
<title>u7&#45;&gt;u20</title>
<path fill="none" stroke="black" d="M2871.35,-3879.12C2686.45,-3830.44 2099.61,-3675.92 1892.29,-3621.33"/>
<polygon fill="black" stroke="black" points="1892.97,-3617.89 1882.41,-3618.73 1891.19,-3624.66 1892.97,-3617.89"/>
</g>
<!-- u6 -->
<g id="node12" class="node">
<title>u6</title>
<ellipse fill="#ffbbbb" stroke="black" cx="5518.87" cy="-2131" rx="126.18" ry="18"/>
<text text-anchor="middle" x="5518.87" y="-2127.3" font-family="Times,serif" font-size="14.00">Language.Drasil.Choices</text>
</g>
<!-- u6&#45;&gt;u0 -->
<g id="edge16" class="edge">
<title>u6&#45;&gt;u0</title>
<path fill="none" stroke="black" d="M5515.18,-2112.61C5504.79,-2063.72 5475.29,-1924.76 5462.69,-1865.42"/>
<polygon fill="black" stroke="black" points="5466.04,-1864.36 5460.54,-1855.3 5459.2,-1865.81 5466.04,-1864.36"/>
</g>
<!-- u5 -->
<g id="node13" class="node">
<title>u5</title>
<ellipse fill="#ffbbbb" stroke="black" cx="6216.87" cy="-2425" rx="135.68" ry="18"/>
<text text-anchor="middle" x="6216.87" y="-2421.3" font-family="Times,serif" font-size="14.00">Language.Drasil.CodeSpec</text>
</g>
<!-- u5&#45;&gt;u8 -->
<g id="edge14" class="edge">
<title>u5&#45;&gt;u8</title>
<path fill="none" stroke="black" d="M6239.41,-2407.04C6305.44,-2357.35 6498.54,-2212.02 6574.07,-2155.18"/>
<polygon fill="black" stroke="black" points="6576.38,-2157.82 6582.27,-2149.01 6572.17,-2152.22 6576.38,-2157.82"/>
</g>
<!-- u5&#45;&gt;u6 -->
<g id="edge13" class="edge">
<title>u5&#45;&gt;u6</title>
<path fill="none" stroke="black" d="M6177.85,-2407.68C6058.39,-2357.7 5697.88,-2206.89 5567,-2152.14"/>
<polygon fill="black" stroke="black" points="5568.19,-2148.84 5557.62,-2148.21 5565.49,-2155.3 5568.19,-2148.84"/>
</g>
<!-- u14 -->
<g id="node15" class="node">
<title>u14</title>
<ellipse fill="#bbffff" stroke="black" cx="6216.87" cy="-2131" rx="192.27" ry="18"/>
<text text-anchor="middle" x="6216.87" y="-2127.3" font-family="Times,serif" font-size="14.00">Language.Drasil.Chunk.ConstraintMap</text>
</g>
<!-- u5&#45;&gt;u14 -->
<g id="edge15" class="edge">
<title>u5&#45;&gt;u14</title>
<path fill="none" stroke="black" d="M6216.87,-2406.61C6216.87,-2357.72 6216.87,-2218.76 6216.87,-2159.42"/>
<polygon fill="black" stroke="black" points="6220.37,-2159.3 6216.87,-2149.3 6213.37,-2159.3 6220.37,-2159.3"/>
</g>
<!-- u3 -->
<g id="node14" class="node">
<title>u3</title>
<ellipse fill="#ffbbbb" stroke="black" cx="4431.87" cy="-4483" rx="113.18" ry="18"/>
<text text-anchor="middle" x="4431.87" y="-4479.3" font-family="Times,serif" font-size="14.00">Language.Drasil.Code</text>
</g>
<!-- u29 -->
<g id="node42" class="node">
<title>u29</title>
<ellipse fill="#77ff77" stroke="black" cx="4945.87" cy="-4189" rx="217.16" ry="18"/>
<text text-anchor="middle" x="4945.87" y="-4185.3" font-family="Times,serif" font-size="14.00">Language.Drasil.Code.Imperative.Generator</text>
</g>
<!-- u3&#45;&gt;u29 -->
<g id="edge8" class="edge">
<title>u3&#45;&gt;u29</title>
<path fill="none" stroke="black" d="M4460.98,-4465.46C4548.4,-4415.8 4808.69,-4267.93 4907.36,-4211.87"/>
<polygon fill="black" stroke="black" points="4909.16,-4214.88 4916.12,-4206.9 4905.7,-4208.8 4909.16,-4214.88"/>
</g>
<!-- u28 -->
<g id="node43" class="node">
<title>u28</title>
<ellipse fill="#77ff77" stroke="black" cx="4397.87" cy="-1543" rx="217.96" ry="18"/>
<text text-anchor="middle" x="4397.87" y="-1539.3" font-family="Times,serif" font-size="14.00">Language.Drasil.Code.Imperative.ReadInput</text>
</g>
<!-- u3&#45;&gt;u28 -->
<g id="edge7" class="edge">
<title>u3&#45;&gt;u28</title>
<path fill="none" stroke="black" d="M4432.1,-4464.83C4433.18,-4373.78 4436.83,-3938.13 4412.87,-3583 4396.24,-3336.63 4369.99,-3277.1 4349.87,-3031 4327.93,-2762.68 4319.87,-2695.22 4319.87,-2426 4319.87,-2426 4319.87,-2426 4319.87,-2130 4319.87,-1912.7 4373.22,-1654.02 4391.67,-1571.03"/>
<polygon fill="black" stroke="black" points="4395.12,-1571.67 4393.89,-1561.15 4388.29,-1570.14 4395.12,-1571.67"/>
</g>
<!-- u1 -->
<g id="node58" class="node">
<title>u1</title>
<ellipse fill="#77ffff" stroke="black" cx="6135.87" cy="-1249" rx="154.07" ry="18"/>
<text text-anchor="middle" x="6135.87" y="-1245.3" font-family="Times,serif" font-size="14.00">Language.Drasil.Data.ODEInfo</text>
</g>
<!-- u13&#45;&gt;u1 -->
<g id="edge27" class="edge">
<title>u13&#45;&gt;u1</title>
<path fill="none" stroke="black" d="M6176.63,-1818.78C6170.71,-1736.06 6145.14,-1379.32 6137.83,-1277.33"/>
<polygon fill="black" stroke="black" points="6141.31,-1276.95 6137.1,-1267.22 6134.33,-1277.45 6141.31,-1276.95"/>
</g>
<!-- u12 -->
<g id="node17" class="node">
<title>u12</title>
<ellipse fill="#bbffff" stroke="black" cx="5357.87" cy="-955" rx="202.26" ry="18"/>
<text text-anchor="middle" x="5357.87" y="-951.3" font-family="Times,serif" font-size="14.00">Language.Drasil.Chunk.NamedArgument</text>
</g>
<!-- u9 -->
<g id="node20" class="node">
<title>u9</title>
<ellipse fill="#bbffff" stroke="black" cx="5688.87" cy="-367" rx="145.67" ry="18"/>
<text text-anchor="middle" x="5688.87" y="-363.3" font-family="Times,serif" font-size="14.00">Language.Drasil.Chunk.Code</text>
</g>
<!-- u11&#45;&gt;u9 -->
<g id="edge26" class="edge">
<title>u11&#45;&gt;u9</title>
<path fill="none" stroke="black" d="M5688.87,-642.61C5688.87,-593.72 5688.87,-454.76 5688.87,-395.42"/>
<polygon fill="black" stroke="black" points="5692.37,-395.3 5688.87,-385.3 5685.37,-395.3 5692.37,-395.3"/>
</g>
<!-- u10 -->
<g id="node19" class="node">
<title>u10</title>
<ellipse fill="#bbffff" stroke="black" cx="5688.87" cy="-73" rx="168.17" ry="18"/>
<text text-anchor="middle" x="5688.87" y="-69.3" font-family="Times,serif" font-size="14.00">Language.Drasil.Chunk.CodeBase</text>
</g>
<!-- u9&#45;&gt;u10 -->
<g id="edge25" class="edge">
<title>u9&#45;&gt;u10</title>
<path fill="none" stroke="black" d="M5688.87,-348.61C5688.87,-299.72 5688.87,-160.76 5688.87,-101.42"/>
<polygon fill="black" stroke="black" points="5692.37,-101.3 5688.87,-91.3 5685.37,-101.3 5692.37,-101.3"/>
</g>
<!-- u51 -->
<g id="node21" class="node">
<title>u51</title>
<ellipse fill="#ffbbff" stroke="black" cx="4551.87" cy="-2425" rx="165.97" ry="18"/>
<text text-anchor="middle" x="4551.87" y="-2421.3" font-family="Times,serif" font-size="14.00">Language.Drasil.Code.FileNames</text>
</g>
<!-- u50 -->
<g id="node22" class="node">
<title>u50</title>
<ellipse fill="#ffbbff" stroke="black" cx="5215.87" cy="-3013" rx="204.16" ry="18"/>
<text text-anchor="middle" x="5215.87" y="-3009.3" font-family="Times,serif" font-size="14.00">Language.Drasil.Code.CodeQuantityDicts</text>
</g>
<!-- u49 -->
<g id="node23" class="node">
<title>u49</title>
<ellipse fill="#ffbbff" stroke="black" cx="5357.87" cy="-1249" rx="207.96" ry="18"/>
<text text-anchor="middle" x="5357.87" y="-1245.3" font-family="Times,serif" font-size="14.00">Language.Drasil.Code.ExternalLibraryCall</text>
</g>
<!-- u49&#45;&gt;u15 -->
<g id="edge80" class="edge">
<title>u49&#45;&gt;u15</title>
<path fill="none" stroke="black" d="M5377.1,-1231.04C5433.2,-1181.55 5596.82,-1037.2 5661.81,-979.87"/>
<polygon fill="black" stroke="black" points="5664.41,-982.25 5669.59,-973.01 5659.77,-977 5664.41,-982.25"/>
</g>
<!-- u49&#45;&gt;u12 -->
<g id="edge79" class="edge">
<title>u49&#45;&gt;u12</title>
<path fill="none" stroke="black" d="M5357.87,-1230.61C5357.87,-1181.72 5357.87,-1042.76 5357.87,-983.42"/>
<polygon fill="black" stroke="black" points="5361.37,-983.3 5357.87,-973.3 5354.37,-983.3 5361.37,-983.3"/>
</g>
<!-- u48 -->
<g id="node24" class="node">
<title>u48</title>
<ellipse fill="#ffbbff" stroke="black" cx="5773.87" cy="-1249" rx="190.37" ry="18"/>
<text text-anchor="middle" x="5773.87" y="-1245.3" font-family="Times,serif" font-size="14.00">Language.Drasil.Code.ExternalLibrary</text>
</g>
<!-- u48&#45;&gt;u15 -->
<g id="edge78" class="edge">
<title>u48&#45;&gt;u15</title>
<path fill="none" stroke="black" d="M5768.81,-1230.61C5754.54,-1181.62 5713.96,-1042.19 5696.74,-983.05"/>
<polygon fill="black" stroke="black" points="5700.06,-981.92 5693.9,-973.3 5693.34,-983.88 5700.06,-981.92"/>
</g>
<!-- u48&#45;&gt;u12 -->
<g id="edge77" class="edge">
<title>u48&#45;&gt;u12</title>
<path fill="none" stroke="black" d="M5749.7,-1231.04C5678.76,-1181.24 5471.03,-1035.43 5390.39,-978.83"/>
<polygon fill="black" stroke="black" points="5392.3,-975.89 5382.1,-973.01 5388.27,-981.62 5392.3,-975.89"/>
</g>
<!-- u17 -->
<g id="node28" class="node">
<title>u17</title>
<ellipse fill="#ffbbff" stroke="black" cx="5335.87" cy="-2425" rx="155.17" ry="18"/>
<text text-anchor="middle" x="5335.87" y="-2421.3" font-family="Times,serif" font-size="14.00">Language.Drasil.Code.FileData</text>
</g>
<!-- u47&#45;&gt;u17 -->
<g id="edge76" class="edge">
<title>u47&#45;&gt;u17</title>
<path fill="none" stroke="black" d="M4745.31,-3582.85C4769.94,-3460.17 4918.83,-2720.44 4931.87,-2701 5020.35,-2569.06 5195.5,-2483.02 5283.23,-2446.31"/>
<polygon fill="black" stroke="black" points="5284.81,-2449.44 5292.71,-2442.39 5282.13,-2442.97 5284.81,-2449.44"/>
</g>
<!-- u46 -->
<g id="node26" class="node">
<title>u46</title>
<ellipse fill="#ffbbff" stroke="black" cx="4992.87" cy="-1249" rx="139.18" ry="18"/>
<text text-anchor="middle" x="4992.87" y="-1245.3" font-family="Times,serif" font-size="14.00">Language.Drasil.Code.Lang</text>
</g>
<!-- u45&#45;&gt;u9 -->
<g id="edge75" class="edge">
<title>u45&#45;&gt;u9</title>
<path fill="none" stroke="black" d="M5089.35,-643.25C5198.7,-593.05 5523.6,-443.88 5643.64,-388.77"/>
<polygon fill="black" stroke="black" points="5645.3,-391.85 5652.93,-384.5 5642.38,-385.49 5645.3,-391.85"/>
</g>
<!-- u16 -->
<g id="node29" class="node">
<title>u16</title>
<ellipse fill="#ffbbff" stroke="black" cx="5773.87" cy="-1543" rx="178.97" ry="18"/>
<text text-anchor="middle" x="5773.87" y="-1539.3" font-family="Times,serif" font-size="14.00">Language.Drasil.Code.ExtLibImport</text>
</g>
<!-- u16&#45;&gt;u49 -->
<g id="edge31" class="edge">
<title>u16&#45;&gt;u49</title>
<path fill="none" stroke="black" d="M5749.7,-1525.04C5678.76,-1475.24 5471.03,-1329.43 5390.39,-1272.83"/>
<polygon fill="black" stroke="black" points="5392.3,-1269.89 5382.1,-1267.01 5388.27,-1275.62 5392.3,-1269.89"/>
</g>
<!-- u16&#45;&gt;u48 -->
<g id="edge30" class="edge">
<title>u16&#45;&gt;u48</title>
<path fill="none" stroke="black" d="M5773.87,-1524.61C5773.87,-1475.72 5773.87,-1336.76 5773.87,-1277.42"/>
<polygon fill="black" stroke="black" points="5777.37,-1277.3 5773.87,-1267.3 5770.37,-1277.3 5777.37,-1277.3"/>
</g>
<!-- u44 -->
<g id="node30" class="node">
<title>u44</title>
<ellipse fill="#77ff77" stroke="black" cx="5646.87" cy="-2719" rx="237.46" ry="18"/>
<text text-anchor="middle" x="5646.87" y="-2715.3" font-family="Times,serif" font-size="14.00">Language.Drasil.Code.Imperative.ConceptMatch</text>
</g>
<!-- u44&#45;&gt;u6 -->
<g id="edge74" class="edge">
<title>u44&#45;&gt;u6</title>
<path fill="none" stroke="black" d="M5637.86,-2700.92C5616.07,-2658.61 5560.59,-2545.01 5537.87,-2443 5514.98,-2340.26 5515.91,-2214.01 5517.67,-2159.36"/>
<polygon fill="black" stroke="black" points="5521.18,-2159.24 5518.04,-2149.12 5514.18,-2158.99 5521.18,-2159.24"/>
</g>
<!-- u43 -->
<g id="node31" class="node">
<title>u43</title>
<ellipse fill="#77ff77" stroke="black" cx="6611.87" cy="-3013" rx="207.16" ry="18"/>
<text text-anchor="middle" x="6611.87" y="-3009.3" font-family="Times,serif" font-size="14.00">Language.Drasil.Code.Imperative.Logging</text>
</g>
<!-- u27 -->
<g id="node44" class="node">
<title>u27</title>
<ellipse fill="#77ff77" stroke="black" cx="6216.87" cy="-2719" rx="222.06" ry="18"/>
<text text-anchor="middle" x="6216.87" y="-2715.3" font-family="Times,serif" font-size="14.00">Language.Drasil.Code.Imperative.DrasilState</text>
</g>
<!-- u43&#45;&gt;u27 -->
<g id="edge73" class="edge">
<title>u43&#45;&gt;u27</title>
<path fill="none" stroke="black" d="M6588.92,-2995.04C6521.7,-2945.35 6325.12,-2800.02 6248.22,-2743.18"/>
<polygon fill="black" stroke="black" points="6250,-2740.14 6239.88,-2737.01 6245.84,-2745.77 6250,-2740.14"/>
</g>
<!-- u42 -->
<g id="node32" class="node">
<title>u42</title>
<ellipse fill="#77ff77" stroke="black" cx="5946.87" cy="-3307" rx="201.46" ry="18"/>
<text text-anchor="middle" x="5946.87" y="-3303.3" font-family="Times,serif" font-size="14.00">Language.Drasil.Code.Imperative.Import</text>
</g>
<!-- u42&#45;&gt;u50 -->
<g id="edge72" class="edge">
<title>u42&#45;&gt;u50</title>
<path fill="none" stroke="black" d="M5905.21,-3289.36C5779.57,-3239.17 5404.65,-3089.41 5267.15,-3034.49"/>
<polygon fill="black" stroke="black" points="5268.26,-3031.16 5257.67,-3030.7 5265.66,-3037.66 5268.26,-3031.16"/>
</g>
<!-- u42&#45;&gt;u44 -->
<g id="edge71" class="edge">
<title>u42&#45;&gt;u44</title>
<path fill="none" stroke="black" d="M5949.93,-3288.8C5957.79,-3240.05 5974.85,-3097.83 5927.87,-2995 5874.22,-2877.59 5746.5,-2783.58 5683.41,-2742.47"/>
<polygon fill="black" stroke="black" points="5685.26,-2739.49 5674.95,-2737.02 5681.47,-2745.38 5685.26,-2739.49"/>
</g>
<!-- u42&#45;&gt;u43 -->
<g id="edge70" class="edge">
<title>u42&#45;&gt;u43</title>
<path fill="none" stroke="black" d="M5985.01,-3289.25C6099.19,-3239.12 6438.15,-3090.28 6564.07,-3034.99"/>
<polygon fill="black" stroke="black" points="6565.72,-3038.09 6573.47,-3030.86 6562.9,-3031.68 6565.72,-3038.09"/>
</g>
<!-- u32 -->
<g id="node39" class="node">
<title>u32</title>
<ellipse fill="#77ff77" stroke="black" cx="7056.87" cy="-3013" rx="219.86" ry="18"/>
<text text-anchor="middle" x="7056.87" y="-3009.3" font-family="Times,serif" font-size="14.00">Language.Drasil.Code.Imperative.Comments</text>
</g>
<!-- u42&#45;&gt;u32 -->
<g id="edge69" class="edge">
<title>u42&#45;&gt;u32</title>
<path fill="none" stroke="black" d="M6008.53,-3289.78C6199.57,-3239.52 6781.01,-3086.57 6985.12,-3032.87"/>
<polygon fill="black" stroke="black" points="6986.06,-3036.25 6994.84,-3030.32 6984.28,-3029.48 6986.06,-3036.25"/>
</g>
<!-- u31 -->
<g id="node40" class="node">
<title>u31</title>
<ellipse fill="#77ff77" stroke="black" cx="6180.87" cy="-3013" rx="206.06" ry="18"/>
<text text-anchor="middle" x="6180.87" y="-3009.3" font-family="Times,serif" font-size="14.00">Language.Drasil.Code.Imperative.Helpers</text>
</g>
<!-- u42&#45;&gt;u31 -->
<g id="edge68" class="edge">
<title>u42&#45;&gt;u31</title>
<path fill="none" stroke="black" d="M5960.46,-3289.04C5999.88,-3239.85 6114.39,-3096.96 6160.89,-3038.93"/>
<polygon fill="black" stroke="black" points="6163.72,-3041 6167.24,-3031.01 6158.25,-3036.62 6163.72,-3041"/>
</g>
<!-- u30 -->
<g id="node41" class="node">
<title>u30</title>
<ellipse fill="#77ff77" stroke="black" cx="5678.87" cy="-3013" rx="240.46" ry="18"/>
<text text-anchor="middle" x="5678.87" y="-3009.3" font-family="Times,serif" font-size="14.00">Language.Drasil.Code.Imperative.GenerateGOOL</text>
</g>
<!-- u42&#45;&gt;u30 -->
<g id="edge67" class="edge">
<title>u42&#45;&gt;u30</title>
<path fill="none" stroke="black" d="M5931.3,-3289.04C5886.06,-3239.75 5754.47,-3096.37 5701.43,-3038.58"/>
<polygon fill="black" stroke="black" points="5703.82,-3036.01 5694.48,-3031.01 5698.66,-3040.74 5703.82,-3036.01"/>
</g>
<!-- u41 -->
<g id="node33" class="node">
<title>u41</title>
<ellipse fill="#77ff77" stroke="black" cx="5580.87" cy="-3895" rx="209.06" ry="18"/>
<text text-anchor="middle" x="5580.87" y="-3891.3" font-family="Times,serif" font-size="14.00">Language.Drasil.Code.Imperative.Modules</text>
</g>
<!-- u40 -->
<g id="node34" class="node">
<title>u40</title>
<ellipse fill="#77ff77" stroke="black" cx="6740.87" cy="-3307" rx="228.26" ry="18"/>
<text text-anchor="middle" x="6740.87" y="-3303.3" font-family="Times,serif" font-size="14.00">Language.Drasil.Code.Imperative.Descriptions</text>
</g>
<!-- u41&#45;&gt;u40 -->
<g id="edge66" class="edge">
<title>u41&#45;&gt;u40</title>
<path fill="none" stroke="black" d="M5614.33,-3877.09C5780.19,-3793.31 6513.47,-3422.88 6698.4,-3329.45"/>
<polygon fill="black" stroke="black" points="6700.2,-3332.47 6707.55,-3324.83 6697.04,-3326.22 6700.2,-3332.47"/>
</g>
<!-- u19 -->
<g id="node45" class="node">
<title>u19</title>
<ellipse fill="#77ff77" stroke="black" cx="5580.87" cy="-3601" rx="233.16" ry="18"/>
<text text-anchor="middle" x="5580.87" y="-3597.3" font-family="Times,serif" font-size="14.00">Language.Drasil.Code.Imperative.FunctionCalls</text>
</g>
<!-- u41&#45;&gt;u19 -->
<g id="edge65" class="edge">
<title>u41&#45;&gt;u19</title>
<path fill="none" stroke="black" d="M5580.87,-3876.61C5580.87,-3827.72 5580.87,-3688.76 5580.87,-3629.42"/>
<polygon fill="black" stroke="black" points="5584.37,-3629.3 5580.87,-3619.3 5577.37,-3629.3 5584.37,-3629.3"/>
</g>
<!-- u40&#45;&gt;u27 -->
<g id="edge64" class="edge">
<title>u40&#45;&gt;u27</title>
<path fill="none" stroke="black" d="M6837.85,-3290.63C7027.23,-3256.52 7416.78,-3163.85 7285.87,-2995 7172.19,-2848.37 6618.88,-2766.23 6356.04,-2734.9"/>
<polygon fill="black" stroke="black" points="6356.39,-2731.42 6346.05,-2733.72 6355.57,-2738.37 6356.39,-2731.42"/>
</g>
<!-- u38 -->
<g id="node35" class="node">
<title>u38</title>
<ellipse fill="#77ff77" stroke="black" cx="5756.87" cy="-2425" rx="209.86" ry="18"/>
<text text-anchor="middle" x="5756.87" y="-2421.3" font-family="Times,serif" font-size="14.00">Language.Drasil.Code.Imperative.GenODE</text>
</g>
<!-- u38&#45;&gt;u6 -->
<g id="edge60" class="edge">
<title>u38&#45;&gt;u6</title>
<path fill="none" stroke="black" d="M5743.04,-2407.04C5702.95,-2357.85 5586.49,-2214.96 5539.19,-2156.93"/>
<polygon fill="black" stroke="black" points="5541.76,-2154.55 5532.73,-2149.01 5536.34,-2158.97 5541.76,-2154.55"/>
</g>
<!-- u38&#45;&gt;u13 -->
<g id="edge61" class="edge">
<title>u38&#45;&gt;u13</title>
<path fill="none" stroke="black" d="M5769.24,-2406.78C5829.03,-2323.56 6088.08,-1962.98 6159.55,-1863.5"/>
<polygon fill="black" stroke="black" points="6162.5,-1865.38 6165.5,-1855.22 6156.82,-1861.3 6162.5,-1865.38"/>
</g>
<!-- u38&#45;&gt;u16 -->
<g id="edge62" class="edge">
<title>u38&#45;&gt;u16</title>
<path fill="none" stroke="black" d="M5757.2,-2406.82C5759.3,-2298.18 5770.72,-1706.94 5773.34,-1571.61"/>
<polygon fill="black" stroke="black" points="5776.84,-1571.36 5773.53,-1561.29 5769.84,-1571.22 5776.84,-1571.36"/>
</g>
<!-- u37 -->
<g id="node36" class="node">
<title>u37</title>
<ellipse fill="#77ff77" stroke="black" cx="6870.87" cy="-3895" rx="226.66" ry="18"/>
<text text-anchor="middle" x="6870.87" y="-3891.3" font-family="Times,serif" font-size="14.00">Language.Drasil.Code.Imperative.SpaceMatch</text>
</g>
<!-- u37&#45;&gt;u27 -->
<g id="edge59" class="edge">
<title>u37&#45;&gt;u27</title>
<path fill="none" stroke="black" d="M6892.2,-3876.88C7008.53,-3781.52 7552.4,-3308.82 7307.87,-2995 7191.81,-2846.06 6628.85,-2765.24 6360.15,-2734.6"/>
<polygon fill="black" stroke="black" points="6360.27,-2731.09 6349.94,-2733.44 6359.48,-2738.04 6360.27,-2731.09"/>
</g>
<!-- u36 -->
<g id="node37" class="node">
<title>u36</title>
<ellipse fill="#77ff77" stroke="black" cx="4674.87" cy="-1837" rx="219.86" ry="18"/>
<text text-anchor="middle" x="4674.87" y="-1833.3" font-family="Times,serif" font-size="14.00">Language.Drasil.Code.Imperative.WriteInput</text>
</g>
<!-- u36&#45;&gt;u45 -->
<g id="edge58" class="edge">
<title>u36&#45;&gt;u45</title>
<path fill="none" stroke="black" d="M4679.25,-1818.53C4697.6,-1745.91 4770.64,-1460.98 4844.87,-1231 4913.18,-1019.35 5010.55,-769.13 5042.37,-688.46"/>
<polygon fill="black" stroke="black" points="5045.67,-689.64 5046.09,-679.06 5039.16,-687.07 5045.67,-689.64"/>
</g>
<!-- u33 -->
<g id="node38" class="node">
<title>u33</title>
<ellipse fill="#77ff77" stroke="black" cx="4948.87" cy="-2425" rx="213.36" ry="18"/>
<text text-anchor="middle" x="4948.87" y="-2421.3" font-family="Times,serif" font-size="14.00">Language.Drasil.Code.Imperative.README</text>
</g>
<!-- u33&#45;&gt;u6 -->
<g id="edge55" class="edge">
<title>u33&#45;&gt;u6</title>
<path fill="none" stroke="black" d="M4981.98,-2407.04C5080.21,-2356.71 5369.89,-2208.32 5477.77,-2153.05"/>
<polygon fill="black" stroke="black" points="5479.43,-2156.14 5486.73,-2148.46 5476.23,-2149.91 5479.43,-2156.14"/>
</g>
<!-- u32&#45;&gt;u27 -->
<g id="edge54" class="edge">
<title>u32&#45;&gt;u27</title>
<path fill="none" stroke="black" d="M7008.99,-2995.36C6864.11,-2944.99 6430.7,-2794.33 6274.11,-2739.9"/>
<polygon fill="black" stroke="black" points="6275.24,-2736.59 6264.64,-2736.61 6272.94,-2743.2 6275.24,-2736.59"/>
</g>
<!-- u31&#45;&gt;u27 -->
<g id="edge53" class="edge">
<title>u31&#45;&gt;u27</title>
<path fill="none" stroke="black" d="M6183.01,-2994.61C6189.04,-2945.72 6206.17,-2806.76 6213.49,-2747.42"/>
<polygon fill="black" stroke="black" points="6216.99,-2747.65 6214.74,-2737.3 6210.04,-2746.8 6216.99,-2747.65"/>
</g>
<!-- u30&#45;&gt;u27 -->
<g id="edge52" class="edge">
<title>u30&#45;&gt;u27</title>
<path fill="none" stroke="black" d="M5710.12,-2995.04C5802.53,-2944.88 6074.43,-2797.31 6177.05,-2741.61"/>
<polygon fill="black" stroke="black" points="6178.75,-2744.67 6185.87,-2736.83 6175.41,-2738.52 6178.75,-2744.67"/>
</g>
<!-- u4 -->
<g id="node59" class="node">
<title>u4</title>
<ellipse fill="#ff77ff" stroke="black" cx="4613.87" cy="-2719" rx="266.45" ry="18"/>
<text text-anchor="middle" x="4613.87" y="-2715.3" font-family="Times,serif" font-size="14.00">Language.Drasil.SoftwareDossier.SoftwareDossierSym</text>
</g>
<!-- u30&#45;&gt;u4 -->
<g id="edge51" class="edge">
<title>u30&#45;&gt;u4</title>
<path fill="none" stroke="black" d="M5618.56,-2995.46C5434.53,-2945.01 4880.77,-2793.18 4684.11,-2739.26"/>
<polygon fill="black" stroke="black" points="4684.75,-2735.8 4674.18,-2736.53 4682.89,-2742.55 4684.75,-2735.8"/>
</g>
<!-- u29&#45;&gt;u47 -->
<g id="edge50" class="edge">
<title>u29&#45;&gt;u47</title>
<path fill="none" stroke="black" d="M4939.87,-4170.78C4911.02,-4087.89 4786.38,-3729.87 4751.17,-3628.71"/>
<polygon fill="black" stroke="black" points="4754.46,-3627.51 4747.86,-3619.22 4747.85,-3629.82 4754.46,-3627.51"/>
</g>
<!-- u29&#45;&gt;u41 -->
<g id="edge49" class="edge">
<title>u29&#45;&gt;u41</title>
<path fill="none" stroke="black" d="M4982.29,-4171.25C5091.21,-4121.17 5414.34,-3972.58 5534.86,-3917.16"/>
<polygon fill="black" stroke="black" points="5536.58,-3920.22 5544.2,-3912.86 5533.65,-3913.86 5536.58,-3920.22"/>
</g>
<!-- u29&#45;&gt;u38 -->
<g id="edge48" class="edge">
<title>u29&#45;&gt;u38</title>
<path fill="none" stroke="black" d="M4945.87,-4170.74C4945.87,-4100.2 4945.87,-3826.84 4945.87,-3602 4945.87,-3602 4945.87,-3602 4945.87,-3012 4945.87,-2656.3 5464.76,-2494.7 5672.44,-2444.27"/>
<polygon fill="black" stroke="black" points="5673.48,-2447.62 5682.39,-2441.89 5671.85,-2440.82 5673.48,-2447.62"/>
</g>
<!-- u29&#45;&gt;u37 -->
<g id="edge47" class="edge">
<title>u29&#45;&gt;u37</title>
<path fill="none" stroke="black" d="M5044.98,-4172.97C5372.4,-4123.3 6418.07,-3964.68 6760.88,-3912.68"/>
<polygon fill="black" stroke="black" points="6761.45,-3916.14 6770.81,-3911.18 6760.4,-3909.22 6761.45,-3916.14"/>
</g>
<!-- u28&#45;&gt;u45 -->
<g id="edge46" class="edge">
<title>u28&#45;&gt;u45</title>
<path fill="none" stroke="black" d="M4405.45,-1524.94C4439.04,-1450.43 4580.32,-1147.84 4750.87,-937 4836.52,-831.12 4963.63,-729.33 5021.79,-685.08"/>
<polygon fill="black" stroke="black" points="5023.99,-687.8 5029.85,-678.98 5019.77,-682.22 5023.99,-687.8"/>
</g>
<!-- u27&#45;&gt;u5 -->
<g id="edge44" class="edge">
<title>u27&#45;&gt;u5</title>
<path fill="none" stroke="black" d="M6216.87,-2700.61C6216.87,-2651.72 6216.87,-2512.76 6216.87,-2453.42"/>
<polygon fill="black" stroke="black" points="6220.37,-2453.3 6216.87,-2443.3 6213.37,-2453.3 6220.37,-2453.3"/>
</g>
<!-- u27&#45;&gt;u16 -->
<g id="edge45" class="edge">
<title>u27&#45;&gt;u16</title>
<path fill="none" stroke="black" d="M6206.51,-2700.8C6181.15,-2658.22 6114.91,-2544.05 6071.87,-2443 5929.4,-2108.5 5810.72,-1681.15 5781.02,-1570.89"/>
<polygon fill="black" stroke="black" points="5784.4,-1569.98 5778.43,-1561.23 5777.64,-1571.79 5784.4,-1569.98"/>
</g>
<!-- u19&#45;&gt;u42 -->
<g id="edge35" class="edge">
<title>u19&#45;&gt;u42</title>
<path fill="none" stroke="black" d="M5602.13,-3583.04C5664.29,-3533.45 5845.83,-3388.61 5917.38,-3331.52"/>
<polygon fill="black" stroke="black" points="5919.92,-3333.98 5925.55,-3325.01 5915.55,-3328.51 5919.92,-3333.98"/>
</g>
<!-- u18 -->
<g id="node46" class="node">
<title>u18</title>
<ellipse fill="#77ff77" stroke="black" cx="5215.87" cy="-3307" rx="223.66" ry="18"/>
<text text-anchor="middle" x="5215.87" y="-3303.3" font-family="Times,serif" font-size="14.00">Language.Drasil.Code.Imperative.Parameters</text>
</g>
<!-- u19&#45;&gt;u18 -->
<g id="edge34" class="edge">
<title>u19&#45;&gt;u18</title>
<path fill="none" stroke="black" d="M5559.67,-3583.04C5497.68,-3533.45 5316.63,-3388.61 5245.27,-3331.52"/>
<polygon fill="black" stroke="black" points="5247.12,-3328.52 5237.13,-3325.01 5242.75,-3333.99 5247.12,-3328.52"/>
</g>
<!-- u18&#45;&gt;u50 -->
<g id="edge33" class="edge">
<title>u18&#45;&gt;u50</title>
<path fill="none" stroke="black" d="M5215.87,-3288.61C5215.87,-3239.72 5215.87,-3100.76 5215.87,-3041.42"/>
<polygon fill="black" stroke="black" points="5219.37,-3041.3 5215.87,-3031.3 5212.37,-3041.3 5219.37,-3041.3"/>
</g>
<!-- u18&#45;&gt;u27 -->
<g id="edge32" class="edge">
<title>u18&#45;&gt;u27</title>
<path fill="none" stroke="black" d="M5188.06,-3289.04C5113.02,-3241.19 4917.61,-3101.74 5002.87,-2995 5132.15,-2833.16 5748.54,-2759.5 6050.03,-2732.7"/>
<polygon fill="black" stroke="black" points="6050.53,-2736.17 6060.18,-2731.81 6049.92,-2729.2 6050.53,-2736.17"/>
</g>
<!-- u35 -->
<g id="node47" class="node">
<title>u35</title>
<ellipse fill="#ffff77" stroke="black" cx="3372.87" cy="-3013" rx="228.56" ry="18"/>
<text text-anchor="middle" x="3372.87" y="-3009.3" font-family="Times,serif" font-size="14.00">Language.Drasil.Code.Imperative.Build.Import</text>
</g>
<!-- u34 -->
<g id="node48" class="node">
<title>u34</title>
<ellipse fill="#ffff77" stroke="black" cx="3372.87" cy="-2719" rx="215.56" ry="18"/>
<text text-anchor="middle" x="3372.87" y="-2715.3" font-family="Times,serif" font-size="14.00">Language.Drasil.Code.Imperative.Build.AST</text>
</g>
<!-- u35&#45;&gt;u34 -->
<g id="edge57" class="edge">
<title>u35&#45;&gt;u34</title>
<path fill="none" stroke="black" d="M3372.87,-2994.61C3372.87,-2945.72 3372.87,-2806.76 3372.87,-2747.42"/>
<polygon fill="black" stroke="black" points="3376.37,-2747.3 3372.87,-2737.3 3369.37,-2747.3 3376.37,-2747.3"/>
</g>
<!-- u35&#45;&gt;u4 -->
<g id="edge56" class="edge">
<title>u35&#45;&gt;u4</title>
<path fill="none" stroke="black" d="M3441.8,-2995.78C3655.58,-2945.48 4306.63,-2792.29 4534.27,-2738.73"/>
<polygon fill="black" stroke="black" points="4535.2,-2742.1 4544.14,-2736.41 4533.6,-2735.29 4535.2,-2742.1"/>
</g>
<!-- u39 -->
<g id="node49" class="node">
<title>u39</title>
<ellipse fill="#7777ff" stroke="black" cx="4603.87" cy="-3013" rx="245.06" ry="18"/>
<text text-anchor="middle" x="4603.87" y="-3009.3" font-family="Times,serif" font-size="14.00">Language.Drasil.Code.Imperative.Doxygen.Import</text>
</g>
<!-- u39&#45;&gt;u4 -->
<g id="edge63" class="edge">
<title>u39&#45;&gt;u4</title>
<path fill="none" stroke="black" d="M4604.46,-2994.61C4606.14,-2945.72 4610.9,-2806.76 4612.93,-2747.42"/>
<polygon fill="black" stroke="black" points="4616.43,-2747.41 4613.28,-2737.3 4609.44,-2747.17 4616.43,-2747.41"/>
</g>
<!-- u23 -->
<g id="node53" class="node">
<title>u23</title>
<ellipse fill="#ff7777" stroke="black" cx="2914.87" cy="-3307" rx="393.73" ry="18"/>
<text text-anchor="middle" x="2914.87" y="-3303.3" font-family="Times,serif" font-size="14.00">Language.Drasil.Code.Imperative.GOOL.LanguageRenderer.LanguagePolymorphic</text>
</g>
<!-- u26&#45;&gt;u23 -->
<g id="edge43" class="edge">
<title>u26&#45;&gt;u23</title>
<path fill="none" stroke="black" d="M2583.57,-3582.82C2643.48,-3533.13 2817.07,-3389.13 2886.09,-3331.88"/>
<polygon fill="black" stroke="black" points="2888.51,-3334.42 2893.97,-3325.34 2884.04,-3329.03 2888.51,-3334.42"/>
</g>
<!-- u25&#45;&gt;u23 -->
<g id="edge42" class="edge">
<title>u25&#45;&gt;u23</title>
<path fill="none" stroke="black" d="M3271.58,-3582.82C3206.95,-3533.03 3019.41,-3388.54 2945.41,-3331.53"/>
<polygon fill="black" stroke="black" points="2947.43,-3328.67 2937.37,-3325.34 2943.16,-3334.21 2947.43,-3328.67"/>
</g>
<!-- u24&#45;&gt;u23 -->
<g id="edge41" class="edge">
<title>u24&#45;&gt;u23</title>
<path fill="none" stroke="black" d="M3970.63,-3583.25C3776.38,-3532.61 3195.86,-3381.26 2989.05,-3327.34"/>
<polygon fill="black" stroke="black" points="2989.76,-3323.91 2979.2,-3324.77 2987.99,-3330.68 2989.76,-3323.91"/>
</g>
<!-- u23&#45;&gt;u35 -->
<g id="edge39" class="edge">
<title>u23&#45;&gt;u35</title>
<path fill="none" stroke="black" d="M2941.47,-3289.04C3019.73,-3239.14 3249.21,-3092.84 3337.6,-3036.49"/>
<polygon fill="black" stroke="black" points="3339.64,-3039.34 3346.19,-3031.01 3335.88,-3033.43 3339.64,-3039.34"/>
</g>
<!-- u23&#45;&gt;u39 -->
<g id="edge40" class="edge">
<title>u23&#45;&gt;u39</title>
<path fill="none" stroke="black" d="M3010.21,-3289.52C3305.03,-3238.55 4200.26,-3083.78 4502.76,-3031.48"/>
<polygon fill="black" stroke="black" points="4503.58,-3034.89 4512.84,-3029.74 4502.39,-3027.99 4503.58,-3034.89"/>
</g>
<!-- u22&#45;&gt;u23 -->
<g id="edge38" class="edge">
<title>u22&#45;&gt;u23</title>
<path fill="none" stroke="black" d="M492.05,-3584.35C932.52,-3534.11 2308.79,-3377.13 2765.73,-3325.01"/>
<polygon fill="black" stroke="black" points="2766.16,-3328.49 2775.69,-3323.87 2765.36,-3321.53 2766.16,-3328.49"/>
</g>
<!-- u21&#45;&gt;u23 -->
<g id="edge37" class="edge">
<title>u21&#45;&gt;u23</title>
<path fill="none" stroke="black" d="M1183.07,-3583.73C1500.77,-3533.15 2469.64,-3378.89 2801.76,-3326.01"/>
<polygon fill="black" stroke="black" points="2802.55,-3329.43 2811.87,-3324.4 2801.45,-3322.51 2802.55,-3329.43"/>
</g>
<!-- u20&#45;&gt;u23 -->
<g id="edge36" class="edge">
<title>u20&#45;&gt;u23</title>
<path fill="none" stroke="black" d="M1881.73,-3583.25C2071.72,-3532.63 2639.33,-3381.41 2841.97,-3327.42"/>
<polygon fill="black" stroke="black" points="2843.16,-3330.73 2851.92,-3324.77 2841.36,-3323.96 2843.16,-3330.73"/>
</g>
<!-- u2&#45;&gt;u49 -->
<g id="edge6" class="edge">
<title>u2&#45;&gt;u49</title>
<path fill="none" stroke="black" d="M5401.13,-1524.61C5393.43,-1475.72 5371.54,-1336.76 5362.19,-1277.42"/>
<polygon fill="black" stroke="black" points="5365.61,-1276.63 5360.59,-1267.3 5358.69,-1277.72 5365.61,-1276.63"/>
</g>
<!-- u2&#45;&gt;u48 -->
<g id="edge5" class="edge">
<title>u2&#45;&gt;u48</title>
<path fill="none" stroke="black" d="M5425.36,-1525.04C5488.2,-1475.45 5671.72,-1330.61 5744.06,-1273.52"/>
<polygon fill="black" stroke="black" points="5746.64,-1275.95 5752.32,-1267.01 5742.3,-1270.46 5746.64,-1275.95"/>
</g>
<!-- u2&#45;&gt;u46 -->
<g id="edge4" class="edge">
<title>u2&#45;&gt;u46</title>
<path fill="none" stroke="black" d="M5379.99,-1525.04C5309.83,-1475.19 5104.19,-1329.09 5024.72,-1272.63"/>
<polygon fill="black" stroke="black" points="5026.73,-1269.76 5016.55,-1266.83 5022.68,-1275.47 5026.73,-1269.76"/>
</g>
<!-- u2&#45;&gt;u1 -->
<g id="edge3" class="edge">
<title>u2&#45;&gt;u1</title>
<path fill="none" stroke="black" d="M5445.32,-1525.46C5571.14,-1475.27 5948.4,-1324.78 6085.43,-1270.12"/>
<polygon fill="black" stroke="black" points="6086.88,-1273.31 6094.87,-1266.35 6084.29,-1266.81 6086.88,-1273.31"/>
</g>
<!-- u1&#45;&gt;u9 -->
<g id="edge2" class="edge">
<title>u1&#45;&gt;u9</title>
<path fill="none" stroke="black" d="M6129.43,-1230.67C6101.97,-1157.46 5990.52,-866.97 5868.87,-643 5816.69,-546.94 5741.8,-440.65 5707.42,-393.23"/>
<polygon fill="black" stroke="black" points="5710.2,-391.1 5701.48,-385.08 5704.54,-395.22 5710.2,-391.1"/>
</g>
<!-- u4&#45;&gt;u51 -->
<g id="edge12" class="edge">
<title>u4&#45;&gt;u51</title>
<path fill="none" stroke="black" d="M4610.18,-2700.61C4599.79,-2651.72 4570.29,-2512.76 4557.69,-2453.42"/>
<polygon fill="black" stroke="black" points="4561.04,-2452.36 4555.54,-2443.3 4554.2,-2453.81 4561.04,-2452.36"/>
</g>
<!-- u4&#45;&gt;u17 -->
<g id="edge9" class="edge">
<title>u4&#45;&gt;u17</title>
<path fill="none" stroke="black" d="M4655.54,-2701.15C4780.33,-2650.68 5150.67,-2500.9 5285.8,-2446.25"/>
<polygon fill="black" stroke="black" points="5287.16,-2449.48 5295.12,-2442.48 5284.53,-2442.99 5287.16,-2449.48"/>
</g>
<!-- u4&#45;&gt;u36 -->
<g id="edge11" class="edge">
<title>u4&#45;&gt;u36</title>
<path fill="none" stroke="black" d="M4583.89,-2701.05C4513.09,-2658.54 4343.87,-2541.14 4376.87,-2407 4433.04,-2178.66 4598.87,-1940.42 4655.59,-1863.52"/>
<polygon fill="black" stroke="black" points="4658.5,-1865.48 4661.65,-1855.36 4652.88,-1861.3 4658.5,-1865.48"/>
</g>
<!-- u4&#45;&gt;u33 -->
<g id="edge10" class="edge">
<title>u4&#45;&gt;u33</title>
<path fill="none" stroke="black" d="M4633.33,-2701.04C4690.11,-2651.55 4855.71,-2507.2 4921.48,-2449.87"/>
<polygon fill="black" stroke="black" points="4924.12,-2452.22 4929.36,-2443.01 4919.52,-2446.94 4924.12,-2452.22"/>
</g>
<!-- u59 -->
<g id="node60" class="node">
<title>u59</title>
<ellipse fill="#33ff33" stroke="black" cx="3319.87" cy="-4777" rx="108.58" ry="18"/>
<text text-anchor="middle" x="3319.87" y="-4773.3" font-family="Times,serif" font-size="14.00">drasil&#45;code.test.Main</text>
</g>
<!-- u59&#45;&gt;u58 -->
<g id="edge89" class="edge">
<title>u59&#45;&gt;u58</title>
<path fill="none" stroke="black" d="M3294.89,-4759.46C3219.66,-4709.65 2995.22,-4561.04 2911.14,-4505.37"/>
<polygon fill="black" stroke="black" points="2913.03,-4502.42 2902.76,-4499.82 2909.16,-4508.26 2913.03,-4502.42"/>
</g>
<!-- u59&#45;&gt;u56 -->
<g id="edge88" class="edge">
<title>u59&#45;&gt;u56</title>
<path fill="none" stroke="black" d="M3302.38,-4759.04C3251.23,-4709.41 3101.78,-4564.43 3043,-4507.41"/>
<polygon fill="black" stroke="black" points="3045.27,-4504.73 3035.65,-4500.28 3040.39,-4509.76 3045.27,-4504.73"/>
</g>
<!-- u59&#45;&gt;u53 -->
<g id="edge86" class="edge">
<title>u59&#45;&gt;u53</title>
<path fill="none" stroke="black" d="M3311.33,-4759.04C3286.72,-4710.15 3215.52,-4568.71 3185.96,-4510.01"/>
<polygon fill="black" stroke="black" points="3189.05,-4508.37 3181.43,-4501.01 3182.8,-4511.51 3189.05,-4508.37"/>
</g>
<!-- u59&#45;&gt;u52 -->
<g id="edge85" class="edge">
<title>u59&#45;&gt;u52</title>
<path fill="none" stroke="black" d="M3319.87,-4758.61C3319.87,-4709.72 3319.87,-4570.76 3319.87,-4511.42"/>
<polygon fill="black" stroke="black" points="3323.37,-4511.3 3319.87,-4501.3 3316.37,-4511.3 3323.37,-4511.3"/>
</g>
<!-- u59&#45;&gt;u55 -->
<g id="edge87" class="edge">
<title>u59&#45;&gt;u55</title>
<path fill="none" stroke="black" d="M3329.51,-4759.04C3357.3,-4710.15 3437.71,-4568.71 3471.08,-4510.01"/>
<polygon fill="black" stroke="black" points="3474.3,-4511.43 3476.2,-4501.01 3468.21,-4507.97 3474.3,-4511.43"/>
</g>
<!-- u59&#45;&gt;u7 -->
<g id="edge84" class="edge">
<title>u59&#45;&gt;u7</title>
<path fill="none" stroke="black" d="M3346.67,-4759.53C3404.58,-4722.13 3540.27,-4624.42 3590.87,-4501 3624.81,-4418.19 3839.67,-4547.39 3578.87,-4171 3453.69,-3990.35 3184.94,-3927.86 3034.84,-3906.63"/>
<polygon fill="black" stroke="black" points="3035.07,-3903.13 3024.68,-3905.23 3034.11,-3910.06 3035.07,-3903.13"/>
</g>
<!-- u59&#45;&gt;u3 -->
<g id="edge83" class="edge">
<title>u59&#45;&gt;u3</title>
<path fill="none" stroke="black" d="M3375.39,-4761.42C3561.82,-4712.47 4164.9,-4554.1 4365.96,-4501.31"/>
<polygon fill="black" stroke="black" points="4367.01,-4504.65 4375.79,-4498.73 4365.23,-4497.88 4367.01,-4504.65"/>
</g>
</g>
</svg>
