<?xml version="1.0" encoding="UTF-8" standalone="no"?>
<!DOCTYPE svg PUBLIC "-//W3C//DTD SVG 1.1//EN"
 "http://www.w3.org/Graphics/SVG/1.1/DTD/svg11.dtd">
<!-- Generated by graphviz version 2.43.0 (0)
 -->
<!-- Title: G Pages: 1 -->
<svg width="432pt" height="285pt"
 viewBox="0.00 0.00 432.00 285.07" xmlns="http://www.w3.org/2000/svg" xmlns:xlink="http://www.w3.org/1999/xlink">
<g id="graph0" class="graph" transform="scale(14.26 14.26) rotate(0) translate(4 4061.33)">
<title>G</title>
<polygon fill="white" stroke="transparent" points="-4,4 -4,-4061.33 6156.65,-4061.33 6156.65,4 -4,4"/>
<!-- u54 -->
<g id="node1" class="node">
<title>u54</title>
<ellipse fill="#bbffbb" stroke="black" cx="185.65" cy="-3428" rx="42.49" ry="18"/>
<text text-anchor="middle" x="185.65" y="-3424.3" font-family="Times,serif" font-size="14.00">Helper</text>
</g>
<!-- u53 -->
<g id="node2" class="node">
<title>u53</title>
<ellipse fill="#bbffbb" stroke="black" cx="185.65" cy="-3708" rx="62.29" ry="18"/>
<text text-anchor="middle" x="185.65" y="-3704.3" font-family="Times,serif" font-size="14.00">HelloWorld</text>
</g>
<!-- u53&#45;&gt;u54 -->
<g id="edge86" class="edge">
<title>u53&#45;&gt;u54</title>
<path fill="none" stroke="black" d="M185.65,-3689.61C185.65,-3642.6 185.65,-3512.7 185.65,-3456.03"/>
<polygon fill="black" stroke="black" points="189.15,-3456.03 185.65,-3446.03 182.15,-3456.03 189.15,-3456.03"/>
</g>
<!-- u52 -->
<g id="node3" class="node">
<title>u52</title>
<ellipse fill="#bbffbb" stroke="black" cx="314.65" cy="-3428" rx="53.89" ry="18"/>
<text text-anchor="middle" x="314.65" y="-3424.3" font-family="Times,serif" font-size="14.00">Observer</text>
</g>
<!-- u51 -->
<g id="node4" class="node">
<title>u51</title>
<ellipse fill="#bbffbb" stroke="black" cx="330.65" cy="-3708" rx="64.99" ry="18"/>
<text text-anchor="middle" x="330.65" y="-3704.3" font-family="Times,serif" font-size="14.00">PatternTest</text>
</g>
<!-- u51&#45;&gt;u52 -->
<g id="edge85" class="edge">
<title>u51&#45;&gt;u52</title>
<path fill="none" stroke="black" d="M329.64,-3689.61C326.94,-3642.6 319.46,-3512.7 316.2,-3456.03"/>
<polygon fill="black" stroke="black" points="319.69,-3455.81 315.63,-3446.03 312.71,-3456.21 319.69,-3455.81"/>
</g>
<!-- u50 -->
<g id="node5" class="node">
<title>u50</title>
<ellipse fill="#bbffbb" stroke="black" cx="258.65" cy="-3987" rx="34.39" ry="18"/>
<text text-anchor="middle" x="258.65" y="-3983.3" font-family="Times,serif" font-size="14.00">Main</text>
</g>
<!-- u50&#45;&gt;u53 -->
<g id="edge84" class="edge">
<title>u50&#45;&gt;u53</title>
<path fill="none" stroke="black" d="M254.19,-3969.09C241.95,-3922.63 207.72,-3792.75 192.77,-3736.05"/>
<polygon fill="black" stroke="black" points="196.07,-3734.82 190.14,-3726.04 189.3,-3736.6 196.07,-3734.82"/>
</g>
<!-- u50&#45;&gt;u51 -->
<g id="edge83" class="edge">
<title>u50&#45;&gt;u51</title>
<path fill="none" stroke="black" d="M263.04,-3969.09C275.12,-3922.63 308.88,-3792.75 323.61,-3736.05"/>
<polygon fill="black" stroke="black" points="327.09,-3736.6 326.22,-3726.04 320.31,-3734.84 327.09,-3736.6"/>
</g>
<!-- u49 -->
<g id="node6" class="node">
<title>u49</title>
<ellipse fill="#bbffbb" stroke="black" cx="52.65" cy="-3708" rx="52.79" ry="18"/>
<text text-anchor="middle" x="52.65" y="-3704.3" font-family="Times,serif" font-size="14.00">FileTests</text>
</g>
<!-- u50&#45;&gt;u49 -->
<g id="edge82" class="edge">
<title>u50&#45;&gt;u49</title>
<path fill="none" stroke="black" d="M246.68,-3969.91C212.28,-3923.66 112.94,-3790.08 71.33,-3734.12"/>
<polygon fill="black" stroke="black" points="73.94,-3731.77 65.16,-3725.83 68.32,-3735.95 73.94,-3731.77"/>
</g>
<!-- u47 -->
<g id="node9" class="node">
<title>u47</title>
<ellipse fill="#bbbbff" stroke="black" cx="1822.65" cy="-3708" rx="113.18" ry="18"/>
<text text-anchor="middle" x="1822.65" y="-3704.3" font-family="Times,serif" font-size="14.00">Language.Drasil.Code</text>
</g>
<!-- u50&#45;&gt;u47 -->
<g id="edge81" class="edge">
<title>u50&#45;&gt;u47</title>
<path fill="none" stroke="black" d="M290.95,-3980.28C480.39,-3946.73 1448.6,-3775.25 1739.73,-3723.68"/>
<polygon fill="black" stroke="black" points="1740.57,-3727.09 1749.8,-3721.9 1739.35,-3720.2 1740.57,-3727.09"/>
</g>
<!-- u0 -->
<g id="node7" class="node">
<title>u0</title>
<ellipse fill="#ffffbb" stroke="black" cx="1822.65" cy="-3987" rx="214.46" ry="18"/>
<text text-anchor="middle" x="1822.65" y="-3983.3" font-family="Times,serif" font-size="14.00">Data.Drasil.ExternalLibraries.ODELibraries</text>
</g>
<!-- u0&#45;&gt;u47 -->
<g id="edge1" class="edge">
<title>u0&#45;&gt;u47</title>
<path fill="none" stroke="black" d="M1822.65,-3968.67C1822.65,-3921.94 1822.65,-3793.02 1822.65,-3736.34"/>
<polygon fill="black" stroke="black" points="1826.15,-3736.32 1822.65,-3726.32 1819.15,-3736.32 1826.15,-3736.32"/>
</g>
<!-- u48 -->
<g id="node8" class="node">
<title>u48</title>
<ellipse fill="#bbbbff" stroke="black" cx="5061.65" cy="-1749" rx="135.68" ry="18"/>
<text text-anchor="middle" x="5061.65" y="-1745.3" font-family="Times,serif" font-size="14.00">Language.Drasil.CodeSpec</text>
</g>
<!-- u42 -->
<g id="node10" class="node">
<title>u42</title>
<ellipse fill="#bbbbff" stroke="black" cx="4455.65" cy="-1469" rx="126.18" ry="18"/>
<text text-anchor="middle" x="4455.65" y="-1465.3" font-family="Times,serif" font-size="14.00">Language.Drasil.Choices</text>
</g>
<!-- u48&#45;&gt;u42 -->
<g id="edge78" class="edge">
<title>u48&#45;&gt;u42</title>
<path fill="none" stroke="black" d="M5025.55,-1731.44C4920.59,-1683.29 4615.64,-1543.39 4500.43,-1490.54"/>
<polygon fill="black" stroke="black" points="4501.72,-1487.28 4491.17,-1486.3 4498.8,-1493.65 4501.72,-1487.28"/>
</g>
<!-- u44 -->
<g id="node14" class="node">
<title>u44</title>
<ellipse fill="#ffbbbb" stroke="black" cx="4885.65" cy="-1189" rx="191.17" ry="18"/>
<text text-anchor="middle" x="4885.65" y="-1185.3" font-family="Times,serif" font-size="14.00">Language.Drasil.Chunk.CodeDefinition</text>
</g>
<!-- u48&#45;&gt;u44 -->
<g id="edge80" class="edge">
<title>u48&#45;&gt;u44</title>
<path fill="none" stroke="black" d="M5063.33,-1730.74C5067.27,-1684.27 5074.53,-1553.09 5042.65,-1451 5012.95,-1355.93 4941.96,-1259.46 4906.52,-1215.12"/>
<polygon fill="black" stroke="black" points="4909.13,-1212.79 4900.13,-1207.21 4903.69,-1217.19 4909.13,-1212.79"/>
</g>
<!-- u43 -->
<g id="node15" class="node">
<title>u43</title>
<ellipse fill="#ffbbbb" stroke="black" cx="4841.65" cy="-1469" rx="192.27" ry="18"/>
<text text-anchor="middle" x="4841.65" y="-1465.3" font-family="Times,serif" font-size="14.00">Language.Drasil.Chunk.ConstraintMap</text>
</g>
<!-- u48&#45;&gt;u43 -->
<g id="edge79" class="edge">
<title>u48&#45;&gt;u43</title>
<path fill="none" stroke="black" d="M5048.21,-1731.03C5010.86,-1683.82 4905.58,-1550.78 4861.47,-1495.05"/>
<polygon fill="black" stroke="black" points="4864.13,-1492.77 4855.18,-1487.1 4858.64,-1497.12 4864.13,-1492.77"/>
</g>
<!-- u27 -->
<g id="node27" class="node">
<title>u27</title>
<ellipse fill="#ffbbff" stroke="black" cx="1113.65" cy="-1749" rx="217.96" ry="18"/>
<text text-anchor="middle" x="1113.65" y="-1745.3" font-family="Times,serif" font-size="14.00">Language.Drasil.Code.Imperative.ReadInput</text>
</g>
<!-- u47&#45;&gt;u27 -->
<g id="edge77" class="edge">
<title>u47&#45;&gt;u27</title>
<path fill="none" stroke="black" d="M1747.23,-3694.56C1452.78,-3643.92 396.65,-3441.85 396.65,-3149 396.65,-3149 396.65,-3149 396.65,-2307 396.65,-1983.9 856.33,-1821.11 1039.56,-1769.05"/>
<polygon fill="black" stroke="black" points="1040.7,-1772.37 1049.39,-1766.29 1038.81,-1765.63 1040.7,-1772.37"/>
</g>
<!-- u14 -->
<g id="node31" class="node">
<title>u14</title>
<ellipse fill="#ffbbff" stroke="black" cx="4528.65" cy="-3428" rx="217.16" ry="18"/>
<text text-anchor="middle" x="4528.65" y="-3424.3" font-family="Times,serif" font-size="14.00">Language.Drasil.Code.Imperative.Generator</text>
</g>
<!-- u47&#45;&gt;u14 -->
<g id="edge71" class="edge">
<title>u47&#45;&gt;u14</title>
<path fill="none" stroke="black" d="M1915.01,-3697.51C2315.55,-3656.36 3903.8,-3493.19 4387.87,-3443.46"/>
<polygon fill="black" stroke="black" points="4388.46,-3446.92 4398.05,-3442.42 4387.75,-3439.96 4388.46,-3446.92"/>
</g>
<!-- u23 -->
<g id="node47" class="node">
<title>u23</title>
<ellipse fill="#ff7777" stroke="black" cx="3747.65" cy="-3148" rx="352.84" ry="18"/>
<text text-anchor="middle" x="3747.65" y="-3144.3" font-family="Times,serif" font-size="14.00">Language.Drasil.Code.Imperative.GOOL.LanguageRenderer.CppRenderer</text>
</g>
<!-- u47&#45;&gt;u23 -->
<g id="edge76" class="edge">
<title>u47&#45;&gt;u23</title>
<path fill="none" stroke="black" d="M1874.63,-3691.93C2143.49,-3614 3375.4,-3256.9 3679.59,-3168.73"/>
<polygon fill="black" stroke="black" points="3680.96,-3171.97 3689.59,-3165.83 3679.02,-3165.25 3680.96,-3171.97"/>
</g>
<!-- u21 -->
<g id="node49" class="node">
<title>u21</title>
<ellipse fill="#ff7777" stroke="black" cx="791.65" cy="-3148" rx="367.43" ry="18"/>
<text text-anchor="middle" x="791.65" y="-3144.3" font-family="Times,serif" font-size="14.00">Language.Drasil.Code.Imperative.GOOL.LanguageRenderer.PythonRenderer</text>
</g>
<!-- u47&#45;&gt;u21 -->
<g id="edge75" class="edge">
<title>u47&#45;&gt;u21</title>
<path fill="none" stroke="black" d="M1792.35,-3690.6C1644.63,-3610.66 1000.28,-3261.92 831.98,-3170.83"/>
<polygon fill="black" stroke="black" points="833.41,-3167.62 822.95,-3165.94 830.08,-3173.78 833.41,-3167.62"/>
</g>
<!-- u20 -->
<g id="node50" class="node">
<title>u20</title>
<ellipse fill="#ff7777" stroke="black" cx="1530.65" cy="-3148" rx="354.44" ry="18"/>
<text text-anchor="middle" x="1530.65" y="-3144.3" font-family="Times,serif" font-size="14.00">Language.Drasil.Code.Imperative.GOOL.LanguageRenderer.JavaRenderer</text>
</g>
<!-- u47&#45;&gt;u20 -->
<g id="edge74" class="edge">
<title>u47&#45;&gt;u20</title>
<path fill="none" stroke="black" d="M1813.75,-3690C1771.98,-3610.18 1595.28,-3272.51 1544.4,-3175.29"/>
<polygon fill="black" stroke="black" points="1547.36,-3173.38 1539.62,-3166.15 1541.15,-3176.63 1547.36,-3173.38"/>
</g>
<!-- u19 -->
<g id="node51" class="node">
<title>u19</title>
<ellipse fill="#ff7777" stroke="black" cx="2271.65" cy="-3148" rx="369.33" ry="18"/>
<text text-anchor="middle" x="2271.65" y="-3144.3" font-family="Times,serif" font-size="14.00">Language.Drasil.Code.Imperative.GOOL.LanguageRenderer.CSharpRenderer</text>
</g>
<!-- u47&#45;&gt;u19 -->
<g id="edge73" class="edge">
<title>u47&#45;&gt;u19</title>
<path fill="none" stroke="black" d="M1836.33,-3690C1900.81,-3609.86 2174.46,-3269.78 2251.43,-3174.13"/>
<polygon fill="black" stroke="black" points="2254.31,-3176.13 2257.85,-3166.15 2248.85,-3171.74 2254.31,-3176.13"/>
</g>
<!-- u18 -->
<g id="node52" class="node">
<title>u18</title>
<ellipse fill="#ff7777" stroke="black" cx="3017.65" cy="-3148" rx="358.54" ry="18"/>
<text text-anchor="middle" x="3017.65" y="-3144.3" font-family="Times,serif" font-size="14.00">Language.Drasil.Code.Imperative.GOOL.LanguageRenderer.SwiftRenderer</text>
</g>
<!-- u47&#45;&gt;u18 -->
<g id="edge72" class="edge">
<title>u47&#45;&gt;u18</title>
<path fill="none" stroke="black" d="M1857.44,-3690.75C2028.36,-3610.94 2778.56,-3260.64 2972.01,-3170.31"/>
<polygon fill="black" stroke="black" points="2973.74,-3173.36 2981.32,-3165.96 2970.78,-3167.02 2973.74,-3173.36"/>
</g>
<!-- u39 -->
<g id="node16" class="node">
<title>u39</title>
<ellipse fill="#bbffff" stroke="black" cx="4056.65" cy="-1189" rx="139.98" ry="18"/>
<text text-anchor="middle" x="4056.65" y="-1185.3" font-family="Times,serif" font-size="14.00">Language.Drasil.Code.Code</text>
</g>
<!-- u42&#45;&gt;u39 -->
<g id="edge67" class="edge">
<title>u42&#45;&gt;u39</title>
<path fill="none" stroke="black" d="M4431.58,-1451.24C4363.12,-1403.54 4167.17,-1267.01 4089.21,-1212.69"/>
<polygon fill="black" stroke="black" points="4090.94,-1209.63 4080.74,-1206.79 4086.94,-1215.37 4090.94,-1209.63"/>
</g>
<!-- u40 -->
<g id="node55" class="node">
<title>u40</title>
<ellipse fill="#ff77ff" stroke="black" cx="5267.65" cy="-1189" rx="172.77" ry="18"/>
<text text-anchor="middle" x="5267.65" y="-1185.3" font-family="Times,serif" font-size="14.00">Language.Drasil.Data.ODELibPckg</text>
</g>
<!-- u42&#45;&gt;u40 -->
<g id="edge68" class="edge">
<title>u42&#45;&gt;u40</title>
<path fill="none" stroke="black" d="M4501.92,-1452.16C4641.35,-1404.42 5057.15,-1262.06 5210.24,-1209.65"/>
<polygon fill="black" stroke="black" points="5211.61,-1212.88 5219.94,-1206.33 5209.35,-1206.26 5211.61,-1212.88"/>
</g>
<!-- u1 -->
<g id="node11" class="node">
<title>u1</title>
<ellipse fill="#bbbbff" stroke="black" cx="5147.65" cy="-630" rx="110.48" ry="18"/>
<text text-anchor="middle" x="5147.65" y="-626.3" font-family="Times,serif" font-size="14.00">Language.Drasil.Mod</text>
</g>
<!-- u45 -->
<g id="node13" class="node">
<title>u45</title>
<ellipse fill="#ffbbbb" stroke="black" cx="4909.65" cy="-350" rx="170.87" ry="18"/>
<text text-anchor="middle" x="4909.65" y="-346.3" font-family="Times,serif" font-size="14.00">Language.Drasil.Chunk.Parameter</text>
</g>
<!-- u1&#45;&gt;u45 -->
<g id="edge3" class="edge">
<title>u1&#45;&gt;u45</title>
<path fill="none" stroke="black" d="M5133.12,-612.03C5092.62,-564.72 4978.34,-431.24 4930.8,-375.71"/>
<polygon fill="black" stroke="black" points="4933.45,-373.42 4924.29,-368.1 4928.13,-377.98 4933.45,-373.42"/>
</g>
<!-- u36 -->
<g id="node19" class="node">
<title>u36</title>
<ellipse fill="#bbffff" stroke="black" cx="3806.65" cy="-350" rx="160.57" ry="18"/>
<text text-anchor="middle" x="3806.65" y="-346.3" font-family="Times,serif" font-size="14.00">Language.Drasil.Code.DataDesc</text>
</g>
<!-- u1&#45;&gt;u36 -->
<g id="edge2" class="edge">
<title>u1&#45;&gt;u36</title>
<path fill="none" stroke="black" d="M5082.06,-615.4C4859.81,-569.33 4135.41,-419.16 3889.32,-368.14"/>
<polygon fill="black" stroke="black" points="3889.87,-364.68 3879.37,-366.08 3888.45,-371.53 3889.87,-364.68"/>
</g>
<!-- u46 -->
<g id="node12" class="node">
<title>u46</title>
<ellipse fill="#ffbbbb" stroke="black" cx="4591.65" cy="-70" rx="145.67" ry="18"/>
<text text-anchor="middle" x="4591.65" y="-66.3" font-family="Times,serif" font-size="14.00">Language.Drasil.Chunk.Code</text>
</g>
<!-- u45&#45;&gt;u46 -->
<g id="edge70" class="edge">
<title>u45&#45;&gt;u46</title>
<path fill="none" stroke="black" d="M4890.23,-332.03C4835.79,-284.43 4681.55,-149.59 4618.75,-94.69"/>
<polygon fill="black" stroke="black" points="4621.04,-92.05 4611.21,-88.1 4616.43,-97.32 4621.04,-92.05"/>
</g>
<!-- u41 -->
<g id="node54" class="node">
<title>u41</title>
<ellipse fill="#ff77ff" stroke="black" cx="4591.65" cy="-909" rx="154.07" ry="18"/>
<text text-anchor="middle" x="4591.65" y="-905.3" font-family="Times,serif" font-size="14.00">Language.Drasil.Data.ODEInfo</text>
</g>
<!-- u44&#45;&gt;u41 -->
<g id="edge69" class="edge">
<title>u44&#45;&gt;u41</title>
<path fill="none" stroke="black" d="M4867.7,-1171.03C4817.47,-1123.53 4675.34,-989.14 4617.06,-934.03"/>
<polygon fill="black" stroke="black" points="4619.4,-931.43 4609.73,-927.1 4614.59,-936.52 4619.4,-931.43"/>
</g>
<!-- u38 -->
<g id="node17" class="node">
<title>u38</title>
<ellipse fill="#bbffff" stroke="black" cx="5267.65" cy="-909" rx="207.96" ry="18"/>
<text text-anchor="middle" x="5267.65" y="-905.3" font-family="Times,serif" font-size="14.00">Language.Drasil.Code.ExternalLibraryCall</text>
</g>
<!-- u38&#45;&gt;u1 -->
<g id="edge61" class="edge">
<title>u38&#45;&gt;u1</title>
<path fill="none" stroke="black" d="M5260.14,-890.67C5239.76,-843.63 5183.31,-713.33 5159.01,-657.23"/>
<polygon fill="black" stroke="black" points="5162.18,-655.75 5155,-647.97 5155.76,-658.53 5162.18,-655.75"/>
</g>
<!-- u37 -->
<g id="node18" class="node">
<title>u37</title>
<ellipse fill="#bbffff" stroke="black" cx="5660.65" cy="-1189" rx="178.97" ry="18"/>
<text text-anchor="middle" x="5660.65" y="-1185.3" font-family="Times,serif" font-size="14.00">Language.Drasil.Code.ExtLibImport</text>
</g>
<!-- u37&#45;&gt;u38 -->
<g id="edge60" class="edge">
<title>u37&#45;&gt;u38</title>
<path fill="none" stroke="black" d="M5636.65,-1171.03C5569.1,-1123.24 5377.2,-987.49 5300.2,-933.03"/>
<polygon fill="black" stroke="black" points="5302.01,-930.02 5291.82,-927.1 5297.97,-935.74 5302.01,-930.02"/>
</g>
<!-- u2 -->
<g id="node23" class="node">
<title>u2</title>
<ellipse fill="#bbffff" stroke="black" cx="5683.65" cy="-909" rx="190.37" ry="18"/>
<text text-anchor="middle" x="5683.65" y="-905.3" font-family="Times,serif" font-size="14.00">Language.Drasil.Code.ExternalLibrary</text>
</g>
<!-- u37&#45;&gt;u2 -->
<g id="edge59" class="edge">
<title>u37&#45;&gt;u2</title>
<path fill="none" stroke="black" d="M5662.08,-1170.61C5665.97,-1123.6 5676.72,-993.7 5681.41,-937.03"/>
<polygon fill="black" stroke="black" points="5684.9,-937.28 5682.24,-927.03 5677.92,-936.71 5684.9,-937.28"/>
</g>
<!-- u36&#45;&gt;u46 -->
<g id="edge58" class="edge">
<title>u36&#45;&gt;u46</title>
<path fill="none" stroke="black" d="M3852.53,-332.75C3988.45,-284.61 4388.67,-142.88 4536.21,-90.63"/>
<polygon fill="black" stroke="black" points="4537.71,-93.81 4545.97,-87.18 4535.38,-87.21 4537.71,-93.81"/>
</g>
<!-- u35 -->
<g id="node20" class="node">
<title>u35</title>
<ellipse fill="#bbffff" stroke="black" cx="4309.65" cy="-3148" rx="191.17" ry="18"/>
<text text-anchor="middle" x="4309.65" y="-3144.3" font-family="Times,serif" font-size="14.00">Language.Drasil.Code.CodeGeneration</text>
</g>
<!-- u35&#45;&gt;u39 -->
<g id="edge57" class="edge">
<title>u35&#45;&gt;u39</title>
<path fill="none" stroke="black" d="M4266.9,-3130.45C4184.25,-3096.47 4001.22,-3011.36 3893.65,-2886 3642.9,-2593.79 3710.02,-2430.69 3677.65,-2047 3647.55,-1690.26 3949.26,-1313.56 4034.56,-1214.83"/>
<polygon fill="black" stroke="black" points="4037.3,-1217.01 4041.23,-1207.17 4032.02,-1212.42 4037.3,-1217.01"/>
</g>
<!-- u16 -->
<g id="node45" class="node">
<title>u16</title>
<ellipse fill="#7777ff" stroke="black" cx="2905.65" cy="-2868" rx="222.06" ry="18"/>
<text text-anchor="middle" x="2905.65" y="-2864.3" font-family="Times,serif" font-size="14.00">Language.Drasil.Code.Imperative.GOOL.Data</text>
</g>
<!-- u35&#45;&gt;u16 -->
<g id="edge56" class="edge">
<title>u35&#45;&gt;u16</title>
<path fill="none" stroke="black" d="M4231.66,-3131.56C3989.87,-3083.68 3253.65,-2937.91 2995.92,-2886.87"/>
<polygon fill="black" stroke="black" points="2996.33,-2883.39 2985.84,-2884.88 2994.97,-2890.26 2996.33,-2883.39"/>
</g>
<!-- u34 -->
<g id="node21" class="node">
<title>u34</title>
<ellipse fill="#bbffff" stroke="black" cx="4025.65" cy="-2308" rx="204.16" ry="18"/>
<text text-anchor="middle" x="4025.65" y="-2304.3" font-family="Times,serif" font-size="14.00">Language.Drasil.Code.CodeQuantityDicts</text>
</g>
<!-- u33 -->
<g id="node22" class="node">
<title>u33</title>
<ellipse fill="#bbffff" stroke="black" cx="4902.65" cy="-909" rx="139.18" ry="18"/>
<text text-anchor="middle" x="4902.65" y="-905.3" font-family="Times,serif" font-size="14.00">Language.Drasil.Code.Lang</text>
</g>
<!-- u2&#45;&gt;u1 -->
<g id="edge4" class="edge">
<title>u2&#45;&gt;u1</title>
<path fill="none" stroke="black" d="M5650.92,-891.09C5557.69,-842.91 5290.81,-704.99 5188.37,-652.05"/>
<polygon fill="black" stroke="black" points="5189.76,-648.82 5179.26,-647.34 5186.54,-655.04 5189.76,-648.82"/>
</g>
<!-- u32 -->
<g id="node24" class="node">
<title>u32</title>
<ellipse fill="#ffbbff" stroke="black" cx="5566.65" cy="-2868" rx="228.26" ry="18"/>
<text text-anchor="middle" x="5566.65" y="-2864.3" font-family="Times,serif" font-size="14.00">Language.Drasil.Code.Imperative.Descriptions</text>
</g>
<!-- u4 -->
<g id="node39" class="node">
<title>u4</title>
<ellipse fill="#ffbbff" stroke="black" cx="5061.65" cy="-2029" rx="222.06" ry="18"/>
<text text-anchor="middle" x="5061.65" y="-2025.3" font-family="Times,serif" font-size="14.00">Language.Drasil.Code.Imperative.DrasilState</text>
</g>
<!-- u32&#45;&gt;u4 -->
<g id="edge55" class="edge">
<title>u32&#45;&gt;u4</title>
<path fill="none" stroke="black" d="M5605.48,-2850.2C5755.48,-2783.03 6279.69,-2526.05 6095.65,-2290 5986.7,-2150.27 5462.45,-2074.12 5204.96,-2044.61"/>
<polygon fill="black" stroke="black" points="5205.12,-2041.1 5194.79,-2043.45 5204.33,-2048.06 5205.12,-2041.1"/>
</g>
<!-- u31 -->
<g id="node25" class="node">
<title>u31</title>
<ellipse fill="#ffbbff" stroke="black" cx="4670.65" cy="-1749" rx="237.46" ry="18"/>
<text text-anchor="middle" x="4670.65" y="-1745.3" font-family="Times,serif" font-size="14.00">Language.Drasil.Code.Imperative.ConceptMatch</text>
</g>
<!-- u31&#45;&gt;u42 -->
<g id="edge54" class="edge">
<title>u31&#45;&gt;u42</title>
<path fill="none" stroke="black" d="M4657.2,-1730.61C4620.38,-1683.01 4517.86,-1550.45 4474.94,-1494.95"/>
<polygon fill="black" stroke="black" points="4477.7,-1492.8 4468.81,-1487.03 4472.16,-1497.08 4477.7,-1492.8"/>
</g>
<!-- u29 -->
<g id="node26" class="node">
<title>u29</title>
<ellipse fill="#ffbbff" stroke="black" cx="4025.65" cy="-2588" rx="223.66" ry="18"/>
<text text-anchor="middle" x="4025.65" y="-2584.3" font-family="Times,serif" font-size="14.00">Language.Drasil.Code.Imperative.Parameters</text>
</g>
<!-- u29&#45;&gt;u34 -->
<g id="edge52" class="edge">
<title>u29&#45;&gt;u34</title>
<path fill="none" stroke="black" d="M4025.65,-2569.61C4025.65,-2522.6 4025.65,-2392.7 4025.65,-2336.03"/>
<polygon fill="black" stroke="black" points="4029.15,-2336.03 4025.65,-2326.03 4022.15,-2336.03 4029.15,-2336.03"/>
</g>
<!-- u29&#45;&gt;u4 -->
<g id="edge51" class="edge">
<title>u29&#45;&gt;u4</title>
<path fill="none" stroke="black" d="M3996.66,-2570.06C3921.11,-2523.83 3729.57,-2392.15 3812.65,-2290 3944.59,-2127.77 4561.4,-2063.41 4876.03,-2040.8"/>
<polygon fill="black" stroke="black" points="4876.45,-2044.28 4886.17,-2040.08 4875.95,-2037.3 4876.45,-2044.28"/>
</g>
<!-- u27&#45;&gt;u36 -->
<g id="edge49" class="edge">
<title>u27&#45;&gt;u36</title>
<path fill="none" stroke="black" d="M1144.38,-1731.1C1247.79,-1671.73 1576.65,-1461.59 1576.65,-1190 1576.65,-1190 1576.65,-1190 1576.65,-908 1576.65,-481.23 3133.4,-378.77 3645.5,-356.61"/>
<polygon fill="black" stroke="black" points="3645.72,-360.11 3655.56,-356.18 3645.42,-353.11 3645.72,-360.11"/>
</g>
<!-- u26 -->
<g id="node28" class="node">
<title>u26</title>
<ellipse fill="#ffbbff" stroke="black" cx="4760.65" cy="-2868" rx="233.16" ry="18"/>
<text text-anchor="middle" x="4760.65" y="-2864.3" font-family="Times,serif" font-size="14.00">Language.Drasil.Code.Imperative.FunctionCalls</text>
</g>
<!-- u26&#45;&gt;u29 -->
<g id="edge48" class="edge">
<title>u26&#45;&gt;u29</title>
<path fill="none" stroke="black" d="M4716.32,-2850.24C4588.42,-2801.86 4218.95,-2662.11 4079.65,-2609.43"/>
<polygon fill="black" stroke="black" points="4080.62,-2606.05 4070.03,-2605.79 4078.14,-2612.6 4080.62,-2606.05"/>
</g>
<!-- u12 -->
<g id="node33" class="node">
<title>u12</title>
<ellipse fill="#ffbbff" stroke="black" cx="4760.65" cy="-2588" rx="201.46" ry="18"/>
<text text-anchor="middle" x="4760.65" y="-2584.3" font-family="Times,serif" font-size="14.00">Language.Drasil.Code.Imperative.Import</text>
</g>
<!-- u26&#45;&gt;u12 -->
<g id="edge47" class="edge">
<title>u26&#45;&gt;u12</title>
<path fill="none" stroke="black" d="M4760.65,-2849.61C4760.65,-2802.6 4760.65,-2672.7 4760.65,-2616.03"/>
<polygon fill="black" stroke="black" points="4764.15,-2616.03 4760.65,-2606.03 4757.15,-2616.03 4764.15,-2616.03"/>
</g>
<!-- u25 -->
<g id="node29" class="node">
<title>u25</title>
<ellipse fill="#ffbbff" stroke="black" cx="4129.65" cy="-2868" rx="226.66" ry="18"/>
<text text-anchor="middle" x="4129.65" y="-2864.3" font-family="Times,serif" font-size="14.00">Language.Drasil.Code.Imperative.SpaceMatch</text>
</g>
<!-- u25&#45;&gt;u4 -->
<g id="edge46" class="edge">
<title>u25&#45;&gt;u4</title>
<path fill="none" stroke="black" d="M4089.05,-2850.25C4014.01,-2816.76 3855.51,-2733.63 3792.65,-2606 3730.59,-2480.01 3702.85,-2398.81 3791.65,-2290 3925.85,-2125.53 4551.86,-2062.27 4872,-2040.37"/>
<polygon fill="black" stroke="black" points="4872.58,-2043.84 4882.32,-2039.67 4872.11,-2036.85 4872.58,-2043.84"/>
</g>
<!-- u24 -->
<g id="node30" class="node">
<title>u24</title>
<ellipse fill="#ffbbff" stroke="black" cx="2851.65" cy="-2588" rx="233.16" ry="18"/>
<text text-anchor="middle" x="2851.65" y="-2584.3" font-family="Times,serif" font-size="14.00">Language.Drasil.Code.Imperative.WriteReadMe</text>
</g>
<!-- u15 -->
<g id="node46" class="node">
<title>u15</title>
<ellipse fill="#7777ff" stroke="black" cx="4461.65" cy="-2029" rx="267.25" ry="18"/>
<text text-anchor="middle" x="4461.65" y="-2025.3" font-family="Times,serif" font-size="14.00">Language.Drasil.Code.Imperative.GOOL.ClassInterface</text>
</g>
<!-- u24&#45;&gt;u15 -->
<g id="edge45" class="edge">
<title>u24&#45;&gt;u15</title>
<path fill="none" stroke="black" d="M2899.83,-2570.33C3133.59,-2489.46 4148.65,-2138.28 4403.46,-2050.13"/>
<polygon fill="black" stroke="black" points="4404.95,-2053.32 4413.26,-2046.74 4402.66,-2046.7 4404.95,-2053.32"/>
</g>
<!-- u14&#45;&gt;u35 -->
<g id="edge28" class="edge">
<title>u14&#45;&gt;u35</title>
<path fill="none" stroke="black" d="M4515.28,-3410.03C4478.09,-3362.82 4373.29,-3229.78 4329.38,-3174.05"/>
<polygon fill="black" stroke="black" points="4332.06,-3171.79 4323.12,-3166.1 4326.56,-3176.12 4332.06,-3171.79"/>
</g>
<!-- u14&#45;&gt;u25 -->
<g id="edge27" class="edge">
<title>u14&#45;&gt;u25</title>
<path fill="none" stroke="black" d="M4532.42,-3409.79C4541.99,-3361.77 4562.84,-3223.68 4509.65,-3130 4437.18,-3002.37 4273.55,-2923.67 4186.54,-2889.28"/>
<polygon fill="black" stroke="black" points="4187.68,-2885.97 4177.09,-2885.6 4185.14,-2892.49 4187.68,-2885.97"/>
</g>
<!-- u8 -->
<g id="node37" class="node">
<title>u8</title>
<ellipse fill="#ffbbff" stroke="black" cx="4765.65" cy="-3148" rx="209.06" ry="18"/>
<text text-anchor="middle" x="4765.65" y="-3144.3" font-family="Times,serif" font-size="14.00">Language.Drasil.Code.Imperative.Modules</text>
</g>
<!-- u14&#45;&gt;u8 -->
<g id="edge26" class="edge">
<title>u14&#45;&gt;u8</title>
<path fill="none" stroke="black" d="M4543.11,-3410.03C4583.36,-3362.82 4696.77,-3229.78 4744.29,-3174.05"/>
<polygon fill="black" stroke="black" points="4747.24,-3175.98 4751.06,-3166.1 4741.91,-3171.44 4747.24,-3175.98"/>
</g>
<!-- u3 -->
<g id="node40" class="node">
<title>u3</title>
<ellipse fill="#ffbbff" stroke="black" cx="5452.65" cy="-1469" rx="209.86" ry="18"/>
<text text-anchor="middle" x="5452.65" y="-1465.3" font-family="Times,serif" font-size="14.00">Language.Drasil.Code.Imperative.GenODE</text>
</g>
<!-- u14&#45;&gt;u3 -->
<g id="edge25" class="edge">
<title>u14&#45;&gt;u3</title>
<path fill="none" stroke="black" d="M4644.46,-3412.76C5015.82,-3363.9 6152.65,-3188.27 6152.65,-2869 6152.65,-2869 6152.65,-2869 6152.65,-2028 6152.65,-1708.45 5701.08,-1542.25 5523.32,-1489.2"/>
<polygon fill="black" stroke="black" points="5524.12,-1485.79 5513.54,-1486.32 5522.14,-1492.5 5524.12,-1485.79"/>
</g>
<!-- u13 -->
<g id="node32" class="node">
<title>u13</title>
<ellipse fill="#ffbbff" stroke="black" cx="5879.65" cy="-2308" rx="207.16" ry="18"/>
<text text-anchor="middle" x="5879.65" y="-2304.3" font-family="Times,serif" font-size="14.00">Language.Drasil.Code.Imperative.Logging</text>
</g>
<!-- u13&#45;&gt;u4 -->
<g id="edge24" class="edge">
<title>u13&#45;&gt;u4</title>
<path fill="none" stroke="black" d="M5830.93,-2290.5C5688.73,-2242.35 5274.6,-2102.11 5120.4,-2049.9"/>
<polygon fill="black" stroke="black" points="5121.22,-2046.48 5110.63,-2046.59 5118.97,-2053.11 5121.22,-2046.48"/>
</g>
<!-- u12&#45;&gt;u34 -->
<g id="edge23" class="edge">
<title>u12&#45;&gt;u34</title>
<path fill="none" stroke="black" d="M4716.6,-2570.34C4588.81,-2522.01 4218.27,-2381.86 4079.21,-2329.26"/>
<polygon fill="black" stroke="black" points="4080.2,-2325.89 4069.61,-2325.63 4077.72,-2332.44 4080.2,-2325.89"/>
</g>
<!-- u12&#45;&gt;u31 -->
<g id="edge22" class="edge">
<title>u12&#45;&gt;u31</title>
<path fill="none" stroke="black" d="M4761.27,-2569.92C4763.56,-2500.1 4769.73,-2229.84 4737.65,-2011 4724.87,-1923.86 4694.65,-1823.73 4679.55,-1776.85"/>
<polygon fill="black" stroke="black" points="4682.82,-1775.58 4676.4,-1767.15 4676.16,-1777.74 4682.82,-1775.58"/>
</g>
<!-- u12&#45;&gt;u13 -->
<g id="edge21" class="edge">
<title>u12&#45;&gt;u13</title>
<path fill="none" stroke="black" d="M4825.64,-2570.85C5020.35,-2522.48 5598.13,-2378.94 5804.96,-2327.56"/>
<polygon fill="black" stroke="black" points="5805.96,-2330.91 5814.82,-2325.11 5804.27,-2324.12 5805.96,-2330.91"/>
</g>
<!-- u11 -->
<g id="node34" class="node">
<title>u11</title>
<ellipse fill="#ffbbff" stroke="black" cx="5004.65" cy="-2308" rx="219.86" ry="18"/>
<text text-anchor="middle" x="5004.65" y="-2304.3" font-family="Times,serif" font-size="14.00">Language.Drasil.Code.Imperative.Comments</text>
</g>
<!-- u12&#45;&gt;u11 -->
<g id="edge20" class="edge">
<title>u12&#45;&gt;u11</title>
<path fill="none" stroke="black" d="M4775.54,-2570.03C4817.06,-2522.72 4934.22,-2389.24 4982.96,-2333.71"/>
<polygon fill="black" stroke="black" points="4985.67,-2335.93 4989.63,-2326.1 4980.41,-2331.31 4985.67,-2335.93"/>
</g>
<!-- u10 -->
<g id="node35" class="node">
<title>u10</title>
<ellipse fill="#ffbbff" stroke="black" cx="5448.65" cy="-2308" rx="206.06" ry="18"/>
<text text-anchor="middle" x="5448.65" y="-2304.3" font-family="Times,serif" font-size="14.00">Language.Drasil.Code.Imperative.Helpers</text>
</g>
<!-- u12&#45;&gt;u10 -->
<g id="edge19" class="edge">
<title>u12&#45;&gt;u10</title>
<path fill="none" stroke="black" d="M4801.88,-2570.34C4921.23,-2522.11 5266.82,-2382.47 5397.65,-2329.61"/>
<polygon fill="black" stroke="black" points="5399.1,-2332.8 5407.06,-2325.8 5396.48,-2326.31 5399.1,-2332.8"/>
</g>
<!-- u5 -->
<g id="node38" class="node">
<title>u5</title>
<ellipse fill="#ffbbff" stroke="black" cx="4488.65" cy="-2308" rx="240.46" ry="18"/>
<text text-anchor="middle" x="4488.65" y="-2304.3" font-family="Times,serif" font-size="14.00">Language.Drasil.Code.Imperative.GenerateGOOL</text>
</g>
<!-- u12&#45;&gt;u5 -->
<g id="edge18" class="edge">
<title>u12&#45;&gt;u5</title>
<path fill="none" stroke="black" d="M4744.04,-2570.03C4697.66,-2522.63 4566.62,-2388.69 4512.49,-2333.37"/>
<polygon fill="black" stroke="black" points="4514.87,-2330.8 4505.38,-2326.1 4509.87,-2335.7 4514.87,-2330.8"/>
</g>
<!-- u11&#45;&gt;u4 -->
<g id="edge17" class="edge">
<title>u11&#45;&gt;u4</title>
<path fill="none" stroke="black" d="M5008.21,-2289.67C5017.83,-2242.94 5044.36,-2114.02 5056.02,-2057.34"/>
<polygon fill="black" stroke="black" points="5059.49,-2057.82 5058.08,-2047.32 5052.64,-2056.41 5059.49,-2057.82"/>
</g>
<!-- u10&#45;&gt;u4 -->
<g id="edge16" class="edge">
<title>u10&#45;&gt;u4</title>
<path fill="none" stroke="black" d="M5425.02,-2290.09C5358.49,-2242.47 5169.52,-2107.21 5093.7,-2052.95"/>
<polygon fill="black" stroke="black" points="5095.62,-2050.02 5085.45,-2047.04 5091.55,-2055.71 5095.62,-2050.02"/>
</g>
<!-- u9 -->
<g id="node36" class="node">
<title>u9</title>
<ellipse fill="#ffbbff" stroke="black" cx="3210.65" cy="-630" rx="219.86" ry="18"/>
<text text-anchor="middle" x="3210.65" y="-626.3" font-family="Times,serif" font-size="14.00">Language.Drasil.Code.Imperative.WriteInput</text>
</g>
<!-- u9&#45;&gt;u36 -->
<g id="edge15" class="edge">
<title>u9&#45;&gt;u36</title>
<path fill="none" stroke="black" d="M3246.59,-612.24C3350.01,-563.99 3648.21,-424.9 3761.89,-371.87"/>
<polygon fill="black" stroke="black" points="3763.45,-375.01 3771.04,-367.61 3760.49,-368.67 3763.45,-375.01"/>
</g>
<!-- u8&#45;&gt;u32 -->
<g id="edge14" class="edge">
<title>u8&#45;&gt;u32</title>
<path fill="none" stroke="black" d="M4813.35,-3130.44C4952.59,-3082.12 5358.12,-2941.37 5509.11,-2888.97"/>
<polygon fill="black" stroke="black" points="5510.38,-2892.23 5518.68,-2885.65 5508.09,-2885.62 5510.38,-2892.23"/>
</g>
<!-- u8&#45;&gt;u26 -->
<g id="edge13" class="edge">
<title>u8&#45;&gt;u26</title>
<path fill="none" stroke="black" d="M4765.33,-3129.61C4764.49,-3082.6 4762.15,-2952.7 4761.13,-2896.03"/>
<polygon fill="black" stroke="black" points="4764.63,-2895.96 4760.95,-2886.03 4757.63,-2896.09 4764.63,-2895.96"/>
</g>
<!-- u5&#45;&gt;u4 -->
<g id="edge10" class="edge">
<title>u5&#45;&gt;u4</title>
<path fill="none" stroke="black" d="M4523.63,-2290.09C4623.14,-2241.98 4907.72,-2104.41 5017.6,-2051.29"/>
<polygon fill="black" stroke="black" points="5019.28,-2054.37 5026.76,-2046.86 5016.23,-2048.07 5019.28,-2054.37"/>
</g>
<!-- u5&#45;&gt;u15 -->
<g id="edge11" class="edge">
<title>u5&#45;&gt;u15</title>
<path fill="none" stroke="black" d="M4486.96,-2289.67C4482.4,-2242.94 4469.83,-2114.02 4464.31,-2057.34"/>
<polygon fill="black" stroke="black" points="4467.79,-2056.93 4463.33,-2047.32 4460.82,-2057.61 4467.79,-2056.93"/>
</g>
<!-- u4&#45;&gt;u48 -->
<g id="edge9" class="edge">
<title>u4&#45;&gt;u48</title>
<path fill="none" stroke="black" d="M5061.65,-2010.61C5061.65,-1963.6 5061.65,-1833.7 5061.65,-1777.03"/>
<polygon fill="black" stroke="black" points="5065.15,-1777.03 5061.65,-1767.03 5058.15,-1777.03 5065.15,-1777.03"/>
</g>
<!-- u4&#45;&gt;u37 -->
<g id="edge8" class="edge">
<title>u4&#45;&gt;u37</title>
<path fill="none" stroke="black" d="M5095.87,-2011.21C5205.41,-1955.25 5547.54,-1762.95 5671.65,-1487 5712.91,-1395.24 5684.93,-1270.95 5669.25,-1216.92"/>
<polygon fill="black" stroke="black" points="5672.53,-1215.66 5666.3,-1207.09 5665.82,-1217.67 5672.53,-1215.66"/>
</g>
<!-- u3&#45;&gt;u44 -->
<g id="edge7" class="edge">
<title>u3&#45;&gt;u44</title>
<path fill="none" stroke="black" d="M5418.45,-1451.24C5320.28,-1403.1 5037.61,-1264.51 4928.93,-1211.22"/>
<polygon fill="black" stroke="black" points="4930.4,-1208.05 4919.88,-1206.79 4927.32,-1214.33 4930.4,-1208.05"/>
</g>
<!-- u3&#45;&gt;u37 -->
<g id="edge5" class="edge">
<title>u3&#45;&gt;u37</title>
<path fill="none" stroke="black" d="M5465.34,-1451.03C5500.59,-1403.92 5599.79,-1271.33 5641.64,-1215.4"/>
<polygon fill="black" stroke="black" points="5644.66,-1217.21 5647.85,-1207.1 5639.06,-1213.01 5644.66,-1217.21"/>
</g>
<!-- u3&#45;&gt;u40 -->
<g id="edge6" class="edge">
<title>u3&#45;&gt;u40</title>
<path fill="none" stroke="black" d="M5441.07,-1450.61C5409.53,-1403.2 5321.91,-1271.54 5284.7,-1215.63"/>
<polygon fill="black" stroke="black" points="5287.43,-1213.41 5278.98,-1207.03 5281.6,-1217.29 5287.43,-1213.41"/>
</g>
<!-- u7 -->
<g id="node41" class="node">
<title>u7</title>
<ellipse fill="#77ff77" stroke="black" cx="2333.65" cy="-2308" rx="215.56" ry="18"/>
<text text-anchor="middle" x="2333.65" y="-2304.3" font-family="Times,serif" font-size="14.00">Language.Drasil.Code.Imperative.Build.AST</text>
</g>
<!-- u6 -->
<g id="node42" class="node">
<title>u6</title>
<ellipse fill="#77ff77" stroke="black" cx="2333.65" cy="-2588" rx="228.56" ry="18"/>
<text text-anchor="middle" x="2333.65" y="-2584.3" font-family="Times,serif" font-size="14.00">Language.Drasil.Code.Imperative.Build.Import</text>
</g>
<!-- u6&#45;&gt;u7 -->
<g id="edge12" class="edge">
<title>u6&#45;&gt;u7</title>
<path fill="none" stroke="black" d="M2333.65,-2569.61C2333.65,-2522.6 2333.65,-2392.7 2333.65,-2336.03"/>
<polygon fill="black" stroke="black" points="2337.15,-2336.03 2333.65,-2326.03 2330.15,-2336.03 2337.15,-2336.03"/>
</g>
<!-- u30 -->
<g id="node43" class="node">
<title>u30</title>
<ellipse fill="#ffff77" stroke="black" cx="3931.65" cy="-2029" rx="245.06" ry="18"/>
<text text-anchor="middle" x="3931.65" y="-2025.3" font-family="Times,serif" font-size="14.00">Language.Drasil.Code.Imperative.Doxygen.Import</text>
</g>
<!-- u30&#45;&gt;u42 -->
<g id="edge53" class="edge">
<title>u30&#45;&gt;u42</title>
<path fill="none" stroke="black" d="M3947.61,-2011C4023.1,-1930.61 4344.22,-1588.66 4432.89,-1494.24"/>
<polygon fill="black" stroke="black" points="4435.51,-1496.56 4439.8,-1486.87 4430.4,-1491.77 4435.51,-1496.56"/>
</g>
<!-- u17 -->
<g id="node44" class="node">
<title>u17</title>
<ellipse fill="#7777ff" stroke="black" cx="3392.65" cy="-2588" rx="289.45" ry="18"/>
<text text-anchor="middle" x="3392.65" y="-2584.3" font-family="Times,serif" font-size="14.00">Language.Drasil.Code.Imperative.GOOL.LanguageRenderer</text>
</g>
<!-- u15&#45;&gt;u42 -->
<g id="edge29" class="edge">
<title>u15&#45;&gt;u42</title>
<path fill="none" stroke="black" d="M4458.38,-2010.99C4450.62,-1969.49 4431.18,-1859.67 4424.65,-1767 4417.61,-1667.3 4438.75,-1549.33 4449.62,-1497.15"/>
<polygon fill="black" stroke="black" points="4453.11,-1497.55 4451.77,-1487.04 4446.27,-1496.09 4453.11,-1497.55"/>
</g>
<!-- u23&#45;&gt;u16 -->
<g id="edge43" class="edge">
<title>u23&#45;&gt;u16</title>
<path fill="none" stroke="black" d="M3696.56,-3130.13C3549.11,-3081.45 3123.31,-2940.87 2965.46,-2888.75"/>
<polygon fill="black" stroke="black" points="2966.49,-2885.4 2955.9,-2885.59 2964.3,-2892.05 2966.49,-2885.4"/>
</g>
<!-- u22 -->
<g id="node48" class="node">
<title>u22</title>
<ellipse fill="#ff7777" stroke="black" cx="2271.65" cy="-2868" rx="393.73" ry="18"/>
<text text-anchor="middle" x="2271.65" y="-2864.3" font-family="Times,serif" font-size="14.00">Language.Drasil.Code.Imperative.GOOL.LanguageRenderer.LanguagePolymorphic</text>
</g>
<!-- u23&#45;&gt;u22 -->
<g id="edge44" class="edge">
<title>u23&#45;&gt;u22</title>
<path fill="none" stroke="black" d="M3660.28,-3130.55C3401.67,-3081.84 2641.17,-2938.6 2369.5,-2887.43"/>
<polygon fill="black" stroke="black" points="2370.13,-2883.99 2359.66,-2885.58 2368.83,-2890.87 2370.13,-2883.99"/>
</g>
<!-- u22&#45;&gt;u24 -->
<g id="edge41" class="edge">
<title>u22&#45;&gt;u24</title>
<path fill="none" stroke="black" d="M2307.05,-2850.03C2407.79,-2801.75 2695.84,-2663.68 2807.07,-2610.37"/>
<polygon fill="black" stroke="black" points="2808.83,-2613.4 2816.33,-2605.93 2805.8,-2607.09 2808.83,-2613.4"/>
</g>
<!-- u22&#45;&gt;u9 -->
<g id="edge39" class="edge">
<title>u22&#45;&gt;u9</title>
<path fill="none" stroke="black" d="M2255.13,-2849.85C2218.5,-2810.56 2130.92,-2709.46 2095.65,-2606 2052.96,-2480.81 2076.65,-2441.27 2076.65,-2309 2076.65,-2309 2076.65,-2309 2076.65,-1188 2076.65,-774.71 2690.97,-668.06 3015.31,-640.55"/>
<polygon fill="black" stroke="black" points="3015.62,-644.04 3025.29,-639.72 3015.04,-637.06 3015.62,-644.04"/>
</g>
<!-- u22&#45;&gt;u6 -->
<g id="edge38" class="edge">
<title>u22&#45;&gt;u6</title>
<path fill="none" stroke="black" d="M2275.52,-2849.61C2286.01,-2802.6 2314.98,-2672.7 2327.62,-2616.03"/>
<polygon fill="black" stroke="black" points="2331.09,-2616.55 2329.85,-2606.03 2324.25,-2615.03 2331.09,-2616.55"/>
</g>
<!-- u22&#45;&gt;u30 -->
<g id="edge42" class="edge">
<title>u22&#45;&gt;u30</title>
<path fill="none" stroke="black" d="M2291.91,-2849.88C2340.67,-2808.59 2468.14,-2699.97 2571.65,-2606 2588.87,-2590.36 2590.1,-2582.61 2609.65,-2570 3045.95,-2288.44 3653.23,-2106.14 3859.67,-2049.15"/>
<polygon fill="black" stroke="black" points="3860.78,-2052.47 3869.49,-2046.45 3858.92,-2045.72 3860.78,-2052.47"/>
</g>
<!-- u22&#45;&gt;u17 -->
<g id="edge40" class="edge">
<title>u22&#45;&gt;u17</title>
<path fill="none" stroke="black" d="M2339.24,-2850.24C2536.13,-2801.41 3108.33,-2659.51 3316.11,-2607.98"/>
<polygon fill="black" stroke="black" points="3317.16,-2611.33 3326.02,-2605.52 3315.47,-2604.53 3317.16,-2611.33"/>
</g>
<!-- u21&#45;&gt;u16 -->
<g id="edge36" class="edge">
<title>u21&#45;&gt;u16</title>
<path fill="none" stroke="black" d="M913.28,-3131C1286.45,-3081.93 2412.28,-2933.88 2784.63,-2884.91"/>
<polygon fill="black" stroke="black" points="2785.16,-2888.37 2794.62,-2883.6 2784.25,-2881.43 2785.16,-2888.37"/>
</g>
<!-- u21&#45;&gt;u22 -->
<g id="edge37" class="edge">
<title>u21&#45;&gt;u22</title>
<path fill="none" stroke="black" d="M879.52,-3130.49C1139.11,-3081.73 1901.31,-2938.56 2173.58,-2887.42"/>
<polygon fill="black" stroke="black" points="2174.26,-2890.85 2183.44,-2885.57 2172.97,-2883.97 2174.26,-2890.85"/>
</g>
<!-- u20&#45;&gt;u16 -->
<g id="edge34" class="edge">
<title>u20&#45;&gt;u16</title>
<path fill="none" stroke="black" d="M1612.54,-3130.44C1854.75,-3081.47 2566.36,-2937.6 2817.03,-2886.92"/>
<polygon fill="black" stroke="black" points="2818.08,-2890.28 2827.18,-2884.86 2816.69,-2883.41 2818.08,-2890.28"/>
</g>
<!-- u20&#45;&gt;u22 -->
<g id="edge35" class="edge">
<title>u20&#45;&gt;u22</title>
<path fill="none" stroke="black" d="M1575.61,-3130.13C1704.67,-3081.71 2076.09,-2942.37 2216.76,-2889.59"/>
<polygon fill="black" stroke="black" points="2218.35,-2892.73 2226.48,-2885.94 2215.89,-2886.18 2218.35,-2892.73"/>
</g>
<!-- u19&#45;&gt;u16 -->
<g id="edge32" class="edge">
<title>u19&#45;&gt;u16</title>
<path fill="none" stroke="black" d="M2310.35,-3130.03C2420.81,-3081.59 2737.35,-2942.8 2858.08,-2889.86"/>
<polygon fill="black" stroke="black" points="2859.69,-2892.97 2867.45,-2885.75 2856.88,-2886.56 2859.69,-2892.97"/>
</g>
<!-- u19&#45;&gt;u22 -->
<g id="edge33" class="edge">
<title>u19&#45;&gt;u22</title>
<path fill="none" stroke="black" d="M2271.65,-3129.61C2271.65,-3082.6 2271.65,-2952.7 2271.65,-2896.03"/>
<polygon fill="black" stroke="black" points="2275.15,-2896.03 2271.65,-2886.03 2268.15,-2896.03 2275.15,-2896.03"/>
</g>
<!-- u18&#45;&gt;u16 -->
<g id="edge30" class="edge">
<title>u18&#45;&gt;u16</title>
<path fill="none" stroke="black" d="M3010.64,-3129.61C2991.62,-3082.4 2938.93,-2951.62 2916.25,-2895.33"/>
<polygon fill="black" stroke="black" points="2919.49,-2894 2912.51,-2886.03 2913,-2896.61 2919.49,-2894"/>
</g>
<!-- u18&#45;&gt;u22 -->
<g id="edge31" class="edge">
<title>u18&#45;&gt;u22</title>
<path fill="none" stroke="black" d="M2972.38,-3130.13C2842.44,-3081.71 2468.52,-2942.37 2326.9,-2889.59"/>
<polygon fill="black" stroke="black" points="2327.71,-2886.16 2317.11,-2885.94 2325.26,-2892.72 2327.71,-2886.16"/>
</g>
<!-- u28 -->
<g id="node53" class="node">
<title>u28</title>
<ellipse fill="#77ffff" stroke="black" cx="3413.65" cy="-2868" rx="267.55" ry="18"/>
<text text-anchor="middle" x="3413.65" y="-2864.3" font-family="Times,serif" font-size="14.00">Language.Drasil.Code.Imperative.Parsers.ConfigParser</text>
</g>
<!-- u28&#45;&gt;u17 -->
<g id="edge50" class="edge">
<title>u28&#45;&gt;u17</title>
<path fill="none" stroke="black" d="M3412.33,-2849.61C3408.78,-2802.6 3398.97,-2672.7 3394.69,-2616.03"/>
<polygon fill="black" stroke="black" points="3398.18,-2615.74 3393.93,-2606.03 3391.19,-2616.26 3398.18,-2615.74"/>
</g>
<!-- u41&#45;&gt;u46 -->
<g id="edge66" class="edge">
<title>u41&#45;&gt;u46</title>
<path fill="none" stroke="black" d="M4591.65,-890.9C4591.65,-785.92 4591.65,-228.88 4591.65,-98.37"/>
<polygon fill="black" stroke="black" points="4595.15,-98.07 4591.65,-88.07 4588.15,-98.07 4595.15,-98.07"/>
</g>
<!-- u40&#45;&gt;u38 -->
<g id="edge64" class="edge">
<title>u40&#45;&gt;u38</title>
<path fill="none" stroke="black" d="M5267.65,-1170.61C5267.65,-1123.6 5267.65,-993.7 5267.65,-937.03"/>
<polygon fill="black" stroke="black" points="5271.15,-937.03 5267.65,-927.03 5264.15,-937.03 5271.15,-937.03"/>
</g>
<!-- u40&#45;&gt;u33 -->
<g id="edge63" class="edge">
<title>u40&#45;&gt;u33</title>
<path fill="none" stroke="black" d="M5245.36,-1171.03C5182.75,-1123.34 5005.11,-988.04 4933.32,-933.36"/>
<polygon fill="black" stroke="black" points="4935.18,-930.38 4925.1,-927.1 4930.94,-935.95 4935.18,-930.38"/>
</g>
<!-- u40&#45;&gt;u2 -->
<g id="edge62" class="edge">
<title>u40&#45;&gt;u2</title>
<path fill="none" stroke="black" d="M5293.04,-1171.03C5364.78,-1123.09 5568.99,-986.62 5649.97,-932.5"/>
<polygon fill="black" stroke="black" points="5651.95,-935.39 5658.32,-926.93 5648.06,-929.57 5651.95,-935.39"/>
</g>
<!-- u40&#45;&gt;u41 -->
<g id="edge65" class="edge">
<title>u40&#45;&gt;u41</title>
<path fill="none" stroke="black" d="M5227.38,-1171.44C5110.2,-1123.25 4769.55,-983.16 4641.28,-930.41"/>
<polygon fill="black" stroke="black" points="4642.28,-927.04 4631.7,-926.47 4639.61,-933.51 4642.28,-927.04"/>
</g>
</g>
</svg>
