<?xml version="1.0" encoding="UTF-8" standalone="no"?>
<!DOCTYPE svg PUBLIC "-//W3C//DTD SVG 1.1//EN"
 "http://www.w3.org/Graphics/SVG/1.1/DTD/svg11.dtd">
<!-- Generated by graphviz version 2.43.0 (0)
 -->
<!-- Title: G Pages: 1 -->
<svg width="431pt" height="288pt"
 viewBox="0.00 0.00 430.58 288.00" xmlns="http://www.w3.org/2000/svg" xmlns:xlink="http://www.w3.org/1999/xlink">
<g id="graph0" class="graph" transform="scale(0.38 0.38) rotate(0) translate(4 762.67)">
<title>G</title>
<polygon fill="white" stroke="transparent" points="-4,4 -4,-762.67 1142.23,-762.67 1142.23,4 -4,4"/>
<!-- u6 -->
<g id="node1" class="node">
<title>u6</title>
<ellipse fill="#bbffbb" stroke="black" cx="575.49" cy="-683" rx="63.89" ry="18"/>
<text text-anchor="middle" x="575.49" y="-679.3" font-family="Times,serif" font-size="14.00">Utils.Drasil</text>
</g>
<!-- u5 -->
<g id="node2" class="node">
<title>u5</title>
<ellipse fill="#ffffbb" stroke="black" cx="110.49" cy="-379" rx="110.48" ry="18"/>
<text text-anchor="middle" x="110.49" y="-375.3" font-family="Times,serif" font-size="14.00">Utils.Drasil.Directory</text>
</g>
<!-- u6&#45;&gt;u5 -->
<g id="edge6" class="edge">
<title>u6&#45;&gt;u5</title>
<path fill="none" stroke="black" d="M551.14,-666.19C473.83,-615.98 233.74,-460.05 144.42,-402.03"/>
<polygon fill="black" stroke="black" points="146.3,-399.08 136.01,-396.57 142.49,-404.95 146.3,-399.08"/>
</g>
<!-- u3 -->
<g id="node4" class="node">
<title>u3</title>
<ellipse fill="#ffffbb" stroke="black" cx="341.49" cy="-379" rx="102.08" ry="18"/>
<text text-anchor="middle" x="341.49" y="-375.3" font-family="Times,serif" font-size="14.00">Utils.Drasil.English</text>
</g>
<!-- u6&#45;&gt;u3 -->
<g id="edge5" class="edge">
<title>u6&#45;&gt;u3</title>
<path fill="none" stroke="black" d="M562.58,-665.33C523.67,-615.13 407.43,-465.11 360.98,-405.16"/>
<polygon fill="black" stroke="black" points="363.54,-402.75 354.65,-396.99 358.01,-407.04 363.54,-402.75"/>
</g>
<!-- u2 -->
<g id="node5" class="node">
<title>u2</title>
<ellipse fill="#ffffbb" stroke="black" cx="575.49" cy="-379" rx="114.28" ry="18"/>
<text text-anchor="middle" x="575.49" y="-375.3" font-family="Times,serif" font-size="14.00">Utils.Drasil.Document</text>
</g>
<!-- u6&#45;&gt;u2 -->
<g id="edge4" class="edge">
<title>u6&#45;&gt;u2</title>
<path fill="none" stroke="black" d="M575.49,-664.9C575.49,-614.87 575.49,-468.5 575.49,-407.34"/>
<polygon fill="black" stroke="black" points="578.99,-407.29 575.49,-397.29 571.99,-407.29 578.99,-407.29"/>
</g>
<!-- u1 -->
<g id="node6" class="node">
<title>u1</title>
<ellipse fill="#ffffbb" stroke="black" cx="813.49" cy="-379" rx="105.08" ry="18"/>
<text text-anchor="middle" x="813.49" y="-375.3" font-family="Times,serif" font-size="14.00">Utils.Drasil.FilePath</text>
</g>
<!-- u6&#45;&gt;u1 -->
<g id="edge3" class="edge">
<title>u6&#45;&gt;u1</title>
<path fill="none" stroke="black" d="M588.63,-665.33C628.19,-615.13 746.42,-465.11 793.66,-405.16"/>
<polygon fill="black" stroke="black" points="796.66,-407.01 800.1,-396.99 791.16,-402.68 796.66,-407.01"/>
</g>
<!-- u0 -->
<g id="node7" class="node">
<title>u0</title>
<ellipse fill="#ffffbb" stroke="black" cx="1037.49" cy="-379" rx="100.98" ry="18"/>
<text text-anchor="middle" x="1037.49" y="-375.3" font-family="Times,serif" font-size="14.00">Utils.Drasil.Strings</text>
</g>
<!-- u6&#45;&gt;u0 -->
<g id="edge2" class="edge">
<title>u6&#45;&gt;u0</title>
<path fill="none" stroke="black" d="M599.68,-666.19C676.41,-616.03 914.55,-460.36 1003.51,-402.21"/>
<polygon fill="black" stroke="black" points="1005.68,-404.97 1012.14,-396.57 1001.85,-399.11 1005.68,-404.97"/>
</g>
<!-- u4 -->
<g id="node3" class="node">
<title>u4</title>
<ellipse fill="#ffffbb" stroke="black" cx="1037.49" cy="-76" rx="89.08" ry="18"/>
<text text-anchor="middle" x="1037.49" y="-72.3" font-family="Times,serif" font-size="14.00">Utils.Drasil.Lists</text>
</g>
<!-- u0&#45;&gt;u4 -->
<g id="edge1" class="edge">
<title>u0&#45;&gt;u4</title>
<path fill="none" stroke="black" d="M1037.49,-360.95C1037.49,-311.09 1037.49,-165.2 1037.49,-104.25"/>
<polygon fill="black" stroke="black" points="1040.99,-104.23 1037.49,-94.23 1033.99,-104.23 1040.99,-104.23"/>
</g>
</g>
</svg>
