<?xml version="1.0" encoding="UTF-8" standalone="no"?>
<!DOCTYPE svg PUBLIC "-//W3C//DTD SVG 1.1//EN"
 "http://www.w3.org/Graphics/SVG/1.1/DTD/svg11.dtd">
<!-- Generated by graphviz version 2.43.0 (0)
 -->
<!-- Title: G Pages: 1 -->
<svg width="432pt" height="287pt"
 viewBox="0.00 0.00 432.00 286.68" xmlns="http://www.w3.org/2000/svg" xmlns:xlink="http://www.w3.org/1999/xlink">
<g id="graph0" class="graph" transform="scale(12.36 12.36) rotate(0) translate(4 3540)">
<title>G</title>
<polygon fill="white" stroke="transparent" points="-4,4 -4,-3540 5336.39,-3540 5336.39,4 -4,4"/>
<!-- u54 -->
<g id="node1" class="node">
<title>u54</title>
<ellipse fill="#bbffbb" stroke="black" cx="275.39" cy="-3475" rx="34.39" ry="18"/>
<text text-anchor="middle" x="275.39" y="-3471.3" font-family="Times,serif" font-size="14.00">Main</text>
</g>
<!-- u53 -->
<g id="node2" class="node">
<title>u53</title>
<ellipse fill="#bbffbb" stroke="black" cx="343.39" cy="-3231" rx="52.79" ry="18"/>
<text text-anchor="middle" x="343.39" y="-3227.3" font-family="Times,serif" font-size="14.00">FileTests</text>
</g>
<!-- u54&#45;&gt;u53 -->
<g id="edge86" class="edge">
<title>u54&#45;&gt;u53</title>
<path fill="none" stroke="black" d="M280.18,-3456.98C291.83,-3415.5 321.79,-3308.9 335.87,-3258.79"/>
<polygon fill="black" stroke="black" points="339.28,-3259.57 338.62,-3249 332.54,-3257.68 339.28,-3259.57"/>
</g>
<!-- u52 -->
<g id="node3" class="node">
<title>u52</title>
<ellipse fill="#bbffbb" stroke="black" cx="62.39" cy="-3231" rx="62.29" ry="18"/>
<text text-anchor="middle" x="62.39" y="-3227.3" font-family="Times,serif" font-size="14.00">HelloWorld</text>
</g>
<!-- u54&#45;&gt;u52 -->
<g id="edge85" class="edge">
<title>u54&#45;&gt;u52</title>
<path fill="none" stroke="black" d="M261.42,-3458.12C225.04,-3416.78 127.19,-3305.62 83.72,-3256.23"/>
<polygon fill="black" stroke="black" points="86.22,-3253.77 76.98,-3248.57 80.96,-3258.39 86.22,-3253.77"/>
</g>
<!-- u51 -->
<g id="node4" class="node">
<title>u51</title>
<ellipse fill="#bbffbb" stroke="black" cx="207.39" cy="-3231" rx="64.99" ry="18"/>
<text text-anchor="middle" x="207.39" y="-3227.3" font-family="Times,serif" font-size="14.00">PatternTest</text>
</g>
<!-- u54&#45;&gt;u51 -->
<g id="edge84" class="edge">
<title>u54&#45;&gt;u51</title>
<path fill="none" stroke="black" d="M270.61,-3456.98C258.96,-3415.5 229,-3308.9 214.92,-3258.79"/>
<polygon fill="black" stroke="black" points="218.25,-3257.68 212.17,-3249 211.51,-3259.57 218.25,-3257.68"/>
</g>
<!-- u5 -->
<g id="node11" class="node">
<title>u5</title>
<ellipse fill="#bbbbff" stroke="black" cx="1681.39" cy="-3231" rx="113.18" ry="18"/>
<text text-anchor="middle" x="1681.39" y="-3227.3" font-family="Times,serif" font-size="14.00">Language.Drasil.Code</text>
</g>
<!-- u54&#45;&gt;u5 -->
<g id="edge83" class="edge">
<title>u54&#45;&gt;u5</title>
<path fill="none" stroke="black" d="M307.74,-3468.43C483.55,-3438.17 1326.25,-3293.13 1597.26,-3246.48"/>
<polygon fill="black" stroke="black" points="1598.16,-3249.88 1607.42,-3244.73 1596.97,-3242.98 1598.16,-3249.88"/>
</g>
<!-- u50 -->
<g id="node5" class="node">
<title>u50</title>
<ellipse fill="#bbffbb" stroke="black" cx="62.39" cy="-2987" rx="42.49" ry="18"/>
<text text-anchor="middle" x="62.39" y="-2983.3" font-family="Times,serif" font-size="14.00">Helper</text>
</g>
<!-- u52&#45;&gt;u50 -->
<g id="edge82" class="edge">
<title>u52&#45;&gt;u50</title>
<path fill="none" stroke="black" d="M62.39,-3212.98C62.39,-3171.69 62.39,-3065.86 62.39,-3015.47"/>
<polygon fill="black" stroke="black" points="65.89,-3015.32 62.39,-3005.32 58.89,-3015.32 65.89,-3015.32"/>
</g>
<!-- u49 -->
<g id="node6" class="node">
<title>u49</title>
<ellipse fill="#bbffbb" stroke="black" cx="191.39" cy="-2987" rx="53.89" ry="18"/>
<text text-anchor="middle" x="191.39" y="-2983.3" font-family="Times,serif" font-size="14.00">Observer</text>
</g>
<!-- u51&#45;&gt;u49 -->
<g id="edge81" class="edge">
<title>u51&#45;&gt;u49</title>
<path fill="none" stroke="black" d="M206.27,-3212.98C203.53,-3171.59 196.51,-3065.35 193.19,-3015.11"/>
<polygon fill="black" stroke="black" points="196.67,-3014.75 192.52,-3005 189.69,-3015.21 196.67,-3014.75"/>
</g>
<!-- u0 -->
<g id="node7" class="node">
<title>u0</title>
<ellipse fill="#ffffbb" stroke="black" cx="1681.39" cy="-3475" rx="214.46" ry="18"/>
<text text-anchor="middle" x="1681.39" y="-3471.3" font-family="Times,serif" font-size="14.00">Data.Drasil.ExternalLibraries.ODELibraries</text>
</g>
<!-- u0&#45;&gt;u5 -->
<g id="edge1" class="edge">
<title>u0&#45;&gt;u5</title>
<path fill="none" stroke="black" d="M1681.39,-3456.98C1681.39,-3415.69 1681.39,-3309.86 1681.39,-3259.47"/>
<polygon fill="black" stroke="black" points="1684.89,-3259.32 1681.39,-3249.32 1677.89,-3259.32 1684.89,-3259.32"/>
</g>
<!-- u48 -->
<g id="node8" class="node">
<title>u48</title>
<ellipse fill="#bbbbff" stroke="black" cx="3361.39" cy="-1524" rx="135.68" ry="18"/>
<text text-anchor="middle" x="3361.39" y="-1520.3" font-family="Times,serif" font-size="14.00">Language.Drasil.CodeSpec</text>
</g>
<!-- u6 -->
<g id="node10" class="node">
<title>u6</title>
<ellipse fill="#bbbbff" stroke="black" cx="2923.39" cy="-1280" rx="126.18" ry="18"/>
<text text-anchor="middle" x="2923.39" y="-1276.3" font-family="Times,serif" font-size="14.00">Language.Drasil.Choices</text>
</g>
<!-- u48&#45;&gt;u6 -->
<g id="edge80" class="edge">
<title>u48&#45;&gt;u6</title>
<path fill="none" stroke="black" d="M3331.29,-1506.37C3253.99,-1463.66 3048.58,-1350.17 2962.36,-1302.53"/>
<polygon fill="black" stroke="black" points="2963.87,-1299.36 2953.42,-1297.59 2960.48,-1305.49 2963.87,-1299.36"/>
</g>
<!-- u4 -->
<g id="node12" class="node">
<title>u4</title>
<ellipse fill="#ffbbbb" stroke="black" cx="3079.39" cy="-1036" rx="191.17" ry="18"/>
<text text-anchor="middle" x="3079.39" y="-1032.3" font-family="Times,serif" font-size="14.00">Language.Drasil.Chunk.CodeDefinition</text>
</g>
<!-- u48&#45;&gt;u4 -->
<g id="edge79" class="edge">
<title>u48&#45;&gt;u4</title>
<path fill="none" stroke="black" d="M3334.93,-1506.32C3284.93,-1473.28 3176.99,-1394.3 3125.39,-1298 3083.98,-1220.7 3078.74,-1113.84 3078.76,-1064.27"/>
<polygon fill="black" stroke="black" points="3082.26,-1064.08 3078.84,-1054.05 3075.26,-1064.02 3082.26,-1064.08"/>
</g>
<!-- u3 -->
<g id="node13" class="node">
<title>u3</title>
<ellipse fill="#ffbbbb" stroke="black" cx="3326.39" cy="-1280" rx="192.27" ry="18"/>
<text text-anchor="middle" x="3326.39" y="-1276.3" font-family="Times,serif" font-size="14.00">Language.Drasil.Chunk.ConstraintMap</text>
</g>
<!-- u48&#45;&gt;u3 -->
<g id="edge78" class="edge">
<title>u48&#45;&gt;u3</title>
<path fill="none" stroke="black" d="M3358.93,-1505.98C3352.96,-1464.69 3337.66,-1358.86 3330.37,-1308.47"/>
<polygon fill="black" stroke="black" points="3333.8,-1307.72 3328.9,-1298.32 3326.87,-1308.72 3333.8,-1307.72"/>
</g>
<!-- u47 -->
<g id="node9" class="node">
<title>u47</title>
<ellipse fill="#bbbbff" stroke="black" cx="3346.39" cy="-549" rx="110.48" ry="18"/>
<text text-anchor="middle" x="3346.39" y="-545.3" font-family="Times,serif" font-size="14.00">Language.Drasil.Mod</text>
</g>
<!-- u2 -->
<g id="node14" class="node">
<title>u2</title>
<ellipse fill="#ffbbbb" stroke="black" cx="3116.39" cy="-305" rx="170.87" ry="18"/>
<text text-anchor="middle" x="3116.39" y="-301.3" font-family="Times,serif" font-size="14.00">Language.Drasil.Chunk.Parameter</text>
</g>
<!-- u47&#45;&gt;u2 -->
<g id="edge76" class="edge">
<title>u47&#45;&gt;u2</title>
<path fill="none" stroke="black" d="M3330.22,-530.98C3290.14,-488.81 3186.08,-379.32 3139.51,-330.32"/>
<polygon fill="black" stroke="black" points="3141.98,-327.84 3132.55,-323 3136.9,-332.66 3141.98,-327.84"/>
</g>
<!-- u46 -->
<g id="node16" class="node">
<title>u46</title>
<ellipse fill="#bbffff" stroke="black" cx="2243.39" cy="-305" rx="160.57" ry="18"/>
<text text-anchor="middle" x="2243.39" y="-301.3" font-family="Times,serif" font-size="14.00">Language.Drasil.Code.DataDesc</text>
</g>
<!-- u47&#45;&gt;u46 -->
<g id="edge77" class="edge">
<title>u47&#45;&gt;u46</title>
<path fill="none" stroke="black" d="M3283.13,-534.12C3093.86,-492.59 2532.2,-369.36 2323.05,-323.48"/>
<polygon fill="black" stroke="black" points="2323.58,-320.01 2313.06,-321.28 2322.08,-326.85 2323.58,-320.01"/>
</g>
<!-- u10 -->
<g id="node22" class="node">
<title>u10</title>
<ellipse fill="#bbffff" stroke="black" cx="2660.39" cy="-1036" rx="139.98" ry="18"/>
<text text-anchor="middle" x="2660.39" y="-1032.3" font-family="Times,serif" font-size="14.00">Language.Drasil.Code.Code</text>
</g>
<!-- u6&#45;&gt;u10 -->
<g id="edge12" class="edge">
<title>u6&#45;&gt;u10</title>
<path fill="none" stroke="black" d="M2904.9,-1261.98C2858.97,-1219.72 2739.58,-1109.87 2686.5,-1061.02"/>
<polygon fill="black" stroke="black" points="2688.6,-1058.19 2678.87,-1054 2683.86,-1063.34 2688.6,-1058.19"/>
</g>
<!-- u8 -->
<g id="node54" class="node">
<title>u8</title>
<ellipse fill="#ff77ff" stroke="black" cx="3461.39" cy="-1036" rx="172.77" ry="18"/>
<text text-anchor="middle" x="3461.39" y="-1032.3" font-family="Times,serif" font-size="14.00">Language.Drasil.Data.ODELibPckg</text>
</g>
<!-- u6&#45;&gt;u8 -->
<g id="edge11" class="edge">
<title>u6&#45;&gt;u8</title>
<path fill="none" stroke="black" d="M2959.53,-1262.75C3054.23,-1220.15 3309.55,-1105.3 3414.93,-1057.9"/>
<polygon fill="black" stroke="black" points="3416.67,-1060.96 3424.35,-1053.66 3413.8,-1054.57 3416.67,-1060.96"/>
</g>
<!-- u36 -->
<g id="node28" class="node">
<title>u36</title>
<ellipse fill="#ffbbff" stroke="black" cx="794.39" cy="-1524" rx="217.96" ry="18"/>
<text text-anchor="middle" x="794.39" y="-1520.3" font-family="Times,serif" font-size="14.00">Language.Drasil.Code.Imperative.ReadInput</text>
</g>
<!-- u5&#45;&gt;u36 -->
<g id="edge10" class="edge">
<title>u5&#45;&gt;u36</title>
<path fill="none" stroke="black" d="M1594.91,-3219.34C1288.57,-3179.22 273.39,-3025.06 273.39,-2744 273.39,-2744 273.39,-2744 273.39,-2011 273.39,-1758.18 605.49,-1599.27 739.4,-1545.47"/>
<polygon fill="black" stroke="black" points="741.07,-1548.57 749.07,-1541.63 738.48,-1542.07 741.07,-1548.57"/>
</g>
<!-- u20 -->
<g id="node34" class="node">
<title>u20</title>
<ellipse fill="#ffbbff" stroke="black" cx="4604.39" cy="-2987" rx="217.16" ry="18"/>
<text text-anchor="middle" x="4604.39" y="-2983.3" font-family="Times,serif" font-size="14.00">Language.Drasil.Code.Imperative.Generator</text>
</g>
<!-- u5&#45;&gt;u20 -->
<g id="edge4" class="edge">
<title>u5&#45;&gt;u20</title>
<path fill="none" stroke="black" d="M1779.07,-3221.91C2206.73,-3186.51 3916.45,-3044.96 4446.73,-3001.05"/>
<polygon fill="black" stroke="black" points="4447.07,-3004.54 4456.75,-3000.22 4446.49,-2997.56 4447.07,-3004.54"/>
</g>
<!-- u30 -->
<g id="node47" class="node">
<title>u30</title>
<ellipse fill="#ff7777" stroke="black" cx="660.39" cy="-2743" rx="358.54" ry="18"/>
<text text-anchor="middle" x="660.39" y="-2739.3" font-family="Times,serif" font-size="14.00">Language.Drasil.Code.Imperative.GOOL.LanguageRenderer.SwiftRenderer</text>
</g>
<!-- u5&#45;&gt;u30 -->
<g id="edge9" class="edge">
<title>u5&#45;&gt;u30</title>
<path fill="none" stroke="black" d="M1647.42,-3213.83C1495.38,-3141.46 877.3,-2847.25 705.11,-2765.29"/>
<polygon fill="black" stroke="black" points="706.6,-2762.12 696.07,-2760.98 703.59,-2768.44 706.6,-2762.12"/>
</g>
<!-- u28 -->
<g id="node49" class="node">
<title>u28</title>
<ellipse fill="#ff7777" stroke="black" cx="1390.39" cy="-2743" rx="352.84" ry="18"/>
<text text-anchor="middle" x="1390.39" y="-2739.3" font-family="Times,serif" font-size="14.00">Language.Drasil.Code.Imperative.GOOL.LanguageRenderer.CppRenderer</text>
</g>
<!-- u5&#45;&gt;u28 -->
<g id="edge8" class="edge">
<title>u5&#45;&gt;u28</title>
<path fill="none" stroke="black" d="M1671.21,-3212.99C1627.82,-3140.53 1458.27,-2857.37 1405.9,-2769.89"/>
<polygon fill="black" stroke="black" points="1408.79,-2767.91 1400.65,-2761.13 1402.78,-2771.5 1408.79,-2767.91"/>
</g>
<!-- u27 -->
<g id="node50" class="node">
<title>u27</title>
<ellipse fill="#ff7777" stroke="black" cx="2128.39" cy="-2743" rx="367.43" ry="18"/>
<text text-anchor="middle" x="2128.39" y="-2739.3" font-family="Times,serif" font-size="14.00">Language.Drasil.Code.Imperative.GOOL.LanguageRenderer.PythonRenderer</text>
</g>
<!-- u5&#45;&gt;u27 -->
<g id="edge7" class="edge">
<title>u5&#45;&gt;u27</title>
<path fill="none" stroke="black" d="M1697.04,-3212.99C1764.02,-3140.16 2026.77,-2854.5 2105.79,-2768.58"/>
<polygon fill="black" stroke="black" points="2108.45,-2770.86 2112.64,-2761.13 2103.3,-2766.12 2108.45,-2770.86"/>
</g>
<!-- u26 -->
<g id="node51" class="node">
<title>u26</title>
<ellipse fill="#ff7777" stroke="black" cx="2882.39" cy="-2743" rx="369.33" ry="18"/>
<text text-anchor="middle" x="2882.39" y="-2739.3" font-family="Times,serif" font-size="14.00">Language.Drasil.Code.Imperative.GOOL.LanguageRenderer.CSharpRenderer</text>
</g>
<!-- u5&#45;&gt;u26 -->
<g id="edge6" class="edge">
<title>u5&#45;&gt;u26</title>
<path fill="none" stroke="black" d="M1720.67,-3214.11C1898.76,-3142.04 2630.44,-2845.96 2831.22,-2764.71"/>
<polygon fill="black" stroke="black" points="2832.7,-2767.89 2840.66,-2760.89 2830.07,-2761.4 2832.7,-2767.89"/>
</g>
<!-- u25 -->
<g id="node52" class="node">
<title>u25</title>
<ellipse fill="#ff7777" stroke="black" cx="3623.39" cy="-2743" rx="354.44" ry="18"/>
<text text-anchor="middle" x="3623.39" y="-2739.3" font-family="Times,serif" font-size="14.00">Language.Drasil.Code.Imperative.GOOL.LanguageRenderer.JavaRenderer</text>
</g>
<!-- u5&#45;&gt;u25 -->
<g id="edge5" class="edge">
<title>u5&#45;&gt;u25</title>
<path fill="none" stroke="black" d="M1739.25,-3215.52C2018.75,-3145.57 3228.72,-2842.77 3546.64,-2763.21"/>
<polygon fill="black" stroke="black" points="3547.83,-2766.52 3556.68,-2760.7 3546.13,-2759.73 3547.83,-2766.52"/>
</g>
<!-- u7 -->
<g id="node55" class="node">
<title>u7</title>
<ellipse fill="#ff77ff" stroke="black" cx="2802.39" cy="-793" rx="154.07" ry="18"/>
<text text-anchor="middle" x="2802.39" y="-789.3" font-family="Times,serif" font-size="14.00">Language.Drasil.Data.ODEInfo</text>
</g>
<!-- u4&#45;&gt;u7 -->
<g id="edge3" class="edge">
<title>u4&#45;&gt;u7</title>
<path fill="none" stroke="black" d="M3059.92,-1018.05C3011.44,-975.88 2885.28,-866.12 2829.55,-817.62"/>
<polygon fill="black" stroke="black" points="2831.69,-814.85 2821.85,-810.93 2827.1,-820.13 2831.69,-814.85"/>
</g>
<!-- u1 -->
<g id="node15" class="node">
<title>u1</title>
<ellipse fill="#ffbbbb" stroke="black" cx="2802.39" cy="-61" rx="145.67" ry="18"/>
<text text-anchor="middle" x="2802.39" y="-57.3" font-family="Times,serif" font-size="14.00">Language.Drasil.Chunk.Code</text>
</g>
<!-- u2&#45;&gt;u1 -->
<g id="edge2" class="edge">
<title>u2&#45;&gt;u1</title>
<path fill="none" stroke="black" d="M3094.31,-286.98C3039.14,-244.46 2895.18,-133.51 2832.4,-85.13"/>
<polygon fill="black" stroke="black" points="2834.51,-82.33 2824.45,-79 2830.23,-87.87 2834.51,-82.33"/>
</g>
<!-- u46&#45;&gt;u1 -->
<g id="edge75" class="edge">
<title>u46&#45;&gt;u1</title>
<path fill="none" stroke="black" d="M2281.82,-287.37C2381.18,-244.35 2646.45,-129.51 2755.05,-82.5"/>
<polygon fill="black" stroke="black" points="2756.66,-85.61 2764.44,-78.43 2753.87,-79.19 2756.66,-85.61"/>
</g>
<!-- u45 -->
<g id="node17" class="node">
<title>u45</title>
<ellipse fill="#bbffff" stroke="black" cx="3877.39" cy="-793" rx="207.96" ry="18"/>
<text text-anchor="middle" x="3877.39" y="-789.3" font-family="Times,serif" font-size="14.00">Language.Drasil.Code.ExternalLibraryCall</text>
</g>
<!-- u45&#45;&gt;u47 -->
<g id="edge74" class="edge">
<title>u45&#45;&gt;u47</title>
<path fill="none" stroke="black" d="M3840.48,-775.18C3745.6,-731.93 3493.51,-617.05 3390.84,-570.26"/>
<polygon fill="black" stroke="black" points="3392.22,-567.04 3381.67,-566.08 3389.32,-573.41 3392.22,-567.04"/>
</g>
<!-- u44 -->
<g id="node18" class="node">
<title>u44</title>
<ellipse fill="#bbffff" stroke="black" cx="3461.39" cy="-793" rx="190.37" ry="18"/>
<text text-anchor="middle" x="3461.39" y="-789.3" font-family="Times,serif" font-size="14.00">Language.Drasil.Code.ExternalLibrary</text>
</g>
<!-- u44&#45;&gt;u47 -->
<g id="edge73" class="edge">
<title>u44&#45;&gt;u47</title>
<path fill="none" stroke="black" d="M3453.31,-774.98C3433.51,-733.33 3382.52,-626.01 3358.83,-576.16"/>
<polygon fill="black" stroke="black" points="3361.93,-574.53 3354.47,-567 3355.6,-577.53 3361.93,-574.53"/>
</g>
<!-- u43 -->
<g id="node19" class="node">
<title>u43</title>
<ellipse fill="#bbffff" stroke="black" cx="3854.39" cy="-1036" rx="178.97" ry="18"/>
<text text-anchor="middle" x="3854.39" y="-1032.3" font-family="Times,serif" font-size="14.00">Language.Drasil.Code.ExtLibImport</text>
</g>
<!-- u43&#45;&gt;u45 -->
<g id="edge72" class="edge">
<title>u43&#45;&gt;u45</title>
<path fill="none" stroke="black" d="M3856.05,-1017.67C3860,-976.24 3870.02,-871.22 3874.79,-821.24"/>
<polygon fill="black" stroke="black" points="3878.29,-821.46 3875.76,-811.18 3871.32,-820.8 3878.29,-821.46"/>
</g>
<!-- u43&#45;&gt;u44 -->
<g id="edge71" class="edge">
<title>u43&#45;&gt;u44</title>
<path fill="none" stroke="black" d="M3826.76,-1018.05C3757.42,-975.53 3576.05,-864.31 3497.99,-816.44"/>
<polygon fill="black" stroke="black" points="3499.35,-813.17 3489,-810.93 3495.69,-819.14 3499.35,-813.17"/>
</g>
<!-- u42 -->
<g id="node20" class="node">
<title>u42</title>
<ellipse fill="#bbffff" stroke="black" cx="3113.39" cy="-793" rx="139.18" ry="18"/>
<text text-anchor="middle" x="3113.39" y="-789.3" font-family="Times,serif" font-size="14.00">Language.Drasil.Code.Lang</text>
</g>
<!-- u41 -->
<g id="node21" class="node">
<title>u41</title>
<ellipse fill="#bbffff" stroke="black" cx="4786.39" cy="-2012" rx="204.16" ry="18"/>
<text text-anchor="middle" x="4786.39" y="-2008.3" font-family="Times,serif" font-size="14.00">Language.Drasil.Code.CodeQuantityDicts</text>
</g>
<!-- u9 -->
<g id="node23" class="node">
<title>u9</title>
<ellipse fill="#bbffff" stroke="black" cx="4186.39" cy="-2743" rx="191.17" ry="18"/>
<text text-anchor="middle" x="4186.39" y="-2739.3" font-family="Times,serif" font-size="14.00">Language.Drasil.Code.CodeGeneration</text>
</g>
<!-- u9&#45;&gt;u10 -->
<g id="edge18" class="edge">
<title>u9&#45;&gt;u10</title>
<path fill="none" stroke="black" d="M4163,-2725.14C4111.85,-2688.18 3986.43,-2597.03 3883.39,-2518 3724.77,-2396.34 3710.42,-2326.94 3531.39,-2238 3196.98,-2071.87 2973.41,-2301.82 2717.39,-2030 2582.25,-1886.51 2642.82,-1209.2 2657.51,-1064.32"/>
<polygon fill="black" stroke="black" points="2661.02,-1064.4 2658.56,-1054.1 2654.05,-1063.69 2661.02,-1064.4"/>
</g>
<!-- u24 -->
<g id="node46" class="node">
<title>u24</title>
<ellipse fill="#7777ff" stroke="black" cx="2755.39" cy="-2500" rx="222.06" ry="18"/>
<text text-anchor="middle" x="2755.39" y="-2496.3" font-family="Times,serif" font-size="14.00">Language.Drasil.Code.Imperative.GOOL.Data</text>
</g>
<!-- u9&#45;&gt;u24 -->
<g id="edge19" class="edge">
<title>u9&#45;&gt;u24</title>
<path fill="none" stroke="black" d="M4097.42,-2727.02C3844.97,-2684.5 3125.17,-2563.28 2857.39,-2518.18"/>
<polygon fill="black" stroke="black" points="2857.73,-2514.68 2847.28,-2516.48 2856.56,-2521.59 2857.73,-2514.68"/>
</g>
<!-- u40 -->
<g id="node24" class="node">
<title>u40</title>
<ellipse fill="#ffbbff" stroke="black" cx="3912.39" cy="-2256" rx="201.46" ry="18"/>
<text text-anchor="middle" x="3912.39" y="-2252.3" font-family="Times,serif" font-size="14.00">Language.Drasil.Code.Imperative.Import</text>
</g>
<!-- u40&#45;&gt;u41 -->
<g id="edge70" class="edge">
<title>u40&#45;&gt;u41</title>
<path fill="none" stroke="black" d="M3971.1,-2238.75C4127.11,-2195.55 4551.49,-2078.04 4718.02,-2031.93"/>
<polygon fill="black" stroke="black" points="4718.96,-2035.3 4727.66,-2029.26 4717.09,-2028.56 4718.96,-2035.3"/>
</g>
<!-- u37 -->
<g id="node27" class="node">
<title>u37</title>
<ellipse fill="#ffbbff" stroke="black" cx="4357.39" cy="-2012" rx="207.16" ry="18"/>
<text text-anchor="middle" x="4357.39" y="-2008.3" font-family="Times,serif" font-size="14.00">Language.Drasil.Code.Imperative.Logging</text>
</g>
<!-- u40&#45;&gt;u37 -->
<g id="edge69" class="edge">
<title>u40&#45;&gt;u37</title>
<path fill="none" stroke="black" d="M3943.33,-2238.18C4022.05,-2195.37 4229.89,-2082.34 4317.52,-2034.68"/>
<polygon fill="black" stroke="black" points="4319.25,-2037.73 4326.37,-2029.87 4315.91,-2031.58 4319.25,-2037.73"/>
</g>
<!-- u35 -->
<g id="node29" class="node">
<title>u35</title>
<ellipse fill="#ffbbff" stroke="black" cx="3468.39" cy="-2012" rx="206.06" ry="18"/>
<text text-anchor="middle" x="3468.39" y="-2008.3" font-family="Times,serif" font-size="14.00">Language.Drasil.Code.Imperative.Helpers</text>
</g>
<!-- u40&#45;&gt;u35 -->
<g id="edge68" class="edge">
<title>u40&#45;&gt;u35</title>
<path fill="none" stroke="black" d="M3881.53,-2238.18C3802.99,-2195.37 3595.61,-2082.34 3508.18,-2034.68"/>
<polygon fill="black" stroke="black" points="3509.81,-2031.59 3499.35,-2029.87 3506.46,-2037.73 3509.81,-2031.59"/>
</g>
<!-- u34 -->
<g id="node30" class="node">
<title>u34</title>
<ellipse fill="#ffbbff" stroke="black" cx="2970.39" cy="-1524" rx="237.46" ry="18"/>
<text text-anchor="middle" x="2970.39" y="-1520.3" font-family="Times,serif" font-size="14.00">Language.Drasil.Code.Imperative.ConceptMatch</text>
</g>
<!-- u40&#45;&gt;u34 -->
<g id="edge67" class="edge">
<title>u40&#45;&gt;u34</title>
<path fill="none" stroke="black" d="M3743.3,-2246.17C3590.3,-2228.49 3371.4,-2177.12 3253.39,-2030 3175.05,-1932.33 3279.78,-1861.28 3222.39,-1750 3173.66,-1655.49 3067.56,-1582 3009.79,-1547.15"/>
<polygon fill="black" stroke="black" points="3011.34,-1544 3000.95,-1541.89 3007.76,-1550.01 3011.34,-1544"/>
</g>
<!-- u15 -->
<g id="node36" class="node">
<title>u15</title>
<ellipse fill="#ffbbff" stroke="black" cx="2966.39" cy="-2012" rx="240.46" ry="18"/>
<text text-anchor="middle" x="2966.39" y="-2008.3" font-family="Times,serif" font-size="14.00">Language.Drasil.Code.Imperative.GenerateGOOL</text>
</g>
<!-- u40&#45;&gt;u15 -->
<g id="edge66" class="edge">
<title>u40&#45;&gt;u15</title>
<path fill="none" stroke="black" d="M3849.22,-2238.84C3680.62,-2195.71 3220.56,-2078.02 3040.27,-2031.9"/>
<polygon fill="black" stroke="black" points="3040.9,-2028.45 3030.35,-2029.36 3039.17,-2035.23 3040.9,-2028.45"/>
</g>
<!-- u12 -->
<g id="node39" class="node">
<title>u12</title>
<ellipse fill="#ffbbff" stroke="black" cx="3912.39" cy="-2012" rx="219.86" ry="18"/>
<text text-anchor="middle" x="3912.39" y="-2008.3" font-family="Times,serif" font-size="14.00">Language.Drasil.Code.Imperative.Comments</text>
</g>
<!-- u40&#45;&gt;u12 -->
<g id="edge65" class="edge">
<title>u40&#45;&gt;u12</title>
<path fill="none" stroke="black" d="M3912.39,-2237.98C3912.39,-2196.69 3912.39,-2090.86 3912.39,-2040.47"/>
<polygon fill="black" stroke="black" points="3915.89,-2040.32 3912.39,-2030.32 3908.89,-2040.32 3915.89,-2040.32"/>
</g>
<!-- u39 -->
<g id="node25" class="node">
<title>u39</title>
<ellipse fill="#ffbbff" stroke="black" cx="4125.39" cy="-2500" rx="233.16" ry="18"/>
<text text-anchor="middle" x="4125.39" y="-2496.3" font-family="Times,serif" font-size="14.00">Language.Drasil.Code.Imperative.FunctionCalls</text>
</g>
<!-- u39&#45;&gt;u40 -->
<g id="edge64" class="edge">
<title>u39&#45;&gt;u40</title>
<path fill="none" stroke="black" d="M4110.42,-2481.98C4073.37,-2439.89 3977.32,-2330.77 3934.07,-2281.63"/>
<polygon fill="black" stroke="black" points="3936.59,-2279.19 3927.36,-2274 3931.34,-2283.82 3936.59,-2279.19"/>
</g>
<!-- u22 -->
<g id="node32" class="node">
<title>u22</title>
<ellipse fill="#ffbbff" stroke="black" cx="4786.39" cy="-2256" rx="223.66" ry="18"/>
<text text-anchor="middle" x="4786.39" y="-2252.3" font-family="Times,serif" font-size="14.00">Language.Drasil.Code.Imperative.Parameters</text>
</g>
<!-- u39&#45;&gt;u22 -->
<g id="edge63" class="edge">
<title>u39&#45;&gt;u22</title>
<path fill="none" stroke="black" d="M4171.09,-2482.27C4289,-2439.1 4603.2,-2324.07 4731.08,-2277.25"/>
<polygon fill="black" stroke="black" points="4732.51,-2280.46 4740.69,-2273.73 4730.1,-2273.88 4732.51,-2280.46"/>
</g>
<!-- u38 -->
<g id="node26" class="node">
<title>u38</title>
<ellipse fill="#ffbbff" stroke="black" cx="4604.39" cy="-2500" rx="228.26" ry="18"/>
<text text-anchor="middle" x="4604.39" y="-2496.3" font-family="Times,serif" font-size="14.00">Language.Drasil.Code.Imperative.Descriptions</text>
</g>
<!-- u11 -->
<g id="node40" class="node">
<title>u11</title>
<ellipse fill="#ffbbff" stroke="black" cx="3984.39" cy="-1768" rx="222.06" ry="18"/>
<text text-anchor="middle" x="3984.39" y="-1764.3" font-family="Times,serif" font-size="14.00">Language.Drasil.Code.Imperative.DrasilState</text>
</g>
<!-- u38&#45;&gt;u11 -->
<g id="edge62" class="edge">
<title>u38&#45;&gt;u11</title>
<path fill="none" stroke="black" d="M4679.3,-2482.93C4777.29,-2457.45 4945.2,-2397.46 5019.39,-2274 5083.49,-2167.33 5099.51,-2090.88 5021.39,-1994 4914.94,-1861.97 4425.13,-1803.46 4158.52,-1781.02"/>
<polygon fill="black" stroke="black" points="4158.6,-1777.52 4148.35,-1780.18 4158.02,-1784.49 4158.6,-1777.52"/>
</g>
<!-- u37&#45;&gt;u11 -->
<g id="edge61" class="edge">
<title>u37&#45;&gt;u11</title>
<path fill="none" stroke="black" d="M4331.17,-1993.98C4265.36,-1951.29 4093.22,-1839.6 4019.13,-1791.54"/>
<polygon fill="black" stroke="black" points="4020.89,-1788.5 4010.59,-1786 4017.08,-1794.38 4020.89,-1788.5"/>
</g>
<!-- u36&#45;&gt;u46 -->
<g id="edge60" class="edge">
<title>u36&#45;&gt;u46</title>
<path fill="none" stroke="black" d="M818.29,-1505.97C895.05,-1449.09 1130.39,-1256.77 1130.39,-1037 1130.39,-1037 1130.39,-1037 1130.39,-792 1130.39,-567.16 1902.89,-379.63 2160.74,-323.3"/>
<polygon fill="black" stroke="black" points="2161.77,-326.66 2170.8,-321.12 2160.28,-319.82 2161.77,-326.66"/>
</g>
<!-- u35&#45;&gt;u11 -->
<g id="edge59" class="edge">
<title>u35&#45;&gt;u11</title>
<path fill="none" stroke="black" d="M3504.27,-1994.18C3595.82,-1951.24 3838.01,-1837.65 3939.08,-1790.25"/>
<polygon fill="black" stroke="black" points="3940.85,-1793.29 3948.41,-1785.87 3937.88,-1786.95 3940.85,-1793.29"/>
</g>
<!-- u34&#45;&gt;u6 -->
<g id="edge58" class="edge">
<title>u34&#45;&gt;u6</title>
<path fill="none" stroke="black" d="M2967.09,-1505.98C2959.05,-1464.59 2938.42,-1358.35 2928.66,-1308.11"/>
<polygon fill="black" stroke="black" points="2932.04,-1307.15 2926.7,-1298 2925.17,-1308.48 2932.04,-1307.15"/>
</g>
<!-- u23 -->
<g id="node31" class="node">
<title>u23</title>
<ellipse fill="#ffbbff" stroke="black" cx="4604.39" cy="-2743" rx="209.06" ry="18"/>
<text text-anchor="middle" x="4604.39" y="-2739.3" font-family="Times,serif" font-size="14.00">Language.Drasil.Code.Imperative.Modules</text>
</g>
<!-- u23&#45;&gt;u39 -->
<g id="edge40" class="edge">
<title>u23&#45;&gt;u39</title>
<path fill="none" stroke="black" d="M4570.71,-2725.05C4485.6,-2682.23 4261.99,-2569.73 4167.99,-2522.43"/>
<polygon fill="black" stroke="black" points="4169.55,-2519.3 4159.04,-2517.93 4166.4,-2525.55 4169.55,-2519.3"/>
</g>
<!-- u23&#45;&gt;u38 -->
<g id="edge39" class="edge">
<title>u23&#45;&gt;u38</title>
<path fill="none" stroke="black" d="M4604.39,-2724.67C4604.39,-2683.24 4604.39,-2578.22 4604.39,-2528.24"/>
<polygon fill="black" stroke="black" points="4607.89,-2528.18 4604.39,-2518.18 4600.89,-2528.18 4607.89,-2528.18"/>
</g>
<!-- u22&#45;&gt;u41 -->
<g id="edge38" class="edge">
<title>u22&#45;&gt;u41</title>
<path fill="none" stroke="black" d="M4786.39,-2237.98C4786.39,-2196.69 4786.39,-2090.86 4786.39,-2040.47"/>
<polygon fill="black" stroke="black" points="4789.89,-2040.32 4786.39,-2030.32 4782.89,-2040.32 4789.89,-2040.32"/>
</g>
<!-- u22&#45;&gt;u11 -->
<g id="edge37" class="edge">
<title>u22&#45;&gt;u11</title>
<path fill="none" stroke="black" d="M4819.28,-2238.13C4895.79,-2196.73 5073.8,-2086.71 4999.39,-1994 4895.22,-1864.21 4414.44,-1804.65 4153.68,-1781.5"/>
<polygon fill="black" stroke="black" points="4153.62,-1777.98 4143.35,-1780.59 4153.01,-1784.95 4153.62,-1777.98"/>
</g>
<!-- u21 -->
<g id="node33" class="node">
<title>u21</title>
<ellipse fill="#ffbbff" stroke="black" cx="2049.39" cy="-549" rx="219.86" ry="18"/>
<text text-anchor="middle" x="2049.39" y="-545.3" font-family="Times,serif" font-size="14.00">Language.Drasil.Code.Imperative.WriteInput</text>
</g>
<!-- u21&#45;&gt;u46 -->
<g id="edge36" class="edge">
<title>u21&#45;&gt;u46</title>
<path fill="none" stroke="black" d="M2063.04,-530.98C2096.71,-488.98 2183.9,-380.22 2223.41,-330.93"/>
<polygon fill="black" stroke="black" points="2226.24,-332.99 2229.77,-323 2220.78,-328.61 2226.24,-332.99"/>
</g>
<!-- u20&#45;&gt;u9 -->
<g id="edge32" class="edge">
<title>u20&#45;&gt;u9</title>
<path fill="none" stroke="black" d="M4575,-2968.98C4500.94,-2926.1 4306.7,-2813.65 4224.26,-2765.92"/>
<polygon fill="black" stroke="black" points="4225.88,-2762.82 4215.48,-2760.84 4222.38,-2768.88 4225.88,-2762.82"/>
</g>
<!-- u20&#45;&gt;u23 -->
<g id="edge35" class="edge">
<title>u20&#45;&gt;u23</title>
<path fill="none" stroke="black" d="M4604.39,-2968.98C4604.39,-2927.69 4604.39,-2821.86 4604.39,-2771.47"/>
<polygon fill="black" stroke="black" points="4607.89,-2771.32 4604.39,-2761.32 4600.89,-2771.32 4607.89,-2771.32"/>
</g>
<!-- u14 -->
<g id="node37" class="node">
<title>u14</title>
<ellipse fill="#ffbbff" stroke="black" cx="3746.39" cy="-1280" rx="209.86" ry="18"/>
<text text-anchor="middle" x="3746.39" y="-1276.3" font-family="Times,serif" font-size="14.00">Language.Drasil.Code.Imperative.GenODE</text>
</g>
<!-- u20&#45;&gt;u14 -->
<g id="edge34" class="edge">
<title>u20&#45;&gt;u14</title>
<path fill="none" stroke="black" d="M4691.85,-2970.51C4885.28,-2930.69 5332.39,-2805.69 5332.39,-2501 5332.39,-2501 5332.39,-2501 5332.39,-1767 5332.39,-1468.18 4290.17,-1334.46 3895.46,-1294.54"/>
<polygon fill="black" stroke="black" points="3895.7,-1291.04 3885.4,-1293.52 3895,-1298.01 3895.7,-1291.04"/>
</g>
<!-- u13 -->
<g id="node38" class="node">
<title>u13</title>
<ellipse fill="#ffbbff" stroke="black" cx="5077.39" cy="-2500" rx="226.66" ry="18"/>
<text text-anchor="middle" x="5077.39" y="-2496.3" font-family="Times,serif" font-size="14.00">Language.Drasil.Code.Imperative.SpaceMatch</text>
</g>
<!-- u20&#45;&gt;u13 -->
<g id="edge33" class="edge">
<title>u20&#45;&gt;u13</title>
<path fill="none" stroke="black" d="M4620.95,-2969.02C4691.9,-2896.27 4970.41,-2610.69 5053.73,-2525.27"/>
<polygon fill="black" stroke="black" points="5056.25,-2527.69 5060.73,-2518.09 5051.24,-2522.81 5056.25,-2527.69"/>
</g>
<!-- u16 -->
<g id="node35" class="node">
<title>u16</title>
<ellipse fill="#ffbbff" stroke="black" cx="2665.39" cy="-2256" rx="233.16" ry="18"/>
<text text-anchor="middle" x="2665.39" y="-2252.3" font-family="Times,serif" font-size="14.00">Language.Drasil.Code.Imperative.WriteReadMe</text>
</g>
<!-- u31 -->
<g id="node45" class="node">
<title>u31</title>
<ellipse fill="#7777ff" stroke="black" cx="2946.39" cy="-1768" rx="267.25" ry="18"/>
<text text-anchor="middle" x="2946.39" y="-1764.3" font-family="Times,serif" font-size="14.00">Language.Drasil.Code.Imperative.GOOL.ClassInterface</text>
</g>
<!-- u16&#45;&gt;u31 -->
<g id="edge29" class="edge">
<title>u16&#45;&gt;u31</title>
<path fill="none" stroke="black" d="M2665.4,-2237.97C2666.11,-2194.57 2672.37,-2077.33 2717.39,-1994 2765.74,-1904.54 2861.49,-1828.31 2912.52,-1791.89"/>
<polygon fill="black" stroke="black" points="2914.75,-1794.6 2920.91,-1785.98 2910.72,-1788.88 2914.75,-1794.6"/>
</g>
<!-- u15&#45;&gt;u11 -->
<g id="edge27" class="edge">
<title>u15&#45;&gt;u11</title>
<path fill="none" stroke="black" d="M3035.17,-1994.65C3217.8,-1951.24 3714.13,-1833.25 3906.63,-1787.49"/>
<polygon fill="black" stroke="black" points="3907.47,-1790.88 3916.39,-1785.17 3905.85,-1784.07 3907.47,-1790.88"/>
</g>
<!-- u15&#45;&gt;u31 -->
<g id="edge28" class="edge">
<title>u15&#45;&gt;u31</title>
<path fill="none" stroke="black" d="M2964.99,-1993.98C2961.58,-1952.69 2952.83,-1846.86 2948.66,-1796.47"/>
<polygon fill="black" stroke="black" points="2952.14,-1796 2947.83,-1786.32 2945.16,-1796.58 2952.14,-1796"/>
</g>
<!-- u14&#45;&gt;u4 -->
<g id="edge24" class="edge">
<title>u14&#45;&gt;u4</title>
<path fill="none" stroke="black" d="M3700.55,-1262.37C3581.65,-1219.23 3263.68,-1103.86 3134.8,-1057.1"/>
<polygon fill="black" stroke="black" points="3135.71,-1053.71 3125.12,-1053.59 3133.33,-1060.29 3135.71,-1053.71"/>
</g>
<!-- u14&#45;&gt;u43 -->
<g id="edge26" class="edge">
<title>u14&#45;&gt;u43</title>
<path fill="none" stroke="black" d="M3753.99,-1261.98C3772.58,-1220.33 3820.47,-1113.01 3842.72,-1063.16"/>
<polygon fill="black" stroke="black" points="3845.93,-1064.56 3846.81,-1054 3839.54,-1061.7 3845.93,-1064.56"/>
</g>
<!-- u14&#45;&gt;u8 -->
<g id="edge25" class="edge">
<title>u14&#45;&gt;u8</title>
<path fill="none" stroke="black" d="M3726.35,-1261.98C3676.48,-1219.63 3546.68,-1109.42 3489.33,-1060.72"/>
<polygon fill="black" stroke="black" points="3491.3,-1057.8 3481.41,-1054 3486.77,-1063.14 3491.3,-1057.8"/>
</g>
<!-- u13&#45;&gt;u11 -->
<g id="edge23" class="edge">
<title>u13&#45;&gt;u11</title>
<path fill="none" stroke="black" d="M5082.78,-2481.98C5103.85,-2411.77 5173.46,-2141.34 5046.39,-1994 4932.73,-1862.21 4430.33,-1803.47 4159.25,-1780.97"/>
<polygon fill="black" stroke="black" points="4159.16,-1777.45 4148.91,-1780.12 4158.59,-1784.43 4159.16,-1777.45"/>
</g>
<!-- u12&#45;&gt;u11 -->
<g id="edge22" class="edge">
<title>u12&#45;&gt;u11</title>
<path fill="none" stroke="black" d="M3917.46,-1993.98C3929.8,-1952.5 3961.51,-1845.9 3976.42,-1795.79"/>
<polygon fill="black" stroke="black" points="3979.84,-1796.58 3979.34,-1786 3973.13,-1794.58 3979.84,-1796.58"/>
</g>
<!-- u11&#45;&gt;u48 -->
<g id="edge21" class="edge">
<title>u11&#45;&gt;u48</title>
<path fill="none" stroke="black" d="M3941.08,-1750.18C3829.45,-1706.81 3532.33,-1591.4 3412.53,-1544.86"/>
<polygon fill="black" stroke="black" points="3413.78,-1541.59 3403.19,-1541.24 3411.24,-1548.12 3413.78,-1541.59"/>
</g>
<!-- u11&#45;&gt;u43 -->
<g id="edge20" class="edge">
<title>u11&#45;&gt;u43</title>
<path fill="none" stroke="black" d="M3986.32,-1749.63C3993.02,-1684.33 4012.44,-1447.84 3965.39,-1262 3945.82,-1184.67 3897.44,-1102.82 3871.49,-1062.5"/>
<polygon fill="black" stroke="black" points="3874.4,-1060.56 3866.01,-1054.09 3868.53,-1064.38 3874.4,-1060.56"/>
</g>
<!-- u19 -->
<g id="node41" class="node">
<title>u19</title>
<ellipse fill="#77ff77" stroke="black" cx="2121.39" cy="-2256" rx="228.56" ry="18"/>
<text text-anchor="middle" x="2121.39" y="-2252.3" font-family="Times,serif" font-size="14.00">Language.Drasil.Code.Imperative.Build.Import</text>
</g>
<!-- u18 -->
<g id="node42" class="node">
<title>u18</title>
<ellipse fill="#77ff77" stroke="black" cx="2121.39" cy="-2012" rx="215.56" ry="18"/>
<text text-anchor="middle" x="2121.39" y="-2008.3" font-family="Times,serif" font-size="14.00">Language.Drasil.Code.Imperative.Build.AST</text>
</g>
<!-- u19&#45;&gt;u18 -->
<g id="edge31" class="edge">
<title>u19&#45;&gt;u18</title>
<path fill="none" stroke="black" d="M2121.39,-2237.98C2121.39,-2196.69 2121.39,-2090.86 2121.39,-2040.47"/>
<polygon fill="black" stroke="black" points="2124.89,-2040.32 2121.39,-2030.32 2117.89,-2040.32 2124.89,-2040.32"/>
</g>
<!-- u33 -->
<g id="node43" class="node">
<title>u33</title>
<ellipse fill="#ffff77" stroke="black" cx="2378.39" cy="-1768" rx="245.06" ry="18"/>
<text text-anchor="middle" x="2378.39" y="-1764.3" font-family="Times,serif" font-size="14.00">Language.Drasil.Code.Imperative.Doxygen.Import</text>
</g>
<!-- u33&#45;&gt;u6 -->
<g id="edge57" class="edge">
<title>u33&#45;&gt;u6</title>
<path fill="none" stroke="black" d="M2397.47,-1749.99C2479.39,-1676.93 2801.5,-1389.7 2896.73,-1304.77"/>
<polygon fill="black" stroke="black" points="2899.34,-1307.14 2904.47,-1297.87 2894.68,-1301.92 2899.34,-1307.14"/>
</g>
<!-- u32 -->
<g id="node44" class="node">
<title>u32</title>
<ellipse fill="#7777ff" stroke="black" cx="3233.39" cy="-2256" rx="289.45" ry="18"/>
<text text-anchor="middle" x="3233.39" y="-2252.3" font-family="Times,serif" font-size="14.00">Language.Drasil.Code.Imperative.GOOL.LanguageRenderer</text>
</g>
<!-- u31&#45;&gt;u6 -->
<g id="edge56" class="edge">
<title>u31&#45;&gt;u6</title>
<path fill="none" stroke="black" d="M2918.81,-1749.86C2868.72,-1716.89 2764.28,-1639.22 2724.39,-1542 2682.89,-1440.85 2815.41,-1344.7 2884.39,-1302.88"/>
<polygon fill="black" stroke="black" points="2886.48,-1305.71 2893.28,-1297.58 2882.89,-1299.7 2886.48,-1305.71"/>
</g>
<!-- u30&#45;&gt;u24 -->
<g id="edge54" class="edge">
<title>u30&#45;&gt;u24</title>
<path fill="none" stroke="black" d="M796.64,-2726.33C1177.1,-2682.56 2247.51,-2559.42 2623.12,-2516.22"/>
<polygon fill="black" stroke="black" points="2623.68,-2519.68 2633.21,-2515.06 2622.88,-2512.72 2623.68,-2519.68"/>
</g>
<!-- u29 -->
<g id="node48" class="node">
<title>u29</title>
<ellipse fill="#ff7777" stroke="black" cx="2121.39" cy="-2500" rx="393.73" ry="18"/>
<text text-anchor="middle" x="2121.39" y="-2496.3" font-family="Times,serif" font-size="14.00">Language.Drasil.Code.Imperative.GOOL.LanguageRenderer.LanguagePolymorphic</text>
</g>
<!-- u30&#45;&gt;u29 -->
<g id="edge55" class="edge">
<title>u30&#45;&gt;u29</title>
<path fill="none" stroke="black" d="M759.38,-2725.67C1022.25,-2682.31 1736.5,-2564.49 2011.46,-2519.13"/>
<polygon fill="black" stroke="black" points="2012.15,-2522.57 2021.45,-2517.49 2011.01,-2515.66 2012.15,-2522.57"/>
</g>
<!-- u29&#45;&gt;u21 -->
<g id="edge51" class="edge">
<title>u29&#45;&gt;u21</title>
<path fill="none" stroke="black" d="M2092.16,-2481.83C2039.52,-2449.07 1929.95,-2372.12 1883.39,-2274 1833.53,-2168.92 1864.39,-2129.31 1864.39,-2013 1864.39,-2013 1864.39,-2013 1864.39,-1035 1864.39,-848.28 1985.58,-646.1 2031.79,-575.8"/>
<polygon fill="black" stroke="black" points="2034.92,-577.41 2037.54,-567.14 2029.09,-573.53 2034.92,-577.41"/>
</g>
<!-- u29&#45;&gt;u16 -->
<g id="edge49" class="edge">
<title>u29&#45;&gt;u16</title>
<path fill="none" stroke="black" d="M2159.65,-2481.98C2256.72,-2438.8 2512.42,-2325.05 2618.37,-2277.92"/>
<polygon fill="black" stroke="black" points="2619.83,-2281.1 2627.55,-2273.84 2616.99,-2274.7 2619.83,-2281.1"/>
</g>
<!-- u29&#45;&gt;u19 -->
<g id="edge50" class="edge">
<title>u29&#45;&gt;u19</title>
<path fill="none" stroke="black" d="M2121.39,-2481.98C2121.39,-2440.69 2121.39,-2334.86 2121.39,-2284.47"/>
<polygon fill="black" stroke="black" points="2124.89,-2284.32 2121.39,-2274.32 2117.89,-2284.32 2124.89,-2284.32"/>
</g>
<!-- u29&#45;&gt;u33 -->
<g id="edge53" class="edge">
<title>u29&#45;&gt;u33</title>
<path fill="none" stroke="black" d="M2150.96,-2481.98C2204.14,-2449.48 2314.56,-2372.92 2359.39,-2274 2435.32,-2106.47 2399.64,-1874.67 2384.22,-1796.2"/>
<polygon fill="black" stroke="black" points="2387.61,-1795.28 2382.19,-1786.17 2380.74,-1796.67 2387.61,-1795.28"/>
</g>
<!-- u29&#45;&gt;u32 -->
<g id="edge52" class="edge">
<title>u29&#45;&gt;u32</title>
<path fill="none" stroke="black" d="M2198.27,-2482.27C2399,-2438.59 2937.89,-2321.31 3147.93,-2275.6"/>
<polygon fill="black" stroke="black" points="3148.95,-2278.96 3157.98,-2273.41 3147.46,-2272.12 3148.95,-2278.96"/>
</g>
<!-- u28&#45;&gt;u24 -->
<g id="edge47" class="edge">
<title>u28&#45;&gt;u24</title>
<path fill="none" stroke="black" d="M1483.14,-2725.62C1730.51,-2681.95 2404.32,-2562.99 2657.49,-2518.28"/>
<polygon fill="black" stroke="black" points="2658.18,-2521.72 2667.41,-2516.53 2656.96,-2514.83 2658.18,-2521.72"/>
</g>
<!-- u28&#45;&gt;u29 -->
<g id="edge48" class="edge">
<title>u28&#45;&gt;u29</title>
<path fill="none" stroke="black" d="M1441.51,-2725.15C1572.34,-2682.02 1918.94,-2567.75 2060.18,-2521.18"/>
<polygon fill="black" stroke="black" points="2061.59,-2524.4 2069.99,-2517.95 2059.4,-2517.75 2061.59,-2524.4"/>
</g>
<!-- u27&#45;&gt;u24 -->
<g id="edge45" class="edge">
<title>u27&#45;&gt;u24</title>
<path fill="none" stroke="black" d="M2172.48,-2725.05C2284.71,-2681.92 2580.86,-2568.09 2702.3,-2521.41"/>
<polygon fill="black" stroke="black" points="2703.69,-2524.62 2711.77,-2517.77 2701.18,-2518.09 2703.69,-2524.62"/>
</g>
<!-- u27&#45;&gt;u29 -->
<g id="edge46" class="edge">
<title>u27&#45;&gt;u29</title>
<path fill="none" stroke="black" d="M2127.89,-2724.67C2126.69,-2683.24 2123.64,-2578.22 2122.19,-2528.24"/>
<polygon fill="black" stroke="black" points="2125.68,-2528.07 2121.89,-2518.18 2118.69,-2528.27 2125.68,-2528.07"/>
</g>
<!-- u26&#45;&gt;u24 -->
<g id="edge43" class="edge">
<title>u26&#45;&gt;u24</title>
<path fill="none" stroke="black" d="M2873.26,-2724.67C2851.29,-2682.98 2795.39,-2576.9 2769.26,-2527.3"/>
<polygon fill="black" stroke="black" points="2772.2,-2525.39 2764.45,-2518.18 2766.01,-2528.65 2772.2,-2525.39"/>
</g>
<!-- u26&#45;&gt;u29 -->
<g id="edge44" class="edge">
<title>u26&#45;&gt;u29</title>
<path fill="none" stroke="black" d="M2829.18,-2725.15C2692.77,-2681.95 2331,-2567.38 2184.41,-2520.96"/>
<polygon fill="black" stroke="black" points="2185.24,-2517.55 2174.65,-2517.87 2183.13,-2524.22 2185.24,-2517.55"/>
</g>
<!-- u25&#45;&gt;u24 -->
<g id="edge41" class="edge">
<title>u25&#45;&gt;u24</title>
<path fill="none" stroke="black" d="M3563.05,-2725.24C3406.86,-2681.88 2990.06,-2566.16 2824.54,-2520.2"/>
<polygon fill="black" stroke="black" points="2825.05,-2516.71 2814.48,-2517.41 2823.18,-2523.45 2825.05,-2516.71"/>
</g>
<!-- u25&#45;&gt;u29 -->
<g id="edge42" class="edge">
<title>u25&#45;&gt;u29</title>
<path fill="none" stroke="black" d="M3521.92,-2725.72C3251.77,-2682.37 2516.41,-2564.38 2233.97,-2519.06"/>
<polygon fill="black" stroke="black" points="2234.13,-2515.54 2223.7,-2517.42 2233.02,-2522.46 2234.13,-2515.54"/>
</g>
<!-- u17 -->
<g id="node53" class="node">
<title>u17</title>
<ellipse fill="#77ffff" stroke="black" cx="3263.39" cy="-2500" rx="267.55" ry="18"/>
<text text-anchor="middle" x="3263.39" y="-2496.3" font-family="Times,serif" font-size="14.00">Language.Drasil.Code.Imperative.Parsers.ConfigParser</text>
</g>
<!-- u17&#45;&gt;u32 -->
<g id="edge30" class="edge">
<title>u17&#45;&gt;u32</title>
<path fill="none" stroke="black" d="M3261.28,-2481.98C3256.17,-2440.69 3243.05,-2334.86 3236.8,-2284.47"/>
<polygon fill="black" stroke="black" points="3240.25,-2283.82 3235.54,-2274.32 3233.3,-2284.68 3240.25,-2283.82"/>
</g>
<!-- u8&#45;&gt;u45 -->
<g id="edge17" class="edge">
<title>u8&#45;&gt;u45</title>
<path fill="none" stroke="black" d="M3490.32,-1018.24C3563.66,-975.75 3756.95,-863.78 3839.33,-816.05"/>
<polygon fill="black" stroke="black" points="3841.21,-819.01 3848.11,-810.97 3837.7,-812.95 3841.21,-819.01"/>
</g>
<!-- u8&#45;&gt;u44 -->
<g id="edge16" class="edge">
<title>u8&#45;&gt;u44</title>
<path fill="none" stroke="black" d="M3461.39,-1017.67C3461.39,-976.24 3461.39,-871.22 3461.39,-821.24"/>
<polygon fill="black" stroke="black" points="3464.89,-821.18 3461.39,-811.18 3457.89,-821.18 3464.89,-821.18"/>
</g>
<!-- u8&#45;&gt;u42 -->
<g id="edge15" class="edge">
<title>u8&#45;&gt;u42</title>
<path fill="none" stroke="black" d="M3436.92,-1018.05C3375.65,-975.62 3215.58,-864.76 3146.22,-816.74"/>
<polygon fill="black" stroke="black" points="3148.05,-813.74 3137.84,-810.93 3144.07,-819.5 3148.05,-813.74"/>
</g>
<!-- u8&#45;&gt;u7 -->
<g id="edge14" class="edge">
<title>u8&#45;&gt;u7</title>
<path fill="none" stroke="black" d="M3416.36,-1018.53C3298.96,-975.6 2983.9,-860.38 2856.73,-813.87"/>
<polygon fill="black" stroke="black" points="2857.78,-810.53 2847.18,-810.38 2855.37,-817.1 2857.78,-810.53"/>
</g>
<!-- u7&#45;&gt;u1 -->
<g id="edge13" class="edge">
<title>u7&#45;&gt;u1</title>
<path fill="none" stroke="black" d="M2802.39,-774.67C2802.39,-678.26 2802.39,-207.89 2802.39,-89.23"/>
<polygon fill="black" stroke="black" points="2805.89,-89.16 2802.39,-79.16 2798.89,-89.16 2805.89,-89.16"/>
</g>
</g>
</svg>
