<?xml version="1.0" encoding="UTF-8" standalone="no"?>
<!DOCTYPE svg PUBLIC "-//W3C//DTD SVG 1.1//EN"
 "http://www.w3.org/Graphics/SVG/1.1/DTD/svg11.dtd">
<!-- Generated by graphviz version 2.43.0 (0)
 -->
<!-- Title: G Pages: 1 -->
<svg width="432pt" height="284pt"
 viewBox="0.00 0.00 432.00 284.39" xmlns="http://www.w3.org/2000/svg" xmlns:xlink="http://www.w3.org/1999/xlink">
<g id="graph0" class="graph" transform="scale(5.64 5.64) rotate(0) translate(4 1600)">
<title>G</title>
<polygon fill="white" stroke="transparent" points="-4,4 -4,-1600 2432.56,-1600 2432.56,4 -4,4"/>
<!-- u20 -->
<g id="node1" class="node">
<title>u20</title>
<ellipse fill="#bbffbb" stroke="black" cx="1016.68" cy="-1558" rx="69.59" ry="18"/>
<text text-anchor="middle" x="1016.68" y="-1554.3" font-family="Times,serif" font-size="14.00">GOOL.Drasil</text>
</g>
<!-- u19 -->
<g id="node2" class="node">
<title>u19</title>
<ellipse fill="#ffffbb" stroke="black" cx="159.68" cy="-1102" rx="113.98" ry="18"/>
<text text-anchor="middle" x="159.68" y="-1098.3" font-family="Times,serif" font-size="14.00">GOOL.Drasil.CodeInfo</text>
</g>
<!-- u20&#45;&gt;u19 -->
<g id="edge35" class="edge">
<title>u20&#45;&gt;u19</title>
<path fill="none" stroke="black" d="M949.6,-1553.03C736.72,-1539.77 86.75,-1493.82 25.68,-1424 -54.8,-1332 75.75,-1184.81 133.94,-1127.21"/>
<polygon fill="black" stroke="black" points="136.61,-1129.5 141.31,-1120.01 131.72,-1124.5 136.61,-1129.5"/>
</g>
<!-- u14 -->
<g id="node13" class="node">
<title>u14</title>
<ellipse fill="#bbbbff" stroke="black" cx="273.68" cy="-1406" rx="239.36" ry="18"/>
<text text-anchor="middle" x="273.68" y="-1402.3" font-family="Times,serif" font-size="14.00">GOOL.Drasil.LanguageRenderer.PythonRenderer</text>
</g>
<!-- u20&#45;&gt;u14 -->
<g id="edge34" class="edge">
<title>u20&#45;&gt;u14</title>
<path fill="none" stroke="black" d="M963.54,-1546.27C837.52,-1520.83 519.43,-1456.61 363.14,-1425.06"/>
<polygon fill="black" stroke="black" points="363.58,-1421.58 353.09,-1423.03 362.2,-1428.44 363.58,-1421.58"/>
</g>
<!-- u13 -->
<g id="node14" class="node">
<title>u13</title>
<ellipse fill="#bbbbff" stroke="black" cx="1735.68" cy="-1406" rx="225.56" ry="18"/>
<text text-anchor="middle" x="1735.68" y="-1402.3" font-family="Times,serif" font-size="14.00">GOOL.Drasil.LanguageRenderer.JavaRenderer</text>
</g>
<!-- u20&#45;&gt;u13 -->
<g id="edge33" class="edge">
<title>u20&#45;&gt;u13</title>
<path fill="none" stroke="black" d="M1068.96,-1546.09C1191.45,-1520.54 1497.98,-1456.59 1648.93,-1425.1"/>
<polygon fill="black" stroke="black" points="1650.01,-1428.45 1659.08,-1422.98 1648.58,-1421.6 1650.01,-1428.45"/>
</g>
<!-- u12 -->
<g id="node15" class="node">
<title>u12</title>
<ellipse fill="#bbbbff" stroke="black" cx="771.68" cy="-1406" rx="241.26" ry="18"/>
<text text-anchor="middle" x="771.68" y="-1402.3" font-family="Times,serif" font-size="14.00">GOOL.Drasil.LanguageRenderer.CSharpRenderer</text>
</g>
<!-- u20&#45;&gt;u12 -->
<g id="edge32" class="edge">
<title>u20&#45;&gt;u12</title>
<path fill="none" stroke="black" d="M990.92,-1541.23C947.11,-1514.41 857.98,-1459.84 807.9,-1429.18"/>
<polygon fill="black" stroke="black" points="809.68,-1426.16 799.33,-1423.93 806.03,-1432.13 809.68,-1426.16"/>
</g>
<!-- u8 -->
<g id="node19" class="node">
<title>u8</title>
<ellipse fill="#bbbbff" stroke="black" cx="1261.68" cy="-1406" rx="230.96" ry="18"/>
<text text-anchor="middle" x="1261.68" y="-1402.3" font-family="Times,serif" font-size="14.00">GOOL.Drasil.LanguageRenderer.SwiftRenderer</text>
</g>
<!-- u20&#45;&gt;u8 -->
<g id="edge31" class="edge">
<title>u20&#45;&gt;u8</title>
<path fill="none" stroke="black" d="M1042.43,-1541.23C1086.24,-1514.41 1175.38,-1459.84 1225.45,-1429.18"/>
<polygon fill="black" stroke="black" points="1227.33,-1432.13 1234.03,-1423.93 1223.67,-1426.16 1227.33,-1432.13"/>
</g>
<!-- u6 -->
<g id="node21" class="node">
<title>u6</title>
<ellipse fill="#bbbbff" stroke="black" cx="2203.68" cy="-1406" rx="224.76" ry="18"/>
<text text-anchor="middle" x="2203.68" y="-1402.3" font-family="Times,serif" font-size="14.00">GOOL.Drasil.LanguageRenderer.CppRenderer</text>
</g>
<!-- u20&#45;&gt;u6 -->
<g id="edge30" class="edge">
<title>u20&#45;&gt;u6</title>
<path fill="none" stroke="black" d="M1077.58,-1549.3C1263.47,-1525.81 1826.15,-1454.71 2078.67,-1422.8"/>
<polygon fill="black" stroke="black" points="2079.14,-1426.27 2088.62,-1421.54 2078.26,-1419.32 2079.14,-1426.27"/>
</g>
<!-- u1 -->
<g id="node10" class="node">
<title>u1</title>
<ellipse fill="#ffffbb" stroke="black" cx="553.68" cy="-494" rx="139.18" ry="18"/>
<text text-anchor="middle" x="553.68" y="-490.3" font-family="Times,serif" font-size="14.00">GOOL.Drasil.ClassInterface</text>
</g>
<!-- u19&#45;&gt;u1 -->
<g id="edge29" class="edge">
<title>u19&#45;&gt;u1</title>
<path fill="none" stroke="black" d="M170.83,-1083.84C226.14,-998.77 470.92,-622.29 537.12,-520.46"/>
<polygon fill="black" stroke="black" points="540.1,-522.3 542.62,-512.01 534.23,-518.49 540.1,-522.3"/>
</g>
<!-- u18 -->
<g id="node3" class="node">
<title>u18</title>
<ellipse fill="#ffffbb" stroke="black" cx="665.68" cy="-342" rx="108.58" ry="18"/>
<text text-anchor="middle" x="665.68" y="-338.3" font-family="Times,serif" font-size="14.00">GOOL.Drasil.Helpers</text>
</g>
<!-- u4 -->
<g id="node7" class="node">
<title>u4</title>
<ellipse fill="#ffffbb" stroke="black" cx="605.68" cy="-38" rx="118.08" ry="18"/>
<text text-anchor="middle" x="605.68" y="-34.3" font-family="Times,serif" font-size="14.00">GOOL.Drasil.CodeType</text>
</g>
<!-- u18&#45;&gt;u4 -->
<g id="edge28" class="edge">
<title>u18&#45;&gt;u4</title>
<path fill="none" stroke="black" d="M664.79,-323.56C662.99,-292.71 658.06,-226.63 646.68,-172 638.89,-134.62 625.09,-92.71 615.67,-66.11"/>
<polygon fill="black" stroke="black" points="618.85,-64.6 612.18,-56.37 612.26,-66.96 618.85,-64.6"/>
</g>
<!-- u17 -->
<g id="node4" class="node">
<title>u17</title>
<ellipse fill="#ffffbb" stroke="black" cx="1122.68" cy="-798" rx="161.37" ry="18"/>
<text text-anchor="middle" x="1122.68" y="-794.3" font-family="Times,serif" font-size="14.00">GOOL.Drasil.LanguageRenderer</text>
</g>
<!-- u5 -->
<g id="node6" class="node">
<title>u5</title>
<ellipse fill="#ffffbb" stroke="black" cx="795.68" cy="-646" rx="150.57" ry="18"/>
<text text-anchor="middle" x="795.68" y="-642.3" font-family="Times,serif" font-size="14.00">GOOL.Drasil.RendererClasses</text>
</g>
<!-- u17&#45;&gt;u5 -->
<g id="edge27" class="edge">
<title>u17&#45;&gt;u5</title>
<path fill="none" stroke="black" d="M1086.43,-780.37C1026.52,-752.89 906.96,-698.05 841.36,-667.95"/>
<polygon fill="black" stroke="black" points="842.63,-664.69 832.08,-663.7 839.71,-671.05 842.63,-664.69"/>
</g>
<!-- u16 -->
<g id="node5" class="node">
<title>u16</title>
<ellipse fill="#ffffbb" stroke="black" cx="442.68" cy="-342" rx="96.68" ry="18"/>
<text text-anchor="middle" x="442.68" y="-338.3" font-family="Times,serif" font-size="14.00">GOOL.Drasil.State</text>
</g>
<!-- u2 -->
<g id="node9" class="node">
<title>u2</title>
<ellipse fill="#ffffbb" stroke="black" cx="303.68" cy="-190" rx="133.78" ry="18"/>
<text text-anchor="middle" x="303.68" y="-186.3" font-family="Times,serif" font-size="14.00">GOOL.Drasil.CodeAnalysis</text>
</g>
<!-- u16&#45;&gt;u2 -->
<g id="edge26" class="edge">
<title>u16&#45;&gt;u2</title>
<path fill="none" stroke="black" d="M427,-324.08C402.5,-297.64 354.98,-246.37 326.62,-215.76"/>
<polygon fill="black" stroke="black" points="328.87,-213.04 319.51,-208.08 323.74,-217.8 328.87,-213.04"/>
</g>
<!-- u0 -->
<g id="node11" class="node">
<title>u0</title>
<ellipse fill="#ffffbb" stroke="black" cx="546.68" cy="-190" rx="90.98" ry="18"/>
<text text-anchor="middle" x="546.68" y="-186.3" font-family="Times,serif" font-size="14.00">GOOL.Drasil.AST</text>
</g>
<!-- u16&#45;&gt;u0 -->
<g id="edge25" class="edge">
<title>u16&#45;&gt;u0</title>
<path fill="none" stroke="black" d="M454.4,-324.08C472.58,-297.86 507.68,-247.24 528.96,-216.55"/>
<polygon fill="black" stroke="black" points="532.01,-218.3 534.83,-208.08 526.26,-214.31 532.01,-218.3"/>
</g>
<!-- u5&#45;&gt;u1 -->
<g id="edge4" class="edge">
<title>u5&#45;&gt;u1</title>
<path fill="none" stroke="black" d="M768.39,-628.08C724.52,-600.89 638.3,-547.45 589.52,-517.22"/>
<polygon fill="black" stroke="black" points="591.21,-514.15 580.87,-511.85 587.52,-520.1 591.21,-514.15"/>
</g>
<!-- u3 -->
<g id="node8" class="node">
<title>u3</title>
<ellipse fill="#ffffbb" stroke="black" cx="2203.68" cy="-1254" rx="107.48" ry="18"/>
<text text-anchor="middle" x="2203.68" y="-1250.3" font-family="Times,serif" font-size="14.00">GOOL.Drasil.Classes</text>
</g>
<!-- u1&#45;&gt;u18 -->
<g id="edge3" class="edge">
<title>u1&#45;&gt;u18</title>
<path fill="none" stroke="black" d="M566.52,-475.79C586.27,-449.35 624.19,-398.57 646.98,-368.04"/>
<polygon fill="black" stroke="black" points="649.8,-370.11 652.98,-360.01 644.19,-365.93 649.8,-370.11"/>
</g>
<!-- u1&#45;&gt;u16 -->
<g id="edge2" class="edge">
<title>u1&#45;&gt;u16</title>
<path fill="none" stroke="black" d="M540.94,-475.79C521.46,-449.46 484.12,-399 461.5,-368.43"/>
<polygon fill="black" stroke="black" points="464.02,-365.96 455.26,-360.01 458.4,-370.13 464.02,-365.96"/>
</g>
<!-- u0&#45;&gt;u4 -->
<g id="edge1" class="edge">
<title>u0&#45;&gt;u4</title>
<path fill="none" stroke="black" d="M553.44,-171.79C563.67,-145.8 583.14,-96.3 595.2,-65.63"/>
<polygon fill="black" stroke="black" points="598.58,-66.59 598.99,-56.01 592.07,-64.03 598.58,-66.59"/>
</g>
<!-- u15 -->
<g id="node12" class="node">
<title>u15</title>
<ellipse fill="#bbbbff" stroke="black" cx="1261.68" cy="-1254" rx="251.56" ry="18"/>
<text text-anchor="middle" x="1261.68" y="-1250.3" font-family="Times,serif" font-size="14.00">GOOL.Drasil.LanguageRenderer.CommonPseudoOO</text>
</g>
<!-- u7 -->
<g id="node20" class="node">
<title>u7</title>
<ellipse fill="#bbbbff" stroke="black" cx="1261.68" cy="-1102" rx="265.65" ry="18"/>
<text text-anchor="middle" x="1261.68" y="-1098.3" font-family="Times,serif" font-size="14.00">GOOL.Drasil.LanguageRenderer.LanguagePolymorphic</text>
</g>
<!-- u15&#45;&gt;u7 -->
<g id="edge24" class="edge">
<title>u15&#45;&gt;u7</title>
<path fill="none" stroke="black" d="M1261.68,-1235.79C1261.68,-1209.91 1261.68,-1160.73 1261.68,-1130.03"/>
<polygon fill="black" stroke="black" points="1265.18,-1130.01 1261.68,-1120.01 1258.18,-1130.01 1265.18,-1130.01"/>
</g>
<!-- u14&#45;&gt;u15 -->
<g id="edge23" class="edge">
<title>u14&#45;&gt;u15</title>
<path fill="none" stroke="black" d="M374.77,-1389.65C560.76,-1361.41 955.86,-1301.43 1149.7,-1272"/>
<polygon fill="black" stroke="black" points="1150.26,-1275.46 1159.62,-1270.49 1149.21,-1268.54 1150.26,-1275.46"/>
</g>
<!-- u9 -->
<g id="node18" class="node">
<title>u9</title>
<ellipse fill="#bbbbff" stroke="black" cx="795.68" cy="-1254" rx="196.87" ry="18"/>
<text text-anchor="middle" x="795.68" y="-1250.3" font-family="Times,serif" font-size="14.00">GOOL.Drasil.LanguageRenderer.Macros</text>
</g>
<!-- u14&#45;&gt;u9 -->
<g id="edge22" class="edge">
<title>u14&#45;&gt;u9</title>
<path fill="none" stroke="black" d="M331.03,-1388.52C428.53,-1360.5 626.03,-1303.75 729.32,-1274.07"/>
<polygon fill="black" stroke="black" points="730.37,-1277.41 739.02,-1271.28 728.44,-1270.68 730.37,-1277.41"/>
</g>
<!-- u13&#45;&gt;u15 -->
<g id="edge21" class="edge">
<title>u13&#45;&gt;u15</title>
<path fill="none" stroke="black" d="M1683.14,-1388.37C1595.14,-1360.53 1418.35,-1304.58 1324.13,-1274.77"/>
<polygon fill="black" stroke="black" points="1325.04,-1271.38 1314.45,-1271.7 1322.93,-1278.05 1325.04,-1271.38"/>
</g>
<!-- u10 -->
<g id="node17" class="node">
<title>u10</title>
<ellipse fill="#bbbbff" stroke="black" cx="1720.68" cy="-1254" rx="189.27" ry="18"/>
<text text-anchor="middle" x="1720.68" y="-1250.3" font-family="Times,serif" font-size="14.00">GOOL.Drasil.LanguageRenderer.CLike</text>
</g>
<!-- u13&#45;&gt;u10 -->
<g id="edge20" class="edge">
<title>u13&#45;&gt;u10</title>
<path fill="none" stroke="black" d="M1733.96,-1387.79C1731.37,-1361.91 1726.45,-1312.73 1723.38,-1282.03"/>
<polygon fill="black" stroke="black" points="1726.86,-1281.61 1722.38,-1272.01 1719.89,-1282.3 1726.86,-1281.61"/>
</g>
<!-- u13&#45;&gt;u9 -->
<g id="edge19" class="edge">
<title>u13&#45;&gt;u9</title>
<path fill="none" stroke="black" d="M1639.5,-1389.65C1461.46,-1361.24 1082.01,-1300.69 898.84,-1271.46"/>
<polygon fill="black" stroke="black" points="899.36,-1268 888.93,-1269.88 898.25,-1274.91 899.36,-1268"/>
</g>
<!-- u12&#45;&gt;u15 -->
<g id="edge18" class="edge">
<title>u12&#45;&gt;u15</title>
<path fill="none" stroke="black" d="M825.99,-1388.37C917.17,-1360.46 1100.57,-1304.32 1197.79,-1274.56"/>
<polygon fill="black" stroke="black" points="1198.96,-1277.86 1207.5,-1271.59 1196.91,-1271.17 1198.96,-1277.86"/>
</g>
<!-- u12&#45;&gt;u10 -->
<g id="edge17" class="edge">
<title>u12&#45;&gt;u10</title>
<path fill="none" stroke="black" d="M869.66,-1389.51C1050.2,-1360.98 1433.71,-1300.36 1617.83,-1271.26"/>
<polygon fill="black" stroke="black" points="1618.46,-1274.7 1627.79,-1269.68 1617.36,-1267.79 1618.46,-1274.7"/>
</g>
<!-- u12&#45;&gt;u9 -->
<g id="edge16" class="edge">
<title>u12&#45;&gt;u9</title>
<path fill="none" stroke="black" d="M774.43,-1387.79C778.57,-1361.91 786.44,-1312.73 791.35,-1282.03"/>
<polygon fill="black" stroke="black" points="794.83,-1282.43 792.96,-1272.01 787.92,-1281.33 794.83,-1282.43"/>
</g>
<!-- u11 -->
<g id="node16" class="node">
<title>u11</title>
<ellipse fill="#bbbbff" stroke="black" cx="1261.68" cy="-950" rx="223.66" ry="18"/>
<text text-anchor="middle" x="1261.68" y="-946.3" font-family="Times,serif" font-size="14.00">GOOL.Drasil.LanguageRenderer.Constructors</text>
</g>
<!-- u11&#45;&gt;u17 -->
<g id="edge15" class="edge">
<title>u11&#45;&gt;u17</title>
<path fill="none" stroke="black" d="M1245.73,-931.79C1221.12,-905.23 1173.77,-854.13 1145.52,-823.65"/>
<polygon fill="black" stroke="black" points="1147.8,-820.96 1138.44,-816.01 1142.67,-825.72 1147.8,-820.96"/>
</g>
<!-- u10&#45;&gt;u11 -->
<g id="edge14" class="edge">
<title>u10&#45;&gt;u11</title>
<path fill="none" stroke="black" d="M1705.31,-1235.88C1675.34,-1203.21 1605.92,-1131.04 1536.68,-1084 1465.14,-1035.41 1373.16,-994.75 1315.8,-971.64"/>
<polygon fill="black" stroke="black" points="1316.79,-968.27 1306.21,-967.81 1314.2,-974.77 1316.79,-968.27"/>
</g>
<!-- u9&#45;&gt;u5 -->
<g id="edge13" class="edge">
<title>u9&#45;&gt;u5</title>
<path fill="none" stroke="black" d="M795.68,-1235.84C795.68,-1151.2 795.68,-778.07 795.68,-674.02"/>
<polygon fill="black" stroke="black" points="799.18,-674.01 795.68,-664.01 792.18,-674.01 799.18,-674.01"/>
</g>
<!-- u8&#45;&gt;u15 -->
<g id="edge12" class="edge">
<title>u8&#45;&gt;u15</title>
<path fill="none" stroke="black" d="M1261.68,-1387.79C1261.68,-1361.91 1261.68,-1312.73 1261.68,-1282.03"/>
<polygon fill="black" stroke="black" points="1265.18,-1282.01 1261.68,-1272.01 1258.18,-1282.01 1265.18,-1282.01"/>
</g>
<!-- u8&#45;&gt;u10 -->
<g id="edge11" class="edge">
<title>u8&#45;&gt;u10</title>
<path fill="none" stroke="black" d="M1312.55,-1388.37C1397.9,-1360.48 1569.52,-1304.4 1660.64,-1274.62"/>
<polygon fill="black" stroke="black" points="1661.86,-1277.9 1670.27,-1271.47 1659.68,-1271.25 1661.86,-1277.9"/>
</g>
<!-- u8&#45;&gt;u9 -->
<g id="edge10" class="edge">
<title>u8&#45;&gt;u9</title>
<path fill="none" stroke="black" d="M1210.03,-1388.37C1123.37,-1360.48 949.14,-1304.4 856.63,-1274.62"/>
<polygon fill="black" stroke="black" points="857.44,-1271.2 846.85,-1271.47 855.3,-1277.87 857.44,-1271.2"/>
</g>
<!-- u7&#45;&gt;u11 -->
<g id="edge9" class="edge">
<title>u7&#45;&gt;u11</title>
<path fill="none" stroke="black" d="M1261.68,-1083.79C1261.68,-1057.91 1261.68,-1008.73 1261.68,-978.03"/>
<polygon fill="black" stroke="black" points="1265.18,-978.01 1261.68,-968.01 1258.18,-978.01 1265.18,-978.01"/>
</g>
<!-- u6&#45;&gt;u3 -->
<g id="edge5" class="edge">
<title>u6&#45;&gt;u3</title>
<path fill="none" stroke="black" d="M2203.68,-1387.79C2203.68,-1361.91 2203.68,-1312.73 2203.68,-1282.03"/>
<polygon fill="black" stroke="black" points="2207.18,-1282.01 2203.68,-1272.01 2200.18,-1282.01 2207.18,-1282.01"/>
</g>
<!-- u6&#45;&gt;u15 -->
<g id="edge8" class="edge">
<title>u6&#45;&gt;u15</title>
<path fill="none" stroke="black" d="M2107.29,-1389.65C1930.37,-1361.48 1554.98,-1301.7 1369.72,-1272.2"/>
<polygon fill="black" stroke="black" points="1370.11,-1268.72 1359.69,-1270.61 1369.01,-1275.64 1370.11,-1268.72"/>
</g>
<!-- u6&#45;&gt;u10 -->
<g id="edge7" class="edge">
<title>u6&#45;&gt;u10</title>
<path fill="none" stroke="black" d="M2150.14,-1388.37C2060.12,-1360.42 1878.89,-1304.14 1783.18,-1274.41"/>
<polygon fill="black" stroke="black" points="1783.94,-1270.98 1773.35,-1271.36 1781.86,-1277.67 1783.94,-1270.98"/>
</g>
<!-- u6&#45;&gt;u9 -->
<g id="edge6" class="edge">
<title>u6&#45;&gt;u9</title>
<path fill="none" stroke="black" d="M2074.37,-1391.22C1807.73,-1362.82 1199.26,-1298 929.13,-1269.22"/>
<polygon fill="black" stroke="black" points="929.19,-1265.7 918.88,-1268.13 928.45,-1272.66 929.19,-1265.7"/>
</g>
</g>
</svg>
