<?xml version="1.0" encoding="UTF-8" standalone="no"?>
<!DOCTYPE svg PUBLIC "-//W3C//DTD SVG 1.1//EN"
 "http://www.w3.org/Graphics/SVG/1.1/DTD/svg11.dtd">
<!-- Generated by graphviz version 2.43.0 (0)
 -->
<!-- Title: G Pages: 1 -->
<svg width="431pt" height="288pt"
 viewBox="0.00 0.00 431.18 288.00" xmlns="http://www.w3.org/2000/svg" xmlns:xlink="http://www.w3.org/1999/xlink">
<g id="graph0" class="graph" transform="scale(4.82 4.82) rotate(0) translate(4 1384.67)">
<title>G</title>
<polygon fill="white" stroke="transparent" points="-4,4 -4,-1384.67 2075.07,-1384.67 2075.07,4 -4,4"/>
<!-- u31 -->
<g id="node1" class="node">
<title>u31</title>
<ellipse fill="#bbffbb" stroke="black" cx="1620.23" cy="-1132" rx="123.48" ry="18"/>
<text text-anchor="middle" x="1620.23" y="-1128.3" font-family="Times,serif" font-size="14.00">Language.Drasil.Format</text>
</g>
<!-- u30 -->
<g id="node2" class="node">
<title>u30</title>
<ellipse fill="#bbffbb" stroke="black" cx="1067.23" cy="-690" rx="119.68" ry="18"/>
<text text-anchor="middle" x="1067.23" y="-686.3" font-family="Times,serif" font-size="14.00">Language.Drasil.Config</text>
</g>
<!-- u16 -->
<g id="node3" class="node">
<title>u16</title>
<ellipse fill="#bbffbb" stroke="black" cx="1659.23" cy="-1353" rx="128.08" ry="18"/>
<text text-anchor="middle" x="1659.23" y="-1349.3" font-family="Times,serif" font-size="14.00">Language.Drasil.Printers</text>
</g>
<!-- u24 -->
<g id="node4" class="node">
<title>u24</title>
<ellipse fill="#ffffbb" stroke="black" cx="1935.23" cy="-1243" rx="135.68" ry="18"/>
<text text-anchor="middle" x="1935.23" y="-1239.3" font-family="Times,serif" font-size="14.00">Language.Drasil.DOT.Print</text>
</g>
<!-- u16&#45;&gt;u24 -->
<g id="edge22" class="edge">
<title>u16&#45;&gt;u24</title>
<path fill="none" stroke="black" d="M1700.25,-1335.95C1749.17,-1316.81 1830.95,-1284.81 1883.98,-1264.06"/>
<polygon fill="black" stroke="black" points="1885.49,-1267.22 1893.53,-1260.32 1882.94,-1260.7 1885.49,-1267.22"/>
</g>
<!-- u22 -->
<g id="node10" class="node">
<title>u22</title>
<ellipse fill="#ffbbbb" stroke="black" cx="1436.23" cy="-1243" rx="140.28" ry="18"/>
<text text-anchor="middle" x="1436.23" y="-1239.3" font-family="Times,serif" font-size="14.00">Language.Drasil.JSON.Print</text>
</g>
<!-- u16&#45;&gt;u22 -->
<g id="edge21" class="edge">
<title>u16&#45;&gt;u22</title>
<path fill="none" stroke="black" d="M1625.36,-1335.6C1586.31,-1316.69 1522.05,-1285.56 1479.43,-1264.92"/>
<polygon fill="black" stroke="black" points="1480.94,-1261.77 1470.42,-1260.56 1477.89,-1268.07 1480.94,-1261.77"/>
</g>
<!-- u29 -->
<g id="node11" class="node">
<title>u29</title>
<ellipse fill="#bbffff" stroke="black" cx="981.23" cy="-1243" rx="133.48" ry="18"/>
<text text-anchor="middle" x="981.23" y="-1239.3" font-family="Times,serif" font-size="14.00">Language.Drasil.Log.Print</text>
</g>
<!-- u16&#45;&gt;u29 -->
<g id="edge23" class="edge">
<title>u16&#45;&gt;u29</title>
<path fill="none" stroke="black" d="M1577.79,-1339.03C1451.08,-1318.84 1207.49,-1280.04 1074.12,-1258.8"/>
<polygon fill="black" stroke="black" points="1074.35,-1255.29 1063.93,-1257.17 1073.25,-1262.2 1074.35,-1255.29"/>
</g>
<!-- u17 -->
<g id="node12" class="node">
<title>u17</title>
<ellipse fill="#ffbbff" stroke="black" cx="1771.23" cy="-911" rx="188.47" ry="18"/>
<text text-anchor="middle" x="1771.23" y="-907.3" font-family="Times,serif" font-size="14.00">Language.Drasil.Markdown.CreateMd</text>
</g>
<!-- u16&#45;&gt;u17 -->
<g id="edge20" class="edge">
<title>u16&#45;&gt;u17</title>
<path fill="none" stroke="black" d="M1669.62,-1334.95C1689.65,-1301.11 1733.3,-1222.47 1752.23,-1150 1771.69,-1075.53 1772.92,-983.87 1772.12,-939.15"/>
<polygon fill="black" stroke="black" points="1775.62,-938.99 1771.89,-929.07 1768.62,-939.15 1775.62,-938.99"/>
</g>
<!-- u21 -->
<g id="node5" class="node">
<title>u21</title>
<ellipse fill="#bbbbff" stroke="black" cx="711.23" cy="-1022" rx="153.27" ry="18"/>
<text text-anchor="middle" x="711.23" y="-1018.3" font-family="Times,serif" font-size="14.00">Language.Drasil.HTML.Monad</text>
</g>
<!-- u20 -->
<g id="node6" class="node">
<title>u20</title>
<ellipse fill="#bbbbff" stroke="black" cx="1325.23" cy="-1022" rx="157.87" ry="18"/>
<text text-anchor="middle" x="1325.23" y="-1018.3" font-family="Times,serif" font-size="14.00">Language.Drasil.HTML.Helpers</text>
</g>
<!-- u5 -->
<g id="node15" class="node">
<title>u5</title>
<ellipse fill="#ffff77" stroke="black" cx="1189.23" cy="-28" rx="149.47" ry="18"/>
<text text-anchor="middle" x="1189.23" y="-24.3" font-family="Times,serif" font-size="14.00">Language.Drasil.Printing.AST</text>
</g>
<!-- u20&#45;&gt;u5 -->
<g id="edge29" class="edge">
<title>u20&#45;&gt;u5</title>
<path fill="none" stroke="black" d="M1309.7,-1004.02C1279.38,-969.04 1215.23,-885.18 1215.23,-802 1215.23,-802 1215.23,-802 1215.23,-248 1215.23,-178.44 1202.14,-97.31 1194.53,-56.06"/>
<polygon fill="black" stroke="black" points="1197.97,-55.42 1192.68,-46.24 1191.09,-56.71 1197.97,-55.42"/>
</g>
<!-- u19 -->
<g id="node7" class="node">
<title>u19</title>
<ellipse fill="#bbbbff" stroke="black" cx="1009.23" cy="-1132" rx="144.87" ry="18"/>
<text text-anchor="middle" x="1009.23" y="-1128.3" font-family="Times,serif" font-size="14.00">Language.Drasil.HTML.Print</text>
</g>
<!-- u19&#45;&gt;u21 -->
<g id="edge27" class="edge">
<title>u19&#45;&gt;u21</title>
<path fill="none" stroke="black" d="M964.62,-1114.83C911.51,-1095.58 822.85,-1063.45 765.73,-1042.75"/>
<polygon fill="black" stroke="black" points="766.74,-1039.4 756.15,-1039.28 764.36,-1045.98 766.74,-1039.4"/>
</g>
<!-- u19&#45;&gt;u20 -->
<g id="edge26" class="edge">
<title>u19&#45;&gt;u20</title>
<path fill="none" stroke="black" d="M1056.2,-1114.95C1112.63,-1095.66 1207.27,-1063.31 1267.94,-1042.58"/>
<polygon fill="black" stroke="black" points="1269.42,-1045.77 1277.75,-1039.23 1267.15,-1039.15 1269.42,-1045.77"/>
</g>
<!-- u18 -->
<g id="node8" class="node">
<title>u18</title>
<ellipse fill="#bbbbff" stroke="black" cx="399.23" cy="-1022" rx="140.28" ry="18"/>
<text text-anchor="middle" x="399.23" y="-1018.3" font-family="Times,serif" font-size="14.00">Language.Drasil.HTML.CSS</text>
</g>
<!-- u19&#45;&gt;u18 -->
<g id="edge25" class="edge">
<title>u19&#45;&gt;u18</title>
<path fill="none" stroke="black" d="M929.8,-1116.94C815.99,-1096.79 607.19,-1059.82 488.28,-1038.77"/>
<polygon fill="black" stroke="black" points="488.58,-1035.26 478.12,-1036.97 487.36,-1042.16 488.58,-1035.26"/>
</g>
<!-- u25 -->
<g id="node32" class="node">
<title>u25</title>
<ellipse fill="#ff7777" stroke="black" cx="1016.23" cy="-1022" rx="133.48" ry="18"/>
<text text-anchor="middle" x="1016.23" y="-1018.3" font-family="Times,serif" font-size="14.00">Language.Drasil.TeX.Print</text>
</g>
<!-- u19&#45;&gt;u25 -->
<g id="edge28" class="edge">
<title>u19&#45;&gt;u25</title>
<path fill="none" stroke="black" d="M1010.36,-1113.65C1011.46,-1096.56 1013.17,-1070.22 1014.46,-1050.32"/>
<polygon fill="black" stroke="black" points="1017.96,-1050.51 1015.11,-1040.31 1010.97,-1050.06 1017.96,-1050.51"/>
</g>
<!-- u23 -->
<g id="node9" class="node">
<title>u23</title>
<ellipse fill="#ffbbbb" stroke="black" cx="1325.23" cy="-1132" rx="153.27" ry="18"/>
<text text-anchor="middle" x="1325.23" y="-1128.3" font-family="Times,serif" font-size="14.00">Language.Drasil.JSON.Helpers</text>
</g>
<!-- u23&#45;&gt;u20 -->
<g id="edge34" class="edge">
<title>u23&#45;&gt;u20</title>
<path fill="none" stroke="black" d="M1325.23,-1113.65C1325.23,-1096.56 1325.23,-1070.22 1325.23,-1050.32"/>
<polygon fill="black" stroke="black" points="1328.73,-1050.31 1325.23,-1040.31 1321.73,-1050.31 1328.73,-1050.31"/>
</g>
<!-- u3 -->
<g id="node17" class="node">
<title>u3</title>
<ellipse fill="#ffff77" stroke="black" cx="1528.23" cy="-580" rx="167.07" ry="18"/>
<text text-anchor="middle" x="1528.23" y="-576.3" font-family="Times,serif" font-size="14.00">Language.Drasil.Printing.Helpers</text>
</g>
<!-- u23&#45;&gt;u3 -->
<g id="edge33" class="edge">
<title>u23&#45;&gt;u3</title>
<path fill="none" stroke="black" d="M1371.63,-1114.76C1408.21,-1100 1458.52,-1075.15 1492.23,-1040 1536.13,-994.24 1555.23,-975.41 1555.23,-912 1555.23,-912 1555.23,-912 1555.23,-800 1555.23,-730.4 1541.63,-649.28 1533.74,-608.06"/>
<polygon fill="black" stroke="black" points="1537.17,-607.37 1531.82,-598.23 1530.3,-608.71 1537.17,-607.37"/>
</g>
<!-- u22&#45;&gt;u31 -->
<g id="edge32" class="edge">
<title>u22&#45;&gt;u31</title>
<path fill="none" stroke="black" d="M1464.58,-1225.21C1496.41,-1206.35 1548.19,-1175.68 1583.2,-1154.94"/>
<polygon fill="black" stroke="black" points="1585.33,-1157.74 1592.15,-1149.63 1581.77,-1151.72 1585.33,-1157.74"/>
</g>
<!-- u22&#45;&gt;u19 -->
<g id="edge30" class="edge">
<title>u22&#45;&gt;u19</title>
<path fill="none" stroke="black" d="M1375.96,-1226.61C1297.87,-1206.68 1161.97,-1171.99 1079.35,-1150.9"/>
<polygon fill="black" stroke="black" points="1080.1,-1147.48 1069.54,-1148.4 1078.37,-1154.26 1080.1,-1147.48"/>
</g>
<!-- u22&#45;&gt;u23 -->
<g id="edge31" class="edge">
<title>u22&#45;&gt;u23</title>
<path fill="none" stroke="black" d="M1418.89,-1224.97C1400.32,-1206.73 1370.69,-1177.64 1349.74,-1157.07"/>
<polygon fill="black" stroke="black" points="1352.04,-1154.42 1342.45,-1149.91 1347.14,-1159.42 1352.04,-1154.42"/>
</g>
<!-- u0 -->
<g id="node13" class="node">
<title>u0</title>
<ellipse fill="#77ff77" stroke="black" cx="469.23" cy="-1132" rx="139.98" ry="18"/>
<text text-anchor="middle" x="469.23" y="-1128.3" font-family="Times,serif" font-size="14.00">Language.Drasil.Plain.Print</text>
</g>
<!-- u29&#45;&gt;u0 -->
<g id="edge42" class="edge">
<title>u29&#45;&gt;u0</title>
<path fill="none" stroke="black" d="M912.98,-1227.47C818.48,-1207.35 648.18,-1171.1 548.28,-1149.83"/>
<polygon fill="black" stroke="black" points="548.75,-1146.35 538.24,-1147.69 547.29,-1153.2 548.75,-1146.35"/>
</g>
<!-- u17&#45;&gt;u3 -->
<g id="edge24" class="edge">
<title>u17&#45;&gt;u3</title>
<path fill="none" stroke="black" d="M1758.51,-892.77C1718.4,-838.48 1594.48,-670.69 1547,-606.41"/>
<polygon fill="black" stroke="black" points="1549.58,-604.02 1540.83,-598.05 1543.95,-608.18 1549.58,-604.02"/>
</g>
<!-- u1 -->
<g id="node19" class="node">
<title>u1</title>
<ellipse fill="#ffff77" stroke="black" cx="346.23" cy="-911" rx="162.47" ry="18"/>
<text text-anchor="middle" x="346.23" y="-907.3" font-family="Times,serif" font-size="14.00">Language.Drasil.Printing.Import</text>
</g>
<!-- u0&#45;&gt;u1 -->
<g id="edge1" class="edge">
<title>u0&#45;&gt;u1</title>
<path fill="none" stroke="black" d="M380.28,-1118.03C333.17,-1106.14 279.2,-1083.41 250.23,-1040 224.75,-1001.82 272.17,-959.59 308.99,-934.46"/>
<polygon fill="black" stroke="black" points="311.19,-937.19 317.6,-928.75 307.33,-931.36 311.19,-937.19"/>
</g>
<!-- u6 -->
<g id="node14" class="node">
<title>u6</title>
<ellipse fill="#ffff77" stroke="black" cx="1411.23" cy="-469" rx="167.87" ry="18"/>
<text text-anchor="middle" x="1411.23" y="-465.3" font-family="Times,serif" font-size="14.00">Language.Drasil.Printing.Citation</text>
</g>
<!-- u6&#45;&gt;u5 -->
<g id="edge5" class="edge">
<title>u6&#45;&gt;u5</title>
<path fill="none" stroke="black" d="M1402.53,-450.79C1368.4,-383.31 1243.57,-136.46 1202.46,-55.16"/>
<polygon fill="black" stroke="black" points="1205.51,-53.43 1197.87,-46.09 1199.26,-56.59 1205.51,-53.43"/>
</g>
<!-- u4 -->
<g id="node16" class="node">
<title>u4</title>
<ellipse fill="#ffff77" stroke="black" cx="683.23" cy="-138" rx="223.66" ry="18"/>
<text text-anchor="middle" x="683.23" y="-134.3" font-family="Times,serif" font-size="14.00">Language.Drasil.Printing.PrintingInformation</text>
</g>
<!-- u3&#45;&gt;u6 -->
<g id="edge4" class="edge">
<title>u3&#45;&gt;u6</title>
<path fill="none" stroke="black" d="M1509.95,-561.97C1490.29,-543.65 1458.88,-514.39 1436.78,-493.8"/>
<polygon fill="black" stroke="black" points="1439.09,-491.17 1429.38,-486.91 1434.32,-496.29 1439.09,-491.17"/>
</g>
<!-- u2 -->
<g id="node18" class="node">
<title>u2</title>
<ellipse fill="#ffff77" stroke="black" cx="751.23" cy="-690" rx="178.97" ry="18"/>
<text text-anchor="middle" x="751.23" y="-686.3" font-family="Times,serif" font-size="14.00">Language.Drasil.Printing.LayoutObj</text>
</g>
<!-- u2&#45;&gt;u6 -->
<g id="edge3" class="edge">
<title>u2&#45;&gt;u6</title>
<path fill="none" stroke="black" d="M800.57,-672.63C920.01,-633 1224.29,-532.03 1352.67,-489.43"/>
<polygon fill="black" stroke="black" points="1353.95,-492.69 1362.34,-486.22 1351.75,-486.05 1353.95,-492.69"/>
</g>
<!-- u9 -->
<g id="node26" class="node">
<title>u9</title>
<ellipse fill="#7777ff" stroke="black" cx="346.23" cy="-801" rx="212.56" ry="18"/>
<text text-anchor="middle" x="346.23" y="-797.3" font-family="Times,serif" font-size="14.00">Language.Drasil.Printing.Import.Document</text>
</g>
<!-- u1&#45;&gt;u9 -->
<g id="edge2" class="edge">
<title>u1&#45;&gt;u9</title>
<path fill="none" stroke="black" d="M346.23,-892.65C346.23,-875.56 346.23,-849.22 346.23,-829.32"/>
<polygon fill="black" stroke="black" points="349.73,-829.31 346.23,-819.31 342.73,-829.31 349.73,-829.31"/>
</g>
<!-- u15 -->
<g id="node20" class="node">
<title>u15</title>
<ellipse fill="#7777ff" stroke="black" cx="423.23" cy="-580" rx="216.36" ry="18"/>
<text text-anchor="middle" x="423.23" y="-576.3" font-family="Times,serif" font-size="14.00">Language.Drasil.Printing.Import.ModelExpr</text>
</g>
<!-- u12 -->
<g id="node23" class="node">
<title>u12</title>
<ellipse fill="#7777ff" stroke="black" cx="491.23" cy="-469" rx="193.07" ry="18"/>
<text text-anchor="middle" x="491.23" y="-465.3" font-family="Times,serif" font-size="14.00">Language.Drasil.Printing.Import.Space</text>
</g>
<!-- u15&#45;&gt;u12 -->
<g id="edge19" class="edge">
<title>u15&#45;&gt;u12</title>
<path fill="none" stroke="black" d="M433.86,-561.97C444.92,-544.24 462.38,-516.24 475.14,-495.8"/>
<polygon fill="black" stroke="black" points="478.13,-497.61 480.46,-487.27 472.19,-493.9 478.13,-497.61"/>
</g>
<!-- u14 -->
<g id="node21" class="node">
<title>u14</title>
<ellipse fill="#7777ff" stroke="black" cx="239.23" cy="-249" rx="196.07" ry="18"/>
<text text-anchor="middle" x="239.23" y="-245.3" font-family="Times,serif" font-size="14.00">Language.Drasil.Printing.Import.Literal</text>
</g>
<!-- u14&#45;&gt;u4 -->
<g id="edge17" class="edge">
<title>u14&#45;&gt;u4</title>
<path fill="none" stroke="black" d="M304.74,-231.92C385.38,-212.12 522.05,-178.57 607.22,-157.66"/>
<polygon fill="black" stroke="black" points="608.21,-161.02 617.09,-155.24 606.54,-154.22 608.21,-161.02"/>
</g>
<!-- u10 -->
<g id="node25" class="node">
<title>u10</title>
<ellipse fill="#7777ff" stroke="black" cx="239.23" cy="-138" rx="202.26" ry="18"/>
<text text-anchor="middle" x="239.23" y="-134.3" font-family="Times,serif" font-size="14.00">Language.Drasil.Printing.Import.Helpers</text>
</g>
<!-- u14&#45;&gt;u10 -->
<g id="edge18" class="edge">
<title>u14&#45;&gt;u10</title>
<path fill="none" stroke="black" d="M239.23,-230.97C239.23,-213.71 239.23,-186.74 239.23,-166.46"/>
<polygon fill="black" stroke="black" points="242.73,-166.27 239.23,-156.27 235.73,-166.27 242.73,-166.27"/>
</g>
<!-- u13 -->
<g id="node22" class="node">
<title>u13</title>
<ellipse fill="#7777ff" stroke="black" cx="211.23" cy="-359" rx="211.46" ry="18"/>
<text text-anchor="middle" x="211.23" y="-355.3" font-family="Times,serif" font-size="14.00">Language.Drasil.Printing.Import.CodeExpr</text>
</g>
<!-- u13&#45;&gt;u14 -->
<g id="edge16" class="edge">
<title>u13&#45;&gt;u14</title>
<path fill="none" stroke="black" d="M215.73,-340.65C220.18,-323.49 227.05,-296.97 232.22,-277.04"/>
<polygon fill="black" stroke="black" points="235.62,-277.87 234.74,-267.31 228.85,-276.11 235.62,-277.87"/>
</g>
<!-- u7 -->
<g id="node28" class="node">
<title>u7</title>
<ellipse fill="#7777ff" stroke="black" cx="653.23" cy="-249" rx="200.36" ry="18"/>
<text text-anchor="middle" x="653.23" y="-245.3" font-family="Times,serif" font-size="14.00">Language.Drasil.Printing.Import.Symbol</text>
</g>
<!-- u13&#45;&gt;u7 -->
<g id="edge15" class="edge">
<title>u13&#45;&gt;u7</title>
<path fill="none" stroke="black" d="M277.4,-341.83C357.9,-322.16 493.48,-289.03 577.91,-268.4"/>
<polygon fill="black" stroke="black" points="578.81,-271.79 587.69,-266.01 577.15,-264.99 578.81,-271.79"/>
</g>
<!-- u8 -->
<g id="node27" class="node">
<title>u8</title>
<ellipse fill="#7777ff" stroke="black" cx="628.23" cy="-359" rx="187.67" ry="18"/>
<text text-anchor="middle" x="628.23" y="-355.3" font-family="Times,serif" font-size="14.00">Language.Drasil.Printing.Import.Expr</text>
</g>
<!-- u12&#45;&gt;u8 -->
<g id="edge14" class="edge">
<title>u12&#45;&gt;u8</title>
<path fill="none" stroke="black" d="M512.94,-450.89C536.09,-432.64 572.89,-403.63 598.67,-383.3"/>
<polygon fill="black" stroke="black" points="600.94,-385.97 606.62,-377.03 596.6,-380.48 600.94,-385.97"/>
</g>
<!-- u11 -->
<g id="node24" class="node">
<title>u11</title>
<ellipse fill="#7777ff" stroke="black" cx="346.23" cy="-690" rx="207.96" ry="18"/>
<text text-anchor="middle" x="346.23" y="-686.3" font-family="Times,serif" font-size="14.00">Language.Drasil.Printing.Import.Sentence</text>
</g>
<!-- u11&#45;&gt;u15 -->
<g id="edge13" class="edge">
<title>u11&#45;&gt;u15</title>
<path fill="none" stroke="black" d="M358.6,-671.65C371.12,-654.09 390.61,-626.75 404.92,-606.68"/>
<polygon fill="black" stroke="black" points="407.94,-608.48 410.89,-598.31 402.24,-604.42 407.94,-608.48"/>
</g>
<!-- u10&#45;&gt;u5 -->
<g id="edge12" class="edge">
<title>u10&#45;&gt;u5</title>
<path fill="none" stroke="black" d="M358.59,-123.43C542.61,-102.51 893.26,-62.65 1074.47,-42.05"/>
<polygon fill="black" stroke="black" points="1075.02,-45.51 1084.56,-40.9 1074.23,-38.55 1075.02,-45.51"/>
</g>
<!-- u9&#45;&gt;u2 -->
<g id="edge9" class="edge">
<title>u9&#45;&gt;u2</title>
<path fill="none" stroke="black" d="M406.86,-783.68C480.61,-763.83 604.81,-730.41 682.17,-709.59"/>
<polygon fill="black" stroke="black" points="683.09,-712.96 691.83,-706.99 681.27,-706.2 683.09,-712.96"/>
</g>
<!-- u9&#45;&gt;u13 -->
<g id="edge11" class="edge">
<title>u9&#45;&gt;u13</title>
<path fill="none" stroke="black" d="M252.21,-784.83C206.96,-772.28 156.68,-749.45 129.23,-708 59.82,-603.18 151.57,-446.39 192.92,-385.48"/>
<polygon fill="black" stroke="black" points="195.83,-387.42 198.62,-377.2 190.06,-383.45 195.83,-387.42"/>
</g>
<!-- u9&#45;&gt;u11 -->
<g id="edge10" class="edge">
<title>u9&#45;&gt;u11</title>
<path fill="none" stroke="black" d="M346.23,-782.97C346.23,-765.71 346.23,-738.74 346.23,-718.46"/>
<polygon fill="black" stroke="black" points="349.73,-718.27 346.23,-708.27 342.73,-718.27 349.73,-718.27"/>
</g>
<!-- u8&#45;&gt;u14 -->
<g id="edge8" class="edge">
<title>u8&#45;&gt;u14</title>
<path fill="none" stroke="black" d="M569.99,-341.83C499.71,-322.32 381.72,-289.56 307.3,-268.9"/>
<polygon fill="black" stroke="black" points="308.12,-265.49 297.55,-266.19 306.25,-272.24 308.12,-265.49"/>
</g>
<!-- u8&#45;&gt;u7 -->
<g id="edge7" class="edge">
<title>u8&#45;&gt;u7</title>
<path fill="none" stroke="black" d="M632.25,-340.65C636.2,-323.56 642.3,-297.22 646.91,-277.32"/>
<polygon fill="black" stroke="black" points="650.38,-277.84 649.22,-267.31 643.56,-276.26 650.38,-277.84"/>
</g>
<!-- u7&#45;&gt;u5 -->
<g id="edge6" class="edge">
<title>u7&#45;&gt;u5</title>
<path fill="none" stroke="black" d="M705.2,-231.51C758.66,-214.15 844.08,-185.32 916.23,-156 999.38,-122.21 1093.79,-76.62 1146.96,-50.26"/>
<polygon fill="black" stroke="black" points="1148.68,-53.31 1156.08,-45.72 1145.57,-47.04 1148.68,-53.31"/>
</g>
<!-- u28 -->
<g id="node29" class="node">
<title>u28</title>
<ellipse fill="#ff7777" stroke="black" cx="1385.23" cy="-690" rx="141.88" ry="18"/>
<text text-anchor="middle" x="1385.23" y="-686.3" font-family="Times,serif" font-size="14.00">Language.Drasil.TeX.Monad</text>
</g>
<!-- u28&#45;&gt;u3 -->
<g id="edge41" class="edge">
<title>u28&#45;&gt;u3</title>
<path fill="none" stroke="black" d="M1407.58,-672.12C1431.78,-653.85 1470.55,-624.56 1497.59,-604.14"/>
<polygon fill="black" stroke="black" points="1499.7,-606.93 1505.57,-598.11 1495.48,-601.35 1499.7,-606.93"/>
</g>
<!-- u27 -->
<g id="node30" class="node">
<title>u27</title>
<ellipse fill="#ff7777" stroke="black" cx="1041.23" cy="-801" rx="146.47" ry="18"/>
<text text-anchor="middle" x="1041.23" y="-797.3" font-family="Times,serif" font-size="14.00">Language.Drasil.TeX.Helpers</text>
</g>
<!-- u27&#45;&gt;u30 -->
<g id="edge40" class="edge">
<title>u27&#45;&gt;u30</title>
<path fill="none" stroke="black" d="M1045.29,-782.97C1049.43,-765.63 1055.9,-738.49 1060.75,-718.18"/>
<polygon fill="black" stroke="black" points="1064.2,-718.81 1063.11,-708.27 1057.39,-717.19 1064.2,-718.81"/>
</g>
<!-- u27&#45;&gt;u28 -->
<g id="edge39" class="edge">
<title>u27&#45;&gt;u28</title>
<path fill="none" stroke="black" d="M1091.62,-784.03C1153.66,-764.38 1258.91,-731.02 1325.11,-710.05"/>
<polygon fill="black" stroke="black" points="1326.51,-713.28 1334.99,-706.92 1324.4,-706.6 1326.51,-713.28"/>
</g>
<!-- u26 -->
<g id="node31" class="node">
<title>u26</title>
<ellipse fill="#ff7777" stroke="black" cx="1016.23" cy="-911" rx="154.07" ry="18"/>
<text text-anchor="middle" x="1016.23" y="-907.3" font-family="Times,serif" font-size="14.00">Language.Drasil.TeX.Preamble</text>
</g>
<!-- u26&#45;&gt;u2 -->
<g id="edge37" class="edge">
<title>u26&#45;&gt;u2</title>
<path fill="none" stroke="black" d="M989.5,-892.97C962.62,-875.46 920.37,-846.88 886.23,-819 845.02,-785.35 800.94,-742 774.76,-715.37"/>
<polygon fill="black" stroke="black" points="777.04,-712.7 767.54,-708 772.04,-717.6 777.04,-712.7"/>
</g>
<!-- u26&#45;&gt;u27 -->
<g id="edge38" class="edge">
<title>u26&#45;&gt;u27</title>
<path fill="none" stroke="black" d="M1020.25,-892.65C1024.2,-875.56 1030.3,-849.22 1034.91,-829.32"/>
<polygon fill="black" stroke="black" points="1038.38,-829.84 1037.22,-819.31 1031.56,-828.26 1038.38,-829.84"/>
</g>
<!-- u25&#45;&gt;u1 -->
<g id="edge35" class="edge">
<title>u25&#45;&gt;u1</title>
<path fill="none" stroke="black" d="M934.75,-1007.74C811.03,-987.62 576.21,-949.42 443.65,-927.85"/>
<polygon fill="black" stroke="black" points="443.94,-924.35 433.51,-926.2 442.81,-931.26 443.94,-924.35"/>
</g>
<!-- u25&#45;&gt;u26 -->
<g id="edge36" class="edge">
<title>u25&#45;&gt;u26</title>
<path fill="none" stroke="black" d="M1016.23,-1003.97C1016.23,-986.71 1016.23,-959.74 1016.23,-939.46"/>
<polygon fill="black" stroke="black" points="1019.73,-939.27 1016.23,-929.27 1012.73,-939.27 1019.73,-939.27"/>
</g>
</g>
</svg>
