<?xml version="1.0" encoding="UTF-8" standalone="no"?>
<!DOCTYPE svg PUBLIC "-//W3C//DTD SVG 1.1//EN"
 "http://www.w3.org/Graphics/SVG/1.1/DTD/svg11.dtd">
<!-- Generated by graphviz version 2.43.0 (0)
 -->
<!-- Title: G Pages: 1 -->
<svg width="431pt" height="288pt"
 viewBox="0.00 0.00 431.15 288.00" xmlns="http://www.w3.org/2000/svg" xmlns:xlink="http://www.w3.org/1999/xlink">
<g id="graph0" class="graph" transform="scale(4.38 4.38) rotate(0) translate(4 1257.33)">
<title>G</title>
<polygon fill="white" stroke="transparent" points="-4,4 -4,-1257.33 1884.27,-1257.33 1884.27,4 -4,4"/>
<!-- u29 -->
<g id="node1" class="node">
<title>u29</title>
<ellipse fill="#bbffbb" stroke="black" cx="983.43" cy="-627" rx="119.68" ry="18"/>
<text text-anchor="middle" x="983.43" y="-623.3" font-family="Times,serif" font-size="14.00">Language.Drasil.Config</text>
</g>
<!-- u8 -->
<g id="node2" class="node">
<title>u8</title>
<ellipse fill="#bbffbb" stroke="black" cx="1104.43" cy="-1028" rx="123.48" ry="18"/>
<text text-anchor="middle" x="1104.43" y="-1024.3" font-family="Times,serif" font-size="14.00">Language.Drasil.Format</text>
</g>
<!-- u7 -->
<g id="node3" class="node">
<title>u7</title>
<ellipse fill="#bbffbb" stroke="black" cx="1461.43" cy="-1228" rx="128.08" ry="18"/>
<text text-anchor="middle" x="1461.43" y="-1224.3" font-family="Times,serif" font-size="14.00">Language.Drasil.Printers</text>
</g>
<!-- u28 -->
<g id="node4" class="node">
<title>u28</title>
<ellipse fill="#ffffbb" stroke="black" cx="1744.43" cy="-1128" rx="135.68" ry="18"/>
<text text-anchor="middle" x="1744.43" y="-1124.3" font-family="Times,serif" font-size="14.00">Language.Drasil.DOT.Print</text>
</g>
<!-- u7&#45;&gt;u28 -->
<g id="edge13" class="edge">
<title>u7&#45;&gt;u28</title>
<path fill="none" stroke="black" d="M1507.21,-1211.15C1556.7,-1194.01 1635.58,-1166.69 1688.65,-1148.32"/>
<polygon fill="black" stroke="black" points="1689.94,-1151.57 1698.24,-1144.99 1687.65,-1144.96 1689.94,-1151.57"/>
</g>
<!-- u31 -->
<g id="node9" class="node">
<title>u31</title>
<ellipse fill="#ffbbbb" stroke="black" cx="1223.43" cy="-1128" rx="140.28" ry="18"/>
<text text-anchor="middle" x="1223.43" y="-1124.3" font-family="Times,serif" font-size="14.00">Language.Drasil.JSON.Print</text>
</g>
<!-- u7&#45;&gt;u31 -->
<g id="edge14" class="edge">
<title>u7&#45;&gt;u31</title>
<path fill="none" stroke="black" d="M1422.13,-1210.82C1381.17,-1193.95 1316.89,-1167.49 1272.6,-1149.25"/>
<polygon fill="black" stroke="black" points="1273.77,-1145.94 1263.19,-1145.37 1271.1,-1152.41 1273.77,-1145.94"/>
</g>
<!-- u5 -->
<g id="node11" class="node">
<title>u5</title>
<ellipse fill="#bbffff" stroke="black" cx="699.43" cy="-1128" rx="133.48" ry="18"/>
<text text-anchor="middle" x="699.43" y="-1124.3" font-family="Times,serif" font-size="14.00">Language.Drasil.Log.Print</text>
</g>
<!-- u7&#45;&gt;u5 -->
<g id="edge11" class="edge">
<title>u7&#45;&gt;u5</title>
<path fill="none" stroke="black" d="M1370.27,-1215.28C1227.49,-1196.91 951.98,-1161.48 802.3,-1142.23"/>
<polygon fill="black" stroke="black" points="802.55,-1138.73 792.18,-1140.93 801.65,-1145.68 802.55,-1138.73"/>
</g>
<!-- u6 -->
<g id="node12" class="node">
<title>u6</title>
<ellipse fill="#ffbbff" stroke="black" cx="1687.43" cy="-827" rx="188.47" ry="18"/>
<text text-anchor="middle" x="1687.43" y="-823.3" font-family="Times,serif" font-size="14.00">Language.Drasil.Markdown.CreateMd</text>
</g>
<!-- u7&#45;&gt;u6 -->
<g id="edge12" class="edge">
<title>u7&#45;&gt;u6</title>
<path fill="none" stroke="black" d="M1471.14,-1209.86C1506.71,-1147.06 1630.02,-929.36 1672.73,-853.95"/>
<polygon fill="black" stroke="black" points="1675.87,-855.51 1677.76,-845.08 1669.78,-852.06 1675.87,-855.51"/>
</g>
<!-- u27 -->
<g id="node5" class="node">
<title>u27</title>
<ellipse fill="#bbbbff" stroke="black" cx="818.43" cy="-1028" rx="144.87" ry="18"/>
<text text-anchor="middle" x="818.43" y="-1024.3" font-family="Times,serif" font-size="14.00">Language.Drasil.HTML.Print</text>
</g>
<!-- u26 -->
<g id="node6" class="node">
<title>u26</title>
<ellipse fill="#bbbbff" stroke="black" cx="658.43" cy="-927" rx="153.27" ry="18"/>
<text text-anchor="middle" x="658.43" y="-923.3" font-family="Times,serif" font-size="14.00">Language.Drasil.HTML.Monad</text>
</g>
<!-- u27&#45;&gt;u26 -->
<g id="edge37" class="edge">
<title>u27&#45;&gt;u26</title>
<path fill="none" stroke="black" d="M791.29,-1010.21C764.63,-993.71 723.78,-968.44 694.42,-950.27"/>
<polygon fill="black" stroke="black" points="696.05,-947.16 685.71,-944.88 692.37,-953.11 696.05,-947.16"/>
</g>
<!-- u25 -->
<g id="node7" class="node">
<title>u25</title>
<ellipse fill="#bbbbff" stroke="black" cx="1272.43" cy="-927" rx="157.87" ry="18"/>
<text text-anchor="middle" x="1272.43" y="-923.3" font-family="Times,serif" font-size="14.00">Language.Drasil.HTML.Helpers</text>
</g>
<!-- u27&#45;&gt;u25 -->
<g id="edge36" class="edge">
<title>u27&#45;&gt;u25</title>
<path fill="none" stroke="black" d="M886.89,-1012.07C968.94,-994.18 1106.19,-964.25 1192.88,-945.35"/>
<polygon fill="black" stroke="black" points="1193.64,-948.76 1202.67,-943.21 1192.15,-941.92 1193.64,-948.76"/>
</g>
<!-- u24 -->
<g id="node8" class="node">
<title>u24</title>
<ellipse fill="#bbbbff" stroke="black" cx="346.43" cy="-927" rx="140.28" ry="18"/>
<text text-anchor="middle" x="346.43" y="-923.3" font-family="Times,serif" font-size="14.00">Language.Drasil.HTML.CSS</text>
</g>
<!-- u27&#45;&gt;u24 -->
<g id="edge35" class="edge">
<title>u27&#45;&gt;u24</title>
<path fill="none" stroke="black" d="M748.02,-1012.23C661.95,-994.18 516.62,-963.7 426.41,-944.78"/>
<polygon fill="black" stroke="black" points="427.01,-941.32 416.5,-942.7 425.57,-948.18 427.01,-941.32"/>
</g>
<!-- u4 -->
<g id="node29" class="node">
<title>u4</title>
<ellipse fill="#ff7777" stroke="black" cx="963.43" cy="-927" rx="133.48" ry="18"/>
<text text-anchor="middle" x="963.43" y="-923.3" font-family="Times,serif" font-size="14.00">Language.Drasil.TeX.Print</text>
</g>
<!-- u27&#45;&gt;u4 -->
<g id="edge34" class="edge">
<title>u27&#45;&gt;u4</title>
<path fill="none" stroke="black" d="M843.03,-1010.21C866.98,-993.85 903.57,-968.87 930.12,-950.74"/>
<polygon fill="black" stroke="black" points="932.43,-953.41 938.71,-944.88 928.48,-947.62 932.43,-953.41"/>
</g>
<!-- u22 -->
<g id="node15" class="node">
<title>u22</title>
<ellipse fill="#ffff77" stroke="black" cx="1091.43" cy="-25" rx="149.47" ry="18"/>
<text text-anchor="middle" x="1091.43" y="-21.3" font-family="Times,serif" font-size="14.00">Language.Drasil.Printing.AST</text>
</g>
<!-- u25&#45;&gt;u22 -->
<g id="edge33" class="edge">
<title>u25&#45;&gt;u22</title>
<path fill="none" stroke="black" d="M1248.83,-909.05C1208.69,-878.04 1131.43,-807.97 1131.43,-728 1131.43,-728 1131.43,-728 1131.43,-225 1131.43,-162.35 1112.14,-90.74 1100.35,-52.83"/>
<polygon fill="black" stroke="black" points="1103.61,-51.54 1097.25,-43.07 1096.94,-53.66 1103.61,-51.54"/>
</g>
<!-- u31&#45;&gt;u8 -->
<g id="edge40" class="edge">
<title>u31&#45;&gt;u8</title>
<path fill="none" stroke="black" d="M1202.97,-1110.15C1183.65,-1094.24 1154.48,-1070.22 1132.89,-1052.43"/>
<polygon fill="black" stroke="black" points="1134.96,-1049.61 1125.02,-1045.95 1130.51,-1055.01 1134.96,-1049.61"/>
</g>
<!-- u31&#45;&gt;u27 -->
<g id="edge41" class="edge">
<title>u31&#45;&gt;u27</title>
<path fill="none" stroke="black" d="M1160.59,-1111.8C1087.87,-1094.2 968.3,-1065.26 891.49,-1046.68"/>
<polygon fill="black" stroke="black" points="891.96,-1043.19 881.42,-1044.24 890.31,-1049.99 891.96,-1043.19"/>
</g>
<!-- u30 -->
<g id="node10" class="node">
<title>u30</title>
<ellipse fill="#ffbbbb" stroke="black" cx="1399.43" cy="-1028" rx="153.27" ry="18"/>
<text text-anchor="middle" x="1399.43" y="-1024.3" font-family="Times,serif" font-size="14.00">Language.Drasil.JSON.Helpers</text>
</g>
<!-- u31&#45;&gt;u30 -->
<g id="edge42" class="edge">
<title>u31&#45;&gt;u30</title>
<path fill="none" stroke="black" d="M1253.29,-1110.38C1282.87,-1093.9 1328.32,-1068.6 1360.67,-1050.58"/>
<polygon fill="black" stroke="black" points="1362.39,-1053.63 1369.43,-1045.71 1358.99,-1047.51 1362.39,-1053.63"/>
</g>
<!-- u30&#45;&gt;u25 -->
<g id="edge39" class="edge">
<title>u30&#45;&gt;u25</title>
<path fill="none" stroke="black" d="M1377.6,-1009.98C1356.88,-993.83 1325.57,-969.42 1302.5,-951.44"/>
<polygon fill="black" stroke="black" points="1304.44,-948.52 1294.4,-945.13 1300.14,-954.04 1304.44,-948.52"/>
</g>
<!-- u18 -->
<g id="node19" class="node">
<title>u18</title>
<ellipse fill="#ffff77" stroke="black" cx="1444.43" cy="-526" rx="167.07" ry="18"/>
<text text-anchor="middle" x="1444.43" y="-522.3" font-family="Times,serif" font-size="14.00">Language.Drasil.Printing.Helpers</text>
</g>
<!-- u30&#45;&gt;u18 -->
<g id="edge38" class="edge">
<title>u30&#45;&gt;u18</title>
<path fill="none" stroke="black" d="M1410.21,-1009.92C1430.3,-976.41 1471.43,-899.09 1471.43,-828 1471.43,-828 1471.43,-828 1471.43,-726 1471.43,-664.01 1458.41,-592.15 1450.45,-554.02"/>
<polygon fill="black" stroke="black" points="1453.87,-553.25 1448.36,-544.2 1447.02,-554.71 1453.87,-553.25"/>
</g>
<!-- u0 -->
<g id="node13" class="node">
<title>u0</title>
<ellipse fill="#77ff77" stroke="black" cx="347.43" cy="-1028" rx="139.98" ry="18"/>
<text text-anchor="middle" x="347.43" y="-1024.3" font-family="Times,serif" font-size="14.00">Language.Drasil.Plain.Print</text>
</g>
<!-- u5&#45;&gt;u0 -->
<g id="edge9" class="edge">
<title>u5&#45;&gt;u0</title>
<path fill="none" stroke="black" d="M644.04,-1111.58C581.52,-1094.17 479.88,-1065.87 413.33,-1047.35"/>
<polygon fill="black" stroke="black" points="413.94,-1043.88 403.37,-1044.57 412.06,-1050.63 413.94,-1043.88"/>
</g>
<!-- u6&#45;&gt;u18 -->
<g id="edge10" class="edge">
<title>u6&#45;&gt;u18</title>
<path fill="none" stroke="black" d="M1673.32,-808.63C1632.28,-758.14 1512.91,-611.26 1464.84,-552.11"/>
<polygon fill="black" stroke="black" points="1467.31,-549.6 1458.28,-544.04 1461.87,-554.01 1467.31,-549.6"/>
</g>
<!-- u23 -->
<g id="node14" class="node">
<title>u23</title>
<ellipse fill="#ffff77" stroke="black" cx="460.43" cy="-827" rx="162.47" ry="18"/>
<text text-anchor="middle" x="460.43" y="-823.3" font-family="Times,serif" font-size="14.00">Language.Drasil.Printing.Import</text>
</g>
<!-- u0&#45;&gt;u23 -->
<g id="edge1" class="edge">
<title>u0&#45;&gt;u23</title>
<path fill="none" stroke="black" d="M296.2,-1011.16C240.65,-991.26 164.07,-954.18 197.43,-909 218.08,-881.03 300.24,-858.69 367.31,-844.61"/>
<polygon fill="black" stroke="black" points="368.42,-847.95 377.51,-842.51 367.01,-841.1 368.42,-847.95"/>
</g>
<!-- u12 -->
<g id="node25" class="node">
<title>u12</title>
<ellipse fill="#7777ff" stroke="black" cx="460.43" cy="-727" rx="212.56" ry="18"/>
<text text-anchor="middle" x="460.43" y="-723.3" font-family="Times,serif" font-size="14.00">Language.Drasil.Printing.Import.Document</text>
</g>
<!-- u23&#45;&gt;u12 -->
<g id="edge32" class="edge">
<title>u23&#45;&gt;u12</title>
<path fill="none" stroke="black" d="M460.43,-808.93C460.43,-794.12 460.43,-772.43 460.43,-755.23"/>
<polygon fill="black" stroke="black" points="463.93,-755.2 460.43,-745.2 456.93,-755.2 463.93,-755.2"/>
</g>
<!-- u21 -->
<g id="node16" class="node">
<title>u21</title>
<ellipse fill="#ffff77" stroke="black" cx="1327.43" cy="-426" rx="167.87" ry="18"/>
<text text-anchor="middle" x="1327.43" y="-422.3" font-family="Times,serif" font-size="14.00">Language.Drasil.Printing.Citation</text>
</g>
<!-- u21&#45;&gt;u22 -->
<g id="edge31" class="edge">
<title>u21&#45;&gt;u22</title>
<path fill="none" stroke="black" d="M1318.16,-407.87C1292.05,-359.8 1215.2,-219.8 1145.43,-107 1133.84,-88.26 1120.04,-67.59 1109.3,-51.82"/>
<polygon fill="black" stroke="black" points="1111.9,-49.43 1103.36,-43.16 1106.13,-53.39 1111.9,-49.43"/>
</g>
<!-- u20 -->
<g id="node17" class="node">
<title>u20</title>
<ellipse fill="#ffff77" stroke="black" cx="778.43" cy="-125" rx="223.66" ry="18"/>
<text text-anchor="middle" x="778.43" y="-121.3" font-family="Times,serif" font-size="14.00">Language.Drasil.Printing.PrintingInformation</text>
</g>
<!-- u19 -->
<g id="node18" class="node">
<title>u19</title>
<ellipse fill="#ffff77" stroke="black" cx="667.43" cy="-627" rx="178.97" ry="18"/>
<text text-anchor="middle" x="667.43" y="-623.3" font-family="Times,serif" font-size="14.00">Language.Drasil.Printing.LayoutObj</text>
</g>
<!-- u19&#45;&gt;u21 -->
<g id="edge30" class="edge">
<title>u19&#45;&gt;u21</title>
<path fill="none" stroke="black" d="M721.16,-609.8C842.04,-573.35 1134.89,-485.05 1264.23,-446.06"/>
<polygon fill="black" stroke="black" points="1265.44,-449.35 1274,-443.11 1263.42,-442.65 1265.44,-449.35"/>
</g>
<!-- u18&#45;&gt;u21 -->
<g id="edge29" class="edge">
<title>u18&#45;&gt;u21</title>
<path fill="none" stroke="black" d="M1424.05,-507.93C1405.01,-491.98 1376.42,-468.04 1355.28,-450.33"/>
<polygon fill="black" stroke="black" points="1357.49,-447.61 1347.58,-443.87 1353,-452.98 1357.49,-447.61"/>
</g>
<!-- u17 -->
<g id="node20" class="node">
<title>u17</title>
<ellipse fill="#7777ff" stroke="black" cx="220.43" cy="-627" rx="207.96" ry="18"/>
<text text-anchor="middle" x="220.43" y="-623.3" font-family="Times,serif" font-size="14.00">Language.Drasil.Printing.Import.Sentence</text>
</g>
<!-- u9 -->
<g id="node28" class="node">
<title>u9</title>
<ellipse fill="#7777ff" stroke="black" cx="216.43" cy="-526" rx="216.36" ry="18"/>
<text text-anchor="middle" x="216.43" y="-522.3" font-family="Times,serif" font-size="14.00">Language.Drasil.Printing.Import.ModelExpr</text>
</g>
<!-- u17&#45;&gt;u9 -->
<g id="edge28" class="edge">
<title>u17&#45;&gt;u9</title>
<path fill="none" stroke="black" d="M219.73,-608.76C219.13,-593.71 218.23,-571.62 217.53,-554.19"/>
<polygon fill="black" stroke="black" points="221.02,-553.9 217.12,-544.05 214.03,-554.18 221.02,-553.9"/>
</g>
<!-- u16 -->
<g id="node21" class="node">
<title>u16</title>
<ellipse fill="#7777ff" stroke="black" cx="227.43" cy="-426" rx="193.07" ry="18"/>
<text text-anchor="middle" x="227.43" y="-422.3" font-family="Times,serif" font-size="14.00">Language.Drasil.Printing.Import.Space</text>
</g>
<!-- u14 -->
<g id="node23" class="node">
<title>u14</title>
<ellipse fill="#7777ff" stroke="black" cx="310.43" cy="-326" rx="187.67" ry="18"/>
<text text-anchor="middle" x="310.43" y="-322.3" font-family="Times,serif" font-size="14.00">Language.Drasil.Printing.Import.Expr</text>
</g>
<!-- u16&#45;&gt;u14 -->
<g id="edge27" class="edge">
<title>u16&#45;&gt;u14</title>
<path fill="none" stroke="black" d="M241.89,-407.93C254.9,-392.57 274.19,-369.79 289,-352.3"/>
<polygon fill="black" stroke="black" points="292.07,-354.1 295.86,-344.2 286.73,-349.57 292.07,-354.1"/>
</g>
<!-- u15 -->
<g id="node22" class="node">
<title>u15</title>
<ellipse fill="#7777ff" stroke="black" cx="334.43" cy="-226" rx="196.07" ry="18"/>
<text text-anchor="middle" x="334.43" y="-222.3" font-family="Times,serif" font-size="14.00">Language.Drasil.Printing.Import.Literal</text>
</g>
<!-- u15&#45;&gt;u20 -->
<g id="edge26" class="edge">
<title>u15&#45;&gt;u20</title>
<path fill="none" stroke="black" d="M405.27,-209.2C484.56,-191.53 612.83,-162.92 696.4,-144.29"/>
<polygon fill="black" stroke="black" points="697.37,-147.66 706.37,-142.07 695.84,-140.83 697.37,-147.66"/>
</g>
<!-- u11 -->
<g id="node26" class="node">
<title>u11</title>
<ellipse fill="#7777ff" stroke="black" cx="334.43" cy="-125" rx="202.26" ry="18"/>
<text text-anchor="middle" x="334.43" y="-121.3" font-family="Times,serif" font-size="14.00">Language.Drasil.Printing.Import.Helpers</text>
</g>
<!-- u15&#45;&gt;u11 -->
<g id="edge25" class="edge">
<title>u15&#45;&gt;u11</title>
<path fill="none" stroke="black" d="M334.43,-207.76C334.43,-192.71 334.43,-170.62 334.43,-153.19"/>
<polygon fill="black" stroke="black" points="337.93,-153.05 334.43,-143.05 330.93,-153.05 337.93,-153.05"/>
</g>
<!-- u14&#45;&gt;u15 -->
<g id="edge24" class="edge">
<title>u14&#45;&gt;u15</title>
<path fill="none" stroke="black" d="M314.61,-307.93C318.24,-293.12 323.55,-271.43 327.76,-254.23"/>
<polygon fill="black" stroke="black" points="331.24,-254.75 330.22,-244.2 324.44,-253.08 331.24,-254.75"/>
</g>
<!-- u10 -->
<g id="node27" class="node">
<title>u10</title>
<ellipse fill="#7777ff" stroke="black" cx="748.43" cy="-226" rx="200.36" ry="18"/>
<text text-anchor="middle" x="748.43" y="-222.3" font-family="Times,serif" font-size="14.00">Language.Drasil.Printing.Import.Symbol</text>
</g>
<!-- u14&#45;&gt;u10 -->
<g id="edge23" class="edge">
<title>u14&#45;&gt;u10</title>
<path fill="none" stroke="black" d="M380.8,-309.25C459.11,-291.73 585.43,-263.47 667.7,-245.06"/>
<polygon fill="black" stroke="black" points="668.51,-248.47 677.51,-242.87 666.98,-241.64 668.51,-248.47"/>
</g>
<!-- u13 -->
<g id="node24" class="node">
<title>u13</title>
<ellipse fill="#7777ff" stroke="black" cx="727.43" cy="-326" rx="211.46" ry="18"/>
<text text-anchor="middle" x="727.43" y="-322.3" font-family="Times,serif" font-size="14.00">Language.Drasil.Printing.Import.CodeExpr</text>
</g>
<!-- u13&#45;&gt;u15 -->
<g id="edge22" class="edge">
<title>u13&#45;&gt;u15</title>
<path fill="none" stroke="black" d="M662.53,-308.82C592.78,-291.42 482.08,-263.82 408.85,-245.56"/>
<polygon fill="black" stroke="black" points="409.32,-242.07 398.77,-243.04 407.63,-248.86 409.32,-242.07"/>
</g>
<!-- u13&#45;&gt;u10 -->
<g id="edge21" class="edge">
<title>u13&#45;&gt;u10</title>
<path fill="none" stroke="black" d="M731.09,-307.93C734.26,-293.12 738.91,-271.43 742.6,-254.23"/>
<polygon fill="black" stroke="black" points="746.07,-254.71 744.74,-244.2 739.23,-253.25 746.07,-254.71"/>
</g>
<!-- u12&#45;&gt;u19 -->
<g id="edge20" class="edge">
<title>u12&#45;&gt;u19</title>
<path fill="none" stroke="black" d="M496.02,-709.15C531.07,-692.56 584.75,-667.14 622.68,-649.19"/>
<polygon fill="black" stroke="black" points="624.42,-652.23 631.96,-644.79 621.43,-645.91 624.42,-652.23"/>
</g>
<!-- u12&#45;&gt;u17 -->
<g id="edge19" class="edge">
<title>u12&#45;&gt;u17</title>
<path fill="none" stroke="black" d="M419.45,-709.26C378.29,-692.46 314.8,-666.53 270.64,-648.5"/>
<polygon fill="black" stroke="black" points="271.83,-645.21 261.25,-644.67 269.18,-651.69 271.83,-645.21"/>
</g>
<!-- u12&#45;&gt;u13 -->
<g id="edge18" class="edge">
<title>u12&#45;&gt;u13</title>
<path fill="none" stroke="black" d="M460.3,-708.86C460.75,-685.26 463.88,-641.94 479.43,-609 532.65,-496.29 644.7,-394.64 698.02,-350.4"/>
<polygon fill="black" stroke="black" points="700.25,-353.1 705.76,-344.05 695.81,-347.69 700.25,-353.1"/>
</g>
<!-- u11&#45;&gt;u22 -->
<g id="edge17" class="edge">
<title>u11&#45;&gt;u22</title>
<path fill="none" stroke="black" d="M443.7,-109.85C587.84,-91.19 840,-58.55 983.49,-39.97"/>
<polygon fill="black" stroke="black" points="984.16,-43.42 993.63,-38.66 983.26,-36.47 984.16,-43.42"/>
</g>
<!-- u10&#45;&gt;u22 -->
<g id="edge16" class="edge">
<title>u10&#45;&gt;u22</title>
<path fill="none" stroke="black" d="M847.42,-210.34C900.04,-198.76 963.55,-178.4 1011.43,-143 1043.5,-119.29 1067.03,-78.7 1079.98,-52.11"/>
<polygon fill="black" stroke="black" points="1083.17,-53.54 1084.27,-43 1076.84,-50.56 1083.17,-53.54"/>
</g>
<!-- u9&#45;&gt;u16 -->
<g id="edge15" class="edge">
<title>u9&#45;&gt;u16</title>
<path fill="none" stroke="black" d="M218.35,-507.93C220.01,-493.12 222.44,-471.43 224.37,-454.23"/>
<polygon fill="black" stroke="black" points="227.86,-454.53 225.5,-444.2 220.91,-453.75 227.86,-454.53"/>
</g>
<!-- u4&#45;&gt;u23 -->
<g id="edge8" class="edge">
<title>u4&#45;&gt;u23</title>
<path fill="none" stroke="black" d="M890.83,-911.85C799.91,-894.14 644.33,-863.83 547.22,-844.91"/>
<polygon fill="black" stroke="black" points="547.62,-841.42 537.14,-842.94 546.28,-848.29 547.62,-841.42"/>
</g>
<!-- u3 -->
<g id="node30" class="node">
<title>u3</title>
<ellipse fill="#ff7777" stroke="black" cx="949.43" cy="-827" rx="154.07" ry="18"/>
<text text-anchor="middle" x="949.43" y="-823.3" font-family="Times,serif" font-size="14.00">Language.Drasil.TeX.Preamble</text>
</g>
<!-- u4&#45;&gt;u3 -->
<g id="edge7" class="edge">
<title>u4&#45;&gt;u3</title>
<path fill="none" stroke="black" d="M960.99,-908.93C958.88,-894.12 955.78,-872.43 953.32,-855.23"/>
<polygon fill="black" stroke="black" points="956.77,-854.61 951.89,-845.2 949.84,-855.6 956.77,-854.61"/>
</g>
<!-- u3&#45;&gt;u19 -->
<g id="edge6" class="edge">
<title>u3&#45;&gt;u19</title>
<path fill="none" stroke="black" d="M914.65,-809.45C884.07,-794.29 838.88,-770.41 802.43,-745 761.21,-716.26 718.1,-677.04 691.99,-652.11"/>
<polygon fill="black" stroke="black" points="694.41,-649.58 684.78,-645.17 689.56,-654.63 694.41,-649.58"/>
</g>
<!-- u1 -->
<g id="node32" class="node">
<title>u1</title>
<ellipse fill="#ff7777" stroke="black" cx="957.43" cy="-727" rx="146.47" ry="18"/>
<text text-anchor="middle" x="957.43" y="-723.3" font-family="Times,serif" font-size="14.00">Language.Drasil.TeX.Helpers</text>
</g>
<!-- u3&#45;&gt;u1 -->
<g id="edge5" class="edge">
<title>u3&#45;&gt;u1</title>
<path fill="none" stroke="black" d="M950.82,-808.93C952.03,-794.12 953.8,-772.43 955.21,-755.23"/>
<polygon fill="black" stroke="black" points="958.7,-755.46 956.03,-745.2 951.72,-754.89 958.7,-755.46"/>
</g>
<!-- u2 -->
<g id="node31" class="node">
<title>u2</title>
<ellipse fill="#ff7777" stroke="black" cx="1301.43" cy="-627" rx="141.88" ry="18"/>
<text text-anchor="middle" x="1301.43" y="-623.3" font-family="Times,serif" font-size="14.00">Language.Drasil.TeX.Monad</text>
</g>
<!-- u2&#45;&gt;u18 -->
<g id="edge4" class="edge">
<title>u2&#45;&gt;u18</title>
<path fill="none" stroke="black" d="M1325.69,-609.21C1349.31,-592.85 1385.39,-567.87 1411.58,-549.74"/>
<polygon fill="black" stroke="black" points="1413.82,-552.45 1420.05,-543.88 1409.84,-546.69 1413.82,-552.45"/>
</g>
<!-- u1&#45;&gt;u29 -->
<g id="edge3" class="edge">
<title>u1&#45;&gt;u29</title>
<path fill="none" stroke="black" d="M961.96,-708.93C965.89,-694.12 971.64,-672.43 976.21,-655.23"/>
<polygon fill="black" stroke="black" points="979.69,-655.77 978.87,-645.2 972.92,-653.97 979.69,-655.77"/>
</g>
<!-- u1&#45;&gt;u2 -->
<g id="edge2" class="edge">
<title>u1&#45;&gt;u2</title>
<path fill="none" stroke="black" d="M1012.7,-710.25C1073.85,-692.83 1172.27,-664.8 1236.91,-646.38"/>
<polygon fill="black" stroke="black" points="1237.92,-649.73 1246.58,-643.63 1236.01,-643 1237.92,-649.73"/>
</g>
</g>
</svg>
