<?xml version="1.0" encoding="UTF-8" standalone="no"?>
<!DOCTYPE svg PUBLIC "-//W3C//DTD SVG 1.1//EN"
 "http://www.w3.org/Graphics/SVG/1.1/DTD/svg11.dtd">
<!-- Generated by graphviz version 2.43.0 (0)
 -->
<!-- Title: G Pages: 1 -->
<svg width="432pt" height="286pt"
 viewBox="0.00 0.00 432.00 285.84" xmlns="http://www.w3.org/2000/svg" xmlns:xlink="http://www.w3.org/1999/xlink">
<g id="graph0" class="graph" transform="scale(10.17 10.17) rotate(0) translate(4 2904)">
<title>G</title>
<polygon fill="white" stroke="transparent" points="-4,4 -4,-2904 4391,-2904 4391,4 -4,4"/>
<!-- u18 -->
<g id="node1" class="node">
<title>u18</title>
<ellipse fill="#bbffbb" stroke="black" cx="3751.71" cy="-2815" rx="108.58" ry="18"/>
<text text-anchor="middle" x="3751.71" y="-2811.3" font-family="Times,serif" font-size="14.00">Drasil.SRSDocument</text>
</g>
<!-- u9 -->
<g id="node2" class="node">
<title>u9</title>
<ellipse fill="#bbffbb" stroke="black" cx="3751.71" cy="-2474" rx="81.79" ry="18"/>
<text text-anchor="middle" x="3751.71" y="-2470.3" font-family="Times,serif" font-size="14.00">Drasil.DocLang</text>
</g>
<!-- u18&#45;&gt;u9 -->
<g id="edge36" class="edge">
<title>u18&#45;&gt;u9</title>
<path fill="none" stroke="black" d="M3751.71,-2796.72C3751.71,-2741.64 3751.71,-2569.83 3751.71,-2502.48"/>
<polygon fill="black" stroke="black" points="3755.21,-2502.24 3751.71,-2492.24 3748.21,-2502.24 3755.21,-2502.24"/>
</g>
<!-- u8 -->
<g id="node3" class="node">
<title>u8</title>
<ellipse fill="#bbffbb" stroke="black" cx="2504.71" cy="-2132" rx="133.78" ry="18"/>
<text text-anchor="middle" x="2504.71" y="-2128.3" font-family="Times,serif" font-size="14.00">Drasil.DocumentLanguage</text>
</g>
<!-- u9&#45;&gt;u8 -->
<g id="edge24" class="edge">
<title>u9&#45;&gt;u8</title>
<path fill="none" stroke="black" d="M3702.44,-2459.57C3507.95,-2406.54 2793.34,-2211.69 2571.11,-2151.1"/>
<polygon fill="black" stroke="black" points="2571.79,-2147.66 2561.22,-2148.41 2569.94,-2154.41 2571.79,-2147.66"/>
</g>
<!-- u16 -->
<g id="node16" class="node">
<title>u16</title>
<ellipse fill="#ffbbbb" stroke="black" cx="3751.71" cy="-2132" rx="276.75" ry="18"/>
<text text-anchor="middle" x="3751.71" y="-2128.3" font-family="Times,serif" font-size="14.00">Drasil.DocumentLanguage.Notebook.DocumentLanguage</text>
</g>
<!-- u9&#45;&gt;u16 -->
<g id="edge25" class="edge">
<title>u9&#45;&gt;u16</title>
<path fill="none" stroke="black" d="M3751.71,-2455.67C3751.71,-2400.42 3751.71,-2228.11 3751.71,-2160.56"/>
<polygon fill="black" stroke="black" points="3755.21,-2160.29 3751.71,-2150.29 3748.21,-2160.29 3755.21,-2160.29"/>
</g>
<!-- u28 -->
<g id="node22" class="node">
<title>u28</title>
<ellipse fill="#ffbbff" stroke="black" cx="4216.71" cy="-2132" rx="170.07" ry="18"/>
<text text-anchor="middle" x="4216.71" y="-2128.3" font-family="Times,serif" font-size="14.00">Drasil.Sections.ReferenceMaterial</text>
</g>
<!-- u9&#45;&gt;u28 -->
<g id="edge26" class="edge">
<title>u9&#45;&gt;u28</title>
<path fill="none" stroke="black" d="M3774.14,-2456.6C3849.98,-2401.14 4097.06,-2220.49 4185.15,-2156.07"/>
<polygon fill="black" stroke="black" points="4187.41,-2158.76 4193.41,-2150.04 4183.27,-2153.11 4187.41,-2158.76"/>
</g>
<!-- u7 -->
<g id="node4" class="node">
<title>u7</title>
<ellipse fill="#bbffbb" stroke="black" cx="2205.71" cy="-1791" rx="92.08" ry="18"/>
<text text-anchor="middle" x="2205.71" y="-1787.3" font-family="Times,serif" font-size="14.00">Drasil.TraceTable</text>
</g>
<!-- u8&#45;&gt;u7 -->
<g id="edge18" class="edge">
<title>u8&#45;&gt;u7</title>
<path fill="none" stroke="black" d="M2489.47,-2113.72C2440.17,-2057.83 2284.87,-1881.75 2227.39,-1816.58"/>
<polygon fill="black" stroke="black" points="2229.8,-1814.02 2220.56,-1808.84 2224.55,-1818.65 2229.8,-1814.02"/>
</g>
<!-- u6 -->
<g id="node5" class="node">
<title>u6</title>
<ellipse fill="#bbffbb" stroke="black" cx="185.71" cy="-1791" rx="79.09" ry="18"/>
<text text-anchor="middle" x="185.71" y="-1787.3" font-family="Times,serif" font-size="14.00">Drasil.DocDecl</text>
</g>
<!-- u8&#45;&gt;u6 -->
<g id="edge17" class="edge">
<title>u8&#45;&gt;u6</title>
<path fill="none" stroke="black" d="M2417.69,-2118.28C2047.36,-2064.14 605.77,-1853.41 260.38,-1802.92"/>
<polygon fill="black" stroke="black" points="260.88,-1799.45 250.48,-1801.47 259.87,-1806.38 260.88,-1799.45"/>
</g>
<!-- u3 -->
<g id="node6" class="node">
<title>u3</title>
<ellipse fill="#bbffbb" stroke="black" cx="2432.71" cy="-1791" rx="116.18" ry="18"/>
<text text-anchor="middle" x="2432.71" y="-1787.3" font-family="Times,serif" font-size="14.00">Drasil.ExtractDocDesc</text>
</g>
<!-- u8&#45;&gt;u3 -->
<g id="edge16" class="edge">
<title>u8&#45;&gt;u3</title>
<path fill="none" stroke="black" d="M2501.04,-2113.72C2489.32,-2058.52 2452.7,-1886.12 2438.46,-1819.07"/>
<polygon fill="black" stroke="black" points="2441.87,-1818.3 2436.37,-1809.24 2435.03,-1819.75 2441.87,-1818.3"/>
</g>
<!-- u1 -->
<g id="node8" class="node">
<title>u1</title>
<ellipse fill="#ffffbb" stroke="black" cx="1364.71" cy="-1791" rx="136.48" ry="18"/>
<text text-anchor="middle" x="1364.71" y="-1787.3" font-family="Times,serif" font-size="14.00">Drasil.DocLang.References</text>
</g>
<!-- u8&#45;&gt;u1 -->
<g id="edge15" class="edge">
<title>u8&#45;&gt;u1</title>
<path fill="none" stroke="black" d="M2452.01,-2115.33C2264.47,-2059.56 1629.92,-1870.86 1427.39,-1810.64"/>
<polygon fill="black" stroke="black" points="1428.09,-1807.2 1417.51,-1807.7 1426.09,-1813.9 1428.09,-1807.2"/>
</g>
<!-- u13 -->
<g id="node11" class="node">
<title>u13</title>
<ellipse fill="#bbbbff" stroke="black" cx="1874.71" cy="-1791" rx="220.96" ry="18"/>
<text text-anchor="middle" x="1874.71" y="-1787.3" font-family="Times,serif" font-size="14.00">Drasil.DocumentLanguage.TraceabilityGraph</text>
</g>
<!-- u8&#45;&gt;u13 -->
<g id="edge19" class="edge">
<title>u8&#45;&gt;u13</title>
<path fill="none" stroke="black" d="M2473.9,-2114.42C2369.99,-2058.51 2032.43,-1876.87 1915.24,-1813.81"/>
<polygon fill="black" stroke="black" points="1916.67,-1810.61 1906.21,-1808.95 1913.36,-1816.77 1916.67,-1810.61"/>
</g>
<!-- u30 -->
<g id="node20" class="node">
<title>u30</title>
<ellipse fill="#ffbbff" stroke="black" cx="2862.71" cy="-1450" rx="161.37" ry="18"/>
<text text-anchor="middle" x="2862.71" y="-1446.3" font-family="Times,serif" font-size="14.00">Drasil.Sections.TableOfContents</text>
</g>
<!-- u8&#45;&gt;u30 -->
<g id="edge23" class="edge">
<title>u8&#45;&gt;u30</title>
<path fill="none" stroke="black" d="M2506.39,-2113.65C2512.11,-2060.17 2534.07,-1894.18 2595.71,-1773 2660.21,-1646.22 2782.31,-1524.95 2836.11,-1474.97"/>
<polygon fill="black" stroke="black" points="2838.56,-1477.47 2843.54,-1468.12 2833.81,-1472.32 2838.56,-1477.47"/>
</g>
<!-- u27 -->
<g id="node23" class="node">
<title>u27</title>
<ellipse fill="#ffbbff" stroke="black" cx="2767.71" cy="-1791" rx="163.27" ry="18"/>
<text text-anchor="middle" x="2767.71" y="-1787.3" font-family="Times,serif" font-size="14.00">Drasil.Sections.GeneralSystDesc</text>
</g>
<!-- u8&#45;&gt;u27 -->
<g id="edge22" class="edge">
<title>u8&#45;&gt;u27</title>
<path fill="none" stroke="black" d="M2518.11,-2113.72C2561.29,-2058.07 2696.9,-1883.28 2747.98,-1817.43"/>
<polygon fill="black" stroke="black" points="2750.97,-1819.29 2754.33,-1809.24 2745.44,-1815 2750.97,-1819.29"/>
</g>
<!-- u23 -->
<g id="node27" class="node">
<title>u23</title>
<ellipse fill="#ffbbff" stroke="black" cx="3093.71" cy="-1791" rx="144.87" ry="18"/>
<text text-anchor="middle" x="3093.71" y="-1787.3" font-family="Times,serif" font-size="14.00">Drasil.Sections.Stakeholders</text>
</g>
<!-- u8&#45;&gt;u23 -->
<g id="edge21" class="edge">
<title>u8&#45;&gt;u23</title>
<path fill="none" stroke="black" d="M2533.52,-2114.42C2630.68,-2058.5 2946.35,-1876.81 3055.87,-1813.78"/>
<polygon fill="black" stroke="black" points="3057.69,-1816.77 3064.61,-1808.75 3054.2,-1810.7 3057.69,-1816.77"/>
</g>
<!-- u22 -->
<g id="node28" class="node">
<title>u22</title>
<ellipse fill="#ffbbff" stroke="black" cx="3259.71" cy="-1450" rx="141.88" ry="18"/>
<text text-anchor="middle" x="3259.71" y="-1446.3" font-family="Times,serif" font-size="14.00">Drasil.Sections.Introduction</text>
</g>
<!-- u8&#45;&gt;u22 -->
<g id="edge20" class="edge">
<title>u8&#45;&gt;u22</title>
<path fill="none" stroke="black" d="M2607.65,-2120.47C2774.58,-2097.29 3100.46,-2025.3 3247.71,-1809 3318.48,-1705.03 3284.92,-1541.9 3267.71,-1477.98"/>
<polygon fill="black" stroke="black" points="3271.05,-1476.95 3265.01,-1468.25 3264.31,-1478.82 3271.05,-1476.95"/>
</g>
<!-- u12 -->
<g id="node12" class="node">
<title>u12</title>
<ellipse fill="#bbbbff" stroke="black" cx="2015.71" cy="-1109" rx="159.47" ry="18"/>
<text text-anchor="middle" x="2015.71" y="-1105.3" font-family="Times,serif" font-size="14.00">Drasil.DocumentLanguage.Core</text>
</g>
<!-- u7&#45;&gt;u12 -->
<g id="edge14" class="edge">
<title>u7&#45;&gt;u12</title>
<path fill="none" stroke="black" d="M2204.1,-1772.94C2198.93,-1720.97 2180.91,-1560.34 2144.71,-1432 2112.7,-1318.51 2054.19,-1190.24 2028.44,-1136.21"/>
<polygon fill="black" stroke="black" points="2031.51,-1134.51 2024.03,-1127 2025.19,-1137.53 2031.51,-1134.51"/>
</g>
<!-- u6&#45;&gt;u12 -->
<g id="edge12" class="edge">
<title>u6&#45;&gt;u12</title>
<path fill="none" stroke="black" d="M166.74,-1773.19C107.2,-1718.5 -66.52,-1542.72 27.71,-1432 261.47,-1157.33 1409.64,-1116.24 1846.53,-1110.64"/>
<polygon fill="black" stroke="black" points="1846.76,-1114.14 1856.72,-1110.51 1846.67,-1107.14 1846.76,-1114.14"/>
</g>
<!-- u29 -->
<g id="node21" class="node">
<title>u29</title>
<ellipse fill="#ffbbff" stroke="black" cx="185.71" cy="-1450" rx="149.47" ry="18"/>
<text text-anchor="middle" x="185.71" y="-1446.3" font-family="Times,serif" font-size="14.00">Drasil.Sections.Requirements</text>
</g>
<!-- u6&#45;&gt;u29 -->
<g id="edge13" class="edge">
<title>u6&#45;&gt;u29</title>
<path fill="none" stroke="black" d="M185.71,-1772.72C185.71,-1717.64 185.71,-1545.83 185.71,-1478.48"/>
<polygon fill="black" stroke="black" points="189.21,-1478.24 185.71,-1468.24 182.21,-1478.24 189.21,-1478.24"/>
</g>
<!-- u3&#45;&gt;u12 -->
<g id="edge8" class="edge">
<title>u3&#45;&gt;u12</title>
<path fill="none" stroke="black" d="M2420.83,-1772.79C2388,-1725.05 2293.61,-1586.6 2220.71,-1468 2145.57,-1345.76 2062.48,-1195.59 2029.91,-1136.07"/>
<polygon fill="black" stroke="black" points="2032.82,-1134.09 2024.95,-1126.99 2026.67,-1137.45 2032.82,-1134.09"/>
</g>
<!-- u19 -->
<g id="node31" class="node">
<title>u19</title>
<ellipse fill="#ffbbff" stroke="black" cx="2437.71" cy="-1450" rx="207.96" ry="18"/>
<text text-anchor="middle" x="2437.71" y="-1446.3" font-family="Times,serif" font-size="14.00">Drasil.Sections.SpecificSystemDescription</text>
</g>
<!-- u3&#45;&gt;u19 -->
<g id="edge9" class="edge">
<title>u3&#45;&gt;u19</title>
<path fill="none" stroke="black" d="M2432.97,-1772.72C2433.78,-1717.64 2436.31,-1545.83 2437.31,-1478.48"/>
<polygon fill="black" stroke="black" points="2440.81,-1478.29 2437.46,-1468.24 2433.81,-1478.19 2440.81,-1478.29"/>
</g>
<!-- u2 -->
<g id="node7" class="node">
<title>u2</title>
<ellipse fill="#ffffbb" stroke="black" cx="2767.71" cy="-1109" rx="104.78" ry="18"/>
<text text-anchor="middle" x="2767.71" y="-1105.3" font-family="Times,serif" font-size="14.00">Drasil.DocLang.SRS</text>
</g>
<!-- u1&#45;&gt;u29 -->
<g id="edge7" class="edge">
<title>u1&#45;&gt;u29</title>
<path fill="none" stroke="black" d="M1310.6,-1774.44C1117.08,-1718.8 459.73,-1529.79 250.34,-1469.58"/>
<polygon fill="black" stroke="black" points="251.29,-1466.21 240.71,-1466.81 249.35,-1472.94 251.29,-1466.21"/>
</g>
<!-- u26 -->
<g id="node24" class="node">
<title>u26</title>
<ellipse fill="#ffbbff" stroke="black" cx="1224.71" cy="-1450" rx="201.46" ry="18"/>
<text text-anchor="middle" x="1224.71" y="-1446.3" font-family="Times,serif" font-size="14.00">Drasil.Sections.TableOfAbbAndAcronyms</text>
</g>
<!-- u1&#45;&gt;u26 -->
<g id="edge6" class="edge">
<title>u1&#45;&gt;u26</title>
<path fill="none" stroke="black" d="M1357.58,-1772.72C1334.73,-1717.41 1263.29,-1544.41 1235.72,-1477.65"/>
<polygon fill="black" stroke="black" points="1238.88,-1476.15 1231.83,-1468.24 1232.41,-1478.82 1238.88,-1476.15"/>
</g>
<!-- u25 -->
<g id="node25" class="node">
<title>u25</title>
<ellipse fill="#ffbbff" stroke="black" cx="525.71" cy="-1450" rx="172.47" ry="18"/>
<text text-anchor="middle" x="525.71" y="-1446.3" font-family="Times,serif" font-size="14.00">Drasil.Sections.AuxiliaryConstants</text>
</g>
<!-- u1&#45;&gt;u25 -->
<g id="edge5" class="edge">
<title>u1&#45;&gt;u25</title>
<path fill="none" stroke="black" d="M1324.53,-1773.76C1186.19,-1717.87 729.77,-1533.45 576.45,-1471.5"/>
<polygon fill="black" stroke="black" points="577.38,-1468.1 566.8,-1467.6 574.76,-1474.59 577.38,-1468.1"/>
</g>
<!-- u24 -->
<g id="node26" class="node">
<title>u24</title>
<ellipse fill="#ffbbff" stroke="black" cx="1958.71" cy="-1450" rx="177.37" ry="18"/>
<text text-anchor="middle" x="1958.71" y="-1446.3" font-family="Times,serif" font-size="14.00">Drasil.Sections.TraceabilityMandGs</text>
</g>
<!-- u1&#45;&gt;u24 -->
<g id="edge4" class="edge">
<title>u1&#45;&gt;u24</title>
<path fill="none" stroke="black" d="M1394.17,-1773.19C1492.53,-1717.05 1809.67,-1536.06 1920.25,-1472.95"/>
<polygon fill="black" stroke="black" points="1922.13,-1475.91 1929.08,-1467.91 1918.66,-1469.83 1922.13,-1475.91"/>
</g>
<!-- u21 -->
<g id="node29" class="node">
<title>u21</title>
<ellipse fill="#ffbbff" stroke="black" cx="860.71" cy="-1450" rx="144.87" ry="18"/>
<text text-anchor="middle" x="860.71" y="-1446.3" font-family="Times,serif" font-size="14.00">Drasil.Sections.TableOfUnits</text>
</g>
<!-- u1&#45;&gt;u21 -->
<g id="edge3" class="edge">
<title>u1&#45;&gt;u21</title>
<path fill="none" stroke="black" d="M1339.72,-1773.19C1256.51,-1717.22 988.79,-1537.15 894.2,-1473.52"/>
<polygon fill="black" stroke="black" points="896.11,-1470.59 885.85,-1467.91 892.2,-1476.4 896.11,-1470.59"/>
</g>
<!-- u20 -->
<g id="node30" class="node">
<title>u20</title>
<ellipse fill="#ffbbff" stroke="black" cx="1603.71" cy="-1450" rx="159.47" ry="18"/>
<text text-anchor="middle" x="1603.71" y="-1446.3" font-family="Times,serif" font-size="14.00">Drasil.Sections.TableOfSymbols</text>
</g>
<!-- u1&#45;&gt;u20 -->
<g id="edge2" class="edge">
<title>u1&#45;&gt;u20</title>
<path fill="none" stroke="black" d="M1376.89,-1772.72C1416.13,-1717.07 1539.36,-1542.28 1585.78,-1476.43"/>
<polygon fill="black" stroke="black" points="1588.65,-1478.43 1591.55,-1468.24 1582.93,-1474.4 1588.65,-1478.43"/>
</g>
<!-- u1&#45;&gt;u19 -->
<g id="edge1" class="edge">
<title>u1&#45;&gt;u19</title>
<path fill="none" stroke="black" d="M1414.67,-1774.22C1590.75,-1718.59 2182.29,-1531.7 2375.84,-1470.55"/>
<polygon fill="black" stroke="black" points="2377.09,-1473.82 2385.57,-1467.47 2374.98,-1467.15 2377.09,-1473.82"/>
</g>
<!-- u0 -->
<g id="node9" class="node">
<title>u0</title>
<ellipse fill="#ffffbb" stroke="black" cx="4105.71" cy="-1450" rx="129.18" ry="18"/>
<text text-anchor="middle" x="4105.71" y="-1446.3" font-family="Times,serif" font-size="14.00">Drasil.DocLang.Notebook</text>
</g>
<!-- u14 -->
<g id="node10" class="node">
<title>u14</title>
<ellipse fill="#bbbbff" stroke="black" cx="2128.71" cy="-768" rx="223.66" ry="18"/>
<text text-anchor="middle" x="2128.71" y="-764.3" font-family="Times,serif" font-size="14.00">Drasil.DocumentLanguage.TraceabilityMatrix</text>
</g>
<!-- u10 -->
<g id="node14" class="node">
<title>u10</title>
<ellipse fill="#bbbbff" stroke="black" cx="2311.71" cy="-426" rx="187.37" ry="18"/>
<text text-anchor="middle" x="2311.71" y="-422.3" font-family="Times,serif" font-size="14.00">Drasil.DocumentLanguage.Definitions</text>
</g>
<!-- u14&#45;&gt;u10 -->
<g id="edge31" class="edge">
<title>u14&#45;&gt;u10</title>
<path fill="none" stroke="black" d="M2138.04,-749.67C2167.96,-694.08 2261.67,-519.98 2297.54,-453.32"/>
<polygon fill="black" stroke="black" points="2300.74,-454.76 2302.4,-444.29 2294.58,-451.44 2300.74,-454.76"/>
</g>
<!-- u13&#45;&gt;u2 -->
<g id="edge29" class="edge">
<title>u13&#45;&gt;u2</title>
<path fill="none" stroke="black" d="M1981.17,-1775.16C2148.36,-1746.28 2472.2,-1666.88 2654.71,-1468 2744.07,-1370.63 2762.76,-1202.91 2766.68,-1137.37"/>
<polygon fill="black" stroke="black" points="2770.19,-1137.22 2767.22,-1127.05 2763.2,-1136.86 2770.19,-1137.22"/>
</g>
<!-- u13&#45;&gt;u24 -->
<g id="edge30" class="edge">
<title>u13&#45;&gt;u24</title>
<path fill="none" stroke="black" d="M1878.99,-1772.72C1892.67,-1717.52 1935.39,-1545.12 1952,-1478.07"/>
<polygon fill="black" stroke="black" points="1955.43,-1478.79 1954.44,-1468.24 1948.64,-1477.11 1955.43,-1478.79"/>
</g>
<!-- u12&#45;&gt;u14 -->
<g id="edge28" class="edge">
<title>u12&#45;&gt;u14</title>
<path fill="none" stroke="black" d="M2021.47,-1090.72C2039.87,-1035.52 2097.34,-863.12 2119.69,-796.07"/>
<polygon fill="black" stroke="black" points="2123.12,-796.84 2122.96,-786.24 2116.48,-794.62 2123.12,-796.84"/>
</g>
<!-- u11 -->
<g id="node13" class="node">
<title>u11</title>
<ellipse fill="#bbbbff" stroke="black" cx="525.71" cy="-85" rx="162.47" ry="18"/>
<text text-anchor="middle" x="525.71" y="-81.3" font-family="Times,serif" font-size="14.00">Drasil.DocumentLanguage.Units</text>
</g>
<!-- u10&#45;&gt;u11 -->
<g id="edge27" class="edge">
<title>u10&#45;&gt;u11</title>
<path fill="none" stroke="black" d="M2231.21,-409.72C1936.94,-353.86 920.79,-160.99 614.06,-102.77"/>
<polygon fill="black" stroke="black" points="614.36,-99.26 603.89,-100.84 613.06,-106.14 614.36,-99.26"/>
</g>
<!-- u17 -->
<g id="node15" class="node">
<title>u17</title>
<ellipse fill="#ffbbbb" stroke="black" cx="3571.71" cy="-1791" rx="219.86" ry="18"/>
<text text-anchor="middle" x="3571.71" y="-1787.3" font-family="Times,serif" font-size="14.00">Drasil.DocumentLanguage.Notebook.NBDecl</text>
</g>
<!-- u15 -->
<g id="node17" class="node">
<title>u15</title>
<ellipse fill="#ffbbbb" stroke="black" cx="3625.71" cy="-1450" rx="206.06" ry="18"/>
<text text-anchor="middle" x="3625.71" y="-1446.3" font-family="Times,serif" font-size="14.00">Drasil.DocumentLanguage.Notebook.Core</text>
</g>
<!-- u17&#45;&gt;u15 -->
<g id="edge35" class="edge">
<title>u17&#45;&gt;u15</title>
<path fill="none" stroke="black" d="M3574.46,-1772.72C3583.24,-1717.64 3610.6,-1545.83 3621.33,-1478.48"/>
<polygon fill="black" stroke="black" points="3624.85,-1478.67 3622.96,-1468.24 3617.93,-1477.57 3624.85,-1478.67"/>
</g>
<!-- u16&#45;&gt;u17 -->
<g id="edge34" class="edge">
<title>u16&#45;&gt;u17</title>
<path fill="none" stroke="black" d="M3742.54,-2113.72C3713.11,-2058.3 3620.93,-1884.7 3585.65,-1818.24"/>
<polygon fill="black" stroke="black" points="3588.65,-1816.43 3580.87,-1809.24 3582.46,-1819.72 3588.65,-1816.43"/>
</g>
<!-- u5 -->
<g id="node18" class="node">
<title>u5</title>
<ellipse fill="#bbffff" stroke="black" cx="3931.71" cy="-1791" rx="122.38" ry="18"/>
<text text-anchor="middle" x="3931.71" y="-1787.3" font-family="Times,serif" font-size="14.00">Drasil.NBSections.Body</text>
</g>
<!-- u16&#45;&gt;u5 -->
<g id="edge33" class="edge">
<title>u16&#45;&gt;u5</title>
<path fill="none" stroke="black" d="M3760.88,-2113.72C3790.31,-2058.3 3882.49,-1884.7 3917.78,-1818.24"/>
<polygon fill="black" stroke="black" points="3920.96,-1819.72 3922.56,-1809.24 3914.77,-1816.43 3920.96,-1819.72"/>
</g>
<!-- u4 -->
<g id="node19" class="node">
<title>u4</title>
<ellipse fill="#bbffff" stroke="black" cx="4227.71" cy="-1791" rx="155.97" ry="18"/>
<text text-anchor="middle" x="4227.71" y="-1787.3" font-family="Times,serif" font-size="14.00">Drasil.NBSections.Introduction</text>
</g>
<!-- u16&#45;&gt;u4 -->
<g id="edge32" class="edge">
<title>u16&#45;&gt;u4</title>
<path fill="none" stroke="black" d="M3775.64,-2113.96C3854.46,-2057.82 4105.98,-1878.69 4195.61,-1814.86"/>
<polygon fill="black" stroke="black" points="4197.9,-1817.53 4204.01,-1808.88 4193.84,-1811.83 4197.9,-1817.53"/>
</g>
<!-- u5&#45;&gt;u0 -->
<g id="edge11" class="edge">
<title>u5&#45;&gt;u0</title>
<path fill="none" stroke="black" d="M3940.58,-1772.72C3969.03,-1717.3 4058.13,-1543.7 4092.24,-1477.24"/>
<polygon fill="black" stroke="black" points="4095.41,-1478.74 4096.86,-1468.24 4089.18,-1475.54 4095.41,-1478.74"/>
</g>
<!-- u4&#45;&gt;u0 -->
<g id="edge10" class="edge">
<title>u4&#45;&gt;u0</title>
<path fill="none" stroke="black" d="M4221.49,-1772.72C4201.59,-1717.41 4139.33,-1544.41 4115.3,-1477.65"/>
<polygon fill="black" stroke="black" points="4118.6,-1476.47 4111.92,-1468.24 4112.01,-1478.84 4118.6,-1476.47"/>
</g>
<!-- u30&#45;&gt;u2 -->
<g id="edge50" class="edge">
<title>u30&#45;&gt;u2</title>
<path fill="none" stroke="black" d="M2857.87,-1431.72C2842.4,-1376.52 2794.09,-1204.12 2775.3,-1137.07"/>
<polygon fill="black" stroke="black" points="2778.61,-1135.93 2772.54,-1127.24 2771.87,-1137.82 2778.61,-1135.93"/>
</g>
<!-- u30&#45;&gt;u12 -->
<g id="edge51" class="edge">
<title>u30&#45;&gt;u12</title>
<path fill="none" stroke="black" d="M2821.57,-1432.53C2681.2,-1376.35 2221.29,-1192.28 2066.83,-1130.46"/>
<polygon fill="black" stroke="black" points="2067.69,-1127.03 2057.1,-1126.57 2065.08,-1133.53 2067.69,-1127.03"/>
</g>
<!-- u29&#45;&gt;u2 -->
<g id="edge48" class="edge">
<title>u29&#45;&gt;u2</title>
<path fill="none" stroke="black" d="M282.6,-1436.28C692.37,-1382.48 2280.12,-1174.02 2677.27,-1121.87"/>
<polygon fill="black" stroke="black" points="2677.81,-1125.33 2687.27,-1120.56 2676.9,-1118.39 2677.81,-1125.33"/>
</g>
<!-- u29&#45;&gt;u11 -->
<g id="edge49" class="edge">
<title>u29&#45;&gt;u11</title>
<path fill="none" stroke="black" d="M190.01,-1431.77C225.83,-1288.17 474.51,-291.23 518.93,-113.18"/>
<polygon fill="black" stroke="black" points="522.37,-113.86 521.39,-103.31 515.58,-112.16 522.37,-113.86"/>
</g>
<!-- u27&#45;&gt;u2 -->
<g id="edge47" class="edge">
<title>u27&#45;&gt;u2</title>
<path fill="none" stroke="black" d="M2797.32,-1773.27C2877.12,-1725.79 3087.13,-1583.77 3032.71,-1432 2984.98,-1298.89 2855.83,-1181.46 2797.28,-1133.27"/>
<polygon fill="black" stroke="black" points="2799.47,-1130.53 2789.5,-1126.93 2795.04,-1135.96 2799.47,-1130.53"/>
</g>
<!-- u25&#45;&gt;u2 -->
<g id="edge45" class="edge">
<title>u25&#45;&gt;u2</title>
<path fill="none" stroke="black" d="M619.19,-1434.87C986.63,-1379.31 2328.79,-1176.37 2682.04,-1122.95"/>
<polygon fill="black" stroke="black" points="2682.58,-1126.41 2691.95,-1121.46 2681.54,-1119.49 2682.58,-1126.41"/>
</g>
<!-- u25&#45;&gt;u11 -->
<g id="edge46" class="edge">
<title>u25&#45;&gt;u11</title>
<path fill="none" stroke="black" d="M525.71,-1431.77C525.71,-1288.24 525.71,-292.23 525.71,-113.45"/>
<polygon fill="black" stroke="black" points="529.21,-113.31 525.71,-103.31 522.21,-113.31 529.21,-113.31"/>
</g>
<!-- u24&#45;&gt;u12 -->
<g id="edge44" class="edge">
<title>u24&#45;&gt;u12</title>
<path fill="none" stroke="black" d="M1961.62,-1431.72C1970.88,-1376.64 1999.76,-1204.83 2011.09,-1137.48"/>
<polygon fill="black" stroke="black" points="2014.6,-1137.68 2012.81,-1127.24 2007.7,-1136.52 2014.6,-1137.68"/>
</g>
<!-- u23&#45;&gt;u2 -->
<g id="edge43" class="edge">
<title>u23&#45;&gt;u2</title>
<path fill="none" stroke="black" d="M3095.13,-1772.65C3098.81,-1719.16 3104.86,-1553.16 3050.71,-1432 2991.26,-1298.96 2857.21,-1181.07 2797.44,-1132.98"/>
<polygon fill="black" stroke="black" points="2799.52,-1130.16 2789.52,-1126.66 2795.16,-1135.63 2799.52,-1130.16"/>
</g>
<!-- u22&#45;&gt;u2 -->
<g id="edge41" class="edge">
<title>u22&#45;&gt;u2</title>
<path fill="none" stroke="black" d="M3235.31,-1432.19C3154.07,-1376.21 2892.66,-1196.09 2800.36,-1132.49"/>
<polygon fill="black" stroke="black" points="2802.19,-1129.5 2791.97,-1126.71 2798.21,-1135.27 2802.19,-1129.5"/>
</g>
<!-- u22&#45;&gt;u10 -->
<g id="edge42" class="edge">
<title>u22&#45;&gt;u10</title>
<path fill="none" stroke="black" d="M3243.65,-1431.69C3131.54,-1310.82 2466.39,-593.75 2334.45,-451.52"/>
<polygon fill="black" stroke="black" points="2336.91,-449.02 2327.55,-444.07 2331.78,-453.78 2336.91,-449.02"/>
</g>
<!-- u21&#45;&gt;u12 -->
<g id="edge40" class="edge">
<title>u21&#45;&gt;u12</title>
<path fill="none" stroke="black" d="M914.48,-1433.22C1104.76,-1377.37 1745.72,-1189.24 1951.52,-1128.84"/>
<polygon fill="black" stroke="black" points="1952.67,-1132.15 1961.28,-1125.98 1950.69,-1125.43 1952.67,-1132.15"/>
</g>
<!-- u20&#45;&gt;u12 -->
<g id="edge39" class="edge">
<title>u20&#45;&gt;u12</title>
<path fill="none" stroke="black" d="M1624.42,-1431.96C1692.44,-1375.99 1909.03,-1197.78 1987.22,-1133.44"/>
<polygon fill="black" stroke="black" points="1989.7,-1135.93 1995.2,-1126.88 1985.25,-1130.53 1989.7,-1135.93"/>
</g>
<!-- u19&#45;&gt;u2 -->
<g id="edge37" class="edge">
<title>u19&#45;&gt;u2</title>
<path fill="none" stroke="black" d="M2454.53,-1431.72C2509.05,-1375.71 2681.04,-1199.03 2744.17,-1134.18"/>
<polygon fill="black" stroke="black" points="2746.85,-1136.45 2751.32,-1126.84 2741.83,-1131.56 2746.85,-1136.45"/>
</g>
<!-- u19&#45;&gt;u10 -->
<g id="edge38" class="edge">
<title>u19&#45;&gt;u10</title>
<path fill="none" stroke="black" d="M2436.14,-1431.94C2428.89,-1353.69 2397.45,-1021.4 2361.71,-750 2347.23,-640.03 2325.71,-509.68 2316.35,-454.19"/>
<polygon fill="black" stroke="black" points="2319.76,-453.39 2314.64,-444.12 2312.86,-454.56 2319.76,-453.39"/>
</g>
</g>
</svg>
