<?xml version="1.0" encoding="UTF-8" standalone="no"?>
<!DOCTYPE svg PUBLIC "-//W3C//DTD SVG 1.1//EN"
 "http://www.w3.org/Graphics/SVG/1.1/DTD/svg11.dtd">
<!-- Generated by graphviz version 2.43.0 (0)
 -->
<!-- Title: G Pages: 1 -->
<svg width="431pt" height="288pt"
 viewBox="0.00 0.00 430.64 288.00" xmlns="http://www.w3.org/2000/svg" xmlns:xlink="http://www.w3.org/1999/xlink">
<g id="graph0" class="graph" transform="scale(2.66 2.66) rotate(0) translate(4 763.33)">
<title>G</title>
<polygon fill="white" stroke="transparent" points="-4,4 -4,-763.33 1143.38,-763.33 1143.38,4 -4,4"/>
<!-- u0 -->
<g id="node1" class="node">
<title>u0</title>
<ellipse fill="#bbffbb" stroke="black" cx="593.09" cy="-705" rx="34.39" ry="18"/>
<text text-anchor="middle" x="593.09" y="-701.3" font-family="Times,serif" font-size="14.00">Main</text>
</g>
<!-- u5 -->
<g id="node3" class="node">
<title>u5</title>
<ellipse fill="#ffffbb" stroke="black" cx="593.09" cy="-488" rx="104.78" ry="18"/>
<text text-anchor="middle" x="593.09" y="-484.3" font-family="Times,serif" font-size="14.00">Drasil.Website.Body</text>
</g>
<!-- u0&#45;&gt;u5 -->
<g id="edge1" class="edge">
<title>u0&#45;&gt;u5</title>
<path fill="none" stroke="black" d="M593.09,-686.77C593.09,-649.49 593.09,-561.08 593.09,-516.18"/>
<polygon fill="black" stroke="black" points="596.59,-516.01 593.09,-506.01 589.59,-516.01 596.59,-516.01"/>
</g>
<!-- u6 -->
<g id="node2" class="node">
<title>u6</title>
<ellipse fill="#ffffbb" stroke="black" cx="139.09" cy="-271" rx="139.18" ry="18"/>
<text text-anchor="middle" x="139.09" y="-267.3" font-family="Times,serif" font-size="14.00">Drasil.Website.Introduction</text>
</g>
<!-- u5&#45;&gt;u6 -->
<g id="edge6" class="edge">
<title>u5&#45;&gt;u6</title>
<path fill="none" stroke="black" d="M558.96,-470.84C477.8,-432.4 273.32,-335.57 183.06,-292.82"/>
<polygon fill="black" stroke="black" points="184.45,-289.61 173.92,-288.49 181.46,-295.94 184.45,-289.61"/>
</g>
<!-- u4 -->
<g id="node4" class="node">
<title>u4</title>
<ellipse fill="#ffffbb" stroke="black" cx="448.09" cy="-271" rx="152.17" ry="18"/>
<text text-anchor="middle" x="448.09" y="-267.3" font-family="Times,serif" font-size="14.00">Drasil.Website.Documentation</text>
</g>
<!-- u5&#45;&gt;u4 -->
<g id="edge5" class="edge">
<title>u5&#45;&gt;u4</title>
<path fill="none" stroke="black" d="M581.47,-469.77C556,-432.01 495.18,-341.83 465.28,-297.49"/>
<polygon fill="black" stroke="black" points="468.06,-295.35 459.56,-289.01 462.25,-299.26 468.06,-295.35"/>
</g>
<!-- u2 -->
<g id="node6" class="node">
<title>u2</title>
<ellipse fill="#ffffbb" stroke="black" cx="738.09" cy="-271" rx="120.48" ry="18"/>
<text text-anchor="middle" x="738.09" y="-267.3" font-family="Times,serif" font-size="14.00">Drasil.Website.Analysis</text>
</g>
<!-- u5&#45;&gt;u2 -->
<g id="edge4" class="edge">
<title>u5&#45;&gt;u2</title>
<path fill="none" stroke="black" d="M604.71,-469.77C630.17,-432.01 690.99,-341.83 720.89,-297.49"/>
<polygon fill="black" stroke="black" points="723.92,-299.26 726.61,-289.01 718.12,-295.35 723.92,-299.26"/>
</g>
<!-- u1 -->
<g id="node7" class="node">
<title>u1</title>
<ellipse fill="#ffffbb" stroke="black" cx="1008.09" cy="-271" rx="131.08" ry="18"/>
<text text-anchor="middle" x="1008.09" y="-267.3" font-family="Times,serif" font-size="14.00">Drasil.Website.CaseStudy</text>
</g>
<!-- u5&#45;&gt;u1 -->
<g id="edge3" class="edge">
<title>u5&#45;&gt;u1</title>
<path fill="none" stroke="black" d="M624.62,-470.66C698.75,-432.26 884.06,-336.25 966.92,-293.33"/>
<polygon fill="black" stroke="black" points="968.76,-296.31 976.03,-288.61 965.54,-290.1 968.76,-296.31"/>
</g>
<!-- u3 -->
<g id="node5" class="node">
<title>u3</title>
<ellipse fill="#ffffbb" stroke="black" cx="1008.09" cy="-54" rx="122.38" ry="18"/>
<text text-anchor="middle" x="1008.09" y="-50.3" font-family="Times,serif" font-size="14.00">Drasil.Website.Example</text>
</g>
<!-- u1&#45;&gt;u3 -->
<g id="edge2" class="edge">
<title>u1&#45;&gt;u3</title>
<path fill="none" stroke="black" d="M1008.09,-252.77C1008.09,-215.49 1008.09,-127.08 1008.09,-82.18"/>
<polygon fill="black" stroke="black" points="1011.59,-82.01 1008.09,-72.01 1004.59,-82.01 1011.59,-82.01"/>
</g>
</g>
</svg>
