<?xml version="1.0" encoding="UTF-8" standalone="no"?>
<!DOCTYPE svg PUBLIC "-//W3C//DTD SVG 1.1//EN"
 "http://www.w3.org/Graphics/SVG/1.1/DTD/svg11.dtd">
<!-- Generated by graphviz version 2.43.0 (0)
 -->
<!-- Title: G Pages: 1 -->
<svg width="432pt" height="282pt"
 viewBox="0.00 0.00 432.00 281.58" xmlns="http://www.w3.org/2000/svg" xmlns:xlink="http://www.w3.org/1999/xlink">
<g id="graph0" class="graph" transform="scale(10.23 10.23) rotate(0) translate(4 2878)">
<title>G</title>
<polygon fill="white" stroke="transparent" points="-4,4 -4,-2878 4417.5,-2878 4417.5,4 -4,4"/>
<!-- u30 -->
<g id="node1" class="node">
<title>u30</title>
<ellipse fill="#bbffbb" stroke="black" cx="3778.22" cy="-2789" rx="108.58" ry="18"/>
<text text-anchor="middle" x="3778.22" y="-2785.3" font-family="Times,serif" font-size="14.00">Drasil.SRSDocument</text>
</g>
<!-- u28 -->
<g id="node3" class="node">
<title>u28</title>
<ellipse fill="#bbffbb" stroke="black" cx="3778.22" cy="-2451" rx="81.79" ry="18"/>
<text text-anchor="middle" x="3778.22" y="-2447.3" font-family="Times,serif" font-size="14.00">Drasil.DocLang</text>
</g>
<!-- u30&#45;&gt;u28 -->
<g id="edge51" class="edge">
<title>u30&#45;&gt;u28</title>
<path fill="none" stroke="black" d="M3778.22,-2770.88C3778.22,-2716.28 3778.22,-2545.99 3778.22,-2479.24"/>
<polygon fill="black" stroke="black" points="3781.72,-2479.09 3778.22,-2469.09 3774.72,-2479.09 3781.72,-2479.09"/>
</g>
<!-- u29 -->
<g id="node2" class="node">
<title>u29</title>
<ellipse fill="#bbffbb" stroke="black" cx="2498.22" cy="-2113" rx="133.78" ry="18"/>
<text text-anchor="middle" x="2498.22" y="-2109.3" font-family="Times,serif" font-size="14.00">Drasil.DocumentLanguage</text>
</g>
<!-- u27 -->
<g id="node4" class="node">
<title>u27</title>
<ellipse fill="#bbffbb" stroke="black" cx="933.22" cy="-1775" rx="116.18" ry="18"/>
<text text-anchor="middle" x="933.22" y="-1771.3" font-family="Times,serif" font-size="14.00">Drasil.ExtractDocDesc</text>
</g>
<!-- u29&#45;&gt;u27 -->
<g id="edge50" class="edge">
<title>u29&#45;&gt;u27</title>
<path fill="none" stroke="black" d="M2430.47,-2097.45C2175.6,-2042.74 1275.37,-1849.46 1008.39,-1792.14"/>
<polygon fill="black" stroke="black" points="1008.92,-1788.67 998.4,-1789.99 1007.45,-1795.52 1008.92,-1788.67"/>
</g>
<!-- u14 -->
<g id="node5" class="node">
<title>u14</title>
<ellipse fill="#bbffbb" stroke="black" cx="1160.22" cy="-1775" rx="92.08" ry="18"/>
<text text-anchor="middle" x="1160.22" y="-1771.3" font-family="Times,serif" font-size="14.00">Drasil.TraceTable</text>
</g>
<!-- u29&#45;&gt;u14 -->
<g id="edge45" class="edge">
<title>u29&#45;&gt;u14</title>
<path fill="none" stroke="black" d="M2438.13,-2096.91C2217.29,-2041.45 1451.65,-1849.18 1224.33,-1792.1"/>
<polygon fill="black" stroke="black" points="1225.1,-1788.69 1214.55,-1789.64 1223.4,-1795.47 1225.1,-1788.69"/>
</g>
<!-- u2 -->
<g id="node6" class="node">
<title>u2</title>
<ellipse fill="#bbffbb" stroke="black" cx="1350.22" cy="-1775" rx="79.09" ry="18"/>
<text text-anchor="middle" x="1350.22" y="-1771.3" font-family="Times,serif" font-size="14.00">Drasil.DocDecl</text>
</g>
<!-- u29&#45;&gt;u2 -->
<g id="edge42" class="edge">
<title>u29&#45;&gt;u2</title>
<path fill="none" stroke="black" d="M2445.15,-2096.47C2254.22,-2040.59 1603.2,-1850.04 1406.78,-1792.55"/>
<polygon fill="black" stroke="black" points="1407.53,-1789.13 1396.95,-1789.68 1405.56,-1795.85 1407.53,-1789.13"/>
</g>
<!-- u11 -->
<g id="node9" class="node">
<title>u11</title>
<ellipse fill="#ffffbb" stroke="black" cx="1631.22" cy="-1775" rx="136.48" ry="18"/>
<text text-anchor="middle" x="1631.22" y="-1771.3" font-family="Times,serif" font-size="14.00">Drasil.DocLang.References</text>
</g>
<!-- u29&#45;&gt;u11 -->
<g id="edge44" class="edge">
<title>u29&#45;&gt;u11</title>
<path fill="none" stroke="black" d="M2456.4,-2095.79C2312.78,-2040.13 1839.84,-1856.85 1682.58,-1795.9"/>
<polygon fill="black" stroke="black" points="1683.71,-1792.59 1673.12,-1792.24 1681.18,-1799.12 1683.71,-1792.59"/>
</g>
<!-- u3 -->
<g id="node14" class="node">
<title>u3</title>
<ellipse fill="#bbbbff" stroke="black" cx="2297.22" cy="-1775" rx="220.96" ry="18"/>
<text text-anchor="middle" x="2297.22" y="-1771.3" font-family="Times,serif" font-size="14.00">Drasil.DocumentLanguage.TraceabilityGraph</text>
</g>
<!-- u29&#45;&gt;u3 -->
<g id="edge43" class="edge">
<title>u29&#45;&gt;u3</title>
<path fill="none" stroke="black" d="M2487.98,-2094.88C2455.11,-2039.94 2352.19,-1867.88 2312.78,-1802.01"/>
<polygon fill="black" stroke="black" points="2315.58,-1799.87 2307.44,-1793.09 2309.57,-1803.47 2315.58,-1799.87"/>
</g>
<!-- u25 -->
<g id="node21" class="node">
<title>u25</title>
<ellipse fill="#ffbbff" stroke="black" cx="2699.22" cy="-1775" rx="163.27" ry="18"/>
<text text-anchor="middle" x="2699.22" y="-1771.3" font-family="Times,serif" font-size="14.00">Drasil.Sections.GeneralSystDesc</text>
</g>
<!-- u29&#45;&gt;u25 -->
<g id="edge49" class="edge">
<title>u29&#45;&gt;u25</title>
<path fill="none" stroke="black" d="M2508.46,-2094.88C2541.33,-2039.94 2644.25,-1867.88 2683.66,-1802.01"/>
<polygon fill="black" stroke="black" points="2686.87,-1803.47 2689,-1793.09 2680.86,-1799.87 2686.87,-1803.47"/>
</g>
<!-- u22 -->
<g id="node24" class="node">
<title>u22</title>
<ellipse fill="#ffbbff" stroke="black" cx="2890.22" cy="-1437" rx="161.37" ry="18"/>
<text text-anchor="middle" x="2890.22" y="-1433.3" font-family="Times,serif" font-size="14.00">Drasil.Sections.TableOfContents</text>
</g>
<!-- u29&#45;&gt;u22 -->
<g id="edge48" class="edge">
<title>u29&#45;&gt;u22</title>
<path fill="none" stroke="black" d="M2531.69,-2095.57C2608.25,-2055.92 2795.34,-1946.78 2871.22,-1793 2925.97,-1682.05 2906.62,-1527.18 2895.65,-1465.21"/>
<polygon fill="black" stroke="black" points="2899.04,-1464.28 2893.79,-1455.08 2892.16,-1465.55 2899.04,-1464.28"/>
</g>
<!-- u17 -->
<g id="node29" class="node">
<title>u17</title>
<ellipse fill="#ffbbff" stroke="black" cx="3211.22" cy="-1437" rx="141.88" ry="18"/>
<text text-anchor="middle" x="3211.22" y="-1433.3" font-family="Times,serif" font-size="14.00">Drasil.Sections.Introduction</text>
</g>
<!-- u29&#45;&gt;u17 -->
<g id="edge47" class="edge">
<title>u29&#45;&gt;u17</title>
<path fill="none" stroke="black" d="M2521.56,-2095.23C2584.32,-2049.68 2760.94,-1918.68 2893.22,-1793 3014.67,-1677.6 3142.93,-1522.67 3191.26,-1462.93"/>
<polygon fill="black" stroke="black" points="3193.98,-1465.13 3197.54,-1455.15 3188.53,-1460.73 3193.98,-1465.13"/>
</g>
<!-- u16 -->
<g id="node30" class="node">
<title>u16</title>
<ellipse fill="#ffbbff" stroke="black" cx="3199.22" cy="-1775" rx="144.87" ry="18"/>
<text text-anchor="middle" x="3199.22" y="-1771.3" font-family="Times,serif" font-size="14.00">Drasil.Sections.Stakeholders</text>
</g>
<!-- u29&#45;&gt;u16 -->
<g id="edge46" class="edge">
<title>u29&#45;&gt;u16</title>
<path fill="none" stroke="black" d="M2532.5,-2095.57C2648.49,-2039.97 3026.1,-1858.98 3155.36,-1797.02"/>
<polygon fill="black" stroke="black" points="3157.08,-1800.08 3164.59,-1792.6 3154.06,-1793.77 3157.08,-1800.08"/>
</g>
<!-- u28&#45;&gt;u29 -->
<g id="edge41" class="edge">
<title>u28&#45;&gt;u29</title>
<path fill="none" stroke="black" d="M3727.65,-2436.72C3527.91,-2384.29 2793.76,-2191.58 2566.04,-2131.8"/>
<polygon fill="black" stroke="black" points="2566.78,-2128.38 2556.22,-2129.23 2565,-2135.15 2566.78,-2128.38"/>
</g>
<!-- u9 -->
<g id="node15" class="node">
<title>u9</title>
<ellipse fill="#ffbbbb" stroke="black" cx="3778.22" cy="-2113" rx="276.75" ry="18"/>
<text text-anchor="middle" x="3778.22" y="-2109.3" font-family="Times,serif" font-size="14.00">Drasil.DocumentLanguage.Notebook.DocumentLanguage</text>
</g>
<!-- u28&#45;&gt;u9 -->
<g id="edge39" class="edge">
<title>u28&#45;&gt;u9</title>
<path fill="none" stroke="black" d="M3778.22,-2432.88C3778.22,-2378.28 3778.22,-2207.99 3778.22,-2141.24"/>
<polygon fill="black" stroke="black" points="3781.72,-2141.09 3778.22,-2131.09 3774.72,-2141.09 3781.72,-2141.09"/>
</g>
<!-- u15 -->
<g id="node31" class="node">
<title>u15</title>
<ellipse fill="#ffbbff" stroke="black" cx="4243.22" cy="-2113" rx="170.07" ry="18"/>
<text text-anchor="middle" x="4243.22" y="-2109.3" font-family="Times,serif" font-size="14.00">Drasil.Sections.ReferenceMaterial</text>
</g>
<!-- u28&#45;&gt;u15 -->
<g id="edge40" class="edge">
<title>u28&#45;&gt;u15</title>
<path fill="none" stroke="black" d="M3800.96,-2433.57C3877.11,-2378.55 4123.24,-2200.69 4211.42,-2136.98"/>
<polygon fill="black" stroke="black" points="4213.64,-2139.69 4219.69,-2131 4209.54,-2134.02 4213.64,-2139.69"/>
</g>
<!-- u10 -->
<g id="node10" class="node">
<title>u10</title>
<ellipse fill="#bbbbff" stroke="black" cx="371.22" cy="-1099" rx="159.47" ry="18"/>
<text text-anchor="middle" x="371.22" y="-1095.3" font-family="Times,serif" font-size="14.00">Drasil.DocumentLanguage.Core</text>
</g>
<!-- u27&#45;&gt;u10 -->
<g id="edge37" class="edge">
<title>u27&#45;&gt;u10</title>
<path fill="none" stroke="black" d="M817.53,-1773.02C616.31,-1764.29 205.83,-1713.84 22.22,-1455 -79.66,-1311.38 201.66,-1171.52 320.78,-1120.39"/>
<polygon fill="black" stroke="black" points="322.25,-1123.57 330.09,-1116.44 319.51,-1117.13 322.25,-1123.57"/>
</g>
<!-- u18 -->
<g id="node28" class="node">
<title>u18</title>
<ellipse fill="#ffbbff" stroke="black" cx="954.22" cy="-1437" rx="207.96" ry="18"/>
<text text-anchor="middle" x="954.22" y="-1433.3" font-family="Times,serif" font-size="14.00">Drasil.Sections.SpecificSystemDescription</text>
</g>
<!-- u27&#45;&gt;u18 -->
<g id="edge38" class="edge">
<title>u27&#45;&gt;u18</title>
<path fill="none" stroke="black" d="M934.29,-1756.88C937.7,-1702.28 948.34,-1531.99 952.52,-1465.24"/>
<polygon fill="black" stroke="black" points="956.02,-1465.29 953.15,-1455.09 949.03,-1464.85 956.02,-1465.29"/>
</g>
<!-- u14&#45;&gt;u10 -->
<g id="edge21" class="edge">
<title>u14&#45;&gt;u10</title>
<path fill="none" stroke="black" d="M1100.9,-1761.14C881.53,-1713.03 125.49,-1541.89 60.22,-1455 -40.44,-1321 218.28,-1174.51 326.37,-1121.02"/>
<polygon fill="black" stroke="black" points="327.98,-1124.13 335.42,-1116.59 324.9,-1117.85 327.98,-1124.13"/>
</g>
<!-- u2&#45;&gt;u10 -->
<g id="edge3" class="edge">
<title>u2&#45;&gt;u10</title>
<path fill="none" stroke="black" d="M1295.26,-1762.02C1058.01,-1710.06 131.78,-1504.56 93.22,-1455 -5.24,-1328.43 231.89,-1177.1 330.57,-1121.69"/>
<polygon fill="black" stroke="black" points="332.36,-1124.7 339.4,-1116.79 328.96,-1118.59 332.36,-1124.7"/>
</g>
<!-- u24 -->
<g id="node22" class="node">
<title>u24</title>
<ellipse fill="#ffbbff" stroke="black" cx="1329.22" cy="-1437" rx="149.47" ry="18"/>
<text text-anchor="middle" x="1329.22" y="-1433.3" font-family="Times,serif" font-size="14.00">Drasil.Sections.Requirements</text>
</g>
<!-- u2&#45;&gt;u24 -->
<g id="edge4" class="edge">
<title>u2&#45;&gt;u24</title>
<path fill="none" stroke="black" d="M1349.15,-1756.88C1345.74,-1702.28 1335.09,-1531.99 1330.92,-1465.24"/>
<polygon fill="black" stroke="black" points="1334.4,-1464.85 1330.29,-1455.09 1327.42,-1465.29 1334.4,-1464.85"/>
</g>
<!-- u13 -->
<g id="node7" class="node">
<title>u13</title>
<ellipse fill="#ffffbb" stroke="black" cx="2682.22" cy="-1099" rx="104.78" ry="18"/>
<text text-anchor="middle" x="2682.22" y="-1095.3" font-family="Times,serif" font-size="14.00">Drasil.DocLang.SRS</text>
</g>
<!-- u12 -->
<g id="node8" class="node">
<title>u12</title>
<ellipse fill="#ffffbb" stroke="black" cx="4111.22" cy="-1437" rx="129.18" ry="18"/>
<text text-anchor="middle" x="4111.22" y="-1433.3" font-family="Times,serif" font-size="14.00">Drasil.DocLang.Notebook</text>
</g>
<!-- u26 -->
<g id="node20" class="node">
<title>u26</title>
<ellipse fill="#ffbbff" stroke="black" cx="261.22" cy="-1437" rx="159.47" ry="18"/>
<text text-anchor="middle" x="261.22" y="-1433.3" font-family="Times,serif" font-size="14.00">Drasil.Sections.TableOfSymbols</text>
</g>
<!-- u11&#45;&gt;u26 -->
<g id="edge20" class="edge">
<title>u11&#45;&gt;u26</title>
<path fill="none" stroke="black" d="M1569.69,-1758.91C1345.92,-1704.03 575.81,-1515.15 334.28,-1455.92"/>
<polygon fill="black" stroke="black" points="335.09,-1452.51 324.54,-1453.53 333.42,-1459.31 335.09,-1452.51"/>
</g>
<!-- u11&#45;&gt;u24 -->
<g id="edge19" class="edge">
<title>u11&#45;&gt;u24</title>
<path fill="none" stroke="black" d="M1615.83,-1756.88C1566.15,-1701.6 1409.9,-1527.76 1351.52,-1462.81"/>
<polygon fill="black" stroke="black" points="1353.87,-1460.19 1344.58,-1455.09 1348.66,-1464.87 1353.87,-1460.19"/>
</g>
<!-- u23 -->
<g id="node23" class="node">
<title>u23</title>
<ellipse fill="#ffbbff" stroke="black" cx="2095.22" cy="-1437" rx="177.37" ry="18"/>
<text text-anchor="middle" x="2095.22" y="-1433.3" font-family="Times,serif" font-size="14.00">Drasil.Sections.TraceabilityMandGs</text>
</g>
<!-- u11&#45;&gt;u23 -->
<g id="edge18" class="edge">
<title>u11&#45;&gt;u23</title>
<path fill="none" stroke="black" d="M1654.55,-1757.11C1731.29,-1701.54 1975.99,-1524.34 2063.63,-1460.88"/>
<polygon fill="black" stroke="black" points="2065.8,-1463.63 2071.85,-1454.93 2061.69,-1457.96 2065.8,-1463.63"/>
</g>
<!-- u21 -->
<g id="node25" class="node">
<title>u21</title>
<ellipse fill="#ffbbff" stroke="black" cx="583.22" cy="-1437" rx="144.87" ry="18"/>
<text text-anchor="middle" x="583.22" y="-1433.3" font-family="Times,serif" font-size="14.00">Drasil.Sections.TableOfUnits</text>
</g>
<!-- u11&#45;&gt;u21 -->
<g id="edge17" class="edge">
<title>u11&#45;&gt;u21</title>
<path fill="none" stroke="black" d="M1581.73,-1758.13C1408.64,-1702.64 830.75,-1517.36 642.82,-1457.11"/>
<polygon fill="black" stroke="black" points="643.71,-1453.72 633.11,-1454 641.57,-1460.38 643.71,-1453.72"/>
</g>
<!-- u20 -->
<g id="node26" class="node">
<title>u20</title>
<ellipse fill="#ffbbff" stroke="black" cx="1698.22" cy="-1437" rx="201.46" ry="18"/>
<text text-anchor="middle" x="1698.22" y="-1433.3" font-family="Times,serif" font-size="14.00">Drasil.Sections.TableOfAbbAndAcronyms</text>
</g>
<!-- u11&#45;&gt;u20 -->
<g id="edge16" class="edge">
<title>u11&#45;&gt;u20</title>
<path fill="none" stroke="black" d="M1634.63,-1756.88C1645.52,-1702.28 1679.48,-1531.99 1692.79,-1465.24"/>
<polygon fill="black" stroke="black" points="1696.29,-1465.58 1694.81,-1455.09 1689.42,-1464.21 1696.29,-1465.58"/>
</g>
<!-- u19 -->
<g id="node27" class="node">
<title>u19</title>
<ellipse fill="#ffbbff" stroke="black" cx="2463.22" cy="-1437" rx="172.47" ry="18"/>
<text text-anchor="middle" x="2463.22" y="-1433.3" font-family="Times,serif" font-size="14.00">Drasil.Sections.AuxiliaryConstants</text>
</g>
<!-- u11&#45;&gt;u19 -->
<g id="edge15" class="edge">
<title>u11&#45;&gt;u19</title>
<path fill="none" stroke="black" d="M1671.35,-1757.79C1808.72,-1702.32 2260.03,-1520.06 2412.43,-1458.51"/>
<polygon fill="black" stroke="black" points="2414.07,-1461.63 2422.03,-1454.64 2411.44,-1455.13 2414.07,-1461.63"/>
</g>
<!-- u11&#45;&gt;u18 -->
<g id="edge14" class="edge">
<title>u11&#45;&gt;u18</title>
<path fill="none" stroke="black" d="M1597.65,-1757.34C1485.31,-1701.59 1122.63,-1521.58 997.3,-1459.38"/>
<polygon fill="black" stroke="black" points="998.51,-1456.07 987.99,-1454.76 995.4,-1462.34 998.51,-1456.07"/>
</g>
<!-- u5 -->
<g id="node12" class="node">
<title>u5</title>
<ellipse fill="#bbbbff" stroke="black" cx="522.22" cy="-761" rx="223.66" ry="18"/>
<text text-anchor="middle" x="522.22" y="-757.3" font-family="Times,serif" font-size="14.00">Drasil.DocumentLanguage.TraceabilityMatrix</text>
</g>
<!-- u10&#45;&gt;u5 -->
<g id="edge13" class="edge">
<title>u10&#45;&gt;u5</title>
<path fill="none" stroke="black" d="M378.92,-1080.88C403.55,-1026.05 480.61,-854.59 510.35,-788.42"/>
<polygon fill="black" stroke="black" points="513.63,-789.65 514.54,-779.09 507.25,-786.78 513.63,-789.65"/>
</g>
<!-- u6 -->
<g id="node11" class="node">
<title>u6</title>
<ellipse fill="#bbbbff" stroke="black" cx="1034.22" cy="-423" rx="187.37" ry="18"/>
<text text-anchor="middle" x="1034.22" y="-419.3" font-family="Times,serif" font-size="14.00">Drasil.DocumentLanguage.Definitions</text>
</g>
<!-- u4 -->
<g id="node13" class="node">
<title>u4</title>
<ellipse fill="#bbbbff" stroke="black" cx="1329.22" cy="-85" rx="162.47" ry="18"/>
<text text-anchor="middle" x="1329.22" y="-81.3" font-family="Times,serif" font-size="14.00">Drasil.DocumentLanguage.Units</text>
</g>
<!-- u6&#45;&gt;u4 -->
<g id="edge8" class="edge">
<title>u6&#45;&gt;u4</title>
<path fill="none" stroke="black" d="M1049.25,-404.88C1097.78,-349.6 1250.41,-175.76 1307.44,-110.81"/>
<polygon fill="black" stroke="black" points="1310.25,-112.91 1314.22,-103.09 1304.99,-108.3 1310.25,-112.91"/>
</g>
<!-- u5&#45;&gt;u6 -->
<g id="edge7" class="edge">
<title>u5&#45;&gt;u6</title>
<path fill="none" stroke="black" d="M547.96,-743.11C632.81,-687.42 903.75,-509.62 999.94,-446.5"/>
<polygon fill="black" stroke="black" points="1001.99,-449.34 1008.43,-440.93 998.15,-443.49 1001.99,-449.34"/>
</g>
<!-- u3&#45;&gt;u13 -->
<g id="edge5" class="edge">
<title>u3&#45;&gt;u13</title>
<path fill="none" stroke="black" d="M2327.09,-1757.11C2396.77,-1715.88 2569.8,-1602.6 2644.22,-1455 2700.16,-1344.05 2691.79,-1189.18 2685.53,-1127.21"/>
<polygon fill="black" stroke="black" points="2688.99,-1126.65 2684.44,-1117.08 2682.03,-1127.4 2688.99,-1126.65"/>
</g>
<!-- u3&#45;&gt;u23 -->
<g id="edge6" class="edge">
<title>u3&#45;&gt;u23</title>
<path fill="none" stroke="black" d="M2286.92,-1756.88C2253.9,-1701.94 2150.46,-1529.88 2110.86,-1464.01"/>
<polygon fill="black" stroke="black" points="2113.65,-1461.86 2105.49,-1455.09 2107.65,-1465.46 2113.65,-1461.86"/>
</g>
<!-- u7 -->
<g id="node17" class="node">
<title>u7</title>
<ellipse fill="#ffbbbb" stroke="black" cx="3598.22" cy="-1775" rx="219.86" ry="18"/>
<text text-anchor="middle" x="3598.22" y="-1771.3" font-family="Times,serif" font-size="14.00">Drasil.DocumentLanguage.Notebook.NBDecl</text>
</g>
<!-- u9&#45;&gt;u7 -->
<g id="edge12" class="edge">
<title>u9&#45;&gt;u7</title>
<path fill="none" stroke="black" d="M3769.05,-2094.88C3739.62,-2039.94 3647.44,-1867.88 3612.15,-1802.01"/>
<polygon fill="black" stroke="black" points="3615.18,-1800.25 3607.37,-1793.09 3609.01,-1803.56 3615.18,-1800.25"/>
</g>
<!-- u1 -->
<g id="node18" class="node">
<title>u1</title>
<ellipse fill="#bbffff" stroke="black" cx="3958.22" cy="-1775" rx="122.38" ry="18"/>
<text text-anchor="middle" x="3958.22" y="-1771.3" font-family="Times,serif" font-size="14.00">Drasil.NBSections.Body</text>
</g>
<!-- u9&#45;&gt;u1 -->
<g id="edge11" class="edge">
<title>u9&#45;&gt;u1</title>
<path fill="none" stroke="black" d="M3787.39,-2094.88C3816.82,-2039.94 3909,-1867.88 3944.28,-1802.01"/>
<polygon fill="black" stroke="black" points="3947.43,-1803.56 3949.06,-1793.09 3941.26,-1800.25 3947.43,-1803.56"/>
</g>
<!-- u0 -->
<g id="node19" class="node">
<title>u0</title>
<ellipse fill="#bbffff" stroke="black" cx="4254.22" cy="-1775" rx="155.97" ry="18"/>
<text text-anchor="middle" x="4254.22" y="-1771.3" font-family="Times,serif" font-size="14.00">Drasil.NBSections.Introduction</text>
</g>
<!-- u9&#45;&gt;u0 -->
<g id="edge10" class="edge">
<title>u9&#45;&gt;u0</title>
<path fill="none" stroke="black" d="M3802.48,-2094.88C3881.59,-2039.03 4132.16,-1862.16 4221.88,-1798.83"/>
<polygon fill="black" stroke="black" points="4224.14,-1801.52 4230.29,-1792.89 4220.1,-1795.8 4224.14,-1801.52"/>
</g>
<!-- u8 -->
<g id="node16" class="node">
<title>u8</title>
<ellipse fill="#ffbbbb" stroke="black" cx="3615.22" cy="-1437" rx="206.06" ry="18"/>
<text text-anchor="middle" x="3615.22" y="-1433.3" font-family="Times,serif" font-size="14.00">Drasil.DocumentLanguage.Notebook.Core</text>
</g>
<!-- u7&#45;&gt;u8 -->
<g id="edge9" class="edge">
<title>u7&#45;&gt;u8</title>
<path fill="none" stroke="black" d="M3599.09,-1756.88C3601.85,-1702.28 3610.46,-1531.99 3613.84,-1465.24"/>
<polygon fill="black" stroke="black" points="3617.34,-1465.25 3614.35,-1455.09 3610.35,-1464.9 3617.34,-1465.25"/>
</g>
<!-- u1&#45;&gt;u12 -->
<g id="edge2" class="edge">
<title>u1&#45;&gt;u12</title>
<path fill="none" stroke="black" d="M3966.02,-1756.88C3990.98,-1702.05 4069.06,-1530.59 4099.19,-1464.42"/>
<polygon fill="black" stroke="black" points="4102.48,-1465.64 4103.44,-1455.09 4096.11,-1462.74 4102.48,-1465.64"/>
</g>
<!-- u0&#45;&gt;u12 -->
<g id="edge1" class="edge">
<title>u0&#45;&gt;u12</title>
<path fill="none" stroke="black" d="M4246.93,-1756.88C4223.6,-1702.05 4150.62,-1530.59 4122.46,-1464.42"/>
<polygon fill="black" stroke="black" points="4125.63,-1462.92 4118.49,-1455.09 4119.19,-1465.66 4125.63,-1462.92"/>
</g>
<!-- u26&#45;&gt;u10 -->
<g id="edge36" class="edge">
<title>u26&#45;&gt;u10</title>
<path fill="none" stroke="black" d="M266.83,-1418.88C284.74,-1364.16 340.68,-1193.29 362.44,-1126.83"/>
<polygon fill="black" stroke="black" points="365.84,-1127.68 365.62,-1117.09 359.19,-1125.5 365.84,-1127.68"/>
</g>
<!-- u25&#45;&gt;u13 -->
<g id="edge35" class="edge">
<title>u25&#45;&gt;u13</title>
<path fill="none" stroke="black" d="M2698.78,-1756.66C2696.48,-1665.33 2685.75,-1240 2682.91,-1127.41"/>
<polygon fill="black" stroke="black" points="2686.41,-1127.13 2682.65,-1117.22 2679.41,-1127.31 2686.41,-1127.13"/>
</g>
<!-- u24&#45;&gt;u13 -->
<g id="edge34" class="edge">
<title>u24&#45;&gt;u13</title>
<path fill="none" stroke="black" d="M1391.32,-1420.58C1615.66,-1364.87 2383.2,-1174.26 2615.24,-1116.63"/>
<polygon fill="black" stroke="black" points="2616.37,-1119.96 2625.23,-1114.15 2614.68,-1113.17 2616.37,-1119.96"/>
</g>
<!-- u24&#45;&gt;u4 -->
<g id="edge33" class="edge">
<title>u24&#45;&gt;u4</title>
<path fill="none" stroke="black" d="M1329.22,-1418.93C1329.22,-1276.77 1329.22,-290.26 1329.22,-113.19"/>
<polygon fill="black" stroke="black" points="1332.72,-113.14 1329.22,-103.14 1325.72,-113.14 1332.72,-113.14"/>
</g>
<!-- u23&#45;&gt;u10 -->
<g id="edge32" class="edge">
<title>u23&#45;&gt;u10</title>
<path fill="none" stroke="black" d="M2017.23,-1420.8C1733.04,-1365.41 754.07,-1174.62 457.22,-1116.76"/>
<polygon fill="black" stroke="black" points="457.86,-1113.32 447.37,-1114.84 456.52,-1120.19 457.86,-1113.32"/>
</g>
<!-- u22&#45;&gt;u13 -->
<g id="edge31" class="edge">
<title>u22&#45;&gt;u13</title>
<path fill="none" stroke="black" d="M2879.62,-1418.88C2845.54,-1363.83 2738.66,-1191.18 2698.07,-1125.61"/>
<polygon fill="black" stroke="black" points="2701.04,-1123.75 2692.8,-1117.09 2695.09,-1127.43 2701.04,-1123.75"/>
</g>
<!-- u22&#45;&gt;u10 -->
<g id="edge30" class="edge">
<title>u22&#45;&gt;u10</title>
<path fill="none" stroke="black" d="M2791.08,-1422.78C2391,-1369.41 896.78,-1170.1 479.86,-1114.49"/>
<polygon fill="black" stroke="black" points="480.29,-1111.02 469.91,-1113.16 479.36,-1117.96 480.29,-1111.02"/>
</g>
<!-- u21&#45;&gt;u10 -->
<g id="edge29" class="edge">
<title>u21&#45;&gt;u10</title>
<path fill="none" stroke="black" d="M572.41,-1418.88C537.68,-1363.83 428.75,-1191.18 387.38,-1125.61"/>
<polygon fill="black" stroke="black" points="390.3,-1123.68 382,-1117.09 384.38,-1127.41 390.3,-1123.68"/>
</g>
<!-- u19&#45;&gt;u13 -->
<g id="edge28" class="edge">
<title>u19&#45;&gt;u13</title>
<path fill="none" stroke="black" d="M2474.38,-1418.88C2510.26,-1363.83 2622.79,-1191.18 2665.53,-1125.61"/>
<polygon fill="black" stroke="black" points="2668.55,-1127.38 2671.08,-1117.09 2662.69,-1123.56 2668.55,-1127.38"/>
</g>
<!-- u19&#45;&gt;u4 -->
<g id="edge27" class="edge">
<title>u19&#45;&gt;u4</title>
<path fill="none" stroke="black" d="M2448.88,-1418.93C2328.93,-1276.14 1493.35,-281.39 1350.1,-110.85"/>
<polygon fill="black" stroke="black" points="1352.73,-108.55 1343.62,-103.14 1347.37,-113.05 1352.73,-108.55"/>
</g>
<!-- u18&#45;&gt;u13 -->
<g id="edge26" class="edge">
<title>u18&#45;&gt;u13</title>
<path fill="none" stroke="black" d="M1034.67,-1420.36C1325.56,-1363.79 2320.54,-1170.33 2605.43,-1114.93"/>
<polygon fill="black" stroke="black" points="2606.52,-1118.29 2615.67,-1112.94 2605.18,-1111.41 2606.52,-1118.29"/>
</g>
<!-- u18&#45;&gt;u6 -->
<g id="edge25" class="edge">
<title>u18&#45;&gt;u6</title>
<path fill="none" stroke="black" d="M955.57,-1418.86C964.97,-1300.02 1020.38,-599.07 1032.06,-451.33"/>
<polygon fill="black" stroke="black" points="1035.55,-451.54 1032.85,-441.3 1028.58,-450.99 1035.55,-451.54"/>
</g>
<!-- u17&#45;&gt;u13 -->
<g id="edge24" class="edge">
<title>u17&#45;&gt;u13</title>
<path fill="none" stroke="black" d="M3184.62,-1419.11C3096.75,-1363.29 2815.72,-1184.8 2716.95,-1122.06"/>
<polygon fill="black" stroke="black" points="2718.56,-1118.94 2708.24,-1116.53 2714.81,-1124.84 2718.56,-1118.94"/>
</g>
<!-- u17&#45;&gt;u6 -->
<g id="edge23" class="edge">
<title>u17&#45;&gt;u6</title>
<path fill="none" stroke="black" d="M3195.49,-1418.78C3143.58,-1362.86 2971.05,-1183.97 2796.22,-1081 2193.13,-725.8 1364.43,-504.76 1110.95,-442.28"/>
<polygon fill="black" stroke="black" points="1111.65,-438.85 1101.1,-439.86 1109.98,-445.65 1111.65,-438.85"/>
</g>
<!-- u16&#45;&gt;u13 -->
<g id="edge22" class="edge">
<title>u16&#45;&gt;u13</title>
<path fill="none" stroke="black" d="M3218.84,-1756.9C3276.94,-1704.17 3439.33,-1540.35 3362.22,-1419 3231.13,-1212.7 2927.45,-1137.49 2774.2,-1111.99"/>
<polygon fill="black" stroke="black" points="2774.31,-1108.47 2763.88,-1110.32 2773.18,-1115.38 2774.31,-1108.47"/>
</g>
</g>
</svg>
