<?xml version="1.0" encoding="UTF-8" standalone="no"?>
<!DOCTYPE svg PUBLIC "-//W3C//DTD SVG 1.1//EN"
 "http://www.w3.org/Graphics/SVG/1.1/DTD/svg11.dtd">
<!-- Generated by graphviz version 2.43.0 (0)
 -->
<!-- Title: G Pages: 1 -->
<svg width="432pt" height="285pt"
 viewBox="0.00 0.00 432.00 284.55" xmlns="http://www.w3.org/2000/svg" xmlns:xlink="http://www.w3.org/1999/xlink">
<g id="graph0" class="graph" transform="scale(5.64 5.64) rotate(0) translate(4 1601.33)">
<title>G</title>
<polygon fill="white" stroke="transparent" points="-4,4 -4,-1601.33 2433.17,-1601.33 2433.17,4 -4,4"/>
<!-- u20 -->
<g id="node1" class="node">
<title>u20</title>
<ellipse fill="#bbffbb" stroke="black" cx="1452.18" cy="-1559" rx="69.59" ry="18"/>
<text text-anchor="middle" x="1452.18" y="-1555.3" font-family="Times,serif" font-size="14.00">GOOL.Drasil</text>
</g>
<!-- u3 -->
<g id="node8" class="node">
<title>u3</title>
<ellipse fill="#ffffbb" stroke="black" cx="2131.18" cy="-1103" rx="113.98" ry="18"/>
<text text-anchor="middle" x="2131.18" y="-1099.3" font-family="Times,serif" font-size="14.00">GOOL.Drasil.CodeInfo</text>
</g>
<!-- u20&#45;&gt;u3 -->
<g id="edge30" class="edge">
<title>u20&#45;&gt;u3</title>
<path fill="none" stroke="black" d="M1518.87,-1553.68C1725.82,-1539.62 2346.79,-1492.11 2405.18,-1425 2502.91,-1312.68 2272.87,-1176.43 2173.82,-1125"/>
<polygon fill="black" stroke="black" points="2175.15,-1121.75 2164.66,-1120.29 2171.95,-1127.98 2175.15,-1121.75"/>
</g>
<!-- u18 -->
<g id="node13" class="node">
<title>u18</title>
<ellipse fill="#bbbbff" stroke="black" cx="2171.18" cy="-1407" rx="224.76" ry="18"/>
<text text-anchor="middle" x="2171.18" y="-1403.3" font-family="Times,serif" font-size="14.00">GOOL.Drasil.LanguageRenderer.CppRenderer</text>
</g>
<!-- u20&#45;&gt;u18 -->
<g id="edge35" class="edge">
<title>u20&#45;&gt;u18</title>
<path fill="none" stroke="black" d="M1504.47,-1547.09C1626.95,-1521.54 1933.49,-1457.59 2084.43,-1426.1"/>
<polygon fill="black" stroke="black" points="2085.51,-1429.45 2094.58,-1423.98 2084.08,-1422.6 2085.51,-1429.45"/>
</g>
<!-- u17 -->
<g id="node14" class="node">
<title>u17</title>
<ellipse fill="#bbbbff" stroke="black" cx="1697.18" cy="-1407" rx="230.96" ry="18"/>
<text text-anchor="middle" x="1697.18" y="-1403.3" font-family="Times,serif" font-size="14.00">GOOL.Drasil.LanguageRenderer.SwiftRenderer</text>
</g>
<!-- u20&#45;&gt;u17 -->
<g id="edge34" class="edge">
<title>u20&#45;&gt;u17</title>
<path fill="none" stroke="black" d="M1477.94,-1542.23C1521.74,-1515.41 1610.88,-1460.84 1660.95,-1430.18"/>
<polygon fill="black" stroke="black" points="1662.83,-1433.13 1669.53,-1424.93 1659.17,-1427.16 1662.83,-1433.13"/>
</g>
<!-- u15 -->
<g id="node16" class="node">
<title>u15</title>
<ellipse fill="#bbbbff" stroke="black" cx="239.18" cy="-1407" rx="239.36" ry="18"/>
<text text-anchor="middle" x="239.18" y="-1403.3" font-family="Times,serif" font-size="14.00">GOOL.Drasil.LanguageRenderer.PythonRenderer</text>
</g>
<!-- u20&#45;&gt;u15 -->
<g id="edge33" class="edge">
<title>u20&#45;&gt;u15</title>
<path fill="none" stroke="black" d="M1390.78,-1550.41C1201.98,-1527.06 627.2,-1455.98 368.17,-1423.95"/>
<polygon fill="black" stroke="black" points="368.31,-1420.44 357.96,-1422.69 367.45,-1427.39 368.31,-1420.44"/>
</g>
<!-- u14 -->
<g id="node17" class="node">
<title>u14</title>
<ellipse fill="#bbbbff" stroke="black" cx="722.18" cy="-1407" rx="225.56" ry="18"/>
<text text-anchor="middle" x="722.18" y="-1403.3" font-family="Times,serif" font-size="14.00">GOOL.Drasil.LanguageRenderer.JavaRenderer</text>
</g>
<!-- u20&#45;&gt;u14 -->
<g id="edge32" class="edge">
<title>u20&#45;&gt;u14</title>
<path fill="none" stroke="black" d="M1399.39,-1547.15C1275.04,-1521.6 962.73,-1457.43 809.6,-1425.96"/>
<polygon fill="black" stroke="black" points="810.24,-1422.52 799.74,-1423.94 808.83,-1429.38 810.24,-1422.52"/>
</g>
<!-- u11 -->
<g id="node20" class="node">
<title>u11</title>
<ellipse fill="#bbbbff" stroke="black" cx="1207.18" cy="-1407" rx="241.26" ry="18"/>
<text text-anchor="middle" x="1207.18" y="-1403.3" font-family="Times,serif" font-size="14.00">GOOL.Drasil.LanguageRenderer.CSharpRenderer</text>
</g>
<!-- u20&#45;&gt;u11 -->
<g id="edge31" class="edge">
<title>u20&#45;&gt;u11</title>
<path fill="none" stroke="black" d="M1426.42,-1542.23C1382.61,-1515.41 1293.48,-1460.84 1243.41,-1430.18"/>
<polygon fill="black" stroke="black" points="1245.18,-1427.16 1234.83,-1424.93 1241.53,-1433.13 1245.18,-1427.16"/>
</g>
<!-- u9 -->
<g id="node2" class="node">
<title>u9</title>
<ellipse fill="#ffffbb" stroke="black" cx="1644.18" cy="-190" rx="133.78" ry="18"/>
<text text-anchor="middle" x="1644.18" y="-186.3" font-family="Times,serif" font-size="14.00">GOOL.Drasil.CodeAnalysis</text>
</g>
<!-- u8 -->
<g id="node3" class="node">
<title>u8</title>
<ellipse fill="#ffffbb" stroke="black" cx="1467.18" cy="-647" rx="150.57" ry="18"/>
<text text-anchor="middle" x="1467.18" y="-643.3" font-family="Times,serif" font-size="14.00">GOOL.Drasil.RendererClasses</text>
</g>
<!-- u4 -->
<g id="node7" class="node">
<title>u4</title>
<ellipse fill="#ffffbb" stroke="black" cx="1593.18" cy="-494" rx="139.18" ry="18"/>
<text text-anchor="middle" x="1593.18" y="-490.3" font-family="Times,serif" font-size="14.00">GOOL.Drasil.ClassInterface</text>
</g>
<!-- u8&#45;&gt;u4 -->
<g id="edge9" class="edge">
<title>u8&#45;&gt;u4</title>
<path fill="none" stroke="black" d="M1481.39,-628.97C1503.6,-602.35 1546.67,-550.74 1572.38,-519.93"/>
<polygon fill="black" stroke="black" points="1575.11,-522.12 1578.83,-512.2 1569.73,-517.63 1575.11,-522.12"/>
</g>
<!-- u7 -->
<g id="node4" class="node">
<title>u7</title>
<ellipse fill="#ffffbb" stroke="black" cx="1684.18" cy="-38" rx="118.08" ry="18"/>
<text text-anchor="middle" x="1684.18" y="-34.3" font-family="Times,serif" font-size="14.00">GOOL.Drasil.CodeType</text>
</g>
<!-- u6 -->
<g id="node5" class="node">
<title>u6</title>
<ellipse fill="#ffffbb" stroke="black" cx="1705.18" cy="-342" rx="96.68" ry="18"/>
<text text-anchor="middle" x="1705.18" y="-338.3" font-family="Times,serif" font-size="14.00">GOOL.Drasil.State</text>
</g>
<!-- u6&#45;&gt;u9 -->
<g id="edge8" class="edge">
<title>u6&#45;&gt;u9</title>
<path fill="none" stroke="black" d="M1698.18,-323.79C1687.61,-297.8 1667.48,-248.3 1655.01,-217.63"/>
<polygon fill="black" stroke="black" points="1658.1,-215.95 1651.09,-208.01 1651.62,-218.59 1658.1,-215.95"/>
</g>
<!-- u2 -->
<g id="node9" class="node">
<title>u2</title>
<ellipse fill="#ffffbb" stroke="black" cx="1887.18" cy="-190" rx="90.98" ry="18"/>
<text text-anchor="middle" x="1887.18" y="-186.3" font-family="Times,serif" font-size="14.00">GOOL.Drasil.AST</text>
</g>
<!-- u6&#45;&gt;u2 -->
<g id="edge7" class="edge">
<title>u6&#45;&gt;u2</title>
<path fill="none" stroke="black" d="M1725.35,-324.37C1757.88,-297.57 1821.99,-244.73 1859.01,-214.22"/>
<polygon fill="black" stroke="black" points="1861.43,-216.76 1866.92,-207.7 1856.97,-211.36 1861.43,-216.76"/>
</g>
<!-- u5 -->
<g id="node6" class="node">
<title>u5</title>
<ellipse fill="#ffffbb" stroke="black" cx="2171.18" cy="-1255" rx="107.48" ry="18"/>
<text text-anchor="middle" x="2171.18" y="-1251.3" font-family="Times,serif" font-size="14.00">GOOL.Drasil.Classes</text>
</g>
<!-- u4&#45;&gt;u6 -->
<g id="edge6" class="edge">
<title>u4&#45;&gt;u6</title>
<path fill="none" stroke="black" d="M1606.03,-475.79C1625.77,-449.35 1663.69,-398.57 1686.48,-368.04"/>
<polygon fill="black" stroke="black" points="1689.3,-370.11 1692.48,-360.01 1683.69,-365.93 1689.3,-370.11"/>
</g>
<!-- u0 -->
<g id="node11" class="node">
<title>u0</title>
<ellipse fill="#ffffbb" stroke="black" cx="1482.18" cy="-342" rx="108.58" ry="18"/>
<text text-anchor="middle" x="1482.18" y="-338.3" font-family="Times,serif" font-size="14.00">GOOL.Drasil.Helpers</text>
</g>
<!-- u4&#45;&gt;u0 -->
<g id="edge5" class="edge">
<title>u4&#45;&gt;u0</title>
<path fill="none" stroke="black" d="M1580.45,-475.79C1560.96,-449.46 1523.62,-399 1501,-368.43"/>
<polygon fill="black" stroke="black" points="1503.53,-365.96 1494.76,-360.01 1497.9,-370.13 1503.53,-365.96"/>
</g>
<!-- u3&#45;&gt;u4 -->
<g id="edge4" class="edge">
<title>u3&#45;&gt;u4</title>
<path fill="none" stroke="black" d="M2116.23,-1085.13C2041.05,-1000.31 1704.39,-620.47 1615.02,-519.64"/>
<polygon fill="black" stroke="black" points="1617.56,-517.24 1608.31,-512.07 1612.33,-521.88 1617.56,-517.24"/>
</g>
<!-- u2&#45;&gt;u7 -->
<g id="edge3" class="edge">
<title>u2&#45;&gt;u7</title>
<path fill="none" stroke="black" d="M1864.68,-172.37C1828.17,-145.4 1755.99,-92.06 1714.82,-61.64"/>
<polygon fill="black" stroke="black" points="1716.9,-58.83 1706.78,-55.7 1712.74,-64.46 1716.9,-58.83"/>
</g>
<!-- u1 -->
<g id="node10" class="node">
<title>u1</title>
<ellipse fill="#ffffbb" stroke="black" cx="1467.18" cy="-799" rx="161.37" ry="18"/>
<text text-anchor="middle" x="1467.18" y="-795.3" font-family="Times,serif" font-size="14.00">GOOL.Drasil.LanguageRenderer</text>
</g>
<!-- u1&#45;&gt;u8 -->
<g id="edge2" class="edge">
<title>u1&#45;&gt;u8</title>
<path fill="none" stroke="black" d="M1467.18,-780.79C1467.18,-754.91 1467.18,-705.73 1467.18,-675.03"/>
<polygon fill="black" stroke="black" points="1470.68,-675.01 1467.18,-665.01 1463.68,-675.01 1470.68,-675.01"/>
</g>
<!-- u0&#45;&gt;u7 -->
<g id="edge1" class="edge">
<title>u0&#45;&gt;u7</title>
<path fill="none" stroke="black" d="M1479.8,-323.78C1476.23,-291.56 1472.66,-220.99 1501.18,-172 1532.1,-118.87 1593.62,-80.99 1636.76,-59.58"/>
<polygon fill="black" stroke="black" points="1638.47,-62.64 1645.94,-55.13 1635.41,-56.34 1638.47,-62.64"/>
</g>
<!-- u19 -->
<g id="node12" class="node">
<title>u19</title>
<ellipse fill="#bbbbff" stroke="black" cx="772.18" cy="-1255" rx="196.87" ry="18"/>
<text text-anchor="middle" x="772.18" y="-1251.3" font-family="Times,serif" font-size="14.00">GOOL.Drasil.LanguageRenderer.Macros</text>
</g>
<!-- u19&#45;&gt;u8 -->
<g id="edge29" class="edge">
<title>u19&#45;&gt;u8</title>
<path fill="none" stroke="black" d="M790.37,-1236.77C856.76,-1174.05 1092.85,-952.62 1297.18,-781 1344.66,-741.12 1401.79,-697.22 1436.25,-671.17"/>
<polygon fill="black" stroke="black" points="1438.63,-673.76 1444.51,-664.94 1434.42,-668.17 1438.63,-673.76"/>
</g>
<!-- u18&#45;&gt;u5 -->
<g id="edge25" class="edge">
<title>u18&#45;&gt;u5</title>
<path fill="none" stroke="black" d="M2171.18,-1388.79C2171.18,-1362.91 2171.18,-1313.73 2171.18,-1283.03"/>
<polygon fill="black" stroke="black" points="2174.68,-1283.01 2171.18,-1273.01 2167.68,-1283.01 2174.68,-1283.01"/>
</g>
<!-- u18&#45;&gt;u19 -->
<g id="edge28" class="edge">
<title>u18&#45;&gt;u19</title>
<path fill="none" stroke="black" d="M2042.7,-1392.22C1777.77,-1363.82 1173.18,-1299 904.78,-1270.22"/>
<polygon fill="black" stroke="black" points="904.91,-1266.71 894.59,-1269.13 904.16,-1273.67 904.91,-1266.71"/>
</g>
<!-- u12 -->
<g id="node19" class="node">
<title>u12</title>
<ellipse fill="#bbbbff" stroke="black" cx="1238.18" cy="-1255" rx="251.56" ry="18"/>
<text text-anchor="middle" x="1238.18" y="-1251.3" font-family="Times,serif" font-size="14.00">GOOL.Drasil.LanguageRenderer.CommonPseudoOO</text>
</g>
<!-- u18&#45;&gt;u12 -->
<g id="edge27" class="edge">
<title>u18&#45;&gt;u12</title>
<path fill="none" stroke="black" d="M2075.72,-1390.65C1900.48,-1362.48 1528.68,-1302.7 1345.19,-1273.2"/>
<polygon fill="black" stroke="black" points="1345.68,-1269.74 1335.25,-1271.61 1344.57,-1276.65 1345.68,-1269.74"/>
</g>
<!-- u10 -->
<g id="node21" class="node">
<title>u10</title>
<ellipse fill="#bbbbff" stroke="black" cx="1697.18" cy="-1255" rx="189.27" ry="18"/>
<text text-anchor="middle" x="1697.18" y="-1251.3" font-family="Times,serif" font-size="14.00">GOOL.Drasil.LanguageRenderer.CLike</text>
</g>
<!-- u18&#45;&gt;u10 -->
<g id="edge26" class="edge">
<title>u18&#45;&gt;u10</title>
<path fill="none" stroke="black" d="M2118.64,-1389.37C2030.29,-1361.42 1852.45,-1305.14 1758.52,-1275.41"/>
<polygon fill="black" stroke="black" points="1759.46,-1272.04 1748.87,-1272.36 1757.35,-1278.71 1759.46,-1272.04"/>
</g>
<!-- u17&#45;&gt;u19 -->
<g id="edge24" class="edge">
<title>u17&#45;&gt;u19</title>
<path fill="none" stroke="black" d="M1602.1,-1390.58C1426.88,-1362.17 1054.49,-1301.78 874.2,-1272.54"/>
<polygon fill="black" stroke="black" points="874.61,-1269.07 864.18,-1270.92 873.49,-1275.98 874.61,-1269.07"/>
</g>
<!-- u17&#45;&gt;u12 -->
<g id="edge23" class="edge">
<title>u17&#45;&gt;u12</title>
<path fill="none" stroke="black" d="M1646.3,-1389.37C1561.18,-1361.55 1390.24,-1305.69 1298.94,-1275.86"/>
<polygon fill="black" stroke="black" points="1299.87,-1272.48 1289.28,-1272.7 1297.7,-1279.13 1299.87,-1272.48"/>
</g>
<!-- u17&#45;&gt;u10 -->
<g id="edge22" class="edge">
<title>u17&#45;&gt;u10</title>
<path fill="none" stroke="black" d="M1697.18,-1388.79C1697.18,-1362.91 1697.18,-1313.73 1697.18,-1283.03"/>
<polygon fill="black" stroke="black" points="1700.68,-1283.01 1697.18,-1273.01 1693.68,-1283.01 1700.68,-1283.01"/>
</g>
<!-- u16 -->
<g id="node15" class="node">
<title>u16</title>
<ellipse fill="#bbbbff" stroke="black" cx="1279.18" cy="-1103" rx="265.65" ry="18"/>
<text text-anchor="middle" x="1279.18" y="-1099.3" font-family="Times,serif" font-size="14.00">GOOL.Drasil.LanguageRenderer.LanguagePolymorphic</text>
</g>
<!-- u13 -->
<g id="node18" class="node">
<title>u13</title>
<ellipse fill="#bbbbff" stroke="black" cx="1467.18" cy="-951" rx="223.66" ry="18"/>
<text text-anchor="middle" x="1467.18" y="-947.3" font-family="Times,serif" font-size="14.00">GOOL.Drasil.LanguageRenderer.Constructors</text>
</g>
<!-- u16&#45;&gt;u13 -->
<g id="edge21" class="edge">
<title>u16&#45;&gt;u13</title>
<path fill="none" stroke="black" d="M1300.74,-1084.79C1334.46,-1057.89 1399.72,-1005.83 1437.73,-975.49"/>
<polygon fill="black" stroke="black" points="1440.23,-977.98 1445.86,-969.01 1435.86,-972.51 1440.23,-977.98"/>
</g>
<!-- u15&#45;&gt;u19 -->
<g id="edge20" class="edge">
<title>u15&#45;&gt;u19</title>
<path fill="none" stroke="black" d="M297.74,-1389.52C397.29,-1361.5 598.95,-1304.75 704.43,-1275.07"/>
<polygon fill="black" stroke="black" points="705.65,-1278.36 714.33,-1272.28 703.75,-1271.62 705.65,-1278.36"/>
</g>
<!-- u15&#45;&gt;u12 -->
<g id="edge19" class="edge">
<title>u15&#45;&gt;u12</title>
<path fill="none" stroke="black" d="M341.39,-1390.65C529.58,-1362.4 929.48,-1302.35 1125.33,-1272.94"/>
<polygon fill="black" stroke="black" points="1125.99,-1276.38 1135.36,-1271.44 1124.95,-1269.46 1125.99,-1276.38"/>
</g>
<!-- u14&#45;&gt;u19 -->
<g id="edge18" class="edge">
<title>u14&#45;&gt;u19</title>
<path fill="none" stroke="black" d="M727.91,-1388.79C736.58,-1362.8 753.08,-1313.3 763.3,-1282.63"/>
<polygon fill="black" stroke="black" points="766.67,-1283.6 766.51,-1273.01 760.03,-1281.39 766.67,-1283.6"/>
</g>
<!-- u14&#45;&gt;u12 -->
<g id="edge17" class="edge">
<title>u14&#45;&gt;u12</title>
<path fill="none" stroke="black" d="M778.88,-1389.52C874.87,-1361.61 1068.94,-1305.2 1171.37,-1275.42"/>
<polygon fill="black" stroke="black" points="1172.37,-1278.78 1180.99,-1272.62 1170.41,-1272.05 1172.37,-1278.78"/>
</g>
<!-- u14&#45;&gt;u10 -->
<g id="edge16" class="edge">
<title>u14&#45;&gt;u10</title>
<path fill="none" stroke="black" d="M821.03,-1390.79C1006.05,-1362.33 1402.99,-1301.26 1592.42,-1272.12"/>
<polygon fill="black" stroke="black" points="1593.03,-1275.56 1602.39,-1270.58 1591.97,-1268.64 1593.03,-1275.56"/>
</g>
<!-- u13&#45;&gt;u1 -->
<g id="edge15" class="edge">
<title>u13&#45;&gt;u1</title>
<path fill="none" stroke="black" d="M1467.18,-932.79C1467.18,-906.91 1467.18,-857.73 1467.18,-827.03"/>
<polygon fill="black" stroke="black" points="1470.68,-827.01 1467.18,-817.01 1463.68,-827.01 1470.68,-827.01"/>
</g>
<!-- u12&#45;&gt;u16 -->
<g id="edge14" class="edge">
<title>u12&#45;&gt;u16</title>
<path fill="none" stroke="black" d="M1242.88,-1236.79C1249.96,-1210.91 1263.4,-1161.73 1271.79,-1131.03"/>
<polygon fill="black" stroke="black" points="1275.27,-1131.58 1274.53,-1121.01 1268.52,-1129.73 1275.27,-1131.58"/>
</g>
<!-- u11&#45;&gt;u19 -->
<g id="edge13" class="edge">
<title>u11&#45;&gt;u19</title>
<path fill="none" stroke="black" d="M1158.54,-1389.23C1077.74,-1361.37 916.21,-1305.66 829.81,-1275.87"/>
<polygon fill="black" stroke="black" points="830.76,-1272.5 820.17,-1272.55 828.48,-1279.12 830.76,-1272.5"/>
</g>
<!-- u11&#45;&gt;u12 -->
<g id="edge12" class="edge">
<title>u11&#45;&gt;u12</title>
<path fill="none" stroke="black" d="M1210.73,-1388.79C1216.08,-1362.91 1226.25,-1313.73 1232.59,-1283.03"/>
<polygon fill="black" stroke="black" points="1236.07,-1283.51 1234.66,-1273.01 1229.21,-1282.09 1236.07,-1283.51"/>
</g>
<!-- u11&#45;&gt;u10 -->
<g id="edge11" class="edge">
<title>u11&#45;&gt;u10</title>
<path fill="none" stroke="black" d="M1261.49,-1389.37C1352.91,-1361.39 1537.04,-1305.02 1634.06,-1275.32"/>
<polygon fill="black" stroke="black" points="1635.21,-1278.63 1643.74,-1272.36 1633.16,-1271.94 1635.21,-1278.63"/>
</g>
<!-- u10&#45;&gt;u13 -->
<g id="edge10" class="edge">
<title>u10&#45;&gt;u13</title>
<path fill="none" stroke="black" d="M1684.15,-1236.9C1645.66,-1186.35 1532.26,-1037.46 1486.58,-977.47"/>
<polygon fill="black" stroke="black" points="1489.19,-975.12 1480.35,-969.29 1483.62,-979.37 1489.19,-975.12"/>
</g>
</g>
</svg>
