<?xml version="1.0" encoding="UTF-8" standalone="no"?>
<!DOCTYPE svg PUBLIC "-//W3C//DTD SVG 1.1//EN"
 "http://www.w3.org/Graphics/SVG/1.1/DTD/svg11.dtd">
<!-- Generated by graphviz version 2.43.0 (0)
 -->
<!-- Title: G Pages: 1 -->
<svg width="431pt" height="288pt"
 viewBox="0.00 0.00 430.62 288.00" xmlns="http://www.w3.org/2000/svg" xmlns:xlink="http://www.w3.org/1999/xlink">
<g id="graph0" class="graph" transform="scale(2.66 2.66) rotate(0) translate(4 763.33)">
<title>G</title>
<polygon fill="white" stroke="transparent" points="-4,4 -4,-763.33 1143.33,-763.33 1143.33,4 -4,4"/>
<!-- u6 -->
<g id="node1" class="node">
<title>u6</title>
<ellipse fill="#bbffbb" stroke="black" cx="605.09" cy="-705" rx="34.39" ry="18"/>
<text text-anchor="middle" x="605.09" y="-701.3" font-family="Times,serif" font-size="14.00">Main</text>
</g>
<!-- u4 -->
<g id="node3" class="node">
<title>u4</title>
<ellipse fill="#ffffbb" stroke="black" cx="605.09" cy="-488" rx="104.78" ry="18"/>
<text text-anchor="middle" x="605.09" y="-484.3" font-family="Times,serif" font-size="14.00">Drasil.Website.Body</text>
</g>
<!-- u6&#45;&gt;u4 -->
<g id="edge6" class="edge">
<title>u6&#45;&gt;u4</title>
<path fill="none" stroke="black" d="M605.09,-686.77C605.09,-649.49 605.09,-561.08 605.09,-516.18"/>
<polygon fill="black" stroke="black" points="608.59,-516.01 605.09,-506.01 601.59,-516.01 608.59,-516.01"/>
</g>
<!-- u5 -->
<g id="node2" class="node">
<title>u5</title>
<ellipse fill="#ffffbb" stroke="black" cx="749.09" cy="-54" rx="122.38" ry="18"/>
<text text-anchor="middle" x="749.09" y="-50.3" font-family="Times,serif" font-size="14.00">Drasil.Website.Example</text>
</g>
<!-- u3 -->
<g id="node4" class="node">
<title>u3</title>
<ellipse fill="#ffffbb" stroke="black" cx="152.09" cy="-271" rx="152.17" ry="18"/>
<text text-anchor="middle" x="152.09" y="-267.3" font-family="Times,serif" font-size="14.00">Drasil.Website.Documentation</text>
</g>
<!-- u4&#45;&gt;u3 -->
<g id="edge5" class="edge">
<title>u4&#45;&gt;u3</title>
<path fill="none" stroke="black" d="M571.04,-470.84C490.15,-432.45 286.52,-335.8 196.3,-292.98"/>
<polygon fill="black" stroke="black" points="197.69,-289.77 187.15,-288.64 194.69,-296.09 197.69,-289.77"/>
</g>
<!-- u2 -->
<g id="node5" class="node">
<title>u2</title>
<ellipse fill="#ffffbb" stroke="black" cx="461.09" cy="-271" rx="139.18" ry="18"/>
<text text-anchor="middle" x="461.09" y="-267.3" font-family="Times,serif" font-size="14.00">Drasil.Website.Introduction</text>
</g>
<!-- u4&#45;&gt;u2 -->
<g id="edge4" class="edge">
<title>u4&#45;&gt;u2</title>
<path fill="none" stroke="black" d="M593.55,-469.77C568.26,-432.01 507.86,-341.83 478.16,-297.49"/>
<polygon fill="black" stroke="black" points="480.96,-295.38 472.48,-289.01 475.14,-299.27 480.96,-295.38"/>
</g>
<!-- u1 -->
<g id="node6" class="node">
<title>u1</title>
<ellipse fill="#ffffbb" stroke="black" cx="749.09" cy="-271" rx="131.08" ry="18"/>
<text text-anchor="middle" x="749.09" y="-267.3" font-family="Times,serif" font-size="14.00">Drasil.Website.CaseStudy</text>
</g>
<!-- u4&#45;&gt;u1 -->
<g id="edge3" class="edge">
<title>u4&#45;&gt;u1</title>
<path fill="none" stroke="black" d="M616.63,-469.77C641.91,-432.01 702.32,-341.83 732.01,-297.49"/>
<polygon fill="black" stroke="black" points="735.03,-299.27 737.69,-289.01 729.22,-295.38 735.03,-299.27"/>
</g>
<!-- u0 -->
<g id="node7" class="node">
<title>u0</title>
<ellipse fill="#ffffbb" stroke="black" cx="1019.09" cy="-271" rx="120.48" ry="18"/>
<text text-anchor="middle" x="1019.09" y="-267.3" font-family="Times,serif" font-size="14.00">Drasil.Website.Analysis</text>
</g>
<!-- u4&#45;&gt;u0 -->
<g id="edge2" class="edge">
<title>u4&#45;&gt;u0</title>
<path fill="none" stroke="black" d="M636.54,-470.66C710.58,-432.21 895.81,-336.02 978.32,-293.17"/>
<polygon fill="black" stroke="black" points="980.13,-296.17 987.39,-288.46 976.91,-289.96 980.13,-296.17"/>
</g>
<!-- u1&#45;&gt;u5 -->
<g id="edge1" class="edge">
<title>u1&#45;&gt;u5</title>
<path fill="none" stroke="black" d="M749.09,-252.77C749.09,-215.49 749.09,-127.08 749.09,-82.18"/>
<polygon fill="black" stroke="black" points="752.59,-82.01 749.09,-72.01 745.59,-82.01 752.59,-82.01"/>
</g>
</g>
</svg>
