<?xml version="1.0" encoding="UTF-8" standalone="no"?>
<!DOCTYPE svg PUBLIC "-//W3C//DTD SVG 1.1//EN"
 "http://www.w3.org/Graphics/SVG/1.1/DTD/svg11.dtd">
<!-- Generated by graphviz version 2.43.0 (0)
 -->
<!-- Title: G Pages: 1 -->
<svg width="432pt" height="287pt"
 viewBox="0.00 0.00 432.00 286.97" xmlns="http://www.w3.org/2000/svg" xmlns:xlink="http://www.w3.org/1999/xlink">
<g id="graph0" class="graph" transform="scale(0.06 0.06) rotate(0) translate(4 4592)">
<title>G</title>
<polygon fill="white" stroke="transparent" points="-4,4 -4,-4592 6914.79,-4592 6914.79,4 -4,4"/>
<!-- u7 -->
<g id="node1" class="node">
<title>u7</title>
<ellipse fill="#bbffbb" stroke="black" cx="579.79" cy="-4218" rx="62.29" ry="18"/>
<text text-anchor="middle" x="579.79" y="-4214.3" font-family="Times,serif" font-size="14.00">HelloWorld</text>
</g>
<!-- u5 -->
<g id="node3" class="node">
<title>u5</title>
<ellipse fill="#bbffbb" stroke="black" cx="563.79" cy="-3922" rx="42.49" ry="18"/>
<text text-anchor="middle" x="563.79" y="-3918.3" font-family="Times,serif" font-size="14.00">Helper</text>
</g>
<!-- u7&#45;&gt;u5 -->
<g id="edge8" class="edge">
<title>u7&#45;&gt;u5</title>
<path fill="none" stroke="black" d="M578.87,-4199.92C576.2,-4151.01 568.53,-4010.05 565.28,-3950.3"/>
<polygon fill="black" stroke="black" points="568.76,-3949.92 564.73,-3940.12 561.78,-3950.3 568.76,-3949.92"/>
</g>
<!-- u6 -->
<g id="node2" class="node">
<title>u6</title>
<ellipse fill="#bbffbb" stroke="black" cx="712.79" cy="-4218" rx="52.79" ry="18"/>
<text text-anchor="middle" x="712.79" y="-4214.3" font-family="Times,serif" font-size="14.00">FileTests</text>
</g>
<!-- u2 -->
<g id="node4" class="node">
<title>u2</title>
<ellipse fill="#bbffbb" stroke="black" cx="59.79" cy="-4218" rx="59.59" ry="18"/>
<text text-anchor="middle" x="59.79" y="-4214.3" font-family="Times,serif" font-size="14.00">VectorTest</text>
</g>
<!-- u0 -->
<g id="node5" class="node">
<title>u0</title>
<ellipse fill="#bbffbb" stroke="black" cx="213.79" cy="-4218" rx="76.09" ry="18"/>
<text text-anchor="middle" x="213.79" y="-4214.3" font-family="Times,serif" font-size="14.00">NameGenTest</text>
</g>
<!-- u60 -->
<g id="node6" class="node">
<title>u60</title>
<ellipse fill="#ffffbb" stroke="black" cx="2512.79" cy="-4514" rx="214.46" ry="18"/>
<text text-anchor="middle" x="2512.79" y="-4510.3" font-family="Times,serif" font-size="14.00">Data.Drasil.ExternalLibraries.ODELibraries</text>
</g>
<!-- u8 -->
<g id="node12" class="node">
<title>u8</title>
<ellipse fill="#ffbbbb" stroke="black" cx="2512.79" cy="-4218" rx="113.18" ry="18"/>
<text text-anchor="middle" x="2512.79" y="-4214.3" font-family="Times,serif" font-size="14.00">Language.Drasil.Code</text>
</g>
<!-- u60&#45;&gt;u8 -->
<g id="edge97" class="edge">
<title>u60&#45;&gt;u8</title>
<path fill="none" stroke="black" d="M2512.79,-4495.92C2512.79,-4447.01 2512.79,-4306.05 2512.79,-4246.3"/>
<polygon fill="black" stroke="black" points="2516.29,-4246.12 2512.79,-4236.12 2509.29,-4246.12 2516.29,-4246.12"/>
</g>
<!-- u4 -->
<g id="node7" class="node">
<title>u4</title>
<ellipse fill="#bbbbff" stroke="black" cx="403.79" cy="-4218" rx="95.58" ry="18"/>
<text text-anchor="middle" x="403.79" y="-4214.3" font-family="Times,serif" font-size="14.00">GOOL.PatternTest</text>
</g>
<!-- u3 -->
<g id="node8" class="node">
<title>u3</title>
<ellipse fill="#bbbbff" stroke="black" cx="403.79" cy="-3922" rx="84.49" ry="18"/>
<text text-anchor="middle" x="403.79" y="-3918.3" font-family="Times,serif" font-size="14.00">GOOL.Observer</text>
</g>
<!-- u4&#45;&gt;u3 -->
<g id="edge7" class="edge">
<title>u4&#45;&gt;u3</title>
<path fill="none" stroke="black" d="M403.79,-4199.92C403.79,-4151.01 403.79,-4010.05 403.79,-3950.3"/>
<polygon fill="black" stroke="black" points="407.29,-3950.12 403.79,-3940.12 400.29,-3950.12 407.29,-3950.12"/>
</g>
<!-- u59 -->
<g id="node9" class="node">
<title>u59</title>
<ellipse fill="#ffbbbb" stroke="black" cx="4994.79" cy="-2146" rx="135.68" ry="18"/>
<text text-anchor="middle" x="4994.79" y="-2142.3" font-family="Times,serif" font-size="14.00">Language.Drasil.CodeSpec</text>
</g>
<!-- u57 -->
<g id="node11" class="node">
<title>u57</title>
<ellipse fill="#ffbbbb" stroke="black" cx="4475.79" cy="-1850" rx="126.18" ry="18"/>
<text text-anchor="middle" x="4475.79" y="-1846.3" font-family="Times,serif" font-size="14.00">Language.Drasil.Choices</text>
</g>
<!-- u59&#45;&gt;u57 -->
<g id="edge96" class="edge">
<title>u59&#45;&gt;u57</title>
<path fill="none" stroke="black" d="M4965.4,-2128.35C4876.92,-2078.23 4613.07,-1928.76 4513.97,-1872.63"/>
<polygon fill="black" stroke="black" points="4515.61,-1869.53 4505.18,-1867.65 4512.16,-1875.62 4515.61,-1869.53"/>
</g>
<!-- u13 -->
<g id="node14" class="node">
<title>u13</title>
<ellipse fill="#bbffff" stroke="black" cx="5396.79" cy="-1850" rx="191.17" ry="18"/>
<text text-anchor="middle" x="5396.79" y="-1846.3" font-family="Times,serif" font-size="14.00">Language.Drasil.Chunk.CodeDefinition</text>
</g>
<!-- u59&#45;&gt;u13 -->
<g id="edge95" class="edge">
<title>u59&#45;&gt;u13</title>
<path fill="none" stroke="black" d="M5017.85,-2128.14C5085.97,-2078.32 5286.4,-1931.74 5364.82,-1874.38"/>
<polygon fill="black" stroke="black" points="5367.32,-1876.89 5373.33,-1868.16 5363.19,-1871.24 5367.32,-1876.89"/>
</g>
<!-- u11 -->
<g id="node16" class="node">
<title>u11</title>
<ellipse fill="#bbffff" stroke="black" cx="4957.79" cy="-1850" rx="192.27" ry="18"/>
<text text-anchor="middle" x="4957.79" y="-1846.3" font-family="Times,serif" font-size="14.00">Language.Drasil.Chunk.ConstraintMap</text>
</g>
<!-- u59&#45;&gt;u11 -->
<g id="edge94" class="edge">
<title>u59&#45;&gt;u11</title>
<path fill="none" stroke="black" d="M4992.65,-2127.92C4986.49,-2079.01 4968.75,-1938.05 4961.23,-1878.3"/>
<polygon fill="black" stroke="black" points="4964.67,-1877.61 4959.95,-1868.12 4957.73,-1878.48 4964.67,-1877.61"/>
</g>
<!-- u58 -->
<g id="node10" class="node">
<title>u58</title>
<ellipse fill="#ffbbbb" stroke="black" cx="4462.79" cy="-962" rx="110.48" ry="18"/>
<text text-anchor="middle" x="4462.79" y="-958.3" font-family="Times,serif" font-size="14.00">Language.Drasil.Mod</text>
</g>
<!-- u12 -->
<g id="node15" class="node">
<title>u12</title>
<ellipse fill="#bbffff" stroke="black" cx="4462.79" cy="-666" rx="170.87" ry="18"/>
<text text-anchor="middle" x="4462.79" y="-662.3" font-family="Times,serif" font-size="14.00">Language.Drasil.Chunk.Parameter</text>
</g>
<!-- u58&#45;&gt;u12 -->
<g id="edge92" class="edge">
<title>u58&#45;&gt;u12</title>
<path fill="none" stroke="black" d="M4462.79,-943.92C4462.79,-895.01 4462.79,-754.05 4462.79,-694.3"/>
<polygon fill="black" stroke="black" points="4466.29,-694.12 4462.79,-684.12 4459.29,-694.12 4466.29,-694.12"/>
</g>
<!-- u52 -->
<g id="node21" class="node">
<title>u52</title>
<ellipse fill="#ffbbff" stroke="black" cx="3932.79" cy="-666" rx="160.57" ry="18"/>
<text text-anchor="middle" x="3932.79" y="-662.3" font-family="Times,serif" font-size="14.00">Language.Drasil.Code.DataDesc</text>
</g>
<!-- u58&#45;&gt;u52 -->
<g id="edge93" class="edge">
<title>u58&#45;&gt;u52</title>
<path fill="none" stroke="black" d="M4433.16,-944.56C4343.21,-894.67 4073.27,-744.92 3971.87,-688.67"/>
<polygon fill="black" stroke="black" points="3973.31,-685.47 3962.87,-683.68 3969.92,-691.6 3973.31,-685.47"/>
</g>
<!-- u48 -->
<g id="node25" class="node">
<title>u48</title>
<ellipse fill="#ffbbff" stroke="black" cx="4177.79" cy="-1554" rx="139.98" ry="18"/>
<text text-anchor="middle" x="4177.79" y="-1550.3" font-family="Times,serif" font-size="14.00">Language.Drasil.Code.Code</text>
</g>
<!-- u57&#45;&gt;u48 -->
<g id="edge90" class="edge">
<title>u57&#45;&gt;u48</title>
<path fill="none" stroke="black" d="M4458.48,-1831.92C4408.08,-1782.19 4261.26,-1637.35 4202.52,-1579.39"/>
<polygon fill="black" stroke="black" points="4204.73,-1576.66 4195.15,-1572.12 4199.81,-1581.64 4204.73,-1576.66"/>
</g>
<!-- u56 -->
<g id="node59" class="node">
<title>u56</title>
<ellipse fill="#bbff77" stroke="black" cx="4508.79" cy="-1554" rx="172.77" ry="18"/>
<text text-anchor="middle" x="4508.79" y="-1550.3" font-family="Times,serif" font-size="14.00">Language.Drasil.Data.ODELibPckg</text>
</g>
<!-- u57&#45;&gt;u56 -->
<g id="edge91" class="edge">
<title>u57&#45;&gt;u56</title>
<path fill="none" stroke="black" d="M4477.71,-1831.92C4483.2,-1783.01 4499.02,-1642.05 4505.73,-1582.3"/>
<polygon fill="black" stroke="black" points="4509.24,-1582.45 4506.87,-1572.12 4502.28,-1581.67 4509.24,-1582.45"/>
</g>
<!-- u33 -->
<g id="node37" class="node">
<title>u33</title>
<ellipse fill="#77ff77" stroke="black" cx="1728.79" cy="-2442" rx="217.96" ry="18"/>
<text text-anchor="middle" x="1728.79" y="-2438.3" font-family="Times,serif" font-size="14.00">Language.Drasil.Code.Imperative.ReadInput</text>
</g>
<!-- u8&#45;&gt;u33 -->
<g id="edge16" class="edge">
<title>u8&#45;&gt;u33</title>
<path fill="none" stroke="black" d="M2417.68,-4208.18C2035.71,-4170.2 633.79,-4005.03 633.79,-3627 633.79,-3627 633.79,-3627 633.79,-3033 633.79,-2613.57 1264.13,-2490.96 1568.31,-2456.22"/>
<polygon fill="black" stroke="black" points="1569,-2459.66 1578.55,-2455.06 1568.22,-2452.7 1569,-2459.66"/>
</g>
<!-- u32 -->
<g id="node38" class="node">
<title>u32</title>
<ellipse fill="#77ff77" stroke="black" cx="5611.79" cy="-3922" rx="217.16" ry="18"/>
<text text-anchor="middle" x="5611.79" y="-3918.3" font-family="Times,serif" font-size="14.00">Language.Drasil.Code.Imperative.Generator</text>
</g>
<!-- u8&#45;&gt;u32 -->
<g id="edge15" class="edge">
<title>u8&#45;&gt;u32</title>
<path fill="none" stroke="black" d="M2607.23,-4208.04C3050.23,-4166.01 4923.41,-3988.31 5464.73,-3936.95"/>
<polygon fill="black" stroke="black" points="5465.32,-3940.41 5474.94,-3935.98 5464.65,-3933.44 5465.32,-3940.41"/>
</g>
<!-- u25 -->
<g id="node51" class="node">
<title>u25</title>
<ellipse fill="#77ffff" stroke="black" cx="4712.79" cy="-3626" rx="352.84" ry="18"/>
<text text-anchor="middle" x="4712.79" y="-3622.3" font-family="Times,serif" font-size="14.00">Language.Drasil.Code.Imperative.GOOL.LanguageRenderer.CppRenderer</text>
</g>
<!-- u8&#45;&gt;u25 -->
<g id="edge14" class="edge">
<title>u8&#45;&gt;u25</title>
<path fill="none" stroke="black" d="M2568,-4202.19C2867.97,-4121.75 4300.9,-3737.46 4640.5,-3646.39"/>
<polygon fill="black" stroke="black" points="4641.48,-3649.75 4650.23,-3643.78 4639.66,-3642.99 4641.48,-3649.75"/>
</g>
<!-- u24 -->
<g id="node52" class="node">
<title>u24</title>
<ellipse fill="#77ffff" stroke="black" cx="1030.79" cy="-3626" rx="369.33" ry="18"/>
<text text-anchor="middle" x="1030.79" y="-3622.3" font-family="Times,serif" font-size="14.00">Language.Drasil.Code.Imperative.GOOL.LanguageRenderer.CSharpRenderer</text>
</g>
<!-- u8&#45;&gt;u24 -->
<g id="edge13" class="edge">
<title>u8&#45;&gt;u24</title>
<path fill="none" stroke="black" d="M2472.77,-4201.07C2265.72,-4118.63 1316.73,-3740.83 1082.95,-3647.76"/>
<polygon fill="black" stroke="black" points="1083.91,-3644.38 1073.32,-3643.93 1081.32,-3650.88 1083.91,-3644.38"/>
</g>
<!-- u23 -->
<g id="node53" class="node">
<title>u23</title>
<ellipse fill="#77ffff" stroke="black" cx="1772.79" cy="-3626" rx="354.74" ry="18"/>
<text text-anchor="middle" x="1772.79" y="-3622.3" font-family="Times,serif" font-size="14.00">Language.Drasil.Code.Imperative.GOOL.LanguageRenderer.JuliaRenderer</text>
</g>
<!-- u8&#45;&gt;u23 -->
<g id="edge12" class="edge">
<title>u8&#45;&gt;u23</title>
<path fill="none" stroke="black" d="M2491.84,-4200.29C2387.45,-4117.07 1923.78,-3747.38 1802.11,-3650.37"/>
<polygon fill="black" stroke="black" points="1804.28,-3647.62 1794.27,-3644.13 1799.91,-3653.1 1804.28,-3647.62"/>
</g>
<!-- u22 -->
<g id="node54" class="node">
<title>u22</title>
<ellipse fill="#77ffff" stroke="black" cx="2512.79" cy="-3626" rx="367.43" ry="18"/>
<text text-anchor="middle" x="2512.79" y="-3622.3" font-family="Times,serif" font-size="14.00">Language.Drasil.Code.Imperative.GOOL.LanguageRenderer.PythonRenderer</text>
</g>
<!-- u8&#45;&gt;u22 -->
<g id="edge11" class="edge">
<title>u8&#45;&gt;u22</title>
<path fill="none" stroke="black" d="M2512.79,-4199.98C2512.79,-4117.22 2512.79,-3756.67 2512.79,-3654.23"/>
<polygon fill="black" stroke="black" points="2516.29,-3654.09 2512.79,-3644.09 2509.29,-3654.09 2516.29,-3654.09"/>
</g>
<!-- u21 -->
<g id="node55" class="node">
<title>u21</title>
<ellipse fill="#77ffff" stroke="black" cx="3251.79" cy="-3626" rx="354.44" ry="18"/>
<text text-anchor="middle" x="3251.79" y="-3622.3" font-family="Times,serif" font-size="14.00">Language.Drasil.Code.Imperative.GOOL.LanguageRenderer.JavaRenderer</text>
</g>
<!-- u8&#45;&gt;u21 -->
<g id="edge10" class="edge">
<title>u8&#45;&gt;u21</title>
<path fill="none" stroke="black" d="M2533.72,-4200.29C2637.97,-4117.07 3101.01,-3747.38 3222.52,-3650.37"/>
<polygon fill="black" stroke="black" points="3224.71,-3653.1 3230.34,-3644.13 3220.34,-3647.63 3224.71,-3653.1"/>
</g>
<!-- u20 -->
<g id="node56" class="node">
<title>u20</title>
<ellipse fill="#77ffff" stroke="black" cx="3982.79" cy="-3626" rx="358.54" ry="18"/>
<text text-anchor="middle" x="3982.79" y="-3622.3" font-family="Times,serif" font-size="14.00">Language.Drasil.Code.Imperative.GOOL.LanguageRenderer.SwiftRenderer</text>
</g>
<!-- u8&#45;&gt;u20 -->
<g id="edge9" class="edge">
<title>u8&#45;&gt;u20</title>
<path fill="none" stroke="black" d="M2552.49,-4201.07C2757.87,-4118.63 3699.18,-3740.83 3931.06,-3647.76"/>
<polygon fill="black" stroke="black" points="3932.63,-3650.9 3940.61,-3643.93 3930.03,-3644.41 3932.63,-3650.9"/>
</g>
<!-- u14 -->
<g id="node13" class="node">
<title>u14</title>
<ellipse fill="#bbffff" stroke="black" cx="4835.79" cy="-962" rx="202.26" ry="18"/>
<text text-anchor="middle" x="4835.79" y="-958.3" font-family="Times,serif" font-size="14.00">Language.Drasil.Chunk.NamedArgument</text>
</g>
<!-- u55 -->
<g id="node60" class="node">
<title>u55</title>
<ellipse fill="#bbff77" stroke="black" cx="5258.79" cy="-1258" rx="154.07" ry="18"/>
<text text-anchor="middle" x="5258.79" y="-1254.3" font-family="Times,serif" font-size="14.00">Language.Drasil.Data.ODEInfo</text>
</g>
<!-- u13&#45;&gt;u55 -->
<g id="edge19" class="edge">
<title>u13&#45;&gt;u55</title>
<path fill="none" stroke="black" d="M5392.81,-1831.98C5373.44,-1749.13 5288.95,-1387.94 5265.09,-1285.92"/>
<polygon fill="black" stroke="black" points="5268.48,-1285.03 5262.79,-1276.09 5261.66,-1286.62 5268.48,-1285.03"/>
</g>
<!-- u10 -->
<g id="node17" class="node">
<title>u10</title>
<ellipse fill="#bbffff" stroke="black" cx="4462.79" cy="-370" rx="145.67" ry="18"/>
<text text-anchor="middle" x="4462.79" y="-366.3" font-family="Times,serif" font-size="14.00">Language.Drasil.Chunk.Code</text>
</g>
<!-- u12&#45;&gt;u10 -->
<g id="edge18" class="edge">
<title>u12&#45;&gt;u10</title>
<path fill="none" stroke="black" d="M4462.79,-647.92C4462.79,-599.01 4462.79,-458.05 4462.79,-398.3"/>
<polygon fill="black" stroke="black" points="4466.29,-398.12 4462.79,-388.12 4459.29,-398.12 4466.29,-398.12"/>
</g>
<!-- u9 -->
<g id="node18" class="node">
<title>u9</title>
<ellipse fill="#bbffff" stroke="black" cx="4462.79" cy="-74" rx="168.17" ry="18"/>
<text text-anchor="middle" x="4462.79" y="-70.3" font-family="Times,serif" font-size="14.00">Language.Drasil.Chunk.CodeBase</text>
</g>
<!-- u10&#45;&gt;u9 -->
<g id="edge17" class="edge">
<title>u10&#45;&gt;u9</title>
<path fill="none" stroke="black" d="M4462.79,-351.92C4462.79,-303.01 4462.79,-162.05 4462.79,-102.3"/>
<polygon fill="black" stroke="black" points="4466.29,-102.12 4462.79,-92.12 4459.29,-102.12 4466.29,-102.12"/>
</g>
<!-- u54 -->
<g id="node19" class="node">
<title>u54</title>
<ellipse fill="#ffbbff" stroke="black" cx="6299.79" cy="-2738" rx="204.16" ry="18"/>
<text text-anchor="middle" x="6299.79" y="-2734.3" font-family="Times,serif" font-size="14.00">Language.Drasil.Code.CodeQuantityDicts</text>
</g>
<!-- u53 -->
<g id="node20" class="node">
<title>u53</title>
<ellipse fill="#ffbbff" stroke="black" cx="4878.79" cy="-1258" rx="207.96" ry="18"/>
<text text-anchor="middle" x="4878.79" y="-1254.3" font-family="Times,serif" font-size="14.00">Language.Drasil.Code.ExternalLibraryCall</text>
</g>
<!-- u53&#45;&gt;u58 -->
<g id="edge84" class="edge">
<title>u53&#45;&gt;u58</title>
<path fill="none" stroke="black" d="M4854.63,-1239.92C4783.52,-1189.67 4574.98,-1042.28 4494.75,-985.59"/>
<polygon fill="black" stroke="black" points="4496.69,-982.67 4486.51,-979.76 4492.65,-988.39 4496.69,-982.67"/>
</g>
<!-- u53&#45;&gt;u14 -->
<g id="edge83" class="edge">
<title>u53&#45;&gt;u14</title>
<path fill="none" stroke="black" d="M4876.3,-1239.92C4869.14,-1191.01 4848.53,-1050.05 4839.79,-990.3"/>
<polygon fill="black" stroke="black" points="4843.21,-989.51 4838.3,-980.12 4836.28,-990.53 4843.21,-989.51"/>
</g>
<!-- u52&#45;&gt;u10 -->
<g id="edge82" class="edge">
<title>u52&#45;&gt;u10</title>
<path fill="none" stroke="black" d="M3963.19,-648.14C4053.85,-597.85 4322.27,-448.95 4423.53,-392.78"/>
<polygon fill="black" stroke="black" points="4425.47,-395.71 4432.52,-387.79 4422.08,-389.58 4425.47,-395.71"/>
</g>
<!-- u51 -->
<g id="node22" class="node">
<title>u51</title>
<ellipse fill="#ffbbff" stroke="black" cx="5274.79" cy="-3626" rx="191.17" ry="18"/>
<text text-anchor="middle" x="5274.79" y="-3622.3" font-family="Times,serif" font-size="14.00">Language.Drasil.Code.CodeGeneration</text>
</g>
<!-- u51&#45;&gt;u48 -->
<g id="edge81" class="edge">
<title>u51&#45;&gt;u48</title>
<path fill="none" stroke="black" d="M5141.92,-3613.01C4856.56,-3579.23 4210.79,-3456.25 4210.79,-3035 4210.79,-3035 4210.79,-3035 4210.79,-2145 4210.79,-1927.8 4188.22,-1666.31 4180.42,-1582.35"/>
<polygon fill="black" stroke="black" points="4183.9,-1581.98 4179.48,-1572.36 4176.93,-1582.64 4183.9,-1581.98"/>
</g>
<!-- u27 -->
<g id="node49" class="node">
<title>u27</title>
<ellipse fill="#ff7777" stroke="black" cx="3885.79" cy="-3330" rx="222.06" ry="18"/>
<text text-anchor="middle" x="3885.79" y="-3326.3" font-family="Times,serif" font-size="14.00">Language.Drasil.Code.Imperative.GOOL.Data</text>
</g>
<!-- u51&#45;&gt;u27 -->
<g id="edge80" class="edge">
<title>u51&#45;&gt;u27</title>
<path fill="none" stroke="black" d="M5200.61,-3609.3C4963.31,-3559.07 4223.61,-3402.5 3971.2,-3349.08"/>
<polygon fill="black" stroke="black" points="3971.86,-3345.64 3961.35,-3346.99 3970.41,-3352.49 3971.86,-3345.64"/>
</g>
<!-- u50 -->
<g id="node23" class="node">
<title>u50</title>
<ellipse fill="#ffbbff" stroke="black" cx="4462.79" cy="-1258" rx="190.37" ry="18"/>
<text text-anchor="middle" x="4462.79" y="-1254.3" font-family="Times,serif" font-size="14.00">Language.Drasil.Code.ExternalLibrary</text>
</g>
<!-- u50&#45;&gt;u58 -->
<g id="edge79" class="edge">
<title>u50&#45;&gt;u58</title>
<path fill="none" stroke="black" d="M4462.79,-1239.92C4462.79,-1191.01 4462.79,-1050.05 4462.79,-990.3"/>
<polygon fill="black" stroke="black" points="4466.29,-990.12 4462.79,-980.12 4459.29,-990.12 4466.29,-990.12"/>
</g>
<!-- u50&#45;&gt;u14 -->
<g id="edge78" class="edge">
<title>u50&#45;&gt;u14</title>
<path fill="none" stroke="black" d="M4484.46,-1239.92C4547.94,-1189.89 4733.57,-1043.57 4806.19,-986.33"/>
<polygon fill="black" stroke="black" points="4808.38,-989.06 4814.07,-980.12 4804.05,-983.57 4808.38,-989.06"/>
</g>
<!-- u49 -->
<g id="node24" class="node">
<title>u49</title>
<ellipse fill="#ffbbff" stroke="black" cx="4878.79" cy="-1554" rx="178.97" ry="18"/>
<text text-anchor="middle" x="4878.79" y="-1550.3" font-family="Times,serif" font-size="14.00">Language.Drasil.Code.ExtLibImport</text>
</g>
<!-- u49&#45;&gt;u53 -->
<g id="edge77" class="edge">
<title>u49&#45;&gt;u53</title>
<path fill="none" stroke="black" d="M4878.79,-1535.92C4878.79,-1487.01 4878.79,-1346.05 4878.79,-1286.3"/>
<polygon fill="black" stroke="black" points="4882.29,-1286.12 4878.79,-1276.12 4875.29,-1286.12 4882.29,-1286.12"/>
</g>
<!-- u49&#45;&gt;u50 -->
<g id="edge76" class="edge">
<title>u49&#45;&gt;u50</title>
<path fill="none" stroke="black" d="M4854.93,-1536.14C4784.22,-1486.16 4575.7,-1338.8 4495.11,-1281.83"/>
<polygon fill="black" stroke="black" points="4497,-1278.89 4486.82,-1275.98 4492.96,-1284.61 4497,-1278.89"/>
</g>
<!-- u15 -->
<g id="node26" class="node">
<title>u15</title>
<ellipse fill="#ffbbff" stroke="black" cx="4114.79" cy="-1258" rx="139.18" ry="18"/>
<text text-anchor="middle" x="4114.79" y="-1254.3" font-family="Times,serif" font-size="14.00">Language.Drasil.Code.Lang</text>
</g>
<!-- u47 -->
<g id="node27" class="node">
<title>u47</title>
<ellipse fill="#77ff77" stroke="black" cx="6299.79" cy="-3034" rx="223.66" ry="18"/>
<text text-anchor="middle" x="6299.79" y="-3030.3" font-family="Times,serif" font-size="14.00">Language.Drasil.Code.Imperative.Parameters</text>
</g>
<!-- u47&#45;&gt;u54 -->
<g id="edge75" class="edge">
<title>u47&#45;&gt;u54</title>
<path fill="none" stroke="black" d="M6299.79,-3015.92C6299.79,-2967.01 6299.79,-2826.05 6299.79,-2766.3"/>
<polygon fill="black" stroke="black" points="6303.29,-2766.12 6299.79,-2756.12 6296.29,-2766.12 6303.29,-2766.12"/>
</g>
<!-- u40 -->
<g id="node31" class="node">
<title>u40</title>
<ellipse fill="#77ff77" stroke="black" cx="5413.79" cy="-2442" rx="222.06" ry="18"/>
<text text-anchor="middle" x="5413.79" y="-2438.3" font-family="Times,serif" font-size="14.00">Language.Drasil.Code.Imperative.DrasilState</text>
</g>
<!-- u47&#45;&gt;u40 -->
<g id="edge74" class="edge">
<title>u47&#45;&gt;u40</title>
<path fill="none" stroke="black" d="M6327.5,-3016.01C6402.3,-2968.07 6597.13,-2828.23 6512.79,-2720 6395.74,-2569.78 5827.34,-2488.36 5557.1,-2457.58"/>
<polygon fill="black" stroke="black" points="5557.15,-2454.07 5546.82,-2456.42 5556.36,-2461.02 5557.15,-2454.07"/>
</g>
<!-- u45 -->
<g id="node28" class="node">
<title>u45</title>
<ellipse fill="#77ff77" stroke="black" cx="5377.79" cy="-2146" rx="209.86" ry="18"/>
<text text-anchor="middle" x="5377.79" y="-2142.3" font-family="Times,serif" font-size="14.00">Language.Drasil.Code.Imperative.GenODE</text>
</g>
<!-- u45&#45;&gt;u57 -->
<g id="edge72" class="edge">
<title>u45&#45;&gt;u57</title>
<path fill="none" stroke="black" d="M5327.04,-2128.46C5171.06,-2077.62 4699.3,-1923.85 4533.87,-1869.93"/>
<polygon fill="black" stroke="black" points="4534.48,-1866.45 4523.89,-1866.68 4532.31,-1873.1 4534.48,-1866.45"/>
</g>
<!-- u45&#45;&gt;u13 -->
<g id="edge70" class="edge">
<title>u45&#45;&gt;u13</title>
<path fill="none" stroke="black" d="M5378.9,-2127.92C5382.06,-2079.01 5391.17,-1938.05 5395.03,-1878.3"/>
<polygon fill="black" stroke="black" points="5398.54,-1878.33 5395.69,-1868.12 5391.55,-1877.88 5398.54,-1878.33"/>
</g>
<!-- u45&#45;&gt;u49 -->
<g id="edge71" class="edge">
<title>u45&#45;&gt;u49</title>
<path fill="none" stroke="black" d="M5367.4,-2127.94C5337.58,-2079.53 5248.16,-1937.96 5158.79,-1832 5073.85,-1731.28 4958.14,-1625.25 4906.11,-1578.96"/>
<polygon fill="black" stroke="black" points="4908.13,-1576.07 4898.32,-1572.06 4903.48,-1581.31 4908.13,-1576.07"/>
</g>
<!-- u42 -->
<g id="node29" class="node">
<title>u42</title>
<ellipse fill="#77ff77" stroke="black" cx="3295.79" cy="-1554" rx="219.86" ry="18"/>
<text text-anchor="middle" x="3295.79" y="-1550.3" font-family="Times,serif" font-size="14.00">Language.Drasil.Code.Imperative.WriteInput</text>
</g>
<!-- u42&#45;&gt;u52 -->
<g id="edge68" class="edge">
<title>u42&#45;&gt;u52</title>
<path fill="none" stroke="black" d="M3308.23,-1535.7C3387.35,-1425.66 3820.08,-823.77 3914.57,-692.35"/>
<polygon fill="black" stroke="black" points="3917.54,-694.21 3920.54,-684.05 3911.86,-690.13 3917.54,-694.21"/>
</g>
<!-- u41 -->
<g id="node30" class="node">
<title>u41</title>
<ellipse fill="#77ff77" stroke="black" cx="6182.79" cy="-3330" rx="228.26" ry="18"/>
<text text-anchor="middle" x="6182.79" y="-3326.3" font-family="Times,serif" font-size="14.00">Language.Drasil.Code.Imperative.Descriptions</text>
</g>
<!-- u41&#45;&gt;u40 -->
<g id="edge67" class="edge">
<title>u41&#45;&gt;u40</title>
<path fill="none" stroke="black" d="M6222.24,-3312.17C6299,-3276.98 6466.69,-3187.45 6532.79,-3052 6597.51,-2919.39 6625.76,-2836.18 6534.79,-2720 6415.35,-2567.44 5837.16,-2487.34 5561.1,-2457.26"/>
<polygon fill="black" stroke="black" points="5561.32,-2453.76 5551.01,-2456.16 5560.57,-2460.72 5561.32,-2453.76"/>
</g>
<!-- u40&#45;&gt;u59 -->
<g id="edge66" class="edge">
<title>u40&#45;&gt;u59</title>
<path fill="none" stroke="black" d="M5389.46,-2423.92C5317.84,-2373.67 5107.79,-2226.28 5026.98,-2169.59"/>
<polygon fill="black" stroke="black" points="5028.87,-2166.64 5018.68,-2163.76 5024.85,-2172.37 5028.87,-2166.64"/>
</g>
<!-- u40&#45;&gt;u49 -->
<g id="edge65" class="edge">
<title>u40&#45;&gt;u49</title>
<path fill="none" stroke="black" d="M5340.96,-2424.97C5221.08,-2394.83 4982.31,-2318.38 4849.79,-2164 4749.99,-2047.73 4725.24,-1981.95 4756.79,-1832 4777.39,-1734.14 4834.79,-1628.69 4862.89,-1581.02"/>
<polygon fill="black" stroke="black" points="4865.99,-1582.66 4868.1,-1572.28 4859.97,-1579.08 4865.99,-1582.66"/>
</g>
<!-- u39 -->
<g id="node32" class="node">
<title>u39</title>
<ellipse fill="#77ff77" stroke="black" cx="5857.79" cy="-2738" rx="219.86" ry="18"/>
<text text-anchor="middle" x="5857.79" y="-2734.3" font-family="Times,serif" font-size="14.00">Language.Drasil.Code.Imperative.Comments</text>
</g>
<!-- u39&#45;&gt;u40 -->
<g id="edge64" class="edge">
<title>u39&#45;&gt;u40</title>
<path fill="none" stroke="black" d="M5832,-2719.92C5756.12,-2669.68 5533.6,-2522.33 5447.95,-2465.61"/>
<polygon fill="black" stroke="black" points="5449.65,-2462.54 5439.38,-2459.94 5445.78,-2468.38 5449.65,-2462.54"/>
</g>
<!-- u38 -->
<g id="node33" class="node">
<title>u38</title>
<ellipse fill="#77ff77" stroke="black" cx="4982.79" cy="-2738" rx="207.16" ry="18"/>
<text text-anchor="middle" x="4982.79" y="-2734.3" font-family="Times,serif" font-size="14.00">Language.Drasil.Code.Imperative.Logging</text>
</g>
<!-- u38&#45;&gt;u40 -->
<g id="edge63" class="edge">
<title>u38&#45;&gt;u40</title>
<path fill="none" stroke="black" d="M5007.83,-2719.92C5081.49,-2669.68 5297.49,-2522.33 5380.64,-2465.61"/>
<polygon fill="black" stroke="black" points="5382.67,-2468.47 5388.96,-2459.94 5378.73,-2462.68 5382.67,-2468.47"/>
</g>
<!-- u37 -->
<g id="node34" class="node">
<title>u37</title>
<ellipse fill="#77ff77" stroke="black" cx="5413.79" cy="-3034" rx="201.46" ry="18"/>
<text text-anchor="middle" x="5413.79" y="-3030.3" font-family="Times,serif" font-size="14.00">Language.Drasil.Code.Imperative.Import</text>
</g>
<!-- u37&#45;&gt;u54 -->
<g id="edge62" class="edge">
<title>u37&#45;&gt;u54</title>
<path fill="none" stroke="black" d="M5463.65,-3016.46C5616.05,-2965.88 6075.39,-2813.46 6240.16,-2758.79"/>
<polygon fill="black" stroke="black" points="6241.73,-2761.96 6250.12,-2755.48 6239.52,-2755.31 6241.73,-2761.96"/>
</g>
<!-- u37&#45;&gt;u39 -->
<g id="edge61" class="edge">
<title>u37&#45;&gt;u39</title>
<path fill="none" stroke="black" d="M5439.26,-3016.14C5514.81,-2966.11 5737.74,-2818.5 5823.57,-2761.66"/>
<polygon fill="black" stroke="black" points="5825.75,-2764.42 5832.15,-2755.98 5821.88,-2758.58 5825.75,-2764.42"/>
</g>
<!-- u37&#45;&gt;u38 -->
<g id="edge60" class="edge">
<title>u37&#45;&gt;u38</title>
<path fill="none" stroke="black" d="M5388.76,-3015.92C5315.1,-2965.68 5099.09,-2818.33 5015.95,-2761.61"/>
<polygon fill="black" stroke="black" points="5017.86,-2758.68 5007.63,-2755.94 5013.92,-2764.47 5017.86,-2758.68"/>
</g>
<!-- u35 -->
<g id="node35" class="node">
<title>u35</title>
<ellipse fill="#77ff77" stroke="black" cx="4475.79" cy="-2442" rx="237.46" ry="18"/>
<text text-anchor="middle" x="4475.79" y="-2438.3" font-family="Times,serif" font-size="14.00">Language.Drasil.Code.Imperative.ConceptMatch</text>
</g>
<!-- u37&#45;&gt;u35 -->
<g id="edge59" class="edge">
<title>u37&#45;&gt;u35</title>
<path fill="none" stroke="black" d="M5277.54,-3020.73C5001.58,-2992.76 4392.26,-2914.13 4267.79,-2756 4186.59,-2652.82 4361.59,-2518.44 4440.17,-2465.67"/>
<polygon fill="black" stroke="black" points="4442.41,-2468.39 4448.81,-2459.94 4438.54,-2462.55 4442.41,-2468.39"/>
</g>
<!-- u34 -->
<g id="node36" class="node">
<title>u34</title>
<ellipse fill="#77ff77" stroke="black" cx="4516.79" cy="-2738" rx="240.46" ry="18"/>
<text text-anchor="middle" x="4516.79" y="-2734.3" font-family="Times,serif" font-size="14.00">Language.Drasil.Code.Imperative.GenerateGOOL</text>
</g>
<!-- u37&#45;&gt;u34 -->
<g id="edge58" class="edge">
<title>u37&#45;&gt;u34</title>
<path fill="none" stroke="black" d="M5363.65,-3016.56C5209.72,-2966.11 4744.38,-2813.59 4577.32,-2758.84"/>
<polygon fill="black" stroke="black" points="4578.29,-2755.47 4567.7,-2755.68 4576.11,-2762.12 4578.29,-2755.47"/>
</g>
<!-- u30 -->
<g id="node39" class="node">
<title>u30</title>
<ellipse fill="#77ff77" stroke="black" cx="5413.79" cy="-2738" rx="206.06" ry="18"/>
<text text-anchor="middle" x="5413.79" y="-2734.3" font-family="Times,serif" font-size="14.00">Language.Drasil.Code.Imperative.Helpers</text>
</g>
<!-- u37&#45;&gt;u30 -->
<g id="edge57" class="edge">
<title>u37&#45;&gt;u30</title>
<path fill="none" stroke="black" d="M5413.79,-3015.92C5413.79,-2967.01 5413.79,-2826.05 5413.79,-2766.3"/>
<polygon fill="black" stroke="black" points="5417.29,-2766.12 5413.79,-2756.12 5410.29,-2766.12 5417.29,-2766.12"/>
</g>
<!-- u35&#45;&gt;u57 -->
<g id="edge55" class="edge">
<title>u35&#45;&gt;u57</title>
<path fill="none" stroke="black" d="M4475.79,-2423.98C4475.79,-2341.22 4475.79,-1980.67 4475.79,-1878.23"/>
<polygon fill="black" stroke="black" points="4479.29,-1878.09 4475.79,-1868.09 4472.29,-1878.09 4479.29,-1878.09"/>
</g>
<!-- u34&#45;&gt;u40 -->
<g id="edge54" class="edge">
<title>u34&#45;&gt;u40</title>
<path fill="none" stroke="black" d="M4567.59,-2720.35C4722.3,-2669.64 5187.23,-2517.26 5353.69,-2462.7"/>
<polygon fill="black" stroke="black" points="5354.87,-2466 5363.28,-2459.56 5352.69,-2459.35 5354.87,-2466"/>
</g>
<!-- u28 -->
<g id="node48" class="node">
<title>u28</title>
<ellipse fill="#ff7777" stroke="black" cx="3915.79" cy="-2442" rx="267.25" ry="18"/>
<text text-anchor="middle" x="3915.79" y="-2438.3" font-family="Times,serif" font-size="14.00">Language.Drasil.Code.Imperative.GOOL.ClassInterface</text>
</g>
<!-- u34&#45;&gt;u28 -->
<g id="edge53" class="edge">
<title>u34&#45;&gt;u28</title>
<path fill="none" stroke="black" d="M4482.32,-2720.14C4379.34,-2669.76 4074.02,-2520.4 3959.68,-2464.47"/>
<polygon fill="black" stroke="black" points="3961.02,-2461.23 3950.5,-2459.98 3957.95,-2467.52 3961.02,-2461.23"/>
</g>
<!-- u33&#45;&gt;u52 -->
<g id="edge52" class="edge">
<title>u33&#45;&gt;u52</title>
<path fill="none" stroke="black" d="M1872.38,-2428.42C2165.18,-2394.09 2803.79,-2271.06 2803.79,-1851 2803.79,-1851 2803.79,-1851 2803.79,-1257 2803.79,-818.42 3481.29,-705.28 3786.63,-676.57"/>
<polygon fill="black" stroke="black" points="3787.26,-680.02 3796.89,-675.62 3786.61,-673.05 3787.26,-680.02"/>
</g>
<!-- u32&#45;&gt;u51 -->
<g id="edge51" class="edge">
<title>u32&#45;&gt;u51</title>
<path fill="none" stroke="black" d="M5592.22,-3903.92C5535.1,-3854.09 5368.51,-3708.76 5302.35,-3651.04"/>
<polygon fill="black" stroke="black" points="5304.26,-3648.06 5294.42,-3644.12 5299.66,-3653.34 5304.26,-3648.06"/>
</g>
<!-- u32&#45;&gt;u45 -->
<g id="edge50" class="edge">
<title>u32&#45;&gt;u45</title>
<path fill="none" stroke="black" d="M5822.67,-3917.6C6190.54,-3899.29 6910.79,-3803.16 6910.79,-3331 6910.79,-3331 6910.79,-3331 6910.79,-2737 6910.79,-2430.16 5827.6,-2222.29 5482.25,-2163.81"/>
<polygon fill="black" stroke="black" points="5482.69,-2160.33 5472.25,-2162.12 5481.52,-2167.24 5482.69,-2160.33"/>
</g>
<!-- u18 -->
<g id="node41" class="node">
<title>u18</title>
<ellipse fill="#77ff77" stroke="black" cx="6655.79" cy="-3330" rx="226.66" ry="18"/>
<text text-anchor="middle" x="6655.79" y="-3326.3" font-family="Times,serif" font-size="14.00">Language.Drasil.Code.Imperative.SpaceMatch</text>
</g>
<!-- u32&#45;&gt;u18 -->
<g id="edge48" class="edge">
<title>u32&#45;&gt;u18</title>
<path fill="none" stroke="black" d="M5641.64,-3904.14C5790.12,-3820.22 6448.89,-3447.93 6616.76,-3353.06"/>
<polygon fill="black" stroke="black" points="6618.54,-3356.08 6625.52,-3348.11 6615.09,-3349.98 6618.54,-3356.08"/>
</g>
<!-- u16 -->
<g id="node43" class="node">
<title>u16</title>
<ellipse fill="#77ff77" stroke="black" cx="5730.79" cy="-3626" rx="209.06" ry="18"/>
<text text-anchor="middle" x="5730.79" y="-3622.3" font-family="Times,serif" font-size="14.00">Language.Drasil.Code.Imperative.Modules</text>
</g>
<!-- u32&#45;&gt;u16 -->
<g id="edge47" class="edge">
<title>u32&#45;&gt;u16</title>
<path fill="none" stroke="black" d="M5618.71,-3903.92C5638.59,-3854.8 5696.03,-3712.88 5720.05,-3653.56"/>
<polygon fill="black" stroke="black" points="5723.36,-3654.71 5723.86,-3644.12 5716.87,-3652.08 5723.36,-3654.71"/>
</g>
<!-- u29 -->
<g id="node47" class="node">
<title>u29</title>
<ellipse fill="#ff7777" stroke="black" cx="4888.79" cy="-3034" rx="289.45" ry="18"/>
<text text-anchor="middle" x="4888.79" y="-3030.3" font-family="Times,serif" font-size="14.00">Language.Drasil.Code.Imperative.GOOL.LanguageRenderer</text>
</g>
<!-- u32&#45;&gt;u29 -->
<g id="edge49" class="edge">
<title>u32&#45;&gt;u29</title>
<path fill="none" stroke="black" d="M5608.72,-3903.66C5598.71,-3852.02 5562.52,-3697.27 5474.79,-3608 5280.47,-3410.27 5064.5,-3576.69 4907.79,-3348 4846.81,-3259.01 4868.86,-3120.24 4881.93,-3062.08"/>
<polygon fill="black" stroke="black" points="4885.37,-3062.72 4884.24,-3052.19 4878.56,-3061.13 4885.37,-3062.72"/>
</g>
<!-- u30&#45;&gt;u40 -->
<g id="edge45" class="edge">
<title>u30&#45;&gt;u40</title>
<path fill="none" stroke="black" d="M5413.79,-2719.92C5413.79,-2671.01 5413.79,-2530.05 5413.79,-2470.3"/>
<polygon fill="black" stroke="black" points="5417.29,-2470.12 5413.79,-2460.12 5410.29,-2470.12 5417.29,-2470.12"/>
</g>
<!-- u19 -->
<g id="node40" class="node">
<title>u19</title>
<ellipse fill="#77ff77" stroke="black" cx="3344.79" cy="-2442" rx="233.16" ry="18"/>
<text text-anchor="middle" x="3344.79" y="-2438.3" font-family="Times,serif" font-size="14.00">Language.Drasil.Code.Imperative.WriteReadMe</text>
</g>
<!-- u46 -->
<g id="node58" class="node">
<title>u46</title>
<ellipse fill="#33ff33" stroke="black" cx="3940.79" cy="-2146" rx="242.36" ry="18"/>
<text text-anchor="middle" x="3940.79" y="-2142.3" font-family="Times,serif" font-size="14.00">Language.Drasil.Code.Imperative.ReadMe.Import</text>
</g>
<!-- u19&#45;&gt;u46 -->
<g id="edge25" class="edge">
<title>u19&#45;&gt;u46</title>
<path fill="none" stroke="black" d="M3378.98,-2424.14C3481.11,-2373.76 3783.88,-2224.4 3897.27,-2168.47"/>
<polygon fill="black" stroke="black" points="3898.96,-2171.54 3906.38,-2163.98 3895.86,-2165.26 3898.96,-2171.54"/>
</g>
<!-- u18&#45;&gt;u40 -->
<g id="edge24" class="edge">
<title>u18&#45;&gt;u40</title>
<path fill="none" stroke="black" d="M6659.14,-3311.9C6673.61,-3232.57 6722.89,-2896.83 6559.79,-2720 6424.52,-2573.32 5830.6,-2489.4 5555.09,-2457.72"/>
<polygon fill="black" stroke="black" points="5555.35,-2454.22 5545.02,-2456.56 5554.56,-2461.18 5555.35,-2454.22"/>
</g>
<!-- u17 -->
<g id="node42" class="node">
<title>u17</title>
<ellipse fill="#77ff77" stroke="black" cx="5703.79" cy="-3330" rx="233.16" ry="18"/>
<text text-anchor="middle" x="5703.79" y="-3326.3" font-family="Times,serif" font-size="14.00">Language.Drasil.Code.Imperative.FunctionCalls</text>
</g>
<!-- u17&#45;&gt;u47 -->
<g id="edge23" class="edge">
<title>u17&#45;&gt;u47</title>
<path fill="none" stroke="black" d="M5737.98,-3312.14C5840.23,-3261.7 6143.6,-3112.05 6256.67,-3056.27"/>
<polygon fill="black" stroke="black" points="6258.33,-3059.36 6265.75,-3051.79 6255.23,-3053.08 6258.33,-3059.36"/>
</g>
<!-- u17&#45;&gt;u37 -->
<g id="edge22" class="edge">
<title>u17&#45;&gt;u37</title>
<path fill="none" stroke="black" d="M5686.95,-3311.92C5637.9,-3262.19 5495.02,-3117.35 5437.85,-3059.39"/>
<polygon fill="black" stroke="black" points="5440.2,-3056.79 5430.69,-3052.12 5435.22,-3061.7 5440.2,-3056.79"/>
</g>
<!-- u16&#45;&gt;u41 -->
<g id="edge21" class="edge">
<title>u16&#45;&gt;u41</title>
<path fill="none" stroke="black" d="M5756.72,-3608.14C5833.71,-3558.06 6061.03,-3410.2 6148.22,-3353.49"/>
<polygon fill="black" stroke="black" points="6150.22,-3356.36 6156.69,-3347.98 6146.4,-3350.5 6150.22,-3356.36"/>
</g>
<!-- u16&#45;&gt;u17 -->
<g id="edge20" class="edge">
<title>u16&#45;&gt;u17</title>
<path fill="none" stroke="black" d="M5729.23,-3607.92C5724.73,-3559.01 5711.79,-3418.05 5706.3,-3358.3"/>
<polygon fill="black" stroke="black" points="5709.77,-3357.76 5705.37,-3348.12 5702.8,-3358.4 5709.77,-3357.76"/>
</g>
<!-- u44 -->
<g id="node44" class="node">
<title>u44</title>
<ellipse fill="#ffff77" stroke="black" cx="3363.79" cy="-2738" rx="215.56" ry="18"/>
<text text-anchor="middle" x="3363.79" y="-2734.3" font-family="Times,serif" font-size="14.00">Language.Drasil.Code.Imperative.Build.AST</text>
</g>
<!-- u43 -->
<g id="node45" class="node">
<title>u43</title>
<ellipse fill="#ffff77" stroke="black" cx="3363.79" cy="-3034" rx="228.56" ry="18"/>
<text text-anchor="middle" x="3363.79" y="-3030.3" font-family="Times,serif" font-size="14.00">Language.Drasil.Code.Imperative.Build.Import</text>
</g>
<!-- u43&#45;&gt;u44 -->
<g id="edge69" class="edge">
<title>u43&#45;&gt;u44</title>
<path fill="none" stroke="black" d="M3363.79,-3015.92C3363.79,-2967.01 3363.79,-2826.05 3363.79,-2766.3"/>
<polygon fill="black" stroke="black" points="3367.29,-2766.12 3363.79,-2756.12 3360.29,-2766.12 3367.29,-2766.12"/>
</g>
<!-- u36 -->
<g id="node46" class="node">
<title>u36</title>
<ellipse fill="#7777ff" stroke="black" cx="3435.79" cy="-2146" rx="245.06" ry="18"/>
<text text-anchor="middle" x="3435.79" y="-2142.3" font-family="Times,serif" font-size="14.00">Language.Drasil.Code.Imperative.Doxygen.Import</text>
</g>
<!-- u36&#45;&gt;u57 -->
<g id="edge56" class="edge">
<title>u36&#45;&gt;u57</title>
<path fill="none" stroke="black" d="M3494.31,-2128.46C3675.11,-2077.35 4223.91,-1922.21 4411.85,-1869.08"/>
<polygon fill="black" stroke="black" points="4412.92,-1872.41 4421.59,-1866.32 4411.02,-1865.68 4412.92,-1872.41"/>
</g>
<!-- u28&#45;&gt;u46 -->
<g id="edge44" class="edge">
<title>u28&#45;&gt;u46</title>
<path fill="none" stroke="black" d="M3917.25,-2423.92C3921.41,-2375.01 3933.39,-2234.05 3938.47,-2174.3"/>
<polygon fill="black" stroke="black" points="3941.98,-2174.39 3939.34,-2164.12 3935,-2173.79 3941.98,-2174.39"/>
</g>
<!-- u26 -->
<g id="node50" class="node">
<title>u26</title>
<ellipse fill="#77ffff" stroke="black" cx="3251.79" cy="-3330" rx="393.73" ry="18"/>
<text text-anchor="middle" x="3251.79" y="-3326.3" font-family="Times,serif" font-size="14.00">Language.Drasil.Code.Imperative.GOOL.LanguageRenderer.LanguagePolymorphic</text>
</g>
<!-- u26&#45;&gt;u42 -->
<g id="edge42" class="edge">
<title>u26&#45;&gt;u42</title>
<path fill="none" stroke="black" d="M3238.52,-3311.75C3207.19,-3269.96 3128.77,-3158.79 3095.79,-3052 3054.6,-2918.59 3068.79,-2878.63 3068.79,-2739 3068.79,-2739 3068.79,-2739 3068.79,-2145 3068.79,-1912.51 3224.23,-1660.79 3277.86,-1580.86"/>
<polygon fill="black" stroke="black" points="3280.88,-1582.64 3283.59,-1572.4 3275.09,-1578.71 3280.88,-1582.64"/>
</g>
<!-- u26&#45;&gt;u19 -->
<g id="edge38" class="edge">
<title>u26&#45;&gt;u19</title>
<path fill="none" stroke="black" d="M3240.75,-3311.78C3214.43,-3269.58 3148.51,-3156.81 3125.79,-3052 3107.49,-2967.53 3006.15,-3093 3138.79,-2720 3177.03,-2612.49 3272.34,-2511.67 3318.68,-2467.07"/>
<polygon fill="black" stroke="black" points="3321.12,-2469.58 3325.94,-2460.15 3316.29,-2464.51 3321.12,-2469.58"/>
</g>
<!-- u26&#45;&gt;u43 -->
<g id="edge43" class="edge">
<title>u26&#45;&gt;u43</title>
<path fill="none" stroke="black" d="M3258.3,-3311.92C3277.01,-3262.8 3331.08,-3120.88 3353.68,-3061.56"/>
<polygon fill="black" stroke="black" points="3356.98,-3062.72 3357.27,-3052.12 3350.44,-3060.22 3356.98,-3062.72"/>
</g>
<!-- u26&#45;&gt;u36 -->
<g id="edge41" class="edge">
<title>u26&#45;&gt;u36</title>
<path fill="none" stroke="black" d="M3291.62,-3312.08C3368.65,-3276.85 3536.23,-3187.5 3601.79,-3052 3723.4,-2800.68 3659.17,-2693.65 3586.79,-2424 3559.78,-2323.36 3489.53,-2219.33 3455.22,-2172.52"/>
<polygon fill="black" stroke="black" points="3457.82,-2170.15 3449.06,-2164.2 3452.2,-2174.32 3457.82,-2170.15"/>
</g>
<!-- u26&#45;&gt;u29 -->
<g id="edge40" class="edge">
<title>u26&#45;&gt;u29</title>
<path fill="none" stroke="black" d="M3343.91,-3312.46C3628.69,-3261.31 4493.51,-3105.99 4788.76,-3052.97"/>
<polygon fill="black" stroke="black" points="4789.8,-3056.34 4799.02,-3051.12 4788.56,-3049.45 4789.8,-3056.34"/>
</g>
<!-- u26&#45;&gt;u28 -->
<g id="edge39" class="edge">
<title>u26&#45;&gt;u28</title>
<path fill="none" stroke="black" d="M3286.24,-3311.97C3359.34,-3274.31 3531.69,-3177.31 3634.79,-3052 3793.85,-2858.69 3883.93,-2560.56 3908.72,-2470"/>
<polygon fill="black" stroke="black" points="3912.12,-2470.8 3911.35,-2460.24 3905.37,-2468.98 3912.12,-2470.8"/>
</g>
<!-- u25&#45;&gt;u27 -->
<g id="edge37" class="edge">
<title>u25&#45;&gt;u27</title>
<path fill="none" stroke="black" d="M4665.36,-3608.14C4522.46,-3557.34 4096.45,-3405.89 3942.28,-3351.08"/>
<polygon fill="black" stroke="black" points="3943.12,-3347.66 3932.52,-3347.61 3940.77,-3354.26 3943.12,-3347.66"/>
</g>
<!-- u25&#45;&gt;u26 -->
<g id="edge36" class="edge">
<title>u25&#45;&gt;u26</title>
<path fill="none" stroke="black" d="M4630.59,-3608.46C4377.57,-3557.54 3611.51,-3403.39 3344.66,-3349.69"/>
<polygon fill="black" stroke="black" points="3345.11,-3346.21 3334.62,-3347.67 3343.73,-3353.07 3345.11,-3346.21"/>
</g>
<!-- u24&#45;&gt;u27 -->
<g id="edge35" class="edge">
<title>u24&#45;&gt;u27</title>
<path fill="none" stroke="black" d="M1181.02,-3609.53C1677.32,-3558.42 3260.26,-3395.42 3744.01,-3345.6"/>
<polygon fill="black" stroke="black" points="3744.6,-3349.06 3754.19,-3344.55 3743.88,-3342.1 3744.6,-3349.06"/>
</g>
<!-- u24&#45;&gt;u26 -->
<g id="edge34" class="edge">
<title>u24&#45;&gt;u26</title>
<path fill="none" stroke="black" d="M1151.78,-3608.98C1535.23,-3558.23 2721.64,-3401.18 3119.9,-3348.46"/>
<polygon fill="black" stroke="black" points="3120.56,-3351.9 3130.02,-3347.12 3119.64,-3344.96 3120.56,-3351.9"/>
</g>
<!-- u23&#45;&gt;u27 -->
<g id="edge33" class="edge">
<title>u23&#45;&gt;u27</title>
<path fill="none" stroke="black" d="M1888.28,-3608.93C2256.42,-3557.71 3399.76,-3398.63 3769.31,-3347.21"/>
<polygon fill="black" stroke="black" points="3769.8,-3350.67 3779.22,-3345.83 3768.83,-3343.74 3769.8,-3350.67"/>
</g>
<!-- u23&#45;&gt;u26 -->
<g id="edge32" class="edge">
<title>u23&#45;&gt;u26</title>
<path fill="none" stroke="black" d="M1856.01,-3608.46C2112.15,-3557.54 2887.64,-3403.39 3157.79,-3349.69"/>
<polygon fill="black" stroke="black" points="3158.83,-3353.05 3167.95,-3347.67 3157.46,-3346.18 3158.83,-3353.05"/>
</g>
<!-- u22&#45;&gt;u27 -->
<g id="edge31" class="edge">
<title>u22&#45;&gt;u27</title>
<path fill="none" stroke="black" d="M2590.55,-3608.35C2829.61,-3557.16 3552.59,-3402.35 3800.95,-3349.17"/>
<polygon fill="black" stroke="black" points="3801.95,-3352.53 3811,-3347.02 3800.49,-3345.69 3801.95,-3352.53"/>
</g>
<!-- u22&#45;&gt;u26 -->
<g id="edge30" class="edge">
<title>u22&#45;&gt;u26</title>
<path fill="none" stroke="black" d="M2555.45,-3608.03C2682.87,-3557.34 3060.45,-3407.12 3199.57,-3351.78"/>
<polygon fill="black" stroke="black" points="3201.17,-3354.91 3209.17,-3347.96 3198.58,-3348.4 3201.17,-3354.91"/>
</g>
<!-- u21&#45;&gt;u27 -->
<g id="edge29" class="edge">
<title>u21&#45;&gt;u27</title>
<path fill="none" stroke="black" d="M3288.62,-3607.92C3397.85,-3557.27 3719.87,-3407.94 3839.96,-3352.26"/>
<polygon fill="black" stroke="black" points="3841.66,-3355.32 3849.26,-3347.94 3838.72,-3348.97 3841.66,-3355.32"/>
</g>
<!-- u21&#45;&gt;u26 -->
<g id="edge28" class="edge">
<title>u21&#45;&gt;u26</title>
<path fill="none" stroke="black" d="M3251.79,-3607.92C3251.79,-3559.01 3251.79,-3418.05 3251.79,-3358.3"/>
<polygon fill="black" stroke="black" points="3255.29,-3358.12 3251.79,-3348.12 3248.29,-3358.12 3255.29,-3358.12"/>
</g>
<!-- u20&#45;&gt;u27 -->
<g id="edge27" class="edge">
<title>u20&#45;&gt;u27</title>
<path fill="none" stroke="black" d="M3977.16,-3607.92C3960.99,-3558.9 3914.32,-3417.47 3894.68,-3357.93"/>
<polygon fill="black" stroke="black" points="3897.9,-3356.52 3891.44,-3348.12 3891.25,-3358.72 3897.9,-3356.52"/>
</g>
<!-- u20&#45;&gt;u26 -->
<g id="edge26" class="edge">
<title>u20&#45;&gt;u26</title>
<path fill="none" stroke="black" d="M3940.6,-3608.03C3814.56,-3557.34 3441.06,-3407.12 3303.46,-3351.78"/>
<polygon fill="black" stroke="black" points="3304.55,-3348.44 3293.96,-3347.96 3301.93,-3354.94 3304.55,-3348.44"/>
</g>
<!-- u31 -->
<g id="node57" class="node">
<title>u31</title>
<ellipse fill="#ff77ff" stroke="black" cx="5184.79" cy="-3330" rx="267.55" ry="18"/>
<text text-anchor="middle" x="5184.79" y="-3326.3" font-family="Times,serif" font-size="14.00">Language.Drasil.Code.Imperative.Parsers.ConfigParser</text>
</g>
<!-- u31&#45;&gt;u29 -->
<g id="edge46" class="edge">
<title>u31&#45;&gt;u29</title>
<path fill="none" stroke="black" d="M5167.6,-3311.92C5117.53,-3262.19 4971.7,-3117.35 4913.35,-3059.39"/>
<polygon fill="black" stroke="black" points="4915.6,-3056.69 4906.04,-3052.12 4910.66,-3061.65 4915.6,-3056.69"/>
</g>
<!-- u46&#45;&gt;u57 -->
<g id="edge73" class="edge">
<title>u46&#45;&gt;u57</title>
<path fill="none" stroke="black" d="M3971.48,-2128.14C4063.09,-2077.79 4334.58,-1928.6 4436.52,-1872.58"/>
<polygon fill="black" stroke="black" points="4438.49,-1875.5 4445.56,-1867.61 4435.12,-1869.36 4438.49,-1875.5"/>
</g>
<!-- u56&#45;&gt;u53 -->
<g id="edge88" class="edge">
<title>u56&#45;&gt;u53</title>
<path fill="none" stroke="black" d="M4530.29,-1535.92C4593.13,-1485.99 4776.65,-1340.16 4848.99,-1282.68"/>
<polygon fill="black" stroke="black" points="4851.59,-1285.09 4857.24,-1276.12 4847.24,-1279.61 4851.59,-1285.09"/>
</g>
<!-- u56&#45;&gt;u50 -->
<g id="edge87" class="edge">
<title>u56&#45;&gt;u50</title>
<path fill="none" stroke="black" d="M4506.12,-1535.92C4498.47,-1487.01 4476.42,-1346.05 4467.07,-1286.3"/>
<polygon fill="black" stroke="black" points="4470.48,-1285.46 4465.47,-1276.12 4463.56,-1286.55 4470.48,-1285.46"/>
</g>
<!-- u56&#45;&gt;u15 -->
<g id="edge86" class="edge">
<title>u56&#45;&gt;u15</title>
<path fill="none" stroke="black" d="M4486.2,-1536.14C4419.28,-1486.21 4222.07,-1339.05 4145.59,-1281.98"/>
<polygon fill="black" stroke="black" points="4147.41,-1278.97 4137.3,-1275.79 4143.22,-1284.58 4147.41,-1278.97"/>
</g>
<!-- u56&#45;&gt;u55 -->
<g id="edge89" class="edge">
<title>u56&#45;&gt;u55</title>
<path fill="none" stroke="black" d="M4551,-1536.46C4679.62,-1486.04 5066.52,-1334.37 5207.06,-1279.28"/>
<polygon fill="black" stroke="black" points="5208.71,-1282.39 5216.74,-1275.48 5206.16,-1275.88 5208.71,-1282.39"/>
</g>
<!-- u55&#45;&gt;u10 -->
<g id="edge85" class="edge">
<title>u55&#45;&gt;u10</title>
<path fill="none" stroke="black" d="M5248.86,-1239.88C5220.36,-1191.3 5134.65,-1049.34 5046.79,-944 4853.15,-711.81 4577.78,-469.6 4490.47,-394.56"/>
<polygon fill="black" stroke="black" points="4492.72,-391.87 4482.85,-388.02 4488.16,-397.19 4492.72,-391.87"/>
</g>
<!-- u1 -->
<g id="node61" class="node">
<title>u1</title>
<ellipse fill="#3333ff" stroke="black" cx="491.79" cy="-4514" rx="108.58" ry="18"/>
<text text-anchor="middle" x="491.79" y="-4510.3" font-family="Times,serif" font-size="14.00">drasil&#45;code.test.Main</text>
</g>
<!-- u1&#45;&gt;u7 -->
<g id="edge5" class="edge">
<title>u1&#45;&gt;u7</title>
<path fill="none" stroke="black" d="M496.91,-4495.92C511.58,-4446.9 553.91,-4305.47 571.74,-4245.93"/>
<polygon fill="black" stroke="black" points="575.15,-4246.71 574.67,-4236.12 568.45,-4244.7 575.15,-4246.71"/>
</g>
<!-- u1&#45;&gt;u6 -->
<g id="edge4" class="edge">
<title>u1&#45;&gt;u6</title>
<path fill="none" stroke="black" d="M504.63,-4495.92C541.87,-4446.38 650.07,-4302.44 693.96,-4244.05"/>
<polygon fill="black" stroke="black" points="696.99,-4245.85 700.2,-4235.76 691.39,-4241.65 696.99,-4245.85"/>
</g>
<!-- u1&#45;&gt;u2 -->
<g id="edge2" class="edge">
<title>u1&#45;&gt;u2</title>
<path fill="none" stroke="black" d="M467.33,-4496.35C393.62,-4446.19 173.7,-4296.52 91.37,-4240.49"/>
<polygon fill="black" stroke="black" points="93.17,-4237.48 82.93,-4234.75 89.23,-4243.27 93.17,-4237.48"/>
</g>
<!-- u1&#45;&gt;u0 -->
<g id="edge1" class="edge">
<title>u1&#45;&gt;u0</title>
<path fill="none" stroke="black" d="M475.65,-4495.92C428.61,-4446.18 291.58,-4301.26 236.81,-4243.33"/>
<polygon fill="black" stroke="black" points="239.05,-4240.62 229.64,-4235.76 233.97,-4245.43 239.05,-4240.62"/>
</g>
<!-- u1&#45;&gt;u4 -->
<g id="edge3" class="edge">
<title>u1&#45;&gt;u4</title>
<path fill="none" stroke="black" d="M486.68,-4495.92C472.01,-4446.9 429.68,-4305.47 411.85,-4245.93"/>
<polygon fill="black" stroke="black" points="415.14,-4244.7 408.92,-4236.12 408.43,-4246.71 415.14,-4244.7"/>
</g>
<!-- u1&#45;&gt;u8 -->
<g id="edge6" class="edge">
<title>u1&#45;&gt;u8</title>
<path fill="none" stroke="black" d="M570.4,-4501.57C888.96,-4455.22 2083.05,-4281.52 2422.36,-4232.16"/>
<polygon fill="black" stroke="black" points="2423,-4235.6 2432.39,-4230.7 2421.99,-4228.67 2423,-4235.6"/>
</g>
</g>
</svg>
