<?xml version="1.0" encoding="UTF-8" standalone="no"?>
<!DOCTYPE svg PUBLIC "-//W3C//DTD SVG 1.1//EN"
 "http://www.w3.org/Graphics/SVG/1.1/DTD/svg11.dtd">
<!-- Generated by graphviz version 2.43.0 (0)
 -->
<!-- Title: G Pages: 1 -->
<svg width="431pt" height="288pt"
 viewBox="0.00 0.00 430.75 288.00" xmlns="http://www.w3.org/2000/svg" xmlns:xlink="http://www.w3.org/1999/xlink">
<g id="graph0" class="graph" transform="scale(2.51 2.51) rotate(0) translate(4 718)">
<title>G</title>
<polygon fill="white" stroke="transparent" points="-4,4 -4,-718 1075.88,-718 1075.88,4 -4,4"/>
<!-- u0 -->
<g id="node1" class="node">
<title>u0</title>
<ellipse fill="#bbffbb" stroke="black" cx="624.24" cy="-255" rx="141.88" ry="18"/>
<text text-anchor="middle" x="624.24" y="-251.3" font-family="Times,serif" font-size="14.00">Data.Drasil.TheoryConcepts</text>
</g>
<!-- u9 -->
<g id="node2" class="node">
<title>u9</title>
<ellipse fill="#ffffbb" stroke="black" cx="486.24" cy="-663" rx="72.29" ry="18"/>
<text text-anchor="middle" x="486.24" y="-659.3" font-family="Times,serif" font-size="14.00">Theory.Drasil</text>
</g>
<!-- u8 -->
<g id="node3" class="node">
<title>u8</title>
<ellipse fill="#bbbbff" stroke="black" cx="928.24" cy="-459" rx="143.77" ry="18"/>
<text text-anchor="middle" x="928.24" y="-455.3" font-family="Times,serif" font-size="14.00">Theory.Drasil.InstanceModel</text>
</g>
<!-- u9&#45;&gt;u8 -->
<g id="edge14" class="edge">
<title>u9&#45;&gt;u8</title>
<path fill="none" stroke="black" d="M519.46,-646.82C597.72,-611.05 793.75,-521.46 882.87,-480.73"/>
<polygon fill="black" stroke="black" points="884.53,-483.82 892.18,-476.48 881.63,-477.46 884.53,-483.82"/>
</g>
<!-- u7 -->
<g id="node4" class="node">
<title>u7</title>
<ellipse fill="#bbbbff" stroke="black" cx="107.24" cy="-459" rx="107.48" ry="18"/>
<text text-anchor="middle" x="107.24" y="-455.3" font-family="Times,serif" font-size="14.00">Theory.Drasil.Theory</text>
</g>
<!-- u9&#45;&gt;u7 -->
<g id="edge13" class="edge">
<title>u9&#45;&gt;u7</title>
<path fill="none" stroke="black" d="M457.13,-646.48C389.76,-610.58 223.02,-521.71 146.62,-480.99"/>
<polygon fill="black" stroke="black" points="148.24,-477.88 137.76,-476.27 144.94,-484.06 148.24,-477.88"/>
</g>
<!-- u6 -->
<g id="node5" class="node">
<title>u6</title>
<ellipse fill="#bbbbff" stroke="black" cx="348.24" cy="-459" rx="115.88" ry="18"/>
<text text-anchor="middle" x="348.24" y="-455.3" font-family="Times,serif" font-size="14.00">Theory.Drasil.GenDefn</text>
</g>
<!-- u9&#45;&gt;u6 -->
<g id="edge12" class="edge">
<title>u9&#45;&gt;u6</title>
<path fill="none" stroke="black" d="M474.71,-645.13C450.46,-609.63 394.06,-527.06 365.49,-485.24"/>
<polygon fill="black" stroke="black" points="368.36,-483.25 359.83,-476.97 362.58,-487.2 368.36,-483.25"/>
</g>
<!-- u5 -->
<g id="node6" class="node">
<title>u5</title>
<ellipse fill="#bbbbff" stroke="black" cx="624.24" cy="-459" rx="142.17" ry="18"/>
<text text-anchor="middle" x="624.24" y="-455.3" font-family="Times,serif" font-size="14.00">Theory.Drasil.DataDefinition</text>
</g>
<!-- u9&#45;&gt;u5 -->
<g id="edge11" class="edge">
<title>u9&#45;&gt;u5</title>
<path fill="none" stroke="black" d="M497.77,-645.13C522.02,-609.63 578.42,-527.06 607,-485.24"/>
<polygon fill="black" stroke="black" points="609.9,-487.2 612.65,-476.97 604.12,-483.25 609.9,-487.2"/>
</g>
<!-- u8&#45;&gt;u0 -->
<g id="edge8" class="edge">
<title>u8&#45;&gt;u0</title>
<path fill="none" stroke="black" d="M902.84,-441.13C848.3,-404.88 719.94,-319.59 658.36,-278.67"/>
<polygon fill="black" stroke="black" points="660.04,-275.59 649.78,-272.97 656.17,-281.42 660.04,-275.59"/>
</g>
<!-- u4 -->
<g id="node7" class="node">
<title>u4</title>
<ellipse fill="#bbbbff" stroke="black" cx="334.24" cy="-255" rx="129.98" ry="18"/>
<text text-anchor="middle" x="334.24" y="-251.3" font-family="Times,serif" font-size="14.00">Theory.Drasil.ModelKinds</text>
</g>
<!-- u8&#45;&gt;u4 -->
<g id="edge10" class="edge">
<title>u8&#45;&gt;u4</title>
<path fill="none" stroke="black" d="M881.13,-441.98C773.02,-405.21 507.42,-314.89 390.75,-275.22"/>
<polygon fill="black" stroke="black" points="391.54,-271.79 380.94,-271.88 389.28,-278.41 391.54,-271.79"/>
</g>
<!-- u3 -->
<g id="node8" class="node">
<title>u3</title>
<ellipse fill="#bbbbff" stroke="black" cx="928.24" cy="-255" rx="110.48" ry="18"/>
<text text-anchor="middle" x="928.24" y="-251.3" font-family="Times,serif" font-size="14.00">Theory.Drasil.Classes</text>
</g>
<!-- u8&#45;&gt;u3 -->
<g id="edge9" class="edge">
<title>u8&#45;&gt;u3</title>
<path fill="none" stroke="black" d="M928.24,-440.78C928.24,-405.67 928.24,-325.59 928.24,-283.31"/>
<polygon fill="black" stroke="black" points="931.74,-283.18 928.24,-273.18 924.74,-283.18 931.74,-283.18"/>
</g>
<!-- u7&#45;&gt;u0 -->
<g id="edge6" class="edge">
<title>u7&#45;&gt;u0</title>
<path fill="none" stroke="black" d="M147.81,-442.15C240.97,-405.75 470.09,-316.23 572.88,-276.07"/>
<polygon fill="black" stroke="black" points="574.38,-279.24 582.42,-272.34 571.84,-272.72 574.38,-279.24"/>
</g>
<!-- u7&#45;&gt;u4 -->
<g id="edge7" class="edge">
<title>u7&#45;&gt;u4</title>
<path fill="none" stroke="black" d="M126.2,-441.13C166.6,-405.18 261.21,-320.98 307.62,-279.69"/>
<polygon fill="black" stroke="black" points="310.03,-282.23 315.17,-272.97 305.37,-277 310.03,-282.23"/>
</g>
<!-- u6&#45;&gt;u0 -->
<g id="edge4" class="edge">
<title>u6&#45;&gt;u0</title>
<path fill="none" stroke="black" d="M371.3,-441.13C420.71,-404.96 536.88,-319.94 592.92,-278.92"/>
<polygon fill="black" stroke="black" points="595.05,-281.7 601.06,-272.97 590.92,-276.05 595.05,-281.7"/>
</g>
<!-- u6&#45;&gt;u4 -->
<g id="edge5" class="edge">
<title>u6&#45;&gt;u4</title>
<path fill="none" stroke="black" d="M347.05,-440.78C344.61,-405.67 339.06,-325.59 336.13,-283.31"/>
<polygon fill="black" stroke="black" points="339.61,-282.91 335.43,-273.18 332.63,-283.4 339.61,-282.91"/>
</g>
<!-- u5&#45;&gt;u0 -->
<g id="edge3" class="edge">
<title>u5&#45;&gt;u0</title>
<path fill="none" stroke="black" d="M624.24,-440.78C624.24,-405.67 624.24,-325.59 624.24,-283.31"/>
<polygon fill="black" stroke="black" points="627.74,-283.18 624.24,-273.18 620.74,-283.18 627.74,-283.18"/>
</g>
<!-- u2 -->
<g id="node9" class="node">
<title>u2</title>
<ellipse fill="#bbbbff" stroke="black" cx="194.24" cy="-51" rx="122.38" ry="18"/>
<text text-anchor="middle" x="194.24" y="-47.3" font-family="Times,serif" font-size="14.00">Theory.Drasil.MultiDefn</text>
</g>
<!-- u4&#45;&gt;u2 -->
<g id="edge2" class="edge">
<title>u4&#45;&gt;u2</title>
<path fill="none" stroke="black" d="M322.3,-236.78C297.61,-201.15 240.81,-119.19 211.88,-77.45"/>
<polygon fill="black" stroke="black" points="214.72,-75.4 206.15,-69.18 208.97,-79.39 214.72,-75.4"/>
</g>
<!-- u1 -->
<g id="node10" class="node">
<title>u1</title>
<ellipse fill="#bbbbff" stroke="black" cx="474.24" cy="-51" rx="139.98" ry="18"/>
<text text-anchor="middle" x="474.24" y="-47.3" font-family="Times,serif" font-size="14.00">Theory.Drasil.ConstraintSet</text>
</g>
<!-- u4&#45;&gt;u1 -->
<g id="edge1" class="edge">
<title>u4&#45;&gt;u1</title>
<path fill="none" stroke="black" d="M346.18,-236.78C370.87,-201.15 427.67,-119.19 456.6,-77.45"/>
<polygon fill="black" stroke="black" points="459.51,-79.39 462.33,-69.18 453.76,-75.4 459.51,-79.39"/>
</g>
</g>
</svg>
