<?xml version="1.0" encoding="UTF-8" standalone="no"?>
<!DOCTYPE svg PUBLIC "-//W3C//DTD SVG 1.1//EN"
 "http://www.w3.org/Graphics/SVG/1.1/DTD/svg11.dtd">
<!-- Generated by graphviz version 2.43.0 (0)
 -->
<!-- Title: G Pages: 1 -->
<svg width="431pt" height="288pt"
 viewBox="0.00 0.00 430.66 288.00" xmlns="http://www.w3.org/2000/svg" xmlns:xlink="http://www.w3.org/1999/xlink">
<g id="graph0" class="graph" transform="scale(2.59 2.59) rotate(0) translate(4 742.67)">
<title>G</title>
<polygon fill="white" stroke="transparent" points="-4,4 -4,-742.67 1112.53,-742.67 1112.53,4 -4,4"/>
<!-- u0 -->
<g id="node1" class="node">
<title>u0</title>
<ellipse fill="#bbffbb" stroke="black" cx="556.34" cy="-264" rx="141.88" ry="18"/>
<text text-anchor="middle" x="556.34" y="-260.3" font-family="Times,serif" font-size="14.00">Data.Drasil.TheoryConcepts</text>
</g>
<!-- u1 -->
<g id="node2" class="node">
<title>u1</title>
<ellipse fill="#ffffbb" stroke="black" cx="580.34" cy="-686" rx="72.29" ry="18"/>
<text text-anchor="middle" x="580.34" y="-682.3" font-family="Times,serif" font-size="14.00">Theory.Drasil</text>
</g>
<!-- u9 -->
<g id="node3" class="node">
<title>u9</title>
<ellipse fill="#bbbbff" stroke="black" cx="142.34" cy="-475" rx="142.17" ry="18"/>
<text text-anchor="middle" x="142.34" y="-471.3" font-family="Times,serif" font-size="14.00">Theory.Drasil.DataDefinition</text>
</g>
<!-- u1&#45;&gt;u9 -->
<g id="edge4" class="edge">
<title>u1&#45;&gt;u9</title>
<path fill="none" stroke="black" d="M548.48,-669.8C471.37,-633 274.51,-539.07 186.28,-496.97"/>
<polygon fill="black" stroke="black" points="187.61,-493.72 177.08,-492.58 184.59,-500.04 187.61,-493.72"/>
</g>
<!-- u6 -->
<g id="node6" class="node">
<title>u6</title>
<ellipse fill="#bbbbff" stroke="black" cx="446.34" cy="-475" rx="143.77" ry="18"/>
<text text-anchor="middle" x="446.34" y="-471.3" font-family="Times,serif" font-size="14.00">Theory.Drasil.InstanceModel</text>
</g>
<!-- u1&#45;&gt;u6 -->
<g id="edge3" class="edge">
<title>u1&#45;&gt;u6</title>
<path fill="none" stroke="black" d="M569.37,-667.9C545.85,-631.22 490.46,-544.82 462.74,-501.58"/>
<polygon fill="black" stroke="black" points="465.61,-499.58 457.27,-493.05 459.72,-503.35 465.61,-499.58"/>
</g>
<!-- u4 -->
<g id="node8" class="node">
<title>u4</title>
<ellipse fill="#bbbbff" stroke="black" cx="715.34" cy="-475" rx="107.48" ry="18"/>
<text text-anchor="middle" x="715.34" y="-471.3" font-family="Times,serif" font-size="14.00">Theory.Drasil.Theory</text>
</g>
<!-- u1&#45;&gt;u4 -->
<g id="edge2" class="edge">
<title>u1&#45;&gt;u4</title>
<path fill="none" stroke="black" d="M591.38,-667.9C615.08,-631.22 670.88,-544.82 698.81,-501.58"/>
<polygon fill="black" stroke="black" points="701.84,-503.35 704.33,-493.05 695.96,-499.55 701.84,-503.35"/>
</g>
<!-- u3 -->
<g id="node9" class="node">
<title>u3</title>
<ellipse fill="#bbbbff" stroke="black" cx="956.34" cy="-475" rx="115.88" ry="18"/>
<text text-anchor="middle" x="956.34" y="-471.3" font-family="Times,serif" font-size="14.00">Theory.Drasil.GenDefn</text>
</g>
<!-- u1&#45;&gt;u3 -->
<g id="edge1" class="edge">
<title>u1&#45;&gt;u3</title>
<path fill="none" stroke="black" d="M608.6,-669.29C675.23,-632.25 842.22,-539.43 917.94,-497.34"/>
<polygon fill="black" stroke="black" points="919.67,-500.39 926.71,-492.47 916.27,-494.27 919.67,-500.39"/>
</g>
<!-- u9&#45;&gt;u0 -->
<g id="edge14" class="edge">
<title>u9&#45;&gt;u0</title>
<path fill="none" stroke="black" d="M175.17,-457.43C249.75,-419.77 431.85,-327.85 514.41,-286.17"/>
<polygon fill="black" stroke="black" points="516.15,-289.21 523.5,-281.58 513,-282.96 516.15,-289.21"/>
</g>
<!-- u8 -->
<g id="node4" class="node">
<title>u8</title>
<ellipse fill="#bbbbff" stroke="black" cx="286.34" cy="-264" rx="110.48" ry="18"/>
<text text-anchor="middle" x="286.34" y="-260.3" font-family="Times,serif" font-size="14.00">Theory.Drasil.Classes</text>
</g>
<!-- u7 -->
<g id="node5" class="node">
<title>u7</title>
<ellipse fill="#bbbbff" stroke="black" cx="846.34" cy="-264" rx="129.98" ry="18"/>
<text text-anchor="middle" x="846.34" y="-260.3" font-family="Times,serif" font-size="14.00">Theory.Drasil.ModelKinds</text>
</g>
<!-- u5 -->
<g id="node7" class="node">
<title>u5</title>
<ellipse fill="#bbbbff" stroke="black" cx="706.34" cy="-53" rx="139.98" ry="18"/>
<text text-anchor="middle" x="706.34" y="-49.3" font-family="Times,serif" font-size="14.00">Theory.Drasil.ConstraintSet</text>
</g>
<!-- u7&#45;&gt;u5 -->
<g id="edge13" class="edge">
<title>u7&#45;&gt;u5</title>
<path fill="none" stroke="black" d="M834.88,-245.9C810.31,-209.22 752.44,-122.82 723.48,-79.58"/>
<polygon fill="black" stroke="black" points="726.23,-77.41 717.76,-71.05 720.41,-81.3 726.23,-77.41"/>
</g>
<!-- u2 -->
<g id="node10" class="node">
<title>u2</title>
<ellipse fill="#bbbbff" stroke="black" cx="986.34" cy="-53" rx="122.38" ry="18"/>
<text text-anchor="middle" x="986.34" y="-49.3" font-family="Times,serif" font-size="14.00">Theory.Drasil.MultiDefn</text>
</g>
<!-- u7&#45;&gt;u2 -->
<g id="edge12" class="edge">
<title>u7&#45;&gt;u2</title>
<path fill="none" stroke="black" d="M857.79,-245.9C882.36,-209.22 940.24,-122.82 969.2,-79.58"/>
<polygon fill="black" stroke="black" points="972.26,-81.3 974.92,-71.05 966.45,-77.41 972.26,-81.3"/>
</g>
<!-- u6&#45;&gt;u0 -->
<g id="edge9" class="edge">
<title>u6&#45;&gt;u0</title>
<path fill="none" stroke="black" d="M455.34,-456.9C474.56,-420.37 519.74,-334.54 542.58,-291.13"/>
<polygon fill="black" stroke="black" points="545.81,-292.53 547.37,-282.05 539.61,-289.27 545.81,-292.53"/>
</g>
<!-- u6&#45;&gt;u8 -->
<g id="edge11" class="edge">
<title>u6&#45;&gt;u8</title>
<path fill="none" stroke="black" d="M433.24,-456.9C405.05,-420.06 338.47,-333.1 305.51,-290.04"/>
<polygon fill="black" stroke="black" points="308.25,-287.86 299.39,-282.05 302.69,-292.11 308.25,-287.86"/>
</g>
<!-- u6&#45;&gt;u7 -->
<g id="edge10" class="edge">
<title>u6&#45;&gt;u7</title>
<path fill="none" stroke="black" d="M478.06,-457.43C549.97,-419.85 725.34,-328.22 805.34,-286.42"/>
<polygon fill="black" stroke="black" points="807.37,-289.31 814.61,-281.58 804.13,-283.11 807.37,-289.31"/>
</g>
<!-- u4&#45;&gt;u0 -->
<g id="edge7" class="edge">
<title>u4&#45;&gt;u0</title>
<path fill="none" stroke="black" d="M702.33,-456.9C674.3,-420.06 608.14,-333.1 575.39,-290.04"/>
<polygon fill="black" stroke="black" points="578.15,-287.89 569.31,-282.05 572.57,-292.12 578.15,-287.89"/>
</g>
<!-- u4&#45;&gt;u7 -->
<g id="edge8" class="edge">
<title>u4&#45;&gt;u7</title>
<path fill="none" stroke="black" d="M726.06,-456.9C749.05,-420.22 803.2,-333.82 830.3,-290.58"/>
<polygon fill="black" stroke="black" points="833.31,-292.38 835.65,-282.05 827.38,-288.66 833.31,-292.38"/>
</g>
<!-- u3&#45;&gt;u0 -->
<g id="edge5" class="edge">
<title>u3&#45;&gt;u0</title>
<path fill="none" stroke="black" d="M924.95,-457.6C853.27,-420.15 677.59,-328.35 597.42,-286.47"/>
<polygon fill="black" stroke="black" points="598.62,-283.14 588.13,-281.61 595.37,-289.35 598.62,-283.14"/>
</g>
<!-- u3&#45;&gt;u7 -->
<g id="edge6" class="edge">
<title>u3&#45;&gt;u7</title>
<path fill="none" stroke="black" d="M947.34,-456.9C928.11,-420.37 882.94,-334.54 860.09,-291.13"/>
<polygon fill="black" stroke="black" points="863.06,-289.27 855.31,-282.05 856.87,-292.53 863.06,-289.27"/>
</g>
</g>
</svg>
