<?xml version="1.0" encoding="UTF-8" standalone="no"?>
<!DOCTYPE svg PUBLIC "-//W3C//DTD SVG 1.1//EN"
 "http://www.w3.org/Graphics/SVG/1.1/DTD/svg11.dtd">
<!-- Generated by graphviz version 2.43.0 (0)
 -->
<!-- Title: G Pages: 1 -->
<svg width="430pt" height="288pt"
 viewBox="0.00 0.00 429.56 288.00" xmlns="http://www.w3.org/2000/svg" xmlns:xlink="http://www.w3.org/1999/xlink">
<g id="graph0" class="graph" transform="scale(0.77 0.77) rotate(0) translate(4 370)">
<title>G</title>
<polygon fill="white" stroke="transparent" points="-4,4 -4,-370 553.83,-370 553.83,4 -4,4"/>
<!-- u3 -->
<g id="node1" class="node">
<title>u3</title>
<ellipse fill="#bbffbb" stroke="black" cx="292.14" cy="-329" rx="85.29" ry="18"/>
<text text-anchor="middle" x="292.14" y="-325.3" font-family="Times,serif" font-size="14.00">Database.Drasil</text>
</g>
<!-- u2 -->
<g id="node2" class="node">
<title>u2</title>
<ellipse fill="#ffffbb" stroke="black" cx="150.14" cy="-183" rx="150.27" ry="18"/>
<text text-anchor="middle" x="150.14" y="-179.3" font-family="Times,serif" font-size="14.00">Database.Drasil.TypedUIDRef</text>
</g>
<!-- u3&#45;&gt;u2 -->
<g id="edge4" class="edge">
<title>u3&#45;&gt;u2</title>
<path fill="none" stroke="black" d="M275.57,-311.2C250.59,-285.86 203.13,-237.74 174.29,-208.5"/>
<polygon fill="black" stroke="black" points="176.55,-205.8 167.04,-201.14 171.57,-210.72 176.55,-205.8"/>
</g>
<!-- u0 -->
<g id="node4" class="node">
<title>u0</title>
<ellipse fill="#ffffbb" stroke="black" cx="434.14" cy="-183" rx="115.88" ry="18"/>
<text text-anchor="middle" x="434.14" y="-179.3" font-family="Times,serif" font-size="14.00">Database.Drasil.Dump</text>
</g>
<!-- u3&#45;&gt;u0 -->
<g id="edge3" class="edge">
<title>u3&#45;&gt;u0</title>
<path fill="none" stroke="black" d="M308.7,-311.2C333.69,-285.86 381.14,-237.74 409.98,-208.5"/>
<polygon fill="black" stroke="black" points="412.71,-210.72 417.23,-201.14 407.72,-205.8 412.71,-210.72"/>
</g>
<!-- u1 -->
<g id="node3" class="node">
<title>u1</title>
<ellipse fill="#ffffbb" stroke="black" cx="292.14" cy="-37" rx="131.88" ry="18"/>
<text text-anchor="middle" x="292.14" y="-33.3" font-family="Times,serif" font-size="14.00">Database.Drasil.ChunkDB</text>
</g>
<!-- u2&#45;&gt;u1 -->
<g id="edge2" class="edge">
<title>u2&#45;&gt;u1</title>
<path fill="none" stroke="black" d="M166.98,-164.92C192.07,-139.48 239.37,-91.51 268.09,-62.39"/>
<polygon fill="black" stroke="black" points="270.78,-64.64 275.31,-55.06 265.8,-59.72 270.78,-64.64"/>
</g>
<!-- u0&#45;&gt;u1 -->
<g id="edge1" class="edge">
<title>u0&#45;&gt;u1</title>
<path fill="none" stroke="black" d="M417.29,-164.92C392.2,-139.48 344.91,-91.51 316.19,-62.39"/>
<polygon fill="black" stroke="black" points="318.48,-59.72 308.96,-55.06 313.49,-64.64 318.48,-59.72"/>
</g>
</g>
</svg>
