<?xml version="1.0" encoding="UTF-8" standalone="no"?>
<!DOCTYPE svg PUBLIC "-//W3C//DTD SVG 1.1//EN"
 "http://www.w3.org/Graphics/SVG/1.1/DTD/svg11.dtd">
<!-- Generated by graphviz version 2.43.0 (0)
 -->
<!-- Title: G Pages: 1 -->
<svg width="431pt" height="288pt"
 viewBox="0.00 0.00 431.20 288.00" xmlns="http://www.w3.org/2000/svg" xmlns:xlink="http://www.w3.org/1999/xlink">
<g id="graph0" class="graph" transform="scale(0.25 0.25) rotate(0) translate(4 1133.33)">
<title>G</title>
<polygon fill="white" stroke="transparent" points="-4,4 -4,-1133.33 1698.83,-1133.33 1698.83,4 -4,4"/>
<!-- u7 -->
<g id="node1" class="node">
<title>u7</title>
<ellipse fill="#bbffbb" stroke="black" cx="131.29" cy="-81" rx="122.38" ry="18"/>
<text text-anchor="middle" x="131.29" y="-77.3" font-family="Times,serif" font-size="14.00">Drasil.Website.Example</text>
</g>
<!-- u6 -->
<g id="node2" class="node">
<title>u6</title>
<ellipse fill="#bbffbb" stroke="black" cx="131.29" cy="-403" rx="131.08" ry="18"/>
<text text-anchor="middle" x="131.29" y="-399.3" font-family="Times,serif" font-size="14.00">Drasil.Website.CaseStudy</text>
</g>
<!-- u6&#45;&gt;u7 -->
<g id="edge7" class="edge">
<title>u6&#45;&gt;u7</title>
<path fill="none" stroke="black" d="M131.29,-384.8C131.29,-332.27 131.29,-173.68 131.29,-109.45"/>
<polygon fill="black" stroke="black" points="134.79,-109.29 131.29,-99.29 127.79,-109.29 134.79,-109.29"/>
</g>
<!-- u5 -->
<g id="node3" class="node">
<title>u5</title>
<ellipse fill="#bbffbb" stroke="black" cx="873.29" cy="-726" rx="104.78" ry="18"/>
<text text-anchor="middle" x="873.29" y="-722.3" font-family="Times,serif" font-size="14.00">Drasil.Website.Body</text>
</g>
<!-- u5&#45;&gt;u6 -->
<g id="edge6" class="edge">
<title>u5&#45;&gt;u6</title>
<path fill="none" stroke="black" d="M836.49,-709.08C713.41,-655.84 316.12,-483.96 178.63,-424.48"/>
<polygon fill="black" stroke="black" points="179.76,-421.16 169.19,-420.4 176.98,-427.58 179.76,-421.16"/>
</g>
<!-- u4 -->
<g id="node4" class="node">
<title>u4</title>
<ellipse fill="#bbffbb" stroke="black" cx="419.29" cy="-403" rx="139.18" ry="18"/>
<text text-anchor="middle" x="419.29" y="-399.3" font-family="Times,serif" font-size="14.00">Drasil.Website.Introduction</text>
</g>
<!-- u5&#45;&gt;u4 -->
<g id="edge5" class="edge">
<title>u5&#45;&gt;u4</title>
<path fill="none" stroke="black" d="M849.84,-708.42C774.44,-655.11 538.15,-488.04 451.53,-426.8"/>
<polygon fill="black" stroke="black" points="453.33,-423.78 443.15,-420.87 449.29,-429.5 453.33,-423.78"/>
</g>
<!-- u3 -->
<g id="node5" class="node">
<title>u3</title>
<ellipse fill="#bbffbb" stroke="black" cx="728.29" cy="-403" rx="152.17" ry="18"/>
<text text-anchor="middle" x="728.29" y="-399.3" font-family="Times,serif" font-size="14.00">Drasil.Website.Documentation</text>
</g>
<!-- u5&#45;&gt;u3 -->
<g id="edge4" class="edge">
<title>u5&#45;&gt;u3</title>
<path fill="none" stroke="black" d="M865.49,-707.74C841.59,-654.84 769.24,-494.65 740.37,-430.74"/>
<polygon fill="black" stroke="black" points="743.43,-429.02 736.12,-421.34 737.05,-431.9 743.43,-429.02"/>
</g>
<!-- u2 -->
<g id="node6" class="node">
<title>u2</title>
<ellipse fill="#bbffbb" stroke="black" cx="1018.29" cy="-403" rx="120.48" ry="18"/>
<text text-anchor="middle" x="1018.29" y="-399.3" font-family="Times,serif" font-size="14.00">Drasil.Website.Analysis</text>
</g>
<!-- u5&#45;&gt;u2 -->
<g id="edge3" class="edge">
<title>u5&#45;&gt;u2</title>
<path fill="none" stroke="black" d="M881.08,-707.74C904.98,-654.84 977.34,-494.65 1006.21,-430.74"/>
<polygon fill="black" stroke="black" points="1009.53,-431.9 1010.45,-421.34 1003.15,-429.02 1009.53,-431.9"/>
</g>
<!-- u1 -->
<g id="node7" class="node">
<title>u1</title>
<ellipse fill="#bbffbb" stroke="black" cx="1308.29" cy="-403" rx="151.37" ry="18"/>
<text text-anchor="middle" x="1308.29" y="-399.3" font-family="Times,serif" font-size="14.00">Drasil.Website.GettingStarted</text>
</g>
<!-- u5&#45;&gt;u1 -->
<g id="edge2" class="edge">
<title>u5&#45;&gt;u1</title>
<path fill="none" stroke="black" d="M895.76,-708.42C967.93,-655.16 1193.95,-488.38 1277.14,-426.98"/>
<polygon fill="black" stroke="black" points="1279.46,-429.62 1285.43,-420.87 1275.3,-423.99 1279.46,-429.62"/>
</g>
<!-- u0 -->
<g id="node8" class="node">
<title>u0</title>
<ellipse fill="#bbffbb" stroke="black" cx="1586.29" cy="-403" rx="108.58" ry="18"/>
<text text-anchor="middle" x="1586.29" y="-399.3" font-family="Times,serif" font-size="14.00">Drasil.Website.About</text>
</g>
<!-- u5&#45;&gt;u0 -->
<g id="edge1" class="edge">
<title>u5&#45;&gt;u0</title>
<path fill="none" stroke="black" d="M909.13,-708.86C1028.01,-655.34 1409.17,-483.74 1540.95,-424.41"/>
<polygon fill="black" stroke="black" points="1542.69,-427.47 1550.37,-420.17 1539.82,-421.08 1542.69,-427.47"/>
</g>
<!-- u8 -->
<g id="node9" class="node">
<title>u8</title>
<ellipse fill="#ffffbb" stroke="black" cx="873.29" cy="-1049" rx="122.38" ry="18"/>
<text text-anchor="middle" x="873.29" y="-1045.3" font-family="Times,serif" font-size="14.00">drasil&#45;website.app.Main</text>
</g>
<!-- u8&#45;&gt;u5 -->
<g id="edge8" class="edge">
<title>u8&#45;&gt;u5</title>
<path fill="none" stroke="black" d="M873.29,-1030.74C873.29,-978.05 873.29,-818.96 873.29,-754.54"/>
<polygon fill="black" stroke="black" points="876.79,-754.34 873.29,-744.34 869.79,-754.34 876.79,-754.34"/>
</g>
</g>
</svg>
