<?xml version="1.0" encoding="UTF-8" standalone="no"?>
<!DOCTYPE svg PUBLIC "-//W3C//DTD SVG 1.1//EN"
 "http://www.w3.org/Graphics/SVG/1.1/DTD/svg11.dtd">
<!-- Generated by graphviz version 2.43.0 (0)
 -->
<!-- Title: G Pages: 1 -->
<svg width="431pt" height="288pt"
 viewBox="0.00 0.00 431.38 288.00" xmlns="http://www.w3.org/2000/svg" xmlns:xlink="http://www.w3.org/1999/xlink">
<g id="graph0" class="graph" transform="scale(0.16 0.16) rotate(0) translate(4 1744)">
<title>G</title>
<polygon fill="white" stroke="transparent" points="-4,4 -4,-1744 2614.22,-1744 2614.22,4 -4,4"/>
<!-- u12 -->
<g id="node1" class="node">
<title>u12</title>
<ellipse fill="#bbffbb" stroke="black" cx="1569.74" cy="-643" rx="119.68" ry="18"/>
<text text-anchor="middle" x="1569.74" y="-639.3" font-family="Times,serif" font-size="14.00">Language.Drasil.Config</text>
</g>
<!-- u5 -->
<g id="node2" class="node">
<title>u5</title>
<ellipse fill="#bbffbb" stroke="black" cx="1735.74" cy="-1702" rx="128.08" ry="18"/>
<text text-anchor="middle" x="1735.74" y="-1698.3" font-family="Times,serif" font-size="14.00">Language.Drasil.Printers</text>
</g>
<!-- u32 -->
<g id="node3" class="node">
<title>u32</title>
<ellipse fill="#ffffbb" stroke="black" cx="389.74" cy="-794" rx="146.47" ry="18"/>
<text text-anchor="middle" x="389.74" y="-790.3" font-family="Times,serif" font-size="14.00">Language.Drasil.Debug.Print</text>
</g>
<!-- u5&#45;&gt;u32 -->
<g id="edge12" class="edge">
<title>u5&#45;&gt;u32</title>
<path fill="none" stroke="black" d="M1616.24,-1695.43C1320.04,-1678.37 575.74,-1614.28 575.74,-1401 575.74,-1401 575.74,-1401 575.74,-1096 575.74,-977.1 469.4,-865.92 417.53,-818.76"/>
<polygon fill="black" stroke="black" points="419.78,-816.08 410,-812.01 415.11,-821.29 419.78,-816.08"/>
</g>
<!-- u7 -->
<g id="node8" class="node">
<title>u7</title>
<ellipse fill="#ffbbbb" stroke="black" cx="1866.74" cy="-1400" rx="140.28" ry="18"/>
<text text-anchor="middle" x="1866.74" y="-1396.3" font-family="Times,serif" font-size="14.00">Language.Drasil.JSON.Print</text>
</g>
<!-- u5&#45;&gt;u7 -->
<g id="edge11" class="edge">
<title>u5&#45;&gt;u7</title>
<path fill="none" stroke="black" d="M1743.16,-1684.01C1764.95,-1634.11 1828.88,-1487.71 1855.2,-1427.41"/>
<polygon fill="black" stroke="black" points="1858.44,-1428.74 1859.24,-1418.17 1852.03,-1425.94 1858.44,-1428.74"/>
</g>
<!-- u2 -->
<g id="node11" class="node">
<title>u2</title>
<ellipse fill="#bbffff" stroke="black" cx="1574.74" cy="-1551" rx="171.67" ry="18"/>
<text text-anchor="middle" x="1574.74" y="-1547.3" font-family="Times,serif" font-size="14.00">Language.Drasil.Markdown.Config</text>
</g>
<!-- u5&#45;&gt;u2 -->
<g id="edge10" class="edge">
<title>u5&#45;&gt;u2</title>
<path fill="none" stroke="black" d="M1717.27,-1683.91C1688.59,-1657.37 1633.27,-1606.17 1600.63,-1575.96"/>
<polygon fill="black" stroke="black" points="1602.95,-1573.35 1593.24,-1569.12 1598.2,-1578.48 1602.95,-1573.35"/>
</g>
<!-- u0 -->
<g id="node13" class="node">
<title>u0</title>
<ellipse fill="#bbffff" stroke="black" cx="2421.74" cy="-1248" rx="188.47" ry="18"/>
<text text-anchor="middle" x="2421.74" y="-1244.3" font-family="Times,serif" font-size="14.00">Language.Drasil.Markdown.CreateMd</text>
</g>
<!-- u5&#45;&gt;u0 -->
<g id="edge9" class="edge">
<title>u5&#45;&gt;u0</title>
<path fill="none" stroke="black" d="M1761.38,-1684.11C1866.86,-1614.61 2267.37,-1350.71 2387.49,-1271.57"/>
<polygon fill="black" stroke="black" points="2389.54,-1274.4 2395.97,-1265.98 2385.69,-1268.56 2389.54,-1274.4"/>
</g>
<!-- u4 -->
<g id="node14" class="node">
<title>u4</title>
<ellipse fill="#ffbbff" stroke="black" cx="139.74" cy="-492" rx="139.98" ry="18"/>
<text text-anchor="middle" x="139.74" y="-488.3" font-family="Times,serif" font-size="14.00">Language.Drasil.Plain.Print</text>
</g>
<!-- u32&#45;&gt;u4 -->
<g id="edge51" class="edge">
<title>u32&#45;&gt;u4</title>
<path fill="none" stroke="black" d="M375.58,-776.01C333.65,-725.7 209.97,-577.28 160.52,-517.94"/>
<polygon fill="black" stroke="black" points="163.14,-515.62 154.05,-510.17 157.76,-520.1 163.14,-515.62"/>
</g>
<!-- u26 -->
<g id="node24" class="node">
<title>u26</title>
<ellipse fill="#ffff77" stroke="black" cx="513.74" cy="-643" rx="207.96" ry="18"/>
<text text-anchor="middle" x="513.74" y="-639.3" font-family="Times,serif" font-size="14.00">Language.Drasil.Printing.Import.Sentence</text>
</g>
<!-- u32&#45;&gt;u26 -->
<g id="edge52" class="edge">
<title>u32&#45;&gt;u26</title>
<path fill="none" stroke="black" d="M403.96,-775.91C425.71,-749.78 467.36,-699.73 492.63,-669.36"/>
<polygon fill="black" stroke="black" points="495.59,-671.28 499.3,-661.35 490.21,-666.8 495.59,-671.28"/>
</g>
<!-- u16 -->
<g id="node4" class="node">
<title>u16</title>
<ellipse fill="#bbbbff" stroke="black" cx="1606.74" cy="-1097" rx="153.27" ry="18"/>
<text text-anchor="middle" x="1606.74" y="-1093.3" font-family="Times,serif" font-size="14.00">Language.Drasil.HTML.Monad</text>
</g>
<!-- u15 -->
<g id="node5" class="node">
<title>u15</title>
<ellipse fill="#bbbbff" stroke="black" cx="1762.74" cy="-1248" rx="144.87" ry="18"/>
<text text-anchor="middle" x="1762.74" y="-1244.3" font-family="Times,serif" font-size="14.00">Language.Drasil.HTML.Print</text>
</g>
<!-- u15&#45;&gt;u16 -->
<g id="edge28" class="edge">
<title>u15&#45;&gt;u16</title>
<path fill="none" stroke="black" d="M1744.84,-1229.91C1717.1,-1203.41 1663.62,-1152.33 1631.97,-1122.1"/>
<polygon fill="black" stroke="black" points="1634.07,-1119.27 1624.42,-1114.89 1629.24,-1124.33 1634.07,-1119.27"/>
</g>
<!-- u14 -->
<g id="node6" class="node">
<title>u14</title>
<ellipse fill="#bbbbff" stroke="black" cx="1918.74" cy="-1097" rx="140.28" ry="18"/>
<text text-anchor="middle" x="1918.74" y="-1093.3" font-family="Times,serif" font-size="14.00">Language.Drasil.HTML.CSS</text>
</g>
<!-- u15&#45;&gt;u14 -->
<g id="edge27" class="edge">
<title>u15&#45;&gt;u14</title>
<path fill="none" stroke="black" d="M1780.63,-1229.91C1808.37,-1203.41 1861.85,-1152.33 1893.5,-1122.1"/>
<polygon fill="black" stroke="black" points="1896.24,-1124.33 1901.05,-1114.89 1891.4,-1119.27 1896.24,-1124.33"/>
</g>
<!-- u13 -->
<g id="node7" class="node">
<title>u13</title>
<ellipse fill="#bbbbff" stroke="black" cx="2166.74" cy="-643" rx="157.87" ry="18"/>
<text text-anchor="middle" x="2166.74" y="-639.3" font-family="Times,serif" font-size="14.00">Language.Drasil.HTML.Helpers</text>
</g>
<!-- u15&#45;&gt;u13 -->
<g id="edge26" class="edge">
<title>u15&#45;&gt;u13</title>
<path fill="none" stroke="black" d="M1850.19,-1233.55C1920.72,-1217.82 2016.35,-1184.46 2067.74,-1115 2157.91,-993.12 2064.97,-922.03 2105.74,-776 2116.5,-737.45 2137.33,-696.03 2151.62,-670.07"/>
<polygon fill="black" stroke="black" points="2154.74,-671.68 2156.57,-661.24 2148.63,-668.26 2154.74,-671.68"/>
</g>
<!-- u10 -->
<g id="node31" class="node">
<title>u10</title>
<ellipse fill="#7777ff" stroke="black" cx="1301.74" cy="-1097" rx="133.48" ry="18"/>
<text text-anchor="middle" x="1301.74" y="-1093.3" font-family="Times,serif" font-size="14.00">Language.Drasil.TeX.Print</text>
</g>
<!-- u15&#45;&gt;u10 -->
<g id="edge25" class="edge">
<title>u15&#45;&gt;u10</title>
<path fill="none" stroke="black" d="M1713.4,-1231.05C1627.79,-1203.38 1452.11,-1146.6 1360.4,-1116.96"/>
<polygon fill="black" stroke="black" points="1361.31,-1113.58 1350.72,-1113.83 1359.16,-1120.24 1361.31,-1113.58"/>
</g>
<!-- u31 -->
<g id="node15" class="node">
<title>u31</title>
<ellipse fill="#77ff77" stroke="black" cx="1196.74" cy="-38" rx="149.47" ry="18"/>
<text text-anchor="middle" x="1196.74" y="-34.3" font-family="Times,serif" font-size="14.00">Language.Drasil.Printing.AST</text>
</g>
<!-- u13&#45;&gt;u31 -->
<g id="edge24" class="edge">
<title>u13&#45;&gt;u31</title>
<path fill="none" stroke="black" d="M2155.04,-624.64C2132.58,-592.21 2080.66,-521.42 2024.74,-474 1771.66,-259.4 1395.04,-110.23 1253.35,-58.77"/>
<polygon fill="black" stroke="black" points="1254.16,-55.34 1243.56,-55.24 1251.78,-61.93 1254.16,-55.34"/>
</g>
<!-- u7&#45;&gt;u15 -->
<g id="edge16" class="edge">
<title>u7&#45;&gt;u15</title>
<path fill="none" stroke="black" d="M1854.81,-1381.79C1836.55,-1355.46 1801.57,-1305 1780.37,-1274.43"/>
<polygon fill="black" stroke="black" points="1783.1,-1272.23 1774.53,-1266.01 1777.35,-1276.22 1783.1,-1272.23"/>
</g>
<!-- u6 -->
<g id="node9" class="node">
<title>u6</title>
<ellipse fill="#ffbbbb" stroke="black" cx="2267.74" cy="-794" rx="153.27" ry="18"/>
<text text-anchor="middle" x="2267.74" y="-790.3" font-family="Times,serif" font-size="14.00">Language.Drasil.JSON.Helpers</text>
</g>
<!-- u7&#45;&gt;u6 -->
<g id="edge15" class="edge">
<title>u7&#45;&gt;u6</title>
<path fill="none" stroke="black" d="M1882.87,-1382.06C1922.91,-1339.48 2028.76,-1223.65 2100.74,-1115 2169.14,-1011.75 2231.46,-877.2 2256.32,-821.22"/>
<polygon fill="black" stroke="black" points="2259.55,-822.57 2260.39,-812 2253.15,-819.74 2259.55,-822.57"/>
</g>
<!-- u6&#45;&gt;u13 -->
<g id="edge13" class="edge">
<title>u6&#45;&gt;u13</title>
<path fill="none" stroke="black" d="M2256.15,-775.91C2238.51,-749.89 2204.81,-700.16 2184.19,-669.75"/>
<polygon fill="black" stroke="black" points="2187.01,-667.67 2178.5,-661.35 2181.21,-671.59 2187.01,-667.67"/>
</g>
<!-- u18 -->
<g id="node19" class="node">
<title>u18</title>
<ellipse fill="#77ff77" stroke="black" cx="1848.74" cy="-492" rx="167.07" ry="18"/>
<text text-anchor="middle" x="1848.74" y="-488.3" font-family="Times,serif" font-size="14.00">Language.Drasil.Printing.Helpers</text>
</g>
<!-- u6&#45;&gt;u18 -->
<g id="edge14" class="edge">
<title>u6&#45;&gt;u18</title>
<path fill="none" stroke="black" d="M2284.9,-775.71C2314.88,-743.4 2370.27,-672.81 2333.74,-625 2288.71,-566.08 2089.73,-527.22 1961.04,-507.75"/>
<polygon fill="black" stroke="black" points="1961.53,-504.28 1951.13,-506.26 1960.5,-511.2 1961.53,-504.28"/>
</g>
<!-- u3 -->
<g id="node10" class="node">
<title>u3</title>
<ellipse fill="#bbffff" stroke="black" cx="1543.74" cy="-1400" rx="165.17" ry="18"/>
<text text-anchor="middle" x="1543.74" y="-1396.3" font-family="Times,serif" font-size="14.00">Language.Drasil.Markdown.Print</text>
</g>
<!-- u3&#45;&gt;u15 -->
<g id="edge7" class="edge">
<title>u3&#45;&gt;u15</title>
<path fill="none" stroke="black" d="M1568.43,-1382.08C1607.97,-1355 1685.51,-1301.89 1729.75,-1271.59"/>
<polygon fill="black" stroke="black" points="1731.86,-1274.39 1738.13,-1265.85 1727.9,-1268.62 1731.86,-1274.39"/>
</g>
<!-- u1 -->
<g id="node12" class="node">
<title>u1</title>
<ellipse fill="#bbffff" stroke="black" cx="1421.74" cy="-794" rx="178.97" ry="18"/>
<text text-anchor="middle" x="1421.74" y="-790.3" font-family="Times,serif" font-size="14.00">Language.Drasil.Markdown.Helpers</text>
</g>
<!-- u3&#45;&gt;u1 -->
<g id="edge6" class="edge">
<title>u3&#45;&gt;u1</title>
<path fill="none" stroke="black" d="M1500.15,-1382.5C1415.81,-1347.9 1232.25,-1258.82 1159.74,-1115 1122.32,-1040.79 1116.26,-998.83 1159.74,-928 1198.18,-865.38 1276.31,-831.12 1337.29,-813.13"/>
<polygon fill="black" stroke="black" points="1338.27,-816.49 1346.93,-810.38 1336.35,-809.76 1338.27,-816.49"/>
</g>
<!-- u2&#45;&gt;u3 -->
<g id="edge5" class="edge">
<title>u2&#45;&gt;u3</title>
<path fill="none" stroke="black" d="M1571.18,-1532.91C1565.86,-1507.33 1555.78,-1458.86 1549.42,-1428.33"/>
<polygon fill="black" stroke="black" points="1552.81,-1427.43 1547.35,-1418.35 1545.96,-1428.86 1552.81,-1427.43"/>
</g>
<!-- u1&#45;&gt;u13 -->
<g id="edge2" class="edge">
<title>u1&#45;&gt;u13</title>
<path fill="none" stroke="black" d="M1498.31,-777.69C1638.69,-749.61 1936.21,-690.11 2082.26,-660.89"/>
<polygon fill="black" stroke="black" points="2082.97,-664.32 2092.09,-658.93 2081.59,-657.46 2082.97,-664.32"/>
</g>
<!-- u19 -->
<g id="node18" class="node">
<title>u19</title>
<ellipse fill="#77ff77" stroke="black" cx="1214.74" cy="-643" rx="178.97" ry="18"/>
<text text-anchor="middle" x="1214.74" y="-639.3" font-family="Times,serif" font-size="14.00">Language.Drasil.Printing.LayoutObj</text>
</g>
<!-- u1&#45;&gt;u19 -->
<g id="edge4" class="edge">
<title>u1&#45;&gt;u19</title>
<path fill="none" stroke="black" d="M1397.99,-775.91C1360.64,-749.02 1288.11,-696.81 1246.37,-666.77"/>
<polygon fill="black" stroke="black" points="1248.37,-663.89 1238.21,-660.89 1244.28,-669.58 1248.37,-663.89"/>
</g>
<!-- u1&#45;&gt;u18 -->
<g id="edge3" class="edge">
<title>u1&#45;&gt;u18</title>
<path fill="none" stroke="black" d="M1418.2,-775.97C1412.37,-742.83 1404.7,-669.09 1440.74,-625 1502.21,-549.79 1607,-516.96 1694.99,-502.84"/>
<polygon fill="black" stroke="black" points="1695.73,-506.27 1705.08,-501.29 1694.67,-499.35 1695.73,-506.27"/>
</g>
<!-- u0&#45;&gt;u18 -->
<g id="edge1" class="edge">
<title>u0&#45;&gt;u18</title>
<path fill="none" stroke="black" d="M2424.38,-1229.8C2431.17,-1183.96 2448.74,-1054.99 2448.74,-947 2448.74,-947 2448.74,-947 2448.74,-793 2448.74,-591.12 2173.63,-525.08 1995.98,-503.49"/>
<polygon fill="black" stroke="black" points="1996.36,-500.01 1986.01,-502.31 1995.53,-506.96 1996.36,-500.01"/>
</g>
<!-- u24 -->
<g id="node26" class="node">
<title>u24</title>
<ellipse fill="#ffff77" stroke="black" cx="782.74" cy="-340" rx="200.36" ry="18"/>
<text text-anchor="middle" x="782.74" y="-336.3" font-family="Times,serif" font-size="14.00">Language.Drasil.Printing.Import.Symbol</text>
</g>
<!-- u4&#45;&gt;u24 -->
<g id="edge8" class="edge">
<title>u4&#45;&gt;u24</title>
<path fill="none" stroke="black" d="M204.04,-476C322.76,-448.3 575.96,-389.24 704.46,-359.26"/>
<polygon fill="black" stroke="black" points="705.3,-362.66 714.24,-356.98 703.71,-355.84 705.3,-362.66"/>
</g>
<!-- u30 -->
<g id="node16" class="node">
<title>u30</title>
<ellipse fill="#77ff77" stroke="black" cx="775.74" cy="-38" rx="223.66" ry="18"/>
<text text-anchor="middle" x="775.74" y="-34.3" font-family="Times,serif" font-size="14.00">Language.Drasil.Printing.PrintingInformation</text>
</g>
<!-- u20 -->
<g id="node17" class="node">
<title>u20</title>
<ellipse fill="#77ff77" stroke="black" cx="950.74" cy="-946" rx="162.47" ry="18"/>
<text text-anchor="middle" x="950.74" y="-942.3" font-family="Times,serif" font-size="14.00">Language.Drasil.Printing.Import</text>
</g>
<!-- u27 -->
<g id="node23" class="node">
<title>u27</title>
<ellipse fill="#ffff77" stroke="black" cx="766.74" cy="-794" rx="212.56" ry="18"/>
<text text-anchor="middle" x="766.74" y="-790.3" font-family="Times,serif" font-size="14.00">Language.Drasil.Printing.Import.Document</text>
</g>
<!-- u20&#45;&gt;u27 -->
<g id="edge33" class="edge">
<title>u20&#45;&gt;u27</title>
<path fill="none" stroke="black" d="M929.99,-928.08C897.13,-901.3 833.05,-849.06 795.69,-818.6"/>
<polygon fill="black" stroke="black" points="797.66,-815.69 787.69,-812.08 793.23,-821.12 797.66,-815.69"/>
</g>
<!-- u21 -->
<g id="node29" class="node">
<title>u21</title>
<ellipse fill="#ffff77" stroke="black" cx="1376.74" cy="-492" rx="187.67" ry="18"/>
<text text-anchor="middle" x="1376.74" y="-488.3" font-family="Times,serif" font-size="14.00">Language.Drasil.Printing.Import.Expr</text>
</g>
<!-- u20&#45;&gt;u21 -->
<g id="edge32" class="edge">
<title>u20&#45;&gt;u21</title>
<path fill="none" stroke="black" d="M956.09,-927.9C963.87,-902.69 978.49,-853.99 988.74,-812 1008.85,-729.61 971.76,-689.57 1026.74,-625 1083.85,-557.92 1178.72,-524.87 1255.29,-508.61"/>
<polygon fill="black" stroke="black" points="1256.39,-511.96 1265.49,-506.53 1254.99,-505.1 1256.39,-511.96"/>
</g>
<!-- u17 -->
<g id="node20" class="node">
<title>u17</title>
<ellipse fill="#77ff77" stroke="black" cx="1592.74" cy="-340" rx="167.87" ry="18"/>
<text text-anchor="middle" x="1592.74" y="-336.3" font-family="Times,serif" font-size="14.00">Language.Drasil.Printing.Citation</text>
</g>
<!-- u19&#45;&gt;u17 -->
<g id="edge31" class="edge">
<title>u19&#45;&gt;u17</title>
<path fill="none" stroke="black" d="M1336.76,-629.76C1416.91,-614.94 1517.07,-582.23 1573.74,-510 1605.78,-469.16 1602.77,-404.71 1597.74,-368.34"/>
<polygon fill="black" stroke="black" points="1601.13,-367.36 1596.16,-358.01 1594.22,-368.42 1601.13,-367.36"/>
</g>
<!-- u18&#45;&gt;u17 -->
<g id="edge30" class="edge">
<title>u18&#45;&gt;u17</title>
<path fill="none" stroke="black" d="M1819.87,-474.08C1773.36,-446.84 1681.87,-393.23 1630.33,-363.03"/>
<polygon fill="black" stroke="black" points="1631.9,-359.89 1621.5,-357.85 1628.36,-365.93 1631.9,-359.89"/>
</g>
<!-- u17&#45;&gt;u31 -->
<g id="edge29" class="edge">
<title>u17&#45;&gt;u31</title>
<path fill="none" stroke="black" d="M1576.04,-321.93C1544.63,-290.28 1473.97,-221.16 1407.74,-171 1350.82,-127.89 1279.46,-85.44 1236.03,-60.75"/>
<polygon fill="black" stroke="black" points="1237.63,-57.64 1227.2,-55.76 1234.18,-63.73 1237.63,-57.64"/>
</g>
<!-- u29 -->
<g id="node21" class="node">
<title>u29</title>
<ellipse fill="#ffff77" stroke="black" cx="513.74" cy="-492" rx="216.36" ry="18"/>
<text text-anchor="middle" x="513.74" y="-488.3" font-family="Times,serif" font-size="14.00">Language.Drasil.Printing.Import.ModelExpr</text>
</g>
<!-- u28 -->
<g id="node22" class="node">
<title>u28</title>
<ellipse fill="#ffff77" stroke="black" cx="745.74" cy="-189" rx="193.07" ry="18"/>
<text text-anchor="middle" x="745.74" y="-185.3" font-family="Times,serif" font-size="14.00">Language.Drasil.Printing.Import.Space</text>
</g>
<!-- u29&#45;&gt;u28 -->
<g id="edge50" class="edge">
<title>u29&#45;&gt;u28</title>
<path fill="none" stroke="black" d="M516.52,-473.66C522.41,-441.24 538.58,-370.35 573.74,-322 608.78,-273.8 666.26,-234.74 705.02,-211.94"/>
<polygon fill="black" stroke="black" points="707.05,-214.81 713.96,-206.78 703.55,-208.75 707.05,-214.81"/>
</g>
<!-- u29&#45;&gt;u24 -->
<g id="edge49" class="edge">
<title>u29&#45;&gt;u24</title>
<path fill="none" stroke="black" d="M544.07,-474.08C593.04,-446.78 689.47,-393.01 743.57,-362.84"/>
<polygon fill="black" stroke="black" points="745.48,-365.78 752.51,-357.85 742.08,-359.67 745.48,-365.78"/>
</g>
<!-- u23 -->
<g id="node27" class="node">
<title>u23</title>
<ellipse fill="#ffff77" stroke="black" cx="1196.74" cy="-340" rx="196.07" ry="18"/>
<text text-anchor="middle" x="1196.74" y="-336.3" font-family="Times,serif" font-size="14.00">Language.Drasil.Printing.Import.Literal</text>
</g>
<!-- u29&#45;&gt;u23 -->
<g id="edge48" class="edge">
<title>u29&#45;&gt;u23</title>
<path fill="none" stroke="black" d="M586.51,-475.02C714.86,-446.83 980.57,-388.47 1115.02,-358.95"/>
<polygon fill="black" stroke="black" points="1115.84,-362.35 1124.86,-356.79 1114.34,-355.51 1115.84,-362.35"/>
</g>
<!-- u28&#45;&gt;u31 -->
<g id="edge47" class="edge">
<title>u28&#45;&gt;u31</title>
<path fill="none" stroke="black" d="M795.73,-171.49C879.73,-143.73 1048.76,-87.89 1138.18,-58.34"/>
<polygon fill="black" stroke="black" points="1139.5,-61.6 1147.9,-55.14 1137.3,-54.95 1139.5,-61.6"/>
</g>
<!-- u28&#45;&gt;u30 -->
<g id="edge46" class="edge">
<title>u28&#45;&gt;u30</title>
<path fill="none" stroke="black" d="M749.18,-170.91C754.33,-145.33 764.09,-96.86 770.23,-66.33"/>
<polygon fill="black" stroke="black" points="773.7,-66.85 772.24,-56.35 766.84,-65.46 773.7,-66.85"/>
</g>
<!-- u27&#45;&gt;u19 -->
<g id="edge43" class="edge">
<title>u27&#45;&gt;u19</title>
<path fill="none" stroke="black" d="M816.39,-776.49C899.62,-748.81 1066.86,-693.18 1155.87,-663.58"/>
<polygon fill="black" stroke="black" points="1157.16,-666.84 1165.54,-660.36 1154.95,-660.2 1157.16,-666.84"/>
</g>
<!-- u27&#45;&gt;u26 -->
<g id="edge45" class="edge">
<title>u27&#45;&gt;u26</title>
<path fill="none" stroke="black" d="M737.72,-775.91C691.68,-748.79 601.93,-695.94 551.13,-666.02"/>
<polygon fill="black" stroke="black" points="552.81,-662.95 542.42,-660.89 549.26,-668.98 552.81,-662.95"/>
</g>
<!-- u22 -->
<g id="node28" class="node">
<title>u22</title>
<ellipse fill="#ffff77" stroke="black" cx="959.74" cy="-492" rx="211.46" ry="18"/>
<text text-anchor="middle" x="959.74" y="-488.3" font-family="Times,serif" font-size="14.00">Language.Drasil.Printing.Import.CodeExpr</text>
</g>
<!-- u27&#45;&gt;u22 -->
<g id="edge44" class="edge">
<title>u27&#45;&gt;u22</title>
<path fill="none" stroke="black" d="M777.67,-776.01C809.9,-725.9 904.74,-578.5 943.22,-518.67"/>
<polygon fill="black" stroke="black" points="946.22,-520.48 948.69,-510.17 940.33,-516.69 946.22,-520.48"/>
</g>
<!-- u26&#45;&gt;u29 -->
<g id="edge42" class="edge">
<title>u26&#45;&gt;u29</title>
<path fill="none" stroke="black" d="M513.74,-624.91C513.74,-599.45 513.74,-551.28 513.74,-520.74"/>
<polygon fill="black" stroke="black" points="517.24,-520.35 513.74,-510.35 510.24,-520.35 517.24,-520.35"/>
</g>
<!-- u25 -->
<g id="node25" class="node">
<title>u25</title>
<ellipse fill="#ffff77" stroke="black" cx="1196.74" cy="-189" rx="202.26" ry="18"/>
<text text-anchor="middle" x="1196.74" y="-185.3" font-family="Times,serif" font-size="14.00">Language.Drasil.Printing.Import.Helpers</text>
</g>
<!-- u25&#45;&gt;u31 -->
<g id="edge41" class="edge">
<title>u25&#45;&gt;u31</title>
<path fill="none" stroke="black" d="M1196.74,-170.91C1196.74,-145.45 1196.74,-97.28 1196.74,-66.74"/>
<polygon fill="black" stroke="black" points="1200.24,-66.35 1196.74,-56.35 1193.24,-66.35 1200.24,-66.35"/>
</g>
<!-- u25&#45;&gt;u30 -->
<g id="edge40" class="edge">
<title>u25&#45;&gt;u30</title>
<path fill="none" stroke="black" d="M1150.07,-171.49C1072.33,-143.97 916.57,-88.84 832.56,-59.11"/>
<polygon fill="black" stroke="black" points="833.53,-55.74 822.93,-55.7 831.19,-62.34 833.53,-55.74"/>
</g>
<!-- u24&#45;&gt;u31 -->
<g id="edge39" class="edge">
<title>u24&#45;&gt;u31</title>
<path fill="none" stroke="black" d="M805.1,-322.06C837.28,-297.48 898.22,-250.13 947.74,-207 965.28,-191.72 967.34,-185.24 985.74,-171 1042.04,-127.42 1113.28,-85.25 1156.9,-60.74"/>
<polygon fill="black" stroke="black" points="1158.76,-63.71 1165.78,-55.78 1155.34,-57.6 1158.76,-63.71"/>
</g>
<!-- u23&#45;&gt;u25 -->
<g id="edge38" class="edge">
<title>u23&#45;&gt;u25</title>
<path fill="none" stroke="black" d="M1196.74,-321.91C1196.74,-296.45 1196.74,-248.28 1196.74,-217.74"/>
<polygon fill="black" stroke="black" points="1200.24,-217.35 1196.74,-207.35 1193.24,-217.35 1200.24,-217.35"/>
</g>
<!-- u22&#45;&gt;u24 -->
<g id="edge37" class="edge">
<title>u22&#45;&gt;u24</title>
<path fill="none" stroke="black" d="M939.43,-473.79C907.69,-446.89 846.25,-394.83 810.46,-364.49"/>
<polygon fill="black" stroke="black" points="812.7,-361.8 802.8,-358.01 808.17,-367.14 812.7,-361.8"/>
</g>
<!-- u22&#45;&gt;u23 -->
<g id="edge36" class="edge">
<title>u22&#45;&gt;u23</title>
<path fill="none" stroke="black" d="M986.46,-474.08C1029.43,-446.89 1113.87,-393.45 1161.63,-363.22"/>
<polygon fill="black" stroke="black" points="1163.53,-366.16 1170.11,-357.85 1159.79,-360.24 1163.53,-366.16"/>
</g>
<!-- u21&#45;&gt;u24 -->
<g id="edge35" class="edge">
<title>u21&#45;&gt;u24</title>
<path fill="none" stroke="black" d="M1313.45,-475.02C1202.64,-447.04 974.09,-389.32 856.37,-359.59"/>
<polygon fill="black" stroke="black" points="856.92,-356.12 846.37,-357.07 855.21,-362.91 856.92,-356.12"/>
</g>
<!-- u21&#45;&gt;u23 -->
<g id="edge34" class="edge">
<title>u21&#45;&gt;u23</title>
<path fill="none" stroke="black" d="M1356.44,-474.08C1324.3,-447.3 1261.6,-395.06 1225.06,-364.6"/>
<polygon fill="black" stroke="black" points="1227.16,-361.8 1217.24,-358.08 1222.68,-367.17 1227.16,-361.8"/>
</g>
<!-- u11 -->
<g id="node30" class="node">
<title>u11</title>
<ellipse fill="#7777ff" stroke="black" cx="1848.74" cy="-643" rx="141.88" ry="18"/>
<text text-anchor="middle" x="1848.74" y="-639.3" font-family="Times,serif" font-size="14.00">Language.Drasil.TeX.Monad</text>
</g>
<!-- u11&#45;&gt;u18 -->
<g id="edge23" class="edge">
<title>u11&#45;&gt;u18</title>
<path fill="none" stroke="black" d="M1848.74,-624.91C1848.74,-599.45 1848.74,-551.28 1848.74,-520.74"/>
<polygon fill="black" stroke="black" points="1852.24,-520.35 1848.74,-510.35 1845.24,-520.35 1852.24,-520.35"/>
</g>
<!-- u10&#45;&gt;u20 -->
<g id="edge22" class="edge">
<title>u10&#45;&gt;u20</title>
<path fill="none" stroke="black" d="M1263.17,-1079.63C1198.79,-1052.3 1069.57,-997.45 999.17,-967.56"/>
<polygon fill="black" stroke="black" points="1000.21,-964.2 989.64,-963.51 997.47,-970.64 1000.21,-964.2"/>
</g>
<!-- u9 -->
<g id="node32" class="node">
<title>u9</title>
<ellipse fill="#7777ff" stroke="black" cx="1322.74" cy="-946" rx="154.07" ry="18"/>
<text text-anchor="middle" x="1322.74" y="-942.3" font-family="Times,serif" font-size="14.00">Language.Drasil.TeX.Preamble</text>
</g>
<!-- u10&#45;&gt;u9 -->
<g id="edge21" class="edge">
<title>u10&#45;&gt;u9</title>
<path fill="none" stroke="black" d="M1304.15,-1078.91C1307.75,-1053.33 1314.58,-1004.86 1318.89,-974.33"/>
<polygon fill="black" stroke="black" points="1322.36,-974.74 1320.29,-964.35 1315.43,-973.77 1322.36,-974.74"/>
</g>
<!-- u9&#45;&gt;u19 -->
<g id="edge20" class="edge">
<title>u9&#45;&gt;u19</title>
<path fill="none" stroke="black" d="M1307.38,-928.01C1286.72,-904.08 1250.65,-858.17 1233.74,-812 1216.43,-764.75 1213.78,-705.44 1213.92,-671.41"/>
<polygon fill="black" stroke="black" points="1217.42,-671.34 1214.05,-661.3 1210.42,-671.25 1217.42,-671.34"/>
</g>
<!-- u8 -->
<g id="node33" class="node">
<title>u8</title>
<ellipse fill="#7777ff" stroke="black" cx="1764.74" cy="-794" rx="146.47" ry="18"/>
<text text-anchor="middle" x="1764.74" y="-790.3" font-family="Times,serif" font-size="14.00">Language.Drasil.TeX.Helpers</text>
</g>
<!-- u9&#45;&gt;u8 -->
<g id="edge19" class="edge">
<title>u9&#45;&gt;u8</title>
<path fill="none" stroke="black" d="M1370.46,-928.8C1452.44,-900.98 1619.65,-844.24 1707.66,-814.37"/>
<polygon fill="black" stroke="black" points="1708.87,-817.66 1717.22,-811.13 1706.62,-811.03 1708.87,-817.66"/>
</g>
<!-- u8&#45;&gt;u12 -->
<g id="edge18" class="edge">
<title>u8&#45;&gt;u12</title>
<path fill="none" stroke="black" d="M1742.75,-776.2C1707.69,-749.41 1639.07,-696.98 1599.6,-666.82"/>
<polygon fill="black" stroke="black" points="1601.72,-664.03 1591.65,-660.74 1597.47,-669.59 1601.72,-664.03"/>
</g>
<!-- u8&#45;&gt;u11 -->
<g id="edge17" class="edge">
<title>u8&#45;&gt;u11</title>
<path fill="none" stroke="black" d="M1774.37,-775.91C1788.98,-750 1816.84,-700.59 1834,-670.14"/>
<polygon fill="black" stroke="black" points="1837.09,-671.78 1838.96,-661.35 1831,-668.34 1837.09,-671.78"/>
</g>
</g>
</svg>
