<?xml version="1.0" encoding="UTF-8" standalone="no"?>
<!DOCTYPE svg PUBLIC "-//W3C//DTD SVG 1.1//EN"
 "http://www.w3.org/Graphics/SVG/1.1/DTD/svg11.dtd">
<!-- Generated by graphviz version 2.43.0 (0)
 -->
<!-- Title: G Pages: 1 -->
<svg width="432pt" height="288pt"
 viewBox="0.00 0.00 431.51 288.00" xmlns="http://www.w3.org/2000/svg" xmlns:xlink="http://www.w3.org/1999/xlink">
<g id="graph0" class="graph" transform="scale(7 7) rotate(0) translate(4 2012)">
<title>G</title>
<polygon fill="white" stroke="transparent" points="-4,4 -4,-2012 3016.58,-2012 3016.58,4 -4,4"/>
<!-- u0 -->
<g id="node1" class="node">
<title>u0</title>
<ellipse fill="#bbffbb" stroke="black" cx="1448.24" cy="-1986" rx="87.18" ry="18"/>
<text text-anchor="middle" x="1448.24" y="-1982.3" font-family="Times,serif" font-size="14.00">Language.Drasil</text>
</g>
<!-- u18 -->
<g id="node18" class="node">
<title>u18</title>
<ellipse fill="#ffffbb" stroke="black" cx="2446.24" cy="-1807" rx="145.67" ry="18"/>
<text text-anchor="middle" x="2446.24" y="-1803.3" font-family="Times,serif" font-size="14.00">Language.Drasil.Uncertainty</text>
</g>
<!-- u0&#45;&gt;u18 -->
<g id="edge4" class="edge">
<title>u0&#45;&gt;u18</title>
<path fill="none" stroke="black" d="M1534.31,-1983.1C1719.31,-1978.14 2149.12,-1961.71 2286.24,-1914 2338.31,-1895.89 2389.9,-1856.91 2419.89,-1831.61"/>
<polygon fill="black" stroke="black" points="2422.44,-1834.03 2427.75,-1824.86 2417.88,-1828.71 2422.44,-1834.03"/>
</g>
<!-- u7 -->
<g id="node23" class="node">
<title>u7</title>
<ellipse fill="#ffffbb" stroke="black" cx="1141.24" cy="-1896" rx="137.28" ry="18"/>
<text text-anchor="middle" x="1141.24" y="-1892.3" font-family="Times,serif" font-size="14.00">Language.Drasil.Document</text>
</g>
<!-- u0&#45;&gt;u7 -->
<g id="edge2" class="edge">
<title>u0&#45;&gt;u7</title>
<path fill="none" stroke="black" d="M1399.59,-1971.06C1347.09,-1956.01 1263.24,-1931.97 1205.38,-1915.38"/>
<polygon fill="black" stroke="black" points="1206.18,-1911.98 1195.61,-1912.58 1204.25,-1918.7 1206.18,-1911.98"/>
</g>
<!-- u55 -->
<g id="node26" class="node">
<title>u55</title>
<ellipse fill="#bbbbff" stroke="black" cx="2228.24" cy="-1718" rx="202.26" ry="18"/>
<text text-anchor="middle" x="2228.24" y="-1714.3" font-family="Times,serif" font-size="14.00">Language.Drasil.Chunk.NamedArgument</text>
</g>
<!-- u0&#45;&gt;u55 -->
<g id="edge11" class="edge">
<title>u0&#45;&gt;u55</title>
<path fill="none" stroke="black" d="M1533.25,-1981.81C1722.27,-1972.68 2167.49,-1939.25 2253.24,-1825 2270.7,-1801.74 2258.15,-1768.17 2245.36,-1745.07"/>
<polygon fill="black" stroke="black" points="2248.21,-1743.02 2240.13,-1736.17 2242.18,-1746.57 2248.21,-1743.02"/>
</g>
<!-- u54 -->
<g id="node27" class="node">
<title>u54</title>
<ellipse fill="#bbbbff" stroke="black" cx="1685.24" cy="-1896" rx="209.06" ry="18"/>
<text text-anchor="middle" x="1685.24" y="-1892.3" font-family="Times,serif" font-size="14.00">Language.Drasil.Chunk.UncertainQuantity</text>
</g>
<!-- u0&#45;&gt;u54 -->
<g id="edge10" class="edge">
<title>u0&#45;&gt;u54</title>
<path fill="none" stroke="black" d="M1488.71,-1969.97C1527.92,-1955.41 1587.65,-1933.24 1630.96,-1917.15"/>
<polygon fill="black" stroke="black" points="1632.34,-1920.38 1640.49,-1913.61 1629.9,-1913.81 1632.34,-1920.38"/>
</g>
<!-- u49 -->
<g id="node31" class="node">
<title>u49</title>
<ellipse fill="#bbbbff" stroke="black" cx="1282.24" cy="-1629" rx="135.38" ry="18"/>
<text text-anchor="middle" x="1282.24" y="-1625.3" font-family="Times,serif" font-size="14.00">Language.Drasil.Chunk.Eq</text>
</g>
<!-- u0&#45;&gt;u49 -->
<g id="edge9" class="edge">
<title>u0&#45;&gt;u49</title>
<path fill="none" stroke="black" d="M1440.23,-1967.88C1413.5,-1910.72 1327.21,-1726.18 1294.75,-1656.75"/>
<polygon fill="black" stroke="black" points="1297.77,-1654.94 1290.36,-1647.37 1291.43,-1657.91 1297.77,-1654.94"/>
</g>
<!-- u43 -->
<g id="node37" class="node">
<title>u43</title>
<ellipse fill="#bbbbff" stroke="black" cx="2048.24" cy="-1807" rx="196.07" ry="18"/>
<text text-anchor="middle" x="2048.24" y="-1803.3" font-family="Times,serif" font-size="14.00">Language.Drasil.Chunk.UnitaryConcept</text>
</g>
<!-- u0&#45;&gt;u43 -->
<g id="edge8" class="edge">
<title>u0&#45;&gt;u43</title>
<path fill="none" stroke="black" d="M1534.94,-1983.56C1628.99,-1979.28 1781.94,-1964.29 1903.24,-1914 1950.17,-1894.54 1996.09,-1856.92 2023.28,-1832.13"/>
<polygon fill="black" stroke="black" points="2025.81,-1834.56 2030.77,-1825.2 2021.06,-1829.43 2025.81,-1834.56"/>
</g>
<!-- u42 -->
<g id="node38" class="node">
<title>u42</title>
<ellipse fill="#bbbbff" stroke="black" cx="1596.24" cy="-1629" rx="161.37" ry="18"/>
<text text-anchor="middle" x="1596.24" y="-1625.3" font-family="Times,serif" font-size="14.00">Language.Drasil.Chunk.Relation</text>
</g>
<!-- u0&#45;&gt;u42 -->
<g id="edge7" class="edge">
<title>u0&#45;&gt;u42</title>
<path fill="none" stroke="black" d="M1442.3,-1967.78C1431.21,-1932.78 1410.56,-1851.35 1434.24,-1789 1457.51,-1727.73 1518.91,-1678.97 1559.08,-1652.32"/>
<polygon fill="black" stroke="black" points="1561.08,-1655.2 1567.55,-1646.81 1557.26,-1649.32 1561.08,-1655.2"/>
</g>
<!-- u1 -->
<g id="node45" class="node">
<title>u1</title>
<ellipse fill="#bbffff" stroke="black" cx="916.24" cy="-1718" rx="174.67" ry="18"/>
<text text-anchor="middle" x="916.24" y="-1714.3" font-family="Times,serif" font-size="14.00">Language.Drasil.Classes.Document</text>
</g>
<!-- u0&#45;&gt;u1 -->
<g id="edge1" class="edge">
<title>u0&#45;&gt;u1</title>
<path fill="none" stroke="black" d="M1363.65,-1981.53C1248.62,-1975.21 1050.82,-1958.1 995.24,-1914 942.35,-1872.04 924.65,-1789.02 918.9,-1746.1"/>
<polygon fill="black" stroke="black" points="922.36,-1745.61 917.68,-1736.1 915.42,-1746.45 922.36,-1745.61"/>
</g>
<!-- u29 -->
<g id="node48" class="node">
<title>u29</title>
<ellipse fill="#77ff77" stroke="black" cx="1972.24" cy="-1093" rx="196.87" ry="18"/>
<text text-anchor="middle" x="1972.24" y="-1089.3" font-family="Times,serif" font-size="14.00">Language.Drasil.Development.Sentence</text>
</g>
<!-- u0&#45;&gt;u29 -->
<g id="edge6" class="edge">
<title>u0&#45;&gt;u29</title>
<path fill="none" stroke="black" d="M1444.99,-1967.84C1439.09,-1931.52 1430.39,-1845.58 1467.24,-1789 1572.6,-1627.2 1823.24,-1733.08 1823.24,-1540 1823.24,-1540 1823.24,-1540 1823.24,-1271 1823.24,-1201.9 1890.52,-1145.74 1934.66,-1116.33"/>
<polygon fill="black" stroke="black" points="1936.68,-1119.2 1943.16,-1110.81 1932.87,-1113.33 1936.68,-1119.2"/>
</g>
<!-- u10 -->
<g id="node56" class="node">
<title>u10</title>
<ellipse fill="#ff77ff" stroke="black" cx="647.24" cy="-1004" rx="170.07" ry="18"/>
<text text-anchor="middle" x="647.24" y="-1000.3" font-family="Times,serif" font-size="14.00">Language.Drasil.Sentence.Extract</text>
</g>
<!-- u0&#45;&gt;u10 -->
<g id="edge3" class="edge">
<title>u0&#45;&gt;u10</title>
<path fill="none" stroke="black" d="M1361.38,-1984.01C1154.01,-1979.31 647.24,-1953 647.24,-1808 647.24,-1808 647.24,-1808 647.24,-1181 647.24,-1128.61 647.24,-1067.46 647.24,-1032.77"/>
<polygon fill="black" stroke="black" points="650.74,-1032.49 647.24,-1022.49 643.74,-1032.49 650.74,-1032.49"/>
</g>
<!-- u23 -->
<g id="node57" class="node">
<title>u23</title>
<ellipse fill="#33ff33" stroke="black" cx="2590.24" cy="-1896" rx="163.57" ry="18"/>
<text text-anchor="middle" x="2590.24" y="-1892.3" font-family="Times,serif" font-size="14.00">Language.Drasil.Symbol.Helpers</text>
</g>
<!-- u0&#45;&gt;u23 -->
<g id="edge5" class="edge">
<title>u0&#45;&gt;u23</title>
<path fill="none" stroke="black" d="M1528.61,-1979.06C1690.41,-1967.08 2066.98,-1938.99 2383.24,-1914 2406.12,-1912.19 2430.42,-1910.23 2454.02,-1908.31"/>
<polygon fill="black" stroke="black" points="2454.41,-1911.79 2464.09,-1907.48 2453.84,-1904.81 2454.41,-1911.79"/>
</g>
<!-- u58 -->
<g id="node2" class="node">
<title>u58</title>
<ellipse fill="#ffffbb" stroke="black" cx="1479.24" cy="-558" rx="132.68" ry="18"/>
<text text-anchor="middle" x="1479.24" y="-554.3" font-family="Times,serif" font-size="14.00">Language.Drasil.Sentence</text>
</g>
<!-- u25 -->
<g id="node12" class="node">
<title>u25</title>
<ellipse fill="#ffffbb" stroke="black" cx="1479.24" cy="-290" rx="133.48" ry="18"/>
<text text-anchor="middle" x="1479.24" y="-286.3" font-family="Times,serif" font-size="14.00">Language.Drasil.UnitLang</text>
</g>
<!-- u58&#45;&gt;u25 -->
<g id="edge84" class="edge">
<title>u58&#45;&gt;u25</title>
<path fill="none" stroke="black" d="M1479.24,-539.96C1479.24,-495.02 1479.24,-373.03 1479.24,-318.26"/>
<polygon fill="black" stroke="black" points="1482.74,-318.25 1479.24,-308.25 1475.74,-318.25 1482.74,-318.25"/>
</g>
<!-- u19 -->
<g id="node17" class="node">
<title>u19</title>
<ellipse fill="#ffffbb" stroke="black" cx="1077.24" cy="-469" rx="159.47" ry="18"/>
<text text-anchor="middle" x="1077.24" y="-465.3" font-family="Times,serif" font-size="14.00">Language.Drasil.DisplayClasses</text>
</g>
<!-- u58&#45;&gt;u19 -->
<g id="edge83" class="edge">
<title>u58&#45;&gt;u19</title>
<path fill="none" stroke="black" d="M1411.95,-542.44C1341.79,-527.25 1231.85,-503.46 1157.27,-487.32"/>
<polygon fill="black" stroke="black" points="1157.96,-483.89 1147.45,-485.19 1156.48,-490.73 1157.96,-483.89"/>
</g>
<!-- u2 -->
<g id="node44" class="node">
<title>u2</title>
<ellipse fill="#bbffff" stroke="black" cx="2332.24" cy="-469" rx="149.47" ry="18"/>
<text text-anchor="middle" x="2332.24" y="-465.3" font-family="Times,serif" font-size="14.00">Language.Drasil.Classes.Core</text>
</g>
<!-- u58&#45;&gt;u2 -->
<g id="edge82" class="edge">
<title>u58&#45;&gt;u2</title>
<path fill="none" stroke="black" d="M1581.71,-546.55C1740.04,-530.4 2043.46,-499.45 2211.96,-482.27"/>
<polygon fill="black" stroke="black" points="2212.52,-485.73 2222.12,-481.23 2211.81,-478.76 2212.52,-485.73"/>
</g>
<!-- u39 -->
<g id="node3" class="node">
<title>u39</title>
<ellipse fill="#ffffbb" stroke="black" cx="2332.24" cy="-379" rx="121.58" ry="18"/>
<text text-anchor="middle" x="2332.24" y="-375.3" font-family="Times,serif" font-size="14.00">Language.Drasil.Stages</text>
</g>
<!-- u38 -->
<g id="node4" class="node">
<title>u38</title>
<ellipse fill="#ffffbb" stroke="black" cx="2291.24" cy="-647" rx="139.18" ry="18"/>
<text text-anchor="middle" x="2291.24" y="-643.3" font-family="Times,serif" font-size="14.00">Language.Drasil.Constraint</text>
</g>
<!-- u20 -->
<g id="node16" class="node">
<title>u20</title>
<ellipse fill="#ffffbb" stroke="black" cx="1743.24" cy="-290" rx="112.38" ry="18"/>
<text text-anchor="middle" x="1743.24" y="-286.3" font-family="Times,serif" font-size="14.00">Language.Drasil.Expr</text>
</g>
<!-- u38&#45;&gt;u20 -->
<g id="edge54" class="edge">
<title>u38&#45;&gt;u20</title>
<path fill="none" stroke="black" d="M2265.18,-629.12C2175.36,-570.93 1878.69,-378.75 1777.45,-313.16"/>
<polygon fill="black" stroke="black" points="1779.12,-310.07 1768.83,-307.57 1775.31,-315.95 1779.12,-310.07"/>
</g>
<!-- u37 -->
<g id="node5" class="node">
<title>u37</title>
<ellipse fill="#ffffbb" stroke="black" cx="2197.24" cy="-1004" rx="124.58" ry="18"/>
<text text-anchor="middle" x="2197.24" y="-1000.3" font-family="Times,serif" font-size="14.00">Language.Drasil.Classes</text>
</g>
<!-- u37&#45;&gt;u38 -->
<g id="edge52" class="edge">
<title>u37&#45;&gt;u38</title>
<path fill="none" stroke="black" d="M2303.01,-994.4C2387.07,-985.1 2494.91,-966.85 2522.24,-933 2601.87,-834.39 2418.12,-716.88 2332.34,-669.43"/>
<polygon fill="black" stroke="black" points="2333.82,-666.25 2323.37,-664.53 2330.47,-672.4 2333.82,-666.25"/>
</g>
<!-- u34 -->
<g id="node7" class="node">
<title>u34</title>
<ellipse fill="#ffffbb" stroke="black" cx="2329.24" cy="-826" rx="138.38" ry="18"/>
<text text-anchor="middle" x="2329.24" y="-822.3" font-family="Times,serif" font-size="14.00">Language.Drasil.Derivation</text>
</g>
<!-- u37&#45;&gt;u34 -->
<g id="edge50" class="edge">
<title>u37&#45;&gt;u34</title>
<path fill="none" stroke="black" d="M2298.08,-993.37C2377.09,-983.5 2477.76,-964.96 2503.24,-933 2536.88,-890.79 2468.6,-861.24 2407.95,-844.26"/>
<polygon fill="black" stroke="black" points="2408.87,-840.88 2398.3,-841.64 2407.03,-847.63 2408.87,-840.88"/>
</g>
<!-- u11 -->
<g id="node21" class="node">
<title>u11</title>
<ellipse fill="#ffffbb" stroke="black" cx="1953.24" cy="-915" rx="184.67" ry="18"/>
<text text-anchor="middle" x="1953.24" y="-911.3" font-family="Times,serif" font-size="14.00">Language.Drasil.DecoratedReference</text>
</g>
<!-- u37&#45;&gt;u11 -->
<g id="edge49" class="edge">
<title>u37&#45;&gt;u11</title>
<path fill="none" stroke="black" d="M2152.77,-987.14C2112.39,-972.75 2052.65,-951.45 2009.07,-935.91"/>
<polygon fill="black" stroke="black" points="2010.07,-932.55 1999.48,-932.49 2007.72,-939.14 2010.07,-932.55"/>
</g>
<!-- u57 -->
<g id="node55" class="node">
<title>u57</title>
<ellipse fill="#77ffff" stroke="black" cx="1579.24" cy="-915" rx="171.67" ry="18"/>
<text text-anchor="middle" x="1579.24" y="-911.3" font-family="Times,serif" font-size="14.00">Language.Drasil.NounPhrase.Core</text>
</g>
<!-- u37&#45;&gt;u57 -->
<g id="edge53" class="edge">
<title>u37&#45;&gt;u57</title>
<path fill="none" stroke="black" d="M2111.31,-990.9C2000.5,-975.3 1807.74,-948.17 1687.17,-931.19"/>
<polygon fill="black" stroke="black" points="1687.56,-927.72 1677.17,-929.79 1686.59,-934.65 1687.56,-927.72"/>
</g>
<!-- u35 -->
<g id="node59" class="node">
<title>u35</title>
<ellipse fill="#3333ff" stroke="black" cx="2325.24" cy="-915" rx="168.97" ry="18"/>
<text text-anchor="middle" x="2325.24" y="-911.3" font-family="Times,serif" font-size="14.00">Language.Drasil.Uncertainty.Core</text>
</g>
<!-- u37&#45;&gt;u35 -->
<g id="edge51" class="edge">
<title>u37&#45;&gt;u35</title>
<path fill="none" stroke="black" d="M2221.92,-986.23C2241.8,-972.71 2269.95,-953.58 2291.84,-938.7"/>
<polygon fill="black" stroke="black" points="2293.9,-941.54 2300.2,-933.02 2289.96,-935.75 2293.9,-941.54"/>
</g>
<!-- u36 -->
<g id="node6" class="node">
<title>u36</title>
<ellipse fill="#ffffbb" stroke="black" cx="1743.24" cy="-201" rx="117.78" ry="18"/>
<text text-anchor="middle" x="1743.24" y="-197.3" font-family="Times,serif" font-size="14.00">Language.Drasil.Space</text>
</g>
<!-- u26 -->
<g id="node11" class="node">
<title>u26</title>
<ellipse fill="#ffffbb" stroke="black" cx="1670.24" cy="-112" rx="124.28" ry="18"/>
<text text-anchor="middle" x="1670.24" y="-108.3" font-family="Times,serif" font-size="14.00">Language.Drasil.Symbol</text>
</g>
<!-- u36&#45;&gt;u26 -->
<g id="edge48" class="edge">
<title>u36&#45;&gt;u26</title>
<path fill="none" stroke="black" d="M1728.82,-182.81C1718.12,-170.06 1703.37,-152.48 1691.34,-138.15"/>
<polygon fill="black" stroke="black" points="1693.74,-135.56 1684.63,-130.15 1688.38,-140.06 1693.74,-135.56"/>
</g>
<!-- u34&#45;&gt;u58 -->
<g id="edge47" class="edge">
<title>u34&#45;&gt;u58</title>
<path fill="none" stroke="black" d="M2278.61,-809.16C2130.45,-762.79 1698.13,-627.5 1538.97,-577.69"/>
<polygon fill="black" stroke="black" points="1539.92,-574.32 1529.33,-574.68 1537.83,-581 1539.92,-574.32"/>
</g>
<!-- u33 -->
<g id="node8" class="node">
<title>u33</title>
<ellipse fill="#ffffbb" stroke="black" cx="2590.24" cy="-1986" rx="145.67" ry="18"/>
<text text-anchor="middle" x="2590.24" y="-1982.3" font-family="Times,serif" font-size="14.00">Language.Drasil.ShortHands</text>
</g>
<!-- u33&#45;&gt;u23 -->
<g id="edge46" class="edge">
<title>u33&#45;&gt;u23</title>
<path fill="none" stroke="black" d="M2590.24,-1967.61C2590.24,-1955.24 2590.24,-1938.37 2590.24,-1924.22"/>
<polygon fill="black" stroke="black" points="2593.74,-1924.05 2590.24,-1914.05 2586.74,-1924.05 2593.74,-1924.05"/>
</g>
<!-- u28 -->
<g id="node9" class="node">
<title>u28</title>
<ellipse fill="#ffffbb" stroke="black" cx="1394.24" cy="-647" rx="142.97" ry="18"/>
<text text-anchor="middle" x="1394.24" y="-643.3" font-family="Times,serif" font-size="14.00">Language.Drasil.ShortName</text>
</g>
<!-- u28&#45;&gt;u58 -->
<g id="edge40" class="edge">
<title>u28&#45;&gt;u58</title>
<path fill="none" stroke="black" d="M1411.03,-628.81C1423.72,-615.82 1441.31,-597.82 1455.45,-583.35"/>
<polygon fill="black" stroke="black" points="1458,-585.75 1462.48,-576.15 1452.99,-580.86 1458,-585.75"/>
</g>
<!-- u27 -->
<g id="node10" class="node">
<title>u27</title>
<ellipse fill="#ffffbb" stroke="black" cx="1581.24" cy="-1004" rx="146.77" ry="18"/>
<text text-anchor="middle" x="1581.24" y="-1000.3" font-family="Times,serif" font-size="14.00">Language.Drasil.NounPhrase</text>
</g>
<!-- u27&#45;&gt;u57 -->
<g id="edge39" class="edge">
<title>u27&#45;&gt;u57</title>
<path fill="none" stroke="black" d="M1580.84,-985.81C1580.56,-973.66 1580.18,-957.11 1579.86,-943.18"/>
<polygon fill="black" stroke="black" points="1583.36,-943.07 1579.63,-933.15 1576.36,-943.23 1583.36,-943.07"/>
</g>
<!-- u6 -->
<g id="node24" class="node">
<title>u6</title>
<ellipse fill="#ffffbb" stroke="black" cx="1670.24" cy="-22" rx="128.08" ry="18"/>
<text text-anchor="middle" x="1670.24" y="-18.3" font-family="Times,serif" font-size="14.00">Language.Drasil.Unicode</text>
</g>
<!-- u26&#45;&gt;u6 -->
<g id="edge38" class="edge">
<title>u26&#45;&gt;u6</title>
<path fill="none" stroke="black" d="M1670.24,-93.61C1670.24,-81.24 1670.24,-64.37 1670.24,-50.22"/>
<polygon fill="black" stroke="black" points="1673.74,-50.05 1670.24,-40.05 1666.74,-50.05 1673.74,-50.05"/>
</g>
<!-- u25&#45;&gt;u26 -->
<g id="edge37" class="edge">
<title>u25&#45;&gt;u26</title>
<path fill="none" stroke="black" d="M1506.6,-272.21C1527.25,-258.95 1555.77,-239.34 1578.24,-219 1605.95,-193.91 1633.49,-160.83 1651.11,-138.34"/>
<polygon fill="black" stroke="black" points="1653.99,-140.33 1657.35,-130.28 1648.46,-136.04 1653.99,-140.33"/>
</g>
<!-- u24 -->
<g id="node13" class="node">
<title>u24</title>
<ellipse fill="#ffffbb" stroke="black" cx="1239.24" cy="-1093" rx="111.58" ry="18"/>
<text text-anchor="middle" x="1239.24" y="-1089.3" font-family="Times,serif" font-size="14.00">Language.Drasil.Misc</text>
</g>
<!-- u22 -->
<g id="node14" class="node">
<title>u22</title>
<ellipse fill="#ffffbb" stroke="black" cx="1445.24" cy="-201" rx="124.28" ry="18"/>
<text text-anchor="middle" x="1445.24" y="-197.3" font-family="Times,serif" font-size="14.00">Language.Drasil.Display</text>
</g>
<!-- u22&#45;&gt;u26 -->
<g id="edge35" class="edge">
<title>u22&#45;&gt;u26</title>
<path fill="none" stroke="black" d="M1486.77,-183.94C1524.07,-169.52 1578.97,-148.29 1618.99,-132.82"/>
<polygon fill="black" stroke="black" points="1620.51,-135.98 1628.57,-129.11 1617.98,-129.45 1620.51,-135.98"/>
</g>
<!-- u21 -->
<g id="node15" class="node">
<title>u21</title>
<ellipse fill="#ffffbb" stroke="black" cx="120.24" cy="-915" rx="120.48" ry="18"/>
<text text-anchor="middle" x="120.24" y="-911.3" font-family="Times,serif" font-size="14.00">Language.Drasil.People</text>
</g>
<!-- u20&#45;&gt;u36 -->
<g id="edge34" class="edge">
<title>u20&#45;&gt;u36</title>
<path fill="none" stroke="black" d="M1743.24,-271.81C1743.24,-259.66 1743.24,-243.11 1743.24,-229.18"/>
<polygon fill="black" stroke="black" points="1746.74,-229.15 1743.24,-219.15 1739.74,-229.15 1746.74,-229.15"/>
</g>
<!-- u12 -->
<g id="node20" class="node">
<title>u12</title>
<ellipse fill="#ffffbb" stroke="black" cx="2001.24" cy="-201" rx="108.58" ry="18"/>
<text text-anchor="middle" x="2001.24" y="-197.3" font-family="Times,serif" font-size="14.00">Language.Drasil.UID</text>
</g>
<!-- u20&#45;&gt;u12 -->
<g id="edge33" class="edge">
<title>u20&#45;&gt;u12</title>
<path fill="none" stroke="black" d="M1789.07,-273.55C1832.87,-258.78 1898.97,-236.49 1945.73,-220.72"/>
<polygon fill="black" stroke="black" points="1947.05,-223.97 1955.4,-217.46 1944.81,-217.33 1947.05,-223.97"/>
</g>
<!-- u9 -->
<g id="node22" class="node">
<title>u9</title>
<ellipse fill="#ffffbb" stroke="black" cx="981.24" cy="-379" rx="146.77" ry="18"/>
<text text-anchor="middle" x="981.24" y="-375.3" font-family="Times,serif" font-size="14.00">Language.Drasil.DisplayExpr</text>
</g>
<!-- u19&#45;&gt;u9 -->
<g id="edge32" class="edge">
<title>u19&#45;&gt;u9</title>
<path fill="none" stroke="black" d="M1058.73,-451.03C1044.12,-437.64 1023.56,-418.8 1007.29,-403.88"/>
<polygon fill="black" stroke="black" points="1009.43,-401.09 999.69,-396.92 1004.7,-406.25 1009.43,-401.09"/>
</g>
<!-- u18&#45;&gt;u37 -->
<g id="edge31" class="edge">
<title>u18&#45;&gt;u37</title>
<path fill="none" stroke="black" d="M2448.22,-1788.54C2451.63,-1756.95 2458.24,-1688.19 2458.24,-1630 2458.24,-1630 2458.24,-1630 2458.24,-1181 2458.24,-1091.12 2350.52,-1044.08 2273.48,-1021.94"/>
<polygon fill="black" stroke="black" points="2274.35,-1018.55 2263.78,-1019.23 2272.47,-1025.29 2274.35,-1018.55"/>
</g>
<!-- u13 -->
<g id="node19" class="node">
<title>u13</title>
<ellipse fill="#ffffbb" stroke="black" cx="826.24" cy="-1093" rx="151.37" ry="18"/>
<text text-anchor="middle" x="826.24" y="-1089.3" font-family="Times,serif" font-size="14.00">Language.Drasil.Development</text>
</g>
<!-- u13&#45;&gt;u27 -->
<g id="edge26" class="edge">
<title>u13&#45;&gt;u27</title>
<path fill="none" stroke="black" d="M930.82,-1079.95C1071.97,-1063.68 1322.46,-1034.82 1467.95,-1018.05"/>
<polygon fill="black" stroke="black" points="1468.71,-1021.49 1478.24,-1016.87 1467.91,-1014.54 1468.71,-1021.49"/>
</g>
<!-- u15 -->
<g id="node52" class="node">
<title>u15</title>
<ellipse fill="#7777ff" stroke="black" cx="881.24" cy="-736" rx="167.87" ry="18"/>
<text text-anchor="middle" x="881.24" y="-732.3" font-family="Times,serif" font-size="14.00">Language.Drasil.Expr.Precedence</text>
</g>
<!-- u13&#45;&gt;u15 -->
<g id="edge25" class="edge">
<title>u13&#45;&gt;u15</title>
<path fill="none" stroke="black" d="M827.91,-1074.94C832.37,-1030.66 845.53,-908.5 864.24,-808 866.97,-793.35 870.77,-777.18 874.09,-763.98"/>
<polygon fill="black" stroke="black" points="877.53,-764.67 876.62,-754.11 870.75,-762.93 877.53,-764.67"/>
</g>
<!-- u13&#45;&gt;u10 -->
<g id="edge24" class="edge">
<title>u13&#45;&gt;u10</title>
<path fill="none" stroke="black" d="M792.15,-1075.43C763.38,-1061.45 722.01,-1041.34 690.83,-1026.19"/>
<polygon fill="black" stroke="black" points="692.03,-1022.88 681.51,-1021.66 688.97,-1029.17 692.03,-1022.88"/>
</g>
<!-- u5 -->
<g id="node25" class="node">
<title>u5</title>
<ellipse fill="#ffffbb" stroke="black" cx="1387.24" cy="-826" rx="136.48" ry="18"/>
<text text-anchor="middle" x="1387.24" y="-822.3" font-family="Times,serif" font-size="14.00">Language.Drasil.Reference</text>
</g>
<!-- u11&#45;&gt;u5 -->
<g id="edge23" class="edge">
<title>u11&#45;&gt;u5</title>
<path fill="none" stroke="black" d="M1858.82,-899.49C1754.46,-883.45 1587.32,-857.75 1482.59,-841.66"/>
<polygon fill="black" stroke="black" points="1483.07,-838.19 1472.65,-840.13 1482,-845.11 1483.07,-838.19"/>
</g>
<!-- u9&#45;&gt;u20 -->
<g id="edge20" class="edge">
<title>u9&#45;&gt;u20</title>
<path fill="none" stroke="black" d="M1090.92,-367C1218.47,-353.97 1435.31,-331.12 1621.24,-308 1631.37,-306.74 1641.97,-305.36 1652.5,-303.95"/>
<polygon fill="black" stroke="black" points="1653.13,-307.39 1662.57,-302.58 1652.19,-300.46 1653.13,-307.39"/>
</g>
<!-- u56 -->
<g id="node49" class="node">
<title>u56</title>
<ellipse fill="#ffff77" stroke="black" cx="1233.24" cy="-1272" rx="161.67" ry="18"/>
<text text-anchor="middle" x="1233.24" y="-1268.3" font-family="Times,serif" font-size="14.00">Language.Drasil.Document.Core</text>
</g>
<!-- u7&#45;&gt;u56 -->
<g id="edge19" class="edge">
<title>u7&#45;&gt;u56</title>
<path fill="none" stroke="black" d="M1137.61,-1877.6C1131.36,-1846.12 1119.24,-1777.51 1119.24,-1719 1119.24,-1719 1119.24,-1719 1119.24,-1449 1119.24,-1386.14 1171.1,-1328.01 1204.86,-1296.83"/>
<polygon fill="black" stroke="black" points="1207.51,-1299.15 1212.59,-1289.86 1202.82,-1293.95 1207.51,-1299.15"/>
</g>
<!-- u4 -->
<g id="node42" class="node">
<title>u4</title>
<ellipse fill="#bbffff" stroke="black" cx="1387.24" cy="-736" rx="155.17" ry="18"/>
<text text-anchor="middle" x="1387.24" y="-732.3" font-family="Times,serif" font-size="14.00">Language.Drasil.Classes.Core2</text>
</g>
<!-- u5&#45;&gt;u4 -->
<g id="edge18" class="edge">
<title>u5&#45;&gt;u4</title>
<path fill="none" stroke="black" d="M1387.24,-807.61C1387.24,-795.24 1387.24,-778.37 1387.24,-764.22"/>
<polygon fill="black" stroke="black" points="1390.74,-764.05 1387.24,-754.05 1383.74,-764.05 1390.74,-764.05"/>
</g>
<!-- u48 -->
<g id="node32" class="node">
<title>u48</title>
<ellipse fill="#bbbbff" stroke="black" cx="2014.24" cy="-1539" rx="163.27" ry="18"/>
<text text-anchor="middle" x="2014.24" y="-1535.3" font-family="Times,serif" font-size="14.00">Language.Drasil.Chunk.Quantity</text>
</g>
<!-- u55&#45;&gt;u48 -->
<g id="edge78" class="edge">
<title>u55&#45;&gt;u48</title>
<path fill="none" stroke="black" d="M2223.81,-1699.73C2217.1,-1676.7 2202.29,-1635.96 2176.24,-1611 2151.13,-1586.95 2116.53,-1570.28 2085.76,-1559.17"/>
<polygon fill="black" stroke="black" points="2086.51,-1555.73 2075.92,-1555.76 2084.22,-1562.34 2086.51,-1555.73"/>
</g>
<!-- u45 -->
<g id="node35" class="node">
<title>u45</title>
<ellipse fill="#bbbbff" stroke="black" cx="1655.24" cy="-1807" rx="178.97" ry="18"/>
<text text-anchor="middle" x="1655.24" y="-1803.3" font-family="Times,serif" font-size="14.00">Language.Drasil.Chunk.Constrained</text>
</g>
<!-- u54&#45;&gt;u45 -->
<g id="edge77" class="edge">
<title>u54&#45;&gt;u45</title>
<path fill="none" stroke="black" d="M1679.31,-1877.81C1675.08,-1865.54 1669.3,-1848.79 1664.47,-1834.77"/>
<polygon fill="black" stroke="black" points="1667.72,-1833.47 1661.15,-1825.15 1661.11,-1835.75 1667.72,-1833.47"/>
</g>
<!-- u53 -->
<g id="node28" class="node">
<title>u53</title>
<ellipse fill="#bbbbff" stroke="black" cx="1590.24" cy="-1182" rx="183.07" ry="18"/>
<text text-anchor="middle" x="1590.24" y="-1178.3" font-family="Times,serif" font-size="14.00">Language.Drasil.Chunk.CommonIdea</text>
</g>
<!-- u53&#45;&gt;u24 -->
<g id="edge75" class="edge">
<title>u53&#45;&gt;u24</title>
<path fill="none" stroke="black" d="M1525.86,-1165.04C1463.87,-1149.68 1370.45,-1126.52 1307.26,-1110.86"/>
<polygon fill="black" stroke="black" points="1307.93,-1107.42 1297.38,-1108.41 1306.25,-1114.22 1307.93,-1107.42"/>
</g>
<!-- u47 -->
<g id="node33" class="node">
<title>u47</title>
<ellipse fill="#bbbbff" stroke="black" cx="1582.24" cy="-1093" rx="175.47" ry="18"/>
<text text-anchor="middle" x="1582.24" y="-1089.3" font-family="Times,serif" font-size="14.00">Language.Drasil.Chunk.NamedIdea</text>
</g>
<!-- u53&#45;&gt;u47 -->
<g id="edge76" class="edge">
<title>u53&#45;&gt;u47</title>
<path fill="none" stroke="black" d="M1588.66,-1163.81C1587.54,-1151.66 1586.02,-1135.11 1584.74,-1121.18"/>
<polygon fill="black" stroke="black" points="1588.22,-1120.79 1583.82,-1111.15 1581.25,-1121.43 1588.22,-1120.79"/>
</g>
<!-- u52 -->
<g id="node29" class="node">
<title>u52</title>
<ellipse fill="#bbbbff" stroke="black" cx="1785.24" cy="-1718" rx="151.37" ry="18"/>
<text text-anchor="middle" x="1785.24" y="-1714.3" font-family="Times,serif" font-size="14.00">Language.Drasil.Chunk.Unital</text>
</g>
<!-- u46 -->
<g id="node34" class="node">
<title>u46</title>
<ellipse fill="#bbbbff" stroke="black" cx="2009.24" cy="-1629" rx="157.87" ry="18"/>
<text text-anchor="middle" x="2009.24" y="-1625.3" font-family="Times,serif" font-size="14.00">Language.Drasil.Chunk.Unitary</text>
</g>
<!-- u52&#45;&gt;u46 -->
<g id="edge74" class="edge">
<title>u52&#45;&gt;u46</title>
<path fill="none" stroke="black" d="M1827.37,-1700.64C1864.17,-1686.34 1917.73,-1665.54 1957.2,-1650.21"/>
<polygon fill="black" stroke="black" points="1958.86,-1653.32 1966.92,-1646.44 1956.33,-1646.8 1958.86,-1653.32"/>
</g>
<!-- u40 -->
<g id="node40" class="node">
<title>u40</title>
<ellipse fill="#bbbbff" stroke="black" cx="1597.24" cy="-1539" rx="198.47" ry="18"/>
<text text-anchor="middle" x="1597.24" y="-1535.3" font-family="Times,serif" font-size="14.00">Language.Drasil.Chunk.DefinedQuantity</text>
</g>
<!-- u52&#45;&gt;u40 -->
<g id="edge73" class="edge">
<title>u52&#45;&gt;u40</title>
<path fill="none" stroke="black" d="M1786.86,-1699.94C1788.07,-1677.15 1786.81,-1636.68 1766.24,-1611 1746.05,-1585.78 1715.29,-1569.4 1685.53,-1558.81"/>
<polygon fill="black" stroke="black" points="1686.51,-1555.45 1675.92,-1555.57 1684.28,-1562.08 1686.51,-1555.45"/>
</g>
<!-- u51 -->
<g id="node30" class="node">
<title>u51</title>
<ellipse fill="#bbbbff" stroke="black" cx="1192.24" cy="-1182" rx="159.47" ry="18"/>
<text text-anchor="middle" x="1192.24" y="-1178.3" font-family="Times,serif" font-size="14.00">Language.Drasil.Chunk.Citation</text>
</g>
<!-- u51&#45;&gt;u24 -->
<g id="edge72" class="edge">
<title>u51&#45;&gt;u24</title>
<path fill="none" stroke="black" d="M1201.53,-1163.81C1208.28,-1151.3 1217.56,-1134.14 1225.22,-1119.96"/>
<polygon fill="black" stroke="black" points="1228.3,-1121.61 1229.97,-1111.15 1222.14,-1118.29 1228.3,-1121.61"/>
</g>
<!-- u51&#45;&gt;u4 -->
<g id="edge71" class="edge">
<title>u51&#45;&gt;u4</title>
<path fill="none" stroke="black" d="M1165.35,-1164.11C1148.34,-1151.74 1127.82,-1133.25 1118.24,-1111 1111.91,-1096.3 1114.79,-1090.62 1118.24,-1075 1146.46,-947.24 1150.68,-901.46 1242.24,-808 1264.97,-784.79 1296.84,-768.05 1324.91,-756.67"/>
<polygon fill="black" stroke="black" points="1326.23,-759.91 1334.27,-753.01 1323.68,-753.39 1326.23,-759.91"/>
</g>
<!-- u3 -->
<g id="node43" class="node">
<title>u3</title>
<ellipse fill="#bbffff" stroke="black" cx="378.24" cy="-1093" rx="169.77" ry="18"/>
<text text-anchor="middle" x="378.24" y="-1089.3" font-family="Times,serif" font-size="14.00">Language.Drasil.Classes.Citations</text>
</g>
<!-- u51&#45;&gt;u3 -->
<g id="edge70" class="edge">
<title>u51&#45;&gt;u3</title>
<path fill="none" stroke="black" d="M1080.76,-1169.09C929.72,-1152.94 660.87,-1124.21 503.18,-1107.35"/>
<polygon fill="black" stroke="black" points="503.27,-1103.84 492.96,-1106.26 502.53,-1110.8 503.27,-1103.84"/>
</g>
<!-- u49&#45;&gt;u40 -->
<g id="edge68" class="edge">
<title>u49&#45;&gt;u40</title>
<path fill="none" stroke="black" d="M1337.83,-1612.47C1391.26,-1597.54 1472.1,-1574.96 1529.32,-1558.97"/>
<polygon fill="black" stroke="black" points="1530.31,-1562.33 1539,-1556.27 1528.43,-1555.59 1530.31,-1562.33"/>
</g>
<!-- u14 -->
<g id="node53" class="node">
<title>u14</title>
<ellipse fill="#7777ff" stroke="black" cx="1022.24" cy="-826" rx="148.67" ry="18"/>
<text text-anchor="middle" x="1022.24" y="-822.3" font-family="Times,serif" font-size="14.00">Language.Drasil.Expr.Display</text>
</g>
<!-- u49&#45;&gt;u14 -->
<g id="edge67" class="edge">
<title>u49&#45;&gt;u14</title>
<path fill="none" stroke="black" d="M1261.42,-1610.96C1197,-1556.18 1005.24,-1376.83 1005.24,-1183 1005.24,-1183 1005.24,-1183 1005.24,-1003 1005.24,-950.37 1012.86,-889.3 1017.9,-854.69"/>
<polygon fill="black" stroke="black" points="1021.42,-854.84 1019.43,-844.43 1014.49,-853.81 1021.42,-854.84"/>
</g>
<!-- u44 -->
<g id="node36" class="node">
<title>u44</title>
<ellipse fill="#bbbbff" stroke="black" cx="1598.24" cy="-1450" rx="165.17" ry="18"/>
<text text-anchor="middle" x="1598.24" y="-1446.3" font-family="Times,serif" font-size="14.00">Language.Drasil.Chunk.UnitDefn</text>
</g>
<!-- u48&#45;&gt;u44 -->
<g id="edge66" class="edge">
<title>u48&#45;&gt;u44</title>
<path fill="none" stroke="black" d="M1941.78,-1522.85C1869.04,-1507.63 1757.13,-1484.23 1680.95,-1468.3"/>
<polygon fill="black" stroke="black" points="1681.42,-1464.82 1670.92,-1466.2 1679.99,-1471.67 1681.42,-1464.82"/>
</g>
<!-- u17 -->
<g id="node50" class="node">
<title>u17</title>
<ellipse fill="#7777ff" stroke="black" cx="2014.24" cy="-1450" rx="138.38" ry="18"/>
<text text-anchor="middle" x="2014.24" y="-1446.3" font-family="Times,serif" font-size="14.00">Language.Drasil.Expr.Math</text>
</g>
<!-- u48&#45;&gt;u17 -->
<g id="edge65" class="edge">
<title>u48&#45;&gt;u17</title>
<path fill="none" stroke="black" d="M2014.24,-1520.81C2014.24,-1508.66 2014.24,-1492.11 2014.24,-1478.18"/>
<polygon fill="black" stroke="black" points="2017.74,-1478.15 2014.24,-1468.15 2010.74,-1478.15 2017.74,-1478.15"/>
</g>
<!-- u47&#45;&gt;u37 -->
<g id="edge64" class="edge">
<title>u47&#45;&gt;u37</title>
<path fill="none" stroke="black" d="M1680.71,-1078.07C1796.33,-1061.71 1986.81,-1034.77 2101.31,-1018.57"/>
<polygon fill="black" stroke="black" points="2102.06,-1022 2111.47,-1017.13 2101.08,-1015.07 2102.06,-1022"/>
</g>
<!-- u47&#45;&gt;u27 -->
<g id="edge63" class="edge">
<title>u47&#45;&gt;u27</title>
<path fill="none" stroke="black" d="M1582.04,-1074.81C1581.9,-1062.66 1581.71,-1046.11 1581.55,-1032.18"/>
<polygon fill="black" stroke="black" points="1585.05,-1032.11 1581.44,-1022.15 1578.05,-1032.19 1585.05,-1032.11"/>
</g>
<!-- u46&#45;&gt;u48 -->
<g id="edge62" class="edge">
<title>u46&#45;&gt;u48</title>
<path fill="none" stroke="black" d="M2010.23,-1610.61C2010.93,-1598.24 2011.89,-1581.37 2012.69,-1567.22"/>
<polygon fill="black" stroke="black" points="2016.2,-1567.23 2013.27,-1557.05 2009.21,-1566.84 2016.2,-1567.23"/>
</g>
<!-- u45&#45;&gt;u52 -->
<g id="edge61" class="edge">
<title>u45&#45;&gt;u52</title>
<path fill="none" stroke="black" d="M1680.61,-1789.02C1700.84,-1775.49 1729.33,-1756.42 1751.48,-1741.59"/>
<polygon fill="black" stroke="black" points="1753.57,-1744.41 1759.93,-1735.94 1749.67,-1738.59 1753.57,-1744.41"/>
</g>
<!-- u41 -->
<g id="node39" class="node">
<title>u41</title>
<ellipse fill="#bbbbff" stroke="black" cx="1598.24" cy="-1361" rx="160.57" ry="18"/>
<text text-anchor="middle" x="1598.24" y="-1357.3" font-family="Times,serif" font-size="14.00">Language.Drasil.Chunk.Concept</text>
</g>
<!-- u44&#45;&gt;u41 -->
<g id="edge60" class="edge">
<title>u44&#45;&gt;u41</title>
<path fill="none" stroke="black" d="M1598.24,-1431.81C1598.24,-1419.66 1598.24,-1403.11 1598.24,-1389.18"/>
<polygon fill="black" stroke="black" points="1601.74,-1389.15 1598.24,-1379.15 1594.74,-1389.15 1601.74,-1389.15"/>
</g>
<!-- u43&#45;&gt;u46 -->
<g id="edge59" class="edge">
<title>u43&#45;&gt;u46</title>
<path fill="none" stroke="black" d="M2038.61,-1788.76C2031.39,-1774.94 2021.97,-1754.82 2017.24,-1736 2010.66,-1709.82 2008.99,-1678.94 2008.76,-1657.29"/>
<polygon fill="black" stroke="black" points="2012.26,-1657.17 2008.76,-1647.17 2005.26,-1657.18 2012.26,-1657.17"/>
</g>
<!-- u42&#45;&gt;u41 -->
<g id="edge58" class="edge">
<title>u42&#45;&gt;u41</title>
<path fill="none" stroke="black" d="M1486.07,-1615.79C1449.53,-1605.9 1412.53,-1588.26 1390.24,-1557 1365.66,-1522.53 1410.23,-1446.25 1424.24,-1432 1448.75,-1407.06 1483.31,-1390.72 1515.19,-1380.16"/>
<polygon fill="black" stroke="black" points="1516.5,-1383.42 1524.98,-1377.07 1514.39,-1376.75 1516.5,-1383.42"/>
</g>
<!-- u50 -->
<g id="node41" class="node">
<title>u50</title>
<ellipse fill="#ffbbbb" stroke="black" cx="1598.24" cy="-1272" rx="185.47" ry="18"/>
<text text-anchor="middle" x="1598.24" y="-1268.3" font-family="Times,serif" font-size="14.00">Language.Drasil.Chunk.Concept.Core</text>
</g>
<!-- u41&#45;&gt;u50 -->
<g id="edge57" class="edge">
<title>u41&#45;&gt;u50</title>
<path fill="none" stroke="black" d="M1598.24,-1342.81C1598.24,-1330.66 1598.24,-1314.11 1598.24,-1300.18"/>
<polygon fill="black" stroke="black" points="1601.74,-1300.15 1598.24,-1290.15 1594.74,-1300.15 1601.74,-1300.15"/>
</g>
<!-- u40&#45;&gt;u44 -->
<g id="edge56" class="edge">
<title>u40&#45;&gt;u44</title>
<path fill="none" stroke="black" d="M1597.44,-1520.81C1597.58,-1508.66 1597.77,-1492.11 1597.93,-1478.18"/>
<polygon fill="black" stroke="black" points="1601.43,-1478.19 1598.04,-1468.15 1594.43,-1478.11 1601.43,-1478.19"/>
</g>
<!-- u40&#45;&gt;u17 -->
<g id="edge55" class="edge">
<title>u40&#45;&gt;u17</title>
<path fill="none" stroke="black" d="M1672.75,-1522.24C1746.77,-1506.8 1859.15,-1483.36 1934.56,-1467.62"/>
<polygon fill="black" stroke="black" points="1935.41,-1471.02 1944.49,-1465.55 1933.98,-1464.17 1935.41,-1471.02"/>
</g>
<!-- u50&#45;&gt;u53 -->
<g id="edge69" class="edge">
<title>u50&#45;&gt;u53</title>
<path fill="none" stroke="black" d="M1596.66,-1253.61C1595.53,-1241.24 1594,-1224.37 1592.71,-1210.22"/>
<polygon fill="black" stroke="black" points="1596.18,-1209.69 1591.79,-1200.05 1589.21,-1210.33 1596.18,-1209.69"/>
</g>
<!-- u4&#45;&gt;u28 -->
<g id="edge17" class="edge">
<title>u4&#45;&gt;u28</title>
<path fill="none" stroke="black" d="M1388.62,-717.81C1389.6,-705.66 1390.93,-689.11 1392.05,-675.18"/>
<polygon fill="black" stroke="black" points="1395.55,-675.4 1392.86,-665.15 1388.57,-674.84 1395.55,-675.4"/>
</g>
<!-- u32 -->
<g id="node46" class="node">
<title>u32</title>
<ellipse fill="#ffbbff" stroke="black" cx="307.24" cy="-1004" rx="151.37" ry="18"/>
<text text-anchor="middle" x="307.24" y="-1000.3" font-family="Times,serif" font-size="14.00">Language.Drasil.Data.Citation</text>
</g>
<!-- u3&#45;&gt;u32 -->
<g id="edge16" class="edge">
<title>u3&#45;&gt;u32</title>
<path fill="none" stroke="black" d="M364.21,-1074.81C353.81,-1062.06 339.46,-1044.48 327.77,-1030.15"/>
<polygon fill="black" stroke="black" points="330.27,-1027.69 321.24,-1022.15 324.85,-1032.11 330.27,-1027.69"/>
</g>
<!-- u2&#45;&gt;u39 -->
<g id="edge15" class="edge">
<title>u2&#45;&gt;u39</title>
<path fill="none" stroke="black" d="M2332.24,-450.61C2332.24,-438.24 2332.24,-421.37 2332.24,-407.22"/>
<polygon fill="black" stroke="black" points="2335.74,-407.05 2332.24,-397.05 2328.74,-407.05 2335.74,-407.05"/>
</g>
<!-- u2&#45;&gt;u26 -->
<g id="edge13" class="edge">
<title>u2&#45;&gt;u26</title>
<path fill="none" stroke="black" d="M2282.77,-451.87C2255.18,-440.54 2222.26,-422.75 2201.24,-397 2136.83,-318.1 2201.35,-243.27 2119.24,-183 2069,-146.13 1909.77,-128.11 1795.21,-119.71"/>
<polygon fill="black" stroke="black" points="1795.19,-116.2 1784.96,-118.98 1794.69,-123.18 1795.19,-116.2"/>
</g>
<!-- u30 -->
<g id="node54" class="node">
<title>u30</title>
<ellipse fill="#ff7777" stroke="black" cx="2014.24" cy="-290" rx="140.28" ry="18"/>
<text text-anchor="middle" x="2014.24" y="-286.3" font-family="Times,serif" font-size="14.00">Language.Drasil.Label.Type</text>
</g>
<!-- u2&#45;&gt;u30 -->
<g id="edge14" class="edge">
<title>u2&#45;&gt;u30</title>
<path fill="none" stroke="black" d="M2379.85,-451.87C2429.28,-432.64 2495.23,-398.36 2463.24,-361 2424.82,-316.13 2277.69,-299.8 2162.19,-293.98"/>
<polygon fill="black" stroke="black" points="2162.33,-290.48 2152.18,-293.49 2162,-297.47 2162.33,-290.48"/>
</g>
<!-- u1&#45;&gt;u51 -->
<g id="edge12" class="edge">
<title>u1&#45;&gt;u51</title>
<path fill="none" stroke="black" d="M939.83,-1700.08C976.56,-1671.58 1043.24,-1610.16 1043.24,-1540 1043.24,-1540 1043.24,-1540 1043.24,-1360 1043.24,-1312.14 1034.27,-1292.84 1062.24,-1254 1078.96,-1230.78 1105.71,-1214.33 1130.61,-1203.15"/>
<polygon fill="black" stroke="black" points="1132.22,-1206.27 1140.04,-1199.12 1129.47,-1199.83 1132.22,-1206.27"/>
</g>
<!-- u32&#45;&gt;u21 -->
<g id="edge44" class="edge">
<title>u32&#45;&gt;u21</title>
<path fill="none" stroke="black" d="M271.63,-986.43C241.24,-972.3 197.42,-951.91 164.73,-936.7"/>
<polygon fill="black" stroke="black" points="165.95,-933.4 155.4,-932.36 162.99,-939.75 165.95,-933.4"/>
</g>
<!-- u31 -->
<g id="node47" class="node">
<title>u31</title>
<ellipse fill="#ffbbff" stroke="black" cx="395.24" cy="-915" rx="136.48" ry="18"/>
<text text-anchor="middle" x="395.24" y="-911.3" font-family="Times,serif" font-size="14.00">Language.Drasil.Data.Date</text>
</g>
<!-- u32&#45;&gt;u31 -->
<g id="edge45" class="edge">
<title>u32&#45;&gt;u31</title>
<path fill="none" stroke="black" d="M324.63,-985.81C337.76,-972.82 355.97,-954.82 370.61,-940.35"/>
<polygon fill="black" stroke="black" points="373.24,-942.67 377.89,-933.15 368.32,-937.69 373.24,-942.67"/>
</g>
<!-- u29&#45;&gt;u37 -->
<g id="edge42" class="edge">
<title>u29&#45;&gt;u37</title>
<path fill="none" stroke="black" d="M2015.09,-1075.43C2052.43,-1060.99 2106.65,-1040.03 2146.22,-1024.73"/>
<polygon fill="black" stroke="black" points="2147.62,-1027.94 2155.69,-1021.07 2145.1,-1021.41 2147.62,-1027.94"/>
</g>
<!-- u29&#45;&gt;u27 -->
<g id="edge41" class="edge">
<title>u29&#45;&gt;u27</title>
<path fill="none" stroke="black" d="M1900.98,-1076.14C1832.54,-1060.92 1729.41,-1037.97 1658.9,-1022.28"/>
<polygon fill="black" stroke="black" points="1659.26,-1018.78 1648.74,-1020.02 1657.74,-1025.61 1659.26,-1018.78"/>
</g>
<!-- u56&#45;&gt;u5 -->
<g id="edge79" class="edge">
<title>u56&#45;&gt;u5</title>
<path fill="none" stroke="black" d="M1283.62,-1254.85C1310.47,-1243.66 1341.69,-1226.02 1360.24,-1200 1388.02,-1161.02 1379.24,-1141.86 1379.24,-1094 1379.24,-1094 1379.24,-1094 1379.24,-1003 1379.24,-950.56 1382.83,-889.42 1385.2,-854.76"/>
<polygon fill="black" stroke="black" points="1388.71,-854.69 1385.92,-844.47 1381.73,-854.21 1388.71,-854.69"/>
</g>
<!-- u56&#45;&gt;u51 -->
<g id="edge80" class="edge">
<title>u56&#45;&gt;u51</title>
<path fill="none" stroke="black" d="M1225.14,-1253.61C1219.26,-1241 1211.2,-1223.71 1204.53,-1209.39"/>
<polygon fill="black" stroke="black" points="1207.58,-1207.64 1200.18,-1200.05 1201.23,-1210.59 1207.58,-1207.64"/>
</g>
<!-- u17&#45;&gt;u37 -->
<g id="edge30" class="edge">
<title>u17&#45;&gt;u37</title>
<path fill="none" stroke="black" d="M2053.05,-1432.65C2106.77,-1407.12 2197.24,-1352.34 2197.24,-1273 2197.24,-1273 2197.24,-1273 2197.24,-1181 2197.24,-1128.61 2197.24,-1067.46 2197.24,-1032.77"/>
<polygon fill="black" stroke="black" points="2200.74,-1032.49 2197.24,-1022.49 2193.74,-1032.49 2200.74,-1032.49"/>
</g>
<!-- u16 -->
<g id="node51" class="node">
<title>u16</title>
<ellipse fill="#7777ff" stroke="black" cx="675.24" cy="-558" rx="148.67" ry="18"/>
<text text-anchor="middle" x="675.24" y="-554.3" font-family="Times,serif" font-size="14.00">Language.Drasil.Expr.Extract</text>
</g>
<!-- u16&#45;&gt;u9 -->
<g id="edge29" class="edge">
<title>u16&#45;&gt;u9</title>
<path fill="none" stroke="black" d="M704.3,-540.19C760.04,-507.95 881.9,-437.46 943.7,-401.71"/>
<polygon fill="black" stroke="black" points="945.47,-404.74 952.37,-396.7 941.96,-398.68 945.47,-404.74"/>
</g>
<!-- u15&#45;&gt;u9 -->
<g id="edge28" class="edge">
<title>u15&#45;&gt;u9</title>
<path fill="none" stroke="black" d="M879.07,-717.94C874.02,-672.12 865.06,-543.55 909.24,-451 918.17,-432.29 934.19,-415.72 948.85,-403.31"/>
<polygon fill="black" stroke="black" points="951.25,-405.88 956.81,-396.86 946.84,-400.44 951.25,-405.88"/>
</g>
<!-- u14&#45;&gt;u19 -->
<g id="edge27" class="edge">
<title>u14&#45;&gt;u19</title>
<path fill="none" stroke="black" d="M1033.33,-808C1041.79,-794.09 1052.86,-773.59 1058.24,-754 1083.36,-662.55 1081.49,-548.6 1078.99,-497.29"/>
<polygon fill="black" stroke="black" points="1082.47,-496.83 1078.43,-487.04 1075.48,-497.21 1082.47,-496.83"/>
</g>
<!-- u30&#45;&gt;u12 -->
<g id="edge43" class="edge">
<title>u30&#45;&gt;u12</title>
<path fill="none" stroke="black" d="M2011.67,-271.81C2009.85,-259.66 2007.38,-243.11 2005.3,-229.18"/>
<polygon fill="black" stroke="black" points="2008.74,-228.53 2003.8,-219.15 2001.82,-229.56 2008.74,-228.53"/>
</g>
<!-- u57&#45;&gt;u58 -->
<g id="edge81" class="edge">
<title>u57&#45;&gt;u58</title>
<path fill="none" stroke="black" d="M1580.9,-896.93C1584.61,-851.06 1590.1,-722.31 1546.24,-629 1537.86,-611.18 1523.14,-595.03 1509.63,-582.74"/>
<polygon fill="black" stroke="black" points="1511.71,-579.9 1501.87,-575.96 1507.1,-585.18 1511.71,-579.9"/>
</g>
<!-- u10&#45;&gt;u58 -->
<g id="edge22" class="edge">
<title>u10&#45;&gt;u58</title>
<path fill="none" stroke="black" d="M653.51,-985.78C664.31,-954.57 685.24,-886.39 685.24,-827 685.24,-827 685.24,-827 685.24,-735 685.24,-602.74 1110.45,-569.8 1338.53,-561.65"/>
<polygon fill="black" stroke="black" points="1338.7,-565.15 1348.57,-561.3 1338.46,-558.15 1338.7,-565.15"/>
</g>
<!-- u10&#45;&gt;u16 -->
<g id="edge21" class="edge">
<title>u10&#45;&gt;u16</title>
<path fill="none" stroke="black" d="M647.24,-985.51C647.24,-953.88 647.24,-885.06 647.24,-827 647.24,-827 647.24,-827 647.24,-735 647.24,-681.73 659.91,-620.49 668.2,-586.11"/>
<polygon fill="black" stroke="black" points="671.61,-586.89 670.62,-576.34 664.82,-585.21 671.61,-586.89"/>
</g>
<!-- u23&#45;&gt;u2 -->
<g id="edge36" class="edge">
<title>u23&#45;&gt;u2</title>
<path fill="none" stroke="black" d="M2595.19,-1877.68C2603.71,-1846.31 2620.24,-1777.89 2620.24,-1719 2620.24,-1719 2620.24,-1719 2620.24,-646 2620.24,-552.72 2508.87,-507.39 2424.64,-486.45"/>
<polygon fill="black" stroke="black" points="2425.31,-483.01 2414.77,-484.08 2423.67,-489.82 2425.31,-483.01"/>
</g>
<!-- u8 -->
<g id="node58" class="node">
<title>u8</title>
<ellipse fill="#bbff77" stroke="black" cx="2883.24" cy="-1986" rx="129.18" ry="18"/>
<text text-anchor="middle" x="2883.24" y="-1982.3" font-family="Times,serif" font-size="14.00">Language.Drasil.URI.AST</text>
</g>
</g>
</svg>
