<?xml version="1.0" encoding="UTF-8" standalone="no"?>
<!DOCTYPE svg PUBLIC "-//W3C//DTD SVG 1.1//EN"
 "http://www.w3.org/Graphics/SVG/1.1/DTD/svg11.dtd">
<!-- Generated by graphviz version 2.43.0 (0)
 -->
<!-- Title: G Pages: 1 -->
<svg width="432pt" height="288pt"
 viewBox="0.00 0.00 431.79 288.00" xmlns="http://www.w3.org/2000/svg" xmlns:xlink="http://www.w3.org/1999/xlink">
<g id="graph0" class="graph" transform="scale(0.06 0.06) rotate(0) translate(4 4655.33)">
<title>G</title>
<polygon fill="white" stroke="transparent" points="-4,4 -4,-4655.33 6981.6,-4655.33 6981.6,4 -4,4"/>
<!-- u4 -->
<g id="node1" class="node">
<title>u4</title>
<ellipse fill="#bbffbb" stroke="black" cx="958.73" cy="-4299" rx="62.29" ry="18"/>
<text text-anchor="middle" x="958.73" y="-4295.3" font-family="Times,serif" font-size="14.00">HelloWorld</text>
</g>
<!-- u1 -->
<g id="node4" class="node">
<title>u1</title>
<ellipse fill="#bbffbb" stroke="black" cx="958.73" cy="-4017" rx="42.49" ry="18"/>
<text text-anchor="middle" x="958.73" y="-4013.3" font-family="Times,serif" font-size="14.00">Helper</text>
</g>
<!-- u4&#45;&gt;u1 -->
<g id="edge1" class="edge">
<title>u4&#45;&gt;u1</title>
<path fill="none" stroke="black" d="M958.73,-4280.91C958.73,-4233.95 958.73,-4102.65 958.73,-4045.34"/>
<polygon fill="black" stroke="black" points="962.23,-4045.23 958.73,-4035.23 955.23,-4045.23 962.23,-4045.23"/>
</g>
<!-- u3 -->
<g id="node2" class="node">
<title>u3</title>
<ellipse fill="#bbffbb" stroke="black" cx="1098.73" cy="-4299" rx="59.59" ry="18"/>
<text text-anchor="middle" x="1098.73" y="-4295.3" font-family="Times,serif" font-size="14.00">VectorTest</text>
</g>
<!-- u2 -->
<g id="node3" class="node">
<title>u2</title>
<ellipse fill="#bbffbb" stroke="black" cx="1252.73" cy="-4299" rx="76.09" ry="18"/>
<text text-anchor="middle" x="1252.73" y="-4295.3" font-family="Times,serif" font-size="14.00">NameGenTest</text>
</g>
<!-- u0 -->
<g id="node5" class="node">
<title>u0</title>
<ellipse fill="#bbffbb" stroke="black" cx="1399.73" cy="-4299" rx="52.79" ry="18"/>
<text text-anchor="middle" x="1399.73" y="-4295.3" font-family="Times,serif" font-size="14.00">FileTests</text>
</g>
<!-- u8 -->
<g id="node6" class="node">
<title>u8</title>
<ellipse fill="#ffffbb" stroke="black" cx="1619.73" cy="-1762" rx="214.46" ry="18"/>
<text text-anchor="middle" x="1619.73" y="-1758.3" font-family="Times,serif" font-size="14.00">Data.Drasil.ExternalLibraries.ODELibraries</text>
</g>
<!-- u9 -->
<g id="node59" class="node">
<title>u9</title>
<ellipse fill="#ff77ff" stroke="black" cx="1057.73" cy="-1480" rx="172.77" ry="18"/>
<text text-anchor="middle" x="1057.73" y="-1476.3" font-family="Times,serif" font-size="14.00">Language.Drasil.Data.ODELibPckg</text>
</g>
<!-- u8&#45;&gt;u9 -->
<g id="edge10" class="edge">
<title>u8&#45;&gt;u9</title>
<path fill="none" stroke="black" d="M1585.84,-1744.12C1488.51,-1695.62 1208.26,-1555.99 1100.58,-1502.35"/>
<polygon fill="black" stroke="black" points="1101.82,-1499.06 1091.31,-1497.73 1098.7,-1505.32 1101.82,-1499.06"/>
</g>
<!-- u7 -->
<g id="node7" class="node">
<title>u7</title>
<ellipse fill="#bbbbff" stroke="black" cx="1565.73" cy="-4299" rx="95.58" ry="18"/>
<text text-anchor="middle" x="1565.73" y="-4295.3" font-family="Times,serif" font-size="14.00">GOOL.PatternTest</text>
</g>
<!-- u6 -->
<g id="node8" class="node">
<title>u6</title>
<ellipse fill="#bbbbff" stroke="black" cx="1500.73" cy="-4017" rx="84.49" ry="18"/>
<text text-anchor="middle" x="1500.73" y="-4013.3" font-family="Times,serif" font-size="14.00">GOOL.Observer</text>
</g>
<!-- u7&#45;&gt;u6 -->
<g id="edge9" class="edge">
<title>u7&#45;&gt;u6</title>
<path fill="none" stroke="black" d="M1561.76,-4280.91C1550.84,-4233.85 1520.26,-4102.11 1507,-4044.99"/>
<polygon fill="black" stroke="black" points="1510.4,-4044.18 1504.73,-4035.23 1503.58,-4045.76 1510.4,-4044.18"/>
</g>
<!-- u59 -->
<g id="node9" class="node">
<title>u59</title>
<ellipse fill="#ffbbbb" stroke="black" cx="1792.73" cy="-4299" rx="113.18" ry="18"/>
<text text-anchor="middle" x="1792.73" y="-4295.3" font-family="Times,serif" font-size="14.00">Language.Drasil.Code</text>
</g>
<!-- u51 -->
<g id="node31" class="node">
<title>u51</title>
<ellipse fill="#77ff77" stroke="black" cx="1857.73" cy="-4017" rx="217.16" ry="18"/>
<text text-anchor="middle" x="1857.73" y="-4013.3" font-family="Times,serif" font-size="14.00">Language.Drasil.Code.Imperative.Generator</text>
</g>
<!-- u59&#45;&gt;u51 -->
<g id="edge88" class="edge">
<title>u59&#45;&gt;u51</title>
<path fill="none" stroke="black" d="M1796.7,-4280.91C1807.62,-4233.85 1838.21,-4102.11 1851.47,-4044.99"/>
<polygon fill="black" stroke="black" points="1854.88,-4045.76 1853.73,-4035.23 1848.06,-4044.18 1854.88,-4045.76"/>
</g>
<!-- u35 -->
<g id="node36" class="node">
<title>u35</title>
<ellipse fill="#77ff77" stroke="black" cx="217.73" cy="-3735" rx="217.96" ry="18"/>
<text text-anchor="middle" x="217.73" y="-3731.3" font-family="Times,serif" font-size="14.00">Language.Drasil.Code.Imperative.ReadInput</text>
</g>
<!-- u59&#45;&gt;u35 -->
<g id="edge87" class="edge">
<title>u59&#45;&gt;u35</title>
<path fill="none" stroke="black" d="M1783.57,-4280.71C1752.46,-4222.64 1649.7,-4036.17 1593.73,-3999 1393.17,-3865.81 679.89,-3781.34 366.85,-3749.88"/>
<polygon fill="black" stroke="black" points="367.09,-3746.39 356.79,-3748.88 366.4,-3753.35 367.09,-3746.39"/>
</g>
<!-- u58 -->
<g id="node10" class="node">
<title>u58</title>
<ellipse fill="#ffbbbb" stroke="black" cx="1971.73" cy="-2044" rx="126.18" ry="18"/>
<text text-anchor="middle" x="1971.73" y="-2040.3" font-family="Times,serif" font-size="14.00">Language.Drasil.Choices</text>
</g>
<!-- u58&#45;&gt;u8 -->
<g id="edge85" class="edge">
<title>u58&#45;&gt;u8</title>
<path fill="none" stroke="black" d="M1950.5,-2026.12C1890.37,-1978.28 1718.75,-1841.77 1649.37,-1786.58"/>
<polygon fill="black" stroke="black" points="1651.44,-1783.75 1641.43,-1780.26 1647.08,-1789.23 1651.44,-1783.75"/>
</g>
<!-- u53 -->
<g id="node23" class="node">
<title>u53</title>
<ellipse fill="#ffbbff" stroke="black" cx="1991.73" cy="-1762" rx="139.98" ry="18"/>
<text text-anchor="middle" x="1991.73" y="-1758.3" font-family="Times,serif" font-size="14.00">Language.Drasil.Code.Code</text>
</g>
<!-- u58&#45;&gt;u53 -->
<g id="edge86" class="edge">
<title>u58&#45;&gt;u53</title>
<path fill="none" stroke="black" d="M1972.95,-2025.91C1976.31,-1978.95 1985.68,-1847.65 1989.78,-1790.34"/>
<polygon fill="black" stroke="black" points="1993.28,-1790.45 1990.5,-1780.23 1986.3,-1789.95 1993.28,-1790.45"/>
</g>
<!-- u57 -->
<g id="node11" class="node">
<title>u57</title>
<ellipse fill="#ffbbbb" stroke="black" cx="4410.73" cy="-3453" rx="117.78" ry="18"/>
<text text-anchor="middle" x="4410.73" y="-3449.3" font-family="Times,serif" font-size="14.00">Language.Drasil.GOOL</text>
</g>
<!-- u48 -->
<g id="node52" class="node">
<title>u48</title>
<ellipse fill="#77ffff" stroke="black" cx="4410.73" cy="-3171" rx="358.54" ry="18"/>
<text text-anchor="middle" x="4410.73" y="-3167.3" font-family="Times,serif" font-size="14.00">Language.Drasil.Code.Imperative.GOOL.LanguageRenderer.SwiftRenderer</text>
</g>
<!-- u57&#45;&gt;u48 -->
<g id="edge84" class="edge">
<title>u57&#45;&gt;u48</title>
<path fill="none" stroke="black" d="M4410.73,-3434.91C4410.73,-3387.95 4410.73,-3256.65 4410.73,-3199.34"/>
<polygon fill="black" stroke="black" points="4414.23,-3199.23 4410.73,-3189.23 4407.23,-3199.23 4414.23,-3199.23"/>
</g>
<!-- u47 -->
<g id="node53" class="node">
<title>u47</title>
<ellipse fill="#77ffff" stroke="black" cx="5140.73" cy="-3171" rx="352.84" ry="18"/>
<text text-anchor="middle" x="5140.73" y="-3167.3" font-family="Times,serif" font-size="14.00">Language.Drasil.Code.Imperative.GOOL.LanguageRenderer.CppRenderer</text>
</g>
<!-- u57&#45;&gt;u47 -->
<g id="edge83" class="edge">
<title>u57&#45;&gt;u47</title>
<path fill="none" stroke="black" d="M4452.07,-3436.14C4576.52,-3388.41 4947.61,-3246.07 5087.01,-3192.61"/>
<polygon fill="black" stroke="black" points="5088.56,-3195.76 5096.64,-3188.91 5086.05,-3189.22 5088.56,-3195.76"/>
</g>
<!-- u46 -->
<g id="node54" class="node">
<title>u46</title>
<ellipse fill="#77ffff" stroke="black" cx="5880.73" cy="-3171" rx="369.33" ry="18"/>
<text text-anchor="middle" x="5880.73" y="-3167.3" font-family="Times,serif" font-size="14.00">Language.Drasil.Code.Imperative.GOOL.LanguageRenderer.CSharpRenderer</text>
</g>
<!-- u57&#45;&gt;u46 -->
<g id="edge82" class="edge">
<title>u57&#45;&gt;u46</title>
<path fill="none" stroke="black" d="M4481.63,-3438.5C4722.26,-3392.66 5508.04,-3242.99 5783.92,-3190.44"/>
<polygon fill="black" stroke="black" points="5784.74,-3193.85 5793.91,-3188.54 5783.43,-3186.97 5784.74,-3193.85"/>
</g>
<!-- u45 -->
<g id="node55" class="node">
<title>u45</title>
<ellipse fill="#77ffff" stroke="black" cx="6622.73" cy="-3171" rx="354.74" ry="18"/>
<text text-anchor="middle" x="6622.73" y="-3167.3" font-family="Times,serif" font-size="14.00">Language.Drasil.Code.Imperative.GOOL.LanguageRenderer.JuliaRenderer</text>
</g>
<!-- u57&#45;&gt;u45 -->
<g id="edge81" class="edge">
<title>u57&#45;&gt;u45</title>
<path fill="none" stroke="black" d="M4498.13,-3440.94C4838.07,-3397.91 6073.81,-3241.48 6487.07,-3189.17"/>
<polygon fill="black" stroke="black" points="6487.79,-3192.61 6497.27,-3187.88 6486.91,-3185.66 6487.79,-3192.61"/>
</g>
<!-- u44 -->
<g id="node56" class="node">
<title>u44</title>
<ellipse fill="#77ffff" stroke="black" cx="2940.73" cy="-3171" rx="367.43" ry="18"/>
<text text-anchor="middle" x="2940.73" y="-3167.3" font-family="Times,serif" font-size="14.00">Language.Drasil.Code.Imperative.GOOL.LanguageRenderer.PythonRenderer</text>
</g>
<!-- u57&#45;&gt;u44 -->
<g id="edge80" class="edge">
<title>u57&#45;&gt;u44</title>
<path fill="none" stroke="black" d="M4339.83,-3438.5C4099.2,-3392.66 3313.42,-3242.99 3037.54,-3190.44"/>
<polygon fill="black" stroke="black" points="3038.03,-3186.97 3027.55,-3188.54 3036.72,-3193.85 3038.03,-3186.97"/>
</g>
<!-- u43 -->
<g id="node57" class="node">
<title>u43</title>
<ellipse fill="#77ffff" stroke="black" cx="3679.73" cy="-3171" rx="354.44" ry="18"/>
<text text-anchor="middle" x="3679.73" y="-3167.3" font-family="Times,serif" font-size="14.00">Language.Drasil.Code.Imperative.GOOL.LanguageRenderer.JavaRenderer</text>
</g>
<!-- u57&#45;&gt;u43 -->
<g id="edge79" class="edge">
<title>u57&#45;&gt;u43</title>
<path fill="none" stroke="black" d="M4369.33,-3436.14C4244.72,-3388.41 3873.12,-3246.07 3733.53,-3192.61"/>
<polygon fill="black" stroke="black" points="3734.47,-3189.22 3723.88,-3188.91 3731.97,-3195.76 3734.47,-3189.22"/>
</g>
<!-- u56 -->
<g id="node12" class="node">
<title>u56</title>
<ellipse fill="#ffbbbb" stroke="black" cx="988.73" cy="-2326" rx="135.68" ry="18"/>
<text text-anchor="middle" x="988.73" y="-2322.3" font-family="Times,serif" font-size="14.00">Language.Drasil.CodeSpec</text>
</g>
<!-- u56&#45;&gt;u58 -->
<g id="edge78" class="edge">
<title>u56&#45;&gt;u58</title>
<path fill="none" stroke="black" d="M1043.33,-2309.45C1212.58,-2261.24 1727.8,-2114.48 1908.38,-2063.04"/>
<polygon fill="black" stroke="black" points="1909.35,-2066.41 1918.01,-2060.3 1907.43,-2059.68 1909.35,-2066.41"/>
</g>
<!-- u12 -->
<g id="node13" class="node">
<title>u12</title>
<ellipse fill="#ffbbbb" stroke="black" cx="600.73" cy="-2044" rx="178.17" ry="18"/>
<text text-anchor="middle" x="600.73" y="-2040.3" font-family="Times,serif" font-size="14.00">Language.Drasil.ICOSolutionSearch</text>
</g>
<!-- u56&#45;&gt;u12 -->
<g id="edge76" class="edge">
<title>u56&#45;&gt;u12</title>
<path fill="none" stroke="black" d="M965.33,-2308.12C898.76,-2260.07 708.21,-2122.56 632.4,-2067.85"/>
<polygon fill="black" stroke="black" points="634.32,-2064.92 624.16,-2061.91 630.22,-2070.6 634.32,-2064.92"/>
</g>
<!-- u14 -->
<g id="node19" class="node">
<title>u14</title>
<ellipse fill="#bbffff" stroke="black" cx="988.73" cy="-2044" rx="192.27" ry="18"/>
<text text-anchor="middle" x="988.73" y="-2040.3" font-family="Times,serif" font-size="14.00">Language.Drasil.Chunk.ConstraintMap</text>
</g>
<!-- u56&#45;&gt;u14 -->
<g id="edge77" class="edge">
<title>u56&#45;&gt;u14</title>
<path fill="none" stroke="black" d="M988.73,-2307.91C988.73,-2260.95 988.73,-2129.65 988.73,-2072.34"/>
<polygon fill="black" stroke="black" points="992.23,-2072.23 988.73,-2062.23 985.23,-2072.23 992.23,-2072.23"/>
</g>
<!-- u16 -->
<g id="node17" class="node">
<title>u16</title>
<ellipse fill="#bbffff" stroke="black" cx="600.73" cy="-1762" rx="191.17" ry="18"/>
<text text-anchor="middle" x="600.73" y="-1758.3" font-family="Times,serif" font-size="14.00">Language.Drasil.Chunk.CodeDefinition</text>
</g>
<!-- u12&#45;&gt;u16 -->
<g id="edge18" class="edge">
<title>u12&#45;&gt;u16</title>
<path fill="none" stroke="black" d="M600.73,-2025.91C600.73,-1978.95 600.73,-1847.65 600.73,-1790.34"/>
<polygon fill="black" stroke="black" points="604.23,-1790.23 600.73,-1780.23 597.23,-1790.23 604.23,-1790.23"/>
</g>
<!-- u11 -->
<g id="node14" class="node">
<title>u11</title>
<ellipse fill="#ffbbbb" stroke="black" cx="1040.73" cy="-916" rx="110.48" ry="18"/>
<text text-anchor="middle" x="1040.73" y="-912.3" font-family="Times,serif" font-size="14.00">Language.Drasil.Mod</text>
</g>
<!-- u13 -->
<g id="node20" class="node">
<title>u13</title>
<ellipse fill="#bbffff" stroke="black" cx="1040.73" cy="-634" rx="170.87" ry="18"/>
<text text-anchor="middle" x="1040.73" y="-630.3" font-family="Times,serif" font-size="14.00">Language.Drasil.Chunk.Parameter</text>
</g>
<!-- u11&#45;&gt;u13 -->
<g id="edge16" class="edge">
<title>u11&#45;&gt;u13</title>
<path fill="none" stroke="black" d="M1040.73,-897.91C1040.73,-850.95 1040.73,-719.65 1040.73,-662.34"/>
<polygon fill="black" stroke="black" points="1044.23,-662.23 1040.73,-652.23 1037.23,-662.23 1044.23,-662.23"/>
</g>
<!-- u22 -->
<g id="node26" class="node">
<title>u22</title>
<ellipse fill="#ffbbff" stroke="black" cx="691.73" cy="-634" rx="160.57" ry="18"/>
<text text-anchor="middle" x="691.73" y="-630.3" font-family="Times,serif" font-size="14.00">Language.Drasil.Code.DataDesc</text>
</g>
<!-- u11&#45;&gt;u22 -->
<g id="edge17" class="edge">
<title>u11&#45;&gt;u22</title>
<path fill="none" stroke="black" d="M1019.69,-898.12C959.92,-850.17 789.1,-713.12 720.63,-658.19"/>
<polygon fill="black" stroke="black" points="722.79,-655.43 712.8,-651.91 718.41,-660.89 722.79,-655.43"/>
</g>
<!-- u18 -->
<g id="node15" class="node">
<title>u18</title>
<ellipse fill="#bbffff" stroke="black" cx="691.73" cy="-70" rx="168.17" ry="18"/>
<text text-anchor="middle" x="691.73" y="-66.3" font-family="Times,serif" font-size="14.00">Language.Drasil.Chunk.CodeBase</text>
</g>
<!-- u17 -->
<g id="node16" class="node">
<title>u17</title>
<ellipse fill="#bbffff" stroke="black" cx="691.73" cy="-352" rx="145.67" ry="18"/>
<text text-anchor="middle" x="691.73" y="-348.3" font-family="Times,serif" font-size="14.00">Language.Drasil.Chunk.Code</text>
</g>
<!-- u17&#45;&gt;u18 -->
<g id="edge21" class="edge">
<title>u17&#45;&gt;u18</title>
<path fill="none" stroke="black" d="M691.73,-333.91C691.73,-286.95 691.73,-155.65 691.73,-98.34"/>
<polygon fill="black" stroke="black" points="695.23,-98.23 691.73,-88.23 688.23,-98.23 695.23,-98.23"/>
</g>
<!-- u10 -->
<g id="node58" class="node">
<title>u10</title>
<ellipse fill="#ff77ff" stroke="black" cx="347.73" cy="-1198" rx="154.07" ry="18"/>
<text text-anchor="middle" x="347.73" y="-1194.3" font-family="Times,serif" font-size="14.00">Language.Drasil.Data.ODEInfo</text>
</g>
<!-- u16&#45;&gt;u10 -->
<g id="edge20" class="edge">
<title>u16&#45;&gt;u10</title>
<path fill="none" stroke="black" d="M593.02,-1743.87C556.79,-1663.4 403.39,-1322.65 359.51,-1225.16"/>
<polygon fill="black" stroke="black" points="362.68,-1223.67 355.38,-1215.99 356.29,-1226.55 362.68,-1223.67"/>
</g>
<!-- u15 -->
<g id="node18" class="node">
<title>u15</title>
<ellipse fill="#bbffff" stroke="black" cx="709.73" cy="-916" rx="202.26" ry="18"/>
<text text-anchor="middle" x="709.73" y="-912.3" font-family="Times,serif" font-size="14.00">Language.Drasil.Chunk.NamedArgument</text>
</g>
<!-- u13&#45;&gt;u17 -->
<g id="edge19" class="edge">
<title>u13&#45;&gt;u17</title>
<path fill="none" stroke="black" d="M1019.69,-616.12C959.92,-568.17 789.1,-431.12 720.63,-376.19"/>
<polygon fill="black" stroke="black" points="722.79,-373.43 712.8,-369.91 718.41,-378.89 722.79,-373.43"/>
</g>
<!-- u55 -->
<g id="node21" class="node">
<title>u55</title>
<ellipse fill="#ffbbff" stroke="black" cx="709.73" cy="-1198" rx="190.37" ry="18"/>
<text text-anchor="middle" x="709.73" y="-1194.3" font-family="Times,serif" font-size="14.00">Language.Drasil.Code.ExternalLibrary</text>
</g>
<!-- u55&#45;&gt;u11 -->
<g id="edge74" class="edge">
<title>u55&#45;&gt;u11</title>
<path fill="none" stroke="black" d="M729.94,-1179.91C786.74,-1131.86 947.92,-995.51 1012.98,-940.47"/>
<polygon fill="black" stroke="black" points="1015.41,-943 1020.79,-933.87 1010.89,-937.66 1015.41,-943"/>
</g>
<!-- u55&#45;&gt;u15 -->
<g id="edge75" class="edge">
<title>u55&#45;&gt;u15</title>
<path fill="none" stroke="black" d="M709.73,-1179.91C709.73,-1132.95 709.73,-1001.65 709.73,-944.34"/>
<polygon fill="black" stroke="black" points="713.23,-944.23 709.73,-934.23 706.23,-944.23 713.23,-944.23"/>
</g>
<!-- u54 -->
<g id="node22" class="node">
<title>u54</title>
<ellipse fill="#ffbbff" stroke="black" cx="1057.73" cy="-1198" rx="139.18" ry="18"/>
<text text-anchor="middle" x="1057.73" y="-1194.3" font-family="Times,serif" font-size="14.00">Language.Drasil.Code.Lang</text>
</g>
<!-- u21 -->
<g id="node27" class="node">
<title>u21</title>
<ellipse fill="#ffbbff" stroke="black" cx="1991.73" cy="-1480" rx="155.17" ry="18"/>
<text text-anchor="middle" x="1991.73" y="-1476.3" font-family="Times,serif" font-size="14.00">Language.Drasil.Code.FileData</text>
</g>
<!-- u53&#45;&gt;u21 -->
<g id="edge73" class="edge">
<title>u53&#45;&gt;u21</title>
<path fill="none" stroke="black" d="M1991.73,-1743.91C1991.73,-1696.95 1991.73,-1565.65 1991.73,-1508.34"/>
<polygon fill="black" stroke="black" points="1995.23,-1508.23 1991.73,-1498.23 1988.23,-1508.23 1995.23,-1508.23"/>
</g>
<!-- u24 -->
<g id="node24" class="node">
<title>u24</title>
<ellipse fill="#ffbbff" stroke="black" cx="1422.73" cy="-1198" rx="207.96" ry="18"/>
<text text-anchor="middle" x="1422.73" y="-1194.3" font-family="Times,serif" font-size="14.00">Language.Drasil.Code.ExternalLibraryCall</text>
</g>
<!-- u24&#45;&gt;u11 -->
<g id="edge25" class="edge">
<title>u24&#45;&gt;u11</title>
<path fill="none" stroke="black" d="M1399.41,-1179.91C1333.59,-1131.66 1146.33,-994.4 1071.84,-939.8"/>
<polygon fill="black" stroke="black" points="1073.88,-936.96 1063.75,-933.87 1069.74,-942.6 1073.88,-936.96"/>
</g>
<!-- u24&#45;&gt;u15 -->
<g id="edge26" class="edge">
<title>u24&#45;&gt;u15</title>
<path fill="none" stroke="black" d="M1380.26,-1180.32C1256.57,-1131.75 896.79,-990.46 761.75,-937.43"/>
<polygon fill="black" stroke="black" points="763.01,-934.16 752.42,-933.77 760.45,-940.68 763.01,-934.16"/>
</g>
<!-- u23 -->
<g id="node25" class="node">
<title>u23</title>
<ellipse fill="#ffbbff" stroke="black" cx="3072.73" cy="-2608" rx="165.97" ry="18"/>
<text text-anchor="middle" x="3072.73" y="-2604.3" font-family="Times,serif" font-size="14.00">Language.Drasil.Code.FileNames</text>
</g>
<!-- u22&#45;&gt;u17 -->
<g id="edge24" class="edge">
<title>u22&#45;&gt;u17</title>
<path fill="none" stroke="black" d="M691.73,-615.91C691.73,-568.95 691.73,-437.65 691.73,-380.34"/>
<polygon fill="black" stroke="black" points="695.23,-380.23 691.73,-370.23 688.23,-380.23 695.23,-380.23"/>
</g>
<!-- u20 -->
<g id="node28" class="node">
<title>u20</title>
<ellipse fill="#ffbbff" stroke="black" cx="419.73" cy="-2889" rx="204.16" ry="18"/>
<text text-anchor="middle" x="419.73" y="-2885.3" font-family="Times,serif" font-size="14.00">Language.Drasil.Code.CodeQuantityDicts</text>
</g>
<!-- u19 -->
<g id="node29" class="node">
<title>u19</title>
<ellipse fill="#ffbbff" stroke="black" cx="1208.73" cy="-1762" rx="178.97" ry="18"/>
<text text-anchor="middle" x="1208.73" y="-1758.3" font-family="Times,serif" font-size="14.00">Language.Drasil.Code.ExtLibImport</text>
</g>
<!-- u19&#45;&gt;u55 -->
<g id="edge23" class="edge">
<title>u19&#45;&gt;u55</title>
<path fill="none" stroke="black" d="M1180.21,-1744.02C1118.49,-1706.17 970.45,-1609.41 875.73,-1498 800.25,-1409.21 742.93,-1280.8 720.29,-1225.72"/>
<polygon fill="black" stroke="black" points="723.48,-1224.27 716.47,-1216.32 716.99,-1226.9 723.48,-1224.27"/>
</g>
<!-- u19&#45;&gt;u24 -->
<g id="edge22" class="edge">
<title>u19&#45;&gt;u24</title>
<path fill="none" stroke="black" d="M1215.25,-1743.87C1245.87,-1663.48 1375.39,-1323.34 1412.66,-1225.45"/>
<polygon fill="black" stroke="black" points="1415.97,-1226.58 1416.26,-1215.99 1409.43,-1224.09 1415.97,-1226.58"/>
</g>
<!-- u52 -->
<g id="node30" class="node">
<title>u52</title>
<ellipse fill="#77ff77" stroke="black" cx="717.73" cy="-3735" rx="226.66" ry="18"/>
<text text-anchor="middle" x="717.73" y="-3731.3" font-family="Times,serif" font-size="14.00">Language.Drasil.Code.Imperative.SpaceMatch</text>
</g>
<!-- u31 -->
<g id="node40" class="node">
<title>u31</title>
<ellipse fill="#77ff77" stroke="black" cx="988.73" cy="-2608" rx="222.06" ry="18"/>
<text text-anchor="middle" x="988.73" y="-2604.3" font-family="Times,serif" font-size="14.00">Language.Drasil.Code.Imperative.DrasilState</text>
</g>
<!-- u52&#45;&gt;u31 -->
<g id="edge72" class="edge">
<title>u52&#45;&gt;u31</title>
<path fill="none" stroke="black" d="M679.46,-3717.16C601.82,-3681.43 423.7,-3591.37 311.73,-3471 124.51,-3269.74 -2.61,-3091.33 161.73,-2871 249.73,-2753.02 685.42,-2662.47 886.59,-2626.24"/>
<polygon fill="black" stroke="black" points="887.35,-2629.66 896.58,-2624.45 886.12,-2622.77 887.35,-2629.66"/>
</g>
<!-- u51&#45;&gt;u23 -->
<g id="edge68" class="edge">
<title>u51&#45;&gt;u23</title>
<path fill="none" stroke="black" d="M1997.34,-4003.2C2152.81,-3980.85 2398.41,-3919.72 2521.73,-3753 2601.01,-3645.82 2545.73,-3587.32 2545.73,-3454 2545.73,-3454 2545.73,-3454 2545.73,-3170 2545.73,-2890.04 2898.69,-2692.58 3026.9,-2630.09"/>
<polygon fill="black" stroke="black" points="3028.61,-2633.15 3036.09,-2625.65 3025.56,-2626.84 3028.61,-2633.15"/>
</g>
<!-- u51&#45;&gt;u52 -->
<g id="edge71" class="edge">
<title>u51&#45;&gt;u52</title>
<path fill="none" stroke="black" d="M1791.93,-3999.84C1593.91,-3951.2 1004.25,-3806.37 793.59,-3754.63"/>
<polygon fill="black" stroke="black" points="794.39,-3751.23 783.85,-3752.24 792.72,-3758.02 794.39,-3751.23"/>
</g>
<!-- u37 -->
<g id="node34" class="node">
<title>u37</title>
<ellipse fill="#77ff77" stroke="black" cx="1207.73" cy="-3735" rx="209.06" ry="18"/>
<text text-anchor="middle" x="1207.73" y="-3731.3" font-family="Times,serif" font-size="14.00">Language.Drasil.Code.Imperative.Modules</text>
</g>
<!-- u51&#45;&gt;u37 -->
<g id="edge70" class="edge">
<title>u51&#45;&gt;u37</title>
<path fill="none" stroke="black" d="M1818.53,-3999.12C1705.51,-3950.43 1379.21,-3809.87 1255.79,-3756.7"/>
<polygon fill="black" stroke="black" points="1257.14,-3753.47 1246.57,-3752.73 1254.37,-3759.9 1257.14,-3753.47"/>
</g>
<!-- u28 -->
<g id="node43" class="node">
<title>u28</title>
<ellipse fill="#77ff77" stroke="black" cx="1466.73" cy="-2326" rx="209.86" ry="18"/>
<text text-anchor="middle" x="1466.73" y="-2322.3" font-family="Times,serif" font-size="14.00">Language.Drasil.Code.Imperative.GenODE</text>
</g>
<!-- u51&#45;&gt;u28 -->
<g id="edge69" class="edge">
<title>u51&#45;&gt;u28</title>
<path fill="none" stroke="black" d="M1910.1,-3999.47C2064.59,-3947.08 2507.73,-3769.33 2507.73,-3454 2507.73,-3454 2507.73,-3454 2507.73,-3170 2507.73,-3036.84 2560.87,-2982.92 2488.73,-2871 2270.29,-2532.11 1766.71,-2390.31 1558.94,-2344.8"/>
<polygon fill="black" stroke="black" points="1559.49,-2341.33 1548.97,-2342.64 1558.01,-2348.17 1559.49,-2341.33"/>
</g>
<!-- u50 -->
<g id="node32" class="node">
<title>u50</title>
<ellipse fill="#77ff77" stroke="black" cx="548.73" cy="-3453" rx="228.26" ry="18"/>
<text text-anchor="middle" x="548.73" y="-3449.3" font-family="Times,serif" font-size="14.00">Language.Drasil.Code.Imperative.Descriptions</text>
</g>
<!-- u50&#45;&gt;u31 -->
<g id="edge67" class="edge">
<title>u50&#45;&gt;u31</title>
<path fill="none" stroke="black" d="M503.6,-3435.31C422.45,-3402.53 254.09,-3321.2 186.73,-3189 168.22,-3152.67 43.42,-3069.3 187.73,-2871 272.04,-2755.16 696.14,-2663.22 890.8,-2626.41"/>
<polygon fill="black" stroke="black" points="891.56,-2629.83 900.74,-2624.54 890.26,-2622.95 891.56,-2629.83"/>
</g>
<!-- u41 -->
<g id="node33" class="node">
<title>u41</title>
<ellipse fill="#77ff77" stroke="black" cx="419.73" cy="-3171" rx="223.66" ry="18"/>
<text text-anchor="middle" x="419.73" y="-3167.3" font-family="Times,serif" font-size="14.00">Language.Drasil.Code.Imperative.Parameters</text>
</g>
<!-- u41&#45;&gt;u20 -->
<g id="edge53" class="edge">
<title>u41&#45;&gt;u20</title>
<path fill="none" stroke="black" d="M419.73,-3152.91C419.73,-3105.95 419.73,-2974.65 419.73,-2917.34"/>
<polygon fill="black" stroke="black" points="423.23,-2917.23 419.73,-2907.23 416.23,-2917.23 423.23,-2917.23"/>
</g>
<!-- u41&#45;&gt;u31 -->
<g id="edge54" class="edge">
<title>u41&#45;&gt;u31</title>
<path fill="none" stroke="black" d="M390.84,-3153.1C316.5,-3107.49 129.67,-2978.09 206.73,-2871 288.74,-2757.04 704.03,-2663.92 893.84,-2626.59"/>
<polygon fill="black" stroke="black" points="894.67,-2630 903.81,-2624.64 893.32,-2623.13 894.67,-2630"/>
</g>
<!-- u37&#45;&gt;u50 -->
<g id="edge50" class="edge">
<title>u37&#45;&gt;u50</title>
<path fill="none" stroke="black" d="M1167.99,-3717.12C1053.54,-3668.49 723.37,-3528.2 597.9,-3474.89"/>
<polygon fill="black" stroke="black" points="599.09,-3471.6 588.52,-3470.91 596.36,-3478.04 599.09,-3471.6"/>
</g>
<!-- u30 -->
<g id="node41" class="node">
<title>u30</title>
<ellipse fill="#77ff77" stroke="black" cx="1207.73" cy="-3453" rx="233.16" ry="18"/>
<text text-anchor="middle" x="1207.73" y="-3449.3" font-family="Times,serif" font-size="14.00">Language.Drasil.Code.Imperative.FunctionCalls</text>
</g>
<!-- u37&#45;&gt;u30 -->
<g id="edge49" class="edge">
<title>u37&#45;&gt;u30</title>
<path fill="none" stroke="black" d="M1207.73,-3716.91C1207.73,-3669.95 1207.73,-3538.65 1207.73,-3481.34"/>
<polygon fill="black" stroke="black" points="1211.23,-3481.23 1207.73,-3471.23 1204.23,-3481.23 1211.23,-3481.23"/>
</g>
<!-- u36 -->
<g id="node35" class="node">
<title>u36</title>
<ellipse fill="#77ff77" stroke="black" cx="2530.73" cy="-2326" rx="213.36" ry="18"/>
<text text-anchor="middle" x="2530.73" y="-2322.3" font-family="Times,serif" font-size="14.00">Language.Drasil.Code.Imperative.README</text>
</g>
<!-- u36&#45;&gt;u58 -->
<g id="edge48" class="edge">
<title>u36&#45;&gt;u58</title>
<path fill="none" stroke="black" d="M2497.02,-2308.12C2400.1,-2259.57 2120.79,-2119.66 2013.97,-2066.16"/>
<polygon fill="black" stroke="black" points="2015.29,-2062.9 2004.78,-2061.55 2012.15,-2069.16 2015.29,-2062.9"/>
</g>
<!-- u35&#45;&gt;u22 -->
<g id="edge47" class="edge">
<title>u35&#45;&gt;u22</title>
<path fill="none" stroke="black" d="M209.99,-3716.93C180.08,-3649.37 73.73,-3393.59 73.73,-3172 73.73,-3172 73.73,-3172 73.73,-1197 73.73,-895.09 482.41,-712.56 635.09,-654.9"/>
<polygon fill="black" stroke="black" points="636.63,-658.06 644.77,-651.28 634.18,-651.51 636.63,-658.06"/>
</g>
<!-- u34 -->
<g id="node37" class="node">
<title>u34</title>
<ellipse fill="#77ff77" stroke="black" cx="1279.73" cy="-3171" rx="201.46" ry="18"/>
<text text-anchor="middle" x="1279.73" y="-3167.3" font-family="Times,serif" font-size="14.00">Language.Drasil.Code.Imperative.Import</text>
</g>
<!-- u34&#45;&gt;u20 -->
<g id="edge41" class="edge">
<title>u34&#45;&gt;u20</title>
<path fill="none" stroke="black" d="M1229.14,-3153.53C1079.79,-3104.9 641.15,-2962.09 480,-2909.62"/>
<polygon fill="black" stroke="black" points="480.85,-2906.22 470.25,-2906.45 478.68,-2912.87 480.85,-2906.22"/>
</g>
<!-- u33 -->
<g id="node38" class="node">
<title>u33</title>
<ellipse fill="#77ff77" stroke="black" cx="848.73" cy="-2889" rx="207.16" ry="18"/>
<text text-anchor="middle" x="848.73" y="-2885.3" font-family="Times,serif" font-size="14.00">Language.Drasil.Code.Imperative.Logging</text>
</g>
<!-- u34&#45;&gt;u33 -->
<g id="edge46" class="edge">
<title>u34&#45;&gt;u33</title>
<path fill="none" stroke="black" d="M1253.74,-3153.12C1179.56,-3104.93 966.83,-2966.72 883.14,-2912.36"/>
<polygon fill="black" stroke="black" points="885.05,-2909.42 874.75,-2906.91 881.23,-2915.29 885.05,-2909.42"/>
</g>
<!-- u32 -->
<g id="node39" class="node">
<title>u32</title>
<ellipse fill="#77ff77" stroke="black" cx="1279.73" cy="-2889" rx="206.06" ry="18"/>
<text text-anchor="middle" x="1279.73" y="-2885.3" font-family="Times,serif" font-size="14.00">Language.Drasil.Code.Imperative.Helpers</text>
</g>
<!-- u34&#45;&gt;u32 -->
<g id="edge45" class="edge">
<title>u34&#45;&gt;u32</title>
<path fill="none" stroke="black" d="M1279.73,-3152.91C1279.73,-3105.95 1279.73,-2974.65 1279.73,-2917.34"/>
<polygon fill="black" stroke="black" points="1283.23,-2917.23 1279.73,-2907.23 1276.23,-2917.23 1283.23,-2917.23"/>
</g>
<!-- u29 -->
<g id="node42" class="node">
<title>u29</title>
<ellipse fill="#77ff77" stroke="black" cx="1971.73" cy="-2326" rx="237.46" ry="18"/>
<text text-anchor="middle" x="1971.73" y="-2322.3" font-family="Times,serif" font-size="14.00">Language.Drasil.Code.Imperative.ConceptMatch</text>
</g>
<!-- u34&#45;&gt;u29 -->
<g id="edge44" class="edge">
<title>u34&#45;&gt;u29</title>
<path fill="none" stroke="black" d="M1425.13,-3158.52C1584.1,-3137.4 1832.23,-3077.41 1952.73,-2907 2077.52,-2730.53 2006.5,-2442.52 1980.22,-2353.84"/>
<polygon fill="black" stroke="black" points="1983.5,-2352.59 1977.25,-2344.03 1976.8,-2354.62 1983.5,-2352.59"/>
</g>
<!-- u27 -->
<g id="node44" class="node">
<title>u27</title>
<ellipse fill="#77ff77" stroke="black" cx="1723.73" cy="-2889" rx="219.86" ry="18"/>
<text text-anchor="middle" x="1723.73" y="-2885.3" font-family="Times,serif" font-size="14.00">Language.Drasil.Code.Imperative.Comments</text>
</g>
<!-- u34&#45;&gt;u27 -->
<g id="edge43" class="edge">
<title>u34&#45;&gt;u27</title>
<path fill="none" stroke="black" d="M1306.5,-3153.12C1382.92,-3104.93 1602.07,-2966.72 1688.28,-2912.36"/>
<polygon fill="black" stroke="black" points="1690.33,-2915.2 1696.92,-2906.91 1686.6,-2909.28 1690.33,-2915.2"/>
</g>
<!-- u26 -->
<g id="node45" class="node">
<title>u26</title>
<ellipse fill="#77ff77" stroke="black" cx="2239.73" cy="-2889" rx="240.46" ry="18"/>
<text text-anchor="middle" x="2239.73" y="-2885.3" font-family="Times,serif" font-size="14.00">Language.Drasil.Code.Imperative.GenerateGOOL</text>
</g>
<!-- u34&#45;&gt;u26 -->
<g id="edge42" class="edge">
<title>u34&#45;&gt;u26</title>
<path fill="none" stroke="black" d="M1335.85,-3153.63C1502.44,-3105.04 1993.69,-2961.76 2173.13,-2909.42"/>
<polygon fill="black" stroke="black" points="2174.35,-2912.72 2182.97,-2906.56 2172.39,-2906 2174.35,-2912.72"/>
</g>
<!-- u33&#45;&gt;u31 -->
<g id="edge40" class="edge">
<title>u33&#45;&gt;u31</title>
<path fill="none" stroke="black" d="M857.28,-2870.97C880.9,-2823.88 947.22,-2691.72 975.59,-2635.19"/>
<polygon fill="black" stroke="black" points="978.76,-2636.67 980.12,-2626.16 972.5,-2633.53 978.76,-2636.67"/>
</g>
<!-- u32&#45;&gt;u31 -->
<g id="edge39" class="edge">
<title>u32&#45;&gt;u31</title>
<path fill="none" stroke="black" d="M1261.97,-2870.97C1212.25,-2823.3 1071.57,-2688.43 1013.89,-2633.12"/>
<polygon fill="black" stroke="black" points="1016.27,-2630.56 1006.63,-2626.16 1011.43,-2635.61 1016.27,-2630.56"/>
</g>
<!-- u31&#45;&gt;u56 -->
<g id="edge38" class="edge">
<title>u31&#45;&gt;u56</title>
<path fill="none" stroke="black" d="M988.73,-2589.91C988.73,-2542.95 988.73,-2411.65 988.73,-2354.34"/>
<polygon fill="black" stroke="black" points="992.23,-2354.23 988.73,-2344.23 985.23,-2354.23 992.23,-2354.23"/>
</g>
<!-- u31&#45;&gt;u19 -->
<g id="edge37" class="edge">
<title>u31&#45;&gt;u19</title>
<path fill="none" stroke="black" d="M1000.75,-2589.73C1028.56,-2548.96 1097.71,-2442.69 1133.73,-2344 1207.72,-2141.26 1210.58,-1875.43 1209.39,-1790.4"/>
<polygon fill="black" stroke="black" points="1212.89,-1790.22 1209.22,-1780.28 1205.89,-1790.34 1212.89,-1790.22"/>
</g>
<!-- u30&#45;&gt;u41 -->
<g id="edge36" class="edge">
<title>u30&#45;&gt;u41</title>
<path fill="none" stroke="black" d="M1160.8,-3435.32C1023.95,-3386.7 625.67,-3245.18 476.78,-3192.27"/>
<polygon fill="black" stroke="black" points="477.51,-3188.82 466.91,-3188.77 475.17,-3195.41 477.51,-3188.82"/>
</g>
<!-- u30&#45;&gt;u34 -->
<g id="edge35" class="edge">
<title>u30&#45;&gt;u34</title>
<path fill="none" stroke="black" d="M1212.13,-3434.91C1224.23,-3387.85 1258.1,-3256.11 1272.79,-3198.99"/>
<polygon fill="black" stroke="black" points="1276.2,-3199.78 1275.3,-3189.23 1269.42,-3198.04 1276.2,-3199.78"/>
</g>
<!-- u29&#45;&gt;u58 -->
<g id="edge34" class="edge">
<title>u29&#45;&gt;u58</title>
<path fill="none" stroke="black" d="M1971.73,-2307.91C1971.73,-2260.95 1971.73,-2129.65 1971.73,-2072.34"/>
<polygon fill="black" stroke="black" points="1975.23,-2072.23 1971.73,-2062.23 1968.23,-2072.23 1975.23,-2072.23"/>
</g>
<!-- u28&#45;&gt;u58 -->
<g id="edge33" class="edge">
<title>u28&#45;&gt;u58</title>
<path fill="none" stroke="black" d="M1497.18,-2308.12C1584.57,-2259.66 1836.05,-2120.23 1932.99,-2066.48"/>
<polygon fill="black" stroke="black" points="1934.83,-2069.46 1941.88,-2061.55 1931.43,-2063.34 1934.83,-2069.46"/>
</g>
<!-- u28&#45;&gt;u16 -->
<g id="edge31" class="edge">
<title>u28&#45;&gt;u16</title>
<path fill="none" stroke="black" d="M1454.81,-2307.89C1419.54,-2258.31 1310.52,-2112.56 1189.73,-2026 1017.69,-1902.72 778.66,-1818.13 665.31,-1782.29"/>
<polygon fill="black" stroke="black" points="666.31,-1778.93 655.72,-1779.28 664.21,-1785.61 666.31,-1778.93"/>
</g>
<!-- u28&#45;&gt;u19 -->
<g id="edge32" class="edge">
<title>u28&#45;&gt;u19</title>
<path fill="none" stroke="black" d="M1458.87,-2307.87C1421.92,-2227.4 1265.49,-1886.65 1220.74,-1789.16"/>
<polygon fill="black" stroke="black" points="1223.88,-1787.62 1216.53,-1779.99 1217.52,-1790.54 1223.88,-1787.62"/>
</g>
<!-- u27&#45;&gt;u31 -->
<g id="edge30" class="edge">
<title>u27&#45;&gt;u31</title>
<path fill="none" stroke="black" d="M1679.68,-2871.28C1551.9,-2822.77 1181.36,-2682.12 1042.3,-2629.33"/>
<polygon fill="black" stroke="black" points="1043.28,-2625.96 1032.69,-2625.69 1040.8,-2632.51 1043.28,-2625.96"/>
</g>
<!-- u26&#45;&gt;u31 -->
<g id="edge28" class="edge">
<title>u26&#45;&gt;u31</title>
<path fill="none" stroke="black" d="M2167.06,-2871.79C1948.94,-2823.15 1300.77,-2678.59 1070.79,-2627.3"/>
<polygon fill="black" stroke="black" points="1071.34,-2623.84 1060.82,-2625.08 1069.81,-2630.67 1071.34,-2623.84"/>
</g>
<!-- u42 -->
<g id="node50" class="node">
<title>u42</title>
<ellipse fill="#ff7777" stroke="black" cx="2621.73" cy="-2608" rx="267.25" ry="18"/>
<text text-anchor="middle" x="2621.73" y="-2604.3" font-family="Times,serif" font-size="14.00">Language.Drasil.Code.Imperative.GOOL.ClassInterface</text>
</g>
<!-- u26&#45;&gt;u42 -->
<g id="edge29" class="edge">
<title>u26&#45;&gt;u42</title>
<path fill="none" stroke="black" d="M2263.05,-2870.97C2328.72,-2823.01 2515.25,-2686.77 2590.09,-2632.11"/>
<polygon fill="black" stroke="black" points="2592.22,-2634.89 2598.23,-2626.16 2588.09,-2629.24 2592.22,-2634.89"/>
</g>
<!-- u25 -->
<g id="node46" class="node">
<title>u25</title>
<ellipse fill="#77ff77" stroke="black" cx="3417.73" cy="-1480" rx="219.86" ry="18"/>
<text text-anchor="middle" x="3417.73" y="-1476.3" font-family="Times,serif" font-size="14.00">Language.Drasil.Code.Imperative.WriteInput</text>
</g>
<!-- u25&#45;&gt;u22 -->
<g id="edge27" class="edge">
<title>u25&#45;&gt;u22</title>
<path fill="none" stroke="black" d="M3364.5,-1462.52C3021.09,-1356.2 1120.88,-767.87 753.31,-654.06"/>
<polygon fill="black" stroke="black" points="754.23,-650.69 743.64,-651.07 752.15,-657.37 754.23,-650.69"/>
</g>
<!-- u40 -->
<g id="node47" class="node">
<title>u40</title>
<ellipse fill="#ffff77" stroke="black" cx="3993.73" cy="-2326" rx="215.56" ry="18"/>
<text text-anchor="middle" x="3993.73" y="-2322.3" font-family="Times,serif" font-size="14.00">Language.Drasil.Code.Imperative.Build.AST</text>
</g>
<!-- u39 -->
<g id="node48" class="node">
<title>u39</title>
<ellipse fill="#ffff77" stroke="black" cx="3993.73" cy="-2608" rx="228.56" ry="18"/>
<text text-anchor="middle" x="3993.73" y="-2604.3" font-family="Times,serif" font-size="14.00">Language.Drasil.Code.Imperative.Build.Import</text>
</g>
<!-- u39&#45;&gt;u40 -->
<g id="edge52" class="edge">
<title>u39&#45;&gt;u40</title>
<path fill="none" stroke="black" d="M3993.73,-2589.91C3993.73,-2542.95 3993.73,-2411.65 3993.73,-2354.34"/>
<polygon fill="black" stroke="black" points="3997.23,-2354.23 3993.73,-2344.23 3990.23,-2354.23 3997.23,-2354.23"/>
</g>
<!-- u38 -->
<g id="node49" class="node">
<title>u38</title>
<ellipse fill="#7777ff" stroke="black" cx="3501.73" cy="-2608" rx="245.06" ry="18"/>
<text text-anchor="middle" x="3501.73" y="-2604.3" font-family="Times,serif" font-size="14.00">Language.Drasil.Code.Imperative.Doxygen.Import</text>
</g>
<!-- u38&#45;&gt;u58 -->
<g id="edge51" class="edge">
<title>u38&#45;&gt;u58</title>
<path fill="none" stroke="black" d="M3461.84,-2590.17C3350.47,-2543.4 3026.4,-2408.62 2752.73,-2308 2485.75,-2209.84 2162.39,-2105.52 2031.26,-2063.81"/>
<polygon fill="black" stroke="black" points="2031.99,-2060.37 2021.4,-2060.68 2029.87,-2067.04 2031.99,-2060.37"/>
</g>
<!-- u42&#45;&gt;u36 -->
<g id="edge55" class="edge">
<title>u42&#45;&gt;u36</title>
<path fill="none" stroke="black" d="M2616.18,-2589.91C2600.88,-2542.85 2558.07,-2411.11 2539.5,-2353.99"/>
<polygon fill="black" stroke="black" points="2542.75,-2352.65 2536.33,-2344.23 2536.09,-2354.82 2542.75,-2352.65"/>
</g>
<!-- u49 -->
<g id="node51" class="node">
<title>u49</title>
<ellipse fill="#77ffff" stroke="black" cx="3993.73" cy="-2889" rx="393.73" ry="18"/>
<text text-anchor="middle" x="3993.73" y="-2885.3" font-family="Times,serif" font-size="14.00">Language.Drasil.Code.Imperative.GOOL.LanguageRenderer.LanguagePolymorphic</text>
</g>
<!-- u49&#45;&gt;u23 -->
<g id="edge62" class="edge">
<title>u49&#45;&gt;u23</title>
<path fill="none" stroke="black" d="M3938.19,-2871.18C3776.34,-2822.15 3305.8,-2679.6 3135.33,-2627.96"/>
<polygon fill="black" stroke="black" points="3136.33,-2624.61 3125.74,-2625.06 3134.3,-2631.31 3136.33,-2624.61"/>
</g>
<!-- u49&#45;&gt;u25 -->
<g id="edge63" class="edge">
<title>u49&#45;&gt;u25</title>
<path fill="none" stroke="black" d="M4017.54,-2871C4067.87,-2833.5 4184.3,-2738.05 4231.73,-2626 4283.64,-2503.38 4250.73,-2460.16 4250.73,-2327 4250.73,-2327 4250.73,-2327 4250.73,-2043 4250.73,-1691.21 3733.88,-1544.93 3514.42,-1498.67"/>
<polygon fill="black" stroke="black" points="3515.02,-1495.22 3504.52,-1496.61 3513.6,-1502.07 3515.02,-1495.22"/>
</g>
<!-- u49&#45;&gt;u39 -->
<g id="edge65" class="edge">
<title>u49&#45;&gt;u39</title>
<path fill="none" stroke="black" d="M3993.73,-2870.97C3993.73,-2824.17 3993.73,-2693.35 3993.73,-2636.24"/>
<polygon fill="black" stroke="black" points="3997.23,-2636.16 3993.73,-2626.16 3990.23,-2636.16 3997.23,-2636.16"/>
</g>
<!-- u49&#45;&gt;u38 -->
<g id="edge64" class="edge">
<title>u49&#45;&gt;u38</title>
<path fill="none" stroke="black" d="M3963.69,-2870.97C3878.5,-2822.66 3635.37,-2684.78 3540.4,-2630.93"/>
<polygon fill="black" stroke="black" points="3542.11,-2627.87 3531.69,-2625.99 3538.66,-2633.96 3542.11,-2627.87"/>
</g>
<!-- u49&#45;&gt;u42 -->
<g id="edge66" class="edge">
<title>u49&#45;&gt;u42</title>
<path fill="none" stroke="black" d="M3912.01,-2871.38C3670.78,-2822.33 2962.92,-2678.38 2711.56,-2627.27"/>
<polygon fill="black" stroke="black" points="2712.22,-2623.83 2701.73,-2625.27 2710.83,-2630.69 2712.22,-2623.83"/>
</g>
<!-- u48&#45;&gt;u49 -->
<g id="edge61" class="edge">
<title>u48&#45;&gt;u49</title>
<path fill="none" stroke="black" d="M4385.27,-3152.91C4313.36,-3104.62 4108.66,-2967.17 4027.49,-2912.67"/>
<polygon fill="black" stroke="black" points="4029.37,-2909.72 4019.12,-2907.05 4025.47,-2915.53 4029.37,-2909.72"/>
</g>
<!-- u47&#45;&gt;u49 -->
<g id="edge60" class="edge">
<title>u47&#45;&gt;u49</title>
<path fill="none" stroke="black" d="M5072.42,-3153.32C4871.84,-3104.36 4285.37,-2961.19 4072.27,-2909.17"/>
<polygon fill="black" stroke="black" points="4072.96,-2905.74 4062.41,-2906.77 4071.3,-2912.54 4072.96,-2905.74"/>
</g>
<!-- u46&#45;&gt;u49 -->
<g id="edge59" class="edge">
<title>u46&#45;&gt;u49</title>
<path fill="none" stroke="black" d="M5771.47,-3153.79C5441.57,-3104.84 4457.27,-2958.78 4113.68,-2907.8"/>
<polygon fill="black" stroke="black" points="4114.11,-2904.32 4103.7,-2906.32 4113.08,-2911.25 4114.11,-2904.32"/>
</g>
<!-- u45&#45;&gt;u49 -->
<g id="edge58" class="edge">
<title>u45&#45;&gt;u49</title>
<path fill="none" stroke="black" d="M6477.64,-3154.55C6022.19,-3106.04 4623.21,-2957.04 4151.16,-2906.77"/>
<polygon fill="black" stroke="black" points="4151.52,-2903.29 4141.21,-2905.71 4150.78,-2910.25 4151.52,-2903.29"/>
</g>
<!-- u44&#45;&gt;u49 -->
<g id="edge57" class="edge">
<title>u44&#45;&gt;u49</title>
<path fill="none" stroke="black" d="M3003.84,-3153.22C3187.99,-3104.25 3724.04,-2961.71 3920.48,-2909.48"/>
<polygon fill="black" stroke="black" points="3921.65,-2912.79 3930.41,-2906.84 3919.85,-2906.02 3921.65,-2912.79"/>
</g>
<!-- u43&#45;&gt;u49 -->
<g id="edge56" class="edge">
<title>u43&#45;&gt;u49</title>
<path fill="none" stroke="black" d="M3698.9,-3152.91C3752.55,-3105.07 3904.34,-2969.71 3966.59,-2914.2"/>
<polygon fill="black" stroke="black" points="3969.28,-2916.49 3974.41,-2907.23 3964.62,-2911.27 3969.28,-2916.49"/>
</g>
<!-- u10&#45;&gt;u17 -->
<g id="edge15" class="edge">
<title>u10&#45;&gt;u17</title>
<path fill="none" stroke="black" d="M351.03,-1179.73C365.13,-1108.03 424,-827.76 521.73,-616 564.86,-522.55 637.16,-423.5 671.91,-378.23"/>
<polygon fill="black" stroke="black" points="674.79,-380.21 678.14,-370.16 669.26,-375.93 674.79,-380.21"/>
</g>
<!-- u9&#45;&gt;u55 -->
<g id="edge14" class="edge">
<title>u9&#45;&gt;u55</title>
<path fill="none" stroke="black" d="M1036.75,-1462.12C977.16,-1414.17 806.82,-1277.12 738.55,-1222.19"/>
<polygon fill="black" stroke="black" points="740.73,-1219.45 730.74,-1215.91 736.34,-1224.9 740.73,-1219.45"/>
</g>
<!-- u9&#45;&gt;u54 -->
<g id="edge13" class="edge">
<title>u9&#45;&gt;u54</title>
<path fill="none" stroke="black" d="M1057.73,-1461.91C1057.73,-1414.95 1057.73,-1283.65 1057.73,-1226.34"/>
<polygon fill="black" stroke="black" points="1061.23,-1226.23 1057.73,-1216.23 1054.23,-1226.23 1061.23,-1226.23"/>
</g>
<!-- u9&#45;&gt;u24 -->
<g id="edge12" class="edge">
<title>u9&#45;&gt;u24</title>
<path fill="none" stroke="black" d="M1079.74,-1462.12C1142.24,-1414.17 1320.9,-1277.12 1392.5,-1222.19"/>
<polygon fill="black" stroke="black" points="1394.89,-1224.77 1400.69,-1215.91 1390.63,-1219.22 1394.89,-1224.77"/>
</g>
<!-- u9&#45;&gt;u10 -->
<g id="edge11" class="edge">
<title>u9&#45;&gt;u10</title>
<path fill="none" stroke="black" d="M1015.97,-1462.53C893.16,-1414.1 533.41,-1272.23 399.09,-1219.26"/>
<polygon fill="black" stroke="black" points="400.03,-1215.86 389.44,-1215.45 397.46,-1222.37 400.03,-1215.86"/>
</g>
<!-- u5 -->
<g id="node60" class="node">
<title>u5</title>
<ellipse fill="#33ff33" stroke="black" cx="1399.73" cy="-4581" rx="108.58" ry="18"/>
<text text-anchor="middle" x="1399.73" y="-4577.3" font-family="Times,serif" font-size="14.00">drasil&#45;code.test.Main</text>
</g>
<!-- u5&#45;&gt;u4 -->
<g id="edge5" class="edge">
<title>u5&#45;&gt;u4</title>
<path fill="none" stroke="black" d="M1373.46,-4563.32C1297.34,-4514.99 1076.64,-4374.87 992.17,-4321.23"/>
<polygon fill="black" stroke="black" points="993.81,-4318.12 983.49,-4315.72 990.05,-4324.03 993.81,-4318.12"/>
</g>
<!-- u5&#45;&gt;u3 -->
<g id="edge4" class="edge">
<title>u5&#45;&gt;u3</title>
<path fill="none" stroke="black" d="M1381.35,-4562.91C1329.68,-4514.84 1183.04,-4378.42 1123.91,-4323.42"/>
<polygon fill="black" stroke="black" points="1126.19,-4320.77 1116.49,-4316.52 1121.43,-4325.89 1126.19,-4320.77"/>
</g>
<!-- u5&#45;&gt;u2 -->
<g id="edge3" class="edge">
<title>u5&#45;&gt;u2</title>
<path fill="none" stroke="black" d="M1390.76,-4562.91C1365.95,-4515.65 1296.31,-4383.01 1266.53,-4326.28"/>
<polygon fill="black" stroke="black" points="1269.52,-4324.45 1261.77,-4317.23 1263.32,-4327.71 1269.52,-4324.45"/>
</g>
<!-- u5&#45;&gt;u0 -->
<g id="edge2" class="edge">
<title>u5&#45;&gt;u0</title>
<path fill="none" stroke="black" d="M1399.73,-4562.91C1399.73,-4515.95 1399.73,-4384.65 1399.73,-4327.34"/>
<polygon fill="black" stroke="black" points="1403.23,-4327.23 1399.73,-4317.23 1396.23,-4327.23 1403.23,-4327.23"/>
</g>
<!-- u5&#45;&gt;u7 -->
<g id="edge6" class="edge">
<title>u5&#45;&gt;u7</title>
<path fill="none" stroke="black" d="M1409.86,-4562.91C1437.94,-4515.56 1516.84,-4382.46 1550.36,-4325.93"/>
<polygon fill="black" stroke="black" points="1553.43,-4327.61 1555.52,-4317.23 1547.41,-4324.04 1553.43,-4327.61"/>
</g>
<!-- u5&#45;&gt;u59 -->
<g id="edge8" class="edge">
<title>u5&#45;&gt;u59</title>
<path fill="none" stroke="black" d="M1423.14,-4563.32C1490.28,-4515.48 1683.64,-4377.72 1760.59,-4322.9"/>
<polygon fill="black" stroke="black" points="1762.84,-4325.6 1768.95,-4316.94 1758.77,-4319.9 1762.84,-4325.6"/>
</g>
<!-- u5&#45;&gt;u57 -->
<g id="edge7" class="edge">
<title>u5&#45;&gt;u57</title>
<path fill="none" stroke="black" d="M1441.72,-4564.3C1775.05,-4439.65 3989.88,-3611.38 4358.71,-3473.45"/>
<polygon fill="black" stroke="black" points="4360.19,-3476.64 4368.33,-3469.86 4357.74,-3470.08 4360.19,-3476.64"/>
</g>
</g>
</svg>
