<?xml version="1.0" encoding="UTF-8" standalone="no"?>
<!DOCTYPE svg PUBLIC "-//W3C//DTD SVG 1.1//EN"
 "http://www.w3.org/Graphics/SVG/1.1/DTD/svg11.dtd">
<!-- Generated by graphviz version 2.43.0 (0)
 -->
<!-- Title: G Pages: 1 -->
<svg width="430pt" height="288pt"
 viewBox="0.00 0.00 430.21 288.00" xmlns="http://www.w3.org/2000/svg" xmlns:xlink="http://www.w3.org/1999/xlink">
<g id="graph0" class="graph" transform="scale(2.05 2.05) rotate(0) translate(4 586)">
<title>G</title>
<polygon fill="white" stroke="transparent" points="-4,4 -4,-586 877.33,-586 877.33,4 -4,4"/>
<!-- u0 -->
<g id="node1" class="node">
<title>u0</title>
<ellipse fill="#bbffbb" stroke="black" cx="439.04" cy="-524" rx="63.89" ry="18"/>
<text text-anchor="middle" x="439.04" y="-520.3" font-family="Times,serif" font-size="14.00">Utils.Drasil</text>
</g>
<!-- u5 -->
<g id="node2" class="node">
<title>u5</title>
<ellipse fill="#ffffbb" stroke="black" cx="102.04" cy="-291" rx="102.08" ry="18"/>
<text text-anchor="middle" x="102.04" y="-287.3" font-family="Times,serif" font-size="14.00">Utils.Drasil.English</text>
</g>
<!-- u0&#45;&gt;u5 -->
<g id="edge4" class="edge">
<title>u0&#45;&gt;u5</title>
<path fill="none" stroke="black" d="M415.88,-507.12C357.24,-466.93 202.79,-361.06 134.88,-314.51"/>
<polygon fill="black" stroke="black" points="136.5,-311.37 126.27,-308.61 132.54,-317.15 136.5,-311.37"/>
</g>
<!-- u3 -->
<g id="node4" class="node">
<title>u3</title>
<ellipse fill="#ffffbb" stroke="black" cx="323.04" cy="-291" rx="100.98" ry="18"/>
<text text-anchor="middle" x="323.04" y="-287.3" font-family="Times,serif" font-size="14.00">Utils.Drasil.Strings</text>
</g>
<!-- u0&#45;&gt;u3 -->
<g id="edge3" class="edge">
<title>u0&#45;&gt;u3</title>
<path fill="none" stroke="black" d="M430.51,-506.01C410.44,-466.05 360.13,-365.85 336.15,-318.1"/>
<polygon fill="black" stroke="black" points="339.2,-316.38 331.58,-309.01 332.94,-319.52 339.2,-316.38"/>
</g>
<!-- u2 -->
<g id="node5" class="node">
<title>u2</title>
<ellipse fill="#ffffbb" stroke="black" cx="556.04" cy="-291" rx="114.28" ry="18"/>
<text text-anchor="middle" x="556.04" y="-287.3" font-family="Times,serif" font-size="14.00">Utils.Drasil.Document</text>
</g>
<!-- u0&#45;&gt;u2 -->
<g id="edge2" class="edge">
<title>u0&#45;&gt;u2</title>
<path fill="none" stroke="black" d="M447.64,-506.01C467.89,-466.05 518.64,-365.85 542.82,-318.1"/>
<polygon fill="black" stroke="black" points="546.03,-319.51 547.43,-309.01 539.78,-316.35 546.03,-319.51"/>
</g>
<!-- u1 -->
<g id="node6" class="node">
<title>u1</title>
<ellipse fill="#ffffbb" stroke="black" cx="781.04" cy="-291" rx="92.08" ry="18"/>
<text text-anchor="middle" x="781.04" y="-287.3" font-family="Times,serif" font-size="14.00">Utils.Drasil.Maps</text>
</g>
<!-- u0&#45;&gt;u1 -->
<g id="edge1" class="edge">
<title>u0&#45;&gt;u1</title>
<path fill="none" stroke="black" d="M462.55,-507.12C522.17,-466.85 679.44,-360.63 748.14,-314.22"/>
<polygon fill="black" stroke="black" points="750.13,-317.1 756.45,-308.61 746.21,-311.3 750.13,-317.1"/>
</g>
<!-- u4 -->
<g id="node3" class="node">
<title>u4</title>
<ellipse fill="#ffffbb" stroke="black" cx="323.04" cy="-58" rx="89.08" ry="18"/>
<text text-anchor="middle" x="323.04" y="-54.3" font-family="Times,serif" font-size="14.00">Utils.Drasil.Lists</text>
</g>
<!-- u3&#45;&gt;u4 -->
<g id="edge5" class="edge">
<title>u3&#45;&gt;u4</title>
<path fill="none" stroke="black" d="M323.04,-272.64C323.04,-232.82 323.04,-134.69 323.04,-86.54"/>
<polygon fill="black" stroke="black" points="326.54,-86.25 323.04,-76.25 319.54,-86.25 326.54,-86.25"/>
</g>
</g>
</svg>
