<?xml version="1.0" encoding="UTF-8" standalone="no"?>
<!DOCTYPE svg PUBLIC "-//W3C//DTD SVG 1.1//EN"
 "http://www.w3.org/Graphics/SVG/1.1/DTD/svg11.dtd">
<!-- Generated by graphviz version 2.43.0 (0)
 -->
<!-- Title: G Pages: 1 -->
<svg width="432pt" height="288pt"
 viewBox="0.00 0.00 431.64 288.00" xmlns="http://www.w3.org/2000/svg" xmlns:xlink="http://www.w3.org/1999/xlink">
<g id="graph0" class="graph" transform="scale(0.1 0.1) rotate(0) translate(4 3008)">
<title>G</title>
<polygon fill="white" stroke="transparent" points="-4,4 -4,-3008 4510.28,-3008 4510.28,4 -4,4"/>
<!-- u32 -->
<g id="node1" class="node">
<title>u32</title>
<ellipse fill="#bbffbb" stroke="black" cx="391.34" cy="-2209" rx="115.08" ry="18"/>
<text text-anchor="middle" x="391.34" y="-2205.3" font-family="Times,serif" font-size="14.00">Drasil.ExtractLsnDesc</text>
</g>
<!-- u17 -->
<g id="node5" class="node">
<title>u17</title>
<ellipse fill="#bbffbb" stroke="black" cx="561.34" cy="-1855" rx="116.18" ry="18"/>
<text text-anchor="middle" x="561.34" y="-1851.3" font-family="Times,serif" font-size="14.00">Drasil.ExtractDocDesc</text>
</g>
<!-- u32&#45;&gt;u17 -->
<g id="edge63" class="edge">
<title>u32&#45;&gt;u17</title>
<path fill="none" stroke="black" d="M399.54,-2191.02C426.91,-2134.35 515.28,-1951.36 548.53,-1882.52"/>
<polygon fill="black" stroke="black" points="551.82,-1883.75 553.02,-1873.22 545.52,-1880.7 551.82,-1883.75"/>
</g>
<!-- u23 -->
<g id="node20" class="node">
<title>u23</title>
<ellipse fill="#bbffff" stroke="black" cx="221.34" cy="-1855" rx="206.06" ry="18"/>
<text text-anchor="middle" x="221.34" y="-1851.3" font-family="Times,serif" font-size="14.00">Drasil.DocumentLanguage.Notebook.Core</text>
</g>
<!-- u32&#45;&gt;u23 -->
<g id="edge64" class="edge">
<title>u32&#45;&gt;u23</title>
<path fill="none" stroke="black" d="M383.14,-2191.02C355.77,-2134.35 267.39,-1951.36 234.15,-1882.52"/>
<polygon fill="black" stroke="black" points="237.16,-1880.7 229.65,-1873.22 230.85,-1883.75 237.16,-1880.7"/>
</g>
<!-- u31 -->
<g id="node2" class="node">
<title>u31</title>
<ellipse fill="#bbffbb" stroke="black" cx="2169.34" cy="-2562" rx="81.79" ry="18"/>
<text text-anchor="middle" x="2169.34" y="-2558.3" font-family="Times,serif" font-size="14.00">Drasil.DocLang</text>
</g>
<!-- u30 -->
<g id="node3" class="node">
<title>u30</title>
<ellipse fill="#bbffbb" stroke="black" cx="2169.34" cy="-2209" rx="133.78" ry="18"/>
<text text-anchor="middle" x="2169.34" y="-2205.3" font-family="Times,serif" font-size="14.00">Drasil.DocumentLanguage</text>
</g>
<!-- u31&#45;&gt;u30 -->
<g id="edge62" class="edge">
<title>u31&#45;&gt;u30</title>
<path fill="none" stroke="black" d="M2169.34,-2543.59C2169.34,-2486.74 2169.34,-2306.19 2169.34,-2237.18"/>
<polygon fill="black" stroke="black" points="2172.84,-2237.1 2169.34,-2227.1 2165.84,-2237.1 2172.84,-2237.1"/>
</g>
<!-- u30&#45;&gt;u17 -->
<g id="edge59" class="edge">
<title>u30&#45;&gt;u17</title>
<path fill="none" stroke="black" d="M2102.55,-2193.38C1843.68,-2136.71 907.49,-1931.77 635.76,-1872.29"/>
<polygon fill="black" stroke="black" points="636.13,-1868.79 625.61,-1870.07 634.63,-1875.63 636.13,-1868.79"/>
</g>
<!-- u16 -->
<g id="node6" class="node">
<title>u16</title>
<ellipse fill="#bbffbb" stroke="black" cx="1266.34" cy="-1855" rx="79.09" ry="18"/>
<text text-anchor="middle" x="1266.34" y="-1851.3" font-family="Times,serif" font-size="14.00">Drasil.DocDecl</text>
</g>
<!-- u30&#45;&gt;u16 -->
<g id="edge58" class="edge">
<title>u30&#45;&gt;u16</title>
<path fill="none" stroke="black" d="M2127.89,-2191.84C1979.14,-2133.86 1472.57,-1936.39 1314.11,-1874.62"/>
<polygon fill="black" stroke="black" points="1315.21,-1871.3 1304.62,-1870.92 1312.67,-1877.82 1315.21,-1871.3"/>
</g>
<!-- u13 -->
<g id="node8" class="node">
<title>u13</title>
<ellipse fill="#bbffbb" stroke="black" cx="1701.34" cy="-1855" rx="92.08" ry="18"/>
<text text-anchor="middle" x="1701.34" y="-1851.3" font-family="Times,serif" font-size="14.00">Drasil.TraceTable</text>
</g>
<!-- u30&#45;&gt;u13 -->
<g id="edge57" class="edge">
<title>u30&#45;&gt;u13</title>
<path fill="none" stroke="black" d="M2146.77,-2191.02C2069.99,-2133.28 1818.88,-1944.41 1731.58,-1878.74"/>
<polygon fill="black" stroke="black" points="1733.51,-1875.82 1723.41,-1872.6 1729.3,-1881.41 1733.51,-1875.82"/>
</g>
<!-- u22 -->
<g id="node10" class="node">
<title>u22</title>
<ellipse fill="#ffffbb" stroke="black" cx="2169.34" cy="-1855" rx="136.48" ry="18"/>
<text text-anchor="middle" x="2169.34" y="-1851.3" font-family="Times,serif" font-size="14.00">Drasil.DocLang.References</text>
</g>
<!-- u30&#45;&gt;u22 -->
<g id="edge60" class="edge">
<title>u30&#45;&gt;u22</title>
<path fill="none" stroke="black" d="M2169.34,-2190.54C2169.34,-2133.53 2169.34,-1952.47 2169.34,-1883.26"/>
<polygon fill="black" stroke="black" points="2172.84,-1883.15 2169.34,-1873.15 2165.84,-1883.15 2172.84,-1883.15"/>
</g>
<!-- u28 -->
<g id="node15" class="node">
<title>u28</title>
<ellipse fill="#ffbbbb" stroke="black" cx="2645.34" cy="-1855" rx="220.96" ry="18"/>
<text text-anchor="middle" x="2645.34" y="-1851.3" font-family="Times,serif" font-size="14.00">Drasil.DocumentLanguage.TraceabilityGraph</text>
</g>
<!-- u30&#45;&gt;u28 -->
<g id="edge61" class="edge">
<title>u30&#45;&gt;u28</title>
<path fill="none" stroke="black" d="M2191.98,-2191.26C2269.57,-2133.88 2524.88,-1945.08 2614.17,-1879.05"/>
<polygon fill="black" stroke="black" points="2616.32,-1881.81 2622.28,-1873.05 2612.16,-1876.18 2616.32,-1881.81"/>
</g>
<!-- u10 -->
<g id="node23" class="node">
<title>u10</title>
<ellipse fill="#ffbbff" stroke="black" cx="764.34" cy="-1502" rx="161.37" ry="18"/>
<text text-anchor="middle" x="764.34" y="-1498.3" font-family="Times,serif" font-size="14.00">Drasil.Sections.TableOfContents</text>
</g>
<!-- u30&#45;&gt;u10 -->
<g id="edge56" class="edge">
<title>u30&#45;&gt;u10</title>
<path fill="none" stroke="black" d="M2157.18,-2190.76C2115.03,-2132.24 1968.68,-1939.23 1802.34,-1837 1490.39,-1645.29 1057.3,-1552.61 864.19,-1518.75"/>
<polygon fill="black" stroke="black" points="864.51,-1515.25 854.06,-1516.99 863.31,-1522.15 864.51,-1515.25"/>
</g>
<!-- u9 -->
<g id="node24" class="node">
<title>u9</title>
<ellipse fill="#ffbbff" stroke="black" cx="3718.34" cy="-1502" rx="163.27" ry="18"/>
<text text-anchor="middle" x="3718.34" y="-1498.3" font-family="Times,serif" font-size="14.00">Drasil.Sections.GeneralSystDesc</text>
</g>
<!-- u30&#45;&gt;u9 -->
<g id="edge55" class="edge">
<title>u30&#45;&gt;u9</title>
<path fill="none" stroke="black" d="M2205.35,-2191.61C2411.67,-2097.71 3442.62,-1628.49 3672.74,-1523.75"/>
<polygon fill="black" stroke="black" points="3674.19,-1526.94 3681.84,-1519.61 3671.29,-1520.57 3674.19,-1526.94"/>
</g>
<!-- u7 -->
<g id="node26" class="node">
<title>u7</title>
<ellipse fill="#ffbbff" stroke="black" cx="2995.34" cy="-1502" rx="141.88" ry="18"/>
<text text-anchor="middle" x="2995.34" y="-1498.3" font-family="Times,serif" font-size="14.00">Drasil.Sections.Introduction</text>
</g>
<!-- u30&#45;&gt;u7 -->
<g id="edge54" class="edge">
<title>u30&#45;&gt;u7</title>
<path fill="none" stroke="black" d="M2241.3,-2193.74C2383.32,-2161.87 2700.98,-2071.52 2875.34,-1873 2966.1,-1769.66 2988.4,-1596.57 2993.72,-1530.11"/>
<polygon fill="black" stroke="black" points="2997.22,-1530.27 2994.46,-1520.04 2990.24,-1529.75 2997.22,-1530.27"/>
</g>
<!-- u5 -->
<g id="node28" class="node">
<title>u5</title>
<ellipse fill="#ffbbff" stroke="black" cx="4361.34" cy="-1502" rx="144.87" ry="18"/>
<text text-anchor="middle" x="4361.34" y="-1498.3" font-family="Times,serif" font-size="14.00">Drasil.Sections.Stakeholders</text>
</g>
<!-- u30&#45;&gt;u5 -->
<g id="edge53" class="edge">
<title>u30&#45;&gt;u5</title>
<path fill="none" stroke="black" d="M2218.46,-2192.2C2507.49,-2099.24 3984.88,-1624.08 4301.54,-1522.23"/>
<polygon fill="black" stroke="black" points="4302.99,-1525.44 4311.44,-1519.05 4300.85,-1518.78 4302.99,-1525.44"/>
</g>
<!-- u18 -->
<g id="node4" class="node">
<title>u18</title>
<ellipse fill="#bbffbb" stroke="black" cx="2169.34" cy="-2916" rx="108.58" ry="18"/>
<text text-anchor="middle" x="2169.34" y="-2912.3" font-family="Times,serif" font-size="14.00">Drasil.SRSDocument</text>
</g>
<!-- u18&#45;&gt;u31 -->
<g id="edge35" class="edge">
<title>u18&#45;&gt;u31</title>
<path fill="none" stroke="black" d="M2169.34,-2897.54C2169.34,-2840.53 2169.34,-2659.47 2169.34,-2590.26"/>
<polygon fill="black" stroke="black" points="2172.84,-2590.15 2169.34,-2580.15 2165.84,-2590.15 2172.84,-2590.15"/>
</g>
<!-- u0 -->
<g id="node9" class="node">
<title>u0</title>
<ellipse fill="#bbffbb" stroke="black" cx="354.34" cy="-1502" rx="116.98" ry="18"/>
<text text-anchor="middle" x="354.34" y="-1498.3" font-family="Times,serif" font-size="14.00">Drasil.ExtractCommon</text>
</g>
<!-- u17&#45;&gt;u0 -->
<g id="edge32" class="edge">
<title>u17&#45;&gt;u0</title>
<path fill="none" stroke="black" d="M551.07,-1836.59C517.34,-1779.39 409.75,-1596.96 369.62,-1528.91"/>
<polygon fill="black" stroke="black" points="372.52,-1526.93 364.42,-1520.1 366.49,-1530.49 372.52,-1526.93"/>
</g>
<!-- u29 -->
<g id="node14" class="node">
<title>u29</title>
<ellipse fill="#ffbbbb" stroke="black" cx="1121.34" cy="-1149" rx="159.47" ry="18"/>
<text text-anchor="middle" x="1121.34" y="-1145.3" font-family="Times,serif" font-size="14.00">Drasil.DocumentLanguage.Core</text>
</g>
<!-- u17&#45;&gt;u29 -->
<g id="edge34" class="edge">
<title>u17&#45;&gt;u29</title>
<path fill="none" stroke="black" d="M554.41,-1837.02C533.03,-1781.66 473.49,-1603.19 542.34,-1484 651.66,-1294.74 913.52,-1203.17 1044.3,-1168"/>
<polygon fill="black" stroke="black" points="1045.48,-1171.31 1054.25,-1165.36 1043.68,-1164.54 1045.48,-1171.31"/>
</g>
<!-- u4 -->
<g id="node29" class="node">
<title>u4</title>
<ellipse fill="#ffbbff" stroke="black" cx="2169.34" cy="-1502" rx="207.96" ry="18"/>
<text text-anchor="middle" x="2169.34" y="-1498.3" font-family="Times,serif" font-size="14.00">Drasil.Sections.SpecificSystemDescription</text>
</g>
<!-- u17&#45;&gt;u4 -->
<g id="edge33" class="edge">
<title>u17&#45;&gt;u4</title>
<path fill="none" stroke="black" d="M625.87,-1839.91C879.02,-1784.65 1804.31,-1582.68 2086.85,-1521.01"/>
<polygon fill="black" stroke="black" points="2087.6,-1524.42 2096.63,-1518.87 2086.11,-1517.58 2087.6,-1524.42"/>
</g>
<!-- u16&#45;&gt;u29 -->
<g id="edge31" class="edge">
<title>u16&#45;&gt;u29</title>
<path fill="none" stroke="black" d="M1198.48,-1845.57C1051.52,-1823.24 705.46,-1747.75 561.34,-1520 436.68,-1323 848.9,-1207.93 1034.97,-1167.06"/>
<polygon fill="black" stroke="black" points="1035.98,-1170.42 1045.01,-1164.87 1034.5,-1163.58 1035.98,-1170.42"/>
</g>
<!-- u15 -->
<g id="node7" class="node">
<title>u15</title>
<ellipse fill="#bbffbb" stroke="black" cx="2169.34" cy="-442" rx="92.88" ry="18"/>
<text text-anchor="middle" x="2169.34" y="-438.3" font-family="Times,serif" font-size="14.00">Drasil.GetChunks</text>
</g>
<!-- u13&#45;&gt;u29 -->
<g id="edge29" class="edge">
<title>u13&#45;&gt;u29</title>
<path fill="none" stroke="black" d="M1629.72,-1843.54C1405.12,-1809.15 721.97,-1691.83 594.34,-1520 459.24,-1338.12 868.34,-1212.32 1044.66,-1167.8"/>
<polygon fill="black" stroke="black" points="1045.56,-1171.19 1054.41,-1165.37 1043.86,-1164.4 1045.56,-1171.19"/>
</g>
<!-- u12 -->
<g id="node21" class="node">
<title>u12</title>
<ellipse fill="#ffbbff" stroke="black" cx="1476.34" cy="-1502" rx="159.47" ry="18"/>
<text text-anchor="middle" x="1476.34" y="-1498.3" font-family="Times,serif" font-size="14.00">Drasil.Sections.TableOfSymbols</text>
</g>
<!-- u22&#45;&gt;u12 -->
<g id="edge42" class="edge">
<title>u22&#45;&gt;u12</title>
<path fill="none" stroke="black" d="M2136.38,-1837.31C2022.49,-1779.62 1645.59,-1588.72 1518.56,-1524.38"/>
<polygon fill="black" stroke="black" points="1520,-1521.19 1509.5,-1519.8 1516.84,-1527.44 1520,-1521.19"/>
</g>
<!-- u11 -->
<g id="node22" class="node">
<title>u11</title>
<ellipse fill="#ffbbff" stroke="black" cx="1121.34" cy="-1502" rx="177.37" ry="18"/>
<text text-anchor="middle" x="1121.34" y="-1498.3" font-family="Times,serif" font-size="14.00">Drasil.Sections.TraceabilityMandGs</text>
</g>
<!-- u22&#45;&gt;u11 -->
<g id="edge41" class="edge">
<title>u22&#45;&gt;u11</title>
<path fill="none" stroke="black" d="M2121.58,-1838.01C1950.36,-1780.66 1367.48,-1585.44 1179.96,-1522.63"/>
<polygon fill="black" stroke="black" points="1180.87,-1519.25 1170.28,-1519.39 1178.65,-1525.89 1180.87,-1519.25"/>
</g>
<!-- u8 -->
<g id="node25" class="node">
<title>u8</title>
<ellipse fill="#ffbbff" stroke="black" cx="4049.34" cy="-1502" rx="149.47" ry="18"/>
<text text-anchor="middle" x="4049.34" y="-1498.3" font-family="Times,serif" font-size="14.00">Drasil.Sections.Requirements</text>
</g>
<!-- u22&#45;&gt;u8 -->
<g id="edge40" class="edge">
<title>u22&#45;&gt;u8</title>
<path fill="none" stroke="black" d="M2244.49,-1839.97C2542.78,-1784.28 3642.52,-1578.95 3961.86,-1519.33"/>
<polygon fill="black" stroke="black" points="3962.8,-1522.72 3971.98,-1517.44 3961.51,-1515.84 3962.8,-1522.72"/>
</g>
<!-- u6 -->
<g id="node27" class="node">
<title>u6</title>
<ellipse fill="#ffbbff" stroke="black" cx="3327.34" cy="-1502" rx="172.47" ry="18"/>
<text text-anchor="middle" x="3327.34" y="-1498.3" font-family="Times,serif" font-size="14.00">Drasil.Sections.AuxiliaryConstants</text>
</g>
<!-- u22&#45;&gt;u6 -->
<g id="edge39" class="edge">
<title>u22&#45;&gt;u6</title>
<path fill="none" stroke="black" d="M2221.35,-1838.24C2410.13,-1781.01 3058.96,-1584.35 3264.42,-1522.07"/>
<polygon fill="black" stroke="black" points="3265.59,-1525.37 3274.15,-1519.12 3263.56,-1518.67 3265.59,-1525.37"/>
</g>
<!-- u22&#45;&gt;u4 -->
<g id="edge38" class="edge">
<title>u22&#45;&gt;u4</title>
<path fill="none" stroke="black" d="M2169.34,-1836.59C2169.34,-1779.74 2169.34,-1599.19 2169.34,-1530.18"/>
<polygon fill="black" stroke="black" points="2172.84,-1530.1 2169.34,-1520.1 2165.84,-1530.1 2172.84,-1530.1"/>
</g>
<!-- u3 -->
<g id="node30" class="node">
<title>u3</title>
<ellipse fill="#ffbbff" stroke="black" cx="2596.34" cy="-1502" rx="201.46" ry="18"/>
<text text-anchor="middle" x="2596.34" y="-1498.3" font-family="Times,serif" font-size="14.00">Drasil.Sections.TableOfAbbAndAcronyms</text>
</g>
<!-- u22&#45;&gt;u3 -->
<g id="edge37" class="edge">
<title>u22&#45;&gt;u3</title>
<path fill="none" stroke="black" d="M2189.93,-1837.07C2259.75,-1779.68 2487.58,-1592.4 2567.95,-1526.33"/>
<polygon fill="black" stroke="black" points="2570.2,-1529.02 2575.7,-1519.96 2565.75,-1523.61 2570.2,-1529.02"/>
</g>
<!-- u1 -->
<g id="node32" class="node">
<title>u1</title>
<ellipse fill="#ffbbff" stroke="black" cx="1798.34" cy="-1502" rx="144.87" ry="18"/>
<text text-anchor="middle" x="1798.34" y="-1498.3" font-family="Times,serif" font-size="14.00">Drasil.Sections.TableOfUnits</text>
</g>
<!-- u22&#45;&gt;u1 -->
<g id="edge36" class="edge">
<title>u22&#45;&gt;u1</title>
<path fill="none" stroke="black" d="M2151.44,-1837.07C2091.1,-1779.98 1894.88,-1594.34 1824.1,-1527.37"/>
<polygon fill="black" stroke="black" points="1826.16,-1524.5 1816.49,-1520.17 1821.35,-1529.59 1826.16,-1524.5"/>
</g>
<!-- u21 -->
<g id="node11" class="node">
<title>u21</title>
<ellipse fill="#ffffbb" stroke="black" cx="129.34" cy="-2209" rx="129.18" ry="18"/>
<text text-anchor="middle" x="129.34" y="-2205.3" font-family="Times,serif" font-size="14.00">Drasil.DocLang.Notebook</text>
</g>
<!-- u20 -->
<g id="node12" class="node">
<title>u20</title>
<ellipse fill="#ffffbb" stroke="black" cx="3513.34" cy="-1149" rx="104.78" ry="18"/>
<text text-anchor="middle" x="3513.34" y="-1145.3" font-family="Times,serif" font-size="14.00">Drasil.DocLang.SRS</text>
</g>
<!-- u14 -->
<g id="node13" class="node">
<title>u14</title>
<ellipse fill="#bbbbff" stroke="black" cx="3718.34" cy="-442" rx="133.78" ry="18"/>
<text text-anchor="middle" x="3718.34" y="-438.3" font-family="Times,serif" font-size="14.00">Drasil.Document.Contents</text>
</g>
<!-- u19 -->
<g id="node33" class="node">
<title>u19</title>
<ellipse fill="#77ff77" stroke="black" cx="3841.34" cy="-88" rx="146.77" ry="18"/>
<text text-anchor="middle" x="3841.34" y="-84.3" font-family="Times,serif" font-size="14.00">Drasil.Sentence.Combinators</text>
</g>
<!-- u14&#45;&gt;u19 -->
<g id="edge30" class="edge">
<title>u14&#45;&gt;u19</title>
<path fill="none" stroke="black" d="M3724.44,-423.54C3744.4,-366.41 3807.89,-184.72 3831.96,-115.83"/>
<polygon fill="black" stroke="black" points="3835.35,-116.74 3835.35,-106.15 3828.74,-114.43 3835.35,-116.74"/>
</g>
<!-- u26 -->
<g id="node17" class="node">
<title>u26</title>
<ellipse fill="#ffbbbb" stroke="black" cx="2169.34" cy="-795" rx="187.37" ry="18"/>
<text text-anchor="middle" x="2169.34" y="-791.3" font-family="Times,serif" font-size="14.00">Drasil.DocumentLanguage.Definitions</text>
</g>
<!-- u29&#45;&gt;u26 -->
<g id="edge52" class="edge">
<title>u29&#45;&gt;u26</title>
<path fill="none" stroke="black" d="M1169.78,-1131.73C1341.92,-1073.91 1923.71,-878.5 2110.84,-815.65"/>
<polygon fill="black" stroke="black" points="2112.14,-818.91 2120.5,-812.4 2109.91,-812.27 2112.14,-818.91"/>
</g>
<!-- u28&#45;&gt;u20 -->
<g id="edge51" class="edge">
<title>u28&#45;&gt;u20</title>
<path fill="none" stroke="black" d="M2811.28,-1843.1C3014.28,-1819.88 3350.37,-1747.21 3508.34,-1520 3583,-1412.6 3542.06,-1241.99 3522.18,-1176.65"/>
<polygon fill="black" stroke="black" points="3525.51,-1175.6 3519.19,-1167.1 3518.83,-1177.69 3525.51,-1175.6"/>
</g>
<!-- u28&#45;&gt;u11 -->
<g id="edge50" class="edge">
<title>u28&#45;&gt;u11</title>
<path fill="none" stroke="black" d="M2575.39,-1837.89C2323.49,-1779.87 1463.6,-1581.83 1199.27,-1520.95"/>
<polygon fill="black" stroke="black" points="1199.91,-1517.5 1189.38,-1518.67 1198.33,-1524.33 1199.91,-1517.5"/>
</g>
<!-- u2 -->
<g id="node31" class="node">
<title>u2</title>
<ellipse fill="#ffbbff" stroke="black" cx="2825.34" cy="-1149" rx="170.07" ry="18"/>
<text text-anchor="middle" x="2825.34" y="-1145.3" font-family="Times,serif" font-size="14.00">Drasil.Sections.ReferenceMaterial</text>
</g>
<!-- u28&#45;&gt;u2 -->
<g id="edge49" class="edge">
<title>u28&#45;&gt;u2</title>
<path fill="none" stroke="black" d="M2656.7,-1836.86C2687.62,-1789.14 2773.18,-1649.72 2806.34,-1520 2838.19,-1395.37 2831.87,-1239.65 2827.58,-1177.48"/>
<polygon fill="black" stroke="black" points="2831.06,-1177.04 2826.84,-1167.33 2824.08,-1177.55 2831.06,-1177.04"/>
</g>
<!-- u27 -->
<g id="node16" class="node">
<title>u27</title>
<ellipse fill="#ffbbbb" stroke="black" cx="1720.34" cy="-1149" rx="223.66" ry="18"/>
<text text-anchor="middle" x="1720.34" y="-1145.3" font-family="Times,serif" font-size="14.00">Drasil.DocumentLanguage.TraceabilityMatrix</text>
</g>
<!-- u27&#45;&gt;u26 -->
<g id="edge48" class="edge">
<title>u27&#45;&gt;u26</title>
<path fill="none" stroke="black" d="M1741.99,-1131.02C1815.49,-1073.41 2055.46,-885.28 2139.75,-819.2"/>
<polygon fill="black" stroke="black" points="2141.93,-821.94 2147.64,-813.01 2137.61,-816.43 2141.93,-821.94"/>
</g>
<!-- u26&#45;&gt;u15 -->
<g id="edge46" class="edge">
<title>u26&#45;&gt;u15</title>
<path fill="none" stroke="black" d="M2169.34,-776.59C2169.34,-719.74 2169.34,-539.19 2169.34,-470.18"/>
<polygon fill="black" stroke="black" points="2172.84,-470.1 2169.34,-460.1 2165.84,-470.1 2172.84,-470.1"/>
</g>
<!-- u26&#45;&gt;u14 -->
<g id="edge45" class="edge">
<title>u26&#45;&gt;u14</title>
<path fill="none" stroke="black" d="M2238.91,-778.24C2494.35,-720.35 3379.43,-519.8 3643.44,-459.97"/>
<polygon fill="black" stroke="black" points="3644.33,-463.36 3653.31,-457.74 3642.78,-456.53 3644.33,-463.36"/>
</g>
<!-- u24 -->
<g id="node19" class="node">
<title>u24</title>
<ellipse fill="#ffbbbb" stroke="black" cx="3327.34" cy="-442" rx="162.47" ry="18"/>
<text text-anchor="middle" x="3327.34" y="-438.3" font-family="Times,serif" font-size="14.00">Drasil.DocumentLanguage.Units</text>
</g>
<!-- u26&#45;&gt;u24 -->
<g id="edge47" class="edge">
<title>u26&#45;&gt;u24</title>
<path fill="none" stroke="black" d="M2223.25,-777.66C2414.57,-719.67 3060.34,-523.93 3264.75,-461.97"/>
<polygon fill="black" stroke="black" points="3265.88,-465.29 3274.43,-459.04 3263.85,-458.59 3265.88,-465.29"/>
</g>
<!-- u25 -->
<g id="node18" class="node">
<title>u25</title>
<ellipse fill="#ffbbbb" stroke="black" cx="260.34" cy="-2562" rx="181.17" ry="18"/>
<text text-anchor="middle" x="260.34" y="-2558.3" font-family="Times,serif" font-size="14.00">Drasil.DocumentLanguage.Notebook</text>
</g>
<!-- u25&#45;&gt;u32 -->
<g id="edge44" class="edge">
<title>u25&#45;&gt;u32</title>
<path fill="none" stroke="black" d="M266.83,-2543.59C288.1,-2486.62 355.72,-2305.45 381.35,-2236.75"/>
<polygon fill="black" stroke="black" points="384.74,-2237.69 384.96,-2227.1 378.18,-2235.24 384.74,-2237.69"/>
</g>
<!-- u25&#45;&gt;u21 -->
<g id="edge43" class="edge">
<title>u25&#45;&gt;u21</title>
<path fill="none" stroke="black" d="M253.84,-2543.59C232.58,-2486.62 164.96,-2305.45 139.32,-2236.75"/>
<polygon fill="black" stroke="black" points="142.5,-2235.24 135.72,-2227.1 135.94,-2237.69 142.5,-2235.24"/>
</g>
<!-- u12&#45;&gt;u29 -->
<g id="edge28" class="edge">
<title>u12&#45;&gt;u29</title>
<path fill="none" stroke="black" d="M1459.22,-1484.07C1401.47,-1426.98 1213.72,-1241.34 1145.99,-1174.37"/>
<polygon fill="black" stroke="black" points="1148.28,-1171.71 1138.7,-1167.17 1143.36,-1176.69 1148.28,-1171.71"/>
</g>
<!-- u12&#45;&gt;u2 -->
<g id="edge27" class="edge">
<title>u12&#45;&gt;u2</title>
<path fill="none" stroke="black" d="M1536.92,-1485.24C1757.67,-1427.8 2518.3,-1229.89 2754.68,-1168.39"/>
<polygon fill="black" stroke="black" points="2755.74,-1171.73 2764.54,-1165.82 2753.98,-1164.95 2755.74,-1171.73"/>
</g>
<!-- u11&#45;&gt;u29 -->
<g id="edge26" class="edge">
<title>u11&#45;&gt;u29</title>
<path fill="none" stroke="black" d="M1121.34,-1483.59C1121.34,-1426.74 1121.34,-1246.19 1121.34,-1177.18"/>
<polygon fill="black" stroke="black" points="1124.84,-1177.1 1121.34,-1167.1 1117.84,-1177.1 1124.84,-1177.1"/>
</g>
<!-- u11&#45;&gt;u27 -->
<g id="edge25" class="edge">
<title>u11&#45;&gt;u27</title>
<path fill="none" stroke="black" d="M1150.23,-1484.07C1248.77,-1426.33 1571.65,-1237.13 1682.55,-1172.14"/>
<polygon fill="black" stroke="black" points="1684.53,-1175.04 1691.39,-1166.96 1680.99,-1169 1684.53,-1175.04"/>
</g>
<!-- u10&#45;&gt;u20 -->
<g id="edge23" class="edge">
<title>u10&#45;&gt;u20</title>
<path fill="none" stroke="black" d="M866.26,-1487.99C1302.18,-1432.33 3006.47,-1214.72 3421.73,-1161.7"/>
<polygon fill="black" stroke="black" points="3422.41,-1165.14 3431.89,-1160.4 3421.52,-1158.19 3422.41,-1165.14"/>
</g>
<!-- u10&#45;&gt;u29 -->
<g id="edge24" class="edge">
<title>u10&#45;&gt;u29</title>
<path fill="none" stroke="black" d="M781.56,-1484.07C839.63,-1426.98 1028.44,-1241.34 1096.55,-1174.37"/>
<polygon fill="black" stroke="black" points="1099.2,-1176.68 1103.87,-1167.17 1094.29,-1171.69 1099.2,-1176.68"/>
</g>
<!-- u9&#45;&gt;u20 -->
<g id="edge22" class="edge">
<title>u9&#45;&gt;u20</title>
<path fill="none" stroke="black" d="M3708.17,-1483.59C3674.76,-1426.39 3568.21,-1243.96 3528.47,-1175.91"/>
<polygon fill="black" stroke="black" points="3531.39,-1173.97 3523.32,-1167.1 3525.35,-1177.5 3531.39,-1173.97"/>
</g>
<!-- u9&#45;&gt;u14 -->
<g id="edge21" class="edge">
<title>u9&#45;&gt;u14</title>
<path fill="none" stroke="black" d="M3718.34,-1483.95C3718.34,-1362.08 3718.34,-623.63 3718.34,-470.7"/>
<polygon fill="black" stroke="black" points="3721.84,-470.34 3718.34,-460.34 3714.84,-470.34 3721.84,-470.34"/>
</g>
<!-- u9&#45;&gt;u2 -->
<g id="edge20" class="edge">
<title>u9&#45;&gt;u2</title>
<path fill="none" stroke="black" d="M3676.47,-1484.54C3529.63,-1426.83 3038.29,-1233.7 2877.07,-1170.33"/>
<polygon fill="black" stroke="black" points="2877.97,-1166.93 2867.38,-1166.52 2875.41,-1173.44 2877.97,-1166.93"/>
</g>
<!-- u8&#45;&gt;u20 -->
<g id="edge18" class="edge">
<title>u8&#45;&gt;u20</title>
<path fill="none" stroke="black" d="M4023.49,-1484.07C3935.29,-1426.31 3646.21,-1237.01 3547.07,-1172.09"/>
<polygon fill="black" stroke="black" points="3548.9,-1169.11 3538.62,-1166.56 3545.07,-1174.96 3548.9,-1169.11"/>
</g>
<!-- u8&#45;&gt;u24 -->
<g id="edge19" class="edge">
<title>u8&#45;&gt;u24</title>
<path fill="none" stroke="black" d="M4037.71,-1483.95C3954.21,-1361.59 3446.56,-617.7 3345.01,-468.9"/>
<polygon fill="black" stroke="black" points="3347.7,-466.63 3339.17,-460.34 3341.92,-470.58 3347.7,-466.63"/>
</g>
<!-- u8&#45;&gt;u2 -->
<g id="edge16" class="edge">
<title>u8&#45;&gt;u2</title>
<path fill="none" stroke="black" d="M3994.37,-1485.24C3794.51,-1427.92 3106.87,-1230.73 2890.83,-1168.78"/>
<polygon fill="black" stroke="black" points="2891.78,-1165.41 2881.21,-1166.02 2889.86,-1172.14 2891.78,-1165.41"/>
</g>
<!-- u8&#45;&gt;u19 -->
<g id="edge17" class="edge">
<title>u8&#45;&gt;u19</title>
<path fill="none" stroke="black" d="M4046.82,-1483.91C4025.28,-1337.67 3872.11,-297.89 3845.33,-116.09"/>
<polygon fill="black" stroke="black" points="3848.77,-115.42 3843.85,-106.04 3841.84,-116.44 3848.77,-115.42"/>
</g>
<!-- u7&#45;&gt;u20 -->
<g id="edge14" class="edge">
<title>u7&#45;&gt;u20</title>
<path fill="none" stroke="black" d="M3020.32,-1484.07C3105.47,-1426.37 3384.36,-1237.39 3480.45,-1172.28"/>
<polygon fill="black" stroke="black" points="3482.59,-1175.06 3488.91,-1166.56 3478.66,-1169.27 3482.59,-1175.06"/>
</g>
<!-- u7&#45;&gt;u29 -->
<g id="edge15" class="edge">
<title>u7&#45;&gt;u29</title>
<path fill="none" stroke="black" d="M2919.26,-1486.75C2620.69,-1430.83 1529.74,-1226.49 1209.98,-1166.6"/>
<polygon fill="black" stroke="black" points="1210.31,-1163.1 1199.84,-1164.7 1209.03,-1169.98 1210.31,-1163.1"/>
</g>
<!-- u7&#45;&gt;u2 -->
<g id="edge13" class="edge">
<title>u7&#45;&gt;u2</title>
<path fill="none" stroke="black" d="M2986.91,-1483.59C2959.26,-1426.5 2871.21,-1244.7 2838.09,-1176.33"/>
<polygon fill="black" stroke="black" points="2841.13,-1174.57 2833.62,-1167.1 2834.83,-1177.62 2841.13,-1174.57"/>
</g>
<!-- u6&#45;&gt;u20 -->
<g id="edge11" class="edge">
<title>u6&#45;&gt;u20</title>
<path fill="none" stroke="black" d="M3336.56,-1483.59C3366.81,-1426.5 3463.15,-1244.7 3499.38,-1176.33"/>
<polygon fill="black" stroke="black" points="3502.69,-1177.57 3504.28,-1167.1 3496.5,-1174.29 3502.69,-1177.57"/>
</g>
<!-- u6&#45;&gt;u14 -->
<g id="edge10" class="edge">
<title>u6&#45;&gt;u14</title>
<path fill="none" stroke="black" d="M3329.2,-1483.66C3335.27,-1430.11 3356.6,-1262.99 3399.34,-1131 3486.71,-861.2 3652.89,-558.34 3703.41,-469.07"/>
<polygon fill="black" stroke="black" points="3706.56,-470.59 3708.46,-460.17 3700.48,-467.14 3706.56,-470.59"/>
</g>
<!-- u6&#45;&gt;u24 -->
<g id="edge12" class="edge">
<title>u6&#45;&gt;u24</title>
<path fill="none" stroke="black" d="M3327.34,-1483.95C3327.34,-1362.08 3327.34,-623.63 3327.34,-470.7"/>
<polygon fill="black" stroke="black" points="3330.84,-470.34 3327.34,-460.34 3323.84,-470.34 3330.84,-470.34"/>
</g>
<!-- u6&#45;&gt;u2 -->
<g id="edge9" class="edge">
<title>u6&#45;&gt;u2</title>
<path fill="none" stroke="black" d="M3303.13,-1484.07C3220.79,-1426.5 2951.57,-1238.26 2857.85,-1172.74"/>
<polygon fill="black" stroke="black" points="2859.8,-1169.83 2849.6,-1166.96 2855.79,-1175.56 2859.8,-1169.83"/>
</g>
<!-- u5&#45;&gt;u20 -->
<g id="edge8" class="edge">
<title>u5&#45;&gt;u20</title>
<path fill="none" stroke="black" d="M4321.86,-1484.66C4182.36,-1426.92 3712.94,-1232.62 3561.13,-1169.78"/>
<polygon fill="black" stroke="black" points="3562.18,-1166.43 3551.6,-1165.84 3559.5,-1172.89 3562.18,-1166.43"/>
</g>
<!-- u5&#45;&gt;u14 -->
<g id="edge7" class="edge">
<title>u5&#45;&gt;u14</title>
<path fill="none" stroke="black" d="M4350.98,-1483.95C4276.61,-1361.59 3824.52,-617.7 3734.08,-468.9"/>
<polygon fill="black" stroke="black" points="3737.06,-467.07 3728.88,-460.34 3731.08,-470.71 3737.06,-467.07"/>
</g>
<!-- u4&#45;&gt;u20 -->
<g id="edge5" class="edge">
<title>u4&#45;&gt;u20</title>
<path fill="none" stroke="black" d="M2231.47,-1484.77C2455.42,-1426.29 3220.08,-1226.59 3448.44,-1166.95"/>
<polygon fill="black" stroke="black" points="3449.47,-1170.3 3458.26,-1164.38 3447.7,-1163.52 3449.47,-1170.3"/>
</g>
<!-- u4&#45;&gt;u26 -->
<g id="edge6" class="edge">
<title>u4&#45;&gt;u26</title>
<path fill="none" stroke="black" d="M2169.34,-1483.92C2169.34,-1390.32 2169.34,-939.49 2169.34,-823.34"/>
<polygon fill="black" stroke="black" points="2172.84,-823.17 2169.34,-813.17 2165.84,-823.17 2172.84,-823.17"/>
</g>
<!-- u4&#45;&gt;u2 -->
<g id="edge4" class="edge">
<title>u4&#45;&gt;u2</title>
<path fill="none" stroke="black" d="M2200.98,-1484.07C2309.23,-1426.15 2664.75,-1235.93 2785.1,-1171.53"/>
<polygon fill="black" stroke="black" points="2786.85,-1174.56 2794.02,-1166.76 2783.55,-1168.39 2786.85,-1174.56"/>
</g>
<!-- u3&#45;&gt;u2 -->
<g id="edge3" class="edge">
<title>u3&#45;&gt;u2</title>
<path fill="none" stroke="black" d="M2607.69,-1483.59C2645.09,-1426.27 2764.53,-1243.21 2808.7,-1175.5"/>
<polygon fill="black" stroke="black" points="2811.65,-1177.38 2814.18,-1167.1 2805.79,-1173.56 2811.65,-1177.38"/>
</g>
<!-- u1&#45;&gt;u29 -->
<g id="edge2" class="edge">
<title>u1&#45;&gt;u29</title>
<path fill="none" stroke="black" d="M1766.14,-1484.31C1654.99,-1426.68 1287.42,-1236.1 1162.96,-1171.58"/>
<polygon fill="black" stroke="black" points="1164.22,-1168.29 1153.73,-1166.8 1161,-1174.51 1164.22,-1168.29"/>
</g>
<!-- u1&#45;&gt;u2 -->
<g id="edge1" class="edge">
<title>u1&#45;&gt;u2</title>
<path fill="none" stroke="black" d="M1845.47,-1484.89C2013.71,-1427.39 2584.38,-1232.35 2767.95,-1169.61"/>
<polygon fill="black" stroke="black" points="2769.1,-1172.92 2777.43,-1166.37 2766.83,-1166.3 2769.1,-1172.92"/>
</g>
</g>
</svg>
