<?xml version="1.0" encoding="UTF-8" standalone="no"?>
<!DOCTYPE svg PUBLIC "-//W3C//DTD SVG 1.1//EN"
 "http://www.w3.org/Graphics/SVG/1.1/DTD/svg11.dtd">
<!-- Generated by graphviz version 2.43.0 (0)
 -->
<!-- Title: G Pages: 1 -->
<svg width="431pt" height="288pt"
 viewBox="0.00 0.00 431.12 288.00" xmlns="http://www.w3.org/2000/svg" xmlns:xlink="http://www.w3.org/1999/xlink">
<g id="graph0" class="graph" transform="scale(3.95 3.95) rotate(0) translate(4 1134)">
<title>G</title>
<polygon fill="white" stroke="transparent" points="-4,4 -4,-1134 1699.53,-1134 1699.53,4 -4,4"/>
<!-- u7 -->
<g id="node1" class="node">
<title>u7</title>
<ellipse fill="#bbffbb" stroke="black" cx="850.29" cy="-726" rx="104.78" ry="18"/>
<text text-anchor="middle" x="850.29" y="-722.3" font-family="Times,serif" font-size="14.00">Drasil.Website.Body</text>
</g>
<!-- u6 -->
<g id="node2" class="node">
<title>u6</title>
<ellipse fill="#bbffbb" stroke="black" cx="131.29" cy="-404" rx="131.08" ry="18"/>
<text text-anchor="middle" x="131.29" y="-400.3" font-family="Times,serif" font-size="14.00">Drasil.Website.CaseStudy</text>
</g>
<!-- u7&#45;&gt;u6 -->
<g id="edge7" class="edge">
<title>u7&#45;&gt;u6</title>
<path fill="none" stroke="black" d="M814.14,-708.91C694.4,-655.62 310.79,-484.89 177.47,-425.55"/>
<polygon fill="black" stroke="black" points="178.5,-422.18 167.94,-421.31 175.65,-428.57 178.5,-422.18"/>
</g>
<!-- u5 -->
<g id="node3" class="node">
<title>u5</title>
<ellipse fill="#bbffbb" stroke="black" cx="432.29" cy="-404" rx="152.17" ry="18"/>
<text text-anchor="middle" x="432.29" y="-400.3" font-family="Times,serif" font-size="14.00">Drasil.Website.Documentation</text>
</g>
<!-- u7&#45;&gt;u5 -->
<g id="edge6" class="edge">
<title>u7&#45;&gt;u5</title>
<path fill="none" stroke="black" d="M828.4,-708.25C758.87,-655.02 542.88,-489.66 462.67,-428.26"/>
<polygon fill="black" stroke="black" points="464.53,-425.27 454.46,-421.97 460.27,-430.83 464.53,-425.27"/>
</g>
<!-- u4 -->
<g id="node4" class="node">
<title>u4</title>
<ellipse fill="#bbffbb" stroke="black" cx="711.29" cy="-404" rx="108.58" ry="18"/>
<text text-anchor="middle" x="711.29" y="-400.3" font-family="Times,serif" font-size="14.00">Drasil.Website.About</text>
</g>
<!-- u7&#45;&gt;u4 -->
<g id="edge5" class="edge">
<title>u7&#45;&gt;u4</title>
<path fill="none" stroke="black" d="M842.82,-707.8C819.91,-655.05 750.54,-495.37 722.87,-431.66"/>
<polygon fill="black" stroke="black" points="725.99,-430.07 718.8,-422.29 719.57,-432.86 725.99,-430.07"/>
</g>
<!-- u3 -->
<g id="node5" class="node">
<title>u3</title>
<ellipse fill="#bbffbb" stroke="black" cx="989.29" cy="-404" rx="151.37" ry="18"/>
<text text-anchor="middle" x="989.29" y="-400.3" font-family="Times,serif" font-size="14.00">Drasil.Website.GettingStarted</text>
</g>
<!-- u7&#45;&gt;u3 -->
<g id="edge4" class="edge">
<title>u7&#45;&gt;u3</title>
<path fill="none" stroke="black" d="M857.76,-707.8C880.67,-655.05 950.04,-495.37 977.71,-431.66"/>
<polygon fill="black" stroke="black" points="981,-432.86 981.78,-422.29 974.58,-430.07 981,-432.86"/>
</g>
<!-- u2 -->
<g id="node6" class="node">
<title>u2</title>
<ellipse fill="#bbffbb" stroke="black" cx="1298.29" cy="-404" rx="139.18" ry="18"/>
<text text-anchor="middle" x="1298.29" y="-400.3" font-family="Times,serif" font-size="14.00">Drasil.Website.Introduction</text>
</g>
<!-- u7&#45;&gt;u2 -->
<g id="edge3" class="edge">
<title>u7&#45;&gt;u2</title>
<path fill="none" stroke="black" d="M873.74,-708.25C948.5,-654.85 1181.24,-488.6 1266.54,-427.68"/>
<polygon fill="black" stroke="black" points="1268.69,-430.44 1274.8,-421.78 1264.62,-424.75 1268.69,-430.44"/>
</g>
<!-- u0 -->
<g id="node8" class="node">
<title>u0</title>
<ellipse fill="#bbffbb" stroke="black" cx="1575.29" cy="-404" rx="120.48" ry="18"/>
<text text-anchor="middle" x="1575.29" y="-400.3" font-family="Times,serif" font-size="14.00">Drasil.Website.Analysis</text>
</g>
<!-- u7&#45;&gt;u0 -->
<g id="edge2" class="edge">
<title>u7&#45;&gt;u0</title>
<path fill="none" stroke="black" d="M886.74,-708.91C1007.6,-655.57 1395.07,-484.55 1529.13,-425.37"/>
<polygon fill="black" stroke="black" points="1530.6,-428.55 1538.33,-421.31 1527.77,-422.15 1530.6,-428.55"/>
</g>
<!-- u1 -->
<g id="node7" class="node">
<title>u1</title>
<ellipse fill="#bbffbb" stroke="black" cx="131.29" cy="-81" rx="122.38" ry="18"/>
<text text-anchor="middle" x="131.29" y="-77.3" font-family="Times,serif" font-size="14.00">Drasil.Website.Example</text>
</g>
<!-- u6&#45;&gt;u1 -->
<g id="edge1" class="edge">
<title>u6&#45;&gt;u1</title>
<path fill="none" stroke="black" d="M131.29,-385.74C131.29,-333.05 131.29,-173.96 131.29,-109.54"/>
<polygon fill="black" stroke="black" points="134.79,-109.34 131.29,-99.34 127.79,-109.34 134.79,-109.34"/>
</g>
<!-- u8 -->
<g id="node9" class="node">
<title>u8</title>
<ellipse fill="#ffffbb" stroke="black" cx="850.29" cy="-1049" rx="122.38" ry="18"/>
<text text-anchor="middle" x="850.29" y="-1045.3" font-family="Times,serif" font-size="14.00">drasil&#45;website.app.Main</text>
</g>
<!-- u8&#45;&gt;u7 -->
<g id="edge8" class="edge">
<title>u8&#45;&gt;u7</title>
<path fill="none" stroke="black" d="M850.29,-1030.74C850.29,-978.05 850.29,-818.96 850.29,-754.54"/>
<polygon fill="black" stroke="black" points="853.79,-754.34 850.29,-744.34 846.79,-754.34 853.79,-754.34"/>
</g>
</g>
</svg>
