<?xml version="1.0" encoding="UTF-8" standalone="no"?>
<!DOCTYPE svg PUBLIC "-//W3C//DTD SVG 1.1//EN"
 "http://www.w3.org/Graphics/SVG/1.1/DTD/svg11.dtd">
<!-- Generated by graphviz version 2.43.0 (0)
 -->
<!-- Title: G Pages: 1 -->
<svg width="431pt" height="288pt"
 viewBox="0.00 0.00 431.20 288.00" xmlns="http://www.w3.org/2000/svg" xmlns:xlink="http://www.w3.org/1999/xlink">
<g id="graph0" class="graph" transform="scale(3.95 3.95) rotate(0) translate(4 1134.67)">
<title>G</title>
<polygon fill="white" stroke="transparent" points="-4,4 -4,-1134.67 1700.83,-1134.67 1700.83,4 -4,4"/>
<!-- u7 -->
<g id="node1" class="node">
<title>u7</title>
<ellipse fill="#bbffbb" stroke="black" cx="1565.54" cy="-81" rx="122.38" ry="18"/>
<text text-anchor="middle" x="1565.54" y="-77.3" font-family="Times,serif" font-size="14.00">Drasil.Website.Example</text>
</g>
<!-- u6 -->
<g id="node2" class="node">
<title>u6</title>
<ellipse fill="#bbffbb" stroke="black" cx="108.54" cy="-404" rx="108.58" ry="18"/>
<text text-anchor="middle" x="108.54" y="-400.3" font-family="Times,serif" font-size="14.00">Drasil.Website.About</text>
</g>
<!-- u5 -->
<g id="node3" class="node">
<title>u5</title>
<ellipse fill="#bbffbb" stroke="black" cx="387.54" cy="-404" rx="152.17" ry="18"/>
<text text-anchor="middle" x="387.54" y="-400.3" font-family="Times,serif" font-size="14.00">Drasil.Website.Documentation</text>
</g>
<!-- u4 -->
<g id="node4" class="node">
<title>u4</title>
<ellipse fill="#bbffbb" stroke="black" cx="696.54" cy="-404" rx="139.18" ry="18"/>
<text text-anchor="middle" x="696.54" y="-400.3" font-family="Times,serif" font-size="14.00">Drasil.Website.Introduction</text>
</g>
<!-- u3 -->
<g id="node5" class="node">
<title>u3</title>
<ellipse fill="#bbffbb" stroke="black" cx="850.54" cy="-727" rx="104.78" ry="18"/>
<text text-anchor="middle" x="850.54" y="-723.3" font-family="Times,serif" font-size="14.00">Drasil.Website.Body</text>
</g>
<!-- u3&#45;&gt;u6 -->
<g id="edge7" class="edge">
<title>u3&#45;&gt;u6</title>
<path fill="none" stroke="black" d="M813.74,-710.08C690.38,-656.71 291.53,-484.16 154.93,-425.07"/>
<polygon fill="black" stroke="black" points="156.13,-421.77 145.56,-421.01 153.35,-428.2 156.13,-421.77"/>
</g>
<!-- u3&#45;&gt;u5 -->
<g id="edge6" class="edge">
<title>u3&#45;&gt;u5</title>
<path fill="none" stroke="black" d="M826.62,-709.42C749.65,-656.05 508.27,-488.7 420.15,-427.61"/>
<polygon fill="black" stroke="black" points="422.08,-424.69 411.87,-421.87 418.1,-430.44 422.08,-424.69"/>
</g>
<!-- u3&#45;&gt;u4 -->
<g id="edge5" class="edge">
<title>u3&#45;&gt;u4</title>
<path fill="none" stroke="black" d="M842.26,-708.74C816.88,-655.84 740.03,-495.65 709.37,-431.74"/>
<polygon fill="black" stroke="black" points="712.34,-429.85 704.86,-422.34 706.03,-432.87 712.34,-429.85"/>
</g>
<!-- u2 -->
<g id="node6" class="node">
<title>u2</title>
<ellipse fill="#bbffbb" stroke="black" cx="1005.54" cy="-404" rx="151.37" ry="18"/>
<text text-anchor="middle" x="1005.54" y="-400.3" font-family="Times,serif" font-size="14.00">Drasil.Website.GettingStarted</text>
</g>
<!-- u3&#45;&gt;u2 -->
<g id="edge4" class="edge">
<title>u3&#45;&gt;u2</title>
<path fill="none" stroke="black" d="M858.87,-708.74C884.47,-655.73 962.09,-494.99 992.82,-431.35"/>
<polygon fill="black" stroke="black" points="995.97,-432.87 997.17,-422.34 989.67,-429.83 995.97,-432.87"/>
</g>
<!-- u1 -->
<g id="node7" class="node">
<title>u1</title>
<ellipse fill="#bbffbb" stroke="black" cx="1295.54" cy="-404" rx="120.48" ry="18"/>
<text text-anchor="middle" x="1295.54" y="-400.3" font-family="Times,serif" font-size="14.00">Drasil.Website.Analysis</text>
</g>
<!-- u3&#45;&gt;u1 -->
<g id="edge3" class="edge">
<title>u3&#45;&gt;u1</title>
<path fill="none" stroke="black" d="M873.53,-709.42C947.52,-656.05 1179.58,-488.65 1264.23,-427.58"/>
<polygon fill="black" stroke="black" points="1266.36,-430.36 1272.42,-421.68 1262.26,-424.69 1266.36,-430.36"/>
</g>
<!-- u0 -->
<g id="node8" class="node">
<title>u0</title>
<ellipse fill="#bbffbb" stroke="black" cx="1565.54" cy="-404" rx="131.08" ry="18"/>
<text text-anchor="middle" x="1565.54" y="-400.3" font-family="Times,serif" font-size="14.00">Drasil.Website.CaseStudy</text>
</g>
<!-- u3&#45;&gt;u0 -->
<g id="edge2" class="edge">
<title>u3&#45;&gt;u0</title>
<path fill="none" stroke="black" d="M886.49,-709.86C1005.56,-656.4 1387.04,-485.14 1519.62,-425.62"/>
<polygon fill="black" stroke="black" points="1521.41,-428.65 1529.1,-421.36 1518.54,-422.26 1521.41,-428.65"/>
</g>
<!-- u0&#45;&gt;u7 -->
<g id="edge1" class="edge">
<title>u0&#45;&gt;u7</title>
<path fill="none" stroke="black" d="M1565.54,-385.74C1565.54,-333.05 1565.54,-173.96 1565.54,-109.54"/>
<polygon fill="black" stroke="black" points="1569.04,-109.34 1565.54,-99.34 1562.04,-109.34 1569.04,-109.34"/>
</g>
<!-- u8 -->
<g id="node9" class="node">
<title>u8</title>
<ellipse fill="#ffffbb" stroke="black" cx="850.54" cy="-1050" rx="122.38" ry="18"/>
<text text-anchor="middle" x="850.54" y="-1046.3" font-family="Times,serif" font-size="14.00">drasil&#45;website.app.Main</text>
</g>
<!-- u8&#45;&gt;u3 -->
<g id="edge8" class="edge">
<title>u8&#45;&gt;u3</title>
<path fill="none" stroke="black" d="M850.54,-1031.74C850.54,-979.05 850.54,-819.96 850.54,-755.54"/>
<polygon fill="black" stroke="black" points="854.04,-755.34 850.54,-745.34 847.04,-755.34 854.04,-755.34"/>
</g>
</g>
</svg>
