<?xml version="1.0" encoding="UTF-8" standalone="no"?>
<!DOCTYPE svg PUBLIC "-//W3C//DTD SVG 1.1//EN"
 "http://www.w3.org/Graphics/SVG/1.1/DTD/svg11.dtd">
<!-- Generated by graphviz version 2.43.0 (0)
 -->
<!-- Title: G Pages: 1 -->
<svg width="431pt" height="288pt"
 viewBox="0.00 0.00 431.19 288.00" xmlns="http://www.w3.org/2000/svg" xmlns:xlink="http://www.w3.org/1999/xlink">
<g id="graph0" class="graph" transform="scale(3.95 3.95) rotate(0) translate(4 1134.67)">
<title>G</title>
<polygon fill="white" stroke="transparent" points="-4,4 -4,-1134.67 1700.78,-1134.67 1700.78,4 -4,4"/>
<!-- u7 -->
<g id="node1" class="node">
<title>u7</title>
<ellipse fill="#bbffbb" stroke="black" cx="120.24" cy="-404" rx="120.48" ry="18"/>
<text text-anchor="middle" x="120.24" y="-400.3" font-family="Times,serif" font-size="14.00">Drasil.Website.Analysis</text>
</g>
<!-- u6 -->
<g id="node2" class="node">
<title>u6</title>
<ellipse fill="#bbffbb" stroke="black" cx="845.24" cy="-727" rx="104.78" ry="18"/>
<text text-anchor="middle" x="845.24" y="-723.3" font-family="Times,serif" font-size="14.00">Drasil.Website.Body</text>
</g>
<!-- u6&#45;&gt;u7 -->
<g id="edge7" class="edge">
<title>u6&#45;&gt;u7</title>
<path fill="none" stroke="black" d="M809.29,-710.08C688.89,-656.77 299.93,-484.56 166.03,-425.28"/>
<polygon fill="black" stroke="black" points="167.4,-422.05 156.84,-421.21 164.57,-428.45 167.4,-422.05"/>
</g>
<!-- u4 -->
<g id="node4" class="node">
<title>u4</title>
<ellipse fill="#bbffbb" stroke="black" cx="390.24" cy="-404" rx="131.08" ry="18"/>
<text text-anchor="middle" x="390.24" y="-400.3" font-family="Times,serif" font-size="14.00">Drasil.Website.CaseStudy</text>
</g>
<!-- u6&#45;&gt;u4 -->
<g id="edge6" class="edge">
<title>u6&#45;&gt;u4</title>
<path fill="none" stroke="black" d="M821.73,-709.42C746.17,-656.11 509.36,-489.04 422.55,-427.8"/>
<polygon fill="black" stroke="black" points="424.34,-424.77 414.15,-421.87 420.3,-430.49 424.34,-424.77"/>
</g>
<!-- u3 -->
<g id="node5" class="node">
<title>u3</title>
<ellipse fill="#bbffbb" stroke="black" cx="691.24" cy="-404" rx="151.37" ry="18"/>
<text text-anchor="middle" x="691.24" y="-400.3" font-family="Times,serif" font-size="14.00">Drasil.Website.GettingStarted</text>
</g>
<!-- u6&#45;&gt;u3 -->
<g id="edge5" class="edge">
<title>u6&#45;&gt;u3</title>
<path fill="none" stroke="black" d="M836.96,-708.74C811.58,-655.84 734.73,-495.65 704.07,-431.74"/>
<polygon fill="black" stroke="black" points="707.04,-429.85 699.56,-422.34 700.73,-432.87 707.04,-429.85"/>
</g>
<!-- u2 -->
<g id="node6" class="node">
<title>u2</title>
<ellipse fill="#bbffbb" stroke="black" cx="1000.24" cy="-404" rx="139.18" ry="18"/>
<text text-anchor="middle" x="1000.24" y="-400.3" font-family="Times,serif" font-size="14.00">Drasil.Website.Introduction</text>
</g>
<!-- u6&#45;&gt;u2 -->
<g id="edge4" class="edge">
<title>u6&#45;&gt;u2</title>
<path fill="none" stroke="black" d="M853.57,-708.74C879.17,-655.73 956.79,-494.99 987.52,-431.35"/>
<polygon fill="black" stroke="black" points="990.67,-432.87 991.86,-422.34 984.36,-429.83 990.67,-432.87"/>
</g>
<!-- u1 -->
<g id="node7" class="node">
<title>u1</title>
<ellipse fill="#bbffbb" stroke="black" cx="1309.24" cy="-404" rx="152.17" ry="18"/>
<text text-anchor="middle" x="1309.24" y="-400.3" font-family="Times,serif" font-size="14.00">Drasil.Website.Documentation</text>
</g>
<!-- u6&#45;&gt;u1 -->
<g id="edge3" class="edge">
<title>u6&#45;&gt;u1</title>
<path fill="none" stroke="black" d="M869.21,-709.42C946.34,-656.05 1188.25,-488.7 1276.56,-427.61"/>
<polygon fill="black" stroke="black" points="1278.62,-430.44 1284.85,-421.87 1274.64,-424.68 1278.62,-430.44"/>
</g>
<!-- u0 -->
<g id="node8" class="node">
<title>u0</title>
<ellipse fill="#bbffbb" stroke="black" cx="1588.24" cy="-404" rx="108.58" ry="18"/>
<text text-anchor="middle" x="1588.24" y="-400.3" font-family="Times,serif" font-size="14.00">Drasil.Website.About</text>
</g>
<!-- u6&#45;&gt;u0 -->
<g id="edge2" class="edge">
<title>u6&#45;&gt;u0</title>
<path fill="none" stroke="black" d="M882.08,-710.08C1005.62,-656.71 1405.01,-484.16 1541.78,-425.07"/>
<polygon fill="black" stroke="black" points="1543.38,-428.19 1551.17,-421.01 1540.6,-421.77 1543.38,-428.19"/>
</g>
<!-- u5 -->
<g id="node3" class="node">
<title>u5</title>
<ellipse fill="#bbffbb" stroke="black" cx="390.24" cy="-81" rx="122.38" ry="18"/>
<text text-anchor="middle" x="390.24" y="-77.3" font-family="Times,serif" font-size="14.00">Drasil.Website.Example</text>
</g>
<!-- u4&#45;&gt;u5 -->
<g id="edge1" class="edge">
<title>u4&#45;&gt;u5</title>
<path fill="none" stroke="black" d="M390.24,-385.74C390.24,-333.05 390.24,-173.96 390.24,-109.54"/>
<polygon fill="black" stroke="black" points="393.74,-109.34 390.24,-99.34 386.74,-109.34 393.74,-109.34"/>
</g>
<!-- u8 -->
<g id="node9" class="node">
<title>u8</title>
<ellipse fill="#ffffbb" stroke="black" cx="845.24" cy="-1050" rx="122.38" ry="18"/>
<text text-anchor="middle" x="845.24" y="-1046.3" font-family="Times,serif" font-size="14.00">drasil&#45;website.app.Main</text>
</g>
<!-- u8&#45;&gt;u6 -->
<g id="edge8" class="edge">
<title>u8&#45;&gt;u6</title>
<path fill="none" stroke="black" d="M845.24,-1031.74C845.24,-979.05 845.24,-819.96 845.24,-755.54"/>
<polygon fill="black" stroke="black" points="848.74,-755.34 845.24,-745.34 841.74,-755.34 848.74,-755.34"/>
</g>
</g>
</svg>
