<?xml version="1.0" encoding="UTF-8" standalone="no"?>
<!DOCTYPE svg PUBLIC "-//W3C//DTD SVG 1.1//EN"
 "http://www.w3.org/Graphics/SVG/1.1/DTD/svg11.dtd">
<!-- Generated by graphviz version 2.43.0 (0)
 -->
<!-- Title: G Pages: 1 -->
<svg width="432pt" height="287pt"
 viewBox="0.00 0.00 432.00 286.94" xmlns="http://www.w3.org/2000/svg" xmlns:xlink="http://www.w3.org/1999/xlink">
<g id="graph0" class="graph" transform="scale(0.06 0.06) rotate(0) translate(4 4579.33)">
<title>G</title>
<polygon fill="white" stroke="transparent" points="-4,4 -4,-4579.33 6896.31,-4579.33 6896.31,4 -4,4"/>
<!-- u59 -->
<g id="node1" class="node">
<title>u59</title>
<ellipse fill="#bbffbb" stroke="black" cx="2407.77" cy="-4206" rx="64.99" ry="18"/>
<text text-anchor="middle" x="2407.77" y="-4202.3" font-family="Times,serif" font-size="14.00">PatternTest</text>
</g>
<!-- u53 -->
<g id="node6" class="node">
<title>u53</title>
<ellipse fill="#bbffbb" stroke="black" cx="2407.77" cy="-3911" rx="53.89" ry="18"/>
<text text-anchor="middle" x="2407.77" y="-3907.3" font-family="Times,serif" font-size="14.00">Observer</text>
</g>
<!-- u59&#45;&gt;u53 -->
<g id="edge95" class="edge">
<title>u59&#45;&gt;u53</title>
<path fill="none" stroke="black" d="M2407.77,-4187.98C2407.77,-4139.23 2407.77,-3998.76 2407.77,-3939.2"/>
<polygon fill="black" stroke="black" points="2411.27,-3939.07 2407.77,-3929.07 2404.27,-3939.07 2411.27,-3939.07"/>
</g>
<!-- u58 -->
<g id="node2" class="node">
<title>u58</title>
<ellipse fill="#bbffbb" stroke="black" cx="2552.77" cy="-4206" rx="62.29" ry="18"/>
<text text-anchor="middle" x="2552.77" y="-4202.3" font-family="Times,serif" font-size="14.00">HelloWorld</text>
</g>
<!-- u55 -->
<g id="node4" class="node">
<title>u55</title>
<ellipse fill="#bbffbb" stroke="black" cx="2552.77" cy="-3911" rx="42.49" ry="18"/>
<text text-anchor="middle" x="2552.77" y="-3907.3" font-family="Times,serif" font-size="14.00">Helper</text>
</g>
<!-- u58&#45;&gt;u55 -->
<g id="edge94" class="edge">
<title>u58&#45;&gt;u55</title>
<path fill="none" stroke="black" d="M2552.77,-4187.98C2552.77,-4139.23 2552.77,-3998.76 2552.77,-3939.2"/>
<polygon fill="black" stroke="black" points="2556.27,-3939.07 2552.77,-3929.07 2549.27,-3939.07 2556.27,-3939.07"/>
</g>
<!-- u56 -->
<g id="node3" class="node">
<title>u56</title>
<ellipse fill="#bbffbb" stroke="black" cx="1970.77" cy="-4206" rx="59.59" ry="18"/>
<text text-anchor="middle" x="1970.77" y="-4202.3" font-family="Times,serif" font-size="14.00">VectorTest</text>
</g>
<!-- u54 -->
<g id="node5" class="node">
<title>u54</title>
<ellipse fill="#bbffbb" stroke="black" cx="2124.77" cy="-4206" rx="76.09" ry="18"/>
<text text-anchor="middle" x="2124.77" y="-4202.3" font-family="Times,serif" font-size="14.00">NameGenTest</text>
</g>
<!-- u52 -->
<g id="node7" class="node">
<title>u52</title>
<ellipse fill="#bbffbb" stroke="black" cx="2271.77" cy="-4206" rx="52.79" ry="18"/>
<text text-anchor="middle" x="2271.77" y="-4202.3" font-family="Times,serif" font-size="14.00">FileTests</text>
</g>
<!-- u51 -->
<g id="node8" class="node">
<title>u51</title>
<ellipse fill="#ffffbb" stroke="black" cx="2745.77" cy="-4502" rx="214.46" ry="18"/>
<text text-anchor="middle" x="2745.77" y="-4498.3" font-family="Times,serif" font-size="14.00">Data.Drasil.ExternalLibraries.ODELibraries</text>
</g>
<!-- u48 -->
<g id="node11" class="node">
<title>u48</title>
<ellipse fill="#bbbbff" stroke="black" cx="2745.77" cy="-4206" rx="113.18" ry="18"/>
<text text-anchor="middle" x="2745.77" y="-4202.3" font-family="Times,serif" font-size="14.00">Language.Drasil.Code</text>
</g>
<!-- u51&#45;&gt;u48 -->
<g id="edge87" class="edge">
<title>u51&#45;&gt;u48</title>
<path fill="none" stroke="black" d="M2745.77,-4483.92C2745.77,-4435.01 2745.77,-4294.05 2745.77,-4234.3"/>
<polygon fill="black" stroke="black" points="2749.27,-4234.12 2745.77,-4224.12 2742.27,-4234.12 2749.27,-4234.12"/>
</g>
<!-- u50 -->
<g id="node9" class="node">
<title>u50</title>
<ellipse fill="#bbbbff" stroke="black" cx="4009.77" cy="-1845" rx="126.18" ry="18"/>
<text text-anchor="middle" x="4009.77" y="-1841.3" font-family="Times,serif" font-size="14.00">Language.Drasil.Choices</text>
</g>
<!-- u14 -->
<g id="node21" class="node">
<title>u14</title>
<ellipse fill="#bbffff" stroke="black" cx="3511.77" cy="-1550" rx="139.98" ry="18"/>
<text text-anchor="middle" x="3511.77" y="-1546.3" font-family="Times,serif" font-size="14.00">Language.Drasil.Code.Code</text>
</g>
<!-- u50&#45;&gt;u14 -->
<g id="edge86" class="edge">
<title>u50&#45;&gt;u14</title>
<path fill="none" stroke="black" d="M3981.57,-1827.41C3896.85,-1777.57 3644.59,-1629.15 3549.03,-1572.92"/>
<polygon fill="black" stroke="black" points="3550.67,-1569.83 3540.28,-1567.77 3547.12,-1575.86 3550.67,-1569.83"/>
</g>
<!-- u7 -->
<g id="node59" class="node">
<title>u7</title>
<ellipse fill="#ff77ff" stroke="black" cx="4009.77" cy="-1550" rx="172.77" ry="18"/>
<text text-anchor="middle" x="4009.77" y="-1546.3" font-family="Times,serif" font-size="14.00">Language.Drasil.Data.ODELibPckg</text>
</g>
<!-- u50&#45;&gt;u7 -->
<g id="edge85" class="edge">
<title>u50&#45;&gt;u7</title>
<path fill="none" stroke="black" d="M4009.77,-1826.98C4009.77,-1778.23 4009.77,-1637.76 4009.77,-1578.2"/>
<polygon fill="black" stroke="black" points="4013.27,-1578.07 4009.77,-1568.07 4006.27,-1578.07 4013.27,-1578.07"/>
</g>
<!-- u49 -->
<g id="node10" class="node">
<title>u49</title>
<ellipse fill="#bbbbff" stroke="black" cx="4859.77" cy="-2140" rx="135.68" ry="18"/>
<text text-anchor="middle" x="4859.77" y="-2136.3" font-family="Times,serif" font-size="14.00">Language.Drasil.CodeSpec</text>
</g>
<!-- u49&#45;&gt;u50 -->
<g id="edge84" class="edge">
<title>u49&#45;&gt;u50</title>
<path fill="none" stroke="black" d="M4813.46,-2123.04C4668.23,-2072.98 4222.01,-1919.16 4065.07,-1865.06"/>
<polygon fill="black" stroke="black" points="4066.19,-1861.75 4055.59,-1861.8 4063.91,-1868.36 4066.19,-1861.75"/>
</g>
<!-- u3 -->
<g id="node16" class="node">
<title>u3</title>
<ellipse fill="#ffbbbb" stroke="black" cx="4398.77" cy="-1845" rx="191.17" ry="18"/>
<text text-anchor="middle" x="4398.77" y="-1841.3" font-family="Times,serif" font-size="14.00">Language.Drasil.Chunk.CodeDefinition</text>
</g>
<!-- u49&#45;&gt;u3 -->
<g id="edge83" class="edge">
<title>u49&#45;&gt;u3</title>
<path fill="none" stroke="black" d="M4833.33,-2122.19C4754.81,-2072.29 4522.95,-1924.93 4434.03,-1868.41"/>
<polygon fill="black" stroke="black" points="4435.71,-1865.33 4425.39,-1862.92 4431.95,-1871.24 4435.71,-1865.33"/>
</g>
<!-- u1 -->
<g id="node18" class="node">
<title>u1</title>
<ellipse fill="#ffbbbb" stroke="black" cx="4859.77" cy="-1845" rx="192.27" ry="18"/>
<text text-anchor="middle" x="4859.77" y="-1841.3" font-family="Times,serif" font-size="14.00">Language.Drasil.Chunk.ConstraintMap</text>
</g>
<!-- u49&#45;&gt;u1 -->
<g id="edge82" class="edge">
<title>u49&#45;&gt;u1</title>
<path fill="none" stroke="black" d="M4859.77,-2121.98C4859.77,-2073.23 4859.77,-1932.76 4859.77,-1873.2"/>
<polygon fill="black" stroke="black" points="4863.27,-1873.07 4859.77,-1863.07 4856.27,-1873.07 4863.27,-1873.07"/>
</g>
<!-- u39 -->
<g id="node30" class="node">
<title>u39</title>
<ellipse fill="#ffbbff" stroke="black" cx="4850.77" cy="-3911" rx="217.16" ry="18"/>
<text text-anchor="middle" x="4850.77" y="-3907.3" font-family="Times,serif" font-size="14.00">Language.Drasil.Code.Imperative.Generator</text>
</g>
<!-- u48&#45;&gt;u39 -->
<g id="edge81" class="edge">
<title>u48&#45;&gt;u39</title>
<path fill="none" stroke="black" d="M2827.96,-4193.56C3153.73,-4148.21 4354.85,-3981.03 4734.76,-3928.15"/>
<polygon fill="black" stroke="black" points="4735.52,-3931.57 4744.95,-3926.73 4734.56,-3924.64 4735.52,-3931.57"/>
</g>
<!-- u37 -->
<g id="node32" class="node">
<title>u37</title>
<ellipse fill="#ffbbff" stroke="black" cx="6517.77" cy="-2435" rx="217.96" ry="18"/>
<text text-anchor="middle" x="6517.77" y="-2431.3" font-family="Times,serif" font-size="14.00">Language.Drasil.Code.Imperative.ReadInput</text>
</g>
<!-- u48&#45;&gt;u37 -->
<g id="edge80" class="edge">
<title>u48&#45;&gt;u37</title>
<path fill="none" stroke="black" d="M2855.06,-4201.34C3510.51,-4177.99 6891.77,-4037.18 6891.77,-3617 6891.77,-3617 6891.77,-3617 6891.77,-3025 6891.77,-2883.19 6900.36,-2834.99 6829.77,-2712 6761.55,-2593.15 6623.38,-2499.02 6556.19,-2458.14"/>
<polygon fill="black" stroke="black" points="6557.95,-2455.12 6547.58,-2452.96 6554.34,-2461.11 6557.95,-2455.12"/>
</g>
<!-- u24 -->
<g id="node51" class="node">
<title>u24</title>
<ellipse fill="#ff7777" stroke="black" cx="3297.77" cy="-3616" rx="354.44" ry="18"/>
<text text-anchor="middle" x="3297.77" y="-3612.3" font-family="Times,serif" font-size="14.00">Language.Drasil.Code.Imperative.GOOL.LanguageRenderer.JavaRenderer</text>
</g>
<!-- u48&#45;&gt;u24 -->
<g id="edge79" class="edge">
<title>u48&#45;&gt;u24</title>
<path fill="none" stroke="black" d="M2761.69,-4188.04C2839.83,-4104.8 3182.62,-3739.66 3274.85,-3641.42"/>
<polygon fill="black" stroke="black" points="3277.49,-3643.72 3281.78,-3634.03 3272.38,-3638.93 3277.49,-3643.72"/>
</g>
<!-- u23 -->
<g id="node52" class="node">
<title>u23</title>
<ellipse fill="#ff7777" stroke="black" cx="4036.77" cy="-3616" rx="367.43" ry="18"/>
<text text-anchor="middle" x="4036.77" y="-3612.3" font-family="Times,serif" font-size="14.00">Language.Drasil.Code.Imperative.GOOL.LanguageRenderer.PythonRenderer</text>
</g>
<!-- u48&#45;&gt;u23 -->
<g id="edge78" class="edge">
<title>u48&#45;&gt;u23</title>
<path fill="none" stroke="black" d="M2781.31,-4188.81C2962.71,-4106.19 3784.84,-3731.75 3990.18,-3638.22"/>
<polygon fill="black" stroke="black" points="3991.84,-3641.31 3999.49,-3633.98 3988.94,-3634.94 3991.84,-3641.31"/>
</g>
<!-- u22 -->
<g id="node53" class="node">
<title>u22</title>
<ellipse fill="#ff7777" stroke="black" cx="358.77" cy="-3616" rx="358.54" ry="18"/>
<text text-anchor="middle" x="358.77" y="-3612.3" font-family="Times,serif" font-size="14.00">Language.Drasil.Code.Imperative.GOOL.LanguageRenderer.SwiftRenderer</text>
</g>
<!-- u48&#45;&gt;u22 -->
<g id="edge77" class="edge">
<title>u48&#45;&gt;u22</title>
<path fill="none" stroke="black" d="M2740.38,-4187.73C2721.36,-4127.91 2655.71,-3931.11 2603.77,-3893 2441.75,-3774.12 1103.53,-3668.89 573.63,-3631.49"/>
<polygon fill="black" stroke="black" points="573.8,-3627.99 563.57,-3630.78 573.3,-3634.98 573.8,-3627.99"/>
</g>
<!-- u21 -->
<g id="node54" class="node">
<title>u21</title>
<ellipse fill="#ff7777" stroke="black" cx="1090.77" cy="-3616" rx="354.74" ry="18"/>
<text text-anchor="middle" x="1090.77" y="-3612.3" font-family="Times,serif" font-size="14.00">Language.Drasil.Code.Imperative.GOOL.LanguageRenderer.JuliaRenderer</text>
</g>
<!-- u48&#45;&gt;u21 -->
<g id="edge76" class="edge">
<title>u48&#45;&gt;u21</title>
<path fill="none" stroke="black" d="M2745.67,-4187.9C2744.38,-4134.92 2732.78,-3972.27 2640.77,-3893 2448.15,-3727.04 1716.92,-3656.53 1331.63,-3630.39"/>
<polygon fill="black" stroke="black" points="1331.68,-3626.88 1321.46,-3629.7 1331.21,-3633.87 1331.68,-3626.88"/>
</g>
<!-- u20 -->
<g id="node55" class="node">
<title>u20</title>
<ellipse fill="#ff7777" stroke="black" cx="1832.77" cy="-3616" rx="369.33" ry="18"/>
<text text-anchor="middle" x="1832.77" y="-3612.3" font-family="Times,serif" font-size="14.00">Language.Drasil.Code.Imperative.GOOL.LanguageRenderer.CSharpRenderer</text>
</g>
<!-- u48&#45;&gt;u20 -->
<g id="edge75" class="edge">
<title>u48&#45;&gt;u20</title>
<path fill="none" stroke="black" d="M2747.57,-4187.89C2752.03,-4136.24 2758.04,-3980.09 2679.77,-3893 2525.57,-3721.43 2263.52,-3656.09 2071.65,-3631.44"/>
<polygon fill="black" stroke="black" points="2072.06,-3627.97 2061.7,-3630.19 2071.19,-3634.91 2072.06,-3627.97"/>
</g>
<!-- u19 -->
<g id="node56" class="node">
<title>u19</title>
<ellipse fill="#ff7777" stroke="black" cx="2572.77" cy="-3616" rx="352.84" ry="18"/>
<text text-anchor="middle" x="2572.77" y="-3612.3" font-family="Times,serif" font-size="14.00">Language.Drasil.Code.Imperative.GOOL.LanguageRenderer.CppRenderer</text>
</g>
<!-- u48&#45;&gt;u19 -->
<g id="edge74" class="edge">
<title>u48&#45;&gt;u19</title>
<path fill="none" stroke="black" d="M2746.72,-4187.99C2748.89,-4140.3 2751.77,-4001.72 2719.77,-3893 2690.53,-3793.68 2623.28,-3689.17 2590.87,-3642.32"/>
<polygon fill="black" stroke="black" points="2593.65,-3640.19 2585.06,-3634 2587.92,-3644.2 2593.65,-3640.19"/>
</g>
<!-- u0 -->
<g id="node12" class="node">
<title>u0</title>
<ellipse fill="#bbbbff" stroke="black" cx="4532.77" cy="-959" rx="110.48" ry="18"/>
<text text-anchor="middle" x="4532.77" y="-955.3" font-family="Times,serif" font-size="14.00">Language.Drasil.Mod</text>
</g>
<!-- u6 -->
<g id="node13" class="node">
<title>u6</title>
<ellipse fill="#ffbbbb" stroke="black" cx="4532.77" cy="-664" rx="170.87" ry="18"/>
<text text-anchor="middle" x="4532.77" y="-660.3" font-family="Times,serif" font-size="14.00">Language.Drasil.Chunk.Parameter</text>
</g>
<!-- u0&#45;&gt;u6 -->
<g id="edge1" class="edge">
<title>u0&#45;&gt;u6</title>
<path fill="none" stroke="black" d="M4532.77,-940.98C4532.77,-892.23 4532.77,-751.76 4532.77,-692.2"/>
<polygon fill="black" stroke="black" points="4536.27,-692.07 4532.77,-682.07 4529.27,-692.07 4536.27,-692.07"/>
</g>
<!-- u46 -->
<g id="node20" class="node">
<title>u46</title>
<ellipse fill="#bbffff" stroke="black" cx="4183.77" cy="-664" rx="160.57" ry="18"/>
<text text-anchor="middle" x="4183.77" y="-660.3" font-family="Times,serif" font-size="14.00">Language.Drasil.Code.DataDesc</text>
</g>
<!-- u0&#45;&gt;u46 -->
<g id="edge2" class="edge">
<title>u0&#45;&gt;u46</title>
<path fill="none" stroke="black" d="M4512.75,-941.19C4453.74,-891.65 4280.32,-746.06 4211.94,-688.65"/>
<polygon fill="black" stroke="black" points="4214.05,-685.85 4204.14,-682.1 4209.55,-691.21 4214.05,-685.85"/>
</g>
<!-- u5 -->
<g id="node14" class="node">
<title>u5</title>
<ellipse fill="#ffbbbb" stroke="black" cx="4183.77" cy="-369" rx="145.67" ry="18"/>
<text text-anchor="middle" x="4183.77" y="-365.3" font-family="Times,serif" font-size="14.00">Language.Drasil.Chunk.Code</text>
</g>
<!-- u6&#45;&gt;u5 -->
<g id="edge5" class="edge">
<title>u6&#45;&gt;u5</title>
<path fill="none" stroke="black" d="M4512.5,-645.98C4453.22,-596.22 4280.12,-450.89 4211.88,-393.6"/>
<polygon fill="black" stroke="black" points="4214.01,-390.82 4204.1,-387.07 4209.5,-396.18 4214.01,-390.82"/>
</g>
<!-- u2 -->
<g id="node17" class="node">
<title>u2</title>
<ellipse fill="#ffbbbb" stroke="black" cx="4183.77" cy="-74" rx="168.17" ry="18"/>
<text text-anchor="middle" x="4183.77" y="-70.3" font-family="Times,serif" font-size="14.00">Language.Drasil.Chunk.CodeBase</text>
</g>
<!-- u5&#45;&gt;u2 -->
<g id="edge4" class="edge">
<title>u5&#45;&gt;u2</title>
<path fill="none" stroke="black" d="M4183.77,-350.98C4183.77,-302.23 4183.77,-161.76 4183.77,-102.2"/>
<polygon fill="black" stroke="black" points="4187.27,-102.07 4183.77,-92.07 4180.27,-102.07 4187.27,-102.07"/>
</g>
<!-- u4 -->
<g id="node15" class="node">
<title>u4</title>
<ellipse fill="#ffbbbb" stroke="black" cx="4201.77" cy="-959" rx="202.26" ry="18"/>
<text text-anchor="middle" x="4201.77" y="-955.3" font-family="Times,serif" font-size="14.00">Language.Drasil.Chunk.NamedArgument</text>
</g>
<!-- u8 -->
<g id="node58" class="node">
<title>u8</title>
<ellipse fill="#ff77ff" stroke="black" cx="3525.77" cy="-1255" rx="154.07" ry="18"/>
<text text-anchor="middle" x="3525.77" y="-1251.3" font-family="Times,serif" font-size="14.00">Language.Drasil.Data.ODEInfo</text>
</g>
<!-- u3&#45;&gt;u8 -->
<g id="edge3" class="edge">
<title>u3&#45;&gt;u8</title>
<path fill="none" stroke="black" d="M4350.94,-1827.45C4248.78,-1790.74 4004.22,-1695.57 3827.77,-1568 3705.45,-1479.57 3589.73,-1338.61 3545.11,-1281.39"/>
<polygon fill="black" stroke="black" points="3547.7,-1279.02 3538.81,-1273.25 3542.17,-1283.3 3547.7,-1279.02"/>
</g>
<!-- u47 -->
<g id="node19" class="node">
<title>u47</title>
<ellipse fill="#bbffff" stroke="black" cx="4617.77" cy="-1550" rx="178.97" ry="18"/>
<text text-anchor="middle" x="4617.77" y="-1546.3" font-family="Times,serif" font-size="14.00">Language.Drasil.Code.ExtLibImport</text>
</g>
<!-- u13 -->
<g id="node22" class="node">
<title>u13</title>
<ellipse fill="#bbffff" stroke="black" cx="4617.77" cy="-1255" rx="190.37" ry="18"/>
<text text-anchor="middle" x="4617.77" y="-1251.3" font-family="Times,serif" font-size="14.00">Language.Drasil.Code.ExternalLibrary</text>
</g>
<!-- u47&#45;&gt;u13 -->
<g id="edge73" class="edge">
<title>u47&#45;&gt;u13</title>
<path fill="none" stroke="black" d="M4617.77,-1531.98C4617.77,-1483.23 4617.77,-1342.76 4617.77,-1283.2"/>
<polygon fill="black" stroke="black" points="4621.27,-1283.07 4617.77,-1273.07 4614.27,-1283.07 4621.27,-1283.07"/>
</g>
<!-- u11 -->
<g id="node24" class="node">
<title>u11</title>
<ellipse fill="#bbffff" stroke="black" cx="4201.77" cy="-1255" rx="207.96" ry="18"/>
<text text-anchor="middle" x="4201.77" y="-1251.3" font-family="Times,serif" font-size="14.00">Language.Drasil.Code.ExternalLibraryCall</text>
</g>
<!-- u47&#45;&gt;u11 -->
<g id="edge72" class="edge">
<title>u47&#45;&gt;u11</title>
<path fill="none" stroke="black" d="M4593.6,-1531.98C4522.58,-1481.96 4314.44,-1335.36 4234.01,-1278.71"/>
<polygon fill="black" stroke="black" points="4235.93,-1275.78 4225.74,-1272.88 4231.9,-1281.5 4235.93,-1275.78"/>
</g>
<!-- u46&#45;&gt;u5 -->
<g id="edge71" class="edge">
<title>u46&#45;&gt;u5</title>
<path fill="none" stroke="black" d="M4183.77,-645.98C4183.77,-597.23 4183.77,-456.76 4183.77,-397.2"/>
<polygon fill="black" stroke="black" points="4187.27,-397.07 4183.77,-387.07 4180.27,-397.07 4187.27,-397.07"/>
</g>
<!-- u13&#45;&gt;u0 -->
<g id="edge15" class="edge">
<title>u13&#45;&gt;u0</title>
<path fill="none" stroke="black" d="M4612.83,-1236.92C4598.66,-1187.9 4557.77,-1046.47 4540.55,-986.93"/>
<polygon fill="black" stroke="black" points="4543.86,-985.76 4537.72,-977.12 4537.13,-987.7 4543.86,-985.76"/>
</g>
<!-- u13&#45;&gt;u4 -->
<g id="edge16" class="edge">
<title>u13&#45;&gt;u4</title>
<path fill="none" stroke="black" d="M4593.91,-1237.14C4523.2,-1187.16 4314.68,-1039.8 4234.08,-982.83"/>
<polygon fill="black" stroke="black" points="4235.98,-979.89 4225.79,-976.98 4231.94,-985.61 4235.98,-979.89"/>
</g>
<!-- u12 -->
<g id="node23" class="node">
<title>u12</title>
<ellipse fill="#bbffff" stroke="black" cx="6545.77" cy="-2730" rx="204.16" ry="18"/>
<text text-anchor="middle" x="6545.77" y="-2726.3" font-family="Times,serif" font-size="14.00">Language.Drasil.Code.CodeQuantityDicts</text>
</g>
<!-- u11&#45;&gt;u0 -->
<g id="edge13" class="edge">
<title>u11&#45;&gt;u0</title>
<path fill="none" stroke="black" d="M4220.99,-1236.92C4277.23,-1186.97 4441.5,-1041.07 4506.17,-983.63"/>
<polygon fill="black" stroke="black" points="4508.75,-986.02 4513.9,-976.76 4504.1,-980.78 4508.75,-986.02"/>
</g>
<!-- u11&#45;&gt;u4 -->
<g id="edge14" class="edge">
<title>u11&#45;&gt;u4</title>
<path fill="none" stroke="black" d="M4201.77,-1236.92C4201.77,-1188.01 4201.77,-1047.05 4201.77,-987.3"/>
<polygon fill="black" stroke="black" points="4205.27,-987.12 4201.77,-977.12 4198.27,-987.12 4205.27,-987.12"/>
</g>
<!-- u10 -->
<g id="node25" class="node">
<title>u10</title>
<ellipse fill="#bbffff" stroke="black" cx="3836.77" cy="-1255" rx="139.18" ry="18"/>
<text text-anchor="middle" x="3836.77" y="-1251.3" font-family="Times,serif" font-size="14.00">Language.Drasil.Code.Lang</text>
</g>
<!-- u9 -->
<g id="node26" class="node">
<title>u9</title>
<ellipse fill="#bbffff" stroke="black" cx="4612.77" cy="-3616" rx="191.17" ry="18"/>
<text text-anchor="middle" x="4612.77" y="-3612.3" font-family="Times,serif" font-size="14.00">Language.Drasil.Code.CodeGeneration</text>
</g>
<!-- u9&#45;&gt;u14 -->
<g id="edge11" class="edge">
<title>u9&#45;&gt;u14</title>
<path fill="none" stroke="black" d="M4586.6,-3598.12C4406.66,-3481.13 3359.77,-2785.47 3359.77,-2436 3359.77,-2436 3359.77,-2436 3359.77,-2139 3359.77,-1915.82 3463.69,-1659.71 3499.67,-1577.71"/>
<polygon fill="black" stroke="black" points="3502.96,-1578.93 3503.81,-1568.37 3496.56,-1576.1 3502.96,-1578.93"/>
</g>
<!-- u27 -->
<g id="node48" class="node">
<title>u27</title>
<ellipse fill="#7777ff" stroke="black" cx="3297.77" cy="-3321" rx="222.06" ry="18"/>
<text text-anchor="middle" x="3297.77" y="-3317.3" font-family="Times,serif" font-size="14.00">Language.Drasil.Code.Imperative.GOOL.Data</text>
</g>
<!-- u9&#45;&gt;u27 -->
<g id="edge12" class="edge">
<title>u9&#45;&gt;u27</title>
<path fill="none" stroke="black" d="M4542.07,-3599.25C4317.37,-3549.18 3620.27,-3393.86 3380.09,-3340.34"/>
<polygon fill="black" stroke="black" points="3380.55,-3336.86 3370.03,-3338.1 3379.02,-3343.69 3380.55,-3336.86"/>
</g>
<!-- u42 -->
<g id="node27" class="node">
<title>u42</title>
<ellipse fill="#ffbbff" stroke="black" cx="5685.77" cy="-2435" rx="222.06" ry="18"/>
<text text-anchor="middle" x="5685.77" y="-2431.3" font-family="Times,serif" font-size="14.00">Language.Drasil.Code.Imperative.DrasilState</text>
</g>
<!-- u42&#45;&gt;u49 -->
<g id="edge68" class="edge">
<title>u42&#45;&gt;u49</title>
<path fill="none" stroke="black" d="M5638.69,-2417.3C5495.78,-2366.61 5067.38,-2214.65 4914.63,-2160.46"/>
<polygon fill="black" stroke="black" points="4915.56,-2157.08 4904.97,-2157.03 4913.22,-2163.68 4915.56,-2157.08"/>
</g>
<!-- u42&#45;&gt;u47 -->
<g id="edge67" class="edge">
<title>u42&#45;&gt;u47</title>
<path fill="none" stroke="black" d="M5670.76,-2416.96C5604.13,-2341.87 5326.71,-2035.1 5060.77,-1827 4922.14,-1718.52 4738.81,-1615.75 4658.45,-1572.49"/>
<polygon fill="black" stroke="black" points="4660.09,-1569.4 4649.62,-1567.75 4656.78,-1575.56 4660.09,-1569.4"/>
</g>
<!-- u41 -->
<g id="node28" class="node">
<title>u41</title>
<ellipse fill="#ffbbff" stroke="black" cx="6163.77" cy="-3321" rx="228.26" ry="18"/>
<text text-anchor="middle" x="6163.77" y="-3317.3" font-family="Times,serif" font-size="14.00">Language.Drasil.Code.Imperative.Descriptions</text>
</g>
<!-- u41&#45;&gt;u42 -->
<g id="edge66" class="edge">
<title>u41&#45;&gt;u42</title>
<path fill="none" stroke="black" d="M6279.66,-3305.47C6424.8,-3280.39 6667.86,-3214.08 6778.77,-3044 6859.37,-2920.4 6871.46,-2828.39 6780.77,-2712 6664.21,-2562.42 6098.53,-2481.3 5829.06,-2450.59"/>
<polygon fill="black" stroke="black" points="5829.15,-2447.08 5818.82,-2449.43 5828.36,-2454.03 5829.15,-2447.08"/>
</g>
<!-- u40 -->
<g id="node29" class="node">
<title>u40</title>
<ellipse fill="#ffbbff" stroke="black" cx="6545.77" cy="-3026" rx="223.66" ry="18"/>
<text text-anchor="middle" x="6545.77" y="-3022.3" font-family="Times,serif" font-size="14.00">Language.Drasil.Code.Imperative.Parameters</text>
</g>
<!-- u40&#45;&gt;u12 -->
<g id="edge64" class="edge">
<title>u40&#45;&gt;u12</title>
<path fill="none" stroke="black" d="M6545.77,-3007.92C6545.77,-2959.01 6545.77,-2818.05 6545.77,-2758.3"/>
<polygon fill="black" stroke="black" points="6549.27,-2758.12 6545.77,-2748.12 6542.27,-2758.12 6549.27,-2758.12"/>
</g>
<!-- u40&#45;&gt;u42 -->
<g id="edge65" class="edge">
<title>u40&#45;&gt;u42</title>
<path fill="none" stroke="black" d="M6573.45,-3008.03C6648.17,-2960.15 6842.84,-2820.44 6758.77,-2712 6644.59,-2564.73 6088.58,-2482.28 5824.96,-2450.9"/>
<polygon fill="black" stroke="black" points="5825.28,-2447.41 5814.94,-2449.71 5824.46,-2454.36 5825.28,-2447.41"/>
</g>
<!-- u39&#45;&gt;u9 -->
<g id="edge59" class="edge">
<title>u39&#45;&gt;u9</title>
<path fill="none" stroke="black" d="M4836.94,-3892.98C4796.85,-3843.62 4680.39,-3700.24 4633.09,-3642.02"/>
<polygon fill="black" stroke="black" points="4635.65,-3639.62 4626.63,-3634.07 4630.22,-3644.04 4635.65,-3639.62"/>
</g>
<!-- u34 -->
<g id="node35" class="node">
<title>u34</title>
<ellipse fill="#ffbbff" stroke="black" cx="6636.77" cy="-3321" rx="226.66" ry="18"/>
<text text-anchor="middle" x="6636.77" y="-3317.3" font-family="Times,serif" font-size="14.00">Language.Drasil.Code.Imperative.SpaceMatch</text>
</g>
<!-- u39&#45;&gt;u34 -->
<g id="edge63" class="edge">
<title>u39&#45;&gt;u34</title>
<path fill="none" stroke="black" d="M4926.5,-3894.11C5101.03,-3856.63 5544.07,-3756.56 5902.77,-3634 6171.36,-3542.23 6480.43,-3397.38 6592.94,-3343.3"/>
<polygon fill="black" stroke="black" points="6594.47,-3346.45 6601.96,-3338.95 6591.43,-3340.14 6594.47,-3346.45"/>
</g>
<!-- u30 -->
<g id="node39" class="node">
<title>u30</title>
<ellipse fill="#ffbbff" stroke="black" cx="5684.77" cy="-3616" rx="209.06" ry="18"/>
<text text-anchor="middle" x="5684.77" y="-3612.3" font-family="Times,serif" font-size="14.00">Language.Drasil.Code.Imperative.Modules</text>
</g>
<!-- u39&#45;&gt;u30 -->
<g id="edge62" class="edge">
<title>u39&#45;&gt;u30</title>
<path fill="none" stroke="black" d="M4898,-3893.41C5041.47,-3843 5471.88,-3691.79 5627.68,-3637.06"/>
<polygon fill="black" stroke="black" points="5629.27,-3640.21 5637.54,-3633.59 5626.95,-3633.6 5629.27,-3640.21"/>
</g>
<!-- u16 -->
<g id="node42" class="node">
<title>u16</title>
<ellipse fill="#ffbbff" stroke="black" cx="4495.77" cy="-2140" rx="209.86" ry="18"/>
<text text-anchor="middle" x="4495.77" y="-2136.3" font-family="Times,serif" font-size="14.00">Language.Drasil.Code.Imperative.GenODE</text>
</g>
<!-- u39&#45;&gt;u16 -->
<g id="edge60" class="edge">
<title>u39&#45;&gt;u16</title>
<path fill="none" stroke="black" d="M4850.41,-3892.76C4849.03,-3845.04 4842.58,-3707.51 4812.77,-3598 4742.25,-3338.92 4651.19,-3300.5 4571.77,-3044 4532.14,-2916.02 4529.58,-2881.15 4514.77,-2748 4490.04,-2525.64 4493.25,-2254.85 4495.07,-2168.7"/>
<polygon fill="black" stroke="black" points="4498.58,-2168.53 4495.3,-2158.45 4491.58,-2168.37 4498.58,-2168.53"/>
</g>
<!-- u28 -->
<g id="node47" class="node">
<title>u28</title>
<ellipse fill="#7777ff" stroke="black" cx="4869.77" cy="-3026" rx="289.45" ry="18"/>
<text text-anchor="middle" x="4869.77" y="-3022.3" font-family="Times,serif" font-size="14.00">Language.Drasil.Code.Imperative.GOOL.LanguageRenderer</text>
</g>
<!-- u39&#45;&gt;u28 -->
<g id="edge61" class="edge">
<title>u39&#45;&gt;u28</title>
<path fill="none" stroke="black" d="M4851.14,-3892.76C4853.48,-3783.75 4866.25,-3190.5 4869.17,-3054.7"/>
<polygon fill="black" stroke="black" points="4872.68,-3054.43 4869.39,-3044.35 4865.68,-3054.28 4872.68,-3054.43"/>
</g>
<!-- u38 -->
<g id="node31" class="node">
<title>u38</title>
<ellipse fill="#ffbbff" stroke="black" cx="4030.77" cy="-2140" rx="237.46" ry="18"/>
<text text-anchor="middle" x="4030.77" y="-2136.3" font-family="Times,serif" font-size="14.00">Language.Drasil.Code.Imperative.ConceptMatch</text>
</g>
<!-- u38&#45;&gt;u50 -->
<g id="edge58" class="edge">
<title>u38&#45;&gt;u50</title>
<path fill="none" stroke="black" d="M4029.55,-2121.98C4026.05,-2073.23 4015.99,-1932.76 4011.72,-1873.2"/>
<polygon fill="black" stroke="black" points="4015.2,-1872.79 4010.99,-1863.07 4008.22,-1873.29 4015.2,-1872.79"/>
</g>
<!-- u37&#45;&gt;u46 -->
<g id="edge57" class="edge">
<title>u37&#45;&gt;u46</title>
<path fill="none" stroke="black" d="M6456.91,-2417.69C6280.58,-2366.35 5781.77,-2190.68 5781.77,-1846 5781.77,-1846 5781.77,-1846 5781.77,-1254 5781.77,-934.42 4642.32,-734.57 4287.77,-680.13"/>
<polygon fill="black" stroke="black" points="4288.18,-676.65 4277.76,-678.6 4287.12,-683.57 4288.18,-676.65"/>
</g>
<!-- u36 -->
<g id="node33" class="node">
<title>u36</title>
<ellipse fill="#ffbbff" stroke="black" cx="5684.77" cy="-3321" rx="233.16" ry="18"/>
<text text-anchor="middle" x="5684.77" y="-3317.3" font-family="Times,serif" font-size="14.00">Language.Drasil.Code.Imperative.FunctionCalls</text>
</g>
<!-- u36&#45;&gt;u40 -->
<g id="edge56" class="edge">
<title>u36&#45;&gt;u40</title>
<path fill="none" stroke="black" d="M5733.84,-3303.3C5882.43,-3252.73 6327.11,-3101.41 6487.38,-3046.87"/>
<polygon fill="black" stroke="black" points="6488.73,-3050.11 6497.07,-3043.57 6486.47,-3043.48 6488.73,-3050.11"/>
</g>
<!-- u29 -->
<g id="node40" class="node">
<title>u29</title>
<ellipse fill="#ffbbff" stroke="black" cx="5684.77" cy="-3026" rx="201.46" ry="18"/>
<text text-anchor="middle" x="5684.77" y="-3022.3" font-family="Times,serif" font-size="14.00">Language.Drasil.Code.Imperative.Import</text>
</g>
<!-- u36&#45;&gt;u29 -->
<g id="edge55" class="edge">
<title>u36&#45;&gt;u29</title>
<path fill="none" stroke="black" d="M5684.77,-3302.98C5684.77,-3254.23 5684.77,-3113.76 5684.77,-3054.2"/>
<polygon fill="black" stroke="black" points="5688.27,-3054.07 5684.77,-3044.07 5681.27,-3054.07 5688.27,-3054.07"/>
</g>
<!-- u35 -->
<g id="node34" class="node">
<title>u35</title>
<ellipse fill="#ffbbff" stroke="black" cx="3548.77" cy="-3026" rx="233.16" ry="18"/>
<text text-anchor="middle" x="3548.77" y="-3022.3" font-family="Times,serif" font-size="14.00">Language.Drasil.Code.Imperative.WriteReadMe</text>
</g>
<!-- u26 -->
<g id="node49" class="node">
<title>u26</title>
<ellipse fill="#7777ff" stroke="black" cx="4162.77" cy="-2435" rx="267.25" ry="18"/>
<text text-anchor="middle" x="4162.77" y="-2431.3" font-family="Times,serif" font-size="14.00">Language.Drasil.Code.Imperative.GOOL.ClassInterface</text>
</g>
<!-- u35&#45;&gt;u26 -->
<g id="edge54" class="edge">
<title>u35&#45;&gt;u26</title>
<path fill="none" stroke="black" d="M3566.48,-3008.01C3653.48,-2924.55 4035.45,-2558.14 4137.58,-2460.16"/>
<polygon fill="black" stroke="black" points="4140.19,-2462.51 4144.98,-2453.06 4135.34,-2457.46 4140.19,-2462.51"/>
</g>
<!-- u34&#45;&gt;u42 -->
<g id="edge53" class="edge">
<title>u34&#45;&gt;u42</title>
<path fill="none" stroke="black" d="M6651.17,-3302.93C6714.47,-3225.81 6958.21,-2905.24 6806.77,-2712 6687.4,-2559.67 6110.22,-2480.11 5833.86,-2450.21"/>
<polygon fill="black" stroke="black" points="5834.07,-2446.71 5823.75,-2449.12 5833.32,-2453.67 5834.07,-2446.71"/>
</g>
<!-- u33 -->
<g id="node36" class="node">
<title>u33</title>
<ellipse fill="#ffbbff" stroke="black" cx="6116.77" cy="-2730" rx="207.16" ry="18"/>
<text text-anchor="middle" x="6116.77" y="-2726.3" font-family="Times,serif" font-size="14.00">Language.Drasil.Code.Imperative.Logging</text>
</g>
<!-- u33&#45;&gt;u42 -->
<g id="edge52" class="edge">
<title>u33&#45;&gt;u42</title>
<path fill="none" stroke="black" d="M6091.73,-2711.98C6018.16,-2661.97 5802.58,-2515.41 5719.21,-2458.74"/>
<polygon fill="black" stroke="black" points="5721.11,-2455.79 5710.87,-2453.07 5717.17,-2461.58 5721.11,-2455.79"/>
</g>
<!-- u32 -->
<g id="node37" class="node">
<title>u32</title>
<ellipse fill="#ffbbff" stroke="black" cx="5241.77" cy="-2730" rx="219.86" ry="18"/>
<text text-anchor="middle" x="5241.77" y="-2726.3" font-family="Times,serif" font-size="14.00">Language.Drasil.Code.Imperative.Comments</text>
</g>
<!-- u32&#45;&gt;u42 -->
<g id="edge51" class="edge">
<title>u32&#45;&gt;u42</title>
<path fill="none" stroke="black" d="M5267.56,-2711.98C5343.44,-2661.91 5565.96,-2515.06 5651.62,-2458.54"/>
<polygon fill="black" stroke="black" points="5653.77,-2461.31 5660.18,-2452.88 5649.91,-2455.47 5653.77,-2461.31"/>
</g>
<!-- u31 -->
<g id="node38" class="node">
<title>u31</title>
<ellipse fill="#ffbbff" stroke="black" cx="5685.77" cy="-2730" rx="206.06" ry="18"/>
<text text-anchor="middle" x="5685.77" y="-2726.3" font-family="Times,serif" font-size="14.00">Language.Drasil.Code.Imperative.Helpers</text>
</g>
<!-- u31&#45;&gt;u42 -->
<g id="edge50" class="edge">
<title>u31&#45;&gt;u42</title>
<path fill="none" stroke="black" d="M5685.77,-2711.98C5685.77,-2663.23 5685.77,-2522.76 5685.77,-2463.2"/>
<polygon fill="black" stroke="black" points="5689.27,-2463.07 5685.77,-2453.07 5682.27,-2463.07 5689.27,-2463.07"/>
</g>
<!-- u30&#45;&gt;u41 -->
<g id="edge49" class="edge">
<title>u30&#45;&gt;u41</title>
<path fill="none" stroke="black" d="M5712.59,-3597.98C5794.62,-3547.8 6035.49,-3400.47 6127.48,-3344.2"/>
<polygon fill="black" stroke="black" points="6129.46,-3347.09 6136.17,-3338.88 6125.81,-3341.12 6129.46,-3347.09"/>
</g>
<!-- u30&#45;&gt;u36 -->
<g id="edge48" class="edge">
<title>u30&#45;&gt;u36</title>
<path fill="none" stroke="black" d="M5684.77,-3597.98C5684.77,-3549.23 5684.77,-3408.76 5684.77,-3349.2"/>
<polygon fill="black" stroke="black" points="5688.27,-3349.07 5684.77,-3339.07 5681.27,-3349.07 5688.27,-3349.07"/>
</g>
<!-- u29&#45;&gt;u12 -->
<g id="edge42" class="edge">
<title>u29&#45;&gt;u12</title>
<path fill="none" stroke="black" d="M5733.21,-3008.46C5881.23,-2957.91 6327.18,-2805.64 6487.54,-2750.88"/>
<polygon fill="black" stroke="black" points="6488.89,-2754.12 6497.23,-2747.58 6486.63,-2747.49 6488.89,-2754.12"/>
</g>
<!-- u29&#45;&gt;u38 -->
<g id="edge47" class="edge">
<title>u29&#45;&gt;u38</title>
<path fill="none" stroke="black" d="M5559.12,-3011.92C5288.11,-2981.16 4661.27,-2895.5 4514.77,-2748 4408.4,-2640.91 4524.1,-2541.5 4438.77,-2417 4348.39,-2285.13 4172.44,-2198.68 4084.09,-2161.63"/>
<polygon fill="black" stroke="black" points="4085.37,-2158.37 4074.79,-2157.78 4082.69,-2164.84 4085.37,-2158.37"/>
</g>
<!-- u29&#45;&gt;u33 -->
<g id="edge46" class="edge">
<title>u29&#45;&gt;u33</title>
<path fill="none" stroke="black" d="M5709.86,-3007.92C5783.69,-2957.68 6000.2,-2810.33 6083.54,-2753.61"/>
<polygon fill="black" stroke="black" points="6085.58,-2756.46 6091.88,-2747.94 6081.64,-2750.67 6085.58,-2756.46"/>
</g>
<!-- u29&#45;&gt;u32 -->
<g id="edge45" class="edge">
<title>u29&#45;&gt;u32</title>
<path fill="none" stroke="black" d="M5659.36,-3008.14C5583.98,-2958.11 5361.56,-2810.5 5275.92,-2753.66"/>
<polygon fill="black" stroke="black" points="5277.62,-2750.59 5267.35,-2747.98 5273.75,-2756.42 5277.62,-2750.59"/>
</g>
<!-- u29&#45;&gt;u31 -->
<g id="edge44" class="edge">
<title>u29&#45;&gt;u31</title>
<path fill="none" stroke="black" d="M5684.83,-3007.92C5684.99,-2959.01 5685.47,-2818.05 5685.68,-2758.3"/>
<polygon fill="black" stroke="black" points="5689.18,-2758.14 5685.71,-2748.12 5682.18,-2758.11 5689.18,-2758.14"/>
</g>
<!-- u15 -->
<g id="node43" class="node">
<title>u15</title>
<ellipse fill="#ffbbff" stroke="black" cx="4763.77" cy="-2730" rx="240.46" ry="18"/>
<text text-anchor="middle" x="4763.77" y="-2726.3" font-family="Times,serif" font-size="14.00">Language.Drasil.Code.Imperative.GenerateGOOL</text>
</g>
<!-- u29&#45;&gt;u15 -->
<g id="edge43" class="edge">
<title>u29&#45;&gt;u15</title>
<path fill="none" stroke="black" d="M5633.28,-3008.56C5475.07,-2958.06 4996.41,-2805.26 4825.36,-2750.66"/>
<polygon fill="black" stroke="black" points="4826.34,-2747.3 4815.75,-2747.59 4824.21,-2753.97 4826.34,-2747.3"/>
</g>
<!-- u17 -->
<g id="node41" class="node">
<title>u17</title>
<ellipse fill="#ffbbff" stroke="black" cx="2887.77" cy="-2140" rx="219.86" ry="18"/>
<text text-anchor="middle" x="2887.77" y="-2136.3" font-family="Times,serif" font-size="14.00">Language.Drasil.Code.Imperative.WriteInput</text>
</g>
<!-- u17&#45;&gt;u46 -->
<g id="edge22" class="edge">
<title>u17&#45;&gt;u46</title>
<path fill="none" stroke="black" d="M2913.94,-2122.05C3007.77,-2058.98 3321.77,-1827.28 3321.77,-1551 3321.77,-1551 3321.77,-1551 3321.77,-1254 3321.77,-882.92 3873.06,-728.67 4093.89,-681.76"/>
<polygon fill="black" stroke="black" points="4094.77,-685.15 4103.83,-679.67 4093.33,-678.3 4094.77,-685.15"/>
</g>
<!-- u16&#45;&gt;u50 -->
<g id="edge21" class="edge">
<title>u16&#45;&gt;u50</title>
<path fill="none" stroke="black" d="M4467.54,-2121.98C4384.21,-2071.75 4139.35,-1924.12 4046.25,-1868"/>
<polygon fill="black" stroke="black" points="4047.84,-1864.87 4037.47,-1862.7 4044.23,-1870.86 4047.84,-1864.87"/>
</g>
<!-- u16&#45;&gt;u3 -->
<g id="edge19" class="edge">
<title>u16&#45;&gt;u3</title>
<path fill="none" stroke="black" d="M4490.13,-2121.98C4473.96,-2073.13 4427.3,-1932.17 4407.65,-1872.83"/>
<polygon fill="black" stroke="black" points="4410.88,-1871.46 4404.42,-1863.07 4404.24,-1873.66 4410.88,-1871.46"/>
</g>
<!-- u16&#45;&gt;u47 -->
<g id="edge20" class="edge">
<title>u16&#45;&gt;u47</title>
<path fill="none" stroke="black" d="M4504.26,-2121.78C4524.83,-2079.16 4577.17,-1964.81 4598.77,-1863 4620.68,-1759.7 4620.26,-1633.17 4618.79,-1578.41"/>
<polygon fill="black" stroke="black" points="4622.29,-1578.04 4618.48,-1568.15 4615.29,-1578.25 4622.29,-1578.04"/>
</g>
<!-- u15&#45;&gt;u42 -->
<g id="edge18" class="edge">
<title>u15&#45;&gt;u42</title>
<path fill="none" stroke="black" d="M4815.98,-2712.41C4974.99,-2661.88 5452.8,-2510.03 5623.94,-2455.65"/>
<polygon fill="black" stroke="black" points="5625.09,-2458.96 5633.56,-2452.59 5622.97,-2452.28 5625.09,-2458.96"/>
</g>
<!-- u15&#45;&gt;u26 -->
<g id="edge17" class="edge">
<title>u15&#45;&gt;u26</title>
<path fill="none" stroke="black" d="M4728.86,-2711.98C4625.42,-2661.55 4320.67,-2512.98 4206.56,-2457.35"/>
<polygon fill="black" stroke="black" points="4207.92,-2454.12 4197.4,-2452.88 4204.85,-2460.41 4207.92,-2454.12"/>
</g>
<!-- u45 -->
<g id="node44" class="node">
<title>u45</title>
<ellipse fill="#77ff77" stroke="black" cx="2920.77" cy="-3026" rx="228.56" ry="18"/>
<text text-anchor="middle" x="2920.77" y="-3022.3" font-family="Times,serif" font-size="14.00">Language.Drasil.Code.Imperative.Build.Import</text>
</g>
<!-- u44 -->
<g id="node45" class="node">
<title>u44</title>
<ellipse fill="#77ff77" stroke="black" cx="2920.77" cy="-2730" rx="215.56" ry="18"/>
<text text-anchor="middle" x="2920.77" y="-2726.3" font-family="Times,serif" font-size="14.00">Language.Drasil.Code.Imperative.Build.AST</text>
</g>
<!-- u45&#45;&gt;u44 -->
<g id="edge70" class="edge">
<title>u45&#45;&gt;u44</title>
<path fill="none" stroke="black" d="M2920.77,-3007.92C2920.77,-2959.01 2920.77,-2818.05 2920.77,-2758.3"/>
<polygon fill="black" stroke="black" points="2924.27,-2758.12 2920.77,-2748.12 2917.27,-2758.12 2924.27,-2758.12"/>
</g>
<!-- u43 -->
<g id="node46" class="node">
<title>u43</title>
<ellipse fill="#ffff77" stroke="black" cx="3632.77" cy="-2435" rx="245.06" ry="18"/>
<text text-anchor="middle" x="3632.77" y="-2431.3" font-family="Times,serif" font-size="14.00">Language.Drasil.Code.Imperative.Doxygen.Import</text>
</g>
<!-- u43&#45;&gt;u50 -->
<g id="edge69" class="edge">
<title>u43&#45;&gt;u50</title>
<path fill="none" stroke="black" d="M3638.31,-2416.88C3654.45,-2368.34 3704.48,-2226.55 3770.77,-2122 3835.87,-2019.31 3937.6,-1915.55 3984.51,-1869.98"/>
<polygon fill="black" stroke="black" points="3987.06,-1872.39 3991.82,-1862.92 3982.2,-1867.35 3987.06,-1872.39"/>
</g>
<!-- u26&#45;&gt;u50 -->
<g id="edge41" class="edge">
<title>u26&#45;&gt;u50</title>
<path fill="none" stroke="black" d="M4117.61,-2417.22C4033.65,-2383.24 3855.62,-2297.45 3784.77,-2158 3724.55,-2039.47 3894.05,-1916.61 3972.41,-1867.84"/>
<polygon fill="black" stroke="black" points="3974.36,-1870.75 3981.05,-1862.53 3970.69,-1864.78 3974.36,-1870.75"/>
</g>
<!-- u25 -->
<g id="node50" class="node">
<title>u25</title>
<ellipse fill="#ff7777" stroke="black" cx="2663.77" cy="-3321" rx="393.73" ry="18"/>
<text text-anchor="middle" x="2663.77" y="-3317.3" font-family="Times,serif" font-size="14.00">Language.Drasil.Code.Imperative.GOOL.LanguageRenderer.LanguagePolymorphic</text>
</g>
<!-- u25&#45;&gt;u35 -->
<g id="edge38" class="edge">
<title>u25&#45;&gt;u35</title>
<path fill="none" stroke="black" d="M2714.85,-3303.09C2868.17,-3252.33 3323.95,-3101.43 3488.59,-3046.92"/>
<polygon fill="black" stroke="black" points="3490.15,-3050.09 3498.54,-3043.63 3487.95,-3043.45 3490.15,-3050.09"/>
</g>
<!-- u25&#45;&gt;u17 -->
<g id="edge36" class="edge">
<title>u25&#45;&gt;u17</title>
<path fill="none" stroke="black" d="M2662.98,-3302.87C2660.03,-3230.45 2651.8,-2942.5 2695.77,-2712 2737.11,-2495.26 2840.71,-2247.95 2875.88,-2167.66"/>
<polygon fill="black" stroke="black" points="2879.18,-2168.85 2880,-2158.29 2872.77,-2166.03 2879.18,-2168.85"/>
</g>
<!-- u25&#45;&gt;u45 -->
<g id="edge40" class="edge">
<title>u25&#45;&gt;u45</title>
<path fill="none" stroke="black" d="M2678.7,-3302.98C2722.08,-3253.52 2848.27,-3109.66 2899.14,-3051.66"/>
<polygon fill="black" stroke="black" points="2901.84,-3053.89 2905.8,-3044.07 2896.57,-3049.28 2901.84,-3053.89"/>
</g>
<!-- u25&#45;&gt;u43 -->
<g id="edge39" class="edge">
<title>u25&#45;&gt;u43</title>
<path fill="none" stroke="black" d="M2706.73,-3303.02C2797.26,-3265.83 3011.41,-3170.31 3158.77,-3044 3378.37,-2855.77 3564.99,-2552.07 3617.82,-2461.98"/>
<polygon fill="black" stroke="black" points="3620.91,-2463.64 3622.92,-2453.24 3614.86,-2460.11 3620.91,-2463.64"/>
</g>
<!-- u25&#45;&gt;u28 -->
<g id="edge37" class="edge">
<title>u25&#45;&gt;u28</title>
<path fill="none" stroke="black" d="M2785.51,-3303.83C3169.47,-3252.83 4352.57,-3095.69 4743.17,-3043.81"/>
<polygon fill="black" stroke="black" points="4743.64,-3047.28 4753.09,-3042.5 4742.72,-3040.34 4743.64,-3047.28"/>
</g>
<!-- u24&#45;&gt;u27 -->
<g id="edge35" class="edge">
<title>u24&#45;&gt;u27</title>
<path fill="none" stroke="black" d="M3297.77,-3597.98C3297.77,-3549.23 3297.77,-3408.76 3297.77,-3349.2"/>
<polygon fill="black" stroke="black" points="3301.27,-3349.07 3297.77,-3339.07 3294.27,-3349.07 3301.27,-3349.07"/>
</g>
<!-- u24&#45;&gt;u25 -->
<g id="edge34" class="edge">
<title>u24&#45;&gt;u25</title>
<path fill="none" stroke="black" d="M3260.94,-3597.98C3151.84,-3547.56 2830.45,-3399.03 2710.03,-3343.38"/>
<polygon fill="black" stroke="black" points="2711.24,-3340.08 2700.7,-3339.07 2708.31,-3346.44 2711.24,-3340.08"/>
</g>
<!-- u23&#45;&gt;u27 -->
<g id="edge33" class="edge">
<title>u23&#45;&gt;u27</title>
<path fill="none" stroke="black" d="M3994.11,-3598.09C3866.54,-3547.51 3488.22,-3397.51 3349.5,-3342.51"/>
<polygon fill="black" stroke="black" points="3350.52,-3339.15 3339.94,-3338.72 3347.94,-3345.66 3350.52,-3339.15"/>
</g>
<!-- u23&#45;&gt;u25 -->
<g id="edge32" class="edge">
<title>u23&#45;&gt;u25</title>
<path fill="none" stroke="black" d="M3959.02,-3598.41C3720.96,-3547.61 3003.02,-3394.4 2751.76,-3340.78"/>
<polygon fill="black" stroke="black" points="2752.45,-3337.35 2741.94,-3338.68 2750.99,-3344.19 2752.45,-3337.35"/>
</g>
<!-- u22&#45;&gt;u27 -->
<g id="edge31" class="edge">
<title>u22&#45;&gt;u27</title>
<path fill="none" stroke="black" d="M512.13,-3599.71C1022.08,-3548.87 2656.6,-3385.92 3153.27,-3336.41"/>
<polygon fill="black" stroke="black" points="3153.76,-3339.87 3163.36,-3335.4 3153.06,-3332.91 3153.76,-3339.87"/>
</g>
<!-- u22&#45;&gt;u25 -->
<g id="edge30" class="edge">
<title>u22&#45;&gt;u25</title>
<path fill="none" stroke="black" d="M483.92,-3599.09C881.51,-3548.55 2113.88,-3391.9 2527.11,-3339.37"/>
<polygon fill="black" stroke="black" points="2527.84,-3342.81 2537.32,-3338.07 2526.96,-3335.86 2527.84,-3342.81"/>
</g>
<!-- u21&#45;&gt;u27 -->
<g id="edge29" class="edge">
<title>u21&#45;&gt;u27</title>
<path fill="none" stroke="black" d="M1210.99,-3599.04C1595.5,-3547.99 2792.51,-3389.08 3177.33,-3337.99"/>
<polygon fill="black" stroke="black" points="3177.92,-3341.44 3187.37,-3336.66 3177,-3334.5 3177.92,-3341.44"/>
</g>
<!-- u21&#45;&gt;u25 -->
<g id="edge28" class="edge">
<title>u21&#45;&gt;u25</title>
<path fill="none" stroke="black" d="M1179.28,-3598.51C1451.96,-3547.72 2278.1,-3393.84 2564.63,-3340.47"/>
<polygon fill="black" stroke="black" points="2565.41,-3343.88 2574.6,-3338.61 2564.13,-3337 2565.41,-3343.88"/>
</g>
<!-- u20&#45;&gt;u27 -->
<g id="edge27" class="edge">
<title>u20&#45;&gt;u27</title>
<path fill="none" stroke="black" d="M1915.73,-3598.41C2171.21,-3547.31 2944.67,-3392.62 3208.48,-3339.86"/>
<polygon fill="black" stroke="black" points="3209.29,-3343.27 3218.41,-3337.87 3207.91,-3336.4 3209.29,-3343.27"/>
</g>
<!-- u20&#45;&gt;u25 -->
<g id="edge26" class="edge">
<title>u20&#45;&gt;u25</title>
<path fill="none" stroke="black" d="M1880.73,-3598.09C2024.31,-3547.47 2450.31,-3397.26 2605.98,-3342.38"/>
<polygon fill="black" stroke="black" points="2607.57,-3345.53 2615.83,-3338.9 2605.24,-3338.93 2607.57,-3345.53"/>
</g>
<!-- u19&#45;&gt;u27 -->
<g id="edge25" class="edge">
<title>u19&#45;&gt;u27</title>
<path fill="none" stroke="black" d="M2614.62,-3598.09C2739.77,-3547.51 3110.92,-3397.51 3247.01,-3342.51"/>
<polygon fill="black" stroke="black" points="3248.44,-3345.71 3256.4,-3338.72 3245.81,-3339.22 3248.44,-3345.71"/>
</g>
<!-- u19&#45;&gt;u25 -->
<g id="edge24" class="edge">
<title>u19&#45;&gt;u25</title>
<path fill="none" stroke="black" d="M2578.05,-3597.98C2593.23,-3549.13 2637,-3408.17 2655.43,-3348.83"/>
<polygon fill="black" stroke="black" points="2658.84,-3349.65 2658.47,-3339.07 2652.16,-3347.58 2658.84,-3349.65"/>
</g>
<!-- u18 -->
<g id="node57" class="node">
<title>u18</title>
<ellipse fill="#77ffff" stroke="black" cx="5165.77" cy="-3321" rx="267.55" ry="18"/>
<text text-anchor="middle" x="5165.77" y="-3317.3" font-family="Times,serif" font-size="14.00">Language.Drasil.Code.Imperative.Parsers.ConfigParser</text>
</g>
<!-- u18&#45;&gt;u28 -->
<g id="edge23" class="edge">
<title>u18&#45;&gt;u28</title>
<path fill="none" stroke="black" d="M5148.57,-3302.98C5098.51,-3253.42 4952.68,-3109.07 4894.32,-3051.31"/>
<polygon fill="black" stroke="black" points="4896.58,-3048.61 4887.01,-3044.07 4891.65,-3053.59 4896.58,-3048.61"/>
</g>
<!-- u8&#45;&gt;u5 -->
<g id="edge10" class="edge">
<title>u8&#45;&gt;u5</title>
<path fill="none" stroke="black" d="M3538.62,-1236.74C3620.34,-1126.94 4067.34,-526.42 4164.94,-395.3"/>
<polygon fill="black" stroke="black" points="4167.94,-397.12 4171.11,-387.01 4162.33,-392.94 4167.94,-397.12"/>
</g>
<!-- u7&#45;&gt;u13 -->
<g id="edge9" class="edge">
<title>u7&#45;&gt;u13</title>
<path fill="none" stroke="black" d="M4044.64,-1532.19C4148.95,-1481.93 4458.42,-1332.79 4573.78,-1277.2"/>
<polygon fill="black" stroke="black" points="4575.55,-1280.23 4583.04,-1272.74 4572.51,-1273.93 4575.55,-1280.23"/>
</g>
<!-- u7&#45;&gt;u11 -->
<g id="edge8" class="edge">
<title>u7&#45;&gt;u11</title>
<path fill="none" stroke="black" d="M4020.92,-1531.98C4053.13,-1482.82 4146.45,-1340.42 4184.9,-1281.74"/>
<polygon fill="black" stroke="black" points="4188.03,-1283.35 4190.58,-1273.07 4182.18,-1279.51 4188.03,-1283.35"/>
</g>
<!-- u7&#45;&gt;u10 -->
<g id="edge7" class="edge">
<title>u7&#45;&gt;u10</title>
<path fill="none" stroke="black" d="M3999.72,-1531.98C3970.7,-1482.82 3886.61,-1340.42 3851.97,-1281.74"/>
<polygon fill="black" stroke="black" points="3854.94,-1279.9 3846.84,-1273.07 3848.92,-1283.46 3854.94,-1279.9"/>
</g>
<!-- u7&#45;&gt;u8 -->
<g id="edge6" class="edge">
<title>u7&#45;&gt;u8</title>
<path fill="none" stroke="black" d="M3982.01,-1532.19C3899.39,-1482.18 3655.08,-1334.28 3562.18,-1278.04"/>
<polygon fill="black" stroke="black" points="3563.78,-1274.92 3553.42,-1272.74 3560.16,-1280.91 3563.78,-1274.92"/>
</g>
<!-- u57 -->
<g id="node60" class="node">
<title>u57</title>
<ellipse fill="#33ff33" stroke="black" cx="2338.77" cy="-4502" rx="108.58" ry="18"/>
<text text-anchor="middle" x="2338.77" y="-4498.3" font-family="Times,serif" font-size="14.00">drasil&#45;code.test.Main</text>
</g>
<!-- u57&#45;&gt;u59 -->
<g id="edge93" class="edge">
<title>u57&#45;&gt;u59</title>
<path fill="none" stroke="black" d="M2342.78,-4483.92C2354.28,-4434.9 2387.47,-4293.47 2401.45,-4233.93"/>
<polygon fill="black" stroke="black" points="2404.87,-4234.66 2403.75,-4224.12 2398.06,-4233.06 2404.87,-4234.66"/>
</g>
<!-- u57&#45;&gt;u58 -->
<g id="edge92" class="edge">
<title>u57&#45;&gt;u58</title>
<path fill="none" stroke="black" d="M2351.2,-4483.92C2387.26,-4434.38 2492.03,-4290.44 2534.53,-4232.05"/>
<polygon fill="black" stroke="black" points="2537.51,-4233.9 2540.57,-4223.76 2531.86,-4229.78 2537.51,-4233.9"/>
</g>
<!-- u57&#45;&gt;u56 -->
<g id="edge91" class="edge">
<title>u57&#45;&gt;u56</title>
<path fill="none" stroke="black" d="M2317.66,-4484.14C2254.99,-4434.07 2069.98,-4286.26 1998.96,-4229.53"/>
<polygon fill="black" stroke="black" points="2000.88,-4226.58 1990.88,-4223.07 1996.51,-4232.05 2000.88,-4226.58"/>
</g>
<!-- u57&#45;&gt;u54 -->
<g id="edge90" class="edge">
<title>u57&#45;&gt;u54</title>
<path fill="none" stroke="black" d="M2326.34,-4483.92C2290.36,-4434.5 2186,-4291.12 2143.3,-4232.46"/>
<polygon fill="black" stroke="black" points="2145.95,-4230.15 2137.23,-4224.12 2140.29,-4234.27 2145.95,-4230.15"/>
</g>
<!-- u57&#45;&gt;u52 -->
<g id="edge89" class="edge">
<title>u57&#45;&gt;u52</title>
<path fill="none" stroke="black" d="M2334.88,-4483.92C2323.71,-4434.9 2291.47,-4293.47 2277.9,-4233.93"/>
<polygon fill="black" stroke="black" points="2281.31,-4233.1 2275.67,-4224.12 2274.48,-4234.65 2281.31,-4233.1"/>
</g>
<!-- u57&#45;&gt;u48 -->
<g id="edge88" class="edge">
<title>u57&#45;&gt;u48</title>
<path fill="none" stroke="black" d="M2361.82,-4484.35C2430.71,-4434.58 2635.21,-4286.87 2714.17,-4229.83"/>
<polygon fill="black" stroke="black" points="2716.66,-4232.34 2722.72,-4223.65 2712.57,-4226.67 2716.66,-4232.34"/>
</g>
</g>
</svg>
