<?xml version="1.0" encoding="UTF-8" standalone="no"?>
<!DOCTYPE svg PUBLIC "-//W3C//DTD SVG 1.1//EN"
 "http://www.w3.org/Graphics/SVG/1.1/DTD/svg11.dtd">
<!-- Generated by graphviz version 2.43.0 (0)
 -->
<!-- Title: G Pages: 1 -->
<svg width="432pt" height="283pt"
 viewBox="0.00 0.00 432.00 283.49" xmlns="http://www.w3.org/2000/svg" xmlns:xlink="http://www.w3.org/1999/xlink">
<g id="graph0" class="graph" transform="scale(9.6 9.6) rotate(0) translate(4 2718.67)">
<title>G</title>
<polygon fill="white" stroke="transparent" points="-4,4 -4,-2718.67 4145.04,-2718.67 4145.04,4 -4,4"/>
<!-- u28 -->
<g id="node1" class="node">
<title>u28</title>
<ellipse fill="#bbffbb" stroke="black" cx="2482.41" cy="-1996" rx="133.78" ry="18"/>
<text text-anchor="middle" x="2482.41" y="-1992.3" font-family="Times,serif" font-size="14.00">Drasil.DocumentLanguage</text>
</g>
<!-- u27 -->
<g id="node2" class="node">
<title>u27</title>
<ellipse fill="#bbffbb" stroke="black" cx="255.41" cy="-1677" rx="116.18" ry="18"/>
<text text-anchor="middle" x="255.41" y="-1673.3" font-family="Times,serif" font-size="14.00">Drasil.ExtractDocDesc</text>
</g>
<!-- u28&#45;&gt;u27 -->
<g id="edge56" class="edge">
<title>u28&#45;&gt;u27</title>
<path fill="none" stroke="black" d="M2394.08,-1982.43C2038.15,-1931.76 710.9,-1742.84 347.76,-1691.15"/>
<polygon fill="black" stroke="black" points="348.21,-1687.67 337.81,-1689.73 347.22,-1694.6 348.21,-1687.67"/>
</g>
<!-- u4 -->
<g id="node5" class="node">
<title>u4</title>
<ellipse fill="#bbffbb" stroke="black" cx="482.41" cy="-1677" rx="92.08" ry="18"/>
<text text-anchor="middle" x="482.41" y="-1673.3" font-family="Times,serif" font-size="14.00">Drasil.TraceTable</text>
</g>
<!-- u28&#45;&gt;u4 -->
<g id="edge50" class="edge">
<title>u28&#45;&gt;u4</title>
<path fill="none" stroke="black" d="M2398.18,-1981.94C2131.98,-1940.63 1284.98,-1808.75 584.41,-1695 576.47,-1693.71 568.19,-1692.35 559.93,-1690.99"/>
<polygon fill="black" stroke="black" points="560.32,-1687.51 549.88,-1689.33 559.18,-1694.41 560.32,-1687.51"/>
</g>
<!-- u3 -->
<g id="node6" class="node">
<title>u3</title>
<ellipse fill="#bbffbb" stroke="black" cx="672.41" cy="-1677" rx="79.09" ry="18"/>
<text text-anchor="middle" x="672.41" y="-1673.3" font-family="Times,serif" font-size="14.00">Drasil.DocDecl</text>
</g>
<!-- u28&#45;&gt;u3 -->
<g id="edge49" class="edge">
<title>u28&#45;&gt;u3</title>
<path fill="none" stroke="black" d="M2404.35,-1981.33C2104.51,-1928.82 1029.28,-1740.5 742.9,-1690.35"/>
<polygon fill="black" stroke="black" points="743.51,-1686.9 733.05,-1688.62 742.3,-1693.79 743.51,-1686.9"/>
</g>
<!-- u2 -->
<g id="node7" class="node">
<title>u2</title>
<ellipse fill="#ffffbb" stroke="black" cx="1594.41" cy="-1677" rx="136.48" ry="18"/>
<text text-anchor="middle" x="1594.41" y="-1673.3" font-family="Times,serif" font-size="14.00">Drasil.DocLang.References</text>
</g>
<!-- u28&#45;&gt;u2 -->
<g id="edge48" class="edge">
<title>u28&#45;&gt;u2</title>
<path fill="none" stroke="black" d="M2437.46,-1978.95C2288.53,-1925.79 1811.52,-1755.5 1649.14,-1697.54"/>
<polygon fill="black" stroke="black" points="1649.95,-1694.11 1639.36,-1694.05 1647.6,-1700.7 1649.95,-1694.11"/>
</g>
<!-- u7 -->
<g id="node14" class="node">
<title>u7</title>
<ellipse fill="#bbbbff" stroke="black" cx="2272.41" cy="-1677" rx="220.96" ry="18"/>
<text text-anchor="middle" x="2272.41" y="-1673.3" font-family="Times,serif" font-size="14.00">Drasil.DocumentLanguage.TraceabilityGraph</text>
</g>
<!-- u28&#45;&gt;u7 -->
<g id="edge51" class="edge">
<title>u28&#45;&gt;u7</title>
<path fill="none" stroke="black" d="M2471.12,-1977.96C2436.37,-1925.5 2330.85,-1766.21 2289.39,-1703.63"/>
<polygon fill="black" stroke="black" points="2292.2,-1701.53 2283.76,-1695.13 2286.36,-1705.4 2292.2,-1701.53"/>
</g>
<!-- u25 -->
<g id="node19" class="node">
<title>u25</title>
<ellipse fill="#bbffff" stroke="black" cx="2856.41" cy="-1357" rx="161.37" ry="18"/>
<text text-anchor="middle" x="2856.41" y="-1353.3" font-family="Times,serif" font-size="14.00">Drasil.Sections.TableOfContents</text>
</g>
<!-- u28&#45;&gt;u25 -->
<g id="edge55" class="edge">
<title>u28&#45;&gt;u25</title>
<path fill="none" stroke="black" d="M2492.41,-1977.96C2543.89,-1890.29 2778.92,-1489.99 2841.22,-1383.88"/>
<polygon fill="black" stroke="black" points="2844.33,-1385.49 2846.38,-1375.09 2838.29,-1381.94 2844.33,-1385.49"/>
</g>
<!-- u24 -->
<g id="node20" class="node">
<title>u24</title>
<ellipse fill="#bbffff" stroke="black" cx="3198.41" cy="-1357" rx="163.27" ry="18"/>
<text text-anchor="middle" x="3198.41" y="-1353.3" font-family="Times,serif" font-size="14.00">Drasil.Sections.GeneralSystDesc</text>
</g>
<!-- u28&#45;&gt;u24 -->
<g id="edge54" class="edge">
<title>u28&#45;&gt;u24</title>
<path fill="none" stroke="black" d="M2501.56,-1977.96C2600.7,-1889.76 3055.5,-1485.14 3171.45,-1381.99"/>
<polygon fill="black" stroke="black" points="3174.05,-1384.35 3179.2,-1375.09 3169.4,-1379.12 3174.05,-1384.35"/>
</g>
<!-- u22 -->
<g id="node22" class="node">
<title>u22</title>
<ellipse fill="#bbffff" stroke="black" cx="3559.41" cy="-1357" rx="141.88" ry="18"/>
<text text-anchor="middle" x="3559.41" y="-1353.3" font-family="Times,serif" font-size="14.00">Drasil.Sections.Introduction</text>
</g>
<!-- u28&#45;&gt;u22 -->
<g id="edge53" class="edge">
<title>u28&#45;&gt;u22</title>
<path fill="none" stroke="black" d="M2561.74,-1981.43C2716.82,-1951.78 3065.65,-1869.44 3302.41,-1695 3422.46,-1606.55 3513.5,-1446.95 3546.22,-1384.28"/>
<polygon fill="black" stroke="black" points="3549.49,-1385.57 3550.97,-1375.08 3543.27,-1382.36 3549.49,-1385.57"/>
</g>
<!-- u16 -->
<g id="node28" class="node">
<title>u16</title>
<ellipse fill="#bbffff" stroke="black" cx="3148.41" cy="-1677" rx="144.87" ry="18"/>
<text text-anchor="middle" x="3148.41" y="-1673.3" font-family="Times,serif" font-size="14.00">Drasil.Sections.Stakeholders</text>
</g>
<!-- u28&#45;&gt;u16 -->
<g id="edge52" class="edge">
<title>u28&#45;&gt;u16</title>
<path fill="none" stroke="black" d="M2517.28,-1978.4C2629.31,-1925.08 2980.02,-1758.15 3104.25,-1699.02"/>
<polygon fill="black" stroke="black" points="3105.96,-1702.08 3113.49,-1694.62 3102.95,-1695.76 3105.96,-1702.08"/>
</g>
<!-- u12 -->
<g id="node12" class="node">
<title>u12</title>
<ellipse fill="#bbbbff" stroke="black" cx="1417.41" cy="-1038" rx="159.47" ry="18"/>
<text text-anchor="middle" x="1417.41" y="-1034.3" font-family="Times,serif" font-size="14.00">Drasil.DocumentLanguage.Core</text>
</g>
<!-- u27&#45;&gt;u12 -->
<g id="edge46" class="edge">
<title>u27&#45;&gt;u12</title>
<path fill="none" stroke="black" d="M227.98,-1659.41C148.43,-1609.29 -70.87,-1455.73 23.41,-1339 179.21,-1146.1 944.77,-1071.4 1270.39,-1048.03"/>
<polygon fill="black" stroke="black" points="1271.12,-1051.48 1280.85,-1047.28 1270.62,-1044.5 1271.12,-1051.48"/>
</g>
<!-- u18 -->
<g id="node26" class="node">
<title>u18</title>
<ellipse fill="#bbffff" stroke="black" cx="276.41" cy="-1357" rx="207.96" ry="18"/>
<text text-anchor="middle" x="276.41" y="-1353.3" font-family="Times,serif" font-size="14.00">Drasil.Sections.SpecificSystemDescription</text>
</g>
<!-- u27&#45;&gt;u18 -->
<g id="edge47" class="edge">
<title>u27&#45;&gt;u18</title>
<path fill="none" stroke="black" d="M256.54,-1658.9C259.99,-1606.71 270.39,-1449.1 274.61,-1385.28"/>
<polygon fill="black" stroke="black" points="278.11,-1385.39 275.28,-1375.18 271.12,-1384.93 278.11,-1385.39"/>
</g>
<!-- u6 -->
<g id="node3" class="node">
<title>u6</title>
<ellipse fill="#bbffbb" stroke="black" cx="2752.41" cy="-2315" rx="81.79" ry="18"/>
<text text-anchor="middle" x="2752.41" y="-2311.3" font-family="Times,serif" font-size="14.00">Drasil.DocLang</text>
</g>
<!-- u6&#45;&gt;u28 -->
<g id="edge13" class="edge">
<title>u6&#45;&gt;u28</title>
<path fill="none" stroke="black" d="M2737.89,-2296.96C2693.03,-2244.28 2556.43,-2083.91 2503.59,-2021.87"/>
<polygon fill="black" stroke="black" points="2506.15,-2019.47 2497,-2014.13 2500.82,-2024.01 2506.15,-2019.47"/>
</g>
<!-- u11 -->
<g id="node15" class="node">
<title>u11</title>
<ellipse fill="#ffbbbb" stroke="black" cx="3540.41" cy="-1996" rx="276.75" ry="18"/>
<text text-anchor="middle" x="3540.41" y="-1992.3" font-family="Times,serif" font-size="14.00">Drasil.DocumentLanguage.Notebook.DocumentLanguage</text>
</g>
<!-- u6&#45;&gt;u11 -->
<g id="edge12" class="edge">
<title>u6&#45;&gt;u11</title>
<path fill="none" stroke="black" d="M2789.89,-2298.92C2918.43,-2247.21 3341.64,-2076.96 3489.15,-2017.62"/>
<polygon fill="black" stroke="black" points="3490.49,-2020.85 3498.46,-2013.87 3487.88,-2014.36 3490.49,-2020.85"/>
</g>
<!-- u5 -->
<g id="node4" class="node">
<title>u5</title>
<ellipse fill="#bbffbb" stroke="black" cx="2752.41" cy="-2635" rx="108.58" ry="18"/>
<text text-anchor="middle" x="2752.41" y="-2631.3" font-family="Times,serif" font-size="14.00">Drasil.SRSDocument</text>
</g>
<!-- u5&#45;&gt;u6 -->
<g id="edge11" class="edge">
<title>u5&#45;&gt;u6</title>
<path fill="none" stroke="black" d="M2752.41,-2616.9C2752.41,-2564.71 2752.41,-2407.1 2752.41,-2343.28"/>
<polygon fill="black" stroke="black" points="2755.91,-2343.18 2752.41,-2333.18 2748.91,-2343.18 2755.91,-2343.18"/>
</g>
<!-- u4&#45;&gt;u12 -->
<g id="edge10" class="edge">
<title>u4&#45;&gt;u12</title>
<path fill="none" stroke="black" d="M431.04,-1661.84C290.98,-1620.81 -78.96,-1494.77 46.41,-1339 199.38,-1148.94 952.01,-1072.65 1272.49,-1048.44"/>
<polygon fill="black" stroke="black" points="1273.07,-1051.91 1282.78,-1047.67 1272.55,-1044.93 1273.07,-1051.91"/>
</g>
<!-- u3&#45;&gt;u12 -->
<g id="edge8" class="edge">
<title>u3&#45;&gt;u12</title>
<path fill="none" stroke="black" d="M628.05,-1661.99C474.15,-1612.25 -23.06,-1441.67 59.41,-1339 210.81,-1150.51 956.37,-1073.33 1273.85,-1048.66"/>
<polygon fill="black" stroke="black" points="1274.34,-1052.14 1284.04,-1047.88 1273.8,-1045.16 1274.34,-1052.14"/>
</g>
<!-- u19 -->
<g id="node25" class="node">
<title>u19</title>
<ellipse fill="#bbffff" stroke="black" cx="651.41" cy="-1357" rx="149.47" ry="18"/>
<text text-anchor="middle" x="651.41" y="-1353.3" font-family="Times,serif" font-size="14.00">Drasil.Sections.Requirements</text>
</g>
<!-- u3&#45;&gt;u19 -->
<g id="edge9" class="edge">
<title>u3&#45;&gt;u19</title>
<path fill="none" stroke="black" d="M671.28,-1658.9C667.83,-1606.71 657.43,-1449.1 653.21,-1385.28"/>
<polygon fill="black" stroke="black" points="656.7,-1384.93 652.54,-1375.18 649.71,-1385.39 656.7,-1384.93"/>
</g>
<!-- u26 -->
<g id="node18" class="node">
<title>u26</title>
<ellipse fill="#bbffff" stroke="black" cx="1020.41" cy="-1357" rx="201.46" ry="18"/>
<text text-anchor="middle" x="1020.41" y="-1353.3" font-family="Times,serif" font-size="14.00">Drasil.Sections.TableOfAbbAndAcronyms</text>
</g>
<!-- u2&#45;&gt;u26 -->
<g id="edge7" class="edge">
<title>u2&#45;&gt;u26</title>
<path fill="none" stroke="black" d="M1564.36,-1659.35C1468.2,-1606.08 1168.06,-1439.8 1059.82,-1379.83"/>
<polygon fill="black" stroke="black" points="1061.3,-1376.65 1050.86,-1374.87 1057.91,-1382.78 1061.3,-1376.65"/>
</g>
<!-- u23 -->
<g id="node21" class="node">
<title>u23</title>
<ellipse fill="#bbffff" stroke="black" cx="1417.41" cy="-1357" rx="177.37" ry="18"/>
<text text-anchor="middle" x="1417.41" y="-1353.3" font-family="Times,serif" font-size="14.00">Drasil.Sections.TraceabilityMandGs</text>
</g>
<!-- u2&#45;&gt;u23 -->
<g id="edge6" class="edge">
<title>u2&#45;&gt;u23</title>
<path fill="none" stroke="black" d="M1584.89,-1658.9C1555.66,-1606.38 1467.03,-1447.15 1431.94,-1384.1"/>
<polygon fill="black" stroke="black" points="1434.9,-1382.22 1426.97,-1375.18 1428.78,-1385.62 1434.9,-1382.22"/>
</g>
<!-- u21 -->
<g id="node23" class="node">
<title>u21</title>
<ellipse fill="#bbffff" stroke="black" cx="1772.41" cy="-1357" rx="159.47" ry="18"/>
<text text-anchor="middle" x="1772.41" y="-1353.3" font-family="Times,serif" font-size="14.00">Drasil.Sections.TableOfSymbols</text>
</g>
<!-- u2&#45;&gt;u21 -->
<g id="edge5" class="edge">
<title>u2&#45;&gt;u21</title>
<path fill="none" stroke="black" d="M1603.98,-1658.9C1633.38,-1606.38 1722.51,-1447.15 1757.8,-1384.1"/>
<polygon fill="black" stroke="black" points="1760.96,-1385.62 1762.79,-1375.18 1754.85,-1382.2 1760.96,-1385.62"/>
</g>
<!-- u20 -->
<g id="node24" class="node">
<title>u20</title>
<ellipse fill="#bbffff" stroke="black" cx="2467.41" cy="-1357" rx="172.47" ry="18"/>
<text text-anchor="middle" x="2467.41" y="-1353.3" font-family="Times,serif" font-size="14.00">Drasil.Sections.AuxiliaryConstants</text>
</g>
<!-- u2&#45;&gt;u20 -->
<g id="edge4" class="edge">
<title>u2&#45;&gt;u20</title>
<path fill="none" stroke="black" d="M1638.6,-1659.9C1784.76,-1606.66 2252.34,-1436.34 2412.77,-1377.9"/>
<polygon fill="black" stroke="black" points="2414.24,-1381.09 2422.44,-1374.38 2411.84,-1374.52 2414.24,-1381.09"/>
</g>
<!-- u2&#45;&gt;u19 -->
<g id="edge3" class="edge">
<title>u2&#45;&gt;u19</title>
<path fill="none" stroke="black" d="M1547,-1660.01C1389,-1606.73 880.69,-1435.32 708.82,-1377.36"/>
<polygon fill="black" stroke="black" points="709.79,-1373.99 699.19,-1374.11 707.55,-1380.63 709.79,-1373.99"/>
</g>
<!-- u2&#45;&gt;u18 -->
<g id="edge2" class="edge">
<title>u2&#45;&gt;u18</title>
<path fill="none" stroke="black" d="M1531.73,-1660.88C1313.98,-1608.34 590.73,-1433.84 352.93,-1376.46"/>
<polygon fill="black" stroke="black" points="353.52,-1373.01 342.98,-1374.06 351.88,-1379.81 353.52,-1373.01"/>
</g>
<!-- u17 -->
<g id="node27" class="node">
<title>u17</title>
<ellipse fill="#bbffff" stroke="black" cx="2094.41" cy="-1357" rx="144.87" ry="18"/>
<text text-anchor="middle" x="2094.41" y="-1353.3" font-family="Times,serif" font-size="14.00">Drasil.Sections.TableOfUnits</text>
</g>
<!-- u2&#45;&gt;u17 -->
<g id="edge1" class="edge">
<title>u2&#45;&gt;u17</title>
<path fill="none" stroke="black" d="M1620.94,-1659.13C1704.84,-1605.76 1964.49,-1440.63 2059.3,-1380.33"/>
<polygon fill="black" stroke="black" points="2061.39,-1383.15 2067.94,-1374.83 2057.63,-1377.25 2061.39,-1383.15"/>
</g>
<!-- u1 -->
<g id="node8" class="node">
<title>u1</title>
<ellipse fill="#ffffbb" stroke="black" cx="3540.41" cy="-1677" rx="129.18" ry="18"/>
<text text-anchor="middle" x="3540.41" y="-1673.3" font-family="Times,serif" font-size="14.00">Drasil.DocLang.Notebook</text>
</g>
<!-- u0 -->
<g id="node9" class="node">
<title>u0</title>
<ellipse fill="#ffffbb" stroke="black" cx="2761.41" cy="-1038" rx="104.78" ry="18"/>
<text text-anchor="middle" x="2761.41" y="-1034.3" font-family="Times,serif" font-size="14.00">Drasil.DocLang.SRS</text>
</g>
<!-- u14 -->
<g id="node10" class="node">
<title>u14</title>
<ellipse fill="#bbbbff" stroke="black" cx="1669.41" cy="-399" rx="187.37" ry="18"/>
<text text-anchor="middle" x="1669.41" y="-395.3" font-family="Times,serif" font-size="14.00">Drasil.DocumentLanguage.Definitions</text>
</g>
<!-- u8 -->
<g id="node13" class="node">
<title>u8</title>
<ellipse fill="#bbbbff" stroke="black" cx="1884.41" cy="-80" rx="162.47" ry="18"/>
<text text-anchor="middle" x="1884.41" y="-76.3" font-family="Times,serif" font-size="14.00">Drasil.DocumentLanguage.Units</text>
</g>
<!-- u14&#45;&gt;u8 -->
<g id="edge22" class="edge">
<title>u14&#45;&gt;u8</title>
<path fill="none" stroke="black" d="M1680.97,-380.96C1716.55,-328.5 1824.58,-169.21 1867.02,-106.63"/>
<polygon fill="black" stroke="black" points="1870.08,-108.37 1872.79,-98.13 1864.28,-104.44 1870.08,-108.37"/>
</g>
<!-- u13 -->
<g id="node11" class="node">
<title>u13</title>
<ellipse fill="#bbbbff" stroke="black" cx="1417.41" cy="-719" rx="223.66" ry="18"/>
<text text-anchor="middle" x="1417.41" y="-715.3" font-family="Times,serif" font-size="14.00">Drasil.DocumentLanguage.TraceabilityMatrix</text>
</g>
<!-- u13&#45;&gt;u14 -->
<g id="edge21" class="edge">
<title>u13&#45;&gt;u14</title>
<path fill="none" stroke="black" d="M1430.96,-700.9C1472.75,-648.17 1599.8,-487.84 1649.34,-425.33"/>
<polygon fill="black" stroke="black" points="1652.33,-427.19 1655.79,-417.18 1646.84,-422.85 1652.33,-427.19"/>
</g>
<!-- u12&#45;&gt;u13 -->
<g id="edge20" class="edge">
<title>u12&#45;&gt;u13</title>
<path fill="none" stroke="black" d="M1417.41,-1019.96C1417.41,-967.93 1417.41,-810.82 1417.41,-747.19"/>
<polygon fill="black" stroke="black" points="1420.91,-747.13 1417.41,-737.13 1413.91,-747.13 1420.91,-747.13"/>
</g>
<!-- u7&#45;&gt;u0 -->
<g id="edge14" class="edge">
<title>u7&#45;&gt;u0</title>
<path fill="none" stroke="black" d="M2304.22,-1659.07C2376.12,-1619.22 2552.36,-1512.41 2648.41,-1375 2718.76,-1274.36 2748.09,-1126.5 2757.61,-1066.15"/>
<polygon fill="black" stroke="black" points="2761.07,-1066.67 2759.11,-1056.26 2754.15,-1065.62 2761.07,-1066.67"/>
</g>
<!-- u7&#45;&gt;u23 -->
<g id="edge16" class="edge">
<title>u7&#45;&gt;u23</title>
<path fill="none" stroke="black" d="M2227.65,-1659.35C2082.93,-1605.53 1628.02,-1436.33 1471.18,-1378"/>
<polygon fill="black" stroke="black" points="1472.32,-1374.69 1461.73,-1374.48 1469.88,-1381.25 1472.32,-1374.69"/>
</g>
<!-- u15 -->
<g id="node29" class="node">
<title>u15</title>
<ellipse fill="#bbffff" stroke="black" cx="2094.41" cy="-1038" rx="170.07" ry="18"/>
<text text-anchor="middle" x="2094.41" y="-1034.3" font-family="Times,serif" font-size="14.00">Drasil.Sections.ReferenceMaterial</text>
</g>
<!-- u7&#45;&gt;u15 -->
<g id="edge15" class="edge">
<title>u7&#45;&gt;u15</title>
<path fill="none" stroke="black" d="M2273.58,-1658.76C2276.48,-1608.4 2281.58,-1457.62 2248.41,-1339 2217.98,-1230.19 2145.91,-1114.94 2112.28,-1064.8"/>
<polygon fill="black" stroke="black" points="2114.97,-1062.53 2106.46,-1056.21 2109.17,-1066.46 2114.97,-1062.53"/>
</g>
<!-- u11&#45;&gt;u1 -->
<g id="edge18" class="edge">
<title>u11&#45;&gt;u1</title>
<path fill="none" stroke="black" d="M3540.41,-1977.96C3540.41,-1925.93 3540.41,-1768.82 3540.41,-1705.19"/>
<polygon fill="black" stroke="black" points="3543.91,-1705.13 3540.41,-1695.13 3536.91,-1705.13 3543.91,-1705.13"/>
</g>
<!-- u10 -->
<g id="node16" class="node">
<title>u10</title>
<ellipse fill="#ffbbbb" stroke="black" cx="3919.41" cy="-1677" rx="221.76" ry="18"/>
<text text-anchor="middle" x="3919.41" y="-1673.3" font-family="Times,serif" font-size="14.00">Drasil.DocumentLanguage.Notebook.LsnDecl</text>
</g>
<!-- u11&#45;&gt;u10 -->
<g id="edge19" class="edge">
<title>u11&#45;&gt;u10</title>
<path fill="none" stroke="black" d="M3560.79,-1977.96C3624.15,-1924.96 3817.86,-1762.94 3891.02,-1701.74"/>
<polygon fill="black" stroke="black" points="3893.51,-1704.23 3898.93,-1695.13 3889.02,-1698.86 3893.51,-1704.23"/>
</g>
<!-- u9 -->
<g id="node17" class="node">
<title>u9</title>
<ellipse fill="#ffbbbb" stroke="black" cx="3925.41" cy="-1357" rx="206.06" ry="18"/>
<text text-anchor="middle" x="3925.41" y="-1353.3" font-family="Times,serif" font-size="14.00">Drasil.DocumentLanguage.Notebook.Core</text>
</g>
<!-- u10&#45;&gt;u9 -->
<g id="edge17" class="edge">
<title>u10&#45;&gt;u9</title>
<path fill="none" stroke="black" d="M3919.73,-1658.9C3920.72,-1606.71 3923.69,-1449.1 3924.9,-1385.28"/>
<polygon fill="black" stroke="black" points="3928.4,-1385.25 3925.09,-1375.18 3921.4,-1385.11 3928.4,-1385.25"/>
</g>
<!-- u26&#45;&gt;u15 -->
<g id="edge45" class="edge">
<title>u26&#45;&gt;u15</title>
<path fill="none" stroke="black" d="M1075.89,-1339.62C1257.86,-1285.91 1835.99,-1115.27 2030.13,-1057.97"/>
<polygon fill="black" stroke="black" points="2031.3,-1061.28 2039.9,-1055.09 2029.32,-1054.56 2031.3,-1061.28"/>
</g>
<!-- u25&#45;&gt;u0 -->
<g id="edge43" class="edge">
<title>u25&#45;&gt;u0</title>
<path fill="none" stroke="black" d="M2851.3,-1338.96C2835.68,-1286.82 2788.43,-1129.17 2769.44,-1065.8"/>
<polygon fill="black" stroke="black" points="2772.77,-1064.7 2766.54,-1056.13 2766.06,-1066.71 2772.77,-1064.7"/>
</g>
<!-- u25&#45;&gt;u12 -->
<g id="edge44" class="edge">
<title>u25&#45;&gt;u12</title>
<path fill="none" stroke="black" d="M2787,-1340.71C2546.7,-1287.77 1750.98,-1112.48 1496.45,-1056.41"/>
<polygon fill="black" stroke="black" points="1497.06,-1052.96 1486.54,-1054.23 1495.55,-1059.8 1497.06,-1052.96"/>
</g>
<!-- u24&#45;&gt;u0 -->
<g id="edge41" class="edge">
<title>u24&#45;&gt;u0</title>
<path fill="none" stroke="black" d="M3175.22,-1339.18C3102.03,-1286.08 2875.8,-1121.98 2792.56,-1061.6"/>
<polygon fill="black" stroke="black" points="2794.43,-1058.63 2784.28,-1055.59 2790.32,-1064.29 2794.43,-1058.63"/>
</g>
<!-- u24&#45;&gt;u15 -->
<g id="edge42" class="edge">
<title>u24&#45;&gt;u15</title>
<path fill="none" stroke="black" d="M3142.91,-1340.06C2957.47,-1286.82 2359.87,-1115.22 2160.13,-1057.87"/>
<polygon fill="black" stroke="black" points="2160.93,-1054.46 2150.35,-1055.06 2159,-1061.19 2160.93,-1054.46"/>
</g>
<!-- u23&#45;&gt;u12 -->
<g id="edge40" class="edge">
<title>u23&#45;&gt;u12</title>
<path fill="none" stroke="black" d="M1417.41,-1338.96C1417.41,-1286.93 1417.41,-1129.82 1417.41,-1066.19"/>
<polygon fill="black" stroke="black" points="1420.91,-1066.13 1417.41,-1056.13 1413.91,-1066.13 1420.91,-1066.13"/>
</g>
<!-- u22&#45;&gt;u0 -->
<g id="edge37" class="edge">
<title>u22&#45;&gt;u0</title>
<path fill="none" stroke="black" d="M3518.46,-1339.73C3384.01,-1286.32 2956.33,-1116.43 2810.6,-1058.54"/>
<polygon fill="black" stroke="black" points="2811.59,-1055.17 2801.01,-1054.73 2809.01,-1061.67 2811.59,-1055.17"/>
</g>
<!-- u22&#45;&gt;u14 -->
<g id="edge38" class="edge">
<title>u22&#45;&gt;u14</title>
<path fill="none" stroke="black" d="M3526.61,-1339.41C3299.88,-1224.72 1967.12,-550.59 1711.72,-421.4"/>
<polygon fill="black" stroke="black" points="1713.25,-418.25 1702.75,-416.86 1710.09,-424.5 1713.25,-418.25"/>
</g>
<!-- u22&#45;&gt;u15 -->
<g id="edge39" class="edge">
<title>u22&#45;&gt;u15</title>
<path fill="none" stroke="black" d="M3490.72,-1341.14C3248.72,-1288.77 2436.36,-1112.99 2175.67,-1056.58"/>
<polygon fill="black" stroke="black" points="2176.03,-1053.08 2165.52,-1054.39 2174.55,-1059.92 2176.03,-1053.08"/>
</g>
<!-- u21&#45;&gt;u12 -->
<g id="edge35" class="edge">
<title>u21&#45;&gt;u12</title>
<path fill="none" stroke="black" d="M1753.32,-1338.96C1694.09,-1286.07 1513.27,-1124.6 1444.42,-1063.12"/>
<polygon fill="black" stroke="black" points="1446.38,-1060.18 1436.59,-1056.13 1441.72,-1065.4 1446.38,-1060.18"/>
</g>
<!-- u21&#45;&gt;u15 -->
<g id="edge36" class="edge">
<title>u21&#45;&gt;u15</title>
<path fill="none" stroke="black" d="M1789.72,-1338.96C1843.34,-1286.17 2006.8,-1125.25 2069.53,-1063.49"/>
<polygon fill="black" stroke="black" points="2072.34,-1065.64 2077.01,-1056.13 2067.43,-1060.65 2072.34,-1065.64"/>
</g>
<!-- u20&#45;&gt;u0 -->
<g id="edge32" class="edge">
<title>u20&#45;&gt;u0</title>
<path fill="none" stroke="black" d="M2483.22,-1338.96C2532.17,-1286.17 2681.42,-1125.25 2738.7,-1063.49"/>
<polygon fill="black" stroke="black" points="2741.29,-1065.84 2745.53,-1056.13 2736.16,-1061.08 2741.29,-1065.84"/>
</g>
<!-- u20&#45;&gt;u8 -->
<g id="edge33" class="edge">
<title>u20&#45;&gt;u8</title>
<path fill="none" stroke="black" d="M2459.61,-1338.94C2396.75,-1201.46 1973.21,-275.2 1896.36,-107.13"/>
<polygon fill="black" stroke="black" points="1899.52,-105.64 1892.18,-98 1893.16,-108.55 1899.52,-105.64"/>
</g>
<!-- u20&#45;&gt;u15 -->
<g id="edge34" class="edge">
<title>u20&#45;&gt;u15</title>
<path fill="none" stroke="black" d="M2447.36,-1338.96C2384.99,-1285.96 2194.35,-1123.94 2122.35,-1062.74"/>
<polygon fill="black" stroke="black" points="2124.45,-1059.94 2114.56,-1056.13 2119.92,-1065.27 2124.45,-1059.94"/>
</g>
<!-- u19&#45;&gt;u0 -->
<g id="edge29" class="edge">
<title>u19&#45;&gt;u0</title>
<path fill="none" stroke="black" d="M741.06,-1342.53C1087.4,-1290.5 2335.53,-1102.98 2675.42,-1051.92"/>
<polygon fill="black" stroke="black" points="2676.08,-1055.36 2685.45,-1050.41 2675.04,-1048.44 2676.08,-1055.36"/>
</g>
<!-- u19&#45;&gt;u8 -->
<g id="edge30" class="edge">
<title>u19&#45;&gt;u8</title>
<path fill="none" stroke="black" d="M726.05,-1341.36C928.04,-1300.42 1479.19,-1179.66 1612.41,-1056 1902.45,-786.78 1892.69,-236.78 1886.14,-108.27"/>
<polygon fill="black" stroke="black" points="1889.63,-107.92 1885.59,-98.13 1882.64,-108.31 1889.63,-107.92"/>
</g>
<!-- u19&#45;&gt;u15 -->
<g id="edge31" class="edge">
<title>u19&#45;&gt;u15</title>
<path fill="none" stroke="black" d="M720.04,-1340.92C959.5,-1288.32 1757.37,-1113.04 2014.1,-1056.64"/>
<polygon fill="black" stroke="black" points="2015.08,-1060.01 2024.09,-1054.45 2013.57,-1053.17 2015.08,-1060.01"/>
</g>
<!-- u18&#45;&gt;u0 -->
<g id="edge26" class="edge">
<title>u18&#45;&gt;u0</title>
<path fill="none" stroke="black" d="M388.01,-1341.76C807.74,-1288.22 2287.11,-1099.5 2670.25,-1050.63"/>
<polygon fill="black" stroke="black" points="2670.71,-1054.1 2680.18,-1049.36 2669.82,-1047.16 2670.71,-1054.1"/>
</g>
<!-- u18&#45;&gt;u14 -->
<g id="edge27" class="edge">
<title>u18&#45;&gt;u14</title>
<path fill="none" stroke="black" d="M412.13,-1343.31C713,-1312.38 1422.31,-1223.11 1585.41,-1056 1760.28,-876.83 1698.2,-526.94 1675.95,-427.16"/>
<polygon fill="black" stroke="black" points="1679.33,-426.23 1673.69,-417.26 1672.5,-427.79 1679.33,-426.23"/>
</g>
<!-- u18&#45;&gt;u15 -->
<g id="edge28" class="edge">
<title>u18&#45;&gt;u15</title>
<path fill="none" stroke="black" d="M364.4,-1340.66C670.19,-1287.34 1685.17,-1110.36 2000.26,-1055.42"/>
<polygon fill="black" stroke="black" points="2001.03,-1058.84 2010.28,-1053.67 1999.83,-1051.94 2001.03,-1058.84"/>
</g>
<!-- u17&#45;&gt;u12 -->
<g id="edge24" class="edge">
<title>u17&#45;&gt;u12</title>
<path fill="none" stroke="black" d="M2058.96,-1339.4C1945.08,-1286.08 1588.59,-1119.15 1462.3,-1060.02"/>
<polygon fill="black" stroke="black" points="1463.45,-1056.69 1452.91,-1055.62 1460.48,-1063.03 1463.45,-1056.69"/>
</g>
<!-- u17&#45;&gt;u15 -->
<g id="edge25" class="edge">
<title>u17&#45;&gt;u15</title>
<path fill="none" stroke="black" d="M2094.41,-1338.96C2094.41,-1286.93 2094.41,-1129.82 2094.41,-1066.19"/>
<polygon fill="black" stroke="black" points="2097.91,-1066.13 2094.41,-1056.13 2090.91,-1066.13 2097.91,-1066.13"/>
</g>
<!-- u16&#45;&gt;u0 -->
<g id="edge23" class="edge">
<title>u16&#45;&gt;u0</title>
<path fill="none" stroke="black" d="M3175.13,-1659.19C3249.43,-1610.32 3448.04,-1463.78 3370.41,-1339 3254.7,-1153.01 2986.03,-1078.96 2847.47,-1052.34"/>
<polygon fill="black" stroke="black" points="2847.79,-1048.84 2837.32,-1050.43 2846.5,-1055.72 2847.79,-1048.84"/>
</g>
</g>
</svg>
