<?xml version="1.0" encoding="UTF-8" standalone="no"?>
<!DOCTYPE svg PUBLIC "-//W3C//DTD SVG 1.1//EN"
 "http://www.w3.org/Graphics/SVG/1.1/DTD/svg11.dtd">
<!-- Generated by graphviz version 2.43.0 (0)
 -->
<!-- Title: G Pages: 1 -->
<svg width="429pt" height="288pt"
 viewBox="0.00 0.00 429.34 288.00" xmlns="http://www.w3.org/2000/svg" xmlns:xlink="http://www.w3.org/1999/xlink">
<g id="graph0" class="graph" transform="scale(0.78 0.78) rotate(0) translate(4 366)">
<title>G</title>
<polygon fill="white" stroke="transparent" points="-4,4 -4,-366 547.58,-366 547.58,4 -4,4"/>
<!-- u5 -->
<g id="node1" class="node">
<title>u5</title>
<ellipse fill="#bbffbb" stroke="black" cx="268.69" cy="-342" rx="65.79" ry="18"/>
<text text-anchor="middle" x="268.69" y="-338.3" font-family="Times,serif" font-size="14.00">Build.Drasil</text>
</g>
<!-- u3 -->
<g id="node3" class="node">
<title>u3</title>
<ellipse fill="#ffffbb" stroke="black" cx="268.69" cy="-261" rx="120.48" ry="18"/>
<text text-anchor="middle" x="268.69" y="-257.3" font-family="Times,serif" font-size="14.00">Build.Drasil.Make.Print</text>
</g>
<!-- u5&#45;&gt;u3 -->
<g id="edge6" class="edge">
<title>u5&#45;&gt;u3</title>
<path fill="none" stroke="black" d="M268.69,-323.86C268.69,-313.71 268.69,-300.63 268.69,-289.12"/>
<polygon fill="black" stroke="black" points="272.19,-289.11 268.69,-279.11 265.19,-289.11 272.19,-289.11"/>
</g>
<!-- u4 -->
<g id="node2" class="node">
<title>u4</title>
<ellipse fill="#ffffbb" stroke="black" cx="268.69" cy="-101" rx="115.88" ry="18"/>
<text text-anchor="middle" x="268.69" y="-97.3" font-family="Times,serif" font-size="14.00">Build.Drasil.Make.AST</text>
</g>
<!-- u1 -->
<g id="node5" class="node">
<title>u1</title>
<ellipse fill="#ffffbb" stroke="black" cx="268.69" cy="-20" rx="151.37" ry="18"/>
<text text-anchor="middle" x="268.69" y="-16.3" font-family="Times,serif" font-size="14.00">Build.Drasil.Make.MakeString</text>
</g>
<!-- u4&#45;&gt;u1 -->
<g id="edge5" class="edge">
<title>u4&#45;&gt;u1</title>
<path fill="none" stroke="black" d="M268.69,-82.86C268.69,-72.71 268.69,-59.63 268.69,-48.12"/>
<polygon fill="black" stroke="black" points="272.19,-48.11 268.69,-38.11 265.19,-48.11 272.19,-48.11"/>
</g>
<!-- u2 -->
<g id="node4" class="node">
<title>u2</title>
<ellipse fill="#ffffbb" stroke="black" cx="128.69" cy="-181" rx="128.88" ry="18"/>
<text text-anchor="middle" x="128.69" y="-177.3" font-family="Times,serif" font-size="14.00">Build.Drasil.Make.Import</text>
</g>
<!-- u3&#45;&gt;u2 -->
<g id="edge4" class="edge">
<title>u3&#45;&gt;u2</title>
<path fill="none" stroke="black" d="M239,-243.46C218.12,-231.82 189.98,-216.15 167.34,-203.54"/>
<polygon fill="black" stroke="black" points="168.78,-200.33 158.34,-198.52 165.37,-206.44 168.78,-200.33"/>
</g>
<!-- u0 -->
<g id="node6" class="node">
<title>u0</title>
<ellipse fill="#ffffbb" stroke="black" cx="409.69" cy="-181" rx="133.78" ry="18"/>
<text text-anchor="middle" x="409.69" y="-177.3" font-family="Times,serif" font-size="14.00">Build.Drasil.Make.Helpers</text>
</g>
<!-- u3&#45;&gt;u0 -->
<g id="edge3" class="edge">
<title>u3&#45;&gt;u0</title>
<path fill="none" stroke="black" d="M298.59,-243.46C319.48,-231.9 347.58,-216.36 370.29,-203.79"/>
<polygon fill="black" stroke="black" points="372.29,-206.69 379.34,-198.79 368.9,-200.56 372.29,-206.69"/>
</g>
<!-- u2&#45;&gt;u4 -->
<g id="edge2" class="edge">
<title>u2&#45;&gt;u4</title>
<path fill="none" stroke="black" d="M158.38,-163.46C179.26,-151.82 207.4,-136.15 230.03,-123.54"/>
<polygon fill="black" stroke="black" points="232.01,-126.44 239.04,-118.52 228.6,-120.33 232.01,-126.44"/>
</g>
<!-- u0&#45;&gt;u4 -->
<g id="edge1" class="edge">
<title>u0&#45;&gt;u4</title>
<path fill="none" stroke="black" d="M379.44,-163.27C358.39,-151.62 330.14,-135.99 307.44,-123.43"/>
<polygon fill="black" stroke="black" points="308.85,-120.22 298.4,-118.44 305.46,-126.34 308.85,-120.22"/>
</g>
</g>
</svg>
