<?xml version="1.0" encoding="UTF-8" standalone="no"?>
<!DOCTYPE svg PUBLIC "-//W3C//DTD SVG 1.1//EN"
 "http://www.w3.org/Graphics/SVG/1.1/DTD/svg11.dtd">
<!-- Generated by graphviz version 2.43.0 (0)
 -->
<!-- Title: G Pages: 1 -->
<svg width="431pt" height="288pt"
 viewBox="0.00 0.00 430.82 288.00" xmlns="http://www.w3.org/2000/svg" xmlns:xlink="http://www.w3.org/1999/xlink">
<g id="graph0" class="graph" transform="scale(3.24 3.24) rotate(0) translate(4 928.67)">
<title>G</title>
<polygon fill="white" stroke="transparent" points="-4,4 -4,-928.67 1391.17,-928.67 1391.17,4 -4,4"/>
<!-- u7 -->
<g id="node1" class="node">
<title>u7</title>
<ellipse fill="#bbffbb" stroke="black" cx="712.09" cy="-594" rx="104.78" ry="18"/>
<text text-anchor="middle" x="712.09" y="-590.3" font-family="Times,serif" font-size="14.00">Drasil.Website.Body</text>
</g>
<!-- u6 -->
<g id="node2" class="node">
<title>u6</title>
<ellipse fill="#bbffbb" stroke="black" cx="152.09" cy="-330" rx="152.17" ry="18"/>
<text text-anchor="middle" x="152.09" y="-326.3" font-family="Times,serif" font-size="14.00">Drasil.Website.Documentation</text>
</g>
<!-- u7&#45;&gt;u6 -->
<g id="edge7" class="edge">
<title>u7&#45;&gt;u6</title>
<path fill="none" stroke="black" d="M677.48,-576.81C580.37,-531.38 305.39,-402.73 196.9,-351.97"/>
<polygon fill="black" stroke="black" points="198.08,-348.66 187.54,-347.59 195.12,-355 198.08,-348.66"/>
</g>
<!-- u4 -->
<g id="node4" class="node">
<title>u4</title>
<ellipse fill="#bbffbb" stroke="black" cx="442.09" cy="-330" rx="120.48" ry="18"/>
<text text-anchor="middle" x="442.09" y="-326.3" font-family="Times,serif" font-size="14.00">Drasil.Website.Analysis</text>
</g>
<!-- u7&#45;&gt;u4 -->
<g id="edge6" class="edge">
<title>u7&#45;&gt;u4</title>
<path fill="none" stroke="black" d="M694.79,-576.21C648.42,-531.22 521.2,-407.77 467.04,-355.21"/>
<polygon fill="black" stroke="black" points="469.21,-352.44 459.59,-347.99 464.33,-357.46 469.21,-352.44"/>
</g>
<!-- u3 -->
<g id="node5" class="node">
<title>u3</title>
<ellipse fill="#bbffbb" stroke="black" cx="712.09" cy="-330" rx="131.08" ry="18"/>
<text text-anchor="middle" x="712.09" y="-326.3" font-family="Times,serif" font-size="14.00">Drasil.Website.CaseStudy</text>
</g>
<!-- u7&#45;&gt;u3 -->
<g id="edge5" class="edge">
<title>u7&#45;&gt;u3</title>
<path fill="none" stroke="black" d="M712.09,-575.81C712.09,-531.4 712.09,-412.53 712.09,-358.46"/>
<polygon fill="black" stroke="black" points="715.59,-358.25 712.09,-348.25 708.59,-358.25 715.59,-358.25"/>
</g>
<!-- u2 -->
<g id="node6" class="node">
<title>u2</title>
<ellipse fill="#bbffbb" stroke="black" cx="976.09" cy="-330" rx="115.08" ry="18"/>
<text text-anchor="middle" x="976.09" y="-326.3" font-family="Times,serif" font-size="14.00">Drasil.Website.Graphs</text>
</g>
<!-- u7&#45;&gt;u2 -->
<g id="edge4" class="edge">
<title>u7&#45;&gt;u2</title>
<path fill="none" stroke="black" d="M729,-576.21C774.34,-531.22 898.73,-407.77 951.69,-355.21"/>
<polygon fill="black" stroke="black" points="954.34,-357.52 958.97,-347.99 949.41,-352.55 954.34,-357.52"/>
</g>
<!-- u0 -->
<g id="node8" class="node">
<title>u0</title>
<ellipse fill="#bbffbb" stroke="black" cx="1248.09" cy="-330" rx="139.18" ry="18"/>
<text text-anchor="middle" x="1248.09" y="-326.3" font-family="Times,serif" font-size="14.00">Drasil.Website.Introduction</text>
</g>
<!-- u7&#45;&gt;u0 -->
<g id="edge3" class="edge">
<title>u7&#45;&gt;u0</title>
<path fill="none" stroke="black" d="M745.21,-576.81C838.06,-531.42 1100.82,-402.98 1204.88,-352.12"/>
<polygon fill="black" stroke="black" points="1206.7,-355.12 1214.15,-347.59 1203.63,-348.83 1206.7,-355.12"/>
</g>
<!-- u5 -->
<g id="node3" class="node">
<title>u5</title>
<ellipse fill="#bbffbb" stroke="black" cx="712.09" cy="-66" rx="122.38" ry="18"/>
<text text-anchor="middle" x="712.09" y="-62.3" font-family="Times,serif" font-size="14.00">Drasil.Website.Example</text>
</g>
<!-- u3&#45;&gt;u5 -->
<g id="edge2" class="edge">
<title>u3&#45;&gt;u5</title>
<path fill="none" stroke="black" d="M712.09,-311.81C712.09,-267.4 712.09,-148.53 712.09,-94.46"/>
<polygon fill="black" stroke="black" points="715.59,-94.25 712.09,-84.25 708.59,-94.25 715.59,-94.25"/>
</g>
<!-- u1 -->
<g id="node7" class="node">
<title>u1</title>
<ellipse fill="#bbffbb" stroke="black" cx="712.09" cy="-859" rx="104.78" ry="18"/>
<text text-anchor="middle" x="712.09" y="-855.3" font-family="Times,serif" font-size="14.00">Drasil.Website.Main</text>
</g>
<!-- u1&#45;&gt;u7 -->
<g id="edge1" class="edge">
<title>u1&#45;&gt;u7</title>
<path fill="none" stroke="black" d="M712.09,-840.74C712.09,-796.16 712.09,-676.84 712.09,-622.57"/>
<polygon fill="black" stroke="black" points="715.59,-622.32 712.09,-612.32 708.59,-622.32 715.59,-622.32"/>
</g>
</g>
</svg>
