<?xml version="1.0" encoding="UTF-8" standalone="no"?>
<!DOCTYPE svg PUBLIC "-//W3C//DTD SVG 1.1//EN"
 "http://www.w3.org/Graphics/SVG/1.1/DTD/svg11.dtd">
<!-- Generated by graphviz version 2.43.0 (0)
 -->
<!-- Title: G Pages: 1 -->
<svg width="432pt" height="288pt"
 viewBox="0.00 0.00 431.71 288.00" xmlns="http://www.w3.org/2000/svg" xmlns:xlink="http://www.w3.org/1999/xlink">
<g id="graph0" class="graph" transform="scale(10.43 10.43) rotate(0) translate(4 2998.67)">
<title>G</title>
<polygon fill="white" stroke="transparent" points="-4,4 -4,-2998.67 4496.97,-2998.67 4496.97,4 -4,4"/>
<!-- u20 -->
<g id="node1" class="node">
<title>u20</title>
<ellipse fill="#bbffbb" stroke="black" cx="3857.69" cy="-2907" rx="108.58" ry="18"/>
<text text-anchor="middle" x="3857.69" y="-2903.3" font-family="Times,serif" font-size="14.00">Drasil.SRSDocument</text>
</g>
<!-- u0 -->
<g id="node6" class="node">
<title>u0</title>
<ellipse fill="#bbffbb" stroke="black" cx="3857.69" cy="-2554" rx="81.79" ry="18"/>
<text text-anchor="middle" x="3857.69" y="-2550.3" font-family="Times,serif" font-size="14.00">Drasil.DocLang</text>
</g>
<!-- u20&#45;&gt;u0 -->
<g id="edge40" class="edge">
<title>u20&#45;&gt;u0</title>
<path fill="none" stroke="black" d="M3857.69,-2888.59C3857.69,-2831.74 3857.69,-2651.19 3857.69,-2582.18"/>
<polygon fill="black" stroke="black" points="3861.19,-2582.1 3857.69,-2572.1 3854.19,-2582.1 3861.19,-2582.1"/>
</g>
<!-- u16 -->
<g id="node2" class="node">
<title>u16</title>
<ellipse fill="#bbffbb" stroke="black" cx="3140.69" cy="-1850" rx="79.09" ry="18"/>
<text text-anchor="middle" x="3140.69" y="-1846.3" font-family="Times,serif" font-size="14.00">Drasil.DocDecl</text>
</g>
<!-- u27 -->
<g id="node11" class="node">
<title>u27</title>
<ellipse fill="#bbbbff" stroke="black" cx="2146.69" cy="-1145" rx="159.47" ry="18"/>
<text text-anchor="middle" x="2146.69" y="-1141.3" font-family="Times,serif" font-size="14.00">Drasil.DocumentLanguage.Core</text>
</g>
<!-- u16&#45;&gt;u27 -->
<g id="edge32" class="edge">
<title>u16&#45;&gt;u27</title>
<path fill="none" stroke="black" d="M3162.21,-1832.38C3229.89,-1778.14 3428.47,-1602.68 3334.69,-1479 3202.92,-1305.22 2529.11,-1197.21 2258.95,-1160.29"/>
<polygon fill="black" stroke="black" points="2259.11,-1156.78 2248.73,-1158.9 2258.17,-1163.71 2259.11,-1156.78"/>
</g>
<!-- u6 -->
<g id="node27" class="node">
<title>u6</title>
<ellipse fill="#ffbbff" stroke="black" cx="3176.69" cy="-1497" rx="149.47" ry="18"/>
<text text-anchor="middle" x="3176.69" y="-1493.3" font-family="Times,serif" font-size="14.00">Drasil.Sections.Requirements</text>
</g>
<!-- u16&#45;&gt;u6 -->
<g id="edge31" class="edge">
<title>u16&#45;&gt;u6</title>
<path fill="none" stroke="black" d="M3142.47,-1831.59C3148.3,-1774.74 3166.82,-1594.19 3173.9,-1525.18"/>
<polygon fill="black" stroke="black" points="3177.4,-1525.4 3174.93,-1515.1 3170.43,-1524.69 3177.4,-1525.4"/>
</g>
<!-- u15 -->
<g id="node3" class="node">
<title>u15</title>
<ellipse fill="#bbffbb" stroke="black" cx="1380.69" cy="-2202" rx="133.78" ry="18"/>
<text text-anchor="middle" x="1380.69" y="-2198.3" font-family="Times,serif" font-size="14.00">Drasil.DocumentLanguage</text>
</g>
<!-- u15&#45;&gt;u16 -->
<g id="edge28" class="edge">
<title>u15&#45;&gt;u16</title>
<path fill="none" stroke="black" d="M1452.41,-2186.74C1738.31,-2129.88 2794.61,-1919.82 3073.05,-1864.45"/>
<polygon fill="black" stroke="black" points="3073.88,-1867.85 3083.01,-1862.47 3072.52,-1860.99 3073.88,-1867.85"/>
</g>
<!-- u14 -->
<g id="node4" class="node">
<title>u14</title>
<ellipse fill="#bbffbb" stroke="black" cx="3330.69" cy="-1850" rx="92.08" ry="18"/>
<text text-anchor="middle" x="3330.69" y="-1846.3" font-family="Times,serif" font-size="14.00">Drasil.TraceTable</text>
</g>
<!-- u15&#45;&gt;u14 -->
<g id="edge27" class="edge">
<title>u15&#45;&gt;u14</title>
<path fill="none" stroke="black" d="M1457.43,-2187.23C1769.81,-2131.16 2943.85,-1920.43 3254.75,-1864.63"/>
<polygon fill="black" stroke="black" points="3255.78,-1868 3265.01,-1862.79 3254.54,-1861.11 3255.78,-1868"/>
</g>
<!-- u1 -->
<g id="node5" class="node">
<title>u1</title>
<ellipse fill="#bbffbb" stroke="black" cx="1557.69" cy="-1850" rx="116.18" ry="18"/>
<text text-anchor="middle" x="1557.69" y="-1846.3" font-family="Times,serif" font-size="14.00">Drasil.ExtractDocDesc</text>
</g>
<!-- u15&#45;&gt;u1 -->
<g id="edge22" class="edge">
<title>u15&#45;&gt;u1</title>
<path fill="none" stroke="black" d="M1389.46,-2183.64C1418.25,-2126.72 1509.93,-1945.43 1544.41,-1877.26"/>
<polygon fill="black" stroke="black" points="1547.68,-1878.55 1549.07,-1868.05 1541.43,-1875.39 1547.68,-1878.55"/>
</g>
<!-- u17 -->
<g id="node9" class="node">
<title>u17</title>
<ellipse fill="#ffffbb" stroke="black" cx="1998.69" cy="-1850" rx="136.48" ry="18"/>
<text text-anchor="middle" x="1998.69" y="-1846.3" font-family="Times,serif" font-size="14.00">Drasil.DocLang.References</text>
</g>
<!-- u15&#45;&gt;u17 -->
<g id="edge29" class="edge">
<title>u15&#45;&gt;u17</title>
<path fill="none" stroke="black" d="M1410.08,-2184.35C1511.44,-2126.95 1846.41,-1937.24 1960.35,-1872.71"/>
<polygon fill="black" stroke="black" points="1962.14,-1875.72 1969.12,-1867.75 1958.69,-1869.63 1962.14,-1875.72"/>
</g>
<!-- u21 -->
<g id="node14" class="node">
<title>u21</title>
<ellipse fill="#bbbbff" stroke="black" cx="1202.69" cy="-1850" rx="220.96" ry="18"/>
<text text-anchor="middle" x="1202.69" y="-1846.3" font-family="Times,serif" font-size="14.00">Drasil.DocumentLanguage.TraceabilityGraph</text>
</g>
<!-- u15&#45;&gt;u21 -->
<g id="edge30" class="edge">
<title>u15&#45;&gt;u21</title>
<path fill="none" stroke="black" d="M1371.86,-2183.64C1342.91,-2126.72 1250.71,-1945.43 1216.04,-1877.26"/>
<polygon fill="black" stroke="black" points="1219.01,-1875.38 1211.36,-1868.05 1212.77,-1878.55 1219.01,-1875.38"/>
</g>
<!-- u12 -->
<g id="node21" class="node">
<title>u12</title>
<ellipse fill="#ffbbff" stroke="black" cx="141.69" cy="-1497" rx="141.88" ry="18"/>
<text text-anchor="middle" x="141.69" y="-1493.3" font-family="Times,serif" font-size="14.00">Drasil.Sections.Introduction</text>
</g>
<!-- u15&#45;&gt;u12 -->
<g id="edge26" class="edge">
<title>u15&#45;&gt;u12</title>
<path fill="none" stroke="black" d="M1296.54,-2187.91C1056.85,-2148.98 378.16,-2026.63 227.69,-1868 135.04,-1770.33 135.46,-1593.16 139.44,-1525.38"/>
<polygon fill="black" stroke="black" points="142.95,-1525.32 140.12,-1515.11 135.97,-1524.86 142.95,-1525.32"/>
</g>
<!-- u11 -->
<g id="node22" class="node">
<title>u11</title>
<ellipse fill="#ffbbff" stroke="black" cx="381.69" cy="-1850" rx="144.87" ry="18"/>
<text text-anchor="middle" x="381.69" y="-1846.3" font-family="Times,serif" font-size="14.00">Drasil.Sections.Stakeholders</text>
</g>
<!-- u15&#45;&gt;u11 -->
<g id="edge25" class="edge">
<title>u15&#45;&gt;u11</title>
<path fill="none" stroke="black" d="M1335.17,-2185.05C1171.84,-2127.83 615.6,-1932.95 437.22,-1870.46"/>
<polygon fill="black" stroke="black" points="438.36,-1867.15 427.76,-1867.14 436.04,-1873.75 438.36,-1867.15"/>
</g>
<!-- u10 -->
<g id="node23" class="node">
<title>u10</title>
<ellipse fill="#ffbbff" stroke="black" cx="538.69" cy="-1497" rx="161.37" ry="18"/>
<text text-anchor="middle" x="538.69" y="-1493.3" font-family="Times,serif" font-size="14.00">Drasil.Sections.TableOfContents</text>
</g>
<!-- u15&#45;&gt;u10 -->
<g id="edge24" class="edge">
<title>u15&#45;&gt;u10</title>
<path fill="none" stroke="black" d="M1359.75,-2184.18C1299.36,-2135.59 1119.78,-1990.7 972.69,-1868 817.8,-1738.79 634.59,-1580.92 566.22,-1521.83"/>
<polygon fill="black" stroke="black" points="568.31,-1519.01 558.46,-1515.12 563.73,-1524.3 568.31,-1519.01"/>
</g>
<!-- u5 -->
<g id="node28" class="node">
<title>u5</title>
<ellipse fill="#ffbbff" stroke="black" cx="738.69" cy="-1850" rx="163.27" ry="18"/>
<text text-anchor="middle" x="738.69" y="-1846.3" font-family="Times,serif" font-size="14.00">Drasil.Sections.GeneralSystDesc</text>
</g>
<!-- u15&#45;&gt;u5 -->
<g id="edge23" class="edge">
<title>u15&#45;&gt;u5</title>
<path fill="none" stroke="black" d="M1350.15,-2184.35C1244.86,-2126.95 896.88,-1937.24 778.51,-1872.71"/>
<polygon fill="black" stroke="black" points="779.86,-1869.46 769.41,-1867.75 776.51,-1875.61 779.86,-1869.46"/>
</g>
<!-- u14&#45;&gt;u27 -->
<g id="edge21" class="edge">
<title>u14&#45;&gt;u27</title>
<path fill="none" stroke="black" d="M3338.93,-1832.04C3365.23,-1775.25 3440.6,-1589.12 3356.69,-1479 3222.25,-1302.57 2536.24,-1196.14 2261.09,-1159.96"/>
<polygon fill="black" stroke="black" points="2261.45,-1156.48 2251.08,-1158.66 2260.54,-1163.42 2261.45,-1156.48"/>
</g>
<!-- u1&#45;&gt;u27 -->
<g id="edge5" class="edge">
<title>u1&#45;&gt;u27</title>
<path fill="none" stroke="black" d="M1553.52,-1831.87C1540.97,-1776.07 1508.63,-1596.38 1580.69,-1479 1693.64,-1295 1949.2,-1201 2074.58,-1164.54"/>
<polygon fill="black" stroke="black" points="2075.82,-1167.82 2084.47,-1161.7 2073.89,-1161.09 2075.82,-1167.82"/>
</g>
<!-- u4 -->
<g id="node29" class="node">
<title>u4</title>
<ellipse fill="#ffbbff" stroke="black" cx="963.69" cy="-1497" rx="207.96" ry="18"/>
<text text-anchor="middle" x="963.69" y="-1493.3" font-family="Times,serif" font-size="14.00">Drasil.Sections.SpecificSystemDescription</text>
</g>
<!-- u1&#45;&gt;u4 -->
<g id="edge4" class="edge">
<title>u1&#45;&gt;u4</title>
<path fill="none" stroke="black" d="M1529.44,-1832.31C1432.22,-1774.86 1111.44,-1585.31 1001.24,-1520.19"/>
<polygon fill="black" stroke="black" points="1002.85,-1517.08 992.46,-1515 999.29,-1523.1 1002.85,-1517.08"/>
</g>
<!-- u0&#45;&gt;u15 -->
<g id="edge2" class="edge">
<title>u0&#45;&gt;u15</title>
<path fill="none" stroke="black" d="M3790.79,-2543.55C3448.03,-2495.11 1888.78,-2274.79 1479.38,-2216.94"/>
<polygon fill="black" stroke="black" points="1479.73,-2213.46 1469.34,-2215.53 1478.75,-2220.39 1479.73,-2213.46"/>
</g>
<!-- u24 -->
<g id="node16" class="node">
<title>u24</title>
<ellipse fill="#ffbbbb" stroke="black" cx="3857.69" cy="-2202" rx="276.75" ry="18"/>
<text text-anchor="middle" x="3857.69" y="-2198.3" font-family="Times,serif" font-size="14.00">Drasil.DocumentLanguage.Notebook.DocumentLanguage</text>
</g>
<!-- u0&#45;&gt;u24 -->
<g id="edge3" class="edge">
<title>u0&#45;&gt;u24</title>
<path fill="none" stroke="black" d="M3857.69,-2535.64C3857.69,-2478.95 3857.69,-2298.92 3857.69,-2230.1"/>
<polygon fill="black" stroke="black" points="3861.19,-2230.05 3857.69,-2220.05 3854.19,-2230.05 3861.19,-2230.05"/>
</g>
<!-- u3 -->
<g id="node30" class="node">
<title>u3</title>
<ellipse fill="#ffbbff" stroke="black" cx="4322.69" cy="-2202" rx="170.07" ry="18"/>
<text text-anchor="middle" x="4322.69" y="-2198.3" font-family="Times,serif" font-size="14.00">Drasil.Sections.ReferenceMaterial</text>
</g>
<!-- u0&#45;&gt;u3 -->
<g id="edge1" class="edge">
<title>u0&#45;&gt;u3</title>
<path fill="none" stroke="black" d="M3879.49,-2536.59C3954.82,-2479.89 4204.27,-2292.13 4291.91,-2226.16"/>
<polygon fill="black" stroke="black" points="4294.23,-2228.8 4300.12,-2219.99 4290.02,-2223.21 4294.23,-2228.8"/>
</g>
<!-- u19 -->
<g id="node7" class="node">
<title>u19</title>
<ellipse fill="#ffffbb" stroke="black" cx="632.69" cy="-1145" rx="104.78" ry="18"/>
<text text-anchor="middle" x="632.69" y="-1141.3" font-family="Times,serif" font-size="14.00">Drasil.DocLang.SRS</text>
</g>
<!-- u18 -->
<g id="node8" class="node">
<title>u18</title>
<ellipse fill="#ffffbb" stroke="black" cx="4202.69" cy="-1497" rx="129.18" ry="18"/>
<text text-anchor="middle" x="4202.69" y="-1493.3" font-family="Times,serif" font-size="14.00">Drasil.DocLang.Notebook</text>
</g>
<!-- u13 -->
<g id="node20" class="node">
<title>u13</title>
<ellipse fill="#ffbbff" stroke="black" cx="1766.69" cy="-1497" rx="177.37" ry="18"/>
<text text-anchor="middle" x="1766.69" y="-1493.3" font-family="Times,serif" font-size="14.00">Drasil.Sections.TraceabilityMandGs</text>
</g>
<!-- u17&#45;&gt;u13 -->
<g id="edge39" class="edge">
<title>u17&#45;&gt;u13</title>
<path fill="none" stroke="black" d="M1987.18,-1831.59C1949.29,-1774.27 1828.3,-1591.21 1783.54,-1523.5"/>
<polygon fill="black" stroke="black" points="1786.42,-1521.51 1777.99,-1515.1 1780.58,-1525.37 1786.42,-1521.51"/>
</g>
<!-- u9 -->
<g id="node24" class="node">
<title>u9</title>
<ellipse fill="#ffbbff" stroke="black" cx="2527.69" cy="-1497" rx="144.87" ry="18"/>
<text text-anchor="middle" x="2527.69" y="-1493.3" font-family="Times,serif" font-size="14.00">Drasil.Sections.TableOfUnits</text>
</g>
<!-- u17&#45;&gt;u9 -->
<g id="edge38" class="edge">
<title>u17&#45;&gt;u9</title>
<path fill="none" stroke="black" d="M2023.85,-1832.31C2110.35,-1774.91 2395.62,-1585.63 2493.99,-1520.36"/>
<polygon fill="black" stroke="black" points="2495.98,-1523.24 2502.37,-1514.8 2492.11,-1517.41 2495.98,-1523.24"/>
</g>
<!-- u8 -->
<g id="node25" class="node">
<title>u8</title>
<ellipse fill="#ffbbff" stroke="black" cx="1361.69" cy="-1497" rx="172.47" ry="18"/>
<text text-anchor="middle" x="1361.69" y="-1493.3" font-family="Times,serif" font-size="14.00">Drasil.Sections.AuxiliaryConstants</text>
</g>
<!-- u17&#45;&gt;u8 -->
<g id="edge37" class="edge">
<title>u17&#45;&gt;u8</title>
<path fill="none" stroke="black" d="M1968.39,-1832.31C1863.91,-1774.74 1518.64,-1584.49 1401.2,-1519.77"/>
<polygon fill="black" stroke="black" points="1402.62,-1516.56 1392.17,-1514.8 1399.24,-1522.69 1402.62,-1516.56"/>
</g>
<!-- u7 -->
<g id="node26" class="node">
<title>u7</title>
<ellipse fill="#ffbbff" stroke="black" cx="2163.69" cy="-1497" rx="201.46" ry="18"/>
<text text-anchor="middle" x="2163.69" y="-1493.3" font-family="Times,serif" font-size="14.00">Drasil.Sections.TableOfAbbAndAcronyms</text>
</g>
<!-- u17&#45;&gt;u7 -->
<g id="edge36" class="edge">
<title>u17&#45;&gt;u7</title>
<path fill="none" stroke="black" d="M2006.87,-1831.59C2033.71,-1774.5 2119.17,-1592.7 2151.31,-1524.33"/>
<polygon fill="black" stroke="black" points="2154.56,-1525.64 2155.65,-1515.1 2148.23,-1522.66 2154.56,-1525.64"/>
</g>
<!-- u17&#45;&gt;u6 -->
<g id="edge35" class="edge">
<title>u17&#45;&gt;u6</title>
<path fill="none" stroke="black" d="M2051.21,-1833.35C2243.07,-1776.18 2905.66,-1578.76 3113.69,-1516.77"/>
<polygon fill="black" stroke="black" points="3114.95,-1520.05 3123.54,-1513.84 3112.95,-1513.34 3114.95,-1520.05"/>
</g>
<!-- u17&#45;&gt;u4 -->
<g id="edge34" class="edge">
<title>u17&#45;&gt;u4</title>
<path fill="none" stroke="black" d="M1951.53,-1833.01C1782.62,-1775.73 1208.1,-1580.89 1022.22,-1517.85"/>
<polygon fill="black" stroke="black" points="1023.22,-1514.49 1012.62,-1514.6 1020.97,-1521.12 1023.22,-1514.49"/>
</g>
<!-- u2 -->
<g id="node31" class="node">
<title>u2</title>
<ellipse fill="#ffbbff" stroke="black" cx="2849.69" cy="-1497" rx="159.47" ry="18"/>
<text text-anchor="middle" x="2849.69" y="-1493.3" font-family="Times,serif" font-size="14.00">Drasil.Sections.TableOfSymbols</text>
</g>
<!-- u17&#45;&gt;u2 -->
<g id="edge33" class="edge">
<title>u17&#45;&gt;u2</title>
<path fill="none" stroke="black" d="M2038.31,-1832.66C2177.82,-1775.12 2646.15,-1581.95 2800.15,-1518.43"/>
<polygon fill="black" stroke="black" points="2801.92,-1521.49 2809.83,-1514.44 2799.25,-1515.02 2801.92,-1521.49"/>
</g>
<!-- u28 -->
<g id="node10" class="node">
<title>u28</title>
<ellipse fill="#bbbbff" stroke="black" cx="1055.69" cy="-440" rx="187.37" ry="18"/>
<text text-anchor="middle" x="1055.69" y="-436.3" font-family="Times,serif" font-size="14.00">Drasil.DocumentLanguage.Definitions</text>
</g>
<!-- u22 -->
<g id="node13" class="node">
<title>u22</title>
<ellipse fill="#bbbbff" stroke="black" cx="1361.69" cy="-88" rx="162.47" ry="18"/>
<text text-anchor="middle" x="1361.69" y="-84.3" font-family="Times,serif" font-size="14.00">Drasil.DocumentLanguage.Units</text>
</g>
<!-- u28&#45;&gt;u22 -->
<g id="edge49" class="edge">
<title>u28&#45;&gt;u22</title>
<path fill="none" stroke="black" d="M1070.86,-421.64C1121.04,-364.25 1281.73,-180.45 1340.18,-113.6"/>
<polygon fill="black" stroke="black" points="1342.84,-115.88 1346.78,-106.05 1337.57,-111.27 1342.84,-115.88"/>
</g>
<!-- u26 -->
<g id="node12" class="node">
<title>u26</title>
<ellipse fill="#bbbbff" stroke="black" cx="2091.69" cy="-793" rx="223.66" ry="18"/>
<text text-anchor="middle" x="2091.69" y="-789.3" font-family="Times,serif" font-size="14.00">Drasil.DocumentLanguage.TraceabilityMatrix</text>
</g>
<!-- u27&#45;&gt;u26 -->
<g id="edge48" class="edge">
<title>u27&#45;&gt;u26</title>
<path fill="none" stroke="black" d="M2143.96,-1126.64C2135.05,-1069.95 2106.76,-889.92 2095.95,-821.1"/>
<polygon fill="black" stroke="black" points="2099.38,-820.38 2094.37,-811.05 2092.46,-821.47 2099.38,-820.38"/>
</g>
<!-- u26&#45;&gt;u28 -->
<g id="edge47" class="edge">
<title>u26&#45;&gt;u28</title>
<path fill="none" stroke="black" d="M2042.76,-775.42C1871.36,-717.35 1298.41,-523.24 1113.65,-460.64"/>
<polygon fill="black" stroke="black" points="1114.7,-457.3 1104.11,-457.41 1112.46,-463.93 1114.7,-457.3"/>
</g>
<!-- u21&#45;&gt;u19 -->
<g id="edge42" class="edge">
<title>u21&#45;&gt;u19</title>
<path fill="none" stroke="black" d="M1165.73,-1832.23C1079.13,-1791.06 861.72,-1676.43 746.69,-1515 667.97,-1404.54 642.47,-1238.23 635.24,-1173.32"/>
<polygon fill="black" stroke="black" points="638.69,-1172.68 634.16,-1163.1 631.73,-1173.41 638.69,-1172.68"/>
</g>
<!-- u21&#45;&gt;u13 -->
<g id="edge41" class="edge">
<title>u21&#45;&gt;u13</title>
<path fill="none" stroke="black" d="M1229.89,-1832.07C1322.58,-1774.39 1626.08,-1585.5 1730.79,-1520.34"/>
<polygon fill="black" stroke="black" points="1732.79,-1523.22 1739.43,-1514.96 1729.09,-1517.28 1732.79,-1523.22"/>
</g>
<!-- u25 -->
<g id="node15" class="node">
<title>u25</title>
<ellipse fill="#ffbbbb" stroke="black" cx="3660.69" cy="-1497" rx="206.06" ry="18"/>
<text text-anchor="middle" x="3660.69" y="-1493.3" font-family="Times,serif" font-size="14.00">Drasil.DocumentLanguage.Notebook.Core</text>
</g>
<!-- u23 -->
<g id="node17" class="node">
<title>u23</title>
<ellipse fill="#ffbbbb" stroke="black" cx="3660.69" cy="-1850" rx="219.86" ry="18"/>
<text text-anchor="middle" x="3660.69" y="-1846.3" font-family="Times,serif" font-size="14.00">Drasil.DocumentLanguage.Notebook.NBDecl</text>
</g>
<!-- u24&#45;&gt;u23 -->
<g id="edge44" class="edge">
<title>u24&#45;&gt;u23</title>
<path fill="none" stroke="black" d="M3847.92,-2183.64C3815.81,-2126.6 3713.42,-1944.69 3675.23,-1876.84"/>
<polygon fill="black" stroke="black" points="3678.24,-1875.05 3670.28,-1868.05 3672.14,-1878.48 3678.24,-1875.05"/>
</g>
<!-- u30 -->
<g id="node18" class="node">
<title>u30</title>
<ellipse fill="#bbffff" stroke="black" cx="4054.69" cy="-1850" rx="155.97" ry="18"/>
<text text-anchor="middle" x="4054.69" y="-1846.3" font-family="Times,serif" font-size="14.00">Drasil.NBSections.Introduction</text>
</g>
<!-- u24&#45;&gt;u30 -->
<g id="edge46" class="edge">
<title>u24&#45;&gt;u30</title>
<path fill="none" stroke="black" d="M3867.46,-2183.64C3899.56,-2126.6 4001.95,-1944.69 4040.14,-1876.84"/>
<polygon fill="black" stroke="black" points="4043.24,-1878.48 4045.09,-1868.05 4037.14,-1875.05 4043.24,-1878.48"/>
</g>
<!-- u29 -->
<g id="node19" class="node">
<title>u29</title>
<ellipse fill="#bbffff" stroke="black" cx="4350.69" cy="-1850" rx="122.38" ry="18"/>
<text text-anchor="middle" x="4350.69" y="-1846.3" font-family="Times,serif" font-size="14.00">Drasil.NBSections.Body</text>
</g>
<!-- u24&#45;&gt;u29 -->
<g id="edge45" class="edge">
<title>u24&#45;&gt;u29</title>
<path fill="none" stroke="black" d="M3881.8,-2183.88C3963.08,-2126.18 4227.05,-1938.78 4318.86,-1873.59"/>
<polygon fill="black" stroke="black" points="4321.07,-1876.32 4327.2,-1867.68 4317.02,-1870.61 4321.07,-1876.32"/>
</g>
<!-- u23&#45;&gt;u25 -->
<g id="edge43" class="edge">
<title>u23&#45;&gt;u25</title>
<path fill="none" stroke="black" d="M3660.69,-1831.59C3660.69,-1774.74 3660.69,-1594.19 3660.69,-1525.18"/>
<polygon fill="black" stroke="black" points="3664.19,-1525.1 3660.69,-1515.1 3657.19,-1525.1 3664.19,-1525.1"/>
</g>
<!-- u30&#45;&gt;u18 -->
<g id="edge51" class="edge">
<title>u30&#45;&gt;u18</title>
<path fill="none" stroke="black" d="M4062.03,-1831.59C4086.1,-1774.5 4162.76,-1592.7 4191.58,-1524.33"/>
<polygon fill="black" stroke="black" points="4194.82,-1525.67 4195.48,-1515.1 4188.37,-1522.95 4194.82,-1525.67"/>
</g>
<!-- u29&#45;&gt;u18 -->
<g id="edge50" class="edge">
<title>u29&#45;&gt;u18</title>
<path fill="none" stroke="black" d="M4343.35,-1831.59C4319.28,-1774.5 4242.62,-1592.7 4213.79,-1524.33"/>
<polygon fill="black" stroke="black" points="4217.01,-1522.95 4209.9,-1515.1 4210.56,-1525.67 4217.01,-1522.95"/>
</g>
<!-- u13&#45;&gt;u27 -->
<g id="edge20" class="edge">
<title>u13&#45;&gt;u27</title>
<path fill="none" stroke="black" d="M1785.27,-1478.88C1847.4,-1421.66 2048,-1236.89 2120.36,-1170.25"/>
<polygon fill="black" stroke="black" points="2123.15,-1172.43 2128.14,-1163.09 2118.41,-1167.29 2123.15,-1172.43"/>
</g>
<!-- u12&#45;&gt;u19 -->
<g id="edge18" class="edge">
<title>u12&#45;&gt;u19</title>
<path fill="none" stroke="black" d="M165.37,-1479.12C245.91,-1421.71 509.3,-1233.96 600.92,-1168.64"/>
<polygon fill="black" stroke="black" points="603.13,-1171.37 609.24,-1162.71 599.07,-1165.67 603.13,-1171.37"/>
</g>
<!-- u12&#45;&gt;u28 -->
<g id="edge19" class="edge">
<title>u12&#45;&gt;u28</title>
<path fill="none" stroke="black" d="M156.41,-1479C262.33,-1356.75 907.33,-612.25 1034.08,-465.94"/>
<polygon fill="black" stroke="black" points="1036.8,-468.14 1040.7,-458.29 1031.51,-463.56 1036.8,-468.14"/>
</g>
<!-- u11&#45;&gt;u19 -->
<g id="edge17" class="edge">
<title>u11&#45;&gt;u19</title>
<path fill="none" stroke="black" d="M375.57,-1831.73C357.44,-1777.67 308.04,-1607.67 354.69,-1479 405.07,-1340.04 541.6,-1218.42 602.57,-1169.23"/>
<polygon fill="black" stroke="black" points="605.03,-1171.75 610.66,-1162.78 600.66,-1166.28 605.03,-1171.75"/>
</g>
<!-- u10&#45;&gt;u19 -->
<g id="edge15" class="edge">
<title>u10&#45;&gt;u19</title>
<path fill="none" stroke="black" d="M543.35,-1478.64C558.58,-1421.95 606.93,-1241.92 625.41,-1173.1"/>
<polygon fill="black" stroke="black" points="628.9,-1173.61 628.11,-1163.05 622.13,-1171.8 628.9,-1173.61"/>
</g>
<!-- u10&#45;&gt;u27 -->
<g id="edge16" class="edge">
<title>u10&#45;&gt;u27</title>
<path fill="none" stroke="black" d="M608.82,-1480.74C870.49,-1423.78 1789.07,-1223.84 2066.65,-1163.42"/>
<polygon fill="black" stroke="black" points="2067.62,-1166.79 2076.64,-1161.25 2066.13,-1159.95 2067.62,-1166.79"/>
</g>
<!-- u9&#45;&gt;u27 -->
<g id="edge14" class="edge">
<title>u9&#45;&gt;u27</title>
<path fill="none" stroke="black" d="M2509.31,-1479.12C2447.21,-1422.07 2245.02,-1236.33 2172.7,-1169.9"/>
<polygon fill="black" stroke="black" points="2175.06,-1167.31 2165.33,-1163.12 2170.32,-1172.46 2175.06,-1167.31"/>
</g>
<!-- u8&#45;&gt;u19 -->
<g id="edge12" class="edge">
<title>u8&#45;&gt;u19</title>
<path fill="none" stroke="black" d="M1327.02,-1479.35C1206.68,-1421.58 807.18,-1229.78 675.33,-1166.47"/>
<polygon fill="black" stroke="black" points="676.83,-1163.31 666.3,-1162.14 673.8,-1169.62 676.83,-1163.31"/>
</g>
<!-- u8&#45;&gt;u22 -->
<g id="edge13" class="edge">
<title>u8&#45;&gt;u22</title>
<path fill="none" stroke="black" d="M1361.69,-1478.97C1361.69,-1333.4 1361.69,-299.32 1361.69,-116.57"/>
<polygon fill="black" stroke="black" points="1365.19,-116.45 1361.69,-106.45 1358.19,-116.45 1365.19,-116.45"/>
</g>
<!-- u6&#45;&gt;u19 -->
<g id="edge10" class="edge">
<title>u6&#45;&gt;u19</title>
<path fill="none" stroke="black" d="M3082.37,-1483.02C2680.49,-1427.73 1113.75,-1212.18 721.9,-1158.27"/>
<polygon fill="black" stroke="black" points="722.14,-1154.77 711.76,-1156.88 721.19,-1161.71 722.14,-1154.77"/>
</g>
<!-- u6&#45;&gt;u22 -->
<g id="edge11" class="edge">
<title>u6&#45;&gt;u22</title>
<path fill="none" stroke="black" d="M3157.68,-1478.88C3067.09,-1397.54 2669.33,-1042.83 2324.69,-775 1971.32,-500.39 1521.39,-195.97 1395.66,-111.69"/>
<polygon fill="black" stroke="black" points="1397.43,-108.66 1387.17,-106 1393.53,-114.48 1397.43,-108.66"/>
</g>
<!-- u5&#45;&gt;u19 -->
<g id="edge9" class="edge">
<title>u5&#45;&gt;u19</title>
<path fill="none" stroke="black" d="M706.29,-1832.32C629.95,-1790.92 439.86,-1675.13 368.69,-1515 303.64,-1368.66 508.41,-1222.03 595.47,-1167.87"/>
<polygon fill="black" stroke="black" points="597.56,-1170.69 604.25,-1162.47 593.9,-1164.72 597.56,-1170.69"/>
</g>
<!-- u4&#45;&gt;u19 -->
<g id="edge7" class="edge">
<title>u4&#45;&gt;u19</title>
<path fill="none" stroke="black" d="M947.27,-1478.64C893,-1421.25 719.18,-1237.45 655.96,-1170.6"/>
<polygon fill="black" stroke="black" points="658.22,-1167.91 648.81,-1163.05 653.14,-1172.72 658.22,-1167.91"/>
</g>
<!-- u4&#45;&gt;u28 -->
<g id="edge8" class="edge">
<title>u4&#45;&gt;u28</title>
<path fill="none" stroke="black" d="M965.21,-1478.57C975.92,-1355.73 1040.01,-620.75 1053.28,-468.57"/>
<polygon fill="black" stroke="black" points="1056.8,-468.52 1054.18,-458.26 1049.83,-467.92 1056.8,-468.52"/>
</g>
<!-- u2&#45;&gt;u27 -->
<g id="edge6" class="edge">
<title>u2&#45;&gt;u27</title>
<path fill="none" stroke="black" d="M2816.25,-1479.35C2700.72,-1421.83 2318.38,-1231.48 2189.52,-1167.32"/>
<polygon fill="black" stroke="black" points="2190.84,-1164.07 2180.33,-1162.75 2187.72,-1170.34 2190.84,-1164.07"/>
</g>
</g>
</svg>
