<?xml version="1.0" encoding="UTF-8" standalone="no"?>
<!DOCTYPE svg PUBLIC "-//W3C//DTD SVG 1.1//EN"
 "http://www.w3.org/Graphics/SVG/1.1/DTD/svg11.dtd">
<!-- Generated by graphviz version 2.43.0 (0)
 -->
<!-- Title: G Pages: 1 -->
<svg width="432pt" height="287pt"
 viewBox="0.00 0.00 432.00 286.93" xmlns="http://www.w3.org/2000/svg" xmlns:xlink="http://www.w3.org/1999/xlink">
<g id="graph0" class="graph" transform="scale(0.06 0.06) rotate(0) translate(4 4432.67)">
<title>G</title>
<polygon fill="white" stroke="transparent" points="-4,4 -4,-4432.67 6675.79,-4432.67 6675.79,4 -4,4"/>
<!-- u7 -->
<g id="node1" class="node">
<title>u7</title>
<ellipse fill="#bbffbb" stroke="black" cx="541.79" cy="-4072" rx="52.79" ry="18"/>
<text text-anchor="middle" x="541.79" y="-4068.3" font-family="Times,serif" font-size="14.00">FileTests</text>
</g>
<!-- u6 -->
<g id="node2" class="node">
<title>u6</title>
<ellipse fill="#bbffbb" stroke="black" cx="688.79" cy="-4072" rx="76.09" ry="18"/>
<text text-anchor="middle" x="688.79" y="-4068.3" font-family="Times,serif" font-size="14.00">NameGenTest</text>
</g>
<!-- u5 -->
<g id="node3" class="node">
<title>u5</title>
<ellipse fill="#bbffbb" stroke="black" cx="199.79" cy="-3786" rx="42.49" ry="18"/>
<text text-anchor="middle" x="199.79" y="-3782.3" font-family="Times,serif" font-size="14.00">Helper</text>
</g>
<!-- u3 -->
<g id="node4" class="node">
<title>u3</title>
<ellipse fill="#bbffbb" stroke="black" cx="59.79" cy="-4072" rx="59.59" ry="18"/>
<text text-anchor="middle" x="59.79" y="-4068.3" font-family="Times,serif" font-size="14.00">VectorTest</text>
</g>
<!-- u2 -->
<g id="node5" class="node">
<title>u2</title>
<ellipse fill="#bbffbb" stroke="black" cx="199.79" cy="-4072" rx="62.29" ry="18"/>
<text text-anchor="middle" x="199.79" y="-4068.3" font-family="Times,serif" font-size="14.00">HelloWorld</text>
</g>
<!-- u2&#45;&gt;u5 -->
<g id="edge2" class="edge">
<title>u2&#45;&gt;u5</title>
<path fill="none" stroke="black" d="M199.79,-4053.66C199.79,-4005.92 199.79,-3872.23 199.79,-3814.32"/>
<polygon fill="black" stroke="black" points="203.29,-3814.11 199.79,-3804.11 196.29,-3814.11 203.29,-3814.11"/>
</g>
<!-- u8 -->
<g id="node6" class="node">
<title>u8</title>
<ellipse fill="#ffffbb" stroke="black" cx="2336.79" cy="-4357" rx="214.46" ry="18"/>
<text text-anchor="middle" x="2336.79" y="-4353.3" font-family="Times,serif" font-size="14.00">Data.Drasil.ExternalLibraries.ODELibraries</text>
</g>
<!-- u60 -->
<g id="node9" class="node">
<title>u60</title>
<ellipse fill="#ffbbbb" stroke="black" cx="2336.79" cy="-4072" rx="113.18" ry="18"/>
<text text-anchor="middle" x="2336.79" y="-4068.3" font-family="Times,serif" font-size="14.00">Language.Drasil.Code</text>
</g>
<!-- u8&#45;&gt;u60 -->
<g id="edge9" class="edge">
<title>u8&#45;&gt;u60</title>
<path fill="none" stroke="black" d="M2336.79,-4338.72C2336.79,-4291.15 2336.79,-4157.93 2336.79,-4100.22"/>
<polygon fill="black" stroke="black" points="2340.29,-4100.05 2336.79,-4090.05 2333.29,-4100.05 2340.29,-4100.05"/>
</g>
<!-- u1 -->
<g id="node7" class="node">
<title>u1</title>
<ellipse fill="#bbbbff" stroke="black" cx="375.79" cy="-4072" rx="95.58" ry="18"/>
<text text-anchor="middle" x="375.79" y="-4068.3" font-family="Times,serif" font-size="14.00">GOOL.PatternTest</text>
</g>
<!-- u0 -->
<g id="node8" class="node">
<title>u0</title>
<ellipse fill="#bbbbff" stroke="black" cx="359.79" cy="-3786" rx="84.49" ry="18"/>
<text text-anchor="middle" x="359.79" y="-3782.3" font-family="Times,serif" font-size="14.00">GOOL.Observer</text>
</g>
<!-- u1&#45;&gt;u0 -->
<g id="edge1" class="edge">
<title>u1&#45;&gt;u0</title>
<path fill="none" stroke="black" d="M374.82,-4053.66C372.13,-4005.92 364.6,-3872.23 361.33,-3814.32"/>
<polygon fill="black" stroke="black" points="364.82,-3813.9 360.76,-3804.11 357.83,-3814.29 364.82,-3813.9"/>
</g>
<!-- u50 -->
<g id="node30" class="node">
<title>u50</title>
<ellipse fill="#77ff77" stroke="black" cx="1665.79" cy="-2357" rx="217.96" ry="18"/>
<text text-anchor="middle" x="1665.79" y="-2353.3" font-family="Times,serif" font-size="14.00">Language.Drasil.Code.Imperative.ReadInput</text>
</g>
<!-- u60&#45;&gt;u50 -->
<g id="edge97" class="edge">
<title>u60&#45;&gt;u50</title>
<path fill="none" stroke="black" d="M2239.48,-4062.72C1856.2,-4027.49 471.79,-3874.38 471.79,-3501 471.79,-3501 471.79,-3501 471.79,-2928 471.79,-2495.12 1118.84,-2390.68 1460.29,-2365.7"/>
<polygon fill="black" stroke="black" points="1460.58,-2369.19 1470.3,-2364.98 1460.08,-2362.2 1460.58,-2369.19"/>
</g>
<!-- u43 -->
<g id="node37" class="node">
<title>u43</title>
<ellipse fill="#77ff77" stroke="black" cx="5385.79" cy="-3786" rx="217.16" ry="18"/>
<text text-anchor="middle" x="5385.79" y="-3782.3" font-family="Times,serif" font-size="14.00">Language.Drasil.Code.Imperative.Generator</text>
</g>
<!-- u60&#45;&gt;u43 -->
<g id="edge96" class="edge">
<title>u60&#45;&gt;u43</title>
<path fill="none" stroke="black" d="M2431.81,-4062.15C2870.42,-4021.3 4700.83,-3850.8 5237.37,-3800.82"/>
<polygon fill="black" stroke="black" points="5237.86,-3804.29 5247.5,-3799.88 5237.21,-3797.32 5237.86,-3804.29"/>
</g>
<!-- u36 -->
<g id="node50" class="node">
<title>u36</title>
<ellipse fill="#77ffff" stroke="black" cx="4534.79" cy="-3500" rx="369.33" ry="18"/>
<text text-anchor="middle" x="4534.79" y="-3496.3" font-family="Times,serif" font-size="14.00">Language.Drasil.Code.Imperative.GOOL.LanguageRenderer.CSharpRenderer</text>
</g>
<!-- u60&#45;&gt;u36 -->
<g id="edge95" class="edge">
<title>u60&#45;&gt;u36</title>
<path fill="none" stroke="black" d="M2393.34,-4056.34C2695.34,-3978.02 4117.27,-3609.28 4460.23,-3520.34"/>
<polygon fill="black" stroke="black" points="4461.25,-3523.69 4470.06,-3517.79 4459.5,-3516.91 4461.25,-3523.69"/>
</g>
<!-- u35 -->
<g id="node51" class="node">
<title>u35</title>
<ellipse fill="#77ffff" stroke="black" cx="866.79" cy="-3500" rx="367.43" ry="18"/>
<text text-anchor="middle" x="866.79" y="-3496.3" font-family="Times,serif" font-size="14.00">Language.Drasil.Code.Imperative.GOOL.LanguageRenderer.PythonRenderer</text>
</g>
<!-- u60&#45;&gt;u35 -->
<g id="edge94" class="edge">
<title>u60&#45;&gt;u35</title>
<path fill="none" stroke="black" d="M2295.94,-4055.16C2088.75,-3974.82 1154.71,-3612.64 920.29,-3521.74"/>
<polygon fill="black" stroke="black" points="921.21,-3518.35 910.63,-3518 918.68,-3524.87 921.21,-3518.35"/>
</g>
<!-- u34 -->
<g id="node52" class="node">
<title>u34</title>
<ellipse fill="#77ffff" stroke="black" cx="1605.79" cy="-3500" rx="354.44" ry="18"/>
<text text-anchor="middle" x="1605.79" y="-3496.3" font-family="Times,serif" font-size="14.00">Language.Drasil.Code.Imperative.GOOL.LanguageRenderer.JavaRenderer</text>
</g>
<!-- u60&#45;&gt;u34 -->
<g id="edge93" class="edge">
<title>u60&#45;&gt;u34</title>
<path fill="none" stroke="black" d="M2315.31,-4054.25C2210.99,-3972.9 1757.25,-3619.1 1635.79,-3524.39"/>
<polygon fill="black" stroke="black" points="1637.67,-3521.42 1627.63,-3518.03 1633.37,-3526.94 1637.67,-3521.42"/>
</g>
<!-- u33 -->
<g id="node53" class="node">
<title>u33</title>
<ellipse fill="#77ffff" stroke="black" cx="2336.79" cy="-3500" rx="358.54" ry="18"/>
<text text-anchor="middle" x="2336.79" y="-3496.3" font-family="Times,serif" font-size="14.00">Language.Drasil.Code.Imperative.GOOL.LanguageRenderer.SwiftRenderer</text>
</g>
<!-- u60&#45;&gt;u33 -->
<g id="edge92" class="edge">
<title>u60&#45;&gt;u33</title>
<path fill="none" stroke="black" d="M2336.79,-4053.94C2336.79,-3973.15 2336.79,-3628.76 2336.79,-3528.49"/>
<polygon fill="black" stroke="black" points="2340.29,-3528.27 2336.79,-3518.27 2333.29,-3528.27 2340.29,-3528.27"/>
</g>
<!-- u32 -->
<g id="node54" class="node">
<title>u32</title>
<ellipse fill="#77ffff" stroke="black" cx="3068.79" cy="-3500" rx="354.74" ry="18"/>
<text text-anchor="middle" x="3068.79" y="-3496.3" font-family="Times,serif" font-size="14.00">Language.Drasil.Code.Imperative.GOOL.LanguageRenderer.JuliaRenderer</text>
</g>
<!-- u60&#45;&gt;u32 -->
<g id="edge91" class="edge">
<title>u60&#45;&gt;u32</title>
<path fill="none" stroke="black" d="M2358.31,-4054.25C2462.78,-3972.9 2917.13,-3619.1 3038.75,-3524.39"/>
<polygon fill="black" stroke="black" points="3041.19,-3526.93 3046.93,-3518.03 3036.89,-3521.41 3041.19,-3526.93"/>
</g>
<!-- u30 -->
<g id="node56" class="node">
<title>u30</title>
<ellipse fill="#77ffff" stroke="black" cx="3794.79" cy="-3500" rx="352.84" ry="18"/>
<text text-anchor="middle" x="3794.79" y="-3496.3" font-family="Times,serif" font-size="14.00">Language.Drasil.Code.Imperative.GOOL.LanguageRenderer.CppRenderer</text>
</g>
<!-- u60&#45;&gt;u30 -->
<g id="edge90" class="edge">
<title>u60&#45;&gt;u30</title>
<path fill="none" stroke="black" d="M2377.31,-4055.16C2582.82,-3974.82 3509.23,-3612.64 3741.74,-3521.74"/>
<polygon fill="black" stroke="black" points="3743.28,-3524.9 3751.32,-3518 3740.73,-3518.38 3743.28,-3524.9"/>
</g>
<!-- u59 -->
<g id="node10" class="node">
<title>u59</title>
<ellipse fill="#ffbbbb" stroke="black" cx="5119.79" cy="-2071" rx="135.68" ry="18"/>
<text text-anchor="middle" x="5119.79" y="-2067.3" font-family="Times,serif" font-size="14.00">Language.Drasil.CodeSpec</text>
</g>
<!-- u17 -->
<g id="node12" class="node">
<title>u17</title>
<ellipse fill="#ffbbbb" stroke="black" cx="4541.79" cy="-1786" rx="126.18" ry="18"/>
<text text-anchor="middle" x="4541.79" y="-1782.3" font-family="Times,serif" font-size="14.00">Language.Drasil.Choices</text>
</g>
<!-- u59&#45;&gt;u17 -->
<g id="edge89" class="edge">
<title>u59&#45;&gt;u17</title>
<path fill="none" stroke="black" d="M5085.8,-2053.35C4986.1,-2004.54 4694.61,-1861.82 4584.54,-1807.93"/>
<polygon fill="black" stroke="black" points="4585.91,-1804.7 4575.39,-1803.45 4582.83,-1810.99 4585.91,-1804.7"/>
</g>
<!-- u14 -->
<g id="node15" class="node">
<title>u14</title>
<ellipse fill="#bbffff" stroke="black" cx="5539.79" cy="-1786" rx="191.17" ry="18"/>
<text text-anchor="middle" x="5539.79" y="-1782.3" font-family="Times,serif" font-size="14.00">Language.Drasil.Chunk.CodeDefinition</text>
</g>
<!-- u59&#45;&gt;u14 -->
<g id="edge88" class="edge">
<title>u59&#45;&gt;u14</title>
<path fill="none" stroke="black" d="M5144.81,-2053.14C5216.8,-2004.64 5424.54,-1864.66 5506.23,-1809.62"/>
<polygon fill="black" stroke="black" points="5508.31,-1812.44 5514.65,-1803.95 5504.4,-1806.63 5508.31,-1812.44"/>
</g>
<!-- u12 -->
<g id="node17" class="node">
<title>u12</title>
<ellipse fill="#bbffff" stroke="black" cx="5100.79" cy="-1786" rx="192.27" ry="18"/>
<text text-anchor="middle" x="5100.79" y="-1782.3" font-family="Times,serif" font-size="14.00">Language.Drasil.Chunk.ConstraintMap</text>
</g>
<!-- u59&#45;&gt;u12 -->
<g id="edge87" class="edge">
<title>u59&#45;&gt;u12</title>
<path fill="none" stroke="black" d="M5118.63,-2052.72C5115.44,-2005.15 5106.5,-1871.93 5102.62,-1814.22"/>
<polygon fill="black" stroke="black" points="5106.1,-1813.79 5101.94,-1804.05 5099.12,-1814.26 5106.1,-1813.79"/>
</g>
<!-- u18 -->
<g id="node11" class="node">
<title>u18</title>
<ellipse fill="#ffbbbb" stroke="black" cx="4479.79" cy="-929" rx="110.48" ry="18"/>
<text text-anchor="middle" x="4479.79" y="-925.3" font-family="Times,serif" font-size="14.00">Language.Drasil.Mod</text>
</g>
<!-- u11 -->
<g id="node18" class="node">
<title>u11</title>
<ellipse fill="#bbffff" stroke="black" cx="4479.79" cy="-643" rx="170.87" ry="18"/>
<text text-anchor="middle" x="4479.79" y="-639.3" font-family="Times,serif" font-size="14.00">Language.Drasil.Chunk.Parameter</text>
</g>
<!-- u18&#45;&gt;u11 -->
<g id="edge20" class="edge">
<title>u18&#45;&gt;u11</title>
<path fill="none" stroke="black" d="M4479.79,-910.66C4479.79,-862.92 4479.79,-729.23 4479.79,-671.32"/>
<polygon fill="black" stroke="black" points="4483.29,-671.11 4479.79,-661.11 4476.29,-671.11 4483.29,-671.11"/>
</g>
<!-- u56 -->
<g id="node21" class="node">
<title>u56</title>
<ellipse fill="#ffbbff" stroke="black" cx="3766.79" cy="-643" rx="160.57" ry="18"/>
<text text-anchor="middle" x="3766.79" y="-639.3" font-family="Times,serif" font-size="14.00">Language.Drasil.Code.DataDesc</text>
</g>
<!-- u18&#45;&gt;u56 -->
<g id="edge21" class="edge">
<title>u18&#45;&gt;u56</title>
<path fill="none" stroke="black" d="M4439.93,-912.12C4318.36,-863.7 3952.37,-717.92 3817.45,-664.18"/>
<polygon fill="black" stroke="black" points="3818.73,-660.92 3808.15,-660.47 3816.14,-667.42 3818.73,-660.92"/>
</g>
<!-- u58 -->
<g id="node19" class="node">
<title>u58</title>
<ellipse fill="#ffbbff" stroke="black" cx="4068.79" cy="-1500" rx="139.98" ry="18"/>
<text text-anchor="middle" x="4068.79" y="-1496.3" font-family="Times,serif" font-size="14.00">Language.Drasil.Code.Code</text>
</g>
<!-- u17&#45;&gt;u58 -->
<g id="edge19" class="edge">
<title>u17&#45;&gt;u58</title>
<path fill="none" stroke="black" d="M4513.97,-1768.29C4432.81,-1719.56 4196.32,-1577.57 4105.19,-1522.85"/>
<polygon fill="black" stroke="black" points="4106.96,-1519.83 4096.58,-1517.68 4103.35,-1525.83 4106.96,-1519.83"/>
</g>
<!-- u10 -->
<g id="node59" class="node">
<title>u10</title>
<ellipse fill="#bbff77" stroke="black" cx="4525.79" cy="-1500" rx="172.77" ry="18"/>
<text text-anchor="middle" x="4525.79" y="-1496.3" font-family="Times,serif" font-size="14.00">Language.Drasil.Data.ODELibPckg</text>
</g>
<!-- u17&#45;&gt;u10 -->
<g id="edge18" class="edge">
<title>u17&#45;&gt;u10</title>
<path fill="none" stroke="black" d="M4540.82,-1767.66C4538.13,-1719.92 4530.6,-1586.23 4527.33,-1528.32"/>
<polygon fill="black" stroke="black" points="4530.82,-1527.9 4526.76,-1518.11 4523.83,-1528.29 4530.82,-1527.9"/>
</g>
<!-- u16 -->
<g id="node13" class="node">
<title>u16</title>
<ellipse fill="#bbffff" stroke="black" cx="4479.79" cy="-357" rx="145.67" ry="18"/>
<text text-anchor="middle" x="4479.79" y="-353.3" font-family="Times,serif" font-size="14.00">Language.Drasil.Chunk.Code</text>
</g>
<!-- u13 -->
<g id="node16" class="node">
<title>u13</title>
<ellipse fill="#bbffff" stroke="black" cx="4479.79" cy="-71" rx="168.17" ry="18"/>
<text text-anchor="middle" x="4479.79" y="-67.3" font-family="Times,serif" font-size="14.00">Language.Drasil.Chunk.CodeBase</text>
</g>
<!-- u16&#45;&gt;u13 -->
<g id="edge17" class="edge">
<title>u16&#45;&gt;u13</title>
<path fill="none" stroke="black" d="M4479.79,-338.66C4479.79,-290.92 4479.79,-157.23 4479.79,-99.32"/>
<polygon fill="black" stroke="black" points="4483.29,-99.11 4479.79,-89.11 4476.29,-99.11 4483.29,-99.11"/>
</g>
<!-- u15 -->
<g id="node14" class="node">
<title>u15</title>
<ellipse fill="#bbffff" stroke="black" cx="4852.79" cy="-929" rx="202.26" ry="18"/>
<text text-anchor="middle" x="4852.79" y="-925.3" font-family="Times,serif" font-size="14.00">Language.Drasil.Chunk.NamedArgument</text>
</g>
<!-- u9 -->
<g id="node60" class="node">
<title>u9</title>
<ellipse fill="#bbff77" stroke="black" cx="5275.79" cy="-1214" rx="154.07" ry="18"/>
<text text-anchor="middle" x="5275.79" y="-1210.3" font-family="Times,serif" font-size="14.00">Language.Drasil.Data.ODEInfo</text>
</g>
<!-- u14&#45;&gt;u9 -->
<g id="edge16" class="edge">
<title>u14&#45;&gt;u9</title>
<path fill="none" stroke="black" d="M5531.89,-1767.94C5494.32,-1686.82 5333.64,-1339.9 5287.96,-1241.26"/>
<polygon fill="black" stroke="black" points="5291.04,-1239.6 5283.66,-1231.99 5284.69,-1242.54 5291.04,-1239.6"/>
</g>
<!-- u11&#45;&gt;u16 -->
<g id="edge15" class="edge">
<title>u11&#45;&gt;u16</title>
<path fill="none" stroke="black" d="M4479.79,-624.66C4479.79,-576.92 4479.79,-443.23 4479.79,-385.32"/>
<polygon fill="black" stroke="black" points="4483.29,-385.11 4479.79,-375.11 4476.29,-385.11 4483.29,-385.11"/>
</g>
<!-- u57 -->
<g id="node20" class="node">
<title>u57</title>
<ellipse fill="#ffbbff" stroke="black" cx="4895.79" cy="-1214" rx="207.96" ry="18"/>
<text text-anchor="middle" x="4895.79" y="-1210.3" font-family="Times,serif" font-size="14.00">Language.Drasil.Code.ExternalLibraryCall</text>
</g>
<!-- u57&#45;&gt;u18 -->
<g id="edge86" class="edge">
<title>u57&#45;&gt;u18</title>
<path fill="none" stroke="black" d="M4870.71,-1195.93C4799.02,-1147.16 4593.23,-1007.17 4512.68,-952.37"/>
<polygon fill="black" stroke="black" points="4514.63,-949.46 4504.39,-946.73 4510.69,-955.25 4514.63,-949.46"/>
</g>
<!-- u57&#45;&gt;u15 -->
<g id="edge85" class="edge">
<title>u57&#45;&gt;u15</title>
<path fill="none" stroke="black" d="M4893.17,-1195.72C4885.94,-1148.15 4865.7,-1014.93 4856.93,-957.22"/>
<polygon fill="black" stroke="black" points="4860.35,-956.41 4855.39,-947.05 4853.43,-957.46 4860.35,-956.41"/>
</g>
<!-- u56&#45;&gt;u16 -->
<g id="edge84" class="edge">
<title>u56&#45;&gt;u16</title>
<path fill="none" stroke="black" d="M3808.21,-625.5C3931.3,-576.48 4294.65,-431.75 4429.06,-378.21"/>
<polygon fill="black" stroke="black" points="4430.71,-381.32 4438.71,-374.36 4428.12,-374.81 4430.71,-381.32"/>
</g>
<!-- u55 -->
<g id="node22" class="node">
<title>u55</title>
<ellipse fill="#ffbbff" stroke="black" cx="5112.79" cy="-3500" rx="191.17" ry="18"/>
<text text-anchor="middle" x="5112.79" y="-3496.3" font-family="Times,serif" font-size="14.00">Language.Drasil.Code.CodeGeneration</text>
</g>
<!-- u55&#45;&gt;u58 -->
<g id="edge83" class="edge">
<title>u55&#45;&gt;u58</title>
<path fill="none" stroke="black" d="M4983.47,-3486.7C4712.04,-3458.21 4096.27,-3378.68 3953.79,-3232 3758.26,-3030.7 3730.67,-2266.92 3782.79,-2053 3836.45,-1832.82 3994.48,-1602.49 4049.58,-1526.77"/>
<polygon fill="black" stroke="black" points="4052.69,-1528.45 4055.78,-1518.31 4047.04,-1524.31 4052.69,-1528.45"/>
</g>
<!-- u38 -->
<g id="node47" class="node">
<title>u38</title>
<ellipse fill="#ff7777" stroke="black" cx="3684.79" cy="-3214" rx="222.06" ry="18"/>
<text text-anchor="middle" x="3684.79" y="-3210.3" font-family="Times,serif" font-size="14.00">Language.Drasil.Code.Imperative.GOOL.Data</text>
</g>
<!-- u55&#45;&gt;u38 -->
<g id="edge82" class="edge">
<title>u55&#45;&gt;u38</title>
<path fill="none" stroke="black" d="M5035.01,-3483.53C4790.05,-3434.81 4035.44,-3284.74 3774.6,-3232.86"/>
<polygon fill="black" stroke="black" points="3774.9,-3229.35 3764.41,-3230.83 3773.54,-3236.22 3774.9,-3229.35"/>
</g>
<!-- u22 -->
<g id="node23" class="node">
<title>u22</title>
<ellipse fill="#ffbbff" stroke="black" cx="4479.79" cy="-1214" rx="190.37" ry="18"/>
<text text-anchor="middle" x="4479.79" y="-1210.3" font-family="Times,serif" font-size="14.00">Language.Drasil.Code.ExternalLibrary</text>
</g>
<!-- u22&#45;&gt;u18 -->
<g id="edge25" class="edge">
<title>u22&#45;&gt;u18</title>
<path fill="none" stroke="black" d="M4479.79,-1195.72C4479.79,-1148.15 4479.79,-1014.93 4479.79,-957.22"/>
<polygon fill="black" stroke="black" points="4483.29,-957.05 4479.79,-947.05 4476.29,-957.05 4483.29,-957.05"/>
</g>
<!-- u22&#45;&gt;u15 -->
<g id="edge24" class="edge">
<title>u22&#45;&gt;u15</title>
<path fill="none" stroke="black" d="M4502.29,-1195.93C4566.16,-1147.47 4748.73,-1008.96 4821.91,-953.44"/>
<polygon fill="black" stroke="black" points="4824.42,-955.92 4830.27,-947.09 4820.19,-950.34 4824.42,-955.92"/>
</g>
<!-- u21 -->
<g id="node24" class="node">
<title>u21</title>
<ellipse fill="#ffbbff" stroke="black" cx="4895.79" cy="-1500" rx="178.97" ry="18"/>
<text text-anchor="middle" x="4895.79" y="-1496.3" font-family="Times,serif" font-size="14.00">Language.Drasil.Code.ExtLibImport</text>
</g>
<!-- u21&#45;&gt;u57 -->
<g id="edge23" class="edge">
<title>u21&#45;&gt;u57</title>
<path fill="none" stroke="black" d="M4895.79,-1481.66C4895.79,-1433.92 4895.79,-1300.23 4895.79,-1242.32"/>
<polygon fill="black" stroke="black" points="4899.29,-1242.11 4895.79,-1232.11 4892.29,-1242.11 4899.29,-1242.11"/>
</g>
<!-- u21&#45;&gt;u22 -->
<g id="edge22" class="edge">
<title>u21&#45;&gt;u22</title>
<path fill="none" stroke="black" d="M4871.02,-1482.09C4799.71,-1433.41 4593.95,-1292.93 4513.04,-1237.7"/>
<polygon fill="black" stroke="black" points="4514.94,-1234.75 4504.7,-1232.01 4510.99,-1240.53 4514.94,-1234.75"/>
</g>
<!-- u20 -->
<g id="node25" class="node">
<title>u20</title>
<ellipse fill="#ffbbff" stroke="black" cx="4131.79" cy="-1214" rx="139.18" ry="18"/>
<text text-anchor="middle" x="4131.79" y="-1210.3" font-family="Times,serif" font-size="14.00">Language.Drasil.Code.Lang</text>
</g>
<!-- u19 -->
<g id="node26" class="node">
<title>u19</title>
<ellipse fill="#ffbbff" stroke="black" cx="6363.79" cy="-2643" rx="204.16" ry="18"/>
<text text-anchor="middle" x="6363.79" y="-2639.3" font-family="Times,serif" font-size="14.00">Language.Drasil.Code.CodeQuantityDicts</text>
</g>
<!-- u54 -->
<g id="node27" class="node">
<title>u54</title>
<ellipse fill="#77ff77" stroke="black" cx="5503.79" cy="-2929" rx="201.46" ry="18"/>
<text text-anchor="middle" x="5503.79" y="-2925.3" font-family="Times,serif" font-size="14.00">Language.Drasil.Code.Imperative.Import</text>
</g>
<!-- u54&#45;&gt;u19 -->
<g id="edge76" class="edge">
<title>u54&#45;&gt;u19</title>
<path fill="none" stroke="black" d="M5553.75,-2911.5C5702.63,-2862.34 6142.95,-2716.93 6303.96,-2663.76"/>
<polygon fill="black" stroke="black" points="6305.3,-2667 6313.7,-2660.54 6303.11,-2660.35 6305.3,-2667"/>
</g>
<!-- u53 -->
<g id="node28" class="node">
<title>u53</title>
<ellipse fill="#77ff77" stroke="black" cx="5503.79" cy="-2643" rx="206.06" ry="18"/>
<text text-anchor="middle" x="5503.79" y="-2639.3" font-family="Times,serif" font-size="14.00">Language.Drasil.Code.Imperative.Helpers</text>
</g>
<!-- u54&#45;&gt;u53 -->
<g id="edge81" class="edge">
<title>u54&#45;&gt;u53</title>
<path fill="none" stroke="black" d="M5503.79,-2910.66C5503.79,-2862.92 5503.79,-2729.23 5503.79,-2671.32"/>
<polygon fill="black" stroke="black" points="5507.29,-2671.11 5503.79,-2661.11 5500.29,-2671.11 5507.29,-2671.11"/>
</g>
<!-- u49 -->
<g id="node31" class="node">
<title>u49</title>
<ellipse fill="#77ff77" stroke="black" cx="4811.79" cy="-2357" rx="237.46" ry="18"/>
<text text-anchor="middle" x="4811.79" y="-2353.3" font-family="Times,serif" font-size="14.00">Language.Drasil.Code.Imperative.ConceptMatch</text>
</g>
<!-- u54&#45;&gt;u49 -->
<g id="edge80" class="edge">
<title>u54&#45;&gt;u49</title>
<path fill="none" stroke="black" d="M5365.63,-2915.87C5207.78,-2893.94 4955.3,-2832.54 4830.79,-2661 4769.71,-2576.85 4791.49,-2442.45 4804.7,-2385.23"/>
<polygon fill="black" stroke="black" points="4808.18,-2385.7 4807.12,-2375.16 4801.38,-2384.06 4808.18,-2385.7"/>
</g>
<!-- u42 -->
<g id="node38" class="node">
<title>u42</title>
<ellipse fill="#77ff77" stroke="black" cx="5934.79" cy="-2643" rx="207.16" ry="18"/>
<text text-anchor="middle" x="5934.79" y="-2639.3" font-family="Times,serif" font-size="14.00">Language.Drasil.Code.Imperative.Logging</text>
</g>
<!-- u54&#45;&gt;u42 -->
<g id="edge79" class="edge">
<title>u54&#45;&gt;u42</title>
<path fill="none" stroke="black" d="M5529.46,-2911.09C5603.41,-2862.36 5816.95,-2721.65 5900.61,-2666.53"/>
<polygon fill="black" stroke="black" points="5902.56,-2669.43 5908.99,-2661.01 5898.71,-2663.59 5902.56,-2669.43"/>
</g>
<!-- u40 -->
<g id="node39" class="node">
<title>u40</title>
<ellipse fill="#77ff77" stroke="black" cx="5059.79" cy="-2643" rx="219.86" ry="18"/>
<text text-anchor="middle" x="5059.79" y="-2639.3" font-family="Times,serif" font-size="14.00">Language.Drasil.Code.Imperative.Comments</text>
</g>
<!-- u54&#45;&gt;u40 -->
<g id="edge78" class="edge">
<title>u54&#45;&gt;u40</title>
<path fill="none" stroke="black" d="M5477.35,-2911.09C5401.17,-2862.36 5181.19,-2721.65 5095.01,-2666.53"/>
<polygon fill="black" stroke="black" points="5096.69,-2663.45 5086.38,-2661.01 5092.92,-2669.34 5096.69,-2663.45"/>
</g>
<!-- u39 -->
<g id="node40" class="node">
<title>u39</title>
<ellipse fill="#77ff77" stroke="black" cx="4543.79" cy="-2643" rx="240.46" ry="18"/>
<text text-anchor="middle" x="4543.79" y="-2639.3" font-family="Times,serif" font-size="14.00">Language.Drasil.Code.Imperative.GenerateGOOL</text>
</g>
<!-- u54&#45;&gt;u39 -->
<g id="edge77" class="edge">
<title>u54&#45;&gt;u39</title>
<path fill="none" stroke="black" d="M5448.38,-2911.61C5282.22,-2862.45 4788.61,-2716.42 4609.58,-2663.46"/>
<polygon fill="black" stroke="black" points="4610.35,-2660.04 4599.77,-2660.56 4608.37,-2666.75 4610.35,-2660.04"/>
</g>
<!-- u47 -->
<g id="node33" class="node">
<title>u47</title>
<ellipse fill="#77ff77" stroke="black" cx="5289.79" cy="-2357" rx="222.06" ry="18"/>
<text text-anchor="middle" x="5289.79" y="-2353.3" font-family="Times,serif" font-size="14.00">Language.Drasil.Code.Imperative.DrasilState</text>
</g>
<!-- u53&#45;&gt;u47 -->
<g id="edge75" class="edge">
<title>u53&#45;&gt;u47</title>
<path fill="none" stroke="black" d="M5490.73,-2624.66C5454.3,-2576.32 5351.49,-2439.88 5308.78,-2383.19"/>
<polygon fill="black" stroke="black" points="5311.5,-2380.99 5302.69,-2375.11 5305.91,-2385.2 5311.5,-2380.99"/>
</g>
<!-- u51 -->
<g id="node29" class="node">
<title>u51</title>
<ellipse fill="#77ff77" stroke="black" cx="3402.79" cy="-1500" rx="219.86" ry="18"/>
<text text-anchor="middle" x="3402.79" y="-1496.3" font-family="Times,serif" font-size="14.00">Language.Drasil.Code.Imperative.WriteInput</text>
</g>
<!-- u51&#45;&gt;u56 -->
<g id="edge73" class="edge">
<title>u51&#45;&gt;u56</title>
<path fill="none" stroke="black" d="M3410.07,-1481.92C3455.48,-1375.26 3699.99,-800.93 3755.55,-670.4"/>
<polygon fill="black" stroke="black" points="3758.81,-671.69 3759.51,-661.12 3752.37,-668.95 3758.81,-671.69"/>
</g>
<!-- u50&#45;&gt;u56 -->
<g id="edge72" class="edge">
<title>u50&#45;&gt;u56</title>
<path fill="none" stroke="black" d="M1720.38,-2339.57C1880.84,-2287.56 2339.79,-2110.5 2339.79,-1787 2339.79,-1787 2339.79,-1787 2339.79,-1213 2339.79,-924.91 3355.97,-717.85 3673.29,-660.21"/>
<polygon fill="black" stroke="black" points="3674.16,-663.61 3683.38,-658.39 3672.92,-656.72 3674.16,-663.61"/>
</g>
<!-- u49&#45;&gt;u17 -->
<g id="edge71" class="edge">
<title>u49&#45;&gt;u17</title>
<path fill="none" stroke="black" d="M4814.59,-2338.99C4821.64,-2291.4 4836.55,-2153.81 4792.79,-2053 4745.06,-1943.03 4631.21,-1850.58 4574.73,-1809.63"/>
<polygon fill="black" stroke="black" points="4576.67,-1806.71 4566.5,-1803.73 4572.59,-1812.4 4576.67,-1806.71"/>
</g>
<!-- u48 -->
<g id="node32" class="node">
<title>u48</title>
<ellipse fill="#77ff77" stroke="black" cx="6363.79" cy="-2929" rx="223.66" ry="18"/>
<text text-anchor="middle" x="6363.79" y="-2925.3" font-family="Times,serif" font-size="14.00">Language.Drasil.Code.Imperative.Parameters</text>
</g>
<!-- u48&#45;&gt;u19 -->
<g id="edge69" class="edge">
<title>u48&#45;&gt;u19</title>
<path fill="none" stroke="black" d="M6363.79,-2910.66C6363.79,-2862.92 6363.79,-2729.23 6363.79,-2671.32"/>
<polygon fill="black" stroke="black" points="6367.29,-2671.11 6363.79,-2661.11 6360.29,-2671.11 6367.29,-2671.11"/>
</g>
<!-- u48&#45;&gt;u47 -->
<g id="edge70" class="edge">
<title>u48&#45;&gt;u47</title>
<path fill="none" stroke="black" d="M6392.36,-2910.98C6467.84,-2863.93 6661.22,-2728.73 6576.79,-2625 6440.22,-2457.19 5799.82,-2391.48 5476.93,-2368.7"/>
<polygon fill="black" stroke="black" points="5476.74,-2365.17 5466.52,-2367.97 5476.25,-2372.16 5476.74,-2365.17"/>
</g>
<!-- u47&#45;&gt;u59 -->
<g id="edge68" class="edge">
<title>u47&#45;&gt;u59</title>
<path fill="none" stroke="black" d="M5279.42,-2338.66C5250.6,-2290.52 5169.48,-2155 5135.29,-2097.89"/>
<polygon fill="black" stroke="black" points="5138.18,-2095.89 5130.04,-2089.11 5132.17,-2099.49 5138.18,-2095.89"/>
</g>
<!-- u47&#45;&gt;u21 -->
<g id="edge67" class="edge">
<title>u47&#45;&gt;u21</title>
<path fill="none" stroke="black" d="M5259.31,-2339.03C5196.05,-2302.18 5050.11,-2208.47 4974.79,-2089 4857.2,-1902.48 4881.03,-1616.74 4891.99,-1528.14"/>
<polygon fill="black" stroke="black" points="4895.48,-1528.47 4893.29,-1518.11 4888.54,-1527.58 4895.48,-1528.47"/>
</g>
<!-- u46 -->
<g id="node34" class="node">
<title>u46</title>
<ellipse fill="#77ff77" stroke="black" cx="5936.79" cy="-3214" rx="233.16" ry="18"/>
<text text-anchor="middle" x="5936.79" y="-3210.3" font-family="Times,serif" font-size="14.00">Language.Drasil.Code.Imperative.FunctionCalls</text>
</g>
<!-- u46&#45;&gt;u54 -->
<g id="edge66" class="edge">
<title>u46&#45;&gt;u54</title>
<path fill="none" stroke="black" d="M5910.68,-3195.93C5836.07,-3147.17 5621.94,-3007.22 5538.07,-2952.4"/>
<polygon fill="black" stroke="black" points="5539.95,-2949.45 5529.67,-2946.91 5536.12,-2955.31 5539.95,-2949.45"/>
</g>
<!-- u46&#45;&gt;u48 -->
<g id="edge65" class="edge">
<title>u46&#45;&gt;u48</title>
<path fill="none" stroke="black" d="M5962.54,-3195.93C6036.05,-3147.22 6246.86,-3007.5 6329.74,-2952.57"/>
<polygon fill="black" stroke="black" points="6331.88,-2955.35 6338.28,-2946.91 6328.01,-2949.52 6331.88,-2955.35"/>
</g>
<!-- u45 -->
<g id="node35" class="node">
<title>u45</title>
<ellipse fill="#77ff77" stroke="black" cx="3389.79" cy="-2357" rx="233.16" ry="18"/>
<text text-anchor="middle" x="3389.79" y="-2353.3" font-family="Times,serif" font-size="14.00">Language.Drasil.Code.Imperative.WriteReadMe</text>
</g>
<!-- u41 -->
<g id="node58" class="node">
<title>u41</title>
<ellipse fill="#33ff33" stroke="black" cx="4541.79" cy="-2071" rx="242.36" ry="18"/>
<text text-anchor="middle" x="4541.79" y="-2067.3" font-family="Times,serif" font-size="14.00">Language.Drasil.Code.Imperative.ReadMe.Import</text>
</g>
<!-- u45&#45;&gt;u41 -->
<g id="edge64" class="edge">
<title>u45&#45;&gt;u41</title>
<path fill="none" stroke="black" d="M3455.87,-2339.71C3655.65,-2290.46 4252.66,-2143.28 4465.43,-2090.83"/>
<polygon fill="black" stroke="black" points="4466.4,-2094.19 4475.27,-2088.4 4464.72,-2087.4 4466.4,-2094.19"/>
</g>
<!-- u44 -->
<g id="node36" class="node">
<title>u44</title>
<ellipse fill="#77ff77" stroke="black" cx="5520.79" cy="-2071" rx="209.86" ry="18"/>
<text text-anchor="middle" x="5520.79" y="-2067.3" font-family="Times,serif" font-size="14.00">Language.Drasil.Code.Imperative.GenODE</text>
</g>
<!-- u44&#45;&gt;u17 -->
<g id="edge62" class="edge">
<title>u44&#45;&gt;u17</title>
<path fill="none" stroke="black" d="M5463.93,-2053.56C5292.81,-2004.1 4783.46,-1856.86 4604.68,-1805.18"/>
<polygon fill="black" stroke="black" points="4605.47,-1801.76 4594.9,-1802.35 4603.53,-1808.49 4605.47,-1801.76"/>
</g>
<!-- u44&#45;&gt;u14 -->
<g id="edge61" class="edge">
<title>u44&#45;&gt;u14</title>
<path fill="none" stroke="black" d="M5521.95,-2052.72C5525.15,-2005.15 5534.09,-1871.93 5537.97,-1814.22"/>
<polygon fill="black" stroke="black" points="5541.47,-1814.26 5538.65,-1804.05 5534.49,-1813.79 5541.47,-1814.26"/>
</g>
<!-- u44&#45;&gt;u21 -->
<g id="edge63" class="edge">
<title>u44&#45;&gt;u21</title>
<path fill="none" stroke="black" d="M5511.45,-2053C5484.1,-2004.3 5399.9,-1861.73 5301.79,-1768 5185.29,-1656.7 5016.65,-1562.86 4938.51,-1522.38"/>
<polygon fill="black" stroke="black" points="4939.93,-1519.18 4929.44,-1517.71 4936.73,-1525.4 4939.93,-1519.18"/>
</g>
<!-- u43&#45;&gt;u55 -->
<g id="edge60" class="edge">
<title>u43&#45;&gt;u55</title>
<path fill="none" stroke="black" d="M5369.13,-3767.66C5322.47,-3719.12 5190.43,-3581.76 5136.34,-3525.49"/>
<polygon fill="black" stroke="black" points="5138.7,-3522.89 5129.24,-3518.11 5133.65,-3527.75 5138.7,-3522.89"/>
</g>
<!-- u43&#45;&gt;u44 -->
<g id="edge59" class="edge">
<title>u43&#45;&gt;u44</title>
<path fill="none" stroke="black" d="M5460.49,-3769.07C5734.96,-3708.4 6671.79,-3481.8 6671.79,-3215 6671.79,-3215 6671.79,-3215 6671.79,-2642 6671.79,-2217.29 6034.67,-2109.03 5708.47,-2081.44"/>
<polygon fill="black" stroke="black" points="5708.69,-2077.95 5698.43,-2080.61 5708.11,-2084.92 5708.69,-2077.95"/>
</g>
<!-- u25 -->
<g id="node41" class="node">
<title>u25</title>
<ellipse fill="#77ff77" stroke="black" cx="5936.79" cy="-3500" rx="209.06" ry="18"/>
<text text-anchor="middle" x="5936.79" y="-3496.3" font-family="Times,serif" font-size="14.00">Language.Drasil.Code.Imperative.Modules</text>
</g>
<!-- u43&#45;&gt;u25 -->
<g id="edge57" class="edge">
<title>u43&#45;&gt;u25</title>
<path fill="none" stroke="black" d="M5418.61,-3768.09C5513.74,-3719.05 5789.56,-3576.89 5895.07,-3522.51"/>
<polygon fill="black" stroke="black" points="5896.86,-3525.52 5904.15,-3517.83 5893.66,-3519.3 5896.86,-3525.52"/>
</g>
<!-- u24 -->
<g id="node42" class="node">
<title>u24</title>
<ellipse fill="#77ff77" stroke="black" cx="5458.79" cy="-3214" rx="226.66" ry="18"/>
<text text-anchor="middle" x="5458.79" y="-3210.3" font-family="Times,serif" font-size="14.00">Language.Drasil.Code.Imperative.SpaceMatch</text>
</g>
<!-- u43&#45;&gt;u24 -->
<g id="edge56" class="edge">
<title>u43&#45;&gt;u24</title>
<path fill="none" stroke="black" d="M5387.98,-3767.94C5398.33,-3687.15 5442.43,-3342.76 5455.27,-3242.49"/>
<polygon fill="black" stroke="black" points="5458.78,-3242.63 5456.58,-3232.27 5451.84,-3241.75 5458.78,-3242.63"/>
</g>
<!-- u29 -->
<g id="node49" class="node">
<title>u29</title>
<ellipse fill="#ff7777" stroke="black" cx="4194.79" cy="-2929" rx="289.45" ry="18"/>
<text text-anchor="middle" x="4194.79" y="-2925.3" font-family="Times,serif" font-size="14.00">Language.Drasil.Code.Imperative.GOOL.LanguageRenderer</text>
</g>
<!-- u43&#45;&gt;u29 -->
<g id="edge58" class="edge">
<title>u43&#45;&gt;u29</title>
<path fill="none" stroke="black" d="M5386.44,-3767.76C5387.41,-3717.79 5383.74,-3570.76 5312.79,-3482 5041.06,-3142.03 4506.54,-2995.58 4289.63,-2948.38"/>
<polygon fill="black" stroke="black" points="4290.05,-2944.9 4279.54,-2946.21 4288.58,-2951.74 4290.05,-2944.9"/>
</g>
<!-- u42&#45;&gt;u47 -->
<g id="edge55" class="edge">
<title>u42&#45;&gt;u47</title>
<path fill="none" stroke="black" d="M5896.86,-2625.29C5785.53,-2576.28 5459.9,-2432.9 5337.26,-2378.9"/>
<polygon fill="black" stroke="black" points="5338.65,-2375.69 5328.09,-2374.86 5335.83,-2382.1 5338.65,-2375.69"/>
</g>
<!-- u40&#45;&gt;u47 -->
<g id="edge53" class="edge">
<title>u40&#45;&gt;u47</title>
<path fill="none" stroke="black" d="M5073.84,-2624.66C5112.98,-2576.32 5223.48,-2439.88 5269.4,-2383.19"/>
<polygon fill="black" stroke="black" points="5272.36,-2385.08 5275.94,-2375.11 5266.92,-2380.68 5272.36,-2385.08"/>
</g>
<!-- u39&#45;&gt;u47 -->
<g id="edge52" class="edge">
<title>u39&#45;&gt;u47</title>
<path fill="none" stroke="black" d="M4587.68,-2625.29C4716.84,-2576.12 5095.46,-2431.98 5236.25,-2378.38"/>
<polygon fill="black" stroke="black" points="5237.87,-2381.51 5245.97,-2374.68 5235.38,-2374.97 5237.87,-2381.51"/>
</g>
<!-- u37 -->
<g id="node48" class="node">
<title>u37</title>
<ellipse fill="#ff7777" stroke="black" cx="4289.79" cy="-2357" rx="267.25" ry="18"/>
<text text-anchor="middle" x="4289.79" y="-2353.3" font-family="Times,serif" font-size="14.00">Language.Drasil.Code.Imperative.GOOL.ClassInterface</text>
</g>
<!-- u39&#45;&gt;u37 -->
<g id="edge51" class="edge">
<title>u39&#45;&gt;u37</title>
<path fill="none" stroke="black" d="M4528.29,-2624.66C4484.97,-2576.22 4362.53,-2439.32 4312.01,-2382.84"/>
<polygon fill="black" stroke="black" points="4314.37,-2380.23 4305.1,-2375.11 4309.16,-2384.9 4314.37,-2380.23"/>
</g>
<!-- u25&#45;&gt;u46 -->
<g id="edge29" class="edge">
<title>u25&#45;&gt;u46</title>
<path fill="none" stroke="black" d="M5936.79,-3481.66C5936.79,-3433.92 5936.79,-3300.23 5936.79,-3242.32"/>
<polygon fill="black" stroke="black" points="5940.29,-3242.11 5936.79,-3232.11 5933.29,-3242.11 5940.29,-3242.11"/>
</g>
<!-- u23 -->
<g id="node43" class="node">
<title>u23</title>
<ellipse fill="#77ff77" stroke="black" cx="6415.79" cy="-3214" rx="228.26" ry="18"/>
<text text-anchor="middle" x="6415.79" y="-3210.3" font-family="Times,serif" font-size="14.00">Language.Drasil.Code.Imperative.Descriptions</text>
</g>
<!-- u25&#45;&gt;u23 -->
<g id="edge28" class="edge">
<title>u25&#45;&gt;u23</title>
<path fill="none" stroke="black" d="M5965.32,-3482.09C6047.68,-3433.26 6285.79,-3292.08 6378.36,-3237.19"/>
<polygon fill="black" stroke="black" points="6380.3,-3240.12 6387.11,-3232.01 6376.73,-3234.09 6380.3,-3240.12"/>
</g>
<!-- u24&#45;&gt;u47 -->
<g id="edge27" class="edge">
<title>u24&#45;&gt;u47</title>
<path fill="none" stroke="black" d="M5343.08,-3198.47C5098.37,-3160.79 4531.52,-3035.25 4294.79,-2661 4198.2,-2508.29 4860.7,-2409.17 5154.49,-2373.18"/>
<polygon fill="black" stroke="black" points="5155.28,-2376.61 5164.78,-2371.92 5154.43,-2369.66 5155.28,-2376.61"/>
</g>
<!-- u23&#45;&gt;u47 -->
<g id="edge26" class="edge">
<title>u23&#45;&gt;u47</title>
<path fill="none" stroke="black" d="M6431.2,-3195.92C6497.69,-3120.17 6749.93,-2810.08 6598.79,-2625 6459.72,-2454.7 5808.64,-2390.2 5480.24,-2368.2"/>
<polygon fill="black" stroke="black" points="5480.35,-2364.7 5470.14,-2367.53 5479.89,-2371.68 5480.35,-2364.7"/>
</g>
<!-- u27 -->
<g id="node44" class="node">
<title>u27</title>
<ellipse fill="#ffff77" stroke="black" cx="3345.79" cy="-2929" rx="228.56" ry="18"/>
<text text-anchor="middle" x="3345.79" y="-2925.3" font-family="Times,serif" font-size="14.00">Language.Drasil.Code.Imperative.Build.Import</text>
</g>
<!-- u26 -->
<g id="node45" class="node">
<title>u26</title>
<ellipse fill="#ffff77" stroke="black" cx="3345.79" cy="-2643" rx="215.56" ry="18"/>
<text text-anchor="middle" x="3345.79" y="-2639.3" font-family="Times,serif" font-size="14.00">Language.Drasil.Code.Imperative.Build.AST</text>
</g>
<!-- u27&#45;&gt;u26 -->
<g id="edge30" class="edge">
<title>u27&#45;&gt;u26</title>
<path fill="none" stroke="black" d="M3345.79,-2910.66C3345.79,-2862.92 3345.79,-2729.23 3345.79,-2671.32"/>
<polygon fill="black" stroke="black" points="3349.29,-2671.11 3345.79,-2661.11 3342.29,-2671.11 3349.29,-2671.11"/>
</g>
<!-- u28 -->
<g id="node46" class="node">
<title>u28</title>
<ellipse fill="#7777ff" stroke="black" cx="4036.79" cy="-2071" rx="245.06" ry="18"/>
<text text-anchor="middle" x="4036.79" y="-2067.3" font-family="Times,serif" font-size="14.00">Language.Drasil.Code.Imperative.Doxygen.Import</text>
</g>
<!-- u28&#45;&gt;u17 -->
<g id="edge31" class="edge">
<title>u28&#45;&gt;u17</title>
<path fill="none" stroke="black" d="M4067.25,-2052.93C4154.73,-2003.91 4406.71,-1862.7 4503.4,-1808.52"/>
<polygon fill="black" stroke="black" points="4505.24,-1811.5 4512.26,-1803.55 4501.82,-1805.39 4505.24,-1811.5"/>
</g>
<!-- u37&#45;&gt;u41 -->
<g id="edge50" class="edge">
<title>u37&#45;&gt;u41</title>
<path fill="none" stroke="black" d="M4305.18,-2338.66C4348.16,-2290.22 4469.64,-2153.32 4519.75,-2096.84"/>
<polygon fill="black" stroke="black" points="4522.59,-2098.91 4526.61,-2089.11 4517.36,-2094.27 4522.59,-2098.91"/>
</g>
<!-- u36&#45;&gt;u38 -->
<g id="edge49" class="edge">
<title>u36&#45;&gt;u38</title>
<path fill="none" stroke="black" d="M4484.17,-3482.09C4335.83,-3432.52 3902.67,-3287.79 3743.96,-3234.77"/>
<polygon fill="black" stroke="black" points="3744.95,-3231.41 3734.36,-3231.56 3742.73,-3238.05 3744.95,-3231.41"/>
</g>
<!-- u31 -->
<g id="node55" class="node">
<title>u31</title>
<ellipse fill="#77ffff" stroke="black" cx="3050.79" cy="-3214" rx="393.73" ry="18"/>
<text text-anchor="middle" x="3050.79" y="-3210.3" font-family="Times,serif" font-size="14.00">Language.Drasil.Code.Imperative.GOOL.LanguageRenderer.LanguagePolymorphic</text>
</g>
<!-- u36&#45;&gt;u31 -->
<g id="edge48" class="edge">
<title>u36&#45;&gt;u31</title>
<path fill="none" stroke="black" d="M4448.32,-3482.45C4189.11,-3432.84 3419.67,-3285.59 3147.51,-3233.51"/>
<polygon fill="black" stroke="black" points="3148.13,-3230.06 3137.65,-3231.62 3146.82,-3236.94 3148.13,-3230.06"/>
</g>
<!-- u35&#45;&gt;u38 -->
<g id="edge47" class="edge">
<title>u35&#45;&gt;u38</title>
<path fill="none" stroke="black" d="M1019.55,-3483.61C1513.2,-3433.85 3061.36,-3277.83 3541.4,-3229.45"/>
<polygon fill="black" stroke="black" points="3541.91,-3232.92 3551.51,-3228.43 3541.21,-3225.95 3541.91,-3232.92"/>
</g>
<!-- u35&#45;&gt;u31 -->
<g id="edge46" class="edge">
<title>u35&#45;&gt;u31</title>
<path fill="none" stroke="black" d="M989.68,-3483.02C1369.51,-3433.63 2522.7,-3283.67 2916.96,-3232.4"/>
<polygon fill="black" stroke="black" points="2917.52,-3235.86 2926.99,-3231.1 2916.62,-3228.92 2917.52,-3235.86"/>
</g>
<!-- u34&#45;&gt;u38 -->
<g id="edge45" class="edge">
<title>u34&#45;&gt;u38</title>
<path fill="none" stroke="black" d="M1723.15,-3482.97C2088.15,-3433.11 3200.76,-3281.12 3566.72,-3231.13"/>
<polygon fill="black" stroke="black" points="3567.37,-3234.57 3576.81,-3229.75 3566.43,-3227.64 3567.37,-3234.57"/>
</g>
<!-- u34&#45;&gt;u31 -->
<g id="edge44" class="edge">
<title>u34&#45;&gt;u31</title>
<path fill="none" stroke="black" d="M1689.73,-3482.5C1941.73,-3432.98 2690.68,-3285.78 2956.18,-3233.6"/>
<polygon fill="black" stroke="black" points="2957.04,-3236.99 2966.18,-3231.63 2955.69,-3230.13 2957.04,-3236.99"/>
</g>
<!-- u33&#45;&gt;u38 -->
<g id="edge43" class="edge">
<title>u33&#45;&gt;u38</title>
<path fill="none" stroke="black" d="M2415.59,-3482.4C2651.93,-3432.61 3353.59,-3284.78 3598.94,-3233.09"/>
<polygon fill="black" stroke="black" points="3599.81,-3236.48 3608.87,-3231 3598.37,-3229.63 3599.81,-3236.48"/>
</g>
<!-- u33&#45;&gt;u31 -->
<g id="edge42" class="edge">
<title>u33&#45;&gt;u31</title>
<path fill="none" stroke="black" d="M2379.32,-3482.09C2503.19,-3432.82 2863.47,-3289.51 2998.7,-3235.72"/>
<polygon fill="black" stroke="black" points="3000.04,-3238.95 3008.04,-3232.01 2997.46,-3232.45 3000.04,-3238.95"/>
</g>
<!-- u32&#45;&gt;u38 -->
<g id="edge41" class="edge">
<title>u32&#45;&gt;u38</title>
<path fill="none" stroke="black" d="M3105.48,-3482.09C3212.16,-3432.9 3522.05,-3290.03 3639.21,-3236.02"/>
<polygon fill="black" stroke="black" points="3640.68,-3239.19 3648.3,-3231.83 3637.75,-3232.83 3640.68,-3239.19"/>
</g>
<!-- u32&#45;&gt;u31 -->
<g id="edge40" class="edge">
<title>u32&#45;&gt;u31</title>
<path fill="none" stroke="black" d="M3067.7,-3481.66C3064.67,-3433.92 3056.2,-3300.23 3052.53,-3242.32"/>
<polygon fill="black" stroke="black" points="3056,-3241.87 3051.88,-3232.11 3049.02,-3242.31 3056,-3241.87"/>
</g>
<!-- u31&#45;&gt;u51 -->
<g id="edge39" class="edge">
<title>u31&#45;&gt;u51</title>
<path fill="none" stroke="black" d="M3050.79,-3195.78C3050.79,-3126.54 3050.79,-2861.82 3050.79,-2644 3050.79,-2644 3050.79,-2644 3050.79,-2070 3050.79,-1824.65 3290.41,-1596.82 3374.25,-1524.62"/>
<polygon fill="black" stroke="black" points="3376.75,-1527.08 3382.09,-1517.93 3372.21,-1521.76 3376.75,-1527.08"/>
</g>
<!-- u31&#45;&gt;u45 -->
<g id="edge38" class="edge">
<title>u31&#45;&gt;u45</title>
<path fill="none" stroke="black" d="M3051.33,-3195.83C3054.2,-3110.25 3069.7,-2729.76 3120.79,-2625 3175.1,-2513.67 3294.99,-2421.7 3354.65,-2380.82"/>
<polygon fill="black" stroke="black" points="3356.68,-2383.66 3363,-2375.16 3352.76,-2377.87 3356.68,-2383.66"/>
</g>
<!-- u31&#45;&gt;u27 -->
<g id="edge34" class="edge">
<title>u31&#45;&gt;u27</title>
<path fill="none" stroke="black" d="M3068.8,-3195.72C3119.33,-3147.26 3262.49,-3009.92 3320.71,-2954.07"/>
<polygon fill="black" stroke="black" points="3323.23,-2956.5 3328.02,-2947.05 3318.38,-2951.45 3323.23,-2956.5"/>
</g>
<!-- u31&#45;&gt;u28 -->
<g id="edge35" class="edge">
<title>u31&#45;&gt;u28</title>
<path fill="none" stroke="black" d="M3112.17,-3196.19C3219.81,-3164 3444.38,-3084.36 3583.79,-2947 3855.27,-2679.52 3997.33,-2214.88 4029.61,-2098.84"/>
<polygon fill="black" stroke="black" points="4033.04,-2099.58 4032.31,-2089.01 4026.29,-2097.73 4033.04,-2099.58"/>
</g>
<!-- u31&#45;&gt;u37 -->
<g id="edge37" class="edge">
<title>u31&#45;&gt;u37</title>
<path fill="none" stroke="black" d="M3150.94,-3196.55C3305.33,-3167.37 3605.6,-3095.13 3815.79,-2947 4048.17,-2783.24 4226.63,-2474.98 4276.07,-2383.94"/>
<polygon fill="black" stroke="black" points="4279.17,-2385.57 4280.83,-2375.11 4273.01,-2382.25 4279.17,-2385.57"/>
</g>
<!-- u31&#45;&gt;u29 -->
<g id="edge36" class="edge">
<title>u31&#45;&gt;u29</title>
<path fill="none" stroke="black" d="M3118.51,-3196.25C3318.72,-3146.72 3907.09,-3001.17 4118.25,-2948.94"/>
<polygon fill="black" stroke="black" points="4119.15,-2952.32 4128.02,-2946.52 4117.47,-2945.52 4119.15,-2952.32"/>
</g>
<!-- u30&#45;&gt;u38 -->
<g id="edge33" class="edge">
<title>u30&#45;&gt;u38</title>
<path fill="none" stroke="black" d="M3788.08,-3481.66C3769.51,-3433.72 3717.38,-3299.12 3695.1,-3241.6"/>
<polygon fill="black" stroke="black" points="3698.3,-3240.17 3691.42,-3232.11 3691.77,-3242.7 3698.3,-3240.17"/>
</g>
<!-- u30&#45;&gt;u31 -->
<g id="edge32" class="edge">
<title>u30&#45;&gt;u31</title>
<path fill="none" stroke="black" d="M3750.48,-3482.09C3621.41,-3432.82 3245.99,-3289.51 3105.08,-3235.72"/>
<polygon fill="black" stroke="black" points="3105.93,-3232.3 3095.34,-3232.01 3103.44,-3238.84 3105.93,-3232.3"/>
</g>
<!-- u52 -->
<g id="node57" class="node">
<title>u52</title>
<ellipse fill="#ff77ff" stroke="black" cx="4230.79" cy="-3214" rx="267.55" ry="18"/>
<text text-anchor="middle" x="4230.79" y="-3210.3" font-family="Times,serif" font-size="14.00">Language.Drasil.Code.Imperative.Parsers.ConfigParser</text>
</g>
<!-- u52&#45;&gt;u29 -->
<g id="edge74" class="edge">
<title>u52&#45;&gt;u29</title>
<path fill="none" stroke="black" d="M4228.6,-3195.72C4222.54,-3148.15 4205.6,-3014.93 4198.26,-2957.22"/>
<polygon fill="black" stroke="black" points="4201.7,-2956.53 4196.96,-2947.05 4194.75,-2957.41 4201.7,-2956.53"/>
</g>
<!-- u41&#45;&gt;u17 -->
<g id="edge54" class="edge">
<title>u41&#45;&gt;u17</title>
<path fill="none" stroke="black" d="M4541.79,-2052.72C4541.79,-2005.15 4541.79,-1871.93 4541.79,-1814.22"/>
<polygon fill="black" stroke="black" points="4545.29,-1814.05 4541.79,-1804.05 4538.29,-1814.05 4545.29,-1814.05"/>
</g>
<!-- u10&#45;&gt;u57 -->
<g id="edge14" class="edge">
<title>u10&#45;&gt;u57</title>
<path fill="none" stroke="black" d="M4547.83,-1482.09C4610.92,-1433.66 4792.35,-1294.4 4865.09,-1238.57"/>
<polygon fill="black" stroke="black" points="4867.6,-1241.05 4873.41,-1232.19 4863.34,-1235.5 4867.6,-1241.05"/>
</g>
<!-- u10&#45;&gt;u22 -->
<g id="edge13" class="edge">
<title>u10&#45;&gt;u22</title>
<path fill="none" stroke="black" d="M4522.99,-1481.66C4515.25,-1433.92 4493.6,-1300.23 4484.22,-1242.32"/>
<polygon fill="black" stroke="black" points="4487.62,-1241.42 4482.57,-1232.11 4480.71,-1242.54 4487.62,-1241.42"/>
</g>
<!-- u10&#45;&gt;u20 -->
<g id="edge12" class="edge">
<title>u10&#45;&gt;u20</title>
<path fill="none" stroke="black" d="M4502.33,-1482.09C4434.85,-1433.45 4240.24,-1293.17 4163.48,-1237.84"/>
<polygon fill="black" stroke="black" points="4165.3,-1234.83 4155.14,-1231.83 4161.2,-1240.51 4165.3,-1234.83"/>
</g>
<!-- u10&#45;&gt;u9 -->
<g id="edge11" class="edge">
<title>u10&#45;&gt;u9</title>
<path fill="none" stroke="black" d="M4569.36,-1482.5C4698.96,-1433.43 5081.81,-1288.46 5222.85,-1235.05"/>
<polygon fill="black" stroke="black" points="5224.47,-1238.18 5232.58,-1231.36 5221.99,-1231.63 5224.47,-1238.18"/>
</g>
<!-- u9&#45;&gt;u16 -->
<g id="edge10" class="edge">
<title>u9&#45;&gt;u16</title>
<path fill="none" stroke="black" d="M5265.42,-1195.77C5236.41,-1148.18 5150.89,-1011.84 5063.79,-911 4870.39,-687.06 4597,-454.93 4508.58,-381.63"/>
<polygon fill="black" stroke="black" points="4510.55,-378.71 4500.61,-375.03 4506.08,-384.11 4510.55,-378.71"/>
</g>
<!-- u4 -->
<g id="node61" class="node">
<title>u4</title>
<ellipse fill="#3333ff" stroke="black" cx="458.79" cy="-4357" rx="108.58" ry="18"/>
<text text-anchor="middle" x="458.79" y="-4353.3" font-family="Times,serif" font-size="14.00">drasil&#45;code.test.Main</text>
</g>
<!-- u4&#45;&gt;u7 -->
<g id="edge7" class="edge">
<title>u4&#45;&gt;u7</title>
<path fill="none" stroke="black" d="M463.86,-4338.72C477.84,-4291.05 517.05,-4157.38 533.92,-4099.87"/>
<polygon fill="black" stroke="black" points="537.34,-4100.63 536.79,-4090.05 530.62,-4098.66 537.34,-4100.63"/>
</g>
<!-- u4&#45;&gt;u6 -->
<g id="edge6" class="edge">
<title>u4&#45;&gt;u6</title>
<path fill="none" stroke="black" d="M472.84,-4338.72C511.98,-4290.55 622.48,-4154.59 668.4,-4098.1"/>
<polygon fill="black" stroke="black" points="671.35,-4100.02 674.94,-4090.05 665.91,-4095.6 671.35,-4100.02"/>
</g>
<!-- u4&#45;&gt;u3 -->
<g id="edge5" class="edge">
<title>u4&#45;&gt;u3</title>
<path fill="none" stroke="black" d="M435.33,-4339.35C366.8,-4290.75 167.04,-4149.07 90.31,-4094.64"/>
<polygon fill="black" stroke="black" points="92.18,-4091.68 82,-4088.75 88.13,-4097.39 92.18,-4091.68"/>
</g>
<!-- u4&#45;&gt;u2 -->
<g id="edge4" class="edge">
<title>u4&#45;&gt;u2</title>
<path fill="none" stroke="black" d="M443.37,-4339.14C399.46,-4291.17 273.67,-4153.72 222.18,-4097.46"/>
<polygon fill="black" stroke="black" points="224.47,-4094.78 215.14,-4089.77 219.31,-4099.51 224.47,-4094.78"/>
</g>
<!-- u4&#45;&gt;u1 -->
<g id="edge3" class="edge">
<title>u4&#45;&gt;u1</title>
<path fill="none" stroke="black" d="M453.73,-4338.72C439.75,-4291.05 400.54,-4157.38 383.67,-4099.87"/>
<polygon fill="black" stroke="black" points="386.97,-4098.66 380.8,-4090.05 380.25,-4100.63 386.97,-4098.66"/>
</g>
<!-- u4&#45;&gt;u60 -->
<g id="edge8" class="edge">
<title>u4&#45;&gt;u60</title>
<path fill="none" stroke="black" d="M536.21,-4344.33C836.99,-4299.01 1927.13,-4134.73 2247.6,-4086.44"/>
<polygon fill="black" stroke="black" points="2248.4,-4089.86 2257.77,-4084.91 2247.36,-4082.94 2248.4,-4089.86"/>
</g>
</g>
</svg>
