<?xml version="1.0" encoding="UTF-8" standalone="no"?>
<!DOCTYPE svg PUBLIC "-//W3C//DTD SVG 1.1//EN"
 "http://www.w3.org/Graphics/SVG/1.1/DTD/svg11.dtd">
<!-- Generated by graphviz version 2.43.0 (0)
 -->
<!-- Title: G Pages: 1 -->
<svg width="432pt" height="283pt"
 viewBox="0.00 0.00 432.00 282.63" xmlns="http://www.w3.org/2000/svg" xmlns:xlink="http://www.w3.org/1999/xlink">
<g id="graph0" class="graph" transform="scale(12.05 12.05) rotate(0) translate(4 3400.67)">
<title>G</title>
<polygon fill="white" stroke="transparent" points="-4,4 -4,-3400.67 5200,-3400.67 5200,4 -4,4"/>
<!-- u6 -->
<g id="node1" class="node">
<title>u6</title>
<ellipse fill="#bbffbb" stroke="black" cx="2319" cy="-3338" rx="214.46" ry="18"/>
<text text-anchor="middle" x="2319" y="-3334.3" font-family="Times,serif" font-size="14.00">Data.Drasil.ExternalLibraries.ODELibraries</text>
</g>
<!-- u7 -->
<g id="node5" class="node">
<title>u7</title>
<ellipse fill="#ffffbb" stroke="black" cx="2319" cy="-3104" rx="113.18" ry="18"/>
<text text-anchor="middle" x="2319" y="-3100.3" font-family="Times,serif" font-size="14.00">Language.Drasil.Code</text>
</g>
<!-- u6&#45;&gt;u7 -->
<g id="edge7" class="edge">
<title>u6&#45;&gt;u7</title>
<path fill="none" stroke="black" d="M2319,-3319.94C2319,-3280.05 2319,-3180.43 2319,-3132.12"/>
<polygon fill="black" stroke="black" points="2322.5,-3132.08 2319,-3122.08 2315.5,-3132.08 2322.5,-3132.08"/>
</g>
<!-- u16 -->
<g id="node2" class="node">
<title>u16</title>
<ellipse fill="#ffffbb" stroke="black" cx="3688" cy="-1464" rx="135.68" ry="18"/>
<text text-anchor="middle" x="3688" y="-1460.3" font-family="Times,serif" font-size="14.00">Language.Drasil.CodeSpec</text>
</g>
<!-- u8 -->
<g id="node4" class="node">
<title>u8</title>
<ellipse fill="#ffffbb" stroke="black" cx="3007" cy="-1230" rx="126.18" ry="18"/>
<text text-anchor="middle" x="3007" y="-1226.3" font-family="Times,serif" font-size="14.00">Language.Drasil.Choices</text>
</g>
<!-- u16&#45;&gt;u8 -->
<g id="edge26" class="edge">
<title>u16&#45;&gt;u8</title>
<path fill="none" stroke="black" d="M3641.19,-1447.05C3519.65,-1405.65 3194.37,-1294.83 3063.09,-1250.11"/>
<polygon fill="black" stroke="black" points="3063.83,-1246.66 3053.23,-1246.75 3061.57,-1253.29 3063.83,-1246.66"/>
</g>
<!-- u11 -->
<g id="node7" class="node">
<title>u11</title>
<ellipse fill="#bbbbff" stroke="black" cx="3688" cy="-1230" rx="192.27" ry="18"/>
<text text-anchor="middle" x="3688" y="-1226.3" font-family="Times,serif" font-size="14.00">Language.Drasil.Chunk.ConstraintMap</text>
</g>
<!-- u16&#45;&gt;u11 -->
<g id="edge28" class="edge">
<title>u16&#45;&gt;u11</title>
<path fill="none" stroke="black" d="M3688,-1445.94C3688,-1406.05 3688,-1306.43 3688,-1258.12"/>
<polygon fill="black" stroke="black" points="3691.5,-1258.08 3688,-1248.08 3684.5,-1258.08 3691.5,-1258.08"/>
</g>
<!-- u9 -->
<g id="node9" class="node">
<title>u9</title>
<ellipse fill="#bbbbff" stroke="black" cx="4108" cy="-996" rx="191.17" ry="18"/>
<text text-anchor="middle" x="4108" y="-992.3" font-family="Times,serif" font-size="14.00">Language.Drasil.Chunk.CodeDefinition</text>
</g>
<!-- u16&#45;&gt;u9 -->
<g id="edge27" class="edge">
<title>u16&#45;&gt;u9</title>
<path fill="none" stroke="black" d="M3763.16,-1448.98C3917.15,-1418.57 4259.68,-1341.68 4327,-1248 4392.32,-1157.11 4233.7,-1060.19 4152.41,-1018.3"/>
<polygon fill="black" stroke="black" points="4153.88,-1015.12 4143.38,-1013.71 4150.7,-1021.36 4153.88,-1015.12"/>
</g>
<!-- u15 -->
<g id="node3" class="node">
<title>u15</title>
<ellipse fill="#ffffbb" stroke="black" cx="3052" cy="-527" rx="110.48" ry="18"/>
<text text-anchor="middle" x="3052" y="-523.3" font-family="Times,serif" font-size="14.00">Language.Drasil.Mod</text>
</g>
<!-- u12 -->
<g id="node6" class="node">
<title>u12</title>
<ellipse fill="#bbbbff" stroke="black" cx="3052" cy="-293" rx="170.87" ry="18"/>
<text text-anchor="middle" x="3052" y="-289.3" font-family="Times,serif" font-size="14.00">Language.Drasil.Chunk.Parameter</text>
</g>
<!-- u15&#45;&gt;u12 -->
<g id="edge24" class="edge">
<title>u15&#45;&gt;u12</title>
<path fill="none" stroke="black" d="M3052,-508.94C3052,-469.05 3052,-369.43 3052,-321.12"/>
<polygon fill="black" stroke="black" points="3055.5,-321.08 3052,-311.08 3048.5,-321.08 3055.5,-321.08"/>
</g>
<!-- u52 -->
<g id="node12" class="node">
<title>u52</title>
<ellipse fill="#ffbbbb" stroke="black" cx="2321" cy="-293" rx="160.57" ry="18"/>
<text text-anchor="middle" x="2321" y="-289.3" font-family="Times,serif" font-size="14.00">Language.Drasil.Code.DataDesc</text>
</g>
<!-- u15&#45;&gt;u52 -->
<g id="edge25" class="edge">
<title>u15&#45;&gt;u52</title>
<path fill="none" stroke="black" d="M3004.04,-510.78C2875.62,-470.02 2524.11,-358.46 2381.91,-313.33"/>
<polygon fill="black" stroke="black" points="2382.63,-309.89 2372.04,-310.2 2380.51,-316.56 2382.63,-309.89"/>
</g>
<!-- u18 -->
<g id="node16" class="node">
<title>u18</title>
<ellipse fill="#ffbbbb" stroke="black" cx="2440" cy="-996" rx="139.98" ry="18"/>
<text text-anchor="middle" x="2440" y="-992.3" font-family="Times,serif" font-size="14.00">Language.Drasil.Code.Code</text>
</g>
<!-- u8&#45;&gt;u18 -->
<g id="edge16" class="edge">
<title>u8&#45;&gt;u18</title>
<path fill="none" stroke="black" d="M2967.58,-1212.87C2866.8,-1171.63 2599.89,-1062.42 2489.19,-1017.13"/>
<polygon fill="black" stroke="black" points="2490.49,-1013.88 2479.91,-1013.33 2487.84,-1020.36 2490.49,-1013.88"/>
</g>
<!-- u14 -->
<g id="node48" class="node">
<title>u14</title>
<ellipse fill="#77ffff" stroke="black" cx="3075" cy="-996" rx="172.77" ry="18"/>
<text text-anchor="middle" x="3075" y="-992.3" font-family="Times,serif" font-size="14.00">Language.Drasil.Data.ODELibPckg</text>
</g>
<!-- u8&#45;&gt;u14 -->
<g id="edge15" class="edge">
<title>u8&#45;&gt;u14</title>
<path fill="none" stroke="black" d="M3012,-1211.94C3023.72,-1171.97 3053.01,-1072.01 3067.14,-1023.81"/>
<polygon fill="black" stroke="black" points="3070.54,-1024.67 3069.99,-1014.08 3063.82,-1022.7 3070.54,-1024.67"/>
</g>
<!-- u46 -->
<g id="node20" class="node">
<title>u46</title>
<ellipse fill="#bbffff" stroke="black" cx="4122" cy="-2870" rx="217.16" ry="18"/>
<text text-anchor="middle" x="4122" y="-2866.3" font-family="Times,serif" font-size="14.00">Language.Drasil.Code.Imperative.Generator</text>
</g>
<!-- u7&#45;&gt;u46 -->
<g id="edge14" class="edge">
<title>u7&#45;&gt;u46</title>
<path fill="none" stroke="black" d="M2403.84,-3092.08C2695.5,-3054.55 3657.74,-2930.74 3999.91,-2886.71"/>
<polygon fill="black" stroke="black" points="4000.38,-2890.18 4009.85,-2885.43 3999.49,-2883.24 4000.38,-2890.18"/>
</g>
<!-- u39 -->
<g id="node25" class="node">
<title>u39</title>
<ellipse fill="#bbffff" stroke="black" cx="757" cy="-1464" rx="217.96" ry="18"/>
<text text-anchor="middle" x="757" y="-1460.3" font-family="Times,serif" font-size="14.00">Language.Drasil.Code.Imperative.ReadInput</text>
</g>
<!-- u7&#45;&gt;u39 -->
<g id="edge13" class="edge">
<title>u7&#45;&gt;u39</title>
<path fill="none" stroke="black" d="M2224.13,-3094.17C1788.39,-3052.38 0,-2866.82 0,-2636 0,-2636 0,-2636 0,-1932 0,-1633.5 431.63,-1519.52 643.04,-1481.6"/>
<polygon fill="black" stroke="black" points="643.7,-1485.04 652.93,-1479.85 642.48,-1478.14 643.7,-1485.04"/>
</g>
<!-- u36 -->
<g id="node41" class="node">
<title>u36</title>
<ellipse fill="#7777ff" stroke="black" cx="2598" cy="-2635" rx="354.44" ry="18"/>
<text text-anchor="middle" x="2598" y="-2631.3" font-family="Times,serif" font-size="14.00">Language.Drasil.Code.Imperative.GOOL.LanguageRenderer.JavaRenderer</text>
</g>
<!-- u7&#45;&gt;u36 -->
<g id="edge12" class="edge">
<title>u7&#45;&gt;u36</title>
<path fill="none" stroke="black" d="M2329.26,-3085.83C2371.43,-3015.24 2531.55,-2747.23 2582.4,-2662.11"/>
<polygon fill="black" stroke="black" points="2585.52,-2663.71 2587.65,-2653.33 2579.51,-2660.12 2585.52,-2663.71"/>
</g>
<!-- u35 -->
<g id="node42" class="node">
<title>u35</title>
<ellipse fill="#7777ff" stroke="black" cx="3337" cy="-2635" rx="367.43" ry="18"/>
<text text-anchor="middle" x="3337" y="-2631.3" font-family="Times,serif" font-size="14.00">Language.Drasil.Code.Imperative.GOOL.LanguageRenderer.PythonRenderer</text>
</g>
<!-- u7&#45;&gt;u35 -->
<g id="edge11" class="edge">
<title>u7&#45;&gt;u35</title>
<path fill="none" stroke="black" d="M2354.34,-3086.79C2507.95,-3016.32 3117.73,-2736.59 3290.91,-2657.14"/>
<polygon fill="black" stroke="black" points="3292.39,-2660.31 3300.02,-2652.96 3289.47,-2653.95 3292.39,-2660.31"/>
</g>
<!-- u34 -->
<g id="node43" class="node">
<title>u34</title>
<ellipse fill="#7777ff" stroke="black" cx="397" cy="-2635" rx="369.33" ry="18"/>
<text text-anchor="middle" x="397" y="-2631.3" font-family="Times,serif" font-size="14.00">Language.Drasil.Code.Imperative.GOOL.LanguageRenderer.CSharpRenderer</text>
</g>
<!-- u7&#45;&gt;u34 -->
<g id="edge10" class="edge">
<title>u7&#45;&gt;u34</title>
<path fill="none" stroke="black" d="M2259.9,-3088.64C1980.71,-3020.8 794.19,-2732.51 475.86,-2655.16"/>
<polygon fill="black" stroke="black" points="476.35,-2651.68 465.8,-2652.72 474.7,-2658.48 476.35,-2651.68"/>
</g>
<!-- u33 -->
<g id="node44" class="node">
<title>u33</title>
<ellipse fill="#7777ff" stroke="black" cx="1137" cy="-2635" rx="352.84" ry="18"/>
<text text-anchor="middle" x="1137" y="-2631.3" font-family="Times,serif" font-size="14.00">Language.Drasil.Code.Imperative.GOOL.LanguageRenderer.CppRenderer</text>
</g>
<!-- u7&#45;&gt;u33 -->
<g id="edge9" class="edge">
<title>u7&#45;&gt;u33</title>
<path fill="none" stroke="black" d="M2278.65,-3087.06C2101.01,-3016.87 1388.5,-2735.37 1189.09,-2656.58"/>
<polygon fill="black" stroke="black" points="1190.3,-2653.3 1179.71,-2652.88 1187.73,-2659.81 1190.3,-2653.3"/>
</g>
<!-- u31 -->
<g id="node46" class="node">
<title>u31</title>
<ellipse fill="#7777ff" stroke="black" cx="1867" cy="-2635" rx="358.54" ry="18"/>
<text text-anchor="middle" x="1867" y="-2631.3" font-family="Times,serif" font-size="14.00">Language.Drasil.Code.Imperative.GOOL.LanguageRenderer.SwiftRenderer</text>
</g>
<!-- u7&#45;&gt;u31 -->
<g id="edge8" class="edge">
<title>u7&#45;&gt;u31</title>
<path fill="none" stroke="black" d="M2302.65,-3086.1C2234.35,-3015.54 1971.71,-2744.19 1890.84,-2660.63"/>
<polygon fill="black" stroke="black" points="1893.28,-2658.12 1883.81,-2653.37 1888.25,-2662.99 1893.28,-2658.12"/>
</g>
<!-- u10 -->
<g id="node8" class="node">
<title>u10</title>
<ellipse fill="#bbbbff" stroke="black" cx="3052" cy="-59" rx="145.67" ry="18"/>
<text text-anchor="middle" x="3052" y="-55.3" font-family="Times,serif" font-size="14.00">Language.Drasil.Chunk.Code</text>
</g>
<!-- u12&#45;&gt;u10 -->
<g id="edge18" class="edge">
<title>u12&#45;&gt;u10</title>
<path fill="none" stroke="black" d="M3052,-274.94C3052,-235.05 3052,-135.43 3052,-87.12"/>
<polygon fill="black" stroke="black" points="3055.5,-87.08 3052,-77.08 3048.5,-87.08 3055.5,-87.08"/>
</g>
<!-- u13 -->
<g id="node49" class="node">
<title>u13</title>
<ellipse fill="#77ffff" stroke="black" cx="3830" cy="-761" rx="154.07" ry="18"/>
<text text-anchor="middle" x="3830" y="-757.3" font-family="Times,serif" font-size="14.00">Language.Drasil.Data.ODEInfo</text>
</g>
<!-- u9&#45;&gt;u13 -->
<g id="edge17" class="edge">
<title>u9&#45;&gt;u13</title>
<path fill="none" stroke="black" d="M4087.56,-977.87C4038.56,-936.8 3914.32,-832.67 3858.23,-785.66"/>
<polygon fill="black" stroke="black" points="3860.38,-782.9 3850.47,-779.16 3855.89,-788.26 3860.38,-782.9"/>
</g>
<!-- u54 -->
<g id="node10" class="node">
<title>u54</title>
<ellipse fill="#ffbbbb" stroke="black" cx="4888" cy="-1933" rx="204.16" ry="18"/>
<text text-anchor="middle" x="4888" y="-1929.3" font-family="Times,serif" font-size="14.00">Language.Drasil.Code.CodeQuantityDicts</text>
</g>
<!-- u53 -->
<g id="node11" class="node">
<title>u53</title>
<ellipse fill="#ffbbbb" stroke="black" cx="3913" cy="-2635" rx="191.17" ry="18"/>
<text text-anchor="middle" x="3913" y="-2631.3" font-family="Times,serif" font-size="14.00">Language.Drasil.Code.CodeGeneration</text>
</g>
<!-- u53&#45;&gt;u18 -->
<g id="edge85" class="edge">
<title>u53&#45;&gt;u18</title>
<path fill="none" stroke="black" d="M3828.09,-2618.81C3714.08,-2594.53 3510.86,-2537.16 3381,-2419 3281.02,-2328.03 3339.95,-2241.08 3241,-2149 2891.22,-1823.5 2516.69,-2117.07 2257,-1716 2103.25,-1478.54 2347.99,-1119.34 2420.65,-1022.05"/>
<polygon fill="black" stroke="black" points="2423.52,-1024.05 2426.74,-1013.96 2417.93,-1019.84 2423.52,-1024.05"/>
</g>
<!-- u30 -->
<g id="node39" class="node">
<title>u30</title>
<ellipse fill="#ffff77" stroke="black" cx="2478" cy="-2401" rx="222.06" ry="18"/>
<text text-anchor="middle" x="2478" y="-2397.3" font-family="Times,serif" font-size="14.00">Language.Drasil.Code.Imperative.GOOL.Data</text>
</g>
<!-- u53&#45;&gt;u30 -->
<g id="edge86" class="edge">
<title>u53&#45;&gt;u30</title>
<path fill="none" stroke="black" d="M3821.33,-2619.18C3566.9,-2578.05 2853.06,-2462.64 2583.15,-2419"/>
<polygon fill="black" stroke="black" points="2583.4,-2415.49 2572.97,-2417.35 2582.28,-2422.4 2583.4,-2415.49"/>
</g>
<!-- u52&#45;&gt;u10 -->
<g id="edge84" class="edge">
<title>u52&#45;&gt;u10</title>
<path fill="none" stroke="black" d="M2371.82,-275.87C2502.72,-234.33 2851.01,-123.79 2991.75,-79.12"/>
<polygon fill="black" stroke="black" points="2993.04,-82.38 3001.51,-76.02 2990.92,-75.71 2993.04,-82.38"/>
</g>
<!-- u51 -->
<g id="node13" class="node">
<title>u51</title>
<ellipse fill="#ffbbbb" stroke="black" cx="3468" cy="-996" rx="178.97" ry="18"/>
<text text-anchor="middle" x="3468" y="-992.3" font-family="Times,serif" font-size="14.00">Language.Drasil.Code.ExtLibImport</text>
</g>
<!-- u19 -->
<g id="node15" class="node">
<title>u19</title>
<ellipse fill="#ffbbbb" stroke="black" cx="3052" cy="-761" rx="207.96" ry="18"/>
<text text-anchor="middle" x="3052" y="-757.3" font-family="Times,serif" font-size="14.00">Language.Drasil.Code.ExternalLibraryCall</text>
</g>
<!-- u51&#45;&gt;u19 -->
<g id="edge83" class="edge">
<title>u51&#45;&gt;u19</title>
<path fill="none" stroke="black" d="M3438.08,-978.24C3364.28,-936.91 3173.55,-830.08 3091.02,-783.85"/>
<polygon fill="black" stroke="black" points="3092.64,-780.75 3082.21,-778.92 3089.22,-786.86 3092.64,-780.75"/>
</g>
<!-- u17 -->
<g id="node17" class="node">
<title>u17</title>
<ellipse fill="#ffbbbb" stroke="black" cx="3468" cy="-761" rx="190.37" ry="18"/>
<text text-anchor="middle" x="3468" y="-757.3" font-family="Times,serif" font-size="14.00">Language.Drasil.Code.ExternalLibrary</text>
</g>
<!-- u51&#45;&gt;u17 -->
<g id="edge82" class="edge">
<title>u51&#45;&gt;u17</title>
<path fill="none" stroke="black" d="M3468,-977.87C3468,-937.81 3468,-837.75 3468,-789.23"/>
<polygon fill="black" stroke="black" points="3471.5,-789.16 3468,-779.16 3464.5,-789.16 3471.5,-789.16"/>
</g>
<!-- u50 -->
<g id="node14" class="node">
<title>u50</title>
<ellipse fill="#ffbbbb" stroke="black" cx="2687" cy="-761" rx="139.18" ry="18"/>
<text text-anchor="middle" x="2687" y="-757.3" font-family="Times,serif" font-size="14.00">Language.Drasil.Code.Lang</text>
</g>
<!-- u19&#45;&gt;u15 -->
<g id="edge30" class="edge">
<title>u19&#45;&gt;u15</title>
<path fill="none" stroke="black" d="M3052,-742.94C3052,-703.05 3052,-603.43 3052,-555.12"/>
<polygon fill="black" stroke="black" points="3055.5,-555.08 3052,-545.08 3048.5,-555.08 3055.5,-555.08"/>
</g>
<!-- u17&#45;&gt;u15 -->
<g id="edge29" class="edge">
<title>u17&#45;&gt;u15</title>
<path fill="none" stroke="black" d="M3437.75,-743.13C3363.57,-701.76 3172.76,-595.35 3090.59,-549.52"/>
<polygon fill="black" stroke="black" points="3092.02,-546.31 3081.58,-544.5 3088.61,-552.42 3092.02,-546.31"/>
</g>
<!-- u49 -->
<g id="node18" class="node">
<title>u49</title>
<ellipse fill="#bbffff" stroke="black" cx="4002" cy="-1933" rx="206.06" ry="18"/>
<text text-anchor="middle" x="4002" y="-1929.3" font-family="Times,serif" font-size="14.00">Language.Drasil.Code.Imperative.Helpers</text>
</g>
<!-- u28 -->
<g id="node27" class="node">
<title>u28</title>
<ellipse fill="#bbffff" stroke="black" cx="3688" cy="-1698" rx="222.06" ry="18"/>
<text text-anchor="middle" x="3688" y="-1694.3" font-family="Times,serif" font-size="14.00">Language.Drasil.Code.Imperative.DrasilState</text>
</g>
<!-- u49&#45;&gt;u28 -->
<g id="edge81" class="edge">
<title>u49&#45;&gt;u28</title>
<path fill="none" stroke="black" d="M3979.16,-1915.06C3923.9,-1874.05 3782.86,-1769.39 3719.57,-1722.43"/>
<polygon fill="black" stroke="black" points="3721.29,-1719.34 3711.17,-1716.2 3717.12,-1724.97 3721.29,-1719.34"/>
</g>
<!-- u47 -->
<g id="node19" class="node">
<title>u47</title>
<ellipse fill="#bbffff" stroke="black" cx="2402" cy="-2167" rx="233.16" ry="18"/>
<text text-anchor="middle" x="2402" y="-2163.3" font-family="Times,serif" font-size="14.00">Language.Drasil.Code.Imperative.WriteReadMe</text>
</g>
<!-- u29 -->
<g id="node40" class="node">
<title>u29</title>
<ellipse fill="#ffff77" stroke="black" cx="3041" cy="-1698" rx="267.25" ry="18"/>
<text text-anchor="middle" x="3041" y="-1694.3" font-family="Times,serif" font-size="14.00">Language.Drasil.Code.Imperative.GOOL.ClassInterface</text>
</g>
<!-- u47&#45;&gt;u29 -->
<g id="edge79" class="edge">
<title>u47&#45;&gt;u29</title>
<path fill="none" stroke="black" d="M2425.5,-2148.83C2523.26,-2077.38 2897.85,-1803.62 3009.45,-1722.06"/>
<polygon fill="black" stroke="black" points="3011.62,-1724.81 3017.62,-1716.08 3007.49,-1719.16 3011.62,-1724.81"/>
</g>
<!-- u46&#45;&gt;u53 -->
<g id="edge78" class="edge">
<title>u46&#45;&gt;u53</title>
<path fill="none" stroke="black" d="M4106.63,-2851.87C4070.09,-2811.13 3977.92,-2708.37 3935.27,-2660.83"/>
<polygon fill="black" stroke="black" points="3937.67,-2658.27 3928.39,-2653.16 3932.46,-2662.94 3937.67,-2658.27"/>
</g>
<!-- u40 -->
<g id="node24" class="node">
<title>u40</title>
<ellipse fill="#bbffff" stroke="black" cx="4108" cy="-1230" rx="209.86" ry="18"/>
<text text-anchor="middle" x="4108" y="-1226.3" font-family="Times,serif" font-size="14.00">Language.Drasil.Code.Imperative.GenODE</text>
</g>
<!-- u46&#45;&gt;u40 -->
<g id="edge77" class="edge">
<title>u46&#45;&gt;u40</title>
<path fill="none" stroke="black" d="M4198.81,-2853.08C4444.62,-2799.93 5196,-2619.68 5196,-2402 5196,-2402 5196,-2402 5196,-1697 5196,-1480.03 4455.63,-1303.92 4196.38,-1248.9"/>
<polygon fill="black" stroke="black" points="4196.75,-1245.4 4186.25,-1246.76 4195.31,-1252.25 4196.75,-1245.4"/>
</g>
<!-- u25 -->
<g id="node30" class="node">
<title>u25</title>
<ellipse fill="#bbffff" stroke="black" cx="4331" cy="-2635" rx="209.06" ry="18"/>
<text text-anchor="middle" x="4331" y="-2631.3" font-family="Times,serif" font-size="14.00">Language.Drasil.Code.Imperative.Modules</text>
</g>
<!-- u46&#45;&gt;u25 -->
<g id="edge76" class="edge">
<title>u46&#45;&gt;u25</title>
<path fill="none" stroke="black" d="M4137.37,-2851.87C4173.91,-2811.13 4266.08,-2708.37 4308.73,-2660.83"/>
<polygon fill="black" stroke="black" points="4311.54,-2662.94 4315.61,-2653.16 4306.33,-2658.27 4311.54,-2662.94"/>
</g>
<!-- u22 -->
<g id="node32" class="node">
<title>u22</title>
<ellipse fill="#bbffff" stroke="black" cx="4897" cy="-2401" rx="226.66" ry="18"/>
<text text-anchor="middle" x="4897" y="-2397.3" font-family="Times,serif" font-size="14.00">Language.Drasil.Code.Imperative.SpaceMatch</text>
</g>
<!-- u46&#45;&gt;u22 -->
<g id="edge75" class="edge">
<title>u46&#45;&gt;u22</title>
<path fill="none" stroke="black" d="M4159.9,-2852.26C4235.74,-2818.25 4410.78,-2737.1 4549,-2653 4672.74,-2577.72 4809.26,-2472 4867.77,-2425.5"/>
<polygon fill="black" stroke="black" points="4870.19,-2428.05 4875.83,-2419.08 4865.83,-2422.58 4870.19,-2428.05"/>
</g>
<!-- u45 -->
<g id="node21" class="node">
<title>u45</title>
<ellipse fill="#bbffff" stroke="black" cx="3030" cy="-1933" rx="240.46" ry="18"/>
<text text-anchor="middle" x="3030" y="-1929.3" font-family="Times,serif" font-size="14.00">Language.Drasil.Code.Imperative.GenerateGOOL</text>
</g>
<!-- u45&#45;&gt;u28 -->
<g id="edge73" class="edge">
<title>u45&#45;&gt;u28</title>
<path fill="none" stroke="black" d="M3077.06,-1915.34C3195.17,-1873.51 3503.78,-1764.23 3631.45,-1719.02"/>
<polygon fill="black" stroke="black" points="3632.8,-1722.26 3641.06,-1715.62 3630.46,-1715.66 3632.8,-1722.26"/>
</g>
<!-- u45&#45;&gt;u29 -->
<g id="edge74" class="edge">
<title>u45&#45;&gt;u29</title>
<path fill="none" stroke="black" d="M3030.81,-1914.87C3032.7,-1874.81 3037.42,-1774.75 3039.71,-1726.23"/>
<polygon fill="black" stroke="black" points="3043.21,-1726.31 3040.19,-1716.16 3036.22,-1725.98 3043.21,-1726.31"/>
</g>
<!-- u44 -->
<g id="node22" class="node">
<title>u44</title>
<ellipse fill="#bbffff" stroke="black" cx="3618" cy="-2401" rx="228.26" ry="18"/>
<text text-anchor="middle" x="3618" y="-2397.3" font-family="Times,serif" font-size="14.00">Language.Drasil.Code.Imperative.Descriptions</text>
</g>
<!-- u44&#45;&gt;u28 -->
<g id="edge72" class="edge">
<title>u44&#45;&gt;u28</title>
<path fill="none" stroke="black" d="M3595.47,-2383.03C3515.53,-2320.66 3255.43,-2098.27 3355,-1915 3412.22,-1809.69 3545.4,-1747.77 3624.91,-1718.89"/>
<polygon fill="black" stroke="black" points="3626.09,-1722.19 3634.33,-1715.54 3623.74,-1715.6 3626.09,-1722.19"/>
</g>
<!-- u41 -->
<g id="node23" class="node">
<title>u41</title>
<ellipse fill="#bbffff" stroke="black" cx="4002" cy="-2167" rx="201.46" ry="18"/>
<text text-anchor="middle" x="4002" y="-2163.3" font-family="Times,serif" font-size="14.00">Language.Drasil.Code.Imperative.Import</text>
</g>
<!-- u41&#45;&gt;u54 -->
<g id="edge70" class="edge">
<title>u41&#45;&gt;u54</title>
<path fill="none" stroke="black" d="M4063.95,-2149.78C4223.35,-2108.04 4647,-1997.11 4816.47,-1952.73"/>
<polygon fill="black" stroke="black" points="4817.5,-1956.08 4826.29,-1950.16 4815.73,-1949.31 4817.5,-1956.08"/>
</g>
<!-- u41&#45;&gt;u49 -->
<g id="edge69" class="edge">
<title>u41&#45;&gt;u49</title>
<path fill="none" stroke="black" d="M4002,-2148.94C4002,-2109.05 4002,-2009.43 4002,-1961.12"/>
<polygon fill="black" stroke="black" points="4005.5,-1961.08 4002,-1951.08 3998.5,-1961.08 4005.5,-1961.08"/>
</g>
<!-- u41&#45;&gt;u45 -->
<g id="edge68" class="edge">
<title>u41&#45;&gt;u45</title>
<path fill="none" stroke="black" d="M3934.81,-2149.96C3760.43,-2108.34 3294.12,-1997.04 3108.15,-1952.65"/>
<polygon fill="black" stroke="black" points="3108.71,-1949.19 3098.17,-1950.27 3107.09,-1956 3108.71,-1949.19"/>
</g>
<!-- u27 -->
<g id="node28" class="node">
<title>u27</title>
<ellipse fill="#bbffff" stroke="black" cx="3203" cy="-1464" rx="237.46" ry="18"/>
<text text-anchor="middle" x="3203" y="-1460.3" font-family="Times,serif" font-size="14.00">Language.Drasil.Code.Imperative.ConceptMatch</text>
</g>
<!-- u41&#45;&gt;u27 -->
<g id="edge67" class="edge">
<title>u41&#45;&gt;u27</title>
<path fill="none" stroke="black" d="M3830.92,-2157.46C3681.77,-2140.32 3471.59,-2090.93 3355,-1951 3277.15,-1857.56 3354.5,-1795.7 3317,-1680 3293.42,-1607.26 3246.2,-1529.91 3220.55,-1490.82"/>
<polygon fill="black" stroke="black" points="3223.27,-1488.58 3214.82,-1482.18 3217.43,-1492.45 3223.27,-1488.58"/>
</g>
<!-- u24 -->
<g id="node31" class="node">
<title>u24</title>
<ellipse fill="#bbffff" stroke="black" cx="4446" cy="-1933" rx="219.86" ry="18"/>
<text text-anchor="middle" x="4446" y="-1929.3" font-family="Times,serif" font-size="14.00">Language.Drasil.Code.Imperative.Comments</text>
</g>
<!-- u41&#45;&gt;u24 -->
<g id="edge66" class="edge">
<title>u41&#45;&gt;u24</title>
<path fill="none" stroke="black" d="M4034.29,-2149.13C4113.42,-2107.78 4316.95,-2001.43 4404.71,-1955.57"/>
<polygon fill="black" stroke="black" points="4406.59,-1958.54 4413.83,-1950.81 4403.35,-1952.34 4406.59,-1958.54"/>
</g>
<!-- u20 -->
<g id="node34" class="node">
<title>u20</title>
<ellipse fill="#bbffff" stroke="black" cx="3571" cy="-1933" rx="207.16" ry="18"/>
<text text-anchor="middle" x="3571" y="-1929.3" font-family="Times,serif" font-size="14.00">Language.Drasil.Code.Imperative.Logging</text>
</g>
<!-- u41&#45;&gt;u20 -->
<g id="edge65" class="edge">
<title>u41&#45;&gt;u20</title>
<path fill="none" stroke="black" d="M3970.66,-2149.13C3893.84,-2107.78 3696.27,-2001.43 3611.08,-1955.57"/>
<polygon fill="black" stroke="black" points="3612.69,-1952.47 3602.23,-1950.81 3609.37,-1958.63 3612.69,-1952.47"/>
</g>
<!-- u40&#45;&gt;u9 -->
<g id="edge62" class="edge">
<title>u40&#45;&gt;u9</title>
<path fill="none" stroke="black" d="M4108,-1211.94C4108,-1172.05 4108,-1072.43 4108,-1024.12"/>
<polygon fill="black" stroke="black" points="4111.5,-1024.08 4108,-1014.08 4104.5,-1024.08 4111.5,-1024.08"/>
</g>
<!-- u40&#45;&gt;u51 -->
<g id="edge64" class="edge">
<title>u40&#45;&gt;u51</title>
<path fill="none" stroke="black" d="M4062.23,-1212.41C3947.47,-1170.81 3647.78,-1062.17 3523.37,-1017.07"/>
<polygon fill="black" stroke="black" points="3524.25,-1013.67 3513.66,-1013.55 3521.87,-1020.25 3524.25,-1013.67"/>
</g>
<!-- u40&#45;&gt;u14 -->
<g id="edge63" class="edge">
<title>u40&#45;&gt;u14</title>
<path fill="none" stroke="black" d="M4037,-1213.05C3850.73,-1171.22 3348.98,-1058.53 3154,-1014.74"/>
<polygon fill="black" stroke="black" points="3154.64,-1011.3 3144.12,-1012.52 3153.11,-1018.13 3154.64,-1011.3"/>
</g>
<!-- u39&#45;&gt;u52 -->
<g id="edge61" class="edge">
<title>u39&#45;&gt;u52</title>
<path fill="none" stroke="black" d="M827.05,-1446.93C991.6,-1404.61 1389,-1273.74 1389,-997 1389,-997 1389,-997 1389,-760 1389,-415.62 1904.36,-325.73 2168.62,-302.28"/>
<polygon fill="black" stroke="black" points="2169.03,-305.75 2178.69,-301.4 2168.42,-298.78 2169.03,-305.75"/>
</g>
<!-- u38 -->
<g id="node26" class="node">
<title>u38</title>
<ellipse fill="#bbffff" stroke="black" cx="4888" cy="-2167" rx="223.66" ry="18"/>
<text text-anchor="middle" x="4888" y="-2163.3" font-family="Times,serif" font-size="14.00">Language.Drasil.Code.Imperative.Parameters</text>
</g>
<!-- u38&#45;&gt;u54 -->
<g id="edge60" class="edge">
<title>u38&#45;&gt;u54</title>
<path fill="none" stroke="black" d="M4888,-2148.94C4888,-2109.05 4888,-2009.43 4888,-1961.12"/>
<polygon fill="black" stroke="black" points="4891.5,-1961.08 4888,-1951.08 4884.5,-1961.08 4891.5,-1961.08"/>
</g>
<!-- u38&#45;&gt;u28 -->
<g id="edge59" class="edge">
<title>u38&#45;&gt;u28</title>
<path fill="none" stroke="black" d="M4921.9,-2149.2C4999.24,-2108.75 5176.4,-2002.8 5101,-1915 4951.54,-1740.95 4280.9,-1705.64 3919.89,-1699.45"/>
<polygon fill="black" stroke="black" points="3919.88,-1695.95 3909.83,-1699.29 3919.77,-1702.95 3919.88,-1695.95"/>
</g>
<!-- u28&#45;&gt;u16 -->
<g id="edge41" class="edge">
<title>u28&#45;&gt;u16</title>
<path fill="none" stroke="black" d="M3688,-1679.94C3688,-1640.05 3688,-1540.43 3688,-1492.12"/>
<polygon fill="black" stroke="black" points="3691.5,-1492.08 3688,-1482.08 3684.5,-1492.08 3691.5,-1492.08"/>
</g>
<!-- u28&#45;&gt;u51 -->
<g id="edge42" class="edge">
<title>u28&#45;&gt;u51</title>
<path fill="none" stroke="black" d="M3673.24,-1679.89C3643.97,-1645.05 3578.33,-1562.37 3543,-1482 3471.6,-1319.56 3466.73,-1100.44 3467.4,-1024.36"/>
<polygon fill="black" stroke="black" points="3470.9,-1024.25 3467.53,-1014.2 3463.91,-1024.15 3470.9,-1024.25"/>
</g>
<!-- u27&#45;&gt;u8 -->
<g id="edge40" class="edge">
<title>u27&#45;&gt;u8</title>
<path fill="none" stroke="black" d="M3188.59,-1445.94C3154.32,-1405.38 3067.88,-1303.06 3027.89,-1255.73"/>
<polygon fill="black" stroke="black" points="3030.56,-1253.46 3021.43,-1248.08 3025.21,-1257.98 3030.56,-1253.46"/>
</g>
<!-- u26 -->
<g id="node29" class="node">
<title>u26</title>
<ellipse fill="#bbffff" stroke="black" cx="1828" cy="-527" rx="219.86" ry="18"/>
<text text-anchor="middle" x="1828" y="-523.3" font-family="Times,serif" font-size="14.00">Language.Drasil.Code.Imperative.WriteInput</text>
</g>
<!-- u26&#45;&gt;u52 -->
<g id="edge39" class="edge">
<title>u26&#45;&gt;u52</title>
<path fill="none" stroke="black" d="M1863.85,-509.13C1952.09,-467.6 2179.63,-360.53 2276.39,-314.99"/>
<polygon fill="black" stroke="black" points="2278.06,-318.08 2285.61,-310.65 2275.07,-311.74 2278.06,-318.08"/>
</g>
<!-- u25&#45;&gt;u44 -->
<g id="edge38" class="edge">
<title>u25&#45;&gt;u44</title>
<path fill="none" stroke="black" d="M4280.29,-2617.5C4152.29,-2575.85 3816.48,-2466.58 3678.51,-2421.69"/>
<polygon fill="black" stroke="black" points="3679.52,-2418.34 3668.92,-2418.57 3677.35,-2424.99 3679.52,-2418.34"/>
</g>
<!-- u21 -->
<g id="node33" class="node">
<title>u21</title>
<ellipse fill="#bbffff" stroke="black" cx="4331" cy="-2401" rx="233.16" ry="18"/>
<text text-anchor="middle" x="4331" y="-2397.3" font-family="Times,serif" font-size="14.00">Language.Drasil.Code.Imperative.FunctionCalls</text>
</g>
<!-- u25&#45;&gt;u21 -->
<g id="edge37" class="edge">
<title>u25&#45;&gt;u21</title>
<path fill="none" stroke="black" d="M4331,-2616.94C4331,-2577.05 4331,-2477.43 4331,-2429.12"/>
<polygon fill="black" stroke="black" points="4334.5,-2429.08 4331,-2419.08 4327.5,-2429.08 4334.5,-2429.08"/>
</g>
<!-- u24&#45;&gt;u28 -->
<g id="edge36" class="edge">
<title>u24&#45;&gt;u28</title>
<path fill="none" stroke="black" d="M4392.4,-1915.52C4256.26,-1873.68 3897.65,-1763.44 3751.43,-1718.5"/>
<polygon fill="black" stroke="black" points="3752.28,-1715.1 3741.69,-1715.5 3750.22,-1721.79 3752.28,-1715.1"/>
</g>
<!-- u22&#45;&gt;u28 -->
<g id="edge34" class="edge">
<title>u22&#45;&gt;u28</title>
<path fill="none" stroke="black" d="M4926.3,-2383C4977.24,-2351.54 5080.54,-2278.79 5121,-2185 5168.53,-2074.81 5201.29,-2005.95 5123,-1915 5040.85,-1819.56 4211.69,-1741.44 3852.48,-1711.81"/>
<polygon fill="black" stroke="black" points="3852.77,-1708.32 3842.52,-1710.99 3852.2,-1715.3 3852.77,-1708.32"/>
</g>
<!-- u21&#45;&gt;u41 -->
<g id="edge33" class="edge">
<title>u21&#45;&gt;u41</title>
<path fill="none" stroke="black" d="M4306.81,-2382.94C4248.58,-2341.88 4100.58,-2237.51 4034.6,-2190.99"/>
<polygon fill="black" stroke="black" points="4036.42,-2187.99 4026.23,-2185.08 4032.38,-2193.71 4036.42,-2187.99"/>
</g>
<!-- u21&#45;&gt;u38 -->
<g id="edge32" class="edge">
<title>u21&#45;&gt;u38</title>
<path fill="none" stroke="black" d="M4371.51,-2383.13C4471.38,-2341.53 4729.21,-2234.14 4838.19,-2188.75"/>
<polygon fill="black" stroke="black" points="4839.76,-2191.88 4847.65,-2184.81 4837.07,-2185.42 4839.76,-2191.88"/>
</g>
<!-- u20&#45;&gt;u28 -->
<g id="edge31" class="edge">
<title>u20&#45;&gt;u28</title>
<path fill="none" stroke="black" d="M3579.6,-1914.87C3599.85,-1874.56 3650.6,-1773.49 3674.78,-1725.32"/>
<polygon fill="black" stroke="black" points="3678.02,-1726.67 3679.38,-1716.16 3671.77,-1723.52 3678.02,-1726.67"/>
</g>
<!-- u43 -->
<g id="node35" class="node">
<title>u43</title>
<ellipse fill="#ffbbff" stroke="black" cx="1884" cy="-2167" rx="228.56" ry="18"/>
<text text-anchor="middle" x="1884" y="-2163.3" font-family="Times,serif" font-size="14.00">Language.Drasil.Code.Imperative.Build.Import</text>
</g>
<!-- u42 -->
<g id="node36" class="node">
<title>u42</title>
<ellipse fill="#ffbbff" stroke="black" cx="1884" cy="-1933" rx="215.56" ry="18"/>
<text text-anchor="middle" x="1884" y="-1929.3" font-family="Times,serif" font-size="14.00">Language.Drasil.Code.Imperative.Build.AST</text>
</g>
<!-- u43&#45;&gt;u42 -->
<g id="edge71" class="edge">
<title>u43&#45;&gt;u42</title>
<path fill="none" stroke="black" d="M1884,-2148.94C1884,-2109.05 1884,-2009.43 1884,-1961.12"/>
<polygon fill="black" stroke="black" points="1887.5,-1961.08 1884,-1951.08 1880.5,-1961.08 1887.5,-1961.08"/>
</g>
<!-- u48 -->
<g id="node37" class="node">
<title>u48</title>
<ellipse fill="#77ff77" stroke="black" cx="2511" cy="-1698" rx="245.06" ry="18"/>
<text text-anchor="middle" x="2511" y="-1694.3" font-family="Times,serif" font-size="14.00">Language.Drasil.Code.Imperative.Doxygen.Import</text>
</g>
<!-- u48&#45;&gt;u8 -->
<g id="edge80" class="edge">
<title>u48&#45;&gt;u8</title>
<path fill="none" stroke="black" d="M2529.24,-1679.86C2604.82,-1608.85 2893.56,-1337.58 2981.46,-1255"/>
<polygon fill="black" stroke="black" points="2983.96,-1257.45 2988.86,-1248.05 2979.17,-1252.34 2983.96,-1257.45"/>
</g>
<!-- u37 -->
<g id="node38" class="node">
<title>u37</title>
<ellipse fill="#ffff77" stroke="black" cx="2943" cy="-2167" rx="289.45" ry="18"/>
<text text-anchor="middle" x="2943" y="-2163.3" font-family="Times,serif" font-size="14.00">Language.Drasil.Code.Imperative.GOOL.LanguageRenderer</text>
</g>
<!-- u29&#45;&gt;u8 -->
<g id="edge43" class="edge">
<title>u29&#45;&gt;u8</title>
<path fill="none" stroke="black" d="M3031.72,-1679.83C3013.06,-1644.21 2971.54,-1559.19 2957,-1482 2941.52,-1399.83 2975.82,-1302.83 2995.08,-1257.21"/>
<polygon fill="black" stroke="black" points="2998.29,-1258.59 2999.05,-1248.02 2991.87,-1255.81 2998.29,-1258.59"/>
</g>
<!-- u36&#45;&gt;u30 -->
<g id="edge57" class="edge">
<title>u36&#45;&gt;u30</title>
<path fill="none" stroke="black" d="M2589.18,-2616.94C2568.41,-2576.8 2516.36,-2476.17 2491.56,-2428.21"/>
<polygon fill="black" stroke="black" points="2494.54,-2426.36 2486.84,-2419.08 2488.32,-2429.57 2494.54,-2426.36"/>
</g>
<!-- u32 -->
<g id="node45" class="node">
<title>u32</title>
<ellipse fill="#7777ff" stroke="black" cx="1844" cy="-2401" rx="393.73" ry="18"/>
<text text-anchor="middle" x="1844" y="-2397.3" font-family="Times,serif" font-size="14.00">Language.Drasil.Code.Imperative.GOOL.LanguageRenderer.LanguagePolymorphic</text>
</g>
<!-- u36&#45;&gt;u32 -->
<g id="edge58" class="edge">
<title>u36&#45;&gt;u32</title>
<path fill="none" stroke="black" d="M2543.17,-2617.13C2407.1,-2575.26 2054.45,-2466.75 1908.6,-2421.88"/>
<polygon fill="black" stroke="black" points="1909.47,-2418.48 1898.88,-2418.89 1907.41,-2425.17 1909.47,-2418.48"/>
</g>
<!-- u35&#45;&gt;u30 -->
<g id="edge55" class="edge">
<title>u35&#45;&gt;u30</title>
<path fill="none" stroke="black" d="M3274.88,-2617.22C3119.17,-2575.17 2712.96,-2465.46 2548.58,-2421.06"/>
<polygon fill="black" stroke="black" points="2549.14,-2417.59 2538.58,-2418.36 2547.32,-2424.35 2549.14,-2417.59"/>
</g>
<!-- u35&#45;&gt;u32 -->
<g id="edge56" class="edge">
<title>u35&#45;&gt;u32</title>
<path fill="none" stroke="black" d="M3232.31,-2617.73C2961.94,-2575.72 2241.83,-2463.82 1959.68,-2419.98"/>
<polygon fill="black" stroke="black" points="1959.84,-2416.46 1949.42,-2418.38 1958.77,-2423.38 1959.84,-2416.46"/>
</g>
<!-- u34&#45;&gt;u30 -->
<g id="edge53" class="edge">
<title>u34&#45;&gt;u30</title>
<path fill="none" stroke="black" d="M537.58,-2618.33C918.85,-2575.82 1968.88,-2458.76 2343.24,-2417.02"/>
<polygon fill="black" stroke="black" points="2343.75,-2420.49 2353.3,-2415.9 2342.98,-2413.53 2343.75,-2420.49"/>
</g>
<!-- u34&#45;&gt;u32 -->
<g id="edge54" class="edge">
<title>u34&#45;&gt;u32</title>
<path fill="none" stroke="black" d="M498.75,-2617.69C760.87,-2575.66 1457.79,-2463.92 1731.45,-2420.05"/>
<polygon fill="black" stroke="black" points="1732.08,-2423.49 1741.4,-2418.45 1730.97,-2416.58 1732.08,-2423.49"/>
</g>
<!-- u33&#45;&gt;u30 -->
<g id="edge51" class="edge">
<title>u33&#45;&gt;u30</title>
<path fill="none" stroke="black" d="M1231.56,-2617.64C1476.11,-2575.33 2127.75,-2462.6 2378.1,-2419.28"/>
<polygon fill="black" stroke="black" points="2379.02,-2422.68 2388.28,-2417.52 2377.83,-2415.78 2379.02,-2422.68"/>
</g>
<!-- u33&#45;&gt;u32 -->
<g id="edge52" class="edge">
<title>u33&#45;&gt;u32</title>
<path fill="none" stroke="black" d="M1188.42,-2617.13C1315.8,-2575.33 1645.61,-2467.1 1782.76,-2422.09"/>
<polygon fill="black" stroke="black" points="1783.89,-2425.41 1792.3,-2418.96 1781.71,-2418.76 1783.89,-2425.41"/>
</g>
<!-- u32&#45;&gt;u47 -->
<g id="edge49" class="edge">
<title>u32&#45;&gt;u47</title>
<path fill="none" stroke="black" d="M1885.03,-2382.94C1985.44,-2341.19 2243.26,-2234 2352.21,-2188.7"/>
<polygon fill="black" stroke="black" points="2353.77,-2191.84 2361.66,-2184.77 2351.08,-2185.38 2353.77,-2191.84"/>
</g>
<!-- u32&#45;&gt;u26 -->
<g id="edge46" class="edge">
<title>u32&#45;&gt;u26</title>
<path fill="none" stroke="black" d="M1820,-2382.91C1776.31,-2350.22 1684.73,-2274.12 1646,-2185 1601.42,-2082.39 1627,-2045.87 1627,-1934 1627,-1934 1627,-1934 1627,-995 1627,-812.96 1757.46,-621.13 1808.17,-553.44"/>
<polygon fill="black" stroke="black" points="1811.25,-555.17 1814.5,-545.08 1805.67,-550.94 1811.25,-555.17"/>
</g>
<!-- u32&#45;&gt;u43 -->
<g id="edge48" class="edge">
<title>u32&#45;&gt;u43</title>
<path fill="none" stroke="black" d="M1846.94,-2382.94C1853.82,-2343.05 1871,-2243.43 1879.32,-2195.12"/>
<polygon fill="black" stroke="black" points="1882.8,-2195.53 1881.05,-2185.08 1875.91,-2194.34 1882.8,-2195.53"/>
</g>
<!-- u32&#45;&gt;u48 -->
<g id="edge50" class="edge">
<title>u32&#45;&gt;u48</title>
<path fill="none" stroke="black" d="M1870.17,-2382.88C1921.47,-2348.67 2037.61,-2268 2122,-2185 2284.16,-2025.53 2442.59,-1799.82 2493.83,-1724.54"/>
<polygon fill="black" stroke="black" points="2496.83,-1726.36 2499.55,-1716.12 2491.04,-1722.43 2496.83,-1726.36"/>
</g>
<!-- u32&#45;&gt;u37 -->
<g id="edge47" class="edge">
<title>u32&#45;&gt;u37</title>
<path fill="none" stroke="black" d="M1923.04,-2383.32C2122.79,-2341.15 2646.75,-2230.54 2855.42,-2186.49"/>
<polygon fill="black" stroke="black" points="2856.35,-2189.87 2865.41,-2184.38 2854.91,-2183.02 2856.35,-2189.87"/>
</g>
<!-- u31&#45;&gt;u30 -->
<g id="edge44" class="edge">
<title>u31&#45;&gt;u30</title>
<path fill="none" stroke="black" d="M1911.43,-2617.13C2021.35,-2575.39 2305.65,-2467.44 2424.52,-2422.31"/>
<polygon fill="black" stroke="black" points="2426.04,-2425.47 2434.14,-2418.65 2423.55,-2418.93 2426.04,-2425.47"/>
</g>
<!-- u31&#45;&gt;u32 -->
<g id="edge45" class="edge">
<title>u31&#45;&gt;u32</title>
<path fill="none" stroke="black" d="M1865.31,-2616.94C1861.35,-2577.05 1851.48,-2477.43 1846.69,-2429.12"/>
<polygon fill="black" stroke="black" points="1850.16,-2428.69 1845.69,-2419.08 1843.2,-2429.38 1850.16,-2428.69"/>
</g>
<!-- u23 -->
<g id="node47" class="node">
<title>u23</title>
<ellipse fill="#ff7777" stroke="black" cx="2986" cy="-2401" rx="267.55" ry="18"/>
<text text-anchor="middle" x="2986" y="-2397.3" font-family="Times,serif" font-size="14.00">Language.Drasil.Code.Imperative.Parsers.ConfigParser</text>
</g>
<!-- u23&#45;&gt;u37 -->
<g id="edge35" class="edge">
<title>u23&#45;&gt;u37</title>
<path fill="none" stroke="black" d="M2982.84,-2382.94C2975.45,-2343.05 2956.98,-2243.43 2948.03,-2195.12"/>
<polygon fill="black" stroke="black" points="2951.43,-2194.28 2946.17,-2185.08 2944.55,-2195.55 2951.43,-2194.28"/>
</g>
<!-- u14&#45;&gt;u50 -->
<g id="edge23" class="edge">
<title>u14&#45;&gt;u50</title>
<path fill="none" stroke="black" d="M3046.78,-978.06C2977.83,-936.65 2800.78,-830.33 2723.74,-784.06"/>
<polygon fill="black" stroke="black" points="2725.23,-780.87 2714.85,-778.72 2721.62,-786.87 2725.23,-780.87"/>
</g>
<!-- u14&#45;&gt;u19 -->
<g id="edge22" class="edge">
<title>u14&#45;&gt;u19</title>
<path fill="none" stroke="black" d="M3073.31,-977.87C3069.35,-937.81 3059.48,-837.75 3054.69,-789.23"/>
<polygon fill="black" stroke="black" points="3058.16,-788.77 3053.69,-779.16 3051.19,-789.45 3058.16,-788.77"/>
</g>
<!-- u14&#45;&gt;u17 -->
<g id="edge21" class="edge">
<title>u14&#45;&gt;u17</title>
<path fill="none" stroke="black" d="M3103.58,-978.06C3173.34,-936.7 3352.32,-830.59 3430.51,-784.23"/>
<polygon fill="black" stroke="black" points="3432.71,-786.99 3439.53,-778.88 3429.14,-780.97 3432.71,-786.99"/>
</g>
<!-- u14&#45;&gt;u13 -->
<g id="edge20" class="edge">
<title>u14&#45;&gt;u13</title>
<path fill="none" stroke="black" d="M3127.49,-978.8C3262.83,-937.04 3623.13,-825.84 3768.2,-781.07"/>
<polygon fill="black" stroke="black" points="3769.33,-784.39 3777.86,-778.09 3767.27,-777.7 3769.33,-784.39"/>
</g>
<!-- u13&#45;&gt;u10 -->
<g id="edge19" class="edge">
<title>u13&#45;&gt;u10</title>
<path fill="none" stroke="black" d="M3811.15,-743.04C3706.81,-649.16 3200.27,-193.41 3078.41,-83.76"/>
<polygon fill="black" stroke="black" points="3080.72,-81.13 3070.95,-77.05 3076.04,-86.34 3080.72,-81.13"/>
</g>
<!-- u5 -->
<g id="node50" class="node">
<title>u5</title>
<ellipse fill="#ff77ff" stroke="black" cx="4501" cy="-3104" rx="75.29" ry="18"/>
<text text-anchor="middle" x="4501" y="-3100.3" font-family="Times,serif" font-size="14.00">Test.FileTests</text>
</g>
<!-- u4 -->
<g id="node51" class="node">
<title>u4</title>
<ellipse fill="#ff77ff" stroke="black" cx="4681" cy="-3104" rx="87.18" ry="18"/>
<text text-anchor="middle" x="4681" y="-3100.3" font-family="Times,serif" font-size="14.00">Test.PatternTest</text>
</g>
<!-- u1 -->
<g id="node54" class="node">
<title>u1</title>
<ellipse fill="#ff77ff" stroke="black" cx="4681" cy="-2870" rx="76.09" ry="18"/>
<text text-anchor="middle" x="4681" y="-2866.3" font-family="Times,serif" font-size="14.00">Test.Observer</text>
</g>
<!-- u4&#45;&gt;u1 -->
<g id="edge6" class="edge">
<title>u4&#45;&gt;u1</title>
<path fill="none" stroke="black" d="M4681,-3085.94C4681,-3046.05 4681,-2946.43 4681,-2898.12"/>
<polygon fill="black" stroke="black" points="4684.5,-2898.08 4681,-2888.08 4677.5,-2898.08 4684.5,-2898.08"/>
</g>
<!-- u3 -->
<g id="node52" class="node">
<title>u3</title>
<ellipse fill="#ff77ff" stroke="black" cx="4422" cy="-2870" rx="64.99" ry="18"/>
<text text-anchor="middle" x="4422" y="-2866.3" font-family="Times,serif" font-size="14.00">Test.Helper</text>
</g>
<!-- u2 -->
<g id="node53" class="node">
<title>u2</title>
<ellipse fill="#ff77ff" stroke="black" cx="4411" cy="-3338" rx="56.59" ry="18"/>
<text text-anchor="middle" x="4411" y="-3334.3" font-family="Times,serif" font-size="14.00">Test.Main</text>
</g>
<!-- u2&#45;&gt;u7 -->
<g id="edge5" class="edge">
<title>u2&#45;&gt;u7</title>
<path fill="none" stroke="black" d="M4358.5,-3331.18C4081.67,-3300.48 2790.04,-3157.24 2418.94,-3116.08"/>
<polygon fill="black" stroke="black" points="2419.09,-3112.58 2408.76,-3114.95 2418.32,-3119.54 2419.09,-3112.58"/>
</g>
<!-- u2&#45;&gt;u5 -->
<g id="edge4" class="edge">
<title>u2&#45;&gt;u5</title>
<path fill="none" stroke="black" d="M4417.62,-3319.94C4433.16,-3279.89 4472.06,-3179.59 4490.72,-3131.51"/>
<polygon fill="black" stroke="black" points="4494.02,-3132.67 4494.37,-3122.08 4487.49,-3130.14 4494.02,-3132.67"/>
</g>
<!-- u2&#45;&gt;u4 -->
<g id="edge3" class="edge">
<title>u2&#45;&gt;u4</title>
<path fill="none" stroke="black" d="M4429.99,-3320.69C4477.03,-3280.27 4599.11,-3175.37 4653.8,-3128.37"/>
<polygon fill="black" stroke="black" points="4656.37,-3130.78 4661.67,-3121.61 4651.81,-3125.47 4656.37,-3130.78"/>
</g>
<!-- u0 -->
<g id="node55" class="node">
<title>u0</title>
<ellipse fill="#ff77ff" stroke="black" cx="4322" cy="-3104" rx="85.29" ry="18"/>
<text text-anchor="middle" x="4322" y="-3100.3" font-family="Times,serif" font-size="14.00">Test.HelloWorld</text>
</g>
<!-- u2&#45;&gt;u0 -->
<g id="edge2" class="edge">
<title>u2&#45;&gt;u0</title>
<path fill="none" stroke="black" d="M4404.46,-3319.94C4389.09,-3279.89 4350.61,-3179.59 4332.17,-3131.51"/>
<polygon fill="black" stroke="black" points="4335.4,-3130.17 4328.55,-3122.08 4328.87,-3132.67 4335.4,-3130.17"/>
</g>
<!-- u0&#45;&gt;u3 -->
<g id="edge1" class="edge">
<title>u0&#45;&gt;u3</title>
<path fill="none" stroke="black" d="M4329.35,-3085.94C4346.62,-3045.89 4389.85,-2945.59 4410.57,-2897.51"/>
<polygon fill="black" stroke="black" points="4413.89,-2898.65 4414.64,-2888.08 4407.46,-2895.88 4413.89,-2898.65"/>
</g>
</g>
</svg>
