<?xml version="1.0" encoding="UTF-8" standalone="no"?>
<!DOCTYPE svg PUBLIC "-//W3C//DTD SVG 1.1//EN"
 "http://www.w3.org/Graphics/SVG/1.1/DTD/svg11.dtd">
<!-- Generated by graphviz version 2.43.0 (0)
 -->
<!-- Title: G Pages: 1 -->
<svg width="432pt" height="282pt"
 viewBox="0.00 0.00 432.00 282.19" xmlns="http://www.w3.org/2000/svg" xmlns:xlink="http://www.w3.org/1999/xlink">
<g id="graph0" class="graph" transform="scale(0.14 0.14) rotate(0) translate(4 1961.33)">
<title>G</title>
<polygon fill="white" stroke="transparent" points="-4,4 -4,-1961.33 3004.71,-1961.33 3004.71,4 -4,4"/>
<!-- u1 -->
<g id="node1" class="node">
<title>u1</title>
<ellipse fill="#bbffbb" stroke="black" cx="1025.71" cy="-1762" rx="69.59" ry="18"/>
<text text-anchor="middle" x="1025.71" y="-1758.3" font-family="Times,serif" font-size="14.00">Drasil.GOOL</text>
</g>
<!-- u4 -->
<g id="node15" class="node">
<title>u4</title>
<ellipse fill="#ffffbb" stroke="black" cx="425.71" cy="-1292" rx="128.08" ry="18"/>
<text text-anchor="middle" x="425.71" y="-1288.3" font-family="Times,serif" font-size="14.00">Drasil.GOOL.CodeInfoOO</text>
</g>
<!-- u1&#45;&gt;u4 -->
<g id="edge3" class="edge">
<title>u1&#45;&gt;u4</title>
<path fill="none" stroke="black" d="M958.84,-1756.78C745,-1742.61 88.25,-1693.62 26.71,-1623 -93.24,-1485.33 228.36,-1358.37 366.33,-1311.8"/>
<polygon fill="black" stroke="black" points="367.56,-1315.08 375.94,-1308.59 365.34,-1308.44 367.56,-1315.08"/>
</g>
<!-- u20 -->
<g id="node18" class="node">
<title>u20</title>
<ellipse fill="#bbbbff" stroke="black" cx="260.71" cy="-1605" rx="224.76" ry="18"/>
<text text-anchor="middle" x="260.71" y="-1601.3" font-family="Times,serif" font-size="14.00">Drasil.GOOL.LanguageRenderer.CppRenderer</text>
</g>
<!-- u1&#45;&gt;u20 -->
<g id="edge8" class="edge">
<title>u1&#45;&gt;u20</title>
<path fill="none" stroke="black" d="M972.83,-1750.29C843.31,-1724.04 509.11,-1656.33 348.91,-1623.87"/>
<polygon fill="black" stroke="black" points="349.57,-1620.43 339.08,-1621.88 348.18,-1627.29 349.57,-1620.43"/>
</g>
<!-- u18 -->
<g id="node20" class="node">
<title>u18</title>
<ellipse fill="#bbbbff" stroke="black" cx="1741.71" cy="-1605" rx="230.96" ry="18"/>
<text text-anchor="middle" x="1741.71" y="-1601.3" font-family="Times,serif" font-size="14.00">Drasil.GOOL.LanguageRenderer.SwiftRenderer</text>
</g>
<!-- u1&#45;&gt;u18 -->
<g id="edge7" class="edge">
<title>u1&#45;&gt;u18</title>
<path fill="none" stroke="black" d="M1077.21,-1749.85C1199.37,-1723.41 1507.68,-1656.66 1657.46,-1624.24"/>
<polygon fill="black" stroke="black" points="1658.49,-1627.6 1667.53,-1622.06 1657.01,-1620.76 1658.49,-1627.6"/>
</g>
<!-- u17 -->
<g id="node21" class="node">
<title>u17</title>
<ellipse fill="#bbbbff" stroke="black" cx="782.71" cy="-1605" rx="241.26" ry="18"/>
<text text-anchor="middle" x="782.71" y="-1601.3" font-family="Times,serif" font-size="14.00">Drasil.GOOL.LanguageRenderer.CSharpRenderer</text>
</g>
<!-- u1&#45;&gt;u17 -->
<g id="edge6" class="edge">
<title>u1&#45;&gt;u17</title>
<path fill="none" stroke="black" d="M1000.62,-1745C957.16,-1717.27 867.73,-1660.23 818.02,-1628.52"/>
<polygon fill="black" stroke="black" points="819.82,-1625.52 809.51,-1623.09 816.06,-1631.42 819.82,-1625.52"/>
</g>
<!-- u16 -->
<g id="node22" class="node">
<title>u16</title>
<ellipse fill="#bbbbff" stroke="black" cx="1267.71" cy="-1605" rx="225.56" ry="18"/>
<text text-anchor="middle" x="1267.71" y="-1601.3" font-family="Times,serif" font-size="14.00">Drasil.GOOL.LanguageRenderer.JavaRenderer</text>
</g>
<!-- u1&#45;&gt;u16 -->
<g id="edge5" class="edge">
<title>u1&#45;&gt;u16</title>
<path fill="none" stroke="black" d="M1050.7,-1745C1093.99,-1717.27 1183.04,-1660.23 1232.56,-1628.52"/>
<polygon fill="black" stroke="black" points="1234.5,-1631.43 1241.03,-1623.09 1230.72,-1625.54 1234.5,-1631.43"/>
</g>
<!-- u15 -->
<g id="node23" class="node">
<title>u15</title>
<ellipse fill="#bbbbff" stroke="black" cx="2229.71" cy="-1605" rx="239.36" ry="18"/>
<text text-anchor="middle" x="2229.71" y="-1601.3" font-family="Times,serif" font-size="14.00">Drasil.GOOL.LanguageRenderer.PythonRenderer</text>
</g>
<!-- u1&#45;&gt;u15 -->
<g id="edge4" class="edge">
<title>u1&#45;&gt;u15</title>
<path fill="none" stroke="black" d="M1086.66,-1753.15C1274.76,-1728.94 1848.89,-1655.03 2104.58,-1622.11"/>
<polygon fill="black" stroke="black" points="2105.19,-1625.56 2114.66,-1620.81 2104.29,-1618.62 2105.19,-1625.56"/>
</g>
<!-- u0 -->
<g id="node2" class="node">
<title>u0</title>
<ellipse fill="#bbffbb" stroke="black" cx="2872.71" cy="-1918" rx="69.59" ry="18"/>
<text text-anchor="middle" x="2872.71" y="-1914.3" font-family="Times,serif" font-size="14.00">Drasil.GProc</text>
</g>
<!-- u6 -->
<g id="node13" class="node">
<title>u6</title>
<ellipse fill="#ffffbb" stroke="black" cx="2677.71" cy="-822" rx="134.58" ry="18"/>
<text text-anchor="middle" x="2677.71" y="-818.3" font-family="Times,serif" font-size="14.00">Drasil.GOOL.CodeInfoProc</text>
</g>
<!-- u0&#45;&gt;u6 -->
<g id="edge1" class="edge">
<title>u0&#45;&gt;u6</title>
<path fill="none" stroke="black" d="M2885.22,-1900.14C2917.43,-1854.98 3000.71,-1726.57 3000.71,-1606 3000.71,-1606 3000.71,-1606 3000.71,-1134 3000.71,-984.2 2818.19,-883.87 2727.56,-843.29"/>
<polygon fill="black" stroke="black" points="2728.86,-840.04 2718.3,-839.21 2726.03,-846.44 2728.86,-840.04"/>
</g>
<!-- u14 -->
<g id="node24" class="node">
<title>u14</title>
<ellipse fill="#bbbbff" stroke="black" cx="2620.71" cy="-1762" rx="226.66" ry="18"/>
<text text-anchor="middle" x="2620.71" y="-1758.3" font-family="Times,serif" font-size="14.00">Drasil.GOOL.LanguageRenderer.JuliaRenderer</text>
</g>
<!-- u0&#45;&gt;u14 -->
<g id="edge2" class="edge">
<title>u0&#45;&gt;u14</title>
<path fill="none" stroke="black" d="M2846.7,-1901.1C2801.62,-1873.55 2708.88,-1816.88 2657.32,-1785.37"/>
<polygon fill="black" stroke="black" points="2658.86,-1782.21 2648.5,-1779.98 2655.21,-1788.18 2658.86,-1782.21"/>
</g>
<!-- u28 -->
<g id="node3" class="node">
<title>u28</title>
<ellipse fill="#ffffbb" stroke="black" cx="2433.71" cy="-665" rx="135.38" ry="18"/>
<text text-anchor="middle" x="2433.71" y="-661.3" font-family="Times,serif" font-size="14.00">Drasil.GOOL.InterfaceProc</text>
</g>
<!-- u5 -->
<g id="node14" class="node">
<title>u5</title>
<ellipse fill="#ffffbb" stroke="black" cx="2088.71" cy="-509" rx="155.17" ry="18"/>
<text text-anchor="middle" x="2088.71" y="-505.3" font-family="Times,serif" font-size="14.00">Drasil.GOOL.InterfaceCommon</text>
</g>
<!-- u28&#45;&gt;u5 -->
<g id="edge50" class="edge">
<title>u28&#45;&gt;u5</title>
<path fill="none" stroke="black" d="M2397.12,-647.67C2333.93,-619.46 2204.49,-561.68 2135.09,-530.7"/>
<polygon fill="black" stroke="black" points="2136.27,-527.4 2125.71,-526.52 2133.42,-533.79 2136.27,-527.4"/>
</g>
<!-- u27 -->
<g id="node4" class="node">
<title>u27</title>
<ellipse fill="#ffffbb" stroke="black" cx="1409.71" cy="-979" rx="161.37" ry="18"/>
<text text-anchor="middle" x="1409.71" y="-975.3" font-family="Times,serif" font-size="14.00">Drasil.GOOL.LanguageRenderer</text>
</g>
<!-- u7 -->
<g id="node12" class="node">
<title>u7</title>
<ellipse fill="#ffffbb" stroke="black" cx="1737.71" cy="-822" rx="165.17" ry="18"/>
<text text-anchor="middle" x="1737.71" y="-818.3" font-family="Times,serif" font-size="14.00">Drasil.GOOL.RendererClassesOO</text>
</g>
<!-- u27&#45;&gt;u7 -->
<g id="edge49" class="edge">
<title>u27&#45;&gt;u7</title>
<path fill="none" stroke="black" d="M1444.82,-961.41C1504.83,-933.05 1627.06,-875.29 1693.05,-844.1"/>
<polygon fill="black" stroke="black" points="1694.82,-847.14 1702.37,-839.7 1691.83,-840.81 1694.82,-847.14"/>
</g>
<!-- u26 -->
<g id="node5" class="node">
<title>u26</title>
<ellipse fill="#ffffbb" stroke="black" cx="2269.71" cy="-196" rx="133.78" ry="18"/>
<text text-anchor="middle" x="2269.71" y="-192.3" font-family="Times,serif" font-size="14.00">Drasil.GOOL.CodeAnalysis</text>
</g>
<!-- u25 -->
<g id="node6" class="node">
<title>u25</title>
<ellipse fill="#ffffbb" stroke="black" cx="2353.71" cy="-822" rx="171.67" ry="18"/>
<text text-anchor="middle" x="2353.71" y="-818.3" font-family="Times,serif" font-size="14.00">Drasil.GOOL.RendererClassesProc</text>
</g>
<!-- u25&#45;&gt;u28 -->
<g id="edge48" class="edge">
<title>u25&#45;&gt;u28</title>
<path fill="none" stroke="black" d="M2362.58,-803.82C2376.52,-776.82 2403.65,-724.25 2420.08,-692.42"/>
<polygon fill="black" stroke="black" points="2423.33,-693.75 2424.81,-683.26 2417.11,-690.54 2423.33,-693.75"/>
</g>
<!-- u21 -->
<g id="node10" class="node">
<title>u21</title>
<ellipse fill="#ffffbb" stroke="black" cx="2088.71" cy="-665" rx="191.97" ry="18"/>
<text text-anchor="middle" x="2088.71" y="-661.3" font-family="Times,serif" font-size="14.00">Drasil.GOOL.RendererClassesCommon</text>
</g>
<!-- u25&#45;&gt;u21 -->
<g id="edge47" class="edge">
<title>u25&#45;&gt;u21</title>
<path fill="none" stroke="black" d="M2324.85,-804.12C2276.66,-775.93 2179.86,-719.31 2126.37,-688.03"/>
<polygon fill="black" stroke="black" points="2127.94,-684.89 2117.54,-682.86 2124.41,-690.93 2127.94,-684.89"/>
</g>
<!-- u24 -->
<g id="node7" class="node">
<title>u24</title>
<ellipse fill="#ffffbb" stroke="black" cx="2026.71" cy="-196" rx="90.98" ry="18"/>
<text text-anchor="middle" x="2026.71" y="-192.3" font-family="Times,serif" font-size="14.00">Drasil.GOOL.AST</text>
</g>
<!-- u8 -->
<g id="node11" class="node">
<title>u8</title>
<ellipse fill="#ffffbb" stroke="black" cx="2228.71" cy="-39" rx="118.08" ry="18"/>
<text text-anchor="middle" x="2228.71" y="-35.3" font-family="Times,serif" font-size="14.00">Drasil.GOOL.CodeType</text>
</g>
<!-- u24&#45;&gt;u8 -->
<g id="edge46" class="edge">
<title>u24&#45;&gt;u8</title>
<path fill="none" stroke="black" d="M2048.33,-178.41C2084.61,-150.58 2157.8,-94.41 2198.93,-62.86"/>
<polygon fill="black" stroke="black" points="2201.14,-65.57 2206.95,-56.7 2196.88,-60.01 2201.14,-65.57"/>
</g>
<!-- u23 -->
<g id="node8" class="node">
<title>u23</title>
<ellipse fill="#ffffbb" stroke="black" cx="2088.71" cy="-352" rx="96.68" ry="18"/>
<text text-anchor="middle" x="2088.71" y="-348.3" font-family="Times,serif" font-size="14.00">Drasil.GOOL.State</text>
</g>
<!-- u23&#45;&gt;u26 -->
<g id="edge45" class="edge">
<title>u23&#45;&gt;u26</title>
<path fill="none" stroke="black" d="M2108.43,-334.23C2140.71,-306.76 2204.95,-252.11 2241.87,-220.69"/>
<polygon fill="black" stroke="black" points="2244.4,-223.13 2249.75,-213.99 2239.86,-217.8 2244.4,-223.13"/>
</g>
<!-- u23&#45;&gt;u24 -->
<g id="edge44" class="edge">
<title>u23&#45;&gt;u24</title>
<path fill="none" stroke="black" d="M2081.84,-333.93C2071.09,-307.22 2050.2,-255.33 2037.45,-223.66"/>
<polygon fill="black" stroke="black" points="2040.6,-222.11 2033.62,-214.15 2034.11,-224.73 2040.6,-222.11"/>
</g>
<!-- u22 -->
<g id="node9" class="node">
<title>u22</title>
<ellipse fill="#ffffbb" stroke="black" cx="260.71" cy="-1448" rx="107.48" ry="18"/>
<text text-anchor="middle" x="260.71" y="-1444.3" font-family="Times,serif" font-size="14.00">Drasil.GOOL.Classes</text>
</g>
<!-- u21&#45;&gt;u5 -->
<g id="edge43" class="edge">
<title>u21&#45;&gt;u5</title>
<path fill="none" stroke="black" d="M2088.71,-646.93C2088.71,-620.45 2088.71,-569.22 2088.71,-537.49"/>
<polygon fill="black" stroke="black" points="2092.21,-537.15 2088.71,-527.15 2085.21,-537.15 2092.21,-537.15"/>
</g>
<!-- u7&#45;&gt;u21 -->
<g id="edge17" class="edge">
<title>u7&#45;&gt;u21</title>
<path fill="none" stroke="black" d="M1775.28,-804.41C1839.63,-775.99 1970.83,-718.06 2041.36,-686.91"/>
<polygon fill="black" stroke="black" points="2043.16,-689.94 2050.89,-682.7 2040.33,-683.54 2043.16,-689.94"/>
</g>
<!-- u3 -->
<g id="node16" class="node">
<title>u3</title>
<ellipse fill="#ffffbb" stroke="black" cx="1737.71" cy="-665" rx="141.88" ry="18"/>
<text text-anchor="middle" x="1737.71" y="-661.3" font-family="Times,serif" font-size="14.00">Drasil.GOOL.InterfaceGOOL</text>
</g>
<!-- u7&#45;&gt;u3 -->
<g id="edge16" class="edge">
<title>u7&#45;&gt;u3</title>
<path fill="none" stroke="black" d="M1737.71,-803.82C1737.71,-777.17 1737.71,-725.61 1737.71,-693.66"/>
<polygon fill="black" stroke="black" points="1741.21,-693.26 1737.71,-683.26 1734.21,-693.26 1741.21,-693.26"/>
</g>
<!-- u6&#45;&gt;u28 -->
<g id="edge15" class="edge">
<title>u6&#45;&gt;u28</title>
<path fill="none" stroke="black" d="M2651.14,-804.12C2606.95,-776.05 2518.37,-719.78 2469,-688.42"/>
<polygon fill="black" stroke="black" points="2470.58,-685.27 2460.26,-682.86 2466.82,-691.18 2470.58,-685.27"/>
</g>
<!-- u2 -->
<g id="node17" class="node">
<title>u2</title>
<ellipse fill="#ffffbb" stroke="black" cx="2431.71" cy="-509" rx="108.58" ry="18"/>
<text text-anchor="middle" x="2431.71" y="-505.3" font-family="Times,serif" font-size="14.00">Drasil.GOOL.Helpers</text>
</g>
<!-- u6&#45;&gt;u2 -->
<g id="edge14" class="edge">
<title>u6&#45;&gt;u2</title>
<path fill="none" stroke="black" d="M2669.87,-803.65C2654.72,-771.1 2619.23,-699.46 2577.71,-647 2542.37,-602.34 2492.46,-558.72 2461.11,-533.11"/>
<polygon fill="black" stroke="black" points="2463.15,-530.26 2453.17,-526.69 2458.74,-535.7 2463.15,-530.26"/>
</g>
<!-- u5&#45;&gt;u23 -->
<g id="edge13" class="edge">
<title>u5&#45;&gt;u23</title>
<path fill="none" stroke="black" d="M2088.71,-490.82C2088.71,-464.17 2088.71,-412.61 2088.71,-380.66"/>
<polygon fill="black" stroke="black" points="2092.21,-380.26 2088.71,-370.26 2085.21,-380.26 2092.21,-380.26"/>
</g>
<!-- u4&#45;&gt;u3 -->
<g id="edge12" class="edge">
<title>u4&#45;&gt;u3</title>
<path fill="none" stroke="black" d="M460.13,-1274.6C642.02,-1187.96 1490.57,-783.73 1693.86,-686.89"/>
<polygon fill="black" stroke="black" points="1695.53,-689.97 1703.05,-682.51 1692.52,-683.65 1695.53,-689.97"/>
</g>
<!-- u3&#45;&gt;u5 -->
<g id="edge11" class="edge">
<title>u3&#45;&gt;u5</title>
<path fill="none" stroke="black" d="M1775.28,-647.52C1839.72,-619.25 1971.18,-561.57 2041.63,-530.66"/>
<polygon fill="black" stroke="black" points="2043.41,-533.7 2051.16,-526.48 2040.59,-527.29 2043.41,-533.7"/>
</g>
<!-- u3&#45;&gt;u2 -->
<g id="edge10" class="edge">
<title>u3&#45;&gt;u2</title>
<path fill="none" stroke="black" d="M1804.89,-649.09C1935.98,-620.01 2224.82,-555.91 2359.7,-525.98"/>
<polygon fill="black" stroke="black" points="2360.52,-529.38 2369.53,-523.8 2359.01,-522.55 2360.52,-529.38"/>
</g>
<!-- u2&#45;&gt;u8 -->
<g id="edge9" class="edge">
<title>u2&#45;&gt;u8</title>
<path fill="none" stroke="black" d="M2435.47,-490.89C2445.75,-439.69 2469.96,-284.7 2412.71,-178 2382.84,-122.32 2319.6,-82.75 2275.65,-60.64"/>
<polygon fill="black" stroke="black" points="2277.1,-57.46 2266.58,-56.19 2274.02,-63.74 2277.1,-57.46"/>
</g>
<!-- u20&#45;&gt;u22 -->
<g id="edge42" class="edge">
<title>u20&#45;&gt;u22</title>
<path fill="none" stroke="black" d="M260.71,-1586.82C260.71,-1560.17 260.71,-1508.61 260.71,-1476.66"/>
<polygon fill="black" stroke="black" points="264.21,-1476.26 260.71,-1466.26 257.21,-1476.26 264.21,-1476.26"/>
</g>
<!-- u13 -->
<g id="node25" class="node">
<title>u13</title>
<ellipse fill="#bbbbff" stroke="black" cx="1737.71" cy="-1448" rx="196.87" ry="18"/>
<text text-anchor="middle" x="1737.71" y="-1444.3" font-family="Times,serif" font-size="14.00">Drasil.GOOL.LanguageRenderer.Macros</text>
</g>
<!-- u20&#45;&gt;u13 -->
<g id="edge41" class="edge">
<title>u20&#45;&gt;u13</title>
<path fill="none" stroke="black" d="M391.14,-1590.31C669.95,-1561.05 1321.48,-1492.68 1603.57,-1463.08"/>
<polygon fill="black" stroke="black" points="1604.28,-1466.52 1613.86,-1462 1603.55,-1459.56 1604.28,-1466.52"/>
</g>
<!-- u11 -->
<g id="node27" class="node">
<title>u11</title>
<ellipse fill="#bbbbff" stroke="black" cx="1269.71" cy="-1448" rx="251.56" ry="18"/>
<text text-anchor="middle" x="1269.71" y="-1444.3" font-family="Times,serif" font-size="14.00">Drasil.GOOL.LanguageRenderer.CommonPseudoOO</text>
</g>
<!-- u20&#45;&gt;u11 -->
<g id="edge40" class="edge">
<title>u20&#45;&gt;u11</title>
<path fill="none" stroke="black" d="M359.76,-1588.78C548.88,-1559.73 960.19,-1496.55 1158.45,-1466.09"/>
<polygon fill="black" stroke="black" points="1159.25,-1469.51 1168.6,-1464.53 1158.18,-1462.59 1159.25,-1469.51"/>
</g>
<!-- u10 -->
<g id="node28" class="node">
<title>u10</title>
<ellipse fill="#bbbbff" stroke="black" cx="795.71" cy="-1448" rx="189.27" ry="18"/>
<text text-anchor="middle" x="795.71" y="-1444.3" font-family="Times,serif" font-size="14.00">Drasil.GOOL.LanguageRenderer.CLike</text>
</g>
<!-- u20&#45;&gt;u10 -->
<g id="edge39" class="edge">
<title>u20&#45;&gt;u10</title>
<path fill="none" stroke="black" d="M317.46,-1587.56C417.34,-1558.62 623.98,-1498.76 729.93,-1468.06"/>
<polygon fill="black" stroke="black" points="730.92,-1471.42 739.55,-1465.27 728.97,-1464.69 730.92,-1471.42"/>
</g>
<!-- u19 -->
<g id="node19" class="node">
<title>u19</title>
<ellipse fill="#bbbbff" stroke="black" cx="1269.71" cy="-1135" rx="223.66" ry="18"/>
<text text-anchor="middle" x="1269.71" y="-1131.3" font-family="Times,serif" font-size="14.00">Drasil.GOOL.LanguageRenderer.Constructors</text>
</g>
<!-- u19&#45;&gt;u27 -->
<g id="edge38" class="edge">
<title>u19&#45;&gt;u27</title>
<path fill="none" stroke="black" d="M1285.23,-1116.93C1310.04,-1089.64 1358.74,-1036.07 1387.32,-1004.63"/>
<polygon fill="black" stroke="black" points="1389.99,-1006.9 1394.13,-997.15 1384.81,-1002.19 1389.99,-1006.9"/>
</g>
<!-- u18&#45;&gt;u13 -->
<g id="edge37" class="edge">
<title>u18&#45;&gt;u13</title>
<path fill="none" stroke="black" d="M1741.27,-1586.82C1740.58,-1560.17 1739.25,-1508.61 1738.43,-1476.66"/>
<polygon fill="black" stroke="black" points="1741.92,-1476.16 1738.16,-1466.26 1734.92,-1476.34 1741.92,-1476.16"/>
</g>
<!-- u18&#45;&gt;u11 -->
<g id="edge36" class="edge">
<title>u18&#45;&gt;u11</title>
<path fill="none" stroke="black" d="M1691.2,-1587.41C1603.69,-1558.67 1424.25,-1499.75 1330.23,-1468.87"/>
<polygon fill="black" stroke="black" points="1331.17,-1465.5 1320.58,-1465.7 1328.99,-1472.15 1331.17,-1465.5"/>
</g>
<!-- u18&#45;&gt;u10 -->
<g id="edge35" class="edge">
<title>u18&#45;&gt;u10</title>
<path fill="none" stroke="black" d="M1647.11,-1588.5C1467.8,-1559.12 1079.98,-1495.58 896.2,-1465.46"/>
<polygon fill="black" stroke="black" points="896.7,-1462 886.27,-1463.84 895.57,-1468.91 896.7,-1462"/>
</g>
<!-- u17&#45;&gt;u13 -->
<g id="edge34" class="edge">
<title>u17&#45;&gt;u13</title>
<path fill="none" stroke="black" d="M878.66,-1588.43C1059.68,-1559.05 1450.06,-1495.69 1635.67,-1465.56"/>
<polygon fill="black" stroke="black" points="1636.4,-1468.99 1645.71,-1463.93 1635.27,-1462.08 1636.4,-1468.99"/>
</g>
<!-- u17&#45;&gt;u11 -->
<g id="edge33" class="edge">
<title>u17&#45;&gt;u11</title>
<path fill="none" stroke="black" d="M834.83,-1587.41C925.22,-1558.65 1110.64,-1499.63 1207.57,-1468.78"/>
<polygon fill="black" stroke="black" points="1208.77,-1472.07 1217.24,-1465.7 1206.65,-1465.4 1208.77,-1472.07"/>
</g>
<!-- u17&#45;&gt;u10 -->
<g id="edge32" class="edge">
<title>u17&#45;&gt;u10</title>
<path fill="none" stroke="black" d="M784.16,-1586.82C786.4,-1560.05 790.75,-1508.16 793.43,-1476.25"/>
<polygon fill="black" stroke="black" points="796.92,-1476.51 794.27,-1466.26 789.94,-1475.93 796.92,-1476.51"/>
</g>
<!-- u16&#45;&gt;u13 -->
<g id="edge31" class="edge">
<title>u16&#45;&gt;u13</title>
<path fill="none" stroke="black" d="M1318.01,-1587.41C1405.38,-1558.6 1584.77,-1499.44 1678.19,-1468.63"/>
<polygon fill="black" stroke="black" points="1679.38,-1471.92 1687.78,-1465.47 1677.19,-1465.28 1679.38,-1471.92"/>
</g>
<!-- u16&#45;&gt;u11 -->
<g id="edge30" class="edge">
<title>u16&#45;&gt;u11</title>
<path fill="none" stroke="black" d="M1267.94,-1586.82C1268.28,-1560.17 1268.95,-1508.61 1269.36,-1476.66"/>
<polygon fill="black" stroke="black" points="1272.86,-1476.3 1269.49,-1466.26 1265.86,-1476.21 1272.86,-1476.3"/>
</g>
<!-- u16&#45;&gt;u10 -->
<g id="edge29" class="edge">
<title>u16&#45;&gt;u10</title>
<path fill="none" stroke="black" d="M1217.2,-1587.41C1129.46,-1558.6 949.31,-1499.44 855.49,-1468.63"/>
<polygon fill="black" stroke="black" points="856.46,-1465.26 845.86,-1465.47 854.27,-1471.91 856.46,-1465.26"/>
</g>
<!-- u15&#45;&gt;u13 -->
<g id="edge28" class="edge">
<title>u15&#45;&gt;u13</title>
<path fill="none" stroke="black" d="M2177.06,-1587.41C2085.51,-1558.57 1897.44,-1499.32 1799.73,-1468.54"/>
<polygon fill="black" stroke="black" points="1800.58,-1465.14 1789.99,-1465.47 1798.48,-1471.81 1800.58,-1465.14"/>
</g>
<!-- u15&#45;&gt;u11 -->
<g id="edge27" class="edge">
<title>u15&#45;&gt;u11</title>
<path fill="none" stroke="black" d="M2133.71,-1588.5C1953.29,-1559.37 1564.84,-1496.65 1376.48,-1466.24"/>
<polygon fill="black" stroke="black" points="1376.99,-1462.78 1366.56,-1464.64 1375.87,-1469.69 1376.99,-1462.78"/>
</g>
<!-- u14&#45;&gt;u13 -->
<g id="edge26" class="edge">
<title>u14&#45;&gt;u13</title>
<path fill="none" stroke="black" d="M2607.77,-1743.94C2575.89,-1702.13 2494.93,-1597.17 2477.71,-1587 2377.45,-1527.76 2058.14,-1484.12 1873.37,-1463.07"/>
<polygon fill="black" stroke="black" points="1873.64,-1459.58 1863.31,-1461.93 1872.85,-1466.54 1873.64,-1459.58"/>
</g>
<!-- u12 -->
<g id="node26" class="node">
<title>u12</title>
<ellipse fill="#bbbbff" stroke="black" cx="2748.71" cy="-1605" rx="223.66" ry="18"/>
<text text-anchor="middle" x="2748.71" y="-1601.3" font-family="Times,serif" font-size="14.00">Drasil.GOOL.LanguageRenderer.AbstractProc</text>
</g>
<!-- u14&#45;&gt;u12 -->
<g id="edge25" class="edge">
<title>u14&#45;&gt;u12</title>
<path fill="none" stroke="black" d="M2634.9,-1743.82C2657.49,-1716.47 2701.73,-1662.89 2727.91,-1631.2"/>
<polygon fill="black" stroke="black" points="2730.8,-1633.2 2734.46,-1623.26 2725.4,-1628.74 2730.8,-1633.2"/>
</g>
<!-- u14&#45;&gt;u10 -->
<g id="edge24" class="edge">
<title>u14&#45;&gt;u10</title>
<path fill="none" stroke="black" d="M2412.23,-1754.83C1896.2,-1738.54 596.31,-1690.94 532.71,-1623 465.91,-1551.63 620.24,-1495.17 719.73,-1467.54"/>
<polygon fill="black" stroke="black" points="720.75,-1470.89 729.47,-1464.88 718.9,-1464.14 720.75,-1470.89"/>
</g>
<!-- u13&#45;&gt;u7 -->
<g id="edge23" class="edge">
<title>u13&#45;&gt;u7</title>
<path fill="none" stroke="black" d="M1737.71,-1429.99C1737.71,-1344.05 1737.71,-957.66 1737.71,-850.59"/>
<polygon fill="black" stroke="black" points="1741.21,-850.29 1737.71,-840.29 1734.21,-850.29 1741.21,-850.29"/>
</g>
<!-- u12&#45;&gt;u25 -->
<g id="edge22" class="edge">
<title>u12&#45;&gt;u25</title>
<path fill="none" stroke="black" d="M2727.63,-1586.86C2676.81,-1543.46 2551.71,-1423.38 2551.71,-1293 2551.71,-1293 2551.71,-1293 2551.71,-1134 2551.71,-1009.55 2437.49,-894.74 2382.56,-846.71"/>
<polygon fill="black" stroke="black" points="2384.77,-843.99 2374.9,-840.12 2380.2,-849.3 2384.77,-843.99"/>
</g>
<!-- u12&#45;&gt;u11 -->
<g id="edge21" class="edge">
<title>u12&#45;&gt;u11</title>
<path fill="none" stroke="black" d="M2618.44,-1590.35C2343.06,-1561.49 1703.56,-1494.47 1415.27,-1464.25"/>
<polygon fill="black" stroke="black" points="1415.47,-1460.76 1405.16,-1463.2 1414.74,-1467.72 1415.47,-1460.76"/>
</g>
<!-- u9 -->
<g id="node29" class="node">
<title>u9</title>
<ellipse fill="#bbbbff" stroke="black" cx="1269.71" cy="-1292" rx="265.65" ry="18"/>
<text text-anchor="middle" x="1269.71" y="-1288.3" font-family="Times,serif" font-size="14.00">Drasil.GOOL.LanguageRenderer.LanguagePolymorphic</text>
</g>
<!-- u11&#45;&gt;u9 -->
<g id="edge20" class="edge">
<title>u11&#45;&gt;u9</title>
<path fill="none" stroke="black" d="M1269.71,-1429.93C1269.71,-1403.45 1269.71,-1352.22 1269.71,-1320.49"/>
<polygon fill="black" stroke="black" points="1273.21,-1320.15 1269.71,-1310.15 1266.21,-1320.15 1273.21,-1320.15"/>
</g>
<!-- u10&#45;&gt;u19 -->
<g id="edge19" class="edge">
<title>u10&#45;&gt;u19</title>
<path fill="none" stroke="black" d="M812.35,-1429.92C845.09,-1396.92 921.13,-1323.31 994.71,-1274 1068.34,-1224.67 1162.03,-1181.32 1218.86,-1156.92"/>
<polygon fill="black" stroke="black" points="1220.52,-1160.02 1228.34,-1152.87 1217.77,-1153.58 1220.52,-1160.02"/>
</g>
<!-- u9&#45;&gt;u19 -->
<g id="edge18" class="edge">
<title>u9&#45;&gt;u19</title>
<path fill="none" stroke="black" d="M1269.71,-1273.82C1269.71,-1247.17 1269.71,-1195.61 1269.71,-1163.66"/>
<polygon fill="black" stroke="black" points="1273.21,-1163.26 1269.71,-1153.26 1266.21,-1163.26 1273.21,-1163.26"/>
</g>
</g>
</svg>
