<?xml version="1.0" encoding="UTF-8" standalone="no"?>
<!DOCTYPE svg PUBLIC "-//W3C//DTD SVG 1.1//EN"
 "http://www.w3.org/Graphics/SVG/1.1/DTD/svg11.dtd">
<!-- Generated by graphviz version 2.43.0 (0)
 -->
<!-- Title: G Pages: 1 -->
<svg width="432pt" height="288pt"
 viewBox="0.00 0.00 431.79 288.00" xmlns="http://www.w3.org/2000/svg" xmlns:xlink="http://www.w3.org/1999/xlink">
<g id="graph0" class="graph" transform="scale(16.49 16.49) rotate(0) translate(4 4746)">
<title>G</title>
<polygon fill="white" stroke="transparent" points="-4,4 -4,-4746 7117.48,-4746 7117.48,4 -4,4"/>
<!-- u54 -->
<g id="node1" class="node">
<title>u54</title>
<ellipse fill="#bbffbb" stroke="black" cx="52.65" cy="-4333" rx="52.79" ry="18"/>
<text text-anchor="middle" x="52.65" y="-4329.3" font-family="Times,serif" font-size="14.00">FileTests</text>
</g>
<!-- u53 -->
<g id="node2" class="node">
<title>u53</title>
<ellipse fill="#bbffbb" stroke="black" cx="317.65" cy="-4006" rx="42.49" ry="18"/>
<text text-anchor="middle" x="317.65" y="-4002.3" font-family="Times,serif" font-size="14.00">Helper</text>
</g>
<!-- u52 -->
<g id="node3" class="node">
<title>u52</title>
<ellipse fill="#bbffbb" stroke="black" cx="188.65" cy="-4006" rx="53.89" ry="18"/>
<text text-anchor="middle" x="188.65" y="-4002.3" font-family="Times,serif" font-size="14.00">Observer</text>
</g>
<!-- u51 -->
<g id="node4" class="node">
<title>u51</title>
<ellipse fill="#bbffbb" stroke="black" cx="188.65" cy="-4333" rx="64.99" ry="18"/>
<text text-anchor="middle" x="188.65" y="-4329.3" font-family="Times,serif" font-size="14.00">PatternTest</text>
</g>
<!-- u51&#45;&gt;u52 -->
<g id="edge84" class="edge">
<title>u51&#45;&gt;u52</title>
<path fill="none" stroke="black" d="M188.65,-4314.98C188.65,-4262.02 188.65,-4099.74 188.65,-4034.54"/>
<polygon fill="black" stroke="black" points="192.15,-4034.24 188.65,-4024.24 185.15,-4034.24 192.15,-4034.24"/>
</g>
<!-- u50 -->
<g id="node5" class="node">
<title>u50</title>
<ellipse fill="#bbffbb" stroke="black" cx="333.65" cy="-4333" rx="62.29" ry="18"/>
<text text-anchor="middle" x="333.65" y="-4329.3" font-family="Times,serif" font-size="14.00">HelloWorld</text>
</g>
<!-- u50&#45;&gt;u53 -->
<g id="edge83" class="edge">
<title>u50&#45;&gt;u53</title>
<path fill="none" stroke="black" d="M332.81,-4314.98C330.2,-4262.02 322.21,-4099.74 319,-4034.54"/>
<polygon fill="black" stroke="black" points="322.48,-4034.06 318.49,-4024.24 315.49,-4034.4 322.48,-4034.06"/>
</g>
<!-- u0 -->
<g id="node6" class="node">
<title>u0</title>
<ellipse fill="#ffffbb" stroke="black" cx="1788.65" cy="-4660" rx="214.46" ry="18"/>
<text text-anchor="middle" x="1788.65" y="-4656.3" font-family="Times,serif" font-size="14.00">Data.Drasil.ExternalLibraries.ODELibraries</text>
</g>
<!-- u48 -->
<g id="node8" class="node">
<title>u48</title>
<ellipse fill="#bbbbff" stroke="black" cx="1788.65" cy="-4333" rx="113.18" ry="18"/>
<text text-anchor="middle" x="1788.65" y="-4329.3" font-family="Times,serif" font-size="14.00">Language.Drasil.Code</text>
</g>
<!-- u0&#45;&gt;u48 -->
<g id="edge1" class="edge">
<title>u0&#45;&gt;u48</title>
<path fill="none" stroke="black" d="M1788.65,-4641.98C1788.65,-4589.02 1788.65,-4426.74 1788.65,-4361.54"/>
<polygon fill="black" stroke="black" points="1792.15,-4361.24 1788.65,-4351.24 1785.15,-4361.24 1792.15,-4361.24"/>
</g>
<!-- u49 -->
<g id="node7" class="node">
<title>u49</title>
<ellipse fill="#bbbbff" stroke="black" cx="3900.65" cy="-1717" rx="126.18" ry="18"/>
<text text-anchor="middle" x="3900.65" y="-1713.3" font-family="Times,serif" font-size="14.00">Language.Drasil.Choices</text>
</g>
<!-- u45 -->
<g id="node18" class="node">
<title>u45</title>
<ellipse fill="#bbffff" stroke="black" cx="3496.65" cy="-1390" rx="139.98" ry="18"/>
<text text-anchor="middle" x="3496.65" y="-1386.3" font-family="Times,serif" font-size="14.00">Language.Drasil.Code.Code</text>
</g>
<!-- u49&#45;&gt;u45 -->
<g id="edge82" class="edge">
<title>u49&#45;&gt;u45</title>
<path fill="none" stroke="black" d="M3879.78,-1699.21C3812.74,-1645.28 3602.78,-1476.38 3525.53,-1414.24"/>
<polygon fill="black" stroke="black" points="3527.62,-1411.42 3517.63,-1407.88 3523.23,-1416.88 3527.62,-1411.42"/>
</g>
<!-- u1 -->
<g id="node55" class="node">
<title>u1</title>
<ellipse fill="#ff77ff" stroke="black" cx="3900.65" cy="-1390" rx="172.77" ry="18"/>
<text text-anchor="middle" x="3900.65" y="-1386.3" font-family="Times,serif" font-size="14.00">Language.Drasil.Data.ODELibPckg</text>
</g>
<!-- u49&#45;&gt;u1 -->
<g id="edge81" class="edge">
<title>u49&#45;&gt;u1</title>
<path fill="none" stroke="black" d="M3900.65,-1698.98C3900.65,-1646.02 3900.65,-1483.74 3900.65,-1418.54"/>
<polygon fill="black" stroke="black" points="3904.15,-1418.24 3900.65,-1408.24 3897.15,-1418.24 3904.15,-1418.24"/>
</g>
<!-- u18 -->
<g id="node36" class="node">
<title>u18</title>
<ellipse fill="#ffbbff" stroke="black" cx="1088.65" cy="-2371" rx="217.96" ry="18"/>
<text text-anchor="middle" x="1088.65" y="-2367.3" font-family="Times,serif" font-size="14.00">Language.Drasil.Code.Imperative.ReadInput</text>
</g>
<!-- u48&#45;&gt;u18 -->
<g id="edge75" class="edge">
<title>u48&#45;&gt;u18</title>
<path fill="none" stroke="black" d="M1676.07,-4331.17C1343.35,-4322.25 387.65,-4247.24 387.65,-3680 387.65,-3680 387.65,-3680 387.65,-3024 387.65,-2672.42 866.28,-2456.69 1032.55,-2392.36"/>
<polygon fill="black" stroke="black" points="1034.02,-2395.54 1042.11,-2388.69 1031.52,-2389 1034.02,-2395.54"/>
</g>
<!-- u15 -->
<g id="node39" class="node">
<title>u15</title>
<ellipse fill="#ffbbff" stroke="black" cx="4519.65" cy="-4006" rx="217.16" ry="18"/>
<text text-anchor="middle" x="4519.65" y="-4002.3" font-family="Times,serif" font-size="14.00">Language.Drasil.Code.Imperative.Generator</text>
</g>
<!-- u48&#45;&gt;u15 -->
<g id="edge74" class="edge">
<title>u48&#45;&gt;u15</title>
<path fill="none" stroke="black" d="M1876.42,-4321.55C2275.18,-4274.1 3917.07,-4078.71 4391.01,-4022.31"/>
<polygon fill="black" stroke="black" points="4391.46,-4025.78 4400.97,-4021.12 4390.63,-4018.83 4391.46,-4025.78"/>
</g>
<!-- u31 -->
<g id="node48" class="node">
<title>u31</title>
<ellipse fill="#ff7777" stroke="black" cx="2968.65" cy="-3679" rx="367.43" ry="18"/>
<text text-anchor="middle" x="2968.65" y="-3675.3" font-family="Times,serif" font-size="14.00">Language.Drasil.Code.Imperative.GOOL.LanguageRenderer.PythonRenderer</text>
</g>
<!-- u48&#45;&gt;u31 -->
<g id="edge80" class="edge">
<title>u48&#45;&gt;u31</title>
<path fill="none" stroke="black" d="M1818.4,-4315.56C1979.39,-4226.6 2745.61,-3803.24 2929.1,-3701.85"/>
<polygon fill="black" stroke="black" points="2930.83,-3704.9 2937.89,-3697 2927.44,-3698.77 2930.83,-3704.9"/>
</g>
<!-- u30 -->
<g id="node49" class="node">
<title>u30</title>
<ellipse fill="#ff7777" stroke="black" cx="3722.65" cy="-3679" rx="369.33" ry="18"/>
<text text-anchor="middle" x="3722.65" y="-3675.3" font-family="Times,serif" font-size="14.00">Language.Drasil.Code.Imperative.GOOL.LanguageRenderer.CSharpRenderer</text>
</g>
<!-- u48&#45;&gt;u30 -->
<g id="edge79" class="edge">
<title>u48&#45;&gt;u30</title>
<path fill="none" stroke="black" d="M1834.54,-4316.53C2093.45,-4229.24 3370.08,-3798.86 3662.77,-3700.18"/>
<polygon fill="black" stroke="black" points="3664.01,-3703.46 3672.36,-3696.95 3661.77,-3696.83 3664.01,-3703.46"/>
</g>
<!-- u29 -->
<g id="node50" class="node">
<title>u29</title>
<ellipse fill="#ff7777" stroke="black" cx="769.65" cy="-3679" rx="354.44" ry="18"/>
<text text-anchor="middle" x="769.65" y="-3675.3" font-family="Times,serif" font-size="14.00">Language.Drasil.Code.Imperative.GOOL.LanguageRenderer.JavaRenderer</text>
</g>
<!-- u48&#45;&gt;u29 -->
<g id="edge78" class="edge">
<title>u48&#45;&gt;u29</title>
<path fill="none" stroke="black" d="M1762.69,-4315.39C1623.38,-4226.26 964.68,-3804.79 804.71,-3702.44"/>
<polygon fill="black" stroke="black" points="806.49,-3699.42 796.18,-3696.98 802.72,-3705.32 806.49,-3699.42"/>
</g>
<!-- u28 -->
<g id="node51" class="node">
<title>u28</title>
<ellipse fill="#ff7777" stroke="black" cx="1500.65" cy="-3679" rx="358.54" ry="18"/>
<text text-anchor="middle" x="1500.65" y="-3675.3" font-family="Times,serif" font-size="14.00">Language.Drasil.Code.Imperative.GOOL.LanguageRenderer.SwiftRenderer</text>
</g>
<!-- u48&#45;&gt;u28 -->
<g id="edge77" class="edge">
<title>u48&#45;&gt;u28</title>
<path fill="none" stroke="black" d="M1781.09,-4314.9C1741.76,-4225.85 1560.41,-3815.3 1512.36,-3706.51"/>
<polygon fill="black" stroke="black" points="1515.5,-3704.96 1508.25,-3697.23 1509.09,-3707.79 1515.5,-3704.96"/>
</g>
<!-- u27 -->
<g id="node52" class="node">
<title>u27</title>
<ellipse fill="#ff7777" stroke="black" cx="2230.65" cy="-3679" rx="352.84" ry="18"/>
<text text-anchor="middle" x="2230.65" y="-3675.3" font-family="Times,serif" font-size="14.00">Language.Drasil.Code.Imperative.GOOL.LanguageRenderer.CppRenderer</text>
</g>
<!-- u48&#45;&gt;u27 -->
<g id="edge76" class="edge">
<title>u48&#45;&gt;u27</title>
<path fill="none" stroke="black" d="M1800.24,-4314.9C1860.79,-4225.59 2140.61,-3812.81 2213.33,-3705.54"/>
<polygon fill="black" stroke="black" points="2216.25,-3707.47 2218.97,-3697.23 2210.46,-3703.54 2216.25,-3707.47"/>
</g>
<!-- u9 -->
<g id="node9" class="node">
<title>u9</title>
<ellipse fill="#bbbbff" stroke="black" cx="3799.65" cy="-736" rx="110.48" ry="18"/>
<text text-anchor="middle" x="3799.65" y="-732.3" font-family="Times,serif" font-size="14.00">Language.Drasil.Mod</text>
</g>
<!-- u4 -->
<g id="node15" class="node">
<title>u4</title>
<ellipse fill="#ffbbbb" stroke="black" cx="3799.65" cy="-409" rx="170.87" ry="18"/>
<text text-anchor="middle" x="3799.65" y="-405.3" font-family="Times,serif" font-size="14.00">Language.Drasil.Chunk.Parameter</text>
</g>
<!-- u9&#45;&gt;u4 -->
<g id="edge12" class="edge">
<title>u9&#45;&gt;u4</title>
<path fill="none" stroke="black" d="M3799.65,-717.98C3799.65,-665.02 3799.65,-502.74 3799.65,-437.54"/>
<polygon fill="black" stroke="black" points="3803.15,-437.24 3799.65,-427.24 3796.15,-437.24 3803.15,-437.24"/>
</g>
<!-- u11 -->
<g id="node22" class="node">
<title>u11</title>
<ellipse fill="#bbffff" stroke="black" cx="3232.65" cy="-409" rx="160.57" ry="18"/>
<text text-anchor="middle" x="3232.65" y="-405.3" font-family="Times,serif" font-size="14.00">Language.Drasil.Code.DataDesc</text>
</g>
<!-- u9&#45;&gt;u11 -->
<g id="edge13" class="edge">
<title>u9&#45;&gt;u11</title>
<path fill="none" stroke="black" d="M3770.75,-718.44C3676.35,-664.33 3377.01,-492.75 3270.62,-431.77"/>
<polygon fill="black" stroke="black" points="3272.24,-428.66 3261.82,-426.72 3268.76,-434.73 3272.24,-428.66"/>
</g>
<!-- u3 -->
<g id="node10" class="node">
<title>u3</title>
<ellipse fill="#bbbbff" stroke="black" cx="4978.65" cy="-2044" rx="135.68" ry="18"/>
<text text-anchor="middle" x="4978.65" y="-2040.3" font-family="Times,serif" font-size="14.00">Language.Drasil.CodeSpec</text>
</g>
<!-- u3&#45;&gt;u49 -->
<g id="edge9" class="edge">
<title>u3&#45;&gt;u49</title>
<path fill="none" stroke="black" d="M4926.65,-2027.32C4747.24,-1973.24 4154.56,-1794.55 3961.81,-1736.44"/>
<polygon fill="black" stroke="black" points="3962.7,-1733.05 3952.12,-1733.52 3960.68,-1739.76 3962.7,-1733.05"/>
</g>
<!-- u6 -->
<g id="node13" class="node">
<title>u6</title>
<ellipse fill="#ffbbbb" stroke="black" cx="4996.65" cy="-1717" rx="192.27" ry="18"/>
<text text-anchor="middle" x="4996.65" y="-1713.3" font-family="Times,serif" font-size="14.00">Language.Drasil.Chunk.ConstraintMap</text>
</g>
<!-- u3&#45;&gt;u6 -->
<g id="edge8" class="edge">
<title>u3&#45;&gt;u6</title>
<path fill="none" stroke="black" d="M4979.59,-2025.98C4982.52,-1973.02 4991.51,-1810.74 4995.12,-1745.54"/>
<polygon fill="black" stroke="black" points="4998.63,-1745.42 4995.69,-1735.24 4991.64,-1745.03 4998.63,-1745.42"/>
</g>
<!-- u5 -->
<g id="node14" class="node">
<title>u5</title>
<ellipse fill="#ffbbbb" stroke="black" cx="4595.65" cy="-1717" rx="191.17" ry="18"/>
<text text-anchor="middle" x="4595.65" y="-1713.3" font-family="Times,serif" font-size="14.00">Language.Drasil.Chunk.CodeDefinition</text>
</g>
<!-- u3&#45;&gt;u5 -->
<g id="edge7" class="edge">
<title>u3&#45;&gt;u5</title>
<path fill="none" stroke="black" d="M4958.59,-2025.98C4895.01,-1972.03 4697.77,-1804.66 4623.93,-1742"/>
<polygon fill="black" stroke="black" points="4625.85,-1739.04 4615.96,-1735.24 4621.32,-1744.38 4625.85,-1739.04"/>
</g>
<!-- u8 -->
<g id="node11" class="node">
<title>u8</title>
<ellipse fill="#ffbbbb" stroke="black" cx="4172.65" cy="-736" rx="202.26" ry="18"/>
<text text-anchor="middle" x="4172.65" y="-732.3" font-family="Times,serif" font-size="14.00">Language.Drasil.Chunk.NamedArgument</text>
</g>
<!-- u7 -->
<g id="node12" class="node">
<title>u7</title>
<ellipse fill="#ffbbbb" stroke="black" cx="3799.65" cy="-82" rx="145.67" ry="18"/>
<text text-anchor="middle" x="3799.65" y="-78.3" font-family="Times,serif" font-size="14.00">Language.Drasil.Chunk.Code</text>
</g>
<!-- u2 -->
<g id="node54" class="node">
<title>u2</title>
<ellipse fill="#ff77ff" stroke="black" cx="4595.65" cy="-1063" rx="154.07" ry="18"/>
<text text-anchor="middle" x="4595.65" y="-1059.3" font-family="Times,serif" font-size="14.00">Language.Drasil.Data.ODEInfo</text>
</g>
<!-- u5&#45;&gt;u2 -->
<g id="edge11" class="edge">
<title>u5&#45;&gt;u2</title>
<path fill="none" stroke="black" d="M4595.65,-1698.9C4595.65,-1610.12 4595.65,-1201.77 4595.65,-1091.51"/>
<polygon fill="black" stroke="black" points="4599.15,-1091.23 4595.65,-1081.23 4592.15,-1091.23 4599.15,-1091.23"/>
</g>
<!-- u4&#45;&gt;u7 -->
<g id="edge10" class="edge">
<title>u4&#45;&gt;u7</title>
<path fill="none" stroke="black" d="M3799.65,-390.98C3799.65,-338.02 3799.65,-175.74 3799.65,-110.54"/>
<polygon fill="black" stroke="black" points="3803.15,-110.24 3799.65,-100.24 3796.15,-110.24 3803.15,-110.24"/>
</g>
<!-- u47 -->
<g id="node16" class="node">
<title>u47</title>
<ellipse fill="#bbffff" stroke="black" cx="3451.65" cy="-1063" rx="139.18" ry="18"/>
<text text-anchor="middle" x="3451.65" y="-1059.3" font-family="Times,serif" font-size="14.00">Language.Drasil.Code.Lang</text>
</g>
<!-- u46 -->
<g id="node17" class="node">
<title>u46</title>
<ellipse fill="#bbffff" stroke="black" cx="4300.65" cy="-3679" rx="191.17" ry="18"/>
<text text-anchor="middle" x="4300.65" y="-3675.3" font-family="Times,serif" font-size="14.00">Language.Drasil.Code.CodeGeneration</text>
</g>
<!-- u46&#45;&gt;u45 -->
<g id="edge73" class="edge">
<title>u46&#45;&gt;u45</title>
<path fill="none" stroke="black" d="M4284.23,-3661.05C4183.77,-3555.98 3650.72,-2978.85 3478.65,-2389 3370.52,-2018.36 3464.23,-1536.96 3490.36,-1418.31"/>
<polygon fill="black" stroke="black" points="3493.84,-1418.79 3492.6,-1408.27 3487,-1417.27 3493.84,-1418.79"/>
</g>
<!-- u26 -->
<g id="node46" class="node">
<title>u26</title>
<ellipse fill="#7777ff" stroke="black" cx="2864.65" cy="-3352" rx="222.06" ry="18"/>
<text text-anchor="middle" x="2864.65" y="-3348.3" font-family="Times,serif" font-size="14.00">Language.Drasil.Code.Imperative.GOOL.Data</text>
</g>
<!-- u46&#45;&gt;u26 -->
<g id="edge72" class="edge">
<title>u46&#45;&gt;u26</title>
<path fill="none" stroke="black" d="M4230.9,-3662.21C3991.18,-3607.96 3201.74,-3429.29 2945.64,-3371.33"/>
<polygon fill="black" stroke="black" points="2946.19,-3367.87 2935.67,-3369.07 2944.65,-3374.69 2946.19,-3367.87"/>
</g>
<!-- u44 -->
<g id="node19" class="node">
<title>u44</title>
<ellipse fill="#bbffff" stroke="black" cx="4340.65" cy="-1390" rx="178.97" ry="18"/>
<text text-anchor="middle" x="4340.65" y="-1386.3" font-family="Times,serif" font-size="14.00">Language.Drasil.Code.ExtLibImport</text>
</g>
<!-- u12 -->
<g id="node21" class="node">
<title>u12</title>
<ellipse fill="#bbffff" stroke="black" cx="4215.65" cy="-1063" rx="207.96" ry="18"/>
<text text-anchor="middle" x="4215.65" y="-1059.3" font-family="Times,serif" font-size="14.00">Language.Drasil.Code.ExternalLibraryCall</text>
</g>
<!-- u44&#45;&gt;u12 -->
<g id="edge71" class="edge">
<title>u44&#45;&gt;u12</title>
<path fill="none" stroke="black" d="M4334.1,-1371.98C4313.64,-1318.8 4250.8,-1155.39 4225.93,-1090.74"/>
<polygon fill="black" stroke="black" points="4229.13,-1089.32 4222.28,-1081.24 4222.6,-1091.83 4229.13,-1089.32"/>
</g>
<!-- u10 -->
<g id="node23" class="node">
<title>u10</title>
<ellipse fill="#bbffff" stroke="black" cx="3799.65" cy="-1063" rx="190.37" ry="18"/>
<text text-anchor="middle" x="3799.65" y="-1059.3" font-family="Times,serif" font-size="14.00">Language.Drasil.Code.ExternalLibrary</text>
</g>
<!-- u44&#45;&gt;u10 -->
<g id="edge70" class="edge">
<title>u44&#45;&gt;u10</title>
<path fill="none" stroke="black" d="M4312.7,-1372.21C4222.38,-1317.96 3938.34,-1147.32 3836.47,-1086.12"/>
<polygon fill="black" stroke="black" points="3838.12,-1083.03 3827.75,-1080.88 3834.52,-1089.03 3838.12,-1083.03"/>
</g>
<!-- u13 -->
<g id="node20" class="node">
<title>u13</title>
<ellipse fill="#bbffff" stroke="black" cx="6608.65" cy="-2698" rx="204.16" ry="18"/>
<text text-anchor="middle" x="6608.65" y="-2694.3" font-family="Times,serif" font-size="14.00">Language.Drasil.Code.CodeQuantityDicts</text>
</g>
<!-- u12&#45;&gt;u9 -->
<g id="edge18" class="edge">
<title>u12&#45;&gt;u9</title>
<path fill="none" stroke="black" d="M4193.87,-1044.98C4124.51,-990.8 3908.7,-822.2 3829.33,-760.19"/>
<polygon fill="black" stroke="black" points="3831.25,-757.25 3821.21,-753.85 3826.94,-762.76 3831.25,-757.25"/>
</g>
<!-- u12&#45;&gt;u8 -->
<g id="edge17" class="edge">
<title>u12&#45;&gt;u8</title>
<path fill="none" stroke="black" d="M4213.39,-1044.98C4206.39,-992.02 4184.92,-829.74 4176.29,-764.54"/>
<polygon fill="black" stroke="black" points="4179.71,-763.69 4174.93,-754.24 4172.77,-764.61 4179.71,-763.69"/>
</g>
<!-- u11&#45;&gt;u7 -->
<g id="edge16" class="edge">
<title>u11&#45;&gt;u7</title>
<path fill="none" stroke="black" d="M3261.94,-391.21C3356.8,-336.84 3655.58,-165.58 3761.75,-104.72"/>
<polygon fill="black" stroke="black" points="3763.59,-107.7 3770.53,-99.69 3760.11,-101.63 3763.59,-107.7"/>
</g>
<!-- u10&#45;&gt;u9 -->
<g id="edge15" class="edge">
<title>u10&#45;&gt;u9</title>
<path fill="none" stroke="black" d="M3799.65,-1044.98C3799.65,-992.02 3799.65,-829.74 3799.65,-764.54"/>
<polygon fill="black" stroke="black" points="3803.15,-764.24 3799.65,-754.24 3796.15,-764.24 3803.15,-764.24"/>
</g>
<!-- u10&#45;&gt;u8 -->
<g id="edge14" class="edge">
<title>u10&#45;&gt;u8</title>
<path fill="none" stroke="black" d="M3819.17,-1044.98C3881.09,-991.03 4073.18,-823.66 4145.1,-761"/>
<polygon fill="black" stroke="black" points="4147.62,-763.45 4152.86,-754.24 4143.02,-758.17 4147.62,-763.45"/>
</g>
<!-- u43 -->
<g id="node24" class="node">
<title>u43</title>
<ellipse fill="#ffbbff" stroke="black" cx="5722.65" cy="-2698" rx="206.06" ry="18"/>
<text text-anchor="middle" x="5722.65" y="-2694.3" font-family="Times,serif" font-size="14.00">Language.Drasil.Code.Imperative.Helpers</text>
</g>
<!-- u40 -->
<g id="node27" class="node">
<title>u40</title>
<ellipse fill="#ffbbff" stroke="black" cx="5722.65" cy="-2371" rx="222.06" ry="18"/>
<text text-anchor="middle" x="5722.65" y="-2367.3" font-family="Times,serif" font-size="14.00">Language.Drasil.Code.Imperative.DrasilState</text>
</g>
<!-- u43&#45;&gt;u40 -->
<g id="edge69" class="edge">
<title>u43&#45;&gt;u40</title>
<path fill="none" stroke="black" d="M5722.65,-2679.98C5722.65,-2627.02 5722.65,-2464.74 5722.65,-2399.54"/>
<polygon fill="black" stroke="black" points="5726.15,-2399.24 5722.65,-2389.24 5719.15,-2399.24 5726.15,-2399.24"/>
</g>
<!-- u42 -->
<g id="node25" class="node">
<title>u42</title>
<ellipse fill="#ffbbff" stroke="black" cx="6608.65" cy="-3025" rx="223.66" ry="18"/>
<text text-anchor="middle" x="6608.65" y="-3021.3" font-family="Times,serif" font-size="14.00">Language.Drasil.Code.Imperative.Parameters</text>
</g>
<!-- u42&#45;&gt;u13 -->
<g id="edge67" class="edge">
<title>u42&#45;&gt;u13</title>
<path fill="none" stroke="black" d="M6608.65,-3006.98C6608.65,-2954.02 6608.65,-2791.74 6608.65,-2726.54"/>
<polygon fill="black" stroke="black" points="6612.15,-2726.24 6608.65,-2716.24 6605.15,-2726.24 6612.15,-2726.24"/>
</g>
<!-- u42&#45;&gt;u40 -->
<g id="edge68" class="edge">
<title>u42&#45;&gt;u40</title>
<path fill="none" stroke="black" d="M6634.11,-3006.98C6707.95,-2955.58 6911.3,-2798.24 6821.65,-2680 6702.78,-2523.24 6107.08,-2424.35 5845.8,-2387.88"/>
<polygon fill="black" stroke="black" points="5846.28,-2384.41 5835.89,-2386.5 5845.32,-2391.34 5846.28,-2384.41"/>
</g>
<!-- u41 -->
<g id="node26" class="node">
<title>u41</title>
<ellipse fill="#ffbbff" stroke="black" cx="4825.65" cy="-2698" rx="240.46" ry="18"/>
<text text-anchor="middle" x="4825.65" y="-2694.3" font-family="Times,serif" font-size="14.00">Language.Drasil.Code.Imperative.GenerateGOOL</text>
</g>
<!-- u41&#45;&gt;u40 -->
<g id="edge66" class="edge">
<title>u41&#45;&gt;u40</title>
<path fill="none" stroke="black" d="M4871.67,-2680.32C5022.73,-2625.59 5503.07,-2451.56 5667.11,-2392.12"/>
<polygon fill="black" stroke="black" points="5668.33,-2395.4 5676.53,-2388.71 5665.94,-2388.82 5668.33,-2395.4"/>
</g>
<!-- u34 -->
<g id="node44" class="node">
<title>u34</title>
<ellipse fill="#7777ff" stroke="black" cx="4262.65" cy="-2371" rx="267.25" ry="18"/>
<text text-anchor="middle" x="4262.65" y="-2367.3" font-family="Times,serif" font-size="14.00">Language.Drasil.Code.Imperative.GOOL.ClassInterface</text>
</g>
<!-- u41&#45;&gt;u34 -->
<g id="edge65" class="edge">
<title>u41&#45;&gt;u34</title>
<path fill="none" stroke="black" d="M4796.17,-2679.98C4701.75,-2625.48 4406.78,-2455.2 4300.93,-2394.1"/>
<polygon fill="black" stroke="black" points="4302.58,-2391.01 4292.17,-2389.04 4299.08,-2397.07 4302.58,-2391.01"/>
</g>
<!-- u40&#45;&gt;u3 -->
<g id="edge63" class="edge">
<title>u40&#45;&gt;u3</title>
<path fill="none" stroke="black" d="M5684.21,-2353.21C5558.97,-2298.5 5162.82,-2125.45 5025.82,-2065.61"/>
<polygon fill="black" stroke="black" points="5026.97,-2062.29 5016.41,-2061.49 5024.17,-2068.71 5026.97,-2062.29"/>
</g>
<!-- u40&#45;&gt;u44 -->
<g id="edge64" class="edge">
<title>u40&#45;&gt;u44</title>
<path fill="none" stroke="black" d="M5714.01,-2352.86C5670.75,-2268.68 5468.85,-1895.06 5197.65,-1699 4956.29,-1524.52 4606.11,-1440.05 4437.94,-1407.6"/>
<polygon fill="black" stroke="black" points="4438.58,-1404.16 4428.11,-1405.72 4437.27,-1411.03 4438.58,-1404.16"/>
</g>
<!-- u39 -->
<g id="node28" class="node">
<title>u39</title>
<ellipse fill="#ffbbff" stroke="black" cx="6886.65" cy="-3352" rx="226.66" ry="18"/>
<text text-anchor="middle" x="6886.65" y="-3348.3" font-family="Times,serif" font-size="14.00">Language.Drasil.Code.Imperative.SpaceMatch</text>
</g>
<!-- u39&#45;&gt;u40 -->
<g id="edge62" class="edge">
<title>u39&#45;&gt;u40</title>
<path fill="none" stroke="black" d="M6892.81,-3333.77C6921.32,-3250.64 7032.37,-2886.7 6869.65,-2680 6743.27,-2519.47 6125.19,-2422.9 5852.43,-2387.47"/>
<polygon fill="black" stroke="black" points="5852.84,-2384 5842.47,-2386.19 5851.94,-2390.94 5852.84,-2384"/>
</g>
<!-- u38 -->
<g id="node29" class="node">
<title>u38</title>
<ellipse fill="#ffbbff" stroke="black" cx="6166.65" cy="-2698" rx="219.86" ry="18"/>
<text text-anchor="middle" x="6166.65" y="-2694.3" font-family="Times,serif" font-size="14.00">Language.Drasil.Code.Imperative.Comments</text>
</g>
<!-- u38&#45;&gt;u40 -->
<g id="edge61" class="edge">
<title>u38&#45;&gt;u40</title>
<path fill="none" stroke="black" d="M6143.4,-2679.98C6069.31,-2625.75 5838.65,-2456.91 5754.11,-2395.03"/>
<polygon fill="black" stroke="black" points="5756.07,-2392.13 5745.93,-2389.04 5751.93,-2397.77 5756.07,-2392.13"/>
</g>
<!-- u37 -->
<g id="node30" class="node">
<title>u37</title>
<ellipse fill="#ffbbff" stroke="black" cx="5291.65" cy="-2698" rx="207.16" ry="18"/>
<text text-anchor="middle" x="5291.65" y="-2694.3" font-family="Times,serif" font-size="14.00">Language.Drasil.Code.Imperative.Logging</text>
</g>
<!-- u37&#45;&gt;u40 -->
<g id="edge60" class="edge">
<title>u37&#45;&gt;u40</title>
<path fill="none" stroke="black" d="M5314.21,-2679.98C5385.99,-2625.86 5609.14,-2457.59 5691.6,-2395.41"/>
<polygon fill="black" stroke="black" points="5694.17,-2397.86 5700.04,-2389.04 5689.95,-2392.27 5694.17,-2397.86"/>
</g>
<!-- u36 -->
<g id="node31" class="node">
<title>u36</title>
<ellipse fill="#ffbbff" stroke="black" cx="5753.65" cy="-3679" rx="209.06" ry="18"/>
<text text-anchor="middle" x="5753.65" y="-3675.3" font-family="Times,serif" font-size="14.00">Language.Drasil.Code.Imperative.Modules</text>
</g>
<!-- u35 -->
<g id="node32" class="node">
<title>u35</title>
<ellipse fill="#ffbbff" stroke="black" cx="5753.65" cy="-3352" rx="233.16" ry="18"/>
<text text-anchor="middle" x="5753.65" y="-3348.3" font-family="Times,serif" font-size="14.00">Language.Drasil.Code.Imperative.FunctionCalls</text>
</g>
<!-- u36&#45;&gt;u35 -->
<g id="edge59" class="edge">
<title>u36&#45;&gt;u35</title>
<path fill="none" stroke="black" d="M5753.65,-3660.98C5753.65,-3608.02 5753.65,-3445.74 5753.65,-3380.54"/>
<polygon fill="black" stroke="black" points="5757.15,-3380.24 5753.65,-3370.24 5750.15,-3380.24 5757.15,-3380.24"/>
</g>
<!-- u16 -->
<g id="node38" class="node">
<title>u16</title>
<ellipse fill="#ffbbff" stroke="black" cx="6353.65" cy="-3352" rx="228.26" ry="18"/>
<text text-anchor="middle" x="6353.65" y="-3348.3" font-family="Times,serif" font-size="14.00">Language.Drasil.Code.Imperative.Descriptions</text>
</g>
<!-- u36&#45;&gt;u16 -->
<g id="edge58" class="edge">
<title>u36&#45;&gt;u16</title>
<path fill="none" stroke="black" d="M5785.06,-3660.98C5885.91,-3606.36 6201.41,-3435.46 6313.57,-3374.71"/>
<polygon fill="black" stroke="black" points="6315.42,-3377.69 6322.54,-3369.85 6312.08,-3371.53 6315.42,-3377.69"/>
</g>
<!-- u35&#45;&gt;u42 -->
<g id="edge57" class="edge">
<title>u35&#45;&gt;u42</title>
<path fill="none" stroke="black" d="M5797.81,-3334.21C5942.01,-3279.4 6398.66,-3105.82 6555.3,-3046.28"/>
<polygon fill="black" stroke="black" points="6556.64,-3049.51 6564.74,-3042.69 6554.15,-3042.97 6556.64,-3049.51"/>
</g>
<!-- u14 -->
<g id="node40" class="node">
<title>u14</title>
<ellipse fill="#ffbbff" stroke="black" cx="5722.65" cy="-3025" rx="201.46" ry="18"/>
<text text-anchor="middle" x="5722.65" y="-3021.3" font-family="Times,serif" font-size="14.00">Language.Drasil.Code.Imperative.Import</text>
</g>
<!-- u35&#45;&gt;u14 -->
<g id="edge56" class="edge">
<title>u35&#45;&gt;u14</title>
<path fill="none" stroke="black" d="M5752.02,-3333.98C5746.97,-3281.02 5731.49,-3118.74 5725.27,-3053.54"/>
<polygon fill="black" stroke="black" points="5728.72,-3052.86 5724.29,-3043.24 5721.76,-3053.53 5728.72,-3052.86"/>
</g>
<!-- u25 -->
<g id="node33" class="node">
<title>u25</title>
<ellipse fill="#ffbbff" stroke="black" cx="2810.65" cy="-3025" rx="233.16" ry="18"/>
<text text-anchor="middle" x="2810.65" y="-3021.3" font-family="Times,serif" font-size="14.00">Language.Drasil.Code.Imperative.WriteReadMe</text>
</g>
<!-- u25&#45;&gt;u34 -->
<g id="edge39" class="edge">
<title>u25&#45;&gt;u34</title>
<path fill="none" stroke="black" d="M2848,-3007.23C3048.2,-2917.33 3993.43,-2492.89 4215.75,-2393.06"/>
<polygon fill="black" stroke="black" points="4217.19,-2396.25 4224.87,-2388.96 4214.32,-2389.86 4217.19,-2396.25"/>
</g>
<!-- u24 -->
<g id="node34" class="node">
<title>u24</title>
<ellipse fill="#ffbbff" stroke="black" cx="2742.65" cy="-2044" rx="219.86" ry="18"/>
<text text-anchor="middle" x="2742.65" y="-2040.3" font-family="Times,serif" font-size="14.00">Language.Drasil.Code.Imperative.WriteInput</text>
</g>
<!-- u24&#45;&gt;u11 -->
<g id="edge38" class="edge">
<title>u24&#45;&gt;u11</title>
<path fill="none" stroke="black" d="M2755.72,-2025.95C2809.85,-1953.6 3013.65,-1663.13 3013.65,-1391 3013.65,-1391 3013.65,-1391 3013.65,-1062 3013.65,-806.49 3166.65,-522.6 3216.88,-436.28"/>
<polygon fill="black" stroke="black" points="3220.04,-437.82 3222.08,-427.42 3214,-434.27 3220.04,-437.82"/>
</g>
<!-- u20 -->
<g id="node35" class="node">
<title>u20</title>
<ellipse fill="#ffbbff" stroke="black" cx="4595.65" cy="-2044" rx="209.86" ry="18"/>
<text text-anchor="middle" x="4595.65" y="-2040.3" font-family="Times,serif" font-size="14.00">Language.Drasil.Code.Imperative.GenODE</text>
</g>
<!-- u20&#45;&gt;u49 -->
<g id="edge35" class="edge">
<title>u20&#45;&gt;u49</title>
<path fill="none" stroke="black" d="M4559.74,-2026.21C4442.73,-1971.49 4072.58,-1798.4 3944.65,-1738.58"/>
<polygon fill="black" stroke="black" points="3946.05,-1735.37 3935.51,-1734.3 3943.08,-1741.71 3946.05,-1735.37"/>
</g>
<!-- u20&#45;&gt;u5 -->
<g id="edge33" class="edge">
<title>u20&#45;&gt;u5</title>
<path fill="none" stroke="black" d="M4595.65,-2025.98C4595.65,-1973.02 4595.65,-1810.74 4595.65,-1745.54"/>
<polygon fill="black" stroke="black" points="4599.15,-1745.24 4595.65,-1735.24 4592.15,-1745.24 4599.15,-1745.24"/>
</g>
<!-- u20&#45;&gt;u44 -->
<g id="edge34" class="edge">
<title>u20&#45;&gt;u44</title>
<path fill="none" stroke="black" d="M4580.58,-2025.72C4542.59,-1981.11 4442.57,-1856.99 4395.65,-1735 4352.51,-1622.87 4343.2,-1477.64 4341.2,-1418.19"/>
<polygon fill="black" stroke="black" points="4344.69,-1418 4340.9,-1408.11 4337.69,-1418.21 4344.69,-1418"/>
</g>
<!-- u18&#45;&gt;u11 -->
<g id="edge31" class="edge">
<title>u18&#45;&gt;u11</title>
<path fill="none" stroke="black" d="M1114.19,-2352.91C1212.06,-2285.2 1557.65,-2024.41 1557.65,-1718 1557.65,-1718 1557.65,-1718 1557.65,-1062 1557.65,-721.04 2778.14,-487.09 3135.47,-425.91"/>
<polygon fill="black" stroke="black" points="3136.26,-429.32 3145.53,-424.19 3135.09,-422.42 3136.26,-429.32"/>
</g>
<!-- u17 -->
<g id="node37" class="node">
<title>u17</title>
<ellipse fill="#ffbbff" stroke="black" cx="4130.65" cy="-2044" rx="237.46" ry="18"/>
<text text-anchor="middle" x="4130.65" y="-2040.3" font-family="Times,serif" font-size="14.00">Language.Drasil.Code.Imperative.ConceptMatch</text>
</g>
<!-- u17&#45;&gt;u49 -->
<g id="edge30" class="edge">
<title>u17&#45;&gt;u49</title>
<path fill="none" stroke="black" d="M4118.6,-2025.98C4080.73,-1972.47 3963.89,-1807.37 3918.73,-1743.55"/>
<polygon fill="black" stroke="black" points="3921.48,-1741.38 3912.85,-1735.24 3915.77,-1745.42 3921.48,-1741.38"/>
</g>
<!-- u16&#45;&gt;u40 -->
<g id="edge29" class="edge">
<title>u16&#45;&gt;u40</title>
<path fill="none" stroke="black" d="M6411.91,-3334.51C6519.73,-3300.49 6747.87,-3211.24 6841.65,-3043 6920.19,-2902.07 6942.47,-2808.3 6844.65,-2680 6723.27,-2520.81 6117.28,-2423.5 5849.84,-2387.67"/>
<polygon fill="black" stroke="black" points="5850.07,-2384.17 5839.69,-2386.32 5849.14,-2391.11 5850.07,-2384.17"/>
</g>
<!-- u15&#45;&gt;u46 -->
<g id="edge28" class="edge">
<title>u15&#45;&gt;u46</title>
<path fill="none" stroke="black" d="M4508.18,-3987.98C4472.12,-3934.47 4360.87,-3769.37 4317.86,-3705.55"/>
<polygon fill="black" stroke="black" points="4320.75,-3703.58 4312.26,-3697.24 4314.95,-3707.49 4320.75,-3703.58"/>
</g>
<!-- u15&#45;&gt;u39 -->
<g id="edge27" class="edge">
<title>u15&#45;&gt;u39</title>
<path fill="none" stroke="black" d="M4615.58,-3989.8C4849.96,-3951.56 5469.22,-3843.82 5971.65,-3697 6311.28,-3597.75 6704.62,-3431.99 6838.9,-3373.89"/>
<polygon fill="black" stroke="black" points="6840.34,-3377.08 6848.12,-3369.89 6837.55,-3370.66 6840.34,-3377.08"/>
</g>
<!-- u15&#45;&gt;u36 -->
<g id="edge26" class="edge">
<title>u15&#45;&gt;u36</title>
<path fill="none" stroke="black" d="M4581.69,-3988.66C4789.5,-3933.93 5460.47,-3757.21 5681.96,-3698.88"/>
<polygon fill="black" stroke="black" points="5683.07,-3702.21 5691.85,-3696.28 5681.29,-3695.44 5683.07,-3702.21"/>
</g>
<!-- u15&#45;&gt;u20 -->
<g id="edge25" class="edge">
<title>u15&#45;&gt;u20</title>
<path fill="none" stroke="black" d="M4519.65,-3987.87C4519.65,-3912.82 4519.65,-3605.42 4519.65,-3353 4519.65,-3353 4519.65,-3353 4519.65,-3024 4519.65,-2645.4 4576.84,-2186.9 4592,-2072.06"/>
<polygon fill="black" stroke="black" points="4595.48,-2072.41 4593.33,-2062.03 4588.54,-2071.48 4595.48,-2072.41"/>
</g>
<!-- u14&#45;&gt;u13 -->
<g id="edge19" class="edge">
<title>u14&#45;&gt;u13</title>
<path fill="none" stroke="black" d="M5767.8,-3007.44C5916.58,-2952.86 6391.15,-2778.78 6553.53,-2719.22"/>
<polygon fill="black" stroke="black" points="6555.13,-2722.36 6563.32,-2715.63 6552.72,-2715.79 6555.13,-2722.36"/>
</g>
<!-- u14&#45;&gt;u43 -->
<g id="edge24" class="edge">
<title>u14&#45;&gt;u43</title>
<path fill="none" stroke="black" d="M5722.65,-3006.98C5722.65,-2954.02 5722.65,-2791.74 5722.65,-2726.54"/>
<polygon fill="black" stroke="black" points="5726.15,-2726.24 5722.65,-2716.24 5719.15,-2726.24 5726.15,-2726.24"/>
</g>
<!-- u14&#45;&gt;u41 -->
<g id="edge23" class="edge">
<title>u14&#45;&gt;u41</title>
<path fill="none" stroke="black" d="M5676.93,-3007.44C5526.24,-2952.84 5045.45,-2778.64 4881.24,-2719.14"/>
<polygon fill="black" stroke="black" points="4882.4,-2715.84 4871.81,-2715.72 4880.01,-2722.42 4882.4,-2715.84"/>
</g>
<!-- u14&#45;&gt;u38 -->
<g id="edge22" class="edge">
<title>u14&#45;&gt;u38</title>
<path fill="none" stroke="black" d="M5745.89,-3006.98C5819.98,-2952.75 6050.64,-2783.91 6135.18,-2722.03"/>
<polygon fill="black" stroke="black" points="6137.36,-2724.77 6143.36,-2716.04 6133.23,-2719.13 6137.36,-2724.77"/>
</g>
<!-- u14&#45;&gt;u37 -->
<g id="edge21" class="edge">
<title>u14&#45;&gt;u37</title>
<path fill="none" stroke="black" d="M5700.08,-3006.98C5628.3,-2952.86 5405.15,-2784.59 5322.69,-2722.41"/>
<polygon fill="black" stroke="black" points="5324.34,-2719.27 5314.25,-2716.04 5320.12,-2724.86 5324.34,-2719.27"/>
</g>
<!-- u14&#45;&gt;u17 -->
<g id="edge20" class="edge">
<title>u14&#45;&gt;u17</title>
<path fill="none" stroke="black" d="M5610.67,-3010C5349.5,-2974.92 4711.94,-2874.6 4576.65,-2716 4471.37,-2592.59 4618.43,-2494.24 4538.65,-2353 4455.36,-2205.57 4269.58,-2106.81 4180.36,-2066.07"/>
<polygon fill="black" stroke="black" points="4181.55,-2062.77 4171,-2061.85 4178.67,-2069.15 4181.55,-2062.77"/>
</g>
<!-- u23 -->
<g id="node41" class="node">
<title>u23</title>
<ellipse fill="#77ff77" stroke="black" cx="2292.65" cy="-2698" rx="215.56" ry="18"/>
<text text-anchor="middle" x="2292.65" y="-2694.3" font-family="Times,serif" font-size="14.00">Language.Drasil.Code.Imperative.Build.AST</text>
</g>
<!-- u22 -->
<g id="node42" class="node">
<title>u22</title>
<ellipse fill="#77ff77" stroke="black" cx="2292.65" cy="-3025" rx="228.56" ry="18"/>
<text text-anchor="middle" x="2292.65" y="-3021.3" font-family="Times,serif" font-size="14.00">Language.Drasil.Code.Imperative.Build.Import</text>
</g>
<!-- u22&#45;&gt;u23 -->
<g id="edge37" class="edge">
<title>u22&#45;&gt;u23</title>
<path fill="none" stroke="black" d="M2292.65,-3006.98C2292.65,-2954.02 2292.65,-2791.74 2292.65,-2726.54"/>
<polygon fill="black" stroke="black" points="2296.15,-2726.24 2292.65,-2716.24 2289.15,-2726.24 2296.15,-2726.24"/>
</g>
<!-- u21 -->
<g id="node43" class="node">
<title>u21</title>
<ellipse fill="#ffff77" stroke="black" cx="3732.65" cy="-2371" rx="245.06" ry="18"/>
<text text-anchor="middle" x="3732.65" y="-2367.3" font-family="Times,serif" font-size="14.00">Language.Drasil.Code.Imperative.Doxygen.Import</text>
</g>
<!-- u21&#45;&gt;u49 -->
<g id="edge36" class="edge">
<title>u21&#45;&gt;u49</title>
<path fill="none" stroke="black" d="M3737.05,-2352.9C3759.95,-2264.03 3865.36,-1854.95 3893.64,-1745.17"/>
<polygon fill="black" stroke="black" points="3897.1,-1745.78 3896.21,-1735.23 3890.32,-1744.04 3897.1,-1745.78"/>
</g>
<!-- u34&#45;&gt;u49 -->
<g id="edge55" class="edge">
<title>u34&#45;&gt;u49</title>
<path fill="none" stroke="black" d="M4224.3,-2353.05C4143.36,-2314.85 3956.57,-2213.39 3884.65,-2062 3833.35,-1954.03 3871.94,-1804.89 3891.3,-1744.74"/>
<polygon fill="black" stroke="black" points="3894.63,-1745.81 3894.44,-1735.22 3887.98,-1743.61 3894.63,-1745.81"/>
</g>
<!-- u33 -->
<g id="node45" class="node">
<title>u33</title>
<ellipse fill="#7777ff" stroke="black" cx="3351.65" cy="-3025" rx="289.45" ry="18"/>
<text text-anchor="middle" x="3351.65" y="-3021.3" font-family="Times,serif" font-size="14.00">Language.Drasil.Code.Imperative.GOOL.LanguageRenderer</text>
</g>
<!-- u32 -->
<g id="node47" class="node">
<title>u32</title>
<ellipse fill="#ff7777" stroke="black" cx="2230.65" cy="-3352" rx="393.73" ry="18"/>
<text text-anchor="middle" x="2230.65" y="-3348.3" font-family="Times,serif" font-size="14.00">Language.Drasil.Code.Imperative.GOOL.LanguageRenderer.LanguagePolymorphic</text>
</g>
<!-- u32&#45;&gt;u25 -->
<g id="edge53" class="edge">
<title>u32&#45;&gt;u25</title>
<path fill="none" stroke="black" d="M2261.01,-3333.98C2358.29,-3279.48 2662.16,-3109.2 2771.2,-3048.1"/>
<polygon fill="black" stroke="black" points="2773.22,-3050.98 2780.23,-3043.04 2769.8,-3044.88 2773.22,-3050.98"/>
</g>
<!-- u32&#45;&gt;u24 -->
<g id="edge52" class="edge">
<title>u32&#45;&gt;u24</title>
<path fill="none" stroke="black" d="M2216.33,-3333.73C2180.42,-3289.12 2087.05,-3165.02 2054.65,-3043 2029.8,-2949.43 1859.73,-3135.96 2067.65,-2680 2209.45,-2369.02 2580.72,-2136.89 2702.97,-2066.89"/>
<polygon fill="black" stroke="black" points="2704.71,-2069.93 2711.68,-2061.94 2701.25,-2063.84 2704.71,-2069.93"/>
</g>
<!-- u32&#45;&gt;u22 -->
<g id="edge51" class="edge">
<title>u32&#45;&gt;u22</title>
<path fill="none" stroke="black" d="M2233.89,-3333.98C2244.02,-3280.91 2275.08,-3118.07 2287.47,-3053.14"/>
<polygon fill="black" stroke="black" points="2290.92,-3053.72 2289.36,-3043.24 2284.04,-3052.41 2290.92,-3053.72"/>
</g>
<!-- u32&#45;&gt;u21 -->
<g id="edge50" class="edge">
<title>u32&#45;&gt;u21</title>
<path fill="none" stroke="black" d="M2247.28,-3333.79C2312.78,-3266.07 2550.23,-3020.91 2568.65,-3007 2963.32,-2708.95 3515.37,-2463.93 3682.67,-2392.85"/>
<polygon fill="black" stroke="black" points="3684.36,-2395.93 3692.21,-2388.81 3681.63,-2389.49 3684.36,-2395.93"/>
</g>
<!-- u32&#45;&gt;u33 -->
<g id="edge54" class="edge">
<title>u32&#45;&gt;u33</title>
<path fill="none" stroke="black" d="M2288.95,-3334.1C2479.3,-3278.91 3081.99,-3104.18 3284.52,-3045.46"/>
<polygon fill="black" stroke="black" points="3285.51,-3048.82 3294.14,-3042.67 3283.56,-3042.09 3285.51,-3048.82"/>
</g>
<!-- u31&#45;&gt;u26 -->
<g id="edge48" class="edge">
<title>u31&#45;&gt;u26</title>
<path fill="none" stroke="black" d="M2963.2,-3660.98C2946.22,-3607.91 2894.11,-3445.07 2873.33,-3380.14"/>
<polygon fill="black" stroke="black" points="2876.54,-3378.7 2870.16,-3370.24 2869.88,-3380.83 2876.54,-3378.7"/>
</g>
<!-- u31&#45;&gt;u32 -->
<g id="edge49" class="edge">
<title>u31&#45;&gt;u32</title>
<path fill="none" stroke="black" d="M2930.26,-3661.1C2806.17,-3606.45 2415.88,-3434.57 2278.81,-3374.21"/>
<polygon fill="black" stroke="black" points="2279.95,-3370.89 2269.39,-3370.06 2277.13,-3377.29 2279.95,-3370.89"/>
</g>
<!-- u30&#45;&gt;u26 -->
<g id="edge46" class="edge">
<title>u30&#45;&gt;u26</title>
<path fill="none" stroke="black" d="M3678.02,-3661.1C3532.98,-3606.16 3075.15,-3432.74 2918.12,-3373.25"/>
<polygon fill="black" stroke="black" points="2919.25,-3369.94 2908.66,-3369.67 2916.77,-3376.49 2919.25,-3369.94"/>
</g>
<!-- u30&#45;&gt;u32 -->
<g id="edge47" class="edge">
<title>u30&#45;&gt;u32</title>
<path fill="none" stroke="black" d="M3646.35,-3661.38C3393.64,-3606.33 2584.88,-3430.16 2317.43,-3371.9"/>
<polygon fill="black" stroke="black" points="2317.9,-3368.42 2307.38,-3369.72 2316.41,-3375.26 2317.9,-3368.42"/>
</g>
<!-- u29&#45;&gt;u26 -->
<g id="edge44" class="edge">
<title>u29&#45;&gt;u26</title>
<path fill="none" stroke="black" d="M874.25,-3661.77C1230.65,-3606.48 2395.36,-3425.8 2756.72,-3369.74"/>
<polygon fill="black" stroke="black" points="2757.32,-3373.19 2766.66,-3368.2 2756.24,-3366.27 2757.32,-3373.19"/>
</g>
<!-- u29&#45;&gt;u32 -->
<g id="edge45" class="edge">
<title>u29&#45;&gt;u32</title>
<path fill="none" stroke="black" d="M844.36,-3661.38C1091.81,-3606.33 1883.77,-3430.16 2145.66,-3371.9"/>
<polygon fill="black" stroke="black" points="2146.5,-3375.3 2155.5,-3369.72 2144.98,-3368.47 2146.5,-3375.3"/>
</g>
<!-- u28&#45;&gt;u26 -->
<g id="edge42" class="edge">
<title>u28&#45;&gt;u26</title>
<path fill="none" stroke="black" d="M1570.63,-3661.32C1802.38,-3606.11 2543.8,-3429.45 2786.75,-3371.56"/>
<polygon fill="black" stroke="black" points="2787.64,-3374.95 2796.56,-3369.22 2786.02,-3368.14 2787.64,-3374.95"/>
</g>
<!-- u28&#45;&gt;u32 -->
<g id="edge43" class="edge">
<title>u28&#45;&gt;u32</title>
<path fill="none" stroke="black" d="M1538.61,-3661.1C1661.36,-3606.45 2047.42,-3434.57 2183,-3374.21"/>
<polygon fill="black" stroke="black" points="2184.61,-3377.33 2192.32,-3370.06 2181.76,-3370.93 2184.61,-3377.33"/>
</g>
<!-- u27&#45;&gt;u26 -->
<g id="edge40" class="edge">
<title>u27&#45;&gt;u26</title>
<path fill="none" stroke="black" d="M2263.84,-3660.98C2370.51,-3606.3 2704.45,-3435.12 2822.66,-3374.52"/>
<polygon fill="black" stroke="black" points="2824.48,-3377.52 2831.78,-3369.85 2821.28,-3371.29 2824.48,-3377.52"/>
</g>
<!-- u27&#45;&gt;u32 -->
<g id="edge41" class="edge">
<title>u27&#45;&gt;u32</title>
<path fill="none" stroke="black" d="M2230.65,-3660.98C2230.65,-3608.02 2230.65,-3445.74 2230.65,-3380.54"/>
<polygon fill="black" stroke="black" points="2234.15,-3380.24 2230.65,-3370.24 2227.15,-3380.24 2234.15,-3380.24"/>
</g>
<!-- u19 -->
<g id="node53" class="node">
<title>u19</title>
<ellipse fill="#77ffff" stroke="black" cx="3372.65" cy="-3352" rx="267.55" ry="18"/>
<text text-anchor="middle" x="3372.65" y="-3348.3" font-family="Times,serif" font-size="14.00">Language.Drasil.Code.Imperative.Parsers.ConfigParser</text>
</g>
<!-- u19&#45;&gt;u33 -->
<g id="edge32" class="edge">
<title>u19&#45;&gt;u33</title>
<path fill="none" stroke="black" d="M3371.55,-3333.98C3368.12,-3281.02 3357.64,-3118.74 3353.42,-3053.54"/>
<polygon fill="black" stroke="black" points="3356.9,-3052.99 3352.76,-3043.24 3349.91,-3053.44 3356.9,-3052.99"/>
</g>
<!-- u2&#45;&gt;u7 -->
<g id="edge6" class="edge">
<title>u2&#45;&gt;u7</title>
<path fill="none" stroke="black" d="M4586.58,-1044.79C4559.07,-993.18 4472.98,-836.02 4383.65,-718 4189.48,-461.49 3910.01,-188.39 3825.07,-107.12"/>
<polygon fill="black" stroke="black" points="3827.35,-104.45 3817.7,-100.08 3822.51,-109.51 3827.35,-104.45"/>
</g>
<!-- u1&#45;&gt;u47 -->
<g id="edge5" class="edge">
<title>u1&#45;&gt;u47</title>
<path fill="none" stroke="black" d="M3877.14,-1371.98C3802.12,-1317.69 3568.41,-1148.52 3483.17,-1086.82"/>
<polygon fill="black" stroke="black" points="3485.07,-1083.88 3474.92,-1080.85 3480.97,-1089.55 3485.07,-1083.88"/>
</g>
<!-- u1&#45;&gt;u12 -->
<g id="edge4" class="edge">
<title>u1&#45;&gt;u12</title>
<path fill="none" stroke="black" d="M3917.14,-1371.98C3969.22,-1318.25 4130.33,-1152.02 4191.63,-1088.77"/>
<polygon fill="black" stroke="black" points="4194.49,-1090.86 4198.94,-1081.24 4189.46,-1085.98 4194.49,-1090.86"/>
</g>
<!-- u1&#45;&gt;u10 -->
<g id="edge3" class="edge">
<title>u1&#45;&gt;u10</title>
<path fill="none" stroke="black" d="M3895.36,-1371.98C3878.86,-1318.91 3828.26,-1156.07 3808.08,-1091.14"/>
<polygon fill="black" stroke="black" points="3811.31,-1089.75 3805,-1081.24 3804.63,-1091.83 3811.31,-1089.75"/>
</g>
<!-- u1&#45;&gt;u2 -->
<g id="edge2" class="edge">
<title>u1&#45;&gt;u2</title>
<path fill="none" stroke="black" d="M3936.55,-1372.21C4053.29,-1317.62 4422,-1145.2 4550.75,-1084.99"/>
<polygon fill="black" stroke="black" points="4552.38,-1088.1 4559.96,-1080.69 4549.42,-1081.75 4552.38,-1088.1"/>
</g>
<!-- u55 -->
<g id="node56" class="node">
<title>u55</title>
<ellipse fill="#33ff33" stroke="black" cx="261.65" cy="-4660" rx="108.58" ry="18"/>
<text text-anchor="middle" x="261.65" y="-4656.3" font-family="Times,serif" font-size="14.00">drasil&#45;code.test.Main</text>
</g>
<!-- u55&#45;&gt;u54 -->
<g id="edge88" class="edge">
<title>u55&#45;&gt;u54</title>
<path fill="none" stroke="black" d="M250.7,-4641.98C216.28,-4588.46 110.06,-4423.28 69.04,-4359.5"/>
<polygon fill="black" stroke="black" points="71.83,-4357.37 63.48,-4350.85 65.94,-4361.15 71.83,-4357.37"/>
</g>
<!-- u55&#45;&gt;u51 -->
<g id="edge87" class="edge">
<title>u55&#45;&gt;u51</title>
<path fill="none" stroke="black" d="M257.82,-4641.98C245.9,-4588.91 209.32,-4426.07 194.74,-4361.14"/>
<polygon fill="black" stroke="black" points="198.12,-4360.23 192.52,-4351.24 191.29,-4361.76 198.12,-4360.23"/>
</g>
<!-- u55&#45;&gt;u50 -->
<g id="edge86" class="edge">
<title>u55&#45;&gt;u50</title>
<path fill="none" stroke="black" d="M265.41,-4641.98C277.17,-4588.91 313.25,-4426.07 327.63,-4361.14"/>
<polygon fill="black" stroke="black" points="331.08,-4361.76 329.83,-4351.24 324.25,-4360.25 331.08,-4361.76"/>
</g>
<!-- u55&#45;&gt;u48 -->
<g id="edge85" class="edge">
<title>u55&#45;&gt;u48</title>
<path fill="none" stroke="black" d="M325.8,-4645.35C571.42,-4593.07 1451.41,-4405.77 1714.1,-4349.87"/>
<polygon fill="black" stroke="black" points="1714.87,-4353.28 1723.92,-4347.78 1713.41,-4346.43 1714.87,-4353.28"/>
</g>
</g>
</svg>
