<?xml version="1.0" encoding="UTF-8" standalone="no"?>
<!DOCTYPE svg PUBLIC "-//W3C//DTD SVG 1.1//EN"
 "http://www.w3.org/Graphics/SVG/1.1/DTD/svg11.dtd">
<!-- Generated by graphviz version 2.43.0 (0)
 -->
<!-- Title: G Pages: 1 -->
<svg width="431pt" height="288pt"
 viewBox="0.00 0.00 431.19 288.00" xmlns="http://www.w3.org/2000/svg" xmlns:xlink="http://www.w3.org/1999/xlink">
<g id="graph0" class="graph" transform="scale(4.85 4.85) rotate(0) translate(4 1392)">
<title>G</title>
<polygon fill="white" stroke="transparent" points="-4,4 -4,-1392 2086.07,-1392 2086.07,4 -4,4"/>
<!-- u29 -->
<g id="node1" class="node">
<title>u29</title>
<ellipse fill="#bbffbb" stroke="black" cx="833.49" cy="-694" rx="119.68" ry="18"/>
<text text-anchor="middle" x="833.49" y="-690.3" font-family="Times,serif" font-size="14.00">Language.Drasil.Config</text>
</g>
<!-- u20 -->
<g id="node2" class="node">
<title>u20</title>
<ellipse fill="#bbffbb" stroke="black" cx="123.49" cy="-1138" rx="123.48" ry="18"/>
<text text-anchor="middle" x="123.49" y="-1134.3" font-family="Times,serif" font-size="14.00">Language.Drasil.Format</text>
</g>
<!-- u18 -->
<g id="node3" class="node">
<title>u18</title>
<ellipse fill="#bbffbb" stroke="black" cx="722.49" cy="-1360" rx="128.08" ry="18"/>
<text text-anchor="middle" x="722.49" y="-1356.3" font-family="Times,serif" font-size="14.00">Language.Drasil.Printers</text>
</g>
<!-- u19 -->
<g id="node4" class="node">
<title>u19</title>
<ellipse fill="#ffffbb" stroke="black" cx="282.49" cy="-1249" rx="135.68" ry="18"/>
<text text-anchor="middle" x="282.49" y="-1245.3" font-family="Times,serif" font-size="14.00">Language.Drasil.DOT.Print</text>
</g>
<!-- u18&#45;&gt;u19 -->
<g id="edge22" class="edge">
<title>u18&#45;&gt;u19</title>
<path fill="none" stroke="black" d="M662.23,-1344.07C581.63,-1324.11 438.98,-1288.77 353.33,-1267.55"/>
<polygon fill="black" stroke="black" points="353.98,-1264.1 343.43,-1265.1 352.3,-1270.9 353.98,-1264.1"/>
</g>
<!-- u31 -->
<g id="node9" class="node">
<title>u31</title>
<ellipse fill="#ffbbbb" stroke="black" cx="576.49" cy="-1249" rx="140.28" ry="18"/>
<text text-anchor="middle" x="576.49" y="-1245.3" font-family="Times,serif" font-size="14.00">Language.Drasil.JSON.Print</text>
</g>
<!-- u18&#45;&gt;u31 -->
<g id="edge23" class="edge">
<title>u18&#45;&gt;u31</title>
<path fill="none" stroke="black" d="M700,-1342.21C675.21,-1323.7 635.17,-1293.81 607.43,-1273.1"/>
<polygon fill="black" stroke="black" points="609.35,-1270.17 599.25,-1266.99 605.17,-1275.78 609.35,-1270.17"/>
</g>
<!-- u0 -->
<g id="node11" class="node">
<title>u0</title>
<ellipse fill="#bbffff" stroke="black" cx="868.49" cy="-1249" rx="133.48" ry="18"/>
<text text-anchor="middle" x="868.49" y="-1245.3" font-family="Times,serif" font-size="14.00">Language.Drasil.Log.Print</text>
</g>
<!-- u18&#45;&gt;u0 -->
<g id="edge20" class="edge">
<title>u18&#45;&gt;u0</title>
<path fill="none" stroke="black" d="M744.98,-1342.21C769.77,-1323.7 809.81,-1293.81 837.55,-1273.1"/>
<polygon fill="black" stroke="black" points="839.81,-1275.78 845.73,-1266.99 835.62,-1270.17 839.81,-1275.78"/>
</g>
<!-- u16 -->
<g id="node12" class="node">
<title>u16</title>
<ellipse fill="#ffbbff" stroke="black" cx="1208.49" cy="-1249" rx="188.47" ry="18"/>
<text text-anchor="middle" x="1208.49" y="-1245.3" font-family="Times,serif" font-size="14.00">Language.Drasil.Markdown.CreateMd</text>
</g>
<!-- u18&#45;&gt;u16 -->
<g id="edge21" class="edge">
<title>u18&#45;&gt;u16</title>
<path fill="none" stroke="black" d="M787.28,-1344.47C875.39,-1324.71 1032.92,-1289.38 1128.36,-1267.97"/>
<polygon fill="black" stroke="black" points="1129.26,-1271.36 1138.25,-1265.75 1127.72,-1264.53 1129.26,-1271.36"/>
</g>
<!-- u28 -->
<g id="node5" class="node">
<title>u28</title>
<ellipse fill="#bbbbff" stroke="black" cx="1022.49" cy="-1027" rx="140.28" ry="18"/>
<text text-anchor="middle" x="1022.49" y="-1023.3" font-family="Times,serif" font-size="14.00">Language.Drasil.HTML.CSS</text>
</g>
<!-- u27 -->
<g id="node6" class="node">
<title>u27</title>
<ellipse fill="#bbbbff" stroke="black" cx="734.49" cy="-1138" rx="144.87" ry="18"/>
<text text-anchor="middle" x="734.49" y="-1134.3" font-family="Times,serif" font-size="14.00">Language.Drasil.HTML.Print</text>
</g>
<!-- u27&#45;&gt;u28 -->
<g id="edge35" class="edge">
<title>u27&#45;&gt;u28</title>
<path fill="none" stroke="black" d="M777.29,-1120.8C828.59,-1101.39 914.52,-1068.86 969.83,-1047.93"/>
<polygon fill="black" stroke="black" points="971.33,-1051.1 979.45,-1044.29 968.86,-1044.56 971.33,-1051.1"/>
</g>
<!-- u26 -->
<g id="node7" class="node">
<title>u26</title>
<ellipse fill="#bbbbff" stroke="black" cx="418.49" cy="-1027" rx="157.87" ry="18"/>
<text text-anchor="middle" x="418.49" y="-1023.3" font-family="Times,serif" font-size="14.00">Language.Drasil.HTML.Helpers</text>
</g>
<!-- u27&#45;&gt;u26 -->
<g id="edge34" class="edge">
<title>u27&#45;&gt;u26</title>
<path fill="none" stroke="black" d="M687.86,-1120.92C631.35,-1101.42 536.16,-1068.59 475.38,-1047.62"/>
<polygon fill="black" stroke="black" points="476.16,-1044.19 465.57,-1044.24 473.88,-1050.81 476.16,-1044.19"/>
</g>
<!-- u25 -->
<g id="node8" class="node">
<title>u25</title>
<ellipse fill="#bbbbff" stroke="black" cx="1334.49" cy="-1027" rx="153.27" ry="18"/>
<text text-anchor="middle" x="1334.49" y="-1023.3" font-family="Times,serif" font-size="14.00">Language.Drasil.HTML.Monad</text>
</g>
<!-- u27&#45;&gt;u25 -->
<g id="edge33" class="edge">
<title>u27&#45;&gt;u25</title>
<path fill="none" stroke="black" d="M812.62,-1122.81C923.95,-1102.58 1127.68,-1065.57 1244.95,-1044.27"/>
<polygon fill="black" stroke="black" points="1245.77,-1047.67 1254.98,-1042.44 1244.52,-1040.79 1245.77,-1047.67"/>
</g>
<!-- u23 -->
<g id="node30" class="node">
<title>u23</title>
<ellipse fill="#ff7777" stroke="black" cx="730.49" cy="-1027" rx="133.48" ry="18"/>
<text text-anchor="middle" x="730.49" y="-1023.3" font-family="Times,serif" font-size="14.00">Language.Drasil.TeX.Print</text>
</g>
<!-- u27&#45;&gt;u23 -->
<g id="edge32" class="edge">
<title>u27&#45;&gt;u23</title>
<path fill="none" stroke="black" d="M733.86,-1119.97C733.23,-1102.71 732.24,-1075.74 731.5,-1055.46"/>
<polygon fill="black" stroke="black" points="734.99,-1055.14 731.12,-1045.27 727.99,-1055.39 734.99,-1055.14"/>
</g>
<!-- u15 -->
<g id="node14" class="node">
<title>u15</title>
<ellipse fill="#ffff77" stroke="black" cx="1165.49" cy="-28" rx="149.47" ry="18"/>
<text text-anchor="middle" x="1165.49" y="-24.3" font-family="Times,serif" font-size="14.00">Language.Drasil.Printing.AST</text>
</g>
<!-- u26&#45;&gt;u15 -->
<g id="edge31" class="edge">
<title>u26&#45;&gt;u15</title>
<path fill="none" stroke="black" d="M413.97,-1008.74C404.73,-971.83 384.49,-882.33 384.49,-806 384.49,-806 384.49,-806 384.49,-249 384.49,-116.16 808.39,-59.65 1031.59,-39.1"/>
<polygon fill="black" stroke="black" points="1032.1,-42.56 1041.74,-38.17 1031.46,-35.59 1032.1,-42.56"/>
</g>
<!-- u31&#45;&gt;u20 -->
<g id="edge38" class="edge">
<title>u31&#45;&gt;u20</title>
<path fill="none" stroke="black" d="M513.5,-1232.84C429.7,-1212.68 281.95,-1177.13 194.35,-1156.05"/>
<polygon fill="black" stroke="black" points="195.04,-1152.62 184.49,-1153.68 193.4,-1159.42 195.04,-1152.62"/>
</g>
<!-- u31&#45;&gt;u27 -->
<g id="edge39" class="edge">
<title>u31&#45;&gt;u27</title>
<path fill="none" stroke="black" d="M600.83,-1231.21C627.85,-1212.56 671.61,-1182.38 701.65,-1161.65"/>
<polygon fill="black" stroke="black" points="703.88,-1164.37 710.12,-1155.81 699.9,-1158.61 703.88,-1164.37"/>
</g>
<!-- u30 -->
<g id="node10" class="node">
<title>u30</title>
<ellipse fill="#ffbbbb" stroke="black" cx="418.49" cy="-1138" rx="153.27" ry="18"/>
<text text-anchor="middle" x="418.49" y="-1134.3" font-family="Times,serif" font-size="14.00">Language.Drasil.JSON.Helpers</text>
</g>
<!-- u31&#45;&gt;u30 -->
<g id="edge40" class="edge">
<title>u31&#45;&gt;u30</title>
<path fill="none" stroke="black" d="M552.15,-1231.21C525.12,-1212.56 481.36,-1182.38 451.32,-1161.65"/>
<polygon fill="black" stroke="black" points="453.08,-1158.61 442.86,-1155.81 449.1,-1164.37 453.08,-1158.61"/>
</g>
<!-- u30&#45;&gt;u26 -->
<g id="edge37" class="edge">
<title>u30&#45;&gt;u26</title>
<path fill="none" stroke="black" d="M418.49,-1119.97C418.49,-1102.71 418.49,-1075.74 418.49,-1055.46"/>
<polygon fill="black" stroke="black" points="421.99,-1055.27 418.49,-1045.27 414.99,-1055.27 421.99,-1055.27"/>
</g>
<!-- u1 -->
<g id="node19" class="node">
<title>u1</title>
<ellipse fill="#ffff77" stroke="black" cx="189.49" cy="-583" rx="167.07" ry="18"/>
<text text-anchor="middle" x="189.49" y="-579.3" font-family="Times,serif" font-size="14.00">Language.Drasil.Printing.Helpers</text>
</g>
<!-- u30&#45;&gt;u1 -->
<g id="edge36" class="edge">
<title>u30&#45;&gt;u1</title>
<path fill="none" stroke="black" d="M364.54,-1121.09C326.94,-1107.15 278.8,-1083.05 251.49,-1045 217.79,-998.04 228.49,-974.8 228.49,-917 228.49,-917 228.49,-917 228.49,-804 228.49,-733.52 208.85,-652.27 197.44,-611.04"/>
<polygon fill="black" stroke="black" points="200.75,-609.89 194.67,-601.21 194.02,-611.79 200.75,-609.89"/>
</g>
<!-- u17 -->
<g id="node13" class="node">
<title>u17</title>
<ellipse fill="#77ff77" stroke="black" cx="1274.49" cy="-1138" rx="139.98" ry="18"/>
<text text-anchor="middle" x="1274.49" y="-1134.3" font-family="Times,serif" font-size="14.00">Language.Drasil.Plain.Print</text>
</g>
<!-- u0&#45;&gt;u17 -->
<g id="edge1" class="edge">
<title>u0&#45;&gt;u17</title>
<path fill="none" stroke="black" d="M925.8,-1232.61C999.79,-1212.75 1128.37,-1178.23 1207.01,-1157.12"/>
<polygon fill="black" stroke="black" points="1208.07,-1160.46 1216.82,-1154.48 1206.25,-1153.7 1208.07,-1160.46"/>
</g>
<!-- u13 -->
<g id="node16" class="node">
<title>u13</title>
<ellipse fill="#ffff77" stroke="black" cx="1515.49" cy="-916" rx="162.47" ry="18"/>
<text text-anchor="middle" x="1515.49" y="-912.3" font-family="Times,serif" font-size="14.00">Language.Drasil.Printing.Import</text>
</g>
<!-- u17&#45;&gt;u13 -->
<g id="edge19" class="edge">
<title>u17&#45;&gt;u13</title>
<path fill="none" stroke="black" d="M1357.54,-1123.44C1405.52,-1111.17 1462.87,-1088.09 1496.49,-1045 1518.92,-1016.26 1520.55,-972.53 1518.73,-944.35"/>
<polygon fill="black" stroke="black" points="1522.22,-944.06 1517.91,-934.38 1515.24,-944.64 1522.22,-944.06"/>
</g>
<!-- u14 -->
<g id="node15" class="node">
<title>u14</title>
<ellipse fill="#ffff77" stroke="black" cx="1147.49" cy="-472" rx="167.87" ry="18"/>
<text text-anchor="middle" x="1147.49" y="-468.3" font-family="Times,serif" font-size="14.00">Language.Drasil.Printing.Citation</text>
</g>
<!-- u14&#45;&gt;u15 -->
<g id="edge18" class="edge">
<title>u14&#45;&gt;u15</title>
<path fill="none" stroke="black" d="M1148.18,-453.94C1150.92,-386.68 1160.99,-139.44 1164.37,-56.4"/>
<polygon fill="black" stroke="black" points="1167.88,-56.38 1164.79,-46.24 1160.88,-56.09 1167.88,-56.38"/>
</g>
<!-- u10 -->
<g id="node20" class="node">
<title>u10</title>
<ellipse fill="#7777ff" stroke="black" cx="1515.49" cy="-805" rx="212.56" ry="18"/>
<text text-anchor="middle" x="1515.49" y="-801.3" font-family="Times,serif" font-size="14.00">Language.Drasil.Printing.Import.Document</text>
</g>
<!-- u13&#45;&gt;u10 -->
<g id="edge17" class="edge">
<title>u13&#45;&gt;u10</title>
<path fill="none" stroke="black" d="M1515.49,-897.97C1515.49,-880.71 1515.49,-853.74 1515.49,-833.46"/>
<polygon fill="black" stroke="black" points="1518.99,-833.27 1515.49,-823.27 1511.99,-833.27 1518.99,-833.27"/>
</g>
<!-- u6 -->
<g id="node24" class="node">
<title>u6</title>
<ellipse fill="#7777ff" stroke="black" cx="1790.49" cy="-361" rx="211.46" ry="18"/>
<text text-anchor="middle" x="1790.49" y="-357.3" font-family="Times,serif" font-size="14.00">Language.Drasil.Printing.Import.CodeExpr</text>
</g>
<!-- u13&#45;&gt;u6 -->
<g id="edge16" class="edge">
<title>u13&#45;&gt;u6</title>
<path fill="none" stroke="black" d="M1589.13,-899.9C1636.78,-886.76 1697.23,-863.27 1737.49,-823 1781.02,-779.45 1790.49,-756.57 1790.49,-695 1790.49,-695 1790.49,-695 1790.49,-582 1790.49,-512.58 1790.49,-430.84 1790.49,-389.26"/>
<polygon fill="black" stroke="black" points="1793.99,-389.12 1790.49,-379.12 1786.99,-389.12 1793.99,-389.12"/>
</g>
<!-- u12 -->
<g id="node17" class="node">
<title>u12</title>
<ellipse fill="#ffff77" stroke="black" cx="1149.49" cy="-694" rx="178.97" ry="18"/>
<text text-anchor="middle" x="1149.49" y="-690.3" font-family="Times,serif" font-size="14.00">Language.Drasil.Printing.LayoutObj</text>
</g>
<!-- u12&#45;&gt;u14 -->
<g id="edge15" class="edge">
<title>u12&#45;&gt;u14</title>
<path fill="none" stroke="black" d="M1149.33,-675.74C1148.99,-637.66 1148.15,-546.23 1147.74,-500.3"/>
<polygon fill="black" stroke="black" points="1151.24,-500.15 1147.65,-490.18 1144.24,-500.21 1151.24,-500.15"/>
</g>
<!-- u11 -->
<g id="node18" class="node">
<title>u11</title>
<ellipse fill="#ffff77" stroke="black" cx="1858.49" cy="-139" rx="223.66" ry="18"/>
<text text-anchor="middle" x="1858.49" y="-135.3" font-family="Times,serif" font-size="14.00">Language.Drasil.Printing.PrintingInformation</text>
</g>
<!-- u10&#45;&gt;u12 -->
<g id="edge14" class="edge">
<title>u10&#45;&gt;u12</title>
<path fill="none" stroke="black" d="M1460.3,-787.56C1394.25,-767.89 1283.84,-735.01 1213.94,-714.19"/>
<polygon fill="black" stroke="black" points="1214.51,-710.71 1203.93,-711.21 1212.52,-717.42 1214.51,-710.71"/>
</g>
<!-- u9 -->
<g id="node21" class="node">
<title>u9</title>
<ellipse fill="#7777ff" stroke="black" cx="1554.49" cy="-694" rx="207.96" ry="18"/>
<text text-anchor="middle" x="1554.49" y="-690.3" font-family="Times,serif" font-size="14.00">Language.Drasil.Printing.Import.Sentence</text>
</g>
<!-- u10&#45;&gt;u9 -->
<g id="edge13" class="edge">
<title>u10&#45;&gt;u9</title>
<path fill="none" stroke="black" d="M1521.58,-786.97C1527.81,-769.55 1537.58,-742.24 1544.86,-721.9"/>
<polygon fill="black" stroke="black" points="1548.24,-722.87 1548.31,-712.27 1541.65,-720.51 1548.24,-722.87"/>
</g>
<!-- u2 -->
<g id="node28" class="node">
<title>u2</title>
<ellipse fill="#7777ff" stroke="black" cx="1536.49" cy="-583" rx="216.36" ry="18"/>
<text text-anchor="middle" x="1536.49" y="-579.3" font-family="Times,serif" font-size="14.00">Language.Drasil.Printing.Import.ModelExpr</text>
</g>
<!-- u9&#45;&gt;u2 -->
<g id="edge12" class="edge">
<title>u9&#45;&gt;u2</title>
<path fill="none" stroke="black" d="M1551.68,-675.97C1548.81,-658.63 1544.33,-631.49 1540.98,-611.18"/>
<polygon fill="black" stroke="black" points="1544.42,-610.57 1539.34,-601.27 1537.52,-611.71 1544.42,-610.57"/>
</g>
<!-- u8 -->
<g id="node22" class="node">
<title>u8</title>
<ellipse fill="#7777ff" stroke="black" cx="1531.49" cy="-472" rx="193.07" ry="18"/>
<text text-anchor="middle" x="1531.49" y="-468.3" font-family="Times,serif" font-size="14.00">Language.Drasil.Printing.Import.Space</text>
</g>
<!-- u5 -->
<g id="node25" class="node">
<title>u5</title>
<ellipse fill="#7777ff" stroke="black" cx="1373.49" cy="-361" rx="187.67" ry="18"/>
<text text-anchor="middle" x="1373.49" y="-357.3" font-family="Times,serif" font-size="14.00">Language.Drasil.Printing.Import.Expr</text>
</g>
<!-- u8&#45;&gt;u5 -->
<g id="edge11" class="edge">
<title>u8&#45;&gt;u5</title>
<path fill="none" stroke="black" d="M1506.8,-453.97C1479.79,-435.33 1436.34,-405.36 1406.44,-384.73"/>
<polygon fill="black" stroke="black" points="1408.22,-381.71 1398,-378.91 1404.25,-387.47 1408.22,-381.71"/>
</g>
<!-- u7 -->
<g id="node23" class="node">
<title>u7</title>
<ellipse fill="#7777ff" stroke="black" cx="1789.49" cy="-250" rx="196.07" ry="18"/>
<text text-anchor="middle" x="1789.49" y="-246.3" font-family="Times,serif" font-size="14.00">Language.Drasil.Printing.Import.Literal</text>
</g>
<!-- u7&#45;&gt;u11 -->
<g id="edge10" class="edge">
<title>u7&#45;&gt;u11</title>
<path fill="none" stroke="black" d="M1800.27,-231.97C1811.5,-214.24 1829.22,-186.24 1842.16,-165.8"/>
<polygon fill="black" stroke="black" points="1845.16,-167.59 1847.56,-157.27 1839.25,-163.85 1845.16,-167.59"/>
</g>
<!-- u3 -->
<g id="node27" class="node">
<title>u3</title>
<ellipse fill="#7777ff" stroke="black" cx="1414.49" cy="-139" rx="202.26" ry="18"/>
<text text-anchor="middle" x="1414.49" y="-135.3" font-family="Times,serif" font-size="14.00">Language.Drasil.Printing.Import.Helpers</text>
</g>
<!-- u7&#45;&gt;u3 -->
<g id="edge9" class="edge">
<title>u7&#45;&gt;u3</title>
<path fill="none" stroke="black" d="M1733.35,-232.68C1665.73,-213.03 1552.31,-180.06 1480.55,-159.2"/>
<polygon fill="black" stroke="black" points="1481.29,-155.77 1470.71,-156.34 1479.33,-162.49 1481.29,-155.77"/>
</g>
<!-- u6&#45;&gt;u7 -->
<g id="edge8" class="edge">
<title>u6&#45;&gt;u7</title>
<path fill="none" stroke="black" d="M1790.33,-342.97C1790.17,-325.71 1789.93,-298.74 1789.74,-278.46"/>
<polygon fill="black" stroke="black" points="1793.24,-278.24 1789.65,-268.27 1786.24,-278.3 1793.24,-278.24"/>
</g>
<!-- u4 -->
<g id="node26" class="node">
<title>u4</title>
<ellipse fill="#7777ff" stroke="black" cx="1374.49" cy="-250" rx="200.36" ry="18"/>
<text text-anchor="middle" x="1374.49" y="-246.3" font-family="Times,serif" font-size="14.00">Language.Drasil.Printing.Import.Symbol</text>
</g>
<!-- u6&#45;&gt;u4 -->
<g id="edge7" class="edge">
<title>u6&#45;&gt;u4</title>
<path fill="none" stroke="black" d="M1728.21,-343.68C1652.68,-323.89 1525.62,-290.6 1446.11,-269.77"/>
<polygon fill="black" stroke="black" points="1446.74,-266.31 1436.17,-267.16 1444.96,-273.08 1446.74,-266.31"/>
</g>
<!-- u5&#45;&gt;u7 -->
<g id="edge6" class="edge">
<title>u5&#45;&gt;u7</title>
<path fill="none" stroke="black" d="M1434.87,-343.92C1510.3,-324.15 1638.06,-290.68 1717.88,-269.76"/>
<polygon fill="black" stroke="black" points="1719.07,-273.07 1727.85,-267.15 1717.29,-266.3 1719.07,-273.07"/>
</g>
<!-- u5&#45;&gt;u4 -->
<g id="edge5" class="edge">
<title>u5&#45;&gt;u4</title>
<path fill="none" stroke="black" d="M1373.65,-342.97C1373.8,-325.71 1374.05,-298.74 1374.24,-278.46"/>
<polygon fill="black" stroke="black" points="1377.74,-278.3 1374.33,-268.27 1370.74,-278.24 1377.74,-278.3"/>
</g>
<!-- u4&#45;&gt;u15 -->
<g id="edge4" class="edge">
<title>u4&#45;&gt;u15</title>
<path fill="none" stroke="black" d="M1320.93,-232.61C1283.01,-218.38 1233.7,-194.14 1203.49,-157 1179.86,-127.95 1170.92,-84.59 1167.54,-56.55"/>
<polygon fill="black" stroke="black" points="1170.99,-55.84 1166.47,-46.26 1164.02,-56.57 1170.99,-55.84"/>
</g>
<!-- u3&#45;&gt;u15 -->
<g id="edge3" class="edge">
<title>u3&#45;&gt;u15</title>
<path fill="none" stroke="black" d="M1376.13,-121.21C1332.1,-101.93 1259.87,-70.32 1212.5,-49.58"/>
<polygon fill="black" stroke="black" points="1213.64,-46.26 1203.08,-45.45 1210.83,-52.67 1213.64,-46.26"/>
</g>
<!-- u2&#45;&gt;u8 -->
<g id="edge2" class="edge">
<title>u2&#45;&gt;u8</title>
<path fill="none" stroke="black" d="M1535.71,-564.97C1534.92,-547.71 1533.68,-520.74 1532.75,-500.46"/>
<polygon fill="black" stroke="black" points="1536.24,-500.1 1532.28,-490.27 1529.24,-500.42 1536.24,-500.1"/>
</g>
<!-- u24 -->
<g id="node29" class="node">
<title>u24</title>
<ellipse fill="#ff7777" stroke="black" cx="765.49" cy="-916" rx="154.07" ry="18"/>
<text text-anchor="middle" x="765.49" y="-912.3" font-family="Times,serif" font-size="14.00">Language.Drasil.TeX.Preamble</text>
</g>
<!-- u24&#45;&gt;u12 -->
<g id="edge29" class="edge">
<title>u24&#45;&gt;u12</title>
<path fill="none" stroke="black" d="M794.67,-898.28C863.2,-859.02 1034.45,-760.91 1111.21,-716.93"/>
<polygon fill="black" stroke="black" points="1113.16,-719.85 1120.09,-711.84 1109.68,-713.78 1113.16,-719.85"/>
</g>
<!-- u22 -->
<g id="node31" class="node">
<title>u22</title>
<ellipse fill="#ff7777" stroke="black" cx="765.49" cy="-805" rx="146.47" ry="18"/>
<text text-anchor="middle" x="765.49" y="-801.3" font-family="Times,serif" font-size="14.00">Language.Drasil.TeX.Helpers</text>
</g>
<!-- u24&#45;&gt;u22 -->
<g id="edge30" class="edge">
<title>u24&#45;&gt;u22</title>
<path fill="none" stroke="black" d="M765.49,-897.97C765.49,-880.71 765.49,-853.74 765.49,-833.46"/>
<polygon fill="black" stroke="black" points="768.99,-833.27 765.49,-823.27 761.99,-833.27 768.99,-833.27"/>
</g>
<!-- u23&#45;&gt;u13 -->
<g id="edge27" class="edge">
<title>u23&#45;&gt;u13</title>
<path fill="none" stroke="black" d="M819.77,-1013.6C965.07,-993.43 1252.1,-953.57 1408.23,-931.89"/>
<polygon fill="black" stroke="black" points="1408.89,-935.33 1418.32,-930.49 1407.93,-928.4 1408.89,-935.33"/>
</g>
<!-- u23&#45;&gt;u24 -->
<g id="edge28" class="edge">
<title>u23&#45;&gt;u24</title>
<path fill="none" stroke="black" d="M735.96,-1008.97C741.55,-991.55 750.32,-964.24 756.85,-943.9"/>
<polygon fill="black" stroke="black" points="760.22,-944.86 759.94,-934.27 753.55,-942.72 760.22,-944.86"/>
</g>
<!-- u22&#45;&gt;u29 -->
<g id="edge26" class="edge">
<title>u22&#45;&gt;u29</title>
<path fill="none" stroke="black" d="M776.11,-786.97C787.18,-769.24 804.64,-741.24 817.4,-720.8"/>
<polygon fill="black" stroke="black" points="820.39,-722.61 822.71,-712.27 814.45,-718.9 820.39,-722.61"/>
</g>
<!-- u21 -->
<g id="node32" class="node">
<title>u21</title>
<ellipse fill="#ff7777" stroke="black" cx="554.49" cy="-694" rx="141.88" ry="18"/>
<text text-anchor="middle" x="554.49" y="-690.3" font-family="Times,serif" font-size="14.00">Language.Drasil.TeX.Monad</text>
</g>
<!-- u22&#45;&gt;u21 -->
<g id="edge25" class="edge">
<title>u22&#45;&gt;u21</title>
<path fill="none" stroke="black" d="M732.98,-787.21C696.09,-768.15 635.84,-737.02 595.68,-716.28"/>
<polygon fill="black" stroke="black" points="597.18,-713.11 586.69,-711.63 593.96,-719.33 597.18,-713.11"/>
</g>
<!-- u21&#45;&gt;u1 -->
<g id="edge24" class="edge">
<title>u21&#45;&gt;u1</title>
<path fill="none" stroke="black" d="M501.8,-677.27C436,-657.62 323.51,-624.02 253.01,-602.97"/>
<polygon fill="black" stroke="black" points="253.93,-599.59 243.35,-600.08 251.93,-606.3 253.93,-599.59"/>
</g>
</g>
</svg>
