<?xml version="1.0" encoding="UTF-8" standalone="no"?>
<!DOCTYPE svg PUBLIC "-//W3C//DTD SVG 1.1//EN"
 "http://www.w3.org/Graphics/SVG/1.1/DTD/svg11.dtd">
<!-- Generated by graphviz version 2.43.0 (0)
 -->
<!-- Title: G Pages: 1 -->
<svg width="432pt" height="288pt"
 viewBox="0.00 0.00 431.71 288.00" xmlns="http://www.w3.org/2000/svg" xmlns:xlink="http://www.w3.org/1999/xlink">
<g id="graph0" class="graph" transform="scale(10.38 10.38) rotate(0) translate(4 2986.67)">
<title>G</title>
<polygon fill="white" stroke="transparent" points="-4,4 -4,-2986.67 4478.97,-2986.67 4478.97,4 -4,4"/>
<!-- u22 -->
<g id="node1" class="node">
<title>u22</title>
<ellipse fill="#bbffbb" stroke="black" cx="3312.69" cy="-1842" rx="92.08" ry="18"/>
<text text-anchor="middle" x="3312.69" y="-1838.3" font-family="Times,serif" font-size="14.00">Drasil.TraceTable</text>
</g>
<!-- u24 -->
<g id="node13" class="node">
<title>u24</title>
<ellipse fill="#bbbbff" stroke="black" cx="2393.69" cy="-1140" rx="159.47" ry="18"/>
<text text-anchor="middle" x="2393.69" y="-1136.3" font-family="Times,serif" font-size="14.00">Drasil.DocumentLanguage.Core</text>
</g>
<!-- u22&#45;&gt;u24 -->
<g id="edge42" class="edge">
<title>u22&#45;&gt;u24</title>
<path fill="none" stroke="black" d="M3321,-1823.96C3347.11,-1767.71 3421.22,-1585.12 3341.69,-1473 3163.58,-1221.9 2780.3,-1159.24 2559.52,-1144.53"/>
<polygon fill="black" stroke="black" points="2559.66,-1141.03 2549.46,-1143.88 2559.21,-1148.01 2559.66,-1141.03"/>
</g>
<!-- u21 -->
<g id="node2" class="node">
<title>u21</title>
<ellipse fill="#bbffbb" stroke="black" cx="3122.69" cy="-1842" rx="79.09" ry="18"/>
<text text-anchor="middle" x="3122.69" y="-1838.3" font-family="Times,serif" font-size="14.00">Drasil.DocDecl</text>
</g>
<!-- u21&#45;&gt;u24 -->
<g id="edge41" class="edge">
<title>u21&#45;&gt;u24</title>
<path fill="none" stroke="black" d="M3144.54,-1824.4C3212.23,-1770.96 3408.73,-1599.52 3319.69,-1473 3146.37,-1226.74 2772.5,-1162.21 2556.58,-1145.9"/>
<polygon fill="black" stroke="black" points="2556.64,-1142.39 2546.41,-1145.16 2556.13,-1149.37 2556.64,-1142.39"/>
</g>
<!-- u17 -->
<g id="node21" class="node">
<title>u17</title>
<ellipse fill="#ffbbff" stroke="black" cx="3139.69" cy="-1491" rx="149.47" ry="18"/>
<text text-anchor="middle" x="3139.69" y="-1487.3" font-family="Times,serif" font-size="14.00">Drasil.Sections.Requirements</text>
</g>
<!-- u21&#45;&gt;u17 -->
<g id="edge40" class="edge">
<title>u21&#45;&gt;u17</title>
<path fill="none" stroke="black" d="M3123.53,-1823.69C3126.28,-1767.16 3135.03,-1587.64 3138.37,-1519.02"/>
<polygon fill="black" stroke="black" points="3141.87,-1519.16 3138.86,-1509 3134.88,-1518.82 3141.87,-1519.16"/>
</g>
<!-- u6 -->
<g id="node3" class="node">
<title>u6</title>
<ellipse fill="#bbffbb" stroke="black" cx="1808.69" cy="-2193" rx="133.78" ry="18"/>
<text text-anchor="middle" x="1808.69" y="-2189.3" font-family="Times,serif" font-size="14.00">Drasil.DocumentLanguage</text>
</g>
<!-- u6&#45;&gt;u22 -->
<g id="edge21" class="edge">
<title>u6&#45;&gt;u22</title>
<path fill="none" stroke="black" d="M1872.83,-2177.12C2118.1,-2120.2 2995.28,-1916.65 3245.57,-1858.57"/>
<polygon fill="black" stroke="black" points="3246.67,-1861.91 3255.62,-1856.24 3245.09,-1855.09 3246.67,-1861.91"/>
</g>
<!-- u6&#45;&gt;u21 -->
<g id="edge20" class="edge">
<title>u6&#45;&gt;u21</title>
<path fill="none" stroke="black" d="M1866.42,-2176.67C2082.77,-2119.2 2844.27,-1916.95 3063.33,-1858.77"/>
<polygon fill="black" stroke="black" points="3064.27,-1862.14 3073.04,-1856.19 3062.48,-1855.37 3064.27,-1862.14"/>
</g>
<!-- u1 -->
<g id="node5" class="node">
<title>u1</title>
<ellipse fill="#bbffbb" stroke="black" cx="2764.69" cy="-1842" rx="116.18" ry="18"/>
<text text-anchor="middle" x="2764.69" y="-1838.3" font-family="Times,serif" font-size="14.00">Drasil.ExtractDocDesc</text>
</g>
<!-- u6&#45;&gt;u1 -->
<g id="edge14" class="edge">
<title>u6&#45;&gt;u1</title>
<path fill="none" stroke="black" d="M1852.56,-2175.98C2009.39,-2118.73 2541.85,-1924.35 2711.97,-1862.24"/>
<polygon fill="black" stroke="black" points="2713.27,-1865.5 2721.46,-1858.78 2710.87,-1858.92 2713.27,-1865.5"/>
</g>
<!-- u4 -->
<g id="node7" class="node">
<title>u4</title>
<ellipse fill="#ffffbb" stroke="black" cx="1890.69" cy="-1842" rx="136.48" ry="18"/>
<text text-anchor="middle" x="1890.69" y="-1838.3" font-family="Times,serif" font-size="14.00">Drasil.DocLang.References</text>
</g>
<!-- u6&#45;&gt;u4 -->
<g id="edge15" class="edge">
<title>u6&#45;&gt;u4</title>
<path fill="none" stroke="black" d="M1812.75,-2174.69C1826.04,-2118.16 1868.22,-1938.64 1884.34,-1870.02"/>
<polygon fill="black" stroke="black" points="1887.81,-1870.54 1886.69,-1860 1881,-1868.93 1887.81,-1870.54"/>
</g>
<!-- u27 -->
<g id="node10" class="node">
<title>u27</title>
<ellipse fill="#bbbbff" stroke="black" cx="1295.69" cy="-1842" rx="220.96" ry="18"/>
<text text-anchor="middle" x="1295.69" y="-1838.3" font-family="Times,serif" font-size="14.00">Drasil.DocumentLanguage.TraceabilityGraph</text>
</g>
<!-- u6&#45;&gt;u27 -->
<g id="edge22" class="edge">
<title>u6&#45;&gt;u27</title>
<path fill="none" stroke="black" d="M1783.94,-2175.17C1699.91,-2117.99 1425.32,-1931.19 1329.25,-1865.83"/>
<polygon fill="black" stroke="black" points="1331.02,-1862.8 1320.78,-1860.07 1327.08,-1868.59 1331.02,-1862.8"/>
</g>
<!-- u16 -->
<g id="node22" class="node">
<title>u16</title>
<ellipse fill="#ffbbff" stroke="black" cx="879.69" cy="-1842" rx="144.87" ry="18"/>
<text text-anchor="middle" x="879.69" y="-1838.3" font-family="Times,serif" font-size="14.00">Drasil.Sections.Stakeholders</text>
</g>
<!-- u6&#45;&gt;u16 -->
<g id="edge19" class="edge">
<title>u6&#45;&gt;u16</title>
<path fill="none" stroke="black" d="M1765.74,-2175.87C1613.46,-2118.66 1099.48,-1925.57 932.54,-1862.85"/>
<polygon fill="black" stroke="black" points="933.57,-1859.5 922.98,-1859.26 931.11,-1866.06 933.57,-1859.5"/>
</g>
<!-- u14 -->
<g id="node24" class="node">
<title>u14</title>
<ellipse fill="#ffbbff" stroke="black" cx="576.69" cy="-1491" rx="161.37" ry="18"/>
<text text-anchor="middle" x="576.69" y="-1487.3" font-family="Times,serif" font-size="14.00">Drasil.Sections.TableOfContents</text>
</g>
<!-- u6&#45;&gt;u14 -->
<g id="edge18" class="edge">
<title>u6&#45;&gt;u14</title>
<path fill="none" stroke="black" d="M1800.25,-2174.92C1770.77,-2116.97 1666.45,-1925.75 1525.69,-1824 1255.69,-1628.84 860.78,-1540.14 677.3,-1507.64"/>
<polygon fill="black" stroke="black" points="677.84,-1504.18 667.39,-1505.9 676.63,-1511.08 677.84,-1504.18"/>
</g>
<!-- u13 -->
<g id="node25" class="node">
<title>u13</title>
<ellipse fill="#ffbbff" stroke="black" cx="490.69" cy="-1842" rx="163.27" ry="18"/>
<text text-anchor="middle" x="490.69" y="-1838.3" font-family="Times,serif" font-size="14.00">Drasil.Sections.GeneralSystDesc</text>
</g>
<!-- u6&#45;&gt;u13 -->
<g id="edge17" class="edge">
<title>u6&#45;&gt;u13</title>
<path fill="none" stroke="black" d="M1750.78,-2176.67C1536.97,-2120.05 792.34,-1922.88 560.29,-1861.43"/>
<polygon fill="black" stroke="black" points="560.85,-1857.96 550.28,-1858.78 559.05,-1864.72 560.85,-1857.96"/>
</g>
<!-- u11 -->
<g id="node27" class="node">
<title>u11</title>
<ellipse fill="#ffbbff" stroke="black" cx="141.69" cy="-1491" rx="141.88" ry="18"/>
<text text-anchor="middle" x="141.69" y="-1487.3" font-family="Times,serif" font-size="14.00">Drasil.Sections.Introduction</text>
</g>
<!-- u6&#45;&gt;u11 -->
<g id="edge16" class="edge">
<title>u6&#45;&gt;u11</title>
<path fill="none" stroke="black" d="M1708.12,-2181.06C1409.96,-2146.91 537.95,-2034.02 318.69,-1860 204.83,-1769.64 159.81,-1587.97 146.4,-1519.21"/>
<polygon fill="black" stroke="black" points="149.8,-1518.35 144.52,-1509.17 142.92,-1519.65 149.8,-1518.35"/>
</g>
<!-- u5 -->
<g id="node4" class="node">
<title>u5</title>
<ellipse fill="#bbffbb" stroke="black" cx="3839.69" cy="-2895" rx="108.58" ry="18"/>
<text text-anchor="middle" x="3839.69" y="-2891.3" font-family="Times,serif" font-size="14.00">Drasil.SRSDocument</text>
</g>
<!-- u0 -->
<g id="node6" class="node">
<title>u0</title>
<ellipse fill="#bbffbb" stroke="black" cx="3839.69" cy="-2544" rx="81.79" ry="18"/>
<text text-anchor="middle" x="3839.69" y="-2540.3" font-family="Times,serif" font-size="14.00">Drasil.DocLang</text>
</g>
<!-- u5&#45;&gt;u0 -->
<g id="edge13" class="edge">
<title>u5&#45;&gt;u0</title>
<path fill="none" stroke="black" d="M3839.69,-2876.69C3839.69,-2820.29 3839.69,-2641.47 3839.69,-2572.5"/>
<polygon fill="black" stroke="black" points="3843.19,-2572.41 3839.69,-2562.41 3836.19,-2572.41 3843.19,-2572.41"/>
</g>
<!-- u1&#45;&gt;u24 -->
<g id="edge5" class="edge">
<title>u1&#45;&gt;u24</title>
<path fill="none" stroke="black" d="M2829.21,-1826.98C2998.12,-1787.27 3431.24,-1664.33 3297.69,-1473 3129.03,-1231.38 2764.15,-1165.09 2553.15,-1147.24"/>
<polygon fill="black" stroke="black" points="2553.16,-1143.73 2542.91,-1146.4 2552.59,-1150.7 2553.16,-1143.73"/>
</g>
<!-- u8 -->
<g id="node30" class="node">
<title>u8</title>
<ellipse fill="#ffbbff" stroke="black" cx="2764.69" cy="-1491" rx="207.96" ry="18"/>
<text text-anchor="middle" x="2764.69" y="-1487.3" font-family="Times,serif" font-size="14.00">Drasil.Sections.SpecificSystemDescription</text>
</g>
<!-- u1&#45;&gt;u8 -->
<g id="edge4" class="edge">
<title>u1&#45;&gt;u8</title>
<path fill="none" stroke="black" d="M2764.69,-1823.69C2764.69,-1767.29 2764.69,-1588.47 2764.69,-1519.5"/>
<polygon fill="black" stroke="black" points="2768.19,-1519.41 2764.69,-1509.41 2761.19,-1519.41 2768.19,-1519.41"/>
</g>
<!-- u0&#45;&gt;u6 -->
<g id="edge1" class="edge">
<title>u0&#45;&gt;u6</title>
<path fill="none" stroke="black" d="M3777.24,-2532.27C3483.82,-2481.85 2242.05,-2268.47 1897.61,-2209.28"/>
<polygon fill="black" stroke="black" points="1898.13,-2205.82 1887.68,-2207.57 1896.94,-2212.72 1898.13,-2205.82"/>
</g>
<!-- u29 -->
<g id="node16" class="node">
<title>u29</title>
<ellipse fill="#ffbbbb" stroke="black" cx="3839.69" cy="-2193" rx="276.75" ry="18"/>
<text text-anchor="middle" x="3839.69" y="-2189.3" font-family="Times,serif" font-size="14.00">Drasil.DocumentLanguage.Notebook.DocumentLanguage</text>
</g>
<!-- u0&#45;&gt;u29 -->
<g id="edge3" class="edge">
<title>u0&#45;&gt;u29</title>
<path fill="none" stroke="black" d="M3839.69,-2525.69C3839.69,-2469.29 3839.69,-2290.47 3839.69,-2221.5"/>
<polygon fill="black" stroke="black" points="3843.19,-2221.41 3839.69,-2211.41 3836.19,-2221.41 3843.19,-2221.41"/>
</g>
<!-- u18 -->
<g id="node20" class="node">
<title>u18</title>
<ellipse fill="#ffbbff" stroke="black" cx="4304.69" cy="-2193" rx="170.07" ry="18"/>
<text text-anchor="middle" x="4304.69" y="-2189.3" font-family="Times,serif" font-size="14.00">Drasil.Sections.ReferenceMaterial</text>
</g>
<!-- u0&#45;&gt;u18 -->
<g id="edge2" class="edge">
<title>u0&#45;&gt;u18</title>
<path fill="none" stroke="black" d="M3861.49,-2526.64C3936.82,-2470.1 4186.27,-2282.88 4273.91,-2217.1"/>
<polygon fill="black" stroke="black" points="4276.22,-2219.74 4282.12,-2210.94 4272.02,-2214.14 4276.22,-2219.74"/>
</g>
<!-- u4&#45;&gt;u17 -->
<g id="edge12" class="edge">
<title>u4&#45;&gt;u17</title>
<path fill="none" stroke="black" d="M1946.37,-1825.44C2150,-1768.54 2853.72,-1571.91 3073.54,-1510.48"/>
<polygon fill="black" stroke="black" points="3074.64,-1513.81 3083.33,-1507.75 3072.76,-1507.07 3074.64,-1513.81"/>
</g>
<!-- u15 -->
<g id="node23" class="node">
<title>u15</title>
<ellipse fill="#ffbbff" stroke="black" cx="927.69" cy="-1491" rx="172.47" ry="18"/>
<text text-anchor="middle" x="927.69" y="-1487.3" font-family="Times,serif" font-size="14.00">Drasil.Sections.AuxiliaryConstants</text>
</g>
<!-- u4&#45;&gt;u15 -->
<g id="edge11" class="edge">
<title>u4&#45;&gt;u15</title>
<path fill="none" stroke="black" d="M1846.17,-1824.87C1688.34,-1767.67 1155.68,-1574.63 982.55,-1511.88"/>
<polygon fill="black" stroke="black" points="983.72,-1508.58 973.12,-1508.47 981.33,-1515.16 983.72,-1508.58"/>
</g>
<!-- u12 -->
<g id="node26" class="node">
<title>u12</title>
<ellipse fill="#ffbbff" stroke="black" cx="2071.69" cy="-1491" rx="159.47" ry="18"/>
<text text-anchor="middle" x="2071.69" y="-1487.3" font-family="Times,serif" font-size="14.00">Drasil.Sections.TableOfSymbols</text>
</g>
<!-- u4&#45;&gt;u12 -->
<g id="edge10" class="edge">
<title>u4&#45;&gt;u12</title>
<path fill="none" stroke="black" d="M1899.66,-1823.69C1929.1,-1766.93 2022.85,-1586.16 2058.11,-1518.18"/>
<polygon fill="black" stroke="black" points="2061.37,-1519.49 2062.87,-1509 2055.16,-1516.27 2061.37,-1519.49"/>
</g>
<!-- u10 -->
<g id="node28" class="node">
<title>u10</title>
<ellipse fill="#ffbbff" stroke="black" cx="1692.69" cy="-1491" rx="201.46" ry="18"/>
<text text-anchor="middle" x="1692.69" y="-1487.3" font-family="Times,serif" font-size="14.00">Drasil.Sections.TableOfAbbAndAcronyms</text>
</g>
<!-- u4&#45;&gt;u10 -->
<g id="edge9" class="edge">
<title>u4&#45;&gt;u10</title>
<path fill="none" stroke="black" d="M1880.87,-1823.69C1848.6,-1766.81 1745.69,-1585.42 1707.31,-1517.77"/>
<polygon fill="black" stroke="black" points="1710.31,-1515.97 1702.33,-1509 1704.22,-1519.42 1710.31,-1515.97"/>
</g>
<!-- u9 -->
<g id="node29" class="node">
<title>u9</title>
<ellipse fill="#ffbbff" stroke="black" cx="2393.69" cy="-1491" rx="144.87" ry="18"/>
<text text-anchor="middle" x="2393.69" y="-1487.3" font-family="Times,serif" font-size="14.00">Drasil.Sections.TableOfUnits</text>
</g>
<!-- u4&#45;&gt;u9 -->
<g id="edge8" class="edge">
<title>u4&#45;&gt;u9</title>
<path fill="none" stroke="black" d="M1914.95,-1824.17C1997.44,-1766.93 2267.2,-1579.76 2361.11,-1514.61"/>
<polygon fill="black" stroke="black" points="2363.16,-1517.44 2369.38,-1508.87 2359.17,-1511.69 2363.16,-1517.44"/>
</g>
<!-- u4&#45;&gt;u8 -->
<g id="edge7" class="edge">
<title>u4&#45;&gt;u8</title>
<path fill="none" stroke="black" d="M1931.38,-1824.75C2074.55,-1767.58 2554.95,-1575.75 2713.46,-1512.46"/>
<polygon fill="black" stroke="black" points="2715,-1515.61 2722.99,-1508.65 2712.4,-1509.11 2715,-1515.61"/>
</g>
<!-- u7 -->
<g id="node31" class="node">
<title>u7</title>
<ellipse fill="#ffbbff" stroke="black" cx="1295.69" cy="-1491" rx="177.37" ry="18"/>
<text text-anchor="middle" x="1295.69" y="-1487.3" font-family="Times,serif" font-size="14.00">Drasil.Sections.TraceabilityMandGs</text>
</g>
<!-- u4&#45;&gt;u7 -->
<g id="edge6" class="edge">
<title>u4&#45;&gt;u7</title>
<path fill="none" stroke="black" d="M1861.99,-1824.17C1764.11,-1766.76 1443.38,-1578.63 1333.23,-1514.02"/>
<polygon fill="black" stroke="black" points="1334.84,-1510.91 1324.45,-1508.87 1331.3,-1516.95 1334.84,-1510.91"/>
</g>
<!-- u3 -->
<g id="node8" class="node">
<title>u3</title>
<ellipse fill="#ffffbb" stroke="black" cx="4184.69" cy="-1491" rx="129.18" ry="18"/>
<text text-anchor="middle" x="4184.69" y="-1487.3" font-family="Times,serif" font-size="14.00">Drasil.DocLang.Notebook</text>
</g>
<!-- u2 -->
<g id="node9" class="node">
<title>u2</title>
<ellipse fill="#ffffbb" stroke="black" cx="481.69" cy="-1140" rx="104.78" ry="18"/>
<text text-anchor="middle" x="481.69" y="-1136.3" font-family="Times,serif" font-size="14.00">Drasil.DocLang.SRS</text>
</g>
<!-- u27&#45;&gt;u2 -->
<g id="edge46" class="edge">
<title>u27&#45;&gt;u2</title>
<path fill="none" stroke="black" d="M1115.25,-1831.58C905.01,-1809.79 566.14,-1738.76 406.69,-1509 330.86,-1399.74 423.48,-1230.98 464.26,-1166.89"/>
<polygon fill="black" stroke="black" points="467.38,-1168.51 469.87,-1158.21 461.5,-1164.7 467.38,-1168.51"/>
</g>
<!-- u27&#45;&gt;u7 -->
<g id="edge47" class="edge">
<title>u27&#45;&gt;u7</title>
<path fill="none" stroke="black" d="M1295.69,-1823.69C1295.69,-1767.29 1295.69,-1588.47 1295.69,-1519.5"/>
<polygon fill="black" stroke="black" points="1299.19,-1519.41 1295.69,-1509.41 1292.19,-1519.41 1299.19,-1519.41"/>
</g>
<!-- u26 -->
<g id="node11" class="node">
<title>u26</title>
<ellipse fill="#bbbbff" stroke="black" cx="2393.69" cy="-88" rx="162.47" ry="18"/>
<text text-anchor="middle" x="2393.69" y="-84.3" font-family="Times,serif" font-size="14.00">Drasil.DocumentLanguage.Units</text>
</g>
<!-- u25 -->
<g id="node12" class="node">
<title>u25</title>
<ellipse fill="#bbbbff" stroke="black" cx="2393.69" cy="-439" rx="187.37" ry="18"/>
<text text-anchor="middle" x="2393.69" y="-435.3" font-family="Times,serif" font-size="14.00">Drasil.DocumentLanguage.Definitions</text>
</g>
<!-- u25&#45;&gt;u26 -->
<g id="edge45" class="edge">
<title>u25&#45;&gt;u26</title>
<path fill="none" stroke="black" d="M2393.69,-420.69C2393.69,-364.29 2393.69,-185.47 2393.69,-116.5"/>
<polygon fill="black" stroke="black" points="2397.19,-116.41 2393.69,-106.41 2390.19,-116.41 2397.19,-116.41"/>
</g>
<!-- u23 -->
<g id="node14" class="node">
<title>u23</title>
<ellipse fill="#bbbbff" stroke="black" cx="2393.69" cy="-790" rx="223.66" ry="18"/>
<text text-anchor="middle" x="2393.69" y="-786.3" font-family="Times,serif" font-size="14.00">Drasil.DocumentLanguage.TraceabilityMatrix</text>
</g>
<!-- u24&#45;&gt;u23 -->
<g id="edge44" class="edge">
<title>u24&#45;&gt;u23</title>
<path fill="none" stroke="black" d="M2393.69,-1121.74C2393.69,-1065.5 2393.69,-887.2 2393.69,-818.42"/>
<polygon fill="black" stroke="black" points="2397.19,-818.36 2393.69,-808.36 2390.19,-818.36 2397.19,-818.36"/>
</g>
<!-- u23&#45;&gt;u25 -->
<g id="edge43" class="edge">
<title>u23&#45;&gt;u25</title>
<path fill="none" stroke="black" d="M2393.69,-771.69C2393.69,-715.29 2393.69,-536.47 2393.69,-467.5"/>
<polygon fill="black" stroke="black" points="2397.19,-467.41 2393.69,-457.41 2390.19,-467.41 2397.19,-467.41"/>
</g>
<!-- u30 -->
<g id="node15" class="node">
<title>u30</title>
<ellipse fill="#ffbbbb" stroke="black" cx="3642.69" cy="-1842" rx="219.86" ry="18"/>
<text text-anchor="middle" x="3642.69" y="-1838.3" font-family="Times,serif" font-size="14.00">Drasil.DocumentLanguage.Notebook.NBDecl</text>
</g>
<!-- u28 -->
<g id="node17" class="node">
<title>u28</title>
<ellipse fill="#ffbbbb" stroke="black" cx="3642.69" cy="-1491" rx="206.06" ry="18"/>
<text text-anchor="middle" x="3642.69" y="-1487.3" font-family="Times,serif" font-size="14.00">Drasil.DocumentLanguage.Notebook.Core</text>
</g>
<!-- u30&#45;&gt;u28 -->
<g id="edge51" class="edge">
<title>u30&#45;&gt;u28</title>
<path fill="none" stroke="black" d="M3642.69,-1823.69C3642.69,-1767.29 3642.69,-1588.47 3642.69,-1519.5"/>
<polygon fill="black" stroke="black" points="3646.19,-1519.41 3642.69,-1509.41 3639.19,-1519.41 3646.19,-1519.41"/>
</g>
<!-- u29&#45;&gt;u30 -->
<g id="edge50" class="edge">
<title>u29&#45;&gt;u30</title>
<path fill="none" stroke="black" d="M3829.92,-2174.69C3797.81,-2117.81 3695.42,-1936.42 3657.23,-1868.77"/>
<polygon fill="black" stroke="black" points="3660.25,-1866.99 3652.28,-1860 3654.15,-1870.43 3660.25,-1866.99"/>
</g>
<!-- u20 -->
<g id="node18" class="node">
<title>u20</title>
<ellipse fill="#bbffff" stroke="black" cx="4036.69" cy="-1842" rx="155.97" ry="18"/>
<text text-anchor="middle" x="4036.69" y="-1838.3" font-family="Times,serif" font-size="14.00">Drasil.NBSections.Introduction</text>
</g>
<!-- u29&#45;&gt;u20 -->
<g id="edge49" class="edge">
<title>u29&#45;&gt;u20</title>
<path fill="none" stroke="black" d="M3849.46,-2174.69C3881.56,-2117.81 3983.95,-1936.42 4022.14,-1868.77"/>
<polygon fill="black" stroke="black" points="4025.22,-1870.43 4027.09,-1860 4019.13,-1866.99 4025.22,-1870.43"/>
</g>
<!-- u19 -->
<g id="node19" class="node">
<title>u19</title>
<ellipse fill="#bbffff" stroke="black" cx="4332.69" cy="-1842" rx="122.38" ry="18"/>
<text text-anchor="middle" x="4332.69" y="-1838.3" font-family="Times,serif" font-size="14.00">Drasil.NBSections.Body</text>
</g>
<!-- u29&#45;&gt;u19 -->
<g id="edge48" class="edge">
<title>u29&#45;&gt;u19</title>
<path fill="none" stroke="black" d="M3863.8,-2174.93C3944.98,-2117.46 4208.44,-1930.96 4300.54,-1865.75"/>
<polygon fill="black" stroke="black" points="4302.77,-1868.47 4308.91,-1859.83 4298.73,-1862.75 4302.77,-1868.47"/>
</g>
<!-- u20&#45;&gt;u3 -->
<g id="edge39" class="edge">
<title>u20&#45;&gt;u3</title>
<path fill="none" stroke="black" d="M4044.03,-1823.69C4068.05,-1767.05 4144.44,-1586.9 4173.41,-1518.6"/>
<polygon fill="black" stroke="black" points="4176.8,-1519.57 4177.48,-1509 4170.35,-1516.84 4176.8,-1519.57"/>
</g>
<!-- u19&#45;&gt;u3 -->
<g id="edge38" class="edge">
<title>u19&#45;&gt;u3</title>
<path fill="none" stroke="black" d="M4325.35,-1823.69C4301.33,-1767.05 4224.93,-1586.9 4195.97,-1518.6"/>
<polygon fill="black" stroke="black" points="4199.02,-1516.84 4191.9,-1509 4192.58,-1519.57 4199.02,-1516.84"/>
</g>
<!-- u17&#45;&gt;u2 -->
<g id="edge36" class="edge">
<title>u17&#45;&gt;u2</title>
<path fill="none" stroke="black" d="M3042.73,-1477.27C2624.55,-1422.36 978.17,-1206.19 572.42,-1152.91"/>
<polygon fill="black" stroke="black" points="572.58,-1149.4 562.21,-1151.57 571.67,-1156.35 572.58,-1149.4"/>
</g>
<!-- u17&#45;&gt;u26 -->
<g id="edge37" class="edge">
<title>u17&#45;&gt;u26</title>
<path fill="none" stroke="black" d="M3131.32,-1472.83C3081.88,-1371.55 2822.12,-842.21 2589.69,-421 2525.8,-305.22 2443.78,-170.4 2409.67,-114.9"/>
<polygon fill="black" stroke="black" points="2412.47,-112.76 2404.25,-106.08 2406.51,-116.43 2412.47,-112.76"/>
</g>
<!-- u16&#45;&gt;u2 -->
<g id="edge35" class="edge">
<title>u16&#45;&gt;u2</title>
<path fill="none" stroke="black" d="M826.7,-1825.11C718.03,-1789.31 471.9,-1690.9 373.69,-1509 309.34,-1389.81 415.46,-1227.67 461.76,-1166.1"/>
<polygon fill="black" stroke="black" points="464.58,-1168.17 467.87,-1158.1 459.02,-1163.92 464.58,-1168.17"/>
</g>
<!-- u15&#45;&gt;u2 -->
<g id="edge33" class="edge">
<title>u15&#45;&gt;u2</title>
<path fill="none" stroke="black" d="M905.87,-1472.93C832.49,-1415.51 594.5,-1229.28 510.98,-1163.92"/>
<polygon fill="black" stroke="black" points="512.97,-1161.03 502.94,-1157.63 508.66,-1166.55 512.97,-1161.03"/>
</g>
<!-- u15&#45;&gt;u26 -->
<g id="edge34" class="edge">
<title>u15&#45;&gt;u26</title>
<path fill="none" stroke="black" d="M945.43,-1473.04C1098.1,-1327.14 2188.67,-284.93 2368.59,-112.99"/>
<polygon fill="black" stroke="black" points="2371.19,-115.34 2376,-105.9 2366.35,-110.28 2371.19,-115.34"/>
</g>
<!-- u14&#45;&gt;u2 -->
<g id="edge31" class="edge">
<title>u14&#45;&gt;u2</title>
<path fill="none" stroke="black" d="M571.98,-1472.69C556.59,-1416.16 507.72,-1236.64 489.04,-1168.02"/>
<polygon fill="black" stroke="black" points="492.32,-1166.73 486.31,-1158 485.56,-1168.57 492.32,-1166.73"/>
</g>
<!-- u14&#45;&gt;u24 -->
<g id="edge32" class="edge">
<title>u14&#45;&gt;u24</title>
<path fill="none" stroke="black" d="M653.89,-1475.17C947.98,-1418.68 1997.17,-1217.16 2306.97,-1157.66"/>
<polygon fill="black" stroke="black" points="2307.64,-1161.09 2316.8,-1155.77 2306.31,-1154.22 2307.64,-1161.09"/>
</g>
<!-- u13&#45;&gt;u2 -->
<g id="edge30" class="edge">
<title>u13&#45;&gt;u2</title>
<path fill="none" stroke="black" d="M479.41,-1823.98C448.76,-1776.61 364.35,-1638.17 335.69,-1509 305.74,-1374.05 412.95,-1224.02 460.3,-1165.89"/>
<polygon fill="black" stroke="black" points="463.15,-1167.93 466.83,-1157.99 457.76,-1163.47 463.15,-1167.93"/>
</g>
<!-- u12&#45;&gt;u24 -->
<g id="edge29" class="edge">
<title>u12&#45;&gt;u24</title>
<path fill="none" stroke="black" d="M2087.66,-1472.69C2140.46,-1415.46 2309.55,-1232.19 2371.05,-1165.53"/>
<polygon fill="black" stroke="black" points="2373.79,-1167.72 2378,-1158 2368.65,-1162.98 2373.79,-1167.72"/>
</g>
<!-- u11&#45;&gt;u2 -->
<g id="edge27" class="edge">
<title>u11&#45;&gt;u2</title>
<path fill="none" stroke="black" d="M158.55,-1472.69C214.3,-1415.46 392.85,-1232.19 457.79,-1165.53"/>
<polygon fill="black" stroke="black" points="460.65,-1167.61 465.13,-1158 455.64,-1162.72 460.65,-1167.61"/>
</g>
<!-- u11&#45;&gt;u25 -->
<g id="edge28" class="edge">
<title>u11&#45;&gt;u25</title>
<path fill="none" stroke="black" d="M147.38,-1472.84C167.54,-1414.61 241.28,-1222.63 367.69,-1122 964.64,-646.74 1909.51,-494.97 2258.43,-453.63"/>
<polygon fill="black" stroke="black" points="2259.05,-457.08 2268.57,-452.44 2258.24,-450.13 2259.05,-457.08"/>
</g>
<!-- u9&#45;&gt;u24 -->
<g id="edge26" class="edge">
<title>u9&#45;&gt;u24</title>
<path fill="none" stroke="black" d="M2393.69,-1472.69C2393.69,-1416.29 2393.69,-1237.47 2393.69,-1168.5"/>
<polygon fill="black" stroke="black" points="2397.19,-1168.41 2393.69,-1158.41 2390.19,-1168.41 2397.19,-1168.41"/>
</g>
<!-- u8&#45;&gt;u2 -->
<g id="edge24" class="edge">
<title>u8&#45;&gt;u2</title>
<path fill="none" stroke="black" d="M2666.96,-1475.06C2288.56,-1417.21 923.2,-1208.49 567.11,-1154.06"/>
<polygon fill="black" stroke="black" points="567.53,-1150.58 557.12,-1152.53 566.47,-1157.5 567.53,-1150.58"/>
</g>
<!-- u8&#45;&gt;u25 -->
<g id="edge25" class="edge">
<title>u8&#45;&gt;u25</title>
<path fill="none" stroke="black" d="M2764.02,-1472.8C2760.33,-1391.11 2738.27,-1035.25 2626.69,-772 2572.58,-644.35 2463.87,-516.66 2416.56,-464.51"/>
<polygon fill="black" stroke="black" points="2419.11,-462.1 2409.78,-457.08 2413.94,-466.83 2419.11,-462.1"/>
</g>
<!-- u7&#45;&gt;u24 -->
<g id="edge23" class="edge">
<title>u7&#45;&gt;u24</title>
<path fill="none" stroke="black" d="M1346.81,-1473.75C1527.82,-1416.22 2137.91,-1222.3 2333.09,-1160.26"/>
<polygon fill="black" stroke="black" points="2334.42,-1163.51 2342.89,-1157.15 2332.3,-1156.84 2334.42,-1163.51"/>
</g>
</g>
</svg>
