<?xml version="1.0" encoding="UTF-8" standalone="no"?>
<!DOCTYPE svg PUBLIC "-//W3C//DTD SVG 1.1//EN"
 "http://www.w3.org/Graphics/SVG/1.1/DTD/svg11.dtd">
<!-- Generated by graphviz version 2.43.0 (0)
 -->
<!-- Title: G Pages: 1 -->
<svg width="431pt" height="288pt"
 viewBox="0.00 0.00 430.67 288.00" xmlns="http://www.w3.org/2000/svg" xmlns:xlink="http://www.w3.org/1999/xlink">
<g id="graph0" class="graph" transform="scale(0.4 0.4) rotate(0) translate(4 712.67)">
<title>G</title>
<polygon fill="white" stroke="transparent" points="-4,4 -4,-712.67 1067.68,-712.67 1067.68,4 -4,4"/>
<!-- u0 -->
<g id="node1" class="node">
<title>u0</title>
<ellipse fill="#bbffbb" stroke="black" cx="524.29" cy="-638" rx="63.89" ry="18"/>
<text text-anchor="middle" x="524.29" y="-634.3" font-family="Times,serif" font-size="14.00">Utils.Drasil</text>
</g>
<!-- u6 -->
<g id="node2" class="node">
<title>u6</title>
<ellipse fill="#ffffbb" stroke="black" cx="92.29" cy="-354" rx="92.08" ry="18"/>
<text text-anchor="middle" x="92.29" y="-350.3" font-family="Times,serif" font-size="14.00">Utils.Drasil.Maps</text>
</g>
<!-- u0&#45;&gt;u6 -->
<g id="edge5" class="edge">
<title>u0&#45;&gt;u6</title>
<path fill="none" stroke="black" d="M500.14,-621.23C427.29,-573.68 209.59,-431.57 125.73,-376.83"/>
<polygon fill="black" stroke="black" points="127.63,-373.89 117.35,-371.36 123.81,-379.75 127.63,-373.89"/>
</g>
<!-- u5 -->
<g id="node3" class="node">
<title>u5</title>
<ellipse fill="#ffffbb" stroke="black" cx="303.29" cy="-354" rx="100.98" ry="18"/>
<text text-anchor="middle" x="303.29" y="-350.3" font-family="Times,serif" font-size="14.00">Utils.Drasil.Strings</text>
</g>
<!-- u0&#45;&gt;u5 -->
<g id="edge4" class="edge">
<title>u0&#45;&gt;u5</title>
<path fill="none" stroke="black" d="M511.13,-620.2C473.83,-572.61 367.27,-436.64 322.98,-380.12"/>
<polygon fill="black" stroke="black" points="325.59,-377.78 316.66,-372.06 320.08,-382.09 325.59,-377.78"/>
</g>
<!-- u3 -->
<g id="node5" class="node">
<title>u3</title>
<ellipse fill="#ffffbb" stroke="black" cx="524.29" cy="-354" rx="102.08" ry="18"/>
<text text-anchor="middle" x="524.29" y="-350.3" font-family="Times,serif" font-size="14.00">Utils.Drasil.English</text>
</g>
<!-- u0&#45;&gt;u3 -->
<g id="edge3" class="edge">
<title>u0&#45;&gt;u3</title>
<path fill="none" stroke="black" d="M524.29,-619.78C524.29,-572.49 524.29,-440.26 524.29,-382.54"/>
<polygon fill="black" stroke="black" points="527.79,-382.35 524.29,-372.35 520.79,-382.35 527.79,-382.35"/>
</g>
<!-- u2 -->
<g id="node6" class="node">
<title>u2</title>
<ellipse fill="#ffffbb" stroke="black" cx="730.29" cy="-354" rx="86.38" ry="18"/>
<text text-anchor="middle" x="730.29" y="-350.3" font-family="Times,serif" font-size="14.00">Utils.Drasil.CSV</text>
</g>
<!-- u0&#45;&gt;u2 -->
<g id="edge2" class="edge">
<title>u0&#45;&gt;u2</title>
<path fill="none" stroke="black" d="M536.56,-620.2C571.26,-572.71 670.24,-437.2 711.69,-380.47"/>
<polygon fill="black" stroke="black" points="714.75,-382.2 717.83,-372.06 709.1,-378.07 714.75,-382.2"/>
</g>
<!-- u1 -->
<g id="node7" class="node">
<title>u1</title>
<ellipse fill="#ffffbb" stroke="black" cx="949.29" cy="-354" rx="114.28" ry="18"/>
<text text-anchor="middle" x="949.29" y="-350.3" font-family="Times,serif" font-size="14.00">Utils.Drasil.Document</text>
</g>
<!-- u0&#45;&gt;u1 -->
<g id="edge1" class="edge">
<title>u0&#45;&gt;u1</title>
<path fill="none" stroke="black" d="M548.05,-621.23C619.48,-573.84 832.45,-432.52 915.55,-377.39"/>
<polygon fill="black" stroke="black" points="917.71,-380.16 924.11,-371.71 913.84,-374.32 917.71,-380.16"/>
</g>
<!-- u4 -->
<g id="node4" class="node">
<title>u4</title>
<ellipse fill="#ffffbb" stroke="black" cx="303.29" cy="-71" rx="89.08" ry="18"/>
<text text-anchor="middle" x="303.29" y="-67.3" font-family="Times,serif" font-size="14.00">Utils.Drasil.Lists</text>
</g>
<!-- u5&#45;&gt;u4 -->
<g id="edge6" class="edge">
<title>u5&#45;&gt;u4</title>
<path fill="none" stroke="black" d="M303.29,-335.85C303.29,-288.72 303.29,-156.96 303.29,-99.44"/>
<polygon fill="black" stroke="black" points="306.79,-99.29 303.29,-89.29 299.79,-99.29 306.79,-99.29"/>
</g>
</g>
</svg>
