<?xml version="1.0" encoding="UTF-8" standalone="no"?>
<!DOCTYPE svg PUBLIC "-//W3C//DTD SVG 1.1//EN"
 "http://www.w3.org/Graphics/SVG/1.1/DTD/svg11.dtd">
<!-- Generated by graphviz version 2.43.0 (0)
 -->
<!-- Title: G Pages: 1 -->
<svg width="430pt" height="288pt"
 viewBox="0.00 0.00 430.14 288.00" xmlns="http://www.w3.org/2000/svg" xmlns:xlink="http://www.w3.org/1999/xlink">
<g id="graph0" class="graph" transform="scale(2.06 2.06) rotate(0) translate(4 590)">
<title>G</title>
<polygon fill="white" stroke="transparent" points="-4,4 -4,-590 883.17,-590 883.17,4 -4,4"/>
<!-- u3 -->
<g id="node1" class="node">
<title>u3</title>
<ellipse fill="#bbffbb" stroke="black" cx="416.39" cy="-488" rx="132.68" ry="18"/>
<text text-anchor="middle" x="416.39" y="-484.3" font-family="Times,serif" font-size="14.00">Language.Drasil.Generate</text>
</g>
<!-- u2 -->
<g id="node2" class="node">
<title>u2</title>
<ellipse fill="#bbffbb" stroke="black" cx="140.39" cy="-98" rx="140.28" ry="18"/>
<text text-anchor="middle" x="140.39" y="-94.3" font-family="Times,serif" font-size="14.00">Language.Drasil.TypeCheck</text>
</g>
<!-- u3&#45;&gt;u2 -->
<g id="edge3" class="edge">
<title>u3&#45;&gt;u2</title>
<path fill="none" stroke="black" d="M404.17,-469.83C360.26,-408.1 210.29,-197.26 158.3,-124.18"/>
<polygon fill="black" stroke="black" points="161.11,-122.09 152.46,-115.97 155.41,-126.15 161.11,-122.09"/>
</g>
<!-- u0 -->
<g id="node3" class="node">
<title>u0</title>
<ellipse fill="#bbffbb" stroke="black" cx="416.39" cy="-98" rx="117.78" ry="18"/>
<text text-anchor="middle" x="416.39" y="-94.3" font-family="Times,serif" font-size="14.00">Language.Drasil.Dump</text>
</g>
<!-- u3&#45;&gt;u0 -->
<g id="edge1" class="edge">
<title>u3&#45;&gt;u0</title>
<path fill="none" stroke="black" d="M416.39,-469.83C416.39,-408.74 416.39,-201.63 416.39,-126.51"/>
<polygon fill="black" stroke="black" points="419.89,-126.41 416.39,-116.41 412.89,-126.41 419.89,-126.41"/>
</g>
<!-- u1 -->
<g id="node4" class="node">
<title>u1</title>
<ellipse fill="#ffffbb" stroke="black" cx="715.39" cy="-98" rx="163.57" ry="18"/>
<text text-anchor="middle" x="715.39" y="-94.3" font-family="Times,serif" font-size="14.00">Language.Drasil.Output.Formats</text>
</g>
<!-- u3&#45;&gt;u1 -->
<g id="edge2" class="edge">
<title>u3&#45;&gt;u1</title>
<path fill="none" stroke="black" d="M429.43,-470.08C476.74,-408.69 639.51,-197.47 695.94,-124.24"/>
<polygon fill="black" stroke="black" points="698.95,-126.07 702.28,-116.01 693.4,-121.79 698.95,-126.07"/>
</g>
</g>
</svg>
