<?xml version="1.0" encoding="UTF-8" standalone="no"?>
<!DOCTYPE svg PUBLIC "-//W3C//DTD SVG 1.1//EN"
 "http://www.w3.org/Graphics/SVG/1.1/DTD/svg11.dtd">
<!-- Generated by graphviz version 2.43.0 (0)
 -->
<!-- Title: G Pages: 1 -->
<svg width="431pt" height="288pt"
 viewBox="0.00 0.00 431.31 288.00" xmlns="http://www.w3.org/2000/svg" xmlns:xlink="http://www.w3.org/1999/xlink">
<g id="graph0" class="graph" transform="scale(4.8 4.8) rotate(0) translate(4 1377.33)">
<title>G</title>
<polygon fill="white" stroke="transparent" points="-4,4 -4,-1377.33 2064.71,-1377.33 2064.71,4 -4,4"/>
<!-- u31 -->
<g id="node1" class="node">
<title>u31</title>
<ellipse fill="#bbffbb" stroke="black" cx="1126.23" cy="-1346" rx="128.08" ry="18"/>
<text text-anchor="middle" x="1126.23" y="-1342.3" font-family="Times,serif" font-size="14.00">Language.Drasil.Printers</text>
</g>
<!-- u1 -->
<g id="node4" class="node">
<title>u1</title>
<ellipse fill="#ffffbb" stroke="black" cx="674.23" cy="-1236" rx="135.68" ry="18"/>
<text text-anchor="middle" x="674.23" y="-1232.3" font-family="Times,serif" font-size="14.00">Language.Drasil.DOT.Print</text>
</g>
<!-- u31&#45;&gt;u1 -->
<g id="edge40" class="edge">
<title>u31&#45;&gt;u1</title>
<path fill="none" stroke="black" d="M1064.33,-1330.21C981.57,-1310.43 835.1,-1275.44 747.11,-1254.41"/>
<polygon fill="black" stroke="black" points="747.74,-1250.97 737.2,-1252.05 746.11,-1257.77 747.74,-1250.97"/>
</g>
<!-- u0 -->
<g id="node5" class="node">
<title>u0</title>
<ellipse fill="#bbbbff" stroke="black" cx="974.23" cy="-1236" rx="146.47" ry="18"/>
<text text-anchor="middle" x="974.23" y="-1232.3" font-family="Times,serif" font-size="14.00">Language.Drasil.Debug.Print</text>
</g>
<!-- u31&#45;&gt;u0 -->
<g id="edge39" class="edge">
<title>u31&#45;&gt;u0</title>
<path fill="none" stroke="black" d="M1102.48,-1328.12C1076.68,-1309.79 1035.3,-1280.39 1006.55,-1259.96"/>
<polygon fill="black" stroke="black" points="1008.24,-1256.87 998.06,-1253.93 1004.19,-1262.58 1008.24,-1256.87"/>
</g>
<!-- u8 -->
<g id="node10" class="node">
<title>u8</title>
<ellipse fill="#bbffff" stroke="black" cx="1279.23" cy="-1236" rx="140.28" ry="18"/>
<text text-anchor="middle" x="1279.23" y="-1232.3" font-family="Times,serif" font-size="14.00">Language.Drasil.JSON.Print</text>
</g>
<!-- u31&#45;&gt;u8 -->
<g id="edge41" class="edge">
<title>u31&#45;&gt;u8</title>
<path fill="none" stroke="black" d="M1150.14,-1328.12C1176.19,-1309.74 1218,-1280.22 1246.95,-1259.78"/>
<polygon fill="black" stroke="black" points="1249.34,-1262.38 1255.49,-1253.76 1245.3,-1256.66 1249.34,-1262.38"/>
</g>
<!-- u9 -->
<g id="node12" class="node">
<title>u9</title>
<ellipse fill="#ffbbff" stroke="black" cx="1872.23" cy="-906" rx="188.47" ry="18"/>
<text text-anchor="middle" x="1872.23" y="-902.3" font-family="Times,serif" font-size="14.00">Language.Drasil.Markdown.CreateMd</text>
</g>
<!-- u31&#45;&gt;u9 -->
<g id="edge42" class="edge">
<title>u31&#45;&gt;u9</title>
<path fill="none" stroke="black" d="M1226.96,-1334.81C1357.76,-1316.86 1586.97,-1268.82 1736.23,-1144 1805.88,-1085.76 1847.4,-982.14 1863.92,-933.54"/>
<polygon fill="black" stroke="black" points="1867.25,-934.64 1867.07,-924.04 1860.6,-932.43 1867.25,-934.64"/>
</g>
<!-- u15 -->
<g id="node2" class="node">
<title>u15</title>
<ellipse fill="#bbffbb" stroke="black" cx="1168.23" cy="-687" rx="119.68" ry="18"/>
<text text-anchor="middle" x="1168.23" y="-683.3" font-family="Times,serif" font-size="14.00">Language.Drasil.Config</text>
</g>
<!-- u6 -->
<g id="node3" class="node">
<title>u6</title>
<ellipse fill="#bbffbb" stroke="black" cx="1279.23" cy="-1126" rx="123.48" ry="18"/>
<text text-anchor="middle" x="1279.23" y="-1122.3" font-family="Times,serif" font-size="14.00">Language.Drasil.Format</text>
</g>
<!-- u14 -->
<g id="node13" class="node">
<title>u14</title>
<ellipse fill="#77ff77" stroke="black" cx="564.23" cy="-1126" rx="139.98" ry="18"/>
<text text-anchor="middle" x="564.23" y="-1122.3" font-family="Times,serif" font-size="14.00">Language.Drasil.Plain.Print</text>
</g>
<!-- u0&#45;&gt;u14 -->
<g id="edge1" class="edge">
<title>u0&#45;&gt;u14</title>
<path fill="none" stroke="black" d="M915.05,-1219.41C840.19,-1199.69 711.55,-1165.81 632.58,-1145"/>
<polygon fill="black" stroke="black" points="633.29,-1141.57 622.73,-1142.41 631.51,-1148.34 633.29,-1141.57"/>
</g>
<!-- u5 -->
<g id="node6" class="node">
<title>u5</title>
<ellipse fill="#ffbbbb" stroke="black" cx="856.23" cy="-1016" rx="140.28" ry="18"/>
<text text-anchor="middle" x="856.23" y="-1012.3" font-family="Times,serif" font-size="14.00">Language.Drasil.HTML.CSS</text>
</g>
<!-- u4 -->
<g id="node7" class="node">
<title>u4</title>
<ellipse fill="#ffbbbb" stroke="black" cx="993.23" cy="-1126" rx="144.87" ry="18"/>
<text text-anchor="middle" x="993.23" y="-1122.3" font-family="Times,serif" font-size="14.00">Language.Drasil.HTML.Print</text>
</g>
<!-- u4&#45;&gt;u5 -->
<g id="edge5" class="edge">
<title>u4&#45;&gt;u5</title>
<path fill="none" stroke="black" d="M971.83,-1108.12C948.74,-1089.92 911.81,-1060.82 885.93,-1040.41"/>
<polygon fill="black" stroke="black" points="887.96,-1037.56 877.94,-1034.11 883.63,-1043.05 887.96,-1037.56"/>
</g>
<!-- u3 -->
<g id="node8" class="node">
<title>u3</title>
<ellipse fill="#ffbbbb" stroke="black" cx="1457.23" cy="-1016" rx="157.87" ry="18"/>
<text text-anchor="middle" x="1457.23" y="-1012.3" font-family="Times,serif" font-size="14.00">Language.Drasil.HTML.Helpers</text>
</g>
<!-- u4&#45;&gt;u3 -->
<g id="edge4" class="edge">
<title>u4&#45;&gt;u3</title>
<path fill="none" stroke="black" d="M1058.24,-1109.87C1143.1,-1090.12 1291.37,-1055.6 1381.3,-1034.67"/>
<polygon fill="black" stroke="black" points="1382.22,-1038.05 1391.17,-1032.38 1380.63,-1031.24 1382.22,-1038.05"/>
</g>
<!-- u2 -->
<g id="node9" class="node">
<title>u2</title>
<ellipse fill="#ffbbbb" stroke="black" cx="544.23" cy="-1016" rx="153.27" ry="18"/>
<text text-anchor="middle" x="544.23" y="-1012.3" font-family="Times,serif" font-size="14.00">Language.Drasil.HTML.Monad</text>
</g>
<!-- u4&#45;&gt;u2 -->
<g id="edge3" class="edge">
<title>u4&#45;&gt;u2</title>
<path fill="none" stroke="black" d="M929.85,-1109.76C847.8,-1090.02 705.07,-1055.69 618.17,-1034.78"/>
<polygon fill="black" stroke="black" points="618.92,-1031.36 608.38,-1032.43 617.28,-1038.17 618.92,-1031.36"/>
</g>
<!-- u13 -->
<g id="node29" class="node">
<title>u13</title>
<ellipse fill="#ff7777" stroke="black" cx="1148.23" cy="-1016" rx="133.48" ry="18"/>
<text text-anchor="middle" x="1148.23" y="-1012.3" font-family="Times,serif" font-size="14.00">Language.Drasil.TeX.Print</text>
</g>
<!-- u4&#45;&gt;u13 -->
<g id="edge6" class="edge">
<title>u4&#45;&gt;u13</title>
<path fill="none" stroke="black" d="M1017.45,-1108.12C1043.95,-1089.66 1086.57,-1059.96 1115.91,-1039.52"/>
<polygon fill="black" stroke="black" points="1117.98,-1042.35 1124.18,-1033.76 1113.98,-1036.6 1117.98,-1042.35"/>
</g>
<!-- u21 -->
<g id="node14" class="node">
<title>u21</title>
<ellipse fill="#ffff77" stroke="black" cx="968.23" cy="-27" rx="149.47" ry="18"/>
<text text-anchor="middle" x="968.23" y="-23.3" font-family="Times,serif" font-size="14.00">Language.Drasil.Printing.AST</text>
</g>
<!-- u3&#45;&gt;u21 -->
<g id="edge2" class="edge">
<title>u3&#45;&gt;u21</title>
<path fill="none" stroke="black" d="M1436.12,-998.06C1396.79,-964.43 1316.23,-884.94 1316.23,-798 1316.23,-798 1316.23,-798 1316.23,-246 1316.23,-188.93 1335.07,-161.73 1297.23,-119 1266.81,-84.64 1152.79,-58.55 1067.45,-43.3"/>
<polygon fill="black" stroke="black" points="1067.92,-39.83 1057.46,-41.54 1066.7,-46.72 1067.92,-39.83"/>
</g>
<!-- u8&#45;&gt;u6 -->
<g id="edge10" class="edge">
<title>u8&#45;&gt;u6</title>
<path fill="none" stroke="black" d="M1279.23,-1217.65C1279.23,-1200.56 1279.23,-1174.22 1279.23,-1154.32"/>
<polygon fill="black" stroke="black" points="1282.73,-1154.31 1279.23,-1144.31 1275.73,-1154.31 1282.73,-1154.31"/>
</g>
<!-- u8&#45;&gt;u4 -->
<g id="edge9" class="edge">
<title>u8&#45;&gt;u4</title>
<path fill="none" stroke="black" d="M1236.41,-1218.83C1185.55,-1199.62 1100.71,-1167.59 1045.88,-1146.88"/>
<polygon fill="black" stroke="black" points="1046.93,-1143.54 1036.34,-1143.28 1044.46,-1150.09 1046.93,-1143.54"/>
</g>
<!-- u7 -->
<g id="node11" class="node">
<title>u7</title>
<ellipse fill="#bbffff" stroke="black" cx="1574.23" cy="-1126" rx="153.27" ry="18"/>
<text text-anchor="middle" x="1574.23" y="-1122.3" font-family="Times,serif" font-size="14.00">Language.Drasil.JSON.Helpers</text>
</g>
<!-- u8&#45;&gt;u7 -->
<g id="edge11" class="edge">
<title>u8&#45;&gt;u7</title>
<path fill="none" stroke="black" d="M1323.4,-1218.83C1375.97,-1199.58 1463.74,-1167.45 1520.28,-1146.75"/>
<polygon fill="black" stroke="black" points="1521.58,-1150 1529.76,-1143.28 1519.17,-1143.43 1521.58,-1150"/>
</g>
<!-- u7&#45;&gt;u3 -->
<g id="edge7" class="edge">
<title>u7&#45;&gt;u3</title>
<path fill="none" stroke="black" d="M1555.95,-1108.12C1536.4,-1090.08 1505.24,-1061.32 1483.17,-1040.94"/>
<polygon fill="black" stroke="black" points="1485.49,-1038.32 1475.77,-1034.11 1480.74,-1043.47 1485.49,-1038.32"/>
</g>
<!-- u20 -->
<g id="node15" class="node">
<title>u20</title>
<ellipse fill="#ffff77" stroke="black" cx="1629.23" cy="-577" rx="167.07" ry="18"/>
<text text-anchor="middle" x="1629.23" y="-573.3" font-family="Times,serif" font-size="14.00">Language.Drasil.Printing.Helpers</text>
</g>
<!-- u7&#45;&gt;u20 -->
<g id="edge8" class="edge">
<title>u7&#45;&gt;u20</title>
<path fill="none" stroke="black" d="M1585.46,-1108.02C1607.92,-1072.38 1656.23,-986.46 1656.23,-907 1656.23,-907 1656.23,-907 1656.23,-796 1656.23,-726.86 1642.69,-646.31 1634.79,-605.19"/>
<polygon fill="black" stroke="black" points="1638.18,-604.29 1632.82,-595.15 1631.31,-605.64 1638.18,-604.29"/>
</g>
<!-- u9&#45;&gt;u20 -->
<g id="edge12" class="edge">
<title>u9&#45;&gt;u20</title>
<path fill="none" stroke="black" d="M1859.51,-887.88C1819.4,-833.91 1695.48,-667.15 1648,-603.26"/>
<polygon fill="black" stroke="black" points="1650.6,-600.89 1641.83,-594.95 1644.98,-605.07 1650.6,-600.89"/>
</g>
<!-- u19 -->
<g id="node16" class="node">
<title>u19</title>
<ellipse fill="#ffff77" stroke="black" cx="447.23" cy="-906" rx="162.47" ry="18"/>
<text text-anchor="middle" x="447.23" y="-902.3" font-family="Times,serif" font-size="14.00">Language.Drasil.Printing.Import</text>
</g>
<!-- u14&#45;&gt;u19 -->
<g id="edge20" class="edge">
<title>u14&#45;&gt;u19</title>
<path fill="none" stroke="black" d="M496.58,-1110.13C455.82,-1097.31 407.12,-1074.27 382.23,-1034 360.9,-999.48 393.49,-957.13 419.72,-931.11"/>
<polygon fill="black" stroke="black" points="422.45,-933.35 427.25,-923.91 417.61,-928.29 422.45,-933.35"/>
</g>
<!-- u16 -->
<g id="node19" class="node">
<title>u16</title>
<ellipse fill="#ffff77" stroke="black" cx="1512.23" cy="-467" rx="167.87" ry="18"/>
<text text-anchor="middle" x="1512.23" y="-463.3" font-family="Times,serif" font-size="14.00">Language.Drasil.Printing.Citation</text>
</g>
<!-- u20&#45;&gt;u16 -->
<g id="edge24" class="edge">
<title>u20&#45;&gt;u16</title>
<path fill="none" stroke="black" d="M1610.69,-558.89C1591.09,-540.8 1560.04,-512.13 1538.05,-491.83"/>
<polygon fill="black" stroke="black" points="1540.41,-489.24 1530.68,-485.03 1535.66,-494.39 1540.41,-489.24"/>
</g>
<!-- u22 -->
<g id="node28" class="node">
<title>u22</title>
<ellipse fill="#7777ff" stroke="black" cx="447.23" cy="-797" rx="212.56" ry="18"/>
<text text-anchor="middle" x="447.23" y="-793.3" font-family="Times,serif" font-size="14.00">Language.Drasil.Printing.Import.Document</text>
</g>
<!-- u19&#45;&gt;u22 -->
<g id="edge23" class="edge">
<title>u19&#45;&gt;u22</title>
<path fill="none" stroke="black" d="M447.23,-887.81C447.23,-870.96 447.23,-845.02 447.23,-825.34"/>
<polygon fill="black" stroke="black" points="450.73,-825.15 447.23,-815.15 443.73,-825.15 450.73,-825.15"/>
</g>
<!-- u18 -->
<g id="node17" class="node">
<title>u18</title>
<ellipse fill="#ffff77" stroke="black" cx="852.23" cy="-687" rx="178.97" ry="18"/>
<text text-anchor="middle" x="852.23" y="-683.3" font-family="Times,serif" font-size="14.00">Language.Drasil.Printing.LayoutObj</text>
</g>
<!-- u18&#45;&gt;u16 -->
<g id="edge22" class="edge">
<title>u18&#45;&gt;u16</title>
<path fill="none" stroke="black" d="M901.84,-669.61C1021.34,-630.14 1324.75,-529.93 1453.27,-487.48"/>
<polygon fill="black" stroke="black" points="1454.55,-490.74 1462.95,-484.28 1452.36,-484.09 1454.55,-490.74"/>
</g>
<!-- u17 -->
<g id="node18" class="node">
<title>u17</title>
<ellipse fill="#ffff77" stroke="black" cx="1064.23" cy="-137" rx="223.66" ry="18"/>
<text text-anchor="middle" x="1064.23" y="-133.3" font-family="Times,serif" font-size="14.00">Language.Drasil.Printing.PrintingInformation</text>
</g>
<!-- u16&#45;&gt;u21 -->
<g id="edge21" class="edge">
<title>u16&#45;&gt;u21</title>
<path fill="none" stroke="black" d="M1508.47,-448.72C1495.18,-391.88 1444.87,-209.27 1330.23,-119 1268.35,-70.28 1183.64,-47.31 1111.72,-36.62"/>
<polygon fill="black" stroke="black" points="1112.05,-33.13 1101.66,-35.19 1111.07,-40.06 1112.05,-33.13"/>
</g>
<!-- u30 -->
<g id="node20" class="node">
<title>u30</title>
<ellipse fill="#7777ff" stroke="black" cx="214.23" cy="-247" rx="200.36" ry="18"/>
<text text-anchor="middle" x="214.23" y="-243.3" font-family="Times,serif" font-size="14.00">Language.Drasil.Printing.Import.Symbol</text>
</g>
<!-- u30&#45;&gt;u21 -->
<g id="edge38" class="edge">
<title>u30&#45;&gt;u21</title>
<path fill="none" stroke="black" d="M234.01,-229.02C267.58,-201.17 338.96,-146.2 409.23,-119 543.19,-67.15 706.3,-44.84 821.67,-35.24"/>
<polygon fill="black" stroke="black" points="822.3,-38.7 831.98,-34.41 821.73,-31.73 822.3,-38.7"/>
</g>
<!-- u29 -->
<g id="node21" class="node">
<title>u29</title>
<ellipse fill="#7777ff" stroke="black" cx="620.23" cy="-137" rx="202.26" ry="18"/>
<text text-anchor="middle" x="620.23" y="-133.3" font-family="Times,serif" font-size="14.00">Language.Drasil.Printing.Import.Helpers</text>
</g>
<!-- u29&#45;&gt;u21 -->
<g id="edge37" class="edge">
<title>u29&#45;&gt;u21</title>
<path fill="none" stroke="black" d="M673.08,-119.6C735.93,-100.09 840.64,-67.6 906.97,-47.01"/>
<polygon fill="black" stroke="black" points="908.36,-50.25 916.87,-43.94 906.28,-43.56 908.36,-50.25"/>
</g>
<!-- u28 -->
<g id="node22" class="node">
<title>u28</title>
<ellipse fill="#7777ff" stroke="black" cx="628.23" cy="-357" rx="187.67" ry="18"/>
<text text-anchor="middle" x="628.23" y="-353.3" font-family="Times,serif" font-size="14.00">Language.Drasil.Printing.Import.Expr</text>
</g>
<!-- u28&#45;&gt;u30 -->
<g id="edge36" class="edge">
<title>u28&#45;&gt;u30</title>
<path fill="none" stroke="black" d="M566.7,-339.95C491.74,-320.39 365.33,-287.42 286.01,-266.73"/>
<polygon fill="black" stroke="black" points="286.66,-263.28 276.1,-264.14 284.89,-270.05 286.66,-263.28"/>
</g>
<!-- u23 -->
<g id="node27" class="node">
<title>u23</title>
<ellipse fill="#7777ff" stroke="black" cx="628.23" cy="-247" rx="196.07" ry="18"/>
<text text-anchor="middle" x="628.23" y="-243.3" font-family="Times,serif" font-size="14.00">Language.Drasil.Printing.Import.Literal</text>
</g>
<!-- u28&#45;&gt;u23 -->
<g id="edge35" class="edge">
<title>u28&#45;&gt;u23</title>
<path fill="none" stroke="black" d="M628.23,-338.65C628.23,-321.56 628.23,-295.22 628.23,-275.32"/>
<polygon fill="black" stroke="black" points="631.73,-275.31 628.23,-265.31 624.73,-275.31 631.73,-275.31"/>
</g>
<!-- u27 -->
<g id="node23" class="node">
<title>u27</title>
<ellipse fill="#7777ff" stroke="black" cx="447.23" cy="-687" rx="207.96" ry="18"/>
<text text-anchor="middle" x="447.23" y="-683.3" font-family="Times,serif" font-size="14.00">Language.Drasil.Printing.Import.Sentence</text>
</g>
<!-- u26 -->
<g id="node24" class="node">
<title>u26</title>
<ellipse fill="#7777ff" stroke="black" cx="499.23" cy="-577" rx="216.36" ry="18"/>
<text text-anchor="middle" x="499.23" y="-573.3" font-family="Times,serif" font-size="14.00">Language.Drasil.Printing.Import.ModelExpr</text>
</g>
<!-- u27&#45;&gt;u26 -->
<g id="edge34" class="edge">
<title>u27&#45;&gt;u26</title>
<path fill="none" stroke="black" d="M455.59,-668.65C463.93,-651.33 476.85,-624.48 486.47,-604.5"/>
<polygon fill="black" stroke="black" points="489.71,-605.84 490.9,-595.31 483.41,-602.8 489.71,-605.84"/>
</g>
<!-- u25 -->
<g id="node25" class="node">
<title>u25</title>
<ellipse fill="#7777ff" stroke="black" cx="542.23" cy="-467" rx="193.07" ry="18"/>
<text text-anchor="middle" x="542.23" y="-463.3" font-family="Times,serif" font-size="14.00">Language.Drasil.Printing.Import.Space</text>
</g>
<!-- u26&#45;&gt;u25 -->
<g id="edge33" class="edge">
<title>u26&#45;&gt;u25</title>
<path fill="none" stroke="black" d="M506.14,-558.65C513,-541.41 523.63,-514.73 531.57,-494.77"/>
<polygon fill="black" stroke="black" points="534.89,-495.89 535.34,-485.31 528.39,-493.31 534.89,-495.89"/>
</g>
<!-- u25&#45;&gt;u28 -->
<g id="edge32" class="edge">
<title>u25&#45;&gt;u28</title>
<path fill="none" stroke="black" d="M556.05,-448.65C570.15,-430.93 592.19,-403.26 608.21,-383.15"/>
<polygon fill="black" stroke="black" points="610.96,-385.31 614.45,-375.31 605.48,-380.95 610.96,-385.31"/>
</g>
<!-- u24 -->
<g id="node26" class="node">
<title>u24</title>
<ellipse fill="#7777ff" stroke="black" cx="211.23" cy="-357" rx="211.46" ry="18"/>
<text text-anchor="middle" x="211.23" y="-353.3" font-family="Times,serif" font-size="14.00">Language.Drasil.Printing.Import.CodeExpr</text>
</g>
<!-- u24&#45;&gt;u30 -->
<g id="edge31" class="edge">
<title>u24&#45;&gt;u30</title>
<path fill="none" stroke="black" d="M211.71,-338.65C212.19,-321.56 212.92,-295.22 213.47,-275.32"/>
<polygon fill="black" stroke="black" points="216.97,-275.4 213.75,-265.31 209.97,-275.21 216.97,-275.4"/>
</g>
<!-- u24&#45;&gt;u23 -->
<g id="edge30" class="edge">
<title>u24&#45;&gt;u23</title>
<path fill="none" stroke="black" d="M274.11,-339.71C349.72,-320.13 476.34,-287.34 555.92,-266.73"/>
<polygon fill="black" stroke="black" points="557.06,-270.05 565.86,-264.15 555.3,-263.27 557.06,-270.05"/>
</g>
<!-- u23&#45;&gt;u17 -->
<g id="edge28" class="edge">
<title>u23&#45;&gt;u17</title>
<path fill="none" stroke="black" d="M693.03,-229.95C772.02,-210.38 905.26,-177.38 988.78,-156.69"/>
<polygon fill="black" stroke="black" points="989.85,-160.03 998.72,-154.23 988.17,-153.24 989.85,-160.03"/>
</g>
<!-- u23&#45;&gt;u29 -->
<g id="edge29" class="edge">
<title>u23&#45;&gt;u29</title>
<path fill="none" stroke="black" d="M626.95,-228.65C625.68,-211.56 623.73,-185.22 622.25,-165.32"/>
<polygon fill="black" stroke="black" points="625.74,-165.02 621.51,-155.31 618.76,-165.54 625.74,-165.02"/>
</g>
<!-- u22&#45;&gt;u18 -->
<g id="edge25" class="edge">
<title>u22&#45;&gt;u18</title>
<path fill="none" stroke="black" d="M508.3,-779.71C581.79,-760.12 704.92,-727.28 782.19,-706.68"/>
<polygon fill="black" stroke="black" points="783.56,-709.94 792.32,-703.98 781.75,-703.17 783.56,-709.94"/>
</g>
<!-- u22&#45;&gt;u27 -->
<g id="edge27" class="edge">
<title>u22&#45;&gt;u27</title>
<path fill="none" stroke="black" d="M447.23,-778.65C447.23,-761.56 447.23,-735.22 447.23,-715.32"/>
<polygon fill="black" stroke="black" points="450.73,-715.31 447.23,-705.31 443.73,-715.31 450.73,-715.31"/>
</g>
<!-- u22&#45;&gt;u24 -->
<g id="edge26" class="edge">
<title>u22&#45;&gt;u24</title>
<path fill="none" stroke="black" d="M354.72,-780.78C309.58,-768.31 258.95,-745.73 230.23,-705 160.22,-605.72 188.59,-447.95 203.89,-385.11"/>
<polygon fill="black" stroke="black" points="207.34,-385.74 206.39,-375.19 200.55,-384.03 207.34,-385.74"/>
</g>
<!-- u13&#45;&gt;u19 -->
<g id="edge19" class="edge">
<title>u13&#45;&gt;u19</title>
<path fill="none" stroke="black" d="M1064.02,-1002.03C934.57,-982.08 687.13,-943.96 548.23,-922.56"/>
<polygon fill="black" stroke="black" points="548.43,-919.05 538.01,-920.99 547.36,-925.97 548.43,-919.05"/>
</g>
<!-- u10 -->
<g id="node32" class="node">
<title>u10</title>
<ellipse fill="#ff7777" stroke="black" cx="1134.23" cy="-906" rx="154.07" ry="18"/>
<text text-anchor="middle" x="1134.23" y="-902.3" font-family="Times,serif" font-size="14.00">Language.Drasil.TeX.Preamble</text>
</g>
<!-- u13&#45;&gt;u10 -->
<g id="edge18" class="edge">
<title>u13&#45;&gt;u10</title>
<path fill="none" stroke="black" d="M1145.98,-997.65C1143.77,-980.56 1140.35,-954.22 1137.77,-934.32"/>
<polygon fill="black" stroke="black" points="1141.23,-933.78 1136.48,-924.31 1134.29,-934.68 1141.23,-933.78"/>
</g>
<!-- u12 -->
<g id="node30" class="node">
<title>u12</title>
<ellipse fill="#ff7777" stroke="black" cx="1142.23" cy="-797" rx="146.47" ry="18"/>
<text text-anchor="middle" x="1142.23" y="-793.3" font-family="Times,serif" font-size="14.00">Language.Drasil.TeX.Helpers</text>
</g>
<!-- u12&#45;&gt;u15 -->
<g id="edge17" class="edge">
<title>u12&#45;&gt;u15</title>
<path fill="none" stroke="black" d="M1146.41,-778.65C1150.54,-761.49 1156.92,-734.97 1161.72,-715.04"/>
<polygon fill="black" stroke="black" points="1165.13,-715.85 1164.06,-705.31 1158.32,-714.21 1165.13,-715.85"/>
</g>
<!-- u11 -->
<g id="node31" class="node">
<title>u11</title>
<ellipse fill="#ff7777" stroke="black" cx="1486.23" cy="-687" rx="141.88" ry="18"/>
<text text-anchor="middle" x="1486.23" y="-683.3" font-family="Times,serif" font-size="14.00">Language.Drasil.TeX.Monad</text>
</g>
<!-- u12&#45;&gt;u11 -->
<g id="edge16" class="edge">
<title>u12&#45;&gt;u11</title>
<path fill="none" stroke="black" d="M1192.99,-780.06C1255.03,-760.59 1359.89,-727.66 1425.97,-706.92"/>
<polygon fill="black" stroke="black" points="1427.33,-710.16 1435.83,-703.83 1425.24,-703.48 1427.33,-710.16"/>
</g>
<!-- u11&#45;&gt;u20 -->
<g id="edge15" class="edge">
<title>u11&#45;&gt;u20</title>
<path fill="none" stroke="black" d="M1508.58,-669.12C1532.78,-650.85 1571.55,-621.56 1598.59,-601.14"/>
<polygon fill="black" stroke="black" points="1600.7,-603.93 1606.57,-595.11 1596.48,-598.35 1600.7,-603.93"/>
</g>
<!-- u10&#45;&gt;u18 -->
<g id="edge14" class="edge">
<title>u10&#45;&gt;u18</title>
<path fill="none" stroke="black" d="M1102.91,-888.31C1072.3,-871.43 1024.93,-843.78 987.23,-815 945.1,-782.83 901.29,-739.47 875.41,-712.65"/>
<polygon fill="black" stroke="black" points="877.73,-710.01 868.28,-705.21 872.67,-714.86 877.73,-710.01"/>
</g>
<!-- u10&#45;&gt;u12 -->
<g id="edge13" class="edge">
<title>u10&#45;&gt;u12</title>
<path fill="none" stroke="black" d="M1135.52,-887.81C1136.78,-870.96 1138.72,-845.02 1140.19,-825.34"/>
<polygon fill="black" stroke="black" points="1143.69,-825.38 1140.95,-815.15 1136.71,-824.86 1143.69,-825.38"/>
</g>
</g>
</svg>
