<?xml version="1.0" encoding="UTF-8" standalone="no"?>
<!DOCTYPE svg PUBLIC "-//W3C//DTD SVG 1.1//EN"
 "http://www.w3.org/Graphics/SVG/1.1/DTD/svg11.dtd">
<!-- Generated by graphviz version 2.43.0 (0)
 -->
<!-- Title: G Pages: 1 -->
<svg width="432pt" height="288pt"
 viewBox="0.00 0.00 431.68 288.00" xmlns="http://www.w3.org/2000/svg" xmlns:xlink="http://www.w3.org/1999/xlink">
<g id="graph0" class="graph" transform="scale(0.09 0.09) rotate(0) translate(4 3072.67)">
<title>G</title>
<polygon fill="white" stroke="transparent" points="-4,4 -4,-3072.67 4607.57,-3072.67 4607.57,4 -4,4"/>
<!-- u29 -->
<g id="node1" class="node">
<title>u29</title>
<ellipse fill="#bbffbb" stroke="black" cx="2964.94" cy="-2978" rx="108.58" ry="18"/>
<text text-anchor="middle" x="2964.94" y="-2974.3" font-family="Times,serif" font-size="14.00">Drasil.SRSDocument</text>
</g>
<!-- u12 -->
<g id="node3" class="node">
<title>u12</title>
<ellipse fill="#bbffbb" stroke="black" cx="2964.94" cy="-2617" rx="81.79" ry="18"/>
<text text-anchor="middle" x="2964.94" y="-2613.3" font-family="Times,serif" font-size="14.00">Drasil.DocLang</text>
</g>
<!-- u29&#45;&gt;u12 -->
<g id="edge58" class="edge">
<title>u29&#45;&gt;u12</title>
<path fill="none" stroke="black" d="M2964.94,-2959.68C2964.94,-2901.98 2964.94,-2715.93 2964.94,-2645.43"/>
<polygon fill="black" stroke="black" points="2968.44,-2645.14 2964.94,-2635.14 2961.44,-2645.14 2968.44,-2645.14"/>
</g>
<!-- u16 -->
<g id="node2" class="node">
<title>u16</title>
<ellipse fill="#bbffbb" stroke="black" cx="2213.94" cy="-2256" rx="133.78" ry="18"/>
<text text-anchor="middle" x="2213.94" y="-2252.3" font-family="Times,serif" font-size="14.00">Drasil.DocumentLanguage</text>
</g>
<!-- u11 -->
<g id="node4" class="node">
<title>u11</title>
<ellipse fill="#bbffbb" stroke="black" cx="2330.94" cy="-1895" rx="79.09" ry="18"/>
<text text-anchor="middle" x="2330.94" y="-1891.3" font-family="Times,serif" font-size="14.00">Drasil.DocDecl</text>
</g>
<!-- u16&#45;&gt;u11 -->
<g id="edge29" class="edge">
<title>u16&#45;&gt;u11</title>
<path fill="none" stroke="black" d="M2219.58,-2237.68C2238.42,-2179.87 2299.27,-1993.16 2322.14,-1922.99"/>
<polygon fill="black" stroke="black" points="2325.58,-1923.73 2325.35,-1913.14 2318.92,-1921.56 2325.58,-1923.73"/>
</g>
<!-- u2 -->
<g id="node5" class="node">
<title>u2</title>
<ellipse fill="#bbffbb" stroke="black" cx="2544.94" cy="-1895" rx="116.18" ry="18"/>
<text text-anchor="middle" x="2544.94" y="-1891.3" font-family="Times,serif" font-size="14.00">Drasil.ExtractDocDesc</text>
</g>
<!-- u16&#45;&gt;u2 -->
<g id="edge27" class="edge">
<title>u16&#45;&gt;u2</title>
<path fill="none" stroke="black" d="M2229.9,-2237.68C2283.76,-2179.27 2458.9,-1989.32 2522.01,-1920.87"/>
<polygon fill="black" stroke="black" points="2524.93,-1922.87 2529.13,-1913.14 2519.78,-1918.12 2524.93,-1922.87"/>
</g>
<!-- u1 -->
<g id="node6" class="node">
<title>u1</title>
<ellipse fill="#bbffbb" stroke="black" cx="3332.94" cy="-1895" rx="92.08" ry="18"/>
<text text-anchor="middle" x="3332.94" y="-1891.3" font-family="Times,serif" font-size="14.00">Drasil.TraceTable</text>
</g>
<!-- u16&#45;&gt;u1 -->
<g id="edge26" class="edge">
<title>u16&#45;&gt;u1</title>
<path fill="none" stroke="black" d="M2263.1,-2239.23C2445.73,-2180.63 3084.54,-1975.69 3277.39,-1913.82"/>
<polygon fill="black" stroke="black" points="3278.59,-1917.11 3287.04,-1910.72 3276.45,-1910.45 3278.59,-1917.11"/>
</g>
<!-- u14 -->
<g id="node9" class="node">
<title>u14</title>
<ellipse fill="#ffffbb" stroke="black" cx="2096.94" cy="-1895" rx="136.48" ry="18"/>
<text text-anchor="middle" x="2096.94" y="-1891.3" font-family="Times,serif" font-size="14.00">Drasil.DocLang.References</text>
</g>
<!-- u16&#45;&gt;u14 -->
<g id="edge30" class="edge">
<title>u16&#45;&gt;u14</title>
<path fill="none" stroke="black" d="M2208.29,-2237.68C2189.45,-2179.87 2128.6,-1993.16 2105.73,-1922.99"/>
<polygon fill="black" stroke="black" points="2108.95,-1921.56 2102.52,-1913.14 2102.29,-1923.73 2108.95,-1921.56"/>
</g>
<!-- u3 -->
<g id="node15" class="node">
<title>u3</title>
<ellipse fill="#bbbbff" stroke="black" cx="1647.94" cy="-1895" rx="220.96" ry="18"/>
<text text-anchor="middle" x="1647.94" y="-1891.3" font-family="Times,serif" font-size="14.00">Drasil.DocumentLanguage.TraceabilityGraph</text>
</g>
<!-- u16&#45;&gt;u3 -->
<g id="edge28" class="edge">
<title>u16&#45;&gt;u3</title>
<path fill="none" stroke="black" d="M2187.4,-2238.17C2095.12,-2179.64 1788.21,-1984.97 1683.39,-1918.49"/>
<polygon fill="black" stroke="black" points="1685.07,-1915.41 1674.75,-1913.01 1681.32,-1921.32 1685.07,-1915.41"/>
</g>
<!-- u28 -->
<g id="node19" class="node">
<title>u28</title>
<ellipse fill="#bbffff" stroke="black" cx="2908.94" cy="-1534" rx="161.37" ry="18"/>
<text text-anchor="middle" x="2908.94" y="-1530.3" font-family="Times,serif" font-size="14.00">Drasil.Sections.TableOfContents</text>
</g>
<!-- u16&#45;&gt;u28 -->
<g id="edge34" class="edge">
<title>u16&#45;&gt;u28</title>
<path fill="none" stroke="black" d="M2242.94,-2238.42C2319.62,-2193.59 2531.31,-2063.14 2669.94,-1913 2777.15,-1796.89 2864.97,-1626.44 2896.45,-1561.48"/>
<polygon fill="black" stroke="black" points="2899.67,-1562.86 2900.85,-1552.33 2893.36,-1559.82 2899.67,-1562.86"/>
</g>
<!-- u27 -->
<g id="node20" class="node">
<title>u27</title>
<ellipse fill="#bbffff" stroke="black" cx="261.94" cy="-1534" rx="141.88" ry="18"/>
<text text-anchor="middle" x="261.94" y="-1530.3" font-family="Times,serif" font-size="14.00">Drasil.Sections.Introduction</text>
</g>
<!-- u16&#45;&gt;u27 -->
<g id="edge33" class="edge">
<title>u16&#45;&gt;u27</title>
<path fill="none" stroke="black" d="M2170.43,-2238.95C1913.73,-2144.27 598.52,-1659.15 315.6,-1554.79"/>
<polygon fill="black" stroke="black" points="316.57,-1551.42 305.97,-1551.24 314.14,-1557.99 316.57,-1551.42"/>
</g>
<!-- u26 -->
<g id="node21" class="node">
<title>u26</title>
<ellipse fill="#bbffff" stroke="black" cx="144.94" cy="-1895" rx="144.87" ry="18"/>
<text text-anchor="middle" x="144.94" y="-1891.3" font-family="Times,serif" font-size="14.00">Drasil.Sections.Stakeholders</text>
</g>
<!-- u16&#45;&gt;u26 -->
<g id="edge32" class="edge">
<title>u16&#45;&gt;u26</title>
<path fill="none" stroke="black" d="M2135.36,-2241.37C1811.46,-2185.17 580.79,-1971.63 235.5,-1911.71"/>
<polygon fill="black" stroke="black" points="236,-1908.25 225.55,-1909.99 234.8,-1915.14 236,-1908.25"/>
</g>
<!-- u24 -->
<g id="node23" class="node">
<title>u24</title>
<ellipse fill="#bbffff" stroke="black" cx="622.94" cy="-1534" rx="163.27" ry="18"/>
<text text-anchor="middle" x="622.94" y="-1530.3" font-family="Times,serif" font-size="14.00">Drasil.Sections.GeneralSystDesc</text>
</g>
<!-- u16&#45;&gt;u24 -->
<g id="edge31" class="edge">
<title>u16&#45;&gt;u24</title>
<path fill="none" stroke="black" d="M2174.36,-2238.62C2057.83,-2190.27 1706.06,-2043.34 1417.94,-1913 1128.49,-1782.07 784.93,-1614.54 665.98,-1556.17"/>
<polygon fill="black" stroke="black" points="667.33,-1552.94 656.81,-1551.68 664.25,-1559.22 667.33,-1552.94"/>
</g>
<!-- u12&#45;&gt;u16 -->
<g id="edge18" class="edge">
<title>u12&#45;&gt;u16</title>
<path fill="none" stroke="black" d="M2932.18,-2600.34C2811.98,-2542.88 2394.99,-2343.55 2257.95,-2278.04"/>
<polygon fill="black" stroke="black" points="2259.11,-2274.72 2248.58,-2273.56 2256.09,-2281.03 2259.11,-2274.72"/>
</g>
<!-- u10 -->
<g id="node16" class="node">
<title>u10</title>
<ellipse fill="#ffbbbb" stroke="black" cx="3933.94" cy="-2256" rx="276.75" ry="18"/>
<text text-anchor="middle" x="3933.94" y="-2252.3" font-family="Times,serif" font-size="14.00">Drasil.DocumentLanguage.Notebook.DocumentLanguage</text>
</g>
<!-- u12&#45;&gt;u10 -->
<g id="edge17" class="edge">
<title>u12&#45;&gt;u10</title>
<path fill="none" stroke="black" d="M3004.73,-2601.26C3157.04,-2544.83 3703.21,-2342.48 3879.01,-2277.35"/>
<polygon fill="black" stroke="black" points="3880.41,-2280.56 3888.57,-2273.81 3877.98,-2274 3880.41,-2280.56"/>
</g>
<!-- u7 -->
<g id="node11" class="node">
<title>u7</title>
<ellipse fill="#bbbbff" stroke="black" cx="3407.94" cy="-1173" rx="159.47" ry="18"/>
<text text-anchor="middle" x="3407.94" y="-1169.3" font-family="Times,serif" font-size="14.00">Drasil.DocumentLanguage.Core</text>
</g>
<!-- u11&#45;&gt;u7 -->
<g id="edge15" class="edge">
<title>u11&#45;&gt;u7</title>
<path fill="none" stroke="black" d="M2387.02,-1882.24C2641.82,-1828.54 3679.85,-1606.96 3722.94,-1552 3831.77,-1413.19 3560.12,-1252.39 3450.95,-1195.38"/>
<polygon fill="black" stroke="black" points="3452.32,-1192.15 3441.83,-1190.66 3449.11,-1198.36 3452.32,-1192.15"/>
</g>
<!-- u23 -->
<g id="node24" class="node">
<title>u23</title>
<ellipse fill="#bbffff" stroke="black" cx="1773.94" cy="-1534" rx="149.47" ry="18"/>
<text text-anchor="middle" x="1773.94" y="-1530.3" font-family="Times,serif" font-size="14.00">Drasil.Sections.Requirements</text>
</g>
<!-- u11&#45;&gt;u23 -->
<g id="edge16" class="edge">
<title>u11&#45;&gt;u23</title>
<path fill="none" stroke="black" d="M2305.92,-1877.88C2216.45,-1820.21 1912.14,-1624.08 1808.69,-1557.4"/>
<polygon fill="black" stroke="black" points="1810.47,-1554.38 1800.17,-1551.91 1806.68,-1560.26 1810.47,-1554.38"/>
</g>
<!-- u2&#45;&gt;u7 -->
<g id="edge2" class="edge">
<title>u2&#45;&gt;u7</title>
<path fill="none" stroke="black" d="M2631.6,-1882.99C2885.23,-1848.81 3616.94,-1735.68 3755.94,-1552 3866.78,-1405.52 3574.13,-1250.11 3455.4,-1194.92"/>
<polygon fill="black" stroke="black" points="3456.69,-1191.66 3446.15,-1190.66 3453.77,-1198.02 3456.69,-1191.66"/>
</g>
<!-- u17 -->
<g id="node30" class="node">
<title>u17</title>
<ellipse fill="#bbffff" stroke="black" cx="2521.94" cy="-1534" rx="207.96" ry="18"/>
<text text-anchor="middle" x="2521.94" y="-1530.3" font-family="Times,serif" font-size="14.00">Drasil.Sections.SpecificSystemDescription</text>
</g>
<!-- u2&#45;&gt;u17 -->
<g id="edge3" class="edge">
<title>u2&#45;&gt;u17</title>
<path fill="none" stroke="black" d="M2543.83,-1876.68C2540.13,-1818.98 2528.21,-1632.93 2523.69,-1562.43"/>
<polygon fill="black" stroke="black" points="2527.17,-1561.9 2523.04,-1552.14 2520.18,-1562.34 2527.17,-1561.9"/>
</g>
<!-- u1&#45;&gt;u7 -->
<g id="edge1" class="edge">
<title>u1&#45;&gt;u7</title>
<path fill="none" stroke="black" d="M3373.74,-1878.77C3468.73,-1840.79 3703.44,-1731.81 3793.94,-1552 3879.52,-1381.95 3586.77,-1243.94 3461.8,-1194.05"/>
<polygon fill="black" stroke="black" points="3462.97,-1190.75 3452.38,-1190.34 3460.4,-1197.26 3462.97,-1190.75"/>
</g>
<!-- u0 -->
<g id="node7" class="node">
<title>u0</title>
<ellipse fill="#bbffbb" stroke="black" cx="3188.94" cy="-90" rx="92.88" ry="18"/>
<text text-anchor="middle" x="3188.94" y="-86.3" font-family="Times,serif" font-size="14.00">Drasil.GetChunks</text>
</g>
<!-- u15 -->
<g id="node8" class="node">
<title>u15</title>
<ellipse fill="#ffffbb" stroke="black" cx="1024.94" cy="-1173" rx="104.78" ry="18"/>
<text text-anchor="middle" x="1024.94" y="-1169.3" font-family="Times,serif" font-size="14.00">Drasil.DocLang.SRS</text>
</g>
<!-- u25 -->
<g id="node22" class="node">
<title>u25</title>
<ellipse fill="#bbffff" stroke="black" cx="3568.94" cy="-1534" rx="144.87" ry="18"/>
<text text-anchor="middle" x="3568.94" y="-1530.3" font-family="Times,serif" font-size="14.00">Drasil.Sections.TableOfUnits</text>
</g>
<!-- u14&#45;&gt;u25 -->
<g id="edge25" class="edge">
<title>u14&#45;&gt;u25</title>
<path fill="none" stroke="black" d="M2158.78,-1878.92C2395.3,-1821.23 3242.05,-1614.72 3496.27,-1552.72"/>
<polygon fill="black" stroke="black" points="3497.25,-1556.09 3506.13,-1550.32 3495.59,-1549.29 3497.25,-1556.09"/>
</g>
<!-- u14&#45;&gt;u23 -->
<g id="edge24" class="edge">
<title>u14&#45;&gt;u23</title>
<path fill="none" stroke="black" d="M2081.36,-1876.68C2028.8,-1818.27 1857.9,-1628.32 1796.31,-1559.87"/>
<polygon fill="black" stroke="black" points="1798.65,-1557.23 1789.36,-1552.14 1793.45,-1561.92 1798.65,-1557.23"/>
</g>
<!-- u22 -->
<g id="node25" class="node">
<title>u22</title>
<ellipse fill="#bbffff" stroke="black" cx="975.94" cy="-1534" rx="172.47" ry="18"/>
<text text-anchor="middle" x="975.94" y="-1530.3" font-family="Times,serif" font-size="14.00">Drasil.Sections.AuxiliaryConstants</text>
</g>
<!-- u14&#45;&gt;u22 -->
<g id="edge23" class="edge">
<title>u14&#45;&gt;u22</title>
<path fill="none" stroke="black" d="M2047.32,-1878.11C1865.33,-1819.83 1234.74,-1617.88 1036.25,-1554.32"/>
<polygon fill="black" stroke="black" points="1037.16,-1550.93 1026.57,-1551.22 1035.03,-1557.6 1037.16,-1550.93"/>
</g>
<!-- u21 -->
<g id="node26" class="node">
<title>u21</title>
<ellipse fill="#bbffff" stroke="black" cx="3246.94" cy="-1534" rx="159.47" ry="18"/>
<text text-anchor="middle" x="3246.94" y="-1530.3" font-family="Times,serif" font-size="14.00">Drasil.Sections.TableOfSymbols</text>
</g>
<!-- u14&#45;&gt;u21 -->
<g id="edge22" class="edge">
<title>u14&#45;&gt;u21</title>
<path fill="none" stroke="black" d="M2147.46,-1878.23C2333.85,-1820.04 2982.55,-1617.54 3185.65,-1554.13"/>
<polygon fill="black" stroke="black" points="3186.76,-1557.45 3195.27,-1551.13 3184.68,-1550.77 3186.76,-1557.45"/>
</g>
<!-- u20 -->
<g id="node27" class="node">
<title>u20</title>
<ellipse fill="#bbffff" stroke="black" cx="1404.94" cy="-1534" rx="201.46" ry="18"/>
<text text-anchor="middle" x="1404.94" y="-1530.3" font-family="Times,serif" font-size="14.00">Drasil.Sections.TableOfAbbAndAcronyms</text>
</g>
<!-- u14&#45;&gt;u20 -->
<g id="edge21" class="edge">
<title>u14&#45;&gt;u20</title>
<path fill="none" stroke="black" d="M2064.95,-1877.4C1952.14,-1818.88 1572.9,-1622.14 1446.4,-1556.51"/>
<polygon fill="black" stroke="black" points="1447.87,-1553.33 1437.38,-1551.83 1444.65,-1559.55 1447.87,-1553.33"/>
</g>
<!-- u19 -->
<g id="node28" class="node">
<title>u19</title>
<ellipse fill="#bbffff" stroke="black" cx="2118.94" cy="-1534" rx="177.37" ry="18"/>
<text text-anchor="middle" x="2118.94" y="-1530.3" font-family="Times,serif" font-size="14.00">Drasil.Sections.TraceabilityMandGs</text>
</g>
<!-- u14&#45;&gt;u19 -->
<g id="edge20" class="edge">
<title>u14&#45;&gt;u19</title>
<path fill="none" stroke="black" d="M2098,-1876.68C2101.53,-1818.98 2112.94,-1632.93 2117.26,-1562.43"/>
<polygon fill="black" stroke="black" points="2120.77,-1562.34 2117.89,-1552.14 2113.78,-1561.91 2120.77,-1562.34"/>
</g>
<!-- u14&#45;&gt;u17 -->
<g id="edge19" class="edge">
<title>u14&#45;&gt;u17</title>
<path fill="none" stroke="black" d="M2116.87,-1877.17C2185.72,-1819 2413.77,-1626.37 2493.84,-1558.73"/>
<polygon fill="black" stroke="black" points="2496.18,-1561.34 2501.56,-1552.22 2491.66,-1555.99 2496.18,-1561.34"/>
</g>
<!-- u13 -->
<g id="node10" class="node">
<title>u13</title>
<ellipse fill="#ffffbb" stroke="black" cx="4012.94" cy="-1895" rx="129.18" ry="18"/>
<text text-anchor="middle" x="4012.94" y="-1891.3" font-family="Times,serif" font-size="14.00">Drasil.DocLang.Notebook</text>
</g>
<!-- u6 -->
<g id="node12" class="node">
<title>u6</title>
<ellipse fill="#bbbbff" stroke="black" cx="3171.94" cy="-812" rx="223.66" ry="18"/>
<text text-anchor="middle" x="3171.94" y="-808.3" font-family="Times,serif" font-size="14.00">Drasil.DocumentLanguage.TraceabilityMatrix</text>
</g>
<!-- u7&#45;&gt;u6 -->
<g id="edge10" class="edge">
<title>u7&#45;&gt;u6</title>
<path fill="none" stroke="black" d="M3396.55,-1154.68C3358.31,-1096.51 3234.3,-907.86 3188.84,-838.71"/>
<polygon fill="black" stroke="black" points="3191.62,-836.58 3183.21,-830.14 3185.77,-840.42 3191.62,-836.58"/>
</g>
<!-- u5 -->
<g id="node13" class="node">
<title>u5</title>
<ellipse fill="#bbbbff" stroke="black" cx="2521.94" cy="-451" rx="187.37" ry="18"/>
<text text-anchor="middle" x="2521.94" y="-447.3" font-family="Times,serif" font-size="14.00">Drasil.DocumentLanguage.Definitions</text>
</g>
<!-- u6&#45;&gt;u5 -->
<g id="edge9" class="edge">
<title>u6&#45;&gt;u5</title>
<path fill="none" stroke="black" d="M3141.46,-794.17C3035.05,-735.4 2680.09,-539.35 2561.16,-473.66"/>
<polygon fill="black" stroke="black" points="2562.8,-470.57 2552.35,-468.8 2559.41,-476.7 2562.8,-470.57"/>
</g>
<!-- u5&#45;&gt;u0 -->
<g id="edge7" class="edge">
<title>u5&#45;&gt;u0</title>
<path fill="none" stroke="black" d="M2553.21,-433.17C2662.78,-374.19 3029.16,-177 3149.95,-111.99"/>
<polygon fill="black" stroke="black" points="3151.73,-115 3158.88,-107.18 3148.41,-108.84 3151.73,-115"/>
</g>
<!-- u4 -->
<g id="node14" class="node">
<title>u4</title>
<ellipse fill="#bbbbff" stroke="black" cx="1553.94" cy="-90" rx="162.47" ry="18"/>
<text text-anchor="middle" x="1553.94" y="-86.3" font-family="Times,serif" font-size="14.00">Drasil.DocumentLanguage.Units</text>
</g>
<!-- u5&#45;&gt;u4 -->
<g id="edge8" class="edge">
<title>u5&#45;&gt;u4</title>
<path fill="none" stroke="black" d="M2477.19,-433.4C2318.08,-374.4 1780.04,-174.85 1607.59,-110.9"/>
<polygon fill="black" stroke="black" points="1608.8,-107.62 1598.21,-107.42 1606.37,-114.18 1608.8,-107.62"/>
</g>
<!-- u3&#45;&gt;u15 -->
<g id="edge4" class="edge">
<title>u3&#45;&gt;u15</title>
<path fill="none" stroke="black" d="M1537.76,-1879.4C1267.48,-1841.09 583.94,-1728.32 450.94,-1552 303.12,-1356.04 763.52,-1230.93 950.09,-1189.34"/>
<polygon fill="black" stroke="black" points="951.09,-1192.7 960.1,-1187.13 949.58,-1185.87 951.09,-1192.7"/>
</g>
<!-- u3&#45;&gt;u19 -->
<g id="edge6" class="edge">
<title>u3&#45;&gt;u19</title>
<path fill="none" stroke="black" d="M1670.34,-1876.93C1747.29,-1818.27 2000.91,-1624.96 2088.71,-1558.04"/>
<polygon fill="black" stroke="black" points="2090.84,-1560.81 2096.67,-1551.97 2086.6,-1555.25 2090.84,-1560.81"/>
</g>
<!-- u18 -->
<g id="node29" class="node">
<title>u18</title>
<ellipse fill="#bbffff" stroke="black" cx="1355.94" cy="-1173" rx="170.07" ry="18"/>
<text text-anchor="middle" x="1355.94" y="-1169.3" font-family="Times,serif" font-size="14.00">Drasil.Sections.ReferenceMaterial</text>
</g>
<!-- u3&#45;&gt;u18 -->
<g id="edge5" class="edge">
<title>u3&#45;&gt;u18</title>
<path fill="none" stroke="black" d="M1604.65,-1877.24C1509.3,-1837.65 1282.69,-1728.2 1194.94,-1552 1130.14,-1421.88 1270.52,-1259.4 1330.49,-1198.52"/>
<polygon fill="black" stroke="black" points="1333.13,-1200.83 1337.72,-1191.28 1328.18,-1195.88 1333.13,-1200.83"/>
</g>
<!-- u10&#45;&gt;u0 -->
<g id="edge12" class="edge">
<title>u10&#45;&gt;u0</title>
<path fill="none" stroke="black" d="M3930.18,-2237.67C3919.51,-2187.62 3888.86,-2038.46 3874.94,-1913 3856.38,-1745.81 3855.94,-1703.21 3855.94,-1535 3855.94,-1535 3855.94,-1535 3855.94,-811 3855.94,-442.94 3381.06,-183.39 3232.69,-111.28"/>
<polygon fill="black" stroke="black" points="3233.92,-107.99 3223.39,-106.8 3230.88,-114.29 3233.92,-107.99"/>
</g>
<!-- u10&#45;&gt;u13 -->
<g id="edge14" class="edge">
<title>u10&#45;&gt;u13</title>
<path fill="none" stroke="black" d="M3937.75,-2237.68C3950.47,-2179.87 3991.56,-1993.16 4007,-1922.99"/>
<polygon fill="black" stroke="black" points="4010.43,-1923.66 4009.17,-1913.14 4003.6,-1922.16 4010.43,-1923.66"/>
</g>
<!-- u8 -->
<g id="node18" class="node">
<title>u8</title>
<ellipse fill="#ffbbbb" stroke="black" cx="4381.94" cy="-1895" rx="221.76" ry="18"/>
<text text-anchor="middle" x="4381.94" y="-1891.3" font-family="Times,serif" font-size="14.00">Drasil.DocumentLanguage.Notebook.LsnDecl</text>
</g>
<!-- u10&#45;&gt;u8 -->
<g id="edge13" class="edge">
<title>u10&#45;&gt;u8</title>
<path fill="none" stroke="black" d="M3955.24,-2237.93C4028.36,-2179.33 4269.19,-1986.35 4352.93,-1919.24"/>
<polygon fill="black" stroke="black" points="4355.15,-1921.95 4360.76,-1912.97 4350.77,-1916.49 4355.15,-1921.95"/>
</g>
<!-- u9 -->
<g id="node17" class="node">
<title>u9</title>
<ellipse fill="#ffbbbb" stroke="black" cx="4381.94" cy="-1534" rx="206.06" ry="18"/>
<text text-anchor="middle" x="4381.94" y="-1530.3" font-family="Times,serif" font-size="14.00">Drasil.DocumentLanguage.Notebook.Core</text>
</g>
<!-- u8&#45;&gt;u9 -->
<g id="edge11" class="edge">
<title>u8&#45;&gt;u9</title>
<path fill="none" stroke="black" d="M4381.94,-1876.68C4381.94,-1818.98 4381.94,-1632.93 4381.94,-1562.43"/>
<polygon fill="black" stroke="black" points="4385.44,-1562.14 4381.94,-1552.14 4378.44,-1562.14 4385.44,-1562.14"/>
</g>
<!-- u28&#45;&gt;u15 -->
<g id="edge57" class="edge">
<title>u28&#45;&gt;u15</title>
<path fill="none" stroke="black" d="M2831.27,-1518.2C2525.65,-1459.96 1407.67,-1246.93 1102.4,-1188.76"/>
<polygon fill="black" stroke="black" points="1102.79,-1185.27 1092.32,-1186.84 1101.48,-1192.15 1102.79,-1185.27"/>
</g>
<!-- u28&#45;&gt;u7 -->
<g id="edge56" class="edge">
<title>u28&#45;&gt;u7</title>
<path fill="none" stroke="black" d="M2932.34,-1516.17C3013.52,-1457.76 3283.18,-1263.76 3376.12,-1196.89"/>
<polygon fill="black" stroke="black" points="3378.23,-1199.69 3384.3,-1191.01 3374.14,-1194 3378.23,-1199.69"/>
</g>
<!-- u27&#45;&gt;u15 -->
<g id="edge54" class="edge">
<title>u27&#45;&gt;u15</title>
<path fill="none" stroke="black" d="M296.96,-1516.52C421.7,-1457.83 844.25,-1259.01 981.49,-1194.44"/>
<polygon fill="black" stroke="black" points="983.32,-1197.45 990.87,-1190.03 980.34,-1191.12 983.32,-1197.45"/>
</g>
<!-- u27&#45;&gt;u5 -->
<g id="edge53" class="edge">
<title>u27&#45;&gt;u5</title>
<path fill="none" stroke="black" d="M288.21,-1516.2C375.1,-1460.98 661.79,-1281.38 910.94,-1155 1508.38,-851.94 2265.85,-551.69 2469.54,-472.29"/>
<polygon fill="black" stroke="black" points="2471.05,-475.45 2479.1,-468.56 2468.51,-468.93 2471.05,-475.45"/>
</g>
<!-- u27&#45;&gt;u18 -->
<g id="edge55" class="edge">
<title>u27&#45;&gt;u18</title>
<path fill="none" stroke="black" d="M310.71,-1516.99C488.61,-1458.62 1102.31,-1257.23 1296.52,-1193.5"/>
<polygon fill="black" stroke="black" points="1297.85,-1196.74 1306.26,-1190.3 1295.67,-1190.09 1297.85,-1196.74"/>
</g>
<!-- u26&#45;&gt;u15 -->
<g id="edge52" class="edge">
<title>u26&#45;&gt;u15</title>
<path fill="none" stroke="black" d="M136.39,-1876.98C109.06,-1819.9 30.2,-1632.41 110.94,-1516 295.02,-1250.57 711.87,-1190.81 912.67,-1177.59"/>
<polygon fill="black" stroke="black" points="912.89,-1181.08 922.65,-1176.96 912.45,-1174.1 912.89,-1181.08"/>
</g>
<!-- u25&#45;&gt;u7 -->
<g id="edge50" class="edge">
<title>u25&#45;&gt;u7</title>
<path fill="none" stroke="black" d="M3561.17,-1515.68C3535.19,-1457.75 3451.17,-1270.4 3419.85,-1200.56"/>
<polygon fill="black" stroke="black" points="3422.91,-1198.83 3415.62,-1191.14 3416.52,-1201.7 3422.91,-1198.83"/>
</g>
<!-- u25&#45;&gt;u18 -->
<g id="edge51" class="edge">
<title>u25&#45;&gt;u18</title>
<path fill="none" stroke="black" d="M3484.55,-1519.31C3138.21,-1463.13 1826.62,-1250.36 1454.76,-1190.03"/>
<polygon fill="black" stroke="black" points="1455.25,-1186.57 1444.82,-1188.42 1454.13,-1193.48 1455.25,-1186.57"/>
</g>
<!-- u24&#45;&gt;u15 -->
<g id="edge48" class="edge">
<title>u24&#45;&gt;u15</title>
<path fill="none" stroke="black" d="M642.06,-1515.93C707.55,-1457.44 922.95,-1265.08 998.48,-1197.62"/>
<polygon fill="black" stroke="black" points="1001.04,-1200.03 1006.17,-1190.76 996.38,-1194.81 1001.04,-1200.03"/>
</g>
<!-- u24&#45;&gt;u18 -->
<g id="edge49" class="edge">
<title>u24&#45;&gt;u18</title>
<path fill="none" stroke="black" d="M657.31,-1516.17C777.55,-1457.28 1179.2,-1260.56 1312.51,-1195.27"/>
<polygon fill="black" stroke="black" points="1314.2,-1198.34 1321.64,-1190.8 1311.12,-1192.05 1314.2,-1198.34"/>
</g>
<!-- u23&#45;&gt;u15 -->
<g id="edge46" class="edge">
<title>u23&#45;&gt;u15</title>
<path fill="none" stroke="black" d="M1739.31,-1516.4C1616.67,-1457.62 1203.07,-1259.38 1068,-1194.64"/>
<polygon fill="black" stroke="black" points="1069.3,-1191.38 1058.77,-1190.21 1066.27,-1197.69 1069.3,-1191.38"/>
</g>
<!-- u23&#45;&gt;u4 -->
<g id="edge45" class="edge">
<title>u23&#45;&gt;u4</title>
<path fill="none" stroke="black" d="M1771.31,-1515.8C1748.66,-1367.35 1586.35,-303.48 1558.12,-118.41"/>
<polygon fill="black" stroke="black" points="1561.56,-117.77 1556.59,-108.42 1554.64,-118.83 1561.56,-117.77"/>
</g>
<!-- u23&#45;&gt;u18 -->
<g id="edge47" class="edge">
<title>u23&#45;&gt;u18</title>
<path fill="none" stroke="black" d="M1754.06,-1515.93C1686.12,-1457.58 1463.01,-1265.96 1383.99,-1198.09"/>
<polygon fill="black" stroke="black" points="1385.81,-1195.04 1375.94,-1191.18 1381.24,-1200.35 1385.81,-1195.04"/>
</g>
<!-- u22&#45;&gt;u15 -->
<g id="edge43" class="edge">
<title>u22&#45;&gt;u15</title>
<path fill="none" stroke="black" d="M978.3,-1515.68C986.18,-1457.98 1011.57,-1271.93 1021.19,-1201.43"/>
<polygon fill="black" stroke="black" points="1024.71,-1201.52 1022.6,-1191.14 1017.78,-1200.58 1024.71,-1201.52"/>
</g>
<!-- u22&#45;&gt;u4 -->
<g id="edge42" class="edge">
<title>u22&#45;&gt;u4</title>
<path fill="none" stroke="black" d="M984.77,-1515.8C1010.15,-1466.09 1084.93,-1317.77 1138.94,-1191 1318.51,-769.52 1502.22,-241.5 1544.77,-117.79"/>
<polygon fill="black" stroke="black" points="1548.19,-118.61 1548.12,-108.01 1541.57,-116.33 1548.19,-118.61"/>
</g>
<!-- u22&#45;&gt;u18 -->
<g id="edge44" class="edge">
<title>u22&#45;&gt;u18</title>
<path fill="none" stroke="black" d="M994.01,-1515.93C1055.77,-1457.58 1258.6,-1265.96 1330.44,-1198.09"/>
<polygon fill="black" stroke="black" points="1332.89,-1200.59 1337.75,-1191.18 1328.08,-1195.5 1332.89,-1200.59"/>
</g>
<!-- u21&#45;&gt;u7 -->
<g id="edge40" class="edge">
<title>u21&#45;&gt;u7</title>
<path fill="none" stroke="black" d="M3254.7,-1515.68C3280.69,-1457.75 3364.71,-1270.4 3396.02,-1200.56"/>
<polygon fill="black" stroke="black" points="3399.35,-1201.7 3400.25,-1191.14 3392.96,-1198.83 3399.35,-1201.7"/>
</g>
<!-- u21&#45;&gt;u18 -->
<g id="edge41" class="edge">
<title>u21&#45;&gt;u18</title>
<path fill="none" stroke="black" d="M3169.28,-1518.26C2866.6,-1460.79 1766.78,-1252 1444.97,-1190.9"/>
<polygon fill="black" stroke="black" points="1445.24,-1187.39 1434.76,-1188.96 1443.93,-1194.27 1445.24,-1187.39"/>
</g>
<!-- u20&#45;&gt;u18 -->
<g id="edge39" class="edge">
<title>u20&#45;&gt;u18</title>
<path fill="none" stroke="black" d="M1402.57,-1515.68C1394.7,-1457.98 1369.3,-1271.93 1359.68,-1201.43"/>
<polygon fill="black" stroke="black" points="1363.1,-1200.58 1358.28,-1191.14 1356.16,-1201.52 1363.1,-1200.58"/>
</g>
<!-- u19&#45;&gt;u7 -->
<g id="edge38" class="edge">
<title>u19&#45;&gt;u7</title>
<path fill="none" stroke="black" d="M2176.83,-1516.88C2388.01,-1458.06 3116.33,-1255.22 3341.25,-1192.57"/>
<polygon fill="black" stroke="black" points="3342.24,-1195.93 3350.94,-1189.87 3340.37,-1189.19 3342.24,-1195.93"/>
</g>
<!-- u17&#45;&gt;u15 -->
<g id="edge36" class="edge">
<title>u17&#45;&gt;u15</title>
<path fill="none" stroke="black" d="M2454.71,-1516.88C2206.54,-1457.36 1343.45,-1250.38 1093.35,-1190.41"/>
<polygon fill="black" stroke="black" points="1093.84,-1186.93 1083.3,-1188 1092.21,-1193.73 1093.84,-1186.93"/>
</g>
<!-- u17&#45;&gt;u5 -->
<g id="edge35" class="edge">
<title>u17&#45;&gt;u5</title>
<path fill="none" stroke="black" d="M2521.94,-1515.58C2521.94,-1390.8 2521.94,-633.43 2521.94,-479.35"/>
<polygon fill="black" stroke="black" points="2525.44,-479.31 2521.94,-469.31 2518.44,-479.31 2525.44,-479.31"/>
</g>
<!-- u17&#45;&gt;u18 -->
<g id="edge37" class="edge">
<title>u17&#45;&gt;u18</title>
<path fill="none" stroke="black" d="M2468.42,-1516.52C2276.47,-1457.42 1623.09,-1256.25 1418.03,-1193.12"/>
<polygon fill="black" stroke="black" points="1418.91,-1189.73 1408.32,-1190.13 1416.85,-1196.42 1418.91,-1189.73"/>
</g>
</g>
</svg>
