<?xml version="1.0" encoding="UTF-8" standalone="no"?>
<!DOCTYPE svg PUBLIC "-//W3C//DTD SVG 1.1//EN"
 "http://www.w3.org/Graphics/SVG/1.1/DTD/svg11.dtd">
<!-- Generated by graphviz version 2.43.0 (0)
 -->
<!-- Title: G Pages: 1 -->
<svg width="432pt" height="281pt"
 viewBox="0.00 0.00 432.00 281.46" xmlns="http://www.w3.org/2000/svg" xmlns:xlink="http://www.w3.org/1999/xlink">
<g id="graph0" class="graph" transform="scale(9.67 9.67) rotate(0) translate(4 2717.33)">
<title>G</title>
<polygon fill="white" stroke="transparent" points="-4,4 -4,-2717.33 4172.87,-2717.33 4172.87,4 -4,4"/>
<!-- u28 -->
<g id="node1" class="node">
<title>u28</title>
<ellipse fill="#bbffbb" stroke="black" cx="621.24" cy="-1676" rx="116.18" ry="18"/>
<text text-anchor="middle" x="621.24" y="-1672.3" font-family="Times,serif" font-size="14.00">Drasil.ExtractDocDesc</text>
</g>
<!-- u9 -->
<g id="node10" class="node">
<title>u9</title>
<ellipse fill="#bbbbff" stroke="black" cx="363.24" cy="-1037" rx="159.47" ry="18"/>
<text text-anchor="middle" x="363.24" y="-1033.3" font-family="Times,serif" font-size="14.00">Drasil.DocumentLanguage.Core</text>
</g>
<!-- u28&#45;&gt;u9 -->
<g id="edge55" class="edge">
<title>u28&#45;&gt;u9</title>
<path fill="none" stroke="black" d="M542.59,-1662.66C407.46,-1636.76 134.53,-1562.75 18.24,-1375 -70.32,-1232.03 192.46,-1105.96 309.78,-1058.27"/>
<polygon fill="black" stroke="black" points="311.35,-1061.42 319.32,-1054.44 308.74,-1054.92 311.35,-1061.42"/>
</g>
<!-- u14 -->
<g id="node29" class="node">
<title>u14</title>
<ellipse fill="#bbffff" stroke="black" cx="642.24" cy="-1357" rx="207.96" ry="18"/>
<text text-anchor="middle" x="642.24" y="-1353.3" font-family="Times,serif" font-size="14.00">Drasil.Sections.SpecificSystemDescription</text>
</g>
<!-- u28&#45;&gt;u14 -->
<g id="edge56" class="edge">
<title>u28&#45;&gt;u14</title>
<path fill="none" stroke="black" d="M622.37,-1657.96C625.82,-1605.93 636.22,-1448.82 640.44,-1385.19"/>
<polygon fill="black" stroke="black" points="643.94,-1385.34 641.11,-1375.13 636.95,-1384.87 643.94,-1385.34"/>
</g>
<!-- u27 -->
<g id="node2" class="node">
<title>u27</title>
<ellipse fill="#bbffbb" stroke="black" cx="2927.24" cy="-2634" rx="108.58" ry="18"/>
<text text-anchor="middle" x="2927.24" y="-2630.3" font-family="Times,serif" font-size="14.00">Drasil.SRSDocument</text>
</g>
<!-- u10 -->
<g id="node4" class="node">
<title>u10</title>
<ellipse fill="#bbffbb" stroke="black" cx="2927.24" cy="-2314" rx="81.79" ry="18"/>
<text text-anchor="middle" x="2927.24" y="-2310.3" font-family="Times,serif" font-size="14.00">Drasil.DocLang</text>
</g>
<!-- u27&#45;&gt;u10 -->
<g id="edge54" class="edge">
<title>u27&#45;&gt;u10</title>
<path fill="none" stroke="black" d="M2927.24,-2615.9C2927.24,-2563.71 2927.24,-2406.1 2927.24,-2342.28"/>
<polygon fill="black" stroke="black" points="2930.74,-2342.18 2927.24,-2332.18 2923.74,-2342.18 2930.74,-2342.18"/>
</g>
<!-- u26 -->
<g id="node3" class="node">
<title>u26</title>
<ellipse fill="#bbffbb" stroke="black" cx="848.24" cy="-1676" rx="92.08" ry="18"/>
<text text-anchor="middle" x="848.24" y="-1672.3" font-family="Times,serif" font-size="14.00">Drasil.TraceTable</text>
</g>
<!-- u26&#45;&gt;u9 -->
<g id="edge53" class="edge">
<title>u26&#45;&gt;u9</title>
<path fill="none" stroke="black" d="M790.11,-1661.94C622.42,-1622.96 144.12,-1502.27 56.24,-1375 -34.67,-1243.35 209.42,-1109.48 316.13,-1058.99"/>
<polygon fill="black" stroke="black" points="317.83,-1062.05 325.41,-1054.64 314.87,-1055.71 317.83,-1062.05"/>
</g>
<!-- u0 -->
<g id="node6" class="node">
<title>u0</title>
<ellipse fill="#bbffbb" stroke="black" cx="2595.24" cy="-1995" rx="133.78" ry="18"/>
<text text-anchor="middle" x="2595.24" y="-1991.3" font-family="Times,serif" font-size="14.00">Drasil.DocumentLanguage</text>
</g>
<!-- u10&#45;&gt;u0 -->
<g id="edge21" class="edge">
<title>u10&#45;&gt;u0</title>
<path fill="none" stroke="black" d="M2909.86,-2296.4C2854.98,-2244.01 2685.26,-2081.95 2620.6,-2020.22"/>
<polygon fill="black" stroke="black" points="2622.91,-2017.58 2613.26,-2013.2 2618.07,-2022.64 2622.91,-2017.58"/>
</g>
<!-- u2 -->
<g id="node17" class="node">
<title>u2</title>
<ellipse fill="#ffbbbb" stroke="black" cx="3568.24" cy="-1995" rx="276.75" ry="18"/>
<text text-anchor="middle" x="3568.24" y="-1991.3" font-family="Times,serif" font-size="14.00">Drasil.DocumentLanguage.Notebook.DocumentLanguage</text>
</g>
<!-- u10&#45;&gt;u2 -->
<g id="edge22" class="edge">
<title>u10&#45;&gt;u2</title>
<path fill="none" stroke="black" d="M2959.03,-2297.28C3064.65,-2245.05 3404.03,-2077.21 3524.95,-2017.41"/>
<polygon fill="black" stroke="black" points="3526.53,-2020.53 3533.95,-2012.96 3523.43,-2014.26 3526.53,-2020.53"/>
</g>
<!-- u1 -->
<g id="node5" class="node">
<title>u1</title>
<ellipse fill="#bbffbb" stroke="black" cx="1038.24" cy="-1676" rx="79.09" ry="18"/>
<text text-anchor="middle" x="1038.24" y="-1672.3" font-family="Times,serif" font-size="14.00">Drasil.DocDecl</text>
</g>
<!-- u1&#45;&gt;u9 -->
<g id="edge10" class="edge">
<title>u1&#45;&gt;u9</title>
<path fill="none" stroke="black" d="M986.05,-1662.31C795.43,-1615.48 144.96,-1451.05 89.24,-1375 -1.21,-1251.55 223.97,-1112.03 321.17,-1059.51"/>
<polygon fill="black" stroke="black" points="322.99,-1062.51 330.16,-1054.7 319.69,-1056.33 322.99,-1062.51"/>
</g>
<!-- u20 -->
<g id="node23" class="node">
<title>u20</title>
<ellipse fill="#bbffff" stroke="black" cx="1017.24" cy="-1357" rx="149.47" ry="18"/>
<text text-anchor="middle" x="1017.24" y="-1353.3" font-family="Times,serif" font-size="14.00">Drasil.Sections.Requirements</text>
</g>
<!-- u1&#45;&gt;u20 -->
<g id="edge11" class="edge">
<title>u1&#45;&gt;u20</title>
<path fill="none" stroke="black" d="M1037.11,-1657.96C1033.66,-1605.93 1023.26,-1448.82 1019.04,-1385.19"/>
<polygon fill="black" stroke="black" points="1022.53,-1384.87 1018.38,-1375.13 1015.54,-1385.34 1022.53,-1384.87"/>
</g>
<!-- u0&#45;&gt;u28 -->
<g id="edge9" class="edge">
<title>u0&#45;&gt;u28</title>
<path fill="none" stroke="black" d="M2512.93,-1980.78C2193.45,-1929.48 1037.01,-1743.77 708.7,-1691.04"/>
<polygon fill="black" stroke="black" points="709.19,-1687.58 698.76,-1689.45 708.08,-1694.49 709.19,-1687.58"/>
</g>
<!-- u0&#45;&gt;u26 -->
<g id="edge8" class="edge">
<title>u0&#45;&gt;u26</title>
<path fill="none" stroke="black" d="M2519.05,-1980.18C2230.88,-1927.89 1209.45,-1742.54 923.26,-1690.61"/>
<polygon fill="black" stroke="black" points="923.86,-1687.16 913.4,-1688.82 922.61,-1694.05 923.86,-1687.16"/>
</g>
<!-- u0&#45;&gt;u1 -->
<g id="edge1" class="edge">
<title>u0&#45;&gt;u1</title>
<path fill="none" stroke="black" d="M2524.8,-1979.66C2264.55,-1926.67 1359.14,-1742.33 1105.02,-1690.6"/>
<polygon fill="black" stroke="black" points="1105.69,-1687.16 1095.19,-1688.59 1104.29,-1694.02 1105.69,-1687.16"/>
</g>
<!-- u12 -->
<g id="node8" class="node">
<title>u12</title>
<ellipse fill="#ffffbb" stroke="black" cx="1532.24" cy="-1676" rx="136.48" ry="18"/>
<text text-anchor="middle" x="1532.24" y="-1672.3" font-family="Times,serif" font-size="14.00">Drasil.DocLang.References</text>
</g>
<!-- u0&#45;&gt;u12 -->
<g id="edge3" class="edge">
<title>u0&#45;&gt;u12</title>
<path fill="none" stroke="black" d="M2542.89,-1978.39C2365.24,-1925.41 1785.87,-1752.64 1594.34,-1695.52"/>
<polygon fill="black" stroke="black" points="1595.28,-1692.15 1584.7,-1692.64 1593.28,-1698.86 1595.28,-1692.15"/>
</g>
<!-- u6 -->
<g id="node13" class="node">
<title>u6</title>
<ellipse fill="#bbbbff" stroke="black" cx="2300.24" cy="-1676" rx="220.96" ry="18"/>
<text text-anchor="middle" x="2300.24" y="-1672.3" font-family="Times,serif" font-size="14.00">Drasil.DocumentLanguage.TraceabilityGraph</text>
</g>
<!-- u0&#45;&gt;u6 -->
<g id="edge2" class="edge">
<title>u0&#45;&gt;u6</title>
<path fill="none" stroke="black" d="M2579.38,-1976.96C2530.26,-1924.17 2380.51,-1763.25 2323.03,-1701.49"/>
<polygon fill="black" stroke="black" points="2325.55,-1699.06 2316.18,-1694.13 2320.43,-1703.83 2325.55,-1699.06"/>
</g>
<!-- u24 -->
<g id="node19" class="node">
<title>u24</title>
<ellipse fill="#bbffff" stroke="black" cx="3226.24" cy="-1357" rx="163.27" ry="18"/>
<text text-anchor="middle" x="3226.24" y="-1353.3" font-family="Times,serif" font-size="14.00">Drasil.Sections.GeneralSystDesc</text>
</g>
<!-- u0&#45;&gt;u24 -->
<g id="edge7" class="edge">
<title>u0&#45;&gt;u24</title>
<path fill="none" stroke="black" d="M2612.12,-1976.99C2699.4,-1889.01 3099.49,-1485.75 3202.17,-1382.26"/>
<polygon fill="black" stroke="black" points="3204.75,-1384.63 3209.31,-1375.06 3199.78,-1379.7 3204.75,-1384.63"/>
</g>
<!-- u21 -->
<g id="node22" class="node">
<title>u21</title>
<ellipse fill="#bbffff" stroke="black" cx="2884.24" cy="-1357" rx="161.37" ry="18"/>
<text text-anchor="middle" x="2884.24" y="-1353.3" font-family="Times,serif" font-size="14.00">Drasil.Sections.TableOfContents</text>
</g>
<!-- u0&#45;&gt;u21 -->
<g id="edge6" class="edge">
<title>u0&#45;&gt;u21</title>
<path fill="none" stroke="black" d="M2602.97,-1976.99C2642.67,-1889.63 2823.63,-1491.39 2872.21,-1384.48"/>
<polygon fill="black" stroke="black" points="2875.54,-1385.62 2876.49,-1375.06 2869.16,-1382.72 2875.54,-1385.62"/>
</g>
<!-- u19 -->
<g id="node24" class="node">
<title>u19</title>
<ellipse fill="#bbffff" stroke="black" cx="3176.24" cy="-1676" rx="144.87" ry="18"/>
<text text-anchor="middle" x="3176.24" y="-1672.3" font-family="Times,serif" font-size="14.00">Drasil.Sections.Stakeholders</text>
</g>
<!-- u0&#45;&gt;u19 -->
<g id="edge5" class="edge">
<title>u0&#45;&gt;u19</title>
<path fill="none" stroke="black" d="M2625.66,-1977.4C2723.1,-1924.24 3027.5,-1758.15 3136.73,-1698.56"/>
<polygon fill="black" stroke="black" points="3138.67,-1701.49 3145.77,-1693.62 3135.32,-1695.34 3138.67,-1701.49"/>
</g>
<!-- u17 -->
<g id="node26" class="node">
<title>u17</title>
<ellipse fill="#bbffff" stroke="black" cx="3587.24" cy="-1357" rx="141.88" ry="18"/>
<text text-anchor="middle" x="3587.24" y="-1353.3" font-family="Times,serif" font-size="14.00">Drasil.Sections.Introduction</text>
</g>
<!-- u0&#45;&gt;u17 -->
<g id="edge4" class="edge">
<title>u0&#45;&gt;u17</title>
<path fill="none" stroke="black" d="M2662.07,-1979.32C2798.8,-1946.76 3115.63,-1858.06 3330.24,-1694 3448.21,-1603.82 3540.14,-1446.5 3573.58,-1384.35"/>
<polygon fill="black" stroke="black" points="3576.84,-1385.69 3578.44,-1375.21 3570.66,-1382.4 3576.84,-1385.69"/>
</g>
<!-- u13 -->
<g id="node7" class="node">
<title>u13</title>
<ellipse fill="#ffffbb" stroke="black" cx="2789.24" cy="-1037" rx="104.78" ry="18"/>
<text text-anchor="middle" x="2789.24" y="-1033.3" font-family="Times,serif" font-size="14.00">Drasil.DocLang.SRS</text>
</g>
<!-- u25 -->
<g id="node18" class="node">
<title>u25</title>
<ellipse fill="#bbffff" stroke="black" cx="2495.24" cy="-1357" rx="172.47" ry="18"/>
<text text-anchor="middle" x="2495.24" y="-1353.3" font-family="Times,serif" font-size="14.00">Drasil.Sections.AuxiliaryConstants</text>
</g>
<!-- u12&#45;&gt;u25 -->
<g id="edge29" class="edge">
<title>u12&#45;&gt;u25</title>
<path fill="none" stroke="black" d="M1580.66,-1659.06C1741.9,-1605.98 2260.41,-1435.3 2436.26,-1377.41"/>
<polygon fill="black" stroke="black" points="2437.46,-1380.7 2445.87,-1374.25 2435.27,-1374.06 2437.46,-1380.7"/>
</g>
<!-- u23 -->
<g id="node20" class="node">
<title>u23</title>
<ellipse fill="#bbffff" stroke="black" cx="257.24" cy="-1357" rx="159.47" ry="18"/>
<text text-anchor="middle" x="257.24" y="-1353.3" font-family="Times,serif" font-size="14.00">Drasil.Sections.TableOfSymbols</text>
</g>
<!-- u12&#45;&gt;u23 -->
<g id="edge28" class="edge">
<title>u12&#45;&gt;u23</title>
<path fill="none" stroke="black" d="M1471.17,-1659.82C1259.6,-1607.22 558.44,-1432.89 329.93,-1376.07"/>
<polygon fill="black" stroke="black" points="330.61,-1372.63 320.06,-1373.62 328.92,-1379.43 330.61,-1372.63"/>
</g>
<!-- u22 -->
<g id="node21" class="node">
<title>u22</title>
<ellipse fill="#bbffff" stroke="black" cx="1362.24" cy="-1357" rx="177.37" ry="18"/>
<text text-anchor="middle" x="1362.24" y="-1353.3" font-family="Times,serif" font-size="14.00">Drasil.Sections.TraceabilityMandGs</text>
</g>
<!-- u12&#45;&gt;u22 -->
<g id="edge27" class="edge">
<title>u12&#45;&gt;u22</title>
<path fill="none" stroke="black" d="M1523.1,-1657.96C1495.02,-1605.6 1409.9,-1446.87 1376.19,-1384.02"/>
<polygon fill="black" stroke="black" points="1379.24,-1382.29 1371.43,-1375.13 1373.07,-1385.59 1379.24,-1382.29"/>
</g>
<!-- u12&#45;&gt;u20 -->
<g id="edge26" class="edge">
<title>u12&#45;&gt;u20</title>
<path fill="none" stroke="black" d="M1504.92,-1658.18C1418.41,-1604.93 1150.52,-1440.04 1053.11,-1380.08"/>
<polygon fill="black" stroke="black" points="1054.85,-1377.04 1044.5,-1374.78 1051.18,-1383 1054.85,-1377.04"/>
</g>
<!-- u18 -->
<g id="node25" class="node">
<title>u18</title>
<ellipse fill="#bbffff" stroke="black" cx="1702.24" cy="-1357" rx="144.87" ry="18"/>
<text text-anchor="middle" x="1702.24" y="-1353.3" font-family="Times,serif" font-size="14.00">Drasil.Sections.TableOfUnits</text>
</g>
<!-- u12&#45;&gt;u18 -->
<g id="edge25" class="edge">
<title>u12&#45;&gt;u18</title>
<path fill="none" stroke="black" d="M1541.38,-1657.96C1569.46,-1605.6 1654.58,-1446.87 1688.29,-1384.02"/>
<polygon fill="black" stroke="black" points="1691.41,-1385.59 1693.06,-1375.13 1685.24,-1382.29 1691.41,-1385.59"/>
</g>
<!-- u15 -->
<g id="node28" class="node">
<title>u15</title>
<ellipse fill="#bbffff" stroke="black" cx="2066.24" cy="-1357" rx="201.46" ry="18"/>
<text text-anchor="middle" x="2066.24" y="-1353.3" font-family="Times,serif" font-size="14.00">Drasil.Sections.TableOfAbbAndAcronyms</text>
</g>
<!-- u12&#45;&gt;u15 -->
<g id="edge24" class="edge">
<title>u12&#45;&gt;u15</title>
<path fill="none" stroke="black" d="M1560.57,-1658.18C1650.26,-1604.94 1927.96,-1440.09 2029,-1380.11"/>
<polygon fill="black" stroke="black" points="2030.84,-1383.09 2037.65,-1374.97 2027.27,-1377.07 2030.84,-1383.09"/>
</g>
<!-- u12&#45;&gt;u14 -->
<g id="edge23" class="edge">
<title>u12&#45;&gt;u14</title>
<path fill="none" stroke="black" d="M1487.19,-1658.95C1338.45,-1605.97 863.16,-1436.69 698.8,-1378.15"/>
<polygon fill="black" stroke="black" points="699.49,-1374.68 688.89,-1374.62 697.14,-1381.27 699.49,-1374.68"/>
</g>
<!-- u11 -->
<g id="node9" class="node">
<title>u11</title>
<ellipse fill="#ffffbb" stroke="black" cx="3568.24" cy="-1676" rx="129.18" ry="18"/>
<text text-anchor="middle" x="3568.24" y="-1672.3" font-family="Times,serif" font-size="14.00">Drasil.DocLang.Notebook</text>
</g>
<!-- u5 -->
<g id="node14" class="node">
<title>u5</title>
<ellipse fill="#bbbbff" stroke="black" cx="390.24" cy="-718" rx="223.66" ry="18"/>
<text text-anchor="middle" x="390.24" y="-714.3" font-family="Times,serif" font-size="14.00">Drasil.DocumentLanguage.TraceabilityMatrix</text>
</g>
<!-- u9&#45;&gt;u5 -->
<g id="edge20" class="edge">
<title>u9&#45;&gt;u5</title>
<path fill="none" stroke="black" d="M364.69,-1018.96C369.12,-966.93 382.51,-809.82 387.92,-746.19"/>
<polygon fill="black" stroke="black" points="391.42,-746.39 388.78,-736.13 384.45,-745.79 391.42,-746.39"/>
</g>
<!-- u8 -->
<g id="node11" class="node">
<title>u8</title>
<ellipse fill="#bbbbff" stroke="black" cx="775.24" cy="-399" rx="187.37" ry="18"/>
<text text-anchor="middle" x="775.24" y="-395.3" font-family="Times,serif" font-size="14.00">Drasil.DocumentLanguage.Definitions</text>
</g>
<!-- u7 -->
<g id="node12" class="node">
<title>u7</title>
<ellipse fill="#bbbbff" stroke="black" cx="1017.24" cy="-80" rx="162.47" ry="18"/>
<text text-anchor="middle" x="1017.24" y="-76.3" font-family="Times,serif" font-size="14.00">Drasil.DocumentLanguage.Units</text>
</g>
<!-- u8&#45;&gt;u7 -->
<g id="edge19" class="edge">
<title>u8&#45;&gt;u7</title>
<path fill="none" stroke="black" d="M788.25,-380.96C828.38,-328.39 950.4,-168.56 997.96,-106.25"/>
<polygon fill="black" stroke="black" points="1000.88,-108.2 1004.17,-98.13 995.32,-103.95 1000.88,-108.2"/>
</g>
<!-- u6&#45;&gt;u13 -->
<g id="edge16" class="edge">
<title>u6&#45;&gt;u13</title>
<path fill="none" stroke="black" d="M2332.06,-1658.16C2403.98,-1618.51 2580.26,-1512.2 2676.24,-1375 2746.82,-1274.12 2776.02,-1125.78 2785.47,-1065.24"/>
<polygon fill="black" stroke="black" points="2788.94,-1065.72 2786.97,-1055.31 2782.02,-1064.68 2788.94,-1065.72"/>
</g>
<!-- u6&#45;&gt;u22 -->
<g id="edge18" class="edge">
<title>u6&#45;&gt;u22</title>
<path fill="none" stroke="black" d="M2251.13,-1658.4C2092.03,-1604.64 1591.22,-1435.38 1420.17,-1377.58"/>
<polygon fill="black" stroke="black" points="1421.18,-1374.22 1410.58,-1374.34 1418.94,-1380.86 1421.18,-1374.22"/>
</g>
<!-- u16 -->
<g id="node27" class="node">
<title>u16</title>
<ellipse fill="#bbffff" stroke="black" cx="2066.24" cy="-1037" rx="170.07" ry="18"/>
<text text-anchor="middle" x="2066.24" y="-1033.3" font-family="Times,serif" font-size="14.00">Drasil.Sections.ReferenceMaterial</text>
</g>
<!-- u6&#45;&gt;u16 -->
<g id="edge17" class="edge">
<title>u6&#45;&gt;u16</title>
<path fill="none" stroke="black" d="M2302.13,-1657.93C2307.07,-1607.43 2317.32,-1455.05 2276.24,-1339 2235.15,-1222.93 2136.44,-1110.58 2090.51,-1062.47"/>
<polygon fill="black" stroke="black" points="2092.81,-1059.81 2083.35,-1055.05 2087.77,-1064.67 2092.81,-1059.81"/>
</g>
<!-- u5&#45;&gt;u8 -->
<g id="edge15" class="edge">
<title>u5&#45;&gt;u8</title>
<path fill="none" stroke="black" d="M410.94,-699.96C475.31,-646.96 672.08,-484.94 746.41,-423.74"/>
<polygon fill="black" stroke="black" points="748.94,-426.19 754.44,-417.13 744.49,-420.78 748.94,-426.19"/>
</g>
<!-- u4 -->
<g id="node15" class="node">
<title>u4</title>
<ellipse fill="#ffbbbb" stroke="black" cx="3953.24" cy="-1357" rx="206.06" ry="18"/>
<text text-anchor="middle" x="3953.24" y="-1353.3" font-family="Times,serif" font-size="14.00">Drasil.DocumentLanguage.Notebook.Core</text>
</g>
<!-- u3 -->
<g id="node16" class="node">
<title>u3</title>
<ellipse fill="#ffbbbb" stroke="black" cx="3947.24" cy="-1676" rx="221.76" ry="18"/>
<text text-anchor="middle" x="3947.24" y="-1672.3" font-family="Times,serif" font-size="14.00">Drasil.DocumentLanguage.Notebook.LsnDecl</text>
</g>
<!-- u3&#45;&gt;u4 -->
<g id="edge14" class="edge">
<title>u3&#45;&gt;u4</title>
<path fill="none" stroke="black" d="M3947.56,-1657.96C3948.55,-1605.93 3951.52,-1448.82 3952.73,-1385.19"/>
<polygon fill="black" stroke="black" points="3956.23,-1385.19 3952.92,-1375.13 3949.23,-1385.06 3956.23,-1385.19"/>
</g>
<!-- u2&#45;&gt;u11 -->
<g id="edge13" class="edge">
<title>u2&#45;&gt;u11</title>
<path fill="none" stroke="black" d="M3568.24,-1976.96C3568.24,-1924.93 3568.24,-1767.82 3568.24,-1704.19"/>
<polygon fill="black" stroke="black" points="3571.74,-1704.13 3568.24,-1694.13 3564.74,-1704.13 3571.74,-1704.13"/>
</g>
<!-- u2&#45;&gt;u3 -->
<g id="edge12" class="edge">
<title>u2&#45;&gt;u3</title>
<path fill="none" stroke="black" d="M3588.62,-1976.96C3651.98,-1923.96 3845.69,-1761.94 3918.86,-1700.74"/>
<polygon fill="black" stroke="black" points="3921.34,-1703.23 3926.76,-1694.13 3916.85,-1697.86 3921.34,-1703.23"/>
</g>
<!-- u25&#45;&gt;u13 -->
<g id="edge51" class="edge">
<title>u25&#45;&gt;u13</title>
<path fill="none" stroke="black" d="M2511.05,-1338.9C2560,-1285.95 2709.25,-1124.52 2766.53,-1062.57"/>
<polygon fill="black" stroke="black" points="2769.14,-1064.9 2773.36,-1055.18 2764,-1060.15 2769.14,-1064.9"/>
</g>
<!-- u25&#45;&gt;u7 -->
<g id="edge50" class="edge">
<title>u25&#45;&gt;u7</title>
<path fill="none" stroke="black" d="M2485.01,-1338.94C2453.49,-1287.16 2353.42,-1128.71 2245.24,-1019 1826.47,-594.31 1208.91,-199.82 1053.67,-103.38"/>
<polygon fill="black" stroke="black" points="1055.29,-100.27 1044.94,-97.97 1051.6,-106.22 1055.29,-100.27"/>
</g>
<!-- u25&#45;&gt;u16 -->
<g id="edge52" class="edge">
<title>u25&#45;&gt;u16</title>
<path fill="none" stroke="black" d="M2472.48,-1339.13C2400.86,-1286.04 2180.02,-1122.34 2097.65,-1061.28"/>
<polygon fill="black" stroke="black" points="2099.33,-1058.17 2089.21,-1055.02 2095.16,-1063.79 2099.33,-1058.17"/>
</g>
<!-- u24&#45;&gt;u13 -->
<g id="edge48" class="edge">
<title>u24&#45;&gt;u13</title>
<path fill="none" stroke="black" d="M3203.05,-1339.13C3129.86,-1285.86 2903.63,-1121.24 2820.39,-1060.67"/>
<polygon fill="black" stroke="black" points="2822.25,-1057.69 2812.11,-1054.64 2818.13,-1063.35 2822.25,-1057.69"/>
</g>
<!-- u24&#45;&gt;u16 -->
<g id="edge49" class="edge">
<title>u24&#45;&gt;u16</title>
<path fill="none" stroke="black" d="M3168.32,-1340.12C2973.64,-1286.75 2343.38,-1113.97 2134.32,-1056.66"/>
<polygon fill="black" stroke="black" points="2134.96,-1053.21 2124.39,-1053.94 2133.11,-1059.96 2134.96,-1053.21"/>
</g>
<!-- u23&#45;&gt;u9 -->
<g id="edge46" class="edge">
<title>u23&#45;&gt;u9</title>
<path fill="none" stroke="black" d="M262.94,-1338.9C280.37,-1286.6 333.09,-1128.45 354.28,-1064.88"/>
<polygon fill="black" stroke="black" points="357.67,-1065.78 357.51,-1055.18 351.03,-1063.56 357.67,-1065.78"/>
</g>
<!-- u23&#45;&gt;u16 -->
<g id="edge47" class="edge">
<title>u23&#45;&gt;u16</title>
<path fill="none" stroke="black" d="M339.37,-1341.56C636.84,-1289.27 1656.94,-1109.95 1972.47,-1054.48"/>
<polygon fill="black" stroke="black" points="1973.26,-1057.9 1982.5,-1052.72 1972.05,-1051 1973.26,-1057.9"/>
</g>
<!-- u22&#45;&gt;u9 -->
<g id="edge45" class="edge">
<title>u22&#45;&gt;u9</title>
<path fill="none" stroke="black" d="M1310.98,-1339.68C1142.3,-1285.99 604.93,-1114.94 423.64,-1057.23"/>
<polygon fill="black" stroke="black" points="424.59,-1053.86 414,-1054.16 422.46,-1060.53 424.59,-1053.86"/>
</g>
<!-- u21&#45;&gt;u13 -->
<g id="edge44" class="edge">
<title>u21&#45;&gt;u13</title>
<path fill="none" stroke="black" d="M2879.13,-1338.9C2863.51,-1286.6 2816.26,-1128.45 2797.27,-1064.88"/>
<polygon fill="black" stroke="black" points="2800.59,-1063.76 2794.37,-1055.18 2793.88,-1065.77 2800.59,-1063.76"/>
</g>
<!-- u21&#45;&gt;u9 -->
<g id="edge43" class="edge">
<title>u21&#45;&gt;u9</title>
<path fill="none" stroke="black" d="M2781.9,-1343.09C2378,-1292.14 896.29,-1105.24 475.41,-1052.15"/>
<polygon fill="black" stroke="black" points="475.72,-1048.66 465.36,-1050.88 474.85,-1055.61 475.72,-1048.66"/>
</g>
<!-- u20&#45;&gt;u13 -->
<g id="edge41" class="edge">
<title>u20&#45;&gt;u13</title>
<path fill="none" stroke="black" d="M1096.82,-1341.72C1390.99,-1288.93 2415.11,-1105.14 2709.52,-1052.31"/>
<polygon fill="black" stroke="black" points="2710.45,-1055.69 2719.68,-1050.48 2709.22,-1048.81 2710.45,-1055.69"/>
</g>
<!-- u20&#45;&gt;u7 -->
<g id="edge40" class="edge">
<title>u20&#45;&gt;u7</title>
<path fill="none" stroke="black" d="M1017.24,-1338.94C1017.24,-1201.88 1017.24,-280.83 1017.24,-108.68"/>
<polygon fill="black" stroke="black" points="1020.74,-108.44 1017.24,-98.44 1013.74,-108.44 1020.74,-108.44"/>
</g>
<!-- u20&#45;&gt;u16 -->
<g id="edge42" class="edge">
<title>u20&#45;&gt;u16</title>
<path fill="none" stroke="black" d="M1069.62,-1340.12C1245.29,-1286.87 1813.18,-1114.72 2003.45,-1057.04"/>
<polygon fill="black" stroke="black" points="2004.47,-1060.38 2013.03,-1054.13 2002.44,-1053.68 2004.47,-1060.38"/>
</g>
<!-- u19&#45;&gt;u13 -->
<g id="edge39" class="edge">
<title>u19&#45;&gt;u13</title>
<path fill="none" stroke="black" d="M3202.94,-1658.26C3277.17,-1609.57 3475.63,-1463.57 3398.24,-1339 3282.5,-1152.69 3013.53,-1078.22 2875.04,-1051.42"/>
<polygon fill="black" stroke="black" points="2875.37,-1047.92 2864.89,-1049.5 2874.07,-1054.8 2875.37,-1047.92"/>
</g>
<!-- u18&#45;&gt;u9 -->
<g id="edge37" class="edge">
<title>u18&#45;&gt;u9</title>
<path fill="none" stroke="black" d="M1638.11,-1340.77C1415.55,-1287.91 677.13,-1112.54 438.39,-1055.85"/>
<polygon fill="black" stroke="black" points="438.96,-1052.38 428.42,-1053.48 437.34,-1059.2 438.96,-1052.38"/>
</g>
<!-- u18&#45;&gt;u16 -->
<g id="edge38" class="edge">
<title>u18&#45;&gt;u16</title>
<path fill="none" stroke="black" d="M1721.55,-1339.13C1782.13,-1286.21 1968.51,-1123.38 2038.92,-1061.87"/>
<polygon fill="black" stroke="black" points="2041.3,-1064.43 2046.53,-1055.22 2036.7,-1059.16 2041.3,-1064.43"/>
</g>
<!-- u17&#45;&gt;u13 -->
<g id="edge35" class="edge">
<title>u17&#45;&gt;u13</title>
<path fill="none" stroke="black" d="M3546.29,-1339.68C3411.84,-1286.1 2984.16,-1115.68 2838.43,-1057.6"/>
<polygon fill="black" stroke="black" points="2839.42,-1054.23 2828.84,-1053.78 2836.83,-1060.73 2839.42,-1054.23"/>
</g>
<!-- u17&#45;&gt;u8 -->
<g id="edge34" class="edge">
<title>u17&#45;&gt;u8</title>
<path fill="none" stroke="black" d="M3558.08,-1339.31C3465.06,-1286.59 3166.09,-1121.08 2903.24,-1019 2126.09,-717.19 1140,-482.83 855.42,-417.96"/>
<polygon fill="black" stroke="black" points="856.12,-414.53 845.59,-415.73 854.57,-421.36 856.12,-414.53"/>
</g>
<!-- u17&#45;&gt;u16 -->
<g id="edge36" class="edge">
<title>u17&#45;&gt;u16</title>
<path fill="none" stroke="black" d="M3517.18,-1341.35C3267.17,-1289.08 2419.4,-1111.84 2149.49,-1055.41"/>
<polygon fill="black" stroke="black" points="2149.88,-1051.91 2139.37,-1053.29 2148.44,-1058.76 2149.88,-1051.91"/>
</g>
<!-- u15&#45;&gt;u16 -->
<g id="edge33" class="edge">
<title>u15&#45;&gt;u16</title>
<path fill="none" stroke="black" d="M2066.24,-1338.9C2066.24,-1286.71 2066.24,-1129.1 2066.24,-1065.28"/>
<polygon fill="black" stroke="black" points="2069.74,-1065.18 2066.24,-1055.18 2062.74,-1065.18 2069.74,-1065.18"/>
</g>
<!-- u14&#45;&gt;u13 -->
<g id="edge31" class="edge">
<title>u14&#45;&gt;u13</title>
<path fill="none" stroke="black" d="M742.2,-1341.19C1106.68,-1287.21 2360.83,-1101.45 2702.62,-1050.83"/>
<polygon fill="black" stroke="black" points="2703.33,-1054.26 2712.71,-1049.34 2702.3,-1047.34 2703.33,-1054.26"/>
</g>
<!-- u14&#45;&gt;u8 -->
<g id="edge30" class="edge">
<title>u14&#45;&gt;u8</title>
<path fill="none" stroke="black" d="M644.61,-1339C660.5,-1224.74 751.75,-568.85 771.48,-427.03"/>
<polygon fill="black" stroke="black" points="774.96,-427.4 772.87,-417.01 768.03,-426.44 774.96,-427.4"/>
</g>
<!-- u14&#45;&gt;u16 -->
<g id="edge32" class="edge">
<title>u14&#45;&gt;u16</title>
<path fill="none" stroke="black" d="M713.83,-1340.01C954.82,-1286.2 1735.5,-1111.86 1987.22,-1055.65"/>
<polygon fill="black" stroke="black" points="1988.03,-1059.05 1997.03,-1053.46 1986.5,-1052.22 1988.03,-1059.05"/>
</g>
</g>
</svg>
