<?xml version="1.0" encoding="UTF-8" standalone="no"?>
<!DOCTYPE svg PUBLIC "-//W3C//DTD SVG 1.1//EN"
 "http://www.w3.org/Graphics/SVG/1.1/DTD/svg11.dtd">
<!-- Generated by graphviz version 2.43.0 (0)
 -->
<!-- Title: G Pages: 1 -->
<svg width="430pt" height="288pt"
 viewBox="0.00 0.00 429.96 288.00" xmlns="http://www.w3.org/2000/svg" xmlns:xlink="http://www.w3.org/1999/xlink">
<g id="graph0" class="graph" transform="scale(1.58 1.58) rotate(0) translate(4 450)">
<title>G</title>
<polygon fill="white" stroke="transparent" points="-4,4 -4,-450 673.78,-450 673.78,4 -4,4"/>
<!-- u4 -->
<g id="node1" class="node">
<title>u4</title>
<ellipse fill="#bbffbb" stroke="black" cx="336.04" cy="-401" rx="63.89" ry="18"/>
<text text-anchor="middle" x="336.04" y="-397.3" font-family="Times,serif" font-size="14.00">Utils.Drasil</text>
</g>
<!-- u3 -->
<g id="node2" class="node">
<title>u3</title>
<ellipse fill="#ffffbb" stroke="black" cx="102.04" cy="-223" rx="102.08" ry="18"/>
<text text-anchor="middle" x="102.04" y="-219.3" font-family="Times,serif" font-size="14.00">Utils.Drasil.English</text>
</g>
<!-- u4&#45;&gt;u3 -->
<g id="edge4" class="edge">
<title>u4&#45;&gt;u3</title>
<path fill="none" stroke="black" d="M314.45,-383.76C272.61,-352.29 180.4,-282.94 132.41,-246.84"/>
<polygon fill="black" stroke="black" points="134.36,-243.93 124.27,-240.72 130.15,-249.52 134.36,-243.93"/>
</g>
<!-- u2 -->
<g id="node3" class="node">
<title>u2</title>
<ellipse fill="#ffffbb" stroke="black" cx="336.04" cy="-223" rx="114.28" ry="18"/>
<text text-anchor="middle" x="336.04" y="-219.3" font-family="Times,serif" font-size="14.00">Utils.Drasil.Document</text>
</g>
<!-- u4&#45;&gt;u2 -->
<g id="edge3" class="edge">
<title>u4&#45;&gt;u2</title>
<path fill="none" stroke="black" d="M336.04,-382.8C336.04,-352.23 336.04,-288.19 336.04,-251.46"/>
<polygon fill="black" stroke="black" points="339.54,-251.01 336.04,-241.01 332.54,-251.01 339.54,-251.01"/>
</g>
<!-- u1 -->
<g id="node4" class="node">
<title>u1</title>
<ellipse fill="#ffffbb" stroke="black" cx="569.04" cy="-223" rx="100.98" ry="18"/>
<text text-anchor="middle" x="569.04" y="-219.3" font-family="Times,serif" font-size="14.00">Utils.Drasil.Strings</text>
</g>
<!-- u4&#45;&gt;u1 -->
<g id="edge2" class="edge">
<title>u4&#45;&gt;u1</title>
<path fill="none" stroke="black" d="M357.54,-383.76C399.2,-352.29 491.01,-282.94 538.8,-246.84"/>
<polygon fill="black" stroke="black" points="541.04,-249.54 546.91,-240.72 536.82,-243.95 541.04,-249.54"/>
</g>
<!-- u0 -->
<g id="node5" class="node">
<title>u0</title>
<ellipse fill="#ffffbb" stroke="black" cx="569.04" cy="-45" rx="89.08" ry="18"/>
<text text-anchor="middle" x="569.04" y="-41.3" font-family="Times,serif" font-size="14.00">Utils.Drasil.Lists</text>
</g>
<!-- u1&#45;&gt;u0 -->
<g id="edge1" class="edge">
<title>u1&#45;&gt;u0</title>
<path fill="none" stroke="black" d="M569.04,-204.8C569.04,-174.23 569.04,-110.19 569.04,-73.46"/>
<polygon fill="black" stroke="black" points="572.54,-73.01 569.04,-63.01 565.54,-73.01 572.54,-73.01"/>
</g>
</g>
</svg>
