<?xml version="1.0" encoding="UTF-8" standalone="no"?>
<!DOCTYPE svg PUBLIC "-//W3C//DTD SVG 1.1//EN"
 "http://www.w3.org/Graphics/SVG/1.1/DTD/svg11.dtd">
<!-- Generated by graphviz version 2.43.0 (0)
 -->
<!-- Title: G Pages: 1 -->
<svg width="432pt" height="287pt"
 viewBox="0.00 0.00 432.00 286.94" xmlns="http://www.w3.org/2000/svg" xmlns:xlink="http://www.w3.org/1999/xlink">
<g id="graph0" class="graph" transform="scale(0.06 0.06) rotate(0) translate(4 4465.33)">
<title>G</title>
<polygon fill="white" stroke="transparent" points="-4,4 -4,-4465.33 6724.79,-4465.33 6724.79,4 -4,4"/>
<!-- u6 -->
<g id="node1" class="node">
<title>u6</title>
<ellipse fill="#bbffbb" stroke="black" cx="422.79" cy="-4102" rx="76.09" ry="18"/>
<text text-anchor="middle" x="422.79" y="-4098.3" font-family="Times,serif" font-size="14.00">NameGenTest</text>
</g>
<!-- u5 -->
<g id="node2" class="node">
<title>u5</title>
<ellipse fill="#bbffbb" stroke="black" cx="539.79" cy="-3814" rx="42.49" ry="18"/>
<text text-anchor="middle" x="539.79" y="-3810.3" font-family="Times,serif" font-size="14.00">Helper</text>
</g>
<!-- u4 -->
<g id="node3" class="node">
<title>u4</title>
<ellipse fill="#bbffbb" stroke="black" cx="569.79" cy="-4102" rx="52.79" ry="18"/>
<text text-anchor="middle" x="569.79" y="-4098.3" font-family="Times,serif" font-size="14.00">FileTests</text>
</g>
<!-- u3 -->
<g id="node4" class="node">
<title>u3</title>
<ellipse fill="#bbffbb" stroke="black" cx="702.79" cy="-4102" rx="62.29" ry="18"/>
<text text-anchor="middle" x="702.79" y="-4098.3" font-family="Times,serif" font-size="14.00">HelloWorld</text>
</g>
<!-- u3&#45;&gt;u5 -->
<g id="edge2" class="edge">
<title>u3&#45;&gt;u5</title>
<path fill="none" stroke="black" d="M693.09,-4083.97C665.56,-4035.67 586.89,-3897.63 554.25,-3840.37"/>
<polygon fill="black" stroke="black" points="557.24,-3838.54 549.25,-3831.59 551.16,-3842.01 557.24,-3838.54"/>
</g>
<!-- u0 -->
<g id="node5" class="node">
<title>u0</title>
<ellipse fill="#bbffbb" stroke="black" cx="59.79" cy="-4102" rx="59.59" ry="18"/>
<text text-anchor="middle" x="59.79" y="-4098.3" font-family="Times,serif" font-size="14.00">VectorTest</text>
</g>
<!-- u8 -->
<g id="node6" class="node">
<title>u8</title>
<ellipse fill="#ffffbb" stroke="black" cx="2456.79" cy="-4389" rx="214.46" ry="18"/>
<text text-anchor="middle" x="2456.79" y="-4385.3" font-family="Times,serif" font-size="14.00">Data.Drasil.ExternalLibraries.ODELibraries</text>
</g>
<!-- u12 -->
<g id="node11" class="node">
<title>u12</title>
<ellipse fill="#ffbbbb" stroke="black" cx="2456.79" cy="-4102" rx="113.18" ry="18"/>
<text text-anchor="middle" x="2456.79" y="-4098.3" font-family="Times,serif" font-size="14.00">Language.Drasil.Code</text>
</g>
<!-- u8&#45;&gt;u12 -->
<g id="edge9" class="edge">
<title>u8&#45;&gt;u12</title>
<path fill="none" stroke="black" d="M2456.79,-4370.6C2456.79,-4322.69 2456.79,-4188.53 2456.79,-4130.42"/>
<polygon fill="black" stroke="black" points="2460.29,-4130.17 2456.79,-4120.17 2453.29,-4130.17 2460.29,-4130.17"/>
</g>
<!-- u2 -->
<g id="node7" class="node">
<title>u2</title>
<ellipse fill="#bbbbff" stroke="black" cx="232.79" cy="-4102" rx="95.58" ry="18"/>
<text text-anchor="middle" x="232.79" y="-4098.3" font-family="Times,serif" font-size="14.00">GOOL.PatternTest</text>
</g>
<!-- u1 -->
<g id="node8" class="node">
<title>u1</title>
<ellipse fill="#bbbbff" stroke="black" cx="232.79" cy="-3814" rx="84.49" ry="18"/>
<text text-anchor="middle" x="232.79" y="-3810.3" font-family="Times,serif" font-size="14.00">GOOL.Observer</text>
</g>
<!-- u2&#45;&gt;u1 -->
<g id="edge1" class="edge">
<title>u2&#45;&gt;u1</title>
<path fill="none" stroke="black" d="M232.79,-4083.97C232.79,-4036.29 232.79,-3901.18 232.79,-3842.63"/>
<polygon fill="black" stroke="black" points="236.29,-3842.31 232.79,-3832.31 229.29,-3842.31 236.29,-3842.31"/>
</g>
<!-- u60 -->
<g id="node9" class="node">
<title>u60</title>
<ellipse fill="#ffbbbb" stroke="black" cx="5121.79" cy="-2087" rx="135.68" ry="18"/>
<text text-anchor="middle" x="5121.79" y="-2083.3" font-family="Times,serif" font-size="14.00">Language.Drasil.CodeSpec</text>
</g>
<!-- u9 -->
<g id="node12" class="node">
<title>u9</title>
<ellipse fill="#ffbbbb" stroke="black" cx="4551.79" cy="-1799" rx="126.18" ry="18"/>
<text text-anchor="middle" x="4551.79" y="-1795.3" font-family="Times,serif" font-size="14.00">Language.Drasil.Choices</text>
</g>
<!-- u60&#45;&gt;u9 -->
<g id="edge95" class="edge">
<title>u60&#45;&gt;u9</title>
<path fill="none" stroke="black" d="M5088.69,-2069.39C4990.68,-2020.21 4702.13,-1875.43 4593.66,-1821"/>
<polygon fill="black" stroke="black" points="4595.15,-1817.84 4584.64,-1816.48 4592.01,-1824.09 4595.15,-1817.84"/>
</g>
<!-- u18 -->
<g id="node13" class="node">
<title>u18</title>
<ellipse fill="#bbffff" stroke="black" cx="5541.79" cy="-1799" rx="191.17" ry="18"/>
<text text-anchor="middle" x="5541.79" y="-1795.3" font-family="Times,serif" font-size="14.00">Language.Drasil.Chunk.CodeDefinition</text>
</g>
<!-- u60&#45;&gt;u18 -->
<g id="edge97" class="edge">
<title>u60&#45;&gt;u18</title>
<path fill="none" stroke="black" d="M5146.5,-2069.18C5218.26,-2020.31 5426.79,-1878.31 5508.45,-1822.71"/>
<polygon fill="black" stroke="black" points="5510.56,-1825.5 5516.86,-1816.98 5506.62,-1819.72 5510.56,-1825.5"/>
</g>
<!-- u16 -->
<g id="node15" class="node">
<title>u16</title>
<ellipse fill="#bbffff" stroke="black" cx="5102.79" cy="-1799" rx="192.27" ry="18"/>
<text text-anchor="middle" x="5102.79" y="-1795.3" font-family="Times,serif" font-size="14.00">Language.Drasil.Chunk.ConstraintMap</text>
</g>
<!-- u60&#45;&gt;u16 -->
<g id="edge96" class="edge">
<title>u60&#45;&gt;u16</title>
<path fill="none" stroke="black" d="M5120.66,-2068.97C5117.5,-2021.29 5108.52,-1886.18 5104.63,-1827.63"/>
<polygon fill="black" stroke="black" points="5108.1,-1827.05 5103.94,-1817.31 5101.12,-1827.52 5108.1,-1827.05"/>
</g>
<!-- u59 -->
<g id="node10" class="node">
<title>u59</title>
<ellipse fill="#ffbbbb" stroke="black" cx="4497.79" cy="-935" rx="110.48" ry="18"/>
<text text-anchor="middle" x="4497.79" y="-931.3" font-family="Times,serif" font-size="14.00">Language.Drasil.Mod</text>
</g>
<!-- u17 -->
<g id="node14" class="node">
<title>u17</title>
<ellipse fill="#bbffff" stroke="black" cx="4497.79" cy="-648" rx="170.87" ry="18"/>
<text text-anchor="middle" x="4497.79" y="-644.3" font-family="Times,serif" font-size="14.00">Language.Drasil.Chunk.Parameter</text>
</g>
<!-- u59&#45;&gt;u17 -->
<g id="edge93" class="edge">
<title>u59&#45;&gt;u17</title>
<path fill="none" stroke="black" d="M4497.79,-916.6C4497.79,-868.69 4497.79,-734.53 4497.79,-676.42"/>
<polygon fill="black" stroke="black" points="4501.29,-676.17 4497.79,-666.17 4494.29,-676.17 4501.29,-676.17"/>
</g>
<!-- u19 -->
<g id="node26" class="node">
<title>u19</title>
<ellipse fill="#ffbbff" stroke="black" cx="3732.79" cy="-648" rx="160.57" ry="18"/>
<text text-anchor="middle" x="3732.79" y="-644.3" font-family="Times,serif" font-size="14.00">Language.Drasil.Code.DataDesc</text>
</g>
<!-- u59&#45;&gt;u19 -->
<g id="edge94" class="edge">
<title>u59&#45;&gt;u19</title>
<path fill="none" stroke="black" d="M4455.58,-918.27C4325.44,-869.79 3930.6,-722.69 3786.32,-668.94"/>
<polygon fill="black" stroke="black" points="3787.37,-665.6 3776.78,-665.39 3784.93,-672.16 3787.37,-665.6"/>
</g>
<!-- u50 -->
<g id="node28" class="node">
<title>u50</title>
<ellipse fill="#77ff77" stroke="black" cx="1785.79" cy="-2375" rx="217.96" ry="18"/>
<text text-anchor="middle" x="1785.79" y="-2371.3" font-family="Times,serif" font-size="14.00">Language.Drasil.Code.Imperative.ReadInput</text>
</g>
<!-- u12&#45;&gt;u50 -->
<g id="edge24" class="edge">
<title>u12&#45;&gt;u50</title>
<path fill="none" stroke="black" d="M2361.06,-4092.4C1982.39,-4055.79 609.79,-3897.52 609.79,-3527 609.79,-3527 609.79,-3527 609.79,-2949 609.79,-2519.24 1252.33,-2411.74 1587.51,-2384.9"/>
<polygon fill="black" stroke="black" points="1588.13,-2388.36 1597.83,-2384.09 1587.59,-2381.38 1588.13,-2388.36"/>
</g>
<!-- u38 -->
<g id="node38" class="node">
<title>u38</title>
<ellipse fill="#77ff77" stroke="black" cx="5488.79" cy="-3814" rx="217.16" ry="18"/>
<text text-anchor="middle" x="5488.79" y="-3810.3" font-family="Times,serif" font-size="14.00">Language.Drasil.Code.Imperative.Generator</text>
</g>
<!-- u12&#45;&gt;u38 -->
<g id="edge23" class="edge">
<title>u12&#45;&gt;u38</title>
<path fill="none" stroke="black" d="M2551.28,-4092.09C2987.45,-4050.95 4807.64,-3879.25 5341.2,-3828.92"/>
<polygon fill="black" stroke="black" points="5341.64,-3832.4 5351.27,-3827.97 5340.98,-3825.43 5341.64,-3832.4"/>
</g>
<!-- u30 -->
<g id="node51" class="node">
<title>u30</title>
<ellipse fill="#77ffff" stroke="black" cx="3950.79" cy="-3526" rx="354.74" ry="18"/>
<text text-anchor="middle" x="3950.79" y="-3522.3" font-family="Times,serif" font-size="14.00">Language.Drasil.Code.Imperative.GOOL.LanguageRenderer.JuliaRenderer</text>
</g>
<!-- u12&#45;&gt;u30 -->
<g id="edge22" class="edge">
<title>u12&#45;&gt;u30</title>
<path fill="none" stroke="black" d="M2497.92,-4085.2C2707.92,-4004.52 3659.88,-3638.77 3897.12,-3547.62"/>
<polygon fill="black" stroke="black" points="3898.49,-3550.85 3906.57,-3543.99 3895.98,-3544.31 3898.49,-3550.85"/>
</g>
<!-- u29 -->
<g id="node52" class="node">
<title>u29</title>
<ellipse fill="#77ffff" stroke="black" cx="4682.79" cy="-3526" rx="358.54" ry="18"/>
<text text-anchor="middle" x="4682.79" y="-3522.3" font-family="Times,serif" font-size="14.00">Language.Drasil.Code.Imperative.GOOL.LanguageRenderer.SwiftRenderer</text>
</g>
<!-- u12&#45;&gt;u29 -->
<g id="edge21" class="edge">
<title>u12&#45;&gt;u29</title>
<path fill="none" stroke="black" d="M2513.49,-4086.38C2818.36,-4007.77 4261.9,-3635.53 4608.06,-3546.27"/>
<polygon fill="black" stroke="black" points="4609.17,-3549.6 4617.98,-3543.71 4607.42,-3542.82 4609.17,-3549.6"/>
</g>
<!-- u28 -->
<g id="node53" class="node">
<title>u28</title>
<ellipse fill="#77ffff" stroke="black" cx="991.79" cy="-3526" rx="354.44" ry="18"/>
<text text-anchor="middle" x="991.79" y="-3522.3" font-family="Times,serif" font-size="14.00">Language.Drasil.Code.Imperative.GOOL.LanguageRenderer.JavaRenderer</text>
</g>
<!-- u12&#45;&gt;u28 -->
<g id="edge20" class="edge">
<title>u12&#45;&gt;u28</title>
<path fill="none" stroke="black" d="M2416.08,-4085.05C2209.48,-4004.1 1277.7,-3639.02 1044.72,-3547.74"/>
<polygon fill="black" stroke="black" points="1045.71,-3544.36 1035.12,-3543.98 1043.15,-3550.88 1045.71,-3544.36"/>
</g>
<!-- u27 -->
<g id="node54" class="node">
<title>u27</title>
<ellipse fill="#77ffff" stroke="black" cx="1716.79" cy="-3526" rx="352.84" ry="18"/>
<text text-anchor="middle" x="1716.79" y="-3522.3" font-family="Times,serif" font-size="14.00">Language.Drasil.Code.Imperative.GOOL.LanguageRenderer.CppRenderer</text>
</g>
<!-- u12&#45;&gt;u27 -->
<g id="edge19" class="edge">
<title>u12&#45;&gt;u27</title>
<path fill="none" stroke="black" d="M2435.05,-4084.13C2329.44,-4002.21 1870.12,-3645.93 1747.16,-3550.56"/>
<polygon fill="black" stroke="black" points="1748.95,-3547.51 1738.9,-3544.15 1744.66,-3553.04 1748.95,-3547.51"/>
</g>
<!-- u26 -->
<g id="node55" class="node">
<title>u26</title>
<ellipse fill="#77ffff" stroke="black" cx="2456.79" cy="-3526" rx="369.33" ry="18"/>
<text text-anchor="middle" x="2456.79" y="-3522.3" font-family="Times,serif" font-size="14.00">Language.Drasil.Code.Imperative.GOOL.LanguageRenderer.CSharpRenderer</text>
</g>
<!-- u12&#45;&gt;u26 -->
<g id="edge18" class="edge">
<title>u12&#45;&gt;u26</title>
<path fill="none" stroke="black" d="M2456.79,-4083.82C2456.79,-4002.37 2456.79,-3654.89 2456.79,-3554.35"/>
<polygon fill="black" stroke="black" points="2460.29,-3554.11 2456.79,-3544.11 2453.29,-3554.11 2460.29,-3554.11"/>
</g>
<!-- u25 -->
<g id="node56" class="node">
<title>u25</title>
<ellipse fill="#77ffff" stroke="black" cx="3210.79" cy="-3526" rx="367.43" ry="18"/>
<text text-anchor="middle" x="3210.79" y="-3522.3" font-family="Times,serif" font-size="14.00">Language.Drasil.Code.Imperative.GOOL.LanguageRenderer.PythonRenderer</text>
</g>
<!-- u12&#45;&gt;u25 -->
<g id="edge17" class="edge">
<title>u12&#45;&gt;u25</title>
<path fill="none" stroke="black" d="M2478.95,-4084.13C2586.67,-4002.13 3055.51,-3645.22 3180.23,-3550.27"/>
<polygon fill="black" stroke="black" points="3182.43,-3552.99 3188.27,-3544.15 3178.19,-3547.42 3182.43,-3552.99"/>
</g>
<!-- u56 -->
<g id="node21" class="node">
<title>u56</title>
<ellipse fill="#ffbbff" stroke="black" cx="3993.79" cy="-1511" rx="139.98" ry="18"/>
<text text-anchor="middle" x="3993.79" y="-1507.3" font-family="Times,serif" font-size="14.00">Language.Drasil.Code.Code</text>
</g>
<!-- u9&#45;&gt;u56 -->
<g id="edge11" class="edge">
<title>u9&#45;&gt;u56</title>
<path fill="none" stroke="black" d="M4519.38,-1781.39C4423.65,-1732.32 4142.2,-1588.06 4035.47,-1533.36"/>
<polygon fill="black" stroke="black" points="4036.79,-1530.11 4026.3,-1528.66 4033.6,-1536.33 4036.79,-1530.11"/>
</g>
<!-- u10 -->
<g id="node60" class="node">
<title>u10</title>
<ellipse fill="#bbff77" stroke="black" cx="4543.79" cy="-1511" rx="172.77" ry="18"/>
<text text-anchor="middle" x="4543.79" y="-1507.3" font-family="Times,serif" font-size="14.00">Language.Drasil.Data.ODELibPckg</text>
</g>
<!-- u9&#45;&gt;u10 -->
<g id="edge10" class="edge">
<title>u9&#45;&gt;u10</title>
<path fill="none" stroke="black" d="M4551.32,-1780.97C4549.98,-1733.29 4546.21,-1598.18 4544.57,-1539.63"/>
<polygon fill="black" stroke="black" points="4548.06,-1539.2 4544.28,-1529.31 4541.06,-1539.4 4548.06,-1539.2"/>
</g>
<!-- u11 -->
<g id="node59" class="node">
<title>u11</title>
<ellipse fill="#bbff77" stroke="black" cx="5275.79" cy="-1223" rx="154.07" ry="18"/>
<text text-anchor="middle" x="5275.79" y="-1219.3" font-family="Times,serif" font-size="14.00">Language.Drasil.Data.ODEInfo</text>
</g>
<!-- u18&#45;&gt;u11 -->
<g id="edge27" class="edge">
<title>u18&#45;&gt;u11</title>
<path fill="none" stroke="black" d="M5533.83,-1780.82C5495.98,-1699.13 5334.08,-1349.77 5288.05,-1250.44"/>
<polygon fill="black" stroke="black" points="5291.1,-1248.71 5283.72,-1241.11 5284.75,-1251.66 5291.1,-1248.71"/>
</g>
<!-- u14 -->
<g id="node17" class="node">
<title>u14</title>
<ellipse fill="#bbffff" stroke="black" cx="4497.79" cy="-360" rx="145.67" ry="18"/>
<text text-anchor="middle" x="4497.79" y="-356.3" font-family="Times,serif" font-size="14.00">Language.Drasil.Chunk.Code</text>
</g>
<!-- u17&#45;&gt;u14 -->
<g id="edge26" class="edge">
<title>u17&#45;&gt;u14</title>
<path fill="none" stroke="black" d="M4497.79,-629.97C4497.79,-582.29 4497.79,-447.18 4497.79,-388.63"/>
<polygon fill="black" stroke="black" points="4501.29,-388.31 4497.79,-378.31 4494.29,-388.31 4501.29,-388.31"/>
</g>
<!-- u15 -->
<g id="node16" class="node">
<title>u15</title>
<ellipse fill="#bbffff" stroke="black" cx="4497.79" cy="-72" rx="168.17" ry="18"/>
<text text-anchor="middle" x="4497.79" y="-68.3" font-family="Times,serif" font-size="14.00">Language.Drasil.Chunk.CodeBase</text>
</g>
<!-- u14&#45;&gt;u15 -->
<g id="edge25" class="edge">
<title>u14&#45;&gt;u15</title>
<path fill="none" stroke="black" d="M4497.79,-341.97C4497.79,-294.29 4497.79,-159.18 4497.79,-100.63"/>
<polygon fill="black" stroke="black" points="4501.29,-100.31 4497.79,-90.31 4494.29,-100.31 4501.29,-100.31"/>
</g>
<!-- u13 -->
<g id="node18" class="node">
<title>u13</title>
<ellipse fill="#bbffff" stroke="black" cx="4870.79" cy="-935" rx="202.26" ry="18"/>
<text text-anchor="middle" x="4870.79" y="-931.3" font-family="Times,serif" font-size="14.00">Language.Drasil.Chunk.NamedArgument</text>
</g>
<!-- u58 -->
<g id="node19" class="node">
<title>u58</title>
<ellipse fill="#ffbbff" stroke="black" cx="5250.79" cy="-3526" rx="191.17" ry="18"/>
<text text-anchor="middle" x="5250.79" y="-3522.3" font-family="Times,serif" font-size="14.00">Language.Drasil.Code.CodeGeneration</text>
</g>
<!-- u58&#45;&gt;u56 -->
<g id="edge92" class="edge">
<title>u58&#45;&gt;u56</title>
<path fill="none" stroke="black" d="M5200.32,-3508.55C4970.99,-3430.45 4028.27,-3072.39 3792.79,-2393 3678.98,-2064.61 3912.69,-1644.8 3977.66,-1537.74"/>
<polygon fill="black" stroke="black" points="3980.67,-1539.54 3982.9,-1529.18 3974.7,-1535.88 3980.67,-1539.54"/>
</g>
<!-- u32 -->
<g id="node49" class="node">
<title>u32</title>
<ellipse fill="#ff7777" stroke="black" cx="3844.79" cy="-3238" rx="222.06" ry="18"/>
<text text-anchor="middle" x="3844.79" y="-3234.3" font-family="Times,serif" font-size="14.00">Language.Drasil.Code.Imperative.GOOL.Data</text>
</g>
<!-- u58&#45;&gt;u32 -->
<g id="edge91" class="edge">
<title>u58&#45;&gt;u32</title>
<path fill="none" stroke="black" d="M5174.2,-3509.42C4932.88,-3460.33 4189.17,-3309.05 3932.76,-3256.89"/>
<polygon fill="black" stroke="black" points="3933.25,-3253.42 3922.75,-3254.86 3931.85,-3260.28 3933.25,-3253.42"/>
</g>
<!-- u57 -->
<g id="node20" class="node">
<title>u57</title>
<ellipse fill="#ffbbff" stroke="black" cx="6412.79" cy="-2662" rx="204.16" ry="18"/>
<text text-anchor="middle" x="6412.79" y="-2658.3" font-family="Times,serif" font-size="14.00">Language.Drasil.Code.CodeQuantityDicts</text>
</g>
<!-- u55 -->
<g id="node22" class="node">
<title>u55</title>
<ellipse fill="#ffbbff" stroke="black" cx="4913.79" cy="-1511" rx="178.97" ry="18"/>
<text text-anchor="middle" x="4913.79" y="-1507.3" font-family="Times,serif" font-size="14.00">Language.Drasil.Code.ExtLibImport</text>
</g>
<!-- u54 -->
<g id="node23" class="node">
<title>u54</title>
<ellipse fill="#ffbbff" stroke="black" cx="4913.79" cy="-1223" rx="190.37" ry="18"/>
<text text-anchor="middle" x="4913.79" y="-1219.3" font-family="Times,serif" font-size="14.00">Language.Drasil.Code.ExternalLibrary</text>
</g>
<!-- u55&#45;&gt;u54 -->
<g id="edge90" class="edge">
<title>u55&#45;&gt;u54</title>
<path fill="none" stroke="black" d="M4913.79,-1492.97C4913.79,-1445.29 4913.79,-1310.18 4913.79,-1251.63"/>
<polygon fill="black" stroke="black" points="4917.29,-1251.31 4913.79,-1241.31 4910.29,-1251.31 4917.29,-1251.31"/>
</g>
<!-- u52 -->
<g id="node25" class="node">
<title>u52</title>
<ellipse fill="#ffbbff" stroke="black" cx="4497.79" cy="-1223" rx="207.96" ry="18"/>
<text text-anchor="middle" x="4497.79" y="-1219.3" font-family="Times,serif" font-size="14.00">Language.Drasil.Code.ExternalLibraryCall</text>
</g>
<!-- u55&#45;&gt;u52 -->
<g id="edge89" class="edge">
<title>u55&#45;&gt;u52</title>
<path fill="none" stroke="black" d="M4889.02,-1492.97C4817.63,-1443.89 4611.46,-1302.15 4530.75,-1246.66"/>
<polygon fill="black" stroke="black" points="4532.67,-1243.73 4522.44,-1240.94 4528.7,-1249.49 4532.67,-1243.73"/>
</g>
<!-- u54&#45;&gt;u59 -->
<g id="edge88" class="edge">
<title>u54&#45;&gt;u59</title>
<path fill="none" stroke="black" d="M4889.02,-1204.97C4817.46,-1155.77 4610.49,-1013.48 4530.18,-958.27"/>
<polygon fill="black" stroke="black" points="4532.14,-955.37 4521.92,-952.59 4528.18,-961.14 4532.14,-955.37"/>
</g>
<!-- u54&#45;&gt;u13 -->
<g id="edge87" class="edge">
<title>u54&#45;&gt;u13</title>
<path fill="none" stroke="black" d="M4911.23,-1204.97C4904.05,-1157.19 4883.67,-1021.62 4874.89,-963.27"/>
<polygon fill="black" stroke="black" points="4878.34,-962.67 4873.4,-953.31 4871.42,-963.72 4878.34,-962.67"/>
</g>
<!-- u53 -->
<g id="node24" class="node">
<title>u53</title>
<ellipse fill="#ffbbff" stroke="black" cx="4132.79" cy="-1223" rx="139.18" ry="18"/>
<text text-anchor="middle" x="4132.79" y="-1219.3" font-family="Times,serif" font-size="14.00">Language.Drasil.Code.Lang</text>
</g>
<!-- u52&#45;&gt;u59 -->
<g id="edge86" class="edge">
<title>u52&#45;&gt;u59</title>
<path fill="none" stroke="black" d="M4497.79,-1204.97C4497.79,-1157.29 4497.79,-1022.18 4497.79,-963.63"/>
<polygon fill="black" stroke="black" points="4501.29,-963.31 4497.79,-953.31 4494.29,-963.31 4501.29,-963.31"/>
</g>
<!-- u52&#45;&gt;u13 -->
<g id="edge85" class="edge">
<title>u52&#45;&gt;u13</title>
<path fill="none" stroke="black" d="M4520.01,-1204.97C4583.76,-1156.09 4767.38,-1015.29 4840.36,-959.34"/>
<polygon fill="black" stroke="black" points="4842.89,-961.81 4848.7,-952.94 4838.63,-956.25 4842.89,-961.81"/>
</g>
<!-- u19&#45;&gt;u14 -->
<g id="edge28" class="edge">
<title>u19&#45;&gt;u14</title>
<path fill="none" stroke="black" d="M3776.67,-630.6C3908.57,-581.28 4301.22,-434.49 4444.61,-380.88"/>
<polygon fill="black" stroke="black" points="4445.95,-384.12 4454.09,-377.34 4443.5,-377.56 4445.95,-384.12"/>
</g>
<!-- u51 -->
<g id="node27" class="node">
<title>u51</title>
<ellipse fill="#77ff77" stroke="black" cx="5552.79" cy="-2375" rx="222.06" ry="18"/>
<text text-anchor="middle" x="5552.79" y="-2371.3" font-family="Times,serif" font-size="14.00">Language.Drasil.Code.Imperative.DrasilState</text>
</g>
<!-- u51&#45;&gt;u60 -->
<g id="edge84" class="edge">
<title>u51&#45;&gt;u60</title>
<path fill="none" stroke="black" d="M5527.12,-2356.97C5453.07,-2307.83 5239.06,-2165.81 5155.64,-2110.46"/>
<polygon fill="black" stroke="black" points="5157.33,-2107.38 5147.06,-2104.77 5153.46,-2113.21 5157.33,-2107.38"/>
</g>
<!-- u51&#45;&gt;u55 -->
<g id="edge83" class="edge">
<title>u51&#45;&gt;u55</title>
<path fill="none" stroke="black" d="M5468.71,-2358.32C5342.55,-2330.3 5105.41,-2259.47 4976.79,-2105 4834.06,-1933.57 4886.97,-1630.63 4907.3,-1539"/>
<polygon fill="black" stroke="black" points="4910.74,-1539.65 4909.55,-1529.13 4903.91,-1538.1 4910.74,-1539.65"/>
</g>
<!-- u50&#45;&gt;u19 -->
<g id="edge82" class="edge">
<title>u50&#45;&gt;u19</title>
<path fill="none" stroke="black" d="M1835.03,-2357.41C1985.13,-2303.38 2426.79,-2117.44 2426.79,-1800 2426.79,-1800 2426.79,-1800 2426.79,-1222 2426.79,-953.6 3363.49,-728.84 3650.32,-666.31"/>
<polygon fill="black" stroke="black" points="3651.22,-669.69 3660.25,-664.15 3649.73,-662.85 3651.22,-669.69"/>
</g>
<!-- u49 -->
<g id="node29" class="node">
<title>u49</title>
<ellipse fill="#77ff77" stroke="black" cx="5507.79" cy="-3238" rx="226.66" ry="18"/>
<text text-anchor="middle" x="5507.79" y="-3234.3" font-family="Times,serif" font-size="14.00">Language.Drasil.Code.Imperative.SpaceMatch</text>
</g>
<!-- u49&#45;&gt;u51 -->
<g id="edge81" class="edge">
<title>u49&#45;&gt;u51</title>
<path fill="none" stroke="black" d="M5460.38,-3220.34C5285.43,-3156.26 4695.58,-2915.64 4879.79,-2644 4994.05,-2475.52 5232.86,-2412.96 5393.06,-2389.72"/>
<polygon fill="black" stroke="black" points="5393.6,-2393.18 5403.01,-2388.31 5392.62,-2386.25 5393.6,-2393.18"/>
</g>
<!-- u48 -->
<g id="node30" class="node">
<title>u48</title>
<ellipse fill="#77ff77" stroke="black" cx="3315.79" cy="-1511" rx="219.86" ry="18"/>
<text text-anchor="middle" x="3315.79" y="-1507.3" font-family="Times,serif" font-size="14.00">Language.Drasil.Code.Imperative.WriteInput</text>
</g>
<!-- u48&#45;&gt;u19 -->
<g id="edge80" class="edge">
<title>u48&#45;&gt;u19</title>
<path fill="none" stroke="black" d="M3324.12,-1492.8C3376.15,-1385.39 3656.26,-807.03 3719.92,-675.59"/>
<polygon fill="black" stroke="black" points="3723.24,-676.77 3724.45,-666.24 3716.94,-673.71 3723.24,-676.77"/>
</g>
<!-- u46 -->
<g id="node31" class="node">
<title>u46</title>
<ellipse fill="#77ff77" stroke="black" cx="6464.79" cy="-3238" rx="228.26" ry="18"/>
<text text-anchor="middle" x="6464.79" y="-3234.3" font-family="Times,serif" font-size="14.00">Language.Drasil.Code.Imperative.Descriptions</text>
</g>
<!-- u46&#45;&gt;u51 -->
<g id="edge78" class="edge">
<title>u46&#45;&gt;u51</title>
<path fill="none" stroke="black" d="M6480.08,-3219.91C6546.06,-3144.09 6796.46,-2833.44 6647.79,-2644 6531.82,-2496.22 5974.04,-2419.37 5702.27,-2390.18"/>
<polygon fill="black" stroke="black" points="5702.25,-2386.65 5691.93,-2389.07 5701.5,-2393.61 5702.25,-2386.65"/>
</g>
<!-- u45 -->
<g id="node32" class="node">
<title>u45</title>
<ellipse fill="#77ff77" stroke="black" cx="5985.79" cy="-3238" rx="233.16" ry="18"/>
<text text-anchor="middle" x="5985.79" y="-3234.3" font-family="Times,serif" font-size="14.00">Language.Drasil.Code.Imperative.FunctionCalls</text>
</g>
<!-- u43 -->
<g id="node34" class="node">
<title>u43</title>
<ellipse fill="#77ff77" stroke="black" cx="5552.79" cy="-2950" rx="201.46" ry="18"/>
<text text-anchor="middle" x="5552.79" y="-2946.3" font-family="Times,serif" font-size="14.00">Language.Drasil.Code.Imperative.Import</text>
</g>
<!-- u45&#45;&gt;u43 -->
<g id="edge77" class="edge">
<title>u45&#45;&gt;u43</title>
<path fill="none" stroke="black" d="M5960.01,-3219.97C5885.62,-3170.84 5670.68,-3028.86 5586.84,-2973.49"/>
<polygon fill="black" stroke="black" points="5588.72,-2970.54 5578.45,-2967.94 5584.86,-2976.38 5588.72,-2970.54"/>
</g>
<!-- u21 -->
<g id="node42" class="node">
<title>u21</title>
<ellipse fill="#77ff77" stroke="black" cx="6412.79" cy="-2950" rx="223.66" ry="18"/>
<text text-anchor="middle" x="6412.79" y="-2946.3" font-family="Times,serif" font-size="14.00">Language.Drasil.Code.Imperative.Parameters</text>
</g>
<!-- u45&#45;&gt;u21 -->
<g id="edge76" class="edge">
<title>u45&#45;&gt;u21</title>
<path fill="none" stroke="black" d="M6011.23,-3219.97C6084.5,-3170.89 6296.12,-3029.15 6378.97,-2973.66"/>
<polygon fill="black" stroke="black" points="6381.14,-2976.42 6387.5,-2967.94 6377.24,-2970.6 6381.14,-2976.42"/>
</g>
<!-- u44 -->
<g id="node33" class="node">
<title>u44</title>
<ellipse fill="#77ff77" stroke="black" cx="5522.79" cy="-2087" rx="209.86" ry="18"/>
<text text-anchor="middle" x="5522.79" y="-2083.3" font-family="Times,serif" font-size="14.00">Language.Drasil.Code.Imperative.GenODE</text>
</g>
<!-- u44&#45;&gt;u9 -->
<g id="edge73" class="edge">
<title>u44&#45;&gt;u9</title>
<path fill="none" stroke="black" d="M5467.1,-2069.6C5298.03,-2019.8 4791.4,-1870.57 4613.99,-1818.32"/>
<polygon fill="black" stroke="black" points="4614.86,-1814.93 4604.28,-1815.46 4612.89,-1821.64 4614.86,-1814.93"/>
</g>
<!-- u44&#45;&gt;u18 -->
<g id="edge74" class="edge">
<title>u44&#45;&gt;u18</title>
<path fill="none" stroke="black" d="M5523.93,-2068.97C5527.09,-2021.29 5536.07,-1886.18 5539.96,-1827.63"/>
<polygon fill="black" stroke="black" points="5543.47,-1827.52 5540.64,-1817.31 5536.49,-1827.05 5543.47,-1827.52"/>
</g>
<!-- u44&#45;&gt;u55 -->
<g id="edge75" class="edge">
<title>u44&#45;&gt;u55</title>
<path fill="none" stroke="black" d="M5513.39,-2068.93C5485.87,-2020.01 5401.27,-1876.65 5303.79,-1781 5191.47,-1670.79 5029.22,-1575.07 4954.39,-1533.73"/>
<polygon fill="black" stroke="black" points="4955.73,-1530.48 4945.28,-1528.73 4952.37,-1536.61 4955.73,-1530.48"/>
</g>
<!-- u43&#45;&gt;u57 -->
<g id="edge72" class="edge">
<title>u43&#45;&gt;u57</title>
<path fill="none" stroke="black" d="M5602.43,-2932.49C5751.16,-2883.03 6192.76,-2736.17 6353.47,-2682.73"/>
<polygon fill="black" stroke="black" points="6354.8,-2685.97 6363.19,-2679.5 6352.59,-2679.33 6354.8,-2685.97"/>
</g>
<!-- u42 -->
<g id="node35" class="node">
<title>u42</title>
<ellipse fill="#77ff77" stroke="black" cx="4554.79" cy="-2662" rx="240.46" ry="18"/>
<text text-anchor="middle" x="4554.79" y="-2658.3" font-family="Times,serif" font-size="14.00">Language.Drasil.Code.Imperative.GenerateGOOL</text>
</g>
<!-- u43&#45;&gt;u42 -->
<g id="edge71" class="edge">
<title>u43&#45;&gt;u42</title>
<path fill="none" stroke="black" d="M5495.92,-2932.7C5323.57,-2883.31 4807.59,-2735.45 4622.12,-2682.29"/>
<polygon fill="black" stroke="black" points="4623.07,-2678.92 4612.49,-2679.53 4621.14,-2685.65 4623.07,-2678.92"/>
</g>
<!-- u41 -->
<g id="node36" class="node">
<title>u41</title>
<ellipse fill="#77ff77" stroke="black" cx="5108.79" cy="-2662" rx="219.86" ry="18"/>
<text text-anchor="middle" x="5108.79" y="-2658.3" font-family="Times,serif" font-size="14.00">Language.Drasil.Code.Imperative.Comments</text>
</g>
<!-- u43&#45;&gt;u41 -->
<g id="edge70" class="edge">
<title>u43&#45;&gt;u41</title>
<path fill="none" stroke="black" d="M5526.35,-2931.97C5450.08,-2882.84 5229.67,-2740.86 5143.71,-2685.49"/>
<polygon fill="black" stroke="black" points="5145.4,-2682.42 5135.1,-2679.94 5141.61,-2688.3 5145.4,-2682.42"/>
</g>
<!-- u39 -->
<g id="node37" class="node">
<title>u39</title>
<ellipse fill="#77ff77" stroke="black" cx="5552.79" cy="-2662" rx="206.06" ry="18"/>
<text text-anchor="middle" x="5552.79" y="-2658.3" font-family="Times,serif" font-size="14.00">Language.Drasil.Code.Imperative.Helpers</text>
</g>
<!-- u43&#45;&gt;u39 -->
<g id="edge69" class="edge">
<title>u43&#45;&gt;u39</title>
<path fill="none" stroke="black" d="M5552.79,-2931.97C5552.79,-2884.29 5552.79,-2749.18 5552.79,-2690.63"/>
<polygon fill="black" stroke="black" points="5556.29,-2690.31 5552.79,-2680.31 5549.29,-2690.31 5556.29,-2690.31"/>
</g>
<!-- u35 -->
<g id="node41" class="node">
<title>u35</title>
<ellipse fill="#77ff77" stroke="black" cx="5074.79" cy="-2375" rx="237.46" ry="18"/>
<text text-anchor="middle" x="5074.79" y="-2371.3" font-family="Times,serif" font-size="14.00">Language.Drasil.Code.Imperative.ConceptMatch</text>
</g>
<!-- u43&#45;&gt;u35 -->
<g id="edge68" class="edge">
<title>u43&#45;&gt;u35</title>
<path fill="none" stroke="black" d="M5409.13,-2937.3C5249.24,-2915.73 4997.89,-2854.38 4879.79,-2680 4809.69,-2576.48 4967.09,-2449.8 5040.13,-2398.83"/>
<polygon fill="black" stroke="black" points="5042.34,-2401.55 5048.59,-2393 5038.37,-2395.79 5042.34,-2401.55"/>
</g>
<!-- u20 -->
<g id="node43" class="node">
<title>u20</title>
<ellipse fill="#77ff77" stroke="black" cx="5983.79" cy="-2662" rx="207.16" ry="18"/>
<text text-anchor="middle" x="5983.79" y="-2658.3" font-family="Times,serif" font-size="14.00">Language.Drasil.Code.Imperative.Logging</text>
</g>
<!-- u43&#45;&gt;u20 -->
<g id="edge67" class="edge">
<title>u43&#45;&gt;u20</title>
<path fill="none" stroke="black" d="M5578.46,-2931.97C5652.5,-2882.84 5866.46,-2740.86 5949.9,-2685.49"/>
<polygon fill="black" stroke="black" points="5951.86,-2688.39 5958.26,-2679.94 5947.99,-2682.56 5951.86,-2688.39"/>
</g>
<!-- u42&#45;&gt;u51 -->
<g id="edge66" class="edge">
<title>u42&#45;&gt;u51</title>
<path fill="none" stroke="black" d="M4612.77,-2644.45C4786.17,-2594.93 5300.28,-2448.11 5485.41,-2395.24"/>
<polygon fill="black" stroke="black" points="5486.63,-2398.53 5495.29,-2392.42 5484.71,-2391.8 5486.63,-2398.53"/>
</g>
<!-- u33 -->
<g id="node48" class="node">
<title>u33</title>
<ellipse fill="#ff7777" stroke="black" cx="4552.79" cy="-2375" rx="267.25" ry="18"/>
<text text-anchor="middle" x="4552.79" y="-2371.3" font-family="Times,serif" font-size="14.00">Language.Drasil.Code.Imperative.GOOL.ClassInterface</text>
</g>
<!-- u42&#45;&gt;u33 -->
<g id="edge65" class="edge">
<title>u42&#45;&gt;u33</title>
<path fill="none" stroke="black" d="M4554.67,-2643.6C4554.34,-2595.69 4553.39,-2461.53 4552.99,-2403.42"/>
<polygon fill="black" stroke="black" points="4556.49,-2403.15 4552.92,-2393.17 4549.49,-2403.2 4556.49,-2403.15"/>
</g>
<!-- u41&#45;&gt;u51 -->
<g id="edge64" class="edge">
<title>u41&#45;&gt;u51</title>
<path fill="none" stroke="black" d="M5135.24,-2644.03C5211.51,-2595.07 5431.92,-2453.59 5517.88,-2398.41"/>
<polygon fill="black" stroke="black" points="5519.96,-2401.23 5526.49,-2392.89 5516.18,-2395.34 5519.96,-2401.23"/>
</g>
<!-- u39&#45;&gt;u51 -->
<g id="edge62" class="edge">
<title>u39&#45;&gt;u51</title>
<path fill="none" stroke="black" d="M5552.79,-2643.6C5552.79,-2595.69 5552.79,-2461.53 5552.79,-2403.42"/>
<polygon fill="black" stroke="black" points="5556.29,-2403.17 5552.79,-2393.17 5549.29,-2403.17 5556.29,-2403.17"/>
</g>
<!-- u38&#45;&gt;u58 -->
<g id="edge61" class="edge">
<title>u38&#45;&gt;u58</title>
<path fill="none" stroke="black" d="M5474.62,-3795.97C5434.37,-3747.6 5319.23,-3609.23 5271.7,-3552.12"/>
<polygon fill="black" stroke="black" points="5274.28,-3549.75 5265.2,-3544.31 5268.9,-3554.23 5274.28,-3549.75"/>
</g>
<!-- u38&#45;&gt;u49 -->
<g id="edge60" class="edge">
<title>u38&#45;&gt;u49</title>
<path fill="none" stroke="black" d="M5489.36,-3795.82C5492.06,-3714.37 5503.56,-3366.89 5506.89,-3266.35"/>
<polygon fill="black" stroke="black" points="5510.4,-3266.22 5507.23,-3256.11 5503.4,-3265.99 5510.4,-3266.22"/>
</g>
<!-- u38&#45;&gt;u44 -->
<g id="edge59" class="edge">
<title>u38&#45;&gt;u44</title>
<path fill="none" stroke="black" d="M5691.89,-3807.63C6041.71,-3786.42 6720.79,-3687.48 6720.79,-3239 6720.79,-3239 6720.79,-3239 6720.79,-2661 6720.79,-2223.8 6063.45,-2119.9 5722.61,-2095.41"/>
<polygon fill="black" stroke="black" points="5722.84,-2091.92 5712.62,-2094.71 5722.35,-2098.9 5722.84,-2091.92"/>
</g>
<!-- u36 -->
<g id="node40" class="node">
<title>u36</title>
<ellipse fill="#77ff77" stroke="black" cx="5985.79" cy="-3526" rx="209.06" ry="18"/>
<text text-anchor="middle" x="5985.79" y="-3522.3" font-family="Times,serif" font-size="14.00">Language.Drasil.Code.Imperative.Modules</text>
</g>
<!-- u38&#45;&gt;u36 -->
<g id="edge58" class="edge">
<title>u38&#45;&gt;u36</title>
<path fill="none" stroke="black" d="M5518.4,-3795.97C5604.03,-3746.69 5851.99,-3604 5947.58,-3548.99"/>
<polygon fill="black" stroke="black" points="5949.43,-3551.97 5956.35,-3543.94 5945.94,-3545.9 5949.43,-3551.97"/>
</g>
<!-- u34 -->
<g id="node47" class="node">
<title>u34</title>
<ellipse fill="#ff7777" stroke="black" cx="4543.79" cy="-2950" rx="289.45" ry="18"/>
<text text-anchor="middle" x="4543.79" y="-2946.3" font-family="Times,serif" font-size="14.00">Language.Drasil.Code.Imperative.GOOL.LanguageRenderer</text>
</g>
<!-- u38&#45;&gt;u34 -->
<g id="edge57" class="edge">
<title>u38&#45;&gt;u34</title>
<path fill="none" stroke="black" d="M5492.33,-3795.79C5501.65,-3745.22 5521.58,-3595.21 5450.79,-3508 5233.7,-3240.52 4983.1,-3475.75 4717.79,-3256 4624.34,-3178.6 4571.02,-3037.17 4551.92,-2978.08"/>
<polygon fill="black" stroke="black" points="4555.2,-2976.83 4548.85,-2968.35 4548.53,-2978.94 4555.2,-2976.83"/>
</g>
<!-- u37 -->
<g id="node39" class="node">
<title>u37</title>
<ellipse fill="#77ff77" stroke="black" cx="4034.79" cy="-2375" rx="233.16" ry="18"/>
<text text-anchor="middle" x="4034.79" y="-2371.3" font-family="Times,serif" font-size="14.00">Language.Drasil.Code.Imperative.WriteReadMe</text>
</g>
<!-- u24 -->
<g id="node58" class="node">
<title>u24</title>
<ellipse fill="#33ff33" stroke="black" cx="4551.79" cy="-2087" rx="242.36" ry="18"/>
<text text-anchor="middle" x="4551.79" y="-2083.3" font-family="Times,serif" font-size="14.00">Language.Drasil.Code.Imperative.ReadMe.Import</text>
</g>
<!-- u37&#45;&gt;u24 -->
<g id="edge56" class="edge">
<title>u37&#45;&gt;u24</title>
<path fill="none" stroke="black" d="M4065.59,-2356.97C4154.76,-2307.64 4413.12,-2164.71 4512.35,-2109.82"/>
<polygon fill="black" stroke="black" points="4514.11,-2112.85 4521.16,-2104.94 4510.72,-2106.72 4514.11,-2112.85"/>
</g>
<!-- u36&#45;&gt;u46 -->
<g id="edge55" class="edge">
<title>u36&#45;&gt;u46</title>
<path fill="none" stroke="black" d="M6014.32,-3507.97C6096.77,-3458.74 6335.35,-3316.29 6427.69,-3261.16"/>
<polygon fill="black" stroke="black" points="6429.62,-3264.08 6436.42,-3255.94 6426.03,-3258.07 6429.62,-3264.08"/>
</g>
<!-- u36&#45;&gt;u45 -->
<g id="edge54" class="edge">
<title>u36&#45;&gt;u45</title>
<path fill="none" stroke="black" d="M5985.79,-3507.97C5985.79,-3460.29 5985.79,-3325.18 5985.79,-3266.63"/>
<polygon fill="black" stroke="black" points="5989.29,-3266.31 5985.79,-3256.31 5982.29,-3266.31 5989.29,-3266.31"/>
</g>
<!-- u35&#45;&gt;u9 -->
<g id="edge53" class="edge">
<title>u35&#45;&gt;u9</title>
<path fill="none" stroke="black" d="M5059.89,-2357.02C5019.09,-2310.59 4902.01,-2177.76 4802.79,-2069 4719.78,-1978 4619.4,-1871.45 4574.93,-1824.42"/>
<polygon fill="black" stroke="black" points="4577.2,-1821.73 4567.79,-1816.87 4572.12,-1826.54 4577.2,-1821.73"/>
</g>
<!-- u21&#45;&gt;u57 -->
<g id="edge31" class="edge">
<title>u21&#45;&gt;u57</title>
<path fill="none" stroke="black" d="M6412.79,-2931.97C6412.79,-2884.29 6412.79,-2749.18 6412.79,-2690.63"/>
<polygon fill="black" stroke="black" points="6416.29,-2690.31 6412.79,-2680.31 6409.29,-2690.31 6416.29,-2690.31"/>
</g>
<!-- u21&#45;&gt;u51 -->
<g id="edge30" class="edge">
<title>u21&#45;&gt;u51</title>
<path fill="none" stroke="black" d="M6441.17,-2932.02C6516.19,-2885.05 6708.48,-2749.88 6625.79,-2644 6512.14,-2498.47 5963.57,-2420.34 5697.77,-2390.48"/>
<polygon fill="black" stroke="black" points="5697.98,-2386.98 5687.66,-2389.35 5697.21,-2393.94 5697.98,-2386.98"/>
</g>
<!-- u20&#45;&gt;u51 -->
<g id="edge29" class="edge">
<title>u20&#45;&gt;u51</title>
<path fill="none" stroke="black" d="M5958.12,-2644.03C5884.09,-2595.07 5670.13,-2453.59 5586.69,-2398.41"/>
<polygon fill="black" stroke="black" points="5588.6,-2395.48 5578.33,-2392.89 5584.74,-2401.32 5588.6,-2395.48"/>
</g>
<!-- u23 -->
<g id="node44" class="node">
<title>u23</title>
<ellipse fill="#ffff77" stroke="black" cx="3505.79" cy="-2950" rx="228.56" ry="18"/>
<text text-anchor="middle" x="3505.79" y="-2946.3" font-family="Times,serif" font-size="14.00">Language.Drasil.Code.Imperative.Build.Import</text>
</g>
<!-- u22 -->
<g id="node45" class="node">
<title>u22</title>
<ellipse fill="#ffff77" stroke="black" cx="3505.79" cy="-2662" rx="215.56" ry="18"/>
<text text-anchor="middle" x="3505.79" y="-2658.3" font-family="Times,serif" font-size="14.00">Language.Drasil.Code.Imperative.Build.AST</text>
</g>
<!-- u23&#45;&gt;u22 -->
<g id="edge32" class="edge">
<title>u23&#45;&gt;u22</title>
<path fill="none" stroke="black" d="M3505.79,-2931.97C3505.79,-2884.29 3505.79,-2749.18 3505.79,-2690.63"/>
<polygon fill="black" stroke="black" points="3509.29,-2690.31 3505.79,-2680.31 3502.29,-2690.31 3509.29,-2690.31"/>
</g>
<!-- u40 -->
<g id="node46" class="node">
<title>u40</title>
<ellipse fill="#7777ff" stroke="black" cx="4046.79" cy="-2087" rx="245.06" ry="18"/>
<text text-anchor="middle" x="4046.79" y="-2083.3" font-family="Times,serif" font-size="14.00">Language.Drasil.Code.Imperative.Doxygen.Import</text>
</g>
<!-- u40&#45;&gt;u9 -->
<g id="edge63" class="edge">
<title>u40&#45;&gt;u9</title>
<path fill="none" stroke="black" d="M4076.87,-2068.97C4164.09,-2019.57 4417.03,-1876.32 4513.65,-1821.6"/>
<polygon fill="black" stroke="black" points="4515.53,-1824.56 4522.51,-1816.59 4512.08,-1818.47 4515.53,-1824.56"/>
</g>
<!-- u33&#45;&gt;u24 -->
<g id="edge52" class="edge">
<title>u33&#45;&gt;u24</title>
<path fill="none" stroke="black" d="M4552.74,-2356.97C4552.57,-2309.29 4552.1,-2174.18 4551.89,-2115.63"/>
<polygon fill="black" stroke="black" points="4555.39,-2115.29 4551.86,-2105.31 4548.39,-2115.32 4555.39,-2115.29"/>
</g>
<!-- u31 -->
<g id="node50" class="node">
<title>u31</title>
<ellipse fill="#77ffff" stroke="black" cx="3210.79" cy="-3238" rx="393.73" ry="18"/>
<text text-anchor="middle" x="3210.79" y="-3234.3" font-family="Times,serif" font-size="14.00">Language.Drasil.Code.Imperative.GOOL.LanguageRenderer.LanguagePolymorphic</text>
</g>
<!-- u31&#45;&gt;u48 -->
<g id="edge51" class="edge">
<title>u31&#45;&gt;u48</title>
<path fill="none" stroke="black" d="M3210.79,-3219.62C3210.79,-3149.78 3210.79,-2882.73 3210.79,-2663 3210.79,-2663 3210.79,-2663 3210.79,-2086 3210.79,-1872.22 3282.14,-1620.85 3307.21,-1539.13"/>
<polygon fill="black" stroke="black" points="3310.68,-1539.75 3310.3,-1529.17 3304,-1537.68 3310.68,-1539.75"/>
</g>
<!-- u31&#45;&gt;u37 -->
<g id="edge49" class="edge">
<title>u31&#45;&gt;u37</title>
<path fill="none" stroke="black" d="M3275.95,-3220.19C3386.35,-3188.58 3611.09,-3110.34 3743.79,-2968 3850.29,-2853.77 3810.34,-2783.88 3879.79,-2644 3925.29,-2552.38 3988.8,-2448.87 4018.4,-2401.78"/>
<polygon fill="black" stroke="black" points="4021.48,-2403.46 4023.85,-2393.14 4015.56,-2399.73 4021.48,-2403.46"/>
</g>
<!-- u31&#45;&gt;u23 -->
<g id="edge46" class="edge">
<title>u31&#45;&gt;u23</title>
<path fill="none" stroke="black" d="M3228.36,-3219.97C3278.46,-3171.4 3422.14,-3032.1 3480.6,-2975.42"/>
<polygon fill="black" stroke="black" points="3483.2,-2977.78 3487.94,-2968.31 3478.33,-2972.75 3483.2,-2977.78"/>
</g>
<!-- u31&#45;&gt;u40 -->
<g id="edge50" class="edge">
<title>u31&#45;&gt;u40</title>
<path fill="none" stroke="black" d="M3212.01,-3219.71C3218.59,-3127.42 3250.85,-2695.09 3280.79,-2644 3453.22,-2349.87 3849.32,-2167.29 3993.26,-2108.65"/>
<polygon fill="black" stroke="black" points="3994.82,-2111.79 4002.78,-2104.8 3992.2,-2105.3 3994.82,-2111.79"/>
</g>
<!-- u31&#45;&gt;u34 -->
<g id="edge48" class="edge">
<title>u31&#45;&gt;u34</title>
<path fill="none" stroke="black" d="M3288.71,-3220.28C3522.01,-3170.23 4213.83,-3021.79 4457.61,-2969.49"/>
<polygon fill="black" stroke="black" points="4458.44,-2972.89 4467.48,-2967.37 4456.97,-2966.05 4458.44,-2972.89"/>
</g>
<!-- u31&#45;&gt;u33 -->
<g id="edge47" class="edge">
<title>u31&#45;&gt;u33</title>
<path fill="none" stroke="black" d="M3253.39,-3220C3349.03,-3181.09 3586.89,-3080.22 3770.79,-2968 4086.07,-2775.61 4428.47,-2484.25 4525.71,-2399.75"/>
<polygon fill="black" stroke="black" points="4528.08,-2402.32 4533.32,-2393.12 4523.48,-2397.04 4528.08,-2402.32"/>
</g>
<!-- u30&#45;&gt;u32 -->
<g id="edge45" class="edge">
<title>u30&#45;&gt;u32</title>
<path fill="none" stroke="black" d="M3944.48,-3507.97C3926.74,-3460.09 3876.32,-3324.06 3854.77,-3265.9"/>
<polygon fill="black" stroke="black" points="3857.97,-3264.47 3851.21,-3256.31 3851.4,-3266.9 3857.97,-3264.47"/>
</g>
<!-- u30&#45;&gt;u31 -->
<g id="edge44" class="edge">
<title>u30&#45;&gt;u31</title>
<path fill="none" stroke="black" d="M3906.99,-3508.07C3778.74,-3458.5 3404.25,-3313.77 3264.35,-3259.7"/>
<polygon fill="black" stroke="black" points="3265.27,-3256.3 3254.69,-3255.96 3262.75,-3262.83 3265.27,-3256.3"/>
</g>
<!-- u29&#45;&gt;u32 -->
<g id="edge43" class="edge">
<title>u29&#45;&gt;u32</title>
<path fill="none" stroke="black" d="M4633.19,-3508.07C4487.32,-3458.29 4060.16,-3312.5 3903.38,-3258.99"/>
<polygon fill="black" stroke="black" points="3904.04,-3255.52 3893.45,-3255.6 3901.78,-3262.15 3904.04,-3255.52"/>
</g>
<!-- u29&#45;&gt;u31 -->
<g id="edge42" class="edge">
<title>u29&#45;&gt;u31</title>
<path fill="none" stroke="black" d="M4597.83,-3508.49C4341.38,-3458.67 3576.22,-3310 3306.33,-3257.56"/>
<polygon fill="black" stroke="black" points="3306.65,-3254.06 3296.17,-3255.59 3305.32,-3260.93 3306.65,-3254.06"/>
</g>
<!-- u28&#45;&gt;u32 -->
<g id="edge41" class="edge">
<title>u28&#45;&gt;u32</title>
<path fill="none" stroke="black" d="M1144.18,-3509.72C1641.91,-3459.83 3215.74,-3302.06 3700.95,-3253.42"/>
<polygon fill="black" stroke="black" points="3701.56,-3256.88 3711.16,-3252.4 3700.86,-3249.91 3701.56,-3256.88"/>
</g>
<!-- u28&#45;&gt;u31 -->
<g id="edge40" class="edge">
<title>u28&#45;&gt;u31</title>
<path fill="none" stroke="black" d="M1115.05,-3509.11C1499.56,-3459.56 2675.18,-3308.03 3075.59,-3256.43"/>
<polygon fill="black" stroke="black" points="3076.29,-3259.86 3085.77,-3255.11 3075.4,-3252.92 3076.29,-3259.86"/>
</g>
<!-- u27&#45;&gt;u32 -->
<g id="edge39" class="edge">
<title>u27&#45;&gt;u32</title>
<path fill="none" stroke="black" d="M1835.77,-3509.01C2208.63,-3458.9 3351.79,-3305.26 3725.33,-3255.06"/>
<polygon fill="black" stroke="black" points="3725.91,-3258.51 3735.35,-3253.71 3724.97,-3251.57 3725.91,-3258.51"/>
</g>
<!-- u27&#45;&gt;u31 -->
<g id="edge38" class="edge">
<title>u27&#45;&gt;u31</title>
<path fill="none" stroke="black" d="M1803.03,-3508.49C2063.44,-3458.64 2840.68,-3309.85 3114.24,-3257.48"/>
<polygon fill="black" stroke="black" points="3114.98,-3260.9 3124.15,-3255.59 3113.67,-3254.03 3114.98,-3260.9"/>
</g>
<!-- u26&#45;&gt;u32 -->
<g id="edge37" class="edge">
<title>u26&#45;&gt;u32</title>
<path fill="none" stroke="black" d="M2537.42,-3508.39C2780.64,-3458.27 3505.82,-3308.85 3757.56,-3256.98"/>
<polygon fill="black" stroke="black" points="3758.3,-3260.4 3767.39,-3254.95 3756.89,-3253.54 3758.3,-3260.4"/>
</g>
<!-- u26&#45;&gt;u31 -->
<g id="edge36" class="edge">
<title>u26&#45;&gt;u31</title>
<path fill="none" stroke="black" d="M2501.42,-3508.07C2632.24,-3458.45 3014.44,-3313.48 3156.66,-3259.54"/>
<polygon fill="black" stroke="black" points="3157.96,-3262.78 3166.07,-3255.96 3155.48,-3256.24 3157.96,-3262.78"/>
</g>
<!-- u25&#45;&gt;u32 -->
<g id="edge35" class="edge">
<title>u25&#45;&gt;u32</title>
<path fill="none" stroke="black" d="M3248.56,-3507.97C3358.48,-3458.38 3678.05,-3314.22 3798.31,-3259.97"/>
<polygon fill="black" stroke="black" points="3799.95,-3263.07 3807.63,-3255.77 3797.07,-3256.69 3799.95,-3263.07"/>
</g>
<!-- u25&#45;&gt;u31 -->
<g id="edge34" class="edge">
<title>u25&#45;&gt;u31</title>
<path fill="none" stroke="black" d="M3210.79,-3507.97C3210.79,-3460.29 3210.79,-3325.18 3210.79,-3266.63"/>
<polygon fill="black" stroke="black" points="3214.29,-3266.31 3210.79,-3256.31 3207.29,-3266.31 3214.29,-3266.31"/>
</g>
<!-- u47 -->
<g id="node57" class="node">
<title>u47</title>
<ellipse fill="#ff77ff" stroke="black" cx="4994.79" cy="-3238" rx="267.55" ry="18"/>
<text text-anchor="middle" x="4994.79" y="-3234.3" font-family="Times,serif" font-size="14.00">Language.Drasil.Code.Imperative.Parsers.ConfigParser</text>
</g>
<!-- u47&#45;&gt;u34 -->
<g id="edge79" class="edge">
<title>u47&#45;&gt;u34</title>
<path fill="none" stroke="black" d="M4967.93,-3219.97C4890.38,-3170.79 4666.12,-3028.57 4579,-2973.32"/>
<polygon fill="black" stroke="black" points="4580.83,-2970.34 4570.52,-2967.94 4577.09,-2976.26 4580.83,-2970.34"/>
</g>
<!-- u24&#45;&gt;u9 -->
<g id="edge33" class="edge">
<title>u24&#45;&gt;u9</title>
<path fill="none" stroke="black" d="M4551.79,-2068.97C4551.79,-2021.29 4551.79,-1886.18 4551.79,-1827.63"/>
<polygon fill="black" stroke="black" points="4555.29,-1827.31 4551.79,-1817.31 4548.29,-1827.31 4555.29,-1827.31"/>
</g>
<!-- u11&#45;&gt;u14 -->
<g id="edge16" class="edge">
<title>u11&#45;&gt;u14</title>
<path fill="none" stroke="black" d="M5266.82,-1204.83C5241.32,-1156.82 5164.9,-1018.06 5081.79,-917 4893.17,-687.64 4616.16,-456.63 4526.75,-384.18"/>
<polygon fill="black" stroke="black" points="4528.91,-381.43 4518.94,-377.87 4524.51,-386.87 4528.91,-381.43"/>
</g>
<!-- u10&#45;&gt;u54 -->
<g id="edge15" class="edge">
<title>u10&#45;&gt;u54</title>
<path fill="none" stroke="black" d="M4565.83,-1492.97C4629.07,-1444.09 4811.21,-1303.29 4883.6,-1247.34"/>
<polygon fill="black" stroke="black" points="4886.1,-1249.83 4891.87,-1240.94 4881.82,-1244.29 4886.1,-1249.83"/>
</g>
<!-- u10&#45;&gt;u53 -->
<g id="edge14" class="edge">
<title>u10&#45;&gt;u53</title>
<path fill="none" stroke="black" d="M4519.32,-1492.97C4448.84,-1443.93 4245.44,-1302.39 4165.56,-1246.8"/>
<polygon fill="black" stroke="black" points="4167.09,-1243.6 4156.89,-1240.77 4163.1,-1249.35 4167.09,-1243.6"/>
</g>
<!-- u10&#45;&gt;u52 -->
<g id="edge13" class="edge">
<title>u10&#45;&gt;u52</title>
<path fill="none" stroke="black" d="M4541.05,-1492.97C4533.37,-1445.19 4511.57,-1309.62 4502.18,-1251.27"/>
<polygon fill="black" stroke="black" points="4505.62,-1250.62 4500.58,-1241.31 4498.71,-1251.74 4505.62,-1250.62"/>
</g>
<!-- u10&#45;&gt;u11 -->
<g id="edge12" class="edge">
<title>u10&#45;&gt;u11</title>
<path fill="none" stroke="black" d="M4586.05,-1493.49C4712.26,-1444.18 5086.27,-1298.05 5224.06,-1244.21"/>
<polygon fill="black" stroke="black" points="5225.53,-1247.4 5233.57,-1240.5 5222.98,-1240.88 5225.53,-1247.4"/>
</g>
<!-- u7 -->
<g id="node61" class="node">
<title>u7</title>
<ellipse fill="#3333ff" stroke="black" cx="496.79" cy="-4389" rx="108.58" ry="18"/>
<text text-anchor="middle" x="496.79" y="-4385.3" font-family="Times,serif" font-size="14.00">drasil&#45;code.test.Main</text>
</g>
<!-- u7&#45;&gt;u6 -->
<g id="edge7" class="edge">
<title>u7&#45;&gt;u6</title>
<path fill="none" stroke="black" d="M492.28,-4370.6C479.81,-4322.59 444.86,-4187.97 429.82,-4130.06"/>
<polygon fill="black" stroke="black" points="433.15,-4128.97 427.25,-4120.17 426.38,-4130.73 433.15,-4128.97"/>
</g>
<!-- u7&#45;&gt;u4 -->
<g id="edge6" class="edge">
<title>u7&#45;&gt;u4</title>
<path fill="none" stroke="black" d="M501.25,-4370.6C513.55,-4322.59 548.03,-4187.97 562.86,-4130.06"/>
<polygon fill="black" stroke="black" points="566.31,-4130.73 565.4,-4120.17 559.52,-4128.99 566.31,-4130.73"/>
</g>
<!-- u7&#45;&gt;u3 -->
<g id="edge5" class="edge">
<title>u7&#45;&gt;u3</title>
<path fill="none" stroke="black" d="M509.06,-4371.03C543.84,-4322.91 643.22,-4185.43 684.48,-4128.33"/>
<polygon fill="black" stroke="black" points="687.57,-4130.04 690.59,-4119.89 681.9,-4125.94 687.57,-4130.04"/>
</g>
<!-- u7&#45;&gt;u0 -->
<g id="edge3" class="edge">
<title>u7&#45;&gt;u0</title>
<path fill="none" stroke="black" d="M471.41,-4371.45C396.36,-4322.5 175.58,-4178.51 92.19,-4124.12"/>
<polygon fill="black" stroke="black" points="93.92,-4121.08 83.63,-4118.55 90.09,-4126.94 93.92,-4121.08"/>
</g>
<!-- u7&#45;&gt;u2 -->
<g id="edge4" class="edge">
<title>u7&#45;&gt;u2</title>
<path fill="none" stroke="black" d="M481.07,-4371.03C436.23,-4322.61 307.57,-4183.72 255.29,-4127.28"/>
<polygon fill="black" stroke="black" points="257.8,-4124.84 248.44,-4119.89 252.66,-4129.6 257.8,-4124.84"/>
</g>
<!-- u7&#45;&gt;u12 -->
<g id="edge8" class="edge">
<title>u7&#45;&gt;u12</title>
<path fill="none" stroke="black" d="M575.45,-4376.56C887.13,-4331.24 2034.66,-4164.38 2366.41,-4116.14"/>
<polygon fill="black" stroke="black" points="2367.07,-4119.58 2376.46,-4114.68 2366.06,-4112.66 2367.07,-4119.58"/>
</g>
</g>
</svg>
