<?xml version="1.0" encoding="UTF-8" standalone="no"?>
<!DOCTYPE svg PUBLIC "-//W3C//DTD SVG 1.1//EN"
 "http://www.w3.org/Graphics/SVG/1.1/DTD/svg11.dtd">
<!-- Generated by graphviz version 2.43.0 (0)
 -->
<!-- Title: G Pages: 1 -->
<svg width="431pt" height="288pt"
 viewBox="0.00 0.00 430.53 288.00" xmlns="http://www.w3.org/2000/svg" xmlns:xlink="http://www.w3.org/1999/xlink">
<g id="graph0" class="graph" transform="scale(0.45 0.45) rotate(0) translate(4 640)">
<title>G</title>
<polygon fill="white" stroke="transparent" points="-4,4 -4,-640 958.72,-640 958.72,4 -4,4"/>
<!-- u4 -->
<g id="node1" class="node">
<title>u4</title>
<ellipse fill="#bbffbb" stroke="black" cx="414.34" cy="-572" rx="85.59" ry="18"/>
<text text-anchor="middle" x="414.34" y="-568.3" font-family="Times,serif" font-size="14.00">Drasil.Metadata</text>
</g>
<!-- u3 -->
<g id="node2" class="node">
<title>u3</title>
<ellipse fill="#ffffbb" stroke="black" cx="116.34" cy="-318" rx="116.18" ry="18"/>
<text text-anchor="middle" x="116.34" y="-314.3" font-family="Times,serif" font-size="14.00">Drasil.Metadata.Drasil</text>
</g>
<!-- u4&#45;&gt;u3 -->
<g id="edge4" class="edge">
<title>u4&#45;&gt;u3</title>
<path fill="none" stroke="black" d="M394.79,-554.47C343.34,-510.96 204.06,-393.18 144.25,-342.6"/>
<polygon fill="black" stroke="black" points="146.25,-339.71 136.36,-335.93 141.73,-345.06 146.25,-339.71"/>
</g>
<!-- u1 -->
<g id="node4" class="node">
<title>u1</title>
<ellipse fill="#ffffbb" stroke="black" cx="414.34" cy="-318" rx="163.57" ry="18"/>
<text text-anchor="middle" x="414.34" y="-314.3" font-family="Times,serif" font-size="14.00">Drasil.Metadata.TheoryConcepts</text>
</g>
<!-- u4&#45;&gt;u1 -->
<g id="edge3" class="edge">
<title>u4&#45;&gt;u1</title>
<path fill="none" stroke="black" d="M414.34,-553.68C414.34,-510.6 414.34,-398.33 414.34,-346.26"/>
<polygon fill="black" stroke="black" points="417.84,-346.11 414.34,-336.11 410.84,-346.11 417.84,-346.11"/>
</g>
<!-- u0 -->
<g id="node5" class="node">
<title>u0</title>
<ellipse fill="#ffffbb" stroke="black" cx="775.34" cy="-318" rx="179.27" ry="18"/>
<text text-anchor="middle" x="775.34" y="-314.3" font-family="Times,serif" font-size="14.00">Drasil.Metadata.SupportedSoftware</text>
</g>
<!-- u4&#45;&gt;u0 -->
<g id="edge2" class="edge">
<title>u4&#45;&gt;u0</title>
<path fill="none" stroke="black" d="M437.75,-554.66C500.21,-511.06 670.93,-391.89 742.78,-341.73"/>
<polygon fill="black" stroke="black" points="744.84,-344.56 751.04,-335.96 740.84,-338.82 744.84,-344.56"/>
</g>
<!-- u2 -->
<g id="node3" class="node">
<title>u2</title>
<ellipse fill="#ffffbb" stroke="black" cx="414.34" cy="-64" rx="129.18" ry="18"/>
<text text-anchor="middle" x="414.34" y="-60.3" font-family="Times,serif" font-size="14.00">Drasil.Metadata.Domains</text>
</g>
<!-- u1&#45;&gt;u2 -->
<g id="edge1" class="edge">
<title>u1&#45;&gt;u2</title>
<path fill="none" stroke="black" d="M414.34,-299.68C414.34,-256.6 414.34,-144.33 414.34,-92.26"/>
<polygon fill="black" stroke="black" points="417.84,-92.11 414.34,-82.11 410.84,-92.11 417.84,-92.11"/>
</g>
</g>
</svg>
