<?xml version="1.0" encoding="UTF-8" standalone="no"?>
<!DOCTYPE svg PUBLIC "-//W3C//DTD SVG 1.1//EN"
 "http://www.w3.org/Graphics/SVG/1.1/DTD/svg11.dtd">
<!-- Generated by graphviz version 2.43.0 (0)
 -->
<!-- Title: G Pages: 1 -->
<svg width="432pt" height="288pt"
 viewBox="0.00 0.00 431.65 288.00" xmlns="http://www.w3.org/2000/svg" xmlns:xlink="http://www.w3.org/1999/xlink">
<g id="graph0" class="graph" transform="scale(0.09 0.09) rotate(0) translate(4 3199.33)">
<title>G</title>
<polygon fill="white" stroke="transparent" points="-4,4 -4,-3199.33 4797.12,-3199.33 4797.12,4 -4,4"/>
<!-- u31 -->
<g id="node1" class="node">
<title>u31</title>
<ellipse fill="#bbffbb" stroke="black" cx="3377.49" cy="-2439" rx="133.78" ry="18"/>
<text text-anchor="middle" x="3377.49" y="-2435.3" font-family="Times,serif" font-size="14.00">Drasil.DocumentLanguage</text>
</g>
<!-- u21 -->
<g id="node2" class="node">
<title>u21</title>
<ellipse fill="#bbffbb" stroke="black" cx="3920.49" cy="-2102" rx="79.09" ry="18"/>
<text text-anchor="middle" x="3920.49" y="-2098.3" font-family="Times,serif" font-size="14.00">Drasil.DocDecl</text>
</g>
<!-- u31&#45;&gt;u21 -->
<g id="edge62" class="edge">
<title>u31&#45;&gt;u21</title>
<path fill="none" stroke="black" d="M3404.79,-2421.16C3495.28,-2365.33 3785.37,-2186.36 3885.84,-2124.37"/>
<polygon fill="black" stroke="black" points="3887.74,-2127.32 3894.41,-2119.09 3884.06,-2121.36 3887.74,-2127.32"/>
</g>
<!-- u20 -->
<g id="node3" class="node">
<title>u20</title>
<ellipse fill="#bbffbb" stroke="black" cx="3695.49" cy="-2102" rx="92.08" ry="18"/>
<text text-anchor="middle" x="3695.49" y="-2098.3" font-family="Times,serif" font-size="14.00">Drasil.TraceTable</text>
</g>
<!-- u31&#45;&gt;u20 -->
<g id="edge61" class="edge">
<title>u31&#45;&gt;u20</title>
<path fill="none" stroke="black" d="M3393.69,-2420.93C3446.11,-2365.71 3611.2,-2191.79 3672.38,-2127.34"/>
<polygon fill="black" stroke="black" points="3674.97,-2129.7 3679.31,-2120.04 3669.89,-2124.88 3674.97,-2129.7"/>
</g>
<!-- u0 -->
<g id="node7" class="node">
<title>u0</title>
<ellipse fill="#bbffbb" stroke="black" cx="3283.49" cy="-2102" rx="116.18" ry="18"/>
<text text-anchor="middle" x="3283.49" y="-2098.3" font-family="Times,serif" font-size="14.00">Drasil.ExtractDocDesc</text>
</g>
<!-- u31&#45;&gt;u0 -->
<g id="edge55" class="edge">
<title>u31&#45;&gt;u0</title>
<path fill="none" stroke="black" d="M3372.7,-2420.93C3357.39,-2366.38 3309.59,-2196.01 3290.99,-2129.75"/>
<polygon fill="black" stroke="black" points="3294.34,-2128.72 3288.27,-2120.04 3287.6,-2130.61 3294.34,-2128.72"/>
</g>
<!-- u1 -->
<g id="node10" class="node">
<title>u1</title>
<ellipse fill="#ffffbb" stroke="black" cx="1816.49" cy="-2102" rx="136.48" ry="18"/>
<text text-anchor="middle" x="1816.49" y="-2098.3" font-family="Times,serif" font-size="14.00">Drasil.DocLang.References</text>
</g>
<!-- u31&#45;&gt;u1 -->
<g id="edge56" class="edge">
<title>u31&#45;&gt;u1</title>
<path fill="none" stroke="black" d="M3309.66,-2423.44C3056.25,-2369.06 2165.73,-2177.95 1895.09,-2119.87"/>
<polygon fill="black" stroke="black" points="1895.47,-2116.37 1884.96,-2117.69 1894,-2123.22 1895.47,-2116.37"/>
</g>
<!-- u29 -->
<g id="node13" class="node">
<title>u29</title>
<ellipse fill="#ffbbbb" stroke="black" cx="2651.49" cy="-2102" rx="220.96" ry="18"/>
<text text-anchor="middle" x="2651.49" y="-2098.3" font-family="Times,serif" font-size="14.00">Drasil.DocumentLanguage.TraceabilityGraph</text>
</g>
<!-- u31&#45;&gt;u29 -->
<g id="edge63" class="edge">
<title>u31&#45;&gt;u29</title>
<path fill="none" stroke="black" d="M3341.98,-2421.62C3222.02,-2366.26 2831.8,-2186.2 2697.44,-2124.2"/>
<polygon fill="black" stroke="black" points="2698.76,-2120.96 2688.22,-2119.95 2695.83,-2127.32 2698.76,-2120.96"/>
</g>
<!-- u14 -->
<g id="node24" class="node">
<title>u14</title>
<ellipse fill="#ffbbff" stroke="black" cx="2741.49" cy="-1766" rx="141.88" ry="18"/>
<text text-anchor="middle" x="2741.49" y="-1762.3" font-family="Times,serif" font-size="14.00">Drasil.Sections.Introduction</text>
</g>
<!-- u31&#45;&gt;u14 -->
<g id="edge60" class="edge">
<title>u31&#45;&gt;u14</title>
<path fill="none" stroke="black" d="M3361.45,-2421.08C3275.27,-2330.16 2867.35,-1899.79 2764.88,-1791.68"/>
<polygon fill="black" stroke="black" points="2767.19,-1789.03 2757.77,-1784.18 2762.11,-1793.85 2767.19,-1789.03"/>
</g>
<!-- u13 -->
<g id="node25" class="node">
<title>u13</title>
<ellipse fill="#ffbbff" stroke="black" cx="3472.49" cy="-1766" rx="161.37" ry="18"/>
<text text-anchor="middle" x="3472.49" y="-1762.3" font-family="Times,serif" font-size="14.00">Drasil.Sections.TableOfContents</text>
</g>
<!-- u31&#45;&gt;u13 -->
<g id="edge59" class="edge">
<title>u31&#45;&gt;u13</title>
<path fill="none" stroke="black" d="M3379.93,-2420.74C3392.8,-2329.82 3452.75,-1906.38 3468.62,-1794.29"/>
<polygon fill="black" stroke="black" points="3472.12,-1794.54 3470.06,-1784.15 3465.19,-1793.56 3472.12,-1794.54"/>
</g>
<!-- u9 -->
<g id="node29" class="node">
<title>u9</title>
<ellipse fill="#ffbbff" stroke="black" cx="842.49" cy="-1766" rx="163.27" ry="18"/>
<text text-anchor="middle" x="842.49" y="-1762.3" font-family="Times,serif" font-size="14.00">Drasil.Sections.GeneralSystDesc</text>
</g>
<!-- u31&#45;&gt;u9 -->
<g id="edge58" class="edge">
<title>u31&#45;&gt;u9</title>
<path fill="none" stroke="black" d="M3277.12,-2427.06C3010.94,-2396.38 2266.68,-2299.84 1671.49,-2120 1358.03,-2025.29 1002.9,-1849.44 883.84,-1788.47"/>
<polygon fill="black" stroke="black" points="885.19,-1785.23 874.69,-1783.78 881.99,-1791.46 885.19,-1785.23"/>
</g>
<!-- u8 -->
<g id="node30" class="node">
<title>u8</title>
<ellipse fill="#ffbbff" stroke="black" cx="3796.49" cy="-1766" rx="144.87" ry="18"/>
<text text-anchor="middle" x="3796.49" y="-1762.3" font-family="Times,serif" font-size="14.00">Drasil.Sections.Stakeholders</text>
</g>
<!-- u31&#45;&gt;u8 -->
<g id="edge57" class="edge">
<title>u31&#45;&gt;u8</title>
<path fill="none" stroke="black" d="M3387.77,-2420.99C3418.73,-2369.83 3513.87,-2212.98 3594.49,-2084 3662.5,-1975.19 3745.2,-1846.52 3779.9,-1792.69"/>
<polygon fill="black" stroke="black" points="3782.95,-1794.42 3785.43,-1784.11 3777.07,-1790.62 3782.95,-1794.42"/>
</g>
<!-- u30 -->
<g id="node12" class="node">
<title>u30</title>
<ellipse fill="#ffbbbb" stroke="black" cx="3180.49" cy="-1429" rx="159.47" ry="18"/>
<text text-anchor="middle" x="3180.49" y="-1425.3" font-family="Times,serif" font-size="14.00">Drasil.DocumentLanguage.Core</text>
</g>
<!-- u21&#45;&gt;u30 -->
<g id="edge42" class="edge">
<title>u21&#45;&gt;u30</title>
<path fill="none" stroke="black" d="M3930.36,-2084.1C3960.59,-2029.89 4045.51,-1857.54 3971.49,-1748 3825.62,-1532.15 3506.42,-1462.79 3321.18,-1440.52"/>
<polygon fill="black" stroke="black" points="3321.43,-1437.02 3311.09,-1439.34 3320.62,-1443.98 3321.43,-1437.02"/>
</g>
<!-- u20&#45;&gt;u30 -->
<g id="edge41" class="edge">
<title>u20&#45;&gt;u30</title>
<path fill="none" stroke="black" d="M3723.98,-2084.76C3807.34,-2035.15 4039.39,-1880.9 3950.49,-1748 3808.42,-1535.63 3495.75,-1464.93 3315.59,-1441.5"/>
<polygon fill="black" stroke="black" points="3315.87,-1438.01 3305.51,-1440.23 3314.99,-1444.96 3315.87,-1438.01"/>
</g>
<!-- u19 -->
<g id="node4" class="node">
<title>u19</title>
<ellipse fill="#bbffbb" stroke="black" cx="3154.49" cy="-420" rx="92.88" ry="18"/>
<text text-anchor="middle" x="3154.49" y="-416.3" font-family="Times,serif" font-size="14.00">Drasil.GetChunks</text>
</g>
<!-- u5 -->
<g id="node5" class="node">
<title>u5</title>
<ellipse fill="#bbffbb" stroke="black" cx="3722.49" cy="-3111" rx="108.58" ry="18"/>
<text text-anchor="middle" x="3722.49" y="-3107.3" font-family="Times,serif" font-size="14.00">Drasil.SRSDocument</text>
</g>
<!-- u4 -->
<g id="node6" class="node">
<title>u4</title>
<ellipse fill="#bbffbb" stroke="black" cx="3722.49" cy="-2775" rx="81.79" ry="18"/>
<text text-anchor="middle" x="3722.49" y="-2771.3" font-family="Times,serif" font-size="14.00">Drasil.DocLang</text>
</g>
<!-- u5&#45;&gt;u4 -->
<g id="edge12" class="edge">
<title>u5&#45;&gt;u4</title>
<path fill="none" stroke="black" d="M3722.49,-3092.98C3722.49,-3038.83 3722.49,-2870.22 3722.49,-2803.54"/>
<polygon fill="black" stroke="black" points="3725.99,-2803.39 3722.49,-2793.39 3718.99,-2803.39 3725.99,-2803.39"/>
</g>
<!-- u4&#45;&gt;u31 -->
<g id="edge11" class="edge">
<title>u4&#45;&gt;u31</title>
<path fill="none" stroke="black" d="M3704.9,-2756.98C3648.03,-2701.92 3468.93,-2528.52 3402.55,-2464.27"/>
<polygon fill="black" stroke="black" points="3404.65,-2461.43 3395.03,-2456.99 3399.78,-2466.46 3404.65,-2461.43"/>
</g>
<!-- u25 -->
<g id="node17" class="node">
<title>u25</title>
<ellipse fill="#bbffff" stroke="black" cx="4123.49" cy="-2439" rx="276.75" ry="18"/>
<text text-anchor="middle" x="4123.49" y="-2435.3" font-family="Times,serif" font-size="14.00">Drasil.DocumentLanguage.Notebook.DocumentLanguage</text>
</g>
<!-- u4&#45;&gt;u25 -->
<g id="edge10" class="edge">
<title>u4&#45;&gt;u25</title>
<path fill="none" stroke="black" d="M3742.37,-2757.44C3808.09,-2702.7 4018.47,-2527.47 4095.17,-2463.59"/>
<polygon fill="black" stroke="black" points="4097.56,-2466.15 4103,-2457.06 4093.08,-2460.77 4097.56,-2466.15"/>
</g>
<!-- u0&#45;&gt;u30 -->
<g id="edge2" class="edge">
<title>u0&#45;&gt;u30</title>
<path fill="none" stroke="black" d="M3283.8,-2083.97C3284.47,-2032.78 3284.61,-1875.93 3264.49,-1748 3247.19,-1638.04 3207.53,-1511.15 3189.59,-1456.88"/>
<polygon fill="black" stroke="black" points="3192.89,-1455.7 3186.41,-1447.31 3186.25,-1457.91 3192.89,-1455.7"/>
</g>
<!-- u18 -->
<g id="node20" class="node">
<title>u18</title>
<ellipse fill="#ffbbff" stroke="black" cx="2027.49" cy="-1766" rx="207.96" ry="18"/>
<text text-anchor="middle" x="2027.49" y="-1762.3" font-family="Times,serif" font-size="14.00">Drasil.Sections.SpecificSystemDescription</text>
</g>
<!-- u0&#45;&gt;u18 -->
<g id="edge1" class="edge">
<title>u0&#45;&gt;u18</title>
<path fill="none" stroke="black" d="M3227.49,-2086.11C3024.03,-2032 2324.06,-1845.87 2098.29,-1785.83"/>
<polygon fill="black" stroke="black" points="2099.1,-1782.42 2088.54,-1783.23 2097.3,-1789.19 2099.1,-1782.42"/>
</g>
<!-- u3 -->
<g id="node8" class="node">
<title>u3</title>
<ellipse fill="#ffffbb" stroke="black" cx="4202.49" cy="-2102" rx="129.18" ry="18"/>
<text text-anchor="middle" x="4202.49" y="-2098.3" font-family="Times,serif" font-size="14.00">Drasil.DocLang.Notebook</text>
</g>
<!-- u2 -->
<g id="node9" class="node">
<title>u2</title>
<ellipse fill="#ffffbb" stroke="black" cx="2381.49" cy="-1429" rx="104.78" ry="18"/>
<text text-anchor="middle" x="2381.49" y="-1425.3" font-family="Times,serif" font-size="14.00">Drasil.DocLang.SRS</text>
</g>
<!-- u1&#45;&gt;u18 -->
<g id="edge9" class="edge">
<title>u1&#45;&gt;u18</title>
<path fill="none" stroke="black" d="M1827.24,-2083.98C1861.81,-2029.26 1970.23,-1857.63 2011.41,-1792.46"/>
<polygon fill="black" stroke="black" points="2014.37,-1794.31 2016.75,-1783.99 2008.45,-1790.57 2014.37,-1794.31"/>
</g>
<!-- u17 -->
<g id="node21" class="node">
<title>u17</title>
<ellipse fill="#ffbbff" stroke="black" cx="149.49" cy="-1766" rx="149.47" ry="18"/>
<text text-anchor="middle" x="149.49" y="-1762.3" font-family="Times,serif" font-size="14.00">Drasil.Sections.Requirements</text>
</g>
<!-- u1&#45;&gt;u17 -->
<g id="edge8" class="edge">
<title>u1&#45;&gt;u17</title>
<path fill="none" stroke="black" d="M1744.86,-2086.65C1475.25,-2032.63 522.23,-1841.68 233.2,-1783.77"/>
<polygon fill="black" stroke="black" points="233.69,-1780.3 223.2,-1781.77 232.32,-1787.17 233.69,-1780.3"/>
</g>
<!-- u16 -->
<g id="node22" class="node">
<title>u16</title>
<ellipse fill="#ffbbff" stroke="black" cx="1225.49" cy="-1766" rx="201.46" ry="18"/>
<text text-anchor="middle" x="1225.49" y="-1762.3" font-family="Times,serif" font-size="14.00">Drasil.Sections.TableOfAbbAndAcronyms</text>
</g>
<!-- u1&#45;&gt;u16 -->
<g id="edge7" class="edge">
<title>u1&#45;&gt;u16</title>
<path fill="none" stroke="black" d="M1786.77,-2084.21C1688.53,-2028.69 1374.19,-1851.04 1264.05,-1788.8"/>
<polygon fill="black" stroke="black" points="1265.69,-1785.7 1255.26,-1783.83 1262.24,-1791.79 1265.69,-1785.7"/>
</g>
<!-- u15 -->
<g id="node23" class="node">
<title>u15</title>
<ellipse fill="#ffbbff" stroke="black" cx="489.49" cy="-1766" rx="172.47" ry="18"/>
<text text-anchor="middle" x="489.49" y="-1762.3" font-family="Times,serif" font-size="14.00">Drasil.Sections.AuxiliaryConstants</text>
</g>
<!-- u1&#45;&gt;u15 -->
<g id="edge6" class="edge">
<title>u1&#45;&gt;u15</title>
<path fill="none" stroke="black" d="M1756.02,-2085.78C1538.71,-2031.08 797.72,-1844.58 562.07,-1785.27"/>
<polygon fill="black" stroke="black" points="562.78,-1781.84 552.23,-1782.79 561.07,-1788.63 562.78,-1781.84"/>
</g>
<!-- u12 -->
<g id="node26" class="node">
<title>u12</title>
<ellipse fill="#ffbbff" stroke="black" cx="1604.49" cy="-1766" rx="159.47" ry="18"/>
<text text-anchor="middle" x="1604.49" y="-1762.3" font-family="Times,serif" font-size="14.00">Drasil.Sections.TableOfSymbols</text>
</g>
<!-- u1&#45;&gt;u12 -->
<g id="edge5" class="edge">
<title>u1&#45;&gt;u12</title>
<path fill="none" stroke="black" d="M1805.68,-2083.98C1770.95,-2029.26 1662.02,-1857.63 1620.64,-1792.46"/>
<polygon fill="black" stroke="black" points="1623.58,-1790.56 1615.27,-1783.99 1617.67,-1794.31 1623.58,-1790.56"/>
</g>
<!-- u11 -->
<g id="node27" class="node">
<title>u11</title>
<ellipse fill="#ffbbff" stroke="black" cx="2398.49" cy="-1766" rx="144.87" ry="18"/>
<text text-anchor="middle" x="2398.49" y="-1762.3" font-family="Times,serif" font-size="14.00">Drasil.Sections.TableOfUnits</text>
</g>
<!-- u1&#45;&gt;u11 -->
<g id="edge4" class="edge">
<title>u1&#45;&gt;u11</title>
<path fill="none" stroke="black" d="M1845.75,-2084.21C1942.39,-2028.74 2251.42,-1851.4 2360.18,-1788.98"/>
<polygon fill="black" stroke="black" points="2362.24,-1791.84 2369.17,-1783.83 2358.75,-1785.77 2362.24,-1791.84"/>
</g>
<!-- u7 -->
<g id="node31" class="node">
<title>u7</title>
<ellipse fill="#ffbbff" stroke="black" cx="3078.49" cy="-1766" rx="177.37" ry="18"/>
<text text-anchor="middle" x="3078.49" y="-1762.3" font-family="Times,serif" font-size="14.00">Drasil.Sections.TraceabilityMandGs</text>
</g>
<!-- u1&#45;&gt;u7 -->
<g id="edge3" class="edge">
<title>u1&#45;&gt;u7</title>
<path fill="none" stroke="black" d="M1874.41,-2085.67C2081.28,-2030.92 2783.34,-1845.11 3008.43,-1785.54"/>
<polygon fill="black" stroke="black" points="3009.37,-1788.91 3018.15,-1782.97 3007.58,-1782.14 3009.37,-1788.91"/>
</g>
<!-- u6 -->
<g id="node11" class="node">
<title>u6</title>
<ellipse fill="#bbbbff" stroke="black" cx="842.49" cy="-420" rx="133.78" ry="18"/>
<text text-anchor="middle" x="842.49" y="-416.3" font-family="Times,serif" font-size="14.00">Drasil.Document.Contents</text>
</g>
<!-- u22 -->
<g id="node32" class="node">
<title>u22</title>
<ellipse fill="#77ff77" stroke="black" cx="495.49" cy="-84" rx="146.77" ry="18"/>
<text text-anchor="middle" x="495.49" y="-80.3" font-family="Times,serif" font-size="14.00">Drasil.Sentence.Combinators</text>
</g>
<!-- u6&#45;&gt;u22 -->
<g id="edge13" class="edge">
<title>u6&#45;&gt;u22</title>
<path fill="none" stroke="black" d="M824.8,-401.98C767.6,-346.92 587.46,-173.52 520.7,-109.27"/>
<polygon fill="black" stroke="black" points="522.77,-106.4 513.14,-101.99 517.91,-111.44 522.77,-106.4"/>
</g>
<!-- u27 -->
<g id="node15" class="node">
<title>u27</title>
<ellipse fill="#ffbbbb" stroke="black" cx="3030.49" cy="-1093" rx="223.66" ry="18"/>
<text text-anchor="middle" x="3030.49" y="-1089.3" font-family="Times,serif" font-size="14.00">Drasil.DocumentLanguage.TraceabilityMatrix</text>
</g>
<!-- u30&#45;&gt;u27 -->
<g id="edge54" class="edge">
<title>u30&#45;&gt;u27</title>
<path fill="none" stroke="black" d="M3172.84,-1410.98C3148.42,-1356.61 3072.18,-1186.83 3042.49,-1120.72"/>
<polygon fill="black" stroke="black" points="3045.59,-1119.08 3038.3,-1111.39 3039.2,-1121.94 3045.59,-1119.08"/>
</g>
<!-- u29&#45;&gt;u2 -->
<g id="edge51" class="edge">
<title>u29&#45;&gt;u2</title>
<path fill="none" stroke="black" d="M2648.04,-2083.66C2637.4,-2031.59 2602.73,-1872.55 2552.49,-1748 2506.59,-1634.21 2430.9,-1508.51 2397.82,-1455.64"/>
<polygon fill="black" stroke="black" points="2400.62,-1453.53 2392.33,-1446.93 2394.7,-1457.26 2400.62,-1453.53"/>
</g>
<!-- u10 -->
<g id="node28" class="node">
<title>u10</title>
<ellipse fill="#ffbbff" stroke="black" cx="1604.49" cy="-1429" rx="170.07" ry="18"/>
<text text-anchor="middle" x="1604.49" y="-1425.3" font-family="Times,serif" font-size="14.00">Drasil.Sections.ReferenceMaterial</text>
</g>
<!-- u29&#45;&gt;u10 -->
<g id="edge53" class="edge">
<title>u29&#45;&gt;u10</title>
<path fill="none" stroke="black" d="M2552.4,-2085.88C2383.02,-2055.61 2034.45,-1973.45 1810.49,-1784 1699.95,-1690.5 1634.93,-1521.8 1612.95,-1456.66"/>
<polygon fill="black" stroke="black" points="1616.26,-1455.52 1609.79,-1447.13 1609.61,-1457.72 1616.26,-1455.52"/>
</g>
<!-- u29&#45;&gt;u7 -->
<g id="edge52" class="edge">
<title>u29&#45;&gt;u7</title>
<path fill="none" stroke="black" d="M2673.25,-2083.98C2743.92,-2028.7 2967.12,-1854.11 3048.46,-1790.49"/>
<polygon fill="black" stroke="black" points="3051.05,-1792.91 3056.77,-1783.99 3046.74,-1787.39 3051.05,-1792.91"/>
</g>
<!-- u28 -->
<g id="node14" class="node">
<title>u28</title>
<ellipse fill="#ffbbbb" stroke="black" cx="489.49" cy="-420" rx="162.47" ry="18"/>
<text text-anchor="middle" x="489.49" y="-416.3" font-family="Times,serif" font-size="14.00">Drasil.DocumentLanguage.Units</text>
</g>
<!-- u26 -->
<g id="node16" class="node">
<title>u26</title>
<ellipse fill="#ffbbbb" stroke="black" cx="2264.49" cy="-757" rx="187.37" ry="18"/>
<text text-anchor="middle" x="2264.49" y="-753.3" font-family="Times,serif" font-size="14.00">Drasil.DocumentLanguage.Definitions</text>
</g>
<!-- u27&#45;&gt;u26 -->
<g id="edge50" class="edge">
<title>u27&#45;&gt;u26</title>
<path fill="none" stroke="black" d="M2991.98,-1075.21C2863.86,-1019.34 2452.18,-839.84 2311.86,-778.65"/>
<polygon fill="black" stroke="black" points="2313.19,-775.42 2302.62,-774.63 2310.39,-781.83 2313.19,-775.42"/>
</g>
<!-- u26&#45;&gt;u19 -->
<g id="edge48" class="edge">
<title>u26&#45;&gt;u19</title>
<path fill="none" stroke="black" d="M2308.62,-739.39C2458.33,-683.04 2946.25,-499.38 3104.46,-439.83"/>
<polygon fill="black" stroke="black" points="3105.84,-443.05 3113.96,-436.25 3103.37,-436.5 3105.84,-443.05"/>
</g>
<!-- u26&#45;&gt;u6 -->
<g id="edge47" class="edge">
<title>u26&#45;&gt;u6</title>
<path fill="none" stroke="black" d="M2197.33,-740.18C1960.04,-684.28 1162.09,-496.29 915.63,-438.23"/>
<polygon fill="black" stroke="black" points="916.23,-434.78 905.7,-435.89 914.63,-441.59 916.23,-434.78"/>
</g>
<!-- u26&#45;&gt;u28 -->
<g id="edge49" class="edge">
<title>u26&#45;&gt;u28</title>
<path fill="none" stroke="black" d="M2183.61,-740.74C1890.22,-685.36 883.25,-495.32 577.94,-437.69"/>
<polygon fill="black" stroke="black" points="578.28,-434.2 567.81,-435.78 576.99,-441.08 578.28,-434.2"/>
</g>
<!-- u25&#45;&gt;u19 -->
<g id="edge45" class="edge">
<title>u25&#45;&gt;u19</title>
<path fill="none" stroke="black" d="M4119.5,-2420.88C4108.62,-2373.42 4078.31,-2235.97 4064.49,-2120 4045.89,-1963.99 4045.49,-1924.12 4045.49,-1767 4045.49,-1767 4045.49,-1767 4045.49,-1092 4045.49,-679.99 3430.03,-489.34 3222.14,-436.7"/>
<polygon fill="black" stroke="black" points="3222.81,-433.26 3212.26,-434.22 3221.11,-440.05 3222.81,-433.26"/>
</g>
<!-- u25&#45;&gt;u3 -->
<g id="edge44" class="edge">
<title>u25&#45;&gt;u3</title>
<path fill="none" stroke="black" d="M4127.51,-2420.93C4140.35,-2366.49 4180.39,-2196.71 4196.08,-2130.16"/>
<polygon fill="black" stroke="black" points="4199.58,-2130.58 4198.47,-2120.04 4192.77,-2128.97 4199.58,-2130.58"/>
</g>
<!-- u24 -->
<g id="node18" class="node">
<title>u24</title>
<ellipse fill="#bbffff" stroke="black" cx="4571.49" cy="-2102" rx="221.76" ry="18"/>
<text text-anchor="middle" x="4571.49" y="-2098.3" font-family="Times,serif" font-size="14.00">Drasil.DocumentLanguage.Notebook.LsnDecl</text>
</g>
<!-- u25&#45;&gt;u24 -->
<g id="edge46" class="edge">
<title>u25&#45;&gt;u24</title>
<path fill="none" stroke="black" d="M4146.32,-2420.93C4220.62,-2365.37 4455.59,-2189.66 4540.5,-2126.17"/>
<polygon fill="black" stroke="black" points="4542.79,-2128.83 4548.7,-2120.04 4538.6,-2123.22 4542.79,-2128.83"/>
</g>
<!-- u23 -->
<g id="node19" class="node">
<title>u23</title>
<ellipse fill="#bbffff" stroke="black" cx="4571.49" cy="-1766" rx="206.06" ry="18"/>
<text text-anchor="middle" x="4571.49" y="-1762.3" font-family="Times,serif" font-size="14.00">Drasil.DocumentLanguage.Notebook.Core</text>
</g>
<!-- u24&#45;&gt;u23 -->
<g id="edge43" class="edge">
<title>u24&#45;&gt;u23</title>
<path fill="none" stroke="black" d="M4571.49,-2083.98C4571.49,-2029.83 4571.49,-1861.22 4571.49,-1794.54"/>
<polygon fill="black" stroke="black" points="4574.99,-1794.39 4571.49,-1784.39 4567.99,-1794.39 4574.99,-1794.39"/>
</g>
<!-- u18&#45;&gt;u2 -->
<g id="edge38" class="edge">
<title>u18&#45;&gt;u2</title>
<path fill="none" stroke="black" d="M2045.53,-1747.93C2104,-1692.59 2288.41,-1518.08 2356.18,-1453.95"/>
<polygon fill="black" stroke="black" points="2358.62,-1456.45 2363.48,-1447.04 2353.81,-1451.37 2358.62,-1456.45"/>
</g>
<!-- u18&#45;&gt;u26 -->
<g id="edge40" class="edge">
<title>u18&#45;&gt;u26</title>
<path fill="none" stroke="black" d="M2031.5,-1747.94C2059.33,-1629.69 2223.49,-932.21 2258.09,-785.19"/>
<polygon fill="black" stroke="black" points="2261.55,-785.75 2260.44,-775.21 2254.74,-784.14 2261.55,-785.75"/>
</g>
<!-- u18&#45;&gt;u10 -->
<g id="edge39" class="edge">
<title>u18&#45;&gt;u10</title>
<path fill="none" stroke="black" d="M2005.93,-1747.93C1935.92,-1692.48 1714.81,-1517.37 1634.24,-1453.56"/>
<polygon fill="black" stroke="black" points="1636.01,-1450.5 1626,-1447.04 1631.67,-1455.99 1636.01,-1450.5"/>
</g>
<!-- u17&#45;&gt;u2 -->
<g id="edge34" class="edge">
<title>u17&#45;&gt;u2</title>
<path fill="none" stroke="black" d="M239.05,-1751.56C599.49,-1697.46 1941.49,-1496.04 2295.44,-1442.91"/>
<polygon fill="black" stroke="black" points="2296.01,-1446.37 2305.38,-1441.42 2294.97,-1439.45 2296.01,-1446.37"/>
</g>
<!-- u17&#45;&gt;u28 -->
<g id="edge37" class="edge">
<title>u17&#45;&gt;u28</title>
<path fill="none" stroke="black" d="M154.51,-1747.82C168.39,-1700.18 208.24,-1562.35 238.49,-1447 342.1,-1051.8 455.48,-567.38 483.14,-448.36"/>
<polygon fill="black" stroke="black" points="486.63,-448.83 485.48,-438.3 479.81,-447.24 486.63,-448.83"/>
</g>
<!-- u17&#45;&gt;u10 -->
<g id="edge35" class="edge">
<title>u17&#45;&gt;u10</title>
<path fill="none" stroke="black" d="M215.79,-1749.74C454.71,-1694.73 1270.94,-1506.8 1527,-1447.84"/>
<polygon fill="black" stroke="black" points="1528,-1451.2 1536.96,-1445.55 1526.43,-1444.38 1528,-1451.2"/>
</g>
<!-- u17&#45;&gt;u22 -->
<g id="edge36" class="edge">
<title>u17&#45;&gt;u22</title>
<path fill="none" stroke="black" d="M152.81,-1747.97C167.32,-1671.96 224.49,-1355.98 224.49,-1094 224.49,-1094 224.49,-1094 224.49,-756 224.49,-486.02 415.45,-196.48 476.77,-110.46"/>
<polygon fill="black" stroke="black" points="479.78,-112.27 482.78,-102.1 474.1,-108.18 479.78,-112.27"/>
</g>
<!-- u16&#45;&gt;u10 -->
<g id="edge33" class="edge">
<title>u16&#45;&gt;u10</title>
<path fill="none" stroke="black" d="M1244.8,-1747.93C1307.4,-1692.59 1504.84,-1518.08 1577.39,-1453.95"/>
<polygon fill="black" stroke="black" points="1580.04,-1456.28 1585.21,-1447.04 1575.4,-1451.04 1580.04,-1456.28"/>
</g>
<!-- u15&#45;&gt;u2 -->
<g id="edge29" class="edge">
<title>u15&#45;&gt;u2</title>
<path fill="none" stroke="black" d="M572.92,-1750.23C886.63,-1694.68 1993.25,-1498.74 2301.34,-1444.19"/>
<polygon fill="black" stroke="black" points="2302.29,-1447.58 2311.53,-1442.39 2301.07,-1440.68 2302.29,-1447.58"/>
</g>
<!-- u15&#45;&gt;u6 -->
<g id="edge30" class="edge">
<title>u15&#45;&gt;u6</title>
<path fill="none" stroke="black" d="M494.08,-1747.52C531.74,-1604.14 789.44,-622.97 835.46,-447.75"/>
<polygon fill="black" stroke="black" points="838.86,-448.59 838.01,-438.03 832.09,-446.82 838.86,-448.59"/>
</g>
<!-- u15&#45;&gt;u28 -->
<g id="edge32" class="edge">
<title>u15&#45;&gt;u28</title>
<path fill="none" stroke="black" d="M489.49,-1747.52C489.49,-1604.28 489.49,-624.92 489.49,-448.27"/>
<polygon fill="black" stroke="black" points="492.99,-448.03 489.49,-438.03 485.99,-448.03 492.99,-448.03"/>
</g>
<!-- u15&#45;&gt;u10 -->
<g id="edge31" class="edge">
<title>u15&#45;&gt;u10</title>
<path fill="none" stroke="black" d="M543.27,-1748.84C728.82,-1693.09 1341.75,-1508.94 1541.18,-1449.02"/>
<polygon fill="black" stroke="black" points="1542.35,-1452.32 1550.92,-1446.09 1540.34,-1445.62 1542.35,-1452.32"/>
</g>
<!-- u14&#45;&gt;u2 -->
<g id="edge26" class="edge">
<title>u14&#45;&gt;u2</title>
<path fill="none" stroke="black" d="M2723.14,-1747.93C2663.68,-1692.59 2476.14,-1518.08 2407.22,-1453.95"/>
<polygon fill="black" stroke="black" points="2409.5,-1451.29 2399.8,-1447.04 2404.73,-1456.41 2409.5,-1451.29"/>
</g>
<!-- u14&#45;&gt;u26 -->
<g id="edge28" class="edge">
<title>u14&#45;&gt;u26</title>
<path fill="none" stroke="black" d="M2733.41,-1747.94C2677.28,-1629.45 2345.68,-929.41 2276.95,-784.32"/>
<polygon fill="black" stroke="black" points="2280.08,-782.75 2272.64,-775.21 2273.76,-785.75 2280.08,-782.75"/>
</g>
<!-- u14&#45;&gt;u10 -->
<g id="edge27" class="edge">
<title>u14&#45;&gt;u10</title>
<path fill="none" stroke="black" d="M2688.17,-1749.29C2500.7,-1694.06 1872.17,-1508.87 1668.66,-1448.91"/>
<polygon fill="black" stroke="black" points="1669.59,-1445.53 1659.01,-1446.06 1667.61,-1452.25 1669.59,-1445.53"/>
</g>
<!-- u13&#45;&gt;u2 -->
<g id="edge24" class="edge">
<title>u13&#45;&gt;u2</title>
<path fill="none" stroke="black" d="M3420.23,-1748.96C3237.98,-1692.99 2631.11,-1506.65 2439.79,-1447.9"/>
<polygon fill="black" stroke="black" points="2440.78,-1444.54 2430.19,-1444.95 2438.72,-1451.24 2440.78,-1444.54"/>
</g>
<!-- u13&#45;&gt;u30 -->
<g id="edge25" class="edge">
<title>u13&#45;&gt;u30</title>
<path fill="none" stroke="black" d="M3457.6,-1747.93C3409.57,-1692.82 3258.5,-1519.5 3202.05,-1454.73"/>
<polygon fill="black" stroke="black" points="3204.55,-1452.28 3195.34,-1447.04 3199.27,-1456.88 3204.55,-1452.28"/>
</g>
<!-- u12&#45;&gt;u30 -->
<g id="edge23" class="edge">
<title>u12&#45;&gt;u30</title>
<path fill="none" stroke="black" d="M1675.78,-1749.85C1934.73,-1694.8 2824.66,-1505.64 3099.19,-1447.28"/>
<polygon fill="black" stroke="black" points="3100.03,-1450.68 3109.08,-1445.18 3098.57,-1443.83 3100.03,-1450.68"/>
</g>
<!-- u12&#45;&gt;u10 -->
<g id="edge22" class="edge">
<title>u12&#45;&gt;u10</title>
<path fill="none" stroke="black" d="M1604.49,-1747.93C1604.49,-1693.49 1604.49,-1523.71 1604.49,-1457.16"/>
<polygon fill="black" stroke="black" points="1607.99,-1457.04 1604.49,-1447.04 1600.99,-1457.04 1607.99,-1457.04"/>
</g>
<!-- u11&#45;&gt;u30 -->
<g id="edge21" class="edge">
<title>u11&#45;&gt;u30</title>
<path fill="none" stroke="black" d="M2436.73,-1748.62C2566.38,-1693.08 2989.06,-1512.01 3132.42,-1450.59"/>
<polygon fill="black" stroke="black" points="3134.04,-1453.71 3141.85,-1446.55 3131.28,-1447.27 3134.04,-1453.71"/>
</g>
<!-- u11&#45;&gt;u10 -->
<g id="edge20" class="edge">
<title>u11&#45;&gt;u10</title>
<path fill="none" stroke="black" d="M2359.65,-1748.62C2228.02,-1693.08 1798.86,-1512.01 1653.29,-1450.59"/>
<polygon fill="black" stroke="black" points="1654.29,-1447.21 1643.71,-1446.55 1651.57,-1453.66 1654.29,-1447.21"/>
</g>
<!-- u9&#45;&gt;u2 -->
<g id="edge17" class="edge">
<title>u9&#45;&gt;u2</title>
<path fill="none" stroke="black" d="M912.61,-1749.74C1168.37,-1694.06 2049.59,-1502.24 2309.06,-1445.77"/>
<polygon fill="black" stroke="black" points="2310.1,-1449.12 2319.12,-1443.57 2308.61,-1442.28 2310.1,-1449.12"/>
</g>
<!-- u9&#45;&gt;u6 -->
<g id="edge18" class="edge">
<title>u9&#45;&gt;u6</title>
<path fill="none" stroke="black" d="M842.49,-1747.52C842.49,-1604.28 842.49,-624.92 842.49,-448.27"/>
<polygon fill="black" stroke="black" points="845.99,-448.03 842.49,-438.03 838.99,-448.03 845.99,-448.03"/>
</g>
<!-- u9&#45;&gt;u10 -->
<g id="edge19" class="edge">
<title>u9&#45;&gt;u10</title>
<path fill="none" stroke="black" d="M880.27,-1748.39C1007.09,-1692.63 1417.39,-1512.25 1557.26,-1450.76"/>
<polygon fill="black" stroke="black" points="1558.73,-1453.94 1566.47,-1446.71 1555.91,-1447.53 1558.73,-1453.94"/>
</g>
<!-- u8&#45;&gt;u2 -->
<g id="edge15" class="edge">
<title>u8&#45;&gt;u2</title>
<path fill="none" stroke="black" d="M3732.47,-1749.85C3498.71,-1694.5 2692.23,-1503.57 2450.5,-1446.34"/>
<polygon fill="black" stroke="black" points="2450.97,-1442.85 2440.44,-1443.96 2449.36,-1449.67 2450.97,-1442.85"/>
</g>
<!-- u8&#45;&gt;u6 -->
<g id="edge16" class="edge">
<title>u8&#45;&gt;u6</title>
<path fill="none" stroke="black" d="M3787.72,-1747.94C3743.4,-1663.25 3535.45,-1283.77 3263.49,-1075 2542.29,-521.39 1386.74,-435.79 985.35,-423.04"/>
<polygon fill="black" stroke="black" points="985.25,-419.54 975.14,-422.73 985.03,-426.53 985.25,-419.54"/>
</g>
<!-- u7&#45;&gt;u30 -->
<g id="edge14" class="edge">
<title>u7&#45;&gt;u30</title>
<path fill="none" stroke="black" d="M3083.69,-1747.93C3100.29,-1693.38 3152.17,-1523.01 3172.34,-1456.75"/>
<polygon fill="black" stroke="black" points="3175.73,-1457.62 3175.3,-1447.04 3169.04,-1455.59 3175.73,-1457.62"/>
</g>
</g>
</svg>
