<?xml version="1.0" encoding="UTF-8" standalone="no"?>
<!DOCTYPE svg PUBLIC "-//W3C//DTD SVG 1.1//EN"
 "http://www.w3.org/Graphics/SVG/1.1/DTD/svg11.dtd">
<!-- Generated by graphviz version 2.43.0 (0)
 -->
<!-- Title: G Pages: 1 -->
<svg width="432pt" height="288pt"
 viewBox="0.00 0.00 431.78 288.00" xmlns="http://www.w3.org/2000/svg" xmlns:xlink="http://www.w3.org/1999/xlink">
<g id="graph0" class="graph" transform="scale(0.06 0.06) rotate(0) translate(4 4585.33)">
<title>G</title>
<polygon fill="white" stroke="transparent" points="-4,4 -4,-4585.33 6876.5,-4585.33 6876.5,4 -4,4"/>
<!-- u7 -->
<g id="node1" class="node">
<title>u7</title>
<ellipse fill="#bbffbb" stroke="black" cx="2407.77" cy="-4212" rx="52.79" ry="18"/>
<text text-anchor="middle" x="2407.77" y="-4208.3" font-family="Times,serif" font-size="14.00">FileTests</text>
</g>
<!-- u6 -->
<g id="node2" class="node">
<title>u6</title>
<ellipse fill="#bbffbb" stroke="black" cx="2540.77" cy="-4212" rx="62.29" ry="18"/>
<text text-anchor="middle" x="2540.77" y="-4208.3" font-family="Times,serif" font-size="14.00">HelloWorld</text>
</g>
<!-- u2 -->
<g id="node3" class="node">
<title>u2</title>
<ellipse fill="#bbffbb" stroke="black" cx="2540.77" cy="-3916" rx="42.49" ry="18"/>
<text text-anchor="middle" x="2540.77" y="-3912.3" font-family="Times,serif" font-size="14.00">Helper</text>
</g>
<!-- u6&#45;&gt;u2 -->
<g id="edge8" class="edge">
<title>u6&#45;&gt;u2</title>
<path fill="none" stroke="black" d="M2540.77,-4193.92C2540.77,-4145.01 2540.77,-4004.05 2540.77,-3944.3"/>
<polygon fill="black" stroke="black" points="2544.27,-3944.12 2540.77,-3934.12 2537.27,-3944.12 2544.27,-3944.12"/>
</g>
<!-- u1 -->
<g id="node4" class="node">
<title>u1</title>
<ellipse fill="#bbffbb" stroke="black" cx="1914.77" cy="-4212" rx="76.09" ry="18"/>
<text text-anchor="middle" x="1914.77" y="-4208.3" font-family="Times,serif" font-size="14.00">NameGenTest</text>
</g>
<!-- u0 -->
<g id="node5" class="node">
<title>u0</title>
<ellipse fill="#bbffbb" stroke="black" cx="2068.77" cy="-4212" rx="59.59" ry="18"/>
<text text-anchor="middle" x="2068.77" y="-4208.3" font-family="Times,serif" font-size="14.00">VectorTest</text>
</g>
<!-- u59 -->
<g id="node6" class="node">
<title>u59</title>
<ellipse fill="#ffffbb" stroke="black" cx="2733.77" cy="-4507" rx="214.46" ry="18"/>
<text text-anchor="middle" x="2733.77" y="-4503.3" font-family="Times,serif" font-size="14.00">Data.Drasil.ExternalLibraries.ODELibraries</text>
</g>
<!-- u9 -->
<g id="node11" class="node">
<title>u9</title>
<ellipse fill="#ffbbbb" stroke="black" cx="2733.77" cy="-4212" rx="113.18" ry="18"/>
<text text-anchor="middle" x="2733.77" y="-4208.3" font-family="Times,serif" font-size="14.00">Language.Drasil.Code</text>
</g>
<!-- u59&#45;&gt;u9 -->
<g id="edge95" class="edge">
<title>u59&#45;&gt;u9</title>
<path fill="none" stroke="black" d="M2733.77,-4488.98C2733.77,-4440.23 2733.77,-4299.76 2733.77,-4240.2"/>
<polygon fill="black" stroke="black" points="2737.27,-4240.07 2733.77,-4230.07 2730.27,-4240.07 2737.27,-4240.07"/>
</g>
<!-- u5 -->
<g id="node7" class="node">
<title>u5</title>
<ellipse fill="#bbbbff" stroke="black" cx="2241.77" cy="-3916" rx="84.49" ry="18"/>
<text text-anchor="middle" x="2241.77" y="-3912.3" font-family="Times,serif" font-size="14.00">GOOL.Observer</text>
</g>
<!-- u4 -->
<g id="node8" class="node">
<title>u4</title>
<ellipse fill="#bbbbff" stroke="black" cx="2241.77" cy="-4212" rx="95.58" ry="18"/>
<text text-anchor="middle" x="2241.77" y="-4208.3" font-family="Times,serif" font-size="14.00">GOOL.PatternTest</text>
</g>
<!-- u4&#45;&gt;u5 -->
<g id="edge7" class="edge">
<title>u4&#45;&gt;u5</title>
<path fill="none" stroke="black" d="M2241.77,-4193.92C2241.77,-4145.01 2241.77,-4004.05 2241.77,-3944.3"/>
<polygon fill="black" stroke="black" points="2245.27,-3944.12 2241.77,-3934.12 2238.27,-3944.12 2245.27,-3944.12"/>
</g>
<!-- u56 -->
<g id="node9" class="node">
<title>u56</title>
<ellipse fill="#ffbbbb" stroke="black" cx="4477.77" cy="-961" rx="110.48" ry="18"/>
<text text-anchor="middle" x="4477.77" y="-957.3" font-family="Times,serif" font-size="14.00">Language.Drasil.Mod</text>
</g>
<!-- u12 -->
<g id="node16" class="node">
<title>u12</title>
<ellipse fill="#bbffff" stroke="black" cx="4477.77" cy="-665" rx="170.87" ry="18"/>
<text text-anchor="middle" x="4477.77" y="-661.3" font-family="Times,serif" font-size="14.00">Language.Drasil.Chunk.Parameter</text>
</g>
<!-- u56&#45;&gt;u12 -->
<g id="edge88" class="edge">
<title>u56&#45;&gt;u12</title>
<path fill="none" stroke="black" d="M4477.77,-942.92C4477.77,-894.01 4477.77,-753.05 4477.77,-693.3"/>
<polygon fill="black" stroke="black" points="4481.27,-693.12 4477.77,-683.12 4474.27,-693.12 4481.27,-693.12"/>
</g>
<!-- u17 -->
<g id="node25" class="node">
<title>u17</title>
<ellipse fill="#ffbbff" stroke="black" cx="4128.77" cy="-665" rx="160.57" ry="18"/>
<text text-anchor="middle" x="4128.77" y="-661.3" font-family="Times,serif" font-size="14.00">Language.Drasil.Code.DataDesc</text>
</g>
<!-- u56&#45;&gt;u17 -->
<g id="edge89" class="edge">
<title>u56&#45;&gt;u17</title>
<path fill="none" stroke="black" d="M4457.75,-943.14C4398.74,-893.42 4225.32,-747.33 4156.94,-689.73"/>
<polygon fill="black" stroke="black" points="4159.04,-686.93 4149.14,-683.16 4154.53,-692.28 4159.04,-686.93"/>
</g>
<!-- u55 -->
<g id="node10" class="node">
<title>u55</title>
<ellipse fill="#ffbbbb" stroke="black" cx="3703.77" cy="-1847" rx="126.18" ry="18"/>
<text text-anchor="middle" x="3703.77" y="-1843.3" font-family="Times,serif" font-size="14.00">Language.Drasil.Choices</text>
</g>
<!-- u16 -->
<g id="node26" class="node">
<title>u16</title>
<ellipse fill="#ffbbff" stroke="black" cx="3173.77" cy="-1552" rx="139.98" ry="18"/>
<text text-anchor="middle" x="3173.77" y="-1548.3" font-family="Times,serif" font-size="14.00">Language.Drasil.Code.Code</text>
</g>
<!-- u55&#45;&gt;u16 -->
<g id="edge86" class="edge">
<title>u55&#45;&gt;u16</title>
<path fill="none" stroke="black" d="M3673.75,-1829.41C3583.4,-1779.46 3313.95,-1630.5 3212.76,-1574.55"/>
<polygon fill="black" stroke="black" points="3214.23,-1571.37 3203.78,-1569.59 3210.84,-1577.49 3214.23,-1571.37"/>
</g>
<!-- u57 -->
<g id="node59" class="node">
<title>u57</title>
<ellipse fill="#33ff33" stroke="black" cx="3781.77" cy="-1552" rx="172.77" ry="18"/>
<text text-anchor="middle" x="3781.77" y="-1548.3" font-family="Times,serif" font-size="14.00">Language.Drasil.Data.ODELibPckg</text>
</g>
<!-- u55&#45;&gt;u57 -->
<g id="edge87" class="edge">
<title>u55&#45;&gt;u57</title>
<path fill="none" stroke="black" d="M3708.3,-1828.98C3721.3,-1780.13 3758.83,-1639.17 3774.62,-1579.83"/>
<polygon fill="black" stroke="black" points="3778.03,-1580.63 3777.22,-1570.07 3771.27,-1578.83 3778.03,-1580.63"/>
</g>
<!-- u25 -->
<g id="node37" class="node">
<title>u25</title>
<ellipse fill="#77ff77" stroke="black" cx="4850.77" cy="-3916" rx="217.16" ry="18"/>
<text text-anchor="middle" x="4850.77" y="-3912.3" font-family="Times,serif" font-size="14.00">Language.Drasil.Code.Imperative.Generator</text>
</g>
<!-- u9&#45;&gt;u25 -->
<g id="edge13" class="edge">
<title>u9&#45;&gt;u25</title>
<path fill="none" stroke="black" d="M2816.11,-4199.57C3143.42,-4154.11 4353.06,-3986.12 4734.65,-3933.13"/>
<polygon fill="black" stroke="black" points="4735.18,-3936.59 4744.61,-3931.74 4734.22,-3929.65 4735.18,-3936.59"/>
</g>
<!-- u20 -->
<g id="node41" class="node">
<title>u20</title>
<ellipse fill="#77ff77" stroke="black" cx="6654.77" cy="-2438" rx="217.96" ry="18"/>
<text text-anchor="middle" x="6654.77" y="-2434.3" font-family="Times,serif" font-size="14.00">Language.Drasil.Code.Imperative.ReadInput</text>
</g>
<!-- u9&#45;&gt;u20 -->
<g id="edge12" class="edge">
<title>u9&#45;&gt;u20</title>
<path fill="none" stroke="black" d="M2840.85,-4206.08C3459.67,-4176.3 6550.77,-4008.18 6550.77,-3622 6550.77,-3622 6550.77,-3622 6550.77,-3029 6550.77,-2808.57 6622.05,-2548.74 6646.59,-2465.83"/>
<polygon fill="black" stroke="black" points="6649.96,-2466.76 6649.47,-2456.18 6643.25,-2464.76 6649.96,-2466.76"/>
</g>
<!-- u43 -->
<g id="node50" class="node">
<title>u43</title>
<ellipse fill="#77ffff" stroke="black" cx="3306.77" cy="-3621" rx="369.33" ry="18"/>
<text text-anchor="middle" x="3306.77" y="-3617.3" font-family="Times,serif" font-size="14.00">Language.Drasil.Code.Imperative.GOOL.LanguageRenderer.CSharpRenderer</text>
</g>
<!-- u9&#45;&gt;u43 -->
<g id="edge19" class="edge">
<title>u9&#45;&gt;u43</title>
<path fill="none" stroke="black" d="M2750.3,-4194.01C2831.41,-4110.63 3187.23,-3744.87 3282.97,-3646.46"/>
<polygon fill="black" stroke="black" points="3285.71,-3648.67 3290.17,-3639.06 3280.69,-3643.79 3285.71,-3648.67"/>
</g>
<!-- u42 -->
<g id="node51" class="node">
<title>u42</title>
<ellipse fill="#77ffff" stroke="black" cx="4048.77" cy="-3621" rx="354.74" ry="18"/>
<text text-anchor="middle" x="4048.77" y="-3617.3" font-family="Times,serif" font-size="14.00">Language.Drasil.Code.Imperative.GOOL.LanguageRenderer.JuliaRenderer</text>
</g>
<!-- u9&#45;&gt;u42 -->
<g id="edge18" class="edge">
<title>u9&#45;&gt;u42</title>
<path fill="none" stroke="black" d="M2769.97,-4194.79C2954.83,-4111.98 3792.98,-3736.57 4001.63,-3643.12"/>
<polygon fill="black" stroke="black" points="4003.1,-3646.29 4010.79,-3639.01 4000.24,-3639.9 4003.1,-3646.29"/>
</g>
<!-- u40 -->
<g id="node53" class="node">
<title>u40</title>
<ellipse fill="#77ffff" stroke="black" cx="358.77" cy="-3621" rx="358.54" ry="18"/>
<text text-anchor="middle" x="358.77" y="-3617.3" font-family="Times,serif" font-size="14.00">Language.Drasil.Code.Imperative.GOOL.LanguageRenderer.SwiftRenderer</text>
</g>
<!-- u9&#45;&gt;u40 -->
<g id="edge17" class="edge">
<title>u9&#45;&gt;u40</title>
<path fill="none" stroke="black" d="M2728.39,-4193.68C2709.39,-4133.67 2643.81,-3936.26 2591.77,-3898 2430.71,-3779.6 1099.59,-3674.09 572.49,-3636.55"/>
<polygon fill="black" stroke="black" points="572.71,-3633.05 562.49,-3635.84 572.22,-3640.04 572.71,-3633.05"/>
</g>
<!-- u39 -->
<g id="node54" class="node">
<title>u39</title>
<ellipse fill="#77ffff" stroke="black" cx="1089.77" cy="-3621" rx="354.44" ry="18"/>
<text text-anchor="middle" x="1089.77" y="-3617.3" font-family="Times,serif" font-size="14.00">Language.Drasil.Code.Imperative.GOOL.LanguageRenderer.JavaRenderer</text>
</g>
<!-- u9&#45;&gt;u39 -->
<g id="edge16" class="edge">
<title>u9&#45;&gt;u39</title>
<path fill="none" stroke="black" d="M2733.69,-4193.85C2732.44,-4140.72 2720.95,-3977.6 2628.77,-3898 2437.4,-3732.75 1709.62,-3661.85 1327.43,-3635.49"/>
<polygon fill="black" stroke="black" points="1327.56,-3631.99 1317.34,-3634.8 1327.08,-3638.98 1327.56,-3631.99"/>
</g>
<!-- u38 -->
<g id="node55" class="node">
<title>u38</title>
<ellipse fill="#77ffff" stroke="black" cx="1814.77" cy="-3621" rx="352.84" ry="18"/>
<text text-anchor="middle" x="1814.77" y="-3617.3" font-family="Times,serif" font-size="14.00">Language.Drasil.Code.Imperative.GOOL.LanguageRenderer.CppRenderer</text>
</g>
<!-- u9&#45;&gt;u38 -->
<g id="edge15" class="edge">
<title>u9&#45;&gt;u38</title>
<path fill="none" stroke="black" d="M2735.6,-4193.83C2740.13,-4141.99 2746.34,-3985.3 2667.77,-3898 2512.46,-3725.44 2248.56,-3660.27 2055.33,-3635.92"/>
<polygon fill="black" stroke="black" points="2055.67,-3632.44 2045.32,-3634.69 2054.81,-3639.39 2055.67,-3632.44"/>
</g>
<!-- u37 -->
<g id="node56" class="node">
<title>u37</title>
<ellipse fill="#77ffff" stroke="black" cx="2552.77" cy="-3621" rx="367.43" ry="18"/>
<text text-anchor="middle" x="2552.77" y="-3617.3" font-family="Times,serif" font-size="14.00">Language.Drasil.Code.Imperative.GOOL.LanguageRenderer.PythonRenderer</text>
</g>
<!-- u9&#45;&gt;u37 -->
<g id="edge14" class="edge">
<title>u9&#45;&gt;u37</title>
<path fill="none" stroke="black" d="M2734.77,-4193.9C2737.05,-4145.97 2740.1,-4006.72 2706.77,-3898 2676.17,-3798.2 2606,-3694.31 2571.98,-3647.52"/>
<polygon fill="black" stroke="black" points="2574.61,-3645.19 2565.87,-3639.21 2568.97,-3649.34 2574.61,-3645.19"/>
</g>
<!-- u8 -->
<g id="node12" class="node">
<title>u8</title>
<ellipse fill="#ffbbbb" stroke="black" cx="4295.77" cy="-2143" rx="135.68" ry="18"/>
<text text-anchor="middle" x="4295.77" y="-2139.3" font-family="Times,serif" font-size="14.00">Language.Drasil.CodeSpec</text>
</g>
<!-- u8&#45;&gt;u55 -->
<g id="edge11" class="edge">
<title>u8&#45;&gt;u55</title>
<path fill="none" stroke="black" d="M4262.24,-2125.35C4160.89,-2075.02 3857.82,-1924.51 3745.9,-1868.92"/>
<polygon fill="black" stroke="black" points="3747.44,-1865.78 3736.93,-1864.47 3744.32,-1872.05 3747.44,-1865.78"/>
</g>
<!-- u15 -->
<g id="node13" class="node">
<title>u15</title>
<ellipse fill="#bbffff" stroke="black" cx="4039.77" cy="-1847" rx="192.27" ry="18"/>
<text text-anchor="middle" x="4039.77" y="-1843.3" font-family="Times,serif" font-size="14.00">Language.Drasil.Chunk.ConstraintMap</text>
</g>
<!-- u8&#45;&gt;u15 -->
<g id="edge10" class="edge">
<title>u8&#45;&gt;u15</title>
<path fill="none" stroke="black" d="M4280.9,-2124.92C4237.68,-2075.29 4111.99,-1930.94 4061.32,-1872.75"/>
<polygon fill="black" stroke="black" points="4063.89,-1870.37 4054.68,-1865.12 4058.61,-1874.96 4063.89,-1870.37"/>
</g>
<!-- u13 -->
<g id="node15" class="node">
<title>u13</title>
<ellipse fill="#bbffff" stroke="black" cx="4440.77" cy="-1847" rx="191.17" ry="18"/>
<text text-anchor="middle" x="4440.77" y="-1843.3" font-family="Times,serif" font-size="14.00">Language.Drasil.Chunk.CodeDefinition</text>
</g>
<!-- u8&#45;&gt;u13 -->
<g id="edge9" class="edge">
<title>u8&#45;&gt;u13</title>
<path fill="none" stroke="black" d="M4304.19,-2124.92C4328.47,-2075.7 4398.7,-1933.29 4427.85,-1874.19"/>
<polygon fill="black" stroke="black" points="4431.04,-1875.64 4432.32,-1865.12 4424.76,-1872.54 4431.04,-1875.64"/>
</g>
<!-- u14 -->
<g id="node14" class="node">
<title>u14</title>
<ellipse fill="#bbffff" stroke="black" cx="4128.77" cy="-74" rx="168.17" ry="18"/>
<text text-anchor="middle" x="4128.77" y="-70.3" font-family="Times,serif" font-size="14.00">Language.Drasil.Chunk.CodeBase</text>
</g>
<!-- u58 -->
<g id="node58" class="node">
<title>u58</title>
<ellipse fill="#33ff33" stroke="black" cx="3470.77" cy="-1256" rx="154.07" ry="18"/>
<text text-anchor="middle" x="3470.77" y="-1252.3" font-family="Times,serif" font-size="14.00">Language.Drasil.Data.ODEInfo</text>
</g>
<!-- u13&#45;&gt;u58 -->
<g id="edge22" class="edge">
<title>u13&#45;&gt;u58</title>
<path fill="none" stroke="black" d="M4296.7,-1835.1C4112.88,-1813.9 3795.4,-1751.7 3599.77,-1570 3513.82,-1490.17 3483.48,-1344.58 3474.28,-1284.28"/>
<polygon fill="black" stroke="black" points="3477.7,-1283.44 3472.8,-1274.05 3470.77,-1284.44 3477.7,-1283.44"/>
</g>
<!-- u11 -->
<g id="node17" class="node">
<title>u11</title>
<ellipse fill="#bbffff" stroke="black" cx="4128.77" cy="-369" rx="145.67" ry="18"/>
<text text-anchor="middle" x="4128.77" y="-365.3" font-family="Times,serif" font-size="14.00">Language.Drasil.Chunk.Code</text>
</g>
<!-- u12&#45;&gt;u11 -->
<g id="edge21" class="edge">
<title>u12&#45;&gt;u11</title>
<path fill="none" stroke="black" d="M4457.5,-646.92C4398.22,-596.99 4225.12,-451.16 4156.88,-393.68"/>
<polygon fill="black" stroke="black" points="4159,-390.89 4149.1,-387.12 4154.49,-396.24 4159,-390.89"/>
</g>
<!-- u11&#45;&gt;u14 -->
<g id="edge20" class="edge">
<title>u11&#45;&gt;u14</title>
<path fill="none" stroke="black" d="M4128.77,-350.98C4128.77,-302.23 4128.77,-161.76 4128.77,-102.2"/>
<polygon fill="black" stroke="black" points="4132.27,-102.07 4128.77,-92.07 4125.27,-102.07 4132.27,-102.07"/>
</g>
<!-- u10 -->
<g id="node18" class="node">
<title>u10</title>
<ellipse fill="#bbffff" stroke="black" cx="4146.77" cy="-961" rx="202.26" ry="18"/>
<text text-anchor="middle" x="4146.77" y="-957.3" font-family="Times,serif" font-size="14.00">Language.Drasil.Chunk.NamedArgument</text>
</g>
<!-- u54 -->
<g id="node19" class="node">
<title>u54</title>
<ellipse fill="#ffbbff" stroke="black" cx="4594.77" cy="-1552" rx="178.97" ry="18"/>
<text text-anchor="middle" x="4594.77" y="-1548.3" font-family="Times,serif" font-size="14.00">Language.Drasil.Code.ExtLibImport</text>
</g>
<!-- u53 -->
<g id="node20" class="node">
<title>u53</title>
<ellipse fill="#ffbbff" stroke="black" cx="4562.77" cy="-1256" rx="190.37" ry="18"/>
<text text-anchor="middle" x="4562.77" y="-1252.3" font-family="Times,serif" font-size="14.00">Language.Drasil.Code.ExternalLibrary</text>
</g>
<!-- u54&#45;&gt;u53 -->
<g id="edge85" class="edge">
<title>u54&#45;&gt;u53</title>
<path fill="none" stroke="black" d="M4592.91,-1533.92C4587.59,-1485.01 4572.24,-1344.05 4565.74,-1284.3"/>
<polygon fill="black" stroke="black" points="4569.19,-1283.69 4564.63,-1274.12 4562.23,-1284.44 4569.19,-1283.69"/>
</g>
<!-- u51 -->
<g id="node22" class="node">
<title>u51</title>
<ellipse fill="#ffbbff" stroke="black" cx="4146.77" cy="-1256" rx="207.96" ry="18"/>
<text text-anchor="middle" x="4146.77" y="-1252.3" font-family="Times,serif" font-size="14.00">Language.Drasil.Code.ExternalLibraryCall</text>
</g>
<!-- u54&#45;&gt;u51 -->
<g id="edge84" class="edge">
<title>u54&#45;&gt;u51</title>
<path fill="none" stroke="black" d="M4569.07,-1534.14C4492.77,-1484.06 4267.45,-1336.2 4181.04,-1279.49"/>
<polygon fill="black" stroke="black" points="4182.92,-1276.54 4172.64,-1273.98 4179.08,-1282.39 4182.92,-1276.54"/>
</g>
<!-- u53&#45;&gt;u56 -->
<g id="edge83" class="edge">
<title>u53&#45;&gt;u56</title>
<path fill="none" stroke="black" d="M4557.83,-1237.98C4543.66,-1189.13 4502.77,-1048.17 4485.55,-988.83"/>
<polygon fill="black" stroke="black" points="4488.87,-987.7 4482.72,-979.07 4482.14,-989.65 4488.87,-987.7"/>
</g>
<!-- u53&#45;&gt;u10 -->
<g id="edge82" class="edge">
<title>u53&#45;&gt;u10</title>
<path fill="none" stroke="black" d="M4538.6,-1237.98C4467.58,-1187.96 4259.44,-1041.36 4179.01,-984.71"/>
<polygon fill="black" stroke="black" points="4180.93,-981.78 4170.74,-978.88 4176.9,-987.5 4180.93,-981.78"/>
</g>
<!-- u52 -->
<g id="node21" class="node">
<title>u52</title>
<ellipse fill="#ffbbff" stroke="black" cx="3781.77" cy="-1256" rx="139.18" ry="18"/>
<text text-anchor="middle" x="3781.77" y="-1252.3" font-family="Times,serif" font-size="14.00">Language.Drasil.Code.Lang</text>
</g>
<!-- u51&#45;&gt;u56 -->
<g id="edge81" class="edge">
<title>u51&#45;&gt;u56</title>
<path fill="none" stroke="black" d="M4165.99,-1237.98C4222.1,-1188.32 4385.72,-1043.48 4450.71,-985.95"/>
<polygon fill="black" stroke="black" points="4453.32,-988.32 4458.49,-979.07 4448.68,-983.07 4453.32,-988.32"/>
</g>
<!-- u51&#45;&gt;u10 -->
<g id="edge80" class="edge">
<title>u51&#45;&gt;u10</title>
<path fill="none" stroke="black" d="M4146.77,-1237.98C4146.77,-1189.23 4146.77,-1048.76 4146.77,-989.2"/>
<polygon fill="black" stroke="black" points="4150.27,-989.07 4146.77,-979.07 4143.27,-989.07 4150.27,-989.07"/>
</g>
<!-- u50 -->
<g id="node23" class="node">
<title>u50</title>
<ellipse fill="#ffbbff" stroke="black" cx="6100.77" cy="-2734" rx="204.16" ry="18"/>
<text text-anchor="middle" x="6100.77" y="-2730.3" font-family="Times,serif" font-size="14.00">Language.Drasil.Code.CodeQuantityDicts</text>
</g>
<!-- u49 -->
<g id="node24" class="node">
<title>u49</title>
<ellipse fill="#ffbbff" stroke="black" cx="4612.77" cy="-3621" rx="191.17" ry="18"/>
<text text-anchor="middle" x="4612.77" y="-3617.3" font-family="Times,serif" font-size="14.00">Language.Drasil.Code.CodeGeneration</text>
</g>
<!-- u49&#45;&gt;u16 -->
<g id="edge78" class="edge">
<title>u49&#45;&gt;u16</title>
<path fill="none" stroke="black" d="M4573.56,-3603.27C4482.3,-3563.64 4249.9,-3458.61 4071.77,-3343 3808.22,-3171.95 3106.39,-2739.41 2970.77,-2456 2931.23,-2373.37 3123.22,-1721.41 3165.62,-1580"/>
<polygon fill="black" stroke="black" points="3168.99,-1580.94 3168.52,-1570.36 3162.29,-1578.93 3168.99,-1580.94"/>
</g>
<!-- u36 -->
<g id="node48" class="node">
<title>u36</title>
<ellipse fill="#ff7777" stroke="black" cx="3229.77" cy="-3325" rx="222.06" ry="18"/>
<text text-anchor="middle" x="3229.77" y="-3321.3" font-family="Times,serif" font-size="14.00">Language.Drasil.Code.Imperative.GOOL.Data</text>
</g>
<!-- u49&#45;&gt;u36 -->
<g id="edge79" class="edge">
<title>u49&#45;&gt;u36</title>
<path fill="none" stroke="black" d="M4538.9,-3604.3C4302.63,-3554.07 3566.13,-3397.5 3314.81,-3344.08"/>
<polygon fill="black" stroke="black" points="3315.5,-3340.65 3305,-3341.99 3314.05,-3347.49 3315.5,-3340.65"/>
</g>
<!-- u17&#45;&gt;u11 -->
<g id="edge23" class="edge">
<title>u17&#45;&gt;u11</title>
<path fill="none" stroke="black" d="M4128.77,-646.92C4128.77,-598.01 4128.77,-457.05 4128.77,-397.3"/>
<polygon fill="black" stroke="black" points="4132.27,-397.12 4128.77,-387.12 4125.27,-397.12 4132.27,-397.12"/>
</g>
<!-- u48 -->
<g id="node27" class="node">
<title>u48</title>
<ellipse fill="#77ff77" stroke="black" cx="4317.77" cy="-2734" rx="240.46" ry="18"/>
<text text-anchor="middle" x="4317.77" y="-2730.3" font-family="Times,serif" font-size="14.00">Language.Drasil.Code.Imperative.GenerateGOOL</text>
</g>
<!-- u34 -->
<g id="node30" class="node">
<title>u34</title>
<ellipse fill="#77ff77" stroke="black" cx="4897.77" cy="-2438" rx="222.06" ry="18"/>
<text text-anchor="middle" x="4897.77" y="-2434.3" font-family="Times,serif" font-size="14.00">Language.Drasil.Code.Imperative.DrasilState</text>
</g>
<!-- u48&#45;&gt;u34 -->
<g id="edge76" class="edge">
<title>u48&#45;&gt;u34</title>
<path fill="none" stroke="black" d="M4351.03,-2716.14C4450.32,-2665.81 4744.48,-2516.7 4855.08,-2460.64"/>
<polygon fill="black" stroke="black" points="4856.94,-2463.62 4864.27,-2455.98 4853.77,-2457.38 4856.94,-2463.62"/>
</g>
<!-- u35 -->
<g id="node49" class="node">
<title>u35</title>
<ellipse fill="#ff7777" stroke="black" cx="3754.77" cy="-2438" rx="267.25" ry="18"/>
<text text-anchor="middle" x="3754.77" y="-2434.3" font-family="Times,serif" font-size="14.00">Language.Drasil.Code.Imperative.GOOL.ClassInterface</text>
</g>
<!-- u48&#45;&gt;u35 -->
<g id="edge77" class="edge">
<title>u48&#45;&gt;u35</title>
<path fill="none" stroke="black" d="M4285.48,-2716.14C4189.1,-2665.81 3903.57,-2516.7 3796.2,-2460.64"/>
<polygon fill="black" stroke="black" points="3797.76,-2457.5 3787.28,-2455.98 3794.52,-2463.71 3797.76,-2457.5"/>
</g>
<!-- u46 -->
<g id="node28" class="node">
<title>u46</title>
<ellipse fill="#77ff77" stroke="black" cx="3239.77" cy="-3030" rx="233.16" ry="18"/>
<text text-anchor="middle" x="3239.77" y="-3026.3" font-family="Times,serif" font-size="14.00">Language.Drasil.Code.Imperative.WriteReadMe</text>
</g>
<!-- u46&#45;&gt;u35 -->
<g id="edge74" class="edge">
<title>u46&#45;&gt;u35</title>
<path fill="none" stroke="black" d="M3254.63,-3011.98C3327.45,-2928.55 3646.69,-2562.81 3733.12,-2463.8"/>
<polygon fill="black" stroke="black" points="3735.91,-2465.93 3739.85,-2456.09 3730.64,-2461.32 3735.91,-2465.93"/>
</g>
<!-- u45 -->
<g id="node29" class="node">
<title>u45</title>
<ellipse fill="#77ff77" stroke="black" cx="5673.77" cy="-3621" rx="209.06" ry="18"/>
<text text-anchor="middle" x="5673.77" y="-3617.3" font-family="Times,serif" font-size="14.00">Language.Drasil.Code.Imperative.Modules</text>
</g>
<!-- u33 -->
<g id="node31" class="node">
<title>u33</title>
<ellipse fill="#77ff77" stroke="black" cx="6152.77" cy="-3325" rx="228.26" ry="18"/>
<text text-anchor="middle" x="6152.77" y="-3321.3" font-family="Times,serif" font-size="14.00">Language.Drasil.Code.Imperative.Descriptions</text>
</g>
<!-- u45&#45;&gt;u33 -->
<g id="edge73" class="edge">
<title>u45&#45;&gt;u33</title>
<path fill="none" stroke="black" d="M5701.24,-3603.14C5782.91,-3553.01 6024.22,-3404.9 6116.41,-3348.32"/>
<polygon fill="black" stroke="black" points="6118.42,-3351.19 6125.11,-3342.98 6114.75,-3345.23 6118.42,-3351.19"/>
</g>
<!-- u21 -->
<g id="node40" class="node">
<title>u21</title>
<ellipse fill="#77ff77" stroke="black" cx="5673.77" cy="-3325" rx="233.16" ry="18"/>
<text text-anchor="middle" x="5673.77" y="-3321.3" font-family="Times,serif" font-size="14.00">Language.Drasil.Code.Imperative.FunctionCalls</text>
</g>
<!-- u45&#45;&gt;u21 -->
<g id="edge72" class="edge">
<title>u45&#45;&gt;u21</title>
<path fill="none" stroke="black" d="M5673.77,-3602.92C5673.77,-3554.01 5673.77,-3413.05 5673.77,-3353.3"/>
<polygon fill="black" stroke="black" points="5677.27,-3353.12 5673.77,-3343.12 5670.27,-3353.12 5677.27,-3353.12"/>
</g>
<!-- u34&#45;&gt;u8 -->
<g id="edge52" class="edge">
<title>u34&#45;&gt;u8</title>
<path fill="none" stroke="black" d="M4863.24,-2420.19C4759.84,-2369.87 4452.82,-2220.44 4338.92,-2165"/>
<polygon fill="black" stroke="black" points="4340.31,-2161.79 4329.78,-2160.56 4337.24,-2168.08 4340.31,-2161.79"/>
</g>
<!-- u34&#45;&gt;u54 -->
<g id="edge53" class="edge">
<title>u34&#45;&gt;u54</title>
<path fill="none" stroke="black" d="M4899.08,-2419.71C4902.23,-2371.87 4907.88,-2234.06 4878.77,-2125 4818.46,-1899.05 4664.73,-1657.13 4612.47,-1578.94"/>
<polygon fill="black" stroke="black" points="4615.1,-1576.57 4606.61,-1570.23 4609.29,-1580.48 4615.1,-1576.57"/>
</g>
<!-- u33&#45;&gt;u34 -->
<g id="edge51" class="edge">
<title>u33&#45;&gt;u34</title>
<path fill="none" stroke="black" d="M6168,-3306.8C6234.96,-3229.1 6492.99,-2906.4 6335.77,-2716 6181.54,-2529.23 5460.25,-2467.03 5101.48,-2447.44"/>
<polygon fill="black" stroke="black" points="5101.41,-2443.93 5091.24,-2446.88 5101.03,-2450.92 5101.41,-2443.93"/>
</g>
<!-- u32 -->
<g id="node32" class="node">
<title>u32</title>
<ellipse fill="#77ff77" stroke="black" cx="3904.77" cy="-2143" rx="237.46" ry="18"/>
<text text-anchor="middle" x="3904.77" y="-2139.3" font-family="Times,serif" font-size="14.00">Language.Drasil.Code.Imperative.ConceptMatch</text>
</g>
<!-- u32&#45;&gt;u55 -->
<g id="edge50" class="edge">
<title>u32&#45;&gt;u55</title>
<path fill="none" stroke="black" d="M3893.09,-2124.92C3859.3,-2075.5 3761.28,-1932.12 3721.18,-1873.46"/>
<polygon fill="black" stroke="black" points="3724.01,-1871.4 3715.48,-1865.12 3718.23,-1875.36 3724.01,-1871.4"/>
</g>
<!-- u31 -->
<g id="node33" class="node">
<title>u31</title>
<ellipse fill="#77ff77" stroke="black" cx="5297.77" cy="-3030" rx="201.46" ry="18"/>
<text text-anchor="middle" x="5297.77" y="-3026.3" font-family="Times,serif" font-size="14.00">Language.Drasil.Code.Imperative.Import</text>
</g>
<!-- u31&#45;&gt;u50 -->
<g id="edge49" class="edge">
<title>u31&#45;&gt;u50</title>
<path fill="none" stroke="black" d="M5342.95,-3012.46C5480.78,-2961.99 5895.58,-2810.12 6045.75,-2755.15"/>
<polygon fill="black" stroke="black" points="6047.06,-2758.39 6055.25,-2751.67 6044.65,-2751.82 6047.06,-2758.39"/>
</g>
<!-- u31&#45;&gt;u48 -->
<g id="edge48" class="edge">
<title>u31&#45;&gt;u48</title>
<path fill="none" stroke="black" d="M5243.33,-3012.67C5075.2,-2962.23 4564.56,-2809.04 4382.83,-2754.52"/>
<polygon fill="black" stroke="black" points="4383.72,-2751.13 4373.14,-2751.61 4381.71,-2757.84 4383.72,-2751.13"/>
</g>
<!-- u31&#45;&gt;u32 -->
<g id="edge47" class="edge">
<title>u31&#45;&gt;u32</title>
<path fill="none" stroke="black" d="M5155.51,-3017.24C4863.72,-2990.03 4212.78,-2912.42 4068.77,-2752 3969.56,-2641.48 4070.54,-2563.09 4030.77,-2420 4003.86,-2323.18 3947.08,-2217.38 3919.89,-2169.76"/>
<polygon fill="black" stroke="black" points="3922.89,-2167.95 3914.87,-2161.03 3916.83,-2171.44 3922.89,-2167.95"/>
</g>
<!-- u28 -->
<g id="node34" class="node">
<title>u28</title>
<ellipse fill="#77ff77" stroke="black" cx="4782.77" cy="-2734" rx="206.06" ry="18"/>
<text text-anchor="middle" x="4782.77" y="-2730.3" font-family="Times,serif" font-size="14.00">Language.Drasil.Code.Imperative.Helpers</text>
</g>
<!-- u31&#45;&gt;u28 -->
<g id="edge46" class="edge">
<title>u31&#45;&gt;u28</title>
<path fill="none" stroke="black" d="M5268.23,-3012.14C5180.25,-2961.91 4919.93,-2813.3 4821.27,-2756.98"/>
<polygon fill="black" stroke="black" points="4822.93,-2753.9 4812.51,-2751.98 4819.46,-2759.98 4822.93,-2753.9"/>
</g>
<!-- u23 -->
<g id="node39" class="node">
<title>u23</title>
<ellipse fill="#77ff77" stroke="black" cx="5226.77" cy="-2734" rx="219.86" ry="18"/>
<text text-anchor="middle" x="5226.77" y="-2730.3" font-family="Times,serif" font-size="14.00">Language.Drasil.Code.Imperative.Comments</text>
</g>
<!-- u31&#45;&gt;u23 -->
<g id="edge45" class="edge">
<title>u31&#45;&gt;u23</title>
<path fill="none" stroke="black" d="M5293.64,-3011.92C5281.81,-2962.9 5247.65,-2821.47 5233.27,-2761.93"/>
<polygon fill="black" stroke="black" points="5236.65,-2761.02 5230.9,-2752.12 5229.85,-2762.67 5236.65,-2761.02"/>
</g>
<!-- u18 -->
<g id="node43" class="node">
<title>u18</title>
<ellipse fill="#77ff77" stroke="black" cx="5671.77" cy="-2734" rx="207.16" ry="18"/>
<text text-anchor="middle" x="5671.77" y="-2730.3" font-family="Times,serif" font-size="14.00">Language.Drasil.Code.Imperative.Logging</text>
</g>
<!-- u31&#45;&gt;u18 -->
<g id="edge44" class="edge">
<title>u31&#45;&gt;u18</title>
<path fill="none" stroke="black" d="M5319.49,-3011.92C5383.14,-2961.89 5569.27,-2815.57 5642.08,-2758.33"/>
<polygon fill="black" stroke="black" points="5644.29,-2761.06 5649.98,-2752.12 5639.96,-2755.55 5644.29,-2761.06"/>
</g>
<!-- u28&#45;&gt;u34 -->
<g id="edge42" class="edge">
<title>u28&#45;&gt;u34</title>
<path fill="none" stroke="black" d="M4789.45,-2715.92C4808.66,-2666.8 4864.18,-2524.88 4887.38,-2465.56"/>
<polygon fill="black" stroke="black" points="4890.69,-2466.71 4891.07,-2456.12 4884.17,-2464.16 4890.69,-2466.71"/>
</g>
<!-- u27 -->
<g id="node35" class="node">
<title>u27</title>
<ellipse fill="#77ff77" stroke="black" cx="2762.77" cy="-2143" rx="219.86" ry="18"/>
<text text-anchor="middle" x="2762.77" y="-2139.3" font-family="Times,serif" font-size="14.00">Language.Drasil.Code.Imperative.WriteInput</text>
</g>
<!-- u27&#45;&gt;u17 -->
<g id="edge41" class="edge">
<title>u27&#45;&gt;u17</title>
<path fill="none" stroke="black" d="M2773.76,-2124.97C2816.97,-2056.36 2972.77,-1792.38 2972.77,-1553 2972.77,-1553 2972.77,-1553 2972.77,-1255 2972.77,-809.21 3663.69,-700.67 3977.23,-674.36"/>
<polygon fill="black" stroke="black" points="3977.63,-677.84 3987.31,-673.53 3977.06,-670.86 3977.63,-677.84"/>
</g>
<!-- u26 -->
<g id="node36" class="node">
<title>u26</title>
<ellipse fill="#77ff77" stroke="black" cx="6100.77" cy="-3030" rx="223.66" ry="18"/>
<text text-anchor="middle" x="6100.77" y="-3026.3" font-family="Times,serif" font-size="14.00">Language.Drasil.Code.Imperative.Parameters</text>
</g>
<!-- u26&#45;&gt;u50 -->
<g id="edge40" class="edge">
<title>u26&#45;&gt;u50</title>
<path fill="none" stroke="black" d="M6100.77,-3011.92C6100.77,-2963.01 6100.77,-2822.05 6100.77,-2762.3"/>
<polygon fill="black" stroke="black" points="6104.27,-2762.12 6100.77,-2752.12 6097.27,-2762.12 6104.27,-2762.12"/>
</g>
<!-- u26&#45;&gt;u34 -->
<g id="edge39" class="edge">
<title>u26&#45;&gt;u34</title>
<path fill="none" stroke="black" d="M6128.23,-3012.12C6203.39,-2963.9 6401.19,-2822.18 6313.77,-2716 6162.03,-2531.7 5451.28,-2468.29 5098.06,-2447.91"/>
<polygon fill="black" stroke="black" points="5098.15,-2444.41 5087.97,-2447.34 5097.75,-2451.4 5098.15,-2444.41"/>
</g>
<!-- u25&#45;&gt;u49 -->
<g id="edge38" class="edge">
<title>u25&#45;&gt;u49</title>
<path fill="none" stroke="black" d="M4836.94,-3897.98C4796.85,-3848.62 4680.39,-3705.24 4633.09,-3647.02"/>
<polygon fill="black" stroke="black" points="4635.65,-3644.62 4626.63,-3639.07 4630.22,-3649.04 4635.65,-3644.62"/>
</g>
<!-- u25&#45;&gt;u45 -->
<g id="edge37" class="edge">
<title>u25&#45;&gt;u45</title>
<path fill="none" stroke="black" d="M4897.37,-3898.41C5038.95,-3848 5463.69,-3696.79 5617.44,-3642.06"/>
<polygon fill="black" stroke="black" points="5618.92,-3645.24 5627.16,-3638.59 5616.57,-3638.65 5618.92,-3645.24"/>
</g>
<!-- u24 -->
<g id="node38" class="node">
<title>u24</title>
<ellipse fill="#77ff77" stroke="black" cx="4659.77" cy="-2143" rx="209.86" ry="18"/>
<text text-anchor="middle" x="4659.77" y="-2139.3" font-family="Times,serif" font-size="14.00">Language.Drasil.Code.Imperative.GenODE</text>
</g>
<!-- u25&#45;&gt;u24 -->
<g id="edge35" class="edge">
<title>u25&#45;&gt;u24</title>
<path fill="none" stroke="black" d="M4948.82,-3899.9C5290.6,-3844.57 6408.77,-3639.57 6408.77,-3326 6408.77,-3326 6408.77,-3326 6408.77,-2733 6408.77,-2391.13 5193.41,-2209.94 4788.94,-2159.1"/>
<polygon fill="black" stroke="black" points="4789.31,-2155.62 4778.95,-2157.85 4788.44,-2162.57 4789.31,-2155.62"/>
</g>
<!-- u19 -->
<g id="node42" class="node">
<title>u19</title>
<ellipse fill="#77ff77" stroke="black" cx="4307.77" cy="-3325" rx="226.66" ry="18"/>
<text text-anchor="middle" x="4307.77" y="-3321.3" font-family="Times,serif" font-size="14.00">Language.Drasil.Code.Imperative.SpaceMatch</text>
</g>
<!-- u25&#45;&gt;u19 -->
<g id="edge34" class="edge">
<title>u25&#45;&gt;u19</title>
<path fill="none" stroke="black" d="M4853.7,-3897.95C4861.35,-3847.76 4877.16,-3698.11 4812.77,-3603 4711.45,-3453.35 4501.49,-3376.94 4386.79,-3344.94"/>
<polygon fill="black" stroke="black" points="4387.57,-3341.53 4377,-3342.26 4385.72,-3348.28 4387.57,-3341.53"/>
</g>
<!-- u44 -->
<g id="node47" class="node">
<title>u44</title>
<ellipse fill="#ff7777" stroke="black" cx="4788.77" cy="-3030" rx="289.45" ry="18"/>
<text text-anchor="middle" x="4788.77" y="-3026.3" font-family="Times,serif" font-size="14.00">Language.Drasil.Code.Imperative.GOOL.LanguageRenderer</text>
</g>
<!-- u25&#45;&gt;u44 -->
<g id="edge36" class="edge">
<title>u25&#45;&gt;u44</title>
<path fill="none" stroke="black" d="M4850.06,-3897.74C4848.08,-3850.53 4842.16,-3715.3 4834.77,-3603 4820.96,-3393.22 4798.66,-3140.62 4791.25,-3058.34"/>
<polygon fill="black" stroke="black" points="4794.73,-3057.95 4790.34,-3048.3 4787.76,-3058.58 4794.73,-3057.95"/>
</g>
<!-- u24&#45;&gt;u55 -->
<g id="edge33" class="edge">
<title>u24&#45;&gt;u55</title>
<path fill="none" stroke="black" d="M4606.32,-2125.56C4440.94,-2074.7 3938.23,-1920.1 3763.99,-1866.52"/>
<polygon fill="black" stroke="black" points="3764.81,-1863.11 3754.22,-1863.52 3762.75,-1869.8 3764.81,-1863.11"/>
</g>
<!-- u24&#45;&gt;u13 -->
<g id="edge31" class="edge">
<title>u24&#45;&gt;u13</title>
<path fill="none" stroke="black" d="M4647.05,-2124.92C4610.23,-2075.5 4503.43,-1932.12 4459.74,-1873.46"/>
<polygon fill="black" stroke="black" points="4462.3,-1871.05 4453.52,-1865.12 4456.69,-1875.24 4462.3,-1871.05"/>
</g>
<!-- u24&#45;&gt;u54 -->
<g id="edge32" class="edge">
<title>u24&#45;&gt;u54</title>
<path fill="none" stroke="black" d="M4659.36,-2124.98C4658.09,-2077.82 4653.52,-1941.52 4640.77,-1829 4630.34,-1737.04 4609.96,-1629.09 4600.21,-1579.88"/>
<polygon fill="black" stroke="black" points="4603.63,-1579.15 4598.25,-1570.03 4596.77,-1580.52 4603.63,-1579.15"/>
</g>
<!-- u23&#45;&gt;u34 -->
<g id="edge30" class="edge">
<title>u23&#45;&gt;u34</title>
<path fill="none" stroke="black" d="M5207.66,-2715.92C5151.89,-2666.09 4989.26,-2520.76 4924.67,-2463.04"/>
<polygon fill="black" stroke="black" points="4926.72,-2460.18 4916.93,-2456.12 4922.06,-2465.4 4926.72,-2460.18"/>
</g>
<!-- u21&#45;&gt;u31 -->
<g id="edge28" class="edge">
<title>u21&#45;&gt;u31</title>
<path fill="none" stroke="black" d="M5651.93,-3306.98C5587.94,-3257.12 5400.81,-3111.3 5327.61,-3054.26"/>
<polygon fill="black" stroke="black" points="5329.71,-3051.45 5319.67,-3048.07 5325.41,-3056.97 5329.71,-3051.45"/>
</g>
<!-- u21&#45;&gt;u26 -->
<g id="edge27" class="edge">
<title>u21&#45;&gt;u26</title>
<path fill="none" stroke="black" d="M5698.57,-3306.98C5771.46,-3256.97 5985.04,-3110.41 6067.63,-3053.74"/>
<polygon fill="black" stroke="black" points="6069.63,-3056.61 6075.9,-3048.07 6065.67,-3050.84 6069.63,-3056.61"/>
</g>
<!-- u20&#45;&gt;u17 -->
<g id="edge26" class="edge">
<title>u20&#45;&gt;u17</title>
<path fill="none" stroke="black" d="M6570.74,-2421.37C6354.34,-2375.76 5794.77,-2221.69 5794.77,-1848 5794.77,-1848 5794.77,-1848 5794.77,-1255 5794.77,-923.92 4610.42,-732.42 4238.88,-680.49"/>
<polygon fill="black" stroke="black" points="4239.31,-677.02 4228.92,-679.11 4238.34,-683.95 4239.31,-677.02"/>
</g>
<!-- u19&#45;&gt;u34 -->
<g id="edge25" class="edge">
<title>u19&#45;&gt;u34</title>
<path fill="none" stroke="black" d="M4290.03,-3307.04C4213.32,-3231.65 3920.62,-2921.69 4068.77,-2716 4156.47,-2594.23 4603.5,-2495.27 4802.27,-2456.57"/>
<polygon fill="black" stroke="black" points="4802.97,-2460 4812.12,-2454.66 4801.63,-2453.12 4802.97,-2460"/>
</g>
<!-- u18&#45;&gt;u34 -->
<g id="edge24" class="edge">
<title>u18&#45;&gt;u34</title>
<path fill="none" stroke="black" d="M5627.94,-2716.35C5494.92,-2665.83 5096.13,-2514.35 4951.18,-2459.29"/>
<polygon fill="black" stroke="black" points="4952.19,-2455.93 4941.6,-2455.65 4949.7,-2462.47 4952.19,-2455.93"/>
</g>
<!-- u30 -->
<g id="node44" class="node">
<title>u30</title>
<ellipse fill="#ffff77" stroke="black" cx="2505.77" cy="-3030" rx="228.56" ry="18"/>
<text text-anchor="middle" x="2505.77" y="-3026.3" font-family="Times,serif" font-size="14.00">Language.Drasil.Code.Imperative.Build.Import</text>
</g>
<!-- u29 -->
<g id="node45" class="node">
<title>u29</title>
<ellipse fill="#ffff77" stroke="black" cx="2505.77" cy="-2734" rx="215.56" ry="18"/>
<text text-anchor="middle" x="2505.77" y="-2730.3" font-family="Times,serif" font-size="14.00">Language.Drasil.Code.Imperative.Build.AST</text>
</g>
<!-- u30&#45;&gt;u29 -->
<g id="edge43" class="edge">
<title>u30&#45;&gt;u29</title>
<path fill="none" stroke="black" d="M2505.77,-3011.92C2505.77,-2963.01 2505.77,-2822.05 2505.77,-2762.3"/>
<polygon fill="black" stroke="black" points="2509.27,-2762.12 2505.77,-2752.12 2502.27,-2762.12 2509.27,-2762.12"/>
</g>
<!-- u22 -->
<g id="node46" class="node">
<title>u22</title>
<ellipse fill="#7777ff" stroke="black" cx="3224.77" cy="-2438" rx="245.06" ry="18"/>
<text text-anchor="middle" x="3224.77" y="-2434.3" font-family="Times,serif" font-size="14.00">Language.Drasil.Code.Imperative.Doxygen.Import</text>
</g>
<!-- u22&#45;&gt;u55 -->
<g id="edge29" class="edge">
<title>u22&#45;&gt;u55</title>
<path fill="none" stroke="black" d="M3238.59,-2420.01C3306.26,-2336.8 3602.65,-1972.34 3683.39,-1873.05"/>
<polygon fill="black" stroke="black" points="3686.3,-1875.03 3689.89,-1865.06 3680.87,-1870.61 3686.3,-1875.03"/>
</g>
<!-- u35&#45;&gt;u55 -->
<g id="edge54" class="edge">
<title>u35&#45;&gt;u55</title>
<path fill="none" stroke="black" d="M3746.48,-2419.78C3726.48,-2377.16 3675.97,-2262.8 3658.77,-2161 3640.9,-2055.22 3676.53,-1928.56 3694.39,-1874.53"/>
<polygon fill="black" stroke="black" points="3697.73,-1875.6 3697.61,-1865.01 3691.09,-1873.36 3697.73,-1875.6"/>
</g>
<!-- u43&#45;&gt;u36 -->
<g id="edge70" class="edge">
<title>u43&#45;&gt;u36</title>
<path fill="none" stroke="black" d="M3302.3,-3602.92C3289.46,-3553.9 3252.41,-3412.47 3236.82,-3352.93"/>
<polygon fill="black" stroke="black" points="3240.17,-3351.91 3234.25,-3343.12 3233.4,-3353.69 3240.17,-3351.91"/>
</g>
<!-- u41 -->
<g id="node52" class="node">
<title>u41</title>
<ellipse fill="#77ffff" stroke="black" cx="2595.77" cy="-3325" rx="393.73" ry="18"/>
<text text-anchor="middle" x="2595.77" y="-3321.3" font-family="Times,serif" font-size="14.00">Language.Drasil.Code.Imperative.GOOL.LanguageRenderer.LanguagePolymorphic</text>
</g>
<!-- u43&#45;&gt;u41 -->
<g id="edge71" class="edge">
<title>u43&#45;&gt;u41</title>
<path fill="none" stroke="black" d="M3265.73,-3603.03C3143.26,-3552.39 2780.59,-3402.42 2646.42,-3346.94"/>
<polygon fill="black" stroke="black" points="2647.36,-3343.55 2636.78,-3342.96 2644.69,-3350.02 2647.36,-3343.55"/>
</g>
<!-- u42&#45;&gt;u36 -->
<g id="edge68" class="edge">
<title>u42&#45;&gt;u36</title>
<path fill="none" stroke="black" d="M4001.79,-3603.14C3860.27,-3552.34 3438.39,-3400.89 3285.71,-3346.08"/>
<polygon fill="black" stroke="black" points="3286.64,-3342.7 3276.05,-3342.61 3284.27,-3349.29 3286.64,-3342.7"/>
</g>
<!-- u42&#45;&gt;u41 -->
<g id="edge69" class="edge">
<title>u42&#45;&gt;u41</title>
<path fill="none" stroke="black" d="M3967.01,-3603.46C3715.38,-3552.54 2953.52,-3398.39 2688.13,-3344.69"/>
<polygon fill="black" stroke="black" points="2688.63,-3341.22 2678.14,-3342.67 2687.24,-3348.08 2688.63,-3341.22"/>
</g>
<!-- u41&#45;&gt;u46 -->
<g id="edge67" class="edge">
<title>u41&#45;&gt;u46</title>
<path fill="none" stroke="black" d="M2633.18,-3306.98C2744.13,-3256.5 3071.23,-3107.68 3193.21,-3052.18"/>
<polygon fill="black" stroke="black" points="3195.01,-3055.21 3202.66,-3047.88 3192.11,-3048.84 3195.01,-3055.21"/>
</g>
<!-- u41&#45;&gt;u27 -->
<g id="edge64" class="edge">
<title>u41&#45;&gt;u27</title>
<path fill="none" stroke="black" d="M2608.8,-3306.83C2639.48,-3265.21 2715.82,-3154.5 2743.77,-3048 2831.87,-2712.23 2781.94,-2282 2766.71,-2171.05"/>
<polygon fill="black" stroke="black" points="2770.16,-2170.46 2765.31,-2161.04 2763.23,-2171.43 2770.16,-2170.46"/>
</g>
<!-- u41&#45;&gt;u30 -->
<g id="edge65" class="edge">
<title>u41&#45;&gt;u30</title>
<path fill="none" stroke="black" d="M2590.54,-3306.98C2575.53,-3258.13 2532.24,-3117.17 2514.01,-3057.83"/>
<polygon fill="black" stroke="black" points="2517.29,-3056.6 2511.01,-3048.07 2510.6,-3058.65 2517.29,-3056.6"/>
</g>
<!-- u41&#45;&gt;u22 -->
<g id="edge63" class="edge">
<title>u41&#45;&gt;u22</title>
<path fill="none" stroke="black" d="M2608.05,-3306.72C2686.17,-3196.8 3113.47,-2595.6 3206.77,-2464.32"/>
<polygon fill="black" stroke="black" points="3209.72,-2466.21 3212.66,-2456.03 3204.02,-2462.15 3209.72,-2466.21"/>
</g>
<!-- u41&#45;&gt;u44 -->
<g id="edge66" class="edge">
<title>u41&#45;&gt;u44</title>
<path fill="none" stroke="black" d="M2716.8,-3307.83C3098.4,-3256.84 4274.04,-3099.77 4662.63,-3047.85"/>
<polygon fill="black" stroke="black" points="4663.33,-3051.29 4672.78,-3046.5 4662.4,-3044.35 4663.33,-3051.29"/>
</g>
<!-- u40&#45;&gt;u36 -->
<g id="edge61" class="edge">
<title>u40&#45;&gt;u36</title>
<path fill="none" stroke="black" d="M508.83,-3604.63C1006.87,-3553.63 2600.98,-3390.39 3087.45,-3340.57"/>
<polygon fill="black" stroke="black" points="3088.1,-3344.03 3097.69,-3339.53 3087.39,-3337.06 3088.1,-3344.03"/>
</g>
<!-- u40&#45;&gt;u41 -->
<g id="edge62" class="edge">
<title>u40&#45;&gt;u41</title>
<path fill="none" stroke="black" d="M480.23,-3604.04C866,-3553.34 2061.52,-3396.21 2462.85,-3343.47"/>
<polygon fill="black" stroke="black" points="2463.59,-3346.9 2473.05,-3342.13 2462.68,-3339.96 2463.59,-3346.9"/>
</g>
<!-- u39&#45;&gt;u36 -->
<g id="edge59" class="edge">
<title>u39&#45;&gt;u36</title>
<path fill="none" stroke="black" d="M1206.34,-3603.98C1578.87,-3552.81 2737.93,-3393.57 3112.06,-3342.17"/>
<polygon fill="black" stroke="black" points="3112.66,-3345.62 3122.09,-3340.79 3111.71,-3338.69 3112.66,-3345.62"/>
</g>
<!-- u39&#45;&gt;u41 -->
<g id="edge60" class="edge">
<title>u39&#45;&gt;u41</title>
<path fill="none" stroke="black" d="M1174.24,-3603.51C1435.04,-3552.6 2226.49,-3398.09 2500.88,-3344.52"/>
<polygon fill="black" stroke="black" points="2501.67,-3347.94 2510.82,-3342.58 2500.33,-3341.07 2501.67,-3347.94"/>
</g>
<!-- u38&#45;&gt;u36 -->
<g id="edge57" class="edge">
<title>u38&#45;&gt;u36</title>
<path fill="none" stroke="black" d="M1894.39,-3603.46C2140.47,-3552.33 2887.62,-3397.09 3143.06,-3344.02"/>
<polygon fill="black" stroke="black" points="3143.95,-3347.4 3153.03,-3341.94 3142.53,-3340.55 3143.95,-3347.4"/>
</g>
<!-- u38&#45;&gt;u41 -->
<g id="edge58" class="edge">
<title>u38&#45;&gt;u41</title>
<path fill="none" stroke="black" d="M1859.56,-3603.14C1994.06,-3552.51 2394.14,-3401.9 2540.95,-3346.63"/>
<polygon fill="black" stroke="black" points="2542.54,-3349.78 2550.67,-3342.98 2540.08,-3343.23 2542.54,-3349.78"/>
</g>
<!-- u37&#45;&gt;u36 -->
<g id="edge55" class="edge">
<title>u37&#45;&gt;u36</title>
<path fill="none" stroke="black" d="M2592.09,-3602.92C2708.98,-3552.16 3054.09,-3402.29 3181.66,-3346.89"/>
<polygon fill="black" stroke="black" points="3183.4,-3349.95 3191.18,-3342.76 3180.61,-3343.53 3183.4,-3349.95"/>
</g>
<!-- u37&#45;&gt;u41 -->
<g id="edge56" class="edge">
<title>u37&#45;&gt;u41</title>
<path fill="none" stroke="black" d="M2555.27,-3602.92C2562.42,-3554.01 2583.04,-3413.05 2591.78,-3353.3"/>
<polygon fill="black" stroke="black" points="2595.28,-3353.53 2593.26,-3343.12 2588.35,-3352.51 2595.28,-3353.53"/>
</g>
<!-- u47 -->
<g id="node57" class="node">
<title>u47</title>
<ellipse fill="#ff77ff" stroke="black" cx="5154.77" cy="-3325" rx="267.55" ry="18"/>
<text text-anchor="middle" x="5154.77" y="-3321.3" font-family="Times,serif" font-size="14.00">Language.Drasil.Code.Imperative.Parsers.ConfigParser</text>
</g>
<!-- u47&#45;&gt;u44 -->
<g id="edge75" class="edge">
<title>u47&#45;&gt;u44</title>
<path fill="none" stroke="black" d="M5133.51,-3306.98C5071.35,-3257.22 4889.81,-3111.89 4818.25,-3054.6"/>
<polygon fill="black" stroke="black" points="4820.08,-3051.58 4810.09,-3048.07 4815.71,-3057.05 4820.08,-3051.58"/>
</g>
<!-- u58&#45;&gt;u11 -->
<g id="edge94" class="edge">
<title>u58&#45;&gt;u11</title>
<path fill="none" stroke="black" d="M3483.62,-1237.72C3565.34,-1127.8 4012.34,-526.6 4109.94,-395.32"/>
<polygon fill="black" stroke="black" points="4112.95,-397.14 4116.11,-387.03 4107.33,-392.97 4112.95,-397.14"/>
</g>
<!-- u57&#45;&gt;u53 -->
<g id="edge92" class="edge">
<title>u57&#45;&gt;u53</title>
<path fill="none" stroke="black" d="M3825.43,-1534.56C3959.05,-1484.26 4362.19,-1332.51 4508.76,-1277.33"/>
<polygon fill="black" stroke="black" points="4510.32,-1280.48 4518.45,-1273.68 4507.86,-1273.93 4510.32,-1280.48"/>
</g>
<!-- u57&#45;&gt;u52 -->
<g id="edge91" class="edge">
<title>u57&#45;&gt;u52</title>
<path fill="none" stroke="black" d="M3781.77,-1533.92C3781.77,-1485.01 3781.77,-1344.05 3781.77,-1284.3"/>
<polygon fill="black" stroke="black" points="3785.27,-1284.12 3781.77,-1274.12 3778.27,-1284.12 3785.27,-1284.12"/>
</g>
<!-- u57&#45;&gt;u51 -->
<g id="edge90" class="edge">
<title>u57&#45;&gt;u51</title>
<path fill="none" stroke="black" d="M3802.97,-1533.92C3864.96,-1483.99 4046,-1338.16 4117.36,-1280.68"/>
<polygon fill="black" stroke="black" points="4119.92,-1283.12 4125.51,-1274.12 4115.52,-1277.67 4119.92,-1283.12"/>
</g>
<!-- u57&#45;&gt;u58 -->
<g id="edge93" class="edge">
<title>u57&#45;&gt;u58</title>
<path fill="none" stroke="black" d="M3763.7,-1533.92C3710.99,-1484.09 3557.25,-1338.76 3496.19,-1281.04"/>
<polygon fill="black" stroke="black" points="3498.55,-1278.45 3488.88,-1274.12 3493.75,-1283.54 3498.55,-1278.45"/>
</g>
<!-- u3 -->
<g id="node60" class="node">
<title>u3</title>
<ellipse fill="#bbff77" stroke="black" cx="2317.77" cy="-4507" rx="108.58" ry="18"/>
<text text-anchor="middle" x="2317.77" y="-4503.3" font-family="Times,serif" font-size="14.00">drasil&#45;code.test.Main</text>
</g>
<!-- u3&#45;&gt;u7 -->
<g id="edge5" class="edge">
<title>u3&#45;&gt;u7</title>
<path fill="none" stroke="black" d="M2323,-4488.98C2338,-4440.13 2381.3,-4299.17 2399.53,-4239.83"/>
<polygon fill="black" stroke="black" points="2402.94,-4240.65 2402.53,-4230.07 2396.24,-4238.6 2402.94,-4240.65"/>
</g>
<!-- u3&#45;&gt;u6 -->
<g id="edge4" class="edge">
<title>u3&#45;&gt;u6</title>
<path fill="none" stroke="black" d="M2330.72,-4488.98C2368.3,-4439.61 2477.48,-4296.16 2521.77,-4237.96"/>
<polygon fill="black" stroke="black" points="2524.79,-4239.78 2528.06,-4229.7 2519.22,-4235.54 2524.79,-4239.78"/>
</g>
<!-- u3&#45;&gt;u1 -->
<g id="edge2" class="edge">
<title>u3&#45;&gt;u1</title>
<path fill="none" stroke="black" d="M2294.65,-4489.19C2226.05,-4439.32 2023.54,-4292.08 1945.72,-4235.5"/>
<polygon fill="black" stroke="black" points="1947.44,-4232.42 1937.29,-4229.38 1943.32,-4238.09 1947.44,-4232.42"/>
</g>
<!-- u3&#45;&gt;u0 -->
<g id="edge1" class="edge">
<title>u3&#45;&gt;u0</title>
<path fill="none" stroke="black" d="M2303.3,-4488.98C2261.26,-4439.51 2138.94,-4295.57 2089.68,-4237.61"/>
<polygon fill="black" stroke="black" points="2092.1,-4235.05 2082.96,-4229.7 2086.77,-4239.59 2092.1,-4235.05"/>
</g>
<!-- u3&#45;&gt;u4 -->
<g id="edge3" class="edge">
<title>u3&#45;&gt;u4</title>
<path fill="none" stroke="black" d="M2313.35,-4488.98C2300.68,-4440.13 2264.12,-4299.17 2248.73,-4239.83"/>
<polygon fill="black" stroke="black" points="2252.09,-4238.87 2246.19,-4230.07 2245.32,-4240.62 2252.09,-4238.87"/>
</g>
<!-- u3&#45;&gt;u9 -->
<g id="edge6" class="edge">
<title>u3&#45;&gt;u9</title>
<path fill="none" stroke="black" d="M2341.33,-4489.41C2411.81,-4439.77 2621.12,-4292.34 2701.67,-4235.61"/>
<polygon fill="black" stroke="black" points="2703.79,-4238.39 2709.95,-4229.77 2699.76,-4232.67 2703.79,-4238.39"/>
</g>
</g>
</svg>
