<?xml version="1.0" encoding="UTF-8" standalone="no"?>
<!DOCTYPE svg PUBLIC "-//W3C//DTD SVG 1.1//EN"
 "http://www.w3.org/Graphics/SVG/1.1/DTD/svg11.dtd">
<!-- Generated by graphviz version 2.43.0 (0)
 -->
<!-- Title: G Pages: 1 -->
<svg width="432pt" height="288pt"
 viewBox="0.00 0.00 431.78 288.00" xmlns="http://www.w3.org/2000/svg" xmlns:xlink="http://www.w3.org/1999/xlink">
<g id="graph0" class="graph" transform="scale(13.57 13.57) rotate(0) translate(4 3904)">
<title>G</title>
<polygon fill="white" stroke="transparent" points="-4,4 -4,-3904 5854.95,-3904 5854.95,4 -4,4"/>
<!-- u7 -->
<g id="node1" class="node">
<title>u7</title>
<ellipse fill="#bbffbb" stroke="black" cx="2223.22" cy="-3334" rx="53.89" ry="18"/>
<text text-anchor="middle" x="2223.22" y="-3330.3" font-family="Times,serif" font-size="14.00">Observer</text>
</g>
<!-- u6 -->
<g id="node2" class="node">
<title>u6</title>
<ellipse fill="#bbffbb" stroke="black" cx="2368.22" cy="-3334" rx="42.49" ry="18"/>
<text text-anchor="middle" x="2368.22" y="-3330.3" font-family="Times,serif" font-size="14.00">Helper</text>
</g>
<!-- u5 -->
<g id="node3" class="node">
<title>u5</title>
<ellipse fill="#bbffbb" stroke="black" cx="2064.22" cy="-3585" rx="76.09" ry="18"/>
<text text-anchor="middle" x="2064.22" y="-3581.3" font-family="Times,serif" font-size="14.00">NameGenTest</text>
</g>
<!-- u4 -->
<g id="node4" class="node">
<title>u4</title>
<ellipse fill="#bbffbb" stroke="black" cx="2223.22" cy="-3585" rx="64.99" ry="18"/>
<text text-anchor="middle" x="2223.22" y="-3581.3" font-family="Times,serif" font-size="14.00">PatternTest</text>
</g>
<!-- u4&#45;&gt;u7 -->
<g id="edge8" class="edge">
<title>u4&#45;&gt;u7</title>
<path fill="none" stroke="black" d="M2223.22,-3566.89C2223.22,-3524.42 2223.22,-3413.92 2223.22,-3362.31"/>
<polygon fill="black" stroke="black" points="2226.72,-3362.23 2223.22,-3352.23 2219.72,-3362.23 2226.72,-3362.23"/>
</g>
<!-- u2 -->
<g id="node5" class="node">
<title>u2</title>
<ellipse fill="#bbffbb" stroke="black" cx="2368.22" cy="-3585" rx="62.29" ry="18"/>
<text text-anchor="middle" x="2368.22" y="-3581.3" font-family="Times,serif" font-size="14.00">HelloWorld</text>
</g>
<!-- u2&#45;&gt;u6 -->
<g id="edge1" class="edge">
<title>u2&#45;&gt;u6</title>
<path fill="none" stroke="black" d="M2368.22,-3566.89C2368.22,-3524.42 2368.22,-3413.92 2368.22,-3362.31"/>
<polygon fill="black" stroke="black" points="2371.72,-3362.23 2368.22,-3352.23 2364.72,-3362.23 2371.72,-3362.23"/>
</g>
<!-- u1 -->
<g id="node6" class="node">
<title>u1</title>
<ellipse fill="#bbffbb" stroke="black" cx="1780.22" cy="-3585" rx="52.79" ry="18"/>
<text text-anchor="middle" x="1780.22" y="-3581.3" font-family="Times,serif" font-size="14.00">FileTests</text>
</g>
<!-- u0 -->
<g id="node7" class="node">
<title>u0</title>
<ellipse fill="#bbffbb" stroke="black" cx="1910.22" cy="-3585" rx="59.59" ry="18"/>
<text text-anchor="middle" x="1910.22" y="-3581.3" font-family="Times,serif" font-size="14.00">VectorTest</text>
</g>
<!-- u58 -->
<g id="node8" class="node">
<title>u58</title>
<ellipse fill="#ffffbb" stroke="black" cx="2561.22" cy="-3837" rx="214.46" ry="18"/>
<text text-anchor="middle" x="2561.22" y="-3833.3" font-family="Times,serif" font-size="14.00">Data.Drasil.ExternalLibraries.ODELibraries</text>
</g>
<!-- u57 -->
<g id="node9" class="node">
<title>u57</title>
<ellipse fill="#bbbbff" stroke="black" cx="2561.22" cy="-3585" rx="113.18" ry="18"/>
<text text-anchor="middle" x="2561.22" y="-3581.3" font-family="Times,serif" font-size="14.00">Language.Drasil.Code</text>
</g>
<!-- u58&#45;&gt;u57 -->
<g id="edge92" class="edge">
<title>u58&#45;&gt;u57</title>
<path fill="none" stroke="black" d="M2561.22,-3818.82C2561.22,-3776.18 2561.22,-3665.24 2561.22,-3613.42"/>
<polygon fill="black" stroke="black" points="2564.72,-3613.3 2561.22,-3603.3 2557.72,-3613.3 2564.72,-3613.3"/>
</g>
<!-- u35 -->
<g id="node36" class="node">
<title>u35</title>
<ellipse fill="#ffbbff" stroke="black" cx="4421.22" cy="-3334" rx="217.16" ry="18"/>
<text text-anchor="middle" x="4421.22" y="-3330.3" font-family="Times,serif" font-size="14.00">Language.Drasil.Code.Imperative.Generator</text>
</g>
<!-- u57&#45;&gt;u35 -->
<g id="edge91" class="edge">
<title>u57&#45;&gt;u35</title>
<path fill="none" stroke="black" d="M2644.75,-3572.82C2942.68,-3532.93 3953.89,-3397.56 4302.18,-3350.94"/>
<polygon fill="black" stroke="black" points="4302.84,-3354.38 4312.29,-3349.58 4301.91,-3347.44 4302.84,-3354.38"/>
</g>
<!-- u33 -->
<g id="node38" class="node">
<title>u33</title>
<ellipse fill="#ffbbff" stroke="black" cx="5633.22" cy="-2076" rx="217.96" ry="18"/>
<text text-anchor="middle" x="5633.22" y="-2072.3" font-family="Times,serif" font-size="14.00">Language.Drasil.Code.Imperative.ReadInput</text>
</g>
<!-- u57&#45;&gt;u33 -->
<g id="edge90" class="edge">
<title>u57&#45;&gt;u33</title>
<path fill="none" stroke="black" d="M2664.68,-3577.72C3189.14,-3544.56 5529.22,-3379.97 5529.22,-3083 5529.22,-3083 5529.22,-3083 5529.22,-2578 5529.22,-2393.04 5598.01,-2177.54 5623.7,-2103.53"/>
<polygon fill="black" stroke="black" points="5627.02,-2104.63 5627.02,-2094.04 5620.41,-2102.32 5627.02,-2104.63"/>
</g>
<!-- u24 -->
<g id="node50" class="node">
<title>u24</title>
<ellipse fill="#ff7777" stroke="black" cx="3307.22" cy="-3082" rx="369.33" ry="18"/>
<text text-anchor="middle" x="3307.22" y="-3078.3" font-family="Times,serif" font-size="14.00">Language.Drasil.Code.Imperative.GOOL.LanguageRenderer.CSharpRenderer</text>
</g>
<!-- u57&#45;&gt;u24 -->
<g id="edge89" class="edge">
<title>u57&#45;&gt;u24</title>
<path fill="none" stroke="black" d="M2586.04,-3567.33C2696.77,-3492.97 3145.8,-3191.4 3273.31,-3105.77"/>
<polygon fill="black" stroke="black" points="3275.57,-3108.47 3281.92,-3099.99 3271.67,-3102.66 3275.57,-3108.47"/>
</g>
<!-- u23 -->
<g id="node51" class="node">
<title>u23</title>
<ellipse fill="#ff7777" stroke="black" cx="367.22" cy="-3082" rx="367.43" ry="18"/>
<text text-anchor="middle" x="367.22" y="-3078.3" font-family="Times,serif" font-size="14.00">Language.Drasil.Code.Imperative.GOOL.LanguageRenderer.PythonRenderer</text>
</g>
<!-- u57&#45;&gt;u23 -->
<g id="edge88" class="edge">
<title>u57&#45;&gt;u23</title>
<path fill="none" stroke="black" d="M2554.62,-3566.91C2533.4,-3512.91 2465.66,-3347.66 2419.22,-3316 2271.09,-3215.03 1101.99,-3129.61 597.58,-3097.08"/>
<polygon fill="black" stroke="black" points="597.46,-3093.56 587.26,-3096.41 597.01,-3100.55 597.46,-3093.56"/>
</g>
<!-- u21 -->
<g id="node53" class="node">
<title>u21</title>
<ellipse fill="#ff7777" stroke="black" cx="1106.22" cy="-3082" rx="354.44" ry="18"/>
<text text-anchor="middle" x="1106.22" y="-3078.3" font-family="Times,serif" font-size="14.00">Language.Drasil.Code.Imperative.GOOL.LanguageRenderer.JavaRenderer</text>
</g>
<!-- u57&#45;&gt;u21 -->
<g id="edge87" class="edge">
<title>u57&#45;&gt;u21</title>
<path fill="none" stroke="black" d="M2560.08,-3566.89C2555.92,-3518.86 2537.15,-3382.01 2456.22,-3316 2289.84,-3180.31 1686.75,-3120.13 1345.63,-3096.43"/>
<polygon fill="black" stroke="black" points="1345.84,-3092.94 1335.62,-3095.74 1345.35,-3099.92 1345.84,-3092.94"/>
</g>
<!-- u20 -->
<g id="node54" class="node">
<title>u20</title>
<ellipse fill="#ff7777" stroke="black" cx="1831.22" cy="-3082" rx="352.84" ry="18"/>
<text text-anchor="middle" x="1831.22" y="-3078.3" font-family="Times,serif" font-size="14.00">Language.Drasil.Code.Imperative.GOOL.LanguageRenderer.CppRenderer</text>
</g>
<!-- u57&#45;&gt;u20 -->
<g id="edge86" class="edge">
<title>u57&#45;&gt;u20</title>
<path fill="none" stroke="black" d="M2562.28,-3566.72C2564.19,-3519.97 2562.9,-3389.64 2496.22,-3316 2372.2,-3179.05 2163.06,-3122.59 2012.4,-3099.32"/>
<polygon fill="black" stroke="black" points="2012.52,-3095.8 2002.11,-3097.77 2011.47,-3102.72 2012.52,-3095.8"/>
</g>
<!-- u19 -->
<g id="node55" class="node">
<title>u19</title>
<ellipse fill="#ff7777" stroke="black" cx="2561.22" cy="-3082" rx="358.54" ry="18"/>
<text text-anchor="middle" x="2561.22" y="-3078.3" font-family="Times,serif" font-size="14.00">Language.Drasil.Code.Imperative.GOOL.LanguageRenderer.SwiftRenderer</text>
</g>
<!-- u57&#45;&gt;u19 -->
<g id="edge85" class="edge">
<title>u57&#45;&gt;u19</title>
<path fill="none" stroke="black" d="M2561.22,-3566.75C2561.22,-3492.68 2561.22,-3201.17 2561.22,-3110.24"/>
<polygon fill="black" stroke="black" points="2564.72,-3110.17 2561.22,-3100.17 2557.72,-3110.17 2564.72,-3110.17"/>
</g>
<!-- u56 -->
<g id="node10" class="node">
<title>u56</title>
<ellipse fill="#bbbbff" stroke="black" cx="3059.22" cy="-1573" rx="126.18" ry="18"/>
<text text-anchor="middle" x="3059.22" y="-1569.3" font-family="Times,serif" font-size="14.00">Language.Drasil.Choices</text>
</g>
<!-- u53 -->
<g id="node19" class="node">
<title>u53</title>
<ellipse fill="#bbffff" stroke="black" cx="2663.22" cy="-1321" rx="139.98" ry="18"/>
<text text-anchor="middle" x="2663.22" y="-1317.3" font-family="Times,serif" font-size="14.00">Language.Drasil.Code.Code</text>
</g>
<!-- u56&#45;&gt;u53 -->
<g id="edge83" class="edge">
<title>u56&#45;&gt;u53</title>
<path fill="none" stroke="black" d="M3032.62,-1555.21C2963.16,-1511.36 2776.28,-1393.38 2698.23,-1344.1"/>
<polygon fill="black" stroke="black" points="2700.02,-1341.1 2689.7,-1338.72 2696.29,-1347.02 2700.02,-1341.1"/>
</g>
<!-- u55 -->
<g id="node57" class="node">
<title>u55</title>
<ellipse fill="#ff77ff" stroke="black" cx="3458.22" cy="-1321" rx="172.77" ry="18"/>
<text text-anchor="middle" x="3458.22" y="-1317.3" font-family="Times,serif" font-size="14.00">Language.Drasil.Data.ODELibPckg</text>
</g>
<!-- u56&#45;&gt;u55 -->
<g id="edge84" class="edge">
<title>u56&#45;&gt;u55</title>
<path fill="none" stroke="black" d="M3086.02,-1555.21C3155.92,-1511.41 3343.84,-1393.66 3422.66,-1344.28"/>
<polygon fill="black" stroke="black" points="3424.66,-1347.16 3431.27,-1338.88 3420.94,-1341.23 3424.66,-1347.16"/>
</g>
<!-- u9 -->
<g id="node11" class="node">
<title>u9</title>
<ellipse fill="#bbbbff" stroke="black" cx="4154.22" cy="-818" rx="110.48" ry="18"/>
<text text-anchor="middle" x="4154.22" y="-814.3" font-family="Times,serif" font-size="14.00">Language.Drasil.Mod</text>
</g>
<!-- u15 -->
<g id="node13" class="node">
<title>u15</title>
<ellipse fill="#ffbbbb" stroke="black" cx="4154.22" cy="-566" rx="170.87" ry="18"/>
<text text-anchor="middle" x="4154.22" y="-562.3" font-family="Times,serif" font-size="14.00">Language.Drasil.Chunk.Parameter</text>
</g>
<!-- u9&#45;&gt;u15 -->
<g id="edge12" class="edge">
<title>u9&#45;&gt;u15</title>
<path fill="none" stroke="black" d="M4154.22,-799.82C4154.22,-757.18 4154.22,-646.24 4154.22,-594.42"/>
<polygon fill="black" stroke="black" points="4157.72,-594.3 4154.22,-584.3 4150.72,-594.3 4157.72,-594.3"/>
</g>
<!-- u16 -->
<g id="node26" class="node">
<title>u16</title>
<ellipse fill="#bbffff" stroke="black" cx="3805.22" cy="-566" rx="160.57" ry="18"/>
<text text-anchor="middle" x="3805.22" y="-562.3" font-family="Times,serif" font-size="14.00">Language.Drasil.Code.DataDesc</text>
</g>
<!-- u9&#45;&gt;u16 -->
<g id="edge13" class="edge">
<title>u9&#45;&gt;u16</title>
<path fill="none" stroke="black" d="M4130.78,-800.21C4069.95,-756.64 3906.98,-639.9 3837.41,-590.06"/>
<polygon fill="black" stroke="black" points="3839.18,-587.03 3829.02,-584.05 3835.11,-592.72 3839.18,-587.03"/>
</g>
<!-- u8 -->
<g id="node12" class="node">
<title>u8</title>
<ellipse fill="#bbbbff" stroke="black" cx="3451.22" cy="-1824" rx="135.68" ry="18"/>
<text text-anchor="middle" x="3451.22" y="-1820.3" font-family="Times,serif" font-size="14.00">Language.Drasil.CodeSpec</text>
</g>
<!-- u8&#45;&gt;u56 -->
<g id="edge11" class="edge">
<title>u8&#45;&gt;u56</title>
<path fill="none" stroke="black" d="M3424.89,-1806.28C3356.27,-1762.69 3171.89,-1645.57 3094.34,-1596.31"/>
<polygon fill="black" stroke="black" points="3095.75,-1593.06 3085.43,-1590.65 3092,-1598.97 3095.75,-1593.06"/>
</g>
<!-- u12 -->
<g id="node16" class="node">
<title>u12</title>
<ellipse fill="#ffbbbb" stroke="black" cx="3395.22" cy="-1573" rx="192.27" ry="18"/>
<text text-anchor="middle" x="3395.22" y="-1569.3" font-family="Times,serif" font-size="14.00">Language.Drasil.Chunk.ConstraintMap</text>
</g>
<!-- u8&#45;&gt;u12 -->
<g id="edge10" class="edge">
<title>u8&#45;&gt;u12</title>
<path fill="none" stroke="black" d="M3447.37,-1805.89C3437.82,-1763.42 3412.97,-1652.92 3401.36,-1601.31"/>
<polygon fill="black" stroke="black" points="3404.7,-1600.22 3399.09,-1591.23 3397.87,-1601.76 3404.7,-1600.22"/>
</g>
<!-- u10 -->
<g id="node18" class="node">
<title>u10</title>
<ellipse fill="#ffbbbb" stroke="black" cx="3796.22" cy="-1573" rx="191.17" ry="18"/>
<text text-anchor="middle" x="3796.22" y="-1569.3" font-family="Times,serif" font-size="14.00">Language.Drasil.Chunk.CodeDefinition</text>
</g>
<!-- u8&#45;&gt;u10 -->
<g id="edge9" class="edge">
<title>u8&#45;&gt;u10</title>
<path fill="none" stroke="black" d="M3474.66,-1806.08C3535.02,-1762.52 3695.83,-1646.46 3764.46,-1596.92"/>
<polygon fill="black" stroke="black" points="3766.68,-1599.63 3772.74,-1590.94 3762.59,-1593.96 3766.68,-1599.63"/>
</g>
<!-- u14 -->
<g id="node14" class="node">
<title>u14</title>
<ellipse fill="#ffbbbb" stroke="black" cx="3805.22" cy="-315" rx="145.67" ry="18"/>
<text text-anchor="middle" x="3805.22" y="-311.3" font-family="Times,serif" font-size="14.00">Language.Drasil.Chunk.Code</text>
</g>
<!-- u15&#45;&gt;u14 -->
<g id="edge16" class="edge">
<title>u15&#45;&gt;u14</title>
<path fill="none" stroke="black" d="M4130.5,-548.08C4069.45,-504.52 3906.77,-388.46 3837.34,-338.92"/>
<polygon fill="black" stroke="black" points="3839.14,-335.9 3828.96,-332.94 3835.07,-341.6 3839.14,-335.9"/>
</g>
<!-- u11 -->
<g id="node17" class="node">
<title>u11</title>
<ellipse fill="#ffbbbb" stroke="black" cx="3805.22" cy="-63" rx="168.17" ry="18"/>
<text text-anchor="middle" x="3805.22" y="-59.3" font-family="Times,serif" font-size="14.00">Language.Drasil.Chunk.CodeBase</text>
</g>
<!-- u14&#45;&gt;u11 -->
<g id="edge15" class="edge">
<title>u14&#45;&gt;u11</title>
<path fill="none" stroke="black" d="M3805.22,-296.82C3805.22,-254.18 3805.22,-143.24 3805.22,-91.42"/>
<polygon fill="black" stroke="black" points="3808.72,-91.3 3805.22,-81.3 3801.72,-91.3 3808.72,-91.3"/>
</g>
<!-- u13 -->
<g id="node15" class="node">
<title>u13</title>
<ellipse fill="#ffbbbb" stroke="black" cx="3823.22" cy="-818" rx="202.26" ry="18"/>
<text text-anchor="middle" x="3823.22" y="-814.3" font-family="Times,serif" font-size="14.00">Language.Drasil.Chunk.NamedArgument</text>
</g>
<!-- u54 -->
<g id="node58" class="node">
<title>u54</title>
<ellipse fill="#ff77ff" stroke="black" cx="3147.22" cy="-1069" rx="154.07" ry="18"/>
<text text-anchor="middle" x="3147.22" y="-1065.3" font-family="Times,serif" font-size="14.00">Language.Drasil.Data.ODEInfo</text>
</g>
<!-- u10&#45;&gt;u54 -->
<g id="edge14" class="edge">
<title>u10&#45;&gt;u54</title>
<path fill="none" stroke="black" d="M3723.31,-1556.35C3613.59,-1529.41 3405.17,-1464.65 3276.22,-1339 3204.21,-1268.83 3167.23,-1150.4 3153.56,-1097.25"/>
<polygon fill="black" stroke="black" points="3156.88,-1096.09 3151.07,-1087.23 3150.09,-1097.78 3156.88,-1096.09"/>
</g>
<!-- u52 -->
<g id="node20" class="node">
<title>u52</title>
<ellipse fill="#bbffff" stroke="black" cx="4239.22" cy="-1069" rx="190.37" ry="18"/>
<text text-anchor="middle" x="4239.22" y="-1065.3" font-family="Times,serif" font-size="14.00">Language.Drasil.Code.ExternalLibrary</text>
</g>
<!-- u52&#45;&gt;u9 -->
<g id="edge76" class="edge">
<title>u52&#45;&gt;u9</title>
<path fill="none" stroke="black" d="M4233.38,-1050.89C4218.85,-1008.33 4181,-897.46 4163.43,-845.99"/>
<polygon fill="black" stroke="black" points="4166.64,-844.57 4160.1,-836.23 4160.02,-846.83 4166.64,-844.57"/>
</g>
<!-- u52&#45;&gt;u13 -->
<g id="edge77" class="edge">
<title>u52&#45;&gt;u13</title>
<path fill="none" stroke="black" d="M4210.95,-1051.08C4137.88,-1007.34 3942.69,-890.51 3860.51,-841.32"/>
<polygon fill="black" stroke="black" points="3861.9,-838.08 3851.52,-835.94 3858.31,-844.08 3861.9,-838.08"/>
</g>
<!-- u51 -->
<g id="node21" class="node">
<title>u51</title>
<ellipse fill="#bbffff" stroke="black" cx="3823.22" cy="-1069" rx="207.96" ry="18"/>
<text text-anchor="middle" x="3823.22" y="-1065.3" font-family="Times,serif" font-size="14.00">Language.Drasil.Code.ExternalLibraryCall</text>
</g>
<!-- u51&#45;&gt;u9 -->
<g id="edge74" class="edge">
<title>u51&#45;&gt;u9</title>
<path fill="none" stroke="black" d="M3845.71,-1051.08C3903.5,-1007.61 4057.27,-891.93 4123.34,-842.23"/>
<polygon fill="black" stroke="black" points="4125.81,-844.75 4131.7,-835.94 4121.6,-839.16 4125.81,-844.75"/>
</g>
<!-- u51&#45;&gt;u13 -->
<g id="edge75" class="edge">
<title>u51&#45;&gt;u13</title>
<path fill="none" stroke="black" d="M3823.22,-1050.89C3823.22,-1008.42 3823.22,-897.92 3823.22,-846.31"/>
<polygon fill="black" stroke="black" points="3826.72,-846.23 3823.22,-836.23 3819.72,-846.23 3826.72,-846.23"/>
</g>
<!-- u50 -->
<g id="node22" class="node">
<title>u50</title>
<ellipse fill="#bbffff" stroke="black" cx="3458.22" cy="-1069" rx="139.18" ry="18"/>
<text text-anchor="middle" x="3458.22" y="-1065.3" font-family="Times,serif" font-size="14.00">Language.Drasil.Code.Lang</text>
</g>
<!-- u49 -->
<g id="node23" class="node">
<title>u49</title>
<ellipse fill="#bbffff" stroke="black" cx="3885.22" cy="-3082" rx="191.17" ry="18"/>
<text text-anchor="middle" x="3885.22" y="-3078.3" font-family="Times,serif" font-size="14.00">Language.Drasil.Code.CodeGeneration</text>
</g>
<!-- u49&#45;&gt;u53 -->
<g id="edge73" class="edge">
<title>u49&#45;&gt;u53</title>
<path fill="none" stroke="black" d="M3797.93,-3065.98C3495.31,-3012.25 2497.42,-2820.87 2274.22,-2597 2179.62,-2502.13 2248.27,-2427.21 2185.22,-2309 2121.33,-2189.24 1963.09,-2184.92 2011.22,-2058 2142.18,-1712.66 2517.5,-1425.33 2630.59,-1344.63"/>
<polygon fill="black" stroke="black" points="2632.75,-1347.39 2638.88,-1338.75 2628.7,-1341.68 2632.75,-1347.39"/>
</g>
<!-- u17 -->
<g id="node49" class="node">
<title>u17</title>
<ellipse fill="#7777ff" stroke="black" cx="2465.22" cy="-2831" rx="222.06" ry="18"/>
<text text-anchor="middle" x="2465.22" y="-2827.3" font-family="Times,serif" font-size="14.00">Language.Drasil.Code.Imperative.GOOL.Data</text>
</g>
<!-- u49&#45;&gt;u17 -->
<g id="edge72" class="edge">
<title>u49&#45;&gt;u17</title>
<path fill="none" stroke="black" d="M3799.06,-3065.89C3549.74,-3022.17 2828.55,-2895.71 2564.01,-2849.32"/>
<polygon fill="black" stroke="black" points="2564.49,-2845.85 2554.04,-2847.57 2563.28,-2852.75 2564.49,-2845.85"/>
</g>
<!-- u48 -->
<g id="node24" class="node">
<title>u48</title>
<ellipse fill="#bbffff" stroke="black" cx="4642.22" cy="-2327" rx="204.16" ry="18"/>
<text text-anchor="middle" x="4642.22" y="-2323.3" font-family="Times,serif" font-size="14.00">Language.Drasil.Code.CodeQuantityDicts</text>
</g>
<!-- u47 -->
<g id="node25" class="node">
<title>u47</title>
<ellipse fill="#bbffff" stroke="black" cx="4034.22" cy="-1321" rx="178.97" ry="18"/>
<text text-anchor="middle" x="4034.22" y="-1317.3" font-family="Times,serif" font-size="14.00">Language.Drasil.Code.ExtLibImport</text>
</g>
<!-- u47&#45;&gt;u52 -->
<g id="edge71" class="edge">
<title>u47&#45;&gt;u52</title>
<path fill="none" stroke="black" d="M4048.31,-1302.82C4083.87,-1259.45 4177.37,-1145.43 4218.87,-1094.81"/>
<polygon fill="black" stroke="black" points="4221.67,-1096.93 4225.3,-1086.97 4216.25,-1092.49 4221.67,-1096.93"/>
</g>
<!-- u47&#45;&gt;u51 -->
<g id="edge70" class="edge">
<title>u47&#45;&gt;u51</title>
<path fill="none" stroke="black" d="M4019.71,-1302.82C3983.11,-1259.45 3886.88,-1145.43 3844.16,-1094.81"/>
<polygon fill="black" stroke="black" points="3846.67,-1092.36 3837.54,-1086.97 3841.32,-1096.87 3846.67,-1092.36"/>
</g>
<!-- u16&#45;&gt;u14 -->
<g id="edge17" class="edge">
<title>u16&#45;&gt;u14</title>
<path fill="none" stroke="black" d="M3805.22,-547.89C3805.22,-505.42 3805.22,-394.92 3805.22,-343.31"/>
<polygon fill="black" stroke="black" points="3808.72,-343.23 3805.22,-333.23 3801.72,-343.23 3808.72,-343.23"/>
</g>
<!-- u45 -->
<g id="node27" class="node">
<title>u45</title>
<ellipse fill="#ffbbff" stroke="black" cx="3756.22" cy="-2579" rx="201.46" ry="18"/>
<text text-anchor="middle" x="3756.22" y="-2575.3" font-family="Times,serif" font-size="14.00">Language.Drasil.Code.Imperative.Import</text>
</g>
<!-- u45&#45;&gt;u48 -->
<g id="edge68" class="edge">
<title>u45&#45;&gt;u48</title>
<path fill="none" stroke="black" d="M3814.01,-2561.69C3971.29,-2517.31 4406.47,-2394.52 4574.66,-2347.06"/>
<polygon fill="black" stroke="black" points="4575.71,-2350.4 4584.38,-2344.32 4573.81,-2343.67 4575.71,-2350.4"/>
</g>
<!-- u38 -->
<g id="node33" class="node">
<title>u38</title>
<ellipse fill="#ffbbff" stroke="black" cx="4200.22" cy="-2327" rx="219.86" ry="18"/>
<text text-anchor="middle" x="4200.22" y="-2323.3" font-family="Times,serif" font-size="14.00">Language.Drasil.Code.Imperative.Comments</text>
</g>
<!-- u45&#45;&gt;u38 -->
<g id="edge67" class="edge">
<title>u45&#45;&gt;u38</title>
<path fill="none" stroke="black" d="M3786.39,-2561.01C3864.71,-2516.91 4074.48,-2398.8 4161.53,-2349.78"/>
<polygon fill="black" stroke="black" points="4163.3,-2352.8 4170.3,-2344.85 4159.87,-2346.7 4163.3,-2352.8"/>
</g>
<!-- u37 -->
<g id="node34" class="node">
<title>u37</title>
<ellipse fill="#ffbbff" stroke="black" cx="3060.22" cy="-1824" rx="237.46" ry="18"/>
<text text-anchor="middle" x="3060.22" y="-1820.3" font-family="Times,serif" font-size="14.00">Language.Drasil.Code.Imperative.ConceptMatch</text>
</g>
<!-- u45&#45;&gt;u37 -->
<g id="edge66" class="edge">
<title>u45&#45;&gt;u37</title>
<path fill="none" stroke="black" d="M3598.75,-2567.7C3447.65,-2548.73 3225.72,-2495.25 3109.22,-2345 3093.96,-2325.32 3068.8,-1956.35 3061.97,-1852.18"/>
<polygon fill="black" stroke="black" points="3065.46,-1851.89 3061.32,-1842.14 3058.47,-1852.35 3065.46,-1851.89"/>
</g>
<!-- u36 -->
<g id="node35" class="node">
<title>u36</title>
<ellipse fill="#ffbbff" stroke="black" cx="2784.22" cy="-2327" rx="240.46" ry="18"/>
<text text-anchor="middle" x="2784.22" y="-2323.3" font-family="Times,serif" font-size="14.00">Language.Drasil.Code.Imperative.GenerateGOOL</text>
</g>
<!-- u45&#45;&gt;u36 -->
<g id="edge65" class="edge">
<title>u45&#45;&gt;u36</title>
<path fill="none" stroke="black" d="M3693.56,-2561.89C3521.55,-2517.64 3042.53,-2394.44 2858,-2346.98"/>
<polygon fill="black" stroke="black" points="2858.68,-2343.54 2848.12,-2344.44 2856.93,-2350.32 2858.68,-2343.54"/>
</g>
<!-- u34 -->
<g id="node37" class="node">
<title>u34</title>
<ellipse fill="#ffbbff" stroke="black" cx="3325.22" cy="-2327" rx="207.16" ry="18"/>
<text text-anchor="middle" x="3325.22" y="-2323.3" font-family="Times,serif" font-size="14.00">Language.Drasil.Code.Imperative.Logging</text>
</g>
<!-- u45&#45;&gt;u34 -->
<g id="edge64" class="edge">
<title>u45&#45;&gt;u34</title>
<path fill="none" stroke="black" d="M3726.93,-2561.01C3650.98,-2516.96 3447.68,-2399.04 3363.03,-2349.93"/>
<polygon fill="black" stroke="black" points="3364.67,-2346.84 3354.26,-2344.85 3361.15,-2352.89 3364.67,-2346.84"/>
</g>
<!-- u32 -->
<g id="node39" class="node">
<title>u32</title>
<ellipse fill="#ffbbff" stroke="black" cx="3756.22" cy="-2327" rx="206.06" ry="18"/>
<text text-anchor="middle" x="3756.22" y="-2323.3" font-family="Times,serif" font-size="14.00">Language.Drasil.Code.Imperative.Helpers</text>
</g>
<!-- u45&#45;&gt;u32 -->
<g id="edge63" class="edge">
<title>u45&#45;&gt;u32</title>
<path fill="none" stroke="black" d="M3756.22,-2560.82C3756.22,-2518.18 3756.22,-2407.24 3756.22,-2355.42"/>
<polygon fill="black" stroke="black" points="3759.72,-2355.3 3756.22,-2345.3 3752.72,-2355.3 3759.72,-2355.3"/>
</g>
<!-- u44 -->
<g id="node28" class="node">
<title>u44</title>
<ellipse fill="#ffbbff" stroke="black" cx="3756.22" cy="-2076" rx="222.06" ry="18"/>
<text text-anchor="middle" x="3756.22" y="-2072.3" font-family="Times,serif" font-size="14.00">Language.Drasil.Code.Imperative.DrasilState</text>
</g>
<!-- u44&#45;&gt;u8 -->
<g id="edge61" class="edge">
<title>u44&#45;&gt;u8</title>
<path fill="none" stroke="black" d="M3735.25,-2057.82C3681.91,-2014.09 3540.94,-1898.54 3479.98,-1848.57"/>
<polygon fill="black" stroke="black" points="3481.88,-1845.61 3471.92,-1841.97 3477.44,-1851.02 3481.88,-1845.61"/>
</g>
<!-- u44&#45;&gt;u47 -->
<g id="edge62" class="edge">
<title>u44&#45;&gt;u47</title>
<path fill="none" stroke="black" d="M3792.03,-2058.15C3854.99,-2026.25 3983.62,-1950.43 4034.22,-1842 4114.6,-1669.75 4062.76,-1429.1 4041.82,-1349.07"/>
<polygon fill="black" stroke="black" points="4045.17,-1348.04 4039.2,-1339.28 4038.4,-1349.84 4045.17,-1348.04"/>
</g>
<!-- u43 -->
<g id="node29" class="node">
<title>u43</title>
<ellipse fill="#ffbbff" stroke="black" cx="3318.22" cy="-2831" rx="228.26" ry="18"/>
<text text-anchor="middle" x="3318.22" y="-2827.3" font-family="Times,serif" font-size="14.00">Language.Drasil.Code.Imperative.Descriptions</text>
</g>
<!-- u43&#45;&gt;u44 -->
<g id="edge60" class="edge">
<title>u43&#45;&gt;u44</title>
<path fill="none" stroke="black" d="M3300.14,-2812.86C3229.97,-2744.26 2985.54,-2484.74 3109.22,-2309 3212.1,-2162.81 3416.13,-2108.27 3567.7,-2088.18"/>
<polygon fill="black" stroke="black" points="3568.59,-2091.59 3578.06,-2086.85 3567.7,-2084.65 3568.59,-2091.59"/>
</g>
<!-- u41 -->
<g id="node30" class="node">
<title>u41</title>
<ellipse fill="#ffbbff" stroke="black" cx="4303.22" cy="-3082" rx="209.06" ry="18"/>
<text text-anchor="middle" x="4303.22" y="-3078.3" font-family="Times,serif" font-size="14.00">Language.Drasil.Code.Imperative.Modules</text>
</g>
<!-- u41&#45;&gt;u43 -->
<g id="edge58" class="edge">
<title>u41&#45;&gt;u43</title>
<path fill="none" stroke="black" d="M4239.35,-3064.85C4064.49,-3020.65 3578.65,-2897.83 3392.29,-2850.73"/>
<polygon fill="black" stroke="black" points="3393.14,-2847.33 3382.58,-2848.27 3391.42,-2854.12 3393.14,-2847.33"/>
</g>
<!-- u31 -->
<g id="node40" class="node">
<title>u31</title>
<ellipse fill="#ffbbff" stroke="black" cx="4062.22" cy="-2831" rx="233.16" ry="18"/>
<text text-anchor="middle" x="4062.22" y="-2827.3" font-family="Times,serif" font-size="14.00">Language.Drasil.Code.Imperative.FunctionCalls</text>
</g>
<!-- u41&#45;&gt;u31 -->
<g id="edge57" class="edge">
<title>u41&#45;&gt;u31</title>
<path fill="none" stroke="black" d="M4286.65,-3063.89C4244.78,-3020.62 4134.55,-2906.74 4085.89,-2856.46"/>
<polygon fill="black" stroke="black" points="4088.37,-2853.99 4078.9,-2849.23 4083.34,-2858.85 4088.37,-2853.99"/>
</g>
<!-- u40 -->
<g id="node31" class="node">
<title>u40</title>
<ellipse fill="#ffbbff" stroke="black" cx="3815.22" cy="-1824" rx="209.86" ry="18"/>
<text text-anchor="middle" x="3815.22" y="-1820.3" font-family="Times,serif" font-size="14.00">Language.Drasil.Code.Imperative.GenODE</text>
</g>
<!-- u40&#45;&gt;u56 -->
<g id="edge56" class="edge">
<title>u40&#45;&gt;u56</title>
<path fill="none" stroke="black" d="M3765.03,-1806.47C3630.09,-1762.02 3260.04,-1640.14 3116.85,-1592.98"/>
<polygon fill="black" stroke="black" points="3117.53,-1589.52 3106.94,-1589.72 3115.34,-1596.17 3117.53,-1589.52"/>
</g>
<!-- u40&#45;&gt;u10 -->
<g id="edge54" class="edge">
<title>u40&#45;&gt;u10</title>
<path fill="none" stroke="black" d="M3813.91,-1805.89C3810.67,-1763.42 3802.24,-1652.92 3798.3,-1601.31"/>
<polygon fill="black" stroke="black" points="3801.78,-1600.94 3797.53,-1591.23 3794.8,-1601.47 3801.78,-1600.94"/>
</g>
<!-- u40&#45;&gt;u47 -->
<g id="edge55" class="edge">
<title>u40&#45;&gt;u47</title>
<path fill="none" stroke="black" d="M3833.94,-1805.93C3871.78,-1770.2 3957.09,-1683.17 3996.22,-1591 4031.41,-1508.08 4035.24,-1399.17 4034.92,-1349.19"/>
<polygon fill="black" stroke="black" points="4038.42,-1349.13 4034.79,-1339.18 4031.42,-1349.22 4038.42,-1349.13"/>
</g>
<!-- u39 -->
<g id="node32" class="node">
<title>u39</title>
<ellipse fill="#ffbbff" stroke="black" cx="4540.22" cy="-2831" rx="226.66" ry="18"/>
<text text-anchor="middle" x="4540.22" y="-2827.3" font-family="Times,serif" font-size="14.00">Language.Drasil.Code.Imperative.SpaceMatch</text>
</g>
<!-- u39&#45;&gt;u44 -->
<g id="edge53" class="edge">
<title>u39&#45;&gt;u44</title>
<path fill="none" stroke="black" d="M4556.19,-2813.02C4590.87,-2775.69 4674.77,-2682.93 4734.22,-2597 4807.49,-2491.1 4844.35,-2469.51 4877.22,-2345 4881.3,-2329.53 4887.32,-2321.41 4877.22,-2309 4761.3,-2166.64 4228.87,-2108.93 3941.46,-2087.83"/>
<polygon fill="black" stroke="black" points="3941.57,-2084.33 3931.34,-2087.09 3941.06,-2091.31 3941.57,-2084.33"/>
</g>
<!-- u38&#45;&gt;u44 -->
<g id="edge52" class="edge">
<title>u38&#45;&gt;u44</title>
<path fill="none" stroke="black" d="M4170.05,-2309.08C4091.82,-2265.21 3882.46,-2147.8 3795.22,-2098.87"/>
<polygon fill="black" stroke="black" points="3796.86,-2095.78 3786.43,-2093.94 3793.44,-2101.89 3796.86,-2095.78"/>
</g>
<!-- u37&#45;&gt;u56 -->
<g id="edge51" class="edge">
<title>u37&#45;&gt;u56</title>
<path fill="none" stroke="black" d="M3060.15,-1805.89C3059.98,-1763.42 3059.53,-1652.92 3059.33,-1601.31"/>
<polygon fill="black" stroke="black" points="3062.83,-1601.22 3059.29,-1591.23 3055.83,-1601.25 3062.83,-1601.22"/>
</g>
<!-- u36&#45;&gt;u44 -->
<g id="edge50" class="edge">
<title>u36&#45;&gt;u44</title>
<path fill="none" stroke="black" d="M2848.37,-2309.57C3021.75,-2265.15 3498.99,-2142.9 3682.75,-2095.82"/>
<polygon fill="black" stroke="black" points="3683.77,-2099.17 3692.59,-2093.3 3682.04,-2092.39 3683.77,-2099.17"/>
</g>
<!-- u18 -->
<g id="node48" class="node">
<title>u18</title>
<ellipse fill="#7777ff" stroke="black" cx="2795.22" cy="-2076" rx="267.25" ry="18"/>
<text text-anchor="middle" x="2795.22" y="-2072.3" font-family="Times,serif" font-size="14.00">Language.Drasil.Code.Imperative.GOOL.ClassInterface</text>
</g>
<!-- u36&#45;&gt;u18 -->
<g id="edge49" class="edge">
<title>u36&#45;&gt;u18</title>
<path fill="none" stroke="black" d="M2784.97,-2308.89C2786.85,-2266.42 2791.73,-2155.92 2794.01,-2104.31"/>
<polygon fill="black" stroke="black" points="2797.51,-2104.38 2794.46,-2094.23 2790.52,-2104.07 2797.51,-2104.38"/>
</g>
<!-- u35&#45;&gt;u49 -->
<g id="edge48" class="edge">
<title>u35&#45;&gt;u49</title>
<path fill="none" stroke="black" d="M4385.22,-3316.21C4290.53,-3272.04 4034.66,-3152.7 3930.38,-3104.06"/>
<polygon fill="black" stroke="black" points="3931.6,-3100.77 3921.06,-3099.72 3928.64,-3107.12 3931.6,-3100.77"/>
</g>
<!-- u35&#45;&gt;u41 -->
<g id="edge47" class="edge">
<title>u35&#45;&gt;u41</title>
<path fill="none" stroke="black" d="M4413.11,-3315.82C4392.86,-3272.91 4339.96,-3160.84 4315.7,-3109.45"/>
<polygon fill="black" stroke="black" points="4318.82,-3107.85 4311.38,-3100.3 4312.49,-3110.84 4318.82,-3107.85"/>
</g>
<!-- u35&#45;&gt;u40 -->
<g id="edge46" class="edge">
<title>u35&#45;&gt;u40</title>
<path fill="none" stroke="black" d="M4581.27,-3321.79C4855.8,-3292.92 5387.22,-3190.72 5387.22,-2832 5387.22,-2832 5387.22,-2832 5387.22,-2326 5387.22,-2026.9 4341.1,-1882.39 3955.63,-1839.29"/>
<polygon fill="black" stroke="black" points="3955.86,-1835.8 3945.53,-1838.17 3955.09,-1842.75 3955.86,-1835.8"/>
</g>
<!-- u35&#45;&gt;u39 -->
<g id="edge45" class="edge">
<title>u35&#45;&gt;u39</title>
<path fill="none" stroke="black" d="M4430.97,-3315.87C4451.84,-3278.23 4500.61,-3184.91 4521.22,-3100 4542.08,-3014.03 4542.46,-2908.35 4541.25,-2859.35"/>
<polygon fill="black" stroke="black" points="4544.75,-2859.13 4540.96,-2849.23 4537.75,-2859.33 4544.75,-2859.13"/>
</g>
<!-- u25 -->
<g id="node47" class="node">
<title>u25</title>
<ellipse fill="#7777ff" stroke="black" cx="5070.22" cy="-2579" rx="289.45" ry="18"/>
<text text-anchor="middle" x="5070.22" y="-2575.3" font-family="Times,serif" font-size="14.00">Language.Drasil.Code.Imperative.GOOL.LanguageRenderer</text>
</g>
<!-- u35&#45;&gt;u25 -->
<g id="edge44" class="edge">
<title>u35&#45;&gt;u25</title>
<path fill="none" stroke="black" d="M4432.39,-3315.95C4476.78,-3248.75 4646.39,-2996.88 4814.22,-2813 4889.86,-2730.13 4991.33,-2644.21 5040.72,-2603.76"/>
<polygon fill="black" stroke="black" points="5043.22,-2606.24 5048.76,-2597.21 5038.8,-2600.82 5043.22,-2606.24"/>
</g>
<!-- u34&#45;&gt;u44 -->
<g id="edge43" class="edge">
<title>u34&#45;&gt;u44</title>
<path fill="none" stroke="black" d="M3354.5,-2309.08C3430.37,-2265.25 3633.26,-2148.03 3718.1,-2099.02"/>
<polygon fill="black" stroke="black" points="3719.98,-2101.98 3726.89,-2093.94 3716.48,-2095.91 3719.98,-2101.98"/>
</g>
<!-- u33&#45;&gt;u16 -->
<g id="edge42" class="edge">
<title>u33&#45;&gt;u16</title>
<path fill="none" stroke="black" d="M5595.87,-2058.23C5483.65,-2005.01 5157.22,-1828.35 5157.22,-1574 5157.22,-1574 5157.22,-1574 5157.22,-1068 5157.22,-801.8 4223.98,-632.11 3908.21,-582.31"/>
<polygon fill="black" stroke="black" points="3908.57,-578.82 3898.15,-580.73 3907.48,-585.74 3908.57,-578.82"/>
</g>
<!-- u32&#45;&gt;u44 -->
<g id="edge41" class="edge">
<title>u32&#45;&gt;u44</title>
<path fill="none" stroke="black" d="M3756.22,-2308.89C3756.22,-2266.42 3756.22,-2155.92 3756.22,-2104.31"/>
<polygon fill="black" stroke="black" points="3759.72,-2104.23 3756.22,-2094.23 3752.72,-2104.23 3759.72,-2104.23"/>
</g>
<!-- u31&#45;&gt;u45 -->
<g id="edge40" class="edge">
<title>u31&#45;&gt;u45</title>
<path fill="none" stroke="black" d="M4041.18,-2812.82C3987.67,-2769.09 3846.23,-2653.54 3785.07,-2603.57"/>
<polygon fill="black" stroke="black" points="3786.95,-2600.59 3776.99,-2596.97 3782.52,-2606.01 3786.95,-2600.59"/>
</g>
<!-- u27 -->
<g id="node42" class="node">
<title>u27</title>
<ellipse fill="#ffbbff" stroke="black" cx="4501.22" cy="-2579" rx="223.66" ry="18"/>
<text text-anchor="middle" x="4501.22" y="-2575.3" font-family="Times,serif" font-size="14.00">Language.Drasil.Code.Imperative.Parameters</text>
</g>
<!-- u31&#45;&gt;u27 -->
<g id="edge39" class="edge">
<title>u31&#45;&gt;u27</title>
<path fill="none" stroke="black" d="M4092.05,-2813.01C4169.41,-2768.96 4376.48,-2651.04 4462.7,-2601.93"/>
<polygon fill="black" stroke="black" points="4464.68,-2604.84 4471.64,-2596.85 4461.21,-2598.75 4464.68,-2604.84"/>
</g>
<!-- u28 -->
<g id="node41" class="node">
<title>u28</title>
<ellipse fill="#ffbbff" stroke="black" cx="1723.22" cy="-1824" rx="219.86" ry="18"/>
<text text-anchor="middle" x="1723.22" y="-1820.3" font-family="Times,serif" font-size="14.00">Language.Drasil.Code.Imperative.WriteInput</text>
</g>
<!-- u28&#45;&gt;u16 -->
<g id="edge37" class="edge">
<title>u28&#45;&gt;u16</title>
<path fill="none" stroke="black" d="M1730.3,-1805.59C1755.48,-1742.05 1839.22,-1516.18 1839.22,-1322 1839.22,-1322 1839.22,-1322 1839.22,-1068 1839.22,-695.84 3178.79,-596.71 3646.43,-573.45"/>
<polygon fill="black" stroke="black" points="3646.83,-576.93 3656.64,-572.95 3646.48,-569.94 3646.83,-576.93"/>
</g>
<!-- u27&#45;&gt;u48 -->
<g id="edge36" class="edge">
<title>u27&#45;&gt;u48</title>
<path fill="none" stroke="black" d="M4510.91,-2560.82C4535.16,-2517.82 4598.58,-2405.38 4627.48,-2354.13"/>
<polygon fill="black" stroke="black" points="4630.59,-2355.73 4632.46,-2345.3 4624.5,-2352.29 4630.59,-2355.73"/>
</g>
<!-- u27&#45;&gt;u44 -->
<g id="edge35" class="edge">
<title>u27&#45;&gt;u44</title>
<path fill="none" stroke="black" d="M4560.91,-2561.54C4685.06,-2524.43 4951.85,-2428.16 4855.22,-2309 4741.66,-2168.97 4218.82,-2110.19 3937.16,-2088.34"/>
<polygon fill="black" stroke="black" points="3937.07,-2084.83 3926.83,-2087.55 3936.53,-2091.8 3937.07,-2084.83"/>
</g>
<!-- u26 -->
<g id="node43" class="node">
<title>u26</title>
<ellipse fill="#ffbbff" stroke="black" cx="2516.22" cy="-2579" rx="233.16" ry="18"/>
<text text-anchor="middle" x="2516.22" y="-2575.3" font-family="Times,serif" font-size="14.00">Language.Drasil.Code.Imperative.WriteReadMe</text>
</g>
<!-- u26&#45;&gt;u18 -->
<g id="edge34" class="edge">
<title>u26&#45;&gt;u18</title>
<path fill="none" stroke="black" d="M2513.19,-2560.81C2506.25,-2516.41 2492.82,-2395.36 2535.22,-2309 2583.78,-2210.08 2694.86,-2134.48 2754.91,-2099.09"/>
<polygon fill="black" stroke="black" points="2756.85,-2102.01 2763.74,-2093.96 2753.34,-2095.95 2756.85,-2102.01"/>
</g>
<!-- u30 -->
<g id="node44" class="node">
<title>u30</title>
<ellipse fill="#77ff77" stroke="black" cx="1960.22" cy="-2579" rx="228.56" ry="18"/>
<text text-anchor="middle" x="1960.22" y="-2575.3" font-family="Times,serif" font-size="14.00">Language.Drasil.Code.Imperative.Build.Import</text>
</g>
<!-- u29 -->
<g id="node45" class="node">
<title>u29</title>
<ellipse fill="#77ff77" stroke="black" cx="1960.22" cy="-2327" rx="215.56" ry="18"/>
<text text-anchor="middle" x="1960.22" y="-2323.3" font-family="Times,serif" font-size="14.00">Language.Drasil.Code.Imperative.Build.AST</text>
</g>
<!-- u30&#45;&gt;u29 -->
<g id="edge38" class="edge">
<title>u30&#45;&gt;u29</title>
<path fill="none" stroke="black" d="M1960.22,-2560.82C1960.22,-2518.18 1960.22,-2407.24 1960.22,-2355.42"/>
<polygon fill="black" stroke="black" points="1963.72,-2355.3 1960.22,-2345.3 1956.72,-2355.3 1963.72,-2355.3"/>
</g>
<!-- u42 -->
<g id="node46" class="node">
<title>u42</title>
<ellipse fill="#ffff77" stroke="black" cx="2265.22" cy="-2076" rx="245.06" ry="18"/>
<text text-anchor="middle" x="2265.22" y="-2072.3" font-family="Times,serif" font-size="14.00">Language.Drasil.Code.Imperative.Doxygen.Import</text>
</g>
<!-- u42&#45;&gt;u56 -->
<g id="edge59" class="edge">
<title>u42&#45;&gt;u56</title>
<path fill="none" stroke="black" d="M2292.09,-2058.04C2410.99,-1983.02 2889.79,-1680.91 3024.06,-1596.19"/>
<polygon fill="black" stroke="black" points="3026.17,-1598.99 3032.76,-1590.7 3022.43,-1593.07 3026.17,-1598.99"/>
</g>
<!-- u18&#45;&gt;u56 -->
<g id="edge18" class="edge">
<title>u18&#45;&gt;u56</title>
<path fill="none" stroke="black" d="M2792.34,-2057.88C2785.75,-2013.66 2773.1,-1892.98 2814.22,-1806 2860.08,-1708.98 2965.77,-1632.01 3022.17,-1596.08"/>
<polygon fill="black" stroke="black" points="3024.18,-1598.95 3030.79,-1590.67 3020.46,-1593.02 3024.18,-1598.95"/>
</g>
<!-- u24&#45;&gt;u17 -->
<g id="edge32" class="edge">
<title>u24&#45;&gt;u17</title>
<path fill="none" stroke="black" d="M3250.34,-3064.18C3099.62,-3019.61 2690.63,-2898.66 2530.63,-2851.34"/>
<polygon fill="black" stroke="black" points="2531.49,-2847.95 2520.91,-2848.47 2529.51,-2854.66 2531.49,-2847.95"/>
</g>
<!-- u22 -->
<g id="node52" class="node">
<title>u22</title>
<ellipse fill="#ff7777" stroke="black" cx="1831.22" cy="-2831" rx="393.73" ry="18"/>
<text text-anchor="middle" x="1831.22" y="-2827.3" font-family="Times,serif" font-size="14.00">Language.Drasil.Code.Imperative.GOOL.LanguageRenderer.LanguagePolymorphic</text>
</g>
<!-- u24&#45;&gt;u22 -->
<g id="edge33" class="edge">
<title>u24&#45;&gt;u22</title>
<path fill="none" stroke="black" d="M3210.09,-3064.61C2945.81,-3020.03 2215.12,-2896.76 1938.88,-2850.16"/>
<polygon fill="black" stroke="black" points="1939.29,-2846.68 1928.85,-2848.47 1938.13,-2853.58 1939.29,-2846.68"/>
</g>
<!-- u23&#45;&gt;u17 -->
<g id="edge30" class="edge">
<title>u23&#45;&gt;u17</title>
<path fill="none" stroke="black" d="M500.45,-3065.19C879.52,-3020.2 1960.81,-2891.87 2335.5,-2847.4"/>
<polygon fill="black" stroke="black" points="2336.05,-2850.85 2345.57,-2846.2 2335.23,-2843.9 2336.05,-2850.85"/>
</g>
<!-- u23&#45;&gt;u22 -->
<g id="edge31" class="edge">
<title>u23&#45;&gt;u22</title>
<path fill="none" stroke="black" d="M463.56,-3064.61C725.69,-3020.03 1450.44,-2896.76 1724.43,-2850.16"/>
<polygon fill="black" stroke="black" points="1725.11,-2853.6 1734.38,-2848.47 1723.94,-2846.7 1725.11,-2853.6"/>
</g>
<!-- u22&#45;&gt;u28 -->
<g id="edge27" class="edge">
<title>u22&#45;&gt;u28</title>
<path fill="none" stroke="black" d="M1819.92,-2812.83C1796.12,-2775.49 1741.41,-2683.32 1722.22,-2597 1658.79,-2311.71 1704.14,-1952.32 1718.98,-1852.05"/>
<polygon fill="black" stroke="black" points="1722.44,-1852.55 1720.47,-1842.14 1715.52,-1851.51 1722.44,-1852.55"/>
</g>
<!-- u22&#45;&gt;u26 -->
<g id="edge26" class="edge">
<title>u22&#45;&gt;u26</title>
<path fill="none" stroke="black" d="M1877.49,-2813.11C1999.47,-2768.59 2329.39,-2648.18 2460.96,-2600.17"/>
<polygon fill="black" stroke="black" points="2462.27,-2603.42 2470.46,-2596.7 2459.87,-2596.84 2462.27,-2603.42"/>
</g>
<!-- u22&#45;&gt;u30 -->
<g id="edge28" class="edge">
<title>u22&#45;&gt;u30</title>
<path fill="none" stroke="black" d="M1840.08,-2812.82C1862.22,-2769.91 1920.05,-2657.84 1946.57,-2606.45"/>
<polygon fill="black" stroke="black" points="1949.81,-2607.8 1951.29,-2597.3 1943.59,-2604.59 1949.81,-2607.8"/>
</g>
<!-- u22&#45;&gt;u42 -->
<g id="edge29" class="edge">
<title>u22&#45;&gt;u42</title>
<path fill="none" stroke="black" d="M1883.62,-2813.12C1965.84,-2783.65 2123.47,-2714.48 2198.22,-2597 2301.33,-2434.94 2279.97,-2186.72 2269.29,-2104.5"/>
<polygon fill="black" stroke="black" points="2272.74,-2103.9 2267.92,-2094.46 2265.8,-2104.84 2272.74,-2103.9"/>
</g>
<!-- u22&#45;&gt;u25 -->
<g id="edge25" class="edge">
<title>u22&#45;&gt;u25</title>
<path fill="none" stroke="black" d="M2022.34,-2815.25C2599.3,-2770.72 4318.61,-2638.01 4886.15,-2594.21"/>
<polygon fill="black" stroke="black" points="4886.78,-2597.67 4896.48,-2593.41 4886.24,-2590.69 4886.78,-2597.67"/>
</g>
<!-- u21&#45;&gt;u17 -->
<g id="edge23" class="edge">
<title>u21&#45;&gt;u17</title>
<path fill="none" stroke="black" d="M1195.91,-3064.57C1440.7,-3019.72 2118.68,-2895.49 2369.93,-2849.46"/>
<polygon fill="black" stroke="black" points="2370.56,-2852.9 2379.77,-2847.66 2369.3,-2846.02 2370.56,-2852.9"/>
</g>
<!-- u21&#45;&gt;u22 -->
<g id="edge24" class="edge">
<title>u21&#45;&gt;u22</title>
<path fill="none" stroke="black" d="M1155.48,-3064.08C1284.64,-3019.72 1632.71,-2900.18 1772.21,-2852.27"/>
<polygon fill="black" stroke="black" points="1773.57,-2855.5 1781.89,-2848.94 1771.29,-2848.88 1773.57,-2855.5"/>
</g>
<!-- u20&#45;&gt;u17 -->
<g id="edge21" class="edge">
<title>u20&#45;&gt;u17</title>
<path fill="none" stroke="black" d="M1874.3,-3064.08C1987.04,-3019.8 2290.53,-2900.61 2412.96,-2852.53"/>
<polygon fill="black" stroke="black" points="2414.47,-2855.69 2422.5,-2848.78 2411.91,-2849.18 2414.47,-2855.69"/>
</g>
<!-- u20&#45;&gt;u22 -->
<g id="edge22" class="edge">
<title>u20&#45;&gt;u22</title>
<path fill="none" stroke="black" d="M1831.22,-3063.89C1831.22,-3021.42 1831.22,-2910.92 1831.22,-2859.31"/>
<polygon fill="black" stroke="black" points="1834.72,-2859.23 1831.22,-2849.23 1827.72,-2859.23 1834.72,-2859.23"/>
</g>
<!-- u19&#45;&gt;u17 -->
<g id="edge19" class="edge">
<title>u19&#45;&gt;u17</title>
<path fill="none" stroke="black" d="M2554.62,-3063.89C2538.18,-3021.24 2495.29,-2910 2475.5,-2858.66"/>
<polygon fill="black" stroke="black" points="2478.73,-2857.31 2471.86,-2849.23 2472.19,-2859.82 2478.73,-2857.31"/>
</g>
<!-- u19&#45;&gt;u22 -->
<g id="edge20" class="edge">
<title>u19&#45;&gt;u22</title>
<path fill="none" stroke="black" d="M2511.62,-3064.08C2381.56,-3019.72 2031.09,-2900.18 1890.63,-2852.27"/>
<polygon fill="black" stroke="black" points="1891.48,-2848.86 1880.89,-2848.94 1889.22,-2855.48 1891.48,-2848.86"/>
</g>
<!-- u46 -->
<g id="node56" class="node">
<title>u46</title>
<ellipse fill="#77ffff" stroke="black" cx="5091.22" cy="-2831" rx="267.55" ry="18"/>
<text text-anchor="middle" x="5091.22" y="-2827.3" font-family="Times,serif" font-size="14.00">Language.Drasil.Code.Imperative.Parsers.ConfigParser</text>
</g>
<!-- u46&#45;&gt;u25 -->
<g id="edge69" class="edge">
<title>u46&#45;&gt;u25</title>
<path fill="none" stroke="black" d="M5089.77,-2812.82C5086.19,-2770.18 5076.87,-2659.24 5072.52,-2607.42"/>
<polygon fill="black" stroke="black" points="5076,-2606.98 5071.67,-2597.3 5069.02,-2607.56 5076,-2606.98"/>
</g>
<!-- u55&#45;&gt;u52 -->
<g id="edge81" class="edge">
<title>u55&#45;&gt;u52</title>
<path fill="none" stroke="black" d="M3508.86,-1303.79C3646.73,-1259.66 4028.44,-1137.47 4177.99,-1089.6"/>
<polygon fill="black" stroke="black" points="4179.47,-1092.8 4187.93,-1086.42 4177.34,-1086.13 4179.47,-1092.8"/>
</g>
<!-- u55&#45;&gt;u51 -->
<g id="edge80" class="edge">
<title>u55&#45;&gt;u51</title>
<path fill="none" stroke="black" d="M3483.02,-1303.01C3547.01,-1259.19 3717.7,-1142.27 3790.06,-1092.71"/>
<polygon fill="black" stroke="black" points="3792.11,-1095.55 3798.38,-1087.01 3788.15,-1089.77 3792.11,-1095.55"/>
</g>
<!-- u55&#45;&gt;u50 -->
<g id="edge79" class="edge">
<title>u55&#45;&gt;u50</title>
<path fill="none" stroke="black" d="M3458.22,-1302.82C3458.22,-1260.18 3458.22,-1149.24 3458.22,-1097.42"/>
<polygon fill="black" stroke="black" points="3461.72,-1097.3 3458.22,-1087.3 3454.72,-1097.3 3461.72,-1097.3"/>
</g>
<!-- u55&#45;&gt;u54 -->
<g id="edge82" class="edge">
<title>u55&#45;&gt;u54</title>
<path fill="none" stroke="black" d="M3436.84,-1302.82C3382.34,-1259 3238.11,-1143.07 3176.16,-1093.27"/>
<polygon fill="black" stroke="black" points="3178.32,-1090.51 3168.33,-1086.97 3173.93,-1095.97 3178.32,-1090.51"/>
</g>
<!-- u54&#45;&gt;u14 -->
<g id="edge78" class="edge">
<title>u54&#45;&gt;u14</title>
<path fill="none" stroke="black" d="M3162.2,-1050.88C3248.41,-952.35 3681.07,-457.88 3783.47,-340.86"/>
<polygon fill="black" stroke="black" points="3786.31,-342.92 3790.26,-333.09 3781.04,-338.31 3786.31,-342.92"/>
</g>
<!-- u3 -->
<g id="node59" class="node">
<title>u3</title>
<ellipse fill="#33ff33" stroke="black" cx="2142.22" cy="-3837" rx="108.58" ry="18"/>
<text text-anchor="middle" x="2142.22" y="-3833.3" font-family="Times,serif" font-size="14.00">drasil&#45;code.test.Main</text>
</g>
<!-- u3&#45;&gt;u5 -->
<g id="edge6" class="edge">
<title>u3&#45;&gt;u5</title>
<path fill="none" stroke="black" d="M2136.86,-3818.82C2123.49,-3775.99 2088.63,-3664.24 2072.55,-3612.72"/>
<polygon fill="black" stroke="black" points="2075.83,-3611.48 2069.51,-3602.97 2069.15,-3613.56 2075.83,-3611.48"/>
</g>
<!-- u3&#45;&gt;u4 -->
<g id="edge5" class="edge">
<title>u3&#45;&gt;u4</title>
<path fill="none" stroke="black" d="M2147.78,-3818.82C2161.66,-3775.99 2197.87,-3664.24 2214.56,-3612.72"/>
<polygon fill="black" stroke="black" points="2217.97,-3613.57 2217.72,-3602.97 2211.31,-3611.41 2217.97,-3613.57"/>
</g>
<!-- u3&#45;&gt;u2 -->
<g id="edge4" class="edge">
<title>u3&#45;&gt;u2</title>
<path fill="none" stroke="black" d="M2157.75,-3818.82C2197.13,-3775.26 2300.96,-3660.4 2346.4,-3610.14"/>
<polygon fill="black" stroke="black" points="2349.06,-3612.41 2353.17,-3602.65 2343.87,-3607.72 2349.06,-3612.41"/>
</g>
<!-- u3&#45;&gt;u1 -->
<g id="edge3" class="edge">
<title>u3&#45;&gt;u1</title>
<path fill="none" stroke="black" d="M2118.19,-3819.4C2054.58,-3775.48 1881.9,-3656.22 1811.11,-3607.34"/>
<polygon fill="black" stroke="black" points="1812.83,-3604.27 1802.61,-3601.46 1808.85,-3610.03 1812.83,-3604.27"/>
</g>
<!-- u3&#45;&gt;u0 -->
<g id="edge2" class="edge">
<title>u3&#45;&gt;u0</title>
<path fill="none" stroke="black" d="M2126.27,-3818.82C2085.85,-3775.26 1979.26,-3660.4 1932.62,-3610.14"/>
<polygon fill="black" stroke="black" points="1935.03,-3607.59 1925.66,-3602.65 1929.9,-3612.36 1935.03,-3607.59"/>
</g>
<!-- u3&#45;&gt;u57 -->
<g id="edge7" class="edge">
<title>u3&#45;&gt;u57</title>
<path fill="none" stroke="black" d="M2170.03,-3819.4C2243.41,-3775.62 2442.21,-3657 2524.64,-3607.82"/>
<polygon fill="black" stroke="black" points="2526.62,-3610.72 2533.41,-3602.59 2523.03,-3604.71 2526.62,-3610.72"/>
</g>
</g>
</svg>
