<?xml version="1.0" encoding="UTF-8" standalone="no"?>
<!DOCTYPE svg PUBLIC "-//W3C//DTD SVG 1.1//EN"
 "http://www.w3.org/Graphics/SVG/1.1/DTD/svg11.dtd">
<!-- Generated by graphviz version 2.43.0 (0)
 -->
<!-- Title: G Pages: 1 -->
<svg width="430pt" height="288pt"
 viewBox="0.00 0.00 429.55 288.00" xmlns="http://www.w3.org/2000/svg" xmlns:xlink="http://www.w3.org/1999/xlink">
<g id="graph0" class="graph" transform="scale(1.58 1.58) rotate(0) translate(4 450.67)">
<title>G</title>
<polygon fill="white" stroke="transparent" points="-4,4 -4,-450.67 674.13,-450.67 674.13,4 -4,4"/>
<!-- u0 -->
<g id="node1" class="node">
<title>u0</title>
<ellipse fill="#bbffbb" stroke="black" cx="321.74" cy="-402" rx="63.89" ry="18"/>
<text text-anchor="middle" x="321.74" y="-398.3" font-family="Times,serif" font-size="14.00">Utils.Drasil</text>
</g>
<!-- u4 -->
<g id="node2" class="node">
<title>u4</title>
<ellipse fill="#ffffbb" stroke="black" cx="100.74" cy="-223" rx="100.98" ry="18"/>
<text text-anchor="middle" x="100.74" y="-219.3" font-family="Times,serif" font-size="14.00">Utils.Drasil.Strings</text>
</g>
<!-- u0&#45;&gt;u4 -->
<g id="edge3" class="edge">
<title>u0&#45;&gt;u4</title>
<path fill="none" stroke="black" d="M301.35,-384.67C261.91,-353.08 175.11,-283.56 129.71,-247.2"/>
<polygon fill="black" stroke="black" points="131.72,-244.33 121.73,-240.81 127.35,-249.79 131.72,-244.33"/>
</g>
<!-- u3 -->
<g id="node3" class="node">
<title>u3</title>
<ellipse fill="#ffffbb" stroke="black" cx="321.74" cy="-223" rx="102.08" ry="18"/>
<text text-anchor="middle" x="321.74" y="-219.3" font-family="Times,serif" font-size="14.00">Utils.Drasil.English</text>
</g>
<!-- u0&#45;&gt;u3 -->
<g id="edge2" class="edge">
<title>u0&#45;&gt;u3</title>
<path fill="none" stroke="black" d="M321.74,-383.71C321.74,-352.83 321.74,-288 321.74,-251.14"/>
<polygon fill="black" stroke="black" points="325.24,-251.1 321.74,-241.1 318.24,-251.1 325.24,-251.1"/>
</g>
<!-- u2 -->
<g id="node4" class="node">
<title>u2</title>
<ellipse fill="#ffffbb" stroke="black" cx="555.74" cy="-223" rx="114.28" ry="18"/>
<text text-anchor="middle" x="555.74" y="-219.3" font-family="Times,serif" font-size="14.00">Utils.Drasil.Document</text>
</g>
<!-- u0&#45;&gt;u2 -->
<g id="edge1" class="edge">
<title>u0&#45;&gt;u2</title>
<path fill="none" stroke="black" d="M342.92,-384.98C384.52,-353.51 477.05,-283.52 525.24,-247.07"/>
<polygon fill="black" stroke="black" points="527.55,-249.71 533.42,-240.89 523.33,-244.13 527.55,-249.71"/>
</g>
<!-- u1 -->
<g id="node5" class="node">
<title>u1</title>
<ellipse fill="#ffffbb" stroke="black" cx="100.74" cy="-45" rx="89.08" ry="18"/>
<text text-anchor="middle" x="100.74" y="-41.3" font-family="Times,serif" font-size="14.00">Utils.Drasil.Lists</text>
</g>
<!-- u4&#45;&gt;u1 -->
<g id="edge4" class="edge">
<title>u4&#45;&gt;u1</title>
<path fill="none" stroke="black" d="M100.74,-204.8C100.74,-174.23 100.74,-110.19 100.74,-73.46"/>
<polygon fill="black" stroke="black" points="104.24,-73.01 100.74,-63.01 97.24,-73.01 104.24,-73.01"/>
</g>
</g>
</svg>
