<?xml version="1.0" encoding="UTF-8" standalone="no"?>
<!DOCTYPE svg PUBLIC "-//W3C//DTD SVG 1.1//EN"
 "http://www.w3.org/Graphics/SVG/1.1/DTD/svg11.dtd">
<!-- Generated by graphviz version 2.43.0 (0)
 -->
<!-- Title: G Pages: 1 -->
<svg width="432pt" height="285pt"
 viewBox="0.00 0.00 432.00 284.53" xmlns="http://www.w3.org/2000/svg" xmlns:xlink="http://www.w3.org/1999/xlink">
<g id="graph0" class="graph" transform="scale(5.64 5.64) rotate(0) translate(4 1600.67)">
<title>G</title>
<polygon fill="white" stroke="transparent" points="-4,4 -4,-1600.67 2432.32,-1600.67 2432.32,4 -4,4"/>
<!-- u0 -->
<g id="node1" class="node">
<title>u0</title>
<ellipse fill="#bbffbb" stroke="black" cx="1441.18" cy="-1559" rx="69.59" ry="18"/>
<text text-anchor="middle" x="1441.18" y="-1555.3" font-family="Times,serif" font-size="14.00">GOOL.Drasil</text>
</g>
<!-- u16 -->
<g id="node6" class="node">
<title>u16</title>
<ellipse fill="#ffffbb" stroke="black" cx="2125.18" cy="-1102" rx="113.98" ry="18"/>
<text text-anchor="middle" x="2125.18" y="-1098.3" font-family="Times,serif" font-size="14.00">GOOL.Drasil.CodeInfo</text>
</g>
<!-- u0&#45;&gt;u16 -->
<g id="edge6" class="edge">
<title>u0&#45;&gt;u16</title>
<path fill="none" stroke="black" d="M1507.83,-1553.79C1716.21,-1539.95 2345.07,-1492.84 2404.18,-1425 2503.02,-1311.57 2268.67,-1175.12 2168.19,-1123.83"/>
<polygon fill="black" stroke="black" points="2169.69,-1120.67 2159.19,-1119.28 2166.53,-1126.91 2169.69,-1120.67"/>
</g>
<!-- u12 -->
<g id="node12" class="node">
<title>u12</title>
<ellipse fill="#bbbbff" stroke="black" cx="1196.18" cy="-1407" rx="230.96" ry="18"/>
<text text-anchor="middle" x="1196.18" y="-1403.3" font-family="Times,serif" font-size="14.00">GOOL.Drasil.LanguageRenderer.SwiftRenderer</text>
</g>
<!-- u0&#45;&gt;u12 -->
<g id="edge5" class="edge">
<title>u0&#45;&gt;u12</title>
<path fill="none" stroke="black" d="M1415.42,-1542.23C1371.61,-1515.41 1282.48,-1460.84 1232.41,-1430.18"/>
<polygon fill="black" stroke="black" points="1234.18,-1427.16 1223.83,-1424.93 1230.53,-1433.13 1234.18,-1427.16"/>
</g>
<!-- u11 -->
<g id="node13" class="node">
<title>u11</title>
<ellipse fill="#bbbbff" stroke="black" cx="1686.18" cy="-1407" rx="241.26" ry="18"/>
<text text-anchor="middle" x="1686.18" y="-1403.3" font-family="Times,serif" font-size="14.00">GOOL.Drasil.LanguageRenderer.CSharpRenderer</text>
</g>
<!-- u0&#45;&gt;u11 -->
<g id="edge4" class="edge">
<title>u0&#45;&gt;u11</title>
<path fill="none" stroke="black" d="M1466.94,-1542.23C1510.74,-1515.41 1599.88,-1460.84 1649.95,-1430.18"/>
<polygon fill="black" stroke="black" points="1651.83,-1433.13 1658.53,-1424.93 1648.17,-1427.16 1651.83,-1433.13"/>
</g>
<!-- u7 -->
<g id="node17" class="node">
<title>u7</title>
<ellipse fill="#bbbbff" stroke="black" cx="722.18" cy="-1407" rx="225.56" ry="18"/>
<text text-anchor="middle" x="722.18" y="-1403.3" font-family="Times,serif" font-size="14.00">GOOL.Drasil.LanguageRenderer.JavaRenderer</text>
</g>
<!-- u0&#45;&gt;u7 -->
<g id="edge3" class="edge">
<title>u0&#45;&gt;u7</title>
<path fill="none" stroke="black" d="M1388.89,-1547.09C1266.4,-1521.54 959.87,-1457.59 808.93,-1426.1"/>
<polygon fill="black" stroke="black" points="809.28,-1422.6 798.78,-1423.98 807.85,-1429.45 809.28,-1422.6"/>
</g>
<!-- u5 -->
<g id="node19" class="node">
<title>u5</title>
<ellipse fill="#bbbbff" stroke="black" cx="2170.18" cy="-1407" rx="224.76" ry="18"/>
<text text-anchor="middle" x="2170.18" y="-1403.3" font-family="Times,serif" font-size="14.00">GOOL.Drasil.LanguageRenderer.CppRenderer</text>
</g>
<!-- u0&#45;&gt;u5 -->
<g id="edge2" class="edge">
<title>u0&#45;&gt;u5</title>
<path fill="none" stroke="black" d="M1493.9,-1547.15C1618.07,-1521.6 1929.95,-1457.43 2082.88,-1425.96"/>
<polygon fill="black" stroke="black" points="2083.63,-1429.38 2092.72,-1423.94 2082.22,-1422.53 2083.63,-1429.38"/>
</g>
<!-- u4 -->
<g id="node20" class="node">
<title>u4</title>
<ellipse fill="#bbbbff" stroke="black" cx="239.18" cy="-1407" rx="239.36" ry="18"/>
<text text-anchor="middle" x="239.18" y="-1403.3" font-family="Times,serif" font-size="14.00">GOOL.Drasil.LanguageRenderer.PythonRenderer</text>
</g>
<!-- u0&#45;&gt;u4 -->
<g id="edge1" class="edge">
<title>u0&#45;&gt;u4</title>
<path fill="none" stroke="black" d="M1379.92,-1550.36C1192.5,-1526.97 624.01,-1456.02 367.35,-1423.99"/>
<polygon fill="black" stroke="black" points="367.59,-1420.5 357.23,-1422.73 366.72,-1427.44 367.59,-1420.5"/>
</g>
<!-- u20 -->
<g id="node2" class="node">
<title>u20</title>
<ellipse fill="#ffffbb" stroke="black" cx="1694.18" cy="-342" rx="108.58" ry="18"/>
<text text-anchor="middle" x="1694.18" y="-338.3" font-family="Times,serif" font-size="14.00">GOOL.Drasil.Helpers</text>
</g>
<!-- u17 -->
<g id="node5" class="node">
<title>u17</title>
<ellipse fill="#ffffbb" stroke="black" cx="1634.18" cy="-38" rx="118.08" ry="18"/>
<text text-anchor="middle" x="1634.18" y="-34.3" font-family="Times,serif" font-size="14.00">GOOL.Drasil.CodeType</text>
</g>
<!-- u20&#45;&gt;u17 -->
<g id="edge35" class="edge">
<title>u20&#45;&gt;u17</title>
<path fill="none" stroke="black" d="M1693.3,-323.56C1691.49,-292.71 1686.57,-226.63 1675.18,-172 1667.39,-134.62 1653.59,-92.71 1644.17,-66.11"/>
<polygon fill="black" stroke="black" points="1647.35,-64.6 1640.68,-56.37 1640.76,-66.96 1647.35,-64.6"/>
</g>
<!-- u19 -->
<g id="node3" class="node">
<title>u19</title>
<ellipse fill="#ffffbb" stroke="black" cx="1575.18" cy="-190" rx="90.98" ry="18"/>
<text text-anchor="middle" x="1575.18" y="-186.3" font-family="Times,serif" font-size="14.00">GOOL.Drasil.AST</text>
</g>
<!-- u19&#45;&gt;u17 -->
<g id="edge34" class="edge">
<title>u19&#45;&gt;u17</title>
<path fill="none" stroke="black" d="M1581.95,-171.79C1592.17,-145.8 1611.64,-96.3 1623.71,-65.63"/>
<polygon fill="black" stroke="black" points="1627.09,-66.59 1627.49,-56.01 1620.57,-64.03 1627.09,-66.59"/>
</g>
<!-- u18 -->
<g id="node4" class="node">
<title>u18</title>
<ellipse fill="#ffffbb" stroke="black" cx="1456.18" cy="-646" rx="150.57" ry="18"/>
<text text-anchor="middle" x="1456.18" y="-642.3" font-family="Times,serif" font-size="14.00">GOOL.Drasil.RendererClasses</text>
</g>
<!-- u1 -->
<g id="node11" class="node">
<title>u1</title>
<ellipse fill="#ffffbb" stroke="black" cx="1582.18" cy="-494" rx="139.18" ry="18"/>
<text text-anchor="middle" x="1582.18" y="-490.3" font-family="Times,serif" font-size="14.00">GOOL.Drasil.ClassInterface</text>
</g>
<!-- u18&#45;&gt;u1 -->
<g id="edge33" class="edge">
<title>u18&#45;&gt;u1</title>
<path fill="none" stroke="black" d="M1470.63,-627.79C1492.85,-601.35 1535.5,-550.57 1561.14,-520.04"/>
<polygon fill="black" stroke="black" points="1564.14,-521.91 1567.89,-512.01 1558.78,-517.41 1564.14,-521.91"/>
</g>
<!-- u16&#45;&gt;u1 -->
<g id="edge32" class="edge">
<title>u16&#45;&gt;u1</title>
<path fill="none" stroke="black" d="M2109.8,-1083.84C2033.34,-998.51 1694.2,-620.01 1604.18,-519.55"/>
<polygon fill="black" stroke="black" points="1606.7,-517.12 1597.42,-512.01 1601.49,-521.79 1606.7,-517.12"/>
</g>
<!-- u15 -->
<g id="node7" class="node">
<title>u15</title>
<ellipse fill="#ffffbb" stroke="black" cx="2170.18" cy="-1255" rx="107.48" ry="18"/>
<text text-anchor="middle" x="2170.18" y="-1251.3" font-family="Times,serif" font-size="14.00">GOOL.Drasil.Classes</text>
</g>
<!-- u14 -->
<g id="node8" class="node">
<title>u14</title>
<ellipse fill="#ffffbb" stroke="black" cx="1471.18" cy="-342" rx="96.68" ry="18"/>
<text text-anchor="middle" x="1471.18" y="-338.3" font-family="Times,serif" font-size="14.00">GOOL.Drasil.State</text>
</g>
<!-- u14&#45;&gt;u19 -->
<g id="edge31" class="edge">
<title>u14&#45;&gt;u19</title>
<path fill="none" stroke="black" d="M1482.91,-324.08C1501.09,-297.86 1536.19,-247.24 1557.47,-216.55"/>
<polygon fill="black" stroke="black" points="1560.51,-218.3 1563.33,-208.08 1554.76,-214.31 1560.51,-218.3"/>
</g>
<!-- u13 -->
<g id="node9" class="node">
<title>u13</title>
<ellipse fill="#ffffbb" stroke="black" cx="1332.18" cy="-190" rx="133.78" ry="18"/>
<text text-anchor="middle" x="1332.18" y="-186.3" font-family="Times,serif" font-size="14.00">GOOL.Drasil.CodeAnalysis</text>
</g>
<!-- u14&#45;&gt;u13 -->
<g id="edge30" class="edge">
<title>u14&#45;&gt;u13</title>
<path fill="none" stroke="black" d="M1455.5,-324.08C1431,-297.64 1383.49,-246.37 1355.12,-215.76"/>
<polygon fill="black" stroke="black" points="1357.37,-213.04 1348.01,-208.08 1352.24,-217.8 1357.37,-213.04"/>
</g>
<!-- u2 -->
<g id="node10" class="node">
<title>u2</title>
<ellipse fill="#ffffbb" stroke="black" cx="1456.18" cy="-798" rx="161.37" ry="18"/>
<text text-anchor="middle" x="1456.18" y="-794.3" font-family="Times,serif" font-size="14.00">GOOL.Drasil.LanguageRenderer</text>
</g>
<!-- u2&#45;&gt;u18 -->
<g id="edge9" class="edge">
<title>u2&#45;&gt;u18</title>
<path fill="none" stroke="black" d="M1456.18,-779.79C1456.18,-753.91 1456.18,-704.73 1456.18,-674.03"/>
<polygon fill="black" stroke="black" points="1459.68,-674.01 1456.18,-664.01 1452.68,-674.01 1459.68,-674.01"/>
</g>
<!-- u1&#45;&gt;u20 -->
<g id="edge8" class="edge">
<title>u1&#45;&gt;u20</title>
<path fill="none" stroke="black" d="M1595.03,-475.79C1614.77,-449.35 1652.69,-398.57 1675.48,-368.04"/>
<polygon fill="black" stroke="black" points="1678.3,-370.11 1681.48,-360.01 1672.69,-365.93 1678.3,-370.11"/>
</g>
<!-- u1&#45;&gt;u14 -->
<g id="edge7" class="edge">
<title>u1&#45;&gt;u14</title>
<path fill="none" stroke="black" d="M1569.45,-475.79C1549.96,-449.46 1512.62,-399 1490,-368.43"/>
<polygon fill="black" stroke="black" points="1492.53,-365.96 1483.76,-360.01 1486.9,-370.13 1492.53,-365.96"/>
</g>
<!-- u10 -->
<g id="node14" class="node">
<title>u10</title>
<ellipse fill="#bbbbff" stroke="black" cx="1686.18" cy="-1255" rx="189.27" ry="18"/>
<text text-anchor="middle" x="1686.18" y="-1251.3" font-family="Times,serif" font-size="14.00">GOOL.Drasil.LanguageRenderer.CLike</text>
</g>
<!-- u12&#45;&gt;u10 -->
<g id="edge29" class="edge">
<title>u12&#45;&gt;u10</title>
<path fill="none" stroke="black" d="M1250.49,-1389.37C1341.91,-1361.39 1526.04,-1305.02 1623.06,-1275.32"/>
<polygon fill="black" stroke="black" points="1624.21,-1278.63 1632.74,-1272.36 1622.16,-1271.94 1624.21,-1278.63"/>
</g>
<!-- u8 -->
<g id="node16" class="node">
<title>u8</title>
<ellipse fill="#bbbbff" stroke="black" cx="1227.18" cy="-1255" rx="251.56" ry="18"/>
<text text-anchor="middle" x="1227.18" y="-1251.3" font-family="Times,serif" font-size="14.00">GOOL.Drasil.LanguageRenderer.CommonPseudoOO</text>
</g>
<!-- u12&#45;&gt;u8 -->
<g id="edge28" class="edge">
<title>u12&#45;&gt;u8</title>
<path fill="none" stroke="black" d="M1199.73,-1388.79C1205.08,-1362.91 1215.25,-1313.73 1221.59,-1283.03"/>
<polygon fill="black" stroke="black" points="1225.07,-1283.51 1223.66,-1273.01 1218.21,-1282.09 1225.07,-1283.51"/>
</g>
<!-- u3 -->
<g id="node21" class="node">
<title>u3</title>
<ellipse fill="#bbbbff" stroke="black" cx="761.18" cy="-1255" rx="196.87" ry="18"/>
<text text-anchor="middle" x="761.18" y="-1251.3" font-family="Times,serif" font-size="14.00">GOOL.Drasil.LanguageRenderer.Macros</text>
</g>
<!-- u12&#45;&gt;u3 -->
<g id="edge27" class="edge">
<title>u12&#45;&gt;u3</title>
<path fill="none" stroke="black" d="M1147.96,-1389.37C1067.24,-1361.54 905.09,-1305.62 818.6,-1275.8"/>
<polygon fill="black" stroke="black" points="819.54,-1272.42 808.95,-1272.47 817.26,-1279.04 819.54,-1272.42"/>
</g>
<!-- u11&#45;&gt;u10 -->
<g id="edge26" class="edge">
<title>u11&#45;&gt;u10</title>
<path fill="none" stroke="black" d="M1686.18,-1388.79C1686.18,-1362.91 1686.18,-1313.73 1686.18,-1283.03"/>
<polygon fill="black" stroke="black" points="1689.68,-1283.01 1686.18,-1273.01 1682.68,-1283.01 1689.68,-1283.01"/>
</g>
<!-- u11&#45;&gt;u8 -->
<g id="edge25" class="edge">
<title>u11&#45;&gt;u8</title>
<path fill="none" stroke="black" d="M1635.3,-1389.37C1550.18,-1361.55 1379.24,-1305.69 1287.94,-1275.86"/>
<polygon fill="black" stroke="black" points="1288.87,-1272.48 1278.28,-1272.7 1286.7,-1279.13 1288.87,-1272.48"/>
</g>
<!-- u11&#45;&gt;u3 -->
<g id="edge24" class="edge">
<title>u11&#45;&gt;u3</title>
<path fill="none" stroke="black" d="M1590.24,-1390.44C1414.7,-1361.98 1043.36,-1301.76 863.32,-1272.56"/>
<polygon fill="black" stroke="black" points="863.75,-1269.09 853.32,-1270.94 862.63,-1276 863.75,-1269.09"/>
</g>
<!-- u6 -->
<g id="node18" class="node">
<title>u6</title>
<ellipse fill="#bbbbff" stroke="black" cx="1456.18" cy="-950" rx="223.66" ry="18"/>
<text text-anchor="middle" x="1456.18" y="-946.3" font-family="Times,serif" font-size="14.00">GOOL.Drasil.LanguageRenderer.Constructors</text>
</g>
<!-- u10&#45;&gt;u6 -->
<g id="edge23" class="edge">
<title>u10&#45;&gt;u6</title>
<path fill="none" stroke="black" d="M1673.15,-1236.84C1634.57,-1186.01 1520.73,-1036.04 1475.26,-976.13"/>
<polygon fill="black" stroke="black" points="1477.89,-973.82 1469.06,-967.97 1472.32,-978.05 1477.89,-973.82"/>
</g>
<!-- u9 -->
<g id="node15" class="node">
<title>u9</title>
<ellipse fill="#bbbbff" stroke="black" cx="1268.18" cy="-1102" rx="265.65" ry="18"/>
<text text-anchor="middle" x="1268.18" y="-1098.3" font-family="Times,serif" font-size="14.00">GOOL.Drasil.LanguageRenderer.LanguagePolymorphic</text>
</g>
<!-- u9&#45;&gt;u6 -->
<g id="edge22" class="edge">
<title>u9&#45;&gt;u6</title>
<path fill="none" stroke="black" d="M1289.74,-1083.79C1323.46,-1056.89 1388.72,-1004.83 1426.73,-974.49"/>
<polygon fill="black" stroke="black" points="1429.23,-976.98 1434.86,-968.01 1424.86,-971.51 1429.23,-976.98"/>
</g>
<!-- u8&#45;&gt;u9 -->
<g id="edge21" class="edge">
<title>u8&#45;&gt;u9</title>
<path fill="none" stroke="black" d="M1231.8,-1236.97C1238.88,-1210.92 1252.45,-1160.92 1260.87,-1129.92"/>
<polygon fill="black" stroke="black" points="1264.27,-1130.77 1263.51,-1120.2 1257.51,-1128.93 1264.27,-1130.77"/>
</g>
<!-- u7&#45;&gt;u10 -->
<g id="edge20" class="edge">
<title>u7&#45;&gt;u10</title>
<path fill="none" stroke="black" d="M820.36,-1390.72C1003.31,-1362.25 1394.73,-1301.35 1582.08,-1272.2"/>
<polygon fill="black" stroke="black" points="1582.87,-1275.62 1592.21,-1270.62 1581.79,-1268.7 1582.87,-1275.62"/>
</g>
<!-- u7&#45;&gt;u8 -->
<g id="edge19" class="edge">
<title>u7&#45;&gt;u8</title>
<path fill="none" stroke="black" d="M777.67,-1389.52C871.52,-1361.64 1061.16,-1305.31 1161.49,-1275.51"/>
<polygon fill="black" stroke="black" points="1162.62,-1278.83 1171.21,-1272.62 1160.63,-1272.12 1162.62,-1278.83"/>
</g>
<!-- u7&#45;&gt;u3 -->
<g id="edge18" class="edge">
<title>u7&#45;&gt;u3</title>
<path fill="none" stroke="black" d="M726.65,-1388.79C733.38,-1362.91 746.17,-1313.73 754.15,-1283.03"/>
<polygon fill="black" stroke="black" points="757.63,-1283.57 756.76,-1273.01 750.85,-1281.8 757.63,-1283.57"/>
</g>
<!-- u6&#45;&gt;u2 -->
<g id="edge17" class="edge">
<title>u6&#45;&gt;u2</title>
<path fill="none" stroke="black" d="M1456.18,-931.79C1456.18,-905.91 1456.18,-856.73 1456.18,-826.03"/>
<polygon fill="black" stroke="black" points="1459.68,-826.01 1456.18,-816.01 1452.68,-826.01 1459.68,-826.01"/>
</g>
<!-- u5&#45;&gt;u15 -->
<g id="edge16" class="edge">
<title>u5&#45;&gt;u15</title>
<path fill="none" stroke="black" d="M2170.18,-1388.79C2170.18,-1362.91 2170.18,-1313.73 2170.18,-1283.03"/>
<polygon fill="black" stroke="black" points="2173.68,-1283.01 2170.18,-1273.01 2166.68,-1283.01 2173.68,-1283.01"/>
</g>
<!-- u5&#45;&gt;u10 -->
<g id="edge15" class="edge">
<title>u5&#45;&gt;u10</title>
<path fill="none" stroke="black" d="M2116.53,-1389.37C2026.23,-1361.39 1844.36,-1305.02 1748.52,-1275.32"/>
<polygon fill="black" stroke="black" points="1749.55,-1271.97 1738.96,-1272.36 1747.48,-1278.66 1749.55,-1271.97"/>
</g>
<!-- u5&#45;&gt;u8 -->
<g id="edge14" class="edge">
<title>u5&#45;&gt;u8</title>
<path fill="none" stroke="black" d="M2074.13,-1390.72C1897.24,-1362.58 1521.11,-1302.75 1335.46,-1273.22"/>
<polygon fill="black" stroke="black" points="1335.83,-1269.74 1325.4,-1271.62 1334.73,-1276.65 1335.83,-1269.74"/>
</g>
<!-- u5&#45;&gt;u3 -->
<g id="edge13" class="edge">
<title>u5&#45;&gt;u3</title>
<path fill="none" stroke="black" d="M2041.09,-1392.26C1774.29,-1363.85 1164.5,-1298.94 894.29,-1270.17"/>
<polygon fill="black" stroke="black" points="894.35,-1266.66 884.04,-1269.08 893.61,-1273.62 894.35,-1266.66"/>
</g>
<!-- u4&#45;&gt;u8 -->
<g id="edge12" class="edge">
<title>u4&#45;&gt;u8</title>
<path fill="none" stroke="black" d="M340.27,-1390.65C526.26,-1362.41 921.36,-1302.43 1115.2,-1273"/>
<polygon fill="black" stroke="black" points="1115.76,-1276.46 1125.12,-1271.49 1114.71,-1269.54 1115.76,-1276.46"/>
</g>
<!-- u4&#45;&gt;u3 -->
<g id="edge11" class="edge">
<title>u4&#45;&gt;u3</title>
<path fill="none" stroke="black" d="M296.54,-1389.52C394.03,-1361.5 591.53,-1304.75 694.82,-1275.07"/>
<polygon fill="black" stroke="black" points="695.88,-1278.41 704.52,-1272.28 693.94,-1271.68 695.88,-1278.41"/>
</g>
<!-- u3&#45;&gt;u18 -->
<g id="edge10" class="edge">
<title>u3&#45;&gt;u18</title>
<path fill="none" stroke="black" d="M779.36,-1236.73C845.73,-1173.85 1081.75,-951.89 1286.18,-780 1333.64,-740.09 1390.77,-696.21 1425.25,-670.16"/>
<polygon fill="black" stroke="black" points="1427.62,-672.75 1433.5,-663.94 1423.41,-667.16 1427.62,-672.75"/>
</g>
</g>
</svg>
