<?xml version="1.0" encoding="UTF-8" standalone="no"?>
<!DOCTYPE svg PUBLIC "-//W3C//DTD SVG 1.1//EN"
 "http://www.w3.org/Graphics/SVG/1.1/DTD/svg11.dtd">
<!-- Generated by graphviz version 2.43.0 (0)
 -->
<!-- Title: G Pages: 1 -->
<svg width="431pt" height="288pt"
 viewBox="0.00 0.00 431.33 288.00" xmlns="http://www.w3.org/2000/svg" xmlns:xlink="http://www.w3.org/1999/xlink">
<g id="graph0" class="graph" transform="scale(4.86 4.86) rotate(0) translate(4 1396.67)">
<title>G</title>
<polygon fill="white" stroke="transparent" points="-4,4 -4,-1396.67 2093.72,-1396.67 2093.72,4 -4,4"/>
<!-- u26 -->
<g id="node1" class="node">
<title>u26</title>
<ellipse fill="#bbffbb" stroke="black" cx="1367.23" cy="-1365" rx="128.08" ry="18"/>
<text text-anchor="middle" x="1367.23" y="-1361.3" font-family="Times,serif" font-size="14.00">Language.Drasil.Printers</text>
</g>
<!-- u24 -->
<g id="node4" class="node">
<title>u24</title>
<ellipse fill="#ffffbb" stroke="black" cx="934.23" cy="-1253" rx="135.68" ry="18"/>
<text text-anchor="middle" x="934.23" y="-1249.3" font-family="Times,serif" font-size="14.00">Language.Drasil.DOT.Print</text>
</g>
<!-- u26&#45;&gt;u24 -->
<g id="edge31" class="edge">
<title>u26&#45;&gt;u24</title>
<path fill="none" stroke="black" d="M1307.93,-1348.94C1228.62,-1328.79 1088.23,-1293.12 1003.94,-1271.71"/>
<polygon fill="black" stroke="black" points="1004.76,-1268.31 994.2,-1269.24 1003.03,-1275.09 1004.76,-1268.31"/>
</g>
<!-- u1 -->
<g id="node9" class="node">
<title>u1</title>
<ellipse fill="#ffbbbb" stroke="black" cx="1513.23" cy="-1253" rx="140.28" ry="18"/>
<text text-anchor="middle" x="1513.23" y="-1249.3" font-family="Times,serif" font-size="14.00">Language.Drasil.JSON.Print</text>
</g>
<!-- u26&#45;&gt;u1 -->
<g id="edge29" class="edge">
<title>u26&#45;&gt;u1</title>
<path fill="none" stroke="black" d="M1389.72,-1347.05C1414.66,-1328.27 1455.02,-1297.86 1482.77,-1276.95"/>
<polygon fill="black" stroke="black" points="1485.07,-1279.6 1490.95,-1270.79 1480.86,-1274.01 1485.07,-1279.6"/>
</g>
<!-- u23 -->
<g id="node11" class="node">
<title>u23</title>
<ellipse fill="#bbffff" stroke="black" cx="1221.23" cy="-1253" rx="133.48" ry="18"/>
<text text-anchor="middle" x="1221.23" y="-1249.3" font-family="Times,serif" font-size="14.00">Language.Drasil.Log.Print</text>
</g>
<!-- u26&#45;&gt;u23 -->
<g id="edge30" class="edge">
<title>u26&#45;&gt;u23</title>
<path fill="none" stroke="black" d="M1344.74,-1347.05C1319.8,-1328.27 1279.44,-1297.86 1251.69,-1276.95"/>
<polygon fill="black" stroke="black" points="1253.6,-1274.01 1243.51,-1270.79 1249.39,-1279.6 1253.6,-1274.01"/>
</g>
<!-- u25 -->
<g id="node12" class="node">
<title>u25</title>
<ellipse fill="#ffbbff" stroke="black" cx="1860.23" cy="-1253" rx="188.47" ry="18"/>
<text text-anchor="middle" x="1860.23" y="-1249.3" font-family="Times,serif" font-size="14.00">Language.Drasil.Markdown.CreateMd</text>
</g>
<!-- u26&#45;&gt;u25 -->
<g id="edge32" class="edge">
<title>u26&#45;&gt;u25</title>
<path fill="none" stroke="black" d="M1432.44,-1349.45C1521.92,-1329.49 1682.65,-1293.62 1779.58,-1271.99"/>
<polygon fill="black" stroke="black" points="1780.63,-1275.35 1789.63,-1269.75 1779.1,-1268.52 1780.63,-1275.35"/>
</g>
<!-- u3 -->
<g id="node2" class="node">
<title>u3</title>
<ellipse fill="#bbffbb" stroke="black" cx="1557.23" cy="-696" rx="119.68" ry="18"/>
<text text-anchor="middle" x="1557.23" y="-692.3" font-family="Times,serif" font-size="14.00">Language.Drasil.Config</text>
</g>
<!-- u2 -->
<g id="node3" class="node">
<title>u2</title>
<ellipse fill="#bbffbb" stroke="black" cx="1966.23" cy="-1142" rx="123.48" ry="18"/>
<text text-anchor="middle" x="1966.23" y="-1138.3" font-family="Times,serif" font-size="14.00">Language.Drasil.Format</text>
</g>
<!-- u22 -->
<g id="node5" class="node">
<title>u22</title>
<ellipse fill="#bbbbff" stroke="black" cx="742.23" cy="-1031" rx="140.28" ry="18"/>
<text text-anchor="middle" x="742.23" y="-1027.3" font-family="Times,serif" font-size="14.00">Language.Drasil.HTML.CSS</text>
</g>
<!-- u21 -->
<g id="node6" class="node">
<title>u21</title>
<ellipse fill="#bbbbff" stroke="black" cx="1355.23" cy="-1142" rx="144.87" ry="18"/>
<text text-anchor="middle" x="1355.23" y="-1138.3" font-family="Times,serif" font-size="14.00">Language.Drasil.HTML.Print</text>
</g>
<!-- u21&#45;&gt;u22 -->
<g id="edge26" class="edge">
<title>u21&#45;&gt;u22</title>
<path fill="none" stroke="black" d="M1276.03,-1126.92C1161.44,-1106.54 950.08,-1068.96 830.58,-1047.71"/>
<polygon fill="black" stroke="black" points="831.18,-1044.26 820.72,-1045.96 829.96,-1051.15 831.18,-1044.26"/>
</g>
<!-- u20 -->
<g id="node7" class="node">
<title>u20</title>
<ellipse fill="#bbbbff" stroke="black" cx="1054.23" cy="-1031" rx="153.27" ry="18"/>
<text text-anchor="middle" x="1054.23" y="-1027.3" font-family="Times,serif" font-size="14.00">Language.Drasil.HTML.Monad</text>
</g>
<!-- u21&#45;&gt;u20 -->
<g id="edge25" class="edge">
<title>u21&#45;&gt;u20</title>
<path fill="none" stroke="black" d="M1310.49,-1124.8C1256.77,-1105.35 1166.7,-1072.73 1108.91,-1051.8"/>
<polygon fill="black" stroke="black" points="1109.81,-1048.4 1099.21,-1048.29 1107.43,-1054.99 1109.81,-1048.4"/>
</g>
<!-- u19 -->
<g id="node8" class="node">
<title>u19</title>
<ellipse fill="#bbbbff" stroke="black" cx="1671.23" cy="-1031" rx="157.87" ry="18"/>
<text text-anchor="middle" x="1671.23" y="-1027.3" font-family="Times,serif" font-size="14.00">Language.Drasil.HTML.Helpers</text>
</g>
<!-- u21&#45;&gt;u19 -->
<g id="edge24" class="edge">
<title>u21&#45;&gt;u19</title>
<path fill="none" stroke="black" d="M1401.86,-1124.92C1458.37,-1105.42 1553.56,-1072.59 1614.34,-1051.62"/>
<polygon fill="black" stroke="black" points="1615.84,-1054.81 1624.15,-1048.24 1613.56,-1048.19 1615.84,-1054.81"/>
</g>
<!-- u31 -->
<g id="node29" class="node">
<title>u31</title>
<ellipse fill="#ff7777" stroke="black" cx="1359.23" cy="-1031" rx="133.48" ry="18"/>
<text text-anchor="middle" x="1359.23" y="-1027.3" font-family="Times,serif" font-size="14.00">Language.Drasil.TeX.Print</text>
</g>
<!-- u21&#45;&gt;u31 -->
<g id="edge27" class="edge">
<title>u21&#45;&gt;u31</title>
<path fill="none" stroke="black" d="M1355.86,-1123.97C1356.49,-1106.71 1357.48,-1079.74 1358.22,-1059.46"/>
<polygon fill="black" stroke="black" points="1361.73,-1059.39 1358.6,-1049.27 1354.73,-1059.14 1361.73,-1059.39"/>
</g>
<!-- u6 -->
<g id="node17" class="node">
<title>u6</title>
<ellipse fill="#ffff77" stroke="black" cx="1023.23" cy="-28" rx="149.47" ry="18"/>
<text text-anchor="middle" x="1023.23" y="-24.3" font-family="Times,serif" font-size="14.00">Language.Drasil.Printing.AST</text>
</g>
<!-- u19&#45;&gt;u6 -->
<g id="edge23" class="edge">
<title>u19&#45;&gt;u6</title>
<path fill="none" stroke="black" d="M1675.68,-1012.94C1684.89,-976.03 1705.23,-885.86 1705.23,-809 1705.23,-809 1705.23,-809 1705.23,-250 1705.23,-132.17 1332.19,-67.75 1137.9,-42.18"/>
<polygon fill="black" stroke="black" points="1138.29,-38.71 1127.93,-40.89 1137.39,-45.65 1138.29,-38.71"/>
</g>
<!-- u1&#45;&gt;u2 -->
<g id="edge4" class="edge">
<title>u1&#45;&gt;u2</title>
<path fill="none" stroke="black" d="M1576.22,-1236.84C1660.02,-1216.68 1807.77,-1181.13 1895.37,-1160.05"/>
<polygon fill="black" stroke="black" points="1896.32,-1163.42 1905.23,-1157.68 1894.68,-1156.62 1896.32,-1163.42"/>
</g>
<!-- u1&#45;&gt;u21 -->
<g id="edge5" class="edge">
<title>u1&#45;&gt;u21</title>
<path fill="none" stroke="black" d="M1488.89,-1235.21C1461.87,-1216.56 1418.11,-1186.38 1388.07,-1165.65"/>
<polygon fill="black" stroke="black" points="1389.82,-1162.61 1379.6,-1159.81 1385.84,-1168.37 1389.82,-1162.61"/>
</g>
<!-- u0 -->
<g id="node10" class="node">
<title>u0</title>
<ellipse fill="#ffbbbb" stroke="black" cx="1671.23" cy="-1142" rx="153.27" ry="18"/>
<text text-anchor="middle" x="1671.23" y="-1138.3" font-family="Times,serif" font-size="14.00">Language.Drasil.JSON.Helpers</text>
</g>
<!-- u1&#45;&gt;u0 -->
<g id="edge3" class="edge">
<title>u1&#45;&gt;u0</title>
<path fill="none" stroke="black" d="M1537.57,-1235.21C1564.6,-1216.56 1608.36,-1186.38 1638.4,-1165.65"/>
<polygon fill="black" stroke="black" points="1640.62,-1168.37 1646.86,-1159.81 1636.64,-1162.61 1640.62,-1168.37"/>
</g>
<!-- u0&#45;&gt;u19 -->
<g id="edge2" class="edge">
<title>u0&#45;&gt;u19</title>
<path fill="none" stroke="black" d="M1671.23,-1123.97C1671.23,-1106.71 1671.23,-1079.74 1671.23,-1059.46"/>
<polygon fill="black" stroke="black" points="1674.73,-1059.27 1671.23,-1049.27 1667.73,-1059.27 1674.73,-1059.27"/>
</g>
<!-- u4 -->
<g id="node19" class="node">
<title>u4</title>
<ellipse fill="#ffff77" stroke="black" cx="1900.23" cy="-585" rx="167.07" ry="18"/>
<text text-anchor="middle" x="1900.23" y="-581.3" font-family="Times,serif" font-size="14.00">Language.Drasil.Printing.Helpers</text>
</g>
<!-- u0&#45;&gt;u4 -->
<g id="edge1" class="edge">
<title>u0&#45;&gt;u4</title>
<path fill="none" stroke="black" d="M1721.47,-1124.94C1758.7,-1110.61 1808.01,-1086.07 1838.23,-1049 1876.16,-1002.48 1878.23,-980.03 1878.23,-920 1878.23,-920 1878.23,-920 1878.23,-807 1878.23,-736.77 1889.37,-654.6 1895.79,-613.03"/>
<polygon fill="black" stroke="black" points="1899.25,-613.56 1897.36,-603.14 1892.34,-612.47 1899.25,-613.56"/>
</g>
<!-- u27 -->
<g id="node13" class="node">
<title>u27</title>
<ellipse fill="#77ff77" stroke="black" cx="815.23" cy="-1142" rx="139.98" ry="18"/>
<text text-anchor="middle" x="815.23" y="-1138.3" font-family="Times,serif" font-size="14.00">Language.Drasil.Plain.Print</text>
</g>
<!-- u23&#45;&gt;u27 -->
<g id="edge28" class="edge">
<title>u23&#45;&gt;u27</title>
<path fill="none" stroke="black" d="M1163.92,-1236.61C1089.93,-1216.75 961.35,-1182.23 882.71,-1161.12"/>
<polygon fill="black" stroke="black" points="883.47,-1157.7 872.9,-1158.48 881.65,-1164.46 883.47,-1157.7"/>
</g>
<!-- u17 -->
<g id="node15" class="node">
<title>u17</title>
<ellipse fill="#ffff77" stroke="black" cx="574.23" cy="-919" rx="162.47" ry="18"/>
<text text-anchor="middle" x="574.23" y="-915.3" font-family="Times,serif" font-size="14.00">Language.Drasil.Printing.Import</text>
</g>
<!-- u27&#45;&gt;u17 -->
<g id="edge33" class="edge">
<title>u27&#45;&gt;u17</title>
<path fill="none" stroke="black" d="M732.16,-1127.45C684.17,-1115.19 626.83,-1092.11 593.23,-1049 570.53,-1019.87 569.04,-975.47 570.96,-947.1"/>
<polygon fill="black" stroke="black" points="574.45,-947.34 571.82,-937.08 567.47,-946.74 574.45,-947.34"/>
</g>
<!-- u18 -->
<g id="node14" class="node">
<title>u18</title>
<ellipse fill="#ffff77" stroke="black" cx="940.23" cy="-696" rx="178.97" ry="18"/>
<text text-anchor="middle" x="940.23" y="-692.3" font-family="Times,serif" font-size="14.00">Language.Drasil.Printing.LayoutObj</text>
</g>
<!-- u7 -->
<g id="node16" class="node">
<title>u7</title>
<ellipse fill="#ffff77" stroke="black" cx="1051.23" cy="-474" rx="167.87" ry="18"/>
<text text-anchor="middle" x="1051.23" y="-470.3" font-family="Times,serif" font-size="14.00">Language.Drasil.Printing.Citation</text>
</g>
<!-- u18&#45;&gt;u7 -->
<g id="edge22" class="edge">
<title>u18&#45;&gt;u7</title>
<path fill="none" stroke="black" d="M948.94,-677.74C968.31,-639.34 1015.06,-546.68 1038.04,-501.15"/>
<polygon fill="black" stroke="black" points="1041.18,-502.69 1042.56,-492.18 1034.93,-499.53 1041.18,-502.69"/>
</g>
<!-- u11 -->
<g id="node25" class="node">
<title>u11</title>
<ellipse fill="#7777ff" stroke="black" cx="574.23" cy="-808" rx="212.56" ry="18"/>
<text text-anchor="middle" x="574.23" y="-804.3" font-family="Times,serif" font-size="14.00">Language.Drasil.Printing.Import.Document</text>
</g>
<!-- u17&#45;&gt;u11 -->
<g id="edge21" class="edge">
<title>u17&#45;&gt;u11</title>
<path fill="none" stroke="black" d="M574.23,-900.97C574.23,-883.71 574.23,-856.74 574.23,-836.46"/>
<polygon fill="black" stroke="black" points="577.73,-836.27 574.23,-826.27 570.73,-836.27 577.73,-836.27"/>
</g>
<!-- u8 -->
<g id="node28" class="node">
<title>u8</title>
<ellipse fill="#7777ff" stroke="black" cx="211.23" cy="-362" rx="211.46" ry="18"/>
<text text-anchor="middle" x="211.23" y="-358.3" font-family="Times,serif" font-size="14.00">Language.Drasil.Printing.Import.CodeExpr</text>
</g>
<!-- u17&#45;&gt;u8 -->
<g id="edge20" class="edge">
<title>u17&#45;&gt;u8</title>
<path fill="none" stroke="black" d="M501.25,-902.91C453.57,-889.73 392.85,-866.21 352.23,-826 307.94,-782.15 297.23,-759.33 297.23,-697 297.23,-697 297.23,-697 297.23,-584 297.23,-508.95 253.62,-428.72 228.51,-388.74"/>
<polygon fill="black" stroke="black" points="231.35,-386.69 223.01,-380.16 225.46,-390.46 231.35,-386.69"/>
</g>
<!-- u7&#45;&gt;u6 -->
<g id="edge6" class="edge">
<title>u7&#45;&gt;u6</title>
<path fill="none" stroke="black" d="M1061.36,-455.76C1090.78,-403.35 1170.9,-242.08 1119.23,-121 1106.94,-92.19 1080.71,-68.08 1058.78,-51.78"/>
<polygon fill="black" stroke="black" points="1060.78,-48.91 1050.62,-45.92 1056.7,-54.59 1060.78,-48.91"/>
</g>
<!-- u5 -->
<g id="node18" class="node">
<title>u5</title>
<ellipse fill="#ffff77" stroke="black" cx="464.23" cy="-139" rx="223.66" ry="18"/>
<text text-anchor="middle" x="464.23" y="-135.3" font-family="Times,serif" font-size="14.00">Language.Drasil.Printing.PrintingInformation</text>
</g>
<!-- u16 -->
<g id="node20" class="node">
<title>u16</title>
<ellipse fill="#7777ff" stroke="black" cx="212.23" cy="-251" rx="200.36" ry="18"/>
<text text-anchor="middle" x="212.23" y="-247.3" font-family="Times,serif" font-size="14.00">Language.Drasil.Printing.Import.Symbol</text>
</g>
<!-- u16&#45;&gt;u6 -->
<g id="edge19" class="edge">
<title>u16&#45;&gt;u6</title>
<path fill="none" stroke="black" d="M208.94,-232.91C204.67,-205.13 201.01,-150.31 231.23,-121 276.71,-76.89 662.27,-48.81 878.18,-36.4"/>
<polygon fill="black" stroke="black" points="878.55,-39.89 888.33,-35.82 878.15,-32.9 878.55,-39.89"/>
</g>
<!-- u15 -->
<g id="node21" class="node">
<title>u15</title>
<ellipse fill="#7777ff" stroke="black" cx="535.23" cy="-696" rx="207.96" ry="18"/>
<text text-anchor="middle" x="535.23" y="-692.3" font-family="Times,serif" font-size="14.00">Language.Drasil.Printing.Import.Sentence</text>
</g>
<!-- u10 -->
<g id="node26" class="node">
<title>u10</title>
<ellipse fill="#7777ff" stroke="black" cx="563.23" cy="-585" rx="216.36" ry="18"/>
<text text-anchor="middle" x="563.23" y="-581.3" font-family="Times,serif" font-size="14.00">Language.Drasil.Printing.Import.ModelExpr</text>
</g>
<!-- u15&#45;&gt;u10 -->
<g id="edge18" class="edge">
<title>u15&#45;&gt;u10</title>
<path fill="none" stroke="black" d="M539.61,-677.97C544.06,-660.63 551.03,-633.49 556.25,-613.18"/>
<polygon fill="black" stroke="black" points="559.7,-613.83 558.79,-603.27 552.92,-612.09 559.7,-613.83"/>
</g>
<!-- u14 -->
<g id="node22" class="node">
<title>u14</title>
<ellipse fill="#7777ff" stroke="black" cx="585.23" cy="-474" rx="193.07" ry="18"/>
<text text-anchor="middle" x="585.23" y="-470.3" font-family="Times,serif" font-size="14.00">Language.Drasil.Printing.Import.Space</text>
</g>
<!-- u12 -->
<g id="node24" class="node">
<title>u12</title>
<ellipse fill="#7777ff" stroke="black" cx="628.23" cy="-362" rx="187.67" ry="18"/>
<text text-anchor="middle" x="628.23" y="-358.3" font-family="Times,serif" font-size="14.00">Language.Drasil.Printing.Import.Expr</text>
</g>
<!-- u14&#45;&gt;u12 -->
<g id="edge17" class="edge">
<title>u14&#45;&gt;u12</title>
<path fill="none" stroke="black" d="M591.95,-455.81C598.89,-438.05 609.82,-410.1 617.87,-389.51"/>
<polygon fill="black" stroke="black" points="621.18,-390.65 621.56,-380.07 614.66,-388.11 621.18,-390.65"/>
</g>
<!-- u13 -->
<g id="node23" class="node">
<title>u13</title>
<ellipse fill="#7777ff" stroke="black" cx="627.23" cy="-251" rx="196.07" ry="18"/>
<text text-anchor="middle" x="627.23" y="-247.3" font-family="Times,serif" font-size="14.00">Language.Drasil.Printing.Import.Literal</text>
</g>
<!-- u13&#45;&gt;u5 -->
<g id="edge15" class="edge">
<title>u13&#45;&gt;u5</title>
<path fill="none" stroke="black" d="M602.12,-233.05C574.12,-214.16 528.71,-183.51 497.71,-162.59"/>
<polygon fill="black" stroke="black" points="499.62,-159.66 489.37,-156.97 495.7,-165.46 499.62,-159.66"/>
</g>
<!-- u9 -->
<g id="node27" class="node">
<title>u9</title>
<ellipse fill="#7777ff" stroke="black" cx="908.23" cy="-139" rx="202.26" ry="18"/>
<text text-anchor="middle" x="908.23" y="-135.3" font-family="Times,serif" font-size="14.00">Language.Drasil.Printing.Import.Helpers</text>
</g>
<!-- u13&#45;&gt;u9 -->
<g id="edge16" class="edge">
<title>u13&#45;&gt;u9</title>
<path fill="none" stroke="black" d="M669.6,-233.41C719.5,-213.88 802.39,-181.43 856.16,-160.39"/>
<polygon fill="black" stroke="black" points="857.48,-163.63 865.51,-156.72 854.93,-157.11 857.48,-163.63"/>
</g>
<!-- u12&#45;&gt;u16 -->
<g id="edge14" class="edge">
<title>u12&#45;&gt;u16</title>
<path fill="none" stroke="black" d="M566.85,-344.92C491.42,-325.15 363.66,-291.68 283.84,-270.76"/>
<polygon fill="black" stroke="black" points="284.43,-267.3 273.87,-268.15 282.65,-274.07 284.43,-267.3"/>
</g>
<!-- u12&#45;&gt;u13 -->
<g id="edge13" class="edge">
<title>u12&#45;&gt;u13</title>
<path fill="none" stroke="black" d="M628.08,-343.97C627.92,-326.71 627.67,-299.74 627.48,-279.46"/>
<polygon fill="black" stroke="black" points="630.98,-279.24 627.39,-269.27 623.98,-279.3 630.98,-279.24"/>
</g>
<!-- u11&#45;&gt;u18 -->
<g id="edge12" class="edge">
<title>u11&#45;&gt;u18</title>
<path fill="none" stroke="black" d="M629.03,-790.53C695.3,-770.61 806.68,-737.14 876.67,-716.1"/>
<polygon fill="black" stroke="black" points="877.69,-719.45 886.26,-713.22 875.67,-712.75 877.69,-719.45"/>
</g>
<!-- u11&#45;&gt;u15 -->
<g id="edge11" class="edge">
<title>u11&#45;&gt;u15</title>
<path fill="none" stroke="black" d="M568.14,-789.81C561.84,-772.05 551.93,-744.1 544.63,-723.51"/>
<polygon fill="black" stroke="black" points="547.92,-722.32 541.28,-714.07 541.33,-724.66 547.92,-722.32"/>
</g>
<!-- u10&#45;&gt;u14 -->
<g id="edge10" class="edge">
<title>u10&#45;&gt;u14</title>
<path fill="none" stroke="black" d="M566.67,-566.97C570.17,-549.63 575.65,-522.49 579.74,-502.18"/>
<polygon fill="black" stroke="black" points="583.2,-502.77 581.75,-492.27 576.34,-501.38 583.2,-502.77"/>
</g>
<!-- u9&#45;&gt;u6 -->
<g id="edge9" class="edge">
<title>u9&#45;&gt;u6</title>
<path fill="none" stroke="black" d="M926.2,-120.97C945.53,-102.65 976.4,-73.39 998.12,-52.8"/>
<polygon fill="black" stroke="black" points="1000.54,-55.33 1005.39,-45.91 995.72,-50.25 1000.54,-55.33"/>
</g>
<!-- u8&#45;&gt;u16 -->
<g id="edge8" class="edge">
<title>u8&#45;&gt;u16</title>
<path fill="none" stroke="black" d="M211.39,-343.97C211.55,-326.71 211.79,-299.74 211.98,-279.46"/>
<polygon fill="black" stroke="black" points="215.48,-279.3 212.07,-269.27 208.48,-279.24 215.48,-279.3"/>
</g>
<!-- u8&#45;&gt;u13 -->
<g id="edge7" class="edge">
<title>u8&#45;&gt;u13</title>
<path fill="none" stroke="black" d="M273.51,-344.68C349.04,-324.89 476.1,-291.6 555.61,-270.77"/>
<polygon fill="black" stroke="black" points="556.76,-274.08 565.55,-268.16 554.98,-267.31 556.76,-274.08"/>
</g>
<!-- u31&#45;&gt;u17 -->
<g id="edge39" class="edge">
<title>u31&#45;&gt;u17</title>
<path fill="none" stroke="black" d="M1270.33,-1017.54C1124.9,-997.16 836.74,-956.78 680.66,-934.91"/>
<polygon fill="black" stroke="black" points="680.97,-931.42 670.58,-933.5 680,-938.35 680.97,-931.42"/>
</g>
<!-- u29 -->
<g id="node31" class="node">
<title>u29</title>
<ellipse fill="#ff7777" stroke="black" cx="1318.23" cy="-919" rx="154.07" ry="18"/>
<text text-anchor="middle" x="1318.23" y="-915.3" font-family="Times,serif" font-size="14.00">Language.Drasil.TeX.Preamble</text>
</g>
<!-- u31&#45;&gt;u29 -->
<g id="edge40" class="edge">
<title>u31&#45;&gt;u29</title>
<path fill="none" stroke="black" d="M1352.83,-1012.81C1346.21,-995.05 1335.79,-967.1 1328.11,-946.51"/>
<polygon fill="black" stroke="black" points="1331.36,-945.21 1324.59,-937.07 1324.81,-947.66 1331.36,-945.21"/>
</g>
<!-- u30 -->
<g id="node30" class="node">
<title>u30</title>
<ellipse fill="#ff7777" stroke="black" cx="1278.23" cy="-696" rx="141.88" ry="18"/>
<text text-anchor="middle" x="1278.23" y="-692.3" font-family="Times,serif" font-size="14.00">Language.Drasil.TeX.Monad</text>
</g>
<!-- u30&#45;&gt;u4 -->
<g id="edge38" class="edge">
<title>u30&#45;&gt;u4</title>
<path fill="none" stroke="black" d="M1357.64,-681.08C1472.48,-660.96 1684.51,-623.8 1806.74,-602.38"/>
<polygon fill="black" stroke="black" points="1807.59,-605.79 1816.84,-600.61 1806.38,-598.89 1807.59,-605.79"/>
</g>
<!-- u29&#45;&gt;u18 -->
<g id="edge36" class="edge">
<title>u29&#45;&gt;u18</title>
<path fill="none" stroke="black" d="M1289.51,-901.21C1222.04,-861.76 1053.47,-763.21 977.91,-719.03"/>
<polygon fill="black" stroke="black" points="979.57,-715.94 969.17,-713.92 976.03,-721.99 979.57,-715.94"/>
</g>
<!-- u28 -->
<g id="node32" class="node">
<title>u28</title>
<ellipse fill="#ff7777" stroke="black" cx="1318.23" cy="-808" rx="146.47" ry="18"/>
<text text-anchor="middle" x="1318.23" y="-804.3" font-family="Times,serif" font-size="14.00">Language.Drasil.TeX.Helpers</text>
</g>
<!-- u29&#45;&gt;u28 -->
<g id="edge37" class="edge">
<title>u29&#45;&gt;u28</title>
<path fill="none" stroke="black" d="M1318.23,-900.97C1318.23,-883.71 1318.23,-856.74 1318.23,-836.46"/>
<polygon fill="black" stroke="black" points="1321.73,-836.27 1318.23,-826.27 1314.73,-836.27 1321.73,-836.27"/>
</g>
<!-- u28&#45;&gt;u3 -->
<g id="edge34" class="edge">
<title>u28&#45;&gt;u3</title>
<path fill="none" stroke="black" d="M1354.01,-790.53C1396.41,-771.02 1467.06,-738.5 1512.89,-717.41"/>
<polygon fill="black" stroke="black" points="1514.37,-720.58 1521.99,-713.22 1511.44,-714.22 1514.37,-720.58"/>
</g>
<!-- u28&#45;&gt;u30 -->
<g id="edge35" class="edge">
<title>u28&#45;&gt;u30</title>
<path fill="none" stroke="black" d="M1311.98,-789.81C1305.52,-772.05 1295.36,-744.1 1287.87,-723.51"/>
<polygon fill="black" stroke="black" points="1291.14,-722.27 1284.44,-714.07 1284.57,-724.66 1291.14,-722.27"/>
</g>
</g>
</svg>
