<?xml version="1.0" encoding="UTF-8" standalone="no"?>
<!DOCTYPE svg PUBLIC "-//W3C//DTD SVG 1.1//EN"
 "http://www.w3.org/Graphics/SVG/1.1/DTD/svg11.dtd">
<!-- Generated by graphviz version 2.43.0 (0)
 -->
<!-- Title: G Pages: 1 -->
<svg width="432pt" height="287pt"
 viewBox="0.00 0.00 432.00 286.82" xmlns="http://www.w3.org/2000/svg" xmlns:xlink="http://www.w3.org/1999/xlink">
<g id="graph0" class="graph" transform="scale(14.01 14.01) rotate(0) translate(4 4013.33)">
<title>G</title>
<polygon fill="white" stroke="transparent" points="-4,4 -4,-4013.33 6046.79,-4013.33 6046.79,4 -4,4"/>
<!-- u6 -->
<g id="node1" class="node">
<title>u6</title>
<ellipse fill="#bbffbb" stroke="black" cx="640.79" cy="-3686" rx="62.29" ry="18"/>
<text text-anchor="middle" x="640.79" y="-3682.3" font-family="Times,serif" font-size="14.00">HelloWorld</text>
</g>
<!-- u3 -->
<g id="node4" class="node">
<title>u3</title>
<ellipse fill="#bbffbb" stroke="black" cx="539.79" cy="-3427" rx="42.49" ry="18"/>
<text text-anchor="middle" x="539.79" y="-3423.3" font-family="Times,serif" font-size="14.00">Helper</text>
</g>
<!-- u6&#45;&gt;u3 -->
<g id="edge2" class="edge">
<title>u6&#45;&gt;u3</title>
<path fill="none" stroke="black" d="M634.01,-3667.74C616.68,-3623.65 570.71,-3506.68 550.08,-3454.16"/>
<polygon fill="black" stroke="black" points="553.33,-3452.88 546.42,-3444.85 546.82,-3455.44 553.33,-3452.88"/>
</g>
<!-- u5 -->
<g id="node2" class="node">
<title>u5</title>
<ellipse fill="#bbffbb" stroke="black" cx="59.79" cy="-3686" rx="59.59" ry="18"/>
<text text-anchor="middle" x="59.79" y="-3682.3" font-family="Times,serif" font-size="14.00">VectorTest</text>
</g>
<!-- u4 -->
<g id="node3" class="node">
<title>u4</title>
<ellipse fill="#bbffbb" stroke="black" cx="189.79" cy="-3686" rx="52.79" ry="18"/>
<text text-anchor="middle" x="189.79" y="-3682.3" font-family="Times,serif" font-size="14.00">FileTests</text>
</g>
<!-- u2 -->
<g id="node5" class="node">
<title>u2</title>
<ellipse fill="#bbffbb" stroke="black" cx="325.79" cy="-3427" rx="53.89" ry="18"/>
<text text-anchor="middle" x="325.79" y="-3423.3" font-family="Times,serif" font-size="14.00">Observer</text>
</g>
<!-- u1 -->
<g id="node6" class="node">
<title>u1</title>
<ellipse fill="#bbffbb" stroke="black" cx="325.79" cy="-3686" rx="64.99" ry="18"/>
<text text-anchor="middle" x="325.79" y="-3682.3" font-family="Times,serif" font-size="14.00">PatternTest</text>
</g>
<!-- u1&#45;&gt;u2 -->
<g id="edge1" class="edge">
<title>u1&#45;&gt;u2</title>
<path fill="none" stroke="black" d="M325.79,-3667.74C325.79,-3623.94 325.79,-3508.2 325.79,-3455.2"/>
<polygon fill="black" stroke="black" points="329.29,-3455.19 325.79,-3445.19 322.29,-3455.19 329.29,-3455.19"/>
</g>
<!-- u0 -->
<g id="node7" class="node">
<title>u0</title>
<ellipse fill="#bbffbb" stroke="black" cx="484.79" cy="-3686" rx="76.09" ry="18"/>
<text text-anchor="middle" x="484.79" y="-3682.3" font-family="Times,serif" font-size="14.00">NameGenTest</text>
</g>
<!-- u58 -->
<g id="node8" class="node">
<title>u58</title>
<ellipse fill="#ffffbb" stroke="black" cx="2021.79" cy="-3945" rx="214.46" ry="18"/>
<text text-anchor="middle" x="2021.79" y="-3941.3" font-family="Times,serif" font-size="14.00">Data.Drasil.ExternalLibraries.ODELibraries</text>
</g>
<!-- u9 -->
<g id="node11" class="node">
<title>u9</title>
<ellipse fill="#bbbbff" stroke="black" cx="2021.79" cy="-3686" rx="113.18" ry="18"/>
<text text-anchor="middle" x="2021.79" y="-3682.3" font-family="Times,serif" font-size="14.00">Language.Drasil.Code</text>
</g>
<!-- u58&#45;&gt;u9 -->
<g id="edge92" class="edge">
<title>u58&#45;&gt;u9</title>
<path fill="none" stroke="black" d="M2021.79,-3926.74C2021.79,-3882.94 2021.79,-3767.2 2021.79,-3714.2"/>
<polygon fill="black" stroke="black" points="2025.29,-3714.19 2021.79,-3704.19 2018.29,-3714.19 2025.29,-3714.19"/>
</g>
<!-- u49 -->
<g id="node9" class="node">
<title>u49</title>
<ellipse fill="#bbbbff" stroke="black" cx="3899.79" cy="-841" rx="110.48" ry="18"/>
<text text-anchor="middle" x="3899.79" y="-837.3" font-family="Times,serif" font-size="14.00">Language.Drasil.Mod</text>
</g>
<!-- u54 -->
<g id="node14" class="node">
<title>u54</title>
<ellipse fill="#ffbbbb" stroke="black" cx="3899.79" cy="-582" rx="170.87" ry="18"/>
<text text-anchor="middle" x="3899.79" y="-578.3" font-family="Times,serif" font-size="14.00">Language.Drasil.Chunk.Parameter</text>
</g>
<!-- u49&#45;&gt;u54 -->
<g id="edge83" class="edge">
<title>u49&#45;&gt;u54</title>
<path fill="none" stroke="black" d="M3899.79,-822.74C3899.79,-778.94 3899.79,-663.2 3899.79,-610.2"/>
<polygon fill="black" stroke="black" points="3903.29,-610.19 3899.79,-600.19 3896.29,-610.19 3903.29,-610.19"/>
</g>
<!-- u46 -->
<g id="node20" class="node">
<title>u46</title>
<ellipse fill="#bbffff" stroke="black" cx="3459.79" cy="-582" rx="160.57" ry="18"/>
<text text-anchor="middle" x="3459.79" y="-578.3" font-family="Times,serif" font-size="14.00">Language.Drasil.Code.DataDesc</text>
</g>
<!-- u49&#45;&gt;u46 -->
<g id="edge82" class="edge">
<title>u49&#45;&gt;u46</title>
<path fill="none" stroke="black" d="M3871.6,-823.53C3795.12,-778.86 3583.68,-655.36 3497.3,-604.91"/>
<polygon fill="black" stroke="black" points="3499.01,-601.85 3488.61,-599.83 3495.48,-607.9 3499.01,-601.85"/>
</g>
<!-- u48 -->
<g id="node10" class="node">
<title>u48</title>
<ellipse fill="#bbbbff" stroke="black" cx="4554.79" cy="-1875" rx="135.68" ry="18"/>
<text text-anchor="middle" x="4554.79" y="-1871.3" font-family="Times,serif" font-size="14.00">Language.Drasil.CodeSpec</text>
</g>
<!-- u8 -->
<g id="node12" class="node">
<title>u8</title>
<ellipse fill="#bbbbff" stroke="black" cx="3922.79" cy="-1617" rx="126.18" ry="18"/>
<text text-anchor="middle" x="3922.79" y="-1613.3" font-family="Times,serif" font-size="14.00">Language.Drasil.Choices</text>
</g>
<!-- u48&#45;&gt;u8 -->
<g id="edge79" class="edge">
<title>u48&#45;&gt;u8</title>
<path fill="none" stroke="black" d="M4514.78,-1857.79C4403.95,-1812.9 4093.22,-1687.03 3972.05,-1637.95"/>
<polygon fill="black" stroke="black" points="3973.22,-1634.65 3962.63,-1634.14 3970.59,-1641.14 3973.22,-1634.65"/>
</g>
<!-- u52 -->
<g id="node16" class="node">
<title>u52</title>
<ellipse fill="#ffbbbb" stroke="black" cx="4974.79" cy="-1617" rx="191.17" ry="18"/>
<text text-anchor="middle" x="4974.79" y="-1613.3" font-family="Times,serif" font-size="14.00">Language.Drasil.Chunk.CodeDefinition</text>
</g>
<!-- u48&#45;&gt;u52 -->
<g id="edge81" class="edge">
<title>u48&#45;&gt;u52</title>
<path fill="none" stroke="black" d="M4582.35,-1857.2C4655.7,-1812.49 4855.74,-1690.57 4938.35,-1640.21"/>
<polygon fill="black" stroke="black" points="4940.42,-1643.05 4947.14,-1634.86 4936.78,-1637.07 4940.42,-1643.05"/>
</g>
<!-- u51 -->
<g id="node17" class="node">
<title>u51</title>
<ellipse fill="#ffbbbb" stroke="black" cx="4535.79" cy="-1617" rx="192.27" ry="18"/>
<text text-anchor="middle" x="4535.79" y="-1613.3" font-family="Times,serif" font-size="14.00">Language.Drasil.Chunk.ConstraintMap</text>
</g>
<!-- u48&#45;&gt;u51 -->
<g id="edge80" class="edge">
<title>u48&#45;&gt;u51</title>
<path fill="none" stroke="black" d="M4553.52,-1856.81C4550.28,-1813.18 4541.72,-1697.89 4537.81,-1645.1"/>
<polygon fill="black" stroke="black" points="4541.3,-1644.83 4537.07,-1635.12 4534.32,-1645.35 4541.3,-1644.83"/>
</g>
<!-- u30 -->
<g id="node31" class="node">
<title>u30</title>
<ellipse fill="#ffbbff" stroke="black" cx="1609.79" cy="-2134" rx="217.96" ry="18"/>
<text text-anchor="middle" x="1609.79" y="-2130.3" font-family="Times,serif" font-size="14.00">Language.Drasil.Code.Imperative.ReadInput</text>
</g>
<!-- u9&#45;&gt;u30 -->
<g id="edge12" class="edge">
<title>u9&#45;&gt;u30</title>
<path fill="none" stroke="black" d="M1940.29,-3673.51C1639.6,-3628.89 609.79,-3455.23 609.79,-3170 609.79,-3170 609.79,-3170 609.79,-2650 609.79,-2282.71 1149.57,-2177.13 1435.98,-2146.96"/>
<polygon fill="black" stroke="black" points="1436.48,-2150.42 1446.06,-2145.91 1435.76,-2143.46 1436.48,-2150.42"/>
</g>
<!-- u25 -->
<g id="node34" class="node">
<title>u25</title>
<ellipse fill="#ffbbff" stroke="black" cx="4859.79" cy="-3427" rx="217.16" ry="18"/>
<text text-anchor="middle" x="4859.79" y="-3423.3" font-family="Times,serif" font-size="14.00">Language.Drasil.Code.Imperative.Generator</text>
</g>
<!-- u9&#45;&gt;u25 -->
<g id="edge11" class="edge">
<title>u9&#45;&gt;u25</title>
<path fill="none" stroke="black" d="M2117.44,-3676.34C2534.67,-3638.56 4197.45,-3487.98 4709.15,-3441.64"/>
<polygon fill="black" stroke="black" points="4709.54,-3445.12 4719.19,-3440.73 4708.91,-3438.15 4709.54,-3445.12"/>
</g>
<!-- u36 -->
<g id="node51" class="node">
<title>u36</title>
<ellipse fill="#ff7777" stroke="black" cx="3944.79" cy="-3169" rx="369.33" ry="18"/>
<text text-anchor="middle" x="3944.79" y="-3165.3" font-family="Times,serif" font-size="14.00">Language.Drasil.Code.Imperative.GOOL.LanguageRenderer.CSharpRenderer</text>
</g>
<!-- u9&#45;&gt;u36 -->
<g id="edge17" class="edge">
<title>u9&#45;&gt;u36</title>
<path fill="none" stroke="black" d="M2077.02,-3670.21C2350.8,-3596.89 3561.78,-3272.58 3872.13,-3189.46"/>
<polygon fill="black" stroke="black" points="3873.17,-3192.81 3881.92,-3186.84 3871.36,-3186.04 3873.17,-3192.81"/>
</g>
<!-- u35 -->
<g id="node52" class="node">
<title>u35</title>
<ellipse fill="#ff7777" stroke="black" cx="991.79" cy="-3169" rx="354.44" ry="18"/>
<text text-anchor="middle" x="991.79" y="-3165.3" font-family="Times,serif" font-size="14.00">Language.Drasil.Code.Imperative.GOOL.LanguageRenderer.JavaRenderer</text>
</g>
<!-- u9&#45;&gt;u35 -->
<g id="edge16" class="edge">
<title>u9&#45;&gt;u35</title>
<path fill="none" stroke="black" d="M1989.27,-3668.74C1838.34,-3593.27 1206.35,-3277.28 1034.88,-3191.54"/>
<polygon fill="black" stroke="black" points="1036.39,-3188.39 1025.89,-3187.05 1033.26,-3194.65 1036.39,-3188.39"/>
</g>
<!-- u34 -->
<g id="node53" class="node">
<title>u34</title>
<ellipse fill="#ff7777" stroke="black" cx="1730.79" cy="-3169" rx="367.43" ry="18"/>
<text text-anchor="middle" x="1730.79" y="-3165.3" font-family="Times,serif" font-size="14.00">Language.Drasil.Code.Imperative.GOOL.LanguageRenderer.PythonRenderer</text>
</g>
<!-- u9&#45;&gt;u34 -->
<g id="edge15" class="edge">
<title>u9&#45;&gt;u34</title>
<path fill="none" stroke="black" d="M2012.11,-3667.87C1969.35,-3592.18 1797.21,-3287.55 1745.54,-3196.09"/>
<polygon fill="black" stroke="black" points="1748.48,-3194.18 1740.51,-3187.2 1742.39,-3197.63 1748.48,-3194.18"/>
</g>
<!-- u33 -->
<g id="node54" class="node">
<title>u33</title>
<ellipse fill="#ff7777" stroke="black" cx="2468.79" cy="-3169" rx="352.84" ry="18"/>
<text text-anchor="middle" x="2468.79" y="-3165.3" font-family="Times,serif" font-size="14.00">Language.Drasil.Code.Imperative.GOOL.LanguageRenderer.CppRenderer</text>
</g>
<!-- u9&#45;&gt;u33 -->
<g id="edge14" class="edge">
<title>u9&#45;&gt;u33</title>
<path fill="none" stroke="black" d="M2036.67,-3667.87C2102.63,-3591.87 2368.91,-3285.08 2447.1,-3194.99"/>
<polygon fill="black" stroke="black" points="2449.95,-3197.05 2453.87,-3187.2 2444.67,-3192.46 2449.95,-3197.05"/>
</g>
<!-- u32 -->
<g id="node55" class="node">
<title>u32</title>
<ellipse fill="#ff7777" stroke="black" cx="3198.79" cy="-3169" rx="358.54" ry="18"/>
<text text-anchor="middle" x="3198.79" y="-3165.3" font-family="Times,serif" font-size="14.00">Language.Drasil.Code.Imperative.GOOL.LanguageRenderer.SwiftRenderer</text>
</g>
<!-- u9&#45;&gt;u32 -->
<g id="edge13" class="edge">
<title>u9&#45;&gt;u32</title>
<path fill="none" stroke="black" d="M2058.64,-3668.88C2230.86,-3593.52 2956.34,-3276.09 3150.71,-3191.04"/>
<polygon fill="black" stroke="black" points="3152.34,-3194.15 3160.1,-3186.93 3149.53,-3187.73 3152.34,-3194.15"/>
</g>
<!-- u11 -->
<g id="node25" class="node">
<title>u11</title>
<ellipse fill="#bbffff" stroke="black" cx="3575.79" cy="-1358" rx="139.98" ry="18"/>
<text text-anchor="middle" x="3575.79" y="-1354.3" font-family="Times,serif" font-size="14.00">Language.Drasil.Code.Code</text>
</g>
<!-- u8&#45;&gt;u11 -->
<g id="edge9" class="edge">
<title>u8&#45;&gt;u11</title>
<path fill="none" stroke="black" d="M3900.03,-1599.14C3839.73,-1554.48 3675.83,-1433.09 3606.95,-1382.07"/>
<polygon fill="black" stroke="black" points="3608.77,-1379.06 3598.65,-1375.92 3604.6,-1384.69 3608.77,-1379.06"/>
</g>
<!-- u56 -->
<g id="node58" class="node">
<title>u56</title>
<ellipse fill="#ff77ff" stroke="black" cx="3922.79" cy="-1358" rx="172.77" ry="18"/>
<text text-anchor="middle" x="3922.79" y="-1354.3" font-family="Times,serif" font-size="14.00">Language.Drasil.Data.ODELibPckg</text>
</g>
<!-- u8&#45;&gt;u56 -->
<g id="edge10" class="edge">
<title>u8&#45;&gt;u56</title>
<path fill="none" stroke="black" d="M3922.79,-1598.74C3922.79,-1554.94 3922.79,-1439.2 3922.79,-1386.2"/>
<polygon fill="black" stroke="black" points="3926.29,-1386.19 3922.79,-1376.19 3919.29,-1386.19 3926.29,-1386.19"/>
</g>
<!-- u55 -->
<g id="node13" class="node">
<title>u55</title>
<ellipse fill="#ffbbbb" stroke="black" cx="3899.79" cy="-65" rx="168.17" ry="18"/>
<text text-anchor="middle" x="3899.79" y="-61.3" font-family="Times,serif" font-size="14.00">Language.Drasil.Chunk.CodeBase</text>
</g>
<!-- u50 -->
<g id="node18" class="node">
<title>u50</title>
<ellipse fill="#ffbbbb" stroke="black" cx="3899.79" cy="-323" rx="145.67" ry="18"/>
<text text-anchor="middle" x="3899.79" y="-319.3" font-family="Times,serif" font-size="14.00">Language.Drasil.Chunk.Code</text>
</g>
<!-- u54&#45;&gt;u50 -->
<g id="edge86" class="edge">
<title>u54&#45;&gt;u50</title>
<path fill="none" stroke="black" d="M3899.79,-563.74C3899.79,-519.94 3899.79,-404.2 3899.79,-351.2"/>
<polygon fill="black" stroke="black" points="3903.29,-351.19 3899.79,-341.19 3896.29,-351.19 3903.29,-351.19"/>
</g>
<!-- u53 -->
<g id="node15" class="node">
<title>u53</title>
<ellipse fill="#ffbbbb" stroke="black" cx="4272.79" cy="-841" rx="202.26" ry="18"/>
<text text-anchor="middle" x="4272.79" y="-837.3" font-family="Times,serif" font-size="14.00">Language.Drasil.Chunk.NamedArgument</text>
</g>
<!-- u57 -->
<g id="node57" class="node">
<title>u57</title>
<ellipse fill="#ff77ff" stroke="black" cx="4677.79" cy="-1099" rx="154.07" ry="18"/>
<text text-anchor="middle" x="4677.79" y="-1095.3" font-family="Times,serif" font-size="14.00">Language.Drasil.Data.ODEInfo</text>
</g>
<!-- u52&#45;&gt;u57 -->
<g id="edge85" class="edge">
<title>u52&#45;&gt;u57</title>
<path fill="none" stroke="black" d="M4964.91,-1598.83C4921.22,-1522.91 4745.19,-1217.09 4692.66,-1125.83"/>
<polygon fill="black" stroke="black" points="4695.58,-1123.89 4687.56,-1116.97 4689.52,-1127.38 4695.58,-1123.89"/>
</g>
<!-- u50&#45;&gt;u55 -->
<g id="edge84" class="edge">
<title>u50&#45;&gt;u55</title>
<path fill="none" stroke="black" d="M3899.79,-304.81C3899.79,-261.27 3899.79,-146.37 3899.79,-93.43"/>
<polygon fill="black" stroke="black" points="3903.29,-93.12 3899.79,-83.12 3896.29,-93.12 3903.29,-93.12"/>
</g>
<!-- u47 -->
<g id="node19" class="node">
<title>u47</title>
<ellipse fill="#bbffff" stroke="black" cx="3534.79" cy="-1099" rx="139.18" ry="18"/>
<text text-anchor="middle" x="3534.79" y="-1095.3" font-family="Times,serif" font-size="14.00">Language.Drasil.Code.Lang</text>
</g>
<!-- u46&#45;&gt;u50 -->
<g id="edge78" class="edge">
<title>u46&#45;&gt;u50</title>
<path fill="none" stroke="black" d="M3488.66,-564.14C3565.76,-519.11 3776.42,-396.06 3862.45,-345.81"/>
<polygon fill="black" stroke="black" points="3864.24,-348.82 3871.11,-340.76 3860.71,-342.78 3864.24,-348.82"/>
</g>
<!-- u45 -->
<g id="node21" class="node">
<title>u45</title>
<ellipse fill="#bbffff" stroke="black" cx="4315.79" cy="-1099" rx="190.37" ry="18"/>
<text text-anchor="middle" x="4315.79" y="-1095.3" font-family="Times,serif" font-size="14.00">Language.Drasil.Code.ExternalLibrary</text>
</g>
<!-- u45&#45;&gt;u49 -->
<g id="edge76" class="edge">
<title>u45&#45;&gt;u49</title>
<path fill="none" stroke="black" d="M4288.18,-1081C4215.14,-1036.06 4016.92,-914.08 3935.47,-863.96"/>
<polygon fill="black" stroke="black" points="3936.94,-860.75 3926.59,-858.49 3933.27,-866.71 3936.94,-860.75"/>
</g>
<!-- u45&#45;&gt;u53 -->
<g id="edge77" class="edge">
<title>u45&#45;&gt;u53</title>
<path fill="none" stroke="black" d="M4312.91,-1080.81C4305.58,-1037.18 4286.21,-921.89 4277.35,-869.1"/>
<polygon fill="black" stroke="black" points="4280.78,-868.4 4275.67,-859.12 4273.88,-869.56 4280.78,-868.4"/>
</g>
<!-- u44 -->
<g id="node22" class="node">
<title>u44</title>
<ellipse fill="#bbffff" stroke="black" cx="4315.79" cy="-1358" rx="178.97" ry="18"/>
<text text-anchor="middle" x="4315.79" y="-1354.3" font-family="Times,serif" font-size="14.00">Language.Drasil.Code.ExtLibImport</text>
</g>
<!-- u44&#45;&gt;u45 -->
<g id="edge75" class="edge">
<title>u44&#45;&gt;u45</title>
<path fill="none" stroke="black" d="M4315.79,-1339.74C4315.79,-1295.94 4315.79,-1180.2 4315.79,-1127.2"/>
<polygon fill="black" stroke="black" points="4319.29,-1127.19 4315.79,-1117.19 4312.29,-1127.19 4319.29,-1127.19"/>
</g>
<!-- u12 -->
<g id="node24" class="node">
<title>u12</title>
<ellipse fill="#bbffff" stroke="black" cx="3899.79" cy="-1099" rx="207.96" ry="18"/>
<text text-anchor="middle" x="3899.79" y="-1095.3" font-family="Times,serif" font-size="14.00">Language.Drasil.Code.ExternalLibraryCall</text>
</g>
<!-- u44&#45;&gt;u12 -->
<g id="edge74" class="edge">
<title>u44&#45;&gt;u12</title>
<path fill="none" stroke="black" d="M4288.5,-1340.14C4215.92,-1295.3 4018.12,-1173.1 3936.14,-1122.45"/>
<polygon fill="black" stroke="black" points="3937.54,-1119.2 3927.19,-1116.92 3933.86,-1125.16 3937.54,-1119.2"/>
</g>
<!-- u13 -->
<g id="node23" class="node">
<title>u13</title>
<ellipse fill="#bbffff" stroke="black" cx="4522.79" cy="-3169" rx="191.17" ry="18"/>
<text text-anchor="middle" x="4522.79" y="-3165.3" font-family="Times,serif" font-size="14.00">Language.Drasil.Code.CodeGeneration</text>
</g>
<!-- u13&#45;&gt;u11 -->
<g id="edge20" class="edge">
<title>u13&#45;&gt;u11</title>
<path fill="none" stroke="black" d="M4391.99,-3155.8C4141.88,-3129.66 3609.85,-3059.69 3488.79,-2928 3404.91,-2836.75 3448.79,-2775.95 3448.79,-2652 3448.79,-2652 3448.79,-2652 3448.79,-1874 3448.79,-1681.87 3533.15,-1460.85 3564.36,-1385.64"/>
<polygon fill="black" stroke="black" points="3567.59,-1386.98 3568.23,-1376.4 3561.14,-1384.27 3567.59,-1386.98"/>
</g>
<!-- u31 -->
<g id="node49" class="node">
<title>u31</title>
<ellipse fill="#7777ff" stroke="black" cx="3198.79" cy="-2910" rx="222.06" ry="18"/>
<text text-anchor="middle" x="3198.79" y="-2906.3" font-family="Times,serif" font-size="14.00">Language.Drasil.Code.Imperative.GOOL.Data</text>
</g>
<!-- u13&#45;&gt;u31 -->
<g id="edge21" class="edge">
<title>u13&#45;&gt;u31</title>
<path fill="none" stroke="black" d="M4443.45,-3152.6C4211.65,-3107.6 3536.41,-2976.53 3290.08,-2928.72"/>
<polygon fill="black" stroke="black" points="3290.57,-2925.25 3280.09,-2926.78 3289.24,-2932.12 3290.57,-2925.25"/>
</g>
<!-- u12&#45;&gt;u49 -->
<g id="edge18" class="edge">
<title>u12&#45;&gt;u49</title>
<path fill="none" stroke="black" d="M3899.79,-1080.81C3899.79,-1037.27 3899.79,-922.37 3899.79,-869.43"/>
<polygon fill="black" stroke="black" points="3903.29,-869.12 3899.79,-859.12 3896.29,-869.12 3903.29,-869.12"/>
</g>
<!-- u12&#45;&gt;u53 -->
<g id="edge19" class="edge">
<title>u12&#45;&gt;u53</title>
<path fill="none" stroke="black" d="M3924.56,-1081C3989.6,-1036.36 4165.36,-915.74 4239.3,-864.99"/>
<polygon fill="black" stroke="black" points="4241.53,-867.7 4247.8,-859.16 4237.57,-861.93 4241.53,-867.7"/>
</g>
<!-- u10 -->
<g id="node26" class="node">
<title>u10</title>
<ellipse fill="#bbffff" stroke="black" cx="3756.79" cy="-2393" rx="204.16" ry="18"/>
<text text-anchor="middle" x="3756.79" y="-2389.3" font-family="Times,serif" font-size="14.00">Language.Drasil.Code.CodeQuantityDicts</text>
</g>
<!-- u43 -->
<g id="node27" class="node">
<title>u43</title>
<ellipse fill="#ffbbff" stroke="black" cx="3170.79" cy="-2651" rx="233.16" ry="18"/>
<text text-anchor="middle" x="3170.79" y="-2647.3" font-family="Times,serif" font-size="14.00">Language.Drasil.Code.Imperative.WriteReadMe</text>
</g>
<!-- u39 -->
<g id="node47" class="node">
<title>u39</title>
<ellipse fill="#7777ff" stroke="black" cx="3785.79" cy="-2134" rx="267.25" ry="18"/>
<text text-anchor="middle" x="3785.79" y="-2130.3" font-family="Times,serif" font-size="14.00">Language.Drasil.Code.Imperative.GOOL.ClassInterface</text>
</g>
<!-- u43&#45;&gt;u39 -->
<g id="edge73" class="edge">
<title>u43&#45;&gt;u39</title>
<path fill="none" stroke="black" d="M3191.26,-2632.87C3282.46,-2556.49 3652.07,-2246.98 3757.56,-2158.65"/>
<polygon fill="black" stroke="black" points="3759.84,-2161.3 3765.26,-2152.2 3755.34,-2155.94 3759.84,-2161.3"/>
</g>
<!-- u42 -->
<g id="node28" class="node">
<title>u42</title>
<ellipse fill="#ffbbff" stroke="black" cx="4835.79" cy="-2910" rx="233.16" ry="18"/>
<text text-anchor="middle" x="4835.79" y="-2906.3" font-family="Times,serif" font-size="14.00">Language.Drasil.Code.Imperative.FunctionCalls</text>
</g>
<!-- u40 -->
<g id="node30" class="node">
<title>u40</title>
<ellipse fill="#ffbbff" stroke="black" cx="4739.79" cy="-2651" rx="201.46" ry="18"/>
<text text-anchor="middle" x="4739.79" y="-2647.3" font-family="Times,serif" font-size="14.00">Language.Drasil.Code.Imperative.Import</text>
</g>
<!-- u42&#45;&gt;u40 -->
<g id="edge72" class="edge">
<title>u42&#45;&gt;u40</title>
<path fill="none" stroke="black" d="M4829.35,-2891.74C4812.95,-2847.85 4769.57,-2731.72 4749.83,-2678.87"/>
<polygon fill="black" stroke="black" points="4752.99,-2677.33 4746.21,-2669.19 4746.44,-2679.78 4752.99,-2677.33"/>
</g>
<!-- u20 -->
<g id="node38" class="node">
<title>u20</title>
<ellipse fill="#ffbbff" stroke="black" cx="4296.79" cy="-2651" rx="223.66" ry="18"/>
<text text-anchor="middle" x="4296.79" y="-2647.3" font-family="Times,serif" font-size="14.00">Language.Drasil.Code.Imperative.Parameters</text>
</g>
<!-- u42&#45;&gt;u20 -->
<g id="edge71" class="edge">
<title>u42&#45;&gt;u20</title>
<path fill="none" stroke="black" d="M4800.43,-2892.14C4705.63,-2846.93 4445.93,-2723.11 4341.33,-2673.23"/>
<polygon fill="black" stroke="black" points="4342.82,-2670.07 4332.29,-2668.92 4339.81,-2676.39 4342.82,-2670.07"/>
</g>
<!-- u41 -->
<g id="node29" class="node">
<title>u41</title>
<ellipse fill="#ffbbff" stroke="black" cx="5597.79" cy="-2393" rx="219.86" ry="18"/>
<text text-anchor="middle" x="5597.79" y="-2389.3" font-family="Times,serif" font-size="14.00">Language.Drasil.Code.Imperative.Comments</text>
</g>
<!-- u26 -->
<g id="node33" class="node">
<title>u26</title>
<ellipse fill="#ffbbff" stroke="black" cx="4737.79" cy="-2134" rx="222.06" ry="18"/>
<text text-anchor="middle" x="4737.79" y="-2130.3" font-family="Times,serif" font-size="14.00">Language.Drasil.Code.Imperative.DrasilState</text>
</g>
<!-- u41&#45;&gt;u26 -->
<g id="edge70" class="edge">
<title>u41&#45;&gt;u26</title>
<path fill="none" stroke="black" d="M5542.69,-2375.53C5390.72,-2330.12 4966.16,-2203.24 4802.9,-2154.46"/>
<polygon fill="black" stroke="black" points="4803.58,-2151.01 4793,-2151.5 4801.58,-2157.71 4803.58,-2151.01"/>
</g>
<!-- u40&#45;&gt;u10 -->
<g id="edge64" class="edge">
<title>u40&#45;&gt;u10</title>
<path fill="none" stroke="black" d="M4677.56,-2633.79C4503.82,-2588.54 4014.19,-2461.03 3828.99,-2412.8"/>
<polygon fill="black" stroke="black" points="3829.63,-2409.35 3819.08,-2410.22 3827.87,-2416.13 3829.63,-2409.35"/>
</g>
<!-- u40&#45;&gt;u41 -->
<g id="edge69" class="edge">
<title>u40&#45;&gt;u41</title>
<path fill="none" stroke="black" d="M4794.77,-2633.6C4946.38,-2588.36 5369.96,-2461.98 5532.84,-2413.38"/>
<polygon fill="black" stroke="black" points="5534.14,-2416.65 5542.72,-2410.43 5532.14,-2409.94 5534.14,-2416.65"/>
</g>
<!-- u21 -->
<g id="node37" class="node">
<title>u21</title>
<ellipse fill="#ffbbff" stroke="black" cx="4722.79" cy="-2393" rx="207.16" ry="18"/>
<text text-anchor="middle" x="4722.79" y="-2389.3" font-family="Times,serif" font-size="14.00">Language.Drasil.Code.Imperative.Logging</text>
</g>
<!-- u40&#45;&gt;u21 -->
<g id="edge68" class="edge">
<title>u40&#45;&gt;u21</title>
<path fill="none" stroke="black" d="M4738.65,-2632.81C4735.76,-2589.18 4728.1,-2473.89 4724.59,-2421.1"/>
<polygon fill="black" stroke="black" points="4728.09,-2420.87 4723.93,-2411.12 4721.1,-2421.33 4728.09,-2420.87"/>
</g>
<!-- u19 -->
<g id="node39" class="node">
<title>u19</title>
<ellipse fill="#ffbbff" stroke="black" cx="4219.79" cy="-2393" rx="240.46" ry="18"/>
<text text-anchor="middle" x="4219.79" y="-2389.3" font-family="Times,serif" font-size="14.00">Language.Drasil.Code.Imperative.GenerateGOOL</text>
</g>
<!-- u40&#45;&gt;u19 -->
<g id="edge67" class="edge">
<title>u40&#45;&gt;u19</title>
<path fill="none" stroke="black" d="M4705.68,-2633.2C4614.31,-2588.22 4364.18,-2465.08 4263.06,-2415.3"/>
<polygon fill="black" stroke="black" points="4264.56,-2412.14 4254.04,-2410.86 4261.46,-2418.42 4264.56,-2412.14"/>
</g>
<!-- u18 -->
<g id="node40" class="node">
<title>u18</title>
<ellipse fill="#ffbbff" stroke="black" cx="5153.79" cy="-2393" rx="206.06" ry="18"/>
<text text-anchor="middle" x="5153.79" y="-2389.3" font-family="Times,serif" font-size="14.00">Language.Drasil.Code.Imperative.Helpers</text>
</g>
<!-- u40&#45;&gt;u18 -->
<g id="edge66" class="edge">
<title>u40&#45;&gt;u18</title>
<path fill="none" stroke="black" d="M4767.28,-2633C4839.71,-2588.22 5035.81,-2466.95 5117.41,-2416.5"/>
<polygon fill="black" stroke="black" points="5119.66,-2419.23 5126.32,-2410.99 5115.97,-2413.27 5119.66,-2419.23"/>
</g>
<!-- u14 -->
<g id="node43" class="node">
<title>u14</title>
<ellipse fill="#ffbbff" stroke="black" cx="4050.79" cy="-1875" rx="237.46" ry="18"/>
<text text-anchor="middle" x="4050.79" y="-1871.3" font-family="Times,serif" font-size="14.00">Language.Drasil.Code.Imperative.ConceptMatch</text>
</g>
<!-- u40&#45;&gt;u14 -->
<g id="edge65" class="edge">
<title>u40&#45;&gt;u14</title>
<path fill="none" stroke="black" d="M4722.43,-2632.99C4683.17,-2594.34 4584.88,-2496.64 4506.79,-2411 4332.61,-2219.96 4134.46,-1978.75 4071.27,-1901.22"/>
<polygon fill="black" stroke="black" points="4073.61,-1898.54 4064.58,-1892.99 4068.18,-1902.96 4073.61,-1898.54"/>
</g>
<!-- u30&#45;&gt;u46 -->
<g id="edge47" class="edge">
<title>u30&#45;&gt;u46</title>
<path fill="none" stroke="black" d="M1648.54,-2116.17C1765.78,-2062.33 2108.79,-1882.24 2108.79,-1618 2108.79,-1618 2108.79,-1618 2108.79,-1098 2108.79,-829.97 3048.95,-650.74 3360.7,-598.67"/>
<polygon fill="black" stroke="black" points="3361.34,-602.11 3370.63,-597.02 3360.19,-595.21 3361.34,-602.11"/>
</g>
<!-- u27 -->
<g id="node32" class="node">
<title>u27</title>
<ellipse fill="#ffbbff" stroke="black" cx="3027.79" cy="-1875" rx="219.86" ry="18"/>
<text text-anchor="middle" x="3027.79" y="-1871.3" font-family="Times,serif" font-size="14.00">Language.Drasil.Code.Imperative.WriteInput</text>
</g>
<!-- u27&#45;&gt;u46 -->
<g id="edge45" class="edge">
<title>u27&#45;&gt;u46</title>
<path fill="none" stroke="black" d="M3037.92,-1856.89C3074.52,-1793.39 3197.79,-1564.26 3197.79,-1359 3197.79,-1359 3197.79,-1359 3197.79,-1098 3197.79,-888.39 3372.33,-677.87 3436.5,-607.56"/>
<polygon fill="black" stroke="black" points="3439.2,-609.78 3443.41,-600.06 3434.05,-605.04 3439.2,-609.78"/>
</g>
<!-- u26&#45;&gt;u48 -->
<g id="edge44" class="edge">
<title>u26&#45;&gt;u48</title>
<path fill="none" stroke="black" d="M4725.5,-2115.74C4693.99,-2071.48 4610.18,-1953.78 4573,-1901.56"/>
<polygon fill="black" stroke="black" points="4575.68,-1899.3 4567.03,-1893.19 4569.98,-1903.36 4575.68,-1899.3"/>
</g>
<!-- u26&#45;&gt;u44 -->
<g id="edge43" class="edge">
<title>u26&#45;&gt;u44</title>
<path fill="none" stroke="black" d="M4700.85,-2116.18C4632.78,-2083.28 4487.41,-2003.82 4409.79,-1893 4295.2,-1729.39 4306,-1470.11 4313.04,-1386.18"/>
<polygon fill="black" stroke="black" points="4316.53,-1386.45 4313.94,-1376.18 4309.56,-1385.82 4316.53,-1386.45"/>
</g>
<!-- u25&#45;&gt;u13 -->
<g id="edge38" class="edge">
<title>u25&#45;&gt;u13</title>
<path fill="none" stroke="black" d="M4837.42,-3409C4778.78,-3364.45 4620.51,-3244.23 4553.47,-3193.3"/>
<polygon fill="black" stroke="black" points="4555.46,-3190.42 4545.38,-3187.16 4551.23,-3195.99 4555.46,-3190.42"/>
</g>
<!-- u22 -->
<g id="node36" class="node">
<title>u22</title>
<ellipse fill="#ffbbff" stroke="black" cx="5787.79" cy="-2910" rx="226.66" ry="18"/>
<text text-anchor="middle" x="5787.79" y="-2906.3" font-family="Times,serif" font-size="14.00">Language.Drasil.Code.Imperative.SpaceMatch</text>
</g>
<!-- u25&#45;&gt;u22 -->
<g id="edge41" class="edge">
<title>u25&#45;&gt;u22</title>
<path fill="none" stroke="black" d="M4890.14,-3409.16C5027.81,-3332.76 5593.59,-3018.78 5748.45,-2932.83"/>
<polygon fill="black" stroke="black" points="5750.16,-2935.89 5757.21,-2927.97 5746.77,-2929.77 5750.16,-2935.89"/>
</g>
<!-- u16 -->
<g id="node41" class="node">
<title>u16</title>
<ellipse fill="#ffbbff" stroke="black" cx="4955.79" cy="-1875" rx="209.86" ry="18"/>
<text text-anchor="middle" x="4955.79" y="-1871.3" font-family="Times,serif" font-size="14.00">Language.Drasil.Code.Imperative.GenODE</text>
</g>
<!-- u25&#45;&gt;u16 -->
<g id="edge40" class="edge">
<title>u25&#45;&gt;u16</title>
<path fill="none" stroke="black" d="M4936.5,-3410.12C5198.65,-3353.7 6042.79,-3153.2 6042.79,-2911 6042.79,-2911 6042.79,-2911 6042.79,-2392 6042.79,-2003.62 5469.48,-1907.2 5155.58,-1883.52"/>
<polygon fill="black" stroke="black" points="5155.68,-1880.02 5145.45,-1882.77 5155.16,-1887 5155.68,-1880.02"/>
</g>
<!-- u15 -->
<g id="node42" class="node">
<title>u15</title>
<ellipse fill="#ffbbff" stroke="black" cx="4978.79" cy="-3169" rx="209.06" ry="18"/>
<text text-anchor="middle" x="4978.79" y="-3165.3" font-family="Times,serif" font-size="14.00">Language.Drasil.Code.Imperative.Modules</text>
</g>
<!-- u25&#45;&gt;u15 -->
<g id="edge39" class="edge">
<title>u25&#45;&gt;u15</title>
<path fill="none" stroke="black" d="M4867.79,-3408.81C4888.15,-3364.99 4942.11,-3248.93 4966.5,-3196.44"/>
<polygon fill="black" stroke="black" points="4969.8,-3197.66 4970.84,-3187.12 4963.45,-3194.71 4969.8,-3197.66"/>
</g>
<!-- u38 -->
<g id="node48" class="node">
<title>u38</title>
<ellipse fill="#7777ff" stroke="black" cx="3765.79" cy="-2651" rx="289.45" ry="18"/>
<text text-anchor="middle" x="3765.79" y="-2647.3" font-family="Times,serif" font-size="14.00">Language.Drasil.Code.Imperative.GOOL.LanguageRenderer</text>
</g>
<!-- u25&#45;&gt;u38 -->
<g id="edge42" class="edge">
<title>u25&#45;&gt;u38</title>
<path fill="none" stroke="black" d="M4855.35,-3408.97C4842.38,-3362.23 4800.52,-3230.17 4722.79,-3151 4454.8,-2878.01 4005.59,-2723.07 3834.66,-2671.52"/>
<polygon fill="black" stroke="black" points="3835.6,-2668.15 3825.02,-2668.63 3833.6,-2674.85 3835.6,-2668.15"/>
</g>
<!-- u24 -->
<g id="node35" class="node">
<title>u24</title>
<ellipse fill="#ffbbff" stroke="black" cx="5314.79" cy="-2910" rx="228.26" ry="18"/>
<text text-anchor="middle" x="5314.79" y="-2906.3" font-family="Times,serif" font-size="14.00">Language.Drasil.Code.Imperative.Descriptions</text>
</g>
<!-- u24&#45;&gt;u26 -->
<g id="edge37" class="edge">
<title>u24&#45;&gt;u26</title>
<path fill="none" stroke="black" d="M5355.34,-2892.28C5504.17,-2828.64 6002.79,-2594 5826.79,-2375 5713.59,-2234.13 5186.33,-2171.08 4909.14,-2147.27"/>
<polygon fill="black" stroke="black" points="4909.24,-2143.77 4898.98,-2146.41 4908.65,-2150.74 4909.24,-2143.77"/>
</g>
<!-- u22&#45;&gt;u26 -->
<g id="edge35" class="edge">
<title>u22&#45;&gt;u26</title>
<path fill="none" stroke="black" d="M5797.72,-2891.78C5838,-2819.41 5980.98,-2536.25 5850.79,-2375 5735.06,-2231.65 5197.71,-2169.81 4914.14,-2146.78"/>
<polygon fill="black" stroke="black" points="4914.41,-2143.29 4904.16,-2145.98 4913.85,-2150.27 4914.41,-2143.29"/>
</g>
<!-- u21&#45;&gt;u26 -->
<g id="edge34" class="edge">
<title>u21&#45;&gt;u26</title>
<path fill="none" stroke="black" d="M4723.8,-2374.74C4726.36,-2330.94 4733.11,-2215.2 4736.21,-2162.2"/>
<polygon fill="black" stroke="black" points="4739.7,-2162.37 4736.79,-2152.19 4732.71,-2161.97 4739.7,-2162.37"/>
</g>
<!-- u20&#45;&gt;u10 -->
<g id="edge32" class="edge">
<title>u20&#45;&gt;u10</title>
<path fill="none" stroke="black" d="M4261.36,-2633.2C4166.39,-2588.18 3906.21,-2464.83 3801.41,-2415.15"/>
<polygon fill="black" stroke="black" points="3802.89,-2411.98 3792.36,-2410.86 3799.89,-2418.31 3802.89,-2411.98"/>
</g>
<!-- u20&#45;&gt;u26 -->
<g id="edge33" class="edge">
<title>u20&#45;&gt;u26</title>
<path fill="none" stroke="black" d="M4206.69,-2634.46C3988.03,-2594.78 3453.63,-2485.09 3543.79,-2375 3668.19,-2223.11 4240.41,-2165.3 4545.28,-2144.99"/>
<polygon fill="black" stroke="black" points="4545.82,-2148.47 4555.57,-2144.32 4545.36,-2141.48 4545.82,-2148.47"/>
</g>
<!-- u19&#45;&gt;u26 -->
<g id="edge30" class="edge">
<title>u19&#45;&gt;u26</title>
<path fill="none" stroke="black" d="M4253.78,-2375.14C4344.8,-2329.98 4593.96,-2206.36 4694.69,-2156.39"/>
<polygon fill="black" stroke="black" points="4696.28,-2159.5 4703.68,-2151.92 4693.17,-2153.23 4696.28,-2159.5"/>
</g>
<!-- u19&#45;&gt;u39 -->
<g id="edge31" class="edge">
<title>u19&#45;&gt;u39</title>
<path fill="none" stroke="black" d="M4190.98,-2374.94C4114.9,-2329.89 3908.64,-2207.75 3823.42,-2157.28"/>
<polygon fill="black" stroke="black" points="3824.98,-2154.14 3814.6,-2152.06 3821.42,-2160.16 3824.98,-2154.14"/>
</g>
<!-- u18&#45;&gt;u26 -->
<g id="edge29" class="edge">
<title>u18&#45;&gt;u26</title>
<path fill="none" stroke="black" d="M5126.5,-2375.14C5053.92,-2330.3 4856.12,-2208.1 4774.14,-2157.45"/>
<polygon fill="black" stroke="black" points="4775.54,-2154.2 4765.19,-2151.92 4771.86,-2160.16 4775.54,-2154.2"/>
</g>
<!-- u16&#45;&gt;u8 -->
<g id="edge25" class="edge">
<title>u16&#45;&gt;u8</title>
<path fill="none" stroke="black" d="M4890.39,-1857.79C4705.87,-1812.06 4182.3,-1682.31 3992.55,-1635.29"/>
<polygon fill="black" stroke="black" points="3993.24,-1631.85 3982.69,-1632.84 3991.56,-1638.65 3993.24,-1631.85"/>
</g>
<!-- u16&#45;&gt;u52 -->
<g id="edge27" class="edge">
<title>u16&#45;&gt;u52</title>
<path fill="none" stroke="black" d="M4957.07,-1856.81C4960.31,-1813.18 4968.87,-1697.89 4972.78,-1645.1"/>
<polygon fill="black" stroke="black" points="4976.27,-1645.35 4973.52,-1635.12 4969.29,-1644.83 4976.27,-1645.35"/>
</g>
<!-- u16&#45;&gt;u44 -->
<g id="edge26" class="edge">
<title>u16&#45;&gt;u44</title>
<path fill="none" stroke="black" d="M4943.51,-1856.91C4904.99,-1803.58 4786.16,-1641.28 4736.79,-1599 4617.39,-1496.74 4448.01,-1415.9 4365.21,-1379.69"/>
<polygon fill="black" stroke="black" points="4366.36,-1376.37 4355.8,-1375.6 4363.57,-1382.79 4366.36,-1376.37"/>
</g>
<!-- u15&#45;&gt;u42 -->
<g id="edge24" class="edge">
<title>u15&#45;&gt;u42</title>
<path fill="none" stroke="black" d="M4969.19,-3150.74C4944.67,-3106.66 4879.61,-2989.75 4850.38,-2937.22"/>
<polygon fill="black" stroke="black" points="4853.28,-2935.22 4845.36,-2928.19 4847.16,-2938.63 4853.28,-2935.22"/>
</g>
<!-- u15&#45;&gt;u24 -->
<g id="edge23" class="edge">
<title>u15&#45;&gt;u24</title>
<path fill="none" stroke="black" d="M5001.1,-3150.94C5059.57,-3106.21 5217.37,-2985.52 5284.21,-2934.39"/>
<polygon fill="black" stroke="black" points="5286.46,-2937.08 5292.28,-2928.22 5282.21,-2931.52 5286.46,-2937.08"/>
</g>
<!-- u14&#45;&gt;u8 -->
<g id="edge22" class="edge">
<title>u14&#45;&gt;u8</title>
<path fill="none" stroke="black" d="M4042.2,-1856.81C4020.25,-1812.9 3962.02,-1696.45 3935.85,-1644.11"/>
<polygon fill="black" stroke="black" points="3938.96,-1642.5 3931.35,-1635.12 3932.7,-1645.63 3938.96,-1642.5"/>
</g>
<!-- u29 -->
<g id="node44" class="node">
<title>u29</title>
<ellipse fill="#77ff77" stroke="black" cx="2564.79" cy="-2651" rx="228.56" ry="18"/>
<text text-anchor="middle" x="2564.79" y="-2647.3" font-family="Times,serif" font-size="14.00">Language.Drasil.Code.Imperative.Build.Import</text>
</g>
<!-- u28 -->
<g id="node45" class="node">
<title>u28</title>
<ellipse fill="#77ff77" stroke="black" cx="2564.79" cy="-2393" rx="215.56" ry="18"/>
<text text-anchor="middle" x="2564.79" y="-2389.3" font-family="Times,serif" font-size="14.00">Language.Drasil.Code.Imperative.Build.AST</text>
</g>
<!-- u29&#45;&gt;u28 -->
<g id="edge46" class="edge">
<title>u29&#45;&gt;u28</title>
<path fill="none" stroke="black" d="M2564.79,-2632.81C2564.79,-2589.27 2564.79,-2474.37 2564.79,-2421.43"/>
<polygon fill="black" stroke="black" points="2568.29,-2421.12 2564.79,-2411.12 2561.29,-2421.12 2568.29,-2421.12"/>
</g>
<!-- u17 -->
<g id="node46" class="node">
<title>u17</title>
<ellipse fill="#ffff77" stroke="black" cx="3151.79" cy="-2134" rx="245.06" ry="18"/>
<text text-anchor="middle" x="3151.79" y="-2130.3" font-family="Times,serif" font-size="14.00">Language.Drasil.Code.Imperative.Doxygen.Import</text>
</g>
<!-- u17&#45;&gt;u8 -->
<g id="edge28" class="edge">
<title>u17&#45;&gt;u8</title>
<path fill="none" stroke="black" d="M3177.45,-2115.87C3292.39,-2039.09 3760.01,-1726.73 3889.45,-1640.27"/>
<polygon fill="black" stroke="black" points="3891.45,-1643.14 3897.83,-1634.68 3887.57,-1637.32 3891.45,-1643.14"/>
</g>
<!-- u39&#45;&gt;u8 -->
<g id="edge63" class="edge">
<title>u39&#45;&gt;u8</title>
<path fill="none" stroke="black" d="M3784.7,-2115.82C3782.39,-2071.86 3779.13,-1952.06 3804.79,-1857 3827.15,-1774.17 3879.02,-1685.96 3905.92,-1643.61"/>
<polygon fill="black" stroke="black" points="3908.96,-1645.35 3911.42,-1635.05 3903.07,-1641.57 3908.96,-1645.35"/>
</g>
<!-- u37 -->
<g id="node50" class="node">
<title>u37</title>
<ellipse fill="#ff7777" stroke="black" cx="2564.79" cy="-2910" rx="393.73" ry="18"/>
<text text-anchor="middle" x="2564.79" y="-2906.3" font-family="Times,serif" font-size="14.00">Language.Drasil.Code.Imperative.GOOL.LanguageRenderer.LanguagePolymorphic</text>
</g>
<!-- u37&#45;&gt;u43 -->
<g id="edge62" class="edge">
<title>u37&#45;&gt;u43</title>
<path fill="none" stroke="black" d="M2605.03,-2891.94C2712.25,-2846.47 3004.64,-2722.46 3121.54,-2672.89"/>
<polygon fill="black" stroke="black" points="3123.13,-2676.01 3130.97,-2668.89 3120.4,-2669.57 3123.13,-2676.01"/>
</g>
<!-- u37&#45;&gt;u27 -->
<g id="edge59" class="edge">
<title>u37&#45;&gt;u27</title>
<path fill="none" stroke="black" d="M2589.97,-2891.94C2639.73,-2856.73 2750.39,-2770.72 2802.79,-2669 2916.99,-2447.31 2816.21,-2351.66 2897.79,-2116 2926.6,-2032.81 2982.06,-1943.96 3010.32,-1901.48"/>
<polygon fill="black" stroke="black" points="3013.25,-1903.4 3015.92,-1893.14 3007.44,-1899.5 3013.25,-1903.4"/>
</g>
<!-- u37&#45;&gt;u29 -->
<g id="edge60" class="edge">
<title>u37&#45;&gt;u29</title>
<path fill="none" stroke="black" d="M2564.79,-2891.74C2564.79,-2847.94 2564.79,-2732.2 2564.79,-2679.2"/>
<polygon fill="black" stroke="black" points="2568.29,-2679.19 2564.79,-2669.19 2561.29,-2679.19 2568.29,-2679.19"/>
</g>
<!-- u37&#45;&gt;u17 -->
<g id="edge58" class="edge">
<title>u37&#45;&gt;u17</title>
<path fill="none" stroke="black" d="M2593.6,-2892.04C2651.72,-2856.69 2784.62,-2769.98 2868.79,-2669 3011.18,-2498.2 3111.77,-2244.21 3142.18,-2161.84"/>
<polygon fill="black" stroke="black" points="3145.55,-2162.82 3145.7,-2152.23 3138.98,-2160.42 3145.55,-2162.82"/>
</g>
<!-- u37&#45;&gt;u38 -->
<g id="edge61" class="edge">
<title>u37&#45;&gt;u38</title>
<path fill="none" stroke="black" d="M2642.67,-2892.34C2857.04,-2846.46 3454.77,-2718.56 3679.18,-2670.53"/>
<polygon fill="black" stroke="black" points="3680.21,-2673.89 3689.26,-2668.38 3678.75,-2667.05 3680.21,-2673.89"/>
</g>
<!-- u36&#45;&gt;u31 -->
<g id="edge56" class="edge">
<title>u36&#45;&gt;u31</title>
<path fill="none" stroke="black" d="M3895.85,-3151.14C3763.53,-3105.55 3399.12,-2980.01 3256.81,-2930.99"/>
<polygon fill="black" stroke="black" points="3257.55,-2927.54 3246.95,-2927.59 3255.27,-2934.16 3257.55,-2927.54"/>
</g>
<!-- u36&#45;&gt;u37 -->
<g id="edge57" class="edge">
<title>u36&#45;&gt;u37</title>
<path fill="none" stroke="black" d="M3856.11,-3151.48C3610.33,-3105.71 2921.66,-2977.46 2663.87,-2929.45"/>
<polygon fill="black" stroke="black" points="2664.24,-2925.96 2653.77,-2927.57 2662.96,-2932.84 2664.24,-2925.96"/>
</g>
<!-- u35&#45;&gt;u31 -->
<g id="edge54" class="edge">
<title>u35&#45;&gt;u31</title>
<path fill="none" stroke="black" d="M1126.53,-3152.31C1522.04,-3106.25 2676.46,-2971.82 3067.51,-2926.29"/>
<polygon fill="black" stroke="black" points="3067.93,-2929.76 3077.45,-2925.13 3067.12,-2922.81 3067.93,-2929.76"/>
</g>
<!-- u35&#45;&gt;u37 -->
<g id="edge55" class="edge">
<title>u35&#45;&gt;u37</title>
<path fill="none" stroke="black" d="M1091.69,-3151.68C1371.46,-3105.97 2161.38,-2976.91 2453.97,-2929.11"/>
<polygon fill="black" stroke="black" points="2454.87,-2932.51 2464.17,-2927.44 2453.74,-2925.6 2454.87,-2932.51"/>
</g>
<!-- u34&#45;&gt;u31 -->
<g id="edge52" class="edge">
<title>u34&#45;&gt;u31</title>
<path fill="none" stroke="black" d="M1824.58,-3151.58C2087.66,-3105.52 2830.93,-2975.4 3100,-2928.3"/>
<polygon fill="black" stroke="black" points="3100.9,-2931.69 3110.14,-2926.52 3099.69,-2924.8 3100.9,-2931.69"/>
</g>
<!-- u34&#45;&gt;u37 -->
<g id="edge53" class="edge">
<title>u34&#45;&gt;u37</title>
<path fill="none" stroke="black" d="M1785.52,-3151.14C1933.62,-3105.5 2341.82,-2979.71 2500.51,-2930.81"/>
<polygon fill="black" stroke="black" points="2501.62,-2934.13 2510.14,-2927.84 2499.56,-2927.44 2501.62,-2934.13"/>
</g>
<!-- u33&#45;&gt;u31 -->
<g id="edge50" class="edge">
<title>u33&#45;&gt;u31</title>
<path fill="none" stroke="black" d="M2516.69,-3151.14C2646.02,-3105.61 3001.91,-2980.31 3141.52,-2931.16"/>
<polygon fill="black" stroke="black" points="3142.93,-2934.38 3151.2,-2927.76 3140.6,-2927.78 3142.93,-2934.38"/>
</g>
<!-- u33&#45;&gt;u37 -->
<g id="edge51" class="edge">
<title>u33&#45;&gt;u37</title>
<path fill="none" stroke="black" d="M2475.24,-3150.74C2491.64,-3106.85 2535.02,-2990.72 2554.76,-2937.87"/>
<polygon fill="black" stroke="black" points="2558.15,-2938.78 2558.37,-2928.19 2551.6,-2936.33 2558.15,-2938.78"/>
</g>
<!-- u32&#45;&gt;u31 -->
<g id="edge48" class="edge">
<title>u32&#45;&gt;u31</title>
<path fill="none" stroke="black" d="M3198.79,-3150.74C3198.79,-3106.94 3198.79,-2991.2 3198.79,-2938.2"/>
<polygon fill="black" stroke="black" points="3202.29,-2938.19 3198.79,-2928.19 3195.29,-2938.19 3202.29,-2938.19"/>
</g>
<!-- u32&#45;&gt;u37 -->
<g id="edge49" class="edge">
<title>u32&#45;&gt;u37</title>
<path fill="none" stroke="black" d="M3156.71,-3150.94C3044.55,-3105.48 2738.75,-2981.51 2616.4,-2931.92"/>
<polygon fill="black" stroke="black" points="2617.45,-2928.57 2606.87,-2928.06 2614.82,-2935.06 2617.45,-2928.57"/>
</g>
<!-- u23 -->
<g id="node56" class="node">
<title>u23</title>
<ellipse fill="#77ffff" stroke="black" cx="3765.79" cy="-2910" rx="267.55" ry="18"/>
<text text-anchor="middle" x="3765.79" y="-2906.3" font-family="Times,serif" font-size="14.00">Language.Drasil.Code.Imperative.Parsers.ConfigParser</text>
</g>
<!-- u23&#45;&gt;u38 -->
<g id="edge36" class="edge">
<title>u23&#45;&gt;u38</title>
<path fill="none" stroke="black" d="M3765.79,-2891.74C3765.79,-2847.94 3765.79,-2732.2 3765.79,-2679.2"/>
<polygon fill="black" stroke="black" points="3769.29,-2679.19 3765.79,-2669.19 3762.29,-2679.19 3769.29,-2679.19"/>
</g>
<!-- u57&#45;&gt;u50 -->
<g id="edge91" class="edge">
<title>u57&#45;&gt;u50</title>
<path fill="none" stroke="black" d="M4667.76,-1080.81C4641.08,-1035.82 4564.87,-911.96 4483.79,-823 4295.61,-616.51 4024.34,-413.81 3931.98,-346.98"/>
<polygon fill="black" stroke="black" points="3933.77,-343.95 3923.61,-340.94 3929.67,-349.63 3933.77,-343.95"/>
</g>
<!-- u56&#45;&gt;u47 -->
<g id="edge89" class="edge">
<title>u56&#45;&gt;u47</title>
<path fill="none" stroke="black" d="M3897.34,-1340.14C3829.7,-1295.34 3645.46,-1173.3 3568.88,-1122.58"/>
<polygon fill="black" stroke="black" points="3570.36,-1119.36 3560.09,-1116.76 3566.5,-1125.2 3570.36,-1119.36"/>
</g>
<!-- u56&#45;&gt;u45 -->
<g id="edge88" class="edge">
<title>u56&#45;&gt;u45</title>
<path fill="none" stroke="black" d="M3948.58,-1340.14C4017.15,-1295.3 4204.01,-1173.1 4281.46,-1122.45"/>
<polygon fill="black" stroke="black" points="4283.46,-1125.33 4289.91,-1116.92 4279.63,-1119.47 4283.46,-1125.33"/>
</g>
<!-- u56&#45;&gt;u12 -->
<g id="edge87" class="edge">
<title>u56&#45;&gt;u12</title>
<path fill="none" stroke="black" d="M3921.25,-1339.74C3917.33,-1295.94 3906.97,-1180.2 3902.23,-1127.2"/>
<polygon fill="black" stroke="black" points="3905.71,-1126.83 3901.33,-1117.19 3898.74,-1127.46 3905.71,-1126.83"/>
</g>
<!-- u56&#45;&gt;u57 -->
<g id="edge90" class="edge">
<title>u56&#45;&gt;u57</title>
<path fill="none" stroke="black" d="M3970.88,-1340.63C4104.08,-1295.29 4477.39,-1168.22 4620.74,-1119.42"/>
<polygon fill="black" stroke="black" points="4621.92,-1122.72 4630.25,-1116.18 4619.66,-1116.09 4621.92,-1122.72"/>
</g>
<!-- u7 -->
<g id="node59" class="node">
<title>u7</title>
<ellipse fill="#33ff33" stroke="black" cx="405.79" cy="-3945" rx="108.58" ry="18"/>
<text text-anchor="middle" x="405.79" y="-3941.3" font-family="Times,serif" font-size="14.00">drasil&#45;code.test.Main</text>
</g>
<!-- u7&#45;&gt;u6 -->
<g id="edge7" class="edge">
<title>u7&#45;&gt;u6</title>
<path fill="none" stroke="black" d="M421.21,-3927.14C461.73,-3882.83 571.32,-3762.98 618.59,-3711.28"/>
<polygon fill="black" stroke="black" points="621.46,-3713.33 625.62,-3703.59 616.29,-3708.61 621.46,-3713.33"/>
</g>
<!-- u7&#45;&gt;u5 -->
<g id="edge6" class="edge">
<title>u7&#45;&gt;u5</title>
<path fill="none" stroke="black" d="M383.36,-3927.34C323.04,-3882.53 157.39,-3759.49 89.45,-3709.03"/>
<polygon fill="black" stroke="black" points="91.4,-3706.12 81.29,-3702.97 87.23,-3711.74 91.4,-3706.12"/>
</g>
<!-- u7&#45;&gt;u4 -->
<g id="edge5" class="edge">
<title>u7&#45;&gt;u4</title>
<path fill="none" stroke="black" d="M391.62,-3927.14C354.38,-3882.83 253.65,-3762.98 210.2,-3711.28"/>
<polygon fill="black" stroke="black" points="212.85,-3708.99 203.74,-3703.59 207.49,-3713.5 212.85,-3708.99"/>
</g>
<!-- u7&#45;&gt;u1 -->
<g id="edge4" class="edge">
<title>u7&#45;&gt;u1</title>
<path fill="none" stroke="black" d="M400.42,-3926.74C386.76,-3882.85 350.61,-3766.72 334.16,-3713.87"/>
<polygon fill="black" stroke="black" points="337.46,-3712.69 331.14,-3704.19 330.77,-3714.77 337.46,-3712.69"/>
</g>
<!-- u7&#45;&gt;u0 -->
<g id="edge3" class="edge">
<title>u7&#45;&gt;u0</title>
<path fill="none" stroke="black" d="M411.1,-3926.74C424.59,-3882.85 460.29,-3766.72 476.53,-3713.87"/>
<polygon fill="black" stroke="black" points="479.92,-3714.77 479.51,-3704.19 473.23,-3712.72 479.92,-3714.77"/>
</g>
<!-- u7&#45;&gt;u9 -->
<g id="edge8" class="edge">
<title>u7&#45;&gt;u9</title>
<path fill="none" stroke="black" d="M481.3,-3931.99C748.62,-3889.48 1649.29,-3746.24 1934.45,-3700.89"/>
<polygon fill="black" stroke="black" points="1935.41,-3704.28 1944.73,-3699.26 1934.31,-3697.37 1935.41,-3704.28"/>
</g>
</g>
</svg>
