<?xml version="1.0" encoding="UTF-8" standalone="no"?>
<!DOCTYPE svg PUBLIC "-//W3C//DTD SVG 1.1//EN"
 "http://www.w3.org/Graphics/SVG/1.1/DTD/svg11.dtd">
<!-- Generated by graphviz version 2.43.0 (0)
 -->
<!-- Title: G Pages: 1 -->
<svg width="431pt" height="288pt"
 viewBox="0.00 0.00 431.22 288.00" xmlns="http://www.w3.org/2000/svg" xmlns:xlink="http://www.w3.org/1999/xlink">
<g id="graph0" class="graph" transform="scale(4.82 4.82) rotate(0) translate(4 1383.33)">
<title>G</title>
<polygon fill="white" stroke="transparent" points="-4,4 -4,-1383.33 2073.27,-1383.33 2073.27,4 -4,4"/>
<!-- u23 -->
<g id="node1" class="node">
<title>u23</title>
<ellipse fill="#bbffbb" stroke="black" cx="686.04" cy="-1131" rx="123.48" ry="18"/>
<text text-anchor="middle" x="686.04" y="-1127.3" font-family="Times,serif" font-size="14.00">Language.Drasil.Format</text>
</g>
<!-- u22 -->
<g id="node2" class="node">
<title>u22</title>
<ellipse fill="#bbffbb" stroke="black" cx="1341.04" cy="-1352" rx="128.08" ry="18"/>
<text text-anchor="middle" x="1341.04" y="-1348.3" font-family="Times,serif" font-size="14.00">Language.Drasil.Printers</text>
</g>
<!-- u19 -->
<g id="node4" class="node">
<title>u19</title>
<ellipse fill="#ffffbb" stroke="black" cx="1485.04" cy="-1241" rx="135.68" ry="18"/>
<text text-anchor="middle" x="1485.04" y="-1237.3" font-family="Times,serif" font-size="14.00">Language.Drasil.DOT.Print</text>
</g>
<!-- u22&#45;&gt;u19 -->
<g id="edge24" class="edge">
<title>u22&#45;&gt;u19</title>
<path fill="none" stroke="black" d="M1363.22,-1334.21C1387.67,-1315.7 1427.16,-1285.81 1454.52,-1265.1"/>
<polygon fill="black" stroke="black" points="1456.73,-1267.82 1462.59,-1258.99 1452.5,-1262.24 1456.73,-1267.82"/>
</g>
<!-- u28 -->
<g id="node10" class="node">
<title>u28</title>
<ellipse fill="#ffbbbb" stroke="black" cx="829.04" cy="-1241" rx="140.28" ry="18"/>
<text text-anchor="middle" x="829.04" y="-1237.3" font-family="Times,serif" font-size="14.00">Language.Drasil.JSON.Print</text>
</g>
<!-- u22&#45;&gt;u28 -->
<g id="edge26" class="edge">
<title>u22&#45;&gt;u28</title>
<path fill="none" stroke="black" d="M1273.57,-1336.64C1179.33,-1316.57 1008.58,-1280.22 908.35,-1258.89"/>
<polygon fill="black" stroke="black" points="908.79,-1255.4 898.28,-1256.74 907.34,-1262.25 908.79,-1255.4"/>
</g>
<!-- u20 -->
<g id="node11" class="node">
<title>u20</title>
<ellipse fill="#bbffff" stroke="black" cx="1198.04" cy="-1241" rx="133.48" ry="18"/>
<text text-anchor="middle" x="1198.04" y="-1237.3" font-family="Times,serif" font-size="14.00">Language.Drasil.Log.Print</text>
</g>
<!-- u22&#45;&gt;u20 -->
<g id="edge25" class="edge">
<title>u22&#45;&gt;u20</title>
<path fill="none" stroke="black" d="M1319,-1334.21C1294.72,-1315.7 1255.51,-1285.81 1228.34,-1265.1"/>
<polygon fill="black" stroke="black" points="1230.4,-1262.27 1220.33,-1258.99 1226.16,-1267.84 1230.4,-1262.27"/>
</g>
<!-- u31 -->
<g id="node12" class="node">
<title>u31</title>
<ellipse fill="#ffbbff" stroke="black" cx="1827.04" cy="-1241" rx="188.47" ry="18"/>
<text text-anchor="middle" x="1827.04" y="-1237.3" font-family="Times,serif" font-size="14.00">Language.Drasil.Markdown.CreateMd</text>
</g>
<!-- u22&#45;&gt;u31 -->
<g id="edge27" class="edge">
<title>u22&#45;&gt;u31</title>
<path fill="none" stroke="black" d="M1405.82,-1336.47C1493.93,-1316.71 1651.47,-1281.38 1746.9,-1259.97"/>
<polygon fill="black" stroke="black" points="1747.8,-1263.36 1756.79,-1257.75 1746.27,-1256.53 1747.8,-1263.36"/>
</g>
<!-- u21 -->
<g id="node3" class="node">
<title>u21</title>
<ellipse fill="#bbffbb" stroke="black" cx="811.04" cy="-690" rx="119.68" ry="18"/>
<text text-anchor="middle" x="811.04" y="-686.3" font-family="Times,serif" font-size="14.00">Language.Drasil.Config</text>
</g>
<!-- u3 -->
<g id="node5" class="node">
<title>u3</title>
<ellipse fill="#bbbbff" stroke="black" cx="381.04" cy="-1021" rx="157.87" ry="18"/>
<text text-anchor="middle" x="381.04" y="-1017.3" font-family="Times,serif" font-size="14.00">Language.Drasil.HTML.Helpers</text>
</g>
<!-- u5 -->
<g id="node18" class="node">
<title>u5</title>
<ellipse fill="#ffff77" stroke="black" cx="1046.04" cy="-28" rx="149.47" ry="18"/>
<text text-anchor="middle" x="1046.04" y="-24.3" font-family="Times,serif" font-size="14.00">Language.Drasil.Printing.AST</text>
</g>
<!-- u3&#45;&gt;u5 -->
<g id="edge5" class="edge">
<title>u3&#45;&gt;u5</title>
<path fill="none" stroke="black" d="M378.51,-1002.73C373.34,-965.79 362.04,-876.37 362.04,-801 362.04,-801 362.04,-801 362.04,-247 362.04,-129.39 733.75,-66.71 929.13,-41.89"/>
<polygon fill="black" stroke="black" points="929.67,-45.35 939.16,-40.63 928.8,-38.4 929.67,-45.35"/>
</g>
<!-- u2 -->
<g id="node6" class="node">
<title>u2</title>
<ellipse fill="#bbbbff" stroke="black" cx="1332.04" cy="-1021" rx="153.27" ry="18"/>
<text text-anchor="middle" x="1332.04" y="-1017.3" font-family="Times,serif" font-size="14.00">Language.Drasil.HTML.Monad</text>
</g>
<!-- u1 -->
<g id="node7" class="node">
<title>u1</title>
<ellipse fill="#bbbbff" stroke="black" cx="1020.04" cy="-1021" rx="140.28" ry="18"/>
<text text-anchor="middle" x="1020.04" y="-1017.3" font-family="Times,serif" font-size="14.00">Language.Drasil.HTML.CSS</text>
</g>
<!-- u0 -->
<g id="node8" class="node">
<title>u0</title>
<ellipse fill="#bbbbff" stroke="black" cx="972.04" cy="-1131" rx="144.87" ry="18"/>
<text text-anchor="middle" x="972.04" y="-1127.3" font-family="Times,serif" font-size="14.00">Language.Drasil.HTML.Print</text>
</g>
<!-- u0&#45;&gt;u3 -->
<g id="edge3" class="edge">
<title>u0&#45;&gt;u3</title>
<path fill="none" stroke="black" d="M894.16,-1115.77C784.83,-1095.79 586.29,-1059.51 470.85,-1038.41"/>
<polygon fill="black" stroke="black" points="471.44,-1034.96 460.97,-1036.61 470.18,-1041.85 471.44,-1034.96"/>
</g>
<!-- u0&#45;&gt;u2 -->
<g id="edge2" class="edge">
<title>u0&#45;&gt;u2</title>
<path fill="none" stroke="black" d="M1024.77,-1114.18C1089.64,-1094.72 1199.66,-1061.71 1268.95,-1040.93"/>
<polygon fill="black" stroke="black" points="1270.3,-1044.18 1278.87,-1037.95 1268.28,-1037.47 1270.3,-1044.18"/>
</g>
<!-- u0&#45;&gt;u1 -->
<g id="edge1" class="edge">
<title>u0&#45;&gt;u1</title>
<path fill="none" stroke="black" d="M979.75,-1112.65C987.44,-1095.33 999.38,-1068.48 1008.26,-1048.5"/>
<polygon fill="black" stroke="black" points="1011.48,-1049.87 1012.34,-1039.31 1005.08,-1047.03 1011.48,-1049.87"/>
</g>
<!-- u24 -->
<g id="node32" class="node">
<title>u24</title>
<ellipse fill="#ff7777" stroke="black" cx="728.04" cy="-1021" rx="133.48" ry="18"/>
<text text-anchor="middle" x="728.04" y="-1017.3" font-family="Times,serif" font-size="14.00">Language.Drasil.TeX.Print</text>
</g>
<!-- u0&#45;&gt;u24 -->
<g id="edge4" class="edge">
<title>u0&#45;&gt;u24</title>
<path fill="none" stroke="black" d="M934.98,-1113.6C891.95,-1094.55 820.93,-1063.12 774.31,-1042.48"/>
<polygon fill="black" stroke="black" points="775.6,-1039.23 765.04,-1038.38 772.77,-1045.63 775.6,-1039.23"/>
</g>
<!-- u29 -->
<g id="node9" class="node">
<title>u29</title>
<ellipse fill="#ffbbbb" stroke="black" cx="381.04" cy="-1131" rx="153.27" ry="18"/>
<text text-anchor="middle" x="381.04" y="-1127.3" font-family="Times,serif" font-size="14.00">Language.Drasil.JSON.Helpers</text>
</g>
<!-- u29&#45;&gt;u3 -->
<g id="edge38" class="edge">
<title>u29&#45;&gt;u3</title>
<path fill="none" stroke="black" d="M381.04,-1112.65C381.04,-1095.56 381.04,-1069.22 381.04,-1049.32"/>
<polygon fill="black" stroke="black" points="384.54,-1049.31 381.04,-1039.31 377.54,-1049.31 384.54,-1049.31"/>
</g>
<!-- u18 -->
<g id="node14" class="node">
<title>u18</title>
<ellipse fill="#ffff77" stroke="black" cx="167.04" cy="-579" rx="167.07" ry="18"/>
<text text-anchor="middle" x="167.04" y="-575.3" font-family="Times,serif" font-size="14.00">Language.Drasil.Printing.Helpers</text>
</g>
<!-- u29&#45;&gt;u18 -->
<g id="edge39" class="edge">
<title>u29&#45;&gt;u18</title>
<path fill="none" stroke="black" d="M326.3,-1114.12C288.82,-1100.36 241.17,-1076.63 214.04,-1039 180.22,-992.12 191.04,-968.8 191.04,-911 191.04,-911 191.04,-911 191.04,-799 191.04,-729.66 179,-648.69 171.97,-607.35"/>
<polygon fill="black" stroke="black" points="175.38,-606.5 170.22,-597.25 168.48,-607.7 175.38,-606.5"/>
</g>
<!-- u28&#45;&gt;u23 -->
<g id="edge36" class="edge">
<title>u28&#45;&gt;u23</title>
<path fill="none" stroke="black" d="M806.69,-1223.12C782.35,-1204.74 743.26,-1175.22 716.2,-1154.78"/>
<polygon fill="black" stroke="black" points="718.31,-1151.99 708.22,-1148.76 714.09,-1157.58 718.31,-1151.99"/>
</g>
<!-- u28&#45;&gt;u0 -->
<g id="edge35" class="edge">
<title>u28&#45;&gt;u0</title>
<path fill="none" stroke="black" d="M851.38,-1223.12C875.58,-1204.85 914.35,-1175.56 941.39,-1155.14"/>
<polygon fill="black" stroke="black" points="943.51,-1157.93 949.38,-1149.11 939.29,-1152.35 943.51,-1157.93"/>
</g>
<!-- u28&#45;&gt;u29 -->
<g id="edge37" class="edge">
<title>u28&#45;&gt;u29</title>
<path fill="none" stroke="black" d="M766.27,-1224.87C684.42,-1205.14 541.46,-1170.67 454.61,-1149.74"/>
<polygon fill="black" stroke="black" points="455.36,-1146.32 444.82,-1147.38 453.72,-1153.12 455.36,-1146.32"/>
</g>
<!-- u30 -->
<g id="node13" class="node">
<title>u30</title>
<ellipse fill="#77ff77" stroke="black" cx="1375.04" cy="-1131" rx="139.98" ry="18"/>
<text text-anchor="middle" x="1375.04" y="-1127.3" font-family="Times,serif" font-size="14.00">Language.Drasil.Plain.Print</text>
</g>
<!-- u20&#45;&gt;u30 -->
<g id="edge23" class="edge">
<title>u20&#45;&gt;u30</title>
<path fill="none" stroke="black" d="M1225.3,-1223.36C1255.84,-1204.73 1305.44,-1174.46 1339.12,-1153.92"/>
<polygon fill="black" stroke="black" points="1341.02,-1156.85 1347.74,-1148.66 1337.38,-1150.88 1341.02,-1156.85"/>
</g>
<!-- u4 -->
<g id="node19" class="node">
<title>u4</title>
<ellipse fill="#ffff77" stroke="black" cx="1513.04" cy="-910" rx="162.47" ry="18"/>
<text text-anchor="middle" x="1513.04" y="-906.3" font-family="Times,serif" font-size="14.00">Language.Drasil.Printing.Import</text>
</g>
<!-- u30&#45;&gt;u4 -->
<g id="edge40" class="edge">
<title>u30&#45;&gt;u4</title>
<path fill="none" stroke="black" d="M1409.16,-1113.4C1436.77,-1098.07 1474.22,-1072.61 1494.04,-1039 1512.37,-1007.9 1515.17,-965.42 1514.72,-938.09"/>
<polygon fill="black" stroke="black" points="1518.22,-937.96 1514.4,-928.07 1511.22,-938.18 1518.22,-937.96"/>
</g>
<!-- u17 -->
<g id="node15" class="node">
<title>u17</title>
<ellipse fill="#ffff77" stroke="black" cx="1049.04" cy="-469" rx="167.87" ry="18"/>
<text text-anchor="middle" x="1049.04" y="-465.3" font-family="Times,serif" font-size="14.00">Language.Drasil.Printing.Citation</text>
</g>
<!-- u17&#45;&gt;u5 -->
<g id="edge22" class="edge">
<title>u17&#45;&gt;u5</title>
<path fill="none" stroke="black" d="M1036.08,-450.81C998.88,-399.22 897.68,-241.76 950.04,-120 962.21,-91.69 988,-68.06 1009.78,-51.97"/>
<polygon fill="black" stroke="black" points="1012.09,-54.63 1018.2,-45.98 1008.03,-48.93 1012.09,-54.63"/>
</g>
<!-- u16 -->
<g id="node16" class="node">
<title>u16</title>
<ellipse fill="#ffff77" stroke="black" cx="1127.04" cy="-690" rx="178.97" ry="18"/>
<text text-anchor="middle" x="1127.04" y="-686.3" font-family="Times,serif" font-size="14.00">Language.Drasil.Printing.LayoutObj</text>
</g>
<!-- u16&#45;&gt;u17 -->
<g id="edge21" class="edge">
<title>u16&#45;&gt;u17</title>
<path fill="none" stroke="black" d="M1120.91,-671.82C1107.36,-633.76 1074.72,-542.13 1058.51,-496.6"/>
<polygon fill="black" stroke="black" points="1061.78,-495.35 1055.13,-487.1 1055.19,-497.7 1061.78,-495.35"/>
</g>
<!-- u15 -->
<g id="node17" class="node">
<title>u15</title>
<ellipse fill="#ffff77" stroke="black" cx="1605.04" cy="-138" rx="223.66" ry="18"/>
<text text-anchor="middle" x="1605.04" y="-134.3" font-family="Times,serif" font-size="14.00">Language.Drasil.Printing.PrintingInformation</text>
</g>
<!-- u12 -->
<g id="node22" class="node">
<title>u12</title>
<ellipse fill="#7777ff" stroke="black" cx="1858.04" cy="-359" rx="211.46" ry="18"/>
<text text-anchor="middle" x="1858.04" y="-355.3" font-family="Times,serif" font-size="14.00">Language.Drasil.Printing.Import.CodeExpr</text>
</g>
<!-- u4&#45;&gt;u12 -->
<g id="edge7" class="edge">
<title>u4&#45;&gt;u12</title>
<path fill="none" stroke="black" d="M1589.62,-894.1C1687.67,-870.05 1845.04,-812.53 1845.04,-691 1845.04,-691 1845.04,-691 1845.04,-578 1845.04,-509.26 1851.56,-428.55 1855.36,-387.3"/>
<polygon fill="black" stroke="black" points="1858.86,-387.5 1856.31,-377.22 1851.89,-386.85 1858.86,-387.5"/>
</g>
<!-- u6 -->
<g id="node28" class="node">
<title>u6</title>
<ellipse fill="#7777ff" stroke="black" cx="1513.04" cy="-800" rx="212.56" ry="18"/>
<text text-anchor="middle" x="1513.04" y="-796.3" font-family="Times,serif" font-size="14.00">Language.Drasil.Printing.Import.Document</text>
</g>
<!-- u4&#45;&gt;u6 -->
<g id="edge6" class="edge">
<title>u4&#45;&gt;u6</title>
<path fill="none" stroke="black" d="M1513.04,-891.65C1513.04,-874.56 1513.04,-848.22 1513.04,-828.32"/>
<polygon fill="black" stroke="black" points="1516.54,-828.31 1513.04,-818.31 1509.54,-828.31 1516.54,-828.31"/>
</g>
<!-- u14 -->
<g id="node20" class="node">
<title>u14</title>
<ellipse fill="#7777ff" stroke="black" cx="1161.04" cy="-138" rx="202.26" ry="18"/>
<text text-anchor="middle" x="1161.04" y="-134.3" font-family="Times,serif" font-size="14.00">Language.Drasil.Printing.Import.Helpers</text>
</g>
<!-- u14&#45;&gt;u5 -->
<g id="edge20" class="edge">
<title>u14&#45;&gt;u5</title>
<path fill="none" stroke="black" d="M1142.81,-119.89C1123.63,-101.88 1093.29,-73.38 1071.7,-53.1"/>
<polygon fill="black" stroke="black" points="1073.86,-50.33 1064.17,-46.03 1069.07,-55.43 1073.86,-50.33"/>
</g>
<!-- u13 -->
<g id="node21" class="node">
<title>u13</title>
<ellipse fill="#7777ff" stroke="black" cx="1493.04" cy="-469" rx="193.07" ry="18"/>
<text text-anchor="middle" x="1493.04" y="-465.3" font-family="Times,serif" font-size="14.00">Language.Drasil.Printing.Import.Space</text>
</g>
<!-- u11 -->
<g id="node23" class="node">
<title>u11</title>
<ellipse fill="#7777ff" stroke="black" cx="1441.04" cy="-359" rx="187.67" ry="18"/>
<text text-anchor="middle" x="1441.04" y="-355.3" font-family="Times,serif" font-size="14.00">Language.Drasil.Printing.Import.Expr</text>
</g>
<!-- u13&#45;&gt;u11 -->
<g id="edge19" class="edge">
<title>u13&#45;&gt;u11</title>
<path fill="none" stroke="black" d="M1484.68,-450.65C1476.34,-433.33 1463.42,-406.48 1453.79,-386.5"/>
<polygon fill="black" stroke="black" points="1456.86,-384.8 1449.37,-377.31 1450.55,-387.84 1456.86,-384.8"/>
</g>
<!-- u10 -->
<g id="node24" class="node">
<title>u10</title>
<ellipse fill="#7777ff" stroke="black" cx="1442.04" cy="-248" rx="196.07" ry="18"/>
<text text-anchor="middle" x="1442.04" y="-244.3" font-family="Times,serif" font-size="14.00">Language.Drasil.Printing.Import.Literal</text>
</g>
<!-- u12&#45;&gt;u10 -->
<g id="edge18" class="edge">
<title>u12&#45;&gt;u10</title>
<path fill="none" stroke="black" d="M1795.76,-341.68C1720.22,-321.89 1593.17,-288.6 1513.65,-267.77"/>
<polygon fill="black" stroke="black" points="1514.28,-264.31 1503.72,-265.16 1512.51,-271.08 1514.28,-264.31"/>
</g>
<!-- u7 -->
<g id="node27" class="node">
<title>u7</title>
<ellipse fill="#7777ff" stroke="black" cx="1857.04" cy="-248" rx="200.36" ry="18"/>
<text text-anchor="middle" x="1857.04" y="-244.3" font-family="Times,serif" font-size="14.00">Language.Drasil.Printing.Import.Symbol</text>
</g>
<!-- u12&#45;&gt;u7 -->
<g id="edge17" class="edge">
<title>u12&#45;&gt;u7</title>
<path fill="none" stroke="black" d="M1857.88,-340.97C1857.72,-323.71 1857.47,-296.74 1857.29,-276.46"/>
<polygon fill="black" stroke="black" points="1860.79,-276.24 1857.19,-266.27 1853.79,-276.3 1860.79,-276.24"/>
</g>
<!-- u11&#45;&gt;u10 -->
<g id="edge16" class="edge">
<title>u11&#45;&gt;u10</title>
<path fill="none" stroke="black" d="M1441.19,-340.97C1441.35,-323.71 1441.6,-296.74 1441.78,-276.46"/>
<polygon fill="black" stroke="black" points="1445.28,-276.3 1441.88,-266.27 1438.29,-276.24 1445.28,-276.3"/>
</g>
<!-- u11&#45;&gt;u7 -->
<g id="edge15" class="edge">
<title>u11&#45;&gt;u7</title>
<path fill="none" stroke="black" d="M1502.42,-341.92C1577.84,-322.15 1705.6,-288.68 1785.43,-267.76"/>
<polygon fill="black" stroke="black" points="1786.61,-271.07 1795.4,-265.15 1784.84,-264.3 1786.61,-271.07"/>
</g>
<!-- u10&#45;&gt;u15 -->
<g id="edge14" class="edge">
<title>u10&#45;&gt;u15</title>
<path fill="none" stroke="black" d="M1467.5,-230.12C1495.29,-211.71 1539.93,-182.14 1570.77,-161.7"/>
<polygon fill="black" stroke="black" points="1573.07,-164.38 1579.48,-155.93 1569.21,-158.54 1573.07,-164.38"/>
</g>
<!-- u10&#45;&gt;u14 -->
<g id="edge13" class="edge">
<title>u10&#45;&gt;u14</title>
<path fill="none" stroke="black" d="M1398.74,-230.36C1349.03,-211.26 1267.48,-179.91 1214.02,-159.36"/>
<polygon fill="black" stroke="black" points="1214.96,-155.98 1204.37,-155.66 1212.45,-162.51 1214.96,-155.98"/>
</g>
<!-- u9 -->
<g id="node25" class="node">
<title>u9</title>
<ellipse fill="#7777ff" stroke="black" cx="1519.04" cy="-579" rx="216.36" ry="18"/>
<text text-anchor="middle" x="1519.04" y="-575.3" font-family="Times,serif" font-size="14.00">Language.Drasil.Printing.Import.ModelExpr</text>
</g>
<!-- u9&#45;&gt;u13 -->
<g id="edge12" class="edge">
<title>u9&#45;&gt;u13</title>
<path fill="none" stroke="black" d="M1514.86,-560.65C1510.73,-543.49 1504.34,-516.97 1499.55,-497.04"/>
<polygon fill="black" stroke="black" points="1502.95,-496.21 1497.2,-487.31 1496.14,-497.85 1502.95,-496.21"/>
</g>
<!-- u8 -->
<g id="node26" class="node">
<title>u8</title>
<ellipse fill="#7777ff" stroke="black" cx="1532.04" cy="-690" rx="207.96" ry="18"/>
<text text-anchor="middle" x="1532.04" y="-686.3" font-family="Times,serif" font-size="14.00">Language.Drasil.Printing.Import.Sentence</text>
</g>
<!-- u8&#45;&gt;u9 -->
<g id="edge11" class="edge">
<title>u8&#45;&gt;u9</title>
<path fill="none" stroke="black" d="M1530,-671.97C1527.95,-654.71 1524.73,-627.74 1522.31,-607.46"/>
<polygon fill="black" stroke="black" points="1525.75,-606.79 1521.1,-597.27 1518.8,-607.62 1525.75,-606.79"/>
</g>
<!-- u7&#45;&gt;u5 -->
<g id="edge10" class="edge">
<title>u7&#45;&gt;u5</title>
<path fill="none" stroke="black" d="M1860.31,-229.73C1864.41,-202.22 1867.69,-148.66 1838.04,-120 1792.51,-76 1407.48,-48.41 1191.51,-36.25"/>
<polygon fill="black" stroke="black" points="1191.53,-32.75 1181.35,-35.68 1191.14,-39.74 1191.53,-32.75"/>
</g>
<!-- u6&#45;&gt;u16 -->
<g id="edge9" class="edge">
<title>u6&#45;&gt;u16</title>
<path fill="none" stroke="black" d="M1454.41,-782.6C1384.47,-763.03 1267.8,-730.38 1194.27,-709.81"/>
<polygon fill="black" stroke="black" points="1195.21,-706.44 1184.63,-707.12 1193.32,-713.18 1195.21,-706.44"/>
</g>
<!-- u6&#45;&gt;u8 -->
<g id="edge8" class="edge">
<title>u6&#45;&gt;u8</title>
<path fill="none" stroke="black" d="M1516.09,-781.65C1519.09,-764.56 1523.73,-738.22 1527.23,-718.32"/>
<polygon fill="black" stroke="black" points="1530.7,-718.76 1528.99,-708.31 1523.81,-717.55 1530.7,-718.76"/>
</g>
<!-- u27 -->
<g id="node29" class="node">
<title>u27</title>
<ellipse fill="#ff7777" stroke="black" cx="760.04" cy="-800" rx="146.47" ry="18"/>
<text text-anchor="middle" x="760.04" y="-796.3" font-family="Times,serif" font-size="14.00">Language.Drasil.TeX.Helpers</text>
</g>
<!-- u27&#45;&gt;u21 -->
<g id="edge33" class="edge">
<title>u27&#45;&gt;u21</title>
<path fill="none" stroke="black" d="M768.23,-781.65C776.41,-764.33 789.08,-737.48 798.52,-717.5"/>
<polygon fill="black" stroke="black" points="801.76,-718.85 802.86,-708.31 795.43,-715.86 801.76,-718.85"/>
</g>
<!-- u26 -->
<g id="node30" class="node">
<title>u26</title>
<ellipse fill="#ff7777" stroke="black" cx="532.04" cy="-690" rx="141.88" ry="18"/>
<text text-anchor="middle" x="532.04" y="-686.3" font-family="Times,serif" font-size="14.00">Language.Drasil.TeX.Monad</text>
</g>
<!-- u27&#45;&gt;u26 -->
<g id="edge34" class="edge">
<title>u27&#45;&gt;u26</title>
<path fill="none" stroke="black" d="M724.91,-782.36C684.88,-763.4 619.39,-732.38 576,-711.83"/>
<polygon fill="black" stroke="black" points="577.36,-708.6 566.83,-707.48 574.37,-714.92 577.36,-708.6"/>
</g>
<!-- u26&#45;&gt;u18 -->
<g id="edge32" class="edge">
<title>u26&#45;&gt;u18</title>
<path fill="none" stroke="black" d="M479.35,-673.27C413.55,-653.62 301.05,-620.02 230.55,-598.97"/>
<polygon fill="black" stroke="black" points="231.48,-595.59 220.89,-596.08 229.47,-602.3 231.48,-595.59"/>
</g>
<!-- u25 -->
<g id="node31" class="node">
<title>u25</title>
<ellipse fill="#ff7777" stroke="black" cx="760.04" cy="-910" rx="154.07" ry="18"/>
<text text-anchor="middle" x="760.04" y="-906.3" font-family="Times,serif" font-size="14.00">Language.Drasil.TeX.Preamble</text>
</g>
<!-- u25&#45;&gt;u16 -->
<g id="edge30" class="edge">
<title>u25&#45;&gt;u16</title>
<path fill="none" stroke="black" d="M788.65,-892.3C819.79,-874.11 871.02,-844.1 915.04,-818 976.58,-781.5 1047.9,-738.66 1090.15,-713.23"/>
<polygon fill="black" stroke="black" points="1092.2,-716.08 1098.96,-707.92 1088.59,-710.08 1092.2,-716.08"/>
</g>
<!-- u25&#45;&gt;u27 -->
<g id="edge31" class="edge">
<title>u25&#45;&gt;u27</title>
<path fill="none" stroke="black" d="M760.04,-891.65C760.04,-874.56 760.04,-848.22 760.04,-828.32"/>
<polygon fill="black" stroke="black" points="763.54,-828.31 760.04,-818.31 756.54,-828.31 763.54,-828.31"/>
</g>
<!-- u24&#45;&gt;u4 -->
<g id="edge28" class="edge">
<title>u24&#45;&gt;u4</title>
<path fill="none" stroke="black" d="M817.32,-1007.6C962.61,-987.43 1249.64,-947.57 1405.77,-925.89"/>
<polygon fill="black" stroke="black" points="1406.44,-929.33 1415.86,-924.49 1405.48,-922.4 1406.44,-929.33"/>
</g>
<!-- u24&#45;&gt;u25 -->
<g id="edge29" class="edge">
<title>u24&#45;&gt;u25</title>
<path fill="none" stroke="black" d="M733.04,-1002.97C738.15,-985.55 746.17,-958.24 752.14,-937.9"/>
<polygon fill="black" stroke="black" points="755.51,-938.85 754.96,-928.27 748.79,-936.88 755.51,-938.85"/>
</g>
</g>
</svg>
