<?xml version="1.0" encoding="UTF-8" standalone="no"?>
<!DOCTYPE svg PUBLIC "-//W3C//DTD SVG 1.1//EN"
 "http://www.w3.org/Graphics/SVG/1.1/DTD/svg11.dtd">
<!-- Generated by graphviz version 2.43.0 (0)
 -->
<!-- Title: G Pages: 1 -->
<svg width="432pt" height="287pt"
 viewBox="0.00 0.00 432.00 286.84" xmlns="http://www.w3.org/2000/svg" xmlns:xlink="http://www.w3.org/1999/xlink">
<g id="graph0" class="graph" transform="scale(0.07 0.07) rotate(0) translate(4 4032.67)">
<title>G</title>
<polygon fill="white" stroke="transparent" points="-4,4 -4,-4032.67 6075.39,-4032.67 6075.39,4 -4,4"/>
<!-- u57 -->
<g id="node1" class="node">
<title>u57</title>
<ellipse fill="#bbffbb" stroke="black" cx="62.39" cy="-3723" rx="62.29" ry="18"/>
<text text-anchor="middle" x="62.39" y="-3719.3" font-family="Times,serif" font-size="14.00">HelloWorld</text>
</g>
<!-- u56 -->
<g id="node2" class="node">
<title>u56</title>
<ellipse fill="#bbffbb" stroke="black" cx="62.39" cy="-3479" rx="42.49" ry="18"/>
<text text-anchor="middle" x="62.39" y="-3475.3" font-family="Times,serif" font-size="14.00">Helper</text>
</g>
<!-- u57&#45;&gt;u56 -->
<g id="edge80" class="edge">
<title>u57&#45;&gt;u56</title>
<path fill="none" stroke="black" d="M62.39,-3704.98C62.39,-3663.69 62.39,-3557.86 62.39,-3507.47"/>
<polygon fill="black" stroke="black" points="65.89,-3507.32 62.39,-3497.32 58.89,-3507.32 65.89,-3507.32"/>
</g>
<!-- u55 -->
<g id="node3" class="node">
<title>u55</title>
<ellipse fill="#bbffbb" stroke="black" cx="202.39" cy="-3723" rx="59.59" ry="18"/>
<text text-anchor="middle" x="202.39" y="-3719.3" font-family="Times,serif" font-size="14.00">VectorTest</text>
</g>
<!-- u52 -->
<g id="node4" class="node">
<title>u52</title>
<ellipse fill="#bbffbb" stroke="black" cx="356.39" cy="-3723" rx="76.09" ry="18"/>
<text text-anchor="middle" x="356.39" y="-3719.3" font-family="Times,serif" font-size="14.00">NameGenTest</text>
</g>
<!-- u51 -->
<g id="node5" class="node">
<title>u51</title>
<ellipse fill="#bbffbb" stroke="black" cx="503.39" cy="-3723" rx="52.79" ry="18"/>
<text text-anchor="middle" x="503.39" y="-3719.3" font-family="Times,serif" font-size="14.00">FileTests</text>
</g>
<!-- u0 -->
<g id="node6" class="node">
<title>u0</title>
<ellipse fill="#ffffbb" stroke="black" cx="4157.39" cy="-1526" rx="214.46" ry="18"/>
<text text-anchor="middle" x="4157.39" y="-1522.3" font-family="Times,serif" font-size="14.00">Data.Drasil.ExternalLibraries.ODELibraries</text>
</g>
<!-- u2 -->
<g id="node55" class="node">
<title>u2</title>
<ellipse fill="#77ffff" stroke="black" cx="4157.39" cy="-1282" rx="172.77" ry="18"/>
<text text-anchor="middle" x="4157.39" y="-1278.3" font-family="Times,serif" font-size="14.00">Language.Drasil.Data.ODELibPckg</text>
</g>
<!-- u0&#45;&gt;u2 -->
<g id="edge1" class="edge">
<title>u0&#45;&gt;u2</title>
<path fill="none" stroke="black" d="M4157.39,-1507.98C4157.39,-1466.69 4157.39,-1360.86 4157.39,-1310.47"/>
<polygon fill="black" stroke="black" points="4160.89,-1310.32 4157.39,-1300.32 4153.89,-1310.32 4160.89,-1310.32"/>
</g>
<!-- u54 -->
<g id="node7" class="node">
<title>u54</title>
<ellipse fill="#bbbbff" stroke="black" cx="669.39" cy="-3723" rx="95.58" ry="18"/>
<text text-anchor="middle" x="669.39" y="-3719.3" font-family="Times,serif" font-size="14.00">GOOL.PatternTest</text>
</g>
<!-- u53 -->
<g id="node8" class="node">
<title>u53</title>
<ellipse fill="#bbbbff" stroke="black" cx="438.39" cy="-3479" rx="84.49" ry="18"/>
<text text-anchor="middle" x="438.39" y="-3475.3" font-family="Times,serif" font-size="14.00">GOOL.Observer</text>
</g>
<!-- u54&#45;&gt;u53 -->
<g id="edge79" class="edge">
<title>u54&#45;&gt;u53</title>
<path fill="none" stroke="black" d="M653.15,-3704.98C612.89,-3662.81 508.38,-3553.32 461.61,-3504.32"/>
<polygon fill="black" stroke="black" points="464.06,-3501.82 454.62,-3497 458.99,-3506.65 464.06,-3501.82"/>
</g>
<!-- u16 -->
<g id="node9" class="node">
<title>u16</title>
<ellipse fill="#ffbbbb" stroke="black" cx="3847.39" cy="-794" rx="110.48" ry="18"/>
<text text-anchor="middle" x="3847.39" y="-790.3" font-family="Times,serif" font-size="14.00">Language.Drasil.Mod</text>
</g>
<!-- u12 -->
<g id="node18" class="node">
<title>u12</title>
<ellipse fill="#bbffff" stroke="black" cx="3847.39" cy="-549" rx="170.87" ry="18"/>
<text text-anchor="middle" x="3847.39" y="-545.3" font-family="Times,serif" font-size="14.00">Language.Drasil.Chunk.Parameter</text>
</g>
<!-- u16&#45;&gt;u12 -->
<g id="edge27" class="edge">
<title>u16&#45;&gt;u12</title>
<path fill="none" stroke="black" d="M3847.39,-775.91C3847.39,-734.35 3847.39,-627.67 3847.39,-577.22"/>
<polygon fill="black" stroke="black" points="3850.89,-577.07 3847.39,-567.07 3843.89,-577.07 3850.89,-577.07"/>
</g>
<!-- u45 -->
<g id="node26" class="node">
<title>u45</title>
<ellipse fill="#ffbbff" stroke="black" cx="3389.39" cy="-549" rx="160.57" ry="18"/>
<text text-anchor="middle" x="3389.39" y="-545.3" font-family="Times,serif" font-size="14.00">Language.Drasil.Code.DataDesc</text>
</g>
<!-- u16&#45;&gt;u45 -->
<g id="edge28" class="edge">
<title>u16&#45;&gt;u45</title>
<path fill="none" stroke="black" d="M3816.63,-776.68C3736.26,-734.03 3519.97,-619.28 3429.77,-571.42"/>
<polygon fill="black" stroke="black" points="3431.4,-568.33 3420.93,-566.73 3428.12,-574.51 3431.4,-568.33"/>
</g>
<!-- u9 -->
<g id="node10" class="node">
<title>u9</title>
<ellipse fill="#ffbbbb" stroke="black" cx="4596.39" cy="-1770" rx="178.17" ry="18"/>
<text text-anchor="middle" x="4596.39" y="-1766.3" font-family="Times,serif" font-size="14.00">Language.Drasil.ICOSolutionSearch</text>
</g>
<!-- u14 -->
<g id="node16" class="node">
<title>u14</title>
<ellipse fill="#bbffff" stroke="black" cx="4591.39" cy="-1526" rx="191.17" ry="18"/>
<text text-anchor="middle" x="4591.39" y="-1522.3" font-family="Times,serif" font-size="14.00">Language.Drasil.Chunk.CodeDefinition</text>
</g>
<!-- u9&#45;&gt;u14 -->
<g id="edge23" class="edge">
<title>u9&#45;&gt;u14</title>
<path fill="none" stroke="black" d="M4596.04,-1751.98C4595.19,-1710.69 4593,-1604.86 4591.96,-1554.47"/>
<polygon fill="black" stroke="black" points="4595.46,-1554.25 4591.75,-1544.32 4588.46,-1554.39 4595.46,-1554.25"/>
</g>
<!-- u8 -->
<g id="node11" class="node">
<title>u8</title>
<ellipse fill="#ffbbbb" stroke="black" cx="2780.39" cy="-3479" rx="117.78" ry="18"/>
<text text-anchor="middle" x="2780.39" y="-3475.3" font-family="Times,serif" font-size="14.00">Language.Drasil.GOOL</text>
</g>
<!-- u47 -->
<g id="node24" class="node">
<title>u47</title>
<ellipse fill="#ffbbff" stroke="black" cx="5176.39" cy="-3235" rx="176.27" ry="18"/>
<text text-anchor="middle" x="5176.39" y="-3231.3" font-family="Times,serif" font-size="14.00">Language.Drasil.Code.PackageData</text>
</g>
<!-- u8&#45;&gt;u47 -->
<g id="edge22" class="edge">
<title>u8&#45;&gt;u47</title>
<path fill="none" stroke="black" d="M2875.8,-3468.36C3249.72,-3430.6 4615.94,-3292.61 5045.92,-3249.18"/>
<polygon fill="black" stroke="black" points="5046.3,-3252.66 5055.9,-3248.17 5045.6,-3245.69 5046.3,-3252.66"/>
</g>
<!-- u26 -->
<g id="node48" class="node">
<title>u26</title>
<ellipse fill="#ff7777" stroke="black" cx="937.39" cy="-3235" rx="358.54" ry="18"/>
<text text-anchor="middle" x="937.39" y="-3231.3" font-family="Times,serif" font-size="14.00">Language.Drasil.Code.Imperative.GOOL.LanguageRenderer.SwiftRenderer</text>
</g>
<!-- u8&#45;&gt;u26 -->
<g id="edge21" class="edge">
<title>u8&#45;&gt;u26</title>
<path fill="none" stroke="black" d="M2694.28,-3466.69C2398.79,-3427.89 1424.74,-3299.99 1068.98,-3253.28"/>
<polygon fill="black" stroke="black" points="1069.26,-3249.79 1058.89,-3251.95 1068.35,-3256.73 1069.26,-3249.79"/>
</g>
<!-- u25 -->
<g id="node49" class="node">
<title>u25</title>
<ellipse fill="#ff7777" stroke="black" cx="1668.39" cy="-3235" rx="354.44" ry="18"/>
<text text-anchor="middle" x="1668.39" y="-3231.3" font-family="Times,serif" font-size="14.00">Language.Drasil.Code.Imperative.GOOL.LanguageRenderer.JavaRenderer</text>
</g>
<!-- u8&#45;&gt;u25 -->
<g id="edge20" class="edge">
<title>u8&#45;&gt;u25</title>
<path fill="none" stroke="black" d="M2715.8,-3463.94C2525.99,-3422.63 1969.79,-3301.59 1754.7,-3254.78"/>
<polygon fill="black" stroke="black" points="1755.23,-3251.32 1744.72,-3252.61 1753.74,-3258.16 1755.23,-3251.32"/>
</g>
<!-- u24 -->
<g id="node50" class="node">
<title>u24</title>
<ellipse fill="#ff7777" stroke="black" cx="2409.39" cy="-3235" rx="369.33" ry="18"/>
<text text-anchor="middle" x="2409.39" y="-3231.3" font-family="Times,serif" font-size="14.00">Language.Drasil.Code.Imperative.GOOL.LanguageRenderer.CSharpRenderer</text>
</g>
<!-- u8&#45;&gt;u24 -->
<g id="edge19" class="edge">
<title>u8&#45;&gt;u24</title>
<path fill="none" stroke="black" d="M2754.89,-3461.37C2689.92,-3418.99 2518.09,-3306.9 2444.09,-3258.63"/>
<polygon fill="black" stroke="black" points="2445.86,-3255.6 2435.57,-3253.07 2442.03,-3261.47 2445.86,-3255.6"/>
</g>
<!-- u22 -->
<g id="node52" class="node">
<title>u22</title>
<ellipse fill="#ff7777" stroke="black" cx="3151.39" cy="-3235" rx="354.74" ry="18"/>
<text text-anchor="middle" x="3151.39" y="-3231.3" font-family="Times,serif" font-size="14.00">Language.Drasil.Code.Imperative.GOOL.LanguageRenderer.JuliaRenderer</text>
</g>
<!-- u8&#45;&gt;u22 -->
<g id="edge18" class="edge">
<title>u8&#45;&gt;u22</title>
<path fill="none" stroke="black" d="M2805.89,-3461.37C2870.87,-3418.99 3042.7,-3306.9 3116.7,-3258.63"/>
<polygon fill="black" stroke="black" points="3118.76,-3261.47 3125.22,-3253.07 3114.93,-3255.6 3118.76,-3261.47"/>
</g>
<!-- u21 -->
<g id="node53" class="node">
<title>u21</title>
<ellipse fill="#ff7777" stroke="black" cx="3877.39" cy="-3235" rx="352.84" ry="18"/>
<text text-anchor="middle" x="3877.39" y="-3231.3" font-family="Times,serif" font-size="14.00">Language.Drasil.Code.Imperative.GOOL.LanguageRenderer.CppRenderer</text>
</g>
<!-- u8&#45;&gt;u21 -->
<g id="edge17" class="edge">
<title>u8&#45;&gt;u21</title>
<path fill="none" stroke="black" d="M2844.52,-3463.85C3032.18,-3422.46 3580.38,-3301.52 3792.35,-3254.76"/>
<polygon fill="black" stroke="black" points="3793.17,-3258.16 3802.18,-3252.59 3791.66,-3251.33 3793.17,-3258.16"/>
</g>
<!-- u20 -->
<g id="node54" class="node">
<title>u20</title>
<ellipse fill="#ff7777" stroke="black" cx="4615.39" cy="-3235" rx="367.43" ry="18"/>
<text text-anchor="middle" x="4615.39" y="-3231.3" font-family="Times,serif" font-size="14.00">Language.Drasil.Code.Imperative.GOOL.LanguageRenderer.PythonRenderer</text>
</g>
<!-- u8&#45;&gt;u20 -->
<g id="edge16" class="edge">
<title>u8&#45;&gt;u20</title>
<path fill="none" stroke="black" d="M2866.44,-3466.65C3160.85,-3427.83 4129.25,-3300.11 4483.82,-3253.35"/>
<polygon fill="black" stroke="black" points="4484.41,-3256.8 4493.87,-3252.03 4483.5,-3249.86 4484.41,-3256.8"/>
</g>
<!-- u7 -->
<g id="node12" class="node">
<title>u7</title>
<ellipse fill="#ffbbbb" stroke="black" cx="4157.39" cy="-1770" rx="126.18" ry="18"/>
<text text-anchor="middle" x="4157.39" y="-1766.3" font-family="Times,serif" font-size="14.00">Language.Drasil.Choices</text>
</g>
<!-- u7&#45;&gt;u0 -->
<g id="edge15" class="edge">
<title>u7&#45;&gt;u0</title>
<path fill="none" stroke="black" d="M4157.39,-1751.98C4157.39,-1710.69 4157.39,-1604.86 4157.39,-1554.47"/>
<polygon fill="black" stroke="black" points="4160.89,-1554.32 4157.39,-1544.32 4153.89,-1554.32 4160.89,-1554.32"/>
</g>
<!-- u6 -->
<g id="node13" class="node">
<title>u6</title>
<ellipse fill="#ffbbbb" stroke="black" cx="4754.39" cy="-2014" rx="135.68" ry="18"/>
<text text-anchor="middle" x="4754.39" y="-2010.3" font-family="Times,serif" font-size="14.00">Language.Drasil.CodeSpec</text>
</g>
<!-- u6&#45;&gt;u9 -->
<g id="edge13" class="edge">
<title>u6&#45;&gt;u9</title>
<path fill="none" stroke="black" d="M4743.28,-1995.98C4715.97,-1954.15 4645.44,-1846.12 4613.07,-1796.54"/>
<polygon fill="black" stroke="black" points="4615.89,-1794.46 4607.49,-1788 4610.03,-1798.28 4615.89,-1794.46"/>
</g>
<!-- u6&#45;&gt;u7 -->
<g id="edge12" class="edge">
<title>u6&#45;&gt;u7</title>
<path fill="none" stroke="black" d="M4714.3,-1996.75C4608.51,-1953.87 4322.12,-1837.77 4206.64,-1790.96"/>
<polygon fill="black" stroke="black" points="4207.9,-1787.7 4197.32,-1787.18 4205.27,-1794.18 4207.9,-1787.7"/>
</g>
<!-- u15 -->
<g id="node15" class="node">
<title>u15</title>
<ellipse fill="#bbffff" stroke="black" cx="4984.39" cy="-1770" rx="192.27" ry="18"/>
<text text-anchor="middle" x="4984.39" y="-1766.3" font-family="Times,serif" font-size="14.00">Language.Drasil.Chunk.ConstraintMap</text>
</g>
<!-- u6&#45;&gt;u15 -->
<g id="edge14" class="edge">
<title>u6&#45;&gt;u15</title>
<path fill="none" stroke="black" d="M4770.57,-1995.98C4810.65,-1953.81 4914.71,-1844.32 4961.28,-1795.32"/>
<polygon fill="black" stroke="black" points="4963.89,-1797.66 4968.24,-1788 4958.81,-1792.84 4963.89,-1797.66"/>
</g>
<!-- u3 -->
<g id="node14" class="node">
<title>u3</title>
<ellipse fill="#ffbbbb" stroke="black" cx="896.39" cy="-3723" rx="113.18" ry="18"/>
<text text-anchor="middle" x="896.39" y="-3719.3" font-family="Times,serif" font-size="14.00">Language.Drasil.Code</text>
</g>
<!-- u29 -->
<g id="node40" class="node">
<title>u29</title>
<ellipse fill="#77ff77" stroke="black" cx="5579.39" cy="-3479" rx="217.16" ry="18"/>
<text text-anchor="middle" x="5579.39" y="-3475.3" font-family="Times,serif" font-size="14.00">Language.Drasil.Code.Imperative.Generator</text>
</g>
<!-- u3&#45;&gt;u29 -->
<g id="edge8" class="edge">
<title>u3&#45;&gt;u29</title>
<path fill="none" stroke="black" d="M1002.16,-3716.53C1604.72,-3685.4 4604.78,-3530.36 5390.68,-3489.75"/>
<polygon fill="black" stroke="black" points="5390.87,-3493.25 5400.67,-3489.24 5390.51,-3486.26 5390.87,-3493.25"/>
</g>
<!-- u28 -->
<g id="node41" class="node">
<title>u28</title>
<ellipse fill="#77ff77" stroke="black" cx="1795.39" cy="-1282" rx="217.96" ry="18"/>
<text text-anchor="middle" x="1795.39" y="-1278.3" font-family="Times,serif" font-size="14.00">Language.Drasil.Code.Imperative.ReadInput</text>
</g>
<!-- u3&#45;&gt;u28 -->
<g id="edge7" class="edge">
<title>u3&#45;&gt;u28</title>
<path fill="none" stroke="black" d="M872.06,-3705.34C793.31,-3649.23 550.39,-3458.17 550.39,-3236 550.39,-3236 550.39,-3236 550.39,-1769 550.39,-1524.23 1396,-1352.82 1693.42,-1300.1"/>
<polygon fill="black" stroke="black" points="1694.1,-1303.53 1703.34,-1298.35 1692.88,-1296.64 1694.1,-1303.53"/>
</g>
<!-- u1 -->
<g id="node56" class="node">
<title>u1</title>
<ellipse fill="#77ffff" stroke="black" cx="4591.39" cy="-1038" rx="154.07" ry="18"/>
<text text-anchor="middle" x="4591.39" y="-1034.3" font-family="Times,serif" font-size="14.00">Language.Drasil.Data.ODEInfo</text>
</g>
<!-- u14&#45;&gt;u1 -->
<g id="edge26" class="edge">
<title>u14&#45;&gt;u1</title>
<path fill="none" stroke="black" d="M4591.39,-1507.99C4591.39,-1435.9 4591.39,-1155.23 4591.39,-1066.23"/>
<polygon fill="black" stroke="black" points="4594.89,-1066.13 4591.39,-1056.13 4587.89,-1066.13 4594.89,-1066.13"/>
</g>
<!-- u13 -->
<g id="node17" class="node">
<title>u13</title>
<ellipse fill="#bbffff" stroke="black" cx="3516.39" cy="-794" rx="202.26" ry="18"/>
<text text-anchor="middle" x="3516.39" y="-790.3" font-family="Times,serif" font-size="14.00">Language.Drasil.Chunk.NamedArgument</text>
</g>
<!-- u10 -->
<g id="node20" class="node">
<title>u10</title>
<ellipse fill="#bbffff" stroke="black" cx="3847.39" cy="-305" rx="145.67" ry="18"/>
<text text-anchor="middle" x="3847.39" y="-301.3" font-family="Times,serif" font-size="14.00">Language.Drasil.Chunk.Code</text>
</g>
<!-- u12&#45;&gt;u10 -->
<g id="edge25" class="edge">
<title>u12&#45;&gt;u10</title>
<path fill="none" stroke="black" d="M3847.39,-530.98C3847.39,-489.69 3847.39,-383.86 3847.39,-333.47"/>
<polygon fill="black" stroke="black" points="3850.89,-333.32 3847.39,-323.32 3843.89,-333.32 3850.89,-333.32"/>
</g>
<!-- u11 -->
<g id="node19" class="node">
<title>u11</title>
<ellipse fill="#bbffff" stroke="black" cx="3847.39" cy="-61" rx="168.17" ry="18"/>
<text text-anchor="middle" x="3847.39" y="-57.3" font-family="Times,serif" font-size="14.00">Language.Drasil.Chunk.CodeBase</text>
</g>
<!-- u10&#45;&gt;u11 -->
<g id="edge24" class="edge">
<title>u10&#45;&gt;u11</title>
<path fill="none" stroke="black" d="M3847.39,-286.98C3847.39,-245.69 3847.39,-139.86 3847.39,-89.47"/>
<polygon fill="black" stroke="black" points="3850.89,-89.32 3847.39,-79.32 3843.89,-89.32 3850.89,-89.32"/>
</g>
<!-- u50 -->
<g id="node21" class="node">
<title>u50</title>
<ellipse fill="#ffbbff" stroke="black" cx="5655.39" cy="-2503" rx="204.16" ry="18"/>
<text text-anchor="middle" x="5655.39" y="-2499.3" font-family="Times,serif" font-size="14.00">Language.Drasil.Code.CodeQuantityDicts</text>
</g>
<!-- u49 -->
<g id="node22" class="node">
<title>u49</title>
<ellipse fill="#ffbbff" stroke="black" cx="3516.39" cy="-1038" rx="207.96" ry="18"/>
<text text-anchor="middle" x="3516.39" y="-1034.3" font-family="Times,serif" font-size="14.00">Language.Drasil.Code.ExternalLibraryCall</text>
</g>
<!-- u49&#45;&gt;u16 -->
<g id="edge78" class="edge">
<title>u49&#45;&gt;u16</title>
<path fill="none" stroke="black" d="M3539.67,-1019.98C3597.97,-977.36 3750.32,-865.97 3816.24,-817.77"/>
<polygon fill="black" stroke="black" points="3818.58,-820.4 3824.58,-811.68 3814.45,-814.75 3818.58,-820.4"/>
</g>
<!-- u49&#45;&gt;u13 -->
<g id="edge77" class="edge">
<title>u49&#45;&gt;u13</title>
<path fill="none" stroke="black" d="M3516.39,-1019.98C3516.39,-978.69 3516.39,-872.86 3516.39,-822.47"/>
<polygon fill="black" stroke="black" points="3519.89,-822.32 3516.39,-812.32 3512.89,-822.32 3519.89,-822.32"/>
</g>
<!-- u48 -->
<g id="node23" class="node">
<title>u48</title>
<ellipse fill="#ffbbff" stroke="black" cx="3932.39" cy="-1038" rx="190.37" ry="18"/>
<text text-anchor="middle" x="3932.39" y="-1034.3" font-family="Times,serif" font-size="14.00">Language.Drasil.Code.ExternalLibrary</text>
</g>
<!-- u48&#45;&gt;u16 -->
<g id="edge76" class="edge">
<title>u48&#45;&gt;u16</title>
<path fill="none" stroke="black" d="M3926.42,-1019.98C3911.82,-978.41 3874.25,-871.46 3856.69,-821.48"/>
<polygon fill="black" stroke="black" points="3859.98,-820.27 3853.36,-812 3853.38,-822.59 3859.98,-820.27"/>
</g>
<!-- u48&#45;&gt;u13 -->
<g id="edge75" class="edge">
<title>u48&#45;&gt;u13</title>
<path fill="none" stroke="black" d="M3903.47,-1020.18C3830.11,-977.5 3636.77,-865.02 3554.41,-817.12"/>
<polygon fill="black" stroke="black" points="3555.8,-813.88 3545.4,-811.87 3552.29,-819.93 3555.8,-813.88"/>
</g>
<!-- u46 -->
<g id="node25" class="node">
<title>u46</title>
<ellipse fill="#ffbbff" stroke="black" cx="4280.39" cy="-1038" rx="139.18" ry="18"/>
<text text-anchor="middle" x="4280.39" y="-1034.3" font-family="Times,serif" font-size="14.00">Language.Drasil.Code.Lang</text>
</g>
<!-- u45&#45;&gt;u10 -->
<g id="edge74" class="edge">
<title>u45&#45;&gt;u10</title>
<path fill="none" stroke="black" d="M3421.24,-531.18C3502.35,-488.32 3716.68,-375.07 3806.69,-327.51"/>
<polygon fill="black" stroke="black" points="3808.56,-330.48 3815.76,-322.71 3805.29,-324.29 3808.56,-330.48"/>
</g>
<!-- u17 -->
<g id="node27" class="node">
<title>u17</title>
<ellipse fill="#ffbbff" stroke="black" cx="3708.39" cy="-1282" rx="178.97" ry="18"/>
<text text-anchor="middle" x="3708.39" y="-1278.3" font-family="Times,serif" font-size="14.00">Language.Drasil.Code.ExtLibImport</text>
</g>
<!-- u17&#45;&gt;u49 -->
<g id="edge30" class="edge">
<title>u17&#45;&gt;u49</title>
<path fill="none" stroke="black" d="M3694.89,-1263.98C3661.57,-1221.98 3575.28,-1113.22 3536.17,-1063.93"/>
<polygon fill="black" stroke="black" points="3538.84,-1061.66 3529.88,-1056 3533.35,-1066.01 3538.84,-1061.66"/>
</g>
<!-- u17&#45;&gt;u48 -->
<g id="edge29" class="edge">
<title>u17&#45;&gt;u48</title>
<path fill="none" stroke="black" d="M3724.15,-1263.98C3763.11,-1221.89 3864.11,-1112.77 3909.6,-1063.63"/>
<polygon fill="black" stroke="black" points="3912.44,-1065.71 3916.66,-1056 3907.3,-1060.96 3912.44,-1065.71"/>
</g>
<!-- u44 -->
<g id="node28" class="node">
<title>u44</title>
<ellipse fill="#77ff77" stroke="black" cx="4094.39" cy="-2258" rx="237.46" ry="18"/>
<text text-anchor="middle" x="4094.39" y="-2254.3" font-family="Times,serif" font-size="14.00">Language.Drasil.Code.Imperative.ConceptMatch</text>
</g>
<!-- u44&#45;&gt;u7 -->
<g id="edge73" class="edge">
<title>u44&#45;&gt;u7</title>
<path fill="none" stroke="black" d="M4097.85,-2239.85C4105.31,-2202.32 4123.06,-2110.01 4133.39,-2032 4144.64,-1947.04 4152.33,-1845.83 4155.61,-1798.26"/>
<polygon fill="black" stroke="black" points="4159.11,-1798.37 4156.29,-1788.15 4152.13,-1797.89 4159.11,-1798.37"/>
</g>
<!-- u43 -->
<g id="node29" class="node">
<title>u43</title>
<ellipse fill="#77ff77" stroke="black" cx="4338.39" cy="-2503" rx="207.16" ry="18"/>
<text text-anchor="middle" x="4338.39" y="-2499.3" font-family="Times,serif" font-size="14.00">Language.Drasil.Code.Imperative.Logging</text>
</g>
<!-- u27 -->
<g id="node42" class="node">
<title>u27</title>
<ellipse fill="#77ff77" stroke="black" cx="4754.39" cy="-2258" rx="222.06" ry="18"/>
<text text-anchor="middle" x="4754.39" y="-2254.3" font-family="Times,serif" font-size="14.00">Language.Drasil.Code.Imperative.DrasilState</text>
</g>
<!-- u43&#45;&gt;u27 -->
<g id="edge72" class="edge">
<title>u43&#45;&gt;u27</title>
<path fill="none" stroke="black" d="M4367.32,-2485.11C4440.68,-2442.25 4634.02,-2329.31 4716.37,-2281.21"/>
<polygon fill="black" stroke="black" points="4718.52,-2284.01 4725.39,-2275.94 4714.99,-2277.97 4718.52,-2284.01"/>
</g>
<!-- u42 -->
<g id="node30" class="node">
<title>u42</title>
<ellipse fill="#77ff77" stroke="black" cx="4783.39" cy="-2747" rx="201.46" ry="18"/>
<text text-anchor="middle" x="4783.39" y="-2743.3" font-family="Times,serif" font-size="14.00">Language.Drasil.Code.Imperative.Import</text>
</g>
<!-- u42&#45;&gt;u50 -->
<g id="edge71" class="edge">
<title>u42&#45;&gt;u50</title>
<path fill="none" stroke="black" d="M4841.96,-2729.75C4997.47,-2686.59 5420.18,-2569.28 5586.68,-2523.07"/>
<polygon fill="black" stroke="black" points="5588.09,-2526.31 5596.79,-2520.26 5586.22,-2519.56 5588.09,-2526.31"/>
</g>
<!-- u42&#45;&gt;u44 -->
<g id="edge70" class="edge">
<title>u42&#45;&gt;u44</title>
<path fill="none" stroke="black" d="M4612.94,-2737.35C4459.42,-2719.77 4240.32,-2668.45 4122.39,-2521 4067.31,-2452.13 4079.31,-2338.4 4088.6,-2286.44"/>
<polygon fill="black" stroke="black" points="4092.09,-2286.8 4090.51,-2276.32 4085.21,-2285.5 4092.09,-2286.8"/>
</g>
<!-- u42&#45;&gt;u43 -->
<g id="edge69" class="edge">
<title>u42&#45;&gt;u43</title>
<path fill="none" stroke="black" d="M4752.46,-2729.18C4673.74,-2686.37 4465.9,-2573.34 4378.26,-2525.68"/>
<polygon fill="black" stroke="black" points="4379.88,-2522.58 4369.42,-2520.87 4376.54,-2528.73 4379.88,-2522.58"/>
</g>
<!-- u32 -->
<g id="node37" class="node">
<title>u32</title>
<ellipse fill="#77ff77" stroke="black" cx="4783.39" cy="-2503" rx="219.86" ry="18"/>
<text text-anchor="middle" x="4783.39" y="-2499.3" font-family="Times,serif" font-size="14.00">Language.Drasil.Code.Imperative.Comments</text>
</g>
<!-- u42&#45;&gt;u32 -->
<g id="edge68" class="edge">
<title>u42&#45;&gt;u32</title>
<path fill="none" stroke="black" d="M4783.39,-2728.98C4783.39,-2687.69 4783.39,-2581.86 4783.39,-2531.47"/>
<polygon fill="black" stroke="black" points="4786.89,-2531.32 4783.39,-2521.32 4779.89,-2531.32 4786.89,-2531.32"/>
</g>
<!-- u31 -->
<g id="node38" class="node">
<title>u31</title>
<ellipse fill="#77ff77" stroke="black" cx="5227.39" cy="-2503" rx="206.06" ry="18"/>
<text text-anchor="middle" x="5227.39" y="-2499.3" font-family="Times,serif" font-size="14.00">Language.Drasil.Code.Imperative.Helpers</text>
</g>
<!-- u42&#45;&gt;u31 -->
<g id="edge67" class="edge">
<title>u42&#45;&gt;u31</title>
<path fill="none" stroke="black" d="M4814.26,-2729.18C4892.8,-2686.37 5100.18,-2573.34 5187.61,-2525.68"/>
<polygon fill="black" stroke="black" points="5189.33,-2528.73 5196.44,-2520.87 5185.98,-2522.59 5189.33,-2528.73"/>
</g>
<!-- u30 -->
<g id="node39" class="node">
<title>u30</title>
<ellipse fill="#77ff77" stroke="black" cx="3797.39" cy="-2503" rx="240.46" ry="18"/>
<text text-anchor="middle" x="3797.39" y="-2499.3" font-family="Times,serif" font-size="14.00">Language.Drasil.Code.Imperative.GenerateGOOL</text>
</g>
<!-- u42&#45;&gt;u30 -->
<g id="edge66" class="edge">
<title>u42&#45;&gt;u30</title>
<path fill="none" stroke="black" d="M4717.94,-2729.93C4542.37,-2686.84 4061.63,-2568.85 3873.92,-2522.78"/>
<polygon fill="black" stroke="black" points="3874.67,-2519.36 3864.12,-2520.38 3873,-2526.16 3874.67,-2519.36"/>
</g>
<!-- u41 -->
<g id="node31" class="node">
<title>u41</title>
<ellipse fill="#77ff77" stroke="black" cx="5579.39" cy="-3235" rx="209.06" ry="18"/>
<text text-anchor="middle" x="5579.39" y="-3231.3" font-family="Times,serif" font-size="14.00">Language.Drasil.Code.Imperative.Modules</text>
</g>
<!-- u40 -->
<g id="node32" class="node">
<title>u40</title>
<ellipse fill="#77ff77" stroke="black" cx="4481.39" cy="-2991" rx="228.26" ry="18"/>
<text text-anchor="middle" x="4481.39" y="-2987.3" font-family="Times,serif" font-size="14.00">Language.Drasil.Code.Imperative.Descriptions</text>
</g>
<!-- u41&#45;&gt;u40 -->
<g id="edge65" class="edge">
<title>u41&#45;&gt;u40</title>
<path fill="none" stroke="black" d="M5506.93,-3218.03C5311.03,-3174.85 4771.77,-3056 4564.27,-3010.27"/>
<polygon fill="black" stroke="black" points="4564.86,-3006.81 4554.34,-3008.08 4563.35,-3013.65 4564.86,-3006.81"/>
</g>
<!-- u19 -->
<g id="node43" class="node">
<title>u19</title>
<ellipse fill="#77ff77" stroke="black" cx="5338.39" cy="-2991" rx="233.16" ry="18"/>
<text text-anchor="middle" x="5338.39" y="-2987.3" font-family="Times,serif" font-size="14.00">Language.Drasil.Code.Imperative.FunctionCalls</text>
</g>
<!-- u41&#45;&gt;u19 -->
<g id="edge64" class="edge">
<title>u41&#45;&gt;u19</title>
<path fill="none" stroke="black" d="M5562.45,-3216.98C5520.45,-3174.81 5411.41,-3065.32 5362.62,-3016.32"/>
<polygon fill="black" stroke="black" points="5364.86,-3013.61 5355.32,-3009 5359.9,-3018.55 5364.86,-3013.61"/>
</g>
<!-- u40&#45;&gt;u27 -->
<g id="edge63" class="edge">
<title>u40&#45;&gt;u27</title>
<path fill="none" stroke="black" d="M4451.83,-2973.04C4344.27,-2909.18 3987.04,-2677.15 4122.39,-2485 4222.1,-2343.45 4418.98,-2290.08 4566.63,-2270.21"/>
<polygon fill="black" stroke="black" points="4567.27,-2273.66 4576.73,-2268.9 4566.36,-2266.72 4567.27,-2273.66"/>
</g>
<!-- u38 -->
<g id="node33" class="node">
<title>u38</title>
<ellipse fill="#77ff77" stroke="black" cx="4390.39" cy="-2014" rx="209.86" ry="18"/>
<text text-anchor="middle" x="4390.39" y="-2010.3" font-family="Times,serif" font-size="14.00">Language.Drasil.Code.Imperative.GenODE</text>
</g>
<!-- u38&#45;&gt;u7 -->
<g id="edge59" class="edge">
<title>u38&#45;&gt;u7</title>
<path fill="none" stroke="black" d="M4374.01,-1995.98C4333.4,-1953.81 4227.99,-1844.32 4180.81,-1795.32"/>
<polygon fill="black" stroke="black" points="4183.22,-1792.77 4173.76,-1788 4178.18,-1797.63 4183.22,-1792.77"/>
</g>
<!-- u38&#45;&gt;u14 -->
<g id="edge60" class="edge">
<title>u38&#45;&gt;u14</title>
<path fill="none" stroke="black" d="M4388.21,-1995.74C4383.49,-1952.75 4375.33,-1838.19 4409.39,-1752 4443.14,-1666.62 4521.43,-1588.5 4563.49,-1550.77"/>
<polygon fill="black" stroke="black" points="4565.98,-1553.23 4571.15,-1543.98 4561.34,-1547.99 4565.98,-1553.23"/>
</g>
<!-- u38&#45;&gt;u17 -->
<g id="edge61" class="edge">
<title>u38&#45;&gt;u17</title>
<path fill="none" stroke="black" d="M4350.62,-1996.21C4278.39,-1964.21 4123.78,-1888.62 4022.39,-1788 3867.45,-1634.21 3754.24,-1389.93 3719.53,-1309.58"/>
<polygon fill="black" stroke="black" points="3722.67,-1308 3715.51,-1300.19 3716.23,-1310.76 3722.67,-1308"/>
</g>
<!-- u37 -->
<g id="node34" class="node">
<title>u37</title>
<ellipse fill="#77ff77" stroke="black" cx="5816.39" cy="-2991" rx="226.66" ry="18"/>
<text text-anchor="middle" x="5816.39" y="-2987.3" font-family="Times,serif" font-size="14.00">Language.Drasil.Code.Imperative.SpaceMatch</text>
</g>
<!-- u37&#45;&gt;u27 -->
<g id="edge58" class="edge">
<title>u37&#45;&gt;u27</title>
<path fill="none" stroke="black" d="M5827.13,-2972.75C5869.21,-2902.75 6014.62,-2636.38 5890.39,-2485 5773.42,-2342.47 5241.08,-2288.17 4948.5,-2268.83"/>
<polygon fill="black" stroke="black" points="4948.4,-2265.32 4938.19,-2268.16 4947.94,-2272.3 4948.4,-2265.32"/>
</g>
<!-- u36 -->
<g id="node35" class="node">
<title>u36</title>
<ellipse fill="#77ff77" stroke="black" cx="3344.39" cy="-1526" rx="219.86" ry="18"/>
<text text-anchor="middle" x="3344.39" y="-1522.3" font-family="Times,serif" font-size="14.00">Language.Drasil.Code.Imperative.WriteInput</text>
</g>
<!-- u36&#45;&gt;u45 -->
<g id="edge57" class="edge">
<title>u36&#45;&gt;u45</title>
<path fill="none" stroke="black" d="M3340.5,-1507.92C3322.43,-1425.86 3249.88,-1064.33 3305.39,-776 3319.9,-700.66 3356.7,-617.34 3376.43,-576.1"/>
<polygon fill="black" stroke="black" points="3379.62,-577.54 3380.83,-567.01 3373.32,-574.49 3379.62,-577.54"/>
</g>
<!-- u33 -->
<g id="node36" class="node">
<title>u33</title>
<ellipse fill="#77ff77" stroke="black" cx="3911.39" cy="-2014" rx="213.36" ry="18"/>
<text text-anchor="middle" x="3911.39" y="-2010.3" font-family="Times,serif" font-size="14.00">Language.Drasil.Code.Imperative.README</text>
</g>
<!-- u33&#45;&gt;u7 -->
<g id="edge54" class="edge">
<title>u33&#45;&gt;u7</title>
<path fill="none" stroke="black" d="M3928.69,-1995.98C3971.65,-1953.72 4083.32,-1843.87 4132.98,-1795.02"/>
<polygon fill="black" stroke="black" points="4135.44,-1797.51 4140.12,-1788 4130.53,-1792.52 4135.44,-1797.51"/>
</g>
<!-- u32&#45;&gt;u27 -->
<g id="edge53" class="edge">
<title>u32&#45;&gt;u27</title>
<path fill="none" stroke="black" d="M4781.36,-2484.91C4776.39,-2443.35 4763.66,-2336.67 4757.64,-2286.22"/>
<polygon fill="black" stroke="black" points="4761.09,-2285.58 4756.43,-2276.07 4754.14,-2286.41 4761.09,-2285.58"/>
</g>
<!-- u31&#45;&gt;u27 -->
<g id="edge52" class="edge">
<title>u31&#45;&gt;u27</title>
<path fill="none" stroke="black" d="M5194.51,-2485.11C5110.76,-2442.08 4889.48,-2328.4 4796.49,-2280.63"/>
<polygon fill="black" stroke="black" points="4797.87,-2277.4 4787.38,-2275.94 4794.67,-2283.63 4797.87,-2277.4"/>
</g>
<!-- u30&#45;&gt;u27 -->
<g id="edge51" class="edge">
<title>u30&#45;&gt;u27</title>
<path fill="none" stroke="black" d="M3862.05,-2485.58C4033.46,-2442.06 4498.84,-2323.89 4680.42,-2277.78"/>
<polygon fill="black" stroke="black" points="4681.32,-2281.17 4690.15,-2275.31 4679.6,-2274.38 4681.32,-2281.17"/>
</g>
<!-- u4 -->
<g id="node58" class="node">
<title>u4</title>
<ellipse fill="#ff77ff" stroke="black" cx="3529.39" cy="-2258" rx="266.45" ry="18"/>
<text text-anchor="middle" x="3529.39" y="-2254.3" font-family="Times,serif" font-size="14.00">Language.Drasil.SoftwareDossier.SoftwareDossierSym</text>
</g>
<!-- u30&#45;&gt;u4 -->
<g id="edge50" class="edge">
<title>u30&#45;&gt;u4</title>
<path fill="none" stroke="black" d="M3778.55,-2484.91C3731.65,-2442.39 3609.59,-2331.71 3555.66,-2282.82"/>
<polygon fill="black" stroke="black" points="3557.98,-2280.19 3548.22,-2276.07 3553.28,-2285.38 3557.98,-2280.19"/>
</g>
<!-- u29&#45;&gt;u47 -->
<g id="edge49" class="edge">
<title>u29&#45;&gt;u47</title>
<path fill="none" stroke="black" d="M5551.06,-3460.98C5479.72,-3418.15 5292.76,-3305.88 5213.15,-3258.07"/>
<polygon fill="black" stroke="black" points="5214.81,-3254.98 5204.43,-3252.84 5211.2,-3260.99 5214.81,-3254.98"/>
</g>
<!-- u29&#45;&gt;u41 -->
<g id="edge48" class="edge">
<title>u29&#45;&gt;u41</title>
<path fill="none" stroke="black" d="M5579.39,-3460.98C5579.39,-3419.69 5579.39,-3313.86 5579.39,-3263.47"/>
<polygon fill="black" stroke="black" points="5582.89,-3263.32 5579.39,-3253.32 5575.89,-3263.32 5582.89,-3263.32"/>
</g>
<!-- u29&#45;&gt;u38 -->
<g id="edge47" class="edge">
<title>u29&#45;&gt;u38</title>
<path fill="none" stroke="black" d="M5620.92,-3461.17C5739.53,-3410.04 6071.39,-3244.43 6071.39,-2992 6071.39,-2992 6071.39,-2992 6071.39,-2502 6071.39,-2187.89 4974.88,-2063.49 4553.05,-2027.26"/>
<polygon fill="black" stroke="black" points="4553.17,-2023.76 4542.91,-2026.39 4552.58,-2030.73 4553.17,-2023.76"/>
</g>
<!-- u29&#45;&gt;u37 -->
<g id="edge46" class="edge">
<title>u29&#45;&gt;u37</title>
<path fill="none" stroke="black" d="M5605.08,-3460.97C5652.9,-3427.63 5754.59,-3348.55 5797.39,-3253 5832.7,-3174.17 5826.05,-3068.47 5820.28,-3019.3"/>
<polygon fill="black" stroke="black" points="5823.73,-3018.63 5819.01,-3009.14 5816.78,-3019.5 5823.73,-3018.63"/>
</g>
<!-- u28&#45;&gt;u45 -->
<g id="edge45" class="edge">
<title>u28&#45;&gt;u45</title>
<path fill="none" stroke="black" d="M1832.07,-1264.18C2043.93,-1167.03 3109.99,-678.13 3343.96,-570.84"/>
<polygon fill="black" stroke="black" points="3345.57,-573.95 3353.2,-566.6 3342.65,-567.59 3345.57,-573.95"/>
</g>
<!-- u27&#45;&gt;u6 -->
<g id="edge43" class="edge">
<title>u27&#45;&gt;u6</title>
<path fill="none" stroke="black" d="M4754.39,-2239.98C4754.39,-2198.69 4754.39,-2092.86 4754.39,-2042.47"/>
<polygon fill="black" stroke="black" points="4757.89,-2042.32 4754.39,-2032.32 4750.89,-2042.32 4757.89,-2042.32"/>
</g>
<!-- u27&#45;&gt;u17 -->
<g id="edge44" class="edge">
<title>u27&#45;&gt;u17</title>
<path fill="none" stroke="black" d="M4584.43,-2246.39C4312.82,-2225.51 3800.16,-2168.61 3689.39,-2032 3508.85,-1809.32 3653.25,-1414.93 3696.91,-1309.52"/>
<polygon fill="black" stroke="black" points="3700.17,-1310.81 3700.81,-1300.24 3693.71,-1308.1 3700.17,-1310.81"/>
</g>
<!-- u19&#45;&gt;u42 -->
<g id="edge34" class="edge">
<title>u19&#45;&gt;u42</title>
<path fill="none" stroke="black" d="M5299.81,-2973.18C5201.02,-2930.1 4939.16,-2815.92 4831.08,-2768.79"/>
<polygon fill="black" stroke="black" points="4832.29,-2765.5 4821.72,-2764.71 4829.49,-2771.92 4832.29,-2765.5"/>
</g>
<!-- u18 -->
<g id="node44" class="node">
<title>u18</title>
<ellipse fill="#77ff77" stroke="black" cx="5655.39" cy="-2747" rx="223.66" ry="18"/>
<text text-anchor="middle" x="5655.39" y="-2743.3" font-family="Times,serif" font-size="14.00">Language.Drasil.Code.Imperative.Parameters</text>
</g>
<!-- u19&#45;&gt;u18 -->
<g id="edge33" class="edge">
<title>u19&#45;&gt;u18</title>
<path fill="none" stroke="black" d="M5360.69,-2972.98C5416.39,-2930.46 5561.72,-2819.51 5625.1,-2771.13"/>
<polygon fill="black" stroke="black" points="5627.3,-2773.85 5633.13,-2765 5623.06,-2768.28 5627.3,-2773.85"/>
</g>
<!-- u18&#45;&gt;u50 -->
<g id="edge32" class="edge">
<title>u18&#45;&gt;u50</title>
<path fill="none" stroke="black" d="M5655.39,-2728.98C5655.39,-2687.69 5655.39,-2581.86 5655.39,-2531.47"/>
<polygon fill="black" stroke="black" points="5658.89,-2531.32 5655.39,-2521.32 5651.89,-2531.32 5658.89,-2531.32"/>
</g>
<!-- u18&#45;&gt;u27 -->
<g id="edge31" class="edge">
<title>u18&#45;&gt;u27</title>
<path fill="none" stroke="black" d="M5688.38,-2729.04C5765.14,-2687.45 5943.63,-2577.03 5868.39,-2485 5753.75,-2344.76 5230.7,-2289.44 4943.91,-2269.36"/>
<polygon fill="black" stroke="black" points="4944.03,-2265.86 4933.81,-2268.66 4943.55,-2272.84 4944.03,-2265.86"/>
</g>
<!-- u35 -->
<g id="node45" class="node">
<title>u35</title>
<ellipse fill="#ffff77" stroke="black" cx="3529.39" cy="-2747" rx="228.56" ry="18"/>
<text text-anchor="middle" x="3529.39" y="-2743.3" font-family="Times,serif" font-size="14.00">Language.Drasil.Code.Imperative.Build.Import</text>
</g>
<!-- u34 -->
<g id="node46" class="node">
<title>u34</title>
<ellipse fill="#ffff77" stroke="black" cx="3285.39" cy="-2503" rx="215.56" ry="18"/>
<text text-anchor="middle" x="3285.39" y="-2499.3" font-family="Times,serif" font-size="14.00">Language.Drasil.Code.Imperative.Build.AST</text>
</g>
<!-- u35&#45;&gt;u34 -->
<g id="edge56" class="edge">
<title>u35&#45;&gt;u34</title>
<path fill="none" stroke="black" d="M3512.24,-2728.98C3469.71,-2686.81 3359.32,-2577.32 3309.92,-2528.32"/>
<polygon fill="black" stroke="black" points="3312.1,-2525.56 3302.53,-2521 3307.17,-2530.53 3312.1,-2525.56"/>
</g>
<!-- u35&#45;&gt;u4 -->
<g id="edge55" class="edge">
<title>u35&#45;&gt;u4</title>
<path fill="none" stroke="black" d="M3529.39,-2728.95C3529.39,-2656.71 3529.39,-2375.47 3529.39,-2286.29"/>
<polygon fill="black" stroke="black" points="3532.89,-2286.16 3529.39,-2276.16 3525.89,-2286.16 3532.89,-2286.16"/>
</g>
<!-- u39 -->
<g id="node47" class="node">
<title>u39</title>
<ellipse fill="#7777ff" stroke="black" cx="3037.39" cy="-2747" rx="245.06" ry="18"/>
<text text-anchor="middle" x="3037.39" y="-2743.3" font-family="Times,serif" font-size="14.00">Language.Drasil.Code.Imperative.Doxygen.Import</text>
</g>
<!-- u39&#45;&gt;u4 -->
<g id="edge62" class="edge">
<title>u39&#45;&gt;u4</title>
<path fill="none" stroke="black" d="M3033.59,-2728.84C3024.69,-2684.11 3007.11,-2562.08 3060.39,-2485 3145.95,-2361.23 3318.57,-2302.86 3428.83,-2277.17"/>
<polygon fill="black" stroke="black" points="3429.67,-2280.57 3438.64,-2274.94 3428.11,-2273.75 3429.67,-2280.57"/>
</g>
<!-- u23 -->
<g id="node51" class="node">
<title>u23</title>
<ellipse fill="#ff7777" stroke="black" cx="3094.39" cy="-2991" rx="393.73" ry="18"/>
<text text-anchor="middle" x="3094.39" y="-2987.3" font-family="Times,serif" font-size="14.00">Language.Drasil.Code.Imperative.GOOL.LanguageRenderer.LanguagePolymorphic</text>
</g>
<!-- u26&#45;&gt;u23 -->
<g id="edge42" class="edge">
<title>u26&#45;&gt;u23</title>
<path fill="none" stroke="black" d="M1076.43,-3218.4C1462.09,-3175.13 2543.13,-3053.85 2943.1,-3008.97"/>
<polygon fill="black" stroke="black" points="2943.74,-3012.42 2953.29,-3007.83 2942.96,-3005.47 2943.74,-3012.42"/>
</g>
<!-- u25&#45;&gt;u23 -->
<g id="edge41" class="edge">
<title>u25&#45;&gt;u23</title>
<path fill="none" stroke="black" d="M1764.73,-3217.65C2021.09,-3174.15 2718.67,-3055.76 2987.12,-3010.2"/>
<polygon fill="black" stroke="black" points="2987.99,-3013.61 2997.26,-3008.48 2986.82,-3006.71 2987.99,-3013.61"/>
</g>
<!-- u24&#45;&gt;u23 -->
<g id="edge40" class="edge">
<title>u24&#45;&gt;u23</title>
<path fill="none" stroke="black" d="M2457.29,-3217.08C2579.76,-3173.81 2904.03,-3059.25 3036.64,-3012.4"/>
<polygon fill="black" stroke="black" points="3037.96,-3015.65 3046.23,-3009.02 3035.63,-3009.05 3037.96,-3015.65"/>
</g>
<!-- u23&#45;&gt;u35 -->
<g id="edge38" class="edge">
<title>u23&#45;&gt;u35</title>
<path fill="none" stroke="black" d="M3124.98,-2972.98C3202.04,-2930.11 3404.12,-2817.7 3489.93,-2769.95"/>
<polygon fill="black" stroke="black" points="3491.8,-2772.92 3498.84,-2765 3488.4,-2766.8 3491.8,-2772.92"/>
</g>
<!-- u23&#45;&gt;u39 -->
<g id="edge39" class="edge">
<title>u23&#45;&gt;u39</title>
<path fill="none" stroke="black" d="M3090.39,-2972.98C3080.62,-2931.5 3055.51,-2824.9 3043.7,-2774.79"/>
<polygon fill="black" stroke="black" points="3047.1,-2773.93 3041.4,-2765 3040.28,-2775.53 3047.1,-2773.93"/>
</g>
<!-- u22&#45;&gt;u23 -->
<g id="edge37" class="edge">
<title>u22&#45;&gt;u23</title>
<path fill="none" stroke="black" d="M3147.39,-3216.98C3137.64,-3175.6 3112.63,-3069.42 3100.79,-3019.16"/>
<polygon fill="black" stroke="black" points="3104.17,-3018.25 3098.47,-3009.32 3097.36,-3019.86 3104.17,-3018.25"/>
</g>
<!-- u21&#45;&gt;u23 -->
<g id="edge36" class="edge">
<title>u21&#45;&gt;u23</title>
<path fill="none" stroke="black" d="M3822.96,-3217.18C3682.63,-3173.81 3309.09,-3058.36 3158.58,-3011.84"/>
<polygon fill="black" stroke="black" points="3159.58,-3008.48 3148.99,-3008.87 3157.51,-3015.17 3159.58,-3008.48"/>
</g>
<!-- u20&#45;&gt;u23 -->
<g id="edge35" class="edge">
<title>u20&#45;&gt;u23</title>
<path fill="none" stroke="black" d="M4512.94,-3217.7C4239.33,-3174.17 3492.99,-3055.42 3207.51,-3010"/>
<polygon fill="black" stroke="black" points="3207.98,-3006.53 3197.55,-3008.41 3206.88,-3013.44 3207.98,-3006.53"/>
</g>
<!-- u2&#45;&gt;u49 -->
<g id="edge6" class="edge">
<title>u2&#45;&gt;u49</title>
<path fill="none" stroke="black" d="M4113.84,-1264.56C4000.12,-1221.62 3694.48,-1106.23 3570.13,-1059.29"/>
<polygon fill="black" stroke="black" points="3571.02,-1055.88 3560.43,-1055.63 3568.55,-1062.43 3571.02,-1055.88"/>
</g>
<!-- u2&#45;&gt;u48 -->
<g id="edge5" class="edge">
<title>u2&#45;&gt;u48</title>
<path fill="none" stroke="black" d="M4141.57,-1263.98C4102.36,-1221.81 4000.56,-1112.32 3955.01,-1063.32"/>
<polygon fill="black" stroke="black" points="3957.57,-1060.94 3948.2,-1056 3952.44,-1065.71 3957.57,-1060.94"/>
</g>
<!-- u2&#45;&gt;u46 -->
<g id="edge4" class="edge">
<title>u2&#45;&gt;u46</title>
<path fill="none" stroke="black" d="M4166.04,-1263.98C4187.22,-1222.33 4241.76,-1115.01 4267.1,-1065.16"/>
<polygon fill="black" stroke="black" points="4270.34,-1066.5 4271.75,-1056 4264.1,-1063.33 4270.34,-1066.5"/>
</g>
<!-- u2&#45;&gt;u1 -->
<g id="edge3" class="edge">
<title>u2&#45;&gt;u1</title>
<path fill="none" stroke="black" d="M4187.57,-1264.18C4264.35,-1221.36 4467.12,-1108.3 4552.56,-1060.65"/>
<polygon fill="black" stroke="black" points="4554.39,-1063.64 4561.42,-1055.71 4550.98,-1057.53 4554.39,-1063.64"/>
</g>
<!-- u1&#45;&gt;u10 -->
<g id="edge2" class="edge">
<title>u1&#45;&gt;u10</title>
<path fill="none" stroke="black" d="M4574.1,-1020.01C4475.78,-923.4 3987.56,-443.72 3871.96,-330.14"/>
<polygon fill="black" stroke="black" points="3874.18,-327.41 3864.6,-322.9 3869.28,-332.41 3874.18,-327.41"/>
</g>
<!-- u5 -->
<g id="node57" class="node">
<title>u5</title>
<ellipse fill="#ff77ff" stroke="black" cx="3283.39" cy="-2014" rx="218.26" ry="18"/>
<text text-anchor="middle" x="3283.39" y="-2010.3" font-family="Times,serif" font-size="14.00">Language.Drasil.SoftwareDossier.FileNames</text>
</g>
<!-- u4&#45;&gt;u36 -->
<g id="edge11" class="edge">
<title>u4&#45;&gt;u36</title>
<path fill="none" stroke="black" d="M3529.72,-2239.99C3530.17,-2198.04 3529.34,-2086.49 3510.39,-1996 3473.95,-1821.95 3388.76,-1624.52 3356.8,-1553.88"/>
<polygon fill="black" stroke="black" points="3359.81,-1552.05 3352.49,-1544.4 3353.44,-1554.95 3359.81,-1552.05"/>
</g>
<!-- u4&#45;&gt;u33 -->
<g id="edge10" class="edge">
<title>u4&#45;&gt;u33</title>
<path fill="none" stroke="black" d="M3556.26,-2239.98C3623.65,-2197.29 3799.94,-2085.6 3875.82,-2037.54"/>
<polygon fill="black" stroke="black" points="3877.99,-2040.31 3884.56,-2032 3874.24,-2034.39 3877.99,-2040.31"/>
</g>
<!-- u4&#45;&gt;u5 -->
<g id="edge9" class="edge">
<title>u4&#45;&gt;u5</title>
<path fill="none" stroke="black" d="M3512.1,-2239.98C3469.13,-2197.72 3357.47,-2087.87 3307.81,-2039.02"/>
<polygon fill="black" stroke="black" points="3310.26,-2036.52 3300.67,-2032 3305.35,-2041.51 3310.26,-2036.52"/>
</g>
<!-- u58 -->
<g id="node59" class="node">
<title>u58</title>
<ellipse fill="#33ff33" stroke="black" cx="503.39" cy="-3968" rx="108.58" ry="18"/>
<text text-anchor="middle" x="503.39" y="-3964.3" font-family="Times,serif" font-size="14.00">drasil&#45;code.test.Main</text>
</g>
<!-- u58&#45;&gt;u57 -->
<g id="edge87" class="edge">
<title>u58&#45;&gt;u57</title>
<path fill="none" stroke="black" d="M473.77,-3950.68C395.7,-3907.66 184.44,-3791.25 99,-3744.17"/>
<polygon fill="black" stroke="black" points="100.62,-3741.07 90.17,-3739.31 97.24,-3747.2 100.62,-3741.07"/>
</g>
<!-- u58&#45;&gt;u55 -->
<g id="edge86" class="edge">
<title>u58&#45;&gt;u55</title>
<path fill="none" stroke="black" d="M482.71,-3950.3C429.93,-3907.69 290.27,-3794.94 230.34,-3746.56"/>
<polygon fill="black" stroke="black" points="232.41,-3743.74 222.44,-3740.18 228.02,-3749.18 232.41,-3743.74"/>
</g>
<!-- u58&#45;&gt;u52 -->
<g id="edge84" class="edge">
<title>u58&#45;&gt;u52</title>
<path fill="none" stroke="black" d="M493.06,-3949.91C467.65,-3907.91 402.02,-3799.43 371.91,-3749.65"/>
<polygon fill="black" stroke="black" points="374.89,-3747.81 366.72,-3741.07 368.9,-3751.44 374.89,-3747.81"/>
</g>
<!-- u58&#45;&gt;u51 -->
<g id="edge83" class="edge">
<title>u58&#45;&gt;u51</title>
<path fill="none" stroke="black" d="M503.39,-3949.91C503.39,-3908.35 503.39,-3801.67 503.39,-3751.22"/>
<polygon fill="black" stroke="black" points="506.89,-3751.07 503.39,-3741.07 499.89,-3751.07 506.89,-3751.07"/>
</g>
<!-- u58&#45;&gt;u54 -->
<g id="edge85" class="edge">
<title>u58&#45;&gt;u54</title>
<path fill="none" stroke="black" d="M515.07,-3949.91C543.82,-3907.82 618.18,-3798.98 652.08,-3749.34"/>
<polygon fill="black" stroke="black" points="654.98,-3751.3 657.73,-3741.07 649.2,-3747.35 654.98,-3751.3"/>
</g>
<!-- u58&#45;&gt;u8 -->
<g id="edge82" class="edge">
<title>u58&#45;&gt;u8</title>
<path fill="none" stroke="black" d="M566.97,-3953.4C890.76,-3884.15 2354.81,-3571.02 2704.98,-3496.13"/>
<polygon fill="black" stroke="black" points="2705.97,-3499.5 2715.02,-3493.98 2704.51,-3492.65 2705.97,-3499.5"/>
</g>
<!-- u58&#45;&gt;u3 -->
<g id="edge81" class="edge">
<title>u58&#45;&gt;u3</title>
<path fill="none" stroke="black" d="M530.1,-3950.49C598.99,-3907.89 782.78,-3794.25 860.69,-3746.08"/>
<polygon fill="black" stroke="black" points="862.99,-3748.77 869.65,-3740.53 859.31,-3742.82 862.99,-3748.77"/>
</g>
</g>
</svg>
