<?xml version="1.0" encoding="UTF-8" standalone="no"?>
<!DOCTYPE svg PUBLIC "-//W3C//DTD SVG 1.1//EN"
 "http://www.w3.org/Graphics/SVG/1.1/DTD/svg11.dtd">
<!-- Generated by graphviz version 2.43.0 (0)
 -->
<!-- Title: G Pages: 1 -->
<svg width="431pt" height="288pt"
 viewBox="0.00 0.00 431.41 288.00" xmlns="http://www.w3.org/2000/svg" xmlns:xlink="http://www.w3.org/1999/xlink">
<g id="graph0" class="graph" transform="scale(0.16 0.16) rotate(0) translate(4 1835.33)">
<title>G</title>
<polygon fill="white" stroke="transparent" points="-4,4 -4,-1835.33 2751.22,-1835.33 2751.22,4 -4,4"/>
<!-- u9 -->
<g id="node1" class="node">
<title>u9</title>
<ellipse fill="#bbffbb" stroke="black" cx="1012.48" cy="-1792" rx="128.08" ry="18"/>
<text text-anchor="middle" x="1012.48" y="-1788.3" font-family="Times,serif" font-size="14.00">Language.Drasil.Printers</text>
</g>
<!-- u25 -->
<g id="node3" class="node">
<title>u25</title>
<ellipse fill="#ffffbb" stroke="black" cx="2361.48" cy="-836" rx="146.47" ry="18"/>
<text text-anchor="middle" x="2361.48" y="-832.3" font-family="Times,serif" font-size="14.00">Language.Drasil.Debug.Print</text>
</g>
<!-- u9&#45;&gt;u25 -->
<g id="edge15" class="edge">
<title>u9&#45;&gt;u25</title>
<path fill="none" stroke="black" d="M1125.72,-1783.54C1412.99,-1761.53 2147.48,-1684.66 2147.48,-1474 2147.48,-1474 2147.48,-1474 2147.48,-1154 2147.48,-1024.31 2272.05,-907.99 2331.11,-860.13"/>
<polygon fill="black" stroke="black" points="2333.36,-862.81 2338.99,-853.84 2328.99,-857.35 2333.36,-862.81"/>
</g>
<!-- u31 -->
<g id="node8" class="node">
<title>u31</title>
<ellipse fill="#ffbbbb" stroke="black" cx="820.48" cy="-1473" rx="140.28" ry="18"/>
<text text-anchor="middle" x="820.48" y="-1469.3" font-family="Times,serif" font-size="14.00">Language.Drasil.JSON.Print</text>
</g>
<!-- u9&#45;&gt;u31 -->
<g id="edge16" class="edge">
<title>u9&#45;&gt;u31</title>
<path fill="none" stroke="black" d="M996.68,-1773.74C973.74,-1748.11 930.75,-1697.83 901.48,-1650 870.8,-1599.86 844.27,-1536.16 830.51,-1500.78"/>
<polygon fill="black" stroke="black" points="833.67,-1499.25 826.82,-1491.17 827.14,-1501.76 833.67,-1499.25"/>
</g>
<!-- u2 -->
<g id="node11" class="node">
<title>u2</title>
<ellipse fill="#bbffff" stroke="black" cx="188.48" cy="-1314" rx="188.47" ry="18"/>
<text text-anchor="middle" x="188.48" y="-1310.3" font-family="Times,serif" font-size="14.00">Language.Drasil.Markdown.CreateMd</text>
</g>
<!-- u9&#45;&gt;u2 -->
<g id="edge14" class="edge">
<title>u9&#45;&gt;u2</title>
<path fill="none" stroke="black" d="M983.64,-1774.34C859.19,-1702.45 368.12,-1418.77 226.75,-1337.1"/>
<polygon fill="black" stroke="black" points="228.36,-1333.99 217.95,-1332.02 224.86,-1340.05 228.36,-1333.99"/>
</g>
<!-- u0 -->
<g id="node13" class="node">
<title>u0</title>
<ellipse fill="#bbffff" stroke="black" cx="1082.48" cy="-1632" rx="171.67" ry="18"/>
<text text-anchor="middle" x="1082.48" y="-1628.3" font-family="Times,serif" font-size="14.00">Language.Drasil.Markdown.Config</text>
</g>
<!-- u9&#45;&gt;u0 -->
<g id="edge13" class="edge">
<title>u9&#45;&gt;u0</title>
<path fill="none" stroke="black" d="M1020.11,-1773.79C1032.31,-1746.25 1056.32,-1692.06 1070.73,-1659.53"/>
<polygon fill="black" stroke="black" points="1074.02,-1660.75 1074.87,-1650.19 1067.62,-1657.91 1074.02,-1660.75"/>
</g>
<!-- u8 -->
<g id="node2" class="node">
<title>u8</title>
<ellipse fill="#bbffbb" stroke="black" cx="1181.48" cy="-677" rx="119.68" ry="18"/>
<text text-anchor="middle" x="1181.48" y="-673.3" font-family="Times,serif" font-size="14.00">Language.Drasil.Config</text>
</g>
<!-- u32 -->
<g id="node14" class="node">
<title>u32</title>
<ellipse fill="#ffbbff" stroke="black" cx="2607.48" cy="-518" rx="139.98" ry="18"/>
<text text-anchor="middle" x="2607.48" y="-514.3" font-family="Times,serif" font-size="14.00">Language.Drasil.Plain.Print</text>
</g>
<!-- u25&#45;&gt;u32 -->
<g id="edge40" class="edge">
<title>u25&#45;&gt;u32</title>
<path fill="none" stroke="black" d="M2374.71,-818.01C2415.5,-765.61 2539.53,-606.28 2587.89,-544.17"/>
<polygon fill="black" stroke="black" points="2590.81,-546.11 2594.19,-536.07 2585.29,-541.81 2590.81,-546.11"/>
</g>
<!-- u19 -->
<g id="node26" class="node">
<title>u19</title>
<ellipse fill="#ffff77" stroke="black" cx="2233.48" cy="-677" rx="207.96" ry="18"/>
<text text-anchor="middle" x="2233.48" y="-673.3" font-family="Times,serif" font-size="14.00">Language.Drasil.Printing.Import.Sentence</text>
</g>
<!-- u25&#45;&gt;u19 -->
<g id="edge39" class="edge">
<title>u25&#45;&gt;u19</title>
<path fill="none" stroke="black" d="M2347.54,-817.9C2324.94,-790.18 2280.19,-735.29 2253.97,-703.12"/>
<polygon fill="black" stroke="black" points="2256.44,-700.62 2247.41,-695.08 2251.01,-705.04 2256.44,-700.62"/>
</g>
<!-- u7 -->
<g id="node4" class="node">
<title>u7</title>
<ellipse fill="#bbbbff" stroke="black" cx="572.48" cy="-1155" rx="140.28" ry="18"/>
<text text-anchor="middle" x="572.48" y="-1151.3" font-family="Times,serif" font-size="14.00">Language.Drasil.HTML.CSS</text>
</g>
<!-- u6 -->
<g id="node5" class="node">
<title>u6</title>
<ellipse fill="#bbbbff" stroke="black" cx="975.48" cy="-1314" rx="144.87" ry="18"/>
<text text-anchor="middle" x="975.48" y="-1310.3" font-family="Times,serif" font-size="14.00">Language.Drasil.HTML.Print</text>
</g>
<!-- u6&#45;&gt;u7 -->
<g id="edge11" class="edge">
<title>u6&#45;&gt;u7</title>
<path fill="none" stroke="black" d="M933.5,-1296.64C859.01,-1267.62 704.02,-1207.25 623.51,-1175.88"/>
<polygon fill="black" stroke="black" points="624.66,-1172.57 614.07,-1172.2 622.12,-1179.09 624.66,-1172.57"/>
</g>
<!-- u5 -->
<g id="node6" class="node">
<title>u5</title>
<ellipse fill="#bbbbff" stroke="black" cx="884.48" cy="-1155" rx="153.27" ry="18"/>
<text text-anchor="middle" x="884.48" y="-1151.3" font-family="Times,serif" font-size="14.00">Language.Drasil.HTML.Monad</text>
</g>
<!-- u6&#45;&gt;u5 -->
<g id="edge10" class="edge">
<title>u6&#45;&gt;u5</title>
<path fill="none" stroke="black" d="M965.57,-1295.9C949.64,-1268.41 918.23,-1214.22 899.52,-1181.95"/>
<polygon fill="black" stroke="black" points="902.43,-1179.98 894.38,-1173.08 896.37,-1183.49 902.43,-1179.98"/>
</g>
<!-- u4 -->
<g id="node7" class="node">
<title>u4</title>
<ellipse fill="#bbbbff" stroke="black" cx="584.48" cy="-677" rx="157.87" ry="18"/>
<text text-anchor="middle" x="584.48" y="-673.3" font-family="Times,serif" font-size="14.00">Language.Drasil.HTML.Helpers</text>
</g>
<!-- u6&#45;&gt;u4 -->
<g id="edge9" class="edge">
<title>u6&#45;&gt;u4</title>
<path fill="none" stroke="black" d="M991.57,-1295.96C1019.24,-1264.48 1070.66,-1195.1 1046.48,-1137 957.48,-923.12 715,-757.58 621.73,-700.01"/>
<polygon fill="black" stroke="black" points="623.54,-697.01 613.18,-694.77 619.88,-702.98 623.54,-697.01"/>
</g>
<!-- u29 -->
<g id="node30" class="node">
<title>u29</title>
<ellipse fill="#7777ff" stroke="black" cx="1232.48" cy="-1155" rx="133.48" ry="18"/>
<text text-anchor="middle" x="1232.48" y="-1151.3" font-family="Times,serif" font-size="14.00">Language.Drasil.TeX.Print</text>
</g>
<!-- u6&#45;&gt;u29 -->
<g id="edge12" class="edge">
<title>u6&#45;&gt;u29</title>
<path fill="none" stroke="black" d="M1002.99,-1296.2C1049.75,-1267.63 1144.71,-1209.62 1196.62,-1177.91"/>
<polygon fill="black" stroke="black" points="1198.47,-1180.88 1205.18,-1172.68 1194.82,-1174.91 1198.47,-1180.88"/>
</g>
<!-- u14 -->
<g id="node16" class="node">
<title>u14</title>
<ellipse fill="#77ff77" stroke="black" cx="1333.48" cy="-40" rx="149.47" ry="18"/>
<text text-anchor="middle" x="1333.48" y="-36.3" font-family="Times,serif" font-size="14.00">Language.Drasil.Printing.AST</text>
</g>
<!-- u4&#45;&gt;u14 -->
<g id="edge8" class="edge">
<title>u4&#45;&gt;u14</title>
<path fill="none" stroke="black" d="M596.16,-658.85C618.99,-625.99 672.07,-552.73 726.48,-500 923.84,-308.75 1201.22,-125.26 1298.29,-63.18"/>
<polygon fill="black" stroke="black" points="1300.3,-66.06 1306.85,-57.73 1296.53,-60.15 1300.3,-66.06"/>
</g>
<!-- u31&#45;&gt;u6 -->
<g id="edge50" class="edge">
<title>u31&#45;&gt;u6</title>
<path fill="none" stroke="black" d="M837.37,-1454.9C864.97,-1426.94 919.85,-1371.35 951.49,-1339.31"/>
<polygon fill="black" stroke="black" points="954.09,-1341.65 958.62,-1332.08 949.1,-1336.74 954.09,-1341.65"/>
</g>
<!-- u30 -->
<g id="node9" class="node">
<title>u30</title>
<ellipse fill="#ffbbbb" stroke="black" cx="404.48" cy="-836" rx="153.27" ry="18"/>
<text text-anchor="middle" x="404.48" y="-832.3" font-family="Times,serif" font-size="14.00">Language.Drasil.JSON.Helpers</text>
</g>
<!-- u31&#45;&gt;u30 -->
<g id="edge51" class="edge">
<title>u31&#45;&gt;u30</title>
<path fill="none" stroke="black" d="M780.03,-1455.7C696,-1419.4 503.72,-1323.1 423.48,-1173 368.64,-1070.41 387.62,-924.15 398.76,-864.21"/>
<polygon fill="black" stroke="black" points="402.26,-864.53 400.73,-854.05 395.39,-863.2 402.26,-864.53"/>
</g>
<!-- u30&#45;&gt;u4 -->
<g id="edge48" class="edge">
<title>u30&#45;&gt;u4</title>
<path fill="none" stroke="black" d="M424.09,-817.9C456.28,-789.82 520.41,-733.89 557.08,-701.9"/>
<polygon fill="black" stroke="black" points="559.67,-704.29 564.9,-695.08 555.06,-699.02 559.67,-704.29"/>
</g>
<!-- u13 -->
<g id="node17" class="node">
<title>u13</title>
<ellipse fill="#77ff77" stroke="black" cx="902.48" cy="-518" rx="167.07" ry="18"/>
<text text-anchor="middle" x="902.48" y="-514.3" font-family="Times,serif" font-size="14.00">Language.Drasil.Printing.Helpers</text>
</g>
<!-- u30&#45;&gt;u13 -->
<g id="edge49" class="edge">
<title>u30&#45;&gt;u13</title>
<path fill="none" stroke="black" d="M399.99,-817.95C392.06,-783.63 379.74,-705.51 417.48,-659 465.51,-599.83 672.12,-556.44 799.68,-534.7"/>
<polygon fill="black" stroke="black" points="800.59,-538.1 809.87,-532.98 799.42,-531.19 800.59,-538.1"/>
</g>
<!-- u3 -->
<g id="node10" class="node">
<title>u3</title>
<ellipse fill="#bbffff" stroke="black" cx="1143.48" cy="-1473" rx="165.17" ry="18"/>
<text text-anchor="middle" x="1143.48" y="-1469.3" font-family="Times,serif" font-size="14.00">Language.Drasil.Markdown.Print</text>
</g>
<!-- u3&#45;&gt;u6 -->
<g id="edge7" class="edge">
<title>u3&#45;&gt;u6</title>
<path fill="none" stroke="black" d="M1125.18,-1454.9C1095.27,-1426.94 1035.79,-1371.35 1001.49,-1339.31"/>
<polygon fill="black" stroke="black" points="1003.46,-1336.35 993.76,-1332.08 998.68,-1341.46 1003.46,-1336.35"/>
</g>
<!-- u1 -->
<g id="node12" class="node">
<title>u1</title>
<ellipse fill="#bbffff" stroke="black" cx="1450.48" cy="-836" rx="178.97" ry="18"/>
<text text-anchor="middle" x="1450.48" y="-832.3" font-family="Times,serif" font-size="14.00">Language.Drasil.Markdown.Helpers</text>
</g>
<!-- u3&#45;&gt;u1 -->
<g id="edge6" class="edge">
<title>u3&#45;&gt;u1</title>
<path fill="none" stroke="black" d="M1161.15,-1454.99C1204.63,-1412.05 1317.47,-1294.07 1374.48,-1173 1424.98,-1065.78 1442.84,-923.22 1448.33,-864.28"/>
<polygon fill="black" stroke="black" points="1451.82,-864.55 1449.22,-854.28 1444.85,-863.93 1451.82,-864.55"/>
</g>
<!-- u2&#45;&gt;u13 -->
<g id="edge5" class="edge">
<title>u2&#45;&gt;u13</title>
<path fill="none" stroke="black" d="M190.05,-1295.84C194.26,-1248.26 205.48,-1110.64 205.48,-996 205.48,-996 205.48,-996 205.48,-835 205.48,-603.95 527.12,-540.99 733.41,-524.37"/>
<polygon fill="black" stroke="black" points="733.75,-527.85 743.45,-523.59 733.21,-520.87 733.75,-527.85"/>
</g>
<!-- u1&#45;&gt;u4 -->
<g id="edge2" class="edge">
<title>u1&#45;&gt;u4</title>
<path fill="none" stroke="black" d="M1367.84,-820.02C1204.93,-790.48 843.55,-724.97 674.7,-694.35"/>
<polygon fill="black" stroke="black" points="675.3,-690.91 664.84,-692.57 674.05,-697.8 675.3,-690.91"/>
</g>
<!-- u1&#45;&gt;u13 -->
<g id="edge4" class="edge">
<title>u1&#45;&gt;u13</title>
<path fill="none" stroke="black" d="M1438.72,-817.85C1411.24,-778.18 1342.7,-681.74 1310.48,-659 1215.2,-591.74 1084.84,-554.5 997.35,-535.65"/>
<polygon fill="black" stroke="black" points="997.94,-532.2 987.43,-533.55 996.49,-539.04 997.94,-532.2"/>
</g>
<!-- u12 -->
<g id="node18" class="node">
<title>u12</title>
<ellipse fill="#77ff77" stroke="black" cx="1536.48" cy="-677" rx="178.97" ry="18"/>
<text text-anchor="middle" x="1536.48" y="-673.3" font-family="Times,serif" font-size="14.00">Language.Drasil.Printing.LayoutObj</text>
</g>
<!-- u1&#45;&gt;u12 -->
<g id="edge3" class="edge">
<title>u1&#45;&gt;u12</title>
<path fill="none" stroke="black" d="M1459.85,-817.9C1474.91,-790.41 1504.59,-736.22 1522.27,-703.95"/>
<polygon fill="black" stroke="black" points="1525.39,-705.53 1527.13,-695.08 1519.25,-702.17 1525.39,-705.53"/>
</g>
<!-- u0&#45;&gt;u3 -->
<g id="edge1" class="edge">
<title>u0&#45;&gt;u3</title>
<path fill="none" stroke="black" d="M1089.13,-1613.9C1099.72,-1586.65 1120.5,-1533.15 1133.08,-1500.79"/>
<polygon fill="black" stroke="black" points="1136.49,-1501.67 1136.85,-1491.08 1129.96,-1499.13 1136.49,-1501.67"/>
</g>
<!-- u17 -->
<g id="node28" class="node">
<title>u17</title>
<ellipse fill="#ffff77" stroke="black" cx="1977.48" cy="-358" rx="200.36" ry="18"/>
<text text-anchor="middle" x="1977.48" y="-354.3" font-family="Times,serif" font-size="14.00">Language.Drasil.Printing.Import.Symbol</text>
</g>
<!-- u32&#45;&gt;u17 -->
<g id="edge52" class="edge">
<title>u32&#45;&gt;u17</title>
<path fill="none" stroke="black" d="M2546.79,-501.78C2430.74,-472.67 2177.74,-409.22 2051.79,-377.64"/>
<polygon fill="black" stroke="black" points="2052.4,-374.18 2041.85,-375.14 2050.69,-380.97 2052.4,-374.18"/>
</g>
<!-- u15 -->
<g id="node15" class="node">
<title>u15</title>
<ellipse fill="#77ff77" stroke="black" cx="1743.48" cy="-995" rx="162.47" ry="18"/>
<text text-anchor="middle" x="1743.48" y="-991.3" font-family="Times,serif" font-size="14.00">Language.Drasil.Printing.Import</text>
</g>
<!-- u24 -->
<g id="node21" class="node">
<title>u24</title>
<ellipse fill="#ffff77" stroke="black" cx="1370.48" cy="-518" rx="187.67" ry="18"/>
<text text-anchor="middle" x="1370.48" y="-514.3" font-family="Times,serif" font-size="14.00">Language.Drasil.Printing.Import.Expr</text>
</g>
<!-- u15&#45;&gt;u24 -->
<g id="edge21" class="edge">
<title>u15&#45;&gt;u24</title>
<path fill="none" stroke="black" d="M1744.87,-976.61C1749.41,-915.32 1761.49,-710.24 1724.48,-659 1671.79,-586.04 1574.99,-551.08 1495.92,-534.35"/>
<polygon fill="black" stroke="black" points="1496.37,-530.87 1485.87,-532.3 1494.97,-537.73 1496.37,-530.87"/>
</g>
<!-- u22 -->
<g id="node23" class="node">
<title>u22</title>
<ellipse fill="#ffff77" stroke="black" cx="1984.48" cy="-836" rx="212.56" ry="18"/>
<text text-anchor="middle" x="1984.48" y="-832.3" font-family="Times,serif" font-size="14.00">Language.Drasil.Printing.Import.Document</text>
</g>
<!-- u15&#45;&gt;u22 -->
<g id="edge20" class="edge">
<title>u15&#45;&gt;u22</title>
<path fill="none" stroke="black" d="M1769.27,-977.2C1812.83,-948.83 1900.97,-891.4 1949.86,-859.55"/>
<polygon fill="black" stroke="black" points="1952.04,-862.31 1958.51,-853.92 1948.22,-856.44 1952.04,-862.31"/>
</g>
<!-- u11 -->
<g id="node19" class="node">
<title>u11</title>
<ellipse fill="#77ff77" stroke="black" cx="1154.48" cy="-358" rx="167.87" ry="18"/>
<text text-anchor="middle" x="1154.48" y="-354.3" font-family="Times,serif" font-size="14.00">Language.Drasil.Printing.Citation</text>
</g>
<!-- u13&#45;&gt;u11 -->
<g id="edge19" class="edge">
<title>u13&#45;&gt;u11</title>
<path fill="none" stroke="black" d="M929.45,-500.09C975.21,-471.4 1068.03,-413.2 1119,-381.25"/>
<polygon fill="black" stroke="black" points="1121.1,-384.06 1127.71,-375.79 1117.38,-378.13 1121.1,-384.06"/>
</g>
<!-- u12&#45;&gt;u11 -->
<g id="edge18" class="edge">
<title>u12&#45;&gt;u11</title>
<path fill="none" stroke="black" d="M1421.56,-663.11C1339.05,-647.44 1232.41,-612.75 1173.48,-536 1140.08,-492.49 1143.86,-424.24 1149.32,-386.46"/>
<polygon fill="black" stroke="black" points="1152.84,-386.64 1150.95,-376.22 1145.92,-385.54 1152.84,-386.64"/>
</g>
<!-- u11&#45;&gt;u14 -->
<g id="edge17" class="edge">
<title>u11&#45;&gt;u14</title>
<path fill="none" stroke="black" d="M1164.11,-340.01C1193.67,-287.82 1283.3,-129.59 1318.79,-66.94"/>
<polygon fill="black" stroke="black" points="1321.93,-68.5 1323.81,-58.07 1315.84,-65.05 1321.93,-68.5"/>
</g>
<!-- u10 -->
<g id="node20" class="node">
<title>u10</title>
<ellipse fill="#77ff77" stroke="black" cx="1850.48" cy="-40" rx="223.66" ry="18"/>
<text text-anchor="middle" x="1850.48" y="-36.3" font-family="Times,serif" font-size="14.00">Language.Drasil.Printing.PrintingInformation</text>
</g>
<!-- u23 -->
<g id="node22" class="node">
<title>u23</title>
<ellipse fill="#ffff77" stroke="black" cx="1563.48" cy="-358" rx="196.07" ry="18"/>
<text text-anchor="middle" x="1563.48" y="-354.3" font-family="Times,serif" font-size="14.00">Language.Drasil.Printing.Import.Literal</text>
</g>
<!-- u24&#45;&gt;u23 -->
<g id="edge38" class="edge">
<title>u24&#45;&gt;u23</title>
<path fill="none" stroke="black" d="M1391.14,-500.09C1425.73,-471.77 1495.44,-414.71 1534.78,-382.5"/>
<polygon fill="black" stroke="black" points="1537.16,-385.07 1542.69,-376.03 1532.73,-379.65 1537.16,-385.07"/>
</g>
<!-- u24&#45;&gt;u17 -->
<g id="edge37" class="edge">
<title>u24&#45;&gt;u17</title>
<path fill="none" stroke="black" d="M1432.03,-500.98C1545.04,-471.56 1785.07,-409.09 1905.46,-377.75"/>
<polygon fill="black" stroke="black" points="1906.53,-381.09 1915.32,-375.18 1904.77,-374.31 1906.53,-381.09"/>
</g>
<!-- u18 -->
<g id="node27" class="node">
<title>u18</title>
<ellipse fill="#ffff77" stroke="black" cx="1563.48" cy="-199" rx="202.26" ry="18"/>
<text text-anchor="middle" x="1563.48" y="-195.3" font-family="Times,serif" font-size="14.00">Language.Drasil.Printing.Import.Helpers</text>
</g>
<!-- u23&#45;&gt;u18 -->
<g id="edge36" class="edge">
<title>u23&#45;&gt;u18</title>
<path fill="none" stroke="black" d="M1563.48,-339.9C1563.48,-312.77 1563.48,-259.61 1563.48,-227.21"/>
<polygon fill="black" stroke="black" points="1566.98,-227.08 1563.48,-217.08 1559.98,-227.08 1566.98,-227.08"/>
</g>
<!-- u22&#45;&gt;u12 -->
<g id="edge33" class="edge">
<title>u22&#45;&gt;u12</title>
<path fill="none" stroke="black" d="M1936.96,-818.35C1853.83,-789.21 1682.38,-729.13 1593.19,-697.87"/>
<polygon fill="black" stroke="black" points="1594.11,-694.49 1583.52,-694.48 1591.8,-701.09 1594.11,-694.49"/>
</g>
<!-- u21 -->
<g id="node24" class="node">
<title>u21</title>
<ellipse fill="#ffff77" stroke="black" cx="1787.48" cy="-518" rx="211.46" ry="18"/>
<text text-anchor="middle" x="1787.48" y="-514.3" font-family="Times,serif" font-size="14.00">Language.Drasil.Printing.Import.CodeExpr</text>
</g>
<!-- u22&#45;&gt;u21 -->
<g id="edge35" class="edge">
<title>u22&#45;&gt;u21</title>
<path fill="none" stroke="black" d="M1973.89,-818.01C1941.36,-765.82 1842.71,-607.59 1803.65,-544.94"/>
<polygon fill="black" stroke="black" points="1806.39,-542.71 1798.13,-536.07 1800.45,-546.41 1806.39,-542.71"/>
</g>
<!-- u22&#45;&gt;u19 -->
<g id="edge34" class="edge">
<title>u22&#45;&gt;u19</title>
<path fill="none" stroke="black" d="M2011.6,-817.9C2056.79,-789.41 2147.47,-732.23 2197.79,-700.51"/>
<polygon fill="black" stroke="black" points="2199.8,-703.37 2206.4,-695.08 2196.07,-697.45 2199.8,-703.37"/>
</g>
<!-- u21&#45;&gt;u23 -->
<g id="edge32" class="edge">
<title>u21&#45;&gt;u23</title>
<path fill="none" stroke="black" d="M1763.51,-500.09C1723.11,-471.6 1641.44,-413.99 1595.95,-381.9"/>
<polygon fill="black" stroke="black" points="1597.81,-378.93 1587.62,-376.03 1593.78,-384.65 1597.81,-378.93"/>
</g>
<!-- u21&#45;&gt;u17 -->
<g id="edge31" class="edge">
<title>u21&#45;&gt;u17</title>
<path fill="none" stroke="black" d="M1808.18,-499.79C1842.39,-471.34 1910.78,-414.47 1949.35,-382.4"/>
<polygon fill="black" stroke="black" points="1951.65,-385.03 1957.1,-375.95 1947.17,-379.65 1951.65,-385.03"/>
</g>
<!-- u20 -->
<g id="node25" class="node">
<title>u20</title>
<ellipse fill="#ffff77" stroke="black" cx="2233.48" cy="-518" rx="216.36" ry="18"/>
<text text-anchor="middle" x="2233.48" y="-514.3" font-family="Times,serif" font-size="14.00">Language.Drasil.Printing.Import.ModelExpr</text>
</g>
<!-- u20&#45;&gt;u23 -->
<g id="edge30" class="edge">
<title>u20&#45;&gt;u23</title>
<path fill="none" stroke="black" d="M2165.24,-500.91C2039.77,-471.32 1773.2,-408.46 1641.07,-377.3"/>
<polygon fill="black" stroke="black" points="1641.55,-373.81 1631.02,-374.93 1639.95,-380.63 1641.55,-373.81"/>
</g>
<!-- u20&#45;&gt;u17 -->
<g id="edge29" class="edge">
<title>u20&#45;&gt;u17</title>
<path fill="none" stroke="black" d="M2206.09,-500.09C2159.63,-471.42 2065.41,-413.27 2013.62,-381.3"/>
<polygon fill="black" stroke="black" points="2015.42,-378.3 2005.07,-376.03 2011.74,-384.26 2015.42,-378.3"/>
</g>
<!-- u16 -->
<g id="node29" class="node">
<title>u16</title>
<ellipse fill="#ffff77" stroke="black" cx="1976.48" cy="-199" rx="193.07" ry="18"/>
<text text-anchor="middle" x="1976.48" y="-195.3" font-family="Times,serif" font-size="14.00">Language.Drasil.Printing.Import.Space</text>
</g>
<!-- u20&#45;&gt;u16 -->
<g id="edge28" class="edge">
<title>u20&#45;&gt;u16</title>
<path fill="none" stroke="black" d="M2232.88,-499.97C2230.91,-466.33 2222.47,-390.29 2186.48,-340 2146.08,-283.55 2075.25,-243.35 2027.13,-220.9"/>
<polygon fill="black" stroke="black" points="2028.38,-217.62 2017.83,-216.65 2025.47,-223.99 2028.38,-217.62"/>
</g>
<!-- u19&#45;&gt;u20 -->
<g id="edge27" class="edge">
<title>u19&#45;&gt;u20</title>
<path fill="none" stroke="black" d="M2233.48,-658.9C2233.48,-631.77 2233.48,-578.61 2233.48,-546.21"/>
<polygon fill="black" stroke="black" points="2236.98,-546.08 2233.48,-536.08 2229.98,-546.08 2236.98,-546.08"/>
</g>
<!-- u18&#45;&gt;u14 -->
<g id="edge26" class="edge">
<title>u18&#45;&gt;u14</title>
<path fill="none" stroke="black" d="M1538.43,-180.9C1496.76,-152.45 1413.19,-95.41 1366.67,-63.65"/>
<polygon fill="black" stroke="black" points="1368.39,-60.59 1358.16,-57.84 1364.44,-66.37 1368.39,-60.59"/>
</g>
<!-- u18&#45;&gt;u10 -->
<g id="edge25" class="edge">
<title>u18&#45;&gt;u10</title>
<path fill="none" stroke="black" d="M1594.2,-181.2C1646.49,-152.59 1752.78,-94.45 1810.69,-62.77"/>
<polygon fill="black" stroke="black" points="1812.46,-65.79 1819.56,-57.92 1809.1,-59.65 1812.46,-65.79"/>
</g>
<!-- u17&#45;&gt;u14 -->
<g id="edge24" class="edge">
<title>u17&#45;&gt;u14</title>
<path fill="none" stroke="black" d="M1841.06,-344.79C1677.18,-327.12 1416.28,-288.43 1352.48,-217 1315.81,-175.93 1321.16,-106.15 1327.68,-67.95"/>
<polygon fill="black" stroke="black" points="1331.13,-68.54 1329.51,-58.07 1324.25,-67.26 1331.13,-68.54"/>
</g>
<!-- u16&#45;&gt;u14 -->
<g id="edge23" class="edge">
<title>u16&#45;&gt;u14</title>
<path fill="none" stroke="black" d="M1910.99,-182.01C1790.07,-152.48 1532.62,-89.62 1406.36,-58.79"/>
<polygon fill="black" stroke="black" points="1406.94,-55.33 1396.4,-56.36 1405.28,-62.13 1406.94,-55.33"/>
</g>
<!-- u16&#45;&gt;u10 -->
<g id="edge22" class="edge">
<title>u16&#45;&gt;u10</title>
<path fill="none" stroke="black" d="M1962.76,-180.9C1940.51,-153.18 1896.46,-98.29 1870.65,-66.12"/>
<polygon fill="black" stroke="black" points="1873.18,-63.69 1864.19,-58.08 1867.72,-68.07 1873.18,-63.69"/>
</g>
<!-- u29&#45;&gt;u15 -->
<g id="edge46" class="edge">
<title>u29&#45;&gt;u15</title>
<path fill="none" stroke="black" d="M1283.35,-1138.27C1377.75,-1109.08 1579.7,-1046.64 1681.75,-1015.09"/>
<polygon fill="black" stroke="black" points="1682.78,-1018.43 1691.3,-1012.13 1680.72,-1011.74 1682.78,-1018.43"/>
</g>
<!-- u27 -->
<g id="node32" class="node">
<title>u27</title>
<ellipse fill="#7777ff" stroke="black" cx="1232.48" cy="-995" rx="154.07" ry="18"/>
<text text-anchor="middle" x="1232.48" y="-991.3" font-family="Times,serif" font-size="14.00">Language.Drasil.TeX.Preamble</text>
</g>
<!-- u29&#45;&gt;u27 -->
<g id="edge47" class="edge">
<title>u29&#45;&gt;u27</title>
<path fill="none" stroke="black" d="M1232.48,-1136.79C1232.48,-1109.48 1232.48,-1055.99 1232.48,-1023.38"/>
<polygon fill="black" stroke="black" points="1235.98,-1023.19 1232.48,-1013.19 1228.98,-1023.19 1235.98,-1023.19"/>
</g>
<!-- u28 -->
<g id="node31" class="node">
<title>u28</title>
<ellipse fill="#7777ff" stroke="black" cx="902.48" cy="-677" rx="141.88" ry="18"/>
<text text-anchor="middle" x="902.48" y="-673.3" font-family="Times,serif" font-size="14.00">Language.Drasil.TeX.Monad</text>
</g>
<!-- u28&#45;&gt;u13 -->
<g id="edge45" class="edge">
<title>u28&#45;&gt;u13</title>
<path fill="none" stroke="black" d="M902.48,-658.9C902.48,-631.77 902.48,-578.61 902.48,-546.21"/>
<polygon fill="black" stroke="black" points="905.98,-546.08 902.48,-536.08 898.98,-546.08 905.98,-546.08"/>
</g>
<!-- u27&#45;&gt;u12 -->
<g id="edge43" class="edge">
<title>u27&#45;&gt;u12</title>
<path fill="none" stroke="black" d="M1368.21,-986.38C1460.9,-973.26 1577.56,-939.45 1638.48,-854 1675.48,-802.1 1609.63,-735.91 1567.54,-701.37"/>
<polygon fill="black" stroke="black" points="1569.47,-698.43 1559.48,-694.9 1565.09,-703.89 1569.47,-698.43"/>
</g>
<!-- u26 -->
<g id="node33" class="node">
<title>u26</title>
<ellipse fill="#7777ff" stroke="black" cx="1107.48" cy="-836" rx="146.47" ry="18"/>
<text text-anchor="middle" x="1107.48" y="-832.3" font-family="Times,serif" font-size="14.00">Language.Drasil.TeX.Helpers</text>
</g>
<!-- u27&#45;&gt;u26 -->
<g id="edge44" class="edge">
<title>u27&#45;&gt;u26</title>
<path fill="none" stroke="black" d="M1218.87,-976.9C1196.8,-949.18 1153.1,-894.29 1127.49,-862.12"/>
<polygon fill="black" stroke="black" points="1130.05,-859.72 1121.08,-854.08 1124.57,-864.08 1130.05,-859.72"/>
</g>
<!-- u26&#45;&gt;u8 -->
<g id="edge41" class="edge">
<title>u26&#45;&gt;u8</title>
<path fill="none" stroke="black" d="M1115.54,-817.9C1128.44,-790.53 1153.82,-736.69 1169.06,-704.37"/>
<polygon fill="black" stroke="black" points="1172.34,-705.62 1173.43,-695.08 1166,-702.63 1172.34,-705.62"/>
</g>
<!-- u26&#45;&gt;u28 -->
<g id="edge42" class="edge">
<title>u26&#45;&gt;u28</title>
<path fill="none" stroke="black" d="M1085.54,-818.2C1048.73,-790 974.45,-733.12 932.71,-701.15"/>
<polygon fill="black" stroke="black" points="934.64,-698.22 924.57,-694.92 930.39,-703.78 934.64,-698.22"/>
</g>
</g>
</svg>
