<?xml version="1.0" encoding="UTF-8" standalone="no"?>
<!DOCTYPE svg PUBLIC "-//W3C//DTD SVG 1.1//EN"
 "http://www.w3.org/Graphics/SVG/1.1/DTD/svg11.dtd">
<!-- Generated by graphviz version 2.43.0 (0)
 -->
<!-- Title: G Pages: 1 -->
<svg width="431pt" height="288pt"
 viewBox="0.00 0.00 431.39 288.00" xmlns="http://www.w3.org/2000/svg" xmlns:xlink="http://www.w3.org/1999/xlink">
<g id="graph0" class="graph" transform="scale(5.5 5.5) rotate(0) translate(4 1581.33)">
<title>G</title>
<polygon fill="white" stroke="transparent" points="-4,4 -4,-1581.33 2370.62,-1581.33 2370.62,4 -4,4"/>
<!-- u16 -->
<g id="node1" class="node">
<title>u16</title>
<ellipse fill="#bbffbb" stroke="black" cx="1995.13" cy="-1293" rx="123.48" ry="18"/>
<text text-anchor="middle" x="1995.13" y="-1289.3" font-family="Times,serif" font-size="14.00">Language.Drasil.Format</text>
</g>
<!-- u5 -->
<g id="node2" class="node">
<title>u5</title>
<ellipse fill="#bbffbb" stroke="black" cx="1689.13" cy="-1546" rx="128.08" ry="18"/>
<text text-anchor="middle" x="1689.13" y="-1542.3" font-family="Times,serif" font-size="14.00">Language.Drasil.Printers</text>
</g>
<!-- u6 -->
<g id="node4" class="node">
<title>u6</title>
<ellipse fill="#ffffbb" stroke="black" cx="1836.13" cy="-1420" rx="135.68" ry="18"/>
<text text-anchor="middle" x="1836.13" y="-1416.3" font-family="Times,serif" font-size="14.00">Language.Drasil.DOT.Print</text>
</g>
<!-- u5&#45;&gt;u6 -->
<g id="edge8" class="edge">
<title>u5&#45;&gt;u6</title>
<path fill="none" stroke="black" d="M1709.26,-1528.02C1734.85,-1506.43 1779.16,-1469.06 1808.06,-1444.68"/>
<polygon fill="black" stroke="black" points="1810.38,-1447.3 1815.77,-1438.17 1805.87,-1441.95 1810.38,-1447.3"/>
</g>
<!-- u8 -->
<g id="node9" class="node">
<title>u8</title>
<ellipse fill="#ffbbbb" stroke="black" cx="1542.13" cy="-1420" rx="140.28" ry="18"/>
<text text-anchor="middle" x="1542.13" y="-1416.3" font-family="Times,serif" font-size="14.00">Language.Drasil.JSON.Print</text>
</g>
<!-- u5&#45;&gt;u8 -->
<g id="edge9" class="edge">
<title>u5&#45;&gt;u8</title>
<path fill="none" stroke="black" d="M1669,-1528.02C1643.41,-1506.43 1599.1,-1469.06 1570.21,-1444.68"/>
<polygon fill="black" stroke="black" points="1572.39,-1441.95 1562.49,-1438.17 1567.88,-1447.3 1572.39,-1441.95"/>
</g>
<!-- u9 -->
<g id="node11" class="node">
<title>u9</title>
<ellipse fill="#bbffff" stroke="black" cx="1245.13" cy="-1420" rx="133.48" ry="18"/>
<text text-anchor="middle" x="1245.13" y="-1416.3" font-family="Times,serif" font-size="14.00">Language.Drasil.Log.Print</text>
</g>
<!-- u5&#45;&gt;u9 -->
<g id="edge10" class="edge">
<title>u5&#45;&gt;u9</title>
<path fill="none" stroke="black" d="M1634.24,-1529.67C1552.14,-1506.74 1397.66,-1463.6 1310.06,-1439.13"/>
<polygon fill="black" stroke="black" points="1310.82,-1435.71 1300.24,-1436.39 1308.93,-1442.45 1310.82,-1435.71"/>
</g>
<!-- u15 -->
<g id="node12" class="node">
<title>u15</title>
<ellipse fill="#ffbbff" stroke="black" cx="2178.13" cy="-1420" rx="188.47" ry="18"/>
<text text-anchor="middle" x="2178.13" y="-1416.3" font-family="Times,serif" font-size="14.00">Language.Drasil.Markdown.CreateMd</text>
</g>
<!-- u5&#45;&gt;u15 -->
<g id="edge11" class="edge">
<title>u5&#45;&gt;u15</title>
<path fill="none" stroke="black" d="M1748.6,-1529.92C1838.3,-1507.17 2008,-1464.14 2105.09,-1439.52"/>
<polygon fill="black" stroke="black" points="2105.99,-1442.9 2114.83,-1437.05 2104.27,-1436.12 2105.99,-1442.9"/>
</g>
<!-- u4 -->
<g id="node3" class="node">
<title>u4</title>
<ellipse fill="#bbffbb" stroke="black" cx="1251.13" cy="-789" rx="119.68" ry="18"/>
<text text-anchor="middle" x="1251.13" y="-785.3" font-family="Times,serif" font-size="14.00">Language.Drasil.Config</text>
</g>
<!-- u14 -->
<g id="node5" class="node">
<title>u14</title>
<ellipse fill="#bbbbff" stroke="black" cx="1384.13" cy="-1293" rx="144.87" ry="18"/>
<text text-anchor="middle" x="1384.13" y="-1289.3" font-family="Times,serif" font-size="14.00">Language.Drasil.HTML.Print</text>
</g>
<!-- u13 -->
<g id="node6" class="node">
<title>u13</title>
<ellipse fill="#bbbbff" stroke="black" cx="1384.13" cy="-1167" rx="140.28" ry="18"/>
<text text-anchor="middle" x="1384.13" y="-1163.3" font-family="Times,serif" font-size="14.00">Language.Drasil.HTML.CSS</text>
</g>
<!-- u14&#45;&gt;u13 -->
<g id="edge23" class="edge">
<title>u14&#45;&gt;u13</title>
<path fill="none" stroke="black" d="M1384.13,-1274.76C1384.13,-1254.21 1384.13,-1219.63 1384.13,-1195.41"/>
<polygon fill="black" stroke="black" points="1387.63,-1195.1 1384.13,-1185.1 1380.63,-1195.1 1387.63,-1195.1"/>
</g>
<!-- u12 -->
<g id="node7" class="node">
<title>u12</title>
<ellipse fill="#bbbbff" stroke="black" cx="1700.13" cy="-1167" rx="157.87" ry="18"/>
<text text-anchor="middle" x="1700.13" y="-1163.3" font-family="Times,serif" font-size="14.00">Language.Drasil.HTML.Helpers</text>
</g>
<!-- u14&#45;&gt;u12 -->
<g id="edge22" class="edge">
<title>u14&#45;&gt;u12</title>
<path fill="none" stroke="black" d="M1425.77,-1275.66C1483.2,-1253.13 1586.65,-1212.53 1648.8,-1188.14"/>
<polygon fill="black" stroke="black" points="1650.37,-1191.29 1658.4,-1184.37 1647.82,-1184.77 1650.37,-1191.29"/>
</g>
<!-- u11 -->
<g id="node8" class="node">
<title>u11</title>
<ellipse fill="#bbbbff" stroke="black" cx="1072.13" cy="-1167" rx="153.27" ry="18"/>
<text text-anchor="middle" x="1072.13" y="-1163.3" font-family="Times,serif" font-size="14.00">Language.Drasil.HTML.Monad</text>
</g>
<!-- u14&#45;&gt;u11 -->
<g id="edge21" class="edge">
<title>u14&#45;&gt;u11</title>
<path fill="none" stroke="black" d="M1343.02,-1275.66C1286.32,-1253.13 1184.18,-1212.53 1122.82,-1188.14"/>
<polygon fill="black" stroke="black" points="1123.92,-1184.82 1113.33,-1184.37 1121.33,-1191.32 1123.92,-1184.82"/>
</g>
<!-- u3 -->
<g id="node29" class="node">
<title>u3</title>
<ellipse fill="#ff7777" stroke="black" cx="767.13" cy="-1167" rx="133.48" ry="18"/>
<text text-anchor="middle" x="767.13" y="-1163.3" font-family="Times,serif" font-size="14.00">Language.Drasil.TeX.Print</text>
</g>
<!-- u14&#45;&gt;u3 -->
<g id="edge20" class="edge">
<title>u14&#45;&gt;u3</title>
<path fill="none" stroke="black" d="M1311.54,-1277.41C1195.5,-1254.09 969.02,-1208.57 847.98,-1184.25"/>
<polygon fill="black" stroke="black" points="848.52,-1180.79 838.02,-1182.25 847.14,-1187.65 848.52,-1180.79"/>
</g>
<!-- u17 -->
<g id="node19" class="node">
<title>u17</title>
<ellipse fill="#ffff77" stroke="black" cx="917.13" cy="-32" rx="149.47" ry="18"/>
<text text-anchor="middle" x="917.13" y="-28.3" font-family="Times,serif" font-size="14.00">Language.Drasil.Printing.AST</text>
</g>
<!-- u12&#45;&gt;u17 -->
<g id="edge19" class="edge">
<title>u12&#45;&gt;u17</title>
<path fill="none" stroke="black" d="M1700.13,-1148.72C1700.13,-1108.12 1700.13,-1003.46 1700.13,-916 1700.13,-916 1700.13,-916 1700.13,-283 1700.13,-145.08 1253.68,-72.9 1035.01,-45.82"/>
<polygon fill="black" stroke="black" points="1035.12,-42.31 1024.77,-44.57 1034.27,-49.26 1035.12,-42.31"/>
</g>
<!-- u8&#45;&gt;u16 -->
<g id="edge16" class="edge">
<title>u8&#45;&gt;u16</title>
<path fill="none" stroke="black" d="M1598.59,-1403.42C1682.94,-1380.14 1841.46,-1336.4 1930.39,-1311.86"/>
<polygon fill="black" stroke="black" points="1931.38,-1315.22 1940.09,-1309.19 1929.52,-1308.47 1931.38,-1315.22"/>
</g>
<!-- u8&#45;&gt;u14 -->
<g id="edge15" class="edge">
<title>u8&#45;&gt;u14</title>
<path fill="none" stroke="black" d="M1520.82,-1402.14C1493.14,-1380.24 1444.68,-1341.9 1413.52,-1317.25"/>
<polygon fill="black" stroke="black" points="1415.62,-1314.45 1405.61,-1310.99 1411.28,-1319.94 1415.62,-1314.45"/>
</g>
<!-- u7 -->
<g id="node10" class="node">
<title>u7</title>
<ellipse fill="#ffbbbb" stroke="black" cx="1700.13" cy="-1293" rx="153.27" ry="18"/>
<text text-anchor="middle" x="1700.13" y="-1289.3" font-family="Times,serif" font-size="14.00">Language.Drasil.JSON.Helpers</text>
</g>
<!-- u8&#45;&gt;u7 -->
<g id="edge14" class="edge">
<title>u8&#45;&gt;u7</title>
<path fill="none" stroke="black" d="M1563.44,-1402.14C1591.12,-1380.24 1639.58,-1341.9 1670.74,-1317.25"/>
<polygon fill="black" stroke="black" points="1672.99,-1319.94 1678.66,-1310.99 1668.64,-1314.45 1672.99,-1319.94"/>
</g>
<!-- u7&#45;&gt;u12 -->
<g id="edge12" class="edge">
<title>u7&#45;&gt;u12</title>
<path fill="none" stroke="black" d="M1700.13,-1274.76C1700.13,-1254.21 1700.13,-1219.63 1700.13,-1195.41"/>
<polygon fill="black" stroke="black" points="1703.63,-1195.1 1700.13,-1185.1 1696.63,-1195.1 1703.63,-1195.1"/>
</g>
<!-- u29 -->
<g id="node16" class="node">
<title>u29</title>
<ellipse fill="#ffff77" stroke="black" cx="1895.13" cy="-662" rx="167.07" ry="18"/>
<text text-anchor="middle" x="1895.13" y="-658.3" font-family="Times,serif" font-size="14.00">Language.Drasil.Printing.Helpers</text>
</g>
<!-- u7&#45;&gt;u29 -->
<g id="edge13" class="edge">
<title>u7&#45;&gt;u29</title>
<path fill="none" stroke="black" d="M1744.62,-1275.65C1783.41,-1258.98 1837.91,-1229.25 1867.13,-1185 1902.64,-1131.22 1891.13,-1106.44 1891.13,-1042 1891.13,-1042 1891.13,-1042 1891.13,-914 1891.13,-832.5 1893.27,-736.13 1894.42,-690.11"/>
<polygon fill="black" stroke="black" points="1897.92,-690.13 1894.67,-680.04 1890.92,-689.95 1897.92,-690.13"/>
</g>
<!-- u10 -->
<g id="node13" class="node">
<title>u10</title>
<ellipse fill="#77ff77" stroke="black" cx="844.13" cy="-1293" rx="139.98" ry="18"/>
<text text-anchor="middle" x="844.13" y="-1289.3" font-family="Times,serif" font-size="14.00">Language.Drasil.Plain.Print</text>
</g>
<!-- u9&#45;&gt;u10 -->
<g id="edge17" class="edge">
<title>u9&#45;&gt;u10</title>
<path fill="none" stroke="black" d="M1194.75,-1403.3C1121.02,-1380.31 983.92,-1337.57 904.77,-1312.9"/>
<polygon fill="black" stroke="black" points="905.53,-1309.47 894.94,-1309.84 903.44,-1316.15 905.53,-1309.47"/>
</g>
<!-- u30 -->
<g id="node15" class="node">
<title>u30</title>
<ellipse fill="#ffff77" stroke="black" cx="602.13" cy="-1041" rx="162.47" ry="18"/>
<text text-anchor="middle" x="602.13" y="-1037.3" font-family="Times,serif" font-size="14.00">Language.Drasil.Printing.Import</text>
</g>
<!-- u10&#45;&gt;u30 -->
<g id="edge18" class="edge">
<title>u10&#45;&gt;u30</title>
<path fill="none" stroke="black" d="M777.7,-1277.13C727.75,-1262.36 661.86,-1234.55 625.13,-1185 600.08,-1151.21 597.95,-1100.52 599.48,-1069.45"/>
<polygon fill="black" stroke="black" points="602.98,-1069.54 600.14,-1059.33 596,-1069.08 602.98,-1069.54"/>
</g>
<!-- u31 -->
<g id="node14" class="node">
<title>u31</title>
<ellipse fill="#ffff77" stroke="black" cx="646.13" cy="-158" rx="223.66" ry="18"/>
<text text-anchor="middle" x="646.13" y="-154.3" font-family="Times,serif" font-size="14.00">Language.Drasil.Printing.PrintingInformation</text>
</g>
<!-- u23 -->
<g id="node25" class="node">
<title>u23</title>
<ellipse fill="#7777ff" stroke="black" cx="292.13" cy="-410" rx="211.46" ry="18"/>
<text text-anchor="middle" x="292.13" y="-406.3" font-family="Times,serif" font-size="14.00">Language.Drasil.Printing.Import.CodeExpr</text>
</g>
<!-- u30&#45;&gt;u23 -->
<g id="edge40" class="edge">
<title>u30&#45;&gt;u23</title>
<path fill="none" stroke="black" d="M548.83,-1023.98C460.68,-993.81 294.13,-919.65 294.13,-790 294.13,-790 294.13,-790 294.13,-661 294.13,-580.03 293.07,-484.32 292.49,-438.34"/>
<polygon fill="black" stroke="black" points="295.99,-438.23 292.37,-428.28 288.99,-438.32 295.99,-438.23"/>
</g>
<!-- u21 -->
<g id="node27" class="node">
<title>u21</title>
<ellipse fill="#7777ff" stroke="black" cx="602.13" cy="-915" rx="212.56" ry="18"/>
<text text-anchor="middle" x="602.13" y="-911.3" font-family="Times,serif" font-size="14.00">Language.Drasil.Printing.Import.Document</text>
</g>
<!-- u30&#45;&gt;u21 -->
<g id="edge39" class="edge">
<title>u30&#45;&gt;u21</title>
<path fill="none" stroke="black" d="M602.13,-1022.76C602.13,-1002.21 602.13,-967.63 602.13,-943.41"/>
<polygon fill="black" stroke="black" points="605.63,-943.1 602.13,-933.1 598.63,-943.1 605.63,-943.1"/>
</g>
<!-- u19 -->
<g id="node17" class="node">
<title>u19</title>
<ellipse fill="#ffff77" stroke="black" cx="935.13" cy="-789" rx="178.97" ry="18"/>
<text text-anchor="middle" x="935.13" y="-785.3" font-family="Times,serif" font-size="14.00">Language.Drasil.Printing.LayoutObj</text>
</g>
<!-- u18 -->
<g id="node18" class="node">
<title>u18</title>
<ellipse fill="#ffff77" stroke="black" cx="935.13" cy="-536" rx="167.87" ry="18"/>
<text text-anchor="middle" x="935.13" y="-532.3" font-family="Times,serif" font-size="14.00">Language.Drasil.Printing.Citation</text>
</g>
<!-- u19&#45;&gt;u18 -->
<g id="edge25" class="edge">
<title>u19&#45;&gt;u18</title>
<path fill="none" stroke="black" d="M935.13,-770.75C935.13,-727.84 935.13,-616.02 935.13,-564.15"/>
<polygon fill="black" stroke="black" points="938.63,-564.04 935.13,-554.04 931.63,-564.04 938.63,-564.04"/>
</g>
<!-- u18&#45;&gt;u17 -->
<g id="edge24" class="edge">
<title>u18&#45;&gt;u17</title>
<path fill="none" stroke="black" d="M934.51,-517.72C931.85,-443.5 921.38,-151.4 918.11,-60.29"/>
<polygon fill="black" stroke="black" points="921.61,-60.08 917.75,-50.21 914.61,-60.33 921.61,-60.08"/>
</g>
<!-- u28 -->
<g id="node20" class="node">
<title>u28</title>
<ellipse fill="#7777ff" stroke="black" cx="709.13" cy="-410" rx="187.67" ry="18"/>
<text text-anchor="middle" x="709.13" y="-406.3" font-family="Times,serif" font-size="14.00">Language.Drasil.Printing.Import.Expr</text>
</g>
<!-- u27 -->
<g id="node21" class="node">
<title>u27</title>
<ellipse fill="#7777ff" stroke="black" cx="293.13" cy="-284" rx="196.07" ry="18"/>
<text text-anchor="middle" x="293.13" y="-280.3" font-family="Times,serif" font-size="14.00">Language.Drasil.Printing.Import.Literal</text>
</g>
<!-- u28&#45;&gt;u27 -->
<g id="edge38" class="edge">
<title>u28&#45;&gt;u27</title>
<path fill="none" stroke="black" d="M654.32,-392.66C577.78,-369.85 439.15,-328.53 357.71,-304.25"/>
<polygon fill="black" stroke="black" points="358.65,-300.88 348.07,-301.37 356.65,-307.59 358.65,-300.88"/>
</g>
<!-- u26 -->
<g id="node22" class="node">
<title>u26</title>
<ellipse fill="#7777ff" stroke="black" cx="708.13" cy="-284" rx="200.36" ry="18"/>
<text text-anchor="middle" x="708.13" y="-280.3" font-family="Times,serif" font-size="14.00">Language.Drasil.Printing.Import.Symbol</text>
</g>
<!-- u28&#45;&gt;u26 -->
<g id="edge37" class="edge">
<title>u28&#45;&gt;u26</title>
<path fill="none" stroke="black" d="M708.99,-391.76C708.83,-371.21 708.55,-336.63 708.35,-312.41"/>
<polygon fill="black" stroke="black" points="711.85,-312.07 708.27,-302.1 704.85,-312.12 711.85,-312.07"/>
</g>
<!-- u27&#45;&gt;u31 -->
<g id="edge36" class="edge">
<title>u27&#45;&gt;u31</title>
<path fill="none" stroke="black" d="M340.37,-266.41C404.75,-243.79 519.9,-203.34 589.03,-179.06"/>
<polygon fill="black" stroke="black" points="590.61,-182.21 598.89,-175.6 588.29,-175.61 590.61,-182.21"/>
</g>
<!-- u25 -->
<g id="node23" class="node">
<title>u25</title>
<ellipse fill="#7777ff" stroke="black" cx="202.13" cy="-158" rx="202.26" ry="18"/>
<text text-anchor="middle" x="202.13" y="-154.3" font-family="Times,serif" font-size="14.00">Language.Drasil.Printing.Import.Helpers</text>
</g>
<!-- u27&#45;&gt;u25 -->
<g id="edge35" class="edge">
<title>u27&#45;&gt;u25</title>
<path fill="none" stroke="black" d="M280.67,-266.02C265.17,-244.9 238.57,-208.65 220.67,-184.26"/>
<polygon fill="black" stroke="black" points="223.47,-182.17 214.74,-176.17 217.83,-186.31 223.47,-182.17"/>
</g>
<!-- u26&#45;&gt;u17 -->
<g id="edge34" class="edge">
<title>u26&#45;&gt;u17</title>
<path fill="none" stroke="black" d="M752.31,-266.41C791.37,-249.5 847.01,-219.54 879.13,-176 904.65,-141.42 913.04,-90.98 915.8,-60.16"/>
<polygon fill="black" stroke="black" points="919.29,-60.38 916.55,-50.14 912.31,-59.85 919.29,-60.38"/>
</g>
<!-- u25&#45;&gt;u17 -->
<g id="edge33" class="edge">
<title>u25&#45;&gt;u17</title>
<path fill="none" stroke="black" d="M290.16,-141.73C426.45,-118.1 687.19,-72.88 825.58,-48.88"/>
<polygon fill="black" stroke="black" points="826.48,-52.27 835.74,-47.12 825.29,-45.38 826.48,-52.27"/>
</g>
<!-- u24 -->
<g id="node24" class="node">
<title>u24</title>
<ellipse fill="#7777ff" stroke="black" cx="547.13" cy="-662" rx="216.36" ry="18"/>
<text text-anchor="middle" x="547.13" y="-658.3" font-family="Times,serif" font-size="14.00">Language.Drasil.Printing.Import.ModelExpr</text>
</g>
<!-- u20 -->
<g id="node28" class="node">
<title>u20</title>
<ellipse fill="#7777ff" stroke="black" cx="551.13" cy="-536" rx="193.07" ry="18"/>
<text text-anchor="middle" x="551.13" y="-532.3" font-family="Times,serif" font-size="14.00">Language.Drasil.Printing.Import.Space</text>
</g>
<!-- u24&#45;&gt;u20 -->
<g id="edge32" class="edge">
<title>u24&#45;&gt;u20</title>
<path fill="none" stroke="black" d="M547.69,-643.76C548.35,-623.21 549.47,-588.63 550.25,-564.41"/>
<polygon fill="black" stroke="black" points="553.76,-564.2 550.58,-554.1 546.76,-563.98 553.76,-564.2"/>
</g>
<!-- u23&#45;&gt;u27 -->
<g id="edge31" class="edge">
<title>u23&#45;&gt;u27</title>
<path fill="none" stroke="black" d="M292.27,-391.76C292.44,-371.21 292.72,-336.63 292.91,-312.41"/>
<polygon fill="black" stroke="black" points="296.41,-312.12 292.99,-302.1 289.41,-312.07 296.41,-312.12"/>
</g>
<!-- u23&#45;&gt;u26 -->
<g id="edge30" class="edge">
<title>u23&#45;&gt;u26</title>
<path fill="none" stroke="black" d="M347.37,-392.53C424.04,-369.68 562.43,-328.43 643.7,-304.2"/>
<polygon fill="black" stroke="black" points="644.74,-307.55 653.32,-301.34 642.74,-300.84 644.74,-307.55"/>
</g>
<!-- u22 -->
<g id="node26" class="node">
<title>u22</title>
<ellipse fill="#7777ff" stroke="black" cx="530.13" cy="-789" rx="207.96" ry="18"/>
<text text-anchor="middle" x="530.13" y="-785.3" font-family="Times,serif" font-size="14.00">Language.Drasil.Printing.Import.Sentence</text>
</g>
<!-- u22&#45;&gt;u24 -->
<g id="edge29" class="edge">
<title>u22&#45;&gt;u24</title>
<path fill="none" stroke="black" d="M532.46,-770.88C535.28,-750.15 540.07,-714.95 543.4,-690.42"/>
<polygon fill="black" stroke="black" points="546.9,-690.69 544.78,-680.31 539.96,-689.75 546.9,-690.69"/>
</g>
<!-- u21&#45;&gt;u19 -->
<g id="edge27" class="edge">
<title>u21&#45;&gt;u19</title>
<path fill="none" stroke="black" d="M647.04,-897.28C707.83,-874.64 816.17,-834.3 881.26,-810.06"/>
<polygon fill="black" stroke="black" points="882.78,-813.23 890.93,-806.46 880.34,-806.67 882.78,-813.23"/>
</g>
<!-- u21&#45;&gt;u22 -->
<g id="edge28" class="edge">
<title>u21&#45;&gt;u22</title>
<path fill="none" stroke="black" d="M592.27,-897.02C580.11,-876.08 559.33,-840.28 545.17,-815.9"/>
<polygon fill="black" stroke="black" points="548.15,-814.06 540.1,-807.17 542.1,-817.58 548.15,-814.06"/>
</g>
<!-- u20&#45;&gt;u28 -->
<g id="edge26" class="edge">
<title>u20&#45;&gt;u28</title>
<path fill="none" stroke="black" d="M572.77,-518.02C600.47,-496.28 648.57,-458.53 679.62,-434.16"/>
<polygon fill="black" stroke="black" points="681.8,-436.9 687.5,-427.98 677.48,-431.4 681.8,-436.9"/>
</g>
<!-- u3&#45;&gt;u30 -->
<g id="edge7" class="edge">
<title>u3&#45;&gt;u30</title>
<path fill="none" stroke="black" d="M744.54,-1149.02C715.61,-1127.28 665.37,-1089.53 632.96,-1065.16"/>
<polygon fill="black" stroke="black" points="634.82,-1062.18 624.72,-1058.98 630.61,-1067.78 634.82,-1062.18"/>
</g>
<!-- u1 -->
<g id="node31" class="node">
<title>u1</title>
<ellipse fill="#ff7777" stroke="black" cx="937.13" cy="-1041" rx="154.07" ry="18"/>
<text text-anchor="middle" x="937.13" y="-1037.3" font-family="Times,serif" font-size="14.00">Language.Drasil.TeX.Preamble</text>
</g>
<!-- u3&#45;&gt;u1 -->
<g id="edge6" class="edge">
<title>u3&#45;&gt;u1</title>
<path fill="none" stroke="black" d="M790.41,-1149.02C820.21,-1127.28 871.97,-1089.53 905.37,-1065.16"/>
<polygon fill="black" stroke="black" points="907.84,-1067.7 913.86,-1058.98 903.72,-1062.04 907.84,-1067.7"/>
</g>
<!-- u2 -->
<g id="node30" class="node">
<title>u2</title>
<ellipse fill="#ff7777" stroke="black" cx="1251.13" cy="-915" rx="146.47" ry="18"/>
<text text-anchor="middle" x="1251.13" y="-911.3" font-family="Times,serif" font-size="14.00">Language.Drasil.TeX.Helpers</text>
</g>
<!-- u2&#45;&gt;u4 -->
<g id="edge5" class="edge">
<title>u2&#45;&gt;u4</title>
<path fill="none" stroke="black" d="M1251.13,-896.76C1251.13,-876.21 1251.13,-841.63 1251.13,-817.41"/>
<polygon fill="black" stroke="black" points="1254.63,-817.1 1251.13,-807.1 1247.63,-817.1 1254.63,-817.1"/>
</g>
<!-- u0 -->
<g id="node32" class="node">
<title>u0</title>
<ellipse fill="#ff7777" stroke="black" cx="1530.13" cy="-789" rx="141.88" ry="18"/>
<text text-anchor="middle" x="1530.13" y="-785.3" font-family="Times,serif" font-size="14.00">Language.Drasil.TeX.Monad</text>
</g>
<!-- u2&#45;&gt;u0 -->
<g id="edge4" class="edge">
<title>u2&#45;&gt;u0</title>
<path fill="none" stroke="black" d="M1288.18,-897.53C1338.63,-875.11 1428.9,-834.99 1483.78,-810.6"/>
<polygon fill="black" stroke="black" points="1485.21,-813.79 1492.93,-806.53 1482.37,-807.4 1485.21,-813.79"/>
</g>
<!-- u1&#45;&gt;u19 -->
<g id="edge3" class="edge">
<title>u1&#45;&gt;u19</title>
<path fill="none" stroke="black" d="M936.99,-1022.82C936.65,-980.18 935.77,-869.24 935.35,-817.42"/>
<polygon fill="black" stroke="black" points="938.85,-817.28 935.27,-807.3 931.85,-817.33 938.85,-817.28"/>
</g>
<!-- u1&#45;&gt;u2 -->
<g id="edge2" class="edge">
<title>u1&#45;&gt;u2</title>
<path fill="none" stroke="black" d="M978.83,-1023.53C1035.99,-1000.96 1138.61,-960.43 1200.24,-936.1"/>
<polygon fill="black" stroke="black" points="1201.75,-939.27 1209.76,-932.34 1199.18,-932.75 1201.75,-939.27"/>
</g>
<!-- u0&#45;&gt;u29 -->
<g id="edge1" class="edge">
<title>u0&#45;&gt;u29</title>
<path fill="none" stroke="black" d="M1577.1,-771.91C1643.76,-749.09 1765.69,-707.33 1837.66,-682.68"/>
<polygon fill="black" stroke="black" points="1839.15,-685.87 1847.47,-679.32 1836.88,-679.25 1839.15,-685.87"/>
</g>
</g>
</svg>
