<?xml version="1.0" encoding="UTF-8" standalone="no"?>
<!DOCTYPE svg PUBLIC "-//W3C//DTD SVG 1.1//EN"
 "http://www.w3.org/Graphics/SVG/1.1/DTD/svg11.dtd">
<!-- Generated by graphviz version 2.43.0 (0)
 -->
<!-- Title: G Pages: 1 -->
<svg width="432pt" height="285pt"
 viewBox="0.00 0.00 432.00 284.81" xmlns="http://www.w3.org/2000/svg" xmlns:xlink="http://www.w3.org/1999/xlink">
<g id="graph0" class="graph" transform="scale(0.06 0.06) rotate(0) translate(4 4807.33)">
<title>G</title>
<polygon fill="white" stroke="transparent" points="-4,4 -4,-4807.33 7293.8,-4807.33 7293.8,4 -4,4"/>
<!-- u61 -->
<g id="node1" class="node">
<title>u61</title>
<ellipse fill="#bbffbb" stroke="black" cx="1686" cy="-4416" rx="76.09" ry="18"/>
<text text-anchor="middle" x="1686" y="-4412.3" font-family="Times,serif" font-size="14.00">NameGenTest</text>
</g>
<!-- u60 -->
<g id="node2" class="node">
<title>u60</title>
<ellipse fill="#bbffbb" stroke="black" cx="1833" cy="-4416" rx="52.79" ry="18"/>
<text text-anchor="middle" x="1833" y="-4412.3" font-family="Times,serif" font-size="14.00">FileTests</text>
</g>
<!-- u58 -->
<g id="node3" class="node">
<title>u58</title>
<ellipse fill="#bbffbb" stroke="black" cx="1963" cy="-4416" rx="59.59" ry="18"/>
<text text-anchor="middle" x="1963" y="-4412.3" font-family="Times,serif" font-size="14.00">VectorTest</text>
</g>
<!-- u57 -->
<g id="node4" class="node">
<title>u57</title>
<ellipse fill="#bbffbb" stroke="black" cx="2103" cy="-4106" rx="42.49" ry="18"/>
<text text-anchor="middle" x="2103" y="-4102.3" font-family="Times,serif" font-size="14.00">Helper</text>
</g>
<!-- u54 -->
<g id="node5" class="node">
<title>u54</title>
<ellipse fill="#bbffbb" stroke="black" cx="2103" cy="-4416" rx="62.29" ry="18"/>
<text text-anchor="middle" x="2103" y="-4412.3" font-family="Times,serif" font-size="14.00">HelloWorld</text>
</g>
<!-- u54&#45;&gt;u57 -->
<g id="edge90" class="edge">
<title>u54&#45;&gt;u57</title>
<path fill="none" stroke="black" d="M2103,-4397.56C2103,-4346.42 2103,-4196.55 2103,-4134.45"/>
<polygon fill="black" stroke="black" points="2106.5,-4134.25 2103,-4124.25 2099.5,-4134.25 2106.5,-4134.25"/>
</g>
<!-- u0 -->
<g id="node6" class="node">
<title>u0</title>
<ellipse fill="#ffffbb" stroke="black" cx="4692" cy="-1937" rx="214.46" ry="18"/>
<text text-anchor="middle" x="4692" y="-1933.3" font-family="Times,serif" font-size="14.00">Data.Drasil.ExternalLibraries.ODELibraries</text>
</g>
<!-- u9 -->
<g id="node60" class="node">
<title>u9</title>
<ellipse fill="#33ff33" stroke="black" cx="4488" cy="-1627" rx="172.77" ry="18"/>
<text text-anchor="middle" x="4488" y="-1623.3" font-family="Times,serif" font-size="14.00">Language.Drasil.Data.ODELibPckg</text>
</g>
<!-- u0&#45;&gt;u9 -->
<g id="edge1" class="edge">
<title>u0&#45;&gt;u9</title>
<path fill="none" stroke="black" d="M4680.74,-1919C4646.9,-1867.9 4545.9,-1715.42 4505.24,-1654.03"/>
<polygon fill="black" stroke="black" points="4507.92,-1651.73 4499.48,-1645.33 4502.08,-1655.6 4507.92,-1651.73"/>
</g>
<!-- u56 -->
<g id="node7" class="node">
<title>u56</title>
<ellipse fill="#bbbbff" stroke="black" cx="2279" cy="-4416" rx="95.58" ry="18"/>
<text text-anchor="middle" x="2279" y="-4412.3" font-family="Times,serif" font-size="14.00">GOOL.PatternTest</text>
</g>
<!-- u55 -->
<g id="node8" class="node">
<title>u55</title>
<ellipse fill="#bbbbff" stroke="black" cx="2279" cy="-4106" rx="84.49" ry="18"/>
<text text-anchor="middle" x="2279" y="-4102.3" font-family="Times,serif" font-size="14.00">GOOL.Observer</text>
</g>
<!-- u56&#45;&gt;u55 -->
<g id="edge91" class="edge">
<title>u56&#45;&gt;u55</title>
<path fill="none" stroke="black" d="M2279,-4397.56C2279,-4346.42 2279,-4196.55 2279,-4134.45"/>
<polygon fill="black" stroke="black" points="2282.5,-4134.25 2279,-4124.25 2275.5,-4134.25 2282.5,-4134.25"/>
</g>
<!-- u53 -->
<g id="node9" class="node">
<title>u53</title>
<ellipse fill="#ffbbbb" stroke="black" cx="2647" cy="-3486" rx="117.78" ry="18"/>
<text text-anchor="middle" x="2647" y="-3482.3" font-family="Times,serif" font-size="14.00">Language.Drasil.GOOL</text>
</g>
<!-- u20 -->
<g id="node53" class="node">
<title>u20</title>
<ellipse fill="#77ffff" stroke="black" cx="2277" cy="-3176" rx="369.33" ry="18"/>
<text text-anchor="middle" x="2277" y="-3172.3" font-family="Times,serif" font-size="14.00">Language.Drasil.Code.Imperative.GOOL.LanguageRenderer.CSharpRenderer</text>
</g>
<!-- u53&#45;&gt;u20 -->
<g id="edge89" class="edge">
<title>u53&#45;&gt;u20</title>
<path fill="none" stroke="black" d="M2626.84,-3468.22C2564.84,-3416.61 2376.82,-3260.09 2305.15,-3200.44"/>
<polygon fill="black" stroke="black" points="2307.33,-3197.69 2297.4,-3193.98 2302.85,-3203.07 2307.33,-3197.69"/>
</g>
<!-- u19 -->
<g id="node54" class="node">
<title>u19</title>
<ellipse fill="#77ffff" stroke="black" cx="3017" cy="-3176" rx="352.84" ry="18"/>
<text text-anchor="middle" x="3017" y="-3172.3" font-family="Times,serif" font-size="14.00">Language.Drasil.Code.Imperative.GOOL.LanguageRenderer.CppRenderer</text>
</g>
<!-- u53&#45;&gt;u19 -->
<g id="edge88" class="edge">
<title>u53&#45;&gt;u19</title>
<path fill="none" stroke="black" d="M2667.16,-3468.22C2729.16,-3416.61 2917.18,-3260.09 2988.85,-3200.44"/>
<polygon fill="black" stroke="black" points="2991.15,-3203.07 2996.6,-3193.98 2986.67,-3197.69 2991.15,-3203.07"/>
</g>
<!-- u18 -->
<g id="node55" class="node">
<title>u18</title>
<ellipse fill="#77ffff" stroke="black" cx="3742" cy="-3176" rx="354.44" ry="18"/>
<text text-anchor="middle" x="3742" y="-3172.3" font-family="Times,serif" font-size="14.00">Language.Drasil.Code.Imperative.GOOL.LanguageRenderer.JavaRenderer</text>
</g>
<!-- u53&#45;&gt;u18 -->
<g id="edge87" class="edge">
<title>u53&#45;&gt;u18</title>
<path fill="none" stroke="black" d="M2700.56,-3469.94C2881.47,-3419.05 3469.93,-3253.53 3672.63,-3196.51"/>
<polygon fill="black" stroke="black" points="3673.6,-3199.88 3682.28,-3193.8 3671.71,-3193.14 3673.6,-3199.88"/>
</g>
<!-- u17 -->
<g id="node56" class="node">
<title>u17</title>
<ellipse fill="#77ffff" stroke="black" cx="4473" cy="-3176" rx="358.54" ry="18"/>
<text text-anchor="middle" x="4473" y="-3172.3" font-family="Times,serif" font-size="14.00">Language.Drasil.Code.Imperative.GOOL.LanguageRenderer.SwiftRenderer</text>
</g>
<!-- u53&#45;&gt;u17 -->
<g id="edge86" class="edge">
<title>u53&#45;&gt;u17</title>
<path fill="none" stroke="black" d="M2722.85,-3472.21C3010.03,-3423.77 4031.3,-3251.5 4365.96,-3195.06"/>
<polygon fill="black" stroke="black" points="4366.86,-3198.45 4376.14,-3193.34 4365.69,-3191.55 4366.86,-3198.45"/>
</g>
<!-- u16 -->
<g id="node57" class="node">
<title>u16</title>
<ellipse fill="#77ffff" stroke="black" cx="783" cy="-3176" rx="354.74" ry="18"/>
<text text-anchor="middle" x="783" y="-3172.3" font-family="Times,serif" font-size="14.00">Language.Drasil.Code.Imperative.GOOL.LanguageRenderer.JuliaRenderer</text>
</g>
<!-- u53&#45;&gt;u16 -->
<g id="edge85" class="edge">
<title>u53&#45;&gt;u16</title>
<path fill="none" stroke="black" d="M2570.16,-3472.3C2277.61,-3423.96 1232.71,-3251.31 891.58,-3194.94"/>
<polygon fill="black" stroke="black" points="892.13,-3191.49 881.7,-3193.31 890.99,-3198.39 892.13,-3191.49"/>
</g>
<!-- u15 -->
<g id="node58" class="node">
<title>u15</title>
<ellipse fill="#77ffff" stroke="black" cx="1523" cy="-3176" rx="367.43" ry="18"/>
<text text-anchor="middle" x="1523" y="-3172.3" font-family="Times,serif" font-size="14.00">Language.Drasil.Code.Imperative.GOOL.LanguageRenderer.PythonRenderer</text>
</g>
<!-- u53&#45;&gt;u15 -->
<g id="edge84" class="edge">
<title>u53&#45;&gt;u15</title>
<path fill="none" stroke="black" d="M2592.41,-3470.04C2407.17,-3419.28 1802.56,-3253.61 1594.28,-3196.53"/>
<polygon fill="black" stroke="black" points="1594.94,-3193.08 1584.37,-3193.82 1593.09,-3199.83 1594.94,-3193.08"/>
</g>
<!-- u52 -->
<g id="node10" class="node">
<title>u52</title>
<ellipse fill="#ffbbbb" stroke="black" cx="5201" cy="-2247" rx="135.68" ry="18"/>
<text text-anchor="middle" x="5201" y="-2243.3" font-family="Times,serif" font-size="14.00">Language.Drasil.CodeSpec</text>
</g>
<!-- u51 -->
<g id="node11" class="node">
<title>u51</title>
<ellipse fill="#ffbbbb" stroke="black" cx="3921" cy="-1937" rx="126.18" ry="18"/>
<text text-anchor="middle" x="3921" y="-1933.3" font-family="Times,serif" font-size="14.00">Language.Drasil.Choices</text>
</g>
<!-- u52&#45;&gt;u51 -->
<g id="edge83" class="edge">
<title>u52&#45;&gt;u51</title>
<path fill="none" stroke="black" d="M5138.4,-2230.94C4923.88,-2179.32 4219.19,-2009.75 3992.16,-1955.12"/>
<polygon fill="black" stroke="black" points="3992.9,-1951.7 3982.36,-1952.76 3991.26,-1958.51 3992.9,-1951.7"/>
</g>
<!-- u50 -->
<g id="node12" class="node">
<title>u50</title>
<ellipse fill="#ffbbbb" stroke="black" cx="4281" cy="-1937" rx="178.17" ry="18"/>
<text text-anchor="middle" x="4281" y="-1933.3" font-family="Times,serif" font-size="14.00">Language.Drasil.ICOSolutionSearch</text>
</g>
<!-- u52&#45;&gt;u50 -->
<g id="edge82" class="edge">
<title>u52&#45;&gt;u50</title>
<path fill="none" stroke="black" d="M5153.47,-2230.09C4998.63,-2178.25 4508.91,-2014.3 4339.41,-1957.55"/>
<polygon fill="black" stroke="black" points="4340.5,-1954.23 4329.91,-1954.37 4338.28,-1960.87 4340.5,-1954.23"/>
</g>
<!-- u4 -->
<g id="node18" class="node">
<title>u4</title>
<ellipse fill="#bbffff" stroke="black" cx="5201" cy="-1937" rx="192.27" ry="18"/>
<text text-anchor="middle" x="5201" y="-1933.3" font-family="Times,serif" font-size="14.00">Language.Drasil.Chunk.ConstraintMap</text>
</g>
<!-- u52&#45;&gt;u4 -->
<g id="edge81" class="edge">
<title>u52&#45;&gt;u4</title>
<path fill="none" stroke="black" d="M5201,-2228.56C5201,-2177.42 5201,-2027.55 5201,-1965.45"/>
<polygon fill="black" stroke="black" points="5204.5,-1965.25 5201,-1955.25 5197.5,-1965.25 5204.5,-1965.25"/>
</g>
<!-- u44 -->
<g id="node25" class="node">
<title>u44</title>
<ellipse fill="#ffbbff" stroke="black" cx="3287" cy="-1627" rx="139.98" ry="18"/>
<text text-anchor="middle" x="3287" y="-1623.3" font-family="Times,serif" font-size="14.00">Language.Drasil.Code.Code</text>
</g>
<!-- u51&#45;&gt;u44 -->
<g id="edge80" class="edge">
<title>u51&#45;&gt;u44</title>
<path fill="none" stroke="black" d="M3886.91,-1919.44C3779.73,-1867.37 3449.62,-1707 3330.46,-1649.11"/>
<polygon fill="black" stroke="black" points="3331.78,-1645.86 3321.26,-1644.64 3328.72,-1652.16 3331.78,-1645.86"/>
</g>
<!-- u51&#45;&gt;u9 -->
<g id="edge79" class="edge">
<title>u51&#45;&gt;u9</title>
<path fill="none" stroke="black" d="M3951.48,-1919.44C4047.03,-1867.54 4340.69,-1708.02 4448.11,-1649.67"/>
<polygon fill="black" stroke="black" points="4449.9,-1652.68 4457.02,-1644.83 4446.56,-1646.53 4449.9,-1652.68"/>
</g>
<!-- u5 -->
<g id="node17" class="node">
<title>u5</title>
<ellipse fill="#bbffff" stroke="black" cx="4075" cy="-1627" rx="191.17" ry="18"/>
<text text-anchor="middle" x="4075" y="-1623.3" font-family="Times,serif" font-size="14.00">Language.Drasil.Chunk.CodeDefinition</text>
</g>
<!-- u50&#45;&gt;u5 -->
<g id="edge78" class="edge">
<title>u50&#45;&gt;u5</title>
<path fill="none" stroke="black" d="M4269.63,-1919C4235.38,-1867.8 4133.05,-1714.8 4092.16,-1653.66"/>
<polygon fill="black" stroke="black" points="4095.06,-1651.69 4086.59,-1645.33 4089.24,-1655.58 4095.06,-1651.69"/>
</g>
<!-- u49 -->
<g id="node13" class="node">
<title>u49</title>
<ellipse fill="#ffbbbb" stroke="black" cx="2506" cy="-4416" rx="113.18" ry="18"/>
<text text-anchor="middle" x="2506" y="-4412.3" font-family="Times,serif" font-size="14.00">Language.Drasil.Code</text>
</g>
<!-- u37 -->
<g id="node34" class="node">
<title>u37</title>
<ellipse fill="#77ff77" stroke="black" cx="842" cy="-3796" rx="217.96" ry="18"/>
<text text-anchor="middle" x="842" y="-3792.3" font-family="Times,serif" font-size="14.00">Language.Drasil.Code.Imperative.ReadInput</text>
</g>
<!-- u49&#45;&gt;u37 -->
<g id="edge77" class="edge">
<title>u49&#45;&gt;u37</title>
<path fill="none" stroke="black" d="M2504.53,-4397.81C2498.88,-4342.95 2473.45,-4170.86 2372,-4088 2164.98,-3918.9 1365.04,-3837.42 1011.57,-3809.08"/>
<polygon fill="black" stroke="black" points="1011.75,-3805.59 1001.5,-3808.28 1011.19,-3812.57 1011.75,-3805.59"/>
</g>
<!-- u27 -->
<g id="node41" class="node">
<title>u27</title>
<ellipse fill="#77ff77" stroke="black" cx="4879" cy="-4106" rx="217.16" ry="18"/>
<text text-anchor="middle" x="4879" y="-4102.3" font-family="Times,serif" font-size="14.00">Language.Drasil.Code.Imperative.Generator</text>
</g>
<!-- u49&#45;&gt;u27 -->
<g id="edge76" class="edge">
<title>u49&#45;&gt;u27</title>
<path fill="none" stroke="black" d="M2590.81,-4403.99C2948.76,-4357.53 4336.95,-4177.35 4757.55,-4122.76"/>
<polygon fill="black" stroke="black" points="4758.14,-4126.22 4767.6,-4121.46 4757.24,-4119.27 4758.14,-4126.22"/>
</g>
<!-- u1 -->
<g id="node14" class="node">
<title>u1</title>
<ellipse fill="#ffbbbb" stroke="black" cx="4197" cy="-1007" rx="110.48" ry="18"/>
<text text-anchor="middle" x="4197" y="-1003.3" font-family="Times,serif" font-size="14.00">Language.Drasil.Mod</text>
</g>
<!-- u6 -->
<g id="node16" class="node">
<title>u6</title>
<ellipse fill="#bbffff" stroke="black" cx="4119" cy="-697" rx="170.87" ry="18"/>
<text text-anchor="middle" x="4119" y="-693.3" font-family="Times,serif" font-size="14.00">Language.Drasil.Chunk.Parameter</text>
</g>
<!-- u1&#45;&gt;u6 -->
<g id="edge2" class="edge">
<title>u1&#45;&gt;u6</title>
<path fill="none" stroke="black" d="M4192.7,-989C4179.83,-938.22 4141.61,-787.3 4125.88,-725.18"/>
<polygon fill="black" stroke="black" points="4129.24,-724.16 4123.39,-715.33 4122.45,-725.88 4129.24,-724.16"/>
</g>
<!-- u11 -->
<g id="node27" class="node">
<title>u11</title>
<ellipse fill="#ffbbff" stroke="black" cx="3395" cy="-697" rx="160.57" ry="18"/>
<text text-anchor="middle" x="3395" y="-693.3" font-family="Times,serif" font-size="14.00">Language.Drasil.Code.DataDesc</text>
</g>
<!-- u1&#45;&gt;u11 -->
<g id="edge3" class="edge">
<title>u1&#45;&gt;u11</title>
<path fill="none" stroke="black" d="M4155.85,-990.2C4021.53,-938.61 3596.01,-775.19 3447.08,-718"/>
<polygon fill="black" stroke="black" points="3448.27,-714.71 3437.68,-714.39 3445.76,-721.24 3448.27,-714.71"/>
</g>
<!-- u7 -->
<g id="node15" class="node">
<title>u7</title>
<ellipse fill="#bbffff" stroke="black" cx="3842" cy="-387" rx="145.67" ry="18"/>
<text text-anchor="middle" x="3842" y="-383.3" font-family="Times,serif" font-size="14.00">Language.Drasil.Chunk.Code</text>
</g>
<!-- u2 -->
<g id="node20" class="node">
<title>u2</title>
<ellipse fill="#bbffff" stroke="black" cx="3842" cy="-77" rx="168.17" ry="18"/>
<text text-anchor="middle" x="3842" y="-73.3" font-family="Times,serif" font-size="14.00">Language.Drasil.Chunk.CodeBase</text>
</g>
<!-- u7&#45;&gt;u2 -->
<g id="edge6" class="edge">
<title>u7&#45;&gt;u2</title>
<path fill="none" stroke="black" d="M3842,-368.56C3842,-317.42 3842,-167.55 3842,-105.45"/>
<polygon fill="black" stroke="black" points="3845.5,-105.25 3842,-95.25 3838.5,-105.25 3845.5,-105.25"/>
</g>
<!-- u6&#45;&gt;u7 -->
<g id="edge5" class="edge">
<title>u6&#45;&gt;u7</title>
<path fill="none" stroke="black" d="M4103.71,-679C4057.36,-627.47 3918.28,-472.82 3864.02,-412.48"/>
<polygon fill="black" stroke="black" points="3866.53,-410.04 3857.24,-404.95 3861.32,-414.72 3866.53,-410.04"/>
</g>
<!-- u8 -->
<g id="node61" class="node">
<title>u8</title>
<ellipse fill="#33ff33" stroke="black" cx="3842" cy="-1317" rx="154.07" ry="18"/>
<text text-anchor="middle" x="3842" y="-1313.3" font-family="Times,serif" font-size="14.00">Language.Drasil.Data.ODEInfo</text>
</g>
<!-- u5&#45;&gt;u8 -->
<g id="edge4" class="edge">
<title>u5&#45;&gt;u8</title>
<path fill="none" stroke="black" d="M4062.14,-1609C4023.31,-1557.68 3907.12,-1404.08 3861.08,-1343.23"/>
<polygon fill="black" stroke="black" points="3863.64,-1340.81 3854.82,-1334.95 3858.06,-1345.03 3863.64,-1340.81"/>
</g>
<!-- u3 -->
<g id="node19" class="node">
<title>u3</title>
<ellipse fill="#bbffff" stroke="black" cx="4683" cy="-1007" rx="202.26" ry="18"/>
<text text-anchor="middle" x="4683" y="-1003.3" font-family="Times,serif" font-size="14.00">Language.Drasil.Chunk.NamedArgument</text>
</g>
<!-- u48 -->
<g id="node21" class="node">
<title>u48</title>
<ellipse fill="#ffbbff" stroke="black" cx="219" cy="-3176" rx="191.17" ry="18"/>
<text text-anchor="middle" x="219" y="-3172.3" font-family="Times,serif" font-size="14.00">Language.Drasil.Code.CodeGeneration</text>
</g>
<!-- u48&#45;&gt;u44 -->
<g id="edge75" class="edge">
<title>u48&#45;&gt;u44</title>
<path fill="none" stroke="black" d="M313.39,-3160.31C707.71,-3097.63 2220.98,-2843.42 2614,-2575 2989.04,-2318.86 3224.99,-1780.66 3276.39,-1654.75"/>
<polygon fill="black" stroke="black" points="3279.78,-1655.71 3280.28,-1645.12 3273.29,-1653.08 3279.78,-1655.71"/>
</g>
<!-- u22 -->
<g id="node49" class="node">
<title>u22</title>
<ellipse fill="#ff7777" stroke="black" cx="2685" cy="-2867" rx="222.06" ry="18"/>
<text text-anchor="middle" x="2685" y="-2863.3" font-family="Times,serif" font-size="14.00">Language.Drasil.Code.Imperative.GOOL.Data</text>
</g>
<!-- u48&#45;&gt;u22 -->
<g id="edge74" class="edge">
<title>u48&#45;&gt;u22</title>
<path fill="none" stroke="black" d="M329.35,-3161.26C733.41,-3110.96 2130.94,-2936.98 2559.24,-2883.66"/>
<polygon fill="black" stroke="black" points="2559.68,-2887.13 2569.17,-2882.42 2558.82,-2880.18 2559.68,-2887.13"/>
</g>
<!-- u47 -->
<g id="node22" class="node">
<title>u47</title>
<ellipse fill="#ffbbff" stroke="black" cx="4934" cy="-1627" rx="178.97" ry="18"/>
<text text-anchor="middle" x="4934" y="-1623.3" font-family="Times,serif" font-size="14.00">Language.Drasil.Code.ExtLibImport</text>
</g>
<!-- u12 -->
<g id="node26" class="node">
<title>u12</title>
<ellipse fill="#ffbbff" stroke="black" cx="4934" cy="-1317" rx="190.37" ry="18"/>
<text text-anchor="middle" x="4934" y="-1313.3" font-family="Times,serif" font-size="14.00">Language.Drasil.Code.ExternalLibrary</text>
</g>
<!-- u47&#45;&gt;u12 -->
<g id="edge73" class="edge">
<title>u47&#45;&gt;u12</title>
<path fill="none" stroke="black" d="M4934,-1608.56C4934,-1557.42 4934,-1407.55 4934,-1345.45"/>
<polygon fill="black" stroke="black" points="4937.5,-1345.25 4934,-1335.25 4930.5,-1345.25 4937.5,-1345.25"/>
</g>
<!-- u10 -->
<g id="node28" class="node">
<title>u10</title>
<ellipse fill="#ffbbff" stroke="black" cx="4518" cy="-1317" rx="207.96" ry="18"/>
<text text-anchor="middle" x="4518" y="-1313.3" font-family="Times,serif" font-size="14.00">Language.Drasil.Code.ExternalLibraryCall</text>
</g>
<!-- u47&#45;&gt;u10 -->
<g id="edge72" class="edge">
<title>u47&#45;&gt;u10</title>
<path fill="none" stroke="black" d="M4911.04,-1609C4840.87,-1557.05 4629.14,-1400.28 4549.1,-1341.03"/>
<polygon fill="black" stroke="black" points="4551.01,-1338.08 4540.89,-1334.95 4546.84,-1343.71 4551.01,-1338.08"/>
</g>
<!-- u46 -->
<g id="node23" class="node">
<title>u46</title>
<ellipse fill="#ffbbff" stroke="black" cx="4153" cy="-1317" rx="139.18" ry="18"/>
<text text-anchor="middle" x="4153" y="-1313.3" font-family="Times,serif" font-size="14.00">Language.Drasil.Code.Lang</text>
</g>
<!-- u45 -->
<g id="node24" class="node">
<title>u45</title>
<ellipse fill="#ffbbff" stroke="black" cx="6948" cy="-2867" rx="204.16" ry="18"/>
<text text-anchor="middle" x="6948" y="-2863.3" font-family="Times,serif" font-size="14.00">Language.Drasil.Code.CodeQuantityDicts</text>
</g>
<!-- u12&#45;&gt;u1 -->
<g id="edge15" class="edge">
<title>u12&#45;&gt;u1</title>
<path fill="none" stroke="black" d="M4894.11,-1299.33C4768.42,-1246.8 4380.83,-1084.82 4244.79,-1027.97"/>
<polygon fill="black" stroke="black" points="4246.02,-1024.69 4235.44,-1024.06 4243.32,-1031.15 4246.02,-1024.69"/>
</g>
<!-- u12&#45;&gt;u3 -->
<g id="edge16" class="edge">
<title>u12&#45;&gt;u3</title>
<path fill="none" stroke="black" d="M4920.15,-1299C4878.33,-1247.69 4753.22,-1094.17 4703.6,-1033.28"/>
<polygon fill="black" stroke="black" points="4706.15,-1030.87 4697.12,-1025.33 4700.72,-1035.29 4706.15,-1030.87"/>
</g>
<!-- u11&#45;&gt;u7 -->
<g id="edge14" class="edge">
<title>u11&#45;&gt;u7</title>
<path fill="none" stroke="black" d="M3419.67,-679C3495.31,-626.88 3724.04,-469.28 3809.4,-410.46"/>
<polygon fill="black" stroke="black" points="3811.43,-413.31 3817.68,-404.76 3807.46,-407.55 3811.43,-413.31"/>
</g>
<!-- u10&#45;&gt;u1 -->
<g id="edge12" class="edge">
<title>u10&#45;&gt;u1</title>
<path fill="none" stroke="black" d="M4500.28,-1299C4446.46,-1247.36 4284.74,-1092.18 4222.13,-1032.12"/>
<polygon fill="black" stroke="black" points="4224.3,-1029.34 4214.66,-1024.95 4219.45,-1034.39 4224.3,-1029.34"/>
</g>
<!-- u10&#45;&gt;u3 -->
<g id="edge13" class="edge">
<title>u10&#45;&gt;u3</title>
<path fill="none" stroke="black" d="M4527.11,-1299C4554.42,-1248.01 4635.83,-1096.05 4668.85,-1034.41"/>
<polygon fill="black" stroke="black" points="4672.08,-1035.79 4673.72,-1025.33 4665.91,-1032.49 4672.08,-1035.79"/>
</g>
<!-- u43 -->
<g id="node29" class="node">
<title>u43</title>
<ellipse fill="#77ff77" stroke="black" cx="5644" cy="-2867" rx="219.86" ry="18"/>
<text text-anchor="middle" x="5644" y="-2863.3" font-family="Times,serif" font-size="14.00">Language.Drasil.Code.Imperative.Comments</text>
</g>
<!-- u30 -->
<g id="node39" class="node">
<title>u30</title>
<ellipse fill="#77ff77" stroke="black" cx="6089" cy="-2557" rx="222.06" ry="18"/>
<text text-anchor="middle" x="6089" y="-2553.3" font-family="Times,serif" font-size="14.00">Language.Drasil.Code.Imperative.DrasilState</text>
</g>
<!-- u43&#45;&gt;u30 -->
<g id="edge71" class="edge">
<title>u43&#45;&gt;u30</title>
<path fill="none" stroke="black" d="M5668.56,-2849C5743.78,-2796.94 5971.03,-2639.65 6056.25,-2580.67"/>
<polygon fill="black" stroke="black" points="6058.29,-2583.51 6064.52,-2574.95 6054.3,-2577.76 6058.29,-2583.51"/>
</g>
<!-- u41 -->
<g id="node30" class="node">
<title>u41</title>
<ellipse fill="#77ff77" stroke="black" cx="6197" cy="-3796" rx="209.06" ry="18"/>
<text text-anchor="middle" x="6197" y="-3792.3" font-family="Times,serif" font-size="14.00">Language.Drasil.Code.Imperative.Modules</text>
</g>
<!-- u34 -->
<g id="node37" class="node">
<title>u34</title>
<ellipse fill="#77ff77" stroke="black" cx="6784" cy="-3486" rx="228.26" ry="18"/>
<text text-anchor="middle" x="6784" y="-3482.3" font-family="Times,serif" font-size="14.00">Language.Drasil.Code.Imperative.Descriptions</text>
</g>
<!-- u41&#45;&gt;u34 -->
<g id="edge69" class="edge">
<title>u41&#45;&gt;u34</title>
<path fill="none" stroke="black" d="M6229.4,-3778C6329.22,-3725.62 6632.03,-3566.74 6742.82,-3508.61"/>
<polygon fill="black" stroke="black" points="6744.48,-3511.69 6751.7,-3503.95 6741.22,-3505.49 6744.48,-3511.69"/>
</g>
<!-- u31 -->
<g id="node38" class="node">
<title>u31</title>
<ellipse fill="#77ff77" stroke="black" cx="6197" cy="-3486" rx="233.16" ry="18"/>
<text text-anchor="middle" x="6197" y="-3482.3" font-family="Times,serif" font-size="14.00">Language.Drasil.Code.Imperative.FunctionCalls</text>
</g>
<!-- u41&#45;&gt;u31 -->
<g id="edge68" class="edge">
<title>u41&#45;&gt;u31</title>
<path fill="none" stroke="black" d="M6197,-3777.56C6197,-3726.42 6197,-3576.55 6197,-3514.45"/>
<polygon fill="black" stroke="black" points="6200.5,-3514.25 6197,-3504.25 6193.5,-3514.25 6200.5,-3514.25"/>
</g>
<!-- u40 -->
<g id="node31" class="node">
<title>u40</title>
<ellipse fill="#77ff77" stroke="black" cx="4372" cy="-2247" rx="237.46" ry="18"/>
<text text-anchor="middle" x="4372" y="-2243.3" font-family="Times,serif" font-size="14.00">Language.Drasil.Code.Imperative.ConceptMatch</text>
</g>
<!-- u40&#45;&gt;u51 -->
<g id="edge67" class="edge">
<title>u40&#45;&gt;u51</title>
<path fill="none" stroke="black" d="M4347.11,-2229C4270.79,-2176.88 4040.02,-2019.28 3953.89,-1960.46"/>
<polygon fill="black" stroke="black" points="3955.77,-1957.51 3945.54,-1954.76 3951.82,-1963.29 3955.77,-1957.51"/>
</g>
<!-- u39 -->
<g id="node32" class="node">
<title>u39</title>
<ellipse fill="#77ff77" stroke="black" cx="6089" cy="-2867" rx="207.16" ry="18"/>
<text text-anchor="middle" x="6089" y="-2863.3" font-family="Times,serif" font-size="14.00">Language.Drasil.Code.Imperative.Logging</text>
</g>
<!-- u39&#45;&gt;u30 -->
<g id="edge66" class="edge">
<title>u39&#45;&gt;u30</title>
<path fill="none" stroke="black" d="M6089,-2848.56C6089,-2797.42 6089,-2647.55 6089,-2585.45"/>
<polygon fill="black" stroke="black" points="6092.5,-2585.25 6089,-2575.25 6085.5,-2585.25 6092.5,-2585.25"/>
</g>
<!-- u38 -->
<g id="node33" class="node">
<title>u38</title>
<ellipse fill="#77ff77" stroke="black" cx="7007" cy="-3796" rx="226.66" ry="18"/>
<text text-anchor="middle" x="7007" y="-3792.3" font-family="Times,serif" font-size="14.00">Language.Drasil.Code.Imperative.SpaceMatch</text>
</g>
<!-- u38&#45;&gt;u30 -->
<g id="edge65" class="edge">
<title>u38&#45;&gt;u30</title>
<path fill="none" stroke="black" d="M7019.66,-3777.83C7092.42,-3676.93 7445.82,-3155.21 7209,-2849 7088.77,-2693.54 6498.16,-2605.74 6226.36,-2572.97"/>
<polygon fill="black" stroke="black" points="6226.78,-2569.5 6216.43,-2571.79 6225.94,-2576.45 6226.78,-2569.5"/>
</g>
<!-- u37&#45;&gt;u11 -->
<g id="edge64" class="edge">
<title>u37&#45;&gt;u11</title>
<path fill="none" stroke="black" d="M769.48,-3779.02C565.24,-3729.3 0,-3557.34 0,-3177 0,-3177 0,-3177 0,-1316 0,-979.52 2614.68,-757.66 3254.83,-708.39"/>
<polygon fill="black" stroke="black" points="3255.32,-711.86 3265.03,-707.61 3254.79,-704.88 3255.32,-711.86"/>
</g>
<!-- u36 -->
<g id="node35" class="node">
<title>u36</title>
<ellipse fill="#77ff77" stroke="black" cx="3090" cy="-1007" rx="219.86" ry="18"/>
<text text-anchor="middle" x="3090" y="-1003.3" font-family="Times,serif" font-size="14.00">Language.Drasil.Code.Imperative.WriteInput</text>
</g>
<!-- u36&#45;&gt;u11 -->
<g id="edge63" class="edge">
<title>u36&#45;&gt;u11</title>
<path fill="none" stroke="black" d="M3106.83,-989C3157.97,-937.36 3311.64,-782.18 3371.12,-722.12"/>
<polygon fill="black" stroke="black" points="3373.67,-724.51 3378.22,-714.95 3368.7,-719.59 3373.67,-724.51"/>
</g>
<!-- u35 -->
<g id="node36" class="node">
<title>u35</title>
<ellipse fill="#77ff77" stroke="black" cx="6520" cy="-2867" rx="206.06" ry="18"/>
<text text-anchor="middle" x="6520" y="-2863.3" font-family="Times,serif" font-size="14.00">Language.Drasil.Code.Imperative.Helpers</text>
</g>
<!-- u35&#45;&gt;u30 -->
<g id="edge62" class="edge">
<title>u35&#45;&gt;u30</title>
<path fill="none" stroke="black" d="M6496.21,-2849C6423.44,-2796.99 6203.7,-2639.97 6120.97,-2580.85"/>
<polygon fill="black" stroke="black" points="6122.88,-2577.91 6112.71,-2574.95 6118.81,-2583.61 6122.88,-2577.91"/>
</g>
<!-- u34&#45;&gt;u30 -->
<g id="edge61" class="edge">
<title>u34&#45;&gt;u30</title>
<path fill="none" stroke="black" d="M6828.63,-3468.31C6915.5,-3433.09 7105.37,-3342.01 7181,-3194 7250.77,-3057.46 7276.46,-2970.56 7183,-2849 7065.62,-2696.32 6486.81,-2606.86 6221.85,-2573.31"/>
<polygon fill="black" stroke="black" points="6222.15,-2569.82 6211.79,-2572.04 6221.27,-2576.76 6222.15,-2569.82"/>
</g>
<!-- u28 -->
<g id="node40" class="node">
<title>u28</title>
<ellipse fill="#77ff77" stroke="black" cx="6089" cy="-3176" rx="201.46" ry="18"/>
<text text-anchor="middle" x="6089" y="-3172.3" font-family="Times,serif" font-size="14.00">Language.Drasil.Code.Imperative.Import</text>
</g>
<!-- u31&#45;&gt;u28 -->
<g id="edge59" class="edge">
<title>u31&#45;&gt;u28</title>
<path fill="none" stroke="black" d="M6191.04,-3468C6173.19,-3417.11 6120.09,-3265.67 6098.4,-3203.79"/>
<polygon fill="black" stroke="black" points="6101.69,-3202.6 6095.08,-3194.33 6095.08,-3204.92 6101.69,-3202.6"/>
</g>
<!-- u23 -->
<g id="node45" class="node">
<title>u23</title>
<ellipse fill="#77ff77" stroke="black" cx="6948" cy="-3176" rx="223.66" ry="18"/>
<text text-anchor="middle" x="6948" y="-3172.3" font-family="Times,serif" font-size="14.00">Language.Drasil.Code.Imperative.Parameters</text>
</g>
<!-- u31&#45;&gt;u23 -->
<g id="edge58" class="edge">
<title>u31&#45;&gt;u23</title>
<path fill="none" stroke="black" d="M6237.91,-3468.22C6365.7,-3415.81 6757.2,-3255.25 6897.4,-3197.75"/>
<polygon fill="black" stroke="black" points="6899.13,-3200.83 6907.05,-3193.79 6896.47,-3194.35 6899.13,-3200.83"/>
</g>
<!-- u30&#45;&gt;u52 -->
<g id="edge57" class="edge">
<title>u30&#45;&gt;u52</title>
<path fill="none" stroke="black" d="M6040.94,-2539.33C5888.95,-2486.61 5419.14,-2323.66 5256.83,-2267.37"/>
<polygon fill="black" stroke="black" points="5257.65,-2263.94 5247.05,-2263.97 5255.35,-2270.56 5257.65,-2263.94"/>
</g>
<!-- u30&#45;&gt;u47 -->
<g id="edge56" class="edge">
<title>u30&#45;&gt;u47</title>
<path fill="none" stroke="black" d="M6073.06,-2538.99C6000.39,-2461.97 5691.61,-2140.07 5402,-1919 5252.83,-1805.13 5057.5,-1694.92 4974.32,-1649.61"/>
<polygon fill="black" stroke="black" points="4975.91,-1646.49 4965.45,-1644.79 4972.57,-1652.64 4975.91,-1646.49"/>
</g>
<!-- u28&#45;&gt;u45 -->
<g id="edge54" class="edge">
<title>u28&#45;&gt;u45</title>
<path fill="none" stroke="black" d="M6135.49,-3158.39C6281.92,-3106.05 6733.28,-2944.74 6892.06,-2887.99"/>
<polygon fill="black" stroke="black" points="6893.4,-2891.23 6901.64,-2884.57 6891.04,-2884.64 6893.4,-2891.23"/>
</g>
<!-- u28&#45;&gt;u43 -->
<g id="edge53" class="edge">
<title>u28&#45;&gt;u43</title>
<path fill="none" stroke="black" d="M6064.44,-3158.06C5989.22,-3106.16 5761.97,-2949.38 5676.75,-2890.59"/>
<polygon fill="black" stroke="black" points="5678.7,-2887.69 5668.48,-2884.89 5674.73,-2893.45 5678.7,-2887.69"/>
</g>
<!-- u28&#45;&gt;u40 -->
<g id="edge52" class="edge">
<title>u28&#45;&gt;u40</title>
<path fill="none" stroke="black" d="M5970.06,-3161.46C5702.26,-3128.56 5063.94,-3035.86 4917,-2885 4807.15,-2772.21 4931.95,-2667.52 4841,-2539 4737.37,-2392.56 4534.49,-2304.68 4432.95,-2268.02"/>
<polygon fill="black" stroke="black" points="4434.04,-2264.7 4423.44,-2264.63 4431.69,-2271.29 4434.04,-2264.7"/>
</g>
<!-- u28&#45;&gt;u39 -->
<g id="edge51" class="edge">
<title>u28&#45;&gt;u39</title>
<path fill="none" stroke="black" d="M6089,-3157.61C6089,-3106.64 6089,-2957.26 6089,-2895.36"/>
<polygon fill="black" stroke="black" points="6092.5,-2895.19 6089,-2885.19 6085.5,-2895.19 6092.5,-2895.19"/>
</g>
<!-- u28&#45;&gt;u35 -->
<g id="edge50" class="edge">
<title>u28&#45;&gt;u35</title>
<path fill="none" stroke="black" d="M6112.79,-3158.06C6185.56,-3106.22 6405.3,-2949.7 6488.03,-2890.77"/>
<polygon fill="black" stroke="black" points="6490.17,-2893.54 6496.29,-2884.89 6486.11,-2887.84 6490.17,-2893.54"/>
</g>
<!-- u25 -->
<g id="node43" class="node">
<title>u25</title>
<ellipse fill="#77ff77" stroke="black" cx="5166" cy="-2867" rx="240.46" ry="18"/>
<text text-anchor="middle" x="5166" y="-2863.3" font-family="Times,serif" font-size="14.00">Language.Drasil.Code.Imperative.GenerateGOOL</text>
</g>
<!-- u28&#45;&gt;u25 -->
<g id="edge49" class="edge">
<title>u28&#45;&gt;u25</title>
<path fill="none" stroke="black" d="M6039.38,-3158.49C5882.26,-3106.23 5396.07,-2944.52 5225.71,-2887.86"/>
<polygon fill="black" stroke="black" points="5226.75,-2884.52 5216.15,-2884.68 5224.54,-2891.16 5226.75,-2884.52"/>
</g>
<!-- u27&#45;&gt;u48 -->
<g id="edge48" class="edge">
<title>u27&#45;&gt;u48</title>
<path fill="none" stroke="black" d="M4799.59,-4089.19C4239.88,-3977.72 893.96,-3311.41 306.9,-3194.5"/>
<polygon fill="black" stroke="black" points="307.3,-3191.02 296.81,-3192.49 305.93,-3197.88 307.3,-3191.02"/>
</g>
<!-- u27&#45;&gt;u41 -->
<g id="edge47" class="edge">
<title>u27&#45;&gt;u41</title>
<path fill="none" stroke="black" d="M4948.01,-4088.87C5172.41,-4036.43 5880.63,-3870.93 6118.33,-3815.38"/>
<polygon fill="black" stroke="black" points="6119.34,-3818.74 6128.28,-3813.06 6117.75,-3811.93 6119.34,-3818.74"/>
</g>
<!-- u27&#45;&gt;u38 -->
<g id="edge46" class="edge">
<title>u27&#45;&gt;u38</title>
<path fill="none" stroke="black" d="M4982,-4090.09C5338.79,-4038.45 6520.47,-3867.42 6893.28,-3813.46"/>
<polygon fill="black" stroke="black" points="6893.87,-3816.91 6903.27,-3812.01 6892.87,-3809.98 6893.87,-3816.91"/>
</g>
<!-- u26 -->
<g id="node42" class="node">
<title>u26</title>
<ellipse fill="#77ff77" stroke="black" cx="4837" cy="-2247" rx="209.86" ry="18"/>
<text text-anchor="middle" x="4837" y="-2243.3" font-family="Times,serif" font-size="14.00">Language.Drasil.Code.Imperative.GenODE</text>
</g>
<!-- u27&#45;&gt;u26 -->
<g id="edge45" class="edge">
<title>u27&#45;&gt;u26</title>
<path fill="none" stroke="black" d="M4879.92,-4087.8C4883.71,-4015.04 4898,-3725.3 4898,-3487 4898,-3487 4898,-3487 4898,-2866 4898,-2636.47 4855.81,-2361.3 4841.61,-2275.14"/>
<polygon fill="black" stroke="black" points="4845.04,-2274.43 4839.94,-2265.14 4838.13,-2275.58 4845.04,-2274.43"/>
</g>
<!-- u13 -->
<g id="node51" class="node">
<title>u13</title>
<ellipse fill="#ff7777" stroke="black" cx="3991" cy="-2557" rx="289.45" ry="18"/>
<text text-anchor="middle" x="3991" y="-2553.3" font-family="Times,serif" font-size="14.00">Language.Drasil.Code.Imperative.GOOL.LanguageRenderer</text>
</g>
<!-- u27&#45;&gt;u13 -->
<g id="edge44" class="edge">
<title>u27&#45;&gt;u13</title>
<path fill="none" stroke="black" d="M4879.22,-4087.88C4880.63,-3966.85 4887.09,-3242.74 4841,-3158 4661.27,-2827.52 4211.41,-2637.65 4049.89,-2578.33"/>
<polygon fill="black" stroke="black" points="4050.73,-2574.91 4040.13,-2574.78 4048.33,-2581.49 4050.73,-2574.91"/>
</g>
<!-- u26&#45;&gt;u51 -->
<g id="edge43" class="edge">
<title>u26&#45;&gt;u51</title>
<path fill="none" stroke="black" d="M4787.75,-2229.44C4630.99,-2176.73 4144.16,-2013.04 3977.57,-1957.02"/>
<polygon fill="black" stroke="black" points="3978.6,-1953.68 3968.01,-1953.81 3976.37,-1960.31 3978.6,-1953.68"/>
</g>
<!-- u26&#45;&gt;u5 -->
<g id="edge41" class="edge">
<title>u26&#45;&gt;u5</title>
<path fill="none" stroke="black" d="M4689.38,-2234.17C4515.41,-2211.58 4232.53,-2145.89 4094,-1955 4027.2,-1862.95 4053.18,-1715.16 4067.74,-1654.89"/>
<polygon fill="black" stroke="black" points="4071.18,-1655.56 4070.22,-1645.01 4064.39,-1653.86 4071.18,-1655.56"/>
</g>
<!-- u26&#45;&gt;u47 -->
<g id="edge42" class="edge">
<title>u26&#45;&gt;u47</title>
<path fill="none" stroke="black" d="M4842.91,-2228.88C4857.98,-2184.38 4897.88,-2061.11 4915,-1955 4932.75,-1845 4934.46,-1711.82 4934.28,-1655.39"/>
<polygon fill="black" stroke="black" points="4937.78,-1655.14 4934.23,-1645.15 4930.78,-1655.17 4937.78,-1655.14"/>
</g>
<!-- u25&#45;&gt;u30 -->
<g id="edge40" class="edge">
<title>u25&#45;&gt;u30</title>
<path fill="none" stroke="black" d="M5215.95,-2849.33C5373.53,-2796.75 5859.74,-2634.5 6029.65,-2577.8"/>
<polygon fill="black" stroke="black" points="6030.81,-2581.11 6039.18,-2574.62 6028.59,-2574.47 6030.81,-2581.11"/>
</g>
<!-- u14 -->
<g id="node50" class="node">
<title>u14</title>
<ellipse fill="#ff7777" stroke="black" cx="4565" cy="-2557" rx="267.25" ry="18"/>
<text text-anchor="middle" x="4565" y="-2553.3" font-family="Times,serif" font-size="14.00">Language.Drasil.Code.Imperative.GOOL.ClassInterface</text>
</g>
<!-- u25&#45;&gt;u14 -->
<g id="edge39" class="edge">
<title>u25&#45;&gt;u14</title>
<path fill="none" stroke="black" d="M5132.83,-2849C5030.63,-2796.62 4720.59,-2637.74 4607.16,-2579.61"/>
<polygon fill="black" stroke="black" points="4608.56,-2576.39 4598.07,-2574.95 4605.37,-2582.62 4608.56,-2576.39"/>
</g>
<!-- u24 -->
<g id="node44" class="node">
<title>u24</title>
<ellipse fill="#77ff77" stroke="black" cx="3450" cy="-2557" rx="233.16" ry="18"/>
<text text-anchor="middle" x="3450" y="-2553.3" font-family="Times,serif" font-size="14.00">Language.Drasil.Code.Imperative.WriteReadMe</text>
</g>
<!-- u29 -->
<g id="node59" class="node">
<title>u29</title>
<ellipse fill="#ff77ff" stroke="black" cx="3874" cy="-2247" rx="242.36" ry="18"/>
<text text-anchor="middle" x="3874" y="-2243.3" font-family="Times,serif" font-size="14.00">Language.Drasil.Code.Imperative.ReadMe.Import</text>
</g>
<!-- u24&#45;&gt;u29 -->
<g id="edge38" class="edge">
<title>u24&#45;&gt;u29</title>
<path fill="none" stroke="black" d="M3473.4,-2539C3544.92,-2487.05 3760.72,-2330.28 3842.3,-2271.03"/>
<polygon fill="black" stroke="black" points="3844.64,-2273.65 3850.67,-2264.95 3840.52,-2267.99 3844.64,-2273.65"/>
</g>
<!-- u23&#45;&gt;u45 -->
<g id="edge37" class="edge">
<title>u23&#45;&gt;u45</title>
<path fill="none" stroke="black" d="M6948,-3157.61C6948,-3106.64 6948,-2957.26 6948,-2895.36"/>
<polygon fill="black" stroke="black" points="6951.5,-2895.19 6948,-2885.19 6944.5,-2895.19 6951.5,-2895.19"/>
</g>
<!-- u23&#45;&gt;u30 -->
<g id="edge36" class="edge">
<title>u23&#45;&gt;u30</title>
<path fill="none" stroke="black" d="M6974.78,-3157.95C7049.14,-3108.55 7247.14,-2961.64 7161,-2849 7046.05,-2698.68 6477.33,-2607.82 6218.13,-2573.59"/>
<polygon fill="black" stroke="black" points="6218.28,-2570.08 6207.91,-2572.25 6217.37,-2577.02 6218.28,-2570.08"/>
</g>
<!-- u33 -->
<g id="node46" class="node">
<title>u33</title>
<ellipse fill="#ffff77" stroke="black" cx="2376" cy="-2557" rx="228.56" ry="18"/>
<text text-anchor="middle" x="2376" y="-2553.3" font-family="Times,serif" font-size="14.00">Language.Drasil.Code.Imperative.Build.Import</text>
</g>
<!-- u32 -->
<g id="node47" class="node">
<title>u32</title>
<ellipse fill="#ffff77" stroke="black" cx="2376" cy="-2247" rx="215.56" ry="18"/>
<text text-anchor="middle" x="2376" y="-2243.3" font-family="Times,serif" font-size="14.00">Language.Drasil.Code.Imperative.Build.AST</text>
</g>
<!-- u33&#45;&gt;u32 -->
<g id="edge60" class="edge">
<title>u33&#45;&gt;u32</title>
<path fill="none" stroke="black" d="M2376,-2538.56C2376,-2487.42 2376,-2337.55 2376,-2275.45"/>
<polygon fill="black" stroke="black" points="2379.5,-2275.25 2376,-2265.25 2372.5,-2275.25 2379.5,-2275.25"/>
</g>
<!-- u42 -->
<g id="node48" class="node">
<title>u42</title>
<ellipse fill="#7777ff" stroke="black" cx="3249" cy="-2247" rx="245.06" ry="18"/>
<text text-anchor="middle" x="3249" y="-2243.3" font-family="Times,serif" font-size="14.00">Language.Drasil.Code.Imperative.Doxygen.Import</text>
</g>
<!-- u42&#45;&gt;u51 -->
<g id="edge70" class="edge">
<title>u42&#45;&gt;u51</title>
<path fill="none" stroke="black" d="M3286.09,-2229C3401,-2176.34 3750.86,-2015.98 3875.95,-1958.65"/>
<polygon fill="black" stroke="black" points="3877.62,-1961.73 3885.26,-1954.38 3874.71,-1955.37 3877.62,-1961.73"/>
</g>
<!-- u14&#45;&gt;u29 -->
<g id="edge17" class="edge">
<title>u14&#45;&gt;u29</title>
<path fill="none" stroke="black" d="M4526.86,-2539C4409,-2486.47 4050.75,-2326.78 3921.3,-2269.08"/>
<polygon fill="black" stroke="black" points="3922.58,-2265.82 3912.02,-2264.95 3919.73,-2272.21 3922.58,-2265.82"/>
</g>
<!-- u21 -->
<g id="node52" class="node">
<title>u21</title>
<ellipse fill="#77ffff" stroke="black" cx="3319" cy="-2867" rx="393.73" ry="18"/>
<text text-anchor="middle" x="3319" y="-2863.3" font-family="Times,serif" font-size="14.00">Language.Drasil.Code.Imperative.GOOL.LanguageRenderer.LanguagePolymorphic</text>
</g>
<!-- u21&#45;&gt;u36 -->
<g id="edge34" class="edge">
<title>u21&#45;&gt;u36</title>
<path fill="none" stroke="black" d="M3269.11,-2849.06C3111.25,-2791.94 2633,-2590.64 2633,-2248 2633,-2248 2633,-2248 2633,-1626 2633,-1342.08 2948.68,-1103.21 3055.3,-1030.63"/>
<polygon fill="black" stroke="black" points="3057.46,-1033.4 3063.79,-1024.91 3053.54,-1027.6 3057.46,-1033.4"/>
</g>
<!-- u21&#45;&gt;u24 -->
<g id="edge32" class="edge">
<title>u21&#45;&gt;u24</title>
<path fill="none" stroke="black" d="M3326.23,-2849C3347.87,-2798.11 3412.29,-2646.67 3438.6,-2584.79"/>
<polygon fill="black" stroke="black" points="3441.94,-2585.9 3442.63,-2575.33 3435.5,-2583.16 3441.94,-2585.9"/>
</g>
<!-- u21&#45;&gt;u33 -->
<g id="edge33" class="edge">
<title>u21&#45;&gt;u33</title>
<path fill="none" stroke="black" d="M3267.29,-2849.11C3105.56,-2796.29 2609.74,-2634.34 2436.51,-2577.76"/>
<polygon fill="black" stroke="black" points="2437.38,-2574.37 2426.79,-2574.59 2435.21,-2581.02 2437.38,-2574.37"/>
</g>
<!-- u21&#45;&gt;u42 -->
<g id="edge35" class="edge">
<title>u21&#45;&gt;u42</title>
<path fill="none" stroke="black" d="M3309.93,-2848.93C3287.18,-2805.04 3228.09,-2684.01 3208,-2575 3187.64,-2464.52 3222.63,-2331.15 3240.04,-2275"/>
<polygon fill="black" stroke="black" points="3243.49,-2275.72 3243.17,-2265.13 3236.81,-2273.6 3243.49,-2275.72"/>
</g>
<!-- u21&#45;&gt;u14 -->
<g id="edge31" class="edge">
<title>u21&#45;&gt;u14</title>
<path fill="none" stroke="black" d="M3386.88,-2849.22C3601.17,-2796.25 4262.49,-2632.78 4488.42,-2576.93"/>
<polygon fill="black" stroke="black" points="4489.33,-2580.31 4498.2,-2574.51 4487.65,-2573.51 4489.33,-2580.31"/>
</g>
<!-- u21&#45;&gt;u13 -->
<g id="edge30" class="edge">
<title>u21&#45;&gt;u13</title>
<path fill="none" stroke="black" d="M3356.09,-2849C3470.59,-2796.52 3818.42,-2637.1 3944.62,-2579.26"/>
<polygon fill="black" stroke="black" points="3946.4,-2582.29 3954.03,-2574.95 3943.48,-2575.93 3946.4,-2582.29"/>
</g>
<!-- u20&#45;&gt;u22 -->
<g id="edge29" class="edge">
<title>u20&#45;&gt;u22</title>
<path fill="none" stroke="black" d="M2299.81,-3157.84C2368.87,-3105.87 2575.74,-2950.21 2654.29,-2891.11"/>
<polygon fill="black" stroke="black" points="2656.46,-2893.85 2662.35,-2885.04 2652.26,-2888.26 2656.46,-2893.85"/>
</g>
<!-- u20&#45;&gt;u21 -->
<g id="edge28" class="edge">
<title>u20&#45;&gt;u21</title>
<path fill="none" stroke="black" d="M2334.13,-3158.17C2512.89,-3105.5 3060.98,-2944.02 3252.28,-2887.66"/>
<polygon fill="black" stroke="black" points="3253.33,-2891 3261.93,-2884.81 3251.35,-2884.28 3253.33,-2891"/>
</g>
<!-- u19&#45;&gt;u22 -->
<g id="edge27" class="edge">
<title>u19&#45;&gt;u22</title>
<path fill="none" stroke="black" d="M2998.2,-3157.61C2942.05,-3105.69 2775.47,-2951.66 2710.94,-2891.99"/>
<polygon fill="black" stroke="black" points="2713.31,-2889.41 2703.59,-2885.19 2708.56,-2894.55 2713.31,-2889.41"/>
</g>
<!-- u19&#45;&gt;u21 -->
<g id="edge26" class="edge">
<title>u19&#45;&gt;u21</title>
<path fill="none" stroke="black" d="M3034.1,-3157.61C3085.08,-3105.8 3236.09,-2952.29 3295.04,-2892.36"/>
<polygon fill="black" stroke="black" points="3297.57,-2894.78 3302.09,-2885.19 3292.58,-2889.87 3297.57,-2894.78"/>
</g>
<!-- u18&#45;&gt;u22 -->
<g id="edge25" class="edge">
<title>u18&#45;&gt;u22</title>
<path fill="none" stroke="black" d="M3684.04,-3158.17C3502.29,-3105.38 2944.13,-2943.26 2751.33,-2887.26"/>
<polygon fill="black" stroke="black" points="2752.18,-2883.87 2741.6,-2884.44 2750.23,-2890.59 2752.18,-2883.87"/>
</g>
<!-- u18&#45;&gt;u21 -->
<g id="edge24" class="edge">
<title>u18&#45;&gt;u21</title>
<path fill="none" stroke="black" d="M3718.35,-3157.84C3646.75,-3105.87 3432.28,-2950.21 3350.84,-2891.11"/>
<polygon fill="black" stroke="black" points="3352.63,-2888.08 3342.48,-2885.04 3348.52,-2893.75 3352.63,-2888.08"/>
</g>
<!-- u17&#45;&gt;u22 -->
<g id="edge23" class="edge">
<title>u17&#45;&gt;u22</title>
<path fill="none" stroke="black" d="M4377.5,-3158.6C4068.95,-3105.62 3100.58,-2939.36 2785.3,-2885.22"/>
<polygon fill="black" stroke="black" points="2785.71,-2881.74 2775.26,-2883.5 2784.52,-2888.64 2785.71,-2881.74"/>
</g>
<!-- u17&#45;&gt;u21 -->
<g id="edge22" class="edge">
<title>u17&#45;&gt;u21</title>
<path fill="none" stroke="black" d="M4410.14,-3158.28C4212.32,-3105.65 3603.24,-2943.62 3392.03,-2887.43"/>
<polygon fill="black" stroke="black" points="3392.84,-2884.02 3382.27,-2884.83 3391.04,-2890.79 3392.84,-2884.02"/>
</g>
<!-- u16&#45;&gt;u22 -->
<g id="edge21" class="edge">
<title>u16&#45;&gt;u22</title>
<path fill="none" stroke="black" d="M883.92,-3158.71C1212,-3105.75 2246.47,-2938.78 2580.14,-2884.92"/>
<polygon fill="black" stroke="black" points="2580.97,-2888.34 2590.29,-2883.29 2579.86,-2881.43 2580.97,-2888.34"/>
</g>
<!-- u16&#45;&gt;u21 -->
<g id="edge20" class="edge">
<title>u16&#45;&gt;u21</title>
<path fill="none" stroke="black" d="M913.13,-3159.25C1344.91,-3106.98 2728.29,-2939.51 3177.01,-2885.19"/>
<polygon fill="black" stroke="black" points="3177.61,-2888.64 3187.11,-2883.97 3176.77,-2881.69 3177.61,-2888.64"/>
</g>
<!-- u15&#45;&gt;u22 -->
<g id="edge19" class="edge">
<title>u15&#45;&gt;u22</title>
<path fill="none" stroke="black" d="M1586.71,-3158.17C1786.94,-3105.27 2402.67,-2942.59 2613.4,-2886.92"/>
<polygon fill="black" stroke="black" points="2614.35,-2890.29 2623.12,-2884.35 2612.56,-2883.52 2614.35,-2890.29"/>
</g>
<!-- u15&#45;&gt;u21 -->
<g id="edge18" class="edge">
<title>u15&#45;&gt;u21</title>
<path fill="none" stroke="black" d="M1618.93,-3158.6C1926.97,-3105.95 2889.74,-2941.38 3212.4,-2886.22"/>
<polygon fill="black" stroke="black" points="3213.41,-2889.6 3222.68,-2884.46 3212.23,-2882.7 3213.41,-2889.6"/>
</g>
<!-- u29&#45;&gt;u51 -->
<g id="edge55" class="edge">
<title>u29&#45;&gt;u51</title>
<path fill="none" stroke="black" d="M3876.66,-2228.56C3884.47,-2177.42 3907.33,-2027.55 3916.81,-1965.45"/>
<polygon fill="black" stroke="black" points="3920.32,-1965.66 3918.37,-1955.25 3913.4,-1964.61 3920.32,-1965.66"/>
</g>
<!-- u9&#45;&gt;u46 -->
<g id="edge11" class="edge">
<title>u9&#45;&gt;u46</title>
<path fill="none" stroke="black" d="M4469.51,-1609C4413.23,-1557.26 4243.88,-1401.55 4178.83,-1341.75"/>
<polygon fill="black" stroke="black" points="4181.16,-1339.14 4171.43,-1334.95 4176.42,-1344.29 4181.16,-1339.14"/>
</g>
<!-- u9&#45;&gt;u12 -->
<g id="edge10" class="edge">
<title>u9&#45;&gt;u12</title>
<path fill="none" stroke="black" d="M4512.61,-1609C4588,-1556.94 4815.77,-1399.65 4901.18,-1340.67"/>
<polygon fill="black" stroke="black" points="4903.22,-1343.51 4909.46,-1334.95 4899.24,-1337.75 4903.22,-1343.51"/>
</g>
<!-- u9&#45;&gt;u10 -->
<g id="edge9" class="edge">
<title>u9&#45;&gt;u10</title>
<path fill="none" stroke="black" d="M4489.7,-1608.56C4494.68,-1557.42 4509.28,-1407.55 4515.33,-1345.45"/>
<polygon fill="black" stroke="black" points="4518.83,-1345.54 4516.32,-1335.25 4511.87,-1344.86 4518.83,-1345.54"/>
</g>
<!-- u9&#45;&gt;u8 -->
<g id="edge8" class="edge">
<title>u9&#45;&gt;u8</title>
<path fill="none" stroke="black" d="M4452.81,-1609.22C4343.09,-1556.91 4007.35,-1396.84 3886.19,-1339.07"/>
<polygon fill="black" stroke="black" points="3887.36,-1335.75 3876.83,-1334.61 3884.35,-1342.07 3887.36,-1335.75"/>
</g>
<!-- u8&#45;&gt;u7 -->
<g id="edge7" class="edge">
<title>u8&#45;&gt;u7</title>
<path fill="none" stroke="black" d="M3842,-1298.7C3842,-1185.88 3842,-555.22 3842,-415.44"/>
<polygon fill="black" stroke="black" points="3845.5,-415.18 3842,-405.18 3838.5,-415.18 3845.5,-415.18"/>
</g>
<!-- u59 -->
<g id="node62" class="node">
<title>u59</title>
<ellipse fill="#bbff77" stroke="black" cx="2103" cy="-4726" rx="108.58" ry="18"/>
<text text-anchor="middle" x="2103" y="-4722.3" font-family="Times,serif" font-size="14.00">drasil&#45;code.test.Main</text>
</g>
<!-- u59&#45;&gt;u61 -->
<g id="edge98" class="edge">
<title>u59&#45;&gt;u61</title>
<path fill="none" stroke="black" d="M2080.28,-4708.22C2009.94,-4656.26 1795.64,-4497.98 1716.12,-4439.25"/>
<polygon fill="black" stroke="black" points="1718.1,-4436.36 1707.98,-4433.23 1713.94,-4441.99 1718.1,-4436.36"/>
</g>
<!-- u59&#45;&gt;u60 -->
<g id="edge97" class="edge">
<title>u59&#45;&gt;u60</title>
<path fill="none" stroke="black" d="M2088.1,-4708C2042.91,-4656.45 1907.27,-4501.72 1854.42,-4441.43"/>
<polygon fill="black" stroke="black" points="1856.75,-4438.78 1847.53,-4433.57 1851.49,-4443.4 1856.75,-4438.78"/>
</g>
<!-- u59&#45;&gt;u58 -->
<g id="edge96" class="edge">
<title>u59&#45;&gt;u58</title>
<path fill="none" stroke="black" d="M2095.27,-4708C2072.09,-4656.99 2002.98,-4504.96 1974.98,-4443.36"/>
<polygon fill="black" stroke="black" points="1978.03,-4441.6 1970.7,-4433.95 1971.65,-4444.5 1978.03,-4441.6"/>
</g>
<!-- u59&#45;&gt;u54 -->
<g id="edge94" class="edge">
<title>u59&#45;&gt;u54</title>
<path fill="none" stroke="black" d="M2103,-4707.56C2103,-4656.42 2103,-4506.55 2103,-4444.45"/>
<polygon fill="black" stroke="black" points="2106.5,-4444.25 2103,-4434.25 2099.5,-4444.25 2106.5,-4444.25"/>
</g>
<!-- u59&#45;&gt;u56 -->
<g id="edge95" class="edge">
<title>u59&#45;&gt;u56</title>
<path fill="none" stroke="black" d="M2112.71,-4708C2141.92,-4656.89 2229.09,-4504.33 2264.15,-4442.98"/>
<polygon fill="black" stroke="black" points="2267.39,-4444.36 2269.32,-4433.95 2261.32,-4440.89 2267.39,-4444.36"/>
</g>
<!-- u59&#45;&gt;u53 -->
<g id="edge93" class="edge">
<title>u59&#45;&gt;u53</title>
<path fill="none" stroke="black" d="M2167.02,-4711.33C2282.95,-4682.76 2525.13,-4604.7 2628,-4434 2817.5,-4119.55 2690.92,-3633.3 2655.44,-3514.07"/>
<polygon fill="black" stroke="black" points="2658.73,-3512.86 2652.49,-3504.3 2652.03,-3514.88 2658.73,-3512.86"/>
</g>
<!-- u59&#45;&gt;u49 -->
<g id="edge92" class="edge">
<title>u59&#45;&gt;u49</title>
<path fill="none" stroke="black" d="M2124.95,-4708.22C2192.62,-4656.5 2398.11,-4499.46 2475.81,-4440.07"/>
<polygon fill="black" stroke="black" points="2477.96,-4442.84 2483.78,-4433.98 2473.71,-4437.27 2477.96,-4442.84"/>
</g>
</g>
</svg>
