<?xml version="1.0" encoding="UTF-8" standalone="no"?>
<!DOCTYPE svg PUBLIC "-//W3C//DTD SVG 1.1//EN"
 "http://www.w3.org/Graphics/SVG/1.1/DTD/svg11.dtd">
<!-- Generated by graphviz version 2.43.0 (0)
 -->
<!-- Title: G Pages: 1 -->
<svg width="432pt" height="281pt"
 viewBox="0.00 0.00 432.00 281.19" xmlns="http://www.w3.org/2000/svg" xmlns:xlink="http://www.w3.org/1999/xlink">
<g id="graph0" class="graph" transform="scale(0.11 0.11) rotate(0) translate(4 2604.67)">
<title>G</title>
<polygon fill="white" stroke="transparent" points="-4,4 -4,-2604.67 4003.71,-2604.67 4003.71,4 -4,4"/>
<!-- u30 -->
<g id="node1" class="node">
<title>u30</title>
<ellipse fill="#bbffbb" stroke="black" cx="527.77" cy="-1606" rx="79.09" ry="18"/>
<text text-anchor="middle" x="527.77" y="-1602.3" font-family="Times,serif" font-size="14.00">Drasil.DocDecl</text>
</g>
<!-- u4 -->
<g id="node14" class="node">
<title>u4</title>
<ellipse fill="#ffbbbb" stroke="black" cx="472.77" cy="-994" rx="159.47" ry="18"/>
<text text-anchor="middle" x="472.77" y="-990.3" font-family="Times,serif" font-size="14.00">Drasil.DocumentLanguage.Core</text>
</g>
<!-- u30&#45;&gt;u4 -->
<g id="edge62" class="edge">
<title>u30&#45;&gt;u4</title>
<path fill="none" stroke="black" d="M472.16,-1593.11C361.97,-1566.22 117.91,-1489.25 17.77,-1318 -78.16,-1153.93 240.19,-1051.63 394.17,-1012.79"/>
<polygon fill="black" stroke="black" points="395.21,-1016.13 404.07,-1010.32 393.52,-1009.34 395.21,-1016.13"/>
</g>
<!-- u25 -->
<g id="node2" class="node">
<title>u25</title>
<ellipse fill="#bbffbb" stroke="black" cx="2051.77" cy="-2218" rx="81.79" ry="18"/>
<text text-anchor="middle" x="2051.77" y="-2214.3" font-family="Times,serif" font-size="14.00">Drasil.DocLang</text>
</g>
<!-- u21 -->
<g id="node6" class="node">
<title>u21</title>
<ellipse fill="#bbffbb" stroke="black" cx="2051.77" cy="-1912" rx="133.78" ry="18"/>
<text text-anchor="middle" x="2051.77" y="-1908.3" font-family="Times,serif" font-size="14.00">Drasil.DocumentLanguage</text>
</g>
<!-- u25&#45;&gt;u21 -->
<g id="edge53" class="edge">
<title>u25&#45;&gt;u21</title>
<path fill="none" stroke="black" d="M2051.77,-2199.78C2051.77,-2149.31 2051.77,-2001.39 2051.77,-1940.09"/>
<polygon fill="black" stroke="black" points="2055.27,-1940.03 2051.77,-1930.03 2048.27,-1940.03 2055.27,-1940.03"/>
</g>
<!-- u24 -->
<g id="node3" class="node">
<title>u24</title>
<ellipse fill="#bbffbb" stroke="black" cx="2051.77" cy="-2524" rx="108.58" ry="18"/>
<text text-anchor="middle" x="2051.77" y="-2520.3" font-family="Times,serif" font-size="14.00">Drasil.SRSDocument</text>
</g>
<!-- u24&#45;&gt;u25 -->
<g id="edge52" class="edge">
<title>u24&#45;&gt;u25</title>
<path fill="none" stroke="black" d="M2051.77,-2505.78C2051.77,-2455.31 2051.77,-2307.39 2051.77,-2246.09"/>
<polygon fill="black" stroke="black" points="2055.27,-2246.03 2051.77,-2236.03 2048.27,-2246.03 2055.27,-2246.03"/>
</g>
<!-- u23 -->
<g id="node4" class="node">
<title>u23</title>
<ellipse fill="#bbffbb" stroke="black" cx="1202.77" cy="-1606" rx="116.18" ry="18"/>
<text text-anchor="middle" x="1202.77" y="-1602.3" font-family="Times,serif" font-size="14.00">Drasil.ExtractDocDesc</text>
</g>
<!-- u23&#45;&gt;u4 -->
<g id="edge50" class="edge">
<title>u23&#45;&gt;u4</title>
<path fill="none" stroke="black" d="M1106.71,-1595.84C854.95,-1569.66 186.43,-1485.37 55.77,-1318 -57.08,-1173.43 261.86,-1057.38 406.06,-1013.7"/>
<polygon fill="black" stroke="black" points="407.14,-1017.03 415.71,-1010.81 405.13,-1010.33 407.14,-1017.03"/>
</g>
<!-- u18 -->
<g id="node19" class="node">
<title>u18</title>
<ellipse fill="#ffbbff" stroke="black" cx="1322.77" cy="-1300" rx="207.96" ry="18"/>
<text text-anchor="middle" x="1322.77" y="-1296.3" font-family="Times,serif" font-size="14.00">Drasil.Sections.SpecificSystemDescription</text>
</g>
<!-- u23&#45;&gt;u18 -->
<g id="edge51" class="edge">
<title>u23&#45;&gt;u18</title>
<path fill="none" stroke="black" d="M1209.57,-1587.78C1229.58,-1537.1 1288.37,-1388.16 1312.38,-1327.33"/>
<polygon fill="black" stroke="black" points="1315.64,-1328.61 1316.05,-1318.03 1309.13,-1326.04 1315.64,-1328.61"/>
</g>
<!-- u22 -->
<g id="node5" class="node">
<title>u22</title>
<ellipse fill="#bbffbb" stroke="black" cx="1429.77" cy="-1606" rx="92.08" ry="18"/>
<text text-anchor="middle" x="1429.77" y="-1602.3" font-family="Times,serif" font-size="14.00">Drasil.TraceTable</text>
</g>
<!-- u22&#45;&gt;u4 -->
<g id="edge49" class="edge">
<title>u22&#45;&gt;u4</title>
<path fill="none" stroke="black" d="M1364.2,-1593.32C1100.57,-1546.07 130.15,-1369.17 88.77,-1318 -21.31,-1181.86 278.1,-1060.41 411.91,-1014.49"/>
<polygon fill="black" stroke="black" points="413.3,-1017.71 421.64,-1011.18 411.04,-1011.09 413.3,-1017.71"/>
</g>
<!-- u21&#45;&gt;u30 -->
<g id="edge48" class="edge">
<title>u21&#45;&gt;u30</title>
<path fill="none" stroke="black" d="M1980.31,-1896.75C1723.04,-1845.42 846.05,-1670.49 595.27,-1620.46"/>
<polygon fill="black" stroke="black" points="595.69,-1616.98 585.2,-1618.46 594.32,-1623.84 595.69,-1616.98"/>
</g>
<!-- u21&#45;&gt;u23 -->
<g id="edge46" class="edge">
<title>u21&#45;&gt;u23</title>
<path fill="none" stroke="black" d="M2007.03,-1894.98C1863.13,-1843.45 1412.58,-1682.13 1256.58,-1626.27"/>
<polygon fill="black" stroke="black" points="1257.33,-1622.82 1246.74,-1622.74 1254.97,-1629.41 1257.33,-1622.82"/>
</g>
<!-- u21&#45;&gt;u22 -->
<g id="edge45" class="edge">
<title>u21&#45;&gt;u22</title>
<path fill="none" stroke="black" d="M2017.89,-1894.44C1912.11,-1842.74 1588.12,-1684.39 1471.86,-1627.57"/>
<polygon fill="black" stroke="black" points="1473.08,-1624.27 1462.56,-1623.02 1470,-1630.56 1473.08,-1624.27"/>
</g>
<!-- u27 -->
<g id="node9" class="node">
<title>u27</title>
<ellipse fill="#ffffbb" stroke="black" cx="1676.77" cy="-1606" rx="136.48" ry="18"/>
<text text-anchor="middle" x="1676.77" y="-1602.3" font-family="Times,serif" font-size="14.00">Drasil.DocLang.References</text>
</g>
<!-- u21&#45;&gt;u27 -->
<g id="edge47" class="edge">
<title>u21&#45;&gt;u27</title>
<path fill="none" stroke="black" d="M2030.81,-1894C1967.54,-1842.71 1778.41,-1689.39 1705.7,-1630.45"/>
<polygon fill="black" stroke="black" points="1707.8,-1627.64 1697.82,-1624.06 1703.39,-1633.08 1707.8,-1627.64"/>
</g>
<!-- u2 -->
<g id="node16" class="node">
<title>u2</title>
<ellipse fill="#ffbbbb" stroke="black" cx="2051.77" cy="-1606" rx="220.96" ry="18"/>
<text text-anchor="middle" x="2051.77" y="-1602.3" font-family="Times,serif" font-size="14.00">Drasil.DocumentLanguage.TraceabilityGraph</text>
</g>
<!-- u21&#45;&gt;u2 -->
<g id="edge40" class="edge">
<title>u21&#45;&gt;u2</title>
<path fill="none" stroke="black" d="M2051.77,-1893.78C2051.77,-1843.31 2051.77,-1695.39 2051.77,-1634.09"/>
<polygon fill="black" stroke="black" points="2055.27,-1634.03 2051.77,-1624.03 2048.27,-1634.03 2055.27,-1634.03"/>
</g>
<!-- u16 -->
<g id="node21" class="node">
<title>u16</title>
<ellipse fill="#ffbbff" stroke="black" cx="3226.77" cy="-1300" rx="163.27" ry="18"/>
<text text-anchor="middle" x="3226.77" y="-1296.3" font-family="Times,serif" font-size="14.00">Drasil.Sections.GeneralSystDesc</text>
</g>
<!-- u21&#45;&gt;u16 -->
<g id="edge44" class="edge">
<title>u21&#45;&gt;u16</title>
<path fill="none" stroke="black" d="M2083.81,-1894.37C2248.58,-1808.83 2999.96,-1418.75 3185.34,-1322.51"/>
<polygon fill="black" stroke="black" points="3187.23,-1325.47 3194.49,-1317.76 3184,-1319.26 3187.23,-1325.47"/>
</g>
<!-- u15 -->
<g id="node22" class="node">
<title>u15</title>
<ellipse fill="#ffbbff" stroke="black" cx="2884.77" cy="-1300" rx="161.37" ry="18"/>
<text text-anchor="middle" x="2884.77" y="-1296.3" font-family="Times,serif" font-size="14.00">Drasil.Sections.TableOfContents</text>
</g>
<!-- u21&#45;&gt;u15 -->
<g id="edge43" class="edge">
<title>u21&#45;&gt;u15</title>
<path fill="none" stroke="black" d="M2074.92,-1894.05C2192.04,-1808.28 2718.98,-1422.41 2853.46,-1323.93"/>
<polygon fill="black" stroke="black" points="2855.74,-1326.6 2861.74,-1317.87 2851.6,-1320.95 2855.74,-1326.6"/>
</g>
<!-- u9 -->
<g id="node28" class="node">
<title>u9</title>
<ellipse fill="#ffbbff" stroke="black" cx="3549.77" cy="-1300" rx="141.88" ry="18"/>
<text text-anchor="middle" x="3549.77" y="-1296.3" font-family="Times,serif" font-size="14.00">Drasil.Sections.Introduction</text>
</g>
<!-- u21&#45;&gt;u9 -->
<g id="edge42" class="edge">
<title>u21&#45;&gt;u9</title>
<path fill="none" stroke="black" d="M2091.84,-1894.68C2301.24,-1809.42 3268.92,-1415.37 3500.08,-1321.24"/>
<polygon fill="black" stroke="black" points="3501.64,-1324.38 3509.58,-1317.37 3499,-1317.9 3501.64,-1324.38"/>
</g>
<!-- u7 -->
<g id="node30" class="node">
<title>u7</title>
<ellipse fill="#ffbbff" stroke="black" cx="3854.77" cy="-1300" rx="144.87" ry="18"/>
<text text-anchor="middle" x="3854.77" y="-1296.3" font-family="Times,serif" font-size="14.00">Drasil.Sections.Stakeholders</text>
</g>
<!-- u21&#45;&gt;u7 -->
<g id="edge41" class="edge">
<title>u21&#45;&gt;u7</title>
<path fill="none" stroke="black" d="M2099.07,-1895C2349.89,-1810.14 3523.24,-1413.17 3797.39,-1320.41"/>
<polygon fill="black" stroke="black" points="3798.79,-1323.64 3807.14,-1317.12 3796.54,-1317.01 3798.79,-1323.64"/>
</g>
<!-- u19 -->
<g id="node7" class="node">
<title>u19</title>
<ellipse fill="#bbffbb" stroke="black" cx="1664.77" cy="-382" rx="92.88" ry="18"/>
<text text-anchor="middle" x="1664.77" y="-378.3" font-family="Times,serif" font-size="14.00">Drasil.GetChunks</text>
</g>
<!-- u28 -->
<g id="node8" class="node">
<title>u28</title>
<ellipse fill="#ffffbb" stroke="black" cx="959.77" cy="-382" rx="129.18" ry="18"/>
<text text-anchor="middle" x="959.77" y="-378.3" font-family="Times,serif" font-size="14.00">Drasil.DocLang.Notebook</text>
</g>
<!-- u27&#45;&gt;u18 -->
<g id="edge60" class="edge">
<title>u27&#45;&gt;u18</title>
<path fill="none" stroke="black" d="M1656.98,-1588C1597.38,-1536.82 1419.44,-1384.01 1350.5,-1324.81"/>
<polygon fill="black" stroke="black" points="1352.51,-1321.92 1342.64,-1318.06 1347.95,-1327.23 1352.51,-1321.92"/>
</g>
<!-- u17 -->
<g id="node20" class="node">
<title>u17</title>
<ellipse fill="#ffbbff" stroke="black" cx="242.77" cy="-1300" rx="144.87" ry="18"/>
<text text-anchor="middle" x="242.77" y="-1296.3" font-family="Times,serif" font-size="14.00">Drasil.Sections.TableOfUnits</text>
</g>
<!-- u27&#45;&gt;u17 -->
<g id="edge59" class="edge">
<title>u27&#45;&gt;u17</title>
<path fill="none" stroke="black" d="M1608.09,-1590.44C1369.51,-1539.86 577.36,-1371.93 322.5,-1317.9"/>
<polygon fill="black" stroke="black" points="323.09,-1314.45 312.58,-1315.8 321.63,-1321.3 323.09,-1314.45"/>
</g>
<!-- u13 -->
<g id="node24" class="node">
<title>u13</title>
<ellipse fill="#ffbbff" stroke="black" cx="564.77" cy="-1300" rx="159.47" ry="18"/>
<text text-anchor="middle" x="564.77" y="-1296.3" font-family="Times,serif" font-size="14.00">Drasil.Sections.TableOfSymbols</text>
</g>
<!-- u27&#45;&gt;u13 -->
<g id="edge58" class="edge">
<title>u27&#45;&gt;u13</title>
<path fill="none" stroke="black" d="M1620.1,-1589.51C1432.95,-1538.34 835.08,-1374.9 632.58,-1319.54"/>
<polygon fill="black" stroke="black" points="633.24,-1316.09 622.67,-1316.83 631.39,-1322.84 633.24,-1316.09"/>
</g>
<!-- u12 -->
<g id="node25" class="node">
<title>u12</title>
<ellipse fill="#ffbbff" stroke="black" cx="919.77" cy="-1300" rx="177.37" ry="18"/>
<text text-anchor="middle" x="919.77" y="-1296.3" font-family="Times,serif" font-size="14.00">Drasil.Sections.TraceabilityMandGs</text>
</g>
<!-- u27&#45;&gt;u12 -->
<g id="edge57" class="edge">
<title>u27&#45;&gt;u12</title>
<path fill="none" stroke="black" d="M1636.34,-1588.76C1508.3,-1537.35 1111.9,-1378.16 970.52,-1321.38"/>
<polygon fill="black" stroke="black" points="971.77,-1318.11 961.18,-1317.63 969.16,-1324.6 971.77,-1318.11"/>
</g>
<!-- u11 -->
<g id="node26" class="node">
<title>u11</title>
<ellipse fill="#ffbbff" stroke="black" cx="1749.77" cy="-1300" rx="201.46" ry="18"/>
<text text-anchor="middle" x="1749.77" y="-1296.3" font-family="Times,serif" font-size="14.00">Drasil.Sections.TableOfAbbAndAcronyms</text>
</g>
<!-- u27&#45;&gt;u11 -->
<g id="edge56" class="edge">
<title>u27&#45;&gt;u11</title>
<path fill="none" stroke="black" d="M1680.91,-1587.78C1693.03,-1537.31 1728.55,-1389.39 1743.27,-1328.09"/>
<polygon fill="black" stroke="black" points="1746.75,-1328.57 1745.69,-1318.03 1739.95,-1326.93 1746.75,-1328.57"/>
</g>
<!-- u10 -->
<g id="node27" class="node">
<title>u10</title>
<ellipse fill="#ffbbff" stroke="black" cx="2178.77" cy="-1300" rx="172.47" ry="18"/>
<text text-anchor="middle" x="2178.77" y="-1296.3" font-family="Times,serif" font-size="14.00">Drasil.Sections.AuxiliaryConstants</text>
</g>
<!-- u27&#45;&gt;u10 -->
<g id="edge55" class="edge">
<title>u27&#45;&gt;u10</title>
<path fill="none" stroke="black" d="M1704.48,-1588.22C1789.4,-1536.79 2046.13,-1381.33 2142.07,-1323.22"/>
<polygon fill="black" stroke="black" points="2144.11,-1326.09 2150.85,-1317.91 2140.48,-1320.1 2144.11,-1326.09"/>
</g>
<!-- u8 -->
<g id="node29" class="node">
<title>u8</title>
<ellipse fill="#ffbbff" stroke="black" cx="2518.77" cy="-1300" rx="149.47" ry="18"/>
<text text-anchor="middle" x="2518.77" y="-1296.3" font-family="Times,serif" font-size="14.00">Drasil.Sections.Requirements</text>
</g>
<!-- u27&#45;&gt;u8 -->
<g id="edge54" class="edge">
<title>u27&#45;&gt;u8</title>
<path fill="none" stroke="black" d="M1721.15,-1588.98C1863.45,-1537.6 2308.1,-1377.06 2464.05,-1320.76"/>
<polygon fill="black" stroke="black" points="2465.69,-1323.89 2473.9,-1317.2 2463.31,-1317.3 2465.69,-1323.89"/>
</g>
<!-- u26 -->
<g id="node10" class="node">
<title>u26</title>
<ellipse fill="#ffffbb" stroke="black" cx="2789.77" cy="-994" rx="104.78" ry="18"/>
<text text-anchor="middle" x="2789.77" y="-990.3" font-family="Times,serif" font-size="14.00">Drasil.DocLang.SRS</text>
</g>
<!-- u29 -->
<g id="node11" class="node">
<title>u29</title>
<ellipse fill="#bbbbff" stroke="black" cx="2378.77" cy="-382" rx="133.78" ry="18"/>
<text text-anchor="middle" x="2378.77" y="-378.3" font-family="Times,serif" font-size="14.00">Drasil.Document.Contents</text>
</g>
<!-- u20 -->
<g id="node31" class="node">
<title>u20</title>
<ellipse fill="#77ff77" stroke="black" cx="2459.77" cy="-76" rx="146.77" ry="18"/>
<text text-anchor="middle" x="2459.77" y="-72.3" font-family="Times,serif" font-size="14.00">Drasil.Sentence.Combinators</text>
</g>
<!-- u29&#45;&gt;u20 -->
<g id="edge61" class="edge">
<title>u29&#45;&gt;u20</title>
<path fill="none" stroke="black" d="M2383.36,-363.78C2396.84,-313.2 2436.39,-164.78 2452.66,-103.71"/>
<polygon fill="black" stroke="black" points="2456.04,-104.59 2455.24,-94.03 2449.28,-102.79 2456.04,-104.59"/>
</g>
<!-- u6 -->
<g id="node12" class="node">
<title>u6</title>
<ellipse fill="#ffbbbb" stroke="black" cx="1294.77" cy="-688" rx="181.17" ry="18"/>
<text text-anchor="middle" x="1294.77" y="-684.3" font-family="Times,serif" font-size="14.00">Drasil.DocumentLanguage.Notebook</text>
</g>
<!-- u6&#45;&gt;u19 -->
<g id="edge10" class="edge">
<title>u6&#45;&gt;u19</title>
<path fill="none" stroke="black" d="M1315.46,-670C1377.91,-618.7 1564.61,-465.3 1636.3,-406.39"/>
<polygon fill="black" stroke="black" points="1638.96,-408.74 1644.46,-399.69 1634.51,-403.33 1638.96,-408.74"/>
</g>
<!-- u6&#45;&gt;u28 -->
<g id="edge11" class="edge">
<title>u6&#45;&gt;u28</title>
<path fill="none" stroke="black" d="M1275.8,-669.78C1219.14,-618.37 1051.06,-465.84 985.95,-406.76"/>
<polygon fill="black" stroke="black" points="988.29,-404.15 978.54,-400.03 983.59,-409.34 988.29,-404.15"/>
</g>
<!-- u0 -->
<g id="node18" class="node">
<title>u0</title>
<ellipse fill="#bbffff" stroke="black" cx="1312.77" cy="-382" rx="206.06" ry="18"/>
<text text-anchor="middle" x="1312.77" y="-378.3" font-family="Times,serif" font-size="14.00">Drasil.DocumentLanguage.Notebook.Core</text>
</g>
<!-- u6&#45;&gt;u0 -->
<g id="edge9" class="edge">
<title>u6&#45;&gt;u0</title>
<path fill="none" stroke="black" d="M1295.79,-669.78C1298.78,-619.31 1307.54,-471.39 1311.17,-410.09"/>
<polygon fill="black" stroke="black" points="1314.67,-410.22 1311.77,-400.03 1307.68,-409.8 1314.67,-410.22"/>
</g>
<!-- u5 -->
<g id="node13" class="node">
<title>u5</title>
<ellipse fill="#ffbbbb" stroke="black" cx="1681.77" cy="-688" rx="187.37" ry="18"/>
<text text-anchor="middle" x="1681.77" y="-684.3" font-family="Times,serif" font-size="14.00">Drasil.DocumentLanguage.Definitions</text>
</g>
<!-- u5&#45;&gt;u19 -->
<g id="edge7" class="edge">
<title>u5&#45;&gt;u19</title>
<path fill="none" stroke="black" d="M1680.81,-669.78C1677.99,-619.31 1669.72,-471.39 1666.29,-410.09"/>
<polygon fill="black" stroke="black" points="1669.78,-409.82 1665.73,-400.03 1662.79,-410.21 1669.78,-409.82"/>
</g>
<!-- u5&#45;&gt;u29 -->
<g id="edge8" class="edge">
<title>u5&#45;&gt;u29</title>
<path fill="none" stroke="black" d="M1720.24,-670.22C1839.4,-618.25 2202.19,-460.02 2331.98,-403.41"/>
<polygon fill="black" stroke="black" points="2333.51,-406.56 2341.28,-399.35 2330.71,-400.14 2333.51,-406.56"/>
</g>
<!-- u3 -->
<g id="node15" class="node">
<title>u3</title>
<ellipse fill="#ffbbbb" stroke="black" cx="2064.77" cy="-382" rx="162.47" ry="18"/>
<text text-anchor="middle" x="2064.77" y="-378.3" font-family="Times,serif" font-size="14.00">Drasil.DocumentLanguage.Units</text>
</g>
<!-- u5&#45;&gt;u3 -->
<g id="edge6" class="edge">
<title>u5&#45;&gt;u3</title>
<path fill="none" stroke="black" d="M1703.19,-670C1767.81,-618.71 1960.97,-465.39 2035.23,-406.45"/>
<polygon fill="black" stroke="black" points="2037.62,-409.02 2043.28,-400.06 2033.27,-403.54 2037.62,-409.02"/>
</g>
<!-- u4&#45;&gt;u5 -->
<g id="edge5" class="edge">
<title>u4&#45;&gt;u5</title>
<path fill="none" stroke="black" d="M534.81,-977.4C738.85,-926.1 1388.61,-762.71 1608.35,-707.46"/>
<polygon fill="black" stroke="black" points="1609.33,-710.83 1618.17,-704.99 1607.62,-704.04 1609.33,-710.83"/>
</g>
<!-- u2&#45;&gt;u26 -->
<g id="edge4" class="edge">
<title>u2&#45;&gt;u26</title>
<path fill="none" stroke="black" d="M2132.88,-1589.2C2265.09,-1559.32 2527.28,-1482.24 2676.77,-1318 2756.58,-1230.32 2780.63,-1083.04 2787.36,-1022.38"/>
<polygon fill="black" stroke="black" points="2790.87,-1022.4 2788.42,-1012.09 2783.91,-1021.68 2790.87,-1022.4"/>
</g>
<!-- u14 -->
<g id="node23" class="node">
<title>u14</title>
<ellipse fill="#ffbbff" stroke="black" cx="1978.77" cy="-994" rx="170.07" ry="18"/>
<text text-anchor="middle" x="1978.77" y="-990.3" font-family="Times,serif" font-size="14.00">Drasil.Sections.ReferenceMaterial</text>
</g>
<!-- u2&#45;&gt;u14 -->
<g id="edge3" class="edge">
<title>u2&#45;&gt;u14</title>
<path fill="none" stroke="black" d="M2047.78,-1587.97C2037.59,-1543.74 2010.49,-1421.41 1997.77,-1318 1984.37,-1209.02 1980.36,-1078.15 1979.21,-1022.36"/>
<polygon fill="black" stroke="black" points="1982.71,-1022.16 1979.02,-1012.23 1975.71,-1022.29 1982.71,-1022.16"/>
</g>
<!-- u2&#45;&gt;u12 -->
<g id="edge2" class="edge">
<title>u2&#45;&gt;u12</title>
<path fill="none" stroke="black" d="M1990.91,-1588.66C1796.96,-1536.57 1194.17,-1374.69 988.98,-1319.59"/>
<polygon fill="black" stroke="black" points="989.79,-1316.18 979.22,-1316.96 987.97,-1322.94 989.79,-1316.18"/>
</g>
<!-- u1 -->
<g id="node17" class="node">
<title>u1</title>
<ellipse fill="#ffbbbb" stroke="black" cx="1011.77" cy="-994" rx="223.66" ry="18"/>
<text text-anchor="middle" x="1011.77" y="-990.3" font-family="Times,serif" font-size="14.00">Drasil.DocumentLanguage.TraceabilityMatrix</text>
</g>
<!-- u1&#45;&gt;u5 -->
<g id="edge1" class="edge">
<title>u1&#45;&gt;u5</title>
<path fill="none" stroke="black" d="M1048.75,-976.22C1162.92,-924.42 1509.7,-767.07 1635.54,-709.98"/>
<polygon fill="black" stroke="black" points="1637.25,-713.04 1644.91,-705.73 1634.36,-706.67 1637.25,-713.04"/>
</g>
<!-- u18&#45;&gt;u26 -->
<g id="edge39" class="edge">
<title>u18&#45;&gt;u26</title>
<path fill="none" stroke="black" d="M1398.81,-1283.24C1652.01,-1230.77 2464.68,-1062.37 2715.4,-1010.41"/>
<polygon fill="black" stroke="black" points="2716.42,-1013.78 2725.5,-1008.32 2715,-1006.92 2716.42,-1013.78"/>
</g>
<!-- u18&#45;&gt;u5 -->
<g id="edge37" class="edge">
<title>u18&#45;&gt;u5</title>
<path fill="none" stroke="black" d="M1332.94,-1281.73C1383.29,-1196.18 1605.92,-817.89 1666.51,-714.94"/>
<polygon fill="black" stroke="black" points="1669.64,-716.52 1671.7,-706.12 1663.61,-712.97 1669.64,-716.52"/>
</g>
<!-- u18&#45;&gt;u14 -->
<g id="edge38" class="edge">
<title>u18&#45;&gt;u14</title>
<path fill="none" stroke="black" d="M1358.98,-1282.22C1470.76,-1230.42 1810.3,-1073.07 1933.5,-1015.98"/>
<polygon fill="black" stroke="black" points="1935.08,-1019.11 1942.68,-1011.73 1932.14,-1012.75 1935.08,-1019.11"/>
</g>
<!-- u17&#45;&gt;u4 -->
<g id="edge35" class="edge">
<title>u17&#45;&gt;u4</title>
<path fill="none" stroke="black" d="M255.8,-1281.78C294.38,-1230.79 408.23,-1080.32 453.7,-1020.22"/>
<polygon fill="black" stroke="black" points="456.65,-1022.11 459.89,-1012.03 451.07,-1017.89 456.65,-1022.11"/>
</g>
<!-- u17&#45;&gt;u14 -->
<g id="edge36" class="edge">
<title>u17&#45;&gt;u14</title>
<path fill="none" stroke="black" d="M323.02,-1284.95C609.01,-1234.87 1577.66,-1065.24 1884.64,-1011.48"/>
<polygon fill="black" stroke="black" points="1885.59,-1014.87 1894.84,-1009.7 1884.39,-1007.98 1885.59,-1014.87"/>
</g>
<!-- u16&#45;&gt;u26 -->
<g id="edge33" class="edge">
<title>u16&#45;&gt;u26</title>
<path fill="none" stroke="black" d="M3202.34,-1282C3128.21,-1230.44 2905.83,-1075.74 2822.12,-1017.5"/>
<polygon fill="black" stroke="black" points="2823.97,-1014.53 2813.77,-1011.69 2819.98,-1020.27 2823.97,-1014.53"/>
</g>
<!-- u16&#45;&gt;u29 -->
<g id="edge34" class="edge">
<title>u16&#45;&gt;u29</title>
<path fill="none" stroke="black" d="M3210.96,-1281.92C3107.25,-1169.89 2524.62,-540.54 2401.59,-407.65"/>
<polygon fill="black" stroke="black" points="2403.84,-404.92 2394.48,-399.96 2398.7,-409.68 2403.84,-404.92"/>
</g>
<!-- u16&#45;&gt;u14 -->
<g id="edge32" class="edge">
<title>u16&#45;&gt;u14</title>
<path fill="none" stroke="black" d="M3162.74,-1283.4C2951.64,-1231.98 2278.38,-1067.98 2053.05,-1013.09"/>
<polygon fill="black" stroke="black" points="2053.85,-1009.68 2043.3,-1010.72 2052.19,-1016.49 2053.85,-1009.68"/>
</g>
<!-- u15&#45;&gt;u26 -->
<g id="edge31" class="edge">
<title>u15&#45;&gt;u26</title>
<path fill="none" stroke="black" d="M2879.39,-1281.78C2863.59,-1231.2 2817.2,-1082.78 2798.12,-1021.71"/>
<polygon fill="black" stroke="black" points="2801.42,-1020.53 2795.1,-1012.03 2794.74,-1022.62 2801.42,-1020.53"/>
</g>
<!-- u15&#45;&gt;u4 -->
<g id="edge30" class="edge">
<title>u15&#45;&gt;u4</title>
<path fill="none" stroke="black" d="M2782.29,-1286.08C2390.93,-1236.76 992.25,-1060.47 584.87,-1009.13"/>
<polygon fill="black" stroke="black" points="585.2,-1005.64 574.85,-1007.86 584.33,-1012.59 585.2,-1005.64"/>
</g>
<!-- u13&#45;&gt;u4 -->
<g id="edge28" class="edge">
<title>u13&#45;&gt;u4</title>
<path fill="none" stroke="black" d="M559.56,-1281.78C544.26,-1231.2 499.34,-1082.78 480.86,-1021.71"/>
<polygon fill="black" stroke="black" points="484.17,-1020.58 477.93,-1012.03 477.47,-1022.61 484.17,-1020.58"/>
</g>
<!-- u13&#45;&gt;u14 -->
<g id="edge29" class="edge">
<title>u13&#45;&gt;u14</title>
<path fill="none" stroke="black" d="M635.38,-1283.82C873.12,-1232.71 1643.75,-1067.03 1897.17,-1012.54"/>
<polygon fill="black" stroke="black" points="1898,-1015.94 1907.05,-1010.42 1896.53,-1009.1 1898,-1015.94"/>
</g>
<!-- u12&#45;&gt;u4 -->
<g id="edge27" class="edge">
<title>u12&#45;&gt;u4</title>
<path fill="none" stroke="black" d="M894.78,-1282C818.97,-1230.45 591.56,-1075.78 505.9,-1017.53"/>
<polygon fill="black" stroke="black" points="507.83,-1014.61 497.59,-1011.88 503.89,-1020.39 507.83,-1014.61"/>
</g>
<!-- u12&#45;&gt;u1 -->
<g id="edge26" class="edge">
<title>u12&#45;&gt;u1</title>
<path fill="none" stroke="black" d="M924.98,-1281.78C940.29,-1231.2 985.21,-1082.78 1003.69,-1021.71"/>
<polygon fill="black" stroke="black" points="1007.07,-1022.61 1006.62,-1012.03 1000.37,-1020.58 1007.07,-1022.61"/>
</g>
<!-- u11&#45;&gt;u14 -->
<g id="edge25" class="edge">
<title>u11&#45;&gt;u14</title>
<path fill="none" stroke="black" d="M1762.74,-1281.78C1801.16,-1230.79 1914.51,-1080.32 1959.78,-1020.22"/>
<polygon fill="black" stroke="black" points="1962.73,-1022.12 1965.95,-1012.03 1957.14,-1017.91 1962.73,-1022.12"/>
</g>
<!-- u10&#45;&gt;u26 -->
<g id="edge23" class="edge">
<title>u10&#45;&gt;u26</title>
<path fill="none" stroke="black" d="M2212.49,-1282.22C2316.76,-1230.34 2633.81,-1072.6 2748.12,-1015.72"/>
<polygon fill="black" stroke="black" points="2749.88,-1018.76 2757.27,-1011.17 2746.76,-1012.49 2749.88,-1018.76"/>
</g>
<!-- u10&#45;&gt;u29 -->
<g id="edge24" class="edge">
<title>u10&#45;&gt;u29</title>
<path fill="none" stroke="black" d="M2182.5,-1281.92C2206.82,-1170.57 2342.72,-548.14 2372.85,-410.11"/>
<polygon fill="black" stroke="black" points="2376.28,-410.85 2374.99,-400.33 2369.44,-409.35 2376.28,-410.85"/>
</g>
<!-- u10&#45;&gt;u3 -->
<g id="edge21" class="edge">
<title>u10&#45;&gt;u3</title>
<path fill="none" stroke="black" d="M2178.2,-1281.79C2176.49,-1233.47 2170.66,-1092.45 2157.77,-976 2133.5,-756.71 2085.77,-494.54 2069.98,-410.4"/>
<polygon fill="black" stroke="black" points="2073.38,-409.57 2068.09,-400.39 2066.5,-410.86 2073.38,-409.57"/>
</g>
<!-- u10&#45;&gt;u14 -->
<g id="edge22" class="edge">
<title>u10&#45;&gt;u14</title>
<path fill="none" stroke="black" d="M2167.45,-1281.78C2133.96,-1230.89 2035.31,-1080.93 1995.61,-1020.59"/>
<polygon fill="black" stroke="black" points="1998.4,-1018.46 1989.98,-1012.03 1992.55,-1022.3 1998.4,-1018.46"/>
</g>
<!-- u9&#45;&gt;u26 -->
<g id="edge20" class="edge">
<title>u9&#45;&gt;u26</title>
<path fill="none" stroke="black" d="M3508.91,-1282.66C3379.44,-1230.87 2978.61,-1070.53 2838.62,-1014.54"/>
<polygon fill="black" stroke="black" points="2839.59,-1011.16 2829,-1010.69 2836.99,-1017.65 2839.59,-1011.16"/>
</g>
<!-- u9&#45;&gt;u5 -->
<g id="edge18" class="edge">
<title>u9&#45;&gt;u5</title>
<path fill="none" stroke="black" d="M3522.17,-1282.23C3434.7,-1229.75 3154.63,-1066.76 2903.77,-976 2502.85,-830.94 2001.01,-739.98 1786.66,-705.15"/>
<polygon fill="black" stroke="black" points="1787.11,-701.67 1776.68,-703.53 1785.99,-708.58 1787.11,-701.67"/>
</g>
<!-- u9&#45;&gt;u14 -->
<g id="edge19" class="edge">
<title>u9&#45;&gt;u14</title>
<path fill="none" stroke="black" d="M3475.58,-1284.64C3215.75,-1234.36 2347.38,-1066.33 2066.93,-1012.06"/>
<polygon fill="black" stroke="black" points="2067.29,-1008.56 2056.8,-1010.1 2065.96,-1015.44 2067.29,-1008.56"/>
</g>
<!-- u8&#45;&gt;u26 -->
<g id="edge17" class="edge">
<title>u8&#45;&gt;u26</title>
<path fill="none" stroke="black" d="M2534.12,-1281.78C2579.68,-1230.68 2714.27,-1079.7 2767.62,-1019.85"/>
<polygon fill="black" stroke="black" points="2770.55,-1021.82 2774.6,-1012.03 2765.33,-1017.16 2770.55,-1021.82"/>
</g>
<!-- u8&#45;&gt;u3 -->
<g id="edge14" class="edge">
<title>u8&#45;&gt;u3</title>
<path fill="none" stroke="black" d="M2510.31,-1281.92C2455.01,-1170.35 2145.39,-545.64 2077.8,-409.29"/>
<polygon fill="black" stroke="black" points="2080.94,-407.73 2073.36,-400.33 2074.67,-410.84 2080.94,-407.73"/>
</g>
<!-- u8&#45;&gt;u14 -->
<g id="edge15" class="edge">
<title>u8&#45;&gt;u14</title>
<path fill="none" stroke="black" d="M2488.97,-1282.22C2397.33,-1230.63 2119.69,-1074.33 2017.27,-1016.67"/>
<polygon fill="black" stroke="black" points="2018.92,-1013.58 2008.48,-1011.73 2015.48,-1019.68 2018.92,-1013.58"/>
</g>
<!-- u8&#45;&gt;u20 -->
<g id="edge16" class="edge">
<title>u8&#45;&gt;u20</title>
<path fill="none" stroke="black" d="M2520.23,-1281.72C2527.85,-1188.15 2561.16,-732.82 2521.77,-364 2511.42,-266.99 2481.89,-154.62 2467.65,-104.08"/>
<polygon fill="black" stroke="black" points="2470.96,-102.92 2464.85,-94.26 2464.23,-104.84 2470.96,-102.92"/>
</g>
<!-- u7&#45;&gt;u26 -->
<g id="edge12" class="edge">
<title>u7&#45;&gt;u26</title>
<path fill="none" stroke="black" d="M3799.76,-1283.3C3618.57,-1231.58 3041.27,-1066.79 2851.15,-1012.52"/>
<polygon fill="black" stroke="black" points="2851.89,-1009.09 2841.32,-1009.71 2849.97,-1015.82 2851.89,-1009.09"/>
</g>
<!-- u7&#45;&gt;u29 -->
<g id="edge13" class="edge">
<title>u7&#45;&gt;u29</title>
<path fill="none" stroke="black" d="M3827.58,-1282.12C3646.78,-1169.92 2619.62,-532.47 2414.44,-405.13"/>
<polygon fill="black" stroke="black" points="2416.18,-402.09 2405.84,-399.8 2412.49,-408.04 2416.18,-402.09"/>
</g>
</g>
</svg>
