<?xml version="1.0" encoding="UTF-8" standalone="no"?>
<!DOCTYPE svg PUBLIC "-//W3C//DTD SVG 1.1//EN"
 "http://www.w3.org/Graphics/SVG/1.1/DTD/svg11.dtd">
<!-- Generated by graphviz version 2.43.0 (0)
 -->
<!-- Title: G Pages: 1 -->
<svg width="431pt" height="288pt"
 viewBox="0.00 0.00 430.53 288.00" xmlns="http://www.w3.org/2000/svg" xmlns:xlink="http://www.w3.org/1999/xlink">
<g id="graph0" class="graph" transform="scale(2.13 2.13) rotate(0) translate(4 608.67)">
<title>G</title>
<polygon fill="white" stroke="transparent" points="-4,4 -4,-608.67 911.88,-608.67 911.88,4 -4,4"/>
<!-- u0 -->
<g id="node1" class="node">
<title>u0</title>
<ellipse fill="#bbffbb" stroke="black" cx="436.74" cy="-571" rx="63.89" ry="18"/>
<text text-anchor="middle" x="436.74" y="-567.3" font-family="Times,serif" font-size="14.00">Utils.Drasil</text>
</g>
<!-- u9 -->
<g id="node3" class="node">
<title>u9</title>
<ellipse fill="#ffffbb" stroke="black" cx="100.74" cy="-437" rx="89.08" ry="18"/>
<text text-anchor="middle" x="100.74" y="-433.3" font-family="Times,serif" font-size="14.00">Utils.Drasil.Lists</text>
</g>
<!-- u0&#45;&gt;u9 -->
<g id="edge4" class="edge">
<title>u0&#45;&gt;u9</title>
<path fill="none" stroke="black" d="M401.1,-556C340.57,-532.22 217.62,-483.92 149.29,-457.07"/>
<polygon fill="black" stroke="black" points="150.21,-453.67 139.62,-453.27 147.65,-460.19 150.21,-453.67"/>
</g>
<!-- u8 -->
<g id="node4" class="node">
<title>u8</title>
<ellipse fill="#ffffbb" stroke="black" cx="316.74" cy="-437" rx="108.58" ry="18"/>
<text text-anchor="middle" x="316.74" y="-433.3" font-family="Times,serif" font-size="14.00">Utils.Drasil.Contents</text>
</g>
<!-- u0&#45;&gt;u8 -->
<g id="edge3" class="edge">
<title>u0&#45;&gt;u8</title>
<path fill="none" stroke="black" d="M421.54,-553.28C400.74,-530.4 363.24,-489.15 339.19,-462.7"/>
<polygon fill="black" stroke="black" points="341.51,-460.04 332.19,-455 336.33,-464.75 341.51,-460.04"/>
</g>
<!-- u4 -->
<g id="node8" class="node">
<title>u4</title>
<ellipse fill="#ffffbb" stroke="black" cx="557.74" cy="-437" rx="114.28" ry="18"/>
<text text-anchor="middle" x="557.74" y="-433.3" font-family="Times,serif" font-size="14.00">Utils.Drasil.Document</text>
</g>
<!-- u0&#45;&gt;u4 -->
<g id="edge2" class="edge">
<title>u0&#45;&gt;u4</title>
<path fill="none" stroke="black" d="M452.07,-553.28C473.04,-530.4 510.86,-489.15 535.1,-462.7"/>
<polygon fill="black" stroke="black" points="537.98,-464.74 542.16,-455 532.82,-460.01 537.98,-464.74"/>
</g>
<!-- u2 -->
<g id="node10" class="node">
<title>u2</title>
<ellipse fill="#ffffbb" stroke="black" cx="791.74" cy="-437" rx="102.08" ry="18"/>
<text text-anchor="middle" x="791.74" y="-433.3" font-family="Times,serif" font-size="14.00">Utils.Drasil.English</text>
</g>
<!-- u0&#45;&gt;u2 -->
<g id="edge1" class="edge">
<title>u0&#45;&gt;u2</title>
<path fill="none" stroke="black" d="M473.73,-556.25C537.55,-532.52 668.45,-483.85 740.82,-456.93"/>
<polygon fill="black" stroke="black" points="742.05,-460.21 750.2,-453.45 739.61,-453.65 742.05,-460.21"/>
</g>
<!-- u10 -->
<g id="node2" class="node">
<title>u10</title>
<ellipse fill="#ffffbb" stroke="black" cx="531.74" cy="-34" rx="109.68" ry="18"/>
<text text-anchor="middle" x="531.74" y="-30.3" font-family="Times,serif" font-size="14.00">Utils.Drasil.Sentence</text>
</g>
<!-- u6 -->
<g id="node6" class="node">
<title>u6</title>
<ellipse fill="#ffffbb" stroke="black" cx="316.74" cy="-302" rx="89.08" ry="18"/>
<text text-anchor="middle" x="316.74" y="-298.3" font-family="Times,serif" font-size="14.00">Utils.Drasil.Misc</text>
</g>
<!-- u8&#45;&gt;u6 -->
<g id="edge10" class="edge">
<title>u8&#45;&gt;u6</title>
<path fill="none" stroke="black" d="M316.74,-418.88C316.74,-396.44 316.74,-356.8 316.74,-330.21"/>
<polygon fill="black" stroke="black" points="320.24,-330.05 316.74,-320.05 313.24,-330.05 320.24,-330.05"/>
</g>
<!-- u7 -->
<g id="node5" class="node">
<title>u7</title>
<ellipse fill="#ffffbb" stroke="black" cx="316.74" cy="-168" rx="87.18" ry="18"/>
<text text-anchor="middle" x="316.74" y="-164.3" font-family="Times,serif" font-size="14.00">Utils.Drasil.Fold</text>
</g>
<!-- u7&#45;&gt;u10 -->
<g id="edge9" class="edge">
<title>u7&#45;&gt;u10</title>
<path fill="none" stroke="black" d="M343.1,-150.81C381.52,-127.23 453,-83.34 496.08,-56.89"/>
<polygon fill="black" stroke="black" points="498.13,-59.74 504.82,-51.53 494.47,-53.78 498.13,-59.74"/>
</g>
<!-- u6&#45;&gt;u7 -->
<g id="edge8" class="edge">
<title>u6&#45;&gt;u7</title>
<path fill="none" stroke="black" d="M316.74,-283.74C316.74,-261.51 316.74,-222.6 316.74,-196.32"/>
<polygon fill="black" stroke="black" points="320.24,-196.26 316.74,-186.26 313.24,-196.26 320.24,-196.26"/>
</g>
<!-- u5 -->
<g id="node7" class="node">
<title>u5</title>
<ellipse fill="#ffffbb" stroke="black" cx="531.74" cy="-168" rx="109.68" ry="18"/>
<text text-anchor="middle" x="531.74" y="-164.3" font-family="Times,serif" font-size="14.00">Utils.Drasil.Concepts</text>
</g>
<!-- u5&#45;&gt;u10 -->
<g id="edge7" class="edge">
<title>u5&#45;&gt;u10</title>
<path fill="none" stroke="black" d="M531.74,-149.74C531.74,-127.51 531.74,-88.6 531.74,-62.32"/>
<polygon fill="black" stroke="black" points="535.24,-62.26 531.74,-52.26 528.24,-62.26 535.24,-62.26"/>
</g>
<!-- u3 -->
<g id="node9" class="node">
<title>u3</title>
<ellipse fill="#ffffbb" stroke="black" cx="100.74" cy="-571" rx="100.98" ry="18"/>
<text text-anchor="middle" x="100.74" y="-567.3" font-family="Times,serif" font-size="14.00">Utils.Drasil.Strings</text>
</g>
<!-- u3&#45;&gt;u9 -->
<g id="edge6" class="edge">
<title>u3&#45;&gt;u9</title>
<path fill="none" stroke="black" d="M100.74,-552.74C100.74,-530.51 100.74,-491.6 100.74,-465.32"/>
<polygon fill="black" stroke="black" points="104.24,-465.26 100.74,-455.26 97.24,-465.26 104.24,-465.26"/>
</g>
<!-- u1 -->
<g id="node11" class="node">
<title>u1</title>
<ellipse fill="#ffffbb" stroke="black" cx="783.74" cy="-168" rx="124.28" ry="18"/>
<text text-anchor="middle" x="783.74" y="-164.3" font-family="Times,serif" font-size="14.00">Utils.Drasil.NounPhrase</text>
</g>
<!-- u1&#45;&gt;u10 -->
<g id="edge5" class="edge">
<title>u1&#45;&gt;u10</title>
<path fill="none" stroke="black" d="M752.33,-150.55C706.75,-126.67 622.24,-82.4 572.09,-56.14"/>
<polygon fill="black" stroke="black" points="573.63,-52.99 563.15,-51.45 570.38,-59.19 573.63,-52.99"/>
</g>
</g>
</svg>
