<?xml version="1.0" encoding="UTF-8" standalone="no"?>
<!DOCTYPE svg PUBLIC "-//W3C//DTD SVG 1.1//EN"
 "http://www.w3.org/Graphics/SVG/1.1/DTD/svg11.dtd">
<!-- Generated by graphviz version 2.43.0 (0)
 -->
<!-- Title: G Pages: 1 -->
<svg width="432pt" height="284pt"
 viewBox="0.00 0.00 432.00 283.90" xmlns="http://www.w3.org/2000/svg" xmlns:xlink="http://www.w3.org/1999/xlink">
<g id="graph0" class="graph" transform="scale(13.12 13.12) rotate(0) translate(4 3722)">
<title>G</title>
<polygon fill="white" stroke="transparent" points="-4,4 -4,-3722 5665.65,-3722 5665.65,4 -4,4"/>
<!-- u5 -->
<g id="node1" class="node">
<title>u5</title>
<ellipse fill="#bbffbb" stroke="black" cx="52.65" cy="-3397" rx="52.79" ry="18"/>
<text text-anchor="middle" x="52.65" y="-3393.3" font-family="Times,serif" font-size="14.00">FileTests</text>
</g>
<!-- u4 -->
<g id="node2" class="node">
<title>u4</title>
<ellipse fill="#bbffbb" stroke="black" cx="185.65" cy="-3141" rx="42.49" ry="18"/>
<text text-anchor="middle" x="185.65" y="-3137.3" font-family="Times,serif" font-size="14.00">Helper</text>
</g>
<!-- u3 -->
<g id="node3" class="node">
<title>u3</title>
<ellipse fill="#bbffbb" stroke="black" cx="258.65" cy="-3654" rx="34.39" ry="18"/>
<text text-anchor="middle" x="258.65" y="-3650.3" font-family="Times,serif" font-size="14.00">Main</text>
</g>
<!-- u3&#45;&gt;u5 -->
<g id="edge5" class="edge">
<title>u3&#45;&gt;u5</title>
<path fill="none" stroke="black" d="M245.76,-3637.05C210.88,-3593.88 114.45,-3474.51 72.53,-3422.62"/>
<polygon fill="black" stroke="black" points="75.07,-3420.18 66.06,-3414.61 69.62,-3424.58 75.07,-3420.18"/>
</g>
<!-- u2 -->
<g id="node4" class="node">
<title>u2</title>
<ellipse fill="#bbffbb" stroke="black" cx="185.65" cy="-3397" rx="62.29" ry="18"/>
<text text-anchor="middle" x="185.65" y="-3393.3" font-family="Times,serif" font-size="14.00">HelloWorld</text>
</g>
<!-- u3&#45;&gt;u2 -->
<g id="edge4" class="edge">
<title>u3&#45;&gt;u2</title>
<path fill="none" stroke="black" d="M253.74,-3635.87C241.3,-3592.41 208.43,-3477.58 193.37,-3424.99"/>
<polygon fill="black" stroke="black" points="196.64,-3423.7 190.53,-3415.05 189.91,-3425.63 196.64,-3423.7"/>
</g>
<!-- u0 -->
<g id="node6" class="node">
<title>u0</title>
<ellipse fill="#bbffbb" stroke="black" cx="330.65" cy="-3397" rx="64.99" ry="18"/>
<text text-anchor="middle" x="330.65" y="-3393.3" font-family="Times,serif" font-size="14.00">PatternTest</text>
</g>
<!-- u3&#45;&gt;u0 -->
<g id="edge3" class="edge">
<title>u3&#45;&gt;u0</title>
<path fill="none" stroke="black" d="M263.48,-3635.87C275.75,-3592.41 308.18,-3477.58 323.02,-3424.99"/>
<polygon fill="black" stroke="black" points="326.48,-3425.63 325.83,-3415.05 319.74,-3423.73 326.48,-3425.63"/>
</g>
<!-- u7 -->
<g id="node10" class="node">
<title>u7</title>
<ellipse fill="#bbbbff" stroke="black" cx="1823.65" cy="-3397" rx="113.18" ry="18"/>
<text text-anchor="middle" x="1823.65" y="-3393.3" font-family="Times,serif" font-size="14.00">Language.Drasil.Code</text>
</g>
<!-- u3&#45;&gt;u7 -->
<g id="edge6" class="edge">
<title>u3&#45;&gt;u7</title>
<path fill="none" stroke="black" d="M290.97,-3647.73C479.78,-3616.97 1441.65,-3460.24 1737.17,-3412.09"/>
<polygon fill="black" stroke="black" points="1738.09,-3415.49 1747.39,-3410.42 1736.96,-3408.58 1738.09,-3415.49"/>
</g>
<!-- u2&#45;&gt;u4 -->
<g id="edge2" class="edge">
<title>u2&#45;&gt;u4</title>
<path fill="none" stroke="black" d="M185.65,-3378.94C185.65,-3335.84 185.65,-3222.29 185.65,-3169.59"/>
<polygon fill="black" stroke="black" points="189.15,-3169.32 185.65,-3159.32 182.15,-3169.32 189.15,-3169.32"/>
</g>
<!-- u1 -->
<g id="node5" class="node">
<title>u1</title>
<ellipse fill="#bbffbb" stroke="black" cx="314.65" cy="-3141" rx="53.89" ry="18"/>
<text text-anchor="middle" x="314.65" y="-3137.3" font-family="Times,serif" font-size="14.00">Observer</text>
</g>
<!-- u0&#45;&gt;u1 -->
<g id="edge1" class="edge">
<title>u0&#45;&gt;u1</title>
<path fill="none" stroke="black" d="M329.57,-3378.94C326.86,-3335.84 319.7,-3222.29 316.38,-3169.59"/>
<polygon fill="black" stroke="black" points="319.86,-3169.08 315.74,-3159.32 312.87,-3169.52 319.86,-3169.08"/>
</g>
<!-- u55 -->
<g id="node7" class="node">
<title>u55</title>
<ellipse fill="#ffffbb" stroke="black" cx="1823.65" cy="-3654" rx="214.46" ry="18"/>
<text text-anchor="middle" x="1823.65" y="-3650.3" font-family="Times,serif" font-size="14.00">Data.Drasil.ExternalLibraries.ODELibraries</text>
</g>
<!-- u55&#45;&gt;u7 -->
<g id="edge88" class="edge">
<title>u55&#45;&gt;u7</title>
<path fill="none" stroke="black" d="M1823.65,-3635.87C1823.65,-3592.5 1823.65,-3478.06 1823.65,-3425.32"/>
<polygon fill="black" stroke="black" points="1827.15,-3425.05 1823.65,-3415.05 1820.15,-3425.05 1827.15,-3425.05"/>
</g>
<!-- u49 -->
<g id="node8" class="node">
<title>u49</title>
<ellipse fill="#bbbbff" stroke="black" cx="3826.65" cy="-1603" rx="135.68" ry="18"/>
<text text-anchor="middle" x="3826.65" y="-1599.3" font-family="Times,serif" font-size="14.00">Language.Drasil.CodeSpec</text>
</g>
<!-- u48 -->
<g id="node9" class="node">
<title>u48</title>
<ellipse fill="#bbbbff" stroke="black" cx="3234.65" cy="-1346" rx="126.18" ry="18"/>
<text text-anchor="middle" x="3234.65" y="-1342.3" font-family="Times,serif" font-size="14.00">Language.Drasil.Choices</text>
</g>
<!-- u49&#45;&gt;u48 -->
<g id="edge83" class="edge">
<title>u49&#45;&gt;u48</title>
<path fill="none" stroke="black" d="M3788.71,-1585.66C3684.81,-1540.91 3395.81,-1416.42 3281.78,-1367.3"/>
<polygon fill="black" stroke="black" points="3282.83,-1363.94 3272.26,-1363.2 3280.06,-1370.37 3282.83,-1363.94"/>
</g>
<!-- u54 -->
<g id="node12" class="node">
<title>u54</title>
<ellipse fill="#ffbbbb" stroke="black" cx="3971.65" cy="-1346" rx="191.17" ry="18"/>
<text text-anchor="middle" x="3971.65" y="-1342.3" font-family="Times,serif" font-size="14.00">Language.Drasil.Chunk.CodeDefinition</text>
</g>
<!-- u49&#45;&gt;u54 -->
<g id="edge85" class="edge">
<title>u49&#45;&gt;u54</title>
<path fill="none" stroke="black" d="M3836.38,-1584.87C3861.25,-1541.14 3927.21,-1425.14 3956.85,-1373.01"/>
<polygon fill="black" stroke="black" points="3960.05,-1374.48 3961.95,-1364.05 3953.96,-1371.02 3960.05,-1374.48"/>
</g>
<!-- u52 -->
<g id="node14" class="node">
<title>u52</title>
<ellipse fill="#ffbbbb" stroke="black" cx="3570.65" cy="-1346" rx="192.27" ry="18"/>
<text text-anchor="middle" x="3570.65" y="-1342.3" font-family="Times,serif" font-size="14.00">Language.Drasil.Chunk.ConstraintMap</text>
</g>
<!-- u49&#45;&gt;u52 -->
<g id="edge84" class="edge">
<title>u49&#45;&gt;u52</title>
<path fill="none" stroke="black" d="M3809.45,-1584.87C3765.09,-1540.69 3646.67,-1422.72 3595.15,-1371.41"/>
<polygon fill="black" stroke="black" points="3597.32,-1368.63 3587.76,-1364.05 3592.38,-1373.59 3597.32,-1368.63"/>
</g>
<!-- u9 -->
<g id="node23" class="node">
<title>u9</title>
<ellipse fill="#bbffff" stroke="black" cx="2807.65" cy="-1090" rx="139.98" ry="18"/>
<text text-anchor="middle" x="2807.65" y="-1086.3" font-family="Times,serif" font-size="14.00">Language.Drasil.Code.Code</text>
</g>
<!-- u48&#45;&gt;u9 -->
<g id="edge81" class="edge">
<title>u48&#45;&gt;u9</title>
<path fill="none" stroke="black" d="M3206.63,-1328.33C3131.98,-1283.93 2928.27,-1162.76 2844.44,-1112.89"/>
<polygon fill="black" stroke="black" points="2846.15,-1109.83 2835.77,-1107.73 2842.57,-1115.85 2846.15,-1109.83"/>
</g>
<!-- u46 -->
<g id="node56" class="node">
<title>u46</title>
<ellipse fill="#ff77ff" stroke="black" cx="3330.65" cy="-1090" rx="172.77" ry="18"/>
<text text-anchor="middle" x="3330.65" y="-1086.3" font-family="Times,serif" font-size="14.00">Language.Drasil.Data.ODELibPckg</text>
</g>
<!-- u48&#45;&gt;u46 -->
<g id="edge82" class="edge">
<title>u48&#45;&gt;u46</title>
<path fill="none" stroke="black" d="M3241.09,-1327.94C3257.45,-1284.66 3300.66,-1170.34 3320.46,-1117.94"/>
<polygon fill="black" stroke="black" points="3323.84,-1118.91 3324.1,-1108.32 3317.29,-1116.44 3323.84,-1118.91"/>
</g>
<!-- u43 -->
<g id="node25" class="node">
<title>u43</title>
<ellipse fill="#ffbbff" stroke="black" cx="4727.65" cy="-3141" rx="217.16" ry="18"/>
<text text-anchor="middle" x="4727.65" y="-3137.3" font-family="Times,serif" font-size="14.00">Language.Drasil.Code.Imperative.Generator</text>
</g>
<!-- u7&#45;&gt;u43 -->
<g id="edge15" class="edge">
<title>u7&#45;&gt;u43</title>
<path fill="none" stroke="black" d="M1920.27,-3387.55C2345.31,-3350.37 4050.83,-3201.2 4574.16,-3155.42"/>
<polygon fill="black" stroke="black" points="4574.77,-3158.88 4584.43,-3154.53 4574.16,-3151.91 4574.77,-3158.88"/>
</g>
<!-- u32 -->
<g id="node32" class="node">
<title>u32</title>
<ellipse fill="#ffbbff" stroke="black" cx="849.65" cy="-1859" rx="217.96" ry="18"/>
<text text-anchor="middle" x="849.65" y="-1855.3" font-family="Times,serif" font-size="14.00">Language.Drasil.Code.Imperative.ReadInput</text>
</g>
<!-- u7&#45;&gt;u32 -->
<g id="edge14" class="edge">
<title>u7&#45;&gt;u32</title>
<path fill="none" stroke="black" d="M1740.23,-3384.8C1435.01,-3341.54 396.65,-3173.26 396.65,-2886 396.65,-2886 396.65,-2886 396.65,-2371 396.65,-2125.09 694.03,-1942.21 806.9,-1881.66"/>
<polygon fill="black" stroke="black" points="808.78,-1884.62 815.97,-1876.84 805.49,-1878.44 808.78,-1884.62"/>
</g>
<!-- u25 -->
<g id="node48" class="node">
<title>u25</title>
<ellipse fill="#ff7777" stroke="black" cx="2991.65" cy="-2885" rx="352.84" ry="18"/>
<text text-anchor="middle" x="2991.65" y="-2881.3" font-family="Times,serif" font-size="14.00">Language.Drasil.Code.Imperative.GOOL.LanguageRenderer.CppRenderer</text>
</g>
<!-- u7&#45;&gt;u25 -->
<g id="edge13" class="edge">
<title>u7&#45;&gt;u25</title>
<path fill="none" stroke="black" d="M1860.53,-3379.89C2031.84,-3305.09 2749.69,-2991.65 2943.34,-2907.09"/>
<polygon fill="black" stroke="black" points="2944.93,-2910.22 2952.69,-2903.01 2942.12,-2903.8 2944.93,-2910.22"/>
</g>
<!-- u24 -->
<g id="node49" class="node">
<title>u24</title>
<ellipse fill="#ff7777" stroke="black" cx="3731.65" cy="-2885" rx="369.33" ry="18"/>
<text text-anchor="middle" x="3731.65" y="-2881.3" font-family="Times,serif" font-size="14.00">Language.Drasil.Code.Imperative.GOOL.LanguageRenderer.CSharpRenderer</text>
</g>
<!-- u7&#45;&gt;u24 -->
<g id="edge12" class="edge">
<title>u7&#45;&gt;u24</title>
<path fill="none" stroke="black" d="M1878.95,-3381.22C2151.45,-3308.38 3350.67,-2987.83 3659.11,-2905.39"/>
<polygon fill="black" stroke="black" points="3660.08,-2908.75 3668.84,-2902.79 3658.28,-2901.99 3660.08,-2908.75"/>
</g>
<!-- u23 -->
<g id="node50" class="node">
<title>u23</title>
<ellipse fill="#ff7777" stroke="black" cx="791.65" cy="-2885" rx="367.43" ry="18"/>
<text text-anchor="middle" x="791.65" y="-2881.3" font-family="Times,serif" font-size="14.00">Language.Drasil.Code.Imperative.GOOL.LanguageRenderer.PythonRenderer</text>
</g>
<!-- u7&#45;&gt;u23 -->
<g id="edge11" class="edge">
<title>u7&#45;&gt;u23</title>
<path fill="none" stroke="black" d="M1790.77,-3379.75C1639.1,-3304.8 1007.1,-2992.47 835.05,-2907.45"/>
<polygon fill="black" stroke="black" points="836.54,-2904.28 826.03,-2902.99 833.44,-2910.56 836.54,-2904.28"/>
</g>
<!-- u22 -->
<g id="node51" class="node">
<title>u22</title>
<ellipse fill="#ff7777" stroke="black" cx="1535.65" cy="-2885" rx="358.54" ry="18"/>
<text text-anchor="middle" x="1535.65" y="-2881.3" font-family="Times,serif" font-size="14.00">Language.Drasil.Code.Imperative.GOOL.LanguageRenderer.SwiftRenderer</text>
</g>
<!-- u7&#45;&gt;u22 -->
<g id="edge10" class="edge">
<title>u7&#45;&gt;u22</title>
<path fill="none" stroke="black" d="M1814.06,-3379.03C1771.74,-3304.08 1601.38,-3002.41 1550.23,-2911.84"/>
<polygon fill="black" stroke="black" points="1553.23,-2910.02 1545.26,-2903.03 1547.13,-2913.46 1553.23,-2910.02"/>
</g>
<!-- u20 -->
<g id="node53" class="node">
<title>u20</title>
<ellipse fill="#ff7777" stroke="black" cx="2266.65" cy="-2885" rx="354.44" ry="18"/>
<text text-anchor="middle" x="2266.65" y="-2881.3" font-family="Times,serif" font-size="14.00">Language.Drasil.Code.Imperative.GOOL.LanguageRenderer.JavaRenderer</text>
</g>
<!-- u7&#45;&gt;u20 -->
<g id="edge9" class="edge">
<title>u7&#45;&gt;u20</title>
<path fill="none" stroke="black" d="M1838.38,-3379.03C1903.75,-3303.78 2167.66,-2999.96 2245.15,-2910.75"/>
<polygon fill="black" stroke="black" points="2247.94,-2912.88 2251.85,-2903.03 2242.65,-2908.29 2247.94,-2912.88"/>
</g>
<!-- u6 -->
<g id="node11" class="node">
<title>u6</title>
<ellipse fill="#bbbbff" stroke="black" cx="3843.65" cy="-577" rx="110.48" ry="18"/>
<text text-anchor="middle" x="3843.65" y="-573.3" font-family="Times,serif" font-size="14.00">Language.Drasil.Mod</text>
</g>
<!-- u53 -->
<g id="node13" class="node">
<title>u53</title>
<ellipse fill="#ffbbbb" stroke="black" cx="3448.65" cy="-321" rx="170.87" ry="18"/>
<text text-anchor="middle" x="3448.65" y="-317.3" font-family="Times,serif" font-size="14.00">Language.Drasil.Chunk.Parameter</text>
</g>
<!-- u6&#45;&gt;u53 -->
<g id="edge8" class="edge">
<title>u6&#45;&gt;u53</title>
<path fill="none" stroke="black" d="M3817.73,-559.33C3748.9,-515.07 3561.45,-394.54 3483.44,-344.37"/>
<polygon fill="black" stroke="black" points="3485.22,-341.36 3474.92,-338.89 3481.43,-347.25 3485.22,-341.36"/>
</g>
<!-- u45 -->
<g id="node17" class="node">
<title>u45</title>
<ellipse fill="#bbffff" stroke="black" cx="2669.65" cy="-321" rx="160.57" ry="18"/>
<text text-anchor="middle" x="2669.65" y="-317.3" font-family="Times,serif" font-size="14.00">Language.Drasil.Code.DataDesc</text>
</g>
<!-- u6&#45;&gt;u45 -->
<g id="edge7" class="edge">
<title>u6&#45;&gt;u45</title>
<path fill="none" stroke="black" d="M3780.11,-562.25C3581.12,-519.2 2970.09,-387 2749.84,-339.35"/>
<polygon fill="black" stroke="black" points="2750.48,-335.91 2739.96,-337.21 2749,-342.75 2750.48,-335.91"/>
</g>
<!-- u47 -->
<g id="node55" class="node">
<title>u47</title>
<ellipse fill="#ff77ff" stroke="black" cx="3019.65" cy="-833" rx="154.07" ry="18"/>
<text text-anchor="middle" x="3019.65" y="-829.3" font-family="Times,serif" font-size="14.00">Language.Drasil.Data.ODEInfo</text>
</g>
<!-- u54&#45;&gt;u47 -->
<g id="edge87" class="edge">
<title>u54&#45;&gt;u47</title>
<path fill="none" stroke="black" d="M3887.33,-1329.85C3701.03,-1294.95 3261.9,-1204.48 3148.65,-1108 3070.22,-1041.19 3036.28,-916.14 3024.67,-861.14"/>
<polygon fill="black" stroke="black" points="3028.05,-860.22 3022.63,-851.11 3021.19,-861.61 3028.05,-860.22"/>
</g>
<!-- u50 -->
<g id="node16" class="node">
<title>u50</title>
<ellipse fill="#ffbbbb" stroke="black" cx="3019.65" cy="-64" rx="145.67" ry="18"/>
<text text-anchor="middle" x="3019.65" y="-60.3" font-family="Times,serif" font-size="14.00">Language.Drasil.Chunk.Code</text>
</g>
<!-- u53&#45;&gt;u50 -->
<g id="edge86" class="edge">
<title>u53&#45;&gt;u50</title>
<path fill="none" stroke="black" d="M3420.17,-303.07C3344.87,-258.32 3140.59,-136.89 3056.53,-86.93"/>
<polygon fill="black" stroke="black" points="3058.22,-83.86 3047.84,-81.76 3054.64,-89.87 3058.22,-83.86"/>
</g>
<!-- u51 -->
<g id="node15" class="node">
<title>u51</title>
<ellipse fill="#ffbbbb" stroke="black" cx="3512.65" cy="-577" rx="202.26" ry="18"/>
<text text-anchor="middle" x="3512.65" y="-573.3" font-family="Times,serif" font-size="14.00">Language.Drasil.Chunk.NamedArgument</text>
</g>
<!-- u45&#45;&gt;u50 -->
<g id="edge75" class="edge">
<title>u45&#45;&gt;u50</title>
<path fill="none" stroke="black" d="M2692.88,-303.07C2753.79,-258.69 2918.16,-138.94 2987.79,-88.21"/>
<polygon fill="black" stroke="black" points="2990.17,-90.81 2996.19,-82.09 2986.05,-85.15 2990.17,-90.81"/>
</g>
<!-- u44 -->
<g id="node18" class="node">
<title>u44</title>
<ellipse fill="#bbffff" stroke="black" cx="4142.65" cy="-1090" rx="178.97" ry="18"/>
<text text-anchor="middle" x="4142.65" y="-1086.3" font-family="Times,serif" font-size="14.00">Language.Drasil.Code.ExtLibImport</text>
</g>
<!-- u11 -->
<g id="node21" class="node">
<title>u11</title>
<ellipse fill="#bbffff" stroke="black" cx="4094.65" cy="-833" rx="207.96" ry="18"/>
<text text-anchor="middle" x="4094.65" y="-829.3" font-family="Times,serif" font-size="14.00">Language.Drasil.Code.ExternalLibraryCall</text>
</g>
<!-- u44&#45;&gt;u11 -->
<g id="edge74" class="edge">
<title>u44&#45;&gt;u11</title>
<path fill="none" stroke="black" d="M4139.42,-1071.87C4131.24,-1028.41 4109.63,-913.58 4099.73,-860.99"/>
<polygon fill="black" stroke="black" points="4103.14,-860.23 4097.86,-851.05 4096.27,-861.53 4103.14,-860.23"/>
</g>
<!-- u8 -->
<g id="node24" class="node">
<title>u8</title>
<ellipse fill="#bbffff" stroke="black" cx="3678.65" cy="-833" rx="190.37" ry="18"/>
<text text-anchor="middle" x="3678.65" y="-829.3" font-family="Times,serif" font-size="14.00">Language.Drasil.Code.ExternalLibrary</text>
</g>
<!-- u44&#45;&gt;u8 -->
<g id="edge73" class="edge">
<title>u44&#45;&gt;u8</title>
<path fill="none" stroke="black" d="M4111.84,-1072.07C4030.34,-1027.28 3809.09,-905.69 3718.32,-855.8"/>
<polygon fill="black" stroke="black" points="3719.89,-852.67 3709.44,-850.92 3716.52,-858.81 3719.89,-852.67"/>
</g>
<!-- u13 -->
<g id="node19" class="node">
<title>u13</title>
<ellipse fill="#bbffff" stroke="black" cx="5353.65" cy="-2115" rx="204.16" ry="18"/>
<text text-anchor="middle" x="5353.65" y="-2111.3" font-family="Times,serif" font-size="14.00">Language.Drasil.Code.CodeQuantityDicts</text>
</g>
<!-- u12 -->
<g id="node20" class="node">
<title>u12</title>
<ellipse fill="#bbffff" stroke="black" cx="3330.65" cy="-833" rx="139.18" ry="18"/>
<text text-anchor="middle" x="3330.65" y="-829.3" font-family="Times,serif" font-size="14.00">Language.Drasil.Code.Lang</text>
</g>
<!-- u11&#45;&gt;u6 -->
<g id="edge20" class="edge">
<title>u11&#45;&gt;u6</title>
<path fill="none" stroke="black" d="M4077.79,-814.94C4034.29,-770.93 3918.18,-653.43 3867.67,-602.31"/>
<polygon fill="black" stroke="black" points="3869.95,-599.64 3860.43,-594.99 3864.97,-604.56 3869.95,-599.64"/>
</g>
<!-- u11&#45;&gt;u51 -->
<g id="edge21" class="edge">
<title>u11&#45;&gt;u51</title>
<path fill="none" stroke="black" d="M4056.01,-815.14C3953.14,-770.24 3672.78,-647.89 3560.29,-598.79"/>
<polygon fill="black" stroke="black" points="3561.45,-595.48 3550.89,-594.69 3558.65,-601.9 3561.45,-595.48"/>
</g>
<!-- u10 -->
<g id="node22" class="node">
<title>u10</title>
<ellipse fill="#bbffff" stroke="black" cx="4309.65" cy="-2885" rx="191.17" ry="18"/>
<text text-anchor="middle" x="4309.65" y="-2881.3" font-family="Times,serif" font-size="14.00">Language.Drasil.Code.CodeGeneration</text>
</g>
<!-- u10&#45;&gt;u9 -->
<g id="edge18" class="edge">
<title>u10&#45;&gt;u9</title>
<path fill="none" stroke="black" d="M4219.76,-2869.09C4095.15,-2844.01 3869.9,-2782.12 3733.65,-2646 3634.26,-2546.72 3706.93,-2458.13 3612.65,-2354 3311.42,-2021.32 2953.15,-2262.07 2722.65,-1877 2643.53,-1744.83 2768.49,-1240.19 2800.49,-1117.84"/>
<polygon fill="black" stroke="black" points="2803.88,-1118.69 2803.04,-1108.13 2797.11,-1116.91 2803.88,-1118.69"/>
</g>
<!-- u19 -->
<g id="node45" class="node">
<title>u19</title>
<ellipse fill="#7777ff" stroke="black" cx="2866.65" cy="-2628" rx="222.06" ry="18"/>
<text text-anchor="middle" x="2866.65" y="-2624.3" font-family="Times,serif" font-size="14.00">Language.Drasil.Code.Imperative.GOOL.Data</text>
</g>
<!-- u10&#45;&gt;u19 -->
<g id="edge19" class="edge">
<title>u10&#45;&gt;u19</title>
<path fill="none" stroke="black" d="M4223.97,-2868.86C3971.74,-2824.29 3232.84,-2693.71 2965.03,-2646.39"/>
<polygon fill="black" stroke="black" points="2965.39,-2642.9 2954.93,-2644.6 2964.17,-2649.79 2965.39,-2642.9"/>
</g>
<!-- u8&#45;&gt;u6 -->
<g id="edge16" class="edge">
<title>u8&#45;&gt;u6</title>
<path fill="none" stroke="black" d="M3689.73,-814.94C3718.08,-771.29 3793.4,-655.35 3827.02,-603.59"/>
<polygon fill="black" stroke="black" points="3830.1,-605.28 3832.61,-594.99 3824.23,-601.47 3830.1,-605.28"/>
</g>
<!-- u8&#45;&gt;u51 -->
<g id="edge17" class="edge">
<title>u8&#45;&gt;u51</title>
<path fill="none" stroke="black" d="M3667.5,-814.94C3638.97,-771.29 3563.2,-655.35 3529.37,-603.59"/>
<polygon fill="black" stroke="black" points="3532.15,-601.44 3523.75,-594.99 3526.29,-605.27 3532.15,-601.44"/>
</g>
<!-- u43&#45;&gt;u10 -->
<g id="edge69" class="edge">
<title>u43&#45;&gt;u10</title>
<path fill="none" stroke="black" d="M4699.9,-3123.14C4626.77,-3078.7 4428.77,-2958.38 4346.38,-2908.32"/>
<polygon fill="black" stroke="black" points="4347.75,-2905.06 4337.39,-2902.86 4344.11,-2911.04 4347.75,-2905.06"/>
</g>
<!-- u42 -->
<g id="node26" class="node">
<title>u42</title>
<ellipse fill="#ffbbff" stroke="black" cx="4190.65" cy="-1603" rx="209.86" ry="18"/>
<text text-anchor="middle" x="4190.65" y="-1599.3" font-family="Times,serif" font-size="14.00">Language.Drasil.Code.Imperative.GenODE</text>
</g>
<!-- u43&#45;&gt;u42 -->
<g id="edge72" class="edge">
<title>u43&#45;&gt;u42</title>
<path fill="none" stroke="black" d="M4868.74,-3127.3C5129.75,-3095.23 5661.65,-2986.08 5661.65,-2629 5661.65,-2629 5661.65,-2629 5661.65,-2114 5661.65,-1829.38 4666.12,-1667.9 4313.03,-1619.58"/>
<polygon fill="black" stroke="black" points="4313.4,-1616.09 4303.02,-1618.21 4312.46,-1623.03 4313.4,-1616.09"/>
</g>
<!-- u35 -->
<g id="node31" class="node">
<title>u35</title>
<ellipse fill="#ffbbff" stroke="black" cx="5339.65" cy="-2628" rx="226.66" ry="18"/>
<text text-anchor="middle" x="5339.65" y="-2624.3" font-family="Times,serif" font-size="14.00">Language.Drasil.Code.Imperative.SpaceMatch</text>
</g>
<!-- u43&#45;&gt;u35 -->
<g id="edge71" class="edge">
<title>u43&#45;&gt;u35</title>
<path fill="none" stroke="black" d="M4748.01,-3123C4838.68,-3047.29 5205.83,-2740.73 5311.23,-2652.73"/>
<polygon fill="black" stroke="black" points="5313.77,-2655.16 5319.21,-2646.07 5309.29,-2649.79 5313.77,-2655.16"/>
</g>
<!-- u14 -->
<g id="node41" class="node">
<title>u14</title>
<ellipse fill="#ffbbff" stroke="black" cx="4727.65" cy="-2885" rx="209.06" ry="18"/>
<text text-anchor="middle" x="4727.65" y="-2881.3" font-family="Times,serif" font-size="14.00">Language.Drasil.Code.Imperative.Modules</text>
</g>
<!-- u43&#45;&gt;u14 -->
<g id="edge70" class="edge">
<title>u43&#45;&gt;u14</title>
<path fill="none" stroke="black" d="M4727.65,-3122.94C4727.65,-3079.84 4727.65,-2966.29 4727.65,-2913.59"/>
<polygon fill="black" stroke="black" points="4731.15,-2913.32 4727.65,-2903.32 4724.15,-2913.32 4731.15,-2913.32"/>
</g>
<!-- u42&#45;&gt;u48 -->
<g id="edge67" class="edge">
<title>u42&#45;&gt;u48</title>
<path fill="none" stroke="black" d="M4129.75,-1585.76C3959.21,-1540.27 3477.8,-1411.86 3300.91,-1364.68"/>
<polygon fill="black" stroke="black" points="3301.77,-1361.28 3291.21,-1362.09 3299.97,-1368.05 3301.77,-1361.28"/>
</g>
<!-- u42&#45;&gt;u54 -->
<g id="edge68" class="edge">
<title>u42&#45;&gt;u54</title>
<path fill="none" stroke="black" d="M4175.94,-1584.87C4138.07,-1540.78 4037.1,-1423.21 3992.88,-1371.73"/>
<polygon fill="black" stroke="black" points="3995.46,-1369.36 3986.29,-1364.05 3990.15,-1373.92 3995.46,-1369.36"/>
</g>
<!-- u42&#45;&gt;u44 -->
<g id="edge66" class="edge">
<title>u42&#45;&gt;u44</title>
<path fill="none" stroke="black" d="M4189.78,-1584.98C4187.51,-1541.9 4180.94,-1425.07 4171.65,-1328 4164.34,-1251.76 4152.47,-1162.11 4146.44,-1118.13"/>
<polygon fill="black" stroke="black" points="4149.9,-1117.64 4145.07,-1108.21 4142.97,-1118.6 4149.9,-1117.64"/>
</g>
<!-- u41 -->
<g id="node27" class="node">
<title>u41</title>
<ellipse fill="#ffbbff" stroke="black" cx="4036.65" cy="-2115" rx="207.16" ry="18"/>
<text text-anchor="middle" x="4036.65" y="-2111.3" font-family="Times,serif" font-size="14.00">Language.Drasil.Code.Imperative.Logging</text>
</g>
<!-- u27 -->
<g id="node37" class="node">
<title>u27</title>
<ellipse fill="#ffbbff" stroke="black" cx="4428.65" cy="-1859" rx="222.06" ry="18"/>
<text text-anchor="middle" x="4428.65" y="-1855.3" font-family="Times,serif" font-size="14.00">Language.Drasil.Code.Imperative.DrasilState</text>
</g>
<!-- u41&#45;&gt;u27 -->
<g id="edge65" class="edge">
<title>u41&#45;&gt;u27</title>
<path fill="none" stroke="black" d="M4062.67,-2097.14C4131.16,-2052.76 4316.49,-1932.67 4393.92,-1882.5"/>
<polygon fill="black" stroke="black" points="4395.88,-1885.4 4402.37,-1877.02 4392.08,-1879.52 4395.88,-1885.4"/>
</g>
<!-- u40 -->
<g id="node28" class="node">
<title>u40</title>
<ellipse fill="#ffbbff" stroke="black" cx="4481.65" cy="-2115" rx="219.86" ry="18"/>
<text text-anchor="middle" x="4481.65" y="-2111.3" font-family="Times,serif" font-size="14.00">Language.Drasil.Code.Imperative.Comments</text>
</g>
<!-- u40&#45;&gt;u27 -->
<g id="edge64" class="edge">
<title>u40&#45;&gt;u27</title>
<path fill="none" stroke="black" d="M4478.09,-2096.94C4469.07,-2053.75 4445.3,-1939.82 4434.33,-1887.26"/>
<polygon fill="black" stroke="black" points="4437.73,-1886.39 4432.26,-1877.32 4430.88,-1887.82 4437.73,-1886.39"/>
</g>
<!-- u37 -->
<g id="node29" class="node">
<title>u37</title>
<ellipse fill="#ffbbff" stroke="black" cx="4925.65" cy="-2115" rx="206.06" ry="18"/>
<text text-anchor="middle" x="4925.65" y="-2111.3" font-family="Times,serif" font-size="14.00">Language.Drasil.Code.Imperative.Helpers</text>
</g>
<!-- u37&#45;&gt;u27 -->
<g id="edge62" class="edge">
<title>u37&#45;&gt;u27</title>
<path fill="none" stroke="black" d="M4892.65,-2097.14C4805.17,-2052.43 4567.41,-1930.92 4470.55,-1881.42"/>
<polygon fill="black" stroke="black" points="4472.13,-1878.29 4461.63,-1876.86 4468.94,-1884.52 4472.13,-1878.29"/>
</g>
<!-- u36 -->
<g id="node30" class="node">
<title>u36</title>
<ellipse fill="#ffbbff" stroke="black" cx="5353.65" cy="-2372" rx="223.66" ry="18"/>
<text text-anchor="middle" x="5353.65" y="-2368.3" font-family="Times,serif" font-size="14.00">Language.Drasil.Code.Imperative.Parameters</text>
</g>
<!-- u36&#45;&gt;u13 -->
<g id="edge60" class="edge">
<title>u36&#45;&gt;u13</title>
<path fill="none" stroke="black" d="M5353.65,-2353.87C5353.65,-2310.5 5353.65,-2196.06 5353.65,-2143.32"/>
<polygon fill="black" stroke="black" points="5357.15,-2143.05 5353.65,-2133.05 5350.15,-2143.05 5357.15,-2143.05"/>
</g>
<!-- u36&#45;&gt;u27 -->
<g id="edge61" class="edge">
<title>u36&#45;&gt;u27</title>
<path fill="none" stroke="black" d="M5384.92,-2354.12C5461.11,-2310.89 5644.57,-2192.83 5566.65,-2097 5448.52,-1951.74 4903.79,-1892.54 4612.92,-1870.96"/>
<polygon fill="black" stroke="black" points="4612.92,-1867.45 4602.69,-1870.21 4612.4,-1874.44 4612.92,-1867.45"/>
</g>
<!-- u35&#45;&gt;u27 -->
<g id="edge59" class="edge">
<title>u35&#45;&gt;u27</title>
<path fill="none" stroke="black" d="M5369.38,-2609.9C5424.62,-2576.17 5541.57,-2495.15 5586.65,-2390 5637.95,-2270.31 5669.99,-2197.88 5587.65,-2097 5467.26,-1949.51 4913.39,-1891.35 4617.03,-1870.48"/>
<polygon fill="black" stroke="black" points="4617.25,-1866.99 4607.03,-1869.79 4616.76,-1873.97 4617.25,-1866.99"/>
</g>
<!-- u32&#45;&gt;u45 -->
<g id="edge56" class="edge">
<title>u32&#45;&gt;u45</title>
<path fill="none" stroke="black" d="M883.32,-1841.16C988.31,-1786.02 1302.65,-1599.82 1302.65,-1347 1302.65,-1347 1302.65,-1347 1302.65,-832 1302.65,-562.07 2250.08,-388.11 2567.45,-337.41"/>
<polygon fill="black" stroke="black" points="2568.24,-340.83 2577.56,-335.8 2567.14,-333.92 2568.24,-340.83"/>
</g>
<!-- u31 -->
<g id="node33" class="node">
<title>u31</title>
<ellipse fill="#ffbbff" stroke="black" cx="4481.65" cy="-2372" rx="201.46" ry="18"/>
<text text-anchor="middle" x="4481.65" y="-2368.3" font-family="Times,serif" font-size="14.00">Language.Drasil.Code.Imperative.Import</text>
</g>
<!-- u31&#45;&gt;u13 -->
<g id="edge50" class="edge">
<title>u31&#45;&gt;u13</title>
<path fill="none" stroke="black" d="M4537.52,-2354.66C4691.61,-2309.6 5122.09,-2183.71 5287.63,-2135.31"/>
<polygon fill="black" stroke="black" points="5289.06,-2138.53 5297.67,-2132.37 5287.09,-2131.82 5289.06,-2138.53"/>
</g>
<!-- u31&#45;&gt;u41 -->
<g id="edge55" class="edge">
<title>u31&#45;&gt;u41</title>
<path fill="none" stroke="black" d="M4452.1,-2354.07C4374.02,-2309.32 4162.18,-2187.93 4074.96,-2137.95"/>
<polygon fill="black" stroke="black" points="4076.59,-2134.86 4066.18,-2132.92 4073.11,-2140.93 4076.59,-2134.86"/>
</g>
<!-- u31&#45;&gt;u40 -->
<g id="edge54" class="edge">
<title>u31&#45;&gt;u40</title>
<path fill="none" stroke="black" d="M4481.65,-2353.87C4481.65,-2310.5 4481.65,-2196.06 4481.65,-2143.32"/>
<polygon fill="black" stroke="black" points="4485.15,-2143.05 4481.65,-2133.05 4478.15,-2143.05 4485.15,-2143.05"/>
</g>
<!-- u31&#45;&gt;u37 -->
<g id="edge53" class="edge">
<title>u31&#45;&gt;u37</title>
<path fill="none" stroke="black" d="M4511.12,-2354.07C4589.03,-2309.32 4800.4,-2187.93 4887.42,-2137.95"/>
<polygon fill="black" stroke="black" points="4889.25,-2140.94 4896.18,-2132.92 4885.77,-2134.87 4889.25,-2140.94"/>
</g>
<!-- u30 -->
<g id="node34" class="node">
<title>u30</title>
<ellipse fill="#ffbbff" stroke="black" cx="3435.65" cy="-1603" rx="237.46" ry="18"/>
<text text-anchor="middle" x="3435.65" y="-1599.3" font-family="Times,serif" font-size="14.00">Language.Drasil.Code.Imperative.ConceptMatch</text>
</g>
<!-- u31&#45;&gt;u30 -->
<g id="edge52" class="edge">
<title>u31&#45;&gt;u30</title>
<path fill="none" stroke="black" d="M4327.68,-2360.31C4174.14,-2340.88 3943.9,-2286.26 3820.65,-2133 3738.63,-2031.02 3851.11,-1952.54 3782.65,-1841 3713.89,-1728.97 3570.03,-1657.24 3490.84,-1624.57"/>
<polygon fill="black" stroke="black" points="3492.1,-1621.31 3481.51,-1620.78 3489.46,-1627.79 3492.1,-1621.31"/>
</g>
<!-- u26 -->
<g id="node38" class="node">
<title>u26</title>
<ellipse fill="#ffbbff" stroke="black" cx="3495.65" cy="-2115" rx="240.46" ry="18"/>
<text text-anchor="middle" x="3495.65" y="-2111.3" font-family="Times,serif" font-size="14.00">Language.Drasil.Code.Imperative.GenerateGOOL</text>
</g>
<!-- u31&#45;&gt;u26 -->
<g id="edge51" class="edge">
<title>u31&#45;&gt;u26</title>
<path fill="none" stroke="black" d="M4419.22,-2354.86C4245.17,-2309.84 3755.1,-2183.1 3568.78,-2134.91"/>
<polygon fill="black" stroke="black" points="3569.63,-2131.52 3559.07,-2132.4 3567.88,-2138.3 3569.63,-2131.52"/>
</g>
<!-- u30&#45;&gt;u48 -->
<g id="edge49" class="edge">
<title>u30&#45;&gt;u48</title>
<path fill="none" stroke="black" d="M3422.15,-1584.87C3387.46,-1540.87 3295.1,-1423.69 3254.39,-1372.05"/>
<polygon fill="black" stroke="black" points="3257.03,-1369.74 3248.09,-1364.05 3251.53,-1374.07 3257.03,-1369.74"/>
</g>
<!-- u29 -->
<g id="node35" class="node">
<title>u29</title>
<ellipse fill="#ffbbff" stroke="black" cx="4727.65" cy="-2628" rx="233.16" ry="18"/>
<text text-anchor="middle" x="4727.65" y="-2624.3" font-family="Times,serif" font-size="14.00">Language.Drasil.Code.Imperative.FunctionCalls</text>
</g>
<!-- u29&#45;&gt;u36 -->
<g id="edge48" class="edge">
<title>u29&#45;&gt;u36</title>
<path fill="none" stroke="black" d="M4769.2,-2610.14C4879.94,-2565.21 5181.89,-2442.69 5302.69,-2393.67"/>
<polygon fill="black" stroke="black" points="5304.15,-2396.86 5312.1,-2389.86 5301.52,-2390.37 5304.15,-2396.86"/>
</g>
<!-- u29&#45;&gt;u31 -->
<g id="edge47" class="edge">
<title>u29&#45;&gt;u31</title>
<path fill="none" stroke="black" d="M4711.12,-2609.94C4668.5,-2565.93 4554.7,-2448.43 4505.19,-2397.31"/>
<polygon fill="black" stroke="black" points="4507.57,-2394.73 4498.1,-2389.99 4502.54,-2399.6 4507.57,-2394.73"/>
</g>
<!-- u28 -->
<g id="node36" class="node">
<title>u28</title>
<ellipse fill="#ffbbff" stroke="black" cx="2455.65" cy="-1603" rx="219.86" ry="18"/>
<text text-anchor="middle" x="2455.65" y="-1599.3" font-family="Times,serif" font-size="14.00">Language.Drasil.Code.Imperative.WriteInput</text>
</g>
<!-- u28&#45;&gt;u45 -->
<g id="edge46" class="edge">
<title>u28&#45;&gt;u45</title>
<path fill="none" stroke="black" d="M2459.48,-1584.9C2473.57,-1520.52 2521.65,-1286.45 2521.65,-1091 2521.65,-1091 2521.65,-1091 2521.65,-832 2521.65,-639.65 2619.94,-422.09 2656.32,-348.16"/>
<polygon fill="black" stroke="black" points="2659.51,-349.6 2660.83,-339.09 2653.24,-346.49 2659.51,-349.6"/>
</g>
<!-- u27&#45;&gt;u49 -->
<g id="edge45" class="edge">
<title>u27&#45;&gt;u49</title>
<path fill="none" stroke="black" d="M4388.68,-1841.14C4281.91,-1796.09 3990.31,-1673.05 3874.74,-1624.29"/>
<polygon fill="black" stroke="black" points="3876,-1621.02 3865.42,-1620.36 3873.28,-1627.47 3876,-1621.02"/>
</g>
<!-- u27&#45;&gt;u44 -->
<g id="edge44" class="edge">
<title>u27&#45;&gt;u44</title>
<path fill="none" stroke="black" d="M4429.92,-1840.95C4432.65,-1797.33 4436.8,-1678.54 4409.65,-1585 4353.22,-1390.62 4212.7,-1186.6 4161.6,-1116.43"/>
<polygon fill="black" stroke="black" points="4164.29,-1114.17 4155.55,-1108.18 4158.64,-1118.31 4164.29,-1114.17"/>
</g>
<!-- u26&#45;&gt;u27 -->
<g id="edge43" class="edge">
<title>u26&#45;&gt;u27</title>
<path fill="none" stroke="black" d="M3556.14,-2097.53C3721.9,-2052.4 4182.7,-1926.96 4358.9,-1878.99"/>
<polygon fill="black" stroke="black" points="4359.86,-1882.35 4368.59,-1876.35 4358.02,-1875.6 4359.86,-1882.35"/>
</g>
<!-- u18 -->
<g id="node46" class="node">
<title>u18</title>
<ellipse fill="#7777ff" stroke="black" cx="3506.65" cy="-1859" rx="267.25" ry="18"/>
<text text-anchor="middle" x="3506.65" y="-1855.3" font-family="Times,serif" font-size="14.00">Language.Drasil.Code.Imperative.GOOL.ClassInterface</text>
</g>
<!-- u26&#45;&gt;u18 -->
<g id="edge42" class="edge">
<title>u26&#45;&gt;u18</title>
<path fill="none" stroke="black" d="M3496.38,-2096.94C3498.25,-2053.84 3503.17,-1940.29 3505.45,-1887.59"/>
<polygon fill="black" stroke="black" points="3508.96,-1887.46 3505.9,-1877.32 3501.97,-1887.16 3508.96,-1887.46"/>
</g>
<!-- u16 -->
<g id="node39" class="node">
<title>u16</title>
<ellipse fill="#ffbbff" stroke="black" cx="2767.65" cy="-2372" rx="233.16" ry="18"/>
<text text-anchor="middle" x="2767.65" y="-2368.3" font-family="Times,serif" font-size="14.00">Language.Drasil.Code.Imperative.WriteReadMe</text>
</g>
<!-- u16&#45;&gt;u18 -->
<g id="edge25" class="edge">
<title>u16&#45;&gt;u18</title>
<path fill="none" stroke="black" d="M2792.23,-2354C2902.05,-2278.06 3347.74,-1969.88 3473.47,-1882.94"/>
<polygon fill="black" stroke="black" points="3475.73,-1885.63 3481.97,-1877.07 3471.75,-1879.87 3475.73,-1885.63"/>
</g>
<!-- u15 -->
<g id="node40" class="node">
<title>u15</title>
<ellipse fill="#ffbbff" stroke="black" cx="3970.65" cy="-2628" rx="228.26" ry="18"/>
<text text-anchor="middle" x="3970.65" y="-2624.3" font-family="Times,serif" font-size="14.00">Language.Drasil.Code.Imperative.Descriptions</text>
</g>
<!-- u15&#45;&gt;u27 -->
<g id="edge24" class="edge">
<title>u15&#45;&gt;u27</title>
<path fill="none" stroke="black" d="M3956.31,-2609.77C3899.83,-2539.69 3701.39,-2271.48 3820.65,-2097 3919.99,-1951.66 4122.75,-1895.44 4266.78,-1873.7"/>
<polygon fill="black" stroke="black" points="4267.66,-1877.11 4277.04,-1872.19 4266.64,-1870.18 4267.66,-1877.11"/>
</g>
<!-- u14&#45;&gt;u29 -->
<g id="edge23" class="edge">
<title>u14&#45;&gt;u29</title>
<path fill="none" stroke="black" d="M4727.65,-2866.87C4727.65,-2823.5 4727.65,-2709.06 4727.65,-2656.32"/>
<polygon fill="black" stroke="black" points="4731.15,-2656.05 4727.65,-2646.05 4724.15,-2656.05 4731.15,-2656.05"/>
</g>
<!-- u14&#45;&gt;u15 -->
<g id="edge22" class="edge">
<title>u14&#45;&gt;u15</title>
<path fill="none" stroke="black" d="M4678.56,-2867.47C4544.85,-2822.42 4174.5,-2697.67 4029.73,-2648.9"/>
<polygon fill="black" stroke="black" points="4030.71,-2645.54 4020.11,-2645.66 4028.47,-2652.17 4030.71,-2645.54"/>
</g>
<!-- u39 -->
<g id="node42" class="node">
<title>u39</title>
<ellipse fill="#77ff77" stroke="black" cx="2198.65" cy="-2372" rx="228.56" ry="18"/>
<text text-anchor="middle" x="2198.65" y="-2368.3" font-family="Times,serif" font-size="14.00">Language.Drasil.Code.Imperative.Build.Import</text>
</g>
<!-- u38 -->
<g id="node43" class="node">
<title>u38</title>
<ellipse fill="#77ff77" stroke="black" cx="2198.65" cy="-2115" rx="215.56" ry="18"/>
<text text-anchor="middle" x="2198.65" y="-2111.3" font-family="Times,serif" font-size="14.00">Language.Drasil.Code.Imperative.Build.AST</text>
</g>
<!-- u39&#45;&gt;u38 -->
<g id="edge63" class="edge">
<title>u39&#45;&gt;u38</title>
<path fill="none" stroke="black" d="M2198.65,-2353.87C2198.65,-2310.5 2198.65,-2196.06 2198.65,-2143.32"/>
<polygon fill="black" stroke="black" points="2202.15,-2143.05 2198.65,-2133.05 2195.15,-2143.05 2202.15,-2143.05"/>
</g>
<!-- u33 -->
<g id="node44" class="node">
<title>u33</title>
<ellipse fill="#ffff77" stroke="black" cx="2976.65" cy="-1859" rx="245.06" ry="18"/>
<text text-anchor="middle" x="2976.65" y="-1855.3" font-family="Times,serif" font-size="14.00">Language.Drasil.Code.Imperative.Doxygen.Import</text>
</g>
<!-- u33&#45;&gt;u48 -->
<g id="edge57" class="edge">
<title>u33&#45;&gt;u48</title>
<path fill="none" stroke="black" d="M2985.23,-1841C3023.11,-1765.98 3175.45,-1464.24 3221.44,-1373.16"/>
<polygon fill="black" stroke="black" points="3224.65,-1374.57 3226.03,-1364.07 3218.4,-1371.42 3224.65,-1374.57"/>
</g>
<!-- u18&#45;&gt;u48 -->
<g id="edge26" class="edge">
<title>u18&#45;&gt;u48</title>
<path fill="none" stroke="black" d="M3463.68,-1841.17C3391.34,-1810.18 3247.51,-1736.5 3189.65,-1621 3147.86,-1537.59 3194.97,-1423.7 3220.45,-1373.09"/>
<polygon fill="black" stroke="black" points="3223.6,-1374.6 3225.08,-1364.11 3217.38,-1371.4 3223.6,-1374.6"/>
</g>
<!-- u17 -->
<g id="node47" class="node">
<title>u17</title>
<ellipse fill="#7777ff" stroke="black" cx="3314.65" cy="-2372" rx="289.45" ry="18"/>
<text text-anchor="middle" x="3314.65" y="-2368.3" font-family="Times,serif" font-size="14.00">Language.Drasil.Code.Imperative.GOOL.LanguageRenderer</text>
</g>
<!-- u25&#45;&gt;u19 -->
<g id="edge40" class="edge">
<title>u25&#45;&gt;u19</title>
<path fill="none" stroke="black" d="M2983.25,-2866.87C2961.86,-2823.23 2905.18,-2707.62 2879.56,-2655.34"/>
<polygon fill="black" stroke="black" points="2882.55,-2653.49 2875,-2646.05 2876.26,-2656.57 2882.55,-2653.49"/>
</g>
<!-- u21 -->
<g id="node52" class="node">
<title>u21</title>
<ellipse fill="#ff7777" stroke="black" cx="2232.65" cy="-2628" rx="393.73" ry="18"/>
<text text-anchor="middle" x="2232.65" y="-2624.3" font-family="Times,serif" font-size="14.00">Language.Drasil.Code.Imperative.GOOL.LanguageRenderer.LanguagePolymorphic</text>
</g>
<!-- u25&#45;&gt;u21 -->
<g id="edge41" class="edge">
<title>u25&#45;&gt;u21</title>
<path fill="none" stroke="black" d="M2941.55,-2867.17C2807.01,-2821.97 2438.17,-2698.05 2292.74,-2649.19"/>
<polygon fill="black" stroke="black" points="2293.66,-2645.81 2283.07,-2645.94 2291.43,-2652.44 2293.66,-2645.81"/>
</g>
<!-- u24&#45;&gt;u19 -->
<g id="edge38" class="edge">
<title>u24&#45;&gt;u19</title>
<path fill="none" stroke="black" d="M3674.56,-2867.17C3520.37,-2821.72 3096.15,-2696.66 2932.36,-2648.37"/>
<polygon fill="black" stroke="black" points="2933.01,-2644.91 2922.42,-2645.44 2931.03,-2651.63 2933.01,-2644.91"/>
</g>
<!-- u24&#45;&gt;u21 -->
<g id="edge39" class="edge">
<title>u24&#45;&gt;u21</title>
<path fill="none" stroke="black" d="M3635.31,-2867.61C3368.23,-2822.18 2619.7,-2694.84 2339.94,-2647.25"/>
<polygon fill="black" stroke="black" points="2340.23,-2643.75 2329.78,-2645.52 2339.05,-2650.65 2340.23,-2643.75"/>
</g>
<!-- u23&#45;&gt;u19 -->
<g id="edge36" class="edge">
<title>u23&#45;&gt;u19</title>
<path fill="none" stroke="black" d="M920.66,-2868.14C1293.57,-2822.32 2369.71,-2690.07 2739.83,-2644.58"/>
<polygon fill="black" stroke="black" points="2740.28,-2648.06 2749.77,-2643.36 2739.42,-2641.11 2740.28,-2648.06"/>
</g>
<!-- u23&#45;&gt;u21 -->
<g id="edge37" class="edge">
<title>u23&#45;&gt;u21</title>
<path fill="none" stroke="black" d="M884.53,-2867.56C1141.4,-2822.11 1860.05,-2694.93 2129.16,-2647.31"/>
<polygon fill="black" stroke="black" points="2130.08,-2650.7 2139.32,-2645.52 2128.86,-2643.81 2130.08,-2650.7"/>
</g>
<!-- u22&#45;&gt;u19 -->
<g id="edge34" class="edge">
<title>u22&#45;&gt;u19</title>
<path fill="none" stroke="black" d="M1621.69,-2867.51C1860.24,-2821.81 2528.5,-2693.78 2774.36,-2646.68"/>
<polygon fill="black" stroke="black" points="2775.17,-2650.09 2784.34,-2644.77 2773.86,-2643.21 2775.17,-2650.09"/>
</g>
<!-- u22&#45;&gt;u21 -->
<g id="edge35" class="edge">
<title>u22&#45;&gt;u21</title>
<path fill="none" stroke="black" d="M1581.92,-2867.07C1705.46,-2821.87 2042.76,-2698.47 2176.72,-2649.46"/>
<polygon fill="black" stroke="black" points="2178.2,-2652.65 2186.39,-2645.92 2175.8,-2646.07 2178.2,-2652.65"/>
</g>
<!-- u21&#45;&gt;u28 -->
<g id="edge31" class="edge">
<title>u21&#45;&gt;u28</title>
<path fill="none" stroke="black" d="M2255.4,-2609.87C2300.16,-2574.59 2398.62,-2488.8 2436.65,-2390 2544.03,-2111.02 2481.59,-1734.14 2461.3,-1631.03"/>
<polygon fill="black" stroke="black" points="2464.71,-1630.24 2459.31,-1621.13 2457.85,-1631.62 2464.71,-1630.24"/>
</g>
<!-- u21&#45;&gt;u16 -->
<g id="edge29" class="edge">
<title>u21&#45;&gt;u16</title>
<path fill="none" stroke="black" d="M2268.58,-2609.94C2363.2,-2565.01 2619.1,-2443.52 2722.95,-2394.22"/>
<polygon fill="black" stroke="black" points="2724.69,-2397.27 2732.22,-2389.82 2721.68,-2390.95 2724.69,-2397.27"/>
</g>
<!-- u21&#45;&gt;u39 -->
<g id="edge33" class="edge">
<title>u21&#45;&gt;u39</title>
<path fill="none" stroke="black" d="M2230.36,-2609.94C2224.58,-2566.75 2209.33,-2452.82 2202.29,-2400.26"/>
<polygon fill="black" stroke="black" points="2205.76,-2399.77 2200.96,-2390.32 2198.82,-2400.7 2205.76,-2399.77"/>
</g>
<!-- u21&#45;&gt;u33 -->
<g id="edge32" class="edge">
<title>u21&#45;&gt;u33</title>
<path fill="none" stroke="black" d="M2250.02,-2609.88C2289.39,-2571.05 2388.27,-2473.2 2469.65,-2390 2658.21,-2197.21 2881.77,-1960.68 2953.37,-1884.72"/>
<polygon fill="black" stroke="black" points="2956.27,-1886.74 2960.58,-1877.06 2951.18,-1881.94 2956.27,-1886.74"/>
</g>
<!-- u21&#45;&gt;u17 -->
<g id="edge30" class="edge">
<title>u21&#45;&gt;u17</title>
<path fill="none" stroke="black" d="M2304.06,-2610.24C2497.46,-2564.83 3030.53,-2439.7 3234.15,-2391.9"/>
<polygon fill="black" stroke="black" points="3235.24,-2395.24 3244.17,-2389.54 3233.64,-2388.42 3235.24,-2395.24"/>
</g>
<!-- u20&#45;&gt;u19 -->
<g id="edge27" class="edge">
<title>u20&#45;&gt;u19</title>
<path fill="none" stroke="black" d="M2306.48,-2867.07C2412.64,-2821.95 2702.14,-2698.92 2817.88,-2649.73"/>
<polygon fill="black" stroke="black" points="2819.38,-2652.89 2827.22,-2645.76 2816.65,-2646.45 2819.38,-2652.89"/>
</g>
<!-- u20&#45;&gt;u21 -->
<g id="edge28" class="edge">
<title>u20&#45;&gt;u21</title>
<path fill="none" stroke="black" d="M2264.36,-2866.87C2258.57,-2823.41 2243.26,-2708.58 2236.24,-2655.99"/>
<polygon fill="black" stroke="black" points="2239.71,-2655.5 2234.92,-2646.05 2232.77,-2656.43 2239.71,-2655.5"/>
</g>
<!-- u34 -->
<g id="node54" class="node">
<title>u34</title>
<ellipse fill="#77ffff" stroke="black" cx="3374.65" cy="-2628" rx="267.55" ry="18"/>
<text text-anchor="middle" x="3374.65" y="-2624.3" font-family="Times,serif" font-size="14.00">Language.Drasil.Code.Imperative.Parsers.ConfigParser</text>
</g>
<!-- u34&#45;&gt;u17 -->
<g id="edge58" class="edge">
<title>u34&#45;&gt;u17</title>
<path fill="none" stroke="black" d="M3370.62,-2609.94C3360.41,-2566.75 3333.5,-2452.82 3321.09,-2400.26"/>
<polygon fill="black" stroke="black" points="3324.44,-2399.25 3318.74,-2390.32 3317.63,-2400.86 3324.44,-2399.25"/>
</g>
<!-- u47&#45;&gt;u50 -->
<g id="edge80" class="edge">
<title>u47&#45;&gt;u50</title>
<path fill="none" stroke="black" d="M3019.65,-814.9C3019.65,-715.78 3019.65,-214.97 3019.65,-92.2"/>
<polygon fill="black" stroke="black" points="3023.15,-92.14 3019.65,-82.14 3016.15,-92.14 3023.15,-92.14"/>
</g>
<!-- u46&#45;&gt;u12 -->
<g id="edge78" class="edge">
<title>u46&#45;&gt;u12</title>
<path fill="none" stroke="black" d="M3330.65,-1071.87C3330.65,-1028.5 3330.65,-914.06 3330.65,-861.32"/>
<polygon fill="black" stroke="black" points="3334.15,-861.05 3330.65,-851.05 3327.15,-861.05 3334.15,-861.05"/>
</g>
<!-- u46&#45;&gt;u11 -->
<g id="edge77" class="edge">
<title>u46&#45;&gt;u11</title>
<path fill="none" stroke="black" d="M3379.6,-1072.66C3514.17,-1027.74 3889.37,-902.51 4035.41,-853.77"/>
<polygon fill="black" stroke="black" points="4036.73,-857.02 4045.11,-850.53 4034.52,-850.38 4036.73,-857.02"/>
</g>
<!-- u46&#45;&gt;u8 -->
<g id="edge76" class="edge">
<title>u46&#45;&gt;u8</title>
<path fill="none" stroke="black" d="M3353.75,-1072.07C3414.31,-1027.69 3577.74,-907.94 3646.97,-857.21"/>
<polygon fill="black" stroke="black" points="3649.33,-859.82 3655.32,-851.09 3645.19,-854.18 3649.33,-859.82"/>
</g>
<!-- u46&#45;&gt;u47 -->
<g id="edge79" class="edge">
<title>u46&#45;&gt;u47</title>
<path fill="none" stroke="black" d="M3309.76,-1071.87C3255.54,-1027.41 3110.22,-908.27 3048.27,-857.47"/>
<polygon fill="black" stroke="black" points="3050.4,-854.69 3040.44,-851.05 3045.96,-860.1 3050.4,-854.69"/>
</g>
</g>
</svg>
