<?xml version="1.0" encoding="UTF-8" standalone="no"?>
<!DOCTYPE svg PUBLIC "-//W3C//DTD SVG 1.1//EN"
 "http://www.w3.org/Graphics/SVG/1.1/DTD/svg11.dtd">
<!-- Generated by graphviz version 2.43.0 (0)
 -->
<!-- Title: G Pages: 1 -->
<svg width="432pt" height="288pt"
 viewBox="0.00 0.00 431.69 288.00" xmlns="http://www.w3.org/2000/svg" xmlns:xlink="http://www.w3.org/1999/xlink">
<g id="graph0" class="graph" transform="scale(0.1 0.1) rotate(0) translate(4 2848.67)">
<title>G</title>
<polygon fill="white" stroke="transparent" points="-4,4 -4,-2848.67 4271.93,-2848.67 4271.93,4 -4,4"/>
<!-- u32 -->
<g id="node1" class="node">
<title>u32</title>
<ellipse fill="#bbffbb" stroke="black" cx="1639.99" cy="-2092" rx="133.78" ry="18"/>
<text text-anchor="middle" x="1639.99" y="-2088.3" font-family="Times,serif" font-size="14.00">Drasil.DocumentLanguage</text>
</g>
<!-- u12 -->
<g id="node5" class="node">
<title>u12</title>
<ellipse fill="#bbffbb" stroke="black" cx="1116.99" cy="-1757" rx="92.08" ry="18"/>
<text text-anchor="middle" x="1116.99" y="-1753.3" font-family="Times,serif" font-size="14.00">Drasil.TraceTable</text>
</g>
<!-- u32&#45;&gt;u12 -->
<g id="edge59" class="edge">
<title>u32&#45;&gt;u12</title>
<path fill="none" stroke="black" d="M1613.7,-2074.26C1526.82,-2018.94 1248.98,-1842.04 1151.32,-1779.86"/>
<polygon fill="black" stroke="black" points="1153.03,-1776.8 1142.72,-1774.38 1149.27,-1782.7 1153.03,-1776.8"/>
</g>
<!-- u8 -->
<g id="node8" class="node">
<title>u8</title>
<ellipse fill="#bbffbb" stroke="black" cx="627.99" cy="-1757" rx="116.18" ry="18"/>
<text text-anchor="middle" x="627.99" y="-1753.3" font-family="Times,serif" font-size="14.00">Drasil.ExtractDocDesc</text>
</g>
<!-- u32&#45;&gt;u8 -->
<g id="edge58" class="edge">
<title>u32&#45;&gt;u8</title>
<path fill="none" stroke="black" d="M1591.86,-2075.16C1424.08,-2019.95 865.4,-1836.12 684.82,-1776.7"/>
<polygon fill="black" stroke="black" points="685.83,-1773.35 675.24,-1773.55 683.64,-1780 685.83,-1773.35"/>
</g>
<!-- u0 -->
<g id="node9" class="node">
<title>u0</title>
<ellipse fill="#bbffbb" stroke="black" cx="898.99" cy="-1757" rx="79.09" ry="18"/>
<text text-anchor="middle" x="898.99" y="-1753.3" font-family="Times,serif" font-size="14.00">Drasil.DocDecl</text>
</g>
<!-- u32&#45;&gt;u0 -->
<g id="edge56" class="edge">
<title>u32&#45;&gt;u0</title>
<path fill="none" stroke="black" d="M1603.5,-2074.6C1479.61,-2018.93 1075.44,-1837.3 942.1,-1777.37"/>
<polygon fill="black" stroke="black" points="943.53,-1774.18 932.98,-1773.27 940.66,-1780.57 943.53,-1774.18"/>
</g>
<!-- u27 -->
<g id="node12" class="node">
<title>u27</title>
<ellipse fill="#ffffbb" stroke="black" cx="2263.99" cy="-1757" rx="136.48" ry="18"/>
<text text-anchor="middle" x="2263.99" y="-1753.3" font-family="Times,serif" font-size="14.00">Drasil.DocLang.References</text>
</g>
<!-- u32&#45;&gt;u27 -->
<g id="edge64" class="edge">
<title>u32&#45;&gt;u27</title>
<path fill="none" stroke="black" d="M1670.93,-2074.49C1774.37,-2019.29 2108.09,-1841.19 2223.94,-1779.38"/>
<polygon fill="black" stroke="black" points="2225.68,-1782.41 2232.86,-1774.61 2222.39,-1776.23 2225.68,-1782.41"/>
</g>
<!-- u1 -->
<g id="node19" class="node">
<title>u1</title>
<ellipse fill="#ffbbbb" stroke="black" cx="1888.99" cy="-1757" rx="220.96" ry="18"/>
<text text-anchor="middle" x="1888.99" y="-1753.3" font-family="Times,serif" font-size="14.00">Drasil.DocumentLanguage.TraceabilityGraph</text>
</g>
<!-- u32&#45;&gt;u1 -->
<g id="edge57" class="edge">
<title>u32&#45;&gt;u1</title>
<path fill="none" stroke="black" d="M1652.68,-2074.03C1693.46,-2019.49 1821.35,-1848.46 1869.97,-1783.43"/>
<polygon fill="black" stroke="black" points="1872.84,-1785.44 1876.03,-1775.34 1867.23,-1781.25 1872.84,-1785.44"/>
</g>
<!-- u24 -->
<g id="node21" class="node">
<title>u24</title>
<ellipse fill="#ffbbff" stroke="black" cx="899.99" cy="-1422" rx="161.37" ry="18"/>
<text text-anchor="middle" x="899.99" y="-1418.3" font-family="Times,serif" font-size="14.00">Drasil.Sections.TableOfContents</text>
</g>
<!-- u32&#45;&gt;u24 -->
<g id="edge63" class="edge">
<title>u32&#45;&gt;u24</title>
<path fill="none" stroke="black" d="M1621.33,-2074.15C1520.86,-1983.46 1044.53,-1553.48 926.5,-1446.93"/>
<polygon fill="black" stroke="black" points="928.71,-1444.21 918.94,-1440.11 924.02,-1449.4 928.71,-1444.21"/>
</g>
<!-- u21 -->
<g id="node24" class="node">
<title>u21</title>
<ellipse fill="#ffbbff" stroke="black" cx="1864.99" cy="-1422" rx="141.88" ry="18"/>
<text text-anchor="middle" x="1864.99" y="-1418.3" font-family="Times,serif" font-size="14.00">Drasil.Sections.Introduction</text>
</g>
<!-- u32&#45;&gt;u21 -->
<g id="edge62" class="edge">
<title>u32&#45;&gt;u21</title>
<path fill="none" stroke="black" d="M1637.87,-2073.94C1632.04,-2022.04 1618.79,-1862.04 1658.99,-1739 1698.67,-1617.57 1797.48,-1497.72 1842.28,-1447.55"/>
<polygon fill="black" stroke="black" points="1844.89,-1449.88 1848.98,-1440.1 1839.69,-1445.19 1844.89,-1449.88"/>
</g>
<!-- u17 -->
<g id="node28" class="node">
<title>u17</title>
<ellipse fill="#ffbbff" stroke="black" cx="3796.99" cy="-1422" rx="163.27" ry="18"/>
<text text-anchor="middle" x="3796.99" y="-1418.3" font-family="Times,serif" font-size="14.00">Drasil.Sections.GeneralSystDesc</text>
</g>
<!-- u32&#45;&gt;u17 -->
<g id="edge61" class="edge">
<title>u32&#45;&gt;u17</title>
<path fill="none" stroke="black" d="M1690.66,-2075.31C1979.58,-1985.83 3417.27,-1540.59 3734.84,-1442.25"/>
<polygon fill="black" stroke="black" points="3736.27,-1445.47 3744.78,-1439.17 3734.2,-1438.78 3736.27,-1445.47"/>
</g>
<!-- u15 -->
<g id="node30" class="node">
<title>u15</title>
<ellipse fill="#ffbbff" stroke="black" cx="4122.99" cy="-1422" rx="144.87" ry="18"/>
<text text-anchor="middle" x="4122.99" y="-1418.3" font-family="Times,serif" font-size="14.00">Drasil.Sections.Stakeholders</text>
</g>
<!-- u32&#45;&gt;u15 -->
<g id="edge60" class="edge">
<title>u32&#45;&gt;u15</title>
<path fill="none" stroke="black" d="M1697.11,-2075.63C2028.15,-1986.57 3698.05,-1537.32 4055.56,-1441.14"/>
<polygon fill="black" stroke="black" points="4056.5,-1444.51 4065.25,-1438.53 4054.69,-1437.75 4056.5,-1444.51"/>
</g>
<!-- u31 -->
<g id="node2" class="node">
<title>u31</title>
<ellipse fill="#bbffbb" stroke="black" cx="116.99" cy="-1422" rx="116.98" ry="18"/>
<text text-anchor="middle" x="116.99" y="-1418.3" font-family="Times,serif" font-size="14.00">Drasil.ExtractCommon</text>
</g>
<!-- u30 -->
<g id="node3" class="node">
<title>u30</title>
<ellipse fill="#bbffbb" stroke="black" cx="1639.99" cy="-2426" rx="81.79" ry="18"/>
<text text-anchor="middle" x="1639.99" y="-2422.3" font-family="Times,serif" font-size="14.00">Drasil.DocLang</text>
</g>
<!-- u30&#45;&gt;u32 -->
<g id="edge55" class="edge">
<title>u30&#45;&gt;u32</title>
<path fill="none" stroke="black" d="M1639.99,-2407.62C1639.99,-2353.27 1639.99,-2186.27 1639.99,-2120.26"/>
<polygon fill="black" stroke="black" points="1643.49,-2120.21 1639.99,-2110.21 1636.49,-2120.21 1643.49,-2120.21"/>
</g>
<!-- u25 -->
<g id="node4" class="node">
<title>u25</title>
<ellipse fill="#bbffbb" stroke="black" cx="457.99" cy="-2092" rx="115.08" ry="18"/>
<text text-anchor="middle" x="457.99" y="-2088.3" font-family="Times,serif" font-size="14.00">Drasil.ExtractLsnDesc</text>
</g>
<!-- u25&#45;&gt;u8 -->
<g id="edge47" class="edge">
<title>u25&#45;&gt;u8</title>
<path fill="none" stroke="black" d="M466.65,-2074.03C494.33,-2019.82 580.74,-1850.55 614.39,-1784.64"/>
<polygon fill="black" stroke="black" points="617.71,-1785.83 619.14,-1775.34 611.47,-1782.65 617.71,-1785.83"/>
</g>
<!-- u4 -->
<g id="node20" class="node">
<title>u4</title>
<ellipse fill="#bbffff" stroke="black" cx="287.99" cy="-1757" rx="206.06" ry="18"/>
<text text-anchor="middle" x="287.99" y="-1753.3" font-family="Times,serif" font-size="14.00">Drasil.DocumentLanguage.Notebook.Core</text>
</g>
<!-- u25&#45;&gt;u4 -->
<g id="edge46" class="edge">
<title>u25&#45;&gt;u4</title>
<path fill="none" stroke="black" d="M449.33,-2074.03C421.65,-2019.82 335.24,-1850.55 301.59,-1784.64"/>
<polygon fill="black" stroke="black" points="304.5,-1782.65 296.84,-1775.34 298.27,-1785.83 304.5,-1782.65"/>
</g>
<!-- u3 -->
<g id="node17" class="node">
<title>u3</title>
<ellipse fill="#ffbbbb" stroke="black" cx="943.99" cy="-1088" rx="159.47" ry="18"/>
<text text-anchor="middle" x="943.99" y="-1084.3" font-family="Times,serif" font-size="14.00">Drasil.DocumentLanguage.Core</text>
</g>
<!-- u12&#45;&gt;u3 -->
<g id="edge17" class="edge">
<title>u12&#45;&gt;u3</title>
<path fill="none" stroke="black" d="M1064.24,-1742.22C905.99,-1699.71 440.96,-1565.85 356.99,-1440 226.65,-1244.64 648.1,-1141.64 846.51,-1104.89"/>
<polygon fill="black" stroke="black" points="847.16,-1108.33 856.37,-1103.09 845.9,-1101.44 847.16,-1108.33"/>
</g>
<!-- u10 -->
<g id="node6" class="node">
<title>u10</title>
<ellipse fill="#bbffbb" stroke="black" cx="1639.99" cy="-2761" rx="108.58" ry="18"/>
<text text-anchor="middle" x="1639.99" y="-2757.3" font-family="Times,serif" font-size="14.00">Drasil.SRSDocument</text>
</g>
<!-- u10&#45;&gt;u30 -->
<g id="edge15" class="edge">
<title>u10&#45;&gt;u30</title>
<path fill="none" stroke="black" d="M1639.99,-2742.57C1639.99,-2688.06 1639.99,-2520.55 1639.99,-2454.34"/>
<polygon fill="black" stroke="black" points="1643.49,-2454.26 1639.99,-2444.26 1636.49,-2454.26 1643.49,-2454.26"/>
</g>
<!-- u9 -->
<g id="node7" class="node">
<title>u9</title>
<ellipse fill="#bbffbb" stroke="black" cx="2690.99" cy="-418" rx="92.88" ry="18"/>
<text text-anchor="middle" x="2690.99" y="-414.3" font-family="Times,serif" font-size="14.00">Drasil.GetChunks</text>
</g>
<!-- u8&#45;&gt;u31 -->
<g id="edge14" class="edge">
<title>u8&#45;&gt;u31</title>
<path fill="none" stroke="black" d="M602.3,-1739.26C517.51,-1684.01 246.58,-1507.45 150.87,-1445.08"/>
<polygon fill="black" stroke="black" points="152.72,-1442.1 142.43,-1439.58 148.9,-1447.97 152.72,-1442.1"/>
</g>
<!-- u8&#45;&gt;u3 -->
<g id="edge12" class="edge">
<title>u8&#45;&gt;u3</title>
<path fill="none" stroke="black" d="M590.54,-1739.8C487.71,-1692.94 214.51,-1551.19 305.99,-1404 424.63,-1213.11 696.9,-1134.45 844.49,-1104.91"/>
<polygon fill="black" stroke="black" points="845.33,-1108.31 854.47,-1102.95 843.98,-1101.44 845.33,-1108.31"/>
</g>
<!-- u19 -->
<g id="node26" class="node">
<title>u19</title>
<ellipse fill="#ffbbff" stroke="black" cx="2690.99" cy="-1422" rx="207.96" ry="18"/>
<text text-anchor="middle" x="2690.99" y="-1418.3" font-family="Times,serif" font-size="14.00">Drasil.Sections.SpecificSystemDescription</text>
</g>
<!-- u8&#45;&gt;u19 -->
<g id="edge13" class="edge">
<title>u8&#45;&gt;u19</title>
<path fill="none" stroke="black" d="M705.41,-1743.5C1022.95,-1692.25 2225.86,-1498.08 2587.53,-1439.7"/>
<polygon fill="black" stroke="black" points="2588.15,-1443.15 2597.46,-1438.1 2587.03,-1436.23 2588.15,-1443.15"/>
</g>
<!-- u0&#45;&gt;u3 -->
<g id="edge1" class="edge">
<title>u0&#45;&gt;u3</title>
<path fill="none" stroke="black" d="M835.96,-1746.01C661.93,-1715.54 195.82,-1612.88 323.99,-1404 439.45,-1215.82 706.31,-1135.76 849.36,-1105.36"/>
<polygon fill="black" stroke="black" points="850.37,-1108.73 859.44,-1103.26 848.94,-1101.88 850.37,-1108.73"/>
</g>
<!-- u29 -->
<g id="node10" class="node">
<title>u29</title>
<ellipse fill="#ffffbb" stroke="black" cx="2946.99" cy="-1088" rx="104.78" ry="18"/>
<text text-anchor="middle" x="2946.99" y="-1084.3" font-family="Times,serif" font-size="14.00">Drasil.DocLang.SRS</text>
</g>
<!-- u28 -->
<g id="node11" class="node">
<title>u28</title>
<ellipse fill="#ffffbb" stroke="black" cx="195.99" cy="-2092" rx="129.18" ry="18"/>
<text text-anchor="middle" x="195.99" y="-2088.3" font-family="Times,serif" font-size="14.00">Drasil.DocLang.Notebook</text>
</g>
<!-- u23 -->
<g id="node22" class="node">
<title>u23</title>
<ellipse fill="#ffbbff" stroke="black" cx="1237.99" cy="-1422" rx="159.47" ry="18"/>
<text text-anchor="middle" x="1237.99" y="-1418.3" font-family="Times,serif" font-size="14.00">Drasil.Sections.TableOfSymbols</text>
</g>
<!-- u27&#45;&gt;u23 -->
<g id="edge54" class="edge">
<title>u27&#45;&gt;u23</title>
<path fill="none" stroke="black" d="M2215.19,-1740.16C2045.59,-1685.12 1482.02,-1502.2 1297.24,-1442.23"/>
<polygon fill="black" stroke="black" points="1298.28,-1438.89 1287.68,-1439.13 1296.12,-1445.55 1298.28,-1438.89"/>
</g>
<!-- u20 -->
<g id="node25" class="node">
<title>u20</title>
<ellipse fill="#ffbbff" stroke="black" cx="2263.99" cy="-1422" rx="201.46" ry="18"/>
<text text-anchor="middle" x="2263.99" y="-1418.3" font-family="Times,serif" font-size="14.00">Drasil.Sections.TableOfAbbAndAcronyms</text>
</g>
<!-- u27&#45;&gt;u20 -->
<g id="edge53" class="edge">
<title>u27&#45;&gt;u20</title>
<path fill="none" stroke="black" d="M2263.99,-1738.57C2263.99,-1684.06 2263.99,-1516.55 2263.99,-1450.34"/>
<polygon fill="black" stroke="black" points="2267.49,-1450.26 2263.99,-1440.26 2260.49,-1450.26 2267.49,-1450.26"/>
</g>
<!-- u27&#45;&gt;u19 -->
<g id="edge52" class="edge">
<title>u27&#45;&gt;u19</title>
<path fill="none" stroke="black" d="M2285.75,-1739.03C2356.42,-1683.91 2579.62,-1509.85 2660.96,-1446.42"/>
<polygon fill="black" stroke="black" points="2663.54,-1448.85 2669.27,-1439.94 2659.23,-1443.33 2663.54,-1448.85"/>
</g>
<!-- u18 -->
<g id="node27" class="node">
<title>u18</title>
<ellipse fill="#ffbbff" stroke="black" cx="542.99" cy="-1422" rx="177.37" ry="18"/>
<text text-anchor="middle" x="542.99" y="-1418.3" font-family="Times,serif" font-size="14.00">Drasil.Sections.TraceabilityMandGs</text>
</g>
<!-- u27&#45;&gt;u18 -->
<g id="edge51" class="edge">
<title>u27&#45;&gt;u18</title>
<path fill="none" stroke="black" d="M2190.59,-1741.8C1913.69,-1688.22 932.86,-1498.44 631.63,-1440.15"/>
<polygon fill="black" stroke="black" points="632.12,-1436.68 621.63,-1438.22 630.79,-1443.55 632.12,-1436.68"/>
</g>
<!-- u16 -->
<g id="node29" class="node">
<title>u16</title>
<ellipse fill="#ffbbff" stroke="black" cx="1559.99" cy="-1422" rx="144.87" ry="18"/>
<text text-anchor="middle" x="1559.99" y="-1418.3" font-family="Times,serif" font-size="14.00">Drasil.Sections.TableOfUnits</text>
</g>
<!-- u27&#45;&gt;u16 -->
<g id="edge50" class="edge">
<title>u27&#45;&gt;u16</title>
<path fill="none" stroke="black" d="M2229.08,-1739.49C2112.15,-1684.18 1734.36,-1505.48 1604.4,-1444"/>
<polygon fill="black" stroke="black" points="1605.65,-1440.73 1595.11,-1439.61 1602.65,-1447.05 1605.65,-1440.73"/>
</g>
<!-- u14 -->
<g id="node31" class="node">
<title>u14</title>
<ellipse fill="#ffbbff" stroke="black" cx="3443.99" cy="-1422" rx="172.47" ry="18"/>
<text text-anchor="middle" x="3443.99" y="-1418.3" font-family="Times,serif" font-size="14.00">Drasil.Sections.AuxiliaryConstants</text>
</g>
<!-- u27&#45;&gt;u14 -->
<g id="edge49" class="edge">
<title>u27&#45;&gt;u14</title>
<path fill="none" stroke="black" d="M2318.93,-1740.5C2512.97,-1685.74 3165.79,-1501.51 3377.27,-1441.83"/>
<polygon fill="black" stroke="black" points="3378.33,-1445.17 3387,-1439.08 3376.42,-1438.43 3378.33,-1445.17"/>
</g>
<!-- u13 -->
<g id="node32" class="node">
<title>u13</title>
<ellipse fill="#ffbbff" stroke="black" cx="3103.99" cy="-1422" rx="149.47" ry="18"/>
<text text-anchor="middle" x="3103.99" y="-1418.3" font-family="Times,serif" font-size="14.00">Drasil.Sections.Requirements</text>
</g>
<!-- u27&#45;&gt;u13 -->
<g id="edge48" class="edge">
<title>u27&#45;&gt;u13</title>
<path fill="none" stroke="black" d="M2305.07,-1739.71C2444.47,-1684.45 2899.27,-1504.16 3052.82,-1443.29"/>
<polygon fill="black" stroke="black" points="3054.48,-1446.39 3062.49,-1439.45 3051.9,-1439.88 3054.48,-1446.39"/>
</g>
<!-- u11 -->
<g id="node13" class="node">
<title>u11</title>
<ellipse fill="#bbbbff" stroke="black" cx="3446.99" cy="-418" rx="133.78" ry="18"/>
<text text-anchor="middle" x="3446.99" y="-414.3" font-family="Times,serif" font-size="14.00">Drasil.Document.Contents</text>
</g>
<!-- u26 -->
<g id="node33" class="node">
<title>u26</title>
<ellipse fill="#77ff77" stroke="black" cx="3365.99" cy="-84" rx="146.77" ry="18"/>
<text text-anchor="middle" x="3365.99" y="-80.3" font-family="Times,serif" font-size="14.00">Drasil.Sentence.Combinators</text>
</g>
<!-- u11&#45;&gt;u26 -->
<g id="edge16" class="edge">
<title>u11&#45;&gt;u26</title>
<path fill="none" stroke="black" d="M3442.75,-399.62C3429.49,-345.27 3388.75,-178.27 3372.64,-112.26"/>
<polygon fill="black" stroke="black" points="3375.96,-111.1 3370.19,-102.21 3369.16,-112.75 3375.96,-111.1"/>
</g>
<!-- u7 -->
<g id="node14" class="node">
<title>u7</title>
<ellipse fill="#ffbbbb" stroke="black" cx="542.99" cy="-1088" rx="223.66" ry="18"/>
<text text-anchor="middle" x="542.99" y="-1084.3" font-family="Times,serif" font-size="14.00">Drasil.DocumentLanguage.TraceabilityMatrix</text>
</g>
<!-- u5 -->
<g id="node16" class="node">
<title>u5</title>
<ellipse fill="#ffbbbb" stroke="black" cx="2690.99" cy="-753" rx="187.37" ry="18"/>
<text text-anchor="middle" x="2690.99" y="-749.3" font-family="Times,serif" font-size="14.00">Drasil.DocumentLanguage.Definitions</text>
</g>
<!-- u7&#45;&gt;u5 -->
<g id="edge11" class="edge">
<title>u7&#45;&gt;u5</title>
<path fill="none" stroke="black" d="M641.22,-1071.77C997.63,-1016.52 2220.94,-826.87 2586.81,-770.15"/>
<polygon fill="black" stroke="black" points="2587.52,-773.58 2596.87,-768.59 2586.45,-766.67 2587.52,-773.58"/>
</g>
<!-- u6 -->
<g id="node15" class="node">
<title>u6</title>
<ellipse fill="#ffbbbb" stroke="black" cx="3094.99" cy="-418" rx="162.47" ry="18"/>
<text text-anchor="middle" x="3094.99" y="-414.3" font-family="Times,serif" font-size="14.00">Drasil.DocumentLanguage.Units</text>
</g>
<!-- u5&#45;&gt;u9 -->
<g id="edge9" class="edge">
<title>u5&#45;&gt;u9</title>
<path fill="none" stroke="black" d="M2690.99,-734.57C2690.99,-680.06 2690.99,-512.55 2690.99,-446.34"/>
<polygon fill="black" stroke="black" points="2694.49,-446.26 2690.99,-436.26 2687.49,-446.26 2694.49,-446.26"/>
</g>
<!-- u5&#45;&gt;u11 -->
<g id="edge10" class="edge">
<title>u5&#45;&gt;u11</title>
<path fill="none" stroke="black" d="M2729,-735.26C2855.46,-679.55 3261.88,-500.54 3400.3,-439.56"/>
<polygon fill="black" stroke="black" points="3402.06,-442.62 3409.8,-435.38 3399.24,-436.21 3402.06,-442.62"/>
</g>
<!-- u5&#45;&gt;u6 -->
<g id="edge8" class="edge">
<title>u5&#45;&gt;u6</title>
<path fill="none" stroke="black" d="M2711.58,-735.03C2778.45,-679.91 2989.62,-505.85 3066.58,-442.42"/>
<polygon fill="black" stroke="black" points="3068.95,-445 3074.44,-435.94 3064.5,-439.6 3068.95,-445"/>
</g>
<!-- u3&#45;&gt;u5 -->
<g id="edge7" class="edge">
<title>u3&#45;&gt;u5</title>
<path fill="none" stroke="black" d="M1021.31,-1072.26C1306.07,-1017.98 2295.58,-829.37 2600.7,-771.21"/>
<polygon fill="black" stroke="black" points="2601.66,-774.59 2610.83,-769.28 2600.35,-767.71 2601.66,-774.59"/>
</g>
<!-- u2 -->
<g id="node18" class="node">
<title>u2</title>
<ellipse fill="#ffbbbb" stroke="black" cx="326.99" cy="-2426" rx="181.17" ry="18"/>
<text text-anchor="middle" x="326.99" y="-2422.3" font-family="Times,serif" font-size="14.00">Drasil.DocumentLanguage.Notebook</text>
</g>
<!-- u2&#45;&gt;u25 -->
<g id="edge5" class="edge">
<title>u2&#45;&gt;u25</title>
<path fill="none" stroke="black" d="M333.85,-2407.62C355.34,-2353.16 421.46,-2185.58 447.39,-2119.85"/>
<polygon fill="black" stroke="black" points="450.78,-2120.8 451.2,-2110.21 444.27,-2118.23 450.78,-2120.8"/>
</g>
<!-- u2&#45;&gt;u28 -->
<g id="edge6" class="edge">
<title>u2&#45;&gt;u28</title>
<path fill="none" stroke="black" d="M320.13,-2407.62C298.64,-2353.16 232.52,-2185.58 206.58,-2119.85"/>
<polygon fill="black" stroke="black" points="209.71,-2118.23 202.78,-2110.21 203.2,-2120.8 209.71,-2118.23"/>
</g>
<!-- u1&#45;&gt;u29 -->
<g id="edge4" class="edge">
<title>u1&#45;&gt;u29</title>
<path fill="none" stroke="black" d="M1981.05,-1740.58C2208.51,-1700.54 2787.31,-1586.11 2907.99,-1440 2986.98,-1344.37 2965.48,-1180.7 2952.99,-1116.23"/>
<polygon fill="black" stroke="black" points="2956.35,-1115.18 2950.93,-1106.07 2949.49,-1116.57 2956.35,-1115.18"/>
</g>
<!-- u22 -->
<g id="node23" class="node">
<title>u22</title>
<ellipse fill="#ffbbff" stroke="black" cx="2263.99" cy="-1088" rx="170.07" ry="18"/>
<text text-anchor="middle" x="2263.99" y="-1084.3" font-family="Times,serif" font-size="14.00">Drasil.Sections.ReferenceMaterial</text>
</g>
<!-- u1&#45;&gt;u22 -->
<g id="edge3" class="edge">
<title>u1&#45;&gt;u22</title>
<path fill="none" stroke="black" d="M1896.01,-1738.69C1917.32,-1686.74 1984.08,-1528.06 2053.99,-1404 2117.26,-1291.72 2206.81,-1166.64 2245.26,-1114.24"/>
<polygon fill="black" stroke="black" points="2248.09,-1116.3 2251.2,-1106.18 2242.45,-1112.15 2248.09,-1116.3"/>
</g>
<!-- u1&#45;&gt;u18 -->
<g id="edge2" class="edge">
<title>u1&#45;&gt;u18</title>
<path fill="none" stroke="black" d="M1823.16,-1739.71C1597.33,-1683.84 854.97,-1500.18 617.06,-1441.32"/>
<polygon fill="black" stroke="black" points="617.67,-1437.87 607.12,-1438.87 615.99,-1444.67 617.67,-1437.87"/>
</g>
<!-- u24&#45;&gt;u29 -->
<g id="edge45" class="edge">
<title>u24&#45;&gt;u29</title>
<path fill="none" stroke="black" d="M987.29,-1406.84C1323.77,-1352.27 2534.13,-1155.96 2863.65,-1102.52"/>
<polygon fill="black" stroke="black" points="2864.29,-1105.96 2873.6,-1100.9 2863.17,-1099.05 2864.29,-1105.96"/>
</g>
<!-- u24&#45;&gt;u3 -->
<g id="edge44" class="edge">
<title>u24&#45;&gt;u3</title>
<path fill="none" stroke="black" d="M902.29,-1403.62C909.5,-1349.27 931.63,-1182.27 940.38,-1116.26"/>
<polygon fill="black" stroke="black" points="943.86,-1116.58 941.71,-1106.21 936.93,-1115.66 943.86,-1116.58"/>
</g>
<!-- u23&#45;&gt;u3 -->
<g id="edge42" class="edge">
<title>u23&#45;&gt;u3</title>
<path fill="none" stroke="black" d="M1223.01,-1404.08C1174.75,-1349.59 1023.24,-1178.49 966.09,-1113.96"/>
<polygon fill="black" stroke="black" points="968.55,-1111.45 959.3,-1106.28 963.31,-1116.09 968.55,-1111.45"/>
</g>
<!-- u23&#45;&gt;u22 -->
<g id="edge43" class="edge">
<title>u23&#45;&gt;u22</title>
<path fill="none" stroke="black" d="M1287.82,-1404.87C1458.53,-1349.63 2019.42,-1168.14 2204.29,-1108.32"/>
<polygon fill="black" stroke="black" points="2205.42,-1111.63 2213.85,-1105.22 2203.26,-1104.97 2205.42,-1111.63"/>
</g>
<!-- u21&#45;&gt;u29 -->
<g id="edge41" class="edge">
<title>u21&#45;&gt;u29</title>
<path fill="none" stroke="black" d="M1916.45,-1405.21C2096.53,-1349.95 2697.79,-1165.46 2888.45,-1106.96"/>
<polygon fill="black" stroke="black" points="2889.49,-1110.3 2898.02,-1104.02 2887.44,-1103.61 2889.49,-1110.3"/>
</g>
<!-- u21&#45;&gt;u3 -->
<g id="edge39" class="edge">
<title>u21&#45;&gt;u3</title>
<path fill="none" stroke="black" d="M1820.26,-1404.87C1667.41,-1349.78 1166.11,-1169.07 998.86,-1108.78"/>
<polygon fill="black" stroke="black" points="999.86,-1105.42 989.27,-1105.32 997.49,-1112.01 999.86,-1105.42"/>
</g>
<!-- u21&#45;&gt;u22 -->
<g id="edge40" class="edge">
<title>u21&#45;&gt;u22</title>
<path fill="none" stroke="black" d="M1885.32,-1404.08C1951.36,-1349.13 2159.92,-1175.59 2235.93,-1112.35"/>
<polygon fill="black" stroke="black" points="2238.25,-1114.97 2243.7,-1105.89 2233.77,-1109.59 2238.25,-1114.97"/>
</g>
<!-- u20&#45;&gt;u22 -->
<g id="edge38" class="edge">
<title>u20&#45;&gt;u22</title>
<path fill="none" stroke="black" d="M2263.99,-1403.62C2263.99,-1349.27 2263.99,-1182.27 2263.99,-1116.26"/>
<polygon fill="black" stroke="black" points="2267.49,-1116.21 2263.99,-1106.21 2260.49,-1116.21 2267.49,-1116.21"/>
</g>
<!-- u19&#45;&gt;u29 -->
<g id="edge37" class="edge">
<title>u19&#45;&gt;u29</title>
<path fill="none" stroke="black" d="M2704.39,-1403.62C2746.73,-1348.71 2877.73,-1178.82 2927.52,-1114.25"/>
<polygon fill="black" stroke="black" points="2930.38,-1116.27 2933.72,-1106.21 2924.84,-1111.99 2930.38,-1116.27"/>
</g>
<!-- u19&#45;&gt;u5 -->
<g id="edge35" class="edge">
<title>u19&#45;&gt;u5</title>
<path fill="none" stroke="black" d="M2690.99,-1403.84C2690.99,-1313.46 2690.99,-892.55 2690.99,-781.12"/>
<polygon fill="black" stroke="black" points="2694.49,-781.04 2690.99,-771.04 2687.49,-781.04 2694.49,-781.04"/>
</g>
<!-- u19&#45;&gt;u22 -->
<g id="edge36" class="edge">
<title>u19&#45;&gt;u22</title>
<path fill="none" stroke="black" d="M2669.23,-1404.08C2598.55,-1349.13 2375.36,-1175.59 2294.02,-1112.35"/>
<polygon fill="black" stroke="black" points="2295.75,-1109.26 2285.71,-1105.89 2291.45,-1114.79 2295.75,-1109.26"/>
</g>
<!-- u18&#45;&gt;u7 -->
<g id="edge34" class="edge">
<title>u18&#45;&gt;u7</title>
<path fill="none" stroke="black" d="M542.99,-1403.62C542.99,-1349.27 542.99,-1182.27 542.99,-1116.26"/>
<polygon fill="black" stroke="black" points="546.49,-1116.21 542.99,-1106.21 539.49,-1116.21 546.49,-1116.21"/>
</g>
<!-- u18&#45;&gt;u3 -->
<g id="edge33" class="edge">
<title>u18&#45;&gt;u3</title>
<path fill="none" stroke="black" d="M563.43,-1404.08C629.8,-1349.13 839.4,-1175.59 915.79,-1112.35"/>
<polygon fill="black" stroke="black" points="918.12,-1114.96 923.59,-1105.89 913.66,-1109.57 918.12,-1114.96"/>
</g>
<!-- u17&#45;&gt;u29 -->
<g id="edge32" class="edge">
<title>u17&#45;&gt;u29</title>
<path fill="none" stroke="black" d="M3754.84,-1404.54C3612.58,-1348.97 3150.53,-1168.5 2997.06,-1108.56"/>
<polygon fill="black" stroke="black" points="2997.99,-1105.16 2987.4,-1104.78 2995.44,-1111.68 2997.99,-1105.16"/>
</g>
<!-- u17&#45;&gt;u11 -->
<g id="edge30" class="edge">
<title>u17&#45;&gt;u11</title>
<path fill="none" stroke="black" d="M3790.91,-1403.61C3749.34,-1284.58 3506.93,-590.61 3456.27,-445.57"/>
<polygon fill="black" stroke="black" points="3459.56,-444.38 3452.96,-436.09 3452.95,-446.68 3459.56,-444.38"/>
</g>
<!-- u17&#45;&gt;u22 -->
<g id="edge31" class="edge">
<title>u17&#45;&gt;u22</title>
<path fill="none" stroke="black" d="M3726.38,-1405.71C3473.52,-1350.95 2614.02,-1164.81 2345.1,-1106.57"/>
<polygon fill="black" stroke="black" points="2345.54,-1103.08 2335.02,-1104.38 2344.06,-1109.92 2345.54,-1103.08"/>
</g>
<!-- u16&#45;&gt;u3 -->
<g id="edge28" class="edge">
<title>u16&#45;&gt;u3</title>
<path fill="none" stroke="black" d="M1529.02,-1404.31C1426.52,-1349.07 1098.33,-1172.18 983.84,-1110.48"/>
<polygon fill="black" stroke="black" points="985.48,-1107.39 975.02,-1105.72 982.16,-1113.55 985.48,-1107.39"/>
</g>
<!-- u16&#45;&gt;u22 -->
<g id="edge29" class="edge">
<title>u16&#45;&gt;u22</title>
<path fill="none" stroke="black" d="M1595.38,-1404.31C1712.76,-1348.95 2089.11,-1171.47 2219.23,-1110.11"/>
<polygon fill="black" stroke="black" points="2220.97,-1113.16 2228.53,-1105.72 2217.99,-1106.82 2220.97,-1113.16"/>
</g>
<!-- u15&#45;&gt;u29 -->
<g id="edge27" class="edge">
<title>u15&#45;&gt;u29</title>
<path fill="none" stroke="black" d="M4067.45,-1405.32C3871.59,-1350.03 3213.81,-1164.33 3008.65,-1106.41"/>
<polygon fill="black" stroke="black" points="3009.51,-1103.01 2998.93,-1103.66 3007.61,-1109.75 3009.51,-1103.01"/>
</g>
<!-- u15&#45;&gt;u11 -->
<g id="edge26" class="edge">
<title>u15&#45;&gt;u11</title>
<path fill="none" stroke="black" d="M4111.54,-1404.03C4031.92,-1286.01 3561.12,-588.17 3464.37,-444.76"/>
<polygon fill="black" stroke="black" points="3467.04,-442.46 3458.54,-436.12 3461.23,-446.37 3467.04,-442.46"/>
</g>
<!-- u14&#45;&gt;u29 -->
<g id="edge25" class="edge">
<title>u14&#45;&gt;u29</title>
<path fill="none" stroke="black" d="M3418.66,-1404.08C3335.88,-1348.78 3073.29,-1173.37 2980.15,-1111.15"/>
<polygon fill="black" stroke="black" points="2981.94,-1108.14 2971.68,-1105.49 2978.05,-1113.96 2981.94,-1108.14"/>
</g>
<!-- u14&#45;&gt;u11 -->
<g id="edge23" class="edge">
<title>u14&#45;&gt;u11</title>
<path fill="none" stroke="black" d="M3444.04,-1403.61C3444.4,-1284.82 3446.47,-593.38 3446.91,-446.44"/>
<polygon fill="black" stroke="black" points="3450.41,-446.1 3446.94,-436.09 3443.41,-446.08 3450.41,-446.1"/>
</g>
<!-- u14&#45;&gt;u6 -->
<g id="edge22" class="edge">
<title>u14&#45;&gt;u6</title>
<path fill="none" stroke="black" d="M3437.93,-1403.61C3396.48,-1284.58 3154.76,-590.61 3104.24,-445.57"/>
<polygon fill="black" stroke="black" points="3107.54,-444.38 3100.94,-436.09 3100.93,-446.68 3107.54,-444.38"/>
</g>
<!-- u14&#45;&gt;u22 -->
<g id="edge24" class="edge">
<title>u14&#45;&gt;u22</title>
<path fill="none" stroke="black" d="M3387.08,-1404.99C3190.62,-1349.71 2541.5,-1167.08 2330.72,-1107.78"/>
<polygon fill="black" stroke="black" points="2331.6,-1104.39 2321.02,-1105.05 2329.7,-1111.12 2331.6,-1104.39"/>
</g>
<!-- u13&#45;&gt;u29 -->
<g id="edge21" class="edge">
<title>u13&#45;&gt;u29</title>
<path fill="none" stroke="black" d="M3095.77,-1403.62C3069.96,-1349.05 2990.45,-1180.89 2959.5,-1115.45"/>
<polygon fill="black" stroke="black" points="2962.57,-1113.75 2955.13,-1106.21 2956.24,-1116.75 2962.57,-1113.75"/>
</g>
<!-- u13&#45;&gt;u6 -->
<g id="edge18" class="edge">
<title>u13&#45;&gt;u6</title>
<path fill="none" stroke="black" d="M3103.83,-1403.61C3102.77,-1284.82 3096.56,-593.38 3095.24,-446.44"/>
<polygon fill="black" stroke="black" points="3098.73,-446.06 3095.14,-436.09 3091.73,-446.12 3098.73,-446.06"/>
</g>
<!-- u13&#45;&gt;u22 -->
<g id="edge19" class="edge">
<title>u13&#45;&gt;u22</title>
<path fill="none" stroke="black" d="M3062.62,-1404.65C2923.03,-1349.48 2469.55,-1170.25 2315.64,-1109.41"/>
<polygon fill="black" stroke="black" points="2316.53,-1106 2305.94,-1105.58 2313.96,-1112.51 2316.53,-1106"/>
</g>
<!-- u13&#45;&gt;u26 -->
<g id="edge20" class="edge">
<title>u13&#45;&gt;u26</title>
<path fill="none" stroke="black" d="M3107.34,-1403.84C3126.5,-1305.86 3224.03,-807.21 3303.99,-400 3324.93,-293.35 3349.94,-166.41 3360.67,-111.97"/>
<polygon fill="black" stroke="black" points="3364.12,-112.56 3362.62,-102.07 3357.26,-111.21 3364.12,-112.56"/>
</g>
</g>
</svg>
