<?xml version="1.0" encoding="UTF-8" standalone="no"?>
<!DOCTYPE svg PUBLIC "-//W3C//DTD SVG 1.1//EN"
 "http://www.w3.org/Graphics/SVG/1.1/DTD/svg11.dtd">
<!-- Generated by graphviz version 2.43.0 (0)
 -->
<!-- Title: G Pages: 1 -->
<svg width="431pt" height="288pt"
 viewBox="0.00 0.00 431.47 288.00" xmlns="http://www.w3.org/2000/svg" xmlns:xlink="http://www.w3.org/1999/xlink">
<g id="graph0" class="graph" transform="scale(0.14 0.14) rotate(0) translate(4 1997.33)">
<title>G</title>
<polygon fill="white" stroke="transparent" points="-4,4 -4,-1997.33 2994.32,-1997.33 2994.32,4 -4,4"/>
<!-- u17 -->
<g id="node1" class="node">
<title>u17</title>
<ellipse fill="#bbffbb" stroke="black" cx="518.48" cy="-1430" rx="123.48" ry="18"/>
<text text-anchor="middle" x="518.48" y="-1426.3" font-family="Times,serif" font-size="14.00">Language.Drasil.Format</text>
</g>
<!-- u16 -->
<g id="node2" class="node">
<title>u16</title>
<ellipse fill="#bbffbb" stroke="black" cx="793.48" cy="-737" rx="119.68" ry="18"/>
<text text-anchor="middle" x="793.48" y="-733.3" font-family="Times,serif" font-size="14.00">Language.Drasil.Config</text>
</g>
<!-- u0 -->
<g id="node3" class="node">
<title>u0</title>
<ellipse fill="#bbffbb" stroke="black" cx="1036.48" cy="-1950" rx="128.08" ry="18"/>
<text text-anchor="middle" x="1036.48" y="-1946.3" font-family="Times,serif" font-size="14.00">Language.Drasil.Printers</text>
</g>
<!-- u22 -->
<g id="node4" class="node">
<title>u22</title>
<ellipse fill="#ffffbb" stroke="black" cx="1672.48" cy="-1777" rx="135.68" ry="18"/>
<text text-anchor="middle" x="1672.48" y="-1773.3" font-family="Times,serif" font-size="14.00">Language.Drasil.DOT.Print</text>
</g>
<!-- u0&#45;&gt;u22 -->
<g id="edge3" class="edge">
<title>u0&#45;&gt;u22</title>
<path fill="none" stroke="black" d="M1092.92,-1933.82C1210.14,-1902.31 1479.47,-1829.89 1605.35,-1796.05"/>
<polygon fill="black" stroke="black" points="1606.51,-1799.36 1615.25,-1793.39 1604.69,-1792.6 1606.51,-1799.36"/>
</g>
<!-- u29 -->
<g id="node5" class="node">
<title>u29</title>
<ellipse fill="#bbbbff" stroke="black" cx="1372.48" cy="-1777" rx="146.47" ry="18"/>
<text text-anchor="middle" x="1372.48" y="-1773.3" font-family="Times,serif" font-size="14.00">Language.Drasil.Debug.Print</text>
</g>
<!-- u0&#45;&gt;u29 -->
<g id="edge5" class="edge">
<title>u0&#45;&gt;u29</title>
<path fill="none" stroke="black" d="M1069.01,-1932.45C1130.35,-1901.23 1263.06,-1833.69 1330.83,-1799.2"/>
<polygon fill="black" stroke="black" points="1332.62,-1802.22 1339.94,-1794.56 1329.44,-1795.98 1332.62,-1802.22"/>
</g>
<!-- u28 -->
<g id="node10" class="node">
<title>u28</title>
<ellipse fill="#bbffff" stroke="black" cx="708.48" cy="-1603" rx="140.28" ry="18"/>
<text text-anchor="middle" x="708.48" y="-1599.3" font-family="Times,serif" font-size="14.00">Language.Drasil.JSON.Print</text>
</g>
<!-- u0&#45;&gt;u28 -->
<g id="edge4" class="edge">
<title>u0&#45;&gt;u28</title>
<path fill="none" stroke="black" d="M1013.72,-1932.13C978.05,-1905.18 907.69,-1849.83 855.48,-1795 803.26,-1740.15 751.4,-1667.39 725.5,-1629.46"/>
<polygon fill="black" stroke="black" points="728.29,-1627.34 719.78,-1621.03 722.5,-1631.27 728.29,-1627.34"/>
</g>
<!-- u21 -->
<g id="node12" class="node">
<title>u21</title>
<ellipse fill="#ffbbff" stroke="black" cx="188.48" cy="-1430" rx="188.47" ry="18"/>
<text text-anchor="middle" x="188.48" y="-1426.3" font-family="Times,serif" font-size="14.00">Language.Drasil.Markdown.CreateMd</text>
</g>
<!-- u0&#45;&gt;u21 -->
<g id="edge2" class="edge">
<title>u0&#45;&gt;u21</title>
<path fill="none" stroke="black" d="M1009.23,-1932.35C884.4,-1856.1 367.23,-1540.18 224.89,-1453.24"/>
<polygon fill="black" stroke="black" points="226.42,-1450.07 216.06,-1447.85 222.77,-1456.05 226.42,-1450.07"/>
</g>
<!-- u19 -->
<g id="node14" class="node">
<title>u19</title>
<ellipse fill="#ffbbff" stroke="black" cx="1036.48" cy="-1777" rx="171.67" ry="18"/>
<text text-anchor="middle" x="1036.48" y="-1773.3" font-family="Times,serif" font-size="14.00">Language.Drasil.Markdown.Config</text>
</g>
<!-- u0&#45;&gt;u19 -->
<g id="edge1" class="edge">
<title>u0&#45;&gt;u19</title>
<path fill="none" stroke="black" d="M1036.48,-1931.98C1036.48,-1902.35 1036.48,-1841.06 1036.48,-1805.39"/>
<polygon fill="black" stroke="black" points="1039.98,-1805.21 1036.48,-1795.21 1032.98,-1805.21 1039.98,-1805.21"/>
</g>
<!-- u34 -->
<g id="node16" class="node">
<title>u34</title>
<ellipse fill="#77ff77" stroke="black" cx="1541.48" cy="-1603" rx="139.98" ry="18"/>
<text text-anchor="middle" x="1541.48" y="-1599.3" font-family="Times,serif" font-size="14.00">Language.Drasil.Plain.Print</text>
</g>
<!-- u29&#45;&gt;u34 -->
<g id="edge47" class="edge">
<title>u29&#45;&gt;u34</title>
<path fill="none" stroke="black" d="M1389.31,-1758.88C1419.42,-1728.23 1482.64,-1663.89 1517.37,-1628.55"/>
<polygon fill="black" stroke="black" points="1520.22,-1630.64 1524.73,-1621.05 1515.22,-1625.73 1520.22,-1630.64"/>
</g>
<!-- u33 -->
<g id="node6" class="node">
<title>u33</title>
<ellipse fill="#ffbbbb" stroke="black" cx="1109.48" cy="-1257" rx="153.27" ry="18"/>
<text text-anchor="middle" x="1109.48" y="-1253.3" font-family="Times,serif" font-size="14.00">Language.Drasil.HTML.Monad</text>
</g>
<!-- u32 -->
<g id="node7" class="node">
<title>u32</title>
<ellipse fill="#ffbbbb" stroke="black" cx="797.48" cy="-1257" rx="140.28" ry="18"/>
<text text-anchor="middle" x="797.48" y="-1253.3" font-family="Times,serif" font-size="14.00">Language.Drasil.HTML.CSS</text>
</g>
<!-- u31 -->
<g id="node8" class="node">
<title>u31</title>
<ellipse fill="#ffbbbb" stroke="black" cx="1109.48" cy="-1430" rx="144.87" ry="18"/>
<text text-anchor="middle" x="1109.48" y="-1426.3" font-family="Times,serif" font-size="14.00">Language.Drasil.HTML.Print</text>
</g>
<!-- u31&#45;&gt;u33 -->
<g id="edge52" class="edge">
<title>u31&#45;&gt;u33</title>
<path fill="none" stroke="black" d="M1109.48,-1411.98C1109.48,-1382.35 1109.48,-1321.06 1109.48,-1285.39"/>
<polygon fill="black" stroke="black" points="1112.98,-1285.21 1109.48,-1275.21 1105.98,-1285.21 1112.98,-1285.21"/>
</g>
<!-- u31&#45;&gt;u32 -->
<g id="edge51" class="edge">
<title>u31&#45;&gt;u32</title>
<path fill="none" stroke="black" d="M1079,-1412.29C1022.15,-1381.13 900.01,-1314.19 836.95,-1279.63"/>
<polygon fill="black" stroke="black" points="838.54,-1276.51 828.09,-1274.78 835.18,-1282.65 838.54,-1276.51"/>
</g>
<!-- u30 -->
<g id="node9" class="node">
<title>u30</title>
<ellipse fill="#ffbbbb" stroke="black" cx="1390.48" cy="-737" rx="157.87" ry="18"/>
<text text-anchor="middle" x="1390.48" y="-733.3" font-family="Times,serif" font-size="14.00">Language.Drasil.HTML.Helpers</text>
</g>
<!-- u31&#45;&gt;u30 -->
<g id="edge50" class="edge">
<title>u31&#45;&gt;u30</title>
<path fill="none" stroke="black" d="M1242.57,-1422.81C1346.87,-1410.1 1485.77,-1374.15 1556.48,-1275 1610.68,-1199.01 1591.23,-1151.62 1556.48,-1065 1525.12,-986.81 1463.83,-1003.01 1425.48,-928 1398.32,-874.86 1392.01,-803.8 1390.68,-765.4"/>
<polygon fill="black" stroke="black" points="1394.17,-764.95 1390.42,-755.04 1387.18,-765.12 1394.17,-764.95"/>
</g>
<!-- u24 -->
<g id="node34" class="node">
<title>u24</title>
<ellipse fill="#ff7777" stroke="black" cx="1414.48" cy="-1257" rx="133.48" ry="18"/>
<text text-anchor="middle" x="1414.48" y="-1253.3" font-family="Times,serif" font-size="14.00">Language.Drasil.TeX.Print</text>
</g>
<!-- u31&#45;&gt;u24 -->
<g id="edge49" class="edge">
<title>u31&#45;&gt;u24</title>
<path fill="none" stroke="black" d="M1139.28,-1412.29C1194.75,-1381.2 1313.77,-1314.47 1375.52,-1279.84"/>
<polygon fill="black" stroke="black" points="1377.55,-1282.72 1384.56,-1274.78 1374.13,-1276.61 1377.55,-1282.72"/>
</g>
<!-- u14 -->
<g id="node18" class="node">
<title>u14</title>
<ellipse fill="#ffff77" stroke="black" cx="1466.48" cy="-43" rx="149.47" ry="18"/>
<text text-anchor="middle" x="1466.48" y="-39.3" font-family="Times,serif" font-size="14.00">Language.Drasil.Printing.AST</text>
</g>
<!-- u30&#45;&gt;u14 -->
<g id="edge48" class="edge">
<title>u30&#45;&gt;u14</title>
<path fill="none" stroke="black" d="M1392.36,-718.89C1402.53,-626.35 1450.94,-185.52 1463.5,-71.15"/>
<polygon fill="black" stroke="black" points="1466.99,-71.45 1464.6,-61.13 1460.03,-70.69 1466.99,-71.45"/>
</g>
<!-- u28&#45;&gt;u17 -->
<g id="edge44" class="edge">
<title>u28&#45;&gt;u17</title>
<path fill="none" stroke="black" d="M689.57,-1584.98C655.57,-1554.38 584.04,-1490 545.11,-1454.96"/>
<polygon fill="black" stroke="black" points="547.09,-1452.04 537.32,-1447.95 542.41,-1457.24 547.09,-1452.04"/>
</g>
<!-- u28&#45;&gt;u31 -->
<g id="edge46" class="edge">
<title>u28&#45;&gt;u31</title>
<path fill="none" stroke="black" d="M746.93,-1585.6C820.49,-1554.24 980.97,-1485.8 1061.45,-1451.48"/>
<polygon fill="black" stroke="black" points="1063.03,-1454.61 1070.86,-1447.47 1060.28,-1448.18 1063.03,-1454.61"/>
</g>
<!-- u27 -->
<g id="node11" class="node">
<title>u27</title>
<ellipse fill="#bbffff" stroke="black" cx="645.48" cy="-910" rx="153.27" ry="18"/>
<text text-anchor="middle" x="645.48" y="-906.3" font-family="Times,serif" font-size="14.00">Language.Drasil.JSON.Helpers</text>
</g>
<!-- u28&#45;&gt;u27 -->
<g id="edge45" class="edge">
<title>u28&#45;&gt;u27</title>
<path fill="none" stroke="black" d="M704.23,-1584.78C692.51,-1536.37 659.88,-1394.8 648.48,-1275 636.57,-1149.74 641.37,-999.13 644.1,-938.38"/>
<polygon fill="black" stroke="black" points="647.61,-938.26 644.58,-928.11 640.61,-937.94 647.61,-938.26"/>
</g>
<!-- u27&#45;&gt;u30 -->
<g id="edge43" class="edge">
<title>u27&#45;&gt;u30</title>
<path fill="none" stroke="black" d="M711.92,-893.75C849.98,-862.06 1167.16,-789.26 1313.7,-755.63"/>
<polygon fill="black" stroke="black" points="1314.56,-759.02 1323.52,-753.37 1312.99,-752.2 1314.56,-759.02"/>
</g>
<!-- u3 -->
<g id="node20" class="node">
<title>u3</title>
<ellipse fill="#ffff77" stroke="black" cx="1072.48" cy="-563" rx="167.07" ry="18"/>
<text text-anchor="middle" x="1072.48" y="-559.3" font-family="Times,serif" font-size="14.00">Language.Drasil.Printing.Helpers</text>
</g>
<!-- u27&#45;&gt;u3 -->
<g id="edge42" class="edge">
<title>u27&#45;&gt;u3</title>
<path fill="none" stroke="black" d="M641.77,-891.91C634.98,-855.84 624.67,-770.97 664.48,-719 730.62,-632.67 850.83,-594.42 943.71,-577.48"/>
<polygon fill="black" stroke="black" points="944.5,-580.89 953.75,-575.71 943.29,-574 944.5,-580.89"/>
</g>
<!-- u21&#45;&gt;u3 -->
<g id="edge34" class="edge">
<title>u21&#45;&gt;u3</title>
<path fill="none" stroke="black" d="M194.66,-1411.67C211.93,-1361.59 259.48,-1212.11 259.48,-1084 259.48,-1084 259.48,-1084 259.48,-909 259.48,-752.2 778.41,-625.74 987.09,-581.22"/>
<polygon fill="black" stroke="black" points="988.04,-584.6 997.09,-579.1 986.58,-577.75 988.04,-584.6"/>
</g>
<!-- u20 -->
<g id="node13" class="node">
<title>u20</title>
<ellipse fill="#ffbbff" stroke="black" cx="1109.48" cy="-1603" rx="165.17" ry="18"/>
<text text-anchor="middle" x="1109.48" y="-1599.3" font-family="Times,serif" font-size="14.00">Language.Drasil.Markdown.Print</text>
</g>
<!-- u20&#45;&gt;u31 -->
<g id="edge33" class="edge">
<title>u20&#45;&gt;u31</title>
<path fill="none" stroke="black" d="M1109.48,-1584.98C1109.48,-1555.35 1109.48,-1494.06 1109.48,-1458.39"/>
<polygon fill="black" stroke="black" points="1112.98,-1458.21 1109.48,-1448.21 1105.98,-1458.21 1112.98,-1458.21"/>
</g>
<!-- u18 -->
<g id="node15" class="node">
<title>u18</title>
<ellipse fill="#ffbbff" stroke="black" cx="1613.48" cy="-910" rx="178.97" ry="18"/>
<text text-anchor="middle" x="1613.48" y="-906.3" font-family="Times,serif" font-size="14.00">Language.Drasil.Markdown.Helpers</text>
</g>
<!-- u20&#45;&gt;u18 -->
<g id="edge32" class="edge">
<title>u20&#45;&gt;u18</title>
<path fill="none" stroke="black" d="M1155.55,-1585.67C1253.62,-1548.21 1482.2,-1445.89 1581.48,-1275 1645.8,-1164.29 1628.59,-1001.9 1618.43,-938.13"/>
<polygon fill="black" stroke="black" points="1621.85,-937.37 1616.76,-928.08 1614.95,-938.52 1621.85,-937.37"/>
</g>
<!-- u19&#45;&gt;u20 -->
<g id="edge31" class="edge">
<title>u19&#45;&gt;u20</title>
<path fill="none" stroke="black" d="M1043.75,-1758.88C1056.54,-1728.74 1083.15,-1666.04 1098.3,-1630.35"/>
<polygon fill="black" stroke="black" points="1101.56,-1631.62 1102.25,-1621.05 1095.12,-1628.89 1101.56,-1631.62"/>
</g>
<!-- u18&#45;&gt;u30 -->
<g id="edge30" class="edge">
<title>u18&#45;&gt;u30</title>
<path fill="none" stroke="black" d="M1591.29,-891.98C1551.05,-861.12 1466.02,-795.92 1420.59,-761.09"/>
<polygon fill="black" stroke="black" points="1422.66,-758.26 1412.59,-754.95 1418.4,-763.81 1422.66,-758.26"/>
</g>
<!-- u4 -->
<g id="node19" class="node">
<title>u4</title>
<ellipse fill="#ffff77" stroke="black" cx="1783.48" cy="-737" rx="178.97" ry="18"/>
<text text-anchor="middle" x="1783.48" y="-733.3" font-family="Times,serif" font-size="14.00">Language.Drasil.Printing.LayoutObj</text>
</g>
<!-- u18&#45;&gt;u4 -->
<g id="edge29" class="edge">
<title>u18&#45;&gt;u4</title>
<path fill="none" stroke="black" d="M1630.41,-891.98C1660.7,-861.51 1724.29,-797.54 1759.22,-762.4"/>
<polygon fill="black" stroke="black" points="1762.06,-764.51 1766.63,-754.95 1757.1,-759.58 1762.06,-764.51"/>
</g>
<!-- u18&#45;&gt;u3 -->
<g id="edge28" class="edge">
<title>u18&#45;&gt;u3</title>
<path fill="none" stroke="black" d="M1613.5,-891.94C1612.59,-855.16 1605.2,-767.81 1557.48,-719 1468.57,-628.05 1326.4,-590.37 1218.92,-574.81"/>
<polygon fill="black" stroke="black" points="1219.34,-571.34 1208.96,-573.42 1218.38,-578.27 1219.34,-571.34"/>
</g>
<!-- u2 -->
<g id="node21" class="node">
<title>u2</title>
<ellipse fill="#ffff77" stroke="black" cx="1995.48" cy="-1083" rx="162.47" ry="18"/>
<text text-anchor="middle" x="1995.48" y="-1079.3" font-family="Times,serif" font-size="14.00">Language.Drasil.Printing.Import</text>
</g>
<!-- u34&#45;&gt;u2 -->
<g id="edge53" class="edge">
<title>u34&#45;&gt;u2</title>
<path fill="none" stroke="black" d="M1556.33,-1585.06C1623.01,-1508.98 1894.98,-1198.67 1973.91,-1108.61"/>
<polygon fill="black" stroke="black" points="1976.56,-1110.9 1980.52,-1101.07 1971.3,-1106.29 1976.56,-1110.9"/>
</g>
<!-- u15 -->
<g id="node17" class="node">
<title>u15</title>
<ellipse fill="#ffff77" stroke="black" cx="1718.48" cy="-217" rx="223.66" ry="18"/>
<text text-anchor="middle" x="1718.48" y="-213.3" font-family="Times,serif" font-size="14.00">Language.Drasil.Printing.PrintingInformation</text>
</g>
<!-- u1 -->
<g id="node22" class="node">
<title>u1</title>
<ellipse fill="#ffff77" stroke="black" cx="1232.48" cy="-390" rx="167.87" ry="18"/>
<text text-anchor="middle" x="1232.48" y="-386.3" font-family="Times,serif" font-size="14.00">Language.Drasil.Printing.Citation</text>
</g>
<!-- u4&#45;&gt;u1 -->
<g id="edge10" class="edge">
<title>u4&#45;&gt;u1</title>
<path fill="none" stroke="black" d="M1756.53,-719.13C1665.72,-662.26 1370.84,-477.63 1268.14,-413.33"/>
<polygon fill="black" stroke="black" points="1269.71,-410.18 1259.38,-407.84 1266,-416.11 1269.71,-410.18"/>
</g>
<!-- u3&#45;&gt;u1 -->
<g id="edge9" class="edge">
<title>u3&#45;&gt;u1</title>
<path fill="none" stroke="black" d="M1088.41,-544.98C1116.92,-514.51 1176.77,-450.54 1209.65,-415.4"/>
<polygon fill="black" stroke="black" points="1212.34,-417.65 1216.62,-407.95 1207.23,-412.86 1212.34,-417.65"/>
</g>
<!-- u8 -->
<g id="node28" class="node">
<title>u8</title>
<ellipse fill="#7777ff" stroke="black" cx="2125.48" cy="-910" rx="212.56" ry="18"/>
<text text-anchor="middle" x="2125.48" y="-906.3" font-family="Times,serif" font-size="14.00">Language.Drasil.Printing.Import.Document</text>
</g>
<!-- u2&#45;&gt;u8 -->
<g id="edge8" class="edge">
<title>u2&#45;&gt;u8</title>
<path fill="none" stroke="black" d="M2008.42,-1064.98C2031.34,-1034.84 2079.15,-971.94 2106.04,-936.57"/>
<polygon fill="black" stroke="black" points="2109.14,-938.29 2112.4,-928.21 2103.56,-934.05 2109.14,-938.29"/>
</g>
<!-- u6 -->
<g id="node30" class="node">
<title>u6</title>
<ellipse fill="#7777ff" stroke="black" cx="2802.48" cy="-563" rx="187.67" ry="18"/>
<text text-anchor="middle" x="2802.48" y="-559.3" font-family="Times,serif" font-size="14.00">Language.Drasil.Printing.Import.Expr</text>
</g>
<!-- u2&#45;&gt;u6 -->
<g id="edge7" class="edge">
<title>u2&#45;&gt;u6</title>
<path fill="none" stroke="black" d="M2042.96,-1065.76C2112.45,-1041.01 2244.72,-990.1 2347.48,-928 2525.53,-820.41 2711.13,-650.79 2777.26,-588.23"/>
<polygon fill="black" stroke="black" points="2779.88,-590.56 2784.72,-581.14 2775.06,-585.49 2779.88,-590.56"/>
</g>
<!-- u1&#45;&gt;u14 -->
<g id="edge6" class="edge">
<title>u1&#45;&gt;u14</title>
<path fill="none" stroke="black" d="M1244.09,-371.89C1282.21,-315.68 1403.78,-136.45 1449.17,-69.53"/>
<polygon fill="black" stroke="black" points="1452.09,-71.45 1454.81,-61.21 1446.3,-67.52 1452.09,-71.45"/>
</g>
<!-- u13 -->
<g id="node23" class="node">
<title>u13</title>
<ellipse fill="#7777ff" stroke="black" cx="2385.48" cy="-563" rx="211.46" ry="18"/>
<text text-anchor="middle" x="2385.48" y="-559.3" font-family="Times,serif" font-size="14.00">Language.Drasil.Printing.Import.CodeExpr</text>
</g>
<!-- u12 -->
<g id="node24" class="node">
<title>u12</title>
<ellipse fill="#7777ff" stroke="black" cx="2500.48" cy="-390" rx="200.36" ry="18"/>
<text text-anchor="middle" x="2500.48" y="-386.3" font-family="Times,serif" font-size="14.00">Language.Drasil.Printing.Import.Symbol</text>
</g>
<!-- u13&#45;&gt;u12 -->
<g id="edge27" class="edge">
<title>u13&#45;&gt;u12</title>
<path fill="none" stroke="black" d="M2396.93,-544.98C2417.2,-514.84 2459.5,-451.94 2483.29,-416.57"/>
<polygon fill="black" stroke="black" points="2486.24,-418.46 2488.91,-408.21 2480.43,-414.55 2486.24,-418.46"/>
</g>
<!-- u10 -->
<g id="node26" class="node">
<title>u10</title>
<ellipse fill="#7777ff" stroke="black" cx="2086.48" cy="-390" rx="196.07" ry="18"/>
<text text-anchor="middle" x="2086.48" y="-386.3" font-family="Times,serif" font-size="14.00">Language.Drasil.Printing.Import.Literal</text>
</g>
<!-- u13&#45;&gt;u10 -->
<g id="edge26" class="edge">
<title>u13&#45;&gt;u10</title>
<path fill="none" stroke="black" d="M2356,-545.14C2301.62,-514.04 2185.61,-447.69 2125.06,-413.06"/>
<polygon fill="black" stroke="black" points="2126.61,-409.92 2116.19,-407.99 2123.13,-415.99 2126.61,-409.92"/>
</g>
<!-- u12&#45;&gt;u14 -->
<g id="edge25" class="edge">
<title>u12&#45;&gt;u14</title>
<path fill="none" stroke="black" d="M2494.47,-371.9C2480.12,-333.86 2440.06,-242.18 2373.48,-199 2248.01,-117.61 1820.84,-72.36 1600.45,-53.92"/>
<polygon fill="black" stroke="black" points="1600.69,-50.43 1590.44,-53.09 1600.12,-57.41 1600.69,-50.43"/>
</g>
<!-- u11 -->
<g id="node25" class="node">
<title>u11</title>
<ellipse fill="#7777ff" stroke="black" cx="1679.48" cy="-390" rx="193.07" ry="18"/>
<text text-anchor="middle" x="1679.48" y="-386.3" font-family="Times,serif" font-size="14.00">Language.Drasil.Printing.Import.Space</text>
</g>
<!-- u11&#45;&gt;u15 -->
<g id="edge24" class="edge">
<title>u11&#45;&gt;u15</title>
<path fill="none" stroke="black" d="M1683.37,-371.98C1690.12,-342.35 1704.1,-281.06 1712.24,-245.39"/>
<polygon fill="black" stroke="black" points="1715.75,-245.73 1714.56,-235.21 1708.92,-244.18 1715.75,-245.73"/>
</g>
<!-- u11&#45;&gt;u14 -->
<g id="edge23" class="edge">
<title>u11&#45;&gt;u14</title>
<path fill="none" stroke="black" d="M1643.94,-372.14C1598.51,-348.5 1521.43,-300.87 1485.48,-235 1456.89,-182.59 1459.01,-109.99 1462.86,-71.13"/>
<polygon fill="black" stroke="black" points="1466.35,-71.43 1463.97,-61.11 1459.39,-70.66 1466.35,-71.43"/>
</g>
<!-- u10&#45;&gt;u15 -->
<g id="edge22" class="edge">
<title>u10&#45;&gt;u15</title>
<path fill="none" stroke="black" d="M2050.53,-372.29C1983.06,-340.94 1837.64,-273.37 1763.67,-239"/>
<polygon fill="black" stroke="black" points="1765.13,-235.82 1754.58,-234.78 1762.18,-242.16 1765.13,-235.82"/>
</g>
<!-- u7 -->
<g id="node29" class="node">
<title>u7</title>
<ellipse fill="#7777ff" stroke="black" cx="2162.48" cy="-217" rx="202.26" ry="18"/>
<text text-anchor="middle" x="2162.48" y="-213.3" font-family="Times,serif" font-size="14.00">Language.Drasil.Printing.Import.Helpers</text>
</g>
<!-- u10&#45;&gt;u7 -->
<g id="edge21" class="edge">
<title>u10&#45;&gt;u7</title>
<path fill="none" stroke="black" d="M2094.05,-371.98C2107.33,-342.1 2134.93,-280 2150.72,-244.47"/>
<polygon fill="black" stroke="black" points="2153.97,-245.77 2154.84,-235.21 2147.58,-242.92 2153.97,-245.77"/>
</g>
<!-- u9 -->
<g id="node27" class="node">
<title>u9</title>
<ellipse fill="#7777ff" stroke="black" cx="2188.48" cy="-737" rx="207.96" ry="18"/>
<text text-anchor="middle" x="2188.48" y="-733.3" font-family="Times,serif" font-size="14.00">Language.Drasil.Printing.Import.Sentence</text>
</g>
<!-- u5 -->
<g id="node31" class="node">
<title>u5</title>
<ellipse fill="#7777ff" stroke="black" cx="1939.48" cy="-563" rx="216.36" ry="18"/>
<text text-anchor="middle" x="1939.48" y="-559.3" font-family="Times,serif" font-size="14.00">Language.Drasil.Printing.Import.ModelExpr</text>
</g>
<!-- u9&#45;&gt;u5 -->
<g id="edge20" class="edge">
<title>u9&#45;&gt;u5</title>
<path fill="none" stroke="black" d="M2163.7,-718.88C2118.58,-687.71 2023.04,-621.72 1972.47,-586.79"/>
<polygon fill="black" stroke="black" points="1974.39,-583.86 1964.17,-581.05 1970.41,-589.61 1974.39,-583.86"/>
</g>
<!-- u8&#45;&gt;u4 -->
<g id="edge17" class="edge">
<title>u8&#45;&gt;u4</title>
<path fill="none" stroke="black" d="M2091.76,-892.14C2029.15,-860.83 1895.08,-793.8 1826.23,-759.37"/>
<polygon fill="black" stroke="black" points="1827.47,-756.08 1816.96,-754.74 1824.34,-762.34 1827.47,-756.08"/>
</g>
<!-- u8&#45;&gt;u13 -->
<g id="edge19" class="edge">
<title>u8&#45;&gt;u13</title>
<path fill="none" stroke="black" d="M2193.76,-892.88C2261,-872.97 2360.02,-831.89 2405.48,-755 2436.09,-703.23 2413.64,-629.59 2397.7,-590.6"/>
<polygon fill="black" stroke="black" points="2400.76,-588.85 2393.63,-581.02 2394.32,-591.59 2400.76,-588.85"/>
</g>
<!-- u8&#45;&gt;u9 -->
<g id="edge18" class="edge">
<title>u8&#45;&gt;u9</title>
<path fill="none" stroke="black" d="M2131.75,-891.98C2142.72,-862.22 2165.44,-800.53 2178.56,-764.93"/>
<polygon fill="black" stroke="black" points="2181.97,-765.8 2182.14,-755.21 2175.4,-763.38 2181.97,-765.8"/>
</g>
<!-- u7&#45;&gt;u14 -->
<g id="edge16" class="edge">
<title>u7&#45;&gt;u14</title>
<path fill="none" stroke="black" d="M2097.32,-199.9C1966.93,-167.67 1674.8,-95.48 1538.76,-61.86"/>
<polygon fill="black" stroke="black" points="1539.39,-58.41 1528.84,-59.41 1537.71,-65.21 1539.39,-58.41"/>
</g>
<!-- u6&#45;&gt;u12 -->
<g id="edge15" class="edge">
<title>u6&#45;&gt;u12</title>
<path fill="none" stroke="black" d="M2772.7,-545.14C2717.78,-514.04 2600.6,-447.69 2539.45,-413.06"/>
<polygon fill="black" stroke="black" points="2540.92,-409.87 2530.49,-407.99 2537.47,-415.96 2540.92,-409.87"/>
</g>
<!-- u6&#45;&gt;u10 -->
<g id="edge14" class="edge">
<title>u6&#45;&gt;u10</title>
<path fill="none" stroke="black" d="M2736.09,-546.14C2603.04,-514.37 2304.45,-443.06 2163.26,-409.34"/>
<polygon fill="black" stroke="black" points="2163.91,-405.89 2153.37,-406.97 2162.28,-412.7 2163.91,-405.89"/>
</g>
<!-- u5&#45;&gt;u12 -->
<g id="edge13" class="edge">
<title>u5&#45;&gt;u12</title>
<path fill="none" stroke="black" d="M1993.53,-545.53C2097.62,-513.8 2325.46,-444.35 2436.75,-410.43"/>
<polygon fill="black" stroke="black" points="2437.96,-413.72 2446.5,-407.45 2435.92,-407.02 2437.96,-413.72"/>
</g>
<!-- u5&#45;&gt;u11 -->
<g id="edge12" class="edge">
<title>u5&#45;&gt;u11</title>
<path fill="none" stroke="black" d="M1913.6,-544.98C1866.49,-513.99 1766.73,-448.38 1713.93,-413.66"/>
<polygon fill="black" stroke="black" points="1715.54,-410.52 1705.26,-407.95 1711.69,-416.37 1715.54,-410.52"/>
</g>
<!-- u5&#45;&gt;u10 -->
<g id="edge11" class="edge">
<title>u5&#45;&gt;u10</title>
<path fill="none" stroke="black" d="M1954.12,-544.98C1980.2,-514.63 2034.84,-451.08 2065.12,-415.85"/>
<polygon fill="black" stroke="black" points="2068.05,-417.82 2071.91,-407.95 2062.74,-413.25 2068.05,-417.82"/>
</g>
<!-- u26 -->
<g id="node32" class="node">
<title>u26</title>
<ellipse fill="#ff7777" stroke="black" cx="1072.48" cy="-737" rx="141.88" ry="18"/>
<text text-anchor="middle" x="1072.48" y="-733.3" font-family="Times,serif" font-size="14.00">Language.Drasil.TeX.Monad</text>
</g>
<!-- u26&#45;&gt;u3 -->
<g id="edge41" class="edge">
<title>u26&#45;&gt;u3</title>
<path fill="none" stroke="black" d="M1072.48,-718.88C1072.48,-689 1072.48,-627.11 1072.48,-591.27"/>
<polygon fill="black" stroke="black" points="1075.98,-591.05 1072.48,-581.05 1068.98,-591.05 1075.98,-591.05"/>
</g>
<!-- u25 -->
<g id="node33" class="node">
<title>u25</title>
<ellipse fill="#ff7777" stroke="black" cx="1393.48" cy="-1083" rx="154.07" ry="18"/>
<text text-anchor="middle" x="1393.48" y="-1079.3" font-family="Times,serif" font-size="14.00">Language.Drasil.TeX.Preamble</text>
</g>
<!-- u25&#45;&gt;u4 -->
<g id="edge39" class="edge">
<title>u25&#45;&gt;u4</title>
<path fill="none" stroke="black" d="M1516.52,-1072.04C1611.78,-1057.11 1737.87,-1020.01 1801.48,-928 1835.71,-878.5 1812.31,-803.61 1795.83,-764.27"/>
<polygon fill="black" stroke="black" points="1799.03,-762.84 1791.83,-755.07 1792.61,-765.63 1799.03,-762.84"/>
</g>
<!-- u23 -->
<g id="node35" class="node">
<title>u23</title>
<ellipse fill="#ff7777" stroke="black" cx="1072.48" cy="-910" rx="146.47" ry="18"/>
<text text-anchor="middle" x="1072.48" y="-906.3" font-family="Times,serif" font-size="14.00">Language.Drasil.TeX.Helpers</text>
</g>
<!-- u25&#45;&gt;u23 -->
<g id="edge40" class="edge">
<title>u25&#45;&gt;u23</title>
<path fill="none" stroke="black" d="M1362.12,-1065.29C1303.63,-1034.13 1177.97,-967.19 1113.09,-932.63"/>
<polygon fill="black" stroke="black" points="1114.45,-929.39 1103.97,-927.78 1111.15,-935.57 1114.45,-929.39"/>
</g>
<!-- u24&#45;&gt;u2 -->
<g id="edge37" class="edge">
<title>u24&#45;&gt;u2</title>
<path fill="none" stroke="black" d="M1467.07,-1240.43C1573.87,-1208.81 1815.85,-1137.18 1931.54,-1102.93"/>
<polygon fill="black" stroke="black" points="1932.74,-1106.23 1941.33,-1100.03 1930.75,-1099.51 1932.74,-1106.23"/>
</g>
<!-- u24&#45;&gt;u25 -->
<g id="edge38" class="edge">
<title>u24&#45;&gt;u25</title>
<path fill="none" stroke="black" d="M1412.39,-1238.88C1408.75,-1209 1401.19,-1147.11 1396.81,-1111.27"/>
<polygon fill="black" stroke="black" points="1400.25,-1110.55 1395.57,-1101.05 1393.3,-1111.4 1400.25,-1110.55"/>
</g>
<!-- u23&#45;&gt;u16 -->
<g id="edge35" class="edge">
<title>u23&#45;&gt;u16</title>
<path fill="none" stroke="black" d="M1045.22,-892.29C994.59,-861.26 886.06,-794.74 829.47,-760.06"/>
<polygon fill="black" stroke="black" points="831.21,-757.02 820.85,-754.78 827.55,-762.99 831.21,-757.02"/>
</g>
<!-- u23&#45;&gt;u26 -->
<g id="edge36" class="edge">
<title>u23&#45;&gt;u26</title>
<path fill="none" stroke="black" d="M1072.48,-891.98C1072.48,-862.35 1072.48,-801.06 1072.48,-765.39"/>
<polygon fill="black" stroke="black" points="1075.98,-765.21 1072.48,-755.21 1068.98,-765.21 1075.98,-765.21"/>
</g>
</g>
</svg>
