<?xml version="1.0" encoding="UTF-8" standalone="no"?>
<!DOCTYPE svg PUBLIC "-//W3C//DTD SVG 1.1//EN"
 "http://www.w3.org/Graphics/SVG/1.1/DTD/svg11.dtd">
<!-- Generated by graphviz version 2.43.0 (0)
 -->
<!-- Title: G Pages: 1 -->
<svg width="432pt" height="288pt"
 viewBox="0.00 0.00 431.73 288.00" xmlns="http://www.w3.org/2000/svg" xmlns:xlink="http://www.w3.org/1999/xlink">
<g id="graph0" class="graph" transform="scale(0.09 0.09) rotate(0) translate(4 3244)">
<title>G</title>
<polygon fill="white" stroke="transparent" points="-4,4 -4,-3244 4864.92,-3244 4864.92,4 -4,4"/>
<!-- u31 -->
<g id="node1" class="node">
<title>u31</title>
<ellipse fill="#bbffbb" stroke="black" cx="2291.29" cy="-2382" rx="133.78" ry="18"/>
<text text-anchor="middle" x="2291.29" y="-2378.3" font-family="Times,serif" font-size="14.00">Drasil.DocumentLanguage</text>
</g>
<!-- u21 -->
<g id="node2" class="node">
<title>u21</title>
<ellipse fill="#bbffbb" stroke="black" cx="79.29" cy="-2001" rx="79.09" ry="18"/>
<text text-anchor="middle" x="79.29" y="-1997.3" font-family="Times,serif" font-size="14.00">Drasil.DocDecl</text>
</g>
<!-- u31&#45;&gt;u21 -->
<g id="edge63" class="edge">
<title>u31&#45;&gt;u21</title>
<path fill="none" stroke="black" d="M2209.71,-2367.69C1926.93,-2321.42 962.57,-2162.56 168.29,-2019 161.64,-2017.8 154.71,-2016.52 147.78,-2015.22"/>
<polygon fill="black" stroke="black" points="148.14,-2011.73 137.67,-2013.32 146.85,-2018.61 148.14,-2011.73"/>
</g>
<!-- u20 -->
<g id="node3" class="node">
<title>u20</title>
<ellipse fill="#bbffbb" stroke="black" cx="269.29" cy="-2001" rx="92.08" ry="18"/>
<text text-anchor="middle" x="269.29" y="-1997.3" font-family="Times,serif" font-size="14.00">Drasil.TraceTable</text>
</g>
<!-- u31&#45;&gt;u20 -->
<g id="edge62" class="edge">
<title>u31&#45;&gt;u20</title>
<path fill="none" stroke="black" d="M2216.63,-2367.01C1898.78,-2307.43 660.19,-2075.27 343.41,-2015.89"/>
<polygon fill="black" stroke="black" points="343.89,-2012.42 333.42,-2014.02 342.6,-2019.3 343.89,-2012.42"/>
</g>
<!-- u0 -->
<g id="node7" class="node">
<title>u0</title>
<ellipse fill="#bbffbb" stroke="black" cx="496.29" cy="-2001" rx="116.18" ry="18"/>
<text text-anchor="middle" x="496.29" y="-1997.3" font-family="Times,serif" font-size="14.00">Drasil.ExtractDocDesc</text>
</g>
<!-- u31&#45;&gt;u0 -->
<g id="edge56" class="edge">
<title>u31&#45;&gt;u0</title>
<path fill="none" stroke="black" d="M2222.57,-2366.49C1939.92,-2306.81 868.02,-2080.49 572.27,-2018.04"/>
<polygon fill="black" stroke="black" points="572.59,-2014.53 562.08,-2015.89 571.14,-2021.38 572.59,-2014.53"/>
</g>
<!-- u1 -->
<g id="node10" class="node">
<title>u1</title>
<ellipse fill="#ffffbb" stroke="black" cx="1689.29" cy="-2001" rx="136.48" ry="18"/>
<text text-anchor="middle" x="1689.29" y="-1997.3" font-family="Times,serif" font-size="14.00">Drasil.DocLang.References</text>
</g>
<!-- u31&#45;&gt;u1 -->
<g id="edge57" class="edge">
<title>u31&#45;&gt;u1</title>
<path fill="none" stroke="black" d="M2264.65,-2364.23C2167.82,-2303.26 1834.5,-2093.42 1724.69,-2024.29"/>
<polygon fill="black" stroke="black" points="1726.3,-2021.16 1715.97,-2018.79 1722.57,-2027.08 1726.3,-2021.16"/>
</g>
<!-- u29 -->
<g id="node13" class="node">
<title>u29</title>
<ellipse fill="#ffbbbb" stroke="black" cx="2177.29" cy="-2001" rx="220.96" ry="18"/>
<text text-anchor="middle" x="2177.29" y="-1997.3" font-family="Times,serif" font-size="14.00">Drasil.DocumentLanguage.TraceabilityGraph</text>
</g>
<!-- u31&#45;&gt;u29 -->
<g id="edge64" class="edge">
<title>u31&#45;&gt;u29</title>
<path fill="none" stroke="black" d="M2286.1,-2363.73C2268,-2303.55 2207.6,-2102.76 2185.49,-2029.26"/>
<polygon fill="black" stroke="black" points="2188.75,-2027.94 2182.52,-2019.37 2182.05,-2029.96 2188.75,-2027.94"/>
</g>
<!-- u14 -->
<g id="node24" class="node">
<title>u14</title>
<ellipse fill="#ffbbff" stroke="black" cx="3291.29" cy="-1620" rx="141.88" ry="18"/>
<text text-anchor="middle" x="3291.29" y="-1616.3" font-family="Times,serif" font-size="14.00">Drasil.Sections.Introduction</text>
</g>
<!-- u31&#45;&gt;u14 -->
<g id="edge61" class="edge">
<title>u31&#45;&gt;u14</title>
<path fill="none" stroke="black" d="M2313.58,-2364.06C2444.25,-2264.75 3110.29,-1758.56 3260.96,-1644.05"/>
<polygon fill="black" stroke="black" points="3263.11,-1646.82 3268.95,-1637.98 3258.87,-1641.24 3263.11,-1646.82"/>
</g>
<!-- u13 -->
<g id="node25" class="node">
<title>u13</title>
<ellipse fill="#ffbbff" stroke="black" cx="2970.29" cy="-1620" rx="161.37" ry="18"/>
<text text-anchor="middle" x="2970.29" y="-1616.3" font-family="Times,serif" font-size="14.00">Drasil.Sections.TableOfContents</text>
</g>
<!-- u31&#45;&gt;u13 -->
<g id="edge60" class="edge">
<title>u31&#45;&gt;u13</title>
<path fill="none" stroke="black" d="M2306.43,-2364.06C2394.71,-2265.25 2842.9,-1763.59 2948.15,-1645.79"/>
<polygon fill="black" stroke="black" points="2951.07,-1647.77 2955.12,-1637.98 2945.85,-1643.11 2951.07,-1647.77"/>
</g>
<!-- u9 -->
<g id="node29" class="node">
<title>u9</title>
<ellipse fill="#ffbbff" stroke="black" cx="3614.29" cy="-1620" rx="163.27" ry="18"/>
<text text-anchor="middle" x="3614.29" y="-1616.3" font-family="Times,serif" font-size="14.00">Drasil.Sections.GeneralSystDesc</text>
</g>
<!-- u31&#45;&gt;u9 -->
<g id="edge59" class="edge">
<title>u31&#45;&gt;u9</title>
<path fill="none" stroke="black" d="M2320.16,-2364.42C2492.1,-2265.64 3380.57,-1755.26 3576.17,-1642.9"/>
<polygon fill="black" stroke="black" points="3578.03,-1645.87 3584.96,-1637.85 3574.54,-1639.8 3578.03,-1645.87"/>
</g>
<!-- u8 -->
<g id="node30" class="node">
<title>u8</title>
<ellipse fill="#ffbbff" stroke="black" cx="3940.29" cy="-1620" rx="144.87" ry="18"/>
<text text-anchor="middle" x="3940.29" y="-1616.3" font-family="Times,serif" font-size="14.00">Drasil.Sections.Stakeholders</text>
</g>
<!-- u31&#45;&gt;u8 -->
<g id="edge58" class="edge">
<title>u31&#45;&gt;u8</title>
<path fill="none" stroke="black" d="M2326.88,-2364.6C2541,-2265.92 3656.6,-1751.75 3895.31,-1641.73"/>
<polygon fill="black" stroke="black" points="3896.79,-1644.91 3904.4,-1637.54 3893.86,-1638.55 3896.79,-1644.91"/>
</g>
<!-- u30 -->
<g id="node12" class="node">
<title>u30</title>
<ellipse fill="#ffbbbb" stroke="black" cx="937.29" cy="-1239" rx="159.47" ry="18"/>
<text text-anchor="middle" x="937.29" y="-1235.3" font-family="Times,serif" font-size="14.00">Drasil.DocumentLanguage.Core</text>
</g>
<!-- u21&#45;&gt;u30 -->
<g id="edge43" class="edge">
<title>u21&#45;&gt;u30</title>
<path fill="none" stroke="black" d="M76.29,-1982.72C66.93,-1923.04 44.04,-1722.64 134.29,-1602 305.25,-1373.48 653.71,-1285.76 830.01,-1255"/>
<polygon fill="black" stroke="black" points="830.82,-1258.41 840.08,-1253.27 829.63,-1251.51 830.82,-1258.41"/>
</g>
<!-- u20&#45;&gt;u30 -->
<g id="edge42" class="edge">
<title>u20&#45;&gt;u30</title>
<path fill="none" stroke="black" d="M255.23,-1983.08C209.05,-1925.37 69.71,-1732.65 153.29,-1602 302.56,-1368.67 644.73,-1283.58 823.61,-1254.29"/>
<polygon fill="black" stroke="black" points="824.26,-1257.73 833.58,-1252.69 823.15,-1250.82 824.26,-1257.73"/>
</g>
<!-- u19 -->
<g id="node4" class="node">
<title>u19</title>
<ellipse fill="#bbffbb" stroke="black" cx="2659.29" cy="-476" rx="92.88" ry="18"/>
<text text-anchor="middle" x="2659.29" y="-472.3" font-family="Times,serif" font-size="14.00">Drasil.GetChunks</text>
</g>
<!-- u5 -->
<g id="node5" class="node">
<title>u5</title>
<ellipse fill="#bbffbb" stroke="black" cx="2862.29" cy="-3145" rx="108.58" ry="18"/>
<text text-anchor="middle" x="2862.29" y="-3141.3" font-family="Times,serif" font-size="14.00">Drasil.SRSDocument</text>
</g>
<!-- u4 -->
<g id="node6" class="node">
<title>u4</title>
<ellipse fill="#bbffbb" stroke="black" cx="2862.29" cy="-2764" rx="81.79" ry="18"/>
<text text-anchor="middle" x="2862.29" y="-2760.3" font-family="Times,serif" font-size="14.00">Drasil.DocLang</text>
</g>
<!-- u5&#45;&gt;u4 -->
<g id="edge12" class="edge">
<title>u5&#45;&gt;u4</title>
<path fill="none" stroke="black" d="M2862.29,-3126.73C2862.29,-3066.68 2862.29,-2866.59 2862.29,-2792.71"/>
<polygon fill="black" stroke="black" points="2865.79,-2792.37 2862.29,-2782.37 2858.79,-2792.37 2865.79,-2792.37"/>
</g>
<!-- u4&#45;&gt;u31 -->
<g id="edge11" class="edge">
<title>u4&#45;&gt;u31</title>
<path fill="none" stroke="black" d="M2837.76,-2746.67C2746.91,-2686.21 2429.51,-2474.98 2324.97,-2405.41"/>
<polygon fill="black" stroke="black" points="2326.64,-2402.32 2316.38,-2399.7 2322.77,-2408.15 2326.64,-2402.32"/>
</g>
<!-- u25 -->
<g id="node17" class="node">
<title>u25</title>
<ellipse fill="#bbffff" stroke="black" cx="4191.29" cy="-2382" rx="276.75" ry="18"/>
<text text-anchor="middle" x="4191.29" y="-2378.3" font-family="Times,serif" font-size="14.00">Drasil.DocumentLanguage.Notebook.DocumentLanguage</text>
</g>
<!-- u4&#45;&gt;u25 -->
<g id="edge10" class="edge">
<title>u4&#45;&gt;u25</title>
<path fill="none" stroke="black" d="M2909.98,-2749.36C3110.74,-2691.96 3887.6,-2469.83 4123.19,-2402.47"/>
<polygon fill="black" stroke="black" points="4124.35,-2405.78 4133,-2399.67 4122.42,-2399.05 4124.35,-2405.78"/>
</g>
<!-- u0&#45;&gt;u30 -->
<g id="edge2" class="edge">
<title>u0&#45;&gt;u30</title>
<path fill="none" stroke="black" d="M463.53,-1983.63C363.21,-1931.28 73.11,-1762 174.29,-1602 319.78,-1371.95 655.51,-1285.19 829.05,-1254.87"/>
<polygon fill="black" stroke="black" points="829.71,-1258.31 838.97,-1253.17 828.52,-1251.41 829.71,-1258.31"/>
</g>
<!-- u18 -->
<g id="node20" class="node">
<title>u18</title>
<ellipse fill="#ffbbff" stroke="black" cx="391.29" cy="-1620" rx="207.96" ry="18"/>
<text text-anchor="middle" x="391.29" y="-1616.3" font-family="Times,serif" font-size="14.00">Drasil.Sections.SpecificSystemDescription</text>
</g>
<!-- u0&#45;&gt;u18 -->
<g id="edge1" class="edge">
<title>u0&#45;&gt;u18</title>
<path fill="none" stroke="black" d="M491.51,-1982.73C474.84,-1922.55 419.21,-1721.76 398.85,-1648.26"/>
<polygon fill="black" stroke="black" points="402.15,-1647.07 396.11,-1638.37 395.4,-1648.94 402.15,-1647.07"/>
</g>
<!-- u3 -->
<g id="node8" class="node">
<title>u3</title>
<ellipse fill="#ffffbb" stroke="black" cx="4270.29" cy="-2001" rx="129.18" ry="18"/>
<text text-anchor="middle" x="4270.29" y="-1997.3" font-family="Times,serif" font-size="14.00">Drasil.DocLang.Notebook</text>
</g>
<!-- u2 -->
<g id="node9" class="node">
<title>u2</title>
<ellipse fill="#ffffbb" stroke="black" cx="2875.29" cy="-1239" rx="104.78" ry="18"/>
<text text-anchor="middle" x="2875.29" y="-1235.3" font-family="Times,serif" font-size="14.00">Drasil.DocLang.SRS</text>
</g>
<!-- u1&#45;&gt;u18 -->
<g id="edge9" class="edge">
<title>u1&#45;&gt;u18</title>
<path fill="none" stroke="black" d="M1635.58,-1984.32C1428.75,-1923.92 684.06,-1706.48 457.29,-1640.27"/>
<polygon fill="black" stroke="black" points="458.1,-1636.86 447.52,-1637.42 456.14,-1643.58 458.1,-1636.86"/>
</g>
<!-- u17 -->
<g id="node21" class="node">
<title>u17</title>
<ellipse fill="#ffbbff" stroke="black" cx="2241.29" cy="-1620" rx="149.47" ry="18"/>
<text text-anchor="middle" x="2241.29" y="-1616.3" font-family="Times,serif" font-size="14.00">Drasil.Sections.Requirements</text>
</g>
<!-- u1&#45;&gt;u17 -->
<g id="edge8" class="edge">
<title>u1&#45;&gt;u17</title>
<path fill="none" stroke="black" d="M1713.72,-1983.23C1802.42,-1922.33 2107.53,-1712.84 2208.53,-1643.49"/>
<polygon fill="black" stroke="black" points="2210.57,-1646.34 2216.83,-1637.79 2206.61,-1640.57 2210.57,-1646.34"/>
</g>
<!-- u16 -->
<g id="node22" class="node">
<title>u16</title>
<ellipse fill="#ffbbff" stroke="black" cx="1462.29" cy="-1620" rx="201.46" ry="18"/>
<text text-anchor="middle" x="1462.29" y="-1616.3" font-family="Times,serif" font-size="14.00">Drasil.Sections.TableOfAbbAndAcronyms</text>
</g>
<!-- u1&#45;&gt;u16 -->
<g id="edge7" class="edge">
<title>u1&#45;&gt;u16</title>
<path fill="none" stroke="black" d="M1678.95,-1982.73C1642.76,-1922.31 1521.66,-1720.12 1478.08,-1647.36"/>
<polygon fill="black" stroke="black" points="1480.84,-1645.15 1472.7,-1638.37 1474.83,-1648.75 1480.84,-1645.15"/>
</g>
<!-- u15 -->
<g id="node23" class="node">
<title>u15</title>
<ellipse fill="#ffbbff" stroke="black" cx="2581.29" cy="-1620" rx="172.47" ry="18"/>
<text text-anchor="middle" x="2581.29" y="-1616.3" font-family="Times,serif" font-size="14.00">Drasil.Sections.AuxiliaryConstants</text>
</g>
<!-- u1&#45;&gt;u15 -->
<g id="edge6" class="edge">
<title>u1&#45;&gt;u15</title>
<path fill="none" stroke="black" d="M1727.62,-1983.71C1870.77,-1922.89 2373.95,-1709.1 2532.83,-1641.59"/>
<polygon fill="black" stroke="black" points="2534.52,-1644.68 2542.36,-1637.54 2531.78,-1638.23 2534.52,-1644.68"/>
</g>
<!-- u12 -->
<g id="node26" class="node">
<title>u12</title>
<ellipse fill="#ffbbff" stroke="black" cx="776.29" cy="-1620" rx="159.47" ry="18"/>
<text text-anchor="middle" x="776.29" y="-1616.3" font-family="Times,serif" font-size="14.00">Drasil.Sections.TableOfSymbols</text>
</g>
<!-- u1&#45;&gt;u12 -->
<g id="edge5" class="edge">
<title>u1&#45;&gt;u12</title>
<path fill="none" stroke="black" d="M1650.06,-1983.71C1503.32,-1922.8 986.9,-1708.43 825.13,-1641.27"/>
<polygon fill="black" stroke="black" points="826.47,-1638.04 815.89,-1637.44 823.78,-1644.5 826.47,-1638.04"/>
</g>
<!-- u11 -->
<g id="node27" class="node">
<title>u11</title>
<ellipse fill="#ffbbff" stroke="black" cx="1098.29" cy="-1620" rx="144.87" ry="18"/>
<text text-anchor="middle" x="1098.29" y="-1616.3" font-family="Times,serif" font-size="14.00">Drasil.Sections.TableOfUnits</text>
</g>
<!-- u1&#45;&gt;u11 -->
<g id="edge4" class="edge">
<title>u1&#45;&gt;u11</title>
<path fill="none" stroke="black" d="M1663.14,-1983.23C1568.07,-1922.26 1240.85,-1712.42 1133.04,-1643.29"/>
<polygon fill="black" stroke="black" points="1134.79,-1640.25 1124.48,-1637.79 1131.01,-1646.14 1134.79,-1640.25"/>
</g>
<!-- u7 -->
<g id="node31" class="node">
<title>u7</title>
<ellipse fill="#ffbbff" stroke="black" cx="1859.29" cy="-1620" rx="177.37" ry="18"/>
<text text-anchor="middle" x="1859.29" y="-1616.3" font-family="Times,serif" font-size="14.00">Drasil.Sections.TraceabilityMandGs</text>
</g>
<!-- u1&#45;&gt;u7 -->
<g id="edge3" class="edge">
<title>u1&#45;&gt;u7</title>
<path fill="none" stroke="black" d="M1697.04,-1982.73C1724.09,-1922.43 1814.46,-1720.94 1847.27,-1647.81"/>
<polygon fill="black" stroke="black" points="1850.6,-1648.93 1851.5,-1638.37 1844.22,-1646.06 1850.6,-1648.93"/>
</g>
<!-- u6 -->
<g id="node11" class="node">
<title>u6</title>
<ellipse fill="#bbbbff" stroke="black" cx="2414.29" cy="-476" rx="133.78" ry="18"/>
<text text-anchor="middle" x="2414.29" y="-472.3" font-family="Times,serif" font-size="14.00">Drasil.Document.Contents</text>
</g>
<!-- u22 -->
<g id="node32" class="node">
<title>u22</title>
<ellipse fill="#77ff77" stroke="black" cx="2597.29" cy="-95" rx="146.77" ry="18"/>
<text text-anchor="middle" x="2597.29" y="-91.3" font-family="Times,serif" font-size="14.00">Drasil.Sentence.Combinators</text>
</g>
<!-- u6&#45;&gt;u22 -->
<g id="edge13" class="edge">
<title>u6&#45;&gt;u22</title>
<path fill="none" stroke="black" d="M2422.63,-457.73C2451.75,-397.43 2549.04,-195.94 2584.35,-122.81"/>
<polygon fill="black" stroke="black" points="2587.71,-123.9 2588.91,-113.37 2581.41,-120.85 2587.71,-123.9"/>
</g>
<!-- u26 -->
<g id="node16" class="node">
<title>u26</title>
<ellipse fill="#ffbbbb" stroke="black" cx="2352.29" cy="-858" rx="187.37" ry="18"/>
<text text-anchor="middle" x="2352.29" y="-854.3" font-family="Times,serif" font-size="14.00">Drasil.DocumentLanguage.Definitions</text>
</g>
<!-- u30&#45;&gt;u26 -->
<g id="edge55" class="edge">
<title>u30&#45;&gt;u26</title>
<path fill="none" stroke="black" d="M996.29,-1222.2C1223.03,-1161.47 2037.86,-943.22 2282.42,-877.72"/>
<polygon fill="black" stroke="black" points="2283.5,-881.05 2292.25,-875.08 2281.69,-874.29 2283.5,-881.05"/>
</g>
<!-- u29&#45;&gt;u2 -->
<g id="edge52" class="edge">
<title>u29&#45;&gt;u2</title>
<path fill="none" stroke="black" d="M2227.09,-1983.43C2340.2,-1943.21 2617.83,-1829.36 2762.29,-1638 2851.03,-1520.46 2870.11,-1335.9 2874.19,-1267.07"/>
<polygon fill="black" stroke="black" points="2877.69,-1267.22 2874.73,-1257.04 2870.7,-1266.84 2877.69,-1267.22"/>
</g>
<!-- u10 -->
<g id="node28" class="node">
<title>u10</title>
<ellipse fill="#ffbbff" stroke="black" cx="1902.29" cy="-1239" rx="170.07" ry="18"/>
<text text-anchor="middle" x="1902.29" y="-1235.3" font-family="Times,serif" font-size="14.00">Drasil.Sections.ReferenceMaterial</text>
</g>
<!-- u29&#45;&gt;u10 -->
<g id="edge54" class="edge">
<title>u29&#45;&gt;u10</title>
<path fill="none" stroke="black" d="M2171.97,-1982.81C2154.71,-1927.33 2098.33,-1748.1 2045.29,-1602 1999.3,-1475.31 1938.17,-1326.28 1913.41,-1266.63"/>
<polygon fill="black" stroke="black" points="1916.56,-1265.09 1909.49,-1257.2 1910.09,-1267.78 1916.56,-1265.09"/>
</g>
<!-- u29&#45;&gt;u7 -->
<g id="edge53" class="edge">
<title>u29&#45;&gt;u7</title>
<path fill="none" stroke="black" d="M2162.8,-1982.73C2111.79,-1921.94 1940.37,-1717.63 1880.3,-1646.04"/>
<polygon fill="black" stroke="black" points="1882.98,-1643.78 1873.87,-1638.37 1877.61,-1648.28 1882.98,-1643.78"/>
</g>
<!-- u28 -->
<g id="node14" class="node">
<title>u28</title>
<ellipse fill="#ffbbbb" stroke="black" cx="2100.29" cy="-476" rx="162.47" ry="18"/>
<text text-anchor="middle" x="2100.29" y="-472.3" font-family="Times,serif" font-size="14.00">Drasil.DocumentLanguage.Units</text>
</g>
<!-- u27 -->
<g id="node15" class="node">
<title>u27</title>
<ellipse fill="#ffbbbb" stroke="black" cx="2352.29" cy="-1239" rx="223.66" ry="18"/>
<text text-anchor="middle" x="2352.29" y="-1235.3" font-family="Times,serif" font-size="14.00">Drasil.DocumentLanguage.TraceabilityMatrix</text>
</g>
<!-- u27&#45;&gt;u26 -->
<g id="edge51" class="edge">
<title>u27&#45;&gt;u26</title>
<path fill="none" stroke="black" d="M2352.29,-1220.73C2352.29,-1160.68 2352.29,-960.59 2352.29,-886.71"/>
<polygon fill="black" stroke="black" points="2355.79,-886.37 2352.29,-876.37 2348.79,-886.37 2355.79,-886.37"/>
</g>
<!-- u26&#45;&gt;u19 -->
<g id="edge49" class="edge">
<title>u26&#45;&gt;u19</title>
<path fill="none" stroke="black" d="M2366.28,-839.68C2415.54,-778.71 2581.1,-573.78 2639.05,-502.05"/>
<polygon fill="black" stroke="black" points="2642.01,-503.96 2645.57,-493.98 2636.57,-499.56 2642.01,-503.96"/>
</g>
<!-- u26&#45;&gt;u6 -->
<g id="edge48" class="edge">
<title>u26&#45;&gt;u6</title>
<path fill="none" stroke="black" d="M2355.12,-839.68C2364.96,-779.35 2397.81,-578.03 2409.83,-504.33"/>
<polygon fill="black" stroke="black" points="2413.3,-504.85 2411.45,-494.42 2406.39,-503.72 2413.3,-504.85"/>
</g>
<!-- u26&#45;&gt;u28 -->
<g id="edge50" class="edge">
<title>u26&#45;&gt;u28</title>
<path fill="none" stroke="black" d="M2340.81,-839.68C2300.46,-778.84 2165.03,-574.62 2117.2,-502.49"/>
<polygon fill="black" stroke="black" points="2120,-500.38 2111.56,-493.98 2114.17,-504.25 2120,-500.38"/>
</g>
<!-- u25&#45;&gt;u19 -->
<g id="edge46" class="edge">
<title>u25&#45;&gt;u19</title>
<path fill="none" stroke="black" d="M4187.77,-2363.76C4177.31,-2311.9 4146.33,-2152.62 4132.29,-2019 4113.8,-1842.88 4113.29,-1798.09 4113.29,-1621 4113.29,-1621 4113.29,-1621 4113.29,-1238 4113.29,-624.97 3086.17,-504.84 2758.48,-482.12"/>
<polygon fill="black" stroke="black" points="2758.27,-478.6 2748.06,-481.41 2757.8,-485.58 2758.27,-478.6"/>
</g>
<!-- u25&#45;&gt;u3 -->
<g id="edge45" class="edge">
<title>u25&#45;&gt;u3</title>
<path fill="none" stroke="black" d="M4194.89,-2363.73C4207.44,-2303.55 4249.29,-2102.76 4264.61,-2029.26"/>
<polygon fill="black" stroke="black" points="4268.06,-2029.87 4266.67,-2019.37 4261.21,-2028.45 4268.06,-2029.87"/>
</g>
<!-- u24 -->
<g id="node18" class="node">
<title>u24</title>
<ellipse fill="#bbffff" stroke="black" cx="4639.29" cy="-2001" rx="221.76" ry="18"/>
<text text-anchor="middle" x="4639.29" y="-1997.3" font-family="Times,serif" font-size="14.00">Drasil.DocumentLanguage.Notebook.LsnDecl</text>
</g>
<!-- u25&#45;&gt;u24 -->
<g id="edge47" class="edge">
<title>u25&#45;&gt;u24</title>
<path fill="none" stroke="black" d="M4211.41,-2363.98C4283.42,-2303.06 4528.41,-2095.81 4611.48,-2025.53"/>
<polygon fill="black" stroke="black" points="4613.85,-2028.1 4619.23,-2018.97 4609.33,-2022.76 4613.85,-2028.1"/>
</g>
<!-- u23 -->
<g id="node19" class="node">
<title>u23</title>
<ellipse fill="#bbffff" stroke="black" cx="4639.29" cy="-1620" rx="206.06" ry="18"/>
<text text-anchor="middle" x="4639.29" y="-1616.3" font-family="Times,serif" font-size="14.00">Drasil.DocumentLanguage.Notebook.Core</text>
</g>
<!-- u24&#45;&gt;u23 -->
<g id="edge44" class="edge">
<title>u24&#45;&gt;u23</title>
<path fill="none" stroke="black" d="M4639.29,-1982.73C4639.29,-1922.68 4639.29,-1722.59 4639.29,-1648.71"/>
<polygon fill="black" stroke="black" points="4642.79,-1648.37 4639.29,-1638.37 4635.79,-1648.37 4642.79,-1648.37"/>
</g>
<!-- u18&#45;&gt;u2 -->
<g id="edge39" class="edge">
<title>u18&#45;&gt;u2</title>
<path fill="none" stroke="black" d="M489.05,-1604.08C890.87,-1542.78 2411.85,-1310.71 2789.85,-1253.04"/>
<polygon fill="black" stroke="black" points="2790.54,-1256.47 2799.9,-1251.5 2789.49,-1249.55 2790.54,-1256.47"/>
</g>
<!-- u18&#45;&gt;u26 -->
<g id="edge41" class="edge">
<title>u18&#45;&gt;u26</title>
<path fill="none" stroke="black" d="M402.15,-1601.67C442.28,-1539.16 589.22,-1323.62 769.29,-1221 1229.45,-958.76 1866.74,-886.46 2173.37,-866.55"/>
<polygon fill="black" stroke="black" points="2173.93,-870.02 2183.69,-865.89 2173.49,-863.04 2173.93,-870.02"/>
</g>
<!-- u18&#45;&gt;u10 -->
<g id="edge40" class="edge">
<title>u18&#45;&gt;u10</title>
<path fill="none" stroke="black" d="M455.74,-1602.84C700.32,-1541.49 1570.4,-1323.25 1829.18,-1258.34"/>
<polygon fill="black" stroke="black" points="1830.38,-1261.65 1839.22,-1255.82 1828.67,-1254.86 1830.38,-1261.65"/>
</g>
<!-- u17&#45;&gt;u2 -->
<g id="edge35" class="edge">
<title>u17&#45;&gt;u2</title>
<path fill="none" stroke="black" d="M2269.35,-1602.23C2371.55,-1541.13 2723.87,-1330.52 2838.76,-1261.84"/>
<polygon fill="black" stroke="black" points="2840.77,-1264.72 2847.56,-1256.58 2837.18,-1258.71 2840.77,-1264.72"/>
</g>
<!-- u17&#45;&gt;u28 -->
<g id="edge38" class="edge">
<title>u17&#45;&gt;u28</title>
<path fill="none" stroke="black" d="M2233.4,-1601.79C2210.41,-1550.63 2143.56,-1394.48 2119.29,-1257 2068,-966.42 2090.24,-605.59 2098.01,-504.47"/>
<polygon fill="black" stroke="black" points="2101.53,-504.45 2098.82,-494.2 2094.55,-503.9 2101.53,-504.45"/>
</g>
<!-- u17&#45;&gt;u10 -->
<g id="edge36" class="edge">
<title>u17&#45;&gt;u10</title>
<path fill="none" stroke="black" d="M2225.85,-1601.73C2171.34,-1540.8 1987.89,-1335.7 1924.25,-1264.55"/>
<polygon fill="black" stroke="black" points="1926.72,-1262.06 1917.44,-1256.94 1921.5,-1266.72 1926.72,-1262.06"/>
</g>
<!-- u17&#45;&gt;u22 -->
<g id="edge37" class="edge">
<title>u17&#45;&gt;u22</title>
<path fill="none" stroke="black" d="M2264.48,-1602.01C2327.01,-1554.87 2500.1,-1415.45 2585.29,-1257 2757.48,-936.73 2838.05,-813.43 2761.29,-458 2732.32,-323.84 2649.35,-179.6 2613.79,-121.95"/>
<polygon fill="black" stroke="black" points="2616.57,-119.79 2608.31,-113.15 2610.62,-123.49 2616.57,-119.79"/>
</g>
<!-- u16&#45;&gt;u10 -->
<g id="edge34" class="edge">
<title>u16&#45;&gt;u10</title>
<path fill="none" stroke="black" d="M1482.05,-1601.98C1552.7,-1541.12 1792.9,-1334.22 1874.73,-1263.74"/>
<polygon fill="black" stroke="black" points="1877.29,-1266.15 1882.59,-1256.97 1872.73,-1260.85 1877.29,-1266.15"/>
</g>
<!-- u15&#45;&gt;u2 -->
<g id="edge30" class="edge">
<title>u15&#45;&gt;u2</title>
<path fill="none" stroke="black" d="M2594.69,-1601.73C2641.86,-1540.92 2800.41,-1336.53 2855.91,-1264.99"/>
<polygon fill="black" stroke="black" points="2858.79,-1266.98 2862.15,-1256.94 2853.26,-1262.69 2858.79,-1266.98"/>
</g>
<!-- u15&#45;&gt;u6 -->
<g id="edge31" class="edge">
<title>u15&#45;&gt;u6</title>
<path fill="none" stroke="black" d="M2582.83,-1601.98C2589.97,-1517.85 2616.69,-1138.53 2548.29,-840 2518.44,-709.7 2454.03,-562.64 2426.83,-503.6"/>
<polygon fill="black" stroke="black" points="2429.88,-501.86 2422.49,-494.26 2423.53,-504.81 2429.88,-501.86"/>
</g>
<!-- u15&#45;&gt;u28 -->
<g id="edge33" class="edge">
<title>u15&#45;&gt;u28</title>
<path fill="none" stroke="black" d="M2585.65,-1601.98C2607.02,-1514.71 2693.96,-1110.94 2548.29,-840 2454.8,-666.11 2239.46,-544.7 2145.51,-498.12"/>
<polygon fill="black" stroke="black" points="2146.79,-494.85 2136.27,-493.58 2143.7,-501.13 2146.79,-494.85"/>
</g>
<!-- u15&#45;&gt;u10 -->
<g id="edge32" class="edge">
<title>u15&#45;&gt;u10</title>
<path fill="none" stroke="black" d="M2551.24,-1602.23C2441.81,-1541.14 2064.57,-1330.58 1941.48,-1261.87"/>
<polygon fill="black" stroke="black" points="1942.82,-1258.61 1932.38,-1256.79 1939.41,-1264.72 1942.82,-1258.61"/>
</g>
<!-- u14&#45;&gt;u2 -->
<g id="edge27" class="edge">
<title>u14&#45;&gt;u2</title>
<path fill="none" stroke="black" d="M3272.61,-1601.98C3205.82,-1541.12 2978.72,-1334.22 2901.35,-1263.74"/>
<polygon fill="black" stroke="black" points="2903.67,-1261.12 2893.92,-1256.97 2898.96,-1266.3 2903.67,-1261.12"/>
</g>
<!-- u14&#45;&gt;u26 -->
<g id="edge29" class="edge">
<title>u14&#45;&gt;u26</title>
<path fill="none" stroke="black" d="M3281.8,-1601.93C3248.34,-1542.91 3130.24,-1344.43 2989.29,-1221 2798.21,-1053.67 2517.67,-927.13 2403.47,-879.56"/>
<polygon fill="black" stroke="black" points="2404.5,-876.19 2393.92,-875.6 2401.82,-882.66 2404.5,-876.19"/>
</g>
<!-- u14&#45;&gt;u10 -->
<g id="edge28" class="edge">
<title>u14&#45;&gt;u10</title>
<path fill="none" stroke="black" d="M3234.25,-1603.44C3012.83,-1543.02 2210.68,-1324.14 1970.62,-1258.64"/>
<polygon fill="black" stroke="black" points="1971.54,-1255.27 1960.97,-1256.01 1969.69,-1262.02 1971.54,-1255.27"/>
</g>
<!-- u13&#45;&gt;u2 -->
<g id="edge25" class="edge">
<title>u13&#45;&gt;u2</title>
<path fill="none" stroke="black" d="M2965.96,-1601.73C2950.88,-1541.55 2900.55,-1340.76 2882.13,-1267.26"/>
<polygon fill="black" stroke="black" points="2885.47,-1266.22 2879.65,-1257.37 2878.68,-1267.92 2885.47,-1266.22"/>
</g>
<!-- u13&#45;&gt;u30 -->
<g id="edge26" class="edge">
<title>u13&#45;&gt;u30</title>
<path fill="none" stroke="black" d="M2891.22,-1604.26C2570.04,-1544.38 1364.15,-1319.58 1025.96,-1256.53"/>
<polygon fill="black" stroke="black" points="1026.45,-1253.06 1015.97,-1254.67 1025.16,-1259.94 1026.45,-1253.06"/>
</g>
<!-- u12&#45;&gt;u30 -->
<g id="edge24" class="edge">
<title>u12&#45;&gt;u30</title>
<path fill="none" stroke="black" d="M783.63,-1601.73C809.25,-1541.43 894.84,-1339.94 925.9,-1266.81"/>
<polygon fill="black" stroke="black" points="929.23,-1267.94 929.91,-1257.37 922.78,-1265.21 929.23,-1267.94"/>
</g>
<!-- u12&#45;&gt;u10 -->
<g id="edge23" class="edge">
<title>u12&#45;&gt;u10</title>
<path fill="none" stroke="black" d="M824.32,-1602.84C1005.43,-1541.87 1646.82,-1325.99 1844.12,-1259.58"/>
<polygon fill="black" stroke="black" points="1845.36,-1262.86 1853.72,-1256.35 1843.13,-1256.22 1845.36,-1262.86"/>
</g>
<!-- u11&#45;&gt;u30 -->
<g id="edge22" class="edge">
<title>u11&#45;&gt;u30</title>
<path fill="none" stroke="black" d="M1090.96,-1601.73C1065.34,-1541.43 979.75,-1339.94 948.68,-1266.81"/>
<polygon fill="black" stroke="black" points="951.8,-1265.21 944.67,-1257.37 945.36,-1267.94 951.8,-1265.21"/>
</g>
<!-- u11&#45;&gt;u10 -->
<g id="edge21" class="edge">
<title>u11&#45;&gt;u10</title>
<path fill="none" stroke="black" d="M1133.36,-1602.47C1262.76,-1541.47 1713.47,-1329.01 1857.6,-1261.07"/>
<polygon fill="black" stroke="black" points="1859.49,-1264.05 1867.04,-1256.62 1856.51,-1257.71 1859.49,-1264.05"/>
</g>
<!-- u9&#45;&gt;u2 -->
<g id="edge18" class="edge">
<title>u9&#45;&gt;u2</title>
<path fill="none" stroke="black" d="M3581.59,-1602.23C3461.97,-1540.88 3048.38,-1328.77 2916.23,-1260.99"/>
<polygon fill="black" stroke="black" points="2917.7,-1257.82 2907.21,-1256.37 2914.51,-1264.05 2917.7,-1257.82"/>
</g>
<!-- u9&#45;&gt;u6 -->
<g id="edge19" class="edge">
<title>u9&#45;&gt;u6</title>
<path fill="none" stroke="black" d="M3596.4,-1601.97C3461.07,-1473.18 2599.57,-653.33 2439.78,-501.25"/>
<polygon fill="black" stroke="black" points="2441.95,-498.49 2432.29,-494.13 2437.12,-503.56 2441.95,-498.49"/>
</g>
<!-- u9&#45;&gt;u10 -->
<g id="edge20" class="edge">
<title>u9&#45;&gt;u10</title>
<path fill="none" stroke="black" d="M3545.06,-1603.67C3272.42,-1543.32 2273.59,-1322.2 1982.44,-1257.74"/>
<polygon fill="black" stroke="black" points="1982.91,-1254.26 1972.39,-1255.52 1981.39,-1261.1 1982.91,-1254.26"/>
</g>
<!-- u8&#45;&gt;u2 -->
<g id="edge16" class="edge">
<title>u8&#45;&gt;u2</title>
<path fill="none" stroke="black" d="M3894.87,-1602.84C3722.86,-1541.62 3111.9,-1324.2 2928.03,-1258.77"/>
<polygon fill="black" stroke="black" points="2929.17,-1255.46 2918.57,-1255.4 2926.82,-1262.05 2929.17,-1255.46"/>
</g>
<!-- u8&#45;&gt;u6 -->
<g id="edge17" class="edge">
<title>u8&#45;&gt;u6</title>
<path fill="none" stroke="black" d="M3917.84,-1602.19C3746.29,-1473.82 2644.62,-649.37 2445.21,-500.14"/>
<polygon fill="black" stroke="black" points="2447.03,-497.13 2436.93,-493.94 2442.83,-502.73 2447.03,-497.13"/>
</g>
<!-- u7&#45;&gt;u30 -->
<g id="edge15" class="edge">
<title>u7&#45;&gt;u30</title>
<path fill="none" stroke="black" d="M1818.79,-1602.35C1669.44,-1540.96 1149.91,-1327.4 986.73,-1260.32"/>
<polygon fill="black" stroke="black" points="987.99,-1257.06 977.41,-1256.49 985.33,-1263.53 987.99,-1257.06"/>
</g>
<!-- u7&#45;&gt;u27 -->
<g id="edge14" class="edge">
<title>u7&#45;&gt;u27</title>
<path fill="none" stroke="black" d="M1881.43,-1601.98C1960.83,-1540.94 2231.36,-1332.97 2322.24,-1263.1"/>
<polygon fill="black" stroke="black" points="2324.42,-1265.84 2330.21,-1256.97 2320.15,-1260.29 2324.42,-1265.84"/>
</g>
</g>
</svg>
