<?xml version="1.0" encoding="UTF-8" standalone="no"?>
<!DOCTYPE svg PUBLIC "-//W3C//DTD SVG 1.1//EN"
 "http://www.w3.org/Graphics/SVG/1.1/DTD/svg11.dtd">
<!-- Generated by graphviz version 2.43.0 (0)
 -->
<!-- Title: G Pages: 1 -->
<svg width="431pt" height="288pt"
 viewBox="0.00 0.00 430.89 288.00" xmlns="http://www.w3.org/2000/svg" xmlns:xlink="http://www.w3.org/1999/xlink">
<g id="graph0" class="graph" transform="scale(0.32 0.32) rotate(0) translate(4 896)">
<title>G</title>
<polygon fill="white" stroke="transparent" points="-4,4 -4,-896 1342.53,-896 1342.53,4 -4,4"/>
<!-- u0 -->
<g id="node1" class="node">
<title>u0</title>
<ellipse fill="#bbffbb" stroke="black" cx="748.19" cy="-828" rx="89.08" ry="18"/>
<text text-anchor="middle" x="748.19" y="-824.3" font-family="Times,serif" font-size="14.00">Drasil.Generator</text>
</g>
<!-- u6 -->
<g id="node4" class="node">
<title>u6</title>
<ellipse fill="#ffffbb" stroke="black" cx="279.19" cy="-573" rx="157.07" ry="18"/>
<text text-anchor="middle" x="279.19" y="-569.3" font-family="Times,serif" font-size="14.00">Drasil.Generator.BaseChunkDB</text>
</g>
<!-- u0&#45;&gt;u6 -->
<g id="edge4" class="edge">
<title>u0&#45;&gt;u6</title>
<path fill="none" stroke="black" d="M718.49,-810.98C637.31,-767.19 411.6,-645.43 319.3,-595.64"/>
<polygon fill="black" stroke="black" points="320.74,-592.44 310.27,-590.77 317.41,-598.6 320.74,-592.44"/>
</g>
<!-- u5 -->
<g id="node5" class="node">
<title>u5</title>
<ellipse fill="#ffffbb" stroke="black" cx="598.19" cy="-573" rx="143.77" ry="18"/>
<text text-anchor="middle" x="598.19" y="-569.3" font-family="Times,serif" font-size="14.00">Drasil.Generator.LessonPlan</text>
</g>
<!-- u0&#45;&gt;u5 -->
<g id="edge3" class="edge">
<title>u0&#45;&gt;u5</title>
<path fill="none" stroke="black" d="M738.11,-810.01C712.4,-766.63 644.2,-651.6 613.52,-599.86"/>
<polygon fill="black" stroke="black" points="616.53,-598.07 608.42,-591.25 610.5,-601.64 616.53,-598.07"/>
</g>
<!-- u3 -->
<g id="node7" class="node">
<title>u3</title>
<ellipse fill="#ffffbb" stroke="black" cx="899.19" cy="-573" rx="139.18" ry="18"/>
<text text-anchor="middle" x="899.19" y="-569.3" font-family="Times,serif" font-size="14.00">Drasil.Generator.Composed</text>
</g>
<!-- u0&#45;&gt;u3 -->
<g id="edge2" class="edge">
<title>u0&#45;&gt;u3</title>
<path fill="none" stroke="black" d="M758.33,-810.01C784.22,-766.63 852.87,-651.6 883.75,-599.86"/>
<polygon fill="black" stroke="black" points="886.77,-601.63 888.89,-591.25 880.76,-598.05 886.77,-601.63"/>
</g>
<!-- u1 -->
<g id="node9" class="node">
<title>u1</title>
<ellipse fill="#ffffbb" stroke="black" cx="1182.19" cy="-319" rx="128.08" ry="18"/>
<text text-anchor="middle" x="1182.19" y="-315.3" font-family="Times,serif" font-size="14.00">Drasil.Generator.Website</text>
</g>
<!-- u0&#45;&gt;u1 -->
<g id="edge1" class="edge">
<title>u0&#45;&gt;u1</title>
<path fill="none" stroke="black" d="M776.29,-810.76C833.6,-776.49 965.44,-691.59 1047.19,-591 1111.23,-512.19 1155.49,-398 1173.36,-346.7"/>
<polygon fill="black" stroke="black" points="1176.74,-347.62 1176.67,-337.03 1170.12,-345.36 1176.74,-347.62"/>
</g>
<!-- u8 -->
<g id="node2" class="node">
<title>u8</title>
<ellipse fill="#ffffbb" stroke="black" cx="148.19" cy="-64" rx="148.37" ry="18"/>
<text text-anchor="middle" x="148.19" y="-60.3" font-family="Times,serif" font-size="14.00">Drasil.Generator.ChunkDump</text>
</g>
<!-- u7 -->
<g id="node3" class="node">
<title>u7</title>
<ellipse fill="#ffffbb" stroke="black" cx="656.19" cy="-319" rx="114.28" ry="18"/>
<text text-anchor="middle" x="656.19" y="-315.3" font-family="Times,serif" font-size="14.00">Drasil.Generator.Code</text>
</g>
<!-- u4 -->
<g id="node6" class="node">
<title>u4</title>
<ellipse fill="#ffffbb" stroke="black" cx="1209.19" cy="-64" rx="129.18" ry="18"/>
<text text-anchor="middle" x="1209.19" y="-60.3" font-family="Times,serif" font-size="14.00">Drasil.Generator.Formats</text>
</g>
<!-- u3&#45;&gt;u7 -->
<g id="edge11" class="edge">
<title>u3&#45;&gt;u7</title>
<path fill="none" stroke="black" d="M882.87,-555.07C840.76,-511.41 728.35,-394.83 679.45,-344.12"/>
<polygon fill="black" stroke="black" points="681.9,-341.62 672.44,-336.85 676.86,-346.48 681.9,-341.62"/>
</g>
<!-- u2 -->
<g id="node8" class="node">
<title>u2</title>
<ellipse fill="#ffffbb" stroke="black" cx="899.19" cy="-319" rx="110.48" ry="18"/>
<text text-anchor="middle" x="899.19" y="-315.3" font-family="Times,serif" font-size="14.00">Drasil.Generator.SRS</text>
</g>
<!-- u3&#45;&gt;u2 -->
<g id="edge10" class="edge">
<title>u3&#45;&gt;u2</title>
<path fill="none" stroke="black" d="M899.19,-554.68C899.19,-511.6 899.19,-399.33 899.19,-347.26"/>
<polygon fill="black" stroke="black" points="902.69,-347.11 899.19,-337.11 895.69,-347.11 902.69,-347.11"/>
</g>
<!-- u2&#45;&gt;u8 -->
<g id="edge7" class="edge">
<title>u2&#45;&gt;u8</title>
<path fill="none" stroke="black" d="M853.34,-302.55C722.74,-258.56 348.99,-132.65 205.37,-84.26"/>
<polygon fill="black" stroke="black" points="206.43,-80.93 195.84,-81.05 204.2,-87.56 206.43,-80.93"/>
</g>
<!-- u2&#45;&gt;u4 -->
<g id="edge6" class="edge">
<title>u2&#45;&gt;u4</title>
<path fill="none" stroke="black" d="M920.01,-301.01C974.06,-256.9 1118.9,-138.69 1180.66,-88.28"/>
<polygon fill="black" stroke="black" points="1182.92,-90.95 1188.46,-81.92 1178.5,-85.53 1182.92,-90.95"/>
</g>
<!-- u10 -->
<g id="node10" class="node">
<title>u10</title>
<ellipse fill="#bbbbff" stroke="black" cx="516.19" cy="-64" rx="201.46" ry="18"/>
<text text-anchor="middle" x="516.19" y="-60.3" font-family="Times,serif" font-size="14.00">Drasil.Generator.SRS.TraceabilityGraphs</text>
</g>
<!-- u2&#45;&gt;u10 -->
<g id="edge9" class="edge">
<title>u2&#45;&gt;u10</title>
<path fill="none" stroke="black" d="M874.06,-301.4C807.53,-257.45 626.73,-138.02 550.66,-87.77"/>
<polygon fill="black" stroke="black" points="552.18,-84.58 541.91,-81.99 548.33,-90.43 552.18,-84.58"/>
</g>
<!-- u9 -->
<g id="node11" class="node">
<title>u9</title>
<ellipse fill="#bbbbff" stroke="black" cx="899.19" cy="-64" rx="163.27" ry="18"/>
<text text-anchor="middle" x="899.19" y="-60.3" font-family="Times,serif" font-size="14.00">Drasil.Generator.SRS.TypeCheck</text>
</g>
<!-- u2&#45;&gt;u9 -->
<g id="edge8" class="edge">
<title>u2&#45;&gt;u9</title>
<path fill="none" stroke="black" d="M899.19,-300.61C899.19,-257.36 899.19,-144.65 899.19,-92.37"/>
<polygon fill="black" stroke="black" points="902.69,-92.18 899.19,-82.18 895.69,-92.18 902.69,-92.18"/>
</g>
<!-- u1&#45;&gt;u4 -->
<g id="edge5" class="edge">
<title>u1&#45;&gt;u4</title>
<path fill="none" stroke="black" d="M1184.04,-300.61C1188.66,-257.36 1200.69,-144.65 1206.27,-92.37"/>
<polygon fill="black" stroke="black" points="1209.77,-92.49 1207.35,-82.18 1202.81,-91.75 1209.77,-92.49"/>
</g>
</g>
</svg>
