<?xml version="1.0" encoding="UTF-8" standalone="no"?>
<!DOCTYPE svg PUBLIC "-//W3C//DTD SVG 1.1//EN"
 "http://www.w3.org/Graphics/SVG/1.1/DTD/svg11.dtd">
<!-- Generated by graphviz version 2.43.0 (0)
 -->
<!-- Title: G Pages: 1 -->
<svg width="431pt" height="288pt"
 viewBox="0.00 0.00 430.56 288.00" xmlns="http://www.w3.org/2000/svg" xmlns:xlink="http://www.w3.org/1999/xlink">
<g id="graph0" class="graph" transform="scale(2.16 2.16) rotate(0) translate(4 618)">
<title>G</title>
<polygon fill="white" stroke="transparent" points="-4,4 -4,-618 925.88,-618 925.88,4 -4,4"/>
<!-- u0 -->
<g id="node1" class="node">
<title>u0</title>
<ellipse fill="#bbffbb" stroke="black" cx="452.04" cy="-580" rx="63.89" ry="18"/>
<text text-anchor="middle" x="452.04" y="-576.3" font-family="Times,serif" font-size="14.00">Utils.Drasil</text>
</g>
<!-- u10 -->
<g id="node2" class="node">
<title>u10</title>
<ellipse fill="#ffffbb" stroke="black" cx="102.04" cy="-443" rx="102.08" ry="18"/>
<text text-anchor="middle" x="102.04" y="-439.3" font-family="Times,serif" font-size="14.00">Utils.Drasil.English</text>
</g>
<!-- u0&#45;&gt;u10 -->
<g id="edge4" class="edge">
<title>u0&#45;&gt;u10</title>
<path fill="none" stroke="black" d="M415.9,-565.06C353.1,-540.84 223.7,-490.93 152.22,-463.36"/>
<polygon fill="black" stroke="black" points="153.13,-459.95 142.54,-459.62 150.61,-466.48 153.13,-459.95"/>
</g>
<!-- u7 -->
<g id="node5" class="node">
<title>u7</title>
<ellipse fill="#ffffbb" stroke="black" cx="331.04" cy="-443" rx="108.58" ry="18"/>
<text text-anchor="middle" x="331.04" y="-439.3" font-family="Times,serif" font-size="14.00">Utils.Drasil.Contents</text>
</g>
<!-- u0&#45;&gt;u7 -->
<g id="edge3" class="edge">
<title>u0&#45;&gt;u7</title>
<path fill="none" stroke="black" d="M437.2,-562.45C416.18,-538.99 377.58,-495.92 353.16,-468.68"/>
<polygon fill="black" stroke="black" points="355.66,-466.23 346.38,-461.11 350.45,-470.9 355.66,-466.23"/>
</g>
<!-- u6 -->
<g id="node6" class="node">
<title>u6</title>
<ellipse fill="#ffffbb" stroke="black" cx="572.04" cy="-443" rx="114.28" ry="18"/>
<text text-anchor="middle" x="572.04" y="-439.3" font-family="Times,serif" font-size="14.00">Utils.Drasil.Document</text>
</g>
<!-- u0&#45;&gt;u6 -->
<g id="edge2" class="edge">
<title>u0&#45;&gt;u6</title>
<path fill="none" stroke="black" d="M466.76,-562.45C487.6,-538.99 525.89,-495.92 550.1,-468.68"/>
<polygon fill="black" stroke="black" points="552.8,-470.91 556.83,-461.11 547.57,-466.26 552.8,-470.91"/>
</g>
<!-- u1 -->
<g id="node11" class="node">
<title>u1</title>
<ellipse fill="#ffffbb" stroke="black" cx="793.04" cy="-443" rx="89.08" ry="18"/>
<text text-anchor="middle" x="793.04" y="-439.3" font-family="Times,serif" font-size="14.00">Utils.Drasil.Lists</text>
</g>
<!-- u0&#45;&gt;u1 -->
<g id="edge1" class="edge">
<title>u0&#45;&gt;u1</title>
<path fill="none" stroke="black" d="M487.57,-564.93C549.15,-540.55 675.77,-490.43 745.08,-462.99"/>
<polygon fill="black" stroke="black" points="746.46,-466.2 754.47,-459.27 743.89,-459.7 746.46,-466.2"/>
</g>
<!-- u9 -->
<g id="node3" class="node">
<title>u9</title>
<ellipse fill="#ffffbb" stroke="black" cx="560.04" cy="-171" rx="124.28" ry="18"/>
<text text-anchor="middle" x="560.04" y="-167.3" font-family="Times,serif" font-size="14.00">Utils.Drasil.NounPhrase</text>
</g>
<!-- u5 -->
<g id="node7" class="node">
<title>u5</title>
<ellipse fill="#ffffbb" stroke="black" cx="560.04" cy="-34" rx="109.68" ry="18"/>
<text text-anchor="middle" x="560.04" y="-30.3" font-family="Times,serif" font-size="14.00">Utils.Drasil.Sentence</text>
</g>
<!-- u9&#45;&gt;u5 -->
<g id="edge10" class="edge">
<title>u9&#45;&gt;u5</title>
<path fill="none" stroke="black" d="M560.04,-152.9C560.04,-130.1 560.04,-89.48 560.04,-62.39"/>
<polygon fill="black" stroke="black" points="563.54,-62.39 560.04,-52.39 556.54,-62.39 563.54,-62.39"/>
</g>
<!-- u8 -->
<g id="node4" class="node">
<title>u8</title>
<ellipse fill="#ffffbb" stroke="black" cx="331.04" cy="-171" rx="87.18" ry="18"/>
<text text-anchor="middle" x="331.04" y="-167.3" font-family="Times,serif" font-size="14.00">Utils.Drasil.Fold</text>
</g>
<!-- u8&#45;&gt;u5 -->
<g id="edge9" class="edge">
<title>u8&#45;&gt;u5</title>
<path fill="none" stroke="black" d="M358.66,-153.72C399.82,-129.46 477.29,-83.78 523.22,-56.71"/>
<polygon fill="black" stroke="black" points="525.12,-59.65 531.96,-51.55 521.57,-53.62 525.12,-59.65"/>
</g>
<!-- u3 -->
<g id="node9" class="node">
<title>u3</title>
<ellipse fill="#ffffbb" stroke="black" cx="331.04" cy="-307" rx="89.08" ry="18"/>
<text text-anchor="middle" x="331.04" y="-303.3" font-family="Times,serif" font-size="14.00">Utils.Drasil.Misc</text>
</g>
<!-- u7&#45;&gt;u3 -->
<g id="edge8" class="edge">
<title>u7&#45;&gt;u3</title>
<path fill="none" stroke="black" d="M331.04,-424.76C331.04,-402.14 331.04,-362.2 331.04,-335.42"/>
<polygon fill="black" stroke="black" points="334.54,-335.18 331.04,-325.18 327.54,-335.18 334.54,-335.18"/>
</g>
<!-- u4 -->
<g id="node8" class="node">
<title>u4</title>
<ellipse fill="#ffffbb" stroke="black" cx="812.04" cy="-171" rx="109.68" ry="18"/>
<text text-anchor="middle" x="812.04" y="-167.3" font-family="Times,serif" font-size="14.00">Utils.Drasil.Concepts</text>
</g>
<!-- u4&#45;&gt;u5 -->
<g id="edge7" class="edge">
<title>u4&#45;&gt;u5</title>
<path fill="none" stroke="black" d="M781.14,-153.45C735.49,-128.99 650,-83.19 599.75,-56.28"/>
<polygon fill="black" stroke="black" points="601.27,-53.11 590.8,-51.48 597.96,-59.29 601.27,-53.11"/>
</g>
<!-- u3&#45;&gt;u8 -->
<g id="edge6" class="edge">
<title>u3&#45;&gt;u8</title>
<path fill="none" stroke="black" d="M331.04,-288.76C331.04,-266.14 331.04,-226.2 331.04,-199.42"/>
<polygon fill="black" stroke="black" points="334.54,-199.18 331.04,-189.18 327.54,-199.18 334.54,-199.18"/>
</g>
<!-- u2 -->
<g id="node10" class="node">
<title>u2</title>
<ellipse fill="#ffffbb" stroke="black" cx="793.04" cy="-580" rx="100.98" ry="18"/>
<text text-anchor="middle" x="793.04" y="-576.3" font-family="Times,serif" font-size="14.00">Utils.Drasil.Strings</text>
</g>
<!-- u2&#45;&gt;u1 -->
<g id="edge5" class="edge">
<title>u2&#45;&gt;u1</title>
<path fill="none" stroke="black" d="M793.04,-561.9C793.04,-539.1 793.04,-498.48 793.04,-471.39"/>
<polygon fill="black" stroke="black" points="796.54,-471.39 793.04,-461.39 789.54,-471.39 796.54,-471.39"/>
</g>
</g>
</svg>
