<?xml version="1.0" encoding="UTF-8" standalone="no"?>
<!DOCTYPE svg PUBLIC "-//W3C//DTD SVG 1.1//EN"
 "http://www.w3.org/Graphics/SVG/1.1/DTD/svg11.dtd">
<!-- Generated by graphviz version 2.43.0 (0)
 -->
<!-- Title: G Pages: 1 -->
<svg width="432pt" height="287pt"
 viewBox="0.00 0.00 432.00 286.99" xmlns="http://www.w3.org/2000/svg" xmlns:xlink="http://www.w3.org/1999/xlink">
<g id="graph0" class="graph" transform="scale(0.18 0.18) rotate(0) translate(4 1627.33)">
<title>G</title>
<polygon fill="white" stroke="transparent" points="-4,4 -4,-1627.33 2451.65,-1627.33 2451.65,4 -4,4"/>
<!-- u18 -->
<g id="node1" class="node">
<title>u18</title>
<ellipse fill="#bbffbb" stroke="black" cx="1561.83" cy="-1588" rx="128.08" ry="18"/>
<text text-anchor="middle" x="1561.83" y="-1584.3" font-family="Times,serif" font-size="14.00">Language.Drasil.Printers</text>
</g>
<!-- u23 -->
<g id="node4" class="node">
<title>u23</title>
<ellipse fill="#ffffbb" stroke="black" cx="1087.83" cy="-1447" rx="135.68" ry="18"/>
<text text-anchor="middle" x="1087.83" y="-1443.3" font-family="Times,serif" font-size="14.00">Language.Drasil.DOT.Print</text>
</g>
<!-- u18&#45;&gt;u23 -->
<g id="edge27" class="edge">
<title>u18&#45;&gt;u23</title>
<path fill="none" stroke="black" d="M1508.84,-1571.46C1420.88,-1545.66 1245.1,-1494.12 1150.9,-1466.49"/>
<polygon fill="black" stroke="black" points="1151.79,-1463.11 1141.21,-1463.65 1149.82,-1469.83 1151.79,-1463.11"/>
</g>
<!-- u17 -->
<g id="node5" class="node">
<title>u17</title>
<ellipse fill="#bbbbff" stroke="black" cx="1387.83" cy="-1447" rx="146.47" ry="18"/>
<text text-anchor="middle" x="1387.83" y="-1443.3" font-family="Times,serif" font-size="14.00">Language.Drasil.Debug.Print</text>
</g>
<!-- u18&#45;&gt;u17 -->
<g id="edge24" class="edge">
<title>u18&#45;&gt;u17</title>
<path fill="none" stroke="black" d="M1540.84,-1570.23C1509.88,-1545.5 1451.86,-1499.15 1416.85,-1471.18"/>
<polygon fill="black" stroke="black" points="1418.89,-1468.33 1408.9,-1464.83 1414.52,-1473.8 1418.89,-1468.33"/>
</g>
<!-- u29 -->
<g id="node10" class="node">
<title>u29</title>
<ellipse fill="#bbffff" stroke="black" cx="1797.83" cy="-1306" rx="140.28" ry="18"/>
<text text-anchor="middle" x="1797.83" y="-1302.3" font-family="Times,serif" font-size="14.00">Language.Drasil.JSON.Print</text>
</g>
<!-- u18&#45;&gt;u29 -->
<g id="edge28" class="edge">
<title>u18&#45;&gt;u29</title>
<path fill="none" stroke="black" d="M1576.24,-1569.91C1616.4,-1522.26 1729.72,-1387.82 1776.86,-1331.89"/>
<polygon fill="black" stroke="black" points="1779.55,-1334.13 1783.31,-1324.23 1774.19,-1329.62 1779.55,-1334.13"/>
</g>
<!-- u20 -->
<g id="node14" class="node">
<title>u20</title>
<ellipse fill="#ffbbff" stroke="black" cx="1494.83" cy="-1165" rx="188.47" ry="18"/>
<text text-anchor="middle" x="1494.83" y="-1161.3" font-family="Times,serif" font-size="14.00">Language.Drasil.Markdown.CreateMd</text>
</g>
<!-- u18&#45;&gt;u20 -->
<g id="edge26" class="edge">
<title>u18&#45;&gt;u20</title>
<path fill="none" stroke="black" d="M1560.12,-1569.89C1557.14,-1540.84 1550.56,-1480.08 1542.83,-1429 1529.73,-1342.39 1509.86,-1240.54 1500.32,-1193"/>
<polygon fill="black" stroke="black" points="1503.75,-1192.28 1498.34,-1183.17 1496.89,-1193.67 1503.75,-1192.28"/>
</g>
<!-- u19 -->
<g id="node15" class="node">
<title>u19</title>
<ellipse fill="#ffbbff" stroke="black" cx="2073.83" cy="-1447" rx="171.67" ry="18"/>
<text text-anchor="middle" x="2073.83" y="-1443.3" font-family="Times,serif" font-size="14.00">Language.Drasil.Markdown.Config</text>
</g>
<!-- u18&#45;&gt;u19 -->
<g id="edge25" class="edge">
<title>u18&#45;&gt;u19</title>
<path fill="none" stroke="black" d="M1618.09,-1571.73C1712.62,-1546.06 1902.98,-1494.38 2005.21,-1466.63"/>
<polygon fill="black" stroke="black" points="2006.39,-1469.94 2015.12,-1463.94 2004.56,-1463.18 2006.39,-1469.94"/>
</g>
<!-- u16 -->
<g id="node2" class="node">
<title>u16</title>
<ellipse fill="#bbffbb" stroke="black" cx="1891.83" cy="-1165" rx="123.48" ry="18"/>
<text text-anchor="middle" x="1891.83" y="-1161.3" font-family="Times,serif" font-size="14.00">Language.Drasil.Format</text>
</g>
<!-- u15 -->
<g id="node3" class="node">
<title>u15</title>
<ellipse fill="#bbffbb" stroke="black" cx="1867.83" cy="-600" rx="119.68" ry="18"/>
<text text-anchor="middle" x="1867.83" y="-596.3" font-family="Times,serif" font-size="14.00">Language.Drasil.Config</text>
</g>
<!-- u30 -->
<g id="node16" class="node">
<title>u30</title>
<ellipse fill="#77ff77" stroke="black" cx="1336.83" cy="-1306" rx="139.98" ry="18"/>
<text text-anchor="middle" x="1336.83" y="-1302.3" font-family="Times,serif" font-size="14.00">Language.Drasil.Plain.Print</text>
</g>
<!-- u17&#45;&gt;u30 -->
<g id="edge23" class="edge">
<title>u17&#45;&gt;u30</title>
<path fill="none" stroke="black" d="M1381.58,-1428.96C1372.86,-1405.2 1356.97,-1361.88 1346.66,-1333.78"/>
<polygon fill="black" stroke="black" points="1349.87,-1332.37 1343.14,-1324.18 1343.3,-1334.78 1349.87,-1332.37"/>
</g>
<!-- u27 -->
<g id="node6" class="node">
<title>u27</title>
<ellipse fill="#ffbbbb" stroke="black" cx="2177.83" cy="-1165" rx="144.87" ry="18"/>
<text text-anchor="middle" x="2177.83" y="-1161.3" font-family="Times,serif" font-size="14.00">Language.Drasil.HTML.Print</text>
</g>
<!-- u26 -->
<g id="node7" class="node">
<title>u26</title>
<ellipse fill="#ffbbbb" stroke="black" cx="1908.83" cy="-1023" rx="140.28" ry="18"/>
<text text-anchor="middle" x="1908.83" y="-1019.3" font-family="Times,serif" font-size="14.00">Language.Drasil.HTML.CSS</text>
</g>
<!-- u27&#45;&gt;u26 -->
<g id="edge39" class="edge">
<title>u27&#45;&gt;u26</title>
<path fill="none" stroke="black" d="M2145.92,-1147.39C2096.98,-1121.92 2003.42,-1073.23 1949.63,-1045.23"/>
<polygon fill="black" stroke="black" points="1951.19,-1042.1 1940.71,-1040.59 1947.96,-1048.31 1951.19,-1042.1"/>
</g>
<!-- u25 -->
<g id="node8" class="node">
<title>u25</title>
<ellipse fill="#ffbbbb" stroke="black" cx="2271.83" cy="-600" rx="157.87" ry="18"/>
<text text-anchor="middle" x="2271.83" y="-596.3" font-family="Times,serif" font-size="14.00">Language.Drasil.HTML.Helpers</text>
</g>
<!-- u27&#45;&gt;u25 -->
<g id="edge38" class="edge">
<title>u27&#45;&gt;u25</title>
<path fill="none" stroke="black" d="M2226.38,-1147.86C2273.75,-1129.53 2344.16,-1094.98 2382.83,-1041 2457.52,-936.76 2430.2,-886.51 2443.83,-759 2445.53,-743.09 2451.18,-737.21 2443.83,-723 2418.81,-674.57 2364.71,-641.2 2323.82,-621.76"/>
<polygon fill="black" stroke="black" points="2325.07,-618.49 2314.52,-617.47 2322.13,-624.84 2325.07,-618.49"/>
</g>
<!-- u24 -->
<g id="node9" class="node">
<title>u24</title>
<ellipse fill="#ffbbbb" stroke="black" cx="2220.83" cy="-1023" rx="153.27" ry="18"/>
<text text-anchor="middle" x="2220.83" y="-1019.3" font-family="Times,serif" font-size="14.00">Language.Drasil.HTML.Monad</text>
</g>
<!-- u27&#45;&gt;u24 -->
<g id="edge37" class="edge">
<title>u27&#45;&gt;u24</title>
<path fill="none" stroke="black" d="M2183.11,-1146.83C2190.46,-1122.9 2203.86,-1079.28 2212.55,-1050.98"/>
<polygon fill="black" stroke="black" points="2215.93,-1051.89 2215.52,-1041.31 2209.24,-1049.84 2215.93,-1051.89"/>
</g>
<!-- u34 -->
<g id="node32" class="node">
<title>u34</title>
<ellipse fill="#ff7777" stroke="black" cx="1558.83" cy="-1023" rx="133.48" ry="18"/>
<text text-anchor="middle" x="1558.83" y="-1019.3" font-family="Times,serif" font-size="14.00">Language.Drasil.TeX.Print</text>
</g>
<!-- u27&#45;&gt;u34 -->
<g id="edge40" class="edge">
<title>u27&#45;&gt;u34</title>
<path fill="none" stroke="black" d="M2111.3,-1148.95C1995.13,-1122.68 1756.08,-1068.61 1634.07,-1041.02"/>
<polygon fill="black" stroke="black" points="1634.59,-1037.54 1624.06,-1038.75 1633.04,-1044.37 1634.59,-1037.54"/>
</g>
<!-- u5 -->
<g id="node17" class="node">
<title>u5</title>
<ellipse fill="#ffff77" stroke="black" cx="1381.83" cy="-35" rx="149.47" ry="18"/>
<text text-anchor="middle" x="1381.83" y="-31.3" font-family="Times,serif" font-size="14.00">Language.Drasil.Printing.AST</text>
</g>
<!-- u25&#45;&gt;u5 -->
<g id="edge36" class="edge">
<title>u25&#45;&gt;u5</title>
<path fill="none" stroke="black" d="M2245.2,-582.15C2116.86,-500.97 1562.55,-150.32 1416.96,-58.22"/>
<polygon fill="black" stroke="black" points="1418.69,-55.17 1408.37,-52.78 1414.95,-61.09 1418.69,-55.17"/>
</g>
<!-- u29&#45;&gt;u16 -->
<g id="edge43" class="edge">
<title>u29&#45;&gt;u16</title>
<path fill="none" stroke="black" d="M1809.36,-1287.96C1825.64,-1263.88 1855.49,-1219.74 1874.47,-1191.68"/>
<polygon fill="black" stroke="black" points="1877.51,-1193.43 1880.21,-1183.18 1871.71,-1189.51 1877.51,-1193.43"/>
</g>
<!-- u29&#45;&gt;u27 -->
<g id="edge44" class="edge">
<title>u29&#45;&gt;u27</title>
<path fill="none" stroke="black" d="M1842.17,-1288.78C1912.15,-1263.18 2048.02,-1213.48 2123.67,-1185.81"/>
<polygon fill="black" stroke="black" points="2125.3,-1188.94 2133.49,-1182.22 2122.89,-1182.37 2125.3,-1188.94"/>
</g>
<!-- u28 -->
<g id="node11" class="node">
<title>u28</title>
<ellipse fill="#bbffff" stroke="black" cx="2281.83" cy="-741" rx="153.27" ry="18"/>
<text text-anchor="middle" x="2281.83" y="-737.3" font-family="Times,serif" font-size="14.00">Language.Drasil.JSON.Helpers</text>
</g>
<!-- u29&#45;&gt;u28 -->
<g id="edge45" class="edge">
<title>u29&#45;&gt;u28</title>
<path fill="none" stroke="black" d="M1788.64,-1287.82C1764.03,-1239.26 1702.29,-1098.42 1759.83,-1005 1853.68,-852.63 2065.94,-785.38 2188.94,-758.29"/>
<polygon fill="black" stroke="black" points="2189.69,-761.7 2198.73,-756.17 2188.21,-754.86 2189.69,-761.7"/>
</g>
<!-- u28&#45;&gt;u25 -->
<g id="edge42" class="edge">
<title>u28&#45;&gt;u25</title>
<path fill="none" stroke="black" d="M2280.61,-722.96C2278.91,-699.4 2275.84,-656.64 2273.81,-628.53"/>
<polygon fill="black" stroke="black" points="2277.28,-627.91 2273.07,-618.18 2270.3,-628.41 2277.28,-627.91"/>
</g>
<!-- u0 -->
<g id="node22" class="node">
<title>u0</title>
<ellipse fill="#ffff77" stroke="black" cx="1588.83" cy="-459" rx="167.07" ry="18"/>
<text text-anchor="middle" x="1588.83" y="-455.3" font-family="Times,serif" font-size="14.00">Language.Drasil.Printing.Helpers</text>
</g>
<!-- u28&#45;&gt;u0 -->
<g id="edge41" class="edge">
<title>u28&#45;&gt;u0</title>
<path fill="none" stroke="black" d="M2258.03,-722.97C2212.81,-691.29 2110.53,-622.84 2015.83,-582 1901.31,-532.61 1761.02,-496.93 1673.26,-477.35"/>
<polygon fill="black" stroke="black" points="1673.87,-473.9 1663.35,-475.16 1672.36,-480.73 1673.87,-473.9"/>
</g>
<!-- u22 -->
<g id="node12" class="node">
<title>u22</title>
<ellipse fill="#ffbbff" stroke="black" cx="2177.83" cy="-1306" rx="165.17" ry="18"/>
<text text-anchor="middle" x="2177.83" y="-1302.3" font-family="Times,serif" font-size="14.00">Language.Drasil.Markdown.Print</text>
</g>
<!-- u22&#45;&gt;u27 -->
<g id="edge35" class="edge">
<title>u22&#45;&gt;u27</title>
<path fill="none" stroke="black" d="M2177.83,-1287.96C2177.83,-1264.4 2177.83,-1221.64 2177.83,-1193.53"/>
<polygon fill="black" stroke="black" points="2181.33,-1193.18 2177.83,-1183.18 2174.33,-1193.18 2181.33,-1193.18"/>
</g>
<!-- u21 -->
<g id="node13" class="node">
<title>u21</title>
<ellipse fill="#ffbbff" stroke="black" cx="1931.83" cy="-741" rx="178.97" ry="18"/>
<text text-anchor="middle" x="1931.83" y="-737.3" font-family="Times,serif" font-size="14.00">Language.Drasil.Markdown.Helpers</text>
</g>
<!-- u22&#45;&gt;u21 -->
<g id="edge34" class="edge">
<title>u22&#45;&gt;u21</title>
<path fill="none" stroke="black" d="M2205.39,-1288.2C2274.96,-1243.58 2447.64,-1117.82 2382.83,-1005 2301.73,-863.81 2112.37,-791.27 2006.62,-760.55"/>
<polygon fill="black" stroke="black" points="2007.55,-757.18 1996.97,-757.8 2005.62,-763.91 2007.55,-757.18"/>
</g>
<!-- u21&#45;&gt;u25 -->
<g id="edge33" class="edge">
<title>u21&#45;&gt;u25</title>
<path fill="none" stroke="black" d="M1972.51,-723.37C2035,-697.82 2154.49,-648.97 2222.06,-621.35"/>
<polygon fill="black" stroke="black" points="2223.71,-624.46 2231.64,-617.43 2221.06,-617.98 2223.71,-624.46"/>
</g>
<!-- u4 -->
<g id="node18" class="node">
<title>u4</title>
<ellipse fill="#ffff77" stroke="black" cx="1211.83" cy="-600" rx="178.97" ry="18"/>
<text text-anchor="middle" x="1211.83" y="-596.3" font-family="Times,serif" font-size="14.00">Language.Drasil.Printing.LayoutObj</text>
</g>
<!-- u21&#45;&gt;u4 -->
<g id="edge32" class="edge">
<title>u21&#45;&gt;u4</title>
<path fill="none" stroke="black" d="M1853.07,-724.79C1717.84,-698.69 1442.41,-645.51 1300.59,-618.14"/>
<polygon fill="black" stroke="black" points="1301.1,-614.67 1290.62,-616.21 1299.77,-621.54 1301.1,-614.67"/>
</g>
<!-- u21&#45;&gt;u0 -->
<g id="edge31" class="edge">
<title>u21&#45;&gt;u0</title>
<path fill="none" stroke="black" d="M1949.28,-722.92C1978.39,-692.34 2030.49,-627.2 1996.83,-582 1959.95,-532.48 1797.5,-495.64 1689.05,-476.02"/>
<polygon fill="black" stroke="black" points="1689.51,-472.55 1679.05,-474.23 1688.28,-479.44 1689.51,-472.55"/>
</g>
<!-- u20&#45;&gt;u0 -->
<g id="edge30" class="edge">
<title>u20&#45;&gt;u0</title>
<path fill="none" stroke="black" d="M1480.68,-1146.92C1462.7,-1124.24 1432.19,-1082.23 1416.83,-1041 1389.19,-966.76 1389.98,-943 1395.83,-864 1405.19,-737.63 1374.92,-692 1437.83,-582 1463.25,-537.55 1511.68,-502.89 1546.86,-482.06"/>
<polygon fill="black" stroke="black" points="1549.04,-484.84 1555.95,-476.81 1545.54,-478.78 1549.04,-484.84"/>
</g>
<!-- u19&#45;&gt;u22 -->
<g id="edge29" class="edge">
<title>u19&#45;&gt;u22</title>
<path fill="none" stroke="black" d="M2086.59,-1428.96C2104.67,-1404.78 2137.91,-1360.35 2158.89,-1332.32"/>
<polygon fill="black" stroke="black" points="2161.79,-1334.29 2164.98,-1324.18 2156.18,-1330.09 2161.79,-1334.29"/>
</g>
<!-- u2 -->
<g id="node20" class="node">
<title>u2</title>
<ellipse fill="#ffff77" stroke="black" cx="996.83" cy="-882" rx="162.47" ry="18"/>
<text text-anchor="middle" x="996.83" y="-878.3" font-family="Times,serif" font-size="14.00">Language.Drasil.Printing.Import</text>
</g>
<!-- u30&#45;&gt;u2 -->
<g id="edge46" class="edge">
<title>u30&#45;&gt;u2</title>
<path fill="none" stroke="black" d="M1323.08,-1287.93C1270.22,-1222.32 1079.9,-986.1 1017.1,-908.15"/>
<polygon fill="black" stroke="black" points="1019.75,-905.87 1010.75,-900.28 1014.3,-910.26 1019.75,-905.87"/>
</g>
<!-- u3 -->
<g id="node19" class="node">
<title>u3</title>
<ellipse fill="#ffff77" stroke="black" cx="1508.83" cy="-318" rx="167.87" ry="18"/>
<text text-anchor="middle" x="1508.83" y="-314.3" font-family="Times,serif" font-size="14.00">Language.Drasil.Printing.Citation</text>
</g>
<!-- u4&#45;&gt;u3 -->
<g id="edge5" class="edge">
<title>u4&#45;&gt;u3</title>
<path fill="none" stroke="black" d="M1229.96,-581.91C1280.71,-534.07 1424.28,-398.71 1483.16,-343.2"/>
<polygon fill="black" stroke="black" points="1485.69,-345.63 1490.56,-336.23 1480.88,-340.54 1485.69,-345.63"/>
</g>
<!-- u3&#45;&gt;u5 -->
<g id="edge4" class="edge">
<title>u3&#45;&gt;u5</title>
<path fill="none" stroke="black" d="M1501.08,-299.85C1479.69,-252.52 1419.73,-119.86 1393.91,-62.73"/>
<polygon fill="black" stroke="black" points="1396.95,-60.96 1389.65,-53.29 1390.58,-63.84 1396.95,-60.96"/>
</g>
<!-- u14 -->
<g id="node23" class="node">
<title>u14</title>
<ellipse fill="#7777ff" stroke="black" cx="187.83" cy="-459" rx="187.67" ry="18"/>
<text text-anchor="middle" x="187.83" y="-455.3" font-family="Times,serif" font-size="14.00">Language.Drasil.Printing.Import.Expr</text>
</g>
<!-- u2&#45;&gt;u14 -->
<g id="edge3" class="edge">
<title>u2&#45;&gt;u14</title>
<path fill="none" stroke="black" d="M946.8,-864.85C883.32,-843.66 771.13,-803.86 679.83,-759 498.87,-670.08 297.6,-535.64 220.4,-482.63"/>
<polygon fill="black" stroke="black" points="222.25,-479.66 212.03,-476.87 218.28,-485.42 222.25,-479.66"/>
</g>
<!-- u8 -->
<g id="node29" class="node">
<title>u8</title>
<ellipse fill="#7777ff" stroke="black" cx="901.83" cy="-741" rx="212.56" ry="18"/>
<text text-anchor="middle" x="901.83" y="-737.3" font-family="Times,serif" font-size="14.00">Language.Drasil.Printing.Import.Document</text>
</g>
<!-- u2&#45;&gt;u8 -->
<g id="edge2" class="edge">
<title>u2&#45;&gt;u8</title>
<path fill="none" stroke="black" d="M985.18,-863.96C968.73,-839.88 938.56,-795.74 919.39,-767.68"/>
<polygon fill="black" stroke="black" points="922.11,-765.46 913.58,-759.18 916.33,-769.41 922.11,-765.46"/>
</g>
<!-- u1 -->
<g id="node21" class="node">
<title>u1</title>
<ellipse fill="#ffff77" stroke="black" cx="1129.83" cy="-176" rx="223.66" ry="18"/>
<text text-anchor="middle" x="1129.83" y="-172.3" font-family="Times,serif" font-size="14.00">Language.Drasil.Printing.PrintingInformation</text>
</g>
<!-- u0&#45;&gt;u3 -->
<g id="edge1" class="edge">
<title>u0&#45;&gt;u3</title>
<path fill="none" stroke="black" d="M1579.02,-440.96C1565.23,-416.99 1539.98,-373.12 1523.82,-345.05"/>
<polygon fill="black" stroke="black" points="1526.74,-343.1 1518.72,-336.18 1520.68,-346.6 1526.74,-343.1"/>
</g>
<!-- u10 -->
<g id="node27" class="node">
<title>u10</title>
<ellipse fill="#7777ff" stroke="black" cx="308.83" cy="-318" rx="200.36" ry="18"/>
<text text-anchor="middle" x="308.83" y="-314.3" font-family="Times,serif" font-size="14.00">Language.Drasil.Printing.Import.Symbol</text>
</g>
<!-- u14&#45;&gt;u10 -->
<g id="edge22" class="edge">
<title>u14&#45;&gt;u10</title>
<path fill="none" stroke="black" d="M202.67,-440.96C223.81,-416.67 262.72,-371.97 287.11,-343.96"/>
<polygon fill="black" stroke="black" points="289.95,-346.02 293.87,-336.18 284.67,-341.43 289.95,-346.02"/>
</g>
<!-- u7 -->
<g id="node30" class="node">
<title>u7</title>
<ellipse fill="#7777ff" stroke="black" cx="722.83" cy="-318" rx="196.07" ry="18"/>
<text text-anchor="middle" x="722.83" y="-314.3" font-family="Times,serif" font-size="14.00">Language.Drasil.Printing.Import.Literal</text>
</g>
<!-- u14&#45;&gt;u7 -->
<g id="edge21" class="edge">
<title>u14&#45;&gt;u7</title>
<path fill="none" stroke="black" d="M249.47,-441.99C349.02,-416.12 544.72,-365.28 650.64,-337.76"/>
<polygon fill="black" stroke="black" points="651.8,-341.07 660.6,-335.17 650.04,-334.3 651.8,-341.07"/>
</g>
<!-- u13 -->
<g id="node24" class="node">
<title>u13</title>
<ellipse fill="#7777ff" stroke="black" cx="685.83" cy="-176" rx="202.26" ry="18"/>
<text text-anchor="middle" x="685.83" y="-172.3" font-family="Times,serif" font-size="14.00">Language.Drasil.Printing.Import.Helpers</text>
</g>
<!-- u13&#45;&gt;u5 -->
<g id="edge20" class="edge">
<title>u13&#45;&gt;u5</title>
<path fill="none" stroke="black" d="M763.98,-159.39C896.15,-133 1162.65,-79.77 1298.35,-52.67"/>
<polygon fill="black" stroke="black" points="1299.16,-56.08 1308.28,-50.69 1297.79,-49.22 1299.16,-56.08"/>
</g>
<!-- u12 -->
<g id="node25" class="node">
<title>u12</title>
<ellipse fill="#7777ff" stroke="black" cx="604.83" cy="-459" rx="211.46" ry="18"/>
<text text-anchor="middle" x="604.83" y="-455.3" font-family="Times,serif" font-size="14.00">Language.Drasil.Printing.Import.CodeExpr</text>
</g>
<!-- u12&#45;&gt;u10 -->
<g id="edge19" class="edge">
<title>u12&#45;&gt;u10</title>
<path fill="none" stroke="black" d="M569.13,-441.23C515.13,-415.87 412.73,-367.79 353.74,-340.09"/>
<polygon fill="black" stroke="black" points="355.2,-336.91 344.66,-335.83 352.23,-343.24 355.2,-336.91"/>
</g>
<!-- u12&#45;&gt;u7 -->
<g id="edge18" class="edge">
<title>u12&#45;&gt;u7</title>
<path fill="none" stroke="black" d="M619.3,-440.96C639.92,-416.67 677.86,-371.97 701.65,-343.96"/>
<polygon fill="black" stroke="black" points="704.44,-346.07 708.25,-336.18 699.11,-341.54 704.44,-346.07"/>
</g>
<!-- u11 -->
<g id="node26" class="node">
<title>u11</title>
<ellipse fill="#7777ff" stroke="black" cx="1050.83" cy="-459" rx="216.36" ry="18"/>
<text text-anchor="middle" x="1050.83" y="-455.3" font-family="Times,serif" font-size="14.00">Language.Drasil.Printing.Import.ModelExpr</text>
</g>
<!-- u11&#45;&gt;u10 -->
<g id="edge17" class="edge">
<title>u11&#45;&gt;u10</title>
<path fill="none" stroke="black" d="M967.16,-442.33C827.34,-416.13 547.25,-363.66 401.6,-336.38"/>
<polygon fill="black" stroke="black" points="401.83,-332.86 391.35,-334.46 400.54,-339.74 401.83,-332.86"/>
</g>
<!-- u11&#45;&gt;u7 -->
<g id="edge16" class="edge">
<title>u11&#45;&gt;u7</title>
<path fill="none" stroke="black" d="M1011.27,-441.23C951.1,-415.73 836.72,-367.26 771.53,-339.64"/>
<polygon fill="black" stroke="black" points="772.86,-336.4 762.28,-335.72 770.12,-342.84 772.86,-336.4"/>
</g>
<!-- u6 -->
<g id="node31" class="node">
<title>u6</title>
<ellipse fill="#7777ff" stroke="black" cx="1129.83" cy="-318" rx="193.07" ry="18"/>
<text text-anchor="middle" x="1129.83" y="-314.3" font-family="Times,serif" font-size="14.00">Language.Drasil.Printing.Import.Space</text>
</g>
<!-- u11&#45;&gt;u6 -->
<g id="edge15" class="edge">
<title>u11&#45;&gt;u6</title>
<path fill="none" stroke="black" d="M1060.52,-440.96C1074.14,-416.99 1099.07,-373.12 1115.03,-345.05"/>
<polygon fill="black" stroke="black" points="1118.17,-346.61 1120.07,-336.18 1112.08,-343.15 1118.17,-346.61"/>
</g>
<!-- u10&#45;&gt;u5 -->
<g id="edge14" class="edge">
<title>u10&#45;&gt;u5</title>
<path fill="none" stroke="black" d="M320.67,-299.97C345.1,-266.34 404.72,-191.76 474.83,-158 607.01,-94.35 1020.43,-59.05 1240.58,-44.31"/>
<polygon fill="black" stroke="black" points="1240.85,-47.8 1250.59,-43.65 1240.38,-40.82 1240.85,-47.8"/>
</g>
<!-- u9 -->
<g id="node28" class="node">
<title>u9</title>
<ellipse fill="#7777ff" stroke="black" cx="806.83" cy="-600" rx="207.96" ry="18"/>
<text text-anchor="middle" x="806.83" y="-596.3" font-family="Times,serif" font-size="14.00">Language.Drasil.Printing.Import.Sentence</text>
</g>
<!-- u9&#45;&gt;u11 -->
<g id="edge13" class="edge">
<title>u9&#45;&gt;u11</title>
<path fill="none" stroke="black" d="M836.75,-581.96C880.87,-556.83 963.38,-509.82 1012.08,-482.08"/>
<polygon fill="black" stroke="black" points="1014.09,-484.96 1021.05,-476.97 1010.63,-478.87 1014.09,-484.96"/>
</g>
<!-- u8&#45;&gt;u4 -->
<g id="edge10" class="edge">
<title>u8&#45;&gt;u4</title>
<path fill="none" stroke="black" d="M939.23,-723.23C995.94,-697.81 1103.6,-649.53 1165.3,-621.87"/>
<polygon fill="black" stroke="black" points="1167.1,-624.89 1174.79,-617.61 1164.23,-618.51 1167.1,-624.89"/>
</g>
<!-- u8&#45;&gt;u12 -->
<g id="edge12" class="edge">
<title>u8&#45;&gt;u12</title>
<path fill="none" stroke="black" d="M781.65,-726.07C713.18,-711.28 632.71,-680.8 589.83,-618 563.08,-578.82 579.1,-520.86 592.46,-487.12"/>
<polygon fill="black" stroke="black" points="595.86,-488.05 596.47,-477.47 589.4,-485.36 595.86,-488.05"/>
</g>
<!-- u8&#45;&gt;u9 -->
<g id="edge11" class="edge">
<title>u8&#45;&gt;u9</title>
<path fill="none" stroke="black" d="M890.18,-722.96C873.73,-698.88 843.56,-654.74 824.39,-626.68"/>
<polygon fill="black" stroke="black" points="827.11,-624.46 818.58,-618.18 821.33,-628.41 827.11,-624.46"/>
</g>
<!-- u7&#45;&gt;u1 -->
<g id="edge8" class="edge">
<title>u7&#45;&gt;u1</title>
<path fill="none" stroke="black" d="M770.72,-300.53C845.83,-274.69 991.11,-224.72 1071.97,-196.9"/>
<polygon fill="black" stroke="black" points="1073.18,-200.19 1081.5,-193.63 1070.9,-193.57 1073.18,-200.19"/>
</g>
<!-- u7&#45;&gt;u13 -->
<g id="edge9" class="edge">
<title>u7&#45;&gt;u13</title>
<path fill="none" stroke="black" d="M718.3,-299.83C711.97,-275.9 700.44,-232.28 692.96,-203.98"/>
<polygon fill="black" stroke="black" points="696.35,-203.08 690.41,-194.31 689.58,-204.87 696.35,-203.08"/>
</g>
<!-- u6&#45;&gt;u5 -->
<g id="edge7" class="edge">
<title>u6&#45;&gt;u5</title>
<path fill="none" stroke="black" d="M1194.45,-300.96C1248.68,-283.91 1323.44,-251.29 1362.83,-194 1389.67,-154.97 1389.08,-97.35 1385.77,-63.55"/>
<polygon fill="black" stroke="black" points="1389.23,-63.01 1384.63,-53.47 1382.27,-63.8 1389.23,-63.01"/>
</g>
<!-- u6&#45;&gt;u1 -->
<g id="edge6" class="edge">
<title>u6&#45;&gt;u1</title>
<path fill="none" stroke="black" d="M1129.83,-299.83C1129.83,-276.01 1129.83,-232.66 1129.83,-204.35"/>
<polygon fill="black" stroke="black" points="1133.33,-204.31 1129.83,-194.31 1126.33,-204.31 1133.33,-204.31"/>
</g>
<!-- u34&#45;&gt;u2 -->
<g id="edge52" class="edge">
<title>u34&#45;&gt;u2</title>
<path fill="none" stroke="black" d="M1497.89,-1006.93C1393.76,-981.17 1182.03,-928.8 1070.05,-901.11"/>
<polygon fill="black" stroke="black" points="1070.74,-897.67 1060.19,-898.67 1069.06,-904.47 1070.74,-897.67"/>
</g>
<!-- u31 -->
<g id="node35" class="node">
<title>u31</title>
<ellipse fill="#ff7777" stroke="black" cx="1558.83" cy="-882" rx="154.07" ry="18"/>
<text text-anchor="middle" x="1558.83" y="-878.3" font-family="Times,serif" font-size="14.00">Language.Drasil.TeX.Preamble</text>
</g>
<!-- u34&#45;&gt;u31 -->
<g id="edge53" class="edge">
<title>u34&#45;&gt;u31</title>
<path fill="none" stroke="black" d="M1558.83,-1004.96C1558.83,-981.4 1558.83,-938.64 1558.83,-910.53"/>
<polygon fill="black" stroke="black" points="1562.33,-910.18 1558.83,-900.18 1555.33,-910.18 1562.33,-910.18"/>
</g>
<!-- u33 -->
<g id="node33" class="node">
<title>u33</title>
<ellipse fill="#ff7777" stroke="black" cx="1588.83" cy="-741" rx="146.47" ry="18"/>
<text text-anchor="middle" x="1588.83" y="-737.3" font-family="Times,serif" font-size="14.00">Language.Drasil.TeX.Helpers</text>
</g>
<!-- u33&#45;&gt;u15 -->
<g id="edge50" class="edge">
<title>u33&#45;&gt;u15</title>
<path fill="none" stroke="black" d="M1622.21,-723.37C1673.07,-698.03 1769.94,-649.77 1825.62,-622.03"/>
<polygon fill="black" stroke="black" points="1827.46,-625.02 1834.85,-617.43 1824.34,-618.76 1827.46,-625.02"/>
</g>
<!-- u32 -->
<g id="node34" class="node">
<title>u32</title>
<ellipse fill="#ff7777" stroke="black" cx="1588.83" cy="-600" rx="141.88" ry="18"/>
<text text-anchor="middle" x="1588.83" y="-596.3" font-family="Times,serif" font-size="14.00">Language.Drasil.TeX.Monad</text>
</g>
<!-- u33&#45;&gt;u32 -->
<g id="edge51" class="edge">
<title>u33&#45;&gt;u32</title>
<path fill="none" stroke="black" d="M1588.83,-722.96C1588.83,-699.4 1588.83,-656.64 1588.83,-628.53"/>
<polygon fill="black" stroke="black" points="1592.33,-628.18 1588.83,-618.18 1585.33,-628.18 1592.33,-628.18"/>
</g>
<!-- u32&#45;&gt;u0 -->
<g id="edge49" class="edge">
<title>u32&#45;&gt;u0</title>
<path fill="none" stroke="black" d="M1588.83,-581.96C1588.83,-558.4 1588.83,-515.64 1588.83,-487.53"/>
<polygon fill="black" stroke="black" points="1592.33,-487.18 1588.83,-477.18 1585.33,-487.18 1592.33,-487.18"/>
</g>
<!-- u31&#45;&gt;u4 -->
<g id="edge47" class="edge">
<title>u31&#45;&gt;u4</title>
<path fill="none" stroke="black" d="M1537.91,-864.12C1478.49,-816.17 1308.65,-679.12 1240.57,-624.19"/>
<polygon fill="black" stroke="black" points="1242.77,-621.46 1232.79,-617.91 1238.37,-626.91 1242.77,-621.46"/>
</g>
<!-- u31&#45;&gt;u33 -->
<g id="edge48" class="edge">
<title>u31&#45;&gt;u33</title>
<path fill="none" stroke="black" d="M1562.51,-863.96C1567.62,-840.3 1576.91,-797.26 1582.97,-769.15"/>
<polygon fill="black" stroke="black" points="1586.44,-769.7 1585.12,-759.18 1579.59,-768.22 1586.44,-769.7"/>
</g>
</g>
</svg>
