<?xml version="1.0" encoding="UTF-8" standalone="no"?>
<!DOCTYPE svg PUBLIC "-//W3C//DTD SVG 1.1//EN"
 "http://www.w3.org/Graphics/SVG/1.1/DTD/svg11.dtd">
<!-- Generated by graphviz version 2.43.0 (0)
 -->
<!-- Title: G Pages: 1 -->
<svg width="432pt" height="287pt"
 viewBox="0.00 0.00 432.00 286.65" xmlns="http://www.w3.org/2000/svg" xmlns:xlink="http://www.w3.org/1999/xlink">
<g id="graph0" class="graph" transform="scale(12.34 12.34) rotate(0) translate(4 3533.33)">
<title>G</title>
<polygon fill="white" stroke="transparent" points="-4,4 -4,-3533.33 5326.99,-3533.33 5326.99,4 -4,4"/>
<!-- u5 -->
<g id="node1" class="node">
<title>u5</title>
<ellipse fill="#bbffbb" stroke="black" cx="342.99" cy="-3225" rx="52.79" ry="18"/>
<text text-anchor="middle" x="342.99" y="-3221.3" font-family="Times,serif" font-size="14.00">FileTests</text>
</g>
<!-- u4 -->
<g id="node2" class="node">
<title>u4</title>
<ellipse fill="#bbffbb" stroke="black" cx="276.99" cy="-3468" rx="34.39" ry="18"/>
<text text-anchor="middle" x="276.99" y="-3464.3" font-family="Times,serif" font-size="14.00">Main</text>
</g>
<!-- u4&#45;&gt;u5 -->
<g id="edge5" class="edge">
<title>u4&#45;&gt;u5</title>
<path fill="none" stroke="black" d="M281.64,-3450.05C292.92,-3408.84 321.88,-3303.1 335.59,-3253.04"/>
<polygon fill="black" stroke="black" points="339,-3253.82 338.27,-3243.25 332.25,-3251.97 339,-3253.82"/>
</g>
<!-- u3 -->
<g id="node3" class="node">
<title>u3</title>
<ellipse fill="#bbffbb" stroke="black" cx="64.99" cy="-3225" rx="64.99" ry="18"/>
<text text-anchor="middle" x="64.99" y="-3221.3" font-family="Times,serif" font-size="14.00">PatternTest</text>
</g>
<!-- u4&#45;&gt;u3 -->
<g id="edge4" class="edge">
<title>u4&#45;&gt;u3</title>
<path fill="none" stroke="black" d="M263.08,-3451.19C226.96,-3410.12 129.96,-3299.85 86.53,-3250.48"/>
<polygon fill="black" stroke="black" points="89.03,-3248.02 79.8,-3242.83 83.77,-3252.65 89.03,-3248.02"/>
</g>
<!-- u0 -->
<g id="node6" class="node">
<title>u0</title>
<ellipse fill="#bbffbb" stroke="black" cx="209.99" cy="-3225" rx="62.29" ry="18"/>
<text text-anchor="middle" x="209.99" y="-3221.3" font-family="Times,serif" font-size="14.00">HelloWorld</text>
</g>
<!-- u4&#45;&gt;u0 -->
<g id="edge3" class="edge">
<title>u4&#45;&gt;u0</title>
<path fill="none" stroke="black" d="M272.28,-3450.05C260.83,-3408.84 231.43,-3303.1 217.51,-3253.04"/>
<polygon fill="black" stroke="black" points="220.84,-3251.95 214.79,-3243.25 214.1,-3253.82 220.84,-3251.95"/>
</g>
<!-- u8 -->
<g id="node10" class="node">
<title>u8</title>
<ellipse fill="#bbbbff" stroke="black" cx="1661.99" cy="-3225" rx="113.18" ry="18"/>
<text text-anchor="middle" x="1661.99" y="-3221.3" font-family="Times,serif" font-size="14.00">Language.Drasil.Code</text>
</g>
<!-- u4&#45;&gt;u8 -->
<g id="edge6" class="edge">
<title>u4&#45;&gt;u8</title>
<path fill="none" stroke="black" d="M309.19,-3461.4C483.02,-3431.15 1311.54,-3286.98 1578.73,-3240.49"/>
<polygon fill="black" stroke="black" points="1579.51,-3243.91 1588.76,-3238.74 1578.31,-3237.01 1579.51,-3243.91"/>
</g>
<!-- u1 -->
<g id="node5" class="node">
<title>u1</title>
<ellipse fill="#bbffbb" stroke="black" cx="64.99" cy="-2982" rx="53.89" ry="18"/>
<text text-anchor="middle" x="64.99" y="-2978.3" font-family="Times,serif" font-size="14.00">Observer</text>
</g>
<!-- u3&#45;&gt;u1 -->
<g id="edge2" class="edge">
<title>u3&#45;&gt;u1</title>
<path fill="none" stroke="black" d="M64.99,-3206.67C64.99,-3165.24 64.99,-3060.22 64.99,-3010.24"/>
<polygon fill="black" stroke="black" points="68.49,-3010.18 64.99,-3000.18 61.49,-3010.18 68.49,-3010.18"/>
</g>
<!-- u2 -->
<g id="node4" class="node">
<title>u2</title>
<ellipse fill="#bbffbb" stroke="black" cx="193.99" cy="-2982" rx="42.49" ry="18"/>
<text text-anchor="middle" x="193.99" y="-2978.3" font-family="Times,serif" font-size="14.00">Helper</text>
</g>
<!-- u0&#45;&gt;u2 -->
<g id="edge1" class="edge">
<title>u0&#45;&gt;u2</title>
<path fill="none" stroke="black" d="M208.84,-3206.67C206.09,-3165.24 199.12,-3060.22 195.8,-3010.24"/>
<polygon fill="black" stroke="black" points="199.29,-3009.92 195.13,-3000.18 192.3,-3010.39 199.29,-3009.92"/>
</g>
<!-- u6 -->
<g id="node7" class="node">
<title>u6</title>
<ellipse fill="#ffffbb" stroke="black" cx="1661.99" cy="-3468" rx="214.46" ry="18"/>
<text text-anchor="middle" x="1661.99" y="-3464.3" font-family="Times,serif" font-size="14.00">Data.Drasil.ExternalLibraries.ODELibraries</text>
</g>
<!-- u6&#45;&gt;u8 -->
<g id="edge7" class="edge">
<title>u6&#45;&gt;u8</title>
<path fill="none" stroke="black" d="M1661.99,-3449.67C1661.99,-3408.24 1661.99,-3303.22 1661.99,-3253.24"/>
<polygon fill="black" stroke="black" points="1665.49,-3253.18 1661.99,-3243.18 1658.49,-3253.18 1665.49,-3253.18"/>
</g>
<!-- u55 -->
<g id="node8" class="node">
<title>u55</title>
<ellipse fill="#bbbbff" stroke="black" cx="3125.99" cy="-548" rx="110.48" ry="18"/>
<text text-anchor="middle" x="3125.99" y="-544.3" font-family="Times,serif" font-size="14.00">Language.Drasil.Mod</text>
</g>
<!-- u11 -->
<g id="node16" class="node">
<title>u11</title>
<ellipse fill="#ffbbbb" stroke="black" cx="3089.99" cy="-304" rx="170.87" ry="18"/>
<text text-anchor="middle" x="3089.99" y="-300.3" font-family="Times,serif" font-size="14.00">Language.Drasil.Chunk.Parameter</text>
</g>
<!-- u55&#45;&gt;u11 -->
<g id="edge87" class="edge">
<title>u55&#45;&gt;u11</title>
<path fill="none" stroke="black" d="M3123.46,-529.98C3117.3,-488.59 3101.5,-382.35 3094.03,-332.11"/>
<polygon fill="black" stroke="black" points="3097.46,-331.37 3092.52,-322 3090.53,-332.4 3097.46,-331.37"/>
</g>
<!-- u19 -->
<g id="node21" class="node">
<title>u19</title>
<ellipse fill="#bbffff" stroke="black" cx="2427.99" cy="-304" rx="160.57" ry="18"/>
<text text-anchor="middle" x="2427.99" y="-300.3" font-family="Times,serif" font-size="14.00">Language.Drasil.Code.DataDesc</text>
</g>
<!-- u55&#45;&gt;u19 -->
<g id="edge88" class="edge">
<title>u55&#45;&gt;u19</title>
<path fill="none" stroke="black" d="M3081.27,-531.49C2959.15,-489.16 2620.17,-371.63 2484.85,-324.71"/>
<polygon fill="black" stroke="black" points="2485.68,-321.29 2475.08,-321.32 2483.38,-327.91 2485.68,-321.29"/>
</g>
<!-- u54 -->
<g id="node9" class="node">
<title>u54</title>
<ellipse fill="#bbbbff" stroke="black" cx="3576.99" cy="-1521" rx="135.68" ry="18"/>
<text text-anchor="middle" x="3576.99" y="-1517.3" font-family="Times,serif" font-size="14.00">Language.Drasil.CodeSpec</text>
</g>
<!-- u7 -->
<g id="node11" class="node">
<title>u7</title>
<ellipse fill="#bbbbff" stroke="black" cx="2984.99" cy="-1278" rx="126.18" ry="18"/>
<text text-anchor="middle" x="2984.99" y="-1274.3" font-family="Times,serif" font-size="14.00">Language.Drasil.Choices</text>
</g>
<!-- u54&#45;&gt;u7 -->
<g id="edge84" class="edge">
<title>u54&#45;&gt;u7</title>
<path fill="none" stroke="black" d="M3536.77,-1503.62C3431.7,-1460.85 3149.24,-1345.86 3034.48,-1299.15"/>
<polygon fill="black" stroke="black" points="3035.47,-1295.77 3024.88,-1295.24 3032.83,-1302.25 3035.47,-1295.77"/>
</g>
<!-- u15 -->
<g id="node12" class="node">
<title>u15</title>
<ellipse fill="#ffbbbb" stroke="black" cx="3320.99" cy="-1278" rx="192.27" ry="18"/>
<text text-anchor="middle" x="3320.99" y="-1274.3" font-family="Times,serif" font-size="14.00">Language.Drasil.Chunk.ConstraintMap</text>
</g>
<!-- u54&#45;&gt;u15 -->
<g id="edge86" class="edge">
<title>u54&#45;&gt;u15</title>
<path fill="none" stroke="black" d="M3558.99,-1503.05C3514.28,-1460.96 3398.08,-1351.57 3346.4,-1302.92"/>
<polygon fill="black" stroke="black" points="3348.66,-1300.23 3338.98,-1295.93 3343.86,-1305.33 3348.66,-1300.23"/>
</g>
<!-- u14 -->
<g id="node13" class="node">
<title>u14</title>
<ellipse fill="#ffbbbb" stroke="black" cx="3721.99" cy="-1278" rx="191.17" ry="18"/>
<text text-anchor="middle" x="3721.99" y="-1274.3" font-family="Times,serif" font-size="14.00">Language.Drasil.Chunk.CodeDefinition</text>
</g>
<!-- u54&#45;&gt;u14 -->
<g id="edge85" class="edge">
<title>u54&#45;&gt;u14</title>
<path fill="none" stroke="black" d="M3587.42,-1502.67C3612.56,-1460.89 3676.6,-1354.46 3706.35,-1305"/>
<polygon fill="black" stroke="black" points="3709.5,-1306.55 3711.66,-1296.18 3703.51,-1302.94 3709.5,-1306.55"/>
</g>
<!-- u45 -->
<g id="node30" class="node">
<title>u45</title>
<ellipse fill="#ffbbff" stroke="black" cx="922.99" cy="-1765" rx="217.96" ry="18"/>
<text text-anchor="middle" x="922.99" y="-1761.3" font-family="Times,serif" font-size="14.00">Language.Drasil.Code.Imperative.ReadInput</text>
</g>
<!-- u8&#45;&gt;u45 -->
<g id="edge16" class="edge">
<title>u8&#45;&gt;u45</title>
<path fill="none" stroke="black" d="M1576.12,-3213.28C1271.96,-3172.94 263.99,-3018.22 263.99,-2739 263.99,-2739 263.99,-2739 263.99,-2250 263.99,-1965.97 666.59,-1830.26 842.43,-1784.53"/>
<polygon fill="black" stroke="black" points="843.34,-1787.91 852.16,-1782.03 841.6,-1781.13 843.34,-1787.91"/>
</g>
<!-- u42 -->
<g id="node33" class="node">
<title>u42</title>
<ellipse fill="#ffbbff" stroke="black" cx="4594.99" cy="-2982" rx="217.16" ry="18"/>
<text text-anchor="middle" x="4594.99" y="-2978.3" font-family="Times,serif" font-size="14.00">Language.Drasil.Code.Imperative.Generator</text>
</g>
<!-- u8&#45;&gt;u42 -->
<g id="edge15" class="edge">
<title>u8&#45;&gt;u42</title>
<path fill="none" stroke="black" d="M1760,-3215.95C2189.12,-3180.69 3904.69,-3039.72 4436.79,-2996"/>
<polygon fill="black" stroke="black" points="4437.16,-2999.48 4446.84,-2995.17 4436.59,-2992.5 4437.16,-2999.48"/>
</g>
<!-- u35 -->
<g id="node48" class="node">
<title>u35</title>
<ellipse fill="#ff7777" stroke="black" cx="3608.99" cy="-2738" rx="358.54" ry="18"/>
<text text-anchor="middle" x="3608.99" y="-2734.3" font-family="Times,serif" font-size="14.00">Language.Drasil.Code.Imperative.GOOL.LanguageRenderer.SwiftRenderer</text>
</g>
<!-- u8&#45;&gt;u35 -->
<g id="edge14" class="edge">
<title>u8&#45;&gt;u35</title>
<path fill="none" stroke="black" d="M1720.26,-3209.48C2000.92,-3139.57 3212.82,-2837.69 3531.81,-2758.23"/>
<polygon fill="black" stroke="black" points="3533.03,-2761.53 3541.89,-2755.72 3531.34,-2754.74 3533.03,-2761.53"/>
</g>
<!-- u34 -->
<g id="node49" class="node">
<title>u34</title>
<ellipse fill="#ff7777" stroke="black" cx="645.99" cy="-2738" rx="354.44" ry="18"/>
<text text-anchor="middle" x="645.99" y="-2734.3" font-family="Times,serif" font-size="14.00">Language.Drasil.Code.Imperative.GOOL.LanguageRenderer.JavaRenderer</text>
</g>
<!-- u8&#45;&gt;u34 -->
<g id="edge13" class="edge">
<title>u8&#45;&gt;u34</title>
<path fill="none" stroke="black" d="M1627.9,-3207.72C1476.17,-3135.29 862.23,-2842.22 690.7,-2760.34"/>
<polygon fill="black" stroke="black" points="691.99,-2757.08 681.46,-2755.93 688.97,-2763.39 691.99,-2757.08"/>
</g>
<!-- u32 -->
<g id="node51" class="node">
<title>u32</title>
<ellipse fill="#ff7777" stroke="black" cx="1370.99" cy="-2738" rx="352.84" ry="18"/>
<text text-anchor="middle" x="1370.99" y="-2734.3" font-family="Times,serif" font-size="14.00">Language.Drasil.Code.Imperative.GOOL.LanguageRenderer.CppRenderer</text>
</g>
<!-- u8&#45;&gt;u32 -->
<g id="edge12" class="edge">
<title>u8&#45;&gt;u32</title>
<path fill="none" stroke="black" d="M1651.81,-3207.02C1608.42,-3134.71 1438.87,-2852.13 1386.5,-2764.84"/>
<polygon fill="black" stroke="black" points="1389.39,-2762.86 1381.25,-2756.09 1383.39,-2766.47 1389.39,-2762.86"/>
</g>
<!-- u31 -->
<g id="node52" class="node">
<title>u31</title>
<ellipse fill="#ff7777" stroke="black" cx="2108.99" cy="-2738" rx="367.43" ry="18"/>
<text text-anchor="middle" x="2108.99" y="-2734.3" font-family="Times,serif" font-size="14.00">Language.Drasil.Code.Imperative.GOOL.LanguageRenderer.PythonRenderer</text>
</g>
<!-- u8&#45;&gt;u31 -->
<g id="edge11" class="edge">
<title>u8&#45;&gt;u31</title>
<path fill="none" stroke="black" d="M1677.64,-3207.02C1744.62,-3134.35 2007.37,-2849.27 2086.39,-2763.53"/>
<polygon fill="black" stroke="black" points="2089.04,-2765.82 2093.24,-2756.09 2083.89,-2761.07 2089.04,-2765.82"/>
</g>
<!-- u30 -->
<g id="node53" class="node">
<title>u30</title>
<ellipse fill="#ff7777" stroke="black" cx="2862.99" cy="-2738" rx="369.33" ry="18"/>
<text text-anchor="middle" x="2862.99" y="-2734.3" font-family="Times,serif" font-size="14.00">Language.Drasil.Code.Imperative.GOOL.LanguageRenderer.CSharpRenderer</text>
</g>
<!-- u8&#45;&gt;u30 -->
<g id="edge10" class="edge">
<title>u8&#45;&gt;u30</title>
<path fill="none" stroke="black" d="M1701.61,-3208C1880.21,-3135.88 2610.48,-2840.97 2811.54,-2759.78"/>
<polygon fill="black" stroke="black" points="2813.02,-2762.95 2820.99,-2755.96 2810.4,-2756.46 2813.02,-2762.95"/>
</g>
<!-- u18 -->
<g id="node22" class="node">
<title>u18</title>
<ellipse fill="#bbffff" stroke="black" cx="2636.99" cy="-1034" rx="139.98" ry="18"/>
<text text-anchor="middle" x="2636.99" y="-1030.3" font-family="Times,serif" font-size="14.00">Language.Drasil.Code.Code</text>
</g>
<!-- u7&#45;&gt;u18 -->
<g id="edge9" class="edge">
<title>u7&#45;&gt;u18</title>
<path fill="none" stroke="black" d="M2960.8,-1260.18C2899.75,-1217.72 2739.39,-1106.21 2669.89,-1057.88"/>
<polygon fill="black" stroke="black" points="2671.7,-1054.87 2661.49,-1052.04 2667.7,-1060.62 2671.7,-1054.87"/>
</g>
<!-- u9 -->
<g id="node56" class="node">
<title>u9</title>
<ellipse fill="#ff77ff" stroke="black" cx="3128.99" cy="-1034" rx="172.77" ry="18"/>
<text text-anchor="middle" x="3128.99" y="-1030.3" font-family="Times,serif" font-size="14.00">Language.Drasil.Data.ODELibPckg</text>
</g>
<!-- u7&#45;&gt;u9 -->
<g id="edge8" class="edge">
<title>u7&#45;&gt;u9</title>
<path fill="none" stroke="black" d="M2995.12,-1259.98C3019.96,-1218.24 3084.03,-1110.56 3113.61,-1060.85"/>
<polygon fill="black" stroke="black" points="3116.77,-1062.38 3118.88,-1052 3110.76,-1058.8 3116.77,-1062.38"/>
</g>
<!-- u10 -->
<g id="node55" class="node">
<title>u10</title>
<ellipse fill="#ff77ff" stroke="black" cx="2817.99" cy="-791" rx="154.07" ry="18"/>
<text text-anchor="middle" x="2817.99" y="-787.3" font-family="Times,serif" font-size="14.00">Language.Drasil.Data.ODEInfo</text>
</g>
<!-- u14&#45;&gt;u10 -->
<g id="edge23" class="edge">
<title>u14&#45;&gt;u10</title>
<path fill="none" stroke="black" d="M3639.41,-1261.74C3462.41,-1227.67 3053.87,-1141.36 2946.99,-1052 2871.95,-989.25 2836.54,-872.16 2823.81,-819.23"/>
<polygon fill="black" stroke="black" points="2827.16,-818.19 2821.49,-809.24 2820.34,-819.77 2827.16,-818.19"/>
</g>
<!-- u13 -->
<g id="node14" class="node">
<title>u13</title>
<ellipse fill="#ffbbbb" stroke="black" cx="3701.99" cy="-548" rx="202.26" ry="18"/>
<text text-anchor="middle" x="3701.99" y="-544.3" font-family="Times,serif" font-size="14.00">Language.Drasil.Chunk.NamedArgument</text>
</g>
<!-- u12 -->
<g id="node15" class="node">
<title>u12</title>
<ellipse fill="#ffbbbb" stroke="black" cx="2817.99" cy="-61" rx="145.67" ry="18"/>
<text text-anchor="middle" x="2817.99" y="-57.3" font-family="Times,serif" font-size="14.00">Language.Drasil.Chunk.Code</text>
</g>
<!-- u11&#45;&gt;u12 -->
<g id="edge22" class="edge">
<title>u11&#45;&gt;u12</title>
<path fill="none" stroke="black" d="M3070.87,-286.05C3023.27,-243.88 2899.39,-134.12 2844.66,-85.62"/>
<polygon fill="black" stroke="black" points="2846.91,-82.94 2837.1,-78.93 2842.26,-88.18 2846.91,-82.94"/>
</g>
<!-- u53 -->
<g id="node17" class="node">
<title>u53</title>
<ellipse fill="#bbffff" stroke="black" cx="3909.99" cy="-791" rx="190.37" ry="18"/>
<text text-anchor="middle" x="3909.99" y="-787.3" font-family="Times,serif" font-size="14.00">Language.Drasil.Code.ExternalLibrary</text>
</g>
<!-- u53&#45;&gt;u55 -->
<g id="edge83" class="edge">
<title>u53&#45;&gt;u55</title>
<path fill="none" stroke="black" d="M3856.72,-773.62C3715.56,-730.23 3332.61,-612.51 3185.06,-567.16"/>
<polygon fill="black" stroke="black" points="3185.86,-563.74 3175.27,-564.15 3183.8,-570.43 3185.86,-563.74"/>
</g>
<!-- u53&#45;&gt;u13 -->
<g id="edge82" class="edge">
<title>u53&#45;&gt;u13</title>
<path fill="none" stroke="black" d="M3895.04,-772.67C3858.68,-730.55 3765.59,-622.68 3723.38,-573.77"/>
<polygon fill="black" stroke="black" points="3726,-571.46 3716.82,-566.18 3720.7,-576.03 3726,-571.46"/>
</g>
<!-- u52 -->
<g id="node18" class="node">
<title>u52</title>
<ellipse fill="#bbffff" stroke="black" cx="4771.99" cy="-2008" rx="204.16" ry="18"/>
<text text-anchor="middle" x="4771.99" y="-2004.3" font-family="Times,serif" font-size="14.00">Language.Drasil.Code.CodeQuantityDicts</text>
</g>
<!-- u51 -->
<g id="node19" class="node">
<title>u51</title>
<ellipse fill="#bbffff" stroke="black" cx="3919.99" cy="-1034" rx="178.97" ry="18"/>
<text text-anchor="middle" x="3919.99" y="-1030.3" font-family="Times,serif" font-size="14.00">Language.Drasil.Code.ExtLibImport</text>
</g>
<!-- u51&#45;&gt;u53 -->
<g id="edge81" class="edge">
<title>u51&#45;&gt;u53</title>
<path fill="none" stroke="black" d="M3919.28,-1015.67C3917.56,-974.24 3913.2,-869.22 3911.12,-819.24"/>
<polygon fill="black" stroke="black" points="3914.62,-819.02 3910.71,-809.18 3907.62,-819.31 3914.62,-819.02"/>
</g>
<!-- u17 -->
<g id="node23" class="node">
<title>u17</title>
<ellipse fill="#bbffff" stroke="black" cx="3493.99" cy="-791" rx="207.96" ry="18"/>
<text text-anchor="middle" x="3493.99" y="-787.3" font-family="Times,serif" font-size="14.00">Language.Drasil.Code.ExternalLibraryCall</text>
</g>
<!-- u51&#45;&gt;u17 -->
<g id="edge80" class="edge">
<title>u51&#45;&gt;u17</title>
<path fill="none" stroke="black" d="M3890.38,-1016.24C3815.19,-973.71 3616.94,-861.55 3532.72,-813.91"/>
<polygon fill="black" stroke="black" points="3534.41,-810.84 3523.98,-808.97 3530.96,-816.94 3534.41,-810.84"/>
</g>
<!-- u20 -->
<g id="node20" class="node">
<title>u20</title>
<ellipse fill="#bbffff" stroke="black" cx="4176.99" cy="-2738" rx="191.17" ry="18"/>
<text text-anchor="middle" x="4176.99" y="-2734.3" font-family="Times,serif" font-size="14.00">Language.Drasil.Code.CodeGeneration</text>
</g>
<!-- u20&#45;&gt;u18 -->
<g id="edge27" class="edge">
<title>u20&#45;&gt;u18</title>
<path fill="none" stroke="black" d="M4153.76,-2719.93C4102.92,-2682.55 3978.08,-2590.64 3873.99,-2513 3708.13,-2389.27 3688.38,-2322.89 3501.99,-2233 3171.58,-2073.65 2956.79,-2290.87 2702.99,-2026 2566.82,-1883.88 2621.04,-1207.09 2634.36,-1062.3"/>
<polygon fill="black" stroke="black" points="2637.87,-1062.37 2635.32,-1052.09 2630.9,-1061.72 2637.87,-1062.37"/>
</g>
<!-- u37 -->
<g id="node46" class="node">
<title>u37</title>
<ellipse fill="#7777ff" stroke="black" cx="2730.99" cy="-2495" rx="222.06" ry="18"/>
<text text-anchor="middle" x="2730.99" y="-2491.3" font-family="Times,serif" font-size="14.00">Language.Drasil.Code.Imperative.GOOL.Data</text>
</g>
<!-- u20&#45;&gt;u37 -->
<g id="edge28" class="edge">
<title>u20&#45;&gt;u37</title>
<path fill="none" stroke="black" d="M4087.36,-2722.06C3832.37,-2679.56 3103.97,-2558.16 2833.63,-2513.11"/>
<polygon fill="black" stroke="black" points="2833.87,-2509.6 2823.43,-2511.41 2832.72,-2516.5 2833.87,-2509.6"/>
</g>
<!-- u19&#45;&gt;u12 -->
<g id="edge26" class="edge">
<title>u19&#45;&gt;u12</title>
<path fill="none" stroke="black" d="M2455.11,-286.24C2523.75,-243.83 2704.41,-132.19 2781.88,-84.32"/>
<polygon fill="black" stroke="black" points="2784.13,-87.04 2790.8,-78.8 2780.45,-81.08 2784.13,-87.04"/>
</g>
<!-- u17&#45;&gt;u55 -->
<g id="edge25" class="edge">
<title>u17&#45;&gt;u55</title>
<path fill="none" stroke="black" d="M3468.12,-773.05C3403.03,-730.43 3232.54,-618.77 3159.73,-571.1"/>
<polygon fill="black" stroke="black" points="3161.64,-568.16 3151.35,-565.61 3157.8,-574.01 3161.64,-568.16"/>
</g>
<!-- u17&#45;&gt;u13 -->
<g id="edge24" class="edge">
<title>u17&#45;&gt;u13</title>
<path fill="none" stroke="black" d="M3508.95,-772.67C3545.31,-730.55 3638.4,-622.68 3680.61,-573.77"/>
<polygon fill="black" stroke="black" points="3683.29,-576.03 3687.17,-566.18 3677.99,-571.46 3683.29,-576.03"/>
</g>
<!-- u16 -->
<g id="node24" class="node">
<title>u16</title>
<ellipse fill="#bbffff" stroke="black" cx="3128.99" cy="-791" rx="139.18" ry="18"/>
<text text-anchor="middle" x="3128.99" y="-787.3" font-family="Times,serif" font-size="14.00">Language.Drasil.Code.Lang</text>
</g>
<!-- u50 -->
<g id="node25" class="node">
<title>u50</title>
<ellipse fill="#ffbbff" stroke="black" cx="2644.99" cy="-2251" rx="233.16" ry="18"/>
<text text-anchor="middle" x="2644.99" y="-2247.3" font-family="Times,serif" font-size="14.00">Language.Drasil.Code.Imperative.WriteReadMe</text>
</g>
<!-- u38 -->
<g id="node45" class="node">
<title>u38</title>
<ellipse fill="#7777ff" stroke="black" cx="2926.99" cy="-1765" rx="267.25" ry="18"/>
<text text-anchor="middle" x="2926.99" y="-1761.3" font-family="Times,serif" font-size="14.00">Language.Drasil.Code.Imperative.GOOL.ClassInterface</text>
</g>
<!-- u50&#45;&gt;u38 -->
<g id="edge79" class="edge">
<title>u50&#45;&gt;u38</title>
<path fill="none" stroke="black" d="M2645.56,-2232.73C2647.66,-2189.26 2657.45,-2072.89 2702.99,-1990 2751.31,-1902.06 2844.53,-1825.69 2894.11,-1789.07"/>
<polygon fill="black" stroke="black" points="2896.25,-1791.84 2902.26,-1783.12 2892.12,-1786.19 2896.25,-1791.84"/>
</g>
<!-- u49 -->
<g id="node26" class="node">
<title>u49</title>
<ellipse fill="#ffbbff" stroke="black" cx="4115.99" cy="-2495" rx="233.16" ry="18"/>
<text text-anchor="middle" x="4115.99" y="-2491.3" font-family="Times,serif" font-size="14.00">Language.Drasil.Code.Imperative.FunctionCalls</text>
</g>
<!-- u48 -->
<g id="node27" class="node">
<title>u48</title>
<ellipse fill="#ffbbff" stroke="black" cx="3884.99" cy="-2251" rx="201.46" ry="18"/>
<text text-anchor="middle" x="3884.99" y="-2247.3" font-family="Times,serif" font-size="14.00">Language.Drasil.Code.Imperative.Import</text>
</g>
<!-- u49&#45;&gt;u48 -->
<g id="edge78" class="edge">
<title>u49&#45;&gt;u48</title>
<path fill="none" stroke="black" d="M4099.75,-2476.98C4059.49,-2434.81 3954.98,-2325.32 3908.21,-2276.32"/>
<polygon fill="black" stroke="black" points="3910.66,-2273.82 3901.22,-2269 3905.59,-2278.65 3910.66,-2273.82"/>
</g>
<!-- u41 -->
<g id="node34" class="node">
<title>u41</title>
<ellipse fill="#ffbbff" stroke="black" cx="4771.99" cy="-2251" rx="223.66" ry="18"/>
<text text-anchor="middle" x="4771.99" y="-2247.3" font-family="Times,serif" font-size="14.00">Language.Drasil.Code.Imperative.Parameters</text>
</g>
<!-- u49&#45;&gt;u41 -->
<g id="edge77" class="edge">
<title>u49&#45;&gt;u41</title>
<path fill="none" stroke="black" d="M4161.34,-2477.27C4278.36,-2434.1 4590.18,-2319.07 4717.1,-2272.25"/>
<polygon fill="black" stroke="black" points="4718.47,-2275.48 4726.64,-2268.73 4716.05,-2268.91 4718.47,-2275.48"/>
</g>
<!-- u48&#45;&gt;u52 -->
<g id="edge76" class="edge">
<title>u48&#45;&gt;u52</title>
<path fill="none" stroke="black" d="M3944.92,-2233.72C4103.46,-2190.64 4533.33,-2073.85 4702.37,-2027.92"/>
<polygon fill="black" stroke="black" points="4703.43,-2031.26 4712.16,-2025.26 4701.59,-2024.5 4703.43,-2031.26"/>
</g>
<!-- u47 -->
<g id="node28" class="node">
<title>u47</title>
<ellipse fill="#ffbbff" stroke="black" cx="3884.99" cy="-2008" rx="207.16" ry="18"/>
<text text-anchor="middle" x="3884.99" y="-2004.3" font-family="Times,serif" font-size="14.00">Language.Drasil.Code.Imperative.Logging</text>
</g>
<!-- u48&#45;&gt;u47 -->
<g id="edge75" class="edge">
<title>u48&#45;&gt;u47</title>
<path fill="none" stroke="black" d="M3884.99,-2232.67C3884.99,-2191.24 3884.99,-2086.22 3884.99,-2036.24"/>
<polygon fill="black" stroke="black" points="3888.49,-2036.18 3884.99,-2026.18 3881.49,-2036.18 3888.49,-2036.18"/>
</g>
<!-- u46 -->
<g id="node29" class="node">
<title>u46</title>
<ellipse fill="#ffbbff" stroke="black" cx="4329.99" cy="-2008" rx="219.86" ry="18"/>
<text text-anchor="middle" x="4329.99" y="-2004.3" font-family="Times,serif" font-size="14.00">Language.Drasil.Code.Imperative.Comments</text>
</g>
<!-- u48&#45;&gt;u46 -->
<g id="edge74" class="edge">
<title>u48&#45;&gt;u46</title>
<path fill="none" stroke="black" d="M3916.29,-2233.05C3995.2,-2190.32 4202.25,-2078.18 4289.89,-2030.72"/>
<polygon fill="black" stroke="black" points="4291.61,-2033.77 4298.74,-2025.93 4288.28,-2027.61 4291.61,-2033.77"/>
</g>
<!-- u40 -->
<g id="node35" class="node">
<title>u40</title>
<ellipse fill="#ffbbff" stroke="black" cx="3185.99" cy="-1521" rx="237.46" ry="18"/>
<text text-anchor="middle" x="3185.99" y="-1517.3" font-family="Times,serif" font-size="14.00">Language.Drasil.Code.Imperative.ConceptMatch</text>
</g>
<!-- u48&#45;&gt;u40 -->
<g id="edge73" class="edge">
<title>u48&#45;&gt;u40</title>
<path fill="none" stroke="black" d="M3719.71,-2240.65C3569.51,-2222.66 3354.3,-2171.28 3238.99,-2026 3224.02,-2007.13 3195.87,-1651.64 3188.06,-1549.33"/>
<polygon fill="black" stroke="black" points="3191.53,-1548.89 3187.28,-1539.18 3184.55,-1549.42 3191.53,-1548.89"/>
</g>
<!-- u29 -->
<g id="node37" class="node">
<title>u29</title>
<ellipse fill="#ffbbff" stroke="black" cx="2951.99" cy="-2008" rx="240.46" ry="18"/>
<text text-anchor="middle" x="2951.99" y="-2004.3" font-family="Times,serif" font-size="14.00">Language.Drasil.Code.Imperative.GenerateGOOL</text>
</g>
<!-- u48&#45;&gt;u29 -->
<g id="edge72" class="edge">
<title>u48&#45;&gt;u29</title>
<path fill="none" stroke="black" d="M3822.33,-2233.81C3655.92,-2190.83 3203.49,-2073.96 3025.42,-2027.97"/>
<polygon fill="black" stroke="black" points="3026.17,-2024.55 3015.62,-2025.43 3024.42,-2031.32 3026.17,-2024.55"/>
</g>
<!-- u27 -->
<g id="node38" class="node">
<title>u27</title>
<ellipse fill="#ffbbff" stroke="black" cx="3453.99" cy="-2008" rx="206.06" ry="18"/>
<text text-anchor="middle" x="3453.99" y="-2004.3" font-family="Times,serif" font-size="14.00">Language.Drasil.Code.Imperative.Helpers</text>
</g>
<!-- u48&#45;&gt;u27 -->
<g id="edge71" class="edge">
<title>u48&#45;&gt;u27</title>
<path fill="none" stroke="black" d="M3854.69,-2233.05C3778.33,-2190.36 3578.12,-2078.41 3493.09,-2030.86"/>
<polygon fill="black" stroke="black" points="3494.7,-2027.75 3484.27,-2025.93 3491.29,-2033.86 3494.7,-2027.75"/>
</g>
<!-- u22 -->
<g id="node41" class="node">
<title>u22</title>
<ellipse fill="#ffbbff" stroke="black" cx="4178.99" cy="-1765" rx="222.06" ry="18"/>
<text text-anchor="middle" x="4178.99" y="-1761.3" font-family="Times,serif" font-size="14.00">Language.Drasil.Code.Imperative.DrasilState</text>
</g>
<!-- u47&#45;&gt;u22 -->
<g id="edge70" class="edge">
<title>u47&#45;&gt;u22</title>
<path fill="none" stroke="black" d="M3905.67,-1990.05C3957.22,-1947.79 4091.57,-1837.67 4150.54,-1789.33"/>
<polygon fill="black" stroke="black" points="4152.83,-1791.97 4158.34,-1782.93 4148.39,-1786.56 4152.83,-1791.97"/>
</g>
<!-- u46&#45;&gt;u22 -->
<g id="edge69" class="edge">
<title>u46&#45;&gt;u22</title>
<path fill="none" stroke="black" d="M4319.13,-1989.67C4292.91,-1947.81 4225.99,-1841.01 4195.09,-1791.69"/>
<polygon fill="black" stroke="black" points="4198.03,-1789.79 4189.76,-1783.18 4192.1,-1793.51 4198.03,-1789.79"/>
</g>
<!-- u45&#45;&gt;u19 -->
<g id="edge68" class="edge">
<title>u45&#45;&gt;u19</title>
<path fill="none" stroke="black" d="M937.49,-1746.82C986.66,-1686.74 1143.99,-1478.87 1143.99,-1279 1143.99,-1279 1143.99,-1279 1143.99,-790 1143.99,-537.23 2025.82,-370.32 2327.89,-320.56"/>
<polygon fill="black" stroke="black" points="2328.66,-323.99 2337.96,-318.91 2327.53,-317.08 2328.66,-323.99"/>
</g>
<!-- u44 -->
<g id="node31" class="node">
<title>u44</title>
<ellipse fill="#ffbbff" stroke="black" cx="3940.99" cy="-1521" rx="209.86" ry="18"/>
<text text-anchor="middle" x="3940.99" y="-1517.3" font-family="Times,serif" font-size="14.00">Language.Drasil.Code.Imperative.GenODE</text>
</g>
<!-- u44&#45;&gt;u7 -->
<g id="edge65" class="edge">
<title>u44&#45;&gt;u7</title>
<path fill="none" stroke="black" d="M3876.78,-1503.81C3704.32,-1460.34 3232.04,-1341.28 3054.07,-1296.41"/>
<polygon fill="black" stroke="black" points="3054.85,-1293 3044.3,-1293.95 3053.14,-1299.79 3054.85,-1293"/>
</g>
<!-- u44&#45;&gt;u14 -->
<g id="edge66" class="edge">
<title>u44&#45;&gt;u14</title>
<path fill="none" stroke="black" d="M3925.24,-1502.67C3886.97,-1460.55 3788.95,-1352.68 3744.51,-1303.77"/>
<polygon fill="black" stroke="black" points="3746.92,-1301.22 3737.6,-1296.18 3741.74,-1305.93 3746.92,-1301.22"/>
</g>
<!-- u44&#45;&gt;u51 -->
<g id="edge67" class="edge">
<title>u44&#45;&gt;u51</title>
<path fill="none" stroke="black" d="M3940.25,-1502.74C3937.11,-1430.33 3925.01,-1150.75 3921.17,-1062.12"/>
<polygon fill="black" stroke="black" points="3924.66,-1061.89 3920.73,-1052.05 3917.67,-1062.2 3924.66,-1061.89"/>
</g>
<!-- u43 -->
<g id="node32" class="node">
<title>u43</title>
<ellipse fill="#ffbbff" stroke="black" cx="5067.99" cy="-2495" rx="226.66" ry="18"/>
<text text-anchor="middle" x="5067.99" y="-2491.3" font-family="Times,serif" font-size="14.00">Language.Drasil.Code.Imperative.SpaceMatch</text>
</g>
<!-- u43&#45;&gt;u22 -->
<g id="edge64" class="edge">
<title>u43&#45;&gt;u22</title>
<path fill="none" stroke="black" d="M5073.06,-2476.68C5092.46,-2406.38 5154.94,-2139.11 5030.99,-1990 4939.09,-1879.43 4522.61,-1810.45 4307.9,-1781.61"/>
<polygon fill="black" stroke="black" points="4308.2,-1778.12 4297.83,-1780.27 4307.27,-1785.06 4308.2,-1778.12"/>
</g>
<!-- u42&#45;&gt;u20 -->
<g id="edge60" class="edge">
<title>u42&#45;&gt;u20</title>
<path fill="none" stroke="black" d="M4565.6,-2963.98C4491.54,-2921.1 4297.3,-2808.65 4214.86,-2760.92"/>
<polygon fill="black" stroke="black" points="4216.48,-2757.82 4206.08,-2755.84 4212.98,-2763.88 4216.48,-2757.82"/>
</g>
<!-- u42&#45;&gt;u44 -->
<g id="edge63" class="edge">
<title>u42&#45;&gt;u44</title>
<path fill="none" stroke="black" d="M4682.45,-2965.51C4875.88,-2925.69 5322.99,-2800.69 5322.99,-2496 5322.99,-2496 5322.99,-2496 5322.99,-2007 5322.99,-1740.62 4397.3,-1585.4 4061.14,-1537.82"/>
<polygon fill="black" stroke="black" points="4061.27,-1534.3 4050.88,-1536.37 4060.3,-1541.23 4061.27,-1534.3"/>
</g>
<!-- u42&#45;&gt;u43 -->
<g id="edge62" class="edge">
<title>u42&#45;&gt;u43</title>
<path fill="none" stroke="black" d="M4611.55,-2964.02C4682.5,-2891.27 4961.01,-2605.69 5044.33,-2520.27"/>
<polygon fill="black" stroke="black" points="5046.85,-2522.69 5051.33,-2513.09 5041.84,-2517.81 5046.85,-2522.69"/>
</g>
<!-- u26 -->
<g id="node39" class="node">
<title>u26</title>
<ellipse fill="#ffbbff" stroke="black" cx="4594.99" cy="-2738" rx="209.06" ry="18"/>
<text text-anchor="middle" x="4594.99" y="-2734.3" font-family="Times,serif" font-size="14.00">Language.Drasil.Code.Imperative.Modules</text>
</g>
<!-- u42&#45;&gt;u26 -->
<g id="edge61" class="edge">
<title>u42&#45;&gt;u26</title>
<path fill="none" stroke="black" d="M4594.99,-2963.98C4594.99,-2922.69 4594.99,-2816.86 4594.99,-2766.47"/>
<polygon fill="black" stroke="black" points="4598.49,-2766.32 4594.99,-2756.32 4591.49,-2766.32 4598.49,-2766.32"/>
</g>
<!-- u41&#45;&gt;u52 -->
<g id="edge59" class="edge">
<title>u41&#45;&gt;u52</title>
<path fill="none" stroke="black" d="M4771.99,-2232.67C4771.99,-2191.24 4771.99,-2086.22 4771.99,-2036.24"/>
<polygon fill="black" stroke="black" points="4775.49,-2036.18 4771.99,-2026.18 4768.49,-2036.18 4775.49,-2036.18"/>
</g>
<!-- u41&#45;&gt;u22 -->
<g id="edge58" class="edge">
<title>u41&#45;&gt;u22</title>
<path fill="none" stroke="black" d="M4805.1,-2233.16C4881.17,-2192.27 5056.58,-2084.19 4984.99,-1990 4902.41,-1881.33 4506.63,-1811.49 4302.06,-1782.03"/>
<polygon fill="black" stroke="black" points="4302.26,-1778.53 4291.87,-1780.58 4301.27,-1785.46 4302.26,-1778.53"/>
</g>
<!-- u40&#45;&gt;u7 -->
<g id="edge57" class="edge">
<title>u40&#45;&gt;u7</title>
<path fill="none" stroke="black" d="M3171.54,-1502.67C3136.48,-1460.63 3046.82,-1353.13 3005.91,-1304.08"/>
<polygon fill="black" stroke="black" points="3008.41,-1301.61 2999.32,-1296.18 3003.04,-1306.1 3008.41,-1301.61"/>
</g>
<!-- u39 -->
<g id="node36" class="node">
<title>u39</title>
<ellipse fill="#ffbbff" stroke="black" cx="1978.99" cy="-1521" rx="219.86" ry="18"/>
<text text-anchor="middle" x="1978.99" y="-1517.3" font-family="Times,serif" font-size="14.00">Language.Drasil.Code.Imperative.WriteInput</text>
</g>
<!-- u39&#45;&gt;u19 -->
<g id="edge56" class="edge">
<title>u39&#45;&gt;u19</title>
<path fill="none" stroke="black" d="M1995.65,-1502.73C2051.26,-1443.17 2226.99,-1238.8 2226.99,-1035 2226.99,-1035 2226.99,-1035 2226.99,-790 2226.99,-600.76 2359.2,-399.47 2409.17,-330.14"/>
<polygon fill="black" stroke="black" points="2412.06,-332.13 2415.12,-321.98 2406.4,-328.01 2412.06,-332.13"/>
</g>
<!-- u29&#45;&gt;u22 -->
<g id="edge38" class="edge">
<title>u29&#45;&gt;u22</title>
<path fill="none" stroke="black" d="M3033.45,-1991C3253.38,-1947.8 3858.09,-1829.03 4088.35,-1783.8"/>
<polygon fill="black" stroke="black" points="4089.23,-1787.2 4098.37,-1781.84 4087.88,-1780.33 4089.23,-1787.2"/>
</g>
<!-- u29&#45;&gt;u38 -->
<g id="edge39" class="edge">
<title>u29&#45;&gt;u38</title>
<path fill="none" stroke="black" d="M2950.2,-1989.67C2945.9,-1948.24 2935,-1843.22 2929.82,-1793.24"/>
<polygon fill="black" stroke="black" points="2933.29,-1792.76 2928.78,-1783.18 2926.33,-1793.48 2933.29,-1792.76"/>
</g>
<!-- u27&#45;&gt;u22 -->
<g id="edge36" class="edge">
<title>u27&#45;&gt;u22</title>
<path fill="none" stroke="black" d="M3503.83,-1990.44C3633.17,-1947.44 3979.23,-1832.4 4119.1,-1785.91"/>
<polygon fill="black" stroke="black" points="4120.43,-1789.16 4128.81,-1782.68 4118.22,-1782.51 4120.43,-1789.16"/>
</g>
<!-- u26&#45;&gt;u49 -->
<g id="edge35" class="edge">
<title>u26&#45;&gt;u49</title>
<path fill="none" stroke="black" d="M4561.31,-2720.05C4476.2,-2677.23 4252.59,-2564.73 4158.59,-2517.43"/>
<polygon fill="black" stroke="black" points="4160.15,-2514.3 4149.64,-2512.93 4157,-2520.55 4160.15,-2514.3"/>
</g>
<!-- u23 -->
<g id="node40" class="node">
<title>u23</title>
<ellipse fill="#ffbbff" stroke="black" cx="4594.99" cy="-2495" rx="228.26" ry="18"/>
<text text-anchor="middle" x="4594.99" y="-2491.3" font-family="Times,serif" font-size="14.00">Language.Drasil.Code.Imperative.Descriptions</text>
</g>
<!-- u26&#45;&gt;u23 -->
<g id="edge34" class="edge">
<title>u26&#45;&gt;u23</title>
<path fill="none" stroke="black" d="M4594.99,-2719.67C4594.99,-2678.24 4594.99,-2573.22 4594.99,-2523.24"/>
<polygon fill="black" stroke="black" points="4598.49,-2523.18 4594.99,-2513.18 4591.49,-2523.18 4598.49,-2523.18"/>
</g>
<!-- u23&#45;&gt;u22 -->
<g id="edge32" class="edge">
<title>u23&#45;&gt;u22</title>
<path fill="none" stroke="black" d="M4668.28,-2477.91C4765.08,-2452.28 4931.85,-2392 5004.99,-2269 5068.38,-2162.42 5081.35,-2088.48 5005.99,-1990 4921.23,-1879.22 4516.78,-1810.53 4306.56,-1781.72"/>
<polygon fill="black" stroke="black" points="4306.77,-1778.21 4296.39,-1780.33 4305.83,-1785.15 4306.77,-1778.21"/>
</g>
<!-- u22&#45;&gt;u54 -->
<g id="edge31" class="edge">
<title>u22&#45;&gt;u54</title>
<path fill="none" stroke="black" d="M4137.14,-1747.18C4029.38,-1703.86 3742.74,-1588.63 3626.75,-1542"/>
<polygon fill="black" stroke="black" points="3627.97,-1538.72 3617.38,-1538.24 3625.35,-1545.21 3627.97,-1538.72"/>
</g>
<!-- u22&#45;&gt;u51 -->
<g id="edge30" class="edge">
<title>u22&#45;&gt;u51</title>
<path fill="none" stroke="black" d="M4180.07,-1746.8C4182.23,-1704.44 4184.95,-1592.02 4159.99,-1503 4109.17,-1321.67 3984.47,-1128.76 3937.91,-1060.62"/>
<polygon fill="black" stroke="black" points="3940.68,-1058.46 3932.13,-1052.21 3934.91,-1062.43 3940.68,-1058.46"/>
</g>
<!-- u25 -->
<g id="node42" class="node">
<title>u25</title>
<ellipse fill="#77ff77" stroke="black" cx="2101.99" cy="-2251" rx="228.56" ry="18"/>
<text text-anchor="middle" x="2101.99" y="-2247.3" font-family="Times,serif" font-size="14.00">Language.Drasil.Code.Imperative.Build.Import</text>
</g>
<!-- u24 -->
<g id="node43" class="node">
<title>u24</title>
<ellipse fill="#77ff77" stroke="black" cx="2101.99" cy="-2008" rx="215.56" ry="18"/>
<text text-anchor="middle" x="2101.99" y="-2004.3" font-family="Times,serif" font-size="14.00">Language.Drasil.Code.Imperative.Build.AST</text>
</g>
<!-- u25&#45;&gt;u24 -->
<g id="edge33" class="edge">
<title>u25&#45;&gt;u24</title>
<path fill="none" stroke="black" d="M2101.99,-2232.67C2101.99,-2191.24 2101.99,-2086.22 2101.99,-2036.24"/>
<polygon fill="black" stroke="black" points="2105.49,-2036.18 2101.99,-2026.18 2098.49,-2036.18 2105.49,-2036.18"/>
</g>
<!-- u28 -->
<g id="node44" class="node">
<title>u28</title>
<ellipse fill="#ffff77" stroke="black" cx="2358.99" cy="-1765" rx="245.06" ry="18"/>
<text text-anchor="middle" x="2358.99" y="-1761.3" font-family="Times,serif" font-size="14.00">Language.Drasil.Code.Imperative.Doxygen.Import</text>
</g>
<!-- u28&#45;&gt;u7 -->
<g id="edge37" class="edge">
<title>u28&#45;&gt;u7</title>
<path fill="none" stroke="black" d="M2380.91,-1747.02C2475.29,-1673.9 2847.21,-1385.75 2955.35,-1301.96"/>
<polygon fill="black" stroke="black" points="2957.5,-1304.73 2963.26,-1295.84 2953.21,-1299.2 2957.5,-1304.73"/>
</g>
<!-- u38&#45;&gt;u7 -->
<g id="edge55" class="edge">
<title>u38&#45;&gt;u7</title>
<path fill="none" stroke="black" d="M2926.97,-1746.82C2927.1,-1704.96 2928.6,-1594.39 2939.99,-1503 2948.95,-1431.12 2968.03,-1347.82 2978.23,-1305.96"/>
<polygon fill="black" stroke="black" points="2981.69,-1306.55 2980.68,-1296 2974.89,-1304.87 2981.69,-1306.55"/>
</g>
<!-- u36 -->
<g id="node47" class="node">
<title>u36</title>
<ellipse fill="#7777ff" stroke="black" cx="3203.99" cy="-2251" rx="289.45" ry="18"/>
<text text-anchor="middle" x="3203.99" y="-2247.3" font-family="Times,serif" font-size="14.00">Language.Drasil.Code.Imperative.GOOL.LanguageRenderer</text>
</g>
<!-- u35&#45;&gt;u37 -->
<g id="edge54" class="edge">
<title>u35&#45;&gt;u37</title>
<path fill="none" stroke="black" d="M3547.95,-2720.24C3389.81,-2676.84 2967.53,-2560.92 2800.44,-2515.06"/>
<polygon fill="black" stroke="black" points="2801.33,-2511.68 2790.76,-2512.41 2799.48,-2518.43 2801.33,-2511.68"/>
</g>
<!-- u33 -->
<g id="node50" class="node">
<title>u33</title>
<ellipse fill="#ff7777" stroke="black" cx="2096.99" cy="-2495" rx="393.73" ry="18"/>
<text text-anchor="middle" x="2096.99" y="-2491.3" font-family="Times,serif" font-size="14.00">Language.Drasil.Code.Imperative.GOOL.LanguageRenderer.LanguagePolymorphic</text>
</g>
<!-- u35&#45;&gt;u33 -->
<g id="edge53" class="edge">
<title>u35&#45;&gt;u33</title>
<path fill="none" stroke="black" d="M3506.85,-2720.72C3234.76,-2677.35 2493.91,-2559.27 2209.89,-2514"/>
<polygon fill="black" stroke="black" points="2210.41,-2510.53 2199.99,-2512.42 2209.31,-2517.45 2210.41,-2510.53"/>
</g>
<!-- u34&#45;&gt;u37 -->
<g id="edge52" class="edge">
<title>u34&#45;&gt;u37</title>
<path fill="none" stroke="black" d="M781.59,-2721.33C1160.12,-2677.57 2224.9,-2554.5 2599.02,-2511.25"/>
<polygon fill="black" stroke="black" points="2599.54,-2514.72 2609.07,-2510.09 2598.74,-2507.76 2599.54,-2514.72"/>
</g>
<!-- u34&#45;&gt;u33 -->
<g id="edge51" class="edge">
<title>u34&#45;&gt;u33</title>
<path fill="none" stroke="black" d="M744.3,-2720.67C1005.37,-2677.31 1714.73,-2559.49 1987.81,-2514.13"/>
<polygon fill="black" stroke="black" points="1988.44,-2517.58 1997.73,-2512.49 1987.29,-2510.67 1988.44,-2517.58"/>
</g>
<!-- u33&#45;&gt;u50 -->
<g id="edge50" class="edge">
<title>u33&#45;&gt;u50</title>
<path fill="none" stroke="black" d="M2135.53,-2476.98C2233.32,-2433.8 2490.89,-2320.05 2597.62,-2272.92"/>
<polygon fill="black" stroke="black" points="2599.13,-2276.08 2606.87,-2268.84 2596.31,-2269.68 2599.13,-2276.08"/>
</g>
<!-- u33&#45;&gt;u39 -->
<g id="edge49" class="edge">
<title>u33&#45;&gt;u39</title>
<path fill="none" stroke="black" d="M2067.68,-2476.97C2015.01,-2444.45 1905.96,-2367.87 1863.99,-2269 1751.86,-2004.83 1915.27,-1646.79 1965.25,-1548.11"/>
<polygon fill="black" stroke="black" points="1968.41,-1549.62 1969.85,-1539.13 1962.18,-1546.43 1968.41,-1549.62"/>
</g>
<!-- u33&#45;&gt;u25 -->
<g id="edge46" class="edge">
<title>u33&#45;&gt;u25</title>
<path fill="none" stroke="black" d="M2097.35,-2476.98C2098.2,-2435.69 2100.39,-2329.86 2101.43,-2279.47"/>
<polygon fill="black" stroke="black" points="2104.93,-2279.39 2101.64,-2269.32 2097.93,-2279.25 2104.93,-2279.39"/>
</g>
<!-- u33&#45;&gt;u28 -->
<g id="edge47" class="edge">
<title>u33&#45;&gt;u28</title>
<path fill="none" stroke="black" d="M2127.59,-2476.89C2182.03,-2444.52 2294.26,-2368.52 2339.99,-2269 2416.5,-2102.54 2380.44,-1871.39 2364.88,-1793.14"/>
<polygon fill="black" stroke="black" points="2368.26,-1792.23 2362.83,-1783.13 2361.41,-1793.63 2368.26,-1792.23"/>
</g>
<!-- u33&#45;&gt;u36 -->
<g id="edge48" class="edge">
<title>u33&#45;&gt;u36</title>
<path fill="none" stroke="black" d="M2173.52,-2477.27C2373.35,-2433.59 2909.82,-2316.31 3118.91,-2270.6"/>
<polygon fill="black" stroke="black" points="3119.9,-2273.97 3128.92,-2268.41 3118.4,-2267.13 3119.9,-2273.97"/>
</g>
<!-- u32&#45;&gt;u37 -->
<g id="edge45" class="edge">
<title>u32&#45;&gt;u37</title>
<path fill="none" stroke="black" d="M1463.4,-2720.62C1709.72,-2676.98 2380.4,-2558.13 2633,-2513.37"/>
<polygon fill="black" stroke="black" points="2633.66,-2516.8 2642.9,-2511.61 2632.44,-2509.91 2633.66,-2516.8"/>
</g>
<!-- u32&#45;&gt;u33 -->
<g id="edge44" class="edge">
<title>u32&#45;&gt;u33</title>
<path fill="none" stroke="black" d="M1421.76,-2720.15C1551.69,-2677.02 1895.92,-2562.75 2036.2,-2516.18"/>
<polygon fill="black" stroke="black" points="2037.56,-2519.42 2045.94,-2512.95 2035.35,-2512.78 2037.56,-2519.42"/>
</g>
<!-- u31&#45;&gt;u37 -->
<g id="edge43" class="edge">
<title>u31&#45;&gt;u37</title>
<path fill="none" stroke="black" d="M2152.73,-2720.05C2264.06,-2676.92 2557.85,-2563.09 2678.32,-2516.41"/>
<polygon fill="black" stroke="black" points="2679.66,-2519.64 2687.72,-2512.77 2677.13,-2513.12 2679.66,-2519.64"/>
</g>
<!-- u31&#45;&gt;u33 -->
<g id="edge42" class="edge">
<title>u31&#45;&gt;u33</title>
<path fill="none" stroke="black" d="M2108.13,-2719.67C2106.07,-2678.24 2100.84,-2573.22 2098.35,-2523.24"/>
<polygon fill="black" stroke="black" points="2101.84,-2522.99 2097.85,-2513.18 2094.85,-2523.34 2101.84,-2522.99"/>
</g>
<!-- u30&#45;&gt;u37 -->
<g id="edge41" class="edge">
<title>u30&#45;&gt;u37</title>
<path fill="none" stroke="black" d="M2853.5,-2719.67C2830.62,-2677.89 2772.32,-2571.46 2745.23,-2522"/>
<polygon fill="black" stroke="black" points="2748.27,-2520.26 2740.4,-2513.18 2742.14,-2523.63 2748.27,-2520.26"/>
</g>
<!-- u30&#45;&gt;u33 -->
<g id="edge40" class="edge">
<title>u30&#45;&gt;u33</title>
<path fill="none" stroke="black" d="M2809.44,-2720.15C2672.12,-2676.95 2307.98,-2562.38 2160.42,-2515.96"/>
<polygon fill="black" stroke="black" points="2161.19,-2512.53 2150.6,-2512.87 2159.09,-2519.21 2161.19,-2512.53"/>
</g>
<!-- u21 -->
<g id="node54" class="node">
<title>u21</title>
<ellipse fill="#77ffff" stroke="black" cx="3238.99" cy="-2495" rx="267.55" ry="18"/>
<text text-anchor="middle" x="3238.99" y="-2491.3" font-family="Times,serif" font-size="14.00">Language.Drasil.Code.Imperative.Parsers.ConfigParser</text>
</g>
<!-- u21&#45;&gt;u36 -->
<g id="edge29" class="edge">
<title>u21&#45;&gt;u36</title>
<path fill="none" stroke="black" d="M3236.53,-2476.98C3230.56,-2435.69 3215.26,-2329.86 3207.97,-2279.47"/>
<polygon fill="black" stroke="black" points="3211.39,-2278.72 3206.5,-2269.32 3204.47,-2279.72 3211.39,-2278.72"/>
</g>
<!-- u10&#45;&gt;u12 -->
<g id="edge21" class="edge">
<title>u10&#45;&gt;u12</title>
<path fill="none" stroke="black" d="M2817.99,-772.72C2817.99,-676.57 2817.99,-207.49 2817.99,-89.15"/>
<polygon fill="black" stroke="black" points="2821.49,-89.12 2817.99,-79.12 2814.49,-89.12 2821.49,-89.12"/>
</g>
<!-- u9&#45;&gt;u53 -->
<g id="edge20" class="edge">
<title>u9&#45;&gt;u53</title>
<path fill="none" stroke="black" d="M3181.45,-1016.81C3320.28,-973.97 3696.91,-857.75 3847.01,-811.43"/>
<polygon fill="black" stroke="black" points="3848.47,-814.65 3857,-808.35 3846.41,-807.96 3848.47,-814.65"/>
</g>
<!-- u9&#45;&gt;u17 -->
<g id="edge19" class="edge">
<title>u9&#45;&gt;u17</title>
<path fill="none" stroke="black" d="M3154.66,-1016.05C3219.06,-973.53 3387.5,-862.31 3460,-814.44"/>
<polygon fill="black" stroke="black" points="3461.94,-817.36 3468.36,-808.93 3458.08,-811.52 3461.94,-817.36"/>
</g>
<!-- u9&#45;&gt;u16 -->
<g id="edge18" class="edge">
<title>u9&#45;&gt;u16</title>
<path fill="none" stroke="black" d="M3128.99,-1015.67C3128.99,-974.24 3128.99,-869.22 3128.99,-819.24"/>
<polygon fill="black" stroke="black" points="3132.49,-819.18 3128.99,-809.18 3125.49,-819.18 3132.49,-819.18"/>
</g>
<!-- u9&#45;&gt;u10 -->
<g id="edge17" class="edge">
<title>u9&#45;&gt;u10</title>
<path fill="none" stroke="black" d="M3107.13,-1016.05C3052.59,-973.79 2910.48,-863.67 2848.09,-815.33"/>
<polygon fill="black" stroke="black" points="2849.89,-812.29 2839.84,-808.93 2845.6,-817.82 2849.89,-812.29"/>
</g>
</g>
</svg>
