<?xml version="1.0" encoding="UTF-8" standalone="no"?>
<!DOCTYPE svg PUBLIC "-//W3C//DTD SVG 1.1//EN"
 "http://www.w3.org/Graphics/SVG/1.1/DTD/svg11.dtd">
<!-- Generated by graphviz version 2.43.0 (0)
 -->
<!-- Title: G Pages: 1 -->
<svg width="432pt" height="284pt"
 viewBox="0.00 0.00 432.00 284.10" xmlns="http://www.w3.org/2000/svg" xmlns:xlink="http://www.w3.org/1999/xlink">
<g id="graph0" class="graph" transform="scale(0.06 0.06) rotate(0) translate(4 4894)">
<title>G</title>
<polygon fill="white" stroke="transparent" points="-4,4 -4,-4894 7443.92,-4894 7443.92,4 -4,4"/>
<!-- u4 -->
<g id="node1" class="node">
<title>u4</title>
<ellipse fill="#bbffbb" stroke="black" cx="2701.92" cy="-4520" rx="62.29" ry="18"/>
<text text-anchor="middle" x="2701.92" y="-4516.3" font-family="Times,serif" font-size="14.00">HelloWorld</text>
</g>
<!-- u1 -->
<g id="node4" class="node">
<title>u1</title>
<ellipse fill="#bbffbb" stroke="black" cx="2701.92" cy="-4223" rx="42.49" ry="18"/>
<text text-anchor="middle" x="2701.92" y="-4219.3" font-family="Times,serif" font-size="14.00">Helper</text>
</g>
<!-- u4&#45;&gt;u1 -->
<g id="edge1" class="edge">
<title>u4&#45;&gt;u1</title>
<path fill="none" stroke="black" d="M2701.92,-4501.86C2701.92,-4452.78 2701.92,-4311.35 2701.92,-4251.39"/>
<polygon fill="black" stroke="black" points="2705.42,-4251.18 2701.92,-4241.18 2698.42,-4251.18 2705.42,-4251.18"/>
</g>
<!-- u3 -->
<g id="node2" class="node">
<title>u3</title>
<ellipse fill="#bbffbb" stroke="black" cx="2841.92" cy="-4520" rx="59.59" ry="18"/>
<text text-anchor="middle" x="2841.92" y="-4516.3" font-family="Times,serif" font-size="14.00">VectorTest</text>
</g>
<!-- u2 -->
<g id="node3" class="node">
<title>u2</title>
<ellipse fill="#bbffbb" stroke="black" cx="2995.92" cy="-4520" rx="76.09" ry="18"/>
<text text-anchor="middle" x="2995.92" y="-4516.3" font-family="Times,serif" font-size="14.00">NameGenTest</text>
</g>
<!-- u0 -->
<g id="node5" class="node">
<title>u0</title>
<ellipse fill="#bbffbb" stroke="black" cx="3142.92" cy="-4520" rx="52.79" ry="18"/>
<text text-anchor="middle" x="3142.92" y="-4516.3" font-family="Times,serif" font-size="14.00">FileTests</text>
</g>
<!-- u8 -->
<g id="node6" class="node">
<title>u8</title>
<ellipse fill="#ffffbb" stroke="black" cx="5811.92" cy="-1852" rx="214.46" ry="18"/>
<text text-anchor="middle" x="5811.92" y="-1848.3" font-family="Times,serif" font-size="14.00">Data.Drasil.ExternalLibraries.ODELibraries</text>
</g>
<!-- u9 -->
<g id="node59" class="node">
<title>u9</title>
<ellipse fill="#ff77ff" stroke="black" cx="5799.92" cy="-1556" rx="172.77" ry="18"/>
<text text-anchor="middle" x="5799.92" y="-1552.3" font-family="Times,serif" font-size="14.00">Language.Drasil.Data.ODELibPckg</text>
</g>
<!-- u8&#45;&gt;u9 -->
<g id="edge10" class="edge">
<title>u8&#45;&gt;u9</title>
<path fill="none" stroke="black" d="M5811.22,-1833.92C5809.23,-1785.01 5803.47,-1644.05 5801.03,-1584.3"/>
<polygon fill="black" stroke="black" points="5804.52,-1583.97 5800.62,-1574.12 5797.53,-1584.26 5804.52,-1583.97"/>
</g>
<!-- u7 -->
<g id="node7" class="node">
<title>u7</title>
<ellipse fill="#bbbbff" stroke="black" cx="3308.92" cy="-4520" rx="95.58" ry="18"/>
<text text-anchor="middle" x="3308.92" y="-4516.3" font-family="Times,serif" font-size="14.00">GOOL.PatternTest</text>
</g>
<!-- u6 -->
<g id="node8" class="node">
<title>u6</title>
<ellipse fill="#bbbbff" stroke="black" cx="3308.92" cy="-4223" rx="84.49" ry="18"/>
<text text-anchor="middle" x="3308.92" y="-4219.3" font-family="Times,serif" font-size="14.00">GOOL.Observer</text>
</g>
<!-- u7&#45;&gt;u6 -->
<g id="edge9" class="edge">
<title>u7&#45;&gt;u6</title>
<path fill="none" stroke="black" d="M3308.92,-4501.86C3308.92,-4452.78 3308.92,-4311.35 3308.92,-4251.39"/>
<polygon fill="black" stroke="black" points="3312.42,-4251.18 3308.92,-4241.18 3305.42,-4251.18 3312.42,-4251.18"/>
</g>
<!-- u59 -->
<g id="node9" class="node">
<title>u59</title>
<ellipse fill="#ffbbbb" stroke="black" cx="4431.92" cy="-4520" rx="113.18" ry="18"/>
<text text-anchor="middle" x="4431.92" y="-4516.3" font-family="Times,serif" font-size="14.00">Language.Drasil.Code</text>
</g>
<!-- u51 -->
<g id="node31" class="node">
<title>u51</title>
<ellipse fill="#77ff77" stroke="black" cx="5536.92" cy="-4223" rx="217.16" ry="18"/>
<text text-anchor="middle" x="5536.92" y="-4219.3" font-family="Times,serif" font-size="14.00">Language.Drasil.Code.Imperative.Generator</text>
</g>
<!-- u59&#45;&gt;u51 -->
<g id="edge88" class="edge">
<title>u59&#45;&gt;u51</title>
<path fill="none" stroke="black" d="M4487.09,-4504.27C4670.72,-4455.25 5261.14,-4297.62 5466.07,-4242.91"/>
<polygon fill="black" stroke="black" points="5467.06,-4246.27 5475.82,-4240.31 5465.26,-4239.51 5467.06,-4246.27"/>
</g>
<!-- u35 -->
<g id="node36" class="node">
<title>u35</title>
<ellipse fill="#77ff77" stroke="black" cx="4498.92" cy="-1556" rx="217.96" ry="18"/>
<text text-anchor="middle" x="4498.92" y="-1552.3" font-family="Times,serif" font-size="14.00">Language.Drasil.Code.Imperative.ReadInput</text>
</g>
<!-- u59&#45;&gt;u35 -->
<g id="edge87" class="edge">
<title>u59&#45;&gt;u35</title>
<path fill="none" stroke="black" d="M4431.92,-4501.6C4431.92,-4430.45 4431.92,-4154.76 4431.92,-3928 4431.92,-3928 4431.92,-3928 4431.92,-2148 4431.92,-1929.38 4477.75,-1668.14 4493.6,-1584.31"/>
<polygon fill="black" stroke="black" points="4497.07,-1584.8 4495.5,-1574.32 4490.19,-1583.49 4497.07,-1584.8"/>
</g>
<!-- u58 -->
<g id="node10" class="node">
<title>u58</title>
<ellipse fill="#ffbbbb" stroke="black" cx="5835.92" cy="-2149" rx="126.18" ry="18"/>
<text text-anchor="middle" x="5835.92" y="-2145.3" font-family="Times,serif" font-size="14.00">Language.Drasil.Choices</text>
</g>
<!-- u58&#45;&gt;u8 -->
<g id="edge86" class="edge">
<title>u58&#45;&gt;u8</title>
<path fill="none" stroke="black" d="M5834.52,-2130.86C5830.53,-2081.78 5819.02,-1940.35 5814.15,-1880.39"/>
<polygon fill="black" stroke="black" points="5817.62,-1879.87 5813.32,-1870.18 5810.64,-1880.43 5817.62,-1879.87"/>
</g>
<!-- u57 -->
<g id="node11" class="node">
<title>u57</title>
<ellipse fill="#ffbbbb" stroke="black" cx="2574.92" cy="-3927" rx="117.78" ry="18"/>
<text text-anchor="middle" x="2574.92" y="-3923.3" font-family="Times,serif" font-size="14.00">Language.Drasil.GOOL</text>
</g>
<!-- u48 -->
<g id="node52" class="node">
<title>u48</title>
<ellipse fill="#77ffff" stroke="black" cx="4044.92" cy="-3630" rx="358.54" ry="18"/>
<text text-anchor="middle" x="4044.92" y="-3626.3" font-family="Times,serif" font-size="14.00">Language.Drasil.Code.Imperative.GOOL.LanguageRenderer.SwiftRenderer</text>
</g>
<!-- u57&#45;&gt;u48 -->
<g id="edge85" class="edge">
<title>u57&#45;&gt;u48</title>
<path fill="none" stroke="black" d="M2643.36,-3912.27C2882.29,-3864.32 3679.61,-3704.31 3952.44,-3649.56"/>
<polygon fill="black" stroke="black" points="3953.19,-3652.98 3962.31,-3647.58 3951.82,-3646.11 3953.19,-3652.98"/>
</g>
<!-- u47 -->
<g id="node53" class="node">
<title>u47</title>
<ellipse fill="#77ffff" stroke="black" cx="352.92" cy="-3630" rx="352.84" ry="18"/>
<text text-anchor="middle" x="352.92" y="-3626.3" font-family="Times,serif" font-size="14.00">Language.Drasil.Code.Imperative.GOOL.LanguageRenderer.CppRenderer</text>
</g>
<!-- u57&#45;&gt;u47 -->
<g id="edge84" class="edge">
<title>u57&#45;&gt;u47</title>
<path fill="none" stroke="black" d="M2489.18,-3914.62C2148.97,-3869.45 892.89,-3702.69 483.12,-3648.29"/>
<polygon fill="black" stroke="black" points="483.39,-3644.79 473.01,-3646.94 482.47,-3651.73 483.39,-3644.79"/>
</g>
<!-- u46 -->
<g id="node54" class="node">
<title>u46</title>
<ellipse fill="#77ffff" stroke="black" cx="1092.92" cy="-3630" rx="369.33" ry="18"/>
<text text-anchor="middle" x="1092.92" y="-3626.3" font-family="Times,serif" font-size="14.00">Language.Drasil.Code.Imperative.GOOL.LanguageRenderer.CSharpRenderer</text>
</g>
<!-- u57&#45;&gt;u46 -->
<g id="edge83" class="edge">
<title>u57&#45;&gt;u46</title>
<path fill="none" stroke="black" d="M2506.41,-3912.36C2266.16,-3864.54 1461.59,-3704.39 1186.25,-3649.58"/>
<polygon fill="black" stroke="black" points="1186.78,-3646.12 1176.29,-3647.6 1185.42,-3652.98 1186.78,-3646.12"/>
</g>
<!-- u45 -->
<g id="node55" class="node">
<title>u45</title>
<ellipse fill="#77ffff" stroke="black" cx="1834.92" cy="-3630" rx="354.74" ry="18"/>
<text text-anchor="middle" x="1834.92" y="-3626.3" font-family="Times,serif" font-size="14.00">Language.Drasil.Code.Imperative.GOOL.LanguageRenderer.JuliaRenderer</text>
</g>
<!-- u57&#45;&gt;u45 -->
<g id="edge82" class="edge">
<title>u57&#45;&gt;u45</title>
<path fill="none" stroke="black" d="M2534.87,-3910.03C2409.98,-3860.25 2027.62,-3707.82 1887.28,-3651.87"/>
<polygon fill="black" stroke="black" points="1888.19,-3648.47 1877.6,-3648.02 1885.6,-3654.97 1888.19,-3648.47"/>
</g>
<!-- u44 -->
<g id="node56" class="node">
<title>u44</title>
<ellipse fill="#77ffff" stroke="black" cx="2574.92" cy="-3630" rx="367.43" ry="18"/>
<text text-anchor="middle" x="2574.92" y="-3626.3" font-family="Times,serif" font-size="14.00">Language.Drasil.Code.Imperative.GOOL.LanguageRenderer.PythonRenderer</text>
</g>
<!-- u57&#45;&gt;u44 -->
<g id="edge81" class="edge">
<title>u57&#45;&gt;u44</title>
<path fill="none" stroke="black" d="M2574.92,-3908.86C2574.92,-3859.78 2574.92,-3718.35 2574.92,-3658.39"/>
<polygon fill="black" stroke="black" points="2578.42,-3658.18 2574.92,-3648.18 2571.42,-3658.18 2578.42,-3658.18"/>
</g>
<!-- u43 -->
<g id="node57" class="node">
<title>u43</title>
<ellipse fill="#77ffff" stroke="black" cx="3313.92" cy="-3630" rx="354.44" ry="18"/>
<text text-anchor="middle" x="3313.92" y="-3626.3" font-family="Times,serif" font-size="14.00">Language.Drasil.Code.Imperative.GOOL.LanguageRenderer.JavaRenderer</text>
</g>
<!-- u57&#45;&gt;u43 -->
<g id="edge80" class="edge">
<title>u57&#45;&gt;u43</title>
<path fill="none" stroke="black" d="M2614.91,-3910.03C2739.63,-3860.25 3121.47,-3707.82 3261.63,-3651.87"/>
<polygon fill="black" stroke="black" points="3263.3,-3654.97 3271.29,-3648.02 3260.71,-3648.47 3263.3,-3654.97"/>
</g>
<!-- u56 -->
<g id="node12" class="node">
<title>u56</title>
<ellipse fill="#ffbbbb" stroke="black" cx="5369.92" cy="-2445" rx="135.68" ry="18"/>
<text text-anchor="middle" x="5369.92" y="-2441.3" font-family="Times,serif" font-size="14.00">Language.Drasil.CodeSpec</text>
</g>
<!-- u56&#45;&gt;u58 -->
<g id="edge79" class="edge">
<title>u56&#45;&gt;u58</title>
<path fill="none" stroke="black" d="M5396.65,-2427.14C5476.2,-2376.94 5711.49,-2228.5 5800.9,-2172.09"/>
<polygon fill="black" stroke="black" points="5803,-2174.91 5809.59,-2166.61 5799.26,-2168.99 5803,-2174.91"/>
</g>
<!-- u12 -->
<g id="node13" class="node">
<title>u12</title>
<ellipse fill="#ffbbbb" stroke="black" cx="5111.92" cy="-2149" rx="178.17" ry="18"/>
<text text-anchor="middle" x="5111.92" y="-2145.3" font-family="Times,serif" font-size="14.00">Language.Drasil.ICOSolutionSearch</text>
</g>
<!-- u56&#45;&gt;u12 -->
<g id="edge77" class="edge">
<title>u56&#45;&gt;u12</title>
<path fill="none" stroke="black" d="M5354.93,-2426.92C5311.38,-2377.29 5184.7,-2232.94 5133.63,-2174.75"/>
<polygon fill="black" stroke="black" points="5136.17,-2172.33 5126.95,-2167.12 5130.91,-2176.95 5136.17,-2172.33"/>
</g>
<!-- u14 -->
<g id="node19" class="node">
<title>u14</title>
<ellipse fill="#bbffff" stroke="black" cx="5499.92" cy="-2149" rx="192.27" ry="18"/>
<text text-anchor="middle" x="5499.92" y="-2145.3" font-family="Times,serif" font-size="14.00">Language.Drasil.Chunk.ConstraintMap</text>
</g>
<!-- u56&#45;&gt;u14 -->
<g id="edge78" class="edge">
<title>u56&#45;&gt;u14</title>
<path fill="none" stroke="black" d="M5377.47,-2426.92C5399.19,-2377.8 5461.94,-2235.88 5488.18,-2176.56"/>
<polygon fill="black" stroke="black" points="5491.5,-2177.69 5492.35,-2167.12 5485.1,-2174.85 5491.5,-2177.69"/>
</g>
<!-- u16 -->
<g id="node17" class="node">
<title>u16</title>
<ellipse fill="#bbffff" stroke="black" cx="5123.92" cy="-1852" rx="191.17" ry="18"/>
<text text-anchor="middle" x="5123.92" y="-1848.3" font-family="Times,serif" font-size="14.00">Language.Drasil.Chunk.CodeDefinition</text>
</g>
<!-- u12&#45;&gt;u16 -->
<g id="edge18" class="edge">
<title>u12&#45;&gt;u16</title>
<path fill="none" stroke="black" d="M5112.62,-2130.86C5114.61,-2081.78 5120.37,-1940.35 5122.8,-1880.39"/>
<polygon fill="black" stroke="black" points="5126.31,-1880.32 5123.22,-1870.18 5119.32,-1880.03 5126.31,-1880.32"/>
</g>
<!-- u11 -->
<g id="node14" class="node">
<title>u11</title>
<ellipse fill="#ffbbbb" stroke="black" cx="5431.92" cy="-963" rx="110.48" ry="18"/>
<text text-anchor="middle" x="5431.92" y="-959.3" font-family="Times,serif" font-size="14.00">Language.Drasil.Mod</text>
</g>
<!-- u13 -->
<g id="node20" class="node">
<title>u13</title>
<ellipse fill="#bbffff" stroke="black" cx="5395.92" cy="-667" rx="170.87" ry="18"/>
<text text-anchor="middle" x="5395.92" y="-663.3" font-family="Times,serif" font-size="14.00">Language.Drasil.Chunk.Parameter</text>
</g>
<!-- u11&#45;&gt;u13 -->
<g id="edge16" class="edge">
<title>u11&#45;&gt;u13</title>
<path fill="none" stroke="black" d="M5429.83,-944.92C5423.84,-896.01 5406.58,-755.05 5399.26,-695.3"/>
<polygon fill="black" stroke="black" points="5402.71,-694.63 5398.02,-685.12 5395.76,-695.48 5402.71,-694.63"/>
</g>
<!-- u22 -->
<g id="node26" class="node">
<title>u22</title>
<ellipse fill="#ffbbff" stroke="black" cx="4812.92" cy="-667" rx="160.57" ry="18"/>
<text text-anchor="middle" x="4812.92" y="-663.3" font-family="Times,serif" font-size="14.00">Language.Drasil.Code.DataDesc</text>
</g>
<!-- u11&#45;&gt;u22 -->
<g id="edge17" class="edge">
<title>u11&#45;&gt;u22</title>
<path fill="none" stroke="black" d="M5397.76,-945.77C5292.76,-895.9 4974.78,-744.88 4857.22,-689.04"/>
<polygon fill="black" stroke="black" points="4858.66,-685.85 4848.12,-684.72 4855.65,-692.17 4858.66,-685.85"/>
</g>
<!-- u18 -->
<g id="node15" class="node">
<title>u18</title>
<ellipse fill="#bbffff" stroke="black" cx="5123.92" cy="-74" rx="168.17" ry="18"/>
<text text-anchor="middle" x="5123.92" y="-70.3" font-family="Times,serif" font-size="14.00">Language.Drasil.Chunk.CodeBase</text>
</g>
<!-- u17 -->
<g id="node16" class="node">
<title>u17</title>
<ellipse fill="#bbffff" stroke="black" cx="5123.92" cy="-370" rx="145.67" ry="18"/>
<text text-anchor="middle" x="5123.92" y="-366.3" font-family="Times,serif" font-size="14.00">Language.Drasil.Chunk.Code</text>
</g>
<!-- u17&#45;&gt;u18 -->
<g id="edge21" class="edge">
<title>u17&#45;&gt;u18</title>
<path fill="none" stroke="black" d="M5123.92,-351.92C5123.92,-303.01 5123.92,-162.05 5123.92,-102.3"/>
<polygon fill="black" stroke="black" points="5127.42,-102.12 5123.92,-92.12 5120.42,-102.12 5127.42,-102.12"/>
</g>
<!-- u10 -->
<g id="node58" class="node">
<title>u10</title>
<ellipse fill="#ff77ff" stroke="black" cx="5123.92" cy="-1260" rx="154.07" ry="18"/>
<text text-anchor="middle" x="5123.92" y="-1256.3" font-family="Times,serif" font-size="14.00">Language.Drasil.Data.ODEInfo</text>
</g>
<!-- u16&#45;&gt;u10 -->
<g id="edge20" class="edge">
<title>u16&#45;&gt;u10</title>
<path fill="none" stroke="black" d="M5123.92,-1833.98C5123.92,-1751.22 5123.92,-1390.67 5123.92,-1288.23"/>
<polygon fill="black" stroke="black" points="5127.42,-1288.09 5123.92,-1278.09 5120.42,-1288.09 5127.42,-1288.09"/>
</g>
<!-- u15 -->
<g id="node18" class="node">
<title>u15</title>
<ellipse fill="#bbffff" stroke="black" cx="6007.92" cy="-963" rx="202.26" ry="18"/>
<text text-anchor="middle" x="6007.92" y="-959.3" font-family="Times,serif" font-size="14.00">Language.Drasil.Chunk.NamedArgument</text>
</g>
<!-- u13&#45;&gt;u17 -->
<g id="edge19" class="edge">
<title>u13&#45;&gt;u17</title>
<path fill="none" stroke="black" d="M5380.12,-648.86C5334.2,-599.07 5200.65,-454.22 5146.81,-395.83"/>
<polygon fill="black" stroke="black" points="5149.11,-393.16 5139.76,-388.18 5143.97,-397.91 5149.11,-393.16"/>
</g>
<!-- u55 -->
<g id="node21" class="node">
<title>u55</title>
<ellipse fill="#ffbbff" stroke="black" cx="6215.92" cy="-1260" rx="190.37" ry="18"/>
<text text-anchor="middle" x="6215.92" y="-1256.3" font-family="Times,serif" font-size="14.00">Language.Drasil.Code.ExternalLibrary</text>
</g>
<!-- u55&#45;&gt;u11 -->
<g id="edge75" class="edge">
<title>u55&#45;&gt;u11</title>
<path fill="none" stroke="black" d="M6171.8,-1242.4C6036.58,-1191.52 5628.3,-1037.89 5483.52,-983.41"/>
<polygon fill="black" stroke="black" points="5484.55,-980.06 5473.96,-979.82 5482.09,-986.62 5484.55,-980.06"/>
</g>
<!-- u55&#45;&gt;u15 -->
<g id="edge76" class="edge">
<title>u55&#45;&gt;u15</title>
<path fill="none" stroke="black" d="M6203.84,-1241.86C6168.87,-1192.27 6067.43,-1048.4 6025.93,-989.55"/>
<polygon fill="black" stroke="black" points="6028.66,-987.34 6020.03,-981.18 6022.94,-991.37 6028.66,-987.34"/>
</g>
<!-- u54 -->
<g id="node22" class="node">
<title>u54</title>
<ellipse fill="#ffbbff" stroke="black" cx="4776.92" cy="-3334" rx="176.57" ry="18"/>
<text text-anchor="middle" x="4776.92" y="-3330.3" font-family="Times,serif" font-size="14.00">Language.Drasil.Code.PackageFiles</text>
</g>
<!-- u21 -->
<g id="node27" class="node">
<title>u21</title>
<ellipse fill="#ffbbff" stroke="black" cx="5060.92" cy="-2445" rx="155.17" ry="18"/>
<text text-anchor="middle" x="5060.92" y="-2441.3" font-family="Times,serif" font-size="14.00">Language.Drasil.Code.FileData</text>
</g>
<!-- u54&#45;&gt;u21 -->
<g id="edge74" class="edge">
<title>u54&#45;&gt;u21</title>
<path fill="none" stroke="black" d="M4793.22,-3315.91C4831.3,-3274.88 4926.19,-3166.02 4969.92,-3056 5054.31,-2843.69 5061.24,-2561.52 5061.21,-2473.45"/>
<polygon fill="black" stroke="black" points="5064.71,-2473.22 5061.17,-2463.23 5057.71,-2473.24 5064.71,-2473.22"/>
</g>
<!-- u53 -->
<g id="node23" class="node">
<title>u53</title>
<ellipse fill="#ffbbff" stroke="black" cx="5434.92" cy="-1260" rx="139.18" ry="18"/>
<text text-anchor="middle" x="5434.92" y="-1256.3" font-family="Times,serif" font-size="14.00">Language.Drasil.Code.Lang</text>
</g>
<!-- u24 -->
<g id="node24" class="node">
<title>u24</title>
<ellipse fill="#ffbbff" stroke="black" cx="5799.92" cy="-1260" rx="207.96" ry="18"/>
<text text-anchor="middle" x="5799.92" y="-1256.3" font-family="Times,serif" font-size="14.00">Language.Drasil.Code.ExternalLibraryCall</text>
</g>
<!-- u24&#45;&gt;u11 -->
<g id="edge25" class="edge">
<title>u24&#45;&gt;u11</title>
<path fill="none" stroke="black" d="M5778.81,-1242.08C5716.44,-1192.08 5532.86,-1044.92 5461.12,-987.41"/>
<polygon fill="black" stroke="black" points="5462.93,-984.38 5452.94,-980.85 5458.55,-989.84 5462.93,-984.38"/>
</g>
<!-- u24&#45;&gt;u15 -->
<g id="edge26" class="edge">
<title>u24&#45;&gt;u15</title>
<path fill="none" stroke="black" d="M5812,-1241.86C5846.97,-1192.27 5948.41,-1048.4 5989.9,-989.55"/>
<polygon fill="black" stroke="black" points="5992.9,-991.37 5995.8,-981.18 5987.18,-987.34 5992.9,-991.37"/>
</g>
<!-- u23 -->
<g id="node25" class="node">
<title>u23</title>
<ellipse fill="#ffbbff" stroke="black" cx="4721.92" cy="-2445" rx="165.97" ry="18"/>
<text text-anchor="middle" x="4721.92" y="-2441.3" font-family="Times,serif" font-size="14.00">Language.Drasil.Code.FileNames</text>
</g>
<!-- u22&#45;&gt;u17 -->
<g id="edge24" class="edge">
<title>u22&#45;&gt;u17</title>
<path fill="none" stroke="black" d="M4830.98,-648.86C4883.7,-598.86 5037.44,-453.03 5098.49,-395.12"/>
<polygon fill="black" stroke="black" points="5100.96,-397.6 5105.8,-388.18 5096.14,-392.53 5100.96,-397.6"/>
</g>
<!-- u20 -->
<g id="node28" class="node">
<title>u20</title>
<ellipse fill="#ffbbff" stroke="black" cx="5312.92" cy="-3038" rx="204.16" ry="18"/>
<text text-anchor="middle" x="5312.92" y="-3034.3" font-family="Times,serif" font-size="14.00">Language.Drasil.Code.CodeQuantityDicts</text>
</g>
<!-- u19 -->
<g id="node29" class="node">
<title>u19</title>
<ellipse fill="#ffbbff" stroke="black" cx="6215.92" cy="-1556" rx="178.97" ry="18"/>
<text text-anchor="middle" x="6215.92" y="-1552.3" font-family="Times,serif" font-size="14.00">Language.Drasil.Code.ExtLibImport</text>
</g>
<!-- u19&#45;&gt;u55 -->
<g id="edge23" class="edge">
<title>u19&#45;&gt;u55</title>
<path fill="none" stroke="black" d="M6215.92,-1537.92C6215.92,-1489.01 6215.92,-1348.05 6215.92,-1288.3"/>
<polygon fill="black" stroke="black" points="6219.42,-1288.12 6215.92,-1278.12 6212.42,-1288.12 6219.42,-1288.12"/>
</g>
<!-- u19&#45;&gt;u24 -->
<g id="edge22" class="edge">
<title>u19&#45;&gt;u24</title>
<path fill="none" stroke="black" d="M6192.06,-1538.14C6121.35,-1488.16 5912.83,-1340.8 5832.23,-1283.83"/>
<polygon fill="black" stroke="black" points="5834.13,-1280.89 5823.94,-1277.98 5830.09,-1286.61 5834.13,-1280.89"/>
</g>
<!-- u52 -->
<g id="node30" class="node">
<title>u52</title>
<ellipse fill="#77ff77" stroke="black" cx="6587.92" cy="-3927" rx="226.66" ry="18"/>
<text text-anchor="middle" x="6587.92" y="-3923.3" font-family="Times,serif" font-size="14.00">Language.Drasil.Code.Imperative.SpaceMatch</text>
</g>
<!-- u31 -->
<g id="node40" class="node">
<title>u31</title>
<ellipse fill="#77ff77" stroke="black" cx="6253.92" cy="-2741" rx="222.06" ry="18"/>
<text text-anchor="middle" x="6253.92" y="-2737.3" font-family="Times,serif" font-size="14.00">Language.Drasil.Code.Imperative.DrasilState</text>
</g>
<!-- u52&#45;&gt;u31 -->
<g id="edge73" class="edge">
<title>u52&#45;&gt;u31</title>
<path fill="none" stroke="black" d="M6623.4,-3909.1C6807.19,-3819.37 7631.69,-3389 7344.92,-3020 7228.65,-2870.39 6662.72,-2787.94 6394.92,-2756.73"/>
<polygon fill="black" stroke="black" points="6395.07,-2753.23 6384.74,-2755.56 6394.27,-2760.18 6395.07,-2753.23"/>
</g>
<!-- u51&#45;&gt;u54 -->
<g id="edge72" class="edge">
<title>u51&#45;&gt;u54</title>
<path fill="none" stroke="black" d="M5522.08,-4204.68C5427.59,-4094.4 4910.36,-3490.75 4798.33,-3359.99"/>
<polygon fill="black" stroke="black" points="4800.71,-3357.39 4791.54,-3352.07 4795.39,-3361.94 4800.71,-3357.39"/>
</g>
<!-- u51&#45;&gt;u52 -->
<g id="edge71" class="edge">
<title>u51&#45;&gt;u52</title>
<path fill="none" stroke="black" d="M5595.68,-4205.56C5776.79,-4154.9 6325.9,-4001.29 6519.48,-3947.14"/>
<polygon fill="black" stroke="black" points="6520.56,-3950.48 6529.25,-3944.41 6518.68,-3943.73 6520.56,-3950.48"/>
</g>
<!-- u37 -->
<g id="node34" class="node">
<title>u37</title>
<ellipse fill="#77ff77" stroke="black" cx="5536.92" cy="-3927" rx="209.06" ry="18"/>
<text text-anchor="middle" x="5536.92" y="-3923.3" font-family="Times,serif" font-size="14.00">Language.Drasil.Code.Imperative.Modules</text>
</g>
<!-- u51&#45;&gt;u37 -->
<g id="edge70" class="edge">
<title>u51&#45;&gt;u37</title>
<path fill="none" stroke="black" d="M5536.92,-4204.92C5536.92,-4156.01 5536.92,-4015.05 5536.92,-3955.3"/>
<polygon fill="black" stroke="black" points="5540.42,-3955.12 5536.92,-3945.12 5533.42,-3955.12 5540.42,-3955.12"/>
</g>
<!-- u28 -->
<g id="node43" class="node">
<title>u28</title>
<ellipse fill="#77ff77" stroke="black" cx="6215.92" cy="-2445" rx="209.86" ry="18"/>
<text text-anchor="middle" x="6215.92" y="-2441.3" font-family="Times,serif" font-size="14.00">Language.Drasil.Code.Imperative.GenODE</text>
</g>
<!-- u51&#45;&gt;u28 -->
<g id="edge69" class="edge">
<title>u51&#45;&gt;u28</title>
<path fill="none" stroke="black" d="M5676.08,-4209.16C6114.77,-4164.87 7439.92,-4000.52 7439.92,-3631 7439.92,-3631 7439.92,-3631 7439.92,-3037 7439.92,-2586.75 6759.96,-2479.36 6413.63,-2453.86"/>
<polygon fill="black" stroke="black" points="6413.71,-2450.36 6403.48,-2453.13 6413.21,-2457.34 6413.71,-2450.36"/>
</g>
<!-- u50 -->
<g id="node32" class="node">
<title>u50</title>
<ellipse fill="#77ff77" stroke="black" cx="5199.92" cy="-3334" rx="228.26" ry="18"/>
<text text-anchor="middle" x="5199.92" y="-3330.3" font-family="Times,serif" font-size="14.00">Language.Drasil.Code.Imperative.Descriptions</text>
</g>
<!-- u50&#45;&gt;u31 -->
<g id="edge68" class="edge">
<title>u50&#45;&gt;u31</title>
<path fill="none" stroke="black" d="M5182.51,-3315.98C5133.33,-3265.85 5001.75,-3116.28 5077.92,-3020 5203.31,-2861.52 5805.98,-2784.13 6096.57,-2755.53"/>
<polygon fill="black" stroke="black" points="6097.16,-2758.99 6106.77,-2754.53 6096.48,-2752.02 6097.16,-2758.99"/>
</g>
<!-- u41 -->
<g id="node33" class="node">
<title>u41</title>
<ellipse fill="#77ff77" stroke="black" cx="5669.92" cy="-3334" rx="223.66" ry="18"/>
<text text-anchor="middle" x="5669.92" y="-3330.3" font-family="Times,serif" font-size="14.00">Language.Drasil.Code.Imperative.Parameters</text>
</g>
<!-- u41&#45;&gt;u20 -->
<g id="edge54" class="edge">
<title>u41&#45;&gt;u20</title>
<path fill="none" stroke="black" d="M5649.18,-3315.92C5588.55,-3265.99 5411.47,-3120.16 5341.68,-3062.68"/>
<polygon fill="black" stroke="black" points="5343.66,-3059.78 5333.71,-3056.12 5339.21,-3065.18 5343.66,-3059.78"/>
</g>
<!-- u41&#45;&gt;u31 -->
<g id="edge55" class="edge">
<title>u41&#45;&gt;u31</title>
<path fill="none" stroke="black" d="M5567.34,-3318C5368.82,-3284.72 4963.17,-3193.6 5099.92,-3020 5222.99,-2863.76 5816.54,-2785.08 6101.11,-2755.83"/>
<polygon fill="black" stroke="black" points="6101.51,-2759.31 6111.1,-2754.81 6100.8,-2752.34 6101.51,-2759.31"/>
</g>
<!-- u37&#45;&gt;u50 -->
<g id="edge50" class="edge">
<title>u37&#45;&gt;u50</title>
<path fill="none" stroke="black" d="M5527.2,-3908.95C5479.73,-3825.71 5272.32,-3461.96 5214.77,-3361.05"/>
<polygon fill="black" stroke="black" points="5217.67,-3359.07 5209.68,-3352.12 5211.59,-3362.54 5217.67,-3359.07"/>
</g>
<!-- u30 -->
<g id="node41" class="node">
<title>u30</title>
<ellipse fill="#77ff77" stroke="black" cx="5669.92" cy="-3630" rx="233.16" ry="18"/>
<text text-anchor="middle" x="5669.92" y="-3626.3" font-family="Times,serif" font-size="14.00">Language.Drasil.Code.Imperative.FunctionCalls</text>
</g>
<!-- u37&#45;&gt;u30 -->
<g id="edge49" class="edge">
<title>u37&#45;&gt;u30</title>
<path fill="none" stroke="black" d="M5544.64,-3908.86C5566.87,-3859.58 5631.07,-3717.17 5657.9,-3657.65"/>
<polygon fill="black" stroke="black" points="5661.25,-3658.74 5662.17,-3648.18 5654.87,-3655.86 5661.25,-3658.74"/>
</g>
<!-- u36 -->
<g id="node35" class="node">
<title>u36</title>
<ellipse fill="#77ff77" stroke="black" cx="5736.92" cy="-2445" rx="213.36" ry="18"/>
<text text-anchor="middle" x="5736.92" y="-2441.3" font-family="Times,serif" font-size="14.00">Language.Drasil.Code.Imperative.README</text>
</g>
<!-- u36&#45;&gt;u58 -->
<g id="edge48" class="edge">
<title>u36&#45;&gt;u58</title>
<path fill="none" stroke="black" d="M5742.67,-2426.92C5759.18,-2377.9 5806.8,-2236.47 5826.85,-2176.93"/>
<polygon fill="black" stroke="black" points="5830.28,-2177.72 5830.15,-2167.12 5823.64,-2175.48 5830.28,-2177.72"/>
</g>
<!-- u35&#45;&gt;u22 -->
<g id="edge47" class="edge">
<title>u35&#45;&gt;u22</title>
<path fill="none" stroke="black" d="M4505.05,-1537.68C4543.93,-1427.84 4756.08,-828.56 4803.51,-694.58"/>
<polygon fill="black" stroke="black" points="4806.84,-695.66 4806.88,-685.07 4800.24,-693.33 4806.84,-695.66"/>
</g>
<!-- u34 -->
<g id="node37" class="node">
<title>u34</title>
<ellipse fill="#77ff77" stroke="black" cx="6253.92" cy="-3334" rx="201.46" ry="18"/>
<text text-anchor="middle" x="6253.92" y="-3330.3" font-family="Times,serif" font-size="14.00">Language.Drasil.Code.Imperative.Import</text>
</g>
<!-- u34&#45;&gt;u20 -->
<g id="edge41" class="edge">
<title>u34&#45;&gt;u20</title>
<path fill="none" stroke="black" d="M6201.31,-3316.56C6039.47,-3266 5549.46,-3112.9 5375.23,-3058.47"/>
<polygon fill="black" stroke="black" points="5376.03,-3055.05 5365.45,-3055.41 5373.95,-3061.73 5376.03,-3055.05"/>
</g>
<!-- u33 -->
<g id="node38" class="node">
<title>u33</title>
<ellipse fill="#77ff77" stroke="black" cx="6698.92" cy="-3038" rx="207.16" ry="18"/>
<text text-anchor="middle" x="6698.92" y="-3034.3" font-family="Times,serif" font-size="14.00">Language.Drasil.Code.Imperative.Logging</text>
</g>
<!-- u34&#45;&gt;u33 -->
<g id="edge46" class="edge">
<title>u34&#45;&gt;u33</title>
<path fill="none" stroke="black" d="M6279.44,-3316.14C6355.24,-3266.06 6579.04,-3118.2 6664.88,-3061.49"/>
<polygon fill="black" stroke="black" points="6666.81,-3064.41 6673.22,-3055.98 6662.95,-3058.57 6666.81,-3064.41"/>
</g>
<!-- u32 -->
<g id="node39" class="node">
<title>u32</title>
<ellipse fill="#77ff77" stroke="black" cx="7129.92" cy="-3038" rx="206.06" ry="18"/>
<text text-anchor="middle" x="7129.92" y="-3034.3" font-family="Times,serif" font-size="14.00">Language.Drasil.Code.Imperative.Helpers</text>
</g>
<!-- u34&#45;&gt;u32 -->
<g id="edge45" class="edge">
<title>u34&#45;&gt;u32</title>
<path fill="none" stroke="black" d="M6303.21,-3316.46C6453.89,-3265.88 6908.05,-3113.46 7070.96,-3058.79"/>
<polygon fill="black" stroke="black" points="7072.44,-3061.98 7080.8,-3055.48 7070.21,-3055.35 7072.44,-3061.98"/>
</g>
<!-- u29 -->
<g id="node42" class="node">
<title>u29</title>
<ellipse fill="#77ff77" stroke="black" cx="6953.92" cy="-2741" rx="237.46" ry="18"/>
<text text-anchor="middle" x="6953.92" y="-2737.3" font-family="Times,serif" font-size="14.00">Language.Drasil.Code.Imperative.ConceptMatch</text>
</g>
<!-- u34&#45;&gt;u29 -->
<g id="edge44" class="edge">
<title>u34&#45;&gt;u29</title>
<path fill="none" stroke="black" d="M6381.23,-3319.97C6642.9,-3290.28 7226.59,-3208.13 7344.92,-3056 7451.15,-2919.43 7156.82,-2805.67 7019.82,-2761.61"/>
<polygon fill="black" stroke="black" points="7020.82,-2758.26 7010.23,-2758.56 7018.7,-2764.93 7020.82,-2758.26"/>
</g>
<!-- u27 -->
<g id="node44" class="node">
<title>u27</title>
<ellipse fill="#77ff77" stroke="black" cx="6253.92" cy="-3038" rx="219.86" ry="18"/>
<text text-anchor="middle" x="6253.92" y="-3034.3" font-family="Times,serif" font-size="14.00">Language.Drasil.Code.Imperative.Comments</text>
</g>
<!-- u34&#45;&gt;u27 -->
<g id="edge43" class="edge">
<title>u34&#45;&gt;u27</title>
<path fill="none" stroke="black" d="M6253.92,-3315.92C6253.92,-3267.01 6253.92,-3126.05 6253.92,-3066.3"/>
<polygon fill="black" stroke="black" points="6257.42,-3066.12 6253.92,-3056.12 6250.42,-3066.12 6257.42,-3066.12"/>
</g>
<!-- u26 -->
<g id="node45" class="node">
<title>u26</title>
<ellipse fill="#77ff77" stroke="black" cx="5775.92" cy="-3038" rx="240.46" ry="18"/>
<text text-anchor="middle" x="5775.92" y="-3034.3" font-family="Times,serif" font-size="14.00">Language.Drasil.Code.Imperative.GenerateGOOL</text>
</g>
<!-- u34&#45;&gt;u26 -->
<g id="edge42" class="edge">
<title>u34&#45;&gt;u26</title>
<path fill="none" stroke="black" d="M6226.5,-3316.14C6145.01,-3266.01 5904.2,-3117.9 5812.21,-3061.32"/>
<polygon fill="black" stroke="black" points="5813.87,-3058.24 5803.52,-3055.98 5810.21,-3064.2 5813.87,-3058.24"/>
</g>
<!-- u33&#45;&gt;u31 -->
<g id="edge40" class="edge">
<title>u33&#45;&gt;u31</title>
<path fill="none" stroke="black" d="M6673.4,-3020.08C6597.6,-2969.83 6373.79,-2821.47 6287.96,-2764.57"/>
<polygon fill="black" stroke="black" points="6289.88,-2761.64 6279.62,-2759.04 6286.02,-2767.48 6289.88,-2761.64"/>
</g>
<!-- u32&#45;&gt;u31 -->
<g id="edge39" class="edge">
<title>u32&#45;&gt;u31</title>
<path fill="none" stroke="black" d="M7080.94,-3020.51C6930.6,-2969.88 6476.02,-2816.79 6312.94,-2761.88"/>
<polygon fill="black" stroke="black" points="6313.68,-2758.43 6303.09,-2758.56 6311.45,-2765.07 6313.68,-2758.43"/>
</g>
<!-- u31&#45;&gt;u56 -->
<g id="edge38" class="edge">
<title>u31&#45;&gt;u56</title>
<path fill="none" stroke="black" d="M6203.86,-2723.35C6050.92,-2672.49 5590.35,-2519.31 5427.63,-2465.19"/>
<polygon fill="black" stroke="black" points="5428.4,-2461.76 5417.81,-2461.93 5426.19,-2468.4 5428.4,-2461.76"/>
</g>
<!-- u31&#45;&gt;u19 -->
<g id="edge37" class="edge">
<title>u31&#45;&gt;u19</title>
<path fill="none" stroke="black" d="M6270.54,-2722.77C6308.72,-2681.85 6401.89,-2573.94 6434.92,-2463 6537.34,-2119.03 6297.92,-1691.05 6232.1,-1582.79"/>
<polygon fill="black" stroke="black" points="6235.01,-1580.84 6226.8,-1574.15 6229.04,-1584.5 6235.01,-1580.84"/>
</g>
<!-- u30&#45;&gt;u41 -->
<g id="edge36" class="edge">
<title>u30&#45;&gt;u41</title>
<path fill="none" stroke="black" d="M5669.92,-3611.92C5669.92,-3563.01 5669.92,-3422.05 5669.92,-3362.3"/>
<polygon fill="black" stroke="black" points="5673.42,-3362.12 5669.92,-3352.12 5666.42,-3362.12 5673.42,-3362.12"/>
</g>
<!-- u30&#45;&gt;u34 -->
<g id="edge35" class="edge">
<title>u30&#45;&gt;u34</title>
<path fill="none" stroke="black" d="M5703.41,-3612.14C5803.5,-3561.75 6100.27,-3412.35 6211.33,-3356.44"/>
<polygon fill="black" stroke="black" points="6213.2,-3359.42 6220.56,-3351.79 6210.05,-3353.16 6213.2,-3359.42"/>
</g>
<!-- u29&#45;&gt;u58 -->
<g id="edge34" class="edge">
<title>u29&#45;&gt;u58</title>
<path fill="none" stroke="black" d="M6770.08,-2729.59C6561.27,-2708.89 6220.6,-2647.13 5996.92,-2463 5902.57,-2385.33 5857.37,-2237.99 5842.12,-2177.24"/>
<polygon fill="black" stroke="black" points="5845.46,-2176.15 5839.69,-2167.26 5838.65,-2177.81 5845.46,-2176.15"/>
</g>
<!-- u28&#45;&gt;u58 -->
<g id="edge33" class="edge">
<title>u28&#45;&gt;u58</title>
<path fill="none" stroke="black" d="M6193.85,-2426.92C6129.02,-2376.77 5939.16,-2229.88 5865.56,-2172.93"/>
<polygon fill="black" stroke="black" points="5867.63,-2170.11 5857.58,-2166.76 5863.35,-2175.65 5867.63,-2170.11"/>
</g>
<!-- u28&#45;&gt;u16 -->
<g id="edge31" class="edge">
<title>u28&#45;&gt;u16</title>
<path fill="none" stroke="black" d="M6207.31,-2426.89C6180.1,-2374.54 6090.67,-2215.04 5970.92,-2131 5740.51,-1969.31 5409.97,-1897.05 5237.87,-1868.76"/>
<polygon fill="black" stroke="black" points="5238.21,-1865.26 5227.78,-1867.12 5237.09,-1872.17 5238.21,-1865.26"/>
</g>
<!-- u28&#45;&gt;u19 -->
<g id="edge32" class="edge">
<title>u28&#45;&gt;u19</title>
<path fill="none" stroke="black" d="M6215.92,-2426.68C6215.92,-2317.06 6215.92,-1719.96 6215.92,-1584.39"/>
<polygon fill="black" stroke="black" points="6219.42,-1584.07 6215.92,-1574.07 6212.42,-1584.07 6219.42,-1584.07"/>
</g>
<!-- u27&#45;&gt;u31 -->
<g id="edge30" class="edge">
<title>u27&#45;&gt;u31</title>
<path fill="none" stroke="black" d="M6253.92,-3019.86C6253.92,-2970.78 6253.92,-2829.35 6253.92,-2769.39"/>
<polygon fill="black" stroke="black" points="6257.42,-2769.18 6253.92,-2759.18 6250.42,-2769.18 6257.42,-2769.18"/>
</g>
<!-- u26&#45;&gt;u31 -->
<g id="edge28" class="edge">
<title>u26&#45;&gt;u31</title>
<path fill="none" stroke="black" d="M5803.33,-3020.08C5884.83,-2969.78 6125.64,-2821.17 6217.63,-2764.39"/>
<polygon fill="black" stroke="black" points="6219.64,-2767.27 6226.32,-2759.04 6215.97,-2761.31 6219.64,-2767.27"/>
</g>
<!-- u42 -->
<g id="node50" class="node">
<title>u42</title>
<ellipse fill="#ff7777" stroke="black" cx="4726.92" cy="-2741" rx="267.25" ry="18"/>
<text text-anchor="middle" x="4726.92" y="-2737.3" font-family="Times,serif" font-size="14.00">Language.Drasil.Code.Imperative.GOOL.ClassInterface</text>
</g>
<!-- u26&#45;&gt;u42 -->
<g id="edge29" class="edge">
<title>u26&#45;&gt;u42</title>
<path fill="none" stroke="black" d="M5717.27,-3020.51C5536.61,-2969.7 4989.08,-2815.72 4795.57,-2761.31"/>
<polygon fill="black" stroke="black" points="4796.37,-2757.9 4785.8,-2758.56 4794.48,-2764.63 4796.37,-2757.9"/>
</g>
<!-- u25 -->
<g id="node46" class="node">
<title>u25</title>
<ellipse fill="#77ff77" stroke="black" cx="4689.92" cy="-1852" rx="219.86" ry="18"/>
<text text-anchor="middle" x="4689.92" y="-1848.3" font-family="Times,serif" font-size="14.00">Language.Drasil.Code.Imperative.WriteInput</text>
</g>
<!-- u25&#45;&gt;u22 -->
<g id="edge27" class="edge">
<title>u25&#45;&gt;u22</title>
<path fill="none" stroke="black" d="M4692.35,-1833.84C4698.47,-1790.41 4714.79,-1672.54 4725.92,-1574 4765.02,-1227.89 4801.29,-806.1 4810.61,-695.57"/>
<polygon fill="black" stroke="black" points="4814.12,-695.55 4811.48,-685.3 4807.15,-694.97 4814.12,-695.55"/>
</g>
<!-- u40 -->
<g id="node47" class="node">
<title>u40</title>
<ellipse fill="#ffff77" stroke="black" cx="3374.92" cy="-2741" rx="215.56" ry="18"/>
<text text-anchor="middle" x="3374.92" y="-2737.3" font-family="Times,serif" font-size="14.00">Language.Drasil.Code.Imperative.Build.AST</text>
</g>
<!-- u39 -->
<g id="node48" class="node">
<title>u39</title>
<ellipse fill="#ffff77" stroke="black" cx="3374.92" cy="-3038" rx="228.56" ry="18"/>
<text text-anchor="middle" x="3374.92" y="-3034.3" font-family="Times,serif" font-size="14.00">Language.Drasil.Code.Imperative.Build.Import</text>
</g>
<!-- u39&#45;&gt;u40 -->
<g id="edge52" class="edge">
<title>u39&#45;&gt;u40</title>
<path fill="none" stroke="black" d="M3374.92,-3019.86C3374.92,-2970.78 3374.92,-2829.35 3374.92,-2769.39"/>
<polygon fill="black" stroke="black" points="3378.42,-2769.18 3374.92,-2759.18 3371.42,-2769.18 3378.42,-2769.18"/>
</g>
<!-- u39&#45;&gt;u42 -->
<g id="edge53" class="edge">
<title>u39&#45;&gt;u42</title>
<path fill="none" stroke="black" d="M3448.57,-3020.93C3680.51,-2970.32 4395.07,-2814.41 4641.96,-2760.54"/>
<polygon fill="black" stroke="black" points="4642.93,-2763.91 4651.96,-2758.36 4641.44,-2757.07 4642.93,-2763.91"/>
</g>
<!-- u38 -->
<g id="node49" class="node">
<title>u38</title>
<ellipse fill="#7777ff" stroke="black" cx="4715.92" cy="-3038" rx="245.06" ry="18"/>
<text text-anchor="middle" x="4715.92" y="-3034.3" font-family="Times,serif" font-size="14.00">Language.Drasil.Code.Imperative.Doxygen.Import</text>
</g>
<!-- u38&#45;&gt;u42 -->
<g id="edge51" class="edge">
<title>u38&#45;&gt;u42</title>
<path fill="none" stroke="black" d="M4716.56,-3019.86C4718.39,-2970.78 4723.66,-2829.35 4725.9,-2769.39"/>
<polygon fill="black" stroke="black" points="4729.4,-2769.31 4726.28,-2759.18 4722.41,-2769.05 4729.4,-2769.31"/>
</g>
<!-- u42&#45;&gt;u23 -->
<g id="edge57" class="edge">
<title>u42&#45;&gt;u23</title>
<path fill="none" stroke="black" d="M4726.63,-2722.92C4725.8,-2674.01 4723.4,-2533.05 4722.38,-2473.3"/>
<polygon fill="black" stroke="black" points="4725.88,-2473.06 4722.21,-2463.12 4718.88,-2473.18 4725.88,-2473.06"/>
</g>
<!-- u42&#45;&gt;u21 -->
<g id="edge56" class="edge">
<title>u42&#45;&gt;u21</title>
<path fill="none" stroke="black" d="M4746.32,-2722.92C4802.93,-2673.09 4968.04,-2527.76 5033.61,-2470.04"/>
<polygon fill="black" stroke="black" points="5036.27,-2472.36 5041.46,-2463.12 5031.65,-2467.1 5036.27,-2472.36"/>
</g>
<!-- u42&#45;&gt;u36 -->
<g id="edge59" class="edge">
<title>u42&#45;&gt;u36</title>
<path fill="none" stroke="black" d="M4784.11,-2723.35C4958.86,-2672.48 5485.13,-2519.29 5671.01,-2465.18"/>
<polygon fill="black" stroke="black" points="5672.04,-2468.53 5680.66,-2462.38 5670.08,-2461.81 5672.04,-2468.53"/>
</g>
<!-- u42&#45;&gt;u25 -->
<g id="edge58" class="edge">
<title>u42&#45;&gt;u25</title>
<path fill="none" stroke="black" d="M4710.38,-2722.75C4672.42,-2681.79 4579.76,-2573.8 4546.92,-2463 4480.78,-2239.84 4625.11,-1963.56 4674.28,-1878.87"/>
<polygon fill="black" stroke="black" points="4677.34,-1880.57 4679.39,-1870.17 4671.31,-1877.02 4677.34,-1880.57"/>
</g>
<!-- u49 -->
<g id="node51" class="node">
<title>u49</title>
<ellipse fill="#77ffff" stroke="black" cx="2943.92" cy="-3334" rx="393.73" ry="18"/>
<text text-anchor="middle" x="2943.92" y="-3330.3" font-family="Times,serif" font-size="14.00">Language.Drasil.Code.Imperative.GOOL.LanguageRenderer.LanguagePolymorphic</text>
</g>
<!-- u49&#45;&gt;u39 -->
<g id="edge67" class="edge">
<title>u49&#45;&gt;u39</title>
<path fill="none" stroke="black" d="M2968.95,-3315.92C3042.61,-3265.68 3258.62,-3118.33 3341.77,-3061.61"/>
<polygon fill="black" stroke="black" points="3343.79,-3064.47 3350.08,-3055.94 3339.85,-3058.68 3343.79,-3064.47"/>
</g>
<!-- u49&#45;&gt;u38 -->
<g id="edge66" class="edge">
<title>u49&#45;&gt;u38</title>
<path fill="none" stroke="black" d="M3042.99,-3316.56C3351.85,-3265.32 4295.49,-3108.76 4611.53,-3056.32"/>
<polygon fill="black" stroke="black" points="4612.31,-3059.74 4621.6,-3054.65 4611.16,-3052.83 4612.31,-3059.74"/>
</g>
<!-- u48&#45;&gt;u49 -->
<g id="edge65" class="edge">
<title>u48&#45;&gt;u49</title>
<path fill="none" stroke="black" d="M3982.17,-3612.24C3791.53,-3561.34 3219.76,-3408.66 3016.56,-3354.4"/>
<polygon fill="black" stroke="black" points="3017.45,-3351.01 3006.88,-3351.81 3015.64,-3357.77 3017.45,-3351.01"/>
</g>
<!-- u47&#45;&gt;u49 -->
<g id="edge64" class="edge">
<title>u47&#45;&gt;u49</title>
<path fill="none" stroke="black" d="M490.39,-3613.4C935.02,-3562.95 2331.98,-3404.44 2793.95,-3352.02"/>
<polygon fill="black" stroke="black" points="2794.48,-3355.48 2804.02,-3350.87 2793.69,-3348.52 2794.48,-3355.48"/>
</g>
<!-- u46&#45;&gt;u49 -->
<g id="edge63" class="edge">
<title>u46&#45;&gt;u49</title>
<path fill="none" stroke="black" d="M1195.74,-3612.67C1516.3,-3561.75 2496.05,-3406.14 2830.58,-3353"/>
<polygon fill="black" stroke="black" points="2831.44,-3356.41 2840.77,-3351.38 2830.34,-3349.5 2831.44,-3356.41"/>
</g>
<!-- u45&#45;&gt;u49 -->
<g id="edge62" class="edge">
<title>u45&#45;&gt;u49</title>
<path fill="none" stroke="black" d="M1898.12,-3612.24C2090.15,-3561.34 2666.07,-3408.66 2870.75,-3354.4"/>
<polygon fill="black" stroke="black" points="2871.73,-3357.76 2880.5,-3351.81 2869.94,-3350.99 2871.73,-3357.76"/>
</g>
<!-- u44&#45;&gt;u49 -->
<g id="edge61" class="edge">
<title>u44&#45;&gt;u49</title>
<path fill="none" stroke="black" d="M2596.35,-3611.92C2659.02,-3561.99 2842.05,-3416.16 2914.19,-3358.68"/>
<polygon fill="black" stroke="black" points="2916.79,-3361.09 2922.43,-3352.12 2912.42,-3355.62 2916.79,-3361.09"/>
</g>
<!-- u43&#45;&gt;u49 -->
<g id="edge60" class="edge">
<title>u43&#45;&gt;u49</title>
<path fill="none" stroke="black" d="M3292.43,-3611.92C3229.59,-3561.99 3046.06,-3416.16 2973.73,-3358.68"/>
<polygon fill="black" stroke="black" points="2975.48,-3355.61 2965.47,-3352.12 2971.12,-3361.09 2975.48,-3355.61"/>
</g>
<!-- u10&#45;&gt;u17 -->
<g id="edge15" class="edge">
<title>u10&#45;&gt;u17</title>
<path fill="none" stroke="black" d="M5123.92,-1241.66C5123.92,-1131.92 5123.92,-534.14 5123.92,-398.42"/>
<polygon fill="black" stroke="black" points="5127.42,-398.09 5123.92,-388.09 5120.42,-398.09 5127.42,-398.09"/>
</g>
<!-- u9&#45;&gt;u55 -->
<g id="edge14" class="edge">
<title>u9&#45;&gt;u55</title>
<path fill="none" stroke="black" d="M5823.78,-1538.14C5894.49,-1488.16 6103.01,-1340.8 6183.61,-1283.83"/>
<polygon fill="black" stroke="black" points="6185.75,-1286.61 6191.9,-1277.98 6181.71,-1280.89 6185.75,-1286.61"/>
</g>
<!-- u9&#45;&gt;u53 -->
<g id="edge13" class="edge">
<title>u9&#45;&gt;u53</title>
<path fill="none" stroke="black" d="M5778.72,-1537.92C5716.73,-1487.99 5535.68,-1342.16 5464.32,-1284.68"/>
<polygon fill="black" stroke="black" points="5466.16,-1281.67 5456.18,-1278.12 5461.77,-1287.12 5466.16,-1281.67"/>
</g>
<!-- u9&#45;&gt;u24 -->
<g id="edge12" class="edge">
<title>u9&#45;&gt;u24</title>
<path fill="none" stroke="black" d="M5799.92,-1537.92C5799.92,-1489.01 5799.92,-1348.05 5799.92,-1288.3"/>
<polygon fill="black" stroke="black" points="5803.42,-1288.12 5799.92,-1278.12 5796.42,-1288.12 5803.42,-1288.12"/>
</g>
<!-- u9&#45;&gt;u10 -->
<g id="edge11" class="edge">
<title>u9&#45;&gt;u10</title>
<path fill="none" stroke="black" d="M5761.64,-1538.35C5645.67,-1487.92 5298.44,-1336.9 5171.26,-1281.59"/>
<polygon fill="black" stroke="black" points="5172.35,-1278.25 5161.78,-1277.47 5169.55,-1284.66 5172.35,-1278.25"/>
</g>
<!-- u5 -->
<g id="node60" class="node">
<title>u5</title>
<ellipse fill="#33ff33" stroke="black" cx="3142.92" cy="-4816" rx="108.58" ry="18"/>
<text text-anchor="middle" x="3142.92" y="-4812.3" font-family="Times,serif" font-size="14.00">drasil&#45;code.test.Main</text>
</g>
<!-- u5&#45;&gt;u4 -->
<g id="edge5" class="edge">
<title>u5&#45;&gt;u4</title>
<path fill="none" stroke="black" d="M3117.95,-4798.35C3042.63,-4748.14 2817.74,-4598.22 2733.9,-4542.32"/>
<polygon fill="black" stroke="black" points="2735.8,-4539.38 2725.54,-4536.75 2731.92,-4545.21 2735.8,-4539.38"/>
</g>
<!-- u5&#45;&gt;u3 -->
<g id="edge4" class="edge">
<title>u5&#45;&gt;u3</title>
<path fill="none" stroke="black" d="M3125.43,-4797.92C3074.28,-4747.96 2924.83,-4601.98 2866.05,-4544.57"/>
<polygon fill="black" stroke="black" points="2868.3,-4541.88 2858.7,-4537.4 2863.41,-4546.89 2868.3,-4541.88"/>
</g>
<!-- u5&#45;&gt;u2 -->
<g id="edge3" class="edge">
<title>u5&#45;&gt;u2</title>
<path fill="none" stroke="black" d="M3134.38,-4797.92C3109.77,-4748.7 3038.57,-4606.29 3009.01,-4547.19"/>
<polygon fill="black" stroke="black" points="3012.08,-4545.5 3004.48,-4538.12 3005.82,-4548.63 3012.08,-4545.5"/>
</g>
<!-- u5&#45;&gt;u0 -->
<g id="edge2" class="edge">
<title>u5&#45;&gt;u0</title>
<path fill="none" stroke="black" d="M3142.92,-4797.92C3142.92,-4749.01 3142.92,-4608.05 3142.92,-4548.3"/>
<polygon fill="black" stroke="black" points="3146.42,-4548.12 3142.92,-4538.12 3139.42,-4548.12 3146.42,-4548.12"/>
</g>
<!-- u5&#45;&gt;u7 -->
<g id="edge6" class="edge">
<title>u5&#45;&gt;u7</title>
<path fill="none" stroke="black" d="M3152.56,-4797.92C3180.35,-4748.7 3260.76,-4606.29 3294.13,-4547.19"/>
<polygon fill="black" stroke="black" points="3297.38,-4548.55 3299.25,-4538.12 3291.29,-4545.11 3297.38,-4548.55"/>
</g>
<!-- u5&#45;&gt;u59 -->
<g id="edge8" class="edge">
<title>u5&#45;&gt;u59</title>
<path fill="none" stroke="black" d="M3204.22,-4801.02C3418.06,-4752.25 4130.38,-4589.78 4359.95,-4537.42"/>
<polygon fill="black" stroke="black" points="4360.89,-4540.79 4369.86,-4535.15 4359.33,-4533.97 4360.89,-4540.79"/>
</g>
<!-- u5&#45;&gt;u57 -->
<g id="edge7" class="edge">
<title>u5&#45;&gt;u57</title>
<path fill="none" stroke="black" d="M3169.72,-4798.36C3227.65,-4760.59 3363.36,-4661.97 3413.92,-4538 3449.04,-4451.88 3675.25,-4569.07 3401.92,-4205 3309.93,-4082.47 2846.54,-3980.56 2656.46,-3943.24"/>
<polygon fill="black" stroke="black" points="2657.01,-3939.78 2646.52,-3941.3 2655.67,-3946.65 2657.01,-3939.78"/>
</g>
</g>
</svg>
