<?xml version="1.0" encoding="UTF-8" standalone="no"?>
<!DOCTYPE svg PUBLIC "-//W3C//DTD SVG 1.1//EN"
 "http://www.w3.org/Graphics/SVG/1.1/DTD/svg11.dtd">
<!-- Generated by graphviz version 2.43.0 (0)
 -->
<!-- Title: G Pages: 1 -->
<svg width="432pt" height="280pt"
 viewBox="0.00 0.00 432.00 279.70" xmlns="http://www.w3.org/2000/svg" xmlns:xlink="http://www.w3.org/1999/xlink">
<g id="graph0" class="graph" transform="scale(0.14 0.14) rotate(0) translate(4 1936.67)">
<title>G</title>
<polygon fill="white" stroke="transparent" points="-4,4 -4,-1936.67 2993.34,-1936.67 2993.34,4 -4,4"/>
<!-- u28 -->
<g id="node1" class="node">
<title>u28</title>
<ellipse fill="#bbffbb" stroke="black" cx="1863.34" cy="-1894" rx="69.59" ry="18"/>
<text text-anchor="middle" x="1863.34" y="-1890.3" font-family="Times,serif" font-size="14.00">Drasil.GProc</text>
</g>
<!-- u8 -->
<g id="node10" class="node">
<title>u8</title>
<ellipse fill="#ffffbb" stroke="black" cx="2543.34" cy="-812" rx="134.58" ry="18"/>
<text text-anchor="middle" x="2543.34" y="-808.3" font-family="Times,serif" font-size="14.00">Drasil.GOOL.CodeInfoProc</text>
</g>
<!-- u28&#45;&gt;u8 -->
<g id="edge49" class="edge">
<title>u28&#45;&gt;u8</title>
<path fill="none" stroke="black" d="M1930.83,-1889.29C2173.75,-1874.11 2989.34,-1806.73 2989.34,-1586 2989.34,-1586 2989.34,-1586 2989.34,-1120 2989.34,-944.56 2752.29,-861.75 2623.83,-829.76"/>
<polygon fill="black" stroke="black" points="2624.56,-826.34 2614.01,-827.36 2622.9,-833.14 2624.56,-826.34"/>
</g>
<!-- u20 -->
<g id="node19" class="node">
<title>u20</title>
<ellipse fill="#bbbbff" stroke="black" cx="1060.34" cy="-1739" rx="226.66" ry="18"/>
<text text-anchor="middle" x="1060.34" y="-1735.3" font-family="Times,serif" font-size="14.00">Drasil.GOOL.LanguageRenderer.JuliaRenderer</text>
</g>
<!-- u28&#45;&gt;u20 -->
<g id="edge50" class="edge">
<title>u28&#45;&gt;u20</title>
<path fill="none" stroke="black" d="M1809.1,-1882.66C1674.12,-1856.95 1321.9,-1789.84 1153.13,-1757.68"/>
<polygon fill="black" stroke="black" points="1153.75,-1754.23 1143.27,-1755.8 1152.44,-1761.11 1153.75,-1754.23"/>
</g>
<!-- u0 -->
<g id="node2" class="node">
<title>u0</title>
<ellipse fill="#bbffbb" stroke="black" cx="1941.34" cy="-1739" rx="69.59" ry="18"/>
<text text-anchor="middle" x="1941.34" y="-1735.3" font-family="Times,serif" font-size="14.00">Drasil.GOOL</text>
</g>
<!-- u4 -->
<g id="node14" class="node">
<title>u4</title>
<ellipse fill="#ffffbb" stroke="black" cx="2543.34" cy="-1276" rx="128.08" ry="18"/>
<text text-anchor="middle" x="2543.34" y="-1272.3" font-family="Times,serif" font-size="14.00">Drasil.GOOL.CodeInfoOO</text>
</g>
<!-- u0&#45;&gt;u4 -->
<g id="edge1" class="edge">
<title>u0&#45;&gt;u4</title>
<path fill="none" stroke="black" d="M2008.43,-1733.89C2221.32,-1720.19 2871.32,-1672.9 2932.34,-1603 3049.79,-1468.47 2737.44,-1342.62 2602.23,-1296.03"/>
<polygon fill="black" stroke="black" points="2603.02,-1292.6 2592.42,-1292.68 2600.75,-1299.22 2603.02,-1292.6"/>
</g>
<!-- u21 -->
<g id="node18" class="node">
<title>u21</title>
<ellipse fill="#bbbbff" stroke="black" cx="1696.34" cy="-1585" rx="241.26" ry="18"/>
<text text-anchor="middle" x="1696.34" y="-1581.3" font-family="Times,serif" font-size="14.00">Drasil.GOOL.LanguageRenderer.CSharpRenderer</text>
</g>
<!-- u0&#45;&gt;u21 -->
<g id="edge6" class="edge">
<title>u0&#45;&gt;u21</title>
<path fill="none" stroke="black" d="M1915.59,-1722.02C1871.66,-1694.77 1782.17,-1639.25 1732.18,-1608.23"/>
<polygon fill="black" stroke="black" points="1733.96,-1605.22 1723.61,-1602.92 1730.27,-1611.16 1733.96,-1605.22"/>
</g>
<!-- u16 -->
<g id="node23" class="node">
<title>u16</title>
<ellipse fill="#bbbbff" stroke="black" cx="2186.34" cy="-1585" rx="230.96" ry="18"/>
<text text-anchor="middle" x="2186.34" y="-1581.3" font-family="Times,serif" font-size="14.00">Drasil.GOOL.LanguageRenderer.SwiftRenderer</text>
</g>
<!-- u0&#45;&gt;u16 -->
<g id="edge5" class="edge">
<title>u0&#45;&gt;u16</title>
<path fill="none" stroke="black" d="M1967.1,-1722.02C2011.03,-1694.77 2100.51,-1639.25 2150.51,-1608.23"/>
<polygon fill="black" stroke="black" points="2152.42,-1611.16 2159.07,-1602.92 2148.73,-1605.22 2152.42,-1611.16"/>
</g>
<!-- u15 -->
<g id="node24" class="node">
<title>u15</title>
<ellipse fill="#bbbbff" stroke="black" cx="1211.34" cy="-1585" rx="225.56" ry="18"/>
<text text-anchor="middle" x="1211.34" y="-1581.3" font-family="Times,serif" font-size="14.00">Drasil.GOOL.LanguageRenderer.JavaRenderer</text>
</g>
<!-- u0&#45;&gt;u15 -->
<g id="edge4" class="edge">
<title>u0&#45;&gt;u15</title>
<path fill="none" stroke="black" d="M1888.84,-1727.07C1764.49,-1701.17 1450.94,-1635.89 1297.97,-1604.04"/>
<polygon fill="black" stroke="black" points="1298.63,-1600.6 1288.13,-1601.99 1297.2,-1607.45 1298.63,-1600.6"/>
</g>
<!-- u12 -->
<g id="node27" class="node">
<title>u12</title>
<ellipse fill="#bbbbff" stroke="black" cx="2698.34" cy="-1585" rx="224.76" ry="18"/>
<text text-anchor="middle" x="2698.34" y="-1581.3" font-family="Times,serif" font-size="14.00">Drasil.GOOL.LanguageRenderer.CppRenderer</text>
</g>
<!-- u0&#45;&gt;u12 -->
<g id="edge3" class="edge">
<title>u0&#45;&gt;u12</title>
<path fill="none" stroke="black" d="M1994.57,-1727.31C2122.84,-1701.56 2450.12,-1635.84 2609.05,-1603.93"/>
<polygon fill="black" stroke="black" points="2610.16,-1607.28 2619.27,-1601.88 2608.78,-1600.41 2610.16,-1607.28"/>
</g>
<!-- u10 -->
<g id="node29" class="node">
<title>u10</title>
<ellipse fill="#bbbbff" stroke="black" cx="728.34" cy="-1585" rx="239.36" ry="18"/>
<text text-anchor="middle" x="728.34" y="-1581.3" font-family="Times,serif" font-size="14.00">Drasil.GOOL.LanguageRenderer.PythonRenderer</text>
</g>
<!-- u0&#45;&gt;u10 -->
<g id="edge2" class="edge">
<title>u0&#45;&gt;u10</title>
<path fill="none" stroke="black" d="M1879.94,-1730.31C1690.79,-1706.6 1114.19,-1634.35 855.87,-1601.98"/>
<polygon fill="black" stroke="black" points="856.04,-1598.47 845.69,-1600.7 855.17,-1605.42 856.04,-1598.47"/>
</g>
<!-- u27 -->
<g id="node3" class="node">
<title>u27</title>
<ellipse fill="#ffffbb" stroke="black" cx="1733.34" cy="-657" rx="191.97" ry="18"/>
<text text-anchor="middle" x="1733.34" y="-653.3" font-family="Times,serif" font-size="14.00">Drasil.GOOL.RendererClassesCommon</text>
</g>
<!-- u25 -->
<g id="node5" class="node">
<title>u25</title>
<ellipse fill="#ffffbb" stroke="black" cx="2078.34" cy="-502" rx="155.17" ry="18"/>
<text text-anchor="middle" x="2078.34" y="-498.3" font-family="Times,serif" font-size="14.00">Drasil.GOOL.InterfaceCommon</text>
</g>
<!-- u27&#45;&gt;u25 -->
<g id="edge48" class="edge">
<title>u27&#45;&gt;u25</title>
<path fill="none" stroke="black" d="M1770.92,-639.34C1834.39,-611.19 1962.64,-554.31 2031.73,-523.67"/>
<polygon fill="black" stroke="black" points="2033.35,-526.78 2041.07,-519.53 2030.51,-520.38 2033.35,-526.78"/>
</g>
<!-- u26 -->
<g id="node4" class="node">
<title>u26</title>
<ellipse fill="#ffffbb" stroke="black" cx="1910.34" cy="-966" rx="161.37" ry="18"/>
<text text-anchor="middle" x="1910.34" y="-962.3" font-family="Times,serif" font-size="14.00">Drasil.GOOL.LanguageRenderer</text>
</g>
<!-- u3 -->
<g id="node15" class="node">
<title>u3</title>
<ellipse fill="#ffffbb" stroke="black" cx="1910.34" cy="-812" rx="165.17" ry="18"/>
<text text-anchor="middle" x="1910.34" y="-808.3" font-family="Times,serif" font-size="14.00">Drasil.GOOL.RendererClassesOO</text>
</g>
<!-- u26&#45;&gt;u3 -->
<g id="edge47" class="edge">
<title>u26&#45;&gt;u3</title>
<path fill="none" stroke="black" d="M1910.34,-947.86C1910.34,-921.75 1910.34,-871.74 1910.34,-840.51"/>
<polygon fill="black" stroke="black" points="1913.84,-840.31 1910.34,-830.31 1906.84,-840.31 1913.84,-840.31"/>
</g>
<!-- u23 -->
<g id="node7" class="node">
<title>u23</title>
<ellipse fill="#ffffbb" stroke="black" cx="2078.34" cy="-348" rx="96.68" ry="18"/>
<text text-anchor="middle" x="2078.34" y="-344.3" font-family="Times,serif" font-size="14.00">Drasil.GOOL.State</text>
</g>
<!-- u25&#45;&gt;u23 -->
<g id="edge46" class="edge">
<title>u25&#45;&gt;u23</title>
<path fill="none" stroke="black" d="M2078.34,-483.86C2078.34,-457.75 2078.34,-407.74 2078.34,-376.51"/>
<polygon fill="black" stroke="black" points="2081.84,-376.31 2078.34,-366.31 2074.84,-376.31 2081.84,-376.31"/>
</g>
<!-- u24 -->
<g id="node6" class="node">
<title>u24</title>
<ellipse fill="#ffffbb" stroke="black" cx="2373.34" cy="-657" rx="141.88" ry="18"/>
<text text-anchor="middle" x="2373.34" y="-653.3" font-family="Times,serif" font-size="14.00">Drasil.GOOL.InterfaceGOOL</text>
</g>
<!-- u24&#45;&gt;u25 -->
<g id="edge45" class="edge">
<title>u24&#45;&gt;u25</title>
<path fill="none" stroke="black" d="M2341.21,-639.34C2287.35,-611.4 2178.91,-555.16 2119.53,-524.36"/>
<polygon fill="black" stroke="black" points="2120.92,-521.14 2110.44,-519.64 2117.7,-527.36 2120.92,-521.14"/>
</g>
<!-- u22 -->
<g id="node8" class="node">
<title>u22</title>
<ellipse fill="#ffffbb" stroke="black" cx="2406.34" cy="-502" rx="108.58" ry="18"/>
<text text-anchor="middle" x="2406.34" y="-498.3" font-family="Times,serif" font-size="14.00">Drasil.GOOL.Helpers</text>
</g>
<!-- u24&#45;&gt;u22 -->
<g id="edge44" class="edge">
<title>u24&#45;&gt;u22</title>
<path fill="none" stroke="black" d="M2377.07,-638.75C2382.76,-612.35 2393.69,-561.69 2400.46,-530.28"/>
<polygon fill="black" stroke="black" points="2403.9,-530.94 2402.59,-520.43 2397.06,-529.46 2403.9,-530.94"/>
</g>
<!-- u6 -->
<g id="node12" class="node">
<title>u6</title>
<ellipse fill="#ffffbb" stroke="black" cx="2044.34" cy="-193" rx="133.78" ry="18"/>
<text text-anchor="middle" x="2044.34" y="-189.3" font-family="Times,serif" font-size="14.00">Drasil.GOOL.CodeAnalysis</text>
</g>
<!-- u23&#45;&gt;u6 -->
<g id="edge43" class="edge">
<title>u23&#45;&gt;u6</title>
<path fill="none" stroke="black" d="M2074.51,-329.75C2068.64,-303.35 2057.39,-252.69 2050.41,-221.28"/>
<polygon fill="black" stroke="black" points="2053.8,-220.43 2048.22,-211.43 2046.97,-221.95 2053.8,-220.43"/>
</g>
<!-- u5 -->
<g id="node13" class="node">
<title>u5</title>
<ellipse fill="#ffffbb" stroke="black" cx="2287.34" cy="-193" rx="90.98" ry="18"/>
<text text-anchor="middle" x="2287.34" y="-189.3" font-family="Times,serif" font-size="14.00">Drasil.GOOL.AST</text>
</g>
<!-- u23&#45;&gt;u5 -->
<g id="edge42" class="edge">
<title>u23&#45;&gt;u5</title>
<path fill="none" stroke="black" d="M2101.11,-330.34C2138.72,-302.8 2213.89,-247.77 2256.33,-216.71"/>
<polygon fill="black" stroke="black" points="2258.61,-219.38 2264.61,-210.64 2254.47,-213.73 2258.61,-219.38"/>
</g>
<!-- u9 -->
<g id="node9" class="node">
<title>u9</title>
<ellipse fill="#ffffbb" stroke="black" cx="2346.34" cy="-39" rx="118.08" ry="18"/>
<text text-anchor="middle" x="2346.34" y="-35.3" font-family="Times,serif" font-size="14.00">Drasil.GOOL.CodeType</text>
</g>
<!-- u22&#45;&gt;u9 -->
<g id="edge41" class="edge">
<title>u22&#45;&gt;u9</title>
<path fill="none" stroke="black" d="M2406.76,-483.87C2407.65,-435.12 2408.15,-291.65 2387.34,-175 2380.48,-136.51 2366.24,-93.54 2356.48,-66.64"/>
<polygon fill="black" stroke="black" points="2359.73,-65.33 2352.99,-57.15 2353.16,-67.75 2359.73,-65.33"/>
</g>
<!-- u8&#45;&gt;u22 -->
<g id="edge15" class="edge">
<title>u8&#45;&gt;u22</title>
<path fill="none" stroke="black" d="M2544.72,-793.78C2546.59,-761.81 2547.4,-691.71 2524.34,-639 2504.28,-593.12 2463.12,-551.41 2435.13,-526.61"/>
<polygon fill="black" stroke="black" points="2437.1,-523.69 2427.25,-519.78 2432.51,-528.98 2437.1,-523.69"/>
</g>
<!-- u2 -->
<g id="node16" class="node">
<title>u2</title>
<ellipse fill="#ffffbb" stroke="black" cx="2078.34" cy="-657" rx="135.38" ry="18"/>
<text text-anchor="middle" x="2078.34" y="-653.3" font-family="Times,serif" font-size="14.00">Drasil.GOOL.InterfaceProc</text>
</g>
<!-- u8&#45;&gt;u2 -->
<g id="edge14" class="edge">
<title>u8&#45;&gt;u2</title>
<path fill="none" stroke="black" d="M2494.9,-795.06C2408.71,-766.7 2229.13,-707.62 2136.46,-677.12"/>
<polygon fill="black" stroke="black" points="2137.28,-673.71 2126.68,-673.9 2135.09,-680.36 2137.28,-673.71"/>
</g>
<!-- u7 -->
<g id="node11" class="node">
<title>u7</title>
<ellipse fill="#ffffbb" stroke="black" cx="1555.34" cy="-812" rx="171.67" ry="18"/>
<text text-anchor="middle" x="1555.34" y="-808.3" font-family="Times,serif" font-size="14.00">Drasil.GOOL.RendererClassesProc</text>
</g>
<!-- u7&#45;&gt;u27 -->
<g id="edge13" class="edge">
<title>u7&#45;&gt;u27</title>
<path fill="none" stroke="black" d="M1575.07,-794.04C1606.88,-766.7 1669.59,-712.8 1705.79,-681.68"/>
<polygon fill="black" stroke="black" points="1708.22,-684.21 1713.53,-675.03 1703.66,-678.9 1708.22,-684.21"/>
</g>
<!-- u7&#45;&gt;u2 -->
<g id="edge12" class="edge">
<title>u7&#45;&gt;u2</title>
<path fill="none" stroke="black" d="M1610.33,-794.92C1708.14,-766.3 1911.8,-706.72 2015.19,-676.47"/>
<polygon fill="black" stroke="black" points="2016.26,-679.81 2024.88,-673.64 2014.3,-673.09 2016.26,-679.81"/>
</g>
<!-- u5&#45;&gt;u9 -->
<g id="edge11" class="edge">
<title>u5&#45;&gt;u9</title>
<path fill="none" stroke="black" d="M2294,-174.86C2304.22,-148.52 2323.88,-97.87 2335.98,-66.69"/>
<polygon fill="black" stroke="black" points="2339.27,-67.9 2339.62,-57.31 2332.74,-65.37 2339.27,-67.9"/>
</g>
<!-- u4&#45;&gt;u24 -->
<g id="edge10" class="edge">
<title>u4&#45;&gt;u24</title>
<path fill="none" stroke="black" d="M2536.69,-1257.9C2514.09,-1199.23 2439.49,-1000.32 2399.34,-830 2387.46,-779.6 2379.84,-719.57 2376.09,-685.4"/>
<polygon fill="black" stroke="black" points="2379.55,-684.84 2375.01,-675.27 2372.59,-685.58 2379.55,-684.84"/>
</g>
<!-- u3&#45;&gt;u27 -->
<g id="edge9" class="edge">
<title>u3&#45;&gt;u27</title>
<path fill="none" stroke="black" d="M1890.73,-794.04C1859.09,-766.7 1796.74,-712.8 1760.74,-681.68"/>
<polygon fill="black" stroke="black" points="1762.9,-678.93 1753.05,-675.03 1758.33,-684.22 1762.9,-678.93"/>
</g>
<!-- u3&#45;&gt;u24 -->
<g id="edge8" class="edge">
<title>u3&#45;&gt;u24</title>
<path fill="none" stroke="black" d="M1959.45,-794.77C2045.57,-766.31 2223.38,-707.56 2315.38,-677.15"/>
<polygon fill="black" stroke="black" points="2316.69,-680.41 2325.08,-673.95 2314.49,-673.76 2316.69,-680.41"/>
</g>
<!-- u2&#45;&gt;u25 -->
<g id="edge7" class="edge">
<title>u2&#45;&gt;u25</title>
<path fill="none" stroke="black" d="M2078.34,-638.75C2078.34,-612.46 2078.34,-562.13 2078.34,-530.69"/>
<polygon fill="black" stroke="black" points="2081.84,-530.43 2078.34,-520.43 2074.84,-530.43 2081.84,-530.43"/>
</g>
<!-- u1 -->
<g id="node17" class="node">
<title>u1</title>
<ellipse fill="#ffffbb" stroke="black" cx="2698.34" cy="-1430" rx="107.48" ry="18"/>
<text text-anchor="middle" x="2698.34" y="-1426.3" font-family="Times,serif" font-size="14.00">Drasil.GOOL.Classes</text>
</g>
<!-- u18 -->
<g id="node21" class="node">
<title>u18</title>
<ellipse fill="#bbbbff" stroke="black" cx="1238.34" cy="-1430" rx="196.87" ry="18"/>
<text text-anchor="middle" x="1238.34" y="-1426.3" font-family="Times,serif" font-size="14.00">Drasil.GOOL.LanguageRenderer.Macros</text>
</g>
<!-- u21&#45;&gt;u18 -->
<g id="edge40" class="edge">
<title>u21&#45;&gt;u18</title>
<path fill="none" stroke="black" d="M1646.46,-1567.34C1561.34,-1538.9 1388.46,-1481.15 1297.44,-1450.74"/>
<polygon fill="black" stroke="black" points="1298.42,-1447.38 1287.82,-1447.53 1296.2,-1454.02 1298.42,-1447.38"/>
</g>
<!-- u14 -->
<g id="node25" class="node">
<title>u14</title>
<ellipse fill="#bbbbff" stroke="black" cx="1704.34" cy="-1430" rx="251.56" ry="18"/>
<text text-anchor="middle" x="1704.34" y="-1426.3" font-family="Times,serif" font-size="14.00">Drasil.GOOL.LanguageRenderer.CommonPseudoOO</text>
</g>
<!-- u21&#45;&gt;u14 -->
<g id="edge39" class="edge">
<title>u21&#45;&gt;u14</title>
<path fill="none" stroke="black" d="M1697.25,-1566.75C1698.62,-1540.46 1701.25,-1490.13 1702.9,-1458.69"/>
<polygon fill="black" stroke="black" points="1706.41,-1458.59 1703.43,-1448.43 1699.42,-1458.23 1706.41,-1458.59"/>
</g>
<!-- u11 -->
<g id="node28" class="node">
<title>u11</title>
<ellipse fill="#bbbbff" stroke="black" cx="2178.34" cy="-1430" rx="189.27" ry="18"/>
<text text-anchor="middle" x="2178.34" y="-1426.3" font-family="Times,serif" font-size="14.00">Drasil.GOOL.LanguageRenderer.CLike</text>
</g>
<!-- u21&#45;&gt;u11 -->
<g id="edge38" class="edge">
<title>u21&#45;&gt;u11</title>
<path fill="none" stroke="black" d="M1748.84,-1567.34C1838.63,-1538.84 2021.21,-1480.88 2116.82,-1450.53"/>
<polygon fill="black" stroke="black" points="2118.17,-1453.77 2126.64,-1447.41 2116.05,-1447.1 2118.17,-1453.77"/>
</g>
<!-- u20&#45;&gt;u18 -->
<g id="edge37" class="edge">
<title>u20&#45;&gt;u18</title>
<path fill="none" stroke="black" d="M838.78,-1735.14C499.25,-1726.74 -99.32,-1694 14.34,-1567 82.15,-1491.24 724.96,-1452.98 1050.85,-1438.32"/>
<polygon fill="black" stroke="black" points="1051.04,-1441.81 1060.87,-1437.87 1050.73,-1434.82 1051.04,-1441.81"/>
</g>
<!-- u13 -->
<g id="node26" class="node">
<title>u13</title>
<ellipse fill="#bbbbff" stroke="black" cx="247.34" cy="-1585" rx="223.66" ry="18"/>
<text text-anchor="middle" x="247.34" y="-1581.3" font-family="Times,serif" font-size="14.00">Drasil.GOOL.LanguageRenderer.AbstractProc</text>
</g>
<!-- u20&#45;&gt;u13 -->
<g id="edge36" class="edge">
<title>u20&#45;&gt;u13</title>
<path fill="none" stroke="black" d="M976.02,-1722.23C823.19,-1693.66 501.49,-1633.52 341.64,-1603.63"/>
<polygon fill="black" stroke="black" points="341.82,-1600.1 331.34,-1601.7 340.53,-1606.98 341.82,-1600.1"/>
</g>
<!-- u20&#45;&gt;u11 -->
<g id="edge35" class="edge">
<title>u20&#45;&gt;u11</title>
<path fill="none" stroke="black" d="M1271.47,-1732.41C1635.65,-1720.57 2350.39,-1686.83 2426.34,-1603 2488.95,-1533.9 2344.68,-1477.76 2250.9,-1449.95"/>
<polygon fill="black" stroke="black" points="2251.72,-1446.54 2241.14,-1447.1 2249.76,-1453.26 2251.72,-1446.54"/>
</g>
<!-- u19 -->
<g id="node20" class="node">
<title>u19</title>
<ellipse fill="#bbbbff" stroke="black" cx="1749.34" cy="-1276" rx="265.65" ry="18"/>
<text text-anchor="middle" x="1749.34" y="-1272.3" font-family="Times,serif" font-size="14.00">Drasil.GOOL.LanguageRenderer.LanguagePolymorphic</text>
</g>
<!-- u17 -->
<g id="node22" class="node">
<title>u17</title>
<ellipse fill="#bbbbff" stroke="black" cx="1910.34" cy="-1121" rx="223.66" ry="18"/>
<text text-anchor="middle" x="1910.34" y="-1117.3" font-family="Times,serif" font-size="14.00">Drasil.GOOL.LanguageRenderer.Constructors</text>
</g>
<!-- u19&#45;&gt;u17 -->
<g id="edge34" class="edge">
<title>u19&#45;&gt;u17</title>
<path fill="none" stroke="black" d="M1767.5,-1257.75C1796.28,-1230.4 1852.45,-1177.02 1885.12,-1145.97"/>
<polygon fill="black" stroke="black" points="1887.66,-1148.38 1892.5,-1138.96 1882.84,-1143.31 1887.66,-1148.38"/>
</g>
<!-- u18&#45;&gt;u3 -->
<g id="edge33" class="edge">
<title>u18&#45;&gt;u3</title>
<path fill="none" stroke="black" d="M1255.14,-1411.79C1317.46,-1348.17 1542.1,-1121.03 1740.34,-948 1787.46,-906.88 1844.92,-862.34 1879.52,-836.1"/>
<polygon fill="black" stroke="black" points="1881.94,-838.66 1887.8,-829.84 1877.72,-833.08 1881.94,-838.66"/>
</g>
<!-- u17&#45;&gt;u26 -->
<g id="edge32" class="edge">
<title>u17&#45;&gt;u26</title>
<path fill="none" stroke="black" d="M1910.34,-1102.75C1910.34,-1076.46 1910.34,-1026.13 1910.34,-994.69"/>
<polygon fill="black" stroke="black" points="1913.84,-994.43 1910.34,-984.43 1906.84,-994.43 1913.84,-994.43"/>
</g>
<!-- u16&#45;&gt;u18 -->
<g id="edge31" class="edge">
<title>u16&#45;&gt;u18</title>
<path fill="none" stroke="black" d="M2090.67,-1568.56C1911.21,-1539.59 1525.57,-1477.36 1340.95,-1447.56"/>
<polygon fill="black" stroke="black" points="1341.39,-1444.09 1330.96,-1445.95 1340.28,-1451 1341.39,-1444.09"/>
</g>
<!-- u16&#45;&gt;u14 -->
<g id="edge30" class="edge">
<title>u16&#45;&gt;u14</title>
<path fill="none" stroke="black" d="M2133.84,-1567.34C2044.21,-1538.88 1862.07,-1481.07 1766.33,-1450.68"/>
<polygon fill="black" stroke="black" points="1767.37,-1447.33 1756.78,-1447.64 1765.25,-1454.01 1767.37,-1447.33"/>
</g>
<!-- u16&#45;&gt;u11 -->
<g id="edge29" class="edge">
<title>u16&#45;&gt;u11</title>
<path fill="none" stroke="black" d="M2185.44,-1566.75C2184.07,-1540.46 2181.44,-1490.13 2179.79,-1458.69"/>
<polygon fill="black" stroke="black" points="2183.27,-1458.23 2179.26,-1448.43 2176.28,-1458.59 2183.27,-1458.23"/>
</g>
<!-- u15&#45;&gt;u18 -->
<g id="edge28" class="edge">
<title>u15&#45;&gt;u18</title>
<path fill="none" stroke="black" d="M1214.39,-1566.75C1219.05,-1540.35 1227.99,-1489.69 1233.53,-1458.28"/>
<polygon fill="black" stroke="black" points="1236.98,-1458.88 1235.27,-1448.43 1230.08,-1457.66 1236.98,-1458.88"/>
</g>
<!-- u15&#45;&gt;u14 -->
<g id="edge27" class="edge">
<title>u15&#45;&gt;u14</title>
<path fill="none" stroke="black" d="M1264.57,-1567.48C1356.04,-1539.09 1542.67,-1481.17 1640.8,-1450.72"/>
<polygon fill="black" stroke="black" points="1642.08,-1453.99 1650.59,-1447.68 1640,-1447.3 1642.08,-1453.99"/>
</g>
<!-- u15&#45;&gt;u11 -->
<g id="edge26" class="edge">
<title>u15&#45;&gt;u11</title>
<path fill="none" stroke="black" d="M1308.04,-1568.7C1491.31,-1539.7 1887.66,-1476.99 2075.54,-1447.27"/>
<polygon fill="black" stroke="black" points="2076.1,-1450.72 2085.43,-1445.7 2075,-1443.81 2076.1,-1450.72"/>
</g>
<!-- u14&#45;&gt;u19 -->
<g id="edge25" class="edge">
<title>u14&#45;&gt;u19</title>
<path fill="none" stroke="black" d="M1709.42,-1411.86C1717.18,-1385.63 1732.08,-1335.31 1741.32,-1304.1"/>
<polygon fill="black" stroke="black" points="1744.74,-1304.89 1744.22,-1294.31 1738.02,-1302.91 1744.74,-1304.89"/>
</g>
<!-- u13&#45;&gt;u7 -->
<g id="edge23" class="edge">
<title>u13&#45;&gt;u7</title>
<path fill="none" stroke="black" d="M301.83,-1567.42C405.16,-1532.23 619.34,-1439.66 619.34,-1277 619.34,-1277 619.34,-1277 619.34,-1120 619.34,-950.5 1180.55,-859.43 1433.85,-826.95"/>
<polygon fill="black" stroke="black" points="1434.36,-830.42 1443.83,-825.68 1433.47,-823.47 1434.36,-830.42"/>
</g>
<!-- u13&#45;&gt;u14 -->
<g id="edge24" class="edge">
<title>u13&#45;&gt;u14</title>
<path fill="none" stroke="black" d="M377.6,-1570.32C649.38,-1541.78 1275.14,-1476.07 1559.27,-1446.23"/>
<polygon fill="black" stroke="black" points="1559.66,-1449.71 1569.23,-1445.19 1558.92,-1442.75 1559.66,-1449.71"/>
</g>
<!-- u12&#45;&gt;u1 -->
<g id="edge19" class="edge">
<title>u12&#45;&gt;u1</title>
<path fill="none" stroke="black" d="M2698.34,-1566.75C2698.34,-1540.46 2698.34,-1490.13 2698.34,-1458.69"/>
<polygon fill="black" stroke="black" points="2701.84,-1458.43 2698.34,-1448.43 2694.84,-1458.43 2701.84,-1458.43"/>
</g>
<!-- u12&#45;&gt;u18 -->
<g id="edge22" class="edge">
<title>u12&#45;&gt;u18</title>
<path fill="none" stroke="black" d="M2567.82,-1570.32C2291.9,-1541.41 1651.89,-1474.34 1372.67,-1445.08"/>
<polygon fill="black" stroke="black" points="1372.79,-1441.57 1362.48,-1444.01 1372.06,-1448.53 1372.79,-1441.57"/>
</g>
<!-- u12&#45;&gt;u14 -->
<g id="edge21" class="edge">
<title>u12&#45;&gt;u14</title>
<path fill="none" stroke="black" d="M2599.4,-1568.77C2412.85,-1540.06 2010.37,-1478.11 1815.1,-1448.05"/>
<polygon fill="black" stroke="black" points="1815.52,-1444.57 1805.1,-1446.51 1814.45,-1451.49 1815.52,-1444.57"/>
</g>
<!-- u12&#45;&gt;u11 -->
<g id="edge20" class="edge">
<title>u12&#45;&gt;u11</title>
<path fill="none" stroke="black" d="M2642.2,-1567.48C2545.02,-1538.89 2345.99,-1480.33 2243.12,-1450.06"/>
<polygon fill="black" stroke="black" points="2244.05,-1446.68 2233.47,-1447.22 2242.07,-1453.4 2244.05,-1446.68"/>
</g>
<!-- u11&#45;&gt;u17 -->
<g id="edge18" class="edge">
<title>u11&#45;&gt;u17</title>
<path fill="none" stroke="black" d="M2163.17,-1411.61C2118.12,-1360.01 1985.01,-1207.53 1932.25,-1147.09"/>
<polygon fill="black" stroke="black" points="1934.57,-1144.43 1925.35,-1139.19 1929.29,-1149.03 1934.57,-1144.43"/>
</g>
<!-- u10&#45;&gt;u18 -->
<g id="edge17" class="edge">
<title>u10&#45;&gt;u18</title>
<path fill="none" stroke="black" d="M783.41,-1567.48C878.5,-1538.95 1073.01,-1480.6 1174.11,-1450.27"/>
<polygon fill="black" stroke="black" points="1175.32,-1453.56 1183.9,-1447.33 1173.31,-1446.86 1175.32,-1453.56"/>
</g>
<!-- u10&#45;&gt;u14 -->
<g id="edge16" class="edge">
<title>u10&#45;&gt;u14</title>
<path fill="none" stroke="black" d="M826.85,-1568.56C1010.39,-1539.79 1403.42,-1478.17 1594.93,-1448.15"/>
<polygon fill="black" stroke="black" points="1595.68,-1451.58 1605.02,-1446.57 1594.59,-1444.66 1595.68,-1451.58"/>
</g>
</g>
</svg>
