<?xml version="1.0" encoding="UTF-8" standalone="no"?>
<!DOCTYPE svg PUBLIC "-//W3C//DTD SVG 1.1//EN"
 "http://www.w3.org/Graphics/SVG/1.1/DTD/svg11.dtd">
<!-- Generated by graphviz version 2.43.0 (0)
 -->
<!-- Title: G Pages: 1 -->
<svg width="431pt" height="288pt"
 viewBox="0.00 0.00 431.33 288.00" xmlns="http://www.w3.org/2000/svg" xmlns:xlink="http://www.w3.org/1999/xlink">
<g id="graph0" class="graph" transform="scale(0.2 0.2) rotate(0) translate(4 1444)">
<title>G</title>
<polygon fill="white" stroke="transparent" points="-4,4 -4,-1444 2164.62,-1444 2164.62,4 -4,4"/>
<!-- u18 -->
<g id="node1" class="node">
<title>u18</title>
<ellipse fill="#bbffbb" stroke="black" cx="1381.13" cy="-667" rx="119.68" ry="18"/>
<text text-anchor="middle" x="1381.13" y="-663.3" font-family="Times,serif" font-size="14.00">Language.Drasil.Config</text>
</g>
<!-- u17 -->
<g id="node2" class="node">
<title>u17</title>
<ellipse fill="#bbffbb" stroke="black" cx="1201.13" cy="-1413" rx="128.08" ry="18"/>
<text text-anchor="middle" x="1201.13" y="-1409.3" font-family="Times,serif" font-size="14.00">Language.Drasil.Printers</text>
</g>
<!-- u19 -->
<g id="node4" class="node">
<title>u19</title>
<ellipse fill="#ffffbb" stroke="black" cx="572.13" cy="-1307" rx="135.68" ry="18"/>
<text text-anchor="middle" x="572.13" y="-1303.3" font-family="Times,serif" font-size="14.00">Language.Drasil.DOT.Print</text>
</g>
<!-- u17&#45;&gt;u19 -->
<g id="edge31" class="edge">
<title>u17&#45;&gt;u19</title>
<path fill="none" stroke="black" d="M1121.47,-1398.83C1004.51,-1379.49 786.88,-1343.51 663.56,-1323.12"/>
<polygon fill="black" stroke="black" points="663.82,-1319.61 653.39,-1321.43 662.68,-1326.52 663.82,-1319.61"/>
</g>
<!-- u4 -->
<g id="node5" class="node">
<title>u4</title>
<ellipse fill="#bbbbff" stroke="black" cx="872.13" cy="-1307" rx="146.47" ry="18"/>
<text text-anchor="middle" x="872.13" y="-1303.3" font-family="Times,serif" font-size="14.00">Language.Drasil.Debug.Print</text>
</g>
<!-- u17&#45;&gt;u4 -->
<g id="edge29" class="edge">
<title>u17&#45;&gt;u4</title>
<path fill="none" stroke="black" d="M1151.52,-1396.32C1092.91,-1377.79 995.42,-1346.97 932.48,-1327.08"/>
<polygon fill="black" stroke="black" points="933.28,-1323.66 922.69,-1323.98 931.17,-1330.33 933.28,-1323.66"/>
</g>
<!-- u6 -->
<g id="node11" class="node">
<title>u6</title>
<ellipse fill="#bbffff" stroke="black" cx="1491.13" cy="-1200" rx="140.28" ry="18"/>
<text text-anchor="middle" x="1491.13" y="-1196.3" font-family="Times,serif" font-size="14.00">Language.Drasil.JSON.Print</text>
</g>
<!-- u17&#45;&gt;u6 -->
<g id="edge30" class="edge">
<title>u17&#45;&gt;u6</title>
<path fill="none" stroke="black" d="M1243.22,-1395.94C1280.01,-1380.78 1333.86,-1355.81 1375.13,-1325 1413.93,-1296.04 1450.69,-1253.21 1472.06,-1226.22"/>
<polygon fill="black" stroke="black" points="1475.04,-1228.08 1478.44,-1218.05 1469.52,-1223.78 1475.04,-1228.08"/>
</g>
<!-- u2 -->
<g id="node13" class="node">
<title>u2</title>
<ellipse fill="#ffbbff" stroke="black" cx="1972.13" cy="-1093" rx="188.47" ry="18"/>
<text text-anchor="middle" x="1972.13" y="-1089.3" font-family="Times,serif" font-size="14.00">Language.Drasil.Markdown.CreateMd</text>
</g>
<!-- u17&#45;&gt;u2 -->
<g id="edge28" class="edge">
<title>u17&#45;&gt;u2</title>
<path fill="none" stroke="black" d="M1240.43,-1395.79C1369.26,-1342.65 1778.83,-1173.73 1922.08,-1114.64"/>
<polygon fill="black" stroke="black" points="1923.62,-1117.8 1931.53,-1110.75 1920.95,-1111.33 1923.62,-1117.8"/>
</g>
<!-- u1 -->
<g id="node14" class="node">
<title>u1</title>
<ellipse fill="#ffbbff" stroke="black" cx="1201.13" cy="-1307" rx="165.17" ry="18"/>
<text text-anchor="middle" x="1201.13" y="-1303.3" font-family="Times,serif" font-size="14.00">Language.Drasil.Markdown.Book</text>
</g>
<!-- u17&#45;&gt;u1 -->
<g id="edge27" class="edge">
<title>u17&#45;&gt;u1</title>
<path fill="none" stroke="black" d="M1201.13,-1394.83C1201.13,-1378.64 1201.13,-1354.13 1201.13,-1335.27"/>
<polygon fill="black" stroke="black" points="1204.63,-1335.2 1201.13,-1325.2 1197.63,-1335.2 1204.63,-1335.2"/>
</g>
<!-- u16 -->
<g id="node3" class="node">
<title>u16</title>
<ellipse fill="#bbffbb" stroke="black" cx="1491.13" cy="-1093" rx="123.48" ry="18"/>
<text text-anchor="middle" x="1491.13" y="-1089.3" font-family="Times,serif" font-size="14.00">Language.Drasil.Format</text>
</g>
<!-- u5 -->
<g id="node16" class="node">
<title>u5</title>
<ellipse fill="#77ff77" stroke="black" cx="726.13" cy="-1200" rx="139.98" ry="18"/>
<text text-anchor="middle" x="726.13" y="-1196.3" font-family="Times,serif" font-size="14.00">Language.Drasil.Plain.Print</text>
</g>
<!-- u4&#45;&gt;u5 -->
<g id="edge8" class="edge">
<title>u4&#45;&gt;u5</title>
<path fill="none" stroke="black" d="M848.67,-1289.13C824.09,-1271.45 785.31,-1243.56 757.97,-1223.9"/>
<polygon fill="black" stroke="black" points="759.69,-1220.83 749.53,-1217.83 755.61,-1226.51 759.69,-1220.83"/>
</g>
<!-- u11 -->
<g id="node6" class="node">
<title>u11</title>
<ellipse fill="#ffbbbb" stroke="black" cx="1085.13" cy="-667" rx="157.87" ry="18"/>
<text text-anchor="middle" x="1085.13" y="-663.3" font-family="Times,serif" font-size="14.00">Language.Drasil.HTML.Helpers</text>
</g>
<!-- u21 -->
<g id="node21" class="node">
<title>u21</title>
<ellipse fill="#ffff77" stroke="black" cx="917.13" cy="-27" rx="149.47" ry="18"/>
<text text-anchor="middle" x="917.13" y="-23.3" font-family="Times,serif" font-size="14.00">Language.Drasil.Printing.AST</text>
</g>
<!-- u11&#45;&gt;u21 -->
<g id="edge19" class="edge">
<title>u11&#45;&gt;u21</title>
<path fill="none" stroke="black" d="M1061.85,-649.07C1019.94,-616.44 936.13,-540.37 936.13,-454 936.13,-454 936.13,-454 936.13,-239 936.13,-172.8 926.74,-95.38 921.16,-55.24"/>
<polygon fill="black" stroke="black" points="924.6,-54.59 919.73,-45.18 917.67,-55.58 924.6,-54.59"/>
</g>
<!-- u10 -->
<g id="node7" class="node">
<title>u10</title>
<ellipse fill="#ffbbbb" stroke="black" cx="1276.13" cy="-987" rx="153.27" ry="18"/>
<text text-anchor="middle" x="1276.13" y="-983.3" font-family="Times,serif" font-size="14.00">Language.Drasil.HTML.Monad</text>
</g>
<!-- u9 -->
<g id="node8" class="node">
<title>u9</title>
<ellipse fill="#ffbbbb" stroke="black" cx="1588.13" cy="-987" rx="140.28" ry="18"/>
<text text-anchor="middle" x="1588.13" y="-983.3" font-family="Times,serif" font-size="14.00">Language.Drasil.HTML.CSS</text>
</g>
<!-- u8 -->
<g id="node9" class="node">
<title>u8</title>
<ellipse fill="#ffbbbb" stroke="black" cx="1186.13" cy="-1093" rx="144.87" ry="18"/>
<text text-anchor="middle" x="1186.13" y="-1089.3" font-family="Times,serif" font-size="14.00">Language.Drasil.HTML.Print</text>
</g>
<!-- u8&#45;&gt;u11 -->
<g id="edge17" class="edge">
<title>u8&#45;&gt;u11</title>
<path fill="none" stroke="black" d="M1166.4,-1074.88C1149.3,-1058.75 1125.57,-1032.94 1114.13,-1005 1102.52,-976.64 1090.56,-770.48 1086.55,-695.32"/>
<polygon fill="black" stroke="black" points="1090.03,-695.02 1086.01,-685.22 1083.04,-695.39 1090.03,-695.02"/>
</g>
<!-- u8&#45;&gt;u10 -->
<g id="edge16" class="edge">
<title>u8&#45;&gt;u10</title>
<path fill="none" stroke="black" d="M1200.99,-1074.83C1215.58,-1057.97 1238,-1032.06 1254.55,-1012.94"/>
<polygon fill="black" stroke="black" points="1257.35,-1015.05 1261.25,-1005.2 1252.06,-1010.47 1257.35,-1015.05"/>
</g>
<!-- u8&#45;&gt;u9 -->
<g id="edge15" class="edge">
<title>u8&#45;&gt;u9</title>
<path fill="none" stroke="black" d="M1245.88,-1076.54C1318.73,-1057.7 1441.62,-1025.9 1518.62,-1005.98"/>
<polygon fill="black" stroke="black" points="1519.91,-1009.27 1528.71,-1003.37 1518.15,-1002.49 1519.91,-1009.27"/>
</g>
<!-- u12 -->
<g id="node35" class="node">
<title>u12</title>
<ellipse fill="#ff7777" stroke="black" cx="924.13" cy="-987" rx="133.48" ry="18"/>
<text text-anchor="middle" x="924.13" y="-983.3" font-family="Times,serif" font-size="14.00">Language.Drasil.TeX.Print</text>
</g>
<!-- u8&#45;&gt;u12 -->
<g id="edge18" class="edge">
<title>u8&#45;&gt;u12</title>
<path fill="none" stroke="black" d="M1144.91,-1075.64C1098.84,-1057.35 1024.23,-1027.73 974.68,-1008.06"/>
<polygon fill="black" stroke="black" points="975.7,-1004.71 965.12,-1004.27 973.12,-1011.21 975.7,-1004.71"/>
</g>
<!-- u7 -->
<g id="node10" class="node">
<title>u7</title>
<ellipse fill="#bbffff" stroke="black" cx="1756.13" cy="-773" rx="153.27" ry="18"/>
<text text-anchor="middle" x="1756.13" y="-769.3" font-family="Times,serif" font-size="14.00">Language.Drasil.JSON.Helpers</text>
</g>
<!-- u7&#45;&gt;u11 -->
<g id="edge13" class="edge">
<title>u7&#45;&gt;u11</title>
<path fill="none" stroke="black" d="M1667.37,-758.24C1542.4,-738.87 1315.29,-703.67 1184.71,-683.43"/>
<polygon fill="black" stroke="black" points="1185.13,-679.96 1174.71,-681.88 1184.05,-686.87 1185.13,-679.96"/>
</g>
<!-- u33 -->
<g id="node18" class="node">
<title>u33</title>
<ellipse fill="#ffff77" stroke="black" cx="1660.13" cy="-560" rx="167.07" ry="18"/>
<text text-anchor="middle" x="1660.13" y="-556.3" font-family="Times,serif" font-size="14.00">Language.Drasil.Printing.Helpers</text>
</g>
<!-- u7&#45;&gt;u33 -->
<g id="edge14" class="edge">
<title>u7&#45;&gt;u33</title>
<path fill="none" stroke="black" d="M1774.12,-754.76C1797.18,-730.46 1831.88,-685.1 1811.13,-649 1792.35,-616.32 1756.24,-594.63 1724.03,-580.96"/>
<polygon fill="black" stroke="black" points="1725.22,-577.67 1714.63,-577.15 1722.58,-584.15 1725.22,-577.67"/>
</g>
<!-- u6&#45;&gt;u16 -->
<g id="edge12" class="edge">
<title>u6&#45;&gt;u16</title>
<path fill="none" stroke="black" d="M1491.13,-1181.66C1491.13,-1165.22 1491.13,-1140.28 1491.13,-1121.19"/>
<polygon fill="black" stroke="black" points="1494.63,-1121.02 1491.13,-1111.02 1487.63,-1121.02 1494.63,-1121.02"/>
</g>
<!-- u6&#45;&gt;u8 -->
<g id="edge11" class="edge">
<title>u6&#45;&gt;u8</title>
<path fill="none" stroke="black" d="M1444.48,-1182.94C1390.21,-1164.26 1300.66,-1133.43 1242.54,-1113.42"/>
<polygon fill="black" stroke="black" points="1243.38,-1110.01 1232.78,-1110.06 1241.1,-1116.62 1243.38,-1110.01"/>
</g>
<!-- u6&#45;&gt;u7 -->
<g id="edge10" class="edge">
<title>u6&#45;&gt;u7</title>
<path fill="none" stroke="black" d="M1529.13,-1182.52C1586.64,-1155.2 1693.67,-1094.54 1737.13,-1005 1769.84,-937.61 1765.03,-846.09 1759.97,-801.16"/>
<polygon fill="black" stroke="black" points="1763.42,-800.53 1758.73,-791.03 1756.47,-801.38 1763.42,-800.53"/>
</g>
<!-- u3 -->
<g id="node12" class="node">
<title>u3</title>
<ellipse fill="#ffbbff" stroke="black" cx="899.13" cy="-773" rx="178.97" ry="18"/>
<text text-anchor="middle" x="899.13" y="-769.3" font-family="Times,serif" font-size="14.00">Language.Drasil.Markdown.Helpers</text>
</g>
<!-- u3&#45;&gt;u11 -->
<g id="edge5" class="edge">
<title>u3&#45;&gt;u11</title>
<path fill="none" stroke="black" d="M929.43,-755.06C961.28,-737.25 1011.48,-709.18 1046.23,-689.75"/>
<polygon fill="black" stroke="black" points="1048.14,-692.7 1055.16,-684.76 1044.72,-686.59 1048.14,-692.7"/>
</g>
<!-- u34 -->
<g id="node17" class="node">
<title>u34</title>
<ellipse fill="#ffff77" stroke="black" cx="692.13" cy="-667" rx="178.97" ry="18"/>
<text text-anchor="middle" x="692.13" y="-663.3" font-family="Times,serif" font-size="14.00">Language.Drasil.Printing.LayoutObj</text>
</g>
<!-- u3&#45;&gt;u34 -->
<g id="edge7" class="edge">
<title>u3&#45;&gt;u34</title>
<path fill="none" stroke="black" d="M865.87,-755.29C830.22,-737.38 773.5,-708.88 734.64,-689.35"/>
<polygon fill="black" stroke="black" points="736.16,-686.2 725.65,-684.84 733.02,-692.46 736.16,-686.2"/>
</g>
<!-- u3&#45;&gt;u33 -->
<g id="edge6" class="edge">
<title>u3&#45;&gt;u33</title>
<path fill="none" stroke="black" d="M896.01,-754.84C892.23,-728.07 889.53,-676.61 918.13,-649 959.49,-609.07 1299.32,-582.25 1504.45,-569.52"/>
<polygon fill="black" stroke="black" points="1504.96,-573 1514.73,-568.89 1504.53,-566.01 1504.96,-573"/>
</g>
<!-- u2&#45;&gt;u33 -->
<g id="edge4" class="edge">
<title>u2&#45;&gt;u33</title>
<path fill="none" stroke="black" d="M1969.67,-1074.81C1964.74,-1038.9 1954.13,-953.24 1954.13,-881 1954.13,-881 1954.13,-881 1954.13,-772 1954.13,-664.21 1822.08,-606.13 1734.98,-579.54"/>
<polygon fill="black" stroke="black" points="1735.96,-576.18 1725.38,-576.68 1733.97,-582.89 1735.96,-576.18"/>
</g>
<!-- u0 -->
<g id="node15" class="node">
<title>u0</title>
<ellipse fill="#ffbbff" stroke="black" cx="1168.13" cy="-1200" rx="165.17" ry="18"/>
<text text-anchor="middle" x="1168.13" y="-1196.3" font-family="Times,serif" font-size="14.00">Language.Drasil.Markdown.Print</text>
</g>
<!-- u1&#45;&gt;u0 -->
<g id="edge3" class="edge">
<title>u1&#45;&gt;u0</title>
<path fill="none" stroke="black" d="M1195.68,-1288.66C1190.47,-1272.07 1182.53,-1246.81 1176.51,-1227.66"/>
<polygon fill="black" stroke="black" points="1179.82,-1226.51 1173.48,-1218.02 1173.14,-1228.61 1179.82,-1226.51"/>
</g>
<!-- u0&#45;&gt;u8 -->
<g id="edge2" class="edge">
<title>u0&#45;&gt;u8</title>
<path fill="none" stroke="black" d="M1171.1,-1181.66C1173.94,-1165.15 1178.24,-1140.05 1181.52,-1120.93"/>
<polygon fill="black" stroke="black" points="1184.97,-1121.46 1183.22,-1111.02 1178.08,-1120.28 1184.97,-1121.46"/>
</g>
<!-- u0&#45;&gt;u3 -->
<g id="edge1" class="edge">
<title>u0&#45;&gt;u3</title>
<path fill="none" stroke="black" d="M1097.46,-1183.63C1009.29,-1160.6 860.6,-1108.34 782.13,-1005 743.29,-953.84 730.25,-918.33 761.13,-862 778.33,-830.64 811.98,-808.84 841.74,-794.79"/>
<polygon fill="black" stroke="black" points="843.58,-797.8 851.25,-790.49 840.69,-791.42 843.58,-797.8"/>
</g>
<!-- u20 -->
<g id="node22" class="node">
<title>u20</title>
<ellipse fill="#ffff77" stroke="black" cx="552.13" cy="-880" rx="162.47" ry="18"/>
<text text-anchor="middle" x="552.13" y="-876.3" font-family="Times,serif" font-size="14.00">Language.Drasil.Printing.Import</text>
</g>
<!-- u5&#45;&gt;u20 -->
<g id="edge9" class="edge">
<title>u5&#45;&gt;u20</title>
<path fill="none" stroke="black" d="M716.78,-1181.9C688.04,-1129.38 600.91,-970.15 566.41,-907.1"/>
<polygon fill="black" stroke="black" points="569.4,-905.27 561.53,-898.18 563.26,-908.63 569.4,-905.27"/>
</g>
<!-- u32 -->
<g id="node19" class="node">
<title>u32</title>
<ellipse fill="#ffff77" stroke="black" cx="1132.13" cy="-453" rx="167.87" ry="18"/>
<text text-anchor="middle" x="1132.13" y="-449.3" font-family="Times,serif" font-size="14.00">Language.Drasil.Printing.Citation</text>
</g>
<!-- u34&#45;&gt;u32 -->
<g id="edge49" class="edge">
<title>u34&#45;&gt;u32</title>
<path fill="none" stroke="black" d="M727.03,-649.19C806.55,-610.87 1001.09,-517.14 1088.43,-475.06"/>
<polygon fill="black" stroke="black" points="1090.05,-478.16 1097.54,-470.67 1087.01,-471.86 1090.05,-478.16"/>
</g>
<!-- u33&#45;&gt;u32 -->
<g id="edge48" class="edge">
<title>u33&#45;&gt;u32</title>
<path fill="none" stroke="black" d="M1584.2,-543.9C1487.13,-524.6 1319.49,-491.26 1217.9,-471.06"/>
<polygon fill="black" stroke="black" points="1218.47,-467.6 1207.98,-469.08 1217.11,-474.47 1218.47,-467.6"/>
</g>
<!-- u32&#45;&gt;u21 -->
<g id="edge47" class="edge">
<title>u32&#45;&gt;u21</title>
<path fill="none" stroke="black" d="M1123.44,-434.85C1090.21,-369.33 971.12,-134.47 930.68,-54.72"/>
<polygon fill="black" stroke="black" points="933.58,-52.7 925.93,-45.36 927.34,-55.86 933.58,-52.7"/>
</g>
<!-- u31 -->
<g id="node20" class="node">
<title>u31</title>
<ellipse fill="#ffff77" stroke="black" cx="646.13" cy="-133" rx="223.66" ry="18"/>
<text text-anchor="middle" x="646.13" y="-129.3" font-family="Times,serif" font-size="14.00">Language.Drasil.Printing.PrintingInformation</text>
</g>
<!-- u27 -->
<g id="node26" class="node">
<title>u27</title>
<ellipse fill="#7777ff" stroke="black" cx="451.13" cy="-773" rx="212.56" ry="18"/>
<text text-anchor="middle" x="451.13" y="-769.3" font-family="Times,serif" font-size="14.00">Language.Drasil.Printing.Import.Document</text>
</g>
<!-- u20&#45;&gt;u27 -->
<g id="edge32" class="edge">
<title>u20&#45;&gt;u27</title>
<path fill="none" stroke="black" d="M535.45,-861.66C518.83,-844.38 493.17,-817.7 474.52,-798.31"/>
<polygon fill="black" stroke="black" points="476.95,-795.8 467.5,-791.02 471.91,-800.65 476.95,-795.8"/>
</g>
<!-- u30 -->
<g id="node23" class="node">
<title>u30</title>
<ellipse fill="#7777ff" stroke="black" cx="242.13" cy="-240" rx="196.07" ry="18"/>
<text text-anchor="middle" x="242.13" y="-236.3" font-family="Times,serif" font-size="14.00">Language.Drasil.Printing.Import.Literal</text>
</g>
<!-- u30&#45;&gt;u31 -->
<g id="edge46" class="edge">
<title>u30&#45;&gt;u31</title>
<path fill="none" stroke="black" d="M304.37,-222.82C376.92,-203.97 496.65,-172.85 573.42,-152.9"/>
<polygon fill="black" stroke="black" points="574.69,-156.18 583.49,-150.28 572.93,-149.41 574.69,-156.18"/>
</g>
<!-- u28 -->
<g id="node25" class="node">
<title>u28</title>
<ellipse fill="#7777ff" stroke="black" cx="202.13" cy="-133" rx="202.26" ry="18"/>
<text text-anchor="middle" x="202.13" y="-129.3" font-family="Times,serif" font-size="14.00">Language.Drasil.Printing.Import.Helpers</text>
</g>
<!-- u30&#45;&gt;u28 -->
<g id="edge45" class="edge">
<title>u30&#45;&gt;u28</title>
<path fill="none" stroke="black" d="M235.53,-221.66C229.18,-205 219.5,-179.58 212.19,-160.4"/>
<polygon fill="black" stroke="black" points="215.45,-159.11 208.61,-151.02 208.9,-161.61 215.45,-159.11"/>
</g>
<!-- u29 -->
<g id="node24" class="node">
<title>u29</title>
<ellipse fill="#7777ff" stroke="black" cx="658.13" cy="-240" rx="200.36" ry="18"/>
<text text-anchor="middle" x="658.13" y="-236.3" font-family="Times,serif" font-size="14.00">Language.Drasil.Printing.Import.Symbol</text>
</g>
<!-- u29&#45;&gt;u21 -->
<g id="edge44" class="edge">
<title>u29&#45;&gt;u21</title>
<path fill="none" stroke="black" d="M743.36,-223.69C789.31,-211.31 843.68,-189.38 879.13,-151 903.5,-124.62 912.25,-82.9 915.38,-55.49"/>
<polygon fill="black" stroke="black" points="918.88,-55.69 916.36,-45.4 911.91,-55.02 918.88,-55.69"/>
</g>
<!-- u28&#45;&gt;u21 -->
<g id="edge43" class="edge">
<title>u28&#45;&gt;u21</title>
<path fill="none" stroke="black" d="M302.68,-117.37C438.52,-97.62 679.31,-62.59 815.63,-42.76"/>
<polygon fill="black" stroke="black" points="816.28,-46.21 825.67,-41.3 815.27,-39.28 816.28,-46.21"/>
</g>
<!-- u27&#45;&gt;u34 -->
<g id="edge42" class="edge">
<title>u27&#45;&gt;u34</title>
<path fill="none" stroke="black" d="M489.85,-755.29C531.84,-737.17 598.91,-708.23 644.19,-688.69"/>
<polygon fill="black" stroke="black" points="645.71,-691.84 653.51,-684.67 642.94,-685.42 645.71,-691.84"/>
</g>
<!-- u25 -->
<g id="node28" class="node">
<title>u25</title>
<ellipse fill="#7777ff" stroke="black" cx="245.13" cy="-667" rx="207.96" ry="18"/>
<text text-anchor="middle" x="245.13" y="-663.3" font-family="Times,serif" font-size="14.00">Language.Drasil.Printing.Import.Sentence</text>
</g>
<!-- u27&#45;&gt;u25 -->
<g id="edge41" class="edge">
<title>u27&#45;&gt;u25</title>
<path fill="none" stroke="black" d="M417.58,-755.06C382.26,-737.23 326.56,-709.11 288.07,-689.68"/>
<polygon fill="black" stroke="black" points="289.18,-686.32 278.67,-684.93 286.02,-692.56 289.18,-686.32"/>
</g>
<!-- u23 -->
<g id="node30" class="node">
<title>u23</title>
<ellipse fill="#7777ff" stroke="black" cx="658.13" cy="-347" rx="211.46" ry="18"/>
<text text-anchor="middle" x="658.13" y="-343.3" font-family="Times,serif" font-size="14.00">Language.Drasil.Printing.Import.CodeExpr</text>
</g>
<!-- u27&#45;&gt;u23 -->
<g id="edge40" class="edge">
<title>u27&#45;&gt;u23</title>
<path fill="none" stroke="black" d="M458.15,-754.73C467.98,-730.78 486.61,-686.24 504.13,-649 552.72,-545.75 616.32,-425.74 644.11,-373.96"/>
<polygon fill="black" stroke="black" points="647.22,-375.57 648.88,-365.11 641.06,-372.26 647.22,-375.57"/>
</g>
<!-- u26 -->
<g id="node27" class="node">
<title>u26</title>
<ellipse fill="#7777ff" stroke="black" cx="241.13" cy="-560" rx="216.36" ry="18"/>
<text text-anchor="middle" x="241.13" y="-556.3" font-family="Times,serif" font-size="14.00">Language.Drasil.Printing.Import.ModelExpr</text>
</g>
<!-- u24 -->
<g id="node29" class="node">
<title>u24</title>
<ellipse fill="#7777ff" stroke="black" cx="241.13" cy="-453" rx="193.07" ry="18"/>
<text text-anchor="middle" x="241.13" y="-449.3" font-family="Times,serif" font-size="14.00">Language.Drasil.Printing.Import.Space</text>
</g>
<!-- u26&#45;&gt;u24 -->
<g id="edge39" class="edge">
<title>u26&#45;&gt;u24</title>
<path fill="none" stroke="black" d="M241.13,-541.66C241.13,-525.22 241.13,-500.28 241.13,-481.19"/>
<polygon fill="black" stroke="black" points="244.63,-481.02 241.13,-471.02 237.63,-481.02 244.63,-481.02"/>
</g>
<!-- u25&#45;&gt;u26 -->
<g id="edge38" class="edge">
<title>u25&#45;&gt;u26</title>
<path fill="none" stroke="black" d="M244.47,-648.66C243.85,-632.22 242.9,-607.28 242.17,-588.19"/>
<polygon fill="black" stroke="black" points="245.66,-587.88 241.78,-578.02 238.66,-588.14 245.66,-587.88"/>
</g>
<!-- u22 -->
<g id="node31" class="node">
<title>u22</title>
<ellipse fill="#7777ff" stroke="black" cx="241.13" cy="-347" rx="187.67" ry="18"/>
<text text-anchor="middle" x="241.13" y="-343.3" font-family="Times,serif" font-size="14.00">Language.Drasil.Printing.Import.Expr</text>
</g>
<!-- u24&#45;&gt;u22 -->
<g id="edge37" class="edge">
<title>u24&#45;&gt;u22</title>
<path fill="none" stroke="black" d="M241.13,-434.83C241.13,-418.64 241.13,-394.13 241.13,-375.27"/>
<polygon fill="black" stroke="black" points="244.63,-375.2 241.13,-365.2 237.63,-375.2 244.63,-375.2"/>
</g>
<!-- u23&#45;&gt;u30 -->
<g id="edge36" class="edge">
<title>u23&#45;&gt;u30</title>
<path fill="none" stroke="black" d="M594.04,-329.82C518.97,-310.87 394.83,-279.54 315.83,-259.6"/>
<polygon fill="black" stroke="black" points="316.5,-256.16 305.95,-257.11 314.79,-262.95 316.5,-256.16"/>
</g>
<!-- u23&#45;&gt;u29 -->
<g id="edge35" class="edge">
<title>u23&#45;&gt;u29</title>
<path fill="none" stroke="black" d="M658.13,-328.66C658.13,-312.22 658.13,-287.28 658.13,-268.19"/>
<polygon fill="black" stroke="black" points="661.63,-268.02 658.13,-258.02 654.63,-268.02 661.63,-268.02"/>
</g>
<!-- u22&#45;&gt;u30 -->
<g id="edge34" class="edge">
<title>u22&#45;&gt;u30</title>
<path fill="none" stroke="black" d="M241.3,-328.66C241.45,-312.22 241.69,-287.28 241.87,-268.19"/>
<polygon fill="black" stroke="black" points="245.37,-268.05 241.97,-258.02 238.37,-267.98 245.37,-268.05"/>
</g>
<!-- u22&#45;&gt;u29 -->
<g id="edge33" class="edge">
<title>u22&#45;&gt;u29</title>
<path fill="none" stroke="black" d="M304.47,-330.05C379.63,-311.13 504.76,-279.62 584.26,-259.6"/>
<polygon fill="black" stroke="black" points="585.36,-262.93 594.2,-257.1 583.65,-256.15 585.36,-262.93"/>
</g>
<!-- u15 -->
<g id="node32" class="node">
<title>u15</title>
<ellipse fill="#ff7777" stroke="black" cx="1381.13" cy="-773" rx="146.47" ry="18"/>
<text text-anchor="middle" x="1381.13" y="-769.3" font-family="Times,serif" font-size="14.00">Language.Drasil.TeX.Helpers</text>
</g>
<!-- u15&#45;&gt;u18 -->
<g id="edge26" class="edge">
<title>u15&#45;&gt;u18</title>
<path fill="none" stroke="black" d="M1381.13,-754.83C1381.13,-738.64 1381.13,-714.13 1381.13,-695.27"/>
<polygon fill="black" stroke="black" points="1384.63,-695.2 1381.13,-685.2 1377.63,-695.2 1384.63,-695.2"/>
</g>
<!-- u14 -->
<g id="node33" class="node">
<title>u14</title>
<ellipse fill="#ff7777" stroke="black" cx="1660.13" cy="-667" rx="141.88" ry="18"/>
<text text-anchor="middle" x="1660.13" y="-663.3" font-family="Times,serif" font-size="14.00">Language.Drasil.TeX.Monad</text>
</g>
<!-- u15&#45;&gt;u14 -->
<g id="edge25" class="edge">
<title>u15&#45;&gt;u14</title>
<path fill="none" stroke="black" d="M1424.73,-755.75C1473.93,-737.41 1553.97,-707.57 1606.84,-687.86"/>
<polygon fill="black" stroke="black" points="1608.24,-691.08 1616.38,-684.31 1605.79,-684.52 1608.24,-691.08"/>
</g>
<!-- u14&#45;&gt;u33 -->
<g id="edge24" class="edge">
<title>u14&#45;&gt;u33</title>
<path fill="none" stroke="black" d="M1660.13,-648.66C1660.13,-632.22 1660.13,-607.28 1660.13,-588.19"/>
<polygon fill="black" stroke="black" points="1663.63,-588.02 1660.13,-578.02 1656.63,-588.02 1663.63,-588.02"/>
</g>
<!-- u13 -->
<g id="node34" class="node">
<title>u13</title>
<ellipse fill="#ff7777" stroke="black" cx="924.13" cy="-880" rx="154.07" ry="18"/>
<text text-anchor="middle" x="924.13" y="-876.3" font-family="Times,serif" font-size="14.00">Language.Drasil.TeX.Preamble</text>
</g>
<!-- u13&#45;&gt;u34 -->
<g id="edge23" class="edge">
<title>u13&#45;&gt;u34</title>
<path fill="none" stroke="black" d="M840.04,-864.85C794.99,-852.83 742.47,-830.87 711.13,-791 689.77,-763.83 687.69,-722.59 689.13,-695.47"/>
<polygon fill="black" stroke="black" points="692.65,-695.37 689.89,-685.14 685.67,-694.86 692.65,-695.37"/>
</g>
<!-- u13&#45;&gt;u15 -->
<g id="edge22" class="edge">
<title>u13&#45;&gt;u15</title>
<path fill="none" stroke="black" d="M990.58,-863.73C1074.25,-844.51 1217.64,-811.56 1305.44,-791.39"/>
<polygon fill="black" stroke="black" points="1306.38,-794.77 1315.34,-789.12 1304.81,-787.94 1306.38,-794.77"/>
</g>
<!-- u12&#45;&gt;u20 -->
<g id="edge21" class="edge">
<title>u12&#45;&gt;u20</title>
<path fill="none" stroke="black" d="M869.24,-970.51C802.45,-951.66 689.78,-919.85 618.27,-899.67"/>
<polygon fill="black" stroke="black" points="619.04,-896.25 608.47,-896.9 617.14,-902.99 619.04,-896.25"/>
</g>
<!-- u12&#45;&gt;u13 -->
<g id="edge20" class="edge">
<title>u12&#45;&gt;u13</title>
<path fill="none" stroke="black" d="M924.13,-968.66C924.13,-952.22 924.13,-927.28 924.13,-908.19"/>
<polygon fill="black" stroke="black" points="927.63,-908.02 924.13,-898.02 920.63,-908.02 927.63,-908.02"/>
</g>
</g>
</svg>
