<?xml version="1.0" encoding="UTF-8" standalone="no"?>
<!DOCTYPE svg PUBLIC "-//W3C//DTD SVG 1.1//EN"
 "http://www.w3.org/Graphics/SVG/1.1/DTD/svg11.dtd">
<!-- Generated by graphviz version 2.43.0 (0)
 -->
<!-- Title: G Pages: 1 -->
<svg width="432pt" height="288pt"
 viewBox="0.00 0.00 431.81 288.00" xmlns="http://www.w3.org/2000/svg" xmlns:xlink="http://www.w3.org/1999/xlink">
<g id="graph0" class="graph" transform="scale(16.35 16.35) rotate(0) translate(4 4706)">
<title>G</title>
<polygon fill="white" stroke="transparent" points="-4,4 -4,-4706 7057.82,-4706 7057.82,4 -4,4"/>
<!-- u56 -->
<g id="node1" class="node">
<title>u56</title>
<ellipse fill="#bbffbb" stroke="black" cx="64.99" cy="-4019" rx="53.89" ry="18"/>
<text text-anchor="middle" x="64.99" y="-4015.3" font-family="Times,serif" font-size="14.00">Observer</text>
</g>
<!-- u55 -->
<g id="node2" class="node">
<title>u55</title>
<ellipse fill="#bbffbb" stroke="black" cx="255.99" cy="-4019" rx="42.49" ry="18"/>
<text text-anchor="middle" x="255.99" y="-4015.3" font-family="Times,serif" font-size="14.00">Helper</text>
</g>
<!-- u54 -->
<g id="node3" class="node">
<title>u54</title>
<ellipse fill="#bbffbb" stroke="black" cx="200.99" cy="-4323" rx="52.79" ry="18"/>
<text text-anchor="middle" x="200.99" y="-4319.3" font-family="Times,serif" font-size="14.00">FileTests</text>
</g>
<!-- u53 -->
<g id="node4" class="node">
<title>u53</title>
<ellipse fill="#bbffbb" stroke="black" cx="333.99" cy="-4323" rx="62.29" ry="18"/>
<text text-anchor="middle" x="333.99" y="-4319.3" font-family="Times,serif" font-size="14.00">HelloWorld</text>
</g>
<!-- u53&#45;&gt;u55 -->
<g id="edge89" class="edge">
<title>u53&#45;&gt;u55</title>
<path fill="none" stroke="black" d="M329.58,-4304.9C316.63,-4254.75 278.67,-4107.81 262.95,-4046.91"/>
<polygon fill="black" stroke="black" points="266.25,-4045.72 260.36,-4036.91 259.47,-4047.47 266.25,-4045.72"/>
</g>
<!-- u52 -->
<g id="node5" class="node">
<title>u52</title>
<ellipse fill="#bbffbb" stroke="black" cx="64.99" cy="-4323" rx="64.99" ry="18"/>
<text text-anchor="middle" x="64.99" y="-4319.3" font-family="Times,serif" font-size="14.00">PatternTest</text>
</g>
<!-- u52&#45;&gt;u56 -->
<g id="edge88" class="edge">
<title>u52&#45;&gt;u56</title>
<path fill="none" stroke="black" d="M64.99,-4304.9C64.99,-4254.87 64.99,-4108.5 64.99,-4047.34"/>
<polygon fill="black" stroke="black" points="68.49,-4047.29 64.99,-4037.29 61.49,-4047.29 68.49,-4047.29"/>
</g>
<!-- u0 -->
<g id="node6" class="node">
<title>u0</title>
<ellipse fill="#ffffbb" stroke="black" cx="1756.99" cy="-4626" rx="214.46" ry="18"/>
<text text-anchor="middle" x="1756.99" y="-4622.3" font-family="Times,serif" font-size="14.00">Data.Drasil.ExternalLibraries.ODELibraries</text>
</g>
<!-- u42 -->
<g id="node9" class="node">
<title>u42</title>
<ellipse fill="#bbbbff" stroke="black" cx="1756.99" cy="-4323" rx="113.18" ry="18"/>
<text text-anchor="middle" x="1756.99" y="-4319.3" font-family="Times,serif" font-size="14.00">Language.Drasil.Code</text>
</g>
<!-- u0&#45;&gt;u42 -->
<g id="edge1" class="edge">
<title>u0&#45;&gt;u42</title>
<path fill="none" stroke="black" d="M1756.99,-4607.95C1756.99,-4558.09 1756.99,-4412.2 1756.99,-4351.25"/>
<polygon fill="black" stroke="black" points="1760.49,-4351.23 1756.99,-4341.23 1753.49,-4351.23 1760.49,-4351.23"/>
</g>
<!-- u50 -->
<g id="node7" class="node">
<title>u50</title>
<ellipse fill="#bbbbff" stroke="black" cx="4915.99" cy="-2199" rx="135.68" ry="18"/>
<text text-anchor="middle" x="4915.99" y="-2195.3" font-family="Times,serif" font-size="14.00">Language.Drasil.CodeSpec</text>
</g>
<!-- u43 -->
<g id="node8" class="node">
<title>u43</title>
<ellipse fill="#bbbbff" stroke="black" cx="3882.99" cy="-1896" rx="126.18" ry="18"/>
<text text-anchor="middle" x="3882.99" y="-1892.3" font-family="Times,serif" font-size="14.00">Language.Drasil.Choices</text>
</g>
<!-- u50&#45;&gt;u43 -->
<g id="edge81" class="edge">
<title>u50&#45;&gt;u43</title>
<path fill="none" stroke="black" d="M4862.27,-2182.35C4687.12,-2131.31 4133.13,-1969.89 3945.69,-1915.27"/>
<polygon fill="black" stroke="black" points="3946.56,-1911.88 3935.98,-1912.44 3944.6,-1918.6 3946.56,-1911.88"/>
</g>
<!-- u47 -->
<g id="node13" class="node">
<title>u47</title>
<ellipse fill="#ffbbbb" stroke="black" cx="4533.99" cy="-1896" rx="191.17" ry="18"/>
<text text-anchor="middle" x="4533.99" y="-1892.3" font-family="Times,serif" font-size="14.00">Language.Drasil.Chunk.CodeDefinition</text>
</g>
<!-- u50&#45;&gt;u47 -->
<g id="edge83" class="edge">
<title>u50&#45;&gt;u47</title>
<path fill="none" stroke="black" d="M4894.64,-2181.17C4830.19,-2130.39 4637.53,-1978.58 4563.46,-1920.22"/>
<polygon fill="black" stroke="black" points="4565.46,-1917.34 4555.44,-1913.9 4561.12,-1922.83 4565.46,-1917.34"/>
</g>
<!-- u46 -->
<g id="node14" class="node">
<title>u46</title>
<ellipse fill="#ffbbbb" stroke="black" cx="4934.99" cy="-1896" rx="192.27" ry="18"/>
<text text-anchor="middle" x="4934.99" y="-1892.3" font-family="Times,serif" font-size="14.00">Language.Drasil.Chunk.ConstraintMap</text>
</g>
<!-- u50&#45;&gt;u46 -->
<g id="edge82" class="edge">
<title>u50&#45;&gt;u46</title>
<path fill="none" stroke="black" d="M4917.07,-2180.95C4920.22,-2131.09 4929.43,-1985.2 4933.27,-1924.25"/>
<polygon fill="black" stroke="black" points="4936.77,-1924.43 4933.91,-1914.23 4929.78,-1923.99 4936.77,-1924.43"/>
</g>
<!-- u2 -->
<g id="node23" class="node">
<title>u2</title>
<ellipse fill="#bbffff" stroke="black" cx="3414.99" cy="-1593" rx="139.98" ry="18"/>
<text text-anchor="middle" x="3414.99" y="-1589.3" font-family="Times,serif" font-size="14.00">Language.Drasil.Code.Code</text>
</g>
<!-- u43&#45;&gt;u2 -->
<g id="edge76" class="edge">
<title>u43&#45;&gt;u2</title>
<path fill="none" stroke="black" d="M3856.83,-1878.17C3777.38,-1827.07 3538.88,-1673.68 3449.41,-1616.13"/>
<polygon fill="black" stroke="black" points="3451.28,-1613.18 3440.97,-1610.71 3447.49,-1619.06 3451.28,-1613.18"/>
</g>
<!-- u39 -->
<g id="node56" class="node">
<title>u39</title>
<ellipse fill="#ff77ff" stroke="black" cx="3882.99" cy="-1593" rx="172.77" ry="18"/>
<text text-anchor="middle" x="3882.99" y="-1589.3" font-family="Times,serif" font-size="14.00">Language.Drasil.Data.ODELibPckg</text>
</g>
<!-- u43&#45;&gt;u39 -->
<g id="edge77" class="edge">
<title>u43&#45;&gt;u39</title>
<path fill="none" stroke="black" d="M3882.99,-1877.95C3882.99,-1828.09 3882.99,-1682.2 3882.99,-1621.25"/>
<polygon fill="black" stroke="black" points="3886.49,-1621.23 3882.99,-1611.23 3879.49,-1621.23 3886.49,-1621.23"/>
</g>
<!-- u30 -->
<g id="node26" class="node">
<title>u30</title>
<ellipse fill="#ffbbff" stroke="black" cx="4457.99" cy="-4019" rx="217.16" ry="18"/>
<text text-anchor="middle" x="4457.99" y="-4015.3" font-family="Times,serif" font-size="14.00">Language.Drasil.Code.Imperative.Generator</text>
</g>
<!-- u42&#45;&gt;u30 -->
<g id="edge75" class="edge">
<title>u42&#45;&gt;u30</title>
<path fill="none" stroke="black" d="M1846.86,-4311.95C2244.72,-4267.47 3848.86,-4088.11 4324.46,-4034.93"/>
<polygon fill="black" stroke="black" points="4324.91,-4038.4 4334.46,-4033.81 4324.13,-4031.45 4324.91,-4038.4"/>
</g>
<!-- u28 -->
<g id="node28" class="node">
<title>u28</title>
<ellipse fill="#ffbbff" stroke="black" cx="1499.99" cy="-2503" rx="217.96" ry="18"/>
<text text-anchor="middle" x="1499.99" y="-2499.3" font-family="Times,serif" font-size="14.00">Language.Drasil.Code.Imperative.ReadInput</text>
</g>
<!-- u42&#45;&gt;u28 -->
<g id="edge74" class="edge">
<title>u42&#45;&gt;u28</title>
<path fill="none" stroke="black" d="M1687.97,-4308.66C1402.13,-4251.5 325.99,-4016.4 325.99,-3717 325.99,-3717 325.99,-3717 325.99,-3108 325.99,-2665.76 992.84,-2547.04 1321.38,-2515.39"/>
<polygon fill="black" stroke="black" points="1321.85,-2518.86 1331.48,-2514.43 1321.19,-2511.89 1321.85,-2518.86"/>
</g>
<!-- u17 -->
<g id="node48" class="node">
<title>u17</title>
<ellipse fill="#ff7777" stroke="black" cx="2198.99" cy="-3716" rx="352.84" ry="18"/>
<text text-anchor="middle" x="2198.99" y="-3712.3" font-family="Times,serif" font-size="14.00">Language.Drasil.Code.Imperative.GOOL.LanguageRenderer.CppRenderer</text>
</g>
<!-- u42&#45;&gt;u17 -->
<g id="edge73" class="edge">
<title>u42&#45;&gt;u17</title>
<path fill="none" stroke="black" d="M1769.51,-4304.87C1831.55,-4219.94 2106.1,-3844.15 2180.4,-3742.45"/>
<polygon fill="black" stroke="black" points="2183.3,-3744.41 2186.38,-3734.27 2177.65,-3740.28 2183.3,-3744.41"/>
</g>
<!-- u16 -->
<g id="node49" class="node">
<title>u16</title>
<ellipse fill="#ff7777" stroke="black" cx="2936.99" cy="-3716" rx="367.43" ry="18"/>
<text text-anchor="middle" x="2936.99" y="-3712.3" font-family="Times,serif" font-size="14.00">Language.Drasil.Code.Imperative.GOOL.LanguageRenderer.PythonRenderer</text>
</g>
<!-- u42&#45;&gt;u16 -->
<g id="edge72" class="edge">
<title>u42&#45;&gt;u16</title>
<path fill="none" stroke="black" d="M1788.86,-4305.66C1953.59,-4221.2 2708.07,-3834.37 2895,-3738.53"/>
<polygon fill="black" stroke="black" points="2896.68,-3741.6 2903.98,-3733.93 2893.48,-3735.38 2896.68,-3741.6"/>
</g>
<!-- u15 -->
<g id="node50" class="node">
<title>u15</title>
<ellipse fill="#ff7777" stroke="black" cx="3675.99" cy="-3716" rx="354.44" ry="18"/>
<text text-anchor="middle" x="3675.99" y="-3712.3" font-family="Times,serif" font-size="14.00">Language.Drasil.Code.Imperative.GOOL.LanguageRenderer.JavaRenderer</text>
</g>
<!-- u42&#45;&gt;u15 -->
<g id="edge71" class="edge">
<title>u42&#45;&gt;u15</title>
<path fill="none" stroke="black" d="M1805.87,-4306.59C2069.03,-4223.63 3316.31,-3830.4 3612.69,-3736.96"/>
<polygon fill="black" stroke="black" points="3613.94,-3740.23 3622.42,-3733.89 3611.83,-3733.56 3613.94,-3740.23"/>
</g>
<!-- u14 -->
<g id="node51" class="node">
<title>u14</title>
<ellipse fill="#ff7777" stroke="black" cx="722.99" cy="-3716" rx="369.33" ry="18"/>
<text text-anchor="middle" x="722.99" y="-3712.3" font-family="Times,serif" font-size="14.00">Language.Drasil.Code.Imperative.GOOL.LanguageRenderer.CSharpRenderer</text>
</g>
<!-- u42&#45;&gt;u14 -->
<g id="edge70" class="edge">
<title>u42&#45;&gt;u14</title>
<path fill="none" stroke="black" d="M1728.8,-4305.5C1584.26,-4220.93 926.73,-3836.21 761.01,-3739.24"/>
<polygon fill="black" stroke="black" points="762.54,-3736.08 752.14,-3734.05 759,-3742.12 762.54,-3736.08"/>
</g>
<!-- u13 -->
<g id="node52" class="node">
<title>u13</title>
<ellipse fill="#ff7777" stroke="black" cx="1468.99" cy="-3716" rx="358.54" ry="18"/>
<text text-anchor="middle" x="1468.99" y="-3712.3" font-family="Times,serif" font-size="14.00">Language.Drasil.Code.Imperative.GOOL.LanguageRenderer.SwiftRenderer</text>
</g>
<!-- u42&#45;&gt;u13 -->
<g id="edge69" class="edge">
<title>u42&#45;&gt;u13</title>
<path fill="none" stroke="black" d="M1748.84,-4304.87C1708.53,-4220.2 1530.6,-3846.41 1481.55,-3743.38"/>
<polygon fill="black" stroke="black" points="1484.67,-3741.8 1477.22,-3734.27 1478.35,-3744.8 1484.67,-3741.8"/>
</g>
<!-- u41 -->
<g id="node10" class="node">
<title>u41</title>
<ellipse fill="#bbbbff" stroke="black" cx="4063.99" cy="-986" rx="110.48" ry="18"/>
<text text-anchor="middle" x="4063.99" y="-982.3" font-family="Times,serif" font-size="14.00">Language.Drasil.Mod</text>
</g>
<!-- u45 -->
<g id="node15" class="node">
<title>u45</title>
<ellipse fill="#ffbbbb" stroke="black" cx="3659.99" cy="-683" rx="170.87" ry="18"/>
<text text-anchor="middle" x="3659.99" y="-679.3" font-family="Times,serif" font-size="14.00">Language.Drasil.Chunk.Parameter</text>
</g>
<!-- u41&#45;&gt;u45 -->
<g id="edge68" class="edge">
<title>u41&#45;&gt;u45</title>
<path fill="none" stroke="black" d="M4041.41,-968.17C3973.25,-917.39 3769.49,-765.58 3691.15,-707.22"/>
<polygon fill="black" stroke="black" points="3692.78,-704.06 3682.67,-700.9 3688.6,-709.68 3692.78,-704.06"/>
</g>
<!-- u35 -->
<g id="node20" class="node">
<title>u35</title>
<ellipse fill="#bbffff" stroke="black" cx="2937.99" cy="-683" rx="160.57" ry="18"/>
<text text-anchor="middle" x="2937.99" y="-679.3" font-family="Times,serif" font-size="14.00">Language.Drasil.Code.DataDesc</text>
</g>
<!-- u41&#45;&gt;u35 -->
<g id="edge67" class="edge">
<title>u41&#45;&gt;u35</title>
<path fill="none" stroke="black" d="M4008.92,-970.28C3822.12,-920.34 3212.81,-757.46 3006.79,-702.39"/>
<polygon fill="black" stroke="black" points="3007.56,-698.97 2996.99,-699.77 3005.75,-705.74 3007.56,-698.97"/>
</g>
<!-- u49 -->
<g id="node11" class="node">
<title>u49</title>
<ellipse fill="#ffbbbb" stroke="black" cx="3732.99" cy="-986" rx="202.26" ry="18"/>
<text text-anchor="middle" x="3732.99" y="-982.3" font-family="Times,serif" font-size="14.00">Language.Drasil.Chunk.NamedArgument</text>
</g>
<!-- u48 -->
<g id="node12" class="node">
<title>u48</title>
<ellipse fill="#ffbbbb" stroke="black" cx="3222.99" cy="-379" rx="145.67" ry="18"/>
<text text-anchor="middle" x="3222.99" y="-375.3" font-family="Times,serif" font-size="14.00">Language.Drasil.Chunk.Code</text>
</g>
<!-- u44 -->
<g id="node16" class="node">
<title>u44</title>
<ellipse fill="#ffbbbb" stroke="black" cx="3222.99" cy="-76" rx="168.17" ry="18"/>
<text text-anchor="middle" x="3222.99" y="-72.3" font-family="Times,serif" font-size="14.00">Language.Drasil.Chunk.CodeBase</text>
</g>
<!-- u48&#45;&gt;u44 -->
<g id="edge80" class="edge">
<title>u48&#45;&gt;u44</title>
<path fill="none" stroke="black" d="M3222.99,-360.95C3222.99,-311.09 3222.99,-165.2 3222.99,-104.25"/>
<polygon fill="black" stroke="black" points="3226.49,-104.23 3222.99,-94.23 3219.49,-104.23 3226.49,-104.23"/>
</g>
<!-- u40 -->
<g id="node55" class="node">
<title>u40</title>
<ellipse fill="#ff77ff" stroke="black" cx="3222.99" cy="-1289" rx="154.07" ry="18"/>
<text text-anchor="middle" x="3222.99" y="-1285.3" font-family="Times,serif" font-size="14.00">Language.Drasil.Data.ODEInfo</text>
</g>
<!-- u47&#45;&gt;u40 -->
<g id="edge79" class="edge">
<title>u47&#45;&gt;u40</title>
<path fill="none" stroke="black" d="M4468.75,-1879.04C4325.23,-1842.6 3973.28,-1745.89 3700.99,-1611 3518.52,-1520.6 3323.76,-1370.8 3251.83,-1313.38"/>
<polygon fill="black" stroke="black" points="3253.67,-1310.37 3243.67,-1306.85 3249.29,-1315.84 3253.67,-1310.37"/>
</g>
<!-- u45&#45;&gt;u48 -->
<g id="edge78" class="edge">
<title>u45&#45;&gt;u48</title>
<path fill="none" stroke="black" d="M3635.56,-665.12C3561.52,-613.95 3339.57,-460.56 3255.63,-402.56"/>
<polygon fill="black" stroke="black" points="3257.47,-399.57 3247.25,-396.76 3253.49,-405.33 3257.47,-399.57"/>
</g>
<!-- u38 -->
<g id="node17" class="node">
<title>u38</title>
<ellipse fill="#bbffff" stroke="black" cx="6545.99" cy="-2806" rx="204.16" ry="18"/>
<text text-anchor="middle" x="6545.99" y="-2802.3" font-family="Times,serif" font-size="14.00">Language.Drasil.Code.CodeQuantityDicts</text>
</g>
<!-- u37 -->
<g id="node18" class="node">
<title>u37</title>
<ellipse fill="#bbffff" stroke="black" cx="4238.99" cy="-3716" rx="191.17" ry="18"/>
<text text-anchor="middle" x="4238.99" y="-3712.3" font-family="Times,serif" font-size="14.00">Language.Drasil.Code.CodeGeneration</text>
</g>
<!-- u37&#45;&gt;u2 -->
<g id="edge60" class="edge">
<title>u37&#45;&gt;u2</title>
<path fill="none" stroke="black" d="M4220.96,-3697.98C4116.68,-3598.16 3589.64,-3074.14 3416.99,-2521 3310.62,-2180.18 3387.11,-1733.92 3409.41,-1620.9"/>
<polygon fill="black" stroke="black" points="3412.86,-1621.51 3411.39,-1611.02 3405.99,-1620.14 3412.86,-1621.51"/>
</g>
<!-- u19 -->
<g id="node46" class="node">
<title>u19</title>
<ellipse fill="#7777ff" stroke="black" cx="2832.99" cy="-3413" rx="222.06" ry="18"/>
<text text-anchor="middle" x="2832.99" y="-3409.3" font-family="Times,serif" font-size="14.00">Language.Drasil.Code.Imperative.GOOL.Data</text>
</g>
<!-- u37&#45;&gt;u19 -->
<g id="edge61" class="edge">
<title>u37&#45;&gt;u19</title>
<path fill="none" stroke="black" d="M4165.87,-3699.35C3927.24,-3648.26 3171.98,-3486.57 2917.58,-3432.11"/>
<polygon fill="black" stroke="black" points="2918.17,-3428.65 2907.66,-3429.98 2916.7,-3435.5 2918.17,-3428.65"/>
</g>
<!-- u36 -->
<g id="node19" class="node">
<title>u36</title>
<ellipse fill="#bbffff" stroke="black" cx="3533.99" cy="-1289" rx="139.18" ry="18"/>
<text text-anchor="middle" x="3533.99" y="-1285.3" font-family="Times,serif" font-size="14.00">Language.Drasil.Code.Lang</text>
</g>
<!-- u35&#45;&gt;u48 -->
<g id="edge59" class="edge">
<title>u35&#45;&gt;u48</title>
<path fill="none" stroke="black" d="M2954.13,-664.9C3002.14,-614.03 3144.17,-463.53 3200.04,-404.32"/>
<polygon fill="black" stroke="black" points="3202.71,-406.59 3207.03,-396.91 3197.62,-401.79 3202.71,-406.59"/>
</g>
<!-- u4 -->
<g id="node21" class="node">
<title>u4</title>
<ellipse fill="#bbffff" stroke="black" cx="3898.99" cy="-1289" rx="207.96" ry="18"/>
<text text-anchor="middle" x="3898.99" y="-1285.3" font-family="Times,serif" font-size="14.00">Language.Drasil.Code.ExternalLibraryCall</text>
</g>
<!-- u4&#45;&gt;u41 -->
<g id="edge6" class="edge">
<title>u4&#45;&gt;u41</title>
<path fill="none" stroke="black" d="M3908.34,-1270.95C3935.84,-1220.78 4016.64,-1073.39 4049.67,-1013.13"/>
<polygon fill="black" stroke="black" points="4052.81,-1014.68 4054.55,-1004.23 4046.67,-1011.32 4052.81,-1014.68"/>
</g>
<!-- u4&#45;&gt;u49 -->
<g id="edge7" class="edge">
<title>u4&#45;&gt;u49</title>
<path fill="none" stroke="black" d="M3889.59,-1270.95C3861.92,-1220.78 3780.64,-1073.39 3747.4,-1013.13"/>
<polygon fill="black" stroke="black" points="3750.39,-1011.3 3742.5,-1004.23 3744.26,-1014.68 3750.39,-1011.3"/>
</g>
<!-- u3 -->
<g id="node22" class="node">
<title>u3</title>
<ellipse fill="#bbffff" stroke="black" cx="4314.99" cy="-1593" rx="178.97" ry="18"/>
<text text-anchor="middle" x="4314.99" y="-1589.3" font-family="Times,serif" font-size="14.00">Language.Drasil.Code.ExtLibImport</text>
</g>
<!-- u3&#45;&gt;u4 -->
<g id="edge5" class="edge">
<title>u3&#45;&gt;u4</title>
<path fill="none" stroke="black" d="M4291.74,-1575.12C4221.41,-1524.06 4010.89,-1371.23 3930.59,-1312.94"/>
<polygon fill="black" stroke="black" points="3932.49,-1309.99 3922.34,-1306.95 3928.38,-1315.66 3932.49,-1309.99"/>
</g>
<!-- u1 -->
<g id="node24" class="node">
<title>u1</title>
<ellipse fill="#bbffff" stroke="black" cx="4314.99" cy="-1289" rx="190.37" ry="18"/>
<text text-anchor="middle" x="4314.99" y="-1285.3" font-family="Times,serif" font-size="14.00">Language.Drasil.Code.ExternalLibrary</text>
</g>
<!-- u3&#45;&gt;u1 -->
<g id="edge4" class="edge">
<title>u3&#45;&gt;u1</title>
<path fill="none" stroke="black" d="M4314.99,-1574.9C4314.99,-1524.87 4314.99,-1378.5 4314.99,-1317.34"/>
<polygon fill="black" stroke="black" points="4318.49,-1317.29 4314.99,-1307.29 4311.49,-1317.29 4318.49,-1317.29"/>
</g>
<!-- u1&#45;&gt;u41 -->
<g id="edge2" class="edge">
<title>u1&#45;&gt;u41</title>
<path fill="none" stroke="black" d="M4300.78,-1270.95C4258.59,-1220.36 4133.93,-1070.86 4084.51,-1011.6"/>
<polygon fill="black" stroke="black" points="4087.14,-1009.3 4078.05,-1003.86 4081.77,-1013.78 4087.14,-1009.3"/>
</g>
<!-- u1&#45;&gt;u49 -->
<g id="edge3" class="edge">
<title>u1&#45;&gt;u49</title>
<path fill="none" stroke="black" d="M4282.46,-1271.17C4183.37,-1219.92 3885.36,-1065.8 3774.84,-1008.64"/>
<polygon fill="black" stroke="black" points="3776.15,-1005.38 3765.66,-1003.9 3772.94,-1011.6 3776.15,-1005.38"/>
</g>
<!-- u34 -->
<g id="node25" class="node">
<title>u34</title>
<ellipse fill="#ffbbff" stroke="black" cx="5712.99" cy="-3413" rx="233.16" ry="18"/>
<text text-anchor="middle" x="5712.99" y="-3409.3" font-family="Times,serif" font-size="14.00">Language.Drasil.Code.Imperative.FunctionCalls</text>
</g>
<!-- u21 -->
<g id="node35" class="node">
<title>u21</title>
<ellipse fill="#ffbbff" stroke="black" cx="5685.99" cy="-3109" rx="201.46" ry="18"/>
<text text-anchor="middle" x="5685.99" y="-3105.3" font-family="Times,serif" font-size="14.00">Language.Drasil.Code.Imperative.Import</text>
</g>
<!-- u34&#45;&gt;u21 -->
<g id="edge58" class="edge">
<title>u34&#45;&gt;u21</title>
<path fill="none" stroke="black" d="M5711.47,-3394.9C5706.99,-3344.87 5693.91,-3198.5 5688.44,-3137.34"/>
<polygon fill="black" stroke="black" points="5691.92,-3136.94 5687.54,-3127.29 5684.94,-3137.56 5691.92,-3136.94"/>
</g>
<!-- u11 -->
<g id="node36" class="node">
<title>u11</title>
<ellipse fill="#ffbbff" stroke="black" cx="6545.99" cy="-3109" rx="223.66" ry="18"/>
<text text-anchor="middle" x="6545.99" y="-3105.3" font-family="Times,serif" font-size="14.00">Language.Drasil.Code.Imperative.Parameters</text>
</g>
<!-- u34&#45;&gt;u11 -->
<g id="edge57" class="edge">
<title>u34&#45;&gt;u11</title>
<path fill="none" stroke="black" d="M5758.97,-3395.33C5901.39,-3343.7 6335.02,-3186.49 6490.1,-3130.26"/>
<polygon fill="black" stroke="black" points="6491.7,-3133.41 6499.91,-3126.71 6489.31,-3126.83 6491.7,-3133.41"/>
</g>
<!-- u30&#45;&gt;u37 -->
<g id="edge54" class="edge">
<title>u30&#45;&gt;u37</title>
<path fill="none" stroke="black" d="M4445.59,-4000.95C4408.94,-3950.58 4300.96,-3802.17 4257.47,-3742.39"/>
<polygon fill="black" stroke="black" points="4260.25,-3740.26 4251.53,-3734.23 4254.58,-3744.38 4260.25,-3740.26"/>
</g>
<!-- u29 -->
<g id="node27" class="node">
<title>u29</title>
<ellipse fill="#ffbbff" stroke="black" cx="6826.99" cy="-3413" rx="226.66" ry="18"/>
<text text-anchor="middle" x="6826.99" y="-3409.3" font-family="Times,serif" font-size="14.00">Language.Drasil.Code.Imperative.SpaceMatch</text>
</g>
<!-- u30&#45;&gt;u29 -->
<g id="edge53" class="edge">
<title>u30&#45;&gt;u29</title>
<path fill="none" stroke="black" d="M4564.19,-4003.22C4808.27,-3968.01 5426.97,-3871.73 5930.99,-3734 6260.93,-3643.84 6643.33,-3490.17 6777.47,-3434.72"/>
<polygon fill="black" stroke="black" points="6779.16,-3437.81 6787.06,-3430.75 6776.49,-3431.34 6779.16,-3437.81"/>
</g>
<!-- u26 -->
<g id="node30" class="node">
<title>u26</title>
<ellipse fill="#ffbbff" stroke="black" cx="5712.99" cy="-3716" rx="209.06" ry="18"/>
<text text-anchor="middle" x="5712.99" y="-3712.3" font-family="Times,serif" font-size="14.00">Language.Drasil.Code.Imperative.Modules</text>
</g>
<!-- u30&#45;&gt;u26 -->
<g id="edge52" class="edge">
<title>u30&#45;&gt;u26</title>
<path fill="none" stroke="black" d="M4525.47,-4001.82C4740.44,-3950.26 5408.44,-3790.04 5636.09,-3735.44"/>
<polygon fill="black" stroke="black" points="5637.04,-3738.82 5645.95,-3733.08 5635.41,-3732.01 5637.04,-3738.82"/>
</g>
<!-- u8 -->
<g id="node38" class="node">
<title>u8</title>
<ellipse fill="#ffbbff" stroke="black" cx="4533.99" cy="-2199" rx="209.86" ry="18"/>
<text text-anchor="middle" x="4533.99" y="-2195.3" font-family="Times,serif" font-size="14.00">Language.Drasil.Code.Imperative.GenODE</text>
</g>
<!-- u30&#45;&gt;u8 -->
<g id="edge51" class="edge">
<title>u30&#45;&gt;u8</title>
<path fill="none" stroke="black" d="M4457.99,-4000.7C4457.99,-3928.78 4457.99,-3646.27 4457.99,-3414 4457.99,-3414 4457.99,-3414 4457.99,-3108 4457.99,-2758.95 4514.46,-2337.04 4530.05,-2227.19"/>
<polygon fill="black" stroke="black" points="4533.52,-2227.66 4531.47,-2217.27 4526.59,-2226.67 4533.52,-2227.66"/>
</g>
<!-- u22 -->
<g id="node34" class="node">
<title>u22</title>
<ellipse fill="#ffbbff" stroke="black" cx="5685.99" cy="-2503" rx="222.06" ry="18"/>
<text text-anchor="middle" x="5685.99" y="-2499.3" font-family="Times,serif" font-size="14.00">Language.Drasil.Code.Imperative.DrasilState</text>
</g>
<!-- u29&#45;&gt;u22 -->
<g id="edge50" class="edge">
<title>u29&#45;&gt;u22</title>
<path fill="none" stroke="black" d="M6833,-3394.86C6859.68,-3315.3 6959.67,-2977.82 6806.99,-2788 6684.37,-2635.54 6098.68,-2550.61 5826.11,-2518.76"/>
<polygon fill="black" stroke="black" points="5826.49,-2515.28 5816.15,-2517.6 5825.68,-2522.23 5826.49,-2515.28"/>
</g>
<!-- u28&#45;&gt;u35 -->
<g id="edge49" class="edge">
<title>u28&#45;&gt;u35</title>
<path fill="none" stroke="black" d="M1531.76,-2485.19C1643.82,-2423.35 2013.99,-2196.42 2013.99,-1897 2013.99,-1897 2013.99,-1897 2013.99,-1288 2013.99,-896.43 2602.56,-745.16 2840.21,-700.04"/>
<polygon fill="black" stroke="black" points="2841.05,-703.44 2850.23,-698.16 2839.76,-696.56 2841.05,-703.44"/>
</g>
<!-- u27 -->
<g id="node29" class="node">
<title>u27</title>
<ellipse fill="#ffbbff" stroke="black" cx="5685.99" cy="-2806" rx="206.06" ry="18"/>
<text text-anchor="middle" x="5685.99" y="-2802.3" font-family="Times,serif" font-size="14.00">Language.Drasil.Code.Imperative.Helpers</text>
</g>
<!-- u27&#45;&gt;u22 -->
<g id="edge48" class="edge">
<title>u27&#45;&gt;u22</title>
<path fill="none" stroke="black" d="M5685.99,-2787.95C5685.99,-2738.09 5685.99,-2592.2 5685.99,-2531.25"/>
<polygon fill="black" stroke="black" points="5689.49,-2531.23 5685.99,-2521.23 5682.49,-2531.23 5689.49,-2531.23"/>
</g>
<!-- u26&#45;&gt;u34 -->
<g id="edge47" class="edge">
<title>u26&#45;&gt;u34</title>
<path fill="none" stroke="black" d="M5712.99,-3697.95C5712.99,-3648.09 5712.99,-3502.2 5712.99,-3441.25"/>
<polygon fill="black" stroke="black" points="5716.49,-3441.23 5712.99,-3431.23 5709.49,-3441.23 5716.49,-3441.23"/>
</g>
<!-- u25 -->
<g id="node31" class="node">
<title>u25</title>
<ellipse fill="#ffbbff" stroke="black" cx="6299.99" cy="-3413" rx="228.26" ry="18"/>
<text text-anchor="middle" x="6299.99" y="-3409.3" font-family="Times,serif" font-size="14.00">Language.Drasil.Code.Imperative.Descriptions</text>
</g>
<!-- u26&#45;&gt;u25 -->
<g id="edge46" class="edge">
<title>u26&#45;&gt;u25</title>
<path fill="none" stroke="black" d="M5745.81,-3698.17C5845.85,-3646.87 6146.93,-3492.49 6258.13,-3435.47"/>
<polygon fill="black" stroke="black" points="6259.74,-3438.57 6267.05,-3430.9 6256.55,-3432.34 6259.74,-3438.57"/>
</g>
<!-- u25&#45;&gt;u22 -->
<g id="edge45" class="edge">
<title>u25&#45;&gt;u22</title>
<path fill="none" stroke="black" d="M6364.72,-3395.64C6473.19,-3364.34 6688.67,-3284.63 6778.99,-3127 6853.9,-2996.27 6873.2,-2907.16 6780.99,-2788 6663.97,-2636.75 6091.31,-2551.27 5823.97,-2519.02"/>
<polygon fill="black" stroke="black" points="5824.15,-2515.52 5813.81,-2517.8 5823.32,-2522.47 5824.15,-2515.52"/>
</g>
<!-- u24 -->
<g id="node32" class="node">
<title>u24</title>
<ellipse fill="#ffbbff" stroke="black" cx="4763.99" cy="-2806" rx="240.46" ry="18"/>
<text text-anchor="middle" x="4763.99" y="-2802.3" font-family="Times,serif" font-size="14.00">Language.Drasil.Code.Imperative.GenerateGOOL</text>
</g>
<!-- u24&#45;&gt;u22 -->
<g id="edge44" class="edge">
<title>u24&#45;&gt;u22</title>
<path fill="none" stroke="black" d="M4814.88,-2788.39C4973.01,-2736.76 5455.44,-2579.27 5625.71,-2523.68"/>
<polygon fill="black" stroke="black" points="5626.85,-2526.99 5635.27,-2520.56 5624.67,-2520.34 5626.85,-2526.99"/>
</g>
<!-- u18 -->
<g id="node47" class="node">
<title>u18</title>
<ellipse fill="#7777ff" stroke="black" cx="4200.99" cy="-2503" rx="267.25" ry="18"/>
<text text-anchor="middle" x="4200.99" y="-2499.3" font-family="Times,serif" font-size="14.00">Language.Drasil.Code.Imperative.GOOL.ClassInterface</text>
</g>
<!-- u24&#45;&gt;u18 -->
<g id="edge43" class="edge">
<title>u24&#45;&gt;u18</title>
<path fill="none" stroke="black" d="M4732.11,-2787.95C4635.94,-2736.54 4348.75,-2583 4241.76,-2525.8"/>
<polygon fill="black" stroke="black" points="4243.34,-2522.67 4232.88,-2521.04 4240.04,-2528.85 4243.34,-2522.67"/>
</g>
<!-- u23 -->
<g id="node33" class="node">
<title>u23</title>
<ellipse fill="#ffbbff" stroke="black" cx="2778.99" cy="-3109" rx="233.16" ry="18"/>
<text text-anchor="middle" x="2778.99" y="-3105.3" font-family="Times,serif" font-size="14.00">Language.Drasil.Code.Imperative.WriteReadMe</text>
</g>
<!-- u23&#45;&gt;u18 -->
<g id="edge42" class="edge">
<title>u23&#45;&gt;u18</title>
<path fill="none" stroke="black" d="M2818.51,-3091.22C3019.73,-3005.75 3929.57,-2619.29 4151.88,-2524.86"/>
<polygon fill="black" stroke="black" points="4153.5,-2527.98 4161.33,-2520.85 4150.76,-2521.53 4153.5,-2527.98"/>
</g>
<!-- u22&#45;&gt;u50 -->
<g id="edge41" class="edge">
<title>u22&#45;&gt;u50</title>
<path fill="none" stroke="black" d="M5643.22,-2485.22C5511.01,-2433.37 5109.27,-2275.8 4966.78,-2219.92"/>
<polygon fill="black" stroke="black" points="4967.96,-2216.62 4957.37,-2216.23 4965.41,-2223.14 4967.96,-2216.62"/>
</g>
<!-- u22&#45;&gt;u3 -->
<g id="edge40" class="edge">
<title>u22&#45;&gt;u3</title>
<path fill="none" stroke="black" d="M5675.79,-2484.99C5626.7,-2404.62 5406.16,-2059.16 5135.99,-1878 4902.1,-1721.16 4572.65,-1642.03 4411.46,-1610.68"/>
<polygon fill="black" stroke="black" points="4412.04,-1607.23 4401.55,-1608.78 4410.71,-1614.1 4412.04,-1607.23"/>
</g>
<!-- u21&#45;&gt;u38 -->
<g id="edge39" class="edge">
<title>u21&#45;&gt;u38</title>
<path fill="none" stroke="black" d="M5733.15,-3091.5C5880.09,-3040.07 6329.37,-2882.82 6488.99,-2826.95"/>
<polygon fill="black" stroke="black" points="6490.35,-2830.19 6498.63,-2823.58 6488.03,-2823.58 6490.35,-2830.19"/>
</g>
<!-- u21&#45;&gt;u27 -->
<g id="edge38" class="edge">
<title>u21&#45;&gt;u27</title>
<path fill="none" stroke="black" d="M5685.99,-3090.95C5685.99,-3041.09 5685.99,-2895.2 5685.99,-2834.25"/>
<polygon fill="black" stroke="black" points="5689.49,-2834.23 5685.99,-2824.23 5682.49,-2834.23 5689.49,-2834.23"/>
</g>
<!-- u21&#45;&gt;u24 -->
<g id="edge37" class="edge">
<title>u21&#45;&gt;u24</title>
<path fill="none" stroke="black" d="M5635.44,-3091.5C5477.77,-3040.02 4995.36,-2882.53 4824.64,-2826.8"/>
<polygon fill="black" stroke="black" points="4825.65,-2823.45 4815.06,-2823.67 4823.48,-2830.1 4825.65,-2823.45"/>
</g>
<!-- u7 -->
<g id="node39" class="node">
<title>u7</title>
<ellipse fill="#ffbbff" stroke="black" cx="6116.99" cy="-2806" rx="207.16" ry="18"/>
<text text-anchor="middle" x="6116.99" y="-2802.3" font-family="Times,serif" font-size="14.00">Language.Drasil.Code.Imperative.Logging</text>
</g>
<!-- u21&#45;&gt;u7 -->
<g id="edge36" class="edge">
<title>u21&#45;&gt;u7</title>
<path fill="none" stroke="black" d="M5710.4,-3090.95C5783.58,-3039.85 6001.23,-2887.85 6084.29,-2829.84"/>
<polygon fill="black" stroke="black" points="6086.39,-2832.64 6092.59,-2824.04 6082.39,-2826.9 6086.39,-2832.64"/>
</g>
<!-- u6 -->
<g id="node40" class="node">
<title>u6</title>
<ellipse fill="#ffbbff" stroke="black" cx="4068.99" cy="-2199" rx="237.46" ry="18"/>
<text text-anchor="middle" x="4068.99" y="-2195.3" font-family="Times,serif" font-size="14.00">Language.Drasil.Code.Imperative.ConceptMatch</text>
</g>
<!-- u21&#45;&gt;u6 -->
<g id="edge35" class="edge">
<title>u21&#45;&gt;u6</title>
<path fill="none" stroke="black" d="M5557.12,-3095.15C5282.28,-3064.94 4652.42,-2979.98 4514.99,-2824 4414.77,-2710.24 4554.47,-2615.32 4476.99,-2485 4394.27,-2345.84 4214.08,-2257.71 4123.41,-2220.46"/>
<polygon fill="black" stroke="black" points="4124.71,-2217.21 4114.12,-2216.7 4122.08,-2223.7 4124.71,-2217.21"/>
</g>
<!-- u5 -->
<g id="node41" class="node">
<title>u5</title>
<ellipse fill="#ffbbff" stroke="black" cx="5241.99" cy="-2806" rx="219.86" ry="18"/>
<text text-anchor="middle" x="5241.99" y="-2802.3" font-family="Times,serif" font-size="14.00">Language.Drasil.Code.Imperative.Comments</text>
</g>
<!-- u21&#45;&gt;u5 -->
<g id="edge34" class="edge">
<title>u21&#45;&gt;u5</title>
<path fill="none" stroke="black" d="M5660.85,-3090.95C5585.39,-3039.79 5360.79,-2887.54 5275.43,-2829.67"/>
<polygon fill="black" stroke="black" points="5277.38,-2826.76 5267.14,-2824.04 5273.45,-2832.55 5277.38,-2826.76"/>
</g>
<!-- u11&#45;&gt;u38 -->
<g id="edge17" class="edge">
<title>u11&#45;&gt;u38</title>
<path fill="none" stroke="black" d="M6545.99,-3090.95C6545.99,-3041.09 6545.99,-2895.2 6545.99,-2834.25"/>
<polygon fill="black" stroke="black" points="6549.49,-2834.23 6545.99,-2824.23 6542.49,-2834.23 6549.49,-2834.23"/>
</g>
<!-- u11&#45;&gt;u22 -->
<g id="edge16" class="edge">
<title>u11&#45;&gt;u22</title>
<path fill="none" stroke="black" d="M6572.97,-3091.13C6647.33,-3042.56 6844.28,-2898.79 6758.99,-2788 6644.32,-2639.03 6081.14,-2552.16 5819.74,-2519.27"/>
<polygon fill="black" stroke="black" points="5820.17,-2515.8 5809.81,-2518.03 5819.3,-2522.74 5820.17,-2515.8"/>
</g>
<!-- u9 -->
<g id="node37" class="node">
<title>u9</title>
<ellipse fill="#ffbbff" stroke="black" cx="2647.99" cy="-2199" rx="219.86" ry="18"/>
<text text-anchor="middle" x="2647.99" y="-2195.3" font-family="Times,serif" font-size="14.00">Language.Drasil.Code.Imperative.WriteInput</text>
</g>
<!-- u9&#45;&gt;u35 -->
<g id="edge14" class="edge">
<title>u9&#45;&gt;u35</title>
<path fill="none" stroke="black" d="M2652.8,-2180.86C2672.38,-2109.58 2744.99,-1829.24 2744.99,-1594 2744.99,-1594 2744.99,-1594 2744.99,-1288 2744.99,-1054.22 2877.81,-792.65 2923.09,-710.28"/>
<polygon fill="black" stroke="black" points="2926.37,-711.58 2928.16,-701.14 2920.25,-708.19 2926.37,-711.58"/>
</g>
<!-- u8&#45;&gt;u43 -->
<g id="edge12" class="edge">
<title>u8&#45;&gt;u43</title>
<path fill="none" stroke="black" d="M4497.6,-2181.17C4386.15,-2129.64 4049.72,-1974.09 3927.76,-1917.7"/>
<polygon fill="black" stroke="black" points="3928.88,-1914.36 3918.34,-1913.34 3925.94,-1920.71 3928.88,-1914.36"/>
</g>
<!-- u8&#45;&gt;u47 -->
<g id="edge13" class="edge">
<title>u8&#45;&gt;u47</title>
<path fill="none" stroke="black" d="M4533.99,-2180.95C4533.99,-2131.09 4533.99,-1985.2 4533.99,-1924.25"/>
<polygon fill="black" stroke="black" points="4537.49,-1924.23 4533.99,-1914.23 4530.49,-1924.23 4537.49,-1924.23"/>
</g>
<!-- u8&#45;&gt;u3 -->
<g id="edge11" class="edge">
<title>u8&#45;&gt;u3</title>
<path fill="none" stroke="black" d="M4516.42,-2180.77C4475.48,-2139.33 4374.21,-2028.99 4333.99,-1914 4298,-1811.07 4305.97,-1678.24 4311.7,-1621.58"/>
<polygon fill="black" stroke="black" points="4315.21,-1621.61 4312.8,-1611.3 4308.25,-1620.87 4315.21,-1621.61"/>
</g>
<!-- u7&#45;&gt;u22 -->
<g id="edge10" class="edge">
<title>u7&#45;&gt;u22</title>
<path fill="none" stroke="black" d="M6092.59,-2787.95C6019.41,-2736.85 5801.76,-2584.85 5718.7,-2526.84"/>
<polygon fill="black" stroke="black" points="5720.6,-2523.9 5710.4,-2521.04 5716.59,-2529.64 5720.6,-2523.9"/>
</g>
<!-- u6&#45;&gt;u43 -->
<g id="edge9" class="edge">
<title>u6&#45;&gt;u43</title>
<path fill="none" stroke="black" d="M4058.46,-2180.95C4027.39,-2130.68 3936,-1982.78 3898.91,-1922.76"/>
<polygon fill="black" stroke="black" points="3901.88,-1920.9 3893.64,-1914.23 3895.92,-1924.58 3901.88,-1920.9"/>
</g>
<!-- u5&#45;&gt;u22 -->
<g id="edge8" class="edge">
<title>u5&#45;&gt;u22</title>
<path fill="none" stroke="black" d="M5267.14,-2787.95C5342.6,-2736.79 5567.19,-2584.54 5652.56,-2526.67"/>
<polygon fill="black" stroke="black" points="5654.54,-2529.55 5660.85,-2521.04 5650.61,-2523.76 5654.54,-2529.55"/>
</g>
<!-- u32 -->
<g id="node42" class="node">
<title>u32</title>
<ellipse fill="#77ff77" stroke="black" cx="2260.99" cy="-2806" rx="215.56" ry="18"/>
<text text-anchor="middle" x="2260.99" y="-2802.3" font-family="Times,serif" font-size="14.00">Language.Drasil.Code.Imperative.Build.AST</text>
</g>
<!-- u31 -->
<g id="node43" class="node">
<title>u31</title>
<ellipse fill="#77ff77" stroke="black" cx="2260.99" cy="-3109" rx="228.56" ry="18"/>
<text text-anchor="middle" x="2260.99" y="-3105.3" font-family="Times,serif" font-size="14.00">Language.Drasil.Code.Imperative.Build.Import</text>
</g>
<!-- u31&#45;&gt;u32 -->
<g id="edge55" class="edge">
<title>u31&#45;&gt;u32</title>
<path fill="none" stroke="black" d="M2260.99,-3090.95C2260.99,-3041.09 2260.99,-2895.2 2260.99,-2834.25"/>
<polygon fill="black" stroke="black" points="2264.49,-2834.23 2260.99,-2824.23 2257.49,-2834.23 2264.49,-2834.23"/>
</g>
<!-- u33 -->
<g id="node44" class="node">
<title>u33</title>
<ellipse fill="#ffff77" stroke="black" cx="3670.99" cy="-2503" rx="245.06" ry="18"/>
<text text-anchor="middle" x="3670.99" y="-2499.3" font-family="Times,serif" font-size="14.00">Language.Drasil.Code.Imperative.Doxygen.Import</text>
</g>
<!-- u33&#45;&gt;u43 -->
<g id="edge56" class="edge">
<title>u33&#45;&gt;u43</title>
<path fill="none" stroke="black" d="M3677,-2484.87C3706.64,-2400.28 3837.41,-2027.1 3873.65,-1923.66"/>
<polygon fill="black" stroke="black" points="3877.04,-1924.58 3877.04,-1913.98 3870.43,-1922.26 3877.04,-1924.58"/>
</g>
<!-- u20 -->
<g id="node45" class="node">
<title>u20</title>
<ellipse fill="#7777ff" stroke="black" cx="3319.99" cy="-3109" rx="289.45" ry="18"/>
<text text-anchor="middle" x="3319.99" y="-3105.3" font-family="Times,serif" font-size="14.00">Language.Drasil.Code.Imperative.GOOL.LanguageRenderer</text>
</g>
<!-- u18&#45;&gt;u43 -->
<g id="edge33" class="edge">
<title>u18&#45;&gt;u43</title>
<path fill="none" stroke="black" d="M4158.06,-2485.19C4074.99,-2450.02 3894.21,-2359.89 3822.99,-2217 3772.94,-2116.57 3836.59,-1979.48 3867.71,-1922.97"/>
<polygon fill="black" stroke="black" points="3870.9,-1924.43 3872.75,-1913.99 3864.8,-1921 3870.9,-1924.43"/>
</g>
<!-- u17&#45;&gt;u19 -->
<g id="edge32" class="edge">
<title>u17&#45;&gt;u19</title>
<path fill="none" stroke="black" d="M2234.9,-3697.95C2343.55,-3646.37 2668.67,-3492.02 2788.23,-3435.25"/>
<polygon fill="black" stroke="black" points="2789.95,-3438.31 2797.48,-3430.86 2786.95,-3431.99 2789.95,-3438.31"/>
</g>
<!-- u12 -->
<g id="node53" class="node">
<title>u12</title>
<ellipse fill="#ff7777" stroke="black" cx="2198.99" cy="-3413" rx="393.73" ry="18"/>
<text text-anchor="middle" x="2198.99" y="-3409.3" font-family="Times,serif" font-size="14.00">Language.Drasil.Code.Imperative.GOOL.LanguageRenderer.LanguagePolymorphic</text>
</g>
<!-- u17&#45;&gt;u12 -->
<g id="edge31" class="edge">
<title>u17&#45;&gt;u12</title>
<path fill="none" stroke="black" d="M2198.99,-3697.95C2198.99,-3648.09 2198.99,-3502.2 2198.99,-3441.25"/>
<polygon fill="black" stroke="black" points="2202.49,-3441.23 2198.99,-3431.23 2195.49,-3441.23 2202.49,-3441.23"/>
</g>
<!-- u16&#45;&gt;u19 -->
<g id="edge30" class="edge">
<title>u16&#45;&gt;u19</title>
<path fill="none" stroke="black" d="M2931.1,-3697.95C2913.84,-3647.99 2863.26,-3501.6 2842.28,-3440.88"/>
<polygon fill="black" stroke="black" points="2845.52,-3439.54 2838.95,-3431.23 2838.91,-3441.83 2845.52,-3439.54"/>
</g>
<!-- u16&#45;&gt;u12 -->
<g id="edge29" class="edge">
<title>u16&#45;&gt;u12</title>
<path fill="none" stroke="black" d="M2895.47,-3698.06C2769.05,-3646.5 2389.09,-3491.53 2250.39,-3434.96"/>
<polygon fill="black" stroke="black" points="2251.41,-3431.6 2240.83,-3431.06 2248.77,-3438.08 2251.41,-3431.6"/>
</g>
<!-- u15&#45;&gt;u19 -->
<g id="edge28" class="edge">
<title>u15&#45;&gt;u19</title>
<path fill="none" stroke="black" d="M3628.56,-3698.06C3483.38,-3646.23 3045.48,-3489.87 2889.18,-3434.06"/>
<polygon fill="black" stroke="black" points="2890.34,-3430.76 2879.74,-3430.69 2887.98,-3437.35 2890.34,-3430.76"/>
</g>
<!-- u15&#45;&gt;u12 -->
<g id="edge27" class="edge">
<title>u15&#45;&gt;u12</title>
<path fill="none" stroke="black" d="M3594.74,-3698.44C3340.23,-3646.57 2559.42,-3487.45 2290.86,-3432.72"/>
<polygon fill="black" stroke="black" points="2291.25,-3429.23 2280.75,-3430.66 2289.85,-3436.09 2291.25,-3429.23"/>
</g>
<!-- u14&#45;&gt;u19 -->
<g id="edge26" class="edge">
<title>u14&#45;&gt;u19</title>
<path fill="none" stroke="black" d="M836.44,-3698.82C1202.58,-3646.58 2350.46,-3482.84 2718.33,-3430.36"/>
<polygon fill="black" stroke="black" points="2719.05,-3433.79 2728.46,-3428.91 2718.07,-3426.86 2719.05,-3433.79"/>
</g>
<!-- u14&#45;&gt;u12 -->
<g id="edge25" class="edge">
<title>u14&#45;&gt;u12</title>
<path fill="none" stroke="black" d="M804.45,-3698.39C1059.08,-3646.46 1839,-3487.41 2107.24,-3432.71"/>
<polygon fill="black" stroke="black" points="2108.24,-3436.08 2117.33,-3430.65 2106.84,-3429.22 2108.24,-3436.08"/>
</g>
<!-- u13&#45;&gt;u19 -->
<g id="edge24" class="edge">
<title>u13&#45;&gt;u19</title>
<path fill="none" stroke="black" d="M1544.27,-3698.39C1780.18,-3646.33 2503.96,-3486.61 2750.07,-3432.3"/>
<polygon fill="black" stroke="black" points="2751.02,-3435.67 2760.03,-3430.1 2749.51,-3428.84 2751.02,-3435.67"/>
</g>
<!-- u13&#45;&gt;u12 -->
<g id="edge23" class="edge">
<title>u13&#45;&gt;u12</title>
<path fill="none" stroke="black" d="M1510.07,-3698.06C1635.12,-3646.5 2010.96,-3491.53 2148.15,-3434.96"/>
<polygon fill="black" stroke="black" points="2149.7,-3438.11 2157.61,-3431.06 2147.03,-3431.64 2149.7,-3438.11"/>
</g>
<!-- u12&#45;&gt;u23 -->
<g id="edge20" class="edge">
<title>u12&#45;&gt;u23</title>
<path fill="none" stroke="black" d="M2231.84,-3394.9C2331.03,-3343.25 2627.47,-3188.9 2737.38,-3131.67"/>
<polygon fill="black" stroke="black" points="2739.26,-3134.64 2746.51,-3126.91 2736.02,-3128.43 2739.26,-3134.64"/>
</g>
<!-- u12&#45;&gt;u9 -->
<g id="edge18" class="edge">
<title>u12&#45;&gt;u9</title>
<path fill="none" stroke="black" d="M2183.36,-3394.7C2146.56,-3352.68 2055.15,-3240.28 2022.99,-3127 1999,-3042.47 1851.85,-3195.8 2035.99,-2788 2163.81,-2504.93 2496.07,-2289.36 2609.44,-2222.05"/>
<polygon fill="black" stroke="black" points="2611.32,-2225.01 2618.16,-2216.91 2607.76,-2218.97 2611.32,-2225.01"/>
</g>
<!-- u12&#45;&gt;u31 -->
<g id="edge21" class="edge">
<title>u12&#45;&gt;u31</title>
<path fill="none" stroke="black" d="M2202.51,-3394.9C2212.78,-3344.87 2242.83,-3198.5 2255.38,-3137.34"/>
<polygon fill="black" stroke="black" points="2258.86,-3137.79 2257.44,-3127.29 2252.01,-3136.38 2258.86,-3137.79"/>
</g>
<!-- u12&#45;&gt;u33 -->
<g id="edge22" class="edge">
<title>u12&#45;&gt;u33</title>
<path fill="none" stroke="black" d="M2217.13,-3394.77C2287.21,-3328.18 2536.43,-3091.4 2536.99,-3091 2922.35,-2816.68 3453.13,-2591.85 3619.2,-2524.59"/>
<polygon fill="black" stroke="black" points="3620.72,-2527.75 3628.68,-2520.76 3618.1,-2521.26 3620.72,-2527.75"/>
</g>
<!-- u12&#45;&gt;u20 -->
<g id="edge19" class="edge">
<title>u12&#45;&gt;u20</title>
<path fill="none" stroke="black" d="M2261.26,-3395.22C2454.54,-3343.16 3043.47,-3184.5 3248.62,-3129.23"/>
<polygon fill="black" stroke="black" points="3249.64,-3132.58 3258.39,-3126.6 3247.82,-3125.82 3249.64,-3132.58"/>
</g>
<!-- u10 -->
<g id="node54" class="node">
<title>u10</title>
<ellipse fill="#77ffff" stroke="black" cx="3340.99" cy="-3413" rx="267.55" ry="18"/>
<text text-anchor="middle" x="3340.99" y="-3409.3" font-family="Times,serif" font-size="14.00">Language.Drasil.Code.Imperative.Parsers.ConfigParser</text>
</g>
<!-- u10&#45;&gt;u20 -->
<g id="edge15" class="edge">
<title>u10&#45;&gt;u20</title>
<path fill="none" stroke="black" d="M3339.81,-3394.9C3336.33,-3344.87 3326.15,-3198.5 3321.9,-3137.34"/>
<polygon fill="black" stroke="black" points="3325.38,-3137.02 3321.2,-3127.29 3318.4,-3137.51 3325.38,-3137.02"/>
</g>
<!-- u40&#45;&gt;u48 -->
<g id="edge66" class="edge">
<title>u40&#45;&gt;u48</title>
<path fill="none" stroke="black" d="M3222.99,-1270.67C3222.99,-1159.31 3222.99,-544.6 3222.99,-407.23"/>
<polygon fill="black" stroke="black" points="3226.49,-407.14 3222.99,-397.14 3219.49,-407.14 3226.49,-407.14"/>
</g>
<!-- u39&#45;&gt;u36 -->
<g id="edge64" class="edge">
<title>u39&#45;&gt;u36</title>
<path fill="none" stroke="black" d="M3863.23,-1574.9C3804.2,-1523.82 3629.1,-1372.3 3561.27,-1313.6"/>
<polygon fill="black" stroke="black" points="3563.39,-1310.81 3553.54,-1306.91 3558.81,-1316.1 3563.39,-1310.81"/>
</g>
<!-- u39&#45;&gt;u4 -->
<g id="edge63" class="edge">
<title>u39&#45;&gt;u4</title>
<path fill="none" stroke="black" d="M3883.9,-1574.9C3886.55,-1524.87 3894.31,-1378.5 3897.55,-1317.34"/>
<polygon fill="black" stroke="black" points="3901.04,-1317.46 3898.08,-1307.29 3894.05,-1317.09 3901.04,-1317.46"/>
</g>
<!-- u39&#45;&gt;u1 -->
<g id="edge62" class="edge">
<title>u39&#45;&gt;u1</title>
<path fill="none" stroke="black" d="M3907.15,-1575.12C3980.25,-1524.01 4199.24,-1370.92 4282.44,-1312.76"/>
<polygon fill="black" stroke="black" points="4284.56,-1315.55 4290.75,-1306.95 4280.54,-1309.81 4284.56,-1315.55"/>
</g>
<!-- u39&#45;&gt;u40 -->
<g id="edge65" class="edge">
<title>u39&#45;&gt;u40</title>
<path fill="none" stroke="black" d="M3846.57,-1575.33C3734.11,-1523.87 3392.5,-1367.56 3268.54,-1310.84"/>
<polygon fill="black" stroke="black" points="3269.86,-1307.59 3259.31,-1306.62 3266.94,-1313.96 3269.86,-1307.59"/>
</g>
<!-- u51 -->
<g id="node57" class="node">
<title>u51</title>
<ellipse fill="#33ff33" stroke="black" cx="266.99" cy="-4626" rx="108.58" ry="18"/>
<text text-anchor="middle" x="266.99" y="-4622.3" font-family="Times,serif" font-size="14.00">drasil&#45;code.test.Main</text>
</g>
<!-- u51&#45;&gt;u54 -->
<g id="edge87" class="edge">
<title>u51&#45;&gt;u54</title>
<path fill="none" stroke="black" d="M263.26,-4607.95C252.32,-4558.09 220.33,-4412.2 206.97,-4351.25"/>
<polygon fill="black" stroke="black" points="210.33,-4350.25 204.77,-4341.23 203.5,-4351.75 210.33,-4350.25"/>
</g>
<!-- u51&#45;&gt;u53 -->
<g id="edge86" class="edge">
<title>u51&#45;&gt;u53</title>
<path fill="none" stroke="black" d="M270.79,-4607.95C281.89,-4558.09 314.36,-4412.2 327.93,-4351.25"/>
<polygon fill="black" stroke="black" points="331.4,-4351.75 330.16,-4341.23 324.57,-4350.23 331.4,-4351.75"/>
</g>
<!-- u51&#45;&gt;u52 -->
<g id="edge85" class="edge">
<title>u51&#45;&gt;u52</title>
<path fill="none" stroke="black" d="M255.56,-4607.95C221.74,-4557.56 122.09,-4409.08 82,-4349.33"/>
<polygon fill="black" stroke="black" points="84.79,-4347.21 76.31,-4340.86 78.97,-4351.11 84.79,-4347.21"/>
</g>
<!-- u51&#45;&gt;u42 -->
<g id="edge84" class="edge">
<title>u51&#45;&gt;u42</title>
<path fill="none" stroke="black" d="M332.94,-4611.68C575.68,-4562.64 1418.83,-4392.31 1679.56,-4339.64"/>
<polygon fill="black" stroke="black" points="1680.58,-4343.01 1689.69,-4337.6 1679.2,-4336.15 1680.58,-4343.01"/>
</g>
</g>
</svg>
