<?xml version="1.0" encoding="UTF-8" standalone="no"?>
<!DOCTYPE svg PUBLIC "-//W3C//DTD SVG 1.1//EN"
 "http://www.w3.org/Graphics/SVG/1.1/DTD/svg11.dtd">
<!-- Generated by graphviz version 2.43.0 (0)
 -->
<!-- Title: G Pages: 1 -->
<svg width="431pt" height="288pt"
 viewBox="0.00 0.00 430.56 288.00" xmlns="http://www.w3.org/2000/svg" xmlns:xlink="http://www.w3.org/1999/xlink">
<g id="graph0" class="graph" transform="scale(2.66 2.66) rotate(0) translate(4 763.33)">
<title>G</title>
<polygon fill="white" stroke="transparent" points="-4,4 -4,-763.33 1143.17,-763.33 1143.17,4 -4,4"/>
<!-- u0 -->
<g id="node1" class="node">
<title>u0</title>
<ellipse fill="#bbffbb" stroke="black" cx="588.09" cy="-705" rx="34.39" ry="18"/>
<text text-anchor="middle" x="588.09" y="-701.3" font-family="Times,serif" font-size="14.00">Main</text>
</g>
<!-- u3 -->
<g id="node5" class="node">
<title>u3</title>
<ellipse fill="#ffffbb" stroke="black" cx="588.09" cy="-488" rx="104.78" ry="18"/>
<text text-anchor="middle" x="588.09" y="-484.3" font-family="Times,serif" font-size="14.00">Drasil.Website.Body</text>
</g>
<!-- u0&#45;&gt;u3 -->
<g id="edge1" class="edge">
<title>u0&#45;&gt;u3</title>
<path fill="none" stroke="black" d="M588.09,-686.77C588.09,-649.49 588.09,-561.08 588.09,-516.18"/>
<polygon fill="black" stroke="black" points="591.59,-516.01 588.09,-506.01 584.59,-516.01 591.59,-516.01"/>
</g>
<!-- u6 -->
<g id="node2" class="node">
<title>u6</title>
<ellipse fill="#ffffbb" stroke="black" cx="453.09" cy="-54" rx="122.38" ry="18"/>
<text text-anchor="middle" x="453.09" y="-50.3" font-family="Times,serif" font-size="14.00">Drasil.Website.Example</text>
</g>
<!-- u5 -->
<g id="node3" class="node">
<title>u5</title>
<ellipse fill="#ffffbb" stroke="black" cx="152.09" cy="-271" rx="152.17" ry="18"/>
<text text-anchor="middle" x="152.09" y="-267.3" font-family="Times,serif" font-size="14.00">Drasil.Website.Documentation</text>
</g>
<!-- u4 -->
<g id="node4" class="node">
<title>u4</title>
<ellipse fill="#ffffbb" stroke="black" cx="453.09" cy="-271" rx="131.08" ry="18"/>
<text text-anchor="middle" x="453.09" y="-267.3" font-family="Times,serif" font-size="14.00">Drasil.Website.CaseStudy</text>
</g>
<!-- u4&#45;&gt;u6 -->
<g id="edge6" class="edge">
<title>u4&#45;&gt;u6</title>
<path fill="none" stroke="black" d="M453.09,-252.77C453.09,-215.49 453.09,-127.08 453.09,-82.18"/>
<polygon fill="black" stroke="black" points="456.59,-82.01 453.09,-72.01 449.59,-82.01 456.59,-82.01"/>
</g>
<!-- u3&#45;&gt;u5 -->
<g id="edge5" class="edge">
<title>u3&#45;&gt;u5</title>
<path fill="none" stroke="black" d="M555.32,-470.84C477.55,-432.49 281.87,-336 194.9,-293.11"/>
<polygon fill="black" stroke="black" points="196.35,-289.93 185.84,-288.64 193.26,-296.2 196.35,-289.93"/>
</g>
<!-- u3&#45;&gt;u4 -->
<g id="edge4" class="edge">
<title>u3&#45;&gt;u4</title>
<path fill="none" stroke="black" d="M577.27,-469.77C553.56,-432.01 496.93,-341.83 469.09,-297.49"/>
<polygon fill="black" stroke="black" points="472.05,-295.62 463.77,-289.01 466.12,-299.34 472.05,-295.62"/>
</g>
<!-- u2 -->
<g id="node6" class="node">
<title>u2</title>
<ellipse fill="#ffffbb" stroke="black" cx="723.09" cy="-271" rx="120.48" ry="18"/>
<text text-anchor="middle" x="723.09" y="-267.3" font-family="Times,serif" font-size="14.00">Drasil.Website.Analysis</text>
</g>
<!-- u3&#45;&gt;u2 -->
<g id="edge3" class="edge">
<title>u3&#45;&gt;u2</title>
<path fill="none" stroke="black" d="M598.91,-469.77C622.61,-432.01 679.24,-341.83 707.08,-297.49"/>
<polygon fill="black" stroke="black" points="710.05,-299.34 712.4,-289.01 704.12,-295.62 710.05,-299.34"/>
</g>
<!-- u1 -->
<g id="node7" class="node">
<title>u1</title>
<ellipse fill="#ffffbb" stroke="black" cx="1000.09" cy="-271" rx="139.18" ry="18"/>
<text text-anchor="middle" x="1000.09" y="-267.3" font-family="Times,serif" font-size="14.00">Drasil.Website.Introduction</text>
</g>
<!-- u3&#45;&gt;u1 -->
<g id="edge2" class="edge">
<title>u3&#45;&gt;u1</title>
<path fill="none" stroke="black" d="M619.39,-470.66C692.98,-432.26 876.96,-336.25 959.22,-293.33"/>
<polygon fill="black" stroke="black" points="961.02,-296.34 968.26,-288.61 957.78,-290.13 961.02,-296.34"/>
</g>
</g>
</svg>
