<?xml version="1.0" encoding="UTF-8" standalone="no"?>
<!DOCTYPE svg PUBLIC "-//W3C//DTD SVG 1.1//EN"
 "http://www.w3.org/Graphics/SVG/1.1/DTD/svg11.dtd">
<!-- Generated by graphviz version 2.43.0 (0)
 -->
<!-- Title: G Pages: 1 -->
<svg width="431pt" height="288pt"
 viewBox="0.00 0.00 430.62 288.00" xmlns="http://www.w3.org/2000/svg" xmlns:xlink="http://www.w3.org/1999/xlink">
<g id="graph0" class="graph" transform="scale(2.66 2.66) rotate(0) translate(4 763.33)">
<title>G</title>
<polygon fill="white" stroke="transparent" points="-4,4 -4,-763.33 1143.33,-763.33 1143.33,4 -4,4"/>
<!-- u0 -->
<g id="node1" class="node">
<title>u0</title>
<ellipse fill="#bbffbb" stroke="black" cx="540.24" cy="-705" rx="34.39" ry="18"/>
<text text-anchor="middle" x="540.24" y="-701.3" font-family="Times,serif" font-size="14.00">Main</text>
</g>
<!-- u5 -->
<g id="node3" class="node">
<title>u5</title>
<ellipse fill="#ffffbb" stroke="black" cx="540.24" cy="-488" rx="104.78" ry="18"/>
<text text-anchor="middle" x="540.24" y="-484.3" font-family="Times,serif" font-size="14.00">Drasil.Website.Body</text>
</g>
<!-- u0&#45;&gt;u5 -->
<g id="edge1" class="edge">
<title>u0&#45;&gt;u5</title>
<path fill="none" stroke="black" d="M540.24,-686.77C540.24,-649.49 540.24,-561.08 540.24,-516.18"/>
<polygon fill="black" stroke="black" points="543.74,-516.01 540.24,-506.01 536.74,-516.01 543.74,-516.01"/>
</g>
<!-- u6 -->
<g id="node2" class="node">
<title>u6</title>
<ellipse fill="#ffffbb" stroke="black" cx="390.24" cy="-54" rx="122.38" ry="18"/>
<text text-anchor="middle" x="390.24" y="-50.3" font-family="Times,serif" font-size="14.00">Drasil.Website.Example</text>
</g>
<!-- u4 -->
<g id="node4" class="node">
<title>u4</title>
<ellipse fill="#ffffbb" stroke="black" cx="120.24" cy="-271" rx="120.48" ry="18"/>
<text text-anchor="middle" x="120.24" y="-267.3" font-family="Times,serif" font-size="14.00">Drasil.Website.Analysis</text>
</g>
<!-- u5&#45;&gt;u4 -->
<g id="edge6" class="edge">
<title>u5&#45;&gt;u4</title>
<path fill="none" stroke="black" d="M508.33,-470.66C433.14,-432.17 244.92,-335.82 161.34,-293.04"/>
<polygon fill="black" stroke="black" points="162.89,-289.9 152.39,-288.46 159.7,-296.13 162.89,-289.9"/>
</g>
<!-- u3 -->
<g id="node5" class="node">
<title>u3</title>
<ellipse fill="#ffffbb" stroke="black" cx="390.24" cy="-271" rx="131.08" ry="18"/>
<text text-anchor="middle" x="390.24" y="-267.3" font-family="Times,serif" font-size="14.00">Drasil.Website.CaseStudy</text>
</g>
<!-- u5&#45;&gt;u3 -->
<g id="edge5" class="edge">
<title>u5&#45;&gt;u3</title>
<path fill="none" stroke="black" d="M528.22,-469.77C501.82,-431.93 438.7,-341.45 407.83,-297.22"/>
<polygon fill="black" stroke="black" points="410.7,-295.21 402.11,-289.01 404.96,-299.22 410.7,-295.21"/>
</g>
<!-- u2 -->
<g id="node6" class="node">
<title>u2</title>
<ellipse fill="#ffffbb" stroke="black" cx="691.24" cy="-271" rx="152.17" ry="18"/>
<text text-anchor="middle" x="691.24" y="-267.3" font-family="Times,serif" font-size="14.00">Drasil.Website.Documentation</text>
</g>
<!-- u5&#45;&gt;u2 -->
<g id="edge4" class="edge">
<title>u5&#45;&gt;u2</title>
<path fill="none" stroke="black" d="M552.34,-469.77C578.91,-431.93 642.46,-341.45 673.53,-297.22"/>
<polygon fill="black" stroke="black" points="676.41,-299.21 679.29,-289.01 670.68,-295.19 676.41,-299.21"/>
</g>
<!-- u1 -->
<g id="node7" class="node">
<title>u1</title>
<ellipse fill="#ffffbb" stroke="black" cx="1000.24" cy="-271" rx="139.18" ry="18"/>
<text text-anchor="middle" x="1000.24" y="-267.3" font-family="Times,serif" font-size="14.00">Drasil.Website.Introduction</text>
</g>
<!-- u5&#45;&gt;u1 -->
<g id="edge3" class="edge">
<title>u5&#45;&gt;u1</title>
<path fill="none" stroke="black" d="M574.81,-470.84C657.05,-432.4 864.24,-335.57 955.68,-292.82"/>
<polygon fill="black" stroke="black" points="957.37,-295.9 964.95,-288.49 954.41,-289.56 957.37,-295.9"/>
</g>
<!-- u3&#45;&gt;u6 -->
<g id="edge2" class="edge">
<title>u3&#45;&gt;u6</title>
<path fill="none" stroke="black" d="M390.24,-252.77C390.24,-215.49 390.24,-127.08 390.24,-82.18"/>
<polygon fill="black" stroke="black" points="393.74,-82.01 390.24,-72.01 386.74,-82.01 393.74,-82.01"/>
</g>
</g>
</svg>
