<?xml version="1.0" encoding="UTF-8" standalone="no"?>
<!DOCTYPE svg PUBLIC "-//W3C//DTD SVG 1.1//EN"
 "http://www.w3.org/Graphics/SVG/1.1/DTD/svg11.dtd">
<!-- Generated by graphviz version 2.43.0 (0)
 -->
<!-- Title: G Pages: 1 -->
<svg width="432pt" height="287pt"
 viewBox="0.00 0.00 432.00 286.68" xmlns="http://www.w3.org/2000/svg" xmlns:xlink="http://www.w3.org/1999/xlink">
<g id="graph0" class="graph" transform="scale(12.36 12.36) rotate(0) translate(4 3540)">
<title>G</title>
<polygon fill="white" stroke="transparent" points="-4,4 -4,-3540 5336.39,-3540 5336.39,4 -4,4"/>
<!-- u55 -->
<g id="node1" class="node">
<title>u55</title>
<ellipse fill="#bbffbb" stroke="black" cx="343.39" cy="-3231" rx="52.79" ry="18"/>
<text text-anchor="middle" x="343.39" y="-3227.3" font-family="Times,serif" font-size="14.00">FileTests</text>
</g>
<!-- u54 -->
<g id="node2" class="node">
<title>u54</title>
<ellipse fill="#bbffbb" stroke="black" cx="62.39" cy="-3231" rx="62.29" ry="18"/>
<text text-anchor="middle" x="62.39" y="-3227.3" font-family="Times,serif" font-size="14.00">HelloWorld</text>
</g>
<!-- u50 -->
<g id="node6" class="node">
<title>u50</title>
<ellipse fill="#bbffbb" stroke="black" cx="62.39" cy="-2987" rx="42.49" ry="18"/>
<text text-anchor="middle" x="62.39" y="-2983.3" font-family="Times,serif" font-size="14.00">Helper</text>
</g>
<!-- u54&#45;&gt;u50 -->
<g id="edge88" class="edge">
<title>u54&#45;&gt;u50</title>
<path fill="none" stroke="black" d="M62.39,-3212.98C62.39,-3171.69 62.39,-3065.86 62.39,-3015.47"/>
<polygon fill="black" stroke="black" points="65.89,-3015.32 62.39,-3005.32 58.89,-3015.32 65.89,-3015.32"/>
</g>
<!-- u53 -->
<g id="node3" class="node">
<title>u53</title>
<ellipse fill="#bbffbb" stroke="black" cx="207.39" cy="-3231" rx="64.99" ry="18"/>
<text text-anchor="middle" x="207.39" y="-3227.3" font-family="Times,serif" font-size="14.00">PatternTest</text>
</g>
<!-- u52 -->
<g id="node4" class="node">
<title>u52</title>
<ellipse fill="#bbffbb" stroke="black" cx="191.39" cy="-2987" rx="53.89" ry="18"/>
<text text-anchor="middle" x="191.39" y="-2983.3" font-family="Times,serif" font-size="14.00">Observer</text>
</g>
<!-- u53&#45;&gt;u52 -->
<g id="edge87" class="edge">
<title>u53&#45;&gt;u52</title>
<path fill="none" stroke="black" d="M206.27,-3212.98C203.53,-3171.59 196.51,-3065.35 193.19,-3015.11"/>
<polygon fill="black" stroke="black" points="196.67,-3014.75 192.52,-3005 189.69,-3015.21 196.67,-3014.75"/>
</g>
<!-- u51 -->
<g id="node5" class="node">
<title>u51</title>
<ellipse fill="#bbffbb" stroke="black" cx="275.39" cy="-3475" rx="34.39" ry="18"/>
<text text-anchor="middle" x="275.39" y="-3471.3" font-family="Times,serif" font-size="14.00">Main</text>
</g>
<!-- u51&#45;&gt;u55 -->
<g id="edge86" class="edge">
<title>u51&#45;&gt;u55</title>
<path fill="none" stroke="black" d="M280.18,-3456.98C291.83,-3415.5 321.79,-3308.9 335.87,-3258.79"/>
<polygon fill="black" stroke="black" points="339.28,-3259.57 338.62,-3249 332.54,-3257.68 339.28,-3259.57"/>
</g>
<!-- u51&#45;&gt;u54 -->
<g id="edge85" class="edge">
<title>u51&#45;&gt;u54</title>
<path fill="none" stroke="black" d="M261.42,-3458.12C225.04,-3416.78 127.19,-3305.62 83.72,-3256.23"/>
<polygon fill="black" stroke="black" points="86.22,-3253.77 76.98,-3248.57 80.96,-3258.39 86.22,-3253.77"/>
</g>
<!-- u51&#45;&gt;u53 -->
<g id="edge84" class="edge">
<title>u51&#45;&gt;u53</title>
<path fill="none" stroke="black" d="M270.61,-3456.98C258.96,-3415.5 229,-3308.9 214.92,-3258.79"/>
<polygon fill="black" stroke="black" points="218.25,-3257.68 212.17,-3249 211.51,-3259.57 218.25,-3257.68"/>
</g>
<!-- u4 -->
<g id="node10" class="node">
<title>u4</title>
<ellipse fill="#bbbbff" stroke="black" cx="1667.39" cy="-3231" rx="113.18" ry="18"/>
<text text-anchor="middle" x="1667.39" y="-3227.3" font-family="Times,serif" font-size="14.00">Language.Drasil.Code</text>
</g>
<!-- u51&#45;&gt;u4 -->
<g id="edge83" class="edge">
<title>u51&#45;&gt;u4</title>
<path fill="none" stroke="black" d="M307.75,-3468.37C482.47,-3438 1315.17,-3293.23 1583.71,-3246.55"/>
<polygon fill="black" stroke="black" points="1584.54,-3249.96 1593.79,-3244.8 1583.34,-3243.06 1584.54,-3249.96"/>
</g>
<!-- u0 -->
<g id="node7" class="node">
<title>u0</title>
<ellipse fill="#ffffbb" stroke="black" cx="1667.39" cy="-3475" rx="214.46" ry="18"/>
<text text-anchor="middle" x="1667.39" y="-3471.3" font-family="Times,serif" font-size="14.00">Data.Drasil.ExternalLibraries.ODELibraries</text>
</g>
<!-- u0&#45;&gt;u4 -->
<g id="edge1" class="edge">
<title>u0&#45;&gt;u4</title>
<path fill="none" stroke="black" d="M1667.39,-3456.98C1667.39,-3415.69 1667.39,-3309.86 1667.39,-3259.47"/>
<polygon fill="black" stroke="black" points="1670.89,-3259.32 1667.39,-3249.32 1663.89,-3259.32 1670.89,-3259.32"/>
</g>
<!-- u11 -->
<g id="node8" class="node">
<title>u11</title>
<ellipse fill="#bbbbff" stroke="black" cx="3254.39" cy="-549" rx="110.48" ry="18"/>
<text text-anchor="middle" x="3254.39" y="-545.3" font-family="Times,serif" font-size="14.00">Language.Drasil.Mod</text>
</g>
<!-- u9 -->
<g id="node13" class="node">
<title>u9</title>
<ellipse fill="#ffbbbb" stroke="black" cx="3254.39" cy="-305" rx="170.87" ry="18"/>
<text text-anchor="middle" x="3254.39" y="-301.3" font-family="Times,serif" font-size="14.00">Language.Drasil.Chunk.Parameter</text>
</g>
<!-- u11&#45;&gt;u9 -->
<g id="edge21" class="edge">
<title>u11&#45;&gt;u9</title>
<path fill="none" stroke="black" d="M3254.39,-530.98C3254.39,-489.69 3254.39,-383.86 3254.39,-333.47"/>
<polygon fill="black" stroke="black" points="3257.89,-333.32 3254.39,-323.32 3250.89,-333.32 3257.89,-333.32"/>
</g>
<!-- u17 -->
<g id="node19" class="node">
<title>u17</title>
<ellipse fill="#bbffff" stroke="black" cx="2527.39" cy="-305" rx="160.57" ry="18"/>
<text text-anchor="middle" x="2527.39" y="-301.3" font-family="Times,serif" font-size="14.00">Language.Drasil.Code.DataDesc</text>
</g>
<!-- u11&#45;&gt;u17 -->
<g id="edge22" class="edge">
<title>u11&#45;&gt;u17</title>
<path fill="none" stroke="black" d="M3208.09,-532.59C3080.88,-490.24 2726.2,-372.18 2585.75,-325.42"/>
<polygon fill="black" stroke="black" points="2586.6,-322.02 2576.01,-322.18 2584.39,-328.66 2586.6,-322.02"/>
</g>
<!-- u5 -->
<g id="node9" class="node">
<title>u5</title>
<ellipse fill="#bbbbff" stroke="black" cx="3245.39" cy="-1280" rx="126.18" ry="18"/>
<text text-anchor="middle" x="3245.39" y="-1276.3" font-family="Times,serif" font-size="14.00">Language.Drasil.Choices</text>
</g>
<!-- u14 -->
<g id="node22" class="node">
<title>u14</title>
<ellipse fill="#bbffff" stroke="black" cx="2620.39" cy="-1036" rx="139.98" ry="18"/>
<text text-anchor="middle" x="2620.39" y="-1032.3" font-family="Times,serif" font-size="14.00">Language.Drasil.Code.Code</text>
</g>
<!-- u5&#45;&gt;u14 -->
<g id="edge18" class="edge">
<title>u5&#45;&gt;u14</title>
<path fill="none" stroke="black" d="M3203.9,-1262.93C3093.48,-1220.18 2792.6,-1103.68 2671.7,-1056.87"/>
<polygon fill="black" stroke="black" points="2672.87,-1053.57 2662.28,-1053.22 2670.34,-1060.09 2672.87,-1053.57"/>
</g>
<!-- u2 -->
<g id="node56" class="node">
<title>u2</title>
<ellipse fill="#ff77ff" stroke="black" cx="3254.39" cy="-1036" rx="172.77" ry="18"/>
<text text-anchor="middle" x="3254.39" y="-1032.3" font-family="Times,serif" font-size="14.00">Language.Drasil.Data.ODELibPckg</text>
</g>
<!-- u5&#45;&gt;u2 -->
<g id="edge17" class="edge">
<title>u5&#45;&gt;u2</title>
<path fill="none" stroke="black" d="M3246.03,-1261.98C3247.56,-1220.69 3251.5,-1114.86 3253.37,-1064.47"/>
<polygon fill="black" stroke="black" points="3256.88,-1064.45 3253.75,-1054.32 3249.88,-1064.19 3256.88,-1064.45"/>
</g>
<!-- u39 -->
<g id="node30" class="node">
<title>u39</title>
<ellipse fill="#ffbbff" stroke="black" cx="1652.39" cy="-1768" rx="217.96" ry="18"/>
<text text-anchor="middle" x="1652.39" y="-1764.3" font-family="Times,serif" font-size="14.00">Language.Drasil.Code.Imperative.ReadInput</text>
</g>
<!-- u4&#45;&gt;u39 -->
<g id="edge16" class="edge">
<title>u4&#45;&gt;u39</title>
<path fill="none" stroke="black" d="M1581.77,-3219.17C1278.48,-3178.47 273.39,-3022.57 273.39,-2744 273.39,-2744 273.39,-2744 273.39,-2255 273.39,-1989.24 1195.99,-1833.08 1531.92,-1785.03"/>
<polygon fill="black" stroke="black" points="1532.76,-1788.45 1542.17,-1783.58 1531.77,-1781.52 1532.76,-1788.45"/>
</g>
<!-- u29 -->
<g id="node39" class="node">
<title>u29</title>
<ellipse fill="#ffbbff" stroke="black" cx="4604.39" cy="-2987" rx="217.16" ry="18"/>
<text text-anchor="middle" x="4604.39" y="-2983.3" font-family="Times,serif" font-size="14.00">Language.Drasil.Code.Imperative.Generator</text>
</g>
<!-- u4&#45;&gt;u29 -->
<g id="edge15" class="edge">
<title>u4&#45;&gt;u29</title>
<path fill="none" stroke="black" d="M1765.53,-3221.91C2195.37,-3186.5 3914.14,-3044.87 4446.43,-3001.02"/>
<polygon fill="black" stroke="black" points="4446.81,-3004.5 4456.49,-3000.19 4446.24,-2997.52 4446.81,-3004.5"/>
</g>
<!-- u28 -->
<g id="node48" class="node">
<title>u28</title>
<ellipse fill="#ff7777" stroke="black" cx="3608.39" cy="-2743" rx="369.33" ry="18"/>
<text text-anchor="middle" x="3608.39" y="-2739.3" font-family="Times,serif" font-size="14.00">Language.Drasil.Code.Imperative.GOOL.LanguageRenderer.CSharpRenderer</text>
</g>
<!-- u4&#45;&gt;u28 -->
<g id="edge14" class="edge">
<title>u4&#45;&gt;u28</title>
<path fill="none" stroke="black" d="M1725.22,-3215.52C2004.5,-3145.59 3213.24,-2842.94 3531.41,-2763.28"/>
<polygon fill="black" stroke="black" points="3532.61,-2766.58 3541.46,-2760.76 3530.91,-2759.79 3532.61,-2766.58"/>
</g>
<!-- u27 -->
<g id="node49" class="node">
<title>u27</title>
<ellipse fill="#ff7777" stroke="black" cx="654.39" cy="-2743" rx="352.84" ry="18"/>
<text text-anchor="middle" x="654.39" y="-2739.3" font-family="Times,serif" font-size="14.00">Language.Drasil.Code.Imperative.GOOL.LanguageRenderer.CppRenderer</text>
</g>
<!-- u4&#45;&gt;u27 -->
<g id="edge13" class="edge">
<title>u4&#45;&gt;u27</title>
<path fill="none" stroke="black" d="M1633.4,-3213.69C1482.12,-3141.11 869.99,-2847.44 698.97,-2765.39"/>
<polygon fill="black" stroke="black" points="700.28,-2762.13 689.75,-2760.96 697.25,-2768.44 700.28,-2762.13"/>
</g>
<!-- u26 -->
<g id="node50" class="node">
<title>u26</title>
<ellipse fill="#ff7777" stroke="black" cx="1379.39" cy="-2743" rx="354.44" ry="18"/>
<text text-anchor="middle" x="1379.39" y="-2739.3" font-family="Times,serif" font-size="14.00">Language.Drasil.Code.Imperative.GOOL.LanguageRenderer.JavaRenderer</text>
</g>
<!-- u4&#45;&gt;u26 -->
<g id="edge12" class="edge">
<title>u4&#45;&gt;u26</title>
<path fill="none" stroke="black" d="M1657.31,-3212.99C1614.38,-3140.53 1446.58,-2857.37 1394.74,-2769.89"/>
<polygon fill="black" stroke="black" points="1397.65,-2767.94 1389.54,-2761.13 1391.63,-2771.51 1397.65,-2767.94"/>
</g>
<!-- u25 -->
<g id="node51" class="node">
<title>u25</title>
<ellipse fill="#ff7777" stroke="black" cx="2110.39" cy="-2743" rx="358.54" ry="18"/>
<text text-anchor="middle" x="2110.39" y="-2739.3" font-family="Times,serif" font-size="14.00">Language.Drasil.Code.Imperative.GOOL.LanguageRenderer.SwiftRenderer</text>
</g>
<!-- u4&#45;&gt;u25 -->
<g id="edge11" class="edge">
<title>u4&#45;&gt;u25</title>
<path fill="none" stroke="black" d="M1682.9,-3212.99C1749.28,-3140.16 2009.67,-2854.5 2087.99,-2768.58"/>
<polygon fill="black" stroke="black" points="2090.63,-2770.87 2094.78,-2761.13 2085.46,-2766.16 2090.63,-2770.87"/>
</g>
<!-- u24 -->
<g id="node52" class="node">
<title>u24</title>
<ellipse fill="#ff7777" stroke="black" cx="2854.39" cy="-2743" rx="367.43" ry="18"/>
<text text-anchor="middle" x="2854.39" y="-2739.3" font-family="Times,serif" font-size="14.00">Language.Drasil.Code.Imperative.GOOL.LanguageRenderer.PythonRenderer</text>
</g>
<!-- u4&#45;&gt;u24 -->
<g id="edge10" class="edge">
<title>u4&#45;&gt;u24</title>
<path fill="none" stroke="black" d="M1706.55,-3213.97C1883.07,-3141.7 2604.82,-2846.18 2803.54,-2764.82"/>
<polygon fill="black" stroke="black" points="2804.95,-2768.03 2812.88,-2761 2802.3,-2761.55 2804.95,-2768.03"/>
</g>
<!-- u1 -->
<g id="node11" class="node">
<title>u1</title>
<ellipse fill="#bbbbff" stroke="black" cx="3637.39" cy="-1524" rx="135.68" ry="18"/>
<text text-anchor="middle" x="3637.39" y="-1520.3" font-family="Times,serif" font-size="14.00">Language.Drasil.CodeSpec</text>
</g>
<!-- u1&#45;&gt;u5 -->
<g id="edge2" class="edge">
<title>u1&#45;&gt;u5</title>
<path fill="none" stroke="black" d="M3610.14,-1506.18C3541.07,-1463.53 3359.12,-1351.21 3281.41,-1303.24"/>
<polygon fill="black" stroke="black" points="3282.82,-1299.99 3272.47,-1297.71 3279.14,-1305.94 3282.82,-1299.99"/>
</g>
<!-- u10 -->
<g id="node12" class="node">
<title>u10</title>
<ellipse fill="#ffbbbb" stroke="black" cx="4058.39" cy="-1280" rx="191.17" ry="18"/>
<text text-anchor="middle" x="4058.39" y="-1276.3" font-family="Times,serif" font-size="14.00">Language.Drasil.Chunk.CodeDefinition</text>
</g>
<!-- u1&#45;&gt;u10 -->
<g id="edge4" class="edge">
<title>u1&#45;&gt;u10</title>
<path fill="none" stroke="black" d="M3666.33,-1506.37C3740.37,-1463.81 3936.72,-1350.94 4020.09,-1303.02"/>
<polygon fill="black" stroke="black" points="4022.05,-1305.93 4028.97,-1297.91 4018.56,-1299.86 4022.05,-1305.93"/>
</g>
<!-- u8 -->
<g id="node14" class="node">
<title>u8</title>
<ellipse fill="#ffbbbb" stroke="black" cx="3581.39" cy="-1280" rx="192.27" ry="18"/>
<text text-anchor="middle" x="3581.39" y="-1276.3" font-family="Times,serif" font-size="14.00">Language.Drasil.Chunk.ConstraintMap</text>
</g>
<!-- u1&#45;&gt;u8 -->
<g id="edge3" class="edge">
<title>u1&#45;&gt;u8</title>
<path fill="none" stroke="black" d="M3633.46,-1505.98C3623.86,-1464.5 3599.19,-1357.9 3587.59,-1307.79"/>
<polygon fill="black" stroke="black" points="3590.99,-1306.95 3585.33,-1298 3584.17,-1308.53 3590.99,-1306.95"/>
</g>
<!-- u3 -->
<g id="node55" class="node">
<title>u3</title>
<ellipse fill="#ff77ff" stroke="black" cx="4032.39" cy="-793" rx="154.07" ry="18"/>
<text text-anchor="middle" x="4032.39" y="-789.3" font-family="Times,serif" font-size="14.00">Language.Drasil.Data.ODEInfo</text>
</g>
<!-- u10&#45;&gt;u3 -->
<g id="edge20" class="edge">
<title>u10&#45;&gt;u3</title>
<path fill="none" stroke="black" d="M4057.47,-1261.74C4053.59,-1189.33 4038.6,-909.75 4033.85,-821.12"/>
<polygon fill="black" stroke="black" points="4037.34,-820.85 4033.31,-811.05 4030.35,-821.23 4037.34,-820.85"/>
</g>
<!-- u7 -->
<g id="node15" class="node">
<title>u7</title>
<ellipse fill="#ffbbbb" stroke="black" cx="3254.39" cy="-61" rx="145.67" ry="18"/>
<text text-anchor="middle" x="3254.39" y="-57.3" font-family="Times,serif" font-size="14.00">Language.Drasil.Chunk.Code</text>
</g>
<!-- u9&#45;&gt;u7 -->
<g id="edge19" class="edge">
<title>u9&#45;&gt;u7</title>
<path fill="none" stroke="black" d="M3254.39,-286.98C3254.39,-245.69 3254.39,-139.86 3254.39,-89.47"/>
<polygon fill="black" stroke="black" points="3257.89,-89.32 3254.39,-79.32 3250.89,-89.32 3257.89,-89.32"/>
</g>
<!-- u6 -->
<g id="node16" class="node">
<title>u6</title>
<ellipse fill="#ffbbbb" stroke="black" cx="3627.39" cy="-549" rx="202.26" ry="18"/>
<text text-anchor="middle" x="3627.39" y="-545.3" font-family="Times,serif" font-size="14.00">Language.Drasil.Chunk.NamedArgument</text>
</g>
<!-- u49 -->
<g id="node17" class="node">
<title>u49</title>
<ellipse fill="#bbffff" stroke="black" cx="3670.39" cy="-793" rx="190.37" ry="18"/>
<text text-anchor="middle" x="3670.39" y="-789.3" font-family="Times,serif" font-size="14.00">Language.Drasil.Code.ExternalLibrary</text>
</g>
<!-- u49&#45;&gt;u11 -->
<g id="edge82" class="edge">
<title>u49&#45;&gt;u11</title>
<path fill="none" stroke="black" d="M3641.47,-775.18C3567.93,-732.39 3373.83,-619.48 3291.82,-571.77"/>
<polygon fill="black" stroke="black" points="3293.25,-568.56 3282.85,-566.55 3289.73,-574.61 3293.25,-568.56"/>
</g>
<!-- u49&#45;&gt;u6 -->
<g id="edge81" class="edge">
<title>u49&#45;&gt;u6</title>
<path fill="none" stroke="black" d="M3667.37,-774.98C3660.02,-733.59 3641.14,-627.35 3632.21,-577.11"/>
<polygon fill="black" stroke="black" points="3635.61,-576.23 3630.41,-567 3628.72,-577.46 3635.61,-576.23"/>
</g>
<!-- u48 -->
<g id="node18" class="node">
<title>u48</title>
<ellipse fill="#bbffff" stroke="black" cx="3254.39" cy="-793" rx="207.96" ry="18"/>
<text text-anchor="middle" x="3254.39" y="-789.3" font-family="Times,serif" font-size="14.00">Language.Drasil.Code.ExternalLibraryCall</text>
</g>
<!-- u48&#45;&gt;u11 -->
<g id="edge80" class="edge">
<title>u48&#45;&gt;u11</title>
<path fill="none" stroke="black" d="M3254.39,-774.98C3254.39,-733.69 3254.39,-627.86 3254.39,-577.47"/>
<polygon fill="black" stroke="black" points="3257.89,-577.32 3254.39,-567.32 3250.89,-577.32 3257.89,-577.32"/>
</g>
<!-- u48&#45;&gt;u6 -->
<g id="edge79" class="edge">
<title>u48&#45;&gt;u6</title>
<path fill="none" stroke="black" d="M3280.62,-774.98C3346.43,-732.29 3518.57,-620.6 3592.66,-572.54"/>
<polygon fill="black" stroke="black" points="3594.71,-575.38 3601.19,-567 3590.9,-569.5 3594.71,-575.38"/>
</g>
<!-- u17&#45;&gt;u7 -->
<g id="edge27" class="edge">
<title>u17&#45;&gt;u7</title>
<path fill="none" stroke="black" d="M2575.94,-287.84C2705.18,-244.82 3057.25,-127.63 3196.54,-81.26"/>
<polygon fill="black" stroke="black" points="3197.82,-84.52 3206.2,-78.04 3195.61,-77.88 3197.82,-84.52"/>
</g>
<!-- u16 -->
<g id="node20" class="node">
<title>u16</title>
<ellipse fill="#bbffff" stroke="black" cx="3731.39" cy="-1036" rx="178.97" ry="18"/>
<text text-anchor="middle" x="3731.39" y="-1032.3" font-family="Times,serif" font-size="14.00">Language.Drasil.Code.ExtLibImport</text>
</g>
<!-- u16&#45;&gt;u49 -->
<g id="edge26" class="edge">
<title>u16&#45;&gt;u49</title>
<path fill="none" stroke="black" d="M3727.01,-1017.67C3716.5,-976.15 3689.83,-870.78 3677.21,-820.93"/>
<polygon fill="black" stroke="black" points="3680.59,-820.01 3674.74,-811.18 3673.8,-821.73 3680.59,-820.01"/>
</g>
<!-- u16&#45;&gt;u48 -->
<g id="edge25" class="edge">
<title>u16&#45;&gt;u48</title>
<path fill="none" stroke="black" d="M3698.23,-1018.24C3613.77,-975.57 3390.62,-862.83 3296.85,-815.45"/>
<polygon fill="black" stroke="black" points="3298.16,-812.19 3287.65,-810.8 3295,-818.44 3298.16,-812.19"/>
</g>
<!-- u15 -->
<g id="node21" class="node">
<title>u15</title>
<ellipse fill="#bbffff" stroke="black" cx="4186.39" cy="-2743" rx="191.17" ry="18"/>
<text text-anchor="middle" x="4186.39" y="-2739.3" font-family="Times,serif" font-size="14.00">Language.Drasil.Code.CodeGeneration</text>
</g>
<!-- u15&#45;&gt;u14 -->
<g id="edge23" class="edge">
<title>u15&#45;&gt;u14</title>
<path fill="none" stroke="black" d="M4163.07,-2725.04C4112.07,-2687.89 3986.92,-2596.4 3883.39,-2518 3721.52,-2395.42 3704.55,-2327.71 3522.39,-2238 2964.21,-1963.08 2532.8,-2310.07 2197.39,-1786 2019.74,-1508.42 2462.7,-1152.83 2588.31,-1059.99"/>
<polygon fill="black" stroke="black" points="2590.47,-1062.75 2596.46,-1054.01 2586.33,-1057.1 2590.47,-1062.75"/>
</g>
<!-- u20 -->
<g id="node47" class="node">
<title>u20</title>
<ellipse fill="#7777ff" stroke="black" cx="2739.39" cy="-2500" rx="222.06" ry="18"/>
<text text-anchor="middle" x="2739.39" y="-2496.3" font-family="Times,serif" font-size="14.00">Language.Drasil.Code.Imperative.GOOL.Data</text>
</g>
<!-- u15&#45;&gt;u20 -->
<g id="edge24" class="edge">
<title>u15&#45;&gt;u20</title>
<path fill="none" stroke="black" d="M4096.7,-2727.06C3841.54,-2684.56 3112.63,-2563.16 2842.1,-2518.11"/>
<polygon fill="black" stroke="black" points="2842.33,-2514.6 2831.89,-2516.41 2841.18,-2521.5 2842.33,-2514.6"/>
</g>
<!-- u13 -->
<g id="node23" class="node">
<title>u13</title>
<ellipse fill="#bbffff" stroke="black" cx="2889.39" cy="-793" rx="139.18" ry="18"/>
<text text-anchor="middle" x="2889.39" y="-789.3" font-family="Times,serif" font-size="14.00">Language.Drasil.Code.Lang</text>
</g>
<!-- u12 -->
<g id="node24" class="node">
<title>u12</title>
<ellipse fill="#bbffff" stroke="black" cx="4770.39" cy="-2012" rx="204.16" ry="18"/>
<text text-anchor="middle" x="4770.39" y="-2008.3" font-family="Times,serif" font-size="14.00">Language.Drasil.Code.CodeQuantityDicts</text>
</g>
<!-- u47 -->
<g id="node25" class="node">
<title>u47</title>
<ellipse fill="#ffbbff" stroke="black" cx="4049.39" cy="-1524" rx="209.86" ry="18"/>
<text text-anchor="middle" x="4049.39" y="-1520.3" font-family="Times,serif" font-size="14.00">Language.Drasil.Code.Imperative.GenODE</text>
</g>
<!-- u47&#45;&gt;u5 -->
<g id="edge76" class="edge">
<title>u47&#45;&gt;u5</title>
<path fill="none" stroke="black" d="M3994.76,-1506.56C3850.2,-1463.04 3458.37,-1345.11 3306.6,-1299.42"/>
<polygon fill="black" stroke="black" points="3307.54,-1296.05 3296.96,-1296.52 3305.52,-1302.75 3307.54,-1296.05"/>
</g>
<!-- u47&#45;&gt;u10 -->
<g id="edge77" class="edge">
<title>u47&#45;&gt;u10</title>
<path fill="none" stroke="black" d="M4050.03,-1505.98C4051.56,-1464.69 4055.5,-1358.86 4057.37,-1308.47"/>
<polygon fill="black" stroke="black" points="4060.88,-1308.45 4057.75,-1298.32 4053.88,-1308.19 4060.88,-1308.45"/>
</g>
<!-- u47&#45;&gt;u16 -->
<g id="edge78" class="edge">
<title>u47&#45;&gt;u16</title>
<path fill="none" stroke="black" d="M4032.16,-1505.85C3996.51,-1469.76 3913.43,-1382.31 3858.39,-1298 3805.93,-1217.64 3761.24,-1112.39 3741.79,-1063.76"/>
<polygon fill="black" stroke="black" points="3744.97,-1062.28 3738.03,-1054.28 3738.46,-1064.86 3744.97,-1062.28"/>
</g>
<!-- u44 -->
<g id="node26" class="node">
<title>u44</title>
<ellipse fill="#ffbbff" stroke="black" cx="4604.39" cy="-2500" rx="228.26" ry="18"/>
<text text-anchor="middle" x="4604.39" y="-2496.3" font-family="Times,serif" font-size="14.00">Language.Drasil.Code.Imperative.Descriptions</text>
</g>
<!-- u40 -->
<g id="node29" class="node">
<title>u40</title>
<ellipse fill="#ffbbff" stroke="black" cx="3896.39" cy="-1768" rx="222.06" ry="18"/>
<text text-anchor="middle" x="3896.39" y="-1764.3" font-family="Times,serif" font-size="14.00">Language.Drasil.Code.Imperative.DrasilState</text>
</g>
<!-- u44&#45;&gt;u40 -->
<g id="edge74" class="edge">
<title>u44&#45;&gt;u40</title>
<path fill="none" stroke="black" d="M4673.71,-2482.81C4767.61,-2456.74 4931.7,-2395.59 5003.39,-2274 5066.6,-2166.8 5084.16,-2090.35 5005.39,-1994 4891.34,-1854.49 4371.26,-1799.38 4085.64,-1779.35"/>
<polygon fill="black" stroke="black" points="4085.8,-1775.86 4075.58,-1778.66 4085.31,-1782.84 4085.8,-1775.86"/>
</g>
<!-- u43 -->
<g id="node27" class="node">
<title>u43</title>
<ellipse fill="#ffbbff" stroke="black" cx="3896.39" cy="-2256" rx="201.46" ry="18"/>
<text text-anchor="middle" x="3896.39" y="-2252.3" font-family="Times,serif" font-size="14.00">Language.Drasil.Code.Imperative.Import</text>
</g>
<!-- u43&#45;&gt;u12 -->
<g id="edge68" class="edge">
<title>u43&#45;&gt;u12</title>
<path fill="none" stroke="black" d="M3955.1,-2238.75C4111.11,-2195.55 4535.49,-2078.04 4702.02,-2031.93"/>
<polygon fill="black" stroke="black" points="4702.96,-2035.3 4711.66,-2029.26 4701.09,-2028.56 4702.96,-2035.3"/>
</g>
<!-- u36 -->
<g id="node32" class="node">
<title>u36</title>
<ellipse fill="#ffbbff" stroke="black" cx="2987.39" cy="-2012" rx="240.46" ry="18"/>
<text text-anchor="middle" x="2987.39" y="-2008.3" font-family="Times,serif" font-size="14.00">Language.Drasil.Code.Imperative.GenerateGOOL</text>
</g>
<!-- u43&#45;&gt;u36 -->
<g id="edge73" class="edge">
<title>u43&#45;&gt;u36</title>
<path fill="none" stroke="black" d="M3835.34,-2238.75C3673.19,-2195.58 3232.33,-2078.21 3058.87,-2032.03"/>
<polygon fill="black" stroke="black" points="3059.64,-2028.61 3049.08,-2029.42 3057.84,-2035.38 3059.64,-2028.61"/>
</g>
<!-- u35 -->
<g id="node33" class="node">
<title>u35</title>
<ellipse fill="#ffbbff" stroke="black" cx="3452.39" cy="-2012" rx="206.06" ry="18"/>
<text text-anchor="middle" x="3452.39" y="-2008.3" font-family="Times,serif" font-size="14.00">Language.Drasil.Code.Imperative.Helpers</text>
</g>
<!-- u43&#45;&gt;u35 -->
<g id="edge72" class="edge">
<title>u43&#45;&gt;u35</title>
<path fill="none" stroke="black" d="M3865.53,-2238.18C3786.99,-2195.37 3579.61,-2082.34 3492.18,-2034.68"/>
<polygon fill="black" stroke="black" points="3493.81,-2031.59 3483.35,-2029.87 3490.46,-2037.73 3493.81,-2031.59"/>
</g>
<!-- u33 -->
<g id="node35" class="node">
<title>u33</title>
<ellipse fill="#ffbbff" stroke="black" cx="3896.39" cy="-2012" rx="219.86" ry="18"/>
<text text-anchor="middle" x="3896.39" y="-2008.3" font-family="Times,serif" font-size="14.00">Language.Drasil.Code.Imperative.Comments</text>
</g>
<!-- u43&#45;&gt;u33 -->
<g id="edge71" class="edge">
<title>u43&#45;&gt;u33</title>
<path fill="none" stroke="black" d="M3896.39,-2237.98C3896.39,-2196.69 3896.39,-2090.86 3896.39,-2040.47"/>
<polygon fill="black" stroke="black" points="3899.89,-2040.32 3896.39,-2030.32 3892.89,-2040.32 3899.89,-2040.32"/>
</g>
<!-- u31 -->
<g id="node37" class="node">
<title>u31</title>
<ellipse fill="#ffbbff" stroke="black" cx="3246.39" cy="-1524" rx="237.46" ry="18"/>
<text text-anchor="middle" x="3246.39" y="-1520.3" font-family="Times,serif" font-size="14.00">Language.Drasil.Code.Imperative.ConceptMatch</text>
</g>
<!-- u43&#45;&gt;u31 -->
<g id="edge70" class="edge">
<title>u43&#45;&gt;u31</title>
<path fill="none" stroke="black" d="M3720.32,-2247.23C3427.59,-2230.22 2860.81,-2178.49 2738.39,-2030 2728.22,-2017.65 2729.43,-2007.25 2738.39,-1994 2877.64,-1788.18 3118.15,-1991.82 3257.39,-1786 3306.37,-1713.61 3275.37,-1602.29 3257.06,-1551.69"/>
<polygon fill="black" stroke="black" points="3260.26,-1550.27 3253.48,-1542.12 3253.7,-1552.72 3260.26,-1550.27"/>
</g>
<!-- u30 -->
<g id="node38" class="node">
<title>u30</title>
<ellipse fill="#ffbbff" stroke="black" cx="4341.39" cy="-2012" rx="207.16" ry="18"/>
<text text-anchor="middle" x="4341.39" y="-2008.3" font-family="Times,serif" font-size="14.00">Language.Drasil.Code.Imperative.Logging</text>
</g>
<!-- u43&#45;&gt;u30 -->
<g id="edge69" class="edge">
<title>u43&#45;&gt;u30</title>
<path fill="none" stroke="black" d="M3927.33,-2238.18C4006.05,-2195.37 4213.89,-2082.34 4301.52,-2034.68"/>
<polygon fill="black" stroke="black" points="4303.25,-2037.73 4310.37,-2029.87 4299.91,-2031.58 4303.25,-2037.73"/>
</g>
<!-- u41 -->
<g id="node28" class="node">
<title>u41</title>
<ellipse fill="#ffbbff" stroke="black" cx="2681.39" cy="-2256" rx="233.16" ry="18"/>
<text text-anchor="middle" x="2681.39" y="-2252.3" font-family="Times,serif" font-size="14.00">Language.Drasil.Code.Imperative.WriteReadMe</text>
</g>
<!-- u21 -->
<g id="node46" class="node">
<title>u21</title>
<ellipse fill="#7777ff" stroke="black" cx="2981.39" cy="-1768" rx="267.25" ry="18"/>
<text text-anchor="middle" x="2981.39" y="-1764.3" font-family="Times,serif" font-size="14.00">Language.Drasil.Code.Imperative.GOOL.ClassInterface</text>
</g>
<!-- u41&#45;&gt;u21 -->
<g id="edge66" class="edge">
<title>u41&#45;&gt;u21</title>
<path fill="none" stroke="black" d="M2678.65,-2237.86C2672.54,-2194.17 2661.55,-2076.34 2705.39,-1994 2757.73,-1895.7 2873.08,-1824.33 2936.84,-1790.67"/>
<polygon fill="black" stroke="black" points="2938.6,-1793.7 2945.86,-1785.98 2935.37,-1787.49 2938.6,-1793.7"/>
</g>
<!-- u40&#45;&gt;u1 -->
<g id="edge64" class="edge">
<title>u40&#45;&gt;u1</title>
<path fill="none" stroke="black" d="M3878.18,-1749.98C3832.95,-1707.72 3715.38,-1597.87 3663.1,-1549.02"/>
<polygon fill="black" stroke="black" points="3665.28,-1546.27 3655.59,-1542 3660.5,-1551.38 3665.28,-1546.27"/>
</g>
<!-- u40&#45;&gt;u16 -->
<g id="edge65" class="edge">
<title>u40&#45;&gt;u16</title>
<path fill="none" stroke="black" d="M3890.66,-1749.96C3878.26,-1712.64 3848.62,-1620.72 3830.39,-1542 3801.91,-1419 3807.03,-1385.83 3782.39,-1262 3768.1,-1190.11 3748.18,-1106.03 3737.98,-1063.92"/>
<polygon fill="black" stroke="black" points="3741.37,-1063.04 3735.61,-1054.15 3734.57,-1064.7 3741.37,-1063.04"/>
</g>
<!-- u39&#45;&gt;u17 -->
<g id="edge63" class="edge">
<title>u39&#45;&gt;u17</title>
<path fill="none" stroke="black" d="M1653.25,-1749.79C1656.29,-1687.03 1666.39,-1464.59 1666.39,-1281 1666.39,-1281 1666.39,-1281 1666.39,-792 1666.39,-458.22 2163.18,-351.1 2402.04,-318.89"/>
<polygon fill="black" stroke="black" points="2402.72,-322.33 2412.17,-317.54 2401.8,-315.39 2402.72,-322.33"/>
</g>
<!-- u38 -->
<g id="node31" class="node">
<title>u38</title>
<ellipse fill="#ffbbff" stroke="black" cx="4604.39" cy="-2743" rx="209.06" ry="18"/>
<text text-anchor="middle" x="4604.39" y="-2739.3" font-family="Times,serif" font-size="14.00">Language.Drasil.Code.Imperative.Modules</text>
</g>
<!-- u38&#45;&gt;u44 -->
<g id="edge62" class="edge">
<title>u38&#45;&gt;u44</title>
<path fill="none" stroke="black" d="M4604.39,-2724.67C4604.39,-2683.24 4604.39,-2578.22 4604.39,-2528.24"/>
<polygon fill="black" stroke="black" points="4607.89,-2528.18 4604.39,-2518.18 4600.89,-2528.18 4607.89,-2528.18"/>
</g>
<!-- u34 -->
<g id="node34" class="node">
<title>u34</title>
<ellipse fill="#ffbbff" stroke="black" cx="4125.39" cy="-2500" rx="233.16" ry="18"/>
<text text-anchor="middle" x="4125.39" y="-2496.3" font-family="Times,serif" font-size="14.00">Language.Drasil.Code.Imperative.FunctionCalls</text>
</g>
<!-- u38&#45;&gt;u34 -->
<g id="edge61" class="edge">
<title>u38&#45;&gt;u34</title>
<path fill="none" stroke="black" d="M4570.71,-2725.05C4485.6,-2682.23 4261.99,-2569.73 4167.99,-2522.43"/>
<polygon fill="black" stroke="black" points="4169.55,-2519.3 4159.04,-2517.93 4166.4,-2525.55 4169.55,-2519.3"/>
</g>
<!-- u36&#45;&gt;u40 -->
<g id="edge59" class="edge">
<title>u36&#45;&gt;u40</title>
<path fill="none" stroke="black" d="M3049.16,-1994.56C3212.03,-1951.2 3652.5,-1833.93 3825.38,-1787.91"/>
<polygon fill="black" stroke="black" points="3826.38,-1791.26 3835.14,-1785.31 3824.58,-1784.5 3826.38,-1791.26"/>
</g>
<!-- u36&#45;&gt;u21 -->
<g id="edge58" class="edge">
<title>u36&#45;&gt;u21</title>
<path fill="none" stroke="black" d="M2986.97,-1993.98C2985.95,-1952.69 2983.32,-1846.86 2982.08,-1796.47"/>
<polygon fill="black" stroke="black" points="2985.57,-1796.23 2981.82,-1786.32 2978.57,-1796.41 2985.57,-1796.23"/>
</g>
<!-- u35&#45;&gt;u40 -->
<g id="edge57" class="edge">
<title>u35&#45;&gt;u40</title>
<path fill="none" stroke="black" d="M3483.26,-1994.18C3561.8,-1951.37 3769.18,-1838.34 3856.61,-1790.68"/>
<polygon fill="black" stroke="black" points="3858.33,-1793.73 3865.44,-1785.87 3854.98,-1787.59 3858.33,-1793.73"/>
</g>
<!-- u34&#45;&gt;u43 -->
<g id="edge56" class="edge">
<title>u34&#45;&gt;u43</title>
<path fill="none" stroke="black" d="M4109.29,-2481.98C4069.38,-2439.81 3965.77,-2330.32 3919.41,-2281.32"/>
<polygon fill="black" stroke="black" points="3921.9,-2278.86 3912.48,-2274 3916.81,-2283.67 3921.9,-2278.86"/>
</g>
<!-- u18 -->
<g id="node41" class="node">
<title>u18</title>
<ellipse fill="#ffbbff" stroke="black" cx="4770.39" cy="-2256" rx="223.66" ry="18"/>
<text text-anchor="middle" x="4770.39" y="-2252.3" font-family="Times,serif" font-size="14.00">Language.Drasil.Code.Imperative.Parameters</text>
</g>
<!-- u34&#45;&gt;u18 -->
<g id="edge55" class="edge">
<title>u34&#45;&gt;u18</title>
<path fill="none" stroke="black" d="M4169.98,-2482.27C4285.04,-2439.1 4591.63,-2324.07 4716.42,-2277.25"/>
<polygon fill="black" stroke="black" points="4717.67,-2280.52 4725.8,-2273.73 4715.21,-2273.97 4717.67,-2280.52"/>
</g>
<!-- u33&#45;&gt;u40 -->
<g id="edge54" class="edge">
<title>u33&#45;&gt;u40</title>
<path fill="none" stroke="black" d="M3896.39,-1993.98C3896.39,-1952.69 3896.39,-1846.86 3896.39,-1796.47"/>
<polygon fill="black" stroke="black" points="3899.89,-1796.32 3896.39,-1786.32 3892.89,-1796.32 3899.89,-1796.32"/>
</g>
<!-- u32 -->
<g id="node36" class="node">
<title>u32</title>
<ellipse fill="#ffbbff" stroke="black" cx="5077.39" cy="-2500" rx="226.66" ry="18"/>
<text text-anchor="middle" x="5077.39" y="-2496.3" font-family="Times,serif" font-size="14.00">Language.Drasil.Code.Imperative.SpaceMatch</text>
</g>
<!-- u32&#45;&gt;u40 -->
<g id="edge53" class="edge">
<title>u32&#45;&gt;u40</title>
<path fill="none" stroke="black" d="M5082.18,-2481.85C5100.79,-2411.1 5161.02,-2138.83 5030.39,-1994 4906.39,-1856.5 4372.11,-1800.33 4083.34,-1779.67"/>
<polygon fill="black" stroke="black" points="4083.4,-1776.17 4073.17,-1778.95 4082.9,-1783.15 4083.4,-1776.17"/>
</g>
<!-- u31&#45;&gt;u5 -->
<g id="edge52" class="edge">
<title>u31&#45;&gt;u5</title>
<path fill="none" stroke="black" d="M3246.32,-1505.98C3246.15,-1464.69 3245.72,-1358.86 3245.51,-1308.47"/>
<polygon fill="black" stroke="black" points="3249.01,-1308.31 3245.47,-1298.32 3242.01,-1308.34 3249.01,-1308.31"/>
</g>
<!-- u30&#45;&gt;u40 -->
<g id="edge51" class="edge">
<title>u30&#45;&gt;u40</title>
<path fill="none" stroke="black" d="M4310.46,-1994.18C4231.74,-1951.37 4023.9,-1838.34 3936.26,-1790.68"/>
<polygon fill="black" stroke="black" points="3937.88,-1787.58 3927.42,-1785.87 3934.54,-1793.73 3937.88,-1787.58"/>
</g>
<!-- u29&#45;&gt;u15 -->
<g id="edge47" class="edge">
<title>u29&#45;&gt;u15</title>
<path fill="none" stroke="black" d="M4575,-2968.98C4500.94,-2926.1 4306.7,-2813.65 4224.26,-2765.92"/>
<polygon fill="black" stroke="black" points="4225.88,-2762.82 4215.48,-2760.84 4222.38,-2768.88 4225.88,-2762.82"/>
</g>
<!-- u29&#45;&gt;u47 -->
<g id="edge50" class="edge">
<title>u29&#45;&gt;u47</title>
<path fill="none" stroke="black" d="M4691.85,-2970.51C4885.28,-2930.69 5332.39,-2805.69 5332.39,-2501 5332.39,-2501 5332.39,-2501 5332.39,-2011 5332.39,-1760.1 4463.53,-1593.02 4155.83,-1541.72"/>
<polygon fill="black" stroke="black" points="4156,-1538.2 4145.57,-1540.01 4154.86,-1545.1 4156,-1538.2"/>
</g>
<!-- u29&#45;&gt;u38 -->
<g id="edge49" class="edge">
<title>u29&#45;&gt;u38</title>
<path fill="none" stroke="black" d="M4604.39,-2968.98C4604.39,-2927.69 4604.39,-2821.86 4604.39,-2771.47"/>
<polygon fill="black" stroke="black" points="4607.89,-2771.32 4604.39,-2761.32 4600.89,-2771.32 4607.89,-2771.32"/>
</g>
<!-- u29&#45;&gt;u32 -->
<g id="edge48" class="edge">
<title>u29&#45;&gt;u32</title>
<path fill="none" stroke="black" d="M4620.95,-2969.02C4691.9,-2896.27 4970.41,-2610.69 5053.73,-2525.27"/>
<polygon fill="black" stroke="black" points="5056.25,-2527.69 5060.73,-2518.09 5051.24,-2522.81 5056.25,-2527.69"/>
</g>
<!-- u19 -->
<g id="node40" class="node">
<title>u19</title>
<ellipse fill="#ffbbff" stroke="black" cx="1925.39" cy="-1524" rx="219.86" ry="18"/>
<text text-anchor="middle" x="1925.39" y="-1520.3" font-family="Times,serif" font-size="14.00">Language.Drasil.Code.Imperative.WriteInput</text>
</g>
<!-- u19&#45;&gt;u17 -->
<g id="edge30" class="edge">
<title>u19&#45;&gt;u17</title>
<path fill="none" stroke="black" d="M1932.15,-1505.66C1955.79,-1443.35 2033.39,-1224.56 2033.39,-1037 2033.39,-1037 2033.39,-1037 2033.39,-792 2033.39,-544.88 2351.41,-381.45 2477.12,-326.49"/>
<polygon fill="black" stroke="black" points="2478.76,-329.6 2486.55,-322.42 2475.98,-323.17 2478.76,-329.6"/>
</g>
<!-- u18&#45;&gt;u12 -->
<g id="edge28" class="edge">
<title>u18&#45;&gt;u12</title>
<path fill="none" stroke="black" d="M4770.39,-2237.98C4770.39,-2196.69 4770.39,-2090.86 4770.39,-2040.47"/>
<polygon fill="black" stroke="black" points="4773.89,-2040.32 4770.39,-2030.32 4766.89,-2040.32 4773.89,-2040.32"/>
</g>
<!-- u18&#45;&gt;u40 -->
<g id="edge29" class="edge">
<title>u18&#45;&gt;u40</title>
<path fill="none" stroke="black" d="M4803.36,-2238.06C4880.06,-2196.51 5058.45,-2086.18 4983.39,-1994 4871.73,-1856.85 4361.42,-1800.71 4081.49,-1779.91"/>
<polygon fill="black" stroke="black" points="4081.45,-1776.4 4071.22,-1779.15 4080.94,-1783.38 4081.45,-1776.4"/>
</g>
<!-- u46 -->
<g id="node42" class="node">
<title>u46</title>
<ellipse fill="#77ff77" stroke="black" cx="2163.39" cy="-2256" rx="228.56" ry="18"/>
<text text-anchor="middle" x="2163.39" y="-2252.3" font-family="Times,serif" font-size="14.00">Language.Drasil.Code.Imperative.Build.Import</text>
</g>
<!-- u45 -->
<g id="node43" class="node">
<title>u45</title>
<ellipse fill="#77ff77" stroke="black" cx="2163.39" cy="-2012" rx="215.56" ry="18"/>
<text text-anchor="middle" x="2163.39" y="-2008.3" font-family="Times,serif" font-size="14.00">Language.Drasil.Code.Imperative.Build.AST</text>
</g>
<!-- u46&#45;&gt;u45 -->
<g id="edge75" class="edge">
<title>u46&#45;&gt;u45</title>
<path fill="none" stroke="black" d="M2163.39,-2237.98C2163.39,-2196.69 2163.39,-2090.86 2163.39,-2040.47"/>
<polygon fill="black" stroke="black" points="2166.89,-2040.32 2163.39,-2030.32 2159.89,-2040.32 2166.89,-2040.32"/>
</g>
<!-- u42 -->
<g id="node44" class="node">
<title>u42</title>
<ellipse fill="#ffff77" stroke="black" cx="2451.39" cy="-1768" rx="245.06" ry="18"/>
<text text-anchor="middle" x="2451.39" y="-1764.3" font-family="Times,serif" font-size="14.00">Language.Drasil.Code.Imperative.Doxygen.Import</text>
</g>
<!-- u42&#45;&gt;u5 -->
<g id="edge67" class="edge">
<title>u42&#45;&gt;u5</title>
<path fill="none" stroke="black" d="M2479.19,-1749.99C2599.39,-1676.41 3074.53,-1385.58 3209.48,-1302.98"/>
<polygon fill="black" stroke="black" points="3211.53,-1305.83 3218.24,-1297.62 3207.88,-1299.86 3211.53,-1305.83"/>
</g>
<!-- u22 -->
<g id="node45" class="node">
<title>u22</title>
<ellipse fill="#7777ff" stroke="black" cx="3224.39" cy="-2256" rx="289.45" ry="18"/>
<text text-anchor="middle" x="3224.39" y="-2252.3" font-family="Times,serif" font-size="14.00">Language.Drasil.Code.Imperative.GOOL.LanguageRenderer</text>
</g>
<!-- u21&#45;&gt;u5 -->
<g id="edge31" class="edge">
<title>u21&#45;&gt;u5</title>
<path fill="none" stroke="black" d="M2978.48,-1749.72C2972,-1706.21 2959.96,-1589.65 3000.39,-1506 3046.08,-1411.49 3150.41,-1337.75 3207.07,-1302.94"/>
<polygon fill="black" stroke="black" points="3209,-1305.86 3215.74,-1297.69 3205.37,-1299.88 3209,-1305.86"/>
</g>
<!-- u28&#45;&gt;u20 -->
<g id="edge45" class="edge">
<title>u28&#45;&gt;u20</title>
<path fill="none" stroke="black" d="M3547.63,-2725.15C3390.98,-2681.7 2974.09,-2566.09 2808.55,-2520.18"/>
<polygon fill="black" stroke="black" points="2809.06,-2516.69 2798.49,-2517.39 2807.19,-2523.43 2809.06,-2516.69"/>
</g>
<!-- u23 -->
<g id="node53" class="node">
<title>u23</title>
<ellipse fill="#ff7777" stroke="black" cx="2105.39" cy="-2500" rx="393.73" ry="18"/>
<text text-anchor="middle" x="2105.39" y="-2496.3" font-family="Times,serif" font-size="14.00">Language.Drasil.Code.Imperative.GOOL.LanguageRenderer.LanguagePolymorphic</text>
</g>
<!-- u28&#45;&gt;u23 -->
<g id="edge46" class="edge">
<title>u28&#45;&gt;u23</title>
<path fill="none" stroke="black" d="M3506.56,-2725.67C3235.97,-2682.28 2500.47,-2564.35 2217.98,-2519.05"/>
<polygon fill="black" stroke="black" points="2218.14,-2515.53 2207.72,-2517.41 2217.04,-2522.45 2218.14,-2515.53"/>
</g>
<!-- u27&#45;&gt;u20 -->
<g id="edge43" class="edge">
<title>u27&#45;&gt;u20</title>
<path fill="none" stroke="black" d="M789.59,-2726.37C1167.74,-2682.66 2233.04,-2559.53 2607.35,-2516.26"/>
<polygon fill="black" stroke="black" points="2607.88,-2519.73 2617.41,-2515.1 2607.07,-2512.77 2607.88,-2519.73"/>
</g>
<!-- u27&#45;&gt;u23 -->
<g id="edge44" class="edge">
<title>u27&#45;&gt;u23</title>
<path fill="none" stroke="black" d="M752.7,-2725.67C1013.77,-2682.31 1723.13,-2564.49 1996.21,-2519.13"/>
<polygon fill="black" stroke="black" points="1996.84,-2522.58 2006.13,-2517.49 1995.69,-2515.67 1996.84,-2522.58"/>
</g>
<!-- u26&#45;&gt;u20 -->
<g id="edge41" class="edge">
<title>u26&#45;&gt;u20</title>
<path fill="none" stroke="black" d="M1472.07,-2725.58C1718.62,-2681.89 2388.99,-2563.09 2641.45,-2518.36"/>
<polygon fill="black" stroke="black" points="2642.11,-2521.79 2651.35,-2516.6 2640.89,-2514.9 2642.11,-2521.79"/>
</g>
<!-- u26&#45;&gt;u23 -->
<g id="edge42" class="edge">
<title>u26&#45;&gt;u23</title>
<path fill="none" stroke="black" d="M1430.16,-2725.15C1560.09,-2682.02 1904.32,-2567.75 2044.6,-2521.18"/>
<polygon fill="black" stroke="black" points="2045.96,-2524.42 2054.34,-2517.95 2043.75,-2517.78 2045.96,-2524.42"/>
</g>
<!-- u25&#45;&gt;u20 -->
<g id="edge39" class="edge">
<title>u25&#45;&gt;u20</title>
<path fill="none" stroke="black" d="M2154.62,-2725.05C2267.21,-2681.92 2564.3,-2568.09 2686.13,-2521.41"/>
<polygon fill="black" stroke="black" points="2687.55,-2524.61 2695.63,-2517.77 2685.04,-2518.08 2687.55,-2524.61"/>
</g>
<!-- u25&#45;&gt;u23 -->
<g id="edge40" class="edge">
<title>u25&#45;&gt;u23</title>
<path fill="none" stroke="black" d="M2110.03,-2724.67C2109.18,-2683.24 2107,-2578.22 2105.96,-2528.24"/>
<polygon fill="black" stroke="black" points="2109.46,-2528.1 2105.75,-2518.18 2102.46,-2528.25 2109.46,-2528.1"/>
</g>
<!-- u24&#45;&gt;u20 -->
<g id="edge37" class="edge">
<title>u24&#45;&gt;u20</title>
<path fill="none" stroke="black" d="M2846.12,-2724.67C2826.23,-2682.98 2775.61,-2576.9 2751.95,-2527.3"/>
<polygon fill="black" stroke="black" points="2755.06,-2525.69 2747.59,-2518.18 2748.74,-2528.71 2755.06,-2525.69"/>
</g>
<!-- u24&#45;&gt;u23 -->
<g id="edge38" class="edge">
<title>u24&#45;&gt;u23</title>
<path fill="none" stroke="black" d="M2802.02,-2725.15C2667.84,-2681.97 2312.13,-2567.52 2167.68,-2521.04"/>
<polygon fill="black" stroke="black" points="2168.65,-2517.68 2158.06,-2517.95 2166.51,-2524.34 2168.65,-2517.68"/>
</g>
<!-- u23&#45;&gt;u41 -->
<g id="edge34" class="edge">
<title>u23&#45;&gt;u41</title>
<path fill="none" stroke="black" d="M2145.9,-2481.98C2248.79,-2438.76 2519.96,-2324.82 2631.94,-2277.78"/>
<polygon fill="black" stroke="black" points="2633.46,-2280.94 2641.32,-2273.84 2630.74,-2274.48 2633.46,-2280.94"/>
</g>
<!-- u23&#45;&gt;u19 -->
<g id="edge32" class="edge">
<title>u23&#45;&gt;u19</title>
<path fill="none" stroke="black" d="M2084.49,-2481.91C2044.32,-2447.57 1957.52,-2365.58 1925.39,-2274 1831.54,-2006.44 1897.57,-1651.27 1919.21,-1551.85"/>
<polygon fill="black" stroke="black" points="1922.64,-1552.54 1921.39,-1542.02 1915.81,-1551.03 1922.64,-1552.54"/>
</g>
<!-- u23&#45;&gt;u46 -->
<g id="edge36" class="edge">
<title>u23&#45;&gt;u46</title>
<path fill="none" stroke="black" d="M2109.47,-2481.98C2119.42,-2440.5 2144.96,-2333.9 2156.97,-2283.79"/>
<polygon fill="black" stroke="black" points="2160.39,-2284.54 2159.32,-2274 2153.59,-2282.91 2160.39,-2284.54"/>
</g>
<!-- u23&#45;&gt;u42 -->
<g id="edge35" class="edge">
<title>u23&#45;&gt;u42</title>
<path fill="none" stroke="black" d="M2144.95,-2481.98C2211,-2451.24 2342.33,-2379.64 2401.39,-2274 2491.73,-2112.42 2467.46,-1875.88 2455.86,-1796.28"/>
<polygon fill="black" stroke="black" points="2459.28,-1795.48 2454.32,-1786.11 2452.35,-1796.53 2459.28,-1795.48"/>
</g>
<!-- u23&#45;&gt;u22 -->
<g id="edge33" class="edge">
<title>u23&#45;&gt;u22</title>
<path fill="none" stroke="black" d="M2182.75,-2482.27C2384.84,-2438.56 2927.57,-2321.19 3138.7,-2275.53"/>
<polygon fill="black" stroke="black" points="3139.47,-2278.95 3148.51,-2273.41 3137.99,-2272.11 3139.47,-2278.95"/>
</g>
<!-- u37 -->
<g id="node54" class="node">
<title>u37</title>
<ellipse fill="#77ffff" stroke="black" cx="3247.39" cy="-2500" rx="267.55" ry="18"/>
<text text-anchor="middle" x="3247.39" y="-2496.3" font-family="Times,serif" font-size="14.00">Language.Drasil.Code.Imperative.Parsers.ConfigParser</text>
</g>
<!-- u37&#45;&gt;u22 -->
<g id="edge60" class="edge">
<title>u37&#45;&gt;u22</title>
<path fill="none" stroke="black" d="M3245.78,-2481.98C3241.85,-2440.69 3231.79,-2334.86 3227.01,-2284.47"/>
<polygon fill="black" stroke="black" points="3230.47,-2283.95 3226.04,-2274.32 3223.5,-2284.61 3230.47,-2283.95"/>
</g>
<!-- u3&#45;&gt;u7 -->
<g id="edge9" class="edge">
<title>u3&#45;&gt;u7</title>
<path fill="none" stroke="black" d="M4021.92,-774.98C3994.79,-731.58 3918.69,-614.36 3838.39,-531 3650.5,-335.94 3381.77,-147.83 3288.12,-84.48"/>
<polygon fill="black" stroke="black" points="3289.86,-81.43 3279.61,-78.74 3285.94,-87.23 3289.86,-81.43"/>
</g>
<!-- u2&#45;&gt;u49 -->
<g id="edge8" class="edge">
<title>u2&#45;&gt;u49</title>
<path fill="none" stroke="black" d="M3283.32,-1018.24C3356.68,-975.74 3550.02,-863.74 3632.37,-816.03"/>
<polygon fill="black" stroke="black" points="3634.49,-818.85 3641.39,-810.8 3630.98,-812.79 3634.49,-818.85"/>
</g>
<!-- u2&#45;&gt;u48 -->
<g id="edge7" class="edge">
<title>u2&#45;&gt;u48</title>
<path fill="none" stroke="black" d="M3254.39,-1017.67C3254.39,-976.24 3254.39,-871.22 3254.39,-821.24"/>
<polygon fill="black" stroke="black" points="3257.89,-821.18 3254.39,-811.18 3250.89,-821.18 3257.89,-821.18"/>
</g>
<!-- u2&#45;&gt;u13 -->
<g id="edge6" class="edge">
<title>u2&#45;&gt;u13</title>
<path fill="none" stroke="black" d="M3228.73,-1018.05C3164.33,-975.53 2995.88,-864.31 2923.38,-816.44"/>
<polygon fill="black" stroke="black" points="2925.31,-813.52 2915.03,-810.93 2921.45,-819.36 2925.31,-813.52"/>
</g>
<!-- u2&#45;&gt;u3 -->
<g id="edge5" class="edge">
<title>u2&#45;&gt;u3</title>
<path fill="none" stroke="black" d="M3306.65,-1018.81C3445.28,-975.87 3821.94,-859.19 3970.73,-813.1"/>
<polygon fill="black" stroke="black" points="3972.11,-816.34 3980.62,-810.04 3970.03,-809.65 3972.11,-816.34"/>
</g>
</g>
</svg>
