<?xml version="1.0" encoding="UTF-8" standalone="no"?>
<!DOCTYPE svg PUBLIC "-//W3C//DTD SVG 1.1//EN"
 "http://www.w3.org/Graphics/SVG/1.1/DTD/svg11.dtd">
<!-- Generated by graphviz version 2.43.0 (0)
 -->
<!-- Title: G Pages: 1 -->
<svg width="432pt" height="284pt"
 viewBox="0.00 0.00 432.00 283.70" xmlns="http://www.w3.org/2000/svg" xmlns:xlink="http://www.w3.org/1999/xlink">
<g id="graph0" class="graph" transform="scale(0.14 0.14) rotate(0) translate(4 2070.67)">
<title>G</title>
<polygon fill="white" stroke="transparent" points="-4,4 -4,-2070.67 3155.17,-2070.67 3155.17,4 -4,4"/>
<!-- u29 -->
<g id="node1" class="node">
<title>u29</title>
<ellipse fill="#bbffbb" stroke="black" cx="1002.98" cy="-1860" rx="69.59" ry="18"/>
<text text-anchor="middle" x="1002.98" y="-1856.3" font-family="Times,serif" font-size="14.00">Drasil.GOOL</text>
</g>
<!-- u12 -->
<g id="node3" class="node">
<title>u12</title>
<ellipse fill="#ffffbb" stroke="black" cx="451.98" cy="-1364" rx="128.08" ry="18"/>
<text text-anchor="middle" x="451.98" y="-1360.3" font-family="Times,serif" font-size="14.00">Drasil.GOOL.CodeInfoOO</text>
</g>
<!-- u29&#45;&gt;u12 -->
<g id="edge57" class="edge">
<title>u29&#45;&gt;u12</title>
<path fill="none" stroke="black" d="M933.4,-1859.74C730.38,-1860.26 145.69,-1849.65 27.98,-1713 -99,-1565.59 246.75,-1431.82 391.56,-1383.81"/>
<polygon fill="black" stroke="black" points="392.81,-1387.08 401.22,-1380.63 390.63,-1380.43 392.81,-1387.08"/>
</g>
<!-- u10 -->
<g id="node6" class="node">
<title>u10</title>
<ellipse fill="#bbbbff" stroke="black" cx="759.98" cy="-1695" rx="241.26" ry="18"/>
<text text-anchor="middle" x="759.98" y="-1691.3" font-family="Times,serif" font-size="14.00">Drasil.GOOL.LanguageRenderer.CSharpRenderer</text>
</g>
<!-- u29&#45;&gt;u10 -->
<g id="edge56" class="edge">
<title>u29&#45;&gt;u10</title>
<path fill="none" stroke="black" d="M979.24,-1843.07C935.87,-1813.98 843.7,-1752.16 793.79,-1718.68"/>
<polygon fill="black" stroke="black" points="795.53,-1715.63 785.27,-1712.97 791.63,-1721.44 795.53,-1715.63"/>
</g>
<!-- u9 -->
<g id="node7" class="node">
<title>u9</title>
<ellipse fill="#bbbbff" stroke="black" cx="2244.98" cy="-1695" rx="239.36" ry="18"/>
<text text-anchor="middle" x="2244.98" y="-1691.3" font-family="Times,serif" font-size="14.00">Drasil.GOOL.LanguageRenderer.PythonRenderer</text>
</g>
<!-- u29&#45;&gt;u9 -->
<g id="edge55" class="edge">
<title>u29&#45;&gt;u9</title>
<path fill="none" stroke="black" d="M1063.73,-1851.03C1256.9,-1825.68 1859.72,-1746.56 2121.54,-1712.2"/>
<polygon fill="black" stroke="black" points="2122.01,-1715.67 2131.47,-1710.9 2121.1,-1708.73 2122.01,-1715.67"/>
</g>
<!-- u8 -->
<g id="node8" class="node">
<title>u8</title>
<ellipse fill="#bbbbff" stroke="black" cx="1244.98" cy="-1695" rx="225.56" ry="18"/>
<text text-anchor="middle" x="1244.98" y="-1691.3" font-family="Times,serif" font-size="14.00">Drasil.GOOL.LanguageRenderer.JavaRenderer</text>
</g>
<!-- u29&#45;&gt;u8 -->
<g id="edge54" class="edge">
<title>u29&#45;&gt;u8</title>
<path fill="none" stroke="black" d="M1027.07,-1842.78C1070.49,-1813.53 1161.96,-1751.92 1211.46,-1718.58"/>
<polygon fill="black" stroke="black" points="1213.57,-1721.38 1219.91,-1712.89 1209.66,-1715.57 1213.57,-1721.38"/>
</g>
<!-- u7 -->
<g id="node9" class="node">
<title>u7</title>
<ellipse fill="#bbbbff" stroke="black" cx="1718.98" cy="-1695" rx="230.96" ry="18"/>
<text text-anchor="middle" x="1718.98" y="-1691.3" font-family="Times,serif" font-size="14.00">Drasil.GOOL.LanguageRenderer.SwiftRenderer</text>
</g>
<!-- u29&#45;&gt;u7 -->
<g id="edge53" class="edge">
<title>u29&#45;&gt;u7</title>
<path fill="none" stroke="black" d="M1053.33,-1847.54C1175.62,-1819.7 1489.16,-1748.32 1638.09,-1714.41"/>
<polygon fill="black" stroke="black" points="1639.12,-1717.77 1648.09,-1712.14 1637.57,-1710.94 1639.12,-1717.77"/>
</g>
<!-- u6 -->
<g id="node10" class="node">
<title>u6</title>
<ellipse fill="#bbbbff" stroke="black" cx="275.98" cy="-1695" rx="224.76" ry="18"/>
<text text-anchor="middle" x="275.98" y="-1691.3" font-family="Times,serif" font-size="14.00">Drasil.GOOL.LanguageRenderer.CppRenderer</text>
</g>
<!-- u29&#45;&gt;u6 -->
<g id="edge52" class="edge">
<title>u29&#45;&gt;u6</title>
<path fill="none" stroke="black" d="M952.15,-1847.6C828.13,-1819.8 509.17,-1748.28 357.91,-1714.37"/>
<polygon fill="black" stroke="black" points="358.28,-1710.86 347.76,-1712.09 356.75,-1717.7 358.28,-1710.86"/>
</g>
<!-- u28 -->
<g id="node2" class="node">
<title>u28</title>
<ellipse fill="#bbffbb" stroke="black" cx="2763.98" cy="-2025" rx="69.59" ry="18"/>
<text text-anchor="middle" x="2763.98" y="-2021.3" font-family="Times,serif" font-size="14.00">Drasil.GProc</text>
</g>
<!-- u1 -->
<g id="node12" class="node">
<title>u1</title>
<ellipse fill="#ffbbbb" stroke="black" cx="3015.98" cy="-868" rx="135.38" ry="18"/>
<text text-anchor="middle" x="3015.98" y="-864.3" font-family="Times,serif" font-size="14.00">Drasil.GProc.CodeInfoProc</text>
</g>
<!-- u28&#45;&gt;u1 -->
<g id="edge50" class="edge">
<title>u28&#45;&gt;u1</title>
<path fill="none" stroke="black" d="M2789.53,-2007.97C2853.6,-1965.58 3015.98,-1843.57 3015.98,-1696 3015.98,-1696 3015.98,-1696 3015.98,-1198 3015.98,-1086.08 3015.98,-952.75 3015.98,-896.35"/>
<polygon fill="black" stroke="black" points="3019.48,-896.13 3015.98,-886.13 3012.48,-896.13 3019.48,-896.13"/>
</g>
<!-- u2 -->
<g id="node15" class="node">
<title>u2</title>
<ellipse fill="#bbffff" stroke="black" cx="2511.98" cy="-1860" rx="227.46" ry="18"/>
<text text-anchor="middle" x="2511.98" y="-1856.3" font-family="Times,serif" font-size="14.00">Drasil.GProc.LanguageRenderer.JuliaRenderer</text>
</g>
<!-- u28&#45;&gt;u2 -->
<g id="edge51" class="edge">
<title>u28&#45;&gt;u2</title>
<path fill="none" stroke="black" d="M2739.36,-2008.07C2694.29,-1978.92 2598.4,-1916.9 2546.72,-1883.47"/>
<polygon fill="black" stroke="black" points="2548.51,-1880.46 2538.21,-1877.97 2544.71,-1886.34 2548.51,-1880.46"/>
</g>
<!-- u11 -->
<g id="node4" class="node">
<title>u11</title>
<ellipse fill="#ffffbb" stroke="black" cx="2142.98" cy="-703" rx="141.88" ry="18"/>
<text text-anchor="middle" x="2142.98" y="-699.3" font-family="Times,serif" font-size="14.00">Drasil.GOOL.InterfaceGOOL</text>
</g>
<!-- u12&#45;&gt;u11 -->
<g id="edge36" class="edge">
<title>u12&#45;&gt;u11</title>
<path fill="none" stroke="black" d="M493.36,-1346.87C722.89,-1257.42 1838.43,-822.69 2091.75,-723.97"/>
<polygon fill="black" stroke="black" points="2093.04,-727.22 2101.09,-720.33 2090.5,-720.7 2093.04,-727.22"/>
</g>
<!-- u27 -->
<g id="node16" class="node">
<title>u27</title>
<ellipse fill="#ffbbff" stroke="black" cx="2834.98" cy="-537" rx="114.28" ry="18"/>
<text text-anchor="middle" x="2834.98" y="-533.3" font-family="Times,serif" font-size="14.00">Drasil.Shared.Helpers</text>
</g>
<!-- u11&#45;&gt;u27 -->
<g id="edge35" class="edge">
<title>u11&#45;&gt;u27</title>
<path fill="none" stroke="black" d="M2206.84,-686.87C2336.43,-656.15 2629.4,-586.72 2764.42,-554.72"/>
<polygon fill="black" stroke="black" points="2765.33,-558.1 2774.25,-552.39 2763.72,-551.29 2765.33,-558.1"/>
</g>
<!-- u15 -->
<g id="node22" class="node">
<title>u15</title>
<ellipse fill="#ffbbff" stroke="black" cx="2499.98" cy="-537" rx="160.57" ry="18"/>
<text text-anchor="middle" x="2499.98" y="-533.3" font-family="Times,serif" font-size="14.00">Drasil.Shared.InterfaceCommon</text>
</g>
<!-- u11&#45;&gt;u15 -->
<g id="edge34" class="edge">
<title>u11&#45;&gt;u15</title>
<path fill="none" stroke="black" d="M2178.85,-685.52C2244.25,-655.48 2382.76,-591.85 2454.61,-558.84"/>
<polygon fill="black" stroke="black" points="2456.25,-561.94 2463.88,-554.59 2453.33,-555.58 2456.25,-561.94"/>
</g>
<!-- u5 -->
<g id="node5" class="node">
<title>u5</title>
<ellipse fill="#ffffbb" stroke="black" cx="2142.98" cy="-868" rx="165.17" ry="18"/>
<text text-anchor="middle" x="2142.98" y="-864.3" font-family="Times,serif" font-size="14.00">Drasil.GOOL.RendererClassesOO</text>
</g>
<!-- u5&#45;&gt;u11 -->
<g id="edge12" class="edge">
<title>u5&#45;&gt;u11</title>
<path fill="none" stroke="black" d="M2142.98,-849.86C2142.98,-821.69 2142.98,-765.34 2142.98,-731.52"/>
<polygon fill="black" stroke="black" points="2146.48,-731.4 2142.98,-721.4 2139.48,-731.4 2146.48,-731.4"/>
</g>
<!-- u26 -->
<g id="node17" class="node">
<title>u26</title>
<ellipse fill="#ffbbff" stroke="black" cx="2499.98" cy="-703" rx="196.87" ry="18"/>
<text text-anchor="middle" x="2499.98" y="-699.3" font-family="Times,serif" font-size="14.00">Drasil.Shared.RendererClassesCommon</text>
</g>
<!-- u5&#45;&gt;u26 -->
<g id="edge13" class="edge">
<title>u5&#45;&gt;u26</title>
<path fill="none" stroke="black" d="M2179.51,-850.32C2244.99,-820.43 2382.19,-757.78 2453.98,-725"/>
<polygon fill="black" stroke="black" points="2455.6,-728.11 2463.24,-720.78 2452.69,-721.75 2455.6,-728.11"/>
</g>
<!-- u22 -->
<g id="node25" class="node">
<title>u22</title>
<ellipse fill="#77ff77" stroke="black" cx="1181.98" cy="-1529" rx="209.06" ry="18"/>
<text text-anchor="middle" x="1181.98" y="-1525.3" font-family="Times,serif" font-size="14.00">Drasil.Shared.LanguageRenderer.Common</text>
</g>
<!-- u10&#45;&gt;u22 -->
<g id="edge33" class="edge">
<title>u10&#45;&gt;u22</title>
<path fill="none" stroke="black" d="M803.16,-1677.22C881.24,-1646.88 1045.59,-1583.01 1129.81,-1550.28"/>
<polygon fill="black" stroke="black" points="1131.13,-1553.52 1139.18,-1546.63 1128.59,-1546.99 1131.13,-1553.52"/>
</g>
<!-- u21 -->
<g id="node26" class="node">
<title>u21</title>
<ellipse fill="#77ff77" stroke="black" cx="759.98" cy="-1529" rx="194.17" ry="18"/>
<text text-anchor="middle" x="759.98" y="-1525.3" font-family="Times,serif" font-size="14.00">Drasil.Shared.LanguageRenderer.CLike</text>
</g>
<!-- u10&#45;&gt;u21 -->
<g id="edge32" class="edge">
<title>u10&#45;&gt;u21</title>
<path fill="none" stroke="black" d="M759.98,-1676.76C759.98,-1648.26 759.98,-1591.12 759.98,-1557.16"/>
<polygon fill="black" stroke="black" points="763.48,-1557.01 759.98,-1547.01 756.48,-1557.01 763.48,-1557.01"/>
</g>
<!-- u20 -->
<g id="node27" class="node">
<title>u20</title>
<ellipse fill="#77ff77" stroke="black" cx="2142.98" cy="-1529" rx="202.26" ry="18"/>
<text text-anchor="middle" x="2142.98" y="-1525.3" font-family="Times,serif" font-size="14.00">Drasil.Shared.LanguageRenderer.Macros</text>
</g>
<!-- u10&#45;&gt;u20 -->
<g id="edge31" class="edge">
<title>u10&#45;&gt;u20</title>
<path fill="none" stroke="black" d="M882.41,-1679.48C1143.46,-1648.53 1752.46,-1576.31 2016.8,-1544.96"/>
<polygon fill="black" stroke="black" points="2017.31,-1548.43 2026.83,-1543.77 2016.49,-1541.48 2017.31,-1548.43"/>
</g>
<!-- u19 -->
<g id="node28" class="node">
<title>u19</title>
<ellipse fill="#77ff77" stroke="black" cx="1665.98" cy="-1529" rx="256.95" ry="18"/>
<text text-anchor="middle" x="1665.98" y="-1525.3" font-family="Times,serif" font-size="14.00">Drasil.Shared.LanguageRenderer.CommonPseudoOO</text>
</g>
<!-- u10&#45;&gt;u19 -->
<g id="edge30" class="edge">
<title>u10&#45;&gt;u19</title>
<path fill="none" stroke="black" d="M847.26,-1678.2C1016.91,-1647.49 1390.05,-1579.95 1567.93,-1547.75"/>
<polygon fill="black" stroke="black" points="1568.59,-1551.19 1577.81,-1545.96 1567.34,-1544.3 1568.59,-1551.19"/>
</g>
<!-- u9&#45;&gt;u22 -->
<g id="edge29" class="edge">
<title>u9&#45;&gt;u22</title>
<path fill="none" stroke="black" d="M2144.98,-1678.57C1944.5,-1647.64 1495.05,-1578.3 1288.95,-1546.5"/>
<polygon fill="black" stroke="black" points="1289.44,-1543.04 1279.02,-1544.97 1288.37,-1549.96 1289.44,-1543.04"/>
</g>
<!-- u9&#45;&gt;u20 -->
<g id="edge28" class="edge">
<title>u9&#45;&gt;u20</title>
<path fill="none" stroke="black" d="M2234.26,-1676.76C2216.31,-1647.89 2180.07,-1589.63 2159.06,-1555.85"/>
<polygon fill="black" stroke="black" points="2161.81,-1553.65 2153.56,-1547.01 2155.87,-1557.35 2161.81,-1553.65"/>
</g>
<!-- u9&#45;&gt;u19 -->
<g id="edge27" class="edge">
<title>u9&#45;&gt;u19</title>
<path fill="none" stroke="black" d="M2186.81,-1677.52C2079.12,-1647.02 1849.19,-1581.89 1734.29,-1549.35"/>
<polygon fill="black" stroke="black" points="1735.12,-1545.94 1724.54,-1546.59 1733.21,-1552.68 1735.12,-1545.94"/>
</g>
<!-- u8&#45;&gt;u22 -->
<g id="edge26" class="edge">
<title>u8&#45;&gt;u22</title>
<path fill="none" stroke="black" d="M1238.36,-1676.76C1227.36,-1648.14 1205.27,-1590.63 1192.25,-1556.72"/>
<polygon fill="black" stroke="black" points="1195.37,-1555.09 1188.52,-1547.01 1188.83,-1557.6 1195.37,-1555.09"/>
</g>
<!-- u8&#45;&gt;u21 -->
<g id="edge25" class="edge">
<title>u8&#45;&gt;u21</title>
<path fill="none" stroke="black" d="M1195.81,-1677.37C1105.82,-1646.94 915.05,-1582.43 818.53,-1549.8"/>
<polygon fill="black" stroke="black" points="819.52,-1546.44 808.92,-1546.55 817.28,-1553.07 819.52,-1546.44"/>
</g>
<!-- u8&#45;&gt;u20 -->
<g id="edge24" class="edge">
<title>u8&#45;&gt;u20</title>
<path fill="none" stroke="black" d="M1330.68,-1678.35C1499.37,-1647.54 1873.29,-1579.25 2048.69,-1547.22"/>
<polygon fill="black" stroke="black" points="2049.47,-1550.64 2058.68,-1545.4 2048.22,-1543.75 2049.47,-1550.64"/>
</g>
<!-- u8&#45;&gt;u19 -->
<g id="edge23" class="edge">
<title>u8&#45;&gt;u19</title>
<path fill="none" stroke="black" d="M1288.06,-1677.22C1365.85,-1646.92 1529.48,-1583.17 1613.6,-1550.4"/>
<polygon fill="black" stroke="black" points="1614.92,-1553.65 1622.97,-1546.76 1612.38,-1547.13 1614.92,-1553.65"/>
</g>
<!-- u7&#45;&gt;u22 -->
<g id="edge22" class="edge">
<title>u7&#45;&gt;u22</title>
<path fill="none" stroke="black" d="M1664.54,-1677.37C1564.47,-1646.81 1351.84,-1581.88 1245.42,-1549.37"/>
<polygon fill="black" stroke="black" points="1246.36,-1546 1235.77,-1546.43 1244.31,-1552.7 1246.36,-1546"/>
</g>
<!-- u7&#45;&gt;u21 -->
<g id="edge21" class="edge">
<title>u7&#45;&gt;u21</title>
<path fill="none" stroke="black" d="M1627.9,-1678.42C1447.13,-1647.51 1044.45,-1578.65 858.09,-1546.78"/>
<polygon fill="black" stroke="black" points="858.47,-1543.29 848.02,-1545.06 857.29,-1550.19 858.47,-1543.29"/>
</g>
<!-- u7&#45;&gt;u20 -->
<g id="edge20" class="edge">
<title>u7&#45;&gt;u20</title>
<path fill="none" stroke="black" d="M1762.36,-1677.22C1840.81,-1646.88 2005.94,-1583.01 2090.56,-1550.28"/>
<polygon fill="black" stroke="black" points="2091.91,-1553.51 2099.98,-1546.63 2089.39,-1546.98 2091.91,-1553.51"/>
</g>
<!-- u7&#45;&gt;u19 -->
<g id="edge19" class="edge">
<title>u7&#45;&gt;u19</title>
<path fill="none" stroke="black" d="M1713.41,-1676.76C1704.16,-1648.14 1685.57,-1590.63 1674.62,-1556.72"/>
<polygon fill="black" stroke="black" points="1677.88,-1555.45 1671.48,-1547.01 1671.22,-1557.6 1677.88,-1555.45"/>
</g>
<!-- u14 -->
<g id="node23" class="node">
<title>u14</title>
<ellipse fill="#ffbbff" stroke="black" cx="275.98" cy="-1529" rx="112.38" ry="18"/>
<text text-anchor="middle" x="275.98" y="-1525.3" font-family="Times,serif" font-size="14.00">Drasil.Shared.Classes</text>
</g>
<!-- u6&#45;&gt;u14 -->
<g id="edge14" class="edge">
<title>u6&#45;&gt;u14</title>
<path fill="none" stroke="black" d="M275.98,-1676.76C275.98,-1648.26 275.98,-1591.12 275.98,-1557.16"/>
<polygon fill="black" stroke="black" points="279.48,-1557.01 275.98,-1547.01 272.48,-1557.01 279.48,-1557.01"/>
</g>
<!-- u6&#45;&gt;u22 -->
<g id="edge18" class="edge">
<title>u6&#45;&gt;u22</title>
<path fill="none" stroke="black" d="M362.44,-1678.35C532.52,-1647.56 909.4,-1579.34 1086.52,-1547.28"/>
<polygon fill="black" stroke="black" points="1087.38,-1550.68 1096.6,-1545.46 1086.14,-1543.79 1087.38,-1550.68"/>
</g>
<!-- u6&#45;&gt;u21 -->
<g id="edge17" class="edge">
<title>u6&#45;&gt;u21</title>
<path fill="none" stroke="black" d="M325.05,-1677.37C414.86,-1646.94 605.24,-1582.43 701.56,-1549.8"/>
<polygon fill="black" stroke="black" points="702.79,-1553.07 711.14,-1546.55 700.55,-1546.44 702.79,-1553.07"/>
</g>
<!-- u6&#45;&gt;u20 -->
<g id="edge16" class="edge">
<title>u6&#45;&gt;u20</title>
<path fill="none" stroke="black" d="M421.32,-1681.23C768.6,-1650.73 1643.75,-1573.85 1994.35,-1543.06"/>
<polygon fill="black" stroke="black" points="1994.91,-1546.52 2004.57,-1542.16 1994.3,-1539.55 1994.91,-1546.52"/>
</g>
<!-- u6&#45;&gt;u19 -->
<g id="edge15" class="edge">
<title>u6&#45;&gt;u19</title>
<path fill="none" stroke="black" d="M396.6,-1679.77C654.89,-1649.29 1259.93,-1577.91 1530.75,-1545.95"/>
<polygon fill="black" stroke="black" points="1531.51,-1549.39 1541.03,-1544.74 1530.69,-1542.44 1531.51,-1549.39"/>
</g>
<!-- u4 -->
<g id="node11" class="node">
<title>u4</title>
<ellipse fill="#ffbbbb" stroke="black" cx="2850.98" cy="-703" rx="135.68" ry="18"/>
<text text-anchor="middle" x="2850.98" y="-699.3" font-family="Times,serif" font-size="14.00">Drasil.GProc.InterfaceProc</text>
</g>
<!-- u4&#45;&gt;u15 -->
<g id="edge11" class="edge">
<title>u4&#45;&gt;u15</title>
<path fill="none" stroke="black" d="M2815.72,-685.52C2751.42,-655.48 2615.23,-591.85 2544.59,-558.84"/>
<polygon fill="black" stroke="black" points="2546.02,-555.65 2535.48,-554.59 2543.06,-561.99 2546.02,-555.65"/>
</g>
<!-- u1&#45;&gt;u4 -->
<g id="edge3" class="edge">
<title>u1&#45;&gt;u4</title>
<path fill="none" stroke="black" d="M2998.64,-849.86C2969.1,-820.68 2908.96,-761.28 2875.26,-727.99"/>
<polygon fill="black" stroke="black" points="2877.67,-725.44 2868.1,-720.91 2872.75,-730.42 2877.67,-725.44"/>
</g>
<!-- u1&#45;&gt;u27 -->
<g id="edge4" class="edge">
<title>u1&#45;&gt;u27</title>
<path fill="none" stroke="black" d="M3017.95,-849.82C3021,-816.15 3023.92,-739.98 2995.98,-685 2967.96,-629.86 2910.12,-585.22 2871.94,-560.14"/>
<polygon fill="black" stroke="black" points="2873.47,-556.96 2863.16,-554.49 2869.68,-562.85 2873.47,-556.96"/>
</g>
<!-- u0 -->
<g id="node13" class="node">
<title>u0</title>
<ellipse fill="#ffbbbb" stroke="black" cx="2690.98" cy="-868" rx="172.47" ry="18"/>
<text text-anchor="middle" x="2690.98" y="-864.3" font-family="Times,serif" font-size="14.00">Drasil.GProc.RendererClassesProc</text>
</g>
<!-- u0&#45;&gt;u4 -->
<g id="edge1" class="edge">
<title>u0&#45;&gt;u4</title>
<path fill="none" stroke="black" d="M2707.8,-849.86C2736.33,-820.81 2794.27,-761.78 2827.02,-728.41"/>
<polygon fill="black" stroke="black" points="2829.88,-730.49 2834.39,-720.91 2824.88,-725.59 2829.88,-730.49"/>
</g>
<!-- u0&#45;&gt;u26 -->
<g id="edge2" class="edge">
<title>u0&#45;&gt;u26</title>
<path fill="none" stroke="black" d="M2670.9,-849.86C2636.66,-820.64 2566.88,-761.09 2527.9,-727.83"/>
<polygon fill="black" stroke="black" points="2529.96,-724.98 2520.08,-721.15 2525.41,-730.3 2529.96,-724.98"/>
</g>
<!-- u3 -->
<g id="node14" class="node">
<title>u3</title>
<ellipse fill="#bbffff" stroke="black" cx="2763.98" cy="-1695" rx="223.66" ry="18"/>
<text text-anchor="middle" x="2763.98" y="-1691.3" font-family="Times,serif" font-size="14.00">Drasil.GProc.LanguageRenderer.AbstractProc</text>
</g>
<!-- u3&#45;&gt;u0 -->
<g id="edge9" class="edge">
<title>u3&#45;&gt;u0</title>
<path fill="none" stroke="black" d="M2760.79,-1676.95C2751.98,-1628.38 2727.98,-1485.09 2727.98,-1365 2727.98,-1365 2727.98,-1365 2727.98,-1198 2727.98,-1085.38 2706.31,-952.42 2696.14,-896.23"/>
<polygon fill="black" stroke="black" points="2699.51,-895.25 2694.27,-886.05 2692.63,-896.52 2699.51,-895.25"/>
</g>
<!-- u3&#45;&gt;u19 -->
<g id="edge10" class="edge">
<title>u3&#45;&gt;u19</title>
<path fill="none" stroke="black" d="M2662.65,-1678.87C2457.66,-1648.25 1995.02,-1579.15 1779.92,-1547.02"/>
<polygon fill="black" stroke="black" points="1780.27,-1543.53 1769.87,-1545.52 1779.24,-1550.46 1780.27,-1543.53"/>
</g>
<!-- u2&#45;&gt;u3 -->
<g id="edge5" class="edge">
<title>u2&#45;&gt;u3</title>
<path fill="none" stroke="black" d="M2538.47,-1841.86C2584.25,-1812.25 2678.14,-1751.53 2729.14,-1718.54"/>
<polygon fill="black" stroke="black" points="2731.35,-1721.28 2737.84,-1712.91 2727.55,-1715.4 2731.35,-1721.28"/>
</g>
<!-- u2&#45;&gt;u22 -->
<g id="edge8" class="edge">
<title>u2&#45;&gt;u22</title>
<path fill="none" stroke="black" d="M2405.08,-1844.09C2296.67,-1825.54 2126.82,-1786.88 1996.98,-1713 1976.76,-1701.49 1979.7,-1687.59 1958.98,-1677 1847.3,-1619.89 1499.17,-1569.41 1309.05,-1545.2"/>
<polygon fill="black" stroke="black" points="1309.36,-1541.71 1299,-1543.92 1308.48,-1548.65 1309.36,-1541.71"/>
</g>
<!-- u2&#45;&gt;u21 -->
<g id="edge7" class="edge">
<title>u2&#45;&gt;u21</title>
<path fill="none" stroke="black" d="M2296.36,-1854.2C1708.91,-1840.08 118.78,-1794.47 41.98,-1713 -40.94,-1625.03 384.94,-1567.59 617.2,-1543.27"/>
<polygon fill="black" stroke="black" points="617.84,-1546.72 627.42,-1542.21 617.12,-1539.76 617.84,-1546.72"/>
</g>
<!-- u2&#45;&gt;u20 -->
<g id="edge6" class="edge">
<title>u2&#45;&gt;u20</title>
<path fill="none" stroke="black" d="M2515.46,-1841.93C2521.52,-1807.12 2530.1,-1727 2492.98,-1677 2437.13,-1601.77 2335.37,-1564.76 2255.92,-1546.72"/>
<polygon fill="black" stroke="black" points="2256.37,-1543.24 2245.85,-1544.51 2254.86,-1550.07 2256.37,-1543.24"/>
</g>
<!-- u16 -->
<g id="node21" class="node">
<title>u16</title>
<ellipse fill="#ffbbff" stroke="black" cx="2772.98" cy="-41" rx="123.48" ry="18"/>
<text text-anchor="middle" x="2772.98" y="-37.3" font-family="Times,serif" font-size="14.00">Drasil.Shared.CodeType</text>
</g>
<!-- u27&#45;&gt;u16 -->
<g id="edge49" class="edge">
<title>u27&#45;&gt;u16</title>
<path fill="none" stroke="black" d="M2835.43,-518.87C2836.45,-468.11 2837.42,-314.18 2815.98,-189 2808.63,-146.1 2793.1,-97.95 2782.85,-68.82"/>
<polygon fill="black" stroke="black" points="2786.13,-67.58 2779.47,-59.34 2779.54,-69.94 2786.13,-67.58"/>
</g>
<!-- u26&#45;&gt;u15 -->
<g id="edge48" class="edge">
<title>u26&#45;&gt;u15</title>
<path fill="none" stroke="black" d="M2499.98,-684.76C2499.98,-656.26 2499.98,-599.12 2499.98,-565.16"/>
<polygon fill="black" stroke="black" points="2503.48,-565.01 2499.98,-555.01 2496.48,-565.01 2503.48,-565.01"/>
</g>
<!-- u25 -->
<g id="node18" class="node">
<title>u25</title>
<ellipse fill="#ffbbff" stroke="black" cx="2456.98" cy="-207" rx="139.98" ry="18"/>
<text text-anchor="middle" x="2456.98" y="-203.3" font-family="Times,serif" font-size="14.00">Drasil.Shared.CodeAnalysis</text>
</g>
<!-- u24 -->
<g id="node19" class="node">
<title>u24</title>
<ellipse fill="#ffbbff" stroke="black" cx="2499.98" cy="-372" rx="102.88" ry="18"/>
<text text-anchor="middle" x="2499.98" y="-368.3" font-family="Times,serif" font-size="14.00">Drasil.Shared.State</text>
</g>
<!-- u24&#45;&gt;u25 -->
<g id="edge47" class="edge">
<title>u24&#45;&gt;u25</title>
<path fill="none" stroke="black" d="M2495.46,-353.86C2488,-325.57 2473.03,-268.85 2464.13,-235.08"/>
<polygon fill="black" stroke="black" points="2467.51,-234.17 2461.57,-225.4 2460.74,-235.96 2467.51,-234.17"/>
</g>
<!-- u23 -->
<g id="node20" class="node">
<title>u23</title>
<ellipse fill="#ffbbff" stroke="black" cx="2710.98" cy="-207" rx="96.38" ry="18"/>
<text text-anchor="middle" x="2710.98" y="-203.3" font-family="Times,serif" font-size="14.00">Drasil.Shared.AST</text>
</g>
<!-- u24&#45;&gt;u23 -->
<g id="edge46" class="edge">
<title>u24&#45;&gt;u23</title>
<path fill="none" stroke="black" d="M2521.77,-354.17C2559.77,-324.81 2638.23,-264.2 2681.21,-231"/>
<polygon fill="black" stroke="black" points="2683.54,-233.62 2689.31,-224.74 2679.26,-228.08 2683.54,-233.62"/>
</g>
<!-- u23&#45;&gt;u16 -->
<g id="edge45" class="edge">
<title>u23&#45;&gt;u16</title>
<path fill="none" stroke="black" d="M2717.5,-188.76C2728.32,-160.14 2750.06,-102.63 2762.88,-68.72"/>
<polygon fill="black" stroke="black" points="2766.29,-69.6 2766.55,-59.01 2759.74,-67.13 2766.29,-69.6"/>
</g>
<!-- u15&#45;&gt;u24 -->
<g id="edge38" class="edge">
<title>u15&#45;&gt;u24</title>
<path fill="none" stroke="black" d="M2499.98,-518.86C2499.98,-490.69 2499.98,-434.34 2499.98,-400.52"/>
<polygon fill="black" stroke="black" points="2503.48,-400.4 2499.98,-390.4 2496.48,-400.4 2503.48,-400.4"/>
</g>
<!-- u13 -->
<g id="node24" class="node">
<title>u13</title>
<ellipse fill="#ffbbff" stroke="black" cx="1662.98" cy="-1033" rx="166.27" ry="18"/>
<text text-anchor="middle" x="1662.98" y="-1029.3" font-family="Times,serif" font-size="14.00">Drasil.Shared.LanguageRenderer</text>
</g>
<!-- u13&#45;&gt;u5 -->
<g id="edge37" class="edge">
<title>u13&#45;&gt;u5</title>
<path fill="none" stroke="black" d="M1711.2,-1015.62C1800.27,-985.38 1990.17,-920.89 2085.65,-888.47"/>
<polygon fill="black" stroke="black" points="2086.8,-891.77 2095.15,-885.24 2084.55,-885.15 2086.8,-891.77"/>
</g>
<!-- u18 -->
<g id="node29" class="node">
<title>u18</title>
<ellipse fill="#77ff77" stroke="black" cx="1377.98" cy="-1199" rx="228.56" ry="18"/>
<text text-anchor="middle" x="1377.98" y="-1195.3" font-family="Times,serif" font-size="14.00">Drasil.Shared.LanguageRenderer.Constructors</text>
</g>
<!-- u22&#45;&gt;u18 -->
<g id="edge44" class="edge">
<title>u22&#45;&gt;u18</title>
<path fill="none" stroke="black" d="M1192.24,-1510.83C1224.53,-1456.8 1324.14,-1290.1 1362.61,-1225.73"/>
<polygon fill="black" stroke="black" points="1365.7,-1227.38 1367.82,-1217 1359.69,-1223.79 1365.7,-1227.38"/>
</g>
<!-- u21&#45;&gt;u18 -->
<g id="edge43" class="edge">
<title>u21&#45;&gt;u18</title>
<path fill="none" stroke="black" d="M791.91,-1511.06C895.51,-1456.07 1222.26,-1282.65 1337.37,-1221.55"/>
<polygon fill="black" stroke="black" points="1339.06,-1224.62 1346.25,-1216.84 1335.77,-1218.44 1339.06,-1224.62"/>
</g>
<!-- u20&#45;&gt;u5 -->
<g id="edge42" class="edge">
<title>u20&#45;&gt;u5</title>
<path fill="none" stroke="black" d="M2142.98,-1510.71C2142.98,-1420.89 2142.98,-1007.35 2142.98,-896.44"/>
<polygon fill="black" stroke="black" points="2146.48,-896.11 2142.98,-886.11 2139.48,-896.11 2146.48,-896.11"/>
</g>
<!-- u17 -->
<g id="node30" class="node">
<title>u17</title>
<ellipse fill="#77ff77" stroke="black" cx="1573.98" cy="-1364" rx="271.05" ry="18"/>
<text text-anchor="middle" x="1573.98" y="-1360.3" font-family="Times,serif" font-size="14.00">Drasil.Shared.LanguageRenderer.LanguagePolymorphic</text>
</g>
<!-- u19&#45;&gt;u17 -->
<g id="edge41" class="edge">
<title>u19&#45;&gt;u17</title>
<path fill="none" stroke="black" d="M1656.31,-1510.86C1640.2,-1482.32 1607.77,-1424.87 1588.78,-1391.21"/>
<polygon fill="black" stroke="black" points="1591.76,-1389.39 1583.8,-1382.4 1585.67,-1392.83 1591.76,-1389.39"/>
</g>
<!-- u18&#45;&gt;u13 -->
<g id="edge40" class="edge">
<title>u18&#45;&gt;u13</title>
<path fill="none" stroke="black" d="M1407.41,-1181.07C1459.38,-1151.16 1567.37,-1089.02 1624.93,-1055.9"/>
<polygon fill="black" stroke="black" points="1626.79,-1058.86 1633.72,-1050.84 1623.3,-1052.8 1626.79,-1058.86"/>
</g>
<!-- u17&#45;&gt;u18 -->
<g id="edge39" class="edge">
<title>u17&#45;&gt;u18</title>
<path fill="none" stroke="black" d="M1553.38,-1345.86C1518.16,-1316.58 1446.33,-1256.84 1406.38,-1223.62"/>
<polygon fill="black" stroke="black" points="1408.53,-1220.85 1398.6,-1217.15 1404.06,-1226.24 1408.53,-1220.85"/>
</g>
</g>
</svg>
