<?xml version="1.0" encoding="UTF-8" standalone="no"?>
<!DOCTYPE svg PUBLIC "-//W3C//DTD SVG 1.1//EN"
 "http://www.w3.org/Graphics/SVG/1.1/DTD/svg11.dtd">
<!-- Generated by graphviz version 2.43.0 (0)
 -->
<!-- Title: G Pages: 1 -->
<svg width="431pt" height="288pt"
 viewBox="0.00 0.00 430.65 288.00" xmlns="http://www.w3.org/2000/svg" xmlns:xlink="http://www.w3.org/1999/xlink">
<g id="graph0" class="graph" transform="scale(0.35 0.35) rotate(0) translate(4 814.67)">
<title>G</title>
<polygon fill="white" stroke="transparent" points="-4,4 -4,-814.67 1220.17,-814.67 1220.17,4 -4,4"/>
<!-- u0 -->
<g id="node1" class="node">
<title>u0</title>
<ellipse fill="#bbffbb" stroke="black" cx="581.89" cy="-730" rx="89.08" ry="18"/>
<text text-anchor="middle" x="581.89" y="-726.3" font-family="Times,serif" font-size="14.00">Drasil.Generator</text>
</g>
<!-- u4 -->
<g id="node3" class="node">
<title>u4</title>
<ellipse fill="#ffffbb" stroke="black" cx="133.89" cy="-405" rx="133.78" ry="18"/>
<text text-anchor="middle" x="133.89" y="-401.3" font-family="Times,serif" font-size="14.00">Drasil.Generator.Generate</text>
</g>
<!-- u0&#45;&gt;u4 -->
<g id="edge4" class="edge">
<title>u0&#45;&gt;u4</title>
<path fill="none" stroke="black" d="M559.06,-712.54C484.93,-659.09 250.88,-490.35 165.47,-428.77"/>
<polygon fill="black" stroke="black" points="167.37,-425.83 157.21,-422.82 163.28,-431.5 167.37,-425.83"/>
</g>
<!-- u3 -->
<g id="node4" class="node">
<title>u3</title>
<ellipse fill="#ffffbb" stroke="black" cx="427.89" cy="-405" rx="141.88" ry="18"/>
<text text-anchor="middle" x="427.89" y="-401.3" font-family="Times,serif" font-size="14.00">Drasil.Generator.TypeCheck</text>
</g>
<!-- u0&#45;&gt;u3 -->
<g id="edge3" class="edge">
<title>u0&#45;&gt;u3</title>
<path fill="none" stroke="black" d="M573.61,-711.63C548.17,-658.27 471.02,-496.46 440.5,-432.46"/>
<polygon fill="black" stroke="black" points="443.48,-430.58 436.02,-423.06 437.17,-433.59 443.48,-430.58"/>
</g>
<!-- u2 -->
<g id="node5" class="node">
<title>u2</title>
<ellipse fill="#ffffbb" stroke="black" cx="735.89" cy="-405" rx="148.37" ry="18"/>
<text text-anchor="middle" x="735.89" y="-401.3" font-family="Times,serif" font-size="14.00">Drasil.Generator.ChunkDump</text>
</g>
<!-- u0&#45;&gt;u2 -->
<g id="edge2" class="edge">
<title>u0&#45;&gt;u2</title>
<path fill="none" stroke="black" d="M590.17,-711.63C615.61,-658.27 692.76,-496.46 723.27,-432.46"/>
<polygon fill="black" stroke="black" points="726.61,-433.59 727.75,-423.06 720.29,-430.58 726.61,-433.59"/>
</g>
<!-- u1 -->
<g id="node6" class="node">
<title>u1</title>
<ellipse fill="#ffffbb" stroke="black" cx="1058.89" cy="-405" rx="157.07" ry="18"/>
<text text-anchor="middle" x="1058.89" y="-401.3" font-family="Times,serif" font-size="14.00">Drasil.Generator.BaseChunkDB</text>
</g>
<!-- u0&#45;&gt;u1 -->
<g id="edge1" class="edge">
<title>u0&#45;&gt;u1</title>
<path fill="none" stroke="black" d="M606.2,-712.54C685.2,-659.04 934.83,-490 1025.53,-428.59"/>
<polygon fill="black" stroke="black" points="1027.74,-431.32 1034.05,-422.82 1023.81,-425.52 1027.74,-431.32"/>
</g>
<!-- u5 -->
<g id="node2" class="node">
<title>u5</title>
<ellipse fill="#ffffbb" stroke="black" cx="133.89" cy="-81" rx="129.18" ry="18"/>
<text text-anchor="middle" x="133.89" y="-77.3" font-family="Times,serif" font-size="14.00">Drasil.Generator.Formats</text>
</g>
<!-- u4&#45;&gt;u5 -->
<g id="edge5" class="edge">
<title>u4&#45;&gt;u5</title>
<path fill="none" stroke="black" d="M133.89,-386.69C133.89,-333.71 133.89,-173.5 133.89,-109.17"/>
<polygon fill="black" stroke="black" points="137.39,-109.01 133.89,-99.01 130.39,-109.01 137.39,-109.01"/>
</g>
</g>
</svg>
