<?xml version="1.0" encoding="UTF-8" standalone="no"?>
<!DOCTYPE svg PUBLIC "-//W3C//DTD SVG 1.1//EN"
 "http://www.w3.org/Graphics/SVG/1.1/DTD/svg11.dtd">
<!-- Generated by graphviz version 2.43.0 (0)
 -->
<!-- Title: G Pages: 1 -->
<svg width="431pt" height="288pt"
 viewBox="0.00 0.00 431.12 288.00" xmlns="http://www.w3.org/2000/svg" xmlns:xlink="http://www.w3.org/1999/xlink">
<g id="graph0" class="graph" transform="scale(0.25 0.25) rotate(0) translate(4 1134.67)">
<title>G</title>
<polygon fill="white" stroke="transparent" points="-4,4 -4,-1134.67 1700.53,-1134.67 1700.53,4 -4,4"/>
<!-- u8 -->
<g id="node1" class="node">
<title>u8</title>
<ellipse fill="#bbffbb" stroke="black" cx="131.29" cy="-404" rx="131.08" ry="18"/>
<text text-anchor="middle" x="131.29" y="-400.3" font-family="Times,serif" font-size="14.00">Drasil.Website.CaseStudy</text>
</g>
<!-- u2 -->
<g id="node7" class="node">
<title>u2</title>
<ellipse fill="#bbffbb" stroke="black" cx="131.29" cy="-81" rx="122.38" ry="18"/>
<text text-anchor="middle" x="131.29" y="-77.3" font-family="Times,serif" font-size="14.00">Drasil.Website.Example</text>
</g>
<!-- u8&#45;&gt;u2 -->
<g id="edge8" class="edge">
<title>u8&#45;&gt;u2</title>
<path fill="none" stroke="black" d="M131.29,-385.74C131.29,-333.05 131.29,-173.96 131.29,-109.54"/>
<polygon fill="black" stroke="black" points="134.79,-109.34 131.29,-99.34 127.79,-109.34 134.79,-109.34"/>
</g>
<!-- u7 -->
<g id="node2" class="node">
<title>u7</title>
<ellipse fill="#bbffbb" stroke="black" cx="389.29" cy="-404" rx="108.58" ry="18"/>
<text text-anchor="middle" x="389.29" y="-400.3" font-family="Times,serif" font-size="14.00">Drasil.Website.About</text>
</g>
<!-- u6 -->
<g id="node3" class="node">
<title>u6</title>
<ellipse fill="#bbffbb" stroke="black" cx="809.29" cy="-727" rx="104.78" ry="18"/>
<text text-anchor="middle" x="809.29" y="-723.3" font-family="Times,serif" font-size="14.00">Drasil.Website.Body</text>
</g>
<!-- u6&#45;&gt;u8 -->
<g id="edge7" class="edge">
<title>u6&#45;&gt;u8</title>
<path fill="none" stroke="black" d="M775.2,-709.86C662.54,-656.52 302.11,-485.88 175.65,-426"/>
<polygon fill="black" stroke="black" points="176.79,-422.67 166.25,-421.55 173.79,-429 176.79,-422.67"/>
</g>
<!-- u6&#45;&gt;u7 -->
<g id="edge6" class="edge">
<title>u6&#45;&gt;u7</title>
<path fill="none" stroke="black" d="M787.3,-709.19C717.27,-655.67 499.39,-489.15 419.26,-427.91"/>
<polygon fill="black" stroke="black" points="421.13,-424.93 411.06,-421.64 416.88,-430.49 421.13,-424.93"/>
</g>
<!-- u5 -->
<g id="node4" class="node">
<title>u5</title>
<ellipse fill="#bbffbb" stroke="black" cx="655.29" cy="-404" rx="139.18" ry="18"/>
<text text-anchor="middle" x="655.29" y="-400.3" font-family="Times,serif" font-size="14.00">Drasil.Website.Introduction</text>
</g>
<!-- u6&#45;&gt;u5 -->
<g id="edge5" class="edge">
<title>u6&#45;&gt;u5</title>
<path fill="none" stroke="black" d="M801.01,-708.74C775.63,-655.84 698.78,-495.65 668.12,-431.74"/>
<polygon fill="black" stroke="black" points="671.09,-429.85 663.61,-422.34 664.78,-432.87 671.09,-429.85"/>
</g>
<!-- u4 -->
<g id="node5" class="node">
<title>u4</title>
<ellipse fill="#bbffbb" stroke="black" cx="964.29" cy="-404" rx="151.37" ry="18"/>
<text text-anchor="middle" x="964.29" y="-400.3" font-family="Times,serif" font-size="14.00">Drasil.Website.GettingStarted</text>
</g>
<!-- u6&#45;&gt;u4 -->
<g id="edge4" class="edge">
<title>u6&#45;&gt;u4</title>
<path fill="none" stroke="black" d="M817.62,-708.74C843.22,-655.73 920.84,-494.99 951.57,-431.35"/>
<polygon fill="black" stroke="black" points="954.72,-432.87 955.91,-422.34 948.41,-429.83 954.72,-432.87"/>
</g>
<!-- u3 -->
<g id="node6" class="node">
<title>u3</title>
<ellipse fill="#bbffbb" stroke="black" cx="1286.29" cy="-404" rx="152.17" ry="18"/>
<text text-anchor="middle" x="1286.29" y="-400.3" font-family="Times,serif" font-size="14.00">Drasil.Website.Documentation</text>
</g>
<!-- u6&#45;&gt;u3 -->
<g id="edge3" class="edge">
<title>u6&#45;&gt;u3</title>
<path fill="none" stroke="black" d="M833.93,-709.42C913.23,-656.05 1161.91,-488.7 1252.69,-427.61"/>
<polygon fill="black" stroke="black" points="1254.88,-430.36 1261.22,-421.87 1250.97,-424.55 1254.88,-430.36"/>
</g>
<!-- u1 -->
<g id="node8" class="node">
<title>u1</title>
<ellipse fill="#bbffbb" stroke="black" cx="1576.29" cy="-404" rx="120.48" ry="18"/>
<text text-anchor="middle" x="1576.29" y="-400.3" font-family="Times,serif" font-size="14.00">Drasil.Website.Analysis</text>
</g>
<!-- u6&#45;&gt;u1 -->
<g id="edge2" class="edge">
<title>u6&#45;&gt;u1</title>
<path fill="none" stroke="black" d="M847.06,-710.19C974.25,-656.96 1386.81,-484.3 1528.21,-425.12"/>
<polygon fill="black" stroke="black" points="1529.65,-428.31 1537.53,-421.22 1526.95,-421.85 1529.65,-428.31"/>
</g>
<!-- u0 -->
<g id="node9" class="node">
<title>u0</title>
<ellipse fill="#ffffbb" stroke="black" cx="809.29" cy="-1050" rx="122.38" ry="18"/>
<text text-anchor="middle" x="809.29" y="-1046.3" font-family="Times,serif" font-size="14.00">drasil&#45;website.app.Main</text>
</g>
<!-- u0&#45;&gt;u6 -->
<g id="edge1" class="edge">
<title>u0&#45;&gt;u6</title>
<path fill="none" stroke="black" d="M809.29,-1031.74C809.29,-979.05 809.29,-819.96 809.29,-755.54"/>
<polygon fill="black" stroke="black" points="812.79,-755.34 809.29,-745.34 805.79,-755.34 812.79,-755.34"/>
</g>
</g>
</svg>
