<?xml version="1.0" encoding="UTF-8" standalone="no"?>
<!DOCTYPE svg PUBLIC "-//W3C//DTD SVG 1.1//EN"
 "http://www.w3.org/Graphics/SVG/1.1/DTD/svg11.dtd">
<!-- Generated by graphviz version 2.43.0 (0)
 -->
<!-- Title: G Pages: 1 -->
<svg width="431pt" height="288pt"
 viewBox="0.00 0.00 430.88 288.00" xmlns="http://www.w3.org/2000/svg" xmlns:xlink="http://www.w3.org/1999/xlink">
<g id="graph0" class="graph" transform="scale(0.34 0.34) rotate(0) translate(4 838)">
<title>G</title>
<polygon fill="white" stroke="transparent" points="-4,4 -4,-838 1255.72,-838 1255.72,4 -4,4"/>
<!-- u0 -->
<g id="node1" class="node">
<title>u0</title>
<ellipse fill="#bbffbb" stroke="black" cx="833.38" cy="-751" rx="89.08" ry="18"/>
<text text-anchor="middle" x="833.38" y="-747.3" font-family="Times,serif" font-size="14.00">Drasil.Generator</text>
</g>
<!-- u6 -->
<g id="node2" class="node">
<title>u6</title>
<ellipse fill="#ffffbb" stroke="black" cx="679.38" cy="-417" rx="133.78" ry="18"/>
<text text-anchor="middle" x="679.38" y="-413.3" font-family="Times,serif" font-size="14.00">Drasil.Generator.Generate</text>
</g>
<!-- u0&#45;&gt;u6 -->
<g id="edge2" class="edge">
<title>u0&#45;&gt;u6</title>
<path fill="none" stroke="black" d="M825.32,-732.62C800.01,-678.05 722.01,-509.89 691.65,-444.45"/>
<polygon fill="black" stroke="black" points="694.75,-442.81 687.37,-435.21 688.4,-445.75 694.75,-442.81"/>
</g>
<!-- u3 -->
<g id="node5" class="node">
<title>u3</title>
<ellipse fill="#ffffbb" stroke="black" cx="988.38" cy="-417" rx="157.07" ry="18"/>
<text text-anchor="middle" x="988.38" y="-413.3" font-family="Times,serif" font-size="14.00">Drasil.Generator.BaseChunkDB</text>
</g>
<!-- u0&#45;&gt;u3 -->
<g id="edge1" class="edge">
<title>u0&#45;&gt;u3</title>
<path fill="none" stroke="black" d="M841.5,-732.62C866.98,-678.05 945.48,-509.89 976.04,-444.45"/>
<polygon fill="black" stroke="black" points="979.29,-445.75 980.35,-435.21 972.95,-442.79 979.29,-445.75"/>
</g>
<!-- u5 -->
<g id="node3" class="node">
<title>u5</title>
<ellipse fill="#ffffbb" stroke="black" cx="179.38" cy="-83" rx="179.27" ry="18"/>
<text text-anchor="middle" x="179.38" y="-79.3" font-family="Times,serif" font-size="14.00">Drasil.Generator.TraceabilityGraphs</text>
</g>
<!-- u6&#45;&gt;u5 -->
<g id="edge6" class="edge">
<title>u6&#45;&gt;u5</title>
<path fill="none" stroke="black" d="M654.25,-399.31C571.56,-344.41 307.94,-169.36 213.47,-106.63"/>
<polygon fill="black" stroke="black" points="215.14,-103.54 204.87,-100.92 211.26,-109.37 215.14,-103.54"/>
</g>
<!-- u4 -->
<g id="node4" class="node">
<title>u4</title>
<ellipse fill="#ffffbb" stroke="black" cx="525.38" cy="-83" rx="148.37" ry="18"/>
<text text-anchor="middle" x="525.38" y="-79.3" font-family="Times,serif" font-size="14.00">Drasil.Generator.ChunkDump</text>
</g>
<!-- u6&#45;&gt;u4 -->
<g id="edge5" class="edge">
<title>u6&#45;&gt;u4</title>
<path fill="none" stroke="black" d="M671.32,-398.62C646.01,-344.05 568.01,-175.89 537.65,-110.45"/>
<polygon fill="black" stroke="black" points="540.75,-108.81 533.37,-101.21 534.4,-111.75 540.75,-108.81"/>
</g>
<!-- u2 -->
<g id="node6" class="node">
<title>u2</title>
<ellipse fill="#ffffbb" stroke="black" cx="833.38" cy="-83" rx="141.88" ry="18"/>
<text text-anchor="middle" x="833.38" y="-79.3" font-family="Times,serif" font-size="14.00">Drasil.Generator.TypeCheck</text>
</g>
<!-- u6&#45;&gt;u2 -->
<g id="edge4" class="edge">
<title>u6&#45;&gt;u2</title>
<path fill="none" stroke="black" d="M687.45,-398.62C712.76,-344.05 790.76,-175.89 821.12,-110.45"/>
<polygon fill="black" stroke="black" points="824.37,-111.75 825.4,-101.21 818.02,-108.81 824.37,-111.75"/>
</g>
<!-- u1 -->
<g id="node7" class="node">
<title>u1</title>
<ellipse fill="#ffffbb" stroke="black" cx="1122.38" cy="-83" rx="129.18" ry="18"/>
<text text-anchor="middle" x="1122.38" y="-79.3" font-family="Times,serif" font-size="14.00">Drasil.Generator.Formats</text>
</g>
<!-- u6&#45;&gt;u1 -->
<g id="edge3" class="edge">
<title>u6&#45;&gt;u1</title>
<path fill="none" stroke="black" d="M701.96,-399.08C775.43,-344.02 1007.78,-169.89 1091.74,-106.97"/>
<polygon fill="black" stroke="black" points="1093.95,-109.68 1099.85,-100.89 1089.75,-104.08 1093.95,-109.68"/>
</g>
</g>
</svg>
