<?xml version="1.0" encoding="UTF-8" standalone="no"?>
<!DOCTYPE svg PUBLIC "-//W3C//DTD SVG 1.1//EN"
 "http://www.w3.org/Graphics/SVG/1.1/DTD/svg11.dtd">
<!-- Generated by graphviz version 2.43.0 (0)
 -->
<!-- Title: G Pages: 1 -->
<svg width="431pt" height="288pt"
 viewBox="0.00 0.00 431.20 288.00" xmlns="http://www.w3.org/2000/svg" xmlns:xlink="http://www.w3.org/1999/xlink">
<g id="graph0" class="graph" transform="scale(4.09 4.09) rotate(0) translate(4 1173.33)">
<title>G</title>
<polygon fill="white" stroke="transparent" points="-4,4 -4,-1173.33 1758.71,-1173.33 1758.71,4 -4,4"/>
<!-- u10 -->
<g id="node1" class="node">
<title>u10</title>
<ellipse fill="#bbffbb" stroke="black" cx="818.23" cy="-959" rx="123.48" ry="18"/>
<text text-anchor="middle" x="818.23" y="-955.3" font-family="Times,serif" font-size="14.00">Language.Drasil.Format</text>
</g>
<!-- u3 -->
<g id="node2" class="node">
<title>u3</title>
<ellipse fill="#bbffbb" stroke="black" cx="1077.23" cy="-1146" rx="128.08" ry="18"/>
<text text-anchor="middle" x="1077.23" y="-1142.3" font-family="Times,serif" font-size="14.00">Language.Drasil.Printers</text>
</g>
<!-- u4 -->
<g id="node4" class="node">
<title>u4</title>
<ellipse fill="#ffffbb" stroke="black" cx="1224.23" cy="-1052" rx="135.68" ry="18"/>
<text text-anchor="middle" x="1224.23" y="-1048.3" font-family="Times,serif" font-size="14.00">Language.Drasil.DOT.Print</text>
</g>
<!-- u3&#45;&gt;u4 -->
<g id="edge4" class="edge">
<title>u3&#45;&gt;u4</title>
<path fill="none" stroke="black" d="M1103.85,-1128.34C1127.64,-1113.45 1162.67,-1091.53 1188.81,-1075.17"/>
<polygon fill="black" stroke="black" points="1190.69,-1078.12 1197.31,-1069.85 1186.98,-1072.19 1190.69,-1078.12"/>
</g>
<!-- u15 -->
<g id="node10" class="node">
<title>u15</title>
<ellipse fill="#ffbbbb" stroke="black" cx="930.23" cy="-1052" rx="140.28" ry="18"/>
<text text-anchor="middle" x="930.23" y="-1048.3" font-family="Times,serif" font-size="14.00">Language.Drasil.JSON.Print</text>
</g>
<!-- u3&#45;&gt;u15 -->
<g id="edge5" class="edge">
<title>u3&#45;&gt;u15</title>
<path fill="none" stroke="black" d="M1050.61,-1128.34C1026.82,-1113.45 991.79,-1091.53 965.65,-1075.17"/>
<polygon fill="black" stroke="black" points="967.48,-1072.19 957.15,-1069.85 963.77,-1078.12 967.48,-1072.19"/>
</g>
<!-- u2 -->
<g id="node11" class="node">
<title>u2</title>
<ellipse fill="#bbffff" stroke="black" cx="569.23" cy="-1052" rx="133.48" ry="18"/>
<text text-anchor="middle" x="569.23" y="-1048.3" font-family="Times,serif" font-size="14.00">Language.Drasil.Log.Print</text>
</g>
<!-- u3&#45;&gt;u2 -->
<g id="edge3" class="edge">
<title>u3&#45;&gt;u2</title>
<path fill="none" stroke="black" d="M1002,-1131.38C909.57,-1114.64 753.08,-1086.3 655.76,-1068.67"/>
<polygon fill="black" stroke="black" points="656.12,-1065.18 645.65,-1066.84 654.87,-1072.07 656.12,-1065.18"/>
</g>
<!-- u0 -->
<g id="node12" class="node">
<title>u0</title>
<ellipse fill="#ffbbff" stroke="black" cx="1566.23" cy="-1052" rx="188.47" ry="18"/>
<text text-anchor="middle" x="1566.23" y="-1048.3" font-family="Times,serif" font-size="14.00">Language.Drasil.Markdown.CreateMd</text>
</g>
<!-- u3&#45;&gt;u0 -->
<g id="edge2" class="edge">
<title>u3&#45;&gt;u0</title>
<path fill="none" stroke="black" d="M1150.44,-1131.23C1236.94,-1114.95 1380.93,-1087.86 1474.72,-1070.22"/>
<polygon fill="black" stroke="black" points="1475.58,-1073.62 1484.77,-1068.33 1474.29,-1066.74 1475.58,-1073.62"/>
</g>
<!-- u1 -->
<g id="node3" class="node">
<title>u1</title>
<ellipse fill="#bbffbb" stroke="black" cx="1168.23" cy="-585" rx="119.68" ry="18"/>
<text text-anchor="middle" x="1168.23" y="-581.3" font-family="Times,serif" font-size="14.00">Language.Drasil.Config</text>
</g>
<!-- u14 -->
<g id="node5" class="node">
<title>u14</title>
<ellipse fill="#bbbbff" stroke="black" cx="872.23" cy="-865" rx="140.28" ry="18"/>
<text text-anchor="middle" x="872.23" y="-861.3" font-family="Times,serif" font-size="14.00">Language.Drasil.HTML.CSS</text>
</g>
<!-- u13 -->
<g id="node6" class="node">
<title>u13</title>
<ellipse fill="#bbbbff" stroke="black" cx="1473.23" cy="-865" rx="157.87" ry="18"/>
<text text-anchor="middle" x="1473.23" y="-861.3" font-family="Times,serif" font-size="14.00">Language.Drasil.HTML.Helpers</text>
</g>
<!-- u22 -->
<g id="node14" class="node">
<title>u22</title>
<ellipse fill="#ffff77" stroke="black" cx="928.23" cy="-23" rx="149.47" ry="18"/>
<text text-anchor="middle" x="928.23" y="-19.3" font-family="Times,serif" font-size="14.00">Language.Drasil.Printing.AST</text>
</g>
<!-- u13&#45;&gt;u22 -->
<g id="edge18" class="edge">
<title>u13&#45;&gt;u22</title>
<path fill="none" stroke="black" d="M1499.64,-847.05C1541.21,-818.06 1617.23,-754.7 1617.23,-679 1617.23,-679 1617.23,-679 1617.23,-209 1617.23,-96.11 1267.85,-50.19 1066.67,-33.1"/>
<polygon fill="black" stroke="black" points="1066.87,-29.61 1056.62,-32.26 1066.29,-36.58 1066.87,-29.61"/>
</g>
<!-- u12 -->
<g id="node7" class="node">
<title>u12</title>
<ellipse fill="#bbbbff" stroke="black" cx="560.23" cy="-865" rx="153.27" ry="18"/>
<text text-anchor="middle" x="560.23" y="-861.3" font-family="Times,serif" font-size="14.00">Language.Drasil.HTML.Monad</text>
</g>
<!-- u11 -->
<g id="node8" class="node">
<title>u11</title>
<ellipse fill="#bbbbff" stroke="black" cx="1104.23" cy="-959" rx="144.87" ry="18"/>
<text text-anchor="middle" x="1104.23" y="-955.3" font-family="Times,serif" font-size="14.00">Language.Drasil.HTML.Print</text>
</g>
<!-- u11&#45;&gt;u14 -->
<g id="edge17" class="edge">
<title>u11&#45;&gt;u14</title>
<path fill="none" stroke="black" d="M1063.02,-941.66C1023.88,-926.14 964.94,-902.76 922.94,-886.11"/>
<polygon fill="black" stroke="black" points="924.03,-882.78 913.45,-882.34 921.45,-889.28 924.03,-882.78"/>
</g>
<!-- u11&#45;&gt;u13 -->
<g id="edge16" class="edge">
<title>u11&#45;&gt;u13</title>
<path fill="none" stroke="black" d="M1165.99,-942.6C1230.72,-926.46 1332.33,-901.13 1400.8,-884.06"/>
<polygon fill="black" stroke="black" points="1401.79,-887.42 1410.65,-881.6 1400.1,-880.63 1401.79,-887.42"/>
</g>
<!-- u11&#45;&gt;u12 -->
<g id="edge15" class="edge">
<title>u11&#45;&gt;u12</title>
<path fill="none" stroke="black" d="M1022.2,-944.13C923.38,-927.42 757.76,-899.41 653.98,-881.85"/>
<polygon fill="black" stroke="black" points="654.27,-878.35 643.83,-880.14 653.1,-885.26 654.27,-878.35"/>
</g>
<!-- u6 -->
<g id="node31" class="node">
<title>u6</title>
<ellipse fill="#ff7777" stroke="black" cx="1164.23" cy="-865" rx="133.48" ry="18"/>
<text text-anchor="middle" x="1164.23" y="-861.3" font-family="Times,serif" font-size="14.00">Language.Drasil.TeX.Print</text>
</g>
<!-- u11&#45;&gt;u6 -->
<g id="edge14" class="edge">
<title>u11&#45;&gt;u6</title>
<path fill="none" stroke="black" d="M1115.52,-940.7C1124.48,-926.95 1137.17,-907.5 1147.34,-891.9"/>
<polygon fill="black" stroke="black" points="1150.47,-893.51 1153,-883.23 1144.6,-889.69 1150.47,-893.51"/>
</g>
<!-- u16 -->
<g id="node9" class="node">
<title>u16</title>
<ellipse fill="#ffbbbb" stroke="black" cx="1473.23" cy="-959" rx="153.27" ry="18"/>
<text text-anchor="middle" x="1473.23" y="-955.3" font-family="Times,serif" font-size="14.00">Language.Drasil.JSON.Helpers</text>
</g>
<!-- u16&#45;&gt;u13 -->
<g id="edge22" class="edge">
<title>u16&#45;&gt;u13</title>
<path fill="none" stroke="black" d="M1473.23,-940.7C1473.23,-927.46 1473.23,-908.95 1473.23,-893.66"/>
<polygon fill="black" stroke="black" points="1476.73,-893.23 1473.23,-883.23 1469.73,-893.23 1476.73,-893.23"/>
</g>
<!-- u19 -->
<g id="node17" class="node">
<title>u19</title>
<ellipse fill="#ffff77" stroke="black" cx="1422.23" cy="-491" rx="167.07" ry="18"/>
<text text-anchor="middle" x="1422.23" y="-487.3" font-family="Times,serif" font-size="14.00">Language.Drasil.Printing.Helpers</text>
</g>
<!-- u16&#45;&gt;u19 -->
<g id="edge23" class="edge">
<title>u16&#45;&gt;u19</title>
<path fill="none" stroke="black" d="M1543.48,-942.91C1577.74,-931.95 1616.56,-913.51 1640.23,-883 1670.64,-843.8 1659.23,-822.61 1659.23,-773 1659.23,-773 1659.23,-773 1659.23,-677 1659.23,-621.1 1639.75,-604.43 1598.23,-567 1569.03,-540.67 1529.2,-522.66 1494.82,-510.9"/>
<polygon fill="black" stroke="black" points="1495.88,-507.56 1485.28,-507.74 1493.68,-514.21 1495.88,-507.56"/>
</g>
<!-- u15&#45;&gt;u10 -->
<g id="edge19" class="edge">
<title>u15&#45;&gt;u10</title>
<path fill="none" stroke="black" d="M909.43,-1034.1C891.83,-1019.79 866.42,-999.15 846.89,-983.29"/>
<polygon fill="black" stroke="black" points="848.89,-980.4 838.92,-976.81 844.48,-985.83 848.89,-980.4"/>
</g>
<!-- u15&#45;&gt;u11 -->
<g id="edge20" class="edge">
<title>u15&#45;&gt;u11</title>
<path fill="none" stroke="black" d="M962.15,-1034.31C990.6,-1019.43 1032.4,-997.57 1063.31,-981.4"/>
<polygon fill="black" stroke="black" points="1065.28,-984.32 1072.52,-976.58 1062.04,-978.12 1065.28,-984.32"/>
</g>
<!-- u15&#45;&gt;u16 -->
<g id="edge21" class="edge">
<title>u15&#45;&gt;u16</title>
<path fill="none" stroke="black" d="M1011.82,-1037.33C1110.24,-1020.83 1275.37,-993.16 1379.09,-975.78"/>
<polygon fill="black" stroke="black" points="1379.96,-979.18 1389.24,-974.08 1378.8,-972.28 1379.96,-979.18"/>
</g>
<!-- u9 -->
<g id="node13" class="node">
<title>u9</title>
<ellipse fill="#77ff77" stroke="black" cx="432.23" cy="-959" rx="139.98" ry="18"/>
<text text-anchor="middle" x="432.23" y="-955.3" font-family="Times,serif" font-size="14.00">Language.Drasil.Plain.Print</text>
</g>
<!-- u2&#45;&gt;u9 -->
<g id="edge1" class="edge">
<title>u2&#45;&gt;u9</title>
<path fill="none" stroke="black" d="M544.1,-1034.31C522.23,-1019.78 490.32,-998.58 466.18,-982.55"/>
<polygon fill="black" stroke="black" points="467.93,-979.51 457.66,-976.89 464.06,-985.34 467.93,-979.51"/>
</g>
<!-- u18 -->
<g id="node18" class="node">
<title>u18</title>
<ellipse fill="#ffff77" stroke="black" cx="447.23" cy="-772" rx="162.47" ry="18"/>
<text text-anchor="middle" x="447.23" y="-768.3" font-family="Times,serif" font-size="14.00">Language.Drasil.Printing.Import</text>
</g>
<!-- u9&#45;&gt;u18 -->
<g id="edge13" class="edge">
<title>u9&#45;&gt;u18</title>
<path fill="none" stroke="black" d="M420.42,-940.71C407.02,-918.89 388.24,-880.19 398.23,-847 403.64,-829.04 414.98,-811.43 425.4,-797.89"/>
<polygon fill="black" stroke="black" points="428.18,-800.02 431.7,-790.03 422.71,-795.64 428.18,-800.02"/>
</g>
<!-- u21 -->
<g id="node15" class="node">
<title>u21</title>
<ellipse fill="#ffff77" stroke="black" cx="1276.23" cy="-398" rx="167.87" ry="18"/>
<text text-anchor="middle" x="1276.23" y="-394.3" font-family="Times,serif" font-size="14.00">Language.Drasil.Printing.Citation</text>
</g>
<!-- u21&#45;&gt;u22 -->
<g id="edge27" class="edge">
<title>u21&#45;&gt;u22</title>
<path fill="none" stroke="black" d="M1281.35,-379.98C1295.22,-330.02 1327.96,-182.1 1257.23,-99 1230.18,-67.22 1131.36,-47.59 1049.02,-36.42"/>
<polygon fill="black" stroke="black" points="1049.43,-32.95 1039.06,-35.1 1048.51,-39.89 1049.43,-32.95"/>
</g>
<!-- u20 -->
<g id="node16" class="node">
<title>u20</title>
<ellipse fill="#ffff77" stroke="black" cx="1024.23" cy="-117" rx="223.66" ry="18"/>
<text text-anchor="middle" x="1024.23" y="-113.3" font-family="Times,serif" font-size="14.00">Language.Drasil.Printing.PrintingInformation</text>
</g>
<!-- u19&#45;&gt;u21 -->
<g id="edge26" class="edge">
<title>u19&#45;&gt;u21</title>
<path fill="none" stroke="black" d="M1395.11,-473.1C1371.65,-458.48 1337.57,-437.23 1311.9,-421.23"/>
<polygon fill="black" stroke="black" points="1313.54,-418.13 1303.21,-415.81 1309.84,-424.07 1313.54,-418.13"/>
</g>
<!-- u23 -->
<g id="node28" class="node">
<title>u23</title>
<ellipse fill="#7777ff" stroke="black" cx="447.23" cy="-678" rx="212.56" ry="18"/>
<text text-anchor="middle" x="447.23" y="-674.3" font-family="Times,serif" font-size="14.00">Language.Drasil.Printing.Import.Document</text>
</g>
<!-- u18&#45;&gt;u23 -->
<g id="edge25" class="edge">
<title>u18&#45;&gt;u23</title>
<path fill="none" stroke="black" d="M447.23,-753.7C447.23,-740.46 447.23,-721.95 447.23,-706.66"/>
<polygon fill="black" stroke="black" points="450.73,-706.23 447.23,-696.23 443.73,-706.23 450.73,-706.23"/>
</g>
<!-- u17 -->
<g id="node19" class="node">
<title>u17</title>
<ellipse fill="#ffff77" stroke="black" cx="852.23" cy="-585" rx="178.97" ry="18"/>
<text text-anchor="middle" x="852.23" y="-581.3" font-family="Times,serif" font-size="14.00">Language.Drasil.Printing.LayoutObj</text>
</g>
<!-- u17&#45;&gt;u21 -->
<g id="edge24" class="edge">
<title>u17&#45;&gt;u21</title>
<path fill="none" stroke="black" d="M890.61,-567.26C968.34,-533.34 1144.17,-456.62 1228.87,-419.66"/>
<polygon fill="black" stroke="black" points="1230.48,-422.78 1238.25,-415.57 1227.68,-416.36 1230.48,-422.78"/>
</g>
<!-- u31 -->
<g id="node20" class="node">
<title>u31</title>
<ellipse fill="#7777ff" stroke="black" cx="447.23" cy="-585" rx="207.96" ry="18"/>
<text text-anchor="middle" x="447.23" y="-581.3" font-family="Times,serif" font-size="14.00">Language.Drasil.Printing.Import.Sentence</text>
</g>
<!-- u24 -->
<g id="node27" class="node">
<title>u24</title>
<ellipse fill="#7777ff" stroke="black" cx="499.23" cy="-491" rx="216.36" ry="18"/>
<text text-anchor="middle" x="499.23" y="-487.3" font-family="Times,serif" font-size="14.00">Language.Drasil.Printing.Import.ModelExpr</text>
</g>
<!-- u31&#45;&gt;u24 -->
<g id="edge41" class="edge">
<title>u31&#45;&gt;u24</title>
<path fill="none" stroke="black" d="M457.01,-566.7C464.71,-553.07 475.57,-533.86 484.35,-518.34"/>
<polygon fill="black" stroke="black" points="487.62,-519.65 489.49,-509.23 481.53,-516.21 487.62,-519.65"/>
</g>
<!-- u30 -->
<g id="node21" class="node">
<title>u30</title>
<ellipse fill="#7777ff" stroke="black" cx="628.23" cy="-304" rx="187.67" ry="18"/>
<text text-anchor="middle" x="628.23" y="-300.3" font-family="Times,serif" font-size="14.00">Language.Drasil.Printing.Import.Expr</text>
</g>
<!-- u29 -->
<g id="node22" class="node">
<title>u29</title>
<ellipse fill="#7777ff" stroke="black" cx="628.23" cy="-210" rx="196.07" ry="18"/>
<text text-anchor="middle" x="628.23" y="-206.3" font-family="Times,serif" font-size="14.00">Language.Drasil.Printing.Import.Literal</text>
</g>
<!-- u30&#45;&gt;u29 -->
<g id="edge40" class="edge">
<title>u30&#45;&gt;u29</title>
<path fill="none" stroke="black" d="M628.23,-285.7C628.23,-272.46 628.23,-253.95 628.23,-238.66"/>
<polygon fill="black" stroke="black" points="631.73,-238.23 628.23,-228.23 624.73,-238.23 631.73,-238.23"/>
</g>
<!-- u25 -->
<g id="node26" class="node">
<title>u25</title>
<ellipse fill="#7777ff" stroke="black" cx="214.23" cy="-210" rx="200.36" ry="18"/>
<text text-anchor="middle" x="214.23" y="-206.3" font-family="Times,serif" font-size="14.00">Language.Drasil.Printing.Import.Symbol</text>
</g>
<!-- u30&#45;&gt;u25 -->
<g id="edge39" class="edge">
<title>u30&#45;&gt;u25</title>
<path fill="none" stroke="black" d="M557.53,-287.29C484.93,-271.15 372.05,-246.07 295.73,-229.11"/>
<polygon fill="black" stroke="black" points="296.2,-225.63 285.68,-226.88 294.68,-232.46 296.2,-225.63"/>
</g>
<!-- u29&#45;&gt;u20 -->
<g id="edge37" class="edge">
<title>u29&#45;&gt;u20</title>
<path fill="none" stroke="black" d="M697.66,-193.04C766.41,-177.25 871.59,-153.08 943.9,-136.46"/>
<polygon fill="black" stroke="black" points="944.92,-139.82 953.88,-134.17 943.35,-133 944.92,-139.82"/>
</g>
<!-- u28 -->
<g id="node23" class="node">
<title>u28</title>
<ellipse fill="#7777ff" stroke="black" cx="580.23" cy="-117" rx="202.26" ry="18"/>
<text text-anchor="middle" x="580.23" y="-113.3" font-family="Times,serif" font-size="14.00">Language.Drasil.Printing.Import.Helpers</text>
</g>
<!-- u29&#45;&gt;u28 -->
<g id="edge38" class="edge">
<title>u29&#45;&gt;u28</title>
<path fill="none" stroke="black" d="M619.2,-191.88C612.1,-178.41 602.07,-159.41 593.97,-144.05"/>
<polygon fill="black" stroke="black" points="596.98,-142.25 589.22,-135.04 590.79,-145.52 596.98,-142.25"/>
</g>
<!-- u28&#45;&gt;u22 -->
<g id="edge36" class="edge">
<title>u28&#45;&gt;u22</title>
<path fill="none" stroke="black" d="M641.65,-99.76C702.58,-83.65 795.8,-59.01 859.25,-42.24"/>
<polygon fill="black" stroke="black" points="860.4,-45.55 869.17,-39.61 858.61,-38.79 860.4,-45.55"/>
</g>
<!-- u27 -->
<g id="node24" class="node">
<title>u27</title>
<ellipse fill="#7777ff" stroke="black" cx="542.23" cy="-398" rx="193.07" ry="18"/>
<text text-anchor="middle" x="542.23" y="-394.3" font-family="Times,serif" font-size="14.00">Language.Drasil.Printing.Import.Space</text>
</g>
<!-- u27&#45;&gt;u30 -->
<g id="edge35" class="edge">
<title>u27&#45;&gt;u30</title>
<path fill="none" stroke="black" d="M558.41,-379.7C571.62,-365.56 590.46,-345.41 605.24,-329.59"/>
<polygon fill="black" stroke="black" points="607.86,-331.92 612.13,-322.23 602.74,-327.14 607.86,-331.92"/>
</g>
<!-- u26 -->
<g id="node25" class="node">
<title>u26</title>
<ellipse fill="#7777ff" stroke="black" cx="211.23" cy="-304" rx="211.46" ry="18"/>
<text text-anchor="middle" x="211.23" y="-300.3" font-family="Times,serif" font-size="14.00">Language.Drasil.Printing.Import.CodeExpr</text>
</g>
<!-- u26&#45;&gt;u29 -->
<g id="edge34" class="edge">
<title>u26&#45;&gt;u29</title>
<path fill="none" stroke="black" d="M283.39,-287.08C356.68,-270.91 469.98,-245.91 546.53,-229.03"/>
<polygon fill="black" stroke="black" points="547.6,-232.37 556.61,-226.8 546.09,-225.54 547.6,-232.37"/>
</g>
<!-- u26&#45;&gt;u25 -->
<g id="edge33" class="edge">
<title>u26&#45;&gt;u25</title>
<path fill="none" stroke="black" d="M211.8,-285.7C212.23,-272.46 212.83,-253.95 213.33,-238.66"/>
<polygon fill="black" stroke="black" points="216.84,-238.34 213.67,-228.23 209.85,-238.11 216.84,-238.34"/>
</g>
<!-- u25&#45;&gt;u22 -->
<g id="edge32" class="edge">
<title>u25&#45;&gt;u22</title>
<path fill="none" stroke="black" d="M232.04,-191.84C259.19,-166.82 313.66,-120.89 369.23,-99 444.63,-69.3 656.23,-46.65 796.38,-34.35"/>
<polygon fill="black" stroke="black" points="796.68,-37.84 806.34,-33.48 796.08,-30.86 796.68,-37.84"/>
</g>
<!-- u24&#45;&gt;u27 -->
<g id="edge31" class="edge">
<title>u24&#45;&gt;u27</title>
<path fill="none" stroke="black" d="M507.32,-472.88C513.63,-459.54 522.5,-440.77 529.72,-425.49"/>
<polygon fill="black" stroke="black" points="533.07,-426.58 534.18,-416.04 526.74,-423.59 533.07,-426.58"/>
</g>
<!-- u23&#45;&gt;u17 -->
<g id="edge28" class="edge">
<title>u23&#45;&gt;u17</title>
<path fill="none" stroke="black" d="M518.7,-660.94C589.84,-644.96 698.79,-620.48 772.64,-603.88"/>
<polygon fill="black" stroke="black" points="773.84,-607.2 782.83,-601.59 772.3,-600.37 773.84,-607.2"/>
</g>
<!-- u23&#45;&gt;u31 -->
<g id="edge30" class="edge">
<title>u23&#45;&gt;u31</title>
<path fill="none" stroke="black" d="M447.23,-659.88C447.23,-646.79 447.23,-628.48 447.23,-613.36"/>
<polygon fill="black" stroke="black" points="450.73,-613.04 447.23,-603.04 443.73,-613.04 450.73,-613.04"/>
</g>
<!-- u23&#45;&gt;u26 -->
<g id="edge29" class="edge">
<title>u23&#45;&gt;u26</title>
<path fill="none" stroke="black" d="M329.5,-662.96C292.05,-652.46 254.17,-634.3 230.23,-603 168.1,-521.76 190.45,-388.75 203.97,-332.02"/>
<polygon fill="black" stroke="black" points="207.43,-332.58 206.45,-322.03 200.64,-330.89 207.43,-332.58"/>
</g>
<!-- u8 -->
<g id="node29" class="node">
<title>u8</title>
<ellipse fill="#ff7777" stroke="black" cx="1168.23" cy="-678" rx="146.47" ry="18"/>
<text text-anchor="middle" x="1168.23" y="-674.3" font-family="Times,serif" font-size="14.00">Language.Drasil.TeX.Helpers</text>
</g>
<!-- u8&#45;&gt;u1 -->
<g id="edge11" class="edge">
<title>u8&#45;&gt;u1</title>
<path fill="none" stroke="black" d="M1168.23,-659.88C1168.23,-646.79 1168.23,-628.48 1168.23,-613.36"/>
<polygon fill="black" stroke="black" points="1171.73,-613.04 1168.23,-603.04 1164.73,-613.04 1171.73,-613.04"/>
</g>
<!-- u7 -->
<g id="node30" class="node">
<title>u7</title>
<ellipse fill="#ff7777" stroke="black" cx="1447.23" cy="-585" rx="141.88" ry="18"/>
<text text-anchor="middle" x="1447.23" y="-581.3" font-family="Times,serif" font-size="14.00">Language.Drasil.TeX.Monad</text>
</g>
<!-- u8&#45;&gt;u7 -->
<g id="edge12" class="edge">
<title>u8&#45;&gt;u7</title>
<path fill="none" stroke="black" d="M1217.47,-660.94C1265.23,-645.36 1337.74,-621.71 1388.49,-605.16"/>
<polygon fill="black" stroke="black" points="1389.6,-608.48 1398.02,-602.05 1387.43,-601.83 1389.6,-608.48"/>
</g>
<!-- u7&#45;&gt;u19 -->
<g id="edge10" class="edge">
<title>u7&#45;&gt;u19</title>
<path fill="none" stroke="black" d="M1442.53,-566.7C1438.9,-553.33 1433.8,-534.59 1429.63,-519.22"/>
<polygon fill="black" stroke="black" points="1432.91,-517.96 1426.91,-509.23 1426.16,-519.79 1432.91,-517.96"/>
</g>
<!-- u6&#45;&gt;u18 -->
<g id="edge9" class="edge">
<title>u6&#45;&gt;u18</title>
<path fill="none" stroke="black" d="M1070.86,-852.15C939.57,-835.49 700.71,-805.17 559.77,-787.28"/>
<polygon fill="black" stroke="black" points="560.16,-783.8 549.8,-786.02 559.28,-790.75 560.16,-783.8"/>
</g>
<!-- u5 -->
<g id="node32" class="node">
<title>u5</title>
<ellipse fill="#ff7777" stroke="black" cx="1164.23" cy="-772" rx="154.07" ry="18"/>
<text text-anchor="middle" x="1164.23" y="-768.3" font-family="Times,serif" font-size="14.00">Language.Drasil.TeX.Preamble</text>
</g>
<!-- u6&#45;&gt;u5 -->
<g id="edge8" class="edge">
<title>u6&#45;&gt;u5</title>
<path fill="none" stroke="black" d="M1164.23,-846.88C1164.23,-833.79 1164.23,-815.48 1164.23,-800.36"/>
<polygon fill="black" stroke="black" points="1167.73,-800.04 1164.23,-790.04 1160.73,-800.04 1167.73,-800.04"/>
</g>
<!-- u5&#45;&gt;u17 -->
<g id="edge7" class="edge">
<title>u5&#45;&gt;u17</title>
<path fill="none" stroke="black" d="M1127.49,-754.49C1096.44,-740.14 1051.11,-718.2 1013.23,-696 966.38,-668.54 915.03,-632.3 883.21,-609.07"/>
<polygon fill="black" stroke="black" points="884.91,-605.97 874.77,-602.88 880.77,-611.62 884.91,-605.97"/>
</g>
<!-- u5&#45;&gt;u8 -->
<g id="edge6" class="edge">
<title>u5&#45;&gt;u8</title>
<path fill="none" stroke="black" d="M1164.98,-753.7C1165.56,-740.33 1166.38,-721.59 1167.05,-706.22"/>
<polygon fill="black" stroke="black" points="1170.54,-706.37 1167.48,-696.23 1163.55,-706.07 1170.54,-706.37"/>
</g>
</g>
</svg>
