<?xml version="1.0" encoding="UTF-8" standalone="no"?>
<!DOCTYPE svg PUBLIC "-//W3C//DTD SVG 1.1//EN"
 "http://www.w3.org/Graphics/SVG/1.1/DTD/svg11.dtd">
<!-- Generated by graphviz version 2.43.0 (0)
 -->
<!-- Title: G Pages: 1 -->
<svg width="431pt" height="288pt"
 viewBox="0.00 0.00 431.03 288.00" xmlns="http://www.w3.org/2000/svg" xmlns:xlink="http://www.w3.org/1999/xlink">
<g id="graph0" class="graph" transform="scale(0.25 0.25) rotate(0) translate(4 1135.33)">
<title>G</title>
<polygon fill="white" stroke="transparent" points="-4,4 -4,-1135.33 1701.17,-1135.33 1701.17,4 -4,4"/>
<!-- u8 -->
<g id="node1" class="node">
<title>u8</title>
<ellipse fill="#bbffbb" stroke="black" cx="884.09" cy="-727" rx="104.78" ry="18"/>
<text text-anchor="middle" x="884.09" y="-723.3" font-family="Times,serif" font-size="14.00">Drasil.Website.Body</text>
</g>
<!-- u7 -->
<g id="node2" class="node">
<title>u7</title>
<ellipse fill="#bbffbb" stroke="black" cx="139.09" cy="-404" rx="139.18" ry="18"/>
<text text-anchor="middle" x="139.09" y="-400.3" font-family="Times,serif" font-size="14.00">Drasil.Website.Introduction</text>
</g>
<!-- u8&#45;&gt;u7 -->
<g id="edge8" class="edge">
<title>u8&#45;&gt;u7</title>
<path fill="none" stroke="black" d="M847.14,-710.08C723.57,-656.84 324.67,-484.96 186.62,-425.48"/>
<polygon fill="black" stroke="black" points="187.71,-422.14 177.14,-421.4 184.94,-428.57 187.71,-422.14"/>
</g>
<!-- u6 -->
<g id="node3" class="node">
<title>u6</title>
<ellipse fill="#bbffbb" stroke="black" cx="448.09" cy="-404" rx="151.37" ry="18"/>
<text text-anchor="middle" x="448.09" y="-400.3" font-family="Times,serif" font-size="14.00">Drasil.Website.GettingStarted</text>
</g>
<!-- u8&#45;&gt;u6 -->
<g id="edge7" class="edge">
<title>u8&#45;&gt;u6</title>
<path fill="none" stroke="black" d="M861.56,-709.42C789.23,-656.16 562.69,-489.38 479.3,-427.98"/>
<polygon fill="black" stroke="black" points="481.13,-424.98 471,-421.87 476.98,-430.62 481.13,-424.98"/>
</g>
<!-- u5 -->
<g id="node4" class="node">
<title>u5</title>
<ellipse fill="#bbffbb" stroke="black" cx="749.09" cy="-404" rx="131.08" ry="18"/>
<text text-anchor="middle" x="749.09" y="-400.3" font-family="Times,serif" font-size="14.00">Drasil.Website.CaseStudy</text>
</g>
<!-- u8&#45;&gt;u5 -->
<g id="edge6" class="edge">
<title>u8&#45;&gt;u5</title>
<path fill="none" stroke="black" d="M876.83,-708.74C854.58,-655.84 787.21,-495.65 760.33,-431.74"/>
<polygon fill="black" stroke="black" points="763.48,-430.2 756.38,-422.34 757.03,-432.92 763.48,-430.2"/>
</g>
<!-- u4 -->
<g id="node5" class="node">
<title>u4</title>
<ellipse fill="#bbffbb" stroke="black" cx="1019.09" cy="-404" rx="120.48" ry="18"/>
<text text-anchor="middle" x="1019.09" y="-400.3" font-family="Times,serif" font-size="14.00">Drasil.Website.Analysis</text>
</g>
<!-- u8&#45;&gt;u4 -->
<g id="edge5" class="edge">
<title>u8&#45;&gt;u4</title>
<path fill="none" stroke="black" d="M891.35,-708.74C913.6,-655.84 980.96,-495.65 1007.84,-431.74"/>
<polygon fill="black" stroke="black" points="1011.14,-432.92 1011.79,-422.34 1004.69,-430.2 1011.14,-432.92"/>
</g>
<!-- u2 -->
<g id="node7" class="node">
<title>u2</title>
<ellipse fill="#bbffbb" stroke="black" cx="1266.09" cy="-404" rx="108.58" ry="18"/>
<text text-anchor="middle" x="1266.09" y="-400.3" font-family="Times,serif" font-size="14.00">Drasil.Website.About</text>
</g>
<!-- u8&#45;&gt;u2 -->
<g id="edge4" class="edge">
<title>u8&#45;&gt;u2</title>
<path fill="none" stroke="black" d="M904.09,-709.19C967.5,-655.91 1164.22,-490.6 1237.87,-428.71"/>
<polygon fill="black" stroke="black" points="1240.42,-431.14 1245.82,-422.03 1235.92,-425.78 1240.42,-431.14"/>
</g>
<!-- u1 -->
<g id="node8" class="node">
<title>u1</title>
<ellipse fill="#bbffbb" stroke="black" cx="1545.09" cy="-404" rx="152.17" ry="18"/>
<text text-anchor="middle" x="1545.09" y="-400.3" font-family="Times,serif" font-size="14.00">Drasil.Website.Documentation</text>
</g>
<!-- u8&#45;&gt;u1 -->
<g id="edge3" class="edge">
<title>u8&#45;&gt;u1</title>
<path fill="none" stroke="black" d="M917.32,-709.86C1027.16,-656.52 1378.55,-485.88 1501.84,-426"/>
<polygon fill="black" stroke="black" points="1503.53,-429.07 1511,-421.55 1500.47,-422.77 1503.53,-429.07"/>
</g>
<!-- u3 -->
<g id="node6" class="node">
<title>u3</title>
<ellipse fill="#bbffbb" stroke="black" cx="749.09" cy="-81" rx="122.38" ry="18"/>
<text text-anchor="middle" x="749.09" y="-77.3" font-family="Times,serif" font-size="14.00">Drasil.Website.Example</text>
</g>
<!-- u5&#45;&gt;u3 -->
<g id="edge2" class="edge">
<title>u5&#45;&gt;u3</title>
<path fill="none" stroke="black" d="M749.09,-385.74C749.09,-333.05 749.09,-173.96 749.09,-109.54"/>
<polygon fill="black" stroke="black" points="752.59,-109.34 749.09,-99.34 745.59,-109.34 752.59,-109.34"/>
</g>
<!-- u0 -->
<g id="node9" class="node">
<title>u0</title>
<ellipse fill="#ffffbb" stroke="black" cx="884.09" cy="-1051" rx="122.38" ry="18"/>
<text text-anchor="middle" x="884.09" y="-1047.3" font-family="Times,serif" font-size="14.00">drasil&#45;website.app.Main</text>
</g>
<!-- u0&#45;&gt;u8 -->
<g id="edge1" class="edge">
<title>u0&#45;&gt;u8</title>
<path fill="none" stroke="black" d="M884.09,-1032.69C884.09,-979.71 884.09,-819.5 884.09,-755.17"/>
<polygon fill="black" stroke="black" points="887.59,-755.01 884.09,-745.01 880.59,-755.01 887.59,-755.01"/>
</g>
</g>
</svg>
