<?xml version="1.0" encoding="UTF-8" standalone="no"?>
<!DOCTYPE svg PUBLIC "-//W3C//DTD SVG 1.1//EN"
 "http://www.w3.org/Graphics/SVG/1.1/DTD/svg11.dtd">
<!-- Generated by graphviz version 2.43.0 (0)
 -->
<!-- Title: G Pages: 1 -->
<svg width="432pt" height="278pt"
 viewBox="0.00 0.00 432.00 277.79" xmlns="http://www.w3.org/2000/svg" xmlns:xlink="http://www.w3.org/1999/xlink">
<g id="graph0" class="graph" transform="scale(0.14 0.14) rotate(0) translate(4 1938.67)">
<title>G</title>
<polygon fill="white" stroke="transparent" points="-4,4 -4,-1938.67 3017.09,-1938.67 3017.09,4 -4,4"/>
<!-- u9 -->
<g id="node1" class="node">
<title>u9</title>
<ellipse fill="#bbffbb" stroke="black" cx="2868.09" cy="-1896" rx="69.59" ry="18"/>
<text text-anchor="middle" x="2868.09" y="-1892.3" font-family="Times,serif" font-size="14.00">Drasil.GProc</text>
</g>
<!-- u11 -->
<g id="node12" class="node">
<title>u11</title>
<ellipse fill="#ffbbbb" stroke="black" cx="2702.09" cy="-813" rx="135.38" ry="18"/>
<text text-anchor="middle" x="2702.09" y="-809.3" font-family="Times,serif" font-size="14.00">Drasil.GProc.CodeInfoProc</text>
</g>
<!-- u9&#45;&gt;u11 -->
<g id="edge32" class="edge">
<title>u9&#45;&gt;u11</title>
<path fill="none" stroke="black" d="M2882.52,-1878.27C2919.2,-1834 3013.09,-1708.75 3013.09,-1587 3013.09,-1587 3013.09,-1587 3013.09,-1121 3013.09,-975.15 2837.71,-875.22 2750.35,-834.5"/>
<polygon fill="black" stroke="black" points="2751.71,-831.27 2741.16,-830.28 2748.79,-837.64 2751.71,-831.27"/>
</g>
<!-- u13 -->
<g id="node15" class="node">
<title>u13</title>
<ellipse fill="#bbffff" stroke="black" cx="2723.09" cy="-1741" rx="227.46" ry="18"/>
<text text-anchor="middle" x="2723.09" y="-1737.3" font-family="Times,serif" font-size="14.00">Drasil.GProc.LanguageRenderer.JuliaRenderer</text>
</g>
<!-- u9&#45;&gt;u13 -->
<g id="edge33" class="edge">
<title>u9&#45;&gt;u13</title>
<path fill="none" stroke="black" d="M2852.3,-1878.34C2826.72,-1851.35 2776.11,-1797.94 2746.39,-1766.58"/>
<polygon fill="black" stroke="black" points="2748.73,-1763.96 2739.31,-1759.11 2743.65,-1768.78 2748.73,-1763.96"/>
</g>
<!-- u0 -->
<g id="node2" class="node">
<title>u0</title>
<ellipse fill="#bbffbb" stroke="black" cx="1020.09" cy="-1741" rx="69.59" ry="18"/>
<text text-anchor="middle" x="1020.09" y="-1737.3" font-family="Times,serif" font-size="14.00">Drasil.GOOL</text>
</g>
<!-- u1 -->
<g id="node5" class="node">
<title>u1</title>
<ellipse fill="#ffffbb" stroke="black" cx="239.09" cy="-1277" rx="128.08" ry="18"/>
<text text-anchor="middle" x="239.09" y="-1273.3" font-family="Times,serif" font-size="14.00">Drasil.GOOL.CodeInfoOO</text>
</g>
<!-- u0&#45;&gt;u1 -->
<g id="edge1" class="edge">
<title>u0&#45;&gt;u1</title>
<path fill="none" stroke="black" d="M953.04,-1735.88C739.47,-1722.06 85.45,-1674.31 24.09,-1604 -66.67,-1500.01 122.89,-1355.25 204.32,-1300.33"/>
<polygon fill="black" stroke="black" points="206.4,-1303.15 212.78,-1294.69 202.52,-1297.33 206.4,-1303.15"/>
</g>
<!-- u6 -->
<g id="node6" class="node">
<title>u6</title>
<ellipse fill="#bbbbff" stroke="black" cx="2257.09" cy="-1586" rx="224.76" ry="18"/>
<text text-anchor="middle" x="2257.09" y="-1582.3" font-family="Times,serif" font-size="14.00">Drasil.GOOL.LanguageRenderer.CppRenderer</text>
</g>
<!-- u0&#45;&gt;u6 -->
<g id="edge6" class="edge">
<title>u0&#45;&gt;u6</title>
<path fill="none" stroke="black" d="M1081.43,-1732.41C1273.84,-1708.61 1868.2,-1635.1 2130.49,-1602.66"/>
<polygon fill="black" stroke="black" points="2130.95,-1606.13 2140.44,-1601.43 2130.09,-1599.18 2130.95,-1606.13"/>
</g>
<!-- u5 -->
<g id="node7" class="node">
<title>u5</title>
<ellipse fill="#bbbbff" stroke="black" cx="1265.09" cy="-1586" rx="241.26" ry="18"/>
<text text-anchor="middle" x="1265.09" y="-1582.3" font-family="Times,serif" font-size="14.00">Drasil.GOOL.LanguageRenderer.CSharpRenderer</text>
</g>
<!-- u0&#45;&gt;u5 -->
<g id="edge5" class="edge">
<title>u0&#45;&gt;u5</title>
<path fill="none" stroke="black" d="M1045.39,-1724.2C1089.1,-1696.9 1178.9,-1640.83 1229.1,-1609.48"/>
<polygon fill="black" stroke="black" points="1231.07,-1612.37 1237.7,-1604.11 1227.36,-1606.44 1231.07,-1612.37"/>
</g>
<!-- u4 -->
<g id="node8" class="node">
<title>u4</title>
<ellipse fill="#bbbbff" stroke="black" cx="287.09" cy="-1586" rx="239.36" ry="18"/>
<text text-anchor="middle" x="287.09" y="-1582.3" font-family="Times,serif" font-size="14.00">Drasil.GOOL.LanguageRenderer.PythonRenderer</text>
</g>
<!-- u0&#45;&gt;u4 -->
<g id="edge4" class="edge">
<title>u0&#45;&gt;u4</title>
<path fill="none" stroke="black" d="M967.67,-1729.06C842.94,-1703.02 527.51,-1637.18 373.87,-1605.11"/>
<polygon fill="black" stroke="black" points="374.49,-1601.67 363.98,-1603.05 373.06,-1608.52 374.49,-1601.67"/>
</g>
<!-- u3 -->
<g id="node9" class="node">
<title>u3</title>
<ellipse fill="#bbbbff" stroke="black" cx="1750.09" cy="-1586" rx="225.56" ry="18"/>
<text text-anchor="middle" x="1750.09" y="-1582.3" font-family="Times,serif" font-size="14.00">Drasil.GOOL.LanguageRenderer.JavaRenderer</text>
</g>
<!-- u0&#45;&gt;u3 -->
<g id="edge3" class="edge">
<title>u0&#45;&gt;u3</title>
<path fill="none" stroke="black" d="M1072.3,-1729.06C1196.59,-1703.01 1511.06,-1637.1 1663.96,-1605.05"/>
<polygon fill="black" stroke="black" points="1664.73,-1608.47 1673.8,-1602.99 1663.29,-1601.62 1664.73,-1608.47"/>
</g>
<!-- u2 -->
<g id="node10" class="node">
<title>u2</title>
<ellipse fill="#bbbbff" stroke="black" cx="775.09" cy="-1586" rx="230.96" ry="18"/>
<text text-anchor="middle" x="775.09" y="-1582.3" font-family="Times,serif" font-size="14.00">Drasil.GOOL.LanguageRenderer.SwiftRenderer</text>
</g>
<!-- u0&#45;&gt;u2 -->
<g id="edge2" class="edge">
<title>u0&#45;&gt;u2</title>
<path fill="none" stroke="black" d="M994.79,-1724.2C951.08,-1696.9 861.28,-1640.83 811.08,-1609.48"/>
<polygon fill="black" stroke="black" points="812.82,-1606.44 802.48,-1604.11 809.11,-1612.37 812.82,-1606.44"/>
</g>
<!-- u8 -->
<g id="node3" class="node">
<title>u8</title>
<ellipse fill="#ffffbb" stroke="black" cx="1749.09" cy="-813" rx="165.17" ry="18"/>
<text text-anchor="middle" x="1749.09" y="-809.3" font-family="Times,serif" font-size="14.00">Drasil.GOOL.RendererClassesOO</text>
</g>
<!-- u7 -->
<g id="node4" class="node">
<title>u7</title>
<ellipse fill="#ffffbb" stroke="black" cx="1749.09" cy="-658" rx="141.88" ry="18"/>
<text text-anchor="middle" x="1749.09" y="-654.3" font-family="Times,serif" font-size="14.00">Drasil.GOOL.InterfaceGOOL</text>
</g>
<!-- u8&#45;&gt;u7 -->
<g id="edge30" class="edge">
<title>u8&#45;&gt;u7</title>
<path fill="none" stroke="black" d="M1749.09,-794.75C1749.09,-768.46 1749.09,-718.13 1749.09,-686.69"/>
<polygon fill="black" stroke="black" points="1752.59,-686.43 1749.09,-676.43 1745.59,-686.43 1752.59,-686.43"/>
</g>
<!-- u29 -->
<g id="node16" class="node">
<title>u29</title>
<ellipse fill="#ffbbff" stroke="black" cx="2106.09" cy="-658" rx="196.87" ry="18"/>
<text text-anchor="middle" x="2106.09" y="-654.3" font-family="Times,serif" font-size="14.00">Drasil.Shared.RendererClassesCommon</text>
</g>
<!-- u8&#45;&gt;u29 -->
<g id="edge31" class="edge">
<title>u8&#45;&gt;u29</title>
<path fill="none" stroke="black" d="M1787.63,-795.48C1853.2,-767.38 1986.29,-710.34 2057.9,-679.65"/>
<polygon fill="black" stroke="black" points="2059.35,-682.84 2067.17,-675.68 2056.6,-676.4 2059.35,-682.84"/>
</g>
<!-- u23 -->
<g id="node22" class="node">
<title>u23</title>
<ellipse fill="#ffbbff" stroke="black" cx="2106.09" cy="-503" rx="160.57" ry="18"/>
<text text-anchor="middle" x="2106.09" y="-499.3" font-family="Times,serif" font-size="14.00">Drasil.Shared.InterfaceCommon</text>
</g>
<!-- u7&#45;&gt;u23 -->
<g id="edge29" class="edge">
<title>u7&#45;&gt;u23</title>
<path fill="none" stroke="black" d="M1787.3,-640.63C1852.88,-612.52 1986.74,-555.15 2058.36,-524.46"/>
<polygon fill="black" stroke="black" points="2059.81,-527.64 2067.62,-520.49 2057.05,-521.21 2059.81,-527.64"/>
</g>
<!-- u22 -->
<g id="node23" class="node">
<title>u22</title>
<ellipse fill="#ffbbff" stroke="black" cx="2441.09" cy="-503" rx="114.28" ry="18"/>
<text text-anchor="middle" x="2441.09" y="-499.3" font-family="Times,serif" font-size="14.00">Drasil.Shared.Helpers</text>
</g>
<!-- u7&#45;&gt;u22 -->
<g id="edge28" class="edge">
<title>u7&#45;&gt;u22</title>
<path fill="none" stroke="black" d="M1816.39,-642.12C1946.77,-613.29 2232.83,-550.05 2367.82,-520.2"/>
<polygon fill="black" stroke="black" points="2368.66,-523.6 2377.67,-518.02 2367.15,-516.76 2368.66,-523.6"/>
</g>
<!-- u1&#45;&gt;u7 -->
<g id="edge7" class="edge">
<title>u1&#45;&gt;u7</title>
<path fill="none" stroke="black" d="M278.7,-1259.81C488.35,-1174.15 1467.55,-774.04 1699.66,-679.2"/>
<polygon fill="black" stroke="black" points="1701.26,-682.32 1709.19,-675.3 1698.61,-675.84 1701.26,-682.32"/>
</g>
<!-- u24 -->
<g id="node21" class="node">
<title>u24</title>
<ellipse fill="#ffbbff" stroke="black" cx="2543.09" cy="-1432" rx="112.38" ry="18"/>
<text text-anchor="middle" x="2543.09" y="-1428.3" font-family="Times,serif" font-size="14.00">Drasil.Shared.Classes</text>
</g>
<!-- u6&#45;&gt;u24 -->
<g id="edge27" class="edge">
<title>u6&#45;&gt;u24</title>
<path fill="none" stroke="black" d="M2288.79,-1568.15C2341.14,-1540.33 2445.58,-1484.83 2502.98,-1454.31"/>
<polygon fill="black" stroke="black" points="2504.93,-1457.24 2512.12,-1449.46 2501.64,-1451.06 2504.93,-1457.24"/>
</g>
<!-- u20 -->
<g id="node25" class="node">
<title>u20</title>
<ellipse fill="#77ff77" stroke="black" cx="1749.09" cy="-1432" rx="256.95" ry="18"/>
<text text-anchor="middle" x="1749.09" y="-1428.3" font-family="Times,serif" font-size="14.00">Drasil.Shared.LanguageRenderer.CommonPseudoOO</text>
</g>
<!-- u6&#45;&gt;u20 -->
<g id="edge26" class="edge">
<title>u6&#45;&gt;u20</title>
<path fill="none" stroke="black" d="M2201.76,-1568.44C2107.31,-1540.18 1915.44,-1482.77 1814.51,-1452.58"/>
<polygon fill="black" stroke="black" points="1815.32,-1449.16 1804.74,-1449.65 1813.32,-1455.87 1815.32,-1449.16"/>
</g>
<!-- u19 -->
<g id="node26" class="node">
<title>u19</title>
<ellipse fill="#77ff77" stroke="black" cx="2218.09" cy="-1432" rx="194.17" ry="18"/>
<text text-anchor="middle" x="2218.09" y="-1428.3" font-family="Times,serif" font-size="14.00">Drasil.Shared.LanguageRenderer.CLike</text>
</g>
<!-- u6&#45;&gt;u19 -->
<g id="edge25" class="edge">
<title>u6&#45;&gt;u19</title>
<path fill="none" stroke="black" d="M2252.69,-1567.86C2245.96,-1541.63 2233.05,-1491.31 2225.04,-1460.1"/>
<polygon fill="black" stroke="black" points="2228.41,-1459.13 2222.53,-1450.31 2221.63,-1460.87 2228.41,-1459.13"/>
</g>
<!-- u18 -->
<g id="node27" class="node">
<title>u18</title>
<ellipse fill="#77ff77" stroke="black" cx="836.09" cy="-1432" rx="202.26" ry="18"/>
<text text-anchor="middle" x="836.09" y="-1428.3" font-family="Times,serif" font-size="14.00">Drasil.Shared.LanguageRenderer.Macros</text>
</g>
<!-- u6&#45;&gt;u18 -->
<g id="edge24" class="edge">
<title>u6&#45;&gt;u18</title>
<path fill="none" stroke="black" d="M2128.17,-1571.21C1859.64,-1542.49 1242.73,-1476.5 969.97,-1447.32"/>
<polygon fill="black" stroke="black" points="970.33,-1443.84 960.02,-1446.26 969.59,-1450.8 970.33,-1443.84"/>
</g>
<!-- u16 -->
<g id="node29" class="node">
<title>u16</title>
<ellipse fill="#77ff77" stroke="black" cx="1265.09" cy="-1432" rx="209.06" ry="18"/>
<text text-anchor="middle" x="1265.09" y="-1428.3" font-family="Times,serif" font-size="14.00">Drasil.Shared.LanguageRenderer.Common</text>
</g>
<!-- u6&#45;&gt;u16 -->
<g id="edge23" class="edge">
<title>u6&#45;&gt;u16</title>
<path fill="none" stroke="black" d="M2157.89,-1569.8C1970.51,-1541.09 1566.02,-1479.11 1372.49,-1449.46"/>
<polygon fill="black" stroke="black" points="1373.01,-1445.99 1362.59,-1447.94 1371.95,-1452.91 1373.01,-1445.99"/>
</g>
<!-- u5&#45;&gt;u20 -->
<g id="edge22" class="edge">
<title>u5&#45;&gt;u20</title>
<path fill="none" stroke="black" d="M1318.27,-1568.3C1408.25,-1540.04 1590.09,-1482.93 1686.23,-1452.74"/>
<polygon fill="black" stroke="black" points="1687.33,-1456.06 1695.82,-1449.73 1685.23,-1449.39 1687.33,-1456.06"/>
</g>
<!-- u5&#45;&gt;u19 -->
<g id="edge21" class="edge">
<title>u5&#45;&gt;u19</title>
<path fill="none" stroke="black" d="M1362.16,-1569.52C1543.02,-1540.67 1929.97,-1478.95 2115.18,-1449.41"/>
<polygon fill="black" stroke="black" points="2115.87,-1452.85 2125.19,-1447.82 2114.77,-1445.94 2115.87,-1452.85"/>
</g>
<!-- u5&#45;&gt;u18 -->
<g id="edge20" class="edge">
<title>u5&#45;&gt;u18</title>
<path fill="none" stroke="black" d="M1217.95,-1568.3C1138.42,-1540.12 977.9,-1483.24 892.51,-1452.99"/>
<polygon fill="black" stroke="black" points="893.57,-1449.65 882.98,-1449.61 891.24,-1456.25 893.57,-1449.65"/>
</g>
<!-- u5&#45;&gt;u16 -->
<g id="edge19" class="edge">
<title>u5&#45;&gt;u16</title>
<path fill="none" stroke="black" d="M1265.09,-1567.86C1265.09,-1541.75 1265.09,-1491.74 1265.09,-1460.51"/>
<polygon fill="black" stroke="black" points="1268.59,-1460.31 1265.09,-1450.31 1261.59,-1460.31 1268.59,-1460.31"/>
</g>
<!-- u4&#45;&gt;u20 -->
<g id="edge18" class="edge">
<title>u4&#45;&gt;u20</title>
<path fill="none" stroke="black" d="M421.03,-1571.07C695.01,-1542.59 1317.55,-1477.87 1602.16,-1448.28"/>
<polygon fill="black" stroke="black" points="1602.56,-1451.75 1612.14,-1447.24 1601.83,-1444.79 1602.56,-1451.75"/>
</g>
<!-- u4&#45;&gt;u18 -->
<g id="edge17" class="edge">
<title>u4&#45;&gt;u18</title>
<path fill="none" stroke="black" d="M346.63,-1568.52C449.18,-1540.12 658.6,-1482.14 767.26,-1452.06"/>
<polygon fill="black" stroke="black" points="768.43,-1455.37 777.13,-1449.32 766.56,-1448.62 768.43,-1455.37"/>
</g>
<!-- u4&#45;&gt;u16 -->
<g id="edge16" class="edge">
<title>u4&#45;&gt;u16</title>
<path fill="none" stroke="black" d="M386.25,-1569.59C571.36,-1540.82 967.96,-1479.18 1158.54,-1449.56"/>
<polygon fill="black" stroke="black" points="1159.23,-1453 1168.57,-1448 1158.15,-1446.08 1159.23,-1453"/>
</g>
<!-- u3&#45;&gt;u20 -->
<g id="edge15" class="edge">
<title>u3&#45;&gt;u20</title>
<path fill="none" stroke="black" d="M1749.98,-1567.86C1749.81,-1541.75 1749.48,-1491.74 1749.27,-1460.51"/>
<polygon fill="black" stroke="black" points="1752.77,-1460.29 1749.2,-1450.31 1745.77,-1460.33 1752.77,-1460.29"/>
</g>
<!-- u3&#45;&gt;u19 -->
<g id="edge14" class="edge">
<title>u3&#45;&gt;u19</title>
<path fill="none" stroke="black" d="M1801.07,-1568.44C1888.13,-1540.17 2065.05,-1482.7 2157.99,-1452.52"/>
<polygon fill="black" stroke="black" points="2159.1,-1455.84 2167.53,-1449.42 2156.94,-1449.18 2159.1,-1455.84"/>
</g>
<!-- u3&#45;&gt;u18 -->
<g id="edge13" class="edge">
<title>u3&#45;&gt;u18</title>
<path fill="none" stroke="black" d="M1657.42,-1569.59C1484.82,-1540.89 1115.47,-1479.46 936.89,-1449.76"/>
<polygon fill="black" stroke="black" points="937.41,-1446.3 926.97,-1448.11 936.26,-1453.21 937.41,-1446.3"/>
</g>
<!-- u3&#45;&gt;u16 -->
<g id="edge12" class="edge">
<title>u3&#45;&gt;u16</title>
<path fill="none" stroke="black" d="M1697.26,-1568.44C1607.07,-1540.18 1423.8,-1482.74 1327.46,-1452.55"/>
<polygon fill="black" stroke="black" points="1328.44,-1449.19 1317.85,-1449.54 1326.35,-1455.87 1328.44,-1449.19"/>
</g>
<!-- u2&#45;&gt;u20 -->
<g id="edge11" class="edge">
<title>u2&#45;&gt;u20</title>
<path fill="none" stroke="black" d="M873.39,-1569.66C1056.32,-1541.11 1447.76,-1480.02 1639.16,-1450.16"/>
<polygon fill="black" stroke="black" points="1639.9,-1453.58 1649.24,-1448.58 1638.82,-1446.67 1639.9,-1453.58"/>
</g>
<!-- u2&#45;&gt;u19 -->
<g id="edge10" class="edge">
<title>u2&#45;&gt;u19</title>
<path fill="none" stroke="black" d="M906.33,-1571.18C1180.16,-1542.33 1809.71,-1476.02 2085.07,-1447.01"/>
<polygon fill="black" stroke="black" points="2085.54,-1450.48 2095.12,-1445.95 2084.8,-1443.52 2085.54,-1450.48"/>
</g>
<!-- u2&#45;&gt;u18 -->
<g id="edge9" class="edge">
<title>u2&#45;&gt;u18</title>
<path fill="none" stroke="black" d="M781.97,-1567.86C792.54,-1541.52 812.87,-1490.87 825.38,-1459.69"/>
<polygon fill="black" stroke="black" points="828.67,-1460.9 829.14,-1450.31 822.17,-1458.29 828.67,-1460.9"/>
</g>
<!-- u2&#45;&gt;u16 -->
<g id="edge8" class="edge">
<title>u2&#45;&gt;u16</title>
<path fill="none" stroke="black" d="M828.46,-1568.44C919.71,-1540.14 1105.23,-1482.59 1202.46,-1452.43"/>
<polygon fill="black" stroke="black" points="1203.64,-1455.73 1212.16,-1449.42 1201.57,-1449.04 1203.64,-1455.73"/>
</g>
<!-- u12 -->
<g id="node11" class="node">
<title>u12</title>
<ellipse fill="#ffbbbb" stroke="black" cx="2377.09" cy="-813" rx="172.47" ry="18"/>
<text text-anchor="middle" x="2377.09" y="-809.3" font-family="Times,serif" font-size="14.00">Drasil.GProc.RendererClassesProc</text>
</g>
<!-- u10 -->
<g id="node13" class="node">
<title>u10</title>
<ellipse fill="#ffbbbb" stroke="black" cx="2457.09" cy="-658" rx="135.68" ry="18"/>
<text text-anchor="middle" x="2457.09" y="-654.3" font-family="Times,serif" font-size="14.00">Drasil.GProc.InterfaceProc</text>
</g>
<!-- u12&#45;&gt;u10 -->
<g id="edge37" class="edge">
<title>u12&#45;&gt;u10</title>
<path fill="none" stroke="black" d="M2386.11,-794.75C2400.04,-768.12 2426.86,-716.81 2443.25,-685.46"/>
<polygon fill="black" stroke="black" points="2446.45,-686.91 2447.98,-676.43 2440.24,-683.67 2446.45,-686.91"/>
</g>
<!-- u12&#45;&gt;u29 -->
<g id="edge38" class="edge">
<title>u12&#45;&gt;u29</title>
<path fill="none" stroke="black" d="M2347.31,-795.19C2298.05,-767.38 2199.62,-711.8 2144.95,-680.94"/>
<polygon fill="black" stroke="black" points="2146.35,-677.71 2135.92,-675.84 2142.9,-683.8 2146.35,-677.71"/>
</g>
<!-- u11&#45;&gt;u10 -->
<g id="edge35" class="edge">
<title>u11&#45;&gt;u10</title>
<path fill="none" stroke="black" d="M2675.4,-795.34C2631.06,-767.64 2542.19,-712.15 2492.6,-681.18"/>
<polygon fill="black" stroke="black" points="2494.45,-678.21 2484.12,-675.88 2490.74,-684.14 2494.45,-678.21"/>
</g>
<!-- u11&#45;&gt;u22 -->
<g id="edge36" class="edge">
<title>u11&#45;&gt;u22</title>
<path fill="none" stroke="black" d="M2694.46,-794.65C2679.65,-762.15 2644.71,-690.81 2602.09,-640 2563.72,-594.26 2508.85,-551.58 2474.11,-526.64"/>
<polygon fill="black" stroke="black" points="2475.91,-523.62 2465.73,-520.69 2471.86,-529.33 2475.91,-523.62"/>
</g>
<!-- u10&#45;&gt;u23 -->
<g id="edge34" class="edge">
<title>u10&#45;&gt;u23</title>
<path fill="none" stroke="black" d="M2419.53,-640.63C2355.26,-612.61 2224.32,-555.53 2153.73,-524.76"/>
<polygon fill="black" stroke="black" points="2154.75,-521.39 2144.18,-520.6 2151.95,-527.81 2154.75,-521.39"/>
</g>
<!-- u14 -->
<g id="node14" class="node">
<title>u14</title>
<ellipse fill="#bbffff" stroke="black" cx="2723.09" cy="-1586" rx="223.66" ry="18"/>
<text text-anchor="middle" x="2723.09" y="-1582.3" font-family="Times,serif" font-size="14.00">Drasil.GProc.LanguageRenderer.AbstractProc</text>
</g>
<!-- u14&#45;&gt;u12 -->
<g id="edge43" class="edge">
<title>u14&#45;&gt;u12</title>
<path fill="none" stroke="black" d="M2721.17,-1567.72C2716.17,-1521.05 2703.09,-1388.56 2703.09,-1278 2703.09,-1278 2703.09,-1278 2703.09,-1121 2703.09,-972.52 2521.64,-874.71 2429.48,-834.61"/>
<polygon fill="black" stroke="black" points="2430.61,-831.29 2420.04,-830.57 2427.86,-837.73 2430.61,-831.29"/>
</g>
<!-- u14&#45;&gt;u20 -->
<g id="edge44" class="edge">
<title>u14&#45;&gt;u20</title>
<path fill="none" stroke="black" d="M2625.24,-1569.73C2442.54,-1541.22 2050.74,-1480.07 1859.15,-1450.17"/>
<polygon fill="black" stroke="black" points="1859.48,-1446.68 1849.06,-1448.6 1858.4,-1453.6 1859.48,-1446.68"/>
</g>
<!-- u13&#45;&gt;u14 -->
<g id="edge39" class="edge">
<title>u13&#45;&gt;u14</title>
<path fill="none" stroke="black" d="M2723.09,-1722.75C2723.09,-1696.46 2723.09,-1646.13 2723.09,-1614.69"/>
<polygon fill="black" stroke="black" points="2726.59,-1614.43 2723.09,-1604.43 2719.59,-1614.43 2726.59,-1614.43"/>
</g>
<!-- u13&#45;&gt;u19 -->
<g id="edge42" class="edge">
<title>u13&#45;&gt;u19</title>
<path fill="none" stroke="black" d="M2782.43,-1723.59C2869.44,-1696.67 3015.25,-1638.96 2956.09,-1568 2917.41,-1521.61 2547.32,-1471.57 2346.39,-1447.52"/>
<polygon fill="black" stroke="black" points="2346.71,-1444.04 2336.36,-1446.33 2345.88,-1450.99 2346.71,-1444.04"/>
</g>
<!-- u13&#45;&gt;u18 -->
<g id="edge41" class="edge">
<title>u13&#45;&gt;u18</title>
<path fill="none" stroke="black" d="M2501.31,-1736.99C1873.43,-1727.38 123.42,-1692.71 39.09,-1604 -50.81,-1509.43 402.38,-1462.37 662.88,-1443.45"/>
<polygon fill="black" stroke="black" points="663.49,-1446.92 673.22,-1442.71 662.99,-1439.93 663.49,-1446.92"/>
</g>
<!-- u13&#45;&gt;u16 -->
<g id="edge40" class="edge">
<title>u13&#45;&gt;u16</title>
<path fill="none" stroke="black" d="M2529.4,-1731.51C2383.28,-1718.39 2181.62,-1685.55 2023.09,-1604 2002.4,-1593.36 2005.81,-1578.57 1985.09,-1568 1883.57,-1516.19 1571.26,-1470.75 1393.1,-1448.16"/>
<polygon fill="black" stroke="black" points="1393.5,-1444.68 1383.14,-1446.9 1392.62,-1451.63 1393.5,-1444.68"/>
</g>
<!-- u29&#45;&gt;u23 -->
<g id="edge57" class="edge">
<title>u29&#45;&gt;u23</title>
<path fill="none" stroke="black" d="M2106.09,-639.75C2106.09,-613.46 2106.09,-563.13 2106.09,-531.69"/>
<polygon fill="black" stroke="black" points="2109.59,-531.43 2106.09,-521.43 2102.59,-531.43 2109.59,-531.43"/>
</g>
<!-- u28 -->
<g id="node17" class="node">
<title>u28</title>
<ellipse fill="#ffbbff" stroke="black" cx="1749.09" cy="-967" rx="166.27" ry="18"/>
<text text-anchor="middle" x="1749.09" y="-963.3" font-family="Times,serif" font-size="14.00">Drasil.Shared.LanguageRenderer</text>
</g>
<!-- u28&#45;&gt;u8 -->
<g id="edge56" class="edge">
<title>u28&#45;&gt;u8</title>
<path fill="none" stroke="black" d="M1749.09,-948.86C1749.09,-922.75 1749.09,-872.74 1749.09,-841.51"/>
<polygon fill="black" stroke="black" points="1752.59,-841.31 1749.09,-831.31 1745.59,-841.31 1752.59,-841.31"/>
</g>
<!-- u27 -->
<g id="node18" class="node">
<title>u27</title>
<ellipse fill="#ffbbff" stroke="black" cx="2063.09" cy="-193" rx="139.98" ry="18"/>
<text text-anchor="middle" x="2063.09" y="-189.3" font-family="Times,serif" font-size="14.00">Drasil.Shared.CodeAnalysis</text>
</g>
<!-- u26 -->
<g id="node19" class="node">
<title>u26</title>
<ellipse fill="#ffbbff" stroke="black" cx="2317.09" cy="-193" rx="96.38" ry="18"/>
<text text-anchor="middle" x="2317.09" y="-189.3" font-family="Times,serif" font-size="14.00">Drasil.Shared.AST</text>
</g>
<!-- u21 -->
<g id="node24" class="node">
<title>u21</title>
<ellipse fill="#ffbbff" stroke="black" cx="2379.09" cy="-39" rx="123.48" ry="18"/>
<text text-anchor="middle" x="2379.09" y="-35.3" font-family="Times,serif" font-size="14.00">Drasil.Shared.CodeType</text>
</g>
<!-- u26&#45;&gt;u21 -->
<g id="edge55" class="edge">
<title>u26&#45;&gt;u21</title>
<path fill="none" stroke="black" d="M2324.08,-174.86C2334.83,-148.52 2355.49,-97.87 2368.2,-66.69"/>
<polygon fill="black" stroke="black" points="2371.49,-67.89 2372.03,-57.31 2365.01,-65.25 2371.49,-67.89"/>
</g>
<!-- u25 -->
<g id="node20" class="node">
<title>u25</title>
<ellipse fill="#ffbbff" stroke="black" cx="2106.09" cy="-348" rx="102.88" ry="18"/>
<text text-anchor="middle" x="2106.09" y="-344.3" font-family="Times,serif" font-size="14.00">Drasil.Shared.State</text>
</g>
<!-- u25&#45;&gt;u27 -->
<g id="edge54" class="edge">
<title>u25&#45;&gt;u27</title>
<path fill="none" stroke="black" d="M2101.24,-329.75C2093.82,-303.35 2079.58,-252.69 2070.76,-221.28"/>
<polygon fill="black" stroke="black" points="2074.06,-220.11 2067.99,-211.43 2067.32,-222 2074.06,-220.11"/>
</g>
<!-- u25&#45;&gt;u26 -->
<g id="edge53" class="edge">
<title>u25&#45;&gt;u26</title>
<path fill="none" stroke="black" d="M2129.07,-330.34C2167.04,-302.8 2242.93,-247.77 2285.78,-216.71"/>
<polygon fill="black" stroke="black" points="2288.1,-219.35 2294.14,-210.64 2283.99,-213.68 2288.1,-219.35"/>
</g>
<!-- u23&#45;&gt;u25 -->
<g id="edge52" class="edge">
<title>u23&#45;&gt;u25</title>
<path fill="none" stroke="black" d="M2106.09,-484.75C2106.09,-458.46 2106.09,-408.13 2106.09,-376.69"/>
<polygon fill="black" stroke="black" points="2109.59,-376.43 2106.09,-366.43 2102.59,-376.43 2109.59,-376.43"/>
</g>
<!-- u22&#45;&gt;u21 -->
<g id="edge51" class="edge">
<title>u22&#45;&gt;u21</title>
<path fill="none" stroke="black" d="M2441.59,-484.8C2442.7,-435.86 2443.74,-291.86 2422.09,-175 2414.94,-136.4 2399.99,-93.45 2389.75,-66.59"/>
<polygon fill="black" stroke="black" points="2392.95,-65.18 2386.08,-57.12 2386.43,-67.71 2392.95,-65.18"/>
</g>
<!-- u17 -->
<g id="node28" class="node">
<title>u17</title>
<ellipse fill="#77ff77" stroke="black" cx="1749.09" cy="-1277" rx="271.05" ry="18"/>
<text text-anchor="middle" x="1749.09" y="-1273.3" font-family="Times,serif" font-size="14.00">Drasil.Shared.LanguageRenderer.LanguagePolymorphic</text>
</g>
<!-- u20&#45;&gt;u17 -->
<g id="edge50" class="edge">
<title>u20&#45;&gt;u17</title>
<path fill="none" stroke="black" d="M1749.09,-1413.75C1749.09,-1387.46 1749.09,-1337.13 1749.09,-1305.69"/>
<polygon fill="black" stroke="black" points="1752.59,-1305.43 1749.09,-1295.43 1745.59,-1305.43 1752.59,-1305.43"/>
</g>
<!-- u15 -->
<g id="node30" class="node">
<title>u15</title>
<ellipse fill="#77ff77" stroke="black" cx="1749.09" cy="-1122" rx="228.56" ry="18"/>
<text text-anchor="middle" x="1749.09" y="-1118.3" font-family="Times,serif" font-size="14.00">Drasil.Shared.LanguageRenderer.Constructors</text>
</g>
<!-- u19&#45;&gt;u15 -->
<g id="edge49" class="edge">
<title>u19&#45;&gt;u15</title>
<path fill="none" stroke="black" d="M2202.51,-1413.86C2171.78,-1380.77 2100.17,-1307.14 2029.09,-1259 1955.34,-1209.05 1860.48,-1167.05 1802.28,-1143.46"/>
<polygon fill="black" stroke="black" points="1803.49,-1140.17 1792.91,-1139.69 1800.88,-1146.67 1803.49,-1140.17"/>
</g>
<!-- u18&#45;&gt;u8 -->
<g id="edge48" class="edge">
<title>u18&#45;&gt;u8</title>
<path fill="none" stroke="black" d="M861.46,-1413.85C989.96,-1327.02 1568.53,-936.02 1715.2,-836.9"/>
<polygon fill="black" stroke="black" points="1717.52,-839.56 1723.84,-831.06 1713.6,-833.76 1717.52,-839.56"/>
</g>
<!-- u17&#45;&gt;u15 -->
<g id="edge47" class="edge">
<title>u17&#45;&gt;u15</title>
<path fill="none" stroke="black" d="M1749.09,-1258.75C1749.09,-1232.46 1749.09,-1182.13 1749.09,-1150.69"/>
<polygon fill="black" stroke="black" points="1752.59,-1150.43 1749.09,-1140.43 1745.59,-1150.43 1752.59,-1150.43"/>
</g>
<!-- u16&#45;&gt;u15 -->
<g id="edge46" class="edge">
<title>u16&#45;&gt;u15</title>
<path fill="none" stroke="black" d="M1282.19,-1413.98C1315.84,-1381.12 1393.93,-1307.85 1469.09,-1259 1544.21,-1210.18 1639.45,-1167.56 1697.25,-1143.58"/>
<polygon fill="black" stroke="black" points="1698.64,-1146.8 1706.55,-1139.75 1695.97,-1140.32 1698.64,-1146.8"/>
</g>
<!-- u15&#45;&gt;u28 -->
<g id="edge45" class="edge">
<title>u15&#45;&gt;u28</title>
<path fill="none" stroke="black" d="M1749.09,-1103.75C1749.09,-1077.46 1749.09,-1027.13 1749.09,-995.69"/>
<polygon fill="black" stroke="black" points="1752.59,-995.43 1749.09,-985.43 1745.59,-995.43 1752.59,-995.43"/>
</g>
</g>
</svg>
