<?xml version="1.0" encoding="UTF-8" standalone="no"?>
<!DOCTYPE svg PUBLIC "-//W3C//DTD SVG 1.1//EN"
 "http://www.w3.org/Graphics/SVG/1.1/DTD/svg11.dtd">
<!-- Generated by graphviz version 2.43.0 (0)
 -->
<!-- Title: G Pages: 1 -->
<svg width="432pt" height="283pt"
 viewBox="0.00 0.00 432.00 282.91" xmlns="http://www.w3.org/2000/svg" xmlns:xlink="http://www.w3.org/1999/xlink">
<g id="graph0" class="graph" transform="scale(0.06 0.06) rotate(0) translate(4 4779.33)">
<title>G</title>
<polygon fill="white" stroke="transparent" points="-4,4 -4,-4779.33 7300,-4779.33 7300,4 -4,4"/>
<!-- u4 -->
<g id="node1" class="node">
<title>u4</title>
<ellipse fill="#bbffbb" stroke="black" cx="1684" cy="-4390" rx="62.29" ry="18"/>
<text text-anchor="middle" x="1684" y="-4386.3" font-family="Times,serif" font-size="14.00">HelloWorld</text>
</g>
<!-- u1 -->
<g id="node4" class="node">
<title>u1</title>
<ellipse fill="#bbffbb" stroke="black" cx="1684" cy="-4082" rx="42.49" ry="18"/>
<text text-anchor="middle" x="1684" y="-4078.3" font-family="Times,serif" font-size="14.00">Helper</text>
</g>
<!-- u4&#45;&gt;u1 -->
<g id="edge1" class="edge">
<title>u4&#45;&gt;u1</title>
<path fill="none" stroke="black" d="M1684,-4371.67C1684,-4320.86 1684,-4171.97 1684,-4110.27"/>
<polygon fill="black" stroke="black" points="1687.5,-4110.14 1684,-4100.14 1680.5,-4110.14 1687.5,-4110.14"/>
</g>
<!-- u3 -->
<g id="node2" class="node">
<title>u3</title>
<ellipse fill="#bbffbb" stroke="black" cx="1824" cy="-4390" rx="59.59" ry="18"/>
<text text-anchor="middle" x="1824" y="-4386.3" font-family="Times,serif" font-size="14.00">VectorTest</text>
</g>
<!-- u2 -->
<g id="node3" class="node">
<title>u2</title>
<ellipse fill="#bbffbb" stroke="black" cx="1978" cy="-4390" rx="76.09" ry="18"/>
<text text-anchor="middle" x="1978" y="-4386.3" font-family="Times,serif" font-size="14.00">NameGenTest</text>
</g>
<!-- u0 -->
<g id="node5" class="node">
<title>u0</title>
<ellipse fill="#bbffbb" stroke="black" cx="2125" cy="-4390" rx="52.79" ry="18"/>
<text text-anchor="middle" x="2125" y="-4386.3" font-family="Times,serif" font-size="14.00">FileTests</text>
</g>
<!-- u8 -->
<g id="node6" class="node">
<title>u8</title>
<ellipse fill="#ffffbb" stroke="black" cx="6103" cy="-1926" rx="214.46" ry="18"/>
<text text-anchor="middle" x="6103" y="-1922.3" font-family="Times,serif" font-size="14.00">Data.Drasil.ExternalLibraries.ODELibraries</text>
</g>
<!-- u9 -->
<g id="node61" class="node">
<title>u9</title>
<ellipse fill="#33ff33" stroke="black" cx="5521" cy="-1617" rx="172.77" ry="18"/>
<text text-anchor="middle" x="5521" y="-1613.3" font-family="Times,serif" font-size="14.00">Language.Drasil.Data.ODELibPckg</text>
</g>
<!-- u8&#45;&gt;u9 -->
<g id="edge10" class="edge">
<title>u8&#45;&gt;u9</title>
<path fill="none" stroke="black" d="M6070.88,-1908.06C5971.89,-1855.84 5671.58,-1697.43 5561.77,-1639.51"/>
<polygon fill="black" stroke="black" points="5563.14,-1636.27 5552.66,-1634.7 5559.88,-1642.46 5563.14,-1636.27"/>
</g>
<!-- u7 -->
<g id="node7" class="node">
<title>u7</title>
<ellipse fill="#bbbbff" stroke="black" cx="2291" cy="-4390" rx="95.58" ry="18"/>
<text text-anchor="middle" x="2291" y="-4386.3" font-family="Times,serif" font-size="14.00">GOOL.PatternTest</text>
</g>
<!-- u6 -->
<g id="node8" class="node">
<title>u6</title>
<ellipse fill="#bbbbff" stroke="black" cx="2291" cy="-4082" rx="84.49" ry="18"/>
<text text-anchor="middle" x="2291" y="-4078.3" font-family="Times,serif" font-size="14.00">GOOL.Observer</text>
</g>
<!-- u7&#45;&gt;u6 -->
<g id="edge9" class="edge">
<title>u7&#45;&gt;u6</title>
<path fill="none" stroke="black" d="M2291,-4371.67C2291,-4320.86 2291,-4171.97 2291,-4110.27"/>
<polygon fill="black" stroke="black" points="2294.5,-4110.14 2291,-4100.14 2287.5,-4110.14 2294.5,-4110.14"/>
</g>
<!-- u61 -->
<g id="node9" class="node">
<title>u61</title>
<ellipse fill="#ffbbbb" stroke="black" cx="2518" cy="-4390" rx="113.18" ry="18"/>
<text text-anchor="middle" x="2518" y="-4386.3" font-family="Times,serif" font-size="14.00">Language.Drasil.Code</text>
</g>
<!-- u53 -->
<g id="node30" class="node">
<title>u53</title>
<ellipse fill="#77ff77" stroke="black" cx="4987" cy="-4082" rx="217.16" ry="18"/>
<text text-anchor="middle" x="4987" y="-4078.3" font-family="Times,serif" font-size="14.00">Language.Drasil.Code.Imperative.Generator</text>
</g>
<!-- u61&#45;&gt;u53 -->
<g id="edge98" class="edge">
<title>u61&#45;&gt;u53</title>
<path fill="none" stroke="black" d="M2604.43,-4378.29C2974.28,-4332.45 4424.78,-4152.68 4861.75,-4098.52"/>
<polygon fill="black" stroke="black" points="4862.39,-4101.97 4871.89,-4097.27 4861.53,-4095.02 4862.39,-4101.97"/>
</g>
<!-- u36 -->
<g id="node34" class="node">
<title>u36</title>
<ellipse fill="#77ff77" stroke="black" cx="324" cy="-3774" rx="217.96" ry="18"/>
<text text-anchor="middle" x="324" y="-3770.3" font-family="Times,serif" font-size="14.00">Language.Drasil.Code.Imperative.ReadInput</text>
</g>
<!-- u61&#45;&gt;u36 -->
<g id="edge97" class="edge">
<title>u61&#45;&gt;u36</title>
<path fill="none" stroke="black" d="M2516.66,-4371.7C2511.39,-4316.56 2486.97,-4143.84 2384,-4064 2100.52,-3844.19 1016.48,-3791.5 545.09,-3778.92"/>
<polygon fill="black" stroke="black" points="544.84,-3775.41 534.75,-3778.65 544.66,-3782.41 544.84,-3775.41"/>
</g>
<!-- u60 -->
<g id="node10" class="node">
<title>u60</title>
<ellipse fill="#ffbbbb" stroke="black" cx="5305" cy="-1926" rx="126.18" ry="18"/>
<text text-anchor="middle" x="5305" y="-1922.3" font-family="Times,serif" font-size="14.00">Language.Drasil.Choices</text>
</g>
<!-- u55 -->
<g id="node23" class="node">
<title>u55</title>
<ellipse fill="#ffbbff" stroke="black" cx="4226" cy="-1617" rx="139.98" ry="18"/>
<text text-anchor="middle" x="4226" y="-1613.3" font-family="Times,serif" font-size="14.00">Language.Drasil.Code.Code</text>
</g>
<!-- u60&#45;&gt;u55 -->
<g id="edge96" class="edge">
<title>u60&#45;&gt;u55</title>
<path fill="none" stroke="black" d="M5251.12,-1909.67C5070.43,-1858.26 4486.3,-1692.06 4290.59,-1636.38"/>
<polygon fill="black" stroke="black" points="4291.31,-1632.94 4280.74,-1633.57 4289.4,-1639.68 4291.31,-1632.94"/>
</g>
<!-- u60&#45;&gt;u9 -->
<g id="edge95" class="edge">
<title>u60&#45;&gt;u9</title>
<path fill="none" stroke="black" d="M5316.92,-1908.06C5352.83,-1857.02 5460.13,-1704.51 5503.01,-1643.57"/>
<polygon fill="black" stroke="black" points="5505.96,-1645.46 5508.85,-1635.27 5500.23,-1641.43 5505.96,-1645.46"/>
</g>
<!-- u59 -->
<g id="node11" class="node">
<title>u59</title>
<ellipse fill="#ffbbbb" stroke="black" cx="2659" cy="-3466" rx="117.78" ry="18"/>
<text text-anchor="middle" x="2659" y="-3462.3" font-family="Times,serif" font-size="14.00">Language.Drasil.GOOL</text>
</g>
<!-- u48 -->
<g id="node53" class="node">
<title>u48</title>
<ellipse fill="#77ffff" stroke="black" cx="1513" cy="-3158" rx="358.54" ry="18"/>
<text text-anchor="middle" x="1513" y="-3154.3" font-family="Times,serif" font-size="14.00">Language.Drasil.Code.Imperative.GOOL.LanguageRenderer.SwiftRenderer</text>
</g>
<!-- u59&#45;&gt;u48 -->
<g id="edge94" class="edge">
<title>u59&#45;&gt;u48</title>
<path fill="none" stroke="black" d="M2603.34,-3450.14C2414.49,-3399.71 1798.14,-3235.14 1585.73,-3178.42"/>
<polygon fill="black" stroke="black" points="1586.49,-3175 1575.92,-3175.8 1584.68,-3181.76 1586.49,-3175"/>
</g>
<!-- u47 -->
<g id="node54" class="node">
<title>u47</title>
<ellipse fill="#77ffff" stroke="black" cx="2243" cy="-3158" rx="352.84" ry="18"/>
<text text-anchor="middle" x="2243" y="-3154.3" font-family="Times,serif" font-size="14.00">Language.Drasil.Code.Imperative.GOOL.LanguageRenderer.CppRenderer</text>
</g>
<!-- u59&#45;&gt;u47 -->
<g id="edge93" class="edge">
<title>u59&#45;&gt;u47</title>
<path fill="none" stroke="black" d="M2636.34,-3448.33C2566.57,-3397.01 2354.86,-3241.29 2274.45,-3182.13"/>
<polygon fill="black" stroke="black" points="2276.32,-3179.17 2266.19,-3176.06 2272.17,-3184.81 2276.32,-3179.17"/>
</g>
<!-- u46 -->
<g id="node55" class="node">
<title>u46</title>
<ellipse fill="#77ffff" stroke="black" cx="2983" cy="-3158" rx="369.33" ry="18"/>
<text text-anchor="middle" x="2983" y="-3154.3" font-family="Times,serif" font-size="14.00">Language.Drasil.Code.Imperative.GOOL.LanguageRenderer.CSharpRenderer</text>
</g>
<!-- u59&#45;&gt;u46 -->
<g id="edge92" class="edge">
<title>u59&#45;&gt;u46</title>
<path fill="none" stroke="black" d="M2676.88,-3448.11C2731.08,-3396.93 2893.68,-3243.36 2957.19,-3183.38"/>
<polygon fill="black" stroke="black" points="2959.91,-3185.62 2964.77,-3176.21 2955.1,-3180.53 2959.91,-3185.62"/>
</g>
<!-- u45 -->
<g id="node56" class="node">
<title>u45</title>
<ellipse fill="#77ffff" stroke="black" cx="3725" cy="-3158" rx="354.74" ry="18"/>
<text text-anchor="middle" x="3725" y="-3154.3" font-family="Times,serif" font-size="14.00">Language.Drasil.Code.Imperative.GOOL.LanguageRenderer.JuliaRenderer</text>
</g>
<!-- u59&#45;&gt;u45 -->
<g id="edge91" class="edge">
<title>u59&#45;&gt;u45</title>
<path fill="none" stroke="black" d="M2711.86,-3449.83C2888.58,-3399.1 3458.78,-3235.42 3656.63,-3178.63"/>
<polygon fill="black" stroke="black" points="3657.68,-3181.97 3666.33,-3175.84 3655.75,-3175.24 3657.68,-3181.97"/>
</g>
<!-- u44 -->
<g id="node57" class="node">
<title>u44</title>
<ellipse fill="#77ffff" stroke="black" cx="4465" cy="-3158" rx="367.43" ry="18"/>
<text text-anchor="middle" x="4465" y="-3154.3" font-family="Times,serif" font-size="14.00">Language.Drasil.Code.Imperative.GOOL.LanguageRenderer.PythonRenderer</text>
</g>
<!-- u59&#45;&gt;u44 -->
<g id="edge90" class="edge">
<title>u59&#45;&gt;u44</title>
<path fill="none" stroke="black" d="M2734.59,-3452.19C3019.11,-3403.99 4026.25,-3233.34 4358.09,-3177.11"/>
<polygon fill="black" stroke="black" points="4358.91,-3180.53 4368.18,-3175.4 4357.74,-3173.62 4358.91,-3180.53"/>
</g>
<!-- u43 -->
<g id="node58" class="node">
<title>u43</title>
<ellipse fill="#77ffff" stroke="black" cx="782" cy="-3158" rx="354.44" ry="18"/>
<text text-anchor="middle" x="782" y="-3154.3" font-family="Times,serif" font-size="14.00">Language.Drasil.Code.Imperative.GOOL.LanguageRenderer.JavaRenderer</text>
</g>
<!-- u59&#45;&gt;u43 -->
<g id="edge89" class="edge">
<title>u59&#45;&gt;u43</title>
<path fill="none" stroke="black" d="M2581.63,-3452.39C2287.21,-3404.39 1236.07,-3233.03 891.94,-3176.92"/>
<polygon fill="black" stroke="black" points="892.4,-3173.45 881.96,-3175.3 891.27,-3180.36 892.4,-3173.45"/>
</g>
<!-- u58 -->
<g id="node12" class="node">
<title>u58</title>
<ellipse fill="#ffbbbb" stroke="black" cx="5851" cy="-2234" rx="135.68" ry="18"/>
<text text-anchor="middle" x="5851" y="-2230.3" font-family="Times,serif" font-size="14.00">Language.Drasil.CodeSpec</text>
</g>
<!-- u58&#45;&gt;u60 -->
<g id="edge88" class="edge">
<title>u58&#45;&gt;u60</title>
<path fill="none" stroke="black" d="M5821.26,-2216.33C5728.91,-2164.58 5447.12,-2006.65 5343.64,-1948.66"/>
<polygon fill="black" stroke="black" points="5345.2,-1945.52 5334.77,-1943.68 5341.78,-1951.63 5345.2,-1945.52"/>
</g>
<!-- u12 -->
<g id="node13" class="node">
<title>u12</title>
<ellipse fill="#ffbbbb" stroke="black" cx="6514" cy="-1926" rx="178.17" ry="18"/>
<text text-anchor="middle" x="6514" y="-1922.3" font-family="Times,serif" font-size="14.00">Language.Drasil.ICOSolutionSearch</text>
</g>
<!-- u58&#45;&gt;u12 -->
<g id="edge86" class="edge">
<title>u58&#45;&gt;u12</title>
<path fill="none" stroke="black" d="M5886.65,-2216.55C5998.71,-2164.83 6343.83,-2005.54 6468.49,-1948.01"/>
<polygon fill="black" stroke="black" points="6470.16,-1951.09 6477.77,-1943.72 6467.23,-1944.73 6470.16,-1951.09"/>
</g>
<!-- u14 -->
<g id="node19" class="node">
<title>u14</title>
<ellipse fill="#bbffff" stroke="black" cx="5641" cy="-1926" rx="192.27" ry="18"/>
<text text-anchor="middle" x="5641" y="-1922.3" font-family="Times,serif" font-size="14.00">Language.Drasil.Chunk.ConstraintMap</text>
</g>
<!-- u58&#45;&gt;u14 -->
<g id="edge87" class="edge">
<title>u58&#45;&gt;u14</title>
<path fill="none" stroke="black" d="M5839.11,-2215.67C5803.95,-2164.44 5700.36,-2013.5 5658.67,-1952.75"/>
<polygon fill="black" stroke="black" points="5661.31,-1950.4 5652.76,-1944.14 5655.53,-1954.36 5661.31,-1950.4"/>
</g>
<!-- u16 -->
<g id="node17" class="node">
<title>u16</title>
<ellipse fill="#bbffff" stroke="black" cx="6514" cy="-1617" rx="191.17" ry="18"/>
<text text-anchor="middle" x="6514" y="-1613.3" font-family="Times,serif" font-size="14.00">Language.Drasil.Chunk.CodeDefinition</text>
</g>
<!-- u12&#45;&gt;u16 -->
<g id="edge18" class="edge">
<title>u12&#45;&gt;u16</title>
<path fill="none" stroke="black" d="M6514,-1907.61C6514,-1856.64 6514,-1707.26 6514,-1645.36"/>
<polygon fill="black" stroke="black" points="6517.5,-1645.19 6514,-1635.19 6510.5,-1645.19 6517.5,-1645.19"/>
</g>
<!-- u11 -->
<g id="node14" class="node">
<title>u11</title>
<ellipse fill="#ffbbbb" stroke="black" cx="4740" cy="-1001" rx="110.48" ry="18"/>
<text text-anchor="middle" x="4740" y="-997.3" font-family="Times,serif" font-size="14.00">Language.Drasil.Mod</text>
</g>
<!-- u13 -->
<g id="node20" class="node">
<title>u13</title>
<ellipse fill="#bbffff" stroke="black" cx="4740" cy="-693" rx="170.87" ry="18"/>
<text text-anchor="middle" x="4740" y="-689.3" font-family="Times,serif" font-size="14.00">Language.Drasil.Chunk.Parameter</text>
</g>
<!-- u11&#45;&gt;u13 -->
<g id="edge16" class="edge">
<title>u11&#45;&gt;u13</title>
<path fill="none" stroke="black" d="M4740,-982.67C4740,-931.86 4740,-782.97 4740,-721.27"/>
<polygon fill="black" stroke="black" points="4743.5,-721.14 4740,-711.14 4736.5,-721.14 4743.5,-721.14"/>
</g>
<!-- u22 -->
<g id="node25" class="node">
<title>u22</title>
<ellipse fill="#ffbbff" stroke="black" cx="4160" cy="-693" rx="160.57" ry="18"/>
<text text-anchor="middle" x="4160" y="-689.3" font-family="Times,serif" font-size="14.00">Language.Drasil.Code.DataDesc</text>
</g>
<!-- u11&#45;&gt;u22 -->
<g id="edge17" class="edge">
<title>u11&#45;&gt;u22</title>
<path fill="none" stroke="black" d="M4708.82,-983.55C4611.08,-931.98 4310.68,-773.5 4200.8,-715.53"/>
<polygon fill="black" stroke="black" points="4202.17,-712.29 4191.69,-710.72 4198.9,-718.48 4202.17,-712.29"/>
</g>
<!-- u18 -->
<g id="node15" class="node">
<title>u18</title>
<ellipse fill="#bbffff" stroke="black" cx="4740" cy="-77" rx="168.17" ry="18"/>
<text text-anchor="middle" x="4740" y="-73.3" font-family="Times,serif" font-size="14.00">Language.Drasil.Chunk.CodeBase</text>
</g>
<!-- u17 -->
<g id="node16" class="node">
<title>u17</title>
<ellipse fill="#bbffff" stroke="black" cx="4740" cy="-385" rx="145.67" ry="18"/>
<text text-anchor="middle" x="4740" y="-381.3" font-family="Times,serif" font-size="14.00">Language.Drasil.Chunk.Code</text>
</g>
<!-- u17&#45;&gt;u18 -->
<g id="edge21" class="edge">
<title>u17&#45;&gt;u18</title>
<path fill="none" stroke="black" d="M4740,-366.67C4740,-315.86 4740,-166.97 4740,-105.27"/>
<polygon fill="black" stroke="black" points="4743.5,-105.14 4740,-95.14 4736.5,-105.14 4743.5,-105.14"/>
</g>
<!-- u10 -->
<g id="node60" class="node">
<title>u10</title>
<ellipse fill="#33ff33" stroke="black" cx="5832" cy="-1309" rx="154.07" ry="18"/>
<text text-anchor="middle" x="5832" y="-1305.3" font-family="Times,serif" font-size="14.00">Language.Drasil.Data.ODEInfo</text>
</g>
<!-- u16&#45;&gt;u10 -->
<g id="edge20" class="edge">
<title>u16&#45;&gt;u10</title>
<path fill="none" stroke="black" d="M6476.85,-1599.33C6360.9,-1547.31 6005.86,-1388.01 5878.27,-1330.76"/>
<polygon fill="black" stroke="black" points="5879.33,-1327.4 5868.77,-1326.5 5876.46,-1333.78 5879.33,-1327.4"/>
</g>
<!-- u15 -->
<g id="node18" class="node">
<title>u15</title>
<ellipse fill="#bbffff" stroke="black" cx="5113" cy="-1001" rx="202.26" ry="18"/>
<text text-anchor="middle" x="5113" y="-997.3" font-family="Times,serif" font-size="14.00">Language.Drasil.Chunk.NamedArgument</text>
</g>
<!-- u13&#45;&gt;u17 -->
<g id="edge19" class="edge">
<title>u13&#45;&gt;u17</title>
<path fill="none" stroke="black" d="M4740,-674.67C4740,-623.86 4740,-474.97 4740,-413.27"/>
<polygon fill="black" stroke="black" points="4743.5,-413.14 4740,-403.14 4736.5,-413.14 4743.5,-413.14"/>
</g>
<!-- u57 -->
<g id="node21" class="node">
<title>u57</title>
<ellipse fill="#ffbbff" stroke="black" cx="4740" cy="-1309" rx="190.37" ry="18"/>
<text text-anchor="middle" x="4740" y="-1305.3" font-family="Times,serif" font-size="14.00">Language.Drasil.Code.ExternalLibrary</text>
</g>
<!-- u57&#45;&gt;u11 -->
<g id="edge84" class="edge">
<title>u57&#45;&gt;u11</title>
<path fill="none" stroke="black" d="M4740,-1290.67C4740,-1239.86 4740,-1090.97 4740,-1029.27"/>
<polygon fill="black" stroke="black" points="4743.5,-1029.14 4740,-1019.14 4736.5,-1029.14 4743.5,-1029.14"/>
</g>
<!-- u57&#45;&gt;u15 -->
<g id="edge85" class="edge">
<title>u57&#45;&gt;u15</title>
<path fill="none" stroke="black" d="M4760.85,-1290.89C4823.79,-1239.26 5011.91,-1084.94 5084.23,-1025.6"/>
<polygon fill="black" stroke="black" points="5086.55,-1028.22 5092.06,-1019.18 5082.11,-1022.81 5086.55,-1028.22"/>
</g>
<!-- u56 -->
<g id="node22" class="node">
<title>u56</title>
<ellipse fill="#ffbbff" stroke="black" cx="5521" cy="-1309" rx="139.18" ry="18"/>
<text text-anchor="middle" x="5521" y="-1305.3" font-family="Times,serif" font-size="14.00">Language.Drasil.Code.Lang</text>
</g>
<!-- u23 -->
<g id="node24" class="node">
<title>u23</title>
<ellipse fill="#ffbbff" stroke="black" cx="5156" cy="-1309" rx="207.96" ry="18"/>
<text text-anchor="middle" x="5156" y="-1305.3" font-family="Times,serif" font-size="14.00">Language.Drasil.Code.ExternalLibraryCall</text>
</g>
<!-- u23&#45;&gt;u11 -->
<g id="edge27" class="edge">
<title>u23&#45;&gt;u11</title>
<path fill="none" stroke="black" d="M5132.74,-1290.89C5062.25,-1239.04 4850.91,-1083.58 4771.03,-1024.83"/>
<polygon fill="black" stroke="black" points="4772.97,-1021.91 4762.84,-1018.8 4768.82,-1027.54 4772.97,-1021.91"/>
</g>
<!-- u23&#45;&gt;u15 -->
<g id="edge28" class="edge">
<title>u23&#45;&gt;u15</title>
<path fill="none" stroke="black" d="M5153.56,-1290.67C5146.43,-1239.86 5125.5,-1090.97 5116.83,-1029.27"/>
<polygon fill="black" stroke="black" points="5120.27,-1028.55 5115.41,-1019.14 5113.33,-1029.53 5120.27,-1028.55"/>
</g>
<!-- u22&#45;&gt;u17 -->
<g id="edge26" class="edge">
<title>u22&#45;&gt;u17</title>
<path fill="none" stroke="black" d="M4191.6,-675.33C4289.79,-623.52 4589.63,-465.33 4699.28,-407.48"/>
<polygon fill="black" stroke="black" points="4701.16,-410.45 4708.38,-402.68 4697.9,-404.26 4701.16,-410.45"/>
</g>
<!-- u21 -->
<g id="node26" class="node">
<title>u21</title>
<ellipse fill="#ffbbff" stroke="black" cx="5168" cy="-2850" rx="204.16" ry="18"/>
<text text-anchor="middle" x="5168" y="-2846.3" font-family="Times,serif" font-size="14.00">Language.Drasil.Code.CodeQuantityDicts</text>
</g>
<!-- u20 -->
<g id="node27" class="node">
<title>u20</title>
<ellipse fill="#ffbbff" stroke="black" cx="219" cy="-3158" rx="191.17" ry="18"/>
<text text-anchor="middle" x="219" y="-3154.3" font-family="Times,serif" font-size="14.00">Language.Drasil.Code.CodeGeneration</text>
</g>
<!-- u20&#45;&gt;u55 -->
<g id="edge25" class="edge">
<title>u20&#45;&gt;u55</title>
<path fill="none" stroke="black" d="M299.67,-3141.68C518.33,-3095 1106,-2933.26 1106,-2543 1106,-2543 1106,-2543 1106,-2233 1106,-1921.61 3529.16,-1681.42 4104.52,-1628.78"/>
<polygon fill="black" stroke="black" points="4104.86,-1632.26 4114.5,-1627.87 4104.22,-1625.29 4104.86,-1632.26"/>
</g>
<!-- u51 -->
<g id="node49" class="node">
<title>u51</title>
<ellipse fill="#ff7777" stroke="black" cx="2243" cy="-2850" rx="222.06" ry="18"/>
<text text-anchor="middle" x="2243" y="-2846.3" font-family="Times,serif" font-size="14.00">Language.Drasil.Code.Imperative.GOOL.Data</text>
</g>
<!-- u20&#45;&gt;u51 -->
<g id="edge24" class="edge">
<title>u20&#45;&gt;u51</title>
<path fill="none" stroke="black" d="M315.26,-3142.45C652,-3091.54 1775.98,-2921.61 2133.09,-2867.62"/>
<polygon fill="black" stroke="black" points="2133.81,-2871.05 2143.18,-2866.09 2132.77,-2864.13 2133.81,-2871.05"/>
</g>
<!-- u19 -->
<g id="node28" class="node">
<title>u19</title>
<ellipse fill="#ffbbff" stroke="black" cx="5151" cy="-1617" rx="178.97" ry="18"/>
<text text-anchor="middle" x="5151" y="-1613.3" font-family="Times,serif" font-size="14.00">Language.Drasil.Code.ExtLibImport</text>
</g>
<!-- u19&#45;&gt;u57 -->
<g id="edge23" class="edge">
<title>u19&#45;&gt;u57</title>
<path fill="none" stroke="black" d="M5128.32,-1599.11C5059.07,-1547.55 4850.29,-1392.11 4771,-1333.08"/>
<polygon fill="black" stroke="black" points="4772.98,-1330.19 4762.87,-1327.02 4768.8,-1335.8 4772.98,-1330.19"/>
</g>
<!-- u19&#45;&gt;u23 -->
<g id="edge22" class="edge">
<title>u19&#45;&gt;u23</title>
<path fill="none" stroke="black" d="M5151.28,-1598.67C5152.11,-1547.86 5154.55,-1398.97 5155.55,-1337.27"/>
<polygon fill="black" stroke="black" points="5159.06,-1337.19 5155.72,-1327.14 5152.06,-1337.08 5159.06,-1337.19"/>
</g>
<!-- u54 -->
<g id="node29" class="node">
<title>u54</title>
<ellipse fill="#77ff77" stroke="black" cx="5115" cy="-3774" rx="226.66" ry="18"/>
<text text-anchor="middle" x="5115" y="-3770.3" font-family="Times,serif" font-size="14.00">Language.Drasil.Code.Imperative.SpaceMatch</text>
</g>
<!-- u30 -->
<g id="node39" class="node">
<title>u30</title>
<ellipse fill="#77ff77" stroke="black" cx="5865" cy="-2542" rx="222.06" ry="18"/>
<text text-anchor="middle" x="5865" y="-2538.3" font-family="Times,serif" font-size="14.00">Language.Drasil.Code.Imperative.DrasilState</text>
</g>
<!-- u54&#45;&gt;u30 -->
<g id="edge83" class="edge">
<title>u54&#45;&gt;u30</title>
<path fill="none" stroke="black" d="M5108.24,-3755.73C5063.81,-3640.95 4818.93,-2988.21 4934,-2832 5033.41,-2697.05 5536.37,-2597.91 5758.86,-2559.96"/>
<polygon fill="black" stroke="black" points="5759.65,-2563.38 5768.92,-2558.26 5758.48,-2556.48 5759.65,-2563.38"/>
</g>
<!-- u53&#45;&gt;u20 -->
<g id="edge78" class="edge">
<title>u53&#45;&gt;u20</title>
<path fill="none" stroke="black" d="M4905.75,-4065.29C4332.92,-3954.52 907.92,-3292.22 308.49,-3176.31"/>
<polygon fill="black" stroke="black" points="309.09,-3172.86 298.61,-3174.39 307.76,-3179.73 309.09,-3172.86"/>
</g>
<!-- u53&#45;&gt;u54 -->
<g id="edge82" class="edge">
<title>u53&#45;&gt;u54</title>
<path fill="none" stroke="black" d="M4994.25,-4063.67C5015.59,-4012.65 5078.3,-3862.74 5103.91,-3801.51"/>
<polygon fill="black" stroke="black" points="5107.2,-3802.71 5107.83,-3792.14 5100.74,-3800.01 5107.2,-3802.71"/>
</g>
<!-- u37 -->
<g id="node33" class="node">
<title>u37</title>
<ellipse fill="#77ff77" stroke="black" cx="5833" cy="-3774" rx="209.06" ry="18"/>
<text text-anchor="middle" x="5833" y="-3770.3" font-family="Times,serif" font-size="14.00">Language.Drasil.Code.Imperative.Modules</text>
</g>
<!-- u53&#45;&gt;u37 -->
<g id="edge80" class="edge">
<title>u53&#45;&gt;u37</title>
<path fill="none" stroke="black" d="M5033.09,-4064.33C5177.55,-4012.08 5621.24,-3851.6 5777.69,-3795.01"/>
<polygon fill="black" stroke="black" points="5778.92,-3798.28 5787.13,-3791.59 5776.54,-3791.7 5778.92,-3798.28"/>
</g>
<!-- u27 -->
<g id="node42" class="node">
<title>u27</title>
<ellipse fill="#77ff77" stroke="black" cx="6468" cy="-2234" rx="209.86" ry="18"/>
<text text-anchor="middle" x="6468" y="-2230.3" font-family="Times,serif" font-size="14.00">Language.Drasil.Code.Imperative.GenODE</text>
</g>
<!-- u53&#45;&gt;u27 -->
<g id="edge79" class="edge">
<title>u53&#45;&gt;u27</title>
<path fill="none" stroke="black" d="M5166.74,-4071.87C5709.71,-4039.45 7296,-3907.08 7296,-3467 7296,-3467 7296,-3467 7296,-2849 7296,-2479.46 6757.28,-2306.59 6548.92,-2253.55"/>
<polygon fill="black" stroke="black" points="6549.5,-2250.08 6538.95,-2251.04 6547.8,-2256.87 6549.5,-2250.08"/>
</g>
<!-- u50 -->
<g id="node50" class="node">
<title>u50</title>
<ellipse fill="#ff7777" stroke="black" cx="4784" cy="-2542" rx="289.45" ry="18"/>
<text text-anchor="middle" x="4784" y="-2538.3" font-family="Times,serif" font-size="14.00">Language.Drasil.Code.Imperative.GOOL.LanguageRenderer</text>
</g>
<!-- u53&#45;&gt;u50 -->
<g id="edge81" class="edge">
<title>u53&#45;&gt;u50</title>
<path fill="none" stroke="black" d="M4978.55,-4063.95C4957.29,-4020.13 4901.68,-3899.44 4879,-3792 4849.12,-3650.43 4860,-3611.69 4860,-3467 4860,-3467 4860,-3467 4860,-3157 4860,-2928.84 4807.68,-2656.58 4789.86,-2570.49"/>
<polygon fill="black" stroke="black" points="4793.24,-2569.56 4787.77,-2560.49 4786.39,-2570.99 4793.24,-2569.56"/>
</g>
<!-- u52 -->
<g id="node31" class="node">
<title>u52</title>
<ellipse fill="#77ff77" stroke="black" cx="6676" cy="-3466" rx="228.26" ry="18"/>
<text text-anchor="middle" x="6676" y="-3462.3" font-family="Times,serif" font-size="14.00">Language.Drasil.Code.Imperative.Descriptions</text>
</g>
<!-- u52&#45;&gt;u30 -->
<g id="edge77" class="edge">
<title>u52&#45;&gt;u30</title>
<path fill="none" stroke="black" d="M6710.87,-3448.02C6856.62,-3374.88 7400.47,-3079.24 7201,-2832 7057.39,-2654 6372.63,-2580.21 6043.05,-2554.61"/>
<polygon fill="black" stroke="black" points="6043.16,-2551.11 6032.92,-2553.83 6042.62,-2558.09 6043.16,-2551.11"/>
</g>
<!-- u41 -->
<g id="node32" class="node">
<title>u41</title>
<ellipse fill="#77ff77" stroke="black" cx="5168" cy="-3158" rx="223.66" ry="18"/>
<text text-anchor="middle" x="5168" y="-3154.3" font-family="Times,serif" font-size="14.00">Language.Drasil.Code.Imperative.Parameters</text>
</g>
<!-- u41&#45;&gt;u21 -->
<g id="edge56" class="edge">
<title>u41&#45;&gt;u21</title>
<path fill="none" stroke="black" d="M5168,-3139.67C5168,-3088.86 5168,-2939.97 5168,-2878.27"/>
<polygon fill="black" stroke="black" points="5171.5,-2878.14 5168,-2868.14 5164.5,-2878.14 5171.5,-2878.14"/>
</g>
<!-- u41&#45;&gt;u30 -->
<g id="edge57" class="edge">
<title>u41&#45;&gt;u30</title>
<path fill="none" stroke="black" d="M5141.21,-3140.02C5067.33,-3091.09 4871.55,-2946.06 4955,-2832 5052.07,-2699.32 5545.02,-2598.75 5762.11,-2560.18"/>
<polygon fill="black" stroke="black" points="5763,-2563.58 5772.24,-2558.39 5761.78,-2556.69 5763,-2563.58"/>
</g>
<!-- u37&#45;&gt;u52 -->
<g id="edge53" class="edge">
<title>u37&#45;&gt;u52</title>
<path fill="none" stroke="black" d="M5878.92,-3756.33C6022.79,-3704.11 6464.47,-3543.78 6620.61,-3487.11"/>
<polygon fill="black" stroke="black" points="6621.83,-3490.39 6630.04,-3483.68 6619.44,-3483.81 6621.83,-3490.39"/>
</g>
<!-- u29 -->
<g id="node40" class="node">
<title>u29</title>
<ellipse fill="#77ff77" stroke="black" cx="5833" cy="-3466" rx="233.16" ry="18"/>
<text text-anchor="middle" x="5833" y="-3462.3" font-family="Times,serif" font-size="14.00">Language.Drasil.Code.Imperative.FunctionCalls</text>
</g>
<!-- u37&#45;&gt;u29 -->
<g id="edge52" class="edge">
<title>u37&#45;&gt;u29</title>
<path fill="none" stroke="black" d="M5833,-3755.67C5833,-3704.86 5833,-3555.97 5833,-3494.27"/>
<polygon fill="black" stroke="black" points="5836.5,-3494.14 5833,-3484.14 5829.5,-3494.14 5836.5,-3494.14"/>
</g>
<!-- u36&#45;&gt;u22 -->
<g id="edge51" class="edge">
<title>u36&#45;&gt;u22</title>
<path fill="none" stroke="black" d="M306.58,-3755.72C239.28,-3687.03 0,-3424.16 0,-3159 0,-3159 0,-3159 0,-1308 0,-895.63 3240.51,-732.88 4001.43,-700.35"/>
<polygon fill="black" stroke="black" points="4001.8,-703.84 4011.64,-699.92 4001.5,-696.84 4001.8,-703.84"/>
</g>
<!-- u34 -->
<g id="node35" class="node">
<title>u34</title>
<ellipse fill="#77ff77" stroke="black" cx="6097" cy="-3158" rx="201.46" ry="18"/>
<text text-anchor="middle" x="6097" y="-3154.3" font-family="Times,serif" font-size="14.00">Language.Drasil.Code.Imperative.Import</text>
</g>
<!-- u34&#45;&gt;u21 -->
<g id="edge44" class="edge">
<title>u34&#45;&gt;u21</title>
<path fill="none" stroke="black" d="M6047.05,-3140.55C5888.82,-3088.43 5398.99,-2927.09 5227.8,-2870.7"/>
<polygon fill="black" stroke="black" points="5228.79,-2867.34 5218.19,-2867.53 5226.6,-2873.99 5228.79,-2867.34"/>
</g>
<!-- u33 -->
<g id="node36" class="node">
<title>u33</title>
<ellipse fill="#77ff77" stroke="black" cx="6097" cy="-2850" rx="207.16" ry="18"/>
<text text-anchor="middle" x="6097" y="-2846.3" font-family="Times,serif" font-size="14.00">Language.Drasil.Code.Imperative.Logging</text>
</g>
<!-- u34&#45;&gt;u33 -->
<g id="edge49" class="edge">
<title>u34&#45;&gt;u33</title>
<path fill="none" stroke="black" d="M6097,-3139.67C6097,-3088.86 6097,-2939.97 6097,-2878.27"/>
<polygon fill="black" stroke="black" points="6100.5,-2878.14 6097,-2868.14 6093.5,-2878.14 6100.5,-2878.14"/>
</g>
<!-- u32 -->
<g id="node37" class="node">
<title>u32</title>
<ellipse fill="#77ff77" stroke="black" cx="6528" cy="-2850" rx="206.06" ry="18"/>
<text text-anchor="middle" x="6528" y="-2846.3" font-family="Times,serif" font-size="14.00">Language.Drasil.Code.Imperative.Helpers</text>
</g>
<!-- u34&#45;&gt;u32 -->
<g id="edge48" class="edge">
<title>u34&#45;&gt;u32</title>
<path fill="none" stroke="black" d="M6120.79,-3140.11C6193.48,-3088.5 6412.78,-2932.8 6495.74,-2873.9"/>
<polygon fill="black" stroke="black" points="6497.89,-2876.67 6504.02,-2868.02 6493.84,-2870.96 6497.89,-2876.67"/>
</g>
<!-- u28 -->
<g id="node41" class="node">
<title>u28</title>
<ellipse fill="#77ff77" stroke="black" cx="5431" cy="-2234" rx="237.46" ry="18"/>
<text text-anchor="middle" x="5431" y="-2230.3" font-family="Times,serif" font-size="14.00">Language.Drasil.Code.Imperative.ConceptMatch</text>
</g>
<!-- u34&#45;&gt;u28 -->
<g id="edge47" class="edge">
<title>u34&#45;&gt;u28</title>
<path fill="none" stroke="black" d="M6220.63,-3143.78C6533.02,-3107.74 7321.03,-2999.16 7201,-2832 6995.96,-2546.45 5868.77,-2316.38 5528.37,-2252.62"/>
<polygon fill="black" stroke="black" points="5529.01,-2249.18 5518.53,-2250.78 5527.72,-2256.06 5529.01,-2249.18"/>
</g>
<!-- u26 -->
<g id="node43" class="node">
<title>u26</title>
<ellipse fill="#77ff77" stroke="black" cx="6972" cy="-2850" rx="219.86" ry="18"/>
<text text-anchor="middle" x="6972" y="-2846.3" font-family="Times,serif" font-size="14.00">Language.Drasil.Code.Imperative.Comments</text>
</g>
<!-- u34&#45;&gt;u26 -->
<g id="edge46" class="edge">
<title>u34&#45;&gt;u26</title>
<path fill="none" stroke="black" d="M6144.35,-3140.44C6293.43,-3088.31 6752.75,-2927.68 6914.73,-2871.03"/>
<polygon fill="black" stroke="black" points="6916.22,-2874.21 6924.51,-2867.61 6913.91,-2867.61 6916.22,-2874.21"/>
</g>
<!-- u25 -->
<g id="node44" class="node">
<title>u25</title>
<ellipse fill="#77ff77" stroke="black" cx="5631" cy="-2850" rx="240.46" ry="18"/>
<text text-anchor="middle" x="5631" y="-2846.3" font-family="Times,serif" font-size="14.00">Language.Drasil.Code.Imperative.GenerateGOOL</text>
</g>
<!-- u34&#45;&gt;u25 -->
<g id="edge45" class="edge">
<title>u34&#45;&gt;u25</title>
<path fill="none" stroke="black" d="M6071.28,-3140.11C5992.53,-3088.4 5754.61,-2932.17 5665.34,-2873.55"/>
<polygon fill="black" stroke="black" points="5667.21,-2870.59 5656.92,-2868.02 5663.36,-2876.44 5667.21,-2870.59"/>
</g>
<!-- u33&#45;&gt;u30 -->
<g id="edge43" class="edge">
<title>u33&#45;&gt;u30</title>
<path fill="none" stroke="black" d="M6083.86,-2831.67C6044.94,-2780.34 5930.11,-2628.88 5884.24,-2568.38"/>
<polygon fill="black" stroke="black" points="5886.82,-2565.99 5877.99,-2560.14 5881.25,-2570.22 5886.82,-2565.99"/>
</g>
<!-- u32&#45;&gt;u30 -->
<g id="edge42" class="edge">
<title>u32&#45;&gt;u30</title>
<path fill="none" stroke="black" d="M6491.41,-2832.11C6378.44,-2779.97 6035.27,-2621.59 5910.76,-2564.12"/>
<polygon fill="black" stroke="black" points="5912.02,-2560.85 5901.48,-2559.84 5909.09,-2567.2 5912.02,-2560.85"/>
</g>
<!-- u31 -->
<g id="node38" class="node">
<title>u31</title>
<ellipse fill="#77ff77" stroke="black" cx="4243" cy="-2542" rx="233.16" ry="18"/>
<text text-anchor="middle" x="4243" y="-2538.3" font-family="Times,serif" font-size="14.00">Language.Drasil.Code.Imperative.WriteReadMe</text>
</g>
<!-- u35 -->
<g id="node59" class="node">
<title>u35</title>
<ellipse fill="#ff77ff" stroke="black" cx="4881" cy="-2234" rx="242.36" ry="18"/>
<text text-anchor="middle" x="4881" y="-2230.3" font-family="Times,serif" font-size="14.00">Language.Drasil.Code.Imperative.ReadMe.Import</text>
</g>
<!-- u31&#45;&gt;u35 -->
<g id="edge41" class="edge">
<title>u31&#45;&gt;u35</title>
<path fill="none" stroke="black" d="M4278.21,-2524.11C4386.81,-2472.02 4716.49,-2313.9 4836.61,-2256.29"/>
<polygon fill="black" stroke="black" points="4838.4,-2259.32 4845.9,-2251.84 4835.37,-2253 4838.4,-2259.32"/>
</g>
<!-- u30&#45;&gt;u58 -->
<g id="edge40" class="edge">
<title>u30&#45;&gt;u58</title>
<path fill="none" stroke="black" d="M5864.21,-2523.67C5861.88,-2472.86 5855.07,-2323.97 5852.25,-2262.27"/>
<polygon fill="black" stroke="black" points="5855.74,-2261.97 5851.78,-2252.14 5848.74,-2262.29 5855.74,-2261.97"/>
</g>
<!-- u30&#45;&gt;u19 -->
<g id="edge39" class="edge">
<title>u30&#45;&gt;u19</title>
<path fill="none" stroke="black" d="M5738.79,-2527.14C5580.05,-2502.31 5312.82,-2434.39 5185,-2252 5048.25,-2056.87 5118.2,-1739.22 5143.28,-1645.1"/>
<polygon fill="black" stroke="black" points="5146.72,-1645.8 5145.97,-1635.23 5139.96,-1643.96 5146.72,-1645.8"/>
</g>
<!-- u29&#45;&gt;u41 -->
<g id="edge38" class="edge">
<title>u29&#45;&gt;u41</title>
<path fill="none" stroke="black" d="M5796.3,-3448.11C5682.99,-3395.97 5338.79,-3237.59 5213.89,-3180.12"/>
<polygon fill="black" stroke="black" points="5215.13,-3176.84 5204.59,-3175.84 5212.21,-3183.2 5215.13,-3176.84"/>
</g>
<!-- u29&#45;&gt;u34 -->
<g id="edge37" class="edge">
<title>u29&#45;&gt;u34</title>
<path fill="none" stroke="black" d="M5847.95,-3447.67C5892.33,-3396.23 6023.45,-3244.26 6075.42,-3184.01"/>
<polygon fill="black" stroke="black" points="6078.33,-3186 6082.21,-3176.14 6073.03,-3181.42 6078.33,-3186"/>
</g>
<!-- u28&#45;&gt;u60 -->
<g id="edge36" class="edge">
<title>u28&#45;&gt;u60</title>
<path fill="none" stroke="black" d="M5423.86,-2215.67C5402.86,-2164.65 5341.13,-2014.74 5315.91,-1953.51"/>
<polygon fill="black" stroke="black" points="5319.1,-1952.05 5312.06,-1944.14 5312.63,-1954.72 5319.1,-1952.05"/>
</g>
<!-- u27&#45;&gt;u60 -->
<g id="edge35" class="edge">
<title>u27&#45;&gt;u60</title>
<path fill="none" stroke="black" d="M6406.29,-2216.76C6206.7,-2164.25 5579.53,-1999.23 5372.24,-1944.69"/>
<polygon fill="black" stroke="black" points="5372.96,-1941.26 5362.4,-1942.1 5371.18,-1948.03 5372.96,-1941.26"/>
</g>
<!-- u27&#45;&gt;u16 -->
<g id="edge33" class="edge">
<title>u27&#45;&gt;u16</title>
<path fill="none" stroke="black" d="M6489.31,-2215.93C6538.25,-2175.19 6657.78,-2066.46 6701,-1944 6744.12,-1821.81 6607.82,-1693.03 6544.51,-1641.4"/>
<polygon fill="black" stroke="black" points="6546.43,-1638.46 6536.44,-1634.92 6542.05,-1643.91 6546.43,-1638.46"/>
</g>
<!-- u27&#45;&gt;u19 -->
<g id="edge34" class="edge">
<title>u27&#45;&gt;u19</title>
<path fill="none" stroke="black" d="M6423.09,-2216.35C6321.24,-2177.47 6067.01,-2074.04 5880,-1944 5860.9,-1930.72 5861.49,-1920.71 5842,-1908 5631.44,-1770.69 5345.09,-1675.45 5217.3,-1637"/>
<polygon fill="black" stroke="black" points="5218.23,-1633.62 5207.64,-1634.11 5216.22,-1640.32 5218.23,-1633.62"/>
</g>
<!-- u26&#45;&gt;u30 -->
<g id="edge32" class="edge">
<title>u26&#45;&gt;u30</title>
<path fill="none" stroke="black" d="M6912.87,-2832.66C6724.08,-2780.47 6136.26,-2617.98 5934.11,-2562.1"/>
<polygon fill="black" stroke="black" points="5934.77,-2558.66 5924.2,-2559.36 5932.91,-2565.4 5934.77,-2558.66"/>
</g>
<!-- u25&#45;&gt;u30 -->
<g id="edge30" class="edge">
<title>u25&#45;&gt;u30</title>
<path fill="none" stroke="black" d="M5644.25,-2831.67C5683.51,-2780.34 5799.33,-2628.88 5845.59,-2568.38"/>
<polygon fill="black" stroke="black" points="5848.6,-2570.21 5851.89,-2560.14 5843.04,-2565.96 5848.6,-2570.21"/>
</g>
<!-- u42 -->
<g id="node51" class="node">
<title>u42</title>
<ellipse fill="#ff7777" stroke="black" cx="5358" cy="-2542" rx="267.25" ry="18"/>
<text text-anchor="middle" x="5358" y="-2538.3" font-family="Times,serif" font-size="14.00">Language.Drasil.Code.Imperative.GOOL.ClassInterface</text>
</g>
<!-- u25&#45;&gt;u42 -->
<g id="edge31" class="edge">
<title>u25&#45;&gt;u42</title>
<path fill="none" stroke="black" d="M5615.54,-2831.67C5569.55,-2780.13 5433.51,-2627.63 5379.98,-2567.64"/>
<polygon fill="black" stroke="black" points="5382.56,-2565.27 5373.29,-2560.14 5377.34,-2569.93 5382.56,-2565.27"/>
</g>
<!-- u24 -->
<g id="node45" class="node">
<title>u24</title>
<ellipse fill="#77ff77" stroke="black" cx="3699" cy="-1001" rx="219.86" ry="18"/>
<text text-anchor="middle" x="3699" y="-997.3" font-family="Times,serif" font-size="14.00">Language.Drasil.Code.Imperative.WriteInput</text>
</g>
<!-- u24&#45;&gt;u22 -->
<g id="edge29" class="edge">
<title>u24&#45;&gt;u22</title>
<path fill="none" stroke="black" d="M3724.44,-983.11C3802.37,-931.39 4037.79,-775.12 4126.07,-716.52"/>
<polygon fill="black" stroke="black" points="4128.24,-719.28 4134.64,-710.84 4124.37,-713.45 4128.24,-719.28"/>
</g>
<!-- u40 -->
<g id="node46" class="node">
<title>u40</title>
<ellipse fill="#ffff77" stroke="black" cx="3725" cy="-2234" rx="215.56" ry="18"/>
<text text-anchor="middle" x="3725" y="-2230.3" font-family="Times,serif" font-size="14.00">Language.Drasil.Code.Imperative.Build.AST</text>
</g>
<!-- u39 -->
<g id="node47" class="node">
<title>u39</title>
<ellipse fill="#ffff77" stroke="black" cx="3725" cy="-2542" rx="228.56" ry="18"/>
<text text-anchor="middle" x="3725" y="-2538.3" font-family="Times,serif" font-size="14.00">Language.Drasil.Code.Imperative.Build.Import</text>
</g>
<!-- u39&#45;&gt;u40 -->
<g id="edge55" class="edge">
<title>u39&#45;&gt;u40</title>
<path fill="none" stroke="black" d="M3725,-2523.67C3725,-2472.86 3725,-2323.97 3725,-2262.27"/>
<polygon fill="black" stroke="black" points="3728.5,-2262.14 3725,-2252.14 3721.5,-2262.14 3728.5,-2262.14"/>
</g>
<!-- u38 -->
<g id="node48" class="node">
<title>u38</title>
<ellipse fill="#7777ff" stroke="black" cx="4319" cy="-2234" rx="245.06" ry="18"/>
<text text-anchor="middle" x="4319" y="-2230.3" font-family="Times,serif" font-size="14.00">Language.Drasil.Code.Imperative.Doxygen.Import</text>
</g>
<!-- u38&#45;&gt;u60 -->
<g id="edge54" class="edge">
<title>u38&#45;&gt;u60</title>
<path fill="none" stroke="black" d="M4372.71,-2216.33C4542.51,-2163.64 5066.94,-2000.88 5245.08,-1945.6"/>
<polygon fill="black" stroke="black" points="5246.29,-1948.88 5254.8,-1942.58 5244.22,-1942.2 5246.29,-1948.88"/>
</g>
<!-- u42&#45;&gt;u35 -->
<g id="edge58" class="edge">
<title>u42&#45;&gt;u35</title>
<path fill="none" stroke="black" d="M5331.33,-2523.89C5250.35,-2471.94 5007.27,-2316 4916.07,-2257.5"/>
<polygon fill="black" stroke="black" points="4917.79,-2254.44 4907.48,-2251.99 4914.01,-2260.33 4917.79,-2254.44"/>
</g>
<!-- u49 -->
<g id="node52" class="node">
<title>u49</title>
<ellipse fill="#77ffff" stroke="black" cx="3725" cy="-2850" rx="393.73" ry="18"/>
<text text-anchor="middle" x="3725" y="-2846.3" font-family="Times,serif" font-size="14.00">Language.Drasil.Code.Imperative.GOOL.LanguageRenderer.LanguagePolymorphic</text>
</g>
<!-- u49&#45;&gt;u31 -->
<g id="edge72" class="edge">
<title>u49&#45;&gt;u31</title>
<path fill="none" stroke="black" d="M3753.96,-2831.89C3842.08,-2779.84 4106.95,-2623.37 4205.51,-2565.15"/>
<polygon fill="black" stroke="black" points="4207.41,-2568.09 4214.24,-2559.99 4203.85,-2562.06 4207.41,-2568.09"/>
</g>
<!-- u49&#45;&gt;u24 -->
<g id="edge71" class="edge">
<title>u49&#45;&gt;u24</title>
<path fill="none" stroke="black" d="M3703.73,-2831.86C3654.81,-2790.96 3534.81,-2681.93 3487,-2560 3434.18,-2425.29 3468,-2379.69 3468,-2235 3468,-2235 3468,-2235 3468,-1616 3468,-1373.64 3627.61,-1109.95 3681.48,-1027.85"/>
<polygon fill="black" stroke="black" points="3684.62,-1029.45 3687.23,-1019.18 3678.79,-1025.58 3684.62,-1029.45"/>
</g>
<!-- u49&#45;&gt;u39 -->
<g id="edge74" class="edge">
<title>u49&#45;&gt;u39</title>
<path fill="none" stroke="black" d="M3725,-2831.67C3725,-2780.86 3725,-2631.97 3725,-2570.27"/>
<polygon fill="black" stroke="black" points="3728.5,-2570.14 3725,-2560.14 3721.5,-2570.14 3728.5,-2570.14"/>
</g>
<!-- u49&#45;&gt;u38 -->
<g id="edge73" class="edge">
<title>u49&#45;&gt;u38</title>
<path fill="none" stroke="black" d="M3738.34,-2831.76C3777,-2782.16 3893.2,-2635.49 4001,-2524 4102.08,-2419.47 4233.58,-2306.58 4290.59,-2258.66"/>
<polygon fill="black" stroke="black" points="4293.03,-2261.17 4298.44,-2252.07 4288.53,-2255.81 4293.03,-2261.17"/>
</g>
<!-- u49&#45;&gt;u50 -->
<g id="edge76" class="edge">
<title>u49&#45;&gt;u50</title>
<path fill="none" stroke="black" d="M3783.44,-2832.11C3965.64,-2779.47 4522.69,-2618.51 4716.6,-2562.47"/>
<polygon fill="black" stroke="black" points="4717.75,-2565.79 4726.38,-2559.65 4715.81,-2559.06 4717.75,-2565.79"/>
</g>
<!-- u49&#45;&gt;u42 -->
<g id="edge75" class="edge">
<title>u49&#45;&gt;u42</title>
<path fill="none" stroke="black" d="M3813.38,-2832.44C4095.07,-2779.65 4970.35,-2615.64 5262.2,-2560.95"/>
<polygon fill="black" stroke="black" points="5263.15,-2564.33 5272.34,-2559.05 5261.86,-2557.45 5263.15,-2564.33"/>
</g>
<!-- u48&#45;&gt;u51 -->
<g id="edge70" class="edge">
<title>u48&#45;&gt;u51</title>
<path fill="none" stroke="black" d="M1553.29,-3140.11C1677.93,-3087.87 2057.04,-2928.95 2193.44,-2871.77"/>
<polygon fill="black" stroke="black" points="2194.97,-2874.93 2202.84,-2867.84 2192.26,-2868.47 2194.97,-2874.93"/>
</g>
<!-- u48&#45;&gt;u49 -->
<g id="edge69" class="edge">
<title>u48&#45;&gt;u49</title>
<path fill="none" stroke="black" d="M1629.2,-3140.93C2007.75,-3088.56 3203.69,-2923.12 3597.72,-2868.61"/>
<polygon fill="black" stroke="black" points="3598.3,-2872.06 3607.73,-2867.22 3597.34,-2865.13 3598.3,-2872.06"/>
</g>
<!-- u47&#45;&gt;u51 -->
<g id="edge68" class="edge">
<title>u47&#45;&gt;u51</title>
<path fill="none" stroke="black" d="M2243,-3139.67C2243,-3088.86 2243,-2939.97 2243,-2878.27"/>
<polygon fill="black" stroke="black" points="2246.5,-2878.14 2243,-2868.14 2239.5,-2878.14 2246.5,-2878.14"/>
</g>
<!-- u47&#45;&gt;u49 -->
<g id="edge67" class="edge">
<title>u47&#45;&gt;u49</title>
<path fill="none" stroke="black" d="M2323.2,-3140.44C2577.56,-3087.92 3365.17,-2925.3 3634,-2869.79"/>
<polygon fill="black" stroke="black" points="3635.02,-2873.15 3644.11,-2867.7 3633.61,-2866.3 3635.02,-2873.15"/>
</g>
<!-- u46&#45;&gt;u51 -->
<g id="edge66" class="edge">
<title>u46&#45;&gt;u51</title>
<path fill="none" stroke="black" d="M2941.89,-3140C2815.26,-3087.64 2431.31,-2928.87 2293.18,-2871.75"/>
<polygon fill="black" stroke="black" points="2294.25,-2868.4 2283.67,-2867.82 2291.57,-2874.87 2294.25,-2868.4"/>
</g>
<!-- u46&#45;&gt;u49 -->
<g id="edge65" class="edge">
<title>u46&#45;&gt;u49</title>
<path fill="none" stroke="black" d="M3024.22,-3140C3151.04,-3087.7 3535.28,-2929.24 3674.19,-2871.95"/>
<polygon fill="black" stroke="black" points="3675.85,-2875.05 3683.76,-2868.01 3673.19,-2868.58 3675.85,-2875.05"/>
</g>
<!-- u45&#45;&gt;u51 -->
<g id="edge64" class="edge">
<title>u45&#45;&gt;u51</title>
<path fill="none" stroke="black" d="M3644.8,-3140.44C3389.25,-3087.68 2595.45,-2923.77 2330.26,-2869.02"/>
<polygon fill="black" stroke="black" points="2330.8,-2865.55 2320.3,-2866.96 2329.38,-2872.41 2330.8,-2865.55"/>
</g>
<!-- u45&#45;&gt;u49 -->
<g id="edge63" class="edge">
<title>u45&#45;&gt;u49</title>
<path fill="none" stroke="black" d="M3725,-3139.67C3725,-3088.86 3725,-2939.97 3725,-2878.27"/>
<polygon fill="black" stroke="black" points="3728.5,-2878.14 3725,-2868.14 3721.5,-2878.14 3728.5,-2878.14"/>
</g>
<!-- u44&#45;&gt;u51 -->
<g id="edge62" class="edge">
<title>u44&#45;&gt;u51</title>
<path fill="none" stroke="black" d="M4348.28,-3140.93C3964.57,-3088.08 2744.79,-2920.1 2360.28,-2867.15"/>
<polygon fill="black" stroke="black" points="2360.63,-2863.67 2350.25,-2865.77 2359.68,-2870.6 2360.63,-2863.67"/>
</g>
<!-- u44&#45;&gt;u49 -->
<g id="edge61" class="edge">
<title>u44&#45;&gt;u49</title>
<path fill="none" stroke="black" d="M4423.89,-3140C4297.41,-3087.7 3914.21,-2929.24 3775.67,-2871.95"/>
<polygon fill="black" stroke="black" points="3776.7,-2868.59 3766.12,-2868.01 3774.03,-2875.06 3776.7,-2868.59"/>
</g>
<!-- u43&#45;&gt;u51 -->
<g id="edge60" class="edge">
<title>u43&#45;&gt;u51</title>
<path fill="none" stroke="black" d="M861.07,-3140.44C1112.99,-3087.68 1895.55,-2923.77 2156.97,-2869.02"/>
<polygon fill="black" stroke="black" points="2157.73,-2872.44 2166.8,-2866.96 2156.29,-2865.58 2157.73,-2872.44"/>
</g>
<!-- u43&#45;&gt;u49 -->
<g id="edge59" class="edge">
<title>u43&#45;&gt;u49</title>
<path fill="none" stroke="black" d="M929.96,-3141.62C1428.88,-3089.74 3047.07,-2921.49 3564.4,-2867.7"/>
<polygon fill="black" stroke="black" points="3564.97,-2871.16 3574.55,-2866.64 3564.24,-2864.2 3564.97,-2871.16"/>
</g>
<!-- u35&#45;&gt;u60 -->
<g id="edge50" class="edge">
<title>u35&#45;&gt;u60</title>
<path fill="none" stroke="black" d="M4904.7,-2215.89C4976.55,-2164.04 5191.96,-2008.58 5273.37,-1949.83"/>
<polygon fill="black" stroke="black" points="5275.66,-1952.49 5281.72,-1943.8 5271.57,-1946.81 5275.66,-1952.49"/>
</g>
<!-- u10&#45;&gt;u17 -->
<g id="edge15" class="edge">
<title>u10&#45;&gt;u17</title>
<path fill="none" stroke="black" d="M5811.64,-1290.81C5677.69,-1177.71 4923.32,-540.78 4767.98,-409.62"/>
<polygon fill="black" stroke="black" points="4770.12,-406.85 4760.22,-403.07 4765.6,-412.2 4770.12,-406.85"/>
</g>
<!-- u9&#45;&gt;u57 -->
<g id="edge14" class="edge">
<title>u9&#45;&gt;u57</title>
<path fill="none" stroke="black" d="M5478.73,-1599.44C5346.02,-1547.44 4937.81,-1387.5 4792.24,-1330.47"/>
<polygon fill="black" stroke="black" points="4793.22,-1327.09 4782.63,-1326.7 4790.66,-1333.61 4793.22,-1327.09"/>
</g>
<!-- u9&#45;&gt;u56 -->
<g id="edge13" class="edge">
<title>u9&#45;&gt;u56</title>
<path fill="none" stroke="black" d="M5521,-1598.67C5521,-1547.86 5521,-1398.97 5521,-1337.27"/>
<polygon fill="black" stroke="black" points="5524.5,-1337.14 5521,-1327.14 5517.5,-1337.14 5524.5,-1337.14"/>
</g>
<!-- u9&#45;&gt;u23 -->
<g id="edge12" class="edge">
<title>u9&#45;&gt;u23</title>
<path fill="none" stroke="black" d="M5500.86,-1599.11C5439.55,-1547.72 5255.13,-1393.11 5184.21,-1333.65"/>
<polygon fill="black" stroke="black" points="5186.44,-1330.96 5176.53,-1327.21 5181.95,-1336.32 5186.44,-1330.96"/>
</g>
<!-- u9&#45;&gt;u10 -->
<g id="edge11" class="edge">
<title>u9&#45;&gt;u10</title>
<path fill="none" stroke="black" d="M5538.61,-1598.67C5591.11,-1547.02 5746.62,-1394.01 5807.33,-1334.28"/>
<polygon fill="black" stroke="black" points="5809.91,-1336.65 5814.58,-1327.14 5805,-1331.66 5809.91,-1336.65"/>
</g>
<!-- u5 -->
<g id="node62" class="node">
<title>u5</title>
<ellipse fill="#bbff77" stroke="black" cx="2125" cy="-4698" rx="108.58" ry="18"/>
<text text-anchor="middle" x="2125" y="-4694.3" font-family="Times,serif" font-size="14.00">drasil&#45;code.test.Main</text>
</g>
<!-- u5&#45;&gt;u4 -->
<g id="edge5" class="edge">
<title>u5&#45;&gt;u4</title>
<path fill="none" stroke="black" d="M2100.98,-4680.33C2026.42,-4628.6 1798.96,-4470.77 1715.31,-4412.72"/>
<polygon fill="black" stroke="black" points="1717.19,-4409.77 1706.98,-4406.94 1713.2,-4415.52 1717.19,-4409.77"/>
</g>
<!-- u5&#45;&gt;u3 -->
<g id="edge4" class="edge">
<title>u5&#45;&gt;u3</title>
<path fill="none" stroke="black" d="M2108.39,-4680.11C2057.91,-4628.79 1906.18,-4474.55 1847.51,-4414.91"/>
<polygon fill="black" stroke="black" points="1849.7,-4412.14 1840.19,-4407.46 1844.71,-4417.05 1849.7,-4412.14"/>
</g>
<!-- u5&#45;&gt;u2 -->
<g id="edge3" class="edge">
<title>u5&#45;&gt;u2</title>
<path fill="none" stroke="black" d="M2116.68,-4679.67C2092.17,-4628.65 2020.15,-4478.74 1990.73,-4417.51"/>
<polygon fill="black" stroke="black" points="1993.72,-4415.64 1986.23,-4408.14 1987.41,-4418.67 1993.72,-4415.64"/>
</g>
<!-- u5&#45;&gt;u0 -->
<g id="edge2" class="edge">
<title>u5&#45;&gt;u0</title>
<path fill="none" stroke="black" d="M2125,-4679.67C2125,-4628.86 2125,-4479.97 2125,-4418.27"/>
<polygon fill="black" stroke="black" points="2128.5,-4418.14 2125,-4408.14 2121.5,-4418.14 2128.5,-4418.14"/>
</g>
<!-- u5&#45;&gt;u7 -->
<g id="edge6" class="edge">
<title>u5&#45;&gt;u7</title>
<path fill="none" stroke="black" d="M2134.4,-4679.67C2162.13,-4628.55 2243.74,-4478.12 2276.82,-4417.13"/>
<polygon fill="black" stroke="black" points="2280.01,-4418.6 2281.7,-4408.14 2273.86,-4415.26 2280.01,-4418.6"/>
</g>
<!-- u5&#45;&gt;u61 -->
<g id="edge8" class="edge">
<title>u5&#45;&gt;u61</title>
<path fill="none" stroke="black" d="M2146.41,-4680.33C2212.27,-4629.05 2411.98,-4473.55 2488.1,-4414.28"/>
<polygon fill="black" stroke="black" points="2490.59,-4416.78 2496.33,-4407.87 2486.29,-4411.25 2490.59,-4416.78"/>
</g>
<!-- u5&#45;&gt;u59 -->
<g id="edge7" class="edge">
<title>u5&#45;&gt;u59</title>
<path fill="none" stroke="black" d="M2187.83,-4683.17C2301.59,-4654.38 2539.22,-4576.2 2640,-4408 2827.5,-4095.06 2702.41,-3612.25 2667.35,-3493.88"/>
<polygon fill="black" stroke="black" points="2670.66,-3492.74 2664.43,-3484.17 2663.96,-3494.76 2670.66,-3492.74"/>
</g>
</g>
</svg>
