<?xml version="1.0" encoding="UTF-8" standalone="no"?>
<!DOCTYPE svg PUBLIC "-//W3C//DTD SVG 1.1//EN"
 "http://www.w3.org/Graphics/SVG/1.1/DTD/svg11.dtd">
<!-- Generated by graphviz version 2.43.0 (0)
 -->
<!-- Title: G Pages: 1 -->
<svg width="432pt" height="288pt"
 viewBox="0.00 0.00 431.71 288.00" xmlns="http://www.w3.org/2000/svg" xmlns:xlink="http://www.w3.org/1999/xlink">
<g id="graph0" class="graph" transform="scale(10.43 10.43) rotate(0) translate(4 2998.67)">
<title>G</title>
<polygon fill="white" stroke="transparent" points="-4,4 -4,-2998.67 4496.97,-2998.67 4496.97,4 -4,4"/>
<!-- u18 -->
<g id="node1" class="node">
<title>u18</title>
<ellipse fill="#bbffbb" stroke="black" cx="1871.69" cy="-1850" rx="116.18" ry="18"/>
<text text-anchor="middle" x="1871.69" y="-1846.3" font-family="Times,serif" font-size="14.00">Drasil.ExtractDocDesc</text>
</g>
<!-- u1 -->
<g id="node14" class="node">
<title>u1</title>
<ellipse fill="#bbbbff" stroke="black" cx="2198.69" cy="-1145" rx="159.47" ry="18"/>
<text text-anchor="middle" x="2198.69" y="-1141.3" font-family="Times,serif" font-size="14.00">Drasil.DocumentLanguage.Core</text>
</g>
<!-- u18&#45;&gt;u1 -->
<g id="edge35" class="edge">
<title>u18&#45;&gt;u1</title>
<path fill="none" stroke="black" d="M1872.95,-1831.99C1877.46,-1778.01 1895.75,-1606.61 1953.69,-1479 2012.11,-1350.32 2125.59,-1222.6 2174.88,-1170.48"/>
<polygon fill="black" stroke="black" points="2177.58,-1172.72 2181.95,-1163.06 2172.52,-1167.89 2177.58,-1172.72"/>
</g>
<!-- u19 -->
<g id="node31" class="node">
<title>u19</title>
<ellipse fill="#ffbbff" stroke="black" cx="963.69" cy="-1497" rx="207.96" ry="18"/>
<text text-anchor="middle" x="963.69" y="-1493.3" font-family="Times,serif" font-size="14.00">Drasil.Sections.SpecificSystemDescription</text>
</g>
<!-- u18&#45;&gt;u19 -->
<g id="edge36" class="edge">
<title>u18&#45;&gt;u19</title>
<path fill="none" stroke="black" d="M1830.61,-1833.12C1683.12,-1776.11 1180.33,-1581.75 1016.07,-1518.25"/>
<polygon fill="black" stroke="black" points="1017.25,-1514.95 1006.66,-1514.61 1014.73,-1521.48 1017.25,-1514.95"/>
</g>
<!-- u17 -->
<g id="node2" class="node">
<title>u17</title>
<ellipse fill="#bbffbb" stroke="black" cx="3857.69" cy="-2907" rx="108.58" ry="18"/>
<text text-anchor="middle" x="3857.69" y="-2903.3" font-family="Times,serif" font-size="14.00">Drasil.SRSDocument</text>
</g>
<!-- u12 -->
<g id="node4" class="node">
<title>u12</title>
<ellipse fill="#bbffbb" stroke="black" cx="3857.69" cy="-2554" rx="81.79" ry="18"/>
<text text-anchor="middle" x="3857.69" y="-2550.3" font-family="Times,serif" font-size="14.00">Drasil.DocLang</text>
</g>
<!-- u17&#45;&gt;u12 -->
<g id="edge34" class="edge">
<title>u17&#45;&gt;u12</title>
<path fill="none" stroke="black" d="M3857.69,-2888.59C3857.69,-2831.74 3857.69,-2651.19 3857.69,-2582.18"/>
<polygon fill="black" stroke="black" points="3861.19,-2582.1 3857.69,-2572.1 3854.19,-2582.1 3861.19,-2582.1"/>
</g>
<!-- u16 -->
<g id="node3" class="node">
<title>u16</title>
<ellipse fill="#bbffbb" stroke="black" cx="1694.69" cy="-2202" rx="133.78" ry="18"/>
<text text-anchor="middle" x="1694.69" y="-2198.3" font-family="Times,serif" font-size="14.00">Drasil.DocumentLanguage</text>
</g>
<!-- u16&#45;&gt;u18 -->
<g id="edge29" class="edge">
<title>u16&#45;&gt;u18</title>
<path fill="none" stroke="black" d="M1703.46,-2183.64C1732.25,-2126.72 1823.93,-1945.43 1858.41,-1877.26"/>
<polygon fill="black" stroke="black" points="1861.68,-1878.55 1863.07,-1868.05 1855.43,-1875.39 1861.68,-1878.55"/>
</g>
<!-- u9 -->
<g id="node5" class="node">
<title>u9</title>
<ellipse fill="#bbffbb" stroke="black" cx="3140.69" cy="-1850" rx="79.09" ry="18"/>
<text text-anchor="middle" x="3140.69" y="-1846.3" font-family="Times,serif" font-size="14.00">Drasil.DocDecl</text>
</g>
<!-- u16&#45;&gt;u9 -->
<g id="edge27" class="edge">
<title>u16&#45;&gt;u9</title>
<path fill="none" stroke="black" d="M1756.82,-2185.96C1994.1,-2128.53 2841.66,-1923.38 3078.7,-1866"/>
<polygon fill="black" stroke="black" points="3079.63,-1869.38 3088.53,-1863.62 3077.99,-1862.58 3079.63,-1869.38"/>
</g>
<!-- u0 -->
<g id="node6" class="node">
<title>u0</title>
<ellipse fill="#bbffbb" stroke="black" cx="3330.69" cy="-1850" rx="92.08" ry="18"/>
<text text-anchor="middle" x="3330.69" y="-1846.3" font-family="Times,serif" font-size="14.00">Drasil.TraceTable</text>
</g>
<!-- u16&#45;&gt;u0 -->
<g id="edge25" class="edge">
<title>u16&#45;&gt;u0</title>
<path fill="none" stroke="black" d="M1762.64,-2186.46C2027.96,-2129.7 2992.56,-1923.34 3260.96,-1865.92"/>
<polygon fill="black" stroke="black" points="3261.92,-1869.29 3270.97,-1863.78 3260.45,-1862.45 3261.92,-1869.29"/>
</g>
<!-- u14 -->
<g id="node8" class="node">
<title>u14</title>
<ellipse fill="#ffffbb" stroke="black" cx="2156.69" cy="-1850" rx="136.48" ry="18"/>
<text text-anchor="middle" x="2156.69" y="-1846.3" font-family="Times,serif" font-size="14.00">Drasil.DocLang.References</text>
</g>
<!-- u16&#45;&gt;u14 -->
<g id="edge28" class="edge">
<title>u16&#45;&gt;u14</title>
<path fill="none" stroke="black" d="M1716.97,-2184.12C1792.59,-2126.83 2039.51,-1939.77 2126.24,-1874.07"/>
<polygon fill="black" stroke="black" points="2128.5,-1876.74 2134.36,-1867.92 2124.27,-1871.17 2128.5,-1876.74"/>
</g>
<!-- u8 -->
<g id="node10" class="node">
<title>u8</title>
<ellipse fill="#bbbbff" stroke="black" cx="1516.69" cy="-1850" rx="220.96" ry="18"/>
<text text-anchor="middle" x="1516.69" y="-1846.3" font-family="Times,serif" font-size="14.00">Drasil.DocumentLanguage.TraceabilityGraph</text>
</g>
<!-- u16&#45;&gt;u8 -->
<g id="edge26" class="edge">
<title>u16&#45;&gt;u8</title>
<path fill="none" stroke="black" d="M1685.86,-2183.64C1656.91,-2126.72 1564.71,-1945.43 1530.04,-1877.26"/>
<polygon fill="black" stroke="black" points="1533.01,-1875.38 1525.36,-1868.05 1526.77,-1878.55 1533.01,-1875.38"/>
</g>
<!-- u30 -->
<g id="node20" class="node">
<title>u30</title>
<ellipse fill="#ffbbff" stroke="black" cx="141.69" cy="-1497" rx="141.88" ry="18"/>
<text text-anchor="middle" x="141.69" y="-1493.3" font-family="Times,serif" font-size="14.00">Drasil.Sections.Introduction</text>
</g>
<!-- u16&#45;&gt;u30 -->
<g id="edge33" class="edge">
<title>u16&#45;&gt;u30</title>
<path fill="none" stroke="black" d="M1565.41,-2197.16C1317.1,-2183.88 765.38,-2125.28 396.69,-1868 265.24,-1776.28 180.54,-1593.47 152.21,-1524.85"/>
<polygon fill="black" stroke="black" points="155.3,-1523.16 148.3,-1515.21 148.82,-1525.8 155.3,-1523.16"/>
</g>
<!-- u29 -->
<g id="node21" class="node">
<title>u29</title>
<ellipse fill="#ffbbff" stroke="black" cx="1008.69" cy="-1850" rx="144.87" ry="18"/>
<text text-anchor="middle" x="1008.69" y="-1846.3" font-family="Times,serif" font-size="14.00">Drasil.Sections.Stakeholders</text>
</g>
<!-- u16&#45;&gt;u29 -->
<g id="edge32" class="edge">
<title>u16&#45;&gt;u29</title>
<path fill="none" stroke="black" d="M1662.06,-2184.35C1549.19,-2126.77 1175.37,-1936.04 1050.05,-1872.1"/>
<polygon fill="black" stroke="black" points="1051.61,-1868.97 1041.11,-1867.54 1048.43,-1875.21 1051.61,-1868.97"/>
</g>
<!-- u22 -->
<g id="node28" class="node">
<title>u22</title>
<ellipse fill="#ffbbff" stroke="black" cx="576.69" cy="-1497" rx="161.37" ry="18"/>
<text text-anchor="middle" x="576.69" y="-1493.3" font-family="Times,serif" font-size="14.00">Drasil.Sections.TableOfContents</text>
</g>
<!-- u16&#45;&gt;u22 -->
<g id="edge31" class="edge">
<title>u16&#45;&gt;u22</title>
<path fill="none" stroke="black" d="M1672.1,-2184.26C1599.58,-2130.73 1365.49,-1959.78 1162.69,-1832 962.57,-1705.91 713.44,-1570.87 617.22,-1519.49"/>
<polygon fill="black" stroke="black" points="618.86,-1516.4 608.39,-1514.79 615.57,-1522.58 618.86,-1516.4"/>
</g>
<!-- u21 -->
<g id="node29" class="node">
<title>u21</title>
<ellipse fill="#ffbbff" stroke="black" cx="568.69" cy="-1850" rx="163.27" ry="18"/>
<text text-anchor="middle" x="568.69" y="-1846.3" font-family="Times,serif" font-size="14.00">Drasil.Sections.GeneralSystDesc</text>
</g>
<!-- u16&#45;&gt;u21 -->
<g id="edge30" class="edge">
<title>u16&#45;&gt;u21</title>
<path fill="none" stroke="black" d="M1644.12,-2185.28C1460.64,-2128.25 830.28,-1932.31 630.17,-1870.11"/>
<polygon fill="black" stroke="black" points="631,-1866.7 620.41,-1867.08 628.92,-1873.39 631,-1866.7"/>
</g>
<!-- u12&#45;&gt;u16 -->
<g id="edge16" class="edge">
<title>u12&#45;&gt;u16</title>
<path fill="none" stroke="black" d="M3793.83,-2542.67C3485.45,-2492.77 2150.28,-2276.72 1786.51,-2217.86"/>
<polygon fill="black" stroke="black" points="1786.98,-2214.39 1776.55,-2216.25 1785.86,-2221.3 1786.98,-2214.39"/>
</g>
<!-- u3 -->
<g id="node16" class="node">
<title>u3</title>
<ellipse fill="#ffbbbb" stroke="black" cx="3857.69" cy="-2202" rx="276.75" ry="18"/>
<text text-anchor="middle" x="3857.69" y="-2198.3" font-family="Times,serif" font-size="14.00">Drasil.DocumentLanguage.Notebook.DocumentLanguage</text>
</g>
<!-- u12&#45;&gt;u3 -->
<g id="edge15" class="edge">
<title>u12&#45;&gt;u3</title>
<path fill="none" stroke="black" d="M3857.69,-2535.64C3857.69,-2478.95 3857.69,-2298.92 3857.69,-2230.1"/>
<polygon fill="black" stroke="black" points="3861.19,-2230.05 3857.69,-2220.05 3854.19,-2230.05 3861.19,-2230.05"/>
</g>
<!-- u28 -->
<g id="node22" class="node">
<title>u28</title>
<ellipse fill="#ffbbff" stroke="black" cx="4322.69" cy="-2202" rx="170.07" ry="18"/>
<text text-anchor="middle" x="4322.69" y="-2198.3" font-family="Times,serif" font-size="14.00">Drasil.Sections.ReferenceMaterial</text>
</g>
<!-- u12&#45;&gt;u28 -->
<g id="edge17" class="edge">
<title>u12&#45;&gt;u28</title>
<path fill="none" stroke="black" d="M3879.49,-2536.59C3954.82,-2479.89 4204.27,-2292.13 4291.91,-2226.16"/>
<polygon fill="black" stroke="black" points="4294.23,-2228.8 4300.12,-2219.99 4290.02,-2223.21 4294.23,-2228.8"/>
</g>
<!-- u9&#45;&gt;u1 -->
<g id="edge11" class="edge">
<title>u9&#45;&gt;u1</title>
<path fill="none" stroke="black" d="M3162.15,-1832.42C3229.65,-1778.32 3427.73,-1603.23 3334.69,-1479 3209.08,-1311.29 2562.89,-1199.49 2305.08,-1160.92"/>
<polygon fill="black" stroke="black" points="2305.36,-1157.43 2294.96,-1159.42 2304.33,-1164.35 2305.36,-1157.43"/>
</g>
<!-- u25 -->
<g id="node25" class="node">
<title>u25</title>
<ellipse fill="#ffbbff" stroke="black" cx="3176.69" cy="-1497" rx="149.47" ry="18"/>
<text text-anchor="middle" x="3176.69" y="-1493.3" font-family="Times,serif" font-size="14.00">Drasil.Sections.Requirements</text>
</g>
<!-- u9&#45;&gt;u25 -->
<g id="edge12" class="edge">
<title>u9&#45;&gt;u25</title>
<path fill="none" stroke="black" d="M3142.47,-1831.59C3148.3,-1774.74 3166.82,-1594.19 3173.9,-1525.18"/>
<polygon fill="black" stroke="black" points="3177.4,-1525.4 3174.93,-1515.1 3170.43,-1524.69 3177.4,-1525.4"/>
</g>
<!-- u0&#45;&gt;u1 -->
<g id="edge1" class="edge">
<title>u0&#45;&gt;u1</title>
<path fill="none" stroke="black" d="M3338.99,-1831.68C3365.06,-1774.53 3438.74,-1589.33 3355.69,-1479 3227.54,-1308.77 2569.67,-1198.47 2307.1,-1160.62"/>
<polygon fill="black" stroke="black" points="2307.57,-1157.15 2297.17,-1159.2 2306.58,-1164.08 2307.57,-1157.15"/>
</g>
<!-- u15 -->
<g id="node7" class="node">
<title>u15</title>
<ellipse fill="#ffffbb" stroke="black" cx="4202.69" cy="-1497" rx="129.18" ry="18"/>
<text text-anchor="middle" x="4202.69" y="-1493.3" font-family="Times,serif" font-size="14.00">Drasil.DocLang.Notebook</text>
</g>
<!-- u27 -->
<g id="node23" class="node">
<title>u27</title>
<ellipse fill="#ffbbff" stroke="black" cx="1361.69" cy="-1497" rx="172.47" ry="18"/>
<text text-anchor="middle" x="1361.69" y="-1493.3" font-family="Times,serif" font-size="14.00">Drasil.Sections.AuxiliaryConstants</text>
</g>
<!-- u14&#45;&gt;u27 -->
<g id="edge24" class="edge">
<title>u14&#45;&gt;u27</title>
<path fill="none" stroke="black" d="M2119.67,-1832.66C1989.63,-1775.24 1553.71,-1582.78 1408.9,-1518.84"/>
<polygon fill="black" stroke="black" points="1409.95,-1515.48 1399.39,-1514.64 1407.12,-1521.89 1409.95,-1515.48"/>
</g>
<!-- u26 -->
<g id="node24" class="node">
<title>u26</title>
<ellipse fill="#ffbbff" stroke="black" cx="1729.69" cy="-1497" rx="177.37" ry="18"/>
<text text-anchor="middle" x="1729.69" y="-1493.3" font-family="Times,serif" font-size="14.00">Drasil.Sections.TraceabilityMandGs</text>
</g>
<!-- u14&#45;&gt;u26 -->
<g id="edge23" class="edge">
<title>u14&#45;&gt;u26</title>
<path fill="none" stroke="black" d="M2136.09,-1832.07C2066.27,-1774.68 1838.44,-1587.4 1758.07,-1521.33"/>
<polygon fill="black" stroke="black" points="1760.27,-1518.61 1750.33,-1514.96 1755.83,-1524.02 1760.27,-1518.61"/>
</g>
<!-- u14&#45;&gt;u25 -->
<g id="edge22" class="edge">
<title>u14&#45;&gt;u25</title>
<path fill="none" stroke="black" d="M2203.17,-1833.01C2369.92,-1775.62 2937.86,-1580.18 3119.99,-1517.51"/>
<polygon fill="black" stroke="black" points="3121.33,-1520.75 3129.64,-1514.19 3119.05,-1514.13 3121.33,-1520.75"/>
</g>
<!-- u24 -->
<g id="node26" class="node">
<title>u24</title>
<ellipse fill="#ffbbff" stroke="black" cx="2849.69" cy="-1497" rx="159.47" ry="18"/>
<text text-anchor="middle" x="2849.69" y="-1493.3" font-family="Times,serif" font-size="14.00">Drasil.Sections.TableOfSymbols</text>
</g>
<!-- u14&#45;&gt;u24 -->
<g id="edge21" class="edge">
<title>u14&#45;&gt;u24</title>
<path fill="none" stroke="black" d="M2189.65,-1832.31C2303.54,-1774.62 2680.44,-1583.72 2807.47,-1519.38"/>
<polygon fill="black" stroke="black" points="2809.19,-1522.44 2816.53,-1514.8 2806.02,-1516.19 2809.19,-1522.44"/>
</g>
<!-- u23 -->
<g id="node27" class="node">
<title>u23</title>
<ellipse fill="#ffbbff" stroke="black" cx="2163.69" cy="-1497" rx="201.46" ry="18"/>
<text text-anchor="middle" x="2163.69" y="-1493.3" font-family="Times,serif" font-size="14.00">Drasil.Sections.TableOfAbbAndAcronyms</text>
</g>
<!-- u14&#45;&gt;u23 -->
<g id="edge20" class="edge">
<title>u14&#45;&gt;u23</title>
<path fill="none" stroke="black" d="M2157.03,-1831.59C2158.17,-1774.74 2161.77,-1594.19 2163.15,-1525.18"/>
<polygon fill="black" stroke="black" points="2166.65,-1525.17 2163.35,-1515.1 2159.65,-1525.03 2166.65,-1525.17"/>
</g>
<!-- u20 -->
<g id="node30" class="node">
<title>u20</title>
<ellipse fill="#ffbbff" stroke="black" cx="2527.69" cy="-1497" rx="144.87" ry="18"/>
<text text-anchor="middle" x="2527.69" y="-1493.3" font-family="Times,serif" font-size="14.00">Drasil.Sections.TableOfUnits</text>
</g>
<!-- u14&#45;&gt;u20 -->
<g id="edge19" class="edge">
<title>u14&#45;&gt;u20</title>
<path fill="none" stroke="black" d="M2174.58,-1832.07C2234.93,-1774.98 2431.14,-1589.34 2501.93,-1522.37"/>
<polygon fill="black" stroke="black" points="2504.68,-1524.59 2509.54,-1515.17 2499.87,-1519.5 2504.68,-1524.59"/>
</g>
<!-- u14&#45;&gt;u19 -->
<g id="edge18" class="edge">
<title>u14&#45;&gt;u19</title>
<path fill="none" stroke="black" d="M2103.5,-1833.35C1909.77,-1776.35 1242.11,-1579.92 1029.36,-1517.32"/>
<polygon fill="black" stroke="black" points="1030.16,-1513.91 1019.58,-1514.44 1028.18,-1520.62 1030.16,-1513.91"/>
</g>
<!-- u13 -->
<g id="node9" class="node">
<title>u13</title>
<ellipse fill="#ffffbb" stroke="black" cx="501.69" cy="-1145" rx="104.78" ry="18"/>
<text text-anchor="middle" x="501.69" y="-1141.3" font-family="Times,serif" font-size="14.00">Drasil.DocLang.SRS</text>
</g>
<!-- u8&#45;&gt;u13 -->
<g id="edge9" class="edge">
<title>u8&#45;&gt;u13</title>
<path fill="none" stroke="black" d="M1414.9,-1833.94C1164.4,-1794.58 529.45,-1680.14 406.69,-1515 325.84,-1406.24 435.23,-1235.24 482.15,-1171.27"/>
<polygon fill="black" stroke="black" points="485.17,-1173.08 488.33,-1162.97 479.55,-1168.9 485.17,-1173.08"/>
</g>
<!-- u8&#45;&gt;u26 -->
<g id="edge10" class="edge">
<title>u8&#45;&gt;u26</title>
<path fill="none" stroke="black" d="M1527.25,-1831.59C1561.96,-1774.39 1672.67,-1591.96 1713.96,-1523.91"/>
<polygon fill="black" stroke="black" points="1717.12,-1525.46 1719.31,-1515.1 1711.13,-1521.83 1717.12,-1525.46"/>
</g>
<!-- u7 -->
<g id="node11" class="node">
<title>u7</title>
<ellipse fill="#bbbbff" stroke="black" cx="1215.69" cy="-793" rx="223.66" ry="18"/>
<text text-anchor="middle" x="1215.69" y="-789.3" font-family="Times,serif" font-size="14.00">Drasil.DocumentLanguage.TraceabilityMatrix</text>
</g>
<!-- u6 -->
<g id="node12" class="node">
<title>u6</title>
<ellipse fill="#bbbbff" stroke="black" cx="1089.69" cy="-440" rx="187.37" ry="18"/>
<text text-anchor="middle" x="1089.69" y="-436.3" font-family="Times,serif" font-size="14.00">Drasil.DocumentLanguage.Definitions</text>
</g>
<!-- u7&#45;&gt;u6 -->
<g id="edge8" class="edge">
<title>u7&#45;&gt;u6</title>
<path fill="none" stroke="black" d="M1209.44,-774.59C1188.99,-717.62 1123.95,-536.45 1099.29,-467.75"/>
<polygon fill="black" stroke="black" points="1102.5,-466.33 1095.82,-458.1 1095.91,-468.69 1102.5,-466.33"/>
</g>
<!-- u5 -->
<g id="node13" class="node">
<title>u5</title>
<ellipse fill="#bbbbff" stroke="black" cx="1467.69" cy="-88" rx="162.47" ry="18"/>
<text text-anchor="middle" x="1467.69" y="-84.3" font-family="Times,serif" font-size="14.00">Drasil.DocumentLanguage.Units</text>
</g>
<!-- u6&#45;&gt;u5 -->
<g id="edge7" class="edge">
<title>u6&#45;&gt;u5</title>
<path fill="none" stroke="black" d="M1108.18,-421.88C1169.97,-364.66 1369.52,-179.89 1441.5,-113.25"/>
<polygon fill="black" stroke="black" points="1444.28,-115.45 1449.24,-106.09 1439.52,-110.31 1444.28,-115.45"/>
</g>
<!-- u1&#45;&gt;u7 -->
<g id="edge2" class="edge">
<title>u1&#45;&gt;u7</title>
<path fill="none" stroke="black" d="M2152.92,-1127.7C1991.57,-1070.26 1449.43,-877.22 1272.24,-814.14"/>
<polygon fill="black" stroke="black" points="1273.18,-810.76 1262.59,-810.7 1270.83,-817.35 1273.18,-810.76"/>
</g>
<!-- u4 -->
<g id="node15" class="node">
<title>u4</title>
<ellipse fill="#ffbbbb" stroke="black" cx="3660.69" cy="-1850" rx="219.86" ry="18"/>
<text text-anchor="middle" x="3660.69" y="-1846.3" font-family="Times,serif" font-size="14.00">Drasil.DocumentLanguage.Notebook.NBDecl</text>
</g>
<!-- u2 -->
<g id="node17" class="node">
<title>u2</title>
<ellipse fill="#ffbbbb" stroke="black" cx="3660.69" cy="-1497" rx="206.06" ry="18"/>
<text text-anchor="middle" x="3660.69" y="-1493.3" font-family="Times,serif" font-size="14.00">Drasil.DocumentLanguage.Notebook.Core</text>
</g>
<!-- u4&#45;&gt;u2 -->
<g id="edge6" class="edge">
<title>u4&#45;&gt;u2</title>
<path fill="none" stroke="black" d="M3660.69,-1831.59C3660.69,-1774.74 3660.69,-1594.19 3660.69,-1525.18"/>
<polygon fill="black" stroke="black" points="3664.19,-1525.1 3660.69,-1515.1 3657.19,-1525.1 3664.19,-1525.1"/>
</g>
<!-- u3&#45;&gt;u4 -->
<g id="edge3" class="edge">
<title>u3&#45;&gt;u4</title>
<path fill="none" stroke="black" d="M3847.92,-2183.64C3815.81,-2126.6 3713.42,-1944.69 3675.23,-1876.84"/>
<polygon fill="black" stroke="black" points="3678.24,-1875.05 3670.28,-1868.05 3672.14,-1878.48 3678.24,-1875.05"/>
</g>
<!-- u11 -->
<g id="node18" class="node">
<title>u11</title>
<ellipse fill="#bbffff" stroke="black" cx="4054.69" cy="-1850" rx="155.97" ry="18"/>
<text text-anchor="middle" x="4054.69" y="-1846.3" font-family="Times,serif" font-size="14.00">Drasil.NBSections.Introduction</text>
</g>
<!-- u3&#45;&gt;u11 -->
<g id="edge5" class="edge">
<title>u3&#45;&gt;u11</title>
<path fill="none" stroke="black" d="M3867.46,-2183.64C3899.56,-2126.6 4001.95,-1944.69 4040.14,-1876.84"/>
<polygon fill="black" stroke="black" points="4043.24,-1878.48 4045.09,-1868.05 4037.14,-1875.05 4043.24,-1878.48"/>
</g>
<!-- u10 -->
<g id="node19" class="node">
<title>u10</title>
<ellipse fill="#bbffff" stroke="black" cx="4350.69" cy="-1850" rx="122.38" ry="18"/>
<text text-anchor="middle" x="4350.69" y="-1846.3" font-family="Times,serif" font-size="14.00">Drasil.NBSections.Body</text>
</g>
<!-- u3&#45;&gt;u10 -->
<g id="edge4" class="edge">
<title>u3&#45;&gt;u10</title>
<path fill="none" stroke="black" d="M3881.8,-2183.88C3963.08,-2126.18 4227.05,-1938.78 4318.86,-1873.59"/>
<polygon fill="black" stroke="black" points="4321.07,-1876.32 4327.2,-1867.68 4317.02,-1870.61 4321.07,-1876.32"/>
</g>
<!-- u11&#45;&gt;u15 -->
<g id="edge14" class="edge">
<title>u11&#45;&gt;u15</title>
<path fill="none" stroke="black" d="M4062.03,-1831.59C4086.1,-1774.5 4162.76,-1592.7 4191.58,-1524.33"/>
<polygon fill="black" stroke="black" points="4194.82,-1525.67 4195.48,-1515.1 4188.37,-1522.95 4194.82,-1525.67"/>
</g>
<!-- u10&#45;&gt;u15 -->
<g id="edge13" class="edge">
<title>u10&#45;&gt;u15</title>
<path fill="none" stroke="black" d="M4343.35,-1831.59C4319.28,-1774.5 4242.62,-1592.7 4213.79,-1524.33"/>
<polygon fill="black" stroke="black" points="4217.01,-1522.95 4209.9,-1515.1 4210.56,-1525.67 4217.01,-1522.95"/>
</g>
<!-- u30&#45;&gt;u13 -->
<g id="edge51" class="edge">
<title>u30&#45;&gt;u13</title>
<path fill="none" stroke="black" d="M159.05,-1479.12C217.61,-1422.19 408.01,-1237.08 476.69,-1170.3"/>
<polygon fill="black" stroke="black" points="479.35,-1172.6 484.08,-1163.12 474.47,-1167.58 479.35,-1172.6"/>
</g>
<!-- u30&#45;&gt;u6 -->
<g id="edge50" class="edge">
<title>u30&#45;&gt;u6</title>
<path fill="none" stroke="black" d="M151.32,-1478.95C182.21,-1424.85 282.99,-1253.22 387.69,-1127 623.4,-842.84 962.95,-548.3 1061.75,-464.49"/>
<polygon fill="black" stroke="black" points="1064.13,-467.06 1069.5,-457.93 1059.61,-461.72 1064.13,-467.06"/>
</g>
<!-- u29&#45;&gt;u13 -->
<g id="edge49" class="edge">
<title>u29&#45;&gt;u13</title>
<path fill="none" stroke="black" d="M930.73,-1834.79C790,-1804.46 496.76,-1718.79 373.69,-1515 302.06,-1396.4 426.31,-1232.05 479.39,-1170.54"/>
<polygon fill="black" stroke="black" points="482.14,-1172.72 486.09,-1162.89 476.87,-1168.11 482.14,-1172.72"/>
</g>
<!-- u27&#45;&gt;u13 -->
<g id="edge48" class="edge">
<title>u27&#45;&gt;u13</title>
<path fill="none" stroke="black" d="M1321.07,-1479.47C1178.87,-1421.6 703.69,-1228.21 550.05,-1165.68"/>
<polygon fill="black" stroke="black" points="550.99,-1162.28 540.4,-1161.76 548.35,-1168.77 550.99,-1162.28"/>
</g>
<!-- u27&#45;&gt;u5 -->
<g id="edge47" class="edge">
<title>u27&#45;&gt;u5</title>
<path fill="none" stroke="black" d="M1364.51,-1478.86C1377.07,-1401.67 1428.24,-1078.45 1448.69,-811 1469.36,-540.71 1468.67,-212.03 1467.95,-116.34"/>
<polygon fill="black" stroke="black" points="1471.45,-116.06 1467.87,-106.09 1464.45,-116.12 1471.45,-116.06"/>
</g>
<!-- u26&#45;&gt;u1 -->
<g id="edge46" class="edge">
<title>u26&#45;&gt;u1</title>
<path fill="none" stroke="black" d="M1752.31,-1479.12C1829.07,-1421.83 2079.74,-1234.77 2167.78,-1169.07"/>
<polygon fill="black" stroke="black" points="2170.1,-1171.7 2176.02,-1162.92 2165.91,-1166.09 2170.1,-1171.7"/>
</g>
<!-- u25&#45;&gt;u13 -->
<g id="edge45" class="edge">
<title>u25&#45;&gt;u13</title>
<path fill="none" stroke="black" d="M3079.51,-1483.28C2658.98,-1428.26 998.95,-1211.06 592.08,-1157.83"/>
<polygon fill="black" stroke="black" points="592.49,-1154.35 582.12,-1156.52 591.58,-1161.29 592.49,-1154.35"/>
</g>
<!-- u25&#45;&gt;u5 -->
<g id="edge44" class="edge">
<title>u25&#45;&gt;u5</title>
<path fill="none" stroke="black" d="M3156,-1478.97C2977.85,-1332.3 1704.17,-283.69 1496.33,-112.58"/>
<polygon fill="black" stroke="black" points="1498.25,-109.63 1488.31,-105.98 1493.8,-115.03 1498.25,-109.63"/>
</g>
<!-- u24&#45;&gt;u1 -->
<g id="edge43" class="edge">
<title>u24&#45;&gt;u1</title>
<path fill="none" stroke="black" d="M2818.29,-1479.12C2710.86,-1421.36 2358.06,-1231.68 2238.62,-1167.47"/>
<polygon fill="black" stroke="black" points="2240.24,-1164.36 2229.77,-1162.71 2236.92,-1170.53 2240.24,-1164.36"/>
</g>
<!-- u22&#45;&gt;u13 -->
<g id="edge42" class="edge">
<title>u22&#45;&gt;u13</title>
<path fill="none" stroke="black" d="M572.97,-1478.64C560.82,-1421.95 522.24,-1241.92 507.5,-1173.1"/>
<polygon fill="black" stroke="black" points="510.86,-1172.09 505.34,-1163.05 504.01,-1173.56 510.86,-1172.09"/>
</g>
<!-- u22&#45;&gt;u1 -->
<g id="edge41" class="edge">
<title>u22&#45;&gt;u1</title>
<path fill="none" stroke="black" d="M647.16,-1480.79C910.91,-1423.88 1838.83,-1223.65 2118.39,-1163.33"/>
<polygon fill="black" stroke="black" points="2119.42,-1166.69 2128.45,-1161.16 2117.94,-1159.84 2119.42,-1166.69"/>
</g>
<!-- u21&#45;&gt;u13 -->
<g id="edge40" class="edge">
<title>u21&#45;&gt;u13</title>
<path fill="none" stroke="black" d="M550.83,-1831.99C504.22,-1786.19 379.47,-1654.28 335.69,-1515 293.15,-1379.68 421.01,-1228.24 476.91,-1170.32"/>
<polygon fill="black" stroke="black" points="479.49,-1172.68 483.98,-1163.09 474.49,-1167.79 479.49,-1172.68"/>
</g>
<!-- u20&#45;&gt;u1 -->
<g id="edge39" class="edge">
<title>u20&#45;&gt;u1</title>
<path fill="none" stroke="black" d="M2511.37,-1478.64C2457.42,-1421.25 2284.65,-1237.45 2221.82,-1170.6"/>
<polygon fill="black" stroke="black" points="2224.11,-1167.94 2214.71,-1163.05 2219.01,-1172.73 2224.11,-1167.94"/>
</g>
<!-- u19&#45;&gt;u13 -->
<g id="edge38" class="edge">
<title>u19&#45;&gt;u13</title>
<path fill="none" stroke="black" d="M941.09,-1478.88C865,-1421.24 618.05,-1234.15 531.77,-1168.79"/>
<polygon fill="black" stroke="black" points="533.78,-1165.92 523.7,-1162.68 529.56,-1171.5 533.78,-1165.92"/>
</g>
<!-- u19&#45;&gt;u6 -->
<g id="edge37" class="edge">
<title>u19&#45;&gt;u6</title>
<path fill="none" stroke="black" d="M962.36,-1478.79C956.54,-1398.46 935.58,-1052.45 982.69,-775 1002.69,-657.17 1054.92,-523.68 1078.2,-467.81"/>
<polygon fill="black" stroke="black" points="1081.55,-468.88 1082.2,-458.3 1075.1,-466.17 1081.55,-468.88"/>
</g>
</g>
</svg>
