<?xml version="1.0" encoding="UTF-8" standalone="no"?>
<!DOCTYPE svg PUBLIC "-//W3C//DTD SVG 1.1//EN"
 "http://www.w3.org/Graphics/SVG/1.1/DTD/svg11.dtd">
<!-- Generated by graphviz version 2.43.0 (0)
 -->
<!-- Title: G Pages: 1 -->
<svg width="432pt" height="288pt"
 viewBox="0.00 0.00 431.54 288.00" xmlns="http://www.w3.org/2000/svg" xmlns:xlink="http://www.w3.org/1999/xlink">
<g id="graph0" class="graph" transform="scale(7.38 7.38) rotate(0) translate(4 2121.33)">
<title>G</title>
<polygon fill="white" stroke="transparent" points="-4,4 -4,-2121.33 3180.58,-2121.33 3180.58,4 -4,4"/>
<!-- u0 -->
<g id="node1" class="node">
<title>u0</title>
<ellipse fill="#bbffbb" stroke="black" cx="1612.24" cy="-2094" rx="87.18" ry="18"/>
<text text-anchor="middle" x="1612.24" y="-2090.3" font-family="Times,serif" font-size="14.00">Language.Drasil</text>
</g>
<!-- u54 -->
<g id="node4" class="node">
<title>u54</title>
<ellipse fill="#ffffbb" stroke="black" cx="2610.24" cy="-1906" rx="145.67" ry="18"/>
<text text-anchor="middle" x="2610.24" y="-1902.3" font-family="Times,serif" font-size="14.00">Language.Drasil.Uncertainty</text>
</g>
<!-- u0&#45;&gt;u54 -->
<g id="edge11" class="edge">
<title>u0&#45;&gt;u54</title>
<path fill="none" stroke="black" d="M1698.05,-2090.87C1883.02,-2085.38 2313.61,-2067.55 2450.24,-2018 2503.11,-1998.83 2554.83,-1957.7 2584.57,-1931.25"/>
<polygon fill="black" stroke="black" points="2587.29,-1933.51 2592.36,-1924.2 2582.6,-1928.31 2587.29,-1933.51"/>
</g>
<!-- u53 -->
<g id="node5" class="node">
<title>u53</title>
<ellipse fill="#ffffbb" stroke="black" cx="1178.24" cy="-2000" rx="137.28" ry="18"/>
<text text-anchor="middle" x="1178.24" y="-1996.3" font-family="Times,serif" font-size="14.00">Language.Drasil.Document</text>
</g>
<!-- u0&#45;&gt;u53 -->
<g id="edge10" class="edge">
<title>u0&#45;&gt;u53</title>
<path fill="none" stroke="black" d="M1553.71,-2080.59C1477.15,-2064.36 1342.72,-2035.87 1257.2,-2017.74"/>
<polygon fill="black" stroke="black" points="1257.79,-2014.28 1247.28,-2015.63 1256.33,-2021.13 1257.79,-2014.28"/>
</g>
<!-- u33 -->
<g id="node27" class="node">
<title>u33</title>
<ellipse fill="#bbbbff" stroke="black" cx="1282.24" cy="-1717" rx="135.38" ry="18"/>
<text text-anchor="middle" x="1282.24" y="-1713.3" font-family="Times,serif" font-size="14.00">Language.Drasil.Chunk.Eq</text>
</g>
<!-- u0&#45;&gt;u33 -->
<g id="edge8" class="edge">
<title>u0&#45;&gt;u33</title>
<path fill="none" stroke="black" d="M1597.2,-2075.91C1544.27,-2015.76 1366.38,-1813.61 1304.04,-1742.78"/>
<polygon fill="black" stroke="black" points="1306.6,-1740.38 1297.36,-1735.19 1301.34,-1745.01 1306.6,-1740.38"/>
</g>
<!-- u28 -->
<g id="node32" class="node">
<title>u28</title>
<ellipse fill="#bbbbff" stroke="black" cx="1596.24" cy="-1717" rx="161.37" ry="18"/>
<text text-anchor="middle" x="1596.24" y="-1713.3" font-family="Times,serif" font-size="14.00">Language.Drasil.Chunk.Relation</text>
</g>
<!-- u0&#45;&gt;u28 -->
<g id="edge7" class="edge">
<title>u0&#45;&gt;u28</title>
<path fill="none" stroke="black" d="M1608.14,-2075.85C1604.74,-2060.72 1600.16,-2038.04 1598.24,-2018 1588.65,-1918.05 1592.37,-1798.5 1594.79,-1745.56"/>
<polygon fill="black" stroke="black" points="1598.3,-1745.46 1595.28,-1735.3 1591.31,-1745.12 1598.3,-1745.46"/>
</g>
<!-- u27 -->
<g id="node33" class="node">
<title>u27</title>
<ellipse fill="#bbbbff" stroke="black" cx="1849.24" cy="-2000" rx="209.06" ry="18"/>
<text text-anchor="middle" x="1849.24" y="-1996.3" font-family="Times,serif" font-size="14.00">Language.Drasil.Chunk.UncertainQuantity</text>
</g>
<!-- u0&#45;&gt;u27 -->
<g id="edge6" class="edge">
<title>u0&#45;&gt;u27</title>
<path fill="none" stroke="black" d="M1651.38,-2077.81C1691.06,-2062.4 1752.73,-2038.47 1796.66,-2021.41"/>
<polygon fill="black" stroke="black" points="1797.97,-2024.66 1806.03,-2017.77 1795.44,-2018.13 1797.97,-2024.66"/>
</g>
<!-- u26 -->
<g id="node34" class="node">
<title>u26</title>
<ellipse fill="#bbbbff" stroke="black" cx="2414.24" cy="-1811" rx="202.26" ry="18"/>
<text text-anchor="middle" x="2414.24" y="-1807.3" font-family="Times,serif" font-size="14.00">Language.Drasil.Chunk.NamedArgument</text>
</g>
<!-- u0&#45;&gt;u26 -->
<g id="edge5" class="edge">
<title>u0&#45;&gt;u26</title>
<path fill="none" stroke="black" d="M1695.94,-2088.94C1884.36,-2077.8 2332,-2039.46 2417.24,-1924 2435.23,-1899.63 2430.22,-1863.45 2423.54,-1838.86"/>
<polygon fill="black" stroke="black" points="2426.84,-1837.69 2420.63,-1829.1 2420.13,-1839.68 2426.84,-1837.69"/>
</g>
<!-- u21 -->
<g id="node39" class="node">
<title>u21</title>
<ellipse fill="#bbbbff" stroke="black" cx="2212.24" cy="-1906" rx="196.07" ry="18"/>
<text text-anchor="middle" x="2212.24" y="-1902.3" font-family="Times,serif" font-size="14.00">Language.Drasil.Chunk.UnitaryConcept</text>
</g>
<!-- u0&#45;&gt;u21 -->
<g id="edge4" class="edge">
<title>u0&#45;&gt;u21</title>
<path fill="none" stroke="black" d="M1698.32,-2091.17C1792.5,-2086.4 1946.19,-2070.38 2067.24,-2018 2115.17,-1997.26 2161.46,-1957.25 2188.37,-1931.35"/>
<polygon fill="black" stroke="black" points="2191.05,-1933.63 2195.76,-1924.13 2186.16,-1928.62 2191.05,-1933.63"/>
</g>
<!-- u5 -->
<g id="node42" class="node">
<title>u5</title>
<ellipse fill="#bbffff" stroke="black" cx="916.24" cy="-1811" rx="174.67" ry="18"/>
<text text-anchor="middle" x="916.24" y="-1807.3" font-family="Times,serif" font-size="14.00">Language.Drasil.Classes.Document</text>
</g>
<!-- u0&#45;&gt;u5 -->
<g id="edge2" class="edge">
<title>u0&#45;&gt;u5</title>
<path fill="none" stroke="black" d="M1525.98,-2091.17C1384.51,-2086.65 1111,-2071.11 1032.24,-2018 968.31,-1974.89 935.74,-1884.11 922.93,-1838.85"/>
<polygon fill="black" stroke="black" points="926.29,-1837.87 920.29,-1829.14 919.54,-1839.71 926.29,-1837.87"/>
</g>
<!-- u46 -->
<g id="node48" class="node">
<title>u46</title>
<ellipse fill="#77ff77" stroke="black" cx="1985.24" cy="-1153" rx="196.87" ry="18"/>
<text text-anchor="middle" x="1985.24" y="-1149.3" font-family="Times,serif" font-size="14.00">Language.Drasil.Development.Sentence</text>
</g>
<!-- u0&#45;&gt;u46 -->
<g id="edge9" class="edge">
<title>u0&#45;&gt;u46</title>
<path fill="none" stroke="black" d="M1610.38,-2075.93C1607.14,-2039.63 1603.25,-1952.81 1631.24,-1888 1667.2,-1804.75 1722.47,-1814.42 1766.24,-1735 1795.29,-1682.28 1785.82,-1662.31 1804.24,-1605 1857.27,-1440.02 1941.72,-1249.45 1973.04,-1180.56"/>
<polygon fill="black" stroke="black" points="1976.3,-1181.85 1977.26,-1171.3 1969.93,-1178.94 1976.3,-1181.85"/>
</g>
<!-- u1 -->
<g id="node56" class="node">
<title>u1</title>
<ellipse fill="#ff77ff" stroke="black" cx="647.24" cy="-1059" rx="170.07" ry="18"/>
<text text-anchor="middle" x="647.24" y="-1055.3" font-family="Times,serif" font-size="14.00">Language.Drasil.Sentence.Extract</text>
</g>
<!-- u0&#45;&gt;u1 -->
<g id="edge1" class="edge">
<title>u0&#45;&gt;u1</title>
<path fill="none" stroke="black" d="M1533.68,-2086.16C1303.58,-2065.08 647.24,-1997.05 647.24,-1907 647.24,-1907 647.24,-1907 647.24,-1246 647.24,-1189.67 647.24,-1123.74 647.24,-1087.45"/>
<polygon fill="black" stroke="black" points="650.74,-1087.18 647.24,-1077.18 643.74,-1087.18 650.74,-1087.18"/>
</g>
<!-- u7 -->
<g id="node57" class="node">
<title>u7</title>
<ellipse fill="#33ff33" stroke="black" cx="2754.24" cy="-2000" rx="163.57" ry="18"/>
<text text-anchor="middle" x="2754.24" y="-1996.3" font-family="Times,serif" font-size="14.00">Language.Drasil.Symbol.Helpers</text>
</g>
<!-- u0&#45;&gt;u7 -->
<g id="edge3" class="edge">
<title>u0&#45;&gt;u7</title>
<path fill="none" stroke="black" d="M1691.98,-2086.66C1853.42,-2073.8 2230.52,-2043.71 2547.24,-2018 2569.96,-2016.16 2594.08,-2014.19 2617.53,-2012.26"/>
<polygon fill="black" stroke="black" points="2617.85,-2015.75 2627.53,-2011.44 2617.28,-2008.77 2617.85,-2015.75"/>
</g>
<!-- u57 -->
<g id="node2" class="node">
<title>u57</title>
<ellipse fill="#ffffbb" stroke="black" cx="1077.24" cy="-494" rx="159.47" ry="18"/>
<text text-anchor="middle" x="1077.24" y="-490.3" font-family="Times,serif" font-size="14.00">Language.Drasil.DisplayClasses</text>
</g>
<!-- u19 -->
<g id="node17" class="node">
<title>u19</title>
<ellipse fill="#ffffbb" stroke="black" cx="982.24" cy="-400" rx="146.77" ry="18"/>
<text text-anchor="middle" x="982.24" y="-396.3" font-family="Times,serif" font-size="14.00">Language.Drasil.DisplayExpr</text>
</g>
<!-- u57&#45;&gt;u19 -->
<g id="edge84" class="edge">
<title>u57&#45;&gt;u19</title>
<path fill="none" stroke="black" d="M1059.37,-475.7C1044.68,-461.47 1023.7,-441.15 1007.33,-425.3"/>
<polygon fill="black" stroke="black" points="1009.33,-422.36 999.71,-417.92 1004.46,-427.39 1009.33,-422.36"/>
</g>
<!-- u55 -->
<g id="node3" class="node">
<title>u55</title>
<ellipse fill="#ffffbb" stroke="black" cx="1751.24" cy="-306" rx="112.38" ry="18"/>
<text text-anchor="middle" x="1751.24" y="-302.3" font-family="Times,serif" font-size="14.00">Language.Drasil.Expr</text>
</g>
<!-- u50 -->
<g id="node7" class="node">
<title>u50</title>
<ellipse fill="#ffffbb" stroke="black" cx="2009.24" cy="-212" rx="108.58" ry="18"/>
<text text-anchor="middle" x="2009.24" y="-208.3" font-family="Times,serif" font-size="14.00">Language.Drasil.UID</text>
</g>
<!-- u55&#45;&gt;u50 -->
<g id="edge83" class="edge">
<title>u55&#45;&gt;u50</title>
<path fill="none" stroke="black" d="M1795.01,-289.39C1839.53,-273.52 1908.56,-248.9 1956.17,-231.92"/>
<polygon fill="black" stroke="black" points="1957.45,-235.18 1965.69,-228.53 1955.1,-228.59 1957.45,-235.18"/>
</g>
<!-- u48 -->
<g id="node9" class="node">
<title>u48</title>
<ellipse fill="#ffffbb" stroke="black" cx="1751.24" cy="-212" rx="117.78" ry="18"/>
<text text-anchor="middle" x="1751.24" y="-208.3" font-family="Times,serif" font-size="14.00">Language.Drasil.Space</text>
</g>
<!-- u55&#45;&gt;u48 -->
<g id="edge82" class="edge">
<title>u55&#45;&gt;u48</title>
<path fill="none" stroke="black" d="M1751.24,-287.7C1751.24,-274.46 1751.24,-255.95 1751.24,-240.66"/>
<polygon fill="black" stroke="black" points="1754.74,-240.23 1751.24,-230.23 1747.74,-240.23 1754.74,-240.23"/>
</g>
<!-- u15 -->
<g id="node21" class="node">
<title>u15</title>
<ellipse fill="#ffffbb" stroke="black" cx="2333.24" cy="-1059" rx="124.58" ry="18"/>
<text text-anchor="middle" x="2333.24" y="-1055.3" font-family="Times,serif" font-size="14.00">Language.Drasil.Classes</text>
</g>
<!-- u54&#45;&gt;u15 -->
<g id="edge81" class="edge">
<title>u54&#45;&gt;u15</title>
<path fill="none" stroke="black" d="M2615.48,-1887.92C2625.01,-1855.25 2644.24,-1781.52 2644.24,-1718 2644.24,-1718 2644.24,-1718 2644.24,-1246 2644.24,-1142.81 2516.57,-1095.49 2424.83,-1074.82"/>
<polygon fill="black" stroke="black" points="2425.47,-1071.37 2414.95,-1072.66 2423.97,-1078.21 2425.47,-1071.37"/>
</g>
<!-- u51 -->
<g id="node49" class="node">
<title>u51</title>
<ellipse fill="#ffff77" stroke="black" cx="1233.24" cy="-1341" rx="161.67" ry="18"/>
<text text-anchor="middle" x="1233.24" y="-1337.3" font-family="Times,serif" font-size="14.00">Language.Drasil.Document.Core</text>
</g>
<!-- u53&#45;&gt;u51 -->
<g id="edge80" class="edge">
<title>u53&#45;&gt;u51</title>
<path fill="none" stroke="black" d="M1169.02,-1982.04C1152.43,-1949.87 1119.24,-1877.36 1119.24,-1812 1119.24,-1812 1119.24,-1812 1119.24,-1528 1119.24,-1461.63 1172.66,-1398.96 1206.37,-1366.03"/>
<polygon fill="black" stroke="black" points="1208.83,-1368.52 1213.64,-1359.08 1203.99,-1363.46 1208.83,-1368.52"/>
</g>
<!-- u52 -->
<g id="node6" class="node">
<title>u52</title>
<ellipse fill="#ffffbb" stroke="black" cx="2754.24" cy="-2094" rx="145.67" ry="18"/>
<text text-anchor="middle" x="2754.24" y="-2090.3" font-family="Times,serif" font-size="14.00">Language.Drasil.ShortHands</text>
</g>
<!-- u52&#45;&gt;u7 -->
<g id="edge79" class="edge">
<title>u52&#45;&gt;u7</title>
<path fill="none" stroke="black" d="M2754.24,-2075.7C2754.24,-2062.46 2754.24,-2043.95 2754.24,-2028.66"/>
<polygon fill="black" stroke="black" points="2757.74,-2028.23 2754.24,-2018.23 2750.74,-2028.23 2757.74,-2028.23"/>
</g>
<!-- u49 -->
<g id="node8" class="node">
<title>u49</title>
<ellipse fill="#ffffbb" stroke="black" cx="1487.24" cy="-588" rx="132.68" ry="18"/>
<text text-anchor="middle" x="1487.24" y="-584.3" font-family="Times,serif" font-size="14.00">Language.Drasil.Sentence</text>
</g>
<!-- u49&#45;&gt;u57 -->
<g id="edge76" class="edge">
<title>u49&#45;&gt;u57</title>
<path fill="none" stroke="black" d="M1421.82,-572.32C1349.45,-556.08 1232.87,-529.92 1155.65,-512.6"/>
<polygon fill="black" stroke="black" points="1156.02,-509.09 1145.5,-510.32 1154.49,-515.92 1156.02,-509.09"/>
</g>
<!-- u13 -->
<g id="node23" class="node">
<title>u13</title>
<ellipse fill="#ffffbb" stroke="black" cx="1487.24" cy="-306" rx="133.48" ry="18"/>
<text text-anchor="middle" x="1487.24" y="-302.3" font-family="Times,serif" font-size="14.00">Language.Drasil.UnitLang</text>
</g>
<!-- u49&#45;&gt;u13 -->
<g id="edge75" class="edge">
<title>u49&#45;&gt;u13</title>
<path fill="none" stroke="black" d="M1487.24,-569.91C1487.24,-522.95 1487.24,-391.65 1487.24,-334.34"/>
<polygon fill="black" stroke="black" points="1490.74,-334.23 1487.24,-324.23 1483.74,-334.23 1490.74,-334.23"/>
</g>
<!-- u4 -->
<g id="node43" class="node">
<title>u4</title>
<ellipse fill="#bbffff" stroke="black" cx="2340.24" cy="-494" rx="149.47" ry="18"/>
<text text-anchor="middle" x="2340.24" y="-490.3" font-family="Times,serif" font-size="14.00">Language.Drasil.Classes.Core</text>
</g>
<!-- u49&#45;&gt;u4 -->
<g id="edge74" class="edge">
<title>u49&#45;&gt;u4</title>
<path fill="none" stroke="black" d="M1587.6,-576.18C1746.2,-559.07 2054.07,-525.86 2222.74,-507.67"/>
<polygon fill="black" stroke="black" points="2223.34,-511.13 2232.9,-506.58 2222.59,-504.17 2223.34,-511.13"/>
</g>
<!-- u44 -->
<g id="node10" class="node">
<title>u44</title>
<ellipse fill="#ffffbb" stroke="black" cx="1678.24" cy="-118" rx="124.28" ry="18"/>
<text text-anchor="middle" x="1678.24" y="-114.3" font-family="Times,serif" font-size="14.00">Language.Drasil.Symbol</text>
</g>
<!-- u48&#45;&gt;u44 -->
<g id="edge73" class="edge">
<title>u48&#45;&gt;u44</title>
<path fill="none" stroke="black" d="M1737.51,-193.7C1726.43,-179.73 1710.68,-159.89 1698.21,-144.16"/>
<polygon fill="black" stroke="black" points="1700.62,-141.57 1691.66,-135.92 1695.14,-145.93 1700.62,-141.57"/>
</g>
<!-- u18 -->
<g id="node18" class="node">
<title>u18</title>
<ellipse fill="#ffffbb" stroke="black" cx="1678.24" cy="-24" rx="128.08" ry="18"/>
<text text-anchor="middle" x="1678.24" y="-20.3" font-family="Times,serif" font-size="14.00">Language.Drasil.Unicode</text>
</g>
<!-- u44&#45;&gt;u18 -->
<g id="edge68" class="edge">
<title>u44&#45;&gt;u18</title>
<path fill="none" stroke="black" d="M1678.24,-99.7C1678.24,-86.46 1678.24,-67.95 1678.24,-52.66"/>
<polygon fill="black" stroke="black" points="1681.74,-52.23 1678.24,-42.23 1674.74,-52.23 1681.74,-52.23"/>
</g>
<!-- u43 -->
<g id="node11" class="node">
<title>u43</title>
<ellipse fill="#ffffbb" stroke="black" cx="826.24" cy="-1153" rx="151.37" ry="18"/>
<text text-anchor="middle" x="826.24" y="-1149.3" font-family="Times,serif" font-size="14.00">Language.Drasil.Development</text>
</g>
<!-- u39 -->
<g id="node15" class="node">
<title>u39</title>
<ellipse fill="#ffffbb" stroke="black" cx="1592.24" cy="-1059" rx="146.77" ry="18"/>
<text text-anchor="middle" x="1592.24" y="-1055.3" font-family="Times,serif" font-size="14.00">Language.Drasil.NounPhrase</text>
</g>
<!-- u43&#45;&gt;u39 -->
<g id="edge67" class="edge">
<title>u43&#45;&gt;u39</title>
<path fill="none" stroke="black" d="M928.75,-1139.69C1072.52,-1122.42 1333,-1091.14 1481.21,-1073.33"/>
<polygon fill="black" stroke="black" points="1481.74,-1076.8 1491.25,-1072.13 1480.9,-1069.85 1481.74,-1076.8"/>
</g>
<!-- u10 -->
<g id="node52" class="node">
<title>u10</title>
<ellipse fill="#7777ff" stroke="black" cx="881.24" cy="-776" rx="167.87" ry="18"/>
<text text-anchor="middle" x="881.24" y="-772.3" font-family="Times,serif" font-size="14.00">Language.Drasil.Expr.Precedence</text>
</g>
<!-- u43&#45;&gt;u10 -->
<g id="edge66" class="edge">
<title>u43&#45;&gt;u10</title>
<path fill="none" stroke="black" d="M827.81,-1135C832.17,-1089.12 845.38,-959.02 864.24,-852 867.05,-836.07 871,-818.43 874.39,-804.26"/>
<polygon fill="black" stroke="black" points="877.88,-804.73 876.85,-794.18 871.08,-803.07 877.88,-804.73"/>
</g>
<!-- u43&#45;&gt;u1 -->
<g id="edge65" class="edge">
<title>u43&#45;&gt;u1</title>
<path fill="none" stroke="black" d="M793.82,-1135.34C764.39,-1120.21 720.82,-1097.82 688.83,-1081.37"/>
<polygon fill="black" stroke="black" points="690.21,-1078.15 679.72,-1076.69 687.01,-1084.38 690.21,-1078.15"/>
</g>
<!-- u42 -->
<g id="node12" class="node">
<title>u42</title>
<ellipse fill="#ffffbb" stroke="black" cx="1453.24" cy="-212" rx="124.28" ry="18"/>
<text text-anchor="middle" x="1453.24" y="-208.3" font-family="Times,serif" font-size="14.00">Language.Drasil.Display</text>
</g>
<!-- u42&#45;&gt;u44 -->
<g id="edge64" class="edge">
<title>u42&#45;&gt;u44</title>
<path fill="none" stroke="black" d="M1492.69,-194.87C1530.73,-179.32 1588.39,-155.74 1629.33,-139"/>
<polygon fill="black" stroke="black" points="1630.9,-142.14 1638.84,-135.11 1628.25,-135.66 1630.9,-142.14"/>
</g>
<!-- u41 -->
<g id="node13" class="node">
<title>u41</title>
<ellipse fill="#ffffbb" stroke="black" cx="120.24" cy="-965" rx="120.48" ry="18"/>
<text text-anchor="middle" x="120.24" y="-961.3" font-family="Times,serif" font-size="14.00">Language.Drasil.People</text>
</g>
<!-- u40 -->
<g id="node14" class="node">
<title>u40</title>
<ellipse fill="#ffffbb" stroke="black" cx="1392.24" cy="-870" rx="136.48" ry="18"/>
<text text-anchor="middle" x="1392.24" y="-866.3" font-family="Times,serif" font-size="14.00">Language.Drasil.Reference</text>
</g>
<!-- u3 -->
<g id="node44" class="node">
<title>u3</title>
<ellipse fill="#bbffff" stroke="black" cx="1392.24" cy="-776" rx="155.17" ry="18"/>
<text text-anchor="middle" x="1392.24" y="-772.3" font-family="Times,serif" font-size="14.00">Language.Drasil.Classes.Core2</text>
</g>
<!-- u40&#45;&gt;u3 -->
<g id="edge63" class="edge">
<title>u40&#45;&gt;u3</title>
<path fill="none" stroke="black" d="M1392.24,-851.7C1392.24,-838.46 1392.24,-819.95 1392.24,-804.66"/>
<polygon fill="black" stroke="black" points="1395.74,-804.23 1392.24,-794.23 1388.74,-804.23 1395.74,-804.23"/>
</g>
<!-- u47 -->
<g id="node55" class="node">
<title>u47</title>
<ellipse fill="#77ffff" stroke="black" cx="1587.24" cy="-965" rx="171.67" ry="18"/>
<text text-anchor="middle" x="1587.24" y="-961.3" font-family="Times,serif" font-size="14.00">Language.Drasil.NounPhrase.Core</text>
</g>
<!-- u39&#45;&gt;u47 -->
<g id="edge62" class="edge">
<title>u39&#45;&gt;u47</title>
<path fill="none" stroke="black" d="M1591.3,-1040.7C1590.57,-1027.33 1589.55,-1008.59 1588.72,-993.22"/>
<polygon fill="black" stroke="black" points="1592.21,-993.02 1588.18,-983.23 1585.22,-993.4 1592.21,-993.02"/>
</g>
<!-- u36 -->
<g id="node16" class="node">
<title>u36</title>
<ellipse fill="#ffffbb" stroke="black" cx="1961.24" cy="-965" rx="184.67" ry="18"/>
<text text-anchor="middle" x="1961.24" y="-961.3" font-family="Times,serif" font-size="14.00">Language.Drasil.DecoratedReference</text>
</g>
<!-- u36&#45;&gt;u40 -->
<g id="edge59" class="edge">
<title>u36&#45;&gt;u40</title>
<path fill="none" stroke="black" d="M1871.08,-949.26C1765.44,-932 1591.31,-903.54 1484.69,-886.11"/>
<polygon fill="black" stroke="black" points="1485.02,-882.62 1474.59,-884.46 1483.89,-889.53 1485.02,-882.62"/>
</g>
<!-- u19&#45;&gt;u55 -->
<g id="edge34" class="edge">
<title>u19&#45;&gt;u55</title>
<path fill="none" stroke="black" d="M1087.95,-387.5C1216.14,-373.39 1438.69,-348.32 1629.24,-324 1639.29,-322.72 1649.79,-321.33 1660.24,-319.91"/>
<polygon fill="black" stroke="black" points="1660.79,-323.37 1670.23,-318.55 1659.85,-316.44 1660.79,-323.37"/>
</g>
<!-- u17 -->
<g id="node19" class="node">
<title>u17</title>
<ellipse fill="#ffffbb" stroke="black" cx="2402.24" cy="-870" rx="138.38" ry="18"/>
<text text-anchor="middle" x="2402.24" y="-866.3" font-family="Times,serif" font-size="14.00">Language.Drasil.Derivation</text>
</g>
<!-- u17&#45;&gt;u49 -->
<g id="edge33" class="edge">
<title>u17&#45;&gt;u49</title>
<path fill="none" stroke="black" d="M2350.75,-853.25C2193.2,-805.03 1718.04,-659.63 1548.32,-607.69"/>
<polygon fill="black" stroke="black" points="1549.13,-604.28 1538.54,-604.7 1547.08,-610.97 1549.13,-604.28"/>
</g>
<!-- u16 -->
<g id="node20" class="node">
<title>u16</title>
<ellipse fill="#ffffbb" stroke="black" cx="1247.24" cy="-1153" rx="111.58" ry="18"/>
<text text-anchor="middle" x="1247.24" y="-1149.3" font-family="Times,serif" font-size="14.00">Language.Drasil.Misc</text>
</g>
<!-- u15&#45;&gt;u36 -->
<g id="edge30" class="edge">
<title>u15&#45;&gt;u36</title>
<path fill="none" stroke="black" d="M2273.06,-1043.12C2208.38,-1027.12 2105.49,-1001.68 2035.75,-984.43"/>
<polygon fill="black" stroke="black" points="2036.25,-980.95 2025.71,-981.94 2034.57,-987.74 2036.25,-980.95"/>
</g>
<!-- u15&#45;&gt;u17 -->
<g id="edge29" class="edge">
<title>u15&#45;&gt;u17</title>
<path fill="none" stroke="black" d="M2413.11,-1044.99C2449.49,-1034.63 2489.26,-1016.11 2511.24,-983 2534.86,-947.42 2488.24,-913.26 2448.82,-892.22"/>
<polygon fill="black" stroke="black" points="2450.01,-888.89 2439.51,-887.42 2446.8,-895.11 2450.01,-888.89"/>
</g>
<!-- u6 -->
<g id="node25" class="node">
<title>u6</title>
<ellipse fill="#ffffbb" stroke="black" cx="2374.24" cy="-682" rx="139.18" ry="18"/>
<text text-anchor="middle" x="2374.24" y="-678.3" font-family="Times,serif" font-size="14.00">Language.Drasil.Constraint</text>
</g>
<!-- u15&#45;&gt;u6 -->
<g id="edge28" class="edge">
<title>u15&#45;&gt;u6</title>
<path fill="none" stroke="black" d="M2414.35,-1045.31C2454.11,-1034.99 2499.49,-1016.4 2528.24,-983 2556.44,-950.22 2544.54,-930.99 2549.24,-888 2550.98,-872.09 2555.49,-866.73 2549.24,-852 2521.22,-785.98 2453.38,-733.19 2410.87,-705.12"/>
<polygon fill="black" stroke="black" points="2412.76,-702.18 2402.47,-699.68 2408.95,-708.05 2412.76,-702.18"/>
</g>
<!-- u15&#45;&gt;u47 -->
<g id="edge31" class="edge">
<title>u15&#45;&gt;u47</title>
<path fill="none" stroke="black" d="M2241.77,-1046.72C2106.37,-1030.02 1852.65,-998.73 1704,-980.4"/>
<polygon fill="black" stroke="black" points="1704.28,-976.91 1693.92,-979.16 1703.42,-983.85 1704.28,-976.91"/>
</g>
<!-- u56 -->
<g id="node59" class="node">
<title>u56</title>
<ellipse fill="#3333ff" stroke="black" cx="2333.24" cy="-965" rx="168.97" ry="18"/>
<text text-anchor="middle" x="2333.24" y="-961.3" font-family="Times,serif" font-size="14.00">Language.Drasil.Uncertainty.Core</text>
</g>
<!-- u15&#45;&gt;u56 -->
<g id="edge32" class="edge">
<title>u15&#45;&gt;u56</title>
<path fill="none" stroke="black" d="M2333.24,-1040.7C2333.24,-1027.46 2333.24,-1008.95 2333.24,-993.66"/>
<polygon fill="black" stroke="black" points="2336.74,-993.23 2333.24,-983.23 2329.74,-993.23 2336.74,-993.23"/>
</g>
<!-- u14 -->
<g id="node22" class="node">
<title>u14</title>
<ellipse fill="#ffffbb" stroke="black" cx="2340.24" cy="-400" rx="121.58" ry="18"/>
<text text-anchor="middle" x="2340.24" y="-396.3" font-family="Times,serif" font-size="14.00">Language.Drasil.Stages</text>
</g>
<!-- u13&#45;&gt;u44 -->
<g id="edge27" class="edge">
<title>u13&#45;&gt;u44</title>
<path fill="none" stroke="black" d="M1512.5,-288.29C1533.3,-273.98 1563.03,-252.22 1586.24,-230 1614.42,-203.03 1642.39,-167.75 1659.96,-144.28"/>
<polygon fill="black" stroke="black" points="1662.8,-146.33 1665.94,-136.21 1657.17,-142.16 1662.8,-146.33"/>
</g>
<!-- u8 -->
<g id="node24" class="node">
<title>u8</title>
<ellipse fill="#ffffbb" stroke="black" cx="1402.24" cy="-682" rx="142.97" ry="18"/>
<text text-anchor="middle" x="1402.24" y="-678.3" font-family="Times,serif" font-size="14.00">Language.Drasil.ShortName</text>
</g>
<!-- u8&#45;&gt;u49 -->
<g id="edge22" class="edge">
<title>u8&#45;&gt;u49</title>
<path fill="none" stroke="black" d="M1418.23,-663.7C1431.37,-649.47 1450.14,-629.15 1464.79,-613.3"/>
<polygon fill="black" stroke="black" points="1467.39,-615.64 1471.61,-605.92 1462.25,-610.89 1467.39,-615.64"/>
</g>
<!-- u6&#45;&gt;u55 -->
<g id="edge20" class="edge">
<title>u6&#45;&gt;u55</title>
<path fill="none" stroke="black" d="M2346.26,-664.2C2245.41,-603.66 1900.52,-396.61 1787.45,-328.74"/>
<polygon fill="black" stroke="black" points="1789.16,-325.68 1778.79,-323.54 1785.56,-331.69 1789.16,-325.68"/>
</g>
<!-- u34 -->
<g id="node26" class="node">
<title>u34</title>
<ellipse fill="#bbbbff" stroke="black" cx="2188.24" cy="-1717" rx="157.87" ry="18"/>
<text text-anchor="middle" x="2188.24" y="-1713.3" font-family="Times,serif" font-size="14.00">Language.Drasil.Chunk.Unitary</text>
</g>
<!-- u32 -->
<g id="node28" class="node">
<title>u32</title>
<ellipse fill="#bbbbff" stroke="black" cx="2390.24" cy="-1623" rx="163.27" ry="18"/>
<text text-anchor="middle" x="2390.24" y="-1619.3" font-family="Times,serif" font-size="14.00">Language.Drasil.Chunk.Quantity</text>
</g>
<!-- u34&#45;&gt;u32 -->
<g id="edge57" class="edge">
<title>u34&#45;&gt;u32</title>
<path fill="none" stroke="black" d="M2224.82,-1699.34C2258.32,-1684.08 2308.05,-1661.43 2344.24,-1644.95"/>
<polygon fill="black" stroke="black" points="2345.94,-1648.02 2353.59,-1640.69 2343.04,-1641.65 2345.94,-1648.02"/>
</g>
<!-- u33&#45;&gt;u32 -->
<g id="edge56" class="edge">
<title>u33&#45;&gt;u32</title>
<path fill="none" stroke="black" d="M1377.45,-1704.16C1393.71,-1702.31 1410.45,-1700.51 1426.24,-1699 1777.58,-1665.41 1866.6,-1671.25 2218.24,-1641 2233.32,-1639.7 2249.14,-1638.26 2264.82,-1636.77"/>
<polygon fill="black" stroke="black" points="2265.47,-1640.22 2275.09,-1635.79 2264.8,-1633.26 2265.47,-1640.22"/>
</g>
<!-- u9 -->
<g id="node53" class="node">
<title>u9</title>
<ellipse fill="#7777ff" stroke="black" cx="1022.24" cy="-870" rx="148.67" ry="18"/>
<text text-anchor="middle" x="1022.24" y="-866.3" font-family="Times,serif" font-size="14.00">Language.Drasil.Expr.Display</text>
</g>
<!-- u33&#45;&gt;u9 -->
<g id="edge55" class="edge">
<title>u33&#45;&gt;u9</title>
<path fill="none" stroke="black" d="M1262.76,-1699.06C1199.71,-1642.23 1005.24,-1450.52 1005.24,-1248 1005.24,-1248 1005.24,-1248 1005.24,-1058 1005.24,-1001.13 1013.13,-934.93 1018.16,-898.52"/>
<polygon fill="black" stroke="black" points="1021.68,-898.62 1019.62,-888.23 1014.75,-897.64 1021.68,-898.62"/>
</g>
<!-- u29 -->
<g id="node31" class="node">
<title>u29</title>
<ellipse fill="#bbbbff" stroke="black" cx="2011.24" cy="-1529" rx="165.17" ry="18"/>
<text text-anchor="middle" x="2011.24" y="-1525.3" font-family="Times,serif" font-size="14.00">Language.Drasil.Chunk.UnitDefn</text>
</g>
<!-- u32&#45;&gt;u29 -->
<g id="edge54" class="edge">
<title>u32&#45;&gt;u29</title>
<path fill="none" stroke="black" d="M2325.95,-1606.39C2259.42,-1590.24 2155.63,-1565.05 2085.61,-1548.05"/>
<polygon fill="black" stroke="black" points="2086.07,-1544.56 2075.53,-1545.61 2084.42,-1551.37 2086.07,-1544.56"/>
</g>
<!-- u12 -->
<g id="node50" class="node">
<title>u12</title>
<ellipse fill="#7777ff" stroke="black" cx="2333.24" cy="-1529" rx="138.38" ry="18"/>
<text text-anchor="middle" x="2333.24" y="-1525.3" font-family="Times,serif" font-size="14.00">Language.Drasil.Expr.Math</text>
</g>
<!-- u32&#45;&gt;u12 -->
<g id="edge53" class="edge">
<title>u32&#45;&gt;u12</title>
<path fill="none" stroke="black" d="M2379.52,-1604.7C2371,-1590.95 2358.95,-1571.5 2349.28,-1555.9"/>
<polygon fill="black" stroke="black" points="2352.15,-1553.88 2343.91,-1547.23 2346.2,-1557.57 2352.15,-1553.88"/>
</g>
<!-- u31 -->
<g id="node29" class="node">
<title>u31</title>
<ellipse fill="#bbbbff" stroke="black" cx="2011.24" cy="-1623" rx="198.47" ry="18"/>
<text text-anchor="middle" x="2011.24" y="-1619.3" font-family="Times,serif" font-size="14.00">Language.Drasil.Chunk.DefinedQuantity</text>
</g>
<!-- u31&#45;&gt;u29 -->
<g id="edge52" class="edge">
<title>u31&#45;&gt;u29</title>
<path fill="none" stroke="black" d="M2011.24,-1604.7C2011.24,-1591.46 2011.24,-1572.95 2011.24,-1557.66"/>
<polygon fill="black" stroke="black" points="2014.74,-1557.23 2011.24,-1547.23 2007.74,-1557.23 2014.74,-1557.23"/>
</g>
<!-- u31&#45;&gt;u12 -->
<g id="edge51" class="edge">
<title>u31&#45;&gt;u12</title>
<path fill="none" stroke="black" d="M2068.44,-1605.66C2124.64,-1589.6 2210.27,-1565.13 2268.84,-1548.4"/>
<polygon fill="black" stroke="black" points="2270.07,-1551.69 2278.72,-1545.58 2268.15,-1544.96 2270.07,-1551.69"/>
</g>
<!-- u30 -->
<g id="node30" class="node">
<title>u30</title>
<ellipse fill="#bbbbff" stroke="black" cx="1819.24" cy="-1906" rx="178.97" ry="18"/>
<text text-anchor="middle" x="1819.24" y="-1902.3" font-family="Times,serif" font-size="14.00">Language.Drasil.Chunk.Constrained</text>
</g>
<!-- u25 -->
<g id="node35" class="node">
<title>u25</title>
<ellipse fill="#bbbbff" stroke="black" cx="2002.24" cy="-1811" rx="151.37" ry="18"/>
<text text-anchor="middle" x="2002.24" y="-1807.3" font-family="Times,serif" font-size="14.00">Language.Drasil.Chunk.Unital</text>
</g>
<!-- u30&#45;&gt;u25 -->
<g id="edge50" class="edge">
<title>u30&#45;&gt;u25</title>
<path fill="none" stroke="black" d="M1852.38,-1888.16C1882.57,-1872.82 1927.3,-1850.09 1960.03,-1833.45"/>
<polygon fill="black" stroke="black" points="1962.02,-1836.37 1969.35,-1828.72 1958.85,-1830.13 1962.02,-1836.37"/>
</g>
<!-- u20 -->
<g id="node40" class="node">
<title>u20</title>
<ellipse fill="#bbbbff" stroke="black" cx="1598.24" cy="-1435" rx="160.57" ry="18"/>
<text text-anchor="middle" x="1598.24" y="-1431.3" font-family="Times,serif" font-size="14.00">Language.Drasil.Chunk.Concept</text>
</g>
<!-- u29&#45;&gt;u20 -->
<g id="edge49" class="edge">
<title>u29&#45;&gt;u20</title>
<path fill="none" stroke="black" d="M1942.11,-1512.6C1868.93,-1496.3 1753.62,-1470.61 1676.98,-1453.54"/>
<polygon fill="black" stroke="black" points="1677.43,-1450.05 1666.9,-1451.3 1675.9,-1456.89 1677.43,-1450.05"/>
</g>
<!-- u28&#45;&gt;u20 -->
<g id="edge48" class="edge">
<title>u28&#45;&gt;u20</title>
<path fill="none" stroke="black" d="M1596.36,-1698.91C1596.7,-1651.95 1597.63,-1520.65 1598.04,-1463.34"/>
<polygon fill="black" stroke="black" points="1601.54,-1463.25 1598.12,-1453.23 1594.54,-1463.2 1601.54,-1463.25"/>
</g>
<!-- u27&#45;&gt;u30 -->
<g id="edge47" class="edge">
<title>u27&#45;&gt;u30</title>
<path fill="none" stroke="black" d="M1843.6,-1981.7C1839.2,-1968.2 1833.01,-1949.23 1827.97,-1933.78"/>
<polygon fill="black" stroke="black" points="1831.28,-1932.65 1824.86,-1924.23 1824.63,-1934.82 1831.28,-1932.65"/>
</g>
<!-- u26&#45;&gt;u32 -->
<g id="edge46" class="edge">
<title>u26&#45;&gt;u32</title>
<path fill="none" stroke="black" d="M2412.02,-1792.83C2407.85,-1760.45 2398.77,-1690.09 2393.75,-1651.2"/>
<polygon fill="black" stroke="black" points="2397.2,-1650.59 2392.45,-1641.12 2390.26,-1651.49 2397.2,-1650.59"/>
</g>
<!-- u25&#45;&gt;u34 -->
<g id="edge45" class="edge">
<title>u25&#45;&gt;u34</title>
<path fill="none" stroke="black" d="M2035.92,-1793.34C2066.64,-1778.15 2112.17,-1755.62 2145.45,-1739.16"/>
<polygon fill="black" stroke="black" points="2147.08,-1742.26 2154.49,-1734.69 2143.98,-1735.99 2147.08,-1742.26"/>
</g>
<!-- u25&#45;&gt;u31 -->
<g id="edge44" class="edge">
<title>u25&#45;&gt;u31</title>
<path fill="none" stroke="black" d="M2003.07,-1792.83C2004.64,-1760.45 2008.04,-1690.09 2009.92,-1651.2"/>
<polygon fill="black" stroke="black" points="2013.42,-1651.28 2010.41,-1641.12 2006.43,-1650.94 2013.42,-1651.28"/>
</g>
<!-- u24 -->
<g id="node36" class="node">
<title>u24</title>
<ellipse fill="#bbbbff" stroke="black" cx="1192.24" cy="-1247" rx="159.47" ry="18"/>
<text text-anchor="middle" x="1192.24" y="-1243.3" font-family="Times,serif" font-size="14.00">Language.Drasil.Chunk.Citation</text>
</g>
<!-- u24&#45;&gt;u16 -->
<g id="edge43" class="edge">
<title>u24&#45;&gt;u16</title>
<path fill="none" stroke="black" d="M1202.58,-1228.7C1210.8,-1214.95 1222.43,-1195.5 1231.76,-1179.9"/>
<polygon fill="black" stroke="black" points="1234.81,-1181.61 1236.94,-1171.23 1228.81,-1178.01 1234.81,-1181.61"/>
</g>
<!-- u24&#45;&gt;u3 -->
<g id="edge42" class="edge">
<title>u24&#45;&gt;u3</title>
<path fill="none" stroke="black" d="M1170.46,-1228.91C1154.84,-1215.18 1135.06,-1194.37 1126.24,-1171 1120.59,-1156.03 1123.03,-1150.67 1126.24,-1135 1153.69,-1000.99 1154.12,-952.21 1247.24,-852 1270.38,-827.1 1303.67,-809.07 1332.51,-796.93"/>
<polygon fill="black" stroke="black" points="1334.15,-800.05 1342.1,-793.05 1331.52,-793.56 1334.15,-800.05"/>
</g>
<!-- u2 -->
<g id="node45" class="node">
<title>u2</title>
<ellipse fill="#bbffff" stroke="black" cx="378.24" cy="-1153" rx="169.77" ry="18"/>
<text text-anchor="middle" x="378.24" y="-1149.3" font-family="Times,serif" font-size="14.00">Language.Drasil.Classes.Citations</text>
</g>
<!-- u24&#45;&gt;u2 -->
<g id="edge41" class="edge">
<title>u24&#45;&gt;u2</title>
<path fill="none" stroke="black" d="M1083.73,-1233.74C932.2,-1216.61 658.08,-1185.63 499.84,-1167.74"/>
<polygon fill="black" stroke="black" points="499.92,-1164.23 489.59,-1166.59 499.13,-1171.19 499.92,-1164.23"/>
</g>
<!-- u23 -->
<g id="node37" class="node">
<title>u23</title>
<ellipse fill="#bbbbff" stroke="black" cx="1595.24" cy="-1153" rx="175.47" ry="18"/>
<text text-anchor="middle" x="1595.24" y="-1149.3" font-family="Times,serif" font-size="14.00">Language.Drasil.Chunk.NamedIdea</text>
</g>
<!-- u23&#45;&gt;u39 -->
<g id="edge40" class="edge">
<title>u23&#45;&gt;u39</title>
<path fill="none" stroke="black" d="M1594.68,-1134.7C1594.24,-1121.46 1593.64,-1102.95 1593.14,-1087.66"/>
<polygon fill="black" stroke="black" points="1596.63,-1087.11 1592.8,-1077.23 1589.63,-1087.34 1596.63,-1087.11"/>
</g>
<!-- u23&#45;&gt;u15 -->
<g id="edge39" class="edge">
<title>u23&#45;&gt;u15</title>
<path fill="none" stroke="black" d="M1702.16,-1138.67C1844.11,-1120.98 2093.02,-1089.95 2232.03,-1072.62"/>
<polygon fill="black" stroke="black" points="2232.77,-1076.05 2242.26,-1071.34 2231.91,-1069.11 2232.77,-1076.05"/>
</g>
<!-- u22 -->
<g id="node38" class="node">
<title>u22</title>
<ellipse fill="#bbbbff" stroke="black" cx="1598.24" cy="-1247" rx="183.07" ry="18"/>
<text text-anchor="middle" x="1598.24" y="-1243.3" font-family="Times,serif" font-size="14.00">Language.Drasil.Chunk.CommonIdea</text>
</g>
<!-- u22&#45;&gt;u16 -->
<g id="edge37" class="edge">
<title>u22&#45;&gt;u16</title>
<path fill="none" stroke="black" d="M1537.1,-1229.97C1474.46,-1213.56 1377.38,-1188.11 1313.08,-1171.26"/>
<polygon fill="black" stroke="black" points="1313.61,-1167.78 1303.05,-1168.63 1311.84,-1174.55 1313.61,-1167.78"/>
</g>
<!-- u22&#45;&gt;u23 -->
<g id="edge38" class="edge">
<title>u22&#45;&gt;u23</title>
<path fill="none" stroke="black" d="M1597.68,-1228.7C1597.24,-1215.46 1596.64,-1196.95 1596.14,-1181.66"/>
<polygon fill="black" stroke="black" points="1599.63,-1181.11 1595.8,-1171.23 1592.63,-1181.34 1599.63,-1181.11"/>
</g>
<!-- u21&#45;&gt;u34 -->
<g id="edge36" class="edge">
<title>u21&#45;&gt;u34</title>
<path fill="none" stroke="black" d="M2210.02,-1887.74C2205.85,-1855.18 2196.77,-1784.44 2191.75,-1745.35"/>
<polygon fill="black" stroke="black" points="2195.19,-1744.69 2190.45,-1735.22 2188.25,-1745.58 2195.19,-1744.69"/>
</g>
<!-- u35 -->
<g id="node41" class="node">
<title>u35</title>
<ellipse fill="#ffbbbb" stroke="black" cx="1598.24" cy="-1341" rx="185.47" ry="18"/>
<text text-anchor="middle" x="1598.24" y="-1337.3" font-family="Times,serif" font-size="14.00">Language.Drasil.Chunk.Concept.Core</text>
</g>
<!-- u20&#45;&gt;u35 -->
<g id="edge35" class="edge">
<title>u20&#45;&gt;u35</title>
<path fill="none" stroke="black" d="M1598.24,-1416.7C1598.24,-1403.46 1598.24,-1384.95 1598.24,-1369.66"/>
<polygon fill="black" stroke="black" points="1601.74,-1369.23 1598.24,-1359.23 1594.74,-1369.23 1601.74,-1369.23"/>
</g>
<!-- u35&#45;&gt;u22 -->
<g id="edge58" class="edge">
<title>u35&#45;&gt;u22</title>
<path fill="none" stroke="black" d="M1598.24,-1322.7C1598.24,-1309.46 1598.24,-1290.95 1598.24,-1275.66"/>
<polygon fill="black" stroke="black" points="1601.74,-1275.23 1598.24,-1265.23 1594.74,-1275.23 1601.74,-1275.23"/>
</g>
<!-- u5&#45;&gt;u24 -->
<g id="edge19" class="edge">
<title>u5&#45;&gt;u24</title>
<path fill="none" stroke="black" d="M938.65,-1792.92C975.11,-1763.01 1043.24,-1697.31 1043.24,-1624 1043.24,-1624 1043.24,-1624 1043.24,-1434 1043.24,-1383.95 1033.63,-1364.07 1062.24,-1323 1079.62,-1298.06 1108.16,-1280.27 1134.08,-1268.3"/>
<polygon fill="black" stroke="black" points="1135.74,-1271.39 1143.48,-1264.15 1132.92,-1264.99 1135.74,-1271.39"/>
</g>
<!-- u4&#45;&gt;u44 -->
<g id="edge17" class="edge">
<title>u4&#45;&gt;u44</title>
<path fill="none" stroke="black" d="M2293.84,-476.79C2265.59,-464.69 2230.9,-445.47 2209.24,-418 2143.6,-334.74 2211.68,-258.1 2127.24,-194 2077.06,-155.91 1915.22,-136.17 1800.27,-126.7"/>
<polygon fill="black" stroke="black" points="1800.25,-123.19 1790,-125.87 1799.68,-130.17 1800.25,-123.19"/>
</g>
<!-- u4&#45;&gt;u14 -->
<g id="edge16" class="edge">
<title>u4&#45;&gt;u14</title>
<path fill="none" stroke="black" d="M2340.24,-475.7C2340.24,-462.46 2340.24,-443.95 2340.24,-428.66"/>
<polygon fill="black" stroke="black" points="2343.74,-428.23 2340.24,-418.23 2336.74,-428.23 2343.74,-428.23"/>
</g>
<!-- u45 -->
<g id="node54" class="node">
<title>u45</title>
<ellipse fill="#ff7777" stroke="black" cx="2022.24" cy="-306" rx="140.28" ry="18"/>
<text text-anchor="middle" x="2022.24" y="-302.3" font-family="Times,serif" font-size="14.00">Language.Drasil.Label.Type</text>
</g>
<!-- u4&#45;&gt;u45 -->
<g id="edge18" class="edge">
<title>u4&#45;&gt;u45</title>
<path fill="none" stroke="black" d="M2386.18,-476.75C2435.88,-456.72 2503.89,-420.56 2471.24,-382 2432.69,-336.47 2283.44,-318.56 2167.48,-311.52"/>
<polygon fill="black" stroke="black" points="2167.61,-308.03 2157.43,-310.94 2167.21,-315.01 2167.61,-308.03"/>
</g>
<!-- u3&#45;&gt;u8 -->
<g id="edge15" class="edge">
<title>u3&#45;&gt;u8</title>
<path fill="none" stroke="black" d="M1394.12,-757.7C1395.57,-744.33 1397.61,-725.59 1399.28,-710.22"/>
<polygon fill="black" stroke="black" points="1402.77,-710.55 1400.37,-700.23 1395.81,-709.79 1402.77,-710.55"/>
</g>
<!-- u37 -->
<g id="node47" class="node">
<title>u37</title>
<ellipse fill="#ffbbff" stroke="black" cx="307.24" cy="-1059" rx="151.37" ry="18"/>
<text text-anchor="middle" x="307.24" y="-1055.3" font-family="Times,serif" font-size="14.00">Language.Drasil.Data.Citation</text>
</g>
<!-- u2&#45;&gt;u37 -->
<g id="edge14" class="edge">
<title>u2&#45;&gt;u37</title>
<path fill="none" stroke="black" d="M364.88,-1134.7C354.17,-1120.82 338.99,-1101.14 326.89,-1085.46"/>
<polygon fill="black" stroke="black" points="329.41,-1083.01 320.53,-1077.23 323.87,-1087.28 329.41,-1083.01"/>
</g>
<!-- u38 -->
<g id="node46" class="node">
<title>u38</title>
<ellipse fill="#ffbbff" stroke="black" cx="395.24" cy="-965" rx="136.48" ry="18"/>
<text text-anchor="middle" x="395.24" y="-961.3" font-family="Times,serif" font-size="14.00">Language.Drasil.Data.Date</text>
</g>
<!-- u37&#45;&gt;u41 -->
<g id="edge61" class="edge">
<title>u37&#45;&gt;u41</title>
<path fill="none" stroke="black" d="M273.38,-1041.34C242.3,-1026.05 196.14,-1003.34 162.63,-986.86"/>
<polygon fill="black" stroke="black" points="164.06,-983.66 153.54,-982.38 160.97,-989.94 164.06,-983.66"/>
</g>
<!-- u37&#45;&gt;u38 -->
<g id="edge60" class="edge">
<title>u37&#45;&gt;u38</title>
<path fill="none" stroke="black" d="M323.79,-1040.7C337.4,-1026.47 356.83,-1006.15 372,-990.3"/>
<polygon fill="black" stroke="black" points="374.68,-992.56 379.06,-982.92 369.62,-987.72 374.68,-992.56"/>
</g>
<!-- u46&#45;&gt;u39 -->
<g id="edge71" class="edge">
<title>u46&#45;&gt;u39</title>
<path fill="none" stroke="black" d="M1917.23,-1136.08C1847.47,-1119.75 1739.22,-1094.41 1667.07,-1077.52"/>
<polygon fill="black" stroke="black" points="1667.67,-1074.06 1657.13,-1075.19 1666.07,-1080.88 1667.67,-1074.06"/>
</g>
<!-- u46&#45;&gt;u15 -->
<g id="edge70" class="edge">
<title>u46&#45;&gt;u15</title>
<path fill="none" stroke="black" d="M2046.25,-1135.87C2107.87,-1119.58 2202.79,-1094.49 2266.4,-1077.67"/>
<polygon fill="black" stroke="black" points="2267.56,-1080.98 2276.34,-1075.04 2265.77,-1074.22 2267.56,-1080.98"/>
</g>
<!-- u51&#45;&gt;u40 -->
<g id="edge78" class="edge">
<title>u51&#45;&gt;u40</title>
<path fill="none" stroke="black" d="M1278.97,-1323.64C1306.47,-1311.53 1339.96,-1292.36 1360.24,-1265 1390.48,-1224.22 1387.24,-1204.77 1387.24,-1154 1387.24,-1154 1387.24,-1154 1387.24,-1058 1387.24,-1001.2 1389.57,-934.72 1391.05,-898.31"/>
<polygon fill="black" stroke="black" points="1394.56,-898.15 1391.48,-888.01 1387.57,-897.86 1394.56,-898.15"/>
</g>
<!-- u51&#45;&gt;u24 -->
<g id="edge77" class="edge">
<title>u51&#45;&gt;u24</title>
<path fill="none" stroke="black" d="M1225.53,-1322.7C1219.51,-1309.2 1211.06,-1290.23 1204.17,-1274.78"/>
<polygon fill="black" stroke="black" points="1207.18,-1272.94 1199.92,-1265.23 1200.79,-1275.79 1207.18,-1272.94"/>
</g>
<!-- u12&#45;&gt;u15 -->
<g id="edge26" class="edge">
<title>u12&#45;&gt;u15</title>
<path fill="none" stroke="black" d="M2333.24,-1510.82C2333.24,-1478.01 2333.24,-1404.16 2333.24,-1342 2333.24,-1342 2333.24,-1342 2333.24,-1246 2333.24,-1189.67 2333.24,-1123.74 2333.24,-1087.45"/>
<polygon fill="black" stroke="black" points="2336.74,-1087.18 2333.24,-1077.18 2329.74,-1087.18 2336.74,-1087.18"/>
</g>
<!-- u11 -->
<g id="node51" class="node">
<title>u11</title>
<ellipse fill="#7777ff" stroke="black" cx="680.24" cy="-588" rx="148.67" ry="18"/>
<text text-anchor="middle" x="680.24" y="-584.3" font-family="Times,serif" font-size="14.00">Language.Drasil.Expr.Extract</text>
</g>
<!-- u11&#45;&gt;u19 -->
<g id="edge25" class="edge">
<title>u11&#45;&gt;u19</title>
<path fill="none" stroke="black" d="M707.57,-570.17C762.24,-536.5 885.02,-460.88 946.19,-423.2"/>
<polygon fill="black" stroke="black" points="948.07,-426.15 954.75,-417.93 944.4,-420.19 948.07,-426.15"/>
</g>
<!-- u10&#45;&gt;u19 -->
<g id="edge24" class="edge">
<title>u10&#45;&gt;u19</title>
<path fill="none" stroke="black" d="M879.03,-757.79C873.71,-710.31 863.77,-574.45 909.24,-476 918.58,-455.77 935.72,-437.71 951.05,-424.39"/>
<polygon fill="black" stroke="black" points="953.42,-426.97 958.85,-417.87 948.93,-421.6 953.42,-426.97"/>
</g>
<!-- u9&#45;&gt;u57 -->
<g id="edge23" class="edge">
<title>u9&#45;&gt;u57</title>
<path fill="none" stroke="black" d="M1032.83,-851.85C1041.35,-837.11 1052.76,-814.96 1058.24,-794 1083.7,-696.54 1081.51,-575.43 1078.94,-522.22"/>
<polygon fill="black" stroke="black" points="1082.43,-522.02 1078.41,-512.22 1075.44,-522.39 1082.43,-522.02"/>
</g>
<!-- u45&#45;&gt;u50 -->
<g id="edge69" class="edge">
<title>u45&#45;&gt;u50</title>
<path fill="none" stroke="black" d="M2019.79,-287.7C2017.91,-274.33 2015.26,-255.59 2013.09,-240.22"/>
<polygon fill="black" stroke="black" points="2016.54,-239.64 2011.67,-230.23 2009.61,-240.62 2016.54,-239.64"/>
</g>
<!-- u47&#45;&gt;u49 -->
<g id="edge72" class="edge">
<title>u47&#45;&gt;u49</title>
<path fill="none" stroke="black" d="M1588.87,-946.81C1592.67,-899.38 1598.61,-763.54 1554.24,-664 1545.54,-644.49 1529.86,-626.5 1515.85,-613.03"/>
<polygon fill="black" stroke="black" points="1518.01,-610.26 1508.29,-606.03 1513.25,-615.39 1518.01,-610.26"/>
</g>
<!-- u1&#45;&gt;u49 -->
<g id="edge13" class="edge">
<title>u1&#45;&gt;u49</title>
<path fill="none" stroke="black" d="M653.09,-1040.96C663.75,-1008.37 685.24,-934.77 685.24,-871 685.24,-871 685.24,-871 685.24,-775 685.24,-640.5 1118.69,-603.23 1348.28,-592.93"/>
<polygon fill="black" stroke="black" points="1348.55,-596.42 1358.38,-592.48 1348.24,-589.42 1348.55,-596.42"/>
</g>
<!-- u1&#45;&gt;u11 -->
<g id="edge12" class="edge">
<title>u1&#45;&gt;u11</title>
<path fill="none" stroke="black" d="M647.24,-1040.98C647.24,-1008.13 647.24,-933.66 647.24,-871 647.24,-871 647.24,-871 647.24,-775 647.24,-717.69 662.62,-651.95 672.38,-616"/>
<polygon fill="black" stroke="black" points="675.78,-616.83 675.08,-606.26 669.03,-614.95 675.78,-616.83"/>
</g>
<!-- u7&#45;&gt;u4 -->
<g id="edge21" class="edge">
<title>u7&#45;&gt;u4</title>
<path fill="none" stroke="black" d="M2758.86,-1981.87C2767.28,-1949.14 2784.24,-1875.29 2784.24,-1812 2784.24,-1812 2784.24,-1812 2784.24,-681 2784.24,-603.52 2551.32,-540.7 2422.88,-511.95"/>
<polygon fill="black" stroke="black" points="2423.58,-508.52 2413.06,-509.77 2422.06,-515.36 2423.58,-508.52"/>
</g>
<!-- u58 -->
<g id="node58" class="node">
<title>u58</title>
<ellipse fill="#bbff77" stroke="black" cx="3047.24" cy="-2094" rx="129.18" ry="18"/>
<text text-anchor="middle" x="3047.24" y="-2090.3" font-family="Times,serif" font-size="14.00">Language.Drasil.URI.AST</text>
</g>
</g>
</svg>
