<?xml version="1.0" encoding="UTF-8" standalone="no"?>
<!DOCTYPE svg PUBLIC "-//W3C//DTD SVG 1.1//EN"
 "http://www.w3.org/Graphics/SVG/1.1/DTD/svg11.dtd">
<!-- Generated by graphviz version 2.43.0 (0)
 -->
<!-- Title: G Pages: 1 -->
<svg width="431pt" height="288pt"
 viewBox="0.00 0.00 431.12 288.00" xmlns="http://www.w3.org/2000/svg" xmlns:xlink="http://www.w3.org/1999/xlink">
<g id="graph0" class="graph" transform="scale(3.95 3.95) rotate(0) translate(4 1134)">
<title>G</title>
<polygon fill="white" stroke="transparent" points="-4,4 -4,-1134 1699.53,-1134 1699.53,4 -4,4"/>
<!-- u7 -->
<g id="node1" class="node">
<title>u7</title>
<ellipse fill="#bbffbb" stroke="black" cx="1564.24" cy="-81" rx="122.38" ry="18"/>
<text text-anchor="middle" x="1564.24" y="-77.3" font-family="Times,serif" font-size="14.00">Drasil.Website.Example</text>
</g>
<!-- u6 -->
<g id="node2" class="node">
<title>u6</title>
<ellipse fill="#bbffbb" stroke="black" cx="120.24" cy="-404" rx="120.48" ry="18"/>
<text text-anchor="middle" x="120.24" y="-400.3" font-family="Times,serif" font-size="14.00">Drasil.Website.Analysis</text>
</g>
<!-- u5 -->
<g id="node3" class="node">
<title>u5</title>
<ellipse fill="#bbffbb" stroke="black" cx="367.24" cy="-404" rx="108.58" ry="18"/>
<text text-anchor="middle" x="367.24" y="-400.3" font-family="Times,serif" font-size="14.00">Drasil.Website.About</text>
</g>
<!-- u4 -->
<g id="node4" class="node">
<title>u4</title>
<ellipse fill="#bbffbb" stroke="black" cx="645.24" cy="-404" rx="151.37" ry="18"/>
<text text-anchor="middle" x="645.24" y="-400.3" font-family="Times,serif" font-size="14.00">Drasil.Website.GettingStarted</text>
</g>
<!-- u3 -->
<g id="node5" class="node">
<title>u3</title>
<ellipse fill="#bbffbb" stroke="black" cx="967.24" cy="-404" rx="152.17" ry="18"/>
<text text-anchor="middle" x="967.24" y="-400.3" font-family="Times,serif" font-size="14.00">Drasil.Website.Documentation</text>
</g>
<!-- u2 -->
<g id="node6" class="node">
<title>u2</title>
<ellipse fill="#bbffbb" stroke="black" cx="1276.24" cy="-404" rx="139.18" ry="18"/>
<text text-anchor="middle" x="1276.24" y="-400.3" font-family="Times,serif" font-size="14.00">Drasil.Website.Introduction</text>
</g>
<!-- u1 -->
<g id="node7" class="node">
<title>u1</title>
<ellipse fill="#bbffbb" stroke="black" cx="806.24" cy="-726" rx="104.78" ry="18"/>
<text text-anchor="middle" x="806.24" y="-722.3" font-family="Times,serif" font-size="14.00">Drasil.Website.Body</text>
</g>
<!-- u1&#45;&gt;u6 -->
<g id="edge7" class="edge">
<title>u1&#45;&gt;u6</title>
<path fill="none" stroke="black" d="M771.75,-708.91C657.51,-655.62 291.5,-484.89 164.3,-425.55"/>
<polygon fill="black" stroke="black" points="165.75,-422.37 155.21,-421.31 162.79,-428.71 165.75,-422.37"/>
</g>
<!-- u1&#45;&gt;u5 -->
<g id="edge6" class="edge">
<title>u1&#45;&gt;u5</title>
<path fill="none" stroke="black" d="M783.25,-708.25C710,-654.85 481.93,-488.6 398.35,-427.68"/>
<polygon fill="black" stroke="black" points="400.4,-424.84 390.26,-421.78 396.28,-430.5 400.4,-424.84"/>
</g>
<!-- u1&#45;&gt;u4 -->
<g id="edge5" class="edge">
<title>u1&#45;&gt;u4</title>
<path fill="none" stroke="black" d="M797.58,-707.8C770.99,-654.95 690.37,-494.71 658.45,-431.27"/>
<polygon fill="black" stroke="black" points="661.56,-429.65 653.94,-422.29 655.31,-432.8 661.56,-429.65"/>
</g>
<!-- u1&#45;&gt;u3 -->
<g id="edge4" class="edge">
<title>u1&#45;&gt;u3</title>
<path fill="none" stroke="black" d="M814.9,-707.8C841.49,-654.95 922.11,-494.71 954.02,-431.27"/>
<polygon fill="black" stroke="black" points="957.17,-432.8 958.54,-422.29 950.92,-429.65 957.17,-432.8"/>
</g>
<!-- u1&#45;&gt;u2 -->
<g id="edge3" class="edge">
<title>u1&#45;&gt;u2</title>
<path fill="none" stroke="black" d="M830.52,-708.47C908.65,-655.27 1153.69,-488.44 1243.13,-427.54"/>
<polygon fill="black" stroke="black" points="1245.24,-430.34 1251.54,-421.82 1241.3,-424.55 1245.24,-430.34"/>
</g>
<!-- u0 -->
<g id="node8" class="node">
<title>u0</title>
<ellipse fill="#bbffbb" stroke="black" cx="1564.24" cy="-404" rx="131.08" ry="18"/>
<text text-anchor="middle" x="1564.24" y="-400.3" font-family="Times,serif" font-size="14.00">Drasil.Website.CaseStudy</text>
</g>
<!-- u1&#45;&gt;u0 -->
<g id="edge2" class="edge">
<title>u1&#45;&gt;u0</title>
<path fill="none" stroke="black" d="M843.83,-709.13C969.69,-656 1376.23,-484.37 1516.29,-425.24"/>
<polygon fill="black" stroke="black" points="1517.67,-428.46 1525.52,-421.35 1514.95,-422.01 1517.67,-428.46"/>
</g>
<!-- u0&#45;&gt;u7 -->
<g id="edge1" class="edge">
<title>u0&#45;&gt;u7</title>
<path fill="none" stroke="black" d="M1564.24,-385.74C1564.24,-333.05 1564.24,-173.96 1564.24,-109.54"/>
<polygon fill="black" stroke="black" points="1567.74,-109.34 1564.24,-99.34 1560.74,-109.34 1567.74,-109.34"/>
</g>
<!-- u8 -->
<g id="node9" class="node">
<title>u8</title>
<ellipse fill="#ffffbb" stroke="black" cx="806.24" cy="-1049" rx="122.38" ry="18"/>
<text text-anchor="middle" x="806.24" y="-1045.3" font-family="Times,serif" font-size="14.00">drasil&#45;website.app.Main</text>
</g>
<!-- u8&#45;&gt;u1 -->
<g id="edge8" class="edge">
<title>u8&#45;&gt;u1</title>
<path fill="none" stroke="black" d="M806.24,-1030.74C806.24,-978.05 806.24,-818.96 806.24,-754.54"/>
<polygon fill="black" stroke="black" points="809.74,-754.34 806.24,-744.34 802.74,-754.34 809.74,-754.34"/>
</g>
</g>
</svg>
