<?xml version="1.0" encoding="UTF-8" standalone="no"?>
<!DOCTYPE svg PUBLIC "-//W3C//DTD SVG 1.1//EN"
 "http://www.w3.org/Graphics/SVG/1.1/DTD/svg11.dtd">
<!-- Generated by graphviz version 2.43.0 (0)
 -->
<!-- Title: G Pages: 1 -->
<svg width="432pt" height="285pt"
 viewBox="0.00 0.00 432.00 284.65" xmlns="http://www.w3.org/2000/svg" xmlns:xlink="http://www.w3.org/1999/xlink">
<g id="graph0" class="graph" transform="scale(5.64 5.64) rotate(0) translate(4 1600.67)">
<title>G</title>
<polygon fill="white" stroke="transparent" points="-4,4 -4,-1600.67 2431.31,-1600.67 2431.31,4 -4,4"/>
<!-- u0 -->
<g id="node1" class="node">
<title>u0</title>
<ellipse fill="#bbffbb" stroke="black" cx="1011.43" cy="-1562" rx="69.59" ry="18"/>
<text text-anchor="middle" x="1011.43" y="-1558.3" font-family="Times,serif" font-size="14.00">GOOL.Drasil</text>
</g>
<!-- u11 -->
<g id="node2" class="node">
<title>u11</title>
<ellipse fill="#ffffbb" stroke="black" cx="156.43" cy="-1145" rx="113.98" ry="18"/>
<text text-anchor="middle" x="156.43" y="-1141.3" font-family="Times,serif" font-size="14.00">GOOL.Drasil.CodeInfo</text>
</g>
<!-- u0&#45;&gt;u11 -->
<g id="edge1" class="edge">
<title>u0&#45;&gt;u11</title>
<path fill="none" stroke="black" d="M943.47,-1557.87C730.17,-1547.34 84.55,-1509.99 23.43,-1441 -51.11,-1356.86 72.12,-1224.03 129.51,-1170.03"/>
<polygon fill="black" stroke="black" points="132.19,-1172.31 137.14,-1162.94 127.43,-1167.18 132.19,-1172.31"/>
</g>
<!-- u20 -->
<g id="node14" class="node">
<title>u20</title>
<ellipse fill="#bbbbff" stroke="black" cx="1254.43" cy="-1423" rx="225.56" ry="18"/>
<text text-anchor="middle" x="1254.43" y="-1419.3" font-family="Times,serif" font-size="14.00">GOOL.Drasil.LanguageRenderer.JavaRenderer</text>
</g>
<!-- u0&#45;&gt;u20 -->
<g id="edge6" class="edge">
<title>u0&#45;&gt;u20</title>
<path fill="none" stroke="black" d="M1039.31,-1545.28C1082.61,-1520.87 1166.18,-1473.75 1215.45,-1445.98"/>
<polygon fill="black" stroke="black" points="1217.24,-1448.99 1224.23,-1441.03 1213.8,-1442.89 1217.24,-1448.99"/>
</g>
<!-- u19 -->
<g id="node15" class="node">
<title>u19</title>
<ellipse fill="#bbbbff" stroke="black" cx="1728.43" cy="-1423" rx="230.96" ry="18"/>
<text text-anchor="middle" x="1728.43" y="-1419.3" font-family="Times,serif" font-size="14.00">GOOL.Drasil.LanguageRenderer.SwiftRenderer</text>
</g>
<!-- u0&#45;&gt;u19 -->
<g id="edge5" class="edge">
<title>u0&#45;&gt;u19</title>
<path fill="none" stroke="black" d="M1065.62,-1550.65C1187.28,-1527.4 1483.36,-1470.83 1635.23,-1441.81"/>
<polygon fill="black" stroke="black" points="1636.3,-1445.17 1645.46,-1439.85 1634.98,-1438.29 1636.3,-1445.17"/>
</g>
<!-- u16 -->
<g id="node18" class="node">
<title>u16</title>
<ellipse fill="#bbbbff" stroke="black" cx="271.43" cy="-1423" rx="239.36" ry="18"/>
<text text-anchor="middle" x="271.43" y="-1419.3" font-family="Times,serif" font-size="14.00">GOOL.Drasil.LanguageRenderer.PythonRenderer</text>
</g>
<!-- u0&#45;&gt;u16 -->
<g id="edge4" class="edge">
<title>u0&#45;&gt;u16</title>
<path fill="none" stroke="black" d="M956.72,-1550.87C831.82,-1527.75 524.39,-1470.83 367.26,-1441.74"/>
<polygon fill="black" stroke="black" points="367.61,-1438.25 357.14,-1439.87 366.33,-1445.13 367.61,-1438.25"/>
</g>
<!-- u15 -->
<g id="node19" class="node">
<title>u15</title>
<ellipse fill="#bbbbff" stroke="black" cx="2202.43" cy="-1423" rx="224.76" ry="18"/>
<text text-anchor="middle" x="2202.43" y="-1419.3" font-family="Times,serif" font-size="14.00">GOOL.Drasil.LanguageRenderer.CppRenderer</text>
</g>
<!-- u0&#45;&gt;u15 -->
<g id="edge3" class="edge">
<title>u0&#45;&gt;u15</title>
<path fill="none" stroke="black" d="M1073.79,-1553.83C1259.77,-1532.43 1813.49,-1468.74 2069.68,-1439.27"/>
<polygon fill="black" stroke="black" points="2070.26,-1442.73 2079.79,-1438.11 2069.46,-1435.77 2070.26,-1442.73"/>
</g>
<!-- u14 -->
<g id="node20" class="node">
<title>u14</title>
<ellipse fill="#bbbbff" stroke="black" cx="769.43" cy="-1423" rx="241.26" ry="18"/>
<text text-anchor="middle" x="769.43" y="-1419.3" font-family="Times,serif" font-size="14.00">GOOL.Drasil.LanguageRenderer.CSharpRenderer</text>
</g>
<!-- u0&#45;&gt;u14 -->
<g id="edge2" class="edge">
<title>u0&#45;&gt;u14</title>
<path fill="none" stroke="black" d="M983.67,-1545.28C940.55,-1520.87 857.32,-1473.75 808.26,-1445.98"/>
<polygon fill="black" stroke="black" points="809.94,-1442.91 799.51,-1441.03 806.49,-1449 809.94,-1442.91"/>
</g>
<!-- u7 -->
<g id="node6" class="node">
<title>u7</title>
<ellipse fill="#ffffbb" stroke="black" cx="547.43" cy="-590" rx="141.88" ry="18"/>
<text text-anchor="middle" x="547.43" y="-586.3" font-family="Times,serif" font-size="14.00">GOOL.Drasil.InterfaceGOOL</text>
</g>
<!-- u11&#45;&gt;u7 -->
<g id="edge16" class="edge">
<title>u11&#45;&gt;u7</title>
<path fill="none" stroke="black" d="M168.56,-1126.84C225.06,-1046.94 462.49,-711.13 529.66,-616.13"/>
<polygon fill="black" stroke="black" points="532.53,-618.14 535.44,-607.96 526.81,-614.1 532.53,-618.14"/>
</g>
<!-- u10 -->
<g id="node3" class="node">
<title>u10</title>
<ellipse fill="#ffffbb" stroke="black" cx="297.43" cy="-174" rx="133.78" ry="18"/>
<text text-anchor="middle" x="297.43" y="-170.3" font-family="Times,serif" font-size="14.00">GOOL.Drasil.CodeAnalysis</text>
</g>
<!-- u9 -->
<g id="node4" class="node">
<title>u9</title>
<ellipse fill="#ffffbb" stroke="black" cx="659.43" cy="-312" rx="108.58" ry="18"/>
<text text-anchor="middle" x="659.43" y="-308.3" font-family="Times,serif" font-size="14.00">GOOL.Drasil.Helpers</text>
</g>
<!-- u5 -->
<g id="node8" class="node">
<title>u5</title>
<ellipse fill="#ffffbb" stroke="black" cx="599.43" cy="-35" rx="118.08" ry="18"/>
<text text-anchor="middle" x="599.43" y="-31.3" font-family="Times,serif" font-size="14.00">GOOL.Drasil.CodeType</text>
</g>
<!-- u9&#45;&gt;u5 -->
<g id="edge15" class="edge">
<title>u9&#45;&gt;u5</title>
<path fill="none" stroke="black" d="M658.48,-293.59C656.63,-264.7 651.71,-205.15 640.43,-156 632.89,-123.14 619.7,-86.66 610.32,-62.64"/>
<polygon fill="black" stroke="black" points="613.5,-61.17 606.56,-53.16 606.99,-63.75 613.5,-61.17"/>
</g>
<!-- u8 -->
<g id="node5" class="node">
<title>u8</title>
<ellipse fill="#ffffbb" stroke="black" cx="2202.43" cy="-1284" rx="107.48" ry="18"/>
<text text-anchor="middle" x="2202.43" y="-1280.3" font-family="Times,serif" font-size="14.00">GOOL.Drasil.Classes</text>
</g>
<!-- u7&#45;&gt;u9 -->
<g id="edge14" class="edge">
<title>u7&#45;&gt;u9</title>
<path fill="none" stroke="black" d="M560.07,-572C576.23,-549.52 604.08,-508.15 620.43,-469 638.51,-425.72 649.66,-372.06 655.19,-340.28"/>
<polygon fill="black" stroke="black" points="658.64,-340.83 656.85,-330.39 651.74,-339.67 658.64,-340.83"/>
</g>
<!-- u2 -->
<g id="node11" class="node">
<title>u2</title>
<ellipse fill="#ffffbb" stroke="black" cx="456.43" cy="-451" rx="155.17" ry="18"/>
<text text-anchor="middle" x="456.43" y="-447.3" font-family="Times,serif" font-size="14.00">GOOL.Drasil.InterfaceCommon</text>
</g>
<!-- u7&#45;&gt;u2 -->
<g id="edge13" class="edge">
<title>u7&#45;&gt;u2</title>
<path fill="none" stroke="black" d="M536.09,-571.93C520.36,-548.24 491.78,-505.21 473.47,-477.65"/>
<polygon fill="black" stroke="black" points="476.37,-475.68 467.92,-469.29 470.54,-479.56 476.37,-475.68"/>
</g>
<!-- u6 -->
<g id="node7" class="node">
<title>u6</title>
<ellipse fill="#ffffbb" stroke="black" cx="1115.43" cy="-868" rx="161.37" ry="18"/>
<text text-anchor="middle" x="1115.43" y="-864.3" font-family="Times,serif" font-size="14.00">GOOL.Drasil.LanguageRenderer</text>
</g>
<!-- u3 -->
<g id="node10" class="node">
<title>u3</title>
<ellipse fill="#ffffbb" stroke="black" cx="788.43" cy="-729" rx="150.57" ry="18"/>
<text text-anchor="middle" x="788.43" y="-725.3" font-family="Times,serif" font-size="14.00">GOOL.Drasil.RendererClasses</text>
</g>
<!-- u6&#45;&gt;u3 -->
<g id="edge12" class="edge">
<title>u6&#45;&gt;u3</title>
<path fill="none" stroke="black" d="M1075.99,-850.47C1016.13,-825.39 902.44,-777.76 837.38,-750.51"/>
<polygon fill="black" stroke="black" points="838.34,-747.11 827.76,-746.48 835.63,-753.57 838.34,-747.11"/>
</g>
<!-- u4 -->
<g id="node9" class="node">
<title>u4</title>
<ellipse fill="#ffffbb" stroke="black" cx="540.43" cy="-174" rx="90.98" ry="18"/>
<text text-anchor="middle" x="540.43" y="-170.3" font-family="Times,serif" font-size="14.00">GOOL.Drasil.AST</text>
</g>
<!-- u4&#45;&gt;u5 -->
<g id="edge11" class="edge">
<title>u4&#45;&gt;u5</title>
<path fill="none" stroke="black" d="M547.79,-155.93C557.86,-132.54 576.04,-90.33 587.92,-62.73"/>
<polygon fill="black" stroke="black" points="591.25,-63.86 591.99,-53.29 584.82,-61.09 591.25,-63.86"/>
</g>
<!-- u3&#45;&gt;u7 -->
<g id="edge10" class="edge">
<title>u3&#45;&gt;u7</title>
<path fill="none" stroke="black" d="M758.88,-711.2C715.31,-686.43 633.81,-640.1 585.71,-612.76"/>
<polygon fill="black" stroke="black" points="587.27,-609.62 576.85,-607.72 583.81,-615.71 587.27,-609.62"/>
</g>
<!-- u1 -->
<g id="node12" class="node">
<title>u1</title>
<ellipse fill="#ffffbb" stroke="black" cx="436.43" cy="-312" rx="96.68" ry="18"/>
<text text-anchor="middle" x="436.43" y="-308.3" font-family="Times,serif" font-size="14.00">GOOL.Drasil.State</text>
</g>
<!-- u2&#45;&gt;u1 -->
<g id="edge9" class="edge">
<title>u2&#45;&gt;u1</title>
<path fill="none" stroke="black" d="M453.94,-432.93C450.56,-409.75 444.47,-368.06 440.44,-340.46"/>
<polygon fill="black" stroke="black" points="443.87,-339.68 438.96,-330.29 436.94,-340.69 443.87,-339.68"/>
</g>
<!-- u1&#45;&gt;u10 -->
<g id="edge8" class="edge">
<title>u1&#45;&gt;u10</title>
<path fill="none" stroke="black" d="M419.11,-294.05C394.76,-270.23 350.28,-226.71 322.38,-199.4"/>
<polygon fill="black" stroke="black" points="324.57,-196.65 314.98,-192.16 319.68,-201.66 324.57,-196.65"/>
</g>
<!-- u1&#45;&gt;u4 -->
<g id="edge7" class="edge">
<title>u1&#45;&gt;u4</title>
<path fill="none" stroke="black" d="M449.4,-294.05C467.46,-270.43 500.32,-227.45 521.23,-200.11"/>
<polygon fill="black" stroke="black" points="524.01,-202.23 527.31,-192.16 518.45,-197.98 524.01,-202.23"/>
</g>
<!-- u21 -->
<g id="node13" class="node">
<title>u21</title>
<ellipse fill="#bbbbff" stroke="black" cx="1254.43" cy="-1007" rx="223.66" ry="18"/>
<text text-anchor="middle" x="1254.43" y="-1003.3" font-family="Times,serif" font-size="14.00">GOOL.Drasil.LanguageRenderer.Constructors</text>
</g>
<!-- u21&#45;&gt;u6 -->
<g id="edge36" class="edge">
<title>u21&#45;&gt;u6</title>
<path fill="none" stroke="black" d="M1237.11,-988.93C1212.76,-964.93 1168.28,-921.09 1140.38,-893.58"/>
<polygon fill="black" stroke="black" points="1142.55,-890.82 1132.98,-886.29 1137.64,-895.8 1142.55,-890.82"/>
</g>
<!-- u18 -->
<g id="node16" class="node">
<title>u18</title>
<ellipse fill="#bbbbff" stroke="black" cx="1713.43" cy="-1284" rx="189.27" ry="18"/>
<text text-anchor="middle" x="1713.43" y="-1280.3" font-family="Times,serif" font-size="14.00">GOOL.Drasil.LanguageRenderer.CLike</text>
</g>
<!-- u20&#45;&gt;u18 -->
<g id="edge35" class="edge">
<title>u20&#45;&gt;u18</title>
<path fill="none" stroke="black" d="M1309.8,-1405.47C1395.27,-1379.97 1558.89,-1331.13 1649.35,-1304.13"/>
<polygon fill="black" stroke="black" points="1650.36,-1307.48 1658.94,-1301.26 1648.36,-1300.77 1650.36,-1307.48"/>
</g>
<!-- u17 -->
<g id="node17" class="node">
<title>u17</title>
<ellipse fill="#bbbbff" stroke="black" cx="788.43" cy="-1284" rx="196.87" ry="18"/>
<text text-anchor="middle" x="788.43" y="-1280.3" font-family="Times,serif" font-size="14.00">GOOL.Drasil.LanguageRenderer.Macros</text>
</g>
<!-- u20&#45;&gt;u17 -->
<g id="edge34" class="edge">
<title>u20&#45;&gt;u17</title>
<path fill="none" stroke="black" d="M1198.22,-1405.47C1111.57,-1380 945.78,-1331.26 853.86,-1304.24"/>
<polygon fill="black" stroke="black" points="854.7,-1300.83 844.12,-1301.37 852.73,-1307.55 854.7,-1300.83"/>
</g>
<!-- u13 -->
<g id="node21" class="node">
<title>u13</title>
<ellipse fill="#bbbbff" stroke="black" cx="1254.43" cy="-1284" rx="251.56" ry="18"/>
<text text-anchor="middle" x="1254.43" y="-1280.3" font-family="Times,serif" font-size="14.00">GOOL.Drasil.LanguageRenderer.CommonPseudoOO</text>
</g>
<!-- u20&#45;&gt;u13 -->
<g id="edge33" class="edge">
<title>u20&#45;&gt;u13</title>
<path fill="none" stroke="black" d="M1254.43,-1404.93C1254.43,-1381.75 1254.43,-1340.06 1254.43,-1312.46"/>
<polygon fill="black" stroke="black" points="1257.93,-1312.29 1254.43,-1302.29 1250.93,-1312.29 1257.93,-1312.29"/>
</g>
<!-- u19&#45;&gt;u18 -->
<g id="edge32" class="edge">
<title>u19&#45;&gt;u18</title>
<path fill="none" stroke="black" d="M1726.56,-1404.93C1724.03,-1381.75 1719.46,-1340.06 1716.44,-1312.46"/>
<polygon fill="black" stroke="black" points="1719.89,-1311.85 1715.33,-1302.29 1712.94,-1312.61 1719.89,-1311.85"/>
</g>
<!-- u19&#45;&gt;u17 -->
<g id="edge31" class="edge">
<title>u19&#45;&gt;u17</title>
<path fill="none" stroke="black" d="M1624.7,-1406.88C1445.83,-1380.81 1081.03,-1327.65 898.13,-1300.99"/>
<polygon fill="black" stroke="black" points="898.62,-1297.52 888.22,-1299.54 897.61,-1304.45 898.62,-1297.52"/>
</g>
<!-- u19&#45;&gt;u13 -->
<g id="edge30" class="edge">
<title>u19&#45;&gt;u13</title>
<path fill="none" stroke="black" d="M1671.26,-1405.47C1583.27,-1380.04 1415.05,-1331.42 1321.46,-1304.37"/>
<polygon fill="black" stroke="black" points="1322.39,-1301 1311.81,-1301.58 1320.45,-1307.72 1322.39,-1301"/>
</g>
<!-- u18&#45;&gt;u21 -->
<g id="edge29" class="edge">
<title>u18&#45;&gt;u21</title>
<path fill="none" stroke="black" d="M1696.53,-1265.61C1665.64,-1234.58 1597.03,-1168.99 1529.43,-1127 1459.78,-1083.73 1371.64,-1048.63 1314.19,-1028.04"/>
<polygon fill="black" stroke="black" points="1315.13,-1024.66 1304.53,-1024.62 1312.79,-1031.26 1315.13,-1024.66"/>
</g>
<!-- u17&#45;&gt;u3 -->
<g id="edge28" class="edge">
<title>u17&#45;&gt;u3</title>
<path fill="none" stroke="black" d="M788.43,-1265.84C788.43,-1186.59 788.43,-855.59 788.43,-757.5"/>
<polygon fill="black" stroke="black" points="791.93,-757.23 788.43,-747.23 784.93,-757.23 791.93,-757.23"/>
</g>
<!-- u16&#45;&gt;u17 -->
<g id="edge27" class="edge">
<title>u16&#45;&gt;u17</title>
<path fill="none" stroke="black" d="M333.28,-1405.61C429.77,-1380.04 615.6,-1330.8 717.43,-1303.82"/>
<polygon fill="black" stroke="black" points="718.55,-1307.14 727.32,-1301.2 716.75,-1300.37 718.55,-1307.14"/>
</g>
<!-- u16&#45;&gt;u13 -->
<g id="edge26" class="edge">
<title>u16&#45;&gt;u13</title>
<path fill="none" stroke="black" d="M379.92,-1406.88C565.46,-1381.02 942.34,-1328.5 1135.08,-1301.63"/>
<polygon fill="black" stroke="black" points="1135.82,-1305.06 1145.24,-1300.22 1134.86,-1298.13 1135.82,-1305.06"/>
</g>
<!-- u15&#45;&gt;u8 -->
<g id="edge22" class="edge">
<title>u15&#45;&gt;u8</title>
<path fill="none" stroke="black" d="M2202.43,-1404.93C2202.43,-1381.75 2202.43,-1340.06 2202.43,-1312.46"/>
<polygon fill="black" stroke="black" points="2205.93,-1312.29 2202.43,-1302.29 2198.93,-1312.29 2205.93,-1312.29"/>
</g>
<!-- u15&#45;&gt;u18 -->
<g id="edge25" class="edge">
<title>u15&#45;&gt;u18</title>
<path fill="none" stroke="black" d="M2143.93,-1405.61C2052.76,-1380.07 1877.26,-1330.9 1780.88,-1303.9"/>
<polygon fill="black" stroke="black" points="1781.81,-1300.52 1771.24,-1301.2 1779.93,-1307.26 1781.81,-1300.52"/>
</g>
<!-- u15&#45;&gt;u17 -->
<g id="edge24" class="edge">
<title>u15&#45;&gt;u17</title>
<path fill="none" stroke="black" d="M2065.25,-1408.71C1795.8,-1382.6 1200.11,-1324.89 928.42,-1298.56"/>
<polygon fill="black" stroke="black" points="928.39,-1295.04 918.1,-1297.56 927.72,-1302.01 928.39,-1295.04"/>
</g>
<!-- u15&#45;&gt;u13 -->
<g id="edge23" class="edge">
<title>u15&#45;&gt;u13</title>
<path fill="none" stroke="black" d="M2098.72,-1407.01C1920.52,-1381.26 1557.4,-1328.78 1370.82,-1301.82"/>
<polygon fill="black" stroke="black" points="1371.1,-1298.32 1360.7,-1300.36 1370.1,-1305.25 1371.1,-1298.32"/>
</g>
<!-- u14&#45;&gt;u18 -->
<g id="edge21" class="edge">
<title>u14&#45;&gt;u18</title>
<path fill="none" stroke="black" d="M874.52,-1406.75C1054.9,-1380.57 1421.67,-1327.34 1604.6,-1300.8"/>
<polygon fill="black" stroke="black" points="1605.11,-1304.26 1614.51,-1299.36 1604.11,-1297.33 1605.11,-1304.26"/>
</g>
<!-- u14&#45;&gt;u17 -->
<g id="edge20" class="edge">
<title>u14&#45;&gt;u17</title>
<path fill="none" stroke="black" d="M771.8,-1404.93C775.02,-1381.75 780.8,-1340.06 784.63,-1312.46"/>
<polygon fill="black" stroke="black" points="788.13,-1312.68 786.04,-1302.29 781.2,-1311.71 788.13,-1312.68"/>
</g>
<!-- u14&#45;&gt;u13 -->
<g id="edge19" class="edge">
<title>u14&#45;&gt;u13</title>
<path fill="none" stroke="black" d="M827.94,-1405.47C917.97,-1380.04 1090.09,-1331.42 1185.85,-1304.37"/>
<polygon fill="black" stroke="black" points="1187.05,-1307.67 1195.72,-1301.58 1185.15,-1300.93 1187.05,-1307.67"/>
</g>
<!-- u12 -->
<g id="node22" class="node">
<title>u12</title>
<ellipse fill="#bbbbff" stroke="black" cx="1254.43" cy="-1145" rx="265.65" ry="18"/>
<text text-anchor="middle" x="1254.43" y="-1141.3" font-family="Times,serif" font-size="14.00">GOOL.Drasil.LanguageRenderer.LanguagePolymorphic</text>
</g>
<!-- u13&#45;&gt;u12 -->
<g id="edge18" class="edge">
<title>u13&#45;&gt;u12</title>
<path fill="none" stroke="black" d="M1254.43,-1265.93C1254.43,-1242.75 1254.43,-1201.06 1254.43,-1173.46"/>
<polygon fill="black" stroke="black" points="1257.93,-1173.29 1254.43,-1163.29 1250.93,-1173.29 1257.93,-1173.29"/>
</g>
<!-- u12&#45;&gt;u21 -->
<g id="edge17" class="edge">
<title>u12&#45;&gt;u21</title>
<path fill="none" stroke="black" d="M1254.43,-1126.78C1254.43,-1103.68 1254.43,-1062.43 1254.43,-1035.14"/>
<polygon fill="black" stroke="black" points="1257.93,-1035.08 1254.43,-1025.08 1250.93,-1035.08 1257.93,-1035.08"/>
</g>
</g>
</svg>
