<?xml version="1.0" encoding="UTF-8" standalone="no"?>
<!DOCTYPE svg PUBLIC "-//W3C//DTD SVG 1.1//EN"
 "http://www.w3.org/Graphics/SVG/1.1/DTD/svg11.dtd">
<!-- Generated by graphviz version 2.43.0 (0)
 -->
<!-- Title: G Pages: 1 -->
<svg width="431pt" height="288pt"
 viewBox="0.00 0.00 430.64 288.00" xmlns="http://www.w3.org/2000/svg" xmlns:xlink="http://www.w3.org/1999/xlink">
<g id="graph0" class="graph" transform="scale(2.66 2.66) rotate(0) translate(4 762.67)">
<title>G</title>
<polygon fill="white" stroke="transparent" points="-4,4 -4,-762.67 1142.38,-762.67 1142.38,4 -4,4"/>
<!-- u6 -->
<g id="node1" class="node">
<title>u6</title>
<ellipse fill="#bbffbb" stroke="black" cx="577.29" cy="-704" rx="34.39" ry="18"/>
<text text-anchor="middle" x="577.29" y="-700.3" font-family="Times,serif" font-size="14.00">Main</text>
</g>
<!-- u1 -->
<g id="node6" class="node">
<title>u1</title>
<ellipse fill="#ffffbb" stroke="black" cx="577.29" cy="-488" rx="104.78" ry="18"/>
<text text-anchor="middle" x="577.29" y="-484.3" font-family="Times,serif" font-size="14.00">Drasil.Website.Body</text>
</g>
<!-- u6&#45;&gt;u1 -->
<g id="edge6" class="edge">
<title>u6&#45;&gt;u1</title>
<path fill="none" stroke="black" d="M577.29,-685.85C577.29,-648.83 577.29,-561.18 577.29,-516.39"/>
<polygon fill="black" stroke="black" points="580.79,-516.23 577.29,-506.23 573.79,-516.23 580.79,-516.23"/>
</g>
<!-- u5 -->
<g id="node2" class="node">
<title>u5</title>
<ellipse fill="#ffffbb" stroke="black" cx="131.29" cy="-271" rx="131.08" ry="18"/>
<text text-anchor="middle" x="131.29" y="-267.3" font-family="Times,serif" font-size="14.00">Drasil.Website.CaseStudy</text>
</g>
<!-- u0 -->
<g id="node7" class="node">
<title>u0</title>
<ellipse fill="#ffffbb" stroke="black" cx="131.29" cy="-54" rx="122.38" ry="18"/>
<text text-anchor="middle" x="131.29" y="-50.3" font-family="Times,serif" font-size="14.00">Drasil.Website.Example</text>
</g>
<!-- u5&#45;&gt;u0 -->
<g id="edge5" class="edge">
<title>u5&#45;&gt;u0</title>
<path fill="none" stroke="black" d="M131.29,-252.77C131.29,-215.49 131.29,-127.08 131.29,-82.18"/>
<polygon fill="black" stroke="black" points="134.79,-82.01 131.29,-72.01 127.79,-82.01 134.79,-82.01"/>
</g>
<!-- u4 -->
<g id="node3" class="node">
<title>u4</title>
<ellipse fill="#ffffbb" stroke="black" cx="432.29" cy="-271" rx="152.17" ry="18"/>
<text text-anchor="middle" x="432.29" y="-267.3" font-family="Times,serif" font-size="14.00">Drasil.Website.Documentation</text>
</g>
<!-- u3 -->
<g id="node4" class="node">
<title>u3</title>
<ellipse fill="#ffffbb" stroke="black" cx="722.29" cy="-271" rx="120.48" ry="18"/>
<text text-anchor="middle" x="722.29" y="-267.3" font-family="Times,serif" font-size="14.00">Drasil.Website.Analysis</text>
</g>
<!-- u2 -->
<g id="node5" class="node">
<title>u2</title>
<ellipse fill="#ffffbb" stroke="black" cx="999.29" cy="-271" rx="139.18" ry="18"/>
<text text-anchor="middle" x="999.29" y="-267.3" font-family="Times,serif" font-size="14.00">Drasil.Website.Introduction</text>
</g>
<!-- u1&#45;&gt;u5 -->
<g id="edge4" class="edge">
<title>u1&#45;&gt;u5</title>
<path fill="none" stroke="black" d="M543.77,-470.84C464.12,-432.44 263.56,-335.76 174.76,-292.95"/>
<polygon fill="black" stroke="black" points="176.03,-289.68 165.51,-288.49 172.99,-295.99 176.03,-289.68"/>
</g>
<!-- u1&#45;&gt;u4 -->
<g id="edge3" class="edge">
<title>u1&#45;&gt;u4</title>
<path fill="none" stroke="black" d="M565.67,-469.77C540.2,-432.01 479.38,-341.83 449.48,-297.49"/>
<polygon fill="black" stroke="black" points="452.26,-295.35 443.76,-289.01 446.45,-299.26 452.26,-295.35"/>
</g>
<!-- u1&#45;&gt;u3 -->
<g id="edge2" class="edge">
<title>u1&#45;&gt;u3</title>
<path fill="none" stroke="black" d="M588.91,-469.77C614.37,-432.01 675.19,-341.83 705.1,-297.49"/>
<polygon fill="black" stroke="black" points="708.12,-299.26 710.81,-289.01 702.32,-295.35 708.12,-299.26"/>
</g>
<!-- u1&#45;&gt;u2 -->
<g id="edge1" class="edge">
<title>u1&#45;&gt;u2</title>
<path fill="none" stroke="black" d="M609.01,-470.84C684.2,-432.53 873.29,-336.19 957.59,-293.24"/>
<polygon fill="black" stroke="black" points="959.3,-296.3 966.62,-288.64 956.12,-290.06 959.3,-296.3"/>
</g>
</g>
</svg>
