<?xml version="1.0" encoding="UTF-8" standalone="no"?>
<!DOCTYPE svg PUBLIC "-//W3C//DTD SVG 1.1//EN"
 "http://www.w3.org/Graphics/SVG/1.1/DTD/svg11.dtd">
<!-- Generated by graphviz version 2.43.0 (0)
 -->
<!-- Title: G Pages: 1 -->
<svg width="432pt" height="288pt"
 viewBox="0.00 0.00 431.76 288.00" xmlns="http://www.w3.org/2000/svg" xmlns:xlink="http://www.w3.org/1999/xlink">
<g id="graph0" class="graph" transform="scale(12.65 12.65) rotate(0) translate(4 3640)">
<title>G</title>
<polygon fill="white" stroke="transparent" points="-4,4 -4,-3640 5458.95,-3640 5458.95,4 -4,4"/>
<!-- u55 -->
<g id="node1" class="node">
<title>u55</title>
<ellipse fill="#bbffbb" stroke="black" cx="2274.22" cy="-3573" rx="34.39" ry="18"/>
<text text-anchor="middle" x="2274.22" y="-3569.3" font-family="Times,serif" font-size="14.00">Main</text>
</g>
<!-- u54 -->
<g id="node2" class="node">
<title>u54</title>
<ellipse fill="#bbffbb" stroke="black" cx="2241.22" cy="-3323" rx="52.79" ry="18"/>
<text text-anchor="middle" x="2241.22" y="-3319.3" font-family="Times,serif" font-size="14.00">FileTests</text>
</g>
<!-- u55&#45;&gt;u54 -->
<g id="edge88" class="edge">
<title>u55&#45;&gt;u54</title>
<path fill="none" stroke="black" d="M2271.95,-3554.95C2266.32,-3512.66 2251.68,-3402.61 2244.84,-3351.2"/>
<polygon fill="black" stroke="black" points="2248.29,-3350.62 2243.5,-3341.17 2241.35,-3351.54 2248.29,-3350.62"/>
</g>
<!-- u53 -->
<g id="node3" class="node">
<title>u53</title>
<ellipse fill="#bbffbb" stroke="black" cx="2377.22" cy="-3323" rx="64.99" ry="18"/>
<text text-anchor="middle" x="2377.22" y="-3319.3" font-family="Times,serif" font-size="14.00">PatternTest</text>
</g>
<!-- u55&#45;&gt;u53 -->
<g id="edge87" class="edge">
<title>u55&#45;&gt;u53</title>
<path fill="none" stroke="black" d="M2281.14,-3555.34C2298.69,-3513.09 2345.04,-3401.47 2366.3,-3350.3"/>
<polygon fill="black" stroke="black" points="2369.59,-3351.49 2370.19,-3340.91 2363.13,-3348.8 2369.59,-3351.49"/>
</g>
<!-- u52 -->
<g id="node4" class="node">
<title>u52</title>
<ellipse fill="#bbffbb" stroke="black" cx="2108.22" cy="-3323" rx="62.29" ry="18"/>
<text text-anchor="middle" x="2108.22" y="-3319.3" font-family="Times,serif" font-size="14.00">HelloWorld</text>
</g>
<!-- u55&#45;&gt;u52 -->
<g id="edge86" class="edge">
<title>u55&#45;&gt;u52</title>
<path fill="none" stroke="black" d="M2263.33,-3555.73C2235.09,-3513.54 2159.35,-3400.38 2125.26,-3349.46"/>
<polygon fill="black" stroke="black" points="2128.06,-3347.35 2119.59,-3340.99 2122.24,-3351.24 2128.06,-3347.35"/>
</g>
<!-- u49 -->
<g id="node8" class="node">
<title>u49</title>
<ellipse fill="#bbbbff" stroke="black" cx="2573.22" cy="-3323" rx="113.18" ry="18"/>
<text text-anchor="middle" x="2573.22" y="-3319.3" font-family="Times,serif" font-size="14.00">Language.Drasil.Code</text>
</g>
<!-- u55&#45;&gt;u49 -->
<g id="edge85" class="edge">
<title>u55&#45;&gt;u49</title>
<path fill="none" stroke="black" d="M2292.03,-3557.23C2341.98,-3515.8 2483.73,-3398.22 2544.73,-3347.63"/>
<polygon fill="black" stroke="black" points="2547.32,-3350.03 2552.78,-3340.95 2542.85,-3344.64 2547.32,-3350.03"/>
</g>
<!-- u50 -->
<g id="node6" class="node">
<title>u50</title>
<ellipse fill="#bbffbb" stroke="black" cx="2377.22" cy="-3072" rx="53.89" ry="18"/>
<text text-anchor="middle" x="2377.22" y="-3068.3" font-family="Times,serif" font-size="14.00">Observer</text>
</g>
<!-- u53&#45;&gt;u50 -->
<g id="edge84" class="edge">
<title>u53&#45;&gt;u50</title>
<path fill="none" stroke="black" d="M2377.22,-3304.89C2377.22,-3262.42 2377.22,-3151.92 2377.22,-3100.31"/>
<polygon fill="black" stroke="black" points="2380.72,-3100.23 2377.22,-3090.23 2373.72,-3100.23 2380.72,-3100.23"/>
</g>
<!-- u51 -->
<g id="node5" class="node">
<title>u51</title>
<ellipse fill="#bbffbb" stroke="black" cx="2108.22" cy="-3072" rx="42.49" ry="18"/>
<text text-anchor="middle" x="2108.22" y="-3068.3" font-family="Times,serif" font-size="14.00">Helper</text>
</g>
<!-- u52&#45;&gt;u51 -->
<g id="edge83" class="edge">
<title>u52&#45;&gt;u51</title>
<path fill="none" stroke="black" d="M2108.22,-3304.89C2108.22,-3262.42 2108.22,-3151.92 2108.22,-3100.31"/>
<polygon fill="black" stroke="black" points="2111.72,-3100.23 2108.22,-3090.23 2104.72,-3100.23 2111.72,-3100.23"/>
</g>
<!-- u0 -->
<g id="node7" class="node">
<title>u0</title>
<ellipse fill="#ffffbb" stroke="black" cx="2573.22" cy="-3573" rx="214.46" ry="18"/>
<text text-anchor="middle" x="2573.22" y="-3569.3" font-family="Times,serif" font-size="14.00">Data.Drasil.ExternalLibraries.ODELibraries</text>
</g>
<!-- u0&#45;&gt;u49 -->
<g id="edge1" class="edge">
<title>u0&#45;&gt;u49</title>
<path fill="none" stroke="black" d="M2573.22,-3554.95C2573.22,-3512.66 2573.22,-3402.61 2573.22,-3351.2"/>
<polygon fill="black" stroke="black" points="2576.72,-3351.17 2573.22,-3341.17 2569.72,-3351.17 2576.72,-3351.17"/>
</g>
<!-- u25 -->
<g id="node29" class="node">
<title>u25</title>
<ellipse fill="#ffbbff" stroke="black" cx="4303.22" cy="-3072" rx="217.16" ry="18"/>
<text text-anchor="middle" x="4303.22" y="-3068.3" font-family="Times,serif" font-size="14.00">Language.Drasil.Code.Imperative.Generator</text>
</g>
<!-- u49&#45;&gt;u25 -->
<g id="edge77" class="edge">
<title>u49&#45;&gt;u25</title>
<path fill="none" stroke="black" d="M2654.05,-3310.37C2934.35,-3270.02 3865.15,-3136.05 4190.09,-3089.28"/>
<polygon fill="black" stroke="black" points="4190.6,-3092.75 4200,-3087.86 4189.6,-3085.82 4190.6,-3092.75"/>
</g>
<!-- u17 -->
<g id="node37" class="node">
<title>u17</title>
<ellipse fill="#ffbbff" stroke="black" cx="5237.22" cy="-1818" rx="217.96" ry="18"/>
<text text-anchor="middle" x="5237.22" y="-1814.3" font-family="Times,serif" font-size="14.00">Language.Drasil.Code.Imperative.ReadInput</text>
</g>
<!-- u49&#45;&gt;u17 -->
<g id="edge76" class="edge">
<title>u49&#45;&gt;u17</title>
<path fill="none" stroke="black" d="M2685.19,-3320.36C2987.99,-3313.44 3846.18,-3277.44 4529.22,-3090 4812.43,-3012.28 5133.22,-3115.68 5133.22,-2822 5133.22,-2822 5133.22,-2822 5133.22,-2319 5133.22,-2134.4 5202.01,-1919.34 5227.7,-1845.47"/>
<polygon fill="black" stroke="black" points="5231.01,-1846.6 5231.02,-1836 5224.41,-1844.28 5231.01,-1846.6"/>
</g>
<!-- u33 -->
<g id="node48" class="node">
<title>u33</title>
<ellipse fill="#ff7777" stroke="black" cx="2573.22" cy="-2821" rx="367.43" ry="18"/>
<text text-anchor="middle" x="2573.22" y="-2817.3" font-family="Times,serif" font-size="14.00">Language.Drasil.Code.Imperative.GOOL.LanguageRenderer.PythonRenderer</text>
</g>
<!-- u49&#45;&gt;u33 -->
<g id="edge82" class="edge">
<title>u49&#45;&gt;u33</title>
<path fill="none" stroke="black" d="M2573.22,-3304.79C2573.22,-3230.86 2573.22,-2939.93 2573.22,-2849.19"/>
<polygon fill="black" stroke="black" points="2576.72,-2849.14 2573.22,-2839.14 2569.72,-2849.14 2576.72,-2849.14"/>
</g>
<!-- u31 -->
<g id="node50" class="node">
<title>u31</title>
<ellipse fill="#ff7777" stroke="black" cx="3317.22" cy="-2821" rx="358.54" ry="18"/>
<text text-anchor="middle" x="3317.22" y="-2817.3" font-family="Times,serif" font-size="14.00">Language.Drasil.Code.Imperative.GOOL.LanguageRenderer.SwiftRenderer</text>
</g>
<!-- u49&#45;&gt;u31 -->
<g id="edge81" class="edge">
<title>u49&#45;&gt;u31</title>
<path fill="none" stroke="black" d="M2597.97,-3305.36C2708.28,-3231.23 3155.24,-2930.86 3282.97,-2845.02"/>
<polygon fill="black" stroke="black" points="3285.26,-2847.69 3291.61,-2839.21 3281.36,-2841.88 3285.26,-2847.69"/>
</g>
<!-- u30 -->
<g id="node51" class="node">
<title>u30</title>
<ellipse fill="#ff7777" stroke="black" cx="354.22" cy="-2821" rx="354.44" ry="18"/>
<text text-anchor="middle" x="354.22" y="-2817.3" font-family="Times,serif" font-size="14.00">Language.Drasil.Code.Imperative.GOOL.LanguageRenderer.JavaRenderer</text>
</g>
<!-- u49&#45;&gt;u30 -->
<g id="edge80" class="edge">
<title>u49&#45;&gt;u30</title>
<path fill="none" stroke="black" d="M2567.2,-3304.92C2547.81,-3250.96 2485.65,-3085.79 2440.22,-3054 2291.04,-2949.63 1103.36,-2866.82 589.64,-2835.52"/>
<polygon fill="black" stroke="black" points="589.7,-2832.02 579.5,-2834.9 589.27,-2839 589.7,-2832.02"/>
</g>
<!-- u29 -->
<g id="node52" class="node">
<title>u29</title>
<ellipse fill="#ff7777" stroke="black" cx="1079.22" cy="-2821" rx="352.84" ry="18"/>
<text text-anchor="middle" x="1079.22" y="-2817.3" font-family="Times,serif" font-size="14.00">Language.Drasil.Code.Imperative.GOOL.LanguageRenderer.CppRenderer</text>
</g>
<!-- u49&#45;&gt;u29 -->
<g id="edge79" class="edge">
<title>u49&#45;&gt;u29</title>
<path fill="none" stroke="black" d="M2572.44,-3304.89C2569.28,-3256.87 2553.31,-3120.01 2473.22,-3054 2303.92,-2914.47 1690.82,-2856.67 1336.64,-2834.5"/>
<polygon fill="black" stroke="black" points="1336.69,-2830.99 1326.49,-2833.87 1336.26,-2837.98 1336.69,-2830.99"/>
</g>
<!-- u28 -->
<g id="node53" class="node">
<title>u28</title>
<ellipse fill="#ff7777" stroke="black" cx="1819.22" cy="-2821" rx="369.33" ry="18"/>
<text text-anchor="middle" x="1819.22" y="-2817.3" font-family="Times,serif" font-size="14.00">Language.Drasil.Code.Imperative.GOOL.LanguageRenderer.CSharpRenderer</text>
</g>
<!-- u49&#45;&gt;u28 -->
<g id="edge78" class="edge">
<title>u49&#45;&gt;u28</title>
<path fill="none" stroke="black" d="M2574.56,-3304.69C2577.2,-3257.87 2577.84,-3127.36 2511.22,-3054 2386.81,-2917.01 2179.13,-2860.82 2023.69,-2837.82"/>
<polygon fill="black" stroke="black" points="2023.92,-2834.32 2013.52,-2836.35 2022.92,-2841.24 2023.92,-2834.32"/>
</g>
<!-- u48 -->
<g id="node9" class="node">
<title>u48</title>
<ellipse fill="#bbbbff" stroke="black" cx="3532.22" cy="-1567" rx="135.68" ry="18"/>
<text text-anchor="middle" x="3532.22" y="-1563.3" font-family="Times,serif" font-size="14.00">Language.Drasil.CodeSpec</text>
</g>
<!-- u4 -->
<g id="node10" class="node">
<title>u4</title>
<ellipse fill="#bbbbff" stroke="black" cx="2836.22" cy="-1316" rx="126.18" ry="18"/>
<text text-anchor="middle" x="2836.22" y="-1312.3" font-family="Times,serif" font-size="14.00">Language.Drasil.Choices</text>
</g>
<!-- u48&#45;&gt;u4 -->
<g id="edge73" class="edge">
<title>u48&#45;&gt;u4</title>
<path fill="none" stroke="black" d="M3487.36,-1549.95C3364.61,-1506.04 3023.58,-1384.03 2890.44,-1336.4"/>
<polygon fill="black" stroke="black" points="2891.44,-1333.04 2880.84,-1332.97 2889.08,-1339.63 2891.44,-1333.04"/>
</g>
<!-- u45 -->
<g id="node14" class="node">
<title>u45</title>
<ellipse fill="#ffbbbb" stroke="black" cx="3172.22" cy="-1316" rx="192.27" ry="18"/>
<text text-anchor="middle" x="3172.22" y="-1312.3" font-family="Times,serif" font-size="14.00">Language.Drasil.Chunk.ConstraintMap</text>
</g>
<!-- u48&#45;&gt;u45 -->
<g id="edge75" class="edge">
<title>u48&#45;&gt;u45</title>
<path fill="none" stroke="black" d="M3508.04,-1549.28C3445.17,-1505.79 3276.51,-1389.13 3204.99,-1339.67"/>
<polygon fill="black" stroke="black" points="3206.98,-1336.79 3196.77,-1333.98 3203,-1342.55 3206.98,-1336.79"/>
</g>
<!-- u44 -->
<g id="node15" class="node">
<title>u44</title>
<ellipse fill="#ffbbbb" stroke="black" cx="3573.22" cy="-1316" rx="191.17" ry="18"/>
<text text-anchor="middle" x="3573.22" y="-1312.3" font-family="Times,serif" font-size="14.00">Language.Drasil.Chunk.CodeDefinition</text>
</g>
<!-- u48&#45;&gt;u44 -->
<g id="edge74" class="edge">
<title>u48&#45;&gt;u44</title>
<path fill="none" stroke="black" d="M3535.04,-1548.89C3542.03,-1506.42 3560.22,-1395.92 3568.72,-1344.31"/>
<polygon fill="black" stroke="black" points="3572.21,-1344.67 3570.38,-1334.23 3565.3,-1343.53 3572.21,-1344.67"/>
</g>
<!-- u41 -->
<g id="node18" class="node">
<title>u41</title>
<ellipse fill="#bbffff" stroke="black" cx="2729.22" cy="-1066" rx="139.98" ry="18"/>
<text text-anchor="middle" x="2729.22" y="-1062.3" font-family="Times,serif" font-size="14.00">Language.Drasil.Code.Code</text>
</g>
<!-- u4&#45;&gt;u41 -->
<g id="edge10" class="edge">
<title>u4&#45;&gt;u41</title>
<path fill="none" stroke="black" d="M2828.86,-1297.95C2810.54,-1255.48 2762.74,-1144.68 2740.68,-1093.56"/>
<polygon fill="black" stroke="black" points="2743.8,-1091.96 2736.62,-1084.17 2737.37,-1094.73 2743.8,-1091.96"/>
</g>
<!-- u1 -->
<g id="node56" class="node">
<title>u1</title>
<ellipse fill="#ff77ff" stroke="black" cx="3103.22" cy="-1066" rx="172.77" ry="18"/>
<text text-anchor="middle" x="3103.22" y="-1062.3" font-family="Times,serif" font-size="14.00">Language.Drasil.Data.ODELibPckg</text>
</g>
<!-- u4&#45;&gt;u1 -->
<g id="edge9" class="edge">
<title>u4&#45;&gt;u1</title>
<path fill="none" stroke="black" d="M2854.57,-1297.95C2901.06,-1254.77 3023.58,-1140.97 3077.32,-1091.05"/>
<polygon fill="black" stroke="black" points="3079.79,-1093.54 3084.74,-1084.17 3075.03,-1088.41 3079.79,-1093.54"/>
</g>
<!-- u3 -->
<g id="node11" class="node">
<title>u3</title>
<ellipse fill="#bbbbff" stroke="black" cx="3814.22" cy="-564" rx="110.48" ry="18"/>
<text text-anchor="middle" x="3814.22" y="-560.3" font-family="Times,serif" font-size="14.00">Language.Drasil.Mod</text>
</g>
<!-- u43 -->
<g id="node16" class="node">
<title>u43</title>
<ellipse fill="#ffbbbb" stroke="black" cx="3814.22" cy="-313" rx="170.87" ry="18"/>
<text text-anchor="middle" x="3814.22" y="-309.3" font-family="Times,serif" font-size="14.00">Language.Drasil.Chunk.Parameter</text>
</g>
<!-- u3&#45;&gt;u43 -->
<g id="edge8" class="edge">
<title>u3&#45;&gt;u43</title>
<path fill="none" stroke="black" d="M3814.22,-545.89C3814.22,-503.42 3814.22,-392.92 3814.22,-341.31"/>
<polygon fill="black" stroke="black" points="3817.72,-341.23 3814.22,-331.23 3810.72,-341.23 3817.72,-341.23"/>
</g>
<!-- u6 -->
<g id="node23" class="node">
<title>u6</title>
<ellipse fill="#bbffff" stroke="black" cx="3465.22" cy="-313" rx="160.57" ry="18"/>
<text text-anchor="middle" x="3465.22" y="-309.3" font-family="Times,serif" font-size="14.00">Language.Drasil.Code.DataDesc</text>
</g>
<!-- u3&#45;&gt;u6 -->
<g id="edge7" class="edge">
<title>u3&#45;&gt;u6</title>
<path fill="none" stroke="black" d="M3790.78,-546.28C3729.95,-502.88 3566.98,-386.61 3497.42,-336.97"/>
<polygon fill="black" stroke="black" points="3499.19,-333.94 3489.02,-330.98 3495.12,-339.64 3499.19,-333.94"/>
</g>
<!-- u47 -->
<g id="node12" class="node">
<title>u47</title>
<ellipse fill="#ffbbbb" stroke="black" cx="3465.22" cy="-63" rx="145.67" ry="18"/>
<text text-anchor="middle" x="3465.22" y="-59.3" font-family="Times,serif" font-size="14.00">Language.Drasil.Chunk.Code</text>
</g>
<!-- u46 -->
<g id="node13" class="node">
<title>u46</title>
<ellipse fill="#ffbbbb" stroke="black" cx="3483.22" cy="-564" rx="202.26" ry="18"/>
<text text-anchor="middle" x="3483.22" y="-560.3" font-family="Times,serif" font-size="14.00">Language.Drasil.Chunk.NamedArgument</text>
</g>
<!-- u2 -->
<g id="node55" class="node">
<title>u2</title>
<ellipse fill="#ff77ff" stroke="black" cx="3103.22" cy="-815" rx="154.07" ry="18"/>
<text text-anchor="middle" x="3103.22" y="-811.3" font-family="Times,serif" font-size="14.00">Language.Drasil.Data.ODEInfo</text>
</g>
<!-- u44&#45;&gt;u2 -->
<g id="edge72" class="edge">
<title>u44&#45;&gt;u2</title>
<path fill="none" stroke="black" d="M3557.04,-1297.82C3486.84,-1223.3 3208.5,-927.77 3126.23,-840.43"/>
<polygon fill="black" stroke="black" points="3128.73,-837.98 3119.33,-833.1 3123.64,-842.78 3128.73,-837.98"/>
</g>
<!-- u43&#45;&gt;u47 -->
<g id="edge71" class="edge">
<title>u43&#45;&gt;u47</title>
<path fill="none" stroke="black" d="M3790.5,-295.15C3729.45,-251.76 3566.77,-136.16 3497.35,-86.83"/>
<polygon fill="black" stroke="black" points="3499.14,-83.81 3488.96,-80.87 3495.09,-89.52 3499.14,-83.81"/>
</g>
<!-- u42 -->
<g id="node17" class="node">
<title>u42</title>
<ellipse fill="#bbffff" stroke="black" cx="2792.22" cy="-815" rx="139.18" ry="18"/>
<text text-anchor="middle" x="2792.22" y="-811.3" font-family="Times,serif" font-size="14.00">Language.Drasil.Code.Lang</text>
</g>
<!-- u40 -->
<g id="node19" class="node">
<title>u40</title>
<ellipse fill="#bbffff" stroke="black" cx="3899.22" cy="-815" rx="190.37" ry="18"/>
<text text-anchor="middle" x="3899.22" y="-811.3" font-family="Times,serif" font-size="14.00">Language.Drasil.Code.ExternalLibrary</text>
</g>
<!-- u40&#45;&gt;u3 -->
<g id="edge69" class="edge">
<title>u40&#45;&gt;u3</title>
<path fill="none" stroke="black" d="M3893.38,-796.89C3878.85,-754.33 3841,-643.46 3823.43,-591.99"/>
<polygon fill="black" stroke="black" points="3826.64,-590.57 3820.1,-582.23 3820.02,-592.83 3826.64,-590.57"/>
</g>
<!-- u40&#45;&gt;u46 -->
<g id="edge70" class="edge">
<title>u40&#45;&gt;u46</title>
<path fill="none" stroke="black" d="M3870.95,-797.08C3797.88,-753.34 3602.69,-636.51 3520.51,-587.32"/>
<polygon fill="black" stroke="black" points="3521.9,-584.08 3511.52,-581.94 3518.31,-590.08 3521.9,-584.08"/>
</g>
<!-- u39 -->
<g id="node20" class="node">
<title>u39</title>
<ellipse fill="#bbffff" stroke="black" cx="4644.22" cy="-2069" rx="204.16" ry="18"/>
<text text-anchor="middle" x="4644.22" y="-2065.3" font-family="Times,serif" font-size="14.00">Language.Drasil.Code.CodeQuantityDicts</text>
</g>
<!-- u8 -->
<g id="node21" class="node">
<title>u8</title>
<ellipse fill="#bbffff" stroke="black" cx="3845.22" cy="-1066" rx="178.97" ry="18"/>
<text text-anchor="middle" x="3845.22" y="-1062.3" font-family="Times,serif" font-size="14.00">Language.Drasil.Code.ExtLibImport</text>
</g>
<!-- u8&#45;&gt;u40 -->
<g id="edge17" class="edge">
<title>u8&#45;&gt;u40</title>
<path fill="none" stroke="black" d="M3848.93,-1047.89C3858.14,-1005.42 3882.1,-894.92 3893.3,-843.31"/>
<polygon fill="black" stroke="black" points="3896.78,-843.75 3895.48,-833.23 3889.94,-842.27 3896.78,-843.75"/>
</g>
<!-- u5 -->
<g id="node24" class="node">
<title>u5</title>
<ellipse fill="#bbffff" stroke="black" cx="3483.22" cy="-815" rx="207.96" ry="18"/>
<text text-anchor="middle" x="3483.22" y="-811.3" font-family="Times,serif" font-size="14.00">Language.Drasil.Code.ExternalLibraryCall</text>
</g>
<!-- u8&#45;&gt;u5 -->
<g id="edge16" class="edge">
<title>u8&#45;&gt;u5</title>
<path fill="none" stroke="black" d="M3820.62,-1048.08C3757.16,-1004.43 3587.87,-887.98 3516.1,-838.62"/>
<polygon fill="black" stroke="black" points="3518.07,-835.73 3507.85,-832.94 3514.11,-841.49 3518.07,-835.73"/>
</g>
<!-- u7 -->
<g id="node22" class="node">
<title>u7</title>
<ellipse fill="#bbffff" stroke="black" cx="3885.22" cy="-2821" rx="191.17" ry="18"/>
<text text-anchor="middle" x="3885.22" y="-2817.3" font-family="Times,serif" font-size="14.00">Language.Drasil.Code.CodeGeneration</text>
</g>
<!-- u7&#45;&gt;u41 -->
<g id="edge15" class="edge">
<title>u7&#45;&gt;u41</title>
<path fill="none" stroke="black" d="M3857.04,-2803.09C3797.04,-2766.62 3653.09,-2676.7 3542.22,-2588 3397.37,-2472.11 3397.87,-2396.46 3238.22,-2302 2971.61,-2144.27 2770.53,-2327.44 2575.22,-2087 2319.93,-1772.71 2635.69,-1217.97 2712.95,-1092.64"/>
<polygon fill="black" stroke="black" points="2715.98,-1094.39 2718.29,-1084.05 2710.04,-1090.7 2715.98,-1094.39"/>
</g>
<!-- u36 -->
<g id="node45" class="node">
<title>u36</title>
<ellipse fill="#7777ff" stroke="black" cx="2453.22" cy="-2570" rx="222.06" ry="18"/>
<text text-anchor="middle" x="2453.22" y="-2566.3" font-family="Times,serif" font-size="14.00">Language.Drasil.Code.Imperative.GOOL.Data</text>
</g>
<!-- u7&#45;&gt;u36 -->
<g id="edge14" class="edge">
<title>u7&#45;&gt;u36</title>
<path fill="none" stroke="black" d="M3798.6,-2804.94C3547.29,-2761.24 2818.95,-2634.59 2552.43,-2588.25"/>
<polygon fill="black" stroke="black" points="2552.83,-2584.77 2542.38,-2586.5 2551.63,-2591.66 2552.83,-2584.77"/>
</g>
<!-- u6&#45;&gt;u47 -->
<g id="edge13" class="edge">
<title>u6&#45;&gt;u47</title>
<path fill="none" stroke="black" d="M3465.22,-294.95C3465.22,-252.66 3465.22,-142.61 3465.22,-91.2"/>
<polygon fill="black" stroke="black" points="3468.72,-91.17 3465.22,-81.17 3461.72,-91.17 3468.72,-91.17"/>
</g>
<!-- u5&#45;&gt;u3 -->
<g id="edge11" class="edge">
<title>u5&#45;&gt;u3</title>
<path fill="none" stroke="black" d="M3505.71,-797.08C3563.5,-753.61 3717.27,-637.93 3783.34,-588.23"/>
<polygon fill="black" stroke="black" points="3785.81,-590.75 3791.7,-581.94 3781.6,-585.16 3785.81,-590.75"/>
</g>
<!-- u5&#45;&gt;u46 -->
<g id="edge12" class="edge">
<title>u5&#45;&gt;u46</title>
<path fill="none" stroke="black" d="M3483.22,-796.89C3483.22,-754.42 3483.22,-643.92 3483.22,-592.31"/>
<polygon fill="black" stroke="black" points="3486.72,-592.23 3483.22,-582.23 3479.72,-592.23 3486.72,-592.23"/>
</g>
<!-- u38 -->
<g id="node25" class="node">
<title>u38</title>
<ellipse fill="#ffbbff" stroke="black" cx="4216.22" cy="-2069" rx="206.06" ry="18"/>
<text text-anchor="middle" x="4216.22" y="-2065.3" font-family="Times,serif" font-size="14.00">Language.Drasil.Code.Imperative.Helpers</text>
</g>
<!-- u20 -->
<g id="node34" class="node">
<title>u20</title>
<ellipse fill="#ffbbff" stroke="black" cx="3792.22" cy="-1818" rx="222.06" ry="18"/>
<text text-anchor="middle" x="3792.22" y="-1814.3" font-family="Times,serif" font-size="14.00">Language.Drasil.Code.Imperative.DrasilState</text>
</g>
<!-- u38&#45;&gt;u20 -->
<g id="edge68" class="edge">
<title>u38&#45;&gt;u20</title>
<path fill="none" stroke="black" d="M4187.41,-2051.08C4112.78,-2007.25 3913.18,-1890.03 3829.72,-1841.02"/>
<polygon fill="black" stroke="black" points="3831.46,-1837.99 3821.07,-1835.94 3827.92,-1844.02 3831.46,-1837.99"/>
</g>
<!-- u37 -->
<g id="node26" class="node">
<title>u37</title>
<ellipse fill="#ffbbff" stroke="black" cx="1876.22" cy="-1567" rx="219.86" ry="18"/>
<text text-anchor="middle" x="1876.22" y="-1563.3" font-family="Times,serif" font-size="14.00">Language.Drasil.Code.Imperative.WriteInput</text>
</g>
<!-- u37&#45;&gt;u6 -->
<g id="edge67" class="edge">
<title>u37&#45;&gt;u6</title>
<path fill="none" stroke="black" d="M1915.98,-1549.12C2032.87,-1496.55 2367.22,-1323.75 2367.22,-1067 2367.22,-1067 2367.22,-1067 2367.22,-814 2367.22,-410.53 2988.87,-331.15 3296.66,-316.58"/>
<polygon fill="black" stroke="black" points="3297.19,-320.06 3307.03,-316.1 3296.88,-313.06 3297.19,-320.06"/>
</g>
<!-- u27 -->
<g id="node27" class="node">
<title>u27</title>
<ellipse fill="#ffbbff" stroke="black" cx="4644.22" cy="-2320" rx="223.66" ry="18"/>
<text text-anchor="middle" x="4644.22" y="-2316.3" font-family="Times,serif" font-size="14.00">Language.Drasil.Code.Imperative.Parameters</text>
</g>
<!-- u27&#45;&gt;u39 -->
<g id="edge50" class="edge">
<title>u27&#45;&gt;u39</title>
<path fill="none" stroke="black" d="M4644.22,-2301.89C4644.22,-2259.42 4644.22,-2148.92 4644.22,-2097.31"/>
<polygon fill="black" stroke="black" points="4647.72,-2097.23 4644.22,-2087.23 4640.72,-2097.23 4647.72,-2097.23"/>
</g>
<!-- u27&#45;&gt;u20 -->
<g id="edge49" class="edge">
<title>u27&#45;&gt;u20</title>
<path fill="none" stroke="black" d="M4676.15,-2302.16C4752.42,-2259.82 4933.37,-2145.53 4857.22,-2051 4747.21,-1914.44 4238.29,-1854.01 3965.72,-1831.06"/>
<polygon fill="black" stroke="black" points="3965.98,-1827.57 3955.72,-1830.22 3965.4,-1834.54 3965.98,-1827.57"/>
</g>
<!-- u26 -->
<g id="node28" class="node">
<title>u26</title>
<ellipse fill="#ffbbff" stroke="black" cx="4736.22" cy="-2570" rx="226.66" ry="18"/>
<text text-anchor="middle" x="4736.22" y="-2566.3" font-family="Times,serif" font-size="14.00">Language.Drasil.Code.Imperative.SpaceMatch</text>
</g>
<!-- u26&#45;&gt;u20 -->
<g id="edge48" class="edge">
<title>u26&#45;&gt;u20</title>
<path fill="none" stroke="black" d="M4754.35,-2552.04C4790.83,-2516.54 4872.18,-2430.02 4902.22,-2338 4941.8,-2216.74 4984.68,-2149.98 4904.22,-2051 4789.27,-1909.59 4260.77,-1851.45 3975.71,-1830.04"/>
<polygon fill="black" stroke="black" points="3975.9,-1826.54 3965.67,-1829.29 3975.39,-1833.53 3975.9,-1826.54"/>
</g>
<!-- u25&#45;&gt;u7 -->
<g id="edge44" class="edge">
<title>u25&#45;&gt;u7</title>
<path fill="none" stroke="black" d="M4274.82,-3054.08C4201.31,-3010.3 4004.86,-2893.27 3922.44,-2844.17"/>
<polygon fill="black" stroke="black" points="3924.04,-2841.05 3913.66,-2838.94 3920.46,-2847.07 3924.04,-2841.05"/>
</g>
<!-- u25&#45;&gt;u26 -->
<g id="edge47" class="edge">
<title>u25&#45;&gt;u26</title>
<path fill="none" stroke="black" d="M4320.1,-3053.97C4357.37,-3016.17 4449.09,-2922.04 4521.22,-2839 4596.68,-2752.12 4680.5,-2643.99 4717.23,-2595.97"/>
<polygon fill="black" stroke="black" points="4720.04,-2598.07 4723.33,-2587.99 4714.48,-2593.82 4720.04,-2598.07"/>
</g>
<!-- u23 -->
<g id="node31" class="node">
<title>u23</title>
<ellipse fill="#ffbbff" stroke="black" cx="4303.22" cy="-2821" rx="209.06" ry="18"/>
<text text-anchor="middle" x="4303.22" y="-2817.3" font-family="Times,serif" font-size="14.00">Language.Drasil.Code.Imperative.Modules</text>
</g>
<!-- u25&#45;&gt;u23 -->
<g id="edge46" class="edge">
<title>u25&#45;&gt;u23</title>
<path fill="none" stroke="black" d="M4303.22,-3053.89C4303.22,-3011.42 4303.22,-2900.92 4303.22,-2849.31"/>
<polygon fill="black" stroke="black" points="4306.72,-2849.23 4303.22,-2839.23 4299.72,-2849.23 4306.72,-2849.23"/>
</g>
<!-- u16 -->
<g id="node38" class="node">
<title>u16</title>
<ellipse fill="#ffbbff" stroke="black" cx="4030.22" cy="-1567" rx="209.86" ry="18"/>
<text text-anchor="middle" x="4030.22" y="-1563.3" font-family="Times,serif" font-size="14.00">Language.Drasil.Code.Imperative.GenODE</text>
</g>
<!-- u25&#45;&gt;u16 -->
<g id="edge45" class="edge">
<title>u25&#45;&gt;u16</title>
<path fill="none" stroke="black" d="M4375.87,-3055.02C4552.72,-3011.38 4991.22,-2872.77 4991.22,-2571 4991.22,-2571 4991.22,-2571 4991.22,-2068 4991.22,-1713.98 4471.64,-1610.25 4196.57,-1580.14"/>
<polygon fill="black" stroke="black" points="4196.81,-1576.64 4186.49,-1579.06 4196.06,-1583.6 4196.81,-1576.64"/>
</g>
<!-- u24 -->
<g id="node30" class="node">
<title>u24</title>
<ellipse fill="#ffbbff" stroke="black" cx="3340.22" cy="-2069" rx="219.86" ry="18"/>
<text text-anchor="middle" x="3340.22" y="-2065.3" font-family="Times,serif" font-size="14.00">Language.Drasil.Code.Imperative.Comments</text>
</g>
<!-- u24&#45;&gt;u20 -->
<g id="edge43" class="edge">
<title>u24&#45;&gt;u20</title>
<path fill="none" stroke="black" d="M3370.93,-2051.08C3450.57,-2007.21 3663.7,-1889.8 3752.51,-1840.87"/>
<polygon fill="black" stroke="black" points="3754.39,-1843.83 3761.46,-1835.94 3751.02,-1837.7 3754.39,-1843.83"/>
</g>
<!-- u21 -->
<g id="node33" class="node">
<title>u21</title>
<ellipse fill="#ffbbff" stroke="black" cx="3784.22" cy="-2570" rx="233.16" ry="18"/>
<text text-anchor="middle" x="3784.22" y="-2566.3" font-family="Times,serif" font-size="14.00">Language.Drasil.Code.Imperative.FunctionCalls</text>
</g>
<!-- u23&#45;&gt;u21 -->
<g id="edge42" class="edge">
<title>u23&#45;&gt;u21</title>
<path fill="none" stroke="black" d="M4267.95,-2803.08C4176.14,-2759.03 3929.8,-2640.85 3828.58,-2592.28"/>
<polygon fill="black" stroke="black" points="3830.06,-2589.11 3819.53,-2587.94 3827.03,-2595.42 3830.06,-2589.11"/>
</g>
<!-- u18 -->
<g id="node36" class="node">
<title>u18</title>
<ellipse fill="#ffbbff" stroke="black" cx="4263.22" cy="-2570" rx="228.26" ry="18"/>
<text text-anchor="middle" x="4263.22" y="-2566.3" font-family="Times,serif" font-size="14.00">Language.Drasil.Code.Imperative.Descriptions</text>
</g>
<!-- u23&#45;&gt;u18 -->
<g id="edge41" class="edge">
<title>u23&#45;&gt;u18</title>
<path fill="none" stroke="black" d="M4300.47,-2802.89C4293.65,-2760.42 4275.9,-2649.92 4267.61,-2598.31"/>
<polygon fill="black" stroke="black" points="4271.03,-2597.55 4265.99,-2588.23 4264.12,-2598.66 4271.03,-2597.55"/>
</g>
<!-- u22 -->
<g id="node32" class="node">
<title>u22</title>
<ellipse fill="#ffbbff" stroke="black" cx="3107.22" cy="-1567" rx="237.46" ry="18"/>
<text text-anchor="middle" x="3107.22" y="-1563.3" font-family="Times,serif" font-size="14.00">Language.Drasil.Code.Imperative.ConceptMatch</text>
</g>
<!-- u22&#45;&gt;u4 -->
<g id="edge40" class="edge">
<title>u22&#45;&gt;u4</title>
<path fill="none" stroke="black" d="M3088.59,-1548.89C3041.29,-1505.42 2916.45,-1390.72 2862.11,-1340.79"/>
<polygon fill="black" stroke="black" points="2864.35,-1338.09 2854.62,-1333.91 2859.61,-1343.25 2864.35,-1338.09"/>
</g>
<!-- u21&#45;&gt;u27 -->
<g id="edge39" class="edge">
<title>u21&#45;&gt;u27</title>
<path fill="none" stroke="black" d="M3841.31,-2552.54C3994.36,-2508.4 4413.26,-2387.6 4577.19,-2340.33"/>
<polygon fill="black" stroke="black" points="4578.51,-2343.59 4587.15,-2337.46 4576.57,-2336.87 4578.51,-2343.59"/>
</g>
<!-- u10 -->
<g id="node40" class="node">
<title>u10</title>
<ellipse fill="#ffbbff" stroke="black" cx="3784.22" cy="-2320" rx="201.46" ry="18"/>
<text text-anchor="middle" x="3784.22" y="-2316.3" font-family="Times,serif" font-size="14.00">Language.Drasil.Code.Imperative.Import</text>
</g>
<!-- u21&#45;&gt;u10 -->
<g id="edge38" class="edge">
<title>u21&#45;&gt;u10</title>
<path fill="none" stroke="black" d="M3784.22,-2551.95C3784.22,-2509.66 3784.22,-2399.61 3784.22,-2348.2"/>
<polygon fill="black" stroke="black" points="3787.72,-2348.17 3784.22,-2338.17 3780.72,-2348.17 3787.72,-2348.17"/>
</g>
<!-- u20&#45;&gt;u48 -->
<g id="edge37" class="edge">
<title>u20&#45;&gt;u48</title>
<path fill="none" stroke="black" d="M3774.35,-1799.89C3729.06,-1756.51 3609.68,-1642.19 3557.38,-1592.09"/>
<polygon fill="black" stroke="black" points="3559.51,-1589.29 3549.87,-1584.91 3554.67,-1594.35 3559.51,-1589.29"/>
</g>
<!-- u20&#45;&gt;u8 -->
<g id="edge36" class="edge">
<title>u20&#45;&gt;u8</title>
<path fill="none" stroke="black" d="M3793.43,-1799.93C3800.32,-1702.35 3834.73,-1215.38 3843.29,-1094.3"/>
<polygon fill="black" stroke="black" points="3846.8,-1094.27 3844.01,-1084.05 3839.82,-1093.78 3846.8,-1094.27"/>
</g>
<!-- u19 -->
<g id="node35" class="node">
<title>u19</title>
<ellipse fill="#ffbbff" stroke="black" cx="2824.22" cy="-2069" rx="240.46" ry="18"/>
<text text-anchor="middle" x="2824.22" y="-2065.3" font-family="Times,serif" font-size="14.00">Language.Drasil.Code.Imperative.GenerateGOOL</text>
</g>
<!-- u19&#45;&gt;u20 -->
<g id="edge34" class="edge">
<title>u19&#45;&gt;u20</title>
<path fill="none" stroke="black" d="M2888.11,-2051.57C3060.77,-2007.15 3536.05,-1884.9 3719.06,-1837.82"/>
<polygon fill="black" stroke="black" points="3720.04,-1841.18 3728.86,-1835.3 3718.3,-1834.4 3720.04,-1841.18"/>
</g>
<!-- u35 -->
<g id="node46" class="node">
<title>u35</title>
<ellipse fill="#7777ff" stroke="black" cx="2824.22" cy="-1818" rx="267.25" ry="18"/>
<text text-anchor="middle" x="2824.22" y="-1814.3" font-family="Times,serif" font-size="14.00">Language.Drasil.Code.Imperative.GOOL.ClassInterface</text>
</g>
<!-- u19&#45;&gt;u35 -->
<g id="edge35" class="edge">
<title>u19&#45;&gt;u35</title>
<path fill="none" stroke="black" d="M2824.22,-2050.89C2824.22,-2008.42 2824.22,-1897.92 2824.22,-1846.31"/>
<polygon fill="black" stroke="black" points="2827.72,-1846.23 2824.22,-1836.23 2820.72,-1846.23 2827.72,-1846.23"/>
</g>
<!-- u18&#45;&gt;u20 -->
<g id="edge33" class="edge">
<title>u18&#45;&gt;u20</title>
<path fill="none" stroke="black" d="M4426.07,-2557.38C4571.31,-2537.41 4776.13,-2483.42 4877.22,-2338 4950.03,-2233.26 4958.44,-2150.17 4878.22,-2051 4766.04,-1912.33 4248.72,-1852.92 3970.49,-1830.63"/>
<polygon fill="black" stroke="black" points="3970.53,-1827.13 3960.28,-1829.82 3969.98,-1834.1 3970.53,-1827.13"/>
</g>
<!-- u17&#45;&gt;u6 -->
<g id="edge32" class="edge">
<title>u17&#45;&gt;u6</title>
<path fill="none" stroke="black" d="M5198.99,-1800.23C5084.99,-1747.35 4755.22,-1572.31 4755.22,-1317 4755.22,-1317 4755.22,-1317 4755.22,-814 4755.22,-558.17 3862.03,-381.9 3562.1,-329.92"/>
<polygon fill="black" stroke="black" points="3562.56,-326.44 3552.11,-328.19 3561.37,-333.34 3562.56,-326.44"/>
</g>
<!-- u16&#45;&gt;u4 -->
<g id="edge29" class="edge">
<title>u16&#45;&gt;u4</title>
<path fill="none" stroke="black" d="M3954.17,-1550.14C3739.65,-1505.4 3131.3,-1378.54 2914.31,-1333.28"/>
<polygon fill="black" stroke="black" points="2914.78,-1329.81 2904.27,-1331.19 2913.35,-1336.66 2914.78,-1329.81"/>
</g>
<!-- u16&#45;&gt;u44 -->
<g id="edge31" class="edge">
<title>u16&#45;&gt;u44</title>
<path fill="none" stroke="black" d="M3999.17,-1549.08C3918.55,-1505.16 3702.64,-1387.51 3613.04,-1338.7"/>
<polygon fill="black" stroke="black" points="3614.47,-1335.49 3604.01,-1333.78 3611.12,-1341.64 3614.47,-1335.49"/>
</g>
<!-- u16&#45;&gt;u8 -->
<g id="edge30" class="edge">
<title>u16&#45;&gt;u8</title>
<path fill="none" stroke="black" d="M4023.85,-1548.82C3996.44,-1474.9 3888.42,-1183.52 3855.07,-1093.58"/>
<polygon fill="black" stroke="black" points="3858.32,-1092.26 3851.56,-1084.1 3851.75,-1094.7 3858.32,-1092.26"/>
</g>
<!-- u12 -->
<g id="node39" class="node">
<title>u12</title>
<ellipse fill="#ffbbff" stroke="black" cx="2399.22" cy="-2320" rx="233.16" ry="18"/>
<text text-anchor="middle" x="2399.22" y="-2316.3" font-family="Times,serif" font-size="14.00">Language.Drasil.Code.Imperative.WriteReadMe</text>
</g>
<!-- u12&#45;&gt;u35 -->
<g id="edge26" class="edge">
<title>u12&#45;&gt;u35</title>
<path fill="none" stroke="black" d="M2408.63,-2301.71C2433.04,-2257.6 2501.63,-2138.21 2575.22,-2051 2646.18,-1966.91 2745.67,-1882.39 2794.62,-1842.57"/>
<polygon fill="black" stroke="black" points="2797.03,-1845.13 2802.6,-1836.11 2792.62,-1839.68 2797.03,-1845.13"/>
</g>
<!-- u10&#45;&gt;u39 -->
<g id="edge24" class="edge">
<title>u10&#45;&gt;u39</title>
<path fill="none" stroke="black" d="M3840.65,-2302.66C3993.37,-2258.44 4414.29,-2136.57 4577.93,-2089.19"/>
<polygon fill="black" stroke="black" points="4579.23,-2092.46 4587.86,-2086.32 4577.29,-2085.74 4579.23,-2092.46"/>
</g>
<!-- u10&#45;&gt;u38 -->
<g id="edge23" class="edge">
<title>u10&#45;&gt;u38</title>
<path fill="none" stroke="black" d="M3813.57,-2302.08C3889.61,-2258.25 4092.98,-2141.03 4178.01,-2092.02"/>
<polygon fill="black" stroke="black" points="4179.91,-2094.97 4186.82,-2086.94 4176.41,-2088.9 4179.91,-2094.97"/>
</g>
<!-- u10&#45;&gt;u24 -->
<g id="edge22" class="edge">
<title>u10&#45;&gt;u24</title>
<path fill="none" stroke="black" d="M3754.05,-2302.08C3675.82,-2258.21 3466.46,-2140.8 3379.22,-2091.87"/>
<polygon fill="black" stroke="black" points="3380.86,-2088.78 3370.43,-2086.94 3377.44,-2094.89 3380.86,-2088.78"/>
</g>
<!-- u10&#45;&gt;u22 -->
<g id="edge21" class="edge">
<title>u10&#45;&gt;u22</title>
<path fill="none" stroke="black" d="M3604.82,-2311.79C3446.16,-2294.78 3223.03,-2242.54 3111.22,-2087 3096.77,-2066.9 3104.18,-1698.97 3106.57,-1595.1"/>
<polygon fill="black" stroke="black" points="3110.07,-1595.17 3106.8,-1585.09 3103.07,-1595.01 3110.07,-1595.17"/>
</g>
<!-- u10&#45;&gt;u19 -->
<g id="edge20" class="edge">
<title>u10&#45;&gt;u19</title>
<path fill="none" stroke="black" d="M3721.97,-2302.85C3551.84,-2258.73 3079.64,-2136.25 2897.34,-2088.97"/>
<polygon fill="black" stroke="black" points="2898.14,-2085.56 2887.58,-2086.43 2896.38,-2092.33 2898.14,-2085.56"/>
</g>
<!-- u9 -->
<g id="node41" class="node">
<title>u9</title>
<ellipse fill="#ffbbff" stroke="black" cx="3785.22" cy="-2069" rx="207.16" ry="18"/>
<text text-anchor="middle" x="3785.22" y="-2065.3" font-family="Times,serif" font-size="14.00">Language.Drasil.Code.Imperative.Logging</text>
</g>
<!-- u10&#45;&gt;u9 -->
<g id="edge19" class="edge">
<title>u10&#45;&gt;u9</title>
<path fill="none" stroke="black" d="M3784.29,-2301.89C3784.46,-2259.42 3784.9,-2148.92 3785.11,-2097.31"/>
<polygon fill="black" stroke="black" points="3788.61,-2097.25 3785.15,-2087.23 3781.61,-2097.22 3788.61,-2097.25"/>
</g>
<!-- u9&#45;&gt;u20 -->
<g id="edge18" class="edge">
<title>u9&#45;&gt;u20</title>
<path fill="none" stroke="black" d="M3785.7,-2050.89C3786.89,-2008.42 3790,-1897.92 3791.45,-1846.31"/>
<polygon fill="black" stroke="black" points="3794.95,-1846.33 3791.73,-1836.23 3787.95,-1846.13 3794.95,-1846.33"/>
</g>
<!-- u14 -->
<g id="node42" class="node">
<title>u14</title>
<ellipse fill="#77ff77" stroke="black" cx="1881.22" cy="-2069" rx="215.56" ry="18"/>
<text text-anchor="middle" x="1881.22" y="-2065.3" font-family="Times,serif" font-size="14.00">Language.Drasil.Code.Imperative.Build.AST</text>
</g>
<!-- u13 -->
<g id="node43" class="node">
<title>u13</title>
<ellipse fill="#77ff77" stroke="black" cx="1881.22" cy="-2320" rx="228.56" ry="18"/>
<text text-anchor="middle" x="1881.22" y="-2316.3" font-family="Times,serif" font-size="14.00">Language.Drasil.Code.Imperative.Build.Import</text>
</g>
<!-- u13&#45;&gt;u14 -->
<g id="edge27" class="edge">
<title>u13&#45;&gt;u14</title>
<path fill="none" stroke="black" d="M1881.22,-2301.89C1881.22,-2259.42 1881.22,-2148.92 1881.22,-2097.31"/>
<polygon fill="black" stroke="black" points="1884.72,-2097.23 1881.22,-2087.23 1877.72,-2097.23 1884.72,-2097.23"/>
</g>
<!-- u15 -->
<g id="node44" class="node">
<title>u15</title>
<ellipse fill="#ffff77" stroke="black" cx="2177.22" cy="-1818" rx="245.06" ry="18"/>
<text text-anchor="middle" x="2177.22" y="-1814.3" font-family="Times,serif" font-size="14.00">Language.Drasil.Code.Imperative.Doxygen.Import</text>
</g>
<!-- u15&#45;&gt;u4 -->
<g id="edge28" class="edge">
<title>u15&#45;&gt;u4</title>
<path fill="none" stroke="black" d="M2199.9,-1799.79C2298.83,-1724.73 2692.63,-1425.94 2805.71,-1340.15"/>
<polygon fill="black" stroke="black" points="2808.12,-1342.72 2813.97,-1333.88 2803.89,-1337.14 2808.12,-1342.72"/>
</g>
<!-- u35&#45;&gt;u4 -->
<g id="edge66" class="edge">
<title>u35&#45;&gt;u4</title>
<path fill="none" stroke="black" d="M2824.63,-1799.79C2826.41,-1725.86 2833.39,-1434.93 2835.57,-1344.19"/>
<polygon fill="black" stroke="black" points="2839.07,-1344.22 2835.81,-1334.14 2832.07,-1344.05 2839.07,-1344.22"/>
</g>
<!-- u34 -->
<g id="node47" class="node">
<title>u34</title>
<ellipse fill="#7777ff" stroke="black" cx="2940.22" cy="-2320" rx="289.45" ry="18"/>
<text text-anchor="middle" x="2940.22" y="-2316.3" font-family="Times,serif" font-size="14.00">Language.Drasil.Code.Imperative.GOOL.LanguageRenderer</text>
</g>
<!-- u33&#45;&gt;u36 -->
<g id="edge65" class="edge">
<title>u33&#45;&gt;u36</title>
<path fill="none" stroke="black" d="M2564.97,-2802.89C2544.38,-2760.15 2490.58,-2648.53 2465.91,-2597.34"/>
<polygon fill="black" stroke="black" points="2469.02,-2595.72 2461.52,-2588.23 2462.71,-2598.76 2469.02,-2595.72"/>
</g>
<!-- u32 -->
<g id="node49" class="node">
<title>u32</title>
<ellipse fill="#ff7777" stroke="black" cx="1819.22" cy="-2570" rx="393.73" ry="18"/>
<text text-anchor="middle" x="1819.22" y="-2566.3" font-family="Times,serif" font-size="14.00">Language.Drasil.Code.Imperative.GOOL.LanguageRenderer.LanguagePolymorphic</text>
</g>
<!-- u33&#45;&gt;u32 -->
<g id="edge64" class="edge">
<title>u33&#45;&gt;u32</title>
<path fill="none" stroke="black" d="M2521.99,-2803.08C2387.52,-2758.68 2024.94,-2638.94 1880.15,-2591.12"/>
<polygon fill="black" stroke="black" points="1881.11,-2587.75 1870.52,-2587.94 1878.92,-2594.4 1881.11,-2587.75"/>
</g>
<!-- u32&#45;&gt;u37 -->
<g id="edge63" class="edge">
<title>u32&#45;&gt;u37</title>
<path fill="none" stroke="black" d="M1799.36,-2551.77C1760.32,-2516.42 1674.66,-2431.15 1643.22,-2338 1638.1,-2322.84 1642.8,-2317.99 1643.22,-2302 1646.11,-2190.33 1629.71,-2159.51 1656.22,-2051 1701.52,-1865.54 1817.61,-1663.89 1860.22,-1593.75"/>
<polygon fill="black" stroke="black" points="1863.27,-1595.46 1865.5,-1585.11 1857.3,-1591.81 1863.27,-1595.46"/>
</g>
<!-- u32&#45;&gt;u12 -->
<g id="edge59" class="edge">
<title>u32&#45;&gt;u12</title>
<path fill="none" stroke="black" d="M1859.08,-2551.95C1962.29,-2507.82 2237.97,-2389.95 2350.43,-2341.86"/>
<polygon fill="black" stroke="black" points="2352.02,-2344.99 2359.84,-2337.84 2349.27,-2338.55 2352.02,-2344.99"/>
</g>
<!-- u32&#45;&gt;u13 -->
<g id="edge60" class="edge">
<title>u32&#45;&gt;u13</title>
<path fill="none" stroke="black" d="M1823.48,-2551.95C1834.08,-2509.57 1861.68,-2399.14 1874.5,-2347.88"/>
<polygon fill="black" stroke="black" points="1877.9,-2348.72 1876.93,-2338.17 1871.11,-2347.02 1877.9,-2348.72"/>
</g>
<!-- u32&#45;&gt;u15 -->
<g id="edge61" class="edge">
<title>u32&#45;&gt;u15</title>
<path fill="none" stroke="black" d="M1857.58,-2552.06C1923.79,-2520.57 2058.25,-2446.25 2119.22,-2338 2212.92,-2171.64 2191.71,-1927.76 2181.24,-1846.49"/>
<polygon fill="black" stroke="black" points="2184.64,-1845.57 2179.84,-1836.12 2177.71,-1846.5 2184.64,-1845.57"/>
</g>
<!-- u32&#45;&gt;u34 -->
<g id="edge62" class="edge">
<title>u32&#45;&gt;u34</title>
<path fill="none" stroke="black" d="M1894.95,-2552.25C2096.6,-2507.63 2645.56,-2386.19 2856.29,-2339.57"/>
<polygon fill="black" stroke="black" points="2857.06,-2342.98 2866.07,-2337.4 2855.55,-2336.15 2857.06,-2342.98"/>
</g>
<!-- u31&#45;&gt;u36 -->
<g id="edge58" class="edge">
<title>u31&#45;&gt;u36</title>
<path fill="none" stroke="black" d="M3258.85,-2803.18C3104.2,-2758.61 2684.52,-2637.66 2520.34,-2590.34"/>
<polygon fill="black" stroke="black" points="2520.95,-2586.88 2510.37,-2587.47 2519.01,-2593.6 2520.95,-2586.88"/>
</g>
<!-- u31&#45;&gt;u32 -->
<g id="edge57" class="edge">
<title>u31&#45;&gt;u32</title>
<path fill="none" stroke="black" d="M3218.93,-2803.66C2950.98,-2759.12 2209.05,-2635.8 1928.54,-2589.17"/>
<polygon fill="black" stroke="black" points="1928.8,-2585.67 1918.36,-2587.48 1927.65,-2592.57 1928.8,-2585.67"/>
</g>
<!-- u30&#45;&gt;u36 -->
<g id="edge56" class="edge">
<title>u30&#45;&gt;u36</title>
<path fill="none" stroke="black" d="M486.71,-2804.28C865.31,-2759.37 1948.67,-2630.85 2323.63,-2586.37"/>
<polygon fill="black" stroke="black" points="2324.19,-2589.83 2333.71,-2585.18 2323.37,-2582.88 2324.19,-2589.83"/>
</g>
<!-- u30&#45;&gt;u32 -->
<g id="edge55" class="edge">
<title>u30&#45;&gt;u32</title>
<path fill="none" stroke="black" d="M450.34,-2803.66C712.39,-2759.12 1437.98,-2635.8 1712.3,-2589.17"/>
<polygon fill="black" stroke="black" points="1712.99,-2592.61 1722.26,-2587.48 1711.82,-2585.7 1712.99,-2592.61"/>
</g>
<!-- u29&#45;&gt;u36 -->
<g id="edge54" class="edge">
<title>u29&#45;&gt;u36</title>
<path fill="none" stroke="black" d="M1169.9,-2803.57C1417.39,-2758.72 2102.85,-2634.49 2356.88,-2588.46"/>
<polygon fill="black" stroke="black" points="2357.61,-2591.88 2366.83,-2586.66 2356.36,-2585 2357.61,-2591.88"/>
</g>
<!-- u29&#45;&gt;u32 -->
<g id="edge53" class="edge">
<title>u29&#45;&gt;u32</title>
<path fill="none" stroke="black" d="M1129.21,-2803.18C1260.79,-2758.9 1616.39,-2639.25 1758.92,-2591.29"/>
<polygon fill="black" stroke="black" points="1760.45,-2594.47 1768.81,-2587.96 1758.22,-2587.83 1760.45,-2594.47"/>
</g>
<!-- u28&#45;&gt;u36 -->
<g id="edge52" class="edge">
<title>u28&#45;&gt;u36</title>
<path fill="none" stroke="black" d="M1862.3,-2803.08C1975.05,-2758.8 2278.53,-2639.61 2400.96,-2591.53"/>
<polygon fill="black" stroke="black" points="2402.47,-2594.69 2410.5,-2587.78 2399.91,-2588.18 2402.47,-2594.69"/>
</g>
<!-- u28&#45;&gt;u32 -->
<g id="edge51" class="edge">
<title>u28&#45;&gt;u32</title>
<path fill="none" stroke="black" d="M1819.22,-2802.89C1819.22,-2760.42 1819.22,-2649.92 1819.22,-2598.31"/>
<polygon fill="black" stroke="black" points="1822.72,-2598.23 1819.22,-2588.23 1815.72,-2598.23 1822.72,-2598.23"/>
</g>
<!-- u11 -->
<g id="node54" class="node">
<title>u11</title>
<ellipse fill="#77ffff" stroke="black" cx="2961.22" cy="-2570" rx="267.55" ry="18"/>
<text text-anchor="middle" x="2961.22" y="-2566.3" font-family="Times,serif" font-size="14.00">Language.Drasil.Code.Imperative.Parsers.ConfigParser</text>
</g>
<!-- u11&#45;&gt;u34 -->
<g id="edge25" class="edge">
<title>u11&#45;&gt;u34</title>
<path fill="none" stroke="black" d="M2959.78,-2551.95C2956.19,-2509.66 2946.87,-2399.61 2942.52,-2348.2"/>
<polygon fill="black" stroke="black" points="2946,-2347.83 2941.67,-2338.17 2939.03,-2348.43 2946,-2347.83"/>
</g>
<!-- u2&#45;&gt;u47 -->
<g id="edge6" class="edge">
<title>u2&#45;&gt;u47</title>
<path fill="none" stroke="black" d="M3107.71,-796.68C3125.53,-729.49 3195.16,-480.63 3295.22,-295 3338.87,-214.01 3408.07,-129.6 3443.2,-88.89"/>
<polygon fill="black" stroke="black" points="3446.04,-90.96 3449.95,-81.11 3440.75,-86.37 3446.04,-90.96"/>
</g>
<!-- u1&#45;&gt;u42 -->
<g id="edge5" class="edge">
<title>u1&#45;&gt;u42</title>
<path fill="none" stroke="black" d="M3081.84,-1047.89C3027.34,-1004.25 2883.12,-888.78 2821.16,-839.18"/>
<polygon fill="black" stroke="black" points="2823.33,-836.42 2813.33,-832.91 2818.95,-841.89 2823.33,-836.42"/>
</g>
<!-- u1&#45;&gt;u40 -->
<g id="edge4" class="edge">
<title>u1&#45;&gt;u40</title>
<path fill="none" stroke="black" d="M3155.14,-1048.76C3296.08,-1004.67 3685.4,-882.89 3837.34,-835.36"/>
<polygon fill="black" stroke="black" points="3838.5,-838.66 3847,-832.33 3836.41,-831.98 3838.5,-838.66"/>
</g>
<!-- u1&#45;&gt;u5 -->
<g id="edge3" class="edge">
<title>u1&#45;&gt;u5</title>
<path fill="none" stroke="black" d="M3129.04,-1048.08C3195.66,-1004.43 3373.37,-887.98 3448.7,-838.62"/>
<polygon fill="black" stroke="black" points="3450.92,-841.35 3457.36,-832.94 3447.08,-835.5 3450.92,-841.35"/>
</g>
<!-- u1&#45;&gt;u2 -->
<g id="edge2" class="edge">
<title>u1&#45;&gt;u2</title>
<path fill="none" stroke="black" d="M3103.22,-1047.89C3103.22,-1005.42 3103.22,-894.92 3103.22,-843.31"/>
<polygon fill="black" stroke="black" points="3106.72,-843.23 3103.22,-833.23 3099.72,-843.23 3106.72,-843.23"/>
</g>
</g>
</svg>
