<?xml version="1.0" encoding="UTF-8" standalone="no"?>
<!DOCTYPE svg PUBLIC "-//W3C//DTD SVG 1.1//EN"
 "http://www.w3.org/Graphics/SVG/1.1/DTD/svg11.dtd">
<!-- Generated by graphviz version 2.43.0 (0)
 -->
<!-- Title: G Pages: 1 -->
<svg width="432pt" height="287pt"
 viewBox="0.00 0.00 432.00 286.67" xmlns="http://www.w3.org/2000/svg" xmlns:xlink="http://www.w3.org/1999/xlink">
<g id="graph0" class="graph" transform="scale(12.48 12.48) rotate(0) translate(4 3574.67)">
<title>G</title>
<polygon fill="white" stroke="transparent" points="-4,4 -4,-3574.67 5388.99,-3574.67 5388.99,4 -4,4"/>
<!-- u54 -->
<g id="node1" class="node">
<title>u54</title>
<ellipse fill="#bbffbb" stroke="black" cx="64.99" cy="-3017" rx="53.89" ry="18"/>
<text text-anchor="middle" x="64.99" y="-3013.3" font-family="Times,serif" font-size="14.00">Observer</text>
</g>
<!-- u53 -->
<g id="node2" class="node">
<title>u53</title>
<ellipse fill="#bbffbb" stroke="black" cx="200.99" cy="-3263" rx="52.79" ry="18"/>
<text text-anchor="middle" x="200.99" y="-3259.3" font-family="Times,serif" font-size="14.00">FileTests</text>
</g>
<!-- u52 -->
<g id="node3" class="node">
<title>u52</title>
<ellipse fill="#bbffbb" stroke="black" cx="333.99" cy="-3263" rx="62.29" ry="18"/>
<text text-anchor="middle" x="333.99" y="-3259.3" font-family="Times,serif" font-size="14.00">HelloWorld</text>
</g>
<!-- u50 -->
<g id="node5" class="node">
<title>u50</title>
<ellipse fill="#bbffbb" stroke="black" cx="255.99" cy="-3017" rx="42.49" ry="18"/>
<text text-anchor="middle" x="255.99" y="-3013.3" font-family="Times,serif" font-size="14.00">Helper</text>
</g>
<!-- u52&#45;&gt;u50 -->
<g id="edge84" class="edge">
<title>u52&#45;&gt;u50</title>
<path fill="none" stroke="black" d="M328.51,-3244.84C315.11,-3202.93 280.64,-3095.09 264.53,-3044.7"/>
<polygon fill="black" stroke="black" points="267.85,-3043.6 261.47,-3035.14 261.18,-3045.73 267.85,-3043.6"/>
</g>
<!-- u51 -->
<g id="node4" class="node">
<title>u51</title>
<ellipse fill="#bbffbb" stroke="black" cx="64.99" cy="-3263" rx="64.99" ry="18"/>
<text text-anchor="middle" x="64.99" y="-3259.3" font-family="Times,serif" font-size="14.00">PatternTest</text>
</g>
<!-- u51&#45;&gt;u54 -->
<g id="edge83" class="edge">
<title>u51&#45;&gt;u54</title>
<path fill="none" stroke="black" d="M64.99,-3244.84C64.99,-3203.1 64.99,-3095.99 64.99,-3045.33"/>
<polygon fill="black" stroke="black" points="68.49,-3045.14 64.99,-3035.14 61.49,-3045.14 68.49,-3045.14"/>
</g>
<!-- u49 -->
<g id="node6" class="node">
<title>u49</title>
<ellipse fill="#ffffbb" stroke="black" cx="1758.99" cy="-3509" rx="214.46" ry="18"/>
<text text-anchor="middle" x="1758.99" y="-3505.3" font-family="Times,serif" font-size="14.00">Data.Drasil.ExternalLibraries.ODELibraries</text>
</g>
<!-- u0 -->
<g id="node10" class="node">
<title>u0</title>
<ellipse fill="#bbbbff" stroke="black" cx="1758.99" cy="-3263" rx="113.18" ry="18"/>
<text text-anchor="middle" x="1758.99" y="-3259.3" font-family="Times,serif" font-size="14.00">Language.Drasil.Code</text>
</g>
<!-- u49&#45;&gt;u0 -->
<g id="edge82" class="edge">
<title>u49&#45;&gt;u0</title>
<path fill="none" stroke="black" d="M1758.99,-3490.84C1758.99,-3449.1 1758.99,-3341.99 1758.99,-3291.33"/>
<polygon fill="black" stroke="black" points="1762.49,-3291.14 1758.99,-3281.14 1755.49,-3291.14 1762.49,-3291.14"/>
</g>
<!-- u48 -->
<g id="node7" class="node">
<title>u48</title>
<ellipse fill="#bbbbff" stroke="black" cx="3393.99" cy="-1293" rx="126.18" ry="18"/>
<text text-anchor="middle" x="3393.99" y="-1289.3" font-family="Times,serif" font-size="14.00">Language.Drasil.Choices</text>
</g>
<!-- u7 -->
<g id="node22" class="node">
<title>u7</title>
<ellipse fill="#bbffff" stroke="black" cx="2855.99" cy="-1047" rx="139.98" ry="18"/>
<text text-anchor="middle" x="2855.99" y="-1043.3" font-family="Times,serif" font-size="14.00">Language.Drasil.Code.Code</text>
</g>
<!-- u48&#45;&gt;u7 -->
<g id="edge80" class="edge">
<title>u48&#45;&gt;u7</title>
<path fill="none" stroke="black" d="M3357.86,-1275.61C3262.93,-1232.56 3006.61,-1116.31 2901.7,-1068.73"/>
<polygon fill="black" stroke="black" points="2902.88,-1065.42 2892.33,-1064.48 2899.99,-1071.8 2902.88,-1065.42"/>
</g>
<!-- u47 -->
<g id="node54" class="node">
<title>u47</title>
<ellipse fill="#ff77ff" stroke="black" cx="3437.99" cy="-1047" rx="172.77" ry="18"/>
<text text-anchor="middle" x="3437.99" y="-1043.3" font-family="Times,serif" font-size="14.00">Language.Drasil.Data.ODELibPckg</text>
</g>
<!-- u48&#45;&gt;u47 -->
<g id="edge81" class="edge">
<title>u48&#45;&gt;u47</title>
<path fill="none" stroke="black" d="M3397.09,-1274.84C3404.63,-1233.02 3424.01,-1125.54 3433.12,-1075.01"/>
<polygon fill="black" stroke="black" points="3436.57,-1075.6 3434.9,-1065.14 3429.68,-1074.36 3436.57,-1075.6"/>
</g>
<!-- u45 -->
<g id="node8" class="node">
<title>u45</title>
<ellipse fill="#bbbbff" stroke="black" cx="3967.99" cy="-554" rx="110.48" ry="18"/>
<text text-anchor="middle" x="3967.99" y="-550.3" font-family="Times,serif" font-size="14.00">Language.Drasil.Mod</text>
</g>
<!-- u3 -->
<g id="node13" class="node">
<title>u3</title>
<ellipse fill="#ffbbbb" stroke="black" cx="3563.99" cy="-308" rx="170.87" ry="18"/>
<text text-anchor="middle" x="3563.99" y="-304.3" font-family="Times,serif" font-size="14.00">Language.Drasil.Chunk.Parameter</text>
</g>
<!-- u45&#45;&gt;u3 -->
<g id="edge73" class="edge">
<title>u45&#45;&gt;u3</title>
<path fill="none" stroke="black" d="M3940.54,-536.42C3869.66,-493.61 3680.47,-379.35 3600.5,-331.05"/>
<polygon fill="black" stroke="black" points="3602.12,-327.94 3591.75,-325.76 3598.5,-333.93 3602.12,-327.94"/>
</g>
<!-- u41 -->
<g id="node18" class="node">
<title>u41</title>
<ellipse fill="#bbffff" stroke="black" cx="2792.99" cy="-308" rx="160.57" ry="18"/>
<text text-anchor="middle" x="2792.99" y="-304.3" font-family="Times,serif" font-size="14.00">Language.Drasil.Code.DataDesc</text>
</g>
<!-- u45&#45;&gt;u41 -->
<g id="edge74" class="edge">
<title>u45&#45;&gt;u41</title>
<path fill="none" stroke="black" d="M3902.73,-539.45C3702.55,-497.88 3097.47,-372.23 2875.66,-326.17"/>
<polygon fill="black" stroke="black" points="2876.2,-322.7 2865.7,-324.1 2874.78,-329.56 2876.2,-322.7"/>
</g>
<!-- u44 -->
<g id="node9" class="node">
<title>u44</title>
<ellipse fill="#bbbbff" stroke="black" cx="3985.99" cy="-1539" rx="135.68" ry="18"/>
<text text-anchor="middle" x="3985.99" y="-1535.3" font-family="Times,serif" font-size="14.00">Language.Drasil.CodeSpec</text>
</g>
<!-- u44&#45;&gt;u48 -->
<g id="edge72" class="edge">
<title>u44&#45;&gt;u48</title>
<path fill="none" stroke="black" d="M3946.23,-1521.61C3841.31,-1478.37 3557.22,-1361.28 3442.76,-1314.1"/>
<polygon fill="black" stroke="black" points="3443.78,-1310.73 3433.2,-1310.16 3441.11,-1317.2 3443.78,-1310.73"/>
</g>
<!-- u5 -->
<g id="node11" class="node">
<title>u5</title>
<ellipse fill="#ffbbbb" stroke="black" cx="3729.99" cy="-1293" rx="192.27" ry="18"/>
<text text-anchor="middle" x="3729.99" y="-1289.3" font-family="Times,serif" font-size="14.00">Language.Drasil.Chunk.ConstraintMap</text>
</g>
<!-- u44&#45;&gt;u5 -->
<g id="edge71" class="edge">
<title>u44&#45;&gt;u5</title>
<path fill="none" stroke="black" d="M3967.99,-1520.84C3923.28,-1478.23 3807.08,-1367.47 3755.4,-1318.22"/>
<polygon fill="black" stroke="black" points="3757.63,-1315.5 3747.98,-1311.14 3752.8,-1320.57 3757.63,-1315.5"/>
</g>
<!-- u4 -->
<g id="node12" class="node">
<title>u4</title>
<ellipse fill="#ffbbbb" stroke="black" cx="4130.99" cy="-1293" rx="191.17" ry="18"/>
<text text-anchor="middle" x="4130.99" y="-1289.3" font-family="Times,serif" font-size="14.00">Language.Drasil.Chunk.CodeDefinition</text>
</g>
<!-- u44&#45;&gt;u4 -->
<g id="edge70" class="edge">
<title>u44&#45;&gt;u4</title>
<path fill="none" stroke="black" d="M3996.19,-1520.84C4021.25,-1478.67 4085.99,-1369.74 4115.69,-1319.76"/>
<polygon fill="black" stroke="black" points="4118.71,-1321.52 4120.81,-1311.14 4112.69,-1317.95 4118.71,-1321.52"/>
</g>
<!-- u29 -->
<g id="node32" class="node">
<title>u29</title>
<ellipse fill="#ffbbff" stroke="black" cx="734.99" cy="-1785" rx="217.96" ry="18"/>
<text text-anchor="middle" x="734.99" y="-1781.3" font-family="Times,serif" font-size="14.00">Language.Drasil.Code.Imperative.ReadInput</text>
</g>
<!-- u0&#45;&gt;u29 -->
<g id="edge7" class="edge">
<title>u0&#45;&gt;u29</title>
<path fill="none" stroke="black" d="M1671.78,-3251.46C1360.98,-3211.53 325.99,-3057.08 325.99,-2771 325.99,-2771 325.99,-2771 325.99,-2277 325.99,-2047.61 592.79,-1868.47 695.42,-1808.05"/>
<polygon fill="black" stroke="black" points="697.37,-1810.96 704.25,-1802.9 693.85,-1804.91 697.37,-1810.96"/>
</g>
<!-- u12 -->
<g id="node40" class="node">
<title>u12</title>
<ellipse fill="#ffbbff" stroke="black" cx="4656.99" cy="-3017" rx="217.16" ry="18"/>
<text text-anchor="middle" x="4656.99" y="-3013.3" font-family="Times,serif" font-size="14.00">Language.Drasil.Code.Imperative.Generator</text>
</g>
<!-- u0&#45;&gt;u12 -->
<g id="edge1" class="edge">
<title>u0&#45;&gt;u12</title>
<path fill="none" stroke="black" d="M1856.24,-3253.81C2280.86,-3218.06 3974.44,-3075.47 4500.37,-3031.19"/>
<polygon fill="black" stroke="black" points="4501.01,-3034.65 4510.68,-3030.32 4500.43,-3027.67 4501.01,-3034.65"/>
</g>
<!-- u22 -->
<g id="node47" class="node">
<title>u22</title>
<ellipse fill="#ff7777" stroke="black" cx="2210.99" cy="-2770" rx="369.33" ry="18"/>
<text text-anchor="middle" x="2210.99" y="-2766.3" font-family="Times,serif" font-size="14.00">Language.Drasil.Code.Imperative.GOOL.LanguageRenderer.CSharpRenderer</text>
</g>
<!-- u0&#45;&gt;u22 -->
<g id="edge6" class="edge">
<title>u0&#45;&gt;u22</title>
<path fill="none" stroke="black" d="M1774.55,-3245.1C1841.92,-3171.92 2108.61,-2882.21 2188.36,-2795.59"/>
<polygon fill="black" stroke="black" points="2191.07,-2797.81 2195.27,-2788.08 2185.92,-2793.07 2191.07,-2797.81"/>
</g>
<!-- u21 -->
<g id="node48" class="node">
<title>u21</title>
<ellipse fill="#ff7777" stroke="black" cx="2950.99" cy="-2770" rx="352.84" ry="18"/>
<text text-anchor="middle" x="2950.99" y="-2766.3" font-family="Times,serif" font-size="14.00">Language.Drasil.Code.Imperative.GOOL.LanguageRenderer.CppRenderer</text>
</g>
<!-- u0&#45;&gt;u21 -->
<g id="edge5" class="edge">
<title>u0&#45;&gt;u21</title>
<path fill="none" stroke="black" d="M1797.64,-3246.08C1973.89,-3173.48 2701.48,-2873.78 2900.49,-2791.81"/>
<polygon fill="black" stroke="black" points="2901.92,-2795 2909.83,-2787.95 2899.25,-2788.53 2901.92,-2795"/>
</g>
<!-- u20 -->
<g id="node49" class="node">
<title>u20</title>
<ellipse fill="#ff7777" stroke="black" cx="3675.99" cy="-2770" rx="354.44" ry="18"/>
<text text-anchor="middle" x="3675.99" y="-2766.3" font-family="Times,serif" font-size="14.00">Language.Drasil.Code.Imperative.GOOL.LanguageRenderer.JavaRenderer</text>
</g>
<!-- u0&#45;&gt;u20 -->
<g id="edge4" class="edge">
<title>u0&#45;&gt;u20</title>
<path fill="none" stroke="black" d="M1815.85,-3247.44C2091.4,-3176.86 3287.53,-2870.5 3600.71,-2790.28"/>
<polygon fill="black" stroke="black" points="3601.78,-2793.62 3610.6,-2787.75 3600.04,-2786.84 3601.78,-2793.62"/>
</g>
<!-- u18 -->
<g id="node51" class="node">
<title>u18</title>
<ellipse fill="#ff7777" stroke="black" cx="720.99" cy="-2770" rx="367.43" ry="18"/>
<text text-anchor="middle" x="720.99" y="-2766.3" font-family="Times,serif" font-size="14.00">Language.Drasil.Code.Imperative.GOOL.LanguageRenderer.PythonRenderer</text>
</g>
<!-- u0&#45;&gt;u18 -->
<g id="edge3" class="edge">
<title>u0&#45;&gt;u18</title>
<path fill="none" stroke="black" d="M1724.75,-3245.8C1570.53,-3172.85 940.34,-2874.75 765.92,-2792.25"/>
<polygon fill="black" stroke="black" points="767.3,-2789.03 756.76,-2787.92 764.31,-2795.36 767.3,-2789.03"/>
</g>
<!-- u17 -->
<g id="node52" class="node">
<title>u17</title>
<ellipse fill="#ff7777" stroke="black" cx="1464.99" cy="-2770" rx="358.54" ry="18"/>
<text text-anchor="middle" x="1464.99" y="-2766.3" font-family="Times,serif" font-size="14.00">Language.Drasil.Code.Imperative.GOOL.LanguageRenderer.SwiftRenderer</text>
</g>
<!-- u0&#45;&gt;u17 -->
<g id="edge2" class="edge">
<title>u0&#45;&gt;u17</title>
<path fill="none" stroke="black" d="M1748.7,-3244.81C1704.82,-3171.53 1533.19,-2884.89 1480.48,-2796.86"/>
<polygon fill="black" stroke="black" points="1483.34,-2794.83 1475.2,-2788.05 1477.34,-2798.43 1483.34,-2794.83"/>
</g>
<!-- u46 -->
<g id="node55" class="node">
<title>u46</title>
<ellipse fill="#ff77ff" stroke="black" cx="3126.99" cy="-800" rx="154.07" ry="18"/>
<text text-anchor="middle" x="3126.99" y="-796.3" font-family="Times,serif" font-size="14.00">Language.Drasil.Data.ODEInfo</text>
</g>
<!-- u4&#45;&gt;u46 -->
<g id="edge9" class="edge">
<title>u4&#45;&gt;u46</title>
<path fill="none" stroke="black" d="M4034.75,-1277.4C3833.36,-1245.23 3376.23,-1163.24 3255.99,-1065 3178.96,-1002.06 3144.44,-881.83 3132.36,-828.1"/>
<polygon fill="black" stroke="black" points="3135.77,-827.32 3130.23,-818.28 3128.92,-828.8 3135.77,-827.32"/>
</g>
<!-- u1 -->
<g id="node15" class="node">
<title>u1</title>
<ellipse fill="#ffbbbb" stroke="black" cx="3126.99" cy="-62" rx="145.67" ry="18"/>
<text text-anchor="middle" x="3126.99" y="-58.3" font-family="Times,serif" font-size="14.00">Language.Drasil.Chunk.Code</text>
</g>
<!-- u3&#45;&gt;u1 -->
<g id="edge8" class="edge">
<title>u3&#45;&gt;u1</title>
<path fill="none" stroke="black" d="M3533.96,-290.23C3456.84,-247.17 3251.9,-132.74 3165.87,-84.71"/>
<polygon fill="black" stroke="black" points="3167.39,-81.55 3156.95,-79.73 3163.98,-87.66 3167.39,-81.55"/>
</g>
<!-- u2 -->
<g id="node14" class="node">
<title>u2</title>
<ellipse fill="#ffbbbb" stroke="black" cx="3636.99" cy="-554" rx="202.26" ry="18"/>
<text text-anchor="middle" x="3636.99" y="-550.3" font-family="Times,serif" font-size="14.00">Language.Drasil.Chunk.NamedArgument</text>
</g>
<!-- u43 -->
<g id="node16" class="node">
<title>u43</title>
<ellipse fill="#bbffff" stroke="black" cx="4305.99" cy="-1047" rx="178.97" ry="18"/>
<text text-anchor="middle" x="4305.99" y="-1043.3" font-family="Times,serif" font-size="14.00">Language.Drasil.Code.ExtLibImport</text>
</g>
<!-- u40 -->
<g id="node19" class="node">
<title>u40</title>
<ellipse fill="#bbffff" stroke="black" cx="4218.99" cy="-800" rx="190.37" ry="18"/>
<text text-anchor="middle" x="4218.99" y="-796.3" font-family="Times,serif" font-size="14.00">Language.Drasil.Code.ExternalLibrary</text>
</g>
<!-- u43&#45;&gt;u40 -->
<g id="edge69" class="edge">
<title>u43&#45;&gt;u40</title>
<path fill="none" stroke="black" d="M4299.88,-1028.77C4284.93,-986.69 4246.48,-878.41 4228.51,-827.81"/>
<polygon fill="black" stroke="black" points="4231.75,-826.46 4225.11,-818.21 4225.15,-828.8 4231.75,-826.46"/>
</g>
<!-- u6 -->
<g id="node23" class="node">
<title>u6</title>
<ellipse fill="#bbffff" stroke="black" cx="3802.99" cy="-800" rx="207.96" ry="18"/>
<text text-anchor="middle" x="3802.99" y="-796.3" font-family="Times,serif" font-size="14.00">Language.Drasil.Code.ExternalLibraryCall</text>
</g>
<!-- u43&#45;&gt;u6 -->
<g id="edge68" class="edge">
<title>u43&#45;&gt;u6</title>
<path fill="none" stroke="black" d="M4271.42,-1029.16C4182.29,-985.75 3944.85,-870.09 3846.55,-822.21"/>
<polygon fill="black" stroke="black" points="3848,-819.03 3837.48,-817.8 3844.93,-825.32 3848,-819.03"/>
</g>
<!-- u42 -->
<g id="node17" class="node">
<title>u42</title>
<ellipse fill="#bbffff" stroke="black" cx="4238.99" cy="-2770" rx="191.17" ry="18"/>
<text text-anchor="middle" x="4238.99" y="-2766.3" font-family="Times,serif" font-size="14.00">Language.Drasil.Code.CodeGeneration</text>
</g>
<!-- u42&#45;&gt;u7 -->
<g id="edge66" class="edge">
<title>u42&#45;&gt;u7</title>
<path fill="none" stroke="black" d="M4200.26,-2752.2C4074.66,-2696.84 3669.75,-2511.36 3373.99,-2296 3355.19,-2282.31 3354.54,-2274.04 3335.99,-2260 3190.77,-2150.02 3105.38,-2185.83 2983.99,-2050 2720.84,-1755.54 2821.61,-1203.81 2849.67,-1075.26"/>
<polygon fill="black" stroke="black" points="2853.18,-1075.63 2851.93,-1065.11 2846.34,-1074.11 2853.18,-1075.63"/>
</g>
<!-- u16 -->
<g id="node45" class="node">
<title>u16</title>
<ellipse fill="#7777ff" stroke="black" cx="2760.99" cy="-2524" rx="222.06" ry="18"/>
<text text-anchor="middle" x="2760.99" y="-2520.3" font-family="Times,serif" font-size="14.00">Language.Drasil.Code.Imperative.GOOL.Data</text>
</g>
<!-- u42&#45;&gt;u16 -->
<g id="edge67" class="edge">
<title>u42&#45;&gt;u16</title>
<path fill="none" stroke="black" d="M4148.76,-2754.1C3888.9,-2711.2 3139.82,-2587.54 2864.29,-2542.05"/>
<polygon fill="black" stroke="black" points="2864.73,-2538.58 2854.29,-2540.4 2863.59,-2545.48 2864.73,-2538.58"/>
</g>
<!-- u41&#45;&gt;u1 -->
<g id="edge65" class="edge">
<title>u41&#45;&gt;u1</title>
<path fill="none" stroke="black" d="M2816.22,-290.04C2874.83,-247.22 3028.83,-134.71 3095.49,-86.01"/>
<polygon fill="black" stroke="black" points="3097.92,-88.58 3103.93,-79.85 3093.79,-82.92 3097.92,-88.58"/>
</g>
<!-- u40&#45;&gt;u45 -->
<g id="edge64" class="edge">
<title>u40&#45;&gt;u45</title>
<path fill="none" stroke="black" d="M4201.34,-781.84C4157.4,-739.13 4043.02,-627.93 3992.54,-578.86"/>
<polygon fill="black" stroke="black" points="3994.9,-576.28 3985.29,-571.81 3990.02,-581.29 3994.9,-576.28"/>
</g>
<!-- u40&#45;&gt;u2 -->
<g id="edge63" class="edge">
<title>u40&#45;&gt;u2</title>
<path fill="none" stroke="black" d="M4178.99,-782.23C4075.56,-738.86 3799.46,-623.11 3686.36,-575.7"/>
<polygon fill="black" stroke="black" points="3687.47,-572.37 3676.89,-571.73 3684.76,-578.82 3687.47,-572.37"/>
</g>
<!-- u9 -->
<g id="node20" class="node">
<title>u9</title>
<ellipse fill="#bbffff" stroke="black" cx="3437.99" cy="-800" rx="139.18" ry="18"/>
<text text-anchor="middle" x="3437.99" y="-796.3" font-family="Times,serif" font-size="14.00">Language.Drasil.Code.Lang</text>
</g>
<!-- u8 -->
<g id="node21" class="node">
<title>u8</title>
<ellipse fill="#bbffff" stroke="black" cx="3219.99" cy="-2032" rx="204.16" ry="18"/>
<text text-anchor="middle" x="3219.99" y="-2028.3" font-family="Times,serif" font-size="14.00">Language.Drasil.Code.CodeQuantityDicts</text>
</g>
<!-- u6&#45;&gt;u45 -->
<g id="edge11" class="edge">
<title>u6&#45;&gt;u45</title>
<path fill="none" stroke="black" d="M3814.6,-781.84C3843.18,-739.58 3917.08,-630.28 3950.79,-580.45"/>
<polygon fill="black" stroke="black" points="3953.7,-582.38 3956.4,-572.14 3947.9,-578.46 3953.7,-582.38"/>
</g>
<!-- u6&#45;&gt;u2 -->
<g id="edge10" class="edge">
<title>u6&#45;&gt;u2</title>
<path fill="none" stroke="black" d="M3791.32,-781.84C3762.57,-739.58 3688.21,-630.28 3654.31,-580.45"/>
<polygon fill="black" stroke="black" points="3657.17,-578.44 3648.65,-572.14 3651.39,-582.38 3657.17,-578.44"/>
</g>
<!-- u39 -->
<g id="node24" class="node">
<title>u39</title>
<ellipse fill="#ffbbff" stroke="black" cx="2394.99" cy="-1539" rx="219.86" ry="18"/>
<text text-anchor="middle" x="2394.99" y="-1535.3" font-family="Times,serif" font-size="14.00">Language.Drasil.Code.Imperative.WriteInput</text>
</g>
<!-- u39&#45;&gt;u41 -->
<g id="edge62" class="edge">
<title>u39&#45;&gt;u41</title>
<path fill="none" stroke="black" d="M2404.57,-1520.81C2438.06,-1459 2547.99,-1241.39 2547.99,-1048 2547.99,-1048 2547.99,-1048 2547.99,-799 2547.99,-601.59 2709.05,-402.18 2770,-333.79"/>
<polygon fill="black" stroke="black" points="2772.83,-335.88 2776.92,-326.1 2767.63,-331.19 2772.83,-335.88"/>
</g>
<!-- u38 -->
<g id="node25" class="node">
<title>u38</title>
<ellipse fill="#ffbbff" stroke="black" cx="4106.99" cy="-2524" rx="233.16" ry="18"/>
<text text-anchor="middle" x="4106.99" y="-2520.3" font-family="Times,serif" font-size="14.00">Language.Drasil.Code.Imperative.FunctionCalls</text>
</g>
<!-- u30 -->
<g id="node31" class="node">
<title>u30</title>
<ellipse fill="#ffbbff" stroke="black" cx="4106.99" cy="-2278" rx="201.46" ry="18"/>
<text text-anchor="middle" x="4106.99" y="-2274.3" font-family="Times,serif" font-size="14.00">Language.Drasil.Code.Imperative.Import</text>
</g>
<!-- u38&#45;&gt;u30 -->
<g id="edge61" class="edge">
<title>u38&#45;&gt;u30</title>
<path fill="none" stroke="black" d="M4106.99,-2505.84C4106.99,-2464.1 4106.99,-2356.99 4106.99,-2306.33"/>
<polygon fill="black" stroke="black" points="4110.49,-2306.14 4106.99,-2296.14 4103.49,-2306.14 4110.49,-2306.14"/>
</g>
<!-- u25 -->
<g id="node36" class="node">
<title>u25</title>
<ellipse fill="#ffbbff" stroke="black" cx="3606.99" cy="-2278" rx="223.66" ry="18"/>
<text text-anchor="middle" x="3606.99" y="-2274.3" font-family="Times,serif" font-size="14.00">Language.Drasil.Code.Imperative.Parameters</text>
</g>
<!-- u38&#45;&gt;u25 -->
<g id="edge60" class="edge">
<title>u38&#45;&gt;u25</title>
<path fill="none" stroke="black" d="M4072.23,-2506.04C3983.41,-2462.69 3748.27,-2347.94 3650.55,-2300.25"/>
<polygon fill="black" stroke="black" points="3652.05,-2297.09 3641.53,-2295.85 3648.98,-2303.38 3652.05,-2297.09"/>
</g>
<!-- u37 -->
<g id="node26" class="node">
<title>u37</title>
<ellipse fill="#ffbbff" stroke="black" cx="3594.99" cy="-1539" rx="237.46" ry="18"/>
<text text-anchor="middle" x="3594.99" y="-1535.3" font-family="Times,serif" font-size="14.00">Language.Drasil.Code.Imperative.ConceptMatch</text>
</g>
<!-- u37&#45;&gt;u48 -->
<g id="edge59" class="edge">
<title>u37&#45;&gt;u48</title>
<path fill="none" stroke="black" d="M3580.86,-1520.84C3545.97,-1478.49 3455.64,-1368.83 3414.7,-1319.14"/>
<polygon fill="black" stroke="black" points="3417.17,-1316.63 3408.11,-1311.14 3411.77,-1321.08 3417.17,-1316.63"/>
</g>
<!-- u36 -->
<g id="node27" class="node">
<title>u36</title>
<ellipse fill="#ffbbff" stroke="black" cx="3682.99" cy="-2032" rx="240.46" ry="18"/>
<text text-anchor="middle" x="3682.99" y="-2028.3" font-family="Times,serif" font-size="14.00">Language.Drasil.Code.Imperative.GenerateGOOL</text>
</g>
<!-- u27 -->
<g id="node34" class="node">
<title>u27</title>
<ellipse fill="#ffbbff" stroke="black" cx="4587.99" cy="-1785" rx="222.06" ry="18"/>
<text text-anchor="middle" x="4587.99" y="-1781.3" font-family="Times,serif" font-size="14.00">Language.Drasil.Code.Imperative.DrasilState</text>
</g>
<!-- u36&#45;&gt;u27 -->
<g id="edge58" class="edge">
<title>u36&#45;&gt;u27</title>
<path fill="none" stroke="black" d="M3743.78,-2014.54C3905.51,-1970.76 4345.72,-1851.59 4517.76,-1805.01"/>
<polygon fill="black" stroke="black" points="4518.74,-1808.38 4527.47,-1802.38 4516.91,-1801.62 4518.74,-1808.38"/>
</g>
<!-- u15 -->
<g id="node46" class="node">
<title>u15</title>
<ellipse fill="#7777ff" stroke="black" cx="3655.99" cy="-1785" rx="267.25" ry="18"/>
<text text-anchor="middle" x="3655.99" y="-1781.3" font-family="Times,serif" font-size="14.00">Language.Drasil.Code.Imperative.GOOL.ClassInterface</text>
</g>
<!-- u36&#45;&gt;u15 -->
<g id="edge57" class="edge">
<title>u36&#45;&gt;u15</title>
<path fill="none" stroke="black" d="M3681.1,-2013.77C3676.48,-1971.86 3664.62,-1864.31 3659.02,-1813.44"/>
<polygon fill="black" stroke="black" points="3662.47,-1812.77 3657.89,-1803.21 3655.51,-1813.53 3662.47,-1812.77"/>
</g>
<!-- u35 -->
<g id="node28" class="node">
<title>u35</title>
<ellipse fill="#ffbbff" stroke="black" cx="2496.99" cy="-2278" rx="233.16" ry="18"/>
<text text-anchor="middle" x="2496.99" y="-2274.3" font-family="Times,serif" font-size="14.00">Language.Drasil.Code.Imperative.WriteReadMe</text>
</g>
<!-- u35&#45;&gt;u15 -->
<g id="edge56" class="edge">
<title>u35&#45;&gt;u15</title>
<path fill="none" stroke="black" d="M2524.44,-2260.04C2597.27,-2215.5 2802.32,-2093.2 2983.99,-2014 3197.86,-1920.76 3463.04,-1840.7 3586.59,-1805.35"/>
<polygon fill="black" stroke="black" points="3587.65,-1808.68 3596.31,-1802.57 3585.73,-1801.95 3587.65,-1808.68"/>
</g>
<!-- u34 -->
<g id="node29" class="node">
<title>u34</title>
<ellipse fill="#ffbbff" stroke="black" cx="5129.99" cy="-2524" rx="226.66" ry="18"/>
<text text-anchor="middle" x="5129.99" y="-2520.3" font-family="Times,serif" font-size="14.00">Language.Drasil.Code.Imperative.SpaceMatch</text>
</g>
<!-- u34&#45;&gt;u27 -->
<g id="edge55" class="edge">
<title>u34&#45;&gt;u27</title>
<path fill="none" stroke="black" d="M5146.53,-2505.97C5210.63,-2437.88 5433.28,-2180.78 5310.99,-2014 5236.81,-1912.82 4872.15,-1835.89 4690.79,-1803.21"/>
<polygon fill="black" stroke="black" points="4691.17,-1799.72 4680.71,-1801.4 4689.93,-1806.61 4691.17,-1799.72"/>
</g>
<!-- u33 -->
<g id="node30" class="node">
<title>u33</title>
<ellipse fill="#ffbbff" stroke="black" cx="4349.99" cy="-1539" rx="209.86" ry="18"/>
<text text-anchor="middle" x="4349.99" y="-1535.3" font-family="Times,serif" font-size="14.00">Language.Drasil.Code.Imperative.GenODE</text>
</g>
<!-- u33&#45;&gt;u48 -->
<g id="edge54" class="edge">
<title>u33&#45;&gt;u48</title>
<path fill="none" stroke="black" d="M4286.53,-1521.8C4114.52,-1477.9 3640.44,-1356.9 3462.59,-1311.51"/>
<polygon fill="black" stroke="black" points="3463.38,-1308.1 3452.82,-1309.01 3461.65,-1314.88 3463.38,-1308.1"/>
</g>
<!-- u33&#45;&gt;u4 -->
<g id="edge52" class="edge">
<title>u33&#45;&gt;u4</title>
<path fill="none" stroke="black" d="M4334.59,-1520.84C4296.5,-1478.4 4197.75,-1368.38 4153.28,-1318.83"/>
<polygon fill="black" stroke="black" points="4155.66,-1316.24 4146.38,-1311.14 4150.45,-1320.92 4155.66,-1316.24"/>
</g>
<!-- u33&#45;&gt;u43 -->
<g id="edge53" class="edge">
<title>u33&#45;&gt;u43</title>
<path fill="none" stroke="black" d="M4348.97,-1520.75C4346.43,-1478.69 4339.43,-1367.55 4330.99,-1275 4324.41,-1202.72 4314.46,-1117.73 4309.32,-1075.18"/>
<polygon fill="black" stroke="black" points="4312.77,-1074.57 4308.1,-1065.06 4305.82,-1075.41 4312.77,-1074.57"/>
</g>
<!-- u30&#45;&gt;u8 -->
<g id="edge44" class="edge">
<title>u30&#45;&gt;u8</title>
<path fill="none" stroke="black" d="M4047.76,-2260.71C3889.54,-2217.18 3457.61,-2098.36 3288.85,-2051.94"/>
<polygon fill="black" stroke="black" points="3289.66,-2048.53 3279.08,-2049.25 3287.8,-2055.28 3289.66,-2048.53"/>
</g>
<!-- u30&#45;&gt;u37 -->
<g id="edge49" class="edge">
<title>u30&#45;&gt;u37</title>
<path fill="none" stroke="black" d="M4093.31,-2260.02C4064.99,-2223.85 4000.08,-2135.54 3969.99,-2050 3927.88,-1930.28 3998.95,-1874.81 3931.99,-1767 3865.7,-1660.25 3728.5,-1592.15 3651.16,-1560.6"/>
<polygon fill="black" stroke="black" points="3652.17,-1557.23 3641.58,-1556.75 3649.56,-1563.73 3652.17,-1557.23"/>
</g>
<!-- u30&#45;&gt;u36 -->
<g id="edge48" class="edge">
<title>u30&#45;&gt;u36</title>
<path fill="none" stroke="black" d="M4077.52,-2260.04C4002.59,-2216.92 3804.88,-2103.14 3721.24,-2055.01"/>
<polygon fill="black" stroke="black" points="3722.97,-2051.97 3712.56,-2050.01 3719.48,-2058.03 3722.97,-2051.97"/>
</g>
<!-- u28 -->
<g id="node33" class="node">
<title>u28</title>
<ellipse fill="#ffbbff" stroke="black" cx="4198.99" cy="-2032" rx="219.86" ry="18"/>
<text text-anchor="middle" x="4198.99" y="-2028.3" font-family="Times,serif" font-size="14.00">Language.Drasil.Code.Imperative.Comments</text>
</g>
<!-- u30&#45;&gt;u28 -->
<g id="edge47" class="edge">
<title>u30&#45;&gt;u28</title>
<path fill="none" stroke="black" d="M4113.46,-2259.84C4129.27,-2217.93 4169.93,-2110.09 4188.93,-2059.7"/>
<polygon fill="black" stroke="black" points="4192.28,-2060.73 4192.53,-2050.14 4185.73,-2058.26 4192.28,-2060.73"/>
</g>
<!-- u14 -->
<g id="node38" class="node">
<title>u14</title>
<ellipse fill="#ffbbff" stroke="black" cx="4643.99" cy="-2032" rx="207.16" ry="18"/>
<text text-anchor="middle" x="4643.99" y="-2028.3" font-family="Times,serif" font-size="14.00">Language.Drasil.Code.Imperative.Logging</text>
</g>
<!-- u30&#45;&gt;u14 -->
<g id="edge46" class="edge">
<title>u30&#45;&gt;u14</title>
<path fill="none" stroke="black" d="M4143.9,-2260.23C4239.15,-2216.95 4493.07,-2101.58 4597.82,-2053.98"/>
<polygon fill="black" stroke="black" points="4599.53,-2057.05 4607.18,-2049.73 4596.63,-2050.68 4599.53,-2057.05"/>
</g>
<!-- u13 -->
<g id="node39" class="node">
<title>u13</title>
<ellipse fill="#ffbbff" stroke="black" cx="5074.99" cy="-2032" rx="206.06" ry="18"/>
<text text-anchor="middle" x="5074.99" y="-2028.3" font-family="Times,serif" font-size="14.00">Language.Drasil.Code.Imperative.Helpers</text>
</g>
<!-- u30&#45;&gt;u13 -->
<g id="edge45" class="edge">
<title>u30&#45;&gt;u13</title>
<path fill="none" stroke="black" d="M4170.88,-2260.9C4343.34,-2217.42 4817.68,-2097.86 5001.17,-2051.61"/>
<polygon fill="black" stroke="black" points="5002.16,-2054.97 5011,-2049.13 5000.45,-2048.18 5002.16,-2054.97"/>
</g>
<!-- u29&#45;&gt;u41 -->
<g id="edge43" class="edge">
<title>u29&#45;&gt;u41</title>
<path fill="none" stroke="black" d="M847.45,-1769.54C1071.66,-1733.76 1552.99,-1619.09 1552.99,-1294 1552.99,-1294 1552.99,-1294 1552.99,-799 1552.99,-552.79 2409.22,-377.42 2698.68,-325.16"/>
<polygon fill="black" stroke="black" points="2699.52,-328.57 2708.74,-323.36 2698.28,-321.68 2699.52,-328.57"/>
</g>
<!-- u28&#45;&gt;u27 -->
<g id="edge42" class="edge">
<title>u28&#45;&gt;u27</title>
<path fill="none" stroke="black" d="M4226.04,-2013.97C4294.58,-1970.8 4475.14,-1857.08 4552.25,-1808.51"/>
<polygon fill="black" stroke="black" points="4554.53,-1811.21 4561.13,-1802.92 4550.8,-1805.29 4554.53,-1811.21"/>
</g>
<!-- u27&#45;&gt;u44 -->
<g id="edge41" class="edge">
<title>u27&#45;&gt;u44</title>
<path fill="none" stroke="black" d="M4546.62,-1767.23C4439.13,-1723.66 4151.4,-1607.04 4035.44,-1560.04"/>
<polygon fill="black" stroke="black" points="4036.66,-1556.76 4026.08,-1556.25 4034.03,-1563.25 4036.66,-1556.76"/>
</g>
<!-- u27&#45;&gt;u43 -->
<g id="edge40" class="edge">
<title>u27&#45;&gt;u43</title>
<path fill="none" stroke="black" d="M4589.26,-1766.93C4591.9,-1724.36 4595.68,-1610.49 4568.99,-1521 4513.51,-1334.92 4376.21,-1141.03 4325.35,-1073.2"/>
<polygon fill="black" stroke="black" points="4328.13,-1071.07 4319.31,-1065.2 4322.55,-1075.29 4328.13,-1071.07"/>
</g>
<!-- u26 -->
<g id="node35" class="node">
<title>u26</title>
<ellipse fill="#ffbbff" stroke="black" cx="4656.99" cy="-2524" rx="228.26" ry="18"/>
<text text-anchor="middle" x="4656.99" y="-2520.3" font-family="Times,serif" font-size="14.00">Language.Drasil.Code.Imperative.Descriptions</text>
</g>
<!-- u26&#45;&gt;u27 -->
<g id="edge39" class="edge">
<title>u26&#45;&gt;u27</title>
<path fill="none" stroke="black" d="M4715.52,-2506.5C4903.24,-2450.69 5467.8,-2258.7 5289.99,-2014 5218.04,-1914.98 4862.54,-1836.78 4686.76,-1803.46"/>
<polygon fill="black" stroke="black" points="4687.2,-1799.99 4676.72,-1801.57 4685.9,-1806.86 4687.2,-1799.99"/>
</g>
<!-- u25&#45;&gt;u8 -->
<g id="edge37" class="edge">
<title>u25&#45;&gt;u8</title>
<path fill="none" stroke="black" d="M3580.09,-2260.04C3511.9,-2217.04 3332.27,-2103.79 3255.55,-2055.42"/>
<polygon fill="black" stroke="black" points="3257.05,-2052.22 3246.72,-2049.85 3253.31,-2058.15 3257.05,-2052.22"/>
</g>
<!-- u25&#45;&gt;u27 -->
<g id="edge38" class="edge">
<title>u25&#45;&gt;u27</title>
<path fill="none" stroke="black" d="M3462.35,-2264.23C3243.92,-2239.57 2869.24,-2173.05 3006.99,-2014 3098.5,-1908.36 4026.24,-1827.71 4416.48,-1798.2"/>
<polygon fill="black" stroke="black" points="4417.03,-1801.67 4426.74,-1797.43 4416.5,-1794.69 4417.03,-1801.67"/>
</g>
<!-- u24 -->
<g id="node37" class="node">
<title>u24</title>
<ellipse fill="#ffbbff" stroke="black" cx="4656.99" cy="-2770" rx="209.06" ry="18"/>
<text text-anchor="middle" x="4656.99" y="-2766.3" font-family="Times,serif" font-size="14.00">Language.Drasil.Code.Imperative.Modules</text>
</g>
<!-- u24&#45;&gt;u38 -->
<g id="edge36" class="edge">
<title>u24&#45;&gt;u38</title>
<path fill="none" stroke="black" d="M4619.19,-2752.23C4521.66,-2708.96 4261.68,-2593.62 4154.35,-2546.01"/>
<polygon fill="black" stroke="black" points="4155.62,-2542.74 4145.06,-2541.89 4152.78,-2549.14 4155.62,-2542.74"/>
</g>
<!-- u24&#45;&gt;u26 -->
<g id="edge35" class="edge">
<title>u24&#45;&gt;u26</title>
<path fill="none" stroke="black" d="M4656.99,-2751.84C4656.99,-2710.1 4656.99,-2602.99 4656.99,-2552.33"/>
<polygon fill="black" stroke="black" points="4660.49,-2552.14 4656.99,-2542.14 4653.49,-2552.14 4660.49,-2552.14"/>
</g>
<!-- u14&#45;&gt;u27 -->
<g id="edge18" class="edge">
<title>u14&#45;&gt;u27</title>
<path fill="none" stroke="black" d="M4640.06,-2013.77C4630.46,-1971.78 4605.79,-1863.86 4594.19,-1813.12"/>
<polygon fill="black" stroke="black" points="4597.57,-1812.18 4591.93,-1803.21 4590.74,-1813.74 4597.57,-1812.18"/>
</g>
<!-- u13&#45;&gt;u27 -->
<g id="edge17" class="edge">
<title>u13&#45;&gt;u27</title>
<path fill="none" stroke="black" d="M5041.52,-2014.16C4955.42,-1970.84 4726.35,-1855.6 4630.79,-1807.53"/>
<polygon fill="black" stroke="black" points="4632.21,-1804.33 4621.7,-1802.96 4629.06,-1810.58 4632.21,-1804.33"/>
</g>
<!-- u12&#45;&gt;u42 -->
<g id="edge16" class="edge">
<title>u12&#45;&gt;u42</title>
<path fill="none" stroke="black" d="M4627.93,-2998.97C4554.05,-2955.66 4359.08,-2841.39 4276.65,-2793.07"/>
<polygon fill="black" stroke="black" points="4278.26,-2789.96 4267.86,-2787.92 4274.72,-2796 4278.26,-2789.96"/>
</g>
<!-- u12&#45;&gt;u34 -->
<g id="edge15" class="edge">
<title>u12&#45;&gt;u34</title>
<path fill="none" stroke="black" d="M4673.55,-2998.81C4744.58,-2925.08 5023.64,-2635.4 5106.61,-2549.28"/>
<polygon fill="black" stroke="black" points="5109.15,-2551.68 5113.57,-2542.05 5104.11,-2546.82 5109.15,-2551.68"/>
</g>
<!-- u12&#45;&gt;u33 -->
<g id="edge14" class="edge">
<title>u12&#45;&gt;u33</title>
<path fill="none" stroke="black" d="M4742.29,-3000.41C4934.53,-2959.83 5384.99,-2831.99 5384.99,-2525 5384.99,-2525 5384.99,-2525 5384.99,-2031 5384.99,-1664.62 4849.03,-1571.28 4548.47,-1547.75"/>
<polygon fill="black" stroke="black" points="4548.56,-1544.24 4538.33,-1546.97 4548.03,-1551.22 4548.56,-1544.24"/>
</g>
<!-- u12&#45;&gt;u24 -->
<g id="edge13" class="edge">
<title>u12&#45;&gt;u24</title>
<path fill="none" stroke="black" d="M4656.99,-2998.77C4656.99,-2956.86 4656.99,-2849.31 4656.99,-2798.44"/>
<polygon fill="black" stroke="black" points="4660.49,-2798.21 4656.99,-2788.21 4653.49,-2798.21 4660.49,-2798.21"/>
</g>
<!-- u11 -->
<g id="node41" class="node">
<title>u11</title>
<ellipse fill="#77ff77" stroke="black" cx="1940.99" cy="-2032" rx="215.56" ry="18"/>
<text text-anchor="middle" x="1940.99" y="-2028.3" font-family="Times,serif" font-size="14.00">Language.Drasil.Code.Imperative.Build.AST</text>
</g>
<!-- u10 -->
<g id="node42" class="node">
<title>u10</title>
<ellipse fill="#77ff77" stroke="black" cx="1940.99" cy="-2278" rx="228.56" ry="18"/>
<text text-anchor="middle" x="1940.99" y="-2274.3" font-family="Times,serif" font-size="14.00">Language.Drasil.Code.Imperative.Build.Import</text>
</g>
<!-- u10&#45;&gt;u11 -->
<g id="edge12" class="edge">
<title>u10&#45;&gt;u11</title>
<path fill="none" stroke="black" d="M1940.99,-2259.84C1940.99,-2218.1 1940.99,-2110.99 1940.99,-2060.33"/>
<polygon fill="black" stroke="black" points="1944.49,-2060.14 1940.99,-2050.14 1937.49,-2060.14 1944.49,-2060.14"/>
</g>
<!-- u32 -->
<g id="node43" class="node">
<title>u32</title>
<ellipse fill="#ffff77" stroke="black" cx="3125.99" cy="-1785" rx="245.06" ry="18"/>
<text text-anchor="middle" x="3125.99" y="-1781.3" font-family="Times,serif" font-size="14.00">Language.Drasil.Code.Imperative.Doxygen.Import</text>
</g>
<!-- u32&#45;&gt;u48 -->
<g id="edge51" class="edge">
<title>u32&#45;&gt;u48</title>
<path fill="none" stroke="black" d="M3135.38,-1766.85C3175.38,-1693.71 3331.83,-1407.66 3379.88,-1319.81"/>
<polygon fill="black" stroke="black" points="3382.96,-1321.47 3384.69,-1311.01 3376.82,-1318.11 3382.96,-1321.47"/>
</g>
<!-- u23 -->
<g id="node44" class="node">
<title>u23</title>
<ellipse fill="#7777ff" stroke="black" cx="3037.99" cy="-2278" rx="289.45" ry="18"/>
<text text-anchor="middle" x="3037.99" y="-2274.3" font-family="Times,serif" font-size="14.00">Language.Drasil.Code.Imperative.GOOL.LanguageRenderer</text>
</g>
<!-- u15&#45;&gt;u48 -->
<g id="edge19" class="edge">
<title>u15&#45;&gt;u48</title>
<path fill="none" stroke="black" d="M3612.42,-1767.18C3541.78,-1737.22 3404.58,-1667.24 3348.99,-1557 3308.91,-1477.51 3354.37,-1369.14 3379.53,-1320.06"/>
<polygon fill="black" stroke="black" points="3382.7,-1321.54 3384.26,-1311.06 3376.51,-1318.28 3382.7,-1321.54"/>
</g>
<!-- u22&#45;&gt;u16 -->
<g id="edge33" class="edge">
<title>u22&#45;&gt;u16</title>
<path fill="none" stroke="black" d="M2249.23,-2752.04C2347.13,-2708.6 2606.63,-2593.48 2713.74,-2545.97"/>
<polygon fill="black" stroke="black" points="2715.29,-2549.11 2723.01,-2541.85 2712.45,-2542.71 2715.29,-2549.11"/>
</g>
<!-- u19 -->
<g id="node50" class="node">
<title>u19</title>
<ellipse fill="#ff7777" stroke="black" cx="2126.99" cy="-2524" rx="393.73" ry="18"/>
<text text-anchor="middle" x="2126.99" y="-2520.3" font-family="Times,serif" font-size="14.00">Language.Drasil.Code.Imperative.GOOL.LanguageRenderer.LanguagePolymorphic</text>
</g>
<!-- u22&#45;&gt;u19 -->
<g id="edge34" class="edge">
<title>u22&#45;&gt;u19</title>
<path fill="none" stroke="black" d="M2205.09,-2751.84C2190.66,-2709.93 2153.53,-2602.09 2136.18,-2551.7"/>
<polygon fill="black" stroke="black" points="2139.46,-2550.45 2132.89,-2542.14 2132.84,-2552.73 2139.46,-2550.45"/>
</g>
<!-- u21&#45;&gt;u16 -->
<g id="edge31" class="edge">
<title>u21&#45;&gt;u16</title>
<path fill="none" stroke="black" d="M2937.63,-2751.84C2904.66,-2709.49 2819.26,-2599.83 2780.57,-2550.14"/>
<polygon fill="black" stroke="black" points="2783.25,-2547.88 2774.34,-2542.14 2777.72,-2552.18 2783.25,-2547.88"/>
</g>
<!-- u21&#45;&gt;u19 -->
<g id="edge32" class="edge">
<title>u21&#45;&gt;u19</title>
<path fill="none" stroke="black" d="M2894.36,-2752.23C2746.91,-2708.57 2351.67,-2591.53 2193.64,-2544.73"/>
<polygon fill="black" stroke="black" points="2194.61,-2541.37 2184.03,-2541.89 2192.62,-2548.08 2194.61,-2541.37"/>
</g>
<!-- u20&#45;&gt;u16 -->
<g id="edge29" class="edge">
<title>u20&#45;&gt;u16</title>
<path fill="none" stroke="black" d="M3613.1,-2752.23C3448.44,-2708.32 3005.45,-2590.19 2832.01,-2543.94"/>
<polygon fill="black" stroke="black" points="2832.78,-2540.52 2822.22,-2541.33 2830.98,-2547.28 2832.78,-2540.52"/>
</g>
<!-- u20&#45;&gt;u19 -->
<g id="edge30" class="edge">
<title>u20&#45;&gt;u19</title>
<path fill="none" stroke="black" d="M3572.86,-2752.75C3294.87,-2708.97 2531.49,-2588.72 2241.13,-2542.98"/>
<polygon fill="black" stroke="black" points="2241.43,-2539.48 2231.01,-2541.38 2240.34,-2546.4 2241.43,-2539.48"/>
</g>
<!-- u19&#45;&gt;u39 -->
<g id="edge28" class="edge">
<title>u19&#45;&gt;u39</title>
<path fill="none" stroke="black" d="M2131.65,-2505.94C2163.41,-2389.41 2348.33,-1711.16 2387.65,-1566.95"/>
<polygon fill="black" stroke="black" points="2391.07,-1567.71 2390.32,-1557.15 2384.31,-1565.87 2391.07,-1567.71"/>
</g>
<!-- u19&#45;&gt;u35 -->
<g id="edge27" class="edge">
<title>u19&#45;&gt;u35</title>
<path fill="none" stroke="black" d="M2152.72,-2506.04C2217.76,-2463.15 2388.82,-2350.34 2462.46,-2301.77"/>
<polygon fill="black" stroke="black" points="2464.53,-2304.6 2470.95,-2296.18 2460.67,-2298.76 2464.53,-2304.6"/>
</g>
<!-- u19&#45;&gt;u10 -->
<g id="edge24" class="edge">
<title>u19&#45;&gt;u10</title>
<path fill="none" stroke="black" d="M2113.92,-2505.84C2081.63,-2463.49 1998.04,-2353.83 1960.16,-2304.14"/>
<polygon fill="black" stroke="black" points="1962.9,-2301.97 1954.06,-2296.14 1957.34,-2306.21 1962.9,-2301.97"/>
</g>
<!-- u19&#45;&gt;u32 -->
<g id="edge26" class="edge">
<title>u19&#45;&gt;u32</title>
<path fill="none" stroke="black" d="M2131.37,-2505.81C2143.69,-2460.44 2182.55,-2335.81 2254.99,-2260 2497.02,-2006.72 2904.61,-1856.61 3061.64,-1805.68"/>
<polygon fill="black" stroke="black" points="3062.72,-1809.01 3071.17,-1802.61 3060.58,-1802.34 3062.72,-1809.01"/>
</g>
<!-- u19&#45;&gt;u23 -->
<g id="edge25" class="edge">
<title>u19&#45;&gt;u23</title>
<path fill="none" stroke="black" d="M2189.61,-2506.23C2353.16,-2462.42 2792.49,-2344.75 2966.04,-2298.27"/>
<polygon fill="black" stroke="black" points="2967.09,-2301.61 2975.84,-2295.65 2965.28,-2294.85 2967.09,-2301.61"/>
</g>
<!-- u18&#45;&gt;u16 -->
<g id="edge22" class="edge">
<title>u18&#45;&gt;u16</title>
<path fill="none" stroke="black" d="M853.27,-2753.18C1223.28,-2708.92 2265.67,-2584.25 2631.85,-2540.45"/>
<polygon fill="black" stroke="black" points="2632.44,-2543.9 2641.96,-2539.24 2631.61,-2536.95 2632.44,-2543.9"/>
</g>
<!-- u18&#45;&gt;u19 -->
<g id="edge23" class="edge">
<title>u18&#45;&gt;u19</title>
<path fill="none" stroke="black" d="M815.7,-2752.56C1068.37,-2708.72 1757.18,-2589.18 2021.65,-2543.28"/>
<polygon fill="black" stroke="black" points="2022.38,-2546.71 2031.64,-2541.55 2021.18,-2539.81 2022.38,-2546.71"/>
</g>
<!-- u17&#45;&gt;u16 -->
<g id="edge20" class="edge">
<title>u17&#45;&gt;u16</title>
<path fill="none" stroke="black" d="M1552.55,-2752.52C1786.73,-2708.43 2426.04,-2588.06 2667.23,-2542.65"/>
<polygon fill="black" stroke="black" points="2668.19,-2546.03 2677.37,-2540.74 2666.89,-2539.15 2668.19,-2546.03"/>
</g>
<!-- u17&#45;&gt;u19 -->
<g id="edge21" class="edge">
<title>u17&#45;&gt;u19</title>
<path fill="none" stroke="black" d="M1510.76,-2752.13C1628.7,-2708.66 1942.76,-2592.9 2071.14,-2545.59"/>
<polygon fill="black" stroke="black" points="2072.61,-2548.77 2080.78,-2542.03 2070.19,-2542.21 2072.61,-2548.77"/>
</g>
<!-- u31 -->
<g id="node53" class="node">
<title>u31</title>
<ellipse fill="#77ffff" stroke="black" cx="3268.99" cy="-2524" rx="267.55" ry="18"/>
<text text-anchor="middle" x="3268.99" y="-2520.3" font-family="Times,serif" font-size="14.00">Language.Drasil.Code.Imperative.Parsers.ConfigParser</text>
</g>
<!-- u31&#45;&gt;u23 -->
<g id="edge50" class="edge">
<title>u31&#45;&gt;u23</title>
<path fill="none" stroke="black" d="M3252.75,-2505.84C3212.49,-2463.32 3107.98,-2352.92 3061.21,-2303.52"/>
<polygon fill="black" stroke="black" points="3063.64,-2300.99 3054.22,-2296.14 3058.55,-2305.81 3063.64,-2300.99"/>
</g>
<!-- u47&#45;&gt;u40 -->
<g id="edge78" class="edge">
<title>u47&#45;&gt;u40</title>
<path fill="none" stroke="black" d="M3489.84,-1029.74C3628.47,-986.25 4007.28,-867.41 4156.96,-820.46"/>
<polygon fill="black" stroke="black" points="4158.41,-823.67 4166.91,-817.34 4156.32,-816.99 4158.41,-823.67"/>
</g>
<!-- u47&#45;&gt;u9 -->
<g id="edge77" class="edge">
<title>u47&#45;&gt;u9</title>
<path fill="none" stroke="black" d="M3437.99,-1028.77C3437.99,-986.86 3437.99,-879.31 3437.99,-828.44"/>
<polygon fill="black" stroke="black" points="3441.49,-828.21 3437.99,-818.21 3434.49,-828.21 3441.49,-828.21"/>
</g>
<!-- u47&#45;&gt;u6 -->
<g id="edge76" class="edge">
<title>u47&#45;&gt;u6</title>
<path fill="none" stroke="black" d="M3463.08,-1029.16C3527.16,-986.15 3696.88,-872.23 3769.38,-823.56"/>
<polygon fill="black" stroke="black" points="3771.38,-826.44 3777.73,-817.96 3767.48,-820.62 3771.38,-826.44"/>
</g>
<!-- u47&#45;&gt;u46 -->
<g id="edge79" class="edge">
<title>u47&#45;&gt;u46</title>
<path fill="none" stroke="black" d="M3416.13,-1028.77C3361.46,-985.7 3218.79,-873.31 3156.64,-824.36"/>
<polygon fill="black" stroke="black" points="3158.45,-821.32 3148.43,-817.88 3154.12,-826.82 3158.45,-821.32"/>
</g>
<!-- u46&#45;&gt;u1 -->
<g id="edge75" class="edge">
<title>u46&#45;&gt;u1</title>
<path fill="none" stroke="black" d="M3126.99,-781.89C3126.99,-685.4 3126.99,-209.35 3126.99,-90.12"/>
<polygon fill="black" stroke="black" points="3130.49,-90.02 3126.99,-80.02 3123.49,-90.02 3130.49,-90.02"/>
</g>
<!-- u55 -->
<g id="node56" class="node">
<title>u55</title>
<ellipse fill="#33ff33" stroke="black" cx="267.99" cy="-3509" rx="108.58" ry="18"/>
<text text-anchor="middle" x="267.99" y="-3505.3" font-family="Times,serif" font-size="14.00">drasil&#45;code.test.Main</text>
</g>
<!-- u55&#45;&gt;u53 -->
<g id="edge88" class="edge">
<title>u55&#45;&gt;u53</title>
<path fill="none" stroke="black" d="M263.28,-3490.84C251.8,-3449.02 222.29,-3341.54 208.41,-3291.01"/>
<polygon fill="black" stroke="black" points="211.72,-3289.85 205.7,-3281.14 204.97,-3291.71 211.72,-3289.85"/>
</g>
<!-- u55&#45;&gt;u52 -->
<g id="edge87" class="edge">
<title>u55&#45;&gt;u52</title>
<path fill="none" stroke="black" d="M272.64,-3490.84C283.95,-3449.02 313.02,-3341.54 326.69,-3291.01"/>
<polygon fill="black" stroke="black" points="330.13,-3291.71 329.36,-3281.14 323.37,-3289.88 330.13,-3291.71"/>
</g>
<!-- u55&#45;&gt;u51 -->
<g id="edge86" class="edge">
<title>u55&#45;&gt;u51</title>
<path fill="none" stroke="black" d="M253.72,-3490.84C218.4,-3448.39 126.81,-3338.3 85.61,-3288.78"/>
<polygon fill="black" stroke="black" points="88.07,-3286.26 78.98,-3280.81 82.69,-3290.74 88.07,-3286.26"/>
</g>
<!-- u55&#45;&gt;u0 -->
<g id="edge85" class="edge">
<title>u55&#45;&gt;u0</title>
<path fill="none" stroke="black" d="M342.19,-3495.86C592.69,-3454.86 1406.35,-3321.71 1673.29,-3278.02"/>
<polygon fill="black" stroke="black" points="1674.02,-3281.45 1683.32,-3276.38 1672.88,-3274.55 1674.02,-3281.45"/>
</g>
</g>
</svg>
