<?xml version="1.0" encoding="UTF-8" standalone="no"?>
<!DOCTYPE svg PUBLIC "-//W3C//DTD SVG 1.1//EN"
 "http://www.w3.org/Graphics/SVG/1.1/DTD/svg11.dtd">
<!-- Generated by graphviz version 2.43.0 (0)
 -->
<!-- Title: G Pages: 1 -->
<svg width="431pt" height="288pt"
 viewBox="0.00 0.00 431.23 288.00" xmlns="http://www.w3.org/2000/svg" xmlns:xlink="http://www.w3.org/1999/xlink">
<g id="graph0" class="graph" transform="scale(3.95 3.95) rotate(0) translate(4 1134)">
<title>G</title>
<polygon fill="white" stroke="transparent" points="-4,4 -4,-1134 1699.98,-1134 1699.98,4 -4,4"/>
<!-- u7 -->
<g id="node1" class="node">
<title>u7</title>
<ellipse fill="#bbffbb" stroke="black" cx="108.54" cy="-404" rx="108.58" ry="18"/>
<text text-anchor="middle" x="108.54" y="-400.3" font-family="Times,serif" font-size="14.00">Drasil.Website.About</text>
</g>
<!-- u6 -->
<g id="node2" class="node">
<title>u6</title>
<ellipse fill="#bbffbb" stroke="black" cx="387.54" cy="-404" rx="152.17" ry="18"/>
<text text-anchor="middle" x="387.54" y="-400.3" font-family="Times,serif" font-size="14.00">Drasil.Website.Documentation</text>
</g>
<!-- u5 -->
<g id="node3" class="node">
<title>u5</title>
<ellipse fill="#bbffbb" stroke="black" cx="677.54" cy="-404" rx="120.48" ry="18"/>
<text text-anchor="middle" x="677.54" y="-400.3" font-family="Times,serif" font-size="14.00">Drasil.Website.Analysis</text>
</g>
<!-- u4 -->
<g id="node4" class="node">
<title>u4</title>
<ellipse fill="#bbffbb" stroke="black" cx="947.54" cy="-404" rx="131.08" ry="18"/>
<text text-anchor="middle" x="947.54" y="-400.3" font-family="Times,serif" font-size="14.00">Drasil.Website.CaseStudy</text>
</g>
<!-- u3 -->
<g id="node5" class="node">
<title>u3</title>
<ellipse fill="#bbffbb" stroke="black" cx="947.54" cy="-81" rx="122.38" ry="18"/>
<text text-anchor="middle" x="947.54" y="-77.3" font-family="Times,serif" font-size="14.00">Drasil.Website.Example</text>
</g>
<!-- u4&#45;&gt;u3 -->
<g id="edge7" class="edge">
<title>u4&#45;&gt;u3</title>
<path fill="none" stroke="black" d="M947.54,-385.74C947.54,-333.05 947.54,-173.96 947.54,-109.54"/>
<polygon fill="black" stroke="black" points="951.04,-109.34 947.54,-99.34 944.04,-109.34 951.04,-109.34"/>
</g>
<!-- u2 -->
<g id="node6" class="node">
<title>u2</title>
<ellipse fill="#bbffbb" stroke="black" cx="1235.54" cy="-404" rx="139.18" ry="18"/>
<text text-anchor="middle" x="1235.54" y="-400.3" font-family="Times,serif" font-size="14.00">Drasil.Website.Introduction</text>
</g>
<!-- u1 -->
<g id="node7" class="node">
<title>u1</title>
<ellipse fill="#bbffbb" stroke="black" cx="1544.54" cy="-404" rx="151.37" ry="18"/>
<text text-anchor="middle" x="1544.54" y="-400.3" font-family="Times,serif" font-size="14.00">Drasil.Website.GettingStarted</text>
</g>
<!-- u0 -->
<g id="node8" class="node">
<title>u0</title>
<ellipse fill="#bbffbb" stroke="black" cx="812.54" cy="-726" rx="104.78" ry="18"/>
<text text-anchor="middle" x="812.54" y="-722.3" font-family="Times,serif" font-size="14.00">Drasil.Website.Body</text>
</g>
<!-- u0&#45;&gt;u7 -->
<g id="edge6" class="edge">
<title>u0&#45;&gt;u7</title>
<path fill="none" stroke="black" d="M777.15,-708.91C659.77,-655.56 283.42,-484.49 153.3,-425.35"/>
<polygon fill="black" stroke="black" points="154.56,-422.07 144,-421.12 151.66,-428.44 154.56,-422.07"/>
</g>
<!-- u0&#45;&gt;u6 -->
<g id="edge5" class="edge">
<title>u0&#45;&gt;u6</title>
<path fill="none" stroke="black" d="M790.29,-708.25C719.59,-655.02 499.98,-489.66 418.43,-428.26"/>
<polygon fill="black" stroke="black" points="420.18,-425.19 410.08,-421.97 415.97,-430.79 420.18,-425.19"/>
</g>
<!-- u0&#45;&gt;u5 -->
<g id="edge4" class="edge">
<title>u0&#45;&gt;u5</title>
<path fill="none" stroke="black" d="M805.28,-707.8C783.03,-655.05 715.66,-495.37 688.79,-431.66"/>
<polygon fill="black" stroke="black" points="691.95,-430.14 684.83,-422.29 685.5,-432.86 691.95,-430.14"/>
</g>
<!-- u0&#45;&gt;u4 -->
<g id="edge3" class="edge">
<title>u0&#45;&gt;u4</title>
<path fill="none" stroke="black" d="M819.8,-707.8C842.05,-655.05 909.42,-495.37 936.29,-431.66"/>
<polygon fill="black" stroke="black" points="939.58,-432.86 940.25,-422.29 933.13,-430.14 939.58,-432.86"/>
</g>
<!-- u0&#45;&gt;u2 -->
<g id="edge2" class="edge">
<title>u0&#45;&gt;u2</title>
<path fill="none" stroke="black" d="M834.69,-708.25C905.13,-654.95 1124.14,-489.28 1205.07,-428.05"/>
<polygon fill="black" stroke="black" points="1207.49,-430.61 1213.36,-421.78 1203.27,-425.02 1207.49,-430.61"/>
</g>
<!-- u0&#45;&gt;u1 -->
<g id="edge1" class="edge">
<title>u0&#45;&gt;u1</title>
<path fill="none" stroke="black" d="M849.09,-709.02C970.67,-655.87 1361.48,-485.03 1497.41,-425.6"/>
<polygon fill="black" stroke="black" points="1498.99,-428.73 1506.75,-421.52 1496.19,-422.32 1498.99,-428.73"/>
</g>
<!-- u8 -->
<g id="node9" class="node">
<title>u8</title>
<ellipse fill="#ffffbb" stroke="black" cx="812.54" cy="-1049" rx="122.38" ry="18"/>
<text text-anchor="middle" x="812.54" y="-1045.3" font-family="Times,serif" font-size="14.00">drasil&#45;website.app.Main</text>
</g>
<!-- u8&#45;&gt;u0 -->
<g id="edge8" class="edge">
<title>u8&#45;&gt;u0</title>
<path fill="none" stroke="black" d="M812.54,-1030.74C812.54,-978.05 812.54,-818.96 812.54,-754.54"/>
<polygon fill="black" stroke="black" points="816.04,-754.34 812.54,-744.34 809.04,-754.34 816.04,-754.34"/>
</g>
</g>
</svg>
