<?xml version="1.0" encoding="UTF-8" standalone="no"?>
<!DOCTYPE svg PUBLIC "-//W3C//DTD SVG 1.1//EN"
 "http://www.w3.org/Graphics/SVG/1.1/DTD/svg11.dtd">
<!-- Generated by graphviz version 2.43.0 (0)
 -->
<!-- Title: G Pages: 1 -->
<svg width="432pt" height="285pt"
 viewBox="0.00 0.00 432.00 285.05" xmlns="http://www.w3.org/2000/svg" xmlns:xlink="http://www.w3.org/1999/xlink">
<g id="graph0" class="graph" transform="scale(14.03 14.03) rotate(0) translate(4 3994.67)">
<title>G</title>
<polygon fill="white" stroke="transparent" points="-4,4 -4,-3994.67 6055.99,-3994.67 6055.99,4 -4,4"/>
<!-- u55 -->
<g id="node1" class="node">
<title>u55</title>
<ellipse fill="#bbffbb" stroke="black" cx="333.99" cy="-3647" rx="62.29" ry="18"/>
<text text-anchor="middle" x="333.99" y="-3643.3" font-family="Times,serif" font-size="14.00">HelloWorld</text>
</g>
<!-- u53 -->
<g id="node3" class="node">
<title>u53</title>
<ellipse fill="#bbffbb" stroke="black" cx="255.99" cy="-3371" rx="42.49" ry="18"/>
<text text-anchor="middle" x="255.99" y="-3367.3" font-family="Times,serif" font-size="14.00">Helper</text>
</g>
<!-- u55&#45;&gt;u53 -->
<g id="edge88" class="edge">
<title>u55&#45;&gt;u53</title>
<path fill="none" stroke="black" d="M329.11,-3628.86C315.96,-3582.63 279.65,-3455.11 263.69,-3399.04"/>
<polygon fill="black" stroke="black" points="266.98,-3397.79 260.87,-3389.13 260.24,-3399.71 266.98,-3397.79"/>
</g>
<!-- u54 -->
<g id="node2" class="node">
<title>u54</title>
<ellipse fill="#bbffbb" stroke="black" cx="64.99" cy="-3647" rx="64.99" ry="18"/>
<text text-anchor="middle" x="64.99" y="-3643.3" font-family="Times,serif" font-size="14.00">PatternTest</text>
</g>
<!-- u51 -->
<g id="node5" class="node">
<title>u51</title>
<ellipse fill="#bbffbb" stroke="black" cx="64.99" cy="-3371" rx="53.89" ry="18"/>
<text text-anchor="middle" x="64.99" y="-3367.3" font-family="Times,serif" font-size="14.00">Observer</text>
</g>
<!-- u54&#45;&gt;u51 -->
<g id="edge87" class="edge">
<title>u54&#45;&gt;u51</title>
<path fill="none" stroke="black" d="M64.99,-3628.86C64.99,-3582.73 64.99,-3455.64 64.99,-3399.39"/>
<polygon fill="black" stroke="black" points="68.49,-3399.13 64.99,-3389.13 61.49,-3399.13 68.49,-3399.13"/>
</g>
<!-- u52 -->
<g id="node4" class="node">
<title>u52</title>
<ellipse fill="#bbffbb" stroke="black" cx="200.99" cy="-3647" rx="52.79" ry="18"/>
<text text-anchor="middle" x="200.99" y="-3643.3" font-family="Times,serif" font-size="14.00">FileTests</text>
</g>
<!-- u50 -->
<g id="node6" class="node">
<title>u50</title>
<ellipse fill="#bbffbb" stroke="black" cx="267.99" cy="-3922" rx="34.39" ry="18"/>
<text text-anchor="middle" x="267.99" y="-3918.3" font-family="Times,serif" font-size="14.00">Main</text>
</g>
<!-- u50&#45;&gt;u55 -->
<g id="edge86" class="edge">
<title>u50&#45;&gt;u55</title>
<path fill="none" stroke="black" d="M272.12,-3903.92C283.26,-3857.86 313.98,-3730.8 327.48,-3674.94"/>
<polygon fill="black" stroke="black" points="330.92,-3675.61 329.87,-3665.07 324.12,-3673.97 330.92,-3675.61"/>
</g>
<!-- u50&#45;&gt;u54 -->
<g id="edge85" class="edge">
<title>u50&#45;&gt;u54</title>
<path fill="none" stroke="black" d="M255.9,-3904.74C221.79,-3858.87 124.63,-3728.2 83.62,-3673.05"/>
<polygon fill="black" stroke="black" points="86.31,-3670.8 77.54,-3664.87 80.7,-3674.98 86.31,-3670.8"/>
</g>
<!-- u50&#45;&gt;u52 -->
<g id="edge84" class="edge">
<title>u50&#45;&gt;u52</title>
<path fill="none" stroke="black" d="M263.8,-3903.92C252.5,-3857.86 221.32,-3730.8 207.61,-3674.94"/>
<polygon fill="black" stroke="black" points="210.97,-3673.95 205.18,-3665.07 204.17,-3675.62 210.97,-3673.95"/>
</g>
<!-- u47 -->
<g id="node9" class="node">
<title>u47</title>
<ellipse fill="#bbbbff" stroke="black" cx="1743.99" cy="-3647" rx="113.18" ry="18"/>
<text text-anchor="middle" x="1743.99" y="-3643.3" font-family="Times,serif" font-size="14.00">Language.Drasil.Code</text>
</g>
<!-- u50&#45;&gt;u47 -->
<g id="edge83" class="edge">
<title>u50&#45;&gt;u47</title>
<path fill="none" stroke="black" d="M299.85,-3915.11C481.33,-3881.54 1386.31,-3714.16 1663.3,-3662.92"/>
<polygon fill="black" stroke="black" points="1664.08,-3666.34 1673.28,-3661.08 1662.81,-3659.46 1664.08,-3666.34"/>
</g>
<!-- u49 -->
<g id="node7" class="node">
<title>u49</title>
<ellipse fill="#ffffbb" stroke="black" cx="1743.99" cy="-3922" rx="214.46" ry="18"/>
<text text-anchor="middle" x="1743.99" y="-3918.3" font-family="Times,serif" font-size="14.00">Data.Drasil.ExternalLibraries.ODELibraries</text>
</g>
<!-- u49&#45;&gt;u47 -->
<g id="edge82" class="edge">
<title>u49&#45;&gt;u47</title>
<path fill="none" stroke="black" d="M1743.99,-3903.92C1743.99,-3857.96 1743.99,-3731.33 1743.99,-3675.29"/>
<polygon fill="black" stroke="black" points="1747.49,-3675.07 1743.99,-3665.07 1740.49,-3675.07 1747.49,-3675.07"/>
</g>
<!-- u48 -->
<g id="node8" class="node">
<title>u48</title>
<ellipse fill="#bbbbff" stroke="black" cx="3932.99" cy="-1445" rx="126.18" ry="18"/>
<text text-anchor="middle" x="3932.99" y="-1441.3" font-family="Times,serif" font-size="14.00">Language.Drasil.Choices</text>
</g>
<!-- u36 -->
<g id="node19" class="node">
<title>u36</title>
<ellipse fill="#bbffff" stroke="black" cx="3558.99" cy="-1170" rx="139.98" ry="18"/>
<text text-anchor="middle" x="3558.99" y="-1166.3" font-family="Times,serif" font-size="14.00">Language.Drasil.Code.Code</text>
</g>
<!-- u48&#45;&gt;u36 -->
<g id="edge80" class="edge">
<title>u48&#45;&gt;u36</title>
<path fill="none" stroke="black" d="M3909.88,-1427.13C3845.45,-1380.1 3663.77,-1247.48 3590.35,-1193.89"/>
<polygon fill="black" stroke="black" points="3592.09,-1190.83 3581.95,-1187.76 3587.97,-1196.48 3592.09,-1190.83"/>
</g>
<!-- u40 -->
<g id="node55" class="node">
<title>u40</title>
<ellipse fill="#ff77ff" stroke="black" cx="4019.99" cy="-1170" rx="172.77" ry="18"/>
<text text-anchor="middle" x="4019.99" y="-1166.3" font-family="Times,serif" font-size="14.00">Language.Drasil.Data.ODELibPckg</text>
</g>
<!-- u48&#45;&gt;u40 -->
<g id="edge81" class="edge">
<title>u48&#45;&gt;u40</title>
<path fill="none" stroke="black" d="M3938.44,-1426.92C3953.11,-1380.86 3993.61,-1253.8 4011.41,-1197.94"/>
<polygon fill="black" stroke="black" points="4014.85,-1198.66 4014.55,-1188.07 4008.18,-1196.54 4014.85,-1198.66"/>
</g>
<!-- u16 -->
<g id="node36" class="node">
<title>u16</title>
<ellipse fill="#ffbbff" stroke="black" cx="4656.99" cy="-3371" rx="217.16" ry="18"/>
<text text-anchor="middle" x="4656.99" y="-3367.3" font-family="Times,serif" font-size="14.00">Language.Drasil.Code.Imperative.Generator</text>
</g>
<!-- u47&#45;&gt;u16 -->
<g id="edge79" class="edge">
<title>u47&#45;&gt;u16</title>
<path fill="none" stroke="black" d="M1838.85,-3637.08C2263.31,-3597.15 3990.18,-3434.72 4508.93,-3385.93"/>
<polygon fill="black" stroke="black" points="4509.47,-3389.39 4519.1,-3384.97 4508.82,-3382.42 4509.47,-3389.39"/>
</g>
<!-- u15 -->
<g id="node37" class="node">
<title>u15</title>
<ellipse fill="#ffbbff" stroke="black" cx="1889.99" cy="-1995" rx="217.96" ry="18"/>
<text text-anchor="middle" x="1889.99" y="-1991.3" font-family="Times,serif" font-size="14.00">Language.Drasil.Code.Imperative.ReadInput</text>
</g>
<!-- u47&#45;&gt;u15 -->
<g id="edge78" class="edge">
<title>u47&#45;&gt;u15</title>
<path fill="none" stroke="black" d="M1667.51,-3633.67C1372.63,-3584.01 325.99,-3387.3 325.99,-3097 325.99,-3097 325.99,-3097 325.99,-2545 325.99,-2239.68 1400.6,-2063.31 1768.31,-2011.9"/>
<polygon fill="black" stroke="black" points="1769.03,-2015.33 1778.46,-2010.49 1768.07,-2008.4 1769.03,-2015.33"/>
</g>
<!-- u11 -->
<g id="node48" class="node">
<title>u11</title>
<ellipse fill="#ff7777" stroke="black" cx="1464.99" cy="-3096" rx="358.54" ry="18"/>
<text text-anchor="middle" x="1464.99" y="-3092.3" font-family="Times,serif" font-size="14.00">Language.Drasil.Code.Imperative.GOOL.LanguageRenderer.SwiftRenderer</text>
</g>
<!-- u47&#45;&gt;u11 -->
<g id="edge77" class="edge">
<title>u47&#45;&gt;u11</title>
<path fill="none" stroke="black" d="M1735.34,-3628.97C1695.19,-3549.97 1527,-3219.01 1478.27,-3123.13"/>
<polygon fill="black" stroke="black" points="1481.34,-3121.43 1473.69,-3114.1 1475.1,-3124.61 1481.34,-3121.43"/>
</g>
<!-- u10 -->
<g id="node49" class="node">
<title>u10</title>
<ellipse fill="#ff7777" stroke="black" cx="2195.99" cy="-3096" rx="354.44" ry="18"/>
<text text-anchor="middle" x="2195.99" y="-3092.3" font-family="Times,serif" font-size="14.00">Language.Drasil.Code.Imperative.GOOL.LanguageRenderer.JavaRenderer</text>
</g>
<!-- u47&#45;&gt;u10 -->
<g id="edge76" class="edge">
<title>u47&#45;&gt;u10</title>
<path fill="none" stroke="black" d="M1758.02,-3628.97C1823.32,-3549.65 2097.75,-3216.33 2175.43,-3121.98"/>
<polygon fill="black" stroke="black" points="2178.26,-3124.05 2181.91,-3114.1 2172.85,-3119.6 2178.26,-3124.05"/>
</g>
<!-- u8 -->
<g id="node51" class="node">
<title>u8</title>
<ellipse fill="#ff7777" stroke="black" cx="2936.99" cy="-3096" rx="369.33" ry="18"/>
<text text-anchor="middle" x="2936.99" y="-3092.3" font-family="Times,serif" font-size="14.00">Language.Drasil.Code.Imperative.GOOL.LanguageRenderer.CSharpRenderer</text>
</g>
<!-- u47&#45;&gt;u8 -->
<g id="edge75" class="edge">
<title>u47&#45;&gt;u8</title>
<path fill="none" stroke="black" d="M1779.05,-3629.87C1950.13,-3551.14 2696.9,-3207.49 2890.84,-3118.24"/>
<polygon fill="black" stroke="black" points="2892.56,-3121.3 2900.18,-3113.94 2889.64,-3114.94 2892.56,-3121.3"/>
</g>
<!-- u7 -->
<g id="node52" class="node">
<title>u7</title>
<ellipse fill="#ff7777" stroke="black" cx="3676.99" cy="-3096" rx="352.84" ry="18"/>
<text text-anchor="middle" x="3676.99" y="-3092.3" font-family="Times,serif" font-size="14.00">Language.Drasil.Code.Imperative.GOOL.LanguageRenderer.CppRenderer</text>
</g>
<!-- u47&#45;&gt;u7 -->
<g id="edge74" class="edge">
<title>u47&#45;&gt;u7</title>
<path fill="none" stroke="black" d="M1796.7,-3631.03C2067.56,-3554.1 3302.08,-3203.48 3608.17,-3116.55"/>
<polygon fill="black" stroke="black" points="3609.15,-3119.91 3617.81,-3113.81 3607.23,-3113.17 3609.15,-3119.91"/>
</g>
<!-- u6 -->
<g id="node53" class="node">
<title>u6</title>
<ellipse fill="#ff7777" stroke="black" cx="720.99" cy="-3096" rx="367.43" ry="18"/>
<text text-anchor="middle" x="720.99" y="-3092.3" font-family="Times,serif" font-size="14.00">Language.Drasil.Code.Imperative.GOOL.LanguageRenderer.PythonRenderer</text>
</g>
<!-- u47&#45;&gt;u6 -->
<g id="edge73" class="edge">
<title>u47&#45;&gt;u6</title>
<path fill="none" stroke="black" d="M1713.38,-3629.57C1565.98,-3550.47 929.7,-3209 761.76,-3118.88"/>
<polygon fill="black" stroke="black" points="763.21,-3115.69 752.75,-3114.04 759.9,-3121.85 763.21,-3115.69"/>
</g>
<!-- u41 -->
<g id="node10" class="node">
<title>u41</title>
<ellipse fill="#bbbbff" stroke="black" cx="4549.99" cy="-619" rx="110.48" ry="18"/>
<text text-anchor="middle" x="4549.99" y="-615.3" font-family="Times,serif" font-size="14.00">Language.Drasil.Mod</text>
</g>
<!-- u42 -->
<g id="node16" class="node">
<title>u42</title>
<ellipse fill="#ffbbbb" stroke="black" cx="4145.99" cy="-344" rx="170.87" ry="18"/>
<text text-anchor="middle" x="4145.99" y="-340.3" font-family="Times,serif" font-size="14.00">Language.Drasil.Chunk.Parameter</text>
</g>
<!-- u41&#45;&gt;u42 -->
<g id="edge70" class="edge">
<title>u41&#45;&gt;u42</title>
<path fill="none" stroke="black" d="M4525.33,-601.33C4455.96,-554.46 4259.08,-421.42 4179.74,-367.8"/>
<polygon fill="black" stroke="black" points="4181.35,-364.67 4171.11,-361.97 4177.43,-370.47 4181.35,-364.67"/>
</g>
<!-- u34 -->
<g id="node21" class="node">
<title>u34</title>
<ellipse fill="#bbffff" stroke="black" cx="3498.99" cy="-344" rx="160.57" ry="18"/>
<text text-anchor="middle" x="3498.99" y="-340.3" font-family="Times,serif" font-size="14.00">Language.Drasil.Code.DataDesc</text>
</g>
<!-- u41&#45;&gt;u34 -->
<g id="edge69" class="edge">
<title>u41&#45;&gt;u34</title>
<path fill="none" stroke="black" d="M4493.86,-603.42C4316.06,-557.23 3765.52,-414.23 3569.33,-363.27"/>
<polygon fill="black" stroke="black" points="3569.98,-359.82 3559.42,-360.7 3568.22,-366.6 3569.98,-359.82"/>
</g>
<!-- u0 -->
<g id="node11" class="node">
<title>u0</title>
<ellipse fill="#bbbbff" stroke="black" cx="4524.99" cy="-1720" rx="135.68" ry="18"/>
<text text-anchor="middle" x="4524.99" y="-1716.3" font-family="Times,serif" font-size="14.00">Language.Drasil.CodeSpec</text>
</g>
<!-- u0&#45;&gt;u48 -->
<g id="edge3" class="edge">
<title>u0&#45;&gt;u48</title>
<path fill="none" stroke="black" d="M4489.3,-1702.54C4386.67,-1655.21 4090.96,-1518.85 3977.79,-1466.66"/>
<polygon fill="black" stroke="black" points="3978.91,-1463.32 3968.37,-1462.31 3975.98,-1469.68 3978.91,-1463.32"/>
</g>
<!-- u46 -->
<g id="node12" class="node">
<title>u46</title>
<ellipse fill="#ffbbbb" stroke="black" cx="4669.99" cy="-1445" rx="191.17" ry="18"/>
<text text-anchor="middle" x="4669.99" y="-1441.3" font-family="Times,serif" font-size="14.00">Language.Drasil.Chunk.CodeDefinition</text>
</g>
<!-- u0&#45;&gt;u46 -->
<g id="edge2" class="edge">
<title>u0&#45;&gt;u46</title>
<path fill="none" stroke="black" d="M4534.06,-1701.92C4558.68,-1655.58 4626.86,-1527.22 4656.23,-1471.91"/>
<polygon fill="black" stroke="black" points="4659.33,-1473.54 4660.93,-1463.07 4653.15,-1470.26 4659.33,-1473.54"/>
</g>
<!-- u45 -->
<g id="node13" class="node">
<title>u45</title>
<ellipse fill="#ffbbbb" stroke="black" cx="4268.99" cy="-1445" rx="192.27" ry="18"/>
<text text-anchor="middle" x="4268.99" y="-1441.3" font-family="Times,serif" font-size="14.00">Language.Drasil.Chunk.ConstraintMap</text>
</g>
<!-- u0&#45;&gt;u45 -->
<g id="edge1" class="edge">
<title>u0&#45;&gt;u45</title>
<path fill="none" stroke="black" d="M4508.98,-1701.92C4465.16,-1655.19 4343.16,-1525.09 4292.02,-1470.55"/>
<polygon fill="black" stroke="black" points="4294.4,-1467.97 4285,-1463.07 4289.29,-1472.76 4294.4,-1467.97"/>
</g>
<!-- u39 -->
<g id="node56" class="node">
<title>u39</title>
<ellipse fill="#ff77ff" stroke="black" cx="3708.99" cy="-894" rx="154.07" ry="18"/>
<text text-anchor="middle" x="3708.99" y="-890.3" font-family="Times,serif" font-size="14.00">Language.Drasil.Data.ODEInfo</text>
</g>
<!-- u46&#45;&gt;u39 -->
<g id="edge72" class="edge">
<title>u46&#45;&gt;u39</title>
<path fill="none" stroke="black" d="M4591.49,-1428.53C4406.92,-1390.83 3952.37,-1289.79 3837.99,-1188 3755.89,-1114.93 3723.66,-979.91 3713.24,-922.25"/>
<polygon fill="black" stroke="black" points="3716.64,-921.37 3711.49,-912.11 3709.74,-922.56 3716.64,-921.37"/>
</g>
<!-- u44 -->
<g id="node14" class="node">
<title>u44</title>
<ellipse fill="#ffbbbb" stroke="black" cx="3708.99" cy="-69" rx="145.67" ry="18"/>
<text text-anchor="middle" x="3708.99" y="-65.3" font-family="Times,serif" font-size="14.00">Language.Drasil.Chunk.Code</text>
</g>
<!-- u43 -->
<g id="node15" class="node">
<title>u43</title>
<ellipse fill="#ffbbbb" stroke="black" cx="4218.99" cy="-619" rx="202.26" ry="18"/>
<text text-anchor="middle" x="4218.99" y="-615.3" font-family="Times,serif" font-size="14.00">Language.Drasil.Chunk.NamedArgument</text>
</g>
<!-- u42&#45;&gt;u44 -->
<g id="edge71" class="edge">
<title>u42&#45;&gt;u44</title>
<path fill="none" stroke="black" d="M4118.99,-326.13C4043.32,-278.86 3829.26,-145.13 3744.34,-92.08"/>
<polygon fill="black" stroke="black" points="3746.16,-89.09 3735.82,-86.76 3742.45,-95.03 3746.16,-89.09"/>
</g>
<!-- u38 -->
<g id="node17" class="node">
<title>u38</title>
<ellipse fill="#bbffff" stroke="black" cx="4238.99" cy="-3096" rx="191.17" ry="18"/>
<text text-anchor="middle" x="4238.99" y="-3092.3" font-family="Times,serif" font-size="14.00">Language.Drasil.Code.CodeGeneration</text>
</g>
<!-- u38&#45;&gt;u36 -->
<g id="edge63" class="edge">
<title>u38&#45;&gt;u36</title>
<path fill="none" stroke="black" d="M4191.09,-3078.46C4102.48,-3045.7 3911.55,-2964.66 3796.99,-2839 3706.29,-2739.51 3709.77,-2692.62 3669.99,-2564 3506.53,-2035.41 3546.22,-1343.1 3556.83,-1198.27"/>
<polygon fill="black" stroke="black" points="3560.34,-1198.31 3557.6,-1188.08 3553.36,-1197.79 3560.34,-1198.31"/>
</g>
<!-- u4 -->
<g id="node47" class="node">
<title>u4</title>
<ellipse fill="#7777ff" stroke="black" cx="2829.99" cy="-2821" rx="222.06" ry="18"/>
<text text-anchor="middle" x="2829.99" y="-2817.3" font-family="Times,serif" font-size="14.00">Language.Drasil.Code.Imperative.GOOL.Data</text>
</g>
<!-- u38&#45;&gt;u4 -->
<g id="edge62" class="edge">
<title>u38&#45;&gt;u4</title>
<path fill="none" stroke="black" d="M4159.46,-3079.59C3915.86,-3032.39 3180.92,-2889.99 2921.71,-2839.77"/>
<polygon fill="black" stroke="black" points="2922.06,-2836.27 2911.58,-2837.81 2920.73,-2843.15 2922.06,-2836.27"/>
</g>
<!-- u37 -->
<g id="node18" class="node">
<title>u37</title>
<ellipse fill="#bbffff" stroke="black" cx="4800.99" cy="-894" rx="190.37" ry="18"/>
<text text-anchor="middle" x="4800.99" y="-890.3" font-family="Times,serif" font-size="14.00">Language.Drasil.Code.ExternalLibrary</text>
</g>
<!-- u37&#45;&gt;u41 -->
<g id="edge60" class="edge">
<title>u37&#45;&gt;u41</title>
<path fill="none" stroke="black" d="M4785.29,-875.92C4742.33,-829.19 4622.71,-699.09 4572.57,-644.55"/>
<polygon fill="black" stroke="black" points="4575.03,-642.06 4565.69,-637.07 4569.88,-646.8 4575.03,-642.06"/>
</g>
<!-- u37&#45;&gt;u43 -->
<g id="edge61" class="edge">
<title>u37&#45;&gt;u43</title>
<path fill="none" stroke="black" d="M4765.03,-876.13C4663.65,-828.57 4375.7,-693.51 4264.03,-641.12"/>
<polygon fill="black" stroke="black" points="4265.26,-637.84 4254.72,-636.76 4262.29,-644.17 4265.26,-637.84"/>
</g>
<!-- u35 -->
<g id="node20" class="node">
<title>u35</title>
<ellipse fill="#bbffff" stroke="black" cx="3924.99" cy="-2271" rx="204.16" ry="18"/>
<text text-anchor="middle" x="3924.99" y="-2267.3" font-family="Times,serif" font-size="14.00">Language.Drasil.Code.CodeQuantityDicts</text>
</g>
<!-- u34&#45;&gt;u44 -->
<g id="edge59" class="edge">
<title>u34&#45;&gt;u44</title>
<path fill="none" stroke="black" d="M3512.13,-325.92C3547.93,-279.39 3647.34,-150.15 3689.59,-95.22"/>
<polygon fill="black" stroke="black" points="3692.54,-97.13 3695.86,-87.07 3686.99,-92.86 3692.54,-97.13"/>
</g>
<!-- u33 -->
<g id="node22" class="node">
<title>u33</title>
<ellipse fill="#bbffff" stroke="black" cx="4384.99" cy="-894" rx="207.96" ry="18"/>
<text text-anchor="middle" x="4384.99" y="-890.3" font-family="Times,serif" font-size="14.00">Language.Drasil.Code.ExternalLibraryCall</text>
</g>
<!-- u33&#45;&gt;u41 -->
<g id="edge57" class="edge">
<title>u33&#45;&gt;u41</title>
<path fill="none" stroke="black" d="M4395.32,-875.92C4423.33,-829.58 4500.91,-701.22 4534.34,-645.91"/>
<polygon fill="black" stroke="black" points="4537.5,-647.44 4539.68,-637.07 4531.51,-643.82 4537.5,-647.44"/>
</g>
<!-- u33&#45;&gt;u43 -->
<g id="edge58" class="edge">
<title>u33&#45;&gt;u43</title>
<path fill="none" stroke="black" d="M4374.61,-875.92C4346.43,-829.58 4268.38,-701.22 4234.75,-645.91"/>
<polygon fill="black" stroke="black" points="4237.56,-643.8 4229.37,-637.07 4231.58,-647.43 4237.56,-643.8"/>
</g>
<!-- u32 -->
<g id="node23" class="node">
<title>u32</title>
<ellipse fill="#bbffff" stroke="black" cx="4844.99" cy="-1170" rx="178.97" ry="18"/>
<text text-anchor="middle" x="4844.99" y="-1166.3" font-family="Times,serif" font-size="14.00">Language.Drasil.Code.ExtLibImport</text>
</g>
<!-- u32&#45;&gt;u37 -->
<g id="edge56" class="edge">
<title>u32&#45;&gt;u37</title>
<path fill="none" stroke="black" d="M4842.24,-1151.86C4834.82,-1105.63 4814.34,-978.11 4805.34,-922.04"/>
<polygon fill="black" stroke="black" points="4808.79,-921.45 4803.75,-912.13 4801.88,-922.56 4808.79,-921.45"/>
</g>
<!-- u32&#45;&gt;u33 -->
<g id="edge55" class="edge">
<title>u32&#45;&gt;u33</title>
<path fill="none" stroke="black" d="M4816.57,-1152.07C4736.93,-1104.63 4511.67,-970.45 4422.25,-917.19"/>
<polygon fill="black" stroke="black" points="4423.91,-914.11 4413.53,-912 4420.33,-920.12 4423.91,-914.11"/>
</g>
<!-- u31 -->
<g id="node24" class="node">
<title>u31</title>
<ellipse fill="#bbffff" stroke="black" cx="4019.99" cy="-894" rx="139.18" ry="18"/>
<text text-anchor="middle" x="4019.99" y="-890.3" font-family="Times,serif" font-size="14.00">Language.Drasil.Code.Lang</text>
</g>
<!-- u30 -->
<g id="node25" class="node">
<title>u30</title>
<ellipse fill="#ffbbff" stroke="black" cx="4656.99" cy="-2546" rx="201.46" ry="18"/>
<text text-anchor="middle" x="4656.99" y="-2542.3" font-family="Times,serif" font-size="14.00">Language.Drasil.Code.Imperative.Import</text>
</g>
<!-- u30&#45;&gt;u35 -->
<g id="edge54" class="edge">
<title>u30&#45;&gt;u35</title>
<path fill="none" stroke="black" d="M4612.58,-2528.44C4485.08,-2480.88 4118.18,-2344.05 3979.21,-2292.22"/>
<polygon fill="black" stroke="black" points="3980.2,-2288.85 3969.61,-2288.64 3977.76,-2295.41 3980.2,-2288.85"/>
</g>
<!-- u26 -->
<g id="node28" class="node">
<title>u26</title>
<ellipse fill="#ffbbff" stroke="black" cx="5335.99" cy="-2271" rx="219.86" ry="18"/>
<text text-anchor="middle" x="5335.99" y="-2267.3" font-family="Times,serif" font-size="14.00">Language.Drasil.Code.Imperative.Comments</text>
</g>
<!-- u30&#45;&gt;u26 -->
<g id="edge53" class="edge">
<title>u30&#45;&gt;u26</title>
<path fill="none" stroke="black" d="M4698.45,-2528.33C4816.71,-2480.79 5155.5,-2344.57 5284.91,-2292.54"/>
<polygon fill="black" stroke="black" points="5286.25,-2295.77 5294.22,-2288.8 5283.64,-2289.28 5286.25,-2295.77"/>
</g>
<!-- u22 -->
<g id="node30" class="node">
<title>u22</title>
<ellipse fill="#ffbbff" stroke="black" cx="4387.99" cy="-2271" rx="240.46" ry="18"/>
<text text-anchor="middle" x="4387.99" y="-2267.3" font-family="Times,serif" font-size="14.00">Language.Drasil.Code.Imperative.GenerateGOOL</text>
</g>
<!-- u30&#45;&gt;u22 -->
<g id="edge52" class="edge">
<title>u30&#45;&gt;u22</title>
<path fill="none" stroke="black" d="M4640.17,-2527.92C4594.03,-2481.1 4465.4,-2350.56 4411.86,-2296.22"/>
<polygon fill="black" stroke="black" points="4414.33,-2293.74 4404.82,-2289.07 4409.34,-2298.65 4414.33,-2293.74"/>
</g>
<!-- u17 -->
<g id="node35" class="node">
<title>u17</title>
<ellipse fill="#ffbbff" stroke="black" cx="5779.99" cy="-2271" rx="206.06" ry="18"/>
<text text-anchor="middle" x="5779.99" y="-2267.3" font-family="Times,serif" font-size="14.00">Language.Drasil.Code.Imperative.Helpers</text>
</g>
<!-- u30&#45;&gt;u17 -->
<g id="edge51" class="edge">
<title>u30&#45;&gt;u17</title>
<path fill="none" stroke="black" d="M4723.05,-2528.94C4918.84,-2481.35 5495.33,-2341.2 5703.73,-2290.54"/>
<polygon fill="black" stroke="black" points="5704.78,-2293.89 5713.67,-2288.12 5703.12,-2287.09 5704.78,-2293.89"/>
</g>
<!-- u14 -->
<g id="node38" class="node">
<title>u14</title>
<ellipse fill="#ffbbff" stroke="black" cx="4133.99" cy="-1720" rx="237.46" ry="18"/>
<text text-anchor="middle" x="4133.99" y="-1716.3" font-family="Times,serif" font-size="14.00">Language.Drasil.Code.Imperative.ConceptMatch</text>
</g>
<!-- u30&#45;&gt;u14 -->
<g id="edge50" class="edge">
<title>u30&#45;&gt;u14</title>
<path fill="none" stroke="black" d="M4658.65,-2527.86C4666.5,-2443.35 4697.07,-2071.22 4636.99,-1977 4545.79,-1833.96 4347.89,-1767.3 4229.32,-1739.14"/>
<polygon fill="black" stroke="black" points="4230.04,-1735.72 4219.51,-1736.86 4228.46,-1742.53 4230.04,-1735.72"/>
</g>
<!-- u3 -->
<g id="node40" class="node">
<title>u3</title>
<ellipse fill="#ffbbff" stroke="black" cx="4890.99" cy="-2271" rx="207.16" ry="18"/>
<text text-anchor="middle" x="4890.99" y="-2267.3" font-family="Times,serif" font-size="14.00">Language.Drasil.Code.Imperative.Logging</text>
</g>
<!-- u30&#45;&gt;u3 -->
<g id="edge49" class="edge">
<title>u30&#45;&gt;u3</title>
<path fill="none" stroke="black" d="M4671.63,-2527.92C4711.6,-2481.29 4822.75,-2351.62 4869.66,-2296.89"/>
<polygon fill="black" stroke="black" points="4872.51,-2298.94 4876.36,-2289.07 4867.2,-2294.39 4872.51,-2298.94"/>
</g>
<!-- u29 -->
<g id="node26" class="node">
<title>u29</title>
<ellipse fill="#ffbbff" stroke="black" cx="3924.99" cy="-2546" rx="223.66" ry="18"/>
<text text-anchor="middle" x="3924.99" y="-2542.3" font-family="Times,serif" font-size="14.00">Language.Drasil.Code.Imperative.Parameters</text>
</g>
<!-- u29&#45;&gt;u35 -->
<g id="edge48" class="edge">
<title>u29&#45;&gt;u35</title>
<path fill="none" stroke="black" d="M3924.99,-2527.92C3924.99,-2481.96 3924.99,-2355.33 3924.99,-2299.29"/>
<polygon fill="black" stroke="black" points="3928.49,-2299.07 3924.99,-2289.07 3921.49,-2299.07 3928.49,-2299.07"/>
</g>
<!-- u20 -->
<g id="node32" class="node">
<title>u20</title>
<ellipse fill="#ffbbff" stroke="black" cx="4905.99" cy="-1995" rx="222.06" ry="18"/>
<text text-anchor="middle" x="4905.99" y="-1991.3" font-family="Times,serif" font-size="14.00">Language.Drasil.Code.Imperative.DrasilState</text>
</g>
<!-- u29&#45;&gt;u20 -->
<g id="edge47" class="edge">
<title>u29&#45;&gt;u20</title>
<path fill="none" stroke="black" d="M3895.6,-2528.11C3820.02,-2482.6 3630.38,-2354.05 3711.99,-2253 3837.76,-2097.29 4427.4,-2031.47 4728.33,-2007.64"/>
<polygon fill="black" stroke="black" points="4728.78,-2011.12 4738.47,-2006.85 4728.23,-2004.14 4728.78,-2011.12"/>
</g>
<!-- u28 -->
<g id="node27" class="node">
<title>u28</title>
<ellipse fill="#ffbbff" stroke="black" cx="5465.99" cy="-2821" rx="226.66" ry="18"/>
<text text-anchor="middle" x="5465.99" y="-2817.3" font-family="Times,serif" font-size="14.00">Language.Drasil.Code.Imperative.SpaceMatch</text>
</g>
<!-- u28&#45;&gt;u20 -->
<g id="edge46" class="edge">
<title>u28&#45;&gt;u20</title>
<path fill="none" stroke="black" d="M5505.6,-2803.18C5656.61,-2736.78 6178.7,-2485.11 5994.99,-2253 5880.41,-2108.23 5335.57,-2036.75 5062.6,-2009.55"/>
<polygon fill="black" stroke="black" points="5062.9,-2006.06 5052.61,-2008.56 5062.22,-2013.02 5062.9,-2006.06"/>
</g>
<!-- u26&#45;&gt;u20 -->
<g id="edge44" class="edge">
<title>u26&#45;&gt;u20</title>
<path fill="none" stroke="black" d="M5309.42,-2253.07C5235.13,-2205.73 5025.26,-2072 4941.33,-2018.51"/>
<polygon fill="black" stroke="black" points="4942.98,-2015.42 4932.67,-2013 4939.22,-2021.32 4942.98,-2015.42"/>
</g>
<!-- u23 -->
<g id="node29" class="node">
<title>u23</title>
<ellipse fill="#ffbbff" stroke="black" cx="2758.99" cy="-2546" rx="233.16" ry="18"/>
<text text-anchor="middle" x="2758.99" y="-2542.3" font-family="Times,serif" font-size="14.00">Language.Drasil.Code.Imperative.WriteReadMe</text>
</g>
<!-- u12 -->
<g id="node45" class="node">
<title>u12</title>
<ellipse fill="#7777ff" stroke="black" cx="4360.99" cy="-1995" rx="267.25" ry="18"/>
<text text-anchor="middle" x="4360.99" y="-1991.3" font-family="Times,serif" font-size="14.00">Language.Drasil.Code.Imperative.GOOL.ClassInterface</text>
</g>
<!-- u23&#45;&gt;u12 -->
<g id="edge42" class="edge">
<title>u23&#45;&gt;u12</title>
<path fill="none" stroke="black" d="M2807.81,-2528.27C3041.84,-2448.07 4047.97,-2103.27 4302.37,-2016.09"/>
<polygon fill="black" stroke="black" points="4303.84,-2019.29 4312.16,-2012.73 4301.57,-2012.67 4303.84,-2019.29"/>
</g>
<!-- u22&#45;&gt;u20 -->
<g id="edge41" class="edge">
<title>u22&#45;&gt;u20</title>
<path fill="none" stroke="black" d="M4420.01,-2253.07C4510.06,-2205.43 4765.49,-2070.32 4865.31,-2017.52"/>
<polygon fill="black" stroke="black" points="4866.99,-2020.59 4874.2,-2012.82 4863.72,-2014.4 4866.99,-2020.59"/>
</g>
<!-- u22&#45;&gt;u12 -->
<g id="edge40" class="edge">
<title>u22&#45;&gt;u12</title>
<path fill="none" stroke="black" d="M4386.31,-2252.86C4381.76,-2206.73 4369.24,-2079.64 4363.69,-2023.39"/>
<polygon fill="black" stroke="black" points="4367.15,-2022.74 4362.68,-2013.13 4360.18,-2023.43 4367.15,-2022.74"/>
</g>
<!-- u21 -->
<g id="node31" class="node">
<title>u21</title>
<ellipse fill="#ffbbff" stroke="black" cx="4888.99" cy="-1720" rx="209.86" ry="18"/>
<text text-anchor="middle" x="4888.99" y="-1716.3" font-family="Times,serif" font-size="14.00">Language.Drasil.Code.Imperative.GenODE</text>
</g>
<!-- u21&#45;&gt;u48 -->
<g id="edge39" class="edge">
<title>u21&#45;&gt;u48</title>
<path fill="none" stroke="black" d="M4831.7,-1702.64C4663.56,-1654.62 4172.29,-1514.33 3996.48,-1464.13"/>
<polygon fill="black" stroke="black" points="3997.18,-1460.69 3986.6,-1461.31 3995.26,-1467.42 3997.18,-1460.69"/>
</g>
<!-- u21&#45;&gt;u46 -->
<g id="edge38" class="edge">
<title>u21&#45;&gt;u46</title>
<path fill="none" stroke="black" d="M4875.29,-1701.92C4837.89,-1655.29 4733.87,-1525.62 4689.96,-1470.89"/>
<polygon fill="black" stroke="black" points="4692.68,-1468.68 4683.69,-1463.07 4687.22,-1473.06 4692.68,-1468.68"/>
</g>
<!-- u21&#45;&gt;u32 -->
<g id="edge37" class="edge">
<title>u21&#45;&gt;u32</title>
<path fill="none" stroke="black" d="M4888.07,-1701.87C4885.61,-1656.82 4878.48,-1531.31 4869.99,-1427 4863.21,-1343.56 4852.95,-1245.04 4847.95,-1198.27"/>
<polygon fill="black" stroke="black" points="4851.4,-1197.63 4846.85,-1188.06 4844.44,-1198.38 4851.4,-1197.63"/>
</g>
<!-- u20&#45;&gt;u0 -->
<g id="edge35" class="edge">
<title>u20&#45;&gt;u0</title>
<path fill="none" stroke="black" d="M4882.16,-1976.92C4816.28,-1929.71 4631.64,-1797.41 4556.95,-1743.9"/>
<polygon fill="black" stroke="black" points="4558.99,-1741.05 4548.82,-1738.07 4554.91,-1746.74 4558.99,-1741.05"/>
</g>
<!-- u20&#45;&gt;u32 -->
<g id="edge36" class="edge">
<title>u20&#45;&gt;u32</title>
<path fill="none" stroke="black" d="M4932.5,-1977C4993.49,-1935.51 5136.44,-1823.54 5107.99,-1702 5058.88,-1492.16 4914.04,-1270.18 4863.02,-1196.44"/>
<polygon fill="black" stroke="black" points="4865.87,-1194.4 4857.28,-1188.19 4860.12,-1198.4 4865.87,-1194.4"/>
</g>
<!-- u19 -->
<g id="node33" class="node">
<title>u19</title>
<ellipse fill="#ffbbff" stroke="black" cx="4033.99" cy="-2821" rx="228.26" ry="18"/>
<text text-anchor="middle" x="4033.99" y="-2817.3" font-family="Times,serif" font-size="14.00">Language.Drasil.Code.Imperative.Descriptions</text>
</g>
<!-- u19&#45;&gt;u20 -->
<g id="edge34" class="edge">
<title>u19&#45;&gt;u20</title>
<path fill="none" stroke="black" d="M3991.05,-2803.22C3914.27,-2770.56 3755.55,-2690.39 3691.99,-2564 3629.9,-2440.51 3603.95,-2360.38 3690.99,-2253 3818.99,-2095.1 4417.51,-2030.38 4724.04,-2007.24"/>
<polygon fill="black" stroke="black" points="4724.66,-2010.7 4734.37,-2006.47 4724.14,-2003.72 4724.66,-2010.7"/>
</g>
<!-- u18 -->
<g id="node34" class="node">
<title>u18</title>
<ellipse fill="#ffbbff" stroke="black" cx="2773.99" cy="-1720" rx="219.86" ry="18"/>
<text text-anchor="middle" x="2773.99" y="-1716.3" font-family="Times,serif" font-size="14.00">Language.Drasil.Code.Imperative.WriteInput</text>
</g>
<!-- u18&#45;&gt;u34 -->
<g id="edge33" class="edge">
<title>u18&#45;&gt;u34</title>
<path fill="none" stroke="black" d="M2792.86,-1701.66C2859.95,-1638.02 3082.99,-1408.56 3082.99,-1171 3082.99,-1171 3082.99,-1171 3082.99,-893 3082.99,-642.26 3362.7,-434.27 3463.4,-367.51"/>
<polygon fill="black" stroke="black" points="3465.58,-370.26 3472.02,-361.85 3461.74,-364.41 3465.58,-370.26"/>
</g>
<!-- u17&#45;&gt;u20 -->
<g id="edge32" class="edge">
<title>u17&#45;&gt;u20</title>
<path fill="none" stroke="black" d="M5727.61,-2253.58C5575.39,-2205.86 5133.45,-2067.31 4968.8,-2015.69"/>
<polygon fill="black" stroke="black" points="4969.41,-2012.21 4958.82,-2012.56 4967.32,-2018.89 4969.41,-2012.21"/>
</g>
<!-- u16&#45;&gt;u38 -->
<g id="edge31" class="edge">
<title>u16&#45;&gt;u38</title>
<path fill="none" stroke="black" d="M4630.85,-3352.92C4558.33,-3305.56 4354.69,-3172.56 4273.27,-3119.38"/>
<polygon fill="black" stroke="black" points="4275.15,-3116.43 4264.86,-3113.9 4271.32,-3122.29 4275.15,-3116.43"/>
</g>
<!-- u16&#45;&gt;u28 -->
<g id="edge30" class="edge">
<title>u16&#45;&gt;u28</title>
<path fill="none" stroke="black" d="M4682.09,-3353C4799.92,-3273.18 5298.08,-2935.74 5432.47,-2844.71"/>
<polygon fill="black" stroke="black" points="5434.47,-2847.58 5440.79,-2839.07 5430.55,-2841.78 5434.47,-2847.58"/>
</g>
<!-- u16&#45;&gt;u21 -->
<g id="edge29" class="edge">
<title>u16&#45;&gt;u21</title>
<path fill="none" stroke="black" d="M4748.52,-3354.63C5058.87,-3299.95 6051.99,-3103.02 6051.99,-2822 6051.99,-2822 6051.99,-2822 6051.99,-2270 6051.99,-1850.54 5425.67,-1751.07 5092.29,-1727.83"/>
<polygon fill="black" stroke="black" points="5092.23,-1724.32 5082.02,-1727.13 5091.76,-1731.3 5092.23,-1724.32"/>
</g>
<!-- u13 -->
<g id="node39" class="node">
<title>u13</title>
<ellipse fill="#ffbbff" stroke="black" cx="4656.99" cy="-3096" rx="209.06" ry="18"/>
<text text-anchor="middle" x="4656.99" y="-3092.3" font-family="Times,serif" font-size="14.00">Language.Drasil.Code.Imperative.Modules</text>
</g>
<!-- u16&#45;&gt;u13 -->
<g id="edge28" class="edge">
<title>u16&#45;&gt;u13</title>
<path fill="none" stroke="black" d="M4656.99,-3352.92C4656.99,-3306.96 4656.99,-3180.33 4656.99,-3124.29"/>
<polygon fill="black" stroke="black" points="4660.49,-3124.07 4656.99,-3114.07 4653.49,-3124.07 4660.49,-3124.07"/>
</g>
<!-- u15&#45;&gt;u34 -->
<g id="edge27" class="edge">
<title>u15&#45;&gt;u34</title>
<path fill="none" stroke="black" d="M1917.81,-1977.07C2012.14,-1917.33 2313.99,-1705.83 2313.99,-1446 2313.99,-1446 2313.99,-1446 2313.99,-893 2313.99,-449.93 3004.9,-363.99 3331.6,-348.11"/>
<polygon fill="black" stroke="black" points="3331.81,-351.61 3341.64,-347.64 3331.48,-344.61 3331.81,-351.61"/>
</g>
<!-- u14&#45;&gt;u48 -->
<g id="edge26" class="edge">
<title>u14&#45;&gt;u48</title>
<path fill="none" stroke="black" d="M4121.42,-1701.92C4087.16,-1655.39 3992.01,-1526.15 3951.57,-1471.22"/>
<polygon fill="black" stroke="black" points="3954.31,-1469.05 3945.56,-1463.07 3948.67,-1473.2 3954.31,-1469.05"/>
</g>
<!-- u13&#45;&gt;u19 -->
<g id="edge25" class="edge">
<title>u13&#45;&gt;u19</title>
<path fill="none" stroke="black" d="M4618.49,-3078.13C4509.75,-3030.48 4200.5,-2894.96 4081.48,-2842.81"/>
<polygon fill="black" stroke="black" points="4082.8,-2839.57 4072.24,-2838.76 4079.99,-2845.98 4082.8,-2839.57"/>
</g>
<!-- u2 -->
<g id="node41" class="node">
<title>u2</title>
<ellipse fill="#ffbbff" stroke="black" cx="4656.99" cy="-2821" rx="233.16" ry="18"/>
<text text-anchor="middle" x="4656.99" y="-2817.3" font-family="Times,serif" font-size="14.00">Language.Drasil.Code.Imperative.FunctionCalls</text>
</g>
<!-- u13&#45;&gt;u2 -->
<g id="edge24" class="edge">
<title>u13&#45;&gt;u2</title>
<path fill="none" stroke="black" d="M4656.99,-3077.92C4656.99,-3031.96 4656.99,-2905.33 4656.99,-2849.29"/>
<polygon fill="black" stroke="black" points="4660.49,-2849.07 4656.99,-2839.07 4653.49,-2849.07 4660.49,-2849.07"/>
</g>
<!-- u3&#45;&gt;u20 -->
<g id="edge7" class="edge">
<title>u3&#45;&gt;u20</title>
<path fill="none" stroke="black" d="M4891.93,-2252.86C4894.46,-2206.73 4901.42,-2079.64 4904.49,-2023.39"/>
<polygon fill="black" stroke="black" points="4908,-2023.31 4905.06,-2013.13 4901.01,-2022.93 4908,-2023.31"/>
</g>
<!-- u2&#45;&gt;u30 -->
<g id="edge6" class="edge">
<title>u2&#45;&gt;u30</title>
<path fill="none" stroke="black" d="M4656.99,-2802.92C4656.99,-2756.96 4656.99,-2630.33 4656.99,-2574.29"/>
<polygon fill="black" stroke="black" points="4660.49,-2574.07 4656.99,-2564.07 4653.49,-2574.07 4660.49,-2574.07"/>
</g>
<!-- u2&#45;&gt;u29 -->
<g id="edge5" class="edge">
<title>u2&#45;&gt;u29</title>
<path fill="none" stroke="black" d="M4612.03,-2803.23C4484.15,-2755.54 4118.64,-2619.22 3979.59,-2567.36"/>
<polygon fill="black" stroke="black" points="3980.57,-2563.99 3969.98,-2563.78 3978.13,-2570.55 3980.57,-2563.99"/>
</g>
<!-- u25 -->
<g id="node42" class="node">
<title>u25</title>
<ellipse fill="#77ff77" stroke="black" cx="2195.99" cy="-2546" rx="228.56" ry="18"/>
<text text-anchor="middle" x="2195.99" y="-2542.3" font-family="Times,serif" font-size="14.00">Language.Drasil.Code.Imperative.Build.Import</text>
</g>
<!-- u24 -->
<g id="node43" class="node">
<title>u24</title>
<ellipse fill="#77ff77" stroke="black" cx="2195.99" cy="-2271" rx="215.56" ry="18"/>
<text text-anchor="middle" x="2195.99" y="-2267.3" font-family="Times,serif" font-size="14.00">Language.Drasil.Code.Imperative.Build.AST</text>
</g>
<!-- u25&#45;&gt;u24 -->
<g id="edge43" class="edge">
<title>u25&#45;&gt;u24</title>
<path fill="none" stroke="black" d="M2195.99,-2527.92C2195.99,-2481.96 2195.99,-2355.33 2195.99,-2299.29"/>
<polygon fill="black" stroke="black" points="2199.49,-2299.07 2195.99,-2289.07 2192.49,-2299.07 2199.49,-2299.07"/>
</g>
<!-- u1 -->
<g id="node44" class="node">
<title>u1</title>
<ellipse fill="#ffff77" stroke="black" cx="3830.99" cy="-1995" rx="245.06" ry="18"/>
<text text-anchor="middle" x="3830.99" y="-1991.3" font-family="Times,serif" font-size="14.00">Language.Drasil.Code.Imperative.Doxygen.Import</text>
</g>
<!-- u1&#45;&gt;u48 -->
<g id="edge4" class="edge">
<title>u1&#45;&gt;u48</title>
<path fill="none" stroke="black" d="M3831.13,-1976.71C3831.77,-1931.28 3835.32,-1804.92 3854.99,-1702 3871.38,-1616.3 3905.7,-1518.57 3922.82,-1472.58"/>
<polygon fill="black" stroke="black" points="3926.16,-1473.65 3926.4,-1463.06 3919.61,-1471.19 3926.16,-1473.65"/>
</g>
<!-- u12&#45;&gt;u48 -->
<g id="edge23" class="edge">
<title>u12&#45;&gt;u48</title>
<path fill="none" stroke="black" d="M4282.97,-1977.77C4172.37,-1950.1 3973.91,-1882.19 3887.99,-1738 3836.48,-1651.54 3890.37,-1526.07 3918.35,-1472.19"/>
<polygon fill="black" stroke="black" points="3921.48,-1473.75 3923.08,-1463.28 3915.3,-1470.47 3921.48,-1473.75"/>
</g>
<!-- u5 -->
<g id="node46" class="node">
<title>u5</title>
<ellipse fill="#7777ff" stroke="black" cx="3299.99" cy="-2546" rx="289.45" ry="18"/>
<text text-anchor="middle" x="3299.99" y="-2542.3" font-family="Times,serif" font-size="14.00">Language.Drasil.Code.Imperative.GOOL.LanguageRenderer</text>
</g>
<!-- u11&#45;&gt;u4 -->
<g id="edge21" class="edge">
<title>u11&#45;&gt;u4</title>
<path fill="none" stroke="black" d="M1547.82,-3078.44C1789.23,-3030.15 2490.92,-2889.81 2740.55,-2839.89"/>
<polygon fill="black" stroke="black" points="2741.54,-2843.26 2750.66,-2837.87 2740.17,-2836.4 2741.54,-2843.26"/>
</g>
<!-- u9 -->
<g id="node50" class="node">
<title>u9</title>
<ellipse fill="#ff7777" stroke="black" cx="2195.99" cy="-2821" rx="393.73" ry="18"/>
<text text-anchor="middle" x="2195.99" y="-2817.3" font-family="Times,serif" font-size="14.00">Language.Drasil.Code.Imperative.GOOL.LanguageRenderer.LanguagePolymorphic</text>
</g>
<!-- u11&#45;&gt;u9 -->
<g id="edge22" class="edge">
<title>u11&#45;&gt;u9</title>
<path fill="none" stroke="black" d="M1510.17,-3078.13C1637.99,-3030.39 2001.95,-2894.47 2141.03,-2842.53"/>
<polygon fill="black" stroke="black" points="2142.51,-2845.71 2150.65,-2838.93 2140.06,-2839.15 2142.51,-2845.71"/>
</g>
<!-- u10&#45;&gt;u4 -->
<g id="edge19" class="edge">
<title>u10&#45;&gt;u4</title>
<path fill="none" stroke="black" d="M2235.65,-3077.92C2346.64,-3030.13 2660.16,-2895.13 2781.34,-2842.95"/>
<polygon fill="black" stroke="black" points="2782.95,-2846.07 2790.76,-2838.9 2780.19,-2839.64 2782.95,-2846.07"/>
</g>
<!-- u10&#45;&gt;u9 -->
<g id="edge20" class="edge">
<title>u10&#45;&gt;u9</title>
<path fill="none" stroke="black" d="M2195.99,-3077.92C2195.99,-3031.96 2195.99,-2905.33 2195.99,-2849.29"/>
<polygon fill="black" stroke="black" points="2199.49,-2849.07 2195.99,-2839.07 2192.49,-2849.07 2199.49,-2849.07"/>
</g>
<!-- u9&#45;&gt;u23 -->
<g id="edge17" class="edge">
<title>u9&#45;&gt;u23</title>
<path fill="none" stroke="black" d="M2231.21,-2802.92C2329.57,-2755.23 2607.06,-2620.67 2715.14,-2568.27"/>
<polygon fill="black" stroke="black" points="2716.68,-2571.41 2724.15,-2563.9 2713.62,-2565.11 2716.68,-2571.41"/>
</g>
<!-- u9&#45;&gt;u18 -->
<g id="edge16" class="edge">
<title>u9&#45;&gt;u18</title>
<path fill="none" stroke="black" d="M2216.5,-2802.74C2261.33,-2764.08 2369.22,-2665.92 2433.99,-2564 2620.78,-2270.12 2738.16,-1856.57 2767.02,-1747.97"/>
<polygon fill="black" stroke="black" points="2770.44,-1748.71 2769.61,-1738.15 2763.68,-1746.93 2770.44,-1748.71"/>
</g>
<!-- u9&#45;&gt;u25 -->
<g id="edge18" class="edge">
<title>u9&#45;&gt;u25</title>
<path fill="none" stroke="black" d="M2195.99,-2802.92C2195.99,-2756.96 2195.99,-2630.33 2195.99,-2574.29"/>
<polygon fill="black" stroke="black" points="2199.49,-2574.07 2195.99,-2564.07 2192.49,-2574.07 2199.49,-2574.07"/>
</g>
<!-- u9&#45;&gt;u1 -->
<g id="edge14" class="edge">
<title>u9&#45;&gt;u1</title>
<path fill="none" stroke="black" d="M2213.17,-2802.86C2269.46,-2746.95 2448.6,-2571.02 2516.99,-2528 2953.34,-2253.57 3555.24,-2072.09 3759.72,-2015.16"/>
<polygon fill="black" stroke="black" points="3760.75,-2018.5 3769.45,-2012.46 3758.88,-2011.76 3760.75,-2018.5"/>
</g>
<!-- u9&#45;&gt;u5 -->
<g id="edge15" class="edge">
<title>u9&#45;&gt;u5</title>
<path fill="none" stroke="black" d="M2263.81,-2803.23C2458.48,-2755.09 3018.21,-2616.68 3223.41,-2565.94"/>
<polygon fill="black" stroke="black" points="3224.33,-2569.32 3233.2,-2563.52 3222.65,-2562.52 3224.33,-2569.32"/>
</g>
<!-- u8&#45;&gt;u4 -->
<g id="edge12" class="edge">
<title>u8&#45;&gt;u4</title>
<path fill="none" stroke="black" d="M2930.3,-3077.92C2912.21,-3031.77 2862.24,-2904.28 2840.42,-2848.6"/>
<polygon fill="black" stroke="black" points="2843.59,-2847.1 2836.69,-2839.07 2837.08,-2849.66 2843.59,-2847.1"/>
</g>
<!-- u8&#45;&gt;u9 -->
<g id="edge13" class="edge">
<title>u8&#45;&gt;u9</title>
<path fill="none" stroke="black" d="M2891.2,-3078.13C2761.63,-3030.39 2392.7,-2894.47 2251.71,-2842.53"/>
<polygon fill="black" stroke="black" points="2252.55,-2839.11 2241.96,-2838.93 2250.13,-2845.67 2252.55,-2839.11"/>
</g>
<!-- u7&#45;&gt;u4 -->
<g id="edge10" class="edge">
<title>u7&#45;&gt;u4</title>
<path fill="none" stroke="black" d="M3624.65,-3078.13C3475.74,-3030.13 3050.28,-2893 2891.09,-2841.69"/>
<polygon fill="black" stroke="black" points="2892.04,-2838.32 2881.45,-2838.59 2889.9,-2844.98 2892.04,-2838.32"/>
</g>
<!-- u7&#45;&gt;u9 -->
<g id="edge11" class="edge">
<title>u7&#45;&gt;u9</title>
<path fill="none" stroke="black" d="M3587.69,-3078.54C3327.15,-3030.51 2569.2,-2890.8 2295.8,-2840.4"/>
<polygon fill="black" stroke="black" points="2296.36,-2836.94 2285.89,-2838.57 2295.09,-2843.83 2296.36,-2836.94"/>
</g>
<!-- u6&#45;&gt;u4 -->
<g id="edge8" class="edge">
<title>u6&#45;&gt;u4</title>
<path fill="none" stroke="black" d="M844.27,-3079.04C1217.95,-3030.67 2335.18,-2886.05 2707.64,-2837.84"/>
<polygon fill="black" stroke="black" points="2708.17,-2841.3 2717.64,-2836.54 2707.27,-2834.36 2708.17,-2841.3"/>
</g>
<!-- u6&#45;&gt;u9 -->
<g id="edge9" class="edge">
<title>u6&#45;&gt;u9</title>
<path fill="none" stroke="black" d="M810.22,-3078.49C1069.97,-3030.41 1824.49,-2890.76 2096.65,-2840.39"/>
<polygon fill="black" stroke="black" points="2097.32,-2843.82 2106.51,-2838.56 2096.04,-2836.94 2097.32,-2843.82"/>
</g>
<!-- u27 -->
<g id="node54" class="node">
<title>u27</title>
<ellipse fill="#77ffff" stroke="black" cx="3337.99" cy="-2821" rx="267.55" ry="18"/>
<text text-anchor="middle" x="3337.99" y="-2817.3" font-family="Times,serif" font-size="14.00">Language.Drasil.Code.Imperative.Parsers.ConfigParser</text>
</g>
<!-- u27&#45;&gt;u5 -->
<g id="edge45" class="edge">
<title>u27&#45;&gt;u5</title>
<path fill="none" stroke="black" d="M3335.62,-2802.92C3329.22,-2756.96 3311.59,-2630.33 3303.79,-2574.29"/>
<polygon fill="black" stroke="black" points="3307.22,-2573.49 3302.37,-2564.07 3300.28,-2574.46 3307.22,-2573.49"/>
</g>
<!-- u40&#45;&gt;u37 -->
<g id="edge67" class="edge">
<title>u40&#45;&gt;u37</title>
<path fill="none" stroke="black" d="M4066.8,-1152.58C4202.56,-1104.95 4596.16,-966.86 4743.99,-915"/>
<polygon fill="black" stroke="black" points="4745.51,-918.18 4753.79,-911.56 4743.19,-911.57 4745.51,-918.18"/>
</g>
<!-- u40&#45;&gt;u33 -->
<g id="edge66" class="edge">
<title>u40&#45;&gt;u33</title>
<path fill="none" stroke="black" d="M4042.55,-1152.07C4105.28,-1104.98 4281.9,-972.39 4353.88,-918.36"/>
<polygon fill="black" stroke="black" points="4356.22,-920.97 4362.12,-912.17 4352.02,-915.38 4356.22,-920.97"/>
</g>
<!-- u40&#45;&gt;u31 -->
<g id="edge65" class="edge">
<title>u40&#45;&gt;u31</title>
<path fill="none" stroke="black" d="M4019.99,-1151.86C4019.99,-1105.73 4019.99,-978.64 4019.99,-922.39"/>
<polygon fill="black" stroke="black" points="4023.49,-922.13 4019.99,-912.13 4016.49,-922.13 4023.49,-922.13"/>
</g>
<!-- u40&#45;&gt;u39 -->
<g id="edge68" class="edge">
<title>u40&#45;&gt;u39</title>
<path fill="none" stroke="black" d="M4000.54,-1151.86C3947.09,-1104.77 3797.88,-973.31 3736.2,-918.97"/>
<polygon fill="black" stroke="black" points="3738.26,-916.12 3728.44,-912.13 3733.63,-921.37 3738.26,-916.12"/>
</g>
<!-- u39&#45;&gt;u44 -->
<g id="edge64" class="edge">
<title>u39&#45;&gt;u44</title>
<path fill="none" stroke="black" d="M3708.99,-875.81C3708.99,-771.74 3708.99,-226.11 3708.99,-97.28"/>
<polygon fill="black" stroke="black" points="3712.49,-97.09 3708.99,-87.09 3705.49,-97.09 3712.49,-97.09"/>
</g>
</g>
</svg>
