<?xml version="1.0" encoding="UTF-8" standalone="no"?>
<!DOCTYPE svg PUBLIC "-//W3C//DTD SVG 1.1//EN"
 "http://www.w3.org/Graphics/SVG/1.1/DTD/svg11.dtd">
<!-- Generated by graphviz version 2.43.0 (0)
 -->
<!-- Title: G Pages: 1 -->
<svg width="431pt" height="288pt"
 viewBox="0.00 0.00 430.71 288.00" xmlns="http://www.w3.org/2000/svg" xmlns:xlink="http://www.w3.org/1999/xlink">
<g id="graph0" class="graph" transform="scale(0.4 0.4) rotate(0) translate(4 712.67)">
<title>G</title>
<polygon fill="white" stroke="transparent" points="-4,4 -4,-712.67 1067.78,-712.67 1067.78,4 -4,4"/>
<!-- u0 -->
<g id="node1" class="node">
<title>u0</title>
<ellipse fill="#bbffbb" stroke="black" cx="561.04" cy="-638" rx="63.89" ry="18"/>
<text text-anchor="middle" x="561.04" y="-634.3" font-family="Times,serif" font-size="14.00">Utils.Drasil</text>
</g>
<!-- u5 -->
<g id="node3" class="node">
<title>u5</title>
<ellipse fill="#ffffbb" stroke="black" cx="102.04" cy="-354" rx="102.08" ry="18"/>
<text text-anchor="middle" x="102.04" y="-350.3" font-family="Times,serif" font-size="14.00">Utils.Drasil.English</text>
</g>
<!-- u0&#45;&gt;u5 -->
<g id="edge5" class="edge">
<title>u0&#45;&gt;u5</title>
<path fill="none" stroke="black" d="M535.71,-621.44C458.58,-574.05 226.46,-431.44 137.38,-376.71"/>
<polygon fill="black" stroke="black" points="139.07,-373.64 128.72,-371.39 135.41,-379.61 139.07,-373.64"/>
</g>
<!-- u4 -->
<g id="node4" class="node">
<title>u4</title>
<ellipse fill="#ffffbb" stroke="black" cx="336.04" cy="-354" rx="114.28" ry="18"/>
<text text-anchor="middle" x="336.04" y="-350.3" font-family="Times,serif" font-size="14.00">Utils.Drasil.Document</text>
</g>
<!-- u0&#45;&gt;u4 -->
<g id="edge4" class="edge">
<title>u0&#45;&gt;u4</title>
<path fill="none" stroke="black" d="M547.64,-620.2C509.67,-572.61 401.18,-436.64 356.08,-380.12"/>
<polygon fill="black" stroke="black" points="358.63,-377.7 349.66,-372.06 353.16,-382.06 358.63,-377.7"/>
</g>
<!-- u3 -->
<g id="node5" class="node">
<title>u3</title>
<ellipse fill="#ffffbb" stroke="black" cx="561.04" cy="-354" rx="92.08" ry="18"/>
<text text-anchor="middle" x="561.04" y="-350.3" font-family="Times,serif" font-size="14.00">Utils.Drasil.Maps</text>
</g>
<!-- u0&#45;&gt;u3 -->
<g id="edge3" class="edge">
<title>u0&#45;&gt;u3</title>
<path fill="none" stroke="black" d="M561.04,-619.78C561.04,-572.49 561.04,-440.26 561.04,-382.54"/>
<polygon fill="black" stroke="black" points="564.54,-382.35 561.04,-372.35 557.54,-382.35 564.54,-382.35"/>
</g>
<!-- u2 -->
<g id="node6" class="node">
<title>u2</title>
<ellipse fill="#ffffbb" stroke="black" cx="758.04" cy="-354" rx="86.38" ry="18"/>
<text text-anchor="middle" x="758.04" y="-350.3" font-family="Times,serif" font-size="14.00">Utils.Drasil.CSV</text>
</g>
<!-- u0&#45;&gt;u2 -->
<g id="edge2" class="edge">
<title>u0&#45;&gt;u2</title>
<path fill="none" stroke="black" d="M572.77,-620.2C605.95,-572.71 700.62,-437.2 740.25,-380.47"/>
<polygon fill="black" stroke="black" points="743.26,-382.27 746.12,-372.06 737.52,-378.26 743.26,-382.27"/>
</g>
<!-- u1 -->
<g id="node7" class="node">
<title>u1</title>
<ellipse fill="#ffffbb" stroke="black" cx="963.04" cy="-354" rx="100.98" ry="18"/>
<text text-anchor="middle" x="963.04" y="-350.3" font-family="Times,serif" font-size="14.00">Utils.Drasil.Strings</text>
</g>
<!-- u0&#45;&gt;u1 -->
<g id="edge1" class="edge">
<title>u0&#45;&gt;u1</title>
<path fill="none" stroke="black" d="M583.81,-621.03C651.54,-573.52 851.94,-432.94 930.72,-377.67"/>
<polygon fill="black" stroke="black" points="933.09,-380.28 939.27,-371.67 929.07,-374.55 933.09,-380.28"/>
</g>
<!-- u6 -->
<g id="node2" class="node">
<title>u6</title>
<ellipse fill="#ffffbb" stroke="black" cx="963.04" cy="-71" rx="89.08" ry="18"/>
<text text-anchor="middle" x="963.04" y="-67.3" font-family="Times,serif" font-size="14.00">Utils.Drasil.Lists</text>
</g>
<!-- u1&#45;&gt;u6 -->
<g id="edge6" class="edge">
<title>u1&#45;&gt;u6</title>
<path fill="none" stroke="black" d="M963.04,-335.85C963.04,-288.72 963.04,-156.96 963.04,-99.44"/>
<polygon fill="black" stroke="black" points="966.54,-99.29 963.04,-89.29 959.54,-99.29 966.54,-99.29"/>
</g>
</g>
</svg>
