<?xml version="1.0" encoding="UTF-8" standalone="no"?>
<!DOCTYPE svg PUBLIC "-//W3C//DTD SVG 1.1//EN"
 "http://www.w3.org/Graphics/SVG/1.1/DTD/svg11.dtd">
<!-- Generated by graphviz version 2.43.0 (0)
 -->
<!-- Title: G Pages: 1 -->
<svg width="431pt" height="288pt"
 viewBox="0.00 0.00 431.07 288.00" xmlns="http://www.w3.org/2000/svg" xmlns:xlink="http://www.w3.org/1999/xlink">
<g id="graph0" class="graph" transform="scale(3.95 3.95) rotate(0) translate(4 1134)">
<title>G</title>
<polygon fill="white" stroke="transparent" points="-4,4 -4,-1134 1699.33,-1134 1699.33,4 -4,4"/>
<!-- u7 -->
<g id="node1" class="node">
<title>u7</title>
<ellipse fill="#bbffbb" stroke="black" cx="120.24" cy="-404" rx="120.48" ry="18"/>
<text text-anchor="middle" x="120.24" y="-400.3" font-family="Times,serif" font-size="14.00">Drasil.Website.Analysis</text>
</g>
<!-- u6 -->
<g id="node2" class="node">
<title>u6</title>
<ellipse fill="#bbffbb" stroke="black" cx="410.24" cy="-404" rx="152.17" ry="18"/>
<text text-anchor="middle" x="410.24" y="-400.3" font-family="Times,serif" font-size="14.00">Drasil.Website.Documentation</text>
</g>
<!-- u5 -->
<g id="node3" class="node">
<title>u5</title>
<ellipse fill="#bbffbb" stroke="black" cx="689.24" cy="-404" rx="108.58" ry="18"/>
<text text-anchor="middle" x="689.24" y="-400.3" font-family="Times,serif" font-size="14.00">Drasil.Website.About</text>
</g>
<!-- u4 -->
<g id="node4" class="node">
<title>u4</title>
<ellipse fill="#bbffbb" stroke="black" cx="967.24" cy="-404" rx="151.37" ry="18"/>
<text text-anchor="middle" x="967.24" y="-400.3" font-family="Times,serif" font-size="14.00">Drasil.Website.GettingStarted</text>
</g>
<!-- u3 -->
<g id="node5" class="node">
<title>u3</title>
<ellipse fill="#bbffbb" stroke="black" cx="1268.24" cy="-81" rx="122.38" ry="18"/>
<text text-anchor="middle" x="1268.24" y="-77.3" font-family="Times,serif" font-size="14.00">Drasil.Website.Example</text>
</g>
<!-- u2 -->
<g id="node6" class="node">
<title>u2</title>
<ellipse fill="#bbffbb" stroke="black" cx="1268.24" cy="-404" rx="131.08" ry="18"/>
<text text-anchor="middle" x="1268.24" y="-400.3" font-family="Times,serif" font-size="14.00">Drasil.Website.CaseStudy</text>
</g>
<!-- u2&#45;&gt;u3 -->
<g id="edge7" class="edge">
<title>u2&#45;&gt;u3</title>
<path fill="none" stroke="black" d="M1268.24,-385.74C1268.24,-333.05 1268.24,-173.96 1268.24,-109.54"/>
<polygon fill="black" stroke="black" points="1271.74,-109.34 1268.24,-99.34 1264.74,-109.34 1271.74,-109.34"/>
</g>
<!-- u1 -->
<g id="node7" class="node">
<title>u1</title>
<ellipse fill="#bbffbb" stroke="black" cx="1556.24" cy="-404" rx="139.18" ry="18"/>
<text text-anchor="middle" x="1556.24" y="-400.3" font-family="Times,serif" font-size="14.00">Drasil.Website.Introduction</text>
</g>
<!-- u0 -->
<g id="node8" class="node">
<title>u0</title>
<ellipse fill="#bbffbb" stroke="black" cx="828.24" cy="-726" rx="104.78" ry="18"/>
<text text-anchor="middle" x="828.24" y="-722.3" font-family="Times,serif" font-size="14.00">Drasil.Website.Body</text>
</g>
<!-- u0&#45;&gt;u7 -->
<g id="edge6" class="edge">
<title>u0&#45;&gt;u7</title>
<path fill="none" stroke="black" d="M792.64,-708.91C674.74,-655.62 296.99,-484.89 165.71,-425.55"/>
<polygon fill="black" stroke="black" points="166.88,-422.24 156.33,-421.31 164,-428.62 166.88,-422.24"/>
</g>
<!-- u0&#45;&gt;u6 -->
<g id="edge5" class="edge">
<title>u0&#45;&gt;u6</title>
<path fill="none" stroke="black" d="M806.35,-708.25C736.82,-655.02 520.83,-489.66 440.62,-428.26"/>
<polygon fill="black" stroke="black" points="442.48,-425.27 432.41,-421.97 438.22,-430.83 442.48,-425.27"/>
</g>
<!-- u0&#45;&gt;u5 -->
<g id="edge4" class="edge">
<title>u0&#45;&gt;u5</title>
<path fill="none" stroke="black" d="M820.77,-707.8C797.86,-655.05 728.49,-495.37 700.82,-431.66"/>
<polygon fill="black" stroke="black" points="703.94,-430.07 696.75,-422.29 697.52,-432.86 703.94,-430.07"/>
</g>
<!-- u0&#45;&gt;u4 -->
<g id="edge3" class="edge">
<title>u0&#45;&gt;u4</title>
<path fill="none" stroke="black" d="M835.71,-707.8C858.62,-655.05 927.99,-495.37 955.66,-431.66"/>
<polygon fill="black" stroke="black" points="958.96,-432.86 959.73,-422.29 952.53,-430.07 958.96,-432.86"/>
</g>
<!-- u0&#45;&gt;u2 -->
<g id="edge2" class="edge">
<title>u0&#45;&gt;u2</title>
<path fill="none" stroke="black" d="M851.28,-708.25C924.7,-654.85 1153.28,-488.6 1237.06,-427.68"/>
<polygon fill="black" stroke="black" points="1239.14,-430.49 1245.17,-421.78 1235.02,-424.83 1239.14,-430.49"/>
</g>
<!-- u0&#45;&gt;u1 -->
<g id="edge1" class="edge">
<title>u0&#45;&gt;u1</title>
<path fill="none" stroke="black" d="M864.84,-708.91C986.06,-655.63 1374.37,-484.94 1509.42,-425.58"/>
<polygon fill="black" stroke="black" points="1510.95,-428.73 1518.7,-421.5 1508.13,-422.32 1510.95,-428.73"/>
</g>
<!-- u8 -->
<g id="node9" class="node">
<title>u8</title>
<ellipse fill="#ffffbb" stroke="black" cx="828.24" cy="-1049" rx="122.38" ry="18"/>
<text text-anchor="middle" x="828.24" y="-1045.3" font-family="Times,serif" font-size="14.00">drasil&#45;website.app.Main</text>
</g>
<!-- u8&#45;&gt;u0 -->
<g id="edge8" class="edge">
<title>u8&#45;&gt;u0</title>
<path fill="none" stroke="black" d="M828.24,-1030.74C828.24,-978.05 828.24,-818.96 828.24,-754.54"/>
<polygon fill="black" stroke="black" points="831.74,-754.34 828.24,-744.34 824.74,-754.34 831.74,-754.34"/>
</g>
</g>
</svg>
