<?xml version="1.0" encoding="UTF-8" standalone="no"?>
<!DOCTYPE svg PUBLIC "-//W3C//DTD SVG 1.1//EN"
 "http://www.w3.org/Graphics/SVG/1.1/DTD/svg11.dtd">
<!-- Generated by graphviz version 2.43.0 (0)
 -->
<!-- Title: G Pages: 1 -->
<svg width="432pt" height="288pt"
 viewBox="0.00 0.00 431.68 288.00" xmlns="http://www.w3.org/2000/svg" xmlns:xlink="http://www.w3.org/1999/xlink">
<g id="graph0" class="graph" transform="scale(0.09 0.09) rotate(0) translate(4 3084)">
<title>G</title>
<polygon fill="white" stroke="transparent" points="-4,4 -4,-3084 4624.57,-3084 4624.57,4 -4,4"/>
<!-- u29 -->
<g id="node1" class="node">
<title>u29</title>
<ellipse fill="#bbffbb" stroke="black" cx="3375.94" cy="-91" rx="92.88" ry="18"/>
<text text-anchor="middle" x="3375.94" y="-87.3" font-family="Times,serif" font-size="14.00">Drasil.GetChunks</text>
</g>
<!-- u16 -->
<g id="node2" class="node">
<title>u16</title>
<ellipse fill="#bbffbb" stroke="black" cx="2503.94" cy="-1902" rx="79.09" ry="18"/>
<text text-anchor="middle" x="2503.94" y="-1898.3" font-family="Times,serif" font-size="14.00">Drasil.DocDecl</text>
</g>
<!-- u13 -->
<g id="node12" class="node">
<title>u13</title>
<ellipse fill="#bbbbff" stroke="black" cx="3424.94" cy="-1178" rx="159.47" ry="18"/>
<text text-anchor="middle" x="3424.94" y="-1174.3" font-family="Times,serif" font-size="14.00">Drasil.DocumentLanguage.Core</text>
</g>
<!-- u16&#45;&gt;u13 -->
<g id="edge34" class="edge">
<title>u16&#45;&gt;u13</title>
<path fill="none" stroke="black" d="M2572.3,-1892.78C2810,-1862.67 3593.95,-1750.01 3739.94,-1558 3846.73,-1417.53 3577.01,-1257.41 3468.12,-1200.47"/>
<polygon fill="black" stroke="black" points="3469.51,-1197.25 3459.02,-1195.76 3466.29,-1203.47 3469.51,-1197.25"/>
</g>
<!-- u21 -->
<g id="node26" class="node">
<title>u21</title>
<ellipse fill="#bbffff" stroke="black" cx="2503.94" cy="-1540" rx="149.47" ry="18"/>
<text text-anchor="middle" x="2503.94" y="-1536.3" font-family="Times,serif" font-size="14.00">Drasil.Sections.Requirements</text>
</g>
<!-- u16&#45;&gt;u21 -->
<g id="edge35" class="edge">
<title>u16&#45;&gt;u21</title>
<path fill="none" stroke="black" d="M2503.94,-1883.64C2503.94,-1825.78 2503.94,-1639.2 2503.94,-1568.5"/>
<polygon fill="black" stroke="black" points="2507.44,-1568.19 2503.94,-1558.19 2500.44,-1568.19 2507.44,-1568.19"/>
</g>
<!-- u15 -->
<g id="node3" class="node">
<title>u15</title>
<ellipse fill="#bbffbb" stroke="black" cx="2878.94" cy="-1902" rx="116.18" ry="18"/>
<text text-anchor="middle" x="2878.94" y="-1898.3" font-family="Times,serif" font-size="14.00">Drasil.ExtractDocDesc</text>
</g>
<!-- u15&#45;&gt;u13 -->
<g id="edge32" class="edge">
<title>u15&#45;&gt;u13</title>
<path fill="none" stroke="black" d="M2989.72,-1896.35C3186.62,-1881.4 3593.66,-1818.8 3772.94,-1558 3876.89,-1406.77 3589.9,-1254.19 3472.47,-1199.82"/>
<polygon fill="black" stroke="black" points="3473.86,-1196.6 3463.31,-1195.62 3470.94,-1202.97 3473.86,-1196.6"/>
</g>
<!-- u20 -->
<g id="node27" class="node">
<title>u20</title>
<ellipse fill="#bbffff" stroke="black" cx="2878.94" cy="-1540" rx="207.96" ry="18"/>
<text text-anchor="middle" x="2878.94" y="-1536.3" font-family="Times,serif" font-size="14.00">Drasil.Sections.SpecificSystemDescription</text>
</g>
<!-- u15&#45;&gt;u20 -->
<g id="edge33" class="edge">
<title>u15&#45;&gt;u20</title>
<path fill="none" stroke="black" d="M2878.94,-1883.64C2878.94,-1825.78 2878.94,-1639.2 2878.94,-1568.5"/>
<polygon fill="black" stroke="black" points="2882.44,-1568.19 2878.94,-1558.19 2875.44,-1568.19 2882.44,-1568.19"/>
</g>
<!-- u3 -->
<g id="node4" class="node">
<title>u3</title>
<ellipse fill="#bbffbb" stroke="black" cx="3429.94" cy="-1902" rx="92.08" ry="18"/>
<text text-anchor="middle" x="3429.94" y="-1898.3" font-family="Times,serif" font-size="14.00">Drasil.TraceTable</text>
</g>
<!-- u3&#45;&gt;u13 -->
<g id="edge13" class="edge">
<title>u3&#45;&gt;u13</title>
<path fill="none" stroke="black" d="M3470.6,-1885.84C3584.14,-1840.93 3891.12,-1700.51 3810.94,-1522 3739.07,-1361.99 3551.57,-1246.2 3467.18,-1200.51"/>
<polygon fill="black" stroke="black" points="3468.6,-1197.3 3458.13,-1195.67 3465.3,-1203.48 3468.6,-1197.3"/>
</g>
<!-- u2 -->
<g id="node5" class="node">
<title>u2</title>
<ellipse fill="#bbffbb" stroke="black" cx="2872.94" cy="-2627" rx="81.79" ry="18"/>
<text text-anchor="middle" x="2872.94" y="-2623.3" font-family="Times,serif" font-size="14.00">Drasil.DocLang</text>
</g>
<!-- u0 -->
<g id="node7" class="node">
<title>u0</title>
<ellipse fill="#bbffbb" stroke="black" cx="2003.94" cy="-2265" rx="133.78" ry="18"/>
<text text-anchor="middle" x="2003.94" y="-2261.3" font-family="Times,serif" font-size="14.00">Drasil.DocumentLanguage</text>
</g>
<!-- u2&#45;&gt;u0 -->
<g id="edge11" class="edge">
<title>u2&#45;&gt;u0</title>
<path fill="none" stroke="black" d="M2836.43,-2610.88C2698.54,-2553.75 2209.36,-2351.1 2052.63,-2286.17"/>
<polygon fill="black" stroke="black" points="2053.81,-2282.87 2043.23,-2282.28 2051.13,-2289.34 2053.81,-2282.87"/>
</g>
<!-- u10 -->
<g id="node18" class="node">
<title>u10</title>
<ellipse fill="#ffbbbb" stroke="black" cx="3950.94" cy="-2265" rx="276.75" ry="18"/>
<text text-anchor="middle" x="3950.94" y="-2261.3" font-family="Times,serif" font-size="14.00">Drasil.DocumentLanguage.Notebook.DocumentLanguage</text>
</g>
<!-- u2&#45;&gt;u10 -->
<g id="edge12" class="edge">
<title>u2&#45;&gt;u10</title>
<path fill="none" stroke="black" d="M2915.86,-2611.67C3083.77,-2555.59 3696.43,-2350.99 3891.12,-2285.98"/>
<polygon fill="black" stroke="black" points="3892.51,-2289.2 3900.89,-2282.71 3890.3,-2282.56 3892.51,-2289.2"/>
</g>
<!-- u1 -->
<g id="node6" class="node">
<title>u1</title>
<ellipse fill="#bbffbb" stroke="black" cx="2872.94" cy="-2989" rx="108.58" ry="18"/>
<text text-anchor="middle" x="2872.94" y="-2985.3" font-family="Times,serif" font-size="14.00">Drasil.SRSDocument</text>
</g>
<!-- u1&#45;&gt;u2 -->
<g id="edge10" class="edge">
<title>u1&#45;&gt;u2</title>
<path fill="none" stroke="black" d="M2872.94,-2970.64C2872.94,-2912.78 2872.94,-2726.2 2872.94,-2655.5"/>
<polygon fill="black" stroke="black" points="2876.44,-2655.19 2872.94,-2645.19 2869.44,-2655.19 2876.44,-2655.19"/>
</g>
<!-- u0&#45;&gt;u16 -->
<g id="edge5" class="edge">
<title>u0&#45;&gt;u16</title>
<path fill="none" stroke="black" d="M2027.38,-2247.07C2109.02,-2188.13 2380.87,-1991.85 2473.06,-1925.3"/>
<polygon fill="black" stroke="black" points="2475.34,-1927.96 2481.4,-1919.27 2471.25,-1922.29 2475.34,-1927.96"/>
</g>
<!-- u0&#45;&gt;u15 -->
<g id="edge4" class="edge">
<title>u0&#45;&gt;u15</title>
<path fill="none" stroke="black" d="M2043.23,-2247.79C2185.57,-2189.06 2674,-1987.55 2830.37,-1923.04"/>
<polygon fill="black" stroke="black" points="2831.84,-1926.22 2839.75,-1919.17 2829.17,-1919.75 2831.84,-1926.22"/>
</g>
<!-- u0&#45;&gt;u3 -->
<g id="edge1" class="edge">
<title>u0&#45;&gt;u3</title>
<path fill="none" stroke="black" d="M2063.85,-2248.83C2295.1,-2190.29 3128.48,-1979.32 3366.22,-1919.13"/>
<polygon fill="black" stroke="black" points="3367.26,-1922.48 3376.09,-1916.63 3365.54,-1915.69 3367.26,-1922.48"/>
</g>
<!-- u5 -->
<g id="node9" class="node">
<title>u5</title>
<ellipse fill="#ffffbb" stroke="black" cx="2201.94" cy="-1902" rx="136.48" ry="18"/>
<text text-anchor="middle" x="2201.94" y="-1898.3" font-family="Times,serif" font-size="14.00">Drasil.DocLang.References</text>
</g>
<!-- u0&#45;&gt;u5 -->
<g id="edge2" class="edge">
<title>u0&#45;&gt;u5</title>
<path fill="none" stroke="black" d="M2013.49,-2246.59C2045.51,-2188.21 2149.19,-1999.16 2187.52,-1929.28"/>
<polygon fill="black" stroke="black" points="2190.74,-1930.69 2192.48,-1920.24 2184.61,-1927.32 2190.74,-1930.69"/>
</g>
<!-- u9 -->
<g id="node13" class="node">
<title>u9</title>
<ellipse fill="#bbbbff" stroke="black" cx="1702.94" cy="-1902" rx="220.96" ry="18"/>
<text text-anchor="middle" x="1702.94" y="-1898.3" font-family="Times,serif" font-size="14.00">Drasil.DocumentLanguage.TraceabilityGraph</text>
</g>
<!-- u0&#45;&gt;u9 -->
<g id="edge3" class="edge">
<title>u0&#45;&gt;u9</title>
<path fill="none" stroke="black" d="M1989.82,-2247.07C1941.35,-2188.94 1781.5,-1997.22 1723.88,-1928.11"/>
<polygon fill="black" stroke="black" points="1726.46,-1925.75 1717.37,-1920.31 1721.09,-1930.23 1726.46,-1925.75"/>
</g>
<!-- u27 -->
<g id="node20" class="node">
<title>u27</title>
<ellipse fill="#bbffff" stroke="black" cx="1343.94" cy="-1540" rx="161.37" ry="18"/>
<text text-anchor="middle" x="1343.94" y="-1536.3" font-family="Times,serif" font-size="14.00">Drasil.Sections.TableOfContents</text>
</g>
<!-- u0&#45;&gt;u27 -->
<g id="edge9" class="edge">
<title>u0&#45;&gt;u27</title>
<path fill="none" stroke="black" d="M1961.23,-2247.9C1861.09,-2208.01 1609.33,-2095.01 1472.94,-1920 1386.12,-1808.61 1355.85,-1635.28 1347.06,-1568.51"/>
<polygon fill="black" stroke="black" points="1350.5,-1567.86 1345.78,-1558.38 1343.56,-1568.74 1350.5,-1567.86"/>
</g>
<!-- u24 -->
<g id="node23" class="node">
<title>u24</title>
<ellipse fill="#bbffff" stroke="black" cx="278.94" cy="-1540" rx="141.88" ry="18"/>
<text text-anchor="middle" x="278.94" y="-1536.3" font-family="Times,serif" font-size="14.00">Drasil.Sections.Introduction</text>
</g>
<!-- u0&#45;&gt;u24 -->
<g id="edge8" class="edge">
<title>u0&#45;&gt;u24</title>
<path fill="none" stroke="black" d="M1965.08,-2247.71C1737.57,-2152.36 579.63,-1667.03 327.46,-1561.34"/>
<polygon fill="black" stroke="black" points="328.76,-1558.09 318.19,-1557.45 326.06,-1564.54 328.76,-1558.09"/>
</g>
<!-- u23 -->
<g id="node24" class="node">
<title>u23</title>
<ellipse fill="#bbffff" stroke="black" cx="144.94" cy="-1902" rx="144.87" ry="18"/>
<text text-anchor="middle" x="144.94" y="-1898.3" font-family="Times,serif" font-size="14.00">Drasil.Sections.Stakeholders</text>
</g>
<!-- u0&#45;&gt;u23 -->
<g id="edge7" class="edge">
<title>u0&#45;&gt;u23</title>
<path fill="none" stroke="black" d="M1931.06,-2249.85C1637.62,-2192.86 543.3,-1980.36 229.53,-1919.43"/>
<polygon fill="black" stroke="black" points="230.07,-1915.97 219.58,-1917.5 228.73,-1922.84 230.07,-1915.97"/>
</g>
<!-- u17 -->
<g id="node30" class="node">
<title>u17</title>
<ellipse fill="#bbffff" stroke="black" cx="601.94" cy="-1540" rx="163.27" ry="18"/>
<text text-anchor="middle" x="601.94" y="-1536.3" font-family="Times,serif" font-size="14.00">Drasil.Sections.GeneralSystDesc</text>
</g>
<!-- u0&#45;&gt;u17 -->
<g id="edge6" class="edge">
<title>u0&#45;&gt;u17</title>
<path fill="none" stroke="black" d="M1971.68,-2247.37C1785.82,-2151.52 852.49,-1670.21 643.5,-1562.43"/>
<polygon fill="black" stroke="black" points="644.88,-1559.21 634.38,-1557.73 641.67,-1565.43 644.88,-1559.21"/>
</g>
<!-- u6 -->
<g id="node8" class="node">
<title>u6</title>
<ellipse fill="#ffffbb" stroke="black" cx="892.94" cy="-1178" rx="104.78" ry="18"/>
<text text-anchor="middle" x="892.94" y="-1174.3" font-family="Times,serif" font-size="14.00">Drasil.DocLang.SRS</text>
</g>
<!-- u28 -->
<g id="node19" class="node">
<title>u28</title>
<ellipse fill="#bbffff" stroke="black" cx="2134.94" cy="-1540" rx="201.46" ry="18"/>
<text text-anchor="middle" x="2134.94" y="-1536.3" font-family="Times,serif" font-size="14.00">Drasil.Sections.TableOfAbbAndAcronyms</text>
</g>
<!-- u5&#45;&gt;u28 -->
<g id="edge20" class="edge">
<title>u5&#45;&gt;u28</title>
<path fill="none" stroke="black" d="M2198.71,-1883.64C2187.91,-1825.66 2153.07,-1638.43 2139.97,-1568.07"/>
<polygon fill="black" stroke="black" points="2143.41,-1567.38 2138.14,-1558.19 2136.53,-1568.66 2143.41,-1567.38"/>
</g>
<!-- u25 -->
<g id="node22" class="node">
<title>u25</title>
<ellipse fill="#bbffff" stroke="black" cx="3263.94" cy="-1540" rx="159.47" ry="18"/>
<text text-anchor="middle" x="3263.94" y="-1536.3" font-family="Times,serif" font-size="14.00">Drasil.Sections.TableOfSymbols</text>
</g>
<!-- u5&#45;&gt;u25 -->
<g id="edge19" class="edge">
<title>u5&#45;&gt;u25</title>
<path fill="none" stroke="black" d="M2248.94,-1885.07C2421.18,-1826.68 3017.57,-1624.52 3206.24,-1560.56"/>
<polygon fill="black" stroke="black" points="3207.62,-1563.79 3215.97,-1557.26 3205.37,-1557.16 3207.62,-1563.79"/>
</g>
<!-- u22 -->
<g id="node25" class="node">
<title>u22</title>
<ellipse fill="#bbffff" stroke="black" cx="1737.94" cy="-1540" rx="177.37" ry="18"/>
<text text-anchor="middle" x="1737.94" y="-1536.3" font-family="Times,serif" font-size="14.00">Drasil.Sections.TraceabilityMandGs</text>
</g>
<!-- u5&#45;&gt;u22 -->
<g id="edge18" class="edge">
<title>u5&#45;&gt;u22</title>
<path fill="none" stroke="black" d="M2180.18,-1884.12C2104.84,-1825.67 1854.95,-1631.79 1768.04,-1564.36"/>
<polygon fill="black" stroke="black" points="1769.96,-1561.42 1759.92,-1558.05 1765.67,-1566.95 1769.96,-1561.42"/>
</g>
<!-- u5&#45;&gt;u21 -->
<g id="edge17" class="edge">
<title>u5&#45;&gt;u21</title>
<path fill="none" stroke="black" d="M2216.5,-1883.64C2265.64,-1825.06 2425.44,-1634.58 2483.02,-1565.94"/>
<polygon fill="black" stroke="black" points="2485.77,-1568.1 2489.52,-1558.19 2480.41,-1563.6 2485.77,-1568.1"/>
</g>
<!-- u5&#45;&gt;u20 -->
<g id="edge16" class="edge">
<title>u5&#45;&gt;u20</title>
<path fill="none" stroke="black" d="M2233.23,-1884.36C2343.48,-1825.73 2713.87,-1628.77 2838,-1562.77"/>
<polygon fill="black" stroke="black" points="2840.01,-1565.67 2847.19,-1557.88 2836.72,-1559.49 2840.01,-1565.67"/>
</g>
<!-- u19 -->
<g id="node28" class="node">
<title>u19</title>
<ellipse fill="#bbffff" stroke="black" cx="3585.94" cy="-1540" rx="144.87" ry="18"/>
<text text-anchor="middle" x="3585.94" y="-1536.3" font-family="Times,serif" font-size="14.00">Drasil.Sections.TableOfUnits</text>
</g>
<!-- u5&#45;&gt;u19 -->
<g id="edge15" class="edge">
<title>u5&#45;&gt;u19</title>
<path fill="none" stroke="black" d="M2260.96,-1885.65C2484.26,-1827.56 3276.75,-1621.42 3516.64,-1559.03"/>
<polygon fill="black" stroke="black" points="3517.83,-1562.33 3526.63,-1556.43 3516.07,-1555.56 3517.83,-1562.33"/>
</g>
<!-- u18 -->
<g id="node29" class="node">
<title>u18</title>
<ellipse fill="#bbffff" stroke="black" cx="992.94" cy="-1540" rx="172.47" ry="18"/>
<text text-anchor="middle" x="992.94" y="-1536.3" font-family="Times,serif" font-size="14.00">Drasil.Sections.AuxiliaryConstants</text>
</g>
<!-- u5&#45;&gt;u18 -->
<g id="edge14" class="edge">
<title>u5&#45;&gt;u18</title>
<path fill="none" stroke="black" d="M2149.21,-1885.3C1953.7,-1827.08 1270.5,-1623.65 1057.12,-1560.11"/>
<polygon fill="black" stroke="black" points="1057.9,-1556.69 1047.32,-1557.19 1055.9,-1563.4 1057.9,-1556.69"/>
</g>
<!-- u4 -->
<g id="node10" class="node">
<title>u4</title>
<ellipse fill="#ffffbb" stroke="black" cx="4029.94" cy="-1902" rx="129.18" ry="18"/>
<text text-anchor="middle" x="4029.94" y="-1898.3" font-family="Times,serif" font-size="14.00">Drasil.DocLang.Notebook</text>
</g>
<!-- u14 -->
<g id="node11" class="node">
<title>u14</title>
<ellipse fill="#bbbbff" stroke="black" cx="2503.94" cy="-91" rx="162.47" ry="18"/>
<text text-anchor="middle" x="2503.94" y="-87.3" font-family="Times,serif" font-size="14.00">Drasil.DocumentLanguage.Units</text>
</g>
<!-- u7 -->
<g id="node15" class="node">
<title>u7</title>
<ellipse fill="#bbbbff" stroke="black" cx="3358.94" cy="-815" rx="223.66" ry="18"/>
<text text-anchor="middle" x="3358.94" y="-811.3" font-family="Times,serif" font-size="14.00">Drasil.DocumentLanguage.TraceabilityMatrix</text>
</g>
<!-- u13&#45;&gt;u7 -->
<g id="edge31" class="edge">
<title>u13&#45;&gt;u7</title>
<path fill="none" stroke="black" d="M3421.75,-1159.59C3411.12,-1101.45 3376.8,-913.71 3363.9,-843.14"/>
<polygon fill="black" stroke="black" points="3367.33,-842.44 3362.09,-833.24 3360.44,-843.7 3367.33,-842.44"/>
</g>
<!-- u9&#45;&gt;u6 -->
<g id="edge24" class="edge">
<title>u9&#45;&gt;u6</title>
<path fill="none" stroke="black" d="M1532.05,-1890.56C1322.06,-1867.5 973.77,-1793.72 811.94,-1558 733.92,-1444.36 832.64,-1269.89 875.19,-1204.72"/>
<polygon fill="black" stroke="black" points="878.19,-1206.54 880.8,-1196.27 872.36,-1202.67 878.19,-1206.54"/>
</g>
<!-- u26 -->
<g id="node21" class="node">
<title>u26</title>
<ellipse fill="#bbffff" stroke="black" cx="2134.94" cy="-1178" rx="170.07" ry="18"/>
<text text-anchor="middle" x="2134.94" y="-1174.3" font-family="Times,serif" font-size="14.00">Drasil.Sections.ReferenceMaterial</text>
</g>
<!-- u9&#45;&gt;u26 -->
<g id="edge26" class="edge">
<title>u9&#45;&gt;u26</title>
<path fill="none" stroke="black" d="M1685.63,-1883.98C1632.04,-1829.19 1476.87,-1653.27 1551.94,-1522 1662.31,-1329.01 1928.27,-1233.88 2059.34,-1197.41"/>
<polygon fill="black" stroke="black" points="2060.59,-1200.7 2069.31,-1194.68 2058.74,-1193.95 2060.59,-1200.7"/>
</g>
<!-- u9&#45;&gt;u22 -->
<g id="edge25" class="edge">
<title>u9&#45;&gt;u22</title>
<path fill="none" stroke="black" d="M1704.63,-1883.64C1710.25,-1825.78 1728.39,-1639.2 1735.26,-1568.5"/>
<polygon fill="black" stroke="black" points="1738.78,-1568.48 1736.27,-1558.19 1731.81,-1567.8 1738.78,-1568.48"/>
</g>
<!-- u8 -->
<g id="node14" class="node">
<title>u8</title>
<ellipse fill="#bbbbff" stroke="black" cx="2878.94" cy="-453" rx="187.37" ry="18"/>
<text text-anchor="middle" x="2878.94" y="-449.3" font-family="Times,serif" font-size="14.00">Drasil.DocumentLanguage.Definitions</text>
</g>
<!-- u8&#45;&gt;u29 -->
<g id="edge23" class="edge">
<title>u8&#45;&gt;u29</title>
<path fill="none" stroke="black" d="M2902.24,-435.12C2983.21,-376.47 3252.37,-181.5 3344.61,-114.69"/>
<polygon fill="black" stroke="black" points="3346.92,-117.34 3352.97,-108.64 3342.82,-111.67 3346.92,-117.34"/>
</g>
<!-- u8&#45;&gt;u14 -->
<g id="edge22" class="edge">
<title>u8&#45;&gt;u14</title>
<path fill="none" stroke="black" d="M2860.85,-434.64C2799.71,-375.94 2600.61,-184.8 2529.48,-116.52"/>
<polygon fill="black" stroke="black" points="2531.48,-113.59 2521.84,-109.19 2526.63,-118.64 2531.48,-113.59"/>
</g>
<!-- u7&#45;&gt;u8 -->
<g id="edge21" class="edge">
<title>u7&#45;&gt;u8</title>
<path fill="none" stroke="black" d="M3336.11,-796.88C3257.69,-738.06 2999.22,-544.21 2909.75,-477.11"/>
<polygon fill="black" stroke="black" points="2911.73,-474.22 2901.63,-471.02 2907.53,-479.82 2911.73,-474.22"/>
</g>
<!-- u12 -->
<g id="node16" class="node">
<title>u12</title>
<ellipse fill="#ffbbbb" stroke="black" cx="4398.94" cy="-1540" rx="206.06" ry="18"/>
<text text-anchor="middle" x="4398.94" y="-1536.3" font-family="Times,serif" font-size="14.00">Drasil.DocumentLanguage.Notebook.Core</text>
</g>
<!-- u11 -->
<g id="node17" class="node">
<title>u11</title>
<ellipse fill="#ffbbbb" stroke="black" cx="4398.94" cy="-1902" rx="221.76" ry="18"/>
<text text-anchor="middle" x="4398.94" y="-1898.3" font-family="Times,serif" font-size="14.00">Drasil.DocumentLanguage.Notebook.LsnDecl</text>
</g>
<!-- u11&#45;&gt;u12 -->
<g id="edge30" class="edge">
<title>u11&#45;&gt;u12</title>
<path fill="none" stroke="black" d="M4398.94,-1883.64C4398.94,-1825.78 4398.94,-1639.2 4398.94,-1568.5"/>
<polygon fill="black" stroke="black" points="4402.44,-1568.19 4398.94,-1558.19 4395.44,-1568.19 4402.44,-1568.19"/>
</g>
<!-- u10&#45;&gt;u29 -->
<g id="edge29" class="edge">
<title>u10&#45;&gt;u29</title>
<path fill="none" stroke="black" d="M3947.26,-2246.92C3936.66,-2196.94 3905.9,-2046.48 3891.94,-1920 3873.43,-1752.36 3872.94,-1709.66 3872.94,-1541 3872.94,-1541 3872.94,-1541 3872.94,-814 3872.94,-484.34 3517.04,-195.59 3407.58,-114.58"/>
<polygon fill="black" stroke="black" points="3409.37,-111.56 3399.24,-108.46 3405.23,-117.2 3409.37,-111.56"/>
</g>
<!-- u10&#45;&gt;u4 -->
<g id="edge27" class="edge">
<title>u10&#45;&gt;u4</title>
<path fill="none" stroke="black" d="M3954.75,-2246.59C3967.47,-2188.45 4008.56,-2000.71 4024,-1930.14"/>
<polygon fill="black" stroke="black" points="4027.45,-1930.75 4026.17,-1920.24 4020.61,-1929.26 4027.45,-1930.75"/>
</g>
<!-- u10&#45;&gt;u11 -->
<g id="edge28" class="edge">
<title>u10&#45;&gt;u11</title>
<path fill="none" stroke="black" d="M3972.24,-2246.83C4045.36,-2187.91 4286.19,-1993.85 4369.93,-1926.37"/>
<polygon fill="black" stroke="black" points="4372.17,-1929.06 4377.76,-1920.06 4367.78,-1923.61 4372.17,-1929.06"/>
</g>
<!-- u28&#45;&gt;u26 -->
<g id="edge58" class="edge">
<title>u28&#45;&gt;u26</title>
<path fill="none" stroke="black" d="M2134.94,-1521.64C2134.94,-1463.78 2134.94,-1277.2 2134.94,-1206.5"/>
<polygon fill="black" stroke="black" points="2138.44,-1206.19 2134.94,-1196.19 2131.44,-1206.19 2138.44,-1206.19"/>
</g>
<!-- u27&#45;&gt;u6 -->
<g id="edge56" class="edge">
<title>u27&#45;&gt;u6</title>
<path fill="none" stroke="black" d="M1322.79,-1522.12C1249.48,-1463.6 1006.12,-1269.34 921.91,-1202.13"/>
<polygon fill="black" stroke="black" points="924.04,-1199.35 914.04,-1195.84 919.67,-1204.82 924.04,-1199.35"/>
</g>
<!-- u27&#45;&gt;u13 -->
<g id="edge57" class="edge">
<title>u27&#45;&gt;u13</title>
<path fill="none" stroke="black" d="M1427.44,-1524.55C1759.19,-1467.16 2982.79,-1255.49 3331.58,-1195.15"/>
<polygon fill="black" stroke="black" points="3332.39,-1198.56 3341.64,-1193.41 3331.19,-1191.67 3332.39,-1198.56"/>
</g>
<!-- u25&#45;&gt;u13 -->
<g id="edge54" class="edge">
<title>u25&#45;&gt;u13</title>
<path fill="none" stroke="black" d="M3271.7,-1521.64C3297.69,-1463.54 3381.71,-1275.67 3413.02,-1205.64"/>
<polygon fill="black" stroke="black" points="3416.36,-1206.75 3417.25,-1196.19 3409.97,-1203.89 3416.36,-1206.75"/>
</g>
<!-- u25&#45;&gt;u26 -->
<g id="edge55" class="edge">
<title>u25&#45;&gt;u26</title>
<path fill="none" stroke="black" d="M3213.23,-1522.83C3028.95,-1464.07 2395.05,-1261.94 2195.55,-1198.33"/>
<polygon fill="black" stroke="black" points="2196.41,-1194.93 2185.82,-1195.23 2194.29,-1201.6 2196.41,-1194.93"/>
</g>
<!-- u24&#45;&gt;u6 -->
<g id="edge51" class="edge">
<title>u24&#45;&gt;u6</title>
<path fill="none" stroke="black" d="M307.32,-1522.36C407.34,-1463.72 743.43,-1266.66 855.91,-1200.71"/>
<polygon fill="black" stroke="black" points="858,-1203.54 864.86,-1195.47 854.46,-1197.5 858,-1203.54"/>
</g>
<!-- u24&#45;&gt;u8 -->
<g id="edge52" class="edge">
<title>u24&#45;&gt;u8</title>
<path fill="none" stroke="black" d="M296.94,-1521.78C358.97,-1463.29 571.43,-1269.74 778.94,-1160 1513.58,-771.48 2504.04,-535.87 2795.2,-471.82"/>
<polygon fill="black" stroke="black" points="2796.24,-475.17 2805.26,-469.61 2794.74,-468.34 2796.24,-475.17"/>
</g>
<!-- u24&#45;&gt;u26 -->
<g id="edge53" class="edge">
<title>u24&#45;&gt;u26</title>
<path fill="none" stroke="black" d="M353.13,-1524.61C647.19,-1467.57 1730.23,-1257.5 2047.23,-1196.01"/>
<polygon fill="black" stroke="black" points="2048.13,-1199.4 2057.28,-1194.06 2046.8,-1192.53 2048.13,-1199.4"/>
</g>
<!-- u23&#45;&gt;u6 -->
<g id="edge50" class="edge">
<title>u23&#45;&gt;u6</title>
<path fill="none" stroke="black" d="M137.69,-1883.7C114.97,-1826.53 51.15,-1640.59 127.94,-1522 278.03,-1290.21 625.81,-1213.59 795.84,-1189.46"/>
<polygon fill="black" stroke="black" points="796.36,-1192.92 805.78,-1188.08 795.4,-1185.99 796.36,-1192.92"/>
</g>
<!-- u22&#45;&gt;u13 -->
<g id="edge49" class="edge">
<title>u22&#45;&gt;u13</title>
<path fill="none" stroke="black" d="M1810.43,-1523.53C2084.36,-1465.08 3055.45,-1257.85 3343.7,-1196.34"/>
<polygon fill="black" stroke="black" points="3344.61,-1199.72 3353.66,-1194.21 3343.15,-1192.87 3344.61,-1199.72"/>
</g>
<!-- u21&#45;&gt;u6 -->
<g id="edge46" class="edge">
<title>u21&#45;&gt;u6</title>
<path fill="none" stroke="black" d="M2436.51,-1523.93C2175.39,-1465.58 1231.94,-1254.76 964.22,-1194.93"/>
<polygon fill="black" stroke="black" points="964.75,-1191.46 954.23,-1192.7 963.23,-1198.29 964.75,-1191.46"/>
</g>
<!-- u21&#45;&gt;u14 -->
<g id="edge47" class="edge">
<title>u21&#45;&gt;u14</title>
<path fill="none" stroke="black" d="M2503.94,-1522C2503.94,-1373.92 2503.94,-304.25 2503.94,-119.23"/>
<polygon fill="black" stroke="black" points="2507.44,-119.02 2503.94,-109.02 2500.44,-119.02 2507.44,-119.02"/>
</g>
<!-- u21&#45;&gt;u26 -->
<g id="edge48" class="edge">
<title>u21&#45;&gt;u26</title>
<path fill="none" stroke="black" d="M2486.63,-1522.12C2427.09,-1464.03 2230.45,-1272.18 2160.18,-1203.63"/>
<polygon fill="black" stroke="black" points="2162.23,-1200.74 2152.63,-1196.26 2157.35,-1205.75 2162.23,-1200.74"/>
</g>
<!-- u20&#45;&gt;u6 -->
<g id="edge43" class="edge">
<title>u20&#45;&gt;u6</title>
<path fill="none" stroke="black" d="M2793.6,-1523.53C2465.66,-1464.09 1288.97,-1250.79 972.04,-1193.34"/>
<polygon fill="black" stroke="black" points="972.48,-1189.86 962.02,-1191.52 971.24,-1196.75 972.48,-1189.86"/>
</g>
<!-- u20&#45;&gt;u8 -->
<g id="edge44" class="edge">
<title>u20&#45;&gt;u8</title>
<path fill="none" stroke="black" d="M2878.94,-1521.96C2878.94,-1397.95 2878.94,-634.85 2878.94,-481.01"/>
<polygon fill="black" stroke="black" points="2882.44,-481.01 2878.94,-471.01 2875.44,-481.01 2882.44,-481.01"/>
</g>
<!-- u20&#45;&gt;u26 -->
<g id="edge45" class="edge">
<title>u20&#45;&gt;u26</title>
<path fill="none" stroke="black" d="M2844.05,-1522.12C2721.87,-1463 2313.39,-1265.35 2178.55,-1200.1"/>
<polygon fill="black" stroke="black" points="2179.85,-1196.84 2169.32,-1195.64 2176.8,-1203.14 2179.85,-1196.84"/>
</g>
<!-- u19&#45;&gt;u13 -->
<g id="edge41" class="edge">
<title>u19&#45;&gt;u13</title>
<path fill="none" stroke="black" d="M3578.17,-1521.64C3552.19,-1463.54 3468.17,-1275.67 3436.85,-1205.64"/>
<polygon fill="black" stroke="black" points="3439.9,-1203.89 3432.62,-1196.19 3433.51,-1206.75 3439.9,-1203.89"/>
</g>
<!-- u19&#45;&gt;u26 -->
<g id="edge42" class="edge">
<title>u19&#45;&gt;u26</title>
<path fill="none" stroke="black" d="M3524.05,-1523.65C3290.12,-1465.61 2460.29,-1259.72 2208.14,-1197.16"/>
<polygon fill="black" stroke="black" points="2208.89,-1193.74 2198.34,-1194.73 2207.21,-1200.54 2208.89,-1193.74"/>
</g>
<!-- u18&#45;&gt;u6 -->
<g id="edge38" class="edge">
<title>u18&#45;&gt;u6</title>
<path fill="none" stroke="black" d="M988.11,-1521.64C972.01,-1463.66 920,-1276.43 900.46,-1206.07"/>
<polygon fill="black" stroke="black" points="903.76,-1204.89 897.71,-1196.19 897.02,-1206.76 903.76,-1204.89"/>
</g>
<!-- u18&#45;&gt;u14 -->
<g id="edge39" class="edge">
<title>u18&#45;&gt;u14</title>
<path fill="none" stroke="black" d="M1010.69,-1522C1166.24,-1373.03 2295.69,-291.43 2478.87,-116.01"/>
<polygon fill="black" stroke="black" points="2481.37,-118.46 2486.17,-109.02 2476.53,-113.4 2481.37,-118.46"/>
</g>
<!-- u18&#45;&gt;u26 -->
<g id="edge40" class="edge">
<title>u18&#45;&gt;u26</title>
<path fill="none" stroke="black" d="M1044.6,-1522.71C1231.51,-1463.79 1872.1,-1261.86 2073.69,-1198.31"/>
<polygon fill="black" stroke="black" points="2075.03,-1201.55 2083.52,-1195.21 2072.93,-1194.88 2075.03,-1201.55"/>
</g>
<!-- u17&#45;&gt;u6 -->
<g id="edge36" class="edge">
<title>u17&#45;&gt;u6</title>
<path fill="none" stroke="black" d="M615.97,-1521.64C663.22,-1463.18 816.67,-1273.35 872.44,-1204.36"/>
<polygon fill="black" stroke="black" points="875.48,-1206.17 879.04,-1196.19 870.03,-1201.77 875.48,-1206.17"/>
</g>
<!-- u17&#45;&gt;u26 -->
<g id="edge37" class="edge">
<title>u17&#45;&gt;u26</title>
<path fill="none" stroke="black" d="M667.81,-1523.53C915.92,-1465.27 1793.43,-1259.2 2058.53,-1196.94"/>
<polygon fill="black" stroke="black" points="2059.52,-1200.31 2068.45,-1194.61 2057.92,-1193.49 2059.52,-1200.31"/>
</g>
</g>
</svg>
