<?xml version="1.0" encoding="UTF-8" standalone="no"?>
<!DOCTYPE svg PUBLIC "-//W3C//DTD SVG 1.1//EN"
 "http://www.w3.org/Graphics/SVG/1.1/DTD/svg11.dtd">
<!-- Generated by graphviz version 2.43.0 (0)
 -->
<!-- Title: G Pages: 1 -->
<svg width="431pt" height="288pt"
 viewBox="0.00 0.00 431.19 288.00" xmlns="http://www.w3.org/2000/svg" xmlns:xlink="http://www.w3.org/1999/xlink">
<g id="graph0" class="graph" transform="scale(4.63 4.63) rotate(0) translate(4 1328.67)">
<title>G</title>
<polygon fill="white" stroke="transparent" points="-4,4 -4,-1328.67 1991.27,-1328.67 1991.27,4 -4,4"/>
<!-- u10 -->
<g id="node1" class="node">
<title>u10</title>
<ellipse fill="#bbffbb" stroke="black" cx="1536.43" cy="-1086" rx="123.48" ry="18"/>
<text text-anchor="middle" x="1536.43" y="-1082.3" font-family="Times,serif" font-size="14.00">Language.Drasil.Format</text>
</g>
<!-- u3 -->
<g id="node2" class="node">
<title>u3</title>
<ellipse fill="#bbffbb" stroke="black" cx="1575.43" cy="-1298" rx="128.08" ry="18"/>
<text text-anchor="middle" x="1575.43" y="-1294.3" font-family="Times,serif" font-size="14.00">Language.Drasil.Printers</text>
</g>
<!-- u4 -->
<g id="node4" class="node">
<title>u4</title>
<ellipse fill="#ffffbb" stroke="black" cx="1851.43" cy="-1192" rx="135.68" ry="18"/>
<text text-anchor="middle" x="1851.43" y="-1188.3" font-family="Times,serif" font-size="14.00">Language.Drasil.DOT.Print</text>
</g>
<!-- u3&#45;&gt;u4 -->
<g id="edge5" class="edge">
<title>u3&#45;&gt;u4</title>
<path fill="none" stroke="black" d="M1617.95,-1280.98C1666.64,-1262.63 1746.42,-1232.57 1798.93,-1212.78"/>
<polygon fill="black" stroke="black" points="1800.28,-1216.01 1808.41,-1209.21 1797.82,-1209.46 1800.28,-1216.01"/>
</g>
<!-- u15 -->
<g id="node10" class="node">
<title>u15</title>
<ellipse fill="#ffbbbb" stroke="black" cx="1352.43" cy="-1192" rx="140.28" ry="18"/>
<text text-anchor="middle" x="1352.43" y="-1188.3" font-family="Times,serif" font-size="14.00">Language.Drasil.JSON.Print</text>
</g>
<!-- u3&#45;&gt;u15 -->
<g id="edge6" class="edge">
<title>u3&#45;&gt;u15</title>
<path fill="none" stroke="black" d="M1540.1,-1280.52C1501.39,-1262.47 1439.23,-1233.48 1397.15,-1213.86"/>
<polygon fill="black" stroke="black" points="1398.51,-1210.63 1387.97,-1209.57 1395.55,-1216.97 1398.51,-1210.63"/>
</g>
<!-- u2 -->
<g id="node11" class="node">
<title>u2</title>
<ellipse fill="#bbffff" stroke="black" cx="897.43" cy="-1192" rx="133.48" ry="18"/>
<text text-anchor="middle" x="897.43" y="-1188.3" font-family="Times,serif" font-size="14.00">Language.Drasil.Log.Print</text>
</g>
<!-- u3&#45;&gt;u2 -->
<g id="edge4" class="edge">
<title>u3&#45;&gt;u2</title>
<path fill="none" stroke="black" d="M1492.29,-1284.25C1365.64,-1264.82 1125.08,-1227.92 991.96,-1207.5"/>
<polygon fill="black" stroke="black" points="992.19,-1204 981.78,-1205.94 991.13,-1210.91 992.19,-1204"/>
</g>
<!-- u0 -->
<g id="node12" class="node">
<title>u0</title>
<ellipse fill="#ffbbff" stroke="black" cx="1687.43" cy="-874" rx="188.47" ry="18"/>
<text text-anchor="middle" x="1687.43" y="-870.3" font-family="Times,serif" font-size="14.00">Language.Drasil.Markdown.CreateMd</text>
</g>
<!-- u3&#45;&gt;u0 -->
<g id="edge3" class="edge">
<title>u3&#45;&gt;u0</title>
<path fill="none" stroke="black" d="M1586.29,-1280.02C1606.51,-1247.4 1649.62,-1173.08 1668.43,-1104 1687.76,-1033.03 1689.1,-945.5 1688.34,-902.08"/>
<polygon fill="black" stroke="black" points="1691.84,-901.95 1688.11,-892.03 1684.84,-902.11 1691.84,-901.95"/>
</g>
<!-- u1 -->
<g id="node3" class="node">
<title>u1</title>
<ellipse fill="#bbffbb" stroke="black" cx="983.43" cy="-662" rx="119.68" ry="18"/>
<text text-anchor="middle" x="983.43" y="-658.3" font-family="Times,serif" font-size="14.00">Language.Drasil.Config</text>
</g>
<!-- u14 -->
<g id="node5" class="node">
<title>u14</title>
<ellipse fill="#bbbbff" stroke="black" cx="640.43" cy="-980" rx="140.28" ry="18"/>
<text text-anchor="middle" x="640.43" y="-976.3" font-family="Times,serif" font-size="14.00">Language.Drasil.HTML.CSS</text>
</g>
<!-- u13 -->
<g id="node6" class="node">
<title>u13</title>
<ellipse fill="#bbbbff" stroke="black" cx="1241.43" cy="-980" rx="157.87" ry="18"/>
<text text-anchor="middle" x="1241.43" y="-976.3" font-family="Times,serif" font-size="14.00">Language.Drasil.HTML.Helpers</text>
</g>
<!-- u22 -->
<g id="node14" class="node">
<title>u22</title>
<ellipse fill="#ffff77" stroke="black" cx="1093.43" cy="-26" rx="149.47" ry="18"/>
<text text-anchor="middle" x="1093.43" y="-22.3" font-family="Times,serif" font-size="14.00">Language.Drasil.Printing.AST</text>
</g>
<!-- u13&#45;&gt;u22 -->
<g id="edge19" class="edge">
<title>u13&#45;&gt;u22</title>
<path fill="none" stroke="black" d="M1225.2,-962.06C1194.6,-928.27 1131.43,-848.84 1131.43,-769 1131.43,-769 1131.43,-769 1131.43,-237 1131.43,-170.34 1112.66,-93.65 1101.5,-53.95"/>
<polygon fill="black" stroke="black" points="1104.84,-52.88 1098.71,-44.23 1098.11,-54.81 1104.84,-52.88"/>
</g>
<!-- u12 -->
<g id="node7" class="node">
<title>u12</title>
<ellipse fill="#bbbbff" stroke="black" cx="328.43" cy="-980" rx="153.27" ry="18"/>
<text text-anchor="middle" x="328.43" y="-976.3" font-family="Times,serif" font-size="14.00">Language.Drasil.HTML.Monad</text>
</g>
<!-- u11 -->
<g id="node8" class="node">
<title>u11</title>
<ellipse fill="#bbbbff" stroke="black" cx="925.43" cy="-1086" rx="144.87" ry="18"/>
<text text-anchor="middle" x="925.43" y="-1082.3" font-family="Times,serif" font-size="14.00">Language.Drasil.HTML.Print</text>
</g>
<!-- u11&#45;&gt;u14 -->
<g id="edge18" class="edge">
<title>u11&#45;&gt;u14</title>
<path fill="none" stroke="black" d="M880.9,-1068.75C830.39,-1050.32 748.05,-1020.27 694.06,-1000.57"/>
<polygon fill="black" stroke="black" points="695.24,-997.28 684.65,-997.14 692.84,-1003.85 695.24,-997.28"/>
</g>
<!-- u11&#45;&gt;u13 -->
<g id="edge17" class="edge">
<title>u11&#45;&gt;u13</title>
<path fill="none" stroke="black" d="M974.11,-1068.98C1030.28,-1050.49 1122.6,-1020.11 1182.71,-1000.33"/>
<polygon fill="black" stroke="black" points="1184.03,-1003.58 1192.43,-997.13 1181.84,-996.93 1184.03,-1003.58"/>
</g>
<!-- u11&#45;&gt;u12 -->
<g id="edge16" class="edge">
<title>u11&#45;&gt;u12</title>
<path fill="none" stroke="black" d="M844.92,-1070.97C734.51,-1051.74 536.63,-1017.27 420.48,-997.04"/>
<polygon fill="black" stroke="black" points="420.99,-993.57 410.54,-995.3 419.79,-1000.47 420.99,-993.57"/>
</g>
<!-- u6 -->
<g id="node31" class="node">
<title>u6</title>
<ellipse fill="#ff7777" stroke="black" cx="932.43" cy="-980" rx="133.48" ry="18"/>
<text text-anchor="middle" x="932.43" y="-976.3" font-family="Times,serif" font-size="14.00">Language.Drasil.TeX.Print</text>
</g>
<!-- u11&#45;&gt;u6 -->
<g id="edge15" class="edge">
<title>u11&#45;&gt;u6</title>
<path fill="none" stroke="black" d="M926.59,-1067.83C927.68,-1051.64 929.33,-1027.13 930.6,-1008.27"/>
<polygon fill="black" stroke="black" points="934.09,-1008.41 931.27,-998.2 927.11,-1007.94 934.09,-1008.41"/>
</g>
<!-- u16 -->
<g id="node9" class="node">
<title>u16</title>
<ellipse fill="#ffbbbb" stroke="black" cx="1241.43" cy="-1086" rx="153.27" ry="18"/>
<text text-anchor="middle" x="1241.43" y="-1082.3" font-family="Times,serif" font-size="14.00">Language.Drasil.JSON.Helpers</text>
</g>
<!-- u16&#45;&gt;u13 -->
<g id="edge23" class="edge">
<title>u16&#45;&gt;u13</title>
<path fill="none" stroke="black" d="M1241.43,-1067.83C1241.43,-1051.64 1241.43,-1027.13 1241.43,-1008.27"/>
<polygon fill="black" stroke="black" points="1244.93,-1008.2 1241.43,-998.2 1237.93,-1008.2 1244.93,-1008.2"/>
</g>
<!-- u19 -->
<g id="node17" class="node">
<title>u19</title>
<ellipse fill="#ffff77" stroke="black" cx="1444.43" cy="-556" rx="167.07" ry="18"/>
<text text-anchor="middle" x="1444.43" y="-552.3" font-family="Times,serif" font-size="14.00">Language.Drasil.Printing.Helpers</text>
</g>
<!-- u16&#45;&gt;u19 -->
<g id="edge24" class="edge">
<title>u16&#45;&gt;u19</title>
<path fill="none" stroke="black" d="M1290.31,-1068.79C1326.57,-1054.75 1375.26,-1031.4 1408.43,-998 1451.71,-954.42 1471.43,-936.42 1471.43,-875 1471.43,-875 1471.43,-875 1471.43,-767 1471.43,-700.84 1458.08,-623.9 1450.16,-584.04"/>
<polygon fill="black" stroke="black" points="1453.55,-583.16 1448.13,-574.05 1446.69,-584.55 1453.55,-583.16"/>
</g>
<!-- u15&#45;&gt;u10 -->
<g id="edge20" class="edge">
<title>u15&#45;&gt;u10</title>
<path fill="none" stroke="black" d="M1381.99,-1174.29C1413.61,-1156.42 1463.84,-1128.03 1498.39,-1108.5"/>
<polygon fill="black" stroke="black" points="1500.26,-1111.46 1507.25,-1103.5 1496.82,-1105.37 1500.26,-1111.46"/>
</g>
<!-- u15&#45;&gt;u11 -->
<g id="edge21" class="edge">
<title>u15&#45;&gt;u11</title>
<path fill="none" stroke="black" d="M1289.88,-1175.77C1212.2,-1156.84 1079.92,-1124.63 997.89,-1104.65"/>
<polygon fill="black" stroke="black" points="998.69,-1101.24 988.14,-1102.27 997.03,-1108.04 998.69,-1101.24"/>
</g>
<!-- u15&#45;&gt;u16 -->
<g id="edge22" class="edge">
<title>u15&#45;&gt;u16</title>
<path fill="none" stroke="black" d="M1334.1,-1173.83C1315.86,-1156.74 1287.72,-1130.37 1267.23,-1111.17"/>
<polygon fill="black" stroke="black" points="1269.48,-1108.48 1259.79,-1104.2 1264.69,-1113.59 1269.48,-1108.48"/>
</g>
<!-- u9 -->
<g id="node13" class="node">
<title>u9</title>
<ellipse fill="#77ff77" stroke="black" cx="385.43" cy="-1086" rx="139.98" ry="18"/>
<text text-anchor="middle" x="385.43" y="-1082.3" font-family="Times,serif" font-size="14.00">Language.Drasil.Plain.Print</text>
</g>
<!-- u2&#45;&gt;u9 -->
<g id="edge2" class="edge">
<title>u2&#45;&gt;u9</title>
<path fill="none" stroke="black" d="M827.05,-1176.7C732.97,-1157.59 566.58,-1123.8 467.1,-1103.59"/>
<polygon fill="black" stroke="black" points="467.59,-1100.12 457.09,-1101.56 466.19,-1106.98 467.59,-1100.12"/>
</g>
<!-- u0&#45;&gt;u19 -->
<g id="edge1" class="edge">
<title>u0&#45;&gt;u19</title>
<path fill="none" stroke="black" d="M1674.37,-856.01C1634.07,-803.61 1511.55,-644.28 1463.79,-582.17"/>
<polygon fill="black" stroke="black" points="1466.43,-579.87 1457.56,-574.07 1460.88,-584.13 1466.43,-579.87"/>
</g>
<!-- u18 -->
<g id="node18" class="node">
<title>u18</title>
<ellipse fill="#ffff77" stroke="black" cx="460.43" cy="-874" rx="162.47" ry="18"/>
<text text-anchor="middle" x="460.43" y="-870.3" font-family="Times,serif" font-size="14.00">Language.Drasil.Printing.Import</text>
</g>
<!-- u9&#45;&gt;u18 -->
<g id="edge14" class="edge">
<title>u9&#45;&gt;u18</title>
<path fill="none" stroke="black" d="M305.41,-1071.2C226.48,-1053.97 123.44,-1019.56 166.43,-962 190.25,-930.11 286.55,-905.79 362.54,-891.08"/>
<polygon fill="black" stroke="black" points="363.47,-894.47 372.64,-889.16 362.16,-887.59 363.47,-894.47"/>
</g>
<!-- u21 -->
<g id="node15" class="node">
<title>u21</title>
<ellipse fill="#ffff77" stroke="black" cx="1327.43" cy="-450" rx="167.87" ry="18"/>
<text text-anchor="middle" x="1327.43" y="-446.3" font-family="Times,serif" font-size="14.00">Language.Drasil.Printing.Citation</text>
</g>
<!-- u21&#45;&gt;u22 -->
<g id="edge28" class="edge">
<title>u21&#45;&gt;u22</title>
<path fill="none" stroke="black" d="M1318.4,-431.78C1292.27,-382.11 1214.11,-234.46 1145.43,-114 1133.66,-93.36 1119.85,-70.3 1109.41,-53.1"/>
<polygon fill="black" stroke="black" points="1112.19,-50.93 1104,-44.21 1106.21,-54.57 1112.19,-50.93"/>
</g>
<!-- u20 -->
<g id="node16" class="node">
<title>u20</title>
<ellipse fill="#ffff77" stroke="black" cx="783.43" cy="-132" rx="223.66" ry="18"/>
<text text-anchor="middle" x="783.43" y="-128.3" font-family="Times,serif" font-size="14.00">Language.Drasil.Printing.PrintingInformation</text>
</g>
<!-- u19&#45;&gt;u21 -->
<g id="edge27" class="edge">
<title>u19&#45;&gt;u21</title>
<path fill="none" stroke="black" d="M1425.37,-538.06C1406,-520.83 1375.81,-494 1354.07,-474.68"/>
<polygon fill="black" stroke="black" points="1356.28,-471.96 1346.48,-467.93 1351.63,-477.19 1356.28,-471.96"/>
</g>
<!-- u23 -->
<g id="node28" class="node">
<title>u23</title>
<ellipse fill="#7777ff" stroke="black" cx="460.43" cy="-768" rx="212.56" ry="18"/>
<text text-anchor="middle" x="460.43" y="-764.3" font-family="Times,serif" font-size="14.00">Language.Drasil.Printing.Import.Document</text>
</g>
<!-- u18&#45;&gt;u23 -->
<g id="edge26" class="edge">
<title>u18&#45;&gt;u23</title>
<path fill="none" stroke="black" d="M460.43,-855.83C460.43,-839.64 460.43,-815.13 460.43,-796.27"/>
<polygon fill="black" stroke="black" points="463.93,-796.2 460.43,-786.2 456.93,-796.2 463.93,-796.2"/>
</g>
<!-- u17 -->
<g id="node19" class="node">
<title>u17</title>
<ellipse fill="#ffff77" stroke="black" cx="667.43" cy="-662" rx="178.97" ry="18"/>
<text text-anchor="middle" x="667.43" y="-658.3" font-family="Times,serif" font-size="14.00">Language.Drasil.Printing.LayoutObj</text>
</g>
<!-- u17&#45;&gt;u21 -->
<g id="edge25" class="edge">
<title>u17&#45;&gt;u21</title>
<path fill="none" stroke="black" d="M718.67,-644.7C838.66,-606.52 1137.45,-511.45 1266.49,-470.39"/>
<polygon fill="black" stroke="black" points="1267.76,-473.66 1276.22,-467.29 1265.63,-466.99 1267.76,-473.66"/>
</g>
<!-- u31 -->
<g id="node20" class="node">
<title>u31</title>
<ellipse fill="#7777ff" stroke="black" cx="220.43" cy="-662" rx="207.96" ry="18"/>
<text text-anchor="middle" x="220.43" y="-658.3" font-family="Times,serif" font-size="14.00">Language.Drasil.Printing.Import.Sentence</text>
</g>
<!-- u24 -->
<g id="node27" class="node">
<title>u24</title>
<ellipse fill="#7777ff" stroke="black" cx="216.43" cy="-556" rx="216.36" ry="18"/>
<text text-anchor="middle" x="216.43" y="-552.3" font-family="Times,serif" font-size="14.00">Language.Drasil.Printing.Import.ModelExpr</text>
</g>
<!-- u31&#45;&gt;u24 -->
<g id="edge42" class="edge">
<title>u31&#45;&gt;u24</title>
<path fill="none" stroke="black" d="M219.77,-643.83C219.15,-627.64 218.21,-603.13 217.48,-584.27"/>
<polygon fill="black" stroke="black" points="220.97,-584.06 217.09,-574.2 213.98,-584.33 220.97,-584.06"/>
</g>
<!-- u30 -->
<g id="node21" class="node">
<title>u30</title>
<ellipse fill="#7777ff" stroke="black" cx="316.43" cy="-344" rx="187.67" ry="18"/>
<text text-anchor="middle" x="316.43" y="-340.3" font-family="Times,serif" font-size="14.00">Language.Drasil.Printing.Import.Expr</text>
</g>
<!-- u29 -->
<g id="node22" class="node">
<title>u29</title>
<ellipse fill="#7777ff" stroke="black" cx="339.43" cy="-238" rx="196.07" ry="18"/>
<text text-anchor="middle" x="339.43" y="-234.3" font-family="Times,serif" font-size="14.00">Language.Drasil.Printing.Import.Literal</text>
</g>
<!-- u30&#45;&gt;u29 -->
<g id="edge41" class="edge">
<title>u30&#45;&gt;u29</title>
<path fill="none" stroke="black" d="M320.23,-325.83C323.82,-309.57 329.28,-284.9 333.46,-266.01"/>
<polygon fill="black" stroke="black" points="336.89,-266.72 335.63,-256.2 330.05,-265.21 336.89,-266.72"/>
</g>
<!-- u25 -->
<g id="node26" class="node">
<title>u25</title>
<ellipse fill="#7777ff" stroke="black" cx="753.43" cy="-238" rx="200.36" ry="18"/>
<text text-anchor="middle" x="753.43" y="-234.3" font-family="Times,serif" font-size="14.00">Language.Drasil.Printing.Import.Symbol</text>
</g>
<!-- u30&#45;&gt;u25 -->
<g id="edge40" class="edge">
<title>u30&#45;&gt;u25</title>
<path fill="none" stroke="black" d="M383.28,-327.09C462.2,-308.31 593.21,-277.13 676.34,-257.35"/>
<polygon fill="black" stroke="black" points="677.31,-260.71 686.23,-254.99 675.69,-253.9 677.31,-260.71"/>
</g>
<!-- u29&#45;&gt;u20 -->
<g id="edge38" class="edge">
<title>u29&#45;&gt;u20</title>
<path fill="none" stroke="black" d="M407.35,-221.09C487.38,-202.34 620.13,-171.25 704.62,-151.46"/>
<polygon fill="black" stroke="black" points="705.49,-154.85 714.42,-149.16 703.89,-148.04 705.49,-154.85"/>
</g>
<!-- u28 -->
<g id="node23" class="node">
<title>u28</title>
<ellipse fill="#7777ff" stroke="black" cx="339.43" cy="-132" rx="202.26" ry="18"/>
<text text-anchor="middle" x="339.43" y="-128.3" font-family="Times,serif" font-size="14.00">Language.Drasil.Printing.Import.Helpers</text>
</g>
<!-- u29&#45;&gt;u28 -->
<g id="edge39" class="edge">
<title>u29&#45;&gt;u28</title>
<path fill="none" stroke="black" d="M339.43,-219.83C339.43,-203.64 339.43,-179.13 339.43,-160.27"/>
<polygon fill="black" stroke="black" points="342.93,-160.2 339.43,-150.2 335.93,-160.2 342.93,-160.2"/>
</g>
<!-- u28&#45;&gt;u22 -->
<g id="edge37" class="edge">
<title>u28&#45;&gt;u22</title>
<path fill="none" stroke="black" d="M444.27,-116.54C588.21,-96.69 845.48,-61.2 989.13,-41.39"/>
<polygon fill="black" stroke="black" points="989.85,-44.82 999.28,-39.99 988.89,-37.89 989.85,-44.82"/>
</g>
<!-- u27 -->
<g id="node24" class="node">
<title>u27</title>
<ellipse fill="#7777ff" stroke="black" cx="227.43" cy="-450" rx="193.07" ry="18"/>
<text text-anchor="middle" x="227.43" y="-446.3" font-family="Times,serif" font-size="14.00">Language.Drasil.Printing.Import.Space</text>
</g>
<!-- u27&#45;&gt;u30 -->
<g id="edge36" class="edge">
<title>u27&#45;&gt;u30</title>
<path fill="none" stroke="black" d="M242.13,-431.83C256.56,-414.97 278.72,-389.06 295.09,-369.94"/>
<polygon fill="black" stroke="black" points="297.87,-372.07 301.71,-362.2 292.55,-367.52 297.87,-372.07"/>
</g>
<!-- u26 -->
<g id="node25" class="node">
<title>u26</title>
<ellipse fill="#7777ff" stroke="black" cx="733.43" cy="-344" rx="211.46" ry="18"/>
<text text-anchor="middle" x="733.43" y="-340.3" font-family="Times,serif" font-size="14.00">Language.Drasil.Printing.Import.CodeExpr</text>
</g>
<!-- u26&#45;&gt;u29 -->
<g id="edge35" class="edge">
<title>u26&#45;&gt;u29</title>
<path fill="none" stroke="black" d="M671.87,-326.75C601.03,-308.05 484.91,-277.4 410.34,-257.72"/>
<polygon fill="black" stroke="black" points="411.12,-254.3 400.56,-255.14 409.34,-261.07 411.12,-254.3"/>
</g>
<!-- u26&#45;&gt;u25 -->
<g id="edge34" class="edge">
<title>u26&#45;&gt;u25</title>
<path fill="none" stroke="black" d="M736.73,-325.83C739.85,-309.64 744.56,-285.13 748.19,-266.27"/>
<polygon fill="black" stroke="black" points="751.67,-266.68 750.12,-256.2 744.8,-265.36 751.67,-266.68"/>
</g>
<!-- u25&#45;&gt;u22 -->
<g id="edge33" class="edge">
<title>u25&#45;&gt;u22</title>
<path fill="none" stroke="black" d="M848.3,-222.08C902,-209.84 967.91,-188.08 1016.43,-150 1048.73,-124.65 1071.11,-81.72 1083.11,-53.87"/>
<polygon fill="black" stroke="black" points="1086.46,-54.93 1087.07,-44.36 1080,-52.25 1086.46,-54.93"/>
</g>
<!-- u24&#45;&gt;u27 -->
<g id="edge32" class="edge">
<title>u24&#45;&gt;u27</title>
<path fill="none" stroke="black" d="M218.25,-537.83C219.96,-521.64 222.55,-497.13 224.55,-478.27"/>
<polygon fill="black" stroke="black" points="228.04,-478.51 225.61,-468.2 221.08,-477.78 228.04,-478.51"/>
</g>
<!-- u23&#45;&gt;u17 -->
<g id="edge29" class="edge">
<title>u23&#45;&gt;u17</title>
<path fill="none" stroke="black" d="M494.15,-750.06C529.89,-732.1 586.42,-703.7 625.12,-684.26"/>
<polygon fill="black" stroke="black" points="626.71,-687.38 634.07,-679.76 623.56,-681.12 626.71,-687.38"/>
</g>
<!-- u23&#45;&gt;u31 -->
<g id="edge31" class="edge">
<title>u23&#45;&gt;u31</title>
<path fill="none" stroke="black" d="M421.87,-750.29C380.18,-732.23 313.66,-703.4 268.57,-683.86"/>
<polygon fill="black" stroke="black" points="269.86,-680.61 259.29,-679.84 267.08,-687.03 269.86,-680.61"/>
</g>
<!-- u23&#45;&gt;u26 -->
<g id="edge30" class="edge">
<title>u23&#45;&gt;u26</title>
<path fill="none" stroke="black" d="M460.19,-749.86C460.47,-725.3 463.35,-679.18 479.43,-644 534.1,-524.39 650.8,-415.11 704.86,-368.63"/>
<polygon fill="black" stroke="black" points="707.33,-371.12 712.67,-361.97 702.79,-365.79 707.33,-371.12"/>
</g>
<!-- u8 -->
<g id="node29" class="node">
<title>u8</title>
<ellipse fill="#ff7777" stroke="black" cx="957.43" cy="-768" rx="146.47" ry="18"/>
<text text-anchor="middle" x="957.43" y="-764.3" font-family="Times,serif" font-size="14.00">Language.Drasil.TeX.Helpers</text>
</g>
<!-- u8&#45;&gt;u1 -->
<g id="edge12" class="edge">
<title>u8&#45;&gt;u1</title>
<path fill="none" stroke="black" d="M961.72,-749.83C965.79,-733.57 971.96,-708.9 976.68,-690.01"/>
<polygon fill="black" stroke="black" points="980.1,-690.75 979.13,-680.2 973.31,-689.05 980.1,-690.75"/>
</g>
<!-- u7 -->
<g id="node30" class="node">
<title>u7</title>
<ellipse fill="#ff7777" stroke="black" cx="1301.43" cy="-662" rx="141.88" ry="18"/>
<text text-anchor="middle" x="1301.43" y="-658.3" font-family="Times,serif" font-size="14.00">Language.Drasil.TeX.Monad</text>
</g>
<!-- u8&#45;&gt;u7 -->
<g id="edge13" class="edge">
<title>u8&#45;&gt;u7</title>
<path fill="none" stroke="black" d="M1010.05,-751.09C1071.72,-732.45 1173.8,-701.58 1239.31,-681.78"/>
<polygon fill="black" stroke="black" points="1240.54,-685.07 1249.1,-678.82 1238.51,-678.37 1240.54,-685.07"/>
</g>
<!-- u7&#45;&gt;u19 -->
<g id="edge11" class="edge">
<title>u7&#45;&gt;u19</title>
<path fill="none" stroke="black" d="M1324.72,-644.06C1348.72,-626.61 1386.27,-599.3 1412.91,-579.92"/>
<polygon fill="black" stroke="black" points="1415.12,-582.65 1421.15,-573.93 1411,-576.98 1415.12,-582.65"/>
</g>
<!-- u6&#45;&gt;u18 -->
<g id="edge10" class="edge">
<title>u6&#45;&gt;u18</title>
<path fill="none" stroke="black" d="M865.81,-964.32C780.08,-945.43 631.33,-912.66 539.83,-892.49"/>
<polygon fill="black" stroke="black" points="540.31,-889.02 529.79,-890.28 538.8,-895.85 540.31,-889.02"/>
</g>
<!-- u5 -->
<g id="node32" class="node">
<title>u5</title>
<ellipse fill="#ff7777" stroke="black" cx="932.43" cy="-874" rx="154.07" ry="18"/>
<text text-anchor="middle" x="932.43" y="-870.3" font-family="Times,serif" font-size="14.00">Language.Drasil.TeX.Preamble</text>
</g>
<!-- u6&#45;&gt;u5 -->
<g id="edge9" class="edge">
<title>u6&#45;&gt;u5</title>
<path fill="none" stroke="black" d="M932.43,-961.83C932.43,-945.64 932.43,-921.13 932.43,-902.27"/>
<polygon fill="black" stroke="black" points="935.93,-902.2 932.43,-892.2 928.93,-902.2 935.93,-902.2"/>
</g>
<!-- u5&#45;&gt;u17 -->
<g id="edge8" class="edge">
<title>u5&#45;&gt;u17</title>
<path fill="none" stroke="black" d="M904.72,-856.14C877.82,-839.39 836.21,-812.46 802.43,-786 761.76,-754.15 718.18,-713.02 691.86,-687.33"/>
<polygon fill="black" stroke="black" points="694.18,-684.7 684.6,-680.19 689.28,-689.69 694.18,-684.7"/>
</g>
<!-- u5&#45;&gt;u8 -->
<g id="edge7" class="edge">
<title>u5&#45;&gt;u8</title>
<path fill="none" stroke="black" d="M936.56,-855.83C940.47,-839.57 946.4,-814.9 950.94,-796.01"/>
<polygon fill="black" stroke="black" points="954.36,-796.74 953.3,-786.2 947.56,-795.1 954.36,-796.74"/>
</g>
</g>
</svg>
