<?xml version="1.0" encoding="UTF-8" standalone="no"?>
<!DOCTYPE svg PUBLIC "-//W3C//DTD SVG 1.1//EN"
 "http://www.w3.org/Graphics/SVG/1.1/DTD/svg11.dtd">
<!-- Generated by graphviz version 2.43.0 (0)
 -->
<!-- Title: G Pages: 1 -->
<svg width="431pt" height="288pt"
 viewBox="0.00 0.00 431.29 288.00" xmlns="http://www.w3.org/2000/svg" xmlns:xlink="http://www.w3.org/1999/xlink">
<g id="graph0" class="graph" transform="scale(4.31 4.31) rotate(0) translate(4 1238)">
<title>G</title>
<polygon fill="white" stroke="transparent" points="-4,4 -4,-1238 1855.92,-1238 1855.92,4 -4,4"/>
<!-- u24 -->
<g id="node1" class="node">
<title>u24</title>
<ellipse fill="#bbffbb" stroke="black" cx="632.69" cy="-32" rx="96.68" ry="18"/>
<text text-anchor="middle" x="632.69" y="-28.3" font-family="Times,serif" font-size="14.00">Data.Drasil.People</text>
</g>
<!-- u14 -->
<g id="node2" class="node">
<title>u14</title>
<ellipse fill="#bbffbb" stroke="black" cx="495.69" cy="-1202" rx="120.48" ry="18"/>
<text text-anchor="middle" x="495.69" y="-1198.3" font-family="Times,serif" font-size="14.00">Data.Drasil.Constraints</text>
</g>
<!-- u3 -->
<g id="node3" class="node">
<title>u3</title>
<ellipse fill="#bbffbb" stroke="black" cx="632.69" cy="-162" rx="108.58" ry="18"/>
<text text-anchor="middle" x="632.69" y="-158.3" font-family="Times,serif" font-size="14.00">Data.Drasil.Citations</text>
</g>
<!-- u3&#45;&gt;u24 -->
<g id="edge4" class="edge">
<title>u3&#45;&gt;u24</title>
<path fill="none" stroke="black" d="M632.69,-143.74C632.69,-122.36 632.69,-85.69 632.69,-60.44"/>
<polygon fill="black" stroke="black" points="636.19,-60.4 632.69,-50.4 629.19,-60.4 636.19,-60.4"/>
</g>
<!-- u1 -->
<g id="node4" class="node">
<title>u1</title>
<ellipse fill="#bbffbb" stroke="black" cx="513.69" cy="-422" rx="105.88" ry="18"/>
<text text-anchor="middle" x="513.69" y="-418.3" font-family="Times,serif" font-size="14.00">Data.Drasil.SI_Units</text>
</g>
<!-- u23 -->
<g id="node5" class="node">
<title>u23</title>
<ellipse fill="#ffffbb" stroke="black" cx="1679.69" cy="-552" rx="172.47" ry="18"/>
<text text-anchor="middle" x="1679.69" y="-548.3" font-family="Times,serif" font-size="14.00">Data.Drasil.Concepts.Computation</text>
</g>
<!-- u16 -->
<g id="node12" class="node">
<title>u16</title>
<ellipse fill="#ffffbb" stroke="black" cx="1219.69" cy="-422" rx="182.77" ry="18"/>
<text text-anchor="middle" x="1219.69" y="-418.3" font-family="Times,serif" font-size="14.00">Data.Drasil.Concepts.Documentation</text>
</g>
<!-- u23&#45;&gt;u16 -->
<g id="edge29" class="edge">
<title>u23&#45;&gt;u16</title>
<path fill="none" stroke="black" d="M1621.89,-534.92C1536.77,-511.23 1378,-467.05 1287.49,-441.87"/>
<polygon fill="black" stroke="black" points="1288.18,-438.43 1277.61,-439.12 1286.3,-445.17 1288.18,-438.43"/>
</g>
<!-- u22 -->
<g id="node6" class="node">
<title>u22</title>
<ellipse fill="#ffffbb" stroke="black" cx="1679.69" cy="-682" rx="154.07" ry="18"/>
<text text-anchor="middle" x="1679.69" y="-678.3" font-family="Times,serif" font-size="14.00">Data.Drasil.Concepts.Software</text>
</g>
<!-- u22&#45;&gt;u23 -->
<g id="edge28" class="edge">
<title>u22&#45;&gt;u23</title>
<path fill="none" stroke="black" d="M1679.69,-663.74C1679.69,-642.36 1679.69,-605.69 1679.69,-580.44"/>
<polygon fill="black" stroke="black" points="1683.19,-580.4 1679.69,-570.4 1676.19,-580.4 1683.19,-580.4"/>
</g>
<!-- u21 -->
<g id="node7" class="node">
<title>u21</title>
<ellipse fill="#ffffbb" stroke="black" cx="910.69" cy="-812" rx="147.57" ry="18"/>
<text text-anchor="middle" x="910.69" y="-808.3" font-family="Times,serif" font-size="14.00">Data.Drasil.Concepts.Physics</text>
</g>
<!-- u20 -->
<g id="node8" class="node">
<title>u20</title>
<ellipse fill="#ffffbb" stroke="black" cx="1292.69" cy="-682" rx="159.47" ry="18"/>
<text text-anchor="middle" x="1292.69" y="-678.3" font-family="Times,serif" font-size="14.00">Data.Drasil.Concepts.Education</text>
</g>
<!-- u21&#45;&gt;u20 -->
<g id="edge27" class="edge">
<title>u21&#45;&gt;u20</title>
<path fill="none" stroke="black" d="M958.68,-794.92C1028.77,-771.43 1158.99,-727.8 1234.46,-702.51"/>
<polygon fill="black" stroke="black" points="1235.92,-705.71 1244.29,-699.22 1233.69,-699.08 1235.92,-705.71"/>
</g>
<!-- u12 -->
<g id="node16" class="node">
<title>u12</title>
<ellipse fill="#ffbbbb" stroke="black" cx="910.69" cy="-682" rx="204.96" ry="18"/>
<text text-anchor="middle" x="910.69" y="-678.3" font-family="Times,serif" font-size="14.00">Data.Drasil.Quantities.PhysicalProperties</text>
</g>
<!-- u21&#45;&gt;u12 -->
<g id="edge26" class="edge">
<title>u21&#45;&gt;u12</title>
<path fill="none" stroke="black" d="M910.69,-793.74C910.69,-772.36 910.69,-735.69 910.69,-710.44"/>
<polygon fill="black" stroke="black" points="914.19,-710.4 910.69,-700.4 907.19,-710.4 914.19,-710.4"/>
</g>
<!-- u19 -->
<g id="node9" class="node">
<title>u19</title>
<ellipse fill="#ffffbb" stroke="black" cx="1219.69" cy="-552" rx="199.56" ry="18"/>
<text text-anchor="middle" x="1219.69" y="-548.3" font-family="Times,serif" font-size="14.00">Data.Drasil.Concepts.PhysicalProperties</text>
</g>
<!-- u20&#45;&gt;u19 -->
<g id="edge25" class="edge">
<title>u20&#45;&gt;u19</title>
<path fill="none" stroke="black" d="M1282.99,-664C1270.56,-642.2 1248.87,-604.17 1234.4,-578.79"/>
<polygon fill="black" stroke="black" points="1237.42,-577.02 1229.42,-570.07 1231.34,-580.49 1237.42,-577.02"/>
</g>
<!-- u19&#45;&gt;u16 -->
<g id="edge24" class="edge">
<title>u19&#45;&gt;u16</title>
<path fill="none" stroke="black" d="M1219.69,-533.74C1219.69,-512.36 1219.69,-475.69 1219.69,-450.44"/>
<polygon fill="black" stroke="black" points="1223.19,-450.4 1219.69,-440.4 1216.19,-450.4 1223.19,-450.4"/>
</g>
<!-- u18 -->
<g id="node10" class="node">
<title>u18</title>
<ellipse fill="#ffffbb" stroke="black" cx="1127.69" cy="-942" rx="184.67" ry="18"/>
<text text-anchor="middle" x="1127.69" y="-938.3" font-family="Times,serif" font-size="14.00">Data.Drasil.Concepts.SolidMechanics</text>
</g>
<!-- u18&#45;&gt;u21 -->
<g id="edge23" class="edge">
<title>u18&#45;&gt;u21</title>
<path fill="none" stroke="black" d="M1098.87,-924C1060.02,-901.08 990.77,-860.24 947.99,-835"/>
<polygon fill="black" stroke="black" points="949.67,-831.93 939.28,-829.86 946.11,-837.96 949.67,-831.93"/>
</g>
<!-- u17 -->
<g id="node11" class="node">
<title>u17</title>
<ellipse fill="#ffffbb" stroke="black" cx="632.69" cy="-292" rx="136.48" ry="18"/>
<text text-anchor="middle" x="632.69" y="-288.3" font-family="Times,serif" font-size="14.00">Data.Drasil.Concepts.Math</text>
</g>
<!-- u17&#45;&gt;u3 -->
<g id="edge22" class="edge">
<title>u17&#45;&gt;u3</title>
<path fill="none" stroke="black" d="M632.69,-273.74C632.69,-252.36 632.69,-215.69 632.69,-190.44"/>
<polygon fill="black" stroke="black" points="636.19,-190.4 632.69,-180.4 629.19,-190.4 636.19,-190.4"/>
</g>
<!-- u16&#45;&gt;u17 -->
<g id="edge21" class="edge">
<title>u16&#45;&gt;u17</title>
<path fill="none" stroke="black" d="M1148,-405.37C1037.12,-381.19 824.88,-334.91 710.42,-309.95"/>
<polygon fill="black" stroke="black" points="710.85,-306.46 700.33,-307.75 709.36,-313.3 710.85,-306.46"/>
</g>
<!-- u15 -->
<g id="node13" class="node">
<title>u15</title>
<ellipse fill="#ffffbb" stroke="black" cx="733.69" cy="-942" rx="191.97" ry="18"/>
<text text-anchor="middle" x="733.69" y="-938.3" font-family="Times,serif" font-size="14.00">Data.Drasil.Concepts.Thermodynamics</text>
</g>
<!-- u15&#45;&gt;u21 -->
<g id="edge20" class="edge">
<title>u15&#45;&gt;u21</title>
<path fill="none" stroke="black" d="M757.19,-924C788.49,-901.37 843.95,-861.26 878.94,-835.96"/>
<polygon fill="black" stroke="black" points="881.32,-838.56 887.37,-829.86 877.21,-832.89 881.32,-838.56"/>
</g>
<!-- u2 -->
<g id="node14" class="node">
<title>u2</title>
<ellipse fill="#bbbbff" stroke="black" cx="212.69" cy="-1072" rx="193.07" ry="18"/>
<text text-anchor="middle" x="212.69" y="-1068.3" font-family="Times,serif" font-size="14.00">Data.Drasil.Equations.Defining.Physics</text>
</g>
<!-- u13 -->
<g id="node15" class="node">
<title>u13</title>
<ellipse fill="#ffbbbb" stroke="black" cx="322.69" cy="-942" rx="152.97" ry="18"/>
<text text-anchor="middle" x="322.69" y="-938.3" font-family="Times,serif" font-size="14.00">Data.Drasil.Quantities.Physics</text>
</g>
<!-- u2&#45;&gt;u13 -->
<g id="edge3" class="edge">
<title>u2&#45;&gt;u13</title>
<path fill="none" stroke="black" d="M227.29,-1054C246.28,-1031.91 279.57,-993.17 301.38,-967.8"/>
<polygon fill="black" stroke="black" points="304.16,-969.93 308.02,-960.07 298.85,-965.37 304.16,-969.93"/>
</g>
<!-- u10 -->
<g id="node18" class="node">
<title>u10</title>
<ellipse fill="#ffbbbb" stroke="black" cx="141.69" cy="-552" rx="141.88" ry="18"/>
<text text-anchor="middle" x="141.69" y="-548.3" font-family="Times,serif" font-size="14.00">Data.Drasil.Quantities.Math</text>
</g>
<!-- u2&#45;&gt;u10 -->
<g id="edge2" class="edge">
<title>u2&#45;&gt;u10</title>
<path fill="none" stroke="black" d="M201.96,-1053.73C189.45,-1032.54 169.37,-995.12 160.69,-960 126.19,-820.47 134.49,-646.04 139.38,-580"/>
<polygon fill="black" stroke="black" points="142.87,-580.25 140.15,-570.01 135.89,-579.71 142.87,-580.25"/>
</g>
<!-- u13&#45;&gt;u21 -->
<g id="edge19" class="edge">
<title>u13&#45;&gt;u21</title>
<path fill="none" stroke="black" d="M391.87,-925.94C501.9,-901.99 716.13,-855.35 831.9,-830.15"/>
<polygon fill="black" stroke="black" points="832.74,-833.55 841.77,-828 831.26,-826.71 832.74,-833.55"/>
</g>
<!-- u8 -->
<g id="node22" class="node">
<title>u8</title>
<ellipse fill="#77ff77" stroke="black" cx="317.69" cy="-812" rx="129.98" ry="18"/>
<text text-anchor="middle" x="317.69" y="-808.3" font-family="Times,serif" font-size="14.00">Data.Drasil.Units.Physics</text>
</g>
<!-- u13&#45;&gt;u8 -->
<g id="edge18" class="edge">
<title>u13&#45;&gt;u8</title>
<path fill="none" stroke="black" d="M322.01,-923.74C321.18,-902.36 319.75,-865.69 318.76,-840.44"/>
<polygon fill="black" stroke="black" points="322.25,-840.25 318.37,-830.4 315.26,-840.53 322.25,-840.25"/>
</g>
<!-- u12&#45;&gt;u19 -->
<g id="edge17" class="edge">
<title>u12&#45;&gt;u19</title>
<path fill="none" stroke="black" d="M951.08,-664.27C1007.3,-640.98 1109.04,-598.83 1169.88,-573.63"/>
<polygon fill="black" stroke="black" points="1171.38,-576.8 1179.28,-569.74 1168.7,-570.33 1171.38,-576.8"/>
</g>
<!-- u7 -->
<g id="node23" class="node">
<title>u7</title>
<ellipse fill="#77ff77" stroke="black" cx="787.69" cy="-552" rx="181.97" ry="18"/>
<text text-anchor="middle" x="787.69" y="-548.3" font-family="Times,serif" font-size="14.00">Data.Drasil.Units.PhysicalProperties</text>
</g>
<!-- u12&#45;&gt;u7 -->
<g id="edge16" class="edge">
<title>u12&#45;&gt;u7</title>
<path fill="none" stroke="black" d="M894.35,-664C873.03,-641.82 835.57,-602.83 811.2,-577.47"/>
<polygon fill="black" stroke="black" points="813.54,-574.85 804.09,-570.07 808.49,-579.7 813.54,-574.85"/>
</g>
<!-- u11 -->
<g id="node17" class="node">
<title>u11</title>
<ellipse fill="#ffbbbb" stroke="black" cx="1154.69" cy="-1072" rx="190.37" ry="18"/>
<text text-anchor="middle" x="1154.69" y="-1068.3" font-family="Times,serif" font-size="14.00">Data.Drasil.Quantities.SolidMechanics</text>
</g>
<!-- u11&#45;&gt;u18 -->
<g id="edge15" class="edge">
<title>u11&#45;&gt;u18</title>
<path fill="none" stroke="black" d="M1151.1,-1054C1146.58,-1032.58 1138.76,-995.5 1133.41,-970.14"/>
<polygon fill="black" stroke="black" points="1136.78,-969.13 1131.29,-960.07 1129.93,-970.57 1136.78,-969.13"/>
</g>
<!-- u6 -->
<g id="node24" class="node">
<title>u6</title>
<ellipse fill="#77ff77" stroke="black" cx="1340.69" cy="-812" rx="167.07" ry="18"/>
<text text-anchor="middle" x="1340.69" y="-808.3" font-family="Times,serif" font-size="14.00">Data.Drasil.Units.SolidMechanics</text>
</g>
<!-- u11&#45;&gt;u6 -->
<g id="edge14" class="edge">
<title>u11&#45;&gt;u6</title>
<path fill="none" stroke="black" d="M1198.47,-1054.37C1237.62,-1037.05 1293.1,-1005.97 1321.69,-960 1344.42,-923.45 1345.56,-871.9 1343.61,-840.56"/>
<polygon fill="black" stroke="black" points="1347.09,-840.08 1342.83,-830.37 1340.11,-840.61 1347.09,-840.08"/>
</g>
<!-- u10&#45;&gt;u1 -->
<g id="edge12" class="edge">
<title>u10&#45;&gt;u1</title>
<path fill="none" stroke="black" d="M188.42,-534.92C257.43,-511.17 386.27,-466.84 459.38,-441.69"/>
<polygon fill="black" stroke="black" points="460.56,-444.98 468.88,-438.42 458.29,-438.36 460.56,-444.98"/>
</g>
<!-- u10&#45;&gt;u17 -->
<g id="edge13" class="edge">
<title>u10&#45;&gt;u17</title>
<path fill="none" stroke="black" d="M169.44,-534.19C216.15,-506.11 313.71,-448.37 398.69,-404 462.96,-370.44 539.1,-335.12 586.66,-313.57"/>
<polygon fill="black" stroke="black" points="588.11,-316.76 595.78,-309.45 585.23,-310.38 588.11,-316.76"/>
</g>
<!-- u9 -->
<g id="node19" class="node">
<title>u9</title>
<ellipse fill="#ffbbbb" stroke="black" cx="706.69" cy="-1072" rx="196.87" ry="18"/>
<text text-anchor="middle" x="706.69" y="-1068.3" font-family="Times,serif" font-size="14.00">Data.Drasil.Quantities.Thermodynamics</text>
</g>
<!-- u9&#45;&gt;u15 -->
<g id="edge11" class="edge">
<title>u9&#45;&gt;u15</title>
<path fill="none" stroke="black" d="M710.27,-1054C714.79,-1032.58 722.61,-995.5 727.96,-970.14"/>
<polygon fill="black" stroke="black" points="731.45,-970.57 730.09,-960.07 724.6,-969.13 731.45,-970.57"/>
</g>
<!-- u5 -->
<g id="node25" class="node">
<title>u5</title>
<ellipse fill="#77ff77" stroke="black" cx="513.69" cy="-682" rx="174.37" ry="18"/>
<text text-anchor="middle" x="513.69" y="-678.3" font-family="Times,serif" font-size="14.00">Data.Drasil.Units.Thermodynamics</text>
</g>
<!-- u9&#45;&gt;u5 -->
<g id="edge10" class="edge">
<title>u9&#45;&gt;u5</title>
<path fill="none" stroke="black" d="M658.44,-1054.45C617.36,-1037.58 560.67,-1007.14 532.69,-960 485.04,-879.73 498.61,-762.39 508.04,-710"/>
<polygon fill="black" stroke="black" points="511.49,-710.61 509.91,-700.13 504.61,-709.3 511.49,-710.61"/>
</g>
<!-- u4 -->
<g id="node20" class="node">
<title>u4</title>
<ellipse fill="#bbffff" stroke="black" cx="1679.69" cy="-812" rx="152.97" ry="18"/>
<text text-anchor="middle" x="1679.69" y="-808.3" font-family="Times,serif" font-size="14.00">Data.Drasil.Software.Products</text>
</g>
<!-- u4&#45;&gt;u22 -->
<g id="edge5" class="edge">
<title>u4&#45;&gt;u22</title>
<path fill="none" stroke="black" d="M1679.69,-793.74C1679.69,-772.36 1679.69,-735.69 1679.69,-710.44"/>
<polygon fill="black" stroke="black" points="1683.19,-710.4 1679.69,-700.4 1676.19,-710.4 1683.19,-710.4"/>
</g>
<!-- u0 -->
<g id="node21" class="node">
<title>u0</title>
<ellipse fill="#ffbbff" stroke="black" cx="212.69" cy="-1202" rx="144.07" ry="18"/>
<text text-anchor="middle" x="212.69" y="-1198.3" font-family="Times,serif" font-size="14.00">Data.Drasil.Theories.Physics</text>
</g>
<!-- u0&#45;&gt;u2 -->
<g id="edge1" class="edge">
<title>u0&#45;&gt;u2</title>
<path fill="none" stroke="black" d="M212.69,-1183.74C212.69,-1162.36 212.69,-1125.69 212.69,-1100.44"/>
<polygon fill="black" stroke="black" points="216.19,-1100.4 212.69,-1090.4 209.19,-1100.4 216.19,-1100.4"/>
</g>
<!-- u8&#45;&gt;u1 -->
<g id="edge9" class="edge">
<title>u8&#45;&gt;u1</title>
<path fill="none" stroke="black" d="M316.19,-793.55C314.42,-765.29 313.6,-708.21 330.69,-664 365.9,-572.89 446.5,-487 487.98,-446.81"/>
<polygon fill="black" stroke="black" points="490.45,-449.29 495.25,-439.84 485.6,-444.23 490.45,-449.29"/>
</g>
<!-- u7&#45;&gt;u1 -->
<g id="edge8" class="edge">
<title>u7&#45;&gt;u1</title>
<path fill="none" stroke="black" d="M751.87,-534.27C701.92,-510.93 611.43,-468.66 557.52,-443.48"/>
<polygon fill="black" stroke="black" points="558.76,-440.19 548.22,-439.13 555.8,-446.54 558.76,-440.19"/>
</g>
<!-- u6&#45;&gt;u1 -->
<g id="edge7" class="edge">
<title>u6&#45;&gt;u1</title>
<path fill="none" stroke="black" d="M1369.89,-794.13C1399.11,-775.39 1442.27,-742.12 1460.69,-700 1482.05,-651.14 1461.65,-563.2 1428.69,-534 1369.24,-481.32 851.61,-443.59 622.27,-429.3"/>
<polygon fill="black" stroke="black" points="622.43,-425.81 612.24,-428.68 622,-432.79 622.43,-425.81"/>
</g>
<!-- u5&#45;&gt;u1 -->
<g id="edge6" class="edge">
<title>u5&#45;&gt;u1</title>
<path fill="none" stroke="black" d="M513.69,-663.67C513.69,-619.7 513.69,-503.52 513.69,-450.31"/>
<polygon fill="black" stroke="black" points="517.19,-450.25 513.69,-440.25 510.19,-450.25 517.19,-450.25"/>
</g>
</g>
</svg>
