<?xml version="1.0" encoding="UTF-8" standalone="no"?>
<!DOCTYPE svg PUBLIC "-//W3C//DTD SVG 1.1//EN"
 "http://www.w3.org/Graphics/SVG/1.1/DTD/svg11.dtd">
<!-- Generated by graphviz version 2.43.0 (0)
 -->
<!-- Title: G Pages: 1 -->
<svg width="432pt" height="288pt"
 viewBox="0.00 0.00 431.67 288.00" xmlns="http://www.w3.org/2000/svg" xmlns:xlink="http://www.w3.org/1999/xlink">
<g id="graph0" class="graph" transform="scale(10.27 10.27) rotate(0) translate(4 2954.67)">
<title>G</title>
<polygon fill="white" stroke="transparent" points="-4,4 -4,-2954.67 4430.58,-2954.67 4430.58,4 -4,4"/>
<!-- u18 -->
<g id="node1" class="node">
<title>u18</title>
<ellipse fill="#bbffbb" stroke="black" cx="313.29" cy="-1822" rx="79.09" ry="18"/>
<text text-anchor="middle" x="313.29" y="-1818.3" font-family="Times,serif" font-size="14.00">Drasil.DocDecl</text>
</g>
<!-- u3 -->
<g id="node14" class="node">
<title>u3</title>
<ellipse fill="#bbbbff" stroke="black" cx="1059.29" cy="-1128" rx="159.47" ry="18"/>
<text text-anchor="middle" x="1059.29" y="-1124.3" font-family="Times,serif" font-size="14.00">Drasil.DocumentLanguage.Core</text>
</g>
<!-- u18&#45;&gt;u3 -->
<g id="edge35" class="edge">
<title>u18&#45;&gt;u3</title>
<path fill="none" stroke="black" d="M293.12,-1804.37C230.67,-1750.87 49.77,-1579.57 136.29,-1457 308.74,-1212.71 679.73,-1149.26 895.18,-1133.48"/>
<polygon fill="black" stroke="black" points="895.59,-1136.96 905.32,-1132.77 895.09,-1129.98 895.59,-1136.96"/>
</g>
<!-- u21 -->
<g id="node29" class="node">
<title>u21</title>
<ellipse fill="#ffbbff" stroke="black" cx="313.29" cy="-1475" rx="149.47" ry="18"/>
<text text-anchor="middle" x="313.29" y="-1471.3" font-family="Times,serif" font-size="14.00">Drasil.Sections.Requirements</text>
</g>
<!-- u18&#45;&gt;u21 -->
<g id="edge36" class="edge">
<title>u18&#45;&gt;u21</title>
<path fill="none" stroke="black" d="M313.29,-1803.89C313.29,-1748.25 313.29,-1572.09 313.29,-1503.61"/>
<polygon fill="black" stroke="black" points="316.79,-1503.21 313.29,-1493.21 309.79,-1503.21 316.79,-1503.21"/>
</g>
<!-- u17 -->
<g id="node2" class="node">
<title>u17</title>
<ellipse fill="#bbffbb" stroke="black" cx="2390.29" cy="-2170" rx="133.78" ry="18"/>
<text text-anchor="middle" x="2390.29" y="-2166.3" font-family="Times,serif" font-size="14.00">Drasil.DocumentLanguage</text>
</g>
<!-- u17&#45;&gt;u18 -->
<g id="edge30" class="edge">
<title>u17&#45;&gt;u18</title>
<path fill="none" stroke="black" d="M2309.83,-2155.6C1975.97,-2099.98 702.48,-1887.83 385.21,-1834.98"/>
<polygon fill="black" stroke="black" points="385.66,-1831.51 375.22,-1833.32 384.51,-1838.41 385.66,-1831.51"/>
</g>
<!-- u14 -->
<g id="node5" class="node">
<title>u14</title>
<ellipse fill="#bbffbb" stroke="black" cx="92.29" cy="-1822" rx="92.08" ry="18"/>
<text text-anchor="middle" x="92.29" y="-1818.3" font-family="Times,serif" font-size="14.00">Drasil.TraceTable</text>
</g>
<!-- u17&#45;&gt;u14 -->
<g id="edge29" class="edge">
<title>u17&#45;&gt;u14</title>
<path fill="none" stroke="black" d="M2304.75,-2156.12C1941.13,-2101.37 526.35,-1888.35 172.74,-1835.11"/>
<polygon fill="black" stroke="black" points="173.25,-1831.65 162.84,-1833.62 172.21,-1838.57 173.25,-1831.65"/>
</g>
<!-- u11 -->
<g id="node6" class="node">
<title>u11</title>
<ellipse fill="#bbffbb" stroke="black" cx="688.29" cy="-1822" rx="116.18" ry="18"/>
<text text-anchor="middle" x="688.29" y="-1818.3" font-family="Times,serif" font-size="14.00">Drasil.ExtractDocDesc</text>
</g>
<!-- u17&#45;&gt;u11 -->
<g id="edge28" class="edge">
<title>u17&#45;&gt;u11</title>
<path fill="none" stroke="black" d="M2319.86,-2154.68C2045.83,-2098.97 1051.78,-1896.89 765.77,-1838.75"/>
<polygon fill="black" stroke="black" points="766.39,-1835.31 755.9,-1836.74 765,-1842.17 766.39,-1835.31"/>
</g>
<!-- u8 -->
<g id="node9" class="node">
<title>u8</title>
<ellipse fill="#ffffbb" stroke="black" cx="1570.29" cy="-1822" rx="136.48" ry="18"/>
<text text-anchor="middle" x="1570.29" y="-1818.3" font-family="Times,serif" font-size="14.00">Drasil.DocLang.References</text>
</g>
<!-- u17&#45;&gt;u8 -->
<g id="edge27" class="edge">
<title>u17&#45;&gt;u8</title>
<path fill="none" stroke="black" d="M2351.57,-2152.66C2216.6,-2095.71 1767.04,-1906.02 1618.44,-1843.32"/>
<polygon fill="black" stroke="black" points="1619.67,-1840.04 1609.09,-1839.37 1616.95,-1846.48 1619.67,-1840.04"/>
</g>
<!-- u6 -->
<g id="node11" class="node">
<title>u6</title>
<ellipse fill="#bbbbff" stroke="black" cx="2265.29" cy="-1822" rx="220.96" ry="18"/>
<text text-anchor="middle" x="2265.29" y="-1818.3" font-family="Times,serif" font-size="14.00">Drasil.DocumentLanguage.TraceabilityGraph</text>
</g>
<!-- u17&#45;&gt;u6 -->
<g id="edge26" class="edge">
<title>u17&#45;&gt;u6</title>
<path fill="none" stroke="black" d="M2384.09,-2151.84C2363.85,-2095.81 2299.58,-1917.91 2274.99,-1849.84"/>
<polygon fill="black" stroke="black" points="2278.22,-1848.48 2271.53,-1840.26 2271.63,-1850.86 2278.22,-1848.48"/>
</g>
<!-- u29 -->
<g id="node21" class="node">
<title>u29</title>
<ellipse fill="#ffbbff" stroke="black" cx="2758.29" cy="-1822" rx="163.27" ry="18"/>
<text text-anchor="middle" x="2758.29" y="-1818.3" font-family="Times,serif" font-size="14.00">Drasil.Sections.GeneralSystDesc</text>
</g>
<!-- u17&#45;&gt;u29 -->
<g id="edge34" class="edge">
<title>u17&#45;&gt;u29</title>
<path fill="none" stroke="black" d="M2408.29,-2152.08C2468.32,-2095.64 2661.83,-1913.7 2732.31,-1847.43"/>
<polygon fill="black" stroke="black" points="2735.01,-1849.7 2739.89,-1840.3 2730.21,-1844.6 2735.01,-1849.7"/>
</g>
<!-- u23 -->
<g id="node27" class="node">
<title>u23</title>
<ellipse fill="#ffbbff" stroke="black" cx="2514.29" cy="-1475" rx="161.37" ry="18"/>
<text text-anchor="middle" x="2514.29" y="-1471.3" font-family="Times,serif" font-size="14.00">Drasil.Sections.TableOfContents</text>
</g>
<!-- u17&#45;&gt;u23 -->
<g id="edge33" class="edge">
<title>u17&#45;&gt;u23</title>
<path fill="none" stroke="black" d="M2397.48,-2151.92C2417.31,-2103.87 2472.84,-1962.98 2495.29,-1840 2517.92,-1716.05 2516.84,-1564.72 2515.25,-1503.58"/>
<polygon fill="black" stroke="black" points="2518.73,-1503.13 2514.95,-1493.24 2511.74,-1503.33 2518.73,-1503.13"/>
</g>
<!-- u22 -->
<g id="node28" class="node">
<title>u22</title>
<ellipse fill="#ffbbff" stroke="black" cx="3311.29" cy="-1475" rx="141.88" ry="18"/>
<text text-anchor="middle" x="3311.29" y="-1471.3" font-family="Times,serif" font-size="14.00">Drasil.Sections.Introduction</text>
</g>
<!-- u17&#45;&gt;u22 -->
<g id="edge32" class="edge">
<title>u17&#45;&gt;u22</title>
<path fill="none" stroke="black" d="M2509.59,-2161.72C2702.09,-2143.05 3078.46,-2076.58 3265.29,-1840 3345.5,-1738.43 3327.36,-1568.78 3316.47,-1503.11"/>
<polygon fill="black" stroke="black" points="3319.89,-1502.39 3314.73,-1493.14 3313,-1503.59 3319.89,-1502.39"/>
</g>
<!-- u19 -->
<g id="node31" class="node">
<title>u19</title>
<ellipse fill="#ffbbff" stroke="black" cx="3111.29" cy="-1822" rx="144.87" ry="18"/>
<text text-anchor="middle" x="3111.29" y="-1818.3" font-family="Times,serif" font-size="14.00">Drasil.Sections.Stakeholders</text>
</g>
<!-- u17&#45;&gt;u19 -->
<g id="edge31" class="edge">
<title>u17&#45;&gt;u19</title>
<path fill="none" stroke="black" d="M2424.58,-2152.54C2543.19,-2095.62 2935.99,-1907.12 3067.76,-1843.89"/>
<polygon fill="black" stroke="black" points="3069.29,-1847.04 3076.79,-1839.56 3066.26,-1840.73 3069.29,-1847.04"/>
</g>
<!-- u16 -->
<g id="node3" class="node">
<title>u16</title>
<ellipse fill="#bbffbb" stroke="black" cx="3791.29" cy="-2864" rx="108.58" ry="18"/>
<text text-anchor="middle" x="3791.29" y="-2860.3" font-family="Times,serif" font-size="14.00">Drasil.SRSDocument</text>
</g>
<!-- u15 -->
<g id="node4" class="node">
<title>u15</title>
<ellipse fill="#bbffbb" stroke="black" cx="3791.29" cy="-2517" rx="81.79" ry="18"/>
<text text-anchor="middle" x="3791.29" y="-2513.3" font-family="Times,serif" font-size="14.00">Drasil.DocLang</text>
</g>
<!-- u16&#45;&gt;u15 -->
<g id="edge25" class="edge">
<title>u16&#45;&gt;u15</title>
<path fill="none" stroke="black" d="M3791.29,-2845.89C3791.29,-2790.25 3791.29,-2614.09 3791.29,-2545.61"/>
<polygon fill="black" stroke="black" points="3794.79,-2545.21 3791.29,-2535.21 3787.79,-2545.21 3794.79,-2545.21"/>
</g>
<!-- u15&#45;&gt;u17 -->
<g id="edge23" class="edge">
<title>u15&#45;&gt;u17</title>
<path fill="none" stroke="black" d="M3738.93,-2503.11C3523.83,-2450.14 2708,-2249.24 2461.35,-2188.5"/>
<polygon fill="black" stroke="black" points="2461.97,-2185.05 2451.42,-2186.05 2460.29,-2191.84 2461.97,-2185.05"/>
</g>
<!-- u2 -->
<g id="node15" class="node">
<title>u2</title>
<ellipse fill="#ffbbbb" stroke="black" cx="3791.29" cy="-2170" rx="276.75" ry="18"/>
<text text-anchor="middle" x="3791.29" y="-2166.3" font-family="Times,serif" font-size="14.00">Drasil.DocumentLanguage.Notebook.DocumentLanguage</text>
</g>
<!-- u15&#45;&gt;u2 -->
<g id="edge22" class="edge">
<title>u15&#45;&gt;u2</title>
<path fill="none" stroke="black" d="M3791.29,-2498.89C3791.29,-2443.25 3791.29,-2267.09 3791.29,-2198.61"/>
<polygon fill="black" stroke="black" points="3794.79,-2198.21 3791.29,-2188.21 3787.79,-2198.21 3794.79,-2198.21"/>
</g>
<!-- u30 -->
<g id="node20" class="node">
<title>u30</title>
<ellipse fill="#ffbbff" stroke="black" cx="4256.29" cy="-2170" rx="170.07" ry="18"/>
<text text-anchor="middle" x="4256.29" y="-2166.3" font-family="Times,serif" font-size="14.00">Drasil.Sections.ReferenceMaterial</text>
</g>
<!-- u15&#45;&gt;u30 -->
<g id="edge24" class="edge">
<title>u15&#45;&gt;u30</title>
<path fill="none" stroke="black" d="M3813.41,-2499.59C3889.04,-2443.48 4137.54,-2259.11 4225.28,-2194.01"/>
<polygon fill="black" stroke="black" points="4227.55,-2196.68 4233.5,-2187.91 4223.38,-2191.06 4227.55,-2196.68"/>
</g>
<!-- u14&#45;&gt;u3 -->
<g id="edge21" class="edge">
<title>u14&#45;&gt;u3</title>
<path fill="none" stroke="black" d="M87.61,-1803.91C73.26,-1747.54 35.69,-1564.91 118.29,-1457 303.85,-1214.6 680.66,-1150.53 896.92,-1134.11"/>
<polygon fill="black" stroke="black" points="897.38,-1137.59 907.1,-1133.37 896.87,-1130.61 897.38,-1137.59"/>
</g>
<!-- u11&#45;&gt;u3 -->
<g id="edge17" class="edge">
<title>u11&#45;&gt;u3</title>
<path fill="none" stroke="black" d="M622.86,-1807.05C453.33,-1767.85 22.07,-1647.05 155.29,-1457 323.71,-1216.73 686.94,-1151.77 898.12,-1134.65"/>
<polygon fill="black" stroke="black" points="898.68,-1138.12 908.38,-1133.85 898.13,-1131.14 898.68,-1138.12"/>
</g>
<!-- u24 -->
<g id="node26" class="node">
<title>u24</title>
<ellipse fill="#ffbbff" stroke="black" cx="688.29" cy="-1475" rx="207.96" ry="18"/>
<text text-anchor="middle" x="688.29" y="-1471.3" font-family="Times,serif" font-size="14.00">Drasil.Sections.SpecificSystemDescription</text>
</g>
<!-- u11&#45;&gt;u24 -->
<g id="edge18" class="edge">
<title>u11&#45;&gt;u24</title>
<path fill="none" stroke="black" d="M688.29,-1803.89C688.29,-1748.25 688.29,-1572.09 688.29,-1503.61"/>
<polygon fill="black" stroke="black" points="691.79,-1503.21 688.29,-1493.21 684.79,-1503.21 691.79,-1503.21"/>
</g>
<!-- u10 -->
<g id="node7" class="node">
<title>u10</title>
<ellipse fill="#ffffbb" stroke="black" cx="2931.29" cy="-1128" rx="104.78" ry="18"/>
<text text-anchor="middle" x="2931.29" y="-1124.3" font-family="Times,serif" font-size="14.00">Drasil.DocLang.SRS</text>
</g>
<!-- u9 -->
<g id="node8" class="node">
<title>u9</title>
<ellipse fill="#ffffbb" stroke="black" cx="4149.29" cy="-1475" rx="129.18" ry="18"/>
<text text-anchor="middle" x="4149.29" y="-1471.3" font-family="Times,serif" font-size="14.00">Drasil.DocLang.Notebook</text>
</g>
<!-- u28 -->
<g id="node22" class="node">
<title>u28</title>
<ellipse fill="#ffbbff" stroke="black" cx="1059.29" cy="-1475" rx="144.87" ry="18"/>
<text text-anchor="middle" x="1059.29" y="-1471.3" font-family="Times,serif" font-size="14.00">Drasil.Sections.TableOfUnits</text>
</g>
<!-- u8&#45;&gt;u28 -->
<g id="edge16" class="edge">
<title>u8&#45;&gt;u28</title>
<path fill="none" stroke="black" d="M1545.3,-1804.13C1461.16,-1747.32 1188.16,-1563 1092.65,-1498.52"/>
<polygon fill="black" stroke="black" points="1094.48,-1495.54 1084.24,-1492.84 1090.57,-1501.34 1094.48,-1495.54"/>
</g>
<!-- u27 -->
<g id="node23" class="node">
<title>u27</title>
<ellipse fill="#ffbbff" stroke="black" cx="2157.29" cy="-1475" rx="177.37" ry="18"/>
<text text-anchor="middle" x="2157.29" y="-1471.3" font-family="Times,serif" font-size="14.00">Drasil.Sections.TraceabilityMandGs</text>
</g>
<!-- u8&#45;&gt;u27 -->
<g id="edge15" class="edge">
<title>u8&#45;&gt;u27</title>
<path fill="none" stroke="black" d="M1598.6,-1804.36C1695.06,-1747.67 2010.86,-1562.06 2119.88,-1497.99"/>
<polygon fill="black" stroke="black" points="2121.73,-1500.96 2128.58,-1492.88 2118.18,-1494.93 2121.73,-1500.96"/>
</g>
<!-- u26 -->
<g id="node24" class="node">
<title>u26</title>
<ellipse fill="#ffbbff" stroke="black" cx="1760.29" cy="-1475" rx="201.46" ry="18"/>
<text text-anchor="middle" x="1760.29" y="-1471.3" font-family="Times,serif" font-size="14.00">Drasil.Sections.TableOfAbbAndAcronyms</text>
</g>
<!-- u8&#45;&gt;u26 -->
<g id="edge14" class="edge">
<title>u8&#45;&gt;u26</title>
<path fill="none" stroke="black" d="M1579.71,-1803.89C1610.55,-1747.91 1708.57,-1569.91 1745.78,-1502.35"/>
<polygon fill="black" stroke="black" points="1749.05,-1503.66 1750.81,-1493.21 1742.92,-1500.28 1749.05,-1503.66"/>
</g>
<!-- u25 -->
<g id="node25" class="node">
<title>u25</title>
<ellipse fill="#ffbbff" stroke="black" cx="1381.29" cy="-1475" rx="159.47" ry="18"/>
<text text-anchor="middle" x="1381.29" y="-1471.3" font-family="Times,serif" font-size="14.00">Drasil.Sections.TableOfSymbols</text>
</g>
<!-- u8&#45;&gt;u25 -->
<g id="edge13" class="edge">
<title>u8&#45;&gt;u25</title>
<path fill="none" stroke="black" d="M1560.92,-1803.89C1530.25,-1747.91 1432.74,-1569.91 1395.73,-1502.35"/>
<polygon fill="black" stroke="black" points="1398.6,-1500.3 1390.72,-1493.21 1392.46,-1503.66 1398.6,-1500.3"/>
</g>
<!-- u8&#45;&gt;u24 -->
<g id="edge12" class="edge">
<title>u8&#45;&gt;u24</title>
<path fill="none" stroke="black" d="M1528.93,-1804.82C1384.24,-1748.22 900.85,-1559.14 740.49,-1496.42"/>
<polygon fill="black" stroke="black" points="741.43,-1493.03 730.84,-1492.64 738.88,-1499.55 741.43,-1493.03"/>
</g>
<!-- u8&#45;&gt;u21 -->
<g id="edge11" class="edge">
<title>u8&#45;&gt;u21</title>
<path fill="none" stroke="black" d="M1513.84,-1805.51C1308.47,-1749.14 601.6,-1555.13 380.17,-1494.36"/>
<polygon fill="black" stroke="black" points="380.88,-1490.92 370.31,-1491.65 379.02,-1497.67 380.88,-1490.92"/>
</g>
<!-- u20 -->
<g id="node30" class="node">
<title>u20</title>
<ellipse fill="#ffbbff" stroke="black" cx="2865.29" cy="-1475" rx="172.47" ry="18"/>
<text text-anchor="middle" x="2865.29" y="-1471.3" font-family="Times,serif" font-size="14.00">Drasil.Sections.AuxiliaryConstants</text>
</g>
<!-- u8&#45;&gt;u20 -->
<g id="edge10" class="edge">
<title>u8&#45;&gt;u20</title>
<path fill="none" stroke="black" d="M1628.03,-1805.62C1838.77,-1749.47 2566.17,-1555.69 2795.48,-1494.6"/>
<polygon fill="black" stroke="black" points="2796.61,-1497.92 2805.37,-1491.96 2794.81,-1491.16 2796.61,-1497.92"/>
</g>
<!-- u7 -->
<g id="node10" class="node">
<title>u7</title>
<ellipse fill="#bbbbff" stroke="black" cx="1059.29" cy="-87" rx="162.47" ry="18"/>
<text text-anchor="middle" x="1059.29" y="-83.3" font-family="Times,serif" font-size="14.00">Drasil.DocumentLanguage.Units</text>
</g>
<!-- u6&#45;&gt;u10 -->
<g id="edge8" class="edge">
<title>u6&#45;&gt;u10</title>
<path fill="none" stroke="black" d="M2404.85,-1808.02C2588.05,-1782.65 2903.12,-1708.41 3046.29,-1493 3121.25,-1380.22 3003.29,-1215.59 2952.62,-1153.72"/>
<polygon fill="black" stroke="black" points="2955.31,-1151.48 2946.22,-1146.02 2949.92,-1155.95 2955.31,-1151.48"/>
</g>
<!-- u6&#45;&gt;u27 -->
<g id="edge9" class="edge">
<title>u6&#45;&gt;u27</title>
<path fill="none" stroke="black" d="M2259.94,-1803.89C2242.45,-1748.02 2186.92,-1570.64 2165.67,-1502.77"/>
<polygon fill="black" stroke="black" points="2169.01,-1501.71 2162.68,-1493.21 2162.33,-1503.8 2169.01,-1501.71"/>
</g>
<!-- u5 -->
<g id="node12" class="node">
<title>u5</title>
<ellipse fill="#bbbbff" stroke="black" cx="1059.29" cy="-434" rx="187.37" ry="18"/>
<text text-anchor="middle" x="1059.29" y="-430.3" font-family="Times,serif" font-size="14.00">Drasil.DocumentLanguage.Definitions</text>
</g>
<!-- u5&#45;&gt;u7 -->
<g id="edge7" class="edge">
<title>u5&#45;&gt;u7</title>
<path fill="none" stroke="black" d="M1059.29,-415.89C1059.29,-360.25 1059.29,-184.09 1059.29,-115.61"/>
<polygon fill="black" stroke="black" points="1062.79,-115.21 1059.29,-105.21 1055.79,-115.21 1062.79,-115.21"/>
</g>
<!-- u4 -->
<g id="node13" class="node">
<title>u4</title>
<ellipse fill="#bbbbff" stroke="black" cx="1059.29" cy="-781" rx="223.66" ry="18"/>
<text text-anchor="middle" x="1059.29" y="-777.3" font-family="Times,serif" font-size="14.00">Drasil.DocumentLanguage.TraceabilityMatrix</text>
</g>
<!-- u4&#45;&gt;u5 -->
<g id="edge6" class="edge">
<title>u4&#45;&gt;u5</title>
<path fill="none" stroke="black" d="M1059.29,-762.89C1059.29,-707.25 1059.29,-531.09 1059.29,-462.61"/>
<polygon fill="black" stroke="black" points="1062.79,-462.21 1059.29,-452.21 1055.79,-462.21 1062.79,-462.21"/>
</g>
<!-- u3&#45;&gt;u4 -->
<g id="edge5" class="edge">
<title>u3&#45;&gt;u4</title>
<path fill="none" stroke="black" d="M1059.29,-1109.89C1059.29,-1054.25 1059.29,-878.09 1059.29,-809.61"/>
<polygon fill="black" stroke="black" points="1062.79,-809.21 1059.29,-799.21 1055.79,-809.21 1062.79,-809.21"/>
</g>
<!-- u1 -->
<g id="node16" class="node">
<title>u1</title>
<ellipse fill="#ffbbbb" stroke="black" cx="3611.29" cy="-1822" rx="219.86" ry="18"/>
<text text-anchor="middle" x="3611.29" y="-1818.3" font-family="Times,serif" font-size="14.00">Drasil.DocumentLanguage.Notebook.NBDecl</text>
</g>
<!-- u2&#45;&gt;u1 -->
<g id="edge2" class="edge">
<title>u2&#45;&gt;u1</title>
<path fill="none" stroke="black" d="M3782.37,-2151.84C3753.16,-2095.7 3660.29,-1917.18 3625.04,-1849.43"/>
<polygon fill="black" stroke="black" points="3627.99,-1847.52 3620.27,-1840.26 3621.78,-1850.75 3627.99,-1847.52"/>
</g>
<!-- u13 -->
<g id="node18" class="node">
<title>u13</title>
<ellipse fill="#bbffff" stroke="black" cx="3971.29" cy="-1822" rx="122.38" ry="18"/>
<text text-anchor="middle" x="3971.29" y="-1818.3" font-family="Times,serif" font-size="14.00">Drasil.NBSections.Body</text>
</g>
<!-- u2&#45;&gt;u13 -->
<g id="edge4" class="edge">
<title>u2&#45;&gt;u13</title>
<path fill="none" stroke="black" d="M3800.22,-2151.84C3829.43,-2095.7 3922.3,-1917.18 3957.54,-1849.43"/>
<polygon fill="black" stroke="black" points="3960.8,-1850.75 3962.31,-1840.26 3954.59,-1847.52 3960.8,-1850.75"/>
</g>
<!-- u12 -->
<g id="node19" class="node">
<title>u12</title>
<ellipse fill="#bbffff" stroke="black" cx="4267.29" cy="-1822" rx="155.97" ry="18"/>
<text text-anchor="middle" x="4267.29" y="-1818.3" font-family="Times,serif" font-size="14.00">Drasil.NBSections.Introduction</text>
</g>
<!-- u2&#45;&gt;u12 -->
<g id="edge3" class="edge">
<title>u2&#45;&gt;u12</title>
<path fill="none" stroke="black" d="M3814.9,-2151.84C3893.59,-2094.64 4146.99,-1910.45 4236.02,-1845.73"/>
<polygon fill="black" stroke="black" points="4238.07,-1848.56 4244.11,-1839.85 4233.96,-1842.9 4238.07,-1848.56"/>
</g>
<!-- u0 -->
<g id="node17" class="node">
<title>u0</title>
<ellipse fill="#ffbbbb" stroke="black" cx="3677.29" cy="-1475" rx="206.06" ry="18"/>
<text text-anchor="middle" x="3677.29" y="-1471.3" font-family="Times,serif" font-size="14.00">Drasil.DocumentLanguage.Notebook.Core</text>
</g>
<!-- u1&#45;&gt;u0 -->
<g id="edge1" class="edge">
<title>u1&#45;&gt;u0</title>
<path fill="none" stroke="black" d="M3614.56,-1803.89C3625.23,-1748.14 3659.05,-1571.37 3672.09,-1503.19"/>
<polygon fill="black" stroke="black" points="3675.56,-1503.69 3674,-1493.21 3668.68,-1502.38 3675.56,-1503.69"/>
</g>
<!-- u13&#45;&gt;u9 -->
<g id="edge20" class="edge">
<title>u13&#45;&gt;u9</title>
<path fill="none" stroke="black" d="M3980.12,-1803.89C4009,-1747.91 4100.84,-1569.91 4135.7,-1502.35"/>
<polygon fill="black" stroke="black" points="4138.94,-1503.7 4140.41,-1493.21 4132.72,-1500.49 4138.94,-1503.7"/>
</g>
<!-- u12&#45;&gt;u9 -->
<g id="edge19" class="edge">
<title>u12&#45;&gt;u9</title>
<path fill="none" stroke="black" d="M4261.44,-1803.89C4242.33,-1748.02 4181.66,-1570.64 4158.45,-1502.77"/>
<polygon fill="black" stroke="black" points="4161.73,-1501.54 4155.18,-1493.21 4155.1,-1503.81 4161.73,-1501.54"/>
</g>
<!-- u29&#45;&gt;u10 -->
<g id="edge51" class="edge">
<title>u29&#45;&gt;u10</title>
<path fill="none" stroke="black" d="M2785.53,-1804.22C2851.33,-1761.84 3018.05,-1643.13 3079.29,-1493 3131.34,-1365.41 3009.1,-1212.54 2955.22,-1153.72"/>
<polygon fill="black" stroke="black" points="2957.47,-1151 2948.09,-1146.06 2952.34,-1155.77 2957.47,-1151"/>
</g>
<!-- u28&#45;&gt;u3 -->
<g id="edge50" class="edge">
<title>u28&#45;&gt;u3</title>
<path fill="none" stroke="black" d="M1059.29,-1456.89C1059.29,-1401.25 1059.29,-1225.09 1059.29,-1156.61"/>
<polygon fill="black" stroke="black" points="1062.79,-1156.21 1059.29,-1146.21 1055.79,-1156.21 1062.79,-1156.21"/>
</g>
<!-- u27&#45;&gt;u3 -->
<g id="edge49" class="edge">
<title>u27&#45;&gt;u3</title>
<path fill="none" stroke="black" d="M2105.44,-1457.71C1923.69,-1400.6 1315.94,-1209.64 1120.43,-1148.21"/>
<polygon fill="black" stroke="black" points="1121.2,-1144.78 1110.61,-1145.13 1119.1,-1151.46 1121.2,-1144.78"/>
</g>
<!-- u25&#45;&gt;u3 -->
<g id="edge48" class="edge">
<title>u25&#45;&gt;u3</title>
<path fill="none" stroke="black" d="M1365.32,-1456.89C1312.64,-1400.45 1144.21,-1219.98 1082.36,-1153.71"/>
<polygon fill="black" stroke="black" points="1084.74,-1151.13 1075.36,-1146.21 1079.62,-1155.91 1084.74,-1151.13"/>
</g>
<!-- u24&#45;&gt;u10 -->
<g id="edge47" class="edge">
<title>u24&#45;&gt;u10</title>
<path fill="none" stroke="black" d="M785.39,-1459.07C1158.21,-1401.72 2494.55,-1196.18 2846.07,-1142.11"/>
<polygon fill="black" stroke="black" points="2846.83,-1145.53 2856.18,-1140.55 2845.77,-1138.61 2846.83,-1145.53"/>
</g>
<!-- u24&#45;&gt;u5 -->
<g id="edge46" class="edge">
<title>u24&#45;&gt;u5</title>
<path fill="none" stroke="black" d="M688.96,-1456.96C692.66,-1376 714.78,-1023.35 826.29,-763 880.31,-636.88 988.6,-511.21 1036.08,-459.54"/>
<polygon fill="black" stroke="black" points="1038.67,-461.89 1042.9,-452.18 1033.53,-457.14 1038.67,-461.89"/>
</g>
<!-- u23&#45;&gt;u10 -->
<g id="edge45" class="edge">
<title>u23&#45;&gt;u10</title>
<path fill="none" stroke="black" d="M2534.69,-1457.13C2603,-1400.61 2823.89,-1217.85 2902.88,-1152.51"/>
<polygon fill="black" stroke="black" points="2905.46,-1154.91 2910.94,-1145.84 2901,-1149.52 2905.46,-1154.91"/>
</g>
<!-- u23&#45;&gt;u3 -->
<g id="edge44" class="edge">
<title>u23&#45;&gt;u3</title>
<path fill="none" stroke="black" d="M2448.95,-1458.51C2210.49,-1401.96 1387.89,-1206.91 1134.31,-1146.79"/>
<polygon fill="black" stroke="black" points="1134.99,-1143.35 1124.46,-1144.45 1133.38,-1150.16 1134.99,-1143.35"/>
</g>
<!-- u22&#45;&gt;u10 -->
<g id="edge43" class="edge">
<title>u22&#45;&gt;u10</title>
<path fill="none" stroke="black" d="M3292.71,-1457.13C3230.58,-1400.72 3029.98,-1218.59 2957.62,-1152.9"/>
<polygon fill="black" stroke="black" points="2959.6,-1149.97 2949.84,-1145.84 2954.89,-1155.15 2959.6,-1149.97"/>
</g>
<!-- u22&#45;&gt;u5 -->
<g id="edge42" class="edge">
<title>u22&#45;&gt;u5</title>
<path fill="none" stroke="black" d="M3303.44,-1456.65C3276.35,-1398.66 3180.9,-1209.64 3045.29,-1110 2435.16,-661.7 1506.14,-496.35 1178.62,-450.05"/>
<polygon fill="black" stroke="black" points="1179.03,-446.57 1168.64,-448.65 1178.06,-453.51 1179.03,-446.57"/>
</g>
<!-- u21&#45;&gt;u10 -->
<g id="edge41" class="edge">
<title>u21&#45;&gt;u10</title>
<path fill="none" stroke="black" d="M409.96,-1461.26C823.33,-1406.79 2439.46,-1193.81 2840.73,-1140.93"/>
<polygon fill="black" stroke="black" points="2841.38,-1144.38 2850.84,-1139.6 2840.46,-1137.44 2841.38,-1144.38"/>
</g>
<!-- u21&#45;&gt;u7 -->
<g id="edge40" class="edge">
<title>u21&#45;&gt;u7</title>
<path fill="none" stroke="black" d="M321.65,-1457C371.08,-1356.73 630.76,-832.68 863.29,-416 927.01,-301.83 1008.79,-169.03 1043.06,-113.97"/>
<polygon fill="black" stroke="black" points="1046.2,-115.55 1048.51,-105.21 1040.25,-111.85 1046.2,-115.55"/>
</g>
<!-- u20&#45;&gt;u10 -->
<g id="edge39" class="edge">
<title>u20&#45;&gt;u10</title>
<path fill="none" stroke="black" d="M2868.56,-1456.89C2879.23,-1401.14 2913.05,-1224.37 2926.09,-1156.19"/>
<polygon fill="black" stroke="black" points="2929.56,-1156.69 2928,-1146.21 2922.68,-1155.38 2929.56,-1156.69"/>
</g>
<!-- u20&#45;&gt;u7 -->
<g id="edge38" class="edge">
<title>u20&#45;&gt;u7</title>
<path fill="none" stroke="black" d="M2843.11,-1456.98C2653.64,-1311.57 1309.02,-279.65 1089.55,-111.22"/>
<polygon fill="black" stroke="black" points="1091.42,-108.25 1081.36,-104.94 1087.16,-113.8 1091.42,-108.25"/>
</g>
<!-- u19&#45;&gt;u10 -->
<g id="edge37" class="edge">
<title>u19&#45;&gt;u10</title>
<path fill="none" stroke="black" d="M3113.17,-1803.94C3118.45,-1751.24 3130.91,-1586.79 3097.29,-1457 3065.9,-1335.81 2985.16,-1207.77 2949.12,-1154.53"/>
<polygon fill="black" stroke="black" points="2951.86,-1152.34 2943.33,-1146.05 2946.08,-1156.29 2951.86,-1152.34"/>
</g>
</g>
</svg>
