<?xml version="1.0" encoding="UTF-8" standalone="no"?>
<!DOCTYPE svg PUBLIC "-//W3C//DTD SVG 1.1//EN"
 "http://www.w3.org/Graphics/SVG/1.1/DTD/svg11.dtd">
<!-- Generated by graphviz version 2.43.0 (0)
 -->
<!-- Title: G Pages: 1 -->
<svg width="431pt" height="288pt"
 viewBox="0.00 0.00 430.70 288.00" xmlns="http://www.w3.org/2000/svg" xmlns:xlink="http://www.w3.org/1999/xlink">
<g id="graph0" class="graph" transform="scale(2.66 2.66) rotate(0) translate(4 762.67)">
<title>G</title>
<polygon fill="white" stroke="transparent" points="-4,4 -4,-762.67 1142.53,-762.67 1142.53,4 -4,4"/>
<!-- u0 -->
<g id="node1" class="node">
<title>u0</title>
<ellipse fill="#bbffbb" stroke="black" cx="551.24" cy="-704" rx="34.39" ry="18"/>
<text text-anchor="middle" x="551.24" y="-700.3" font-family="Times,serif" font-size="14.00">Main</text>
</g>
<!-- u6 -->
<g id="node2" class="node">
<title>u6</title>
<ellipse fill="#ffffbb" stroke="black" cx="551.24" cy="-488" rx="104.78" ry="18"/>
<text text-anchor="middle" x="551.24" y="-484.3" font-family="Times,serif" font-size="14.00">Drasil.Website.Body</text>
</g>
<!-- u0&#45;&gt;u6 -->
<g id="edge1" class="edge">
<title>u0&#45;&gt;u6</title>
<path fill="none" stroke="black" d="M551.24,-685.85C551.24,-648.83 551.24,-561.18 551.24,-516.39"/>
<polygon fill="black" stroke="black" points="554.74,-516.23 551.24,-506.23 547.74,-516.23 554.74,-516.23"/>
</g>
<!-- u5 -->
<g id="node3" class="node">
<title>u5</title>
<ellipse fill="#ffffbb" stroke="black" cx="120.24" cy="-271" rx="120.48" ry="18"/>
<text text-anchor="middle" x="120.24" y="-267.3" font-family="Times,serif" font-size="14.00">Drasil.Website.Analysis</text>
</g>
<!-- u6&#45;&gt;u5 -->
<g id="edge6" class="edge">
<title>u6&#45;&gt;u5</title>
<path fill="none" stroke="black" d="M518.84,-470.84C441.86,-432.44 247.98,-335.72 162.19,-292.93"/>
<polygon fill="black" stroke="black" points="163.52,-289.68 153.01,-288.35 160.4,-295.94 163.52,-289.68"/>
</g>
<!-- u4 -->
<g id="node4" class="node">
<title>u4</title>
<ellipse fill="#ffffbb" stroke="black" cx="397.24" cy="-271" rx="139.18" ry="18"/>
<text text-anchor="middle" x="397.24" y="-267.3" font-family="Times,serif" font-size="14.00">Drasil.Website.Introduction</text>
</g>
<!-- u6&#45;&gt;u4 -->
<g id="edge5" class="edge">
<title>u6&#45;&gt;u4</title>
<path fill="none" stroke="black" d="M538.9,-469.77C511.8,-431.93 446.99,-341.45 415.3,-297.22"/>
<polygon fill="black" stroke="black" points="418.1,-295.11 409.43,-289.01 412.4,-299.18 418.1,-295.11"/>
</g>
<!-- u3 -->
<g id="node5" class="node">
<title>u3</title>
<ellipse fill="#ffffbb" stroke="black" cx="706.24" cy="-271" rx="152.17" ry="18"/>
<text text-anchor="middle" x="706.24" y="-267.3" font-family="Times,serif" font-size="14.00">Drasil.Website.Documentation</text>
</g>
<!-- u6&#45;&gt;u3 -->
<g id="edge4" class="edge">
<title>u6&#45;&gt;u3</title>
<path fill="none" stroke="black" d="M563.66,-469.77C590.94,-431.93 656.17,-341.45 688.06,-297.22"/>
<polygon fill="black" stroke="black" points="690.96,-299.17 693.97,-289.01 685.29,-295.08 690.96,-299.17"/>
</g>
<!-- u2 -->
<g id="node6" class="node">
<title>u2</title>
<ellipse fill="#ffffbb" stroke="black" cx="1007.24" cy="-271" rx="131.08" ry="18"/>
<text text-anchor="middle" x="1007.24" y="-267.3" font-family="Times,serif" font-size="14.00">Drasil.Website.CaseStudy</text>
</g>
<!-- u6&#45;&gt;u2 -->
<g id="edge3" class="edge">
<title>u6&#45;&gt;u2</title>
<path fill="none" stroke="black" d="M585.51,-470.84C667.03,-432.4 872.42,-335.57 963.07,-292.82"/>
<polygon fill="black" stroke="black" points="964.7,-295.93 972.25,-288.49 961.72,-289.59 964.7,-295.93"/>
</g>
<!-- u1 -->
<g id="node7" class="node">
<title>u1</title>
<ellipse fill="#ffffbb" stroke="black" cx="1007.24" cy="-54" rx="122.38" ry="18"/>
<text text-anchor="middle" x="1007.24" y="-50.3" font-family="Times,serif" font-size="14.00">Drasil.Website.Example</text>
</g>
<!-- u2&#45;&gt;u1 -->
<g id="edge2" class="edge">
<title>u2&#45;&gt;u1</title>
<path fill="none" stroke="black" d="M1007.24,-252.77C1007.24,-215.49 1007.24,-127.08 1007.24,-82.18"/>
<polygon fill="black" stroke="black" points="1010.74,-82.01 1007.24,-72.01 1003.74,-82.01 1010.74,-82.01"/>
</g>
</g>
</svg>
