<?xml version="1.0" encoding="UTF-8" standalone="no"?>
<!DOCTYPE svg PUBLIC "-//W3C//DTD SVG 1.1//EN"
 "http://www.w3.org/Graphics/SVG/1.1/DTD/svg11.dtd">
<!-- Generated by graphviz version 2.43.0 (0)
 -->
<!-- Title: G Pages: 1 -->
<svg width="432pt" height="284pt"
 viewBox="0.00 0.00 432.00 283.71" xmlns="http://www.w3.org/2000/svg" xmlns:xlink="http://www.w3.org/1999/xlink">
<g id="graph0" class="graph" transform="scale(0.14 0.14) rotate(0) translate(4 2070.67)">
<title>G</title>
<polygon fill="white" stroke="transparent" points="-4,4 -4,-2070.67 3155.07,-2070.67 3155.07,4 -4,4"/>
<!-- u29 -->
<g id="node1" class="node">
<title>u29</title>
<ellipse fill="#bbffbb" stroke="black" cx="994.88" cy="-1860" rx="69.59" ry="18"/>
<text text-anchor="middle" x="994.88" y="-1856.3" font-family="Times,serif" font-size="14.00">Drasil.GOOL</text>
</g>
<!-- u18 -->
<g id="node3" class="node">
<title>u18</title>
<ellipse fill="#ffffbb" stroke="black" cx="448.88" cy="-1364" rx="128.08" ry="18"/>
<text text-anchor="middle" x="448.88" y="-1360.3" font-family="Times,serif" font-size="14.00">Drasil.GOOL.CodeInfoOO</text>
</g>
<!-- u29&#45;&gt;u18 -->
<g id="edge52" class="edge">
<title>u29&#45;&gt;u18</title>
<path fill="none" stroke="black" d="M925.14,-1859.64C723.11,-1859.87 144.42,-1848.46 27.88,-1713 -98.48,-1566.14 244.99,-1432.04 388.85,-1383.87"/>
<polygon fill="black" stroke="black" points="390.06,-1387.16 398.45,-1380.69 387.85,-1380.52 390.06,-1387.16"/>
</g>
<!-- u23 -->
<g id="node6" class="node">
<title>u23</title>
<ellipse fill="#bbbbff" stroke="black" cx="749.88" cy="-1695" rx="230.96" ry="18"/>
<text text-anchor="middle" x="749.88" y="-1691.3" font-family="Times,serif" font-size="14.00">Drasil.GOOL.LanguageRenderer.SwiftRenderer</text>
</g>
<!-- u29&#45;&gt;u23 -->
<g id="edge57" class="edge">
<title>u29&#45;&gt;u23</title>
<path fill="none" stroke="black" d="M970.94,-1843.07C927.21,-1813.98 834.28,-1752.16 783.96,-1718.68"/>
<polygon fill="black" stroke="black" points="785.64,-1715.59 775.38,-1712.97 781.76,-1721.42 785.64,-1715.59"/>
</g>
<!-- u22 -->
<g id="node7" class="node">
<title>u22</title>
<ellipse fill="#bbbbff" stroke="black" cx="1239.88" cy="-1695" rx="241.26" ry="18"/>
<text text-anchor="middle" x="1239.88" y="-1691.3" font-family="Times,serif" font-size="14.00">Drasil.GOOL.LanguageRenderer.CSharpRenderer</text>
</g>
<!-- u29&#45;&gt;u22 -->
<g id="edge56" class="edge">
<title>u29&#45;&gt;u22</title>
<path fill="none" stroke="black" d="M1018.82,-1843.07C1062.55,-1813.98 1155.47,-1752.16 1205.79,-1718.68"/>
<polygon fill="black" stroke="black" points="1207.99,-1721.42 1214.38,-1712.97 1204.11,-1715.59 1207.99,-1721.42"/>
</g>
<!-- u21 -->
<g id="node8" class="node">
<title>u21</title>
<ellipse fill="#bbbbff" stroke="black" cx="2245.88" cy="-1695" rx="239.36" ry="18"/>
<text text-anchor="middle" x="2245.88" y="-1691.3" font-family="Times,serif" font-size="14.00">Drasil.GOOL.LanguageRenderer.PythonRenderer</text>
</g>
<!-- u29&#45;&gt;u21 -->
<g id="edge55" class="edge">
<title>u29&#45;&gt;u21</title>
<path fill="none" stroke="black" d="M1055.64,-1851.08C1249.85,-1825.78 1858.19,-1746.51 2121.91,-1712.15"/>
<polygon fill="black" stroke="black" points="2122.44,-1715.61 2131.91,-1710.85 2121.54,-1708.67 2122.44,-1715.61"/>
</g>
<!-- u20 -->
<g id="node9" class="node">
<title>u20</title>
<ellipse fill="#bbbbff" stroke="black" cx="1724.88" cy="-1695" rx="225.56" ry="18"/>
<text text-anchor="middle" x="1724.88" y="-1691.3" font-family="Times,serif" font-size="14.00">Drasil.GOOL.LanguageRenderer.JavaRenderer</text>
</g>
<!-- u29&#45;&gt;u20 -->
<g id="edge54" class="edge">
<title>u29&#45;&gt;u20</title>
<path fill="none" stroke="black" d="M1045.63,-1847.67C1169.93,-1819.91 1490.48,-1748.34 1642.52,-1714.39"/>
<polygon fill="black" stroke="black" points="1643.73,-1717.7 1652.73,-1712.11 1642.21,-1710.87 1643.73,-1717.7"/>
</g>
<!-- u19 -->
<g id="node10" class="node">
<title>u19</title>
<ellipse fill="#bbbbff" stroke="black" cx="275.88" cy="-1695" rx="224.76" ry="18"/>
<text text-anchor="middle" x="275.88" y="-1691.3" font-family="Times,serif" font-size="14.00">Drasil.GOOL.LanguageRenderer.CppRenderer</text>
</g>
<!-- u29&#45;&gt;u19 -->
<g id="edge53" class="edge">
<title>u29&#45;&gt;u19</title>
<path fill="none" stroke="black" d="M944.32,-1847.54C821.52,-1819.7 506.67,-1748.32 357.11,-1714.41"/>
<polygon fill="black" stroke="black" points="357.59,-1710.94 347.06,-1712.14 356.04,-1717.76 357.59,-1710.94"/>
</g>
<!-- u15 -->
<g id="node2" class="node">
<title>u15</title>
<ellipse fill="#bbffbb" stroke="black" cx="2764.88" cy="-2025" rx="69.59" ry="18"/>
<text text-anchor="middle" x="2764.88" y="-2021.3" font-family="Times,serif" font-size="14.00">Drasil.GProc</text>
</g>
<!-- u25 -->
<g id="node12" class="node">
<title>u25</title>
<ellipse fill="#ffbbbb" stroke="black" cx="3015.88" cy="-868" rx="135.38" ry="18"/>
<text text-anchor="middle" x="3015.88" y="-864.3" font-family="Times,serif" font-size="14.00">Drasil.GProc.CodeInfoProc</text>
</g>
<!-- u15&#45;&gt;u25 -->
<g id="edge14" class="edge">
<title>u15&#45;&gt;u25</title>
<path fill="none" stroke="black" d="M2790.43,-2007.97C2854.49,-1965.58 3016.88,-1843.57 3016.88,-1696 3016.88,-1696 3016.88,-1696 3016.88,-1198 3016.88,-1086.08 3016.29,-952.75 3016.02,-896.35"/>
<polygon fill="black" stroke="black" points="3019.52,-896.11 3015.97,-886.13 3012.52,-896.14 3019.52,-896.11"/>
</g>
<!-- u27 -->
<g id="node15" class="node">
<title>u27</title>
<ellipse fill="#bbffff" stroke="black" cx="2512.88" cy="-1860" rx="227.46" ry="18"/>
<text text-anchor="middle" x="2512.88" y="-1856.3" font-family="Times,serif" font-size="14.00">Drasil.GProc.LanguageRenderer.JuliaRenderer</text>
</g>
<!-- u15&#45;&gt;u27 -->
<g id="edge15" class="edge">
<title>u15&#45;&gt;u27</title>
<path fill="none" stroke="black" d="M2740.26,-2008.07C2695.18,-1978.92 2599.3,-1916.9 2547.61,-1883.47"/>
<polygon fill="black" stroke="black" points="2549.4,-1880.46 2539.11,-1877.97 2545.6,-1886.34 2549.4,-1880.46"/>
</g>
<!-- u17 -->
<g id="node4" class="node">
<title>u17</title>
<ellipse fill="#ffffbb" stroke="black" cx="2139.88" cy="-703" rx="141.88" ry="18"/>
<text text-anchor="middle" x="2139.88" y="-699.3" font-family="Times,serif" font-size="14.00">Drasil.GOOL.InterfaceGOOL</text>
</g>
<!-- u18&#45;&gt;u17 -->
<g id="edge20" class="edge">
<title>u18&#45;&gt;u17</title>
<path fill="none" stroke="black" d="M490.26,-1346.87C719.79,-1257.42 1835.33,-822.69 2088.64,-723.97"/>
<polygon fill="black" stroke="black" points="2089.93,-727.22 2097.98,-720.33 2087.39,-720.7 2089.93,-727.22"/>
</g>
<!-- u2 -->
<g id="node22" class="node">
<title>u2</title>
<ellipse fill="#ffbbff" stroke="black" cx="2831.88" cy="-537" rx="114.28" ry="18"/>
<text text-anchor="middle" x="2831.88" y="-533.3" font-family="Times,serif" font-size="14.00">Drasil.Shared.Helpers</text>
</g>
<!-- u17&#45;&gt;u2 -->
<g id="edge19" class="edge">
<title>u17&#45;&gt;u2</title>
<path fill="none" stroke="black" d="M2203.74,-686.87C2333.33,-656.15 2626.3,-586.72 2761.32,-554.72"/>
<polygon fill="black" stroke="black" points="2762.23,-558.1 2771.15,-552.39 2760.61,-551.29 2762.23,-558.1"/>
</g>
<!-- u0 -->
<g id="node24" class="node">
<title>u0</title>
<ellipse fill="#ffbbff" stroke="black" cx="2496.88" cy="-537" rx="160.57" ry="18"/>
<text text-anchor="middle" x="2496.88" y="-533.3" font-family="Times,serif" font-size="14.00">Drasil.Shared.InterfaceCommon</text>
</g>
<!-- u17&#45;&gt;u0 -->
<g id="edge18" class="edge">
<title>u17&#45;&gt;u0</title>
<path fill="none" stroke="black" d="M2175.74,-685.52C2241.15,-655.48 2379.66,-591.85 2451.51,-558.84"/>
<polygon fill="black" stroke="black" points="2453.15,-561.94 2460.77,-554.59 2450.22,-555.58 2453.15,-561.94"/>
</g>
<!-- u16 -->
<g id="node5" class="node">
<title>u16</title>
<ellipse fill="#ffffbb" stroke="black" cx="2139.88" cy="-868" rx="165.17" ry="18"/>
<text text-anchor="middle" x="2139.88" y="-864.3" font-family="Times,serif" font-size="14.00">Drasil.GOOL.RendererClassesOO</text>
</g>
<!-- u16&#45;&gt;u17 -->
<g id="edge17" class="edge">
<title>u16&#45;&gt;u17</title>
<path fill="none" stroke="black" d="M2139.88,-849.86C2139.88,-821.69 2139.88,-765.34 2139.88,-731.52"/>
<polygon fill="black" stroke="black" points="2143.38,-731.4 2139.88,-721.4 2136.38,-731.4 2143.38,-731.4"/>
</g>
<!-- u4 -->
<g id="node20" class="node">
<title>u4</title>
<ellipse fill="#ffbbff" stroke="black" cx="2496.88" cy="-703" rx="196.87" ry="18"/>
<text text-anchor="middle" x="2496.88" y="-699.3" font-family="Times,serif" font-size="14.00">Drasil.Shared.RendererClassesCommon</text>
</g>
<!-- u16&#45;&gt;u4 -->
<g id="edge16" class="edge">
<title>u16&#45;&gt;u4</title>
<path fill="none" stroke="black" d="M2176.41,-850.32C2241.88,-820.43 2379.09,-757.78 2450.87,-725"/>
<polygon fill="black" stroke="black" points="2452.49,-728.11 2460.14,-720.78 2449.58,-721.75 2452.49,-728.11"/>
</g>
<!-- u14 -->
<g id="node25" class="node">
<title>u14</title>
<ellipse fill="#77ff77" stroke="black" cx="750.88" cy="-1529" rx="194.17" ry="18"/>
<text text-anchor="middle" x="750.88" y="-1525.3" font-family="Times,serif" font-size="14.00">Drasil.Shared.LanguageRenderer.CLike</text>
</g>
<!-- u23&#45;&gt;u14 -->
<g id="edge40" class="edge">
<title>u23&#45;&gt;u14</title>
<path fill="none" stroke="black" d="M749.98,-1676.76C750.16,-1648.26 750.51,-1591.12 750.71,-1557.16"/>
<polygon fill="black" stroke="black" points="754.21,-1557.03 750.77,-1547.01 747.21,-1556.99 754.21,-1557.03"/>
</g>
<!-- u11 -->
<g id="node28" class="node">
<title>u11</title>
<ellipse fill="#77ff77" stroke="black" cx="1178.88" cy="-1529" rx="209.06" ry="18"/>
<text text-anchor="middle" x="1178.88" y="-1525.3" font-family="Times,serif" font-size="14.00">Drasil.Shared.LanguageRenderer.Common</text>
</g>
<!-- u23&#45;&gt;u11 -->
<g id="edge39" class="edge">
<title>u23&#45;&gt;u11</title>
<path fill="none" stroke="black" d="M793.77,-1677.22C873.14,-1646.88 1040.22,-1583.01 1125.84,-1550.28"/>
<polygon fill="black" stroke="black" points="1127.27,-1553.47 1135.36,-1546.63 1124.77,-1546.94 1127.27,-1553.47"/>
</g>
<!-- u10 -->
<g id="node29" class="node">
<title>u10</title>
<ellipse fill="#77ff77" stroke="black" cx="2139.88" cy="-1529" rx="202.26" ry="18"/>
<text text-anchor="middle" x="2139.88" y="-1525.3" font-family="Times,serif" font-size="14.00">Drasil.Shared.LanguageRenderer.Macros</text>
</g>
<!-- u23&#45;&gt;u10 -->
<g id="edge38" class="edge">
<title>u23&#45;&gt;u10</title>
<path fill="none" stroke="black" d="M871.41,-1679.66C1132.97,-1648.8 1747.09,-1576.34 2013.21,-1544.95"/>
<polygon fill="black" stroke="black" points="2013.78,-1548.4 2023.3,-1543.75 2012.96,-1541.45 2013.78,-1548.4"/>
</g>
<!-- u9 -->
<g id="node30" class="node">
<title>u9</title>
<ellipse fill="#77ff77" stroke="black" cx="1662.88" cy="-1529" rx="256.95" ry="18"/>
<text text-anchor="middle" x="1662.88" y="-1525.3" font-family="Times,serif" font-size="14.00">Drasil.Shared.LanguageRenderer.CommonPseudoOO</text>
</g>
<!-- u23&#45;&gt;u9 -->
<g id="edge37" class="edge">
<title>u23&#45;&gt;u9</title>
<path fill="none" stroke="black" d="M837.42,-1678.27C1008.26,-1647.59 1385,-1579.91 1564.3,-1547.71"/>
<polygon fill="black" stroke="black" points="1565.04,-1551.13 1574.26,-1545.92 1563.8,-1544.24 1565.04,-1551.13"/>
</g>
<!-- u22&#45;&gt;u14 -->
<g id="edge36" class="edge">
<title>u22&#45;&gt;u14</title>
<path fill="none" stroke="black" d="M1190.3,-1677.37C1099.45,-1646.9 906.72,-1582.27 809.53,-1549.67"/>
<polygon fill="black" stroke="black" points="810.45,-1546.29 799.86,-1546.43 808.23,-1552.93 810.45,-1546.29"/>
</g>
<!-- u22&#45;&gt;u11 -->
<g id="edge35" class="edge">
<title>u22&#45;&gt;u11</title>
<path fill="none" stroke="black" d="M1233.46,-1676.76C1222.82,-1648.14 1201.43,-1590.63 1188.82,-1556.72"/>
<polygon fill="black" stroke="black" points="1191.97,-1555.16 1185.2,-1547.01 1185.41,-1557.6 1191.97,-1555.16"/>
</g>
<!-- u22&#45;&gt;u10 -->
<g id="edge34" class="edge">
<title>u22&#45;&gt;u10</title>
<path fill="none" stroke="black" d="M1326.58,-1678.2C1496.1,-1647.31 1870.16,-1579.15 2045.59,-1547.18"/>
<polygon fill="black" stroke="black" points="2046.37,-1550.6 2055.58,-1545.36 2045.11,-1543.71 2046.37,-1550.6"/>
</g>
<!-- u22&#45;&gt;u9 -->
<g id="edge33" class="edge">
<title>u22&#45;&gt;u9</title>
<path fill="none" stroke="black" d="M1283.16,-1677.22C1361.32,-1646.92 1525.73,-1583.17 1610.25,-1550.4"/>
<polygon fill="black" stroke="black" points="1611.6,-1553.63 1619.66,-1546.76 1609.07,-1547.11 1611.6,-1553.63"/>
</g>
<!-- u21&#45;&gt;u11 -->
<g id="edge32" class="edge">
<title>u21&#45;&gt;u11</title>
<path fill="none" stroke="black" d="M2145.98,-1678.64C1945.02,-1647.76 1493.47,-1578.35 1286.37,-1546.52"/>
<polygon fill="black" stroke="black" points="1286.81,-1543.05 1276.39,-1544.99 1285.75,-1549.97 1286.81,-1543.05"/>
</g>
<!-- u21&#45;&gt;u10 -->
<g id="edge31" class="edge">
<title>u21&#45;&gt;u10</title>
<path fill="none" stroke="black" d="M2234.73,-1676.76C2216,-1647.77 2178.1,-1589.13 2156.3,-1555.41"/>
<polygon fill="black" stroke="black" points="2159.24,-1553.51 2150.87,-1547.01 2153.36,-1557.31 2159.24,-1553.51"/>
</g>
<!-- u21&#45;&gt;u9 -->
<g id="edge30" class="edge">
<title>u21&#45;&gt;u9</title>
<path fill="none" stroke="black" d="M2187.31,-1677.52C2078.87,-1647.02 1847.35,-1581.89 1731.66,-1549.35"/>
<polygon fill="black" stroke="black" points="1732.42,-1545.93 1721.84,-1546.59 1730.52,-1552.66 1732.42,-1545.93"/>
</g>
<!-- u20&#45;&gt;u14 -->
<g id="edge29" class="edge">
<title>u20&#45;&gt;u14</title>
<path fill="none" stroke="black" d="M1632.81,-1678.5C1449.25,-1647.59 1039.17,-1578.54 849.99,-1546.69"/>
<polygon fill="black" stroke="black" points="850.49,-1543.22 840.05,-1545.01 849.33,-1550.13 850.49,-1543.22"/>
</g>
<!-- u20&#45;&gt;u11 -->
<g id="edge28" class="edge">
<title>u20&#45;&gt;u11</title>
<path fill="none" stroke="black" d="M1670.03,-1677.52C1568.54,-1647.04 1351.96,-1581.99 1243.53,-1549.42"/>
<polygon fill="black" stroke="black" points="1244.28,-1545.99 1233.69,-1546.46 1242.26,-1552.69 1244.28,-1545.99"/>
</g>
<!-- u20&#45;&gt;u10 -->
<g id="edge27" class="edge">
<title>u20&#45;&gt;u10</title>
<path fill="none" stroke="black" d="M1767.34,-1677.22C1844.04,-1646.91 2005.42,-1583.14 2088.32,-1550.38"/>
<polygon fill="black" stroke="black" points="2089.77,-1553.56 2097.78,-1546.63 2087.2,-1547.05 2089.77,-1553.56"/>
</g>
<!-- u20&#45;&gt;u9 -->
<g id="edge26" class="edge">
<title>u20&#45;&gt;u9</title>
<path fill="none" stroke="black" d="M1718.36,-1676.76C1707.54,-1648.14 1685.8,-1590.63 1672.98,-1556.72"/>
<polygon fill="black" stroke="black" points="1676.12,-1555.13 1669.31,-1547.01 1669.57,-1557.6 1676.12,-1555.13"/>
</g>
<!-- u8 -->
<g id="node16" class="node">
<title>u8</title>
<ellipse fill="#ffbbff" stroke="black" cx="275.88" cy="-1529" rx="112.38" ry="18"/>
<text text-anchor="middle" x="275.88" y="-1525.3" font-family="Times,serif" font-size="14.00">Drasil.Shared.Classes</text>
</g>
<!-- u19&#45;&gt;u8 -->
<g id="edge21" class="edge">
<title>u19&#45;&gt;u8</title>
<path fill="none" stroke="black" d="M275.88,-1676.76C275.88,-1648.26 275.88,-1591.12 275.88,-1557.16"/>
<polygon fill="black" stroke="black" points="279.38,-1557.01 275.88,-1547.01 272.38,-1557.01 279.38,-1557.01"/>
</g>
<!-- u19&#45;&gt;u14 -->
<g id="edge25" class="edge">
<title>u19&#45;&gt;u14</title>
<path fill="none" stroke="black" d="M324.04,-1677.37C412.08,-1646.97 598.63,-1582.56 693.25,-1549.9"/>
<polygon fill="black" stroke="black" points="694.63,-1553.12 702.94,-1546.55 692.35,-1546.5 694.63,-1553.12"/>
</g>
<!-- u19&#45;&gt;u11 -->
<g id="edge24" class="edge">
<title>u19&#45;&gt;u11</title>
<path fill="none" stroke="black" d="M362.05,-1678.35C531.57,-1647.56 907.2,-1579.34 1083.73,-1547.28"/>
<polygon fill="black" stroke="black" points="1084.57,-1550.69 1093.78,-1545.46 1083.32,-1543.8 1084.57,-1550.69"/>
</g>
<!-- u19&#45;&gt;u10 -->
<g id="edge23" class="edge">
<title>u19&#45;&gt;u10</title>
<path fill="none" stroke="black" d="M420.98,-1681.23C767.7,-1650.73 1641.45,-1573.85 1991.48,-1543.06"/>
<polygon fill="black" stroke="black" points="1992.03,-1546.52 2001.69,-1542.16 1991.42,-1539.55 1992.03,-1546.52"/>
</g>
<!-- u19&#45;&gt;u9 -->
<g id="edge22" class="edge">
<title>u19&#45;&gt;u9</title>
<path fill="none" stroke="black" d="M396.24,-1679.77C653.97,-1649.29 1257.71,-1577.91 1527.94,-1545.95"/>
<polygon fill="black" stroke="black" points="1528.68,-1549.39 1538.2,-1544.74 1527.86,-1542.44 1528.68,-1549.39"/>
</g>
<!-- u26 -->
<g id="node11" class="node">
<title>u26</title>
<ellipse fill="#ffbbbb" stroke="black" cx="2847.88" cy="-703" rx="135.68" ry="18"/>
<text text-anchor="middle" x="2847.88" y="-699.3" font-family="Times,serif" font-size="14.00">Drasil.GProc.InterfaceProc</text>
</g>
<!-- u26&#45;&gt;u0 -->
<g id="edge45" class="edge">
<title>u26&#45;&gt;u0</title>
<path fill="none" stroke="black" d="M2812.62,-685.52C2748.31,-655.48 2612.13,-591.85 2541.48,-558.84"/>
<polygon fill="black" stroke="black" points="2542.92,-555.65 2532.38,-554.59 2539.96,-561.99 2542.92,-555.65"/>
</g>
<!-- u25&#45;&gt;u26 -->
<g id="edge44" class="edge">
<title>u25&#45;&gt;u26</title>
<path fill="none" stroke="black" d="M2998.22,-849.86C2968.14,-820.68 2906.92,-761.28 2872.6,-727.99"/>
<polygon fill="black" stroke="black" points="2874.92,-725.36 2865.3,-720.91 2870.04,-730.38 2874.92,-725.36"/>
</g>
<!-- u25&#45;&gt;u2 -->
<g id="edge43" class="edge">
<title>u25&#45;&gt;u2</title>
<path fill="none" stroke="black" d="M3017.49,-849.8C3019.86,-816.09 3021.31,-739.85 2992.88,-685 2964.41,-630.09 2906.69,-585.39 2868.66,-560.23"/>
<polygon fill="black" stroke="black" points="2870.21,-557.07 2859.92,-554.57 2866.41,-562.94 2870.21,-557.07"/>
</g>
<!-- u24 -->
<g id="node13" class="node">
<title>u24</title>
<ellipse fill="#ffbbbb" stroke="black" cx="2690.88" cy="-868" rx="172.47" ry="18"/>
<text text-anchor="middle" x="2690.88" y="-864.3" font-family="Times,serif" font-size="14.00">Drasil.GProc.RendererClassesProc</text>
</g>
<!-- u24&#45;&gt;u26 -->
<g id="edge42" class="edge">
<title>u24&#45;&gt;u26</title>
<path fill="none" stroke="black" d="M2707.38,-849.86C2735.37,-820.81 2792.23,-761.78 2824.37,-728.41"/>
<polygon fill="black" stroke="black" points="2827.18,-730.54 2831.59,-720.91 2822.14,-725.68 2827.18,-730.54"/>
</g>
<!-- u24&#45;&gt;u4 -->
<g id="edge41" class="edge">
<title>u24&#45;&gt;u4</title>
<path fill="none" stroke="black" d="M2670.48,-849.86C2635.61,-820.56 2564.46,-760.78 2524.93,-727.57"/>
<polygon fill="black" stroke="black" points="2526.91,-724.66 2517,-720.91 2522.4,-730.02 2526.91,-724.66"/>
</g>
<!-- u28 -->
<g id="node14" class="node">
<title>u28</title>
<ellipse fill="#bbffff" stroke="black" cx="2764.88" cy="-1695" rx="223.66" ry="18"/>
<text text-anchor="middle" x="2764.88" y="-1691.3" font-family="Times,serif" font-size="14.00">Drasil.GProc.LanguageRenderer.AbstractProc</text>
</g>
<!-- u28&#45;&gt;u24 -->
<g id="edge51" class="edge">
<title>u28&#45;&gt;u24</title>
<path fill="none" stroke="black" d="M2761.59,-1676.95C2752.54,-1628.39 2727.88,-1485.13 2727.88,-1365 2727.88,-1365 2727.88,-1365 2727.88,-1198 2727.88,-1085.38 2706.2,-952.42 2696.03,-896.23"/>
<polygon fill="black" stroke="black" points="2699.41,-895.25 2694.16,-886.05 2692.53,-896.52 2699.41,-895.25"/>
</g>
<!-- u28&#45;&gt;u9 -->
<g id="edge50" class="edge">
<title>u28&#45;&gt;u9</title>
<path fill="none" stroke="black" d="M2663.67,-1678.94C2458.09,-1648.34 1992.87,-1579.11 1776.94,-1546.98"/>
<polygon fill="black" stroke="black" points="1777.26,-1543.48 1766.85,-1545.47 1776.23,-1550.41 1777.26,-1543.48"/>
</g>
<!-- u27&#45;&gt;u28 -->
<g id="edge49" class="edge">
<title>u27&#45;&gt;u28</title>
<path fill="none" stroke="black" d="M2539.37,-1841.86C2585.15,-1812.25 2679.03,-1751.53 2730.04,-1718.54"/>
<polygon fill="black" stroke="black" points="2732.24,-1721.28 2738.74,-1712.91 2728.44,-1715.4 2732.24,-1721.28"/>
</g>
<!-- u27&#45;&gt;u14 -->
<g id="edge48" class="edge">
<title>u27&#45;&gt;u14</title>
<path fill="none" stroke="black" d="M2297.43,-1854.21C1709.96,-1840.1 118.72,-1794.51 41.88,-1713 -40.12,-1626.01 381.05,-1568.06 610.32,-1543.44"/>
<polygon fill="black" stroke="black" points="610.84,-1546.9 620.41,-1542.36 610.1,-1539.94 610.84,-1546.9"/>
</g>
<!-- u27&#45;&gt;u11 -->
<g id="edge47" class="edge">
<title>u27&#45;&gt;u11</title>
<path fill="none" stroke="black" d="M2405.97,-1844.09C2297.56,-1825.54 2127.72,-1786.88 1997.88,-1713 1977.66,-1701.49 1980.6,-1687.58 1959.88,-1677 1847.69,-1619.7 1498.17,-1569.35 1306.98,-1545.19"/>
<polygon fill="black" stroke="black" points="1307.23,-1541.69 1296.87,-1543.92 1306.36,-1548.64 1307.23,-1541.69"/>
</g>
<!-- u27&#45;&gt;u10 -->
<g id="edge46" class="edge">
<title>u27&#45;&gt;u10</title>
<path fill="none" stroke="black" d="M2516.37,-1841.92C2522.46,-1807.09 2531.09,-1726.92 2493.88,-1677 2437.62,-1601.53 2335.45,-1564.58 2255.29,-1546.63"/>
<polygon fill="black" stroke="black" points="2255.64,-1543.12 2245.13,-1544.43 2254.16,-1549.96 2255.64,-1543.12"/>
</g>
<!-- u7 -->
<g id="node17" class="node">
<title>u7</title>
<ellipse fill="#ffbbff" stroke="black" cx="2496.88" cy="-372" rx="102.88" ry="18"/>
<text text-anchor="middle" x="2496.88" y="-368.3" font-family="Times,serif" font-size="14.00">Drasil.Shared.State</text>
</g>
<!-- u6 -->
<g id="node18" class="node">
<title>u6</title>
<ellipse fill="#ffbbff" stroke="black" cx="2453.88" cy="-207" rx="139.98" ry="18"/>
<text text-anchor="middle" x="2453.88" y="-203.3" font-family="Times,serif" font-size="14.00">Drasil.Shared.CodeAnalysis</text>
</g>
<!-- u7&#45;&gt;u6 -->
<g id="edge7" class="edge">
<title>u7&#45;&gt;u6</title>
<path fill="none" stroke="black" d="M2492.36,-353.86C2484.89,-325.57 2469.93,-268.85 2461.02,-235.08"/>
<polygon fill="black" stroke="black" points="2464.4,-234.17 2458.47,-225.4 2457.63,-235.96 2464.4,-234.17"/>
</g>
<!-- u5 -->
<g id="node19" class="node">
<title>u5</title>
<ellipse fill="#ffbbff" stroke="black" cx="2707.88" cy="-207" rx="96.38" ry="18"/>
<text text-anchor="middle" x="2707.88" y="-203.3" font-family="Times,serif" font-size="14.00">Drasil.Shared.AST</text>
</g>
<!-- u7&#45;&gt;u5 -->
<g id="edge6" class="edge">
<title>u7&#45;&gt;u5</title>
<path fill="none" stroke="black" d="M2518.66,-354.17C2556.67,-324.81 2635.12,-264.2 2678.11,-231"/>
<polygon fill="black" stroke="black" points="2680.44,-233.62 2686.21,-224.74 2676.16,-228.08 2680.44,-233.62"/>
</g>
<!-- u3 -->
<g id="node21" class="node">
<title>u3</title>
<ellipse fill="#ffbbff" stroke="black" cx="2769.88" cy="-41" rx="123.48" ry="18"/>
<text text-anchor="middle" x="2769.88" y="-37.3" font-family="Times,serif" font-size="14.00">Drasil.Shared.CodeType</text>
</g>
<!-- u5&#45;&gt;u3 -->
<g id="edge5" class="edge">
<title>u5&#45;&gt;u3</title>
<path fill="none" stroke="black" d="M2714.4,-188.76C2725.22,-160.14 2746.96,-102.63 2759.78,-68.72"/>
<polygon fill="black" stroke="black" points="2763.18,-69.6 2763.45,-59.01 2756.64,-67.13 2763.18,-69.6"/>
</g>
<!-- u4&#45;&gt;u0 -->
<g id="edge4" class="edge">
<title>u4&#45;&gt;u0</title>
<path fill="none" stroke="black" d="M2496.88,-684.76C2496.88,-656.26 2496.88,-599.12 2496.88,-565.16"/>
<polygon fill="black" stroke="black" points="2500.38,-565.01 2496.88,-555.01 2493.38,-565.01 2500.38,-565.01"/>
</g>
<!-- u2&#45;&gt;u3 -->
<g id="edge3" class="edge">
<title>u2&#45;&gt;u3</title>
<path fill="none" stroke="black" d="M2832.32,-518.87C2833.35,-468.11 2834.32,-314.18 2812.88,-189 2805.53,-146.1 2790,-97.95 2779.75,-68.82"/>
<polygon fill="black" stroke="black" points="2783.03,-67.58 2776.37,-59.34 2776.43,-69.94 2783.03,-67.58"/>
</g>
<!-- u1 -->
<g id="node23" class="node">
<title>u1</title>
<ellipse fill="#ffbbff" stroke="black" cx="1659.88" cy="-1033" rx="166.27" ry="18"/>
<text text-anchor="middle" x="1659.88" y="-1029.3" font-family="Times,serif" font-size="14.00">Drasil.Shared.LanguageRenderer</text>
</g>
<!-- u1&#45;&gt;u16 -->
<g id="edge2" class="edge">
<title>u1&#45;&gt;u16</title>
<path fill="none" stroke="black" d="M1708.1,-1015.62C1797.16,-985.38 1987.06,-920.89 2082.55,-888.47"/>
<polygon fill="black" stroke="black" points="2083.7,-891.77 2092.04,-885.24 2081.45,-885.15 2083.7,-891.77"/>
</g>
<!-- u0&#45;&gt;u7 -->
<g id="edge1" class="edge">
<title>u0&#45;&gt;u7</title>
<path fill="none" stroke="black" d="M2496.88,-518.86C2496.88,-490.69 2496.88,-434.34 2496.88,-400.52"/>
<polygon fill="black" stroke="black" points="2500.38,-400.4 2496.88,-390.4 2493.38,-400.4 2500.38,-400.4"/>
</g>
<!-- u12 -->
<g id="node27" class="node">
<title>u12</title>
<ellipse fill="#77ff77" stroke="black" cx="1374.88" cy="-1199" rx="228.56" ry="18"/>
<text text-anchor="middle" x="1374.88" y="-1195.3" font-family="Times,serif" font-size="14.00">Drasil.Shared.LanguageRenderer.Constructors</text>
</g>
<!-- u14&#45;&gt;u12 -->
<g id="edge13" class="edge">
<title>u14&#45;&gt;u12</title>
<path fill="none" stroke="black" d="M783.11,-1511.06C887.72,-1456.07 1217.65,-1282.65 1333.87,-1221.55"/>
<polygon fill="black" stroke="black" points="1335.61,-1224.59 1342.84,-1216.84 1332.36,-1218.4 1335.61,-1224.59"/>
</g>
<!-- u13 -->
<g id="node26" class="node">
<title>u13</title>
<ellipse fill="#77ff77" stroke="black" cx="1570.88" cy="-1364" rx="271.05" ry="18"/>
<text text-anchor="middle" x="1570.88" y="-1360.3" font-family="Times,serif" font-size="14.00">Drasil.Shared.LanguageRenderer.LanguagePolymorphic</text>
</g>
<!-- u13&#45;&gt;u12 -->
<g id="edge12" class="edge">
<title>u13&#45;&gt;u12</title>
<path fill="none" stroke="black" d="M1550.27,-1345.86C1515.06,-1316.58 1443.23,-1256.84 1403.28,-1223.62"/>
<polygon fill="black" stroke="black" points="1405.43,-1220.85 1395.5,-1217.15 1400.95,-1226.24 1405.43,-1220.85"/>
</g>
<!-- u12&#45;&gt;u1 -->
<g id="edge11" class="edge">
<title>u12&#45;&gt;u1</title>
<path fill="none" stroke="black" d="M1404.3,-1181.07C1456.28,-1151.16 1564.26,-1089.02 1621.82,-1055.9"/>
<polygon fill="black" stroke="black" points="1623.69,-1058.86 1630.61,-1050.84 1620.2,-1052.8 1623.69,-1058.86"/>
</g>
<!-- u11&#45;&gt;u12 -->
<g id="edge10" class="edge">
<title>u11&#45;&gt;u12</title>
<path fill="none" stroke="black" d="M1189.14,-1510.83C1221.42,-1456.8 1321.04,-1290.1 1359.5,-1225.73"/>
<polygon fill="black" stroke="black" points="1362.59,-1227.38 1364.72,-1217 1356.58,-1223.79 1362.59,-1227.38"/>
</g>
<!-- u10&#45;&gt;u16 -->
<g id="edge9" class="edge">
<title>u10&#45;&gt;u16</title>
<path fill="none" stroke="black" d="M2139.88,-1510.71C2139.88,-1420.89 2139.88,-1007.35 2139.88,-896.44"/>
<polygon fill="black" stroke="black" points="2143.38,-896.11 2139.88,-886.11 2136.38,-896.11 2143.38,-896.11"/>
</g>
<!-- u9&#45;&gt;u13 -->
<g id="edge8" class="edge">
<title>u9&#45;&gt;u13</title>
<path fill="none" stroke="black" d="M1653.21,-1510.86C1637.1,-1482.32 1604.67,-1424.87 1585.67,-1391.21"/>
<polygon fill="black" stroke="black" points="1588.66,-1389.39 1580.7,-1382.4 1582.56,-1392.83 1588.66,-1389.39"/>
</g>
</g>
</svg>
