<?xml version="1.0" encoding="UTF-8" standalone="no"?>
<!DOCTYPE svg PUBLIC "-//W3C//DTD SVG 1.1//EN"
 "http://www.w3.org/Graphics/SVG/1.1/DTD/svg11.dtd">
<!-- Generated by graphviz version 2.43.0 (0)
 -->
<!-- Title: G Pages: 1 -->
<svg width="430pt" height="288pt"
 viewBox="0.00 0.00 430.47 288.00" xmlns="http://www.w3.org/2000/svg" xmlns:xlink="http://www.w3.org/1999/xlink">
<g id="graph0" class="graph" transform="scale(0.4 0.4) rotate(0) translate(4 713.33)">
<title>G</title>
<polygon fill="white" stroke="transparent" points="-4,4 -4,-713.33 1068.18,-713.33 1068.18,4 -4,4"/>
<!-- u6 -->
<g id="node1" class="node">
<title>u6</title>
<ellipse fill="#bbffbb" stroke="black" cx="555.74" cy="-638" rx="63.89" ry="18"/>
<text text-anchor="middle" x="555.74" y="-634.3" font-family="Times,serif" font-size="14.00">Utils.Drasil</text>
</g>
<!-- u5 -->
<g id="node2" class="node">
<title>u5</title>
<ellipse fill="#ffffbb" stroke="black" cx="100.74" cy="-355" rx="100.98" ry="18"/>
<text text-anchor="middle" x="100.74" y="-351.3" font-family="Times,serif" font-size="14.00">Utils.Drasil.Strings</text>
</g>
<!-- u6&#45;&gt;u5 -->
<g id="edge6" class="edge">
<title>u6&#45;&gt;u5</title>
<path fill="none" stroke="black" d="M530.3,-621.29C453.59,-573.91 224.36,-432.35 136.01,-377.78"/>
<polygon fill="black" stroke="black" points="137.76,-374.75 127.42,-372.47 134.08,-380.71 137.76,-374.75"/>
</g>
<!-- u4 -->
<g id="node3" class="node">
<title>u4</title>
<ellipse fill="#ffffbb" stroke="black" cx="321.74" cy="-355" rx="102.08" ry="18"/>
<text text-anchor="middle" x="321.74" y="-351.3" font-family="Times,serif" font-size="14.00">Utils.Drasil.English</text>
</g>
<!-- u6&#45;&gt;u4 -->
<g id="edge5" class="edge">
<title>u6&#45;&gt;u4</title>
<path fill="none" stroke="black" d="M541.8,-620.26C502.31,-572.84 389.49,-437.35 342.58,-381.03"/>
<polygon fill="black" stroke="black" points="344.99,-378.45 335.9,-373 339.61,-382.93 344.99,-378.45"/>
</g>
<!-- u3 -->
<g id="node4" class="node">
<title>u3</title>
<ellipse fill="#ffffbb" stroke="black" cx="555.74" cy="-355" rx="114.28" ry="18"/>
<text text-anchor="middle" x="555.74" y="-351.3" font-family="Times,serif" font-size="14.00">Utils.Drasil.Document</text>
</g>
<!-- u6&#45;&gt;u3 -->
<g id="edge4" class="edge">
<title>u6&#45;&gt;u3</title>
<path fill="none" stroke="black" d="M555.74,-619.85C555.74,-572.72 555.74,-440.96 555.74,-383.44"/>
<polygon fill="black" stroke="black" points="559.24,-383.29 555.74,-373.29 552.24,-383.29 559.24,-383.29"/>
</g>
<!-- u1 -->
<g id="node6" class="node">
<title>u1</title>
<ellipse fill="#ffffbb" stroke="black" cx="780.74" cy="-355" rx="92.08" ry="18"/>
<text text-anchor="middle" x="780.74" y="-351.3" font-family="Times,serif" font-size="14.00">Utils.Drasil.Maps</text>
</g>
<!-- u6&#45;&gt;u1 -->
<g id="edge3" class="edge">
<title>u6&#45;&gt;u1</title>
<path fill="none" stroke="black" d="M569.14,-620.26C607.12,-572.84 715.6,-437.35 760.7,-381.03"/>
<polygon fill="black" stroke="black" points="763.61,-383 767.13,-373 758.14,-378.62 763.61,-383"/>
</g>
<!-- u0 -->
<g id="node7" class="node">
<title>u0</title>
<ellipse fill="#ffffbb" stroke="black" cx="977.74" cy="-355" rx="86.38" ry="18"/>
<text text-anchor="middle" x="977.74" y="-351.3" font-family="Times,serif" font-size="14.00">Utils.Drasil.CSV</text>
</g>
<!-- u6&#45;&gt;u0 -->
<g id="edge2" class="edge">
<title>u6&#45;&gt;u0</title>
<path fill="none" stroke="black" d="M579.64,-621.09C650.97,-573.59 862.47,-432.76 944.6,-378.07"/>
<polygon fill="black" stroke="black" points="946.67,-380.89 953.05,-372.44 942.79,-375.07 946.67,-380.89"/>
</g>
<!-- u2 -->
<g id="node5" class="node">
<title>u2</title>
<ellipse fill="#ffffbb" stroke="black" cx="100.74" cy="-71" rx="89.08" ry="18"/>
<text text-anchor="middle" x="100.74" y="-67.3" font-family="Times,serif" font-size="14.00">Utils.Drasil.Lists</text>
</g>
<!-- u5&#45;&gt;u2 -->
<g id="edge1" class="edge">
<title>u5&#45;&gt;u2</title>
<path fill="none" stroke="black" d="M100.74,-336.78C100.74,-289.49 100.74,-157.26 100.74,-99.54"/>
<polygon fill="black" stroke="black" points="104.24,-99.35 100.74,-89.35 97.24,-99.35 104.24,-99.35"/>
</g>
</g>
</svg>
