<?xml version="1.0" encoding="UTF-8" standalone="no"?>
<!DOCTYPE svg PUBLIC "-//W3C//DTD SVG 1.1//EN"
 "http://www.w3.org/Graphics/SVG/1.1/DTD/svg11.dtd">
<!-- Generated by graphviz version 2.43.0 (0)
 -->
<!-- Title: G Pages: 1 -->
<svg width="432pt" height="288pt"
 viewBox="0.00 0.00 431.74 288.00" xmlns="http://www.w3.org/2000/svg" xmlns:xlink="http://www.w3.org/1999/xlink">
<g id="graph0" class="graph" transform="scale(12.9 12.9) rotate(0) translate(4 3711.33)">
<title>G</title>
<polygon fill="white" stroke="transparent" points="-4,4 -4,-3711.33 5565.65,-3711.33 5565.65,4 -4,4"/>
<!-- u57 -->
<g id="node1" class="node">
<title>u57</title>
<ellipse fill="#bbffbb" stroke="black" cx="1787.92" cy="-3408" rx="52.79" ry="18"/>
<text text-anchor="middle" x="1787.92" y="-3404.3" font-family="Times,serif" font-size="14.00">FileTests</text>
</g>
<!-- u56 -->
<g id="node2" class="node">
<title>u56</title>
<ellipse fill="#bbffbb" stroke="black" cx="2235.92" cy="-3169" rx="53.89" ry="18"/>
<text text-anchor="middle" x="2235.92" y="-3165.3" font-family="Times,serif" font-size="14.00">Observer</text>
</g>
<!-- u55 -->
<g id="node3" class="node">
<title>u55</title>
<ellipse fill="#bbffbb" stroke="black" cx="1934.92" cy="-3408" rx="76.09" ry="18"/>
<text text-anchor="middle" x="1934.92" y="-3404.3" font-family="Times,serif" font-size="14.00">NameGenTest</text>
</g>
<!-- u54 -->
<g id="node4" class="node">
<title>u54</title>
<ellipse fill="#bbffbb" stroke="black" cx="2090.92" cy="-3169" rx="42.49" ry="18"/>
<text text-anchor="middle" x="2090.92" y="-3165.3" font-family="Times,serif" font-size="14.00">Helper</text>
</g>
<!-- u53 -->
<g id="node5" class="node">
<title>u53</title>
<ellipse fill="#bbffbb" stroke="black" cx="2090.92" cy="-3408" rx="62.29" ry="18"/>
<text text-anchor="middle" x="2090.92" y="-3404.3" font-family="Times,serif" font-size="14.00">HelloWorld</text>
</g>
<!-- u53&#45;&gt;u54 -->
<g id="edge86" class="edge">
<title>u53&#45;&gt;u54</title>
<path fill="none" stroke="black" d="M2090.92,-3389.96C2090.92,-3349.4 2090.92,-3246.87 2090.92,-3197.46"/>
<polygon fill="black" stroke="black" points="2094.42,-3197.21 2090.92,-3187.21 2087.42,-3197.21 2094.42,-3197.21"/>
</g>
<!-- u52 -->
<g id="node6" class="node">
<title>u52</title>
<ellipse fill="#bbffbb" stroke="black" cx="2235.92" cy="-3408" rx="64.99" ry="18"/>
<text text-anchor="middle" x="2235.92" y="-3404.3" font-family="Times,serif" font-size="14.00">PatternTest</text>
</g>
<!-- u52&#45;&gt;u56 -->
<g id="edge85" class="edge">
<title>u52&#45;&gt;u56</title>
<path fill="none" stroke="black" d="M2235.92,-3389.96C2235.92,-3349.4 2235.92,-3246.87 2235.92,-3197.46"/>
<polygon fill="black" stroke="black" points="2239.42,-3197.21 2235.92,-3187.21 2232.42,-3197.21 2239.42,-3197.21"/>
</g>
<!-- u51 -->
<g id="node7" class="node">
<title>u51</title>
<ellipse fill="#bbffbb" stroke="black" cx="2378.92" cy="-3408" rx="59.59" ry="18"/>
<text text-anchor="middle" x="2378.92" y="-3404.3" font-family="Times,serif" font-size="14.00">VectorTest</text>
</g>
<!-- u50 -->
<g id="node8" class="node">
<title>u50</title>
<ellipse fill="#ffffbb" stroke="black" cx="2569.92" cy="-3648" rx="214.46" ry="18"/>
<text text-anchor="middle" x="2569.92" y="-3644.3" font-family="Times,serif" font-size="14.00">Data.Drasil.ExternalLibraries.ODELibraries</text>
</g>
<!-- u6 -->
<g id="node12" class="node">
<title>u6</title>
<ellipse fill="#bbbbff" stroke="black" cx="2569.92" cy="-3408" rx="113.18" ry="18"/>
<text text-anchor="middle" x="2569.92" y="-3404.3" font-family="Times,serif" font-size="14.00">Language.Drasil.Code</text>
</g>
<!-- u50&#45;&gt;u6 -->
<g id="edge84" class="edge">
<title>u50&#45;&gt;u6</title>
<path fill="none" stroke="black" d="M2569.92,-3629.88C2569.92,-3589.16 2569.92,-3486.2 2569.92,-3436.57"/>
<polygon fill="black" stroke="black" points="2573.42,-3436.28 2569.92,-3426.28 2566.42,-3436.28 2573.42,-3436.28"/>
</g>
<!-- u49 -->
<g id="node9" class="node">
<title>u49</title>
<ellipse fill="#bbbbff" stroke="black" cx="3206.92" cy="-1495" rx="126.18" ry="18"/>
<text text-anchor="middle" x="3206.92" y="-1491.3" font-family="Times,serif" font-size="14.00">Language.Drasil.Choices</text>
</g>
<!-- u12 -->
<g id="node21" class="node">
<title>u12</title>
<ellipse fill="#bbffff" stroke="black" cx="2865.92" cy="-1256" rx="139.98" ry="18"/>
<text text-anchor="middle" x="2865.92" y="-1252.3" font-family="Times,serif" font-size="14.00">Language.Drasil.Code.Code</text>
</g>
<!-- u49&#45;&gt;u12 -->
<g id="edge82" class="edge">
<title>u49&#45;&gt;u12</title>
<path fill="none" stroke="black" d="M3182.67,-1477.15C3122.55,-1435.36 2966.59,-1326.97 2898.51,-1279.65"/>
<polygon fill="black" stroke="black" points="2900.48,-1276.76 2890.27,-1273.93 2896.49,-1282.51 2900.48,-1276.76"/>
</g>
<!-- u46 -->
<g id="node57" class="node">
<title>u46</title>
<ellipse fill="#ff77ff" stroke="black" cx="3605.92" cy="-1256" rx="172.77" ry="18"/>
<text text-anchor="middle" x="3605.92" y="-1252.3" font-family="Times,serif" font-size="14.00">Language.Drasil.Data.ODELibPckg</text>
</g>
<!-- u49&#45;&gt;u46 -->
<g id="edge83" class="edge">
<title>u49&#45;&gt;u46</title>
<path fill="none" stroke="black" d="M3234.98,-1477.33C3305.43,-1435.48 3489.81,-1325.97 3568.96,-1278.95"/>
<polygon fill="black" stroke="black" points="3570.82,-1281.92 3577.63,-1273.81 3567.24,-1275.9 3570.82,-1281.92"/>
</g>
<!-- u48 -->
<g id="node10" class="node">
<title>u48</title>
<ellipse fill="#bbbbff" stroke="black" cx="4301.92" cy="-777" rx="110.48" ry="18"/>
<text text-anchor="middle" x="4301.92" y="-773.3" font-family="Times,serif" font-size="14.00">Language.Drasil.Mod</text>
</g>
<!-- u4 -->
<g id="node14" class="node">
<title>u4</title>
<ellipse fill="#ffbbbb" stroke="black" cx="4301.92" cy="-538" rx="170.87" ry="18"/>
<text text-anchor="middle" x="4301.92" y="-534.3" font-family="Times,serif" font-size="14.00">Language.Drasil.Chunk.Parameter</text>
</g>
<!-- u48&#45;&gt;u4 -->
<g id="edge80" class="edge">
<title>u48&#45;&gt;u4</title>
<path fill="none" stroke="black" d="M4301.92,-758.96C4301.92,-718.4 4301.92,-615.87 4301.92,-566.46"/>
<polygon fill="black" stroke="black" points="4305.42,-566.21 4301.92,-556.21 4298.42,-566.21 4305.42,-566.21"/>
</g>
<!-- u8 -->
<g id="node25" class="node">
<title>u8</title>
<ellipse fill="#bbffff" stroke="black" cx="3952.92" cy="-538" rx="160.57" ry="18"/>
<text text-anchor="middle" x="3952.92" y="-534.3" font-family="Times,serif" font-size="14.00">Language.Drasil.Code.DataDesc</text>
</g>
<!-- u48&#45;&gt;u8 -->
<g id="edge81" class="edge">
<title>u48&#45;&gt;u8</title>
<path fill="none" stroke="black" d="M4277.38,-759.33C4216.08,-717.71 4056.17,-609.12 3986.35,-561.7"/>
<polygon fill="black" stroke="black" points="3988.14,-558.69 3977.9,-555.96 3984.21,-564.48 3988.14,-558.69"/>
</g>
<!-- u47 -->
<g id="node11" class="node">
<title>u47</title>
<ellipse fill="#bbbbff" stroke="black" cx="3598.92" cy="-1734" rx="135.68" ry="18"/>
<text text-anchor="middle" x="3598.92" y="-1730.3" font-family="Times,serif" font-size="14.00">Language.Drasil.CodeSpec</text>
</g>
<!-- u47&#45;&gt;u49 -->
<g id="edge79" class="edge">
<title>u47&#45;&gt;u49</title>
<path fill="none" stroke="black" d="M3571.35,-1716.33C3502.19,-1674.52 3321.29,-1565.15 3243.42,-1518.07"/>
<polygon fill="black" stroke="black" points="3244.82,-1514.83 3234.45,-1512.65 3241.2,-1520.82 3244.82,-1514.83"/>
</g>
<!-- u5 -->
<g id="node13" class="node">
<title>u5</title>
<ellipse fill="#ffbbbb" stroke="black" cx="3943.92" cy="-1495" rx="191.17" ry="18"/>
<text text-anchor="middle" x="3943.92" y="-1491.3" font-family="Times,serif" font-size="14.00">Language.Drasil.Chunk.CodeDefinition</text>
</g>
<!-- u47&#45;&gt;u5 -->
<g id="edge78" class="edge">
<title>u47&#45;&gt;u5</title>
<path fill="none" stroke="black" d="M3623.45,-1716.15C3684.28,-1674.36 3842.06,-1565.97 3910.94,-1518.65"/>
<polygon fill="black" stroke="black" points="3913.02,-1521.47 3919.28,-1512.93 3909.05,-1515.7 3913.02,-1521.47"/>
</g>
<!-- u3 -->
<g id="node15" class="node">
<title>u3</title>
<ellipse fill="#ffbbbb" stroke="black" cx="3542.92" cy="-1495" rx="192.27" ry="18"/>
<text text-anchor="middle" x="3542.92" y="-1491.3" font-family="Times,serif" font-size="14.00">Language.Drasil.Chunk.ConstraintMap</text>
</g>
<!-- u47&#45;&gt;u3 -->
<g id="edge77" class="edge">
<title>u47&#45;&gt;u3</title>
<path fill="none" stroke="black" d="M3594.89,-1715.96C3585.29,-1675.32 3560.98,-1572.44 3549.33,-1523.15"/>
<polygon fill="black" stroke="black" points="3552.69,-1522.14 3546.98,-1513.21 3545.88,-1523.75 3552.69,-1522.14"/>
</g>
<!-- u37 -->
<g id="node32" class="node">
<title>u37</title>
<ellipse fill="#ffbbff" stroke="black" cx="4221.92" cy="-3169" rx="217.16" ry="18"/>
<text text-anchor="middle" x="4221.92" y="-3165.3" font-family="Times,serif" font-size="14.00">Language.Drasil.Code.Imperative.Generator</text>
</g>
<!-- u6&#45;&gt;u37 -->
<g id="edge10" class="edge">
<title>u6&#45;&gt;u37</title>
<path fill="none" stroke="black" d="M2651,-3395.37C2921.69,-3356.53 3794.85,-3231.27 4108.45,-3186.28"/>
<polygon fill="black" stroke="black" points="4109.06,-3189.73 4118.47,-3184.84 4108.07,-3182.8 4109.06,-3189.73"/>
</g>
<!-- u32 -->
<g id="node37" class="node">
<title>u32</title>
<ellipse fill="#ffbbff" stroke="black" cx="5343.92" cy="-1973" rx="217.96" ry="18"/>
<text text-anchor="middle" x="5343.92" y="-1969.3" font-family="Times,serif" font-size="14.00">Language.Drasil.Code.Imperative.ReadInput</text>
</g>
<!-- u6&#45;&gt;u32 -->
<g id="edge9" class="edge">
<title>u6&#45;&gt;u32</title>
<path fill="none" stroke="black" d="M2671.33,-3399.88C3159.03,-3364.33 5239.92,-3197.03 5239.92,-2931 5239.92,-2931 5239.92,-2931 5239.92,-2451 5239.92,-2275.7 5307.8,-2072.3 5333.88,-2000.63"/>
<polygon fill="black" stroke="black" points="5337.25,-2001.63 5337.41,-1991.03 5330.68,-1999.21 5337.25,-2001.63"/>
</g>
<!-- u25 -->
<g id="node50" class="node">
<title>u25</title>
<ellipse fill="#ff7777" stroke="black" cx="352.92" cy="-2930" rx="352.84" ry="18"/>
<text text-anchor="middle" x="352.92" y="-2926.3" font-family="Times,serif" font-size="14.00">Language.Drasil.Code.Imperative.GOOL.LanguageRenderer.CppRenderer</text>
</g>
<!-- u6&#45;&gt;u25 -->
<g id="edge8" class="edge">
<title>u6&#45;&gt;u25</title>
<path fill="none" stroke="black" d="M2558.28,-3390.04C2524.59,-3342.55 2421.6,-3207.97 2298.92,-3151 2142.51,-3078.37 1011.83,-2982.69 549.32,-2946.11"/>
<polygon fill="black" stroke="black" points="549.44,-2942.6 539.19,-2945.31 548.88,-2949.58 549.44,-2942.6"/>
</g>
<!-- u24 -->
<g id="node51" class="node">
<title>u24</title>
<ellipse fill="#ff7777" stroke="black" cx="1092.92" cy="-2930" rx="369.33" ry="18"/>
<text text-anchor="middle" x="1092.92" y="-2926.3" font-family="Times,serif" font-size="14.00">Language.Drasil.Code.Imperative.GOOL.LanguageRenderer.CSharpRenderer</text>
</g>
<!-- u6&#45;&gt;u24 -->
<g id="edge7" class="edge">
<title>u6&#45;&gt;u24</title>
<path fill="none" stroke="black" d="M2564.11,-3389.75C2547.3,-3342.66 2493.76,-3211.42 2400.92,-3151 2223.36,-3035.44 1625.32,-2972.34 1302.97,-2945.99"/>
<polygon fill="black" stroke="black" points="1302.82,-2942.47 1292.57,-2945.15 1302.25,-2949.45 1302.82,-2942.47"/>
</g>
<!-- u23 -->
<g id="node52" class="node">
<title>u23</title>
<ellipse fill="#ff7777" stroke="black" cx="1838.92" cy="-2930" rx="358.54" ry="18"/>
<text text-anchor="middle" x="1838.92" y="-2926.3" font-family="Times,serif" font-size="14.00">Language.Drasil.Code.Imperative.GOOL.LanguageRenderer.SwiftRenderer</text>
</g>
<!-- u6&#45;&gt;u23 -->
<g id="edge6" class="edge">
<title>u6&#45;&gt;u23</title>
<path fill="none" stroke="black" d="M2568.37,-3389.99C2563.34,-3344.63 2543.46,-3219.58 2472.92,-3151 2343.62,-3025.29 2138.9,-2971.17 1997.23,-2948.03"/>
<polygon fill="black" stroke="black" points="1997.57,-2944.53 1987.14,-2946.41 1996.46,-2951.45 1997.57,-2944.53"/>
</g>
<!-- u22 -->
<g id="node53" class="node">
<title>u22</title>
<ellipse fill="#ff7777" stroke="black" cx="2569.92" cy="-2930" rx="354.44" ry="18"/>
<text text-anchor="middle" x="2569.92" y="-2926.3" font-family="Times,serif" font-size="14.00">Language.Drasil.Code.Imperative.GOOL.LanguageRenderer.JavaRenderer</text>
</g>
<!-- u6&#45;&gt;u22 -->
<g id="edge5" class="edge">
<title>u6&#45;&gt;u22</title>
<path fill="none" stroke="black" d="M2569.92,-3389.78C2569.92,-3318.49 2569.92,-3046.15 2569.92,-2958.41"/>
<polygon fill="black" stroke="black" points="2573.42,-2958.2 2569.92,-2948.2 2566.42,-2958.2 2573.42,-2958.2"/>
</g>
<!-- u20 -->
<g id="node55" class="node">
<title>u20</title>
<ellipse fill="#ff7777" stroke="black" cx="3308.92" cy="-2930" rx="367.43" ry="18"/>
<text text-anchor="middle" x="3308.92" y="-2926.3" font-family="Times,serif" font-size="14.00">Language.Drasil.Code.Imperative.GOOL.LanguageRenderer.PythonRenderer</text>
</g>
<!-- u6&#45;&gt;u20 -->
<g id="edge4" class="edge">
<title>u6&#45;&gt;u20</title>
<path fill="none" stroke="black" d="M2595.79,-3390.34C2707.18,-3318.59 3146.06,-3035.9 3273.84,-2953.6"/>
<polygon fill="black" stroke="black" points="3275.98,-2956.38 3282.49,-2948.02 3272.19,-2950.49 3275.98,-2956.38"/>
</g>
<!-- u45 -->
<g id="node58" class="node">
<title>u45</title>
<ellipse fill="#ff77ff" stroke="black" cx="3294.92" cy="-1017" rx="154.07" ry="18"/>
<text text-anchor="middle" x="3294.92" y="-1013.3" font-family="Times,serif" font-size="14.00">Language.Drasil.Data.ODEInfo</text>
</g>
<!-- u5&#45;&gt;u45 -->
<g id="edge3" class="edge">
<title>u5&#45;&gt;u45</title>
<path fill="none" stroke="black" d="M3864.93,-1478.59C3754.09,-1453.34 3551.69,-1393.54 3423.92,-1274 3353.71,-1208.31 3316,-1095.98 3301.73,-1044.81"/>
<polygon fill="black" stroke="black" points="3305.1,-1043.87 3299.11,-1035.14 3298.34,-1045.7 3305.1,-1043.87"/>
</g>
<!-- u1 -->
<g id="node17" class="node">
<title>u1</title>
<ellipse fill="#ffbbbb" stroke="black" cx="3952.92" cy="-299" rx="145.67" ry="18"/>
<text text-anchor="middle" x="3952.92" y="-295.3" font-family="Times,serif" font-size="14.00">Language.Drasil.Chunk.Code</text>
</g>
<!-- u4&#45;&gt;u1 -->
<g id="edge2" class="edge">
<title>u4&#45;&gt;u1</title>
<path fill="none" stroke="black" d="M4277.1,-520.15C4215.57,-478.36 4055.96,-369.97 3986.28,-322.65"/>
<polygon fill="black" stroke="black" points="3988.08,-319.65 3977.85,-316.93 3984.15,-325.44 3988.08,-319.65"/>
</g>
<!-- u2 -->
<g id="node16" class="node">
<title>u2</title>
<ellipse fill="#ffbbbb" stroke="black" cx="3952.92" cy="-60" rx="168.17" ry="18"/>
<text text-anchor="middle" x="3952.92" y="-56.3" font-family="Times,serif" font-size="14.00">Language.Drasil.Chunk.CodeBase</text>
</g>
<!-- u1&#45;&gt;u2 -->
<g id="edge1" class="edge">
<title>u1&#45;&gt;u2</title>
<path fill="none" stroke="black" d="M3952.92,-280.96C3952.92,-240.4 3952.92,-137.87 3952.92,-88.46"/>
<polygon fill="black" stroke="black" points="3956.42,-88.21 3952.92,-78.21 3949.42,-88.21 3956.42,-88.21"/>
</g>
<!-- u0 -->
<g id="node18" class="node">
<title>u0</title>
<ellipse fill="#ffbbbb" stroke="black" cx="3970.92" cy="-777" rx="202.26" ry="18"/>
<text text-anchor="middle" x="3970.92" y="-773.3" font-family="Times,serif" font-size="14.00">Language.Drasil.Chunk.NamedArgument</text>
</g>
<!-- u44 -->
<g id="node19" class="node">
<title>u44</title>
<ellipse fill="#bbffff" stroke="black" cx="4386.92" cy="-1017" rx="190.37" ry="18"/>
<text text-anchor="middle" x="4386.92" y="-1013.3" font-family="Times,serif" font-size="14.00">Language.Drasil.Code.ExternalLibrary</text>
</g>
<!-- u44&#45;&gt;u48 -->
<g id="edge71" class="edge">
<title>u44&#45;&gt;u48</title>
<path fill="none" stroke="black" d="M4380.81,-998.88C4366.2,-957.99 4329.18,-854.33 4311.54,-804.95"/>
<polygon fill="black" stroke="black" points="4314.75,-803.52 4308.09,-795.28 4308.16,-805.88 4314.75,-803.52"/>
</g>
<!-- u44&#45;&gt;u0 -->
<g id="edge70" class="edge">
<title>u44&#45;&gt;u0</title>
<path fill="none" stroke="black" d="M4357.33,-999.07C4283.61,-956.89 4091.72,-847.11 4009.37,-800"/>
<polygon fill="black" stroke="black" points="4010.77,-796.77 4000.35,-794.84 4007.29,-802.84 4010.77,-796.77"/>
</g>
<!-- u13 -->
<g id="node20" class="node">
<title>u13</title>
<ellipse fill="#bbffff" stroke="black" cx="3884.92" cy="-2930" rx="191.17" ry="18"/>
<text text-anchor="middle" x="3884.92" y="-2926.3" font-family="Times,serif" font-size="14.00">Language.Drasil.Code.CodeGeneration</text>
</g>
<!-- u13&#45;&gt;u12 -->
<g id="edge16" class="edge">
<title>u13&#45;&gt;u12</title>
<path fill="none" stroke="black" d="M3800.16,-2913.79C3517.57,-2861.43 2614.36,-2680.21 2418.92,-2470 2330.28,-2374.67 2384.16,-2307.77 2320.92,-2194 2258.57,-2081.84 2109.43,-2073.4 2158.92,-1955 2301.68,-1613.44 2702.02,-1353.97 2827.68,-1279.03"/>
<polygon fill="black" stroke="black" points="2829.77,-1281.86 2836.59,-1273.76 2826.2,-1275.84 2829.77,-1281.86"/>
</g>
<!-- u26 -->
<g id="node47" class="node">
<title>u26</title>
<ellipse fill="#7777ff" stroke="black" cx="2472.92" cy="-2691" rx="222.06" ry="18"/>
<text text-anchor="middle" x="2472.92" y="-2687.3" font-family="Times,serif" font-size="14.00">Language.Drasil.Code.Imperative.GOOL.Data</text>
</g>
<!-- u13&#45;&gt;u26 -->
<g id="edge17" class="edge">
<title>u13&#45;&gt;u26</title>
<path fill="none" stroke="black" d="M3795.79,-2914.04C3545.86,-2872.09 2839.36,-2753.51 2574.71,-2709.08"/>
<polygon fill="black" stroke="black" points="2575.16,-2705.61 2564.72,-2707.41 2574,-2712.52 2575.16,-2705.61"/>
</g>
<!-- u11 -->
<g id="node22" class="node">
<title>u11</title>
<ellipse fill="#bbffff" stroke="black" cx="4181.92" cy="-1256" rx="178.97" ry="18"/>
<text text-anchor="middle" x="4181.92" y="-1252.3" font-family="Times,serif" font-size="14.00">Language.Drasil.Code.ExtLibImport</text>
</g>
<!-- u11&#45;&gt;u44 -->
<g id="edge15" class="edge">
<title>u11&#45;&gt;u44</title>
<path fill="none" stroke="black" d="M4196.66,-1237.96C4232.33,-1196.72 4323.42,-1091.41 4365.28,-1043.01"/>
<polygon fill="black" stroke="black" points="4368.14,-1045.06 4372.03,-1035.21 4362.84,-1040.48 4368.14,-1045.06"/>
</g>
<!-- u10 -->
<g id="node23" class="node">
<title>u10</title>
<ellipse fill="#bbffff" stroke="black" cx="3970.92" cy="-1017" rx="207.96" ry="18"/>
<text text-anchor="middle" x="3970.92" y="-1013.3" font-family="Times,serif" font-size="14.00">Language.Drasil.Code.ExternalLibraryCall</text>
</g>
<!-- u11&#45;&gt;u10 -->
<g id="edge14" class="edge">
<title>u11&#45;&gt;u10</title>
<path fill="none" stroke="black" d="M4166.74,-1237.96C4129.96,-1196.63 4035.89,-1090.97 3992.92,-1042.71"/>
<polygon fill="black" stroke="black" points="3995.5,-1040.35 3986.24,-1035.21 3990.27,-1045 3995.5,-1040.35"/>
</g>
<!-- u10&#45;&gt;u48 -->
<g id="edge13" class="edge">
<title>u10&#45;&gt;u48</title>
<path fill="none" stroke="black" d="M3994.46,-999.07C4052.84,-957.1 4204.31,-848.18 4270.36,-800.69"/>
<polygon fill="black" stroke="black" points="4272.64,-803.36 4278.72,-794.68 4268.56,-797.68 4272.64,-803.36"/>
</g>
<!-- u10&#45;&gt;u0 -->
<g id="edge12" class="edge">
<title>u10&#45;&gt;u0</title>
<path fill="none" stroke="black" d="M3970.92,-998.88C3970.92,-958.16 3970.92,-855.2 3970.92,-805.57"/>
<polygon fill="black" stroke="black" points="3974.42,-805.28 3970.92,-795.28 3967.42,-805.28 3974.42,-805.28"/>
</g>
<!-- u9 -->
<g id="node24" class="node">
<title>u9</title>
<ellipse fill="#bbffff" stroke="black" cx="4789.92" cy="-2212" rx="204.16" ry="18"/>
<text text-anchor="middle" x="4789.92" y="-2208.3" font-family="Times,serif" font-size="14.00">Language.Drasil.Code.CodeQuantityDicts</text>
</g>
<!-- u8&#45;&gt;u1 -->
<g id="edge11" class="edge">
<title>u8&#45;&gt;u1</title>
<path fill="none" stroke="black" d="M3952.92,-519.96C3952.92,-479.4 3952.92,-376.87 3952.92,-327.46"/>
<polygon fill="black" stroke="black" points="3956.42,-327.21 3952.92,-317.21 3949.42,-327.21 3956.42,-327.21"/>
</g>
<!-- u7 -->
<g id="node26" class="node">
<title>u7</title>
<ellipse fill="#bbffff" stroke="black" cx="3605.92" cy="-1017" rx="139.18" ry="18"/>
<text text-anchor="middle" x="3605.92" y="-1013.3" font-family="Times,serif" font-size="14.00">Language.Drasil.Code.Lang</text>
</g>
<!-- u43 -->
<g id="node27" class="node">
<title>u43</title>
<ellipse fill="#ffbbff" stroke="black" cx="2660.92" cy="-2452" rx="233.16" ry="18"/>
<text text-anchor="middle" x="2660.92" y="-2448.3" font-family="Times,serif" font-size="14.00">Language.Drasil.Code.Imperative.WriteReadMe</text>
</g>
<!-- u19 -->
<g id="node48" class="node">
<title>u19</title>
<ellipse fill="#7777ff" stroke="black" cx="2942.92" cy="-1973" rx="267.25" ry="18"/>
<text text-anchor="middle" x="2942.92" y="-1969.3" font-family="Times,serif" font-size="14.00">Language.Drasil.Code.Imperative.GOOL.ClassInterface</text>
</g>
<!-- u43&#45;&gt;u19 -->
<g id="edge69" class="edge">
<title>u43&#45;&gt;u19</title>
<path fill="none" stroke="black" d="M2658.13,-2433.86C2651.96,-2390.73 2640.88,-2275.36 2682.92,-2194 2731.72,-2099.57 2840.19,-2029.27 2900.47,-1995.78"/>
<polygon fill="black" stroke="black" points="2902.26,-1998.79 2909.36,-1990.92 2898.9,-1992.65 2902.26,-1998.79"/>
</g>
<!-- u42 -->
<g id="node28" class="node">
<title>u42</title>
<ellipse fill="#ffbbff" stroke="black" cx="1865.92" cy="-1734" rx="219.86" ry="18"/>
<text text-anchor="middle" x="1865.92" y="-1730.3" font-family="Times,serif" font-size="14.00">Language.Drasil.Code.Imperative.WriteInput</text>
</g>
<!-- u42&#45;&gt;u8 -->
<g id="edge68" class="edge">
<title>u42&#45;&gt;u8</title>
<path fill="none" stroke="black" d="M1874.31,-1715.75C1903.23,-1654.71 1996.92,-1442.57 1996.92,-1257 1996.92,-1257 1996.92,-1257 1996.92,-1016 1996.92,-648.1 3319.53,-562.71 3789.58,-543.98"/>
<polygon fill="black" stroke="black" points="3789.99,-547.47 3799.84,-543.58 3789.71,-540.47 3789.99,-547.47"/>
</g>
<!-- u40 -->
<g id="node29" class="node">
<title>u40</title>
<ellipse fill="#ffbbff" stroke="black" cx="4789.92" cy="-2452" rx="223.66" ry="18"/>
<text text-anchor="middle" x="4789.92" y="-2448.3" font-family="Times,serif" font-size="14.00">Language.Drasil.Code.Imperative.Parameters</text>
</g>
<!-- u40&#45;&gt;u9 -->
<g id="edge65" class="edge">
<title>u40&#45;&gt;u9</title>
<path fill="none" stroke="black" d="M4789.92,-2433.88C4789.92,-2393.16 4789.92,-2290.2 4789.92,-2240.57"/>
<polygon fill="black" stroke="black" points="4793.42,-2240.28 4789.92,-2230.28 4786.42,-2240.28 4793.42,-2240.28"/>
</g>
<!-- u39 -->
<g id="node30" class="node">
<title>u39</title>
<ellipse fill="#ffbbff" stroke="black" cx="3917.92" cy="-1973" rx="222.06" ry="18"/>
<text text-anchor="middle" x="3917.92" y="-1969.3" font-family="Times,serif" font-size="14.00">Language.Drasil.Code.Imperative.DrasilState</text>
</g>
<!-- u40&#45;&gt;u39 -->
<g id="edge66" class="edge">
<title>u40&#45;&gt;u39</title>
<path fill="none" stroke="black" d="M4823.39,-2434.07C4900.25,-2393.05 5077.29,-2284.96 5002.92,-2194 4891.87,-2058.18 4387.45,-2004.19 4107.16,-1984.4"/>
<polygon fill="black" stroke="black" points="4107.1,-1980.88 4096.88,-1983.68 4106.61,-1987.87 4107.1,-1980.88"/>
</g>
<!-- u39&#45;&gt;u47 -->
<g id="edge64" class="edge">
<title>u39&#45;&gt;u47</title>
<path fill="none" stroke="black" d="M3894.98,-1954.96C3838.65,-1913.11 3693.49,-1805.26 3629.73,-1757.89"/>
<polygon fill="black" stroke="black" points="3631.77,-1755.04 3621.65,-1751.89 3627.59,-1760.66 3631.77,-1755.04"/>
</g>
<!-- u39&#45;&gt;u11 -->
<g id="edge63" class="edge">
<title>u39&#45;&gt;u11</title>
<path fill="none" stroke="black" d="M3953.83,-1955.18C4014.27,-1924.61 4134.34,-1853.57 4181.92,-1752 4258.16,-1589.22 4209.82,-1362 4189.58,-1284.3"/>
<polygon fill="black" stroke="black" points="4192.88,-1283.11 4186.92,-1274.35 4186.12,-1284.92 4192.88,-1283.11"/>
</g>
<!-- u38 -->
<g id="node31" class="node">
<title>u38</title>
<ellipse fill="#ffbbff" stroke="black" cx="4364.92" cy="-2691" rx="233.16" ry="18"/>
<text text-anchor="middle" x="4364.92" y="-2687.3" font-family="Times,serif" font-size="14.00">Language.Drasil.Code.Imperative.FunctionCalls</text>
</g>
<!-- u38&#45;&gt;u40 -->
<g id="edge62" class="edge">
<title>u38&#45;&gt;u40</title>
<path fill="none" stroke="black" d="M4395.14,-2673.15C4470.45,-2631.15 4666.43,-2521.87 4750.58,-2474.94"/>
<polygon fill="black" stroke="black" points="4752.54,-2477.85 4759.56,-2469.93 4749.13,-2471.74 4752.54,-2477.85"/>
</g>
<!-- u28 -->
<g id="node41" class="node">
<title>u28</title>
<ellipse fill="#ffbbff" stroke="black" cx="4124.92" cy="-2452" rx="201.46" ry="18"/>
<text text-anchor="middle" x="4124.92" y="-2448.3" font-family="Times,serif" font-size="14.00">Language.Drasil.Code.Imperative.Import</text>
</g>
<!-- u38&#45;&gt;u28 -->
<g id="edge61" class="edge">
<title>u38&#45;&gt;u28</title>
<path fill="none" stroke="black" d="M4347.66,-2672.96C4305.73,-2631.55 4198.37,-2525.54 4149.64,-2477.42"/>
<polygon fill="black" stroke="black" points="4151.92,-2474.74 4142.34,-2470.21 4147,-2479.73 4151.92,-2474.74"/>
</g>
<!-- u37&#45;&gt;u13 -->
<g id="edge56" class="edge">
<title>u37&#45;&gt;u13</title>
<path fill="none" stroke="black" d="M4197.68,-3150.96C4138.18,-3109.11 3984.83,-3001.26 3917.47,-2953.89"/>
<polygon fill="black" stroke="black" points="3919.13,-2950.78 3908.94,-2947.89 3915.1,-2956.51 3919.13,-2950.78"/>
</g>
<!-- u36 -->
<g id="node33" class="node">
<title>u36</title>
<ellipse fill="#ffbbff" stroke="black" cx="4340.92" cy="-2930" rx="209.06" ry="18"/>
<text text-anchor="middle" x="4340.92" y="-2926.3" font-family="Times,serif" font-size="14.00">Language.Drasil.Code.Imperative.Modules</text>
</g>
<!-- u37&#45;&gt;u36 -->
<g id="edge60" class="edge">
<title>u37&#45;&gt;u36</title>
<path fill="none" stroke="black" d="M4230.48,-3150.96C4251.01,-3110.06 4303.19,-3006.15 4327.75,-2957.22"/>
<polygon fill="black" stroke="black" points="4330.92,-2958.72 4332.28,-2948.21 4324.66,-2955.57 4330.92,-2958.72"/>
</g>
<!-- u27 -->
<g id="node42" class="node">
<title>u27</title>
<ellipse fill="#ffbbff" stroke="black" cx="3962.92" cy="-1734" rx="209.86" ry="18"/>
<text text-anchor="middle" x="3962.92" y="-1730.3" font-family="Times,serif" font-size="14.00">Language.Drasil.Code.Imperative.GenODE</text>
</g>
<!-- u37&#45;&gt;u27 -->
<g id="edge59" class="edge">
<title>u37&#45;&gt;u27</title>
<path fill="none" stroke="black" d="M4363.64,-3155.34C4611.56,-3124.58 5097.92,-3022.16 5097.92,-2692 5097.92,-2692 5097.92,-2692 5097.92,-2211 5097.92,-1985.14 4323.9,-1807.7 4054.24,-1752.74"/>
<polygon fill="black" stroke="black" points="4054.59,-1749.24 4044.09,-1750.68 4053.19,-1756.1 4054.59,-1749.24"/>
</g>
<!-- u17 -->
<g id="node43" class="node">
<title>u17</title>
<ellipse fill="#ffbbff" stroke="black" cx="4842.92" cy="-2691" rx="226.66" ry="18"/>
<text text-anchor="middle" x="4842.92" y="-2687.3" font-family="Times,serif" font-size="14.00">Language.Drasil.Code.Imperative.SpaceMatch</text>
</g>
<!-- u37&#45;&gt;u17 -->
<g id="edge57" class="edge">
<title>u37&#45;&gt;u17</title>
<path fill="none" stroke="black" d="M4251.35,-3150.91C4311.22,-3115.68 4450.67,-3031.31 4558.92,-2948 4660.78,-2869.6 4771.04,-2763.33 4818.71,-2716.21"/>
<polygon fill="black" stroke="black" points="4821.17,-2718.7 4825.81,-2709.17 4816.24,-2713.73 4821.17,-2718.7"/>
</g>
<!-- u18 -->
<g id="node49" class="node">
<title>u18</title>
<ellipse fill="#7777ff" stroke="black" cx="3615.92" cy="-2452" rx="289.45" ry="18"/>
<text text-anchor="middle" x="3615.92" y="-2448.3" font-family="Times,serif" font-size="14.00">Language.Drasil.Code.Imperative.GOOL.LanguageRenderer</text>
</g>
<!-- u37&#45;&gt;u18 -->
<g id="edge58" class="edge">
<title>u37&#45;&gt;u18</title>
<path fill="none" stroke="black" d="M4214.27,-3150.87C4176.28,-3065.89 4009.01,-2692.88 3990.92,-2673 3899.86,-2572.96 3752.52,-2505.17 3672.32,-2473.5"/>
<polygon fill="black" stroke="black" points="3673.46,-2470.2 3662.88,-2469.82 3670.92,-2476.72 3673.46,-2470.2"/>
</g>
<!-- u36&#45;&gt;u38 -->
<g id="edge55" class="edge">
<title>u36&#45;&gt;u38</title>
<path fill="none" stroke="black" d="M4342.64,-2911.96C4346.75,-2871.4 4357.13,-2768.87 4362.14,-2719.46"/>
<polygon fill="black" stroke="black" points="4365.65,-2719.51 4363.18,-2709.21 4358.69,-2718.8 4365.65,-2719.51"/>
</g>
<!-- u34 -->
<g id="node35" class="node">
<title>u34</title>
<ellipse fill="#ffbbff" stroke="black" cx="3199.92" cy="-2691" rx="228.26" ry="18"/>
<text text-anchor="middle" x="3199.92" y="-2687.3" font-family="Times,serif" font-size="14.00">Language.Drasil.Code.Imperative.Descriptions</text>
</g>
<!-- u36&#45;&gt;u34 -->
<g id="edge54" class="edge">
<title>u36&#45;&gt;u34</title>
<path fill="none" stroke="black" d="M4264.73,-2913.17C4060.76,-2870.81 3503.16,-2754.99 3287.08,-2710.11"/>
<polygon fill="black" stroke="black" points="3287.56,-2706.63 3277.05,-2708.02 3286.13,-2713.48 3287.56,-2706.63"/>
</g>
<!-- u35 -->
<g id="node34" class="node">
<title>u35</title>
<ellipse fill="#ffbbff" stroke="black" cx="4361.92" cy="-2212" rx="206.06" ry="18"/>
<text text-anchor="middle" x="4361.92" y="-2208.3" font-family="Times,serif" font-size="14.00">Language.Drasil.Code.Imperative.Helpers</text>
</g>
<!-- u35&#45;&gt;u39 -->
<g id="edge53" class="edge">
<title>u35&#45;&gt;u39</title>
<path fill="none" stroke="black" d="M4330.34,-2194.15C4251.51,-2152.07 4046.1,-2042.42 3958.48,-1995.65"/>
<polygon fill="black" stroke="black" points="3960.1,-1992.55 3949.63,-1990.93 3956.8,-1998.72 3960.1,-1992.55"/>
</g>
<!-- u34&#45;&gt;u39 -->
<g id="edge52" class="edge">
<title>u34&#45;&gt;u39</title>
<path fill="none" stroke="black" d="M3195.95,-2672.59C3181.22,-2603.13 3136.45,-2342.38 3256.92,-2194 3369.45,-2055.4 3571.97,-2003.49 3723.29,-1984.38"/>
<polygon fill="black" stroke="black" points="3724.14,-1987.8 3733.64,-1983.12 3723.28,-1980.86 3724.14,-1987.8"/>
</g>
<!-- u33 -->
<g id="node36" class="node">
<title>u33</title>
<ellipse fill="#ffbbff" stroke="black" cx="3472.92" cy="-2212" rx="207.16" ry="18"/>
<text text-anchor="middle" x="3472.92" y="-2208.3" font-family="Times,serif" font-size="14.00">Language.Drasil.Code.Imperative.Logging</text>
</g>
<!-- u33&#45;&gt;u39 -->
<g id="edge51" class="edge">
<title>u33&#45;&gt;u39</title>
<path fill="none" stroke="black" d="M3504.57,-2194.15C3583.58,-2152.07 3789.45,-2042.42 3877.27,-1995.65"/>
<polygon fill="black" stroke="black" points="3878.95,-1998.72 3886.14,-1990.93 3875.66,-1992.54 3878.95,-1998.72"/>
</g>
<!-- u32&#45;&gt;u8 -->
<g id="edge50" class="edge">
<title>u32&#45;&gt;u8</title>
<path fill="none" stroke="black" d="M5326.19,-1954.83C5267.9,-1896.47 5085.92,-1698.09 5085.92,-1496 5085.92,-1496 5085.92,-1496 5085.92,-1016 5085.92,-789.09 4304.21,-610.03 4039.42,-555.89"/>
<polygon fill="black" stroke="black" points="4039.96,-552.43 4029.46,-553.86 4038.56,-559.29 4039.96,-552.43"/>
</g>
<!-- u31 -->
<g id="node38" class="node">
<title>u31</title>
<ellipse fill="#ffbbff" stroke="black" cx="3207.92" cy="-1734" rx="237.46" ry="18"/>
<text text-anchor="middle" x="3207.92" y="-1730.3" font-family="Times,serif" font-size="14.00">Language.Drasil.Code.Imperative.ConceptMatch</text>
</g>
<!-- u31&#45;&gt;u49 -->
<g id="edge49" class="edge">
<title>u31&#45;&gt;u49</title>
<path fill="none" stroke="black" d="M3207.85,-1715.96C3207.68,-1675.4 3207.24,-1572.87 3207.03,-1523.46"/>
<polygon fill="black" stroke="black" points="3210.53,-1523.19 3206.99,-1513.21 3203.53,-1523.22 3210.53,-1523.19"/>
</g>
<!-- u30 -->
<g id="node39" class="node">
<title>u30</title>
<ellipse fill="#ffbbff" stroke="black" cx="2931.92" cy="-2212" rx="240.46" ry="18"/>
<text text-anchor="middle" x="2931.92" y="-2208.3" font-family="Times,serif" font-size="14.00">Language.Drasil.Code.Imperative.GenerateGOOL</text>
</g>
<!-- u30&#45;&gt;u39 -->
<g id="edge48" class="edge">
<title>u30&#45;&gt;u39</title>
<path fill="none" stroke="black" d="M2999.69,-2194.71C3176.97,-2152.1 3653.63,-2037.53 3840.88,-1992.52"/>
<polygon fill="black" stroke="black" points="3841.75,-1995.91 3850.65,-1990.17 3840.11,-1989.1 3841.75,-1995.91"/>
</g>
<!-- u30&#45;&gt;u19 -->
<g id="edge47" class="edge">
<title>u30&#45;&gt;u19</title>
<path fill="none" stroke="black" d="M2932.71,-2193.96C2934.59,-2153.4 2939.35,-2050.87 2941.64,-2001.46"/>
<polygon fill="black" stroke="black" points="2945.15,-2001.36 2942.12,-1991.21 2938.16,-2001.04 2945.15,-2001.36"/>
</g>
<!-- u29 -->
<g id="node40" class="node">
<title>u29</title>
<ellipse fill="#ffbbff" stroke="black" cx="3917.92" cy="-2212" rx="219.86" ry="18"/>
<text text-anchor="middle" x="3917.92" y="-2208.3" font-family="Times,serif" font-size="14.00">Language.Drasil.Code.Imperative.Comments</text>
</g>
<!-- u29&#45;&gt;u39 -->
<g id="edge46" class="edge">
<title>u29&#45;&gt;u39</title>
<path fill="none" stroke="black" d="M3917.92,-2193.96C3917.92,-2153.4 3917.92,-2050.87 3917.92,-2001.46"/>
<polygon fill="black" stroke="black" points="3921.42,-2001.21 3917.92,-1991.21 3914.42,-2001.21 3921.42,-2001.21"/>
</g>
<!-- u28&#45;&gt;u9 -->
<g id="edge40" class="edge">
<title>u28&#45;&gt;u9</title>
<path fill="none" stroke="black" d="M4171.15,-2434.45C4289.85,-2391.97 4605.05,-2279.16 4733.87,-2233.06"/>
<polygon fill="black" stroke="black" points="4735.31,-2236.26 4743.55,-2229.6 4732.96,-2229.67 4735.31,-2236.26"/>
</g>
<!-- u28&#45;&gt;u35 -->
<g id="edge45" class="edge">
<title>u28&#45;&gt;u35</title>
<path fill="none" stroke="black" d="M4141.96,-2433.88C4183.47,-2392.2 4289.9,-2285.33 4337.85,-2237.17"/>
<polygon fill="black" stroke="black" points="4340.45,-2239.52 4345.03,-2229.96 4335.49,-2234.58 4340.45,-2239.52"/>
</g>
<!-- u28&#45;&gt;u33 -->
<g id="edge44" class="edge">
<title>u28&#45;&gt;u33</title>
<path fill="none" stroke="black" d="M4079.59,-2434.45C3963.21,-2391.97 3654.18,-2279.16 3527.87,-2233.06"/>
<polygon fill="black" stroke="black" points="3528.98,-2229.74 3518.38,-2229.6 3526.57,-2236.31 3528.98,-2229.74"/>
</g>
<!-- u28&#45;&gt;u31 -->
<g id="edge43" class="edge">
<title>u28&#45;&gt;u31</title>
<path fill="none" stroke="black" d="M4005.45,-2437.43C3790.97,-2410.47 3353.92,-2342.83 3256.92,-2230 3241.52,-2212.09 3216.65,-1863.27 3209.75,-1762.21"/>
<polygon fill="black" stroke="black" points="3213.24,-1761.92 3209.07,-1752.18 3206.25,-1762.4 3213.24,-1761.92"/>
</g>
<!-- u28&#45;&gt;u30 -->
<g id="edge42" class="edge">
<title>u28&#45;&gt;u30</title>
<path fill="none" stroke="black" d="M4046.64,-2435.38C3834.16,-2392.99 3247.41,-2275.94 3021.86,-2230.94"/>
<polygon fill="black" stroke="black" points="3022.54,-2227.51 3012.05,-2228.99 3021.17,-2234.37 3022.54,-2227.51"/>
</g>
<!-- u28&#45;&gt;u29 -->
<g id="edge41" class="edge">
<title>u28&#45;&gt;u29</title>
<path fill="none" stroke="black" d="M4110.03,-2433.88C4073.93,-2392.37 3981.59,-2286.2 3939.46,-2237.76"/>
<polygon fill="black" stroke="black" points="3941.87,-2235.21 3932.67,-2229.96 3936.59,-2239.8 3941.87,-2235.21"/>
</g>
<!-- u27&#45;&gt;u49 -->
<g id="edge39" class="edge">
<title>u27&#45;&gt;u49</title>
<path fill="none" stroke="black" d="M3910.36,-1716.52C3774.16,-1673.83 3410.42,-1559.8 3266.62,-1514.72"/>
<polygon fill="black" stroke="black" points="3267.24,-1511.24 3256.65,-1511.59 3265.15,-1517.92 3267.24,-1511.24"/>
</g>
<!-- u27&#45;&gt;u5 -->
<g id="edge37" class="edge">
<title>u27&#45;&gt;u5</title>
<path fill="none" stroke="black" d="M3961.55,-1715.96C3958.3,-1675.4 3950.08,-1572.87 3946.12,-1523.46"/>
<polygon fill="black" stroke="black" points="3949.59,-1522.9 3945.3,-1513.21 3942.61,-1523.46 3949.59,-1522.9"/>
</g>
<!-- u27&#45;&gt;u11 -->
<g id="edge38" class="edge">
<title>u27&#45;&gt;u11</title>
<path fill="none" stroke="black" d="M3982.77,-1715.97C4021.11,-1681.82 4104.98,-1600.69 4143.92,-1513 4178.43,-1435.28 4182.68,-1332.56 4182.55,-1284.28"/>
<polygon fill="black" stroke="black" points="4186.05,-1283.99 4182.46,-1274.03 4179.05,-1284.06 4186.05,-1283.99"/>
</g>
<!-- u17&#45;&gt;u39 -->
<g id="edge20" class="edge">
<title>u17&#45;&gt;u39</title>
<path fill="none" stroke="black" d="M4864.37,-2672.86C4904.67,-2639.13 4990.53,-2559.57 5022.92,-2470 5064.64,-2354.64 5102.75,-2288.82 5024.92,-2194 4911.54,-2055.87 4397.75,-2002.89 4111.69,-1983.85"/>
<polygon fill="black" stroke="black" points="4111.82,-1980.35 4101.62,-1983.18 4111.36,-1987.33 4111.82,-1980.35"/>
</g>
<!-- u15 -->
<g id="node44" class="node">
<title>u15</title>
<ellipse fill="#77ff77" stroke="black" cx="2095.92" cy="-2212" rx="215.56" ry="18"/>
<text text-anchor="middle" x="2095.92" y="-2208.3" font-family="Times,serif" font-size="14.00">Language.Drasil.Code.Imperative.Build.AST</text>
</g>
<!-- u14 -->
<g id="node45" class="node">
<title>u14</title>
<ellipse fill="#77ff77" stroke="black" cx="2095.92" cy="-2452" rx="228.56" ry="18"/>
<text text-anchor="middle" x="2095.92" y="-2448.3" font-family="Times,serif" font-size="14.00">Language.Drasil.Code.Imperative.Build.Import</text>
</g>
<!-- u14&#45;&gt;u15 -->
<g id="edge18" class="edge">
<title>u14&#45;&gt;u15</title>
<path fill="none" stroke="black" d="M2095.92,-2433.88C2095.92,-2393.16 2095.92,-2290.2 2095.92,-2240.57"/>
<polygon fill="black" stroke="black" points="2099.42,-2240.28 2095.92,-2230.28 2092.42,-2240.28 2099.42,-2240.28"/>
</g>
<!-- u16 -->
<g id="node46" class="node">
<title>u16</title>
<ellipse fill="#ffff77" stroke="black" cx="2412.92" cy="-1973" rx="245.06" ry="18"/>
<text text-anchor="middle" x="2412.92" y="-1969.3" font-family="Times,serif" font-size="14.00">Language.Drasil.Code.Imperative.Doxygen.Import</text>
</g>
<!-- u16&#45;&gt;u49 -->
<g id="edge19" class="edge">
<title>u16&#45;&gt;u49</title>
<path fill="none" stroke="black" d="M2441.18,-1955.06C2561.89,-1882.69 3034.29,-1599.49 3170.17,-1518.03"/>
<polygon fill="black" stroke="black" points="3172.22,-1520.88 3179,-1512.74 3168.62,-1514.88 3172.22,-1520.88"/>
</g>
<!-- u19&#45;&gt;u49 -->
<g id="edge21" class="edge">
<title>u19&#45;&gt;u49</title>
<path fill="none" stroke="black" d="M2939.99,-1954.7C2933.57,-1911.71 2921.83,-1797.6 2961.92,-1716 3007.5,-1623.22 3110.92,-1551.74 3167.74,-1517.77"/>
<polygon fill="black" stroke="black" points="3169.6,-1520.73 3176.44,-1512.64 3166.05,-1514.7 3169.6,-1520.73"/>
</g>
<!-- u25&#45;&gt;u26 -->
<g id="edge36" class="edge">
<title>u25&#45;&gt;u26</title>
<path fill="none" stroke="black" d="M492.02,-2913.45C877.79,-2870.32 1957.77,-2749.59 2338.21,-2707.06"/>
<polygon fill="black" stroke="black" points="2338.62,-2710.54 2348.17,-2705.95 2337.84,-2703.58 2338.62,-2710.54"/>
</g>
<!-- u21 -->
<g id="node54" class="node">
<title>u21</title>
<ellipse fill="#ff7777" stroke="black" cx="1838.92" cy="-2691" rx="393.73" ry="18"/>
<text text-anchor="middle" x="1838.92" y="-2687.3" font-family="Times,serif" font-size="14.00">Language.Drasil.Code.Imperative.GOOL.LanguageRenderer.LanguagePolymorphic</text>
</g>
<!-- u25&#45;&gt;u21 -->
<g id="edge35" class="edge">
<title>u25&#45;&gt;u21</title>
<path fill="none" stroke="black" d="M454.76,-2912.76C722.67,-2870.03 1445.64,-2754.72 1725.83,-2710.04"/>
<polygon fill="black" stroke="black" points="1726.69,-2713.44 1736.01,-2708.41 1725.58,-2706.53 1726.69,-2713.44"/>
</g>
<!-- u24&#45;&gt;u26 -->
<g id="edge34" class="edge">
<title>u24&#45;&gt;u26</title>
<path fill="none" stroke="black" d="M1188.59,-2912.57C1439.73,-2869.44 2116.05,-2753.29 2372.48,-2709.25"/>
<polygon fill="black" stroke="black" points="2373.27,-2712.67 2382.53,-2707.52 2372.08,-2705.77 2373.27,-2712.67"/>
</g>
<!-- u24&#45;&gt;u21 -->
<g id="edge33" class="edge">
<title>u24&#45;&gt;u21</title>
<path fill="none" stroke="black" d="M1145.97,-2912.15C1280.03,-2869.55 1631.95,-2757.75 1776.04,-2711.98"/>
<polygon fill="black" stroke="black" points="1777.17,-2715.29 1785.64,-2708.93 1775.05,-2708.62 1777.17,-2715.29"/>
</g>
<!-- u23&#45;&gt;u26 -->
<g id="edge32" class="edge">
<title>u23&#45;&gt;u26</title>
<path fill="none" stroke="black" d="M1884.26,-2912.05C1998.09,-2869.5 2295.55,-2758.3 2418.51,-2712.34"/>
<polygon fill="black" stroke="black" points="2419.97,-2715.53 2428.11,-2708.75 2417.52,-2708.97 2419.97,-2715.53"/>
</g>
<!-- u23&#45;&gt;u21 -->
<g id="edge31" class="edge">
<title>u23&#45;&gt;u21</title>
<path fill="none" stroke="black" d="M1838.92,-2911.96C1838.92,-2871.4 1838.92,-2768.87 1838.92,-2719.46"/>
<polygon fill="black" stroke="black" points="1842.42,-2719.21 1838.92,-2709.21 1835.42,-2719.21 1842.42,-2719.21"/>
</g>
<!-- u22&#45;&gt;u26 -->
<g id="edge30" class="edge">
<title>u22&#45;&gt;u26</title>
<path fill="none" stroke="black" d="M2562.94,-2911.96C2546.24,-2871.14 2503.85,-2767.58 2483.78,-2718.53"/>
<polygon fill="black" stroke="black" points="2486.99,-2717.14 2479.96,-2709.21 2480.51,-2719.79 2486.99,-2717.14"/>
</g>
<!-- u22&#45;&gt;u21 -->
<g id="edge29" class="edge">
<title>u22&#45;&gt;u21</title>
<path fill="none" stroke="black" d="M2517.93,-2912.15C2386.7,-2869.6 2042.41,-2757.97 1900.96,-2712.11"/>
<polygon fill="black" stroke="black" points="1901.72,-2708.68 1891.13,-2708.93 1899.56,-2715.34 1901.72,-2708.68"/>
</g>
<!-- u21&#45;&gt;u43 -->
<g id="edge28" class="edge">
<title>u21&#45;&gt;u43</title>
<path fill="none" stroke="black" d="M1897.38,-2673.15C2045.69,-2630.38 2436,-2517.85 2593.55,-2472.43"/>
<polygon fill="black" stroke="black" points="2594.94,-2475.67 2603.58,-2469.53 2593,-2468.94 2594.94,-2475.67"/>
</g>
<!-- u21&#45;&gt;u42 -->
<g id="edge27" class="edge">
<title>u21&#45;&gt;u42</title>
<path fill="none" stroke="black" d="M1839.41,-2672.61C1842.67,-2557.43 1861.12,-1904.73 1865.14,-1762.4"/>
<polygon fill="black" stroke="black" points="1868.64,-1762.43 1865.43,-1752.34 1861.65,-1762.24 1868.64,-1762.43"/>
</g>
<!-- u21&#45;&gt;u14 -->
<g id="edge24" class="edge">
<title>u21&#45;&gt;u14</title>
<path fill="none" stroke="black" d="M1857.4,-2672.96C1902.4,-2631.46 2017.73,-2525.1 2069.76,-2477.12"/>
<polygon fill="black" stroke="black" points="2072.28,-2479.56 2077.26,-2470.21 2067.53,-2474.41 2072.28,-2479.56"/>
</g>
<!-- u21&#45;&gt;u16 -->
<g id="edge25" class="edge">
<title>u21&#45;&gt;u16</title>
<path fill="none" stroke="black" d="M1943.39,-2673.6C2058.08,-2649.79 2238.58,-2594.06 2333.92,-2470 2445.82,-2324.4 2427.07,-2082.69 2416.91,-2001.53"/>
<polygon fill="black" stroke="black" points="2420.32,-2000.63 2415.54,-1991.17 2413.38,-2001.55 2420.32,-2000.63"/>
</g>
<!-- u21&#45;&gt;u18 -->
<g id="edge26" class="edge">
<title>u21&#45;&gt;u18</title>
<path fill="none" stroke="black" d="M1960.01,-2673.85C2282.72,-2630.81 3161.17,-2513.65 3489.69,-2469.84"/>
<polygon fill="black" stroke="black" points="3490.27,-2473.29 3499.72,-2468.5 3489.35,-2466.35 3490.27,-2473.29"/>
</g>
<!-- u20&#45;&gt;u26 -->
<g id="edge23" class="edge">
<title>u20&#45;&gt;u26</title>
<path fill="none" stroke="black" d="M3249.47,-2912.15C3098.38,-2869.31 2700.39,-2756.49 2540.67,-2711.21"/>
<polygon fill="black" stroke="black" points="2541.53,-2707.81 2530.96,-2708.45 2539.62,-2714.55 2541.53,-2707.81"/>
</g>
<!-- u20&#45;&gt;u21 -->
<g id="edge22" class="edge">
<title>u20&#45;&gt;u21</title>
<path fill="none" stroke="black" d="M3207.59,-2912.66C2942.07,-2869.86 2227.55,-2754.66 1950.67,-2710.02"/>
<polygon fill="black" stroke="black" points="1951.04,-2706.53 1940.61,-2708.39 1949.92,-2713.44 1951.04,-2706.53"/>
</g>
<!-- u41 -->
<g id="node56" class="node">
<title>u41</title>
<ellipse fill="#77ffff" stroke="black" cx="3713.92" cy="-2691" rx="267.55" ry="18"/>
<text text-anchor="middle" x="3713.92" y="-2687.3" font-family="Times,serif" font-size="14.00">Language.Drasil.Code.Imperative.Parsers.ConfigParser</text>
</g>
<!-- u41&#45;&gt;u18 -->
<g id="edge67" class="edge">
<title>u41&#45;&gt;u18</title>
<path fill="none" stroke="black" d="M3706.87,-2672.96C3690,-2632.14 3647.17,-2528.58 3626.89,-2479.53"/>
<polygon fill="black" stroke="black" points="3630.09,-2478.11 3623.03,-2470.21 3623.62,-2480.79 3630.09,-2478.11"/>
</g>
<!-- u46&#45;&gt;u44 -->
<g id="edge75" class="edge">
<title>u46&#45;&gt;u44</title>
<path fill="none" stroke="black" d="M3659.29,-1238.8C3798.58,-1196.53 4172.7,-1083.01 4323.06,-1037.38"/>
<polygon fill="black" stroke="black" points="4324.51,-1040.6 4333.06,-1034.34 4322.48,-1033.9 4324.51,-1040.6"/>
</g>
<!-- u46&#45;&gt;u10 -->
<g id="edge74" class="edge">
<title>u46&#45;&gt;u10</title>
<path fill="none" stroke="black" d="M3631.88,-1238.15C3696.22,-1196.36 3863.16,-1087.97 3936.03,-1040.65"/>
<polygon fill="black" stroke="black" points="3938.37,-1043.31 3944.85,-1034.93 3934.56,-1037.44 3938.37,-1043.31"/>
</g>
<!-- u46&#45;&gt;u7 -->
<g id="edge73" class="edge">
<title>u46&#45;&gt;u7</title>
<path fill="none" stroke="black" d="M3605.92,-1237.96C3605.92,-1197.4 3605.92,-1094.87 3605.92,-1045.46"/>
<polygon fill="black" stroke="black" points="3609.42,-1045.21 3605.92,-1035.21 3602.42,-1045.21 3609.42,-1045.21"/>
</g>
<!-- u46&#45;&gt;u45 -->
<g id="edge76" class="edge">
<title>u46&#45;&gt;u45</title>
<path fill="none" stroke="black" d="M3583.55,-1237.96C3528.75,-1196.19 3387.7,-1088.7 3325.34,-1041.18"/>
<polygon fill="black" stroke="black" points="3327.16,-1038.17 3317.08,-1034.89 3322.91,-1043.74 3327.16,-1038.17"/>
</g>
<!-- u45&#45;&gt;u1 -->
<g id="edge72" class="edge">
<title>u45&#45;&gt;u1</title>
<path fill="none" stroke="black" d="M3310.53,-999.01C3397.96,-903.88 3826.48,-437.58 3930.26,-324.66"/>
<polygon fill="black" stroke="black" points="3932.97,-326.88 3937.16,-317.15 3927.81,-322.15 3932.97,-326.88"/>
</g>
<!-- u58 -->
<g id="node59" class="node">
<title>u58</title>
<ellipse fill="#33ff33" stroke="black" cx="2159.92" cy="-3648" rx="108.58" ry="18"/>
<text text-anchor="middle" x="2159.92" y="-3644.3" font-family="Times,serif" font-size="14.00">drasil&#45;code.test.Main</text>
</g>
<!-- u58&#45;&gt;u57 -->
<g id="edge92" class="edge">
<title>u58&#45;&gt;u57</title>
<path fill="none" stroke="black" d="M2134.06,-3630.45C2068.01,-3588.2 1893.21,-3476.36 1820.43,-3429.8"/>
<polygon fill="black" stroke="black" points="1821.98,-3426.64 1811.67,-3424.2 1818.21,-3432.53 1821.98,-3426.64"/>
</g>
<!-- u58&#45;&gt;u55 -->
<g id="edge91" class="edge">
<title>u58&#45;&gt;u55</title>
<path fill="none" stroke="black" d="M2143.74,-3629.88C2104.32,-3588.19 2003.22,-3481.25 1957.72,-3433.11"/>
<polygon fill="black" stroke="black" points="1960.07,-3430.51 1950.65,-3425.64 1954.98,-3435.32 1960.07,-3430.51"/>
</g>
<!-- u58&#45;&gt;u53 -->
<g id="edge90" class="edge">
<title>u58&#45;&gt;u53</title>
<path fill="none" stroke="black" d="M2154.96,-3629.88C2143.07,-3588.89 2112.9,-3484.83 2098.63,-3435.59"/>
<polygon fill="black" stroke="black" points="2101.98,-3434.59 2095.84,-3425.96 2095.26,-3436.54 2101.98,-3434.59"/>
</g>
<!-- u58&#45;&gt;u52 -->
<g id="edge89" class="edge">
<title>u58&#45;&gt;u52</title>
<path fill="none" stroke="black" d="M2165.38,-3629.88C2178.48,-3588.89 2211.71,-3484.83 2227.43,-3435.59"/>
<polygon fill="black" stroke="black" points="2230.79,-3436.55 2230.5,-3425.96 2224.13,-3434.42 2230.79,-3436.55"/>
</g>
<!-- u58&#45;&gt;u51 -->
<g id="edge88" class="edge">
<title>u58&#45;&gt;u51</title>
<path fill="none" stroke="black" d="M2175.67,-3629.88C2214.04,-3588.19 2312.44,-3481.25 2356.73,-3433.11"/>
<polygon fill="black" stroke="black" points="2359.41,-3435.37 2363.6,-3425.64 2354.26,-3430.63 2359.41,-3435.37"/>
</g>
<!-- u58&#45;&gt;u6 -->
<g id="edge87" class="edge">
<title>u58&#45;&gt;u6</title>
<path fill="none" stroke="black" d="M2188.42,-3630.45C2260.82,-3588.43 2451.74,-3477.6 2532.74,-3430.58"/>
<polygon fill="black" stroke="black" points="2534.71,-3433.48 2541.6,-3425.44 2531.2,-3427.43 2534.71,-3433.48"/>
</g>
</g>
</svg>
