<?xml version="1.0" encoding="UTF-8" standalone="no"?>
<!DOCTYPE svg PUBLIC "-//W3C//DTD SVG 1.1//EN"
 "http://www.w3.org/Graphics/SVG/1.1/DTD/svg11.dtd">
<!-- Generated by graphviz version 2.43.0 (0)
 -->
<!-- Title: G Pages: 1 -->
<svg width="431pt" height="288pt"
 viewBox="0.00 0.00 431.45 288.00" xmlns="http://www.w3.org/2000/svg" xmlns:xlink="http://www.w3.org/1999/xlink">
<g id="graph0" class="graph" transform="scale(0.18 0.18) rotate(0) translate(4 1613.33)">
<title>G</title>
<polygon fill="white" stroke="transparent" points="-4,4 -4,-1613.33 2418.91,-1613.33 2418.91,4 -4,4"/>
<!-- u0 -->
<g id="node1" class="node">
<title>u0</title>
<ellipse fill="#bbffbb" stroke="black" cx="1108.43" cy="-35" rx="143.77" ry="18"/>
<text text-anchor="middle" x="1108.43" y="-31.3" font-family="Times,serif" font-size="14.00">Drasil.Database.SearchTools</text>
</g>
<!-- u18 -->
<g id="node2" class="node">
<title>u18</title>
<ellipse fill="#ffffbb" stroke="black" cx="1363.43" cy="-1155" rx="123.48" ry="18"/>
<text text-anchor="middle" x="1363.43" y="-1151.3" font-family="Times,serif" font-size="14.00">Language.Drasil.Format</text>
</g>
<!-- u13 -->
<g id="node3" class="node">
<title>u13</title>
<ellipse fill="#ffffbb" stroke="black" cx="1365.43" cy="-595" rx="119.68" ry="18"/>
<text text-anchor="middle" x="1365.43" y="-591.3" font-family="Times,serif" font-size="14.00">Language.Drasil.Config</text>
</g>
<!-- u6 -->
<g id="node4" class="node">
<title>u6</title>
<ellipse fill="#ffffbb" stroke="black" cx="1638.43" cy="-1574" rx="128.08" ry="18"/>
<text text-anchor="middle" x="1638.43" y="-1570.3" font-family="Times,serif" font-size="14.00">Language.Drasil.Printers</text>
</g>
<!-- u34 -->
<g id="node5" class="node">
<title>u34</title>
<ellipse fill="#bbbbff" stroke="black" cx="471.43" cy="-735" rx="146.47" ry="18"/>
<text text-anchor="middle" x="471.43" y="-731.3" font-family="Times,serif" font-size="14.00">Language.Drasil.Debug.Print</text>
</g>
<!-- u6&#45;&gt;u34 -->
<g id="edge12" class="edge">
<title>u6&#45;&gt;u34</title>
<path fill="none" stroke="black" d="M1520.85,-1566.84C1245.96,-1549.23 584.43,-1486.91 584.43,-1295 584.43,-1295 584.43,-1295 584.43,-1014 584.43,-914.64 521.72,-809.04 489.73,-761.64"/>
<polygon fill="black" stroke="black" points="492.5,-759.48 483.96,-753.21 486.73,-763.44 492.5,-759.48"/>
</g>
<!-- u8 -->
<g id="node10" class="node">
<title>u8</title>
<ellipse fill="#bbffff" stroke="black" cx="1514.43" cy="-1294" rx="140.28" ry="18"/>
<text text-anchor="middle" x="1514.43" y="-1290.3" font-family="Times,serif" font-size="14.00">Language.Drasil.JSON.Print</text>
</g>
<!-- u6&#45;&gt;u8 -->
<g id="edge11" class="edge">
<title>u6&#45;&gt;u8</title>
<path fill="none" stroke="black" d="M1630.86,-1556.03C1609.98,-1509.21 1551.44,-1377.96 1526.22,-1321.44"/>
<polygon fill="black" stroke="black" points="1529.33,-1319.81 1522.06,-1312.1 1522.94,-1322.66 1529.33,-1319.81"/>
</g>
<!-- u3 -->
<g id="node13" class="node">
<title>u3</title>
<ellipse fill="#ffbbff" stroke="black" cx="1799.43" cy="-1434" rx="171.67" ry="18"/>
<text text-anchor="middle" x="1799.43" y="-1430.3" font-family="Times,serif" font-size="14.00">Language.Drasil.Markdown.Config</text>
</g>
<!-- u6&#45;&gt;u3 -->
<g id="edge10" class="edge">
<title>u6&#45;&gt;u3</title>
<path fill="none" stroke="black" d="M1658.17,-1556.08C1686.66,-1531.66 1739.41,-1486.44 1771.77,-1458.71"/>
<polygon fill="black" stroke="black" points="1774.21,-1461.23 1779.53,-1452.06 1769.66,-1455.91 1774.21,-1461.23"/>
</g>
<!-- u1 -->
<g id="node15" class="node">
<title>u1</title>
<ellipse fill="#ffbbff" stroke="black" cx="2226.43" cy="-1434" rx="188.47" ry="18"/>
<text text-anchor="middle" x="2226.43" y="-1430.3" font-family="Times,serif" font-size="14.00">Language.Drasil.Markdown.CreateMd</text>
</g>
<!-- u6&#45;&gt;u1 -->
<g id="edge9" class="edge">
<title>u6&#45;&gt;u1</title>
<path fill="none" stroke="black" d="M1701.08,-1558.3C1809.34,-1532.89 2031.1,-1480.84 2148.9,-1453.2"/>
<polygon fill="black" stroke="black" points="2149.99,-1456.53 2158.93,-1450.84 2148.4,-1449.72 2149.99,-1456.53"/>
</g>
<!-- u5 -->
<g id="node16" class="node">
<title>u5</title>
<ellipse fill="#77ff77" stroke="black" cx="590.43" cy="-455" rx="139.98" ry="18"/>
<text text-anchor="middle" x="590.43" y="-451.3" font-family="Times,serif" font-size="14.00">Language.Drasil.Plain.Print</text>
</g>
<!-- u34&#45;&gt;u5 -->
<g id="edge53" class="edge">
<title>u34&#45;&gt;u5</title>
<path fill="none" stroke="black" d="M491.1,-717C514.6,-695.42 553.05,-655.82 571.43,-613 589.73,-570.39 592.15,-515.66 591.68,-483.35"/>
<polygon fill="black" stroke="black" points="595.18,-483.22 591.43,-473.31 588.18,-483.39 595.18,-483.22"/>
</g>
<!-- u28 -->
<g id="node26" class="node">
<title>u28</title>
<ellipse fill="#7777ff" stroke="black" cx="354.43" cy="-595" rx="207.96" ry="18"/>
<text text-anchor="middle" x="354.43" y="-591.3" font-family="Times,serif" font-size="14.00">Language.Drasil.Printing.Import.Sentence</text>
</g>
<!-- u34&#45;&gt;u28 -->
<g id="edge54" class="edge">
<title>u34&#45;&gt;u28</title>
<path fill="none" stroke="black" d="M457.08,-717.08C436.65,-692.97 399.02,-648.59 375.44,-620.78"/>
<polygon fill="black" stroke="black" points="378.03,-618.42 368.89,-613.06 372.69,-622.95 378.03,-618.42"/>
</g>
<!-- u17 -->
<g id="node6" class="node">
<title>u17</title>
<ellipse fill="#ffbbbb" stroke="black" cx="1695.43" cy="-1015" rx="153.27" ry="18"/>
<text text-anchor="middle" x="1695.43" y="-1011.3" font-family="Times,serif" font-size="14.00">Language.Drasil.HTML.Monad</text>
</g>
<!-- u16 -->
<g id="node7" class="node">
<title>u16</title>
<ellipse fill="#ffbbbb" stroke="black" cx="1766.43" cy="-1155" rx="144.87" ry="18"/>
<text text-anchor="middle" x="1766.43" y="-1151.3" font-family="Times,serif" font-size="14.00">Language.Drasil.HTML.Print</text>
</g>
<!-- u16&#45;&gt;u17 -->
<g id="edge29" class="edge">
<title>u16&#45;&gt;u17</title>
<path fill="none" stroke="black" d="M1757.58,-1136.8C1745.35,-1113.02 1723.15,-1069.88 1708.86,-1042.11"/>
<polygon fill="black" stroke="black" points="1711.86,-1040.27 1704.17,-1032.98 1705.63,-1043.48 1711.86,-1040.27"/>
</g>
<!-- u15 -->
<g id="node8" class="node">
<title>u15</title>
<ellipse fill="#ffbbbb" stroke="black" cx="2007.43" cy="-1015" rx="140.28" ry="18"/>
<text text-anchor="middle" x="2007.43" y="-1011.3" font-family="Times,serif" font-size="14.00">Language.Drasil.HTML.CSS</text>
</g>
<!-- u16&#45;&gt;u15 -->
<g id="edge28" class="edge">
<title>u16&#45;&gt;u15</title>
<path fill="none" stroke="black" d="M1795.5,-1137.35C1839.02,-1112.44 1921.13,-1065.42 1969.37,-1037.79"/>
<polygon fill="black" stroke="black" points="1971.32,-1040.71 1978.26,-1032.71 1967.84,-1034.64 1971.32,-1040.71"/>
</g>
<!-- u14 -->
<g id="node9" class="node">
<title>u14</title>
<ellipse fill="#ffbbbb" stroke="black" cx="2038.43" cy="-595" rx="157.87" ry="18"/>
<text text-anchor="middle" x="2038.43" y="-591.3" font-family="Times,serif" font-size="14.00">Language.Drasil.HTML.Helpers</text>
</g>
<!-- u16&#45;&gt;u14 -->
<g id="edge27" class="edge">
<title>u16&#45;&gt;u14</title>
<path fill="none" stroke="black" d="M1848.69,-1140.16C1951.86,-1120.93 2119.74,-1082.8 2156.43,-1033 2239.74,-919.93 2209.36,-847.09 2156.43,-717 2139.52,-675.44 2100.71,-640.36 2072.2,-618.85"/>
<polygon fill="black" stroke="black" points="2074.22,-615.98 2064.09,-612.88 2070.07,-621.62 2074.22,-615.98"/>
</g>
<!-- u11 -->
<g id="node33" class="node">
<title>u11</title>
<ellipse fill="#ff7777" stroke="black" cx="1261.43" cy="-1015" rx="133.48" ry="18"/>
<text text-anchor="middle" x="1261.43" y="-1011.3" font-family="Times,serif" font-size="14.00">Language.Drasil.TeX.Print</text>
</g>
<!-- u16&#45;&gt;u11 -->
<g id="edge26" class="edge">
<title>u16&#45;&gt;u11</title>
<path fill="none" stroke="black" d="M1709.48,-1138.44C1615.24,-1112.69 1427.37,-1061.35 1327.47,-1034.05"/>
<polygon fill="black" stroke="black" points="1328.35,-1030.66 1317.79,-1031.4 1326.51,-1037.41 1328.35,-1030.66"/>
</g>
<!-- u33 -->
<g id="node17" class="node">
<title>u33</title>
<ellipse fill="#ffff77" stroke="black" cx="1419.43" cy="-35" rx="149.47" ry="18"/>
<text text-anchor="middle" x="1419.43" y="-31.3" font-family="Times,serif" font-size="14.00">Language.Drasil.Printing.AST</text>
</g>
<!-- u14&#45;&gt;u33 -->
<g id="edge25" class="edge">
<title>u14&#45;&gt;u33</title>
<path fill="none" stroke="black" d="M2036.85,-576.82C2033.27,-546.08 2022.23,-480.83 1990.43,-437 1847.7,-240.26 1577.93,-105.58 1467.95,-56.54"/>
<polygon fill="black" stroke="black" points="1469.31,-53.31 1458.74,-52.47 1466.47,-59.71 1469.31,-53.31"/>
</g>
<!-- u8&#45;&gt;u18 -->
<g id="edge17" class="edge">
<title>u8&#45;&gt;u18</title>
<path fill="none" stroke="black" d="M1495.61,-1275.93C1468.9,-1251.69 1419.9,-1207.23 1389.64,-1179.78"/>
<polygon fill="black" stroke="black" points="1391.77,-1176.99 1382.01,-1172.86 1387.07,-1182.17 1391.77,-1176.99"/>
</g>
<!-- u8&#45;&gt;u16 -->
<g id="edge16" class="edge">
<title>u8&#45;&gt;u16</title>
<path fill="none" stroke="black" d="M1545.33,-1276.2C1590.99,-1251.38 1676.47,-1204.91 1726.72,-1177.59"/>
<polygon fill="black" stroke="black" points="1728.56,-1180.57 1735.67,-1172.72 1725.22,-1174.42 1728.56,-1180.57"/>
</g>
<!-- u7 -->
<g id="node11" class="node">
<title>u7</title>
<ellipse fill="#bbffff" stroke="black" cx="1994.43" cy="-735" rx="153.27" ry="18"/>
<text text-anchor="middle" x="1994.43" y="-731.3" font-family="Times,serif" font-size="14.00">Language.Drasil.JSON.Helpers</text>
</g>
<!-- u8&#45;&gt;u7 -->
<g id="edge15" class="edge">
<title>u8&#45;&gt;u7</title>
<path fill="none" stroke="black" d="M1510.34,-1275.95C1499.78,-1227.77 1476.27,-1088.19 1533.43,-997 1621.53,-856.44 1814.33,-784.38 1920.56,-754.08"/>
<polygon fill="black" stroke="black" points="1921.57,-757.43 1930.25,-751.36 1919.68,-750.69 1921.57,-757.43"/>
</g>
<!-- u7&#45;&gt;u14 -->
<g id="edge13" class="edge">
<title>u7&#45;&gt;u14</title>
<path fill="none" stroke="black" d="M1999.91,-716.8C2007.39,-693.35 2020.86,-651.09 2029.73,-623.29"/>
<polygon fill="black" stroke="black" points="2033.17,-624.01 2032.88,-613.42 2026.51,-621.88 2033.17,-624.01"/>
</g>
<!-- u20 -->
<g id="node21" class="node">
<title>u20</title>
<ellipse fill="#ffff77" stroke="black" cx="1814.43" cy="-455" rx="167.07" ry="18"/>
<text text-anchor="middle" x="1814.43" y="-451.3" font-family="Times,serif" font-size="14.00">Language.Drasil.Printing.Helpers</text>
</g>
<!-- u7&#45;&gt;u20 -->
<g id="edge14" class="edge">
<title>u7&#45;&gt;u20</title>
<path fill="none" stroke="black" d="M1971.91,-717.09C1944.69,-695.61 1899.11,-656.1 1871.43,-613 1844.71,-571.39 1828.29,-515.54 1820.31,-482.89"/>
<polygon fill="black" stroke="black" points="1823.72,-482.09 1818.01,-473.16 1816.9,-483.69 1823.72,-482.09"/>
</g>
<!-- u4 -->
<g id="node12" class="node">
<title>u4</title>
<ellipse fill="#ffbbff" stroke="black" cx="1837.43" cy="-1294" rx="165.17" ry="18"/>
<text text-anchor="middle" x="1837.43" y="-1290.3" font-family="Times,serif" font-size="14.00">Language.Drasil.Markdown.Print</text>
</g>
<!-- u4&#45;&gt;u16 -->
<g id="edge7" class="edge">
<title>u4&#45;&gt;u16</title>
<path fill="none" stroke="black" d="M1828.58,-1275.93C1816.41,-1252.44 1794.39,-1209.95 1780.1,-1182.37"/>
<polygon fill="black" stroke="black" points="1783.1,-1180.56 1775.39,-1173.29 1776.88,-1183.78 1783.1,-1180.56"/>
</g>
<!-- u2 -->
<g id="node14" class="node">
<title>u2</title>
<ellipse fill="#ffbbff" stroke="black" cx="1644.43" cy="-735" rx="178.97" ry="18"/>
<text text-anchor="middle" x="1644.43" y="-731.3" font-family="Times,serif" font-size="14.00">Language.Drasil.Markdown.Helpers</text>
</g>
<!-- u4&#45;&gt;u2 -->
<g id="edge6" class="edge">
<title>u4&#45;&gt;u2</title>
<path fill="none" stroke="black" d="M1883.88,-1276.71C1990.24,-1236.73 2236.36,-1127.45 2156.43,-997 2065.3,-848.26 1859.84,-780.95 1738.72,-753.22"/>
<polygon fill="black" stroke="black" points="1739.23,-749.75 1728.7,-750.97 1737.7,-756.58 1739.23,-749.75"/>
</g>
<!-- u3&#45;&gt;u4 -->
<g id="edge5" class="edge">
<title>u3&#45;&gt;u4</title>
<path fill="none" stroke="black" d="M1804.17,-1415.8C1810.62,-1392.35 1822.26,-1350.09 1829.92,-1322.29"/>
<polygon fill="black" stroke="black" points="1833.35,-1322.99 1832.64,-1312.42 1826.61,-1321.13 1833.35,-1322.99"/>
</g>
<!-- u2&#45;&gt;u14 -->
<g id="edge2" class="edge">
<title>u2&#45;&gt;u14</title>
<path fill="none" stroke="black" d="M1691.57,-717.49C1764.43,-691.97 1904.15,-643.03 1982.19,-615.7"/>
<polygon fill="black" stroke="black" points="1983.57,-618.92 1991.85,-612.31 1981.26,-612.32 1983.57,-618.92"/>
</g>
<!-- u21 -->
<g id="node20" class="node">
<title>u21</title>
<ellipse fill="#ffff77" stroke="black" cx="1049.43" cy="-595" rx="178.97" ry="18"/>
<text text-anchor="middle" x="1049.43" y="-591.3" font-family="Times,serif" font-size="14.00">Language.Drasil.Printing.LayoutObj</text>
</g>
<!-- u2&#45;&gt;u21 -->
<g id="edge4" class="edge">
<title>u2&#45;&gt;u21</title>
<path fill="none" stroke="black" d="M1576.76,-718.3C1465.47,-692.49 1244.5,-641.24 1127.04,-614"/>
<polygon fill="black" stroke="black" points="1127.57,-610.53 1117.04,-611.68 1125.99,-617.35 1127.57,-610.53"/>
</g>
<!-- u2&#45;&gt;u20 -->
<g id="edge3" class="edge">
<title>u2&#45;&gt;u20</title>
<path fill="none" stroke="black" d="M1678.21,-717.18C1713.87,-697.48 1768.56,-661.29 1795.43,-613 1818.1,-572.26 1819.06,-516.49 1817.13,-483.56"/>
<polygon fill="black" stroke="black" points="1820.6,-483.04 1816.39,-473.32 1813.62,-483.54 1820.6,-483.04"/>
</g>
<!-- u1&#45;&gt;u20 -->
<g id="edge1" class="edge">
<title>u1&#45;&gt;u20</title>
<path fill="none" stroke="black" d="M2229.06,-1415.87C2235.48,-1372.49 2251.43,-1254.74 2251.43,-1156 2251.43,-1156 2251.43,-1156 2251.43,-734 2251.43,-661.29 2256.46,-628.8 2205.43,-577 2140.74,-511.33 2041.21,-481.14 1958.76,-467.34"/>
<polygon fill="black" stroke="black" points="1959.22,-463.87 1948.79,-465.74 1958.11,-470.78 1959.22,-463.87"/>
</g>
<!-- u26 -->
<g id="node28" class="node">
<title>u26</title>
<ellipse fill="#7777ff" stroke="black" cx="708.43" cy="-315" rx="200.36" ry="18"/>
<text text-anchor="middle" x="708.43" y="-311.3" font-family="Times,serif" font-size="14.00">Language.Drasil.Printing.Import.Symbol</text>
</g>
<!-- u5&#45;&gt;u26 -->
<g id="edge8" class="edge">
<title>u5&#45;&gt;u26</title>
<path fill="none" stroke="black" d="M604.9,-437.08C625.51,-412.97 663.46,-368.59 687.24,-340.78"/>
<polygon fill="black" stroke="black" points="690,-342.93 693.84,-333.06 684.68,-338.39 690,-342.93"/>
</g>
<!-- u32 -->
<g id="node18" class="node">
<title>u32</title>
<ellipse fill="#ffff77" stroke="black" cx="716.43" cy="-35" rx="223.66" ry="18"/>
<text text-anchor="middle" x="716.43" y="-31.3" font-family="Times,serif" font-size="14.00">Language.Drasil.Printing.PrintingInformation</text>
</g>
<!-- u22 -->
<g id="node19" class="node">
<title>u22</title>
<ellipse fill="#ffff77" stroke="black" cx="886.43" cy="-875" rx="162.47" ry="18"/>
<text text-anchor="middle" x="886.43" y="-871.3" font-family="Times,serif" font-size="14.00">Language.Drasil.Printing.Import</text>
</g>
<!-- u29 -->
<g id="node25" class="node">
<title>u29</title>
<ellipse fill="#7777ff" stroke="black" cx="886.43" cy="-735" rx="212.56" ry="18"/>
<text text-anchor="middle" x="886.43" y="-731.3" font-family="Times,serif" font-size="14.00">Language.Drasil.Printing.Import.Document</text>
</g>
<!-- u22&#45;&gt;u29 -->
<g id="edge34" class="edge">
<title>u22&#45;&gt;u29</title>
<path fill="none" stroke="black" d="M886.43,-856.8C886.43,-833.46 886.43,-791.47 886.43,-763.66"/>
<polygon fill="black" stroke="black" points="889.93,-763.42 886.43,-753.42 882.93,-763.42 889.93,-763.42"/>
</g>
<!-- u23 -->
<g id="node31" class="node">
<title>u23</title>
<ellipse fill="#7777ff" stroke="black" cx="936.43" cy="-455" rx="187.67" ry="18"/>
<text text-anchor="middle" x="936.43" y="-451.3" font-family="Times,serif" font-size="14.00">Language.Drasil.Printing.Import.Expr</text>
</g>
<!-- u22&#45;&gt;u23 -->
<g id="edge33" class="edge">
<title>u22&#45;&gt;u23</title>
<path fill="none" stroke="black" d="M820.13,-858.51C743.75,-836.89 632.59,-791.69 664.43,-717 712.38,-604.53 835.19,-517.22 898.07,-478.24"/>
<polygon fill="black" stroke="black" points="900.2,-481.05 906.9,-472.85 896.54,-475.08 900.2,-481.05"/>
</g>
<!-- u19 -->
<g id="node22" class="node">
<title>u19</title>
<ellipse fill="#ffff77" stroke="black" cx="1592.43" cy="-315" rx="167.87" ry="18"/>
<text text-anchor="middle" x="1592.43" y="-311.3" font-family="Times,serif" font-size="14.00">Language.Drasil.Printing.Citation</text>
</g>
<!-- u21&#45;&gt;u19 -->
<g id="edge32" class="edge">
<title>u21&#45;&gt;u19</title>
<path fill="none" stroke="black" d="M1171.89,-581.87C1309.54,-565.56 1520.73,-531.63 1573.43,-473 1605.37,-437.47 1602.67,-377.71 1597.66,-343.07"/>
<polygon fill="black" stroke="black" points="1601.11,-342.5 1596.07,-333.18 1594.2,-343.61 1601.11,-342.5"/>
</g>
<!-- u20&#45;&gt;u19 -->
<g id="edge31" class="edge">
<title>u20&#45;&gt;u19</title>
<path fill="none" stroke="black" d="M1787.21,-437.08C1747.24,-412.23 1672.62,-365.85 1628.25,-338.26"/>
<polygon fill="black" stroke="black" points="1629.87,-335.15 1619.53,-332.84 1626.17,-341.1 1629.87,-335.15"/>
</g>
<!-- u19&#45;&gt;u33 -->
<g id="edge30" class="edge">
<title>u19&#45;&gt;u33</title>
<path fill="none" stroke="black" d="M1581.87,-297.03C1552.61,-250.02 1470.38,-117.88 1435.45,-61.74"/>
<polygon fill="black" stroke="black" points="1438.33,-59.74 1430.07,-53.1 1432.39,-63.44 1438.33,-59.74"/>
</g>
<!-- u31 -->
<g id="node23" class="node">
<title>u31</title>
<ellipse fill="#7777ff" stroke="black" cx="216.43" cy="-455" rx="216.36" ry="18"/>
<text text-anchor="middle" x="216.43" y="-451.3" font-family="Times,serif" font-size="14.00">Language.Drasil.Printing.Import.ModelExpr</text>
</g>
<!-- u30 -->
<g id="node24" class="node">
<title>u30</title>
<ellipse fill="#7777ff" stroke="black" cx="709.43" cy="-175" rx="193.07" ry="18"/>
<text text-anchor="middle" x="709.43" y="-171.3" font-family="Times,serif" font-size="14.00">Language.Drasil.Printing.Import.Space</text>
</g>
<!-- u31&#45;&gt;u30 -->
<g id="edge52" class="edge">
<title>u31&#45;&gt;u30</title>
<path fill="none" stroke="black" d="M246.53,-437.03C331.89,-388.89 575.52,-251.51 670.68,-197.85"/>
<polygon fill="black" stroke="black" points="672.42,-200.89 679.41,-192.93 668.99,-194.79 672.42,-200.89"/>
</g>
<!-- u31&#45;&gt;u26 -->
<g id="edge51" class="edge">
<title>u31&#45;&gt;u26</title>
<path fill="none" stroke="black" d="M274.8,-437.63C366.47,-411.92 543.72,-362.2 640.8,-334.97"/>
<polygon fill="black" stroke="black" points="641.83,-338.31 650.52,-332.24 639.94,-331.57 641.83,-338.31"/>
</g>
<!-- u25 -->
<g id="node29" class="node">
<title>u25</title>
<ellipse fill="#7777ff" stroke="black" cx="1122.43" cy="-315" rx="196.07" ry="18"/>
<text text-anchor="middle" x="1122.43" y="-311.3" font-family="Times,serif" font-size="14.00">Language.Drasil.Printing.Import.Literal</text>
</g>
<!-- u31&#45;&gt;u25 -->
<g id="edge50" class="edge">
<title>u31&#45;&gt;u25</title>
<path fill="none" stroke="black" d="M315.11,-438.97C486.75,-412.83 838.79,-359.2 1015.81,-332.24"/>
<polygon fill="black" stroke="black" points="1016.57,-335.67 1025.92,-330.7 1015.51,-328.75 1016.57,-335.67"/>
</g>
<!-- u30&#45;&gt;u33 -->
<g id="edge49" class="edge">
<title>u30&#45;&gt;u33</title>
<path fill="none" stroke="black" d="M788.81,-158.57C923.49,-132.39 1195.6,-79.51 1334.17,-52.57"/>
<polygon fill="black" stroke="black" points="1335.17,-55.94 1344.32,-50.6 1333.83,-49.07 1335.17,-55.94"/>
</g>
<!-- u30&#45;&gt;u32 -->
<g id="edge48" class="edge">
<title>u30&#45;&gt;u32</title>
<path fill="none" stroke="black" d="M710.3,-156.8C711.49,-133.46 713.62,-91.47 715.03,-63.66"/>
<polygon fill="black" stroke="black" points="718.54,-63.58 715.55,-53.42 711.55,-63.23 718.54,-63.58"/>
</g>
<!-- u29&#45;&gt;u21 -->
<g id="edge45" class="edge">
<title>u29&#45;&gt;u21</title>
<path fill="none" stroke="black" d="M906.42,-717.08C935.26,-692.66 988.67,-647.44 1021.42,-619.71"/>
<polygon fill="black" stroke="black" points="1023.91,-622.19 1029.28,-613.06 1019.39,-616.85 1023.91,-622.19"/>
</g>
<!-- u29&#45;&gt;u28 -->
<g id="edge47" class="edge">
<title>u29&#45;&gt;u28</title>
<path fill="none" stroke="black" d="M823.84,-717.76C724.59,-692.02 531.63,-641.96 426.66,-614.74"/>
<polygon fill="black" stroke="black" points="427.34,-611.3 416.78,-612.17 425.58,-618.07 427.34,-611.3"/>
</g>
<!-- u24 -->
<g id="node30" class="node">
<title>u24</title>
<ellipse fill="#7777ff" stroke="black" cx="1353.43" cy="-455" rx="211.46" ry="18"/>
<text text-anchor="middle" x="1353.43" y="-451.3" font-family="Times,serif" font-size="14.00">Language.Drasil.Printing.Import.CodeExpr</text>
</g>
<!-- u29&#45;&gt;u24 -->
<g id="edge46" class="edge">
<title>u29&#45;&gt;u24</title>
<path fill="none" stroke="black" d="M876.12,-716.8C858.83,-685.46 828.91,-618.49 861.43,-577 904.96,-521.46 1087.19,-488.01 1217.16,-470.78"/>
<polygon fill="black" stroke="black" points="1217.74,-474.23 1227.2,-469.46 1216.83,-467.29 1217.74,-474.23"/>
</g>
<!-- u28&#45;&gt;u31 -->
<g id="edge44" class="edge">
<title>u28&#45;&gt;u31</title>
<path fill="none" stroke="black" d="M337.23,-576.8C312.93,-552.5 268.42,-507.99 240.74,-480.31"/>
<polygon fill="black" stroke="black" points="242.96,-477.58 233.41,-472.98 238.01,-482.53 242.96,-477.58"/>
</g>
<!-- u27 -->
<g id="node27" class="node">
<title>u27</title>
<ellipse fill="#7777ff" stroke="black" cx="1122.43" cy="-175" rx="202.26" ry="18"/>
<text text-anchor="middle" x="1122.43" y="-171.3" font-family="Times,serif" font-size="14.00">Language.Drasil.Printing.Import.Helpers</text>
</g>
<!-- u27&#45;&gt;u0 -->
<g id="edge41" class="edge">
<title>u27&#45;&gt;u0</title>
<path fill="none" stroke="black" d="M1120.69,-156.8C1118.32,-133.46 1114.06,-91.47 1111.24,-63.66"/>
<polygon fill="black" stroke="black" points="1114.69,-63.01 1110.2,-53.42 1107.72,-63.72 1114.69,-63.01"/>
</g>
<!-- u27&#45;&gt;u33 -->
<g id="edge43" class="edge">
<title>u27&#45;&gt;u33</title>
<path fill="none" stroke="black" d="M1158.55,-157.22C1212.85,-131.99 1315.41,-84.33 1374.47,-56.89"/>
<polygon fill="black" stroke="black" points="1375.97,-60.05 1383.56,-52.67 1373.02,-53.71 1375.97,-60.05"/>
</g>
<!-- u27&#45;&gt;u32 -->
<g id="edge42" class="edge">
<title>u27&#45;&gt;u32</title>
<path fill="none" stroke="black" d="M1073.86,-157.49C998.92,-132.02 855.38,-83.23 774.87,-55.86"/>
<polygon fill="black" stroke="black" points="775.97,-52.54 765.37,-52.64 773.71,-59.17 775.97,-52.54"/>
</g>
<!-- u26&#45;&gt;u33 -->
<g id="edge40" class="edge">
<title>u26&#45;&gt;u33</title>
<path fill="none" stroke="black" d="M841.69,-301.53C1001.28,-284.34 1256.71,-248.99 1333.43,-193 1377.64,-160.73 1401.73,-98.56 1412.45,-62.9"/>
<polygon fill="black" stroke="black" points="1415.85,-63.74 1415.24,-53.17 1409.12,-61.81 1415.85,-63.74"/>
</g>
<!-- u25&#45;&gt;u27 -->
<g id="edge39" class="edge">
<title>u25&#45;&gt;u27</title>
<path fill="none" stroke="black" d="M1122.43,-296.8C1122.43,-273.46 1122.43,-231.47 1122.43,-203.66"/>
<polygon fill="black" stroke="black" points="1125.93,-203.42 1122.43,-193.42 1118.93,-203.42 1125.93,-203.42"/>
</g>
<!-- u24&#45;&gt;u26 -->
<g id="edge38" class="edge">
<title>u24&#45;&gt;u26</title>
<path fill="none" stroke="black" d="M1279.13,-438.1C1158.18,-412.23 919.52,-361.16 792.53,-333.99"/>
<polygon fill="black" stroke="black" points="792.98,-330.51 782.46,-331.84 791.51,-337.35 792.98,-330.51"/>
</g>
<!-- u24&#45;&gt;u25 -->
<g id="edge37" class="edge">
<title>u24&#45;&gt;u25</title>
<path fill="none" stroke="black" d="M1325.11,-437.08C1283.43,-412.18 1205.55,-365.65 1159.41,-338.09"/>
<polygon fill="black" stroke="black" points="1161.01,-334.97 1150.63,-332.84 1157.42,-340.98 1161.01,-334.97"/>
</g>
<!-- u23&#45;&gt;u26 -->
<g id="edge36" class="edge">
<title>u23&#45;&gt;u26</title>
<path fill="none" stroke="black" d="M908.47,-437.08C867.34,-412.18 790.47,-365.65 744.93,-338.09"/>
<polygon fill="black" stroke="black" points="746.63,-335.03 736.26,-332.84 743,-341.02 746.63,-335.03"/>
</g>
<!-- u23&#45;&gt;u25 -->
<g id="edge35" class="edge">
<title>u23&#45;&gt;u25</title>
<path fill="none" stroke="black" d="M959.24,-437.08C992.29,-412.56 1053.61,-367.06 1090.95,-339.36"/>
<polygon fill="black" stroke="black" points="1093.49,-341.83 1099.44,-333.06 1089.32,-336.21 1093.49,-341.83"/>
</g>
<!-- u12 -->
<g id="node32" class="node">
<title>u12</title>
<ellipse fill="#ff7777" stroke="black" cx="1644.43" cy="-595" rx="141.88" ry="18"/>
<text text-anchor="middle" x="1644.43" y="-591.3" font-family="Times,serif" font-size="14.00">Language.Drasil.TeX.Monad</text>
</g>
<!-- u12&#45;&gt;u20 -->
<g id="edge24" class="edge">
<title>u12&#45;&gt;u20</title>
<path fill="none" stroke="black" d="M1665.28,-577.08C1695.35,-552.66 1751.06,-507.44 1785.22,-479.71"/>
<polygon fill="black" stroke="black" points="1787.86,-482.08 1793.41,-473.06 1783.45,-476.65 1787.86,-482.08"/>
</g>
<!-- u11&#45;&gt;u22 -->
<g id="edge23" class="edge">
<title>u11&#45;&gt;u22</title>
<path fill="none" stroke="black" d="M1217.68,-997.9C1148.8,-972.55 1015.25,-923.41 940.48,-895.89"/>
<polygon fill="black" stroke="black" points="941.37,-892.49 930.77,-892.32 938.95,-899.06 941.37,-892.49"/>
</g>
<!-- u10 -->
<g id="node34" class="node">
<title>u10</title>
<ellipse fill="#ff7777" stroke="black" cx="1261.43" cy="-875" rx="154.07" ry="18"/>
<text text-anchor="middle" x="1261.43" y="-871.3" font-family="Times,serif" font-size="14.00">Language.Drasil.TeX.Preamble</text>
</g>
<!-- u11&#45;&gt;u10 -->
<g id="edge22" class="edge">
<title>u11&#45;&gt;u10</title>
<path fill="none" stroke="black" d="M1261.43,-996.8C1261.43,-973.46 1261.43,-931.47 1261.43,-903.66"/>
<polygon fill="black" stroke="black" points="1264.93,-903.42 1261.43,-893.42 1257.93,-903.42 1264.93,-903.42"/>
</g>
<!-- u10&#45;&gt;u21 -->
<g id="edge21" class="edge">
<title>u10&#45;&gt;u21</title>
<path fill="none" stroke="black" d="M1243.07,-857C1219.28,-834.48 1177.22,-792.94 1146.43,-753 1113.1,-709.77 1081.17,-654.54 1063.54,-622.43"/>
<polygon fill="black" stroke="black" points="1066.4,-620.36 1058.54,-613.25 1060.25,-623.71 1066.4,-620.36"/>
</g>
<!-- u9 -->
<g id="node35" class="node">
<title>u9</title>
<ellipse fill="#ff7777" stroke="black" cx="1301.43" cy="-735" rx="146.47" ry="18"/>
<text text-anchor="middle" x="1301.43" y="-731.3" font-family="Times,serif" font-size="14.00">Language.Drasil.TeX.Helpers</text>
</g>
<!-- u10&#45;&gt;u9 -->
<g id="edge20" class="edge">
<title>u10&#45;&gt;u9</title>
<path fill="none" stroke="black" d="M1266.42,-856.8C1273.21,-833.35 1285.46,-791.09 1293.52,-763.29"/>
<polygon fill="black" stroke="black" points="1296.96,-763.99 1296.38,-753.42 1290.24,-762.05 1296.96,-763.99"/>
</g>
<!-- u9&#45;&gt;u13 -->
<g id="edge19" class="edge">
<title>u9&#45;&gt;u13</title>
<path fill="none" stroke="black" d="M1309.41,-716.8C1320.44,-693.02 1340.44,-649.88 1353.32,-622.11"/>
<polygon fill="black" stroke="black" points="1356.52,-623.53 1357.56,-612.98 1350.17,-620.58 1356.52,-623.53"/>
</g>
<!-- u9&#45;&gt;u12 -->
<g id="edge18" class="edge">
<title>u9&#45;&gt;u12</title>
<path fill="none" stroke="black" d="M1342.12,-717.63C1405.04,-692.31 1525.79,-643.73 1594.11,-616.25"/>
<polygon fill="black" stroke="black" points="1595.82,-619.33 1603.79,-612.35 1593.21,-612.84 1595.82,-619.33"/>
</g>
</g>
</svg>
