<?xml version="1.0" encoding="UTF-8" standalone="no"?>
<!DOCTYPE svg PUBLIC "-//W3C//DTD SVG 1.1//EN"
 "http://www.w3.org/Graphics/SVG/1.1/DTD/svg11.dtd">
<!-- Generated by graphviz version 2.43.0 (0)
 -->
<!-- Title: G Pages: 1 -->
<svg width="431pt" height="288pt"
 viewBox="0.00 0.00 431.50 288.00" xmlns="http://www.w3.org/2000/svg" xmlns:xlink="http://www.w3.org/1999/xlink">
<g id="graph0" class="graph" transform="scale(0.16 0.16) rotate(0) translate(4 1764.67)">
<title>G</title>
<polygon fill="white" stroke="transparent" points="-4,4 -4,-1764.67 2645.91,-1764.67 2645.91,4 -4,4"/>
<!-- u0 -->
<g id="node1" class="node">
<title>u0</title>
<ellipse fill="#bbffbb" stroke="black" cx="699.43" cy="-38" rx="143.77" ry="18"/>
<text text-anchor="middle" x="699.43" y="-34.3" font-family="Times,serif" font-size="14.00">Drasil.Database.SearchTools</text>
</g>
<!-- u34 -->
<g id="node2" class="node">
<title>u34</title>
<ellipse fill="#ffffbb" stroke="black" cx="1879.43" cy="-651" rx="119.68" ry="18"/>
<text text-anchor="middle" x="1879.43" y="-647.3" font-family="Times,serif" font-size="14.00">Language.Drasil.Config</text>
</g>
<!-- u27 -->
<g id="node3" class="node">
<title>u27</title>
<ellipse fill="#ffffbb" stroke="black" cx="1709.43" cy="-1722" rx="128.08" ry="18"/>
<text text-anchor="middle" x="1709.43" y="-1718.3" font-family="Times,serif" font-size="14.00">Language.Drasil.Printers</text>
</g>
<!-- u26 -->
<g id="node5" class="node">
<title>u26</title>
<ellipse fill="#bbbbff" stroke="black" cx="1073.43" cy="-1569" rx="135.68" ry="18"/>
<text text-anchor="middle" x="1073.43" y="-1565.3" font-family="Times,serif" font-size="14.00">Language.Drasil.DOT.Print</text>
</g>
<!-- u27&#45;&gt;u26 -->
<g id="edge41" class="edge">
<title>u27&#45;&gt;u26</title>
<path fill="none" stroke="black" d="M1647.29,-1706.25C1529.21,-1678.21 1272.97,-1617.38 1146.73,-1587.4"/>
<polygon fill="black" stroke="black" points="1147.3,-1583.94 1136.77,-1585.04 1145.69,-1590.75 1147.3,-1583.94"/>
</g>
<!-- u35 -->
<g id="node6" class="node">
<title>u35</title>
<ellipse fill="#ffbbbb" stroke="black" cx="1373.43" cy="-1569" rx="146.47" ry="18"/>
<text text-anchor="middle" x="1373.43" y="-1565.3" font-family="Times,serif" font-size="14.00">Language.Drasil.Debug.Print</text>
</g>
<!-- u27&#45;&gt;u35 -->
<g id="edge43" class="edge">
<title>u27&#45;&gt;u35</title>
<path fill="none" stroke="black" d="M1673.15,-1704.7C1611.57,-1677.02 1486.69,-1620.9 1419.2,-1590.57"/>
<polygon fill="black" stroke="black" points="1420.62,-1587.37 1410.07,-1586.46 1417.75,-1593.76 1420.62,-1587.37"/>
</g>
<!-- u32 -->
<g id="node12" class="node">
<title>u32</title>
<ellipse fill="#ffbbff" stroke="black" cx="2001.43" cy="-1416" rx="140.28" ry="18"/>
<text text-anchor="middle" x="2001.43" y="-1412.3" font-family="Times,serif" font-size="14.00">Language.Drasil.JSON.Print</text>
</g>
<!-- u27&#45;&gt;u32 -->
<g id="edge42" class="edge">
<title>u27&#45;&gt;u32</title>
<path fill="none" stroke="black" d="M1737.9,-1704.39C1775.76,-1681.38 1843.36,-1636.93 1890.43,-1587 1932.87,-1541.99 1969.29,-1478.8 1987.99,-1443.51"/>
<polygon fill="black" stroke="black" points="1991.26,-1444.81 1992.79,-1434.33 1985.06,-1441.57 1991.26,-1444.81"/>
</g>
<!-- u19 -->
<g id="node13" class="node">
<title>u19</title>
<ellipse fill="#77ff77" stroke="black" cx="1709.43" cy="-1569" rx="171.67" ry="18"/>
<text text-anchor="middle" x="1709.43" y="-1565.3" font-family="Times,serif" font-size="14.00">Language.Drasil.Markdown.Config</text>
</g>
<!-- u27&#45;&gt;u19 -->
<g id="edge40" class="edge">
<title>u27&#45;&gt;u19</title>
<path fill="none" stroke="black" d="M1709.43,-1703.97C1709.43,-1678.03 1709.43,-1628.36 1709.43,-1597.33"/>
<polygon fill="black" stroke="black" points="1712.93,-1597.2 1709.43,-1587.2 1705.93,-1597.2 1712.93,-1597.2"/>
</g>
<!-- u16 -->
<g id="node16" class="node">
<title>u16</title>
<ellipse fill="#77ff77" stroke="black" cx="2453.43" cy="-1263" rx="188.47" ry="18"/>
<text text-anchor="middle" x="2453.43" y="-1259.3" font-family="Times,serif" font-size="14.00">Language.Drasil.Markdown.CreateMd</text>
</g>
<!-- u27&#45;&gt;u16 -->
<g id="edge39" class="edge">
<title>u27&#45;&gt;u16</title>
<path fill="none" stroke="black" d="M1736.79,-1704.19C1850.72,-1634.21 2287.53,-1365.91 2417.04,-1286.36"/>
<polygon fill="black" stroke="black" points="2419.13,-1289.18 2425.82,-1280.96 2415.47,-1283.21 2419.13,-1289.18"/>
</g>
<!-- u20 -->
<g id="node4" class="node">
<title>u20</title>
<ellipse fill="#ffffbb" stroke="black" cx="2001.43" cy="-1263" rx="123.48" ry="18"/>
<text text-anchor="middle" x="2001.43" y="-1259.3" font-family="Times,serif" font-size="14.00">Language.Drasil.Format</text>
</g>
<!-- u21 -->
<g id="node17" class="node">
<title>u21</title>
<ellipse fill="#ffff77" stroke="black" cx="1243.43" cy="-1416" rx="139.98" ry="18"/>
<text text-anchor="middle" x="1243.43" y="-1412.3" font-family="Times,serif" font-size="14.00">Language.Drasil.Plain.Print</text>
</g>
<!-- u35&#45;&gt;u21 -->
<g id="edge54" class="edge">
<title>u35&#45;&gt;u21</title>
<path fill="none" stroke="black" d="M1358.77,-1550.97C1335.85,-1524.35 1291.42,-1472.74 1264.89,-1441.93"/>
<polygon fill="black" stroke="black" points="1267.41,-1439.49 1258.24,-1434.2 1262.11,-1444.06 1267.41,-1439.49"/>
</g>
<!-- u31 -->
<g id="node7" class="node">
<title>u31</title>
<ellipse fill="#bbffff" stroke="black" cx="2175.43" cy="-651" rx="157.87" ry="18"/>
<text text-anchor="middle" x="2175.43" y="-647.3" font-family="Times,serif" font-size="14.00">Language.Drasil.HTML.Helpers</text>
</g>
<!-- u2 -->
<g id="node22" class="node">
<title>u2</title>
<ellipse fill="#7777ff" stroke="black" cx="1038.43" cy="-38" rx="149.47" ry="18"/>
<text text-anchor="middle" x="1038.43" y="-34.3" font-family="Times,serif" font-size="14.00">Language.Drasil.Printing.AST</text>
</g>
<!-- u31&#45;&gt;u2 -->
<g id="edge48" class="edge">
<title>u31&#45;&gt;u2</title>
<path fill="none" stroke="black" d="M2146.7,-633.21C2063.18,-584.52 1812.91,-439.52 1601.43,-326 1409.19,-222.8 1175.86,-106.74 1081.3,-60.08"/>
<polygon fill="black" stroke="black" points="1082.84,-56.93 1072.32,-55.65 1079.74,-63.21 1082.84,-56.93"/>
</g>
<!-- u30 -->
<g id="node8" class="node">
<title>u30</title>
<ellipse fill="#bbffff" stroke="black" cx="1638.43" cy="-1110" rx="153.27" ry="18"/>
<text text-anchor="middle" x="1638.43" y="-1106.3" font-family="Times,serif" font-size="14.00">Language.Drasil.HTML.Monad</text>
</g>
<!-- u29 -->
<g id="node9" class="node">
<title>u29</title>
<ellipse fill="#bbffff" stroke="black" cx="1950.43" cy="-1110" rx="140.28" ry="18"/>
<text text-anchor="middle" x="1950.43" y="-1106.3" font-family="Times,serif" font-size="14.00">Language.Drasil.HTML.CSS</text>
</g>
<!-- u28 -->
<g id="node10" class="node">
<title>u28</title>
<ellipse fill="#bbffff" stroke="black" cx="1697.43" cy="-1263" rx="144.87" ry="18"/>
<text text-anchor="middle" x="1697.43" y="-1259.3" font-family="Times,serif" font-size="14.00">Language.Drasil.HTML.Print</text>
</g>
<!-- u28&#45;&gt;u31 -->
<g id="edge47" class="edge">
<title>u28&#45;&gt;u31</title>
<path fill="none" stroke="black" d="M1770.81,-1247.38C1874.96,-1225.07 2057.69,-1179.63 2099.43,-1128 2195.58,-1009.07 2108.02,-936.08 2137.43,-786 2144.82,-748.29 2157.68,-705.77 2166.37,-678.93"/>
<polygon fill="black" stroke="black" points="2169.79,-679.72 2169.58,-669.12 2163.14,-677.53 2169.79,-679.72"/>
</g>
<!-- u28&#45;&gt;u30 -->
<g id="edge46" class="edge">
<title>u28&#45;&gt;u30</title>
<path fill="none" stroke="black" d="M1690.78,-1244.97C1680.55,-1218.8 1660.89,-1168.49 1648.79,-1137.52"/>
<polygon fill="black" stroke="black" points="1652.05,-1136.24 1645.15,-1128.2 1645.53,-1138.79 1652.05,-1136.24"/>
</g>
<!-- u28&#45;&gt;u29 -->
<g id="edge45" class="edge">
<title>u28&#45;&gt;u29</title>
<path fill="none" stroke="black" d="M1725.47,-1245.26C1771.35,-1217.88 1862.44,-1163.51 1913.51,-1133.03"/>
<polygon fill="black" stroke="black" points="1915.47,-1135.94 1922.26,-1127.81 1911.88,-1129.93 1915.47,-1135.94"/>
</g>
<!-- u22 -->
<g id="node36" class="node">
<title>u22</title>
<ellipse fill="#77ffff" stroke="black" cx="1333.43" cy="-1110" rx="133.48" ry="18"/>
<text text-anchor="middle" x="1333.43" y="-1106.3" font-family="Times,serif" font-size="14.00">Language.Drasil.TeX.Print</text>
</g>
<!-- u28&#45;&gt;u22 -->
<g id="edge44" class="edge">
<title>u28&#45;&gt;u22</title>
<path fill="none" stroke="black" d="M1657.78,-1245.55C1590.69,-1217.72 1454.96,-1161.41 1382.17,-1131.22"/>
<polygon fill="black" stroke="black" points="1383.33,-1127.91 1372.75,-1127.31 1380.65,-1134.38 1383.33,-1127.91"/>
</g>
<!-- u33 -->
<g id="node11" class="node">
<title>u33</title>
<ellipse fill="#ffbbff" stroke="black" cx="2299.43" cy="-804" rx="153.27" ry="18"/>
<text text-anchor="middle" x="2299.43" y="-800.3" font-family="Times,serif" font-size="14.00">Language.Drasil.JSON.Helpers</text>
</g>
<!-- u33&#45;&gt;u31 -->
<g id="edge53" class="edge">
<title>u33&#45;&gt;u31</title>
<path fill="none" stroke="black" d="M2285.45,-785.97C2263.59,-759.35 2221.2,-707.74 2195.9,-676.93"/>
<polygon fill="black" stroke="black" points="2198.6,-674.7 2189.55,-669.2 2193.19,-679.15 2198.6,-674.7"/>
</g>
<!-- u15 -->
<g id="node18" class="node">
<title>u15</title>
<ellipse fill="#7777ff" stroke="black" cx="1600.43" cy="-498" rx="167.07" ry="18"/>
<text text-anchor="middle" x="1600.43" y="-494.3" font-family="Times,serif" font-size="14.00">Language.Drasil.Printing.Helpers</text>
</g>
<!-- u33&#45;&gt;u15 -->
<g id="edge52" class="edge">
<title>u33&#45;&gt;u15</title>
<path fill="none" stroke="black" d="M2312.44,-785.89C2336.08,-752.58 2380.3,-678.32 2342.43,-633 2270.5,-546.92 1962.29,-516.04 1766.42,-505.03"/>
<polygon fill="black" stroke="black" points="1766.49,-501.52 1756.31,-504.47 1766.1,-508.51 1766.49,-501.52"/>
</g>
<!-- u32&#45;&gt;u20 -->
<g id="edge49" class="edge">
<title>u32&#45;&gt;u20</title>
<path fill="none" stroke="black" d="M2001.43,-1397.97C2001.43,-1372.03 2001.43,-1322.36 2001.43,-1291.33"/>
<polygon fill="black" stroke="black" points="2004.93,-1291.2 2001.43,-1281.2 1997.93,-1291.2 2004.93,-1291.2"/>
</g>
<!-- u32&#45;&gt;u28 -->
<g id="edge50" class="edge">
<title>u32&#45;&gt;u28</title>
<path fill="none" stroke="black" d="M1968.03,-1398.41C1912.43,-1370.79 1800.97,-1315.43 1739.88,-1285.09"/>
<polygon fill="black" stroke="black" points="1741.4,-1281.93 1730.89,-1280.62 1738.29,-1288.2 1741.4,-1281.93"/>
</g>
<!-- u32&#45;&gt;u33 -->
<g id="edge51" class="edge">
<title>u32&#45;&gt;u33</title>
<path fill="none" stroke="black" d="M2023.15,-1398.22C2052.06,-1374.83 2103.06,-1329.79 2133.43,-1281 2229.74,-1126.26 2279.21,-908.27 2294.31,-832.34"/>
<polygon fill="black" stroke="black" points="2297.81,-832.68 2296.29,-822.2 2290.94,-831.34 2297.81,-832.68"/>
</g>
<!-- u17 -->
<g id="node15" class="node">
<title>u17</title>
<ellipse fill="#77ff77" stroke="black" cx="1678.43" cy="-1416" rx="165.17" ry="18"/>
<text text-anchor="middle" x="1678.43" y="-1412.3" font-family="Times,serif" font-size="14.00">Language.Drasil.Markdown.Print</text>
</g>
<!-- u19&#45;&gt;u17 -->
<g id="edge30" class="edge">
<title>u19&#45;&gt;u17</title>
<path fill="none" stroke="black" d="M1705.93,-1550.97C1700.61,-1525.03 1690.41,-1475.36 1684.04,-1444.33"/>
<polygon fill="black" stroke="black" points="1687.4,-1443.29 1681.96,-1434.2 1680.54,-1444.7 1687.4,-1443.29"/>
</g>
<!-- u18 -->
<g id="node14" class="node">
<title>u18</title>
<ellipse fill="#77ff77" stroke="black" cx="1430.43" cy="-804" rx="178.97" ry="18"/>
<text text-anchor="middle" x="1430.43" y="-800.3" font-family="Times,serif" font-size="14.00">Language.Drasil.Markdown.Helpers</text>
</g>
<!-- u18&#45;&gt;u31 -->
<g id="edge29" class="edge">
<title>u18&#45;&gt;u31</title>
<path fill="none" stroke="black" d="M1506.31,-787.62C1646.7,-759.16 1945.95,-698.51 2091.9,-668.93"/>
<polygon fill="black" stroke="black" points="2092.61,-672.36 2101.71,-666.94 2091.22,-665.5 2092.61,-672.36"/>
</g>
<!-- u18&#45;&gt;u15 -->
<g id="edge28" class="edge">
<title>u18&#45;&gt;u15</title>
<path fill="none" stroke="black" d="M1428.48,-785.93C1425.63,-753.94 1423.19,-683.62 1449.43,-633 1474.85,-583.94 1526.22,-544.49 1561.95,-521.42"/>
<polygon fill="black" stroke="black" points="1564.08,-524.21 1570.67,-515.91 1560.34,-518.29 1564.08,-524.21"/>
</g>
<!-- u1 -->
<g id="node23" class="node">
<title>u1</title>
<ellipse fill="#7777ff" stroke="black" cx="1223.43" cy="-651" rx="178.97" ry="18"/>
<text text-anchor="middle" x="1223.43" y="-647.3" font-family="Times,serif" font-size="14.00">Language.Drasil.Printing.LayoutObj</text>
</g>
<!-- u18&#45;&gt;u1 -->
<g id="edge27" class="edge">
<title>u18&#45;&gt;u1</title>
<path fill="none" stroke="black" d="M1407.09,-785.97C1369.8,-758.77 1296.73,-705.47 1254.87,-674.94"/>
<polygon fill="black" stroke="black" points="1256.83,-672.03 1246.69,-668.97 1252.7,-677.69 1256.83,-672.03"/>
</g>
<!-- u17&#45;&gt;u28 -->
<g id="edge26" class="edge">
<title>u17&#45;&gt;u28</title>
<path fill="none" stroke="black" d="M1680.57,-1397.97C1683.84,-1372.03 1690.09,-1322.36 1693.99,-1291.33"/>
<polygon fill="black" stroke="black" points="1697.49,-1291.56 1695.27,-1281.2 1690.55,-1290.68 1697.49,-1291.56"/>
</g>
<!-- u17&#45;&gt;u18 -->
<g id="edge25" class="edge">
<title>u17&#45;&gt;u18</title>
<path fill="none" stroke="black" d="M1614.29,-1399.29C1504.46,-1368.52 1283.33,-1288.83 1191.43,-1128 1149.76,-1055.07 1148.97,-1011.48 1191.43,-939 1227,-878.28 1301.28,-842.99 1357.64,-824.01"/>
<polygon fill="black" stroke="black" points="1358.82,-827.31 1367.24,-820.88 1356.64,-820.66 1358.82,-827.31"/>
</g>
<!-- u16&#45;&gt;u15 -->
<g id="edge24" class="edge">
<title>u16&#45;&gt;u15</title>
<path fill="none" stroke="black" d="M2456.02,-1244.91C2462.78,-1198.75 2480.43,-1067.68 2480.43,-958 2480.43,-958 2480.43,-958 2480.43,-803 2480.43,-711.03 2439.91,-682.56 2362.43,-633 2261.2,-568.25 1929.25,-528.55 1738.53,-510.52"/>
<polygon fill="black" stroke="black" points="1738.72,-507.02 1728.43,-509.57 1738.06,-513.99 1738.72,-507.02"/>
</g>
<!-- u13 -->
<g id="node20" class="node">
<title>u13</title>
<ellipse fill="#7777ff" stroke="black" cx="982.43" cy="-957" rx="162.47" ry="18"/>
<text text-anchor="middle" x="982.43" y="-953.3" font-family="Times,serif" font-size="14.00">Language.Drasil.Printing.Import</text>
</g>
<!-- u21&#45;&gt;u13 -->
<g id="edge31" class="edge">
<title>u21&#45;&gt;u13</title>
<path fill="none" stroke="black" d="M1232.06,-1397.88C1215.39,-1372.62 1183.59,-1323.73 1158.43,-1281 1094.55,-1172.5 1024.67,-1039.54 995.93,-984.15"/>
<polygon fill="black" stroke="black" points="998.91,-982.3 991.2,-975.03 992.7,-985.52 998.91,-982.3"/>
</g>
<!-- u12 -->
<g id="node21" class="node">
<title>u12</title>
<ellipse fill="#7777ff" stroke="black" cx="1424.43" cy="-344" rx="167.87" ry="18"/>
<text text-anchor="middle" x="1424.43" y="-340.3" font-family="Times,serif" font-size="14.00">Language.Drasil.Printing.Citation</text>
</g>
<!-- u15&#45;&gt;u12 -->
<g id="edge23" class="edge">
<title>u15&#45;&gt;u12</title>
<path fill="none" stroke="black" d="M1580.58,-479.86C1549.07,-452.65 1487.53,-399.49 1451.84,-368.67"/>
<polygon fill="black" stroke="black" points="1454.06,-365.97 1444.21,-362.08 1449.49,-371.26 1454.06,-365.97"/>
</g>
<!-- u14 -->
<g id="node19" class="node">
<title>u14</title>
<ellipse fill="#7777ff" stroke="black" cx="300.43" cy="-38" rx="223.66" ry="18"/>
<text text-anchor="middle" x="300.43" y="-34.3" font-family="Times,serif" font-size="14.00">Language.Drasil.Printing.PrintingInformation</text>
</g>
<!-- u9 -->
<g id="node26" class="node">
<title>u9</title>
<ellipse fill="#ff7777" stroke="black" cx="982.43" cy="-804" rx="212.56" ry="18"/>
<text text-anchor="middle" x="982.43" y="-800.3" font-family="Times,serif" font-size="14.00">Language.Drasil.Printing.Import.Document</text>
</g>
<!-- u13&#45;&gt;u9 -->
<g id="edge22" class="edge">
<title>u13&#45;&gt;u9</title>
<path fill="none" stroke="black" d="M982.43,-938.97C982.43,-913.03 982.43,-863.36 982.43,-832.33"/>
<polygon fill="black" stroke="black" points="985.93,-832.2 982.43,-822.2 978.93,-832.2 985.93,-832.2"/>
</g>
<!-- u5 -->
<g id="node30" class="node">
<title>u5</title>
<ellipse fill="#ff7777" stroke="black" cx="638.43" cy="-498" rx="187.67" ry="18"/>
<text text-anchor="middle" x="638.43" y="-494.3" font-family="Times,serif" font-size="14.00">Language.Drasil.Printing.Import.Expr</text>
</g>
<!-- u13&#45;&gt;u5 -->
<g id="edge21" class="edge">
<title>u13&#45;&gt;u5</title>
<path fill="none" stroke="black" d="M931.29,-939.79C836.85,-906.68 637.96,-821.25 563.43,-669 538.48,-618.04 583.23,-556.85 613.67,-523.55"/>
<polygon fill="black" stroke="black" points="616.38,-525.78 620.67,-516.1 611.27,-520.99 616.38,-525.78"/>
</g>
<!-- u12&#45;&gt;u2 -->
<g id="edge20" class="edge">
<title>u12&#45;&gt;u2</title>
<path fill="none" stroke="black" d="M1402.85,-326C1337.73,-274.71 1143.05,-121.39 1068.2,-62.45"/>
<polygon fill="black" stroke="black" points="1070.12,-59.5 1060.1,-56.06 1065.79,-65 1070.12,-59.5"/>
</g>
<!-- u1&#45;&gt;u12 -->
<g id="edge1" class="edge">
<title>u1&#45;&gt;u12</title>
<path fill="none" stroke="black" d="M1234.81,-632.73C1268.46,-581.67 1367.61,-431.22 1407.51,-370.67"/>
<polygon fill="black" stroke="black" points="1410.59,-372.36 1413.17,-362.08 1404.75,-368.51 1410.59,-372.36"/>
</g>
<!-- u11 -->
<g id="node24" class="node">
<title>u11</title>
<ellipse fill="#ff7777" stroke="black" cx="216.43" cy="-498" rx="216.36" ry="18"/>
<text text-anchor="middle" x="216.43" y="-494.3" font-family="Times,serif" font-size="14.00">Language.Drasil.Printing.Import.ModelExpr</text>
</g>
<!-- u8 -->
<g id="node27" class="node">
<title>u8</title>
<ellipse fill="#ff7777" stroke="black" cx="1038.43" cy="-344" rx="200.36" ry="18"/>
<text text-anchor="middle" x="1038.43" y="-340.3" font-family="Times,serif" font-size="14.00">Language.Drasil.Printing.Import.Symbol</text>
</g>
<!-- u11&#45;&gt;u8 -->
<g id="edge19" class="edge">
<title>u11&#45;&gt;u8</title>
<path fill="none" stroke="black" d="M300.92,-481.38C455.82,-452.73 784.11,-392.03 945.25,-362.23"/>
<polygon fill="black" stroke="black" points="945.95,-365.66 955.15,-360.4 944.68,-358.78 945.95,-365.66"/>
</g>
<!-- u7 -->
<g id="node28" class="node">
<title>u7</title>
<ellipse fill="#ff7777" stroke="black" cx="624.43" cy="-344" rx="196.07" ry="18"/>
<text text-anchor="middle" x="624.43" y="-340.3" font-family="Times,serif" font-size="14.00">Language.Drasil.Printing.Import.Literal</text>
</g>
<!-- u11&#45;&gt;u7 -->
<g id="edge18" class="edge">
<title>u11&#45;&gt;u7</title>
<path fill="none" stroke="black" d="M261.26,-480.3C336.75,-452.17 488.94,-395.48 570.28,-365.17"/>
<polygon fill="black" stroke="black" points="571.69,-368.38 579.84,-361.61 569.24,-361.82 571.69,-368.38"/>
</g>
<!-- u4 -->
<g id="node31" class="node">
<title>u4</title>
<ellipse fill="#ff7777" stroke="black" cx="286.43" cy="-191" rx="193.07" ry="18"/>
<text text-anchor="middle" x="286.43" y="-187.3" font-family="Times,serif" font-size="14.00">Language.Drasil.Printing.Import.Space</text>
</g>
<!-- u11&#45;&gt;u4 -->
<g id="edge17" class="edge">
<title>u11&#45;&gt;u4</title>
<path fill="none" stroke="black" d="M220.39,-479.73C232.02,-429.09 266.08,-280.68 280.19,-219.18"/>
<polygon fill="black" stroke="black" points="283.68,-219.61 282.51,-209.08 276.86,-218.05 283.68,-219.61"/>
</g>
<!-- u10 -->
<g id="node25" class="node">
<title>u10</title>
<ellipse fill="#ff7777" stroke="black" cx="699.43" cy="-191" rx="202.26" ry="18"/>
<text text-anchor="middle" x="699.43" y="-187.3" font-family="Times,serif" font-size="14.00">Language.Drasil.Printing.Import.Helpers</text>
</g>
<!-- u10&#45;&gt;u0 -->
<g id="edge14" class="edge">
<title>u10&#45;&gt;u0</title>
<path fill="none" stroke="black" d="M699.43,-172.97C699.43,-147.03 699.43,-97.36 699.43,-66.33"/>
<polygon fill="black" stroke="black" points="702.93,-66.2 699.43,-56.2 695.93,-66.2 702.93,-66.2"/>
</g>
<!-- u10&#45;&gt;u14 -->
<g id="edge16" class="edge">
<title>u10&#45;&gt;u14</title>
<path fill="none" stroke="black" d="M655.59,-173.41C581.96,-145.54 433.71,-89.44 354.02,-59.28"/>
<polygon fill="black" stroke="black" points="355.24,-56 344.65,-55.73 352.76,-62.55 355.24,-56"/>
</g>
<!-- u10&#45;&gt;u2 -->
<g id="edge15" class="edge">
<title>u10&#45;&gt;u2</title>
<path fill="none" stroke="black" d="M737,-173.26C799.49,-145.43 924.56,-89.72 992.3,-59.55"/>
<polygon fill="black" stroke="black" points="993.75,-62.73 1001.46,-55.47 990.9,-56.34 993.75,-62.73"/>
</g>
<!-- u9&#45;&gt;u1 -->
<g id="edge11" class="edge">
<title>u9&#45;&gt;u1</title>
<path fill="none" stroke="black" d="M1009.61,-785.97C1053.3,-758.6 1139.16,-704.8 1187.74,-674.37"/>
<polygon fill="black" stroke="black" points="1189.74,-677.24 1196.35,-668.97 1186.02,-671.31 1189.74,-677.24"/>
</g>
<!-- u6 -->
<g id="node29" class="node">
<title>u6</title>
<ellipse fill="#ff7777" stroke="black" cx="1055.43" cy="-498" rx="211.46" ry="18"/>
<text text-anchor="middle" x="1055.43" y="-494.3" font-family="Times,serif" font-size="14.00">Language.Drasil.Printing.Import.CodeExpr</text>
</g>
<!-- u9&#45;&gt;u6 -->
<g id="edge13" class="edge">
<title>u9&#45;&gt;u6</title>
<path fill="none" stroke="black" d="M986.56,-785.78C998.69,-735.31 1034.21,-587.39 1048.93,-526.09"/>
<polygon fill="black" stroke="black" points="1052.41,-526.57 1051.34,-516.03 1045.6,-524.93 1052.41,-526.57"/>
</g>
<!-- u3 -->
<g id="node32" class="node">
<title>u3</title>
<ellipse fill="#ff7777" stroke="black" cx="780.43" cy="-651" rx="207.96" ry="18"/>
<text text-anchor="middle" x="780.43" y="-647.3" font-family="Times,serif" font-size="14.00">Language.Drasil.Printing.Import.Sentence</text>
</g>
<!-- u9&#45;&gt;u3 -->
<g id="edge12" class="edge">
<title>u9&#45;&gt;u3</title>
<path fill="none" stroke="black" d="M959.65,-785.97C923.34,-758.83 852.26,-705.69 811.37,-675.13"/>
<polygon fill="black" stroke="black" points="813.23,-672.15 803.13,-668.97 809.04,-677.76 813.23,-672.15"/>
</g>
<!-- u8&#45;&gt;u2 -->
<g id="edge10" class="edge">
<title>u8&#45;&gt;u2</title>
<path fill="none" stroke="black" d="M1038.43,-325.78C1038.43,-275.31 1038.43,-127.39 1038.43,-66.09"/>
<polygon fill="black" stroke="black" points="1041.93,-66.03 1038.43,-56.03 1034.93,-66.03 1041.93,-66.03"/>
</g>
<!-- u7&#45;&gt;u10 -->
<g id="edge9" class="edge">
<title>u7&#45;&gt;u10</title>
<path fill="none" stroke="black" d="M632.89,-325.97C645.89,-299.8 670.88,-249.49 686.26,-218.52"/>
<polygon fill="black" stroke="black" points="689.58,-219.71 690.89,-209.2 683.31,-216.6 689.58,-219.71"/>
</g>
<!-- u6&#45;&gt;u8 -->
<g id="edge8" class="edge">
<title>u6&#45;&gt;u8</title>
<path fill="none" stroke="black" d="M1053.51,-479.86C1050.59,-453.75 1045,-403.74 1041.51,-372.51"/>
<polygon fill="black" stroke="black" points="1044.96,-371.86 1040.37,-362.31 1038,-372.64 1044.96,-371.86"/>
</g>
<!-- u6&#45;&gt;u7 -->
<g id="edge7" class="edge">
<title>u6&#45;&gt;u7</title>
<path fill="none" stroke="black" d="M1008.49,-480.44C928.66,-452.29 766.78,-395.2 680.9,-364.91"/>
<polygon fill="black" stroke="black" points="681.91,-361.56 671.32,-361.54 679.58,-368.16 681.91,-361.56"/>
</g>
<!-- u5&#45;&gt;u8 -->
<g id="edge6" class="edge">
<title>u5&#45;&gt;u8</title>
<path fill="none" stroke="black" d="M682,-480.44C755.84,-452.38 905.31,-395.58 985.22,-365.22"/>
<polygon fill="black" stroke="black" points="986.51,-368.48 994.61,-361.65 984.02,-361.93 986.51,-368.48"/>
</g>
<!-- u5&#45;&gt;u7 -->
<g id="edge5" class="edge">
<title>u5&#45;&gt;u7</title>
<path fill="none" stroke="black" d="M636.85,-479.86C634.45,-453.75 629.84,-403.74 626.96,-372.51"/>
<polygon fill="black" stroke="black" points="630.43,-371.95 626.03,-362.31 623.46,-372.59 630.43,-371.95"/>
</g>
<!-- u4&#45;&gt;u14 -->
<g id="edge4" class="edge">
<title>u4&#45;&gt;u14</title>
<path fill="none" stroke="black" d="M288.01,-172.97C290.41,-147.03 295.02,-97.36 297.9,-66.33"/>
<polygon fill="black" stroke="black" points="301.4,-66.48 298.84,-56.2 294.43,-65.83 301.4,-66.48"/>
</g>
<!-- u4&#45;&gt;u2 -->
<g id="edge3" class="edge">
<title>u4&#45;&gt;u2</title>
<path fill="none" stroke="black" d="M363.72,-174.48C506.06,-145.9 808.46,-85.18 955.15,-55.72"/>
<polygon fill="black" stroke="black" points="955.9,-59.14 965.02,-53.74 954.52,-52.28 955.9,-59.14"/>
</g>
<!-- u3&#45;&gt;u11 -->
<g id="edge2" class="edge">
<title>u3&#45;&gt;u11</title>
<path fill="none" stroke="black" d="M719.81,-633.77C614.72,-605.63 399.29,-547.96 287.41,-518"/>
<polygon fill="black" stroke="black" points="288.13,-514.57 277.57,-515.37 286.32,-521.34 288.13,-514.57"/>
</g>
<!-- u25 -->
<g id="node33" class="node">
<title>u25</title>
<ellipse fill="#77ffff" stroke="black" cx="1773.43" cy="-804" rx="146.47" ry="18"/>
<text text-anchor="middle" x="1773.43" y="-800.3" font-family="Times,serif" font-size="14.00">Language.Drasil.TeX.Helpers</text>
</g>
<!-- u25&#45;&gt;u34 -->
<g id="edge38" class="edge">
<title>u25&#45;&gt;u34</title>
<path fill="none" stroke="black" d="M1785.38,-785.97C1803.91,-759.58 1839.69,-708.61 1861.38,-677.72"/>
<polygon fill="black" stroke="black" points="1864.48,-679.39 1867.36,-669.2 1858.75,-675.37 1864.48,-679.39"/>
</g>
<!-- u23 -->
<g id="node35" class="node">
<title>u23</title>
<ellipse fill="#77ffff" stroke="black" cx="1600.43" cy="-651" rx="141.88" ry="18"/>
<text text-anchor="middle" x="1600.43" y="-647.3" font-family="Times,serif" font-size="14.00">Language.Drasil.TeX.Monad</text>
</g>
<!-- u25&#45;&gt;u23 -->
<g id="edge37" class="edge">
<title>u25&#45;&gt;u23</title>
<path fill="none" stroke="black" d="M1753.92,-785.97C1723.08,-759.05 1662.96,-706.58 1627.81,-675.9"/>
<polygon fill="black" stroke="black" points="1629.7,-672.9 1619.87,-668.97 1625.1,-678.18 1629.7,-672.9"/>
</g>
<!-- u24 -->
<g id="node34" class="node">
<title>u24</title>
<ellipse fill="#77ffff" stroke="black" cx="1354.43" cy="-957" rx="154.07" ry="18"/>
<text text-anchor="middle" x="1354.43" y="-953.3" font-family="Times,serif" font-size="14.00">Language.Drasil.TeX.Preamble</text>
</g>
<!-- u24&#45;&gt;u1 -->
<g id="edge35" class="edge">
<title>u24&#45;&gt;u1</title>
<path fill="none" stroke="black" d="M1334.15,-938.9C1307.96,-915.5 1263.28,-870.79 1242.43,-822 1222.32,-774.93 1220.68,-714.19 1221.75,-679.52"/>
<polygon fill="black" stroke="black" points="1225.26,-679.36 1222.17,-669.23 1218.27,-679.07 1225.26,-679.36"/>
</g>
<!-- u24&#45;&gt;u25 -->
<g id="edge36" class="edge">
<title>u24&#45;&gt;u25</title>
<path fill="none" stroke="black" d="M1399.67,-939.7C1477.22,-911.75 1635.25,-854.8 1718.82,-824.68"/>
<polygon fill="black" stroke="black" points="1720.16,-827.92 1728.38,-821.23 1717.79,-821.33 1720.16,-827.92"/>
</g>
<!-- u23&#45;&gt;u15 -->
<g id="edge34" class="edge">
<title>u23&#45;&gt;u15</title>
<path fill="none" stroke="black" d="M1600.43,-632.97C1600.43,-607.03 1600.43,-557.36 1600.43,-526.33"/>
<polygon fill="black" stroke="black" points="1603.93,-526.2 1600.43,-516.2 1596.93,-526.2 1603.93,-526.2"/>
</g>
<!-- u22&#45;&gt;u13 -->
<g id="edge32" class="edge">
<title>u22&#45;&gt;u13</title>
<path fill="none" stroke="black" d="M1295.53,-1092.7C1231.28,-1065.06 1101.09,-1009.05 1030.52,-978.69"/>
<polygon fill="black" stroke="black" points="1031.54,-975.32 1020.97,-974.58 1028.77,-981.75 1031.54,-975.32"/>
</g>
<!-- u22&#45;&gt;u24 -->
<g id="edge33" class="edge">
<title>u22&#45;&gt;u24</title>
<path fill="none" stroke="black" d="M1335.8,-1091.97C1339.41,-1066.03 1346.31,-1016.36 1350.63,-985.33"/>
<polygon fill="black" stroke="black" points="1354.13,-985.58 1352.04,-975.2 1347.19,-984.62 1354.13,-985.58"/>
</g>
</g>
</svg>
