<?xml version="1.0" encoding="UTF-8" standalone="no"?>
<!DOCTYPE svg PUBLIC "-//W3C//DTD SVG 1.1//EN"
 "http://www.w3.org/Graphics/SVG/1.1/DTD/svg11.dtd">
<!-- Generated by graphviz version 2.43.0 (0)
 -->
<!-- Title: G Pages: 1 -->
<svg width="431pt" height="288pt"
 viewBox="0.00 0.00 430.70 288.00" xmlns="http://www.w3.org/2000/svg" xmlns:xlink="http://www.w3.org/1999/xlink">
<g id="graph0" class="graph" transform="scale(2.66 2.66) rotate(0) translate(4 762.67)">
<title>G</title>
<polygon fill="white" stroke="transparent" points="-4,4 -4,-762.67 1142.53,-762.67 1142.53,4 -4,4"/>
<!-- u0 -->
<g id="node1" class="node">
<title>u0</title>
<ellipse fill="#bbffbb" stroke="black" cx="586.29" cy="-704" rx="34.39" ry="18"/>
<text text-anchor="middle" x="586.29" y="-700.3" font-family="Times,serif" font-size="14.00">Main</text>
</g>
<!-- u1 -->
<g id="node7" class="node">
<title>u1</title>
<ellipse fill="#ffffbb" stroke="black" cx="586.29" cy="-488" rx="104.78" ry="18"/>
<text text-anchor="middle" x="586.29" y="-484.3" font-family="Times,serif" font-size="14.00">Drasil.Website.Body</text>
</g>
<!-- u0&#45;&gt;u1 -->
<g id="edge1" class="edge">
<title>u0&#45;&gt;u1</title>
<path fill="none" stroke="black" d="M586.29,-685.85C586.29,-648.83 586.29,-561.18 586.29,-516.39"/>
<polygon fill="black" stroke="black" points="589.79,-516.23 586.29,-506.23 582.79,-516.23 589.79,-516.23"/>
</g>
<!-- u6 -->
<g id="node2" class="node">
<title>u6</title>
<ellipse fill="#ffffbb" stroke="black" cx="131.29" cy="-271" rx="131.08" ry="18"/>
<text text-anchor="middle" x="131.29" y="-267.3" font-family="Times,serif" font-size="14.00">Drasil.Website.CaseStudy</text>
</g>
<!-- u4 -->
<g id="node4" class="node">
<title>u4</title>
<ellipse fill="#ffffbb" stroke="black" cx="131.29" cy="-54" rx="122.38" ry="18"/>
<text text-anchor="middle" x="131.29" y="-50.3" font-family="Times,serif" font-size="14.00">Drasil.Website.Example</text>
</g>
<!-- u6&#45;&gt;u4 -->
<g id="edge6" class="edge">
<title>u6&#45;&gt;u4</title>
<path fill="none" stroke="black" d="M131.29,-252.77C131.29,-215.49 131.29,-127.08 131.29,-82.18"/>
<polygon fill="black" stroke="black" points="134.79,-82.01 131.29,-72.01 127.79,-82.01 134.79,-82.01"/>
</g>
<!-- u5 -->
<g id="node3" class="node">
<title>u5</title>
<ellipse fill="#ffffbb" stroke="black" cx="432.29" cy="-271" rx="152.17" ry="18"/>
<text text-anchor="middle" x="432.29" y="-267.3" font-family="Times,serif" font-size="14.00">Drasil.Website.Documentation</text>
</g>
<!-- u3 -->
<g id="node5" class="node">
<title>u3</title>
<ellipse fill="#ffffbb" stroke="black" cx="741.29" cy="-271" rx="139.18" ry="18"/>
<text text-anchor="middle" x="741.29" y="-267.3" font-family="Times,serif" font-size="14.00">Drasil.Website.Introduction</text>
</g>
<!-- u2 -->
<g id="node6" class="node">
<title>u2</title>
<ellipse fill="#ffffbb" stroke="black" cx="1018.29" cy="-271" rx="120.48" ry="18"/>
<text text-anchor="middle" x="1018.29" y="-267.3" font-family="Times,serif" font-size="14.00">Drasil.Website.Analysis</text>
</g>
<!-- u1&#45;&gt;u6 -->
<g id="edge5" class="edge">
<title>u1&#45;&gt;u6</title>
<path fill="none" stroke="black" d="M552.09,-470.84C470.75,-432.4 265.81,-335.57 175.36,-292.82"/>
<polygon fill="black" stroke="black" points="176.73,-289.6 166.2,-288.49 173.74,-295.93 176.73,-289.6"/>
</g>
<!-- u1&#45;&gt;u5 -->
<g id="edge4" class="edge">
<title>u1&#45;&gt;u5</title>
<path fill="none" stroke="black" d="M573.95,-469.77C546.85,-431.93 482.04,-341.45 450.35,-297.22"/>
<polygon fill="black" stroke="black" points="453.14,-295.11 444.48,-289.01 447.45,-299.18 453.14,-295.11"/>
</g>
<!-- u1&#45;&gt;u3 -->
<g id="edge3" class="edge">
<title>u1&#45;&gt;u3</title>
<path fill="none" stroke="black" d="M598.71,-469.77C625.99,-431.93 691.22,-341.45 723.11,-297.22"/>
<polygon fill="black" stroke="black" points="726.01,-299.17 729.02,-289.01 720.33,-295.08 726.01,-299.17"/>
</g>
<!-- u1&#45;&gt;u2 -->
<g id="edge2" class="edge">
<title>u1&#45;&gt;u2</title>
<path fill="none" stroke="black" d="M618.76,-470.84C695.93,-432.44 890.25,-335.72 976.24,-292.93"/>
<polygon fill="black" stroke="black" points="978.05,-295.94 985.44,-288.35 974.93,-289.67 978.05,-295.94"/>
</g>
</g>
</svg>
