<?xml version="1.0" encoding="UTF-8" standalone="no"?>
<!DOCTYPE svg PUBLIC "-//W3C//DTD SVG 1.1//EN"
 "http://www.w3.org/Graphics/SVG/1.1/DTD/svg11.dtd">
<!-- Generated by graphviz version 2.43.0 (0)
 -->
<!-- Title: G Pages: 1 -->
<svg width="432pt" height="285pt"
 viewBox="0.00 0.00 432.00 285.01" xmlns="http://www.w3.org/2000/svg" xmlns:xlink="http://www.w3.org/1999/xlink">
<g id="graph0" class="graph" transform="scale(13.91 13.91) rotate(0) translate(4 3961.33)">
<title>G</title>
<polygon fill="white" stroke="transparent" points="-4,4 -4,-3961.33 6006.39,-3961.33 6006.39,4 -4,4"/>
<!-- u54 -->
<g id="node1" class="node">
<title>u54</title>
<ellipse fill="#bbffbb" stroke="black" cx="275.39" cy="-3889" rx="34.39" ry="18"/>
<text text-anchor="middle" x="275.39" y="-3885.3" font-family="Times,serif" font-size="14.00">Main</text>
</g>
<!-- u52 -->
<g id="node3" class="node">
<title>u52</title>
<ellipse fill="#bbffbb" stroke="black" cx="343.39" cy="-3616" rx="52.79" ry="18"/>
<text text-anchor="middle" x="343.39" y="-3612.3" font-family="Times,serif" font-size="14.00">FileTests</text>
</g>
<!-- u54&#45;&gt;u52 -->
<g id="edge86" class="edge">
<title>u54&#45;&gt;u52</title>
<path fill="none" stroke="black" d="M279.65,-3871.05C291.12,-3825.33 322.77,-3699.2 336.68,-3643.75"/>
<polygon fill="black" stroke="black" points="340.1,-3644.5 339.14,-3633.95 333.31,-3642.79 340.1,-3644.5"/>
</g>
<!-- u51 -->
<g id="node4" class="node">
<title>u51</title>
<ellipse fill="#bbffbb" stroke="black" cx="62.39" cy="-3616" rx="62.29" ry="18"/>
<text text-anchor="middle" x="62.39" y="-3612.3" font-family="Times,serif" font-size="14.00">HelloWorld</text>
</g>
<!-- u54&#45;&gt;u51 -->
<g id="edge85" class="edge">
<title>u54&#45;&gt;u51</title>
<path fill="none" stroke="black" d="M262.71,-3871.86C226.92,-3826.32 124.97,-3696.61 81.94,-3641.86"/>
<polygon fill="black" stroke="black" points="84.49,-3639.44 75.56,-3633.74 78.98,-3643.77 84.49,-3639.44"/>
</g>
<!-- u50 -->
<g id="node5" class="node">
<title>u50</title>
<ellipse fill="#bbffbb" stroke="black" cx="207.39" cy="-3616" rx="64.99" ry="18"/>
<text text-anchor="middle" x="207.39" y="-3612.3" font-family="Times,serif" font-size="14.00">PatternTest</text>
</g>
<!-- u54&#45;&gt;u50 -->
<g id="edge84" class="edge">
<title>u54&#45;&gt;u50</title>
<path fill="none" stroke="black" d="M271.14,-3871.05C259.7,-3825.44 228.17,-3699.8 214.21,-3644.14"/>
<polygon fill="black" stroke="black" points="217.56,-3643.14 211.73,-3634.29 210.77,-3644.85 217.56,-3643.14"/>
</g>
<!-- u47 -->
<g id="node8" class="node">
<title>u47</title>
<ellipse fill="#bbbbff" stroke="black" cx="1696.39" cy="-3616" rx="113.18" ry="18"/>
<text text-anchor="middle" x="1696.39" y="-3612.3" font-family="Times,serif" font-size="14.00">Language.Drasil.Code</text>
</g>
<!-- u54&#45;&gt;u47 -->
<g id="edge83" class="edge">
<title>u54&#45;&gt;u47</title>
<path fill="none" stroke="black" d="M307.4,-3881.9C484.76,-3848.07 1348.59,-3683.33 1616.8,-3632.18"/>
<polygon fill="black" stroke="black" points="1617.68,-3635.58 1626.84,-3630.26 1616.37,-3628.7 1617.68,-3635.58"/>
</g>
<!-- u53 -->
<g id="node2" class="node">
<title>u53</title>
<ellipse fill="#bbffbb" stroke="black" cx="191.39" cy="-3343" rx="53.89" ry="18"/>
<text text-anchor="middle" x="191.39" y="-3339.3" font-family="Times,serif" font-size="14.00">Observer</text>
</g>
<!-- u49 -->
<g id="node6" class="node">
<title>u49</title>
<ellipse fill="#bbffbb" stroke="black" cx="62.39" cy="-3343" rx="42.49" ry="18"/>
<text text-anchor="middle" x="62.39" y="-3339.3" font-family="Times,serif" font-size="14.00">Helper</text>
</g>
<!-- u51&#45;&gt;u49 -->
<g id="edge82" class="edge">
<title>u51&#45;&gt;u49</title>
<path fill="none" stroke="black" d="M62.39,-3597.64C62.39,-3551.75 62.39,-3426.98 62.39,-3371.37"/>
<polygon fill="black" stroke="black" points="65.89,-3371.22 62.39,-3361.22 58.89,-3371.22 65.89,-3371.22"/>
</g>
<!-- u50&#45;&gt;u53 -->
<g id="edge81" class="edge">
<title>u50&#45;&gt;u53</title>
<path fill="none" stroke="black" d="M206.37,-3597.64C203.66,-3551.75 196.29,-3426.98 193.01,-3371.37"/>
<polygon fill="black" stroke="black" points="196.49,-3371 192.41,-3361.22 189.51,-3371.41 196.49,-3371"/>
</g>
<!-- u48 -->
<g id="node7" class="node">
<title>u48</title>
<ellipse fill="#ffffbb" stroke="black" cx="1696.39" cy="-3889" rx="214.46" ry="18"/>
<text text-anchor="middle" x="1696.39" y="-3885.3" font-family="Times,serif" font-size="14.00">Data.Drasil.ExternalLibraries.ODELibraries</text>
</g>
<!-- u48&#45;&gt;u47 -->
<g id="edge80" class="edge">
<title>u48&#45;&gt;u47</title>
<path fill="none" stroke="black" d="M1696.39,-3870.64C1696.39,-3824.75 1696.39,-3699.98 1696.39,-3644.37"/>
<polygon fill="black" stroke="black" points="1699.89,-3644.22 1696.39,-3634.22 1692.89,-3644.22 1699.89,-3644.22"/>
</g>
<!-- u21 -->
<g id="node29" class="node">
<title>u21</title>
<ellipse fill="#ffbbff" stroke="black" cx="4604.39" cy="-3343" rx="217.16" ry="18"/>
<text text-anchor="middle" x="4604.39" y="-3339.3" font-family="Times,serif" font-size="14.00">Language.Drasil.Code.Imperative.Generator</text>
</g>
<!-- u47&#45;&gt;u21 -->
<g id="edge79" class="edge">
<title>u47&#45;&gt;u21</title>
<path fill="none" stroke="black" d="M1791.5,-3606.14C2215.71,-3566.6 3937.09,-3406.19 4455.77,-3357.85"/>
<polygon fill="black" stroke="black" points="4456.31,-3361.32 4465.94,-3356.9 4455.66,-3354.35 4456.31,-3361.32"/>
</g>
<!-- u4 -->
<g id="node36" class="node">
<title>u4</title>
<ellipse fill="#ffbbff" stroke="black" cx="626.39" cy="-1706" rx="217.96" ry="18"/>
<text text-anchor="middle" x="626.39" y="-1702.3" font-family="Times,serif" font-size="14.00">Language.Drasil.Code.Imperative.ReadInput</text>
</g>
<!-- u47&#45;&gt;u4 -->
<g id="edge73" class="edge">
<title>u47&#45;&gt;u4</title>
<path fill="none" stroke="black" d="M1618.88,-3602.85C1321.93,-3554.15 273.39,-3361.6 273.39,-3071 273.39,-3071 273.39,-3071 273.39,-2251 273.39,-2014.56 510.95,-1799.95 596.31,-1730.47"/>
<polygon fill="black" stroke="black" points="598.72,-1733.02 604.31,-1724.02 594.33,-1727.57 598.72,-1733.02"/>
</g>
<!-- u20 -->
<g id="node47" class="node">
<title>u20</title>
<ellipse fill="#ff7777" stroke="black" cx="3618.39" cy="-3070" rx="358.54" ry="18"/>
<text text-anchor="middle" x="3618.39" y="-3066.3" font-family="Times,serif" font-size="14.00">Language.Drasil.Code.Imperative.GOOL.LanguageRenderer.SwiftRenderer</text>
</g>
<!-- u47&#45;&gt;u20 -->
<g id="edge78" class="edge">
<title>u47&#45;&gt;u20</title>
<path fill="none" stroke="black" d="M1749.3,-3600.03C2019.38,-3523.58 3243.43,-3177.13 3549.07,-3090.62"/>
<polygon fill="black" stroke="black" points="3550.46,-3093.86 3559.13,-3087.77 3548.56,-3087.13 3550.46,-3093.86"/>
</g>
<!-- u18 -->
<g id="node49" class="node">
<title>u18</title>
<ellipse fill="#ff7777" stroke="black" cx="670.39" cy="-3070" rx="369.33" ry="18"/>
<text text-anchor="middle" x="670.39" y="-3066.3" font-family="Times,serif" font-size="14.00">Language.Drasil.Code.Imperative.GOOL.LanguageRenderer.CSharpRenderer</text>
</g>
<!-- u47&#45;&gt;u18 -->
<g id="edge77" class="edge">
<title>u47&#45;&gt;u18</title>
<path fill="none" stroke="black" d="M1665.41,-3598.57C1517.13,-3519.95 880.2,-3182.24 711.52,-3092.81"/>
<polygon fill="black" stroke="black" points="712.94,-3089.59 702.46,-3088 709.66,-3095.78 712.94,-3089.59"/>
</g>
<!-- u17 -->
<g id="node50" class="node">
<title>u17</title>
<ellipse fill="#ff7777" stroke="black" cx="1410.39" cy="-3070" rx="352.84" ry="18"/>
<text text-anchor="middle" x="1410.39" y="-3066.3" font-family="Times,serif" font-size="14.00">Language.Drasil.Code.Imperative.GOOL.LanguageRenderer.CppRenderer</text>
</g>
<!-- u47&#45;&gt;u17 -->
<g id="edge76" class="edge">
<title>u47&#45;&gt;u17</title>
<path fill="none" stroke="black" d="M1687.36,-3597.82C1645.96,-3519.07 1474.21,-3192.38 1424.15,-3097.16"/>
<polygon fill="black" stroke="black" points="1427.18,-3095.41 1419.43,-3088.18 1420.98,-3098.66 1427.18,-3095.41"/>
</g>
<!-- u16 -->
<g id="node51" class="node">
<title>u16</title>
<ellipse fill="#ff7777" stroke="black" cx="2135.39" cy="-3070" rx="354.44" ry="18"/>
<text text-anchor="middle" x="2135.39" y="-3066.3" font-family="Times,serif" font-size="14.00">Language.Drasil.Code.Imperative.GOOL.LanguageRenderer.JavaRenderer</text>
</g>
<!-- u47&#45;&gt;u16 -->
<g id="edge75" class="edge">
<title>u47&#45;&gt;u16</title>
<path fill="none" stroke="black" d="M1710.01,-3598.12C1773.37,-3519.61 2039.38,-3189.97 2115.17,-3096.06"/>
<polygon fill="black" stroke="black" points="2117.94,-3098.2 2121.5,-3088.22 2112.49,-3093.8 2117.94,-3098.2"/>
</g>
<!-- u15 -->
<g id="node52" class="node">
<title>u15</title>
<ellipse fill="#ff7777" stroke="black" cx="2874.39" cy="-3070" rx="367.43" ry="18"/>
<text text-anchor="middle" x="2874.39" y="-3066.3" font-family="Times,serif" font-size="14.00">Language.Drasil.Code.Imperative.GOOL.LanguageRenderer.PythonRenderer</text>
</g>
<!-- u47&#45;&gt;u15 -->
<g id="edge74" class="edge">
<title>u47&#45;&gt;u15</title>
<path fill="none" stroke="black" d="M1731.33,-3598.87C1900.69,-3520.66 2635.93,-3181.12 2828.23,-3092.32"/>
<polygon fill="black" stroke="black" points="2829.89,-3095.41 2837.5,-3088.04 2826.95,-3089.05 2829.89,-3095.41"/>
</g>
<!-- u40 -->
<g id="node9" class="node">
<title>u40</title>
<ellipse fill="#bbbbff" stroke="black" cx="4291.39" cy="-614" rx="110.48" ry="18"/>
<text text-anchor="middle" x="4291.39" y="-610.3" font-family="Times,serif" font-size="14.00">Language.Drasil.Mod</text>
</g>
<!-- u43 -->
<g id="node13" class="node">
<title>u43</title>
<ellipse fill="#ffbbbb" stroke="black" cx="4061.39" cy="-341" rx="170.87" ry="18"/>
<text text-anchor="middle" x="4061.39" y="-337.3" font-family="Times,serif" font-size="14.00">Language.Drasil.Chunk.Parameter</text>
</g>
<!-- u40&#45;&gt;u43 -->
<g id="edge65" class="edge">
<title>u40&#45;&gt;u43</title>
<path fill="none" stroke="black" d="M4277.01,-596.05C4237.72,-549.76 4128.48,-421.04 4082.36,-366.7"/>
<polygon fill="black" stroke="black" points="4084.92,-364.31 4075.78,-358.95 4079.58,-368.83 4084.92,-364.31"/>
</g>
<!-- u33 -->
<g id="node20" class="node">
<title>u33</title>
<ellipse fill="#bbffff" stroke="black" cx="2819.39" cy="-341" rx="160.57" ry="18"/>
<text text-anchor="middle" x="2819.39" y="-337.3" font-family="Times,serif" font-size="14.00">Language.Drasil.Code.DataDesc</text>
</g>
<!-- u40&#45;&gt;u33 -->
<g id="edge64" class="edge">
<title>u40&#45;&gt;u33</title>
<path fill="none" stroke="black" d="M4220.89,-600.02C3978.41,-555.38 3178.89,-408.18 2909.16,-358.53"/>
<polygon fill="black" stroke="black" points="2909.49,-355.03 2899.02,-356.66 2908.23,-361.91 2909.49,-355.03"/>
</g>
<!-- u39 -->
<g id="node10" class="node">
<title>u39</title>
<ellipse fill="#bbbbff" stroke="black" cx="4405.39" cy="-1706" rx="135.68" ry="18"/>
<text text-anchor="middle" x="4405.39" y="-1702.3" font-family="Times,serif" font-size="14.00">Language.Drasil.CodeSpec</text>
</g>
<!-- u38 -->
<g id="node11" class="node">
<title>u38</title>
<ellipse fill="#bbbbff" stroke="black" cx="3774.39" cy="-1433" rx="126.18" ry="18"/>
<text text-anchor="middle" x="3774.39" y="-1429.3" font-family="Times,serif" font-size="14.00">Language.Drasil.Choices</text>
</g>
<!-- u39&#45;&gt;u38 -->
<g id="edge61" class="edge">
<title>u39&#45;&gt;u38</title>
<path fill="none" stroke="black" d="M4367.34,-1688.66C4257.74,-1641.58 3941.5,-1505.77 3821.41,-1454.19"/>
<polygon fill="black" stroke="black" points="3822.67,-1450.92 3812.1,-1450.19 3819.9,-1457.35 3822.67,-1450.92"/>
</g>
<!-- u42 -->
<g id="node14" class="node">
<title>u42</title>
<ellipse fill="#ffbbbb" stroke="black" cx="4024.39" cy="-1160" rx="191.17" ry="18"/>
<text text-anchor="middle" x="4024.39" y="-1156.3" font-family="Times,serif" font-size="14.00">Language.Drasil.Chunk.CodeDefinition</text>
</g>
<!-- u39&#45;&gt;u42 -->
<g id="edge63" class="edge">
<title>u39&#45;&gt;u42</title>
<path fill="none" stroke="black" d="M4407.06,-1687.83C4410.79,-1640.56 4415.65,-1505.97 4361.39,-1415 4292.03,-1298.69 4147.14,-1217.92 4071.95,-1182"/>
<polygon fill="black" stroke="black" points="4073.24,-1178.74 4062.7,-1177.64 4070.25,-1185.07 4073.24,-1178.74"/>
</g>
<!-- u41 -->
<g id="node15" class="node">
<title>u41</title>
<ellipse fill="#ffbbbb" stroke="black" cx="4160.39" cy="-1433" rx="192.27" ry="18"/>
<text text-anchor="middle" x="4160.39" y="-1429.3" font-family="Times,serif" font-size="14.00">Language.Drasil.Chunk.ConstraintMap</text>
</g>
<!-- u39&#45;&gt;u41 -->
<g id="edge62" class="edge">
<title>u39&#45;&gt;u41</title>
<path fill="none" stroke="black" d="M4390.07,-1688.05C4348.13,-1641.66 4231.37,-1512.51 4182.43,-1458.37"/>
<polygon fill="black" stroke="black" points="4185.02,-1456.02 4175.71,-1450.95 4179.82,-1460.71 4185.02,-1456.02"/>
</g>
<!-- u37 -->
<g id="node16" class="node">
<title>u37</title>
<ellipse fill="#bbffff" stroke="black" cx="3585.39" cy="-1160" rx="139.98" ry="18"/>
<text text-anchor="middle" x="3585.39" y="-1156.3" font-family="Times,serif" font-size="14.00">Language.Drasil.Code.Code</text>
</g>
<!-- u38&#45;&gt;u37 -->
<g id="edge59" class="edge">
<title>u38&#45;&gt;u37</title>
<path fill="none" stroke="black" d="M3762.57,-1415.05C3730.42,-1368.95 3641.25,-1241.09 3603.09,-1186.38"/>
<polygon fill="black" stroke="black" points="3605.8,-1184.15 3597.21,-1177.95 3600.06,-1188.15 3605.8,-1184.15"/>
</g>
<!-- u45 -->
<g id="node55" class="node">
<title>u45</title>
<ellipse fill="#ff77ff" stroke="black" cx="4406.39" cy="-1160" rx="172.77" ry="18"/>
<text text-anchor="middle" x="4406.39" y="-1156.3" font-family="Times,serif" font-size="14.00">Language.Drasil.Data.ODELibPckg</text>
</g>
<!-- u38&#45;&gt;u45 -->
<g id="edge60" class="edge">
<title>u38&#45;&gt;u45</title>
<path fill="none" stroke="black" d="M3812.51,-1415.66C3921.9,-1368.75 4236.78,-1233.73 4358.01,-1181.75"/>
<polygon fill="black" stroke="black" points="4359.62,-1184.87 4367.43,-1177.71 4356.86,-1178.43 4359.62,-1184.87"/>
</g>
<!-- u44 -->
<g id="node12" class="node">
<title>u44</title>
<ellipse fill="#ffbbbb" stroke="black" cx="3747.39" cy="-68" rx="145.67" ry="18"/>
<text text-anchor="middle" x="3747.39" y="-64.3" font-family="Times,serif" font-size="14.00">Language.Drasil.Chunk.Code</text>
</g>
<!-- u43&#45;&gt;u44 -->
<g id="edge67" class="edge">
<title>u43&#45;&gt;u44</title>
<path fill="none" stroke="black" d="M4041.75,-323.05C3987.79,-276.47 3837.13,-146.45 3774.86,-92.71"/>
<polygon fill="black" stroke="black" points="3776.89,-89.83 3767.03,-85.95 3772.31,-95.13 3776.89,-89.83"/>
</g>
<!-- u46 -->
<g id="node54" class="node">
<title>u46</title>
<ellipse fill="#ff77ff" stroke="black" cx="3747.39" cy="-887" rx="154.07" ry="18"/>
<text text-anchor="middle" x="3747.39" y="-883.3" font-family="Times,serif" font-size="14.00">Language.Drasil.Data.ODEInfo</text>
</g>
<!-- u42&#45;&gt;u46 -->
<g id="edge66" class="edge">
<title>u42&#45;&gt;u46</title>
<path fill="none" stroke="black" d="M4007.07,-1142.05C3959.56,-1095.57 3827.1,-965.98 3771.97,-912.04"/>
<polygon fill="black" stroke="black" points="3774.31,-909.44 3764.72,-904.95 3769.42,-914.44 3774.31,-909.44"/>
</g>
<!-- u36 -->
<g id="node17" class="node">
<title>u36</title>
<ellipse fill="#bbffff" stroke="black" cx="4186.39" cy="-3070" rx="191.17" ry="18"/>
<text text-anchor="middle" x="4186.39" y="-3066.3" font-family="Times,serif" font-size="14.00">Language.Drasil.Code.CodeGeneration</text>
</g>
<!-- u36&#45;&gt;u37 -->
<g id="edge58" class="edge">
<title>u36&#45;&gt;u37</title>
<path fill="none" stroke="black" d="M4135.48,-3052.64C4043.9,-3020.82 3850.37,-2942.35 3736.39,-2815 3481.41,-2530.09 3529.39,-2362.34 3529.39,-1980 3529.39,-1980 3529.39,-1980 3529.39,-1705 3529.39,-1505.96 3566.95,-1268.1 3580.55,-1188.48"/>
<polygon fill="black" stroke="black" points="3584.05,-1188.76 3582.3,-1178.31 3577.15,-1187.57 3584.05,-1188.76"/>
</g>
<!-- u14 -->
<g id="node44" class="node">
<title>u14</title>
<ellipse fill="#7777ff" stroke="black" cx="2767.39" cy="-2797" rx="222.06" ry="18"/>
<text text-anchor="middle" x="2767.39" y="-2793.3" font-family="Times,serif" font-size="14.00">Language.Drasil.Code.Imperative.GOOL.Data</text>
</g>
<!-- u36&#45;&gt;u14 -->
<g id="edge57" class="edge">
<title>u36&#45;&gt;u14</title>
<path fill="none" stroke="black" d="M4106.04,-3053.65C3860.46,-3006.75 3120.77,-2865.49 2859.79,-2815.65"/>
<polygon fill="black" stroke="black" points="2860.44,-2812.21 2849.96,-2813.77 2859.13,-2819.08 2860.44,-2812.21"/>
</g>
<!-- u35 -->
<g id="node18" class="node">
<title>u35</title>
<ellipse fill="#bbffff" stroke="black" cx="4822.39" cy="-887" rx="207.96" ry="18"/>
<text text-anchor="middle" x="4822.39" y="-883.3" font-family="Times,serif" font-size="14.00">Language.Drasil.Code.ExternalLibraryCall</text>
</g>
<!-- u35&#45;&gt;u40 -->
<g id="edge56" class="edge">
<title>u35&#45;&gt;u40</title>
<path fill="none" stroke="black" d="M4789.18,-869.05C4696.26,-821.63 4433.88,-687.72 4332.28,-635.87"/>
<polygon fill="black" stroke="black" points="4333.75,-632.69 4323.25,-631.26 4330.56,-638.92 4333.75,-632.69"/>
</g>
<!-- u34 -->
<g id="node19" class="node">
<title>u34</title>
<ellipse fill="#bbffff" stroke="black" cx="4406.39" cy="-887" rx="190.37" ry="18"/>
<text text-anchor="middle" x="4406.39" y="-883.3" font-family="Times,serif" font-size="14.00">Language.Drasil.Code.ExternalLibrary</text>
</g>
<!-- u34&#45;&gt;u40 -->
<g id="edge55" class="edge">
<title>u34&#45;&gt;u40</title>
<path fill="none" stroke="black" d="M4399.03,-868.64C4379.47,-822.56 4326.16,-696.94 4302.72,-641.68"/>
<polygon fill="black" stroke="black" points="4305.83,-640.06 4298.7,-632.22 4299.39,-642.79 4305.83,-640.06"/>
</g>
<!-- u33&#45;&gt;u44 -->
<g id="edge54" class="edge">
<title>u33&#45;&gt;u44</title>
<path fill="none" stroke="black" d="M2873.98,-324.06C3035.58,-276.87 3511.01,-138.03 3683.75,-87.59"/>
<polygon fill="black" stroke="black" points="3684.84,-90.91 3693.46,-84.75 3682.88,-84.19 3684.84,-90.91"/>
</g>
<!-- u32 -->
<g id="node21" class="node">
<title>u32</title>
<ellipse fill="#bbffff" stroke="black" cx="4799.39" cy="-1160" rx="178.97" ry="18"/>
<text text-anchor="middle" x="4799.39" y="-1156.3" font-family="Times,serif" font-size="14.00">Language.Drasil.Code.ExtLibImport</text>
</g>
<!-- u32&#45;&gt;u35 -->
<g id="edge53" class="edge">
<title>u32&#45;&gt;u35</title>
<path fill="none" stroke="black" d="M4800.87,-1141.64C4804.76,-1095.75 4815.35,-970.98 4820.07,-915.37"/>
<polygon fill="black" stroke="black" points="4823.57,-915.48 4820.93,-905.22 4816.6,-914.89 4823.57,-915.48"/>
</g>
<!-- u32&#45;&gt;u34 -->
<g id="edge52" class="edge">
<title>u32&#45;&gt;u34</title>
<path fill="none" stroke="black" d="M4774.81,-1142.05C4706.85,-1095.19 4516.4,-963.85 4439.36,-910.73"/>
<polygon fill="black" stroke="black" points="4441.19,-907.74 4430.97,-904.95 4437.21,-913.5 4441.19,-907.74"/>
</g>
<!-- u31 -->
<g id="node22" class="node">
<title>u31</title>
<ellipse fill="#bbffff" stroke="black" cx="3875.39" cy="-2252" rx="204.16" ry="18"/>
<text text-anchor="middle" x="3875.39" y="-2248.3" font-family="Times,serif" font-size="14.00">Language.Drasil.Code.CodeQuantityDicts</text>
</g>
<!-- u30 -->
<g id="node23" class="node">
<title>u30</title>
<ellipse fill="#bbffff" stroke="black" cx="4058.39" cy="-887" rx="139.18" ry="18"/>
<text text-anchor="middle" x="4058.39" y="-883.3" font-family="Times,serif" font-size="14.00">Language.Drasil.Code.Lang</text>
</g>
<!-- u29 -->
<g id="node24" class="node">
<title>u29</title>
<ellipse fill="#ffbbff" stroke="black" cx="4338.39" cy="-2252" rx="240.46" ry="18"/>
<text text-anchor="middle" x="4338.39" y="-2248.3" font-family="Times,serif" font-size="14.00">Language.Drasil.Code.Imperative.GenerateGOOL</text>
</g>
<!-- u3 -->
<g id="node37" class="node">
<title>u3</title>
<ellipse fill="#ffbbff" stroke="black" cx="4856.39" cy="-1979" rx="222.06" ry="18"/>
<text text-anchor="middle" x="4856.39" y="-1975.3" font-family="Times,serif" font-size="14.00">Language.Drasil.Code.Imperative.DrasilState</text>
</g>
<!-- u29&#45;&gt;u3 -->
<g id="edge50" class="edge">
<title>u29&#45;&gt;u3</title>
<path fill="none" stroke="black" d="M4370.8,-2234.05C4461.01,-2186.85 4714.98,-2053.99 4815.09,-2001.61"/>
<polygon fill="black" stroke="black" points="4816.77,-2004.68 4824,-1996.95 4813.52,-1998.48 4816.77,-2004.68"/>
</g>
<!-- u13 -->
<g id="node45" class="node">
<title>u13</title>
<ellipse fill="#7777ff" stroke="black" cx="3824.39" cy="-1979" rx="267.25" ry="18"/>
<text text-anchor="middle" x="3824.39" y="-1975.3" font-family="Times,serif" font-size="14.00">Language.Drasil.Code.Imperative.GOOL.ClassInterface</text>
</g>
<!-- u29&#45;&gt;u13 -->
<g id="edge51" class="edge">
<title>u29&#45;&gt;u13</title>
<path fill="none" stroke="black" d="M4306.24,-2234.05C4216.73,-2186.85 3964.72,-2053.99 3865.38,-2001.61"/>
<polygon fill="black" stroke="black" points="3867.01,-1998.51 3856.54,-1996.95 3863.75,-2004.71 3867.01,-1998.51"/>
</g>
<!-- u25 -->
<g id="node25" class="node">
<title>u25</title>
<ellipse fill="#ffbbff" stroke="black" cx="4606.39" cy="-2525" rx="201.46" ry="18"/>
<text text-anchor="middle" x="4606.39" y="-2521.3" font-family="Times,serif" font-size="14.00">Language.Drasil.Code.Imperative.Import</text>
</g>
<!-- u25&#45;&gt;u31 -->
<g id="edge47" class="edge">
<title>u25&#45;&gt;u31</title>
<path fill="none" stroke="black" d="M4561.49,-2507.35C4433.78,-2460.01 4068.78,-2324.69 3929.92,-2273.21"/>
<polygon fill="black" stroke="black" points="3930.91,-2269.85 3920.32,-2269.65 3928.48,-2276.41 3930.91,-2269.85"/>
</g>
<!-- u25&#45;&gt;u29 -->
<g id="edge46" class="edge">
<title>u25&#45;&gt;u29</title>
<path fill="none" stroke="black" d="M4589.63,-2507.05C4543.77,-2460.68 4416.12,-2331.6 4362.55,-2277.43"/>
<polygon fill="black" stroke="black" points="4365.02,-2274.94 4355.5,-2270.29 4360.04,-2279.87 4365.02,-2274.94"/>
</g>
<!-- u10 -->
<g id="node31" class="node">
<title>u10</title>
<ellipse fill="#ffbbff" stroke="black" cx="5286.39" cy="-2252" rx="219.86" ry="18"/>
<text text-anchor="middle" x="5286.39" y="-2248.3" font-family="Times,serif" font-size="14.00">Language.Drasil.Code.Imperative.Comments</text>
</g>
<!-- u25&#45;&gt;u10 -->
<g id="edge45" class="edge">
<title>u25&#45;&gt;u10</title>
<path fill="none" stroke="black" d="M4648.16,-2507.35C4766.7,-2460.11 5105.02,-2325.28 5234.82,-2273.55"/>
<polygon fill="black" stroke="black" points="5236.18,-2276.78 5244.17,-2269.83 5233.59,-2270.28 5236.18,-2276.78"/>
</g>
<!-- u7 -->
<g id="node34" class="node">
<title>u7</title>
<ellipse fill="#ffbbff" stroke="black" cx="4014.39" cy="-1706" rx="237.46" ry="18"/>
<text text-anchor="middle" x="4014.39" y="-1702.3" font-family="Times,serif" font-size="14.00">Language.Drasil.Code.Imperative.ConceptMatch</text>
</g>
<!-- u25&#45;&gt;u7 -->
<g id="edge44" class="edge">
<title>u25&#45;&gt;u7</title>
<path fill="none" stroke="black" d="M4609.47,-2506.89C4617,-2460.31 4632.58,-2328.44 4587.39,-2234 4466.11,-1980.53 4163.9,-1791.18 4054.63,-1728.97"/>
<polygon fill="black" stroke="black" points="4056.3,-1725.9 4045.88,-1724.03 4052.86,-1732 4056.3,-1725.9"/>
</g>
<!-- u5 -->
<g id="node35" class="node">
<title>u5</title>
<ellipse fill="#ffbbff" stroke="black" cx="5730.39" cy="-2252" rx="206.06" ry="18"/>
<text text-anchor="middle" x="5730.39" y="-2248.3" font-family="Times,serif" font-size="14.00">Language.Drasil.Code.Imperative.Helpers</text>
</g>
<!-- u25&#45;&gt;u5 -->
<g id="edge43" class="edge">
<title>u25&#45;&gt;u5</title>
<path fill="none" stroke="black" d="M4672.92,-2507.96C4869.19,-2460.64 5445.1,-2321.79 5653.77,-2271.47"/>
<polygon fill="black" stroke="black" points="5654.83,-2274.82 5663.73,-2269.07 5653.19,-2268.01 5654.83,-2274.82"/>
</g>
<!-- u1 -->
<g id="node39" class="node">
<title>u1</title>
<ellipse fill="#ffbbff" stroke="black" cx="4841.39" cy="-2252" rx="207.16" ry="18"/>
<text text-anchor="middle" x="4841.39" y="-2248.3" font-family="Times,serif" font-size="14.00">Language.Drasil.Code.Imperative.Logging</text>
</g>
<!-- u25&#45;&gt;u1 -->
<g id="edge42" class="edge">
<title>u25&#45;&gt;u1</title>
<path fill="none" stroke="black" d="M4621.09,-2507.05C4661.14,-2460.87 4772.32,-2332.65 4819.63,-2278.09"/>
<polygon fill="black" stroke="black" points="4822.49,-2280.14 4826.4,-2270.29 4817.2,-2275.56 4822.49,-2280.14"/>
</g>
<!-- u24 -->
<g id="node26" class="node">
<title>u24</title>
<ellipse fill="#ffbbff" stroke="black" cx="2348.39" cy="-614" rx="219.86" ry="18"/>
<text text-anchor="middle" x="2348.39" y="-610.3" font-family="Times,serif" font-size="14.00">Language.Drasil.Code.Imperative.WriteInput</text>
</g>
<!-- u24&#45;&gt;u33 -->
<g id="edge41" class="edge">
<title>u24&#45;&gt;u33</title>
<path fill="none" stroke="black" d="M2377.86,-596.05C2459.73,-548.94 2689.96,-416.47 2781.33,-363.9"/>
<polygon fill="black" stroke="black" points="2783.32,-366.79 2790.24,-358.77 2779.83,-360.73 2783.32,-366.79"/>
</g>
<!-- u23 -->
<g id="node27" class="node">
<title>u23</title>
<ellipse fill="#ffbbff" stroke="black" cx="3875.39" cy="-2525" rx="223.66" ry="18"/>
<text text-anchor="middle" x="3875.39" y="-2521.3" font-family="Times,serif" font-size="14.00">Language.Drasil.Code.Imperative.Parameters</text>
</g>
<!-- u23&#45;&gt;u31 -->
<g id="edge40" class="edge">
<title>u23&#45;&gt;u31</title>
<path fill="none" stroke="black" d="M3875.39,-2506.64C3875.39,-2460.75 3875.39,-2335.98 3875.39,-2280.37"/>
<polygon fill="black" stroke="black" points="3878.89,-2280.22 3875.39,-2270.22 3871.89,-2280.22 3878.89,-2280.22"/>
</g>
<!-- u23&#45;&gt;u3 -->
<g id="edge39" class="edge">
<title>u23&#45;&gt;u3</title>
<path fill="none" stroke="black" d="M3845.75,-2507.08C3770.05,-2461.77 3581.12,-2334.38 3662.39,-2234 3787.91,-2078.98 4374.4,-2014.6 4676.09,-1991.38"/>
<polygon fill="black" stroke="black" points="4676.55,-1994.86 4686.26,-1990.61 4676.02,-1987.88 4676.55,-1994.86"/>
</g>
<!-- u22 -->
<g id="node28" class="node">
<title>u22</title>
<ellipse fill="#ffbbff" stroke="black" cx="4618.39" cy="-1433" rx="209.86" ry="18"/>
<text text-anchor="middle" x="4618.39" y="-1429.3" font-family="Times,serif" font-size="14.00">Language.Drasil.Code.Imperative.GenODE</text>
</g>
<!-- u22&#45;&gt;u42 -->
<g id="edge37" class="edge">
<title>u22&#45;&gt;u42</title>
<path fill="none" stroke="black" d="M4581.69,-1415.25C4478.23,-1368.05 4184.44,-1234.02 4070.42,-1182"/>
<polygon fill="black" stroke="black" points="4071.79,-1178.78 4061.24,-1177.81 4068.88,-1185.14 4071.79,-1178.78"/>
</g>
<!-- u22&#45;&gt;u32 -->
<g id="edge36" class="edge">
<title>u22&#45;&gt;u32</title>
<path fill="none" stroke="black" d="M4629.99,-1414.64C4660.96,-1368.27 4745.72,-1241.37 4782.26,-1186.66"/>
<polygon fill="black" stroke="black" points="4785.25,-1188.48 4787.89,-1178.22 4779.43,-1184.59 4785.25,-1188.48"/>
</g>
<!-- u22&#45;&gt;u45 -->
<g id="edge38" class="edge">
<title>u22&#45;&gt;u45</title>
<path fill="none" stroke="black" d="M4604.81,-1414.64C4568.46,-1368.17 4468.86,-1240.85 4426.2,-1186.32"/>
<polygon fill="black" stroke="black" points="4428.78,-1183.94 4419.87,-1178.22 4423.27,-1188.25 4428.78,-1183.94"/>
</g>
<!-- u21&#45;&gt;u36 -->
<g id="edge35" class="edge">
<title>u21&#45;&gt;u36</title>
<path fill="none" stroke="black" d="M4578.25,-3325.05C4505.82,-3278.09 4302.57,-3146.32 4220.96,-3093.41"/>
<polygon fill="black" stroke="black" points="4222.83,-3090.45 4212.53,-3087.95 4219.02,-3096.32 4222.83,-3090.45"/>
</g>
<!-- u21&#45;&gt;u22 -->
<g id="edge34" class="edge">
<title>u21&#45;&gt;u22</title>
<path fill="none" stroke="black" d="M4697.2,-3326.72C5009.44,-3272.73 6002.39,-3078.95 6002.39,-2798 6002.39,-2798 6002.39,-2798 6002.39,-1978 6002.39,-1702.17 5038.16,-1507.8 4719.36,-1451.07"/>
<polygon fill="black" stroke="black" points="4719.66,-1447.57 4709.2,-1449.27 4718.44,-1454.46 4719.66,-1447.57"/>
</g>
<!-- u2 -->
<g id="node38" class="node">
<title>u2</title>
<ellipse fill="#ffbbff" stroke="black" cx="4604.39" cy="-3070" rx="209.06" ry="18"/>
<text text-anchor="middle" x="4604.39" y="-3066.3" font-family="Times,serif" font-size="14.00">Language.Drasil.Code.Imperative.Modules</text>
</g>
<!-- u21&#45;&gt;u2 -->
<g id="edge33" class="edge">
<title>u21&#45;&gt;u2</title>
<path fill="none" stroke="black" d="M4604.39,-3324.64C4604.39,-3278.75 4604.39,-3153.98 4604.39,-3098.37"/>
<polygon fill="black" stroke="black" points="4607.89,-3098.22 4604.39,-3088.22 4600.89,-3098.22 4607.89,-3098.22"/>
</g>
<!-- u0 -->
<g id="node40" class="node">
<title>u0</title>
<ellipse fill="#ffbbff" stroke="black" cx="5414.39" cy="-2797" rx="226.66" ry="18"/>
<text text-anchor="middle" x="5414.39" y="-2793.3" font-family="Times,serif" font-size="14.00">Language.Drasil.Code.Imperative.SpaceMatch</text>
</g>
<!-- u21&#45;&gt;u0 -->
<g id="edge32" class="edge">
<title>u21&#45;&gt;u0</title>
<path fill="none" stroke="black" d="M4629.97,-3324.82C4748.78,-3245.03 5246.62,-2910.68 5380.9,-2820.5"/>
<polygon fill="black" stroke="black" points="5382.86,-2823.39 5389.21,-2814.91 5378.96,-2817.58 5382.86,-2823.39"/>
</g>
<!-- u11 -->
<g id="node30" class="node">
<title>u11</title>
<ellipse fill="#ffbbff" stroke="black" cx="2709.39" cy="-2525" rx="233.16" ry="18"/>
<text text-anchor="middle" x="2709.39" y="-2521.3" font-family="Times,serif" font-size="14.00">Language.Drasil.Code.Imperative.WriteReadMe</text>
</g>
<!-- u11&#45;&gt;u13 -->
<g id="edge15" class="edge">
<title>u11&#45;&gt;u13</title>
<path fill="none" stroke="black" d="M2743.99,-2507.12C2907.11,-2427.54 3599.15,-2089.9 3780.66,-2001.34"/>
<polygon fill="black" stroke="black" points="3782.2,-2004.48 3789.66,-1996.95 3779.13,-1998.19 3782.2,-2004.48"/>
</g>
<!-- u10&#45;&gt;u3 -->
<g id="edge14" class="edge">
<title>u10&#45;&gt;u3</title>
<path fill="none" stroke="black" d="M5259.5,-2234.05C5184.99,-2187.09 4975.91,-2055.32 4891.95,-2002.41"/>
<polygon fill="black" stroke="black" points="4893.61,-1999.32 4883.28,-1996.95 4889.88,-2005.24 4893.61,-1999.32"/>
</g>
<!-- u9 -->
<g id="node32" class="node">
<title>u9</title>
<ellipse fill="#ffbbff" stroke="black" cx="3973.39" cy="-2797" rx="228.26" ry="18"/>
<text text-anchor="middle" x="3973.39" y="-2793.3" font-family="Times,serif" font-size="14.00">Language.Drasil.Code.Imperative.Descriptions</text>
</g>
<!-- u9&#45;&gt;u3 -->
<g id="edge13" class="edge">
<title>u9&#45;&gt;u3</title>
<path fill="none" stroke="black" d="M3932.1,-2779.28C3857.85,-2746.67 3703.84,-2666.73 3642.39,-2543 3581.31,-2420 3554.79,-2340.58 3641.39,-2234 3769.13,-2076.8 4364.45,-2013.5 4671.75,-1990.97"/>
<polygon fill="black" stroke="black" points="4672.39,-1994.43 4682.11,-1990.22 4671.88,-1987.45 4672.39,-1994.43"/>
</g>
<!-- u8 -->
<g id="node33" class="node">
<title>u8</title>
<ellipse fill="#ffbbff" stroke="black" cx="4604.39" cy="-2797" rx="233.16" ry="18"/>
<text text-anchor="middle" x="4604.39" y="-2793.3" font-family="Times,serif" font-size="14.00">Language.Drasil.Code.Imperative.FunctionCalls</text>
</g>
<!-- u8&#45;&gt;u25 -->
<g id="edge12" class="edge">
<title>u8&#45;&gt;u25</title>
<path fill="none" stroke="black" d="M4604.52,-2778.7C4604.86,-2732.98 4605.78,-2608.67 4606.19,-2553.27"/>
<polygon fill="black" stroke="black" points="4609.69,-2553.18 4606.27,-2543.16 4602.69,-2553.13 4609.69,-2553.18"/>
</g>
<!-- u8&#45;&gt;u23 -->
<g id="edge11" class="edge">
<title>u8&#45;&gt;u23</title>
<path fill="none" stroke="black" d="M4559.34,-2779.31C4431.87,-2732.1 4068.91,-2597.67 3930.2,-2546.3"/>
<polygon fill="black" stroke="black" points="3931.2,-2542.94 3920.61,-2542.75 3928.77,-2549.5 3931.2,-2542.94"/>
</g>
<!-- u7&#45;&gt;u38 -->
<g id="edge10" class="edge">
<title>u7&#45;&gt;u38</title>
<path fill="none" stroke="black" d="M3999.02,-1687.64C3957.78,-1641.08 3844.64,-1513.32 3796.52,-1458.99"/>
<polygon fill="black" stroke="black" points="3798.89,-1456.39 3789.64,-1451.22 3793.65,-1461.03 3798.89,-1456.39"/>
</g>
<!-- u5&#45;&gt;u3 -->
<g id="edge8" class="edge">
<title>u5&#45;&gt;u3</title>
<path fill="none" stroke="black" d="M5677.36,-2234.56C5524.67,-2187.21 5084.42,-2050.7 4919.65,-1999.61"/>
<polygon fill="black" stroke="black" points="4920.25,-1996.14 4909.66,-1996.52 4918.18,-2002.82 4920.25,-1996.14"/>
</g>
<!-- u4&#45;&gt;u33 -->
<g id="edge7" class="edge">
<title>u4&#45;&gt;u33</title>
<path fill="none" stroke="black" d="M691.14,-1688.8C865.42,-1640.9 1331.39,-1482.76 1331.39,-1161 1331.39,-1161 1331.39,-1161 1331.39,-886 1331.39,-591.15 2375.04,-408.61 2714.26,-357.07"/>
<polygon fill="black" stroke="black" points="2714.97,-360.5 2724.33,-355.55 2713.92,-353.58 2714.97,-360.5"/>
</g>
<!-- u3&#45;&gt;u39 -->
<g id="edge6" class="edge">
<title>u3&#45;&gt;u39</title>
<path fill="none" stroke="black" d="M4828.18,-1961.05C4749.86,-1913.99 4529.78,-1781.74 4442.11,-1729.06"/>
<polygon fill="black" stroke="black" points="4443.68,-1725.92 4433.31,-1723.77 4440.08,-1731.92 4443.68,-1725.92"/>
</g>
<!-- u3&#45;&gt;u32 -->
<g id="edge5" class="edge">
<title>u3&#45;&gt;u32</title>
<path fill="none" stroke="black" d="M4856.53,-1960.91C4856.93,-1892.24 4857.02,-1629.75 4837.39,-1415 4829.79,-1331.79 4812.96,-1234.29 4804.48,-1188.01"/>
<polygon fill="black" stroke="black" points="4807.92,-1187.36 4802.66,-1178.16 4801.04,-1188.63 4807.92,-1187.36"/>
</g>
<!-- u2&#45;&gt;u9 -->
<g id="edge4" class="edge">
<title>u2&#45;&gt;u9</title>
<path fill="none" stroke="black" d="M4565.4,-3052.25C4455.39,-3005.01 4142.78,-2870.75 4021.92,-2818.84"/>
<polygon fill="black" stroke="black" points="4023.1,-2815.54 4012.53,-2814.81 4020.34,-2821.97 4023.1,-2815.54"/>
</g>
<!-- u2&#45;&gt;u8 -->
<g id="edge3" class="edge">
<title>u2&#45;&gt;u8</title>
<path fill="none" stroke="black" d="M4604.39,-3051.64C4604.39,-3005.75 4604.39,-2880.98 4604.39,-2825.37"/>
<polygon fill="black" stroke="black" points="4607.89,-2825.22 4604.39,-2815.22 4600.89,-2825.22 4607.89,-2825.22"/>
</g>
<!-- u1&#45;&gt;u3 -->
<g id="edge2" class="edge">
<title>u1&#45;&gt;u3</title>
<path fill="none" stroke="black" d="M4842.36,-2233.64C4844.9,-2187.75 4851.8,-2062.98 4854.88,-2007.37"/>
<polygon fill="black" stroke="black" points="4858.38,-2007.4 4855.44,-1997.22 4851.39,-2007.01 4858.38,-2007.4"/>
</g>
<!-- u0&#45;&gt;u3 -->
<g id="edge1" class="edge">
<title>u0&#45;&gt;u3</title>
<path fill="none" stroke="black" d="M5454.61,-2779.17C5606.65,-2713.26 6128.66,-2464.93 5945.39,-2234 5831.03,-2089.89 5289.09,-2019.94 5015.38,-1993.33"/>
<polygon fill="black" stroke="black" points="5015.65,-1989.84 5005.36,-1992.37 5014.97,-1996.81 5015.65,-1989.84"/>
</g>
<!-- u27 -->
<g id="node41" class="node">
<title>u27</title>
<ellipse fill="#77ff77" stroke="black" cx="2191.39" cy="-2252" rx="215.56" ry="18"/>
<text text-anchor="middle" x="2191.39" y="-2248.3" font-family="Times,serif" font-size="14.00">Language.Drasil.Code.Imperative.Build.AST</text>
</g>
<!-- u26 -->
<g id="node42" class="node">
<title>u26</title>
<ellipse fill="#77ff77" stroke="black" cx="2191.39" cy="-2525" rx="228.56" ry="18"/>
<text text-anchor="middle" x="2191.39" y="-2521.3" font-family="Times,serif" font-size="14.00">Language.Drasil.Code.Imperative.Build.Import</text>
</g>
<!-- u26&#45;&gt;u27 -->
<g id="edge48" class="edge">
<title>u26&#45;&gt;u27</title>
<path fill="none" stroke="black" d="M2191.39,-2506.64C2191.39,-2460.75 2191.39,-2335.98 2191.39,-2280.37"/>
<polygon fill="black" stroke="black" points="2194.89,-2280.22 2191.39,-2270.22 2187.89,-2280.22 2194.89,-2280.22"/>
</g>
<!-- u6 -->
<g id="node43" class="node">
<title>u6</title>
<ellipse fill="#ffff77" stroke="black" cx="2709.39" cy="-1979" rx="245.06" ry="18"/>
<text text-anchor="middle" x="2709.39" y="-1975.3" font-family="Times,serif" font-size="14.00">Language.Drasil.Code.Imperative.Doxygen.Import</text>
</g>
<!-- u6&#45;&gt;u38 -->
<g id="edge9" class="edge">
<title>u6&#45;&gt;u38</title>
<path fill="none" stroke="black" d="M2742.44,-1961.12C2898.44,-1881.44 3560.86,-1543.07 3733.25,-1455.02"/>
<polygon fill="black" stroke="black" points="3734.95,-1458.08 3742.26,-1450.41 3731.76,-1451.85 3734.95,-1458.08"/>
</g>
<!-- u13&#45;&gt;u38 -->
<g id="edge16" class="edge">
<title>u13&#45;&gt;u38</title>
<path fill="none" stroke="black" d="M3819.29,-1960.97C3807.43,-1920.4 3778.27,-1814.68 3768.39,-1724 3757.91,-1627.72 3766.56,-1512.43 3771.52,-1461.03"/>
<polygon fill="black" stroke="black" points="3775,-1461.36 3772.51,-1451.06 3768.04,-1460.67 3775,-1461.36"/>
</g>
<!-- u12 -->
<g id="node46" class="node">
<title>u12</title>
<ellipse fill="#7777ff" stroke="black" cx="3250.39" cy="-2525" rx="289.45" ry="18"/>
<text text-anchor="middle" x="3250.39" y="-2521.3" font-family="Times,serif" font-size="14.00">Language.Drasil.Code.Imperative.GOOL.LanguageRenderer</text>
</g>
<!-- u20&#45;&gt;u14 -->
<g id="edge30" class="edge">
<title>u20&#45;&gt;u14</title>
<path fill="none" stroke="black" d="M3565.48,-3052.15C3415.65,-3004.44 2989,-2868.57 2829,-2817.62"/>
<polygon fill="black" stroke="black" points="2829.9,-2814.23 2819.31,-2814.53 2827.77,-2820.9 2829.9,-2814.23"/>
</g>
<!-- u19 -->
<g id="node48" class="node">
<title>u19</title>
<ellipse fill="#ff7777" stroke="black" cx="2133.39" cy="-2797" rx="393.73" ry="18"/>
<text text-anchor="middle" x="2133.39" y="-2793.3" font-family="Times,serif" font-size="14.00">Language.Drasil.Code.Imperative.GOOL.LanguageRenderer.LanguagePolymorphic</text>
</g>
<!-- u20&#45;&gt;u19 -->
<g id="edge31" class="edge">
<title>u20&#45;&gt;u19</title>
<path fill="none" stroke="black" d="M3528.29,-3052.56C3266.81,-3004.84 2509.02,-2866.55 2234.34,-2816.42"/>
<polygon fill="black" stroke="black" points="2234.84,-2812.96 2224.38,-2814.6 2233.59,-2819.84 2234.84,-2812.96"/>
</g>
<!-- u19&#45;&gt;u24 -->
<g id="edge28" class="edge">
<title>u19&#45;&gt;u24</title>
<path fill="none" stroke="black" d="M2115.95,-2778.99C2078.18,-2740.88 1989.36,-2644.06 1953.39,-2543 1910.09,-2421.31 1934.39,-2382.17 1934.39,-2253 1934.39,-2253 1934.39,-2253 1934.39,-1159 1934.39,-910.15 2212.11,-704.01 2312.63,-637.55"/>
<polygon fill="black" stroke="black" points="2314.78,-640.32 2321.23,-631.92 2310.95,-634.47 2314.78,-640.32"/>
</g>
<!-- u19&#45;&gt;u11 -->
<g id="edge26" class="edge">
<title>u19&#45;&gt;u11</title>
<path fill="none" stroke="black" d="M2169.86,-2778.91C2270.79,-2731.6 2553.61,-2599.03 2664.23,-2547.17"/>
<polygon fill="black" stroke="black" points="2665.89,-2550.26 2673.45,-2542.85 2662.91,-2543.92 2665.89,-2550.26"/>
</g>
<!-- u19&#45;&gt;u26 -->
<g id="edge29" class="edge">
<title>u19&#45;&gt;u26</title>
<path fill="none" stroke="black" d="M2137.11,-2778.7C2146.93,-2732.98 2173.64,-2608.67 2185.54,-2553.27"/>
<polygon fill="black" stroke="black" points="2189.03,-2553.67 2187.71,-2543.16 2182.19,-2552.2 2189.03,-2553.67"/>
</g>
<!-- u19&#45;&gt;u6 -->
<g id="edge25" class="edge">
<title>u19&#45;&gt;u6</title>
<path fill="none" stroke="black" d="M2159.83,-2778.89C2215.68,-2741.69 2347.27,-2648.27 2429.39,-2543 2572.5,-2359.58 2671.38,-2091.38 2700.5,-2006.67"/>
<polygon fill="black" stroke="black" points="2703.87,-2007.64 2703.78,-1997.04 2697.24,-2005.38 2703.87,-2007.64"/>
</g>
<!-- u19&#45;&gt;u12 -->
<g id="edge27" class="edge">
<title>u19&#45;&gt;u12</title>
<path fill="none" stroke="black" d="M2202.85,-2779.21C2400.27,-2731.49 2963.89,-2595.25 3171.97,-2544.96"/>
<polygon fill="black" stroke="black" points="3173,-2548.31 3181.9,-2542.56 3171.36,-2541.5 3173,-2548.31"/>
</g>
<!-- u18&#45;&gt;u14 -->
<g id="edge23" class="edge">
<title>u18&#45;&gt;u14</title>
<path fill="none" stroke="black" d="M794.13,-3053.01C1166.57,-3004.88 2274.23,-2861.73 2644.96,-2813.82"/>
<polygon fill="black" stroke="black" points="2645.44,-2817.29 2654.91,-2812.54 2644.54,-2810.35 2645.44,-2817.29"/>
</g>
<!-- u18&#45;&gt;u19 -->
<g id="edge24" class="edge">
<title>u18&#45;&gt;u19</title>
<path fill="none" stroke="black" d="M759.44,-3052.51C1017.19,-3004.76 1762.79,-2866.65 2033.6,-2816.49"/>
<polygon fill="black" stroke="black" points="2034.61,-2819.86 2043.81,-2814.59 2033.34,-2812.97 2034.61,-2819.86"/>
</g>
<!-- u17&#45;&gt;u14 -->
<g id="edge21" class="edge">
<title>u17&#45;&gt;u14</title>
<path fill="none" stroke="black" d="M1493.24,-3052.46C1733.46,-3004.48 2429.02,-2865.58 2677.69,-2815.91"/>
<polygon fill="black" stroke="black" points="2678.65,-2819.29 2687.77,-2813.9 2677.28,-2812.43 2678.65,-2819.29"/>
</g>
<!-- u17&#45;&gt;u19 -->
<g id="edge22" class="edge">
<title>u17&#45;&gt;u19</title>
<path fill="none" stroke="black" d="M1455.62,-3052.05C1582.42,-3004.52 1941.02,-2870.11 2078.66,-2818.52"/>
<polygon fill="black" stroke="black" points="2080.05,-2821.73 2088.18,-2814.95 2077.59,-2815.18 2080.05,-2821.73"/>
</g>
<!-- u16&#45;&gt;u14 -->
<g id="edge19" class="edge">
<title>u16&#45;&gt;u14</title>
<path fill="none" stroke="black" d="M2174.93,-3052.05C2285.57,-3004.61 2598.1,-2870.59 2718.89,-2818.8"/>
<polygon fill="black" stroke="black" points="2720.47,-2821.93 2728.28,-2814.77 2717.71,-2815.5 2720.47,-2821.93"/>
</g>
<!-- u16&#45;&gt;u19 -->
<g id="edge20" class="edge">
<title>u16&#45;&gt;u19</title>
<path fill="none" stroke="black" d="M2135.27,-3051.64C2134.93,-3005.75 2134.01,-2880.98 2133.6,-2825.37"/>
<polygon fill="black" stroke="black" points="2137.1,-2825.19 2133.52,-2815.22 2130.1,-2825.25 2137.1,-2825.19"/>
</g>
<!-- u15&#45;&gt;u14 -->
<g id="edge17" class="edge">
<title>u15&#45;&gt;u14</title>
<path fill="none" stroke="black" d="M2867.54,-3051.64C2849.34,-3005.56 2799.75,-2879.94 2777.93,-2824.68"/>
<polygon fill="black" stroke="black" points="2781.12,-2823.24 2774.19,-2815.22 2774.61,-2825.81 2781.12,-2823.24"/>
</g>
<!-- u15&#45;&gt;u19 -->
<g id="edge18" class="edge">
<title>u15&#45;&gt;u19</title>
<path fill="none" stroke="black" d="M2828.04,-3052.05C2698.09,-3004.52 2330.56,-2870.11 2189.49,-2818.52"/>
<polygon fill="black" stroke="black" points="2190.32,-2815.09 2179.73,-2814.95 2187.92,-2821.67 2190.32,-2815.09"/>
</g>
<!-- u28 -->
<g id="node53" class="node">
<title>u28</title>
<ellipse fill="#77ffff" stroke="black" cx="3275.39" cy="-2797" rx="267.55" ry="18"/>
<text text-anchor="middle" x="3275.39" y="-2793.3" font-family="Times,serif" font-size="14.00">Language.Drasil.Code.Imperative.Parsers.ConfigParser</text>
</g>
<!-- u28&#45;&gt;u12 -->
<g id="edge49" class="edge">
<title>u28&#45;&gt;u12</title>
<path fill="none" stroke="black" d="M3273.79,-2778.7C3269.56,-2732.98 3258.05,-2608.67 3252.92,-2553.27"/>
<polygon fill="black" stroke="black" points="3256.39,-2552.79 3251.98,-2543.16 3249.42,-2553.44 3256.39,-2552.79"/>
</g>
<!-- u46&#45;&gt;u44 -->
<g id="edge72" class="edge">
<title>u46&#45;&gt;u44</title>
<path fill="none" stroke="black" d="M3747.39,-868.94C3747.39,-765.73 3747.39,-225.13 3747.39,-96.49"/>
<polygon fill="black" stroke="black" points="3750.89,-96.31 3747.39,-86.31 3743.89,-96.31 3750.89,-96.31"/>
</g>
<!-- u45&#45;&gt;u35 -->
<g id="edge70" class="edge">
<title>u45&#45;&gt;u35</title>
<path fill="none" stroke="black" d="M4432.42,-1142.05C4504.5,-1095.09 4706.77,-963.32 4788,-910.41"/>
<polygon fill="black" stroke="black" points="4789.91,-913.34 4796.38,-904.95 4786.09,-907.47 4789.91,-913.34"/>
</g>
<!-- u45&#45;&gt;u34 -->
<g id="edge69" class="edge">
<title>u45&#45;&gt;u34</title>
<path fill="none" stroke="black" d="M4406.39,-1141.64C4406.39,-1095.75 4406.39,-970.98 4406.39,-915.37"/>
<polygon fill="black" stroke="black" points="4409.89,-915.22 4406.39,-905.22 4402.89,-915.22 4409.89,-915.22"/>
</g>
<!-- u45&#45;&gt;u30 -->
<g id="edge68" class="edge">
<title>u45&#45;&gt;u30</title>
<path fill="none" stroke="black" d="M4384.63,-1142.05C4324.69,-1095.38 4157.17,-964.92 4088.42,-911.38"/>
<polygon fill="black" stroke="black" points="4090.2,-908.33 4080.16,-904.95 4085.89,-913.85 4090.2,-908.33"/>
</g>
<!-- u45&#45;&gt;u46 -->
<g id="edge71" class="edge">
<title>u45&#45;&gt;u46</title>
<path fill="none" stroke="black" d="M4366.16,-1142.46C4251.37,-1095.25 3922.45,-959.99 3796.91,-908.36"/>
<polygon fill="black" stroke="black" points="3798.1,-905.07 3787.52,-904.5 3795.43,-911.54 3798.1,-905.07"/>
</g>
</g>
</svg>
