<?xml version="1.0" encoding="UTF-8" standalone="no"?>
<!DOCTYPE svg PUBLIC "-//W3C//DTD SVG 1.1//EN"
 "http://www.w3.org/Graphics/SVG/1.1/DTD/svg11.dtd">
<!-- Generated by graphviz version 2.43.0 (0)
 -->
<!-- Title: G Pages: 1 -->
<svg width="431pt" height="288pt"
 viewBox="0.00 0.00 430.79 288.00" xmlns="http://www.w3.org/2000/svg" xmlns:xlink="http://www.w3.org/1999/xlink">
<g id="graph0" class="graph" transform="scale(2.51 2.51) rotate(0) translate(4 718)">
<title>G</title>
<polygon fill="white" stroke="transparent" points="-4,4 -4,-718 1075.97,-718 1075.97,4 -4,4"/>
<!-- u0 -->
<g id="node1" class="node">
<title>u0</title>
<ellipse fill="#bbffbb" stroke="black" cx="676.64" cy="-255" rx="141.88" ry="18"/>
<text text-anchor="middle" x="676.64" y="-251.3" font-family="Times,serif" font-size="14.00">Data.Drasil.TheoryConcepts</text>
</g>
<!-- u1 -->
<g id="node2" class="node">
<title>u1</title>
<ellipse fill="#ffffbb" stroke="black" cx="540.64" cy="-663" rx="72.29" ry="18"/>
<text text-anchor="middle" x="540.64" y="-659.3" font-family="Times,serif" font-size="14.00">Theory.Drasil</text>
</g>
<!-- u8 -->
<g id="node4" class="node">
<title>u8</title>
<ellipse fill="#bbbbff" stroke="black" cx="143.64" cy="-459" rx="143.77" ry="18"/>
<text text-anchor="middle" x="143.64" y="-455.3" font-family="Times,serif" font-size="14.00">Theory.Drasil.InstanceModel</text>
</g>
<!-- u1&#45;&gt;u8 -->
<g id="edge4" class="edge">
<title>u1&#45;&gt;u8</title>
<path fill="none" stroke="black" d="M510.14,-646.48C439.74,-610.66 265.78,-522.15 185.48,-481.29"/>
<polygon fill="black" stroke="black" points="186.67,-477.97 176.17,-476.55 183.49,-484.21 186.67,-477.97"/>
</g>
<!-- u7 -->
<g id="node5" class="node">
<title>u7</title>
<ellipse fill="#bbbbff" stroke="black" cx="420.64" cy="-459" rx="115.88" ry="18"/>
<text text-anchor="middle" x="420.64" y="-455.3" font-family="Times,serif" font-size="14.00">Theory.Drasil.GenDefn</text>
</g>
<!-- u1&#45;&gt;u7 -->
<g id="edge3" class="edge">
<title>u1&#45;&gt;u7</title>
<path fill="none" stroke="black" d="M530.61,-645.13C509.61,-609.78 460.89,-527.75 435.95,-485.77"/>
<polygon fill="black" stroke="black" points="438.83,-483.78 430.72,-476.97 432.82,-487.35 438.83,-483.78"/>
</g>
<!-- u6 -->
<g id="node6" class="node">
<title>u6</title>
<ellipse fill="#bbbbff" stroke="black" cx="661.64" cy="-459" rx="107.48" ry="18"/>
<text text-anchor="middle" x="661.64" y="-455.3" font-family="Times,serif" font-size="14.00">Theory.Drasil.Theory</text>
</g>
<!-- u1&#45;&gt;u6 -->
<g id="edge2" class="edge">
<title>u1&#45;&gt;u6</title>
<path fill="none" stroke="black" d="M550.75,-645.13C571.92,-609.78 621.05,-527.75 646.2,-485.77"/>
<polygon fill="black" stroke="black" points="649.34,-487.35 651.47,-476.97 643.33,-483.75 649.34,-487.35"/>
</g>
<!-- u5 -->
<g id="node7" class="node">
<title>u5</title>
<ellipse fill="#bbbbff" stroke="black" cx="929.64" cy="-459" rx="142.17" ry="18"/>
<text text-anchor="middle" x="929.64" y="-455.3" font-family="Times,serif" font-size="14.00">Theory.Drasil.DataDefinition</text>
</g>
<!-- u1&#45;&gt;u5 -->
<g id="edge1" class="edge">
<title>u1&#45;&gt;u5</title>
<path fill="none" stroke="black" d="M570.52,-646.48C639.5,-610.66 809.96,-522.15 888.63,-481.29"/>
<polygon fill="black" stroke="black" points="890.5,-484.27 897.76,-476.55 887.27,-478.05 890.5,-484.27"/>
</g>
<!-- u9 -->
<g id="node3" class="node">
<title>u9</title>
<ellipse fill="#bbbbff" stroke="black" cx="246.64" cy="-51" rx="122.38" ry="18"/>
<text text-anchor="middle" x="246.64" y="-47.3" font-family="Times,serif" font-size="14.00">Theory.Drasil.MultiDefn</text>
</g>
<!-- u8&#45;&gt;u0 -->
<g id="edge12" class="edge">
<title>u8&#45;&gt;u0</title>
<path fill="none" stroke="black" d="M186.35,-441.81C283.13,-405.13 518.86,-315.79 624.24,-275.86"/>
<polygon fill="black" stroke="black" points="625.61,-279.08 633.72,-272.27 623.13,-272.54 625.61,-279.08"/>
</g>
<!-- u4 -->
<g id="node8" class="node">
<title>u4</title>
<ellipse fill="#bbbbff" stroke="black" cx="128.64" cy="-255" rx="110.48" ry="18"/>
<text text-anchor="middle" x="128.64" y="-251.3" font-family="Times,serif" font-size="14.00">Theory.Drasil.Classes</text>
</g>
<!-- u8&#45;&gt;u4 -->
<g id="edge14" class="edge">
<title>u8&#45;&gt;u4</title>
<path fill="none" stroke="black" d="M142.36,-440.78C139.75,-405.67 133.8,-325.59 130.66,-283.31"/>
<polygon fill="black" stroke="black" points="134.14,-282.89 129.91,-273.18 127.16,-283.41 134.14,-282.89"/>
</g>
<!-- u3 -->
<g id="node9" class="node">
<title>u3</title>
<ellipse fill="#bbbbff" stroke="black" cx="386.64" cy="-255" rx="129.98" ry="18"/>
<text text-anchor="middle" x="386.64" y="-251.3" font-family="Times,serif" font-size="14.00">Theory.Drasil.ModelKinds</text>
</g>
<!-- u8&#45;&gt;u3 -->
<g id="edge13" class="edge">
<title>u8&#45;&gt;u3</title>
<path fill="none" stroke="black" d="M163.94,-441.13C207.27,-405.11 308.88,-320.64 358.45,-279.43"/>
<polygon fill="black" stroke="black" points="360.77,-282.05 366.22,-272.97 356.3,-276.67 360.77,-282.05"/>
</g>
<!-- u7&#45;&gt;u0 -->
<g id="edge10" class="edge">
<title>u7&#45;&gt;u0</title>
<path fill="none" stroke="black" d="M442.02,-441.13C487.76,-405.03 595.16,-320.29 647.26,-279.18"/>
<polygon fill="black" stroke="black" points="649.45,-281.91 655.13,-272.97 645.11,-276.42 649.45,-281.91"/>
</g>
<!-- u7&#45;&gt;u3 -->
<g id="edge11" class="edge">
<title>u7&#45;&gt;u3</title>
<path fill="none" stroke="black" d="M417.74,-440.78C411.83,-405.67 398.35,-325.59 391.23,-283.31"/>
<polygon fill="black" stroke="black" points="394.64,-282.46 389.53,-273.18 387.74,-283.62 394.64,-282.46"/>
</g>
<!-- u6&#45;&gt;u0 -->
<g id="edge8" class="edge">
<title>u6&#45;&gt;u0</title>
<path fill="none" stroke="black" d="M662.92,-440.78C665.52,-405.67 671.47,-325.59 674.61,-283.31"/>
<polygon fill="black" stroke="black" points="678.11,-283.41 675.36,-273.18 671.13,-282.89 678.11,-283.41"/>
</g>
<!-- u6&#45;&gt;u3 -->
<g id="edge9" class="edge">
<title>u6&#45;&gt;u3</title>
<path fill="none" stroke="black" d="M638.66,-441.13C589.43,-404.96 473.68,-319.94 417.85,-278.92"/>
<polygon fill="black" stroke="black" points="419.87,-276.07 409.74,-272.97 415.73,-281.71 419.87,-276.07"/>
</g>
<!-- u5&#45;&gt;u0 -->
<g id="edge7" class="edge">
<title>u5&#45;&gt;u0</title>
<path fill="none" stroke="black" d="M908.5,-441.13C863.39,-405.11 757.59,-320.64 705.99,-279.43"/>
<polygon fill="black" stroke="black" points="707.89,-276.47 697.89,-272.97 703.52,-281.94 707.89,-276.47"/>
</g>
<!-- u3&#45;&gt;u9 -->
<g id="edge6" class="edge">
<title>u3&#45;&gt;u9</title>
<path fill="none" stroke="black" d="M374.7,-236.78C350.01,-201.15 293.21,-119.19 264.27,-77.45"/>
<polygon fill="black" stroke="black" points="267.12,-75.4 258.54,-69.18 261.36,-79.39 267.12,-75.4"/>
</g>
<!-- u2 -->
<g id="node10" class="node">
<title>u2</title>
<ellipse fill="#bbbbff" stroke="black" cx="526.64" cy="-51" rx="139.98" ry="18"/>
<text text-anchor="middle" x="526.64" y="-47.3" font-family="Times,serif" font-size="14.00">Theory.Drasil.ConstraintSet</text>
</g>
<!-- u3&#45;&gt;u2 -->
<g id="edge5" class="edge">
<title>u3&#45;&gt;u2</title>
<path fill="none" stroke="black" d="M398.57,-236.78C423.27,-201.15 480.07,-119.19 509,-77.45"/>
<polygon fill="black" stroke="black" points="511.91,-79.39 514.73,-69.18 506.16,-75.4 511.91,-79.39"/>
</g>
</g>
</svg>
