<?xml version="1.0" encoding="UTF-8" standalone="no"?>
<!DOCTYPE svg PUBLIC "-//W3C//DTD SVG 1.1//EN"
 "http://www.w3.org/Graphics/SVG/1.1/DTD/svg11.dtd">
<!-- Generated by graphviz version 2.43.0 (0)
 -->
<!-- Title: G Pages: 1 -->
<svg width="432pt" height="288pt"
 viewBox="0.00 0.00 431.67 288.00" xmlns="http://www.w3.org/2000/svg" xmlns:xlink="http://www.w3.org/1999/xlink">
<g id="graph0" class="graph" transform="scale(0.09 0.09) rotate(0) translate(4 3034.67)">
<title>G</title>
<polygon fill="white" stroke="transparent" points="-4,4 -4,-3034.67 4550.57,-3034.67 4550.57,4 -4,4"/>
<!-- u29 -->
<g id="node1" class="node">
<title>u29</title>
<ellipse fill="#bbffbb" stroke="black" cx="3088.94" cy="-1872" rx="116.18" ry="18"/>
<text text-anchor="middle" x="3088.94" y="-1868.3" font-family="Times,serif" font-size="14.00">Drasil.ExtractDocDesc</text>
</g>
<!-- u15 -->
<g id="node15" class="node">
<title>u15</title>
<ellipse fill="#bbbbff" stroke="black" cx="3271.94" cy="-1159" rx="159.47" ry="18"/>
<text text-anchor="middle" x="3271.94" y="-1155.3" font-family="Times,serif" font-size="14.00">Drasil.DocumentLanguage.Core</text>
</g>
<!-- u29&#45;&gt;u15 -->
<g id="edge58" class="edge">
<title>u29&#45;&gt;u15</title>
<path fill="none" stroke="black" d="M3155.92,-1857.22C3287.89,-1826.05 3579.09,-1736.42 3698.94,-1533 3800.19,-1361.15 3473.61,-1227.65 3333.06,-1179.46"/>
<polygon fill="black" stroke="black" points="3333.87,-1176.04 3323.27,-1176.14 3331.62,-1182.67 3333.87,-1176.04"/>
</g>
<!-- u5 -->
<g id="node27" class="node">
<title>u5</title>
<ellipse fill="#bbffff" stroke="black" cx="2394.94" cy="-1515" rx="207.96" ry="18"/>
<text text-anchor="middle" x="2394.94" y="-1511.3" font-family="Times,serif" font-size="14.00">Drasil.Sections.SpecificSystemDescription</text>
</g>
<!-- u29&#45;&gt;u5 -->
<g id="edge57" class="edge">
<title>u29&#45;&gt;u5</title>
<path fill="none" stroke="black" d="M3056.86,-1854.59C2943.86,-1796.79 2564.26,-1602.61 2436.96,-1537.49"/>
<polygon fill="black" stroke="black" points="2438.38,-1534.29 2427.88,-1532.85 2435.19,-1540.52 2438.38,-1534.29"/>
</g>
<!-- u28 -->
<g id="node2" class="node">
<title>u28</title>
<ellipse fill="#bbffbb" stroke="black" cx="3096.94" cy="-89" rx="92.88" ry="18"/>
<text text-anchor="middle" x="3096.94" y="-85.3" font-family="Times,serif" font-size="14.00">Drasil.GetChunks</text>
</g>
<!-- u27 -->
<g id="node3" class="node">
<title>u27</title>
<ellipse fill="#bbffbb" stroke="black" cx="2883.94" cy="-2942" rx="108.58" ry="18"/>
<text text-anchor="middle" x="2883.94" y="-2938.3" font-family="Times,serif" font-size="14.00">Drasil.SRSDocument</text>
</g>
<!-- u26 -->
<g id="node4" class="node">
<title>u26</title>
<ellipse fill="#bbffbb" stroke="black" cx="2883.94" cy="-2585" rx="81.79" ry="18"/>
<text text-anchor="middle" x="2883.94" y="-2581.3" font-family="Times,serif" font-size="14.00">Drasil.DocLang</text>
</g>
<!-- u27&#45;&gt;u26 -->
<g id="edge56" class="edge">
<title>u27&#45;&gt;u26</title>
<path fill="none" stroke="black" d="M2883.94,-2923.88C2883.94,-2866.95 2883.94,-2683.69 2883.94,-2613.61"/>
<polygon fill="black" stroke="black" points="2887.44,-2613.37 2883.94,-2603.37 2880.44,-2613.37 2887.44,-2613.37"/>
</g>
<!-- u14 -->
<g id="node5" class="node">
<title>u14</title>
<ellipse fill="#bbffbb" stroke="black" cx="2369.94" cy="-2228" rx="133.78" ry="18"/>
<text text-anchor="middle" x="2369.94" y="-2224.3" font-family="Times,serif" font-size="14.00">Drasil.DocumentLanguage</text>
</g>
<!-- u26&#45;&gt;u14 -->
<g id="edge54" class="edge">
<title>u26&#45;&gt;u14</title>
<path fill="none" stroke="black" d="M2860.18,-2567.59C2776.99,-2510.13 2498.71,-2317.94 2402.78,-2251.68"/>
<polygon fill="black" stroke="black" points="2404.55,-2248.66 2394.34,-2245.85 2400.58,-2254.42 2404.55,-2248.66"/>
</g>
<!-- u22 -->
<g id="node16" class="node">
<title>u22</title>
<ellipse fill="#ffbbbb" stroke="black" cx="3876.94" cy="-2228" rx="276.75" ry="18"/>
<text text-anchor="middle" x="3876.94" y="-2224.3" font-family="Times,serif" font-size="14.00">Drasil.DocumentLanguage.Notebook.DocumentLanguage</text>
</g>
<!-- u26&#45;&gt;u22 -->
<g id="edge55" class="edge">
<title>u26&#45;&gt;u22</title>
<path fill="none" stroke="black" d="M2925.03,-2569.31C3081.45,-2513.39 3640.01,-2313.7 3820.35,-2249.23"/>
<polygon fill="black" stroke="black" points="3821.68,-2252.47 3829.92,-2245.81 3819.32,-2245.88 3821.68,-2252.47"/>
</g>
<!-- u14&#45;&gt;u29 -->
<g id="edge35" class="edge">
<title>u14&#45;&gt;u29</title>
<path fill="none" stroke="black" d="M2403.65,-2210.4C2521.61,-2152.32 2915.69,-1958.3 3046.4,-1893.94"/>
<polygon fill="black" stroke="black" points="3048.28,-1896.92 3055.71,-1889.36 3045.19,-1890.64 3048.28,-1896.92"/>
</g>
<!-- u1 -->
<g id="node6" class="node">
<title>u1</title>
<ellipse fill="#bbffbb" stroke="black" cx="3497.94" cy="-1872" rx="92.08" ry="18"/>
<text text-anchor="middle" x="3497.94" y="-1868.3" font-family="Times,serif" font-size="14.00">Drasil.TraceTable</text>
</g>
<!-- u14&#45;&gt;u1 -->
<g id="edge28" class="edge">
<title>u14&#45;&gt;u1</title>
<path fill="none" stroke="black" d="M2420.23,-2211.22C2605.23,-2153.16 3247.34,-1951.65 3441.74,-1890.64"/>
<polygon fill="black" stroke="black" points="3442.97,-1893.92 3451.46,-1887.58 3440.88,-1887.24 3442.97,-1893.92"/>
</g>
<!-- u0 -->
<g id="node7" class="node">
<title>u0</title>
<ellipse fill="#bbffbb" stroke="black" cx="2874.94" cy="-1872" rx="79.09" ry="18"/>
<text text-anchor="middle" x="2874.94" y="-1868.3" font-family="Times,serif" font-size="14.00">Drasil.DocDecl</text>
</g>
<!-- u14&#45;&gt;u0 -->
<g id="edge27" class="edge">
<title>u14&#45;&gt;u0</title>
<path fill="none" stroke="black" d="M2393.95,-2210.16C2476.73,-2152.14 2750.19,-1960.44 2843.45,-1895.07"/>
<polygon fill="black" stroke="black" points="2845.47,-1897.93 2851.65,-1889.32 2841.45,-1892.2 2845.47,-1897.93"/>
</g>
<!-- u25 -->
<g id="node8" class="node">
<title>u25</title>
<ellipse fill="#ffffbb" stroke="black" cx="2181.94" cy="-1872" rx="136.48" ry="18"/>
<text text-anchor="middle" x="2181.94" y="-1868.3" font-family="Times,serif" font-size="14.00">Drasil.DocLang.References</text>
</g>
<!-- u14&#45;&gt;u25 -->
<g id="edge34" class="edge">
<title>u14&#45;&gt;u25</title>
<path fill="none" stroke="black" d="M2360.87,-2209.93C2330.54,-2152.81 2232.47,-1968.15 2195.88,-1899.25"/>
<polygon fill="black" stroke="black" points="2198.92,-1897.51 2191.13,-1890.32 2192.73,-1900.79 2198.92,-1897.51"/>
</g>
<!-- u16 -->
<g id="node14" class="node">
<title>u16</title>
<ellipse fill="#bbbbff" stroke="black" cx="2556.94" cy="-1872" rx="220.96" ry="18"/>
<text text-anchor="middle" x="2556.94" y="-1868.3" font-family="Times,serif" font-size="14.00">Drasil.DocumentLanguage.TraceabilityGraph</text>
</g>
<!-- u14&#45;&gt;u16 -->
<g id="edge33" class="edge">
<title>u14&#45;&gt;u16</title>
<path fill="none" stroke="black" d="M2378.96,-2209.93C2409.13,-2152.81 2506.67,-1968.15 2543.07,-1899.25"/>
<polygon fill="black" stroke="black" points="2546.21,-1900.79 2547.79,-1890.32 2540.02,-1897.52 2546.21,-1900.79"/>
</g>
<!-- u13 -->
<g id="node19" class="node">
<title>u13</title>
<ellipse fill="#bbffff" stroke="black" cx="1232.94" cy="-1515" rx="161.37" ry="18"/>
<text text-anchor="middle" x="1232.94" y="-1511.3" font-family="Times,serif" font-size="14.00">Drasil.Sections.TableOfContents</text>
</g>
<!-- u14&#45;&gt;u13 -->
<g id="edge32" class="edge">
<title>u14&#45;&gt;u13</title>
<path fill="none" stroke="black" d="M2343.23,-2210.3C2191.74,-2115.57 1441.16,-1646.21 1268.43,-1538.19"/>
<polygon fill="black" stroke="black" points="1270.28,-1535.23 1259.95,-1532.89 1266.57,-1541.16 1270.28,-1535.23"/>
</g>
<!-- u11 -->
<g id="node21" class="node">
<title>u11</title>
<ellipse fill="#bbffff" stroke="black" cx="890.94" cy="-1515" rx="163.27" ry="18"/>
<text text-anchor="middle" x="890.94" y="-1511.3" font-family="Times,serif" font-size="14.00">Drasil.Sections.GeneralSystDesc</text>
</g>
<!-- u14&#45;&gt;u11 -->
<g id="edge31" class="edge">
<title>u14&#45;&gt;u11</title>
<path fill="none" stroke="black" d="M2335.56,-2210.47C2138.65,-2115.81 1155.08,-1642.98 934.77,-1537.07"/>
<polygon fill="black" stroke="black" points="935.98,-1533.77 925.46,-1532.59 932.95,-1540.08 935.98,-1533.77"/>
</g>
<!-- u9 -->
<g id="node23" class="node">
<title>u9</title>
<ellipse fill="#bbffff" stroke="black" cx="567.94" cy="-1515" rx="141.88" ry="18"/>
<text text-anchor="middle" x="567.94" y="-1511.3" font-family="Times,serif" font-size="14.00">Drasil.Sections.Introduction</text>
</g>
<!-- u14&#45;&gt;u9 -->
<g id="edge30" class="edge">
<title>u14&#45;&gt;u9</title>
<path fill="none" stroke="black" d="M2328.91,-2210.81C2090.22,-2116.64 881.85,-1639.86 618.61,-1535.99"/>
<polygon fill="black" stroke="black" points="619.88,-1532.73 609.29,-1532.32 617.31,-1539.24 619.88,-1532.73"/>
</g>
<!-- u7 -->
<g id="node25" class="node">
<title>u7</title>
<ellipse fill="#bbffff" stroke="black" cx="144.94" cy="-1872" rx="144.87" ry="18"/>
<text text-anchor="middle" x="144.94" y="-1868.3" font-family="Times,serif" font-size="14.00">Drasil.Sections.Stakeholders</text>
</g>
<!-- u14&#45;&gt;u7 -->
<g id="edge29" class="edge">
<title>u14&#45;&gt;u7</title>
<path fill="none" stroke="black" d="M2287.11,-2213.82C1940.81,-2158.73 609.8,-1946.96 240.47,-1888.2"/>
<polygon fill="black" stroke="black" points="240.78,-1884.7 230.35,-1886.59 239.68,-1891.62 240.78,-1884.7"/>
</g>
<!-- u1&#45;&gt;u15 -->
<g id="edge3" class="edge">
<title>u1&#45;&gt;u15</title>
<path fill="none" stroke="black" d="M3521.6,-1854.33C3591.9,-1802.68 3790.26,-1640.1 3718.94,-1497 3635.13,-1328.85 3423,-1222.49 3324.14,-1180.48"/>
<polygon fill="black" stroke="black" points="3325.23,-1177.14 3314.65,-1176.5 3322.52,-1183.59 3325.23,-1177.14"/>
</g>
<!-- u0&#45;&gt;u15 -->
<g id="edge2" class="edge">
<title>u0&#45;&gt;u15</title>
<path fill="none" stroke="black" d="M2923.3,-1857.72C3080.71,-1813.43 3573.32,-1666.05 3660.94,-1533 3765.99,-1373.48 3456.14,-1231.18 3326.29,-1180.08"/>
<polygon fill="black" stroke="black" points="3327.48,-1176.79 3316.89,-1176.42 3324.94,-1183.31 3327.48,-1176.79"/>
</g>
<!-- u10 -->
<g id="node22" class="node">
<title>u10</title>
<ellipse fill="#bbffff" stroke="black" cx="1598.94" cy="-1515" rx="149.47" ry="18"/>
<text text-anchor="middle" x="1598.94" y="-1511.3" font-family="Times,serif" font-size="14.00">Drasil.Sections.Requirements</text>
</g>
<!-- u0&#45;&gt;u10 -->
<g id="edge1" class="edge">
<title>u0&#45;&gt;u10</title>
<path fill="none" stroke="black" d="M2826.86,-1857.62C2630.77,-1803.07 1891.15,-1597.3 1665.02,-1534.39"/>
<polygon fill="black" stroke="black" points="1665.86,-1530.98 1655.28,-1531.68 1663.98,-1537.73 1665.86,-1530.98"/>
</g>
<!-- u25&#45;&gt;u10 -->
<g id="edge53" class="edge">
<title>u25&#45;&gt;u10</title>
<path fill="none" stroke="black" d="M2154.6,-1854.35C2059.46,-1796.42 1742.79,-1603.6 1635.13,-1538.04"/>
<polygon fill="black" stroke="black" points="1636.92,-1535.03 1626.55,-1532.82 1633.27,-1541.01 1636.92,-1535.03"/>
</g>
<!-- u8 -->
<g id="node24" class="node">
<title>u8</title>
<ellipse fill="#bbffff" stroke="black" cx="2779.94" cy="-1515" rx="159.47" ry="18"/>
<text text-anchor="middle" x="2779.94" y="-1511.3" font-family="Times,serif" font-size="14.00">Drasil.Sections.TableOfSymbols</text>
</g>
<!-- u25&#45;&gt;u8 -->
<g id="edge52" class="edge">
<title>u25&#45;&gt;u8</title>
<path fill="none" stroke="black" d="M2209.98,-1854.35C2307.57,-1796.42 2632.38,-1603.6 2742.81,-1538.04"/>
<polygon fill="black" stroke="black" points="2744.8,-1540.93 2751.61,-1532.82 2741.22,-1534.91 2744.8,-1540.93"/>
</g>
<!-- u6 -->
<g id="node26" class="node">
<title>u6</title>
<ellipse fill="#bbffff" stroke="black" cx="3441.94" cy="-1515" rx="177.37" ry="18"/>
<text text-anchor="middle" x="3441.94" y="-1511.3" font-family="Times,serif" font-size="14.00">Drasil.Sections.TraceabilityMandGs</text>
</g>
<!-- u25&#45;&gt;u6 -->
<g id="edge51" class="edge">
<title>u25&#45;&gt;u6</title>
<path fill="none" stroke="black" d="M2236.89,-1855.52C2440.63,-1798.12 3152.55,-1597.53 3375,-1534.86"/>
<polygon fill="black" stroke="black" points="3376.23,-1538.15 3384.9,-1532.07 3374.33,-1531.41 3376.23,-1538.15"/>
</g>
<!-- u25&#45;&gt;u5 -->
<g id="edge50" class="edge">
<title>u25&#45;&gt;u5</title>
<path fill="none" stroke="black" d="M2192.21,-1853.88C2226.58,-1796.6 2337.69,-1611.42 2379.14,-1542.32"/>
<polygon fill="black" stroke="black" points="2382.37,-1543.74 2384.52,-1533.37 2376.37,-1540.14 2382.37,-1543.74"/>
</g>
<!-- u4 -->
<g id="node28" class="node">
<title>u4</title>
<ellipse fill="#bbffff" stroke="black" cx="3101.94" cy="-1515" rx="144.87" ry="18"/>
<text text-anchor="middle" x="3101.94" y="-1511.3" font-family="Times,serif" font-size="14.00">Drasil.Sections.TableOfUnits</text>
</g>
<!-- u25&#45;&gt;u4 -->
<g id="edge49" class="edge">
<title>u25&#45;&gt;u4</title>
<path fill="none" stroke="black" d="M2223.86,-1854.82C2374.13,-1796.84 2885.58,-1599.48 3050.34,-1535.91"/>
<polygon fill="black" stroke="black" points="3051.7,-1539.14 3059.77,-1532.27 3049.18,-1532.61 3051.7,-1539.14"/>
</g>
<!-- u3 -->
<g id="node29" class="node">
<title>u3</title>
<ellipse fill="#bbffff" stroke="black" cx="1967.94" cy="-1515" rx="201.46" ry="18"/>
<text text-anchor="middle" x="1967.94" y="-1511.3" font-family="Times,serif" font-size="14.00">Drasil.Sections.TableOfAbbAndAcronyms</text>
</g>
<!-- u25&#45;&gt;u3 -->
<g id="edge48" class="edge">
<title>u25&#45;&gt;u3</title>
<path fill="none" stroke="black" d="M2171.62,-1853.88C2137.09,-1796.6 2025.46,-1611.42 1983.8,-1542.32"/>
<polygon fill="black" stroke="black" points="1986.57,-1540.12 1978.41,-1533.37 1980.57,-1543.74 1986.57,-1540.12"/>
</g>
<!-- u2 -->
<g id="node30" class="node">
<title>u2</title>
<ellipse fill="#bbffff" stroke="black" cx="235.94" cy="-1515" rx="172.47" ry="18"/>
<text text-anchor="middle" x="235.94" y="-1511.3" font-family="Times,serif" font-size="14.00">Drasil.Sections.AuxiliaryConstants</text>
</g>
<!-- u25&#45;&gt;u2 -->
<g id="edge47" class="edge">
<title>u25&#45;&gt;u2</title>
<path fill="none" stroke="black" d="M2105.35,-1857.03C1798.7,-1801.09 660.02,-1593.36 327.6,-1532.72"/>
<polygon fill="black" stroke="black" points="328,-1529.24 317.53,-1530.88 326.74,-1536.12 328,-1529.24"/>
</g>
<!-- u24 -->
<g id="node9" class="node">
<title>u24</title>
<ellipse fill="#ffffbb" stroke="black" cx="1099.94" cy="-1159" rx="104.78" ry="18"/>
<text text-anchor="middle" x="1099.94" y="-1155.3" font-family="Times,serif" font-size="14.00">Drasil.DocLang.SRS</text>
</g>
<!-- u23 -->
<g id="node10" class="node">
<title>u23</title>
<ellipse fill="#ffffbb" stroke="black" cx="3955.94" cy="-1872" rx="129.18" ry="18"/>
<text text-anchor="middle" x="3955.94" y="-1868.3" font-family="Times,serif" font-size="14.00">Drasil.DocLang.Notebook</text>
</g>
<!-- u19 -->
<g id="node11" class="node">
<title>u19</title>
<ellipse fill="#bbbbff" stroke="black" cx="2394.94" cy="-446" rx="187.37" ry="18"/>
<text text-anchor="middle" x="2394.94" y="-442.3" font-family="Times,serif" font-size="14.00">Drasil.DocumentLanguage.Definitions</text>
</g>
<!-- u19&#45;&gt;u28 -->
<g id="edge42" class="edge">
<title>u19&#45;&gt;u28</title>
<path fill="none" stroke="black" d="M2428.32,-428.12C2544.36,-369.44 2929.9,-174.47 3056.37,-110.52"/>
<polygon fill="black" stroke="black" points="3058.02,-113.6 3065.37,-105.96 3054.86,-107.35 3058.02,-113.6"/>
</g>
<!-- u17 -->
<g id="node13" class="node">
<title>u17</title>
<ellipse fill="#bbbbff" stroke="black" cx="1598.94" cy="-89" rx="162.47" ry="18"/>
<text text-anchor="middle" x="1598.94" y="-85.3" font-family="Times,serif" font-size="14.00">Drasil.DocumentLanguage.Units</text>
</g>
<!-- u19&#45;&gt;u17 -->
<g id="edge41" class="edge">
<title>u19&#45;&gt;u17</title>
<path fill="none" stroke="black" d="M2357.61,-428.35C2226.91,-370.06 1790,-175.21 1645.66,-110.84"/>
<polygon fill="black" stroke="black" points="1646.74,-107.49 1636.18,-106.61 1643.89,-113.88 1646.74,-107.49"/>
</g>
<!-- u18 -->
<g id="node12" class="node">
<title>u18</title>
<ellipse fill="#bbbbff" stroke="black" cx="2873.94" cy="-802" rx="223.66" ry="18"/>
<text text-anchor="middle" x="2873.94" y="-798.3" font-family="Times,serif" font-size="14.00">Drasil.DocumentLanguage.TraceabilityMatrix</text>
</g>
<!-- u18&#45;&gt;u19 -->
<g id="edge40" class="edge">
<title>u18&#45;&gt;u19</title>
<path fill="none" stroke="black" d="M2850.83,-783.93C2772.26,-725.86 2515.31,-535.96 2425.92,-469.9"/>
<polygon fill="black" stroke="black" points="2427.93,-467.03 2417.81,-463.9 2423.77,-472.66 2427.93,-467.03"/>
</g>
<!-- u16&#45;&gt;u24 -->
<g id="edge39" class="edge">
<title>u16&#45;&gt;u24</title>
<path fill="none" stroke="black" d="M2441.32,-1856.61C2228.9,-1825.92 1768.31,-1739.22 1440.94,-1533 1420.98,-1520.43 1193.79,-1265.62 1121.73,-1184.54"/>
<polygon fill="black" stroke="black" points="1124.12,-1181.97 1114.87,-1176.82 1118.89,-1186.62 1124.12,-1181.97"/>
</g>
<!-- u12 -->
<g id="node20" class="node">
<title>u12</title>
<ellipse fill="#bbffff" stroke="black" cx="1967.94" cy="-1159" rx="170.07" ry="18"/>
<text text-anchor="middle" x="1967.94" y="-1155.3" font-family="Times,serif" font-size="14.00">Drasil.Sections.ReferenceMaterial</text>
</g>
<!-- u16&#45;&gt;u12 -->
<g id="edge38" class="edge">
<title>u16&#45;&gt;u12</title>
<path fill="none" stroke="black" d="M2653.7,-1855.81C2940.81,-1808.69 3759.9,-1658.45 3627.94,-1497 3439.42,-1266.36 2509.67,-1189.71 2129.93,-1167.77"/>
<polygon fill="black" stroke="black" points="2129.87,-1164.26 2119.69,-1167.18 2129.47,-1171.25 2129.87,-1164.26"/>
</g>
<!-- u16&#45;&gt;u6 -->
<g id="edge37" class="edge">
<title>u16&#45;&gt;u6</title>
<path fill="none" stroke="black" d="M2598.73,-1854.24C2744.72,-1795.68 3231.68,-1600.34 3391,-1536.43"/>
<polygon fill="black" stroke="black" points="3392.59,-1539.56 3400.57,-1532.59 3389.99,-1533.07 3392.59,-1539.56"/>
</g>
<!-- u15&#45;&gt;u18 -->
<g id="edge36" class="edge">
<title>u15&#45;&gt;u18</title>
<path fill="none" stroke="black" d="M3253.01,-1141.12C3188.32,-1083.42 2975.89,-893.94 2900.65,-826.82"/>
<polygon fill="black" stroke="black" points="2902.77,-824.03 2892.98,-819.99 2898.11,-829.26 2902.77,-824.03"/>
</g>
<!-- u22&#45;&gt;u28 -->
<g id="edge46" class="edge">
<title>u22&#45;&gt;u28</title>
<path fill="none" stroke="black" d="M3873.18,-2209.92C3862.5,-2160.61 3831.85,-2013.66 3817.94,-1890 3799.33,-1724.61 3798.94,-1682.44 3798.94,-1516 3798.94,-1516 3798.94,-1516 3798.94,-801 3798.94,-427.2 3301.54,-178.92 3144.11,-109.7"/>
<polygon fill="black" stroke="black" points="3145.25,-106.37 3134.68,-105.59 3142.45,-112.79 3145.25,-106.37"/>
</g>
<!-- u22&#45;&gt;u23 -->
<g id="edge45" class="edge">
<title>u22&#45;&gt;u23</title>
<path fill="none" stroke="black" d="M3880.75,-2209.93C3893.44,-2153.04 3934.37,-1969.66 3949.89,-1900.1"/>
<polygon fill="black" stroke="black" points="3953.31,-1900.84 3952.07,-1890.32 3946.48,-1899.32 3953.31,-1900.84"/>
</g>
<!-- u21 -->
<g id="node17" class="node">
<title>u21</title>
<ellipse fill="#ffbbbb" stroke="black" cx="4324.94" cy="-1872" rx="221.76" ry="18"/>
<text text-anchor="middle" x="4324.94" y="-1868.3" font-family="Times,serif" font-size="14.00">Drasil.DocumentLanguage.Notebook.LsnDecl</text>
</g>
<!-- u22&#45;&gt;u21 -->
<g id="edge44" class="edge">
<title>u22&#45;&gt;u21</title>
<path fill="none" stroke="black" d="M3898.55,-2209.93C3971.87,-2151.98 4211.31,-1962.78 4295.41,-1896.33"/>
<polygon fill="black" stroke="black" points="4297.61,-1899.06 4303.28,-1890.11 4293.27,-1893.56 4297.61,-1899.06"/>
</g>
<!-- u20 -->
<g id="node18" class="node">
<title>u20</title>
<ellipse fill="#ffbbbb" stroke="black" cx="4324.94" cy="-1515" rx="206.06" ry="18"/>
<text text-anchor="middle" x="4324.94" y="-1511.3" font-family="Times,serif" font-size="14.00">Drasil.DocumentLanguage.Notebook.Core</text>
</g>
<!-- u21&#45;&gt;u20 -->
<g id="edge43" class="edge">
<title>u21&#45;&gt;u20</title>
<path fill="none" stroke="black" d="M4324.94,-1853.88C4324.94,-1796.95 4324.94,-1613.69 4324.94,-1543.61"/>
<polygon fill="black" stroke="black" points="4328.44,-1543.37 4324.94,-1533.37 4321.44,-1543.37 4328.44,-1543.37"/>
</g>
<!-- u13&#45;&gt;u24 -->
<g id="edge26" class="edge">
<title>u13&#45;&gt;u24</title>
<path fill="none" stroke="black" d="M1226.52,-1496.93C1205.15,-1440.04 1136.25,-1256.66 1110.12,-1187.1"/>
<polygon fill="black" stroke="black" points="1113.24,-1185.45 1106.44,-1177.32 1106.68,-1187.91 1113.24,-1185.45"/>
</g>
<!-- u13&#45;&gt;u15 -->
<g id="edge25" class="edge">
<title>u13&#45;&gt;u15</title>
<path fill="none" stroke="black" d="M1316.03,-1499.57C1642.52,-1442.89 2836.23,-1235.65 3179.21,-1176.1"/>
<polygon fill="black" stroke="black" points="3179.85,-1179.54 3189.1,-1174.38 3178.65,-1172.64 3179.85,-1179.54"/>
</g>
<!-- u11&#45;&gt;u24 -->
<g id="edge24" class="edge">
<title>u11&#45;&gt;u24</title>
<path fill="none" stroke="black" d="M901.02,-1496.93C934.74,-1439.81 1043.76,-1255.15 1084.44,-1186.25"/>
<polygon fill="black" stroke="black" points="1087.64,-1187.71 1089.71,-1177.32 1081.61,-1184.15 1087.64,-1187.71"/>
</g>
<!-- u11&#45;&gt;u12 -->
<g id="edge23" class="edge">
<title>u11&#45;&gt;u12</title>
<path fill="none" stroke="black" d="M940.37,-1497.75C1117.09,-1439.67 1717.22,-1242.41 1908.7,-1179.47"/>
<polygon fill="black" stroke="black" points="1909.91,-1182.76 1918.32,-1176.31 1907.72,-1176.11 1909.91,-1182.76"/>
</g>
<!-- u10&#45;&gt;u24 -->
<g id="edge22" class="edge">
<title>u10&#45;&gt;u24</title>
<path fill="none" stroke="black" d="M1575.21,-1497.16C1493.6,-1439.27 1224.44,-1248.32 1131.68,-1182.52"/>
<polygon fill="black" stroke="black" points="1133.71,-1179.66 1123.52,-1176.73 1129.65,-1185.37 1133.71,-1179.66"/>
</g>
<!-- u10&#45;&gt;u17 -->
<g id="edge21" class="edge">
<title>u10&#45;&gt;u17</title>
<path fill="none" stroke="black" d="M1598.94,-1496.76C1598.94,-1349.28 1598.94,-300.66 1598.94,-117.32"/>
<polygon fill="black" stroke="black" points="1602.44,-117.18 1598.94,-107.18 1595.44,-117.18 1602.44,-117.18"/>
</g>
<!-- u10&#45;&gt;u12 -->
<g id="edge20" class="edge">
<title>u10&#45;&gt;u12</title>
<path fill="none" stroke="black" d="M1616.73,-1496.93C1676.76,-1439.34 1871.91,-1252.12 1942.32,-1184.58"/>
<polygon fill="black" stroke="black" points="1945.09,-1186.77 1949.89,-1177.32 1940.25,-1181.71 1945.09,-1186.77"/>
</g>
<!-- u9&#45;&gt;u24 -->
<g id="edge19" class="edge">
<title>u9&#45;&gt;u24</title>
<path fill="none" stroke="black" d="M593.24,-1497.16C680.43,-1439.14 968.44,-1247.5 1066.73,-1182.1"/>
<polygon fill="black" stroke="black" points="1068.71,-1184.98 1075.1,-1176.53 1064.83,-1179.15 1068.71,-1184.98"/>
</g>
<!-- u9&#45;&gt;u19 -->
<g id="edge18" class="edge">
<title>u9&#45;&gt;u19</title>
<path fill="none" stroke="black" d="M583.69,-1496.96C636.39,-1440.68 812.94,-1257.61 985.94,-1141 1476.82,-810.11 2148.45,-541.33 2341.23,-467.28"/>
<polygon fill="black" stroke="black" points="2342.76,-470.44 2350.85,-463.6 2340.25,-463.91 2342.76,-470.44"/>
</g>
<!-- u9&#45;&gt;u12 -->
<g id="edge17" class="edge">
<title>u9&#45;&gt;u12</title>
<path fill="none" stroke="black" d="M628.54,-1498.68C854.89,-1441.44 1650.24,-1240.33 1895.42,-1178.34"/>
<polygon fill="black" stroke="black" points="1896.46,-1181.68 1905.3,-1175.84 1894.75,-1174.9 1896.46,-1181.68"/>
</g>
<!-- u8&#45;&gt;u15 -->
<g id="edge16" class="edge">
<title>u8&#45;&gt;u15</title>
<path fill="none" stroke="black" d="M2803.34,-1497.16C2883.63,-1439.39 3148.04,-1249.15 3240.04,-1182.95"/>
<polygon fill="black" stroke="black" points="3242.32,-1185.62 3248.39,-1176.94 3238.23,-1179.94 3242.32,-1185.62"/>
</g>
<!-- u8&#45;&gt;u12 -->
<g id="edge15" class="edge">
<title>u8&#45;&gt;u12</title>
<path fill="none" stroke="black" d="M2741.86,-1497.4C2608.4,-1439.22 2161.95,-1244.58 2015.16,-1180.59"/>
<polygon fill="black" stroke="black" points="2016.5,-1177.35 2005.93,-1176.56 2013.7,-1183.77 2016.5,-1177.35"/>
</g>
<!-- u7&#45;&gt;u24 -->
<g id="edge14" class="edge">
<title>u7&#45;&gt;u24</title>
<path fill="none" stroke="black" d="M131.96,-1853.83C90.78,-1797.12 -29.39,-1612.8 54.94,-1497 171.95,-1336.32 791.8,-1213.79 1017.59,-1173.88"/>
<polygon fill="black" stroke="black" points="1018.47,-1177.28 1027.71,-1172.1 1017.26,-1170.39 1018.47,-1177.28"/>
</g>
<!-- u6&#45;&gt;u15 -->
<g id="edge13" class="edge">
<title>u6&#45;&gt;u15</title>
<path fill="none" stroke="black" d="M3433.74,-1496.93C3406.37,-1439.93 3317.99,-1255.91 3284.75,-1186.67"/>
<polygon fill="black" stroke="black" points="3287.74,-1184.82 3280.25,-1177.32 3281.43,-1187.85 3287.74,-1184.82"/>
</g>
<!-- u5&#45;&gt;u24 -->
<g id="edge12" class="edge">
<title>u5&#45;&gt;u24</title>
<path fill="none" stroke="black" d="M2335.07,-1497.64C2119.52,-1438.71 1384.07,-1237.67 1163.18,-1177.29"/>
<polygon fill="black" stroke="black" points="1163.93,-1173.86 1153.36,-1174.6 1162.08,-1180.62 1163.93,-1173.86"/>
</g>
<!-- u5&#45;&gt;u19 -->
<g id="edge11" class="edge">
<title>u5&#45;&gt;u19</title>
<path fill="none" stroke="black" d="M2394.94,-1496.81C2394.94,-1373.77 2394.94,-627.58 2394.94,-474.45"/>
<polygon fill="black" stroke="black" points="2398.44,-474.09 2394.94,-464.09 2391.44,-474.09 2398.44,-474.09"/>
</g>
<!-- u5&#45;&gt;u12 -->
<g id="edge10" class="edge">
<title>u5&#45;&gt;u12</title>
<path fill="none" stroke="black" d="M2374.34,-1496.93C2304.44,-1438.98 2076.17,-1249.73 1996.04,-1183.3"/>
<polygon fill="black" stroke="black" points="1998.26,-1180.59 1988.33,-1176.9 1993.79,-1185.98 1998.26,-1180.59"/>
</g>
<!-- u4&#45;&gt;u15 -->
<g id="edge9" class="edge">
<title>u4&#45;&gt;u15</title>
<path fill="none" stroke="black" d="M3110.14,-1496.93C3137.51,-1439.93 3225.88,-1255.91 3259.13,-1186.67"/>
<polygon fill="black" stroke="black" points="3262.45,-1187.85 3263.62,-1177.32 3256.14,-1184.82 3262.45,-1187.85"/>
</g>
<!-- u4&#45;&gt;u12 -->
<g id="edge8" class="edge">
<title>u4&#45;&gt;u12</title>
<path fill="none" stroke="black" d="M3051.01,-1498.1C2866.12,-1440.38 2230.66,-1242.01 2029.51,-1179.22"/>
<polygon fill="black" stroke="black" points="2030.29,-1175.8 2019.7,-1176.16 2028.2,-1182.48 2030.29,-1175.8"/>
</g>
<!-- u3&#45;&gt;u12 -->
<g id="edge7" class="edge">
<title>u3&#45;&gt;u12</title>
<path fill="none" stroke="black" d="M1967.94,-1496.93C1967.94,-1440.16 1967.94,-1257.41 1967.94,-1187.53"/>
<polygon fill="black" stroke="black" points="1971.44,-1187.32 1967.94,-1177.32 1964.44,-1187.32 1971.44,-1187.32"/>
</g>
<!-- u2&#45;&gt;u24 -->
<g id="edge6" class="edge">
<title>u2&#45;&gt;u24</title>
<path fill="none" stroke="black" d="M276.45,-1497.4C419.11,-1438.95 897.88,-1242.79 1051.83,-1179.71"/>
<polygon fill="black" stroke="black" points="1053.56,-1182.78 1061.49,-1175.75 1050.91,-1176.31 1053.56,-1182.78"/>
</g>
<!-- u2&#45;&gt;u17 -->
<g id="edge5" class="edge">
<title>u2&#45;&gt;u17</title>
<path fill="none" stroke="black" d="M252.19,-1497.02C393.15,-1349.76 1407.13,-290.39 1575.33,-114.67"/>
<polygon fill="black" stroke="black" points="1578.09,-116.84 1582.48,-107.2 1573.03,-112 1578.09,-116.84"/>
</g>
<!-- u2&#45;&gt;u12 -->
<g id="edge4" class="edge">
<title>u2&#45;&gt;u12</title>
<path fill="none" stroke="black" d="M310.64,-1498.73C591.92,-1441.24 1586.37,-1237.99 1883.49,-1177.26"/>
<polygon fill="black" stroke="black" points="1884.25,-1180.68 1893.35,-1175.25 1882.85,-1173.82 1884.25,-1180.68"/>
</g>
</g>
</svg>
