<?xml version="1.0" encoding="UTF-8" standalone="no"?>
<!DOCTYPE svg PUBLIC "-//W3C//DTD SVG 1.1//EN"
 "http://www.w3.org/Graphics/SVG/1.1/DTD/svg11.dtd">
<!-- Generated by graphviz version 2.43.0 (0)
 -->
<!-- Title: G Pages: 1 -->
<svg width="432pt" height="288pt"
 viewBox="0.00 0.00 431.80 288.00" xmlns="http://www.w3.org/2000/svg" xmlns:xlink="http://www.w3.org/1999/xlink">
<g id="graph0" class="graph" transform="scale(0.07 0.07) rotate(0) translate(4 4405.33)">
<title>G</title>
<polygon fill="white" stroke="transparent" points="-4,4 -4,-4405.33 6606.95,-4405.33 6606.95,4 -4,4"/>
<!-- u7 -->
<g id="node1" class="node">
<title>u7</title>
<ellipse fill="#bbffbb" stroke="black" cx="2556.22" cy="-3762" rx="42.49" ry="18"/>
<text text-anchor="middle" x="2556.22" y="-3758.3" font-family="Times,serif" font-size="14.00">Helper</text>
</g>
<!-- u6 -->
<g id="node2" class="node">
<title>u6</title>
<ellipse fill="#bbffbb" stroke="black" cx="2556.22" cy="-4046" rx="62.29" ry="18"/>
<text text-anchor="middle" x="2556.22" y="-4042.3" font-family="Times,serif" font-size="14.00">HelloWorld</text>
</g>
<!-- u6&#45;&gt;u7 -->
<g id="edge8" class="edge">
<title>u6&#45;&gt;u7</title>
<path fill="none" stroke="black" d="M2556.22,-4027.78C2556.22,-3980.49 2556.22,-3848.26 2556.22,-3790.54"/>
<polygon fill="black" stroke="black" points="2559.72,-3790.35 2556.22,-3780.35 2552.72,-3790.35 2559.72,-3790.35"/>
</g>
<!-- u5 -->
<g id="node3" class="node">
<title>u5</title>
<ellipse fill="#bbffbb" stroke="black" cx="1913.22" cy="-4046" rx="59.59" ry="18"/>
<text text-anchor="middle" x="1913.22" y="-4042.3" font-family="Times,serif" font-size="14.00">VectorTest</text>
</g>
<!-- u2 -->
<g id="node4" class="node">
<title>u2</title>
<ellipse fill="#bbffbb" stroke="black" cx="2043.22" cy="-4046" rx="52.79" ry="18"/>
<text text-anchor="middle" x="2043.22" y="-4042.3" font-family="Times,serif" font-size="14.00">FileTests</text>
</g>
<!-- u0 -->
<g id="node5" class="node">
<title>u0</title>
<ellipse fill="#bbffbb" stroke="black" cx="2190.22" cy="-4046" rx="76.09" ry="18"/>
<text text-anchor="middle" x="2190.22" y="-4042.3" font-family="Times,serif" font-size="14.00">NameGenTest</text>
</g>
<!-- u60 -->
<g id="node6" class="node">
<title>u60</title>
<ellipse fill="#ffffbb" stroke="black" cx="2749.22" cy="-4330" rx="214.46" ry="18"/>
<text text-anchor="middle" x="2749.22" y="-4326.3" font-family="Times,serif" font-size="14.00">Data.Drasil.ExternalLibraries.ODELibraries</text>
</g>
<!-- u8 -->
<g id="node13" class="node">
<title>u8</title>
<ellipse fill="#ffbbbb" stroke="black" cx="2749.22" cy="-4046" rx="113.18" ry="18"/>
<text text-anchor="middle" x="2749.22" y="-4042.3" font-family="Times,serif" font-size="14.00">Language.Drasil.Code</text>
</g>
<!-- u60&#45;&gt;u8 -->
<g id="edge97" class="edge">
<title>u60&#45;&gt;u8</title>
<path fill="none" stroke="black" d="M2749.22,-4311.78C2749.22,-4264.49 2749.22,-4132.26 2749.22,-4074.54"/>
<polygon fill="black" stroke="black" points="2752.72,-4074.35 2749.22,-4064.35 2745.72,-4074.35 2752.72,-4074.35"/>
</g>
<!-- u4 -->
<g id="node7" class="node">
<title>u4</title>
<ellipse fill="#bbbbff" stroke="black" cx="2380.22" cy="-3762" rx="84.49" ry="18"/>
<text text-anchor="middle" x="2380.22" y="-3758.3" font-family="Times,serif" font-size="14.00">GOOL.Observer</text>
</g>
<!-- u3 -->
<g id="node8" class="node">
<title>u3</title>
<ellipse fill="#bbbbff" stroke="black" cx="2380.22" cy="-4046" rx="95.58" ry="18"/>
<text text-anchor="middle" x="2380.22" y="-4042.3" font-family="Times,serif" font-size="14.00">GOOL.PatternTest</text>
</g>
<!-- u3&#45;&gt;u4 -->
<g id="edge7" class="edge">
<title>u3&#45;&gt;u4</title>
<path fill="none" stroke="black" d="M2380.22,-4027.78C2380.22,-3980.49 2380.22,-3848.26 2380.22,-3790.54"/>
<polygon fill="black" stroke="black" points="2383.72,-3790.35 2380.22,-3780.35 2376.72,-3790.35 2383.72,-3790.35"/>
</g>
<!-- u53 -->
<g id="node9" class="node">
<title>u53</title>
<ellipse fill="#ffbbbb" stroke="black" cx="4380.22" cy="-2059" rx="135.68" ry="18"/>
<text text-anchor="middle" x="4380.22" y="-2055.3" font-family="Times,serif" font-size="14.00">Language.Drasil.CodeSpec</text>
</g>
<!-- u50 -->
<g id="node10" class="node">
<title>u50</title>
<ellipse fill="#ffbbbb" stroke="black" cx="3848.22" cy="-1775" rx="126.18" ry="18"/>
<text text-anchor="middle" x="3848.22" y="-1771.3" font-family="Times,serif" font-size="14.00">Language.Drasil.Choices</text>
</g>
<!-- u53&#45;&gt;u50 -->
<g id="edge92" class="edge">
<title>u53&#45;&gt;u50</title>
<path fill="none" stroke="black" d="M4348.93,-2041.41C4257.46,-1992.93 3990.58,-1851.46 3888.54,-1797.37"/>
<polygon fill="black" stroke="black" points="3889.95,-1794.16 3879.47,-1792.57 3886.67,-1800.34 3889.95,-1794.16"/>
</g>
<!-- u48 -->
<g id="node12" class="node">
<title>u48</title>
<ellipse fill="#ffbbbb" stroke="black" cx="4170.22" cy="-1775" rx="178.17" ry="18"/>
<text text-anchor="middle" x="4170.22" y="-1771.3" font-family="Times,serif" font-size="14.00">Language.Drasil.ICOSolutionSearch</text>
</g>
<!-- u53&#45;&gt;u48 -->
<g id="edge91" class="edge">
<title>u53&#45;&gt;u48</title>
<path fill="none" stroke="black" d="M4367.4,-2040.78C4331.65,-1992.78 4230.77,-1857.31 4188.84,-1801.01"/>
<polygon fill="black" stroke="black" points="4191.65,-1798.92 4182.87,-1792.99 4186.04,-1803.1 4191.65,-1798.92"/>
</g>
<!-- u56 -->
<g id="node17" class="node">
<title>u56</title>
<ellipse fill="#bbffff" stroke="black" cx="4558.22" cy="-1775" rx="192.27" ry="18"/>
<text text-anchor="middle" x="4558.22" y="-1771.3" font-family="Times,serif" font-size="14.00">Language.Drasil.Chunk.ConstraintMap</text>
</g>
<!-- u53&#45;&gt;u56 -->
<g id="edge93" class="edge">
<title>u53&#45;&gt;u56</title>
<path fill="none" stroke="black" d="M4391.09,-2040.78C4421.26,-1992.98 4506.2,-1858.42 4541.99,-1801.71"/>
<polygon fill="black" stroke="black" points="4545.12,-1803.32 4547.49,-1792.99 4539.2,-1799.58 4545.12,-1803.32"/>
</g>
<!-- u41 -->
<g id="node26" class="node">
<title>u41</title>
<ellipse fill="#ffbbff" stroke="black" cx="3396.22" cy="-1491" rx="139.98" ry="18"/>
<text text-anchor="middle" x="3396.22" y="-1487.3" font-family="Times,serif" font-size="14.00">Language.Drasil.Code.Code</text>
</g>
<!-- u50&#45;&gt;u41 -->
<g id="edge84" class="edge">
<title>u50&#45;&gt;u41</title>
<path fill="none" stroke="black" d="M3821.3,-1757.2C3743.57,-1708.71 3518.82,-1568.49 3431.5,-1514.01"/>
<polygon fill="black" stroke="black" points="3433.34,-1511.03 3423,-1508.71 3429.63,-1516.97 3433.34,-1511.03"/>
</g>
<!-- u51 -->
<g id="node60" class="node">
<title>u51</title>
<ellipse fill="#33ff33" stroke="black" cx="3943.22" cy="-1491" rx="172.77" ry="18"/>
<text text-anchor="middle" x="3943.22" y="-1487.3" font-family="Times,serif" font-size="14.00">Language.Drasil.Data.ODELibPckg</text>
</g>
<!-- u50&#45;&gt;u51 -->
<g id="edge85" class="edge">
<title>u50&#45;&gt;u51</title>
<path fill="none" stroke="black" d="M3854.02,-1756.78C3870.02,-1709.28 3914.89,-1576.08 3934.2,-1518.77"/>
<polygon fill="black" stroke="black" points="3937.62,-1519.58 3937.49,-1508.99 3930.99,-1517.35 3937.62,-1519.58"/>
</g>
<!-- u49 -->
<g id="node11" class="node">
<title>u49</title>
<ellipse fill="#ffbbbb" stroke="black" cx="4422.22" cy="-923" rx="110.48" ry="18"/>
<text text-anchor="middle" x="4422.22" y="-919.3" font-family="Times,serif" font-size="14.00">Language.Drasil.Mod</text>
</g>
<!-- u58 -->
<g id="node15" class="node">
<title>u58</title>
<ellipse fill="#bbffff" stroke="black" cx="4237.22" cy="-639" rx="170.87" ry="18"/>
<text text-anchor="middle" x="4237.22" y="-635.3" font-family="Times,serif" font-size="14.00">Language.Drasil.Chunk.Parameter</text>
</g>
<!-- u49&#45;&gt;u58 -->
<g id="edge83" class="edge">
<title>u49&#45;&gt;u58</title>
<path fill="none" stroke="black" d="M4410.92,-904.78C4379.5,-856.88 4290.92,-721.86 4253.85,-665.36"/>
<polygon fill="black" stroke="black" points="4256.78,-663.43 4248.36,-656.99 4250.92,-667.27 4256.78,-663.43"/>
</g>
<!-- u9 -->
<g id="node27" class="node">
<title>u9</title>
<ellipse fill="#ffbbff" stroke="black" cx="4586.22" cy="-639" rx="160.57" ry="18"/>
<text text-anchor="middle" x="4586.22" y="-635.3" font-family="Times,serif" font-size="14.00">Language.Drasil.Code.DataDesc</text>
</g>
<!-- u49&#45;&gt;u9 -->
<g id="edge82" class="edge">
<title>u49&#45;&gt;u9</title>
<path fill="none" stroke="black" d="M4432.23,-904.78C4460.03,-856.98 4538.29,-722.42 4571.27,-665.71"/>
<polygon fill="black" stroke="black" points="4574.34,-667.39 4576.34,-656.99 4568.28,-663.88 4574.34,-667.39"/>
</g>
<!-- u59 -->
<g id="node14" class="node">
<title>u59</title>
<ellipse fill="#bbffff" stroke="black" cx="4325.22" cy="-1491" rx="191.17" ry="18"/>
<text text-anchor="middle" x="4325.22" y="-1487.3" font-family="Times,serif" font-size="14.00">Language.Drasil.Chunk.CodeDefinition</text>
</g>
<!-- u48&#45;&gt;u59 -->
<g id="edge81" class="edge">
<title>u48&#45;&gt;u59</title>
<path fill="none" stroke="black" d="M4179.68,-1756.78C4205.9,-1709.08 4279.61,-1574.97 4310.89,-1518.06"/>
<polygon fill="black" stroke="black" points="4314.13,-1519.44 4315.88,-1508.99 4308,-1516.07 4314.13,-1519.44"/>
</g>
<!-- u13 -->
<g id="node41" class="node">
<title>u13</title>
<ellipse fill="#77ff77" stroke="black" cx="4873.22" cy="-3762" rx="217.16" ry="18"/>
<text text-anchor="middle" x="4873.22" y="-3758.3" font-family="Times,serif" font-size="14.00">Language.Drasil.Code.Imperative.Generator</text>
</g>
<!-- u8&#45;&gt;u13 -->
<g id="edge10" class="edge">
<title>u8&#45;&gt;u13</title>
<path fill="none" stroke="black" d="M2833.14,-4033.86C3162.45,-3990.14 4367.21,-3830.18 4753.3,-3778.92"/>
<polygon fill="black" stroke="black" points="4753.93,-3782.37 4763.38,-3777.58 4753,-3775.43 4753.93,-3782.37"/>
</g>
<!-- u10 -->
<g id="node44" class="node">
<title>u10</title>
<ellipse fill="#77ff77" stroke="black" cx="6385.22" cy="-2343" rx="217.96" ry="18"/>
<text text-anchor="middle" x="6385.22" y="-2339.3" font-family="Times,serif" font-size="14.00">Language.Drasil.Code.Imperative.ReadInput</text>
</g>
<!-- u8&#45;&gt;u10 -->
<g id="edge9" class="edge">
<title>u8&#45;&gt;u10</title>
<path fill="none" stroke="black" d="M2854.92,-4039.51C3442.61,-4007.65 6281.22,-3835.31 6281.22,-3479 6281.22,-3479 6281.22,-3479 6281.22,-2910 6281.22,-2699.64 6351.57,-2452.45 6376.55,-2371.3"/>
<polygon fill="black" stroke="black" points="6380,-2371.98 6379.63,-2361.39 6373.32,-2369.9 6380,-2371.98"/>
</g>
<!-- u25 -->
<g id="node51" class="node">
<title>u25</title>
<ellipse fill="#77ffff" stroke="black" cx="4049.22" cy="-3478" rx="354.74" ry="18"/>
<text text-anchor="middle" x="4049.22" y="-3474.3" font-family="Times,serif" font-size="14.00">Language.Drasil.Code.Imperative.GOOL.LanguageRenderer.JuliaRenderer</text>
</g>
<!-- u8&#45;&gt;u25 -->
<g id="edge16" class="edge">
<title>u8&#45;&gt;u25</title>
<path fill="none" stroke="black" d="M2786.03,-4028.97C2970.38,-3948.71 3792.58,-3590.74 4001.05,-3499.97"/>
<polygon fill="black" stroke="black" points="4002.45,-3503.18 4010.22,-3495.98 3999.65,-3496.76 4002.45,-3503.18"/>
</g>
<!-- u24 -->
<g id="node52" class="node">
<title>u24</title>
<ellipse fill="#77ffff" stroke="black" cx="354.22" cy="-3478" rx="354.44" ry="18"/>
<text text-anchor="middle" x="354.22" y="-3474.3" font-family="Times,serif" font-size="14.00">Language.Drasil.Code.Imperative.GOOL.LanguageRenderer.JavaRenderer</text>
</g>
<!-- u8&#45;&gt;u24 -->
<g id="edge15" class="edge">
<title>u8&#45;&gt;u24</title>
<path fill="none" stroke="black" d="M2743.61,-4027.92C2724.14,-3969.67 2657.88,-3780.44 2607.22,-3744 2444.45,-3626.92 1115.05,-3528.43 578.01,-3493.03"/>
<polygon fill="black" stroke="black" points="578.03,-3489.52 567.82,-3492.36 577.57,-3496.51 578.03,-3489.52"/>
</g>
<!-- u23 -->
<g id="node53" class="node">
<title>u23</title>
<ellipse fill="#77ffff" stroke="black" cx="1093.22" cy="-3478" rx="367.43" ry="18"/>
<text text-anchor="middle" x="1093.22" y="-3474.3" font-family="Times,serif" font-size="14.00">Language.Drasil.Code.Imperative.GOOL.LanguageRenderer.PythonRenderer</text>
</g>
<!-- u8&#45;&gt;u23 -->
<g id="edge14" class="edge">
<title>u8&#45;&gt;u23</title>
<path fill="none" stroke="black" d="M2748.9,-4027.73C2746.96,-3975.74 2733.58,-3819.6 2644.22,-3744 2453.22,-3582.41 1741.5,-3516.39 1352,-3491.9"/>
<polygon fill="black" stroke="black" points="1352.2,-3488.41 1342,-3491.28 1351.77,-3495.4 1352.2,-3488.41"/>
</g>
<!-- u22 -->
<g id="node54" class="node">
<title>u22</title>
<ellipse fill="#77ffff" stroke="black" cx="1831.22" cy="-3478" rx="352.84" ry="18"/>
<text text-anchor="middle" x="1831.22" y="-3474.3" font-family="Times,serif" font-size="14.00">Language.Drasil.Code.Imperative.GOOL.LanguageRenderer.CppRenderer</text>
</g>
<!-- u8&#45;&gt;u22 -->
<g id="edge13" class="edge">
<title>u8&#45;&gt;u22</title>
<path fill="none" stroke="black" d="M2750.99,-4027.72C2755.17,-3977.02 2760.19,-3827.02 2684.22,-3744 2533.15,-3578.93 2281.39,-3515.75 2090.43,-3492.05"/>
<polygon fill="black" stroke="black" points="2090.59,-3488.54 2080.24,-3490.81 2089.75,-3495.49 2090.59,-3488.54"/>
</g>
<!-- u21 -->
<g id="node55" class="node">
<title>u21</title>
<ellipse fill="#77ffff" stroke="black" cx="2571.22" cy="-3478" rx="369.33" ry="18"/>
<text text-anchor="middle" x="2571.22" y="-3474.3" font-family="Times,serif" font-size="14.00">Language.Drasil.Code.Imperative.GOOL.LanguageRenderer.CSharpRenderer</text>
</g>
<!-- u8&#45;&gt;u21 -->
<g id="edge12" class="edge">
<title>u8&#45;&gt;u21</title>
<path fill="none" stroke="black" d="M2750.27,-4027.87C2752.62,-3981.11 2755.74,-3847.86 2723.22,-3744 2693.22,-3648.19 2624.47,-3549.17 2590.69,-3504.08"/>
<polygon fill="black" stroke="black" points="2593.44,-3501.91 2584.61,-3496.05 2587.85,-3506.14 2593.44,-3501.91"/>
</g>
<!-- u20 -->
<g id="node56" class="node">
<title>u20</title>
<ellipse fill="#77ffff" stroke="black" cx="3317.22" cy="-3478" rx="358.54" ry="18"/>
<text text-anchor="middle" x="3317.22" y="-3474.3" font-family="Times,serif" font-size="14.00">Language.Drasil.Code.Imperative.GOOL.LanguageRenderer.SwiftRenderer</text>
</g>
<!-- u8&#45;&gt;u20 -->
<g id="edge11" class="edge">
<title>u8&#45;&gt;u20</title>
<path fill="none" stroke="black" d="M2766.22,-4028.06C2847.54,-3947.02 3196.89,-3598.9 3292.79,-3503.35"/>
<polygon fill="black" stroke="black" points="3295.4,-3505.69 3300.01,-3496.15 3290.45,-3500.73 3295.4,-3505.69"/>
</g>
<!-- u52 -->
<g id="node59" class="node">
<title>u52</title>
<ellipse fill="#33ff33" stroke="black" cx="4038.22" cy="-1207" rx="154.07" ry="18"/>
<text text-anchor="middle" x="4038.22" y="-1203.3" font-family="Times,serif" font-size="14.00">Language.Drasil.Data.ODEInfo</text>
</g>
<!-- u59&#45;&gt;u52 -->
<g id="edge96" class="edge">
<title>u59&#45;&gt;u52</title>
<path fill="none" stroke="black" d="M4307.7,-1472.78C4258.65,-1424.59 4119.83,-1288.19 4062.97,-1232.32"/>
<polygon fill="black" stroke="black" points="4065.1,-1229.5 4055.51,-1224.99 4060.19,-1234.5 4065.1,-1229.5"/>
</g>
<!-- u54 -->
<g id="node19" class="node">
<title>u54</title>
<ellipse fill="#bbffff" stroke="black" cx="4237.22" cy="-355" rx="145.67" ry="18"/>
<text text-anchor="middle" x="4237.22" y="-351.3" font-family="Times,serif" font-size="14.00">Language.Drasil.Chunk.Code</text>
</g>
<!-- u58&#45;&gt;u54 -->
<g id="edge95" class="edge">
<title>u58&#45;&gt;u54</title>
<path fill="none" stroke="black" d="M4237.22,-620.78C4237.22,-573.49 4237.22,-441.26 4237.22,-383.54"/>
<polygon fill="black" stroke="black" points="4240.72,-383.35 4237.22,-373.35 4233.72,-383.35 4240.72,-383.35"/>
</g>
<!-- u57 -->
<g id="node16" class="node">
<title>u57</title>
<ellipse fill="#bbffff" stroke="black" cx="4795.22" cy="-923" rx="202.26" ry="18"/>
<text text-anchor="middle" x="4795.22" y="-919.3" font-family="Times,serif" font-size="14.00">Language.Drasil.Chunk.NamedArgument</text>
</g>
<!-- u55 -->
<g id="node18" class="node">
<title>u55</title>
<ellipse fill="#bbffff" stroke="black" cx="4237.22" cy="-71" rx="168.17" ry="18"/>
<text text-anchor="middle" x="4237.22" y="-67.3" font-family="Times,serif" font-size="14.00">Language.Drasil.Chunk.CodeBase</text>
</g>
<!-- u54&#45;&gt;u55 -->
<g id="edge94" class="edge">
<title>u54&#45;&gt;u55</title>
<path fill="none" stroke="black" d="M4237.22,-336.78C4237.22,-289.49 4237.22,-157.26 4237.22,-99.54"/>
<polygon fill="black" stroke="black" points="4240.72,-99.35 4237.22,-89.35 4233.72,-99.35 4240.72,-99.35"/>
</g>
<!-- u47 -->
<g id="node20" class="node">
<title>u47</title>
<ellipse fill="#ffbbff" stroke="black" cx="4613.22" cy="-3478" rx="191.17" ry="18"/>
<text text-anchor="middle" x="4613.22" y="-3474.3" font-family="Times,serif" font-size="14.00">Language.Drasil.Code.CodeGeneration</text>
</g>
<!-- u47&#45;&gt;u41 -->
<g id="edge80" class="edge">
<title>u47&#45;&gt;u41</title>
<path fill="none" stroke="black" d="M4547.94,-3461.03C4294.43,-3397.7 3380.54,-3156.52 3202.22,-2929 3040.48,-2722.65 3126.22,-2606.18 3126.22,-2344 3126.22,-2344 3126.22,-2344 3126.22,-2058 3126.22,-1827.95 3310.16,-1592.06 3374.4,-1516.7"/>
<polygon fill="black" stroke="black" points="3377.06,-1518.97 3380.93,-1509.11 3371.75,-1514.41 3377.06,-1518.97"/>
</g>
<!-- u26 -->
<g id="node48" class="node">
<title>u26</title>
<ellipse fill="#ff7777" stroke="black" cx="3182.22" cy="-3195" rx="222.06" ry="18"/>
<text text-anchor="middle" x="3182.22" y="-3191.3" font-family="Times,serif" font-size="14.00">Language.Drasil.Code.Imperative.GOOL.Data</text>
</g>
<!-- u47&#45;&gt;u26 -->
<g id="edge79" class="edge">
<title>u47&#45;&gt;u26</title>
<path fill="none" stroke="black" d="M4534.5,-3461.54C4288.35,-3413.21 3534.07,-3265.09 3272.6,-3213.75"/>
<polygon fill="black" stroke="black" points="3273.24,-3210.31 3262.76,-3211.82 3271.9,-3217.18 3273.24,-3210.31"/>
</g>
<!-- u46 -->
<g id="node21" class="node">
<title>u46</title>
<ellipse fill="#ffbbff" stroke="black" cx="4816.22" cy="-1207" rx="207.96" ry="18"/>
<text text-anchor="middle" x="4816.22" y="-1203.3" font-family="Times,serif" font-size="14.00">Language.Drasil.Code.ExternalLibraryCall</text>
</g>
<!-- u46&#45;&gt;u49 -->
<g id="edge77" class="edge">
<title>u46&#45;&gt;u49</title>
<path fill="none" stroke="black" d="M4792.46,-1188.99C4724.7,-1140.49 4530.44,-1001.46 4453.83,-946.63"/>
<polygon fill="black" stroke="black" points="4455.68,-943.65 4445.51,-940.67 4451.61,-949.34 4455.68,-943.65"/>
</g>
<!-- u46&#45;&gt;u57 -->
<g id="edge78" class="edge">
<title>u46&#45;&gt;u57</title>
<path fill="none" stroke="black" d="M4814.94,-1188.78C4811.41,-1141.49 4801.57,-1009.26 4797.27,-951.54"/>
<polygon fill="black" stroke="black" points="4800.74,-951.06 4796.51,-941.35 4793.76,-951.58 4800.74,-951.06"/>
</g>
<!-- u45 -->
<g id="node22" class="node">
<title>u45</title>
<ellipse fill="#ffbbff" stroke="black" cx="4400.22" cy="-1207" rx="190.37" ry="18"/>
<text text-anchor="middle" x="4400.22" y="-1203.3" font-family="Times,serif" font-size="14.00">Language.Drasil.Code.ExternalLibrary</text>
</g>
<!-- u45&#45;&gt;u49 -->
<g id="edge75" class="edge">
<title>u45&#45;&gt;u49</title>
<path fill="none" stroke="black" d="M4401.56,-1188.78C4405.25,-1141.49 4415.57,-1009.26 4420.07,-951.54"/>
<polygon fill="black" stroke="black" points="4423.58,-951.59 4420.87,-941.35 4416.6,-951.05 4423.58,-951.59"/>
</g>
<!-- u45&#45;&gt;u57 -->
<g id="edge76" class="edge">
<title>u45&#45;&gt;u57</title>
<path fill="none" stroke="black" d="M4424.04,-1188.99C4491.81,-1140.61 4685.8,-1002.12 4762.98,-947.02"/>
<polygon fill="black" stroke="black" points="4765.26,-949.69 4771.37,-941.03 4761.2,-943.99 4765.26,-949.69"/>
</g>
<!-- u44 -->
<g id="node23" class="node">
<title>u44</title>
<ellipse fill="#ffbbff" stroke="black" cx="5831.22" cy="-2627" rx="204.16" ry="18"/>
<text text-anchor="middle" x="5831.22" y="-2623.3" font-family="Times,serif" font-size="14.00">Language.Drasil.Code.CodeQuantityDicts</text>
</g>
<!-- u43 -->
<g id="node24" class="node">
<title>u43</title>
<ellipse fill="#ffbbff" stroke="black" cx="4816.22" cy="-1491" rx="178.97" ry="18"/>
<text text-anchor="middle" x="4816.22" y="-1487.3" font-family="Times,serif" font-size="14.00">Language.Drasil.Code.ExtLibImport</text>
</g>
<!-- u43&#45;&gt;u46 -->
<g id="edge74" class="edge">
<title>u43&#45;&gt;u46</title>
<path fill="none" stroke="black" d="M4816.22,-1472.78C4816.22,-1425.49 4816.22,-1293.26 4816.22,-1235.54"/>
<polygon fill="black" stroke="black" points="4819.72,-1235.35 4816.22,-1225.35 4812.72,-1235.35 4819.72,-1235.35"/>
</g>
<!-- u43&#45;&gt;u45 -->
<g id="edge73" class="edge">
<title>u43&#45;&gt;u45</title>
<path fill="none" stroke="black" d="M4791.13,-1472.99C4719.52,-1424.45 4514.14,-1285.22 4433.39,-1230.49"/>
<polygon fill="black" stroke="black" points="4435.32,-1227.56 4425.07,-1224.85 4431.39,-1233.36 4435.32,-1227.56"/>
</g>
<!-- u42 -->
<g id="node25" class="node">
<title>u42</title>
<ellipse fill="#ffbbff" stroke="black" cx="3727.22" cy="-1207" rx="139.18" ry="18"/>
<text text-anchor="middle" x="3727.22" y="-1203.3" font-family="Times,serif" font-size="14.00">Language.Drasil.Code.Lang</text>
</g>
<!-- u9&#45;&gt;u54 -->
<g id="edge17" class="edge">
<title>u9&#45;&gt;u54</title>
<path fill="none" stroke="black" d="M4565.17,-620.99C4505.41,-572.71 4334.59,-434.68 4266.12,-379.35"/>
<polygon fill="black" stroke="black" points="4268.27,-376.59 4258.29,-373.03 4263.87,-382.03 4268.27,-376.59"/>
</g>
<!-- u40 -->
<g id="node28" class="node">
<title>u40</title>
<ellipse fill="#77ff77" stroke="black" cx="4011.22" cy="-2627" rx="240.46" ry="18"/>
<text text-anchor="middle" x="4011.22" y="-2623.3" font-family="Times,serif" font-size="14.00">Language.Drasil.Code.Imperative.GenerateGOOL</text>
</g>
<!-- u38 -->
<g id="node30" class="node">
<title>u38</title>
<ellipse fill="#77ff77" stroke="black" cx="4959.22" cy="-2343" rx="222.06" ry="18"/>
<text text-anchor="middle" x="4959.22" y="-2339.3" font-family="Times,serif" font-size="14.00">Language.Drasil.Code.Imperative.DrasilState</text>
</g>
<!-- u40&#45;&gt;u38 -->
<g id="edge72" class="edge">
<title>u40&#45;&gt;u38</title>
<path fill="none" stroke="black" d="M4066.98,-2609.41C4232.04,-2560.31 4717.65,-2415.86 4894.15,-2363.36"/>
<polygon fill="black" stroke="black" points="4895.24,-2366.68 4903.82,-2360.48 4893.24,-2359.97 4895.24,-2366.68"/>
</g>
<!-- u18 -->
<g id="node49" class="node">
<title>u18</title>
<ellipse fill="#ff7777" stroke="black" cx="3905.22" cy="-2343" rx="267.25" ry="18"/>
<text text-anchor="middle" x="3905.22" y="-2339.3" font-family="Times,serif" font-size="14.00">Language.Drasil.Code.Imperative.GOOL.ClassInterface</text>
</g>
<!-- u40&#45;&gt;u18 -->
<g id="edge71" class="edge">
<title>u40&#45;&gt;u18</title>
<path fill="none" stroke="black" d="M4004.75,-2608.78C3986.9,-2561.29 3936.85,-2428.16 3915.3,-2370.82"/>
<polygon fill="black" stroke="black" points="3918.53,-2369.48 3911.74,-2361.35 3911.98,-2371.94 3918.53,-2369.48"/>
</g>
<!-- u39 -->
<g id="node29" class="node">
<title>u39</title>
<ellipse fill="#77ff77" stroke="black" cx="4427.22" cy="-2343" rx="237.46" ry="18"/>
<text text-anchor="middle" x="4427.22" y="-2339.3" font-family="Times,serif" font-size="14.00">Language.Drasil.Code.Imperative.ConceptMatch</text>
</g>
<!-- u39&#45;&gt;u50 -->
<g id="edge70" class="edge">
<title>u39&#45;&gt;u50</title>
<path fill="none" stroke="black" d="M4409.57,-2324.75C4325.98,-2243.04 3969.84,-1894.89 3872.75,-1799.98"/>
<polygon fill="black" stroke="black" points="3875.04,-1797.33 3865.44,-1792.84 3870.15,-1802.33 3875.04,-1797.33"/>
</g>
<!-- u38&#45;&gt;u53 -->
<g id="edge69" class="edge">
<title>u38&#45;&gt;u53</title>
<path fill="none" stroke="black" d="M4924.73,-2325.2C4824.55,-2276.41 4533.67,-2134.74 4423.34,-2081"/>
<polygon fill="black" stroke="black" points="4424.68,-2077.76 4414.16,-2076.53 4421.62,-2084.06 4424.68,-2077.76"/>
</g>
<!-- u38&#45;&gt;u43 -->
<g id="edge68" class="edge">
<title>u38&#45;&gt;u43</title>
<path fill="none" stroke="black" d="M4962.48,-2324.72C4970.25,-2282.58 4989.68,-2171.07 4996.22,-2077 5011.82,-1852.39 4878.29,-1598.83 4831.8,-1518.12"/>
<polygon fill="black" stroke="black" points="4834.63,-1516.03 4826.58,-1509.14 4828.58,-1519.55 4834.63,-1516.03"/>
</g>
<!-- u35 -->
<g id="node31" class="node">
<title>u35</title>
<ellipse fill="#77ff77" stroke="black" cx="4514.22" cy="-2627" rx="207.16" ry="18"/>
<text text-anchor="middle" x="4514.22" y="-2623.3" font-family="Times,serif" font-size="14.00">Language.Drasil.Code.Imperative.Logging</text>
</g>
<!-- u35&#45;&gt;u38 -->
<g id="edge66" class="edge">
<title>u35&#45;&gt;u38</title>
<path fill="none" stroke="black" d="M4541.05,-2608.99C4617.64,-2560.46 4837.28,-2421.27 4923.69,-2366.52"/>
<polygon fill="black" stroke="black" points="4925.78,-2369.34 4932.35,-2361.03 4922.03,-2363.42 4925.78,-2369.34"/>
</g>
<!-- u34 -->
<g id="node32" class="node">
<title>u34</title>
<ellipse fill="#77ff77" stroke="black" cx="5404.22" cy="-3195" rx="233.16" ry="18"/>
<text text-anchor="middle" x="5404.22" y="-3191.3" font-family="Times,serif" font-size="14.00">Language.Drasil.Code.Imperative.FunctionCalls</text>
</g>
<!-- u12 -->
<g id="node42" class="node">
<title>u12</title>
<ellipse fill="#77ff77" stroke="black" cx="5831.22" cy="-2911" rx="223.66" ry="18"/>
<text text-anchor="middle" x="5831.22" y="-2907.3" font-family="Times,serif" font-size="14.00">Language.Drasil.Code.Imperative.Parameters</text>
</g>
<!-- u34&#45;&gt;u12 -->
<g id="edge65" class="edge">
<title>u34&#45;&gt;u12</title>
<path fill="none" stroke="black" d="M5429.97,-3176.99C5503.38,-3128.51 5713.79,-2989.55 5796.87,-2934.68"/>
<polygon fill="black" stroke="black" points="5799.02,-2937.46 5805.44,-2929.03 5795.16,-2931.62 5799.02,-2937.46"/>
</g>
<!-- u11 -->
<g id="node43" class="node">
<title>u11</title>
<ellipse fill="#77ff77" stroke="black" cx="4959.22" cy="-2911" rx="201.46" ry="18"/>
<text text-anchor="middle" x="4959.22" y="-2907.3" font-family="Times,serif" font-size="14.00">Language.Drasil.Code.Imperative.Import</text>
</g>
<!-- u34&#45;&gt;u11 -->
<g id="edge64" class="edge">
<title>u34&#45;&gt;u11</title>
<path fill="none" stroke="black" d="M5377.38,-3176.99C5300.71,-3128.4 5080.64,-2988.94 4994.44,-2934.32"/>
<polygon fill="black" stroke="black" points="4996.13,-2931.25 4985.81,-2928.85 4992.38,-2937.16 4996.13,-2931.25"/>
</g>
<!-- u33 -->
<g id="node33" class="node">
<title>u33</title>
<ellipse fill="#77ff77" stroke="black" cx="3449.22" cy="-923" rx="219.86" ry="18"/>
<text text-anchor="middle" x="3449.22" y="-919.3" font-family="Times,serif" font-size="14.00">Language.Drasil.Code.Imperative.WriteInput</text>
</g>
<!-- u33&#45;&gt;u9 -->
<g id="edge63" class="edge">
<title>u33&#45;&gt;u9</title>
<path fill="none" stroke="black" d="M3514.85,-905.72C3713.29,-856.5 4306.11,-709.47 4513.56,-658.02"/>
<polygon fill="black" stroke="black" points="4514.58,-661.37 4523.44,-655.57 4512.89,-654.58 4514.58,-661.37"/>
</g>
<!-- u32 -->
<g id="node34" class="node">
<title>u32</title>
<ellipse fill="#77ff77" stroke="black" cx="4777.22" cy="-2059" rx="209.86" ry="18"/>
<text text-anchor="middle" x="4777.22" y="-2055.3" font-family="Times,serif" font-size="14.00">Language.Drasil.Code.Imperative.GenODE</text>
</g>
<!-- u32&#45;&gt;u50 -->
<g id="edge61" class="edge">
<title>u32&#45;&gt;u50</title>
<path fill="none" stroke="black" d="M4722.92,-2041.52C4560.54,-1992.23 4079.48,-1846.2 3908.97,-1794.44"/>
<polygon fill="black" stroke="black" points="3909.99,-1791.09 3899.4,-1791.54 3907.95,-1797.79 3909.99,-1791.09"/>
</g>
<!-- u32&#45;&gt;u59 -->
<g id="edge62" class="edge">
<title>u32&#45;&gt;u59</title>
<path fill="none" stroke="black" d="M4781.32,-2040.77C4791.91,-1992.06 4815.58,-1850.78 4759.22,-1757 4676.58,-1619.51 4492.62,-1543.69 4392.79,-1511.27"/>
<polygon fill="black" stroke="black" points="4393.7,-1507.88 4383.11,-1508.17 4391.57,-1514.55 4393.7,-1507.88"/>
</g>
<!-- u32&#45;&gt;u43 -->
<g id="edge60" class="edge">
<title>u32&#45;&gt;u43</title>
<path fill="none" stroke="black" d="M4778.41,-2040.75C4783.97,-1959.95 4807.49,-1618.6 4814.34,-1519.24"/>
<polygon fill="black" stroke="black" points="4817.84,-1519.33 4815.04,-1509.11 4810.86,-1518.85 4817.84,-1519.33"/>
</g>
<!-- u31 -->
<g id="node35" class="node">
<title>u31</title>
<ellipse fill="#77ff77" stroke="black" cx="4959.22" cy="-2627" rx="219.86" ry="18"/>
<text text-anchor="middle" x="4959.22" y="-2623.3" font-family="Times,serif" font-size="14.00">Language.Drasil.Code.Imperative.Comments</text>
</g>
<!-- u31&#45;&gt;u38 -->
<g id="edge59" class="edge">
<title>u31&#45;&gt;u38</title>
<path fill="none" stroke="black" d="M4959.22,-2608.78C4959.22,-2561.49 4959.22,-2429.26 4959.22,-2371.54"/>
<polygon fill="black" stroke="black" points="4962.72,-2371.35 4959.22,-2361.35 4955.72,-2371.35 4962.72,-2371.35"/>
</g>
<!-- u29 -->
<g id="node36" class="node">
<title>u29</title>
<ellipse fill="#77ff77" stroke="black" cx="3387.22" cy="-2343" rx="233.16" ry="18"/>
<text text-anchor="middle" x="3387.22" y="-2339.3" font-family="Times,serif" font-size="14.00">Language.Drasil.Code.Imperative.WriteReadMe</text>
</g>
<!-- u30 -->
<g id="node58" class="node">
<title>u30</title>
<ellipse fill="#ff77ff" stroke="black" cx="3848.22" cy="-2059" rx="242.36" ry="18"/>
<text text-anchor="middle" x="3848.22" y="-2055.3" font-family="Times,serif" font-size="14.00">Language.Drasil.Code.Imperative.ReadMe.Import</text>
</g>
<!-- u29&#45;&gt;u30 -->
<g id="edge57" class="edge">
<title>u29&#45;&gt;u30</title>
<path fill="none" stroke="black" d="M3415.02,-2324.99C3494.44,-2276.41 3722.36,-2136.99 3811.68,-2082.35"/>
<polygon fill="black" stroke="black" points="3813.68,-2085.23 3820.38,-2077.03 3810.03,-2079.26 3813.68,-2085.23"/>
</g>
<!-- u28 -->
<g id="node37" class="node">
<title>u28</title>
<ellipse fill="#77ff77" stroke="black" cx="5883.22" cy="-3195" rx="228.26" ry="18"/>
<text text-anchor="middle" x="5883.22" y="-3191.3" font-family="Times,serif" font-size="14.00">Language.Drasil.Code.Imperative.Descriptions</text>
</g>
<!-- u28&#45;&gt;u38 -->
<g id="edge56" class="edge">
<title>u28&#45;&gt;u38</title>
<path fill="none" stroke="black" d="M5898.66,-3176.89C5964.69,-3101.62 6213.36,-2795.52 6066.22,-2609 5949.13,-2460.58 5388.75,-2385.99 5113.07,-2357.78"/>
<polygon fill="black" stroke="black" points="5113.29,-2354.28 5102.98,-2356.75 5112.58,-2361.24 5113.29,-2354.28"/>
</g>
<!-- u27 -->
<g id="node38" class="node">
<title>u27</title>
<ellipse fill="#77ff77" stroke="black" cx="5403.22" cy="-2627" rx="206.06" ry="18"/>
<text text-anchor="middle" x="5403.22" y="-2623.3" font-family="Times,serif" font-size="14.00">Language.Drasil.Code.Imperative.Helpers</text>
</g>
<!-- u27&#45;&gt;u38 -->
<g id="edge55" class="edge">
<title>u27&#45;&gt;u38</title>
<path fill="none" stroke="black" d="M5376.44,-2608.99C5300.03,-2560.46 5080.88,-2421.27 4994.67,-2366.52"/>
<polygon fill="black" stroke="black" points="4996.35,-2363.43 4986.03,-2361.03 4992.59,-2369.34 4996.35,-2363.43"/>
</g>
<!-- u15 -->
<g id="node39" class="node">
<title>u15</title>
<ellipse fill="#77ff77" stroke="black" cx="4926.22" cy="-3195" rx="226.66" ry="18"/>
<text text-anchor="middle" x="4926.22" y="-3191.3" font-family="Times,serif" font-size="14.00">Language.Drasil.Code.Imperative.SpaceMatch</text>
</g>
<!-- u15&#45;&gt;u38 -->
<g id="edge34" class="edge">
<title>u15&#45;&gt;u38</title>
<path fill="none" stroke="black" d="M4866.62,-3177.52C4608.13,-3104.6 3604.08,-2805.98 3762.22,-2609 3888.95,-2451.15 4488.2,-2381.57 4787.81,-2356.23"/>
<polygon fill="black" stroke="black" points="4788.23,-2359.71 4797.91,-2355.39 4787.65,-2352.73 4788.23,-2359.71"/>
</g>
<!-- u14 -->
<g id="node40" class="node">
<title>u14</title>
<ellipse fill="#77ff77" stroke="black" cx="5404.22" cy="-3478" rx="209.06" ry="18"/>
<text text-anchor="middle" x="5404.22" y="-3474.3" font-family="Times,serif" font-size="14.00">Language.Drasil.Code.Imperative.Modules</text>
</g>
<!-- u14&#45;&gt;u34 -->
<g id="edge33" class="edge">
<title>u14&#45;&gt;u34</title>
<path fill="none" stroke="black" d="M5404.22,-3459.85C5404.22,-3412.72 5404.22,-3280.96 5404.22,-3223.44"/>
<polygon fill="black" stroke="black" points="5407.72,-3223.29 5404.22,-3213.29 5400.72,-3223.29 5407.72,-3223.29"/>
</g>
<!-- u14&#45;&gt;u28 -->
<g id="edge32" class="edge">
<title>u14&#45;&gt;u28</title>
<path fill="none" stroke="black" d="M5433.1,-3460.06C5515.71,-3411.6 5752.92,-3272.44 5845.54,-3218.11"/>
<polygon fill="black" stroke="black" points="5847.44,-3221.05 5854.3,-3212.97 5843.9,-3215.01 5847.44,-3221.05"/>
</g>
<!-- u13&#45;&gt;u47 -->
<g id="edge31" class="edge">
<title>u13&#45;&gt;u47</title>
<path fill="none" stroke="black" d="M4857.35,-3743.78C4813,-3695.69 4687.67,-3559.75 4635.96,-3503.67"/>
<polygon fill="black" stroke="black" points="4638.24,-3500.97 4628.88,-3495.99 4633.09,-3505.72 4638.24,-3500.97"/>
</g>
<!-- u13&#45;&gt;u32 -->
<g id="edge30" class="edge">
<title>u13&#45;&gt;u32</title>
<path fill="none" stroke="black" d="M4947.22,-3745C5218.01,-3684.37 6139.22,-3458.8 6139.22,-3196 6139.22,-3196 6139.22,-3196 6139.22,-2626 6139.22,-2350.5 5176.93,-2138.25 4870.06,-2077.57"/>
<polygon fill="black" stroke="black" points="4870.35,-2074.06 4859.86,-2075.56 4868.99,-2080.93 4870.35,-2074.06"/>
</g>
<!-- u13&#45;&gt;u15 -->
<g id="edge28" class="edge">
<title>u13&#45;&gt;u15</title>
<path fill="none" stroke="black" d="M4874.83,-3743.78C4882.4,-3663.12 4914.36,-3322.38 4923.67,-3223.19"/>
<polygon fill="black" stroke="black" points="4927.17,-3223.37 4924.62,-3213.08 4920.2,-3222.71 4927.17,-3223.37"/>
</g>
<!-- u13&#45;&gt;u14 -->
<g id="edge27" class="edge">
<title>u13&#45;&gt;u14</title>
<path fill="none" stroke="black" d="M4905.24,-3743.99C4997.11,-3695.21 5261.46,-3554.81 5363.43,-3500.66"/>
<polygon fill="black" stroke="black" points="5365.3,-3503.63 5372.49,-3495.85 5362.02,-3497.45 5365.3,-3503.63"/>
</g>
<!-- u17 -->
<g id="node50" class="node">
<title>u17</title>
<ellipse fill="#ff7777" stroke="black" cx="3500.22" cy="-2911" rx="289.45" ry="18"/>
<text text-anchor="middle" x="3500.22" y="-2907.3" font-family="Times,serif" font-size="14.00">Language.Drasil.Code.Imperative.GOOL.LanguageRenderer</text>
</g>
<!-- u13&#45;&gt;u17 -->
<g id="edge29" class="edge">
<title>u13&#45;&gt;u17</title>
<path fill="none" stroke="black" d="M4874.97,-3743.72C4879.07,-3693.66 4884.11,-3546.58 4813.22,-3460 4511.51,-3091.51 3919.49,-2967.23 3645.59,-2928.33"/>
<polygon fill="black" stroke="black" points="3645.98,-2924.85 3635.59,-2926.93 3645,-2931.78 3645.98,-2924.85"/>
</g>
<!-- u12&#45;&gt;u44 -->
<g id="edge26" class="edge">
<title>u12&#45;&gt;u44</title>
<path fill="none" stroke="black" d="M5831.22,-2892.78C5831.22,-2845.49 5831.22,-2713.26 5831.22,-2655.54"/>
<polygon fill="black" stroke="black" points="5834.72,-2655.35 5831.22,-2645.35 5827.72,-2655.35 5834.72,-2655.35"/>
</g>
<!-- u12&#45;&gt;u38 -->
<g id="edge25" class="edge">
<title>u12&#45;&gt;u38</title>
<path fill="none" stroke="black" d="M5859.82,-2893.1C5934.9,-2846.66 6126.35,-2713.61 6044.22,-2609 5929.5,-2462.89 5378.74,-2387.05 5108.89,-2358.14"/>
<polygon fill="black" stroke="black" points="5108.93,-2354.62 5098.62,-2357.04 5108.19,-2361.58 5108.93,-2354.62"/>
</g>
<!-- u11&#45;&gt;u44 -->
<g id="edge24" class="edge">
<title>u11&#45;&gt;u44</title>
<path fill="none" stroke="black" d="M5010.19,-2893.52C5161.39,-2844.62 5607,-2700.51 5770.33,-2647.69"/>
<polygon fill="black" stroke="black" points="5771.77,-2650.9 5780.21,-2644.5 5769.62,-2644.24 5771.77,-2650.9"/>
</g>
<!-- u11&#45;&gt;u40 -->
<g id="edge23" class="edge">
<title>u11&#45;&gt;u40</title>
<path fill="none" stroke="black" d="M4904.15,-2893.62C4739.81,-2844.73 4253.29,-2700.01 4076.43,-2647.4"/>
<polygon fill="black" stroke="black" points="4077.32,-2644.01 4066.73,-2644.51 4075.32,-2650.72 4077.32,-2644.01"/>
</g>
<!-- u11&#45;&gt;u39 -->
<g id="edge22" class="edge">
<title>u11&#45;&gt;u39</title>
<path fill="none" stroke="black" d="M4817.04,-2898.19C4659.95,-2876.68 4413.91,-2816.02 4298.22,-2645 4234.91,-2551.42 4347.63,-2421.74 4401.23,-2368.4"/>
<polygon fill="black" stroke="black" points="4403.99,-2370.6 4408.68,-2361.1 4399.09,-2365.6 4403.99,-2370.6"/>
</g>
<!-- u11&#45;&gt;u35 -->
<g id="edge21" class="edge">
<title>u11&#45;&gt;u35</title>
<path fill="none" stroke="black" d="M4932.38,-2892.99C4855.8,-2844.46 4636.16,-2705.27 4549.75,-2650.52"/>
<polygon fill="black" stroke="black" points="4551.41,-2647.42 4541.09,-2645.03 4547.66,-2653.34 4551.41,-2647.42"/>
</g>
<!-- u11&#45;&gt;u31 -->
<g id="edge20" class="edge">
<title>u11&#45;&gt;u31</title>
<path fill="none" stroke="black" d="M4959.22,-2892.78C4959.22,-2845.49 4959.22,-2713.26 4959.22,-2655.54"/>
<polygon fill="black" stroke="black" points="4962.72,-2655.35 4959.22,-2645.35 4955.72,-2655.35 4962.72,-2655.35"/>
</g>
<!-- u11&#45;&gt;u27 -->
<g id="edge19" class="edge">
<title>u11&#45;&gt;u27</title>
<path fill="none" stroke="black" d="M4985.99,-2892.99C5062.41,-2844.46 5281.56,-2705.27 5367.77,-2650.52"/>
<polygon fill="black" stroke="black" points="5369.84,-2653.34 5376.41,-2645.03 5366.09,-2647.43 5369.84,-2653.34"/>
</g>
<!-- u10&#45;&gt;u9 -->
<g id="edge18" class="edge">
<title>u10&#45;&gt;u9</title>
<path fill="none" stroke="black" d="M6335.16,-2325.41C6184.75,-2272.06 5747.22,-2089.91 5747.22,-1776 5747.22,-1776 5747.22,-1776 5747.22,-1206 5747.22,-765.94 5064.97,-667.96 4746.46,-646.19"/>
<polygon fill="black" stroke="black" points="4746.43,-642.68 4736.22,-645.51 4745.96,-649.66 4746.43,-642.68"/>
</g>
<!-- u37 -->
<g id="node45" class="node">
<title>u37</title>
<ellipse fill="#ffff77" stroke="black" cx="2793.22" cy="-2627" rx="215.56" ry="18"/>
<text text-anchor="middle" x="2793.22" y="-2623.3" font-family="Times,serif" font-size="14.00">Language.Drasil.Code.Imperative.Build.AST</text>
</g>
<!-- u36 -->
<g id="node46" class="node">
<title>u36</title>
<ellipse fill="#ffff77" stroke="black" cx="2793.22" cy="-2911" rx="228.56" ry="18"/>
<text text-anchor="middle" x="2793.22" y="-2907.3" font-family="Times,serif" font-size="14.00">Language.Drasil.Code.Imperative.Build.Import</text>
</g>
<!-- u36&#45;&gt;u37 -->
<g id="edge67" class="edge">
<title>u36&#45;&gt;u37</title>
<path fill="none" stroke="black" d="M2793.22,-2892.78C2793.22,-2845.49 2793.22,-2713.26 2793.22,-2655.54"/>
<polygon fill="black" stroke="black" points="2796.72,-2655.35 2793.22,-2645.35 2789.72,-2655.35 2796.72,-2655.35"/>
</g>
<!-- u16 -->
<g id="node47" class="node">
<title>u16</title>
<ellipse fill="#7777ff" stroke="black" cx="2657.22" cy="-2059" rx="245.06" ry="18"/>
<text text-anchor="middle" x="2657.22" y="-2055.3" font-family="Times,serif" font-size="14.00">Language.Drasil.Code.Imperative.Doxygen.Import</text>
</g>
<!-- u16&#45;&gt;u50 -->
<g id="edge35" class="edge">
<title>u16&#45;&gt;u50</title>
<path fill="none" stroke="black" d="M2725.96,-2041.72C2935.16,-1992.19 3562.73,-1843.6 3776.21,-1793.05"/>
<polygon fill="black" stroke="black" points="3777.13,-1796.43 3786.06,-1790.72 3775.52,-1789.62 3777.13,-1796.43"/>
</g>
<!-- u18&#45;&gt;u30 -->
<g id="edge36" class="edge">
<title>u18&#45;&gt;u30</title>
<path fill="none" stroke="black" d="M3901.74,-2324.78C3892.16,-2277.39 3865.34,-2144.71 3853.71,-2087.18"/>
<polygon fill="black" stroke="black" points="3857.14,-2086.46 3851.73,-2077.35 3850.28,-2087.84 3857.14,-2086.46"/>
</g>
<!-- u25&#45;&gt;u26 -->
<g id="edge54" class="edge">
<title>u25&#45;&gt;u26</title>
<path fill="none" stroke="black" d="M3997.26,-3460.16C3845.8,-3411.07 3405.26,-3268.29 3243.07,-3215.72"/>
<polygon fill="black" stroke="black" points="3243.85,-3212.3 3233.26,-3212.54 3241.69,-3218.96 3243.85,-3212.3"/>
</g>
<!-- u19 -->
<g id="node57" class="node">
<title>u19</title>
<ellipse fill="#77ffff" stroke="black" cx="2548.22" cy="-3195" rx="393.73" ry="18"/>
<text text-anchor="middle" x="2548.22" y="-3191.3" font-family="Times,serif" font-size="14.00">Language.Drasil.Code.Imperative.GOOL.LanguageRenderer.LanguagePolymorphic</text>
</g>
<!-- u25&#45;&gt;u19 -->
<g id="edge53" class="edge">
<title>u25&#45;&gt;u19</title>
<path fill="none" stroke="black" d="M3961.2,-3460.52C3698.76,-3411.39 2922.77,-3266.12 2646.91,-3214.48"/>
<polygon fill="black" stroke="black" points="2647.39,-3211.01 2636.92,-3212.61 2646.1,-3217.89 2647.39,-3211.01"/>
</g>
<!-- u24&#45;&gt;u26 -->
<g id="edge52" class="edge">
<title>u24&#45;&gt;u26</title>
<path fill="none" stroke="black" d="M507.52,-3461.77C1002.64,-3412.57 2554.78,-3258.34 3037.48,-3210.38"/>
<polygon fill="black" stroke="black" points="3038.04,-3213.84 3047.64,-3209.37 3037.35,-3206.88 3038.04,-3213.84"/>
</g>
<!-- u24&#45;&gt;u19 -->
<g id="edge51" class="edge">
<title>u24&#45;&gt;u19</title>
<path fill="none" stroke="black" d="M478.46,-3461.09C860.43,-3412.17 2015.55,-3264.22 2412.52,-3213.38"/>
<polygon fill="black" stroke="black" points="2413.14,-3216.83 2422.62,-3212.09 2412.25,-3209.89 2413.14,-3216.83"/>
</g>
<!-- u23&#45;&gt;u26 -->
<g id="edge50" class="edge">
<title>u23&#45;&gt;u26</title>
<path fill="none" stroke="black" d="M1212.66,-3460.93C1580.72,-3411.42 2694.93,-3261.55 3062.87,-3212.05"/>
<polygon fill="black" stroke="black" points="3063.57,-3215.49 3073.01,-3210.69 3062.64,-3208.55 3063.57,-3215.49"/>
</g>
<!-- u23&#45;&gt;u19 -->
<g id="edge49" class="edge">
<title>u23&#45;&gt;u19</title>
<path fill="none" stroke="black" d="M1178.8,-3460.47C1433.36,-3411.31 2184.6,-3266.23 2452.2,-3214.54"/>
<polygon fill="black" stroke="black" points="2453.13,-3217.93 2462.28,-3212.6 2451.8,-3211.06 2453.13,-3217.93"/>
</g>
<!-- u22&#45;&gt;u26 -->
<g id="edge48" class="edge">
<title>u22&#45;&gt;u26</title>
<path fill="none" stroke="black" d="M1911.18,-3460.37C2148.8,-3410.95 2849.33,-3265.24 3095.49,-3214.04"/>
<polygon fill="black" stroke="black" points="3096.38,-3217.43 3105.46,-3211.97 3094.96,-3210.57 3096.38,-3217.43"/>
</g>
<!-- u22&#45;&gt;u19 -->
<g id="edge47" class="edge">
<title>u22&#45;&gt;u19</title>
<path fill="none" stroke="black" d="M1874.46,-3460.06C1999.23,-3411.16 2359.65,-3269.9 2495.54,-3216.65"/>
<polygon fill="black" stroke="black" points="2496.89,-3219.87 2504.93,-3212.97 2494.34,-3213.36 2496.89,-3219.87"/>
</g>
<!-- u21&#45;&gt;u26 -->
<g id="edge46" class="edge">
<title>u21&#45;&gt;u26</title>
<path fill="none" stroke="black" d="M2608.06,-3460.06C2714.09,-3411.29 3019.8,-3270.7 3136.34,-3217.1"/>
<polygon fill="black" stroke="black" points="3138.09,-3220.15 3145.71,-3212.79 3135.16,-3213.79 3138.09,-3220.15"/>
</g>
<!-- u21&#45;&gt;u19 -->
<g id="edge45" class="edge">
<title>u21&#45;&gt;u19</title>
<path fill="none" stroke="black" d="M2569.81,-3459.85C2565.96,-3412.72 2555.17,-3280.96 2550.46,-3223.44"/>
<polygon fill="black" stroke="black" points="2553.94,-3222.97 2549.63,-3213.29 2546.96,-3223.54 2553.94,-3222.97"/>
</g>
<!-- u20&#45;&gt;u26 -->
<g id="edge44" class="edge">
<title>u20&#45;&gt;u26</title>
<path fill="none" stroke="black" d="M3308.98,-3459.85C3286.19,-3412.42 3222.24,-3279.31 3194.89,-3222.37"/>
<polygon fill="black" stroke="black" points="3198.01,-3220.79 3190.52,-3213.29 3191.7,-3223.82 3198.01,-3220.79"/>
</g>
<!-- u20&#45;&gt;u19 -->
<g id="edge43" class="edge">
<title>u20&#45;&gt;u19</title>
<path fill="none" stroke="black" d="M3270.85,-3460.06C3136.89,-3411.11 2749.69,-3269.62 2604.29,-3216.49"/>
<polygon fill="black" stroke="black" points="2605.25,-3213.11 2594.65,-3212.97 2602.84,-3219.69 2605.25,-3213.11"/>
</g>
<!-- u19&#45;&gt;u33 -->
<g id="edge41" class="edge">
<title>u19&#45;&gt;u33</title>
<path fill="none" stroke="black" d="M2622.56,-3177.2C2733.13,-3147.88 2937.87,-3075.93 3031.22,-2929 3103.1,-2815.86 3050.22,-2762.04 3050.22,-2628 3050.22,-2628 3050.22,-2628 3050.22,-1490 3050.22,-1236.46 3320.98,-1016.55 3416.41,-946.92"/>
<polygon fill="black" stroke="black" points="3418.51,-949.72 3424.56,-941.03 3414.41,-944.05 3418.51,-949.72"/>
</g>
<!-- u19&#45;&gt;u29 -->
<g id="edge40" class="edge">
<title>u19&#45;&gt;u29</title>
<path fill="none" stroke="black" d="M2619.62,-3177.23C2731.57,-3147.18 2947.62,-3073.34 3064.22,-2929 3156.76,-2814.44 3080.12,-2738.51 3150.22,-2609 3205.74,-2506.42 3308.44,-2410.88 3358.41,-2367.89"/>
<polygon fill="black" stroke="black" points="3360.91,-2370.35 3366.25,-2361.2 3356.37,-2365.03 3360.91,-2370.35"/>
</g>
<!-- u19&#45;&gt;u36 -->
<g id="edge42" class="edge">
<title>u19&#45;&gt;u36</title>
<path fill="none" stroke="black" d="M2563.18,-3176.78C2604.96,-3128.69 2723.06,-2992.75 2771.79,-2936.67"/>
<polygon fill="black" stroke="black" points="2774.54,-2938.83 2778.46,-2928.99 2769.26,-2934.24 2774.54,-2938.83"/>
</g>
<!-- u19&#45;&gt;u16 -->
<g id="edge37" class="edge">
<title>u19&#45;&gt;u16</title>
<path fill="none" stroke="black" d="M2548.48,-3176.69C2549.22,-3130.57 2551.5,-3000.88 2555.22,-2893 2559.58,-2766.72 2555.2,-2734.68 2568.22,-2609 2589.08,-2407.66 2635.46,-2167.91 2651.57,-2087.68"/>
<polygon fill="black" stroke="black" points="2655.09,-2087.94 2653.64,-2077.44 2648.23,-2086.55 2655.09,-2087.94"/>
</g>
<!-- u19&#45;&gt;u18 -->
<g id="edge39" class="edge">
<title>u19&#45;&gt;u18</title>
<path fill="none" stroke="black" d="M2588.52,-3177.08C2680.16,-3138.01 2910.17,-3036.6 3090.22,-2929 3414.14,-2735.42 3773.53,-2450.49 3876.34,-2367.49"/>
<polygon fill="black" stroke="black" points="3878.82,-2369.98 3884.4,-2360.97 3874.42,-2364.54 3878.82,-2369.98"/>
</g>
<!-- u19&#45;&gt;u17 -->
<g id="edge38" class="edge">
<title>u19&#45;&gt;u17</title>
<path fill="none" stroke="black" d="M2605.27,-3177.1C2771.81,-3127.77 3256.67,-2984.14 3434.14,-2931.57"/>
<polygon fill="black" stroke="black" points="3435.28,-2934.89 3443.88,-2928.69 3433.29,-2928.17 3435.28,-2934.89"/>
</g>
<!-- u30&#45;&gt;u50 -->
<g id="edge58" class="edge">
<title>u30&#45;&gt;u50</title>
<path fill="none" stroke="black" d="M3848.22,-2040.78C3848.22,-1993.49 3848.22,-1861.26 3848.22,-1803.54"/>
<polygon fill="black" stroke="black" points="3851.72,-1803.35 3848.22,-1793.35 3844.72,-1803.35 3851.72,-1803.35"/>
</g>
<!-- u52&#45;&gt;u54 -->
<g id="edge90" class="edge">
<title>u52&#45;&gt;u54</title>
<path fill="none" stroke="black" d="M4035.37,-1188.65C4024.22,-1116.64 3987.58,-835.04 4057.22,-621 4089.77,-520.97 4172.48,-424.09 4213.46,-380.31"/>
<polygon fill="black" stroke="black" points="4216.04,-382.68 4220.37,-373.01 4210.95,-377.87 4216.04,-382.68"/>
</g>
<!-- u51&#45;&gt;u46 -->
<g id="edge88" class="edge">
<title>u51&#45;&gt;u46</title>
<path fill="none" stroke="black" d="M3993.61,-1473.72C4144.32,-1425.04 4591.28,-1280.66 4755.13,-1227.73"/>
<polygon fill="black" stroke="black" points="4756.6,-1230.94 4765.04,-1224.53 4754.45,-1224.28 4756.6,-1230.94"/>
</g>
<!-- u51&#45;&gt;u45 -->
<g id="edge87" class="edge">
<title>u51&#45;&gt;u45</title>
<path fill="none" stroke="black" d="M3970.44,-1473.2C4048.93,-1424.77 4275.73,-1284.82 4364.24,-1230.2"/>
<polygon fill="black" stroke="black" points="4366.18,-1233.12 4372.85,-1224.89 4362.51,-1227.16 4366.18,-1233.12"/>
</g>
<!-- u51&#45;&gt;u42 -->
<g id="edge86" class="edge">
<title>u51&#45;&gt;u42</title>
<path fill="none" stroke="black" d="M3930.03,-1472.78C3893.27,-1424.78 3789.5,-1289.31 3746.38,-1233.01"/>
<polygon fill="black" stroke="black" points="3749.09,-1230.8 3740.23,-1224.99 3743.53,-1235.06 3749.09,-1230.8"/>
</g>
<!-- u51&#45;&gt;u52 -->
<g id="edge89" class="edge">
<title>u51&#45;&gt;u52</title>
<path fill="none" stroke="black" d="M3949.02,-1472.78C3965.02,-1425.28 4009.89,-1292.08 4029.2,-1234.77"/>
<polygon fill="black" stroke="black" points="4032.62,-1235.58 4032.49,-1224.99 4025.99,-1233.35 4032.62,-1235.58"/>
</g>
<!-- u1 -->
<g id="node61" class="node">
<title>u1</title>
<ellipse fill="#bbff77" stroke="black" cx="2285.22" cy="-4330" rx="108.58" ry="18"/>
<text text-anchor="middle" x="2285.22" y="-4326.3" font-family="Times,serif" font-size="14.00">drasil&#45;code.test.Main</text>
</g>
<!-- u1&#45;&gt;u6 -->
<g id="edge5" class="edge">
<title>u1&#45;&gt;u6</title>
<path fill="none" stroke="black" d="M2301.76,-4311.78C2348.19,-4263.47 2479.78,-4126.54 2533.23,-4070.93"/>
<polygon fill="black" stroke="black" points="2535.83,-4073.27 2540.23,-4063.64 2530.78,-4068.42 2535.83,-4073.27"/>
</g>
<!-- u1&#45;&gt;u5 -->
<g id="edge4" class="edge">
<title>u1&#45;&gt;u5</title>
<path fill="none" stroke="black" d="M2263.06,-4312.2C2199.18,-4263.78 2014.62,-4123.87 1942.55,-4069.23"/>
<polygon fill="black" stroke="black" points="1944.41,-4066.26 1934.33,-4063 1940.19,-4071.83 1944.41,-4066.26"/>
</g>
<!-- u1&#45;&gt;u2 -->
<g id="edge2" class="edge">
<title>u1&#45;&gt;u2</title>
<path fill="none" stroke="black" d="M2270.44,-4311.78C2229.07,-4263.57 2111.96,-4127.1 2064.04,-4071.27"/>
<polygon fill="black" stroke="black" points="2066.66,-4068.94 2057.49,-4063.64 2061.35,-4073.5 2066.66,-4068.94"/>
</g>
<!-- u1&#45;&gt;u0 -->
<g id="edge1" class="edge">
<title>u1&#45;&gt;u0</title>
<path fill="none" stroke="black" d="M2279.42,-4311.78C2263.41,-4264.28 2218.54,-4131.08 2199.24,-4073.77"/>
<polygon fill="black" stroke="black" points="2202.45,-4072.35 2195.94,-4063.99 2195.82,-4074.58 2202.45,-4072.35"/>
</g>
<!-- u1&#45;&gt;u3 -->
<g id="edge3" class="edge">
<title>u1&#45;&gt;u3</title>
<path fill="none" stroke="black" d="M2291.02,-4311.78C2307.02,-4264.28 2351.89,-4131.08 2371.2,-4073.77"/>
<polygon fill="black" stroke="black" points="2374.62,-4074.58 2374.49,-4063.99 2367.99,-4072.35 2374.62,-4074.58"/>
</g>
<!-- u1&#45;&gt;u8 -->
<g id="edge6" class="edge">
<title>u1&#45;&gt;u8</title>
<path fill="none" stroke="black" d="M2312.51,-4312.41C2392.05,-4264.07 2623.65,-4123.32 2713.24,-4068.86"/>
<polygon fill="black" stroke="black" points="2715.23,-4071.75 2721.96,-4063.57 2711.6,-4065.77 2715.23,-4071.75"/>
</g>
</g>
</svg>
