<?xml version="1.0" encoding="UTF-8" standalone="no"?>
<!DOCTYPE svg PUBLIC "-//W3C//DTD SVG 1.1//EN"
 "http://www.w3.org/Graphics/SVG/1.1/DTD/svg11.dtd">
<!-- Generated by graphviz version 2.43.0 (0)
 -->
<!-- Title: G Pages: 1 -->
<svg width="432pt" height="288pt"
 viewBox="0.00 0.00 431.69 288.00" xmlns="http://www.w3.org/2000/svg" xmlns:xlink="http://www.w3.org/1999/xlink">
<g id="graph0" class="graph" transform="scale(9.79 9.79) rotate(0) translate(4 2814.67)">
<title>G</title>
<polygon fill="white" stroke="transparent" points="-4,4 -4,-2814.67 4220.97,-2814.67 4220.97,4 -4,4"/>
<!-- u17 -->
<g id="node1" class="node">
<title>u17</title>
<ellipse fill="#bbffbb" stroke="black" cx="2530.94" cy="-2397" rx="81.79" ry="18"/>
<text text-anchor="middle" x="2530.94" y="-2393.3" font-family="Times,serif" font-size="14.00">Drasil.DocLang</text>
</g>
<!-- u13 -->
<g id="node5" class="node">
<title>u13</title>
<ellipse fill="#bbffbb" stroke="black" cx="2171.94" cy="-2067" rx="133.78" ry="18"/>
<text text-anchor="middle" x="2171.94" y="-2063.3" font-family="Times,serif" font-size="14.00">Drasil.DocumentLanguage</text>
</g>
<!-- u17&#45;&gt;u13 -->
<g id="edge39" class="edge">
<title>u17&#45;&gt;u13</title>
<path fill="none" stroke="black" d="M2512.64,-2379.28C2453.48,-2325.23 2267.2,-2155.03 2198.08,-2091.89"/>
<polygon fill="black" stroke="black" points="2200.37,-2089.24 2190.63,-2085.08 2195.65,-2094.41 2200.37,-2089.24"/>
</g>
<!-- u21 -->
<g id="node17" class="node">
<title>u21</title>
<ellipse fill="#ffbbbb" stroke="black" cx="3529.94" cy="-2067" rx="276.75" ry="18"/>
<text text-anchor="middle" x="3529.94" y="-2063.3" font-family="Times,serif" font-size="14.00">Drasil.DocumentLanguage.Notebook.DocumentLanguage</text>
</g>
<!-- u17&#45;&gt;u21 -->
<g id="edge40" class="edge">
<title>u17&#45;&gt;u21</title>
<path fill="none" stroke="black" d="M2574.51,-2381.7C2733.8,-2329.4 3284.88,-2148.46 3469.29,-2087.91"/>
<polygon fill="black" stroke="black" points="3470.42,-2091.23 3478.83,-2084.78 3468.24,-2084.57 3470.42,-2091.23"/>
</g>
<!-- u16 -->
<g id="node2" class="node">
<title>u16</title>
<ellipse fill="#bbffbb" stroke="black" cx="2502.94" cy="-1736" rx="116.18" ry="18"/>
<text text-anchor="middle" x="2502.94" y="-1732.3" font-family="Times,serif" font-size="14.00">Drasil.ExtractDocDesc</text>
</g>
<!-- u26 -->
<g id="node12" class="node">
<title>u26</title>
<ellipse fill="#bbbbff" stroke="black" cx="3366.94" cy="-1075" rx="159.47" ry="18"/>
<text text-anchor="middle" x="3366.94" y="-1071.3" font-family="Times,serif" font-size="14.00">Drasil.DocumentLanguage.Core</text>
</g>
<!-- u16&#45;&gt;u26 -->
<g id="edge38" class="edge">
<title>u16&#45;&gt;u26</title>
<path fill="none" stroke="black" d="M2597.36,-1725.36C2857.76,-1696.62 3576,-1602.24 3714.94,-1423 3821.3,-1285.78 3538.7,-1147.46 3418.28,-1096.49"/>
<polygon fill="black" stroke="black" points="3419.44,-1093.18 3408.87,-1092.54 3416.74,-1099.64 3419.44,-1093.18"/>
</g>
<!-- u11 -->
<g id="node19" class="node">
<title>u11</title>
<ellipse fill="#bbffff" stroke="black" cx="2480.94" cy="-1405" rx="207.96" ry="18"/>
<text text-anchor="middle" x="2480.94" y="-1401.3" font-family="Times,serif" font-size="14.00">Drasil.Sections.SpecificSystemDescription</text>
</g>
<!-- u16&#45;&gt;u11 -->
<g id="edge37" class="edge">
<title>u16&#45;&gt;u11</title>
<path fill="none" stroke="black" d="M2501.79,-1717.77C2498.19,-1664.03 2487.16,-1499.11 2482.77,-1433.42"/>
<polygon fill="black" stroke="black" points="2486.24,-1432.8 2482.08,-1423.05 2479.25,-1433.27 2486.24,-1432.8"/>
</g>
<!-- u15 -->
<g id="node3" class="node">
<title>u15</title>
<ellipse fill="#bbffbb" stroke="black" cx="3155.94" cy="-1736" rx="92.08" ry="18"/>
<text text-anchor="middle" x="3155.94" y="-1732.3" font-family="Times,serif" font-size="14.00">Drasil.TraceTable</text>
</g>
<!-- u15&#45;&gt;u26 -->
<g id="edge36" class="edge">
<title>u15&#45;&gt;u26</title>
<path fill="none" stroke="black" d="M3222.34,-1723.32C3351.7,-1696.58 3635.09,-1617.55 3752.94,-1423 3846.78,-1268.07 3555.26,-1142.5 3425.7,-1095.71"/>
<polygon fill="black" stroke="black" points="3426.51,-1092.28 3415.91,-1092.21 3424.15,-1098.87 3426.51,-1092.28"/>
</g>
<!-- u14 -->
<g id="node4" class="node">
<title>u14</title>
<ellipse fill="#bbffbb" stroke="black" cx="2288.94" cy="-1736" rx="79.09" ry="18"/>
<text text-anchor="middle" x="2288.94" y="-1732.3" font-family="Times,serif" font-size="14.00">Drasil.DocDecl</text>
</g>
<!-- u14&#45;&gt;u26 -->
<g id="edge35" class="edge">
<title>u14&#45;&gt;u26</title>
<path fill="none" stroke="black" d="M2345.6,-1723.31C2604.13,-1669.87 3660.19,-1450.16 3681.94,-1423 3785.71,-1293.41 3523.92,-1149.94 3413.4,-1097.06"/>
<polygon fill="black" stroke="black" points="3414.67,-1093.79 3404.14,-1092.67 3411.68,-1100.11 3414.67,-1093.79"/>
</g>
<!-- u10 -->
<g id="node20" class="node">
<title>u10</title>
<ellipse fill="#bbffff" stroke="black" cx="1732.94" cy="-1405" rx="149.47" ry="18"/>
<text text-anchor="middle" x="1732.94" y="-1401.3" font-family="Times,serif" font-size="14.00">Drasil.Sections.Requirements</text>
</g>
<!-- u14&#45;&gt;u10 -->
<g id="edge34" class="edge">
<title>u14&#45;&gt;u10</title>
<path fill="none" stroke="black" d="M2261.74,-1718.91C2170.44,-1664.88 1874.7,-1489.89 1770.05,-1427.96"/>
<polygon fill="black" stroke="black" points="1771.79,-1424.92 1761.4,-1422.84 1768.22,-1430.95 1771.79,-1424.92"/>
</g>
<!-- u13&#45;&gt;u16 -->
<g id="edge31" class="edge">
<title>u13&#45;&gt;u16</title>
<path fill="none" stroke="black" d="M2189.27,-2048.77C2244.23,-1994.14 2414.78,-1824.63 2478.55,-1761.24"/>
<polygon fill="black" stroke="black" points="2481.15,-1763.59 2485.78,-1754.05 2476.22,-1758.62 2481.15,-1763.59"/>
</g>
<!-- u13&#45;&gt;u15 -->
<g id="edge30" class="edge">
<title>u13&#45;&gt;u15</title>
<path fill="none" stroke="black" d="M2219.4,-2050.13C2383.69,-1995.2 2927.61,-1813.34 3101.78,-1755.11"/>
<polygon fill="black" stroke="black" points="3103.13,-1758.35 3111.5,-1751.86 3100.91,-1751.71 3103.13,-1758.35"/>
</g>
<!-- u13&#45;&gt;u14 -->
<g id="edge29" class="edge">
<title>u13&#45;&gt;u14</title>
<path fill="none" stroke="black" d="M2178.06,-2048.77C2197.25,-1994.81 2256.31,-1828.75 2279.47,-1763.61"/>
<polygon fill="black" stroke="black" points="2282.82,-1764.65 2282.87,-1754.05 2276.22,-1762.3 2282.82,-1764.65"/>
</g>
<!-- u20 -->
<g id="node7" class="node">
<title>u20</title>
<ellipse fill="#ffffbb" stroke="black" cx="2054.94" cy="-1736" rx="136.48" ry="18"/>
<text text-anchor="middle" x="2054.94" y="-1732.3" font-family="Times,serif" font-size="14.00">Drasil.DocLang.References</text>
</g>
<!-- u13&#45;&gt;u20 -->
<g id="edge32" class="edge">
<title>u13&#45;&gt;u20</title>
<path fill="none" stroke="black" d="M2165.81,-2048.77C2146.62,-1994.81 2087.56,-1828.75 2064.4,-1763.61"/>
<polygon fill="black" stroke="black" points="2067.65,-1762.3 2061,-1754.05 2061.06,-1764.65 2067.65,-1762.3"/>
</g>
<!-- u25 -->
<g id="node13" class="node">
<title>u25</title>
<ellipse fill="#bbbbff" stroke="black" cx="1607.94" cy="-1736" rx="220.96" ry="18"/>
<text text-anchor="middle" x="1607.94" y="-1732.3" font-family="Times,serif" font-size="14.00">Drasil.DocumentLanguage.TraceabilityGraph</text>
</g>
<!-- u13&#45;&gt;u25 -->
<g id="edge33" class="edge">
<title>u13&#45;&gt;u25</title>
<path fill="none" stroke="black" d="M2143.19,-2049.23C2049.29,-1994.46 1751.54,-1820.77 1645.72,-1759.04"/>
<polygon fill="black" stroke="black" points="1647.36,-1755.95 1636.96,-1753.93 1643.84,-1761.99 1647.36,-1755.95"/>
</g>
<!-- u12 -->
<g id="node18" class="node">
<title>u12</title>
<ellipse fill="#bbffff" stroke="black" cx="144.94" cy="-1736" rx="144.87" ry="18"/>
<text text-anchor="middle" x="144.94" y="-1732.3" font-family="Times,serif" font-size="14.00">Drasil.Sections.Stakeholders</text>
</g>
<!-- u13&#45;&gt;u12 -->
<g id="edge28" class="edge">
<title>u13&#45;&gt;u12</title>
<path fill="none" stroke="black" d="M2089.97,-2052.7C1766.98,-2000.27 583.24,-1808.14 239.26,-1752.31"/>
<polygon fill="black" stroke="black" points="239.76,-1748.85 229.33,-1750.7 238.64,-1755.75 239.76,-1748.85"/>
</g>
<!-- u9 -->
<g id="node21" class="node">
<title>u9</title>
<ellipse fill="#bbffff" stroke="black" cx="220.94" cy="-1405" rx="141.88" ry="18"/>
<text text-anchor="middle" x="220.94" y="-1401.3" font-family="Times,serif" font-size="14.00">Drasil.Sections.Introduction</text>
</g>
<!-- u13&#45;&gt;u9 -->
<g id="edge27" class="edge">
<title>u13&#45;&gt;u9</title>
<path fill="none" stroke="black" d="M2124.68,-2050.01C1860.41,-1960.61 567.31,-1523.17 278.3,-1425.41"/>
<polygon fill="black" stroke="black" points="279.04,-1421.96 268.45,-1422.07 276.8,-1428.59 279.04,-1421.96"/>
</g>
<!-- u6 -->
<g id="node24" class="node">
<title>u6</title>
<ellipse fill="#bbffff" stroke="black" cx="2867.94" cy="-1405" rx="161.37" ry="18"/>
<text text-anchor="middle" x="2867.94" y="-1401.3" font-family="Times,serif" font-size="14.00">Drasil.Sections.TableOfContents</text>
</g>
<!-- u13&#45;&gt;u6 -->
<g id="edge26" class="edge">
<title>u13&#45;&gt;u6</title>
<path fill="none" stroke="black" d="M2204.16,-2049.4C2283.07,-2007.66 2489.65,-1891.78 2627.94,-1754 2732.81,-1649.52 2821.42,-1493.64 2854.28,-1432.22"/>
<polygon fill="black" stroke="black" points="2857.48,-1433.67 2859.07,-1423.19 2851.29,-1430.39 2857.48,-1433.67"/>
</g>
<!-- u3 -->
<g id="node27" class="node">
<title>u3</title>
<ellipse fill="#bbffff" stroke="black" cx="581.94" cy="-1405" rx="163.27" ry="18"/>
<text text-anchor="middle" x="581.94" y="-1401.3" font-family="Times,serif" font-size="14.00">Drasil.Sections.GeneralSystDesc</text>
</g>
<!-- u13&#45;&gt;u3 -->
<g id="edge25" class="edge">
<title>u13&#45;&gt;u3</title>
<path fill="none" stroke="black" d="M2129.1,-2049.82C2009.64,-2004.56 1662.82,-1872.2 1377.94,-1754 1090.73,-1634.84 749.86,-1481.91 628.03,-1426.88"/>
<polygon fill="black" stroke="black" points="629.18,-1423.56 618.62,-1422.63 626.29,-1429.94 629.18,-1423.56"/>
</g>
<!-- u0 -->
<g id="node6" class="node">
<title>u0</title>
<ellipse fill="#bbffbb" stroke="black" cx="2530.94" cy="-2728" rx="108.58" ry="18"/>
<text text-anchor="middle" x="2530.94" y="-2724.3" font-family="Times,serif" font-size="14.00">Drasil.SRSDocument</text>
</g>
<!-- u0&#45;&gt;u17 -->
<g id="edge1" class="edge">
<title>u0&#45;&gt;u17</title>
<path fill="none" stroke="black" d="M2530.94,-2709.77C2530.94,-2656.03 2530.94,-2491.11 2530.94,-2425.42"/>
<polygon fill="black" stroke="black" points="2534.44,-2425.05 2530.94,-2415.05 2527.44,-2425.05 2534.44,-2425.05"/>
</g>
<!-- u20&#45;&gt;u11 -->
<g id="edge47" class="edge">
<title>u20&#45;&gt;u11</title>
<path fill="none" stroke="black" d="M2076.94,-1718C2147.63,-1663.41 2369.03,-1492.43 2450.47,-1429.53"/>
<polygon fill="black" stroke="black" points="2453.03,-1431.97 2458.81,-1423.09 2448.75,-1426.43 2453.03,-1431.97"/>
</g>
<!-- u20&#45;&gt;u10 -->
<g id="edge46" class="edge">
<title>u20&#45;&gt;u10</title>
<path fill="none" stroke="black" d="M2038.08,-1717.77C1984.61,-1663.14 1818.7,-1493.63 1756.67,-1430.24"/>
<polygon fill="black" stroke="black" points="1759.13,-1427.75 1749.63,-1423.05 1754.12,-1432.65 1759.13,-1427.75"/>
</g>
<!-- u8 -->
<g id="node22" class="node">
<title>u8</title>
<ellipse fill="#bbffff" stroke="black" cx="3527.94" cy="-1405" rx="144.87" ry="18"/>
<text text-anchor="middle" x="3527.94" y="-1401.3" font-family="Times,serif" font-size="14.00">Drasil.Sections.TableOfUnits</text>
</g>
<!-- u20&#45;&gt;u8 -->
<g id="edge45" class="edge">
<title>u20&#45;&gt;u8</title>
<path fill="none" stroke="black" d="M2121.09,-1720.22C2362.09,-1666.4 3192.42,-1480.94 3450.66,-1423.26"/>
<polygon fill="black" stroke="black" points="3451.71,-1426.61 3460.7,-1421.02 3450.18,-1419.78 3451.71,-1426.61"/>
</g>
<!-- u7 -->
<g id="node23" class="node">
<title>u7</title>
<ellipse fill="#bbffff" stroke="black" cx="3205.94" cy="-1405" rx="159.47" ry="18"/>
<text text-anchor="middle" x="3205.94" y="-1401.3" font-family="Times,serif" font-size="14.00">Drasil.Sections.TableOfSymbols</text>
</g>
<!-- u20&#45;&gt;u7 -->
<g id="edge44" class="edge">
<title>u20&#45;&gt;u7</title>
<path fill="none" stroke="black" d="M2109.29,-1719.46C2299.35,-1665.14 2933.77,-1483.79 3140.33,-1424.75"/>
<polygon fill="black" stroke="black" points="3141.47,-1428.07 3150.13,-1421.95 3139.55,-1421.34 3141.47,-1428.07"/>
</g>
<!-- u5 -->
<g id="node25" class="node">
<title>u5</title>
<ellipse fill="#bbffff" stroke="black" cx="2077.94" cy="-1405" rx="177.37" ry="18"/>
<text text-anchor="middle" x="2077.94" y="-1401.3" font-family="Times,serif" font-size="14.00">Drasil.Sections.TraceabilityMandGs</text>
</g>
<!-- u20&#45;&gt;u5 -->
<g id="edge43" class="edge">
<title>u20&#45;&gt;u5</title>
<path fill="none" stroke="black" d="M2056.14,-1717.77C2059.9,-1664.03 2071.43,-1499.11 2076.02,-1433.42"/>
<polygon fill="black" stroke="black" points="2079.54,-1433.27 2076.74,-1423.05 2072.56,-1432.79 2079.54,-1433.27"/>
</g>
<!-- u2 -->
<g id="node28" class="node">
<title>u2</title>
<ellipse fill="#bbffff" stroke="black" cx="1363.94" cy="-1405" rx="201.46" ry="18"/>
<text text-anchor="middle" x="1363.94" y="-1401.3" font-family="Times,serif" font-size="14.00">Drasil.Sections.TableOfAbbAndAcronyms</text>
</g>
<!-- u20&#45;&gt;u2 -->
<g id="edge42" class="edge">
<title>u20&#45;&gt;u2</title>
<path fill="none" stroke="black" d="M2020.2,-1718.46C1905.12,-1663.67 1536.45,-1488.14 1408.32,-1427.13"/>
<polygon fill="black" stroke="black" points="1409.69,-1423.91 1399.16,-1422.77 1406.68,-1430.23 1409.69,-1423.91"/>
</g>
<!-- u1 -->
<g id="node29" class="node">
<title>u1</title>
<ellipse fill="#bbffff" stroke="black" cx="934.94" cy="-1405" rx="172.47" ry="18"/>
<text text-anchor="middle" x="934.94" y="-1401.3" font-family="Times,serif" font-size="14.00">Drasil.Sections.AuxiliaryConstants</text>
</g>
<!-- u20&#45;&gt;u1 -->
<g id="edge41" class="edge">
<title>u20&#45;&gt;u1</title>
<path fill="none" stroke="black" d="M2001.67,-1719.35C1816.56,-1664.98 1201.53,-1484.31 999.71,-1425.03"/>
<polygon fill="black" stroke="black" points="1000.43,-1421.59 989.84,-1422.13 998.45,-1428.31 1000.43,-1421.59"/>
</g>
<!-- u19 -->
<g id="node8" class="node">
<title>u19</title>
<ellipse fill="#ffffbb" stroke="black" cx="3529.94" cy="-1736" rx="129.18" ry="18"/>
<text text-anchor="middle" x="3529.94" y="-1732.3" font-family="Times,serif" font-size="14.00">Drasil.DocLang.Notebook</text>
</g>
<!-- u18 -->
<g id="node9" class="node">
<title>u18</title>
<ellipse fill="#ffffbb" stroke="black" cx="983.94" cy="-1075" rx="104.78" ry="18"/>
<text text-anchor="middle" x="983.94" y="-1071.3" font-family="Times,serif" font-size="14.00">Drasil.DocLang.SRS</text>
</g>
<!-- u28 -->
<g id="node10" class="node">
<title>u28</title>
<ellipse fill="#bbbbff" stroke="black" cx="1512.94" cy="-83" rx="162.47" ry="18"/>
<text text-anchor="middle" x="1512.94" y="-79.3" font-family="Times,serif" font-size="14.00">Drasil.DocumentLanguage.Units</text>
</g>
<!-- u27 -->
<g id="node11" class="node">
<title>u27</title>
<ellipse fill="#bbbbff" stroke="black" cx="3094.94" cy="-744" rx="223.66" ry="18"/>
<text text-anchor="middle" x="3094.94" y="-740.3" font-family="Times,serif" font-size="14.00">Drasil.DocumentLanguage.TraceabilityMatrix</text>
</g>
<!-- u24 -->
<g id="node14" class="node">
<title>u24</title>
<ellipse fill="#bbbbff" stroke="black" cx="2046.94" cy="-413" rx="187.37" ry="18"/>
<text text-anchor="middle" x="2046.94" y="-409.3" font-family="Times,serif" font-size="14.00">Drasil.DocumentLanguage.Definitions</text>
</g>
<!-- u27&#45;&gt;u24 -->
<g id="edge56" class="edge">
<title>u27&#45;&gt;u24</title>
<path fill="none" stroke="black" d="M3042.25,-726.46C2866.09,-671.16 2298.09,-492.84 2108.9,-433.45"/>
<polygon fill="black" stroke="black" points="2109.7,-430.03 2099.11,-430.38 2107.6,-436.71 2109.7,-430.03"/>
</g>
<!-- u26&#45;&gt;u27 -->
<g id="edge55" class="edge">
<title>u26&#45;&gt;u27</title>
<path fill="none" stroke="black" d="M3352.7,-1056.77C3307.71,-1002.37 3168.52,-834.01 3115.62,-770.02"/>
<polygon fill="black" stroke="black" points="3118.11,-767.53 3109.04,-762.05 3112.71,-771.99 3118.11,-767.53"/>
</g>
<!-- u25&#45;&gt;u18 -->
<g id="edge54" class="edge">
<title>u25&#45;&gt;u18</title>
<path fill="none" stroke="black" d="M1480.7,-1721.25C1199.87,-1688 541.5,-1593.21 409.94,-1423 265.03,-1235.52 713.14,-1126.85 903.09,-1090.15"/>
<polygon fill="black" stroke="black" points="903.87,-1093.56 913.03,-1088.25 902.55,-1086.69 903.87,-1093.56"/>
</g>
<!-- u25&#45;&gt;u5 -->
<g id="edge53" class="edge">
<title>u25&#45;&gt;u5</title>
<path fill="none" stroke="black" d="M1632.22,-1718C1710.53,-1663.18 1956.53,-1490.99 2045.45,-1428.74"/>
<polygon fill="black" stroke="black" points="2047.62,-1431.5 2053.8,-1422.89 2043.6,-1425.76 2047.62,-1431.5"/>
</g>
<!-- u4 -->
<g id="node26" class="node">
<title>u4</title>
<ellipse fill="#bbffff" stroke="black" cx="1314.94" cy="-1075" rx="170.07" ry="18"/>
<text text-anchor="middle" x="1314.94" y="-1071.3" font-family="Times,serif" font-size="14.00">Drasil.Sections.ReferenceMaterial</text>
</g>
<!-- u25&#45;&gt;u4 -->
<g id="edge52" class="edge">
<title>u25&#45;&gt;u4</title>
<path fill="none" stroke="black" d="M1557.68,-1718.41C1458.74,-1682.68 1240.77,-1588.04 1153.94,-1423 1091.49,-1304.32 1227.74,-1156.96 1288.07,-1100.01"/>
<polygon fill="black" stroke="black" points="1290.78,-1102.28 1295.71,-1092.9 1286.01,-1097.15 1290.78,-1102.28"/>
</g>
<!-- u24&#45;&gt;u28 -->
<g id="edge51" class="edge">
<title>u24&#45;&gt;u28</title>
<path fill="none" stroke="black" d="M2019.35,-395.06C1930.1,-340.24 1649.19,-167.69 1548.93,-106.11"/>
<polygon fill="black" stroke="black" points="1550.71,-103.09 1540.36,-100.84 1547.05,-109.06 1550.71,-103.09"/>
</g>
<!-- u23 -->
<g id="node15" class="node">
<title>u23</title>
<ellipse fill="#ffbbbb" stroke="black" cx="4010.94" cy="-1405" rx="206.06" ry="18"/>
<text text-anchor="middle" x="4010.94" y="-1401.3" font-family="Times,serif" font-size="14.00">Drasil.DocumentLanguage.Notebook.Core</text>
</g>
<!-- u22 -->
<g id="node16" class="node">
<title>u22</title>
<ellipse fill="#ffbbbb" stroke="black" cx="3965.94" cy="-1736" rx="221.76" ry="18"/>
<text text-anchor="middle" x="3965.94" y="-1732.3" font-family="Times,serif" font-size="14.00">Drasil.DocumentLanguage.Notebook.LsnDecl</text>
</g>
<!-- u22&#45;&gt;u23 -->
<g id="edge50" class="edge">
<title>u22&#45;&gt;u23</title>
<path fill="none" stroke="black" d="M3968.29,-1717.77C3975.66,-1663.92 3998.29,-1498.43 4007.24,-1433.01"/>
<polygon fill="black" stroke="black" points="4010.72,-1433.44 4008.6,-1423.05 4003.78,-1432.49 4010.72,-1433.44"/>
</g>
<!-- u21&#45;&gt;u19 -->
<g id="edge48" class="edge">
<title>u21&#45;&gt;u19</title>
<path fill="none" stroke="black" d="M3529.94,-2048.77C3529.94,-1995.03 3529.94,-1830.11 3529.94,-1764.42"/>
<polygon fill="black" stroke="black" points="3533.44,-1764.05 3529.94,-1754.05 3526.44,-1764.05 3533.44,-1764.05"/>
</g>
<!-- u21&#45;&gt;u22 -->
<g id="edge49" class="edge">
<title>u21&#45;&gt;u22</title>
<path fill="none" stroke="black" d="M3552.46,-2049C3624.95,-1994.3 3852.32,-1822.73 3935.26,-1760.15"/>
<polygon fill="black" stroke="black" points="3937.41,-1762.91 3943.29,-1754.09 3933.2,-1757.32 3937.41,-1762.91"/>
</g>
<!-- u12&#45;&gt;u18 -->
<g id="edge24" class="edge">
<title>u12&#45;&gt;u18</title>
<path fill="none" stroke="black" d="M132.81,-1717.9C96.11,-1663.87 -6.7,-1494.03 69.94,-1387 170.64,-1246.36 703.05,-1130.35 905.61,-1090.67"/>
<polygon fill="black" stroke="black" points="906.44,-1094.07 915.59,-1088.72 905.1,-1087.2 906.44,-1094.07"/>
</g>
<!-- u11&#45;&gt;u18 -->
<g id="edge22" class="edge">
<title>u11&#45;&gt;u18</title>
<path fill="none" stroke="black" d="M2408.48,-1388.12C2154.85,-1332.55 1308.73,-1147.16 1055.89,-1091.77"/>
<polygon fill="black" stroke="black" points="1056.6,-1088.34 1046.08,-1089.62 1055.1,-1095.17 1056.6,-1088.34"/>
</g>
<!-- u11&#45;&gt;u24 -->
<g id="edge23" class="edge">
<title>u11&#45;&gt;u24</title>
<path fill="none" stroke="black" d="M2473.4,-1386.82C2421.91,-1269.34 2121.91,-585.01 2058.65,-440.71"/>
<polygon fill="black" stroke="black" points="2061.73,-439.02 2054.51,-431.27 2055.32,-441.83 2061.73,-439.02"/>
</g>
<!-- u11&#45;&gt;u4 -->
<g id="edge21" class="edge">
<title>u11&#45;&gt;u4</title>
<path fill="none" stroke="black" d="M2422.72,-1387.62C2226.58,-1332.45 1590.57,-1153.54 1381.92,-1094.84"/>
<polygon fill="black" stroke="black" points="1382.59,-1091.39 1372.01,-1092.06 1380.69,-1098.13 1382.59,-1091.39"/>
</g>
<!-- u10&#45;&gt;u18 -->
<g id="edge19" class="edge">
<title>u10&#45;&gt;u18</title>
<path fill="none" stroke="black" d="M1695.28,-1387.51C1569.84,-1332.58 1166.4,-1155.91 1029.72,-1096.05"/>
<polygon fill="black" stroke="black" points="1030.91,-1092.75 1020.34,-1091.94 1028.1,-1099.16 1030.91,-1092.75"/>
</g>
<!-- u10&#45;&gt;u28 -->
<g id="edge20" class="edge">
<title>u10&#45;&gt;u28</title>
<path fill="none" stroke="black" d="M1730.08,-1386.83C1706.64,-1246.23 1546.49,-285.34 1517.45,-111.08"/>
<polygon fill="black" stroke="black" points="1520.9,-110.47 1515.8,-101.18 1513.99,-111.62 1520.9,-110.47"/>
</g>
<!-- u10&#45;&gt;u4 -->
<g id="edge18" class="edge">
<title>u10&#45;&gt;u4</title>
<path fill="none" stroke="black" d="M1711.34,-1387.06C1641.98,-1332.63 1424.74,-1162.16 1344.83,-1099.45"/>
<polygon fill="black" stroke="black" points="1346.68,-1096.46 1336.65,-1093.04 1342.36,-1101.97 1346.68,-1096.46"/>
</g>
<!-- u9&#45;&gt;u18 -->
<g id="edge16" class="edge">
<title>u9&#45;&gt;u18</title>
<path fill="none" stroke="black" d="M259.04,-1387.62C386.5,-1332.83 797.87,-1155.99 937.25,-1096.07"/>
<polygon fill="black" stroke="black" points="939.01,-1099.12 946.81,-1091.96 936.24,-1092.69 939.01,-1099.12"/>
</g>
<!-- u9&#45;&gt;u24 -->
<g id="edge17" class="edge">
<title>u9&#45;&gt;u24</title>
<path fill="none" stroke="black" d="M251.86,-1387.23C468.87,-1269.58 1761.58,-568.71 2006.8,-435.76"/>
<polygon fill="black" stroke="black" points="2008.61,-438.76 2015.73,-430.92 2005.27,-432.61 2008.61,-438.76"/>
</g>
<!-- u9&#45;&gt;u4 -->
<g id="edge15" class="edge">
<title>u9&#45;&gt;u4</title>
<path fill="none" stroke="black" d="M273.7,-1388.18C455.34,-1333.72 1054.38,-1154.12 1251.46,-1095.03"/>
<polygon fill="black" stroke="black" points="1252.52,-1098.37 1261.1,-1092.14 1250.51,-1091.66 1252.52,-1098.37"/>
</g>
<!-- u8&#45;&gt;u26 -->
<g id="edge14" class="edge">
<title>u8&#45;&gt;u26</title>
<path fill="none" stroke="black" d="M3519.51,-1386.83C3493.04,-1332.91 3411.5,-1166.79 3379.76,-1102.13"/>
<polygon fill="black" stroke="black" points="3382.83,-1100.44 3375.28,-1093 3376.55,-1103.52 3382.83,-1100.44"/>
</g>
<!-- u8&#45;&gt;u4 -->
<g id="edge13" class="edge">
<title>u8&#45;&gt;u4</title>
<path fill="none" stroke="black" d="M3438.79,-1390.79C3087.22,-1338.68 1797.67,-1147.55 1419.7,-1091.53"/>
<polygon fill="black" stroke="black" points="1420,-1088.03 1409.6,-1090.03 1418.98,-1094.96 1420,-1088.03"/>
</g>
<!-- u7&#45;&gt;u26 -->
<g id="edge12" class="edge">
<title>u7&#45;&gt;u26</title>
<path fill="none" stroke="black" d="M3214.37,-1386.83C3240.83,-1332.91 3322.37,-1166.79 3354.11,-1102.13"/>
<polygon fill="black" stroke="black" points="3357.33,-1103.52 3358.59,-1093 3351.04,-1100.44 3357.33,-1103.52"/>
</g>
<!-- u7&#45;&gt;u4 -->
<g id="edge11" class="edge">
<title>u7&#45;&gt;u4</title>
<path fill="none" stroke="black" d="M3122.86,-1389.59C2814.37,-1336.08 1735.72,-1148.99 1409.26,-1092.36"/>
<polygon fill="black" stroke="black" points="1409.81,-1088.9 1399.36,-1090.64 1408.62,-1095.8 1409.81,-1088.9"/>
</g>
<!-- u6&#45;&gt;u18 -->
<g id="edge9" class="edge">
<title>u6&#45;&gt;u18</title>
<path fill="none" stroke="black" d="M2784.86,-1389.54C2472.83,-1335.21 1373.02,-1143.74 1064.78,-1090.07"/>
<polygon fill="black" stroke="black" points="1065.04,-1086.57 1054.59,-1088.3 1063.84,-1093.46 1065.04,-1086.57"/>
</g>
<!-- u6&#45;&gt;u26 -->
<g id="edge10" class="edge">
<title>u6&#45;&gt;u26</title>
<path fill="none" stroke="black" d="M2893.71,-1387.06C2976.95,-1332.35 3238.56,-1160.38 3332.73,-1098.48"/>
<polygon fill="black" stroke="black" points="3334.88,-1101.26 3341.31,-1092.84 3331.03,-1095.41 3334.88,-1101.26"/>
</g>
<!-- u5&#45;&gt;u26 -->
<g id="edge8" class="edge">
<title>u5&#45;&gt;u26</title>
<path fill="none" stroke="black" d="M2140.54,-1388.07C2356.15,-1333.21 3067.15,-1152.28 3295.59,-1094.15"/>
<polygon fill="black" stroke="black" points="3296.63,-1097.5 3305.46,-1091.64 3294.9,-1090.72 3296.63,-1097.5"/>
</g>
<!-- u3&#45;&gt;u18 -->
<g id="edge7" class="edge">
<title>u3&#45;&gt;u18</title>
<path fill="none" stroke="black" d="M602.7,-1387.06C669.41,-1332.63 878.33,-1162.16 955.19,-1099.45"/>
<polygon fill="black" stroke="black" points="957.52,-1102.07 963.05,-1093.04 953.09,-1096.65 957.52,-1102.07"/>
</g>
<!-- u3&#45;&gt;u4 -->
<g id="edge6" class="edge">
<title>u3&#45;&gt;u4</title>
<path fill="none" stroke="black" d="M619.04,-1387.4C741.53,-1332.58 1132.91,-1157.45 1268.32,-1096.86"/>
<polygon fill="black" stroke="black" points="1269.92,-1099.98 1277.61,-1092.7 1267.06,-1093.59 1269.92,-1099.98"/>
</g>
<!-- u2&#45;&gt;u4 -->
<g id="edge5" class="edge">
<title>u2&#45;&gt;u4</title>
<path fill="none" stroke="black" d="M1361.37,-1386.83C1353.35,-1333.14 1328.7,-1168.15 1318.96,-1102.93"/>
<polygon fill="black" stroke="black" points="1322.42,-1102.38 1317.48,-1093 1315.49,-1103.41 1322.42,-1102.38"/>
</g>
<!-- u1&#45;&gt;u18 -->
<g id="edge3" class="edge">
<title>u1&#45;&gt;u18</title>
<path fill="none" stroke="black" d="M937.5,-1386.83C945.52,-1333.14 970.17,-1168.15 979.91,-1102.93"/>
<polygon fill="black" stroke="black" points="983.38,-1103.41 981.4,-1093 976.46,-1102.38 983.38,-1103.41"/>
</g>
<!-- u1&#45;&gt;u28 -->
<g id="edge4" class="edge">
<title>u1&#45;&gt;u28</title>
<path fill="none" stroke="black" d="M944.7,-1386.75C970.94,-1340.12 1044.59,-1207.36 1097.94,-1093 1276.52,-710.18 1458.91,-228.6 1502.94,-110.86"/>
<polygon fill="black" stroke="black" points="1506.33,-111.8 1506.54,-101.21 1499.77,-109.36 1506.33,-111.8"/>
</g>
<!-- u1&#45;&gt;u4 -->
<g id="edge2" class="edge">
<title>u1&#45;&gt;u4</title>
<path fill="none" stroke="black" d="M954.57,-1387.06C1017.49,-1332.74 1214.31,-1162.85 1287.32,-1099.84"/>
<polygon fill="black" stroke="black" points="1289.91,-1102.22 1295.2,-1093.04 1285.34,-1096.92 1289.91,-1102.22"/>
</g>
</g>
</svg>
