<?xml version="1.0" encoding="UTF-8" standalone="no"?>
<!DOCTYPE svg PUBLIC "-//W3C//DTD SVG 1.1//EN"
 "http://www.w3.org/Graphics/SVG/1.1/DTD/svg11.dtd">
<!-- Generated by graphviz version 2.43.0 (0)
 -->
<!-- Title: G Pages: 1 -->
<svg width="432pt" height="284pt"
 viewBox="0.00 0.00 432.00 283.53" xmlns="http://www.w3.org/2000/svg" xmlns:xlink="http://www.w3.org/1999/xlink">
<g id="graph0" class="graph" transform="scale(4.03 4.03) rotate(0) translate(4 1138.67)">
<title>G</title>
<polygon fill="white" stroke="transparent" points="-4,4 -4,-1138.67 1737.01,-1138.67 1737.01,4 -4,4"/>
<!-- u25 -->
<g id="node1" class="node">
<title>u25</title>
<ellipse fill="#bbffbb" stroke="black" cx="837.18" cy="-930" rx="123.48" ry="18"/>
<text text-anchor="middle" x="837.18" y="-926.3" font-family="Times,serif" font-size="14.00">Language.Drasil.Format</text>
</g>
<!-- u9 -->
<g id="node2" class="node">
<title>u9</title>
<ellipse fill="#bbffbb" stroke="black" cx="834.18" cy="-1112" rx="128.08" ry="18"/>
<text text-anchor="middle" x="834.18" y="-1108.3" font-family="Times,serif" font-size="14.00">Language.Drasil.Printers</text>
</g>
<!-- u7 -->
<g id="node4" class="node">
<title>u7</title>
<ellipse fill="#ffffbb" stroke="black" cx="401.18" cy="-1021" rx="135.68" ry="18"/>
<text text-anchor="middle" x="401.18" y="-1017.3" font-family="Times,serif" font-size="14.00">Language.Drasil.DOT.Print</text>
</g>
<!-- u9&#45;&gt;u7 -->
<g id="edge12" class="edge">
<title>u9&#45;&gt;u7</title>
<path fill="none" stroke="black" d="M765.09,-1096.8C687.93,-1080.94 563.19,-1055.3 481.68,-1038.54"/>
<polygon fill="black" stroke="black" points="481.96,-1035.03 471.46,-1036.45 480.55,-1041.89 481.96,-1035.03"/>
</g>
<!-- u5 -->
<g id="node10" class="node">
<title>u5</title>
<ellipse fill="#ffbbbb" stroke="black" cx="980.18" cy="-1021" rx="140.28" ry="18"/>
<text text-anchor="middle" x="980.18" y="-1017.3" font-family="Times,serif" font-size="14.00">Language.Drasil.JSON.Print</text>
</g>
<!-- u9&#45;&gt;u5 -->
<g id="edge11" class="edge">
<title>u9&#45;&gt;u5</title>
<path fill="none" stroke="black" d="M861.64,-1094.26C884.99,-1080.03 918.69,-1059.48 944.2,-1043.94"/>
<polygon fill="black" stroke="black" points="946.13,-1046.86 952.84,-1038.67 942.48,-1040.88 946.13,-1046.86"/>
</g>
<!-- u26 -->
<g id="node11" class="node">
<title>u26</title>
<ellipse fill="#bbffff" stroke="black" cx="688.18" cy="-1021" rx="133.48" ry="18"/>
<text text-anchor="middle" x="688.18" y="-1017.3" font-family="Times,serif" font-size="14.00">Language.Drasil.Log.Print</text>
</g>
<!-- u9&#45;&gt;u26 -->
<g id="edge14" class="edge">
<title>u9&#45;&gt;u26</title>
<path fill="none" stroke="black" d="M806.72,-1094.26C783.37,-1080.03 749.67,-1059.48 724.17,-1043.94"/>
<polygon fill="black" stroke="black" points="725.88,-1040.88 715.52,-1038.67 722.24,-1046.86 725.88,-1040.88"/>
</g>
<!-- u8 -->
<g id="node12" class="node">
<title>u8</title>
<ellipse fill="#ffbbff" stroke="black" cx="1327.18" cy="-1021" rx="188.47" ry="18"/>
<text text-anchor="middle" x="1327.18" y="-1017.3" font-family="Times,serif" font-size="14.00">Language.Drasil.Markdown.CreateMd</text>
</g>
<!-- u9&#45;&gt;u8 -->
<g id="edge13" class="edge">
<title>u9&#45;&gt;u8</title>
<path fill="none" stroke="black" d="M909.59,-1097.39C996.39,-1081.72 1139.02,-1055.97 1233.03,-1039"/>
<polygon fill="black" stroke="black" points="1233.89,-1042.4 1243.11,-1037.18 1232.64,-1035.51 1233.89,-1042.4"/>
</g>
<!-- u4 -->
<g id="node3" class="node">
<title>u4</title>
<ellipse fill="#bbffbb" stroke="black" cx="1396.18" cy="-567" rx="119.68" ry="18"/>
<text text-anchor="middle" x="1396.18" y="-563.3" font-family="Times,serif" font-size="14.00">Language.Drasil.Config</text>
</g>
<!-- u3 -->
<g id="node5" class="node">
<title>u3</title>
<ellipse fill="#bbbbff" stroke="black" cx="1228.18" cy="-840" rx="140.28" ry="18"/>
<text text-anchor="middle" x="1228.18" y="-836.3" font-family="Times,serif" font-size="14.00">Language.Drasil.HTML.CSS</text>
</g>
<!-- u2 -->
<g id="node6" class="node">
<title>u2</title>
<ellipse fill="#bbbbff" stroke="black" cx="916.18" cy="-840" rx="153.27" ry="18"/>
<text text-anchor="middle" x="916.18" y="-836.3" font-family="Times,serif" font-size="14.00">Language.Drasil.HTML.Monad</text>
</g>
<!-- u1 -->
<g id="node7" class="node">
<title>u1</title>
<ellipse fill="#bbbbff" stroke="black" cx="1544.18" cy="-840" rx="157.87" ry="18"/>
<text text-anchor="middle" x="1544.18" y="-836.3" font-family="Times,serif" font-size="14.00">Language.Drasil.HTML.Helpers</text>
</g>
<!-- u14 -->
<g id="node15" class="node">
<title>u14</title>
<ellipse fill="#ffff77" stroke="black" cx="778.18" cy="-23" rx="149.47" ry="18"/>
<text text-anchor="middle" x="778.18" y="-19.3" font-family="Times,serif" font-size="14.00">Language.Drasil.Printing.AST</text>
</g>
<!-- u1&#45;&gt;u14 -->
<g id="edge5" class="edge">
<title>u1&#45;&gt;u14</title>
<path fill="none" stroke="black" d="M1544.18,-821.88C1544.18,-789.88 1544.18,-718.84 1544.18,-659 1544.18,-659 1544.18,-659 1544.18,-203 1544.18,-78.33 1154.6,-40.44 931.1,-28.96"/>
<polygon fill="black" stroke="black" points="931.08,-25.46 920.91,-28.45 930.73,-32.45 931.08,-25.46"/>
</g>
<!-- u0 -->
<g id="node8" class="node">
<title>u0</title>
<ellipse fill="#bbbbff" stroke="black" cx="1123.18" cy="-930" rx="144.87" ry="18"/>
<text text-anchor="middle" x="1123.18" y="-926.3" font-family="Times,serif" font-size="14.00">Language.Drasil.HTML.Print</text>
</g>
<!-- u0&#45;&gt;u3 -->
<g id="edge3" class="edge">
<title>u0&#45;&gt;u3</title>
<path fill="none" stroke="black" d="M1143.43,-912.03C1159.55,-898.52 1182.3,-879.45 1200.17,-864.47"/>
<polygon fill="black" stroke="black" points="1202.58,-867.02 1208,-857.92 1198.09,-861.66 1202.58,-867.02"/>
</g>
<!-- u0&#45;&gt;u2 -->
<g id="edge2" class="edge">
<title>u0&#45;&gt;u2</title>
<path fill="none" stroke="black" d="M1084.25,-912.45C1050.27,-898.01 1000.85,-876.99 964.39,-861.49"/>
<polygon fill="black" stroke="black" points="965.52,-858.17 954.94,-857.48 962.78,-864.61 965.52,-858.17"/>
</g>
<!-- u0&#45;&gt;u1 -->
<g id="edge1" class="edge">
<title>u0&#45;&gt;u1</title>
<path fill="none" stroke="black" d="M1194.12,-914.17C1268.13,-898.7 1384.03,-874.48 1461.98,-858.18"/>
<polygon fill="black" stroke="black" points="1463.17,-861.51 1472.25,-856.04 1461.74,-854.66 1463.17,-861.51"/>
</g>
<!-- u28 -->
<g id="node32" class="node">
<title>u28</title>
<ellipse fill="#ff7777" stroke="black" cx="611.18" cy="-840" rx="133.48" ry="18"/>
<text text-anchor="middle" x="611.18" y="-836.3" font-family="Times,serif" font-size="14.00">Language.Drasil.TeX.Print</text>
</g>
<!-- u0&#45;&gt;u28 -->
<g id="edge4" class="edge">
<title>u0&#45;&gt;u28</title>
<path fill="none" stroke="black" d="M1042.05,-915.06C948.92,-899.05 796.62,-872.87 700.26,-856.31"/>
<polygon fill="black" stroke="black" points="700.7,-852.83 690.25,-854.59 699.51,-859.73 700.7,-852.83"/>
</g>
<!-- u6 -->
<g id="node9" class="node">
<title>u6</title>
<ellipse fill="#ffbbbb" stroke="black" cx="1544.18" cy="-930" rx="153.27" ry="18"/>
<text text-anchor="middle" x="1544.18" y="-926.3" font-family="Times,serif" font-size="14.00">Language.Drasil.JSON.Helpers</text>
</g>
<!-- u6&#45;&gt;u1 -->
<g id="edge9" class="edge">
<title>u6&#45;&gt;u1</title>
<path fill="none" stroke="black" d="M1544.18,-911.61C1544.18,-899.24 1544.18,-882.37 1544.18,-868.22"/>
<polygon fill="black" stroke="black" points="1547.68,-868.05 1544.18,-858.05 1540.68,-868.05 1547.68,-868.05"/>
</g>
<!-- u11 -->
<g id="node18" class="node">
<title>u11</title>
<ellipse fill="#ffff77" stroke="black" cx="1121.18" cy="-477" rx="167.07" ry="18"/>
<text text-anchor="middle" x="1121.18" y="-473.3" font-family="Times,serif" font-size="14.00">Language.Drasil.Printing.Helpers</text>
</g>
<!-- u6&#45;&gt;u11 -->
<g id="edge10" class="edge">
<title>u6&#45;&gt;u11</title>
<path fill="none" stroke="black" d="M1618.99,-914.19C1652.03,-903.87 1688.45,-886.61 1711.18,-858 1741.5,-819.84 1730.18,-798.74 1730.18,-750 1730.18,-750 1730.18,-750 1730.18,-657 1730.18,-558.64 1434.1,-510.42 1254.83,-490.24"/>
<polygon fill="black" stroke="black" points="1255.11,-486.75 1244.79,-489.13 1254.34,-493.71 1255.11,-486.75"/>
</g>
<!-- u5&#45;&gt;u25 -->
<g id="edge8" class="edge">
<title>u5&#45;&gt;u25</title>
<path fill="none" stroke="black" d="M953.29,-1003.26C930.52,-989.09 897.7,-968.66 872.76,-953.14"/>
<polygon fill="black" stroke="black" points="874.3,-949.98 863.96,-947.67 870.6,-955.92 874.3,-949.98"/>
</g>
<!-- u5&#45;&gt;u0 -->
<g id="edge6" class="edge">
<title>u5&#45;&gt;u0</title>
<path fill="none" stroke="black" d="M1007.08,-1003.26C1029.71,-989.18 1062.25,-968.92 1087.13,-953.44"/>
<polygon fill="black" stroke="black" points="1089.28,-956.22 1095.92,-947.97 1085.58,-950.28 1089.28,-956.22"/>
</g>
<!-- u5&#45;&gt;u6 -->
<g id="edge7" class="edge">
<title>u5&#45;&gt;u6</title>
<path fill="none" stroke="black" d="M1064.92,-1006.63C1167.21,-990.49 1338.86,-963.4 1446.58,-946.4"/>
<polygon fill="black" stroke="black" points="1447.15,-949.86 1456.48,-944.84 1446.06,-942.94 1447.15,-949.86"/>
</g>
<!-- u27 -->
<g id="node13" class="node">
<title>u27</title>
<ellipse fill="#77ff77" stroke="black" cx="503.18" cy="-930" rx="139.98" ry="18"/>
<text text-anchor="middle" x="503.18" y="-926.3" font-family="Times,serif" font-size="14.00">Language.Drasil.Plain.Print</text>
</g>
<!-- u26&#45;&gt;u27 -->
<g id="edge33" class="edge">
<title>u26&#45;&gt;u27</title>
<path fill="none" stroke="black" d="M653.82,-1003.47C623.67,-988.96 579.67,-967.79 546.99,-952.08"/>
<polygon fill="black" stroke="black" points="548.2,-948.78 537.68,-947.59 545.17,-955.08 548.2,-948.78"/>
</g>
<!-- u12 -->
<g id="node17" class="node">
<title>u12</title>
<ellipse fill="#ffff77" stroke="black" cx="472.18" cy="-749" rx="162.47" ry="18"/>
<text text-anchor="middle" x="472.18" y="-745.3" font-family="Times,serif" font-size="14.00">Language.Drasil.Printing.Import</text>
</g>
<!-- u27&#45;&gt;u12 -->
<g id="edge34" class="edge">
<title>u27&#45;&gt;u12</title>
<path fill="none" stroke="black" d="M492.36,-912C484.18,-898.09 473.63,-877.59 469.18,-858 463.04,-830.96 464.99,-799.14 467.74,-777.08"/>
<polygon fill="black" stroke="black" points="471.22,-777.48 469.12,-767.09 464.28,-776.52 471.22,-777.48"/>
</g>
<!-- u24 -->
<g id="node14" class="node">
<title>u24</title>
<ellipse fill="#ffff77" stroke="black" cx="779.18" cy="-567" rx="178.97" ry="18"/>
<text text-anchor="middle" x="779.18" y="-563.3" font-family="Times,serif" font-size="14.00">Language.Drasil.Printing.LayoutObj</text>
</g>
<!-- u10 -->
<g id="node19" class="node">
<title>u10</title>
<ellipse fill="#ffff77" stroke="black" cx="1121.18" cy="-386" rx="167.87" ry="18"/>
<text text-anchor="middle" x="1121.18" y="-382.3" font-family="Times,serif" font-size="14.00">Language.Drasil.Printing.Citation</text>
</g>
<!-- u24&#45;&gt;u10 -->
<g id="edge32" class="edge">
<title>u24&#45;&gt;u10</title>
<path fill="none" stroke="black" d="M802.54,-548.97C833.94,-526.55 891.97,-486.73 945.18,-459 983.98,-438.78 1029.78,-420.2 1064.94,-406.98"/>
<polygon fill="black" stroke="black" points="1066.4,-410.16 1074.55,-403.39 1063.96,-403.6 1066.4,-410.16"/>
</g>
<!-- u13 -->
<g id="node16" class="node">
<title>u13</title>
<ellipse fill="#ffff77" stroke="black" cx="874.18" cy="-113" rx="223.66" ry="18"/>
<text text-anchor="middle" x="874.18" y="-109.3" font-family="Times,serif" font-size="14.00">Language.Drasil.Printing.PrintingInformation</text>
</g>
<!-- u17 -->
<g id="node26" class="node">
<title>u17</title>
<ellipse fill="#7777ff" stroke="black" cx="516.18" cy="-658" rx="212.56" ry="18"/>
<text text-anchor="middle" x="516.18" y="-654.3" font-family="Times,serif" font-size="14.00">Language.Drasil.Printing.Import.Document</text>
</g>
<!-- u12&#45;&gt;u17 -->
<g id="edge17" class="edge">
<title>u12&#45;&gt;u17</title>
<path fill="none" stroke="black" d="M480.67,-730.84C487.06,-717.91 495.93,-699.96 503.21,-685.23"/>
<polygon fill="black" stroke="black" points="506.43,-686.62 507.72,-676.11 500.16,-683.52 506.43,-686.62"/>
</g>
<!-- u11&#45;&gt;u10 -->
<g id="edge16" class="edge">
<title>u11&#45;&gt;u10</title>
<path fill="none" stroke="black" d="M1121.18,-458.84C1121.18,-446.28 1121.18,-428.98 1121.18,-414.5"/>
<polygon fill="black" stroke="black" points="1124.68,-414.11 1121.18,-404.11 1117.68,-414.11 1124.68,-414.11"/>
</g>
<!-- u10&#45;&gt;u14 -->
<g id="edge15" class="edge">
<title>u10&#45;&gt;u14</title>
<path fill="none" stroke="black" d="M1126.72,-367.74C1141.37,-318.48 1175.47,-175.55 1107.18,-95 1080.95,-64.07 986.44,-45.8 905.4,-35.57"/>
<polygon fill="black" stroke="black" points="905.43,-32.04 895.08,-34.3 904.58,-38.99 905.43,-32.04"/>
</g>
<!-- u23 -->
<g id="node20" class="node">
<title>u23</title>
<ellipse fill="#7777ff" stroke="black" cx="615.18" cy="-204" rx="196.07" ry="18"/>
<text text-anchor="middle" x="615.18" y="-200.3" font-family="Times,serif" font-size="14.00">Language.Drasil.Printing.Import.Literal</text>
</g>
<!-- u23&#45;&gt;u13 -->
<g id="edge30" class="edge">
<title>u23&#45;&gt;u13</title>
<path fill="none" stroke="black" d="M663.29,-186.47C706.59,-171.59 770.29,-149.7 816.35,-133.87"/>
<polygon fill="black" stroke="black" points="817.57,-137.15 825.89,-130.59 815.3,-130.53 817.57,-137.15"/>
</g>
<!-- u18 -->
<g id="node25" class="node">
<title>u18</title>
<ellipse fill="#7777ff" stroke="black" cx="430.18" cy="-113" rx="202.26" ry="18"/>
<text text-anchor="middle" x="430.18" y="-109.3" font-family="Times,serif" font-size="14.00">Language.Drasil.Printing.Import.Helpers</text>
</g>
<!-- u23&#45;&gt;u18 -->
<g id="edge31" class="edge">
<title>u23&#45;&gt;u18</title>
<path fill="none" stroke="black" d="M580.39,-186.26C550.38,-171.82 506.88,-150.9 474.41,-135.28"/>
<polygon fill="black" stroke="black" points="475.67,-132 465.14,-130.82 472.63,-138.31 475.67,-132"/>
</g>
<!-- u22 -->
<g id="node21" class="node">
<title>u22</title>
<ellipse fill="#7777ff" stroke="black" cx="304.18" cy="-477" rx="216.36" ry="18"/>
<text text-anchor="middle" x="304.18" y="-473.3" font-family="Times,serif" font-size="14.00">Language.Drasil.Printing.Import.ModelExpr</text>
</g>
<!-- u16 -->
<g id="node27" class="node">
<title>u16</title>
<ellipse fill="#7777ff" stroke="black" cx="234.18" cy="-386" rx="193.07" ry="18"/>
<text text-anchor="middle" x="234.18" y="-382.3" font-family="Times,serif" font-size="14.00">Language.Drasil.Printing.Import.Space</text>
</g>
<!-- u22&#45;&gt;u16 -->
<g id="edge29" class="edge">
<title>u22&#45;&gt;u16</title>
<path fill="none" stroke="black" d="M290.69,-458.84C280.23,-445.54 265.59,-426.93 253.83,-411.98"/>
<polygon fill="black" stroke="black" points="256.57,-409.8 247.64,-404.11 251.07,-414.13 256.57,-409.8"/>
</g>
<!-- u21 -->
<g id="node22" class="node">
<title>u21</title>
<ellipse fill="#7777ff" stroke="black" cx="199.18" cy="-295" rx="187.67" ry="18"/>
<text text-anchor="middle" x="199.18" y="-291.3" font-family="Times,serif" font-size="14.00">Language.Drasil.Printing.Import.Expr</text>
</g>
<!-- u21&#45;&gt;u23 -->
<g id="edge28" class="edge">
<title>u21&#45;&gt;u23</title>
<path fill="none" stroke="black" d="M272.12,-278.4C344.6,-262.89 455.62,-239.14 531.61,-222.88"/>
<polygon fill="black" stroke="black" points="532.58,-226.25 541.63,-220.74 531.12,-219.41 532.58,-226.25"/>
</g>
<!-- u20 -->
<g id="node23" class="node">
<title>u20</title>
<ellipse fill="#7777ff" stroke="black" cx="200.18" cy="-204" rx="200.36" ry="18"/>
<text text-anchor="middle" x="200.18" y="-200.3" font-family="Times,serif" font-size="14.00">Language.Drasil.Printing.Import.Symbol</text>
</g>
<!-- u21&#45;&gt;u20 -->
<g id="edge27" class="edge">
<title>u21&#45;&gt;u20</title>
<path fill="none" stroke="black" d="M199.38,-276.84C199.52,-264.28 199.71,-246.98 199.87,-232.5"/>
<polygon fill="black" stroke="black" points="203.38,-232.15 199.99,-222.11 196.38,-232.07 203.38,-232.15"/>
</g>
<!-- u20&#45;&gt;u14 -->
<g id="edge26" class="edge">
<title>u20&#45;&gt;u14</title>
<path fill="none" stroke="black" d="M197.61,-185.95C195.05,-161.95 194.52,-118.51 219.18,-95 249.17,-66.41 484.26,-44.57 639.86,-33.06"/>
<polygon fill="black" stroke="black" points="640.28,-36.54 650,-32.32 639.77,-29.56 640.28,-36.54"/>
</g>
<!-- u19 -->
<g id="node24" class="node">
<title>u19</title>
<ellipse fill="#7777ff" stroke="black" cx="616.18" cy="-295" rx="211.46" ry="18"/>
<text text-anchor="middle" x="616.18" y="-291.3" font-family="Times,serif" font-size="14.00">Language.Drasil.Printing.Import.CodeExpr</text>
</g>
<!-- u19&#45;&gt;u23 -->
<g id="edge25" class="edge">
<title>u19&#45;&gt;u23</title>
<path fill="none" stroke="black" d="M615.99,-276.84C615.85,-264.28 615.65,-246.98 615.49,-232.5"/>
<polygon fill="black" stroke="black" points="618.99,-232.07 615.37,-222.11 611.99,-232.15 618.99,-232.07"/>
</g>
<!-- u19&#45;&gt;u20 -->
<g id="edge24" class="edge">
<title>u19&#45;&gt;u20</title>
<path fill="none" stroke="black" d="M541.81,-278.09C469.34,-262.58 359.35,-239.05 283.86,-222.9"/>
<polygon fill="black" stroke="black" points="284.42,-219.44 273.91,-220.77 282.96,-226.29 284.42,-219.44"/>
</g>
<!-- u18&#45;&gt;u14 -->
<g id="edge23" class="edge">
<title>u18&#45;&gt;u14</title>
<path fill="none" stroke="black" d="M494.01,-95.86C554.36,-80.6 644.74,-57.74 707.3,-41.92"/>
<polygon fill="black" stroke="black" points="708.26,-45.29 717.09,-39.45 706.54,-38.51 708.26,-45.29"/>
</g>
<!-- u17&#45;&gt;u24 -->
<g id="edge22" class="edge">
<title>u17&#45;&gt;u24</title>
<path fill="none" stroke="black" d="M565.03,-640.47C609.14,-625.54 674.1,-603.56 720.9,-587.72"/>
<polygon fill="black" stroke="black" points="722.24,-590.96 730.59,-584.44 720,-584.33 722.24,-590.96"/>
</g>
<!-- u17&#45;&gt;u19 -->
<g id="edge21" class="edge">
<title>u17&#45;&gt;u19</title>
<path fill="none" stroke="black" d="M521.01,-639.59C537.11,-581.45 589.12,-393.71 608.66,-323.14"/>
<polygon fill="black" stroke="black" points="612.11,-323.81 611.41,-313.24 605.36,-321.94 612.11,-323.81"/>
</g>
<!-- u15 -->
<g id="node28" class="node">
<title>u15</title>
<ellipse fill="#7777ff" stroke="black" cx="308.18" cy="-567" rx="207.96" ry="18"/>
<text text-anchor="middle" x="308.18" y="-563.3" font-family="Times,serif" font-size="14.00">Language.Drasil.Printing.Import.Sentence</text>
</g>
<!-- u17&#45;&gt;u15 -->
<g id="edge20" class="edge">
<title>u17&#45;&gt;u15</title>
<path fill="none" stroke="black" d="M477.06,-640.26C443.03,-625.7 393.57,-604.54 356.97,-588.87"/>
<polygon fill="black" stroke="black" points="358.05,-585.53 347.48,-584.82 355.3,-591.97 358.05,-585.53"/>
</g>
<!-- u16&#45;&gt;u21 -->
<g id="edge19" class="edge">
<title>u16&#45;&gt;u21</title>
<path fill="none" stroke="black" d="M227.43,-367.84C222.4,-355.04 215.42,-337.3 209.66,-322.65"/>
<polygon fill="black" stroke="black" points="212.83,-321.13 205.91,-313.11 206.31,-323.69 212.83,-321.13"/>
</g>
<!-- u15&#45;&gt;u22 -->
<g id="edge18" class="edge">
<title>u15&#45;&gt;u22</title>
<path fill="none" stroke="black" d="M307.39,-548.61C306.83,-536.24 306.06,-519.37 305.42,-505.22"/>
<polygon fill="black" stroke="black" points="308.91,-504.88 304.96,-495.05 301.92,-505.2 308.91,-504.88"/>
</g>
<!-- u31 -->
<g id="node29" class="node">
<title>u31</title>
<ellipse fill="#ff7777" stroke="black" cx="807.18" cy="-749" rx="154.07" ry="18"/>
<text text-anchor="middle" x="807.18" y="-745.3" font-family="Times,serif" font-size="14.00">Language.Drasil.TeX.Preamble</text>
</g>
<!-- u31&#45;&gt;u24 -->
<g id="edge40" class="edge">
<title>u31&#45;&gt;u24</title>
<path fill="none" stroke="black" d="M804.5,-730.74C799.63,-699.43 789.3,-633.02 783.45,-595.43"/>
<polygon fill="black" stroke="black" points="786.85,-594.55 781.86,-585.21 779.94,-595.63 786.85,-594.55"/>
</g>
<!-- u29 -->
<g id="node31" class="node">
<title>u29</title>
<ellipse fill="#ff7777" stroke="black" cx="1117.18" cy="-658" rx="146.47" ry="18"/>
<text text-anchor="middle" x="1117.18" y="-654.3" font-family="Times,serif" font-size="14.00">Language.Drasil.TeX.Helpers</text>
</g>
<!-- u31&#45;&gt;u29 -->
<g id="edge41" class="edge">
<title>u31&#45;&gt;u29</title>
<path fill="none" stroke="black" d="M862.6,-732.09C915.92,-716.78 996.48,-693.65 1052.66,-677.52"/>
<polygon fill="black" stroke="black" points="1053.85,-680.82 1062.5,-674.7 1051.92,-674.09 1053.85,-680.82"/>
</g>
<!-- u30 -->
<g id="node30" class="node">
<title>u30</title>
<ellipse fill="#ff7777" stroke="black" cx="1117.18" cy="-567" rx="141.88" ry="18"/>
<text text-anchor="middle" x="1117.18" y="-563.3" font-family="Times,serif" font-size="14.00">Language.Drasil.TeX.Monad</text>
</g>
<!-- u30&#45;&gt;u11 -->
<g id="edge39" class="edge">
<title>u30&#45;&gt;u11</title>
<path fill="none" stroke="black" d="M1117.97,-548.61C1118.53,-536.24 1119.3,-519.37 1119.94,-505.22"/>
<polygon fill="black" stroke="black" points="1123.45,-505.2 1120.41,-495.05 1116.46,-504.88 1123.45,-505.2"/>
</g>
<!-- u29&#45;&gt;u4 -->
<g id="edge37" class="edge">
<title>u29&#45;&gt;u4</title>
<path fill="none" stroke="black" d="M1167.38,-640.99C1215.19,-625.74 1287.12,-602.79 1337.54,-586.71"/>
<polygon fill="black" stroke="black" points="1338.86,-589.96 1347.32,-583.59 1336.73,-583.29 1338.86,-589.96"/>
</g>
<!-- u29&#45;&gt;u30 -->
<g id="edge38" class="edge">
<title>u29&#45;&gt;u30</title>
<path fill="none" stroke="black" d="M1117.18,-639.84C1117.18,-627.28 1117.18,-609.98 1117.18,-595.5"/>
<polygon fill="black" stroke="black" points="1120.68,-595.11 1117.18,-585.11 1113.68,-595.11 1120.68,-595.11"/>
</g>
<!-- u28&#45;&gt;u12 -->
<g id="edge35" class="edge">
<title>u28&#45;&gt;u12</title>
<path fill="none" stroke="black" d="M585.04,-822.26C563.04,-808.18 531.41,-787.92 507.22,-772.44"/>
<polygon fill="black" stroke="black" points="508.99,-769.41 498.68,-766.97 505.22,-775.31 508.99,-769.41"/>
</g>
<!-- u28&#45;&gt;u31 -->
<g id="edge36" class="edge">
<title>u28&#45;&gt;u31</title>
<path fill="none" stroke="black" d="M647.59,-822.47C679.67,-807.9 726.55,-786.61 761.21,-770.88"/>
<polygon fill="black" stroke="black" points="762.98,-773.92 770.64,-766.59 760.09,-767.54 762.98,-773.92"/>
</g>
</g>
</svg>
