<?xml version="1.0" encoding="UTF-8" standalone="no"?>
<!DOCTYPE svg PUBLIC "-//W3C//DTD SVG 1.1//EN"
 "http://www.w3.org/Graphics/SVG/1.1/DTD/svg11.dtd">
<!-- Generated by graphviz version 2.43.0 (0)
 -->
<!-- Title: allvsall Pages: 1 -->
<svg width="3564pt" height="285pt"
 viewBox="0.00 0.00 3563.50 284.50" xmlns="http://www.w3.org/2000/svg" xmlns:xlink="http://www.w3.org/1999/xlink">
<g id="graph0" class="graph" transform="scale(1 1) rotate(0) translate(4 280.5)">
<title>allvsall</title>
<polygon fill="white" stroke="transparent" points="-4,4 -4,-280.5 3559.5,-280.5 3559.5,4 -4,4"/>
<!-- dataDefn -->
<g id="node1" class="node">
<title>dataDefn</title>
<polygon fill="#bbffff" stroke="black" points="353,-108 178,-108 178,-72 353,-72 353,-108"/>
<text text-anchor="middle" x="265.5" y="-86.3" font-family="Times,serif" font-size="14.00">DD:balanceDecayRate</text>
</g>
<!-- dataDefn&#45;&gt;dataDefn -->
<g id="edge2" class="edge">
<title>dataDefn:wVol&#45;&gt;dataDefn:tankVol</title>
<path fill="none" stroke="black" d="M353.22,-101.68C363.96,-99.59 371,-95.7 371,-90 371,-86.26 367.97,-83.3 362.85,-81.12"/>
<polygon fill="black" stroke="black" points="363.8,-77.75 353.22,-78.32 361.85,-84.47 363.8,-77.75"/>
</g>
<!-- assumpVCN -->
<g id="node2" class="node">
<title>assumpVCN</title>
<polygon fill="mistyrose" stroke="black" points="266.5,-36 148.5,-36 148.5,0 266.5,0 266.5,-36"/>
<text text-anchor="middle" x="207.5" y="-14.3" font-family="Times,serif" font-size="14.00">A:assumpVCN</text>
</g>
<!-- dataDefn&#45;&gt;assumpVCN -->
<g id="edge1" class="edge">
<title>dataDefn:wVol&#45;&gt;assumpVCN</title>
<path fill="none" stroke="black" d="M251.16,-71.7C244.21,-63.3 235.73,-53.07 228.1,-43.86"/>
<polygon fill="black" stroke="black" points="230.75,-41.57 221.67,-36.1 225.36,-46.04 230.75,-41.57"/>
</g>
<!-- theory -->
<g id="node3" class="node">
<title>theory</title>
<polygon fill="#fff68f" stroke="black" points="1191.5,-180 1067.5,-180 1067.5,-144 1191.5,-144 1191.5,-180"/>
<text text-anchor="middle" x="1129.5" y="-158.3" font-family="Times,serif" font-size="14.00">IM:heatEInWtr</text>
</g>
<!-- theory&#45;&gt;dataDefn -->
<g id="edge17" class="edge">
<title>theory:eBalanceOnWtrRC&#45;&gt;dataDefn:tauW</title>
<path fill="none" stroke="black" d="M1067.15,-158.03C939.15,-151.6 637.56,-134.8 385.5,-108 378.23,-107.23 370.71,-106.35 363.16,-105.41"/>
<polygon fill="black" stroke="black" points="363.59,-101.94 353.23,-104.15 362.71,-108.88 363.59,-101.94"/>
</g>
<!-- theory&#45;&gt;theory -->
<g id="edge9" class="edge">
<title>theory:rocTempSimpRC&#45;&gt;theory:consThermECS</title>
<path fill="none" stroke="black" d="M1191.55,-165.15C1202.16,-164.72 1209.5,-163.67 1209.5,-162 1209.5,-160.93 1206.49,-160.11 1201.53,-159.55"/>
<polygon fill="black" stroke="black" points="1201.78,-156.06 1191.55,-158.85 1201.28,-163.04 1201.78,-156.06"/>
</g>
<!-- theory&#45;&gt;theory -->
<g id="edge10" class="edge">
<title>theory:rocTempSimpRC&#45;&gt;theory:rocTempSimpRC</title>
<path fill="none" stroke="black" d="M1191.7,-168.75C1211.67,-168.68 1227.5,-166.43 1227.5,-162 1227.5,-158.37 1216.85,-156.2 1202,-155.5"/>
<polygon fill="black" stroke="black" points="1201.79,-151.99 1191.7,-155.25 1201.62,-158.99 1201.79,-151.99"/>
</g>
<!-- theory&#45;&gt;theory -->
<g id="edge13" class="edge">
<title>theory:htFluxC&#45;&gt;theory:nwtnCoolingTM</title>
<path fill="none" stroke="black" d="M1067.45,-151.64C1056.84,-154.68 1049.5,-160.98 1049.5,-171 1049.5,-192.09 1056.82,-196.71 1062.89,-189.13"/>
<polygon fill="black" stroke="black" points="1066.12,-190.5 1067.5,-180 1059.87,-187.35 1066.12,-190.5"/>
</g>
<!-- theory&#45;&gt;theory -->
<g id="edge18" class="edge">
<title>theory:eBalanceOnWtrRC&#45;&gt;theory:rocTempSimpRC</title>
<path fill="none" stroke="black" d="M1191.56,-171.92C1220.35,-173.01 1245.5,-169.7 1245.5,-162 1245.5,-155.23 1226.07,-151.86 1201.82,-151.88"/>
<polygon fill="black" stroke="black" points="1201.49,-148.38 1191.56,-152.08 1201.62,-155.38 1201.49,-148.38"/>
</g>
<!-- theory&#45;&gt;theory -->
<g id="edge19" class="edge">
<title>theory:eBalanceOnWtrRC&#45;&gt;theory:htFluxC</title>
<path fill="none" stroke="black" d="M1191.53,-174.66C1228.6,-177.47 1263.5,-173.25 1263.5,-162 1263.5,-151.8 1234.84,-147.38 1201.87,-148.74"/>
<polygon fill="black" stroke="black" points="1201.31,-145.27 1191.53,-149.34 1201.71,-152.25 1201.31,-145.27"/>
</g>
<!-- theory&#45;&gt;theory -->
<g id="edge22" class="edge">
<title>theory:heatEInWtrIM&#45;&gt;theory:sensHeat</title>
<path fill="none" stroke="black" d="M1191.55,-172.36C1202.16,-169.32 1209.5,-163.02 1209.5,-153 1209.5,-131.91 1202.18,-127.29 1196.11,-134.87"/>
<polygon fill="black" stroke="black" points="1192.88,-133.5 1191.5,-144 1199.13,-136.65 1192.88,-133.5"/>
</g>
<!-- assumpTEO -->
<g id="node4" class="node">
<title>assumpTEO</title>
<polygon fill="mistyrose" stroke="black" points="546.5,-36 430.5,-36 430.5,0 546.5,0 546.5,-36"/>
<text text-anchor="middle" x="488.5" y="-14.3" font-family="Times,serif" font-size="14.00">A:assumpTEO</text>
</g>
<!-- theory&#45;&gt;assumpTEO -->
<g id="edge3" class="edge">
<title>theory:consThermECS&#45;&gt;assumpTEO</title>
<path fill="none" stroke="black" d="M1067.39,-153.45C1000.17,-144.73 890.06,-128.88 796.5,-108 709.74,-88.64 611.36,-58.8 549.63,-39.09"/>
<polygon fill="black" stroke="black" points="550.63,-35.73 540.04,-36.01 548.49,-42.4 550.63,-35.73"/>
</g>
<!-- assumpWAL -->
<g id="node5" class="node">
<title>assumpWAL</title>
<polygon fill="mistyrose" stroke="black" points="1922.5,-36 1804.5,-36 1804.5,0 1922.5,0 1922.5,-36"/>
<text text-anchor="middle" x="1863.5" y="-14.3" font-family="Times,serif" font-size="14.00">A:assumpWAL</text>
</g>
<!-- theory&#45;&gt;assumpWAL -->
<g id="edge4" class="edge">
<title>theory:sensHeat&#45;&gt;assumpWAL</title>
<path fill="none" stroke="black" d="M1191.5,-144C1214.43,-103.07 1374.47,-117.92 1431.5,-108 1585.82,-81.16 1623.76,-70.74 1776.5,-36 1782.34,-34.67 1788.45,-33.23 1794.64,-31.78"/>
<polygon fill="black" stroke="black" points="1795.46,-35.18 1804.4,-29.49 1793.86,-28.37 1795.46,-35.18"/>
</g>
<!-- theory&#45;&gt;assumpWAL -->
<g id="edge14" class="edge">
<title>theory:eBalanceOnWtrRC&#45;&gt;assumpWAL</title>
<path fill="none" stroke="black" d="M1191.99,-143.52C1233.68,-103.18 1392.69,-117.88 1449.5,-108 1603.82,-81.16 1641.76,-70.74 1794.5,-36 1794.6,-35.98 1794.7,-35.95 1794.8,-35.93"/>
<polygon fill="black" stroke="black" points="1795.49,-39.37 1804.44,-33.7 1793.91,-32.55 1795.49,-39.37"/>
</g>
<!-- theory&#45;&gt;assumpWAL -->
<g id="edge20" class="edge">
<title>theory:heatEInWtrIM&#45;&gt;assumpWAL</title>
<path fill="none" stroke="black" d="M1191.85,-143.76C1251.06,-103.12 1410.58,-117.9 1467.5,-108 1618.21,-81.79 1657.92,-71.24 1801.96,-38.4"/>
<polygon fill="black" stroke="black" points="1803.08,-41.73 1812.05,-36.1 1801.53,-34.91 1803.08,-41.73"/>
</g>
<!-- assumpHTCC -->
<g id="node6" class="node">
<title>assumpHTCC</title>
<polygon fill="mistyrose" stroke="black" points="412.5,-36 284.5,-36 284.5,0 412.5,0 412.5,-36"/>
<text text-anchor="middle" x="348.5" y="-14.3" font-family="Times,serif" font-size="14.00">A:assumpHTCC</text>
</g>
<!-- theory&#45;&gt;assumpHTCC -->
<g id="edge5" class="edge">
<title>theory:nwtnCoolingTM&#45;&gt;assumpHTCC</title>
<path fill="none" stroke="black" d="M1067.5,-181C1020.51,-227.99 576.33,-92.04 410.52,-39.11"/>
<polygon fill="black" stroke="black" points="411.54,-35.76 400.95,-36.05 409.41,-42.43 411.54,-35.76"/>
</g>
<!-- assumpCWTAT -->
<g id="node7" class="node">
<title>assumpCWTAT</title>
<polygon fill="mistyrose" stroke="black" points="702,-36 565,-36 565,0 702,0 702,-36"/>
<text text-anchor="middle" x="633.5" y="-14.3" font-family="Times,serif" font-size="14.00">A:assumpCWTAT</text>
</g>
<!-- theory&#45;&gt;assumpCWTAT -->
<g id="edge6" class="edge">
<title>theory:rocTempSimpRC&#45;&gt;assumpCWTAT</title>
<path fill="none" stroke="black" d="M1067.09,-146.42C1024.73,-136.27 967.53,-122.08 917.5,-108 840.04,-86.2 751.72,-57.99 694.42,-39.23"/>
<polygon fill="black" stroke="black" points="695.39,-35.86 684.79,-36.07 693.2,-42.51 695.39,-35.86"/>
</g>
<!-- assumpDWCoW -->
<g id="node8" class="node">
<title>assumpDWCoW</title>
<polygon fill="mistyrose" stroke="black" points="864.5,-36 720.5,-36 720.5,0 864.5,0 864.5,-36"/>
<text text-anchor="middle" x="792.5" y="-14.3" font-family="Times,serif" font-size="14.00">A:assumpDWCoW</text>
</g>
<!-- theory&#45;&gt;assumpDWCoW -->
<g id="edge7" class="edge">
<title>theory:rocTempSimpRC&#45;&gt;assumpDWCoW</title>
<path fill="none" stroke="black" d="M1088.85,-143.87C1027.03,-117.82 909.51,-68.3 842.53,-40.08"/>
<polygon fill="black" stroke="black" points="843.61,-36.74 833.03,-36.08 840.89,-43.19 843.61,-36.74"/>
</g>
<!-- assumpSHECoW -->
<g id="node9" class="node">
<title>assumpSHECoW</title>
<polygon fill="mistyrose" stroke="black" points="1166,-36 1015,-36 1015,0 1166,0 1166,-36"/>
<text text-anchor="middle" x="1090.5" y="-14.3" font-family="Times,serif" font-size="14.00">A:assumpSHECoW</text>
</g>
<!-- theory&#45;&gt;assumpSHECoW -->
<g id="edge8" class="edge">
<title>theory:rocTempSimpRC&#45;&gt;assumpSHECoW</title>
<path fill="none" stroke="black" d="M1124.8,-143.87C1118.12,-119.56 1105.83,-74.82 1097.92,-46.01"/>
<polygon fill="black" stroke="black" points="1101.24,-44.91 1095.22,-36.19 1094.49,-46.76 1101.24,-44.91"/>
</g>
<!-- assumpLCCCW -->
<g id="node10" class="node">
<title>assumpLCCCW</title>
<polygon fill="mistyrose" stroke="black" points="1324.5,-36 1184.5,-36 1184.5,0 1324.5,0 1324.5,-36"/>
<text text-anchor="middle" x="1254.5" y="-14.3" font-family="Times,serif" font-size="14.00">A:assumpLCCCW</text>
</g>
<!-- theory&#45;&gt;assumpLCCCW -->
<g id="edge11" class="edge">
<title>theory:htFluxC&#45;&gt;assumpLCCCW</title>
<path fill="none" stroke="black" d="M1144.58,-143.87C1166.54,-118.92 1207.45,-72.45 1232.69,-43.77"/>
<polygon fill="black" stroke="black" points="1235.39,-46.01 1239.37,-36.19 1230.13,-41.38 1235.39,-46.01"/>
</g>
<!-- assumpTHCCoT -->
<g id="node11" class="node">
<title>assumpTHCCoT</title>
<polygon fill="mistyrose" stroke="black" points="1786,-36 1641,-36 1641,0 1786,0 1786,-36"/>
<text text-anchor="middle" x="1713.5" y="-14.3" font-family="Times,serif" font-size="14.00">A:assumpTHCCoT</text>
</g>
<!-- theory&#45;&gt;assumpTHCCoT -->
<g id="edge12" class="edge">
<title>theory:htFluxC&#45;&gt;assumpTHCCoT</title>
<path fill="none" stroke="black" d="M1191.9,-147.24C1238.88,-136.78 1304.82,-121.87 1362.5,-108 1457.95,-85.05 1567.55,-56.98 1638.53,-38.58"/>
<polygon fill="black" stroke="black" points="1639.48,-41.95 1648.28,-36.05 1637.72,-35.17 1639.48,-41.95"/>
</g>
<!-- assumpPIT -->
<g id="node12" class="node">
<title>assumpPIT</title>
<polygon fill="mistyrose" stroke="black" points="1622.5,-36 1512.5,-36 1512.5,0 1622.5,0 1622.5,-36"/>
<text text-anchor="middle" x="1567.5" y="-14.3" font-family="Times,serif" font-size="14.00">A:assumpPIT</text>
</g>
<!-- theory&#45;&gt;assumpPIT -->
<g id="edge15" class="edge">
<title>theory:eBalanceOnWtrRC&#45;&gt;assumpPIT</title>
<path fill="none" stroke="black" d="M1182.33,-143.87C1263.5,-117.56 1418.56,-67.29 1505.13,-39.22"/>
<polygon fill="black" stroke="black" points="1506.39,-42.49 1514.82,-36.08 1504.23,-35.83 1506.39,-42.49"/>
</g>
<!-- assumpNIHGBW -->
<g id="node13" class="node">
<title>assumpNIHGBW</title>
<polygon fill="mistyrose" stroke="black" points="1494,-36 1343,-36 1343,0 1494,0 1494,-36"/>
<text text-anchor="middle" x="1418.5" y="-14.3" font-family="Times,serif" font-size="14.00">A:assumpNIHGBW</text>
</g>
<!-- theory&#45;&gt;assumpNIHGBW -->
<g id="edge16" class="edge">
<title>theory:eBalanceOnWtrRC&#45;&gt;assumpNIHGBW</title>
<path fill="none" stroke="black" d="M1164.36,-143.87C1216.98,-118.02 1316.65,-69.04 1374.29,-40.72"/>
<polygon fill="black" stroke="black" points="1376.08,-43.74 1383.52,-36.19 1373,-37.46 1376.08,-43.74"/>
</g>
<!-- assumpAPT -->
<g id="node14" class="node">
<title>assumpAPT</title>
<polygon fill="mistyrose" stroke="black" points="996.5,-36 882.5,-36 882.5,0 996.5,0 996.5,-36"/>
<text text-anchor="middle" x="939.5" y="-14.3" font-family="Times,serif" font-size="14.00">A:assumpAPT</text>
</g>
<!-- theory&#45;&gt;assumpAPT -->
<g id="edge21" class="edge">
<title>theory:heatEInWtrIM&#45;&gt;assumpAPT</title>
<path fill="none" stroke="black" d="M1106.58,-143.87C1072.63,-118.5 1008.88,-70.85 970.7,-42.32"/>
<polygon fill="black" stroke="black" points="972.61,-39.37 962.5,-36.19 968.41,-44.98 972.61,-39.37"/>
</g>
<!-- findMass -->
<g id="node15" class="node">
<title>findMass</title>
<polygon fill="ivory" stroke="black" points="318.5,-252 212.5,-252 212.5,-216 318.5,-216 318.5,-252"/>
<text text-anchor="middle" x="265.5" y="-230.3" font-family="Times,serif" font-size="14.00">FR:findMass</text>
</g>
<!-- findMass&#45;&gt;dataDefn -->
<g id="edge23" class="edge">
<title>findMass&#45;&gt;dataDefn:wMass</title>
<path fill="none" stroke="black" d="M256.33,-215.87C251.21,-191.67 250.63,-147.21 254.58,-118.39"/>
<polygon fill="black" stroke="black" points="258.09,-118.63 256.32,-108.19 251.19,-117.46 258.09,-118.63"/>
</g>
<!-- findMass&#45;&gt;dataDefn -->
<g id="edge24" class="edge">
<title>findMass&#45;&gt;dataDefn:wVol</title>
<path fill="none" stroke="black" d="M265.5,-215.87C265.5,-191.67 265.5,-147.21 265.5,-118.39"/>
<polygon fill="black" stroke="black" points="269,-118.19 265.5,-108.19 262,-118.19 269,-118.19"/>
</g>
<!-- findMass&#45;&gt;dataDefn -->
<g id="edge25" class="edge">
<title>findMass&#45;&gt;dataDefn:tankVol</title>
<path fill="none" stroke="black" d="M274.67,-215.87C279.79,-191.67 280.37,-147.21 276.42,-118.39"/>
<polygon fill="black" stroke="black" points="279.81,-117.46 274.68,-108.19 272.91,-118.63 279.81,-117.46"/>
</g>
<!-- findMass&#45;&gt;theory -->
<g id="edge26" class="edge">
<title>findMass&#45;&gt;theory:eBalanceOnWtrRC</title>
<path fill="none" stroke="black" d="M318.78,-217.66C321.72,-217.04 324.64,-216.48 327.5,-216 593.81,-171.16 915.82,-163.83 1057.11,-162.92"/>
<polygon fill="black" stroke="black" points="1057.4,-166.42 1067.38,-162.86 1057.36,-159.42 1057.4,-166.42"/>
</g>
<!-- inputValues -->
<g id="node16" class="node">
<title>inputValues</title>
<polygon fill="ivory" stroke="black" points="462,-252 337,-252 337,-216 462,-216 462,-252"/>
<text text-anchor="middle" x="399.5" y="-230.3" font-family="Times,serif" font-size="14.00">FR:inputValues</text>
</g>
<!-- findMass&#45;&gt;inputValues -->
<g id="edge27" class="edge">
<title>findMass&#45;&gt;inputValues</title>
<path fill="none" stroke="black" d="M318.63,-234C321.4,-234 324.16,-234 326.93,-234"/>
<polygon fill="black" stroke="black" points="326.95,-237.5 336.95,-234 326.95,-230.5 326.95,-237.5"/>
</g>
<!-- outputInputDerivVals -->
<g id="node17" class="node">
<title>outputInputDerivVals</title>
<polygon fill="ivory" stroke="black" points="195,-252 0,-252 0,-216 195,-216 195,-252"/>
<text text-anchor="middle" x="97.5" y="-230.3" font-family="Times,serif" font-size="14.00">FR:outputInputDerivVals</text>
</g>
<!-- outputInputDerivVals&#45;&gt;dataDefn -->
<g id="edge28" class="edge">
<title>outputInputDerivVals&#45;&gt;dataDefn:tauW</title>
<path fill="none" stroke="black" d="M117.76,-215.87C147.66,-190.6 203.68,-143.25 237.49,-114.68"/>
<polygon fill="black" stroke="black" points="239.79,-117.32 245.16,-108.19 235.27,-111.97 239.79,-117.32"/>
</g>
<!-- outputInputDerivVals&#45;&gt;findMass -->
<g id="edge30" class="edge">
<title>outputInputDerivVals&#45;&gt;findMass</title>
<path fill="none" stroke="black" d="M195.28,-234C197.58,-234 199.89,-234 202.19,-234"/>
<polygon fill="black" stroke="black" points="202.29,-237.5 212.29,-234 202.29,-230.5 202.29,-237.5"/>
</g>
<!-- outputInputDerivVals&#45;&gt;inputValues -->
<g id="edge29" class="edge">
<title>outputInputDerivVals&#45;&gt;inputValues</title>
<path fill="none" stroke="black" d="M144.02,-252.09C164.65,-259.19 189.44,-266.48 212.5,-270 259.07,-277.12 272.42,-279.78 318.5,-270 331.82,-267.17 345.6,-262 357.94,-256.45"/>
<polygon fill="black" stroke="black" points="359.5,-259.58 367.06,-252.15 356.52,-253.24 359.5,-259.58"/>
</g>
<!-- calcValues -->
<g id="node18" class="node">
<title>calcValues</title>
<polygon fill="ivory" stroke="black" points="1206.5,-252 1090.5,-252 1090.5,-216 1206.5,-216 1206.5,-252"/>
<text text-anchor="middle" x="1148.5" y="-230.3" font-family="Times,serif" font-size="14.00">FR:calcValues</text>
</g>
<!-- calcValues&#45;&gt;theory -->
<g id="edge31" class="edge">
<title>calcValues&#45;&gt;theory:eBalanceOnWtrRC</title>
<path fill="none" stroke="black" d="M1137.89,-215.7C1135,-207.98 1132.26,-198.71 1130.26,-190.11"/>
<polygon fill="black" stroke="black" points="1133.65,-189.22 1128.25,-180.1 1126.79,-190.6 1133.65,-189.22"/>
</g>
<!-- calcValues&#45;&gt;theory -->
<g id="edge32" class="edge">
<title>calcValues&#45;&gt;theory:heatEInWtrIM</title>
<path fill="none" stroke="black" d="M1149.72,-215.7C1148.41,-207.9 1146.08,-198.51 1143.37,-189.83"/>
<polygon fill="black" stroke="black" points="1146.59,-188.43 1140.04,-180.1 1139.96,-190.7 1146.59,-188.43"/>
</g>
<!-- outputValues -->
<g id="node19" class="node">
<title>outputValues</title>
<polygon fill="ivory" stroke="black" points="1072,-252 937,-252 937,-216 1072,-216 1072,-252"/>
<text text-anchor="middle" x="1004.5" y="-230.3" font-family="Times,serif" font-size="14.00">FR:outputValues</text>
</g>
<!-- outputValues&#45;&gt;theory -->
<g id="edge33" class="edge">
<title>outputValues&#45;&gt;theory:eBalanceOnWtrRC</title>
<path fill="none" stroke="black" d="M1029.18,-215.88C1044.85,-206.55 1065.49,-194.92 1084.01,-184.94"/>
<polygon fill="black" stroke="black" points="1085.73,-187.99 1092.9,-180.19 1082.43,-181.81 1085.73,-187.99"/>
</g>
<!-- outputValues&#45;&gt;theory -->
<g id="edge34" class="edge">
<title>outputValues&#45;&gt;theory:heatEInWtrIM</title>
<path fill="none" stroke="black" d="M1040.98,-215.88C1058.28,-206.72 1078.75,-195.34 1095.7,-185.48"/>
<polygon fill="black" stroke="black" points="1097.86,-188.27 1104.71,-180.19 1094.31,-182.24 1097.86,-188.27"/>
</g>
<!-- likeChgTCVOD -->
<g id="node20" class="node">
<title>likeChgTCVOD</title>
<polygon fill="lavender" stroke="black" points="1786.5,-252 1640.5,-252 1640.5,-216 1786.5,-216 1786.5,-252"/>
<text text-anchor="middle" x="1713.5" y="-230.3" font-family="Times,serif" font-size="14.00">LC:likeChgTCVOD</text>
</g>
<!-- likeChgTCVOD&#45;&gt;assumpTHCCoT -->
<g id="edge35" class="edge">
<title>likeChgTCVOD&#45;&gt;assumpTHCCoT</title>
<path fill="none" stroke="black" d="M1713.5,-215.85C1713.5,-178.83 1713.5,-91.18 1713.5,-46.39"/>
<polygon fill="black" stroke="black" points="1717,-46.23 1713.5,-36.23 1710,-46.23 1717,-46.23"/>
</g>
<!-- likeChgTCVOL -->
<g id="node21" class="node">
<title>likeChgTCVOL</title>
<polygon fill="lavender" stroke="black" points="2116.5,-252 1972.5,-252 1972.5,-216 2116.5,-216 2116.5,-252"/>
<text text-anchor="middle" x="2044.5" y="-230.3" font-family="Times,serif" font-size="14.00">LC:likeChgTCVOL</text>
</g>
<!-- assumpTHCCoL -->
<g id="node22" class="node">
<title>assumpTHCCoL</title>
<polygon fill="mistyrose" stroke="black" points="2117,-36 1972,-36 1972,0 2117,0 2117,-36"/>
<text text-anchor="middle" x="2044.5" y="-14.3" font-family="Times,serif" font-size="14.00">A:assumpTHCCoL</text>
</g>
<!-- likeChgTCVOL&#45;&gt;assumpTHCCoL -->
<g id="edge36" class="edge">
<title>likeChgTCVOL&#45;&gt;assumpTHCCoL</title>
<path fill="none" stroke="black" d="M2044.5,-215.85C2044.5,-178.83 2044.5,-91.18 2044.5,-46.39"/>
<polygon fill="black" stroke="black" points="2048,-46.23 2044.5,-36.23 2041,-46.23 2048,-46.23"/>
</g>
<!-- likeChgDT -->
<g id="node23" class="node">
<title>likeChgDT</title>
<polygon fill="lavender" stroke="black" points="2261,-252 2146,-252 2146,-216 2261,-216 2261,-252"/>
<text text-anchor="middle" x="2203.5" y="-230.3" font-family="Times,serif" font-size="14.00">LC:likeChgDT</text>
</g>
<!-- assumpCTNTD -->
<g id="node24" class="node">
<title>assumpCTNTD</title>
<polygon fill="mistyrose" stroke="black" points="2272,-36 2135,-36 2135,0 2272,0 2272,-36"/>
<text text-anchor="middle" x="2203.5" y="-14.3" font-family="Times,serif" font-size="14.00">A:assumpCTNTD</text>
</g>
<!-- likeChgDT&#45;&gt;assumpCTNTD -->
<g id="edge37" class="edge">
<title>likeChgDT&#45;&gt;assumpCTNTD</title>
<path fill="none" stroke="black" d="M2203.5,-215.85C2203.5,-178.83 2203.5,-91.18 2203.5,-46.39"/>
<polygon fill="black" stroke="black" points="2207,-46.23 2203.5,-36.23 2200,-46.23 2207,-46.23"/>
</g>
<!-- likeChgTLH -->
<g id="node25" class="node">
<title>likeChgTLH</title>
<polygon fill="lavender" stroke="black" points="1622,-252 1497,-252 1497,-216 1622,-216 1622,-252"/>
<text text-anchor="middle" x="1559.5" y="-230.3" font-family="Times,serif" font-size="14.00">LC:likeChgTLH</text>
</g>
<!-- likeChgTLH&#45;&gt;assumpPIT -->
<g id="edge38" class="edge">
<title>likeChgTLH&#45;&gt;assumpPIT</title>
<path fill="none" stroke="black" d="M1560.14,-215.85C1561.52,-178.83 1564.8,-91.18 1566.48,-46.39"/>
<polygon fill="black" stroke="black" points="1569.98,-46.36 1566.86,-36.23 1562.98,-46.09 1569.98,-46.36"/>
</g>
<!-- unlikeChgWFS -->
<g id="node26" class="node">
<title>unlikeChgWFS</title>
<polygon fill="lavender" stroke="black" points="1954,-252 1805,-252 1805,-216 1954,-216 1954,-252"/>
<text text-anchor="middle" x="1879.5" y="-230.3" font-family="Times,serif" font-size="14.00">UC:unlikeChgWFS</text>
</g>
<!-- unlikeChgWFS&#45;&gt;assumpWAL -->
<g id="edge39" class="edge">
<title>unlikeChgWFS&#45;&gt;assumpWAL</title>
<path fill="none" stroke="black" d="M1878.22,-215.85C1875.45,-178.83 1868.9,-91.18 1865.55,-46.39"/>
<polygon fill="black" stroke="black" points="1869.02,-45.94 1864.79,-36.23 1862.04,-46.47 1869.02,-45.94"/>
</g>
<!-- unlikeChgNIHG -->
<g id="node27" class="node">
<title>unlikeChgNIHG</title>
<polygon fill="lavender" stroke="black" points="1400.5,-252 1244.5,-252 1244.5,-216 1400.5,-216 1400.5,-252"/>
<text text-anchor="middle" x="1322.5" y="-230.3" font-family="Times,serif" font-size="14.00">UC:unlikeChgNIHG</text>
</g>
<!-- unlikeChgNIHG&#45;&gt;theory -->
<g id="edge41" class="edge">
<title>unlikeChgNIHG&#45;&gt;theory:eBalanceOnWtrRC</title>
<path fill="none" stroke="black" d="M1275.29,-215.88C1248.43,-206.14 1214.62,-193.87 1186.32,-183.61"/>
<polygon fill="black" stroke="black" points="1187.15,-180.19 1176.56,-180.07 1184.77,-186.77 1187.15,-180.19"/>
</g>
<!-- unlikeChgNIHG&#45;&gt;assumpNIHGBW -->
<g id="edge40" class="edge">
<title>unlikeChgNIHG&#45;&gt;assumpNIHGBW</title>
<path fill="none" stroke="black" d="M1330.19,-215.85C1346.91,-178.6 1386.62,-90.07 1406.59,-45.54"/>
<polygon fill="black" stroke="black" points="1409.87,-46.79 1410.77,-36.23 1403.48,-43.92 1409.87,-46.79"/>
</g>
<!-- checkWithPhysConsts -->
<g id="node28" class="node">
<title>checkWithPhysConsts</title>
<polygon fill="ivory" stroke="black" points="2478,-252 2279,-252 2279,-216 2478,-216 2478,-252"/>
<text text-anchor="middle" x="2378.5" y="-230.3" font-family="Times,serif" font-size="14.00">FR:checkWithPhysConsts</text>
</g>
<!-- correct -->
<g id="node29" class="node">
<title>correct</title>
<polygon fill="ivory" stroke="black" points="2600.5,-252 2496.5,-252 2496.5,-216 2600.5,-216 2600.5,-252"/>
<text text-anchor="middle" x="2548.5" y="-230.3" font-family="Times,serif" font-size="14.00">NFR:correct</text>
</g>
<!-- verifiable -->
<g id="node30" class="node">
<title>verifiable</title>
<polygon fill="ivory" stroke="black" points="2738.5,-252 2618.5,-252 2618.5,-216 2738.5,-216 2738.5,-252"/>
<text text-anchor="middle" x="2678.5" y="-230.3" font-family="Times,serif" font-size="14.00">NFR:verifiable</text>
</g>
<!-- understandable -->
<g id="node31" class="node">
<title>understandable</title>
<polygon fill="ivory" stroke="black" points="2922,-252 2757,-252 2757,-216 2922,-216 2922,-252"/>
<text text-anchor="middle" x="2839.5" y="-230.3" font-family="Times,serif" font-size="14.00">NFR:understandable</text>
</g>
<!-- reusable -->
<g id="node32" class="node">
<title>reusable</title>
<polygon fill="ivory" stroke="black" points="3055,-252 2940,-252 2940,-216 3055,-216 3055,-252"/>
<text text-anchor="middle" x="2997.5" y="-230.3" font-family="Times,serif" font-size="14.00">NFR:reusable</text>
</g>
<!-- maintainable -->
<g id="node33" class="node">
<title>maintainable</title>
<polygon fill="ivory" stroke="black" points="3219.5,-252 3073.5,-252 3073.5,-216 3219.5,-216 3219.5,-252"/>
<text text-anchor="middle" x="3146.5" y="-230.3" font-family="Times,serif" font-size="14.00">NFR:maintainable</text>
</g>
<!-- waterTempGS -->
<g id="node34" class="node">
<title>waterTempGS</title>
<polygon fill="#ffb90f" stroke="black" points="3381,-252 3238,-252 3238,-216 3381,-216 3381,-252"/>
<text text-anchor="middle" x="3309.5" y="-230.3" font-family="Times,serif" font-size="14.00">GS:waterTempGS</text>
</g>
<!-- waterEnergyGS -->
<g id="node35" class="node">
<title>waterEnergyGS</title>
<polygon fill="#ffb90f" stroke="black" points="3555.5,-252 3399.5,-252 3399.5,-216 3555.5,-216 3555.5,-252"/>
<text text-anchor="middle" x="3477.5" y="-230.3" font-family="Times,serif" font-size="14.00">GS:waterEnergyGS</text>
</g>
</g>
</svg>
