<?xml version="1.0" encoding="UTF-8" standalone="no"?>
<!DOCTYPE svg PUBLIC "-//W3C//DTD SVG 1.1//EN"
 "http://www.w3.org/Graphics/SVG/1.1/DTD/svg11.dtd">
<!-- Generated by graphviz version 2.43.0 (0)
 -->
<!-- Title: avsall Pages: 1 -->
<svg width="3887pt" height="123pt"
 viewBox="0.00 0.00 3886.50 123.18" xmlns="http://www.w3.org/2000/svg" xmlns:xlink="http://www.w3.org/1999/xlink">
<g id="graph0" class="graph" transform="scale(1 1) rotate(0) translate(4 119.18)">
<title>avsall</title>
<polygon fill="white" stroke="transparent" points="-4,4 -4,-119.18 3882.5,-119.18 3882.5,4 -4,4"/>
<!-- dataDefn -->
<g id="node1" class="node">
<title>dataDefn</title>
<polygon fill="#bbffff" stroke="black" points="175,-108 0,-108 0,-72 175,-72 175,-108"/>
<text text-anchor="middle" x="87.5" y="-86.3" font-family="Times,serif" font-size="14.00">DD:balanceDecayRate</text>
</g>
<!-- assumpVCN -->
<g id="node2" class="node">
<title>assumpVCN</title>
<polygon fill="mistyrose" stroke="black" points="146.5,-36 28.5,-36 28.5,0 146.5,0 146.5,-36"/>
<text text-anchor="middle" x="87.5" y="-14.3" font-family="Times,serif" font-size="14.00">A:assumpVCN</text>
</g>
<!-- dataDefn&#45;&gt;assumpVCN -->
<g id="edge1" class="edge">
<title>dataDefn:wVol&#45;&gt;assumpVCN</title>
<path fill="none" stroke="black" d="M87.5,-71.7C87.5,-63.98 87.5,-54.71 87.5,-46.11"/>
<polygon fill="black" stroke="black" points="91,-46.1 87.5,-36.1 84,-46.1 91,-46.1"/>
</g>
<!-- theory -->
<g id="node3" class="node">
<title>theory</title>
<polygon fill="#fff68f" stroke="black" points="1194.5,-108 1070.5,-108 1070.5,-72 1194.5,-72 1194.5,-108"/>
<text text-anchor="middle" x="1132.5" y="-86.3" font-family="Times,serif" font-size="14.00">IM:heatEInWtr</text>
</g>
<!-- assumpTEO -->
<g id="node4" class="node">
<title>assumpTEO</title>
<polygon fill="mistyrose" stroke="black" points="886.5,-36 770.5,-36 770.5,0 886.5,0 886.5,-36"/>
<text text-anchor="middle" x="828.5" y="-14.3" font-family="Times,serif" font-size="14.00">A:assumpTEO</text>
</g>
<!-- theory&#45;&gt;assumpTEO -->
<g id="edge2" class="edge">
<title>theory:consThermECS&#45;&gt;assumpTEO</title>
<path fill="none" stroke="black" d="M1070.01,-75.53C1024.5,-65.61 961.11,-51.55 896.53,-36.22"/>
<polygon fill="black" stroke="black" points="897.12,-32.76 886.58,-33.84 895.5,-39.57 897.12,-32.76"/>
</g>
<!-- assumpWAL -->
<g id="node5" class="node">
<title>assumpWAL</title>
<polygon fill="mistyrose" stroke="black" points="1802.5,-36 1684.5,-36 1684.5,0 1802.5,0 1802.5,-36"/>
<text text-anchor="middle" x="1743.5" y="-14.3" font-family="Times,serif" font-size="14.00">A:assumpWAL</text>
</g>
<!-- theory&#45;&gt;assumpWAL -->
<g id="edge3" class="edge">
<title>theory:sensHeat&#45;&gt;assumpWAL</title>
<path fill="none" stroke="black" d="M1194.5,-72C1214.32,-34.18 1603.68,-44.43 1656.5,-36 1662.2,-35.09 1668.12,-33.95 1674.09,-32.68"/>
<polygon fill="black" stroke="black" points="1675.17,-36.03 1684.18,-30.47 1673.67,-29.19 1675.17,-36.03"/>
</g>
<!-- theory&#45;&gt;assumpWAL -->
<g id="edge10" class="edge">
<title>theory:eBalanceOnWtrRC&#45;&gt;assumpWAL</title>
<path fill="none" stroke="black" d="M1194.96,-71.56C1233.58,-35.9 1588.59,-43.59 1674.13,-35.51"/>
<polygon fill="black" stroke="black" points="1674.66,-38.97 1684.16,-34.29 1673.81,-32.02 1674.66,-38.97"/>
</g>
<!-- theory&#45;&gt;assumpWAL -->
<g id="edge13" class="edge">
<title>theory:heatEInWtrIM&#45;&gt;assumpWAL</title>
<path fill="none" stroke="black" d="M1194.83,-71.78C1249,-36.09 1602.03,-43.52 1682.24,-37.12"/>
<polygon fill="black" stroke="black" points="1682.62,-40.6 1692.19,-36.05 1681.87,-33.64 1682.62,-40.6"/>
</g>
<!-- assumpHTCC -->
<g id="node6" class="node">
<title>assumpHTCC</title>
<polygon fill="mistyrose" stroke="black" points="292.5,-36 164.5,-36 164.5,0 292.5,0 292.5,-36"/>
<text text-anchor="middle" x="228.5" y="-14.3" font-family="Times,serif" font-size="14.00">A:assumpHTCC</text>
</g>
<!-- theory&#45;&gt;assumpHTCC -->
<g id="edge4" class="edge">
<title>theory:nwtnCoolingTM&#45;&gt;assumpHTCC</title>
<path fill="none" stroke="black" d="M1070.5,-109C1041.46,-138.04 402.46,-50.96 302.93,-36.05"/>
<polygon fill="black" stroke="black" points="303.31,-32.56 292.89,-34.49 302.24,-39.48 303.31,-32.56"/>
</g>
<!-- assumpCWTAT -->
<g id="node7" class="node">
<title>assumpCWTAT</title>
<polygon fill="mistyrose" stroke="black" points="1042,-36 905,-36 905,0 1042,0 1042,-36"/>
<text text-anchor="middle" x="973.5" y="-14.3" font-family="Times,serif" font-size="14.00">A:assumpCWTAT</text>
</g>
<!-- theory&#45;&gt;assumpCWTAT -->
<g id="edge5" class="edge">
<title>theory:rocTempSimpRC&#45;&gt;assumpCWTAT</title>
<path fill="none" stroke="black" d="M1093.6,-71.88C1071.87,-62.31 1044.6,-50.3 1021.54,-40.15"/>
<polygon fill="black" stroke="black" points="1022.83,-36.89 1012.27,-36.07 1020.01,-43.3 1022.83,-36.89"/>
</g>
<!-- assumpDWCoW -->
<g id="node8" class="node">
<title>assumpDWCoW</title>
<polygon fill="mistyrose" stroke="black" points="1204.5,-36 1060.5,-36 1060.5,0 1204.5,0 1204.5,-36"/>
<text text-anchor="middle" x="1132.5" y="-14.3" font-family="Times,serif" font-size="14.00">A:assumpDWCoW</text>
</g>
<!-- theory&#45;&gt;assumpDWCoW -->
<g id="edge6" class="edge">
<title>theory:rocTempSimpRC&#45;&gt;assumpDWCoW</title>
<path fill="none" stroke="black" d="M1132.5,-71.7C1132.5,-63.98 1132.5,-54.71 1132.5,-46.11"/>
<polygon fill="black" stroke="black" points="1136,-46.1 1132.5,-36.1 1129,-46.1 1136,-46.1"/>
</g>
<!-- assumpSHECoW -->
<g id="node9" class="node">
<title>assumpSHECoW</title>
<polygon fill="mistyrose" stroke="black" points="462,-36 311,-36 311,0 462,0 462,-36"/>
<text text-anchor="middle" x="386.5" y="-14.3" font-family="Times,serif" font-size="14.00">A:assumpSHECoW</text>
</g>
<!-- theory&#45;&gt;assumpSHECoW -->
<g id="edge7" class="edge">
<title>theory:rocTempSimpRC&#45;&gt;assumpSHECoW</title>
<path fill="none" stroke="black" d="M1070.27,-86.45C954.49,-81.17 698.07,-66.98 472.47,-36.04"/>
<polygon fill="black" stroke="black" points="472.81,-32.55 462.42,-34.64 471.85,-39.48 472.81,-32.55"/>
</g>
<!-- assumpLCCCW -->
<g id="node10" class="node">
<title>assumpLCCCW</title>
<polygon fill="mistyrose" stroke="black" points="620.5,-36 480.5,-36 480.5,0 620.5,0 620.5,-36"/>
<text text-anchor="middle" x="550.5" y="-14.3" font-family="Times,serif" font-size="14.00">A:assumpLCCCW</text>
</g>
<!-- theory&#45;&gt;assumpLCCCW -->
<g id="edge8" class="edge">
<title>theory:htFluxC&#45;&gt;assumpLCCCW</title>
<path fill="none" stroke="black" d="M1070.27,-84.6C976.92,-77.52 794.97,-61.88 630.92,-36.13"/>
<polygon fill="black" stroke="black" points="631.06,-32.61 620.64,-34.5 629.97,-39.52 631.06,-32.61"/>
</g>
<!-- assumpTHCCoT -->
<g id="node11" class="node">
<title>assumpTHCCoT</title>
<polygon fill="mistyrose" stroke="black" points="1368,-36 1223,-36 1223,0 1368,0 1368,-36"/>
<text text-anchor="middle" x="1295.5" y="-14.3" font-family="Times,serif" font-size="14.00">A:assumpTHCCoT</text>
</g>
<!-- theory&#45;&gt;assumpTHCCoT -->
<g id="edge9" class="edge">
<title>theory:htFluxC&#45;&gt;assumpTHCCoT</title>
<path fill="none" stroke="black" d="M1172.37,-71.88C1194.66,-62.31 1222.62,-50.3 1246.26,-40.15"/>
<polygon fill="black" stroke="black" points="1247.95,-43.23 1255.76,-36.07 1245.19,-36.8 1247.95,-43.23"/>
</g>
<!-- assumpPIT -->
<g id="node12" class="node">
<title>assumpPIT</title>
<polygon fill="mistyrose" stroke="black" points="1496.5,-36 1386.5,-36 1386.5,0 1496.5,0 1496.5,-36"/>
<text text-anchor="middle" x="1441.5" y="-14.3" font-family="Times,serif" font-size="14.00">A:assumpPIT</text>
</g>
<!-- theory&#45;&gt;assumpPIT -->
<g id="edge11" class="edge">
<title>theory:eBalanceOnWtrRC&#45;&gt;assumpPIT</title>
<path fill="none" stroke="black" d="M1194.53,-74.25C1197.9,-73.48 1201.24,-72.73 1204.5,-72 1280.73,-55.03 1300.47,-53.89 1376.5,-36 1376.6,-35.98 1376.7,-35.95 1376.8,-35.93"/>
<polygon fill="black" stroke="black" points="1377.33,-39.4 1386.23,-33.65 1375.69,-32.6 1377.33,-39.4"/>
</g>
<!-- assumpNIHGBW -->
<g id="node13" class="node">
<title>assumpNIHGBW</title>
<polygon fill="mistyrose" stroke="black" points="1666,-36 1515,-36 1515,0 1666,0 1666,-36"/>
<text text-anchor="middle" x="1590.5" y="-14.3" font-family="Times,serif" font-size="14.00">A:assumpNIHGBW</text>
</g>
<!-- theory&#45;&gt;assumpNIHGBW -->
<g id="edge12" class="edge">
<title>theory:eBalanceOnWtrRC&#45;&gt;assumpNIHGBW</title>
<path fill="none" stroke="black" d="M1194.85,-73.82C1198.11,-73.17 1201.34,-72.56 1204.5,-72 1333.92,-49.06 1370.67,-56.82 1504.33,-36.11"/>
<polygon fill="black" stroke="black" points="1505.22,-39.51 1514.55,-34.5 1504.13,-32.59 1505.22,-39.51"/>
</g>
<!-- assumpAPT -->
<g id="node14" class="node">
<title>assumpAPT</title>
<polygon fill="mistyrose" stroke="black" points="752.5,-36 638.5,-36 638.5,0 752.5,0 752.5,-36"/>
<text text-anchor="middle" x="695.5" y="-14.3" font-family="Times,serif" font-size="14.00">A:assumpAPT</text>
</g>
<!-- theory&#45;&gt;assumpAPT -->
<g id="edge14" class="edge">
<title>theory:heatEInWtrIM&#45;&gt;assumpAPT</title>
<path fill="none" stroke="black" d="M1070.44,-82.25C998.57,-73.97 876.49,-58.43 762.59,-36.1"/>
<polygon fill="black" stroke="black" points="763.14,-32.64 752.65,-34.13 761.78,-39.51 763.14,-32.64"/>
</g>
<!-- likeChgTCVOD -->
<g id="node15" class="node">
<title>likeChgTCVOD</title>
<polygon fill="lavender" stroke="black" points="1359.5,-108 1213.5,-108 1213.5,-72 1359.5,-72 1359.5,-108"/>
<text text-anchor="middle" x="1286.5" y="-86.3" font-family="Times,serif" font-size="14.00">LC:likeChgTCVOD</text>
</g>
<!-- likeChgTCVOD&#45;&gt;assumpTHCCoT -->
<g id="edge15" class="edge">
<title>likeChgTCVOD&#45;&gt;assumpTHCCoT</title>
<path fill="none" stroke="black" d="M1288.72,-71.7C1289.72,-63.98 1290.91,-54.71 1292.01,-46.11"/>
<polygon fill="black" stroke="black" points="1295.5,-46.47 1293.3,-36.1 1288.55,-45.58 1295.5,-46.47"/>
</g>
<!-- likeChgTCVOL -->
<g id="node16" class="node">
<title>likeChgTCVOL</title>
<polygon fill="lavender" stroke="black" points="2007.5,-108 1863.5,-108 1863.5,-72 2007.5,-72 2007.5,-108"/>
<text text-anchor="middle" x="1935.5" y="-86.3" font-family="Times,serif" font-size="14.00">LC:likeChgTCVOL</text>
</g>
<!-- assumpTHCCoL -->
<g id="node17" class="node">
<title>assumpTHCCoL</title>
<polygon fill="mistyrose" stroke="black" points="2008,-36 1863,-36 1863,0 2008,0 2008,-36"/>
<text text-anchor="middle" x="1935.5" y="-14.3" font-family="Times,serif" font-size="14.00">A:assumpTHCCoL</text>
</g>
<!-- likeChgTCVOL&#45;&gt;assumpTHCCoL -->
<g id="edge16" class="edge">
<title>likeChgTCVOL&#45;&gt;assumpTHCCoL</title>
<path fill="none" stroke="black" d="M1935.5,-71.7C1935.5,-63.98 1935.5,-54.71 1935.5,-46.11"/>
<polygon fill="black" stroke="black" points="1939,-46.1 1935.5,-36.1 1932,-46.1 1939,-46.1"/>
</g>
<!-- likeChgDT -->
<g id="node18" class="node">
<title>likeChgDT</title>
<polygon fill="lavender" stroke="black" points="2152,-108 2037,-108 2037,-72 2152,-72 2152,-108"/>
<text text-anchor="middle" x="2094.5" y="-86.3" font-family="Times,serif" font-size="14.00">LC:likeChgDT</text>
</g>
<!-- assumpCTNTD -->
<g id="node19" class="node">
<title>assumpCTNTD</title>
<polygon fill="mistyrose" stroke="black" points="2163,-36 2026,-36 2026,0 2163,0 2163,-36"/>
<text text-anchor="middle" x="2094.5" y="-14.3" font-family="Times,serif" font-size="14.00">A:assumpCTNTD</text>
</g>
<!-- likeChgDT&#45;&gt;assumpCTNTD -->
<g id="edge17" class="edge">
<title>likeChgDT&#45;&gt;assumpCTNTD</title>
<path fill="none" stroke="black" d="M2094.5,-71.7C2094.5,-63.98 2094.5,-54.71 2094.5,-46.11"/>
<polygon fill="black" stroke="black" points="2098,-46.1 2094.5,-36.1 2091,-46.1 2098,-46.1"/>
</g>
<!-- likeChgTLH -->
<g id="node20" class="node">
<title>likeChgTLH</title>
<polygon fill="lavender" stroke="black" points="1503,-108 1378,-108 1378,-72 1503,-72 1503,-108"/>
<text text-anchor="middle" x="1440.5" y="-86.3" font-family="Times,serif" font-size="14.00">LC:likeChgTLH</text>
</g>
<!-- likeChgTLH&#45;&gt;assumpPIT -->
<g id="edge18" class="edge">
<title>likeChgTLH&#45;&gt;assumpPIT</title>
<path fill="none" stroke="black" d="M1440.75,-71.7C1440.86,-63.98 1440.99,-54.71 1441.11,-46.11"/>
<polygon fill="black" stroke="black" points="1444.61,-46.15 1441.26,-36.1 1437.61,-46.05 1444.61,-46.15"/>
</g>
<!-- unlikeChgWFS -->
<g id="node21" class="node">
<title>unlikeChgWFS</title>
<polygon fill="lavender" stroke="black" points="1845,-108 1696,-108 1696,-72 1845,-72 1845,-108"/>
<text text-anchor="middle" x="1770.5" y="-86.3" font-family="Times,serif" font-size="14.00">UC:unlikeChgWFS</text>
</g>
<!-- unlikeChgWFS&#45;&gt;assumpWAL -->
<g id="edge19" class="edge">
<title>unlikeChgWFS&#45;&gt;assumpWAL</title>
<path fill="none" stroke="black" d="M1763.83,-71.7C1760.79,-63.81 1757.12,-54.3 1753.74,-45.55"/>
<polygon fill="black" stroke="black" points="1756.96,-44.17 1750.1,-36.1 1750.43,-46.69 1756.96,-44.17"/>
</g>
<!-- unlikeChgNIHG -->
<g id="node22" class="node">
<title>unlikeChgNIHG</title>
<polygon fill="lavender" stroke="black" points="1677.5,-108 1521.5,-108 1521.5,-72 1677.5,-72 1677.5,-108"/>
<text text-anchor="middle" x="1599.5" y="-86.3" font-family="Times,serif" font-size="14.00">UC:unlikeChgNIHG</text>
</g>
<!-- unlikeChgNIHG&#45;&gt;assumpNIHGBW -->
<g id="edge20" class="edge">
<title>unlikeChgNIHG&#45;&gt;assumpNIHGBW</title>
<path fill="none" stroke="black" d="M1597.28,-71.7C1596.28,-63.98 1595.09,-54.71 1593.99,-46.11"/>
<polygon fill="black" stroke="black" points="1597.45,-45.58 1592.7,-36.1 1590.5,-46.47 1597.45,-45.58"/>
</g>
<!-- inputValues -->
<g id="node23" class="node">
<title>inputValues</title>
<polygon fill="ivory" stroke="black" points="2295,-108 2170,-108 2170,-72 2295,-72 2295,-108"/>
<text text-anchor="middle" x="2232.5" y="-86.3" font-family="Times,serif" font-size="14.00">FR:inputValues</text>
</g>
<!-- findMass -->
<g id="node24" class="node">
<title>findMass</title>
<polygon fill="ivory" stroke="black" points="2419.5,-108 2313.5,-108 2313.5,-72 2419.5,-72 2419.5,-108"/>
<text text-anchor="middle" x="2366.5" y="-86.3" font-family="Times,serif" font-size="14.00">FR:findMass</text>
</g>
<!-- checkWithPhysConsts -->
<g id="node25" class="node">
<title>checkWithPhysConsts</title>
<polygon fill="ivory" stroke="black" points="2637,-108 2438,-108 2438,-72 2637,-72 2637,-108"/>
<text text-anchor="middle" x="2537.5" y="-86.3" font-family="Times,serif" font-size="14.00">FR:checkWithPhysConsts</text>
</g>
<!-- outputInputDerivVals -->
<g id="node26" class="node">
<title>outputInputDerivVals</title>
<polygon fill="ivory" stroke="black" points="2850,-108 2655,-108 2655,-72 2850,-72 2850,-108"/>
<text text-anchor="middle" x="2752.5" y="-86.3" font-family="Times,serif" font-size="14.00">FR:outputInputDerivVals</text>
</g>
<!-- calcValues -->
<g id="node27" class="node">
<title>calcValues</title>
<polygon fill="ivory" stroke="black" points="2983.5,-108 2867.5,-108 2867.5,-72 2983.5,-72 2983.5,-108"/>
<text text-anchor="middle" x="2925.5" y="-86.3" font-family="Times,serif" font-size="14.00">FR:calcValues</text>
</g>
<!-- outputValues -->
<g id="node28" class="node">
<title>outputValues</title>
<polygon fill="ivory" stroke="black" points="3137,-108 3002,-108 3002,-72 3137,-72 3137,-108"/>
<text text-anchor="middle" x="3069.5" y="-86.3" font-family="Times,serif" font-size="14.00">FR:outputValues</text>
</g>
<!-- correct -->
<g id="node29" class="node">
<title>correct</title>
<polygon fill="ivory" stroke="black" points="3259.5,-108 3155.5,-108 3155.5,-72 3259.5,-72 3259.5,-108"/>
<text text-anchor="middle" x="3207.5" y="-86.3" font-family="Times,serif" font-size="14.00">NFR:correct</text>
</g>
<!-- verifiable -->
<g id="node30" class="node">
<title>verifiable</title>
<polygon fill="ivory" stroke="black" points="3397.5,-108 3277.5,-108 3277.5,-72 3397.5,-72 3397.5,-108"/>
<text text-anchor="middle" x="3337.5" y="-86.3" font-family="Times,serif" font-size="14.00">NFR:verifiable</text>
</g>
<!-- understandable -->
<g id="node31" class="node">
<title>understandable</title>
<polygon fill="ivory" stroke="black" points="3581,-108 3416,-108 3416,-72 3581,-72 3581,-108"/>
<text text-anchor="middle" x="3498.5" y="-86.3" font-family="Times,serif" font-size="14.00">NFR:understandable</text>
</g>
<!-- reusable -->
<g id="node32" class="node">
<title>reusable</title>
<polygon fill="ivory" stroke="black" points="3714,-108 3599,-108 3599,-72 3714,-72 3714,-108"/>
<text text-anchor="middle" x="3656.5" y="-86.3" font-family="Times,serif" font-size="14.00">NFR:reusable</text>
</g>
<!-- maintainable -->
<g id="node33" class="node">
<title>maintainable</title>
<polygon fill="ivory" stroke="black" points="3878.5,-108 3732.5,-108 3732.5,-72 3878.5,-72 3878.5,-108"/>
<text text-anchor="middle" x="3805.5" y="-86.3" font-family="Times,serif" font-size="14.00">NFR:maintainable</text>
</g>
</g>
</svg>
