<?xml version="1.0" encoding="UTF-8" standalone="no"?>
<!DOCTYPE svg PUBLIC "-//W3C//DTD SVG 1.1//EN"
 "http://www.w3.org/Graphics/SVG/1.1/DTD/svg11.dtd">
<!-- Generated by graphviz version 2.43.0 (0)
 -->
<!-- Title: allvsr Pages: 1 -->
<svg width="4229pt" height="116pt"
 viewBox="0.00 0.00 4228.50 116.00" xmlns="http://www.w3.org/2000/svg" xmlns:xlink="http://www.w3.org/1999/xlink">
<g id="graph0" class="graph" transform="scale(1 1) rotate(0) translate(4 112)">
<title>allvsr</title>
<polygon fill="white" stroke="transparent" points="-4,4 -4,-112 4224.5,-112 4224.5,4 -4,4"/>
<!-- calcValues -->
<g id="node1" class="node">
<title>calcValues</title>
<polygon fill="ivory" stroke="black" points="119,-108 3,-108 3,-72 119,-72 119,-108"/>
<text text-anchor="middle" x="61" y="-86.3" font-family="Times,serif" font-size="14.00">FR:calcValues</text>
</g>
<!-- theory -->
<g id="node2" class="node">
<title>theory</title>
<polygon fill="#fff68f" stroke="black" points="122,-36 0,-36 0,0 122,0 122,-36"/>
<text text-anchor="middle" x="61" y="-14.3" font-family="Times,serif" font-size="14.00">IM:messageIM</text>
</g>
<!-- calcValues&#45;&gt;theory -->
<g id="edge1" class="edge">
<title>calcValues&#45;&gt;theory:flightduration</title>
<path fill="none" stroke="black" d="M43.25,-71.7C40.87,-63.98 40.19,-54.71 41.21,-46.11"/>
<polygon fill="black" stroke="black" points="44.69,-46.61 43.31,-36.1 37.84,-45.17 44.69,-46.61"/>
</g>
<!-- calcValues&#45;&gt;theory -->
<g id="edge2" class="edge">
<title>calcValues&#45;&gt;theory:landingposition</title>
<path fill="none" stroke="black" d="M55.08,-71.7C54.29,-63.98 54.06,-54.71 54.4,-46.11"/>
<polygon fill="black" stroke="black" points="57.9,-46.32 55.1,-36.1 50.92,-45.84 57.9,-46.32"/>
</g>
<!-- calcValues&#45;&gt;theory -->
<g id="edge3" class="edge">
<title>calcValues&#45;&gt;theory:offset</title>
<path fill="none" stroke="black" d="M66.92,-71.7C67.71,-63.98 67.94,-54.71 67.6,-46.11"/>
<polygon fill="black" stroke="black" points="71.08,-45.84 66.9,-36.1 64.1,-46.32 71.08,-45.84"/>
</g>
<!-- calcValues&#45;&gt;theory -->
<g id="edge4" class="edge">
<title>calcValues&#45;&gt;theory:message</title>
<path fill="none" stroke="black" d="M78.75,-71.7C81.13,-63.98 81.81,-54.71 80.79,-46.11"/>
<polygon fill="black" stroke="black" points="84.16,-45.17 78.69,-36.1 77.31,-46.61 84.16,-45.17"/>
</g>
<!-- outputValues -->
<g id="node3" class="node">
<title>outputValues</title>
<polygon fill="ivory" stroke="black" points="272.5,-108 137.5,-108 137.5,-72 272.5,-72 272.5,-108"/>
<text text-anchor="middle" x="205" y="-86.3" font-family="Times,serif" font-size="14.00">FR:outputValues</text>
</g>
<!-- outputValues&#45;&gt;theory -->
<g id="edge5" class="edge">
<title>outputValues&#45;&gt;theory:flightduration</title>
<path fill="none" stroke="black" d="M157.98,-71.88C136.85,-62.55 112.64,-50.92 93.5,-40.94"/>
<polygon fill="black" stroke="black" points="95.03,-37.79 84.55,-36.19 91.75,-43.97 95.03,-37.79"/>
</g>
<!-- outputValues&#45;&gt;theory -->
<g id="edge6" class="edge">
<title>outputValues&#45;&gt;theory:offset</title>
<path fill="none" stroke="black" d="M169.77,-71.88C150.42,-62.47 126.23,-50.71 105.57,-40.67"/>
<polygon fill="black" stroke="black" points="106.89,-37.41 96.36,-36.19 103.83,-43.71 106.89,-37.41"/>
</g>
<!-- outputValues&#45;&gt;theory -->
<g id="edge7" class="edge">
<title>outputValues&#45;&gt;theory:message</title>
<path fill="none" stroke="black" d="M181.57,-71.88C163.96,-62.35 139.64,-50.41 117.32,-40.28"/>
<polygon fill="black" stroke="black" points="118.45,-36.96 107.89,-36.07 115.59,-43.35 118.45,-36.96"/>
</g>
<!-- twoDMotion -->
<g id="node4" class="node">
<title>twoDMotion</title>
<polygon fill="mistyrose" stroke="black" points="409.5,-108 290.5,-108 290.5,-72 409.5,-72 409.5,-108"/>
<text text-anchor="middle" x="350" y="-86.3" font-family="Times,serif" font-size="14.00">A:twoDMotion</text>
</g>
<!-- cartSyst -->
<g id="node5" class="node">
<title>cartSyst</title>
<polygon fill="mistyrose" stroke="black" points="518.5,-108 427.5,-108 427.5,-72 518.5,-72 518.5,-108"/>
<text text-anchor="middle" x="473" y="-86.3" font-family="Times,serif" font-size="14.00">A:cartSyst</text>
</g>
<!-- yAxisGravity -->
<g id="node6" class="node">
<title>yAxisGravity</title>
<polygon fill="mistyrose" stroke="black" points="659,-108 537,-108 537,-72 659,-72 659,-108"/>
<text text-anchor="middle" x="598" y="-86.3" font-family="Times,serif" font-size="14.00">A:yAxisGravity</text>
</g>
<!-- launchOrigin -->
<g id="node7" class="node">
<title>launchOrigin</title>
<polygon fill="mistyrose" stroke="black" points="800.5,-108 677.5,-108 677.5,-72 800.5,-72 800.5,-108"/>
<text text-anchor="middle" x="739" y="-86.3" font-family="Times,serif" font-size="14.00">A:launchOrigin</text>
</g>
<!-- targetXAxis -->
<g id="node8" class="node">
<title>targetXAxis</title>
<polygon fill="mistyrose" stroke="black" points="933.5,-108 818.5,-108 818.5,-72 933.5,-72 933.5,-108"/>
<text text-anchor="middle" x="876" y="-86.3" font-family="Times,serif" font-size="14.00">A:targetXAxis</text>
</g>
<!-- posXDirection -->
<g id="node9" class="node">
<title>posXDirection</title>
<polygon fill="mistyrose" stroke="black" points="1082.5,-108 951.5,-108 951.5,-72 1082.5,-72 1082.5,-108"/>
<text text-anchor="middle" x="1017" y="-86.3" font-family="Times,serif" font-size="14.00">A:posXDirection</text>
</g>
<!-- constAccel -->
<g id="node10" class="node">
<title>constAccel</title>
<polygon fill="mistyrose" stroke="black" points="1207.5,-108 1100.5,-108 1100.5,-72 1207.5,-72 1207.5,-108"/>
<text text-anchor="middle" x="1154" y="-86.3" font-family="Times,serif" font-size="14.00">A:constAccel</text>
</g>
<!-- accelXZero -->
<g id="node11" class="node">
<title>accelXZero</title>
<polygon fill="mistyrose" stroke="black" points="1336,-108 1226,-108 1226,-72 1336,-72 1336,-108"/>
<text text-anchor="middle" x="1281" y="-86.3" font-family="Times,serif" font-size="14.00">A:accelXZero</text>
</g>
<!-- accelYGravity -->
<g id="node12" class="node">
<title>accelYGravity</title>
<polygon fill="mistyrose" stroke="black" points="1483.5,-108 1354.5,-108 1354.5,-72 1483.5,-72 1483.5,-108"/>
<text text-anchor="middle" x="1419" y="-86.3" font-family="Times,serif" font-size="14.00">A:accelYGravity</text>
</g>
<!-- neglectDrag -->
<g id="node13" class="node">
<title>neglectDrag</title>
<polygon fill="mistyrose" stroke="black" points="1620.5,-108 1501.5,-108 1501.5,-72 1620.5,-72 1620.5,-108"/>
<text text-anchor="middle" x="1561" y="-86.3" font-family="Times,serif" font-size="14.00">A:neglectDrag</text>
</g>
<!-- pointMass -->
<g id="node14" class="node">
<title>pointMass</title>
<polygon fill="mistyrose" stroke="black" points="1743.5,-108 1638.5,-108 1638.5,-72 1743.5,-72 1743.5,-108"/>
<text text-anchor="middle" x="1691" y="-86.3" font-family="Times,serif" font-size="14.00">A:pointMass</text>
</g>
<!-- freeFlight -->
<g id="node15" class="node">
<title>freeFlight</title>
<polygon fill="mistyrose" stroke="black" points="1864,-108 1762,-108 1762,-72 1864,-72 1864,-108"/>
<text text-anchor="middle" x="1813" y="-86.3" font-family="Times,serif" font-size="14.00">A:freeFlight</text>
</g>
<!-- neglectCurv -->
<g id="node16" class="node">
<title>neglectCurv</title>
<polygon fill="mistyrose" stroke="black" points="2000,-108 1882,-108 1882,-72 2000,-72 2000,-108"/>
<text text-anchor="middle" x="1941" y="-86.3" font-family="Times,serif" font-size="14.00">A:neglectCurv</text>
</g>
<!-- timeStartZero -->
<g id="node17" class="node">
<title>timeStartZero</title>
<polygon fill="mistyrose" stroke="black" points="2151.5,-108 2018.5,-108 2018.5,-72 2151.5,-72 2151.5,-108"/>
<text text-anchor="middle" x="2085" y="-86.3" font-family="Times,serif" font-size="14.00">A:timeStartZero</text>
</g>
<!-- gravAccelValue -->
<g id="node18" class="node">
<title>gravAccelValue</title>
<polygon fill="mistyrose" stroke="black" points="2310,-108 2170,-108 2170,-72 2310,-72 2310,-108"/>
<text text-anchor="middle" x="2240" y="-86.3" font-family="Times,serif" font-size="14.00">A:gravAccelValue</text>
</g>
<!-- speed -->
<g id="node19" class="node">
<title>speed</title>
<polygon fill="#bbffff" stroke="black" points="2427.5,-108 2328.5,-108 2328.5,-72 2427.5,-72 2427.5,-108"/>
<text text-anchor="middle" x="2378" y="-86.3" font-family="Times,serif" font-size="14.00">DD:vecMag</text>
</g>
<!-- ixVel -->
<g id="node20" class="node">
<title>ixVel</title>
<polygon fill="#bbffff" stroke="black" points="2546.5,-108 2445.5,-108 2445.5,-72 2546.5,-72 2546.5,-108"/>
<text text-anchor="middle" x="2496" y="-86.3" font-family="Times,serif" font-size="14.00">DD:speedIX</text>
</g>
<!-- iyVel -->
<g id="node21" class="node">
<title>iyVel</title>
<polygon fill="#bbffff" stroke="black" points="2665,-108 2565,-108 2565,-72 2665,-72 2665,-108"/>
<text text-anchor="middle" x="2615" y="-86.3" font-family="Times,serif" font-size="14.00">DD:speedIY</text>
</g>
<!-- accelerationTM -->
<g id="node22" class="node">
<title>accelerationTM</title>
<polygon fill="pink" stroke="black" points="2814.5,-108 2683.5,-108 2683.5,-72 2814.5,-72 2814.5,-108"/>
<text text-anchor="middle" x="2749" y="-86.3" font-family="Times,serif" font-size="14.00">TM:acceleration</text>
</g>
<!-- velocityTM -->
<g id="node23" class="node">
<title>velocityTM</title>
<polygon fill="pink" stroke="black" points="2933,-108 2833,-108 2833,-72 2933,-72 2933,-108"/>
<text text-anchor="middle" x="2883" y="-86.3" font-family="Times,serif" font-size="14.00">TM:velocity</text>
</g>
<!-- inputValues -->
<g id="node24" class="node">
<title>inputValues</title>
<polygon fill="ivory" stroke="black" points="3076.5,-108 2951.5,-108 2951.5,-72 3076.5,-72 3076.5,-108"/>
<text text-anchor="middle" x="3014" y="-86.3" font-family="Times,serif" font-size="14.00">FR:inputValues</text>
</g>
<!-- verifyInVals -->
<g id="node25" class="node">
<title>verifyInVals</title>
<polygon fill="ivory" stroke="black" points="3221,-108 3095,-108 3095,-72 3221,-72 3221,-108"/>
<text text-anchor="middle" x="3158" y="-86.3" font-family="Times,serif" font-size="14.00">FR:verifyInVals</text>
</g>
<!-- correct -->
<g id="node26" class="node">
<title>correct</title>
<polygon fill="ivory" stroke="black" points="3343,-108 3239,-108 3239,-72 3343,-72 3343,-108"/>
<text text-anchor="middle" x="3291" y="-86.3" font-family="Times,serif" font-size="14.00">NFR:correct</text>
</g>
<!-- verifiable -->
<g id="node27" class="node">
<title>verifiable</title>
<polygon fill="ivory" stroke="black" points="3481,-108 3361,-108 3361,-72 3481,-72 3481,-108"/>
<text text-anchor="middle" x="3421" y="-86.3" font-family="Times,serif" font-size="14.00">NFR:verifiable</text>
</g>
<!-- understandable -->
<g id="node28" class="node">
<title>understandable</title>
<polygon fill="ivory" stroke="black" points="3664.5,-108 3499.5,-108 3499.5,-72 3664.5,-72 3664.5,-108"/>
<text text-anchor="middle" x="3582" y="-86.3" font-family="Times,serif" font-size="14.00">NFR:understandable</text>
</g>
<!-- reusable -->
<g id="node29" class="node">
<title>reusable</title>
<polygon fill="ivory" stroke="black" points="3797.5,-108 3682.5,-108 3682.5,-72 3797.5,-72 3797.5,-108"/>
<text text-anchor="middle" x="3740" y="-86.3" font-family="Times,serif" font-size="14.00">NFR:reusable</text>
</g>
<!-- maintainable -->
<g id="node30" class="node">
<title>maintainable</title>
<polygon fill="ivory" stroke="black" points="3962,-108 3816,-108 3816,-72 3962,-72 3962,-108"/>
<text text-anchor="middle" x="3889" y="-86.3" font-family="Times,serif" font-size="14.00">NFR:maintainable</text>
</g>
<!-- portable -->
<g id="node31" class="node">
<title>portable</title>
<polygon fill="ivory" stroke="black" points="4093.5,-108 3980.5,-108 3980.5,-72 4093.5,-72 4093.5,-108"/>
<text text-anchor="middle" x="4037" y="-86.3" font-family="Times,serif" font-size="14.00">NFR:portable</text>
</g>
<!-- targetHit -->
<g id="node32" class="node">
<title>targetHit</title>
<polygon fill="#ffb90f" stroke="black" points="4220.5,-108 4111.5,-108 4111.5,-72 4220.5,-72 4220.5,-108"/>
<text text-anchor="middle" x="4166" y="-86.3" font-family="Times,serif" font-size="14.00">GS:targetHit</text>
</g>
</g>
</svg>
