<?xml version="1.0" encoding="UTF-8" standalone="no"?>
<!DOCTYPE svg PUBLIC "-//W3C//DTD SVG 1.1//EN"
 "http://www.w3.org/Graphics/SVG/1.1/DTD/svg11.dtd">
<!-- Generated by graphviz version 2.43.0 (0)
 -->
<!-- Title: avsall Pages: 1 -->
<svg width="2780pt" height="116pt"
 viewBox="0.00 0.00 2780.00 116.00" xmlns="http://www.w3.org/2000/svg" xmlns:xlink="http://www.w3.org/1999/xlink">
<g id="graph0" class="graph" transform="scale(1 1) rotate(0) translate(4 112)">
<title>avsall</title>
<polygon fill="white" stroke="transparent" points="-4,4 -4,-112 2776,-112 2776,4 -4,4"/>
<!-- theory -->
<g id="node1" class="node">
<title>theory</title>
<polygon fill="#fff68f" stroke="black" points="700.5,-108 578.5,-108 578.5,-72 700.5,-72 700.5,-108"/>
<text text-anchor="middle" x="639.5" y="-86.3" font-family="Times,serif" font-size="14.00">IM:messageIM</text>
</g>
<!-- pointMass -->
<g id="node2" class="node">
<title>pointMass</title>
<polygon fill="mistyrose" stroke="black" points="105,-36 0,-36 0,0 105,0 105,-36"/>
<text text-anchor="middle" x="52.5" y="-14.3" font-family="Times,serif" font-size="14.00">A:pointMass</text>
</g>
<!-- theory&#45;&gt;pointMass -->
<g id="edge1" class="edge">
<title>theory:projSpeed&#45;&gt;pointMass</title>
<path fill="none" stroke="black" d="M578.34,-86.53C480.31,-81.65 282.39,-68.48 114.97,-37.94"/>
<polygon fill="black" stroke="black" points="115.47,-34.47 105,-36.09 114.19,-41.36 115.47,-34.47"/>
</g>
<!-- theory&#45;&gt;pointMass -->
<g id="edge3" class="edge">
<title>theory:projPos&#45;&gt;pointMass</title>
<path fill="none" stroke="black" d="M578.37,-85.93C481.1,-80.51 285.76,-66.74 122.5,-36 120.04,-35.54 117.54,-35.02 115.01,-34.47"/>
<polygon fill="black" stroke="black" points="115.73,-31.04 105.19,-32.17 114.13,-37.86 115.73,-31.04"/>
</g>
<!-- timeStartZero -->
<g id="node3" class="node">
<title>timeStartZero</title>
<polygon fill="mistyrose" stroke="black" points="256,-36 123,-36 123,0 256,0 256,-36"/>
<text text-anchor="middle" x="189.5" y="-14.3" font-family="Times,serif" font-size="14.00">A:timeStartZero</text>
</g>
<!-- theory&#45;&gt;timeStartZero -->
<g id="edge2" class="edge">
<title>theory:projSpeed&#45;&gt;timeStartZero</title>
<path fill="none" stroke="black" d="M578.17,-84.49C497.67,-76.67 358.25,-59.35 238.87,-37.89"/>
<polygon fill="black" stroke="black" points="239.32,-34.41 228.86,-36.07 238.07,-41.3 239.32,-34.41"/>
</g>
<!-- theory&#45;&gt;timeStartZero -->
<g id="edge4" class="edge">
<title>theory:projPos&#45;&gt;timeStartZero</title>
<path fill="none" stroke="black" d="M578.36,-83.34C502.53,-75.05 370.59,-58.34 256.75,-37.86"/>
<polygon fill="black" stroke="black" points="257.3,-34.41 246.84,-36.06 256.05,-41.29 257.3,-34.41"/>
</g>
<!-- theory&#45;&gt;timeStartZero -->
<g id="edge8" class="edge">
<title>theory:velocity&#45;&gt;timeStartZero</title>
<path fill="none" stroke="black" d="M578.19,-81.91C505.84,-73.19 381.72,-57.14 266.18,-36.23"/>
<polygon fill="black" stroke="black" points="266.56,-32.75 256.1,-34.4 265.31,-39.63 266.56,-32.75"/>
</g>
<!-- theory&#45;&gt;timeStartZero -->
<g id="edge12" class="edge">
<title>theory:position&#45;&gt;timeStartZero</title>
<path fill="none" stroke="black" d="M578.44,-80.29C506.96,-71.01 386.13,-55.03 282.5,-36 277.25,-35.04 271.81,-33.96 266.29,-32.82"/>
<polygon fill="black" stroke="black" points="266.82,-29.36 256.32,-30.74 265.39,-36.21 266.82,-29.36"/>
</g>
<!-- theory&#45;&gt;timeStartZero -->
<g id="edge18" class="edge">
<title>theory:flightduration&#45;&gt;timeStartZero</title>
<path fill="none" stroke="black" d="M578.17,-78.38C509.2,-68.9 397.34,-53.79 300.5,-36 289.73,-34.02 278.16,-31.57 266.22,-29.14"/>
<polygon fill="black" stroke="black" points="266.62,-25.65 256.12,-27.12 265.24,-32.51 266.62,-25.65"/>
</g>
<!-- twoDMotion -->
<g id="node4" class="node">
<title>twoDMotion</title>
<polygon fill="mistyrose" stroke="black" points="393,-36 274,-36 274,0 393,0 393,-36"/>
<text text-anchor="middle" x="333.5" y="-14.3" font-family="Times,serif" font-size="14.00">A:twoDMotion</text>
</g>
<!-- theory&#45;&gt;twoDMotion -->
<g id="edge5" class="edge">
<title>theory:velocity&#45;&gt;twoDMotion</title>
<path fill="none" stroke="black" d="M578.45,-77.4C530.97,-67.49 463.4,-52.63 402.9,-38.45"/>
<polygon fill="black" stroke="black" points="403.41,-34.97 392.87,-36.09 401.8,-41.78 403.41,-34.97"/>
</g>
<!-- theory&#45;&gt;twoDMotion -->
<g id="edge9" class="edge">
<title>theory:position&#45;&gt;twoDMotion</title>
<path fill="none" stroke="black" d="M578.24,-74.16C532.07,-63.79 467.35,-49.43 410.5,-36 408.06,-35.42 405.58,-34.83 403.07,-34.23"/>
<polygon fill="black" stroke="black" points="403.82,-30.81 393.28,-31.86 402.18,-37.61 403.82,-30.81"/>
</g>
<!-- cartSyst -->
<g id="node5" class="node">
<title>cartSyst</title>
<polygon fill="mistyrose" stroke="black" points="502,-36 411,-36 411,0 502,0 502,-36"/>
<text text-anchor="middle" x="456.5" y="-14.3" font-family="Times,serif" font-size="14.00">A:cartSyst</text>
</g>
<!-- theory&#45;&gt;cartSyst -->
<g id="edge6" class="edge">
<title>theory:velocity&#45;&gt;cartSyst</title>
<path fill="none" stroke="black" d="M588.84,-71.88C562.59,-62.22 530.75,-50.09 504.84,-39.88"/>
<polygon fill="black" stroke="black" points="505.82,-36.5 495.23,-36.07 503.24,-43.01 505.82,-36.5"/>
</g>
<!-- theory&#45;&gt;cartSyst -->
<g id="edge10" class="edge">
<title>theory:position&#45;&gt;cartSyst</title>
<path fill="none" stroke="black" d="M600.63,-71.88C574.71,-61.55 540.35,-48.38 511.63,-37.77"/>
<polygon fill="black" stroke="black" points="512.73,-34.45 502.13,-34.28 510.31,-41.02 512.73,-34.45"/>
</g>
<!-- constAccel -->
<g id="node6" class="node">
<title>constAccel</title>
<polygon fill="mistyrose" stroke="black" points="627,-36 520,-36 520,0 627,0 627,-36"/>
<text text-anchor="middle" x="573.5" y="-14.3" font-family="Times,serif" font-size="14.00">A:constAccel</text>
</g>
<!-- theory&#45;&gt;constAccel -->
<g id="edge7" class="edge">
<title>theory:velocity&#45;&gt;constAccel</title>
<path fill="none" stroke="black" d="M617.27,-71.7C608.49,-63.3 598.65,-53.07 590.45,-43.86"/>
<polygon fill="black" stroke="black" points="592.92,-41.37 583.73,-36.1 587.63,-45.96 592.92,-41.37"/>
</g>
<!-- theory&#45;&gt;constAccel -->
<g id="edge11" class="edge">
<title>theory:position&#45;&gt;constAccel</title>
<path fill="none" stroke="black" d="M629.1,-71.7C621.91,-63.14 612.21,-52.66 602.88,-43.3"/>
<polygon fill="black" stroke="black" points="605.12,-40.6 595.52,-36.1 600.22,-45.6 605.12,-40.6"/>
</g>
<!-- yAxisGravity -->
<g id="node7" class="node">
<title>yAxisGravity</title>
<polygon fill="mistyrose" stroke="black" points="767.5,-36 645.5,-36 645.5,0 767.5,0 767.5,-36"/>
<text text-anchor="middle" x="706.5" y="-14.3" font-family="Times,serif" font-size="14.00">A:yAxisGravity</text>
</g>
<!-- theory&#45;&gt;yAxisGravity -->
<g id="edge13" class="edge">
<title>theory:flightduration&#45;&gt;yAxisGravity</title>
<path fill="none" stroke="black" d="M650.15,-71.7C657.46,-63.14 667.31,-52.66 676.78,-43.3"/>
<polygon fill="black" stroke="black" points="679.47,-45.57 684.23,-36.1 674.61,-40.53 679.47,-45.57"/>
</g>
<!-- theory&#45;&gt;yAxisGravity -->
<g id="edge20" class="edge">
<title>theory:landingposition&#45;&gt;yAxisGravity</title>
<path fill="none" stroke="black" d="M661.98,-71.7C670.88,-63.3 680.86,-53.07 689.2,-43.86"/>
<polygon fill="black" stroke="black" points="692.04,-45.92 696.02,-36.1 686.79,-41.3 692.04,-45.92"/>
</g>
<!-- launchOrigin -->
<g id="node8" class="node">
<title>launchOrigin</title>
<polygon fill="mistyrose" stroke="black" points="909,-36 786,-36 786,0 909,0 909,-36"/>
<text text-anchor="middle" x="847.5" y="-14.3" font-family="Times,serif" font-size="14.00">A:launchOrigin</text>
</g>
<!-- theory&#45;&gt;launchOrigin -->
<g id="edge14" class="edge">
<title>theory:flightduration&#45;&gt;launchOrigin</title>
<path fill="none" stroke="black" d="M684.23,-71.97C712.5,-62.1 749.48,-49.62 781.13,-39.25"/>
<polygon fill="black" stroke="black" points="782.34,-42.54 790.76,-36.11 780.17,-35.89 782.34,-42.54"/>
</g>
<!-- theory&#45;&gt;launchOrigin -->
<g id="edge21" class="edge">
<title>theory:landingposition&#45;&gt;launchOrigin</title>
<path fill="none" stroke="black" d="M696,-71.97C726.1,-62.19 762.9,-49.84 792.72,-39.52"/>
<polygon fill="black" stroke="black" points="794.25,-42.7 802.55,-36.11 791.96,-36.08 794.25,-42.7"/>
</g>
<!-- targetXAxis -->
<g id="node9" class="node">
<title>targetXAxis</title>
<polygon fill="mistyrose" stroke="black" points="1042,-36 927,-36 927,0 1042,0 1042,-36"/>
<text text-anchor="middle" x="984.5" y="-14.3" font-family="Times,serif" font-size="14.00">A:targetXAxis</text>
</g>
<!-- theory&#45;&gt;targetXAxis -->
<g id="edge15" class="edge">
<title>theory:flightduration&#45;&gt;targetXAxis</title>
<path fill="none" stroke="black" d="M700.64,-74.1C703.97,-73.37 707.27,-72.67 710.5,-72 799.25,-53.71 825.03,-55.56 916.96,-36.24"/>
<polygon fill="black" stroke="black" points="917.92,-39.62 926.97,-34.11 916.46,-32.77 917.92,-39.62"/>
</g>
<!-- posXDirection -->
<g id="node10" class="node">
<title>posXDirection</title>
<polygon fill="mistyrose" stroke="black" points="1191,-36 1060,-36 1060,0 1191,0 1191,-36"/>
<text text-anchor="middle" x="1125.5" y="-14.3" font-family="Times,serif" font-size="14.00">A:posXDirection</text>
</g>
<!-- theory&#45;&gt;posXDirection -->
<g id="edge16" class="edge">
<title>theory:flightduration&#45;&gt;posXDirection</title>
<path fill="none" stroke="black" d="M683.94,-71.92C833.78,-46.23 874.33,-61.08 1024.5,-36 1032.62,-34.64 1041.19,-32.94 1049.89,-31.13"/>
<polygon fill="black" stroke="black" points="1050.69,-34.54 1059.76,-29.06 1049.25,-27.69 1050.69,-34.54"/>
</g>
<!-- theory&#45;&gt;posXDirection -->
<g id="edge22" class="edge">
<title>theory:landingposition&#45;&gt;posXDirection</title>
<path fill="none" stroke="black" d="M700.75,-72.13C701,-72.09 701.25,-72.04 701.5,-72 851.7,-46.2 892.18,-61.11 1042.5,-36 1044.86,-35.61 1047.25,-35.18 1049.67,-34.74"/>
<polygon fill="black" stroke="black" points="1050.57,-38.13 1059.72,-32.78 1049.23,-31.26 1050.57,-38.13"/>
</g>
<!-- theory&#45;&gt;posXDirection -->
<g id="edge25" class="edge">
<title>theory:offset&#45;&gt;posXDirection</title>
<path fill="none" stroke="black" d="M700.62,-75.69C707,-74.32 713.38,-73.05 719.5,-72 866.18,-46.81 908.23,-60.43 1050.12,-37.7"/>
<polygon fill="black" stroke="black" points="1050.76,-41.14 1060.06,-36.07 1049.63,-34.23 1050.76,-41.14"/>
</g>
<!-- theory&#45;&gt;posXDirection -->
<g id="edge26" class="edge">
<title>theory:message&#45;&gt;posXDirection</title>
<path fill="none" stroke="black" d="M700.77,-79.53C713.34,-76.78 725.88,-74 737.5,-72 884.18,-46.81 926.23,-60.43 1068.12,-37.7"/>
<polygon fill="black" stroke="black" points="1068.76,-41.14 1078.06,-36.07 1067.63,-34.23 1068.76,-41.14"/>
</g>
<!-- accelYGravity -->
<g id="node11" class="node">
<title>accelYGravity</title>
<polygon fill="mistyrose" stroke="black" points="1338,-36 1209,-36 1209,0 1338,0 1338,-36"/>
<text text-anchor="middle" x="1273.5" y="-14.3" font-family="Times,serif" font-size="14.00">A:accelYGravity</text>
</g>
<!-- theory&#45;&gt;accelYGravity -->
<g id="edge17" class="edge">
<title>theory:flightduration&#45;&gt;accelYGravity</title>
<path fill="none" stroke="black" d="M700.57,-73.72C703.92,-73.08 707.24,-72.51 710.5,-72 923.01,-38.97 982.82,-67.96 1198.66,-36.15"/>
<polygon fill="black" stroke="black" points="1199.35,-39.58 1208.72,-34.64 1198.31,-32.66 1199.35,-39.58"/>
</g>
<!-- gravAccelValue -->
<g id="node12" class="node">
<title>gravAccelValue</title>
<polygon fill="mistyrose" stroke="black" points="1496.5,-36 1356.5,-36 1356.5,0 1496.5,0 1496.5,-36"/>
<text text-anchor="middle" x="1426.5" y="-14.3" font-family="Times,serif" font-size="14.00">A:gravAccelValue</text>
</g>
<!-- theory&#45;&gt;gravAccelValue -->
<g id="edge19" class="edge">
<title>theory:flightduration&#45;&gt;gravAccelValue</title>
<path fill="none" stroke="black" d="M700.75,-72.11C701,-72.07 701.25,-72.04 701.5,-72 982.06,-30.82 1057.49,-73.94 1338.5,-36 1341.15,-35.64 1343.84,-35.24 1346.55,-34.81"/>
<polygon fill="black" stroke="black" points="1347.19,-38.25 1356.46,-33.12 1346.02,-31.35 1347.19,-38.25"/>
</g>
<!-- theory&#45;&gt;gravAccelValue -->
<g id="edge24" class="edge">
<title>theory:landingposition&#45;&gt;gravAccelValue</title>
<path fill="none" stroke="black" d="M700.58,-75.4C706.96,-74.08 713.36,-72.9 719.5,-72 996.5,-31.34 1073.54,-72.86 1345.9,-37.41"/>
<polygon fill="black" stroke="black" points="1346.63,-40.84 1356.09,-36.06 1345.72,-33.9 1346.63,-40.84"/>
</g>
<!-- accelXZero -->
<g id="node13" class="node">
<title>accelXZero</title>
<polygon fill="mistyrose" stroke="black" points="1624.5,-36 1514.5,-36 1514.5,0 1624.5,0 1624.5,-36"/>
<text text-anchor="middle" x="1569.5" y="-14.3" font-family="Times,serif" font-size="14.00">A:accelXZero</text>
</g>
<!-- theory&#45;&gt;accelXZero -->
<g id="edge23" class="edge">
<title>theory:landingposition&#45;&gt;accelXZero</title>
<path fill="none" stroke="black" d="M700.55,-73.61C703.9,-73 707.24,-72.46 710.5,-72 1057.48,-23.06 1154.12,-88.47 1504.25,-35.98"/>
<polygon fill="black" stroke="black" points="1504.79,-39.44 1514.15,-34.48 1503.74,-32.52 1504.79,-39.44"/>
</g>
<!-- neglectDrag -->
<g id="node14" class="node">
<title>neglectDrag</title>
<polygon fill="mistyrose" stroke="black" points="1762,-36 1643,-36 1643,0 1762,0 1762,-36"/>
<text text-anchor="middle" x="1702.5" y="-14.3" font-family="Times,serif" font-size="14.00">A:neglectDrag</text>
</g>
<!-- freeFlight -->
<g id="node15" class="node">
<title>freeFlight</title>
<polygon fill="mistyrose" stroke="black" points="1882.5,-36 1780.5,-36 1780.5,0 1882.5,0 1882.5,-36"/>
<text text-anchor="middle" x="1831.5" y="-14.3" font-family="Times,serif" font-size="14.00">A:freeFlight</text>
</g>
<!-- neglectCurv -->
<g id="node16" class="node">
<title>neglectCurv</title>
<polygon fill="mistyrose" stroke="black" points="2018.5,-36 1900.5,-36 1900.5,0 2018.5,0 2018.5,-36"/>
<text text-anchor="middle" x="1959.5" y="-14.3" font-family="Times,serif" font-size="14.00">A:neglectCurv</text>
</g>
<!-- speed -->
<g id="node17" class="node">
<title>speed</title>
<polygon fill="#bbffff" stroke="black" points="818,-108 719,-108 719,-72 818,-72 818,-108"/>
<text text-anchor="middle" x="768.5" y="-86.3" font-family="Times,serif" font-size="14.00">DD:vecMag</text>
</g>
<!-- ixVel -->
<g id="node18" class="node">
<title>ixVel</title>
<polygon fill="#bbffff" stroke="black" points="937,-108 836,-108 836,-72 937,-72 937,-108"/>
<text text-anchor="middle" x="886.5" y="-86.3" font-family="Times,serif" font-size="14.00">DD:speedIX</text>
</g>
<!-- iyVel -->
<g id="node19" class="node">
<title>iyVel</title>
<polygon fill="#bbffff" stroke="black" points="1055.5,-108 955.5,-108 955.5,-72 1055.5,-72 1055.5,-108"/>
<text text-anchor="middle" x="1005.5" y="-86.3" font-family="Times,serif" font-size="14.00">DD:speedIY</text>
</g>
<!-- accelerationTM -->
<g id="node20" class="node">
<title>accelerationTM</title>
<polygon fill="pink" stroke="black" points="1205,-108 1074,-108 1074,-72 1205,-72 1205,-108"/>
<text text-anchor="middle" x="1139.5" y="-86.3" font-family="Times,serif" font-size="14.00">TM:acceleration</text>
</g>
<!-- velocityTM -->
<g id="node21" class="node">
<title>velocityTM</title>
<polygon fill="pink" stroke="black" points="1323.5,-108 1223.5,-108 1223.5,-72 1323.5,-72 1323.5,-108"/>
<text text-anchor="middle" x="1273.5" y="-86.3" font-family="Times,serif" font-size="14.00">TM:velocity</text>
</g>
<!-- inputValues -->
<g id="node22" class="node">
<title>inputValues</title>
<polygon fill="ivory" stroke="black" points="1467,-108 1342,-108 1342,-72 1467,-72 1467,-108"/>
<text text-anchor="middle" x="1404.5" y="-86.3" font-family="Times,serif" font-size="14.00">FR:inputValues</text>
</g>
<!-- verifyInVals -->
<g id="node23" class="node">
<title>verifyInVals</title>
<polygon fill="ivory" stroke="black" points="1611.5,-108 1485.5,-108 1485.5,-72 1611.5,-72 1611.5,-108"/>
<text text-anchor="middle" x="1548.5" y="-86.3" font-family="Times,serif" font-size="14.00">FR:verifyInVals</text>
</g>
<!-- calcValues -->
<g id="node24" class="node">
<title>calcValues</title>
<polygon fill="ivory" stroke="black" points="1745.5,-108 1629.5,-108 1629.5,-72 1745.5,-72 1745.5,-108"/>
<text text-anchor="middle" x="1687.5" y="-86.3" font-family="Times,serif" font-size="14.00">FR:calcValues</text>
</g>
<!-- outputValues -->
<g id="node25" class="node">
<title>outputValues</title>
<polygon fill="ivory" stroke="black" points="1899,-108 1764,-108 1764,-72 1899,-72 1899,-108"/>
<text text-anchor="middle" x="1831.5" y="-86.3" font-family="Times,serif" font-size="14.00">FR:outputValues</text>
</g>
<!-- correct -->
<g id="node26" class="node">
<title>correct</title>
<polygon fill="ivory" stroke="black" points="2021.5,-108 1917.5,-108 1917.5,-72 2021.5,-72 2021.5,-108"/>
<text text-anchor="middle" x="1969.5" y="-86.3" font-family="Times,serif" font-size="14.00">NFR:correct</text>
</g>
<!-- verifiable -->
<g id="node27" class="node">
<title>verifiable</title>
<polygon fill="ivory" stroke="black" points="2159.5,-108 2039.5,-108 2039.5,-72 2159.5,-72 2159.5,-108"/>
<text text-anchor="middle" x="2099.5" y="-86.3" font-family="Times,serif" font-size="14.00">NFR:verifiable</text>
</g>
<!-- understandable -->
<g id="node28" class="node">
<title>understandable</title>
<polygon fill="ivory" stroke="black" points="2343,-108 2178,-108 2178,-72 2343,-72 2343,-108"/>
<text text-anchor="middle" x="2260.5" y="-86.3" font-family="Times,serif" font-size="14.00">NFR:understandable</text>
</g>
<!-- reusable -->
<g id="node29" class="node">
<title>reusable</title>
<polygon fill="ivory" stroke="black" points="2476,-108 2361,-108 2361,-72 2476,-72 2476,-108"/>
<text text-anchor="middle" x="2418.5" y="-86.3" font-family="Times,serif" font-size="14.00">NFR:reusable</text>
</g>
<!-- maintainable -->
<g id="node30" class="node">
<title>maintainable</title>
<polygon fill="ivory" stroke="black" points="2640.5,-108 2494.5,-108 2494.5,-72 2640.5,-72 2640.5,-108"/>
<text text-anchor="middle" x="2567.5" y="-86.3" font-family="Times,serif" font-size="14.00">NFR:maintainable</text>
</g>
<!-- portable -->
<g id="node31" class="node">
<title>portable</title>
<polygon fill="ivory" stroke="black" points="2772,-108 2659,-108 2659,-72 2772,-72 2772,-108"/>
<text text-anchor="middle" x="2715.5" y="-86.3" font-family="Times,serif" font-size="14.00">NFR:portable</text>
</g>
</g>
</svg>
