<?xml version="1.0" encoding="UTF-8" standalone="no"?>
<!DOCTYPE svg PUBLIC "-//W3C//DTD SVG 1.1//EN"
 "http://www.w3.org/Graphics/SVG/1.1/DTD/svg11.dtd">
<!-- Generated by graphviz version 2.43.0 (0)
 -->
<!-- Title: refvsref Pages: 1 -->
<svg width="613pt" height="116pt"
 viewBox="0.00 0.00 612.50 116.00" xmlns="http://www.w3.org/2000/svg" xmlns:xlink="http://www.w3.org/1999/xlink">
<g id="graph0" class="graph" transform="scale(1 1) rotate(0) translate(4 112)">
<title>refvsref</title>
<polygon fill="white" stroke="transparent" points="-4,4 -4,-112 608.5,-112 608.5,4 -4,4"/>
<!-- ixVel -->
<g id="node1" class="node">
<title>ixVel</title>
<polygon fill="#bbffff" stroke="black" points="101,-36 0,-36 0,0 101,0 101,-36"/>
<text text-anchor="middle" x="50.5" y="-14.3" font-family="Times,serif" font-size="14.00">DD:speedIX</text>
</g>
<!-- speed -->
<g id="node2" class="node">
<title>speed</title>
<polygon fill="#bbffff" stroke="black" points="337,-36 238,-36 238,0 337,0 337,-36"/>
<text text-anchor="middle" x="287.5" y="-14.3" font-family="Times,serif" font-size="14.00">DD:vecMag</text>
</g>
<!-- ixVel&#45;&gt;speed -->
<g id="edge1" class="edge">
<title>ixVel&#45;&gt;speed</title>
<path fill="none" stroke="black" d="M77.81,-36.13C90.03,-43.19 104.93,-50.43 119.5,-54 162.67,-64.58 176.37,-64.71 219.5,-54 230.52,-51.26 241.71,-46.38 251.76,-41.07"/>
<polygon fill="black" stroke="black" points="253.59,-44.05 260.62,-36.12 250.18,-37.94 253.59,-44.05"/>
</g>
<!-- iyVel -->
<g id="node3" class="node">
<title>iyVel</title>
<polygon fill="#bbffff" stroke="black" points="219.5,-36 119.5,-36 119.5,0 219.5,0 219.5,-36"/>
<text text-anchor="middle" x="169.5" y="-14.3" font-family="Times,serif" font-size="14.00">DD:speedIY</text>
</g>
<!-- iyVel&#45;&gt;speed -->
<g id="edge2" class="edge">
<title>iyVel&#45;&gt;speed</title>
<path fill="none" stroke="black" d="M219.74,-18C222.37,-18 224.99,-18 227.62,-18"/>
<polygon fill="black" stroke="black" points="227.74,-21.5 237.74,-18 227.74,-14.5 227.74,-21.5"/>
</g>
<!-- theory -->
<g id="node4" class="node">
<title>theory</title>
<polygon fill="#fff68f" stroke="black" points="355.5,-108 233.5,-108 233.5,-72 355.5,-72 355.5,-108"/>
<text text-anchor="middle" x="294.5" y="-86.3" font-family="Times,serif" font-size="14.00">IM:messageIM</text>
</g>
<!-- theory&#45;&gt;ixVel -->
<g id="edge10" class="edge">
<title>theory:landingposition&#45;&gt;ixVel</title>
<path fill="none" stroke="black" d="M235.12,-71.97C197.44,-61.16 148.82,-47.21 110.94,-36.34"/>
<polygon fill="black" stroke="black" points="111.63,-32.9 101.05,-33.5 109.7,-39.63 111.63,-32.9"/>
</g>
<!-- theory&#45;&gt;iyVel -->
<g id="edge8" class="edge">
<title>theory:flightduration&#45;&gt;iyVel</title>
<path fill="none" stroke="black" d="M263.92,-71.88C247.43,-62.64 226.88,-51.13 209.16,-41.21"/>
<polygon fill="black" stroke="black" points="210.63,-38.02 200.2,-36.19 207.21,-44.13 210.63,-38.02"/>
</g>
<!-- theory&#45;&gt;theory -->
<g id="edge5" class="edge">
<title>theory:projPos&#45;&gt;theory:projSpeed</title>
<path fill="none" stroke="black" d="M355.78,-91.58C366.25,-91.36 373.5,-90.83 373.5,-90 373.5,-89.48 370.67,-89.08 365.99,-88.8"/>
<polygon fill="black" stroke="black" points="365.9,-85.29 355.78,-88.42 365.64,-92.29 365.9,-85.29"/>
</g>
<!-- theory&#45;&gt;theory -->
<g id="edge6" class="edge">
<title>theory:velocity&#45;&gt;theory:projSpeed</title>
<path fill="none" stroke="black" d="M355.6,-93.37C375.58,-93.36 391.5,-92.23 391.5,-90 391.5,-88.17 380.79,-87.08 365.91,-86.74"/>
<polygon fill="black" stroke="black" points="365.64,-83.24 355.6,-86.63 365.56,-90.24 365.64,-83.24"/>
</g>
<!-- theory&#45;&gt;theory -->
<g id="edge7" class="edge">
<title>theory:position&#45;&gt;theory:projPos</title>
<path fill="none" stroke="black" d="M355.73,-94.96C384.39,-95.52 409.5,-93.86 409.5,-90 409.5,-86.6 390.11,-84.92 365.95,-84.94"/>
<polygon fill="black" stroke="black" points="365.69,-81.44 355.73,-85.04 365.77,-88.44 365.69,-81.44"/>
</g>
<!-- theory&#45;&gt;theory -->
<g id="edge9" class="edge">
<title>theory:flightduration&#45;&gt;theory:position</title>
<path fill="none" stroke="black" d="M355.72,-96.31C392.65,-97.75 427.5,-95.64 427.5,-90 427.5,-84.89 398.88,-82.68 366.02,-83.38"/>
<polygon fill="black" stroke="black" points="365.61,-79.89 355.72,-83.69 365.82,-86.88 365.61,-79.89"/>
</g>
<!-- theory&#45;&gt;theory -->
<g id="edge11" class="edge">
<title>theory:landingposition&#45;&gt;theory:position</title>
<path fill="none" stroke="black" d="M355.76,-97.49C400.58,-100.01 445.5,-97.51 445.5,-90 445.5,-83.06 407.17,-80.4 365.98,-82.03"/>
<polygon fill="black" stroke="black" points="365.58,-78.54 355.76,-82.51 365.91,-85.53 365.58,-78.54"/>
</g>
<!-- theory&#45;&gt;theory -->
<g id="edge12" class="edge">
<title>theory:landingposition&#45;&gt;theory:flightduration</title>
<path fill="none" stroke="black" d="M355.58,-98.49C408.11,-102.29 463.5,-99.47 463.5,-90 463.5,-81.14 415.02,-78.1 365.76,-80.86"/>
<polygon fill="black" stroke="black" points="365.34,-77.38 355.58,-81.51 365.79,-84.37 365.34,-77.38"/>
</g>
<!-- theory&#45;&gt;theory -->
<g id="edge13" class="edge">
<title>theory:offset&#45;&gt;theory:landingposition</title>
<path fill="none" stroke="black" d="M355.79,-99.39C415.69,-104.57 481.5,-101.44 481.5,-90 481.5,-79.2 422.93,-75.81 366.01,-79.81"/>
<polygon fill="black" stroke="black" points="365.49,-76.34 355.79,-80.61 366.03,-83.32 365.49,-76.34"/>
</g>
<!-- theory&#45;&gt;theory -->
<g id="edge14" class="edge">
<title>theory:message&#45;&gt;theory:offset</title>
<path fill="none" stroke="black" d="M355.62,-100.15C422.83,-106.87 499.5,-103.48 499.5,-90 499.5,-77.2 430.41,-73.5 365.92,-78.9"/>
<polygon fill="black" stroke="black" points="365.26,-75.45 355.62,-79.85 365.9,-82.42 365.26,-75.45"/>
</g>
<!-- accelerationTM -->
<g id="node5" class="node">
<title>accelerationTM</title>
<polygon fill="pink" stroke="black" points="486,-36 355,-36 355,0 486,0 486,-36"/>
<text text-anchor="middle" x="420.5" y="-14.3" font-family="Times,serif" font-size="14.00">TM:acceleration</text>
</g>
<!-- theory&#45;&gt;accelerationTM -->
<g id="edge3" class="edge">
<title>theory:projSpeed&#45;&gt;accelerationTM</title>
<path fill="none" stroke="black" d="M325.32,-71.88C341.95,-62.64 362.66,-51.13 380.52,-41.21"/>
<polygon fill="black" stroke="black" points="382.52,-44.11 389.56,-36.19 379.12,-37.99 382.52,-44.11"/>
</g>
<!-- velocityTM -->
<g id="node6" class="node">
<title>velocityTM</title>
<polygon fill="pink" stroke="black" points="604.5,-36 504.5,-36 504.5,0 604.5,0 604.5,-36"/>
<text text-anchor="middle" x="554.5" y="-14.3" font-family="Times,serif" font-size="14.00">TM:velocity</text>
</g>
<!-- theory&#45;&gt;velocityTM -->
<g id="edge4" class="edge">
<title>theory:projPos&#45;&gt;velocityTM</title>
<path fill="none" stroke="black" d="M355.73,-73.24C393.27,-63.49 442.53,-50.53 494.56,-36.23"/>
<polygon fill="black" stroke="black" points="495.6,-39.58 504.31,-33.55 493.74,-32.83 495.6,-39.58"/>
</g>
</g>
</svg>
