<?xml version="1.0" encoding="UTF-8" standalone="no"?>
<!DOCTYPE svg PUBLIC "-//W3C//DTD SVG 1.1//EN"
 "http://www.w3.org/Graphics/SVG/1.1/DTD/svg11.dtd">
<!-- Generated by graphviz version 2.43.0 (0)
 -->
<!-- Title: allvsr Pages: 1 -->
<svg width="7471pt" height="141pt"
 viewBox="0.00 0.00 7471.00 140.50" xmlns="http://www.w3.org/2000/svg" xmlns:xlink="http://www.w3.org/1999/xlink">
<g id="graph0" class="graph" transform="scale(1 1) rotate(0) translate(4 136.5)">
<title>allvsr</title>
<polygon fill="white" stroke="transparent" points="-4,4 -4,-136.5 7467,-136.5 7467,4 -4,4"/>
<!-- findMass -->
<g id="node1" class="node">
<title>findMass</title>
<polygon fill="ivory" stroke="black" points="1326.5,-108 1220.5,-108 1220.5,-72 1326.5,-72 1326.5,-108"/>
<text text-anchor="middle" x="1273.5" y="-86.3" font-family="Times,serif" font-size="14.00">FR:findMass</text>
</g>
<!-- wMass -->
<g id="node2" class="node">
<title>wMass</title>
<polygon fill="#bbffff" stroke="black" points="1723.5,-36 1601.5,-36 1601.5,0 1723.5,0 1723.5,-36"/>
<text text-anchor="middle" x="1662.5" y="-14.3" font-family="Times,serif" font-size="14.00">DD:waterMass</text>
</g>
<!-- findMass&#45;&gt;wMass -->
<g id="edge1" class="edge">
<title>findMass&#45;&gt;wMass</title>
<path fill="none" stroke="black" d="M1326.67,-74.16C1329.98,-73.39 1333.28,-72.66 1336.5,-72 1445.88,-49.64 1477.85,-57.12 1591.36,-36.1"/>
<polygon fill="black" stroke="black" points="1592.32,-39.48 1601.49,-34.19 1591.02,-32.6 1592.32,-39.48"/>
</g>
<!-- wVol -->
<g id="node3" class="node">
<title>wVol</title>
<polygon fill="#bbffff" stroke="black" points="1913.5,-36 1741.5,-36 1741.5,0 1913.5,0 1913.5,-36"/>
<text text-anchor="middle" x="1827.5" y="-14.3" font-family="Times,serif" font-size="14.00">DD:waterVolume.pcm</text>
</g>
<!-- findMass&#45;&gt;wVol -->
<g id="edge2" class="edge">
<title>findMass&#45;&gt;wVol</title>
<path fill="none" stroke="black" d="M1326.63,-73.97C1329.96,-73.24 1333.27,-72.58 1336.5,-72 1507.23,-41.44 1555.57,-58.91 1731.24,-36.09"/>
<polygon fill="black" stroke="black" points="1731.88,-39.54 1741.34,-34.75 1730.96,-32.6 1731.88,-39.54"/>
</g>
<!-- tankVol -->
<g id="node4" class="node">
<title>tankVol</title>
<polygon fill="#bbffff" stroke="black" points="2059.5,-36 1931.5,-36 1931.5,0 2059.5,0 2059.5,-36"/>
<text text-anchor="middle" x="1995.5" y="-14.3" font-family="Times,serif" font-size="14.00">DD:tankVolume</text>
</g>
<!-- findMass&#45;&gt;tankVol -->
<g id="edge3" class="edge">
<title>findMass&#45;&gt;tankVol</title>
<path fill="none" stroke="black" d="M1326.61,-73.86C1329.94,-73.16 1333.26,-72.53 1336.5,-72 1590.73,-30.33 1662.49,-72.62 1921.06,-36.06"/>
<polygon fill="black" stroke="black" points="1921.73,-39.5 1931.13,-34.61 1920.73,-32.57 1921.73,-39.5"/>
</g>
<!-- eBalanceOnWtrRC -->
<g id="node5" class="node">
<title>eBalanceOnWtrRC</title>
<polygon fill="#fff68f" stroke="black" points="520.5,-36 368.5,-36 368.5,0 520.5,0 520.5,-36"/>
<text text-anchor="middle" x="444.5" y="-14.3" font-family="Times,serif" font-size="14.00">IM:eBalanceOnWtr</text>
</g>
<!-- findMass&#45;&gt;eBalanceOnWtrRC -->
<g id="edge4" class="edge">
<title>findMass&#45;&gt;eBalanceOnWtrRC</title>
<path fill="none" stroke="black" d="M1220.42,-73.47C1217.76,-72.92 1215.1,-72.43 1212.5,-72 915.88,-23.45 832.96,-72.77 531.24,-36.1"/>
<polygon fill="black" stroke="black" points="531.22,-32.57 520.87,-34.82 530.36,-39.52 531.22,-32.57"/>
</g>
<!-- eBalanceOnPCMRC -->
<g id="node6" class="node">
<title>eBalanceOnPCMRC</title>
<polygon fill="#fff68f" stroke="black" points="350.5,-36 190.5,-36 190.5,0 350.5,0 350.5,-36"/>
<text text-anchor="middle" x="270.5" y="-14.3" font-family="Times,serif" font-size="14.00">IM:eBalanceOnPCM</text>
</g>
<!-- findMass&#45;&gt;eBalanceOnPCMRC -->
<g id="edge5" class="edge">
<title>findMass&#45;&gt;eBalanceOnPCMRC</title>
<path fill="none" stroke="black" d="M1220.43,-73.44C1217.76,-72.9 1215.11,-72.41 1212.5,-72 841.01,-13.2 738.22,-78.54 361.05,-36.07"/>
<polygon fill="black" stroke="black" points="361.28,-32.57 350.95,-34.91 360.49,-39.53 361.28,-32.57"/>
</g>
<!-- heatEInWtrIM -->
<g id="node7" class="node">
<title>heatEInWtrIM</title>
<polygon fill="#fff68f" stroke="black" points="662.5,-36 538.5,-36 538.5,0 662.5,0 662.5,-36"/>
<text text-anchor="middle" x="600.5" y="-14.3" font-family="Times,serif" font-size="14.00">IM:heatEInWtr</text>
</g>
<!-- findMass&#45;&gt;heatEInWtrIM -->
<g id="edge6" class="edge">
<title>findMass&#45;&gt;heatEInWtrIM</title>
<path fill="none" stroke="black" d="M1220.42,-73.51C1217.75,-72.95 1215.1,-72.44 1212.5,-72 978.21,-31.99 911.56,-71.09 672.75,-36.03"/>
<polygon fill="black" stroke="black" points="673.13,-32.54 662.72,-34.53 672.09,-39.47 673.13,-32.54"/>
</g>
<!-- heatEInPCMRC -->
<g id="node8" class="node">
<title>heatEInPCMRC</title>
<polygon fill="#fff68f" stroke="black" points="812,-36 681,-36 681,0 812,0 812,-36"/>
<text text-anchor="middle" x="746.5" y="-14.3" font-family="Times,serif" font-size="14.00">IM:heatEInPCM</text>
</g>
<!-- findMass&#45;&gt;heatEInPCMRC -->
<g id="edge7" class="edge">
<title>findMass&#45;&gt;heatEInPCMRC</title>
<path fill="none" stroke="black" d="M1220.4,-73.59C1217.74,-73.01 1215.1,-72.48 1212.5,-72 1043.62,-40.97 995.05,-62.8 822.12,-36.13"/>
<polygon fill="black" stroke="black" points="822.6,-32.67 812.18,-34.57 821.51,-39.58 822.6,-32.67"/>
</g>
<!-- inputValues -->
<g id="node9" class="node">
<title>inputValues</title>
<polygon fill="ivory" stroke="black" points="1470,-108 1345,-108 1345,-72 1470,-72 1470,-108"/>
<text text-anchor="middle" x="1407.5" y="-86.3" font-family="Times,serif" font-size="14.00">FR:inputValues</text>
</g>
<!-- findMass&#45;&gt;inputValues -->
<g id="edge8" class="edge">
<title>findMass&#45;&gt;inputValues</title>
<path fill="none" stroke="black" d="M1326.63,-90C1329.4,-90 1332.16,-90 1334.93,-90"/>
<polygon fill="black" stroke="black" points="1334.95,-93.5 1344.95,-90 1334.95,-86.5 1334.95,-93.5"/>
</g>
<!-- outputInputDerivVals -->
<g id="node10" class="node">
<title>outputInputDerivVals</title>
<polygon fill="ivory" stroke="black" points="1203,-108 1008,-108 1008,-72 1203,-72 1203,-108"/>
<text text-anchor="middle" x="1105.5" y="-86.3" font-family="Times,serif" font-size="14.00">FR:outputInputDerivVals</text>
</g>
<!-- outputInputDerivVals&#45;&gt;findMass -->
<g id="edge14" class="edge">
<title>outputInputDerivVals&#45;&gt;findMass</title>
<path fill="none" stroke="black" d="M1203.28,-90C1205.58,-90 1207.89,-90 1210.19,-90"/>
<polygon fill="black" stroke="black" points="1210.29,-93.5 1220.29,-90 1210.29,-86.5 1210.29,-93.5"/>
</g>
<!-- outputInputDerivVals&#45;&gt;inputValues -->
<g id="edge13" class="edge">
<title>outputInputDerivVals&#45;&gt;inputValues</title>
<path fill="none" stroke="black" d="M1152.02,-108.09C1172.65,-115.19 1197.44,-122.48 1220.5,-126 1267.07,-133.12 1280.42,-135.78 1326.5,-126 1339.82,-123.17 1353.6,-118 1365.94,-112.45"/>
<polygon fill="black" stroke="black" points="1367.5,-115.58 1375.06,-108.15 1364.52,-109.24 1367.5,-115.58"/>
</g>
<!-- tauW -->
<g id="node11" class="node">
<title>tauW</title>
<polygon fill="#bbffff" stroke="black" points="1388,-36 1213,-36 1213,0 1388,0 1388,-36"/>
<text text-anchor="middle" x="1300.5" y="-14.3" font-family="Times,serif" font-size="14.00">DD:balanceDecayRate</text>
</g>
<!-- outputInputDerivVals&#45;&gt;tauW -->
<g id="edge9" class="edge">
<title>outputInputDerivVals&#45;&gt;tauW</title>
<path fill="none" stroke="black" d="M1153.2,-71.88C1180.45,-62.09 1214.8,-49.77 1243.47,-39.47"/>
<polygon fill="black" stroke="black" points="1244.72,-42.74 1252.95,-36.07 1242.36,-36.15 1244.72,-42.74"/>
</g>
<!-- eta -->
<g id="node12" class="node">
<title>eta</title>
<polygon fill="#bbffff" stroke="black" points="1583,-36 1406,-36 1406,0 1583,0 1583,-36"/>
<text text-anchor="middle" x="1494.5" y="-14.3" font-family="Times,serif" font-size="14.00">DD:balanceDecayTime</text>
</g>
<!-- outputInputDerivVals&#45;&gt;eta -->
<g id="edge10" class="edge">
<title>outputInputDerivVals&#45;&gt;eta</title>
<path fill="none" stroke="black" d="M1200.16,-71.97C1259.49,-61.29 1335.83,-47.55 1395.89,-36.74"/>
<polygon fill="black" stroke="black" points="1396.54,-40.18 1405.76,-34.97 1395.3,-33.29 1396.54,-40.18"/>
</g>
<!-- tauSP -->
<g id="node13" class="node">
<title>tauSP</title>
<polygon fill="#bbffff" stroke="black" points="999,-36 830,-36 830,0 999,0 999,-36"/>
<text text-anchor="middle" x="914.5" y="-14.3" font-family="Times,serif" font-size="14.00">DD:balanceSolidPCM</text>
</g>
<!-- outputInputDerivVals&#45;&gt;tauSP -->
<g id="edge11" class="edge">
<title>outputInputDerivVals&#45;&gt;tauSP</title>
<path fill="none" stroke="black" d="M1058.78,-71.88C1032.2,-62.14 998.74,-49.87 970.73,-39.61"/>
<polygon fill="black" stroke="black" points="971.67,-36.22 961.07,-36.07 969.26,-42.8 971.67,-36.22"/>
</g>
<!-- tauLP -->
<g id="node14" class="node">
<title>tauLP</title>
<polygon fill="#bbffff" stroke="black" points="1194.5,-36 1016.5,-36 1016.5,0 1194.5,0 1194.5,-36"/>
<text text-anchor="middle" x="1105.5" y="-14.3" font-family="Times,serif" font-size="14.00">DD:balanceLiquidPCM</text>
</g>
<!-- outputInputDerivVals&#45;&gt;tauLP -->
<g id="edge12" class="edge">
<title>outputInputDerivVals&#45;&gt;tauLP</title>
<path fill="none" stroke="black" d="M1105.5,-71.7C1105.5,-63.98 1105.5,-54.71 1105.5,-46.11"/>
<polygon fill="black" stroke="black" points="1109,-46.1 1105.5,-36.1 1102,-46.1 1109,-46.1"/>
</g>
<!-- calcValues -->
<g id="node15" class="node">
<title>calcValues</title>
<polygon fill="ivory" stroke="black" points="657.5,-108 541.5,-108 541.5,-72 657.5,-72 657.5,-108"/>
<text text-anchor="middle" x="599.5" y="-86.3" font-family="Times,serif" font-size="14.00">FR:calcValues</text>
</g>
<!-- calcValues&#45;&gt;eBalanceOnWtrRC -->
<g id="edge15" class="edge">
<title>calcValues&#45;&gt;eBalanceOnWtrRC</title>
<path fill="none" stroke="black" d="M561.58,-71.88C540.49,-62.35 514.04,-50.41 491.63,-40.28"/>
<polygon fill="black" stroke="black" points="492.85,-36.99 482.29,-36.07 489.97,-43.37 492.85,-36.99"/>
</g>
<!-- calcValues&#45;&gt;eBalanceOnPCMRC -->
<g id="edge16" class="edge">
<title>calcValues&#45;&gt;eBalanceOnPCMRC</title>
<path fill="none" stroke="black" d="M541.41,-74.93C537.05,-73.92 532.71,-72.94 528.5,-72 472.86,-59.63 410.22,-46.74 360.61,-36.77"/>
<polygon fill="black" stroke="black" points="361.04,-33.28 350.54,-34.75 359.66,-40.15 361.04,-33.28"/>
</g>
<!-- calcValues&#45;&gt;heatEInWtrIM -->
<g id="edge17" class="edge">
<title>calcValues&#45;&gt;heatEInWtrIM</title>
<path fill="none" stroke="black" d="M599.75,-71.7C599.86,-63.98 599.99,-54.71 600.11,-46.11"/>
<polygon fill="black" stroke="black" points="603.61,-46.15 600.26,-36.1 596.61,-46.05 603.61,-46.15"/>
</g>
<!-- calcValues&#45;&gt;heatEInPCMRC -->
<g id="edge18" class="edge">
<title>calcValues&#45;&gt;heatEInPCMRC</title>
<path fill="none" stroke="black" d="M635.46,-71.88C655.38,-62.39 680.32,-50.51 701.52,-40.42"/>
<polygon fill="black" stroke="black" points="703.13,-43.53 710.66,-36.07 700.12,-37.21 703.13,-43.53"/>
</g>
<!-- calcPCMMeltBegin -->
<g id="node16" class="node">
<title>calcPCMMeltBegin</title>
<polygon fill="ivory" stroke="black" points="361.5,-108 183.5,-108 183.5,-72 361.5,-72 361.5,-108"/>
<text text-anchor="middle" x="272.5" y="-86.3" font-family="Times,serif" font-size="14.00">FR:calcPCMMeltBegin</text>
</g>
<!-- calcPCMMeltBegin&#45;&gt;eBalanceOnPCMRC -->
<g id="edge19" class="edge">
<title>calcPCMMeltBegin&#45;&gt;eBalanceOnPCMRC</title>
<path fill="none" stroke="black" d="M272.01,-71.7C271.79,-63.98 271.52,-54.71 271.27,-46.11"/>
<polygon fill="black" stroke="black" points="274.77,-46 270.99,-36.1 267.78,-46.2 274.77,-46"/>
</g>
<!-- calcPCMMeltEnd -->
<g id="node17" class="node">
<title>calcPCMMeltEnd</title>
<polygon fill="ivory" stroke="black" points="165,-108 0,-108 0,-72 165,-72 165,-108"/>
<text text-anchor="middle" x="82.5" y="-86.3" font-family="Times,serif" font-size="14.00">FR:calcPCMMeltEnd</text>
</g>
<!-- calcPCMMeltEnd&#45;&gt;eBalanceOnPCMRC -->
<g id="edge20" class="edge">
<title>calcPCMMeltEnd&#45;&gt;eBalanceOnPCMRC</title>
<path fill="none" stroke="black" d="M128.49,-71.88C154.65,-62.14 187.59,-49.87 215.15,-39.61"/>
<polygon fill="black" stroke="black" points="216.51,-42.84 224.66,-36.07 214.07,-36.28 216.51,-42.84"/>
</g>
<!-- outputValues -->
<g id="node18" class="node">
<title>outputValues</title>
<polygon fill="ivory" stroke="black" points="520,-108 385,-108 385,-72 520,-72 520,-108"/>
<text text-anchor="middle" x="452.5" y="-86.3" font-family="Times,serif" font-size="14.00">FR:outputValues</text>
</g>
<!-- outputValues&#45;&gt;eBalanceOnWtrRC -->
<g id="edge21" class="edge">
<title>outputValues&#45;&gt;eBalanceOnWtrRC</title>
<path fill="none" stroke="black" d="M450.52,-71.7C449.64,-63.98 448.58,-54.71 447.6,-46.11"/>
<polygon fill="black" stroke="black" points="451.07,-45.64 446.45,-36.1 444.11,-46.44 451.07,-45.64"/>
</g>
<!-- outputValues&#45;&gt;eBalanceOnPCMRC -->
<g id="edge22" class="edge">
<title>outputValues&#45;&gt;eBalanceOnPCMRC</title>
<path fill="none" stroke="black" d="M407.98,-71.88C382.77,-62.18 351.05,-49.98 324.43,-39.74"/>
<polygon fill="black" stroke="black" points="325.47,-36.39 314.88,-36.07 322.95,-42.92 325.47,-36.39"/>
</g>
<!-- outputValues&#45;&gt;heatEInWtrIM -->
<g id="edge23" class="edge">
<title>outputValues&#45;&gt;heatEInWtrIM</title>
<path fill="none" stroke="black" d="M488.7,-71.88C508.76,-62.39 533.87,-50.51 555.21,-40.42"/>
<polygon fill="black" stroke="black" points="556.87,-43.51 564.41,-36.07 553.88,-37.18 556.87,-43.51"/>
</g>
<!-- outputValues&#45;&gt;heatEInPCMRC -->
<g id="edge24" class="edge">
<title>outputValues&#45;&gt;heatEInPCMRC</title>
<path fill="none" stroke="black" d="M520.32,-72.85C565.27,-62.15 624.29,-48.1 670.77,-37.03"/>
<polygon fill="black" stroke="black" points="671.88,-40.37 680.79,-34.64 670.25,-33.56 671.88,-40.37"/>
</g>
<!-- assumpTEO -->
<g id="node19" class="node">
<title>assumpTEO</title>
<polygon fill="mistyrose" stroke="black" points="1604.5,-108 1488.5,-108 1488.5,-72 1604.5,-72 1604.5,-108"/>
<text text-anchor="middle" x="1546.5" y="-86.3" font-family="Times,serif" font-size="14.00">A:assumpTEO</text>
</g>
<!-- assumpHTCC -->
<g id="node20" class="node">
<title>assumpHTCC</title>
<polygon fill="mistyrose" stroke="black" points="1750.5,-108 1622.5,-108 1622.5,-72 1750.5,-72 1750.5,-108"/>
<text text-anchor="middle" x="1686.5" y="-86.3" font-family="Times,serif" font-size="14.00">A:assumpHTCC</text>
</g>
<!-- assumpCWTAT -->
<g id="node21" class="node">
<title>assumpCWTAT</title>
<polygon fill="mistyrose" stroke="black" points="1906,-108 1769,-108 1769,-72 1906,-72 1906,-108"/>
<text text-anchor="middle" x="1837.5" y="-86.3" font-family="Times,serif" font-size="14.00">A:assumpCWTAT</text>
</g>
<!-- assumpTPCAV -->
<g id="node22" class="node">
<title>assumpTPCAV</title>
<polygon fill="mistyrose" stroke="black" points="2058.5,-108 1924.5,-108 1924.5,-72 2058.5,-72 2058.5,-108"/>
<text text-anchor="middle" x="1991.5" y="-86.3" font-family="Times,serif" font-size="14.00">A:assumpTPCAV</text>
</g>
<!-- assumpDWPCoV -->
<g id="node23" class="node">
<title>assumpDWPCoV</title>
<polygon fill="mistyrose" stroke="black" points="2226,-108 2077,-108 2077,-72 2226,-72 2226,-108"/>
<text text-anchor="middle" x="2151.5" y="-86.3" font-family="Times,serif" font-size="14.00">A:assumpDWPCoV</text>
</g>
<!-- assumpSHECov -->
<g id="node24" class="node">
<title>assumpSHECov</title>
<polygon fill="mistyrose" stroke="black" points="2389,-108 2244,-108 2244,-72 2389,-72 2389,-108"/>
<text text-anchor="middle" x="2316.5" y="-86.3" font-family="Times,serif" font-size="14.00">A:assumpSHECov</text>
</g>
<!-- assumpLCCCW -->
<g id="node25" class="node">
<title>assumpLCCCW</title>
<polygon fill="mistyrose" stroke="black" points="2547.5,-108 2407.5,-108 2407.5,-72 2547.5,-72 2547.5,-108"/>
<text text-anchor="middle" x="2477.5" y="-86.3" font-family="Times,serif" font-size="14.00">A:assumpLCCCW</text>
</g>
<!-- assumpTHCCoT -->
<g id="node26" class="node">
<title>assumpTHCCoT</title>
<polygon fill="mistyrose" stroke="black" points="2711,-108 2566,-108 2566,-72 2711,-72 2711,-108"/>
<text text-anchor="middle" x="2638.5" y="-86.3" font-family="Times,serif" font-size="14.00">A:assumpTHCCoT</text>
</g>
<!-- assumpTHCCoL -->
<g id="node27" class="node">
<title>assumpTHCCoL</title>
<polygon fill="mistyrose" stroke="black" points="2874,-108 2729,-108 2729,-72 2874,-72 2874,-108"/>
<text text-anchor="middle" x="2801.5" y="-86.3" font-family="Times,serif" font-size="14.00">A:assumpTHCCoL</text>
</g>
<!-- assumpLCCWP -->
<g id="node28" class="node">
<title>assumpLCCWP</title>
<polygon fill="mistyrose" stroke="black" points="3032.5,-108 2892.5,-108 2892.5,-72 3032.5,-72 3032.5,-108"/>
<text text-anchor="middle" x="2962.5" y="-86.3" font-family="Times,serif" font-size="14.00">A:assumpLCCWP</text>
</g>
<!-- assumpCTNOD -->
<g id="node29" class="node">
<title>assumpCTNOD</title>
<polygon fill="mistyrose" stroke="black" points="3190.5,-108 3050.5,-108 3050.5,-72 3190.5,-72 3190.5,-108"/>
<text text-anchor="middle" x="3120.5" y="-86.3" font-family="Times,serif" font-size="14.00">A:assumpCTNOD</text>
</g>
<!-- assumpSITWP -->
<g id="node30" class="node">
<title>assumpSITWP</title>
<polygon fill="mistyrose" stroke="black" points="3342.5,-108 3208.5,-108 3208.5,-72 3342.5,-72 3342.5,-108"/>
<text text-anchor="middle" x="3275.5" y="-86.3" font-family="Times,serif" font-size="14.00">A:assumpSITWP</text>
</g>
<!-- assumpPIS -->
<g id="node31" class="node">
<title>assumpPIS</title>
<polygon fill="mistyrose" stroke="black" points="3470.5,-108 3360.5,-108 3360.5,-72 3470.5,-72 3470.5,-108"/>
<text text-anchor="middle" x="3415.5" y="-86.3" font-family="Times,serif" font-size="14.00">A:assumpPIS</text>
</g>
<!-- assumpWAL -->
<g id="node32" class="node">
<title>assumpWAL</title>
<polygon fill="mistyrose" stroke="black" points="3606.5,-108 3488.5,-108 3488.5,-72 3606.5,-72 3606.5,-108"/>
<text text-anchor="middle" x="3547.5" y="-86.3" font-family="Times,serif" font-size="14.00">A:assumpWAL</text>
</g>
<!-- assumpPIT -->
<g id="node33" class="node">
<title>assumpPIT</title>
<polygon fill="mistyrose" stroke="black" points="3734.5,-108 3624.5,-108 3624.5,-72 3734.5,-72 3734.5,-108"/>
<text text-anchor="middle" x="3679.5" y="-86.3" font-family="Times,serif" font-size="14.00">A:assumpPIT</text>
</g>
<!-- assumpNIHGBWP -->
<g id="node34" class="node">
<title>assumpNIHGBWP</title>
<polygon fill="mistyrose" stroke="black" points="3914,-108 3753,-108 3753,-72 3914,-72 3914,-108"/>
<text text-anchor="middle" x="3833.5" y="-86.3" font-family="Times,serif" font-size="14.00">A:assumpNIHGBWP</text>
</g>
<!-- assumpVCMPN -->
<g id="node35" class="node">
<title>assumpVCMPN</title>
<polygon fill="mistyrose" stroke="black" points="4074.5,-108 3932.5,-108 3932.5,-72 4074.5,-72 4074.5,-108"/>
<text text-anchor="middle" x="4003.5" y="-86.3" font-family="Times,serif" font-size="14.00">A:assumpVCMPN</text>
</g>
<!-- assumpNGSP -->
<g id="node36" class="node">
<title>assumpNGSP</title>
<polygon fill="mistyrose" stroke="black" points="4220.5,-108 4092.5,-108 4092.5,-72 4220.5,-72 4220.5,-108"/>
<text text-anchor="middle" x="4156.5" y="-86.3" font-family="Times,serif" font-size="14.00">A:assumpNGSP</text>
</g>
<!-- assumpAPT -->
<g id="node37" class="node">
<title>assumpAPT</title>
<polygon fill="mistyrose" stroke="black" points="4352.5,-108 4238.5,-108 4238.5,-72 4352.5,-72 4352.5,-108"/>
<text text-anchor="middle" x="4295.5" y="-86.3" font-family="Times,serif" font-size="14.00">A:assumpAPT</text>
</g>
<!-- assumpVCN -->
<g id="node38" class="node">
<title>assumpVCN</title>
<polygon fill="mistyrose" stroke="black" points="4488.5,-108 4370.5,-108 4370.5,-72 4488.5,-72 4488.5,-108"/>
<text text-anchor="middle" x="4429.5" y="-86.3" font-family="Times,serif" font-size="14.00">A:assumpVCN</text>
</g>
<!-- htFusion -->
<g id="node39" class="node">
<title>htFusion</title>
<polygon fill="#bbffff" stroke="black" points="2185,-36 2078,-36 2078,0 2185,0 2185,-36"/>
<text text-anchor="middle" x="2131.5" y="-14.3" font-family="Times,serif" font-size="14.00">DD:htFusion</text>
</g>
<!-- meltFrac -->
<g id="node40" class="node">
<title>meltFrac</title>
<polygon fill="#bbffff" stroke="black" points="2311.5,-36 2203.5,-36 2203.5,0 2311.5,0 2311.5,-36"/>
<text text-anchor="middle" x="2257.5" y="-14.3" font-family="Times,serif" font-size="14.00">DD:meltFrac</text>
</g>
<!-- aspectRatio -->
<g id="node41" class="node">
<title>aspectRatio</title>
<polygon fill="#bbffff" stroke="black" points="2457.5,-36 2329.5,-36 2329.5,0 2457.5,0 2457.5,-36"/>
<text text-anchor="middle" x="2393.5" y="-14.3" font-family="Times,serif" font-size="14.00">DD:aspectRatio</text>
</g>
<!-- consThermECS -->
<g id="node42" class="node">
<title>consThermECS</title>
<polygon fill="pink" stroke="black" points="4640.5,-108 4506.5,-108 4506.5,-72 4640.5,-72 4640.5,-108"/>
<text text-anchor="middle" x="4573.5" y="-86.3" font-family="Times,serif" font-size="14.00">TM:consThermE</text>
</g>
<!-- sensHeat -->
<g id="node43" class="node">
<title>sensHeat</title>
<polygon fill="pink" stroke="black" points="4764,-108 4659,-108 4659,-72 4764,-72 4764,-108"/>
<text text-anchor="middle" x="4711.5" y="-86.3" font-family="Times,serif" font-size="14.00">TM:sensHtE</text>
</g>
<!-- latentHtETM -->
<g id="node44" class="node">
<title>latentHtETM</title>
<polygon fill="pink" stroke="black" points="4897,-108 4782,-108 4782,-72 4897,-72 4897,-108"/>
<text text-anchor="middle" x="4839.5" y="-86.3" font-family="Times,serif" font-size="14.00">TM:latentHtE</text>
</g>
<!-- nwtnCoolingTM -->
<g id="node45" class="node">
<title>nwtnCoolingTM</title>
<polygon fill="pink" stroke="black" points="5049.5,-108 4915.5,-108 4915.5,-72 5049.5,-72 5049.5,-108"/>
<text text-anchor="middle" x="4982.5" y="-86.3" font-family="Times,serif" font-size="14.00">TM:nwtnCooling</text>
</g>
<!-- rocTempSimpRC -->
<g id="node46" class="node">
<title>rocTempSimpRC</title>
<polygon fill="palegreen" stroke="black" points="5209.5,-108 5067.5,-108 5067.5,-72 5209.5,-72 5209.5,-108"/>
<text text-anchor="middle" x="5138.5" y="-86.3" font-family="Times,serif" font-size="14.00">GD:rocTempSimp</text>
</g>
<!-- htFluxC -->
<g id="node47" class="node">
<title>htFluxC</title>
<polygon fill="palegreen" stroke="black" points="5427,-108 5228,-108 5228,-72 5427,-72 5427,-108"/>
<text text-anchor="middle" x="5327.5" y="-86.3" font-family="Times,serif" font-size="14.00">GD:htFluxWaterFromCoil</text>
</g>
<!-- htFluxP -->
<g id="node48" class="node">
<title>htFluxP</title>
<polygon fill="palegreen" stroke="black" points="5651.5,-108 5445.5,-108 5445.5,-72 5651.5,-72 5651.5,-108"/>
<text text-anchor="middle" x="5548.5" y="-86.3" font-family="Times,serif" font-size="14.00">GD:htFluxPCMFromWater</text>
</g>
<!-- checkWithPhysConsts -->
<g id="node49" class="node">
<title>checkWithPhysConsts</title>
<polygon fill="ivory" stroke="black" points="5869,-108 5670,-108 5670,-72 5869,-72 5869,-108"/>
<text text-anchor="middle" x="5769.5" y="-86.3" font-family="Times,serif" font-size="14.00">FR:checkWithPhysConsts</text>
</g>
<!-- verifyEnergyOutput -->
<g id="node50" class="node">
<title>verifyEnergyOutput</title>
<polygon fill="ivory" stroke="black" points="6072,-108 5887,-108 5887,-72 6072,-72 6072,-108"/>
<text text-anchor="middle" x="5979.5" y="-86.3" font-family="Times,serif" font-size="14.00">FR:verifyEnergyOutput</text>
</g>
<!-- correct -->
<g id="node51" class="node">
<title>correct</title>
<polygon fill="ivory" stroke="black" points="6194.5,-108 6090.5,-108 6090.5,-72 6194.5,-72 6194.5,-108"/>
<text text-anchor="middle" x="6142.5" y="-86.3" font-family="Times,serif" font-size="14.00">NFR:correct</text>
</g>
<!-- verifiable -->
<g id="node52" class="node">
<title>verifiable</title>
<polygon fill="ivory" stroke="black" points="6332.5,-108 6212.5,-108 6212.5,-72 6332.5,-72 6332.5,-108"/>
<text text-anchor="middle" x="6272.5" y="-86.3" font-family="Times,serif" font-size="14.00">NFR:verifiable</text>
</g>
<!-- understandable -->
<g id="node53" class="node">
<title>understandable</title>
<polygon fill="ivory" stroke="black" points="6516,-108 6351,-108 6351,-72 6516,-72 6516,-108"/>
<text text-anchor="middle" x="6433.5" y="-86.3" font-family="Times,serif" font-size="14.00">NFR:understandable</text>
</g>
<!-- reusable -->
<g id="node54" class="node">
<title>reusable</title>
<polygon fill="ivory" stroke="black" points="6649,-108 6534,-108 6534,-72 6649,-72 6649,-108"/>
<text text-anchor="middle" x="6591.5" y="-86.3" font-family="Times,serif" font-size="14.00">NFR:reusable</text>
</g>
<!-- maintainable -->
<g id="node55" class="node">
<title>maintainable</title>
<polygon fill="ivory" stroke="black" points="6813.5,-108 6667.5,-108 6667.5,-72 6813.5,-72 6813.5,-108"/>
<text text-anchor="middle" x="6740.5" y="-86.3" font-family="Times,serif" font-size="14.00">NFR:maintainable</text>
</g>
<!-- waterTempGS -->
<g id="node56" class="node">
<title>waterTempGS</title>
<polygon fill="#ffb90f" stroke="black" points="6975,-108 6832,-108 6832,-72 6975,-72 6975,-108"/>
<text text-anchor="middle" x="6903.5" y="-86.3" font-family="Times,serif" font-size="14.00">GS:waterTempGS</text>
</g>
<!-- pcmTempGS -->
<g id="node57" class="node">
<title>pcmTempGS</title>
<polygon fill="#ffb90f" stroke="black" points="7125.5,-108 6993.5,-108 6993.5,-72 7125.5,-72 7125.5,-108"/>
<text text-anchor="middle" x="7059.5" y="-86.3" font-family="Times,serif" font-size="14.00">GS:pcmTempGS</text>
</g>
<!-- waterEnergyGS -->
<g id="node58" class="node">
<title>waterEnergyGS</title>
<polygon fill="#ffb90f" stroke="black" points="7299.5,-108 7143.5,-108 7143.5,-72 7299.5,-72 7299.5,-108"/>
<text text-anchor="middle" x="7221.5" y="-86.3" font-family="Times,serif" font-size="14.00">GS:waterEnergyGS</text>
</g>
<!-- pcmEnergyGS -->
<g id="node59" class="node">
<title>pcmEnergyGS</title>
<polygon fill="#ffb90f" stroke="black" points="7463,-108 7318,-108 7318,-72 7463,-72 7463,-108"/>
<text text-anchor="middle" x="7390.5" y="-86.3" font-family="Times,serif" font-size="14.00">GS:pcmEnergyGS</text>
</g>
</g>
</svg>
