<?xml version="1.0" encoding="UTF-8" standalone="no"?>
<!DOCTYPE svg PUBLIC "-//W3C//DTD SVG 1.1//EN"
 "http://www.w3.org/Graphics/SVG/1.1/DTD/svg11.dtd">
<!-- Generated by graphviz version 2.43.0 (0)
 -->
<!-- Title: allvsall Pages: 1 -->
<svg width="565pt" height="191pt"
 viewBox="0.00 0.00 564.50 191.29" xmlns="http://www.w3.org/2000/svg" xmlns:xlink="http://www.w3.org/1999/xlink">
<g id="graph0" class="graph" transform="scale(1 1) rotate(0) translate(4 187.29)">
<title>allvsall</title>
<polygon fill="white" stroke="transparent" points="-4,4 -4,-187.29 560.5,-187.29 560.5,4 -4,4"/>
<!-- instance -->
<g id="node1" class="node">
<title>instance</title>
<polygon fill="lavender" stroke="black" points="229.5,-180 80.5,-180 80.5,-144 229.5,-144 229.5,-180"/>
<text text-anchor="middle" x="155" y="-158.3" font-family="Times,serif" font-size="14.00">UC:unlikeChgNGS</text>
</g>
<!-- instance&#45;&gt;instance -->
<g id="edge1" class="edge">
<title>instance:assumpCTNOD&#45;&gt;instance:assumpSITWP</title>
<path fill="none" stroke="black" d="M229.76,-163.35C240.38,-163.13 247.5,-162.68 247.5,-162 247.5,-161.58 244.72,-161.24 240.04,-161"/>
<polygon fill="black" stroke="black" points="239.88,-157.49 229.76,-160.65 239.64,-164.49 239.88,-157.49"/>
</g>
<!-- instance&#45;&gt;instance -->
<g id="edge65" class="edge">
<title>instance:findMass&#45;&gt;instance:inputValues</title>
<path fill="none" stroke="black" d="M229.63,-164.98C249.98,-164.83 265.5,-163.84 265.5,-162 265.5,-160.48 254.86,-159.54 239.64,-159.17"/>
<polygon fill="black" stroke="black" points="239.68,-155.67 229.63,-159.02 239.57,-162.67 239.68,-155.67"/>
</g>
<!-- instance&#45;&gt;instance -->
<g id="edge70" class="edge">
<title>instance:outputInputDerivVals&#45;&gt;instance:inputValues</title>
<path fill="none" stroke="black" d="M229.59,-166.48C258.97,-166.7 283.5,-165.21 283.5,-162 283.5,-159.17 264.38,-157.67 239.69,-157.51"/>
<polygon fill="black" stroke="black" points="239.59,-154.01 229.59,-157.52 239.59,-161.01 239.59,-154.01"/>
</g>
<!-- instance&#45;&gt;instance -->
<g id="edge71" class="edge">
<title>instance:outputInputDerivVals&#45;&gt;instance:findMass</title>
<path fill="none" stroke="black" d="M229.62,-167.81C267.52,-168.65 301.5,-166.72 301.5,-162 301.5,-157.71 273.35,-155.72 239.72,-156.03"/>
<polygon fill="black" stroke="black" points="239.57,-152.53 229.62,-156.19 239.68,-159.53 239.57,-152.53"/>
</g>
<!-- instance&#45;&gt;instance -->
<g id="edge82" class="edge">
<title>instance:likeChgUTP&#45;&gt;instance:assumpTPCAV</title>
<path fill="none" stroke="black" d="M229.86,-168.99C275.85,-170.64 319.5,-168.31 319.5,-162 319.5,-156.16 282.09,-153.73 240.05,-154.71"/>
<polygon fill="black" stroke="black" points="239.76,-151.22 229.86,-155.01 239.96,-158.22 239.76,-151.22"/>
</g>
<!-- instance&#45;&gt;instance -->
<g id="edge83" class="edge">
<title>instance:likeChgTCVOD&#45;&gt;instance:assumpTHCCoT</title>
<path fill="none" stroke="black" d="M229.51,-170.01C283.53,-172.66 337.5,-169.99 337.5,-162 337.5,-154.51 290.07,-151.69 239.63,-153.56"/>
<polygon fill="black" stroke="black" points="239.35,-150.07 229.51,-153.99 239.65,-157.06 239.35,-150.07"/>
</g>
<!-- instance&#45;&gt;instance -->
<g id="edge84" class="edge">
<title>instance:likeChgTCVOL&#45;&gt;instance:assumpTHCCoL</title>
<path fill="none" stroke="black" d="M229.55,-170.93C291.24,-174.68 355.5,-171.71 355.5,-162 355.5,-152.82 298.08,-149.66 239.69,-152.51"/>
<polygon fill="black" stroke="black" points="239.35,-149.03 229.55,-153.07 239.73,-156.02 239.35,-149.03"/>
</g>
<!-- instance&#45;&gt;instance -->
<g id="edge85" class="edge">
<title>instance:likeChgDT&#45;&gt;instance:assumpCTNOD</title>
<path fill="none" stroke="black" d="M229.72,-171.76C298.86,-176.71 373.5,-173.45 373.5,-162 373.5,-151.11 305.97,-147.63 239.88,-151.57"/>
<polygon fill="black" stroke="black" points="239.47,-148.09 229.72,-152.24 239.93,-155.07 239.47,-148.09"/>
</g>
<!-- instance&#45;&gt;instance -->
<g id="edge86" class="edge">
<title>instance:likeChgDITPW&#45;&gt;instance:assumpSITWP</title>
<path fill="none" stroke="black" d="M229.77,-172.51C306.24,-178.74 391.5,-175.24 391.5,-162 391.5,-149.36 313.73,-145.6 240.12,-150.71"/>
<polygon fill="black" stroke="black" points="239.48,-147.25 229.77,-151.49 240,-154.23 239.48,-147.25"/>
</g>
<!-- instance&#45;&gt;instance -->
<g id="edge87" class="edge">
<title>instance:likeChgTLH&#45;&gt;instance:assumpPIT</title>
<path fill="none" stroke="black" d="M229.58,-173.16C313.32,-180.78 409.5,-177.06 409.5,-162 409.5,-147.56 321.04,-143.55 239.94,-149.96"/>
<polygon fill="black" stroke="black" points="239.24,-146.5 229.58,-150.84 239.84,-153.48 239.24,-146.5"/>
</g>
<!-- instance&#45;&gt;instance -->
<g id="edge88" class="edge">
<title>instance:unlikeChgWPFS&#45;&gt;instance:assumpWAL</title>
<path fill="none" stroke="black" d="M229.63,-173.77C320.47,-182.81 427.5,-178.89 427.5,-162 427.5,-145.74 328.26,-141.5 239.81,-149.27"/>
<polygon fill="black" stroke="black" points="239.26,-145.81 229.63,-150.23 239.92,-152.78 239.26,-145.81"/>
</g>
<!-- instance&#45;&gt;instance -->
<g id="edge89" class="edge">
<title>instance:unlikeChgWPFS&#45;&gt;instance:assumpNGSP</title>
<path fill="none" stroke="black" d="M229.77,-174.34C327.59,-184.84 445.5,-180.73 445.5,-162 445.5,-143.91 335.51,-139.46 239.87,-148.63"/>
<polygon fill="black" stroke="black" points="239.37,-145.16 229.77,-149.66 240.08,-152.13 239.37,-145.16"/>
</g>
<!-- instance&#45;&gt;instance -->
<g id="edge90" class="edge">
<title>instance:unlikeChgNIHG&#45;&gt;instance:assumpNIHGBWP</title>
<path fill="none" stroke="black" d="M229.74,-174.85C334.5,-186.88 463.5,-182.59 463.5,-162 463.5,-142.07 342.68,-137.42 239.94,-148.04"/>
<polygon fill="black" stroke="black" points="239.3,-144.59 229.74,-149.15 240.06,-151.55 239.3,-144.59"/>
</g>
<!-- instance&#45;&gt;instance -->
<g id="edge93" class="edge">
<title>instance:unlikeChgNGS&#45;&gt;instance:assumpNGSP</title>
<path fill="none" stroke="black" d="M229.61,-175.3C341.24,-188.91 481.5,-184.48 481.5,-162 481.5,-140.2 349.6,-135.37 239.82,-147.51"/>
<polygon fill="black" stroke="black" points="239.14,-144.07 229.61,-148.7 239.94,-151.02 239.14,-144.07"/>
</g>
<!-- dataDefn -->
<g id="node2" class="node">
<title>dataDefn</title>
<polygon fill="#bbffff" stroke="black" points="128,-36 0,-36 0,0 128,0 128,-36"/>
<text text-anchor="middle" x="64" y="-14.3" font-family="Times,serif" font-size="14.00">DD:aspectRatio</text>
</g>
<!-- instance&#45;&gt;dataDefn -->
<g id="edge58" class="edge">
<title>instance:findMass&#45;&gt;dataDefn:wMass</title>
<path fill="none" stroke="black" d="M111.93,-143.87C78.51,-119.67 47.98,-75.21 43.34,-46.39"/>
<polygon fill="black" stroke="black" points="46.83,-46.02 42.88,-36.19 39.84,-46.34 46.83,-46.02"/>
</g>
<!-- instance&#45;&gt;dataDefn -->
<g id="edge59" class="edge">
<title>instance:findMass&#45;&gt;dataDefn:wVol</title>
<path fill="none" stroke="black" d="M130.27,-143.87C106.88,-119.46 77.2,-74.43 64.85,-45.64"/>
<polygon fill="black" stroke="black" points="68.08,-44.28 61.24,-36.19 61.54,-46.78 68.08,-44.28"/>
</g>
<!-- instance&#45;&gt;dataDefn -->
<g id="edge60" class="edge">
<title>instance:findMass&#45;&gt;dataDefn:tankVol</title>
<path fill="none" stroke="black" d="M139.44,-143.87C121.13,-119.35 91.83,-74.03 75.45,-45.26"/>
<polygon fill="black" stroke="black" points="78.33,-43.24 70.42,-36.19 72.21,-46.63 78.33,-43.24"/>
</g>
<!-- instance&#45;&gt;dataDefn -->
<g id="edge66" class="edge">
<title>instance:outputInputDerivVals&#45;&gt;dataDefn:tauW</title>
<path fill="none" stroke="black" d="M148.61,-143.87C135.37,-119.14 106.21,-73.24 85.67,-44.51"/>
<polygon fill="black" stroke="black" points="88.33,-42.21 79.61,-36.19 82.67,-46.33 88.33,-42.21"/>
</g>
<!-- instance&#45;&gt;dataDefn -->
<g id="edge67" class="edge">
<title>instance:outputInputDerivVals&#45;&gt;dataDefn:eta</title>
<path fill="none" stroke="black" d="M157.78,-143.87C149.7,-118.92 120.6,-72.45 95.68,-43.77"/>
<polygon fill="black" stroke="black" points="98.11,-41.23 88.79,-36.19 92.93,-45.94 98.11,-41.23"/>
</g>
<!-- instance&#45;&gt;dataDefn -->
<g id="edge68" class="edge">
<title>instance:outputInputDerivVals&#45;&gt;dataDefn:tauSP</title>
<path fill="none" stroke="black" d="M166.95,-143.87C164.12,-118.71 135.01,-71.65 105.47,-43.04"/>
<polygon fill="black" stroke="black" points="107.71,-40.35 97.97,-36.19 102.99,-45.52 107.71,-40.35"/>
</g>
<!-- instance&#45;&gt;dataDefn -->
<g id="edge69" class="edge">
<title>instance:outputInputDerivVals&#45;&gt;dataDefn:tauLP</title>
<path fill="none" stroke="black" d="M176.11,-143.87C178.62,-118.6 149.68,-71.25 115.47,-42.68"/>
<polygon fill="black" stroke="black" points="117.19,-39.58 107.15,-36.19 112.88,-45.1 117.19,-39.58"/>
</g>
<!-- theory -->
<g id="node3" class="node">
<title>theory</title>
<polygon fill="#fff68f" stroke="black" points="286.5,-108 155.5,-108 155.5,-72 286.5,-72 286.5,-108"/>
<text text-anchor="middle" x="221" y="-86.3" font-family="Times,serif" font-size="14.00">IM:heatEInPCM</text>
</g>
<!-- instance&#45;&gt;theory -->
<g id="edge61" class="edge">
<title>instance:findMass&#45;&gt;theory:eBalanceOnWtrRC</title>
<path fill="none" stroke="black" d="M80.44,-152.56C38.28,-138.1 69.83,-108.99 145.42,-96.69"/>
<polygon fill="black" stroke="black" points="145.99,-100.14 155.36,-95.21 144.95,-93.22 145.99,-100.14"/>
</g>
<!-- instance&#45;&gt;theory -->
<g id="edge62" class="edge">
<title>instance:findMass&#45;&gt;theory:eBalanceOnPCMRC</title>
<path fill="none" stroke="black" d="M88.49,-143.7C81.62,-129.99 104.56,-111.36 145.51,-100.32"/>
<polygon fill="black" stroke="black" points="146.53,-103.67 155.4,-97.88 144.85,-96.88 146.53,-103.67"/>
</g>
<!-- instance&#45;&gt;theory -->
<g id="edge63" class="edge">
<title>instance:findMass&#45;&gt;theory:heatEInWtrIM</title>
<path fill="none" stroke="black" d="M100.33,-143.7C96.63,-131.17 114.82,-114.53 145.91,-103.33"/>
<polygon fill="black" stroke="black" points="147.08,-106.63 155.48,-100.18 144.89,-99.98 147.08,-106.63"/>
</g>
<!-- instance&#45;&gt;theory -->
<g id="edge64" class="edge">
<title>instance:findMass&#45;&gt;theory:heatEInPCMRC</title>
<path fill="none" stroke="black" d="M112.16,-143.7C111.2,-132.84 124.4,-118.91 145.94,-108.1"/>
<polygon fill="black" stroke="black" points="147.66,-111.16 155.3,-103.82 144.75,-104.79 147.66,-111.16"/>
</g>
<!-- instance&#45;&gt;theory -->
<g id="edge72" class="edge">
<title>instance:calcValues&#45;&gt;theory:eBalanceOnWtrRC</title>
<path fill="none" stroke="black" d="M123.99,-143.7C125.07,-134.54 134.62,-123.19 149.15,-113.38"/>
<polygon fill="black" stroke="black" points="151.03,-116.33 157.71,-108.1 147.36,-110.37 151.03,-116.33"/>
</g>
<!-- instance&#45;&gt;theory -->
<g id="edge73" class="edge">
<title>instance:calcValues&#45;&gt;theory:eBalanceOnPCMRC</title>
<path fill="none" stroke="black" d="M135.82,-143.7C138.73,-134.71 148.27,-123.61 161.11,-113.92"/>
<polygon fill="black" stroke="black" points="163.28,-116.68 169.5,-108.1 159.29,-110.93 163.28,-116.68"/>
</g>
<!-- instance&#45;&gt;theory -->
<g id="edge74" class="edge">
<title>instance:calcValues&#45;&gt;theory:heatEInWtrIM</title>
<path fill="none" stroke="black" d="M147.65,-143.7C152.33,-134.88 161.89,-124.03 173.21,-114.47"/>
<polygon fill="black" stroke="black" points="175.61,-117.04 181.29,-108.1 171.27,-111.55 175.61,-117.04"/>
</g>
<!-- instance&#45;&gt;theory -->
<g id="edge75" class="edge">
<title>instance:calcValues&#45;&gt;theory:heatEInPCMRC</title>
<path fill="none" stroke="black" d="M159.48,-143.7C165.85,-135.05 175.49,-124.45 185.45,-115.03"/>
<polygon fill="black" stroke="black" points="188.03,-117.42 193.08,-108.1 183.33,-112.23 188.03,-117.42"/>
</g>
<!-- instance&#45;&gt;theory -->
<g id="edge76" class="edge">
<title>instance:calcPCMMeltBegin&#45;&gt;theory:eBalanceOnPCMRC</title>
<path fill="none" stroke="black" d="M171.31,-143.7C179.31,-135.22 189.07,-124.86 197.82,-115.58"/>
<polygon fill="black" stroke="black" points="200.56,-117.78 204.87,-108.1 195.47,-112.98 200.56,-117.78"/>
</g>
<!-- instance&#45;&gt;theory -->
<g id="edge77" class="edge">
<title>instance:calcPCMMeltEnd&#45;&gt;theory:eBalanceOnPCMRC</title>
<path fill="none" stroke="black" d="M183.15,-143.7C192.69,-135.39 202.62,-125.28 210.31,-116.14"/>
<polygon fill="black" stroke="black" points="213.21,-118.12 216.66,-108.1 207.71,-113.78 213.21,-118.12"/>
</g>
<!-- instance&#45;&gt;theory -->
<g id="edge78" class="edge">
<title>instance:outputValues&#45;&gt;theory:eBalanceOnWtrRC</title>
<path fill="none" stroke="black" d="M194.98,-143.7C206.01,-135.56 216.14,-125.69 222.9,-116.7"/>
<polygon fill="black" stroke="black" points="225.97,-118.4 228.45,-108.1 220.09,-114.61 225.97,-118.4"/>
</g>
<!-- instance&#45;&gt;theory -->
<g id="edge79" class="edge">
<title>instance:outputValues&#45;&gt;theory:eBalanceOnPCMRC</title>
<path fill="none" stroke="black" d="M206.53,-143.88C219.04,-135.91 229.48,-126.26 235.51,-117.39"/>
<polygon fill="black" stroke="black" points="238.78,-118.69 240.22,-108.19 232.55,-115.5 238.78,-118.69"/>
</g>
<!-- instance&#45;&gt;theory -->
<g id="edge80" class="edge">
<title>instance:outputValues&#45;&gt;theory:heatEInWtrIM</title>
<path fill="none" stroke="black" d="M218.32,-143.88C232.35,-135.99 243.15,-126.46 248.47,-117.67"/>
<polygon fill="black" stroke="black" points="251.79,-118.78 252.02,-108.19 245.24,-116.33 251.79,-118.78"/>
</g>
<!-- instance&#45;&gt;theory -->
<g id="edge81" class="edge">
<title>instance:outputValues&#45;&gt;theory:heatEInPCMRC</title>
<path fill="none" stroke="black" d="M229.76,-144.05C245.38,-136.26 256.66,-126.82 261.41,-118.08"/>
<polygon fill="black" stroke="black" points="264.83,-118.82 263.84,-108.28 258.04,-117.14 264.83,-118.82"/>
</g>
<!-- instance&#45;&gt;theory -->
<g id="edge91" class="edge">
<title>instance:unlikeChgNIHG&#45;&gt;theory:eBalanceOnWtrRC</title>
<path fill="none" stroke="black" d="M229.7,-148.81C253.36,-140.35 269.63,-128.74 274.57,-118.14"/>
<polygon fill="black" stroke="black" points="278.07,-118.34 275.59,-108.03 271.1,-117.63 278.07,-118.34"/>
</g>
<!-- instance&#45;&gt;theory -->
<g id="edge92" class="edge">
<title>instance:unlikeChgNIHG&#45;&gt;theory:eBalanceOnPCMRC</title>
<path fill="none" stroke="black" d="M229.6,-151.92C262.82,-143.11 284.39,-129.31 288.13,-117.07"/>
<polygon fill="black" stroke="black" points="291.55,-116.28 286.67,-106.88 284.63,-117.28 291.55,-116.28"/>
</g>
<!-- instance&#45;&gt;theory -->
<g id="edge94" class="edge">
<title>instance:unlikeChgNGS&#45;&gt;theory:eBalanceOnPCMRC</title>
<path fill="none" stroke="black" d="M229.78,-153.97C286.5,-142.4 314.72,-119.17 295.46,-104.39"/>
<polygon fill="black" stroke="black" points="297.09,-101.29 286.64,-99.54 293.72,-107.42 297.09,-101.29"/>
</g>
<!-- instance&#45;&gt;theory -->
<g id="edge95" class="edge">
<title>instance:unlikeChgNGS&#45;&gt;theory:heatEInPCMRC</title>
<path fill="none" stroke="black" d="M229.72,-155.45C305.59,-143.29 337.59,-114.22 296.13,-99.64"/>
<polygon fill="black" stroke="black" points="297.09,-96.27 286.51,-96.85 295.13,-103 297.09,-96.27"/>
</g>
<!-- dataDefn&#45;&gt;instance -->
<g id="edge2" class="edge">
<title>dataDefn:wVol&#45;&gt;instance:assumpVCN</title>
<path fill="none" stroke="black" d="M52.06,-36.19C54.93,-61.39 84.06,-108.45 113.6,-137.03"/>
<polygon fill="black" stroke="black" points="111.35,-139.72 121.1,-143.87 116.07,-134.55 111.35,-139.72"/>
</g>
<!-- dataDefn&#45;&gt;dataDefn -->
<g id="edge3" class="edge">
<title>dataDefn:wVol&#45;&gt;dataDefn:tankVol</title>
<path fill="none" stroke="black" d="M128.29,-24.25C138.79,-23.35 146,-21.27 146,-18 146,-15.96 143.18,-14.38 138.51,-13.26"/>
<polygon fill="black" stroke="black" points="138.69,-9.75 128.29,-11.75 137.67,-16.68 138.69,-9.75"/>
</g>
<!-- dataDefn&#45;&gt;dataDefn -->
<g id="edge4" class="edge">
<title>dataDefn:meltFrac&#45;&gt;dataDefn:htFusion</title>
<path fill="none" stroke="black" d="M128.44,-31.49C148.36,-31.21 164,-26.72 164,-18 164,-10.85 153.47,-6.54 138.7,-5.07"/>
<polygon fill="black" stroke="black" points="138.62,-1.56 128.44,-4.51 138.24,-8.55 138.62,-1.56"/>
</g>
<!-- theory&#45;&gt;instance -->
<g id="edge5" class="edge">
<title>theory:consThermECS&#45;&gt;instance:assumpTEO</title>
<path fill="none" stroke="black" d="M155.5,-96.29C103.07,-105.31 71.85,-124.15 74.69,-139.19"/>
<polygon fill="black" stroke="black" points="71.85,-141.24 80.4,-147.5 77.62,-137.28 71.85,-141.24"/>
</g>
<!-- theory&#45;&gt;instance -->
<g id="edge8" class="edge">
<title>theory:nwtnCoolingTM&#45;&gt;instance:assumpHTCC</title>
<path fill="none" stroke="black" d="M155,-108C148.38,-114.62 147.02,-124.34 147.79,-133.66"/>
<polygon fill="black" stroke="black" points="144.38,-134.49 149.39,-143.83 151.29,-133.4 144.38,-134.49"/>
</g>
<!-- theory&#45;&gt;instance -->
<g id="edge9" class="edge">
<title>theory:rocTempSimpRC&#45;&gt;instance:assumpCWTAT</title>
<path fill="none" stroke="black" d="M155.36,-93C6.3,-102.54 -40.72,-143.51 70.03,-156.81"/>
<polygon fill="black" stroke="black" points="69.8,-160.31 80.11,-157.9 70.55,-153.35 69.8,-160.31"/>
</g>
<!-- theory&#45;&gt;instance -->
<g id="edge10" class="edge">
<title>theory:rocTempSimpRC&#45;&gt;instance:assumpTPCAV</title>
<path fill="none" stroke="black" d="M155.37,-93.35C23.92,-103.28 -21.16,-141.87 70.33,-155.88"/>
<polygon fill="black" stroke="black" points="69.86,-159.35 80.24,-157.24 70.8,-152.41 69.86,-159.35"/>
</g>
<!-- theory&#45;&gt;instance -->
<g id="edge11" class="edge">
<title>theory:rocTempSimpRC&#45;&gt;instance:assumpDWPCoV</title>
<path fill="none" stroke="black" d="M155.23,-93.82C41.96,-104.08 -0.88,-139.61 70.08,-154.43"/>
<polygon fill="black" stroke="black" points="69.86,-157.95 80.33,-156.3 71.12,-151.06 69.86,-157.95"/>
</g>
<!-- theory&#45;&gt;instance -->
<g id="edge12" class="edge">
<title>theory:rocTempSimpRC&#45;&gt;instance:assumpSHECov</title>
<path fill="none" stroke="black" d="M155.34,-94.41C60.02,-104.89 19.88,-136.88 70.73,-152.39"/>
<polygon fill="black" stroke="black" points="69.91,-155.8 80.47,-154.91 71.67,-149.02 69.91,-155.8"/>
</g>
<!-- theory&#45;&gt;instance -->
<g id="edge15" class="edge">
<title>theory:htFluxC&#45;&gt;instance:assumpLCCCW</title>
<path fill="none" stroke="black" d="M155.36,-95.21C79.44,-105.55 42.72,-132.53 71.22,-148.55"/>
<polygon fill="black" stroke="black" points="69.87,-151.78 80.44,-152.56 72.67,-145.36 69.87,-151.78"/>
</g>
<!-- theory&#45;&gt;instance -->
<g id="edge16" class="edge">
<title>theory:htFluxC&#45;&gt;instance:assumpTHCCoT</title>
<path fill="none" stroke="black" d="M155.5,-96.29C103.07,-105.31 71.85,-124.15 74.69,-139.19"/>
<polygon fill="black" stroke="black" points="71.85,-141.24 80.4,-147.5 77.62,-137.28 71.85,-141.24"/>
</g>
<!-- theory&#45;&gt;instance -->
<g id="edge18" class="edge">
<title>theory:htFluxP&#45;&gt;instance:assumpLCCWP</title>
<path fill="none" stroke="black" d="M155.4,-97.88C118.61,-106.12 93.95,-120.43 88.45,-133.34"/>
<polygon fill="black" stroke="black" points="84.95,-133.71 88.49,-143.7 91.95,-133.68 84.95,-133.71"/>
</g>
<!-- theory&#45;&gt;instance -->
<g id="edge20" class="edge">
<title>theory:eBalanceOnWtrRC&#45;&gt;instance:assumpCWTAT</title>
<path fill="none" stroke="black" d="M155.48,-100.18C126.98,-108.71 107.14,-121.84 101.5,-133.72"/>
<polygon fill="black" stroke="black" points="98.02,-133.36 100.33,-143.7 104.97,-134.17 98.02,-133.36"/>
</g>
<!-- theory&#45;&gt;instance -->
<g id="edge21" class="edge">
<title>theory:eBalanceOnWtrRC&#45;&gt;instance:assumpTPCAV</title>
<path fill="none" stroke="black" d="M155.3,-103.82C135.06,-112.21 120.3,-123.5 114.64,-133.83"/>
<polygon fill="black" stroke="black" points="111.21,-133.14 112.16,-143.7 117.99,-134.85 111.21,-133.14"/>
</g>
<!-- theory&#45;&gt;instance -->
<g id="edge22" class="edge">
<title>theory:eBalanceOnWtrRC&#45;&gt;instance:assumpTHCCoL</title>
<path fill="none" stroke="black" d="M157.71,-108.1C143.72,-115.96 132.93,-125.46 127.59,-134.23"/>
<polygon fill="black" stroke="black" points="124.27,-133.11 123.99,-143.7 130.82,-135.59 124.27,-133.11"/>
</g>
<!-- theory&#45;&gt;instance -->
<g id="edge23" class="edge">
<title>theory:eBalanceOnWtrRC&#45;&gt;instance:assumpCTNOD</title>
<path fill="none" stroke="black" d="M169.5,-108.1C157.02,-116.04 146.6,-125.67 140.56,-134.51"/>
<polygon fill="black" stroke="black" points="137.29,-133.2 135.82,-143.7 143.52,-136.41 137.29,-133.2"/>
</g>
<!-- theory&#45;&gt;instance -->
<g id="edge24" class="edge">
<title>theory:eBalanceOnWtrRC&#45;&gt;instance:assumpSITWP</title>
<path fill="none" stroke="black" d="M181.29,-108.1C170.25,-116.21 160.08,-126.08 153.26,-135.08"/>
<polygon fill="black" stroke="black" points="150.18,-133.41 147.65,-143.7 156.04,-137.23 150.18,-133.41"/>
</g>
<!-- theory&#45;&gt;instance -->
<g id="edge25" class="edge">
<title>theory:eBalanceOnWtrRC&#45;&gt;instance:assumpWAL</title>
<path fill="none" stroke="black" d="M193.08,-108.1C183.54,-116.38 173.6,-126.49 165.88,-135.64"/>
<polygon fill="black" stroke="black" points="162.96,-133.69 159.48,-143.7 168.44,-138.04 162.96,-133.69"/>
</g>
<!-- theory&#45;&gt;instance -->
<g id="edge26" class="edge">
<title>theory:eBalanceOnWtrRC&#45;&gt;instance:assumpPIT</title>
<path fill="none" stroke="black" d="M204.87,-108.1C196.91,-116.55 187.15,-126.9 178.38,-136.2"/>
<polygon fill="black" stroke="black" points="175.63,-134.02 171.31,-143.7 180.72,-138.82 175.63,-134.02"/>
</g>
<!-- theory&#45;&gt;instance -->
<g id="edge27" class="edge">
<title>theory:eBalanceOnWtrRC&#45;&gt;instance:assumpNIHGBWP</title>
<path fill="none" stroke="black" d="M216.66,-108.1C210.35,-116.72 200.73,-127.32 190.78,-136.76"/>
<polygon fill="black" stroke="black" points="188.19,-134.38 183.15,-143.7 192.9,-139.56 188.19,-134.38"/>
</g>
<!-- theory&#45;&gt;instance -->
<g id="edge28" class="edge">
<title>theory:eBalanceOnWtrRC&#45;&gt;instance:assumpAPT</title>
<path fill="none" stroke="black" d="M228.45,-108.1C223.85,-116.89 214.34,-127.73 203.04,-137.31"/>
<polygon fill="black" stroke="black" points="200.64,-134.74 194.98,-143.7 204.99,-140.23 200.64,-134.74"/>
</g>
<!-- theory&#45;&gt;instance -->
<g id="edge36" class="edge">
<title>theory:eBalanceOnPCMRC&#45;&gt;instance:assumpCWTAT</title>
<path fill="none" stroke="black" d="M240.22,-108.19C237.35,-117.18 227.81,-128.32 214.94,-138.04"/>
<polygon fill="black" stroke="black" points="212.75,-135.3 206.53,-143.88 216.74,-141.05 212.75,-135.3"/>
</g>
<!-- theory&#45;&gt;instance -->
<g id="edge37" class="edge">
<title>theory:eBalanceOnPCMRC&#45;&gt;instance:assumpTPCAV</title>
<path fill="none" stroke="black" d="M252.02,-108.19C251.01,-117.35 241.46,-128.74 226.9,-138.59"/>
<polygon fill="black" stroke="black" points="225,-135.65 218.32,-143.88 228.67,-141.61 225,-135.65"/>
</g>
<!-- theory&#45;&gt;instance -->
<g id="edge38" class="edge">
<title>theory:eBalanceOnPCMRC&#45;&gt;instance:assumpSITWP</title>
<path fill="none" stroke="black" d="M263.84,-108.28C264.68,-117.56 255.14,-129.12 238.86,-139.04"/>
<polygon fill="black" stroke="black" points="236.83,-136.16 229.76,-144.05 240.21,-142.29 236.83,-136.16"/>
</g>
<!-- theory&#45;&gt;instance -->
<g id="edge39" class="edge">
<title>theory:eBalanceOnPCMRC&#45;&gt;instance:assumpPIS</title>
<path fill="none" stroke="black" d="M275.59,-108.03C279.22,-119.32 264.88,-134.01 239.23,-145.06"/>
<polygon fill="black" stroke="black" points="237.73,-141.89 229.7,-148.81 240.29,-148.41 237.73,-141.89"/>
</g>
<!-- theory&#45;&gt;instance -->
<g id="edge40" class="edge">
<title>theory:eBalanceOnPCMRC&#45;&gt;instance:assumpNIHGBWP</title>
<path fill="none" stroke="black" d="M286.67,-106.88C295.3,-119.71 276.02,-137.48 239.3,-149.1"/>
<polygon fill="black" stroke="black" points="238.22,-145.77 229.6,-151.92 240.18,-152.49 238.22,-145.77"/>
</g>
<!-- theory&#45;&gt;instance -->
<g id="edge41" class="edge">
<title>theory:eBalanceOnPCMRC&#45;&gt;instance:assumpVCMPN</title>
<path fill="none" stroke="black" d="M286.64,-99.54C319.1,-112.76 296.04,-138.07 239.86,-151.72"/>
<polygon fill="black" stroke="black" points="238.78,-148.37 229.78,-153.97 240.3,-155.21 238.78,-148.37"/>
</g>
<!-- theory&#45;&gt;instance -->
<g id="edge42" class="edge">
<title>theory:eBalanceOnPCMRC&#45;&gt;instance:assumpNGSP</title>
<path fill="none" stroke="black" d="M286.51,-96.85C339.42,-109.56 313.32,-139.71 239.89,-153.67"/>
<polygon fill="black" stroke="black" points="238.97,-150.28 229.72,-155.45 240.17,-157.17 238.97,-150.28"/>
</g>
<!-- theory&#45;&gt;instance -->
<g id="edge50" class="edge">
<title>theory:heatEInWtrIM&#45;&gt;instance:assumpWAL</title>
<path fill="none" stroke="black" d="M286.75,-95.4C358.89,-107.52 330.1,-141.36 239.81,-155.1"/>
<polygon fill="black" stroke="black" points="239.11,-151.66 229.69,-156.51 240.08,-158.59 239.11,-151.66"/>
</g>
<!-- theory&#45;&gt;instance -->
<g id="edge51" class="edge">
<title>theory:heatEInWtrIM&#45;&gt;instance:assumpAPT</title>
<path fill="none" stroke="black" d="M286.53,-94.41C378.02,-105.83 347.15,-142.73 240.11,-156.1"/>
<polygon fill="black" stroke="black" points="239.4,-152.66 229.87,-157.29 240.2,-159.62 239.4,-152.66"/>
</g>
<!-- theory&#45;&gt;instance -->
<g id="edge53" class="edge">
<title>theory:heatEInPCMRC&#45;&gt;instance:assumpPIS</title>
<path fill="none" stroke="black" d="M286.52,-93.75C397,-104.55 364.12,-144.05 240.02,-156.92"/>
<polygon fill="black" stroke="black" points="239.36,-153.46 229.74,-157.9 240.03,-160.43 239.36,-153.46"/>
</g>
<!-- theory&#45;&gt;instance -->
<g id="edge54" class="edge">
<title>theory:heatEInPCMRC&#45;&gt;instance:assumpNGSP</title>
<path fill="none" stroke="black" d="M286.87,-93.3C415.77,-103.57 381.04,-145.22 239.91,-157.55"/>
<polygon fill="black" stroke="black" points="239.25,-154.09 229.57,-158.38 239.82,-161.07 239.25,-154.09"/>
</g>
<!-- theory&#45;&gt;dataDefn -->
<g id="edge7" class="edge">
<title>theory:latentHtETM&#45;&gt;dataDefn:meltFrac</title>
<path fill="none" stroke="black" d="M155.43,-74.67C126.19,-65 95.64,-52.05 75.58,-41.08"/>
<polygon fill="black" stroke="black" points="77.28,-38.02 66.88,-36.03 73.77,-44.08 77.28,-38.02"/>
</g>
<!-- theory&#45;&gt;dataDefn -->
<g id="edge29" class="edge">
<title>theory:eBalanceOnWtrRC&#45;&gt;dataDefn:tauW</title>
<path fill="none" stroke="black" d="M159.01,-71.88C134.2,-62.55 107.55,-50.92 87.95,-40.94"/>
<polygon fill="black" stroke="black" points="89.42,-37.76 78.94,-36.19 86.15,-43.95 89.42,-37.76"/>
</g>
<!-- theory&#45;&gt;dataDefn -->
<g id="edge30" class="edge">
<title>theory:eBalanceOnWtrRC&#45;&gt;dataDefn:eta</title>
<path fill="none" stroke="black" d="M170.8,-71.88C147.73,-62.47 121.09,-50.71 100.01,-40.67"/>
<polygon fill="black" stroke="black" points="101.27,-37.39 90.75,-36.19 98.23,-43.69 101.27,-37.39"/>
</g>
<!-- theory&#45;&gt;dataDefn -->
<g id="edge43" class="edge">
<title>theory:eBalanceOnPCMRC&#45;&gt;dataDefn:tauSP</title>
<path fill="none" stroke="black" d="M182.59,-71.88C161.13,-62.31 134.2,-50.3 111.43,-40.15"/>
<polygon fill="black" stroke="black" points="112.84,-36.94 102.28,-36.07 109.99,-43.34 112.84,-36.94"/>
</g>
<!-- theory&#45;&gt;dataDefn -->
<g id="edge44" class="edge">
<title>theory:eBalanceOnPCMRC&#45;&gt;dataDefn:tauLP</title>
<path fill="none" stroke="black" d="M194.39,-71.88C174.84,-62.26 148,-50.19 123.62,-40.01"/>
<polygon fill="black" stroke="black" points="124.64,-36.65 114.06,-36.07 121.97,-43.12 124.64,-36.65"/>
</g>
<!-- theory&#45;&gt;dataDefn -->
<g id="edge45" class="edge">
<title>theory:eBalanceOnPCMRC&#45;&gt;dataDefn:meltFrac</title>
<path fill="none" stroke="black" d="M206.18,-71.88C188.49,-62.18 161.57,-49.98 135.42,-39.74"/>
<polygon fill="black" stroke="black" points="136.44,-36.38 125.85,-36.07 133.93,-42.92 136.44,-36.38"/>
</g>
<!-- theory&#45;&gt;dataDefn -->
<g id="edge55" class="edge">
<title>theory:heatEInPCMRC&#45;&gt;dataDefn:htFusion</title>
<path fill="none" stroke="black" d="M217.98,-71.88C200.44,-61.02 169.06,-47.02 137.89,-36.16"/>
<polygon fill="black" stroke="black" points="138.83,-32.78 128.24,-32.9 136.59,-39.41 138.83,-32.78"/>
</g>
<!-- theory&#45;&gt;theory -->
<g id="edge6" class="edge">
<title>theory:sensHeat&#45;&gt;theory:latentHtETM</title>
<path fill="none" stroke="black" d="M287,-72C292.5,-54 304.5,-54 304.5,-81 304.5,-87.52 301.25,-92.46 295.94,-95.96"/>
<polygon fill="black" stroke="black" points="294.49,-92.77 286.81,-100.07 297.36,-99.16 294.49,-92.77"/>
</g>
<!-- theory&#45;&gt;theory -->
<g id="edge13" class="edge">
<title>theory:rocTempSimpRC&#45;&gt;theory:consThermECS</title>
<path fill="none" stroke="black" d="M286.81,-91.38C297.31,-91.18 304.5,-90.72 304.5,-90 304.5,-89.55 301.69,-89.2 297.02,-88.96"/>
<polygon fill="black" stroke="black" points="296.92,-85.45 286.81,-88.62 296.69,-92.45 296.92,-85.45"/>
</g>
<!-- theory&#45;&gt;theory -->
<g id="edge14" class="edge">
<title>theory:rocTempSimpRC&#45;&gt;theory:rocTempSimpRC</title>
<path fill="none" stroke="black" d="M286.9,-93C306.88,-92.92 322.5,-91.92 322.5,-90 322.5,-88.42 311.99,-87.47 297.18,-87.13"/>
<polygon fill="black" stroke="black" points="296.94,-83.63 286.9,-87 296.85,-90.63 296.94,-83.63"/>
</g>
<!-- theory&#45;&gt;theory -->
<g id="edge17" class="edge">
<title>theory:htFluxC&#45;&gt;theory:nwtnCoolingTM</title>
<path fill="none" stroke="black" d="M155.19,-86.15C144.69,-88.39 137.5,-92.53 137.5,-99 137.5,-109.97 141.96,-114.25 146.68,-113.89"/>
<polygon fill="black" stroke="black" points="148.86,-116.64 155,-108 144.82,-110.92 148.86,-116.64"/>
</g>
<!-- theory&#45;&gt;theory -->
<g id="edge19" class="edge">
<title>theory:htFluxP&#45;&gt;theory:nwtnCoolingTM</title>
<path fill="none" stroke="black" d="M155.1,-77.78C135.12,-79.29 119.5,-86.03 119.5,-99 119.5,-121.36 135.96,-125.2 148.15,-115.64"/>
<polygon fill="black" stroke="black" points="150.93,-117.78 155,-108 145.72,-113.11 150.93,-117.78"/>
</g>
<!-- theory&#45;&gt;theory -->
<g id="edge31" class="edge">
<title>theory:eBalanceOnWtrRC&#45;&gt;theory:rocTempSimpRC</title>
<path fill="none" stroke="black" d="M286.75,-94.44C315.64,-94.83 340.5,-93.35 340.5,-90 340.5,-87.05 321.3,-85.55 297.03,-85.5"/>
<polygon fill="black" stroke="black" points="296.73,-82 286.75,-85.56 296.77,-89 296.73,-82"/>
</g>
<!-- theory&#45;&gt;theory -->
<g id="edge32" class="edge">
<title>theory:eBalanceOnWtrRC&#45;&gt;theory:htFluxC</title>
<path fill="none" stroke="black" d="M286.78,-95.69C324.02,-96.8 358.5,-94.91 358.5,-90 358.5,-85.55 330.18,-83.58 297.16,-84.07"/>
<polygon fill="black" stroke="black" points="296.7,-80.58 286.78,-84.31 296.86,-87.58 296.7,-80.58"/>
</g>
<!-- theory&#45;&gt;theory -->
<g id="edge33" class="edge">
<title>theory:eBalanceOnWtrRC&#45;&gt;theory:htFluxP</title>
<path fill="none" stroke="black" d="M286.51,-96.77C331.85,-98.82 376.5,-96.56 376.5,-90 376.5,-83.92 338.24,-81.54 296.58,-82.85"/>
<polygon fill="black" stroke="black" points="296.37,-79.35 286.51,-83.23 296.64,-86.35 296.37,-79.35"/>
</g>
<!-- theory&#45;&gt;theory -->
<g id="edge34" class="edge">
<title>theory:eBalanceOnWtrRC&#45;&gt;theory:eBalanceOnWtrRC</title>
<path fill="none" stroke="black" d="M286.87,-97.73C339.83,-100.83 394.5,-98.25 394.5,-90 394.5,-82.28 346.65,-79.53 297.11,-81.74"/>
<polygon fill="black" stroke="black" points="296.67,-78.26 286.87,-82.27 297.03,-85.25 296.67,-78.26"/>
</g>
<!-- theory&#45;&gt;theory -->
<g id="edge35" class="edge">
<title>theory:eBalanceOnWtrRC&#45;&gt;theory:eBalanceOnPCMRC</title>
<path fill="none" stroke="black" d="M286.74,-98.56C347.26,-102.86 412.5,-100.01 412.5,-90 412.5,-80.56 354.44,-77.48 297.06,-80.78"/>
<polygon fill="black" stroke="black" points="296.49,-77.31 286.74,-81.44 296.94,-84.29 296.49,-77.31"/>
</g>
<!-- theory&#45;&gt;theory -->
<g id="edge46" class="edge">
<title>theory:eBalanceOnPCMRC&#45;&gt;theory:rocTempSimpRC</title>
<path fill="none" stroke="black" d="M286.69,-99.3C354.57,-104.9 430.5,-101.8 430.5,-90 430.5,-78.78 361.81,-75.43 296.69,-79.95"/>
<polygon fill="black" stroke="black" points="296.4,-76.46 286.69,-80.7 296.93,-83.44 296.4,-76.46"/>
</g>
<!-- theory&#45;&gt;theory -->
<g id="edge47" class="edge">
<title>theory:eBalanceOnPCMRC&#45;&gt;theory:htFluxP</title>
<path fill="none" stroke="black" d="M286.5,-99.94C361.63,-106.94 448.5,-103.62 448.5,-90 448.5,-76.99 369.26,-73.38 296.69,-79.18"/>
<polygon fill="black" stroke="black" points="296.16,-75.71 286.5,-80.06 296.76,-82.69 296.16,-75.71"/>
</g>
<!-- theory&#45;&gt;theory -->
<g id="edge48" class="edge">
<title>theory:eBalanceOnPCMRC&#45;&gt;theory:eBalanceOnWtrRC</title>
<path fill="none" stroke="black" d="M286.68,-100.55C368.84,-108.96 466.5,-105.45 466.5,-90 466.5,-75.18 376.69,-71.34 296.86,-78.48"/>
<polygon fill="black" stroke="black" points="296.3,-75.02 286.68,-79.45 296.97,-81.98 296.3,-75.02"/>
</g>
<!-- theory&#45;&gt;theory -->
<g id="edge49" class="edge">
<title>theory:eBalanceOnPCMRC&#45;&gt;theory:heatEInPCMRC</title>
<path fill="none" stroke="black" d="M286.83,-101.1C375.94,-110.99 484.5,-107.29 484.5,-90 484.5,-73.35 383.85,-69.3 296.82,-77.86"/>
<polygon fill="black" stroke="black" points="296.41,-74.38 286.83,-78.9 297.14,-81.34 296.41,-74.38"/>
</g>
<!-- theory&#45;&gt;theory -->
<g id="edge52" class="edge">
<title>theory:heatEInWtrIM&#45;&gt;theory:sensHeat</title>
<path fill="none" stroke="black" d="M286.81,-93.85C297.31,-91.61 304.5,-87.47 304.5,-81 304.5,-70.03 300.04,-65.75 295.32,-66.11"/>
<polygon fill="black" stroke="black" points="293.14,-63.36 287,-72 297.18,-69.08 293.14,-63.36"/>
</g>
<!-- theory&#45;&gt;theory -->
<g id="edge56" class="edge">
<title>theory:heatEInPCMRC&#45;&gt;theory:sensHeat</title>
<path fill="none" stroke="black" d="M286.9,-102.22C306.88,-100.71 322.5,-93.97 322.5,-81 322.5,-58.64 306.04,-54.8 293.85,-64.36"/>
<polygon fill="black" stroke="black" points="291.07,-62.22 287,-72 296.28,-66.89 291.07,-62.22"/>
</g>
<!-- theory&#45;&gt;theory -->
<g id="edge57" class="edge">
<title>theory:heatEInPCMRC&#45;&gt;theory:latentHtETM</title>
<path fill="none" stroke="black" d="M286.73,-101.57C382.74,-113.03 502.5,-109.17 502.5,-90 502.5,-71.5 391.02,-67.26 296.94,-77.28"/>
<polygon fill="black" stroke="black" points="296.27,-73.83 286.73,-78.43 297.06,-80.79 296.27,-73.83"/>
</g>
</g>
</svg>
