<?xml version="1.0" encoding="UTF-8" standalone="no"?>
<!DOCTYPE svg PUBLIC "-//W3C//DTD SVG 1.1//EN"
 "http://www.w3.org/Graphics/SVG/1.1/DTD/svg11.dtd">
<!-- Generated by graphviz version 2.43.0 (0)
 -->
<!-- Title: allvsall Pages: 1 -->
<svg width="4713pt" height="285pt"
 viewBox="0.00 0.00 4712.50 284.50" xmlns="http://www.w3.org/2000/svg" xmlns:xlink="http://www.w3.org/1999/xlink">
<g id="graph0" class="graph" transform="scale(1 1) rotate(0) translate(4 280.5)">
<title>allvsall</title>
<polygon fill="white" stroke="transparent" points="-4,4 -4,-280.5 4708.5,-280.5 4708.5,4 -4,4"/>
<!-- assumpCTNOD -->
<g id="node1" class="node">
<title>assumpCTNOD</title>
<polygon fill="mistyrose" stroke="black" points="276,-36 136,-36 136,0 276,0 276,-36"/>
<text text-anchor="middle" x="206" y="-14.3" font-family="Times,serif" font-size="14.00">A:assumpCTNOD</text>
</g>
<!-- assumpSITWP -->
<g id="node2" class="node">
<title>assumpSITWP</title>
<polygon fill="mistyrose" stroke="black" points="834,-36 700,-36 700,0 834,0 834,-36"/>
<text text-anchor="middle" x="767" y="-14.3" font-family="Times,serif" font-size="14.00">A:assumpSITWP</text>
</g>
<!-- assumpCTNOD&#45;&gt;assumpSITWP -->
<g id="edge1" class="edge">
<title>assumpCTNOD&#45;&gt;assumpSITWP</title>
<path fill="none" stroke="black" d="M241.41,-36.16C257.09,-43.23 276.02,-50.46 294,-54 378.6,-70.64 597.5,-71.16 682,-54 696.03,-51.15 710.61,-45.91 723.66,-40.29"/>
<polygon fill="black" stroke="black" points="725.17,-43.45 732.86,-36.16 722.31,-37.06 725.17,-43.45"/>
</g>
<!-- dataDefn -->
<g id="node3" class="node">
<title>dataDefn</title>
<polygon fill="#bbffff" stroke="black" points="899,-108 771,-108 771,-72 899,-72 899,-108"/>
<text text-anchor="middle" x="835" y="-86.3" font-family="Times,serif" font-size="14.00">DD:aspectRatio</text>
</g>
<!-- dataDefn&#45;&gt;dataDefn -->
<g id="edge3" class="edge">
<title>dataDefn:wVol&#45;&gt;dataDefn:tankVol</title>
<path fill="none" stroke="black" d="M899.29,-96.25C909.79,-95.35 917,-93.27 917,-90 917,-87.96 914.18,-86.38 909.51,-85.26"/>
<polygon fill="black" stroke="black" points="909.69,-81.75 899.29,-83.75 908.67,-88.68 909.69,-81.75"/>
</g>
<!-- dataDefn&#45;&gt;dataDefn -->
<g id="edge4" class="edge">
<title>dataDefn:meltFrac&#45;&gt;dataDefn:htFusion</title>
<path fill="none" stroke="black" d="M899.44,-103.49C919.36,-103.21 935,-98.72 935,-90 935,-82.85 924.47,-78.54 909.7,-77.07"/>
<polygon fill="black" stroke="black" points="909.62,-73.56 899.44,-76.51 909.24,-80.55 909.62,-73.56"/>
</g>
<!-- assumpVCN -->
<g id="node4" class="node">
<title>assumpVCN</title>
<polygon fill="mistyrose" stroke="black" points="118,-36 0,-36 0,0 118,0 118,-36"/>
<text text-anchor="middle" x="59" y="-14.3" font-family="Times,serif" font-size="14.00">A:assumpVCN</text>
</g>
<!-- dataDefn&#45;&gt;assumpVCN -->
<g id="edge2" class="edge">
<title>dataDefn:wVol&#45;&gt;assumpVCN</title>
<path fill="none" stroke="black" d="M770.63,-87.84C647.45,-84.83 369.89,-74.21 128.24,-36.04"/>
<polygon fill="black" stroke="black" points="128.64,-32.56 118.22,-34.43 127.54,-39.47 128.64,-32.56"/>
</g>
<!-- theory -->
<g id="node5" class="node">
<title>theory</title>
<polygon fill="#fff68f" stroke="black" points="1407.5,-180 1276.5,-180 1276.5,-144 1407.5,-144 1407.5,-180"/>
<text text-anchor="middle" x="1342" y="-158.3" font-family="Times,serif" font-size="14.00">IM:heatEInPCM</text>
</g>
<!-- theory&#45;&gt;assumpCTNOD -->
<g id="edge23" class="edge">
<title>theory:eBalanceOnWtrRC&#45;&gt;assumpCTNOD</title>
<path fill="none" stroke="black" d="M1276.31,-151.59C1217.37,-142.53 1128.74,-127.35 1053,-108 1003.57,-95.37 994.13,-81.47 944,-72 659.01,-18.14 577.55,-73.7 286.12,-36.01"/>
<polygon fill="black" stroke="black" points="286.48,-32.52 276.11,-34.69 285.57,-39.46 286.48,-32.52"/>
</g>
<!-- theory&#45;&gt;assumpSITWP -->
<g id="edge24" class="edge">
<title>theory:eBalanceOnWtrRC&#45;&gt;assumpSITWP</title>
<path fill="none" stroke="black" d="M1290.68,-143.97C1266.24,-134.29 1237.06,-121.44 1212,-108 1185.92,-94.02 1183.88,-81.91 1156,-72 1024.03,-25.09 978.83,-57.82 844.45,-37.49"/>
<polygon fill="black" stroke="black" points="844.61,-33.97 834.19,-35.86 843.52,-40.89 844.61,-33.97"/>
</g>
<!-- theory&#45;&gt;assumpSITWP -->
<g id="edge38" class="edge">
<title>theory:eBalanceOnPCMRC&#45;&gt;assumpSITWP</title>
<path fill="none" stroke="black" d="M1306.63,-143.97C1284.24,-134.29 1255.06,-121.44 1230,-108 1203.92,-94.02 1201.88,-81.91 1174,-72 1038.73,-23.92 994.62,-59.51 853,-36 850.15,-35.53 847.25,-35.02 844.32,-34.48"/>
<polygon fill="black" stroke="black" points="844.74,-31 834.26,-32.55 843.43,-37.87 844.74,-31"/>
</g>
<!-- theory&#45;&gt;dataDefn -->
<g id="edge7" class="edge">
<title>theory:latentHtETM&#45;&gt;dataDefn:meltFrac</title>
<path fill="none" stroke="black" d="M1276.24,-155.18C1180.28,-144.46 1008.98,-121.28 909.14,-105.91"/>
<polygon fill="black" stroke="black" points="909.53,-102.43 899.12,-104.36 908.46,-109.35 909.53,-102.43"/>
</g>
<!-- theory&#45;&gt;dataDefn -->
<g id="edge29" class="edge">
<title>theory:eBalanceOnWtrRC&#45;&gt;dataDefn:tauW</title>
<path fill="none" stroke="black" d="M1276.41,-154.26C1181.27,-142.74 1008.4,-119.1 909,-104.21"/>
<polygon fill="black" stroke="black" points="909.43,-100.73 899.02,-102.71 908.39,-107.66 909.43,-100.73"/>
</g>
<!-- theory&#45;&gt;dataDefn -->
<g id="edge30" class="edge">
<title>theory:eBalanceOnWtrRC&#45;&gt;dataDefn:eta</title>
<path fill="none" stroke="black" d="M1276.42,-153.17C1181.76,-140.88 1008.05,-116.96 908.96,-102.64"/>
<polygon fill="black" stroke="black" points="909.42,-99.17 899.03,-101.2 908.42,-106.1 909.42,-99.17"/>
</g>
<!-- theory&#45;&gt;dataDefn -->
<g id="edge43" class="edge">
<title>theory:eBalanceOnPCMRC&#45;&gt;dataDefn:tauSP</title>
<path fill="none" stroke="black" d="M1276.5,-151.96C1182.03,-138.91 1008.06,-114.89 909.05,-101.22"/>
<polygon fill="black" stroke="black" points="909.5,-97.75 899.12,-99.85 908.55,-104.69 909.5,-97.75"/>
</g>
<!-- theory&#45;&gt;dataDefn -->
<g id="edge44" class="edge">
<title>theory:eBalanceOnPCMRC&#45;&gt;dataDefn:tauLP</title>
<path fill="none" stroke="black" d="M1276.32,-150.56C1181.69,-136.81 1008.19,-112.89 909.1,-99.94"/>
<polygon fill="black" stroke="black" points="909.53,-96.46 899.16,-98.64 908.63,-103.4 909.53,-96.46"/>
</g>
<!-- theory&#45;&gt;dataDefn -->
<g id="edge45" class="edge">
<title>theory:eBalanceOnPCMRC&#45;&gt;dataDefn:meltFrac</title>
<path fill="none" stroke="black" d="M1276.34,-149.05C1181.35,-134.68 1008.73,-110.99 909.22,-98.8"/>
<polygon fill="black" stroke="black" points="909.59,-95.31 899.24,-97.58 908.74,-102.26 909.59,-95.31"/>
</g>
<!-- theory&#45;&gt;dataDefn -->
<g id="edge55" class="edge">
<title>theory:heatEInPCMRC&#45;&gt;dataDefn:htFusion</title>
<path fill="none" stroke="black" d="M1276.46,-147.42C1180.93,-132.53 1009.6,-109.22 909.35,-97.79"/>
<polygon fill="black" stroke="black" points="909.61,-94.3 899.28,-96.65 908.83,-101.25 909.61,-94.3"/>
</g>
<!-- theory&#45;&gt;theory -->
<g id="edge6" class="edge">
<title>theory:sensHeat&#45;&gt;theory:latentHtETM</title>
<path fill="none" stroke="black" d="M1408,-144C1413.5,-126 1425.5,-126 1425.5,-153 1425.5,-159.52 1422.25,-164.46 1416.94,-167.96"/>
<polygon fill="black" stroke="black" points="1415.49,-164.77 1407.81,-172.07 1418.36,-171.16 1415.49,-164.77"/>
</g>
<!-- theory&#45;&gt;theory -->
<g id="edge13" class="edge">
<title>theory:rocTempSimpRC&#45;&gt;theory:consThermECS</title>
<path fill="none" stroke="black" d="M1407.81,-163.38C1418.31,-163.18 1425.5,-162.72 1425.5,-162 1425.5,-161.55 1422.69,-161.2 1418.02,-160.96"/>
<polygon fill="black" stroke="black" points="1417.92,-157.45 1407.81,-160.62 1417.69,-164.45 1417.92,-157.45"/>
</g>
<!-- theory&#45;&gt;theory -->
<g id="edge14" class="edge">
<title>theory:rocTempSimpRC&#45;&gt;theory:rocTempSimpRC</title>
<path fill="none" stroke="black" d="M1407.9,-165C1427.88,-164.92 1443.5,-163.92 1443.5,-162 1443.5,-160.42 1432.99,-159.47 1418.18,-159.13"/>
<polygon fill="black" stroke="black" points="1417.94,-155.63 1407.9,-159 1417.85,-162.63 1417.94,-155.63"/>
</g>
<!-- theory&#45;&gt;theory -->
<g id="edge17" class="edge">
<title>theory:htFluxC&#45;&gt;theory:nwtnCoolingTM</title>
<path fill="none" stroke="black" d="M1276.19,-158.15C1265.69,-160.39 1258.5,-164.53 1258.5,-171 1258.5,-181.97 1262.96,-186.25 1267.68,-185.89"/>
<polygon fill="black" stroke="black" points="1269.86,-188.64 1276,-180 1265.82,-182.92 1269.86,-188.64"/>
</g>
<!-- theory&#45;&gt;theory -->
<g id="edge19" class="edge">
<title>theory:htFluxP&#45;&gt;theory:nwtnCoolingTM</title>
<path fill="none" stroke="black" d="M1276.1,-149.78C1256.12,-151.29 1240.5,-158.03 1240.5,-171 1240.5,-193.36 1256.96,-197.2 1269.15,-187.64"/>
<polygon fill="black" stroke="black" points="1271.93,-189.78 1276,-180 1266.72,-185.11 1271.93,-189.78"/>
</g>
<!-- theory&#45;&gt;theory -->
<g id="edge31" class="edge">
<title>theory:eBalanceOnWtrRC&#45;&gt;theory:rocTempSimpRC</title>
<path fill="none" stroke="black" d="M1407.75,-166.44C1436.64,-166.83 1461.5,-165.35 1461.5,-162 1461.5,-159.05 1442.3,-157.55 1418.03,-157.5"/>
<polygon fill="black" stroke="black" points="1417.73,-154 1407.75,-157.56 1417.77,-161 1417.73,-154"/>
</g>
<!-- theory&#45;&gt;theory -->
<g id="edge32" class="edge">
<title>theory:eBalanceOnWtrRC&#45;&gt;theory:htFluxC</title>
<path fill="none" stroke="black" d="M1407.78,-167.69C1445.02,-168.8 1479.5,-166.91 1479.5,-162 1479.5,-157.55 1451.18,-155.58 1418.16,-156.07"/>
<polygon fill="black" stroke="black" points="1417.7,-152.58 1407.78,-156.31 1417.86,-159.58 1417.7,-152.58"/>
</g>
<!-- theory&#45;&gt;theory -->
<g id="edge33" class="edge">
<title>theory:eBalanceOnWtrRC&#45;&gt;theory:htFluxP</title>
<path fill="none" stroke="black" d="M1407.51,-168.77C1452.85,-170.82 1497.5,-168.56 1497.5,-162 1497.5,-155.92 1459.24,-153.54 1417.58,-154.85"/>
<polygon fill="black" stroke="black" points="1417.37,-151.35 1407.51,-155.23 1417.64,-158.35 1417.37,-151.35"/>
</g>
<!-- theory&#45;&gt;theory -->
<g id="edge34" class="edge">
<title>theory:eBalanceOnWtrRC&#45;&gt;theory:eBalanceOnWtrRC</title>
<path fill="none" stroke="black" d="M1407.87,-169.73C1460.83,-172.83 1515.5,-170.25 1515.5,-162 1515.5,-154.28 1467.65,-151.53 1418.11,-153.74"/>
<polygon fill="black" stroke="black" points="1417.67,-150.26 1407.87,-154.27 1418.03,-157.25 1417.67,-150.26"/>
</g>
<!-- theory&#45;&gt;theory -->
<g id="edge35" class="edge">
<title>theory:eBalanceOnWtrRC&#45;&gt;theory:eBalanceOnPCMRC</title>
<path fill="none" stroke="black" d="M1407.74,-170.56C1468.26,-174.86 1533.5,-172.01 1533.5,-162 1533.5,-152.56 1475.44,-149.48 1418.06,-152.78"/>
<polygon fill="black" stroke="black" points="1417.49,-149.31 1407.74,-153.44 1417.94,-156.29 1417.49,-149.31"/>
</g>
<!-- theory&#45;&gt;theory -->
<g id="edge46" class="edge">
<title>theory:eBalanceOnPCMRC&#45;&gt;theory:rocTempSimpRC</title>
<path fill="none" stroke="black" d="M1407.69,-171.3C1475.57,-176.9 1551.5,-173.8 1551.5,-162 1551.5,-150.78 1482.81,-147.43 1417.69,-151.95"/>
<polygon fill="black" stroke="black" points="1417.4,-148.46 1407.69,-152.7 1417.93,-155.44 1417.4,-148.46"/>
</g>
<!-- theory&#45;&gt;theory -->
<g id="edge47" class="edge">
<title>theory:eBalanceOnPCMRC&#45;&gt;theory:htFluxP</title>
<path fill="none" stroke="black" d="M1407.5,-171.94C1482.63,-178.94 1569.5,-175.62 1569.5,-162 1569.5,-148.99 1490.26,-145.38 1417.69,-151.18"/>
<polygon fill="black" stroke="black" points="1417.16,-147.71 1407.5,-152.06 1417.76,-154.69 1417.16,-147.71"/>
</g>
<!-- theory&#45;&gt;theory -->
<g id="edge48" class="edge">
<title>theory:eBalanceOnPCMRC&#45;&gt;theory:eBalanceOnWtrRC</title>
<path fill="none" stroke="black" d="M1407.68,-172.55C1489.84,-180.96 1587.5,-177.45 1587.5,-162 1587.5,-147.18 1497.69,-143.34 1417.86,-150.48"/>
<polygon fill="black" stroke="black" points="1417.3,-147.02 1407.68,-151.45 1417.97,-153.98 1417.3,-147.02"/>
</g>
<!-- theory&#45;&gt;theory -->
<g id="edge49" class="edge">
<title>theory:eBalanceOnPCMRC&#45;&gt;theory:heatEInPCMRC</title>
<path fill="none" stroke="black" d="M1407.83,-173.1C1496.94,-182.99 1605.5,-179.29 1605.5,-162 1605.5,-145.35 1504.85,-141.3 1417.82,-149.86"/>
<polygon fill="black" stroke="black" points="1417.41,-146.38 1407.83,-150.9 1418.14,-153.34 1417.41,-146.38"/>
</g>
<!-- theory&#45;&gt;theory -->
<g id="edge52" class="edge">
<title>theory:heatEInWtrIM&#45;&gt;theory:sensHeat</title>
<path fill="none" stroke="black" d="M1407.81,-165.85C1418.31,-163.61 1425.5,-159.47 1425.5,-153 1425.5,-142.03 1421.04,-137.75 1416.32,-138.11"/>
<polygon fill="black" stroke="black" points="1414.14,-135.36 1408,-144 1418.18,-141.08 1414.14,-135.36"/>
</g>
<!-- theory&#45;&gt;theory -->
<g id="edge56" class="edge">
<title>theory:heatEInPCMRC&#45;&gt;theory:sensHeat</title>
<path fill="none" stroke="black" d="M1407.9,-174.22C1427.88,-172.71 1443.5,-165.97 1443.5,-153 1443.5,-130.64 1427.04,-126.8 1414.85,-136.36"/>
<polygon fill="black" stroke="black" points="1412.07,-134.22 1408,-144 1417.28,-138.89 1412.07,-134.22"/>
</g>
<!-- theory&#45;&gt;theory -->
<g id="edge57" class="edge">
<title>theory:heatEInPCMRC&#45;&gt;theory:latentHtETM</title>
<path fill="none" stroke="black" d="M1407.73,-173.57C1503.74,-185.03 1623.5,-181.17 1623.5,-162 1623.5,-143.5 1512.02,-139.26 1417.94,-149.28"/>
<polygon fill="black" stroke="black" points="1417.27,-145.83 1407.73,-150.43 1418.06,-152.79 1417.27,-145.83"/>
</g>
<!-- assumpTEO -->
<g id="node6" class="node">
<title>assumpTEO</title>
<polygon fill="mistyrose" stroke="black" points="1308,-36 1192,-36 1192,0 1308,0 1308,-36"/>
<text text-anchor="middle" x="1250" y="-14.3" font-family="Times,serif" font-size="14.00">A:assumpTEO</text>
</g>
<!-- theory&#45;&gt;assumpTEO -->
<g id="edge5" class="edge">
<title>theory:consThermECS&#45;&gt;assumpTEO</title>
<path fill="none" stroke="black" d="M1339.87,-143.99C1336.85,-125.08 1329.93,-94.26 1315,-72 1307.38,-60.63 1296.58,-50.46 1285.98,-42.14"/>
<polygon fill="black" stroke="black" points="1288.07,-39.34 1277.96,-36.16 1283.88,-44.95 1288.07,-39.34"/>
</g>
<!-- assumpHTCC -->
<g id="node7" class="node">
<title>assumpHTCC</title>
<polygon fill="mistyrose" stroke="black" points="422,-36 294,-36 294,0 422,0 422,-36"/>
<text text-anchor="middle" x="358" y="-14.3" font-family="Times,serif" font-size="14.00">A:assumpHTCC</text>
</g>
<!-- theory&#45;&gt;assumpHTCC -->
<g id="edge8" class="edge">
<title>theory:nwtnCoolingTM&#45;&gt;assumpHTCC</title>
<path fill="none" stroke="black" d="M1276,-181C1238.53,-218.47 1099.29,-124.7 1049,-108 1002.18,-92.45 992.35,-81.81 944,-72 723.28,-27.22 658.89,-68.77 432.58,-36.08"/>
<polygon fill="black" stroke="black" points="432.78,-32.58 422.38,-34.58 431.76,-39.5 432.78,-32.58"/>
</g>
<!-- assumpCWTAT -->
<g id="node8" class="node">
<title>assumpCWTAT</title>
<polygon fill="mistyrose" stroke="black" points="1463.5,-36 1326.5,-36 1326.5,0 1463.5,0 1463.5,-36"/>
<text text-anchor="middle" x="1395" y="-14.3" font-family="Times,serif" font-size="14.00">A:assumpCWTAT</text>
</g>
<!-- theory&#45;&gt;assumpCWTAT -->
<g id="edge9" class="edge">
<title>theory:rocTempSimpRC&#45;&gt;assumpCWTAT</title>
<path fill="none" stroke="black" d="M1339.22,-143.87C1343.19,-119.35 1359.58,-74.03 1374.44,-45.26"/>
<polygon fill="black" stroke="black" points="1377.67,-46.64 1379.4,-36.19 1371.53,-43.28 1377.67,-46.64"/>
</g>
<!-- theory&#45;&gt;assumpCWTAT -->
<g id="edge20" class="edge">
<title>theory:eBalanceOnWtrRC&#45;&gt;assumpCWTAT</title>
<path fill="none" stroke="black" d="M1348.39,-143.87C1357.51,-119.46 1374.31,-74.43 1385.06,-45.64"/>
<polygon fill="black" stroke="black" points="1388.37,-46.78 1388.58,-36.19 1381.81,-44.33 1388.37,-46.78"/>
</g>
<!-- theory&#45;&gt;assumpCWTAT -->
<g id="edge36" class="edge">
<title>theory:eBalanceOnPCMRC&#45;&gt;assumpCWTAT</title>
<path fill="none" stroke="black" d="M1357.56,-143.87C1371.77,-119.56 1389.04,-74.82 1395.78,-46.01"/>
<polygon fill="black" stroke="black" points="1399.22,-46.68 1397.77,-36.19 1392.36,-45.3 1399.22,-46.68"/>
</g>
<!-- assumpTPCAV -->
<g id="node9" class="node">
<title>assumpTPCAV</title>
<polygon fill="mistyrose" stroke="black" points="2390,-36 2256,-36 2256,0 2390,0 2390,-36"/>
<text text-anchor="middle" x="2323" y="-14.3" font-family="Times,serif" font-size="14.00">A:assumpTPCAV</text>
</g>
<!-- theory&#45;&gt;assumpTPCAV -->
<g id="edge10" class="edge">
<title>theory:rocTempSimpRC&#45;&gt;assumpTPCAV</title>
<path fill="none" stroke="black" d="M1407.59,-154.6C1501.5,-146.04 1678.45,-129.42 1829,-108 2007.83,-82.56 2051.93,-71.72 2229,-36 2234.52,-34.89 2240.25,-33.69 2246.06,-32.45"/>
<polygon fill="black" stroke="black" points="2246.84,-35.87 2255.89,-30.37 2245.38,-29.02 2246.84,-35.87"/>
</g>
<!-- theory&#45;&gt;assumpTPCAV -->
<g id="edge21" class="edge">
<title>theory:eBalanceOnWtrRC&#45;&gt;assumpTPCAV</title>
<path fill="none" stroke="black" d="M1407.56,-155.67C1504.06,-147.47 1689.9,-130.35 1847,-108 2022.6,-83.02 2068.3,-72.12 2245.95,-36.18"/>
<polygon fill="black" stroke="black" points="2246.79,-39.58 2255.9,-34.17 2245.4,-32.72 2246.79,-39.58"/>
</g>
<!-- theory&#45;&gt;assumpTPCAV -->
<g id="edge37" class="edge">
<title>theory:eBalanceOnPCMRC&#45;&gt;assumpTPCAV</title>
<path fill="none" stroke="black" d="M1407.7,-156.59C1507.56,-148.8 1701.79,-131.22 1865,-108 2040.34,-83.05 2086.16,-72.15 2254.78,-38.06"/>
<polygon fill="black" stroke="black" points="2255.63,-41.46 2264.74,-36.05 2254.25,-34.6 2255.63,-41.46"/>
</g>
<!-- assumpDWPCoV -->
<g id="node10" class="node">
<title>assumpDWPCoV</title>
<polygon fill="mistyrose" stroke="black" points="1630.5,-36 1481.5,-36 1481.5,0 1630.5,0 1630.5,-36"/>
<text text-anchor="middle" x="1556" y="-14.3" font-family="Times,serif" font-size="14.00">A:assumpDWPCoV</text>
</g>
<!-- theory&#45;&gt;assumpDWPCoV -->
<g id="edge11" class="edge">
<title>theory:rocTempSimpRC&#45;&gt;assumpDWPCoV</title>
<path fill="none" stroke="black" d="M1367.81,-143.87C1406.29,-118.34 1478.76,-70.25 1521.67,-41.78"/>
<polygon fill="black" stroke="black" points="1523.7,-44.63 1530.1,-36.19 1519.83,-38.8 1523.7,-44.63"/>
</g>
<!-- assumpSHECov -->
<g id="node11" class="node">
<title>assumpSHECov</title>
<polygon fill="mistyrose" stroke="black" points="1793.5,-36 1648.5,-36 1648.5,0 1793.5,0 1793.5,-36"/>
<text text-anchor="middle" x="1721" y="-14.3" font-family="Times,serif" font-size="14.00">A:assumpSHECov</text>
</g>
<!-- theory&#45;&gt;assumpSHECov -->
<g id="edge12" class="edge">
<title>theory:rocTempSimpRC&#45;&gt;assumpSHECov</title>
<path fill="none" stroke="black" d="M1387.72,-143.87C1457.53,-117.72 1590.49,-67.9 1665.65,-39.74"/>
<polygon fill="black" stroke="black" points="1667.28,-42.86 1675.42,-36.08 1664.82,-36.31 1667.28,-42.86"/>
</g>
<!-- assumpLCCCW -->
<g id="node12" class="node">
<title>assumpLCCCW</title>
<polygon fill="mistyrose" stroke="black" points="1952,-36 1812,-36 1812,0 1952,0 1952,-36"/>
<text text-anchor="middle" x="1882" y="-14.3" font-family="Times,serif" font-size="14.00">A:assumpLCCCW</text>
</g>
<!-- theory&#45;&gt;assumpLCCCW -->
<g id="edge15" class="edge">
<title>theory:htFluxC&#45;&gt;assumpLCCCW</title>
<path fill="none" stroke="black" d="M1407.38,-143.98C1447.17,-133.61 1499.02,-120.07 1545,-108 1635.51,-84.23 1739.65,-56.7 1807.92,-38.63"/>
<polygon fill="black" stroke="black" points="1808.95,-41.98 1817.72,-36.03 1807.16,-35.21 1808.95,-41.98"/>
</g>
<!-- assumpTHCCoT -->
<g id="node13" class="node">
<title>assumpTHCCoT</title>
<polygon fill="mistyrose" stroke="black" points="2553.5,-36 2408.5,-36 2408.5,0 2553.5,0 2553.5,-36"/>
<text text-anchor="middle" x="2481" y="-14.3" font-family="Times,serif" font-size="14.00">A:assumpTHCCoT</text>
</g>
<!-- theory&#45;&gt;assumpTHCCoT -->
<g id="edge16" class="edge">
<title>theory:htFluxC&#45;&gt;assumpTHCCoT</title>
<path fill="none" stroke="black" d="M1407.88,-157.61C1525.09,-151.14 1777.45,-135.18 1989,-108 2169.28,-84.84 2215.67,-71.27 2398.21,-36.13"/>
<polygon fill="black" stroke="black" points="2398.98,-39.55 2408.15,-34.22 2397.66,-32.67 2398.98,-39.55"/>
</g>
<!-- assumpLCCWP -->
<g id="node14" class="node">
<title>assumpLCCWP</title>
<polygon fill="mistyrose" stroke="black" points="2110,-36 1970,-36 1970,0 2110,0 2110,-36"/>
<text text-anchor="middle" x="2040" y="-14.3" font-family="Times,serif" font-size="14.00">A:assumpLCCWP</text>
</g>
<!-- theory&#45;&gt;assumpLCCWP -->
<g id="edge18" class="edge">
<title>theory:htFluxP&#45;&gt;assumpLCCWP</title>
<path fill="none" stroke="black" d="M1407.66,-149.07C1464.67,-138.6 1549.38,-122.78 1623,-108 1770.35,-78.41 1809.16,-68.58 1959.71,-36.28"/>
<polygon fill="black" stroke="black" points="1960.75,-39.63 1969.79,-34.12 1959.28,-32.79 1960.75,-39.63"/>
</g>
<!-- assumpTHCCoL -->
<g id="node15" class="node">
<title>assumpTHCCoL</title>
<polygon fill="mistyrose" stroke="black" points="2863.5,-36 2718.5,-36 2718.5,0 2863.5,0 2863.5,-36"/>
<text text-anchor="middle" x="2791" y="-14.3" font-family="Times,serif" font-size="14.00">A:assumpTHCCoL</text>
</g>
<!-- theory&#45;&gt;assumpTHCCoL -->
<g id="edge22" class="edge">
<title>theory:eBalanceOnWtrRC&#45;&gt;assumpTHCCoL</title>
<path fill="none" stroke="black" d="M1407.73,-159.57C1559.39,-155.77 1945.36,-143.16 2266,-108 2460.99,-86.62 2511.2,-72.72 2708.06,-36.14"/>
<polygon fill="black" stroke="black" points="2708.96,-39.54 2718.15,-34.27 2707.68,-32.65 2708.96,-39.54"/>
</g>
<!-- assumpWAL -->
<g id="node16" class="node">
<title>assumpWAL</title>
<polygon fill="mistyrose" stroke="black" points="3000,-36 2882,-36 2882,0 3000,0 3000,-36"/>
<text text-anchor="middle" x="2941" y="-14.3" font-family="Times,serif" font-size="14.00">A:assumpWAL</text>
</g>
<!-- theory&#45;&gt;assumpWAL -->
<g id="edge25" class="edge">
<title>theory:eBalanceOnWtrRC&#45;&gt;assumpWAL</title>
<path fill="none" stroke="black" d="M1407.63,-159.99C1573.62,-157.01 2023.05,-145.88 2396,-108 2605.37,-86.73 2657.7,-77.56 2864,-36 2866.59,-35.48 2869.24,-34.92 2871.91,-34.34"/>
<polygon fill="black" stroke="black" points="2872.69,-37.75 2881.67,-32.15 2871.15,-30.92 2872.69,-37.75"/>
</g>
<!-- theory&#45;&gt;assumpWAL -->
<g id="edge50" class="edge">
<title>theory:heatEInWtrIM&#45;&gt;assumpWAL</title>
<path fill="none" stroke="black" d="M1407.56,-160.15C1575.54,-157.4 2034.39,-146.56 2414,-108 2619.9,-87.08 2673.92,-77.87 2871.86,-38.04"/>
<polygon fill="black" stroke="black" points="2872.59,-41.47 2881.7,-36.06 2871.2,-34.6 2872.59,-41.47"/>
</g>
<!-- assumpPIT -->
<g id="node17" class="node">
<title>assumpPIT</title>
<polygon fill="mistyrose" stroke="black" points="2238,-36 2128,-36 2128,0 2238,0 2238,-36"/>
<text text-anchor="middle" x="2183" y="-14.3" font-family="Times,serif" font-size="14.00">A:assumpPIT</text>
</g>
<!-- theory&#45;&gt;assumpPIT -->
<g id="edge26" class="edge">
<title>theory:eBalanceOnWtrRC&#45;&gt;assumpPIT</title>
<path fill="none" stroke="black" d="M1407.74,-153.12C1540.58,-136.62 1850.43,-95.17 2118.01,-36.13"/>
<polygon fill="black" stroke="black" points="2118.91,-39.52 2127.91,-33.93 2117.39,-32.68 2118.91,-39.52"/>
</g>
<!-- assumpNIHGBWP -->
<g id="node18" class="node">
<title>assumpNIHGBWP</title>
<polygon fill="mistyrose" stroke="black" points="1013.5,-36 852.5,-36 852.5,0 1013.5,0 1013.5,-36"/>
<text text-anchor="middle" x="933" y="-14.3" font-family="Times,serif" font-size="14.00">A:assumpNIHGBWP</text>
</g>
<!-- theory&#45;&gt;assumpNIHGBWP -->
<g id="edge27" class="edge">
<title>theory:eBalanceOnWtrRC&#45;&gt;assumpNIHGBWP</title>
<path fill="none" stroke="black" d="M1315.11,-143.81C1283.49,-120.63 1233.31,-81.19 1212,-72 1133.07,-37.98 1104.21,-51.15 1023.62,-37.69"/>
<polygon fill="black" stroke="black" points="1023.99,-34.2 1013.53,-35.91 1022.77,-41.1 1023.99,-34.2"/>
</g>
<!-- theory&#45;&gt;assumpNIHGBWP -->
<g id="edge40" class="edge">
<title>theory:eBalanceOnPCMRC&#45;&gt;assumpNIHGBWP</title>
<path fill="none" stroke="black" d="M1327.06,-143.81C1301.49,-120.63 1251.31,-81.19 1230,-72 1147.86,-36.59 1119.94,-52.3 1032,-36 1029.22,-35.48 1026.38,-34.96 1023.52,-34.42"/>
<polygon fill="black" stroke="black" points="1024.16,-30.98 1013.69,-32.59 1022.87,-37.86 1024.16,-30.98"/>
</g>
<!-- assumpAPT -->
<g id="node19" class="node">
<title>assumpAPT</title>
<polygon fill="mistyrose" stroke="black" points="554,-36 440,-36 440,0 554,0 554,-36"/>
<text text-anchor="middle" x="497" y="-14.3" font-family="Times,serif" font-size="14.00">A:assumpAPT</text>
</g>
<!-- theory&#45;&gt;assumpAPT -->
<g id="edge28" class="edge">
<title>theory:eBalanceOnWtrRC&#45;&gt;assumpAPT</title>
<path fill="none" stroke="black" d="M1276.31,-153.47C1226.34,-145.91 1156.9,-131.89 1100,-108 1072.72,-96.55 1072.06,-81.37 1044,-72 840.22,-3.94 771.69,-69.2 564.3,-37.63"/>
<polygon fill="black" stroke="black" points="564.74,-34.16 554.32,-36.05 563.65,-41.07 564.74,-34.16"/>
</g>
<!-- theory&#45;&gt;assumpAPT -->
<g id="edge51" class="edge">
<title>theory:heatEInWtrIM&#45;&gt;assumpAPT</title>
<path fill="none" stroke="black" d="M1276.32,-151.02C1230.69,-143.03 1169.26,-129.52 1118,-108 1090.72,-96.55 1090.06,-81.37 1062,-72 854.88,-2.83 787.48,-71.38 572,-36 569.35,-35.57 566.66,-35.08 563.94,-34.54"/>
<polygon fill="black" stroke="black" points="564.53,-31.09 554.02,-32.45 563.08,-37.94 564.53,-31.09"/>
</g>
<!-- assumpPIS -->
<g id="node20" class="node">
<title>assumpPIS</title>
<polygon fill="mistyrose" stroke="black" points="682,-36 572,-36 572,0 682,0 682,-36"/>
<text text-anchor="middle" x="627" y="-14.3" font-family="Times,serif" font-size="14.00">A:assumpPIS</text>
</g>
<!-- theory&#45;&gt;assumpPIS -->
<g id="edge39" class="edge">
<title>theory:eBalanceOnPCMRC&#45;&gt;assumpPIS</title>
<path fill="none" stroke="black" d="M1276.12,-147.99C1239.63,-139.03 1194.18,-125.56 1156,-108 1129.12,-95.63 1128,-81.55 1100,-72 926.87,-12.97 867.93,-65.96 692.35,-37.74"/>
<polygon fill="black" stroke="black" points="692.71,-34.25 682.27,-36.05 691.55,-41.15 692.71,-34.25"/>
</g>
<!-- theory&#45;&gt;assumpPIS -->
<g id="edge53" class="edge">
<title>theory:heatEInPCMRC&#45;&gt;assumpPIS</title>
<path fill="none" stroke="black" d="M1276.64,-143.93C1244.94,-135.14 1206.78,-123.08 1174,-108 1147.12,-95.63 1146,-81.55 1118,-72 941.51,-11.82 883.69,-68.06 700,-36 697.38,-35.54 694.72,-35.03 692.02,-34.48"/>
<polygon fill="black" stroke="black" points="692.73,-31.05 682.21,-32.31 691.22,-37.88 692.73,-31.05"/>
</g>
<!-- assumpVCMPN -->
<g id="node21" class="node">
<title>assumpVCMPN</title>
<polygon fill="mistyrose" stroke="black" points="1174,-36 1032,-36 1032,0 1174,0 1174,-36"/>
<text text-anchor="middle" x="1103" y="-14.3" font-family="Times,serif" font-size="14.00">A:assumpVCMPN</text>
</g>
<!-- theory&#45;&gt;assumpVCMPN -->
<g id="edge41" class="edge">
<title>theory:eBalanceOnPCMRC&#45;&gt;assumpVCMPN</title>
<path fill="none" stroke="black" d="M1333.9,-144C1323.48,-123.91 1303.51,-90.84 1277,-72 1261.46,-60.96 1221.89,-48.55 1184.4,-38.51"/>
<polygon fill="black" stroke="black" points="1184.99,-35.04 1174.42,-35.88 1183.2,-41.81 1184.99,-35.04"/>
</g>
<!-- assumpNGSP -->
<g id="node22" class="node">
<title>assumpNGSP</title>
<polygon fill="mistyrose" stroke="black" points="2700,-36 2572,-36 2572,0 2700,0 2700,-36"/>
<text text-anchor="middle" x="2636" y="-14.3" font-family="Times,serif" font-size="14.00">A:assumpNGSP</text>
</g>
<!-- theory&#45;&gt;assumpNGSP -->
<g id="edge42" class="edge">
<title>theory:eBalanceOnPCMRC&#45;&gt;assumpNGSP</title>
<path fill="none" stroke="black" d="M1407.75,-158.31C1540.36,-152.66 1848.9,-137.56 2107,-108 2306.92,-85.1 2356.56,-74.84 2554,-36 2556.6,-35.49 2559.26,-34.95 2561.94,-34.39"/>
<polygon fill="black" stroke="black" points="2562.68,-37.81 2571.73,-32.31 2561.22,-30.97 2562.68,-37.81"/>
</g>
<!-- theory&#45;&gt;assumpNGSP -->
<g id="edge54" class="edge">
<title>theory:heatEInPCMRC&#45;&gt;assumpNGSP</title>
<path fill="none" stroke="black" d="M1407.73,-158.72C1542.74,-153.42 1860.38,-138.31 2125,-108 2321.41,-85.5 2372.77,-75.21 2561.73,-38.02"/>
<polygon fill="black" stroke="black" points="2562.57,-41.42 2571.71,-36.06 2561.22,-34.55 2562.57,-41.42"/>
</g>
<!-- findMass -->
<g id="node23" class="node">
<title>findMass</title>
<polygon fill="ivory" stroke="black" points="948,-252 842,-252 842,-216 948,-216 948,-252"/>
<text text-anchor="middle" x="895" y="-230.3" font-family="Times,serif" font-size="14.00">FR:findMass</text>
</g>
<!-- findMass&#45;&gt;dataDefn -->
<g id="edge58" class="edge">
<title>findMass&#45;&gt;dataDefn:wMass</title>
<path fill="none" stroke="black" d="M878.59,-215.87C863.18,-191.56 843.71,-146.82 835.55,-118.01"/>
<polygon fill="black" stroke="black" points="838.91,-117.04 833.08,-108.19 832.12,-118.74 838.91,-117.04"/>
</g>
<!-- findMass&#45;&gt;dataDefn -->
<g id="edge59" class="edge">
<title>findMass&#45;&gt;dataDefn:wVol</title>
<path fill="none" stroke="black" d="M887.76,-215.87C877.45,-191.46 858.42,-146.43 846.25,-117.64"/>
<polygon fill="black" stroke="black" points="849.38,-116.04 842.26,-108.19 842.93,-118.76 849.38,-116.04"/>
</g>
<!-- findMass&#45;&gt;dataDefn -->
<g id="edge60" class="edge">
<title>findMass&#45;&gt;dataDefn:tankVol</title>
<path fill="none" stroke="black" d="M896.93,-215.87C891.73,-191.24 872.97,-145.64 856.64,-116.88"/>
<polygon fill="black" stroke="black" points="859.58,-114.98 851.44,-108.19 853.57,-118.57 859.58,-114.98"/>
</g>
<!-- findMass&#45;&gt;theory -->
<g id="edge61" class="edge">
<title>findMass&#45;&gt;theory:eBalanceOnWtrRC</title>
<path fill="none" stroke="black" d="M931.49,-215.9C1046.35,-192.61 1182.52,-176.52 1266.3,-168.61"/>
<polygon fill="black" stroke="black" points="1266.87,-172.08 1276.5,-167.67 1266.22,-165.11 1266.87,-172.08"/>
</g>
<!-- findMass&#45;&gt;theory -->
<g id="edge62" class="edge">
<title>findMass&#45;&gt;theory:eBalanceOnPCMRC</title>
<path fill="none" stroke="black" d="M948.33,-216.14C948.56,-216.09 948.78,-216.05 949,-216 1058.04,-193.86 1186.39,-178.21 1266.07,-169.9"/>
<polygon fill="black" stroke="black" points="1266.91,-173.33 1276.5,-168.83 1266.19,-166.37 1266.91,-173.33"/>
</g>
<!-- findMass&#45;&gt;theory -->
<g id="edge63" class="edge">
<title>findMass&#45;&gt;theory:heatEInWtrIM</title>
<path fill="none" stroke="black" d="M948.14,-220.31C954.5,-218.73 960.89,-217.24 967,-216 1070.04,-195.07 1190.34,-179.95 1266.4,-171.34"/>
<polygon fill="black" stroke="black" points="1266.83,-174.81 1276.37,-170.22 1266.04,-167.86 1266.83,-174.81"/>
</g>
<!-- findMass&#45;&gt;theory -->
<g id="edge64" class="edge">
<title>findMass&#45;&gt;theory:heatEInPCMRC</title>
<path fill="none" stroke="black" d="M948.23,-224.62C960.89,-221.59 973.45,-218.34 985,-216 1081.69,-196.36 1193.57,-181.84 1266.46,-173.01"/>
<polygon fill="black" stroke="black" points="1266.97,-176.47 1276.48,-171.8 1266.14,-169.52 1266.97,-176.47"/>
</g>
<!-- inputValues -->
<g id="node24" class="node">
<title>inputValues</title>
<polygon fill="ivory" stroke="black" points="1091.5,-252 966.5,-252 966.5,-216 1091.5,-216 1091.5,-252"/>
<text text-anchor="middle" x="1029" y="-230.3" font-family="Times,serif" font-size="14.00">FR:inputValues</text>
</g>
<!-- findMass&#45;&gt;inputValues -->
<g id="edge65" class="edge">
<title>findMass&#45;&gt;inputValues</title>
<path fill="none" stroke="black" d="M948.13,-234C950.9,-234 953.66,-234 956.43,-234"/>
<polygon fill="black" stroke="black" points="956.45,-237.5 966.45,-234 956.45,-230.5 956.45,-237.5"/>
</g>
<!-- outputInputDerivVals -->
<g id="node25" class="node">
<title>outputInputDerivVals</title>
<polygon fill="ivory" stroke="black" points="824.5,-252 629.5,-252 629.5,-216 824.5,-216 824.5,-252"/>
<text text-anchor="middle" x="727" y="-230.3" font-family="Times,serif" font-size="14.00">FR:outputInputDerivVals</text>
</g>
<!-- outputInputDerivVals&#45;&gt;dataDefn -->
<g id="edge66" class="edge">
<title>outputInputDerivVals&#45;&gt;dataDefn:tauW</title>
<path fill="none" stroke="black" d="M726.27,-215.87C737.38,-190.82 772.29,-144.05 800.71,-115.41"/>
<polygon fill="black" stroke="black" points="803.41,-117.66 808.15,-108.19 798.54,-112.64 803.41,-117.66"/>
</g>
<!-- outputInputDerivVals&#45;&gt;dataDefn -->
<g id="edge67" class="edge">
<title>outputInputDerivVals&#45;&gt;dataDefn:eta</title>
<path fill="none" stroke="black" d="M735.44,-215.87C751.71,-191.03 786.6,-144.85 810.58,-116.14"/>
<polygon fill="black" stroke="black" points="813.53,-118.08 817.34,-108.19 808.19,-113.54 813.53,-118.08"/>
</g>
<!-- outputInputDerivVals&#45;&gt;dataDefn -->
<g id="edge68" class="edge">
<title>outputInputDerivVals&#45;&gt;dataDefn:tauSP</title>
<path fill="none" stroke="black" d="M744.61,-215.87C766.04,-191.14 801.19,-145.24 820.92,-116.51"/>
<polygon fill="black" stroke="black" points="823.84,-118.44 826.52,-108.19 818.03,-114.54 823.84,-118.44"/>
</g>
<!-- outputInputDerivVals&#45;&gt;dataDefn -->
<g id="edge69" class="edge">
<title>outputInputDerivVals&#45;&gt;dataDefn:tauLP</title>
<path fill="none" stroke="black" d="M753.78,-215.87C780.21,-191.35 815.47,-146.03 831.17,-117.26"/>
<polygon fill="black" stroke="black" points="834.36,-118.7 835.7,-108.19 828.1,-115.57 834.36,-118.7"/>
</g>
<!-- outputInputDerivVals&#45;&gt;findMass -->
<g id="edge71" class="edge">
<title>outputInputDerivVals&#45;&gt;findMass</title>
<path fill="none" stroke="black" d="M824.78,-234C827.08,-234 829.39,-234 831.69,-234"/>
<polygon fill="black" stroke="black" points="831.79,-237.5 841.79,-234 831.79,-230.5 831.79,-237.5"/>
</g>
<!-- outputInputDerivVals&#45;&gt;inputValues -->
<g id="edge70" class="edge">
<title>outputInputDerivVals&#45;&gt;inputValues</title>
<path fill="none" stroke="black" d="M773.52,-252.09C794.15,-259.19 818.94,-266.48 842,-270 888.57,-277.12 901.92,-279.78 948,-270 961.32,-267.17 975.1,-262 987.44,-256.45"/>
<polygon fill="black" stroke="black" points="989,-259.58 996.56,-252.15 986.02,-253.24 989,-259.58"/>
</g>
<!-- calcValues -->
<g id="node26" class="node">
<title>calcValues</title>
<polygon fill="ivory" stroke="black" points="1400,-252 1284,-252 1284,-216 1400,-216 1400,-252"/>
<text text-anchor="middle" x="1342" y="-230.3" font-family="Times,serif" font-size="14.00">FR:calcValues</text>
</g>
<!-- calcValues&#45;&gt;theory -->
<g id="edge72" class="edge">
<title>calcValues&#45;&gt;theory:eBalanceOnWtrRC</title>
<path fill="none" stroke="black" d="M1324.25,-215.7C1321.87,-207.98 1321.19,-198.71 1322.21,-190.11"/>
<polygon fill="black" stroke="black" points="1325.69,-190.61 1324.31,-180.1 1318.84,-189.17 1325.69,-190.61"/>
</g>
<!-- calcValues&#45;&gt;theory -->
<g id="edge73" class="edge">
<title>calcValues&#45;&gt;theory:eBalanceOnPCMRC</title>
<path fill="none" stroke="black" d="M1336.08,-215.7C1335.29,-207.98 1335.06,-198.71 1335.4,-190.11"/>
<polygon fill="black" stroke="black" points="1338.9,-190.32 1336.1,-180.1 1331.92,-189.84 1338.9,-190.32"/>
</g>
<!-- calcValues&#45;&gt;theory -->
<g id="edge74" class="edge">
<title>calcValues&#45;&gt;theory:heatEInWtrIM</title>
<path fill="none" stroke="black" d="M1347.92,-215.7C1348.71,-207.98 1348.94,-198.71 1348.6,-190.11"/>
<polygon fill="black" stroke="black" points="1352.08,-189.84 1347.9,-180.1 1345.1,-190.32 1352.08,-189.84"/>
</g>
<!-- calcValues&#45;&gt;theory -->
<g id="edge75" class="edge">
<title>calcValues&#45;&gt;theory:heatEInPCMRC</title>
<path fill="none" stroke="black" d="M1359.75,-215.7C1362.13,-207.98 1362.81,-198.71 1361.79,-190.11"/>
<polygon fill="black" stroke="black" points="1365.16,-189.17 1359.69,-180.1 1358.31,-190.61 1365.16,-189.17"/>
</g>
<!-- calcPCMMeltBegin -->
<g id="node27" class="node">
<title>calcPCMMeltBegin</title>
<polygon fill="ivory" stroke="black" points="1596,-252 1418,-252 1418,-216 1596,-216 1596,-252"/>
<text text-anchor="middle" x="1507" y="-230.3" font-family="Times,serif" font-size="14.00">FR:calcPCMMeltBegin</text>
</g>
<!-- calcPCMMeltBegin&#45;&gt;theory -->
<g id="edge76" class="edge">
<title>calcPCMMeltBegin&#45;&gt;theory:eBalanceOnPCMRC</title>
<path fill="none" stroke="black" d="M1466.64,-215.88C1443.98,-206.26 1415.53,-194.19 1391.53,-184.01"/>
<polygon fill="black" stroke="black" points="1392.81,-180.75 1382.23,-180.07 1390.07,-187.2 1392.81,-180.75"/>
</g>
<!-- calcPCMMeltEnd -->
<g id="node28" class="node">
<title>calcPCMMeltEnd</title>
<polygon fill="ivory" stroke="black" points="1779.5,-252 1614.5,-252 1614.5,-216 1779.5,-216 1779.5,-252"/>
<text text-anchor="middle" x="1697" y="-230.3" font-family="Times,serif" font-size="14.00">FR:calcPCMMeltEnd</text>
</g>
<!-- calcPCMMeltEnd&#45;&gt;theory -->
<g id="edge77" class="edge">
<title>calcPCMMeltEnd&#45;&gt;theory:eBalanceOnPCMRC</title>
<path fill="none" stroke="black" d="M1614.22,-216.68C1554.88,-204.98 1475.57,-189.34 1417.87,-177.96"/>
<polygon fill="black" stroke="black" points="1418.21,-174.46 1407.72,-175.96 1416.86,-181.33 1418.21,-174.46"/>
</g>
<!-- outputValues -->
<g id="node29" class="node">
<title>outputValues</title>
<polygon fill="ivory" stroke="black" points="1932.5,-252 1797.5,-252 1797.5,-216 1932.5,-216 1932.5,-252"/>
<text text-anchor="middle" x="1865" y="-230.3" font-family="Times,serif" font-size="14.00">FR:outputValues</text>
</g>
<!-- outputValues&#45;&gt;theory -->
<g id="edge78" class="edge">
<title>outputValues&#45;&gt;theory:eBalanceOnWtrRC</title>
<path fill="none" stroke="black" d="M1797.29,-222.88C1785.23,-220.4 1773.2,-217.91 1762,-216 1641.89,-195.5 1502.28,-180.31 1417.58,-171.57"/>
<polygon fill="black" stroke="black" points="1417.83,-168.08 1407.52,-170.54 1417.11,-175.04 1417.83,-168.08"/>
</g>
<!-- outputValues&#45;&gt;theory -->
<g id="edge79" class="edge">
<title>outputValues&#45;&gt;theory:eBalanceOnPCMRC</title>
<path fill="none" stroke="black" d="M1797.24,-219.23C1791.4,-218.05 1785.6,-216.96 1780,-216 1653.47,-194.41 1505.3,-178.7 1417.72,-170.22"/>
<polygon fill="black" stroke="black" points="1417.9,-166.72 1407.61,-169.25 1417.22,-173.69 1417.9,-166.72"/>
</g>
<!-- outputValues&#45;&gt;theory -->
<g id="edge80" class="edge">
<title>outputValues&#45;&gt;theory:heatEInWtrIM</title>
<path fill="none" stroke="black" d="M1797.71,-215.95C1665.15,-193.34 1508.91,-177.2 1418.02,-169.05"/>
<polygon fill="black" stroke="black" points="1418.08,-165.54 1407.81,-168.14 1417.46,-172.51 1418.08,-165.54"/>
</g>
<!-- outputValues&#45;&gt;theory -->
<g id="edge81" class="edge">
<title>outputValues&#45;&gt;theory:heatEInPCMRC</title>
<path fill="none" stroke="black" d="M1815.71,-215.95C1677.13,-192.31 1512.65,-175.74 1417.78,-167.99"/>
<polygon fill="black" stroke="black" points="1417.94,-164.49 1407.69,-167.17 1417.38,-171.46 1417.94,-164.49"/>
</g>
<!-- likeChgUTP -->
<g id="node30" class="node">
<title>likeChgUTP</title>
<polygon fill="lavender" stroke="black" points="2388.5,-252 2263.5,-252 2263.5,-216 2388.5,-216 2388.5,-252"/>
<text text-anchor="middle" x="2326" y="-230.3" font-family="Times,serif" font-size="14.00">LC:likeChgUTP</text>
</g>
<!-- likeChgUTP&#45;&gt;assumpTPCAV -->
<g id="edge82" class="edge">
<title>likeChgUTP&#45;&gt;assumpTPCAV</title>
<path fill="none" stroke="black" d="M2325.76,-215.85C2325.24,-178.83 2324.01,-91.18 2323.38,-46.39"/>
<polygon fill="black" stroke="black" points="2326.88,-46.18 2323.24,-36.23 2319.88,-46.28 2326.88,-46.18"/>
</g>
<!-- likeChgTCVOD -->
<g id="node31" class="node">
<title>likeChgTCVOD</title>
<polygon fill="lavender" stroke="black" points="2553,-252 2407,-252 2407,-216 2553,-216 2553,-252"/>
<text text-anchor="middle" x="2480" y="-230.3" font-family="Times,serif" font-size="14.00">LC:likeChgTCVOD</text>
</g>
<!-- likeChgTCVOD&#45;&gt;assumpTHCCoT -->
<g id="edge83" class="edge">
<title>likeChgTCVOD&#45;&gt;assumpTHCCoT</title>
<path fill="none" stroke="black" d="M2480.08,-215.85C2480.25,-178.83 2480.66,-91.18 2480.87,-46.39"/>
<polygon fill="black" stroke="black" points="2484.37,-46.25 2480.92,-36.23 2477.37,-46.22 2484.37,-46.25"/>
</g>
<!-- likeChgTCVOL -->
<g id="node32" class="node">
<title>likeChgTCVOL</title>
<polygon fill="lavender" stroke="black" points="2893,-252 2749,-252 2749,-216 2893,-216 2893,-252"/>
<text text-anchor="middle" x="2821" y="-230.3" font-family="Times,serif" font-size="14.00">LC:likeChgTCVOL</text>
</g>
<!-- likeChgTCVOL&#45;&gt;assumpTHCCoL -->
<g id="edge84" class="edge">
<title>likeChgTCVOL&#45;&gt;assumpTHCCoL</title>
<path fill="none" stroke="black" d="M2818.6,-215.85C2813.41,-178.83 2801.12,-91.18 2794.84,-46.39"/>
<polygon fill="black" stroke="black" points="2798.27,-45.65 2793.42,-36.23 2791.34,-46.62 2798.27,-45.65"/>
</g>
<!-- likeChgDT -->
<g id="node33" class="node">
<title>likeChgDT</title>
<polygon fill="lavender" stroke="black" points="263.5,-252 148.5,-252 148.5,-216 263.5,-216 263.5,-252"/>
<text text-anchor="middle" x="206" y="-230.3" font-family="Times,serif" font-size="14.00">LC:likeChgDT</text>
</g>
<!-- likeChgDT&#45;&gt;assumpCTNOD -->
<g id="edge85" class="edge">
<title>likeChgDT&#45;&gt;assumpCTNOD</title>
<path fill="none" stroke="black" d="M206,-215.85C206,-178.83 206,-91.18 206,-46.39"/>
<polygon fill="black" stroke="black" points="209.5,-46.23 206,-36.23 202.5,-46.23 209.5,-46.23"/>
</g>
<!-- likeChgDITPW -->
<g id="node34" class="node">
<title>likeChgDITPW</title>
<polygon fill="lavender" stroke="black" points="611,-252 467,-252 467,-216 611,-216 611,-252"/>
<text text-anchor="middle" x="539" y="-230.3" font-family="Times,serif" font-size="14.00">LC:likeChgDITPW</text>
</g>
<!-- likeChgDITPW&#45;&gt;assumpSITWP -->
<g id="edge86" class="edge">
<title>likeChgDITPW&#45;&gt;assumpSITWP</title>
<path fill="none" stroke="black" d="M557.27,-215.85C597.63,-177.97 694.47,-87.08 741.08,-43.33"/>
<polygon fill="black" stroke="black" points="743.74,-45.63 748.64,-36.23 738.95,-40.52 743.74,-45.63"/>
</g>
<!-- likeChgTLH -->
<g id="node35" class="node">
<title>likeChgTLH</title>
<polygon fill="lavender" stroke="black" points="2245.5,-252 2120.5,-252 2120.5,-216 2245.5,-216 2245.5,-252"/>
<text text-anchor="middle" x="2183" y="-230.3" font-family="Times,serif" font-size="14.00">LC:likeChgTLH</text>
</g>
<!-- likeChgTLH&#45;&gt;assumpPIT -->
<g id="edge87" class="edge">
<title>likeChgTLH&#45;&gt;assumpPIT</title>
<path fill="none" stroke="black" d="M2183,-215.85C2183,-178.83 2183,-91.18 2183,-46.39"/>
<polygon fill="black" stroke="black" points="2186.5,-46.23 2183,-36.23 2179.5,-46.23 2186.5,-46.23"/>
</g>
<!-- unlikeChgWPFS -->
<g id="node36" class="node">
<title>unlikeChgWPFS</title>
<polygon fill="lavender" stroke="black" points="2730.5,-252 2571.5,-252 2571.5,-216 2730.5,-216 2730.5,-252"/>
<text text-anchor="middle" x="2651" y="-230.3" font-family="Times,serif" font-size="14.00">UC:unlikeChgWPFS</text>
</g>
<!-- unlikeChgWPFS&#45;&gt;assumpWAL -->
<g id="edge88" class="edge">
<title>unlikeChgWPFS&#45;&gt;assumpWAL</title>
<path fill="none" stroke="black" d="M2674.24,-215.85C2726,-177.66 2850.79,-85.57 2909.48,-42.26"/>
<polygon fill="black" stroke="black" points="2911.68,-44.99 2917.65,-36.23 2907.52,-39.35 2911.68,-44.99"/>
</g>
<!-- unlikeChgWPFS&#45;&gt;assumpNGSP -->
<g id="edge89" class="edge">
<title>unlikeChgWPFS&#45;&gt;assumpNGSP</title>
<path fill="none" stroke="black" d="M2649.8,-215.85C2647.2,-178.83 2641.06,-91.18 2637.92,-46.39"/>
<polygon fill="black" stroke="black" points="2641.4,-45.96 2637.21,-36.23 2634.42,-46.45 2641.4,-45.96"/>
</g>
<!-- unlikeChgNIHG -->
<g id="node37" class="node">
<title>unlikeChgNIHG</title>
<polygon fill="lavender" stroke="black" points="1266,-252 1110,-252 1110,-216 1266,-216 1266,-252"/>
<text text-anchor="middle" x="1188" y="-230.3" font-family="Times,serif" font-size="14.00">UC:unlikeChgNIHG</text>
</g>
<!-- unlikeChgNIHG&#45;&gt;theory -->
<g id="edge91" class="edge">
<title>unlikeChgNIHG&#45;&gt;theory:eBalanceOnWtrRC</title>
<path fill="none" stroke="black" d="M1219.78,-215.88C1239.83,-206.31 1266.12,-194.3 1289.22,-184.15"/>
<polygon fill="black" stroke="black" points="1290.8,-187.28 1298.56,-180.07 1287.99,-180.86 1290.8,-187.28"/>
</g>
<!-- unlikeChgNIHG&#45;&gt;theory -->
<g id="edge92" class="edge">
<title>unlikeChgNIHG&#45;&gt;theory:eBalanceOnPCMRC</title>
<path fill="none" stroke="black" d="M1231.57,-215.88C1253.43,-206.39 1279.69,-194.51 1301.15,-184.42"/>
<polygon fill="black" stroke="black" points="1302.8,-187.51 1310.34,-180.07 1299.81,-181.19 1302.8,-187.51"/>
</g>
<!-- unlikeChgNIHG&#45;&gt;assumpNIHGBWP -->
<g id="edge90" class="edge">
<title>unlikeChgNIHG&#45;&gt;assumpNIHGBWP</title>
<path fill="none" stroke="black" d="M1167.56,-215.85C1122.24,-177.81 1013.22,-86.32 961.35,-42.79"/>
<polygon fill="black" stroke="black" points="963.44,-39.98 953.53,-36.23 958.94,-45.34 963.44,-39.98"/>
</g>
<!-- unlikeChgNGS -->
<g id="node38" class="node">
<title>unlikeChgNGS</title>
<polygon fill="lavender" stroke="black" points="2099.5,-252 1950.5,-252 1950.5,-216 2099.5,-216 2099.5,-252"/>
<text text-anchor="middle" x="2025" y="-230.3" font-family="Times,serif" font-size="14.00">UC:unlikeChgNGS</text>
</g>
<!-- unlikeChgNGS&#45;&gt;theory -->
<g id="edge94" class="edge">
<title>unlikeChgNGS&#45;&gt;theory:eBalanceOnPCMRC</title>
<path fill="none" stroke="black" d="M1950.46,-218.85C1944.55,-217.8 1938.68,-216.83 1933,-216 1748.87,-189.1 1530.82,-173.99 1417.99,-167.27"/>
<polygon fill="black" stroke="black" points="1417.93,-163.76 1407.74,-166.67 1417.52,-170.75 1417.93,-163.76"/>
</g>
<!-- unlikeChgNGS&#45;&gt;theory -->
<g id="edge95" class="edge">
<title>unlikeChgNGS&#45;&gt;theory:heatEInPCMRC</title>
<path fill="none" stroke="black" d="M1950.61,-215.94C1760.07,-188.13 1533.31,-172.93 1417.74,-166.6"/>
<polygon fill="black" stroke="black" points="1417.76,-163.09 1407.58,-166.05 1417.38,-170.08 1417.76,-163.09"/>
</g>
<!-- unlikeChgNGS&#45;&gt;assumpNGSP -->
<g id="edge93" class="edge">
<title>unlikeChgNGS&#45;&gt;assumpNGSP</title>
<path fill="none" stroke="black" d="M2073.71,-215.94C2184.94,-176.98 2457.25,-81.6 2577.4,-39.52"/>
<polygon fill="black" stroke="black" points="2578.89,-42.71 2587.17,-36.1 2576.58,-36.1 2578.89,-42.71"/>
</g>
<!-- checkWithPhysConsts -->
<g id="node39" class="node">
<title>checkWithPhysConsts</title>
<polygon fill="ivory" stroke="black" points="3110.5,-252 2911.5,-252 2911.5,-216 3110.5,-216 3110.5,-252"/>
<text text-anchor="middle" x="3011" y="-230.3" font-family="Times,serif" font-size="14.00">FR:checkWithPhysConsts</text>
</g>
<!-- verifyEnergyOutput -->
<g id="node40" class="node">
<title>verifyEnergyOutput</title>
<polygon fill="ivory" stroke="black" points="3313.5,-252 3128.5,-252 3128.5,-216 3313.5,-216 3313.5,-252"/>
<text text-anchor="middle" x="3221" y="-230.3" font-family="Times,serif" font-size="14.00">FR:verifyEnergyOutput</text>
</g>
<!-- correct -->
<g id="node41" class="node">
<title>correct</title>
<polygon fill="ivory" stroke="black" points="3436,-252 3332,-252 3332,-216 3436,-216 3436,-252"/>
<text text-anchor="middle" x="3384" y="-230.3" font-family="Times,serif" font-size="14.00">NFR:correct</text>
</g>
<!-- verifiable -->
<g id="node42" class="node">
<title>verifiable</title>
<polygon fill="ivory" stroke="black" points="3574,-252 3454,-252 3454,-216 3574,-216 3574,-252"/>
<text text-anchor="middle" x="3514" y="-230.3" font-family="Times,serif" font-size="14.00">NFR:verifiable</text>
</g>
<!-- understandable -->
<g id="node43" class="node">
<title>understandable</title>
<polygon fill="ivory" stroke="black" points="3757.5,-252 3592.5,-252 3592.5,-216 3757.5,-216 3757.5,-252"/>
<text text-anchor="middle" x="3675" y="-230.3" font-family="Times,serif" font-size="14.00">NFR:understandable</text>
</g>
<!-- reusable -->
<g id="node44" class="node">
<title>reusable</title>
<polygon fill="ivory" stroke="black" points="3890.5,-252 3775.5,-252 3775.5,-216 3890.5,-216 3890.5,-252"/>
<text text-anchor="middle" x="3833" y="-230.3" font-family="Times,serif" font-size="14.00">NFR:reusable</text>
</g>
<!-- maintainable -->
<g id="node45" class="node">
<title>maintainable</title>
<polygon fill="ivory" stroke="black" points="4055,-252 3909,-252 3909,-216 4055,-216 4055,-252"/>
<text text-anchor="middle" x="3982" y="-230.3" font-family="Times,serif" font-size="14.00">NFR:maintainable</text>
</g>
<!-- waterTempGS -->
<g id="node46" class="node">
<title>waterTempGS</title>
<polygon fill="#ffb90f" stroke="black" points="4216.5,-252 4073.5,-252 4073.5,-216 4216.5,-216 4216.5,-252"/>
<text text-anchor="middle" x="4145" y="-230.3" font-family="Times,serif" font-size="14.00">GS:waterTempGS</text>
</g>
<!-- pcmTempGS -->
<g id="node47" class="node">
<title>pcmTempGS</title>
<polygon fill="#ffb90f" stroke="black" points="4367,-252 4235,-252 4235,-216 4367,-216 4367,-252"/>
<text text-anchor="middle" x="4301" y="-230.3" font-family="Times,serif" font-size="14.00">GS:pcmTempGS</text>
</g>
<!-- waterEnergyGS -->
<g id="node48" class="node">
<title>waterEnergyGS</title>
<polygon fill="#ffb90f" stroke="black" points="4541,-252 4385,-252 4385,-216 4541,-216 4541,-252"/>
<text text-anchor="middle" x="4463" y="-230.3" font-family="Times,serif" font-size="14.00">GS:waterEnergyGS</text>
</g>
<!-- pcmEnergyGS -->
<g id="node49" class="node">
<title>pcmEnergyGS</title>
<polygon fill="#ffb90f" stroke="black" points="4704.5,-252 4559.5,-252 4559.5,-216 4704.5,-216 4704.5,-252"/>
<text text-anchor="middle" x="4632" y="-230.3" font-family="Times,serif" font-size="14.00">GS:pcmEnergyGS</text>
</g>
</g>
</svg>
