<?xml version="1.0" encoding="UTF-8" standalone="no"?>
<!DOCTYPE svg PUBLIC "-//W3C//DTD SVG 1.1//EN"
 "http://www.w3.org/Graphics/SVG/1.1/DTD/svg11.dtd">
<!-- Generated by graphviz version 2.43.0 (0)
 -->
<!-- Title: allvsr Pages: 1 -->
<svg width="8187pt" height="151pt"
 viewBox="0.00 0.00 8186.50 150.64" xmlns="http://www.w3.org/2000/svg" xmlns:xlink="http://www.w3.org/1999/xlink">
<g id="graph0" class="graph" transform="scale(1 1) rotate(0) translate(4 146.64)">
<title>allvsr</title>
<polygon fill="white" stroke="transparent" points="-4,4 -4,-146.64 8182.5,-146.64 8182.5,4 -4,4"/>
<!-- findMass -->
<g id="node1" class="node">
<title>findMass</title>
<polygon fill="ivory" stroke="black" points="1634,-108 1528,-108 1528,-72 1634,-72 1634,-108"/>
<text text-anchor="middle" x="1581" y="-86.3" font-family="Times,serif" font-size="14.00">FR:findMass</text>
</g>
<!-- wMass -->
<g id="node2" class="node">
<title>wMass</title>
<polygon fill="#bbffff" stroke="black" points="1622,-36 1500,-36 1500,0 1622,0 1622,-36"/>
<text text-anchor="middle" x="1561" y="-14.3" font-family="Times,serif" font-size="14.00">DD:waterMass</text>
</g>
<!-- findMass&#45;&gt;wMass -->
<g id="edge1" class="edge">
<title>findMass&#45;&gt;wMass</title>
<path fill="none" stroke="black" d="M1576.06,-71.7C1573.83,-63.9 1571.15,-54.51 1568.67,-45.83"/>
<polygon fill="black" stroke="black" points="1572,-44.76 1565.89,-36.1 1565.27,-46.68 1572,-44.76"/>
</g>
<!-- wVol -->
<g id="node3" class="node">
<title>wVol</title>
<polygon fill="#bbffff" stroke="black" points="1812,-36 1640,-36 1640,0 1812,0 1812,-36"/>
<text text-anchor="middle" x="1726" y="-14.3" font-family="Times,serif" font-size="14.00">DD:waterVolume.pcm</text>
</g>
<!-- findMass&#45;&gt;wVol -->
<g id="edge2" class="edge">
<title>findMass&#45;&gt;wVol</title>
<path fill="none" stroke="black" d="M1616.47,-71.88C1636.12,-62.39 1660.72,-50.51 1681.63,-40.42"/>
<polygon fill="black" stroke="black" points="1683.16,-43.57 1690.64,-36.07 1680.12,-37.26 1683.16,-43.57"/>
</g>
<!-- tankVol -->
<g id="node4" class="node">
<title>tankVol</title>
<polygon fill="#bbffff" stroke="black" points="1958,-36 1830,-36 1830,0 1958,0 1958,-36"/>
<text text-anchor="middle" x="1894" y="-14.3" font-family="Times,serif" font-size="14.00">DD:tankVolume</text>
</g>
<!-- findMass&#45;&gt;tankVol -->
<g id="edge3" class="edge">
<title>findMass&#45;&gt;tankVol</title>
<path fill="none" stroke="black" d="M1634.22,-74.39C1637.52,-73.56 1640.8,-72.76 1644,-72 1719.07,-54.26 1740.88,-53.17 1819.99,-36.18"/>
<polygon fill="black" stroke="black" points="1820.9,-39.57 1829.93,-34.03 1819.41,-32.72 1820.9,-39.57"/>
</g>
<!-- eBalanceOnWtrRC -->
<g id="node5" class="node">
<title>eBalanceOnWtrRC</title>
<polygon fill="#fff68f" stroke="black" points="1340,-36 1188,-36 1188,0 1340,0 1340,-36"/>
<text text-anchor="middle" x="1264" y="-14.3" font-family="Times,serif" font-size="14.00">IM:eBalanceOnWtr</text>
</g>
<!-- findMass&#45;&gt;eBalanceOnWtrRC -->
<g id="edge4" class="edge">
<title>findMass&#45;&gt;eBalanceOnWtrRC</title>
<path fill="none" stroke="black" d="M1527.96,-74.22C1524.93,-73.45 1521.93,-72.71 1519,-72 1487.46,-64.41 1411.14,-48.67 1350.17,-36.31"/>
<polygon fill="black" stroke="black" points="1350.63,-32.83 1340.14,-34.28 1349.24,-39.69 1350.63,-32.83"/>
</g>
<!-- eBalanceOnPCMRC -->
<g id="node6" class="node">
<title>eBalanceOnPCMRC</title>
<polygon fill="#fff68f" stroke="black" points="399,-36 239,-36 239,0 399,0 399,-36"/>
<text text-anchor="middle" x="319" y="-14.3" font-family="Times,serif" font-size="14.00">IM:eBalanceOnPCM</text>
</g>
<!-- findMass&#45;&gt;eBalanceOnPCMRC -->
<g id="edge5" class="edge">
<title>findMass&#45;&gt;eBalanceOnPCMRC</title>
<path fill="none" stroke="black" d="M1527.74,-73.54C1524.8,-72.95 1521.87,-72.43 1519,-72 1033.85,1.33 900.83,-89.26 409.64,-36.07"/>
<polygon fill="black" stroke="black" points="409.77,-32.56 399.44,-34.95 409,-39.52 409.77,-32.56"/>
</g>
<!-- heatEInWtrIM -->
<g id="node7" class="node">
<title>heatEInWtrIM</title>
<polygon fill="#fff68f" stroke="black" points="1482,-36 1358,-36 1358,0 1482,0 1482,-36"/>
<text text-anchor="middle" x="1420" y="-14.3" font-family="Times,serif" font-size="14.00">IM:heatEInWtr</text>
</g>
<!-- findMass&#45;&gt;heatEInWtrIM -->
<g id="edge6" class="edge">
<title>findMass&#45;&gt;heatEInWtrIM</title>
<path fill="none" stroke="black" d="M1541.61,-71.88C1519.61,-62.31 1491.99,-50.3 1468.64,-40.15"/>
<polygon fill="black" stroke="black" points="1469.82,-36.85 1459.26,-36.07 1467.03,-43.27 1469.82,-36.85"/>
</g>
<!-- heatEInPCMRC -->
<g id="node8" class="node">
<title>heatEInPCMRC</title>
<polygon fill="#fff68f" stroke="black" points="2107.5,-36 1976.5,-36 1976.5,0 2107.5,0 2107.5,-36"/>
<text text-anchor="middle" x="2042" y="-14.3" font-family="Times,serif" font-size="14.00">IM:heatEInPCM</text>
</g>
<!-- findMass&#45;&gt;heatEInPCMRC -->
<g id="edge7" class="edge">
<title>findMass&#45;&gt;heatEInPCMRC</title>
<path fill="none" stroke="black" d="M1634.14,-74.05C1637.47,-73.3 1640.77,-72.61 1644,-72 1782.73,-45.71 1822.78,-59.35 1966.18,-36.01"/>
<polygon fill="black" stroke="black" points="1966.94,-39.44 1976.23,-34.34 1965.79,-32.53 1966.94,-39.44"/>
</g>
<!-- inputValues -->
<g id="node9" class="node">
<title>inputValues</title>
<polygon fill="ivory" stroke="black" points="1777.5,-108 1652.5,-108 1652.5,-72 1777.5,-72 1777.5,-108"/>
<text text-anchor="middle" x="1715" y="-86.3" font-family="Times,serif" font-size="14.00">FR:inputValues</text>
</g>
<!-- findMass&#45;&gt;inputValues -->
<g id="edge8" class="edge">
<title>findMass&#45;&gt;inputValues</title>
<path fill="none" stroke="black" d="M1634.13,-90C1636.9,-90 1639.66,-90 1642.43,-90"/>
<polygon fill="black" stroke="black" points="1642.45,-93.5 1652.45,-90 1642.45,-86.5 1642.45,-93.5"/>
</g>
<!-- outputInputDerivVals -->
<g id="node10" class="node">
<title>outputInputDerivVals</title>
<polygon fill="ivory" stroke="black" points="987.5,-108 792.5,-108 792.5,-72 987.5,-72 987.5,-108"/>
<text text-anchor="middle" x="890" y="-86.3" font-family="Times,serif" font-size="14.00">FR:outputInputDerivVals</text>
</g>
<!-- outputInputDerivVals&#45;&gt;findMass -->
<g id="edge14" class="edge">
<title>outputInputDerivVals&#45;&gt;findMass</title>
<path fill="none" stroke="black" d="M936.93,-108.09C957.75,-115.19 982.75,-122.48 1006,-126 1116.73,-142.79 1401.07,-152.04 1510,-126 1521.54,-123.24 1533.32,-118.28 1543.89,-112.91"/>
<polygon fill="black" stroke="black" points="1545.66,-115.94 1552.83,-108.13 1542.36,-109.76 1545.66,-115.94"/>
</g>
<!-- outputInputDerivVals&#45;&gt;inputValues -->
<g id="edge13" class="edge">
<title>outputInputDerivVals&#45;&gt;inputValues</title>
<path fill="none" stroke="black" d="M936.93,-108.09C957.75,-115.19 982.75,-122.48 1006,-126 1074.99,-136.46 1565.74,-140.49 1634,-126 1647.32,-123.17 1661.1,-118 1673.44,-112.45"/>
<polygon fill="black" stroke="black" points="1675,-115.58 1682.56,-108.15 1672.02,-109.24 1675,-115.58"/>
</g>
<!-- tauW -->
<g id="node11" class="node">
<title>tauW</title>
<polygon fill="#bbffff" stroke="black" points="592.5,-36 417.5,-36 417.5,0 592.5,0 592.5,-36"/>
<text text-anchor="middle" x="505" y="-14.3" font-family="Times,serif" font-size="14.00">DD:balanceDecayRate</text>
</g>
<!-- outputInputDerivVals&#45;&gt;tauW -->
<g id="edge9" class="edge">
<title>outputInputDerivVals&#45;&gt;tauW</title>
<path fill="none" stroke="black" d="M796.31,-71.97C737.71,-61.31 662.35,-47.61 602.96,-36.81"/>
<polygon fill="black" stroke="black" points="603.29,-33.31 592.82,-34.97 602.04,-40.2 603.29,-33.31"/>
</g>
<!-- eta -->
<g id="node12" class="node">
<title>eta</title>
<polygon fill="#bbffff" stroke="black" points="787.5,-36 610.5,-36 610.5,0 787.5,0 787.5,-36"/>
<text text-anchor="middle" x="699" y="-14.3" font-family="Times,serif" font-size="14.00">DD:balanceDecayTime</text>
</g>
<!-- outputInputDerivVals&#45;&gt;eta -->
<g id="edge10" class="edge">
<title>outputInputDerivVals&#45;&gt;eta</title>
<path fill="none" stroke="black" d="M843.28,-71.88C816.7,-62.14 783.24,-49.87 755.23,-39.61"/>
<polygon fill="black" stroke="black" points="756.17,-36.22 745.57,-36.07 753.76,-42.8 756.17,-36.22"/>
</g>
<!-- tauSP -->
<g id="node13" class="node">
<title>tauSP</title>
<polygon fill="#bbffff" stroke="black" points="974.5,-36 805.5,-36 805.5,0 974.5,0 974.5,-36"/>
<text text-anchor="middle" x="890" y="-14.3" font-family="Times,serif" font-size="14.00">DD:balanceSolidPCM</text>
</g>
<!-- outputInputDerivVals&#45;&gt;tauSP -->
<g id="edge11" class="edge">
<title>outputInputDerivVals&#45;&gt;tauSP</title>
<path fill="none" stroke="black" d="M890,-71.7C890,-63.98 890,-54.71 890,-46.11"/>
<polygon fill="black" stroke="black" points="893.5,-46.1 890,-36.1 886.5,-46.1 893.5,-46.1"/>
</g>
<!-- tauLP -->
<g id="node14" class="node">
<title>tauLP</title>
<polygon fill="#bbffff" stroke="black" points="1170,-36 992,-36 992,0 1170,0 1170,-36"/>
<text text-anchor="middle" x="1081" y="-14.3" font-family="Times,serif" font-size="14.00">DD:balanceLiquidPCM</text>
</g>
<!-- outputInputDerivVals&#45;&gt;tauLP -->
<g id="edge12" class="edge">
<title>outputInputDerivVals&#45;&gt;tauLP</title>
<path fill="none" stroke="black" d="M936.72,-71.88C963.3,-62.14 996.76,-49.87 1024.77,-39.61"/>
<polygon fill="black" stroke="black" points="1026.24,-42.8 1034.43,-36.07 1023.83,-36.22 1026.24,-42.8"/>
</g>
<!-- calcTempWtrOverTime -->
<g id="node15" class="node">
<title>calcTempWtrOverTime</title>
<polygon fill="ivory" stroke="black" points="1210.5,-108 1005.5,-108 1005.5,-72 1210.5,-72 1210.5,-108"/>
<text text-anchor="middle" x="1108" y="-86.3" font-family="Times,serif" font-size="14.00">FR:calcTempWtrOverTime</text>
</g>
<!-- calcTempWtrOverTime&#45;&gt;eBalanceOnWtrRC -->
<g id="edge15" class="edge">
<title>calcTempWtrOverTime&#45;&gt;eBalanceOnWtrRC</title>
<path fill="none" stroke="black" d="M1146.16,-71.88C1167.39,-62.35 1194.01,-50.41 1216.57,-40.28"/>
<polygon fill="black" stroke="black" points="1218.27,-43.36 1225.96,-36.07 1215.41,-36.97 1218.27,-43.36"/>
</g>
<!-- calcTempPCMOverTime -->
<g id="node16" class="node">
<title>calcTempPCMOverTime</title>
<polygon fill="ivory" stroke="black" points="212,-108 0,-108 0,-72 212,-72 212,-108"/>
<text text-anchor="middle" x="106" y="-86.3" font-family="Times,serif" font-size="14.00">FR:calcTempPCMOverTime</text>
</g>
<!-- calcTempPCMOverTime&#45;&gt;eBalanceOnPCMRC -->
<g id="edge16" class="edge">
<title>calcTempPCMOverTime&#45;&gt;eBalanceOnPCMRC</title>
<path fill="none" stroke="black" d="M157.83,-71.97C187.85,-62.1 225.82,-49.62 257.37,-39.25"/>
<polygon fill="black" stroke="black" points="258.53,-42.56 266.93,-36.11 256.34,-35.91 258.53,-42.56"/>
</g>
<!-- calcChgHeatEnergyWtrOverTime -->
<g id="node17" class="node">
<title>calcChgHeatEnergyWtrOverTime</title>
<polygon fill="ivory" stroke="black" points="1509.5,-108 1228.5,-108 1228.5,-72 1509.5,-72 1509.5,-108"/>
<text text-anchor="middle" x="1369" y="-86.3" font-family="Times,serif" font-size="14.00">FR:calcChgHeatEnergyWtrOverTime</text>
</g>
<!-- calcChgHeatEnergyWtrOverTime&#45;&gt;heatEInWtrIM -->
<g id="edge17" class="edge">
<title>calcChgHeatEnergyWtrOverTime&#45;&gt;heatEInWtrIM</title>
<path fill="none" stroke="black" d="M1381.61,-71.7C1387.6,-63.47 1394.88,-53.48 1401.48,-44.42"/>
<polygon fill="black" stroke="black" points="1404.48,-46.25 1407.54,-36.1 1398.82,-42.13 1404.48,-46.25"/>
</g>
<!-- calcChgHeatEnergyPCMOverTime -->
<g id="node18" class="node">
<title>calcChgHeatEnergyPCMOverTime</title>
<polygon fill="ivory" stroke="black" points="2186,-108 1898,-108 1898,-72 2186,-72 2186,-108"/>
<text text-anchor="middle" x="2042" y="-86.3" font-family="Times,serif" font-size="14.00">FR:calcChgHeatEnergyPCMOverTime</text>
</g>
<!-- calcChgHeatEnergyPCMOverTime&#45;&gt;heatEInPCMRC -->
<g id="edge18" class="edge">
<title>calcChgHeatEnergyPCMOverTime&#45;&gt;heatEInPCMRC</title>
<path fill="none" stroke="black" d="M2042,-71.7C2042,-63.98 2042,-54.71 2042,-46.11"/>
<polygon fill="black" stroke="black" points="2045.5,-46.1 2042,-36.1 2038.5,-46.1 2045.5,-46.1"/>
</g>
<!-- calcPCMMeltBegin -->
<g id="node19" class="node">
<title>calcPCMMeltBegin</title>
<polygon fill="ivory" stroke="black" points="408,-108 230,-108 230,-72 408,-72 408,-108"/>
<text text-anchor="middle" x="319" y="-86.3" font-family="Times,serif" font-size="14.00">FR:calcPCMMeltBegin</text>
</g>
<!-- calcPCMMeltBegin&#45;&gt;eBalanceOnPCMRC -->
<g id="edge19" class="edge">
<title>calcPCMMeltBegin&#45;&gt;eBalanceOnPCMRC</title>
<path fill="none" stroke="black" d="M319,-71.7C319,-63.98 319,-54.71 319,-46.11"/>
<polygon fill="black" stroke="black" points="322.5,-46.1 319,-36.1 315.5,-46.1 322.5,-46.1"/>
</g>
<!-- calcPCMMeltEnd -->
<g id="node20" class="node">
<title>calcPCMMeltEnd</title>
<polygon fill="ivory" stroke="black" points="591.5,-108 426.5,-108 426.5,-72 591.5,-72 591.5,-108"/>
<text text-anchor="middle" x="509" y="-86.3" font-family="Times,serif" font-size="14.00">FR:calcPCMMeltEnd</text>
</g>
<!-- calcPCMMeltEnd&#45;&gt;eBalanceOnPCMRC -->
<g id="edge20" class="edge">
<title>calcPCMMeltEnd&#45;&gt;eBalanceOnPCMRC</title>
<path fill="none" stroke="black" d="M462.52,-71.88C436.08,-62.14 402.8,-49.87 374.94,-39.61"/>
<polygon fill="black" stroke="black" points="375.92,-36.24 365.33,-36.07 373.5,-42.81 375.92,-36.24"/>
</g>
<!-- assumpTEO -->
<g id="node21" class="node">
<title>assumpTEO</title>
<polygon fill="mistyrose" stroke="black" points="2320,-108 2204,-108 2204,-72 2320,-72 2320,-108"/>
<text text-anchor="middle" x="2262" y="-86.3" font-family="Times,serif" font-size="14.00">A:assumpTEO</text>
</g>
<!-- assumpHTCC -->
<g id="node22" class="node">
<title>assumpHTCC</title>
<polygon fill="mistyrose" stroke="black" points="2466,-108 2338,-108 2338,-72 2466,-72 2466,-108"/>
<text text-anchor="middle" x="2402" y="-86.3" font-family="Times,serif" font-size="14.00">A:assumpHTCC</text>
</g>
<!-- assumpCWTAT -->
<g id="node23" class="node">
<title>assumpCWTAT</title>
<polygon fill="mistyrose" stroke="black" points="2621.5,-108 2484.5,-108 2484.5,-72 2621.5,-72 2621.5,-108"/>
<text text-anchor="middle" x="2553" y="-86.3" font-family="Times,serif" font-size="14.00">A:assumpCWTAT</text>
</g>
<!-- assumpTPCAV -->
<g id="node24" class="node">
<title>assumpTPCAV</title>
<polygon fill="mistyrose" stroke="black" points="2774,-108 2640,-108 2640,-72 2774,-72 2774,-108"/>
<text text-anchor="middle" x="2707" y="-86.3" font-family="Times,serif" font-size="14.00">A:assumpTPCAV</text>
</g>
<!-- assumpDWPCoV -->
<g id="node25" class="node">
<title>assumpDWPCoV</title>
<polygon fill="mistyrose" stroke="black" points="2941.5,-108 2792.5,-108 2792.5,-72 2941.5,-72 2941.5,-108"/>
<text text-anchor="middle" x="2867" y="-86.3" font-family="Times,serif" font-size="14.00">A:assumpDWPCoV</text>
</g>
<!-- assumpSHECov -->
<g id="node26" class="node">
<title>assumpSHECov</title>
<polygon fill="mistyrose" stroke="black" points="3104.5,-108 2959.5,-108 2959.5,-72 3104.5,-72 3104.5,-108"/>
<text text-anchor="middle" x="3032" y="-86.3" font-family="Times,serif" font-size="14.00">A:assumpSHECov</text>
</g>
<!-- assumpLCCCW -->
<g id="node27" class="node">
<title>assumpLCCCW</title>
<polygon fill="mistyrose" stroke="black" points="3263,-108 3123,-108 3123,-72 3263,-72 3263,-108"/>
<text text-anchor="middle" x="3193" y="-86.3" font-family="Times,serif" font-size="14.00">A:assumpLCCCW</text>
</g>
<!-- assumpTHCCoT -->
<g id="node28" class="node">
<title>assumpTHCCoT</title>
<polygon fill="mistyrose" stroke="black" points="3426.5,-108 3281.5,-108 3281.5,-72 3426.5,-72 3426.5,-108"/>
<text text-anchor="middle" x="3354" y="-86.3" font-family="Times,serif" font-size="14.00">A:assumpTHCCoT</text>
</g>
<!-- assumpTHCCoL -->
<g id="node29" class="node">
<title>assumpTHCCoL</title>
<polygon fill="mistyrose" stroke="black" points="3589.5,-108 3444.5,-108 3444.5,-72 3589.5,-72 3589.5,-108"/>
<text text-anchor="middle" x="3517" y="-86.3" font-family="Times,serif" font-size="14.00">A:assumpTHCCoL</text>
</g>
<!-- assumpLCCWP -->
<g id="node30" class="node">
<title>assumpLCCWP</title>
<polygon fill="mistyrose" stroke="black" points="3748,-108 3608,-108 3608,-72 3748,-72 3748,-108"/>
<text text-anchor="middle" x="3678" y="-86.3" font-family="Times,serif" font-size="14.00">A:assumpLCCWP</text>
</g>
<!-- assumpCTNOD -->
<g id="node31" class="node">
<title>assumpCTNOD</title>
<polygon fill="mistyrose" stroke="black" points="3906,-108 3766,-108 3766,-72 3906,-72 3906,-108"/>
<text text-anchor="middle" x="3836" y="-86.3" font-family="Times,serif" font-size="14.00">A:assumpCTNOD</text>
</g>
<!-- assumpSITWP -->
<g id="node32" class="node">
<title>assumpSITWP</title>
<polygon fill="mistyrose" stroke="black" points="4058,-108 3924,-108 3924,-72 4058,-72 4058,-108"/>
<text text-anchor="middle" x="3991" y="-86.3" font-family="Times,serif" font-size="14.00">A:assumpSITWP</text>
</g>
<!-- assumpPIS -->
<g id="node33" class="node">
<title>assumpPIS</title>
<polygon fill="mistyrose" stroke="black" points="4186,-108 4076,-108 4076,-72 4186,-72 4186,-108"/>
<text text-anchor="middle" x="4131" y="-86.3" font-family="Times,serif" font-size="14.00">A:assumpPIS</text>
</g>
<!-- assumpWAL -->
<g id="node34" class="node">
<title>assumpWAL</title>
<polygon fill="mistyrose" stroke="black" points="4322,-108 4204,-108 4204,-72 4322,-72 4322,-108"/>
<text text-anchor="middle" x="4263" y="-86.3" font-family="Times,serif" font-size="14.00">A:assumpWAL</text>
</g>
<!-- assumpPIT -->
<g id="node35" class="node">
<title>assumpPIT</title>
<polygon fill="mistyrose" stroke="black" points="4450,-108 4340,-108 4340,-72 4450,-72 4450,-108"/>
<text text-anchor="middle" x="4395" y="-86.3" font-family="Times,serif" font-size="14.00">A:assumpPIT</text>
</g>
<!-- assumpNIHGBWP -->
<g id="node36" class="node">
<title>assumpNIHGBWP</title>
<polygon fill="mistyrose" stroke="black" points="4629.5,-108 4468.5,-108 4468.5,-72 4629.5,-72 4629.5,-108"/>
<text text-anchor="middle" x="4549" y="-86.3" font-family="Times,serif" font-size="14.00">A:assumpNIHGBWP</text>
</g>
<!-- assumpVCMPN -->
<g id="node37" class="node">
<title>assumpVCMPN</title>
<polygon fill="mistyrose" stroke="black" points="4790,-108 4648,-108 4648,-72 4790,-72 4790,-108"/>
<text text-anchor="middle" x="4719" y="-86.3" font-family="Times,serif" font-size="14.00">A:assumpVCMPN</text>
</g>
<!-- assumpNGSP -->
<g id="node38" class="node">
<title>assumpNGSP</title>
<polygon fill="mistyrose" stroke="black" points="4936,-108 4808,-108 4808,-72 4936,-72 4936,-108"/>
<text text-anchor="middle" x="4872" y="-86.3" font-family="Times,serif" font-size="14.00">A:assumpNGSP</text>
</g>
<!-- assumpAPT -->
<g id="node39" class="node">
<title>assumpAPT</title>
<polygon fill="mistyrose" stroke="black" points="5068,-108 4954,-108 4954,-72 5068,-72 5068,-108"/>
<text text-anchor="middle" x="5011" y="-86.3" font-family="Times,serif" font-size="14.00">A:assumpAPT</text>
</g>
<!-- assumpVCN -->
<g id="node40" class="node">
<title>assumpVCN</title>
<polygon fill="mistyrose" stroke="black" points="5204,-108 5086,-108 5086,-72 5204,-72 5204,-108"/>
<text text-anchor="middle" x="5145" y="-86.3" font-family="Times,serif" font-size="14.00">A:assumpVCN</text>
</g>
<!-- htFusion -->
<g id="node41" class="node">
<title>htFusion</title>
<polygon fill="#bbffff" stroke="black" points="2232.5,-36 2125.5,-36 2125.5,0 2232.5,0 2232.5,-36"/>
<text text-anchor="middle" x="2179" y="-14.3" font-family="Times,serif" font-size="14.00">DD:htFusion</text>
</g>
<!-- meltFrac -->
<g id="node42" class="node">
<title>meltFrac</title>
<polygon fill="#bbffff" stroke="black" points="2359,-36 2251,-36 2251,0 2359,0 2359,-36"/>
<text text-anchor="middle" x="2305" y="-14.3" font-family="Times,serif" font-size="14.00">DD:meltFrac</text>
</g>
<!-- aspectRatio -->
<g id="node43" class="node">
<title>aspectRatio</title>
<polygon fill="#bbffff" stroke="black" points="2505,-36 2377,-36 2377,0 2505,0 2505,-36"/>
<text text-anchor="middle" x="2441" y="-14.3" font-family="Times,serif" font-size="14.00">DD:aspectRatio</text>
</g>
<!-- consThermECS -->
<g id="node44" class="node">
<title>consThermECS</title>
<polygon fill="pink" stroke="black" points="5356,-108 5222,-108 5222,-72 5356,-72 5356,-108"/>
<text text-anchor="middle" x="5289" y="-86.3" font-family="Times,serif" font-size="14.00">TM:consThermE</text>
</g>
<!-- sensHeat -->
<g id="node45" class="node">
<title>sensHeat</title>
<polygon fill="pink" stroke="black" points="5479.5,-108 5374.5,-108 5374.5,-72 5479.5,-72 5479.5,-108"/>
<text text-anchor="middle" x="5427" y="-86.3" font-family="Times,serif" font-size="14.00">TM:sensHtE</text>
</g>
<!-- latentHtETM -->
<g id="node46" class="node">
<title>latentHtETM</title>
<polygon fill="pink" stroke="black" points="5612.5,-108 5497.5,-108 5497.5,-72 5612.5,-72 5612.5,-108"/>
<text text-anchor="middle" x="5555" y="-86.3" font-family="Times,serif" font-size="14.00">TM:latentHtE</text>
</g>
<!-- nwtnCoolingTM -->
<g id="node47" class="node">
<title>nwtnCoolingTM</title>
<polygon fill="pink" stroke="black" points="5765,-108 5631,-108 5631,-72 5765,-72 5765,-108"/>
<text text-anchor="middle" x="5698" y="-86.3" font-family="Times,serif" font-size="14.00">TM:nwtnCooling</text>
</g>
<!-- rocTempSimpRC -->
<g id="node48" class="node">
<title>rocTempSimpRC</title>
<polygon fill="palegreen" stroke="black" points="5925,-108 5783,-108 5783,-72 5925,-72 5925,-108"/>
<text text-anchor="middle" x="5854" y="-86.3" font-family="Times,serif" font-size="14.00">GD:rocTempSimp</text>
</g>
<!-- htFluxC -->
<g id="node49" class="node">
<title>htFluxC</title>
<polygon fill="palegreen" stroke="black" points="6142.5,-108 5943.5,-108 5943.5,-72 6142.5,-72 6142.5,-108"/>
<text text-anchor="middle" x="6043" y="-86.3" font-family="Times,serif" font-size="14.00">GD:htFluxWaterFromCoil</text>
</g>
<!-- htFluxP -->
<g id="node50" class="node">
<title>htFluxP</title>
<polygon fill="palegreen" stroke="black" points="6367,-108 6161,-108 6161,-72 6367,-72 6367,-108"/>
<text text-anchor="middle" x="6264" y="-86.3" font-family="Times,serif" font-size="14.00">GD:htFluxPCMFromWater</text>
</g>
<!-- checkWithPhysConsts -->
<g id="node51" class="node">
<title>checkWithPhysConsts</title>
<polygon fill="ivory" stroke="black" points="6584.5,-108 6385.5,-108 6385.5,-72 6584.5,-72 6584.5,-108"/>
<text text-anchor="middle" x="6485" y="-86.3" font-family="Times,serif" font-size="14.00">FR:checkWithPhysConsts</text>
</g>
<!-- verifyEnergyOutput -->
<g id="node52" class="node">
<title>verifyEnergyOutput</title>
<polygon fill="ivory" stroke="black" points="6787.5,-108 6602.5,-108 6602.5,-72 6787.5,-72 6787.5,-108"/>
<text text-anchor="middle" x="6695" y="-86.3" font-family="Times,serif" font-size="14.00">FR:verifyEnergyOutput</text>
</g>
<!-- correct -->
<g id="node53" class="node">
<title>correct</title>
<polygon fill="ivory" stroke="black" points="6910,-108 6806,-108 6806,-72 6910,-72 6910,-108"/>
<text text-anchor="middle" x="6858" y="-86.3" font-family="Times,serif" font-size="14.00">NFR:correct</text>
</g>
<!-- verifiable -->
<g id="node54" class="node">
<title>verifiable</title>
<polygon fill="ivory" stroke="black" points="7048,-108 6928,-108 6928,-72 7048,-72 7048,-108"/>
<text text-anchor="middle" x="6988" y="-86.3" font-family="Times,serif" font-size="14.00">NFR:verifiable</text>
</g>
<!-- understandable -->
<g id="node55" class="node">
<title>understandable</title>
<polygon fill="ivory" stroke="black" points="7231.5,-108 7066.5,-108 7066.5,-72 7231.5,-72 7231.5,-108"/>
<text text-anchor="middle" x="7149" y="-86.3" font-family="Times,serif" font-size="14.00">NFR:understandable</text>
</g>
<!-- reusable -->
<g id="node56" class="node">
<title>reusable</title>
<polygon fill="ivory" stroke="black" points="7364.5,-108 7249.5,-108 7249.5,-72 7364.5,-72 7364.5,-108"/>
<text text-anchor="middle" x="7307" y="-86.3" font-family="Times,serif" font-size="14.00">NFR:reusable</text>
</g>
<!-- maintainable -->
<g id="node57" class="node">
<title>maintainable</title>
<polygon fill="ivory" stroke="black" points="7529,-108 7383,-108 7383,-72 7529,-72 7529,-108"/>
<text text-anchor="middle" x="7456" y="-86.3" font-family="Times,serif" font-size="14.00">NFR:maintainable</text>
</g>
<!-- waterTempGS -->
<g id="node58" class="node">
<title>waterTempGS</title>
<polygon fill="#ffb90f" stroke="black" points="7690.5,-108 7547.5,-108 7547.5,-72 7690.5,-72 7690.5,-108"/>
<text text-anchor="middle" x="7619" y="-86.3" font-family="Times,serif" font-size="14.00">GS:waterTempGS</text>
</g>
<!-- pcmTempGS -->
<g id="node59" class="node">
<title>pcmTempGS</title>
<polygon fill="#ffb90f" stroke="black" points="7841,-108 7709,-108 7709,-72 7841,-72 7841,-108"/>
<text text-anchor="middle" x="7775" y="-86.3" font-family="Times,serif" font-size="14.00">GS:pcmTempGS</text>
</g>
<!-- waterEnergyGS -->
<g id="node60" class="node">
<title>waterEnergyGS</title>
<polygon fill="#ffb90f" stroke="black" points="8015,-108 7859,-108 7859,-72 8015,-72 8015,-108"/>
<text text-anchor="middle" x="7937" y="-86.3" font-family="Times,serif" font-size="14.00">GS:waterEnergyGS</text>
</g>
<!-- pcmEnergyGS -->
<g id="node61" class="node">
<title>pcmEnergyGS</title>
<polygon fill="#ffb90f" stroke="black" points="8178.5,-108 8033.5,-108 8033.5,-72 8178.5,-72 8178.5,-108"/>
<text text-anchor="middle" x="8106" y="-86.3" font-family="Times,serif" font-size="14.00">GS:pcmEnergyGS</text>
</g>
</g>
</svg>
