<?xml version="1.0" encoding="UTF-8" standalone="no"?>
<!DOCTYPE svg PUBLIC "-//W3C//DTD SVG 1.1//EN"
 "http://www.w3.org/Graphics/SVG/1.1/DTD/svg11.dtd">
<!-- Generated by graphviz version 2.43.0 (0)
 -->
<!-- Title: avsa Pages: 1 -->
<svg width="3008pt" height="44pt"
 viewBox="0.00 0.00 3008.00 44.00" xmlns="http://www.w3.org/2000/svg" xmlns:xlink="http://www.w3.org/1999/xlink">
<g id="graph0" class="graph" transform="scale(1 1) rotate(0) translate(4 40)">
<title>avsa</title>
<polygon fill="white" stroke="transparent" points="-4,4 -4,-40 3004,-40 3004,4 -4,4"/>
<!-- assumpCTNOD -->
<g id="node1" class="node">
<title>assumpCTNOD</title>
<polygon fill="mistyrose" stroke="black" points="140,-36 0,-36 0,0 140,0 140,-36"/>
<text text-anchor="middle" x="70" y="-14.3" font-family="Times,serif" font-size="14.00">A:assumpCTNOD</text>
</g>
<!-- assumpSITWP -->
<g id="node2" class="node">
<title>assumpSITWP</title>
<polygon fill="mistyrose" stroke="black" points="292,-36 158,-36 158,0 292,0 292,-36"/>
<text text-anchor="middle" x="225" y="-14.3" font-family="Times,serif" font-size="14.00">A:assumpSITWP</text>
</g>
<!-- assumpCTNOD&#45;&gt;assumpSITWP -->
<g id="edge1" class="edge">
<title>assumpCTNOD&#45;&gt;assumpSITWP</title>
<path fill="none" stroke="black" d="M140.23,-18C142.7,-18 145.17,-18 147.64,-18"/>
<polygon fill="black" stroke="black" points="147.78,-21.5 157.78,-18 147.78,-14.5 147.78,-21.5"/>
</g>
<!-- assumpTEO -->
<g id="node3" class="node">
<title>assumpTEO</title>
<polygon fill="mistyrose" stroke="black" points="426,-36 310,-36 310,0 426,0 426,-36"/>
<text text-anchor="middle" x="368" y="-14.3" font-family="Times,serif" font-size="14.00">A:assumpTEO</text>
</g>
<!-- assumpHTCC -->
<g id="node4" class="node">
<title>assumpHTCC</title>
<polygon fill="mistyrose" stroke="black" points="572,-36 444,-36 444,0 572,0 572,-36"/>
<text text-anchor="middle" x="508" y="-14.3" font-family="Times,serif" font-size="14.00">A:assumpHTCC</text>
</g>
<!-- assumpCWTAT -->
<g id="node5" class="node">
<title>assumpCWTAT</title>
<polygon fill="mistyrose" stroke="black" points="727.5,-36 590.5,-36 590.5,0 727.5,0 727.5,-36"/>
<text text-anchor="middle" x="659" y="-14.3" font-family="Times,serif" font-size="14.00">A:assumpCWTAT</text>
</g>
<!-- assumpTPCAV -->
<g id="node6" class="node">
<title>assumpTPCAV</title>
<polygon fill="mistyrose" stroke="black" points="880,-36 746,-36 746,0 880,0 880,-36"/>
<text text-anchor="middle" x="813" y="-14.3" font-family="Times,serif" font-size="14.00">A:assumpTPCAV</text>
</g>
<!-- assumpDWPCoV -->
<g id="node7" class="node">
<title>assumpDWPCoV</title>
<polygon fill="mistyrose" stroke="black" points="1047.5,-36 898.5,-36 898.5,0 1047.5,0 1047.5,-36"/>
<text text-anchor="middle" x="973" y="-14.3" font-family="Times,serif" font-size="14.00">A:assumpDWPCoV</text>
</g>
<!-- assumpSHECov -->
<g id="node8" class="node">
<title>assumpSHECov</title>
<polygon fill="mistyrose" stroke="black" points="1210.5,-36 1065.5,-36 1065.5,0 1210.5,0 1210.5,-36"/>
<text text-anchor="middle" x="1138" y="-14.3" font-family="Times,serif" font-size="14.00">A:assumpSHECov</text>
</g>
<!-- assumpLCCCW -->
<g id="node9" class="node">
<title>assumpLCCCW</title>
<polygon fill="mistyrose" stroke="black" points="1369,-36 1229,-36 1229,0 1369,0 1369,-36"/>
<text text-anchor="middle" x="1299" y="-14.3" font-family="Times,serif" font-size="14.00">A:assumpLCCCW</text>
</g>
<!-- assumpTHCCoT -->
<g id="node10" class="node">
<title>assumpTHCCoT</title>
<polygon fill="mistyrose" stroke="black" points="1532.5,-36 1387.5,-36 1387.5,0 1532.5,0 1532.5,-36"/>
<text text-anchor="middle" x="1460" y="-14.3" font-family="Times,serif" font-size="14.00">A:assumpTHCCoT</text>
</g>
<!-- assumpTHCCoL -->
<g id="node11" class="node">
<title>assumpTHCCoL</title>
<polygon fill="mistyrose" stroke="black" points="1695.5,-36 1550.5,-36 1550.5,0 1695.5,0 1695.5,-36"/>
<text text-anchor="middle" x="1623" y="-14.3" font-family="Times,serif" font-size="14.00">A:assumpTHCCoL</text>
</g>
<!-- assumpLCCWP -->
<g id="node12" class="node">
<title>assumpLCCWP</title>
<polygon fill="mistyrose" stroke="black" points="1854,-36 1714,-36 1714,0 1854,0 1854,-36"/>
<text text-anchor="middle" x="1784" y="-14.3" font-family="Times,serif" font-size="14.00">A:assumpLCCWP</text>
</g>
<!-- assumpPIS -->
<g id="node13" class="node">
<title>assumpPIS</title>
<polygon fill="mistyrose" stroke="black" points="1982,-36 1872,-36 1872,0 1982,0 1982,-36"/>
<text text-anchor="middle" x="1927" y="-14.3" font-family="Times,serif" font-size="14.00">A:assumpPIS</text>
</g>
<!-- assumpWAL -->
<g id="node14" class="node">
<title>assumpWAL</title>
<polygon fill="mistyrose" stroke="black" points="2118,-36 2000,-36 2000,0 2118,0 2118,-36"/>
<text text-anchor="middle" x="2059" y="-14.3" font-family="Times,serif" font-size="14.00">A:assumpWAL</text>
</g>
<!-- assumpPIT -->
<g id="node15" class="node">
<title>assumpPIT</title>
<polygon fill="mistyrose" stroke="black" points="2246,-36 2136,-36 2136,0 2246,0 2246,-36"/>
<text text-anchor="middle" x="2191" y="-14.3" font-family="Times,serif" font-size="14.00">A:assumpPIT</text>
</g>
<!-- assumpNIHGBWP -->
<g id="node16" class="node">
<title>assumpNIHGBWP</title>
<polygon fill="mistyrose" stroke="black" points="2425.5,-36 2264.5,-36 2264.5,0 2425.5,0 2425.5,-36"/>
<text text-anchor="middle" x="2345" y="-14.3" font-family="Times,serif" font-size="14.00">A:assumpNIHGBWP</text>
</g>
<!-- assumpVCMPN -->
<g id="node17" class="node">
<title>assumpVCMPN</title>
<polygon fill="mistyrose" stroke="black" points="2586,-36 2444,-36 2444,0 2586,0 2586,-36"/>
<text text-anchor="middle" x="2515" y="-14.3" font-family="Times,serif" font-size="14.00">A:assumpVCMPN</text>
</g>
<!-- assumpNGSP -->
<g id="node18" class="node">
<title>assumpNGSP</title>
<polygon fill="mistyrose" stroke="black" points="2732,-36 2604,-36 2604,0 2732,0 2732,-36"/>
<text text-anchor="middle" x="2668" y="-14.3" font-family="Times,serif" font-size="14.00">A:assumpNGSP</text>
</g>
<!-- assumpAPT -->
<g id="node19" class="node">
<title>assumpAPT</title>
<polygon fill="mistyrose" stroke="black" points="2864,-36 2750,-36 2750,0 2864,0 2864,-36"/>
<text text-anchor="middle" x="2807" y="-14.3" font-family="Times,serif" font-size="14.00">A:assumpAPT</text>
</g>
<!-- assumpVCN -->
<g id="node20" class="node">
<title>assumpVCN</title>
<polygon fill="mistyrose" stroke="black" points="3000,-36 2882,-36 2882,0 3000,0 3000,-36"/>
<text text-anchor="middle" x="2941" y="-14.3" font-family="Times,serif" font-size="14.00">A:assumpVCN</text>
</g>
</g>
</svg>
