<?xml version="1.0" encoding="UTF-8" standalone="no"?>
<!DOCTYPE svg PUBLIC "-//W3C//DTD SVG 1.1//EN"
 "http://www.w3.org/Graphics/SVG/1.1/DTD/svg11.dtd">
<!-- Generated by graphviz version 2.43.0 (0)
 -->
<!-- Title: avsall Pages: 1 -->
<svg width="5357pt" height="126pt"
 viewBox="0.00 0.00 5357.00 125.76" xmlns="http://www.w3.org/2000/svg" xmlns:xlink="http://www.w3.org/1999/xlink">
<g id="graph0" class="graph" transform="scale(1 1) rotate(0) translate(4 121.76)">
<title>avsall</title>
<polygon fill="white" stroke="transparent" points="-4,4 -4,-121.76 5353,-121.76 5353,4 -4,4"/>
<!-- dataDefn -->
<g id="node1" class="node">
<title>dataDefn</title>
<polygon fill="#bbffff" stroke="black" points="128,-108 0,-108 0,-72 128,-72 128,-108"/>
<text text-anchor="middle" x="64" y="-86.3" font-family="Times,serif" font-size="14.00">DD:aspectRatio</text>
</g>
<!-- assumpVCN -->
<g id="node2" class="node">
<title>assumpVCN</title>
<polygon fill="mistyrose" stroke="black" points="123,-36 5,-36 5,0 123,0 123,-36"/>
<text text-anchor="middle" x="64" y="-14.3" font-family="Times,serif" font-size="14.00">A:assumpVCN</text>
</g>
<!-- dataDefn&#45;&gt;assumpVCN -->
<g id="edge1" class="edge">
<title>dataDefn:wVol&#45;&gt;assumpVCN</title>
<path fill="none" stroke="black" d="M64,-71.7C64,-63.98 64,-54.71 64,-46.11"/>
<polygon fill="black" stroke="black" points="67.5,-46.1 64,-36.1 60.5,-46.1 67.5,-46.1"/>
</g>
<!-- theory -->
<g id="node3" class="node">
<title>theory</title>
<polygon fill="#fff68f" stroke="black" points="1695.5,-108 1564.5,-108 1564.5,-72 1695.5,-72 1695.5,-108"/>
<text text-anchor="middle" x="1630" y="-86.3" font-family="Times,serif" font-size="14.00">IM:heatEInPCM</text>
</g>
<!-- assumpTEO -->
<g id="node4" class="node">
<title>assumpTEO</title>
<polygon fill="mistyrose" stroke="black" points="2109,-36 1993,-36 1993,0 2109,0 2109,-36"/>
<text text-anchor="middle" x="2051" y="-14.3" font-family="Times,serif" font-size="14.00">A:assumpTEO</text>
</g>
<!-- theory&#45;&gt;assumpTEO -->
<g id="edge2" class="edge">
<title>theory:consThermECS&#45;&gt;assumpTEO</title>
<path fill="none" stroke="black" d="M1695.59,-81.17C1764.75,-72.47 1877.03,-57.07 1983.07,-36.08"/>
<polygon fill="black" stroke="black" points="1983.86,-39.49 1992.98,-34.1 1982.48,-32.63 1983.86,-39.49"/>
</g>
<!-- assumpHTCC -->
<g id="node5" class="node">
<title>assumpHTCC</title>
<polygon fill="mistyrose" stroke="black" points="601,-36 473,-36 473,0 601,0 601,-36"/>
<text text-anchor="middle" x="537" y="-14.3" font-family="Times,serif" font-size="14.00">A:assumpHTCC</text>
</g>
<!-- theory&#45;&gt;assumpHTCC -->
<g id="edge3" class="edge">
<title>theory:nwtnCoolingTM&#45;&gt;assumpHTCC</title>
<path fill="none" stroke="black" d="M1564,-109C1527.81,-145.19 725.52,-51.49 611.42,-35.99"/>
<polygon fill="black" stroke="black" points="611.78,-32.5 601.38,-34.55 610.79,-39.43 611.78,-32.5"/>
</g>
<!-- assumpCWTAT -->
<g id="node6" class="node">
<title>assumpCWTAT</title>
<polygon fill="mistyrose" stroke="black" points="908.5,-36 771.5,-36 771.5,0 908.5,0 908.5,-36"/>
<text text-anchor="middle" x="840" y="-14.3" font-family="Times,serif" font-size="14.00">A:assumpCWTAT</text>
</g>
<!-- theory&#45;&gt;assumpCWTAT -->
<g id="edge4" class="edge">
<title>theory:rocTempSimpRC&#45;&gt;assumpCWTAT</title>
<path fill="none" stroke="black" d="M1564.07,-87.55C1436.79,-83.9 1150.12,-71.99 909.34,-37.5"/>
<polygon fill="black" stroke="black" points="909.75,-34.02 899.36,-36.05 908.75,-40.95 909.75,-34.02"/>
</g>
<!-- theory&#45;&gt;assumpCWTAT -->
<g id="edge11" class="edge">
<title>theory:eBalanceOnWtrRC&#45;&gt;assumpCWTAT</title>
<path fill="none" stroke="black" d="M1564.28,-87.26C1439.9,-83.27 1161.47,-71.09 918.83,-36.16"/>
<polygon fill="black" stroke="black" points="919.16,-32.67 908.76,-34.69 918.15,-39.6 919.16,-32.67"/>
</g>
<!-- theory&#45;&gt;assumpCWTAT -->
<g id="edge20" class="edge">
<title>theory:eBalanceOnPCMRC&#45;&gt;assumpCWTAT</title>
<path fill="none" stroke="black" d="M1564.06,-86.89C1439.98,-82.49 1164.96,-69.76 935,-36 929.75,-35.23 924.33,-34.3 918.84,-33.28"/>
<polygon fill="black" stroke="black" points="919.4,-29.83 908.91,-31.37 918.07,-36.7 919.4,-29.83"/>
</g>
<!-- assumpTPCAV -->
<g id="node7" class="node">
<title>assumpTPCAV</title>
<polygon fill="mistyrose" stroke="black" points="753,-36 619,-36 619,0 753,0 753,-36"/>
<text text-anchor="middle" x="686" y="-14.3" font-family="Times,serif" font-size="14.00">A:assumpTPCAV</text>
</g>
<!-- theory&#45;&gt;assumpTPCAV -->
<g id="edge5" class="edge">
<title>theory:rocTempSimpRC&#45;&gt;assumpTPCAV</title>
<path fill="none" stroke="black" d="M1564.33,-88.65C1418.09,-87.14 1056.44,-79.17 754.7,-37.5"/>
<polygon fill="black" stroke="black" points="754.83,-33.98 744.45,-36.06 753.86,-40.91 754.83,-33.98"/>
</g>
<!-- theory&#45;&gt;assumpTPCAV -->
<g id="edge12" class="edge">
<title>theory:eBalanceOnWtrRC&#45;&gt;assumpTPCAV</title>
<path fill="none" stroke="black" d="M1564.31,-88.55C1420.6,-86.78 1067.53,-78.27 763.37,-36.05"/>
<polygon fill="black" stroke="black" points="763.42,-32.52 753.03,-34.6 762.45,-39.46 763.42,-32.52"/>
</g>
<!-- theory&#45;&gt;assumpTPCAV -->
<g id="edge21" class="edge">
<title>theory:eBalanceOnPCMRC&#45;&gt;assumpTPCAV</title>
<path fill="none" stroke="black" d="M1564.23,-88.41C1420.74,-86.35 1070.75,-77.13 780,-36 774.65,-35.24 769.11,-34.31 763.51,-33.27"/>
<polygon fill="black" stroke="black" points="763.87,-29.77 753.39,-31.3 762.53,-36.64 763.87,-29.77"/>
</g>
<!-- assumpDWPCoV -->
<g id="node8" class="node">
<title>assumpDWPCoV</title>
<polygon fill="mistyrose" stroke="black" points="1075.5,-36 926.5,-36 926.5,0 1075.5,0 1075.5,-36"/>
<text text-anchor="middle" x="1001" y="-14.3" font-family="Times,serif" font-size="14.00">A:assumpDWPCoV</text>
</g>
<!-- theory&#45;&gt;assumpDWPCoV -->
<g id="edge6" class="edge">
<title>theory:rocTempSimpRC&#45;&gt;assumpDWPCoV</title>
<path fill="none" stroke="black" d="M1564.17,-84.86C1463.2,-78.01 1263.91,-62.53 1085.68,-36.17"/>
<polygon fill="black" stroke="black" points="1086,-32.68 1075.59,-34.66 1084.96,-39.6 1086,-32.68"/>
</g>
<!-- assumpSHECov -->
<g id="node9" class="node">
<title>assumpSHECov</title>
<polygon fill="mistyrose" stroke="black" points="1238.5,-36 1093.5,-36 1093.5,0 1238.5,0 1238.5,-36"/>
<text text-anchor="middle" x="1166" y="-14.3" font-family="Times,serif" font-size="14.00">A:assumpSHECov</text>
</g>
<!-- theory&#45;&gt;assumpSHECov -->
<g id="edge7" class="edge">
<title>theory:rocTempSimpRC&#45;&gt;assumpSHECov</title>
<path fill="none" stroke="black" d="M1564.23,-81.23C1490.1,-72.16 1365.8,-56.05 1249.02,-36.11"/>
<polygon fill="black" stroke="black" points="1249.28,-32.61 1238.83,-34.36 1248.09,-39.51 1249.28,-32.61"/>
</g>
<!-- assumpLCCCW -->
<g id="node10" class="node">
<title>assumpLCCCW</title>
<polygon fill="mistyrose" stroke="black" points="1397,-36 1257,-36 1257,0 1397,0 1397,-36"/>
<text text-anchor="middle" x="1327" y="-14.3" font-family="Times,serif" font-size="14.00">A:assumpLCCCW</text>
</g>
<!-- theory&#45;&gt;assumpLCCCW -->
<g id="edge8" class="edge">
<title>theory:htFluxC&#45;&gt;assumpLCCCW</title>
<path fill="none" stroke="black" d="M1564.25,-73.81C1518.09,-63.15 1456.09,-48.82 1407.04,-37.49"/>
<polygon fill="black" stroke="black" points="1407.63,-34.04 1397.1,-35.2 1406.06,-40.86 1407.63,-34.04"/>
</g>
<!-- assumpTHCCoT -->
<g id="node11" class="node">
<title>assumpTHCCoT</title>
<polygon fill="mistyrose" stroke="black" points="291.5,-36 146.5,-36 146.5,0 291.5,0 291.5,-36"/>
<text text-anchor="middle" x="219" y="-14.3" font-family="Times,serif" font-size="14.00">A:assumpTHCCoT</text>
</g>
<!-- theory&#45;&gt;assumpTHCCoT -->
<g id="edge9" class="edge">
<title>theory:htFluxC&#45;&gt;assumpTHCCoT</title>
<path fill="none" stroke="black" d="M1564.13,-87.83C1334.4,-83.54 568.61,-67.27 301.8,-36.08"/>
<polygon fill="black" stroke="black" points="302.11,-32.59 291.76,-34.87 301.27,-39.54 302.11,-32.59"/>
</g>
<!-- assumpLCCWP -->
<g id="node12" class="node">
<title>assumpLCCWP</title>
<polygon fill="mistyrose" stroke="black" points="1555,-36 1415,-36 1415,0 1555,0 1555,-36"/>
<text text-anchor="middle" x="1485" y="-14.3" font-family="Times,serif" font-size="14.00">A:assumpLCCWP</text>
</g>
<!-- theory&#45;&gt;assumpLCCWP -->
<g id="edge10" class="edge">
<title>theory:htFluxP&#45;&gt;assumpLCCWP</title>
<path fill="none" stroke="black" d="M1594.53,-71.88C1574.88,-62.39 1550.28,-50.51 1529.37,-40.42"/>
<polygon fill="black" stroke="black" points="1530.88,-37.26 1520.36,-36.07 1527.84,-43.57 1530.88,-37.26"/>
</g>
<!-- assumpTHCCoL -->
<g id="node13" class="node">
<title>assumpTHCCoL</title>
<polygon fill="mistyrose" stroke="black" points="454.5,-36 309.5,-36 309.5,0 454.5,0 454.5,-36"/>
<text text-anchor="middle" x="382" y="-14.3" font-family="Times,serif" font-size="14.00">A:assumpTHCCoL</text>
</g>
<!-- theory&#45;&gt;assumpTHCCoL -->
<g id="edge13" class="edge">
<title>theory:eBalanceOnWtrRC&#45;&gt;assumpTHCCoL</title>
<path fill="none" stroke="black" d="M1564.27,-89.66C1387.68,-90.66 888.33,-88.33 464.77,-35.96"/>
<polygon fill="black" stroke="black" points="465.13,-32.48 454.78,-34.71 464.27,-39.43 465.13,-32.48"/>
</g>
<!-- assumpCTNOD -->
<g id="node14" class="node">
<title>assumpCTNOD</title>
<polygon fill="mistyrose" stroke="black" points="2887,-36 2747,-36 2747,0 2887,0 2887,-36"/>
<text text-anchor="middle" x="2817" y="-14.3" font-family="Times,serif" font-size="14.00">A:assumpCTNOD</text>
</g>
<!-- theory&#45;&gt;assumpCTNOD -->
<g id="edge14" class="edge">
<title>theory:eBalanceOnWtrRC&#45;&gt;assumpCTNOD</title>
<path fill="none" stroke="black" d="M1695.55,-86.42C1917.04,-77.62 2629.46,-48.65 2732,-36 2733.49,-35.82 2735,-35.62 2736.52,-35.41"/>
<polygon fill="black" stroke="black" points="2737.25,-38.84 2746.63,-33.92 2736.23,-31.92 2737.25,-38.84"/>
</g>
<!-- assumpSITWP -->
<g id="node15" class="node">
<title>assumpSITWP</title>
<polygon fill="mistyrose" stroke="black" points="2261,-36 2127,-36 2127,0 2261,0 2261,-36"/>
<text text-anchor="middle" x="2194" y="-14.3" font-family="Times,serif" font-size="14.00">A:assumpSITWP</text>
</g>
<!-- theory&#45;&gt;assumpSITWP -->
<g id="edge15" class="edge">
<title>theory:eBalanceOnWtrRC&#45;&gt;assumpSITWP</title>
<path fill="none" stroke="black" d="M1695.73,-83.73C1788.35,-76.14 1962.08,-60.33 2109,-36 2111.51,-35.58 2114.06,-35.14 2116.64,-34.67"/>
<polygon fill="black" stroke="black" points="2117.5,-38.07 2126.67,-32.75 2116.19,-31.19 2117.5,-38.07"/>
</g>
<!-- theory&#45;&gt;assumpSITWP -->
<g id="edge22" class="edge">
<title>theory:eBalanceOnPCMRC&#45;&gt;assumpSITWP</title>
<path fill="none" stroke="black" d="M1695.77,-84.66C1789.24,-77.64 1965.63,-62.09 2116.64,-37.69"/>
<polygon fill="black" stroke="black" points="2117.25,-41.14 2126.55,-36.07 2116.12,-34.23 2117.25,-41.14"/>
</g>
<!-- assumpWAL -->
<g id="node16" class="node">
<title>assumpWAL</title>
<polygon fill="mistyrose" stroke="black" points="2577,-36 2459,-36 2459,0 2577,0 2577,-36"/>
<text text-anchor="middle" x="2518" y="-14.3" font-family="Times,serif" font-size="14.00">A:assumpWAL</text>
</g>
<!-- theory&#45;&gt;assumpWAL -->
<g id="edge16" class="edge">
<title>theory:eBalanceOnWtrRC&#45;&gt;assumpWAL</title>
<path fill="none" stroke="black" d="M1695.73,-86.06C1862.11,-78.63 2296.45,-58.15 2440,-36 2442.86,-35.56 2445.77,-35.06 2448.71,-34.51"/>
<polygon fill="black" stroke="black" points="2449.67,-37.89 2458.78,-32.48 2448.28,-31.02 2449.67,-37.89"/>
</g>
<!-- theory&#45;&gt;assumpWAL -->
<g id="edge27" class="edge">
<title>theory:heatEInWtrIM&#45;&gt;assumpWAL</title>
<path fill="none" stroke="black" d="M1695.53,-86.44C1860.77,-79.52 2291.95,-59.47 2448.39,-37.41"/>
<polygon fill="black" stroke="black" points="2449.35,-40.81 2458.73,-35.89 2448.33,-33.88 2449.35,-40.81"/>
</g>
<!-- assumpPIT -->
<g id="node17" class="node">
<title>assumpPIT</title>
<polygon fill="mistyrose" stroke="black" points="3027,-36 2917,-36 2917,0 3027,0 3027,-36"/>
<text text-anchor="middle" x="2972" y="-14.3" font-family="Times,serif" font-size="14.00">A:assumpPIT</text>
</g>
<!-- theory&#45;&gt;assumpPIT -->
<g id="edge17" class="edge">
<title>theory:eBalanceOnWtrRC&#45;&gt;assumpPIT</title>
<path fill="none" stroke="black" d="M1695.79,-86.57C1947.2,-77.25 2836.12,-43.89 2896,-36 2899.63,-35.52 2903.35,-34.95 2907.08,-34.32"/>
<polygon fill="black" stroke="black" points="2907.79,-37.75 2917,-32.51 2906.53,-30.86 2907.79,-37.75"/>
</g>
<!-- assumpNIHGBWP -->
<g id="node18" class="node">
<title>assumpNIHGBWP</title>
<polygon fill="mistyrose" stroke="black" points="2440.5,-36 2279.5,-36 2279.5,0 2440.5,0 2440.5,-36"/>
<text text-anchor="middle" x="2360" y="-14.3" font-family="Times,serif" font-size="14.00">A:assumpNIHGBWP</text>
</g>
<!-- theory&#45;&gt;assumpNIHGBWP -->
<g id="edge18" class="edge">
<title>theory:eBalanceOnWtrRC&#45;&gt;assumpNIHGBWP</title>
<path fill="none" stroke="black" d="M1695.74,-85.52C1810.77,-79.2 2055.5,-63.84 2261,-36 2263.71,-35.63 2266.47,-35.24 2269.25,-34.82"/>
<polygon fill="black" stroke="black" points="2270.08,-38.23 2279.42,-33.22 2268.99,-31.32 2270.08,-38.23"/>
</g>
<!-- theory&#45;&gt;assumpNIHGBWP -->
<g id="edge24" class="edge">
<title>theory:eBalanceOnPCMRC&#45;&gt;assumpNIHGBWP</title>
<path fill="none" stroke="black" d="M1695.89,-86.08C1811.76,-80.23 2059.26,-65.18 2269.49,-37.27"/>
<polygon fill="black" stroke="black" points="2270.03,-40.73 2279.47,-35.94 2269.1,-33.8 2270.03,-40.73"/>
</g>
<!-- assumpAPT -->
<g id="node19" class="node">
<title>assumpAPT</title>
<polygon fill="mistyrose" stroke="black" points="1687,-36 1573,-36 1573,0 1687,0 1687,-36"/>
<text text-anchor="middle" x="1630" y="-14.3" font-family="Times,serif" font-size="14.00">A:assumpAPT</text>
</g>
<!-- theory&#45;&gt;assumpAPT -->
<g id="edge19" class="edge">
<title>theory:eBalanceOnWtrRC&#45;&gt;assumpAPT</title>
<path fill="none" stroke="black" d="M1624.08,-71.7C1623.29,-63.98 1623.06,-54.71 1623.4,-46.11"/>
<polygon fill="black" stroke="black" points="1626.9,-46.32 1624.1,-36.1 1619.92,-45.84 1626.9,-46.32"/>
</g>
<!-- theory&#45;&gt;assumpAPT -->
<g id="edge28" class="edge">
<title>theory:heatEInWtrIM&#45;&gt;assumpAPT</title>
<path fill="none" stroke="black" d="M1635.92,-71.7C1636.71,-63.98 1636.94,-54.71 1636.6,-46.11"/>
<polygon fill="black" stroke="black" points="1640.08,-45.84 1635.9,-36.1 1633.1,-46.32 1640.08,-45.84"/>
</g>
<!-- assumpPIS -->
<g id="node20" class="node">
<title>assumpPIS</title>
<polygon fill="mistyrose" stroke="black" points="1815,-36 1705,-36 1705,0 1815,0 1815,-36"/>
<text text-anchor="middle" x="1760" y="-14.3" font-family="Times,serif" font-size="14.00">A:assumpPIS</text>
</g>
<!-- theory&#45;&gt;assumpPIS -->
<g id="edge23" class="edge">
<title>theory:eBalanceOnPCMRC&#45;&gt;assumpPIS</title>
<path fill="none" stroke="black" d="M1655.9,-71.88C1672.32,-62.51 1693.91,-50.81 1713.2,-40.8"/>
<polygon fill="black" stroke="black" points="1714.88,-43.88 1722.17,-36.19 1711.68,-37.65 1714.88,-43.88"/>
</g>
<!-- theory&#45;&gt;assumpPIS -->
<g id="edge29" class="edge">
<title>theory:heatEInPCMRC&#45;&gt;assumpPIS</title>
<path fill="none" stroke="black" d="M1667.7,-71.88C1685.82,-62.64 1707.34,-51.13 1725.08,-41.21"/>
<polygon fill="black" stroke="black" points="1726.99,-44.15 1733.98,-36.19 1723.55,-38.06 1726.99,-44.15"/>
</g>
<!-- assumpVCMPN -->
<g id="node21" class="node">
<title>assumpVCMPN</title>
<polygon fill="mistyrose" stroke="black" points="1975,-36 1833,-36 1833,0 1975,0 1975,-36"/>
<text text-anchor="middle" x="1904" y="-14.3" font-family="Times,serif" font-size="14.00">A:assumpVCMPN</text>
</g>
<!-- theory&#45;&gt;assumpVCMPN -->
<g id="edge25" class="edge">
<title>theory:eBalanceOnPCMRC&#45;&gt;assumpVCMPN</title>
<path fill="none" stroke="black" d="M1695.63,-72.23C1735.2,-62.12 1785.8,-49.2 1827.23,-38.61"/>
<polygon fill="black" stroke="black" points="1828.18,-41.98 1837,-36.12 1826.45,-35.2 1828.18,-41.98"/>
</g>
<!-- assumpNGSP -->
<g id="node22" class="node">
<title>assumpNGSP</title>
<polygon fill="mistyrose" stroke="black" points="2723,-36 2595,-36 2595,0 2723,0 2723,-36"/>
<text text-anchor="middle" x="2659" y="-14.3" font-family="Times,serif" font-size="14.00">A:assumpNGSP</text>
</g>
<!-- theory&#45;&gt;assumpNGSP -->
<g id="edge26" class="edge">
<title>theory:eBalanceOnPCMRC&#45;&gt;assumpNGSP</title>
<path fill="none" stroke="black" d="M1695.67,-86.7C1881.09,-80.19 2405.76,-60.5 2577,-36 2579.63,-35.62 2582.3,-35.2 2584.99,-34.74"/>
<polygon fill="black" stroke="black" points="2585.64,-38.18 2594.84,-32.92 2584.37,-31.3 2585.64,-38.18"/>
</g>
<!-- theory&#45;&gt;assumpNGSP -->
<g id="edge30" class="edge">
<title>theory:heatEInPCMRC&#45;&gt;assumpNGSP</title>
<path fill="none" stroke="black" d="M1695.77,-86.98C1880.31,-80.88 2400.96,-61.6 2584.69,-37.41"/>
<polygon fill="black" stroke="black" points="2585.31,-40.86 2594.75,-36.04 2584.36,-33.93 2585.31,-40.86"/>
</g>
<!-- likeChgUTP -->
<g id="node23" class="node">
<title>likeChgUTP</title>
<polygon fill="lavender" stroke="black" points="748.5,-108 623.5,-108 623.5,-72 748.5,-72 748.5,-108"/>
<text text-anchor="middle" x="686" y="-86.3" font-family="Times,serif" font-size="14.00">LC:likeChgUTP</text>
</g>
<!-- likeChgUTP&#45;&gt;assumpTPCAV -->
<g id="edge31" class="edge">
<title>likeChgUTP&#45;&gt;assumpTPCAV</title>
<path fill="none" stroke="black" d="M686,-71.7C686,-63.98 686,-54.71 686,-46.11"/>
<polygon fill="black" stroke="black" points="689.5,-46.1 686,-36.1 682.5,-46.1 689.5,-46.1"/>
</g>
<!-- likeChgTCVOD -->
<g id="node24" class="node">
<title>likeChgTCVOD</title>
<polygon fill="lavender" stroke="black" points="292,-108 146,-108 146,-72 292,-72 292,-108"/>
<text text-anchor="middle" x="219" y="-86.3" font-family="Times,serif" font-size="14.00">LC:likeChgTCVOD</text>
</g>
<!-- likeChgTCVOD&#45;&gt;assumpTHCCoT -->
<g id="edge32" class="edge">
<title>likeChgTCVOD&#45;&gt;assumpTHCCoT</title>
<path fill="none" stroke="black" d="M219,-71.7C219,-63.98 219,-54.71 219,-46.11"/>
<polygon fill="black" stroke="black" points="222.5,-46.1 219,-36.1 215.5,-46.1 222.5,-46.1"/>
</g>
<!-- likeChgTCVOL -->
<g id="node25" class="node">
<title>likeChgTCVOL</title>
<polygon fill="lavender" stroke="black" points="454,-108 310,-108 310,-72 454,-72 454,-108"/>
<text text-anchor="middle" x="382" y="-86.3" font-family="Times,serif" font-size="14.00">LC:likeChgTCVOL</text>
</g>
<!-- likeChgTCVOL&#45;&gt;assumpTHCCoL -->
<g id="edge33" class="edge">
<title>likeChgTCVOL&#45;&gt;assumpTHCCoL</title>
<path fill="none" stroke="black" d="M382,-71.7C382,-63.98 382,-54.71 382,-46.11"/>
<polygon fill="black" stroke="black" points="385.5,-46.1 382,-36.1 378.5,-46.1 385.5,-46.1"/>
</g>
<!-- likeChgDT -->
<g id="node26" class="node">
<title>likeChgDT</title>
<polygon fill="lavender" stroke="black" points="2897.5,-108 2782.5,-108 2782.5,-72 2897.5,-72 2897.5,-108"/>
<text text-anchor="middle" x="2840" y="-86.3" font-family="Times,serif" font-size="14.00">LC:likeChgDT</text>
</g>
<!-- likeChgDT&#45;&gt;assumpCTNOD -->
<g id="edge34" class="edge">
<title>likeChgDT&#45;&gt;assumpCTNOD</title>
<path fill="none" stroke="black" d="M2834.31,-71.7C2831.75,-63.9 2828.67,-54.51 2825.82,-45.83"/>
<polygon fill="black" stroke="black" points="2829.07,-44.51 2822.62,-36.1 2822.42,-46.7 2829.07,-44.51"/>
</g>
<!-- likeChgDITPW -->
<g id="node27" class="node">
<title>likeChgDITPW</title>
<polygon fill="lavender" stroke="black" points="2246,-108 2102,-108 2102,-72 2246,-72 2246,-108"/>
<text text-anchor="middle" x="2174" y="-86.3" font-family="Times,serif" font-size="14.00">LC:likeChgDITPW</text>
</g>
<!-- likeChgDITPW&#45;&gt;assumpSITWP -->
<g id="edge35" class="edge">
<title>likeChgDITPW&#45;&gt;assumpSITWP</title>
<path fill="none" stroke="black" d="M2178.94,-71.7C2181.17,-63.9 2183.85,-54.51 2186.33,-45.83"/>
<polygon fill="black" stroke="black" points="2189.73,-46.68 2189.11,-36.1 2183,-44.76 2189.73,-46.68"/>
</g>
<!-- likeChgTLH -->
<g id="node28" class="node">
<title>likeChgTLH</title>
<polygon fill="lavender" stroke="black" points="3040.5,-108 2915.5,-108 2915.5,-72 3040.5,-72 3040.5,-108"/>
<text text-anchor="middle" x="2978" y="-86.3" font-family="Times,serif" font-size="14.00">LC:likeChgTLH</text>
</g>
<!-- likeChgTLH&#45;&gt;assumpPIT -->
<g id="edge36" class="edge">
<title>likeChgTLH&#45;&gt;assumpPIT</title>
<path fill="none" stroke="black" d="M2976.52,-71.7C2975.86,-63.98 2975.06,-54.71 2974.32,-46.11"/>
<polygon fill="black" stroke="black" points="2977.81,-45.77 2973.47,-36.1 2970.83,-46.37 2977.81,-45.77"/>
</g>
<!-- unlikeChgWPFS -->
<g id="node29" class="node">
<title>unlikeChgWPFS</title>
<polygon fill="lavender" stroke="black" points="2597.5,-108 2438.5,-108 2438.5,-72 2597.5,-72 2597.5,-108"/>
<text text-anchor="middle" x="2518" y="-86.3" font-family="Times,serif" font-size="14.00">UC:unlikeChgWPFS</text>
</g>
<!-- unlikeChgWPFS&#45;&gt;assumpWAL -->
<g id="edge37" class="edge">
<title>unlikeChgWPFS&#45;&gt;assumpWAL</title>
<path fill="none" stroke="black" d="M2518,-71.7C2518,-63.98 2518,-54.71 2518,-46.11"/>
<polygon fill="black" stroke="black" points="2521.5,-46.1 2518,-36.1 2514.5,-46.1 2521.5,-46.1"/>
</g>
<!-- unlikeChgWPFS&#45;&gt;assumpNGSP -->
<g id="edge38" class="edge">
<title>unlikeChgWPFS&#45;&gt;assumpNGSP</title>
<path fill="none" stroke="black" d="M2552.49,-71.88C2571.44,-62.47 2595.13,-50.71 2615.36,-40.67"/>
<polygon fill="black" stroke="black" points="2616.97,-43.77 2624.37,-36.19 2613.86,-37.5 2616.97,-43.77"/>
</g>
<!-- unlikeChgNIHG -->
<g id="node30" class="node">
<title>unlikeChgNIHG</title>
<polygon fill="lavender" stroke="black" points="2420,-108 2264,-108 2264,-72 2420,-72 2420,-108"/>
<text text-anchor="middle" x="2342" y="-86.3" font-family="Times,serif" font-size="14.00">UC:unlikeChgNIHG</text>
</g>
<!-- unlikeChgNIHG&#45;&gt;assumpNIHGBWP -->
<g id="edge39" class="edge">
<title>unlikeChgNIHG&#45;&gt;assumpNIHGBWP</title>
<path fill="none" stroke="black" d="M2346.45,-71.7C2348.45,-63.9 2350.87,-54.51 2353.1,-45.83"/>
<polygon fill="black" stroke="black" points="2356.5,-46.66 2355.6,-36.1 2349.72,-44.92 2356.5,-46.66"/>
</g>
<!-- unlikeChgNGS -->
<g id="node31" class="node">
<title>unlikeChgNGS</title>
<polygon fill="lavender" stroke="black" points="2764.5,-108 2615.5,-108 2615.5,-72 2764.5,-72 2764.5,-108"/>
<text text-anchor="middle" x="2690" y="-86.3" font-family="Times,serif" font-size="14.00">UC:unlikeChgNGS</text>
</g>
<!-- unlikeChgNGS&#45;&gt;assumpNGSP -->
<g id="edge40" class="edge">
<title>unlikeChgNGS&#45;&gt;assumpNGSP</title>
<path fill="none" stroke="black" d="M2682.34,-71.7C2678.81,-63.73 2674.54,-54.1 2670.63,-45.26"/>
<polygon fill="black" stroke="black" points="2673.82,-43.83 2666.57,-36.1 2667.42,-46.67 2673.82,-43.83"/>
</g>
<!-- inputValues -->
<g id="node32" class="node">
<title>inputValues</title>
<polygon fill="ivory" stroke="black" points="3183.5,-108 3058.5,-108 3058.5,-72 3183.5,-72 3183.5,-108"/>
<text text-anchor="middle" x="3121" y="-86.3" font-family="Times,serif" font-size="14.00">FR:inputValues</text>
</g>
<!-- findMass -->
<g id="node33" class="node">
<title>findMass</title>
<polygon fill="ivory" stroke="black" points="3308,-108 3202,-108 3202,-72 3308,-72 3308,-108"/>
<text text-anchor="middle" x="3255" y="-86.3" font-family="Times,serif" font-size="14.00">FR:findMass</text>
</g>
<!-- checkWithPhysConsts -->
<g id="node34" class="node">
<title>checkWithPhysConsts</title>
<polygon fill="ivory" stroke="black" points="3525.5,-108 3326.5,-108 3326.5,-72 3525.5,-72 3525.5,-108"/>
<text text-anchor="middle" x="3426" y="-86.3" font-family="Times,serif" font-size="14.00">FR:checkWithPhysConsts</text>
</g>
<!-- outputInputDerivVals -->
<g id="node35" class="node">
<title>outputInputDerivVals</title>
<polygon fill="ivory" stroke="black" points="3738.5,-108 3543.5,-108 3543.5,-72 3738.5,-72 3738.5,-108"/>
<text text-anchor="middle" x="3641" y="-86.3" font-family="Times,serif" font-size="14.00">FR:outputInputDerivVals</text>
</g>
<!-- calcValues -->
<g id="node36" class="node">
<title>calcValues</title>
<polygon fill="ivory" stroke="black" points="3872,-108 3756,-108 3756,-72 3872,-72 3872,-108"/>
<text text-anchor="middle" x="3814" y="-86.3" font-family="Times,serif" font-size="14.00">FR:calcValues</text>
</g>
<!-- verifyEnergyOutput -->
<g id="node37" class="node">
<title>verifyEnergyOutput</title>
<polygon fill="ivory" stroke="black" points="4075.5,-108 3890.5,-108 3890.5,-72 4075.5,-72 4075.5,-108"/>
<text text-anchor="middle" x="3983" y="-86.3" font-family="Times,serif" font-size="14.00">FR:verifyEnergyOutput</text>
</g>
<!-- calcPCMMeltBegin -->
<g id="node38" class="node">
<title>calcPCMMeltBegin</title>
<polygon fill="ivory" stroke="black" points="4271,-108 4093,-108 4093,-72 4271,-72 4271,-108"/>
<text text-anchor="middle" x="4182" y="-86.3" font-family="Times,serif" font-size="14.00">FR:calcPCMMeltBegin</text>
</g>
<!-- calcPCMMeltEnd -->
<g id="node39" class="node">
<title>calcPCMMeltEnd</title>
<polygon fill="ivory" stroke="black" points="4454.5,-108 4289.5,-108 4289.5,-72 4454.5,-72 4454.5,-108"/>
<text text-anchor="middle" x="4372" y="-86.3" font-family="Times,serif" font-size="14.00">FR:calcPCMMeltEnd</text>
</g>
<!-- outputValues -->
<g id="node40" class="node">
<title>outputValues</title>
<polygon fill="ivory" stroke="black" points="4607.5,-108 4472.5,-108 4472.5,-72 4607.5,-72 4607.5,-108"/>
<text text-anchor="middle" x="4540" y="-86.3" font-family="Times,serif" font-size="14.00">FR:outputValues</text>
</g>
<!-- correct -->
<g id="node41" class="node">
<title>correct</title>
<polygon fill="ivory" stroke="black" points="4730,-108 4626,-108 4626,-72 4730,-72 4730,-108"/>
<text text-anchor="middle" x="4678" y="-86.3" font-family="Times,serif" font-size="14.00">NFR:correct</text>
</g>
<!-- verifiable -->
<g id="node42" class="node">
<title>verifiable</title>
<polygon fill="ivory" stroke="black" points="4868,-108 4748,-108 4748,-72 4868,-72 4868,-108"/>
<text text-anchor="middle" x="4808" y="-86.3" font-family="Times,serif" font-size="14.00">NFR:verifiable</text>
</g>
<!-- understandable -->
<g id="node43" class="node">
<title>understandable</title>
<polygon fill="ivory" stroke="black" points="5051.5,-108 4886.5,-108 4886.5,-72 5051.5,-72 5051.5,-108"/>
<text text-anchor="middle" x="4969" y="-86.3" font-family="Times,serif" font-size="14.00">NFR:understandable</text>
</g>
<!-- reusable -->
<g id="node44" class="node">
<title>reusable</title>
<polygon fill="ivory" stroke="black" points="5184.5,-108 5069.5,-108 5069.5,-72 5184.5,-72 5184.5,-108"/>
<text text-anchor="middle" x="5127" y="-86.3" font-family="Times,serif" font-size="14.00">NFR:reusable</text>
</g>
<!-- maintainable -->
<g id="node45" class="node">
<title>maintainable</title>
<polygon fill="ivory" stroke="black" points="5349,-108 5203,-108 5203,-72 5349,-72 5349,-108"/>
<text text-anchor="middle" x="5276" y="-86.3" font-family="Times,serif" font-size="14.00">NFR:maintainable</text>
</g>
</g>
</svg>
