<?xml version="1.0" encoding="UTF-8" standalone="no"?>
<!DOCTYPE svg PUBLIC "-//W3C//DTD SVG 1.1//EN"
 "http://www.w3.org/Graphics/SVG/1.1/DTD/svg11.dtd">
<!-- Generated by graphviz version 2.43.0 (0)
 -->
<!-- Title: avsall Pages: 1 -->
<svg width="6856pt" height="126pt"
 viewBox="0.00 0.00 6856.00 125.76" xmlns="http://www.w3.org/2000/svg" xmlns:xlink="http://www.w3.org/1999/xlink">
<g id="graph0" class="graph" transform="scale(1 1) rotate(0) translate(4 121.76)">
<title>avsall</title>
<polygon fill="white" stroke="transparent" points="-4,4 -4,-121.76 6852,-121.76 6852,4 -4,4"/>
<!-- wVol -->
<g id="node1" class="node">
<title>wVol</title>
<polygon fill="#bbffff" stroke="black" points="172,-108 0,-108 0,-72 172,-72 172,-108"/>
<text text-anchor="middle" x="86" y="-86.3" font-family="Times,serif" font-size="14.00">DD:waterVolume.pcm</text>
</g>
<!-- assumpVCN -->
<g id="node2" class="node">
<title>assumpVCN</title>
<polygon fill="mistyrose" stroke="black" points="145,-36 27,-36 27,0 145,0 145,-36"/>
<text text-anchor="middle" x="86" y="-14.3" font-family="Times,serif" font-size="14.00">A:assumpVCN</text>
</g>
<!-- wVol&#45;&gt;assumpVCN -->
<g id="edge1" class="edge">
<title>wVol&#45;&gt;assumpVCN</title>
<path fill="none" stroke="black" d="M86,-71.7C86,-63.98 86,-54.71 86,-46.11"/>
<polygon fill="black" stroke="black" points="89.5,-46.1 86,-36.1 82.5,-46.1 89.5,-46.1"/>
</g>
<!-- theory -->
<g id="node3" class="node">
<title>theory</title>
<polygon fill="#fff68f" stroke="black" points="1739.5,-108 1608.5,-108 1608.5,-72 1739.5,-72 1739.5,-108"/>
<text text-anchor="middle" x="1674" y="-86.3" font-family="Times,serif" font-size="14.00">IM:heatEInPCM</text>
</g>
<!-- assumpTEO -->
<g id="node4" class="node">
<title>assumpTEO</title>
<polygon fill="mistyrose" stroke="black" points="2153,-36 2037,-36 2037,0 2153,0 2153,-36"/>
<text text-anchor="middle" x="2095" y="-14.3" font-family="Times,serif" font-size="14.00">A:assumpTEO</text>
</g>
<!-- theory&#45;&gt;assumpTEO -->
<g id="edge2" class="edge">
<title>theory:consThermECS&#45;&gt;assumpTEO</title>
<path fill="none" stroke="black" d="M1739.59,-81.17C1808.75,-72.47 1921.03,-57.07 2027.07,-36.08"/>
<polygon fill="black" stroke="black" points="2027.86,-39.49 2036.98,-34.1 2026.48,-32.63 2027.86,-39.49"/>
</g>
<!-- assumpHTCC -->
<g id="node5" class="node">
<title>assumpHTCC</title>
<polygon fill="mistyrose" stroke="black" points="645,-36 517,-36 517,0 645,0 645,-36"/>
<text text-anchor="middle" x="581" y="-14.3" font-family="Times,serif" font-size="14.00">A:assumpHTCC</text>
</g>
<!-- theory&#45;&gt;assumpHTCC -->
<g id="edge3" class="edge">
<title>theory:nwtnCoolingTM&#45;&gt;assumpHTCC</title>
<path fill="none" stroke="black" d="M1608,-109C1571.81,-145.19 769.52,-51.49 655.42,-35.99"/>
<polygon fill="black" stroke="black" points="655.78,-32.5 645.38,-34.55 654.79,-39.43 655.78,-32.5"/>
</g>
<!-- assumpCWTAT -->
<g id="node6" class="node">
<title>assumpCWTAT</title>
<polygon fill="mistyrose" stroke="black" points="952.5,-36 815.5,-36 815.5,0 952.5,0 952.5,-36"/>
<text text-anchor="middle" x="884" y="-14.3" font-family="Times,serif" font-size="14.00">A:assumpCWTAT</text>
</g>
<!-- theory&#45;&gt;assumpCWTAT -->
<g id="edge4" class="edge">
<title>theory:rocTempSimpRC&#45;&gt;assumpCWTAT</title>
<path fill="none" stroke="black" d="M1608.07,-87.55C1480.79,-83.9 1194.12,-71.99 953.34,-37.5"/>
<polygon fill="black" stroke="black" points="953.75,-34.02 943.36,-36.05 952.75,-40.95 953.75,-34.02"/>
</g>
<!-- theory&#45;&gt;assumpCWTAT -->
<g id="edge11" class="edge">
<title>theory:eBalanceOnWtrRC&#45;&gt;assumpCWTAT</title>
<path fill="none" stroke="black" d="M1608.28,-87.26C1483.9,-83.27 1205.47,-71.09 962.83,-36.16"/>
<polygon fill="black" stroke="black" points="963.16,-32.67 952.76,-34.69 962.15,-39.6 963.16,-32.67"/>
</g>
<!-- theory&#45;&gt;assumpCWTAT -->
<g id="edge20" class="edge">
<title>theory:eBalanceOnPCMRC&#45;&gt;assumpCWTAT</title>
<path fill="none" stroke="black" d="M1608.06,-86.89C1483.98,-82.49 1208.96,-69.76 979,-36 973.75,-35.23 968.33,-34.3 962.84,-33.28"/>
<polygon fill="black" stroke="black" points="963.4,-29.83 952.91,-31.37 962.07,-36.7 963.4,-29.83"/>
</g>
<!-- assumpTPCAV -->
<g id="node7" class="node">
<title>assumpTPCAV</title>
<polygon fill="mistyrose" stroke="black" points="797,-36 663,-36 663,0 797,0 797,-36"/>
<text text-anchor="middle" x="730" y="-14.3" font-family="Times,serif" font-size="14.00">A:assumpTPCAV</text>
</g>
<!-- theory&#45;&gt;assumpTPCAV -->
<g id="edge5" class="edge">
<title>theory:rocTempSimpRC&#45;&gt;assumpTPCAV</title>
<path fill="none" stroke="black" d="M1608.33,-88.65C1462.09,-87.14 1100.44,-79.17 798.7,-37.5"/>
<polygon fill="black" stroke="black" points="798.83,-33.98 788.45,-36.06 797.86,-40.91 798.83,-33.98"/>
</g>
<!-- theory&#45;&gt;assumpTPCAV -->
<g id="edge12" class="edge">
<title>theory:eBalanceOnWtrRC&#45;&gt;assumpTPCAV</title>
<path fill="none" stroke="black" d="M1608.31,-88.55C1464.6,-86.78 1111.53,-78.27 807.37,-36.05"/>
<polygon fill="black" stroke="black" points="807.42,-32.52 797.03,-34.6 806.45,-39.46 807.42,-32.52"/>
</g>
<!-- theory&#45;&gt;assumpTPCAV -->
<g id="edge21" class="edge">
<title>theory:eBalanceOnPCMRC&#45;&gt;assumpTPCAV</title>
<path fill="none" stroke="black" d="M1608.23,-88.41C1464.74,-86.35 1114.75,-77.13 824,-36 818.65,-35.24 813.11,-34.31 807.51,-33.27"/>
<polygon fill="black" stroke="black" points="807.87,-29.77 797.39,-31.3 806.53,-36.64 807.87,-29.77"/>
</g>
<!-- assumpDWPCoV -->
<g id="node8" class="node">
<title>assumpDWPCoV</title>
<polygon fill="mistyrose" stroke="black" points="1119.5,-36 970.5,-36 970.5,0 1119.5,0 1119.5,-36"/>
<text text-anchor="middle" x="1045" y="-14.3" font-family="Times,serif" font-size="14.00">A:assumpDWPCoV</text>
</g>
<!-- theory&#45;&gt;assumpDWPCoV -->
<g id="edge6" class="edge">
<title>theory:rocTempSimpRC&#45;&gt;assumpDWPCoV</title>
<path fill="none" stroke="black" d="M1608.17,-84.86C1507.2,-78.01 1307.91,-62.53 1129.68,-36.17"/>
<polygon fill="black" stroke="black" points="1130,-32.68 1119.59,-34.66 1128.96,-39.6 1130,-32.68"/>
</g>
<!-- assumpSHECov -->
<g id="node9" class="node">
<title>assumpSHECov</title>
<polygon fill="mistyrose" stroke="black" points="1282.5,-36 1137.5,-36 1137.5,0 1282.5,0 1282.5,-36"/>
<text text-anchor="middle" x="1210" y="-14.3" font-family="Times,serif" font-size="14.00">A:assumpSHECov</text>
</g>
<!-- theory&#45;&gt;assumpSHECov -->
<g id="edge7" class="edge">
<title>theory:rocTempSimpRC&#45;&gt;assumpSHECov</title>
<path fill="none" stroke="black" d="M1608.23,-81.23C1534.1,-72.16 1409.8,-56.05 1293.02,-36.11"/>
<polygon fill="black" stroke="black" points="1293.28,-32.61 1282.83,-34.36 1292.09,-39.51 1293.28,-32.61"/>
</g>
<!-- assumpLCCCW -->
<g id="node10" class="node">
<title>assumpLCCCW</title>
<polygon fill="mistyrose" stroke="black" points="1441,-36 1301,-36 1301,0 1441,0 1441,-36"/>
<text text-anchor="middle" x="1371" y="-14.3" font-family="Times,serif" font-size="14.00">A:assumpLCCCW</text>
</g>
<!-- theory&#45;&gt;assumpLCCCW -->
<g id="edge8" class="edge">
<title>theory:htFluxC&#45;&gt;assumpLCCCW</title>
<path fill="none" stroke="black" d="M1608.25,-73.81C1562.09,-63.15 1500.09,-48.82 1451.04,-37.49"/>
<polygon fill="black" stroke="black" points="1451.63,-34.04 1441.1,-35.2 1450.06,-40.86 1451.63,-34.04"/>
</g>
<!-- assumpTHCCoT -->
<g id="node11" class="node">
<title>assumpTHCCoT</title>
<polygon fill="mistyrose" stroke="black" points="335.5,-36 190.5,-36 190.5,0 335.5,0 335.5,-36"/>
<text text-anchor="middle" x="263" y="-14.3" font-family="Times,serif" font-size="14.00">A:assumpTHCCoT</text>
</g>
<!-- theory&#45;&gt;assumpTHCCoT -->
<g id="edge9" class="edge">
<title>theory:htFluxC&#45;&gt;assumpTHCCoT</title>
<path fill="none" stroke="black" d="M1608.13,-87.83C1378.4,-83.54 612.61,-67.27 345.8,-36.08"/>
<polygon fill="black" stroke="black" points="346.11,-32.59 335.76,-34.87 345.27,-39.54 346.11,-32.59"/>
</g>
<!-- assumpLCCWP -->
<g id="node12" class="node">
<title>assumpLCCWP</title>
<polygon fill="mistyrose" stroke="black" points="1599,-36 1459,-36 1459,0 1599,0 1599,-36"/>
<text text-anchor="middle" x="1529" y="-14.3" font-family="Times,serif" font-size="14.00">A:assumpLCCWP</text>
</g>
<!-- theory&#45;&gt;assumpLCCWP -->
<g id="edge10" class="edge">
<title>theory:htFluxP&#45;&gt;assumpLCCWP</title>
<path fill="none" stroke="black" d="M1638.53,-71.88C1618.88,-62.39 1594.28,-50.51 1573.37,-40.42"/>
<polygon fill="black" stroke="black" points="1574.88,-37.26 1564.36,-36.07 1571.84,-43.57 1574.88,-37.26"/>
</g>
<!-- assumpTHCCoL -->
<g id="node13" class="node">
<title>assumpTHCCoL</title>
<polygon fill="mistyrose" stroke="black" points="498.5,-36 353.5,-36 353.5,0 498.5,0 498.5,-36"/>
<text text-anchor="middle" x="426" y="-14.3" font-family="Times,serif" font-size="14.00">A:assumpTHCCoL</text>
</g>
<!-- theory&#45;&gt;assumpTHCCoL -->
<g id="edge13" class="edge">
<title>theory:eBalanceOnWtrRC&#45;&gt;assumpTHCCoL</title>
<path fill="none" stroke="black" d="M1608.27,-89.66C1431.68,-90.66 932.33,-88.33 508.77,-35.96"/>
<polygon fill="black" stroke="black" points="509.13,-32.48 498.78,-34.71 508.27,-39.43 509.13,-32.48"/>
</g>
<!-- assumpCTNOD -->
<g id="node14" class="node">
<title>assumpCTNOD</title>
<polygon fill="mistyrose" stroke="black" points="2931,-36 2791,-36 2791,0 2931,0 2931,-36"/>
<text text-anchor="middle" x="2861" y="-14.3" font-family="Times,serif" font-size="14.00">A:assumpCTNOD</text>
</g>
<!-- theory&#45;&gt;assumpCTNOD -->
<g id="edge14" class="edge">
<title>theory:eBalanceOnWtrRC&#45;&gt;assumpCTNOD</title>
<path fill="none" stroke="black" d="M1739.55,-86.42C1961.04,-77.62 2673.46,-48.65 2776,-36 2777.49,-35.82 2779,-35.62 2780.52,-35.41"/>
<polygon fill="black" stroke="black" points="2781.25,-38.84 2790.63,-33.92 2780.23,-31.92 2781.25,-38.84"/>
</g>
<!-- assumpSITWP -->
<g id="node15" class="node">
<title>assumpSITWP</title>
<polygon fill="mistyrose" stroke="black" points="2305,-36 2171,-36 2171,0 2305,0 2305,-36"/>
<text text-anchor="middle" x="2238" y="-14.3" font-family="Times,serif" font-size="14.00">A:assumpSITWP</text>
</g>
<!-- theory&#45;&gt;assumpSITWP -->
<g id="edge15" class="edge">
<title>theory:eBalanceOnWtrRC&#45;&gt;assumpSITWP</title>
<path fill="none" stroke="black" d="M1739.73,-83.73C1832.35,-76.14 2006.08,-60.33 2153,-36 2155.51,-35.58 2158.06,-35.14 2160.64,-34.67"/>
<polygon fill="black" stroke="black" points="2161.5,-38.07 2170.67,-32.75 2160.19,-31.19 2161.5,-38.07"/>
</g>
<!-- theory&#45;&gt;assumpSITWP -->
<g id="edge22" class="edge">
<title>theory:eBalanceOnPCMRC&#45;&gt;assumpSITWP</title>
<path fill="none" stroke="black" d="M1739.77,-84.66C1833.24,-77.64 2009.63,-62.09 2160.64,-37.69"/>
<polygon fill="black" stroke="black" points="2161.25,-41.14 2170.55,-36.07 2160.12,-34.23 2161.25,-41.14"/>
</g>
<!-- assumpWAL -->
<g id="node16" class="node">
<title>assumpWAL</title>
<polygon fill="mistyrose" stroke="black" points="2621,-36 2503,-36 2503,0 2621,0 2621,-36"/>
<text text-anchor="middle" x="2562" y="-14.3" font-family="Times,serif" font-size="14.00">A:assumpWAL</text>
</g>
<!-- theory&#45;&gt;assumpWAL -->
<g id="edge16" class="edge">
<title>theory:eBalanceOnWtrRC&#45;&gt;assumpWAL</title>
<path fill="none" stroke="black" d="M1739.73,-86.06C1906.11,-78.63 2340.45,-58.15 2484,-36 2486.86,-35.56 2489.77,-35.06 2492.71,-34.51"/>
<polygon fill="black" stroke="black" points="2493.67,-37.89 2502.78,-32.48 2492.28,-31.02 2493.67,-37.89"/>
</g>
<!-- theory&#45;&gt;assumpWAL -->
<g id="edge27" class="edge">
<title>theory:heatEInWtrIM&#45;&gt;assumpWAL</title>
<path fill="none" stroke="black" d="M1739.53,-86.44C1904.77,-79.52 2335.95,-59.47 2492.39,-37.41"/>
<polygon fill="black" stroke="black" points="2493.35,-40.81 2502.73,-35.89 2492.33,-33.88 2493.35,-40.81"/>
</g>
<!-- assumpPIT -->
<g id="node17" class="node">
<title>assumpPIT</title>
<polygon fill="mistyrose" stroke="black" points="3071,-36 2961,-36 2961,0 3071,0 3071,-36"/>
<text text-anchor="middle" x="3016" y="-14.3" font-family="Times,serif" font-size="14.00">A:assumpPIT</text>
</g>
<!-- theory&#45;&gt;assumpPIT -->
<g id="edge17" class="edge">
<title>theory:eBalanceOnWtrRC&#45;&gt;assumpPIT</title>
<path fill="none" stroke="black" d="M1739.79,-86.57C1991.2,-77.25 2880.12,-43.89 2940,-36 2943.63,-35.52 2947.35,-34.95 2951.08,-34.32"/>
<polygon fill="black" stroke="black" points="2951.79,-37.75 2961,-32.51 2950.53,-30.86 2951.79,-37.75"/>
</g>
<!-- assumpNIHGBWP -->
<g id="node18" class="node">
<title>assumpNIHGBWP</title>
<polygon fill="mistyrose" stroke="black" points="2484.5,-36 2323.5,-36 2323.5,0 2484.5,0 2484.5,-36"/>
<text text-anchor="middle" x="2404" y="-14.3" font-family="Times,serif" font-size="14.00">A:assumpNIHGBWP</text>
</g>
<!-- theory&#45;&gt;assumpNIHGBWP -->
<g id="edge18" class="edge">
<title>theory:eBalanceOnWtrRC&#45;&gt;assumpNIHGBWP</title>
<path fill="none" stroke="black" d="M1739.74,-85.52C1854.77,-79.2 2099.5,-63.84 2305,-36 2307.71,-35.63 2310.47,-35.24 2313.25,-34.82"/>
<polygon fill="black" stroke="black" points="2314.08,-38.23 2323.42,-33.22 2312.99,-31.32 2314.08,-38.23"/>
</g>
<!-- theory&#45;&gt;assumpNIHGBWP -->
<g id="edge24" class="edge">
<title>theory:eBalanceOnPCMRC&#45;&gt;assumpNIHGBWP</title>
<path fill="none" stroke="black" d="M1739.89,-86.08C1855.76,-80.23 2103.26,-65.18 2313.49,-37.27"/>
<polygon fill="black" stroke="black" points="2314.03,-40.73 2323.47,-35.94 2313.1,-33.8 2314.03,-40.73"/>
</g>
<!-- assumpAPT -->
<g id="node19" class="node">
<title>assumpAPT</title>
<polygon fill="mistyrose" stroke="black" points="1731,-36 1617,-36 1617,0 1731,0 1731,-36"/>
<text text-anchor="middle" x="1674" y="-14.3" font-family="Times,serif" font-size="14.00">A:assumpAPT</text>
</g>
<!-- theory&#45;&gt;assumpAPT -->
<g id="edge19" class="edge">
<title>theory:eBalanceOnWtrRC&#45;&gt;assumpAPT</title>
<path fill="none" stroke="black" d="M1668.08,-71.7C1667.29,-63.98 1667.06,-54.71 1667.4,-46.11"/>
<polygon fill="black" stroke="black" points="1670.9,-46.32 1668.1,-36.1 1663.92,-45.84 1670.9,-46.32"/>
</g>
<!-- theory&#45;&gt;assumpAPT -->
<g id="edge28" class="edge">
<title>theory:heatEInWtrIM&#45;&gt;assumpAPT</title>
<path fill="none" stroke="black" d="M1679.92,-71.7C1680.71,-63.98 1680.94,-54.71 1680.6,-46.11"/>
<polygon fill="black" stroke="black" points="1684.08,-45.84 1679.9,-36.1 1677.1,-46.32 1684.08,-45.84"/>
</g>
<!-- assumpPIS -->
<g id="node20" class="node">
<title>assumpPIS</title>
<polygon fill="mistyrose" stroke="black" points="1859,-36 1749,-36 1749,0 1859,0 1859,-36"/>
<text text-anchor="middle" x="1804" y="-14.3" font-family="Times,serif" font-size="14.00">A:assumpPIS</text>
</g>
<!-- theory&#45;&gt;assumpPIS -->
<g id="edge23" class="edge">
<title>theory:eBalanceOnPCMRC&#45;&gt;assumpPIS</title>
<path fill="none" stroke="black" d="M1699.9,-71.88C1716.32,-62.51 1737.91,-50.81 1757.2,-40.8"/>
<polygon fill="black" stroke="black" points="1758.88,-43.88 1766.17,-36.19 1755.68,-37.65 1758.88,-43.88"/>
</g>
<!-- theory&#45;&gt;assumpPIS -->
<g id="edge29" class="edge">
<title>theory:heatEInPCMRC&#45;&gt;assumpPIS</title>
<path fill="none" stroke="black" d="M1711.7,-71.88C1729.82,-62.64 1751.34,-51.13 1769.08,-41.21"/>
<polygon fill="black" stroke="black" points="1770.99,-44.15 1777.98,-36.19 1767.55,-38.06 1770.99,-44.15"/>
</g>
<!-- assumpVCMPN -->
<g id="node21" class="node">
<title>assumpVCMPN</title>
<polygon fill="mistyrose" stroke="black" points="2019,-36 1877,-36 1877,0 2019,0 2019,-36"/>
<text text-anchor="middle" x="1948" y="-14.3" font-family="Times,serif" font-size="14.00">A:assumpVCMPN</text>
</g>
<!-- theory&#45;&gt;assumpVCMPN -->
<g id="edge25" class="edge">
<title>theory:eBalanceOnPCMRC&#45;&gt;assumpVCMPN</title>
<path fill="none" stroke="black" d="M1739.63,-72.23C1779.2,-62.12 1829.8,-49.2 1871.23,-38.61"/>
<polygon fill="black" stroke="black" points="1872.18,-41.98 1881,-36.12 1870.45,-35.2 1872.18,-41.98"/>
</g>
<!-- assumpNGSP -->
<g id="node22" class="node">
<title>assumpNGSP</title>
<polygon fill="mistyrose" stroke="black" points="2767,-36 2639,-36 2639,0 2767,0 2767,-36"/>
<text text-anchor="middle" x="2703" y="-14.3" font-family="Times,serif" font-size="14.00">A:assumpNGSP</text>
</g>
<!-- theory&#45;&gt;assumpNGSP -->
<g id="edge26" class="edge">
<title>theory:eBalanceOnPCMRC&#45;&gt;assumpNGSP</title>
<path fill="none" stroke="black" d="M1739.67,-86.7C1925.09,-80.19 2449.76,-60.5 2621,-36 2623.63,-35.62 2626.3,-35.2 2628.99,-34.74"/>
<polygon fill="black" stroke="black" points="2629.64,-38.18 2638.84,-32.92 2628.37,-31.3 2629.64,-38.18"/>
</g>
<!-- theory&#45;&gt;assumpNGSP -->
<g id="edge30" class="edge">
<title>theory:heatEInPCMRC&#45;&gt;assumpNGSP</title>
<path fill="none" stroke="black" d="M1739.77,-86.98C1924.31,-80.88 2444.96,-61.6 2628.69,-37.41"/>
<polygon fill="black" stroke="black" points="2629.31,-40.86 2638.75,-36.04 2628.36,-33.93 2629.31,-40.86"/>
</g>
<!-- likeChgUTP -->
<g id="node23" class="node">
<title>likeChgUTP</title>
<polygon fill="lavender" stroke="black" points="792.5,-108 667.5,-108 667.5,-72 792.5,-72 792.5,-108"/>
<text text-anchor="middle" x="730" y="-86.3" font-family="Times,serif" font-size="14.00">LC:likeChgUTP</text>
</g>
<!-- likeChgUTP&#45;&gt;assumpTPCAV -->
<g id="edge31" class="edge">
<title>likeChgUTP&#45;&gt;assumpTPCAV</title>
<path fill="none" stroke="black" d="M730,-71.7C730,-63.98 730,-54.71 730,-46.11"/>
<polygon fill="black" stroke="black" points="733.5,-46.1 730,-36.1 726.5,-46.1 733.5,-46.1"/>
</g>
<!-- likeChgTCVOD -->
<g id="node24" class="node">
<title>likeChgTCVOD</title>
<polygon fill="lavender" stroke="black" points="336,-108 190,-108 190,-72 336,-72 336,-108"/>
<text text-anchor="middle" x="263" y="-86.3" font-family="Times,serif" font-size="14.00">LC:likeChgTCVOD</text>
</g>
<!-- likeChgTCVOD&#45;&gt;assumpTHCCoT -->
<g id="edge32" class="edge">
<title>likeChgTCVOD&#45;&gt;assumpTHCCoT</title>
<path fill="none" stroke="black" d="M263,-71.7C263,-63.98 263,-54.71 263,-46.11"/>
<polygon fill="black" stroke="black" points="266.5,-46.1 263,-36.1 259.5,-46.1 266.5,-46.1"/>
</g>
<!-- likeChgTCVOL -->
<g id="node25" class="node">
<title>likeChgTCVOL</title>
<polygon fill="lavender" stroke="black" points="498,-108 354,-108 354,-72 498,-72 498,-108"/>
<text text-anchor="middle" x="426" y="-86.3" font-family="Times,serif" font-size="14.00">LC:likeChgTCVOL</text>
</g>
<!-- likeChgTCVOL&#45;&gt;assumpTHCCoL -->
<g id="edge33" class="edge">
<title>likeChgTCVOL&#45;&gt;assumpTHCCoL</title>
<path fill="none" stroke="black" d="M426,-71.7C426,-63.98 426,-54.71 426,-46.11"/>
<polygon fill="black" stroke="black" points="429.5,-46.1 426,-36.1 422.5,-46.1 429.5,-46.1"/>
</g>
<!-- likeChgDT -->
<g id="node26" class="node">
<title>likeChgDT</title>
<polygon fill="lavender" stroke="black" points="2941.5,-108 2826.5,-108 2826.5,-72 2941.5,-72 2941.5,-108"/>
<text text-anchor="middle" x="2884" y="-86.3" font-family="Times,serif" font-size="14.00">LC:likeChgDT</text>
</g>
<!-- likeChgDT&#45;&gt;assumpCTNOD -->
<g id="edge34" class="edge">
<title>likeChgDT&#45;&gt;assumpCTNOD</title>
<path fill="none" stroke="black" d="M2878.31,-71.7C2875.75,-63.9 2872.67,-54.51 2869.82,-45.83"/>
<polygon fill="black" stroke="black" points="2873.07,-44.51 2866.62,-36.1 2866.42,-46.7 2873.07,-44.51"/>
</g>
<!-- likeChgDITPW -->
<g id="node27" class="node">
<title>likeChgDITPW</title>
<polygon fill="lavender" stroke="black" points="2290,-108 2146,-108 2146,-72 2290,-72 2290,-108"/>
<text text-anchor="middle" x="2218" y="-86.3" font-family="Times,serif" font-size="14.00">LC:likeChgDITPW</text>
</g>
<!-- likeChgDITPW&#45;&gt;assumpSITWP -->
<g id="edge35" class="edge">
<title>likeChgDITPW&#45;&gt;assumpSITWP</title>
<path fill="none" stroke="black" d="M2222.94,-71.7C2225.17,-63.9 2227.85,-54.51 2230.33,-45.83"/>
<polygon fill="black" stroke="black" points="2233.73,-46.68 2233.11,-36.1 2227,-44.76 2233.73,-46.68"/>
</g>
<!-- likeChgTLH -->
<g id="node28" class="node">
<title>likeChgTLH</title>
<polygon fill="lavender" stroke="black" points="3084.5,-108 2959.5,-108 2959.5,-72 3084.5,-72 3084.5,-108"/>
<text text-anchor="middle" x="3022" y="-86.3" font-family="Times,serif" font-size="14.00">LC:likeChgTLH</text>
</g>
<!-- likeChgTLH&#45;&gt;assumpPIT -->
<g id="edge36" class="edge">
<title>likeChgTLH&#45;&gt;assumpPIT</title>
<path fill="none" stroke="black" d="M3020.52,-71.7C3019.86,-63.98 3019.06,-54.71 3018.32,-46.11"/>
<polygon fill="black" stroke="black" points="3021.81,-45.77 3017.47,-36.1 3014.83,-46.37 3021.81,-45.77"/>
</g>
<!-- unlikeChgWPFS -->
<g id="node29" class="node">
<title>unlikeChgWPFS</title>
<polygon fill="lavender" stroke="black" points="2641.5,-108 2482.5,-108 2482.5,-72 2641.5,-72 2641.5,-108"/>
<text text-anchor="middle" x="2562" y="-86.3" font-family="Times,serif" font-size="14.00">UC:unlikeChgWPFS</text>
</g>
<!-- unlikeChgWPFS&#45;&gt;assumpWAL -->
<g id="edge37" class="edge">
<title>unlikeChgWPFS&#45;&gt;assumpWAL</title>
<path fill="none" stroke="black" d="M2562,-71.7C2562,-63.98 2562,-54.71 2562,-46.11"/>
<polygon fill="black" stroke="black" points="2565.5,-46.1 2562,-36.1 2558.5,-46.1 2565.5,-46.1"/>
</g>
<!-- unlikeChgWPFS&#45;&gt;assumpNGSP -->
<g id="edge38" class="edge">
<title>unlikeChgWPFS&#45;&gt;assumpNGSP</title>
<path fill="none" stroke="black" d="M2596.49,-71.88C2615.44,-62.47 2639.13,-50.71 2659.36,-40.67"/>
<polygon fill="black" stroke="black" points="2660.97,-43.77 2668.37,-36.19 2657.86,-37.5 2660.97,-43.77"/>
</g>
<!-- unlikeChgNIHG -->
<g id="node30" class="node">
<title>unlikeChgNIHG</title>
<polygon fill="lavender" stroke="black" points="2464,-108 2308,-108 2308,-72 2464,-72 2464,-108"/>
<text text-anchor="middle" x="2386" y="-86.3" font-family="Times,serif" font-size="14.00">UC:unlikeChgNIHG</text>
</g>
<!-- unlikeChgNIHG&#45;&gt;assumpNIHGBWP -->
<g id="edge39" class="edge">
<title>unlikeChgNIHG&#45;&gt;assumpNIHGBWP</title>
<path fill="none" stroke="black" d="M2390.45,-71.7C2392.45,-63.9 2394.87,-54.51 2397.1,-45.83"/>
<polygon fill="black" stroke="black" points="2400.5,-46.66 2399.6,-36.1 2393.72,-44.92 2400.5,-46.66"/>
</g>
<!-- unlikeChgNGS -->
<g id="node31" class="node">
<title>unlikeChgNGS</title>
<polygon fill="lavender" stroke="black" points="2808.5,-108 2659.5,-108 2659.5,-72 2808.5,-72 2808.5,-108"/>
<text text-anchor="middle" x="2734" y="-86.3" font-family="Times,serif" font-size="14.00">UC:unlikeChgNGS</text>
</g>
<!-- unlikeChgNGS&#45;&gt;assumpNGSP -->
<g id="edge40" class="edge">
<title>unlikeChgNGS&#45;&gt;assumpNGSP</title>
<path fill="none" stroke="black" d="M2726.34,-71.7C2722.81,-63.73 2718.54,-54.1 2714.63,-45.26"/>
<polygon fill="black" stroke="black" points="2717.82,-43.83 2710.57,-36.1 2711.42,-46.67 2717.82,-43.83"/>
</g>
<!-- wMass -->
<g id="node32" class="node">
<title>wMass</title>
<polygon fill="#bbffff" stroke="black" points="3225,-108 3103,-108 3103,-72 3225,-72 3225,-108"/>
<text text-anchor="middle" x="3164" y="-86.3" font-family="Times,serif" font-size="14.00">DD:waterMass</text>
</g>
<!-- tankVol -->
<g id="node33" class="node">
<title>tankVol</title>
<polygon fill="#bbffff" stroke="black" points="3371,-108 3243,-108 3243,-72 3371,-72 3371,-108"/>
<text text-anchor="middle" x="3307" y="-86.3" font-family="Times,serif" font-size="14.00">DD:tankVolume</text>
</g>
<!-- tauW -->
<g id="node34" class="node">
<title>tauW</title>
<polygon fill="#bbffff" stroke="black" points="3564.5,-108 3389.5,-108 3389.5,-72 3564.5,-72 3564.5,-108"/>
<text text-anchor="middle" x="3477" y="-86.3" font-family="Times,serif" font-size="14.00">DD:balanceDecayRate</text>
</g>
<!-- eta -->
<g id="node35" class="node">
<title>eta</title>
<polygon fill="#bbffff" stroke="black" points="3759.5,-108 3582.5,-108 3582.5,-72 3759.5,-72 3759.5,-108"/>
<text text-anchor="middle" x="3671" y="-86.3" font-family="Times,serif" font-size="14.00">DD:balanceDecayTime</text>
</g>
<!-- tauSP -->
<g id="node36" class="node">
<title>tauSP</title>
<polygon fill="#bbffff" stroke="black" points="3946.5,-108 3777.5,-108 3777.5,-72 3946.5,-72 3946.5,-108"/>
<text text-anchor="middle" x="3862" y="-86.3" font-family="Times,serif" font-size="14.00">DD:balanceSolidPCM</text>
</g>
<!-- tauLP -->
<g id="node37" class="node">
<title>tauLP</title>
<polygon fill="#bbffff" stroke="black" points="4142,-108 3964,-108 3964,-72 4142,-72 4142,-108"/>
<text text-anchor="middle" x="4053" y="-86.3" font-family="Times,serif" font-size="14.00">DD:balanceLiquidPCM</text>
</g>
<!-- htFusion -->
<g id="node38" class="node">
<title>htFusion</title>
<polygon fill="#bbffff" stroke="black" points="4266.5,-108 4159.5,-108 4159.5,-72 4266.5,-72 4266.5,-108"/>
<text text-anchor="middle" x="4213" y="-86.3" font-family="Times,serif" font-size="14.00">DD:htFusion</text>
</g>
<!-- meltFrac -->
<g id="node39" class="node">
<title>meltFrac</title>
<polygon fill="#bbffff" stroke="black" points="4393,-108 4285,-108 4285,-72 4393,-72 4393,-108"/>
<text text-anchor="middle" x="4339" y="-86.3" font-family="Times,serif" font-size="14.00">DD:meltFrac</text>
</g>
<!-- aspectRatio -->
<g id="node40" class="node">
<title>aspectRatio</title>
<polygon fill="#bbffff" stroke="black" points="4539,-108 4411,-108 4411,-72 4539,-72 4539,-108"/>
<text text-anchor="middle" x="4475" y="-86.3" font-family="Times,serif" font-size="14.00">DD:aspectRatio</text>
</g>
<!-- inputValues -->
<g id="node41" class="node">
<title>inputValues</title>
<polygon fill="ivory" stroke="black" points="4682.5,-108 4557.5,-108 4557.5,-72 4682.5,-72 4682.5,-108"/>
<text text-anchor="middle" x="4620" y="-86.3" font-family="Times,serif" font-size="14.00">FR:inputValues</text>
</g>
<!-- findMass -->
<g id="node42" class="node">
<title>findMass</title>
<polygon fill="ivory" stroke="black" points="4807,-108 4701,-108 4701,-72 4807,-72 4807,-108"/>
<text text-anchor="middle" x="4754" y="-86.3" font-family="Times,serif" font-size="14.00">FR:findMass</text>
</g>
<!-- checkWithPhysConsts -->
<g id="node43" class="node">
<title>checkWithPhysConsts</title>
<polygon fill="ivory" stroke="black" points="5024.5,-108 4825.5,-108 4825.5,-72 5024.5,-72 5024.5,-108"/>
<text text-anchor="middle" x="4925" y="-86.3" font-family="Times,serif" font-size="14.00">FR:checkWithPhysConsts</text>
</g>
<!-- outputInputDerivVals -->
<g id="node44" class="node">
<title>outputInputDerivVals</title>
<polygon fill="ivory" stroke="black" points="5237.5,-108 5042.5,-108 5042.5,-72 5237.5,-72 5237.5,-108"/>
<text text-anchor="middle" x="5140" y="-86.3" font-family="Times,serif" font-size="14.00">FR:outputInputDerivVals</text>
</g>
<!-- calcValues -->
<g id="node45" class="node">
<title>calcValues</title>
<polygon fill="ivory" stroke="black" points="5371,-108 5255,-108 5255,-72 5371,-72 5371,-108"/>
<text text-anchor="middle" x="5313" y="-86.3" font-family="Times,serif" font-size="14.00">FR:calcValues</text>
</g>
<!-- verifyEnergyOutput -->
<g id="node46" class="node">
<title>verifyEnergyOutput</title>
<polygon fill="ivory" stroke="black" points="5574.5,-108 5389.5,-108 5389.5,-72 5574.5,-72 5574.5,-108"/>
<text text-anchor="middle" x="5482" y="-86.3" font-family="Times,serif" font-size="14.00">FR:verifyEnergyOutput</text>
</g>
<!-- calcPCMMeltBegin -->
<g id="node47" class="node">
<title>calcPCMMeltBegin</title>
<polygon fill="ivory" stroke="black" points="5770,-108 5592,-108 5592,-72 5770,-72 5770,-108"/>
<text text-anchor="middle" x="5681" y="-86.3" font-family="Times,serif" font-size="14.00">FR:calcPCMMeltBegin</text>
</g>
<!-- calcPCMMeltEnd -->
<g id="node48" class="node">
<title>calcPCMMeltEnd</title>
<polygon fill="ivory" stroke="black" points="5953.5,-108 5788.5,-108 5788.5,-72 5953.5,-72 5953.5,-108"/>
<text text-anchor="middle" x="5871" y="-86.3" font-family="Times,serif" font-size="14.00">FR:calcPCMMeltEnd</text>
</g>
<!-- outputValues -->
<g id="node49" class="node">
<title>outputValues</title>
<polygon fill="ivory" stroke="black" points="6106.5,-108 5971.5,-108 5971.5,-72 6106.5,-72 6106.5,-108"/>
<text text-anchor="middle" x="6039" y="-86.3" font-family="Times,serif" font-size="14.00">FR:outputValues</text>
</g>
<!-- correct -->
<g id="node50" class="node">
<title>correct</title>
<polygon fill="ivory" stroke="black" points="6229,-108 6125,-108 6125,-72 6229,-72 6229,-108"/>
<text text-anchor="middle" x="6177" y="-86.3" font-family="Times,serif" font-size="14.00">NFR:correct</text>
</g>
<!-- verifiable -->
<g id="node51" class="node">
<title>verifiable</title>
<polygon fill="ivory" stroke="black" points="6367,-108 6247,-108 6247,-72 6367,-72 6367,-108"/>
<text text-anchor="middle" x="6307" y="-86.3" font-family="Times,serif" font-size="14.00">NFR:verifiable</text>
</g>
<!-- understandable -->
<g id="node52" class="node">
<title>understandable</title>
<polygon fill="ivory" stroke="black" points="6550.5,-108 6385.5,-108 6385.5,-72 6550.5,-72 6550.5,-108"/>
<text text-anchor="middle" x="6468" y="-86.3" font-family="Times,serif" font-size="14.00">NFR:understandable</text>
</g>
<!-- reusable -->
<g id="node53" class="node">
<title>reusable</title>
<polygon fill="ivory" stroke="black" points="6683.5,-108 6568.5,-108 6568.5,-72 6683.5,-72 6683.5,-108"/>
<text text-anchor="middle" x="6626" y="-86.3" font-family="Times,serif" font-size="14.00">NFR:reusable</text>
</g>
<!-- maintainable -->
<g id="node54" class="node">
<title>maintainable</title>
<polygon fill="ivory" stroke="black" points="6848,-108 6702,-108 6702,-72 6848,-72 6848,-108"/>
<text text-anchor="middle" x="6775" y="-86.3" font-family="Times,serif" font-size="14.00">NFR:maintainable</text>
</g>
</g>
</svg>
