<?xml version="1.0" encoding="UTF-8" standalone="no"?>
<!DOCTYPE svg PUBLIC "-//W3C//DTD SVG 1.1//EN"
 "http://www.w3.org/Graphics/SVG/1.1/DTD/svg11.dtd">
<!-- Generated by graphviz version 2.43.0 (0)
 -->
<!-- Title: refvsref Pages: 1 -->
<svg width="2112pt" height="293pt"
 viewBox="0.00 0.00 2112.00 292.93" xmlns="http://www.w3.org/2000/svg" xmlns:xlink="http://www.w3.org/1999/xlink">
<g id="graph0" class="graph" transform="scale(1 1) rotate(0) translate(4 288.93)">
<title>refvsref</title>
<polygon fill="white" stroke="transparent" points="-4,4 -4,-288.93 2108,-288.93 2108,4 -4,4"/>
<!-- wVol -->
<g id="node1" class="node">
<title>wVol</title>
<polygon fill="#bbffff" stroke="black" points="172,-36 0,-36 0,0 172,0 172,-36"/>
<text text-anchor="middle" x="86" y="-14.3" font-family="Times,serif" font-size="14.00">DD:waterVolume.pcm</text>
</g>
<!-- tankVol -->
<g id="node2" class="node">
<title>tankVol</title>
<polygon fill="#bbffff" stroke="black" points="318,-36 190,-36 190,0 318,0 318,-36"/>
<text text-anchor="middle" x="254" y="-14.3" font-family="Times,serif" font-size="14.00">DD:tankVolume</text>
</g>
<!-- wVol&#45;&gt;tankVol -->
<g id="edge1" class="edge">
<title>wVol&#45;&gt;tankVol</title>
<path fill="none" stroke="black" d="M172.3,-18C174.77,-18 177.23,-18 179.7,-18"/>
<polygon fill="black" stroke="black" points="179.85,-21.5 189.85,-18 179.85,-14.5 179.85,-21.5"/>
</g>
<!-- meltFrac -->
<g id="node3" class="node">
<title>meltFrac</title>
<polygon fill="#bbffff" stroke="black" points="1025,-36 917,-36 917,0 1025,0 1025,-36"/>
<text text-anchor="middle" x="971" y="-14.3" font-family="Times,serif" font-size="14.00">DD:meltFrac</text>
</g>
<!-- htFusion -->
<g id="node4" class="node">
<title>htFusion</title>
<polygon fill="#bbffff" stroke="black" points="1150.5,-36 1043.5,-36 1043.5,0 1150.5,0 1150.5,-36"/>
<text text-anchor="middle" x="1097" y="-14.3" font-family="Times,serif" font-size="14.00">DD:htFusion</text>
</g>
<!-- meltFrac&#45;&gt;htFusion -->
<g id="edge2" class="edge">
<title>meltFrac&#45;&gt;htFusion</title>
<path fill="none" stroke="black" d="M1025.14,-18C1027.8,-18 1030.46,-18 1033.12,-18"/>
<polygon fill="black" stroke="black" points="1033.39,-21.5 1043.39,-18 1033.39,-14.5 1033.39,-21.5"/>
</g>
<!-- sensHeat -->
<g id="node5" class="node">
<title>sensHeat</title>
<polygon fill="pink" stroke="black" points="935.5,-108 830.5,-108 830.5,-72 935.5,-72 935.5,-108"/>
<text text-anchor="middle" x="883" y="-86.3" font-family="Times,serif" font-size="14.00">TM:sensHtE</text>
</g>
<!-- latentHtERC -->
<g id="node6" class="node">
<title>latentHtERC</title>
<polygon fill="pink" stroke="black" points="1068.5,-108 953.5,-108 953.5,-72 1068.5,-72 1068.5,-108"/>
<text text-anchor="middle" x="1011" y="-86.3" font-family="Times,serif" font-size="14.00">TM:latentHtE</text>
</g>
<!-- sensHeat&#45;&gt;latentHtERC -->
<g id="edge3" class="edge">
<title>sensHeat&#45;&gt;latentHtERC</title>
<path fill="none" stroke="black" d="M936,-90C938.34,-90 940.68,-90 943.02,-90"/>
<polygon fill="black" stroke="black" points="943.29,-93.5 953.29,-90 943.29,-86.5 943.29,-93.5"/>
</g>
<!-- latentHtERC&#45;&gt;meltFrac -->
<g id="edge4" class="edge">
<title>latentHtERC&#45;&gt;meltFrac</title>
<path fill="none" stroke="black" d="M1001.11,-71.7C996.51,-63.64 990.94,-53.89 985.85,-44.98"/>
<polygon fill="black" stroke="black" points="988.77,-43.05 980.77,-36.1 982.7,-46.52 988.77,-43.05"/>
</g>
<!-- rocTempSimpRC -->
<g id="node7" class="node">
<title>rocTempSimpRC</title>
<polygon fill="palegreen" stroke="black" points="820,-180 678,-180 678,-144 820,-144 820,-180"/>
<text text-anchor="middle" x="749" y="-158.3" font-family="Times,serif" font-size="14.00">GD:rocTempSimp</text>
</g>
<!-- rocTempSimpRC&#45;&gt;rocTempSimpRC -->
<g id="edge6" class="edge">
<title>rocTempSimpRC&#45;&gt;rocTempSimpRC</title>
<path fill="none" stroke="black" d="M820.23,-174.25C830.83,-172.34 838,-168.26 838,-162 838,-157.99 835.06,-154.88 830.15,-152.65"/>
<polygon fill="black" stroke="black" points="830.81,-149.2 820.23,-149.75 828.84,-155.92 830.81,-149.2"/>
</g>
<!-- consThermECS -->
<g id="node8" class="node">
<title>consThermECS</title>
<polygon fill="pink" stroke="black" points="812,-108 678,-108 678,-72 812,-72 812,-108"/>
<text text-anchor="middle" x="745" y="-86.3" font-family="Times,serif" font-size="14.00">TM:consThermE</text>
</g>
<!-- rocTempSimpRC&#45;&gt;consThermECS -->
<g id="edge5" class="edge">
<title>rocTempSimpRC&#45;&gt;consThermECS</title>
<path fill="none" stroke="black" d="M748.01,-143.7C747.57,-135.98 747.04,-126.71 746.55,-118.11"/>
<polygon fill="black" stroke="black" points="750.04,-117.89 745.98,-108.1 743.05,-118.29 750.04,-117.89"/>
</g>
<!-- htFluxC -->
<g id="node9" class="node">
<title>htFluxC</title>
<polygon fill="palegreen" stroke="black" points="1506.5,-180 1307.5,-180 1307.5,-144 1506.5,-144 1506.5,-180"/>
<text text-anchor="middle" x="1407" y="-158.3" font-family="Times,serif" font-size="14.00">GD:htFluxWaterFromCoil</text>
</g>
<!-- nwtnCoolingRC -->
<g id="node10" class="node">
<title>nwtnCoolingRC</title>
<polygon fill="pink" stroke="black" points="1368,-108 1234,-108 1234,-72 1368,-72 1368,-108"/>
<text text-anchor="middle" x="1301" y="-86.3" font-family="Times,serif" font-size="14.00">TM:nwtnCooling</text>
</g>
<!-- htFluxC&#45;&gt;nwtnCoolingRC -->
<g id="edge7" class="edge">
<title>htFluxC&#45;&gt;nwtnCoolingRC</title>
<path fill="none" stroke="black" d="M1381.07,-143.88C1367.34,-134.81 1350.29,-123.55 1335.46,-113.76"/>
<polygon fill="black" stroke="black" points="1337.3,-110.78 1327.03,-108.19 1333.45,-116.62 1337.3,-110.78"/>
</g>
<!-- htFluxP -->
<g id="node11" class="node">
<title>htFluxP</title>
<polygon fill="palegreen" stroke="black" points="1289,-180 1083,-180 1083,-144 1289,-144 1289,-180"/>
<text text-anchor="middle" x="1186" y="-158.3" font-family="Times,serif" font-size="14.00">GD:htFluxPCMFromWater</text>
</g>
<!-- htFluxP&#45;&gt;nwtnCoolingRC -->
<g id="edge8" class="edge">
<title>htFluxP&#45;&gt;nwtnCoolingRC</title>
<path fill="none" stroke="black" d="M1214.13,-143.88C1229.17,-134.72 1247.87,-123.34 1264.06,-113.48"/>
<polygon fill="black" stroke="black" points="1266.04,-116.38 1272.76,-108.19 1262.4,-110.4 1266.04,-116.38"/>
</g>
<!-- eBalanceOnWtrRC -->
<g id="node12" class="node">
<title>eBalanceOnWtrRC</title>
<polygon fill="#fff68f" stroke="black" points="1263,-252 1111,-252 1111,-216 1263,-216 1263,-252"/>
<text text-anchor="middle" x="1187" y="-230.3" font-family="Times,serif" font-size="14.00">IM:eBalanceOnWtr</text>
</g>
<!-- eBalanceOnWtrRC&#45;&gt;rocTempSimpRC -->
<g id="edge11" class="edge">
<title>eBalanceOnWtrRC&#45;&gt;rocTempSimpRC</title>
<path fill="none" stroke="black" d="M1110.58,-217.53C1107.68,-217.01 1104.82,-216.49 1102,-216 1009.2,-199.76 902.13,-184.12 830.47,-174.09"/>
<polygon fill="black" stroke="black" points="830.54,-170.57 820.16,-172.65 829.58,-177.5 830.54,-170.57"/>
</g>
<!-- eBalanceOnWtrRC&#45;&gt;htFluxC -->
<g id="edge12" class="edge">
<title>eBalanceOnWtrRC&#45;&gt;htFluxC</title>
<path fill="none" stroke="black" d="M1240.54,-215.97C1271.54,-206.1 1310.76,-193.62 1343.34,-183.25"/>
<polygon fill="black" stroke="black" points="1344.76,-186.48 1353.22,-180.11 1342.63,-179.81 1344.76,-186.48"/>
</g>
<!-- eBalanceOnWtrRC&#45;&gt;htFluxP -->
<g id="edge13" class="edge">
<title>eBalanceOnWtrRC&#45;&gt;htFluxP</title>
<path fill="none" stroke="black" d="M1186.75,-215.7C1186.64,-207.98 1186.51,-198.71 1186.39,-190.11"/>
<polygon fill="black" stroke="black" points="1189.89,-190.05 1186.24,-180.1 1182.89,-190.15 1189.89,-190.05"/>
</g>
<!-- eBalanceOnWtrRC&#45;&gt;eBalanceOnWtrRC -->
<g id="edge14" class="edge">
<title>eBalanceOnWtrRC&#45;&gt;eBalanceOnWtrRC</title>
<path fill="none" stroke="black" d="M1263.35,-246.05C1273.93,-244.06 1281,-240.05 1281,-234 1281,-230.13 1278.1,-227.09 1273.23,-224.88"/>
<polygon fill="black" stroke="black" points="1273.93,-221.44 1263.35,-221.95 1271.94,-228.15 1273.93,-221.44"/>
</g>
<!-- tauW -->
<g id="node13" class="node">
<title>tauW</title>
<polygon fill="#bbffff" stroke="black" points="1622.5,-36 1447.5,-36 1447.5,0 1622.5,0 1622.5,-36"/>
<text text-anchor="middle" x="1535" y="-14.3" font-family="Times,serif" font-size="14.00">DD:balanceDecayRate</text>
</g>
<!-- eBalanceOnWtrRC&#45;&gt;tauW -->
<g id="edge9" class="edge">
<title>eBalanceOnWtrRC&#45;&gt;tauW</title>
<path fill="none" stroke="black" d="M1263.06,-231.04C1349.23,-227.12 1482.12,-215.34 1516,-180 1550.15,-144.37 1546.43,-82.01 1540.7,-46.26"/>
<polygon fill="black" stroke="black" points="1544.09,-45.31 1538.89,-36.07 1537.19,-46.53 1544.09,-45.31"/>
</g>
<!-- eta -->
<g id="node14" class="node">
<title>eta</title>
<polygon fill="#bbffff" stroke="black" points="1817.5,-36 1640.5,-36 1640.5,0 1817.5,0 1817.5,-36"/>
<text text-anchor="middle" x="1729" y="-14.3" font-family="Times,serif" font-size="14.00">DD:balanceDecayTime</text>
</g>
<!-- eBalanceOnWtrRC&#45;&gt;eta -->
<g id="edge10" class="edge">
<title>eBalanceOnWtrRC&#45;&gt;eta</title>
<path fill="none" stroke="black" d="M1263.06,-233.5C1336.95,-231.29 1450.75,-220.64 1540,-180 1611.12,-147.62 1676.29,-80.36 1708.28,-43.86"/>
<polygon fill="black" stroke="black" points="1711.06,-45.99 1714.95,-36.13 1705.76,-41.41 1711.06,-45.99"/>
</g>
<!-- eBalanceOnPCMRC -->
<g id="node15" class="node">
<title>eBalanceOnPCMRC</title>
<polygon fill="#fff68f" stroke="black" points="801,-252 641,-252 641,-216 801,-216 801,-252"/>
<text text-anchor="middle" x="721" y="-230.3" font-family="Times,serif" font-size="14.00">IM:eBalanceOnPCM</text>
</g>
<!-- eBalanceOnWtrRC&#45;&gt;eBalanceOnPCMRC -->
<g id="edge15" class="edge">
<title>eBalanceOnWtrRC&#45;&gt;eBalanceOnPCMRC</title>
<path fill="none" stroke="black" d="M1141.88,-252.02C1127.46,-256.92 1111.27,-261.55 1096,-264 1034.56,-273.87 877.5,-273.48 816,-264 803.46,-262.07 790.3,-258.78 777.91,-255.07"/>
<polygon fill="black" stroke="black" points="778.75,-251.66 768.16,-252.02 776.66,-258.34 778.75,-251.66"/>
</g>
<!-- eBalanceOnPCMRC&#45;&gt;meltFrac -->
<g id="edge18" class="edge">
<title>eBalanceOnPCMRC&#45;&gt;meltFrac</title>
<path fill="none" stroke="black" d="M697.25,-215.91C686.45,-206.65 674.8,-194.2 669,-180 650.84,-135.57 638.13,-108.76 669,-72 698.69,-36.64 826.8,-24.87 906.32,-20.95"/>
<polygon fill="black" stroke="black" points="906.9,-24.43 916.73,-20.47 906.58,-17.43 906.9,-24.43"/>
</g>
<!-- eBalanceOnPCMRC&#45;&gt;rocTempSimpRC -->
<g id="edge19" class="edge">
<title>eBalanceOnPCMRC&#45;&gt;rocTempSimpRC</title>
<path fill="none" stroke="black" d="M727.92,-215.7C731.07,-207.81 734.88,-198.3 738.38,-189.55"/>
<polygon fill="black" stroke="black" points="741.69,-190.69 742.16,-180.1 735.19,-188.09 741.69,-190.69"/>
</g>
<!-- eBalanceOnPCMRC&#45;&gt;htFluxP -->
<g id="edge20" class="edge">
<title>eBalanceOnPCMRC&#45;&gt;htFluxP</title>
<path fill="none" stroke="black" d="M801.02,-217.52C804.05,-217 807.05,-216.49 810,-216 898.07,-201.39 998.18,-187.41 1072.94,-177.47"/>
<polygon fill="black" stroke="black" points="1073.41,-180.94 1082.86,-176.16 1072.49,-174.01 1073.41,-180.94"/>
</g>
<!-- eBalanceOnPCMRC&#45;&gt;eBalanceOnWtrRC -->
<g id="edge21" class="edge">
<title>eBalanceOnPCMRC&#45;&gt;eBalanceOnWtrRC</title>
<path fill="none" stroke="black" d="M754.99,-252.09C774.1,-261.23 798.72,-271.35 822,-276 880.4,-287.66 1031.68,-288.08 1090,-276 1108.78,-272.11 1128.39,-264.4 1145.02,-256.63"/>
<polygon fill="black" stroke="black" points="1146.96,-259.58 1154.44,-252.08 1143.91,-253.28 1146.96,-259.58"/>
</g>
<!-- tauSP -->
<g id="node16" class="node">
<title>tauSP</title>
<polygon fill="#bbffff" stroke="black" points="505.5,-36 336.5,-36 336.5,0 505.5,0 505.5,-36"/>
<text text-anchor="middle" x="421" y="-14.3" font-family="Times,serif" font-size="14.00">DD:balanceSolidPCM</text>
</g>
<!-- eBalanceOnPCMRC&#45;&gt;tauSP -->
<g id="edge16" class="edge">
<title>eBalanceOnPCMRC&#45;&gt;tauSP</title>
<path fill="none" stroke="black" d="M681.95,-215.84C661.68,-206.3 636.85,-193.63 616,-180 550.91,-137.47 482.55,-76.73 446.6,-43.33"/>
<polygon fill="black" stroke="black" points="448.71,-40.51 439.01,-36.24 443.93,-45.63 448.71,-40.51"/>
</g>
<!-- tauLP -->
<g id="node17" class="node">
<title>tauLP</title>
<polygon fill="#bbffff" stroke="black" points="701,-36 523,-36 523,0 701,0 701,-36"/>
<text text-anchor="middle" x="612" y="-14.3" font-family="Times,serif" font-size="14.00">DD:balanceLiquidPCM</text>
</g>
<!-- eBalanceOnPCMRC&#45;&gt;tauLP -->
<g id="edge17" class="edge">
<title>eBalanceOnPCMRC&#45;&gt;tauLP</title>
<path fill="none" stroke="black" d="M678.51,-215.85C662.73,-207.37 646.21,-195.56 636,-180 609.28,-139.28 607.66,-80.41 609.45,-46.29"/>
<polygon fill="black" stroke="black" points="612.96,-46.35 610.13,-36.14 605.97,-45.88 612.96,-46.35"/>
</g>
<!-- heatEInPCMRC -->
<g id="node18" class="node">
<title>heatEInPCMRC</title>
<polygon fill="#fff68f" stroke="black" points="1092.5,-252 961.5,-252 961.5,-216 1092.5,-216 1092.5,-252"/>
<text text-anchor="middle" x="1027" y="-230.3" font-family="Times,serif" font-size="14.00">IM:heatEInPCM</text>
</g>
<!-- eBalanceOnPCMRC&#45;&gt;heatEInPCMRC -->
<g id="edge22" class="edge">
<title>eBalanceOnPCMRC&#45;&gt;heatEInPCMRC</title>
<path fill="none" stroke="black" d="M760.64,-252.17C778.14,-259.24 799.19,-266.48 819,-270 873.26,-279.65 889.01,-281.08 943,-270 956.75,-267.18 971.02,-262.01 983.82,-256.45"/>
<polygon fill="black" stroke="black" points="985.63,-259.48 993.29,-252.16 982.73,-253.1 985.63,-259.48"/>
</g>
<!-- heatEInPCMRC&#45;&gt;htFusion -->
<g id="edge24" class="edge">
<title>heatEInPCMRC&#45;&gt;htFusion</title>
<path fill="none" stroke="black" d="M1035.08,-215.96C1046.08,-192.22 1065.79,-147.65 1078,-108 1084.27,-87.65 1089.2,-64.05 1092.47,-46.28"/>
<polygon fill="black" stroke="black" points="1095.94,-46.75 1094.24,-36.29 1089.05,-45.53 1095.94,-46.75"/>
</g>
<!-- heatEInPCMRC&#45;&gt;sensHeat -->
<g id="edge25" class="edge">
<title>heatEInPCMRC&#45;&gt;sensHeat</title>
<path fill="none" stroke="black" d="M1009.63,-215.87C984.22,-190.82 936.8,-144.05 907.75,-115.41"/>
<polygon fill="black" stroke="black" points="910.01,-112.72 900.43,-108.19 905.09,-117.7 910.01,-112.72"/>
</g>
<!-- heatEInPCMRC&#45;&gt;latentHtERC -->
<g id="edge26" class="edge">
<title>heatEInPCMRC&#45;&gt;latentHtERC</title>
<path fill="none" stroke="black" d="M1025.07,-215.87C1022.34,-191.67 1017.33,-147.21 1014.09,-118.39"/>
<polygon fill="black" stroke="black" points="1017.53,-117.73 1012.94,-108.19 1010.58,-118.52 1017.53,-117.73"/>
</g>
<!-- heatEInWtrRC -->
<g id="node19" class="node">
<title>heatEInWtrRC</title>
<polygon fill="#fff68f" stroke="black" points="943,-252 819,-252 819,-216 943,-216 943,-252"/>
<text text-anchor="middle" x="881" y="-230.3" font-family="Times,serif" font-size="14.00">IM:heatEInWtr</text>
</g>
<!-- heatEInWtrRC&#45;&gt;sensHeat -->
<g id="edge23" class="edge">
<title>heatEInWtrRC&#45;&gt;sensHeat</title>
<path fill="none" stroke="black" d="M881.24,-215.87C881.58,-191.67 882.21,-147.21 882.61,-118.39"/>
<polygon fill="black" stroke="black" points="886.12,-118.24 882.76,-108.19 879.12,-118.14 886.12,-118.24"/>
</g>
<!-- wMass -->
<g id="node20" class="node">
<title>wMass</title>
<polygon fill="#bbffff" stroke="black" points="1958,-36 1836,-36 1836,0 1958,0 1958,-36"/>
<text text-anchor="middle" x="1897" y="-14.3" font-family="Times,serif" font-size="14.00">DD:waterMass</text>
</g>
<!-- aspectRatio -->
<g id="node21" class="node">
<title>aspectRatio</title>
<polygon fill="#bbffff" stroke="black" points="2104,-36 1976,-36 1976,0 2104,0 2104,-36"/>
<text text-anchor="middle" x="2040" y="-14.3" font-family="Times,serif" font-size="14.00">DD:aspectRatio</text>
</g>
</g>
</svg>
