<?xml version="1.0" encoding="UTF-8" standalone="no"?>
<!DOCTYPE svg PUBLIC "-//W3C//DTD SVG 1.1//EN"
 "http://www.w3.org/Graphics/SVG/1.1/DTD/svg11.dtd">
<!-- Generated by graphviz version 2.43.0 (0)
 -->
<!-- Title: refvsref Pages: 1 -->
<svg width="445pt" height="129pt"
 viewBox="0.00 0.00 445.00 128.85" xmlns="http://www.w3.org/2000/svg" xmlns:xlink="http://www.w3.org/1999/xlink">
<g id="graph0" class="graph" transform="scale(1 1) rotate(0) translate(4 124.85)">
<title>refvsref</title>
<polygon fill="white" stroke="transparent" points="-4,4 -4,-124.85 441,-124.85 441,4 -4,4"/>
<!-- dataDefn -->
<g id="node1" class="node">
<title>dataDefn</title>
<polygon fill="#bbffff" stroke="black" points="165.5,-36 37.5,-36 37.5,0 165.5,0 165.5,-36"/>
<text text-anchor="middle" x="101.5" y="-14.3" font-family="Times,serif" font-size="14.00">DD:aspectRatio</text>
</g>
<!-- dataDefn&#45;&gt;dataDefn -->
<g id="edge1" class="edge">
<title>dataDefn:wVol&#45;&gt;dataDefn:tankVol</title>
<path fill="none" stroke="black" d="M165.79,-24.25C176.29,-23.35 183.5,-21.27 183.5,-18 183.5,-15.96 180.68,-14.38 176.01,-13.26"/>
<polygon fill="black" stroke="black" points="176.19,-9.75 165.79,-11.75 175.17,-16.68 176.19,-9.75"/>
</g>
<!-- dataDefn&#45;&gt;dataDefn -->
<g id="edge2" class="edge">
<title>dataDefn:meltFrac&#45;&gt;dataDefn:htFusion</title>
<path fill="none" stroke="black" d="M165.94,-31.49C185.86,-31.21 201.5,-26.72 201.5,-18 201.5,-10.85 190.97,-6.54 176.2,-5.07"/>
<polygon fill="black" stroke="black" points="176.12,-1.56 165.94,-4.51 175.74,-8.55 176.12,-1.56"/>
</g>
<!-- theory -->
<g id="node2" class="node">
<title>theory</title>
<polygon fill="#fff68f" stroke="black" points="167,-108 36,-108 36,-72 167,-72 167,-108"/>
<text text-anchor="middle" x="101.5" y="-86.3" font-family="Times,serif" font-size="14.00">IM:heatEInPCM</text>
</g>
<!-- theory&#45;&gt;dataDefn -->
<g id="edge4" class="edge">
<title>theory:latentHtETM&#45;&gt;dataDefn:meltFrac</title>
<path fill="none" stroke="black" d="M66.01,-71.7C61.13,-63.81 59.81,-54.3 62.07,-45.55"/>
<polygon fill="black" stroke="black" points="65.39,-46.67 66.13,-36.1 58.96,-43.91 65.39,-46.67"/>
</g>
<!-- theory&#45;&gt;dataDefn -->
<g id="edge9" class="edge">
<title>theory:eBalanceOnWtrRC&#45;&gt;dataDefn:tauW</title>
<path fill="none" stroke="black" d="M77.84,-71.7C74.62,-63.9 73.73,-54.51 75.16,-45.83"/>
<polygon fill="black" stroke="black" points="78.56,-46.68 77.92,-36.1 71.83,-44.77 78.56,-46.68"/>
</g>
<!-- theory&#45;&gt;dataDefn -->
<g id="edge10" class="edge">
<title>theory:eBalanceOnWtrRC&#45;&gt;dataDefn:eta</title>
<path fill="none" stroke="black" d="M89.67,-71.7C88.08,-63.98 87.62,-54.71 88.31,-46.11"/>
<polygon fill="black" stroke="black" points="91.79,-46.49 89.71,-36.1 84.86,-45.52 91.79,-46.49"/>
</g>
<!-- theory&#45;&gt;dataDefn -->
<g id="edge16" class="edge">
<title>theory:eBalanceOnPCMRC&#45;&gt;dataDefn:tauSP</title>
<path fill="none" stroke="black" d="M101.5,-71.7C101.5,-63.98 101.5,-54.71 101.5,-46.11"/>
<polygon fill="black" stroke="black" points="105,-46.1 101.5,-36.1 98,-46.1 105,-46.1"/>
</g>
<!-- theory&#45;&gt;dataDefn -->
<g id="edge17" class="edge">
<title>theory:eBalanceOnPCMRC&#45;&gt;dataDefn:tauLP</title>
<path fill="none" stroke="black" d="M113.33,-71.7C114.92,-63.98 115.38,-54.71 114.69,-46.11"/>
<polygon fill="black" stroke="black" points="118.14,-45.52 113.29,-36.1 111.21,-46.49 118.14,-45.52"/>
</g>
<!-- theory&#45;&gt;dataDefn -->
<g id="edge18" class="edge">
<title>theory:eBalanceOnPCMRC&#45;&gt;dataDefn:meltFrac</title>
<path fill="none" stroke="black" d="M125.16,-71.7C128.38,-63.9 129.27,-54.51 127.84,-45.83"/>
<polygon fill="black" stroke="black" points="131.17,-44.77 125.08,-36.1 124.44,-46.68 131.17,-44.77"/>
</g>
<!-- theory&#45;&gt;dataDefn -->
<g id="edge24" class="edge">
<title>theory:heatEInPCMRC&#45;&gt;dataDefn:htFusion</title>
<path fill="none" stroke="black" d="M136.99,-71.7C141.87,-63.81 143.19,-54.3 140.93,-45.55"/>
<polygon fill="black" stroke="black" points="144.04,-43.91 136.87,-36.1 137.61,-46.67 144.04,-43.91"/>
</g>
<!-- theory&#45;&gt;theory -->
<g id="edge3" class="edge">
<title>theory:sensHeat&#45;&gt;theory:latentHtETM</title>
<path fill="none" stroke="black" d="M167.5,-72C173,-54 185,-54 185,-81 185,-87.52 181.75,-92.46 176.44,-95.96"/>
<polygon fill="black" stroke="black" points="174.99,-92.77 167.31,-100.07 177.86,-99.16 174.99,-92.77"/>
</g>
<!-- theory&#45;&gt;theory -->
<g id="edge5" class="edge">
<title>theory:rocTempSimpRC&#45;&gt;theory:consThermECS</title>
<path fill="none" stroke="black" d="M167.31,-91.38C177.81,-91.18 185,-90.72 185,-90 185,-89.55 182.19,-89.2 177.52,-88.96"/>
<polygon fill="black" stroke="black" points="177.42,-85.45 167.31,-88.62 177.19,-92.45 177.42,-85.45"/>
</g>
<!-- theory&#45;&gt;theory -->
<g id="edge6" class="edge">
<title>theory:rocTempSimpRC&#45;&gt;theory:rocTempSimpRC</title>
<path fill="none" stroke="black" d="M167.4,-93C187.38,-92.92 203,-91.92 203,-90 203,-88.42 192.49,-87.47 177.68,-87.13"/>
<polygon fill="black" stroke="black" points="177.44,-83.63 167.4,-87 177.35,-90.63 177.44,-83.63"/>
</g>
<!-- theory&#45;&gt;theory -->
<g id="edge7" class="edge">
<title>theory:htFluxC&#45;&gt;theory:nwtnCoolingTM</title>
<path fill="none" stroke="black" d="M35.69,-86.15C25.19,-88.39 18,-92.53 18,-99 18,-109.97 22.46,-114.25 27.18,-113.89"/>
<polygon fill="black" stroke="black" points="29.36,-116.64 35.5,-108 25.32,-110.92 29.36,-116.64"/>
</g>
<!-- theory&#45;&gt;theory -->
<g id="edge8" class="edge">
<title>theory:htFluxP&#45;&gt;theory:nwtnCoolingTM</title>
<path fill="none" stroke="black" d="M35.6,-77.78C15.62,-79.29 0,-86.03 0,-99 0,-121.36 16.46,-125.2 28.65,-115.64"/>
<polygon fill="black" stroke="black" points="31.43,-117.78 35.5,-108 26.22,-113.11 31.43,-117.78"/>
</g>
<!-- theory&#45;&gt;theory -->
<g id="edge11" class="edge">
<title>theory:eBalanceOnWtrRC&#45;&gt;theory:rocTempSimpRC</title>
<path fill="none" stroke="black" d="M167.25,-94.44C196.14,-94.83 221,-93.35 221,-90 221,-87.05 201.8,-85.55 177.53,-85.5"/>
<polygon fill="black" stroke="black" points="177.23,-82 167.25,-85.56 177.27,-89 177.23,-82"/>
</g>
<!-- theory&#45;&gt;theory -->
<g id="edge12" class="edge">
<title>theory:eBalanceOnWtrRC&#45;&gt;theory:htFluxC</title>
<path fill="none" stroke="black" d="M167.28,-95.69C204.52,-96.8 239,-94.91 239,-90 239,-85.55 210.68,-83.58 177.66,-84.07"/>
<polygon fill="black" stroke="black" points="177.2,-80.58 167.28,-84.31 177.36,-87.58 177.2,-80.58"/>
</g>
<!-- theory&#45;&gt;theory -->
<g id="edge13" class="edge">
<title>theory:eBalanceOnWtrRC&#45;&gt;theory:htFluxP</title>
<path fill="none" stroke="black" d="M167.01,-96.77C212.35,-98.82 257,-96.56 257,-90 257,-83.92 218.74,-81.54 177.08,-82.85"/>
<polygon fill="black" stroke="black" points="176.87,-79.35 167.01,-83.23 177.14,-86.35 176.87,-79.35"/>
</g>
<!-- theory&#45;&gt;theory -->
<g id="edge14" class="edge">
<title>theory:eBalanceOnWtrRC&#45;&gt;theory:eBalanceOnWtrRC</title>
<path fill="none" stroke="black" d="M167.37,-97.73C220.33,-100.83 275,-98.25 275,-90 275,-82.28 227.15,-79.53 177.61,-81.74"/>
<polygon fill="black" stroke="black" points="177.17,-78.26 167.37,-82.27 177.53,-85.25 177.17,-78.26"/>
</g>
<!-- theory&#45;&gt;theory -->
<g id="edge15" class="edge">
<title>theory:eBalanceOnWtrRC&#45;&gt;theory:eBalanceOnPCMRC</title>
<path fill="none" stroke="black" d="M167.24,-98.56C227.76,-102.86 293,-100.01 293,-90 293,-80.56 234.94,-77.48 177.56,-80.78"/>
<polygon fill="black" stroke="black" points="176.99,-77.31 167.24,-81.44 177.44,-84.29 176.99,-77.31"/>
</g>
<!-- theory&#45;&gt;theory -->
<g id="edge19" class="edge">
<title>theory:eBalanceOnPCMRC&#45;&gt;theory:rocTempSimpRC</title>
<path fill="none" stroke="black" d="M167.19,-99.3C235.07,-104.9 311,-101.8 311,-90 311,-78.78 242.31,-75.43 177.19,-79.95"/>
<polygon fill="black" stroke="black" points="176.9,-76.46 167.19,-80.7 177.43,-83.44 176.9,-76.46"/>
</g>
<!-- theory&#45;&gt;theory -->
<g id="edge20" class="edge">
<title>theory:eBalanceOnPCMRC&#45;&gt;theory:htFluxP</title>
<path fill="none" stroke="black" d="M167,-99.94C242.13,-106.94 329,-103.62 329,-90 329,-76.99 249.76,-73.38 177.19,-79.18"/>
<polygon fill="black" stroke="black" points="176.66,-75.71 167,-80.06 177.26,-82.69 176.66,-75.71"/>
</g>
<!-- theory&#45;&gt;theory -->
<g id="edge21" class="edge">
<title>theory:eBalanceOnPCMRC&#45;&gt;theory:eBalanceOnWtrRC</title>
<path fill="none" stroke="black" d="M167.18,-100.55C249.34,-108.96 347,-105.45 347,-90 347,-75.18 257.19,-71.34 177.36,-78.48"/>
<polygon fill="black" stroke="black" points="176.8,-75.02 167.18,-79.45 177.47,-81.98 176.8,-75.02"/>
</g>
<!-- theory&#45;&gt;theory -->
<g id="edge22" class="edge">
<title>theory:eBalanceOnPCMRC&#45;&gt;theory:heatEInPCMRC</title>
<path fill="none" stroke="black" d="M167.33,-101.1C256.44,-110.99 365,-107.29 365,-90 365,-73.35 264.35,-69.3 177.32,-77.86"/>
<polygon fill="black" stroke="black" points="176.91,-74.38 167.33,-78.9 177.64,-81.34 176.91,-74.38"/>
</g>
<!-- theory&#45;&gt;theory -->
<g id="edge23" class="edge">
<title>theory:heatEInWtrIM&#45;&gt;theory:sensHeat</title>
<path fill="none" stroke="black" d="M167.31,-93.85C177.81,-91.61 185,-87.47 185,-81 185,-70.03 180.54,-65.75 175.82,-66.11"/>
<polygon fill="black" stroke="black" points="173.64,-63.36 167.5,-72 177.68,-69.08 173.64,-63.36"/>
</g>
<!-- theory&#45;&gt;theory -->
<g id="edge25" class="edge">
<title>theory:heatEInPCMRC&#45;&gt;theory:sensHeat</title>
<path fill="none" stroke="black" d="M167.4,-102.22C187.38,-100.71 203,-93.97 203,-81 203,-58.64 186.54,-54.8 174.35,-64.36"/>
<polygon fill="black" stroke="black" points="171.57,-62.22 167.5,-72 176.78,-66.89 171.57,-62.22"/>
</g>
<!-- theory&#45;&gt;theory -->
<g id="edge26" class="edge">
<title>theory:heatEInPCMRC&#45;&gt;theory:latentHtETM</title>
<path fill="none" stroke="black" d="M167.23,-101.57C263.24,-113.03 383,-109.17 383,-90 383,-71.5 271.52,-67.26 177.44,-77.28"/>
<polygon fill="black" stroke="black" points="176.77,-73.83 167.23,-78.43 177.56,-80.79 176.77,-73.83"/>
</g>
</g>
</svg>
