<?xml version="1.0" encoding="UTF-8" standalone="no"?>
<!DOCTYPE svg PUBLIC "-//W3C//DTD SVG 1.1//EN"
 "http://www.w3.org/Graphics/SVG/1.1/DTD/svg11.dtd">
<!-- Generated by graphviz version 2.43.0 (0)
 -->
<!-- Title: allvsr Pages: 1 -->
<svg width="4330pt" height="116pt"
 viewBox="0.00 0.00 4329.50 116.00" xmlns="http://www.w3.org/2000/svg" xmlns:xlink="http://www.w3.org/1999/xlink">
<g id="graph0" class="graph" transform="scale(1 1) rotate(0) translate(4 112)">
<title>allvsr</title>
<polygon fill="white" stroke="transparent" points="-4,4 -4,-112 4325.5,-112 4325.5,4 -4,4"/>
<!-- calculateValues -->
<g id="node1" class="node">
<title>calculateValues</title>
<polygon fill="ivory" stroke="black" points="152,-108 0,-108 0,-72 152,-72 152,-108"/>
<text text-anchor="middle" x="76" y="-86.3" font-family="Times,serif" font-size="14.00">FR:calculateValues</text>
</g>
<!-- imPDRC -->
<g id="node2" class="node">
<title>imPDRC</title>
<polygon fill="#fff68f" stroke="black" points="228.5,-36 85.5,-36 85.5,0 228.5,0 228.5,-36"/>
<text text-anchor="middle" x="157" y="-14.3" font-family="Times,serif" font-size="14.00">IM:pdEquationIM</text>
</g>
<!-- calculateValues&#45;&gt;imPDRC -->
<g id="edge1" class="edge">
<title>calculateValues&#45;&gt;imPDRC</title>
<path fill="none" stroke="black" d="M96.02,-71.7C106.13,-62.97 118.54,-52.24 129.52,-42.75"/>
<polygon fill="black" stroke="black" points="131.93,-45.29 137.21,-36.1 127.35,-39.99 131.93,-45.29"/>
</g>
<!-- outputValues -->
<g id="node3" class="node">
<title>outputValues</title>
<polygon fill="ivory" stroke="black" points="305.5,-108 170.5,-108 170.5,-72 305.5,-72 305.5,-108"/>
<text text-anchor="middle" x="238" y="-86.3" font-family="Times,serif" font-size="14.00">FR:outputValues</text>
</g>
<!-- outputValues&#45;&gt;imPDRC -->
<g id="edge2" class="edge">
<title>outputValues&#45;&gt;imPDRC</title>
<path fill="none" stroke="black" d="M217.98,-71.7C207.87,-62.97 195.46,-52.24 184.48,-42.75"/>
<polygon fill="black" stroke="black" points="186.65,-39.99 176.79,-36.1 182.07,-45.29 186.65,-39.99"/>
</g>
<!-- pwrPlant -->
<g id="node4" class="node">
<title>pwrPlant</title>
<polygon fill="mistyrose" stroke="black" points="420,-108 324,-108 324,-72 420,-72 420,-108"/>
<text text-anchor="middle" x="372" y="-86.3" font-family="Times,serif" font-size="14.00">A:pwrPlant</text>
</g>
<!-- decoupled -->
<g id="node5" class="node">
<title>decoupled</title>
<polygon fill="mistyrose" stroke="black" points="542,-108 438,-108 438,-72 542,-72 542,-108"/>
<text text-anchor="middle" x="490" y="-86.3" font-family="Times,serif" font-size="14.00">A:decoupled</text>
</g>
<!-- setPoint -->
<g id="node6" class="node">
<title>setPoint</title>
<polygon fill="mistyrose" stroke="black" points="649.5,-108 560.5,-108 560.5,-72 649.5,-72 649.5,-108"/>
<text text-anchor="middle" x="605" y="-86.3" font-family="Times,serif" font-size="14.00">A:setPoint</text>
</g>
<!-- externalDisturb -->
<g id="node7" class="node">
<title>externalDisturb</title>
<polygon fill="mistyrose" stroke="black" points="812,-108 668,-108 668,-72 812,-72 812,-108"/>
<text text-anchor="middle" x="740" y="-86.3" font-family="Times,serif" font-size="14.00">A:externalDisturb</text>
</g>
<!-- initialValue -->
<g id="node8" class="node">
<title>initialValue</title>
<polygon fill="mistyrose" stroke="black" points="941.5,-108 830.5,-108 830.5,-72 941.5,-72 941.5,-108"/>
<text text-anchor="middle" x="886" y="-86.3" font-family="Times,serif" font-size="14.00">A:initialValue</text>
</g>
<!-- parallelEq -->
<g id="node9" class="node">
<title>parallelEq</title>
<polygon fill="mistyrose" stroke="black" points="1064,-108 960,-108 960,-72 1064,-72 1064,-108"/>
<text text-anchor="middle" x="1012" y="-86.3" font-family="Times,serif" font-size="14.00">A:parallelEq</text>
</g>
<!-- unfilteredDerivative -->
<g id="node10" class="node">
<title>unfilteredDerivative</title>
<polygon fill="mistyrose" stroke="black" points="1257.5,-108 1082.5,-108 1082.5,-72 1257.5,-72 1257.5,-108"/>
<text text-anchor="middle" x="1170" y="-86.3" font-family="Times,serif" font-size="14.00">A:unfilteredDerivative</text>
</g>
<!-- pwrPlantTxFnx -->
<g id="node11" class="node">
<title>pwrPlantTxFnx</title>
<polygon fill="mistyrose" stroke="black" points="1416,-108 1276,-108 1276,-72 1416,-72 1416,-108"/>
<text text-anchor="middle" x="1346" y="-86.3" font-family="Times,serif" font-size="14.00">A:pwrPlantTxFnx</text>
</g>
<!-- massSpring -->
<g id="node12" class="node">
<title>massSpring</title>
<polygon fill="mistyrose" stroke="black" points="1550,-108 1434,-108 1434,-72 1550,-72 1550,-108"/>
<text text-anchor="middle" x="1492" y="-86.3" font-family="Times,serif" font-size="14.00">A:massSpring</text>
</g>
<!-- dampingCoeffSpring -->
<g id="node13" class="node">
<title>dampingCoeffSpring</title>
<polygon fill="mistyrose" stroke="black" points="1746,-108 1568,-108 1568,-72 1746,-72 1746,-108"/>
<text text-anchor="middle" x="1657" y="-86.3" font-family="Times,serif" font-size="14.00">A:dampingCoeffSpring</text>
</g>
<!-- stiffnessCoeffSpring -->
<g id="node14" class="node">
<title>stiffnessCoeffSpring</title>
<polygon fill="mistyrose" stroke="black" points="1940,-108 1764,-108 1764,-72 1940,-72 1940,-108"/>
<text text-anchor="middle" x="1852" y="-86.3" font-family="Times,serif" font-size="14.00">A:stiffnessCoeffSpring</text>
</g>
<!-- qdProcessErrorFD -->
<g id="node15" class="node">
<title>qdProcessErrorFD</title>
<polygon fill="#bbffff" stroke="black" points="2114,-108 1958,-108 1958,-72 2114,-72 2114,-108"/>
<text text-anchor="middle" x="2036" y="-86.3" font-family="Times,serif" font-size="14.00">DD:ddProcessError</text>
</g>
<!-- qdPropControlFD -->
<g id="node16" class="node">
<title>qdPropControlFD</title>
<polygon fill="#bbffff" stroke="black" points="2255.5,-108 2132.5,-108 2132.5,-72 2255.5,-72 2255.5,-108"/>
<text text-anchor="middle" x="2194" y="-86.3" font-family="Times,serif" font-size="14.00">DD:ddPropCtrl</text>
</g>
<!-- qdDerivativeControlFD -->
<g id="node17" class="node">
<title>qdDerivativeControlFD</title>
<polygon fill="#bbffff" stroke="black" points="2402,-108 2274,-108 2274,-72 2402,-72 2402,-108"/>
<text text-anchor="middle" x="2338" y="-86.3" font-family="Times,serif" font-size="14.00">DD:ddDerivCtrl</text>
</g>
<!-- qdCtrlVarFD -->
<g id="node18" class="node">
<title>qdCtrlVarFD</title>
<polygon fill="#bbffff" stroke="black" points="2533.5,-108 2420.5,-108 2420.5,-72 2533.5,-72 2533.5,-108"/>
<text text-anchor="middle" x="2477" y="-86.3" font-family="Times,serif" font-size="14.00">DD:ddCtrlVar</text>
</g>
<!-- laplaceRC -->
<g id="node19" class="node">
<title>laplaceRC</title>
<polygon fill="pink" stroke="black" points="2720.5,-108 2551.5,-108 2551.5,-72 2720.5,-72 2720.5,-108"/>
<text text-anchor="middle" x="2636" y="-86.3" font-family="Times,serif" font-size="14.00">TM:laplaceTransform</text>
</g>
<!-- invLaplaceRC -->
<g id="node20" class="node">
<title>invLaplaceRC</title>
<polygon fill="pink" stroke="black" points="2933.5,-108 2738.5,-108 2738.5,-72 2933.5,-72 2933.5,-108"/>
<text text-anchor="middle" x="2836" y="-86.3" font-family="Times,serif" font-size="14.00">TM:invLaplaceTransform</text>
</g>
<!-- tmSOSystemRC -->
<g id="node21" class="node">
<title>tmSOSystemRC</title>
<polygon fill="pink" stroke="black" points="3090,-108 2952,-108 2952,-72 3090,-72 3090,-108"/>
<text text-anchor="middle" x="3021" y="-86.3" font-family="Times,serif" font-size="14.00">TM:tmSOSystem</text>
</g>
<!-- gdPowerPlantRC -->
<g id="node22" class="node">
<title>gdPowerPlantRC</title>
<polygon fill="palegreen" stroke="black" points="3251.5,-108 3108.5,-108 3108.5,-72 3251.5,-72 3251.5,-108"/>
<text text-anchor="middle" x="3180" y="-86.3" font-family="Times,serif" font-size="14.00">GD:gdPowerPlant</text>
</g>
<!-- inputValues -->
<g id="node23" class="node">
<title>inputValues</title>
<polygon fill="ivory" stroke="black" points="3394.5,-108 3269.5,-108 3269.5,-72 3394.5,-72 3394.5,-108"/>
<text text-anchor="middle" x="3332" y="-86.3" font-family="Times,serif" font-size="14.00">FR:inputValues</text>
</g>
<!-- verifyInputs -->
<g id="node24" class="node">
<title>verifyInputs</title>
<polygon fill="ivory" stroke="black" points="3541,-108 3413,-108 3413,-72 3541,-72 3541,-108"/>
<text text-anchor="middle" x="3477" y="-86.3" font-family="Times,serif" font-size="14.00">FR:verifyInputs</text>
</g>
<!-- portability -->
<g id="node25" class="node">
<title>portability</title>
<polygon fill="ivory" stroke="black" points="3687,-108 3559,-108 3559,-72 3687,-72 3687,-108"/>
<text text-anchor="middle" x="3623" y="-86.3" font-family="Times,serif" font-size="14.00">NFR:portability</text>
</g>
<!-- security -->
<g id="node26" class="node">
<title>security</title>
<polygon fill="ivory" stroke="black" points="3816.5,-108 3705.5,-108 3705.5,-72 3816.5,-72 3816.5,-108"/>
<text text-anchor="middle" x="3761" y="-86.3" font-family="Times,serif" font-size="14.00">NFR:security</text>
</g>
<!-- maintainability -->
<g id="node27" class="node">
<title>maintainability</title>
<polygon fill="ivory" stroke="black" points="3995.5,-108 3834.5,-108 3834.5,-72 3995.5,-72 3995.5,-108"/>
<text text-anchor="middle" x="3915" y="-86.3" font-family="Times,serif" font-size="14.00">NFR:maintainability</text>
</g>
<!-- verifiability -->
<g id="node28" class="node">
<title>verifiability</title>
<polygon fill="ivory" stroke="black" points="4148.5,-108 4013.5,-108 4013.5,-72 4148.5,-72 4148.5,-108"/>
<text text-anchor="middle" x="4081" y="-86.3" font-family="Times,serif" font-size="14.00">NFR:verifiability</text>
</g>
<!-- processVariable -->
<g id="node29" class="node">
<title>processVariable</title>
<polygon fill="#ffb90f" stroke="black" points="4321.5,-108 4166.5,-108 4166.5,-72 4321.5,-72 4321.5,-108"/>
<text text-anchor="middle" x="4244" y="-86.3" font-family="Times,serif" font-size="14.00">GS:processVariable</text>
</g>
</g>
</svg>
