<?xml version="1.0" encoding="UTF-8" standalone="no"?>
<!DOCTYPE svg PUBLIC "-//W3C//DTD SVG 1.1//EN"
 "http://www.w3.org/Graphics/SVG/1.1/DTD/svg11.dtd">
<!-- Generated by graphviz version 2.43.0 (0)
 -->
<!-- Title: allvsall Pages: 1 -->
<svg width="2190pt" height="188pt"
 viewBox="0.00 0.00 2189.50 188.00" xmlns="http://www.w3.org/2000/svg" xmlns:xlink="http://www.w3.org/1999/xlink">
<g id="graph0" class="graph" transform="scale(1 1) rotate(0) translate(4 184)">
<title>allvsall</title>
<polygon fill="white" stroke="transparent" points="-4,4 -4,-184 2185.5,-184 2185.5,4 -4,4"/>
<!-- pwrPlantTxFnx -->
<g id="node1" class="node">
<title>pwrPlantTxFnx</title>
<polygon fill="mistyrose" stroke="black" points="664,-36 524,-36 524,0 664,0 664,-36"/>
<text text-anchor="middle" x="594" y="-14.3" font-family="Times,serif" font-size="14.00">A:pwrPlantTxFnx</text>
</g>
<!-- pwrPlant -->
<g id="node2" class="node">
<title>pwrPlant</title>
<polygon fill="mistyrose" stroke="black" points="940,-36 844,-36 844,0 940,0 940,-36"/>
<text text-anchor="middle" x="892" y="-14.3" font-family="Times,serif" font-size="14.00">A:pwrPlant</text>
</g>
<!-- pwrPlantTxFnx&#45;&gt;pwrPlant -->
<g id="edge1" class="edge">
<title>pwrPlantTxFnx&#45;&gt;pwrPlant</title>
<path fill="none" stroke="black" d="M629.41,-36.16C645.09,-43.23 664.02,-50.46 682,-54 744.8,-66.35 763.98,-69.81 826,-54 836.64,-51.29 847.41,-46.47 857.08,-41.23"/>
<polygon fill="black" stroke="black" points="859.05,-44.13 865.98,-36.12 855.56,-38.06 859.05,-44.13"/>
</g>
<!-- massSpring -->
<g id="node3" class="node">
<title>massSpring</title>
<polygon fill="mistyrose" stroke="black" points="506,-36 390,-36 390,0 506,0 506,-36"/>
<text text-anchor="middle" x="448" y="-14.3" font-family="Times,serif" font-size="14.00">A:massSpring</text>
</g>
<!-- massSpring&#45;&gt;pwrPlant -->
<g id="edge2" class="edge">
<title>massSpring&#45;&gt;pwrPlant</title>
<path fill="none" stroke="black" d="M478.31,-36.14C491.8,-43.2 508.19,-50.44 524,-54 589.48,-68.72 760.97,-70.58 826,-54 836.64,-51.29 847.41,-46.47 857.08,-41.23"/>
<polygon fill="black" stroke="black" points="859.05,-44.13 865.98,-36.12 855.56,-38.06 859.05,-44.13"/>
</g>
<!-- dampingCoeffSpring -->
<g id="node4" class="node">
<title>dampingCoeffSpring</title>
<polygon fill="mistyrose" stroke="black" points="372,-36 194,-36 194,0 372,0 372,-36"/>
<text text-anchor="middle" x="283" y="-14.3" font-family="Times,serif" font-size="14.00">A:dampingCoeffSpring</text>
</g>
<!-- dampingCoeffSpring&#45;&gt;pwrPlant -->
<g id="edge3" class="edge">
<title>dampingCoeffSpring&#45;&gt;pwrPlant</title>
<path fill="none" stroke="black" d="M326.17,-36.09C345.36,-43.18 368.43,-50.47 390,-54 485.62,-69.65 732.12,-77.94 826,-54 836.64,-51.29 847.41,-46.47 857.08,-41.23"/>
<polygon fill="black" stroke="black" points="859.05,-44.13 865.98,-36.12 855.56,-38.06 859.05,-44.13"/>
</g>
<!-- stiffnessCoeffSpring -->
<g id="node5" class="node">
<title>stiffnessCoeffSpring</title>
<polygon fill="mistyrose" stroke="black" points="176,-36 0,-36 0,0 176,0 176,-36"/>
<text text-anchor="middle" x="88" y="-14.3" font-family="Times,serif" font-size="14.00">A:stiffnessCoeffSpring</text>
</g>
<!-- stiffnessCoeffSpring&#45;&gt;pwrPlant -->
<g id="edge4" class="edge">
<title>stiffnessCoeffSpring&#45;&gt;pwrPlant</title>
<path fill="none" stroke="black" d="M130.76,-36.09C149.76,-43.18 172.62,-50.47 194,-54 263.28,-65.44 757.96,-71.35 826,-54 836.64,-51.29 847.41,-46.47 857.08,-41.23"/>
<polygon fill="black" stroke="black" points="859.05,-44.13 865.98,-36.12 855.56,-38.06 859.05,-44.13"/>
</g>
<!-- dataDefn -->
<g id="node6" class="node">
<title>dataDefn</title>
<polygon fill="#bbffff" stroke="black" points="1054.5,-180 941.5,-180 941.5,-144 1054.5,-144 1054.5,-180"/>
<text text-anchor="middle" x="998" y="-158.3" font-family="Times,serif" font-size="14.00">DD:ddCtrlVar</text>
</g>
<!-- dataDefn&#45;&gt;dataDefn -->
<g id="edge8" class="edge">
<title>dataDefn:qdPropControlFD&#45;&gt;dataDefn:qdProcessErrorFD</title>
<path fill="none" stroke="black" d="M1054.53,-165.2C1065.07,-164.81 1072.5,-163.74 1072.5,-162 1072.5,-160.91 1069.6,-160.09 1064.85,-159.53"/>
<polygon fill="black" stroke="black" points="1064.75,-156.01 1054.53,-158.8 1064.25,-162.99 1064.75,-156.01"/>
</g>
<!-- dataDefn&#45;&gt;dataDefn -->
<g id="edge11" class="edge">
<title>dataDefn:qdDerivativeControlFD&#45;&gt;dataDefn:qdProcessErrorFD</title>
<path fill="none" stroke="black" d="M1054.91,-168.75C1074.6,-168.82 1090.5,-166.57 1090.5,-162 1090.5,-158.25 1079.8,-156.06 1065.08,-155.44"/>
<polygon fill="black" stroke="black" points="1064.97,-151.94 1054.91,-155.25 1064.84,-158.93 1064.97,-151.94"/>
</g>
<!-- dataDefn&#45;&gt;dataDefn -->
<g id="edge15" class="edge">
<title>dataDefn:qdCtrlVarFD&#45;&gt;dataDefn:qdPropControlFD</title>
<path fill="none" stroke="black" d="M1054.57,-171.81C1083.04,-173.21 1108.5,-169.94 1108.5,-162 1108.5,-155.02 1088.83,-151.65 1064.74,-151.89"/>
<polygon fill="black" stroke="black" points="1064.46,-148.39 1054.57,-152.19 1064.67,-155.39 1064.46,-148.39"/>
</g>
<!-- dataDefn&#45;&gt;dataDefn -->
<g id="edge16" class="edge">
<title>dataDefn:qdCtrlVarFD&#45;&gt;dataDefn:qdDerivativeControlFD</title>
<path fill="none" stroke="black" d="M1054.81,-174.43C1091.34,-177.68 1126.5,-173.53 1126.5,-162 1126.5,-151.55 1097.63,-147.17 1065.02,-148.85"/>
<polygon fill="black" stroke="black" points="1064.54,-145.38 1054.81,-149.57 1065.03,-152.36 1064.54,-145.38"/>
</g>
<!-- setPoint -->
<g id="node7" class="node">
<title>setPoint</title>
<polygon fill="mistyrose" stroke="black" points="1047.5,-36 958.5,-36 958.5,0 1047.5,0 1047.5,-36"/>
<text text-anchor="middle" x="1003" y="-14.3" font-family="Times,serif" font-size="14.00">A:setPoint</text>
</g>
<!-- dataDefn&#45;&gt;setPoint -->
<g id="edge5" class="edge">
<title>dataDefn:qdProcessErrorFD&#45;&gt;setPoint</title>
<path fill="none" stroke="black" d="M998.6,-143.87C999.46,-119.67 1001.02,-75.21 1002.04,-46.39"/>
<polygon fill="black" stroke="black" points="1005.54,-46.31 1002.39,-36.19 998.54,-46.06 1005.54,-46.31"/>
</g>
<!-- initialValue -->
<g id="node8" class="node">
<title>initialValue</title>
<polygon fill="mistyrose" stroke="black" points="1299.5,-36 1188.5,-36 1188.5,0 1299.5,0 1299.5,-36"/>
<text text-anchor="middle" x="1244" y="-14.3" font-family="Times,serif" font-size="14.00">A:initialValue</text>
</g>
<!-- dataDefn&#45;&gt;initialValue -->
<g id="edge6" class="edge">
<title>dataDefn:qdProcessErrorFD&#45;&gt;initialValue</title>
<path fill="none" stroke="black" d="M1027.67,-143.87C1072.19,-118.18 1156.25,-69.65 1205.46,-41.25"/>
<polygon fill="black" stroke="black" points="1207.31,-44.22 1214.22,-36.19 1203.81,-38.16 1207.31,-44.22"/>
</g>
<!-- theory -->
<g id="node9" class="node">
<title>theory</title>
<polygon fill="#fff68f" stroke="black" points="902.5,-108 759.5,-108 759.5,-72 902.5,-72 902.5,-108"/>
<text text-anchor="middle" x="831" y="-86.3" font-family="Times,serif" font-size="14.00">IM:pdEquationIM</text>
</g>
<!-- dataDefn&#45;&gt;theory -->
<g id="edge7" class="edge">
<title>dataDefn:qdProcessErrorFD&#45;&gt;theory:laplaceRC</title>
<path fill="none" stroke="black" d="M941.03,-146.5C912.55,-136.68 880.28,-123.53 857.17,-112.5"/>
<polygon fill="black" stroke="black" points="858.69,-109.35 848.17,-108.08 855.6,-115.63 858.69,-109.35"/>
</g>
<!-- dataDefn&#45;&gt;theory -->
<g id="edge9" class="edge">
<title>dataDefn:qdPropControlFD&#45;&gt;theory:laplaceRC</title>
<path fill="none" stroke="black" d="M945.35,-143.88C920.63,-134.35 891.89,-122.41 869.24,-112.28"/>
<polygon fill="black" stroke="black" points="870.49,-109.01 859.94,-108.07 867.6,-115.38 870.49,-109.01"/>
</g>
<!-- dataDefn&#45;&gt;theory -->
<g id="edge12" class="edge">
<title>dataDefn:qdDerivativeControlFD&#45;&gt;theory:laplaceRC</title>
<path fill="none" stroke="black" d="M957.15,-143.88C934.22,-134.26 905.42,-122.19 881.13,-112.01"/>
<polygon fill="black" stroke="black" points="882.3,-108.71 871.72,-108.07 879.59,-115.16 882.3,-108.71"/>
</g>
<!-- unfilteredDerivative -->
<g id="node10" class="node">
<title>unfilteredDerivative</title>
<polygon fill="mistyrose" stroke="black" points="1492.5,-36 1317.5,-36 1317.5,0 1492.5,0 1492.5,-36"/>
<text text-anchor="middle" x="1405" y="-14.3" font-family="Times,serif" font-size="14.00">A:unfilteredDerivative</text>
</g>
<!-- dataDefn&#45;&gt;unfilteredDerivative -->
<g id="edge10" class="edge">
<title>dataDefn:qdDerivativeControlFD&#45;&gt;unfilteredDerivative</title>
<path fill="none" stroke="black" d="M1047.09,-143.87C1122.37,-117.61 1266.01,-67.49 1346.55,-39.39"/>
<polygon fill="black" stroke="black" points="1347.76,-42.68 1356.05,-36.08 1345.45,-36.07 1347.76,-42.68"/>
</g>
<!-- decoupled -->
<g id="node11" class="node">
<title>decoupled</title>
<polygon fill="mistyrose" stroke="black" points="1615,-36 1511,-36 1511,0 1615,0 1615,-36"/>
<text text-anchor="middle" x="1563" y="-14.3" font-family="Times,serif" font-size="14.00">A:decoupled</text>
</g>
<!-- dataDefn&#45;&gt;decoupled -->
<g id="edge13" class="edge">
<title>dataDefn:qdCtrlVarFD&#45;&gt;decoupled</title>
<path fill="none" stroke="black" d="M1054.84,-147.52C1146.55,-125.63 1333.06,-80.56 1501.02,-36.23"/>
<polygon fill="black" stroke="black" points="1502.01,-39.59 1510.78,-33.65 1500.22,-32.82 1502.01,-39.59"/>
</g>
<!-- parallelEq -->
<g id="node12" class="node">
<title>parallelEq</title>
<polygon fill="mistyrose" stroke="black" points="1170,-36 1066,-36 1066,0 1170,0 1170,-36"/>
<text text-anchor="middle" x="1118" y="-14.3" font-family="Times,serif" font-size="14.00">A:parallelEq</text>
</g>
<!-- dataDefn&#45;&gt;parallelEq -->
<g id="edge14" class="edge">
<title>dataDefn:qdCtrlVarFD&#45;&gt;parallelEq</title>
<path fill="none" stroke="black" d="M1012.47,-143.87C1033.47,-119.03 1072.5,-72.85 1096.75,-44.14"/>
<polygon fill="black" stroke="black" points="1099.69,-46.09 1103.47,-36.19 1094.35,-41.57 1099.69,-46.09"/>
</g>
<!-- theory&#45;&gt;pwrPlantTxFnx -->
<g id="edge17" class="edge">
<title>theory:tmSOSystemRC&#45;&gt;pwrPlantTxFnx</title>
<path fill="none" stroke="black" d="M773.33,-71.97C739.64,-62.01 696.95,-49.41 661.67,-38.99"/>
<polygon fill="black" stroke="black" points="662.51,-35.59 651.93,-36.11 660.53,-42.3 662.51,-35.59"/>
</g>
<!-- theory&#45;&gt;massSpring -->
<g id="edge19" class="edge">
<title>theory:gdPowerPlantRC&#45;&gt;massSpring</title>
<path fill="none" stroke="black" d="M759.46,-78.72C697.53,-69.43 605.38,-54.66 516.07,-36.14"/>
<polygon fill="black" stroke="black" points="516.54,-32.66 506.04,-34.04 515.11,-39.51 516.54,-32.66"/>
</g>
<!-- theory&#45;&gt;dampingCoeffSpring -->
<g id="edge20" class="edge">
<title>theory:gdPowerPlantRC&#45;&gt;dampingCoeffSpring</title>
<path fill="none" stroke="black" d="M759.14,-81.76C672.26,-72.73 521.39,-56.17 382.17,-36.13"/>
<polygon fill="black" stroke="black" points="382.56,-32.65 372.17,-34.68 381.56,-39.58 382.56,-32.65"/>
</g>
<!-- theory&#45;&gt;stiffnessCoeffSpring -->
<g id="edge21" class="edge">
<title>theory:gdPowerPlantRC&#45;&gt;stiffnessCoeffSpring</title>
<path fill="none" stroke="black" d="M759.08,-85.26C641.42,-78.66 400.29,-63.15 186.4,-36.11"/>
<polygon fill="black" stroke="black" points="186.6,-32.61 176.24,-34.82 185.71,-39.55 186.6,-32.61"/>
</g>
<!-- theory&#45;&gt;dataDefn -->
<g id="edge25" class="edge">
<title>theory:imPDRC&#45;&gt;dataDefn:qdProcessErrorFD</title>
<path fill="none" stroke="black" d="M883.5,-108.07C908.21,-117.59 936.95,-129.53 959.62,-139.66"/>
<polygon fill="black" stroke="black" points="958.39,-142.94 968.94,-143.88 961.28,-136.56 958.39,-142.94"/>
</g>
<!-- theory&#45;&gt;dataDefn -->
<g id="edge26" class="edge">
<title>theory:imPDRC&#45;&gt;dataDefn:qdCtrlVarFD</title>
<path fill="none" stroke="black" d="M895.29,-108.07C921.75,-117.5 950.47,-129.31 971.6,-139.39"/>
<polygon fill="black" stroke="black" points="970.22,-142.61 980.74,-143.88 973.3,-136.32 970.22,-142.61"/>
</g>
<!-- theory&#45;&gt;setPoint -->
<g id="edge24" class="edge">
<title>theory:imPDRC&#45;&gt;setPoint</title>
<path fill="none" stroke="black" d="M873.08,-71.88C896.8,-62.22 926.62,-50.09 951.7,-39.88"/>
<polygon fill="black" stroke="black" points="953.12,-43.08 961.06,-36.07 950.48,-36.6 953.12,-43.08"/>
</g>
<!-- theory&#45;&gt;theory -->
<g id="edge22" class="edge">
<title>theory:gdPowerPlantRC&#45;&gt;theory:laplaceRC</title>
<path fill="none" stroke="black" d="M902.63,-93.06C913.29,-92.59 920.5,-91.56 920.5,-90 920.5,-89 917.54,-88.22 912.61,-87.66"/>
<polygon fill="black" stroke="black" points="912.85,-84.17 902.63,-86.94 912.35,-91.15 912.85,-84.17"/>
</g>
<!-- theory&#45;&gt;theory -->
<g id="edge23" class="edge">
<title>theory:gdPowerPlantRC&#45;&gt;theory:tmSOSystemRC</title>
<path fill="none" stroke="black" d="M902.59,-96.72C922.88,-96.44 938.5,-94.2 938.5,-90 938.5,-86.52 927.79,-84.39 912.58,-83.6"/>
<polygon fill="black" stroke="black" points="912.69,-80.1 902.59,-83.28 912.47,-87.1 912.69,-80.1"/>
</g>
<!-- theory&#45;&gt;theory -->
<g id="edge27" class="edge">
<title>theory:imPDRC&#45;&gt;theory:invLaplaceRC</title>
<path fill="none" stroke="black" d="M902.59,-100.05C931.83,-100.68 956.5,-97.33 956.5,-90 956.5,-83.53 937.28,-80.16 912.65,-79.89"/>
<polygon fill="black" stroke="black" points="912.57,-76.39 902.59,-79.95 912.61,-83.39 912.57,-76.39"/>
</g>
<!-- theory&#45;&gt;theory -->
<g id="edge28" class="edge">
<title>theory:imPDRC&#45;&gt;theory:gdPowerPlantRC</title>
<path fill="none" stroke="black" d="M902.62,-102.99C940.33,-105.09 974.5,-100.76 974.5,-90 974.5,-80.21 946.19,-75.74 912.68,-76.6"/>
<polygon fill="black" stroke="black" points="912.47,-73.11 902.62,-77.01 912.75,-80.1 912.47,-73.11"/>
</g>
<!-- externalDisturb -->
<g id="node13" class="node">
<title>externalDisturb</title>
<polygon fill="mistyrose" stroke="black" points="826,-36 682,-36 682,0 826,0 826,-36"/>
<text text-anchor="middle" x="754" y="-14.3" font-family="Times,serif" font-size="14.00">A:externalDisturb</text>
</g>
<!-- theory&#45;&gt;externalDisturb -->
<g id="edge18" class="edge">
<title>theory:gdPowerPlantRC&#45;&gt;externalDisturb</title>
<path fill="none" stroke="black" d="M811.97,-71.7C802.46,-63.05 790.79,-52.45 780.43,-43.03"/>
<polygon fill="black" stroke="black" points="782.57,-40.24 772.81,-36.1 777.86,-45.42 782.57,-40.24"/>
</g>
<!-- calculateValues -->
<g id="node14" class="node">
<title>calculateValues</title>
<polygon fill="ivory" stroke="black" points="913,-180 761,-180 761,-144 913,-144 913,-180"/>
<text text-anchor="middle" x="837" y="-158.3" font-family="Times,serif" font-size="14.00">FR:calculateValues</text>
</g>
<!-- calculateValues&#45;&gt;theory -->
<g id="edge29" class="edge">
<title>calculateValues&#45;&gt;theory:imPDRC</title>
<path fill="none" stroke="black" d="M835.52,-143.7C834.86,-135.98 834.06,-126.71 833.32,-118.11"/>
<polygon fill="black" stroke="black" points="836.81,-117.77 832.47,-108.1 829.83,-118.37 836.81,-117.77"/>
</g>
<!-- outputValues -->
<g id="node15" class="node">
<title>outputValues</title>
<polygon fill="ivory" stroke="black" points="742.5,-180 607.5,-180 607.5,-144 742.5,-144 742.5,-180"/>
<text text-anchor="middle" x="675" y="-158.3" font-family="Times,serif" font-size="14.00">FR:outputValues</text>
</g>
<!-- outputValues&#45;&gt;theory -->
<g id="edge30" class="edge">
<title>outputValues&#45;&gt;theory:imPDRC</title>
<path fill="none" stroke="black" d="M713.16,-143.88C734.39,-134.35 761.01,-122.41 783.57,-112.28"/>
<polygon fill="black" stroke="black" points="785.27,-115.36 792.96,-108.07 782.41,-108.97 785.27,-115.36"/>
</g>
<!-- likeChgPP -->
<g id="node16" class="node">
<title>likeChgPP</title>
<polygon fill="lavender" stroke="black" points="340,-108 226,-108 226,-72 340,-72 340,-108"/>
<text text-anchor="middle" x="283" y="-86.3" font-family="Times,serif" font-size="14.00">LC:likeChgPP</text>
</g>
<!-- likeChgPP&#45;&gt;massSpring -->
<g id="edge31" class="edge">
<title>likeChgPP&#45;&gt;massSpring</title>
<path fill="none" stroke="black" d="M323.36,-71.88C346.02,-62.26 374.47,-50.19 398.47,-40.01"/>
<polygon fill="black" stroke="black" points="399.93,-43.2 407.77,-36.07 397.19,-36.75 399.93,-43.2"/>
</g>
<!-- likeChgPP&#45;&gt;dampingCoeffSpring -->
<g id="edge32" class="edge">
<title>likeChgPP&#45;&gt;dampingCoeffSpring</title>
<path fill="none" stroke="black" d="M283,-71.7C283,-63.98 283,-54.71 283,-46.11"/>
<polygon fill="black" stroke="black" points="286.5,-46.1 283,-36.1 279.5,-46.1 286.5,-46.1"/>
</g>
<!-- likeChgPP&#45;&gt;stiffnessCoeffSpring -->
<g id="edge33" class="edge">
<title>likeChgPP&#45;&gt;stiffnessCoeffSpring</title>
<path fill="none" stroke="black" d="M235.3,-71.88C208.05,-62.09 173.7,-49.77 145.03,-39.47"/>
<polygon fill="black" stroke="black" points="146.14,-36.15 135.55,-36.07 143.78,-42.74 146.14,-36.15"/>
</g>
<!-- inputValues -->
<g id="node17" class="node">
<title>inputValues</title>
<polygon fill="ivory" stroke="black" points="1269.5,-180 1144.5,-180 1144.5,-144 1269.5,-144 1269.5,-180"/>
<text text-anchor="middle" x="1207" y="-158.3" font-family="Times,serif" font-size="14.00">FR:inputValues</text>
</g>
<!-- verifyInputs -->
<g id="node18" class="node">
<title>verifyInputs</title>
<polygon fill="ivory" stroke="black" points="1416,-180 1288,-180 1288,-144 1416,-144 1416,-180"/>
<text text-anchor="middle" x="1352" y="-158.3" font-family="Times,serif" font-size="14.00">FR:verifyInputs</text>
</g>
<!-- portable -->
<g id="node19" class="node">
<title>portable</title>
<polygon fill="ivory" stroke="black" points="1547.5,-180 1434.5,-180 1434.5,-144 1547.5,-144 1547.5,-180"/>
<text text-anchor="middle" x="1491" y="-158.3" font-family="Times,serif" font-size="14.00">NFR:portable</text>
</g>
<!-- security -->
<g id="node20" class="node">
<title>security</title>
<polygon fill="ivory" stroke="black" points="1676.5,-180 1565.5,-180 1565.5,-144 1676.5,-144 1676.5,-180"/>
<text text-anchor="middle" x="1621" y="-158.3" font-family="Times,serif" font-size="14.00">NFR:security</text>
</g>
<!-- maintainability -->
<g id="node21" class="node">
<title>maintainability</title>
<polygon fill="ivory" stroke="black" points="1855.5,-180 1694.5,-180 1694.5,-144 1855.5,-144 1855.5,-180"/>
<text text-anchor="middle" x="1775" y="-158.3" font-family="Times,serif" font-size="14.00">NFR:maintainability</text>
</g>
<!-- verifiability -->
<g id="node22" class="node">
<title>verifiability</title>
<polygon fill="ivory" stroke="black" points="2008.5,-180 1873.5,-180 1873.5,-144 2008.5,-144 2008.5,-180"/>
<text text-anchor="middle" x="1941" y="-158.3" font-family="Times,serif" font-size="14.00">NFR:verifiability</text>
</g>
<!-- processVariable -->
<g id="node23" class="node">
<title>processVariable</title>
<polygon fill="#ffb90f" stroke="black" points="2181.5,-180 2026.5,-180 2026.5,-144 2181.5,-144 2181.5,-180"/>
<text text-anchor="middle" x="2104" y="-158.3" font-family="Times,serif" font-size="14.00">GS:processVariable</text>
</g>
</g>
</svg>
