<?xml version="1.0" encoding="UTF-8" standalone="no"?>
<!DOCTYPE svg PUBLIC "-//W3C//DTD SVG 1.1//EN"
 "http://www.w3.org/Graphics/SVG/1.1/DTD/svg11.dtd">
<!-- Generated by graphviz version 2.43.0 (0)
 -->
<!-- Title: avsall Pages: 1 -->
<svg width="3152pt" height="116pt"
 viewBox="0.00 0.00 3152.00 116.00" xmlns="http://www.w3.org/2000/svg" xmlns:xlink="http://www.w3.org/1999/xlink">
<g id="graph0" class="graph" transform="scale(1 1) rotate(0) translate(4 112)">
<title>avsall</title>
<polygon fill="white" stroke="transparent" points="-4,4 -4,-112 3148,-112 3148,4 -4,4"/>
<!-- qdProcessErrorFD -->
<g id="node1" class="node">
<title>qdProcessErrorFD</title>
<polygon fill="#bbffff" stroke="black" points="317.5,-108 161.5,-108 161.5,-72 317.5,-72 317.5,-108"/>
<text text-anchor="middle" x="239.5" y="-86.3" font-family="Times,serif" font-size="14.00">DD:ddProcessError</text>
</g>
<!-- setPoint -->
<g id="node2" class="node">
<title>setPoint</title>
<polygon fill="mistyrose" stroke="black" points="141,-36 52,-36 52,0 141,0 141,-36"/>
<text text-anchor="middle" x="96.5" y="-14.3" font-family="Times,serif" font-size="14.00">A:setPoint</text>
</g>
<!-- qdProcessErrorFD&#45;&gt;setPoint -->
<g id="edge1" class="edge">
<title>qdProcessErrorFD&#45;&gt;setPoint</title>
<path fill="none" stroke="black" d="M204.52,-71.88C185.3,-62.47 161.27,-50.71 140.76,-40.67"/>
<polygon fill="black" stroke="black" points="142.14,-37.44 131.62,-36.19 139.06,-43.73 142.14,-37.44"/>
</g>
<!-- initialValue -->
<g id="node3" class="node">
<title>initialValue</title>
<polygon fill="mistyrose" stroke="black" points="295,-36 184,-36 184,0 295,0 295,-36"/>
<text text-anchor="middle" x="239.5" y="-14.3" font-family="Times,serif" font-size="14.00">A:initialValue</text>
</g>
<!-- qdProcessErrorFD&#45;&gt;initialValue -->
<g id="edge2" class="edge">
<title>qdProcessErrorFD&#45;&gt;initialValue</title>
<path fill="none" stroke="black" d="M239.5,-71.7C239.5,-63.98 239.5,-54.71 239.5,-46.11"/>
<polygon fill="black" stroke="black" points="243,-46.1 239.5,-36.1 236,-46.1 243,-46.1"/>
</g>
<!-- qdDerivativeControlFD -->
<g id="node4" class="node">
<title>qdDerivativeControlFD</title>
<polygon fill="#bbffff" stroke="black" points="464.5,-108 336.5,-108 336.5,-72 464.5,-72 464.5,-108"/>
<text text-anchor="middle" x="400.5" y="-86.3" font-family="Times,serif" font-size="14.00">DD:ddDerivCtrl</text>
</g>
<!-- unfilteredDerivative -->
<g id="node5" class="node">
<title>unfilteredDerivative</title>
<polygon fill="mistyrose" stroke="black" points="488,-36 313,-36 313,0 488,0 488,-36"/>
<text text-anchor="middle" x="400.5" y="-14.3" font-family="Times,serif" font-size="14.00">A:unfilteredDerivative</text>
</g>
<!-- qdDerivativeControlFD&#45;&gt;unfilteredDerivative -->
<g id="edge3" class="edge">
<title>qdDerivativeControlFD&#45;&gt;unfilteredDerivative</title>
<path fill="none" stroke="black" d="M400.5,-71.7C400.5,-63.98 400.5,-54.71 400.5,-46.11"/>
<polygon fill="black" stroke="black" points="404,-46.1 400.5,-36.1 397,-46.1 404,-46.1"/>
</g>
<!-- qdCtrlVarFD -->
<g id="node6" class="node">
<title>qdCtrlVarFD</title>
<polygon fill="#bbffff" stroke="black" points="705,-108 592,-108 592,-72 705,-72 705,-108"/>
<text text-anchor="middle" x="648.5" y="-86.3" font-family="Times,serif" font-size="14.00">DD:ddCtrlVar</text>
</g>
<!-- decoupled -->
<g id="node7" class="node">
<title>decoupled</title>
<polygon fill="mistyrose" stroke="black" points="610.5,-36 506.5,-36 506.5,0 610.5,0 610.5,-36"/>
<text text-anchor="middle" x="558.5" y="-14.3" font-family="Times,serif" font-size="14.00">A:decoupled</text>
</g>
<!-- qdCtrlVarFD&#45;&gt;decoupled -->
<g id="edge4" class="edge">
<title>qdCtrlVarFD&#45;&gt;decoupled</title>
<path fill="none" stroke="black" d="M626.25,-71.7C614.92,-62.88 600.97,-52.03 588.68,-42.47"/>
<polygon fill="black" stroke="black" points="590.53,-39.48 580.49,-36.1 586.24,-45.01 590.53,-39.48"/>
</g>
<!-- parallelEq -->
<g id="node8" class="node">
<title>parallelEq</title>
<polygon fill="mistyrose" stroke="black" points="732.5,-36 628.5,-36 628.5,0 732.5,0 732.5,-36"/>
<text text-anchor="middle" x="680.5" y="-14.3" font-family="Times,serif" font-size="14.00">A:parallelEq</text>
</g>
<!-- qdCtrlVarFD&#45;&gt;parallelEq -->
<g id="edge5" class="edge">
<title>qdCtrlVarFD&#45;&gt;parallelEq</title>
<path fill="none" stroke="black" d="M656.41,-71.7C660.05,-63.73 664.45,-54.1 668.49,-45.26"/>
<polygon fill="black" stroke="black" points="671.71,-46.65 672.68,-36.1 665.34,-43.74 671.71,-46.65"/>
</g>
<!-- tmSOSystemRC -->
<g id="node9" class="node">
<title>tmSOSystemRC</title>
<polygon fill="pink" stroke="black" points="920.5,-108 782.5,-108 782.5,-72 920.5,-72 920.5,-108"/>
<text text-anchor="middle" x="851.5" y="-86.3" font-family="Times,serif" font-size="14.00">TM:tmSOSystem</text>
</g>
<!-- pwrPlantTxFnx -->
<g id="node10" class="node">
<title>pwrPlantTxFnx</title>
<polygon fill="mistyrose" stroke="black" points="921.5,-36 781.5,-36 781.5,0 921.5,0 921.5,-36"/>
<text text-anchor="middle" x="851.5" y="-14.3" font-family="Times,serif" font-size="14.00">A:pwrPlantTxFnx</text>
</g>
<!-- tmSOSystemRC&#45;&gt;pwrPlantTxFnx -->
<g id="edge6" class="edge">
<title>tmSOSystemRC&#45;&gt;pwrPlantTxFnx</title>
<path fill="none" stroke="black" d="M851.5,-71.7C851.5,-63.98 851.5,-54.71 851.5,-46.11"/>
<polygon fill="black" stroke="black" points="855,-46.1 851.5,-36.1 848,-46.1 855,-46.1"/>
</g>
<!-- gdPowerPlantRC -->
<g id="node11" class="node">
<title>gdPowerPlantRC</title>
<polygon fill="palegreen" stroke="black" points="1240,-108 1097,-108 1097,-72 1240,-72 1240,-108"/>
<text text-anchor="middle" x="1168.5" y="-86.3" font-family="Times,serif" font-size="14.00">GD:gdPowerPlant</text>
</g>
<!-- externalDisturb -->
<g id="node12" class="node">
<title>externalDisturb</title>
<polygon fill="mistyrose" stroke="black" points="1083.5,-36 939.5,-36 939.5,0 1083.5,0 1083.5,-36"/>
<text text-anchor="middle" x="1011.5" y="-14.3" font-family="Times,serif" font-size="14.00">A:externalDisturb</text>
</g>
<!-- gdPowerPlantRC&#45;&gt;externalDisturb -->
<g id="edge7" class="edge">
<title>gdPowerPlantRC&#45;&gt;externalDisturb</title>
<path fill="none" stroke="black" d="M1130.09,-71.88C1108.63,-62.31 1081.7,-50.3 1058.93,-40.15"/>
<polygon fill="black" stroke="black" points="1060.34,-36.94 1049.78,-36.07 1057.49,-43.34 1060.34,-36.94"/>
</g>
<!-- massSpring -->
<g id="node13" class="node">
<title>massSpring</title>
<polygon fill="mistyrose" stroke="black" points="1217.5,-36 1101.5,-36 1101.5,0 1217.5,0 1217.5,-36"/>
<text text-anchor="middle" x="1159.5" y="-14.3" font-family="Times,serif" font-size="14.00">A:massSpring</text>
</g>
<!-- gdPowerPlantRC&#45;&gt;massSpring -->
<g id="edge8" class="edge">
<title>gdPowerPlantRC&#45;&gt;massSpring</title>
<path fill="none" stroke="black" d="M1166.28,-71.7C1165.28,-63.98 1164.09,-54.71 1162.99,-46.11"/>
<polygon fill="black" stroke="black" points="1166.45,-45.58 1161.7,-36.1 1159.5,-46.47 1166.45,-45.58"/>
</g>
<!-- dampingCoeffSpring -->
<g id="node14" class="node">
<title>dampingCoeffSpring</title>
<polygon fill="mistyrose" stroke="black" points="1413.5,-36 1235.5,-36 1235.5,0 1413.5,0 1413.5,-36"/>
<text text-anchor="middle" x="1324.5" y="-14.3" font-family="Times,serif" font-size="14.00">A:dampingCoeffSpring</text>
</g>
<!-- gdPowerPlantRC&#45;&gt;dampingCoeffSpring -->
<g id="edge9" class="edge">
<title>gdPowerPlantRC&#45;&gt;dampingCoeffSpring</title>
<path fill="none" stroke="black" d="M1206.66,-71.88C1227.89,-62.35 1254.51,-50.41 1277.07,-40.28"/>
<polygon fill="black" stroke="black" points="1278.77,-43.36 1286.46,-36.07 1275.91,-36.97 1278.77,-43.36"/>
</g>
<!-- stiffnessCoeffSpring -->
<g id="node15" class="node">
<title>stiffnessCoeffSpring</title>
<polygon fill="mistyrose" stroke="black" points="1607.5,-36 1431.5,-36 1431.5,0 1607.5,0 1607.5,-36"/>
<text text-anchor="middle" x="1519.5" y="-14.3" font-family="Times,serif" font-size="14.00">A:stiffnessCoeffSpring</text>
</g>
<!-- gdPowerPlantRC&#45;&gt;stiffnessCoeffSpring -->
<g id="edge10" class="edge">
<title>gdPowerPlantRC&#45;&gt;stiffnessCoeffSpring</title>
<path fill="none" stroke="black" d="M1240.38,-74.67C1293.46,-64.08 1366.26,-49.56 1424.2,-38.01"/>
<polygon fill="black" stroke="black" points="1424.98,-41.42 1434.1,-36.03 1423.61,-34.56 1424.98,-41.42"/>
</g>
<!-- imPDRC -->
<g id="node16" class="node">
<title>imPDRC</title>
<polygon fill="#fff68f" stroke="black" points="143,-108 0,-108 0,-72 143,-72 143,-108"/>
<text text-anchor="middle" x="71.5" y="-86.3" font-family="Times,serif" font-size="14.00">IM:pdEquationIM</text>
</g>
<!-- imPDRC&#45;&gt;setPoint -->
<g id="edge11" class="edge">
<title>imPDRC&#45;&gt;setPoint</title>
<path fill="none" stroke="black" d="M77.68,-71.7C80.5,-63.81 83.89,-54.3 87.02,-45.55"/>
<polygon fill="black" stroke="black" points="90.32,-46.7 90.39,-36.1 83.73,-44.34 90.32,-46.7"/>
</g>
<!-- likeChgPP -->
<g id="node17" class="node">
<title>likeChgPP</title>
<polygon fill="lavender" stroke="black" points="1381.5,-108 1267.5,-108 1267.5,-72 1381.5,-72 1381.5,-108"/>
<text text-anchor="middle" x="1324.5" y="-86.3" font-family="Times,serif" font-size="14.00">LC:likeChgPP</text>
</g>
<!-- likeChgPP&#45;&gt;massSpring -->
<g id="edge12" class="edge">
<title>likeChgPP&#45;&gt;massSpring</title>
<path fill="none" stroke="black" d="M1284.14,-71.88C1261.48,-62.26 1233.03,-50.19 1209.03,-40.01"/>
<polygon fill="black" stroke="black" points="1210.31,-36.75 1199.73,-36.07 1207.57,-43.2 1210.31,-36.75"/>
</g>
<!-- likeChgPP&#45;&gt;dampingCoeffSpring -->
<g id="edge13" class="edge">
<title>likeChgPP&#45;&gt;dampingCoeffSpring</title>
<path fill="none" stroke="black" d="M1324.5,-71.7C1324.5,-63.98 1324.5,-54.71 1324.5,-46.11"/>
<polygon fill="black" stroke="black" points="1328,-46.1 1324.5,-36.1 1321,-46.1 1328,-46.1"/>
</g>
<!-- likeChgPP&#45;&gt;stiffnessCoeffSpring -->
<g id="edge14" class="edge">
<title>likeChgPP&#45;&gt;stiffnessCoeffSpring</title>
<path fill="none" stroke="black" d="M1372.2,-71.88C1399.45,-62.09 1433.8,-49.77 1462.47,-39.47"/>
<polygon fill="black" stroke="black" points="1463.72,-42.74 1471.95,-36.07 1461.36,-36.15 1463.72,-42.74"/>
</g>
<!-- pwrPlant -->
<g id="node18" class="node">
<title>pwrPlant</title>
<polygon fill="mistyrose" stroke="black" points="1721.5,-36 1625.5,-36 1625.5,0 1721.5,0 1721.5,-36"/>
<text text-anchor="middle" x="1673.5" y="-14.3" font-family="Times,serif" font-size="14.00">A:pwrPlant</text>
</g>
<!-- qdPropControlFD -->
<g id="node19" class="node">
<title>qdPropControlFD</title>
<polygon fill="#bbffff" stroke="black" points="1523,-108 1400,-108 1400,-72 1523,-72 1523,-108"/>
<text text-anchor="middle" x="1461.5" y="-86.3" font-family="Times,serif" font-size="14.00">DD:ddPropCtrl</text>
</g>
<!-- laplaceRC -->
<g id="node20" class="node">
<title>laplaceRC</title>
<polygon fill="pink" stroke="black" points="1710,-108 1541,-108 1541,-72 1710,-72 1710,-108"/>
<text text-anchor="middle" x="1625.5" y="-86.3" font-family="Times,serif" font-size="14.00">TM:laplaceTransform</text>
</g>
<!-- invLaplaceRC -->
<g id="node21" class="node">
<title>invLaplaceRC</title>
<polygon fill="pink" stroke="black" points="1923,-108 1728,-108 1728,-72 1923,-72 1923,-108"/>
<text text-anchor="middle" x="1825.5" y="-86.3" font-family="Times,serif" font-size="14.00">TM:invLaplaceTransform</text>
</g>
<!-- inputValues -->
<g id="node22" class="node">
<title>inputValues</title>
<polygon fill="ivory" stroke="black" points="2066,-108 1941,-108 1941,-72 2066,-72 2066,-108"/>
<text text-anchor="middle" x="2003.5" y="-86.3" font-family="Times,serif" font-size="14.00">FR:inputValues</text>
</g>
<!-- verifyInputs -->
<g id="node23" class="node">
<title>verifyInputs</title>
<polygon fill="ivory" stroke="black" points="2212.5,-108 2084.5,-108 2084.5,-72 2212.5,-72 2212.5,-108"/>
<text text-anchor="middle" x="2148.5" y="-86.3" font-family="Times,serif" font-size="14.00">FR:verifyInputs</text>
</g>
<!-- calculateValues -->
<g id="node24" class="node">
<title>calculateValues</title>
<polygon fill="ivory" stroke="black" points="2382.5,-108 2230.5,-108 2230.5,-72 2382.5,-72 2382.5,-108"/>
<text text-anchor="middle" x="2306.5" y="-86.3" font-family="Times,serif" font-size="14.00">FR:calculateValues</text>
</g>
<!-- outputValues -->
<g id="node25" class="node">
<title>outputValues</title>
<polygon fill="ivory" stroke="black" points="2536,-108 2401,-108 2401,-72 2536,-72 2536,-108"/>
<text text-anchor="middle" x="2468.5" y="-86.3" font-family="Times,serif" font-size="14.00">FR:outputValues</text>
</g>
<!-- portability -->
<g id="node26" class="node">
<title>portability</title>
<polygon fill="ivory" stroke="black" points="2682.5,-108 2554.5,-108 2554.5,-72 2682.5,-72 2682.5,-108"/>
<text text-anchor="middle" x="2618.5" y="-86.3" font-family="Times,serif" font-size="14.00">NFR:portability</text>
</g>
<!-- security -->
<g id="node27" class="node">
<title>security</title>
<polygon fill="ivory" stroke="black" points="2812,-108 2701,-108 2701,-72 2812,-72 2812,-108"/>
<text text-anchor="middle" x="2756.5" y="-86.3" font-family="Times,serif" font-size="14.00">NFR:security</text>
</g>
<!-- maintainability -->
<g id="node28" class="node">
<title>maintainability</title>
<polygon fill="ivory" stroke="black" points="2991,-108 2830,-108 2830,-72 2991,-72 2991,-108"/>
<text text-anchor="middle" x="2910.5" y="-86.3" font-family="Times,serif" font-size="14.00">NFR:maintainability</text>
</g>
<!-- verifiability -->
<g id="node29" class="node">
<title>verifiability</title>
<polygon fill="ivory" stroke="black" points="3144,-108 3009,-108 3009,-72 3144,-72 3144,-108"/>
<text text-anchor="middle" x="3076.5" y="-86.3" font-family="Times,serif" font-size="14.00">NFR:verifiability</text>
</g>
</g>
</svg>
