<?xml version="1.0" encoding="UTF-8" standalone="no"?>
<!DOCTYPE svg PUBLIC "-//W3C//DTD SVG 1.1//EN"
 "http://www.w3.org/Graphics/SVG/1.1/DTD/svg11.dtd">
<!-- Generated by graphviz version 2.43.0 (0)
 -->
<!-- Title: avsall Pages: 1 -->
<svg width="282pt" height="125pt"
 viewBox="0.00 0.00 282.00 124.89" xmlns="http://www.w3.org/2000/svg" xmlns:xlink="http://www.w3.org/1999/xlink">
<g id="graph0" class="graph" transform="scale(1 1) rotate(0) translate(4 120.89)">
<title>avsall</title>
<polygon fill="white" stroke="transparent" points="-4,4 -4,-120.89 278,-120.89 278,4 -4,4"/>
<!-- dataDefn -->
<g id="node1" class="node">
<title>dataDefn</title>
<polygon fill="#bbffff" stroke="black" points="274,-116.89 161,-116.89 161,-80.89 274,-80.89 274,-116.89"/>
<text text-anchor="middle" x="217.5" y="-95.19" font-family="Times,serif" font-size="14.00">DD:ddCtrlVar</text>
</g>
<!-- instance -->
<g id="node2" class="node">
<title>instance</title>
<polygon fill="lavender" stroke="black" points="128.5,-44.89 14.5,-44.89 14.5,-8.89 128.5,-8.89 128.5,-44.89"/>
<text text-anchor="middle" x="71.5" y="-23.19" font-family="Times,serif" font-size="14.00">LC:likeChgPP</text>
</g>
<!-- dataDefn&#45;&gt;instance -->
<g id="edge1" class="edge">
<title>dataDefn:dqdProcessErrorFD&#45;&gt;instance:setPointConstant</title>
<path fill="none" stroke="black" d="M210.37,-80.87C196.67,-50.11 165.45,10.47 136.87,-1.97"/>
<polygon fill="black" stroke="black" points="134.64,0.74 128.5,-7.89 138.69,-4.97 134.64,0.74"/>
</g>
<!-- dataDefn&#45;&gt;instance -->
<g id="edge2" class="edge">
<title>dataDefn:dqdProcessErrorFD&#45;&gt;instance:initialValue</title>
<path fill="none" stroke="black" d="M164.09,-80.76C141.83,-71.48 117.27,-59.91 98.57,-49.96"/>
<polygon fill="black" stroke="black" points="100.09,-46.81 89.64,-45.08 96.73,-52.95 100.09,-46.81"/>
</g>
<!-- dataDefn&#45;&gt;instance -->
<g id="edge3" class="edge">
<title>dataDefn:dqdDerivativeControlFD&#45;&gt;instance:unfilteredDerivative</title>
<path fill="none" stroke="black" d="M175.89,-80.76C155.28,-71.36 130.62,-59.6 110.4,-49.55"/>
<polygon fill="black" stroke="black" points="111.96,-46.42 101.45,-45.08 108.83,-52.68 111.96,-46.42"/>
</g>
<!-- dataDefn&#45;&gt;instance -->
<g id="edge4" class="edge">
<title>dataDefn:dqdCtrlVarFD&#45;&gt;instance:decoupled</title>
<path fill="none" stroke="black" d="M187.68,-80.76C168.81,-71.24 144.02,-59.29 122.16,-49.17"/>
<polygon fill="black" stroke="black" points="123.54,-45.95 112.99,-44.96 120.61,-52.31 123.54,-45.95"/>
</g>
<!-- dataDefn&#45;&gt;instance -->
<g id="edge5" class="edge">
<title>dataDefn:dqdCtrlVarFD&#45;&gt;instance:parallelEq</title>
<path fill="none" stroke="black" d="M199.48,-80.76C182.44,-71.15 157.62,-59.08 134.06,-48.9"/>
<polygon fill="black" stroke="black" points="135.35,-45.64 124.77,-44.96 132.61,-52.09 135.35,-45.64"/>
</g>
<!-- instance&#45;&gt;instance -->
<g id="edge12" class="edge">
<title>instance:likeChgPP&#45;&gt;instance:massSpring</title>
<path fill="none" stroke="black" d="M128.73,-31.14C139.17,-30.6 146.5,-29.18 146.5,-26.89 146.5,-25.45 143.64,-24.36 138.94,-23.61"/>
<polygon fill="black" stroke="black" points="139.01,-20.1 128.73,-22.63 138.35,-27.07 139.01,-20.1"/>
</g>
<!-- instance&#45;&gt;instance -->
<g id="edge13" class="edge">
<title>instance:likeChgPP&#45;&gt;instance:dampingCoeffSpring</title>
<path fill="none" stroke="black" d="M128.71,-35.89C148.51,-35.98 164.5,-32.98 164.5,-26.89 164.5,-21.89 153.74,-18.97 138.95,-18.14"/>
<polygon fill="black" stroke="black" points="138.8,-14.63 128.71,-17.89 138.63,-21.63 138.8,-14.63"/>
</g>
<!-- instance&#45;&gt;instance -->
<g id="edge14" class="edge">
<title>instance:likeChgPP&#45;&gt;instance:stiffnessCoeffSpring</title>
<path fill="none" stroke="black" d="M128.61,-39.99C157.09,-41.8 182.5,-37.43 182.5,-26.89 182.5,-17.62 162.87,-13.12 138.78,-13.4"/>
<polygon fill="black" stroke="black" points="138.47,-9.91 128.61,-13.79 138.74,-16.9 138.47,-9.91"/>
</g>
<!-- theory -->
<g id="node3" class="node">
<title>theory</title>
<polygon fill="#fff68f" stroke="black" points="143,-116.89 0,-116.89 0,-80.89 143,-80.89 143,-116.89"/>
<text text-anchor="middle" x="71.5" y="-95.19" font-family="Times,serif" font-size="14.00">IM:pdEquationIM</text>
</g>
<!-- theory&#45;&gt;instance -->
<g id="edge6" class="edge">
<title>theory:tmSOSystemRC&#45;&gt;instance:pwrPlantTxFnx</title>
<path fill="none" stroke="black" d="M47.84,-80.58C44.62,-72.79 43.73,-63.4 45.16,-54.72"/>
<polygon fill="black" stroke="black" points="48.56,-55.57 47.92,-44.99 41.83,-53.66 48.56,-55.57"/>
</g>
<!-- theory&#45;&gt;instance -->
<g id="edge7" class="edge">
<title>theory:gdPowerPlantRC&#45;&gt;instance:externalDisturb</title>
<path fill="none" stroke="black" d="M59.67,-80.58C58.08,-72.87 57.62,-63.6 58.31,-55"/>
<polygon fill="black" stroke="black" points="61.79,-55.38 59.71,-44.99 54.86,-54.41 61.79,-55.38"/>
</g>
<!-- theory&#45;&gt;instance -->
<g id="edge8" class="edge">
<title>theory:gdPowerPlantRC&#45;&gt;instance:massSpring</title>
<path fill="none" stroke="black" d="M71.5,-80.58C71.5,-72.87 71.5,-63.6 71.5,-55"/>
<polygon fill="black" stroke="black" points="75,-54.99 71.5,-44.99 68,-54.99 75,-54.99"/>
</g>
<!-- theory&#45;&gt;instance -->
<g id="edge9" class="edge">
<title>theory:gdPowerPlantRC&#45;&gt;instance:dampingCoeffSpring</title>
<path fill="none" stroke="black" d="M83.33,-80.58C84.92,-72.87 85.38,-63.6 84.69,-55"/>
<polygon fill="black" stroke="black" points="88.14,-54.41 83.29,-44.99 81.21,-55.38 88.14,-54.41"/>
</g>
<!-- theory&#45;&gt;instance -->
<g id="edge10" class="edge">
<title>theory:gdPowerPlantRC&#45;&gt;instance:stiffnessCoeffSpring</title>
<path fill="none" stroke="black" d="M95.16,-80.58C98.38,-72.79 99.27,-63.4 97.84,-54.72"/>
<polygon fill="black" stroke="black" points="101.17,-53.66 95.08,-44.99 94.44,-55.57 101.17,-53.66"/>
</g>
<!-- theory&#45;&gt;instance -->
<g id="edge11" class="edge">
<title>theory:imPDRC&#45;&gt;instance:setPointConstant</title>
<path fill="none" stroke="black" d="M98.08,-80.8C109.74,-71.7 122.19,-59.38 128.5,-44.89 131.94,-37 134.96,-24.04 135.4,-15.16"/>
<polygon fill="black" stroke="black" points="137.92,-12.73 128.5,-7.89 132.84,-17.55 137.92,-12.73"/>
</g>
</g>
</svg>
