<?xml version="1.0" encoding="UTF-8" standalone="no"?>
<!DOCTYPE svg PUBLIC "-//W3C//DTD SVG 1.1//EN"
 "http://www.w3.org/Graphics/SVG/1.1/DTD/svg11.dtd">
<!-- Generated by graphviz version 2.43.0 (0)
 -->
<!-- Title: refvsref Pages: 1 -->
<svg width="584pt" height="143pt"
 viewBox="0.00 0.00 583.50 143.25" xmlns="http://www.w3.org/2000/svg" xmlns:xlink="http://www.w3.org/1999/xlink">
<g id="graph0" class="graph" transform="scale(1 1) rotate(0) translate(4 139.25)">
<title>refvsref</title>
<polygon fill="white" stroke="transparent" points="-4,4 -4,-139.25 579.5,-139.25 579.5,4 -4,4"/>
<!-- qdProcessErrorFD -->
<g id="node1" class="node">
<title>qdProcessErrorFD</title>
<polygon fill="#bbffff" stroke="black" points="575.5,-108 419.5,-108 419.5,-72 575.5,-72 575.5,-108"/>
<text text-anchor="middle" x="497.5" y="-86.3" font-family="Times,serif" font-size="14.00">DD:ddProcessError</text>
</g>
<!-- theory -->
<g id="node2" class="node">
<title>theory</title>
<polygon fill="#fff68f" stroke="black" points="411,-36 268,-36 268,0 411,0 411,-36"/>
<text text-anchor="middle" x="339.5" y="-14.3" font-family="Times,serif" font-size="14.00">IM:pdEquationIM</text>
</g>
<!-- qdProcessErrorFD&#45;&gt;theory -->
<g id="edge1" class="edge">
<title>qdProcessErrorFD&#45;&gt;theory:laplaceRC</title>
<path fill="none" stroke="black" d="M452.95,-71.88C430.45,-62.35 403.37,-50.41 381.27,-40.28"/>
<polygon fill="black" stroke="black" points="382.68,-37.08 372.13,-36.07 379.75,-43.43 382.68,-37.08"/>
</g>
<!-- theory&#45;&gt;qdProcessErrorFD -->
<g id="edge10" class="edge">
<title>theory:imPDRC&#45;&gt;qdProcessErrorFD</title>
<path fill="none" stroke="black" d="M383.92,-36.07C406.4,-45.59 433.48,-57.53 455.6,-67.66"/>
<polygon fill="black" stroke="black" points="454.2,-70.87 464.75,-71.88 457.13,-64.51 454.2,-70.87"/>
</g>
<!-- theory&#45;&gt;theory -->
<g id="edge8" class="edge">
<title>theory:gdPowerPlantRC&#45;&gt;theory:laplaceRC</title>
<path fill="none" stroke="black" d="M411.13,-21.06C421.79,-20.59 429,-19.56 429,-18 429,-17 426.04,-16.22 421.11,-15.66"/>
<polygon fill="black" stroke="black" points="421.35,-12.17 411.13,-14.94 420.85,-19.15 421.35,-12.17"/>
</g>
<!-- theory&#45;&gt;theory -->
<g id="edge9" class="edge">
<title>theory:gdPowerPlantRC&#45;&gt;theory:tmSOSystemRC</title>
<path fill="none" stroke="black" d="M411.09,-24.72C431.38,-24.44 447,-22.2 447,-18 447,-14.52 436.29,-12.39 421.08,-11.6"/>
<polygon fill="black" stroke="black" points="421.19,-8.1 411.09,-11.28 420.97,-15.1 421.19,-8.1"/>
</g>
<!-- theory&#45;&gt;theory -->
<g id="edge12" class="edge">
<title>theory:imPDRC&#45;&gt;theory:invLaplaceRC</title>
<path fill="none" stroke="black" d="M411.09,-28.05C440.33,-28.68 465,-25.33 465,-18 465,-11.53 445.78,-8.16 421.15,-7.89"/>
<polygon fill="black" stroke="black" points="421.07,-4.39 411.09,-7.95 421.11,-11.39 421.07,-4.39"/>
</g>
<!-- theory&#45;&gt;theory -->
<g id="edge13" class="edge">
<title>theory:imPDRC&#45;&gt;theory:gdPowerPlantRC</title>
<path fill="none" stroke="black" d="M411.12,-30.99C448.83,-33.09 483,-28.76 483,-18 483,-8.21 454.69,-3.74 421.18,-4.6"/>
<polygon fill="black" stroke="black" points="420.97,-1.11 411.12,-5.01 421.25,-8.1 420.97,-1.11"/>
</g>
<!-- qdCtrlVarFD -->
<g id="node5" class="node">
<title>qdCtrlVarFD</title>
<polygon fill="#bbffff" stroke="black" points="113,-108 0,-108 0,-72 113,-72 113,-108"/>
<text text-anchor="middle" x="56.5" y="-86.3" font-family="Times,serif" font-size="14.00">DD:ddCtrlVar</text>
</g>
<!-- theory&#45;&gt;qdCtrlVarFD -->
<g id="edge11" class="edge">
<title>theory:imPDRC&#45;&gt;qdCtrlVarFD</title>
<path fill="none" stroke="black" d="M268.59,-36.08C228.57,-45.78 177.4,-58.27 122.87,-71.92"/>
<polygon fill="black" stroke="black" points="121.86,-68.57 113.01,-74.39 123.56,-75.36 121.86,-68.57"/>
</g>
<!-- qdPropControlFD -->
<g id="node3" class="node">
<title>qdPropControlFD</title>
<polygon fill="#bbffff" stroke="black" points="401,-108 278,-108 278,-72 401,-72 401,-108"/>
<text text-anchor="middle" x="339.5" y="-86.3" font-family="Times,serif" font-size="14.00">DD:ddPropCtrl</text>
</g>
<!-- qdPropControlFD&#45;&gt;qdProcessErrorFD -->
<g id="edge2" class="edge">
<title>qdPropControlFD&#45;&gt;qdProcessErrorFD</title>
<path fill="none" stroke="black" d="M401.22,-90C403.85,-90 406.48,-90 409.12,-90"/>
<polygon fill="black" stroke="black" points="409.27,-93.5 419.27,-90 409.27,-86.5 409.27,-93.5"/>
</g>
<!-- qdPropControlFD&#45;&gt;theory -->
<g id="edge3" class="edge">
<title>qdPropControlFD&#45;&gt;theory:laplaceRC</title>
<path fill="none" stroke="black" d="M339.5,-71.7C339.5,-63.98 339.5,-54.71 339.5,-46.11"/>
<polygon fill="black" stroke="black" points="343,-46.1 339.5,-36.1 336,-46.1 343,-46.1"/>
</g>
<!-- qdDerivativeControlFD -->
<g id="node4" class="node">
<title>qdDerivativeControlFD</title>
<polygon fill="#bbffff" stroke="black" points="259.5,-108 131.5,-108 131.5,-72 259.5,-72 259.5,-108"/>
<text text-anchor="middle" x="195.5" y="-86.3" font-family="Times,serif" font-size="14.00">DD:ddDerivCtrl</text>
</g>
<!-- qdDerivativeControlFD&#45;&gt;qdProcessErrorFD -->
<g id="edge4" class="edge">
<title>qdDerivativeControlFD&#45;&gt;qdProcessErrorFD</title>
<path fill="none" stroke="black" d="M228.79,-108.16C243.56,-115.22 261.43,-122.46 278.5,-126 332.03,-137.11 347.71,-135.75 401.5,-126 417.45,-123.11 434.2,-117.72 449.16,-111.98"/>
<polygon fill="black" stroke="black" points="450.71,-115.12 458.7,-108.17 448.12,-108.62 450.71,-115.12"/>
</g>
<!-- qdDerivativeControlFD&#45;&gt;theory -->
<g id="edge5" class="edge">
<title>qdDerivativeControlFD&#45;&gt;theory:laplaceRC</title>
<path fill="none" stroke="black" d="M230.73,-71.88C250.08,-62.47 274.27,-50.71 294.93,-40.67"/>
<polygon fill="black" stroke="black" points="296.67,-43.71 304.14,-36.19 293.61,-37.41 296.67,-43.71"/>
</g>
<!-- qdCtrlVarFD&#45;&gt;qdPropControlFD -->
<g id="edge6" class="edge">
<title>qdCtrlVarFD&#45;&gt;qdPropControlFD</title>
<path fill="none" stroke="black" d="M86.38,-108.14C99.69,-115.2 115.87,-122.44 131.5,-126 186.97,-138.62 203.88,-137.94 259.5,-126 272.54,-123.2 286.02,-118.1 298.12,-112.61"/>
<polygon fill="black" stroke="black" points="299.96,-115.61 307.49,-108.15 296.95,-109.29 299.96,-115.61"/>
</g>
<!-- qdCtrlVarFD&#45;&gt;qdDerivativeControlFD -->
<g id="edge7" class="edge">
<title>qdCtrlVarFD&#45;&gt;qdDerivativeControlFD</title>
<path fill="none" stroke="black" d="M113.24,-90C115.86,-90 118.49,-90 121.11,-90"/>
<polygon fill="black" stroke="black" points="121.23,-93.5 131.23,-90 121.23,-86.5 121.23,-93.5"/>
</g>
</g>
</svg>
