<?xml version="1.0" encoding="UTF-8" standalone="no"?>
<!DOCTYPE svg PUBLIC "-//W3C//DTD SVG 1.1//EN"
 "http://www.w3.org/Graphics/SVG/1.1/DTD/svg11.dtd">
<!-- Generated by graphviz version 2.43.0 (0)
 -->
<!-- Title: allvsall Pages: 1 -->
<svg width="2376pt" height="222pt"
 viewBox="0.00 0.00 2375.50 222.13" xmlns="http://www.w3.org/2000/svg" xmlns:xlink="http://www.w3.org/1999/xlink">
<g id="graph0" class="graph" transform="scale(1 1) rotate(0) translate(4 218.13)">
<title>allvsall</title>
<polygon fill="white" stroke="transparent" points="-4,4 -4,-218.13 2371.5,-218.13 2371.5,4 -4,4"/>
<!-- pwrPlantTxFnx -->
<g id="node1" class="node">
<title>pwrPlantTxFnx</title>
<polygon fill="mistyrose" stroke="black" points="908,-36 768,-36 768,0 908,0 908,-36"/>
<text text-anchor="middle" x="838" y="-14.3" font-family="Times,serif" font-size="14.00">A:pwrPlantTxFnx</text>
</g>
<!-- pwrPlant -->
<g id="node2" class="node">
<title>pwrPlant</title>
<polygon fill="mistyrose" stroke="black" points="1184,-36 1088,-36 1088,0 1184,0 1184,-36"/>
<text text-anchor="middle" x="1136" y="-14.3" font-family="Times,serif" font-size="14.00">A:pwrPlant</text>
</g>
<!-- pwrPlantTxFnx&#45;&gt;pwrPlant -->
<g id="edge1" class="edge">
<title>pwrPlantTxFnx&#45;&gt;pwrPlant</title>
<path fill="none" stroke="black" d="M873.41,-36.16C889.09,-43.23 908.02,-50.46 926,-54 988.8,-66.35 1007.98,-69.81 1070,-54 1080.64,-51.29 1091.41,-46.47 1101.08,-41.23"/>
<polygon fill="black" stroke="black" points="1103.05,-44.13 1109.98,-36.12 1099.56,-38.06 1103.05,-44.13"/>
</g>
<!-- massSpring -->
<g id="node3" class="node">
<title>massSpring</title>
<polygon fill="mistyrose" stroke="black" points="556,-36 440,-36 440,0 556,0 556,-36"/>
<text text-anchor="middle" x="498" y="-14.3" font-family="Times,serif" font-size="14.00">A:massSpring</text>
</g>
<!-- massSpring&#45;&gt;pwrPlant -->
<g id="edge2" class="edge">
<title>massSpring&#45;&gt;pwrPlant</title>
<path fill="none" stroke="black" d="M528.31,-36.14C541.8,-43.2 558.19,-50.44 574,-54 627.77,-66.09 1016.6,-67.62 1070,-54 1080.64,-51.29 1091.41,-46.47 1101.08,-41.23"/>
<polygon fill="black" stroke="black" points="1103.05,-44.13 1109.98,-36.12 1099.56,-38.06 1103.05,-44.13"/>
</g>
<!-- dampingCoeffSpring -->
<g id="node4" class="node">
<title>dampingCoeffSpring</title>
<polygon fill="mistyrose" stroke="black" points="422,-36 244,-36 244,0 422,0 422,-36"/>
<text text-anchor="middle" x="333" y="-14.3" font-family="Times,serif" font-size="14.00">A:dampingCoeffSpring</text>
</g>
<!-- dampingCoeffSpring&#45;&gt;pwrPlant -->
<g id="edge3" class="edge">
<title>dampingCoeffSpring&#45;&gt;pwrPlant</title>
<path fill="none" stroke="black" d="M376.17,-36.09C395.36,-43.18 418.43,-50.47 440,-54 509.08,-65.31 1002.17,-71.3 1070,-54 1080.64,-51.29 1091.41,-46.47 1101.08,-41.23"/>
<polygon fill="black" stroke="black" points="1103.05,-44.13 1109.98,-36.12 1099.56,-38.06 1103.05,-44.13"/>
</g>
<!-- stiffnessCoeffSpring -->
<g id="node5" class="node">
<title>stiffnessCoeffSpring</title>
<polygon fill="mistyrose" stroke="black" points="750,-36 574,-36 574,0 750,0 750,-36"/>
<text text-anchor="middle" x="662" y="-14.3" font-family="Times,serif" font-size="14.00">A:stiffnessCoeffSpring</text>
</g>
<!-- stiffnessCoeffSpring&#45;&gt;pwrPlant -->
<g id="edge4" class="edge">
<title>stiffnessCoeffSpring&#45;&gt;pwrPlant</title>
<path fill="none" stroke="black" d="M704.76,-36.09C723.76,-43.18 746.62,-50.47 768,-54 834.21,-64.94 1004.97,-70.58 1070,-54 1080.64,-51.29 1091.41,-46.47 1101.08,-41.23"/>
<polygon fill="black" stroke="black" points="1103.05,-44.13 1109.98,-36.12 1099.56,-38.06 1103.05,-44.13"/>
</g>
<!-- qdProcessErrorFD -->
<g id="node6" class="node">
<title>qdProcessErrorFD</title>
<polygon fill="#bbffff" stroke="black" points="1312,-180 1156,-180 1156,-144 1312,-144 1312,-180"/>
<text text-anchor="middle" x="1234" y="-158.3" font-family="Times,serif" font-size="14.00">DD:ddProcessError</text>
</g>
<!-- setPoint -->
<g id="node7" class="node">
<title>setPoint</title>
<polygon fill="mistyrose" stroke="black" points="1484.5,-36 1395.5,-36 1395.5,0 1484.5,0 1484.5,-36"/>
<text text-anchor="middle" x="1440" y="-14.3" font-family="Times,serif" font-size="14.00">A:setPoint</text>
</g>
<!-- qdProcessErrorFD&#45;&gt;setPoint -->
<g id="edge5" class="edge">
<title>qdProcessErrorFD&#45;&gt;setPoint</title>
<path fill="none" stroke="black" d="M1258.85,-143.87C1295.81,-118.39 1365.36,-70.45 1406.69,-41.96"/>
<polygon fill="black" stroke="black" points="1408.82,-44.75 1415.06,-36.19 1404.84,-38.98 1408.82,-44.75"/>
</g>
<!-- initialValue -->
<g id="node8" class="node">
<title>initialValue</title>
<polygon fill="mistyrose" stroke="black" points="1613.5,-36 1502.5,-36 1502.5,0 1613.5,0 1613.5,-36"/>
<text text-anchor="middle" x="1558" y="-14.3" font-family="Times,serif" font-size="14.00">A:initialValue</text>
</g>
<!-- qdProcessErrorFD&#45;&gt;initialValue -->
<g id="edge6" class="edge">
<title>qdProcessErrorFD&#45;&gt;initialValue</title>
<path fill="none" stroke="black" d="M1273.08,-143.87C1332.4,-117.88 1445.04,-68.51 1509.5,-40.26"/>
<polygon fill="black" stroke="black" points="1511.28,-43.3 1519.03,-36.08 1508.47,-36.89 1511.28,-43.3"/>
</g>
<!-- theory -->
<g id="node9" class="node">
<title>theory</title>
<polygon fill="#fff68f" stroke="black" points="909.5,-108 766.5,-108 766.5,-72 909.5,-72 909.5,-108"/>
<text text-anchor="middle" x="838" y="-86.3" font-family="Times,serif" font-size="14.00">IM:pdEquationIM</text>
</g>
<!-- qdProcessErrorFD&#45;&gt;theory -->
<g id="edge7" class="edge">
<title>qdProcessErrorFD&#45;&gt;theory:laplaceRC</title>
<path fill="none" stroke="black" d="M1155.72,-147.31C1149.71,-146.17 1143.75,-145.06 1138,-144 1064.11,-130.45 980.08,-116.1 919.73,-105.76"/>
<polygon fill="black" stroke="black" points="919.95,-102.25 909.5,-104.01 918.77,-109.14 919.95,-102.25"/>
</g>
<!-- theory&#45;&gt;pwrPlantTxFnx -->
<g id="edge17" class="edge">
<title>theory:tmSOSystemRC&#45;&gt;pwrPlantTxFnx</title>
<path fill="none" stroke="black" d="M838,-71.7C838,-63.98 838,-54.71 838,-46.11"/>
<polygon fill="black" stroke="black" points="841.5,-46.1 838,-36.1 834.5,-46.1 841.5,-46.1"/>
</g>
<!-- theory&#45;&gt;massSpring -->
<g id="edge19" class="edge">
<title>theory:gdPowerPlantRC&#45;&gt;massSpring</title>
<path fill="none" stroke="black" d="M766.49,-76.26C713.66,-66.59 639.76,-52.51 565.99,-36.16"/>
<polygon fill="black" stroke="black" points="566.58,-32.71 556.06,-33.95 565.05,-39.54 566.58,-32.71"/>
</g>
<!-- theory&#45;&gt;dampingCoeffSpring -->
<g id="edge20" class="edge">
<title>theory:gdPowerPlantRC&#45;&gt;dampingCoeffSpring</title>
<path fill="none" stroke="black" d="M766.19,-80.58C686.92,-71.07 555.29,-54.67 432.16,-36.14"/>
<polygon fill="black" stroke="black" points="432.58,-32.67 422.17,-34.63 431.54,-39.59 432.58,-32.67"/>
</g>
<!-- theory&#45;&gt;stiffnessCoeffSpring -->
<g id="edge21" class="edge">
<title>theory:gdPowerPlantRC&#45;&gt;stiffnessCoeffSpring</title>
<path fill="none" stroke="black" d="M794.95,-71.88C770.67,-62.22 740.16,-50.09 714.49,-39.88"/>
<polygon fill="black" stroke="black" points="715.5,-36.51 704.91,-36.07 712.91,-43.02 715.5,-36.51"/>
</g>
<!-- theory&#45;&gt;qdProcessErrorFD -->
<g id="edge25" class="edge">
<title>theory:imPDRC&#45;&gt;qdProcessErrorFD</title>
<path fill="none" stroke="black" d="M909.68,-101.66C971.72,-111.65 1063.91,-127.22 1145.68,-142.11"/>
<polygon fill="black" stroke="black" points="1145.13,-145.57 1155.6,-143.93 1146.39,-138.69 1145.13,-145.57"/>
</g>
<!-- theory&#45;&gt;setPoint -->
<g id="edge24" class="edge">
<title>theory:imPDRC&#45;&gt;setPoint</title>
<path fill="none" stroke="black" d="M909.79,-86.96C1013.39,-82.94 1210.7,-71.25 1385.47,-36.08"/>
<polygon fill="black" stroke="black" points="1386.26,-39.49 1395.36,-34.06 1384.86,-32.63 1386.26,-39.49"/>
</g>
<!-- theory&#45;&gt;theory -->
<g id="edge22" class="edge">
<title>theory:gdPowerPlantRC&#45;&gt;theory:laplaceRC</title>
<path fill="none" stroke="black" d="M909.63,-93.06C920.29,-92.59 927.5,-91.56 927.5,-90 927.5,-89 924.54,-88.22 919.61,-87.66"/>
<polygon fill="black" stroke="black" points="919.85,-84.17 909.63,-86.94 919.35,-91.15 919.85,-84.17"/>
</g>
<!-- theory&#45;&gt;theory -->
<g id="edge23" class="edge">
<title>theory:gdPowerPlantRC&#45;&gt;theory:tmSOSystemRC</title>
<path fill="none" stroke="black" d="M909.59,-96.72C929.88,-96.44 945.5,-94.2 945.5,-90 945.5,-86.52 934.79,-84.39 919.58,-83.6"/>
<polygon fill="black" stroke="black" points="919.69,-80.1 909.59,-83.28 919.47,-87.1 919.69,-80.1"/>
</g>
<!-- theory&#45;&gt;theory -->
<g id="edge27" class="edge">
<title>theory:imPDRC&#45;&gt;theory:invLaplaceRC</title>
<path fill="none" stroke="black" d="M909.59,-100.05C938.83,-100.68 963.5,-97.33 963.5,-90 963.5,-83.53 944.28,-80.16 919.65,-79.89"/>
<polygon fill="black" stroke="black" points="919.57,-76.39 909.59,-79.95 919.61,-83.39 919.57,-76.39"/>
</g>
<!-- theory&#45;&gt;theory -->
<g id="edge28" class="edge">
<title>theory:imPDRC&#45;&gt;theory:gdPowerPlantRC</title>
<path fill="none" stroke="black" d="M909.62,-102.99C947.33,-105.09 981.5,-100.76 981.5,-90 981.5,-80.21 953.19,-75.74 919.68,-76.6"/>
<polygon fill="black" stroke="black" points="919.47,-73.11 909.62,-77.01 919.75,-80.1 919.47,-73.11"/>
</g>
<!-- qdCtrlVarFD -->
<g id="node13" class="node">
<title>qdCtrlVarFD</title>
<polygon fill="#bbffff" stroke="black" points="527.5,-180 414.5,-180 414.5,-144 527.5,-144 527.5,-180"/>
<text text-anchor="middle" x="471" y="-158.3" font-family="Times,serif" font-size="14.00">DD:ddCtrlVar</text>
</g>
<!-- theory&#45;&gt;qdCtrlVarFD -->
<g id="edge26" class="edge">
<title>theory:imPDRC&#45;&gt;qdCtrlVarFD</title>
<path fill="none" stroke="black" d="M766.28,-101.89C707.23,-111.24 621.13,-125.77 537.57,-143.74"/>
<polygon fill="black" stroke="black" points="536.68,-140.35 527.65,-145.89 538.17,-147.19 536.68,-140.35"/>
</g>
<!-- externalDisturb -->
<g id="node16" class="node">
<title>externalDisturb</title>
<polygon fill="mistyrose" stroke="black" points="1070,-36 926,-36 926,0 1070,0 1070,-36"/>
<text text-anchor="middle" x="998" y="-14.3" font-family="Times,serif" font-size="14.00">A:externalDisturb</text>
</g>
<!-- theory&#45;&gt;externalDisturb -->
<g id="edge18" class="edge">
<title>theory:gdPowerPlantRC&#45;&gt;externalDisturb</title>
<path fill="none" stroke="black" d="M877.14,-71.88C899.01,-62.31 926.46,-50.3 949.66,-40.15"/>
<polygon fill="black" stroke="black" points="951.23,-43.28 958.99,-36.07 948.42,-36.87 951.23,-43.28"/>
</g>
<!-- qdPropControlFD -->
<g id="node10" class="node">
<title>qdPropControlFD</title>
<polygon fill="#bbffff" stroke="black" points="821.5,-180 698.5,-180 698.5,-144 821.5,-144 821.5,-180"/>
<text text-anchor="middle" x="760" y="-158.3" font-family="Times,serif" font-size="14.00">DD:ddPropCtrl</text>
</g>
<!-- qdPropControlFD&#45;&gt;qdProcessErrorFD -->
<g id="edge8" class="edge">
<title>qdPropControlFD&#45;&gt;qdProcessErrorFD</title>
<path fill="none" stroke="black" d="M792.01,-180.15C806.24,-187.21 823.47,-194.45 840,-198 904.75,-211.9 1072.84,-209.82 1138,-198 1153.95,-195.11 1170.7,-189.72 1185.66,-183.98"/>
<polygon fill="black" stroke="black" points="1187.21,-187.12 1195.2,-180.17 1184.62,-180.62 1187.21,-187.12"/>
</g>
<!-- qdPropControlFD&#45;&gt;theory -->
<g id="edge9" class="edge">
<title>qdPropControlFD&#45;&gt;theory:laplaceRC</title>
<path fill="none" stroke="black" d="M779.28,-143.7C788.92,-135.05 800.73,-124.45 811.23,-115.03"/>
<polygon fill="black" stroke="black" points="813.84,-117.39 818.94,-108.1 809.16,-112.18 813.84,-117.39"/>
</g>
<!-- qdDerivativeControlFD -->
<g id="node11" class="node">
<title>qdDerivativeControlFD</title>
<polygon fill="#bbffff" stroke="black" points="1138,-180 1010,-180 1010,-144 1138,-144 1138,-180"/>
<text text-anchor="middle" x="1074" y="-158.3" font-family="Times,serif" font-size="14.00">DD:ddDerivCtrl</text>
</g>
<!-- qdDerivativeControlFD&#45;&gt;qdProcessErrorFD -->
<g id="edge11" class="edge">
<title>qdDerivativeControlFD&#45;&gt;qdProcessErrorFD</title>
<path fill="none" stroke="black" d="M1138.06,-162C1140.54,-162 1143.02,-162 1145.49,-162"/>
<polygon fill="black" stroke="black" points="1145.68,-165.5 1155.68,-162 1145.68,-158.5 1145.68,-165.5"/>
</g>
<!-- qdDerivativeControlFD&#45;&gt;theory -->
<g id="edge12" class="edge">
<title>qdDerivativeControlFD&#45;&gt;theory:laplaceRC</title>
<path fill="none" stroke="black" d="M1016.57,-143.97C983.02,-134.01 940.51,-121.41 905.39,-110.99"/>
<polygon fill="black" stroke="black" points="906.27,-107.6 895.69,-108.11 904.28,-114.31 906.27,-107.6"/>
</g>
<!-- unfilteredDerivative -->
<g id="node12" class="node">
<title>unfilteredDerivative</title>
<polygon fill="mistyrose" stroke="black" points="1377.5,-36 1202.5,-36 1202.5,0 1377.5,0 1377.5,-36"/>
<text text-anchor="middle" x="1290" y="-14.3" font-family="Times,serif" font-size="14.00">A:unfilteredDerivative</text>
</g>
<!-- qdDerivativeControlFD&#45;&gt;unfilteredDerivative -->
<g id="edge10" class="edge">
<title>qdDerivativeControlFD&#45;&gt;unfilteredDerivative</title>
<path fill="none" stroke="black" d="M1100.05,-143.87C1138.89,-118.34 1212.04,-70.25 1255.35,-41.78"/>
<polygon fill="black" stroke="black" points="1257.42,-44.61 1263.85,-36.19 1253.57,-38.76 1257.42,-44.61"/>
</g>
<!-- qdCtrlVarFD&#45;&gt;qdPropControlFD -->
<g id="edge15" class="edge">
<title>qdCtrlVarFD&#45;&gt;qdPropControlFD</title>
<path fill="none" stroke="black" d="M500.45,-180.14C513.58,-187.2 529.55,-194.44 545,-198 603.47,-211.47 621.34,-210.59 680,-198 693.04,-195.2 706.52,-190.1 718.62,-184.61"/>
<polygon fill="black" stroke="black" points="720.46,-187.61 727.99,-180.15 717.45,-181.29 720.46,-187.61"/>
</g>
<!-- qdCtrlVarFD&#45;&gt;qdDerivativeControlFD -->
<g id="edge16" class="edge">
<title>qdCtrlVarFD&#45;&gt;qdDerivativeControlFD</title>
<path fill="none" stroke="black" d="M500.45,-180.14C513.58,-187.2 529.55,-194.44 545,-198 641.8,-220.3 894.78,-218.4 992,-198 1005.46,-195.18 1019.41,-190.01 1031.9,-184.45"/>
<polygon fill="black" stroke="black" points="1033.54,-187.54 1041.14,-180.15 1030.59,-181.19 1033.54,-187.54"/>
</g>
<!-- decoupled -->
<g id="node14" class="node">
<title>decoupled</title>
<polygon fill="mistyrose" stroke="black" points="104,-36 0,-36 0,0 104,0 104,-36"/>
<text text-anchor="middle" x="52" y="-14.3" font-family="Times,serif" font-size="14.00">A:decoupled</text>
</g>
<!-- qdCtrlVarFD&#45;&gt;decoupled -->
<g id="edge13" class="edge">
<title>qdCtrlVarFD&#45;&gt;decoupled</title>
<path fill="none" stroke="black" d="M414.13,-146.31C376.86,-136.34 327.22,-122.38 284,-108 220.62,-86.91 149.04,-58.77 102.37,-39.83"/>
<polygon fill="black" stroke="black" points="103.66,-36.58 93.08,-36.05 101.03,-43.06 103.66,-36.58"/>
</g>
<!-- parallelEq -->
<g id="node15" class="node">
<title>parallelEq</title>
<polygon fill="mistyrose" stroke="black" points="226,-36 122,-36 122,0 226,0 226,-36"/>
<text text-anchor="middle" x="174" y="-14.3" font-family="Times,serif" font-size="14.00">A:parallelEq</text>
</g>
<!-- qdCtrlVarFD&#45;&gt;parallelEq -->
<g id="edge14" class="edge">
<title>qdCtrlVarFD&#45;&gt;parallelEq</title>
<path fill="none" stroke="black" d="M435.17,-143.87C380.99,-117.96 278.25,-68.84 219.06,-40.55"/>
<polygon fill="black" stroke="black" points="220.48,-37.35 209.95,-36.19 217.46,-43.66 220.48,-37.35"/>
</g>
<!-- calculateValues -->
<g id="node17" class="node">
<title>calculateValues</title>
<polygon fill="ivory" stroke="black" points="992,-180 840,-180 840,-144 992,-144 992,-180"/>
<text text-anchor="middle" x="916" y="-158.3" font-family="Times,serif" font-size="14.00">FR:calculateValues</text>
</g>
<!-- calculateValues&#45;&gt;theory -->
<g id="edge29" class="edge">
<title>calculateValues&#45;&gt;theory:imPDRC</title>
<path fill="none" stroke="black" d="M896.72,-143.7C887.08,-135.05 875.27,-124.45 864.77,-115.03"/>
<polygon fill="black" stroke="black" points="866.84,-112.18 857.06,-108.1 862.16,-117.39 866.84,-112.18"/>
</g>
<!-- outputValues -->
<g id="node18" class="node">
<title>outputValues</title>
<polygon fill="ivory" stroke="black" points="680.5,-180 545.5,-180 545.5,-144 680.5,-144 680.5,-180"/>
<text text-anchor="middle" x="613" y="-158.3" font-family="Times,serif" font-size="14.00">FR:outputValues</text>
</g>
<!-- outputValues&#45;&gt;theory -->
<g id="edge30" class="edge">
<title>outputValues&#45;&gt;theory:imPDRC</title>
<path fill="none" stroke="black" d="M667.75,-143.97C699.6,-134.06 739.92,-121.51 773.33,-111.12"/>
<polygon fill="black" stroke="black" points="774.49,-114.42 783,-108.11 772.41,-107.74 774.49,-114.42"/>
</g>
<!-- likeChgPP -->
<g id="node19" class="node">
<title>likeChgPP</title>
<polygon fill="lavender" stroke="black" points="555,-108 441,-108 441,-72 555,-72 555,-108"/>
<text text-anchor="middle" x="498" y="-86.3" font-family="Times,serif" font-size="14.00">LC:likeChgPP</text>
</g>
<!-- likeChgPP&#45;&gt;massSpring -->
<g id="edge31" class="edge">
<title>likeChgPP&#45;&gt;massSpring</title>
<path fill="none" stroke="black" d="M498,-71.7C498,-63.98 498,-54.71 498,-46.11"/>
<polygon fill="black" stroke="black" points="501.5,-46.1 498,-36.1 494.5,-46.1 501.5,-46.1"/>
</g>
<!-- likeChgPP&#45;&gt;dampingCoeffSpring -->
<g id="edge32" class="edge">
<title>likeChgPP&#45;&gt;dampingCoeffSpring</title>
<path fill="none" stroke="black" d="M457.64,-71.88C434.98,-62.26 406.53,-50.19 382.53,-40.01"/>
<polygon fill="black" stroke="black" points="383.81,-36.75 373.23,-36.07 381.07,-43.2 383.81,-36.75"/>
</g>
<!-- likeChgPP&#45;&gt;stiffnessCoeffSpring -->
<g id="edge33" class="edge">
<title>likeChgPP&#45;&gt;stiffnessCoeffSpring</title>
<path fill="none" stroke="black" d="M538.12,-71.88C560.64,-62.26 588.92,-50.19 612.77,-40.01"/>
<polygon fill="black" stroke="black" points="614.19,-43.21 622.01,-36.07 611.44,-36.77 614.19,-43.21"/>
</g>
<!-- inputValues -->
<g id="node20" class="node">
<title>inputValues</title>
<polygon fill="ivory" stroke="black" points="1455.5,-180 1330.5,-180 1330.5,-144 1455.5,-144 1455.5,-180"/>
<text text-anchor="middle" x="1393" y="-158.3" font-family="Times,serif" font-size="14.00">FR:inputValues</text>
</g>
<!-- verifyInputs -->
<g id="node21" class="node">
<title>verifyInputs</title>
<polygon fill="ivory" stroke="black" points="1602,-180 1474,-180 1474,-144 1602,-144 1602,-180"/>
<text text-anchor="middle" x="1538" y="-158.3" font-family="Times,serif" font-size="14.00">FR:verifyInputs</text>
</g>
<!-- portable -->
<g id="node22" class="node">
<title>portable</title>
<polygon fill="ivory" stroke="black" points="1733.5,-180 1620.5,-180 1620.5,-144 1733.5,-144 1733.5,-180"/>
<text text-anchor="middle" x="1677" y="-158.3" font-family="Times,serif" font-size="14.00">NFR:portable</text>
</g>
<!-- security -->
<g id="node23" class="node">
<title>security</title>
<polygon fill="ivory" stroke="black" points="1862.5,-180 1751.5,-180 1751.5,-144 1862.5,-144 1862.5,-180"/>
<text text-anchor="middle" x="1807" y="-158.3" font-family="Times,serif" font-size="14.00">NFR:security</text>
</g>
<!-- maintainability -->
<g id="node24" class="node">
<title>maintainability</title>
<polygon fill="ivory" stroke="black" points="2041.5,-180 1880.5,-180 1880.5,-144 2041.5,-144 2041.5,-180"/>
<text text-anchor="middle" x="1961" y="-158.3" font-family="Times,serif" font-size="14.00">NFR:maintainability</text>
</g>
<!-- verifiability -->
<g id="node25" class="node">
<title>verifiability</title>
<polygon fill="ivory" stroke="black" points="2194.5,-180 2059.5,-180 2059.5,-144 2194.5,-144 2194.5,-180"/>
<text text-anchor="middle" x="2127" y="-158.3" font-family="Times,serif" font-size="14.00">NFR:verifiability</text>
</g>
<!-- processVariable -->
<g id="node26" class="node">
<title>processVariable</title>
<polygon fill="#ffb90f" stroke="black" points="2367.5,-180 2212.5,-180 2212.5,-144 2367.5,-144 2367.5,-180"/>
<text text-anchor="middle" x="2290" y="-158.3" font-family="Times,serif" font-size="14.00">GS:processVariable</text>
</g>
</g>
</svg>
