<?xml version="1.0" encoding="UTF-8" standalone="no"?>
<!DOCTYPE svg PUBLIC "-//W3C//DTD SVG 1.1//EN"
 "http://www.w3.org/Graphics/SVG/1.1/DTD/svg11.dtd">
<!-- Generated by graphviz version 2.43.0 (0)
 -->
<!-- Title: allvsall Pages: 1 -->
<svg width="304pt" height="188pt"
 viewBox="0.00 0.00 303.68 188.00" xmlns="http://www.w3.org/2000/svg" xmlns:xlink="http://www.w3.org/1999/xlink">
<g id="graph0" class="graph" transform="scale(1 1) rotate(0) translate(4 184)">
<title>allvsall</title>
<polygon fill="white" stroke="transparent" points="-4,4 -4,-184 299.68,-184 299.68,4 -4,4"/>
<!-- instance -->
<g id="node1" class="node">
<title>instance</title>
<polygon fill="lavender" stroke="black" points="169.68,-180 55.68,-180 55.68,-144 169.68,-144 169.68,-180"/>
<text text-anchor="middle" x="112.68" y="-158.3" font-family="Times,serif" font-size="14.00">LC:likeChgPP</text>
</g>
<!-- instance&#45;&gt;instance -->
<g id="edge1" class="edge">
<title>instance:pwrPlantTxFnx&#45;&gt;instance:pwrPlant</title>
<path fill="none" stroke="black" d="M169.9,-163.82C180.35,-163.59 187.68,-162.98 187.68,-162 187.68,-161.38 184.82,-160.92 180.12,-160.6"/>
<polygon fill="black" stroke="black" points="180.04,-157.09 169.9,-160.18 179.75,-164.08 180.04,-157.09"/>
</g>
<!-- instance&#45;&gt;instance -->
<g id="edge2" class="edge">
<title>instance:massSpring&#45;&gt;instance:pwrPlant</title>
<path fill="none" stroke="black" d="M169.89,-165.86C189.69,-165.9 205.68,-164.61 205.68,-162 205.68,-159.86 194.92,-158.61 180.12,-158.25"/>
<polygon fill="black" stroke="black" points="179.93,-154.75 169.89,-158.14 179.85,-161.75 179.93,-154.75"/>
</g>
<!-- instance&#45;&gt;instance -->
<g id="edge3" class="edge">
<title>instance:dampingCoeffSpring&#45;&gt;instance:pwrPlant</title>
<path fill="none" stroke="black" d="M169.79,-167.61C198.27,-168.39 223.68,-166.52 223.68,-162 223.68,-158.03 204.05,-156.1 179.96,-156.22"/>
<polygon fill="black" stroke="black" points="179.73,-152.72 169.79,-156.39 179.85,-159.72 179.73,-152.72"/>
</g>
<!-- instance&#45;&gt;instance -->
<g id="edge4" class="edge">
<title>instance:stiffnessCoeffSpring&#45;&gt;instance:pwrPlant</title>
<path fill="none" stroke="black" d="M169.71,-169.1C206.38,-170.96 241.68,-168.59 241.68,-162 241.68,-156.03 212.69,-153.52 179.96,-154.49"/>
<polygon fill="black" stroke="black" points="179.56,-151 169.71,-154.9 179.84,-157.99 179.56,-151"/>
</g>
<!-- instance&#45;&gt;instance -->
<g id="edge31" class="edge">
<title>instance:likeChgPP&#45;&gt;instance:massSpring</title>
<path fill="none" stroke="black" d="M170.01,-170.4C214.4,-173.54 259.68,-170.74 259.68,-162 259.68,-153.93 221.04,-150.92 180.15,-152.99"/>
<polygon fill="black" stroke="black" points="179.78,-149.5 170.01,-153.6 180.21,-156.49 179.78,-149.5"/>
</g>
<!-- instance&#45;&gt;instance -->
<g id="edge32" class="edge">
<title>instance:likeChgPP&#45;&gt;instance:dampingCoeffSpring</title>
<path fill="none" stroke="black" d="M169.75,-171.47C221.77,-176.16 277.68,-173 277.68,-162 277.68,-151.71 228.75,-148.28 179.84,-151.72"/>
<polygon fill="black" stroke="black" points="179.44,-148.24 169.75,-152.53 179.99,-155.22 179.44,-148.24"/>
</g>
<!-- instance&#45;&gt;instance -->
<g id="edge33" class="edge">
<title>instance:likeChgPP&#45;&gt;instance:stiffnessCoeffSpring</title>
<path fill="none" stroke="black" d="M169.83,-172.43C229.18,-178.77 295.68,-175.29 295.68,-162 295.68,-149.46 236.5,-145.66 179.97,-150.58"/>
<polygon fill="black" stroke="black" points="179.44,-147.12 169.83,-151.57 180.12,-154.09 179.44,-147.12"/>
</g>
<!-- theory -->
<g id="node3" class="node">
<title>theory</title>
<polygon fill="#fff68f" stroke="black" points="184.18,-108 41.18,-108 41.18,-72 184.18,-72 184.18,-108"/>
<text text-anchor="middle" x="112.68" y="-86.3" font-family="Times,serif" font-size="14.00">IM:pdEquationIM</text>
</g>
<!-- instance&#45;&gt;theory -->
<g id="edge29" class="edge">
<title>instance:calculateValues&#45;&gt;theory:imPDRC</title>
<path fill="none" stroke="black" d="M77.18,-143.7C72.3,-135.81 70.99,-126.3 73.25,-117.55"/>
<polygon fill="black" stroke="black" points="76.57,-118.67 77.31,-108.1 70.14,-115.91 76.57,-118.67"/>
</g>
<!-- instance&#45;&gt;theory -->
<g id="edge30" class="edge">
<title>instance:outputValues&#45;&gt;theory:imPDRC</title>
<path fill="none" stroke="black" d="M148.17,-143.7C153.05,-135.81 154.36,-126.3 152.11,-117.55"/>
<polygon fill="black" stroke="black" points="155.21,-115.91 148.05,-108.1 148.78,-118.67 155.21,-115.91"/>
</g>
<!-- dataDefn -->
<g id="node2" class="node">
<title>dataDefn</title>
<polygon fill="#bbffff" stroke="black" points="169.18,-36 56.18,-36 56.18,0 169.18,0 169.18,-36"/>
<text text-anchor="middle" x="112.68" y="-14.3" font-family="Times,serif" font-size="14.00">DD:ddCtrlVar</text>
</g>
<!-- dataDefn&#45;&gt;instance -->
<g id="edge5" class="edge">
<title>dataDefn:dqdProcessErrorFD&#45;&gt;instance:setPointConstant</title>
<path fill="none" stroke="black" d="M169.3,-22.79C203.24,-28.33 243.91,-41.43 265.68,-72 274.96,-85.03 274.79,-94.85 265.68,-108 241.85,-142.38 208.02,-116.82 177.71,-137.33"/>
<polygon fill="black" stroke="black" points="175.13,-134.92 169.68,-144 179.61,-140.3 175.13,-134.92"/>
</g>
<!-- dataDefn&#45;&gt;instance -->
<g id="edge6" class="edge">
<title>dataDefn:dqdProcessErrorFD&#45;&gt;instance:initialValue</title>
<path fill="none" stroke="black" d="M56.13,-31.61C35.46,-40.17 15.69,-53.36 5.68,-72 -1.89,-86.1 -1.89,-93.9 5.68,-108 14.06,-123.6 29.27,-135.39 46.14,-143.83"/>
<polygon fill="black" stroke="black" points="45.09,-147.21 55.64,-148.19 48.01,-140.84 45.09,-147.21"/>
</g>
<!-- dataDefn&#45;&gt;instance -->
<g id="edge10" class="edge">
<title>dataDefn:dqdDerivativeControlFD&#45;&gt;instance:unfilteredDerivative</title>
<path fill="none" stroke="black" d="M63.15,-36C47.47,-44.46 32.11,-56.29 23.68,-72 16.11,-86.1 16.11,-93.9 23.68,-108 30.53,-120.76 41.96,-130.97 54.41,-138.88"/>
<polygon fill="black" stroke="black" points="52.75,-141.97 63.15,-144 56.29,-135.93 52.75,-141.97"/>
</g>
<!-- dataDefn&#45;&gt;instance -->
<g id="edge13" class="edge">
<title>dataDefn:dqdCtrlVarFD&#45;&gt;instance:decoupled</title>
<path fill="none" stroke="black" d="M79.84,-36C65.47,-44.46 50.11,-56.29 41.68,-72 34.11,-86.1 34.11,-93.9 41.68,-108 48.46,-120.64 59.74,-130.77 71.36,-138.65"/>
<polygon fill="black" stroke="black" points="69.51,-141.62 79.84,-144 73.25,-135.7 69.51,-141.62"/>
</g>
<!-- dataDefn&#45;&gt;instance -->
<g id="edge14" class="edge">
<title>dataDefn:dqdCtrlVarFD&#45;&gt;instance:parallelEq</title>
<path fill="none" stroke="black" d="M96.52,-36C83.47,-44.46 68.11,-56.29 59.68,-72 52.11,-86.1 52.11,-93.9 59.68,-108 66.33,-120.39 77.3,-130.38 88.04,-138.19"/>
<polygon fill="black" stroke="black" points="86.29,-141.24 96.52,-144 90.25,-135.46 86.29,-141.24"/>
</g>
<!-- dataDefn&#45;&gt;dataDefn -->
<g id="edge8" class="edge">
<title>dataDefn:dqdPropControlFD&#45;&gt;dataDefn:dqdProcessErrorFD</title>
<path fill="none" stroke="black" d="M169.2,-21.2C179.75,-20.81 187.18,-19.74 187.18,-18 187.18,-16.91 184.28,-16.09 179.53,-15.53"/>
<polygon fill="black" stroke="black" points="179.42,-12.01 169.2,-14.8 178.93,-18.99 179.42,-12.01"/>
</g>
<!-- dataDefn&#45;&gt;dataDefn -->
<g id="edge11" class="edge">
<title>dataDefn:dqdDerivativeControlFD&#45;&gt;dataDefn:dqdProcessErrorFD</title>
<path fill="none" stroke="black" d="M169.58,-24.75C189.28,-24.82 205.18,-22.57 205.18,-18 205.18,-14.25 194.48,-12.06 179.76,-11.44"/>
<polygon fill="black" stroke="black" points="179.65,-7.94 169.58,-11.25 179.52,-14.93 179.65,-7.94"/>
</g>
<!-- dataDefn&#45;&gt;dataDefn -->
<g id="edge15" class="edge">
<title>dataDefn:dqdCtrlVarFD&#45;&gt;dataDefn:dqdPropControlFD</title>
<path fill="none" stroke="black" d="M169.25,-27.81C197.72,-29.21 223.18,-25.94 223.18,-18 223.18,-11.02 203.51,-7.65 179.42,-7.89"/>
<polygon fill="black" stroke="black" points="179.14,-4.39 169.25,-8.19 179.35,-11.39 179.14,-4.39"/>
</g>
<!-- dataDefn&#45;&gt;dataDefn -->
<g id="edge16" class="edge">
<title>dataDefn:dqdCtrlVarFD&#45;&gt;dataDefn:dqdDerivativeControlFD</title>
<path fill="none" stroke="black" d="M169.49,-30.43C206.02,-33.68 241.18,-29.53 241.18,-18 241.18,-7.55 212.3,-3.17 179.7,-4.85"/>
<polygon fill="black" stroke="black" points="179.22,-1.38 169.49,-5.57 179.71,-8.36 179.22,-1.38"/>
</g>
<!-- dataDefn&#45;&gt;theory -->
<g id="edge7" class="edge">
<title>dataDefn:dqdProcessErrorFD&#45;&gt;theory:laplaceRC</title>
<path fill="none" stroke="black" d="M100.89,-36.1C99.28,-43.79 98.8,-53.05 99.47,-61.67"/>
<polygon fill="black" stroke="black" points="96.02,-62.27 100.85,-71.7 102.95,-61.31 96.02,-62.27"/>
</g>
<!-- dataDefn&#45;&gt;theory -->
<g id="edge9" class="edge">
<title>dataDefn:dqdPropControlFD&#45;&gt;theory:laplaceRC</title>
<path fill="none" stroke="black" d="M112.68,-36.1C112.68,-43.79 112.68,-53.05 112.68,-61.67"/>
<polygon fill="black" stroke="black" points="109.18,-61.7 112.68,-71.7 116.18,-61.7 109.18,-61.7"/>
</g>
<!-- dataDefn&#45;&gt;theory -->
<g id="edge12" class="edge">
<title>dataDefn:dqdDerivativeControlFD&#45;&gt;theory:laplaceRC</title>
<path fill="none" stroke="black" d="M124.47,-36.1C126.08,-43.79 126.55,-53.05 125.89,-61.67"/>
<polygon fill="black" stroke="black" points="122.4,-61.31 124.51,-71.7 129.34,-62.27 122.4,-61.31"/>
</g>
<!-- theory&#45;&gt;instance -->
<g id="edge17" class="edge">
<title>theory:tmSOSystemRC&#45;&gt;instance:pwrPlantTxFnx</title>
<path fill="none" stroke="black" d="M89.1,-108.1C85.84,-115.88 84.91,-125.26 86.31,-133.95"/>
<polygon fill="black" stroke="black" points="82.97,-135 89.01,-143.7 89.71,-133.12 82.97,-135"/>
</g>
<!-- theory&#45;&gt;instance -->
<g id="edge18" class="edge">
<title>theory:gdPowerPlantRC&#45;&gt;instance:externalDisturb</title>
<path fill="none" stroke="black" d="M100.89,-108.1C99.28,-115.79 98.8,-125.05 99.47,-133.67"/>
<polygon fill="black" stroke="black" points="96.02,-134.27 100.85,-143.7 102.95,-133.31 96.02,-134.27"/>
</g>
<!-- theory&#45;&gt;instance -->
<g id="edge19" class="edge">
<title>theory:gdPowerPlantRC&#45;&gt;instance:massSpring</title>
<path fill="none" stroke="black" d="M112.68,-108.1C112.68,-115.79 112.68,-125.05 112.68,-133.67"/>
<polygon fill="black" stroke="black" points="109.18,-133.7 112.68,-143.7 116.18,-133.7 109.18,-133.7"/>
</g>
<!-- theory&#45;&gt;instance -->
<g id="edge20" class="edge">
<title>theory:gdPowerPlantRC&#45;&gt;instance:dampingCoeffSpring</title>
<path fill="none" stroke="black" d="M124.47,-108.1C126.08,-115.79 126.55,-125.05 125.89,-133.67"/>
<polygon fill="black" stroke="black" points="122.4,-133.31 124.51,-143.7 129.34,-134.27 122.4,-133.31"/>
</g>
<!-- theory&#45;&gt;instance -->
<g id="edge21" class="edge">
<title>theory:gdPowerPlantRC&#45;&gt;instance:stiffnessCoeffSpring</title>
<path fill="none" stroke="black" d="M136.26,-108.1C139.52,-115.88 140.45,-125.26 139.05,-133.95"/>
<polygon fill="black" stroke="black" points="135.65,-133.12 136.34,-143.7 142.39,-135 135.65,-133.12"/>
</g>
<!-- theory&#45;&gt;instance -->
<g id="edge24" class="edge">
<title>theory:imPDRC&#45;&gt;instance:setPointConstant</title>
<path fill="none" stroke="black" d="M149.94,-108.09C163.2,-115.84 174.77,-125.39 174.24,-134.92"/>
<polygon fill="black" stroke="black" points="171.04,-133.49 169.68,-144 177.3,-136.64 171.04,-133.49"/>
</g>
<!-- theory&#45;&gt;dataDefn -->
<g id="edge25" class="edge">
<title>theory:imPDRC&#45;&gt;dataDefn:dqdProcessErrorFD</title>
<path fill="none" stroke="black" d="M89.01,-71.7C85.8,-63.9 84.91,-54.51 86.34,-45.83"/>
<polygon fill="black" stroke="black" points="89.74,-46.68 89.1,-36.1 83,-44.77 89.74,-46.68"/>
</g>
<!-- theory&#45;&gt;dataDefn -->
<g id="edge26" class="edge">
<title>theory:imPDRC&#45;&gt;dataDefn:dqdCtrlVarFD</title>
<path fill="none" stroke="black" d="M136.34,-71.7C139.56,-63.9 140.45,-54.51 139.01,-45.83"/>
<polygon fill="black" stroke="black" points="142.35,-44.77 136.26,-36.1 135.62,-46.68 142.35,-44.77"/>
</g>
<!-- theory&#45;&gt;theory -->
<g id="edge22" class="edge">
<title>theory:gdPowerPlantRC&#45;&gt;theory:laplaceRC</title>
<path fill="none" stroke="black" d="M184.3,-93.06C194.97,-92.59 202.18,-91.56 202.18,-90 202.18,-89 199.22,-88.22 194.29,-87.66"/>
<polygon fill="black" stroke="black" points="194.53,-84.17 184.3,-86.94 194.02,-91.15 194.53,-84.17"/>
</g>
<!-- theory&#45;&gt;theory -->
<g id="edge23" class="edge">
<title>theory:gdPowerPlantRC&#45;&gt;theory:tmSOSystemRC</title>
<path fill="none" stroke="black" d="M184.26,-96.72C204.56,-96.44 220.18,-94.2 220.18,-90 220.18,-86.52 209.47,-84.39 194.26,-83.6"/>
<polygon fill="black" stroke="black" points="194.37,-80.1 184.26,-83.28 194.15,-87.1 194.37,-80.1"/>
</g>
<!-- theory&#45;&gt;theory -->
<g id="edge27" class="edge">
<title>theory:imPDRC&#45;&gt;theory:invLaplaceRC</title>
<path fill="none" stroke="black" d="M184.27,-100.05C213.51,-100.68 238.18,-97.33 238.18,-90 238.18,-83.53 218.95,-80.16 194.33,-79.89"/>
<polygon fill="black" stroke="black" points="194.25,-76.39 184.27,-79.95 194.29,-83.39 194.25,-76.39"/>
</g>
<!-- theory&#45;&gt;theory -->
<g id="edge28" class="edge">
<title>theory:imPDRC&#45;&gt;theory:gdPowerPlantRC</title>
<path fill="none" stroke="black" d="M184.3,-102.99C222.01,-105.09 256.18,-100.76 256.18,-90 256.18,-80.21 227.87,-75.74 194.35,-76.6"/>
<polygon fill="black" stroke="black" points="194.15,-73.11 184.3,-77.01 194.43,-80.1 194.15,-73.11"/>
</g>
</g>
</svg>
