<?xml version="1.0" encoding="UTF-8" standalone="no"?>
<!DOCTYPE svg PUBLIC "-//W3C//DTD SVG 1.1//EN"
 "http://www.w3.org/Graphics/SVG/1.1/DTD/svg11.dtd">
<!-- Generated by graphviz version 2.43.0 (0)
 -->
<!-- Title: allvsr Pages: 1 -->
<svg width="294pt" height="116pt"
 viewBox="0.00 0.00 294.00 116.00" xmlns="http://www.w3.org/2000/svg" xmlns:xlink="http://www.w3.org/1999/xlink">
<g id="graph0" class="graph" transform="scale(1 1) rotate(0) translate(4 112)">
<title>allvsr</title>
<polygon fill="white" stroke="transparent" points="-4,4 -4,-112 290,-112 290,4 -4,4"/>
<!-- instance -->
<g id="node1" class="node">
<title>instance</title>
<polygon fill="#ffb90f" stroke="black" points="155,-108 0,-108 0,-72 155,-72 155,-108"/>
<text text-anchor="middle" x="77.5" y="-86.3" font-family="Times,serif" font-size="14.00">GS:processVariable</text>
</g>
<!-- theory -->
<g id="node2" class="node">
<title>theory</title>
<polygon fill="#fff68f" stroke="black" points="149,-36 6,-36 6,0 149,0 149,-36"/>
<text text-anchor="middle" x="77.5" y="-14.3" font-family="Times,serif" font-size="14.00">IM:pdEquationIM</text>
</g>
<!-- instance&#45;&gt;theory -->
<g id="edge1" class="edge">
<title>instance:calculateValues&#45;&gt;theory:imPDRC</title>
<path fill="none" stroke="black" d="M71.58,-71.7C70.79,-63.98 70.56,-54.71 70.9,-46.11"/>
<polygon fill="black" stroke="black" points="74.4,-46.32 71.6,-36.1 67.42,-45.84 74.4,-46.32"/>
</g>
<!-- instance&#45;&gt;theory -->
<g id="edge2" class="edge">
<title>instance:outputValues&#45;&gt;theory:imPDRC</title>
<path fill="none" stroke="black" d="M83.42,-71.7C84.21,-63.98 84.44,-54.71 84.1,-46.11"/>
<polygon fill="black" stroke="black" points="87.58,-45.84 83.4,-36.1 80.6,-46.32 87.58,-45.84"/>
</g>
<!-- dataDefn -->
<g id="node3" class="node">
<title>dataDefn</title>
<polygon fill="#bbffff" stroke="black" points="286,-108 173,-108 173,-72 286,-72 286,-108"/>
<text text-anchor="middle" x="229.5" y="-86.3" font-family="Times,serif" font-size="14.00">DD:ddCtrlVar</text>
</g>
</g>
</svg>
