<?xml version="1.0" encoding="UTF-8" standalone="no"?>
<!DOCTYPE svg PUBLIC "-//W3C//DTD SVG 1.1//EN"
 "http://www.w3.org/Graphics/SVG/1.1/DTD/svg11.dtd">
<!-- Generated by graphviz version 2.43.0 (0)
 -->
<!-- Title: allvsr Pages: 1 -->
<svg width="360pt" height="116pt"
 viewBox="0.00 0.00 359.50 116.00" xmlns="http://www.w3.org/2000/svg" xmlns:xlink="http://www.w3.org/1999/xlink">
<g id="graph0" class="graph" transform="scale(1 1) rotate(0) translate(4 112)">
<title>allvsr</title>
<polygon fill="white" stroke="transparent" points="-4,4 -4,-112 355.5,-112 355.5,4 -4,4"/>
<!-- instance -->
<g id="node1" class="node">
<title>instance</title>
<polygon fill="#ffb90f" stroke="black" points="220,-108 0,-108 0,-72 220,-72 220,-108"/>
<text text-anchor="middle" x="110" y="-86.3" font-family="Times,serif" font-size="14.00">GS:calculateProcessVariable</text>
</g>
<!-- theory -->
<g id="node2" class="node">
<title>theory</title>
<polygon fill="#fff68f" stroke="black" points="181.5,-36 38.5,-36 38.5,0 181.5,0 181.5,-36"/>
<text text-anchor="middle" x="110" y="-14.3" font-family="Times,serif" font-size="14.00">IM:pdEquationIM</text>
</g>
<!-- instance&#45;&gt;theory -->
<g id="edge1" class="edge">
<title>instance:calculateValues&#45;&gt;theory:imPDRC</title>
<path fill="none" stroke="black" d="M104.08,-71.7C103.29,-63.98 103.06,-54.71 103.4,-46.11"/>
<polygon fill="black" stroke="black" points="106.9,-46.32 104.1,-36.1 99.92,-45.84 106.9,-46.32"/>
</g>
<!-- instance&#45;&gt;theory -->
<g id="edge2" class="edge">
<title>instance:outputValues&#45;&gt;theory:imPDRC</title>
<path fill="none" stroke="black" d="M115.92,-71.7C116.71,-63.98 116.94,-54.71 116.6,-46.11"/>
<polygon fill="black" stroke="black" points="120.08,-45.84 115.9,-36.1 113.1,-46.32 120.08,-45.84"/>
</g>
<!-- dataDefn -->
<g id="node3" class="node">
<title>dataDefn</title>
<polygon fill="#bbffff" stroke="black" points="351.5,-108 238.5,-108 238.5,-72 351.5,-72 351.5,-108"/>
<text text-anchor="middle" x="295" y="-86.3" font-family="Times,serif" font-size="14.00">DD:ddCtrlVar</text>
</g>
</g>
</svg>
