<?xml version="1.0" encoding="UTF-8" standalone="no"?>
<!DOCTYPE svg PUBLIC "-//W3C//DTD SVG 1.1//EN"
 "http://www.w3.org/Graphics/SVG/1.1/DTD/svg11.dtd">
<!-- Generated by graphviz version 2.43.0 (0)
 -->
<!-- Title: avsall Pages: 1 -->
<svg width="2488pt" height="116pt"
 viewBox="0.00 0.00 2487.50 116.00" xmlns="http://www.w3.org/2000/svg" xmlns:xlink="http://www.w3.org/1999/xlink">
<g id="graph0" class="graph" transform="scale(1 1) rotate(0) translate(4 112)">
<title>avsall</title>
<polygon fill="white" stroke="transparent" points="-4,4 -4,-112 2483.5,-112 2483.5,4 -4,4"/>
<!-- dataDefn -->
<g id="node1" class="node">
<title>dataDefn</title>
<polygon fill="#bbffff" stroke="black" points="356.5,-108 243.5,-108 243.5,-72 356.5,-72 356.5,-108"/>
<text text-anchor="middle" x="300" y="-86.3" font-family="Times,serif" font-size="14.00">DD:ddCtrlVar</text>
</g>
<!-- setPoint -->
<g id="node2" class="node">
<title>setPoint</title>
<polygon fill="mistyrose" stroke="black" points="655.5,-36 566.5,-36 566.5,0 655.5,0 655.5,-36"/>
<text text-anchor="middle" x="611" y="-14.3" font-family="Times,serif" font-size="14.00">A:setPoint</text>
</g>
<!-- dataDefn&#45;&gt;setPoint -->
<g id="edge1" class="edge">
<title>dataDefn:qdProcessErrorFD&#45;&gt;setPoint</title>
<path fill="none" stroke="black" d="M356.53,-79.05C406.61,-69.85 481.85,-55.09 556.29,-36.04"/>
<polygon fill="black" stroke="black" points="557.51,-39.35 566.31,-33.45 555.75,-32.57 557.51,-39.35"/>
</g>
<!-- initialValue -->
<g id="node3" class="node">
<title>initialValue</title>
<polygon fill="mistyrose" stroke="black" points="355.5,-36 244.5,-36 244.5,0 355.5,0 355.5,-36"/>
<text text-anchor="middle" x="300" y="-14.3" font-family="Times,serif" font-size="14.00">A:initialValue</text>
</g>
<!-- dataDefn&#45;&gt;initialValue -->
<g id="edge2" class="edge">
<title>dataDefn:qdProcessErrorFD&#45;&gt;initialValue</title>
<path fill="none" stroke="black" d="M300,-71.7C300,-63.98 300,-54.71 300,-46.11"/>
<polygon fill="black" stroke="black" points="303.5,-46.1 300,-36.1 296.5,-46.1 303.5,-46.1"/>
</g>
<!-- unfilteredDerivative -->
<g id="node4" class="node">
<title>unfilteredDerivative</title>
<polygon fill="mistyrose" stroke="black" points="548.5,-36 373.5,-36 373.5,0 548.5,0 548.5,-36"/>
<text text-anchor="middle" x="461" y="-14.3" font-family="Times,serif" font-size="14.00">A:unfilteredDerivative</text>
</g>
<!-- dataDefn&#45;&gt;unfilteredDerivative -->
<g id="edge3" class="edge">
<title>dataDefn:qdDerivativeControlFD&#45;&gt;unfilteredDerivative</title>
<path fill="none" stroke="black" d="M339.39,-71.88C361.39,-62.31 389.01,-50.3 412.36,-40.15"/>
<polygon fill="black" stroke="black" points="413.97,-43.27 421.74,-36.07 411.18,-36.85 413.97,-43.27"/>
</g>
<!-- decoupled -->
<g id="node5" class="node">
<title>decoupled</title>
<polygon fill="mistyrose" stroke="black" points="104,-36 0,-36 0,0 104,0 104,-36"/>
<text text-anchor="middle" x="52" y="-14.3" font-family="Times,serif" font-size="14.00">A:decoupled</text>
</g>
<!-- dataDefn&#45;&gt;decoupled -->
<g id="edge4" class="edge">
<title>dataDefn:qdCtrlVarFD&#45;&gt;decoupled</title>
<path fill="none" stroke="black" d="M243.41,-73.03C204.8,-62.13 153.65,-47.69 113.95,-36.48"/>
<polygon fill="black" stroke="black" points="114.69,-33.06 104.11,-33.71 112.79,-39.79 114.69,-33.06"/>
</g>
<!-- parallelEq -->
<g id="node6" class="node">
<title>parallelEq</title>
<polygon fill="mistyrose" stroke="black" points="226,-36 122,-36 122,0 226,0 226,-36"/>
<text text-anchor="middle" x="174" y="-14.3" font-family="Times,serif" font-size="14.00">A:parallelEq</text>
</g>
<!-- dataDefn&#45;&gt;parallelEq -->
<g id="edge5" class="edge">
<title>dataDefn:qdCtrlVarFD&#45;&gt;parallelEq</title>
<path fill="none" stroke="black" d="M269.18,-71.88C252.55,-62.64 231.84,-51.13 213.98,-41.21"/>
<polygon fill="black" stroke="black" points="215.38,-37.99 204.94,-36.19 211.98,-44.11 215.38,-37.99"/>
</g>
<!-- theory -->
<g id="node7" class="node">
<title>theory</title>
<polygon fill="#fff68f" stroke="black" points="1049.5,-108 906.5,-108 906.5,-72 1049.5,-72 1049.5,-108"/>
<text text-anchor="middle" x="978" y="-86.3" font-family="Times,serif" font-size="14.00">IM:pdEquationIM</text>
</g>
<!-- theory&#45;&gt;setPoint -->
<g id="edge11" class="edge">
<title>theory:imPDRC&#45;&gt;setPoint</title>
<path fill="none" stroke="black" d="M906.27,-79.71C844.76,-71.09 753.71,-56.79 665.56,-35.95"/>
<polygon fill="black" stroke="black" points="666.2,-32.5 655.66,-33.58 664.57,-39.31 666.2,-32.5"/>
</g>
<!-- pwrPlantTxFnx -->
<g id="node8" class="node">
<title>pwrPlantTxFnx</title>
<polygon fill="mistyrose" stroke="black" points="814,-36 674,-36 674,0 814,0 814,-36"/>
<text text-anchor="middle" x="744" y="-14.3" font-family="Times,serif" font-size="14.00">A:pwrPlantTxFnx</text>
</g>
<!-- theory&#45;&gt;pwrPlantTxFnx -->
<g id="edge6" class="edge">
<title>theory:tmSOSystemRC&#45;&gt;pwrPlantTxFnx</title>
<path fill="none" stroke="black" d="M921.06,-71.97C887.79,-62.01 845.64,-49.41 810.81,-38.99"/>
<polygon fill="black" stroke="black" points="811.78,-35.62 801.2,-36.11 809.78,-42.33 811.78,-35.62"/>
</g>
<!-- externalDisturb -->
<g id="node9" class="node">
<title>externalDisturb</title>
<polygon fill="mistyrose" stroke="black" points="976,-36 832,-36 832,0 976,0 976,-36"/>
<text text-anchor="middle" x="904" y="-14.3" font-family="Times,serif" font-size="14.00">A:externalDisturb</text>
</g>
<!-- theory&#45;&gt;externalDisturb -->
<g id="edge7" class="edge">
<title>theory:gdPowerPlantRC&#45;&gt;externalDisturb</title>
<path fill="none" stroke="black" d="M959.71,-71.7C950.57,-63.05 939.36,-52.45 929.4,-43.03"/>
<polygon fill="black" stroke="black" points="931.75,-40.43 922.08,-36.1 926.94,-45.52 931.75,-40.43"/>
</g>
<!-- massSpring -->
<g id="node10" class="node">
<title>massSpring</title>
<polygon fill="mistyrose" stroke="black" points="1110,-36 994,-36 994,0 1110,0 1110,-36"/>
<text text-anchor="middle" x="1052" y="-14.3" font-family="Times,serif" font-size="14.00">A:massSpring</text>
</g>
<!-- theory&#45;&gt;massSpring -->
<g id="edge8" class="edge">
<title>theory:gdPowerPlantRC&#45;&gt;massSpring</title>
<path fill="none" stroke="black" d="M996.29,-71.7C1005.43,-63.05 1016.64,-52.45 1026.6,-43.03"/>
<polygon fill="black" stroke="black" points="1029.06,-45.52 1033.92,-36.1 1024.25,-40.43 1029.06,-45.52"/>
</g>
<!-- dampingCoeffSpring -->
<g id="node11" class="node">
<title>dampingCoeffSpring</title>
<polygon fill="mistyrose" stroke="black" points="1306,-36 1128,-36 1128,0 1306,0 1306,-36"/>
<text text-anchor="middle" x="1217" y="-14.3" font-family="Times,serif" font-size="14.00">A:dampingCoeffSpring</text>
</g>
<!-- theory&#45;&gt;dampingCoeffSpring -->
<g id="edge9" class="edge">
<title>theory:gdPowerPlantRC&#45;&gt;dampingCoeffSpring</title>
<path fill="none" stroke="black" d="M1036.16,-71.97C1070.13,-62.01 1113.18,-49.41 1148.76,-38.99"/>
<polygon fill="black" stroke="black" points="1149.97,-42.28 1158.58,-36.11 1148,-35.56 1149.97,-42.28"/>
</g>
<!-- stiffnessCoeffSpring -->
<g id="node12" class="node">
<title>stiffnessCoeffSpring</title>
<polygon fill="mistyrose" stroke="black" points="1500,-36 1324,-36 1324,0 1500,0 1500,-36"/>
<text text-anchor="middle" x="1412" y="-14.3" font-family="Times,serif" font-size="14.00">A:stiffnessCoeffSpring</text>
</g>
<!-- theory&#45;&gt;stiffnessCoeffSpring -->
<g id="edge10" class="edge">
<title>theory:gdPowerPlantRC&#45;&gt;stiffnessCoeffSpring</title>
<path fill="none" stroke="black" d="M1049.72,-78.09C1115.71,-67.97 1216.6,-52.28 1313.97,-36.16"/>
<polygon fill="black" stroke="black" points="1314.69,-39.59 1323.98,-34.49 1313.54,-32.68 1314.69,-39.59"/>
</g>
<!-- likeChgPP -->
<g id="node13" class="node">
<title>likeChgPP</title>
<polygon fill="lavender" stroke="black" points="1274,-108 1160,-108 1160,-72 1274,-72 1274,-108"/>
<text text-anchor="middle" x="1217" y="-86.3" font-family="Times,serif" font-size="14.00">LC:likeChgPP</text>
</g>
<!-- likeChgPP&#45;&gt;massSpring -->
<g id="edge12" class="edge">
<title>likeChgPP&#45;&gt;massSpring</title>
<path fill="none" stroke="black" d="M1176.64,-71.88C1153.98,-62.26 1125.53,-50.19 1101.53,-40.01"/>
<polygon fill="black" stroke="black" points="1102.81,-36.75 1092.23,-36.07 1100.07,-43.2 1102.81,-36.75"/>
</g>
<!-- likeChgPP&#45;&gt;dampingCoeffSpring -->
<g id="edge13" class="edge">
<title>likeChgPP&#45;&gt;dampingCoeffSpring</title>
<path fill="none" stroke="black" d="M1217,-71.7C1217,-63.98 1217,-54.71 1217,-46.11"/>
<polygon fill="black" stroke="black" points="1220.5,-46.1 1217,-36.1 1213.5,-46.1 1220.5,-46.1"/>
</g>
<!-- likeChgPP&#45;&gt;stiffnessCoeffSpring -->
<g id="edge14" class="edge">
<title>likeChgPP&#45;&gt;stiffnessCoeffSpring</title>
<path fill="none" stroke="black" d="M1264.7,-71.88C1291.95,-62.09 1326.3,-49.77 1354.97,-39.47"/>
<polygon fill="black" stroke="black" points="1356.22,-42.74 1364.45,-36.07 1353.86,-36.15 1356.22,-42.74"/>
</g>
<!-- pwrPlant -->
<g id="node14" class="node">
<title>pwrPlant</title>
<polygon fill="mistyrose" stroke="black" points="1614,-36 1518,-36 1518,0 1614,0 1614,-36"/>
<text text-anchor="middle" x="1566" y="-14.3" font-family="Times,serif" font-size="14.00">A:pwrPlant</text>
</g>
<!-- inputValues -->
<g id="node15" class="node">
<title>inputValues</title>
<polygon fill="ivory" stroke="black" points="1417.5,-108 1292.5,-108 1292.5,-72 1417.5,-72 1417.5,-108"/>
<text text-anchor="middle" x="1355" y="-86.3" font-family="Times,serif" font-size="14.00">FR:inputValues</text>
</g>
<!-- verifyInputs -->
<g id="node16" class="node">
<title>verifyInputs</title>
<polygon fill="ivory" stroke="black" points="1564,-108 1436,-108 1436,-72 1564,-72 1564,-108"/>
<text text-anchor="middle" x="1500" y="-86.3" font-family="Times,serif" font-size="14.00">FR:verifyInputs</text>
</g>
<!-- calculateValues -->
<g id="node17" class="node">
<title>calculateValues</title>
<polygon fill="ivory" stroke="black" points="1734,-108 1582,-108 1582,-72 1734,-72 1734,-108"/>
<text text-anchor="middle" x="1658" y="-86.3" font-family="Times,serif" font-size="14.00">FR:calculateValues</text>
</g>
<!-- outputValues -->
<g id="node18" class="node">
<title>outputValues</title>
<polygon fill="ivory" stroke="black" points="1887.5,-108 1752.5,-108 1752.5,-72 1887.5,-72 1887.5,-108"/>
<text text-anchor="middle" x="1820" y="-86.3" font-family="Times,serif" font-size="14.00">FR:outputValues</text>
</g>
<!-- portable -->
<g id="node19" class="node">
<title>portable</title>
<polygon fill="ivory" stroke="black" points="2018.5,-108 1905.5,-108 1905.5,-72 2018.5,-72 2018.5,-108"/>
<text text-anchor="middle" x="1962" y="-86.3" font-family="Times,serif" font-size="14.00">NFR:portable</text>
</g>
<!-- security -->
<g id="node20" class="node">
<title>security</title>
<polygon fill="ivory" stroke="black" points="2147.5,-108 2036.5,-108 2036.5,-72 2147.5,-72 2147.5,-108"/>
<text text-anchor="middle" x="2092" y="-86.3" font-family="Times,serif" font-size="14.00">NFR:security</text>
</g>
<!-- maintainability -->
<g id="node21" class="node">
<title>maintainability</title>
<polygon fill="ivory" stroke="black" points="2326.5,-108 2165.5,-108 2165.5,-72 2326.5,-72 2326.5,-108"/>
<text text-anchor="middle" x="2246" y="-86.3" font-family="Times,serif" font-size="14.00">NFR:maintainability</text>
</g>
<!-- verifiability -->
<g id="node22" class="node">
<title>verifiability</title>
<polygon fill="ivory" stroke="black" points="2479.5,-108 2344.5,-108 2344.5,-72 2479.5,-72 2479.5,-108"/>
<text text-anchor="middle" x="2412" y="-86.3" font-family="Times,serif" font-size="14.00">NFR:verifiability</text>
</g>
</g>
</svg>
