<?xml version="1.0" encoding="UTF-8" standalone="no"?>
<!DOCTYPE svg PUBLIC "-//W3C//DTD SVG 1.1//EN"
 "http://www.w3.org/Graphics/SVG/1.1/DTD/svg11.dtd">
<!-- Generated by graphviz version 2.43.0 (0)
 -->
<!-- Title: refvsref Pages: 1 -->
<svg width="223pt" height="116pt"
 viewBox="0.00 0.00 223.00 116.00" xmlns="http://www.w3.org/2000/svg" xmlns:xlink="http://www.w3.org/1999/xlink">
<g id="graph0" class="graph" transform="scale(1 1) rotate(0) translate(4 112)">
<title>refvsref</title>
<polygon fill="white" stroke="transparent" points="-4,4 -4,-112 219,-112 219,4 -4,4"/>
<!-- dataDefn -->
<g id="node1" class="node">
<title>dataDefn</title>
<polygon fill="#bbffff" stroke="black" points="128,-108 15,-108 15,-72 128,-72 128,-108"/>
<text text-anchor="middle" x="71.5" y="-86.3" font-family="Times,serif" font-size="14.00">DD:ddCtrlVar</text>
</g>
<!-- dataDefn&#45;&gt;dataDefn -->
<g id="edge2" class="edge">
<title>dataDefn:dqdPropControlFD&#45;&gt;dataDefn:dqdProcessErrorFD</title>
<path fill="none" stroke="black" d="M128.03,-93.2C138.57,-92.81 146,-91.74 146,-90 146,-88.91 143.1,-88.09 138.35,-87.53"/>
<polygon fill="black" stroke="black" points="138.25,-84.01 128.03,-86.8 137.75,-90.99 138.25,-84.01"/>
</g>
<!-- dataDefn&#45;&gt;dataDefn -->
<g id="edge4" class="edge">
<title>dataDefn:dqdDerivativeControlFD&#45;&gt;dataDefn:dqdProcessErrorFD</title>
<path fill="none" stroke="black" d="M128.41,-96.75C148.1,-96.82 164,-94.57 164,-90 164,-86.25 153.3,-84.06 138.58,-83.44"/>
<polygon fill="black" stroke="black" points="138.47,-79.94 128.41,-83.25 138.34,-86.93 138.47,-79.94"/>
</g>
<!-- dataDefn&#45;&gt;dataDefn -->
<g id="edge6" class="edge">
<title>dataDefn:dqdCtrlVarFD&#45;&gt;dataDefn:dqdPropControlFD</title>
<path fill="none" stroke="black" d="M128.07,-99.81C156.54,-101.21 182,-97.94 182,-90 182,-83.02 162.33,-79.65 138.24,-79.89"/>
<polygon fill="black" stroke="black" points="137.96,-76.39 128.07,-80.19 138.17,-83.39 137.96,-76.39"/>
</g>
<!-- dataDefn&#45;&gt;dataDefn -->
<g id="edge7" class="edge">
<title>dataDefn:dqdCtrlVarFD&#45;&gt;dataDefn:dqdDerivativeControlFD</title>
<path fill="none" stroke="black" d="M128.31,-102.43C164.84,-105.68 200,-101.53 200,-90 200,-79.55 171.13,-75.17 138.52,-76.85"/>
<polygon fill="black" stroke="black" points="138.04,-73.38 128.31,-77.57 138.53,-80.36 138.04,-73.38"/>
</g>
<!-- theory -->
<g id="node2" class="node">
<title>theory</title>
<polygon fill="#fff68f" stroke="black" points="143,-36 0,-36 0,0 143,0 143,-36"/>
<text text-anchor="middle" x="71.5" y="-14.3" font-family="Times,serif" font-size="14.00">IM:pdEquationIM</text>
</g>
<!-- dataDefn&#45;&gt;theory -->
<g id="edge1" class="edge">
<title>dataDefn:dqdProcessErrorFD&#45;&gt;theory:laplaceRC</title>
<path fill="none" stroke="black" d="M47.84,-71.7C44.62,-63.9 43.73,-54.51 45.16,-45.83"/>
<polygon fill="black" stroke="black" points="48.56,-46.68 47.92,-36.1 41.83,-44.77 48.56,-46.68"/>
</g>
<!-- dataDefn&#45;&gt;theory -->
<g id="edge3" class="edge">
<title>dataDefn:dqdPropControlFD&#45;&gt;theory:laplaceRC</title>
<path fill="none" stroke="black" d="M59.67,-71.7C58.08,-63.98 57.62,-54.71 58.31,-46.11"/>
<polygon fill="black" stroke="black" points="61.79,-46.49 59.71,-36.1 54.86,-45.52 61.79,-46.49"/>
</g>
<!-- dataDefn&#45;&gt;theory -->
<g id="edge5" class="edge">
<title>dataDefn:dqdDerivativeControlFD&#45;&gt;theory:laplaceRC</title>
<path fill="none" stroke="black" d="M71.5,-71.7C71.5,-63.98 71.5,-54.71 71.5,-46.11"/>
<polygon fill="black" stroke="black" points="75,-46.1 71.5,-36.1 68,-46.1 75,-46.1"/>
</g>
<!-- theory&#45;&gt;dataDefn -->
<g id="edge10" class="edge">
<title>theory:imPDRC&#45;&gt;dataDefn:dqdProcessErrorFD</title>
<path fill="none" stroke="black" d="M83.29,-36.1C84.9,-43.79 85.37,-53.05 84.71,-61.67"/>
<polygon fill="black" stroke="black" points="81.22,-61.31 83.33,-71.7 88.16,-62.27 81.22,-61.31"/>
</g>
<!-- theory&#45;&gt;dataDefn -->
<g id="edge11" class="edge">
<title>theory:imPDRC&#45;&gt;dataDefn:dqdCtrlVarFD</title>
<path fill="none" stroke="black" d="M95.08,-36.1C98.34,-43.88 99.27,-53.26 97.87,-61.95"/>
<polygon fill="black" stroke="black" points="94.47,-61.12 95.16,-71.7 101.21,-63 94.47,-61.12"/>
</g>
<!-- theory&#45;&gt;theory -->
<g id="edge8" class="edge">
<title>theory:gdPowerPlantRC&#45;&gt;theory:laplaceRC</title>
<path fill="none" stroke="black" d="M143.13,-21.06C153.79,-20.59 161,-19.56 161,-18 161,-17 158.04,-16.22 153.11,-15.66"/>
<polygon fill="black" stroke="black" points="153.35,-12.17 143.13,-14.94 152.85,-19.15 153.35,-12.17"/>
</g>
<!-- theory&#45;&gt;theory -->
<g id="edge9" class="edge">
<title>theory:gdPowerPlantRC&#45;&gt;theory:tmSOSystemRC</title>
<path fill="none" stroke="black" d="M143.09,-24.72C163.38,-24.44 179,-22.2 179,-18 179,-14.52 168.29,-12.39 153.08,-11.6"/>
<polygon fill="black" stroke="black" points="153.19,-8.1 143.09,-11.28 152.97,-15.1 153.19,-8.1"/>
</g>
<!-- theory&#45;&gt;theory -->
<g id="edge12" class="edge">
<title>theory:imPDRC&#45;&gt;theory:invLaplaceRC</title>
<path fill="none" stroke="black" d="M143.09,-28.05C172.33,-28.68 197,-25.33 197,-18 197,-11.53 177.78,-8.16 153.15,-7.89"/>
<polygon fill="black" stroke="black" points="153.07,-4.39 143.09,-7.95 153.11,-11.39 153.07,-4.39"/>
</g>
<!-- theory&#45;&gt;theory -->
<g id="edge13" class="edge">
<title>theory:imPDRC&#45;&gt;theory:gdPowerPlantRC</title>
<path fill="none" stroke="black" d="M143.12,-30.99C180.83,-33.09 215,-28.76 215,-18 215,-8.21 186.69,-3.74 153.18,-4.6"/>
<polygon fill="black" stroke="black" points="152.97,-1.11 143.12,-5.01 153.25,-8.1 152.97,-1.11"/>
</g>
</g>
</svg>
