<?xml version="1.0" encoding="UTF-8" standalone="no"?>
<!DOCTYPE svg PUBLIC "-//W3C//DTD SVG 1.1//EN"
 "http://www.w3.org/Graphics/SVG/1.1/DTD/svg11.dtd">
<!-- Generated by graphviz version 2.43.0 (0)
 -->
<!-- Title: allvsr Pages: 1 -->
<svg width="451pt" height="116pt"
 viewBox="0.00 0.00 450.67 116.00" xmlns="http://www.w3.org/2000/svg" xmlns:xlink="http://www.w3.org/1999/xlink">
<g id="graph0" class="graph" transform="scale(1 1) rotate(0) translate(4 112)">
<title>allvsr</title>
<polygon fill="white" stroke="transparent" points="-4,4 -4,-112 446.67,-112 446.67,4 -4,4"/>
<!-- instance -->
<g id="node1" class="node">
<title>instance</title>
<polygon fill="#ffb90f" stroke="black" points="171.67,-108 4.67,-108 4.67,-72 171.67,-72 171.67,-108"/>
<text text-anchor="middle" x="88.17" y="-86.3" font-family="Times,serif" font-size="14.00">GS:determineShearF</text>
</g>
<!-- instance&#45;&gt;instance -->
<g id="edge15" class="edge">
<title>instance:writeToFile&#45;&gt;instance:displayInput</title>
<path fill="none" stroke="black" d="M171.79,-92.37C182.56,-91.96 189.67,-91.17 189.67,-90 189.67,-89.25 186.75,-88.66 181.83,-88.22"/>
<polygon fill="black" stroke="black" points="181.98,-84.73 171.79,-87.63 181.57,-91.71 181.98,-84.73"/>
</g>
<!-- instance&#45;&gt;instance -->
<g id="edge16" class="edge">
<title>instance:writeToFile&#45;&gt;instance:displayGraph</title>
<path fill="none" stroke="black" d="M171.93,-95.32C192.43,-94.92 207.67,-93.15 207.67,-90 207.67,-87.39 197.22,-85.73 181.98,-85.01"/>
<polygon fill="black" stroke="black" points="182.04,-81.51 171.93,-84.68 181.82,-88.51 182.04,-81.51"/>
</g>
<!-- instance&#45;&gt;instance -->
<g id="edge17" class="edge">
<title>instance:writeToFile&#45;&gt;instance:displayFS</title>
<path fill="none" stroke="black" d="M171.75,-98.09C201.49,-98.25 225.67,-95.55 225.67,-90 225.67,-85.1 206.82,-82.43 181.95,-81.97"/>
<polygon fill="black" stroke="black" points="181.77,-78.47 171.75,-81.91 181.73,-85.47 181.77,-78.47"/>
</g>
<!-- instance&#45;&gt;instance -->
<g id="edge18" class="edge">
<title>instance:writeToFile&#45;&gt;instance:displayNormal</title>
<path fill="none" stroke="black" d="M171.76,-100.6C210.19,-101.72 243.67,-98.18 243.67,-90 243.67,-82.55 215.93,-78.96 181.98,-79.21"/>
<polygon fill="black" stroke="black" points="181.69,-75.72 171.76,-79.4 181.82,-82.72 181.69,-75.72"/>
</g>
<!-- instance&#45;&gt;instance -->
<g id="edge19" class="edge">
<title>instance:writeToFile&#45;&gt;instance:displayShear</title>
<path fill="none" stroke="black" d="M172.08,-102.85C218.72,-105.25 261.67,-100.97 261.67,-90 261.67,-79.82 224.71,-75.4 182.12,-76.73"/>
<polygon fill="black" stroke="black" points="181.93,-73.24 172.08,-77.15 182.22,-80.23 181.93,-73.24"/>
</g>
<!-- theory -->
<g id="node2" class="node">
<title>theory</title>
<polygon fill="#fff68f" stroke="black" points="137.17,-36 39.17,-36 39.17,0 137.17,0 137.17,-36"/>
<text text-anchor="middle" x="88.17" y="-14.3" font-family="Times,serif" font-size="14.00">IM:crtSlpId</text>
</g>
<!-- instance&#45;&gt;theory -->
<g id="edge1" class="edge">
<title>instance:determineCritSlip&#45;&gt;theory:FS</title>
<path fill="none" stroke="black" d="M11.27,-71.7C-7.71,-57.55 -1.78,-38.16 29.04,-27.28"/>
<polygon fill="black" stroke="black" points="30.32,-30.55 38.89,-24.32 28.31,-23.84 30.32,-30.55"/>
</g>
<!-- instance&#45;&gt;theory -->
<g id="edge2" class="edge">
<title>instance:determineCritSlip&#45;&gt;theory:nrmShrForIM</title>
<path fill="none" stroke="black" d="M23.1,-71.7C8.87,-59.16 11.19,-42.5 30.06,-31.3"/>
<polygon fill="black" stroke="black" points="31.7,-34.39 39.15,-26.86 28.63,-28.1 31.7,-34.39"/>
</g>
<!-- instance&#45;&gt;theory -->
<g id="edge3" class="edge">
<title>instance:determineCritSlip&#45;&gt;theory:intsliceFsRC</title>
<path fill="none" stroke="black" d="M34.93,-71.7C26.01,-62.08 25.04,-50.05 32.03,-39.91"/>
<polygon fill="black" stroke="black" points="34.61,-42.28 38.92,-32.6 29.52,-37.47 34.61,-42.28"/>
</g>
<!-- instance&#45;&gt;theory -->
<g id="edge4" class="edge">
<title>instance:determineCritSlip&#45;&gt;theory:crtSlpIdIM</title>
<path fill="none" stroke="black" d="M46.76,-71.7C41.01,-63.73 39.51,-54.1 42.26,-45.26"/>
<polygon fill="black" stroke="black" points="45.5,-46.61 46.91,-36.1 39.26,-43.44 45.5,-46.61"/>
</g>
<!-- instance&#45;&gt;theory -->
<g id="edge5" class="edge">
<title>instance:displayGraph&#45;&gt;theory:crtSlpIdIM</title>
<path fill="none" stroke="black" d="M58.6,-71.7C54.53,-63.81 53.44,-54.3 55.31,-45.55"/>
<polygon fill="black" stroke="black" points="58.62,-46.7 58.7,-36.1 52.03,-44.34 58.62,-46.7"/>
</g>
<!-- instance&#45;&gt;theory -->
<g id="edge6" class="edge">
<title>instance:displayFS&#45;&gt;theory:FS</title>
<path fill="none" stroke="black" d="M70.43,-71.7C68.04,-63.98 67.36,-54.71 68.39,-46.11"/>
<polygon fill="black" stroke="black" points="71.86,-46.61 70.49,-36.1 65.01,-45.17 71.86,-46.61"/>
</g>
<!-- instance&#45;&gt;theory -->
<g id="edge7" class="edge">
<title>instance:displayFS&#45;&gt;theory:nrmShrForIM</title>
<path fill="none" stroke="black" d="M82.26,-71.7C81.46,-63.98 81.24,-54.71 81.58,-46.11"/>
<polygon fill="black" stroke="black" points="85.07,-46.32 82.28,-36.1 78.09,-45.84 85.07,-46.32"/>
</g>
<!-- instance&#45;&gt;theory -->
<g id="edge8" class="edge">
<title>instance:displayFS&#45;&gt;theory:intsliceFsRC</title>
<path fill="none" stroke="black" d="M94.09,-71.7C94.89,-63.98 95.11,-54.71 94.77,-46.11"/>
<polygon fill="black" stroke="black" points="98.26,-45.84 94.07,-36.1 91.28,-46.32 98.26,-45.84"/>
</g>
<!-- instance&#45;&gt;theory -->
<g id="edge9" class="edge">
<title>instance:displayNormal&#45;&gt;theory:FS</title>
<path fill="none" stroke="black" d="M105.92,-71.7C108.31,-63.98 108.99,-54.71 107.96,-46.11"/>
<polygon fill="black" stroke="black" points="111.34,-45.17 105.86,-36.1 104.49,-46.61 111.34,-45.17"/>
</g>
<!-- instance&#45;&gt;theory -->
<g id="edge10" class="edge">
<title>instance:displayNormal&#45;&gt;theory:nrmShrForIM</title>
<path fill="none" stroke="black" d="M117.75,-71.7C121.82,-63.81 122.91,-54.3 121.03,-45.55"/>
<polygon fill="black" stroke="black" points="124.32,-44.34 117.65,-36.1 117.73,-46.7 124.32,-44.34"/>
</g>
<!-- instance&#45;&gt;theory -->
<g id="edge11" class="edge">
<title>instance:displayNormal&#45;&gt;theory:intsliceFsRC</title>
<path fill="none" stroke="black" d="M129.58,-71.7C135.34,-63.73 136.84,-54.1 134.09,-45.26"/>
<polygon fill="black" stroke="black" points="137.09,-43.44 129.44,-36.1 130.85,-46.61 137.09,-43.44"/>
</g>
<!-- instance&#45;&gt;theory -->
<g id="edge12" class="edge">
<title>instance:displayShear&#45;&gt;theory:FS</title>
<path fill="none" stroke="black" d="M141.42,-71.7C150.34,-62.08 151.31,-50.05 144.32,-39.91"/>
<polygon fill="black" stroke="black" points="146.83,-37.47 137.42,-32.6 141.74,-42.28 146.83,-37.47"/>
</g>
<!-- instance&#45;&gt;theory -->
<g id="edge13" class="edge">
<title>instance:displayShear&#45;&gt;theory:nrmShrForIM</title>
<path fill="none" stroke="black" d="M153.25,-71.7C167.48,-59.16 165.16,-42.5 146.29,-31.3"/>
<polygon fill="black" stroke="black" points="147.72,-28.1 137.19,-26.86 144.65,-34.39 147.72,-28.1"/>
</g>
<!-- instance&#45;&gt;theory -->
<g id="edge14" class="edge">
<title>instance:displayShear&#45;&gt;theory:intsliceFsRC</title>
<path fill="none" stroke="black" d="M165.08,-71.7C184.05,-57.55 178.13,-38.16 147.31,-27.28"/>
<polygon fill="black" stroke="black" points="148.04,-23.84 137.46,-24.32 146.03,-30.55 148.04,-23.84"/>
</g>
<!-- dataDefn -->
<g id="node3" class="node">
<title>dataDefn</title>
<polygon fill="#bbffff" stroke="black" points="442.67,-108 279.67,-108 279.67,-72 442.67,-72 442.67,-108"/>
<text text-anchor="middle" x="361.17" y="-86.3" font-family="Times,serif" font-size="14.00">DD:sliceHghtLeftDD</text>
</g>
</g>
</svg>
