<?xml version="1.0" encoding="UTF-8" standalone="no"?>
<!DOCTYPE svg PUBLIC "-//W3C//DTD SVG 1.1//EN"
 "http://www.w3.org/Graphics/SVG/1.1/DTD/svg11.dtd">
<!-- Generated by graphviz version 2.43.0 (0)
 -->
<!-- Title: allvsr Pages: 1 -->
<svg width="4953pt" height="116pt"
 viewBox="0.00 0.00 4952.50 116.00" xmlns="http://www.w3.org/2000/svg" xmlns:xlink="http://www.w3.org/1999/xlink">
<g id="graph0" class="graph" transform="scale(1 1) rotate(0) translate(4 112)">
<title>allvsr</title>
<polygon fill="white" stroke="transparent" points="-4,4 -4,-112 4948.5,-112 4948.5,4 -4,4"/>
<!-- calcValues -->
<g id="node1" class="node">
<title>calcValues</title>
<polygon fill="ivory" stroke="black" points="395,-108 279,-108 279,-72 395,-72 395,-108"/>
<text text-anchor="middle" x="337" y="-86.3" font-family="Times,serif" font-size="14.00">FR:calcValues</text>
</g>
<!-- flightduration -->
<g id="node2" class="node">
<title>flightduration</title>
<polygon fill="#fff68f" stroke="black" points="170,-36 0,-36 0,0 170,0 170,-36"/>
<text text-anchor="middle" x="85" y="-14.3" font-family="Times,serif" font-size="14.00">IM:calOfLandingTime</text>
</g>
<!-- calcValues&#45;&gt;flightduration -->
<g id="edge1" class="edge">
<title>calcValues&#45;&gt;flightduration</title>
<path fill="none" stroke="black" d="M278.87,-72.85C242.29,-62.69 194.83,-49.51 156.02,-38.73"/>
<polygon fill="black" stroke="black" points="156.93,-35.35 146.35,-36.04 155.05,-42.09 156.93,-35.35"/>
</g>
<!-- landingposition -->
<g id="node3" class="node">
<title>landingposition</title>
<polygon fill="#fff68f" stroke="black" points="352,-36 188,-36 188,0 352,0 352,-36"/>
<text text-anchor="middle" x="270" y="-14.3" font-family="Times,serif" font-size="14.00">IM:calOfLandingDist</text>
</g>
<!-- calcValues&#45;&gt;landingposition -->
<g id="edge2" class="edge">
<title>calcValues&#45;&gt;landingposition</title>
<path fill="none" stroke="black" d="M320.44,-71.7C312.32,-63.22 302.41,-52.86 293.53,-43.58"/>
<polygon fill="black" stroke="black" points="295.81,-40.91 286.37,-36.1 290.76,-45.75 295.81,-40.91"/>
</g>
<!-- offset -->
<g id="node4" class="node">
<title>offset</title>
<polygon fill="#fff68f" stroke="black" points="470,-36 370,-36 370,0 470,0 470,-36"/>
<text text-anchor="middle" x="420" y="-14.3" font-family="Times,serif" font-size="14.00">IM:offsetIM</text>
</g>
<!-- calcValues&#45;&gt;offset -->
<g id="edge3" class="edge">
<title>calcValues&#45;&gt;offset</title>
<path fill="none" stroke="black" d="M357.52,-71.7C367.87,-62.97 380.59,-52.24 391.84,-42.75"/>
<polygon fill="black" stroke="black" points="394.33,-45.23 399.72,-36.1 389.82,-39.88 394.33,-45.23"/>
</g>
<!-- message -->
<g id="node5" class="node">
<title>message</title>
<polygon fill="#fff68f" stroke="black" points="610,-36 488,-36 488,0 610,0 610,-36"/>
<text text-anchor="middle" x="549" y="-14.3" font-family="Times,serif" font-size="14.00">IM:messageIM</text>
</g>
<!-- calcValues&#45;&gt;message -->
<g id="edge4" class="edge">
<title>calcValues&#45;&gt;message</title>
<path fill="none" stroke="black" d="M388.59,-71.97C418.47,-62.1 456.26,-49.62 487.66,-39.25"/>
<polygon fill="black" stroke="black" points="488.78,-42.57 497.18,-36.11 486.59,-35.92 488.78,-42.57"/>
</g>
<!-- outputValues -->
<g id="node6" class="node">
<title>outputValues</title>
<polygon fill="ivory" stroke="black" points="551.5,-108 416.5,-108 416.5,-72 551.5,-72 551.5,-108"/>
<text text-anchor="middle" x="484" y="-86.3" font-family="Times,serif" font-size="14.00">FR:outputValues</text>
</g>
<!-- outputValues&#45;&gt;offset -->
<g id="edge5" class="edge">
<title>outputValues&#45;&gt;offset</title>
<path fill="none" stroke="black" d="M468.18,-71.7C460.43,-63.22 450.96,-52.86 442.48,-43.58"/>
<polygon fill="black" stroke="black" points="444.97,-41.12 435.64,-36.1 439.8,-45.85 444.97,-41.12"/>
</g>
<!-- outputValues&#45;&gt;message -->
<g id="edge6" class="edge">
<title>outputValues&#45;&gt;message</title>
<path fill="none" stroke="black" d="M500.07,-71.7C507.94,-63.22 517.56,-52.86 526.17,-43.58"/>
<polygon fill="black" stroke="black" points="528.88,-45.81 533.12,-36.1 523.75,-41.05 528.88,-45.81"/>
</g>
<!-- twoDMotion -->
<g id="node7" class="node">
<title>twoDMotion</title>
<polygon fill="mistyrose" stroke="black" points="688.5,-108 569.5,-108 569.5,-72 688.5,-72 688.5,-108"/>
<text text-anchor="middle" x="629" y="-86.3" font-family="Times,serif" font-size="14.00">A:twoDMotion</text>
</g>
<!-- cartSyst -->
<g id="node8" class="node">
<title>cartSyst</title>
<polygon fill="mistyrose" stroke="black" points="797.5,-108 706.5,-108 706.5,-72 797.5,-72 797.5,-108"/>
<text text-anchor="middle" x="752" y="-86.3" font-family="Times,serif" font-size="14.00">A:cartSyst</text>
</g>
<!-- yAxisGravity -->
<g id="node9" class="node">
<title>yAxisGravity</title>
<polygon fill="mistyrose" stroke="black" points="938,-108 816,-108 816,-72 938,-72 938,-108"/>
<text text-anchor="middle" x="877" y="-86.3" font-family="Times,serif" font-size="14.00">A:yAxisGravity</text>
</g>
<!-- launchOrigin -->
<g id="node10" class="node">
<title>launchOrigin</title>
<polygon fill="mistyrose" stroke="black" points="1079.5,-108 956.5,-108 956.5,-72 1079.5,-72 1079.5,-108"/>
<text text-anchor="middle" x="1018" y="-86.3" font-family="Times,serif" font-size="14.00">A:launchOrigin</text>
</g>
<!-- targetXAxis -->
<g id="node11" class="node">
<title>targetXAxis</title>
<polygon fill="mistyrose" stroke="black" points="1212.5,-108 1097.5,-108 1097.5,-72 1212.5,-72 1212.5,-108"/>
<text text-anchor="middle" x="1155" y="-86.3" font-family="Times,serif" font-size="14.00">A:targetXAxis</text>
</g>
<!-- posXDirection -->
<g id="node12" class="node">
<title>posXDirection</title>
<polygon fill="mistyrose" stroke="black" points="1361.5,-108 1230.5,-108 1230.5,-72 1361.5,-72 1361.5,-108"/>
<text text-anchor="middle" x="1296" y="-86.3" font-family="Times,serif" font-size="14.00">A:posXDirection</text>
</g>
<!-- constAccel -->
<g id="node13" class="node">
<title>constAccel</title>
<polygon fill="mistyrose" stroke="black" points="1486.5,-108 1379.5,-108 1379.5,-72 1486.5,-72 1486.5,-108"/>
<text text-anchor="middle" x="1433" y="-86.3" font-family="Times,serif" font-size="14.00">A:constAccel</text>
</g>
<!-- accelXZero -->
<g id="node14" class="node">
<title>accelXZero</title>
<polygon fill="mistyrose" stroke="black" points="1615,-108 1505,-108 1505,-72 1615,-72 1615,-108"/>
<text text-anchor="middle" x="1560" y="-86.3" font-family="Times,serif" font-size="14.00">A:accelXZero</text>
</g>
<!-- accelYGravity -->
<g id="node15" class="node">
<title>accelYGravity</title>
<polygon fill="mistyrose" stroke="black" points="1762.5,-108 1633.5,-108 1633.5,-72 1762.5,-72 1762.5,-108"/>
<text text-anchor="middle" x="1698" y="-86.3" font-family="Times,serif" font-size="14.00">A:accelYGravity</text>
</g>
<!-- neglectDrag -->
<g id="node16" class="node">
<title>neglectDrag</title>
<polygon fill="mistyrose" stroke="black" points="1899.5,-108 1780.5,-108 1780.5,-72 1899.5,-72 1899.5,-108"/>
<text text-anchor="middle" x="1840" y="-86.3" font-family="Times,serif" font-size="14.00">A:neglectDrag</text>
</g>
<!-- pointMass -->
<g id="node17" class="node">
<title>pointMass</title>
<polygon fill="mistyrose" stroke="black" points="2022.5,-108 1917.5,-108 1917.5,-72 2022.5,-72 2022.5,-108"/>
<text text-anchor="middle" x="1970" y="-86.3" font-family="Times,serif" font-size="14.00">A:pointMass</text>
</g>
<!-- freeFlight -->
<g id="node18" class="node">
<title>freeFlight</title>
<polygon fill="mistyrose" stroke="black" points="2143,-108 2041,-108 2041,-72 2143,-72 2143,-108"/>
<text text-anchor="middle" x="2092" y="-86.3" font-family="Times,serif" font-size="14.00">A:freeFlight</text>
</g>
<!-- neglectCurv -->
<g id="node19" class="node">
<title>neglectCurv</title>
<polygon fill="mistyrose" stroke="black" points="2279,-108 2161,-108 2161,-72 2279,-72 2279,-108"/>
<text text-anchor="middle" x="2220" y="-86.3" font-family="Times,serif" font-size="14.00">A:neglectCurv</text>
</g>
<!-- timeStartZero -->
<g id="node20" class="node">
<title>timeStartZero</title>
<polygon fill="mistyrose" stroke="black" points="2430.5,-108 2297.5,-108 2297.5,-72 2430.5,-72 2430.5,-108"/>
<text text-anchor="middle" x="2364" y="-86.3" font-family="Times,serif" font-size="14.00">A:timeStartZero</text>
</g>
<!-- gravAccelValue -->
<g id="node21" class="node">
<title>gravAccelValue</title>
<polygon fill="mistyrose" stroke="black" points="2589,-108 2449,-108 2449,-72 2589,-72 2589,-108"/>
<text text-anchor="middle" x="2519" y="-86.3" font-family="Times,serif" font-size="14.00">A:gravAccelValue</text>
</g>
<!-- speed -->
<g id="node22" class="node">
<title>speed</title>
<polygon fill="#bbffff" stroke="black" points="2706.5,-108 2607.5,-108 2607.5,-72 2706.5,-72 2706.5,-108"/>
<text text-anchor="middle" x="2657" y="-86.3" font-family="Times,serif" font-size="14.00">DD:vecMag</text>
</g>
<!-- ixVel -->
<g id="node23" class="node">
<title>ixVel</title>
<polygon fill="#bbffff" stroke="black" points="2825.5,-108 2724.5,-108 2724.5,-72 2825.5,-72 2825.5,-108"/>
<text text-anchor="middle" x="2775" y="-86.3" font-family="Times,serif" font-size="14.00">DD:speedIX</text>
</g>
<!-- iyVel -->
<g id="node24" class="node">
<title>iyVel</title>
<polygon fill="#bbffff" stroke="black" points="2944,-108 2844,-108 2844,-72 2944,-72 2944,-108"/>
<text text-anchor="middle" x="2894" y="-86.3" font-family="Times,serif" font-size="14.00">DD:speedIY</text>
</g>
<!-- accelerationTM -->
<g id="node25" class="node">
<title>accelerationTM</title>
<polygon fill="pink" stroke="black" points="3093.5,-108 2962.5,-108 2962.5,-72 3093.5,-72 3093.5,-108"/>
<text text-anchor="middle" x="3028" y="-86.3" font-family="Times,serif" font-size="14.00">TM:acceleration</text>
</g>
<!-- velocityTM -->
<g id="node26" class="node">
<title>velocityTM</title>
<polygon fill="pink" stroke="black" points="3212,-108 3112,-108 3112,-72 3212,-72 3212,-108"/>
<text text-anchor="middle" x="3162" y="-86.3" font-family="Times,serif" font-size="14.00">TM:velocity</text>
</g>
<!-- projSpeed -->
<g id="node27" class="node">
<title>projSpeed</title>
<polygon fill="palegreen" stroke="black" points="3324,-108 3230,-108 3230,-72 3324,-72 3324,-108"/>
<text text-anchor="middle" x="3277" y="-86.3" font-family="Times,serif" font-size="14.00">GD:rectVel</text>
</g>
<!-- scalarPos -->
<g id="node28" class="node">
<title>scalarPos</title>
<polygon fill="palegreen" stroke="black" points="3439.5,-108 3342.5,-108 3342.5,-72 3439.5,-72 3439.5,-108"/>
<text text-anchor="middle" x="3391" y="-86.3" font-family="Times,serif" font-size="14.00">GD:rectPos</text>
</g>
<!-- velocity -->
<g id="node29" class="node">
<title>velocity</title>
<polygon fill="palegreen" stroke="black" points="3546.5,-108 3457.5,-108 3457.5,-72 3546.5,-72 3546.5,-108"/>
<text text-anchor="middle" x="3502" y="-86.3" font-family="Times,serif" font-size="14.00">GD:velVec</text>
</g>
<!-- position -->
<g id="node30" class="node">
<title>position</title>
<polygon fill="palegreen" stroke="black" points="3657.5,-108 3564.5,-108 3564.5,-72 3657.5,-72 3657.5,-108"/>
<text text-anchor="middle" x="3611" y="-86.3" font-family="Times,serif" font-size="14.00">GD:posVec</text>
</g>
<!-- inputValues -->
<g id="node31" class="node">
<title>inputValues</title>
<polygon fill="ivory" stroke="black" points="3800.5,-108 3675.5,-108 3675.5,-72 3800.5,-72 3800.5,-108"/>
<text text-anchor="middle" x="3738" y="-86.3" font-family="Times,serif" font-size="14.00">FR:inputValues</text>
</g>
<!-- verifyInVals -->
<g id="node32" class="node">
<title>verifyInVals</title>
<polygon fill="ivory" stroke="black" points="3945,-108 3819,-108 3819,-72 3945,-72 3945,-108"/>
<text text-anchor="middle" x="3882" y="-86.3" font-family="Times,serif" font-size="14.00">FR:verifyInVals</text>
</g>
<!-- correct -->
<g id="node33" class="node">
<title>correct</title>
<polygon fill="ivory" stroke="black" points="4067,-108 3963,-108 3963,-72 4067,-72 4067,-108"/>
<text text-anchor="middle" x="4015" y="-86.3" font-family="Times,serif" font-size="14.00">NFR:correct</text>
</g>
<!-- verifiable -->
<g id="node34" class="node">
<title>verifiable</title>
<polygon fill="ivory" stroke="black" points="4205,-108 4085,-108 4085,-72 4205,-72 4205,-108"/>
<text text-anchor="middle" x="4145" y="-86.3" font-family="Times,serif" font-size="14.00">NFR:verifiable</text>
</g>
<!-- understandable -->
<g id="node35" class="node">
<title>understandable</title>
<polygon fill="ivory" stroke="black" points="4388.5,-108 4223.5,-108 4223.5,-72 4388.5,-72 4388.5,-108"/>
<text text-anchor="middle" x="4306" y="-86.3" font-family="Times,serif" font-size="14.00">NFR:understandable</text>
</g>
<!-- reusable -->
<g id="node36" class="node">
<title>reusable</title>
<polygon fill="ivory" stroke="black" points="4521.5,-108 4406.5,-108 4406.5,-72 4521.5,-72 4521.5,-108"/>
<text text-anchor="middle" x="4464" y="-86.3" font-family="Times,serif" font-size="14.00">NFR:reusable</text>
</g>
<!-- maintainable -->
<g id="node37" class="node">
<title>maintainable</title>
<polygon fill="ivory" stroke="black" points="4686,-108 4540,-108 4540,-72 4686,-72 4686,-108"/>
<text text-anchor="middle" x="4613" y="-86.3" font-family="Times,serif" font-size="14.00">NFR:maintainable</text>
</g>
<!-- portable -->
<g id="node38" class="node">
<title>portable</title>
<polygon fill="ivory" stroke="black" points="4817.5,-108 4704.5,-108 4704.5,-72 4817.5,-72 4817.5,-108"/>
<text text-anchor="middle" x="4761" y="-86.3" font-family="Times,serif" font-size="14.00">NFR:portable</text>
</g>
<!-- targetHit -->
<g id="node39" class="node">
<title>targetHit</title>
<polygon fill="#ffb90f" stroke="black" points="4944.5,-108 4835.5,-108 4835.5,-72 4944.5,-72 4944.5,-108"/>
<text text-anchor="middle" x="4890" y="-86.3" font-family="Times,serif" font-size="14.00">GS:targetHit</text>
</g>
</g>
</svg>
