<?xml version="1.0" encoding="UTF-8" standalone="no"?>
<!DOCTYPE svg PUBLIC "-//W3C//DTD SVG 1.1//EN"
 "http://www.w3.org/Graphics/SVG/1.1/DTD/svg11.dtd">
<!-- Generated by graphviz version 2.43.0 (0)
 -->
<!-- Title: allvsall Pages: 1 -->
<svg width="2776pt" height="260pt"
 viewBox="0.00 0.00 2776.00 260.00" xmlns="http://www.w3.org/2000/svg" xmlns:xlink="http://www.w3.org/1999/xlink">
<g id="graph0" class="graph" transform="scale(1 1) rotate(0) translate(4 256)">
<title>allvsall</title>
<polygon fill="white" stroke="transparent" points="-4,4 -4,-256 2772,-256 2772,4 -4,4"/>
<!-- cartSyst -->
<g id="node1" class="node">
<title>cartSyst</title>
<polygon fill="mistyrose" stroke="black" points="216,-36 125,-36 125,0 216,0 216,-36"/>
<text text-anchor="middle" x="170.5" y="-14.3" font-family="Times,serif" font-size="14.00">A:cartSyst</text>
</g>
<!-- neglectCurv -->
<g id="node2" class="node">
<title>neglectCurv</title>
<polygon fill="mistyrose" stroke="black" points="2288.5,-36 2170.5,-36 2170.5,0 2288.5,0 2288.5,-36"/>
<text text-anchor="middle" x="2229.5" y="-14.3" font-family="Times,serif" font-size="14.00">A:neglectCurv</text>
</g>
<!-- cartSyst&#45;&gt;neglectCurv -->
<g id="edge1" class="edge">
<title>cartSyst&#45;&gt;neglectCurv</title>
<path fill="none" stroke="black" d="M195.23,-36.11C206.35,-43.17 219.99,-50.41 233.5,-54 285.02,-67.68 2100.46,-65.56 2152.5,-54 2165.12,-51.2 2178.11,-46.1 2189.75,-40.6"/>
<polygon fill="black" stroke="black" points="2191.35,-43.72 2198.76,-36.14 2188.25,-37.44 2191.35,-43.72"/>
</g>
<!-- targetXAxis -->
<g id="node3" class="node">
<title>targetXAxis</title>
<polygon fill="mistyrose" stroke="black" points="2152,-36 2037,-36 2037,0 2152,0 2152,-36"/>
<text text-anchor="middle" x="2094.5" y="-14.3" font-family="Times,serif" font-size="14.00">A:targetXAxis</text>
</g>
<!-- targetXAxis&#45;&gt;neglectCurv -->
<g id="edge2" class="edge">
<title>targetXAxis&#45;&gt;neglectCurv</title>
<path fill="none" stroke="black" d="M2152.24,-18C2154.88,-18 2157.53,-18 2160.17,-18"/>
<polygon fill="black" stroke="black" points="2160.35,-21.5 2170.35,-18 2160.35,-14.5 2160.35,-21.5"/>
</g>
<!-- constAccel -->
<g id="node4" class="node">
<title>constAccel</title>
<polygon fill="mistyrose" stroke="black" points="107,-36 0,-36 0,0 107,0 107,-36"/>
<text text-anchor="middle" x="53.5" y="-14.3" font-family="Times,serif" font-size="14.00">A:constAccel</text>
</g>
<!-- accelXZero -->
<g id="node5" class="node">
<title>accelXZero</title>
<polygon fill="mistyrose" stroke="black" points="1430.5,-36 1320.5,-36 1320.5,0 1430.5,0 1430.5,-36"/>
<text text-anchor="middle" x="1375.5" y="-14.3" font-family="Times,serif" font-size="14.00">A:accelXZero</text>
</g>
<!-- constAccel&#45;&gt;accelXZero -->
<g id="edge3" class="edge">
<title>constAccel&#45;&gt;accelXZero</title>
<path fill="none" stroke="black" d="M81.67,-36.13C94.25,-43.19 109.58,-50.43 124.5,-54 188.1,-69.2 1237.78,-68.68 1301.5,-54 1313.57,-51.22 1325.96,-46.19 1337.06,-40.76"/>
<polygon fill="black" stroke="black" points="1338.75,-43.82 1346.05,-36.14 1335.55,-37.6 1338.75,-43.82"/>
</g>
<!-- accelYGravity -->
<g id="node6" class="node">
<title>accelYGravity</title>
<polygon fill="mistyrose" stroke="black" points="1878,-36 1749,-36 1749,0 1878,0 1878,-36"/>
<text text-anchor="middle" x="1813.5" y="-14.3" font-family="Times,serif" font-size="14.00">A:accelYGravity</text>
</g>
<!-- constAccel&#45;&gt;accelYGravity -->
<g id="edge4" class="edge">
<title>constAccel&#45;&gt;accelYGravity</title>
<path fill="none" stroke="black" d="M81.67,-36.13C94.25,-43.19 109.58,-50.43 124.5,-54 211.28,-74.74 1643.14,-72.13 1730.5,-54 1744.1,-51.18 1758.22,-46.01 1770.86,-40.45"/>
<polygon fill="black" stroke="black" points="1772.58,-43.51 1780.21,-36.16 1769.66,-37.15 1772.58,-43.51"/>
</g>
<!-- neglectDrag -->
<g id="node7" class="node">
<title>neglectDrag</title>
<polygon fill="mistyrose" stroke="black" points="490,-36 371,-36 371,0 490,0 490,-36"/>
<text text-anchor="middle" x="430.5" y="-14.3" font-family="Times,serif" font-size="14.00">A:neglectDrag</text>
</g>
<!-- constAccel&#45;&gt;neglectDrag -->
<g id="edge5" class="edge">
<title>constAccel&#45;&gt;neglectDrag</title>
<path fill="none" stroke="black" d="M81.67,-36.13C94.25,-43.19 109.58,-50.43 124.5,-54 223.06,-77.56 253.53,-75.74 352.5,-54 365.26,-51.2 378.42,-46.1 390.21,-40.6"/>
<polygon fill="black" stroke="black" points="391.89,-43.68 399.34,-36.15 388.82,-37.39 391.89,-43.68"/>
</g>
<!-- freeFlight -->
<g id="node8" class="node">
<title>freeFlight</title>
<polygon fill="mistyrose" stroke="black" points="610.5,-36 508.5,-36 508.5,0 610.5,0 610.5,-36"/>
<text text-anchor="middle" x="559.5" y="-14.3" font-family="Times,serif" font-size="14.00">A:freeFlight</text>
</g>
<!-- constAccel&#45;&gt;freeFlight -->
<g id="edge6" class="edge">
<title>constAccel&#45;&gt;freeFlight</title>
<path fill="none" stroke="black" d="M81.67,-36.13C94.25,-43.19 109.58,-50.43 124.5,-54 203.39,-72.86 410.67,-73.08 489.5,-54 500.9,-51.24 512.53,-46.28 522.95,-40.91"/>
<polygon fill="black" stroke="black" points="524.64,-43.98 531.76,-36.13 521.3,-37.82 524.64,-43.98"/>
</g>
<!-- yAxisGravity -->
<g id="node9" class="node">
<title>yAxisGravity</title>
<polygon fill="mistyrose" stroke="black" points="2018.5,-36 1896.5,-36 1896.5,0 2018.5,0 2018.5,-36"/>
<text text-anchor="middle" x="1957.5" y="-14.3" font-family="Times,serif" font-size="14.00">A:yAxisGravity</text>
</g>
<!-- accelYGravity&#45;&gt;yAxisGravity -->
<g id="edge7" class="edge">
<title>accelYGravity&#45;&gt;yAxisGravity</title>
<path fill="none" stroke="black" d="M1878.19,-18C1880.85,-18 1883.52,-18 1886.18,-18"/>
<polygon fill="black" stroke="black" points="1886.47,-21.5 1896.47,-18 1886.47,-14.5 1886.47,-21.5"/>
</g>
<!-- ixVel -->
<g id="node10" class="node">
<title>ixVel</title>
<polygon fill="#bbffff" stroke="black" points="1390,-108 1289,-108 1289,-72 1390,-72 1390,-108"/>
<text text-anchor="middle" x="1339.5" y="-86.3" font-family="Times,serif" font-size="14.00">DD:speedIX</text>
</g>
<!-- speed -->
<g id="node11" class="node">
<title>speed</title>
<polygon fill="#bbffff" stroke="black" points="2044,-108 1945,-108 1945,-72 2044,-72 2044,-108"/>
<text text-anchor="middle" x="1994.5" y="-86.3" font-family="Times,serif" font-size="14.00">DD:vecMag</text>
</g>
<!-- ixVel&#45;&gt;speed -->
<g id="edge8" class="edge">
<title>ixVel&#45;&gt;speed</title>
<path fill="none" stroke="black" d="M1390.26,-94.99C1478.74,-103.42 1667.01,-120.11 1826.5,-126 1870.91,-127.64 1883.37,-136.71 1926.5,-126 1937.52,-123.26 1948.71,-118.38 1958.76,-113.07"/>
<polygon fill="black" stroke="black" points="1960.59,-116.05 1967.62,-108.12 1957.18,-109.94 1960.59,-116.05"/>
</g>
<!-- iyVel -->
<g id="node12" class="node">
<title>iyVel</title>
<polygon fill="#bbffff" stroke="black" points="1926.5,-108 1826.5,-108 1826.5,-72 1926.5,-72 1926.5,-108"/>
<text text-anchor="middle" x="1876.5" y="-86.3" font-family="Times,serif" font-size="14.00">DD:speedIY</text>
</g>
<!-- iyVel&#45;&gt;speed -->
<g id="edge9" class="edge">
<title>iyVel&#45;&gt;speed</title>
<path fill="none" stroke="black" d="M1926.74,-90C1929.37,-90 1931.99,-90 1934.62,-90"/>
<polygon fill="black" stroke="black" points="1934.74,-93.5 1944.74,-90 1934.74,-86.5 1934.74,-93.5"/>
</g>
<!-- projSpeed -->
<g id="node13" class="node">
<title>projSpeed</title>
<polygon fill="palegreen" stroke="black" points="991.5,-108 897.5,-108 897.5,-72 991.5,-72 991.5,-108"/>
<text text-anchor="middle" x="944.5" y="-86.3" font-family="Times,serif" font-size="14.00">GD:rectVel</text>
</g>
<!-- pointMass -->
<g id="node14" class="node">
<title>pointMass</title>
<polygon fill="mistyrose" stroke="black" points="1004,-36 899,-36 899,0 1004,0 1004,-36"/>
<text text-anchor="middle" x="951.5" y="-14.3" font-family="Times,serif" font-size="14.00">A:pointMass</text>
</g>
<!-- projSpeed&#45;&gt;pointMass -->
<g id="edge10" class="edge">
<title>projSpeed&#45;&gt;pointMass</title>
<path fill="none" stroke="black" d="M946.23,-71.7C947,-63.98 947.93,-54.71 948.79,-46.11"/>
<polygon fill="black" stroke="black" points="952.28,-46.4 949.79,-36.1 945.31,-45.71 952.28,-46.4"/>
</g>
<!-- timeStartZero -->
<g id="node15" class="node">
<title>timeStartZero</title>
<polygon fill="mistyrose" stroke="black" points="762,-36 629,-36 629,0 762,0 762,-36"/>
<text text-anchor="middle" x="695.5" y="-14.3" font-family="Times,serif" font-size="14.00">A:timeStartZero</text>
</g>
<!-- projSpeed&#45;&gt;timeStartZero -->
<g id="edge11" class="edge">
<title>projSpeed&#45;&gt;timeStartZero</title>
<path fill="none" stroke="black" d="M897.24,-74.83C893.95,-73.86 890.68,-72.91 887.5,-72 848.31,-60.75 804.49,-48.62 768.61,-38.8"/>
<polygon fill="black" stroke="black" points="769.29,-35.36 758.72,-36.1 767.44,-42.11 769.29,-35.36"/>
</g>
<!-- accelerationTM -->
<g id="node16" class="node">
<title>accelerationTM</title>
<polygon fill="pink" stroke="black" points="1153,-36 1022,-36 1022,0 1153,0 1153,-36"/>
<text text-anchor="middle" x="1087.5" y="-14.3" font-family="Times,serif" font-size="14.00">TM:acceleration</text>
</g>
<!-- projSpeed&#45;&gt;accelerationTM -->
<g id="edge12" class="edge">
<title>projSpeed&#45;&gt;accelerationTM</title>
<path fill="none" stroke="black" d="M979.48,-71.88C998.7,-62.47 1022.73,-50.71 1043.24,-40.67"/>
<polygon fill="black" stroke="black" points="1044.94,-43.73 1052.38,-36.19 1041.86,-37.44 1044.94,-43.73"/>
</g>
<!-- scalarPos -->
<g id="node17" class="node">
<title>scalarPos</title>
<polygon fill="palegreen" stroke="black" points="879,-108 782,-108 782,-72 879,-72 879,-108"/>
<text text-anchor="middle" x="830.5" y="-86.3" font-family="Times,serif" font-size="14.00">GD:rectPos</text>
</g>
<!-- scalarPos&#45;&gt;projSpeed -->
<g id="edge16" class="edge">
<title>scalarPos&#45;&gt;projSpeed</title>
<path fill="none" stroke="black" d="M879.04,-90C881.82,-90 884.6,-90 887.38,-90"/>
<polygon fill="black" stroke="black" points="887.45,-93.5 897.45,-90 887.45,-86.5 887.45,-93.5"/>
</g>
<!-- scalarPos&#45;&gt;pointMass -->
<g id="edge13" class="edge">
<title>scalarPos&#45;&gt;pointMass</title>
<path fill="none" stroke="black" d="M860.1,-71.88C876.07,-62.64 895.96,-51.13 913.11,-41.21"/>
<polygon fill="black" stroke="black" points="914.88,-44.23 921.79,-36.19 911.38,-38.17 914.88,-44.23"/>
</g>
<!-- scalarPos&#45;&gt;timeStartZero -->
<g id="edge14" class="edge">
<title>scalarPos&#45;&gt;timeStartZero</title>
<path fill="none" stroke="black" d="M797.48,-71.88C779.42,-62.51 756.85,-50.81 737.55,-40.8"/>
<polygon fill="black" stroke="black" points="739.14,-37.69 728.65,-36.19 735.92,-43.9 739.14,-37.69"/>
</g>
<!-- velocityTM -->
<g id="node18" class="node">
<title>velocityTM</title>
<polygon fill="pink" stroke="black" points="880.5,-36 780.5,-36 780.5,0 880.5,0 880.5,-36"/>
<text text-anchor="middle" x="830.5" y="-14.3" font-family="Times,serif" font-size="14.00">TM:velocity</text>
</g>
<!-- scalarPos&#45;&gt;velocityTM -->
<g id="edge15" class="edge">
<title>scalarPos&#45;&gt;velocityTM</title>
<path fill="none" stroke="black" d="M830.5,-71.7C830.5,-63.98 830.5,-54.71 830.5,-46.11"/>
<polygon fill="black" stroke="black" points="834,-46.1 830.5,-36.1 827,-46.1 834,-46.1"/>
</g>
<!-- velocity -->
<g id="node19" class="node">
<title>velocity</title>
<polygon fill="palegreen" stroke="black" points="338,-108 249,-108 249,-72 338,-72 338,-108"/>
<text text-anchor="middle" x="293.5" y="-86.3" font-family="Times,serif" font-size="14.00">GD:velVec</text>
</g>
<!-- velocity&#45;&gt;cartSyst -->
<g id="edge18" class="edge">
<title>velocity&#45;&gt;cartSyst</title>
<path fill="none" stroke="black" d="M263.41,-71.88C247.18,-62.64 226.96,-51.13 209.53,-41.21"/>
<polygon fill="black" stroke="black" points="211.13,-38.09 200.7,-36.19 207.66,-44.18 211.13,-38.09"/>
</g>
<!-- velocity&#45;&gt;constAccel -->
<g id="edge19" class="edge">
<title>velocity&#45;&gt;constAccel</title>
<path fill="none" stroke="black" d="M248.92,-76C211.77,-65.16 158.41,-49.6 116.83,-37.47"/>
<polygon fill="black" stroke="black" points="117.65,-34.07 107.07,-34.62 115.69,-40.79 117.65,-34.07"/>
</g>
<!-- velocity&#45;&gt;projSpeed -->
<g id="edge21" class="edge">
<title>velocity&#45;&gt;projSpeed</title>
<path fill="none" stroke="black" d="M338.38,-96.31C456.95,-112.42 776.45,-152.02 878.5,-126 889.14,-123.29 899.91,-118.47 909.58,-113.23"/>
<polygon fill="black" stroke="black" points="911.55,-116.13 918.48,-108.12 908.06,-110.06 911.55,-116.13"/>
</g>
<!-- velocity&#45;&gt;timeStartZero -->
<g id="edge20" class="edge">
<title>velocity&#45;&gt;timeStartZero</title>
<path fill="none" stroke="black" d="M338.2,-82.58C399.25,-73.64 512.31,-56.39 618.86,-36.06"/>
<polygon fill="black" stroke="black" points="619.66,-39.47 628.82,-34.15 618.34,-32.6 619.66,-39.47"/>
</g>
<!-- twoDMotion -->
<g id="node20" class="node">
<title>twoDMotion</title>
<polygon fill="mistyrose" stroke="black" points="353,-36 234,-36 234,0 353,0 353,-36"/>
<text text-anchor="middle" x="293.5" y="-14.3" font-family="Times,serif" font-size="14.00">A:twoDMotion</text>
</g>
<!-- velocity&#45;&gt;twoDMotion -->
<g id="edge17" class="edge">
<title>velocity&#45;&gt;twoDMotion</title>
<path fill="none" stroke="black" d="M293.5,-71.7C293.5,-63.98 293.5,-54.71 293.5,-46.11"/>
<polygon fill="black" stroke="black" points="297,-46.1 293.5,-36.1 290,-46.1 297,-46.1"/>
</g>
<!-- position -->
<g id="node21" class="node">
<title>position</title>
<polygon fill="palegreen" stroke="black" points="725,-108 632,-108 632,-72 725,-72 725,-108"/>
<text text-anchor="middle" x="678.5" y="-86.3" font-family="Times,serif" font-size="14.00">GD:posVec</text>
</g>
<!-- position&#45;&gt;cartSyst -->
<g id="edge23" class="edge">
<title>position&#45;&gt;cartSyst</title>
<path fill="none" stroke="black" d="M631.95,-86.47C550.98,-81.45 378.96,-67.99 226.05,-36.12"/>
<polygon fill="black" stroke="black" points="226.51,-32.64 216,-33.99 225.06,-39.48 226.51,-32.64"/>
</g>
<!-- position&#45;&gt;constAccel -->
<g id="edge24" class="edge">
<title>position&#45;&gt;constAccel</title>
<path fill="none" stroke="black" d="M631.78,-87.35C536.44,-83.38 312.62,-71.05 117.02,-36.11"/>
<polygon fill="black" stroke="black" points="117.6,-32.66 107.14,-34.32 116.35,-39.55 117.6,-32.66"/>
</g>
<!-- position&#45;&gt;timeStartZero -->
<g id="edge25" class="edge">
<title>position&#45;&gt;timeStartZero</title>
<path fill="none" stroke="black" d="M682.7,-71.7C684.6,-63.9 686.88,-54.51 688.98,-45.83"/>
<polygon fill="black" stroke="black" points="692.39,-46.65 691.35,-36.1 685.58,-45 692.39,-46.65"/>
</g>
<!-- position&#45;&gt;scalarPos -->
<g id="edge26" class="edge">
<title>position&#45;&gt;scalarPos</title>
<path fill="none" stroke="black" d="M725.11,-90C740.64,-90 756.18,-90 771.71,-90"/>
<polygon fill="black" stroke="black" points="771.92,-93.5 781.92,-90 771.92,-86.5 771.92,-93.5"/>
</g>
<!-- position&#45;&gt;twoDMotion -->
<g id="edge22" class="edge">
<title>position&#45;&gt;twoDMotion</title>
<path fill="none" stroke="black" d="M631.82,-82.38C571.8,-73.61 464.18,-57 363.21,-36.28"/>
<polygon fill="black" stroke="black" points="363.64,-32.79 353.14,-34.19 362.23,-39.65 363.64,-32.79"/>
</g>
<!-- flightduration -->
<g id="node22" class="node">
<title>flightduration</title>
<polygon fill="#fff68f" stroke="black" points="1728.5,-180 1558.5,-180 1558.5,-144 1728.5,-144 1728.5,-180"/>
<text text-anchor="middle" x="1643.5" y="-158.3" font-family="Times,serif" font-size="14.00">IM:calOfLandingTime</text>
</g>
<!-- flightduration&#45;&gt;targetXAxis -->
<g id="edge29" class="edge">
<title>flightduration&#45;&gt;targetXAxis</title>
<path fill="none" stroke="black" d="M1697.1,-144C1721.86,-135.02 1751.11,-122.79 1775.5,-108 1796.52,-95.25 1795.25,-82.45 1817.5,-72 1900.36,-33.07 1932.71,-54.14 2026.9,-35.96"/>
<polygon fill="black" stroke="black" points="2027.72,-39.36 2036.82,-33.94 2026.33,-32.5 2027.72,-39.36"/>
</g>
<!-- flightduration&#45;&gt;accelYGravity -->
<g id="edge31" class="edge">
<title>flightduration&#45;&gt;accelYGravity</title>
<path fill="none" stroke="black" d="M1663.03,-143.68C1683.59,-125.56 1717,-96.4 1746.5,-72 1758.36,-62.19 1771.62,-51.62 1783.2,-42.52"/>
<polygon fill="black" stroke="black" points="1785.57,-45.11 1791.28,-36.19 1781.25,-39.6 1785.57,-45.11"/>
</g>
<!-- flightduration&#45;&gt;yAxisGravity -->
<g id="edge27" class="edge">
<title>flightduration&#45;&gt;yAxisGravity</title>
<path fill="none" stroke="black" d="M1677.65,-143.96C1696.37,-134.18 1719.72,-121.23 1739.5,-108 1760.79,-93.76 1761.85,-83.96 1784.5,-72 1802.62,-62.43 1847.19,-48.85 1886.55,-37.83"/>
<polygon fill="black" stroke="black" points="1887.73,-41.14 1896.43,-35.09 1885.86,-34.4 1887.73,-41.14"/>
</g>
<!-- flightduration&#45;&gt;iyVel -->
<g id="edge34" class="edge">
<title>flightduration&#45;&gt;iyVel</title>
<path fill="none" stroke="black" d="M1700.2,-143.97C1735.41,-133.39 1780.63,-119.8 1816.45,-109.04"/>
<polygon fill="black" stroke="black" points="1817.72,-112.31 1826.29,-106.08 1815.71,-105.61 1817.72,-112.31"/>
</g>
<!-- flightduration&#45;&gt;timeStartZero -->
<g id="edge32" class="edge">
<title>flightduration&#45;&gt;timeStartZero</title>
<path fill="none" stroke="black" d="M1558.27,-145.08C1555.31,-144.69 1552.38,-144.33 1549.5,-144 1463.62,-134.29 850.25,-145.74 772.5,-108 757.85,-100.89 731.58,-68.12 713.85,-44.41"/>
<polygon fill="black" stroke="black" points="716.5,-42.1 707.74,-36.14 710.87,-46.27 716.5,-42.1"/>
</g>
<!-- flightduration&#45;&gt;position -->
<g id="edge35" class="edge">
<title>flightduration&#45;&gt;position</title>
<path fill="none" stroke="black" d="M1558.27,-145.07C1555.31,-144.68 1552.38,-144.32 1549.5,-144 1191.39,-103.84 1095.36,-164.74 739.5,-108 738.04,-107.77 736.57,-107.51 735.08,-107.24"/>
<polygon fill="black" stroke="black" points="735.72,-103.8 725.22,-105.18 734.29,-110.65 735.72,-103.8"/>
</g>
<!-- launchOrigin -->
<g id="node23" class="node">
<title>launchOrigin</title>
<polygon fill="mistyrose" stroke="black" points="1572,-36 1449,-36 1449,0 1572,0 1572,-36"/>
<text text-anchor="middle" x="1510.5" y="-14.3" font-family="Times,serif" font-size="14.00">A:launchOrigin</text>
</g>
<!-- flightduration&#45;&gt;launchOrigin -->
<g id="edge28" class="edge">
<title>flightduration&#45;&gt;launchOrigin</title>
<path fill="none" stroke="black" d="M1627.46,-143.87C1604.09,-118.92 1560.56,-72.45 1533.7,-43.77"/>
<polygon fill="black" stroke="black" points="1535.99,-41.1 1526.6,-36.19 1530.88,-45.88 1535.99,-41.1"/>
</g>
<!-- posXDirection -->
<g id="node24" class="node">
<title>posXDirection</title>
<polygon fill="mistyrose" stroke="black" points="1302,-36 1171,-36 1171,0 1302,0 1302,-36"/>
<text text-anchor="middle" x="1236.5" y="-14.3" font-family="Times,serif" font-size="14.00">A:posXDirection</text>
</g>
<!-- flightduration&#45;&gt;posXDirection -->
<g id="edge30" class="edge">
<title>flightduration&#45;&gt;posXDirection</title>
<path fill="none" stroke="black" d="M1606.36,-143.98C1563.93,-124.93 1492.11,-93.85 1428.5,-72 1390.68,-59.01 1347.86,-46.94 1312.27,-37.61"/>
<polygon fill="black" stroke="black" points="1312.99,-34.18 1302.43,-35.06 1311.23,-40.96 1312.99,-34.18"/>
</g>
<!-- gravAccelValue -->
<g id="node25" class="node">
<title>gravAccelValue</title>
<polygon fill="mistyrose" stroke="black" points="1730.5,-36 1590.5,-36 1590.5,0 1730.5,0 1730.5,-36"/>
<text text-anchor="middle" x="1660.5" y="-14.3" font-family="Times,serif" font-size="14.00">A:gravAccelValue</text>
</g>
<!-- flightduration&#45;&gt;gravAccelValue -->
<g id="edge33" class="edge">
<title>flightduration&#45;&gt;gravAccelValue</title>
<path fill="none" stroke="black" d="M1645.55,-143.87C1648.45,-119.67 1653.77,-75.21 1657.22,-46.39"/>
<polygon fill="black" stroke="black" points="1660.73,-46.53 1658.44,-36.19 1653.78,-45.7 1660.73,-46.53"/>
</g>
<!-- landingposition -->
<g id="node26" class="node">
<title>landingposition</title>
<polygon fill="#fff68f" stroke="black" points="1540.5,-180 1376.5,-180 1376.5,-144 1540.5,-144 1540.5,-180"/>
<text text-anchor="middle" x="1458.5" y="-158.3" font-family="Times,serif" font-size="14.00">IM:calOfLandingDist</text>
</g>
<!-- landingposition&#45;&gt;accelXZero -->
<g id="edge39" class="edge">
<title>landingposition&#45;&gt;accelXZero</title>
<path fill="none" stroke="black" d="M1456.27,-143.83C1453.22,-125.04 1446.45,-94.6 1432.5,-72 1425.79,-61.13 1416.26,-51.06 1406.92,-42.68"/>
<polygon fill="black" stroke="black" points="1409.05,-39.9 1399.17,-36.06 1404.5,-45.22 1409.05,-39.9"/>
</g>
<!-- landingposition&#45;&gt;yAxisGravity -->
<g id="edge36" class="edge">
<title>landingposition&#45;&gt;yAxisGravity</title>
<path fill="none" stroke="black" d="M1507.44,-143.99C1562.51,-125.15 1654.85,-94.47 1735.5,-72 1799.37,-54.2 1818.31,-52.33 1886.47,-36.23"/>
<polygon fill="black" stroke="black" points="1887.5,-39.58 1896.42,-33.85 1885.88,-32.77 1887.5,-39.58"/>
</g>
<!-- landingposition&#45;&gt;ixVel -->
<g id="edge41" class="edge">
<title>landingposition&#45;&gt;ixVel</title>
<path fill="none" stroke="black" d="M1429.39,-143.88C1413.83,-134.72 1394.48,-123.34 1377.72,-113.48"/>
<polygon fill="black" stroke="black" points="1379.12,-110.24 1368.72,-108.19 1375.57,-116.28 1379.12,-110.24"/>
</g>
<!-- landingposition&#45;&gt;position -->
<g id="edge42" class="edge">
<title>landingposition&#45;&gt;position</title>
<path fill="none" stroke="black" d="M1376.23,-145.15C1373.29,-144.73 1370.37,-144.35 1367.5,-144 1089.97,-110.26 1015.29,-153.79 739.5,-108 738.04,-107.76 736.57,-107.49 735.09,-107.21"/>
<polygon fill="black" stroke="black" points="735.74,-103.77 725.23,-105.11 734.28,-110.62 735.74,-103.77"/>
</g>
<!-- landingposition&#45;&gt;flightduration -->
<g id="edge43" class="edge">
<title>landingposition&#45;&gt;flightduration</title>
<path fill="none" stroke="black" d="M1540.52,-162C1543.01,-162 1545.5,-162 1547.99,-162"/>
<polygon fill="black" stroke="black" points="1548.22,-165.5 1558.22,-162 1548.22,-158.5 1548.22,-165.5"/>
</g>
<!-- landingposition&#45;&gt;launchOrigin -->
<g id="edge37" class="edge">
<title>landingposition&#45;&gt;launchOrigin</title>
<path fill="none" stroke="black" d="M1464.77,-143.87C1473.71,-119.46 1490.2,-74.43 1500.75,-45.64"/>
<polygon fill="black" stroke="black" points="1504.05,-46.78 1504.21,-36.19 1497.48,-44.38 1504.05,-46.78"/>
</g>
<!-- landingposition&#45;&gt;posXDirection -->
<g id="edge38" class="edge">
<title>landingposition&#45;&gt;posXDirection</title>
<path fill="none" stroke="black" d="M1451.13,-143.73C1441.73,-123.69 1423.63,-90.98 1398.5,-72 1384.2,-61.2 1347.17,-48.76 1312.12,-38.64"/>
<polygon fill="black" stroke="black" points="1312.88,-35.22 1302.31,-35.85 1310.97,-41.95 1312.88,-35.22"/>
</g>
<!-- landingposition&#45;&gt;gravAccelValue -->
<g id="edge40" class="edge">
<title>landingposition&#45;&gt;gravAccelValue</title>
<path fill="none" stroke="black" d="M1482.87,-143.87C1519.11,-118.39 1587.31,-70.45 1627.84,-41.96"/>
<polygon fill="black" stroke="black" points="1629.88,-44.8 1636.05,-36.19 1625.85,-39.08 1629.88,-44.8"/>
</g>
<!-- offset -->
<g id="node27" class="node">
<title>offset</title>
<polygon fill="#fff68f" stroke="black" points="1358.5,-180 1258.5,-180 1258.5,-144 1358.5,-144 1358.5,-180"/>
<text text-anchor="middle" x="1308.5" y="-158.3" font-family="Times,serif" font-size="14.00">IM:offsetIM</text>
</g>
<!-- offset&#45;&gt;posXDirection -->
<g id="edge44" class="edge">
<title>offset&#45;&gt;posXDirection</title>
<path fill="none" stroke="black" d="M1298.88,-143.93C1293.12,-133.6 1285.74,-120.12 1279.5,-108 1268.76,-87.14 1257.23,-63.19 1248.82,-45.39"/>
<polygon fill="black" stroke="black" points="1251.92,-43.75 1244.49,-36.19 1245.58,-46.73 1251.92,-43.75"/>
</g>
<!-- offset&#45;&gt;landingposition -->
<g id="edge45" class="edge">
<title>offset&#45;&gt;landingposition</title>
<path fill="none" stroke="black" d="M1358.6,-162C1361.07,-162 1363.54,-162 1366.01,-162"/>
<polygon fill="black" stroke="black" points="1366.16,-165.5 1376.16,-162 1366.16,-158.5 1366.16,-165.5"/>
</g>
<!-- message -->
<g id="node28" class="node">
<title>message</title>
<polygon fill="#fff68f" stroke="black" points="1240.5,-180 1118.5,-180 1118.5,-144 1240.5,-144 1240.5,-180"/>
<text text-anchor="middle" x="1179.5" y="-158.3" font-family="Times,serif" font-size="14.00">IM:messageIM</text>
</g>
<!-- message&#45;&gt;posXDirection -->
<g id="edge46" class="edge">
<title>message&#45;&gt;posXDirection</title>
<path fill="none" stroke="black" d="M1186.38,-143.87C1196.18,-119.46 1214.25,-74.43 1225.81,-45.64"/>
<polygon fill="black" stroke="black" points="1229.12,-46.77 1229.6,-36.19 1222.63,-44.17 1229.12,-46.77"/>
</g>
<!-- message&#45;&gt;offset -->
<g id="edge47" class="edge">
<title>message&#45;&gt;offset</title>
<path fill="none" stroke="black" d="M1240.72,-162C1243.22,-162 1245.71,-162 1248.21,-162"/>
<polygon fill="black" stroke="black" points="1248.46,-165.5 1258.46,-162 1248.46,-158.5 1248.46,-165.5"/>
</g>
<!-- calcValues -->
<g id="node29" class="node">
<title>calcValues</title>
<polygon fill="ivory" stroke="black" points="1480.5,-252 1364.5,-252 1364.5,-216 1480.5,-216 1480.5,-252"/>
<text text-anchor="middle" x="1422.5" y="-230.3" font-family="Times,serif" font-size="14.00">FR:calcValues</text>
</g>
<!-- calcValues&#45;&gt;flightduration -->
<g id="edge48" class="edge">
<title>calcValues&#45;&gt;flightduration</title>
<path fill="none" stroke="black" d="M1476.28,-215.97C1507.43,-206.1 1546.82,-193.62 1579.55,-183.25"/>
<polygon fill="black" stroke="black" points="1581,-186.47 1589.48,-180.11 1578.89,-179.79 1581,-186.47"/>
</g>
<!-- calcValues&#45;&gt;landingposition -->
<g id="edge49" class="edge">
<title>calcValues&#45;&gt;landingposition</title>
<path fill="none" stroke="black" d="M1431.4,-215.7C1435.5,-207.73 1440.45,-198.1 1444.99,-189.26"/>
<polygon fill="black" stroke="black" points="1448.24,-190.6 1449.7,-180.1 1442.02,-187.4 1448.24,-190.6"/>
</g>
<!-- calcValues&#45;&gt;offset -->
<g id="edge50" class="edge">
<title>calcValues&#45;&gt;offset</title>
<path fill="none" stroke="black" d="M1394.61,-215.88C1379.71,-206.72 1361.17,-195.34 1345.12,-185.48"/>
<polygon fill="black" stroke="black" points="1346.85,-182.44 1336.49,-180.19 1343.19,-188.41 1346.85,-182.44"/>
</g>
<!-- calcValues&#45;&gt;message -->
<g id="edge51" class="edge">
<title>calcValues&#45;&gt;message</title>
<path fill="none" stroke="black" d="M1364.3,-216.23C1329.64,-206.25 1285.46,-193.52 1248.99,-183.02"/>
<polygon fill="black" stroke="black" points="1249.5,-179.52 1238.92,-180.12 1247.56,-186.25 1249.5,-179.52"/>
</g>
<!-- outputValues -->
<g id="node30" class="node">
<title>outputValues</title>
<polygon fill="ivory" stroke="black" points="1311,-252 1176,-252 1176,-216 1311,-216 1311,-252"/>
<text text-anchor="middle" x="1243.5" y="-230.3" font-family="Times,serif" font-size="14.00">FR:outputValues</text>
</g>
<!-- outputValues&#45;&gt;offset -->
<g id="edge52" class="edge">
<title>outputValues&#45;&gt;offset</title>
<path fill="none" stroke="black" d="M1259.57,-215.7C1267.44,-207.22 1277.06,-196.86 1285.67,-187.58"/>
<polygon fill="black" stroke="black" points="1288.38,-189.81 1292.62,-180.1 1283.25,-185.05 1288.38,-189.81"/>
</g>
<!-- outputValues&#45;&gt;message -->
<g id="edge53" class="edge">
<title>outputValues&#45;&gt;message</title>
<path fill="none" stroke="black" d="M1227.68,-215.7C1219.93,-207.22 1210.46,-196.86 1201.98,-187.58"/>
<polygon fill="black" stroke="black" points="1204.47,-185.12 1195.14,-180.1 1199.3,-189.85 1204.47,-185.12"/>
</g>
<!-- inputValues -->
<g id="node31" class="node">
<title>inputValues</title>
<polygon fill="ivory" stroke="black" points="1624,-252 1499,-252 1499,-216 1624,-216 1624,-252"/>
<text text-anchor="middle" x="1561.5" y="-230.3" font-family="Times,serif" font-size="14.00">FR:inputValues</text>
</g>
<!-- verifyInVals -->
<g id="node32" class="node">
<title>verifyInVals</title>
<polygon fill="ivory" stroke="black" points="1768.5,-252 1642.5,-252 1642.5,-216 1768.5,-216 1768.5,-252"/>
<text text-anchor="middle" x="1705.5" y="-230.3" font-family="Times,serif" font-size="14.00">FR:verifyInVals</text>
</g>
<!-- correct -->
<g id="node33" class="node">
<title>correct</title>
<polygon fill="ivory" stroke="black" points="1890.5,-252 1786.5,-252 1786.5,-216 1890.5,-216 1890.5,-252"/>
<text text-anchor="middle" x="1838.5" y="-230.3" font-family="Times,serif" font-size="14.00">NFR:correct</text>
</g>
<!-- verifiable -->
<g id="node34" class="node">
<title>verifiable</title>
<polygon fill="ivory" stroke="black" points="2028.5,-252 1908.5,-252 1908.5,-216 2028.5,-216 2028.5,-252"/>
<text text-anchor="middle" x="1968.5" y="-230.3" font-family="Times,serif" font-size="14.00">NFR:verifiable</text>
</g>
<!-- understandable -->
<g id="node35" class="node">
<title>understandable</title>
<polygon fill="ivory" stroke="black" points="2212,-252 2047,-252 2047,-216 2212,-216 2212,-252"/>
<text text-anchor="middle" x="2129.5" y="-230.3" font-family="Times,serif" font-size="14.00">NFR:understandable</text>
</g>
<!-- reusable -->
<g id="node36" class="node">
<title>reusable</title>
<polygon fill="ivory" stroke="black" points="2345,-252 2230,-252 2230,-216 2345,-216 2345,-252"/>
<text text-anchor="middle" x="2287.5" y="-230.3" font-family="Times,serif" font-size="14.00">NFR:reusable</text>
</g>
<!-- maintainable -->
<g id="node37" class="node">
<title>maintainable</title>
<polygon fill="ivory" stroke="black" points="2509.5,-252 2363.5,-252 2363.5,-216 2509.5,-216 2509.5,-252"/>
<text text-anchor="middle" x="2436.5" y="-230.3" font-family="Times,serif" font-size="14.00">NFR:maintainable</text>
</g>
<!-- portable -->
<g id="node38" class="node">
<title>portable</title>
<polygon fill="ivory" stroke="black" points="2641,-252 2528,-252 2528,-216 2641,-216 2641,-252"/>
<text text-anchor="middle" x="2584.5" y="-230.3" font-family="Times,serif" font-size="14.00">NFR:portable</text>
</g>
<!-- targetHit -->
<g id="node39" class="node">
<title>targetHit</title>
<polygon fill="#ffb90f" stroke="black" points="2768,-252 2659,-252 2659,-216 2768,-216 2768,-252"/>
<text text-anchor="middle" x="2713.5" y="-230.3" font-family="Times,serif" font-size="14.00">GS:targetHit</text>
</g>
</g>
</svg>
