<?xml version="1.0" encoding="UTF-8" standalone="no"?>
<!DOCTYPE svg PUBLIC "-//W3C//DTD SVG 1.1//EN"
 "http://www.w3.org/Graphics/SVG/1.1/DTD/svg11.dtd">
<!-- Generated by graphviz version 2.43.0 (0)
 -->
<!-- Title: allvsr Pages: 1 -->
<svg width="242pt" height="116pt"
 viewBox="0.00 0.00 242.00 116.00" xmlns="http://www.w3.org/2000/svg" xmlns:xlink="http://www.w3.org/1999/xlink">
<g id="graph0" class="graph" transform="scale(1 1) rotate(0) translate(4 112)">
<title>allvsr</title>
<polygon fill="white" stroke="transparent" points="-4,4 -4,-112 238,-112 238,4 -4,4"/>
<!-- instance -->
<g id="node1" class="node">
<title>instance</title>
<polygon fill="#ffb90f" stroke="black" points="115.5,-108 6.5,-108 6.5,-72 115.5,-72 115.5,-108"/>
<text text-anchor="middle" x="61" y="-86.3" font-family="Times,serif" font-size="14.00">GS:targetHit</text>
</g>
<!-- theory -->
<g id="node2" class="node">
<title>theory</title>
<polygon fill="#fff68f" stroke="black" points="122,-36 0,-36 0,0 122,0 122,-36"/>
<text text-anchor="middle" x="61" y="-14.3" font-family="Times,serif" font-size="14.00">IM:messageIM</text>
</g>
<!-- instance&#45;&gt;theory -->
<g id="edge1" class="edge">
<title>instance:calcValues&#45;&gt;theory:flightduration</title>
<path fill="none" stroke="black" d="M25.51,-71.7C20.63,-63.81 19.31,-54.3 21.57,-45.55"/>
<polygon fill="black" stroke="black" points="24.89,-46.67 25.63,-36.1 18.46,-43.91 24.89,-46.67"/>
</g>
<!-- instance&#45;&gt;theory -->
<g id="edge2" class="edge">
<title>instance:calcValues&#45;&gt;theory:landingposition</title>
<path fill="none" stroke="black" d="M37.34,-71.7C34.12,-63.9 33.23,-54.51 34.66,-45.83"/>
<polygon fill="black" stroke="black" points="38.06,-46.68 37.42,-36.1 31.33,-44.77 38.06,-46.68"/>
</g>
<!-- instance&#45;&gt;theory -->
<g id="edge3" class="edge">
<title>instance:calcValues&#45;&gt;theory:offset</title>
<path fill="none" stroke="black" d="M49.17,-71.7C47.58,-63.98 47.12,-54.71 47.81,-46.11"/>
<polygon fill="black" stroke="black" points="51.29,-46.49 49.21,-36.1 44.36,-45.52 51.29,-46.49"/>
</g>
<!-- instance&#45;&gt;theory -->
<g id="edge4" class="edge">
<title>instance:calcValues&#45;&gt;theory:outputMessage</title>
<path fill="none" stroke="black" d="M61,-71.7C61,-63.98 61,-54.71 61,-46.11"/>
<polygon fill="black" stroke="black" points="64.5,-46.1 61,-36.1 57.5,-46.1 64.5,-46.1"/>
</g>
<!-- instance&#45;&gt;theory -->
<g id="edge5" class="edge">
<title>instance:outputValues&#45;&gt;theory:flightduration</title>
<path fill="none" stroke="black" d="M72.83,-71.7C74.42,-63.98 74.88,-54.71 74.19,-46.11"/>
<polygon fill="black" stroke="black" points="77.64,-45.52 72.79,-36.1 70.71,-46.49 77.64,-45.52"/>
</g>
<!-- instance&#45;&gt;theory -->
<g id="edge6" class="edge">
<title>instance:outputValues&#45;&gt;theory:offset</title>
<path fill="none" stroke="black" d="M84.66,-71.7C87.88,-63.9 88.77,-54.51 87.34,-45.83"/>
<polygon fill="black" stroke="black" points="90.67,-44.77 84.58,-36.1 83.94,-46.68 90.67,-44.77"/>
</g>
<!-- instance&#45;&gt;theory -->
<g id="edge7" class="edge">
<title>instance:outputValues&#45;&gt;theory:outputMessage</title>
<path fill="none" stroke="black" d="M96.49,-71.7C101.37,-63.81 102.69,-54.3 100.43,-45.55"/>
<polygon fill="black" stroke="black" points="103.54,-43.91 96.37,-36.1 97.11,-46.67 103.54,-43.91"/>
</g>
<!-- dataDefn -->
<g id="node3" class="node">
<title>dataDefn</title>
<polygon fill="#bbffff" stroke="black" points="234,-108 134,-108 134,-72 234,-72 234,-108"/>
<text text-anchor="middle" x="184" y="-86.3" font-family="Times,serif" font-size="14.00">DD:speedIY</text>
</g>
</g>
</svg>
