<?xml version="1.0" encoding="UTF-8" standalone="no"?>
<!DOCTYPE svg PUBLIC "-//W3C//DTD SVG 1.1//EN"
 "http://www.w3.org/Graphics/SVG/1.1/DTD/svg11.dtd">
<!-- Generated by graphviz version 2.43.0 (0)
 -->
<!-- Title: allvsall Pages: 1 -->
<svg width="3229pt" height="188pt"
 viewBox="0.00 0.00 3229.00 188.00" xmlns="http://www.w3.org/2000/svg" xmlns:xlink="http://www.w3.org/1999/xlink">
<g id="graph0" class="graph" transform="scale(1 1) rotate(0) translate(4 184)">
<title>allvsall</title>
<polygon fill="white" stroke="transparent" points="-4,4 -4,-184 3225,-184 3225,4 -4,4"/>
<!-- cartSyst -->
<g id="node1" class="node">
<title>cartSyst</title>
<polygon fill="mistyrose" stroke="black" points="91,-36 0,-36 0,0 91,0 91,-36"/>
<text text-anchor="middle" x="45.5" y="-14.3" font-family="Times,serif" font-size="14.00">A:cartSyst</text>
</g>
<!-- neglectCurv -->
<g id="node2" class="node">
<title>neglectCurv</title>
<polygon fill="mistyrose" stroke="black" points="360.5,-36 242.5,-36 242.5,0 360.5,0 360.5,-36"/>
<text text-anchor="middle" x="301.5" y="-14.3" font-family="Times,serif" font-size="14.00">A:neglectCurv</text>
</g>
<!-- cartSyst&#45;&gt;neglectCurv -->
<g id="edge1" class="edge">
<title>cartSyst&#45;&gt;neglectCurv</title>
<path fill="none" stroke="black" d="M70.23,-36.11C81.35,-43.17 94.99,-50.41 108.5,-54 157.9,-67.12 173.58,-64.96 223.5,-54 236.26,-51.2 249.42,-46.1 261.21,-40.6"/>
<polygon fill="black" stroke="black" points="262.89,-43.68 270.34,-36.15 259.82,-37.39 262.89,-43.68"/>
</g>
<!-- targetXAxis -->
<g id="node3" class="node">
<title>targetXAxis</title>
<polygon fill="mistyrose" stroke="black" points="224,-36 109,-36 109,0 224,0 224,-36"/>
<text text-anchor="middle" x="166.5" y="-14.3" font-family="Times,serif" font-size="14.00">A:targetXAxis</text>
</g>
<!-- targetXAxis&#45;&gt;neglectCurv -->
<g id="edge2" class="edge">
<title>targetXAxis&#45;&gt;neglectCurv</title>
<path fill="none" stroke="black" d="M224.24,-18C226.88,-18 229.53,-18 232.17,-18"/>
<polygon fill="black" stroke="black" points="232.35,-21.5 242.35,-18 232.35,-14.5 232.35,-21.5"/>
</g>
<!-- constAccel -->
<g id="node4" class="node">
<title>constAccel</title>
<polygon fill="mistyrose" stroke="black" points="486,-36 379,-36 379,0 486,0 486,-36"/>
<text text-anchor="middle" x="432.5" y="-14.3" font-family="Times,serif" font-size="14.00">A:constAccel</text>
</g>
<!-- accelXZero -->
<g id="node5" class="node">
<title>accelXZero</title>
<polygon fill="mistyrose" stroke="black" points="1159.5,-36 1049.5,-36 1049.5,0 1159.5,0 1159.5,-36"/>
<text text-anchor="middle" x="1104.5" y="-14.3" font-family="Times,serif" font-size="14.00">A:accelXZero</text>
</g>
<!-- constAccel&#45;&gt;accelXZero -->
<g id="edge3" class="edge">
<title>constAccel&#45;&gt;accelXZero</title>
<path fill="none" stroke="black" d="M461.1,-36.13C473.86,-43.19 489.4,-50.44 504.5,-54 561.49,-67.45 974.47,-67.3 1031.5,-54 1043.31,-51.25 1055.42,-46.29 1066.28,-40.92"/>
<polygon fill="black" stroke="black" points="1068.22,-43.86 1075.47,-36.14 1064.99,-37.65 1068.22,-43.86"/>
</g>
<!-- accelYGravity -->
<g id="node6" class="node">
<title>accelYGravity</title>
<polygon fill="mistyrose" stroke="black" points="891,-36 762,-36 762,0 891,0 891,-36"/>
<text text-anchor="middle" x="826.5" y="-14.3" font-family="Times,serif" font-size="14.00">A:accelYGravity</text>
</g>
<!-- constAccel&#45;&gt;accelYGravity -->
<g id="edge4" class="edge">
<title>constAccel&#45;&gt;accelYGravity</title>
<path fill="none" stroke="black" d="M461.1,-36.13C473.86,-43.19 489.4,-50.44 504.5,-54 607.88,-78.4 639.49,-75.58 743.5,-54 757.1,-51.18 771.22,-46.01 783.86,-40.45"/>
<polygon fill="black" stroke="black" points="785.58,-43.51 793.21,-36.16 782.66,-37.15 785.58,-43.51"/>
</g>
<!-- neglectDrag -->
<g id="node7" class="node">
<title>neglectDrag</title>
<polygon fill="mistyrose" stroke="black" points="744,-36 625,-36 625,0 744,0 744,-36"/>
<text text-anchor="middle" x="684.5" y="-14.3" font-family="Times,serif" font-size="14.00">A:neglectDrag</text>
</g>
<!-- constAccel&#45;&gt;neglectDrag -->
<g id="edge5" class="edge">
<title>constAccel&#45;&gt;neglectDrag</title>
<path fill="none" stroke="black" d="M461.1,-36.13C473.86,-43.19 489.4,-50.44 504.5,-54 548.62,-64.42 562.22,-63.73 606.5,-54 619.26,-51.2 632.42,-46.1 644.21,-40.6"/>
<polygon fill="black" stroke="black" points="645.89,-43.68 653.34,-36.15 642.82,-37.39 645.89,-43.68"/>
</g>
<!-- freeFlight -->
<g id="node8" class="node">
<title>freeFlight</title>
<polygon fill="mistyrose" stroke="black" points="606.5,-36 504.5,-36 504.5,0 606.5,0 606.5,-36"/>
<text text-anchor="middle" x="555.5" y="-14.3" font-family="Times,serif" font-size="14.00">A:freeFlight</text>
</g>
<!-- constAccel&#45;&gt;freeFlight -->
<g id="edge6" class="edge">
<title>constAccel&#45;&gt;freeFlight</title>
<path fill="none" stroke="black" d="M486.31,-18C488.95,-18 491.59,-18 494.23,-18"/>
<polygon fill="black" stroke="black" points="494.42,-21.5 504.42,-18 494.42,-14.5 494.42,-21.5"/>
</g>
<!-- yAxisGravity -->
<g id="node9" class="node">
<title>yAxisGravity</title>
<polygon fill="mistyrose" stroke="black" points="1031.5,-36 909.5,-36 909.5,0 1031.5,0 1031.5,-36"/>
<text text-anchor="middle" x="970.5" y="-14.3" font-family="Times,serif" font-size="14.00">A:yAxisGravity</text>
</g>
<!-- accelYGravity&#45;&gt;yAxisGravity -->
<g id="edge7" class="edge">
<title>accelYGravity&#45;&gt;yAxisGravity</title>
<path fill="none" stroke="black" d="M891.19,-18C893.85,-18 896.52,-18 899.18,-18"/>
<polygon fill="black" stroke="black" points="899.47,-21.5 909.47,-18 899.47,-14.5 899.47,-21.5"/>
</g>
<!-- ixVel -->
<g id="node10" class="node">
<title>ixVel</title>
<polygon fill="#bbffff" stroke="black" points="1279,-36 1178,-36 1178,0 1279,0 1279,-36"/>
<text text-anchor="middle" x="1228.5" y="-14.3" font-family="Times,serif" font-size="14.00">DD:speedIX</text>
</g>
<!-- speed -->
<g id="node11" class="node">
<title>speed</title>
<polygon fill="#bbffff" stroke="black" points="1515,-36 1416,-36 1416,0 1515,0 1515,-36"/>
<text text-anchor="middle" x="1465.5" y="-14.3" font-family="Times,serif" font-size="14.00">DD:vecMag</text>
</g>
<!-- ixVel&#45;&gt;speed -->
<g id="edge8" class="edge">
<title>ixVel&#45;&gt;speed</title>
<path fill="none" stroke="black" d="M1255.81,-36.13C1268.03,-43.19 1282.93,-50.43 1297.5,-54 1340.67,-64.58 1354.37,-64.71 1397.5,-54 1408.52,-51.26 1419.71,-46.38 1429.76,-41.07"/>
<polygon fill="black" stroke="black" points="1431.59,-44.05 1438.62,-36.12 1428.18,-37.94 1431.59,-44.05"/>
</g>
<!-- iyVel -->
<g id="node12" class="node">
<title>iyVel</title>
<polygon fill="#bbffff" stroke="black" points="1397.5,-36 1297.5,-36 1297.5,0 1397.5,0 1397.5,-36"/>
<text text-anchor="middle" x="1347.5" y="-14.3" font-family="Times,serif" font-size="14.00">DD:speedIY</text>
</g>
<!-- iyVel&#45;&gt;speed -->
<g id="edge9" class="edge">
<title>iyVel&#45;&gt;speed</title>
<path fill="none" stroke="black" d="M1397.74,-18C1400.37,-18 1402.99,-18 1405.62,-18"/>
<polygon fill="black" stroke="black" points="1405.74,-21.5 1415.74,-18 1405.74,-14.5 1405.74,-21.5"/>
</g>
<!-- theory -->
<g id="node13" class="node">
<title>theory</title>
<polygon fill="#fff68f" stroke="black" points="1783.5,-108 1661.5,-108 1661.5,-72 1783.5,-72 1783.5,-108"/>
<text text-anchor="middle" x="1722.5" y="-86.3" font-family="Times,serif" font-size="14.00">IM:messageIM</text>
</g>
<!-- theory&#45;&gt;cartSyst -->
<g id="edge18" class="edge">
<title>theory:velocity&#45;&gt;cartSyst</title>
<path fill="none" stroke="black" d="M1661.38,-89.22C1405.95,-89.83 422.96,-88.87 101.2,-37.76"/>
<polygon fill="black" stroke="black" points="101.39,-34.24 90.95,-36.08 100.26,-41.15 101.39,-34.24"/>
</g>
<!-- theory&#45;&gt;cartSyst -->
<g id="edge23" class="edge">
<title>theory:position&#45;&gt;cartSyst</title>
<path fill="none" stroke="black" d="M1661.09,-89.23C1404.25,-89.81 415.94,-88.4 108.5,-36 106.04,-35.58 103.54,-35.08 101.02,-34.51"/>
<polygon fill="black" stroke="black" points="101.8,-31.1 91.25,-32.06 100.1,-37.89 101.8,-31.1"/>
</g>
<!-- theory&#45;&gt;targetXAxis -->
<g id="edge29" class="edge">
<title>theory:flightduration&#45;&gt;targetXAxis</title>
<path fill="none" stroke="black" d="M1661.24,-88.56C1420.22,-86.55 536.14,-76.62 234.15,-35.84"/>
<polygon fill="black" stroke="black" points="234.47,-32.35 224.09,-34.44 233.51,-39.29 234.47,-32.35"/>
</g>
<!-- theory&#45;&gt;constAccel -->
<g id="edge19" class="edge">
<title>theory:velocity&#45;&gt;constAccel</title>
<path fill="none" stroke="black" d="M1661.16,-88.19C1447.52,-85.02 736.7,-71.88 496.23,-37.44"/>
<polygon fill="black" stroke="black" points="496.57,-33.96 486.16,-35.95 495.54,-40.88 496.57,-33.96"/>
</g>
<!-- theory&#45;&gt;constAccel -->
<g id="edge24" class="edge">
<title>theory:position&#45;&gt;constAccel</title>
<path fill="none" stroke="black" d="M1661.14,-88.08C1446.65,-84.68 731.68,-71.12 504.5,-36 501.72,-35.57 498.88,-35.06 496.02,-34.5"/>
<polygon fill="black" stroke="black" points="496.76,-31.08 486.24,-32.39 495.28,-37.92 496.76,-31.08"/>
</g>
<!-- theory&#45;&gt;accelXZero -->
<g id="edge39" class="edge">
<title>theory:landingposition&#45;&gt;accelXZero</title>
<path fill="none" stroke="black" d="M1661.39,-86.44C1560.63,-81.49 1353.32,-68.29 1169.38,-35.98"/>
<polygon fill="black" stroke="black" points="1169.99,-32.54 1159.53,-34.23 1168.76,-39.43 1169.99,-32.54"/>
</g>
<!-- theory&#45;&gt;accelYGravity -->
<g id="edge31" class="edge">
<title>theory:flightduration&#45;&gt;accelYGravity</title>
<path fill="none" stroke="black" d="M1661.31,-88.42C1525.92,-86.42 1190.77,-77.46 901.63,-36.01"/>
<polygon fill="black" stroke="black" points="901.76,-32.49 891.36,-34.52 900.75,-39.42 901.76,-32.49"/>
</g>
<!-- theory&#45;&gt;yAxisGravity -->
<g id="edge27" class="edge">
<title>theory:flightduration&#45;&gt;yAxisGravity</title>
<path fill="none" stroke="black" d="M1661.06,-87.68C1541.57,-84.31 1270.04,-73 1041.98,-37.65"/>
<polygon fill="black" stroke="black" points="1042.26,-34.15 1031.84,-36.05 1041.17,-41.06 1042.26,-34.15"/>
</g>
<!-- theory&#45;&gt;yAxisGravity -->
<g id="edge36" class="edge">
<title>theory:landingposition&#45;&gt;yAxisGravity</title>
<path fill="none" stroke="black" d="M1661.05,-87.37C1542.19,-83.58 1273.22,-71.62 1049.5,-36 1046.87,-35.58 1044.19,-35.11 1041.49,-34.61"/>
<polygon fill="black" stroke="black" points="1042.12,-31.17 1031.63,-32.64 1040.75,-38.03 1042.12,-31.17"/>
</g>
<!-- theory&#45;&gt;ixVel -->
<g id="edge41" class="edge">
<title>theory:landingposition&#45;&gt;ixVel</title>
<path fill="none" stroke="black" d="M1661.29,-84.53C1578.8,-77.83 1427.33,-63.2 1289.04,-35.92"/>
<polygon fill="black" stroke="black" points="1289.6,-32.46 1279.1,-33.93 1288.22,-39.33 1289.6,-32.46"/>
</g>
<!-- theory&#45;&gt;iyVel -->
<g id="edge34" class="edge">
<title>theory:flightduration&#45;&gt;iyVel</title>
<path fill="none" stroke="black" d="M1661.22,-80.84C1599.45,-72.14 1501.24,-57.01 1407.54,-36.1"/>
<polygon fill="black" stroke="black" points="1408.14,-32.65 1397.61,-33.86 1406.59,-39.48 1408.14,-32.65"/>
</g>
<!-- theory&#45;&gt;theory -->
<g id="edge16" class="edge">
<title>theory:projPos&#45;&gt;theory:projSpeed</title>
<path fill="none" stroke="black" d="M1783.78,-91.58C1794.25,-91.36 1801.5,-90.83 1801.5,-90 1801.5,-89.48 1798.67,-89.08 1793.99,-88.8"/>
<polygon fill="black" stroke="black" points="1793.9,-85.29 1783.78,-88.42 1793.64,-92.29 1793.9,-85.29"/>
</g>
<!-- theory&#45;&gt;theory -->
<g id="edge21" class="edge">
<title>theory:velocity&#45;&gt;theory:projSpeed</title>
<path fill="none" stroke="black" d="M1783.6,-93.37C1803.58,-93.36 1819.5,-92.23 1819.5,-90 1819.5,-88.17 1808.79,-87.08 1793.91,-86.74"/>
<polygon fill="black" stroke="black" points="1793.64,-83.24 1783.6,-86.63 1793.56,-90.24 1793.64,-83.24"/>
</g>
<!-- theory&#45;&gt;theory -->
<g id="edge26" class="edge">
<title>theory:position&#45;&gt;theory:projPos</title>
<path fill="none" stroke="black" d="M1783.73,-94.96C1812.39,-95.52 1837.5,-93.86 1837.5,-90 1837.5,-86.6 1818.11,-84.92 1793.95,-84.94"/>
<polygon fill="black" stroke="black" points="1793.69,-81.44 1783.73,-85.04 1793.77,-88.44 1793.69,-81.44"/>
</g>
<!-- theory&#45;&gt;theory -->
<g id="edge35" class="edge">
<title>theory:flightduration&#45;&gt;theory:position</title>
<path fill="none" stroke="black" d="M1783.72,-96.31C1820.65,-97.75 1855.5,-95.64 1855.5,-90 1855.5,-84.89 1826.88,-82.68 1794.02,-83.38"/>
<polygon fill="black" stroke="black" points="1793.61,-79.89 1783.72,-83.69 1793.82,-86.88 1793.61,-79.89"/>
</g>
<!-- theory&#45;&gt;theory -->
<g id="edge42" class="edge">
<title>theory:landingposition&#45;&gt;theory:position</title>
<path fill="none" stroke="black" d="M1783.76,-97.49C1828.58,-100.01 1873.5,-97.51 1873.5,-90 1873.5,-83.06 1835.17,-80.4 1793.98,-82.03"/>
<polygon fill="black" stroke="black" points="1793.58,-78.54 1783.76,-82.51 1793.91,-85.53 1793.58,-78.54"/>
</g>
<!-- theory&#45;&gt;theory -->
<g id="edge43" class="edge">
<title>theory:landingposition&#45;&gt;theory:flightduration</title>
<path fill="none" stroke="black" d="M1783.58,-98.49C1836.11,-102.29 1891.5,-99.47 1891.5,-90 1891.5,-81.14 1843.02,-78.1 1793.76,-80.86"/>
<polygon fill="black" stroke="black" points="1793.34,-77.38 1783.58,-81.51 1793.79,-84.37 1793.34,-77.38"/>
</g>
<!-- theory&#45;&gt;theory -->
<g id="edge45" class="edge">
<title>theory:offset&#45;&gt;theory:landingposition</title>
<path fill="none" stroke="black" d="M1783.79,-99.39C1843.69,-104.57 1909.5,-101.44 1909.5,-90 1909.5,-79.2 1850.93,-75.81 1794.01,-79.81"/>
<polygon fill="black" stroke="black" points="1793.49,-76.34 1783.79,-80.61 1794.03,-83.32 1793.49,-76.34"/>
</g>
<!-- theory&#45;&gt;theory -->
<g id="edge47" class="edge">
<title>theory:message&#45;&gt;theory:offset</title>
<path fill="none" stroke="black" d="M1783.62,-100.15C1850.83,-106.87 1927.5,-103.48 1927.5,-90 1927.5,-77.2 1858.41,-73.5 1793.92,-78.9"/>
<polygon fill="black" stroke="black" points="1793.26,-75.45 1783.62,-79.85 1793.9,-82.42 1793.26,-75.45"/>
</g>
<!-- pointMass -->
<g id="node14" class="node">
<title>pointMass</title>
<polygon fill="mistyrose" stroke="black" points="1638,-36 1533,-36 1533,0 1638,0 1638,-36"/>
<text text-anchor="middle" x="1585.5" y="-14.3" font-family="Times,serif" font-size="14.00">A:pointMass</text>
</g>
<!-- theory&#45;&gt;pointMass -->
<g id="edge10" class="edge">
<title>theory:projSpeed&#45;&gt;pointMass</title>
<path fill="none" stroke="black" d="M1683.09,-71.88C1663.87,-62.55 1640.96,-50.92 1622.12,-40.94"/>
<polygon fill="black" stroke="black" points="1623.71,-37.82 1613.24,-36.19 1620.41,-43.99 1623.71,-37.82"/>
</g>
<!-- theory&#45;&gt;pointMass -->
<g id="edge13" class="edge">
<title>theory:projPos&#45;&gt;pointMass</title>
<path fill="none" stroke="black" d="M1694.88,-71.88C1677.39,-62.43 1654.4,-50.62 1633.97,-40.55"/>
<polygon fill="black" stroke="black" points="1635.32,-37.32 1624.8,-36.07 1632.24,-43.61 1635.32,-37.32"/>
</g>
<!-- timeStartZero -->
<g id="node15" class="node">
<title>timeStartZero</title>
<polygon fill="mistyrose" stroke="black" points="1789,-36 1656,-36 1656,0 1789,0 1789,-36"/>
<text text-anchor="middle" x="1722.5" y="-14.3" font-family="Times,serif" font-size="14.00">A:timeStartZero</text>
</g>
<!-- theory&#45;&gt;timeStartZero -->
<g id="edge11" class="edge">
<title>theory:projSpeed&#45;&gt;timeStartZero</title>
<path fill="none" stroke="black" d="M1698.84,-71.7C1695.62,-63.9 1694.73,-54.51 1696.16,-45.83"/>
<polygon fill="black" stroke="black" points="1699.56,-46.68 1698.92,-36.1 1692.83,-44.77 1699.56,-46.68"/>
</g>
<!-- theory&#45;&gt;timeStartZero -->
<g id="edge14" class="edge">
<title>theory:projPos&#45;&gt;timeStartZero</title>
<path fill="none" stroke="black" d="M1710.67,-71.7C1709.08,-63.98 1708.62,-54.71 1709.31,-46.11"/>
<polygon fill="black" stroke="black" points="1712.79,-46.49 1710.71,-36.1 1705.86,-45.52 1712.79,-46.49"/>
</g>
<!-- theory&#45;&gt;timeStartZero -->
<g id="edge20" class="edge">
<title>theory:velocity&#45;&gt;timeStartZero</title>
<path fill="none" stroke="black" d="M1722.5,-71.7C1722.5,-63.98 1722.5,-54.71 1722.5,-46.11"/>
<polygon fill="black" stroke="black" points="1726,-46.1 1722.5,-36.1 1719,-46.1 1726,-46.1"/>
</g>
<!-- theory&#45;&gt;timeStartZero -->
<g id="edge25" class="edge">
<title>theory:position&#45;&gt;timeStartZero</title>
<path fill="none" stroke="black" d="M1734.33,-71.7C1735.92,-63.98 1736.38,-54.71 1735.69,-46.11"/>
<polygon fill="black" stroke="black" points="1739.14,-45.52 1734.29,-36.1 1732.21,-46.49 1739.14,-45.52"/>
</g>
<!-- theory&#45;&gt;timeStartZero -->
<g id="edge32" class="edge">
<title>theory:flightduration&#45;&gt;timeStartZero</title>
<path fill="none" stroke="black" d="M1746.16,-71.7C1749.38,-63.9 1750.27,-54.51 1748.84,-45.83"/>
<polygon fill="black" stroke="black" points="1752.17,-44.77 1746.08,-36.1 1745.44,-46.68 1752.17,-44.77"/>
</g>
<!-- accelerationTM -->
<g id="node16" class="node">
<title>accelerationTM</title>
<polygon fill="pink" stroke="black" points="1938,-36 1807,-36 1807,0 1938,0 1938,-36"/>
<text text-anchor="middle" x="1872.5" y="-14.3" font-family="Times,serif" font-size="14.00">TM:acceleration</text>
</g>
<!-- theory&#45;&gt;accelerationTM -->
<g id="edge12" class="edge">
<title>theory:projSpeed&#45;&gt;accelerationTM</title>
<path fill="none" stroke="black" d="M1759.19,-71.88C1779.52,-62.39 1804.97,-50.51 1826.6,-40.42"/>
<polygon fill="black" stroke="black" points="1828.34,-43.47 1835.93,-36.07 1825.38,-37.13 1828.34,-43.47"/>
</g>
<!-- velocityTM -->
<g id="node17" class="node">
<title>velocityTM</title>
<polygon fill="pink" stroke="black" points="2056.5,-36 1956.5,-36 1956.5,0 2056.5,0 2056.5,-36"/>
<text text-anchor="middle" x="2006.5" y="-14.3" font-family="Times,serif" font-size="14.00">TM:velocity</text>
</g>
<!-- theory&#45;&gt;velocityTM -->
<g id="edge15" class="edge">
<title>theory:projPos&#45;&gt;velocityTM</title>
<path fill="none" stroke="black" d="M1783.82,-75.41C1826.87,-65.68 1886,-51.91 1946.6,-36.18"/>
<polygon fill="black" stroke="black" points="1947.54,-39.55 1956.33,-33.64 1945.77,-32.78 1947.54,-39.55"/>
</g>
<!-- twoDMotion -->
<g id="node18" class="node">
<title>twoDMotion</title>
<polygon fill="mistyrose" stroke="black" points="2194,-36 2075,-36 2075,0 2194,0 2194,-36"/>
<text text-anchor="middle" x="2134.5" y="-14.3" font-family="Times,serif" font-size="14.00">A:twoDMotion</text>
</g>
<!-- theory&#45;&gt;twoDMotion -->
<g id="edge17" class="edge">
<title>theory:velocity&#45;&gt;twoDMotion</title>
<path fill="none" stroke="black" d="M1783.71,-80.3C1850.92,-70.99 1961.67,-54.97 2056.5,-36 2059.28,-35.44 2062.11,-34.85 2064.98,-34.23"/>
<polygon fill="black" stroke="black" points="2065.81,-37.63 2074.81,-32.04 2064.28,-30.8 2065.81,-37.63"/>
</g>
<!-- theory&#45;&gt;twoDMotion -->
<g id="edge22" class="edge">
<title>theory:position&#45;&gt;twoDMotion</title>
<path fill="none" stroke="black" d="M1783.73,-82.04C1852.09,-73.36 1965.84,-57.29 2065.01,-37.88"/>
<polygon fill="black" stroke="black" points="2065.73,-41.3 2074.86,-35.93 2064.37,-34.43 2065.73,-41.3"/>
</g>
<!-- launchOrigin -->
<g id="node19" class="node">
<title>launchOrigin</title>
<polygon fill="mistyrose" stroke="black" points="2335,-36 2212,-36 2212,0 2335,0 2335,-36"/>
<text text-anchor="middle" x="2273.5" y="-14.3" font-family="Times,serif" font-size="14.00">A:launchOrigin</text>
</g>
<!-- theory&#45;&gt;launchOrigin -->
<g id="edge28" class="edge">
<title>theory:flightduration&#45;&gt;launchOrigin</title>
<path fill="none" stroke="black" d="M1783.78,-84.33C1874.17,-77.22 2048.04,-61.74 2194.5,-36 2196.98,-35.56 2199.5,-35.09 2202.05,-34.59"/>
<polygon fill="black" stroke="black" points="2202.88,-37.99 2211.96,-32.54 2201.46,-31.14 2202.88,-37.99"/>
</g>
<!-- theory&#45;&gt;launchOrigin -->
<g id="edge37" class="edge">
<title>theory:landingposition&#45;&gt;launchOrigin</title>
<path fill="none" stroke="black" d="M1783.63,-85.21C1874.8,-78.71 2051.47,-63.57 2202.17,-37.79"/>
<polygon fill="black" stroke="black" points="2202.8,-41.23 2212.05,-36.08 2201.6,-34.34 2202.8,-41.23"/>
</g>
<!-- posXDirection -->
<g id="node20" class="node">
<title>posXDirection</title>
<polygon fill="mistyrose" stroke="black" points="2484,-36 2353,-36 2353,0 2484,0 2484,-36"/>
<text text-anchor="middle" x="2418.5" y="-14.3" font-family="Times,serif" font-size="14.00">A:posXDirection</text>
</g>
<!-- theory&#45;&gt;posXDirection -->
<g id="edge30" class="edge">
<title>theory:flightduration&#45;&gt;posXDirection</title>
<path fill="none" stroke="black" d="M1783.57,-85.86C1892.37,-80.32 2123.43,-66.4 2317.5,-36 2325.64,-34.73 2334.21,-33.06 2342.92,-31.27"/>
<polygon fill="black" stroke="black" points="2343.71,-34.68 2352.78,-29.21 2342.28,-27.83 2343.71,-34.68"/>
</g>
<!-- theory&#45;&gt;posXDirection -->
<g id="edge38" class="edge">
<title>theory:landingposition&#45;&gt;posXDirection</title>
<path fill="none" stroke="black" d="M1783.68,-86.4C1894.4,-81.26 2134.74,-67.45 2335.5,-36 2337.86,-35.63 2340.26,-35.23 2342.68,-34.8"/>
<polygon fill="black" stroke="black" points="2343.56,-38.19 2352.73,-32.9 2342.26,-31.32 2343.56,-38.19"/>
</g>
<!-- theory&#45;&gt;posXDirection -->
<g id="edge44" class="edge">
<title>theory:offset&#45;&gt;posXDirection</title>
<path fill="none" stroke="black" d="M1783.69,-86.87C1895.09,-82.21 2138.08,-68.91 2343.15,-37.6"/>
<polygon fill="black" stroke="black" points="2343.85,-41.03 2353.2,-36.05 2342.78,-34.12 2343.85,-41.03"/>
</g>
<!-- theory&#45;&gt;posXDirection -->
<g id="edge46" class="edge">
<title>theory:message&#45;&gt;posXDirection</title>
<path fill="none" stroke="black" d="M1783.9,-87.25C1898.88,-82.96 2150.16,-69.81 2361.17,-37.6"/>
<polygon fill="black" stroke="black" points="2361.84,-41.04 2371.19,-36.05 2360.77,-34.12 2361.84,-41.04"/>
</g>
<!-- gravAccelValue -->
<g id="node21" class="node">
<title>gravAccelValue</title>
<polygon fill="mistyrose" stroke="black" points="2642.5,-36 2502.5,-36 2502.5,0 2642.5,0 2642.5,-36"/>
<text text-anchor="middle" x="2572.5" y="-14.3" font-family="Times,serif" font-size="14.00">A:gravAccelValue</text>
</g>
<!-- theory&#45;&gt;gravAccelValue -->
<g id="edge33" class="edge">
<title>theory:flightduration&#45;&gt;gravAccelValue</title>
<path fill="none" stroke="black" d="M1783.82,-87.64C1913.7,-84.19 2225.44,-72.59 2484.5,-36 2487.14,-35.63 2489.83,-35.21 2492.54,-34.77"/>
<polygon fill="black" stroke="black" points="2493.2,-38.21 2502.45,-33.05 2492,-31.31 2493.2,-38.21"/>
</g>
<!-- theory&#45;&gt;gravAccelValue -->
<g id="edge40" class="edge">
<title>theory:landingposition&#45;&gt;gravAccelValue</title>
<path fill="none" stroke="black" d="M1783.61,-87.89C1913.93,-84.81 2228.37,-73.82 2491.97,-37.47"/>
<polygon fill="black" stroke="black" points="2492.69,-40.9 2502.11,-36.05 2491.72,-33.97 2492.69,-40.9"/>
</g>
<!-- calcValues -->
<g id="node22" class="node">
<title>calcValues</title>
<polygon fill="ivory" stroke="black" points="1780.5,-180 1664.5,-180 1664.5,-144 1780.5,-144 1780.5,-180"/>
<text text-anchor="middle" x="1722.5" y="-158.3" font-family="Times,serif" font-size="14.00">FR:calcValues</text>
</g>
<!-- calcValues&#45;&gt;theory -->
<g id="edge48" class="edge">
<title>calcValues&#45;&gt;theory:flightduration</title>
<path fill="none" stroke="black" d="M1704.75,-143.7C1702.37,-135.98 1701.69,-126.71 1702.71,-118.11"/>
<polygon fill="black" stroke="black" points="1706.19,-118.61 1704.81,-108.1 1699.34,-117.17 1706.19,-118.61"/>
</g>
<!-- calcValues&#45;&gt;theory -->
<g id="edge49" class="edge">
<title>calcValues&#45;&gt;theory:landingposition</title>
<path fill="none" stroke="black" d="M1716.58,-143.7C1715.79,-135.98 1715.56,-126.71 1715.9,-118.11"/>
<polygon fill="black" stroke="black" points="1719.4,-118.32 1716.6,-108.1 1712.42,-117.84 1719.4,-118.32"/>
</g>
<!-- calcValues&#45;&gt;theory -->
<g id="edge50" class="edge">
<title>calcValues&#45;&gt;theory:offset</title>
<path fill="none" stroke="black" d="M1728.42,-143.7C1729.21,-135.98 1729.44,-126.71 1729.1,-118.11"/>
<polygon fill="black" stroke="black" points="1732.58,-117.84 1728.4,-108.1 1725.6,-118.32 1732.58,-117.84"/>
</g>
<!-- calcValues&#45;&gt;theory -->
<g id="edge51" class="edge">
<title>calcValues&#45;&gt;theory:message</title>
<path fill="none" stroke="black" d="M1740.25,-143.7C1742.63,-135.98 1743.31,-126.71 1742.29,-118.11"/>
<polygon fill="black" stroke="black" points="1745.66,-117.17 1740.19,-108.1 1738.81,-118.61 1745.66,-117.17"/>
</g>
<!-- outputValues -->
<g id="node23" class="node">
<title>outputValues</title>
<polygon fill="ivory" stroke="black" points="1934,-180 1799,-180 1799,-144 1934,-144 1934,-180"/>
<text text-anchor="middle" x="1866.5" y="-158.3" font-family="Times,serif" font-size="14.00">FR:outputValues</text>
</g>
<!-- outputValues&#45;&gt;theory -->
<g id="edge52" class="edge">
<title>outputValues&#45;&gt;theory:flightduration</title>
<path fill="none" stroke="black" d="M1819.48,-143.88C1798.35,-134.55 1774.14,-122.92 1755,-112.94"/>
<polygon fill="black" stroke="black" points="1756.53,-109.79 1746.05,-108.19 1753.25,-115.97 1756.53,-109.79"/>
</g>
<!-- outputValues&#45;&gt;theory -->
<g id="edge53" class="edge">
<title>outputValues&#45;&gt;theory:offset</title>
<path fill="none" stroke="black" d="M1831.27,-143.88C1811.92,-134.47 1787.73,-122.71 1767.07,-112.67"/>
<polygon fill="black" stroke="black" points="1768.39,-109.41 1757.86,-108.19 1765.33,-115.71 1768.39,-109.41"/>
</g>
<!-- outputValues&#45;&gt;theory -->
<g id="edge54" class="edge">
<title>outputValues&#45;&gt;theory:message</title>
<path fill="none" stroke="black" d="M1843.07,-143.88C1825.46,-134.35 1801.14,-122.41 1778.82,-112.28"/>
<polygon fill="black" stroke="black" points="1779.95,-108.96 1769.39,-108.07 1777.09,-115.35 1779.95,-108.96"/>
</g>
<!-- inputValues -->
<g id="node24" class="node">
<title>inputValues</title>
<polygon fill="ivory" stroke="black" points="2077,-180 1952,-180 1952,-144 2077,-144 2077,-180"/>
<text text-anchor="middle" x="2014.5" y="-158.3" font-family="Times,serif" font-size="14.00">FR:inputValues</text>
</g>
<!-- verifyInVals -->
<g id="node25" class="node">
<title>verifyInVals</title>
<polygon fill="ivory" stroke="black" points="2221.5,-180 2095.5,-180 2095.5,-144 2221.5,-144 2221.5,-180"/>
<text text-anchor="middle" x="2158.5" y="-158.3" font-family="Times,serif" font-size="14.00">FR:verifyInVals</text>
</g>
<!-- correct -->
<g id="node26" class="node">
<title>correct</title>
<polygon fill="ivory" stroke="black" points="2343.5,-180 2239.5,-180 2239.5,-144 2343.5,-144 2343.5,-180"/>
<text text-anchor="middle" x="2291.5" y="-158.3" font-family="Times,serif" font-size="14.00">NFR:correct</text>
</g>
<!-- verifiable -->
<g id="node27" class="node">
<title>verifiable</title>
<polygon fill="ivory" stroke="black" points="2481.5,-180 2361.5,-180 2361.5,-144 2481.5,-144 2481.5,-180"/>
<text text-anchor="middle" x="2421.5" y="-158.3" font-family="Times,serif" font-size="14.00">NFR:verifiable</text>
</g>
<!-- understandable -->
<g id="node28" class="node">
<title>understandable</title>
<polygon fill="ivory" stroke="black" points="2665,-180 2500,-180 2500,-144 2665,-144 2665,-180"/>
<text text-anchor="middle" x="2582.5" y="-158.3" font-family="Times,serif" font-size="14.00">NFR:understandable</text>
</g>
<!-- reusable -->
<g id="node29" class="node">
<title>reusable</title>
<polygon fill="ivory" stroke="black" points="2798,-180 2683,-180 2683,-144 2798,-144 2798,-180"/>
<text text-anchor="middle" x="2740.5" y="-158.3" font-family="Times,serif" font-size="14.00">NFR:reusable</text>
</g>
<!-- maintainable -->
<g id="node30" class="node">
<title>maintainable</title>
<polygon fill="ivory" stroke="black" points="2962.5,-180 2816.5,-180 2816.5,-144 2962.5,-144 2962.5,-180"/>
<text text-anchor="middle" x="2889.5" y="-158.3" font-family="Times,serif" font-size="14.00">NFR:maintainable</text>
</g>
<!-- portable -->
<g id="node31" class="node">
<title>portable</title>
<polygon fill="ivory" stroke="black" points="3094,-180 2981,-180 2981,-144 3094,-144 3094,-180"/>
<text text-anchor="middle" x="3037.5" y="-158.3" font-family="Times,serif" font-size="14.00">NFR:portable</text>
</g>
<!-- targetHit -->
<g id="node32" class="node">
<title>targetHit</title>
<polygon fill="#ffb90f" stroke="black" points="3221,-180 3112,-180 3112,-144 3221,-144 3221,-180"/>
<text text-anchor="middle" x="3166.5" y="-158.3" font-family="Times,serif" font-size="14.00">GS:targetHit</text>
</g>
</g>
</svg>
