<?xml version="1.0" encoding="UTF-8" standalone="no"?>
<!DOCTYPE svg PUBLIC "-//W3C//DTD SVG 1.1//EN"
 "http://www.w3.org/Graphics/SVG/1.1/DTD/svg11.dtd">
<!-- Generated by graphviz version 2.43.0 (0)
 -->
<!-- Title: allvsall Pages: 1 -->
<svg width="465pt" height="201pt"
 viewBox="0.00 0.00 465.23 200.84" xmlns="http://www.w3.org/2000/svg" xmlns:xlink="http://www.w3.org/1999/xlink">
<g id="graph0" class="graph" transform="scale(1 1) rotate(0) translate(4 196.84)">
<title>allvsall</title>
<polygon fill="white" stroke="transparent" points="-4,4 -4,-196.84 461.23,-196.84 461.23,4 -4,4"/>
<!-- instance -->
<g id="node1" class="node">
<title>instance</title>
<polygon fill="#ffb90f" stroke="black" points="270.73,-180 161.73,-180 161.73,-144 270.73,-144 270.73,-180"/>
<text text-anchor="middle" x="216.23" y="-158.3" font-family="Times,serif" font-size="14.00">GS:targetHit</text>
</g>
<!-- instance&#45;&gt;instance -->
<g id="edge1" class="edge">
<title>instance:cartSyst&#45;&gt;instance:neglectCurv</title>
<path fill="none" stroke="black" d="M270.93,-159.75C281.36,-161.57 288.73,-165.14 288.73,-171 288.73,-179.44 284.94,-183.13 280.64,-183.68"/>
<polygon fill="black" stroke="black" points="281.82,-180.38 271.23,-180 279.27,-186.9 281.82,-180.38"/>
</g>
<!-- instance&#45;&gt;instance -->
<g id="edge2" class="edge">
<title>instance:targetXAxis&#45;&gt;instance:neglectCurv</title>
<path fill="none" stroke="black" d="M271.02,-154.03C290.69,-154.93 306.73,-160.17 306.73,-171 306.73,-187.73 291.49,-191.13 279.48,-185.75"/>
<polygon fill="black" stroke="black" points="281.44,-182.85 271.23,-180 277.43,-188.59 281.44,-182.85"/>
</g>
<!-- instance&#45;&gt;instance -->
<g id="edge3" class="edge">
<title>instance:constAccel&#45;&gt;instance:accelXZero</title>
<path fill="none" stroke="black" d="M270.93,-165.21C281.36,-164.83 288.73,-163.76 288.73,-162 288.73,-160.9 285.85,-160.07 281.15,-159.51"/>
<polygon fill="black" stroke="black" points="281.15,-156 270.93,-158.79 280.66,-162.98 281.15,-156"/>
</g>
<!-- instance&#45;&gt;instance -->
<g id="edge4" class="edge">
<title>instance:constAccel&#45;&gt;instance:accelYGravity</title>
<path fill="none" stroke="black" d="M271.02,-168.74C290.69,-168.89 306.73,-166.64 306.73,-162 306.73,-158.19 295.94,-156 281.2,-155.41"/>
<polygon fill="black" stroke="black" points="281.07,-151.91 271.02,-155.26 280.96,-158.91 281.07,-151.91"/>
</g>
<!-- instance&#45;&gt;instance -->
<g id="edge5" class="edge">
<title>instance:constAccel&#45;&gt;instance:neglectDrag</title>
<path fill="none" stroke="black" d="M270.94,-149.58C299.23,-148.46 324.73,-154.97 324.73,-171 324.73,-194.31 297.9,-197.5 279.31,-186.35"/>
<polygon fill="black" stroke="black" points="281.26,-183.43 271.23,-180 276.93,-188.93 281.26,-183.43"/>
</g>
<!-- instance&#45;&gt;instance -->
<g id="edge6" class="edge">
<title>instance:constAccel&#45;&gt;instance:freeFlight</title>
<path fill="none" stroke="black" d="M270.94,-171.77C299.23,-173.27 324.73,-170.02 324.73,-162 324.73,-154.96 305.03,-151.59 281.06,-151.89"/>
<polygon fill="black" stroke="black" points="280.82,-148.4 270.94,-152.23 281.05,-155.4 280.82,-148.4"/>
</g>
<!-- instance&#45;&gt;instance -->
<g id="edge7" class="edge">
<title>instance:accelYGravity&#45;&gt;instance:yAxisGravity</title>
<path fill="none" stroke="black" d="M270.84,-174.31C307.27,-177.78 342.73,-173.67 342.73,-162 342.73,-151.42 313.61,-147.06 281.04,-148.91"/>
<polygon fill="black" stroke="black" points="280.55,-145.44 270.84,-149.69 281.08,-152.42 280.55,-145.44"/>
</g>
<!-- theory -->
<g id="node3" class="node">
<title>theory</title>
<polygon fill="#fff68f" stroke="black" points="277.23,-108 155.23,-108 155.23,-72 277.23,-72 277.23,-108"/>
<text text-anchor="middle" x="216.23" y="-86.3" font-family="Times,serif" font-size="14.00">IM:messageIM</text>
</g>
<!-- instance&#45;&gt;theory -->
<g id="edge48" class="edge">
<title>instance:calcValues&#45;&gt;theory:flightduration</title>
<path fill="none" stroke="black" d="M161.57,-160.08C-47.87,-152.62 -53.4,-102.33 145,-92.62"/>
<polygon fill="black" stroke="black" points="145.39,-96.11 155.22,-92.17 145.07,-89.12 145.39,-96.11"/>
</g>
<!-- instance&#45;&gt;theory -->
<g id="edge49" class="edge">
<title>instance:calcValues&#45;&gt;theory:landingposition</title>
<path fill="none" stroke="black" d="M270.9,-158.94C390.2,-149.18 395.74,-107.44 287.51,-94.7"/>
<polygon fill="black" stroke="black" points="287.71,-91.21 277.4,-93.63 286.98,-98.17 287.71,-91.21"/>
</g>
<!-- instance&#45;&gt;theory -->
<g id="edge50" class="edge">
<title>instance:calcValues&#45;&gt;theory:offset</title>
<path fill="none" stroke="black" d="M270.77,-159.3C408.25,-150.1 413.82,-106.07 287.49,-94.04"/>
<polygon fill="black" stroke="black" points="287.61,-90.54 277.35,-93.17 287.01,-97.52 287.61,-90.54"/>
</g>
<!-- instance&#45;&gt;theory -->
<g id="edge51" class="edge">
<title>instance:calcValues&#45;&gt;theory:outputMessage</title>
<path fill="none" stroke="black" d="M270.81,-159.57C426.23,-150.86 431.83,-104.95 287.62,-93.56"/>
<polygon fill="black" stroke="black" points="287.67,-90.05 277.44,-92.83 287.17,-97.04 287.67,-90.05"/>
</g>
<!-- instance&#45;&gt;theory -->
<g id="edge52" class="edge">
<title>instance:outputValues&#45;&gt;theory:flightduration</title>
<path fill="none" stroke="black" d="M270.99,-159.77C444.23,-151.5 449.79,-103.98 287.7,-93.18"/>
<polygon fill="black" stroke="black" points="287.49,-89.66 277.3,-92.55 287.07,-96.65 287.49,-89.66"/>
</g>
<!-- instance&#45;&gt;theory -->
<g id="edge53" class="edge">
<title>instance:outputValues&#45;&gt;theory:offset</title>
<path fill="none" stroke="black" d="M270.88,-159.94C462.27,-152.11 467.85,-103.11 287.62,-92.87"/>
<polygon fill="black" stroke="black" points="287.65,-89.37 277.48,-92.35 287.28,-96.36 287.65,-89.37"/>
</g>
<!-- instance&#45;&gt;theory -->
<g id="edge54" class="edge">
<title>instance:outputValues&#45;&gt;theory:outputMessage</title>
<path fill="none" stroke="black" d="M270.89,-160.08C480.34,-152.62 485.86,-102.33 287.47,-92.62"/>
<polygon fill="black" stroke="black" points="287.39,-89.12 277.25,-92.17 287.08,-96.11 287.39,-89.12"/>
</g>
<!-- dataDefn -->
<g id="node2" class="node">
<title>dataDefn</title>
<polygon fill="#bbffff" stroke="black" points="266.23,-36 166.23,-36 166.23,0 266.23,0 266.23,-36"/>
<text text-anchor="middle" x="216.23" y="-14.3" font-family="Times,serif" font-size="14.00">DD:speedIY</text>
</g>
<!-- dataDefn&#45;&gt;dataDefn -->
<g id="edge8" class="edge">
<title>dataDefn:ixVel&#45;&gt;dataDefn:speed</title>
<path fill="none" stroke="black" d="M266.35,-24.51C276.75,-23.83 284.23,-21.66 284.23,-18 284.23,-15.71 281.31,-14.01 276.58,-12.89"/>
<polygon fill="black" stroke="black" points="276.73,-9.37 266.35,-11.49 275.78,-16.31 276.73,-9.37"/>
</g>
<!-- dataDefn&#45;&gt;dataDefn -->
<g id="edge9" class="edge">
<title>dataDefn:iyVel&#45;&gt;dataDefn:speed</title>
<path fill="none" stroke="black" d="M266.58,-31.45C286.05,-32.04 302.23,-27.56 302.23,-18 302.23,-10.16 291.34,-5.73 276.69,-4.72"/>
<polygon fill="black" stroke="black" points="276.64,-1.22 266.58,-4.55 276.52,-8.22 276.64,-1.22"/>
</g>
<!-- theory&#45;&gt;instance -->
<g id="edge10" class="edge">
<title>theory:projSpeed&#45;&gt;instance:pointMass</title>
<path fill="none" stroke="black" d="M154.99,-92.35C-32.18,-101.13 -33.34,-150.19 151.49,-159.48"/>
<polygon fill="black" stroke="black" points="151.44,-162.98 161.59,-159.94 151.76,-155.99 151.44,-162.98"/>
</g>
<!-- theory&#45;&gt;instance -->
<g id="edge11" class="edge">
<title>theory:projSpeed&#45;&gt;instance:timeStartZero</title>
<path fill="none" stroke="black" d="M155.17,-92.55C-14.12,-101.79 -15.4,-149.41 151.31,-159.23"/>
<polygon fill="black" stroke="black" points="151.3,-162.73 161.47,-159.77 151.67,-155.74 151.3,-162.73"/>
</g>
<!-- theory&#45;&gt;instance -->
<g id="edge13" class="edge">
<title>theory:projPos&#45;&gt;instance:pointMass</title>
<path fill="none" stroke="black" d="M155.02,-92.83C3.78,-102.61 2.65,-148.62 151.63,-158.94"/>
<polygon fill="black" stroke="black" points="151.46,-162.44 161.66,-159.57 151.9,-155.45 151.46,-162.44"/>
</g>
<!-- theory&#45;&gt;instance -->
<g id="edge14" class="edge">
<title>theory:projPos&#45;&gt;instance:timeStartZero</title>
<path fill="none" stroke="black" d="M155.12,-93.17C21.78,-103.5 20.62,-147.63 151.61,-158.55"/>
<polygon fill="black" stroke="black" points="151.46,-162.05 161.69,-159.3 151.98,-155.07 151.46,-162.05"/>
</g>
<!-- theory&#45;&gt;instance -->
<g id="edge17" class="edge">
<title>theory:velocity&#45;&gt;instance:twoDMotion</title>
<path fill="none" stroke="black" d="M155.06,-93.63C39.85,-104.57 38.64,-146.42 151.42,-158.01"/>
<polygon fill="black" stroke="black" points="151.29,-161.51 161.57,-158.94 151.93,-154.54 151.29,-161.51"/>
</g>
<!-- theory&#45;&gt;instance -->
<g id="edge18" class="edge">
<title>theory:velocity&#45;&gt;instance:cartSyst</title>
<path fill="none" stroke="black" d="M154.91,-94.27C57.83,-105.88 56.69,-145.05 151.48,-157.3"/>
<polygon fill="black" stroke="black" points="151.25,-160.8 161.58,-158.47 152.05,-153.84 151.25,-160.8"/>
</g>
<!-- theory&#45;&gt;instance -->
<g id="edge19" class="edge">
<title>theory:velocity&#45;&gt;instance:constAccel</title>
<path fill="none" stroke="black" d="M154.94,-95.15C75.87,-107.39 74.68,-143.33 151.39,-156.28"/>
<polygon fill="black" stroke="black" points="151.25,-159.8 161.66,-157.81 152.29,-152.87 151.25,-159.8"/>
</g>
<!-- theory&#45;&gt;instance -->
<g id="edge20" class="edge">
<title>theory:velocity&#45;&gt;instance:timeStartZero</title>
<path fill="none" stroke="black" d="M154.9,-96.46C93.78,-109.29 92.7,-141.31 151.65,-154.83"/>
<polygon fill="black" stroke="black" points="151.13,-158.29 161.63,-156.83 152.51,-151.43 151.13,-158.29"/>
</g>
<!-- theory&#45;&gt;instance -->
<g id="edge22" class="edge">
<title>theory:position&#45;&gt;instance:twoDMotion</title>
<path fill="none" stroke="black" d="M155.11,-98.47C111.76,-111.58 110.64,-138.62 151.74,-152.45"/>
<polygon fill="black" stroke="black" points="150.89,-155.85 161.47,-155.27 152.84,-149.13 150.89,-155.85"/>
</g>
<!-- theory&#45;&gt;instance -->
<g id="edge23" class="edge">
<title>theory:position&#45;&gt;instance:cartSyst</title>
<path fill="none" stroke="black" d="M154.75,-102.3C129.59,-114.91 128.76,-135.26 152.25,-148.38"/>
<polygon fill="black" stroke="black" points="151.03,-151.67 161.58,-152.7 153.97,-145.32 151.03,-151.67"/>
</g>
<!-- theory&#45;&gt;instance -->
<g id="edge24" class="edge">
<title>theory:position&#45;&gt;instance:constAccel</title>
<path fill="none" stroke="black" d="M157.2,-108.18C147.05,-117.93 146.02,-130.2 154.13,-140.45"/>
<polygon fill="black" stroke="black" points="151.96,-143.22 161.65,-147.5 156.75,-138.11 151.96,-143.22"/>
</g>
<!-- theory&#45;&gt;instance -->
<g id="edge25" class="edge">
<title>theory:position&#45;&gt;instance:timeStartZero</title>
<path fill="none" stroke="black" d="M169.07,-108.1C162.35,-116.13 160.58,-125.87 163.78,-134.8"/>
<polygon fill="black" stroke="black" points="160.88,-136.78 168.91,-143.7 166.95,-133.28 160.88,-136.78"/>
</g>
<!-- theory&#45;&gt;instance -->
<g id="edge27" class="edge">
<title>theory:flightduration&#45;&gt;instance:yAxisGravity</title>
<path fill="none" stroke="black" d="M180.86,-108.1C175.92,-115.96 174.55,-125.46 176.75,-134.23"/>
<polygon fill="black" stroke="black" points="173.63,-135.84 180.74,-143.7 180.08,-133.12 173.63,-135.84"/>
</g>
<!-- theory&#45;&gt;instance -->
<g id="edge28" class="edge">
<title>theory:flightduration&#45;&gt;instance:launchOrigin</title>
<path fill="none" stroke="black" d="M192.65,-108.1C189.4,-115.88 188.47,-125.26 189.86,-133.95"/>
<polygon fill="black" stroke="black" points="186.52,-135 192.57,-143.7 193.27,-133.12 186.52,-135"/>
</g>
<!-- theory&#45;&gt;instance -->
<g id="edge29" class="edge">
<title>theory:flightduration&#45;&gt;instance:targetXAxis</title>
<path fill="none" stroke="black" d="M204.44,-108.1C202.83,-115.79 202.36,-125.05 203.03,-133.67"/>
<polygon fill="black" stroke="black" points="199.57,-134.27 204.4,-143.7 206.51,-133.31 199.57,-134.27"/>
</g>
<!-- theory&#45;&gt;instance -->
<g id="edge30" class="edge">
<title>theory:flightduration&#45;&gt;instance:posXDirection</title>
<path fill="none" stroke="black" d="M216.23,-108.1C216.23,-115.79 216.23,-125.05 216.23,-133.67"/>
<polygon fill="black" stroke="black" points="212.73,-133.7 216.23,-143.7 219.73,-133.7 212.73,-133.7"/>
</g>
<!-- theory&#45;&gt;instance -->
<g id="edge31" class="edge">
<title>theory:flightduration&#45;&gt;instance:accelYGravity</title>
<path fill="none" stroke="black" d="M228.02,-108.1C229.63,-115.79 230.11,-125.05 229.44,-133.67"/>
<polygon fill="black" stroke="black" points="225.96,-133.31 228.06,-143.7 232.89,-134.27 225.96,-133.31"/>
</g>
<!-- theory&#45;&gt;instance -->
<g id="edge32" class="edge">
<title>theory:flightduration&#45;&gt;instance:timeStartZero</title>
<path fill="none" stroke="black" d="M239.81,-108.1C243.07,-115.88 244,-125.26 242.6,-133.95"/>
<polygon fill="black" stroke="black" points="239.2,-133.12 239.9,-143.7 245.95,-135 239.2,-133.12"/>
</g>
<!-- theory&#45;&gt;instance -->
<g id="edge33" class="edge">
<title>theory:flightduration&#45;&gt;instance:gravAccelValue</title>
<path fill="none" stroke="black" d="M251.6,-108.1C256.54,-115.96 257.91,-125.46 255.72,-134.23"/>
<polygon fill="black" stroke="black" points="252.39,-133.12 251.73,-143.7 258.84,-135.84 252.39,-133.12"/>
</g>
<!-- theory&#45;&gt;instance -->
<g id="edge36" class="edge">
<title>theory:landingposition&#45;&gt;instance:yAxisGravity</title>
<path fill="none" stroke="black" d="M263.39,-108.1C270.12,-116.13 271.89,-125.87 268.69,-134.8"/>
<polygon fill="black" stroke="black" points="265.52,-133.28 263.56,-143.7 271.58,-136.78 265.52,-133.28"/>
</g>
<!-- theory&#45;&gt;instance -->
<g id="edge37" class="edge">
<title>theory:landingposition&#45;&gt;instance:launchOrigin</title>
<path fill="none" stroke="black" d="M275.26,-108.18C285.42,-117.93 286.44,-130.2 278.33,-140.45"/>
<polygon fill="black" stroke="black" points="275.71,-138.11 270.81,-147.5 280.5,-143.22 275.71,-138.11"/>
</g>
<!-- theory&#45;&gt;instance -->
<g id="edge38" class="edge">
<title>theory:landingposition&#45;&gt;instance:posXDirection</title>
<path fill="none" stroke="black" d="M277.72,-102.3C302.88,-114.91 303.71,-135.26 280.21,-148.38"/>
<polygon fill="black" stroke="black" points="278.49,-145.32 270.89,-152.7 281.43,-151.67 278.49,-145.32"/>
</g>
<!-- theory&#45;&gt;instance -->
<g id="edge39" class="edge">
<title>theory:landingposition&#45;&gt;instance:accelXZero</title>
<path fill="none" stroke="black" d="M277.35,-98.47C320.7,-111.58 321.83,-138.62 280.73,-152.45"/>
<polygon fill="black" stroke="black" points="279.63,-149.13 271,-155.27 281.58,-155.85 279.63,-149.13"/>
</g>
<!-- theory&#45;&gt;instance -->
<g id="edge40" class="edge">
<title>theory:landingposition&#45;&gt;instance:gravAccelValue</title>
<path fill="none" stroke="black" d="M277.56,-96.46C338.69,-109.29 339.77,-141.31 280.82,-154.83"/>
<polygon fill="black" stroke="black" points="279.95,-151.43 270.84,-156.83 281.33,-158.29 279.95,-151.43"/>
</g>
<!-- theory&#45;&gt;instance -->
<g id="edge44" class="edge">
<title>theory:offset&#45;&gt;instance:posXDirection</title>
<path fill="none" stroke="black" d="M277.52,-95.15C356.6,-107.39 357.79,-143.33 281.08,-156.28"/>
<polygon fill="black" stroke="black" points="280.18,-152.87 270.81,-157.81 281.21,-159.8 280.18,-152.87"/>
</g>
<!-- theory&#45;&gt;instance -->
<g id="edge46" class="edge">
<title>theory:outputMessage&#45;&gt;instance:posXDirection</title>
<path fill="none" stroke="black" d="M277.55,-94.27C374.63,-105.88 375.78,-145.05 280.99,-157.3"/>
<polygon fill="black" stroke="black" points="280.42,-153.84 270.88,-158.47 281.22,-160.8 280.42,-153.84"/>
</g>
<!-- theory&#45;&gt;dataDefn -->
<g id="edge34" class="edge">
<title>theory:flightduration&#45;&gt;dataDefn:iyVel</title>
<path fill="none" stroke="black" d="M210.32,-71.7C209.52,-63.98 209.3,-54.71 209.64,-46.11"/>
<polygon fill="black" stroke="black" points="213.13,-46.32 210.34,-36.1 206.15,-45.84 213.13,-46.32"/>
</g>
<!-- theory&#45;&gt;dataDefn -->
<g id="edge41" class="edge">
<title>theory:landingposition&#45;&gt;dataDefn:ixVel</title>
<path fill="none" stroke="black" d="M222.15,-71.7C222.94,-63.98 223.17,-54.71 222.83,-46.11"/>
<polygon fill="black" stroke="black" points="226.32,-45.84 222.13,-36.1 219.33,-46.32 226.32,-45.84"/>
</g>
<!-- theory&#45;&gt;theory -->
<g id="edge12" class="edge">
<title>theory:projSpeed&#45;&gt;theory:accelerationTM</title>
<path fill="none" stroke="black" d="M277.51,-91.4C287.98,-91.21 295.23,-90.74 295.23,-90 295.23,-89.54 292.4,-89.18 287.72,-88.93"/>
<polygon fill="black" stroke="black" points="287.62,-85.43 277.51,-88.6 287.39,-92.42 287.62,-85.43"/>
</g>
<!-- theory&#45;&gt;theory -->
<g id="edge15" class="edge">
<title>theory:projPos&#45;&gt;theory:velocityTM</title>
<path fill="none" stroke="black" d="M277.33,-93C297.32,-92.98 313.23,-91.98 313.23,-90 313.23,-88.37 302.52,-87.41 287.64,-87.1"/>
<polygon fill="black" stroke="black" points="287.37,-83.6 277.33,-87 287.3,-90.6 287.37,-83.6"/>
</g>
<!-- theory&#45;&gt;theory -->
<g id="edge16" class="edge">
<title>theory:projPos&#45;&gt;theory:projSpeed</title>
<path fill="none" stroke="black" d="M277.46,-94.41C306.13,-94.9 331.23,-93.43 331.23,-90 331.23,-86.98 311.84,-85.48 287.68,-85.5"/>
<polygon fill="black" stroke="black" points="287.43,-82 277.46,-85.59 287.49,-89 287.43,-82"/>
</g>
<!-- theory&#45;&gt;theory -->
<g id="edge21" class="edge">
<title>theory:velocity&#45;&gt;theory:projSpeed</title>
<path fill="none" stroke="black" d="M277.45,-95.61C314.38,-96.89 349.23,-95.02 349.23,-90 349.23,-85.45 320.61,-83.49 287.76,-84.11"/>
<polygon fill="black" stroke="black" points="287.36,-80.62 277.45,-84.39 287.54,-87.62 287.36,-80.62"/>
</g>
<!-- theory&#45;&gt;theory -->
<g id="edge26" class="edge">
<title>theory:position&#45;&gt;theory:projPos</title>
<path fill="none" stroke="black" d="M277.49,-96.65C322.32,-98.9 367.23,-96.68 367.23,-90 367.23,-83.83 328.9,-81.47 287.71,-82.91"/>
<polygon fill="black" stroke="black" points="287.33,-79.42 277.49,-83.35 287.63,-86.42 287.33,-79.42"/>
</g>
<!-- theory&#45;&gt;theory -->
<g id="edge35" class="edge">
<title>theory:flightduration&#45;&gt;theory:position</title>
<path fill="none" stroke="black" d="M277.32,-97.54C329.84,-100.93 385.23,-98.41 385.23,-90 385.23,-82.13 336.75,-79.42 287.49,-81.88"/>
<polygon fill="black" stroke="black" points="287.1,-78.39 277.32,-82.46 287.5,-85.38 287.1,-78.39"/>
</g>
<!-- theory&#45;&gt;theory -->
<g id="edge42" class="edge">
<title>theory:landingposition&#45;&gt;theory:position</title>
<path fill="none" stroke="black" d="M277.52,-98.34C337.42,-102.95 403.23,-100.17 403.23,-90 403.23,-80.4 344.67,-77.39 287.75,-80.94"/>
<polygon fill="black" stroke="black" points="287.26,-77.47 277.52,-81.66 287.74,-84.45 287.26,-77.47"/>
</g>
<!-- theory&#45;&gt;theory -->
<g id="edge43" class="edge">
<title>theory:landingposition&#45;&gt;theory:flightduration</title>
<path fill="none" stroke="black" d="M277.36,-99.02C344.56,-104.99 421.23,-101.98 421.23,-90 421.23,-78.62 352.15,-75.34 287.66,-80.14"/>
<polygon fill="black" stroke="black" points="287.04,-76.68 277.36,-80.98 287.61,-83.65 287.04,-76.68"/>
</g>
<!-- theory&#45;&gt;theory -->
<g id="edge45" class="edge">
<title>theory:offset&#45;&gt;theory:landingposition</title>
<path fill="none" stroke="black" d="M277.31,-99.63C351.64,-107.03 439.23,-103.82 439.23,-90 439.23,-76.8 359.33,-73.28 287.4,-79.43"/>
<polygon fill="black" stroke="black" points="286.95,-75.96 277.31,-80.37 287.59,-82.93 286.95,-75.96"/>
</g>
<!-- theory&#45;&gt;theory -->
<g id="edge47" class="edge">
<title>theory:outputMessage&#45;&gt;theory:offset</title>
<path fill="none" stroke="black" d="M277.35,-100.19C358.68,-109.06 457.23,-105.66 457.23,-90 457.23,-74.98 366.6,-71.24 287.44,-78.78"/>
<polygon fill="black" stroke="black" points="286.95,-75.31 277.35,-79.81 287.66,-82.28 286.95,-75.31"/>
</g>
</g>
</svg>
