<?xml version="1.0" encoding="UTF-8" standalone="no"?>
<!DOCTYPE svg PUBLIC "-//W3C//DTD SVG 1.1//EN"
 "http://www.w3.org/Graphics/SVG/1.1/DTD/svg11.dtd">
<!-- Generated by graphviz version 2.43.0 (0)
 -->
<!-- Title: avsa Pages: 1 -->
<svg width="274pt" height="44pt"
 viewBox="0.00 0.00 274.00 44.00" xmlns="http://www.w3.org/2000/svg" xmlns:xlink="http://www.w3.org/1999/xlink">
<g id="graph0" class="graph" transform="scale(1 1) rotate(0) translate(4 40)">
<title>avsa</title>
<polygon fill="white" stroke="transparent" points="-4,4 -4,-40 270,-40 270,4 -4,4"/>
<!-- instance -->
<g id="node1" class="node">
<title>instance</title>
<polygon fill="mistyrose" stroke="black" points="140,-36 0,-36 0,0 140,0 140,-36"/>
<text text-anchor="middle" x="70" y="-14.3" font-family="Times,serif" font-size="14.00">A:gravAccelValue</text>
</g>
<!-- instance&#45;&gt;instance -->
<g id="edge1" class="edge">
<title>instance:cartSyst&#45;&gt;instance:neglectCurv</title>
<path fill="none" stroke="black" d="M140.32,-24.89C185.96,-26.72 230,-24.43 230,-18 230,-8.59 135.47,-8.03 79.89,-16.35"/>
<polygon fill="black" stroke="black" points="79.29,-12.9 70,-18 80.44,-19.8 79.29,-12.9"/>
</g>
<!-- instance&#45;&gt;instance -->
<g id="edge2" class="edge">
<title>instance:targetXAxis&#45;&gt;instance:neglectCurv</title>
<path fill="none" stroke="black" d="M140.36,-25.89C193.81,-28.74 248,-26.11 248,-18 248,-6.63 141.52,-6.03 79.86,-16.2"/>
<polygon fill="black" stroke="black" points="79.21,-12.76 70,-18 80.47,-19.65 79.21,-12.76"/>
</g>
<!-- instance&#45;&gt;instance -->
<g id="edge3" class="edge">
<title>instance:constAccel&#45;&gt;instance:accelXZero</title>
<path fill="none" stroke="black" d="M140.07,-19.37C150.75,-19.16 158,-18.7 158,-18 158,-17.55 155.02,-17.2 150.08,-16.95"/>
<polygon fill="black" stroke="black" points="150.18,-13.45 140.07,-16.63 149.95,-20.45 150.18,-13.45"/>
</g>
<!-- instance&#45;&gt;instance -->
<g id="edge4" class="edge">
<title>instance:constAccel&#45;&gt;instance:accelYGravity</title>
<path fill="none" stroke="black" d="M140.08,-20.99C160.34,-20.88 176,-19.88 176,-18 176,-16.46 165.46,-15.51 150.49,-15.16"/>
<polygon fill="black" stroke="black" points="150.13,-11.65 140.08,-15.01 150.03,-18.65 150.13,-11.65"/>
</g>
<!-- instance&#45;&gt;instance -->
<g id="edge5" class="edge">
<title>instance:constAccel&#45;&gt;instance:neglectDrag</title>
<path fill="none" stroke="black" d="M140.08,-26.75C201.22,-30.77 266,-27.86 266,-18 266,-4.68 147.78,-4.03 80.01,-16.05"/>
<polygon fill="black" stroke="black" points="79.15,-12.65 70,-18 80.48,-19.52 79.15,-12.65"/>
</g>
<!-- instance&#45;&gt;instance -->
<g id="edge6" class="edge">
<title>instance:constAccel&#45;&gt;instance:freeFlight</title>
<path fill="none" stroke="black" d="M140.11,-22.46C169.28,-22.77 194,-21.28 194,-18 194,-15.1 174.73,-13.61 150.15,-13.51"/>
<polygon fill="black" stroke="black" points="150.1,-10.01 140.11,-13.54 150.12,-17.01 150.1,-10.01"/>
</g>
<!-- instance&#45;&gt;instance -->
<g id="edge7" class="edge">
<title>instance:accelYGravity&#45;&gt;instance:yAxisGravity</title>
<path fill="none" stroke="black" d="M140.14,-23.75C177.74,-24.73 212,-22.81 212,-18 212,-13.62 183.62,-11.64 150.17,-12.05"/>
<polygon fill="black" stroke="black" points="150.07,-8.56 140.14,-12.25 150.2,-15.55 150.07,-8.56"/>
</g>
</g>
</svg>
