<?xml version="1.0" encoding="UTF-8" standalone="no"?>
<!DOCTYPE svg PUBLIC "-//W3C//DTD SVG 1.1//EN"
 "http://www.w3.org/Graphics/SVG/1.1/DTD/svg11.dtd">
<!-- Generated by graphviz version 2.43.0 (0)
 -->
<!-- Title: avsa Pages: 1 -->
<svg width="2028pt" height="80pt"
 viewBox="0.00 0.00 2027.50 79.57" xmlns="http://www.w3.org/2000/svg" xmlns:xlink="http://www.w3.org/1999/xlink">
<g id="graph0" class="graph" transform="scale(1 1) rotate(0) translate(4 75.57)">
<title>avsa</title>
<polygon fill="white" stroke="transparent" points="-4,4 -4,-75.57 2023.5,-75.57 2023.5,4 -4,4"/>
<!-- cartSyst -->
<g id="node1" class="node">
<title>cartSyst</title>
<polygon fill="mistyrose" stroke="black" points="91,-36 0,-36 0,0 91,0 91,-36"/>
<text text-anchor="middle" x="45.5" y="-14.3" font-family="Times,serif" font-size="14.00">A:cartSyst</text>
</g>
<!-- neglectCurv -->
<g id="node2" class="node">
<title>neglectCurv</title>
<polygon fill="mistyrose" stroke="black" points="360.5,-36 242.5,-36 242.5,0 360.5,0 360.5,-36"/>
<text text-anchor="middle" x="301.5" y="-14.3" font-family="Times,serif" font-size="14.00">A:neglectCurv</text>
</g>
<!-- cartSyst&#45;&gt;neglectCurv -->
<g id="edge1" class="edge">
<title>cartSyst&#45;&gt;neglectCurv</title>
<path fill="none" stroke="black" d="M70.66,-36.11C81.96,-43.17 95.81,-50.41 109.5,-54 158.94,-66.95 174.61,-65.09 224.5,-54 237.12,-51.2 250.11,-46.1 261.75,-40.6"/>
<polygon fill="black" stroke="black" points="263.35,-43.72 270.76,-36.14 260.25,-37.44 263.35,-43.72"/>
</g>
<!-- targetXAxis -->
<g id="node3" class="node">
<title>targetXAxis</title>
<polygon fill="mistyrose" stroke="black" points="224,-36 109,-36 109,0 224,0 224,-36"/>
<text text-anchor="middle" x="166.5" y="-14.3" font-family="Times,serif" font-size="14.00">A:targetXAxis</text>
</g>
<!-- targetXAxis&#45;&gt;neglectCurv -->
<g id="edge2" class="edge">
<title>targetXAxis&#45;&gt;neglectCurv</title>
<path fill="none" stroke="black" d="M224.24,-18C226.88,-18 229.53,-18 232.17,-18"/>
<polygon fill="black" stroke="black" points="232.35,-21.5 242.35,-18 232.35,-14.5 232.35,-21.5"/>
</g>
<!-- constAccel -->
<g id="node4" class="node">
<title>constAccel</title>
<polygon fill="mistyrose" stroke="black" points="486,-36 379,-36 379,0 486,0 486,-36"/>
<text text-anchor="middle" x="432.5" y="-14.3" font-family="Times,serif" font-size="14.00">A:constAccel</text>
</g>
<!-- accelXZero -->
<g id="node5" class="node">
<title>accelXZero</title>
<polygon fill="mistyrose" stroke="black" points="1159.5,-36 1049.5,-36 1049.5,0 1159.5,0 1159.5,-36"/>
<text text-anchor="middle" x="1104.5" y="-14.3" font-family="Times,serif" font-size="14.00">A:accelXZero</text>
</g>
<!-- constAccel&#45;&gt;accelXZero -->
<g id="edge3" class="edge">
<title>constAccel&#45;&gt;accelXZero</title>
<path fill="none" stroke="black" d="M461.1,-36.13C473.86,-43.19 489.4,-50.44 504.5,-54 561.49,-67.45 974.47,-67.3 1031.5,-54 1043.31,-51.25 1055.42,-46.29 1066.28,-40.92"/>
<polygon fill="black" stroke="black" points="1068.22,-43.86 1075.47,-36.14 1064.99,-37.65 1068.22,-43.86"/>
</g>
<!-- accelYGravity -->
<g id="node6" class="node">
<title>accelYGravity</title>
<polygon fill="mistyrose" stroke="black" points="891,-36 762,-36 762,0 891,0 891,-36"/>
<text text-anchor="middle" x="826.5" y="-14.3" font-family="Times,serif" font-size="14.00">A:accelYGravity</text>
</g>
<!-- constAccel&#45;&gt;accelYGravity -->
<g id="edge4" class="edge">
<title>constAccel&#45;&gt;accelYGravity</title>
<path fill="none" stroke="black" d="M461.1,-36.13C473.86,-43.19 489.4,-50.44 504.5,-54 608.31,-78.51 640.11,-75.91 744.5,-54 757.96,-51.18 771.91,-46.01 784.4,-40.45"/>
<polygon fill="black" stroke="black" points="786.04,-43.54 793.64,-36.15 783.09,-37.19 786.04,-43.54"/>
</g>
<!-- neglectDrag -->
<g id="node7" class="node">
<title>neglectDrag</title>
<polygon fill="mistyrose" stroke="black" points="744,-36 625,-36 625,0 744,0 744,-36"/>
<text text-anchor="middle" x="684.5" y="-14.3" font-family="Times,serif" font-size="14.00">A:neglectDrag</text>
</g>
<!-- constAccel&#45;&gt;neglectDrag -->
<g id="edge5" class="edge">
<title>constAccel&#45;&gt;neglectDrag</title>
<path fill="none" stroke="black" d="M461.1,-36.13C473.86,-43.19 489.4,-50.44 504.5,-54 548.62,-64.42 562.22,-63.73 606.5,-54 619.26,-51.2 632.42,-46.1 644.21,-40.6"/>
<polygon fill="black" stroke="black" points="645.89,-43.68 653.34,-36.15 642.82,-37.39 645.89,-43.68"/>
</g>
<!-- freeFlight -->
<g id="node8" class="node">
<title>freeFlight</title>
<polygon fill="mistyrose" stroke="black" points="606.5,-36 504.5,-36 504.5,0 606.5,0 606.5,-36"/>
<text text-anchor="middle" x="555.5" y="-14.3" font-family="Times,serif" font-size="14.00">A:freeFlight</text>
</g>
<!-- constAccel&#45;&gt;freeFlight -->
<g id="edge6" class="edge">
<title>constAccel&#45;&gt;freeFlight</title>
<path fill="none" stroke="black" d="M486.31,-18C488.95,-18 491.59,-18 494.23,-18"/>
<polygon fill="black" stroke="black" points="494.42,-21.5 504.42,-18 494.42,-14.5 494.42,-21.5"/>
</g>
<!-- yAxisGravity -->
<g id="node9" class="node">
<title>yAxisGravity</title>
<polygon fill="mistyrose" stroke="black" points="1031.5,-36 909.5,-36 909.5,0 1031.5,0 1031.5,-36"/>
<text text-anchor="middle" x="970.5" y="-14.3" font-family="Times,serif" font-size="14.00">A:yAxisGravity</text>
</g>
<!-- accelYGravity&#45;&gt;yAxisGravity -->
<g id="edge7" class="edge">
<title>accelYGravity&#45;&gt;yAxisGravity</title>
<path fill="none" stroke="black" d="M891.19,-18C893.85,-18 896.52,-18 899.18,-18"/>
<polygon fill="black" stroke="black" points="899.47,-21.5 909.47,-18 899.47,-14.5 899.47,-21.5"/>
</g>
<!-- twoDMotion -->
<g id="node10" class="node">
<title>twoDMotion</title>
<polygon fill="mistyrose" stroke="black" points="1297,-36 1178,-36 1178,0 1297,0 1297,-36"/>
<text text-anchor="middle" x="1237.5" y="-14.3" font-family="Times,serif" font-size="14.00">A:twoDMotion</text>
</g>
<!-- launchOrigin -->
<g id="node11" class="node">
<title>launchOrigin</title>
<polygon fill="mistyrose" stroke="black" points="1438,-36 1315,-36 1315,0 1438,0 1438,-36"/>
<text text-anchor="middle" x="1376.5" y="-14.3" font-family="Times,serif" font-size="14.00">A:launchOrigin</text>
</g>
<!-- posXDirection -->
<g id="node12" class="node">
<title>posXDirection</title>
<polygon fill="mistyrose" stroke="black" points="1587,-36 1456,-36 1456,0 1587,0 1587,-36"/>
<text text-anchor="middle" x="1521.5" y="-14.3" font-family="Times,serif" font-size="14.00">A:posXDirection</text>
</g>
<!-- pointMass -->
<g id="node13" class="node">
<title>pointMass</title>
<polygon fill="mistyrose" stroke="black" points="1710,-36 1605,-36 1605,0 1710,0 1710,-36"/>
<text text-anchor="middle" x="1657.5" y="-14.3" font-family="Times,serif" font-size="14.00">A:pointMass</text>
</g>
<!-- timeStartZero -->
<g id="node14" class="node">
<title>timeStartZero</title>
<polygon fill="mistyrose" stroke="black" points="1861,-36 1728,-36 1728,0 1861,0 1861,-36"/>
<text text-anchor="middle" x="1794.5" y="-14.3" font-family="Times,serif" font-size="14.00">A:timeStartZero</text>
</g>
<!-- gravAccelValue -->
<g id="node15" class="node">
<title>gravAccelValue</title>
<polygon fill="mistyrose" stroke="black" points="2019.5,-36 1879.5,-36 1879.5,0 2019.5,0 2019.5,-36"/>
<text text-anchor="middle" x="1949.5" y="-14.3" font-family="Times,serif" font-size="14.00">A:gravAccelValue</text>
</g>
</g>
</svg>
