<?xml version="1.0" encoding="UTF-8" standalone="no"?>
<!DOCTYPE svg PUBLIC "-//W3C//DTD SVG 1.1//EN"
 "http://www.w3.org/Graphics/SVG/1.1/DTD/svg11.dtd">
<!-- Generated by graphviz version 2.43.0 (0)
 -->
<!-- Title: avsall Pages: 1 -->
<svg width="338pt" height="116pt"
 viewBox="0.00 0.00 338.18 116.00" xmlns="http://www.w3.org/2000/svg" xmlns:xlink="http://www.w3.org/1999/xlink">
<g id="graph0" class="graph" transform="scale(1 1) rotate(0) translate(4 112)">
<title>avsall</title>
<polygon fill="white" stroke="transparent" points="-4,4 -4,-112 334.18,-112 334.18,4 -4,4"/>
<!-- theory -->
<g id="node1" class="node">
<title>theory</title>
<polygon fill="#fff68f" stroke="black" points="212.18,-108 112.18,-108 112.18,-72 212.18,-72 212.18,-108"/>
<text text-anchor="middle" x="162.18" y="-86.3" font-family="Times,serif" font-size="14.00">IM:offsetIM</text>
</g>
<!-- instance -->
<g id="node2" class="node">
<title>instance</title>
<polygon fill="ivory" stroke="black" points="218.68,-36 105.68,-36 105.68,0 218.68,0 218.68,-36"/>
<text text-anchor="middle" x="162.18" y="-14.3" font-family="Times,serif" font-size="14.00">NFR:portable</text>
</g>
<!-- theory&#45;&gt;instance -->
<g id="edge1" class="edge">
<title>theory:projSpeed&#45;&gt;instance:pointMass</title>
<path fill="none" stroke="black" d="M112.06,-87.59C-31.36,-78.94 -36.89,-33.15 95.46,-21.63"/>
<polygon fill="black" stroke="black" points="95.95,-25.1 105.65,-20.83 95.41,-18.12 95.95,-25.1"/>
</g>
<!-- theory&#45;&gt;instance -->
<g id="edge2" class="edge">
<title>theory:projSpeed&#45;&gt;instance:timeStartZero</title>
<path fill="none" stroke="black" d="M111.71,-87.27C-13.21,-78.03 -18.74,-34.5 95.12,-22.23"/>
<polygon fill="black" stroke="black" points="95.76,-25.68 105.38,-21.24 95.09,-18.71 95.76,-25.68"/>
</g>
<!-- theory&#45;&gt;instance -->
<g id="edge3" class="edge">
<title>theory:projPos&#45;&gt;instance:pointMass</title>
<path fill="none" stroke="black" d="M112.07,-86.91C4.68,-77.13 -0.82,-35.94 95.57,-22.94"/>
<polygon fill="black" stroke="black" points="96.03,-26.41 105.54,-21.74 95.19,-19.46 96.03,-26.41"/>
</g>
<!-- theory&#45;&gt;instance -->
<g id="edge4" class="edge">
<title>theory:projPos&#45;&gt;instance:timeStartZero</title>
<path fill="none" stroke="black" d="M111.9,-86.34C22.71,-75.93 17.29,-37.8 95.64,-24.01"/>
<polygon fill="black" stroke="black" points="96.27,-27.46 105.61,-22.46 95.19,-20.54 96.27,-27.46"/>
</g>
<!-- theory&#45;&gt;instance -->
<g id="edge5" class="edge">
<title>theory:velocity&#45;&gt;instance:twoDMotion</title>
<path fill="none" stroke="black" d="M112.12,-85.58C40.75,-74.6 35.31,-40.14 95.82,-25.59"/>
<polygon fill="black" stroke="black" points="96.6,-29 105.66,-23.51 95.15,-22.15 96.6,-29"/>
</g>
<!-- theory&#45;&gt;instance -->
<g id="edge6" class="edge">
<title>theory:velocity&#45;&gt;instance:cartSyst</title>
<path fill="none" stroke="black" d="M112.09,-84.35C59,-72.95 53.51,-43.41 95.63,-28.26"/>
<polygon fill="black" stroke="black" points="96.82,-31.56 105.34,-25.26 94.75,-24.87 96.82,-31.56"/>
</g>
<!-- theory&#45;&gt;instance -->
<g id="edge7" class="edge">
<title>theory:velocity&#45;&gt;instance:constAccel</title>
<path fill="none" stroke="black" d="M112.03,-82.29C76.98,-70.89 71.8,-47.55 96.47,-32.62"/>
<polygon fill="black" stroke="black" points="98.15,-35.7 105.53,-28.1 95.02,-29.44 98.15,-35.7"/>
</g>
<!-- theory&#45;&gt;instance -->
<g id="edge8" class="edge">
<title>theory:velocity&#45;&gt;instance:timeStartZero</title>
<path fill="none" stroke="black" d="M112.09,-78.37C95.08,-68.71 90.54,-54.12 98.45,-41.83"/>
<polygon fill="black" stroke="black" points="101.29,-43.9 105.44,-34.15 96.12,-39.19 101.29,-43.9"/>
</g>
<!-- theory&#45;&gt;instance -->
<g id="edge9" class="edge">
<title>theory:position&#45;&gt;instance:twoDMotion</title>
<path fill="none" stroke="black" d="M114.85,-71.7C108.14,-63.56 106.49,-53.69 109.91,-44.7"/>
<polygon fill="black" stroke="black" points="112.92,-46.49 115.02,-36.1 106.9,-42.91 112.92,-46.49"/>
</g>
<!-- theory&#45;&gt;instance -->
<g id="edge10" class="edge">
<title>theory:position&#45;&gt;instance:cartSyst</title>
<path fill="none" stroke="black" d="M126.68,-71.7C121.81,-63.81 120.49,-54.3 122.75,-45.55"/>
<polygon fill="black" stroke="black" points="126.07,-46.67 126.81,-36.1 119.64,-43.91 126.07,-46.67"/>
</g>
<!-- theory&#45;&gt;instance -->
<g id="edge11" class="edge">
<title>theory:position&#45;&gt;instance:constAccel</title>
<path fill="none" stroke="black" d="M138.52,-71.7C135.3,-63.9 134.41,-54.51 135.84,-45.83"/>
<polygon fill="black" stroke="black" points="139.24,-46.68 138.6,-36.1 132.51,-44.77 139.24,-46.68"/>
</g>
<!-- theory&#45;&gt;instance -->
<g id="edge12" class="edge">
<title>theory:position&#45;&gt;instance:timeStartZero</title>
<path fill="none" stroke="black" d="M150.35,-71.7C148.76,-63.98 148.3,-54.71 148.99,-46.11"/>
<polygon fill="black" stroke="black" points="152.47,-46.49 150.39,-36.1 145.54,-45.52 152.47,-46.49"/>
</g>
<!-- theory&#45;&gt;instance -->
<g id="edge13" class="edge">
<title>theory:flightduration&#45;&gt;instance:yAxisGravity</title>
<path fill="none" stroke="black" d="M162.18,-71.7C162.18,-63.98 162.18,-54.71 162.18,-46.11"/>
<polygon fill="black" stroke="black" points="165.68,-46.1 162.18,-36.1 158.68,-46.1 165.68,-46.1"/>
</g>
<!-- theory&#45;&gt;instance -->
<g id="edge14" class="edge">
<title>theory:flightduration&#45;&gt;instance:launchOrigin</title>
<path fill="none" stroke="black" d="M174.01,-71.7C175.6,-63.98 176.06,-54.71 175.37,-46.11"/>
<polygon fill="black" stroke="black" points="178.82,-45.52 173.97,-36.1 171.89,-46.49 178.82,-45.52"/>
</g>
<!-- theory&#45;&gt;instance -->
<g id="edge15" class="edge">
<title>theory:flightduration&#45;&gt;instance:targetXAxis</title>
<path fill="none" stroke="black" d="M185.84,-71.7C189.06,-63.9 189.95,-54.51 188.51,-45.83"/>
<polygon fill="black" stroke="black" points="191.85,-44.77 185.76,-36.1 185.12,-46.68 191.85,-44.77"/>
</g>
<!-- theory&#45;&gt;instance -->
<g id="edge16" class="edge">
<title>theory:flightduration&#45;&gt;instance:posXDirection</title>
<path fill="none" stroke="black" d="M197.67,-71.7C202.55,-63.81 203.87,-54.3 201.61,-45.55"/>
<polygon fill="black" stroke="black" points="204.72,-43.91 197.55,-36.1 198.29,-46.67 204.72,-43.91"/>
</g>
<!-- theory&#45;&gt;instance -->
<g id="edge17" class="edge">
<title>theory:flightduration&#45;&gt;instance:accelYGravity</title>
<path fill="none" stroke="black" d="M209.51,-71.7C216.22,-63.56 217.87,-53.69 214.45,-44.7"/>
<polygon fill="black" stroke="black" points="217.46,-42.91 209.34,-36.1 211.44,-46.49 217.46,-42.91"/>
</g>
<!-- theory&#45;&gt;instance -->
<g id="edge18" class="edge">
<title>theory:flightduration&#45;&gt;instance:timeStartZero</title>
<path fill="none" stroke="black" d="M212.27,-78.37C229.28,-68.71 233.82,-54.12 225.91,-41.83"/>
<polygon fill="black" stroke="black" points="228.24,-39.19 218.92,-34.15 223.07,-43.9 228.24,-39.19"/>
</g>
<!-- theory&#45;&gt;instance -->
<g id="edge19" class="edge">
<title>theory:flightduration&#45;&gt;instance:gravAccelValue</title>
<path fill="none" stroke="black" d="M212.32,-82.29C247.38,-70.89 252.56,-47.55 227.89,-32.62"/>
<polygon fill="black" stroke="black" points="229.34,-29.44 218.83,-28.1 226.21,-35.7 229.34,-29.44"/>
</g>
<!-- theory&#45;&gt;instance -->
<g id="edge20" class="edge">
<title>theory:landingposition&#45;&gt;instance:yAxisGravity</title>
<path fill="none" stroke="black" d="M212.27,-84.35C265.36,-72.95 270.85,-43.41 228.73,-28.26"/>
<polygon fill="black" stroke="black" points="229.61,-24.87 219.02,-25.26 227.54,-31.56 229.61,-24.87"/>
</g>
<!-- theory&#45;&gt;instance -->
<g id="edge21" class="edge">
<title>theory:landingposition&#45;&gt;instance:launchOrigin</title>
<path fill="none" stroke="black" d="M212.24,-85.58C283.61,-74.6 289.04,-40.14 228.54,-25.59"/>
<polygon fill="black" stroke="black" points="229.21,-22.15 218.7,-23.51 227.76,-29 229.21,-22.15"/>
</g>
<!-- theory&#45;&gt;instance -->
<g id="edge22" class="edge">
<title>theory:landingposition&#45;&gt;instance:posXDirection</title>
<path fill="none" stroke="black" d="M212.46,-86.34C301.65,-75.93 307.07,-37.8 228.72,-24.01"/>
<polygon fill="black" stroke="black" points="229.17,-20.54 218.75,-22.46 228.09,-27.46 229.17,-20.54"/>
</g>
<!-- theory&#45;&gt;instance -->
<g id="edge23" class="edge">
<title>theory:landingposition&#45;&gt;instance:accelXZero</title>
<path fill="none" stroke="black" d="M212.29,-86.91C319.68,-77.13 325.18,-35.94 228.79,-22.94"/>
<polygon fill="black" stroke="black" points="229.17,-19.46 218.82,-21.74 228.33,-26.41 229.17,-19.46"/>
</g>
<!-- theory&#45;&gt;instance -->
<g id="edge24" class="edge">
<title>theory:landingposition&#45;&gt;instance:gravAccelValue</title>
<path fill="none" stroke="black" d="M212.65,-87.27C337.57,-78.03 343.1,-34.5 229.24,-22.23"/>
<polygon fill="black" stroke="black" points="229.27,-18.71 218.98,-21.24 228.59,-25.68 229.27,-18.71"/>
</g>
<!-- theory&#45;&gt;instance -->
<g id="edge25" class="edge">
<title>theory:offset&#45;&gt;instance:posXDirection</title>
<path fill="none" stroke="black" d="M212.29,-87.59C355.72,-78.94 361.25,-33.15 228.9,-21.63"/>
<polygon fill="black" stroke="black" points="228.95,-18.12 218.71,-20.83 228.4,-25.1 228.95,-18.12"/>
</g>
<!-- dataDefn -->
<g id="node3" class="node">
<title>dataDefn</title>
<polygon fill="#bbffff" stroke="black" points="330.18,-108 230.18,-108 230.18,-72 330.18,-72 330.18,-108"/>
<text text-anchor="middle" x="280.18" y="-86.3" font-family="Times,serif" font-size="14.00">DD:speedIY</text>
</g>
</g>
</svg>
