<?xml version="1.0" encoding="UTF-8" standalone="no"?>
<!DOCTYPE svg PUBLIC "-//W3C//DTD SVG 1.1//EN"
 "http://www.w3.org/Graphics/SVG/1.1/DTD/svg11.dtd">
<!-- Generated by graphviz version 2.43.0 (0)
 -->
<!-- Title: avsall Pages: 1 -->
<svg width="3764pt" height="116pt"
 viewBox="0.00 0.00 3764.00 116.00" xmlns="http://www.w3.org/2000/svg" xmlns:xlink="http://www.w3.org/1999/xlink">
<g id="graph0" class="graph" transform="scale(1 1) rotate(0) translate(4 112)">
<title>avsall</title>
<polygon fill="white" stroke="transparent" points="-4,4 -4,-112 3760,-112 3760,4 -4,4"/>
<!-- projSpeed -->
<g id="node1" class="node">
<title>projSpeed</title>
<polygon fill="palegreen" stroke="black" points="105.5,-108 11.5,-108 11.5,-72 105.5,-72 105.5,-108"/>
<text text-anchor="middle" x="58.5" y="-86.3" font-family="Times,serif" font-size="14.00">GD:rectVel</text>
</g>
<!-- pointMass -->
<g id="node2" class="node">
<title>pointMass</title>
<polygon fill="mistyrose" stroke="black" points="105,-36 0,-36 0,0 105,0 105,-36"/>
<text text-anchor="middle" x="52.5" y="-14.3" font-family="Times,serif" font-size="14.00">A:pointMass</text>
</g>
<!-- projSpeed&#45;&gt;pointMass -->
<g id="edge1" class="edge">
<title>projSpeed&#45;&gt;pointMass</title>
<path fill="none" stroke="black" d="M57.02,-71.7C56.36,-63.98 55.56,-54.71 54.82,-46.11"/>
<polygon fill="black" stroke="black" points="58.31,-45.77 53.97,-36.1 51.33,-46.37 58.31,-45.77"/>
</g>
<!-- timeStartZero -->
<g id="node3" class="node">
<title>timeStartZero</title>
<polygon fill="mistyrose" stroke="black" points="256,-36 123,-36 123,0 256,0 256,-36"/>
<text text-anchor="middle" x="189.5" y="-14.3" font-family="Times,serif" font-size="14.00">A:timeStartZero</text>
</g>
<!-- projSpeed&#45;&gt;timeStartZero -->
<g id="edge2" class="edge">
<title>projSpeed&#45;&gt;timeStartZero</title>
<path fill="none" stroke="black" d="M90.55,-71.88C107.99,-62.55 129.77,-50.92 148.44,-40.94"/>
<polygon fill="black" stroke="black" points="150.16,-43.99 157.33,-36.19 146.86,-37.82 150.16,-43.99"/>
</g>
<!-- scalarPos -->
<g id="node4" class="node">
<title>scalarPos</title>
<polygon fill="palegreen" stroke="black" points="227,-108 130,-108 130,-72 227,-72 227,-108"/>
<text text-anchor="middle" x="178.5" y="-86.3" font-family="Times,serif" font-size="14.00">GD:rectPos</text>
</g>
<!-- scalarPos&#45;&gt;pointMass -->
<g id="edge3" class="edge">
<title>scalarPos&#45;&gt;pointMass</title>
<path fill="none" stroke="black" d="M147.68,-71.88C131.05,-62.64 110.34,-51.13 92.48,-41.21"/>
<polygon fill="black" stroke="black" points="93.88,-37.99 83.44,-36.19 90.48,-44.11 93.88,-37.99"/>
</g>
<!-- scalarPos&#45;&gt;timeStartZero -->
<g id="edge4" class="edge">
<title>scalarPos&#45;&gt;timeStartZero</title>
<path fill="none" stroke="black" d="M181.22,-71.7C182.43,-63.98 183.89,-54.71 185.24,-46.11"/>
<polygon fill="black" stroke="black" points="188.72,-46.53 186.81,-36.1 181.8,-45.44 188.72,-46.53"/>
</g>
<!-- velocity -->
<g id="node5" class="node">
<title>velocity</title>
<polygon fill="palegreen" stroke="black" points="381,-108 292,-108 292,-72 381,-72 381,-108"/>
<text text-anchor="middle" x="336.5" y="-86.3" font-family="Times,serif" font-size="14.00">GD:velVec</text>
</g>
<!-- velocity&#45;&gt;timeStartZero -->
<g id="edge8" class="edge">
<title>velocity&#45;&gt;timeStartZero</title>
<path fill="none" stroke="black" d="M300.54,-71.88C280.62,-62.39 255.68,-50.51 234.48,-40.42"/>
<polygon fill="black" stroke="black" points="235.88,-37.21 225.34,-36.07 232.87,-43.53 235.88,-37.21"/>
</g>
<!-- twoDMotion -->
<g id="node6" class="node">
<title>twoDMotion</title>
<polygon fill="mistyrose" stroke="black" points="393,-36 274,-36 274,0 393,0 393,-36"/>
<text text-anchor="middle" x="333.5" y="-14.3" font-family="Times,serif" font-size="14.00">A:twoDMotion</text>
</g>
<!-- velocity&#45;&gt;twoDMotion -->
<g id="edge5" class="edge">
<title>velocity&#45;&gt;twoDMotion</title>
<path fill="none" stroke="black" d="M335.76,-71.7C335.43,-63.98 335.03,-54.71 334.66,-46.11"/>
<polygon fill="black" stroke="black" points="338.16,-45.95 334.23,-36.1 331.16,-46.25 338.16,-45.95"/>
</g>
<!-- cartSyst -->
<g id="node7" class="node">
<title>cartSyst</title>
<polygon fill="mistyrose" stroke="black" points="502,-36 411,-36 411,0 502,0 502,-36"/>
<text text-anchor="middle" x="456.5" y="-14.3" font-family="Times,serif" font-size="14.00">A:cartSyst</text>
</g>
<!-- velocity&#45;&gt;cartSyst -->
<g id="edge6" class="edge">
<title>velocity&#45;&gt;cartSyst</title>
<path fill="none" stroke="black" d="M365.86,-71.88C381.55,-62.72 401.06,-51.34 417.95,-41.48"/>
<polygon fill="black" stroke="black" points="420.16,-44.25 427.03,-36.19 416.63,-38.21 420.16,-44.25"/>
</g>
<!-- constAccel -->
<g id="node8" class="node">
<title>constAccel</title>
<polygon fill="mistyrose" stroke="black" points="627,-36 520,-36 520,0 627,0 627,-36"/>
<text text-anchor="middle" x="573.5" y="-14.3" font-family="Times,serif" font-size="14.00">A:constAccel</text>
</g>
<!-- velocity&#45;&gt;constAccel -->
<g id="edge7" class="edge">
<title>velocity&#45;&gt;constAccel</title>
<path fill="none" stroke="black" d="M381.3,-75.62C385.43,-74.4 389.54,-73.17 393.5,-72 432.16,-60.54 475.52,-47.77 509.99,-37.64"/>
<polygon fill="black" stroke="black" points="511.32,-40.9 519.93,-34.72 509.35,-34.18 511.32,-40.9"/>
</g>
<!-- position -->
<g id="node9" class="node">
<title>position</title>
<polygon fill="palegreen" stroke="black" points="496,-108 403,-108 403,-72 496,-72 496,-108"/>
<text text-anchor="middle" x="449.5" y="-86.3" font-family="Times,serif" font-size="14.00">GD:posVec</text>
</g>
<!-- position&#45;&gt;timeStartZero -->
<g id="edge12" class="edge">
<title>position&#45;&gt;timeStartZero</title>
<path fill="none" stroke="black" d="M402.68,-75.65C398.23,-74.41 393.78,-73.17 389.5,-72 348.32,-60.71 302.26,-48.48 264.73,-38.61"/>
<polygon fill="black" stroke="black" points="265.44,-35.18 254.88,-36.03 263.66,-41.95 265.44,-35.18"/>
</g>
<!-- position&#45;&gt;twoDMotion -->
<g id="edge9" class="edge">
<title>position&#45;&gt;twoDMotion</title>
<path fill="none" stroke="black" d="M421.12,-71.88C405.96,-62.72 387.09,-51.34 370.76,-41.48"/>
<polygon fill="black" stroke="black" points="372.36,-38.36 361.99,-36.19 368.74,-44.35 372.36,-38.36"/>
</g>
<!-- position&#45;&gt;cartSyst -->
<g id="edge10" class="edge">
<title>position&#45;&gt;cartSyst</title>
<path fill="none" stroke="black" d="M451.23,-71.7C452,-63.98 452.93,-54.71 453.79,-46.11"/>
<polygon fill="black" stroke="black" points="457.28,-46.4 454.79,-36.1 450.31,-45.71 457.28,-46.4"/>
</g>
<!-- position&#45;&gt;constAccel -->
<g id="edge11" class="edge">
<title>position&#45;&gt;constAccel</title>
<path fill="none" stroke="black" d="M479.83,-71.88C496.2,-62.64 516.58,-51.13 534.15,-41.21"/>
<polygon fill="black" stroke="black" points="536.06,-44.15 543.05,-36.19 532.62,-38.06 536.06,-44.15"/>
</g>
<!-- flightduration -->
<g id="node10" class="node">
<title>flightduration</title>
<polygon fill="#fff68f" stroke="black" points="1071.5,-108 901.5,-108 901.5,-72 1071.5,-72 1071.5,-108"/>
<text text-anchor="middle" x="986.5" y="-86.3" font-family="Times,serif" font-size="14.00">IM:calOfLandingTime</text>
</g>
<!-- flightduration&#45;&gt;timeStartZero -->
<g id="edge18" class="edge">
<title>flightduration&#45;&gt;timeStartZero</title>
<path fill="none" stroke="black" d="M901.29,-86.87C767.69,-82.62 500.77,-70.45 266.15,-36.12"/>
<polygon fill="black" stroke="black" points="266.46,-32.63 256.06,-34.63 265.44,-39.56 266.46,-32.63"/>
</g>
<!-- yAxisGravity -->
<g id="node11" class="node">
<title>yAxisGravity</title>
<polygon fill="mistyrose" stroke="black" points="1047.5,-36 925.5,-36 925.5,0 1047.5,0 1047.5,-36"/>
<text text-anchor="middle" x="986.5" y="-14.3" font-family="Times,serif" font-size="14.00">A:yAxisGravity</text>
</g>
<!-- flightduration&#45;&gt;yAxisGravity -->
<g id="edge13" class="edge">
<title>flightduration&#45;&gt;yAxisGravity</title>
<path fill="none" stroke="black" d="M986.5,-71.7C986.5,-63.98 986.5,-54.71 986.5,-46.11"/>
<polygon fill="black" stroke="black" points="990,-46.1 986.5,-36.1 983,-46.1 990,-46.1"/>
</g>
<!-- launchOrigin -->
<g id="node12" class="node">
<title>launchOrigin</title>
<polygon fill="mistyrose" stroke="black" points="1189,-36 1066,-36 1066,0 1189,0 1189,-36"/>
<text text-anchor="middle" x="1127.5" y="-14.3" font-family="Times,serif" font-size="14.00">A:launchOrigin</text>
</g>
<!-- flightduration&#45;&gt;launchOrigin -->
<g id="edge14" class="edge">
<title>flightduration&#45;&gt;launchOrigin</title>
<path fill="none" stroke="black" d="M1020.99,-71.88C1039.94,-62.47 1063.63,-50.71 1083.86,-40.67"/>
<polygon fill="black" stroke="black" points="1085.47,-43.77 1092.87,-36.19 1082.36,-37.5 1085.47,-43.77"/>
</g>
<!-- targetXAxis -->
<g id="node13" class="node">
<title>targetXAxis</title>
<polygon fill="mistyrose" stroke="black" points="760,-36 645,-36 645,0 760,0 760,-36"/>
<text text-anchor="middle" x="702.5" y="-14.3" font-family="Times,serif" font-size="14.00">A:targetXAxis</text>
</g>
<!-- flightduration&#45;&gt;targetXAxis -->
<g id="edge15" class="edge">
<title>flightduration&#45;&gt;targetXAxis</title>
<path fill="none" stroke="black" d="M915.26,-71.94C875.06,-62.25 823.64,-49.76 769.8,-36.31"/>
<polygon fill="black" stroke="black" points="770.63,-32.91 760.08,-33.88 768.93,-39.7 770.63,-32.91"/>
</g>
<!-- posXDirection -->
<g id="node14" class="node">
<title>posXDirection</title>
<polygon fill="mistyrose" stroke="black" points="1625,-36 1494,-36 1494,0 1625,0 1625,-36"/>
<text text-anchor="middle" x="1559.5" y="-14.3" font-family="Times,serif" font-size="14.00">A:posXDirection</text>
</g>
<!-- flightduration&#45;&gt;posXDirection -->
<g id="edge16" class="edge">
<title>flightduration&#45;&gt;posXDirection</title>
<path fill="none" stroke="black" d="M1071.7,-81.15C1187.98,-70.23 1391.49,-50.36 1483.59,-36"/>
<polygon fill="black" stroke="black" points="1484.42,-39.41 1493.74,-34.36 1483.31,-32.5 1484.42,-39.41"/>
</g>
<!-- accelYGravity -->
<g id="node15" class="node">
<title>accelYGravity</title>
<polygon fill="mistyrose" stroke="black" points="907,-36 778,-36 778,0 907,0 907,-36"/>
<text text-anchor="middle" x="842.5" y="-14.3" font-family="Times,serif" font-size="14.00">A:accelYGravity</text>
</g>
<!-- flightduration&#45;&gt;accelYGravity -->
<g id="edge17" class="edge">
<title>flightduration&#45;&gt;accelYGravity</title>
<path fill="none" stroke="black" d="M951.27,-71.88C931.92,-62.47 907.73,-50.71 887.07,-40.67"/>
<polygon fill="black" stroke="black" points="888.39,-37.41 877.86,-36.19 885.33,-43.71 888.39,-37.41"/>
</g>
<!-- gravAccelValue -->
<g id="node16" class="node">
<title>gravAccelValue</title>
<polygon fill="mistyrose" stroke="black" points="1347.5,-36 1207.5,-36 1207.5,0 1347.5,0 1347.5,-36"/>
<text text-anchor="middle" x="1277.5" y="-14.3" font-family="Times,serif" font-size="14.00">A:gravAccelValue</text>
</g>
<!-- flightduration&#45;&gt;gravAccelValue -->
<g id="edge19" class="edge">
<title>flightduration&#45;&gt;gravAccelValue</title>
<path fill="none" stroke="black" d="M1057.31,-71.97C1099.7,-61.77 1153.69,-48.78 1197.6,-38.22"/>
<polygon fill="black" stroke="black" points="1198.47,-41.61 1207.38,-35.87 1196.84,-34.8 1198.47,-41.61"/>
</g>
<!-- landingposition -->
<g id="node17" class="node">
<title>landingposition</title>
<polygon fill="#fff68f" stroke="black" points="1359.5,-108 1195.5,-108 1195.5,-72 1359.5,-72 1359.5,-108"/>
<text text-anchor="middle" x="1277.5" y="-86.3" font-family="Times,serif" font-size="14.00">IM:calOfLandingDist</text>
</g>
<!-- landingposition&#45;&gt;yAxisGravity -->
<g id="edge20" class="edge">
<title>landingposition&#45;&gt;yAxisGravity</title>
<path fill="none" stroke="black" d="M1206.32,-71.99C1165.46,-62.2 1112.91,-49.6 1057.58,-36.26"/>
<polygon fill="black" stroke="black" points="1058.12,-32.79 1047.58,-33.84 1056.48,-39.59 1058.12,-32.79"/>
</g>
<!-- landingposition&#45;&gt;launchOrigin -->
<g id="edge21" class="edge">
<title>landingposition&#45;&gt;launchOrigin</title>
<path fill="none" stroke="black" d="M1240.81,-71.88C1220.48,-62.39 1195.03,-50.51 1173.4,-40.42"/>
<polygon fill="black" stroke="black" points="1174.62,-37.13 1164.07,-36.07 1171.66,-43.47 1174.62,-37.13"/>
</g>
<!-- landingposition&#45;&gt;posXDirection -->
<g id="edge22" class="edge">
<title>landingposition&#45;&gt;posXDirection</title>
<path fill="none" stroke="black" d="M1346.12,-71.97C1387.87,-61.6 1441.23,-48.36 1484.14,-37.71"/>
<polygon fill="black" stroke="black" points="1485.11,-41.07 1493.97,-35.27 1483.42,-34.28 1485.11,-41.07"/>
</g>
<!-- landingposition&#45;&gt;gravAccelValue -->
<g id="edge24" class="edge">
<title>landingposition&#45;&gt;gravAccelValue</title>
<path fill="none" stroke="black" d="M1277.5,-71.7C1277.5,-63.98 1277.5,-54.71 1277.5,-46.11"/>
<polygon fill="black" stroke="black" points="1281,-46.1 1277.5,-36.1 1274,-46.1 1281,-46.1"/>
</g>
<!-- accelXZero -->
<g id="node18" class="node">
<title>accelXZero</title>
<polygon fill="mistyrose" stroke="black" points="1475.5,-36 1365.5,-36 1365.5,0 1475.5,0 1475.5,-36"/>
<text text-anchor="middle" x="1420.5" y="-14.3" font-family="Times,serif" font-size="14.00">A:accelXZero</text>
</g>
<!-- landingposition&#45;&gt;accelXZero -->
<g id="edge23" class="edge">
<title>landingposition&#45;&gt;accelXZero</title>
<path fill="none" stroke="black" d="M1312.48,-71.88C1331.7,-62.47 1355.73,-50.71 1376.24,-40.67"/>
<polygon fill="black" stroke="black" points="1377.94,-43.73 1385.38,-36.19 1374.86,-37.44 1377.94,-43.73"/>
</g>
<!-- offset -->
<g id="node19" class="node">
<title>offset</title>
<polygon fill="#fff68f" stroke="black" points="1544.5,-108 1444.5,-108 1444.5,-72 1544.5,-72 1544.5,-108"/>
<text text-anchor="middle" x="1494.5" y="-86.3" font-family="Times,serif" font-size="14.00">IM:offsetIM</text>
</g>
<!-- offset&#45;&gt;posXDirection -->
<g id="edge25" class="edge">
<title>offset&#45;&gt;posXDirection</title>
<path fill="none" stroke="black" d="M1510.57,-71.7C1518.44,-63.22 1528.06,-52.86 1536.67,-43.58"/>
<polygon fill="black" stroke="black" points="1539.38,-45.81 1543.62,-36.1 1534.25,-41.05 1539.38,-45.81"/>
</g>
<!-- message -->
<g id="node20" class="node">
<title>message</title>
<polygon fill="#fff68f" stroke="black" points="1684.5,-108 1562.5,-108 1562.5,-72 1684.5,-72 1684.5,-108"/>
<text text-anchor="middle" x="1623.5" y="-86.3" font-family="Times,serif" font-size="14.00">IM:messageIM</text>
</g>
<!-- message&#45;&gt;posXDirection -->
<g id="edge26" class="edge">
<title>message&#45;&gt;posXDirection</title>
<path fill="none" stroke="black" d="M1607.68,-71.7C1599.93,-63.22 1590.46,-52.86 1581.98,-43.58"/>
<polygon fill="black" stroke="black" points="1584.47,-41.12 1575.14,-36.1 1579.3,-45.85 1584.47,-41.12"/>
</g>
<!-- neglectDrag -->
<g id="node21" class="node">
<title>neglectDrag</title>
<polygon fill="mistyrose" stroke="black" points="1762,-36 1643,-36 1643,0 1762,0 1762,-36"/>
<text text-anchor="middle" x="1702.5" y="-14.3" font-family="Times,serif" font-size="14.00">A:neglectDrag</text>
</g>
<!-- freeFlight -->
<g id="node22" class="node">
<title>freeFlight</title>
<polygon fill="mistyrose" stroke="black" points="1882.5,-36 1780.5,-36 1780.5,0 1882.5,0 1882.5,-36"/>
<text text-anchor="middle" x="1831.5" y="-14.3" font-family="Times,serif" font-size="14.00">A:freeFlight</text>
</g>
<!-- neglectCurv -->
<g id="node23" class="node">
<title>neglectCurv</title>
<polygon fill="mistyrose" stroke="black" points="2018.5,-36 1900.5,-36 1900.5,0 2018.5,0 2018.5,-36"/>
<text text-anchor="middle" x="1959.5" y="-14.3" font-family="Times,serif" font-size="14.00">A:neglectCurv</text>
</g>
<!-- speed -->
<g id="node24" class="node">
<title>speed</title>
<polygon fill="#bbffff" stroke="black" points="1802,-108 1703,-108 1703,-72 1802,-72 1802,-108"/>
<text text-anchor="middle" x="1752.5" y="-86.3" font-family="Times,serif" font-size="14.00">DD:vecMag</text>
</g>
<!-- ixVel -->
<g id="node25" class="node">
<title>ixVel</title>
<polygon fill="#bbffff" stroke="black" points="1921,-108 1820,-108 1820,-72 1921,-72 1921,-108"/>
<text text-anchor="middle" x="1870.5" y="-86.3" font-family="Times,serif" font-size="14.00">DD:speedIX</text>
</g>
<!-- iyVel -->
<g id="node26" class="node">
<title>iyVel</title>
<polygon fill="#bbffff" stroke="black" points="2039.5,-108 1939.5,-108 1939.5,-72 2039.5,-72 2039.5,-108"/>
<text text-anchor="middle" x="1989.5" y="-86.3" font-family="Times,serif" font-size="14.00">DD:speedIY</text>
</g>
<!-- accelerationTM -->
<g id="node27" class="node">
<title>accelerationTM</title>
<polygon fill="pink" stroke="black" points="2189,-108 2058,-108 2058,-72 2189,-72 2189,-108"/>
<text text-anchor="middle" x="2123.5" y="-86.3" font-family="Times,serif" font-size="14.00">TM:acceleration</text>
</g>
<!-- velocityTM -->
<g id="node28" class="node">
<title>velocityTM</title>
<polygon fill="pink" stroke="black" points="2307.5,-108 2207.5,-108 2207.5,-72 2307.5,-72 2307.5,-108"/>
<text text-anchor="middle" x="2257.5" y="-86.3" font-family="Times,serif" font-size="14.00">TM:velocity</text>
</g>
<!-- inputValues -->
<g id="node29" class="node">
<title>inputValues</title>
<polygon fill="ivory" stroke="black" points="2451,-108 2326,-108 2326,-72 2451,-72 2451,-108"/>
<text text-anchor="middle" x="2388.5" y="-86.3" font-family="Times,serif" font-size="14.00">FR:inputValues</text>
</g>
<!-- verifyInVals -->
<g id="node30" class="node">
<title>verifyInVals</title>
<polygon fill="ivory" stroke="black" points="2595.5,-108 2469.5,-108 2469.5,-72 2595.5,-72 2595.5,-108"/>
<text text-anchor="middle" x="2532.5" y="-86.3" font-family="Times,serif" font-size="14.00">FR:verifyInVals</text>
</g>
<!-- calcValues -->
<g id="node31" class="node">
<title>calcValues</title>
<polygon fill="ivory" stroke="black" points="2729.5,-108 2613.5,-108 2613.5,-72 2729.5,-72 2729.5,-108"/>
<text text-anchor="middle" x="2671.5" y="-86.3" font-family="Times,serif" font-size="14.00">FR:calcValues</text>
</g>
<!-- outputValues -->
<g id="node32" class="node">
<title>outputValues</title>
<polygon fill="ivory" stroke="black" points="2883,-108 2748,-108 2748,-72 2883,-72 2883,-108"/>
<text text-anchor="middle" x="2815.5" y="-86.3" font-family="Times,serif" font-size="14.00">FR:outputValues</text>
</g>
<!-- correct -->
<g id="node33" class="node">
<title>correct</title>
<polygon fill="ivory" stroke="black" points="3005.5,-108 2901.5,-108 2901.5,-72 3005.5,-72 3005.5,-108"/>
<text text-anchor="middle" x="2953.5" y="-86.3" font-family="Times,serif" font-size="14.00">NFR:correct</text>
</g>
<!-- verifiable -->
<g id="node34" class="node">
<title>verifiable</title>
<polygon fill="ivory" stroke="black" points="3143.5,-108 3023.5,-108 3023.5,-72 3143.5,-72 3143.5,-108"/>
<text text-anchor="middle" x="3083.5" y="-86.3" font-family="Times,serif" font-size="14.00">NFR:verifiable</text>
</g>
<!-- understandable -->
<g id="node35" class="node">
<title>understandable</title>
<polygon fill="ivory" stroke="black" points="3327,-108 3162,-108 3162,-72 3327,-72 3327,-108"/>
<text text-anchor="middle" x="3244.5" y="-86.3" font-family="Times,serif" font-size="14.00">NFR:understandable</text>
</g>
<!-- reusable -->
<g id="node36" class="node">
<title>reusable</title>
<polygon fill="ivory" stroke="black" points="3460,-108 3345,-108 3345,-72 3460,-72 3460,-108"/>
<text text-anchor="middle" x="3402.5" y="-86.3" font-family="Times,serif" font-size="14.00">NFR:reusable</text>
</g>
<!-- maintainable -->
<g id="node37" class="node">
<title>maintainable</title>
<polygon fill="ivory" stroke="black" points="3624.5,-108 3478.5,-108 3478.5,-72 3624.5,-72 3624.5,-108"/>
<text text-anchor="middle" x="3551.5" y="-86.3" font-family="Times,serif" font-size="14.00">NFR:maintainable</text>
</g>
<!-- portable -->
<g id="node38" class="node">
<title>portable</title>
<polygon fill="ivory" stroke="black" points="3756,-108 3643,-108 3643,-72 3756,-72 3756,-108"/>
<text text-anchor="middle" x="3699.5" y="-86.3" font-family="Times,serif" font-size="14.00">NFR:portable</text>
</g>
</g>
</svg>
