<?xml version="1.0" encoding="UTF-8" standalone="no"?>
<!DOCTYPE svg PUBLIC "-//W3C//DTD SVG 1.1//EN"
 "http://www.w3.org/Graphics/SVG/1.1/DTD/svg11.dtd">
<!-- Generated by graphviz version 2.43.0 (0)
 -->
<!-- Title: refvsref Pages: 1 -->
<svg width="359pt" height="116pt"
 viewBox="0.00 0.00 358.50 116.00" xmlns="http://www.w3.org/2000/svg" xmlns:xlink="http://www.w3.org/1999/xlink">
<g id="graph0" class="graph" transform="scale(1 1) rotate(0) translate(4 112)">
<title>refvsref</title>
<polygon fill="white" stroke="transparent" points="-4,4 -4,-112 354.5,-112 354.5,4 -4,4"/>
<!-- ixVel -->
<g id="node1" class="node">
<title>ixVel</title>
<polygon fill="#bbffff" stroke="black" points="101,-36 0,-36 0,0 101,0 101,-36"/>
<text text-anchor="middle" x="50.5" y="-14.3" font-family="Times,serif" font-size="14.00">DD:speedIX</text>
</g>
<!-- speed -->
<g id="node2" class="node">
<title>speed</title>
<polygon fill="#bbffff" stroke="black" points="337,-36 238,-36 238,0 337,0 337,-36"/>
<text text-anchor="middle" x="287.5" y="-14.3" font-family="Times,serif" font-size="14.00">DD:vecMag</text>
</g>
<!-- ixVel&#45;&gt;speed -->
<g id="edge1" class="edge">
<title>ixVel&#45;&gt;speed</title>
<path fill="none" stroke="black" d="M77.81,-36.13C90.03,-43.19 104.93,-50.43 119.5,-54 162.67,-64.58 176.37,-64.71 219.5,-54 230.52,-51.26 241.71,-46.38 251.76,-41.07"/>
<polygon fill="black" stroke="black" points="253.59,-44.05 260.62,-36.12 250.18,-37.94 253.59,-44.05"/>
</g>
<!-- iyVel -->
<g id="node3" class="node">
<title>iyVel</title>
<polygon fill="#bbffff" stroke="black" points="219.5,-36 119.5,-36 119.5,0 219.5,0 219.5,-36"/>
<text text-anchor="middle" x="169.5" y="-14.3" font-family="Times,serif" font-size="14.00">DD:speedIY</text>
</g>
<!-- iyVel&#45;&gt;speed -->
<g id="edge2" class="edge">
<title>iyVel&#45;&gt;speed</title>
<path fill="none" stroke="black" d="M219.74,-18C222.37,-18 224.99,-18 227.62,-18"/>
<polygon fill="black" stroke="black" points="227.74,-21.5 237.74,-18 227.74,-14.5 227.74,-21.5"/>
</g>
<!-- theory -->
<g id="node4" class="node">
<title>theory</title>
<polygon fill="#fff68f" stroke="black" points="170.5,-108 48.5,-108 48.5,-72 170.5,-72 170.5,-108"/>
<text text-anchor="middle" x="109.5" y="-86.3" font-family="Times,serif" font-size="14.00">IM:messageIM</text>
</g>
<!-- theory&#45;&gt;ixVel -->
<g id="edge10" class="edge">
<title>theory:landingposition&#45;&gt;ixVel</title>
<path fill="none" stroke="black" d="M94.92,-71.7C87.84,-63.3 79.22,-53.07 71.45,-43.86"/>
<polygon fill="black" stroke="black" points="74.04,-41.49 64.92,-36.1 68.69,-46.01 74.04,-41.49"/>
</g>
<!-- theory&#45;&gt;iyVel -->
<g id="edge8" class="edge">
<title>theory:flightduration&#45;&gt;iyVel</title>
<path fill="none" stroke="black" d="M124.33,-71.7C131.52,-63.3 140.3,-53.07 148.19,-43.86"/>
<polygon fill="black" stroke="black" points="150.99,-45.97 154.84,-36.1 145.67,-41.42 150.99,-45.97"/>
</g>
<!-- theory&#45;&gt;theory -->
<g id="edge3" class="edge">
<title>theory:projSpeed&#45;&gt;theory:accelerationTM</title>
<path fill="none" stroke="black" d="M170.78,-91.4C181.25,-91.21 188.5,-90.74 188.5,-90 188.5,-89.54 185.67,-89.18 180.99,-88.93"/>
<polygon fill="black" stroke="black" points="180.89,-85.43 170.78,-88.6 180.66,-92.42 180.89,-85.43"/>
</g>
<!-- theory&#45;&gt;theory -->
<g id="edge4" class="edge">
<title>theory:projPos&#45;&gt;theory:velocityTM</title>
<path fill="none" stroke="black" d="M170.6,-93C190.58,-92.98 206.5,-91.98 206.5,-90 206.5,-88.37 195.79,-87.41 180.91,-87.1"/>
<polygon fill="black" stroke="black" points="180.63,-83.6 170.6,-87 180.56,-90.6 180.63,-83.6"/>
</g>
<!-- theory&#45;&gt;theory -->
<g id="edge5" class="edge">
<title>theory:projPos&#45;&gt;theory:projSpeed</title>
<path fill="none" stroke="black" d="M170.73,-94.41C199.39,-94.9 224.5,-93.43 224.5,-90 224.5,-86.98 205.11,-85.48 180.95,-85.5"/>
<polygon fill="black" stroke="black" points="180.7,-82 170.73,-85.59 180.76,-89 180.7,-82"/>
</g>
<!-- theory&#45;&gt;theory -->
<g id="edge6" class="edge">
<title>theory:velocity&#45;&gt;theory:projSpeed</title>
<path fill="none" stroke="black" d="M170.72,-95.61C207.65,-96.89 242.5,-95.02 242.5,-90 242.5,-85.45 213.88,-83.49 181.02,-84.11"/>
<polygon fill="black" stroke="black" points="180.62,-80.62 170.72,-84.39 180.81,-87.62 180.62,-80.62"/>
</g>
<!-- theory&#45;&gt;theory -->
<g id="edge7" class="edge">
<title>theory:position&#45;&gt;theory:projPos</title>
<path fill="none" stroke="black" d="M170.76,-96.65C215.58,-98.9 260.5,-96.68 260.5,-90 260.5,-83.83 222.17,-81.47 180.98,-82.91"/>
<polygon fill="black" stroke="black" points="180.6,-79.42 170.76,-83.35 180.9,-86.42 180.6,-79.42"/>
</g>
<!-- theory&#45;&gt;theory -->
<g id="edge9" class="edge">
<title>theory:flightduration&#45;&gt;theory:position</title>
<path fill="none" stroke="black" d="M170.58,-97.54C223.11,-100.93 278.5,-98.41 278.5,-90 278.5,-82.13 230.02,-79.42 180.76,-81.88"/>
<polygon fill="black" stroke="black" points="180.37,-78.39 170.58,-82.46 180.77,-85.38 180.37,-78.39"/>
</g>
<!-- theory&#45;&gt;theory -->
<g id="edge11" class="edge">
<title>theory:landingposition&#45;&gt;theory:position</title>
<path fill="none" stroke="black" d="M170.79,-98.34C230.69,-102.95 296.5,-100.17 296.5,-90 296.5,-80.4 237.93,-77.39 181.01,-80.94"/>
<polygon fill="black" stroke="black" points="180.52,-77.47 170.79,-81.66 181.01,-84.45 180.52,-77.47"/>
</g>
<!-- theory&#45;&gt;theory -->
<g id="edge12" class="edge">
<title>theory:landingposition&#45;&gt;theory:flightduration</title>
<path fill="none" stroke="black" d="M170.62,-99.02C237.83,-104.99 314.5,-101.98 314.5,-90 314.5,-78.62 245.41,-75.34 180.92,-80.14"/>
<polygon fill="black" stroke="black" points="180.3,-76.68 170.62,-80.98 180.87,-83.65 180.3,-76.68"/>
</g>
<!-- theory&#45;&gt;theory -->
<g id="edge13" class="edge">
<title>theory:offset&#45;&gt;theory:landingposition</title>
<path fill="none" stroke="black" d="M170.58,-99.63C244.91,-107.03 332.5,-103.82 332.5,-90 332.5,-76.8 252.6,-73.28 180.67,-79.43"/>
<polygon fill="black" stroke="black" points="180.21,-75.96 170.58,-80.37 180.86,-82.93 180.21,-75.96"/>
</g>
<!-- theory&#45;&gt;theory -->
<g id="edge14" class="edge">
<title>theory:message&#45;&gt;theory:offset</title>
<path fill="none" stroke="black" d="M170.62,-100.19C251.95,-109.06 350.5,-105.66 350.5,-90 350.5,-74.98 259.86,-71.24 180.71,-78.78"/>
<polygon fill="black" stroke="black" points="180.21,-75.31 170.62,-79.81 180.92,-82.28 180.21,-75.31"/>
</g>
</g>
</svg>
