<?xml version="1.0" encoding="UTF-8" standalone="no"?>
<!DOCTYPE svg PUBLIC "-//W3C//DTD SVG 1.1//EN"
 "http://www.w3.org/Graphics/SVG/1.1/DTD/svg11.dtd">
<!-- Generated by graphviz version 2.43.0 (0)
 -->
<!-- Title: refvsref Pages: 1 -->
<svg width="1041pt" height="188pt"
 viewBox="0.00 0.00 1040.50 188.00" xmlns="http://www.w3.org/2000/svg" xmlns:xlink="http://www.w3.org/1999/xlink">
<g id="graph0" class="graph" transform="scale(1 1) rotate(0) translate(4 184)">
<title>refvsref</title>
<polygon fill="white" stroke="transparent" points="-4,4 -4,-184 1036.5,-184 1036.5,4 -4,4"/>
<!-- ixVel -->
<g id="node1" class="node">
<title>ixVel</title>
<polygon fill="#bbffff" stroke="black" points="332.5,-108 231.5,-108 231.5,-72 332.5,-72 332.5,-108"/>
<text text-anchor="middle" x="282" y="-86.3" font-family="Times,serif" font-size="14.00">DD:speedIX</text>
</g>
<!-- speed -->
<g id="node2" class="node">
<title>speed</title>
<polygon fill="#bbffff" stroke="black" points="794.5,-108 695.5,-108 695.5,-72 794.5,-72 794.5,-108"/>
<text text-anchor="middle" x="745" y="-86.3" font-family="Times,serif" font-size="14.00">DD:vecMag</text>
</g>
<!-- ixVel&#45;&gt;speed -->
<g id="edge1" class="edge">
<title>ixVel&#45;&gt;speed</title>
<path fill="none" stroke="black" d="M308.88,-108.12C320.91,-115.18 335.61,-122.43 350,-126 420.52,-143.52 606.48,-143.52 677,-126 688.02,-123.26 699.21,-118.38 709.26,-113.07"/>
<polygon fill="black" stroke="black" points="711.09,-116.05 718.12,-108.12 707.68,-109.94 711.09,-116.05"/>
</g>
<!-- iyVel -->
<g id="node3" class="node">
<title>iyVel</title>
<polygon fill="#bbffff" stroke="black" points="677,-108 577,-108 577,-72 677,-72 677,-108"/>
<text text-anchor="middle" x="627" y="-86.3" font-family="Times,serif" font-size="14.00">DD:speedIY</text>
</g>
<!-- iyVel&#45;&gt;speed -->
<g id="edge2" class="edge">
<title>iyVel&#45;&gt;speed</title>
<path fill="none" stroke="black" d="M677.24,-90C679.87,-90 682.49,-90 685.12,-90"/>
<polygon fill="black" stroke="black" points="685.24,-93.5 695.24,-90 685.24,-86.5 685.24,-93.5"/>
</g>
<!-- projSpeed -->
<g id="node4" class="node">
<title>projSpeed</title>
<polygon fill="palegreen" stroke="black" points="1014,-108 920,-108 920,-72 1014,-72 1014,-108"/>
<text text-anchor="middle" x="967" y="-86.3" font-family="Times,serif" font-size="14.00">GD:rectVel</text>
</g>
<!-- accelerationTM -->
<g id="node5" class="node">
<title>accelerationTM</title>
<polygon fill="pink" stroke="black" points="1032.5,-36 901.5,-36 901.5,0 1032.5,0 1032.5,-36"/>
<text text-anchor="middle" x="967" y="-14.3" font-family="Times,serif" font-size="14.00">TM:acceleration</text>
</g>
<!-- projSpeed&#45;&gt;accelerationTM -->
<g id="edge3" class="edge">
<title>projSpeed&#45;&gt;accelerationTM</title>
<path fill="none" stroke="black" d="M967,-71.7C967,-63.98 967,-54.71 967,-46.11"/>
<polygon fill="black" stroke="black" points="970.5,-46.1 967,-36.1 963.5,-46.1 970.5,-46.1"/>
</g>
<!-- scalarPos -->
<g id="node6" class="node">
<title>scalarPos</title>
<polygon fill="palegreen" stroke="black" points="558.5,-108 461.5,-108 461.5,-72 558.5,-72 558.5,-108"/>
<text text-anchor="middle" x="510" y="-86.3" font-family="Times,serif" font-size="14.00">GD:rectPos</text>
</g>
<!-- scalarPos&#45;&gt;projSpeed -->
<g id="edge5" class="edge">
<title>scalarPos&#45;&gt;projSpeed</title>
<path fill="none" stroke="black" d="M536.45,-108.12C548.3,-115.18 562.79,-122.42 577,-126 647.04,-143.62 832.08,-144.07 902,-126 912.51,-123.28 923.13,-118.47 932.65,-113.22"/>
<polygon fill="black" stroke="black" points="934.53,-116.18 941.41,-108.12 931,-110.13 934.53,-116.18"/>
</g>
<!-- velocityTM -->
<g id="node7" class="node">
<title>velocityTM</title>
<polygon fill="pink" stroke="black" points="560,-36 460,-36 460,0 560,0 560,-36"/>
<text text-anchor="middle" x="510" y="-14.3" font-family="Times,serif" font-size="14.00">TM:velocity</text>
</g>
<!-- scalarPos&#45;&gt;velocityTM -->
<g id="edge4" class="edge">
<title>scalarPos&#45;&gt;velocityTM</title>
<path fill="none" stroke="black" d="M510,-71.7C510,-63.98 510,-54.71 510,-46.11"/>
<polygon fill="black" stroke="black" points="513.5,-46.1 510,-36.1 506.5,-46.1 513.5,-46.1"/>
</g>
<!-- velocity -->
<g id="node8" class="node">
<title>velocity</title>
<polygon fill="palegreen" stroke="black" points="901.5,-108 812.5,-108 812.5,-72 901.5,-72 901.5,-108"/>
<text text-anchor="middle" x="857" y="-86.3" font-family="Times,serif" font-size="14.00">GD:velVec</text>
</g>
<!-- velocity&#45;&gt;projSpeed -->
<g id="edge6" class="edge">
<title>velocity&#45;&gt;projSpeed</title>
<path fill="none" stroke="black" d="M901.69,-90C904.33,-90 906.97,-90 909.61,-90"/>
<polygon fill="black" stroke="black" points="909.8,-93.5 919.8,-90 909.8,-86.5 909.8,-93.5"/>
</g>
<!-- position -->
<g id="node9" class="node">
<title>position</title>
<polygon fill="palegreen" stroke="black" points="443.5,-108 350.5,-108 350.5,-72 443.5,-72 443.5,-108"/>
<text text-anchor="middle" x="397" y="-86.3" font-family="Times,serif" font-size="14.00">GD:posVec</text>
</g>
<!-- position&#45;&gt;scalarPos -->
<g id="edge7" class="edge">
<title>position&#45;&gt;scalarPos</title>
<path fill="none" stroke="black" d="M443.79,-90C446.26,-90 448.74,-90 451.21,-90"/>
<polygon fill="black" stroke="black" points="451.38,-93.5 461.38,-90 451.38,-86.5 451.38,-93.5"/>
</g>
<!-- flightduration -->
<g id="node10" class="node">
<title>flightduration</title>
<polygon fill="#fff68f" stroke="black" points="610,-180 440,-180 440,-144 610,-144 610,-180"/>
<text text-anchor="middle" x="525" y="-158.3" font-family="Times,serif" font-size="14.00">IM:calOfLandingTime</text>
</g>
<!-- flightduration&#45;&gt;iyVel -->
<g id="edge8" class="edge">
<title>flightduration&#45;&gt;iyVel</title>
<path fill="none" stroke="black" d="M549.95,-143.88C563.04,-134.89 579.26,-123.76 593.44,-114.03"/>
<polygon fill="black" stroke="black" points="595.69,-116.73 601.95,-108.19 591.73,-110.96 595.69,-116.73"/>
</g>
<!-- flightduration&#45;&gt;position -->
<g id="edge9" class="edge">
<title>flightduration&#45;&gt;position</title>
<path fill="none" stroke="black" d="M493.69,-143.88C476.8,-134.64 455.75,-123.13 437.62,-113.21"/>
<polygon fill="black" stroke="black" points="438.89,-109.92 428.43,-108.19 435.53,-116.06 438.89,-109.92"/>
</g>
<!-- landingposition -->
<g id="node11" class="node">
<title>landingposition</title>
<polygon fill="#fff68f" stroke="black" points="422,-180 258,-180 258,-144 422,-144 422,-180"/>
<text text-anchor="middle" x="340" y="-158.3" font-family="Times,serif" font-size="14.00">IM:calOfLandingDist</text>
</g>
<!-- landingposition&#45;&gt;ixVel -->
<g id="edge10" class="edge">
<title>landingposition&#45;&gt;ixVel</title>
<path fill="none" stroke="black" d="M325.66,-143.7C318.71,-135.3 310.23,-125.07 302.6,-115.86"/>
<polygon fill="black" stroke="black" points="305.25,-113.57 296.17,-108.1 299.86,-118.04 305.25,-113.57"/>
</g>
<!-- landingposition&#45;&gt;position -->
<g id="edge11" class="edge">
<title>landingposition&#45;&gt;position</title>
<path fill="none" stroke="black" d="M354.09,-143.7C360.92,-135.3 369.26,-125.07 376.76,-115.86"/>
<polygon fill="black" stroke="black" points="379.47,-118.07 383.07,-108.1 374.04,-113.65 379.47,-118.07"/>
</g>
<!-- landingposition&#45;&gt;flightduration -->
<g id="edge12" class="edge">
<title>landingposition&#45;&gt;flightduration</title>
<path fill="none" stroke="black" d="M422.02,-162C424.51,-162 427,-162 429.49,-162"/>
<polygon fill="black" stroke="black" points="429.72,-165.5 439.72,-162 429.72,-158.5 429.72,-165.5"/>
</g>
<!-- offset -->
<g id="node12" class="node">
<title>offset</title>
<polygon fill="#fff68f" stroke="black" points="240,-180 140,-180 140,-144 240,-144 240,-180"/>
<text text-anchor="middle" x="190" y="-158.3" font-family="Times,serif" font-size="14.00">IM:offsetIM</text>
</g>
<!-- offset&#45;&gt;landingposition -->
<g id="edge13" class="edge">
<title>offset&#45;&gt;landingposition</title>
<path fill="none" stroke="black" d="M240.1,-162C242.57,-162 245.04,-162 247.51,-162"/>
<polygon fill="black" stroke="black" points="247.66,-165.5 257.66,-162 247.66,-158.5 247.66,-165.5"/>
</g>
<!-- message -->
<g id="node13" class="node">
<title>message</title>
<polygon fill="#fff68f" stroke="black" points="122,-180 0,-180 0,-144 122,-144 122,-180"/>
<text text-anchor="middle" x="61" y="-158.3" font-family="Times,serif" font-size="14.00">IM:messageIM</text>
</g>
<!-- message&#45;&gt;offset -->
<g id="edge14" class="edge">
<title>message&#45;&gt;offset</title>
<path fill="none" stroke="black" d="M122.22,-162C124.72,-162 127.21,-162 129.71,-162"/>
<polygon fill="black" stroke="black" points="129.96,-165.5 139.96,-162 129.96,-158.5 129.96,-165.5"/>
</g>
</g>
</svg>
