<?xml version="1.0" encoding="UTF-8" standalone="no"?>
<!DOCTYPE svg PUBLIC "-//W3C//DTD SVG 1.1//EN"
 "http://www.w3.org/Graphics/SVG/1.1/DTD/svg11.dtd">
<!-- Generated by graphviz version 2.43.0 (0)
 -->
<!-- Title: allvsall Pages: 1 -->
<svg width="3291pt" height="204pt"
 viewBox="0.00 0.00 3290.50 203.56" xmlns="http://www.w3.org/2000/svg" xmlns:xlink="http://www.w3.org/1999/xlink">
<g id="graph0" class="graph" transform="scale(1 1) rotate(0) translate(4 199.56)">
<title>allvsall</title>
<polygon fill="white" stroke="transparent" points="-4,4 -4,-199.56 3286.5,-199.56 3286.5,4 -4,4"/>
<!-- dataDefn -->
<g id="node1" class="node">
<title>dataDefn</title>
<polygon fill="#bbffff" stroke="black" points="799,-108 632,-108 632,-72 799,-72 799,-108"/>
<text text-anchor="middle" x="715.5" y="-86.3" font-family="Times,serif" font-size="14.00">DD:momentOfInertia</text>
</g>
<!-- assumpOT -->
<g id="node2" class="node">
<title>assumpOT</title>
<polygon fill="mistyrose" stroke="black" points="768.5,-36 662.5,-36 662.5,0 768.5,0 768.5,-36"/>
<text text-anchor="middle" x="715.5" y="-14.3" font-family="Times,serif" font-size="14.00">A:assumpOT</text>
</g>
<!-- dataDefn&#45;&gt;assumpOT -->
<g id="edge1" class="edge">
<title>dataDefn:p_CM&#45;&gt;assumpOT</title>
<path fill="none" stroke="black" d="M644.51,-71.7C628.81,-59.01 631.58,-42.11 652.83,-30.91"/>
<polygon fill="black" stroke="black" points="654.52,-33.99 662.27,-26.77 651.71,-27.58 654.52,-33.99"/>
</g>
<!-- dataDefn&#45;&gt;assumpOT -->
<g id="edge2" class="edge">
<title>dataDefn:linearDisplacement&#45;&gt;assumpOT</title>
<path fill="none" stroke="black" d="M656.34,-71.7C645.79,-61.47 645.25,-48.5 654.71,-37.99"/>
<polygon fill="black" stroke="black" points="657.01,-40.63 662.38,-31.49 652.49,-35.29 657.01,-40.63"/>
</g>
<!-- dataDefn&#45;&gt;assumpOT -->
<g id="edge3" class="edge">
<title>dataDefn:linearVelocity&#45;&gt;assumpOT</title>
<path fill="none" stroke="black" d="M668.17,-71.7C661.46,-63.56 659.81,-53.69 663.23,-44.7"/>
<polygon fill="black" stroke="black" points="666.24,-46.49 668.34,-36.1 660.22,-42.91 666.24,-46.49"/>
</g>
<!-- dataDefn&#45;&gt;assumpOT -->
<g id="edge4" class="edge">
<title>dataDefn:linearAcceleration&#45;&gt;assumpOT</title>
<path fill="none" stroke="black" d="M680.01,-71.7C675.13,-63.81 673.81,-54.3 676.07,-45.55"/>
<polygon fill="black" stroke="black" points="679.39,-46.67 680.13,-36.1 672.96,-43.91 679.39,-46.67"/>
</g>
<!-- dataDefn&#45;&gt;assumpOT -->
<g id="edge5" class="edge">
<title>dataDefn:angularDisplacement&#45;&gt;assumpOT</title>
<path fill="none" stroke="black" d="M691.84,-71.7C688.62,-63.9 687.73,-54.51 689.16,-45.83"/>
<polygon fill="black" stroke="black" points="692.56,-46.68 691.92,-36.1 685.83,-44.77 692.56,-46.68"/>
</g>
<!-- dataDefn&#45;&gt;assumpOT -->
<g id="edge7" class="edge">
<title>dataDefn:angularVelocity&#45;&gt;assumpOT</title>
<path fill="none" stroke="black" d="M703.67,-71.7C702.08,-63.98 701.62,-54.71 702.31,-46.11"/>
<polygon fill="black" stroke="black" points="705.79,-46.49 703.71,-36.1 698.86,-45.52 705.79,-46.49"/>
</g>
<!-- dataDefn&#45;&gt;assumpOT -->
<g id="edge9" class="edge">
<title>dataDefn:angularAcceleration&#45;&gt;assumpOT</title>
<path fill="none" stroke="black" d="M715.5,-71.7C715.5,-63.98 715.5,-54.71 715.5,-46.11"/>
<polygon fill="black" stroke="black" points="719,-46.1 715.5,-36.1 712,-46.1 719,-46.1"/>
</g>
<!-- dataDefn&#45;&gt;assumpOT -->
<g id="edge11" class="edge">
<title>dataDefn:velocityB&#45;&gt;assumpOT</title>
<path fill="none" stroke="black" d="M727.33,-71.7C728.92,-63.98 729.38,-54.71 728.69,-46.11"/>
<polygon fill="black" stroke="black" points="732.14,-45.52 727.29,-36.1 725.21,-46.49 732.14,-45.52"/>
</g>
<!-- dataDefn&#45;&gt;assumpOT -->
<g id="edge12" class="edge">
<title>dataDefn:kEnergy&#45;&gt;assumpOT</title>
<path fill="none" stroke="black" d="M739.16,-71.7C742.38,-63.9 743.27,-54.51 741.84,-45.83"/>
<polygon fill="black" stroke="black" points="745.17,-44.77 739.08,-36.1 738.44,-46.68 745.17,-44.77"/>
</g>
<!-- dataDefn&#45;&gt;assumpOT -->
<g id="edge15" class="edge">
<title>dataDefn:v_iAB&#45;&gt;assumpOT</title>
<path fill="none" stroke="black" d="M750.99,-71.7C755.87,-63.81 757.19,-54.3 754.93,-45.55"/>
<polygon fill="black" stroke="black" points="758.04,-43.91 750.87,-36.1 751.61,-46.67 758.04,-43.91"/>
</g>
<!-- dataDefn&#45;&gt;assumpOT -->
<g id="edge16" class="edge">
<title>dataDefn:impulseV&#45;&gt;assumpOT</title>
<path fill="none" stroke="black" d="M762.83,-71.7C769.54,-63.56 771.19,-53.69 767.77,-44.7"/>
<polygon fill="black" stroke="black" points="770.78,-42.91 762.66,-36.1 764.76,-46.49 770.78,-42.91"/>
</g>
<!-- dataDefn&#45;&gt;assumpOT -->
<g id="edge17" class="edge">
<title>dataDefn:potEnergy&#45;&gt;assumpOT</title>
<path fill="none" stroke="black" d="M774.66,-71.7C785.21,-61.47 785.75,-48.5 776.29,-37.99"/>
<polygon fill="black" stroke="black" points="778.51,-35.29 768.62,-31.49 773.99,-40.63 778.51,-35.29"/>
</g>
<!-- dataDefn&#45;&gt;assumpOT -->
<g id="edge20" class="edge">
<title>dataDefn:momentOfInertia&#45;&gt;assumpOT</title>
<path fill="none" stroke="black" d="M786.49,-71.7C802.19,-59.01 799.42,-42.11 778.17,-30.91"/>
<polygon fill="black" stroke="black" points="779.29,-27.58 768.73,-26.77 776.48,-33.99 779.29,-27.58"/>
</g>
<!-- assumpOD -->
<g id="node3" class="node">
<title>assumpOD</title>
<polygon fill="mistyrose" stroke="black" points="905.5,-36 797.5,-36 797.5,0 905.5,0 905.5,-36"/>
<text text-anchor="middle" x="851.5" y="-14.3" font-family="Times,serif" font-size="14.00">A:assumpOD</text>
</g>
<!-- dataDefn&#45;&gt;assumpOD -->
<g id="edge6" class="edge">
<title>dataDefn:angularDisplacement&#45;&gt;assumpOD</title>
<path fill="none" stroke="black" d="M725.18,-71.88C740.32,-61.94 764.37,-49.38 787.99,-39"/>
<polygon fill="black" stroke="black" points="789.53,-42.14 797.35,-34.99 786.78,-35.71 789.53,-42.14"/>
</g>
<!-- dataDefn&#45;&gt;assumpOD -->
<g id="edge8" class="edge">
<title>dataDefn:angularVelocity&#45;&gt;assumpOD</title>
<path fill="none" stroke="black" d="M736.98,-71.88C753.42,-62.39 776.24,-50.51 797.33,-40.42"/>
<polygon fill="black" stroke="black" points="799.01,-43.5 806.56,-36.07 796.02,-37.17 799.01,-43.5"/>
</g>
<!-- dataDefn&#45;&gt;assumpOD -->
<g id="edge10" class="edge">
<title>dataDefn:angularAcceleration&#45;&gt;assumpOD</title>
<path fill="none" stroke="black" d="M748.77,-71.88C766.96,-62.51 789.69,-50.81 809.14,-40.8"/>
<polygon fill="black" stroke="black" points="810.81,-43.88 818.1,-36.19 807.61,-37.65 810.81,-43.88"/>
</g>
<!-- dataDefn&#45;&gt;assumpOD -->
<g id="edge13" class="edge">
<title>dataDefn:kEnergy&#45;&gt;assumpOD</title>
<path fill="none" stroke="black" d="M760.56,-71.88C780.44,-62.64 803.09,-51.13 821.01,-41.21"/>
<polygon fill="black" stroke="black" points="822.92,-44.15 829.91,-36.19 819.48,-38.06 822.92,-44.15"/>
</g>
<!-- dataDefn&#45;&gt;assumpOD -->
<g id="edge18" class="edge">
<title>dataDefn:potEnergy&#45;&gt;assumpOD</title>
<path fill="none" stroke="black" d="M772.36,-71.88C793.97,-62.72 816.69,-51.34 833.22,-41.48"/>
<polygon fill="black" stroke="black" points="835.08,-44.45 841.72,-36.19 831.38,-38.51 835.08,-44.45"/>
</g>
<!-- assumpDI -->
<g id="node4" class="node">
<title>assumpDI</title>
<polygon fill="mistyrose" stroke="black" points="386.5,-36 284.5,-36 284.5,0 386.5,0 386.5,-36"/>
<text text-anchor="middle" x="335.5" y="-14.3" font-family="Times,serif" font-size="14.00">A:assumpDI</text>
</g>
<!-- dataDefn&#45;&gt;assumpDI -->
<g id="edge14" class="edge">
<title>dataDefn:kEnergy&#45;&gt;assumpDI</title>
<path fill="none" stroke="black" d="M631.89,-78.8C567.56,-69.88 476.51,-55.64 395.95,-38.09"/>
<polygon fill="black" stroke="black" points="396.7,-34.67 386.18,-35.93 395.19,-41.5 396.7,-34.67"/>
</g>
<!-- dataDefn&#45;&gt;assumpDI -->
<g id="edge19" class="edge">
<title>dataDefn:potEnergy&#45;&gt;assumpDI</title>
<path fill="none" stroke="black" d="M631.84,-76.67C568.98,-67.3 481.02,-53.12 404.5,-36 401.87,-35.41 399.18,-34.78 396.46,-34.11"/>
<polygon fill="black" stroke="black" points="397.1,-30.66 386.55,-31.58 395.37,-37.44 397.1,-30.66"/>
</g>
<!-- theory -->
<g id="node5" class="node">
<title>theory</title>
<polygon fill="#fff68f" stroke="black" points="686,-180 605,-180 605,-144 686,-144 686,-180"/>
<text text-anchor="middle" x="645.5" y="-158.3" font-family="Times,serif" font-size="14.00">IM:col2D</text>
</g>
<!-- theory&#45;&gt;dataDefn -->
<g id="edge31" class="edge">
<title>theory:accj&#45;&gt;dataDefn:p_CM</title>
<path fill="none" stroke="black" d="M621.39,-143.7C623.91,-134.63 634.1,-123.4 648.32,-113.65"/>
<polygon fill="black" stroke="black" points="650.53,-116.39 657.13,-108.1 646.8,-110.47 650.53,-116.39"/>
</g>
<!-- theory&#45;&gt;dataDefn -->
<g id="edge32" class="edge">
<title>theory:accj&#45;&gt;dataDefn:linearDisplacement</title>
<path fill="none" stroke="black" d="M633.22,-143.7C637.58,-134.71 647.9,-123.61 660.68,-113.92"/>
<polygon fill="black" stroke="black" points="662.77,-116.73 668.92,-108.1 658.73,-111.01 662.77,-116.73"/>
</g>
<!-- theory&#45;&gt;dataDefn -->
<g id="edge33" class="edge">
<title>theory:accj&#45;&gt;dataDefn:linearVelocity</title>
<path fill="none" stroke="black" d="M645.06,-143.7C651.14,-134.88 661.49,-124.03 672.79,-114.47"/>
<polygon fill="black" stroke="black" points="675.11,-117.1 680.71,-108.1 670.72,-111.64 675.11,-117.1"/>
</g>
<!-- theory&#45;&gt;dataDefn -->
<g id="edge34" class="edge">
<title>theory:accj&#45;&gt;dataDefn:linearAcceleration</title>
<path fill="none" stroke="black" d="M656.89,-143.7C664.64,-135.05 675.07,-124.45 685.03,-115.03"/>
<polygon fill="black" stroke="black" points="687.54,-117.47 692.5,-108.1 682.79,-112.33 687.54,-117.47"/>
</g>
<!-- theory&#45;&gt;dataDefn -->
<g id="edge40" class="edge">
<title>theory:angAccj&#45;&gt;dataDefn:angularDisplacement</title>
<path fill="none" stroke="black" d="M668.72,-143.7C678.07,-135.22 688.61,-124.86 697.39,-115.58"/>
<polygon fill="black" stroke="black" points="700.08,-117.83 704.29,-108.1 694.94,-113.08 700.08,-117.83"/>
</g>
<!-- theory&#45;&gt;dataDefn -->
<g id="edge41" class="edge">
<title>theory:angAccj&#45;&gt;dataDefn:angularVelocity</title>
<path fill="none" stroke="black" d="M680.55,-143.7C691.43,-135.39 702.13,-125.28 709.88,-116.14"/>
<polygon fill="black" stroke="black" points="712.74,-118.16 716.08,-108.1 707.2,-113.88 712.74,-118.16"/>
</g>
<!-- theory&#45;&gt;dataDefn -->
<g id="edge42" class="edge">
<title>theory:angAccj&#45;&gt;dataDefn:angularAcceleration</title>
<path fill="none" stroke="black" d="M686.01,-147.67C701.01,-138.87 714.64,-127.05 722.63,-116.49"/>
<polygon fill="black" stroke="black" points="725.6,-118.34 727.92,-108 719.66,-114.64 725.6,-118.34"/>
</g>
<!-- theory&#45;&gt;dataDefn -->
<g id="edge50" class="edge">
<title>theory:col2DIM&#45;&gt;dataDefn:p_CM</title>
<path fill="none" stroke="black" d="M686.04,-152.56C707.92,-143.81 726.64,-129.68 735.22,-117.17"/>
<polygon fill="black" stroke="black" points="738.44,-118.55 739.68,-108.03 732.15,-115.48 738.44,-118.55"/>
</g>
<!-- theory&#45;&gt;assumpOT -->
<g id="edge23" class="edge">
<title>theory:impulseS&#45;&gt;assumpOT</title>
<path fill="none" stroke="black" d="M614.38,-143.88C596.3,-125.14 583.36,-94.74 596.5,-72 607.96,-52.17 629.97,-39.1 652.67,-30.91"/>
<polygon fill="black" stroke="black" points="654.02,-34.15 662.42,-27.69 651.82,-27.5 654.02,-34.15"/>
</g>
<!-- theory&#45;&gt;assumpOT -->
<g id="edge27" class="edge">
<title>theory:accj&#45;&gt;assumpOT</title>
<path fill="none" stroke="black" d="M627.56,-143.88C614.3,-125.14 601.36,-94.74 614.5,-72 623.14,-57.06 637.76,-45.96 653.28,-37.88"/>
<polygon fill="black" stroke="black" points="654.97,-40.95 662.48,-33.48 651.95,-34.64 654.97,-40.95"/>
</g>
<!-- theory&#45;&gt;assumpOT -->
<g id="edge37" class="edge">
<title>theory:angAccj&#45;&gt;assumpOT</title>
<path fill="none" stroke="black" d="M640.75,-143.88C632.3,-125.14 619.36,-94.74 632.5,-72 640.07,-58.9 652.24,-48.76 664.99,-41.02"/>
<polygon fill="black" stroke="black" points="666.85,-43.98 673.85,-36.03 663.42,-37.88 666.85,-43.98"/>
</g>
<!-- theory&#45;&gt;assumpOT -->
<g id="edge44" class="edge">
<title>theory:col2DIM&#45;&gt;assumpOT</title>
<path fill="none" stroke="black" d="M653.93,-143.88C650.3,-125.14 637.36,-94.74 650.5,-72 658,-59.03 670.01,-48.95 682.04,-41.24"/>
<polygon fill="black" stroke="black" points="683.96,-44.17 690.75,-36.03 680.37,-38.16 683.96,-44.17"/>
</g>
<!-- theory&#45;&gt;assumpOD -->
<g id="edge21" class="edge">
<title>theory:newtonSLR&#45;&gt;assumpOD</title>
<path fill="none" stroke="black" d="M686.5,-181C695.18,-225.68 729.85,-154.63 772.5,-108 789.35,-89.58 800.93,-63.35 814.4,-44.14"/>
<polygon fill="black" stroke="black" points="817.24,-46.2 820.53,-36.12 811.68,-41.95 817.24,-46.2"/>
</g>
<!-- theory&#45;&gt;assumpOD -->
<g id="edge24" class="edge">
<title>theory:impulseS&#45;&gt;assumpOD</title>
<path fill="none" stroke="black" d="M686.66,-181.26C713.32,-225.4 747.94,-154.54 790.5,-108 807.12,-89.83 818.62,-64.06 828.69,-44.92"/>
<polygon fill="black" stroke="black" points="831.78,-46.57 833.53,-36.12 825.64,-43.2 831.78,-46.57"/>
</g>
<!-- theory&#45;&gt;assumpOD -->
<g id="edge28" class="edge">
<title>theory:accj&#45;&gt;assumpOD</title>
<path fill="none" stroke="black" d="M686.76,-181.26C731.32,-225.4 765.94,-154.54 808.5,-108 824.89,-90.07 836.31,-64.76 843.23,-45.71"/>
<polygon fill="black" stroke="black" points="846.59,-46.72 846.54,-36.12 839.97,-44.44 846.59,-46.72"/>
</g>
<!-- theory&#45;&gt;assumpOD -->
<g id="edge38" class="edge">
<title>theory:angAccj&#45;&gt;assumpOD</title>
<path fill="none" stroke="black" d="M686.87,-181.26C749.32,-225.4 783.94,-154.54 826.5,-108 842.74,-90.24 854.1,-65.23 858.08,-46.24"/>
<polygon fill="black" stroke="black" points="861.57,-46.52 859.54,-36.12 854.65,-45.52 861.57,-46.52"/>
</g>
<!-- theory&#45;&gt;assumpOD -->
<g id="edge45" class="edge">
<title>theory:col2DIM&#45;&gt;assumpOD</title>
<path fill="none" stroke="black" d="M686.97,-181.26C767.32,-225.4 801.94,-154.54 844.5,-108 860.74,-90.24 872.1,-65.23 873.12,-46.24"/>
<polygon fill="black" stroke="black" points="876.61,-45.91 872.54,-36.12 869.62,-46.31 876.61,-45.91"/>
</g>
<!-- theory&#45;&gt;assumpDI -->
<g id="edge29" class="edge">
<title>theory:accj&#45;&gt;assumpDI</title>
<path fill="none" stroke="black" d="M604.81,-161.21C519.24,-160.85 325.89,-154.95 285.5,-108 269.24,-89.1 285.03,-62.67 303.2,-43.53"/>
<polygon fill="black" stroke="black" points="305.83,-45.85 310.49,-36.33 300.91,-40.87 305.83,-45.85"/>
</g>
<!-- theory&#45;&gt;assumpDI -->
<g id="edge48" class="edge">
<title>theory:col2DIM&#45;&gt;assumpDI</title>
<path fill="none" stroke="black" d="M604.7,-161.14C522.56,-160.33 342.34,-153.14 303.5,-108 287.46,-89.35 302.62,-63.37 317.23,-44.3"/>
<polygon fill="black" stroke="black" points="320.09,-46.33 323.58,-36.33 314.61,-41.97 320.09,-46.33"/>
</g>
<!-- theory&#45;&gt;theory -->
<g id="edge22" class="edge">
<title>theory:gravitationalAccel&#45;&gt;theory:force</title>
<path fill="none" stroke="black" d="M686.23,-166.44C696.4,-166.13 704,-164.65 704,-162 704,-160.34 701.03,-159.15 696.32,-158.4"/>
<polygon fill="black" stroke="black" points="696.49,-154.91 686.23,-157.56 695.91,-161.88 696.49,-154.91"/>
</g>
<!-- theory&#45;&gt;theory -->
<g id="edge35" class="edge">
<title>theory:accj&#45;&gt;theory:newtonSL</title>
<path fill="none" stroke="black" d="M686.23,-156.91C696.4,-158.62 704,-163.05 704,-171 704,-181.97 699.54,-186.25 694.82,-185.89"/>
<polygon fill="black" stroke="black" points="696.68,-182.92 686.5,-180 692.64,-188.64 696.68,-182.92"/>
</g>
<!-- theory&#45;&gt;theory -->
<g id="edge36" class="edge">
<title>theory:accj&#45;&gt;theory:gravitationalAccel</title>
<path fill="none" stroke="black" d="M686.04,-170.8C705.18,-171.82 722,-168.89 722,-162 722,-156.35 710.68,-153.36 696.05,-153.03"/>
<polygon fill="black" stroke="black" points="695.98,-149.53 686.04,-153.2 696.09,-156.53 695.98,-149.53"/>
</g>
<!-- theory&#45;&gt;theory -->
<g id="edge43" class="edge">
<title>theory:angAccj&#45;&gt;theory:newtonSLR</title>
<path fill="none" stroke="black" d="M686.04,-149.49C705.18,-148.89 722,-155.5 722,-171 722,-193.36 705.54,-197.2 693.35,-187.64"/>
<polygon fill="black" stroke="black" points="695.78,-185.11 686.5,-180 690.57,-189.78 695.78,-185.11"/>
</g>
<!-- theory&#45;&gt;theory -->
<g id="edge51" class="edge">
<title>theory:col2DIM&#45;&gt;theory:impulseS</title>
<path fill="none" stroke="black" d="M686.3,-174.31C713.51,-177.78 740,-173.67 740,-162 740,-151.79 719.72,-147.37 696.42,-148.75"/>
<polygon fill="black" stroke="black" points="695.93,-145.28 686.3,-149.69 696.58,-152.25 695.93,-145.28"/>
</g>
<!-- assumpAD -->
<g id="node6" class="node">
<title>assumpAD</title>
<polygon fill="mistyrose" stroke="black" points="107,-36 0,-36 0,0 107,0 107,-36"/>
<text text-anchor="middle" x="53.5" y="-14.3" font-family="Times,serif" font-size="14.00">A:assumpAD</text>
</g>
<!-- theory&#45;&gt;assumpAD -->
<g id="edge25" class="edge">
<title>theory:impulseS&#45;&gt;assumpAD</title>
<path fill="none" stroke="black" d="M604.98,-159.8C480.75,-155.43 114.55,-139.05 72.5,-108 52.9,-93.53 43.62,-66.72 42.58,-46.3"/>
<polygon fill="black" stroke="black" points="46.08,-46.36 42.78,-36.3 39.08,-46.23 46.08,-46.36"/>
</g>
<!-- theory&#45;&gt;assumpAD -->
<g id="edge39" class="edge">
<title>theory:angAccj&#45;&gt;assumpAD</title>
<path fill="none" stroke="black" d="M604.75,-159.51C483.63,-154.74 131.67,-138.4 90.5,-108 70.9,-93.53 61.62,-66.72 57.27,-46.3"/>
<polygon fill="black" stroke="black" points="60.68,-45.49 55.42,-36.3 53.8,-46.77 60.68,-45.49"/>
</g>
<!-- theory&#45;&gt;assumpAD -->
<g id="edge46" class="edge">
<title>theory:col2DIM&#45;&gt;assumpAD</title>
<path fill="none" stroke="black" d="M604.77,-159.17C485.98,-154 148.75,-137.72 108.5,-108 88.72,-93.39 79.45,-66.23 71.75,-45.74"/>
<polygon fill="black" stroke="black" points="74.96,-44.33 68.05,-36.3 68.44,-46.89 74.96,-44.33"/>
</g>
<!-- assumpCT -->
<g id="node7" class="node">
<title>assumpCT</title>
<polygon fill="mistyrose" stroke="black" points="263,-36 158,-36 158,0 263,0 263,-36"/>
<text text-anchor="middle" x="210.5" y="-14.3" font-family="Times,serif" font-size="14.00">A:assumpCT</text>
</g>
<!-- theory&#45;&gt;assumpCT -->
<g id="edge26" class="edge">
<title>theory:impulseS&#45;&gt;assumpCT</title>
<path fill="none" stroke="black" d="M604.77,-158.97C520.48,-153.95 330.81,-139.04 275.5,-108 249.63,-93.48 228.99,-66.11 217.88,-45.54"/>
<polygon fill="black" stroke="black" points="220.9,-43.77 213.33,-36.36 214.63,-46.87 220.9,-43.77"/>
</g>
<!-- theory&#45;&gt;assumpCT -->
<g id="edge47" class="edge">
<title>theory:col2DIM&#45;&gt;assumpCT</title>
<path fill="none" stroke="black" d="M604.87,-158.34C524,-152.77 346.67,-137.84 293.5,-108 267.28,-93.28 246.43,-65.37 231.83,-44.71"/>
<polygon fill="black" stroke="black" points="234.58,-42.52 225.96,-36.36 228.85,-46.55 234.58,-42.52"/>
</g>
<!-- assumpCAJI -->
<g id="node8" class="node">
<title>assumpCAJI</title>
<polygon fill="mistyrose" stroke="black" points="520.5,-36 404.5,-36 404.5,0 520.5,0 520.5,-36"/>
<text text-anchor="middle" x="462.5" y="-14.3" font-family="Times,serif" font-size="14.00">A:assumpCAJI</text>
</g>
<!-- theory&#45;&gt;assumpCAJI -->
<g id="edge30" class="edge">
<title>theory:accj&#45;&gt;assumpCAJI</title>
<path fill="none" stroke="black" d="M604.9,-157.18C548.21,-150.54 450.43,-134.96 429.5,-108 415.29,-89.69 424.84,-63.62 437.44,-44.42"/>
<polygon fill="black" stroke="black" points="440.39,-46.3 443.37,-36.14 434.7,-42.23 440.39,-46.3"/>
</g>
<!-- theory&#45;&gt;assumpCAJI -->
<g id="edge49" class="edge">
<title>theory:col2DIM&#45;&gt;assumpCAJI</title>
<path fill="none" stroke="black" d="M604.94,-155.64C552.77,-148.29 466.95,-133.06 447.5,-108 433.48,-89.94 442.58,-64.32 451.8,-45.2"/>
<polygon fill="black" stroke="black" points="455,-46.64 456.37,-36.14 448.75,-43.49 455,-46.64"/>
</g>
<!-- lcEC -->
<g id="node9" class="node">
<title>lcEC</title>
<polygon fill="lavender" stroke="black" points="173.5,-108 99.5,-108 99.5,-72 173.5,-72 173.5,-108"/>
<text text-anchor="middle" x="136.5" y="-86.3" font-family="Times,serif" font-size="14.00">LC:lcEC</text>
</g>
<!-- lcEC&#45;&gt;assumpCT -->
<g id="edge52" class="edge">
<title>lcEC&#45;&gt;assumpCT</title>
<path fill="none" stroke="black" d="M154.79,-71.7C163.93,-63.05 175.14,-52.45 185.1,-43.03"/>
<polygon fill="black" stroke="black" points="187.56,-45.52 192.42,-36.1 182.75,-40.43 187.56,-45.52"/>
</g>
<!-- lcID -->
<g id="node10" class="node">
<title>lcID</title>
<polygon fill="lavender" stroke="black" points="373,-108 304,-108 304,-72 373,-72 373,-108"/>
<text text-anchor="middle" x="338.5" y="-86.3" font-family="Times,serif" font-size="14.00">LC:lcID</text>
</g>
<!-- lcID&#45;&gt;assumpDI -->
<g id="edge53" class="edge">
<title>lcID&#45;&gt;assumpDI</title>
<path fill="none" stroke="black" d="M337.76,-71.7C337.43,-63.98 337.03,-54.71 336.66,-46.11"/>
<polygon fill="black" stroke="black" points="340.16,-45.95 336.23,-36.1 333.16,-46.25 340.16,-45.95"/>
</g>
<!-- lcIJC -->
<g id="node11" class="node">
<title>lcIJC</title>
<polygon fill="lavender" stroke="black" points="521.5,-108 447.5,-108 447.5,-72 521.5,-72 521.5,-108"/>
<text text-anchor="middle" x="484.5" y="-86.3" font-family="Times,serif" font-size="14.00">LC:lcIJC</text>
</g>
<!-- lcIJC&#45;&gt;assumpCAJI -->
<g id="edge54" class="edge">
<title>lcIJC&#45;&gt;assumpCAJI</title>
<path fill="none" stroke="black" d="M479.06,-71.7C476.61,-63.9 473.66,-54.51 470.93,-45.83"/>
<polygon fill="black" stroke="black" points="474.21,-44.59 467.88,-36.1 467.54,-46.69 474.21,-44.59"/>
</g>
<!-- assumpCST -->
<g id="node12" class="node">
<title>assumpCST</title>
<polygon fill="mistyrose" stroke="black" points="1039,-36 924,-36 924,0 1039,0 1039,-36"/>
<text text-anchor="middle" x="981.5" y="-14.3" font-family="Times,serif" font-size="14.00">A:assumpCST</text>
</g>
<!-- simSpace -->
<g id="node13" class="node">
<title>simSpace</title>
<polygon fill="ivory" stroke="black" points="904.5,-180 794.5,-180 794.5,-144 904.5,-144 904.5,-180"/>
<text text-anchor="middle" x="849.5" y="-158.3" font-family="Times,serif" font-size="14.00">FR:simSpace</text>
</g>
<!-- inputInitialConds -->
<g id="node14" class="node">
<title>inputInitialConds</title>
<polygon fill="ivory" stroke="black" points="1088,-180 923,-180 923,-144 1088,-144 1088,-180"/>
<text text-anchor="middle" x="1005.5" y="-158.3" font-family="Times,serif" font-size="14.00">FR:inputInitialConds</text>
</g>
<!-- inputSurfaceProps -->
<g id="node15" class="node">
<title>inputSurfaceProps</title>
<polygon fill="ivory" stroke="black" points="1281,-180 1106,-180 1106,-144 1281,-144 1281,-180"/>
<text text-anchor="middle" x="1193.5" y="-158.3" font-family="Times,serif" font-size="14.00">FR:inputSurfaceProps</text>
</g>
<!-- verifyPhysCons -->
<g id="node16" class="node">
<title>verifyPhysCons</title>
<polygon fill="ivory" stroke="black" points="1451.5,-180 1299.5,-180 1299.5,-144 1451.5,-144 1451.5,-180"/>
<text text-anchor="middle" x="1375.5" y="-158.3" font-family="Times,serif" font-size="14.00">FR:verifyPhysCons</text>
</g>
<!-- calcTransOverTime -->
<g id="node17" class="node">
<title>calcTransOverTime</title>
<polygon fill="ivory" stroke="black" points="1649,-180 1470,-180 1470,-144 1649,-144 1649,-180"/>
<text text-anchor="middle" x="1559.5" y="-158.3" font-family="Times,serif" font-size="14.00">FR:calcTransOverTime</text>
</g>
<!-- calcRotOverTime -->
<g id="node18" class="node">
<title>calcRotOverTime</title>
<polygon fill="ivory" stroke="black" points="1831.5,-180 1667.5,-180 1667.5,-144 1831.5,-144 1831.5,-180"/>
<text text-anchor="middle" x="1749.5" y="-158.3" font-family="Times,serif" font-size="14.00">FR:calcRotOverTime</text>
</g>
<!-- deterColls -->
<g id="node19" class="node">
<title>deterColls</title>
<polygon fill="ivory" stroke="black" points="1965,-180 1850,-180 1850,-144 1965,-144 1965,-180"/>
<text text-anchor="middle" x="1907.5" y="-158.3" font-family="Times,serif" font-size="14.00">FR:deterColls</text>
</g>
<!-- deterCollRespOverTime -->
<g id="node20" class="node">
<title>deterCollRespOverTime</title>
<polygon fill="ivory" stroke="black" points="2195.5,-180 1983.5,-180 1983.5,-144 2195.5,-144 2195.5,-180"/>
<text text-anchor="middle" x="2089.5" y="-158.3" font-family="Times,serif" font-size="14.00">FR:deterCollRespOverTime</text>
</g>
<!-- performance -->
<g id="node21" class="node">
<title>performance</title>
<polygon fill="ivory" stroke="black" points="2357.5,-180 2213.5,-180 2213.5,-144 2357.5,-144 2357.5,-180"/>
<text text-anchor="middle" x="2285.5" y="-158.3" font-family="Times,serif" font-size="14.00">NFR:performance</text>
</g>
<!-- correctness -->
<g id="node22" class="node">
<title>correctness</title>
<polygon fill="ivory" stroke="black" points="2513,-180 2376,-180 2376,-144 2513,-144 2513,-180"/>
<text text-anchor="middle" x="2444.5" y="-158.3" font-family="Times,serif" font-size="14.00">NFR:correctness</text>
</g>
<!-- usability -->
<g id="node23" class="node">
<title>usability</title>
<polygon fill="ivory" stroke="black" points="2646,-180 2531,-180 2531,-144 2646,-144 2646,-180"/>
<text text-anchor="middle" x="2588.5" y="-158.3" font-family="Times,serif" font-size="14.00">NFR:usability</text>
</g>
<!-- understandability -->
<g id="node24" class="node">
<title>understandability</title>
<polygon fill="ivory" stroke="black" points="2844.5,-180 2664.5,-180 2664.5,-144 2844.5,-144 2844.5,-180"/>
<text text-anchor="middle" x="2754.5" y="-158.3" font-family="Times,serif" font-size="14.00">NFR:understandability</text>
</g>
<!-- maintainability -->
<g id="node25" class="node">
<title>maintainability</title>
<polygon fill="ivory" stroke="black" points="3024,-180 2863,-180 2863,-144 3024,-144 3024,-180"/>
<text text-anchor="middle" x="2943.5" y="-158.3" font-family="Times,serif" font-size="14.00">NFR:maintainability</text>
</g>
<!-- linearGS -->
<g id="node26" class="node">
<title>linearGS</title>
<polygon fill="#ffb90f" stroke="black" points="3146.5,-180 3042.5,-180 3042.5,-144 3146.5,-144 3146.5,-180"/>
<text text-anchor="middle" x="3094.5" y="-158.3" font-family="Times,serif" font-size="14.00">GS:linearGS</text>
</g>
<!-- angularGS -->
<g id="node27" class="node">
<title>angularGS</title>
<polygon fill="#ffb90f" stroke="black" points="3282.5,-180 3164.5,-180 3164.5,-144 3282.5,-144 3282.5,-180"/>
<text text-anchor="middle" x="3223.5" y="-158.3" font-family="Times,serif" font-size="14.00">GS:angularGS</text>
</g>
<!-- lcVODES -->
<g id="node28" class="node">
<title>lcVODES</title>
<polygon fill="lavender" stroke="black" points="1033,-108 928,-108 928,-72 1033,-72 1033,-108"/>
<text text-anchor="middle" x="980.5" y="-86.3" font-family="Times,serif" font-size="14.00">LC:lcVODES</text>
</g>
<!-- ucSRB -->
<g id="node29" class="node">
<title>ucSRB</title>
<polygon fill="lavender" stroke="black" points="1142,-108 1051,-108 1051,-72 1142,-72 1142,-108"/>
<text text-anchor="middle" x="1096.5" y="-86.3" font-family="Times,serif" font-size="14.00">UC:ucSRB</text>
</g>
<!-- ucEI -->
<g id="node30" class="node">
<title>ucEI</title>
<polygon fill="lavender" stroke="black" points="1236.5,-108 1160.5,-108 1160.5,-72 1236.5,-72 1236.5,-108"/>
<text text-anchor="middle" x="1198.5" y="-86.3" font-family="Times,serif" font-size="14.00">UC:ucEI</text>
</g>
<!-- ucCCS -->
<g id="node31" class="node">
<title>ucCCS</title>
<polygon fill="lavender" stroke="black" points="1346,-108 1255,-108 1255,-72 1346,-72 1346,-108"/>
<text text-anchor="middle" x="1300.5" y="-86.3" font-family="Times,serif" font-size="14.00">UC:ucCCS</text>
</g>
<!-- ucORB -->
<g id="node32" class="node">
<title>ucORB</title>
<polygon fill="lavender" stroke="black" points="1456.5,-108 1364.5,-108 1364.5,-72 1456.5,-72 1456.5,-108"/>
<text text-anchor="middle" x="1410.5" y="-86.3" font-family="Times,serif" font-size="14.00">UC:ucORB</text>
</g>
</g>
</svg>
