<?xml version="1.0" encoding="UTF-8" standalone="no"?>
<!DOCTYPE svg PUBLIC "-//W3C//DTD SVG 1.1//EN"
 "http://www.w3.org/Graphics/SVG/1.1/DTD/svg11.dtd">
<!-- Generated by graphviz version 2.43.0 (0)
 -->
<!-- Title: avsa Pages: 1 -->
<svg width="876pt" height="44pt"
 viewBox="0.00 0.00 876.00 44.00" xmlns="http://www.w3.org/2000/svg" xmlns:xlink="http://www.w3.org/1999/xlink">
<g id="graph0" class="graph" transform="scale(1 1) rotate(0) translate(4 40)">
<title>avsa</title>
<polygon fill="white" stroke="transparent" points="-4,4 -4,-40 872,-40 872,4 -4,4"/>
<!-- assumpOT -->
<g id="node1" class="node">
<title>assumpOT</title>
<polygon fill="mistyrose" stroke="black" points="106,-36 0,-36 0,0 106,0 106,-36"/>
<text text-anchor="middle" x="53" y="-14.3" font-family="Times,serif" font-size="14.00">A:assumpOT</text>
</g>
<!-- assumpOD -->
<g id="node2" class="node">
<title>assumpOD</title>
<polygon fill="mistyrose" stroke="black" points="232,-36 124,-36 124,0 232,0 232,-36"/>
<text text-anchor="middle" x="178" y="-14.3" font-family="Times,serif" font-size="14.00">A:assumpOD</text>
</g>
<!-- assumpCST -->
<g id="node3" class="node">
<title>assumpCST</title>
<polygon fill="mistyrose" stroke="black" points="365.5,-36 250.5,-36 250.5,0 365.5,0 365.5,-36"/>
<text text-anchor="middle" x="308" y="-14.3" font-family="Times,serif" font-size="14.00">A:assumpCST</text>
</g>
<!-- assumpAD -->
<g id="node4" class="node">
<title>assumpAD</title>
<polygon fill="mistyrose" stroke="black" points="490.5,-36 383.5,-36 383.5,0 490.5,0 490.5,-36"/>
<text text-anchor="middle" x="437" y="-14.3" font-family="Times,serif" font-size="14.00">A:assumpAD</text>
</g>
<!-- assumpCT -->
<g id="node5" class="node">
<title>assumpCT</title>
<polygon fill="mistyrose" stroke="black" points="613.5,-36 508.5,-36 508.5,0 613.5,0 613.5,-36"/>
<text text-anchor="middle" x="561" y="-14.3" font-family="Times,serif" font-size="14.00">A:assumpCT</text>
</g>
<!-- assumpDI -->
<g id="node6" class="node">
<title>assumpDI</title>
<polygon fill="mistyrose" stroke="black" points="734,-36 632,-36 632,0 734,0 734,-36"/>
<text text-anchor="middle" x="683" y="-14.3" font-family="Times,serif" font-size="14.00">A:assumpDI</text>
</g>
<!-- assumpCAJI -->
<g id="node7" class="node">
<title>assumpCAJI</title>
<polygon fill="mistyrose" stroke="black" points="868,-36 752,-36 752,0 868,0 868,-36"/>
<text text-anchor="middle" x="810" y="-14.3" font-family="Times,serif" font-size="14.00">A:assumpCAJI</text>
</g>
</g>
</svg>
