<?xml version="1.0" encoding="UTF-8" standalone="no"?>
<!DOCTYPE svg PUBLIC "-//W3C//DTD SVG 1.1//EN"
 "http://www.w3.org/Graphics/SVG/1.1/DTD/svg11.dtd">
<!-- Generated by graphviz version 2.43.0 (0)
 -->
<!-- Title: refvsref Pages: 1 -->
<svg width="1941pt" height="129pt"
 viewBox="0.00 0.00 1940.50 128.85" xmlns="http://www.w3.org/2000/svg" xmlns:xlink="http://www.w3.org/1999/xlink">
<g id="graph0" class="graph" transform="scale(1 1) rotate(0) translate(4 124.85)">
<title>refvsref</title>
<polygon fill="white" stroke="transparent" points="-4,4 -4,-124.85 1936.5,-124.85 1936.5,4 -4,4"/>
<!-- theory -->
<g id="node1" class="node">
<title>theory</title>
<polygon fill="#fff68f" stroke="black" points="381.5,-108 300.5,-108 300.5,-72 381.5,-72 381.5,-108"/>
<text text-anchor="middle" x="341" y="-86.3" font-family="Times,serif" font-size="14.00">IM:col2D</text>
</g>
<!-- theory&#45;&gt;theory -->
<g id="edge1" class="edge">
<title>theory:gravitationalAccel&#45;&gt;theory:force</title>
<path fill="none" stroke="black" d="M381.73,-94.44C391.9,-94.13 399.5,-92.65 399.5,-90 399.5,-88.34 396.53,-87.15 391.82,-86.4"/>
<polygon fill="black" stroke="black" points="391.99,-82.91 381.73,-85.56 391.41,-89.88 391.99,-82.91"/>
</g>
<!-- theory&#45;&gt;theory -->
<g id="edge6" class="edge">
<title>theory:accj&#45;&gt;theory:newtonSL</title>
<path fill="none" stroke="black" d="M381.73,-84.91C391.9,-86.62 399.5,-91.05 399.5,-99 399.5,-109.97 395.04,-114.25 390.32,-113.89"/>
<polygon fill="black" stroke="black" points="392.18,-110.92 382,-108 388.14,-116.64 392.18,-110.92"/>
</g>
<!-- theory&#45;&gt;theory -->
<g id="edge7" class="edge">
<title>theory:accj&#45;&gt;theory:gravitationalAccel</title>
<path fill="none" stroke="black" d="M381.54,-98.8C400.68,-99.82 417.5,-96.89 417.5,-90 417.5,-84.35 406.18,-81.36 391.55,-81.03"/>
<polygon fill="black" stroke="black" points="391.48,-77.53 381.54,-81.2 391.59,-84.53 391.48,-77.53"/>
</g>
<!-- theory&#45;&gt;theory -->
<g id="edge11" class="edge">
<title>theory:angAccj&#45;&gt;theory:newtonSLR</title>
<path fill="none" stroke="black" d="M381.54,-77.49C400.68,-76.89 417.5,-83.5 417.5,-99 417.5,-121.36 401.04,-125.2 388.85,-115.64"/>
<polygon fill="black" stroke="black" points="391.28,-113.11 382,-108 386.07,-117.78 391.28,-113.11"/>
</g>
<!-- theory&#45;&gt;theory -->
<g id="edge13" class="edge">
<title>theory:col2DIM&#45;&gt;theory:impulseS</title>
<path fill="none" stroke="black" d="M381.8,-102.31C409.01,-105.78 435.5,-101.67 435.5,-90 435.5,-79.79 415.22,-75.37 391.92,-76.75"/>
<polygon fill="black" stroke="black" points="391.43,-73.28 381.8,-77.69 392.08,-80.25 391.43,-73.28"/>
</g>
<!-- p_CM -->
<g id="node2" class="node">
<title>p_CM</title>
<polygon fill="#bbffff" stroke="black" points="118,-36 0,-36 0,0 118,0 118,-36"/>
<text text-anchor="middle" x="59" y="-14.3" font-family="Times,serif" font-size="14.00">DD:ctrOfMass</text>
</g>
<!-- theory&#45;&gt;p_CM -->
<g id="edge2" class="edge">
<title>theory:accj&#45;&gt;p_CM</title>
<path fill="none" stroke="black" d="M300.18,-80.49C257.59,-70.59 189.03,-53.66 128.08,-38.51"/>
<polygon fill="black" stroke="black" points="128.92,-35.11 118.37,-36.09 127.23,-41.9 128.92,-35.11"/>
</g>
<!-- theory&#45;&gt;p_CM -->
<g id="edge12" class="edge">
<title>theory:col2DIM&#45;&gt;p_CM</title>
<path fill="none" stroke="black" d="M300.44,-77.24C259.02,-66.52 193.2,-50.23 136,-36 133.38,-35.35 130.7,-34.68 127.99,-34.01"/>
<polygon fill="black" stroke="black" points="128.62,-30.56 118.07,-31.55 126.93,-37.35 128.62,-30.56"/>
</g>
<!-- linearDisplacement -->
<g id="node3" class="node">
<title>linearDisplacement</title>
<polygon fill="#bbffff" stroke="black" points="230,-36 136,-36 136,0 230,0 230,-36"/>
<text text-anchor="middle" x="183" y="-14.3" font-family="Times,serif" font-size="14.00">DD:linDisp</text>
</g>
<!-- theory&#45;&gt;linearDisplacement -->
<g id="edge3" class="edge">
<title>theory:accj&#45;&gt;linearDisplacement</title>
<path fill="none" stroke="black" d="M302.35,-71.88C280.75,-62.31 253.65,-50.3 230.73,-40.15"/>
<polygon fill="black" stroke="black" points="232.09,-36.92 221.53,-36.07 229.25,-43.32 232.09,-36.92"/>
</g>
<!-- linearVelocity -->
<g id="node4" class="node">
<title>linearVelocity</title>
<polygon fill="#bbffff" stroke="black" points="331.5,-36 248.5,-36 248.5,0 331.5,0 331.5,-36"/>
<text text-anchor="middle" x="290" y="-14.3" font-family="Times,serif" font-size="14.00">DD:linVel</text>
</g>
<!-- theory&#45;&gt;linearVelocity -->
<g id="edge4" class="edge">
<title>theory:accj&#45;&gt;linearVelocity</title>
<path fill="none" stroke="black" d="M328.39,-71.7C322.4,-63.47 315.12,-53.48 308.52,-44.42"/>
<polygon fill="black" stroke="black" points="311.18,-42.13 302.46,-36.1 305.52,-46.25 311.18,-42.13"/>
</g>
<!-- linearAcceleration -->
<g id="node5" class="node">
<title>linearAcceleration</title>
<polygon fill="#bbffff" stroke="black" points="436,-36 350,-36 350,0 436,0 436,-36"/>
<text text-anchor="middle" x="393" y="-14.3" font-family="Times,serif" font-size="14.00">DD:linAcc</text>
</g>
<!-- theory&#45;&gt;linearAcceleration -->
<g id="edge5" class="edge">
<title>theory:accj&#45;&gt;linearAcceleration</title>
<path fill="none" stroke="black" d="M353.85,-71.7C360.03,-63.39 367.54,-53.28 374.32,-44.14"/>
<polygon fill="black" stroke="black" points="377.14,-46.22 380.29,-36.1 371.52,-42.04 377.14,-46.22"/>
</g>
<!-- angularDisplacement -->
<g id="node6" class="node">
<title>angularDisplacement</title>
<polygon fill="#bbffff" stroke="black" points="556,-36 454,-36 454,0 556,0 556,-36"/>
<text text-anchor="middle" x="505" y="-14.3" font-family="Times,serif" font-size="14.00">DD:angDisp</text>
</g>
<!-- theory&#45;&gt;angularDisplacement -->
<g id="edge8" class="edge">
<title>theory:angAccj&#45;&gt;angularDisplacement</title>
<path fill="none" stroke="black" d="M381.12,-71.88C403.64,-62.26 431.92,-50.19 455.77,-40.01"/>
<polygon fill="black" stroke="black" points="457.19,-43.21 465.01,-36.07 454.44,-36.77 457.19,-43.21"/>
</g>
<!-- angularVelocity -->
<g id="node7" class="node">
<title>angularVelocity</title>
<polygon fill="#bbffff" stroke="black" points="666,-36 574,-36 574,0 666,0 666,-36"/>
<text text-anchor="middle" x="620" y="-14.3" font-family="Times,serif" font-size="14.00">DD:angVel</text>
</g>
<!-- theory&#45;&gt;angularVelocity -->
<g id="edge9" class="edge">
<title>theory:angAccj&#45;&gt;angularVelocity</title>
<path fill="none" stroke="black" d="M381.67,-80.24C424.69,-70.79 494.73,-54.85 564.08,-36.17"/>
<polygon fill="black" stroke="black" points="565.12,-39.51 573.85,-33.51 563.28,-32.75 565.12,-39.51"/>
</g>
<!-- angularAcceleration -->
<g id="node8" class="node">
<title>angularAcceleration</title>
<polygon fill="#bbffff" stroke="black" points="791.5,-36 684.5,-36 684.5,0 791.5,0 791.5,-36"/>
<text text-anchor="middle" x="738" y="-14.3" font-family="Times,serif" font-size="14.00">DD:angAccel</text>
</g>
<!-- theory&#45;&gt;angularAcceleration -->
<g id="edge10" class="edge">
<title>theory:angAccj&#45;&gt;angularAcceleration</title>
<path fill="none" stroke="black" d="M381.62,-83.97C442.9,-76.08 562.78,-59.43 674.4,-36"/>
<polygon fill="black" stroke="black" points="675.42,-39.36 684.48,-33.86 673.97,-32.51 675.42,-39.36"/>
</g>
<!-- velocityB -->
<g id="node9" class="node">
<title>velocityB</title>
<polygon fill="#bbffff" stroke="black" points="938,-36 810,-36 810,0 938,0 938,-36"/>
<text text-anchor="middle" x="874" y="-14.3" font-family="Times,serif" font-size="14.00">DD:chaslesThm</text>
</g>
<!-- torque -->
<g id="node10" class="node">
<title>torque</title>
<polygon fill="#bbffff" stroke="black" points="1047.5,-36 956.5,-36 956.5,0 1047.5,0 1047.5,-36"/>
<text text-anchor="middle" x="1002" y="-14.3" font-family="Times,serif" font-size="14.00">DD:torque</text>
</g>
<!-- kEnergy -->
<g id="node11" class="node">
<title>kEnergy</title>
<polygon fill="#bbffff" stroke="black" points="1170,-36 1066,-36 1066,0 1170,0 1170,-36"/>
<text text-anchor="middle" x="1118" y="-14.3" font-family="Times,serif" font-size="14.00">DD:kEnergy</text>
</g>
<!-- restitutionCoef -->
<g id="node12" class="node">
<title>restitutionCoef</title>
<polygon fill="#bbffff" stroke="black" points="1345.5,-36 1188.5,-36 1188.5,0 1345.5,0 1345.5,-36"/>
<text text-anchor="middle" x="1267" y="-14.3" font-family="Times,serif" font-size="14.00">DD:coeffRestitution</text>
</g>
<!-- v_iAB -->
<g id="node13" class="node">
<title>v_iAB</title>
<polygon fill="#bbffff" stroke="black" points="1482,-36 1364,-36 1364,0 1482,0 1482,-36"/>
<text text-anchor="middle" x="1423" y="-14.3" font-family="Times,serif" font-size="14.00">DD:reVeInColl</text>
</g>
<!-- impulseV -->
<g id="node14" class="node">
<title>impulseV</title>
<polygon fill="#bbffff" stroke="black" points="1610,-36 1500,-36 1500,0 1610,0 1610,-36"/>
<text text-anchor="middle" x="1555" y="-14.3" font-family="Times,serif" font-size="14.00">DD:impulseV</text>
</g>
<!-- potEnergy -->
<g id="node15" class="node">
<title>potEnergy</title>
<polygon fill="#bbffff" stroke="black" points="1747.5,-36 1628.5,-36 1628.5,0 1747.5,0 1747.5,-36"/>
<text text-anchor="middle" x="1688" y="-14.3" font-family="Times,serif" font-size="14.00">DD:potEnergy</text>
</g>
<!-- momentOfInertia -->
<g id="node16" class="node">
<title>momentOfInertia</title>
<polygon fill="#bbffff" stroke="black" points="1932.5,-36 1765.5,-36 1765.5,0 1932.5,0 1932.5,-36"/>
<text text-anchor="middle" x="1849" y="-14.3" font-family="Times,serif" font-size="14.00">DD:momentOfInertia</text>
</g>
</g>
</svg>
