<?xml version="1.0" encoding="UTF-8" standalone="no"?>
<!DOCTYPE svg PUBLIC "-//W3C//DTD SVG 1.1//EN"
 "http://www.w3.org/Graphics/SVG/1.1/DTD/svg11.dtd">
<!-- Generated by graphviz version 2.43.0 (0)
 -->
<!-- Title: refvsref Pages: 1 -->
<svg width="1941pt" height="146pt"
 viewBox="0.00 0.00 1940.50 145.57" xmlns="http://www.w3.org/2000/svg" xmlns:xlink="http://www.w3.org/1999/xlink">
<g id="graph0" class="graph" transform="scale(1 1) rotate(0) translate(4 141.57)">
<title>refvsref</title>
<polygon fill="white" stroke="transparent" points="-4,4 -4,-141.57 1936.5,-141.57 1936.5,4 -4,4"/>
<!-- theory -->
<g id="node1" class="node">
<title>theory</title>
<polygon fill="#fff68f" stroke="black" points="386,-108 296,-108 296,-72 386,-72 386,-108"/>
<text text-anchor="middle" x="341" y="-86.3" font-family="Times,serif" font-size="14.00">IM:rotMot</text>
</g>
<!-- theory&#45;&gt;theory -->
<g id="edge1" class="edge">
<title>theory:gravitationalAccel&#45;&gt;theory:force</title>
<path fill="none" stroke="black" d="M386.02,-96.6C396.39,-96.03 404,-93.83 404,-90 404,-87.6 401.03,-85.85 396.26,-84.73"/>
<polygon fill="black" stroke="black" points="396.39,-81.21 386.02,-83.4 395.49,-88.16 396.39,-81.21"/>
</g>
<!-- theory&#45;&gt;theory -->
<g id="edge7" class="edge">
<title>theory:accj&#45;&gt;theory:gravitationalAccel</title>
<path fill="none" stroke="black" d="M386.39,-103.36C405.62,-104.37 422,-99.91 422,-90 422,-81.87 410.98,-77.41 396.4,-76.63"/>
<polygon fill="black" stroke="black" points="396.38,-73.13 386.39,-76.64 396.39,-80.13 396.38,-73.13"/>
</g>
<!-- p_CM -->
<g id="node2" class="node">
<title>p_CM</title>
<polygon fill="#bbffff" stroke="black" points="118,-36 0,-36 0,0 118,0 118,-36"/>
<text text-anchor="middle" x="59" y="-14.3" font-family="Times,serif" font-size="14.00">DD:ctrOfMass</text>
</g>
<!-- theory&#45;&gt;p_CM -->
<g id="edge2" class="edge">
<title>theory:accj&#45;&gt;p_CM</title>
<path fill="none" stroke="black" d="M295.9,-77.86C254.71,-67.68 191.83,-52.12 128.15,-36.28"/>
<polygon fill="black" stroke="black" points="128.89,-32.86 118.34,-33.84 127.2,-39.65 128.89,-32.86"/>
</g>
<!-- linearDisplacement -->
<g id="node3" class="node">
<title>linearDisplacement</title>
<polygon fill="#bbffff" stroke="black" points="230,-36 136,-36 136,0 230,0 230,-36"/>
<text text-anchor="middle" x="183" y="-14.3" font-family="Times,serif" font-size="14.00">DD:linDisp</text>
</g>
<!-- theory&#45;&gt;linearDisplacement -->
<g id="edge3" class="edge">
<title>theory:accj&#45;&gt;linearDisplacement</title>
<path fill="none" stroke="black" d="M302.35,-71.88C280.75,-62.31 253.65,-50.3 230.73,-40.15"/>
<polygon fill="black" stroke="black" points="232.09,-36.92 221.53,-36.07 229.25,-43.32 232.09,-36.92"/>
</g>
<!-- linearVelocity -->
<g id="node4" class="node">
<title>linearVelocity</title>
<polygon fill="#bbffff" stroke="black" points="331.5,-36 248.5,-36 248.5,0 331.5,0 331.5,-36"/>
<text text-anchor="middle" x="290" y="-14.3" font-family="Times,serif" font-size="14.00">DD:linVel</text>
</g>
<!-- theory&#45;&gt;linearVelocity -->
<g id="edge4" class="edge">
<title>theory:accj&#45;&gt;linearVelocity</title>
<path fill="none" stroke="black" d="M328.39,-71.7C322.4,-63.47 315.12,-53.48 308.52,-44.42"/>
<polygon fill="black" stroke="black" points="311.18,-42.13 302.46,-36.1 305.52,-46.25 311.18,-42.13"/>
</g>
<!-- linearAcceleration -->
<g id="node5" class="node">
<title>linearAcceleration</title>
<polygon fill="#bbffff" stroke="black" points="436,-36 350,-36 350,0 436,0 436,-36"/>
<text text-anchor="middle" x="393" y="-14.3" font-family="Times,serif" font-size="14.00">DD:linAcc</text>
</g>
<!-- theory&#45;&gt;linearAcceleration -->
<g id="edge5" class="edge">
<title>theory:accj&#45;&gt;linearAcceleration</title>
<path fill="none" stroke="black" d="M353.85,-71.7C360.03,-63.39 367.54,-53.28 374.32,-44.14"/>
<polygon fill="black" stroke="black" points="377.14,-46.22 380.29,-36.1 371.52,-42.04 377.14,-46.22"/>
</g>
<!-- newtonSL -->
<g id="node6" class="node">
<title>newtonSL</title>
<polygon fill="pink" stroke="black" points="849.5,-108 666.5,-108 666.5,-72 849.5,-72 849.5,-108"/>
<text text-anchor="middle" x="758" y="-86.3" font-family="Times,serif" font-size="14.00">TM:NewtonSecLawMot</text>
</g>
<!-- theory&#45;&gt;newtonSL -->
<g id="edge6" class="edge">
<title>theory:accj&#45;&gt;newtonSL</title>
<path fill="none" stroke="black" d="M381.06,-108.17C398.74,-115.24 420.01,-122.48 440,-126 531.04,-142.04 556.71,-140.56 648,-126 666.67,-123.02 686.47,-117.37 704.05,-111.41"/>
<polygon fill="black" stroke="black" points="705.29,-114.69 713.57,-108.09 702.98,-108.08 705.29,-114.69"/>
</g>
<!-- angularDisplacement -->
<g id="node7" class="node">
<title>angularDisplacement</title>
<polygon fill="#bbffff" stroke="black" points="556,-36 454,-36 454,0 556,0 556,-36"/>
<text text-anchor="middle" x="505" y="-14.3" font-family="Times,serif" font-size="14.00">DD:angDisp</text>
</g>
<!-- theory&#45;&gt;angularDisplacement -->
<g id="edge8" class="edge">
<title>theory:angAccj&#45;&gt;angularDisplacement</title>
<path fill="none" stroke="black" d="M381.12,-71.88C403.64,-62.26 431.92,-50.19 455.77,-40.01"/>
<polygon fill="black" stroke="black" points="457.19,-43.21 465.01,-36.07 454.44,-36.77 457.19,-43.21"/>
</g>
<!-- angularVelocity -->
<g id="node8" class="node">
<title>angularVelocity</title>
<polygon fill="#bbffff" stroke="black" points="666,-36 574,-36 574,0 666,0 666,-36"/>
<text text-anchor="middle" x="620" y="-14.3" font-family="Times,serif" font-size="14.00">DD:angVel</text>
</g>
<!-- theory&#45;&gt;angularVelocity -->
<g id="edge9" class="edge">
<title>theory:angAccj&#45;&gt;angularVelocity</title>
<path fill="none" stroke="black" d="M386.28,-79.23C429.55,-69.68 496.83,-54.29 563.95,-36.2"/>
<polygon fill="black" stroke="black" points="565.12,-39.51 573.85,-33.51 563.28,-32.75 565.12,-39.51"/>
</g>
<!-- angularAcceleration -->
<g id="node9" class="node">
<title>angularAcceleration</title>
<polygon fill="#bbffff" stroke="black" points="791.5,-36 684.5,-36 684.5,0 791.5,0 791.5,-36"/>
<text text-anchor="middle" x="738" y="-14.3" font-family="Times,serif" font-size="14.00">DD:angAccel</text>
</g>
<!-- theory&#45;&gt;angularAcceleration -->
<g id="edge10" class="edge">
<title>theory:angAccj&#45;&gt;angularAcceleration</title>
<path fill="none" stroke="black" d="M386.26,-80.08C400.55,-77.37 416.42,-74.45 431,-72 535.93,-54.36 565.93,-58.07 674.44,-35.97"/>
<polygon fill="black" stroke="black" points="675.4,-39.35 684.49,-33.9 673.99,-32.49 675.4,-39.35"/>
</g>
<!-- newtonSLR -->
<g id="node10" class="node">
<title>newtonSLR</title>
<polygon fill="pink" stroke="black" points="648,-108 440,-108 440,-72 648,-72 648,-108"/>
<text text-anchor="middle" x="544" y="-86.3" font-family="Times,serif" font-size="14.00">TM:NewtonSecLawRotMot</text>
</g>
<!-- theory&#45;&gt;newtonSLR -->
<g id="edge11" class="edge">
<title>theory:angAccj&#45;&gt;newtonSLR</title>
<path fill="none" stroke="black" d="M386.2,-90C400.72,-90 415.25,-90 429.77,-90"/>
<polygon fill="black" stroke="black" points="429.83,-93.5 439.83,-90 429.83,-86.5 429.83,-93.5"/>
</g>
<!-- col2DIM -->
<g id="node11" class="node">
<title>col2DIM</title>
<polygon fill="#fff68f" stroke="black" points="214.5,-108 133.5,-108 133.5,-72 214.5,-72 214.5,-108"/>
<text text-anchor="middle" x="174" y="-86.3" font-family="Times,serif" font-size="14.00">IM:col2D</text>
</g>
<!-- col2DIM&#45;&gt;theory -->
<g id="edge13" class="edge">
<title>col2DIM&#45;&gt;theory:impulseS</title>
<path fill="none" stroke="black" d="M214.77,-90C238.36,-90 261.94,-90 285.53,-90"/>
<polygon fill="black" stroke="black" points="285.64,-93.5 295.64,-90 285.64,-86.5 285.64,-93.5"/>
</g>
<!-- col2DIM&#45;&gt;p_CM -->
<g id="edge12" class="edge">
<title>col2DIM&#45;&gt;p_CM</title>
<path fill="none" stroke="black" d="M145.87,-71.88C130.83,-62.72 112.13,-51.34 95.94,-41.48"/>
<polygon fill="black" stroke="black" points="97.6,-38.4 87.24,-36.19 93.96,-44.38 97.6,-38.4"/>
</g>
<!-- velocityB -->
<g id="node12" class="node">
<title>velocityB</title>
<polygon fill="#bbffff" stroke="black" points="938,-36 810,-36 810,0 938,0 938,-36"/>
<text text-anchor="middle" x="874" y="-14.3" font-family="Times,serif" font-size="14.00">DD:chaslesThm</text>
</g>
<!-- torque -->
<g id="node13" class="node">
<title>torque</title>
<polygon fill="#bbffff" stroke="black" points="1047.5,-36 956.5,-36 956.5,0 1047.5,0 1047.5,-36"/>
<text text-anchor="middle" x="1002" y="-14.3" font-family="Times,serif" font-size="14.00">DD:torque</text>
</g>
<!-- kEnergy -->
<g id="node14" class="node">
<title>kEnergy</title>
<polygon fill="#bbffff" stroke="black" points="1170,-36 1066,-36 1066,0 1170,0 1170,-36"/>
<text text-anchor="middle" x="1118" y="-14.3" font-family="Times,serif" font-size="14.00">DD:kEnergy</text>
</g>
<!-- restitutionCoef -->
<g id="node15" class="node">
<title>restitutionCoef</title>
<polygon fill="#bbffff" stroke="black" points="1345.5,-36 1188.5,-36 1188.5,0 1345.5,0 1345.5,-36"/>
<text text-anchor="middle" x="1267" y="-14.3" font-family="Times,serif" font-size="14.00">DD:coeffRestitution</text>
</g>
<!-- v_iAB -->
<g id="node16" class="node">
<title>v_iAB</title>
<polygon fill="#bbffff" stroke="black" points="1482,-36 1364,-36 1364,0 1482,0 1482,-36"/>
<text text-anchor="middle" x="1423" y="-14.3" font-family="Times,serif" font-size="14.00">DD:reVeInColl</text>
</g>
<!-- impulseV -->
<g id="node17" class="node">
<title>impulseV</title>
<polygon fill="#bbffff" stroke="black" points="1610,-36 1500,-36 1500,0 1610,0 1610,-36"/>
<text text-anchor="middle" x="1555" y="-14.3" font-family="Times,serif" font-size="14.00">DD:impulseV</text>
</g>
<!-- potEnergy -->
<g id="node18" class="node">
<title>potEnergy</title>
<polygon fill="#bbffff" stroke="black" points="1747.5,-36 1628.5,-36 1628.5,0 1747.5,0 1747.5,-36"/>
<text text-anchor="middle" x="1688" y="-14.3" font-family="Times,serif" font-size="14.00">DD:potEnergy</text>
</g>
<!-- momentOfInertia -->
<g id="node19" class="node">
<title>momentOfInertia</title>
<polygon fill="#bbffff" stroke="black" points="1932.5,-36 1765.5,-36 1765.5,0 1932.5,0 1932.5,-36"/>
<text text-anchor="middle" x="1849" y="-14.3" font-family="Times,serif" font-size="14.00">DD:momentOfInertia</text>
</g>
</g>
</svg>
