<?xml version="1.0" encoding="UTF-8" standalone="no"?>
<!DOCTYPE svg PUBLIC "-//W3C//DTD SVG 1.1//EN"
 "http://www.w3.org/Graphics/SVG/1.1/DTD/svg11.dtd">
<!-- Generated by graphviz version 2.43.0 (0)
 -->
<!-- Title: allvsr Pages: 1 -->
<svg width="347pt" height="116pt"
 viewBox="0.00 0.00 346.50 116.00" xmlns="http://www.w3.org/2000/svg" xmlns:xlink="http://www.w3.org/1999/xlink">
<g id="graph0" class="graph" transform="scale(1 1) rotate(0) translate(4 112)">
<title>allvsr</title>
<polygon fill="white" stroke="transparent" points="-4,4 -4,-112 342.5,-112 342.5,4 -4,4"/>
<!-- instance -->
<g id="node1" class="node">
<title>instance</title>
<polygon fill="#ffb90f" stroke="black" points="284.5,-108 139.5,-108 139.5,-72 284.5,-72 284.5,-108"/>
<text text-anchor="middle" x="212" y="-86.3" font-family="Times,serif" font-size="14.00">GS:pcmEnergyGS</text>
</g>
<!-- instance&#45;&gt;instance -->
<g id="edge8" class="edge">
<title>instance:findMass&#45;&gt;instance:inputValues</title>
<path fill="none" stroke="black" d="M284.79,-94.06C295.37,-93.42 302.5,-92.06 302.5,-90 302.5,-88.71 299.72,-87.7 295.04,-86.96"/>
<polygon fill="black" stroke="black" points="295.09,-83.45 284.79,-85.94 294.39,-90.42 295.09,-83.45"/>
</g>
<!-- instance&#45;&gt;instance -->
<g id="edge13" class="edge">
<title>instance:outputInputDerivVals&#45;&gt;instance:inputValues</title>
<path fill="none" stroke="black" d="M284.51,-98.96C304.87,-98.56 320.5,-95.58 320.5,-90 320.5,-85.38 309.78,-82.54 294.53,-81.48"/>
<polygon fill="black" stroke="black" points="294.65,-77.98 284.51,-81.04 294.35,-84.97 294.65,-77.98"/>
</g>
<!-- instance&#45;&gt;instance -->
<g id="edge14" class="edge">
<title>instance:outputInputDerivVals&#45;&gt;instance:findMass</title>
<path fill="none" stroke="black" d="M284.8,-103.42C313.99,-104.18 338.5,-99.7 338.5,-90 338.5,-81.43 319.4,-76.94 294.84,-76.53"/>
<polygon fill="black" stroke="black" points="294.78,-73.03 284.8,-76.58 294.81,-80.03 294.78,-73.03"/>
</g>
<!-- dataDefn -->
<g id="node2" class="node">
<title>dataDefn</title>
<polygon fill="#bbffff" stroke="black" points="128,-36 0,-36 0,0 128,0 128,-36"/>
<text text-anchor="middle" x="64" y="-14.3" font-family="Times,serif" font-size="14.00">DD:aspectRatio</text>
</g>
<!-- instance&#45;&gt;dataDefn -->
<g id="edge1" class="edge">
<title>instance:findMass&#45;&gt;dataDefn:wMass</title>
<path fill="none" stroke="black" d="M140.41,-71.88C115.32,-62.72 90.34,-51.34 73.43,-41.48"/>
<polygon fill="black" stroke="black" points="75.26,-38.5 64.92,-36.19 71.56,-44.44 75.26,-38.5"/>
</g>
<!-- instance&#45;&gt;dataDefn -->
<g id="edge2" class="edge">
<title>instance:findMass&#45;&gt;dataDefn:wVol</title>
<path fill="none" stroke="black" d="M152.21,-71.88C128.81,-62.64 103.9,-51.13 85.63,-41.21"/>
<polygon fill="black" stroke="black" points="87.16,-38.05 76.73,-36.19 83.72,-44.15 87.16,-38.05"/>
</g>
<!-- instance&#45;&gt;dataDefn -->
<g id="edge3" class="edge">
<title>instance:findMass&#45;&gt;dataDefn:tankVol</title>
<path fill="none" stroke="black" d="M164,-71.88C142.24,-62.51 117.24,-50.81 97.49,-40.8"/>
<polygon fill="black" stroke="black" points="99.03,-37.66 88.54,-36.19 95.82,-43.88 99.03,-37.66"/>
</g>
<!-- instance&#45;&gt;dataDefn -->
<g id="edge9" class="edge">
<title>instance:outputInputDerivVals&#45;&gt;dataDefn:tauW</title>
<path fill="none" stroke="black" d="M175.8,-71.88C155.74,-62.39 130.63,-50.51 109.29,-40.42"/>
<polygon fill="black" stroke="black" points="110.62,-37.18 100.09,-36.07 107.63,-43.51 110.62,-37.18"/>
</g>
<!-- instance&#45;&gt;dataDefn -->
<g id="edge10" class="edge">
<title>instance:outputInputDerivVals&#45;&gt;dataDefn:eta</title>
<path fill="none" stroke="black" d="M187.59,-71.88C169.36,-62.31 144.21,-50.3 121.23,-40.15"/>
<polygon fill="black" stroke="black" points="122.44,-36.86 111.87,-36.07 119.64,-43.27 122.44,-36.86"/>
</g>
<!-- instance&#45;&gt;dataDefn -->
<g id="edge11" class="edge">
<title>instance:outputInputDerivVals&#45;&gt;dataDefn:tauSP</title>
<path fill="none" stroke="black" d="M199.38,-71.88C183.01,-62.22 157.81,-50.09 133.08,-39.88"/>
<polygon fill="black" stroke="black" points="134.24,-36.57 123.65,-36.07 131.61,-43.06 134.24,-36.57"/>
</g>
<!-- instance&#45;&gt;dataDefn -->
<g id="edge12" class="edge">
<title>instance:outputInputDerivVals&#45;&gt;dataDefn:tauLP</title>
<path fill="none" stroke="black" d="M211.18,-71.88C195.38,-61.25 166.7,-47.61 137.57,-36.85"/>
<polygon fill="black" stroke="black" points="138.71,-33.54 128.11,-33.47 136.35,-40.13 138.71,-33.54"/>
</g>
<!-- theory -->
<g id="node3" class="node">
<title>theory</title>
<polygon fill="#fff68f" stroke="black" points="277.5,-36 146.5,-36 146.5,0 277.5,0 277.5,-36"/>
<text text-anchor="middle" x="212" y="-14.3" font-family="Times,serif" font-size="14.00">IM:heatEInPCM</text>
</g>
<!-- instance&#45;&gt;theory -->
<g id="edge4" class="edge">
<title>instance:findMass&#45;&gt;theory:eBalanceOnWtrRC</title>
<path fill="none" stroke="black" d="M139.29,-74.5C119.86,-62.86 119.25,-46.56 137.48,-34.64"/>
<polygon fill="black" stroke="black" points="139.29,-37.64 146.44,-29.82 135.97,-31.48 139.29,-37.64"/>
</g>
<!-- instance&#45;&gt;theory -->
<g id="edge5" class="edge">
<title>instance:findMass&#45;&gt;theory:eBalanceOnPCMRC</title>
<path fill="none" stroke="black" d="M146.93,-71.7C137.4,-63.3 135.29,-53.07 140.59,-43.86"/>
<polygon fill="black" stroke="black" points="143.37,-46 147.15,-36.1 138.02,-41.48 143.37,-46"/>
</g>
<!-- instance&#45;&gt;theory -->
<g id="edge6" class="edge">
<title>instance:findMass&#45;&gt;theory:heatEInWtrIM</title>
<path fill="none" stroke="black" d="M158.76,-71.7C151.13,-63.47 149.31,-53.48 153.32,-44.42"/>
<polygon fill="black" stroke="black" points="156.24,-46.35 158.94,-36.1 150.44,-42.43 156.24,-46.35"/>
</g>
<!-- instance&#45;&gt;theory -->
<g id="edge7" class="edge">
<title>instance:findMass&#45;&gt;theory:heatEInPCMRC</title>
<path fill="none" stroke="black" d="M170.59,-71.7C164.84,-63.73 163.33,-54.1 166.08,-45.26"/>
<polygon fill="black" stroke="black" points="169.33,-46.61 170.73,-36.1 163.09,-43.44 169.33,-46.61"/>
</g>
<!-- instance&#45;&gt;theory -->
<g id="edge15" class="edge">
<title>instance:calcValues&#45;&gt;theory:eBalanceOnWtrRC</title>
<path fill="none" stroke="black" d="M182.42,-71.7C178.36,-63.81 177.26,-54.3 179.14,-45.55"/>
<polygon fill="black" stroke="black" points="182.45,-46.7 182.52,-36.1 175.86,-44.34 182.45,-46.7"/>
</g>
<!-- instance&#45;&gt;theory -->
<g id="edge16" class="edge">
<title>instance:calcValues&#45;&gt;theory:eBalanceOnPCMRC</title>
<path fill="none" stroke="black" d="M194.25,-71.7C191.87,-63.98 191.19,-54.71 192.21,-46.11"/>
<polygon fill="black" stroke="black" points="195.69,-46.61 194.31,-36.1 188.84,-45.17 195.69,-46.61"/>
</g>
<!-- instance&#45;&gt;theory -->
<g id="edge17" class="edge">
<title>instance:calcValues&#45;&gt;theory:heatEInWtrIM</title>
<path fill="none" stroke="black" d="M206.08,-71.7C205.29,-63.98 205.06,-54.71 205.4,-46.11"/>
<polygon fill="black" stroke="black" points="208.9,-46.32 206.1,-36.1 201.92,-45.84 208.9,-46.32"/>
</g>
<!-- instance&#45;&gt;theory -->
<g id="edge18" class="edge">
<title>instance:calcValues&#45;&gt;theory:heatEInPCMRC</title>
<path fill="none" stroke="black" d="M217.92,-71.7C218.71,-63.98 218.94,-54.71 218.6,-46.11"/>
<polygon fill="black" stroke="black" points="222.08,-45.84 217.9,-36.1 215.1,-46.32 222.08,-45.84"/>
</g>
<!-- instance&#45;&gt;theory -->
<g id="edge19" class="edge">
<title>instance:calcPCMMeltBegin&#45;&gt;theory:eBalanceOnPCMRC</title>
<path fill="none" stroke="black" d="M229.75,-71.7C232.13,-63.98 232.81,-54.71 231.79,-46.11"/>
<polygon fill="black" stroke="black" points="235.16,-45.17 229.69,-36.1 228.31,-46.61 235.16,-45.17"/>
</g>
<!-- instance&#45;&gt;theory -->
<g id="edge20" class="edge">
<title>instance:calcPCMMeltEnd&#45;&gt;theory:eBalanceOnPCMRC</title>
<path fill="none" stroke="black" d="M241.58,-71.7C245.64,-63.81 246.74,-54.3 244.86,-45.55"/>
<polygon fill="black" stroke="black" points="248.14,-44.34 241.48,-36.1 241.55,-46.7 248.14,-44.34"/>
</g>
<!-- instance&#45;&gt;theory -->
<g id="edge21" class="edge">
<title>instance:outputValues&#45;&gt;theory:eBalanceOnWtrRC</title>
<path fill="none" stroke="black" d="M253.41,-71.7C259.16,-63.73 260.67,-54.1 257.92,-45.26"/>
<polygon fill="black" stroke="black" points="260.91,-43.44 253.27,-36.1 254.67,-46.61 260.91,-43.44"/>
</g>
<!-- instance&#45;&gt;theory -->
<g id="edge22" class="edge">
<title>instance:outputValues&#45;&gt;theory:eBalanceOnPCMRC</title>
<path fill="none" stroke="black" d="M265.24,-71.7C272.87,-63.47 274.69,-53.48 270.68,-44.42"/>
<polygon fill="black" stroke="black" points="273.56,-42.43 265.06,-36.1 267.76,-46.35 273.56,-42.43"/>
</g>
<!-- instance&#45;&gt;theory -->
<g id="edge23" class="edge">
<title>instance:outputValues&#45;&gt;theory:heatEInWtrIM</title>
<path fill="none" stroke="black" d="M277.07,-71.7C286.6,-63.3 288.71,-53.07 283.41,-43.86"/>
<polygon fill="black" stroke="black" points="285.98,-41.48 276.85,-36.1 280.63,-46 285.98,-41.48"/>
</g>
<!-- instance&#45;&gt;theory -->
<g id="edge24" class="edge">
<title>instance:outputValues&#45;&gt;theory:heatEInPCMRC</title>
<path fill="none" stroke="black" d="M284.71,-74.5C304.14,-62.86 304.75,-46.56 286.52,-34.64"/>
<polygon fill="black" stroke="black" points="288.03,-31.48 277.56,-29.82 284.71,-37.64 288.03,-31.48"/>
</g>
</g>
</svg>
